note,velocity,position,duration
47,110,4321,447
54,110,4801,174
67,110,5761,156
64,110,5761,213
59,110,5761,153
47,110,6721,489
54,110,7201,534
47,110,8161,486
54,110,8641,180
67,110,9601,189
59,110,9601,168
64,110,9601,243
47,110,10561,459
54,110,11041,480
54,110,12001,507
55,110,12481,183
67,110,13441,201
59,110,13441,168
64,110,13441,255
54,110,14401,579
55,110,14881,477
50,110,15841,468
55,110,16321,156
67,110,17281,198
64,110,17281,261
59,110,17281,183
54,110,18241,468
55,110,18721,144
63,110,19201,150
59,110,19201,123
63,110,19921,144
59,110,19921,126
63,110,20641,141
59,110,20641,129
71,110,21121,321
66,110,21361,288
63,110,21601,225
59,110,21841,195
62,110,22081,909
64,110,23041,153
64,110,23521,132
64,110,24001,267
62,110,24241,267
64,110,24481,318
67,110,24721,774
64,110,25441,144
64,110,25921,276
62,110,26161,294
64,110,26401,321
67,110,26641,795
64,110,27361,126
64,110,27841,267
62,110,28081,252
64,110,28321,279
67,110,28561,711
64,110,29281,141
69,110,29761,534
71,110,30241,183
64,110,30721,183
64,110,31201,165
64,110,31681,237
62,110,31921,273
64,110,32161,282
67,110,32401,729
64,110,33121,129
64,110,33601,228
62,110,33841,309
64,110,34081,297
67,110,34321,795
64,110,35041,132
64,110,35521,252
62,110,35761,267
64,110,36001,273
67,110,36241,783
64,110,36961,141
62,110,37441,597
59,110,37441,408
64,110,38401,255
59,90,38641,231
64,110,38881,243
59,90,39121,291
64,110,39361,258
62,110,39601,291
64,110,39841,285
67,110,40081,489
59,90,40561,243
64,110,40801,252
59,90,41041,300
64,110,41281,252
62,110,41521,297
64,110,41761,315
67,110,42001,507
59,90,42481,237
64,110,42721,237
59,90,42961,282
64,110,43201,246
62,110,43441,294
64,110,43681,291
67,110,43921,516
59,90,44401,237
64,110,44641,246
59,90,44881,189
69,110,45121,459
71,110,45601,165
64,110,46081,228
59,90,46321,189
64,110,46561,219
59,90,46801,279
64,110,47041,237
62,110,47281,264
64,110,47521,288
67,110,47761,546
59,90,48241,222
64,110,48481,225
59,90,48721,294
64,110,48961,240
62,110,49201,285
64,110,49441,282
67,110,49681,513
59,90,50161,219
64,110,50401,228
59,90,50641,297
64,110,50881,255
62,110,51121,309
64,110,51361,396
59,110,51841,120
63,110,51841,114
63,110,52081,162
59,110,52081,147
59,110,52801,108
63,110,52801,120
63,110,52801,120
59,110,52801,108
63,110,53041,162
59,110,53041,147
67,100,54241,1800
79,110,54241,108
79,110,54481,126
79,110,54721,204
79,110,55201,114
79,110,55441,213
79,110,55921,186
69,110,56161,246
81,110,56161,246
67,110,56641,465
79,110,56641,465
79,110,58081,111
67,100,58081,1800
79,110,58321,141
79,110,58561,204
79,110,59041,111
79,110,59281,270
79,110,59761,156
69,110,60001,216
81,110,60001,216
67,110,60481,543
79,110,60481,543
79,110,61921,108
67,100,61921,1800
79,110,62161,138
79,110,62401,273
79,110,62881,111
79,110,63121,225
79,110,63601,210
69,110,63841,231
81,110,63841,231
67,110,64321,369
79,110,64321,369
67,110,65281,114
79,110,65281,114
67,110,65521,120
67,110,65521,120
79,110,65521,120
79,110,65521,120
67,110,66001,126
79,110,66001,126
67,110,66241,147
79,110,66241,147
67,110,66721,117
79,110,66721,117
67,110,66961,234
79,110,66961,234
67,110,67441,153
79,110,67441,153
69,110,67681,195
81,110,67681,195
67,110,68161,444
79,110,68161,444
71,110,69601,111
83,110,69601,111
71,110,69841,234
83,110,69841,234
71,110,70321,126
83,110,70321,126
71,110,70561,252
83,110,70561,252
71,110,71041,189
83,110,71041,189
69,110,71521,216
81,110,71521,216
67,110,72001,210
79,110,72001,210
62,110,72481,240
74,110,72481,240
83,110,73441,117
71,100,73441,1800
83,110,73681,171
83,110,74161,114
83,110,74401,192
83,110,74641,192
83,110,74881,195
69,110,75361,195
81,110,75361,195
67,110,75841,174
79,110,75841,174
64,110,76321,192
76,110,76321,192
62,110,76801,189
74,110,76801,189
64,110,77281,177
76,110,77281,177
67,110,77761,171
79,110,77761,171
69,110,78241,171
81,110,78241,171
70,110,78721,189
82,110,78721,189
69,110,79201,180
81,110,79201,180
67,110,79681,213
79,110,79681,213
69,110,80161,198
81,110,80161,198
70,110,80641,192
82,110,80641,192
69,110,81121,189
81,110,81121,189
70,110,81601,204
82,110,81601,204
69,110,82081,195
81,110,82081,195
70,110,82561,198
82,110,82561,198
69,110,83041,219
81,110,83041,219
67,110,83521,192
79,110,83521,192
63,110,84001,171
75,110,84001,171
64,110,84481,2010
76,110,84481,2010
62,110,87841,540
67,110,88321,267
67,110,88801,291
67,110,89281,306
67,110,89761,132
67,110,90001,336
67,110,90481,252
69,110,90721,432
67,110,91201,1116
67,110,92641,117
67,110,92881,135
67,110,93121,324
67,110,93601,135
67,110,93841,261
67,110,94321,306
69,110,94561,405
67,110,95041,1113
71,110,95041,1047
67,110,96481,120
67,110,96721,132
67,110,96961,369
67,110,97441,114
67,110,97681,315
67,110,98161,261
69,110,98401,489
67,110,98881,462
64,110,99361,441
67,110,99841,138
67,110,100081,135
67,110,100321,126
67,110,100561,141
67,110,100801,282
67,110,101281,129
67,110,101521,339
67,110,102001,270
69,110,102241,453
67,110,102721,1110
71,110,104161,246
71,110,104641,267
71,110,105121,141
71,110,105361,762
69,110,106081,522
67,110,106561,552
64,110,107041,381
71,110,107521,150
71,110,107761,138
71,110,108001,144
71,110,108241,159
71,110,108481,303
71,110,108961,135
71,110,109201,378
71,110,109681,291
74,110,109921,477
71,110,110401,498
69,110,110881,759
71,110,111841,270
71,110,112321,228
71,110,112801,168
71,110,113041,474
71,110,113761,504
74,110,114241,444
76,110,114721,231
76,110,115201,474
74,110,115681,465
76,110,116161,279
74,110,116401,321
76,110,116881,2364
88,110,117121,48
88,110,117361,57
88,110,117601,87
88,110,117841,81
88,110,118081,90
88,110,118321,93
88,110,118561,123
88,110,118801,372
76,110,120001,552
71,110,120001,552
83,110,120001,552
81,110,120481,1209
69,110,120481,1209
81,110,121921,546
69,110,121921,546
71,110,122401,855
67,110,122401,855
79,110,122401,855
79,110,123361,513
67,110,123361,513
81,110,123841,546
69,110,123841,546
79,110,124321,552
67,110,124321,552
81,110,124801,504
69,110,124801,504
79,110,125281,549
67,110,125281,549
83,110,125761,1626
71,110,125761,1626
76,110,127681,540
71,110,127681,540
83,110,127681,540
81,110,128161,1194
69,110,128161,1194
81,110,129601,609
69,110,129601,609
71,110,130081,777
67,110,130081,777
79,110,130081,777
79,110,131041,267
67,110,131041,267
79,110,131521,327
67,110,131521,327
76,110,132001,402
64,110,132001,402
79,110,132481,231
67,110,132481,231
76,110,132961,243
64,110,132961,243
81,110,133441,246
69,110,133441,246
79,110,134401,498
67,110,134401,498
76,110,134881,400
64,110,134881,471
76,110,135361,513
71,110,135361,513
83,110,135361,513
81,110,135841,885
69,110,135841,885
81,110,137281,576
69,110,137281,576
71,110,137761,669
67,110,137761,669
79,110,137761,669
79,110,138721,507
67,110,138721,507
81,110,139201,459
69,110,139201,459
79,110,139681,486
67,110,139681,486
86,110,140161,540
74,110,140161,540
83,110,140641,579
71,110,140641,579
81,110,141121,537
69,110,141121,537
79,110,141601,528
67,110,141601,528
81,110,142081,537
69,110,142081,537
79,110,142561,2052
72,110,142561,2052
67,110,142561,2052
76,110,144961,498
64,110,144961,498
79,110,145441,510
67,110,145441,510
78,110,145921,315
71,110,145921,315
75,110,145921,315
83,110,145921,315
78,110,146401,222
71,110,146401,222
75,110,146401,222
83,110,146401,222
78,110,146881,960
71,110,146881,960
75,110,146881,960
83,110,146881,960
83,110,148801,489
71,110,148801,489
86,110,149281,528
74,110,149281,528
88,110,149761,468
76,110,149761,468
86,110,150241,519
74,110,150241,519
88,110,150721,591
76,110,150721,591
88,110,151681,516
83,110,151681,516
76,110,151681,516
79,110,151681,516
86,110,152161,522
74,110,152161,522
88,110,152641,138
76,110,152641,138
88,110,153121,549
76,110,153121,549
86,110,153601,1083
79,110,153601,1083
83,110,153601,1083
91,110,153601,1083
90,110,154561,402
78,110,154561,402
86,110,155041,1035
74,110,155041,1035
88,110,156001,810
76,110,156001,810
76,110,157441,546
88,110,157441,546
86,110,157921,474
74,110,157921,474
88,110,158401,600
76,110,158401,600
88,110,159361,498
84,110,159361,546
76,110,159361,498
79,110,159361,546
86,110,159841,546
74,110,159841,546
88,110,160321,162
76,110,160321,162
88,110,160801,537
76,110,160801,537
87,110,161281,393
75,110,161281,393
87,110,161761,400
75,110,161761,400
87,110,162241,400
75,110,162241,400
88,110,162721,588
76,110,162721,588
90,110,163201,1005
78,110,163201,1005
87,110,164161,549
75,110,164161,549
88,110,165121,504
76,110,165121,504
86,110,165601,543
74,110,165601,543
88,110,166081,492
76,110,166081,492
88,110,167041,567
76,110,167041,567
83,110,167041,516
79,110,167041,516
86,110,167521,564
74,110,167521,564
88,110,168001,945
76,110,168001,945
91,110,168961,984
79,110,168961,984
86,110,168961,1083
83,110,168961,1083
90,110,169921,480
78,110,169921,480
86,110,170401,990
74,110,170401,990
88,110,171361,147
76,110,171361,147
95,110,172321,555
83,110,172321,555
93,110,172801,1425
81,110,172801,1425
88,110,174241,204
76,110,174241,204
76,110,175201,267
79,110,175441,309
84,110,175681,303
79,110,175921,294
76,110,176161,258
72,110,176401,378
87,110,176641,291
75,110,176641,291
87,110,177121,276
75,110,177121,276
87,110,177601,486
75,110,177601,486
88,110,178081,516
76,110,178081,516
90,110,178561,495
78,110,178561,495
83,110,179041,501
71,110,179041,501
91,110,179521,477
79,110,179521,477
90,110,180001,1041
78,110,180001,1041
91,110,180961,507
79,110,180961,507
76,110,181441,291
74,110,181681,273
76,110,181921,327
79,110,182161,219
76,110,182881,150
76,110,183361,243
74,110,183601,279
76,110,183841,297
79,110,184081,711
76,110,184801,132
76,110,185281,237
74,110,185521,255
76,110,185761,270
79,110,186001,807
76,110,186721,153
81,110,187201,465
83,110,187681,195
76,110,188161,216
71,80,188401,234
76,110,188641,234
71,80,188881,312
76,110,189121,234
74,110,189361,249
76,110,189601,279
79,110,189841,492
71,80,190321,270
76,110,190561,246
71,80,190801,297
76,110,191041,243
74,110,191281,279
76,110,191521,288
79,110,191761,537
71,80,192241,234
76,110,192481,219
71,80,192721,288
76,110,192961,267
74,110,193201,318
76,110,193441,156
75,110,193921,153
71,110,193921,135
71,110,194641,117
75,110,194641,123
75,110,195361,132
71,110,195361,123
40,80,3841,186
28,80,3841,1482
40,80,4561,159
40,80,5281,957
28,80,6241,480
40,80,6721,165
31,80,7681,1797
43,80,7681,276
43,80,8401,288
43,80,9121,480
31,80,10081,522
43,80,10561,159
48,80,11521,261
36,80,11521,1608
48,80,12241,213
48,80,12961,963
36,80,13921,549
48,80,14401,165
35,80,15361,1746
47,80,15361,303
47,80,16081,231
47,80,16801,636
35,80,17761,462
47,80,18241,417
35,80,19201,162
47,80,19201,147
35,80,19921,171
47,80,19921,153
47,80,20641,159
35,80,20641,150
47,80,21361,132
35,80,21361,132
26,80,22081,180
38,80,22081,159
28,80,23041,108
40,80,23041,159
40,80,23521,489
52,80,24001,111
47,80,24001,132
42,80,24481,114
30,80,24481,105
43,80,24721,135
31,80,24721,114
43,80,25441,501
50,80,25921,507
55,80,25921,453
43,80,26401,141
36,80,26641,129
24,80,26641,78
36,80,27361,459
48,80,27841,420
43,80,27841,471
36,80,28321,105
26,80,28561,108
38,80,28561,147
38,80,29281,471
45,80,29761,534
50,80,29761,480
38,80,30241,120
28,80,30721,123
40,80,30721,144
40,80,31201,498
52,80,31681,93
47,80,31681,120
42,80,32161,108
30,80,32161,87
31,80,32401,108
43,80,32401,147
43,80,33121,501
50,80,33601,522
55,80,33601,459
43,80,34081,126
36,80,34321,123
48,80,34321,141
48,80,35041,459
55,80,35521,510
60,80,35521,456
48,80,36001,120
35,80,36241,90
47,80,36241,108
47,80,36961,504
54,80,37441,528
59,80,37441,492
47,80,37921,117
28,80,38401,105
40,80,38401,147
40,80,38881,501
52,80,39361,120
47,80,39361,138
42,80,39841,96
30,80,39841,129
43,80,40081,126
31,80,40081,132
43,80,40801,513
50,80,41281,522
55,80,41281,462
43,80,41761,126
24,80,42001,84
36,80,42001,105
36,80,42721,456
48,80,43201,453
43,80,43201,501
36,80,43681,129
26,80,43921,87
38,80,43921,144
38,80,44641,519
45,80,45121,546
50,80,45121,498
38,80,45601,120
28,80,46081,102
40,80,46081,141
40,80,46561,513
52,80,47041,96
47,80,47041,132
30,80,47521,57
42,80,47521,66
31,80,47761,96
43,80,47761,111
43,80,48481,495
55,80,48961,456
50,80,48961,537
43,80,49441,87
36,80,49681,126
48,80,49681,132
48,80,50401,489
55,80,50881,477
60,80,50881,420
48,80,51361,138
35,80,51841,96
47,80,51841,54
35,80,52081,117
47,80,52081,117
35,80,52801,117
47,80,52801,105
47,80,53041,126
35,80,53041,129
40,80,53761,165
28,80,53761,153
28,80,56161,165
40,80,56161,189
31,80,57121,237
43,80,57121,198
31,80,60001,156
43,80,60001,177
48,80,60961,213
36,80,60961,216
36,80,63841,204
48,80,63841,174
35,80,64801,216
47,80,64801,165
27,80,66721,237
39,80,66721,234
28,80,68641,279
40,80,68641,267
40,80,71521,228
28,80,71521,174
31,80,72481,246
43,80,72481,237
31,80,75361,165
43,80,75361,216
36,80,76321,270
48,80,76321,246
36,80,79201,240
48,80,79201,192
35,80,80161,243
47,80,80161,273
39,80,82081,303
51,80,82081,240
35,80,84481,198
47,80,84481,174
47,80,85201,156
35,80,85201,183
35,80,85921,201
47,80,85921,183
47,80,86641,144
35,80,86641,174
39,80,87361,141
27,80,87361,150
28,80,88321,147
40,80,88321,186
40,80,88801,180
47,80,89041,168
52,80,89281,168
47,80,89521,204
40,80,89761,297
47,80,90001,252
52,80,90241,96
28,80,90721,114
40,80,90721,141
31,80,91681,129
43,80,91681,180
43,80,92641,207
50,80,92881,243
55,80,93121,207
50,80,93361,261
43,80,93601,324
50,80,93841,333
55,80,94081,78
43,80,94561,141
31,80,94561,105
36,80,95521,129
48,80,95521,177
48,80,96481,225
55,80,96721,243
60,80,96961,213
55,80,97201,246
48,80,97441,327
55,80,97681,312
60,80,97921,69
36,80,98401,123
48,80,98401,141
35,80,99361,162
47,80,99361,192
47,80,100321,273
54,80,100561,330
59,80,100801,54
27,80,101281,117
39,80,101281,156
39,80,102241,345
47,80,102481,288
51,80,102721,84
28,80,103201,111
40,80,103201,156
40,80,104161,249
47,80,104401,249
52,80,104641,204
47,80,104881,201
40,80,105121,309
47,80,105361,339
52,80,105601,90
40,80,106081,138
28,80,106081,138
31,80,107041,105
43,80,107041,174
43,80,108001,213
50,80,108241,234
55,80,108481,231
50,80,108721,288
43,80,108961,354
50,80,109201,309
55,80,109441,54
31,80,109921,111
43,80,109921,153
36,80,110881,132
48,80,110881,168
48,80,111841,207
55,80,112081,225
60,80,112321,216
55,80,112561,225
48,80,112801,354
55,80,113041,333
60,80,113281,57
36,80,113761,123
48,80,113761,138
36,80,114721,159
48,80,114721,132
35,80,115201,159
47,80,115201,156
28,80,119041,168
40,80,119041,147
28,80,119521,255
40,80,119521,267
59,80,120001,555
55,80,120001,522
52,80,120001,468
43,80,120961,219
31,80,120961,228
43,80,121441,249
31,80,121441,201
55,80,121921,282
50,80,121921,195
59,80,121921,306
36,80,122881,231
48,80,122881,210
48,80,123361,399
36,80,123361,483
59,80,123841,444
55,80,123841,456
52,80,123841,408
26,80,124801,171
38,80,124801,171
26,80,125521,180
38,80,125521,171
39,80,126241,153
27,80,126241,165
40,80,126721,141
28,80,126721,156
28,80,127201,150
40,80,127201,156
55,80,127681,351
52,80,127681,243
59,80,127681,345
31,80,128641,198
43,80,128641,168
31,80,129121,150
43,80,129121,192
55,80,129601,279
50,80,129601,186
59,80,129601,297
36,80,130561,207
48,80,130561,165
48,80,131041,558
36,80,131041,624
52,80,131521,240
55,80,131521,330
59,80,131521,393
38,80,132481,141
26,80,132481,150
26,80,133201,147
38,80,133201,141
39,80,133921,138
27,80,133921,138
28,80,134401,135
40,80,134401,138
28,80,134881,135
40,80,134881,162
52,80,135361,228
55,80,135361,318
59,80,135361,315
31,80,136321,189
43,80,136321,165
31,80,136801,159
43,80,136801,165
55,80,137281,261
50,80,137281,168
59,80,137281,291
36,80,138241,180
48,80,138241,165
36,80,138721,519
48,80,138721,447
52,80,139201,231
55,80,139201,336
59,80,139201,366
38,80,140161,165
26,80,140161,174
38,80,140881,141
26,80,140881,153
35,80,141601,144
23,80,141601,150
24,80,142081,252
31,80,142321,222
36,80,142561,180
40,80,142801,276
43,80,143041,222
48,80,143281,165
52,80,143521,258
55,80,143761,198
60,80,144001,192
55,80,144241,276
52,80,144481,171
48,80,144721,183
43,80,144961,258
40,80,145201,108
36,80,145441,285
31,80,145681,159
35,80,145921,129
23,80,145921,108
35,80,146401,123
23,80,146401,120
35,80,146881,633
23,80,146881,555
28,80,149761,111
40,80,149761,144
43,80,150241,210
47,80,150481,183
52,80,150721,132
28,80,151201,129
40,80,151201,147
40,80,152161,507
52,80,152641,453
47,80,152641,519
40,80,153121,138
43,80,153601,132
31,80,153601,114
47,80,154081,219
50,80,154321,198
55,80,154561,111
43,80,155041,141
31,80,155041,105
43,80,156001,504
55,80,156481,468
50,80,156481,522
43,80,156961,162
48,80,157441,132
36,80,157441,135
52,80,157921,231
55,80,158161,228
60,80,158401,105
48,80,158881,114
36,80,158881,84
48,80,159841,462
55,80,160321,483
60,80,160321,432
48,80,160801,144
47,80,161281,114
35,80,161281,117
51,80,161761,216
54,80,162001,273
59,80,162241,54
39,80,162721,117
27,80,162721,66
39,80,163681,516
51,80,164161,456
47,80,164161,435
39,80,164641,156
28,80,165121,114
40,80,165121,120
43,80,165601,198
47,80,165841,204
52,80,166081,69
40,80,166561,138
28,80,166561,126
40,80,167521,477
47,80,168001,492
52,80,168001,468
40,80,168481,135
31,80,168961,108
43,80,168961,132
47,80,169441,228
50,80,169681,264
55,80,169921,84
43,80,170401,114
31,80,170401,96
43,80,171361,486
50,80,171841,516
55,80,171841,468
43,80,172321,132
48,80,172801,132
36,80,172801,114
52,80,173281,219
55,80,173521,213
60,80,173761,81
36,80,174241,126
48,80,174241,117
48,80,175201,450
60,80,175681,414
55,80,175681,471
48,80,176161,126
35,80,176641,123
47,80,176641,126
51,80,177121,237
54,80,177361,279
59,80,177601,90
39,80,178081,105
27,80,178081,57
39,80,179041,513
51,80,179521,468
47,80,179521,480
39,80,180001,132
28,80,180481,138
40,80,180481,108
40,80,180961,462
52,80,181441,129
47,80,181441,138
42,80,181921,105
30,80,181921,117
43,80,182161,135
31,80,182161,108
43,80,182881,480
50,80,183361,495
55,80,183361,432
43,80,183841,78
36,80,184081,105
48,80,184081,117
48,80,184801,429
60,80,185281,483
55,80,185281,525
48,80,185761,108
38,80,186001,99
26,80,186001,48
38,80,186721,495
45,80,187201,513
50,80,187201,456
38,80,187681,132
40,80,188161,138
28,80,188161,135
40,80,188641,534
52,80,189121,123
47,80,189121,138
42,80,189601,87
30,80,189601,120
43,80,189841,117
31,80,189841,126
43,80,190561,504
50,80,191041,498
55,80,191041,450
43,80,191521,87
36,80,191761,132
48,80,191761,114
48,80,192481,486
55,80,192961,522
60,80,192961,462
48,80,193441,135
47,80,193921,135
35,80,193921,114
47,80,194641,129
35,80,194641,132
35,80,195361,156
47,80,195361,135
