note,velocity,position,duration
29,52,3841,632
41,50,4533,120
29,61,4781,108
41,50,4981,104
29,73,5205,132
41,55,5413,108
29,77,5633,128
41,68,5849,100
29,86,6061,212
41,73,6285,116
29,67,6533,204
41,78,6733,188
29,79,6977,212
41,82,7185,180
29,94,7433,244
89,113,7433,444
84,96,7441,572
81,100,7441,576
77,118,7441,492
41,88,7689,172
29,82,7917,216
41,82,8137,180
29,73,8353,188
41,68,8549,192
29,73,8781,196
41,82,9001,172
88,113,9261,200
29,108,9261,224
77,108,9261,156
81,108,9261,172
84,100,9261,208
41,91,9521,188
29,108,9777,184
41,91,9997,152
29,91,10265,188
41,88,10501,196
29,94,10809,192
31,110,11337,7156
43,115,11337,7200
74,123,11345,680
86,113,11345,560
83,91,11353,620
79,94,11353,696
84,34,11473,104
55,79,12605,280
57,67,12825,412
59,66,13085,256
60,78,13241,256
62,100,13561,232
64,73,13789,364
65,71,14001,280
67,71,14177,228
69,100,14437,324
71,69,14709,420
72,73,14965,276
74,77,15153,216
76,108,15405,248
77,71,15633,312
79,75,15825,300
81,73,16017,232
83,86,16265,216
84,75,16473,384
86,68,16709,288
88,73,16921,228
89,91,17181,276
91,73,17425,284
93,77,17605,244
95,71,17761,212
96,82,18033,260
98,55,18281,332
100,64,18473,132
101,70,18593,264
31,94,18897,8936
43,96,18909,9000
98,103,18913,144
95,110,18913,160
103,110,18913,172
95,96,19765,152
98,88,19781,88
91,78,19785,112
86,91,20641,96
91,96,20641,88
95,78,20653,72
91,91,21485,76
83,91,21497,72
86,91,21497,92
79,94,22333,80
86,68,22341,84
83,82,22345,72
79,82,23245,84
74,86,23249,84
83,73,23257,84
71,73,24149,76
74,78,24149,80
77,67,24161,96
71,71,25181,96
67,69,25181,84
74,64,25197,92
67,53,26425,1372
62,50,26425,1252
71,52,26457,1352
74,59,30137,2724
79,64,30201,2620
59,40,30213,812
71,43,30213,764
83,70,30309,2476
55,59,32041,208
67,51,33949,1368
57,48,33965,1348
60,57,33965,1412
64,53,33973,1384
84,73,33973,228
72,55,34289,284
84,59,34609,244
79,62,34965,264
72,67,35285,256
79,64,35577,316
72,67,35921,268
84,78,36225,372
53,58,36561,1448
72,67,36565,292
64,66,36565,1588
60,64,36569,1524
57,61,36597,1488
79,66,36877,284
72,68,37229,260
86,103,37541,296
84,73,38901,128
84,75,39205,276
67,71,39213,972
60,64,39217,1068
64,69,39221,1064
72,67,39525,256
84,77,39825,324
79,67,40189,268
72,73,40521,284
79,60,40809,300
72,70,41161,276
84,88,41477,380
62,71,41805,200
55,75,41809,288
72,78,41817,272
59,77,41837,264
79,66,42125,260
72,68,42445,304
55,79,42761,284
86,108,42769,332
50,73,43117,360
47,79,43429,184
43,82,43761,300
38,83,44097,92
36,50,44101,104
33,88,44381,204
45,96,44401,176
84,96,44421,264
33,71,44717,172
45,88,44717,188
72,88,44745,252
84,100,45053,232
45,75,45065,176
33,56,45069,148
45,91,45373,160
33,71,45381,176
79,96,45401,208
45,78,45673,160
33,78,45681,164
72,96,45697,204
33,68,45993,176
45,78,45993,160
79,96,46013,224
45,73,46313,168
33,67,46317,152
72,100,46333,212
33,70,46629,164
45,82,46629,156
84,110,46649,256
72,96,46961,268
41,110,46969,176
29,113,46969,172
41,88,47265,164
29,79,47265,176
79,91,47297,268
41,73,47593,152
29,71,47597,192
72,94,47613,236
29,96,47905,156
41,79,47909,152
86,120,47921,236
41,86,48209,152
29,73,48209,168
41,86,48501,164
29,88,48505,168
29,68,48833,184
41,75,48837,136
29,78,49157,100
41,82,49165,112
84,108,49209,208
48,118,49493,156
36,110,49501,124
84,113,49529,260
48,94,49797,168
36,73,49825,96
72,94,49825,232
48,94,50121,160
36,69,50133,184
84,108,50133,244
48,88,50441,164
36,77,50453,176
79,100,50461,232
48,79,50765,160
36,77,50769,160
72,96,50781,200
48,68,51117,104
79,94,51117,204
36,60,51141,88
72,96,51417,108
36,58,51421,168
48,67,51421,80
43,120,51745,144
31,120,51745,160
79,123,51757,156
91,122,51785,76
31,108,52381,160
79,113,52381,156
43,108,52393,132
91,113,52397,116
43,103,52685,148
31,100,52685,148
79,113,52697,164
91,108,52717,116
43,82,53025,160
77,123,53033,184
31,68,53041,132
89,123,53049,132
76,113,53661,168
43,118,53661,136
88,110,53661,72
31,108,53661,120
43,86,53981,148
31,94,53989,152
65,103,54021,252
67,94,54193,408
69,79,54305,300
71,69,54477,224
29,79,54593,300
72,86,54593,188
41,82,54933,224
74,115,54933,96
45,79,55237,264
76,120,55261,144
88,100,55285,64
48,91,55557,200
74,123,55561,344
86,120,55577,264
41,78,55873,268
53,115,56185,208
72,122,56217,148
84,115,56237,120
74,50,56285,108
48,79,56529,344
45,78,56845,120
72,122,56861,176
84,110,56889,84
31,110,57161,268
74,122,57209,140
86,100,57249,60
43,91,57493,208
76,123,57509,164
88,110,57533,72
47,86,57813,280
74,120,57825,160
86,113,57853,68
50,86,58129,224
72,122,58141,228
84,122,58165,232
43,73,58445,256
55,110,58777,204
72,123,58797,144
84,108,58813,64
50,73,59089,280
65,113,59133,240
67,96,59313,364
47,82,59341,104
69,78,59413,312
71,69,59601,220
72,88,59713,204
33,91,59733,288
45,94,60049,212
74,125,60053,156
76,120,60361,152
48,82,60361,268
88,70,60425,68
89,52,60441,104
74,125,60665,300
52,91,60681,188
86,88,60693,228
88,86,60705,104
76,36,60741,96
45,86,60981,252
57,110,61281,260
72,123,61317,172
84,120,61329,176
52,73,61649,360
48,100,61949,116
72,122,61961,164
84,103,61985,72
28,108,62281,60
40,125,62281,164
74,123,62309,136
86,113,62337,64
76,120,62625,120
88,110,62649,60
48,108,62673,264
74,120,62933,148
52,67,62957,268
86,108,62957,68
72,122,63245,248
55,79,63261,220
84,118,63273,196
48,86,63573,284
60,100,63921,196
72,120,63933,120
84,96,63933,72
55,82,64229,188
65,113,64265,236
52,82,64421,76
67,91,64437,348
69,78,64553,260
71,68,64729,224
72,88,64865,168
29,94,64877,276
74,120,65201,164
41,78,65201,164
45,86,65489,272
76,120,65509,148
88,100,65545,56
48,88,65805,196
74,125,65813,388
86,120,65833,332
41,77,66109,288
53,103,66449,228
72,123,66481,172
84,118,66493,184
48,73,66769,300
45,78,67057,116
72,120,67121,152
84,86,67169,68
31,108,67413,244
74,123,67457,152
86,79,67513,64
43,88,67729,240
76,123,67749,156
88,103,67777,68
47,78,68049,264
74,120,68069,144
86,103,68085,96
50,78,68373,208
72,122,68385,316
84,113,68421,220
43,77,68673,276
55,113,69009,232
72,120,69069,160
84,113,69089,188
50,67,69349,376
47,94,69665,124
72,120,69705,116
84,88,69733,68
45,110,69993,120
33,91,69997,84
69,122,70013,144
81,110,70049,56
43,118,70309,164
31,113,70317,84
67,125,70317,172
79,113,70349,132
33,94,70957,180
45,110,70957,160
69,123,70957,156
81,110,70985,76
31,113,71273,168
43,122,71273,152
67,126,71285,164
79,123,71305,140
33,96,71925,184
45,113,71925,168
69,123,71925,176
81,110,71953,92
43,118,72233,140
31,118,72233,124
67,126,72233,172
79,120,72245,140
45,113,72873,140
33,103,72877,120
69,123,72881,176
81,108,72909,80
31,113,73185,100
43,118,73185,156
67,123,73201,176
79,118,73225,176
45,113,73477,80
33,96,73489,76
48,100,73817,64
36,86,73821,72
72,115,73821,160
84,94,73865,64
50,96,74101,64
38,61,74137,88
74,120,74137,148
48,53,74149,108
36,66,74149,80
86,108,74157,68
43,120,74445,68
31,113,74449,60
67,125,74457,168
79,115,74489,168
48,115,75105,160
84,96,75169,216
72,75,75445,196
76,63,75769,264
52,103,76073,184
72,82,76097,228
84,86,76417,268
72,69,76765,272
55,88,77049,156
76,71,77073,236
72,73,77393,260
67,118,77721,192
84,79,77737,216
72,73,78061,248
76,66,78377,284
65,108,78661,208
72,77,78697,264
84,88,79021,240
72,68,79321,304
64,94,79617,160
76,70,79657,284
72,73,79973,296
53,79,80273,232
62,103,80273,228
84,96,80325,252
72,67,80613,296
77,66,80953,312
72,71,81265,264
64,103,81293,172
84,79,81577,292
72,67,81885,324
77,67,82217,252
60,82,82217,96
72,86,82513,256
60,73,82525,164
84,77,82821,308
72,73,83145,296
57,78,83161,200
53,94,83477,204
77,69,83477,288
72,75,83793,272
48,79,83793,332
45,78,84097,152
84,88,84105,276
72,73,84405,304
41,64,84421,304
36,73,84717,92
77,77,84741,204
33,96,85045,192
45,122,85053,168
72,123,85061,160
84,120,85069,140
52,94,85701,252
69,100,85705,80
67,75,85713,72
81,43,85773,132
57,78,86001,200
72,110,86001,116
84,82,86041,72
52,73,86285,252
69,118,86309,144
81,91,86357,60
60,100,86621,188
72,122,86633,164
84,103,86681,60
52,55,86933,432
74,123,86941,452
86,118,86965,440
57,91,87237,76
33,113,87565,80
45,125,87565,140
76,123,87573,172
88,123,87585,148
74,108,88217,164
86,91,88241,72
52,56,88257,128
50,48,88261,124
72,113,88537,156
57,73,88557,216
84,96,88573,64
72,113,88841,676
52,79,88853,264
84,91,88865,360
60,108,89185,200
52,66,89485,452
57,94,89805,76
41,123,90133,140
29,118,90137,76
72,125,90137,168
84,120,90157,140
69,94,90789,80
48,75,90793,244
81,58,90853,92
72,118,91097,120
53,100,91133,208
84,82,91133,72
69,120,91401,140
48,73,91417,252
81,91,91441,64
72,120,91721,152
57,96,91741,184
84,94,91761,64
48,66,92017,456
74,120,92033,412
86,115,92053,444
53,88,92345,76
76,122,92689,180
88,123,92693,144
26,113,92693,68
38,123,92693,156
38,69,93305,312
86,88,93349,76
74,59,93357,100
76,48,93397,136
45,88,93645,168
50,94,93661,72
72,108,93669,120
84,79,93709,68
74,125,93969,572
31,108,93989,64
43,123,93989,148
86,120,94001,568
43,73,94605,272
83,73,94633,404
50,61,94937,148
59,88,94961,132
79,78,94973,272
74,96,95277,620
48,77,95581,252
55,73,95881,244
84,88,95909,440
64,71,96213,92
60,67,96233,236
83,71,96245,376
79,73,96585,276
55,64,96593,220
48,73,96873,196
76,96,96885,208
55,67,97165,220
72,82,97197,244
67,113,97505,236
60,68,97517,252
64,68,97517,96
55,53,97869,240
72,75,97893,212
76,88,98021,228
48,78,98129,264
79,100,98153,1064
55,63,98473,240
64,77,98809,104
60,69,98821,244
77,103,99109,1100
55,69,99165,224
48,79,99453,224
55,71,99733,244
64,71,100105,100
76,108,100105,536
60,67,100121,288
55,73,100405,112
69,113,100729,624
74,108,100741,720
41,88,100745,224
48,64,101061,260
57,77,101401,112
53,75,101401,288
69,100,101713,480
76,108,101713,380
48,71,101745,264
41,75,102065,240
48,67,102337,252
57,73,102689,92
53,73,102693,228
69,94,102693,152
72,91,102693,140
69,100,102989,164
72,88,103001,172
48,73,103013,276
41,75,103325,224
48,70,103629,248
89,103,103993,192
53,73,104005,256
57,66,104017,96
48,75,104305,256
93,115,104305,176
96,96,104317,88
101,118,104317,136
41,73,104637,240
48,61,104921,384
53,79,105297,84
57,67,105309,88
45,125,105601,140
33,115,105605,88
72,125,105617,156
84,120,105629,144
45,75,106205,280
69,96,106241,84
81,40,106337,124
57,94,106541,196
52,73,106557,232
72,120,106557,128
84,88,106589,68
45,73,106865,164
69,118,106865,160
81,96,106905,68
60,96,107169,200
72,122,107193,156
84,96,107233,64
52,36,107269,144
45,73,107473,328
74,123,107493,416
86,115,107517,428
52,91,107797,180
57,51,107833,116
33,108,108117,100
45,125,108117,160
76,122,108129,172
88,120,108141,136
45,77,108745,304
74,103,108765,164
86,94,108785,76
57,96,109085,172
72,118,109097,164
52,78,109101,236
84,108,109125,80
72,118,109401,1064
45,75,109417,212
84,100,109421,852
60,100,109737,188
52,58,109741,220
45,68,110009,340
52,100,110341,144
57,73,110365,76
41,123,110673,152
72,115,110681,168
29,115,110681,68
84,120,110697,144
41,71,111293,304
69,94,111321,80
81,60,111377,96
48,82,111629,212
72,120,111633,124
53,94,111641,132
84,91,111657,64
69,120,111941,148
41,64,111957,204
81,91,111973,76
57,100,112241,140
72,120,112269,152
84,96,112313,60
41,67,112545,328
74,103,112565,436
72,113,112573,156
86,118,112581,464
48,69,112865,156
53,71,112865,80
49,61,112901,88
76,122,113213,192
38,118,113221,144
26,103,113229,64
88,125,113229,172
38,69,113849,280
74,103,113869,164
86,79,113905,80
45,86,114165,156
50,94,114173,76
76,115,114201,168
88,115,114225,80
31,113,114493,84
43,123,114493,148
74,125,114505,680
86,122,114513,636
43,78,115137,240
83,86,115165,400
50,71,115497,196
59,94,115505,120
79,100,115509,324
74,100,115805,1024
40,73,116125,572
47,67,116745,132
55,94,117077,152
71,75,117721,284
52,69,117721,260
72,75,118045,292
59,73,118081,208
55,73,118337,76
74,96,118353,1044
41,73,118673,624
48,67,119309,100
72,77,119357,272
57,86,119653,192
71,88,120005,288
53,66,120313,280
72,88,120613,168
60,70,120645,240
57,79,120909,84
72,86,120933,888
38,86,121249,608
45,67,121913,96
53,94,122257,208
50,58,122901,272
71,82,122901,264
72,82,123229,308
57,64,123233,280
53,73,123525,92
79,100,123545,1080
36,82,123857,624
43,75,124501,160
77,88,124545,264
52,88,124849,200
76,103,125173,732
48,63,125477,284
55,91,125805,364
77,113,125837,436
52,91,126109,136
32,100,127125,152
44,122,127133,168
75,122,127141,168
60,79,127745,344
75,113,127765,360
77,86,128077,400
63,76,128093,308
68,100,128365,64
79,96,128401,188
79,110,128709,380
39,125,128717,128
67,125,128725,436
70,115,128737,668
27,118,128737,60
75,103,128745,596
63,100,129369,208
58,70,129673,360
75,113,129673,364
67,103,129689,256
55,70,129997,120
67,113,130309,264
51,103,130313,276
70,113,130313,356
46,71,130589,332
43,68,130881,328
67,110,130957,276
75,103,130965,440
39,91,131193,108
38,103,131577,60
26,110,131577,76
36,71,131589,64
72,115,131597,212
69,108,131913,228
53,86,131969,208
50,78,132221,112
72,100,132237,204
28,113,132553,64
40,125,132553,136
74,125,132573,156
72,113,133201,392
55,103,133213,224
52,79,133489,84
74,96,133509,184
29,110,133821,68
41,122,133821,164
69,123,133829,708
76,120,133833,740
72,113,133833,736
65,67,134501,164
64,82,134521,172
60,71,134837,324
76,100,134849,360
69,113,134849,240
72,103,134849,344
57,77,135153,204
53,86,135477,240
72,103,135485,268
69,110,135485,212
77,110,135489,284
48,73,135801,376
45,77,136081,356
72,96,136117,228
69,110,136117,192
79,110,136125,284
41,82,136401,96
44,123,136765,132
32,95,136769,64
72,123,136785,152
80,120,136785,100
75,120,136785,88
56,105,137141,244
60,110,137141,352
63,68,137425,272
51,67,137425,364
68,75,137717,196
48,67,137757,96
44,91,138085,300
72,110,138101,228
39,67,138385,352
75,76,138393,412
36,71,138693,188
80,90,138717,200
31,115,139029,144
43,118,139037,160
71,123,139053,140
74,118,139069,116
79,123,139069,176
31,108,139681,116
43,118,139681,172
71,122,139693,148
74,113,139697,92
79,103,139709,72
43,96,140009,136
71,103,140013,136
31,94,140029,100
74,94,140029,60
79,88,140029,80
43,100,140317,136
71,115,140317,136
79,86,140325,132
74,78,140325,72
31,70,140337,108
33,66,140369,92
43,77,140629,148
71,113,140641,144
79,100,140645,100
31,71,140649,96
74,94,140649,64
43,100,140937,156
31,67,140949,124
71,110,140949,136
79,94,140961,104
74,77,140965,72
43,91,141273,148
71,110,141277,140
74,100,141285,100
31,73,141293,96
79,96,141293,80
43,96,141589,168
71,118,141601,348
79,115,141613,240
74,118,141613,336
31,67,141645,76
31,59,141929,276
43,100,142285,180
55,120,142285,180
59,100,142585,344
31,79,142597,228
62,78,142889,384
43,86,142893,200
31,88,143205,276
65,110,143233,136
43,91,143529,192
67,123,143553,176
31,82,143861,280
71,110,143865,408
43,78,144197,220
74,82,144197,368
31,88,144513,284
77,77,144533,80
43,86,144849,196
79,82,144857,184
77,77,144865,76
83,110,145161,432
31,82,145177,300
86,82,145481,392
43,86,145517,204
31,94,145809,292
89,100,145821,340
86,73,146125,420
43,82,146125,192
83,78,146429,340
31,82,146441,272
43,88,146733,212
79,94,146757,128
31,96,147081,312
77,125,147081,280
81,115,147089,356
89,122,147089,264
84,96,147101,316
43,88,147413,216
31,96,147709,260
53,73,147761,76
57,73,147925,260
43,73,148021,216
60,88,148121,152
31,86,148313,296
65,125,148405,156
43,82,148593,228
69,78,148633,220
72,88,148801,148
31,82,148937,276
77,113,149057,168
43,86,149197,252
81,94,149265,240
84,77,149469,112
86,60,149493,92
31,78,149545,280
89,113,149709,204
43,86,149825,248
93,88,149901,268
96,79,150093,284
31,71,150197,288
101,96,150349,268
43,86,150497,228
96,57,150569,268
93,79,150769,272
31,79,150885,260
89,108,151033,160
43,91,151145,212
84,78,151289,264
81,77,151477,276
31,73,151501,300
77,96,151737,252
43,94,151785,292
81,57,151997,208
84,77,152133,176
31,50,152145,116
79,122,152465,132
31,79,152473,5052
83,113,152473,180
86,110,152473,236
43,123,152473,5068
91,113,152493,76
55,113,153117,184
57,77,153257,308
59,73,153449,192
60,73,153569,224
62,103,153829,196
64,91,153985,332
65,78,154149,224
67,78,154313,184
69,94,154525,196
71,96,154693,300
72,77,154861,196
74,78,154997,188
76,103,155205,172
77,96,155385,264
79,91,155533,188
81,71,155677,152
83,103,155865,212
84,94,156045,256
86,94,156205,184
88,73,156333,160
89,103,156553,176
91,82,156733,236
93,71,156861,216
95,66,157021,92
96,100,157197,256
98,77,157405,228
100,78,157521,164
101,67,157609,84
31,103,157885,2152
43,110,157885,2208
95,122,157905,2164
103,123,157905,2108
98,108,157913,2248
43,94,160277,220
98,110,160277,216
31,96,160289,212
95,115,160289,180
103,115,160289,208
43,118,160953,152
31,108,160961,156
95,113,160961,152
98,113,160961,176
103,113,160973,160
31,82,161285,184
43,108,161285,196
103,113,161285,188
95,118,161285,276
98,88,161285,256
96,53,161313,216
72,118,162065,140
84,91,162065,88
74,113,162373,136
86,96,162401,64
76,120,162677,168
88,110,162713,64
77,118,162985,180
89,110,163025,76
79,125,163329,548
29,100,163341,292
91,123,163349,524
41,94,163645,220
41,79,163977,312
48,82,164233,264
57,100,164577,228
48,88,164913,268
84,120,164937,296
96,118,164957,248
41,77,165201,368
48,96,165541,188
83,118,165573,416
95,120,165593,400
31,110,165881,272
43,100,166201,208
84,122,166265,148
96,100,166281,80
43,82,166521,320
84,110,166553,804
96,88,166573,520
50,75,166825,272
59,108,167169,200
50,82,167525,232
43,86,167817,396
84,115,167833,160
96,96,167853,156
50,88,168145,80
86,122,168157,1056
98,122,168181,740
28,115,168465,280
40,100,168797,244
40,82,169157,312
47,77,169441,264
55,108,169809,188
47,88,170137,244
40,88,170437,336
79,115,170457,176
91,110,170473,180
47,88,170741,144
79,113,170769,484
91,113,170789,396
33,96,171065,304
45,100,171401,236
77,120,171445,344
89,115,171461,236
45,88,171749,328
52,78,172029,268
76,120,172081,308
88,118,172105,320
60,100,172385,188
52,77,172725,212
77,113,172741,164
89,94,172765,68
45,75,173017,372
76,115,173049,164
88,110,173069,68
52,94,173345,92
74,120,173353,152
86,96,173377,64
72,122,173681,420
84,120,173697,260
26,122,173705,276
38,91,174033,220
69,120,174349,144
38,73,174369,240
81,86,174393,68
45,82,174649,216
72,120,174673,360
84,113,174709,344
53,94,175009,188
45,75,175325,268
74,120,175341,196
86,118,175361,240
38,79,175633,364
45,86,175969,180
79,120,175985,636
91,122,176005,460
31,108,176301,300
43,100,176629,216
72,120,176953,168
43,86,176961,260
84,96,176997,68
50,78,177229,256
74,125,177273,972
86,120,177297,548
59,103,177577,212
50,78,177925,276
43,79,178245,392
50,91,178569,128
76,118,178605,468
88,123,178625,440
28,118,178929,276
40,96,179257,224
76,94,179297,152
88,91,179305,96
76,113,179585,180
40,88,179601,268
88,82,179621,76
47,82,179881,224
77,108,179913,168
89,100,179941,68
55,94,180217,176
76,120,180217,176
88,103,180245,72
74,122,180537,400
86,113,180549,316
47,73,180557,256
40,78,180833,348
47,94,181141,176
72,122,181165,1240
84,113,181185,1168
45,123,181477,144
33,91,181481,72
50,51,181857,228
52,78,181861,268
57,100,182141,104
43,123,182465,140
31,110,182473,64
72,118,182793,148
84,110,182821,88
50,86,183109,376
74,120,183113,168
86,100,183157,60
55,73,183437,320
76,113,183441,160
88,100,183481,60
59,108,183717,80
77,113,183757,124
89,71,183789,88
29,123,184085,248
79,125,184089,588
91,122,184109,680
41,79,184441,236
45,82,184765,328
48,94,185077,252
53,91,185401,208
57,77,185713,340
84,120,185733,448
96,115,185749,352
60,77,186053,224
53,78,186345,328
83,118,186409,348
95,118,186425,316
65,94,186717,172
60,70,187025,296
84,115,187069,156
96,103,187093,92
57,77,187329,156
84,115,187381,1056
96,100,187397,700
53,78,187661,244
48,88,188005,440
45,77,188341,336
41,79,188633,152
84,113,188677,176
96,115,188697,152
86,118,189009,1400
98,122,189033,1272
40,123,189301,144
28,67,189333,84
40,71,189665,292
47,96,189949,96
52,100,189961,64
44,123,190273,140
32,103,190301,56
44,75,190881,360
56,111,191209,92
88,113,191245,168
100,79,191277,72
52,31,191305,92
33,108,191569,564
84,122,191569,916
96,118,191597,724
45,88,192205,224
43,57,192549,156
45,60,192557,284
52,62,192861,188
60,110,193157,196
84,115,193177,156
96,94,193201,80
52,73,193509,288
81,75,193529,120
93,64,193573,84
81,91,193797,184
93,68,193817,120
45,75,193833,368
52,82,194133,76
76,118,194157,116
88,69,194205,68
75,120,194465,572
32,111,194481,272
87,111,194489,564
44,91,194821,180
48,70,195137,352
51,86,195457,296
56,100,195785,116
60,61,196089,352
80,118,196093,184
92,103,196117,80
63,86,196401,292
80,97,196401,164
92,75,196437,72
80,90,196705,152
56,86,196705,352
92,55,196745,76
80,66,197033,152
68,111,197045,212
92,67,197073,84
63,69,197297,376
79,115,197361,188
91,113,197381,220
60,67,197625,160
56,83,197997,252
80,115,198017,176
92,105,198053,140
51,75,198285,388
48,70,198613,328
44,100,198897,148
82,113,198957,108
94,77,198965,68
32,105,199249,96
75,120,199269,1508
87,71,199297,116
87,35,199581,864
34,113,199605,256
46,91,199929,164
50,62,200281,324
53,68,200597,256
58,95,200929,184
62,67,201245,348
65,77,201557,312
72,118,201597,136
84,118,201605,152
58,80,201877,404
70,115,202213,236
75,123,202221,168
87,110,202245,120
65,64,202529,356
62,67,202845,148
72,71,202865,92
84,68,202905,76
61,40,202929,112
75,118,203165,144
58,91,203173,268
87,111,203193,100
53,58,203473,392
50,63,203797,344
46,110,204105,168
80,113,204121,124
92,95,204137,76
84,110,204773,148
79,115,204773,124
91,110,204773,100
29,108,204773,264
88,108,204773,148
41,82,205065,212
74,115,205125,144
86,58,205201,92
45,71,205365,328
76,115,205421,164
88,82,205477,60
48,82,205697,248
74,122,205745,420
86,118,205769,336
41,78,206017,312
53,103,206349,296
72,122,206385,244
84,115,206401,196
48,67,206681,348
45,88,206989,172
72,115,207029,176
84,100,207057,76
31,100,207341,264
74,122,207357,152
86,96,207405,60
43,78,207665,212
76,118,207665,156
88,100,207705,60
47,88,207977,292
74,113,207981,156
86,88,208017,64
50,86,208297,244
72,120,208305,244
84,113,208333,228
43,77,208601,280
55,96,208921,276
72,122,208949,104
84,63,208969,84
83,42,209037,120
50,73,209225,300
65,113,209265,268
67,78,209425,380
47,75,209497,128
69,79,209537,300
71,70,209701,292
72,88,209865,160
33,88,209873,268
74,123,210189,116
86,55,210189,104
45,73,210197,232
48,86,210493,296
76,120,210505,148
88,70,210569,64
74,123,210813,404
52,86,210821,236
86,77,210841,268
45,79,211137,304
72,122,211449,276
57,108,211457,288
84,118,211469,256
52,68,211797,388
72,115,212113,144
48,96,212117,172
84,110,212133,104
40,125,212453,152
74,122,212465,140
28,67,212485,80
26,60,212485,108
86,110,212497,60
76,113,212777,136
88,110,212797,60
48,108,212837,224
74,96,213085,132
52,69,213129,304
86,59,213141,88
72,120,213421,332
55,82,213449,220
84,108,213453,292
48,79,213745,288
60,103,214097,212
72,120,214113,156
84,69,214153,80
55,78,214389,240
65,120,214421,272
67,52,214573,396
52,82,214601,76
69,68,214713,284
71,43,214725,424
72,96,215041,152
29,100,215041,268
41,78,215345,232
74,125,215353,116
45,78,215641,304
76,120,215657,152
88,108,215689,56
48,88,215961,252
74,125,215977,420
86,120,215985,324
41,73,216285,308
53,108,216613,264
72,125,216621,184
84,120,216645,168
48,67,216965,324
45,86,217241,208
72,118,217253,140
84,86,217301,68
31,108,217577,272
86,110,217617,84
74,107,217617,76
43,88,217905,224
76,122,217929,148
88,96,217961,60
47,88,218217,288
74,103,218249,152
86,64,218309,84
50,82,218549,236
72,122,218577,308
84,118,218605,240
43,75,218833,300
55,108,219177,276
72,120,219205,184
84,118,219225,180
50,68,219501,328
47,96,219785,148
72,113,219805,172
84,86,219841,72
45,110,220133,152
69,115,220145,156
33,108,220145,100
81,62,220193,92
43,120,220465,144
31,113,220473,112
67,115,220477,160
79,67,220493,128
45,113,221089,160
69,120,221097,168
33,94,221101,168
81,108,221113,92
43,120,221421,152
67,123,221421,176
31,113,221429,128
79,115,221453,116
69,123,222057,176
33,78,222061,156
45,88,222069,76
81,110,222085,80
35,73,222097,76
31,113,222381,172
43,120,222381,156
67,125,222389,176
79,118,222413,172
69,115,223037,164
33,73,223041,88
45,82,223041,76
81,103,223061,68
35,44,223109,140
67,122,223357,172
31,110,223361,88
43,120,223361,136
79,108,223377,156
45,115,223641,140
33,100,223657,72
43,78,223669,72
72,115,223985,148
48,113,223993,72
36,86,224009,68
84,94,224029,64
50,115,224277,80
38,100,224297,68
74,118,224317,144
86,108,224341,60
43,123,224625,112
31,118,224641,52
67,126,224653,132
79,113,224673,64
55,118,225325,176
59,78,225529,204
62,79,225709,100
67,123,225969,164
71,73,226205,192
74,82,226377,180
79,122,226633,160
83,75,226857,228
86,91,227053,128
91,120,227293,216
95,82,227497,280
98,86,227701,276
103,120,227933,84
65,82,230845,840
69,73,230921,836
29,86,230945,812
41,91,230945,972
72,94,230985,660
76,113,231021,452
41,82,232981,132
45,73,233157,172
48,73,233313,224
52,77,233453,136
53,91,233665,120
52,58,233725,104
57,88,233837,120
60,73,233989,208
64,68,234141,124
65,103,234333,112
69,77,234501,180
72,71,234665,204
76,73,234805,200
77,91,235017,76
81,94,235149,212
84,77,235313,216
88,75,235473,188
89,108,235713,124
93,79,235853,216
96,75,235993,324
100,67,236173,196
101,79,236361,320
100,73,236597,240
96,70,236737,176
93,94,236897,76
89,77,237145,224
88,82,237285,260
84,82,237485,168
81,82,237621,76
77,77,237893,376
76,77,238061,220
72,69,238265,164
69,68,238405,92
65,66,238701,244
64,73,238845,484
60,78,239265,496
57,63,239713,1404
57,53,244109,5528
60,50,244233,5472
29,50,244257,5496
41,47,244257,5488
64,60,244341,5344
67,78,244381,5184
