note,velocity,position,duration
50,96,2000,250
51,96,2250,250
53,96,2500,250
55,96,2750,250
56,96,3000,250
58,96,3250,250
60,96,3500,250
62,96,3750,250
55,96,4000,500
58,96,4000,500
63,96,4000,500
58,96,4500,500
55,96,4500,500
63,96,4500,500
58,96,5000,1000
63,96,6000,1000
65,96,7000,1000
67,96,8000,1000
62,96,8000,1000
59,96,8000,1000
65,96,9000,1000
63,96,10000,1000
65,96,11000,1000
60,96,12000,500
56,96,12000,500
60,96,12500,500
67,96,12500,500
68,96,13000,500
67,96,13500,500
68,96,14000,500
67,96,14500,500
68,96,15000,500
67,96,15500,500
68,96,16000,500
62,96,16000,500
58,96,16000,500
70,96,16500,1000
65,96,17500,1000
63,96,18500,500
65,96,19000,500
63,96,19500,500
55,96,20000,500
58,96,20000,500
55,96,20500,500
58,96,20500,500
58,96,21000,1000
63,96,22000,1000
65,96,23000,1000
67,96,24000,1000
59,96,24000,1000
62,96,24000,1000
65,96,25000,1000
63,96,26000,1000
65,96,27000,1000
56,96,28000,500
60,96,28000,500
67,96,28500,500
60,96,28500,500
68,96,29000,500
67,96,29500,500
68,96,30000,500
67,96,30500,500
68,96,31000,500
67,96,31500,500
68,96,32000,500
62,96,32000,500
58,96,32000,500
70,96,32500,1000
65,96,33500,1000
63,96,34500,500
65,96,35000,500
63,96,35500,500
63,96,37000,1000
70,96,37000,1000
67,96,37000,1000
67,96,38000,500
68,96,38500,500
70,96,39000,500
74,96,39500,500
71,96,39500,500
67,96,39500,500
67,96,40500,1000
74,96,40500,1000
71,96,40500,1000
72,96,41500,1000
67,96,42500,1500
71,96,42500,1500
74,96,42500,1500
75,96,45000,1000
72,96,45000,1000
68,96,45000,1000
72,96,46000,500
74,96,46500,500
75,96,47000,500
71,96,47500,500
75,96,47500,500
78,96,47500,500
75,96,48500,1000
71,96,48500,1000
78,96,48500,1000
77,96,49500,1000
71,96,49500,1000
75,96,50500,1000
68,96,51500,500
71,96,51500,500
70,96,52000,1000
67,96,52000,1000
67,96,53000,1000
70,96,53000,1000
63,96,53000,1000
67,96,54000,500
68,96,54500,500
70,96,55000,500
74,96,55500,500
71,96,55500,500
67,96,55500,500
67,96,56500,1000
74,96,56500,1000
71,96,56500,1000
72,96,57500,1000
67,96,58500,1500
71,96,58500,1500
74,96,58500,1500
75,96,61000,1000
72,96,61000,1000
68,96,61000,1000
72,96,62000,500
74,96,62500,500
75,96,63000,500
71,96,63500,500
78,96,63500,500
75,96,63500,500
78,96,64500,1000
71,96,64500,1000
75,96,64500,1000
77,96,65500,1000
75,96,66500,1000
71,96,67500,500
68,96,67500,500
70,96,68000,1000
67,96,68000,1000
58,96,69000,1000
63,96,70000,1000
65,96,71000,1000
62,96,72000,1000
67,96,72000,1000
65,96,73000,1000
63,96,74000,1000
62,96,75000,1000
65,96,75000,1000
67,96,76500,500
68,96,77000,500
67,96,77500,500
68,96,78000,500
67,96,78500,500
68,96,79000,500
67,96,79500,500
68,96,80000,500
70,96,80500,1000
65,96,80500,1000
65,96,81500,1000
62,96,81500,1000
63,96,82500,500
65,96,83000,500
62,96,83000,500
63,96,83500,500
58,96,85000,1000
63,96,86000,1000
65,96,87000,1000
62,96,88000,1000
67,96,88000,1000
65,96,89000,1000
63,96,90000,1000
65,96,91000,1000
62,96,91000,1000
67,96,92500,500
68,96,93000,500
67,96,93500,500
68,96,94000,500
67,96,94500,500
68,96,95000,500
67,96,95500,500
68,96,96000,500
70,96,96500,1000
65,96,96500,1000
65,96,97500,1000
62,96,97500,1000
63,96,98500,500
65,96,99000,500
62,96,99000,500
63,96,99500,500
75,96,101000,1000
82,96,101000,1000
79,96,101000,1000
79,96,102000,1000
75,96,102000,1000
75,96,103000,1000
82,96,103000,1000
79,96,103000,1000
79,96,104000,1500
74,96,104000,1500
82,96,105500,1500
82,96,107000,500
77,96,107500,1500
84,96,107500,1500
82,96,109000,1000
79,96,110000,1000
75,96,110000,1000
77,96,111000,1000
74,96,111000,1000
72,96,112000,1500
75,96,112000,1500
72,96,113500,2500
75,96,117000,500
72,96,117500,500
75,96,118000,1000
75,96,119000,500
72,96,119500,500
75,96,120000,1000
75,96,121000,500
72,96,121500,500
75,96,122000,500
77,96,122500,1000
79,96,123500,500
75,96,123500,500
72,96,123500,500
75,96,125000,500
72,96,125500,500
75,96,126000,1000
75,96,127000,500
72,96,127500,500
75,96,128000,1000
75,96,129000,500
72,96,129500,500
75,96,130000,500
77,96,130500,1000
79,96,131500,500
75,96,131500,500
70,96,131500,500
75,96,133000,500
68,96,133000,500
72,96,133500,500
75,96,134000,1000
68,96,134000,1000
68,96,135000,500
75,96,135000,500
72,96,135500,500
75,96,136000,1000
72,96,136000,1000
75,96,137000,500
69,96,137000,500
72,96,137500,500
75,96,138000,500
69,96,138000,500
77,96,138500,1000
72,96,138500,1000
79,96,139500,2000
75,96,139500,2000
77,96,141500,500
74,96,141500,500
77,96,142000,1000
74,96,142000,1000
72,96,143500,500
80,96,144000,1000
79,96,145000,1000
75,96,146000,1000
77,96,147000,1000
74,96,147000,1000
70,96,147000,1000
65,96,148000,500
70,96,148000,500
70,96,148500,500
65,96,148500,500
69,96,149500,1000
65,96,149500,1000
105,96,150624,62
103,96,150686,62
101,96,150750,62
100,96,150812,62
98,96,150874,62
96,96,150938,62
95,96,151000,62
93,96,151062,62
91,96,151124,62
89,96,151188,62
88,96,151250,62
86,96,151312,62
84,96,151374,62
83,96,151438,62
81,96,151500,62
79,96,151562,62
77,96,151624,62
76,96,151686,62
74,96,151750,62
72,96,151812,62
71,96,151874,62
69,96,151938,62
89,96,152500,500
77,96,152500,500
89,96,153000,500
77,96,153000,500
89,96,154000,500
77,96,154000,500
87,96,154500,500
75,96,154500,500
86,96,155000,500
74,96,155000,500
87,96,155500,500
75,96,155500,500
89,96,156000,500
77,96,156000,500
89,96,156500,1000
77,96,156500,1000
89,96,157500,500
77,96,157500,500
94,96,158500,500
82,96,158500,500
93,96,159000,500
81,96,159000,500
94,96,159500,500
82,96,159500,500
89,96,160500,500
77,96,160500,500
89,96,161000,500
77,96,161000,500
89,96,161500,500
77,96,161500,500
89,96,162000,500
77,96,162000,500
87,96,162500,500
75,96,162500,500
86,96,163000,500
74,96,163000,500
87,96,163500,500
75,96,163500,500
89,96,164000,500
77,96,164000,500
89,96,164500,1000
77,96,164500,1000
89,96,165500,500
77,96,165500,500
98,96,166500,500
86,96,166500,500
96,96,167000,500
84,96,167000,500
94,96,167500,500
82,96,167500,500
87,96,168500,500
91,96,168500,500
79,96,168500,500
91,96,169000,500
87,96,169000,500
79,96,169000,500
91,96,169500,500
87,96,169500,500
79,96,169500,500
91,96,170000,500
87,96,170000,500
79,96,170000,500
87,96,170500,500
91,96,170500,500
79,96,170500,500
93,96,171000,500
81,96,171000,500
94,96,171500,500
91,96,171500,500
87,96,171500,500
82,96,171500,500
89,96,172500,500
86,96,172500,500
77,96,172500,500
86,96,173000,500
89,96,173000,500
77,96,173000,500
86,96,173500,500
89,96,173500,500
77,96,173500,500
86,96,174000,1000
74,96,174000,1000
86,96,175000,1000
89,96,175000,1000
77,96,175000,1000
87,96,176000,1000
75,96,176000,1000
86,96,177000,1000
74,96,177000,1000
87,96,178000,1000
75,96,178000,1000
89,96,179000,1000
77,96,179000,1000
86,96,180000,500
74,96,180000,500
84,96,180500,500
72,96,180500,500
86,96,181000,500
74,96,181000,500
77,96,181500,1000
84,96,181500,1000
72,96,181500,1000
84,96,182500,500
72,96,182500,500
86,96,183000,500
74,96,183000,500
87,96,183500,500
75,96,183500,500
89,96,184000,500
77,96,184000,500
89,96,184500,500
77,96,184500,500
89,96,185000,500
77,96,185000,500
89,96,185500,500
77,96,185500,500
89,96,186000,500
77,96,186000,500
87,96,186500,500
75,96,186500,500
86,96,187000,500
74,96,187000,500
87,96,187500,500
75,96,187500,500
89,96,188000,500
77,96,188000,500
89,96,188500,500
77,96,188500,500
89,96,189000,500
77,96,189000,500
89,96,189500,500
77,96,189500,500
94,96,190500,500
82,96,190500,500
93,96,191000,500
81,96,191000,500
94,96,191500,500
82,96,191500,500
89,96,192500,500
77,96,192500,500
89,96,193000,500
77,96,193000,500
89,96,193500,500
77,96,193500,500
89,96,194000,500
77,96,194000,500
87,96,194500,500
75,96,194500,500
86,96,195000,500
74,96,195000,500
87,96,195500,500
75,96,195500,500
84,96,196000,500
89,96,196000,500
77,96,196000,500
89,96,196500,500
77,96,196500,500
89,96,197000,500
77,96,197000,500
89,96,197500,500
77,96,197500,500
98,96,198500,500
86,96,198500,500
96,96,199000,500
84,96,199000,500
94,96,199500,500
82,96,199500,500
87,96,200500,500
91,96,200500,500
79,96,200500,500
87,96,201000,500
91,96,201000,500
79,96,201000,500
91,96,201500,500
87,96,201500,500
79,96,201500,500
91,96,202000,500
87,96,202000,500
79,96,202000,500
91,96,202500,500
87,96,202500,500
79,96,202500,500
93,96,203000,500
81,96,203000,500
94,96,203500,500
91,96,203500,500
87,96,203500,500
82,96,203500,500
86,96,204500,500
89,96,204500,500
77,96,204500,500
89,96,205000,500
86,96,205000,500
77,96,205000,500
86,96,205500,500
89,96,205500,500
77,96,205500,500
86,96,206000,1000
74,96,206000,1000
86,96,207000,1000
89,96,207000,1000
77,96,207000,1000
87,96,208000,2000
84,96,208000,2000
75,96,208000,2000
89,96,210000,1500
84,96,210000,1500
77,96,210000,1500
89,96,211500,500
77,96,211500,500
89,96,212000,1000
94,96,212000,1000
82,96,212000,1000
89,96,213000,1000
93,96,213000,1000
81,96,213000,1000
91,96,214000,1000
79,96,214000,1000
93,96,215000,500
89,96,215000,500
81,96,215000,500
89,96,215500,500
93,96,215500,500
81,96,215500,500
93,96,216000,1500
87,96,216000,1500
81,96,216000,1500
87,96,217500,500
94,96,217500,500
82,96,217500,500
87,96,218000,1500
94,96,218000,1500
82,96,218000,1500
89,96,219500,500
77,96,219500,500
94,96,220000,1000
89,96,220000,1000
82,96,220000,1000
89,96,221000,1000
93,96,221000,1000
81,96,221000,1000
91,96,222000,1000
79,96,222000,1000
93,96,223000,500
89,96,223000,500
81,96,223000,500
93,96,223500,500
89,96,223500,500
81,96,223500,500
89,96,224000,1500
93,96,224000,1500
81,96,224000,1500
89,96,225500,500
94,96,225500,500
82,96,225500,500
89,96,226000,1000
94,96,226000,1000
82,96,226000,1000
96,96,227000,500
84,96,227000,500
93,96,227500,500
81,96,227500,500
94,96,228000,3000
91,96,228000,3000
86,96,228000,3000
82,96,228000,3000
87,96,232000,1500
93,96,232000,1500
81,96,232000,1500
87,96,233500,500
94,96,233500,500
82,96,233500,500
94,96,234000,1500
87,96,234000,1500
82,96,234000,1500
89,96,235500,500
77,96,235500,500
94,96,236000,1000
89,96,236000,1000
82,96,236000,1000
89,96,237000,1000
93,96,237000,1000
81,96,237000,1000
91,96,238000,1000
79,96,238000,1000
93,96,239000,1000
89,96,239000,1000
81,96,239000,1000
93,96,240000,1500
89,96,240000,1500
81,96,240000,1500
89,96,241500,500
94,96,241500,500
82,96,241500,500
89,96,242000,1750
94,96,242000,1750
82,96,242000,1750
67,96,249000,1000
63,96,249000,1000
70,96,249000,1000
67,96,250000,500
68,96,250500,500
70,96,251000,500
67,96,251500,500
71,96,251500,500
74,96,251500,500
67,96,252500,1000
74,96,252500,1000
71,96,252500,1000
72,96,253500,1000
67,96,254500,1500
71,96,254500,1500
74,96,254500,1500
68,96,257000,1000
72,96,257000,1000
75,96,257000,1000
72,96,258000,500
74,96,258500,500
75,96,259000,500
78,96,259500,500
71,96,259500,500
75,96,259500,500
78,96,260500,1000
75,96,260500,1000
71,96,260500,1000
77,96,261500,1000
71,96,261500,1000
75,96,262500,1000
68,96,263500,500
71,96,263500,500
70,96,264000,1000
67,96,264000,1000
63,96,265000,1000
67,96,265000,1000
70,96,265000,1000
67,96,266000,500
68,96,266500,500
70,96,267000,500
71,96,267500,500
67,96,267500,500
74,96,267500,500
71,96,268500,1000
67,96,268500,1000
74,96,268500,1000
72,96,269500,1000
67,96,270500,1500
71,96,270500,1500
74,96,270500,1500
68,96,273000,1000
72,96,273000,1000
75,96,273000,1000
72,96,274000,500
74,96,274500,500
75,96,275000,500
75,96,275500,500
71,96,275500,500
78,96,275500,500
75,96,276500,1000
78,96,276500,1000
71,96,276500,1000
77,96,277500,1000
75,96,278500,1000
71,96,279500,500
68,96,279500,500
70,96,280000,1000
67,96,280000,1000
58,96,281000,1000
63,96,282000,1000
65,96,283000,1000
62,96,284000,1000
67,96,284000,1000
65,96,285000,1000
63,96,286000,1000
65,96,287000,1000
62,96,287000,1000
67,96,288500,500
68,96,289000,500
67,96,289500,500
68,96,290000,500
67,96,290500,500
68,96,291000,500
67,96,291500,500
68,96,292000,500
70,96,292500,1000
65,96,292500,1000
62,96,293500,1000
65,96,293500,1000
63,96,294500,500
65,96,295000,500
62,96,295000,500
63,96,295500,500
58,96,297000,1000
63,96,298000,1000
65,96,299000,1000
62,96,300000,1000
67,96,300000,1000
65,96,301000,1000
63,96,302000,1000
65,96,303000,1000
62,96,303000,1000
67,96,304500,500
68,96,305000,500
67,96,305500,500
68,96,306000,500
67,96,306500,500
68,96,307000,500
67,96,307500,500
68,96,308000,500
70,96,308500,1000
65,96,308500,1000
65,96,309500,1000
62,96,309500,1000
63,96,310500,500
65,96,311000,500
62,96,311000,500
63,96,311500,500
79,96,313000,1000
75,96,313000,1000
82,96,313000,1000
79,96,314000,1000
75,96,314000,1000
79,96,315000,1000
75,96,315000,1000
82,96,315000,1000
79,96,316000,1500
74,96,316000,1500
82,96,317500,1500
82,96,319000,500
77,96,319500,1500
84,96,319500,1500
82,96,321000,1000
79,96,322000,1000
75,96,322000,1000
77,96,323000,1000
74,96,323000,1000
72,96,324000,1500
75,96,324000,1500
72,96,325500,2500
75,96,329000,500
72,96,329500,500
75,96,330000,1000
75,96,331000,500
72,96,331500,500
75,96,332000,1000
75,96,333000,500
72,96,333500,500
75,96,334000,500
77,96,334500,1000
72,96,335500,500
75,96,335500,500
79,96,335500,500
75,96,337000,500
72,96,337500,500
75,96,338000,1000
75,96,339000,500
72,96,339500,500
75,96,340000,1000
75,96,341000,500
72,96,341500,500
75,96,342000,500
77,96,342500,1000
70,96,343500,500
75,96,343500,500
79,96,343500,500
75,96,345000,500
68,96,345000,500
72,96,345500,500
75,96,346000,1000
68,96,346000,1000
68,96,347000,500
75,96,347000,500
72,96,347500,500
75,96,348000,1000
72,96,348000,1000
75,96,349000,500
69,96,349000,500
72,96,349500,500
75,96,350000,500
69,96,350000,500
77,96,350500,1000
72,96,350500,1000
79,96,351500,2000
75,96,351500,2000
77,96,353500,500
74,96,353500,500
77,96,354000,1000
74,96,354000,1000
72,96,355500,500
80,96,356000,1000
79,96,357000,1000
75,96,358000,1000
74,96,359000,1000
70,96,359000,1000
77,96,359000,1000
65,96,360000,500
70,96,360000,500
70,96,360500,500
65,96,360500,500
65,96,361500,1000
69,96,361500,1000
105,96,362624,62
103,96,362686,62
101,96,362750,62
100,96,362812,62
98,96,362874,62
96,96,362936,62
95,96,363000,62
93,96,363062,62
91,96,363124,62
89,96,363186,62
88,96,363250,62
86,96,363312,62
84,96,363374,62
83,96,363436,62
81,96,363500,62
79,96,363562,62
77,96,363624,62
76,96,363686,62
74,96,363750,62
72,96,363812,62
71,96,363874,62
69,96,363936,62
77,96,364500,500
89,96,364500,500
77,96,365000,500
89,96,365000,500
77,96,366000,500
89,96,366000,500
75,96,366500,500
87,96,366500,500
74,96,367000,500
86,96,367000,500
75,96,367500,500
87,96,367500,500
77,96,368000,500
89,96,368000,500
77,96,368500,1000
89,96,368500,1000
77,96,369500,500
89,96,369500,500
82,96,370500,500
94,96,370500,500
81,96,371000,500
93,96,371000,500
82,96,371500,500
94,96,371500,500
77,96,372500,500
89,96,372500,500
77,96,373000,500
89,96,373000,500
77,96,373500,500
89,96,373500,500
77,96,374000,500
89,96,374000,500
75,96,374500,500
87,96,374500,500
74,96,375000,500
86,96,375000,500
75,96,375500,500
87,96,375500,500
77,96,376000,500
89,96,376000,500
77,96,376500,1000
89,96,376500,1000
77,96,377500,500
89,96,377500,500
86,96,378500,500
98,96,378500,500
84,96,379000,500
96,96,379000,500
82,96,379500,500
94,96,379500,500
79,96,380500,500
87,96,380500,500
91,96,380500,500
79,96,381000,500
91,96,381000,500
87,96,381000,500
79,96,381500,500
91,96,381500,500
87,96,381500,500
79,96,382000,500
91,96,382000,500
87,96,382000,500
79,96,382500,500
87,96,382500,500
91,96,382500,500
81,96,383000,500
93,96,383000,500
82,96,383500,500
94,96,383500,500
91,96,383500,500
87,96,383500,500
77,96,384500,500
89,96,384500,500
86,96,384500,500
77,96,385000,500
86,96,385000,500
89,96,385000,500
77,96,385500,500
86,96,385500,500
89,96,385500,500
74,96,386000,1000
86,96,386000,1000
77,96,387000,1000
86,96,387000,1000
89,96,387000,1000
75,96,388000,1000
87,96,388000,1000
74,96,389000,1000
86,96,389000,1000
75,96,390000,1000
87,96,390000,1000
77,96,391000,1000
89,96,391000,1000
74,96,392000,500
86,96,392000,500
72,96,392500,500
84,96,392500,500
74,96,393000,500
86,96,393000,500
72,96,393500,1000
84,96,393500,1000
77,96,393500,1000
72,96,394500,500
84,96,394500,500
74,96,395000,500
86,96,395000,500
75,96,395500,500
87,96,395500,500
77,96,396000,500
89,96,396000,500
77,96,396500,500
89,96,396500,500
77,96,397000,500
89,96,397000,500
77,96,397500,500
89,96,397500,500
77,96,398000,500
89,96,398000,500
75,96,398500,500
87,96,398500,500
74,96,399000,500
86,96,399000,500
75,96,399500,500
87,96,399500,500
77,96,400000,500
89,96,400000,500
77,96,400500,500
89,96,400500,500
77,96,401000,500
89,96,401000,500
77,96,401500,500
89,96,401500,500
82,96,402500,500
94,96,402500,500
81,96,403000,500
93,96,403000,500
82,96,403500,500
94,96,403500,500
77,96,404500,500
89,96,404500,500
77,96,405000,500
89,96,405000,500
77,96,405500,500
89,96,405500,500
77,96,406000,500
89,96,406000,500
75,96,406500,500
87,96,406500,500
74,96,407000,500
86,96,407000,500
75,96,407500,500
87,96,407500,500
77,96,408000,500
84,96,408000,500
89,96,408000,500
77,96,408500,500
89,96,408500,500
77,96,409000,500
89,96,409000,500
77,96,409500,500
89,96,409500,500
86,96,410500,500
98,96,410500,500
84,96,411000,500
96,96,411000,500
82,96,411500,500
94,96,411500,500
79,96,412500,500
87,96,412500,500
91,96,412500,500
79,96,413000,500
87,96,413000,500
91,96,413000,500
79,96,413500,500
91,96,413500,500
87,96,413500,500
79,96,414000,500
91,96,414000,500
87,96,414000,500
79,96,414500,500
91,96,414500,500
87,96,414500,500
81,96,415000,500
93,96,415000,500
82,96,415500,500
94,96,415500,500
91,96,415500,500
87,96,415500,500
77,96,416500,500
86,96,416500,500
89,96,416500,500
77,96,417000,500
89,96,417000,500
86,96,417000,500
77,96,417500,500
86,96,417500,500
89,96,417500,500
74,96,418000,1000
86,96,418000,1000
77,96,419000,1000
86,96,419000,1000
89,96,419000,1000
75,96,420000,2000
87,96,420000,2000
84,96,420000,2000
77,96,422000,1500
89,96,422000,1500
84,96,422000,1500
77,96,423500,500
89,96,423500,500
82,96,424000,1000
89,96,424000,1000
94,96,424000,1000
81,96,425000,1000
89,96,425000,1000
93,96,425000,1000
79,96,426000,1000
91,96,426000,1000
81,96,427000,500
93,96,427000,500
89,96,427000,500
81,96,427500,500
89,96,427500,500
93,96,427500,500
81,96,428000,1500
93,96,428000,1500
87,96,428000,1500
82,96,429500,500
87,96,429500,500
94,96,429500,500
82,96,430000,1500
87,96,430000,1500
94,96,430000,1500
77,96,431500,500
89,96,431500,500
82,96,432000,1000
94,96,432000,1000
89,96,432000,1000
81,96,433000,1000
89,96,433000,1000
93,96,433000,1000
79,96,434000,1000
91,96,434000,1000
81,96,435000,500
93,96,435000,500
89,96,435000,500
93,96,435500,500
89,96,435500,500
81,96,435500,500
89,96,436000,1500
93,96,436000,1500
81,96,436000,1500
89,96,437500,500
94,96,437500,500
82,96,437500,500
89,96,438000,1000
94,96,438000,1000
82,96,438000,1000
96,96,439000,500
84,96,439000,500
93,96,439500,500
81,96,439500,500
94,96,440000,3000
91,96,440000,3000
86,96,440000,3000
82,96,440000,3000
81,96,444000,1500
87,96,444000,1500
93,96,444000,1500
82,96,445500,500
87,96,445500,500
94,96,445500,500
82,96,446000,1500
94,96,446000,1500
87,96,446000,1500
77,96,447500,500
89,96,447500,500
82,96,448000,1000
94,96,448000,1000
89,96,448000,1000
81,96,449000,1000
89,96,449000,1000
93,96,449000,1000
79,96,450000,1000
91,96,450000,1000
81,96,451000,1000
93,96,451000,1000
89,96,451000,1000
81,96,452000,1500
93,96,452000,1500
89,96,452000,1500
82,96,453500,500
89,96,453500,500
94,96,453500,500
82,96,454000,1500
89,96,454000,1500
94,96,454000,1500
89,96,455500,1500
77,80,455500,1500
86,96,457000,1000
77,80,457000,1000
84,96,458000,1000
77,80,458000,1000
82,96,459000,1000
77,80,459000,1000
67,96,460000,1000
63,96,460000,1000
60,96,460000,1000
75,96,461000,1000
72,96,461000,1000
79,96,461000,1000
75,96,462000,1000
72,96,462000,1000
79,96,462000,1000
75,96,463000,1000
72,96,463000,1000
79,96,463000,1000
75,96,464000,1000
72,96,464000,1000
79,96,464000,1000
80,96,465000,1000
82,96,466000,1000
75,96,466000,1000
72,96,466000,1000
75,96,467000,1000
77,96,468000,500
75,96,468500,500
77,96,469000,500
79,96,469500,2500
89,96,472000,500
87,96,472500,500
89,96,473000,500
91,96,473500,2500
77,96,477000,1000
72,96,477000,1000
80,96,477000,1000
77,96,478000,1000
72,96,478000,1000
80,96,478000,1000
77,96,479000,1000
72,96,479000,1000
80,96,479000,1000
79,96,480000,1000
71,96,480000,1000
74,96,481000,1000
79,96,482000,1000
71,96,482000,1000
77,96,483000,1000
77,96,484000,500
75,96,484500,500
77,96,485000,500
79,96,485500,2500
89,96,488000,500
87,96,488500,500
89,96,489000,500
91,96,489500,1000
79,96,490500,500
77,96,491000,500
75,96,491500,1000
82,96,492500,500
70,96,492500,500
86,96,493000,500
74,96,493000,500
87,96,493500,500
75,96,493500,500
82,96,494500,500
70,96,494500,500
86,96,495000,500
74,96,495000,500
87,96,495500,500
75,96,495500,500
82,96,496500,500
70,96,496500,500
86,96,497000,500
74,96,497000,500
87,96,497500,500
75,96,497500,500
89,96,498000,500
77,96,498000,500
87,96,498500,500
75,96,498500,500
86,96,499000,500
74,96,499000,500
87,96,499500,500
75,96,499500,500
82,96,500500,500
70,96,500500,500
86,96,501000,500
74,96,501000,500
87,96,501500,500
75,96,501500,500
82,96,502500,500
70,96,502500,500
86,96,503000,500
74,96,503000,500
87,96,503500,500
75,96,503500,500
82,96,504500,500
70,96,504500,500
86,96,505000,500
74,96,505000,500
87,96,505500,500
75,96,505500,500
89,96,506000,500
77,96,506000,500
87,96,506500,500
75,96,506500,500
86,96,507000,500
74,96,507000,500
87,96,507500,500
75,96,507500,500
84,96,508000,1000
72,96,508000,1000
84,96,509000,500
72,96,509000,500
86,96,509500,1000
74,96,509500,1000
86,96,510500,1000
74,96,510500,1000
87,96,511500,1500
75,96,511500,1500
82,96,513000,1000
70,96,513000,1000
92,96,514000,1000
80,96,514000,1000
91,96,515000,1000
79,96,515000,1000
89,96,516000,2500
77,96,516000,2500
87,96,518500,500
75,96,518500,500
91,96,519000,500
79,96,519000,500
89,96,519500,124
77,96,519500,124
91,96,519750,124
79,96,519750,124
89,96,520000,4000
77,96,520000,4000
91,96,524000,500
79,96,524000,500
89,96,524500,500
77,96,524500,500
91,96,525000,3000
79,96,525000,3000
63,96,528000,1500
62,96,529500,1000
105,96,530622,62
103,96,530684,62
101,96,530748,62
100,96,530810,62
98,96,530874,62
96,96,530936,62
95,96,530998,62
93,96,531060,62
91,96,531124,62
89,96,531186,62
88,96,531248,62
86,96,531312,60
84,96,531372,62
83,96,531436,62
81,96,531498,62
79,96,531560,62
77,96,531624,62
76,96,531684,62
74,96,531748,62
72,96,531810,62
71,96,531874,62
69,96,531936,62
67,96,532000,62
65,96,532062,62
64,96,532122,62
62,96,532186,62
60,96,532250,62
59,96,532312,62
57,96,532374,62
55,96,532436,62
53,96,532500,62
52,96,532560,62
50,96,532624,62
48,96,532686,62
47,96,532750,62
45,96,532812,62
43,96,532874,62
41,96,532936,62
40,96,532998,62
38,96,533062,62
36,96,533124,62
35,96,533186,62
33,96,533250,62
105,96,538000,62
103,96,538062,62
101,96,538126,62
100,96,538188,62
98,96,538250,62
96,96,538312,62
95,96,538376,62
93,96,538438,62
91,96,538500,62
89,96,538562,62
88,96,538626,62
86,96,538688,62
84,96,538750,62
83,96,538812,62
81,96,538876,62
79,96,538938,62
77,96,539000,62
76,96,539062,62
74,96,539126,62
72,96,539188,62
71,96,539250,62
69,96,539312,62
77,96,540500,500
89,96,540500,500
77,96,541000,500
89,96,541000,500
77,96,542000,500
89,96,542000,500
75,96,542500,500
87,96,542500,500
74,96,543000,500
86,96,543000,500
75,96,543500,500
87,96,543500,500
77,96,544000,500
89,96,544000,500
77,96,544500,1000
89,96,544500,1000
77,96,545500,500
89,96,545500,500
82,96,546500,500
94,96,546500,500
81,96,547000,500
93,96,547000,500
82,96,547500,500
94,96,547500,500
77,96,548500,500
89,96,548500,500
77,96,549000,500
89,96,549000,500
77,96,549500,500
89,96,549500,500
77,96,550000,500
89,96,550000,500
75,96,550500,500
87,96,550500,500
74,96,551000,500
86,96,551000,500
75,96,551500,500
87,96,551500,500
77,96,552000,500
89,96,552000,500
77,96,552500,1000
89,96,552500,1000
77,96,553500,500
89,96,553500,500
86,96,554500,500
98,96,554500,500
84,96,555000,500
96,96,555000,500
82,96,555500,500
94,96,555500,500
79,96,556500,500
87,96,556500,500
91,96,556500,500
79,96,557000,500
91,96,557000,500
87,96,557000,500
79,96,557500,500
91,96,557500,500
87,96,557500,500
79,96,558000,500
91,96,558000,500
87,96,558000,500
79,96,558500,500
87,96,558500,500
91,96,558500,500
81,96,559000,500
93,96,559000,500
82,96,559500,500
94,96,559500,500
91,96,559500,500
87,96,559500,500
77,96,560500,500
89,96,560500,500
86,96,560500,500
77,96,561000,500
86,96,561000,500
89,96,561000,500
77,96,561500,500
86,96,561500,500
89,96,561500,500
74,96,562000,1000
86,96,562000,1000
77,96,563000,1000
86,96,563000,1000
89,96,563000,1000
75,96,564000,1000
87,96,564000,1000
74,96,565000,1000
86,96,565000,1000
75,96,566000,1000
87,96,566000,1000
77,96,567000,1000
89,96,567000,1000
74,96,568000,500
86,96,568000,500
72,96,568500,500
84,96,568500,500
74,96,569000,500
86,96,569000,500
72,96,569500,1000
84,96,569500,1000
77,96,569500,1000
72,96,570500,500
84,96,570500,500
74,96,571000,500
86,96,571000,500
75,96,571500,500
87,96,571500,500
77,96,572000,500
89,96,572000,500
77,96,572500,500
89,96,572500,500
77,96,573000,500
89,96,573000,500
77,96,573500,500
89,96,573500,500
77,96,574000,500
89,96,574000,500
75,96,574500,500
87,96,574500,500
74,96,575000,500
86,96,575000,500
75,96,575500,500
87,96,575500,500
77,96,576000,500
89,96,576000,500
77,96,576500,500
89,96,576500,500
77,96,577000,500
89,96,577000,500
77,96,577500,500
89,96,577500,500
82,96,578500,500
94,96,578500,500
81,96,579000,500
93,96,579000,500
94,96,579500,500
82,96,579500,500
89,96,580500,500
77,96,580500,500
89,96,581000,500
77,96,581000,500
89,96,581500,500
77,96,581500,500
89,96,582000,500
77,96,582000,500
87,96,582500,500
75,96,582500,500
74,96,583000,500
86,96,583000,500
75,96,583500,500
87,96,583500,500
77,96,584000,500
84,96,584000,500
89,96,584000,500
77,96,584500,500
89,96,584500,500
77,96,585000,500
89,96,585000,500
77,96,585500,500
89,96,585500,500
86,96,586500,500
98,96,586500,500
84,96,587000,500
96,96,587000,500
82,96,587500,500
94,96,587500,500
79,96,588500,500
87,96,588500,500
91,96,588500,500
79,96,589000,500
87,96,589000,500
91,96,589000,500
79,96,589500,500
91,96,589500,500
87,96,589500,500
79,96,590000,500
91,96,590000,500
87,96,590000,500
79,96,590500,500
91,96,590500,500
87,96,590500,500
81,96,591000,500
93,96,591000,500
82,96,591500,500
94,96,591500,500
91,96,591500,500
87,96,591500,500
77,96,592500,500
86,96,592500,500
89,96,592500,500
77,96,593000,500
89,96,593000,500
86,96,593000,500
77,96,593500,500
86,96,593500,500
89,96,593500,500
86,96,594000,1000
74,96,594000,1000
77,96,595000,1000
86,96,595000,1000
89,96,595000,1000
75,96,596000,2000
87,96,596000,2000
84,96,596000,2000
77,96,598000,1500
89,96,598000,1500
84,96,598000,1500
77,96,599500,500
89,96,599500,500
82,96,600000,1000
89,96,600000,1000
94,96,600000,1000
81,96,601000,1000
89,96,601000,1000
93,96,601000,1000
79,96,602000,1000
91,96,602000,1000
81,96,603000,500
93,96,603000,500
89,96,603000,500
81,96,603500,500
89,96,603500,500
93,96,603500,500
81,96,604000,1500
93,96,604000,1500
87,96,604000,1500
82,96,605500,500
87,96,605500,500
94,96,605500,500
82,96,606000,1500
87,96,606000,1500
94,96,606000,1500
77,96,607500,500
89,96,607500,500
82,96,608000,1000
94,96,608000,1000
89,96,608000,1000
81,96,609000,1000
89,96,609000,1000
93,96,609000,1000
79,96,610000,1000
91,96,610000,1000
81,96,611000,500
93,96,611000,500
89,96,611000,500
93,96,611500,500
89,96,611500,500
81,96,611500,500
89,96,612000,1500
93,96,612000,1500
81,96,612000,1500
89,96,613500,500
94,96,613500,500
82,96,613500,500
89,96,614000,1000
94,96,614000,1000
82,96,614000,1000
96,96,615000,500
84,96,615000,500
93,96,615500,500
81,96,615500,500
94,96,616000,3000
91,96,616000,3000
86,96,616000,3000
82,96,616000,3000
81,96,620000,1500
87,96,620000,1500
93,96,620000,1500
82,96,621500,500
87,96,621500,500
94,96,621500,500
82,96,622000,1500
94,96,622000,1500
87,96,622000,1500
77,96,623500,500
89,96,623500,500
82,96,624000,1000
94,96,624000,1000
89,96,624000,1000
81,96,625000,1000
89,96,625000,1000
93,96,625000,1000
79,96,626000,1000
91,96,626000,1000
81,96,627000,1000
93,96,627000,1000
89,96,627000,1000
81,96,628000,1500
93,96,628000,1500
89,96,628000,1500
82,96,629500,500
89,96,629500,500
94,96,629500,500
82,96,630000,1500
89,96,630000,1500
94,96,630000,1500
72,96,631500,2250
69,96,631500,2250
62,96,631500,2250
65,96,631500,2250
51,80,4000,500
39,80,4000,500
46,80,4000,500
51,80,4500,500
39,80,4500,500
46,80,4500,500
39,80,6500,500
51,80,7000,1000
55,80,8000,500
50,80,8000,500
43,80,8000,500
43,80,8500,500
55,80,8500,500
50,80,8500,500
43,80,10500,500
55,80,11000,1000
56,80,12000,500
51,80,12000,500
44,80,12000,500
44,80,12500,500
51,80,12500,500
56,80,12500,500
44,80,14500,500
56,80,15000,1000
46,80,16000,500
58,80,16000,500
53,80,16000,500
53,80,16500,500
58,80,16500,500
46,80,16500,500
58,80,18000,750
46,80,18000,750
53,80,18000,750
41,80,18750,750
53,80,18750,750
46,80,19500,500
34,80,19500,500
51,80,20000,500
39,80,20000,500
51,80,20500,500
39,80,20500,500
39,80,22500,500
51,80,23000,1000
55,80,24000,500
50,80,24000,500
43,80,24000,500
50,80,24500,500
55,80,24500,500
43,80,24500,500
43,80,26500,500
55,80,27000,1000
56,80,28000,500
51,80,28000,500
44,80,28000,500
44,80,28500,500
51,80,28500,500
56,80,28500,500
44,80,30500,500
56,80,31000,1000
46,80,32000,500
58,80,32000,500
53,80,32000,500
53,80,32500,500
58,80,32500,500
46,80,32500,500
58,80,34000,750
53,80,34000,750
46,80,34000,750
41,80,34750,750
53,80,34750,750
34,80,35500,500
46,80,35500,500
39,80,36000,500
51,80,36500,500
46,80,36500,500
39,80,37000,500
46,80,37500,500
51,80,37500,500
39,80,38000,500
51,80,38500,500
46,80,38500,500
39,80,39000,500
51,80,39500,500
46,80,39500,500
43,80,40000,500
50,80,40500,500
55,80,40500,500
43,80,41000,500
55,80,41500,500
50,80,41500,500
43,80,42000,500
55,80,42500,500
50,80,42500,500
43,80,43000,500
55,80,43500,500
50,80,43500,500
44,80,44000,500
51,80,44500,500
56,80,44500,500
44,80,45000,500
51,80,45500,500
56,80,45500,500
44,80,46000,500
56,80,46500,500
51,80,46500,500
44,80,47000,500
51,80,47500,500
56,80,47500,500
44,80,48000,500
51,80,48500,500
56,80,48500,500
44,80,49000,500
56,80,49500,500
51,80,49500,500
47,80,50000,500
56,80,50500,500
59,80,50500,500
47,80,51000,500
56,80,51500,500
59,80,51500,500
39,80,52000,500
51,80,52500,500
46,80,52500,500
39,80,53000,500
46,80,53500,500
51,80,53500,500
39,80,54000,500
51,80,54500,500
46,80,54500,500
39,80,55000,500
51,80,55500,500
46,80,55500,500
43,80,56000,500
50,80,56500,500
55,80,56500,500
43,80,57000,500
50,80,57500,500
55,80,57500,500
43,80,58000,500
55,80,58500,500
50,80,58500,500
43,80,59000,500
50,80,59500,500
55,80,59500,500
44,80,60000,500
56,80,60500,500
51,80,60500,500
44,80,61000,500
51,80,61500,500
56,80,61500,500
44,80,62000,500
51,80,62500,500
56,80,62500,500
44,80,63000,500
56,80,63500,500
51,80,63500,500
44,80,64000,500
51,80,64500,500
56,80,64500,500
44,80,65000,500
51,80,65500,500
56,80,65500,500
47,80,66000,500
59,80,66500,500
56,80,66500,500
47,80,67000,500
56,80,67500,500
59,80,67500,500
39,80,68000,500
51,80,68500,500
34,80,69000,500
51,80,69500,500
39,80,70000,500
51,80,70500,500
34,80,71000,500
51,80,71500,500
43,80,72000,500
55,80,72500,500
38,80,73000,500
55,80,73500,500
43,80,74000,500
55,80,74500,500
38,80,75000,500
55,80,75500,500
44,80,76000,500
56,80,76500,500
39,80,77000,500
56,80,77500,500
44,80,78000,500
56,80,78500,500
39,80,79000,500
56,80,79500,500
46,80,80000,500
58,80,80500,500
41,80,81000,500
58,80,81500,500
46,80,82000,500
58,80,82500,500
41,80,83000,500
58,80,83500,500
39,80,84000,500
51,80,84500,500
34,80,85000,500
51,80,85500,500
39,80,86000,500
51,80,86500,500
34,80,87000,500
51,80,87500,500
43,80,88000,500
55,80,88500,500
38,80,89000,500
55,80,89500,500
43,80,90000,500
55,80,90500,500
38,80,91000,500
55,80,91500,500
44,80,92000,500
56,80,92500,500
39,80,93000,500
56,80,93500,500
44,80,94000,500
56,80,94500,500
39,80,95000,500
56,80,95500,500
46,80,96000,500
58,80,96500,500
41,80,97000,500
58,80,97500,500
46,80,98000,500
58,80,98500,500
41,80,99000,500
58,80,99500,500
36,80,100000,500
48,80,100000,500
48,80,100500,500
36,80,100500,500
48,80,101500,500
60,80,102000,1000
55,80,102000,1000
48,80,103000,1000
35,80,104000,500
47,80,104000,500
47,80,104500,500
35,80,104500,500
47,80,105500,500
55,80,106000,1000
50,80,106000,1000
47,80,107000,1000
34,80,108000,500
46,80,108000,500
46,80,108500,500
34,80,108500,500
46,80,109500,500
58,80,110000,1000
53,80,110000,1000
46,80,111000,1000
45,80,112000,1000
33,80,112000,1000
45,80,113000,500
51,80,113500,1000
57,80,113500,1000
45,80,114500,500
39,80,115000,500
33,80,115500,500
41,80,116000,500
56,80,116500,500
60,80,116500,500
41,80,117000,500
56,80,117500,500
60,80,117500,500
41,80,118000,500
56,80,118500,500
60,80,118500,500
41,80,119000,500
56,80,119500,500
60,80,119500,500
41,80,120000,500
56,80,120500,500
60,80,120500,500
41,80,121000,500
56,80,121500,500
60,80,121500,500
41,80,122000,500
56,80,122500,500
60,80,122500,500
41,80,123000,500
56,80,123500,500
60,80,123500,500
43,80,124000,500
58,80,124500,500
51,80,124500,500
43,80,125000,500
51,80,125500,500
58,80,125500,500
43,80,126000,500
58,80,126500,500
51,80,126500,500
43,80,127000,500
51,80,127500,500
58,80,127500,500
43,80,128000,500
51,80,128498,500
58,80,128500,500
43,80,129000,500
51,80,129498,500
58,80,129500,500
43,80,130000,500
51,80,130498,500
58,80,130500,500
43,80,131000,500
58,80,131500,500
51,80,131500,500
44,80,132000,500
56,80,132500,500
60,80,132500,500
44,80,133000,500
60,80,133500,500
56,80,133500,500
44,80,134000,500
60,80,134500,500
56,80,134500,500
44,80,135000,500
56,80,135500,500
60,80,135500,500
45,80,136000,500
57,80,136500,500
60,80,136500,500
45,80,137000,500
60,80,137500,500
57,80,137500,500
45,80,138000,500
60,80,138500,500
57,80,138500,500
45,80,139000,500
57,80,139500,500
60,80,139500,500
46,80,140000,500
58,80,140500,500
62,80,140500,500
46,80,141000,500
58,80,141500,500
62,80,141500,500
46,80,142000,500
62,80,142500,500
58,80,142500,500
46,80,143000,500
62,80,143500,500
58,80,143500,500
46,80,144000,500
58,80,144500,500
62,80,144500,500
46,80,145000,500
58,80,145500,500
62,80,145500,500
46,80,146000,500
58,80,146500,500
62,80,146500,500
46,80,147000,500
62,80,147500,500
58,80,147500,500
53,80,148000,500
41,80,148000,500
41,80,148500,500
53,80,148500,500
53,80,149500,2500
41,80,149500,2500
34,80,152000,500
46,80,152500,500
50,80,152500,500
38,80,153000,500
50,80,153500,500
46,80,153500,500
41,80,154000,500
50,80,154500,500
46,80,154500,500
34,80,155000,500
46,80,155500,500
50,80,155500,500
33,80,156000,500
45,80,156500,500
48,80,156500,500
41,80,157000,500
48,80,157500,500
45,80,157500,500
38,80,158000,500
54,80,158500,500
57,80,158500,500
42,80,159000,500
57,80,159500,500
54,80,159500,500
43,80,160000,500
62,80,160500,500
58,80,160500,500
46,80,161000,500
62,80,161500,500
58,80,161500,500
50,80,162000,500
62,80,162500,500
58,80,162500,500
55,80,163000,500
58,80,163500,500
62,80,163500,500
41,80,164000,500
56,80,164500,500
60,80,164500,500
44,80,165000,500
60,80,165500,500
56,80,165500,500
46,80,166000,500
62,80,166500,500
58,80,166500,500
53,80,167000,500
58,80,167500,500
62,80,167500,500
39,80,168000,500
55,80,168500,500
51,80,168500,500
46,80,169000,500
51,80,169500,500
55,80,169500,500
39,80,170000,500
51,80,170500,500
55,80,170500,500
46,80,171000,500
55,80,171500,500
51,80,171500,500
38,80,172000,500
50,80,172500,500
53,80,172500,500
45,80,173000,500
53,80,173500,500
50,80,173500,500
38,80,174000,500
50,80,174500,500
53,80,174500,500
45,80,175000,500
50,80,175500,500
53,80,175500,500
36,80,176000,500
51,80,176500,500
55,80,176500,500
39,80,177000,500
55,80,177500,500
51,80,177500,500
43,80,178000,500
55,80,178500,500
51,80,178500,500
48,80,179000,500
51,80,179500,500
55,80,179500,500
29,80,180000,1000
41,80,180000,1000
43,80,181000,500
31,80,181000,500
33,80,181500,500
45,80,181500,500
46,80,182000,500
34,80,182000,500
36,80,182500,500
48,80,182500,500
38,80,183000,500
50,80,183000,500
51,80,183500,500
39,80,183500,500
34,80,184000,500
46,80,184500,500
50,80,184500,500
38,80,185000,500
50,80,185500,500
46,80,185500,500
41,80,186000,500
50,80,186500,500
46,80,186500,500
34,80,187000,500
46,80,187500,500
50,80,187500,500
33,80,188000,500
48,80,188500,500
45,80,188500,500
41,80,189000,500
45,80,189500,500
48,80,189500,500
38,80,190000,500
57,80,190500,500
54,80,190500,500
42,80,191000,500
54,80,191500,500
57,80,191500,500
43,80,192000,500
58,80,192500,500
62,80,192500,500
46,80,193000,500
62,80,193500,500
58,80,193500,500
50,80,194000,500
62,80,194500,500
58,80,194500,500
55,80,195000,500
58,80,195500,500
62,80,195500,500
41,80,196000,500
60,80,196500,500
56,80,196500,500
44,80,197000,500
56,80,197500,500
60,80,197500,500
46,80,198000,500
58,80,198500,500
62,80,198500,500
53,80,199000,500
62,80,199500,500
58,80,199500,500
39,80,200000,500
51,80,200500,500
55,80,200500,500
46,80,201000,500
55,80,201500,500
51,80,201500,500
39,80,202000,500
51,80,202500,500
55,80,202500,500
46,80,203000,500
51,80,203500,500
55,80,203500,500
38,80,204000,500
50,80,204500,500
53,80,204500,500
45,80,205000,500
50,80,205500,500
53,80,205500,500
38,80,206000,500
53,80,206500,500
50,80,206500,500
45,80,207000,500
53,80,207500,500
50,80,207500,500
36,80,208000,500
51,80,208500,500
55,80,208500,500
39,80,209000,500
55,80,209500,500
51,80,209500,500
43,80,210000,500
55,80,210500,500
51,80,210500,500
48,80,211000,500
55,80,211500,500
51,80,211500,500
41,80,212000,500
53,80,212500,500
57,80,212500,500
48,80,213000,500
57,80,213500,500
53,80,213500,500
41,80,214000,500
57,80,214500,500
53,80,214500,500
48,80,215000,500
57,80,215500,500
53,80,215500,500
39,80,216000,500
55,80,216500,500
51,80,216500,500
46,80,217000,500
51,80,217500,500
55,80,217500,500
39,80,218000,500
51,80,218500,500
55,80,218500,500
46,80,219000,500
51,80,219500,500
55,80,219500,500
41,80,220000,500
57,80,220500,500
53,80,220500,500
48,80,221000,500
53,80,221500,500
57,80,221500,500
41,80,222000,500
53,80,222500,500
57,80,222500,500
48,80,223000,500
53,80,223500,500
57,80,223500,500
38,80,224000,500
53,80,224500,500
50,80,224500,500
45,80,225000,500
50,80,225500,500
53,80,225500,500
38,80,226000,500
50,80,226500,500
53,80,226500,500
45,80,227000,500
50,80,227500,500
53,80,227500,500
43,80,228000,500
62,80,228500,500
58,80,228500,500
46,80,229000,500
58,80,229500,500
62,80,229500,500
50,80,230000,500
58,80,230500,500
62,80,230500,500
55,80,231000,500
58,80,231500,500
62,80,231500,500
36,80,232000,500
51,80,232500,500
55,80,232500,500
39,80,233000,500
51,80,233500,500
55,80,233500,500
43,80,234000,500
51,80,234500,500
55,80,234500,500
48,80,235000,500
51,80,235500,500
55,80,235500,500
41,80,236000,500
53,80,236500,500
57,80,236500,500
48,80,237000,500
57,80,237500,500
53,80,237500,500
41,80,238000,500
57,80,238500,500
53,80,238500,500
48,80,239000,500
57,80,239500,500
53,80,239500,500
46,80,240000,500
62,80,240500,500
58,80,240500,500
53,80,241000,500
58,80,241500,500
62,80,241500,500
46,80,242000,500
58,80,242500,500
62,80,242500,500
53,80,243000,500
34,80,243500,1000
46,80,243500,1000
34,80,244500,500
46,80,244500,500
36,80,245000,500
48,80,245000,500
38,80,245500,500
50,80,245500,500
39,80,246000,500
51,80,246000,500
41,80,246500,500
53,80,246500,500
43,80,247000,500
55,80,247000,500
57,80,247500,500
45,80,247500,500
39,80,248000,500
51,80,248500,500
46,80,248500,500
39,80,249000,500
46,80,249500,500
51,80,249500,500
39,80,250000,500
51,80,250500,500
46,80,250500,500
39,80,251000,500
51,80,251500,500
46,80,251500,500
43,80,252000,500
55,80,252500,500
50,80,252500,500
43,80,253000,500
55,80,253500,500
50,80,253500,500
43,80,254000,500
50,80,254500,500
55,80,254500,500
43,80,255000,500
55,80,255500,500
50,80,255500,500
44,80,256000,500
51,80,256500,500
56,80,256500,500
44,80,257000,500
51,80,257500,500
56,80,257500,500
44,80,258000,500
56,80,258500,500
51,80,258500,500
44,80,259000,500
56,80,259500,500
51,80,259500,500
44,80,260000,500
56,80,260500,500
51,80,260500,500
44,80,261000,500
56,80,261500,500
51,80,261500,500
47,80,262000,500
59,80,262500,500
56,80,262500,500
47,80,263000,500
59,80,263500,500
56,80,263500,500
39,80,264000,500
51,80,264500,500
46,80,264500,500
39,80,265000,500
46,80,265500,500
51,80,265500,500
39,80,266000,500
51,80,266500,500
46,80,266500,500
39,80,267000,500
51,80,267500,500
46,80,267500,500
43,80,268000,500
55,80,268500,500
50,80,268500,500
43,80,269000,500
50,80,269500,500
55,80,269500,500
43,80,270000,500
50,80,270500,500
55,80,270500,500
43,80,271000,500
50,80,271500,500
55,80,271500,500
44,80,272000,500
56,80,272500,500
51,80,272500,500
44,80,273000,500
51,80,273500,500
56,80,273500,500
44,80,274000,500
51,80,274500,500
56,80,274500,500
44,80,275000,500
51,80,275500,500
56,80,275500,500
44,80,276000,500
56,80,276500,500
51,80,276500,500
44,80,277000,500
51,80,277500,500
56,80,277500,500
47,80,278000,500
56,80,278500,500
59,80,278500,500
47,80,279000,500
59,80,279500,500
56,80,279500,500
39,80,280000,500
51,80,280500,500
34,80,281000,500
51,80,281500,500
39,80,282000,500
51,80,282500,500
34,80,283000,500
51,80,283500,500
43,80,284000,500
55,80,284500,500
38,80,285000,500
55,80,285500,500
43,80,286000,500
55,80,286500,500
38,80,287000,500
55,80,287500,500
44,80,288000,500
56,80,288500,500
39,80,289000,500
56,80,289500,500
44,80,290000,500
56,80,290500,500
39,80,291000,500
56,80,291500,500
46,80,292000,500
58,80,292500,500
41,80,293000,500
58,80,293500,500
46,80,294000,500
58,80,294500,500
41,80,295000,500
58,80,295500,500
39,80,296000,500
51,80,296500,500
34,80,297000,500
51,80,297500,500
39,80,298000,500
51,80,298500,500
34,80,299000,500
51,80,299500,500
43,80,300000,500
55,80,300500,500
38,80,301000,500
55,80,301500,500
43,80,302000,500
55,80,302500,500
38,80,303000,500
55,80,303500,500
44,80,304000,500
56,80,304500,500
39,80,305000,500
56,80,305500,500
44,80,306000,500
56,80,306500,500
39,80,307000,500
56,80,307500,500
46,80,308000,500
58,80,308500,500
41,80,309000,500
58,80,309500,500
46,80,310000,500
58,80,310500,500
41,80,311000,500
58,80,311500,500
48,80,312000,500
36,80,312000,500
36,80,312500,500
48,80,312500,500
48,80,313500,500
60,80,314000,1000
55,80,314000,1000
48,80,315000,1000
47,80,316000,500
35,80,316000,500
47,80,316500,500
35,80,316500,500
47,80,317500,500
50,80,318000,1000
55,80,318000,1000
47,80,319000,1000
46,80,320000,500
34,80,320000,500
34,80,320500,500
46,80,320500,500
46,80,321500,500
53,80,322000,1000
58,80,322000,1000
46,80,323000,1000
45,80,324000,1000
33,80,324000,1000
45,80,325000,500
57,80,325500,1000
51,80,325500,1000
45,80,326500,500
39,80,327000,500
33,80,327500,500
41,80,328000,500
56,80,328500,500
60,80,328500,500
41,80,329000,500
56,80,329500,500
60,80,329500,500
41,80,330000,500
56,80,330500,500
60,80,330500,500
41,80,331000,500
56,80,331500,500
60,80,331500,500
41,80,332000,500
56,80,332500,500
60,80,332500,500
41,80,333000,500
56,80,333500,500
60,80,333500,500
41,80,334000,500
56,80,334500,500
60,80,334500,500
41,80,335000,500
56,80,335500,500
60,80,335500,500
43,80,336000,500
58,80,336500,500
51,80,336500,500
43,80,337000,500
51,80,337500,500
58,80,337500,500
43,80,338000,500
58,80,338500,500
51,80,338500,500
43,80,339000,500
51,80,339500,500
58,80,339500,500
43,80,340000,500
51,80,340498,500
58,80,340500,500
43,80,341000,500
51,80,341498,500
58,80,341500,500
43,80,342000,500
51,80,342498,500
58,80,342500,500
43,80,343000,500
58,80,343500,500
51,80,343500,500
44,80,344000,500
56,80,344500,500
60,80,344500,500
44,80,345000,500
60,80,345500,500
56,80,345500,500
44,80,346000,500
60,80,346500,500
56,80,346500,500
44,80,347000,500
56,80,347500,500
60,80,347500,500
45,80,348000,500
57,80,348500,500
60,80,348500,500
45,80,349000,500
60,80,349500,500
57,80,349500,500
45,80,350000,500
60,80,350500,500
57,80,350500,500
45,80,351000,500
57,80,351500,500
60,80,351500,500
46,80,352000,500
58,80,352500,500
62,80,352500,500
46,80,353000,500
58,80,353500,500
62,80,353500,500
46,80,354000,500
62,80,354500,500
58,80,354500,500
46,80,355000,500
58,80,355500,500
62,80,355500,500
46,80,356000,500
58,80,356500,500
62,80,356500,500
46,80,357000,500
58,80,357500,500
62,80,357500,500
46,80,358000,500
58,80,358500,500
62,80,358500,500
46,80,359000,500
62,80,359500,500
58,80,359500,500
53,80,360000,500
41,80,360000,500
41,80,360500,500
53,80,360500,500
41,80,361500,2500
53,80,361500,2500
34,80,364000,500
46,80,364500,500
50,80,364500,500
38,80,365000,500
50,80,365500,500
46,80,365500,500
41,80,366000,500
50,80,366500,500
46,80,366500,500
34,80,367000,500
46,80,367500,500
50,80,367500,500
33,80,368000,500
48,80,368500,500
45,80,368500,500
41,80,369000,500
45,80,369500,500
48,80,369500,500
38,80,370000,500
57,80,370500,500
54,80,370500,500
42,80,371000,500
54,80,371500,500
57,80,371500,500
43,80,372000,500
58,80,372500,500
62,80,372500,500
46,80,373000,500
62,80,373500,500
58,80,373500,500
50,80,374000,500
62,80,374500,500
58,80,374500,500
55,80,375000,500
58,80,375500,500
62,80,375500,500
41,80,376000,500
60,80,376500,500
56,80,376500,500
44,80,377000,500
56,80,377500,500
60,80,377500,500
46,80,378000,500
58,80,378500,500
62,80,378500,500
53,80,379000,500
62,80,379500,500
58,80,379500,500
39,80,380000,500
51,80,380500,500
55,80,380500,500
46,80,381000,500
55,80,381500,500
51,80,381500,500
39,80,382000,500
51,80,382500,500
55,80,382500,500
46,80,383000,500
51,80,383500,500
55,80,383500,500
38,80,384000,500
50,80,384500,500
53,80,384500,500
45,80,385000,500
50,80,385500,500
53,80,385500,500
38,80,386000,500
53,80,386500,500
50,80,386500,500
45,80,387000,500
53,80,387500,500
50,80,387500,500
36,80,388000,500
51,80,388500,500
55,80,388500,500
39,80,389000,500
55,80,389500,500
51,80,389500,500
43,80,390000,500
55,80,390500,500
51,80,390500,500
48,80,391000,500
55,80,391500,500
51,80,391500,500
29,80,392000,1000
41,80,392000,1000
43,80,393000,500
31,80,393000,500
33,80,393500,500
45,80,393500,500
46,80,394000,500
34,80,394000,500
36,80,394500,500
48,80,394500,500
38,80,395000,500
50,80,395000,500
51,80,395500,500
39,80,395500,500
34,80,396000,500
50,80,396500,500
46,80,396500,500
38,80,397000,500
46,80,397500,500
50,80,397500,500
41,80,398000,500
46,80,398500,500
50,80,398500,500
34,80,399000,500
50,80,399500,500
46,80,399500,500
33,80,400000,500
45,80,400500,500
48,80,400500,500
41,80,401000,500
48,80,401500,500
45,80,401500,500
38,80,402000,500
54,80,402500,500
57,80,402500,500
42,80,403000,500
57,80,403500,500
54,80,403500,500
43,80,404000,500
62,80,404500,500
58,80,404500,500
46,80,405000,500
58,80,405500,500
62,80,405500,500
50,80,406000,500
58,80,406500,500
62,80,406500,500
55,80,407000,500
58,80,407500,500
62,80,407500,500
41,80,408000,500
56,80,408500,500
60,80,408500,500
44,80,409000,500
60,80,409500,500
56,80,409500,500
46,80,410000,500
62,80,410500,500
58,80,410500,500
53,80,411000,500
58,80,411500,500
62,80,411500,500
39,80,412000,500
55,80,412500,500
51,80,412500,500
46,80,413000,500
51,80,413500,500
55,80,413500,500
39,80,414000,500
55,80,414500,500
51,80,414500,500
46,80,415000,500
55,80,415500,500
51,80,415500,500
38,80,416000,500
53,80,416500,500
50,80,416500,500
45,80,417000,500
53,80,417500,500
50,80,417500,500
38,80,418000,500
50,80,418500,500
53,80,418500,500
45,80,419000,500
50,80,419500,500
53,80,419500,500
36,80,420000,500
55,80,420500,500
51,80,420500,500
39,80,421000,500
51,80,421500,500
55,80,421500,500
43,80,422000,500
51,80,422500,500
55,80,422500,500
48,80,423000,500
51,80,423500,500
55,80,423500,500
41,80,424000,500
57,80,424500,500
53,80,424500,500
48,80,425000,500
53,80,425500,500
57,80,425500,500
41,80,426000,500
53,80,426500,500
57,80,426500,500
48,80,427000,500
53,80,427500,500
57,80,427500,500
39,80,428000,500
51,80,428500,500
55,80,428500,500
46,80,429000,500
55,80,429500,500
51,80,429500,500
39,80,430000,500
55,80,430500,500
51,80,430500,500
46,80,431000,500
55,80,431500,500
51,80,431500,500
41,80,432000,500
53,80,432500,500
57,80,432500,500
48,80,433000,500
57,80,433500,500
53,80,433500,500
41,80,434000,500
57,80,434500,500
53,80,434500,500
48,80,435000,500
57,80,435500,500
53,80,435500,500
38,80,436000,500
53,80,436500,500
50,80,436500,500
45,80,437000,500
53,80,437500,500
50,80,437500,500
38,80,438000,500
53,80,438500,500
50,80,438500,500
45,80,439000,500
53,80,439500,500
50,80,439500,500
43,80,440000,500
58,80,440500,500
62,80,440500,500
46,80,441000,500
62,80,441500,500
58,80,441500,500
50,80,442000,500
62,80,442500,500
58,80,442500,500
55,80,443000,500
62,80,443500,500
58,80,443500,500
36,80,444000,500
51,80,444500,500
55,80,444500,500
39,80,445000,500
51,80,445500,500
55,80,445500,500
43,80,446000,500
51,80,446500,500
55,80,446500,500
48,80,447000,500
51,80,447500,500
55,80,447500,500
41,80,448000,500
57,80,448500,500
53,80,448500,500
48,80,449000,500
53,80,449500,500
57,80,449500,500
41,80,450000,500
53,80,450500,500
57,80,450500,500
48,80,451000,500
57,80,451500,500
53,80,451500,500
46,80,452000,500
58,80,452500,500
62,80,452500,500
53,80,453000,500
62,80,453500,500
58,80,453500,500
46,80,454000,500
62,80,454500,500
58,80,454500,500
53,80,455000,500
46,80,455500,1000
34,80,455500,1000
46,80,456500,500
53,80,457000,500
58,80,457500,500
62,80,458000,500
58,80,458500,500
53,80,459000,500
46,80,459500,500
32,80,460000,1500
44,80,460000,1500
48,80,461500,1500
51,80,463000,1000
44,80,464000,500
32,80,464000,500
58,80,464500,500
56,80,465000,500
55,80,465500,500
53,80,466000,500
51,80,466500,500
50,80,467000,500
51,80,467500,500
51,80,468000,1500
39,80,468000,1500
62,80,469500,1500
58,80,471000,1000
51,80,472000,500
39,80,472000,500
67,80,472500,500
65,80,473000,500
63,80,473500,500
62,80,474000,500
60,80,474500,500
58,80,475000,500
56,80,475500,500
53,80,476000,1500
41,80,476000,1500
56,80,477500,1500
60,80,479000,1000
43,80,480000,500
55,80,480000,500
50,80,480500,500
55,80,481000,500
59,80,481500,500
59,80,482000,500
47,80,482000,500
55,80,482500,500
59,80,483000,500
62,80,483500,500
48,80,484000,500
36,80,484000,500
60,80,484500,500
55,80,485000,500
51,80,485500,500
48,80,486000,500
43,80,486500,500
39,80,487000,500
36,80,487500,500
34,80,488000,500
46,80,488000,500
46,80,488500,500
49,80,489000,500
53,80,489000,500
56,80,489000,500
51,80,489500,1000
39,80,489500,1000
51,80,490500,500
58,80,491000,500
61,80,491000,500
55,80,491000,500
51,80,491500,500
44,80,492000,500
56,80,492000,500
51,80,492500,500
56,80,493000,500
44,80,493000,500
51,80,493500,500
56,80,494000,500
44,80,494000,500
51,80,494500,500
56,80,495000,500
44,80,495000,500
51,80,495500,500
56,80,496000,500
44,80,496000,500
51,80,496500,500
44,80,497000,500
56,80,497000,500
51,80,497500,500
44,80,498000,500
56,80,498000,500
51,80,498500,500
44,80,499000,500
56,80,499000,500
51,80,499500,500
51,80,500000,500
39,80,500000,500
46,80,500500,500
39,80,501000,500
51,80,501000,500
46,80,501500,500
39,80,502000,500
51,80,502000,500
46,80,502500,500
39,80,503000,500
51,80,503000,500
46,80,503500,500
39,80,504000,500
51,80,504000,500
46,80,504500,500
51,80,505000,500
39,80,505000,500
46,80,505500,500
51,80,506000,500
39,80,506000,500
46,80,506500,500
51,80,507000,500
39,80,507000,500
46,80,507500,500
29,80,508000,500
41,80,508000,500
53,80,508500,500
48,80,509000,500
43,80,509500,500
31,80,509500,500
31,80,510500,500
43,80,510500,500
44,80,511500,1000
32,80,511500,1000
56,80,512500,500
51,80,513000,500
48,80,513500,500
33,80,514000,1000
45,80,514000,1000
48,80,515000,1000
57,80,515000,1000
51,80,515000,1000
34,80,516000,500
46,80,516000,500
41,80,516500,500
46,80,517000,500
34,80,517000,500
41,80,517500,500
46,80,518000,500
34,80,518000,500
41,80,518500,500
46,80,519000,500
34,80,519000,500
41,80,519500,500
46,80,520000,500
34,80,520000,500
41,80,520500,500
34,80,521000,500
46,80,521000,500
41,80,521500,500
34,80,522000,500
46,80,522000,500
41,80,522500,500
34,80,523000,500
46,80,523000,500
41,80,523500,500
48,80,524000,1000
36,80,524000,1000
48,80,525000,500
52,80,525500,1000
55,80,525500,1000
60,80,525500,1000
36,80,526500,500
48,80,527000,500
36,80,527500,500
34,80,528000,1000
46,80,528000,1000
46,80,529000,500
58,80,529500,1000
53,80,529500,1000
50,80,529500,1000
29,80,534000,500
41,80,534000,500
31,80,534500,500
43,80,534500,500
45,80,535000,500
33,80,535000,500
34,80,535500,500
46,80,535500,500
48,80,536000,500
36,80,536000,500
50,80,536500,500
38,80,536500,500
39,80,537000,500
51,80,537000,500
34,80,540000,500
46,80,540500,500
50,80,540500,500
38,80,541000,500
46,80,541500,500
50,80,541500,500
41,80,542000,500
46,80,542500,500
50,80,542500,500
34,80,543000,500
46,80,543500,500
50,80,543500,500
33,80,544000,500
45,80,544500,500
48,80,544500,500
41,80,545000,500
45,80,545500,500
48,80,545500,500
38,80,546000,500
57,80,546500,500
54,80,546500,500
42,80,547000,500
57,80,547500,500
54,80,547500,500
43,80,548000,500
58,80,548500,500
62,80,548500,500
46,80,549000,500
58,80,549500,500
62,80,549500,500
50,80,550000,500
58,80,550500,500
62,80,550500,500
55,80,551000,500
58,80,551500,500
62,80,551500,500
41,80,552000,500
60,80,552500,500
56,80,552500,500
44,80,553000,500
60,80,553500,500
56,80,553500,500
46,80,554000,500
62,80,554500,500
58,80,554500,500
53,80,555000,500
58,80,555500,500
62,80,555500,500
39,80,556000,500
51,80,556500,500
55,80,556500,500
46,80,557000,500
55,80,557500,500
51,80,557500,500
39,80,558000,500
55,80,558500,500
51,80,558500,500
46,80,559000,500
55,80,559500,500
51,80,559500,500
38,80,560000,500
50,80,560500,500
53,80,560500,500
45,80,561000,500
50,80,561500,500
53,80,561500,500
38,80,562000,500
50,80,562500,500
53,80,562500,500
45,80,563000,500
50,80,563500,500
53,80,563500,500
36,80,564000,500
55,80,564500,500
51,80,564500,500
39,80,565000,500
55,80,565500,500
51,80,565500,500
43,80,566000,500
55,80,566500,500
51,80,566500,500
48,80,567000,500
55,80,567500,500
51,80,567500,500
29,80,568000,1000
41,80,568000,1000
31,80,569000,500
43,80,569000,500
33,80,569500,500
45,80,569500,500
34,80,570000,500
46,80,570000,500
48,80,570500,500
36,80,570500,500
38,80,571000,500
50,80,571000,500
51,80,571500,500
39,80,571500,500
34,80,572000,500
50,80,572500,500
46,80,572500,500
38,80,573000,500
50,80,573500,500
46,80,573500,500
41,80,574000,500
50,80,574500,500
46,80,574500,500
34,80,575000,500
50,80,575500,500
46,80,575500,500
33,80,576000,500
45,80,576500,500
48,80,576500,500
41,80,577000,500
45,80,577500,500
48,80,577500,500
38,80,578000,500
57,80,578500,500
54,80,578500,500
42,80,579000,500
57,80,579500,500
54,80,579500,500
43,80,580000,500
58,80,580500,500
62,80,580500,500
46,80,581000,500
58,80,581500,500
62,80,581500,500
50,80,582000,500
58,80,582500,500
62,80,582500,500
55,80,583000,500
58,80,583500,500
62,80,583500,500
41,80,584000,500
60,80,584500,500
56,80,584500,500
44,80,585000,500
60,80,585500,500
56,80,585500,500
46,80,586000,500
58,80,586500,500
62,80,586500,500
53,80,587000,500
58,80,587500,500
62,80,587500,500
39,80,588000,500
55,80,588500,500
51,80,588500,500
46,80,589000,500
55,80,589500,500
51,80,589500,500
39,80,590000,500
55,80,590500,500
51,80,590500,500
46,80,591000,500
55,80,591500,500
51,80,591500,500
38,80,592000,500
53,80,592500,500
50,80,592500,500
45,80,593000,500
53,80,593500,500
50,80,593500,500
38,80,594000,500
53,80,594500,500
50,80,594500,500
45,80,595000,500
53,80,595500,500
50,80,595500,500
36,80,596000,500
55,80,596500,500
51,80,596500,500
39,80,597000,500
55,80,597500,500
51,80,597500,500
43,80,598000,500
55,80,598500,500
51,80,598500,500
48,80,599000,500
55,80,599500,500
51,80,599500,500
41,80,600000,500
53,80,600500,500
57,80,600500,500
48,80,601000,500
53,80,601500,500
57,80,601500,500
41,80,602000,500
53,80,602500,500
57,80,602500,500
48,80,603000,500
53,80,603500,500
57,80,603500,500
39,80,604000,500
55,80,604500,500
51,80,604500,500
46,80,605000,500
55,80,605500,500
51,80,605500,500
39,80,606000,500
55,80,606500,500
51,80,606500,500
46,80,607000,500
55,80,607500,500
51,80,607500,500
41,80,608000,500
53,80,608500,500
57,80,608500,500
48,80,609000,500
53,80,609500,500
57,80,609500,500
41,80,610000,500
53,80,610500,500
57,80,610500,500
48,80,611000,500
53,80,611500,500
57,80,611500,500
38,80,612000,500
53,80,612500,500
50,80,612500,500
45,80,613000,500
53,80,613500,500
50,80,613500,500
38,80,614000,500
53,80,614500,500
50,80,614500,500
45,80,615000,500
53,80,615500,500
50,80,615500,500
43,80,616000,500
58,80,616500,500
62,80,616500,500
46,80,617000,500
58,80,617500,500
62,80,617500,500
50,80,618000,500
58,80,618500,500
62,80,618500,500
55,80,619000,500
58,80,619500,500
62,80,619500,500
36,80,620000,500
55,80,620500,500
51,80,620500,500
39,80,621000,500
55,80,621500,500
51,80,621500,500
43,80,622000,500
55,80,622500,500
51,80,622500,500
48,80,623000,500
55,80,623500,500
51,80,623500,500
41,80,624000,500
53,80,624500,500
57,80,624500,500
48,80,625000,500
53,80,625500,500
57,80,625500,500
41,80,626000,500
57,80,626500,500
53,80,626500,500
48,80,627000,500
57,80,627500,500
53,80,627500,500
46,80,628000,500
62,80,628500,500
58,80,628500,500
53,80,629000,500
62,80,629500,500
58,80,629500,500
46,80,630000,500
62,80,630500,500
58,80,630500,500
53,80,631000,500
34,80,631500,2500
46,80,631500,2500
