note,velocity,position,duration
69,110,3840,378
73,110,3840,441
78,110,3840,488
92,110,5040,75
93,110,5160,151
92,110,5280,218
88,110,5520,135
85,110,5760,197
81,110,6000,207
80,110,6240,213
76,110,6480,158
73,110,6720,190
69,110,6960,238
68,110,7200,208
64,110,7440,55
68,110,7680,474
71,110,7680,510
78,110,7680,512
92,110,8880,80
93,110,9000,148
92,110,9120,212
88,110,9360,132
85,110,9600,182
81,110,9840,176
80,110,10080,199
76,110,10320,167
73,110,10560,184
69,110,10800,224
68,110,11040,218
64,110,11280,55
78,110,11520,432
69,110,11520,396
73,110,11520,430
92,110,12720,58
93,110,12840,138
92,110,12960,217
88,110,13200,118
85,110,13440,179
81,110,13680,164
80,110,13920,197
76,110,14160,165
73,110,14400,214
69,110,14640,244
68,110,14880,218
64,110,15120,50
68,110,15360,388
78,110,15360,396
71,110,15360,399
92,110,16560,61
93,110,16680,147
92,110,16800,214
88,110,17040,122
85,110,17280,216
81,110,17520,202
80,110,17760,156
76,110,18000,174
73,110,18240,190
69,110,18480,162
68,110,18720,221
64,110,18960,55
78,110,19200,277
85,110,19440,220
90,110,19680,185
85,110,19920,103
78,110,20160,246
83,110,20400,284
85,110,20640,234
88,110,20880,185
78,110,21120,224
85,110,21360,211
90,110,21600,246
85,110,21840,249
78,110,22080,237
83,110,22320,284
85,110,22560,245
88,110,22800,194
78,110,23040,277
85,110,23280,220
90,110,23520,237
85,110,23760,221
78,110,24000,242
83,110,24240,289
85,110,24480,230
88,110,24720,195
78,110,24960,240
85,110,25200,205
90,110,25440,229
85,110,25680,240
78,110,25920,227
83,110,26160,294
85,110,26400,243
88,110,26640,187
78,110,26880,262
85,110,27120,203
90,110,27360,210
85,110,27600,179
78,110,27840,240
83,110,28080,270
85,110,28320,225
88,110,28560,180
78,110,28800,228
85,110,29040,206
90,110,29280,207
85,110,29520,263
78,110,29760,241
83,110,30000,256
85,110,30240,258
88,110,30480,158
78,110,30720,248
85,110,30960,206
90,110,31200,63
85,110,31440,275
78,110,31680,234
83,110,31920,271
85,110,32160,231
88,110,32400,162
78,110,32640,236
85,110,32880,212
90,110,33120,225
85,110,33360,256
78,110,33600,236
83,110,33840,265
85,110,34080,243
88,110,34320,176
78,80,34560,251
85,80,34800,217
90,80,35040,235
85,80,35280,217
78,80,35520,223
83,80,35760,250
85,80,36000,253
88,80,36240,195
78,80,36480,234
85,80,36720,204
90,80,36960,214
85,80,37200,244
78,80,37440,235
83,80,37680,272
85,80,37920,238
88,80,38160,180
78,80,38400,263
85,80,38640,209
90,80,38880,229
85,80,39120,240
78,80,39360,222
83,80,39600,240
85,80,39840,241
88,80,40080,180
78,80,40320,237
85,80,40560,205
90,80,40800,207
85,80,41040,256
78,80,41280,246
83,80,41520,272
85,80,41760,225
88,80,42000,216
78,80,42240,264
85,80,42480,232
90,80,42720,236
85,80,42960,208
78,80,43200,223
83,80,43440,257
85,80,43680,227
88,80,43920,202
78,80,44160,235
85,80,44400,200
90,80,44640,232
85,80,44880,250
78,80,45120,224
83,80,45360,270
85,80,45600,242
88,80,45840,184
78,80,46080,258
85,80,46320,216
90,80,46560,219
85,80,46800,238
78,80,47040,225
83,80,47280,262
85,80,47520,252
88,80,47760,188
78,80,48000,231
85,80,48240,212
90,80,48480,209
85,80,48720,230
78,80,48960,239
83,80,49200,298
85,80,49440,272
88,80,49680,174
78,80,49920,262
85,80,50160,219
90,80,50400,258
85,80,50640,231
78,80,50880,239
83,80,51120,255
85,80,51360,208
88,80,51600,202
78,80,51840,249
85,80,52080,236
90,80,52320,257
85,80,52560,255
78,80,52800,236
83,80,53040,290
85,80,53280,271
88,80,53520,175
78,80,53760,268
85,80,54000,231
90,80,54240,252
85,80,54480,234
78,80,54720,223
83,80,54960,259
85,80,55200,237
88,80,55440,174
78,80,55680,234
85,80,55920,221
90,80,56160,214
85,80,56400,218
78,80,56640,225
83,80,56880,274
85,80,57120,257
88,80,57360,195
78,80,57600,261
85,80,57840,199
90,80,58080,247
85,80,58320,222
78,80,58560,233
83,80,58800,260
85,80,59040,212
88,80,59280,206
78,80,59520,231
85,80,59760,206
90,80,60000,215
85,80,60240,232
78,80,60480,227
83,80,60720,276
85,80,60960,264
88,80,61200,176
78,80,61440,254
85,80,61680,216
90,80,61920,245
85,80,62160,221
78,80,62400,222
83,80,62640,275
85,80,62880,227
88,80,63120,171
78,80,63360,240
85,80,63600,237
90,80,63840,227
85,80,64080,231
78,80,64320,261
83,80,64560,265
85,80,64800,297
88,80,65040,249
57,110,65280,180
78,80,65760,223
73,80,66000,244
66,80,66240,252
71,80,66480,269
73,80,66720,230
76,80,66960,195
66,80,67200,241
73,80,67440,206
78,80,67680,224
73,80,67920,253
66,80,68160,254
71,80,68400,282
73,80,68640,247
76,80,68880,63
61,80,69120,235
78,80,69600,191
73,80,69840,257
66,80,70080,250
71,80,70320,279
73,80,70560,238
76,80,70800,167
66,80,71040,243
73,80,71280,212
78,80,71520,223
73,80,71760,226
66,80,72000,247
71,80,72240,297
73,80,72480,216
76,80,72720,60
59,110,72960,303
78,80,73440,172
73,80,73680,226
66,80,73920,257
71,80,74160,268
73,80,74400,242
76,80,74640,164
66,80,74880,240
73,80,75120,213
78,80,75360,199
73,80,75600,249
66,80,75840,232
71,80,76080,278
73,80,76320,241
76,80,76560,56
57,110,76800,259
78,80,77280,203
73,80,77520,221
66,80,77760,247
71,80,78000,240
73,80,78240,242
76,80,78480,132
66,80,78720,224
73,80,78960,259
78,80,79200,92
69,110,79680,457
73,110,79680,440
69,110,80640,758
73,110,80640,880
81,110,82560,384
76,110,82560,424
73,110,83520,578
78,110,83520,549
73,110,84480,251
78,110,84480,256
71,110,84840,159
76,110,84840,267
73,110,85200,1185
78,110,85200,1253
76,110,87360,532
81,110,87360,499
81,110,88320,136
76,110,88320,156
73,110,88680,199
78,110,88680,233
81,110,89040,1766
76,110,89040,1959
71,110,91200,300
78,110,92160,236
85,110,92400,222
90,110,92640,234
85,110,92880,233
78,110,93120,220
83,110,93360,85
81,110,93600,211
93,110,93600,223
92,110,94080,260
80,110,94080,250
88,110,94320,266
85,110,94560,154
93,110,94800,296
81,110,94800,310
88,110,95040,332
85,110,95280,134
83,110,95520,362
95,110,95520,283
81,110,96000,381
90,110,96000,407
78,110,96000,338
86,110,96000,362
81,110,96960,162
93,110,96960,137
92,110,97920,219
83,110,97920,208
80,110,97920,189
88,110,97920,191
81,110,98400,124
93,110,98400,158
83,110,98880,134
95,110,98880,169
95,110,99360,516
83,110,99360,585
81,110,100320,141
93,110,100320,121
76,110,100800,71
88,110,100800,120
83,110,101280,73
95,110,101280,67
81,110,101520,360
93,110,101520,280
78,110,102240,61
90,110,102240,130
97,110,102720,101
85,110,102720,93
83,110,103200,679
95,110,103200,579
78,110,104160,113
90,110,104160,139
85,110,104640,123
97,110,104640,82
95,110,105120,540
83,110,105120,619
88,110,106080,179
76,110,106080,142
76,110,106560,96
88,110,106560,154
95,110,107040,131
83,110,107040,124
93,110,107520,209
81,110,107520,221
80,110,108000,164
92,110,108000,152
81,110,108480,124
93,110,108480,173
83,110,108960,60
95,110,108960,97
97,110,109200,117
85,110,109200,103
81,110,109920,114
93,110,109920,140
92,110,110400,62
80,110,110400,116
88,110,110880,122
76,110,110880,75
81,110,111360,293
78,110,111360,273
86,110,111360,299
90,110,111360,333
93,110,112320,155
81,110,112320,156
92,110,113280,249
80,110,113280,191
83,110,113280,215
88,110,113280,181
81,110,113760,109
93,110,113760,121
95,110,114240,150
83,110,114240,124
83,110,114720,392
95,110,114720,407
97,110,115680,108
85,110,115680,123
95,110,116160,138
83,110,116160,123
93,110,116640,700
81,110,116640,696
93,110,117600,143
81,110,117600,96
92,110,118080,76
80,110,118080,104
88,110,118560,133
76,110,118560,58
78,110,119040,116
90,110,119040,188
97,110,119520,118
85,110,119520,120
90,110,120720,64
78,110,120720,72
76,110,120960,122
88,110,120960,143
95,110,121440,113
83,110,121440,123
92,110,122400,80
80,110,122400,74
93,110,122640,164
81,110,122640,242
62,110,123120,196
64,110,123360,254
66,110,123600,283
68,110,123840,149
69,110,124080,244
71,110,124320,310
73,110,124560,202
74,110,124800,233
76,110,125040,259
78,110,125280,280
80,110,125520,163
81,110,125760,248
83,110,126000,306
85,110,126240,253
86,110,126480,272
88,110,126720,296
83,110,126960,274
80,110,127200,241
76,110,127440,143
71,110,127680,241
68,110,127920,209
64,110,128160,146
59,110,128400,161
56,110,128640,2022
52,110,128640,1965
90,110,130560,161
90,110,130800,302
85,110,131040,239
88,110,131280,305
78,110,131520,311
85,110,131760,294
88,110,132000,266
78,110,132240,255
90,110,132480,158
90,110,132720,270
85,110,132960,257
88,110,133200,276
78,110,133440,304
85,110,133680,306
88,110,133920,277
78,110,134160,291
90,110,134400,161
90,110,134640,302
85,110,134880,239
88,110,135120,305
78,110,135360,311
85,110,135600,294
88,110,135840,266
78,110,136080,255
90,110,136320,158
90,110,136560,270
85,110,136800,257
88,110,137040,276
78,110,137280,304
85,110,137520,306
88,110,137760,277
78,110,138000,291
90,110,138240,161
90,110,138480,302
85,110,138720,239
88,110,138960,305
78,110,139200,311
85,110,139440,294
88,110,139680,266
78,110,139920,255
90,110,140160,158
90,110,140400,270
85,110,140640,257
88,110,140880,276
78,110,141120,304
85,110,141360,306
88,110,141600,277
78,110,141840,291
90,110,142080,161
90,110,142320,302
85,110,142560,239
88,110,142800,305
78,110,143040,311
85,110,143280,294
88,110,143520,266
78,110,143760,255
90,110,144000,158
90,110,144240,270
85,110,144480,257
88,110,144720,276
78,110,144960,304
85,110,145200,306
88,110,145440,277
78,110,145680,291
90,110,145920,161
90,110,146160,302
85,110,146400,239
88,110,146640,305
78,110,146880,311
85,110,147120,294
88,110,147360,266
78,110,147600,255
90,110,147840,158
90,110,148080,270
85,110,148320,257
88,110,148560,276
78,110,148800,304
85,110,149040,306
88,110,149280,277
78,110,149520,291
90,110,149760,161
90,110,150000,302
85,110,150240,239
88,110,150480,305
78,110,150720,311
85,110,150960,294
88,110,151200,266
78,110,151440,255
90,110,151680,158
90,110,151920,270
85,110,152160,257
88,110,152400,276
78,110,152640,304
85,110,152880,306
88,110,153120,277
78,110,153360,291
90,110,153600,161
90,110,153840,302
85,110,154080,239
88,110,154320,305
78,110,154560,311
85,110,154800,294
88,110,155040,266
78,110,155280,255
90,110,155520,158
90,110,155760,270
85,110,156000,257
88,110,156240,276
78,110,156480,304
85,110,156720,306
88,110,156960,277
78,110,157200,291
90,110,157440,161
90,110,157680,302
85,110,157920,239
88,110,158160,305
78,110,158400,311
85,110,158640,294
88,110,158880,266
78,110,159120,255
90,110,159360,158
90,110,159600,270
85,110,159840,257
88,110,160080,276
78,110,160320,304
85,110,160560,306
88,110,160800,277
78,110,161040,291
88,110,161280,544
81,110,161280,640
76,110,161280,658
80,110,162720,155
68,110,162720,156
81,110,163200,1165
69,110,163200,1167
69,110,164640,102
81,110,164640,127
71,110,164880,79
83,110,164880,90
73,110,165120,280
85,110,165120,262
74,110,165600,162
86,110,165600,155
85,110,166080,135
73,110,166080,167
83,110,166560,167
71,110,166560,143
69,110,167040,51
81,110,167040,149
92,110,167520,296
80,110,167520,364
85,110,168480,54
73,110,168480,62
83,110,168720,54
71,110,168720,52
81,110,168977,740
88,110,168977,631
76,110,168977,721
80,110,170400,148
68,110,170400,165
81,110,170880,1195
69,110,170880,1203
69,110,172320,78
81,110,172320,108
71,110,172560,87
83,110,172560,81
73,110,172800,286
85,110,172800,275
71,110,173280,117
83,110,173280,100
69,110,173520,185
81,110,173520,148
80,110,174000,81
68,110,174000,85
69,110,174240,1691
81,110,174240,1788
76,110,176640,743
88,110,176640,620
81,110,176640,737
68,110,178080,115
80,110,178080,137
69,110,178320,1416
81,110,178320,1394
69,110,180000,86
81,110,180000,65
83,110,180240,49
71,110,180240,82
85,110,180480,320
73,110,180480,296
86,110,180960,186
74,110,180960,192
85,110,181440,164
73,110,181440,176
71,110,181920,129
83,110,181920,151
81,110,182400,142
69,110,182400,67
92,110,182880,546
80,110,182880,539
93,110,183840,121
81,110,183840,118
88,110,184320,1091
76,110,184320,1106
74,110,185760,67
86,110,185760,48
73,110,186000,103
85,110,186000,45
71,110,186240,157
83,110,186240,140
69,110,186720,769
81,110,186720,749
69,110,187680,113
81,110,187680,117
71,110,187920,97
83,110,187920,89
73,110,188160,324
85,110,188160,322
86,110,188640,72
74,110,188640,106
85,110,188880,131
73,110,188880,177
83,110,189360,84
71,110,189360,113
81,110,189600,2550
69,110,189600,2542
57,110,192000,180
78,80,192480,223
73,80,192720,244
66,80,192960,252
71,80,193200,269
73,80,193440,230
76,80,193680,195
66,80,193920,241
73,80,194160,206
78,80,194400,224
73,80,194640,253
66,80,194880,254
71,80,195120,282
73,80,195360,247
76,80,195600,63
61,110,195840,235
78,80,196320,191
73,80,196560,257
66,80,196800,250
71,80,197040,279
73,80,197280,238
76,80,197520,167
66,80,197760,243
73,80,198000,212
78,80,198240,223
73,80,198480,226
66,80,198720,247
71,80,198960,297
73,80,199200,216
76,80,199440,60
59,110,199680,303
78,80,200160,172
73,80,200400,226
66,80,200640,257
71,80,200880,268
73,80,201120,242
76,80,201360,164
66,80,201600,240
73,80,201840,213
78,80,202080,199
73,80,202320,249
66,80,202560,232
71,80,202800,278
73,80,203040,241
76,80,203280,56
57,110,203520,259
78,80,204000,203
73,80,204240,221
66,80,204480,247
71,80,204720,240
73,80,204960,242
76,80,205200,132
66,80,205440,224
73,80,205680,259
78,80,205920,92
69,110,206400,457
73,110,206400,440
69,110,207360,758
73,110,207360,880
81,110,209280,384
76,110,209280,424
73,110,210240,578
78,110,210240,549
73,110,211200,251
78,110,211200,256
71,110,211560,159
76,110,211560,267
73,110,211920,1185
78,110,211920,1253
76,110,214080,532
81,110,214080,499
81,110,215040,136
76,110,215040,156
73,110,215400,199
78,110,215400,233
81,110,215760,1766
76,110,215760,1959
71,110,217920,300
78,110,218880,236
85,110,219120,222
90,110,219360,234
85,110,219600,233
78,110,219840,220
83,110,220080,85
81,110,220320,211
69,110,220320,223
80,110,220800,260
68,110,220800,250
81,110,221520,296
69,110,221520,310
83,110,222240,283
71,110,222240,362
74,110,222717,362
69,110,222720,381
78,110,222720,407
66,110,222720,338
69,110,223680,162
81,110,223680,137
80,110,224640,219
71,110,224640,208
68,110,224640,189
76,110,224640,191
69,110,225120,124
81,110,225120,158
71,110,225600,134
83,110,225600,169
83,110,226080,516
71,110,226080,585
69,110,227040,141
81,110,227040,121
64,110,227520,71
76,110,227520,120
71,110,228000,73
83,110,228000,67
69,110,228240,360
81,110,228240,280
66,110,228960,61
78,110,228960,130
85,110,229440,101
73,110,229440,93
71,110,229920,679
83,110,229920,579
66,110,230880,113
78,110,230880,139
73,110,231360,123
85,110,231360,82
83,110,231840,540
71,110,231840,619
76,110,232800,179
64,110,232800,142
64,110,233280,96
76,110,233280,154
83,110,233760,131
71,110,233760,124
81,110,234240,209
69,110,234240,221
68,110,234720,164
80,110,234720,152
69,110,235200,124
81,110,235200,173
71,110,235680,60
83,110,235680,97
85,110,235920,117
73,110,235920,103
69,110,236640,114
81,110,236640,140
80,110,237120,62
68,110,237120,116
76,110,237600,122
64,110,237600,75
69,110,238080,293
66,110,238080,273
74,110,238080,299
78,110,238080,333
81,110,239040,155
69,110,239040,156
80,110,240000,249
68,110,240000,191
71,110,240000,215
76,110,240000,181
69,110,240480,109
81,110,240480,121
83,110,240960,150
71,110,240960,124
71,110,241440,392
83,110,241440,407
85,110,242400,108
73,110,242400,123
83,110,242880,138
71,110,242880,123
81,110,243360,700
69,110,243360,696
81,110,244320,143
69,110,244320,96
80,110,244800,76
68,110,244800,104
76,110,245280,133
64,110,245280,58
66,110,245760,116
78,110,245760,188
85,110,246240,118
73,110,246240,120
78,110,247440,64
66,110,247440,72
64,110,247680,122
76,110,247680,143
83,110,248160,113
71,110,248160,123
80,110,249120,80
68,110,249120,74
81,110,249360,2000
69,110,249360,2000
54,110,250200,110
57,110,250320,157
61,110,250440,110
57,110,250680,94
62,110,250800,133
66,110,250920,67
62,110,251160,127
66,110,251280,67
69,110,251400,121
66,110,251640,84
69,110,251760,162
73,110,251880,89
69,110,252120,134
74,110,252240,154
78,110,252360,61
74,110,252600,158
78,110,252720,81
81,110,252840,133
78,110,253080,146
81,110,253200,75
85,110,253320,190
88,110,253440,480
83,110,253440,480
80,110,253440,480
88,110,253920,181
83,110,254060,162
80,110,254220,153
76,110,254400,73
71,110,254560,159
68,110,254720,162
64,110,254880,69
59,110,255020,144
56,110,255180,169
52,110,255360,2011
81,110,257280,520
69,110,257280,643
69,110,258240,156
81,110,258240,163
68,110,259200,236
80,110,259200,158
64,110,259680,277
76,110,259680,307
61,110,260640,55
73,110,260640,67
64,110,260880,48
76,110,260880,84
69,110,261120,112
81,110,261120,109
69,110,261600,148
81,110,261600,132
69,110,262080,117
81,110,262080,156
83,110,262560,129
71,110,262560,144
69,110,263040,108
81,110,263040,97
64,110,263520,634
76,110,263520,376
61,110,264480,222
73,110,264480,211
62,110,264960,139
74,110,264960,125
62,110,265440,104
74,110,265440,104
61,110,265680,79
73,110,265680,59
62,110,265920,57
74,110,265920,42
64,110,266160,82
76,110,266160,76
69,110,266400,606
81,110,266400,624
71,110,267360,117
83,110,267360,66
69,110,267600,405
81,110,267600,314
76,110,268320,118
64,110,268320,66
69,110,268560,71
81,110,268560,68
71,110,268792,329
83,110,268800,238
81,110,269520,300
69,110,269520,351
80,110,270240,205
68,110,270240,245
80,110,270720,167
68,110,270720,161
69,110,271200,47
81,110,271200,57
71,110,271440,598
83,110,271440,236
69,110,273600,156
81,110,273600,163
68,110,274560,236
80,110,274560,158
64,110,275040,277
76,110,275040,307
61,110,276000,55
73,110,276000,67
64,110,276240,48
76,110,276240,84
69,110,276480,112
81,110,276480,109
69,110,276960,148
81,110,276988,132
81,110,277440,156
69,110,277440,117
71,110,277920,144
83,110,277920,129
85,110,278400,97
73,110,278400,108
76,110,278880,376
64,110,278880,634
64,110,279840,55
76,110,279840,67
66,110,280080,48
78,110,280080,84
69,110,280320,283
81,110,280320,289
81,110,280800,134
69,110,280800,119
66,110,281040,88
78,110,281040,49
64,110,281280,119
76,110,281280,118
66,110,281760,1525
78,110,281760,1495
64,110,283680,86
76,110,283680,107
66,110,283920,86
78,110,283920,62
69,110,284160,119
81,110,284160,106
69,110,284640,87
81,110,284640,52
66,110,284880,67
78,110,284880,48
64,110,285120,107
76,110,285120,118
71,110,285600,351
83,110,285600,470
69,110,286560,1533
81,110,286560,1533
81,110,289440,173
69,110,289440,179
68,110,289920,131
80,110,289920,123
81,110,290640,232
69,110,290640,146
71,110,291360,582
83,110,291360,591
69,110,291840,381
78,110,291840,407
66,110,291840,338
74,110,291840,362
69,110,292800,162
81,110,292800,137
80,110,293760,219
71,110,293760,208
68,110,293760,189
76,110,293760,191
69,110,294240,124
81,110,294240,158
71,110,294720,134
83,110,294720,169
83,110,295200,516
71,110,295200,585
69,110,296160,141
81,110,296160,121
64,110,296640,71
76,110,296640,120
71,110,297120,73
83,110,297120,67
69,110,297360,360
81,110,297360,280
66,110,298080,61
78,110,298080,130
85,110,298560,101
73,110,298560,93
71,110,299040,679
83,110,299040,579
66,110,300000,113
78,110,300000,139
73,110,300480,123
85,110,300480,82
83,110,300960,540
71,110,300960,619
76,110,301920,179
64,110,301920,142
76,110,302413,154
64,110,302413,96
83,110,302880,131
71,110,302880,124
69,110,303360,221
81,110,303360,209
80,110,303840,152
68,110,303840,164
81,110,304312,173
69,110,304312,124
71,110,304800,60
83,110,304800,97
85,110,305040,117
73,110,305040,103
69,110,305760,114
81,110,305760,140
80,110,306240,62
68,110,306240,116
76,110,306720,122
64,110,306720,75
69,110,307200,293
74,110,307200,299
78,110,307200,333
66,110,307200,273
81,110,308160,155
69,110,308160,156
76,110,309120,181
68,110,309120,191
80,110,309120,249
71,110,309120,215
69,110,309600,109
81,110,309600,121
83,110,310080,150
71,110,310080,124
71,110,310560,392
83,110,310560,407
85,110,311520,108
73,110,311520,123
83,110,312000,138
71,110,312000,123
81,110,312480,700
69,110,312480,696
81,110,313440,143
69,110,313440,96
80,110,313920,76
68,110,313920,104
76,110,314400,133
64,110,314400,58
66,110,314880,116
78,110,314880,188
85,110,315353,118
73,110,315360,120
78,110,316560,64
66,110,316560,72
76,110,316800,143
64,110,316813,122
71,110,317280,123
83,110,317280,113
80,110,318240,80
68,110,318240,74
81,110,318480,2000
69,110,318480,2000
54,110,319320,110
57,110,319440,157
61,110,319560,110
57,110,319800,94
62,110,319920,133
66,110,320040,67
62,110,320280,127
66,110,320400,67
69,110,320520,121
66,110,320760,84
69,110,320880,162
73,110,321000,89
69,110,321240,134
74,110,321360,154
78,110,321480,61
74,110,321720,158
78,110,321840,81
81,110,321960,133
78,110,322200,146
81,110,322320,75
85,110,322440,190
88,110,322560,480
83,110,322560,480
80,110,322560,480
88,110,323068,181
83,110,323188,162
80,110,323308,153
76,110,323520,73
71,110,323680,159
68,110,323840,162
64,110,324000,69
59,110,324140,144
56,110,324300,169
52,110,324480,2011
73,110,326400,250
69,110,326400,181
78,110,327360,119
90,110,327360,112
69,110,327840,226
73,110,328080,66
78,110,328320,84
90,110,328320,48
69,110,328800,194
73,110,329040,58
78,110,329280,106
90,110,329280,53
69,110,329760,158
73,110,330000,58
78,110,330240,105
90,110,330240,46
68,110,330720,193
71,110,330960,54
81,110,331200,65
93,110,331200,43
68,110,331680,182
71,110,331920,53
80,110,332160,77
92,110,332160,40
68,110,332640,144
71,110,332880,55
76,110,333120,366
88,110,333120,284
69,110,334080,183
73,110,334080,267
90,110,335040,95
78,110,335040,100
69,110,335520,182
73,110,335760,60
78,110,336000,97
90,110,336000,56
69,110,336480,174
73,110,336720,58
78,110,336960,86
90,110,336960,36
69,110,337440,148
73,110,337680,59
78,110,337920,105
90,110,337920,52
69,110,338400,177
73,110,338640,64
76,110,338880,109
88,110,338880,120
69,110,339360,161
73,110,339600,59
78,110,339840,105
90,110,339840,57
68,110,340320,152
71,110,340560,57
81,110,340800,739
93,110,340800,655
73,110,341760,250
69,110,341760,181
78,110,342720,119
90,110,342720,112
69,110,343200,226
73,110,343440,66
78,110,343680,84
90,110,343680,48
69,110,344160,194
73,110,344400,58
78,110,344640,106
90,110,344640,53
69,110,345120,158
73,110,345360,58
78,110,345600,105
90,110,345600,46
68,110,346080,193
71,110,346320,54
81,110,346560,65
93,110,346560,43
68,110,347040,182
71,110,347280,53
80,110,347520,77
92,110,347520,40
68,110,348000,144
71,110,348240,55
76,110,348480,366
88,110,348480,284
69,110,349440,183
73,110,349440,267
90,110,350400,95
78,110,350400,100
69,110,350880,182
73,110,351120,60
78,110,351360,97
90,110,351360,56
69,110,351840,174
73,110,352080,58
78,110,352320,86
90,110,352320,36
69,110,352800,148
73,110,353040,59
78,110,353280,105
90,110,353280,52
69,110,353760,177
73,110,354000,64
76,110,354240,109
88,110,354240,120
69,110,354720,161
73,110,354960,59
78,110,355200,105
90,110,355200,57
68,110,355680,152
71,110,355920,57
81,110,356160,739
93,110,356160,655
42,80,3840,151
54,80,3840,149
54,80,4560,181
57,80,4680,201
61,80,4800,433
40,80,7680,225
52,80,7680,281
52,80,8400,163
56,80,8520,188
59,80,8640,671
38,80,11520,208
50,80,11520,272
50,80,12240,173
54,80,12360,197
57,80,12480,1728
40,80,15360,234
52,80,15360,311
52,80,16080,165
56,80,16200,193
59,80,16320,2098
42,80,19200,203
54,80,19200,263
54,80,19920,174
57,80,20040,202
61,80,20184,1145
52,80,23040,264
40,80,23040,188
52,80,23760,157
56,80,23880,177
59,80,24000,1789
38,80,26880,149
50,80,26880,182
50,80,27600,170
54,80,27720,171
57,80,27840,1508
38,80,30720,195
50,80,30744,257
50,80,31440,165
54,80,31560,171
57,80,31680,1908
54,110,34560,719
64,110,34560,692
56,110,36000,446
57,110,36480,617
57,110,37920,271
59,110,38160,242
52,110,38400,491
61,110,38400,536
62,110,38880,501
61,110,39360,538
59,110,39840,524
57,110,40320,63
68,110,40800,544
61,110,41760,242
59,110,42000,254
50,110,42240,656
64,110,42240,665
56,110,43680,434
57,110,44160,754
57,110,45600,184
59,110,45840,225
50,110,46080,466
61,110,46080,532
59,110,46560,249
57,110,46800,472
56,110,47280,241
57,110,47520,531
52,110,48960,380
64,110,49920,636
54,110,49920,597
56,110,51360,482
57,110,51600,681
57,110,53280,288
59,110,53520,171
52,110,53760,435
61,110,53760,520
62,110,54240,473
61,110,54720,495
59,110,55200,536
57,110,55680,98
68,110,56160,944
69,110,57120,449
50,110,57600,449
64,110,57600,516
62,110,59040,229
61,110,59280,277
59,110,59520,558
57,110,60000,702
57,110,60960,237
59,110,61200,219
50,110,61440,417
61,110,61440,511
62,110,61920,276
61,110,62160,519
59,110,62640,237
57,110,62880,546
35,110,65280,1398
47,110,65280,1417
64,110,67200,476
61,110,68160,170
42,110,69120,315
54,110,69120,347
59,110,69600,187
61,110,70080,273
59,110,72480,196
40,110,72960,346
52,110,72960,374
57,110,73440,180
59,110,73920,172
57,110,75840,212
38,110,76800,269
50,110,76800,259
59,110,77160,149
54,110,77520,145
47,80,80640,284
54,80,80880,237
59,80,81120,237
62,80,81360,274
61,80,81600,160
59,80,81840,227
54,80,82080,254
50,80,82320,255
47,80,82560,227
54,80,82800,217
59,80,83040,219
62,80,83280,283
61,80,83520,163
59,80,83760,233
54,80,84000,224
50,80,84240,61
42,80,84480,286
49,80,84720,240
54,80,84960,87
57,80,85200,272
56,80,85440,281
54,80,85680,175
49,80,85920,252
45,80,86160,149
42,80,86400,300
49,80,86640,259
54,80,86880,152
57,80,87120,266
56,80,87360,272
54,80,87600,205
49,80,87840,268
45,80,88080,119
47,80,88320,281
54,80,88560,192
59,80,88800,202
62,80,89040,251
61,80,89280,173
59,80,89520,220
54,80,89760,223
50,80,90000,241
47,80,90240,217
54,80,90480,200
59,80,90720,242
62,80,90960,278
61,80,91200,157
59,80,91440,219
54,80,91680,215
50,80,91920,89
49,80,92160,851
61,80,92160,720
53,80,92160,805
56,80,92160,714
37,80,94080,2004
49,80,94080,2009
38,80,96000,155
50,80,96003,197
57,80,96480,462
62,80,96960,496
66,80,96960,457
57,80,97440,126
52,80,97920,261
40,80,97920,197
59,80,98400,436
68,80,98880,514
64,80,98880,524
59,80,99360,114
42,80,99840,182
54,80,99840,244
61,80,100320,470
69,80,100800,526
66,80,100800,570
61,80,101280,456
69,80,101760,320
68,80,102000,351
66,80,102240,256
61,80,102480,47
57,80,102720,241
56,80,102960,345
54,80,103200,193
49,80,103440,73
50,80,103680,241
38,80,103680,165
57,80,104160,439
66,80,104640,448
62,80,104640,503
57,80,105120,86
49,80,105600,162
37,80,105600,122
56,80,106080,467
61,80,106560,511
64,80,106560,473
56,80,107040,101
54,80,107520,146
42,80,107520,104
61,80,108000,420
66,80,108480,519
69,80,108480,478
61,80,108960,66
45,80,109440,109
57,80,109440,141
69,80,109920,238
64,80,110160,281
61,80,110400,164
57,80,110640,278
52,80,110880,246
49,80,111120,70
50,80,111360,210
38,80,111360,141
62,80,112320,485
57,80,112320,508
54,80,112320,527
50,80,112800,109
52,80,113280,305
40,80,113280,210
64,80,114240,496
59,80,114240,507
56,80,114240,536
52,80,114720,67
42,80,115200,234
54,80,115200,319
66,80,116160,494
61,80,116160,466
57,80,116160,490
54,80,116640,115
49,80,117120,318
37,80,117120,236
61,80,118080,463
56,80,118080,405
52,80,118080,467
49,80,118560,105
35,80,119040,198
47,80,119040,270
54,80,120000,505
50,80,120000,516
59,80,120000,474
47,80,120480,136
37,80,120960,235
49,80,120960,293
61,80,121920,470
56,80,121920,428
52,80,121920,470
49,80,122400,62
38,80,122880,198
50,80,122880,258
50,80,123840,206
62,80,123840,221
57,80,123840,244
54,80,123840,238
66,80,124800,236
54,80,124800,193
62,80,124800,243
57,80,124800,193
69,80,125760,159
66,80,125760,214
57,80,125760,257
62,80,125760,249
40,80,126720,992
52,80,126720,874
28,80,128640,2019
40,80,128640,2037
42,80,130560,172
54,80,130560,205
54,80,131040,61
54,80,131280,224
61,80,131520,110
66,80,131520,116
57,80,131520,130
54,80,131760,108
54,80,132000,81
54,80,132240,56
54,80,132480,203
42,80,132480,135
54,80,132960,87
54,80,133200,138
66,80,133440,108
57,80,133458,69
61,80,133458,85
54,80,133680,104
54,80,133920,78
54,80,134160,57
52,80,134400,283
40,80,134400,206
52,80,134880,58
52,80,135120,108
59,80,135360,146
56,80,135360,146
64,80,135360,119
52,80,135600,116
52,80,135840,79
52,80,136080,116
52,80,136320,253
40,80,136320,197
52,80,136800,78
52,80,137040,82
64,80,137280,109
59,80,137280,95
56,80,137280,92
52,80,137520,103
52,80,137760,73
52,80,138000,100
50,80,138240,291
38,80,138240,229
50,80,138720,74
50,80,138960,86
62,80,139200,113
54,80,139200,118
57,80,139200,90
50,80,139440,114
50,80,139680,75
50,80,139920,64
38,80,140160,282
50,80,140160,329
50,80,140640,70
50,80,140880,72
57,80,141120,98
62,80,141120,128
54,80,141120,130
50,80,141360,64
50,80,141600,69
50,80,141840,124
40,80,142080,250
52,80,142080,304
52,80,142560,63
52,80,142800,112
56,80,143040,135
59,80,143040,130
64,80,143040,92
52,80,143280,134
52,80,143520,127
52,80,143760,79
52,80,144000,312
40,80,144000,261
52,80,144480,73
52,80,144720,115
64,80,144960,118
59,80,144960,103
56,80,144960,75
52,80,145200,104
52,80,145440,69
52,80,145680,123
30,80,145920,140
42,80,146160,51
42,80,146400,55
42,80,146640,104
54,80,146880,116
49,80,146880,56
42,80,147000,74
42,80,147360,59
42,80,147600,90
30,80,147840,163
42,80,148080,67
42,80,148320,59
42,80,148560,75
54,80,148800,119
49,80,148800,94
42,80,149040,57
42,80,149280,63
42,80,149520,53
28,80,149760,161
40,80,150000,73
40,80,150240,85
40,80,150480,70
52,80,150720,79
47,80,150720,127
40,80,150960,117
40,80,151200,65
40,80,151440,106
28,80,151680,149
40,80,151920,86
40,80,152160,63
40,80,152400,92
47,80,152640,135
52,80,152640,103
40,80,152880,96
40,80,153120,71
40,80,153360,71
26,80,153600,156
38,80,153840,97
38,80,154080,75
38,80,154320,139
50,80,154560,106
45,80,154560,133
38,80,154800,73
38,80,155040,61
38,80,155280,74
26,80,155520,166
38,80,155760,105
38,80,156000,78
38,80,156240,124
45,80,156480,132
50,80,156480,88
38,80,156720,80
38,80,156960,58
38,80,157200,95
26,80,157440,169
38,80,157680,136
38,80,157920,143
38,80,158160,133
50,80,158400,93
45,80,158400,135
38,80,158640,76
38,80,158880,73
38,80,159120,69
26,80,159360,147
38,80,159600,97
38,80,159840,64
38,80,160080,135
45,80,160320,132
50,80,160320,99
38,80,160560,56
38,80,160800,59
38,80,161040,81
30,80,161280,138
42,80,161280,177
54,80,162000,372
61,80,162240,62
57,80,162240,101
54,80,162720,59
42,80,162720,50
42,80,162960,90
30,80,162960,60
54,80,163440,62
54,80,163680,574
61,80,164160,95
57,80,164160,107
54,80,164640,84
42,80,164640,109
40,80,165120,187
28,80,165120,126
52,80,165840,297
59,80,166080,80
56,80,166080,114
52,80,166560,83
40,80,166560,83
28,80,166800,56
40,80,166800,90
52,80,167280,62
52,80,167520,597
59,80,168000,91
56,80,168000,117
40,80,168480,105
52,80,168480,50
26,80,168960,146
38,80,168960,207
50,80,169680,301
57,80,169938,65
54,80,169938,114
38,80,170400,64
50,80,170400,77
26,80,170640,57
38,80,170640,90
50,80,171120,92
50,80,171360,515
57,80,171840,97
54,80,171840,130
50,80,172320,75
38,80,172320,110
26,80,172800,118
38,80,172800,181
50,80,173520,353
57,80,173760,77
54,80,173760,116
38,80,174240,68
50,80,174240,84
38,80,174480,91
26,80,174480,38
50,80,175200,113
57,80,175200,52
54,80,175200,90
40,80,175680,409
28,80,175680,367
30,80,176640,217
42,80,176640,280
54,80,177360,332
61,80,177600,62
57,80,177600,113
42,80,178080,66
54,80,178080,61
30,80,178320,118
42,80,178320,100
54,80,178800,68
54,80,179040,581
61,80,179520,111
57,80,179520,114
54,80,180000,101
42,80,180000,106
28,80,180480,159
40,80,180480,235
52,80,181080,362
59,80,181440,91
56,80,181440,117
40,80,181920,110
52,80,181920,62
40,80,182160,99
28,80,182160,76
52,80,182640,119
52,80,182880,578
59,80,183360,103
56,80,183360,114
40,80,183840,102
52,80,183840,51
26,80,184320,133
38,80,184320,197
50,80,185040,363
57,80,185280,109
54,80,185280,109
38,80,185760,106
50,80,185760,89
38,80,186000,94
26,80,186000,54
50,80,186480,87
50,80,186720,597
57,80,187200,117
54,80,187200,124
50,80,187680,53
38,80,187680,118
38,80,188160,162
26,80,188160,120
50,80,188880,338
57,80,189120,66
54,80,189120,103
50,80,189600,132
38,80,189600,98
38,80,189840,132
26,80,189840,98
50,80,190560,530
57,80,191040,542
54,80,191040,542
50,80,191520,460
35,80,192000,1398
47,80,192000,1417
64,110,193920,476
61,110,194880,170
42,80,195840,315
54,80,195840,347
59,110,196320,187
61,110,196800,273
59,110,199200,196
40,80,199680,346
52,80,199680,374
57,110,200160,180
59,110,200640,172
57,110,202560,212
38,80,203520,269
50,80,203520,259
59,110,203880,149
54,110,204240,145
47,80,207360,284
54,80,207600,237
59,80,207840,237
62,80,208080,274
61,80,208320,160
59,80,208560,227
54,80,208800,254
50,80,209040,255
47,80,209280,227
54,80,209520,217
59,80,209760,219
62,80,210000,283
61,80,210240,163
59,80,210480,233
54,80,210720,224
50,80,210960,61
42,80,211200,286
49,80,211440,240
54,80,211680,87
57,80,211920,272
56,80,212160,281
54,80,212400,175
49,80,212640,252
45,80,212880,149
42,80,213120,300
49,80,213360,259
54,80,213600,152
57,80,213840,266
56,80,214080,272
54,80,214320,205
49,80,214560,268
45,80,214800,119
47,80,215040,281
54,80,215280,192
59,80,215520,202
62,80,215760,251
61,80,216000,173
59,80,216240,220
54,80,216480,223
50,80,216720,241
47,80,216960,217
54,80,217200,200
59,80,217440,242
62,80,217680,278
61,80,217920,157
59,80,218160,219
54,80,218400,215
50,80,218640,89
49,80,218880,851
61,80,218880,720
53,80,218880,805
56,80,218880,714
37,80,220800,2004
49,80,220800,2009
38,80,222720,157
50,80,222720,187
50,80,223200,113
50,80,223440,129
54,80,223680,134
57,80,223680,131
62,80,223680,114
50,80,223920,118
50,80,224160,103
50,80,224400,85
40,80,224640,170
52,80,224640,231
52,80,225120,81
52,80,225360,118
64,80,225600,116
59,80,225600,131
56,80,225600,115
52,80,225840,140
52,80,226080,103
52,80,226320,114
54,80,226560,253
42,80,226560,206
54,80,227040,95
54,80,227280,157
66,80,227520,117
61,80,227520,150
57,80,227520,143
54,80,227760,90
54,80,228000,128
42,80,228480,110
54,80,228480,205
54,80,228960,65
54,80,229200,124
66,80,229440,107
61,80,229440,99
57,80,229440,71
54,80,229680,101
54,80,229920,80
54,80,230160,101
38,80,230400,205
50,80,230400,260
50,80,230880,87
50,80,231120,120
62,80,231360,119
57,80,231360,136
54,80,231360,123
50,80,231600,123
50,80,231840,68
50,80,232080,113
49,80,232320,135
37,80,232320,58
49,80,232800,94
49,80,233040,178
61,80,233280,130
56,80,233280,158
52,80,233280,139
49,80,233520,107
49,80,233760,67
49,80,234000,124
42,80,234240,148
54,80,234240,221
54,80,234720,53
54,80,234960,127
66,80,235200,104
61,80,235200,95
57,80,235200,86
54,80,235440,108
54,80,235680,74
54,80,235920,108
33,80,236160,145
45,80,236160,236
45,80,236640,101
45,80,236880,122
57,80,237120,109
52,80,237120,146
49,80,237120,128
45,80,237360,131
45,80,237600,119
45,80,237840,132
26,80,238080,92
38,80,238080,123
50,80,238560,170
45,80,238680,169
42,80,238800,107
26,80,239040,106
38,80,239040,141
50,80,239520,165
45,80,239640,160
42,80,239760,78
40,80,240000,136
28,80,240000,103
52,80,240480,189
47,80,240600,165
44,80,240720,88
40,80,240960,149
28,80,240960,107
52,80,241440,175
47,80,241560,144
44,80,241680,120
42,80,241920,115
30,80,241920,68
54,80,242400,148
49,80,242520,184
45,80,242640,88
30,80,242880,90
42,80,242880,126
54,80,243360,135
49,80,243480,170
45,80,243600,74
37,80,243840,128
25,80,243840,51
49,80,244320,105
44,80,244440,161
40,80,244560,75
25,80,244800,52
37,80,244800,105
49,80,245280,123
44,80,245400,157
40,80,245520,65
35,80,245760,116
23,80,245760,46
47,80,246240,117
42,80,246360,137
38,80,246480,85
35,80,246720,111
23,80,246720,67
47,80,247200,147
42,80,247200,172
38,80,247440,116
37,80,247680,109
25,80,247680,47
49,80,248160,128
44,80,248160,151
40,80,248400,64
25,80,248640,54
37,80,248640,98
49,80,249120,105
44,80,249120,144
40,80,249240,56
26,80,249600,103
38,80,249600,65
50,80,250080,57
54,80,250560,69
57,80,251040,67
62,80,251520,77
66,80,252000,71
69,80,252480,64
74,80,252960,53
40,80,253459,414
28,80,253459,482
28,80,255360,2050
40,80,255360,2051
30,80,257280,83
42,80,257280,119
54,80,258000,242
66,80,258240,172
61,80,258480,311
57,80,258720,241
54,80,258960,48
28,80,259200,74
40,80,259200,105
52,80,259920,227
64,80,260160,148
59,80,260400,270
56,80,260640,267
52,80,260880,43
38,80,261120,81
26,80,261120,34
50,80,261840,265
62,80,262080,198
57,80,262320,312
54,80,262560,231
50,80,262800,43
37,80,263040,86
25,80,263040,31
49,80,263760,198
61,80,264000,165
56,80,264240,310
52,80,264480,238
49,80,264720,46
35,80,264960,78
23,80,264960,47
47,80,265680,199
59,80,265920,198
54,80,266160,335
50,80,266400,225
47,80,266520,59
25,80,266880,40
37,80,266880,82
49,80,267600,236
61,80,267840,190
61,80,267840,190
56,80,268080,332
52,80,268320,231
49,80,268560,93
38,80,268800,79
26,80,268800,30
50,80,269520,257
62,80,269760,187
62,80,269760,187
57,80,270000,341
54,80,270240,259
50,80,270480,63
40,80,270720,87
28,80,270720,39
52,80,271440,229
64,80,271680,147
64,80,271680,147
59,80,271920,338
56,80,272160,247
52,80,272400,50
30,80,272640,74
42,80,272640,105
54,80,273360,242
66,80,273600,172
61,80,273840,311
57,80,274080,241
54,80,274320,48
28,80,274560,74
40,80,274560,105
52,80,275280,227
64,80,275520,148
59,80,275760,270
56,80,276000,267
52,80,276240,43
38,80,276480,81
26,80,276480,34
50,80,277200,265
62,80,277440,198
57,80,277680,312
54,80,277920,231
50,80,278160,43
37,80,278400,86
25,80,278400,31
49,80,279120,198
61,80,279360,165
56,80,279600,310
52,80,279840,238
49,80,280080,46
35,80,280320,78
23,80,280320,47
47,80,281040,199
59,80,281280,198
54,80,281520,335
50,80,281760,225
47,80,282000,59
25,80,282240,40
37,80,282240,82
49,80,282960,236
61,80,283200,190
56,80,283440,332
52,80,283680,231
49,80,283920,93
38,80,284160,79
26,80,284160,30
50,80,284880,257
62,80,285120,187
57,80,285360,341
54,80,285600,259
50,80,285840,63
38,80,286080,87
26,80,286080,39
50,80,286800,229
62,80,287040,147
57,80,287280,338
54,80,287520,247
50,80,287760,50
38,80,291840,202
42,80,292000,182
45,80,292160,104
50,80,292320,130
54,80,292480,185
57,80,292640,151
62,80,292800,176
57,80,292920,165
54,80,293120,135
50,80,293280,172
45,80,293440,154
42,80,293600,161
40,80,293760,197
44,80,293920,154
47,80,294080,115
52,80,294240,141
56,80,294400,165
59,80,294560,143
64,80,294720,136
59,80,294880,153
56,80,295040,120
52,80,295200,163
47,80,295360,141
44,80,295520,111
42,80,295680,195
45,80,295840,177
49,80,296000,125
54,80,296160,82
57,80,296320,192
61,80,296480,159
66,80,296640,137
61,80,296800,190
57,80,296960,105
54,80,297120,93
49,80,297280,144
45,80,297440,176
42,80,297600,181
45,80,297760,164
49,80,297920,134
54,80,298080,62
57,80,298240,195
61,80,298400,173
66,80,298560,145
61,80,298720,176
57,80,298880,66
54,80,299040,68
49,80,299200,151
45,80,299360,111
38,80,299520,211
42,80,299680,161
45,80,299840,112
50,80,300000,126
54,80,300160,185
57,80,300320,146
62,80,300480,134
57,80,300640,136
54,80,300800,99
50,80,300960,126
45,80,301120,125
42,80,301280,112
37,80,301440,179
40,80,301600,184
44,80,301760,120
49,80,301920,81
52,80,302080,228
56,80,302240,64
61,80,302400,160
56,80,302560,186
52,80,302720,90
49,80,302880,138
44,80,303040,125
40,80,303200,51
42,80,303360,184
45,80,303520,169
49,80,303680,141
54,80,303840,87
57,80,304000,191
61,80,304160,133
66,80,304320,136
61,80,304480,159
57,80,304640,65
54,80,304800,77
49,80,304960,150
45,80,305120,97
33,80,305280,172
37,80,305440,178
40,80,305600,111
45,80,305760,123
49,80,305920,183
52,80,306080,142
57,80,306240,166
52,80,306400,153
49,80,306560,116
45,80,306720,174
40,80,306880,115
37,80,307040,79
38,80,307200,88
26,80,307200,40
62,80,307680,141
57,80,307840,141
54,80,308000,120
50,80,308160,145
45,80,308320,171
42,80,308480,111
38,80,308640,189
33,80,308800,129
30,80,308960,73
28,80,309123,126
40,80,309123,149
64,80,309600,143
59,80,309760,166
56,80,309920,125
52,80,310080,161
47,80,310240,162
44,80,310400,116
40,80,310560,202
35,80,310720,100
32,80,310880,56
30,80,311040,171
42,80,311040,205
66,80,311520,104
61,80,311680,88
57,80,311840,103
54,80,312000,109
49,80,312160,60
45,80,312320,129
42,80,312480,158
37,80,312640,73
33,80,312800,59
37,80,312960,168
25,80,312960,63
61,80,313440,151
56,80,313600,159
52,80,313760,133
49,80,313920,177
44,80,314080,162
40,80,314240,99
37,80,314400,193
32,80,314560,112
28,80,314720,101
35,80,314880,148
23,80,314880,87
59,80,315360,167
54,80,315520,159
50,80,315680,119
47,80,315840,137
42,80,316000,151
38,80,316160,78
35,80,316320,193
30,80,316480,110
26,80,316640,55
37,80,316800,174
25,80,316800,99
61,80,317280,138
56,80,317440,161
52,80,317600,64
49,80,317760,110
44,80,317920,150
40,80,318080,72
37,80,318240,160
32,80,318400,150
28,80,318560,81
26,80,318720,103
38,80,318720,65
50,80,319200,57
54,80,319698,69
57,80,320160,67
62,80,320640,77
66,80,321120,71
69,80,321600,64
74,80,322080,53
28,80,322567,482
40,80,322567,414
28,80,324480,2050
40,80,324480,2051
30,80,326400,256
42,80,326640,159
45,80,326880,293
49,80,327120,224
54,80,327360,132
57,80,327600,270
61,80,327840,148
54,80,328080,286
66,80,328320,186
61,80,328560,303
57,80,328800,137
54,80,329040,230
49,80,329280,186
45,80,329520,324
42,80,329760,213
54,80,330000,49
28,80,330240,207
40,80,330480,164
44,80,330720,246
47,80,330960,206
52,80,331200,178
56,80,331440,258
59,80,331680,268
52,80,331920,224
64,80,332160,245
59,80,332400,280
56,80,332640,186
52,80,332880,275
47,80,333120,285
44,80,333360,240
40,80,333600,212
52,80,333840,52
26,80,334080,225
38,80,334320,169
42,80,334560,256
45,80,334800,208
50,80,335040,200
54,80,335280,270
57,80,335520,256
50,80,335760,238
62,80,336000,248
57,80,336240,284
54,80,336480,196
50,80,336720,286
45,80,336960,290
42,80,337200,250
38,80,337440,223
50,80,337680,52
26,80,337920,187
38,80,338160,170
42,80,338400,265
45,80,338640,228
50,80,338880,245
45,80,339120,335
42,80,339360,243
38,80,339600,59
28,80,339840,207
40,80,340080,180
44,80,340320,280
47,80,340560,216
52,80,340800,209
47,80,341040,287
44,80,341280,242
40,80,341520,236
30,80,341760,256
42,80,342000,159
45,80,342240,293
49,80,342480,224
54,80,342720,132
57,80,342960,270
61,80,343200,148
54,80,343440,286
66,80,343680,186
61,80,343920,303
57,80,344160,137
54,80,344400,230
49,80,344640,186
45,80,344880,324
42,80,345120,213
54,80,345360,49
28,80,345600,207
40,80,345840,164
44,80,346080,246
47,80,346320,206
52,80,346560,178
56,80,346800,258
59,80,347040,268
52,80,347280,224
64,80,347520,245
59,80,347760,280
56,80,348000,186
52,80,348240,275
47,80,348480,285
44,80,348720,240
40,80,348960,212
52,80,349200,52
26,80,349440,225
38,80,349680,169
42,80,349920,256
45,80,350160,208
50,80,350400,200
54,80,350640,270
57,80,350880,256
50,80,351120,238
62,80,351360,248
57,80,351600,284
54,80,351840,196
50,80,352080,286
45,80,352320,290
42,80,352560,250
38,80,352800,223
50,80,353040,52
26,80,353280,187
38,80,353520,170
42,80,353760,265
45,80,354000,228
50,80,354240,245
45,80,354480,335
42,80,354720,243
38,80,354960,59
28,80,355200,207
40,80,355440,180
44,80,355680,280
47,80,355920,216
52,80,356160,209
47,80,356400,287
44,80,356640,242
40,80,356880,236
