note,velocity,position,duration
63,110,4561,167
66,110,6241,211
65,110,7201,207
63,110,8401,185
66,110,10081,216
65,110,11041,221
63,110,12241,180
66,110,13921,184
65,110,14881,189
67,110,19201,240
72,110,19441,498
75,110,19921,351
79,110,20161,504
75,110,20641,270
78,110,20881,462
75,110,21361,252
77,110,21601,315
75,110,21841,270
72,110,22081,213
70,110,22321,294
65,110,22561,357
67,110,23041,249
72,110,23281,537
75,110,23761,306
79,110,24001,471
75,110,24481,294
78,110,24721,477
75,110,25201,276
77,110,25441,288
75,110,25681,306
77,110,25921,378
82,110,26401,393
67,110,26881,267
72,110,27121,507
75,110,27601,309
79,110,27841,471
75,110,28321,264
78,110,28561,465
75,110,29041,258
77,110,29281,318
75,110,29521,255
72,110,29761,216
70,110,30001,300
65,110,30241,513
72,110,30721,303
70,110,30961,288
67,110,31201,537
70,110,31681,249
71,110,31921,522
72,110,32401,552
75,110,32881,321
72,110,33121,270
67,110,33361,156
67,110,33601,243
65,110,33841,177
65,110,34081,420
67,110,34561,246
72,110,34801,528
75,110,35281,333
79,110,35521,471
75,110,36001,297
78,110,36241,477
75,110,36721,282
77,110,36961,309
75,110,37201,261
72,110,37441,228
70,110,37681,285
65,110,37921,348
67,110,38401,252
72,110,38641,558
75,110,39121,321
79,110,39361,471
75,110,39841,300
78,110,40081,489
75,110,40561,291
77,110,40801,273
75,110,41041,309
77,110,41281,441
82,110,41761,438
67,110,42241,273
72,110,42481,513
75,110,42961,309
79,110,43201,480
75,110,43681,255
78,110,43921,477
75,110,44401,264
77,110,44641,312
75,110,44881,261
72,110,45121,204
70,110,45361,333
65,110,45601,480
72,110,46081,312
70,110,46321,285
67,110,46561,516
70,110,47041,234
71,110,47281,507
72,110,47761,357
72,110,48241,312
75,110,48481,471
72,110,48961,510
74,110,49441,516
72,110,49920,700
75,110,49920,700
67,110,49921,700
67,110,50640,411
72,110,50640,411
63,110,50641,411
67,110,51360,1038
72,110,51360,1038
63,110,51361,1038
70,110,52321,531
72,110,52801,456
79,110,53281,498
77,110,53761,711
72,110,54480,672
79,110,54480,672
75,110,54481,672
75,110,55200,900
72,110,55201,900
72,110,56161,282
72,110,56641,537
74,110,57121,555
75,110,57600,638
72,110,57601,638
72,110,58320,462
67,110,58321,462
72,110,59040,654
67,110,59041,654
72,110,60000,255
67,110,60001,255
72,110,60480,240
67,110,60481,240
72,110,60960,615
67,110,60961,615
71,110,61440,705
68,110,61441,705
67,110,62161,753
65,110,62881,738
72,110,63841,300
72,110,64321,555
74,110,64801,528
67,110,65280,700
75,110,65280,700
72,110,65281,700
63,110,66000,420
72,110,66000,420
67,110,66001,420
63,110,66720,1032
72,110,66720,1032
67,110,66721,1032
70,110,67681,531
72,110,68161,510
79,110,68641,525
77,110,69121,744
79,110,69840,690
75,110,69841,690
75,110,70560,833
72,110,70561,833
72,110,71521,234
72,110,72001,498
74,110,72481,549
75,110,72960,660
72,110,72960,660
67,110,72961,660
72,110,73680,655
67,110,73681,655
75,110,74400,660
72,110,74400,660
67,110,74401,660
72,110,75120,684
67,110,75121,684
75,110,75840,668
72,110,75840,668
67,110,75841,668
72,110,76560,606
68,110,76561,606
72,110,77280,258
68,110,77281,258
72,110,77760,219
68,110,77761,219
72,110,78240,450
67,110,78241,450
71,110,78720,735
67,110,78721,735
71,110,79680,842
67,110,79681,842
67,110,80641,208
72,110,80641,208
72,110,80881,555
75,110,81361,327
79,110,81601,510
75,110,82081,273
78,110,82321,477
75,110,82801,258
77,110,83041,297
75,110,83281,288
72,110,83521,213
70,110,83761,291
65,110,84001,381
67,110,84481,309
72,110,84721,525
75,110,85201,294
79,110,85441,480
75,110,85921,300
78,110,86161,483
75,110,86641,261
77,110,86881,270
75,110,87121,288
77,110,87361,441
82,110,87841,465
67,110,88321,297
72,110,88561,492
75,110,89041,285
79,110,89281,486
75,110,89761,291
78,110,90001,474
75,110,90481,249
77,110,90721,291
75,110,90961,252
72,110,91201,225
70,110,91441,294
65,110,91681,456
72,110,92161,279
70,110,92401,258
67,110,92641,474
70,110,93121,246
71,110,93361,516
72,110,93841,501
75,110,94321,315
72,110,94561,285
67,110,94801,153
67,110,95041,237
65,110,95281,156
65,110,95521,435
67,110,96001,264
72,110,96241,480
75,110,96721,297
78,110,96961,480
75,110,97441,249
77,110,97681,480
75,110,98161,234
78,110,98401,498
77,110,98881,210
75,110,99121,288
72,110,99361,222
70,110,99601,261
67,110,99841,261
72,110,100081,495
75,110,100561,291
79,110,100801,480
75,110,101281,294
78,110,101521,483
77,110,102001,288
78,110,102241,516
77,110,102721,306
75,110,102961,246
72,110,103201,240
70,110,103441,171
70,110,103681,357
82,110,103921,465
69,110,104401,237
81,110,104641,417
68,110,105121,273
80,110,105361,450
67,110,105841,258
79,110,106081,516
77,110,106561,474
74,110,107041,510
75,110,107521,261
75,110,108001,267
75,110,108481,312
75,110,108961,490
87,110,108961,490
84,110,109441,1233
96,110,109441,1233
82,110,110401,572
94,110,110401,572
77,110,110881,540
89,110,110881,540
75,110,111361,243
87,110,111361,243
87,110,111841,769
75,110,111841,769
75,110,112801,270
84,110,112801,270
80,110,112801,270
72,110,112801,270
72,110,113281,759
80,110,113281,759
75,110,113281,759
84,110,113281,759
75,110,114241,230
87,110,114241,230
75,110,114721,436
87,110,114721,436
79,110,115201,574
91,110,115201,574
80,110,115681,495
92,110,115681,495
91,110,116161,559
79,110,116161,559
80,110,116641,625
92,110,116641,625
94,110,117121,513
82,110,117121,513
77,110,117601,202
89,110,117601,202
77,110,118081,585
89,110,118081,585
82,110,118561,1174
75,110,118561,1174
87,110,118561,1174
79,110,118561,1174
87,110,120001,904
79,110,120001,904
82,110,120001,904
75,110,120001,904
82,110,120961,612
77,110,120961,612
86,110,120961,612
74,110,120961,612
74,110,121921,977
77,110,121921,977
86,110,121921,977
82,110,121921,977
75,110,122881,522
87,110,122881,522
72,110,123361,940
84,110,123361,940
75,110,124321,501
87,110,124321,501
96,110,124801,1143
84,110,124801,1143
94,110,125761,576
82,110,125761,576
77,110,126241,486
89,110,126241,486
75,110,126721,252
87,110,126721,252
80,110,126721,252
87,110,127201,854
80,110,127201,854
75,110,127201,854
72,110,128161,284
75,110,128161,284
80,110,128161,284
84,110,128161,284
72,110,128641,859
75,110,128641,859
84,110,128641,859
80,110,128641,859
75,110,129601,225
87,110,129601,225
87,110,130081,486
75,110,130081,486
79,110,130561,531
91,110,130561,531
92,110,131041,450
80,110,131041,450
79,110,131521,563
91,110,131521,563
92,110,132001,639
80,110,132001,639
94,110,132481,405
82,110,132481,405
87,110,132961,221
75,110,132961,221
87,110,133441,446
75,110,133441,446
77,110,133921,1021
89,110,133921,1021
91,110,134881,1012
79,110,134881,1012
77,110,135841,1041
89,110,135841,1041
91,110,136801,1026
79,110,136801,1026
80,110,137761,626
92,110,137761,626
91,110,138241,1368
79,110,138241,1368
87,110,139681,459
75,110,139681,459
96,110,140161,1188
84,110,140161,1188
94,110,141121,594
82,110,141121,594
77,110,141601,529
89,110,141601,529
87,110,142081,243
80,110,142081,243
75,110,142081,243
75,110,142561,747
80,110,142561,747
87,110,142561,747
72,110,143521,261
84,110,143521,261
84,110,144001,207
72,110,144001,207
84,110,144481,554
72,110,144481,554
87,110,144961,256
75,110,144961,256
87,110,145441,394
75,110,145441,394
79,110,145921,562
91,110,145921,562
80,110,146401,482
92,110,146401,482
79,110,146881,535
91,110,146881,535
92,110,147361,621
80,110,147361,621
94,110,147841,499
82,110,147841,499
77,110,148321,207
89,110,148321,207
89,110,148801,562
77,110,148801,562
75,110,149281,720
87,110,149281,720
87,110,150241,126
75,110,150241,126
75,110,150721,212
87,110,150721,212
87,110,151201,481
75,110,151201,481
86,110,151681,580
74,110,151681,580
86,110,152641,940
74,110,152641,940
87,110,153601,477
75,110,153601,477
72,110,154081,1035
84,110,154081,1035
87,110,155041,486
75,110,155041,486
84,110,155521,1134
96,110,155521,1134
94,110,156481,535
82,110,156481,535
77,110,156961,458
89,110,156961,458
87,110,157441,243
80,110,157441,243
75,110,157441,243
75,110,157921,747
80,110,157921,747
87,110,157921,747
84,110,158881,238
72,110,158881,238
72,110,159361,234
84,110,159361,234
84,110,159841,256
72,110,159841,256
72,110,160321,243
84,110,160321,243
84,110,160801,475
72,110,160801,475
71,110,161281,459
83,110,161281,459
79,110,161761,234
67,110,161761,234
79,110,162241,230
67,110,162241,230
79,110,162721,531
67,110,162721,531
77,110,163201,553
65,110,163201,553
65,110,164161,466
77,110,164161,466
79,110,164593,227
67,110,164661,227
65,110,164809,264
77,110,164809,264
79,110,165121,630
67,110,165121,630
87,110,166081,318
86,110,166321,273
84,110,166561,168
82,110,166801,267
80,110,167041,327
79,110,167281,225
77,110,167521,210
75,110,167761,342
74,110,168001,276
72,110,168241,204
70,110,168481,315
68,110,168721,360
67,110,168961,273
65,110,169201,255
63,110,169441,351
62,110,169681,306
60,110,169921,270
62,110,170161,258
63,110,170401,222
65,110,170641,285
67,110,170881,186
68,110,171361,213
80,110,171361,237
80,110,171841,192
68,110,171841,159
70,110,172321,237
82,110,172321,258
67,110,172800,240
72,110,172801,291
72,110,173040,52
75,110,173520,351
79,110,173760,504
75,110,174240,270
78,110,174480,462
75,110,174960,252
77,110,175200,315
75,110,175440,270
72,110,175680,213
70,110,175920,294
65,110,176160,357
67,110,176640,249
72,110,176880,537
75,110,177360,306
79,110,177600,471
75,110,178080,294
78,110,178320,477
75,110,178800,276
77,110,179040,288
75,110,179280,306
77,110,179520,378
82,110,180000,393
67,110,180480,267
72,110,180720,507
75,110,181200,309
79,110,181440,471
75,110,181920,264
78,110,182160,465
75,110,182640,258
77,110,182880,318
75,110,183120,255
72,110,183360,216
70,110,183600,300
65,110,183840,513
72,110,184320,303
70,110,184560,288
67,110,184800,537
70,110,185280,249
71,110,185520,522
72,110,186000,552
75,110,186480,321
72,110,186720,270
67,110,186960,156
67,110,187200,243
65,110,187440,177
65,110,187680,420
67,110,188160,246
72,110,188400,528
75,110,188880,333
79,110,189120,471
75,110,189600,297
78,110,189840,477
75,110,190320,282
77,110,190560,309
75,110,190800,261
72,110,191040,228
70,110,191280,285
65,110,191520,348
67,110,192000,252
72,110,192240,558
75,110,192720,321
79,110,192960,471
75,110,193440,300
78,110,193680,489
75,110,194160,291
77,110,194400,273
75,110,194640,309
77,110,194880,441
82,110,195360,438
67,110,195840,273
72,110,196080,513
75,110,196560,309
79,110,196800,480
75,110,197280,255
78,110,197520,477
75,110,198000,264
77,110,198240,312
75,110,198480,261
72,110,198720,204
70,110,198960,333
65,110,199200,480
79,110,199680,240
67,110,199680,240
70,110,200160,240
82,110,200160,240
84,110,200640,240
72,110,200640,240
87,110,201120,240
75,110,201120,240
84,110,201600,450
72,110,201600,450
72,110,202080,510
72,110,202560,30
74,110,203040,516
72,110,203519,700
75,110,203519,700
67,110,203520,700
67,110,204239,411
72,110,204239,411
63,110,204240,411
67,110,204959,1038
72,110,204959,1038
70,110,205920,531
72,110,206400,456
79,110,206880,498
77,110,207360,711
79,110,208079,672
75,110,208080,672
75,110,208799,900
72,110,209760,282
72,110,210240,537
74,110,210720,555
75,110,211199,638
72,110,211200,638
72,110,211919,462
67,110,211920,462
72,110,212639,200
72,110,213599,255
67,110,213600,255
72,110,214079,240
67,110,214080,240
72,110,214559,615
67,110,214560,615
71,110,215039,705
68,110,215040,705
67,110,215760,746
65,110,216480,1039
67,110,217440,229
67,110,217920,618
67,110,218880,358
70,110,219120,520
72,110,219600,378
84,110,220320,661
82,110,220800,338
79,110,221040,270
77,110,221280,242
75,110,221520,213
72,110,221760,401
67,110,222720,341
70,110,222960,523
72,110,223440,498
75,110,223920,618
74,110,224400,535
72,110,224880,236
70,110,225120,473
72,110,225600,583
74,110,226080,555
72,110,226560,658
67,110,226560,658
75,110,226560,658
67,110,227280,656
72,110,227280,656
72,110,228000,619
67,110,228000,619
75,110,228000,619
67,110,228720,629
72,110,228720,629
67,110,229440,621
72,110,229440,621
75,110,229440,621
67,110,230160,539
72,110,230160,539
75,110,231841,490
87,110,231841,490
84,110,232321,1233
96,110,232321,1233
82,110,233281,572
94,110,233281,572
77,110,233761,540
89,110,233761,540
75,110,234241,243
87,110,234241,243
87,110,234721,769
75,110,234721,769
75,110,235681,270
84,110,235681,270
80,110,235681,270
72,110,235681,270
72,110,236161,759
80,110,236161,759
75,110,236161,759
84,110,236161,759
75,110,237121,230
87,110,237121,230
75,110,237601,436
87,110,237601,436
79,110,238081,574
91,110,238081,574
80,110,238561,495
92,110,238561,495
91,110,239041,559
79,110,239041,559
80,110,239521,625
92,110,239521,625
94,110,240001,513
82,110,240001,513
77,110,240481,202
89,110,240481,202
77,110,240961,585
89,110,240961,585
82,110,241441,1174
75,110,241441,1174
87,110,241441,1174
79,110,241441,1174
87,110,242881,904
79,110,242881,904
82,110,242881,904
75,110,242881,904
82,110,243841,612
77,110,243841,612
86,110,243841,612
74,110,243841,612
74,110,244801,977
77,110,244801,977
86,110,244801,977
82,110,244801,977
75,110,245761,522
87,110,245761,522
72,110,246241,940
84,110,246241,940
75,110,247201,501
87,110,247201,501
96,110,247681,1143
84,110,247681,1143
94,110,248641,576
82,110,248641,576
77,110,249121,486
89,110,249121,486
75,110,249601,252
87,110,249601,252
80,110,249601,252
87,110,250081,854
80,110,250081,854
75,110,250081,854
72,110,251041,284
75,110,251041,284
80,110,251041,284
84,110,251041,284
72,110,251521,859
75,110,251521,859
84,110,251521,859
80,110,251521,859
75,110,252481,225
87,110,252481,225
87,110,252961,486
75,110,252961,486
79,110,253441,531
91,110,253441,531
92,110,253921,450
80,110,253921,450
79,110,254401,563
91,110,254401,563
92,110,254881,639
80,110,254881,639
94,110,255361,405
82,110,255361,405
87,110,255841,221
75,110,255841,221
87,110,256321,446
75,110,256321,446
77,110,256801,1021
89,110,256801,1021
91,110,257761,1012
79,110,257761,1012
77,110,258721,1041
89,110,258721,1041
91,110,259681,1026
79,110,259681,1026
80,110,260641,626
92,110,260641,626
91,110,261121,1368
79,110,261121,1368
87,110,262561,459
75,110,262561,459
96,110,263041,1188
84,110,263041,1188
94,110,264001,594
82,110,264001,594
77,110,264481,529
89,110,264481,529
87,110,264961,243
80,110,264961,243
75,110,264961,243
75,110,265441,747
80,110,265441,747
87,110,265441,747
72,110,266401,261
84,110,266401,261
84,110,266881,207
72,110,266881,207
84,110,267361,554
72,110,267361,554
87,110,267841,256
75,110,267841,256
87,110,268321,394
75,110,268321,394
79,110,268801,562
91,110,268801,562
80,110,269281,482
92,110,269281,482
79,110,269761,535
91,110,269761,535
92,110,270241,621
80,110,270241,621
94,110,270721,499
82,110,270721,499
77,110,271201,207
89,110,271201,207
89,110,271681,562
77,110,271681,562
75,110,272161,720
87,110,272161,720
87,110,273121,126
75,110,273121,126
75,110,273601,212
87,110,273601,212
87,110,274081,481
75,110,274081,481
86,110,274561,580
74,110,274561,580
86,110,275521,940
74,110,275521,940
87,110,276481,477
75,110,276481,477
72,110,276961,1035
84,110,276961,1035
87,110,277921,486
75,110,277921,486
84,110,278401,1134
96,110,278401,1134
94,110,279361,535
82,110,279361,535
77,110,279841,458
89,110,279841,458
87,110,280321,243
80,110,280321,243
75,110,280321,243
75,110,280801,747
80,110,280801,747
87,110,280801,747
84,110,281761,238
72,110,281761,238
72,110,282241,234
84,110,282241,234
84,110,282721,256
72,110,282721,256
72,110,283201,243
84,110,283201,243
84,110,283681,475
72,110,283681,475
71,110,284161,459
83,110,284161,459
79,110,284641,234
67,110,284641,234
79,110,285121,230
67,110,285121,230
79,110,285601,531
67,110,285601,531
77,110,286081,553
65,110,286081,553
65,110,287041,466
77,110,287041,466
79,110,287520,500
67,110,287520,500
80,110,288000,362
70,80,288240,263
72,80,288480,258
79,110,288720,303
70,80,288960,289
72,80,289200,265
77,110,289440,332
70,80,289680,265
72,80,289920,248
75,110,290160,286
70,80,290400,305
72,80,290640,241
77,110,290880,266
70,80,291120,273
72,80,291360,266
70,80,291600,242
80,110,291840,362
70,80,292080,263
72,80,292320,258
79,110,292560,303
70,80,292800,289
72,80,293040,265
77,110,293280,332
70,80,293520,265
72,80,293760,248
75,110,294000,286
70,80,294240,305
72,80,294480,241
77,110,294720,266
70,80,294960,273
72,80,295200,266
70,80,295440,242
80,110,295680,320
70,80,295920,297
72,80,296160,256
79,110,296400,339
70,80,296640,286
72,80,296880,240
77,110,297120,326
70,80,297360,282
72,80,297600,243
75,110,297840,309
70,80,298080,302
72,80,298320,221
77,110,298560,274
70,80,298800,273
72,80,299040,261
70,80,299280,252
80,110,299520,362
70,80,299760,263
72,80,300000,258
79,110,300240,303
70,80,300480,289
72,80,300720,265
77,110,300960,332
70,80,301200,265
72,80,301440,248
75,110,301680,286
70,80,301920,305
72,80,302160,241
77,110,302400,266
70,80,302640,273
72,80,302880,266
70,80,303120,242
80,110,303360,362
70,80,303600,263
72,80,303840,258
79,110,304080,303
70,80,304320,289
72,80,304560,265
77,110,304800,332
70,80,305040,265
72,80,305280,248
75,110,305520,286
70,80,305760,305
72,80,306000,241
77,110,306240,266
70,80,306480,273
72,80,306720,266
70,80,306960,242
80,110,307200,320
70,80,307440,297
72,80,307680,256
79,110,307920,339
70,80,308160,286
72,80,308400,240
77,110,308640,326
70,80,308880,282
72,80,309120,243
75,110,309360,309
70,80,309600,302
72,80,309840,221
77,110,310080,274
70,80,310320,273
72,80,310560,261
70,80,310800,252
80,110,311040,362
70,80,311280,263
72,80,311520,258
79,110,311760,303
70,80,312000,289
72,80,312240,265
77,110,312480,332
70,80,312720,265
72,80,312960,248
75,110,313200,286
70,80,313440,305
72,80,313680,241
77,110,313920,266
70,80,314160,273
72,80,314400,266
70,80,314640,242
80,110,314880,320
70,80,315120,297
72,80,315360,256
79,110,315600,339
70,80,315840,286
72,80,316080,240
80,110,316320,326
70,80,316560,282
72,80,316800,243
82,110,317040,309
70,80,317280,302
72,80,317520,221
84,110,317760,1000
72,110,318720,1610
72,110,320640,778
70,110,321360,781
67,110,322080,570
65,110,322560,557
67,110,323040,539
70,110,323520,482
67,110,324000,270
70,110,324240,525
67,110,324720,324
70,110,324960,478
71,110,325440,505
72,110,325920,1000
75,110,326880,534
72,110,327360,555
75,110,327840,594
77,110,328320,716
75,110,329040,872
72,110,329760,512
79,110,330240,244
79,110,330720,209
79,110,331200,165
79,110,331680,561
77,110,332160,786
75,110,332880,752
72,110,333600,728
72,110,334560,284
70,110,334800,285
67,110,335040,511
70,110,335520,506
72,110,336000,727
75,110,336720,756
72,110,337440,537
79,110,337920,593
77,110,338400,378
77,110,338880,345
77,110,339360,363
77,110,339840,797
75,110,340560,801
72,110,341280,1020
79,110,342240,553
77,110,342720,287
75,110,342960,313
72,110,343200,425
79,110,343680,542
77,110,344160,261
75,110,344400,304
72,110,344640,506
79,110,345120,535
77,110,345600,283
75,110,345840,325
72,110,346080,449
79,110,346560,555
77,110,347040,309
75,110,347280,293
72,110,347520,563
79,110,348000,604
77,110,348480,610
75,103,348960,645
84,110,349440,436
72,110,349440,436
72,80,349920,569
60,80,349920,569
75,80,350400,508
63,80,350400,508
79,80,350880,301
67,80,350880,301
84,110,351360,996
72,110,351360,996
86,110,352320,966
74,110,352320,966
87,110,353280,610
75,110,353280,610
77,80,353760,590
65,80,353760,590
82,80,354240,395
70,80,354240,395
86,80,354720,498
74,80,354720,498
89,110,355200,810
77,110,355200,810
87,110,355920,779
75,110,355920,779
86,110,356640,518
74,110,356640,518
84,110,357120,892
72,110,357120,892
68,80,357600,693
56,80,357600,693
72,80,358080,541
60,80,358080,541
75,80,358560,547
63,80,358560,547
80,80,359040,325
68,80,359040,325
84,110,360000,1038
72,110,360000,1038
83,110,360960,1041
71,110,360960,1041
79,110,361920,1088
67,110,361920,1088
77,110,362880,1118
65,110,362880,1118
79,110,363840,1008
67,110,363840,1008
84,110,364800,435
72,110,364800,435
72,80,365280,570
60,80,365280,570
75,80,365760,547
63,80,365760,547
79,80,366240,307
67,80,366240,307
84,110,366720,1050
72,110,366720,1050
86,110,367680,959
74,110,367680,959
87,110,368640,658
75,110,368640,658
77,80,369120,596
65,80,369120,596
82,80,369600,441
70,80,369600,441
86,80,370080,498
74,80,370080,498
89,110,370560,803
77,110,370560,803
87,110,371280,793
75,110,371280,793
86,110,372000,529
74,110,372000,529
84,110,372480,3923
72,110,372480,3923
83,110,376320,561
71,110,376320,561
91,110,376800,647
79,110,376800,647
89,110,377280,537
77,110,377280,537
87,110,377760,535
75,110,377760,535
89,110,378240,1022
77,110,378240,1022
91,110,379200,767
79,110,379200,767
91,110,380160,777
79,110,380160,777
89,110,380880,264
77,110,380880,264
87,110,381120,3000
75,110,381120,3000
84,110,384520,185
72,110,384556,185
89,110,385000,199
77,110,385036,199
87,110,385720,177
75,110,385756,177
84,110,386440,183
72,110,386476,183
82,110,386920,185
70,110,386956,185
84,110,387400,179
72,110,387436,179
84,110,388360,185
72,110,388396,185
89,110,388840,196
77,110,388876,196
87,110,389560,161
75,110,389596,161
84,110,390280,173
72,110,390316,173
82,110,390760,190
70,110,390796,190
84,110,391240,185
72,110,391276,185
84,110,392200,175
72,110,392236,175
89,110,392680,197
77,110,392716,197
87,110,393400,183
75,110,393436,183
84,110,394120,219
72,110,394156,219
82,110,394600,190
70,110,394636,190
84,110,395080,202
72,110,395116,202
84,110,396040,173
72,110,396076,173
89,110,396520,192
77,110,396556,192
87,110,397240,164
75,110,397276,164
84,110,397960,195
72,110,397996,195
82,110,398440,175
70,110,398476,175
84,110,398920,186
72,110,398956,186
84,110,399880,158
72,110,399916,158
89,110,400360,204
77,110,400396,204
87,110,401080,190
75,110,401116,190
84,110,401800,219
72,110,401836,219
82,110,402280,179
70,110,402316,179
84,110,402760,174
72,110,402796,174
84,110,403720,181
72,110,403756,181
89,110,404200,182
77,110,404236,182
87,110,404920,184
75,110,404956,184
84,110,405640,186
72,110,405676,186
82,110,406120,212
70,110,406156,212
84,110,406600,179
72,110,406636,179
84,110,407560,190
72,110,407596,190
89,110,408040,208
77,110,408076,208
87,110,408760,139
75,110,408796,139
84,110,409480,183
72,110,409516,183
82,110,409960,201
70,110,409996,201
84,110,410440,197
72,110,410476,197
91,110,411400,573
79,110,411436,573
89,110,411880,536
77,110,411916,536
87,110,412360,591
75,110,412396,591
89,110,412840,1011
77,110,412876,1011
91,110,413800,642
79,110,413836,642
91,110,414760,603
79,110,414796,603
91,110,415720,620
79,110,415756,620
91,110,416680,537
79,110,416716,537
89,110,417160,543
77,110,417196,543
87,110,417640,552
75,110,417676,552
89,110,418120,1059
77,110,418156,1059
91,110,419080,537
79,110,419116,537
89,110,419560,523
77,110,419596,523
87,110,420040,589
75,110,420076,589
89,110,420520,948
77,110,420556,948
91,110,421480,684
79,110,421516,684
91,110,422440,603
79,110,422476,603
91,110,423400,611
79,110,423436,611
91,110,424360,527
79,110,424396,527
89,110,424840,533
77,110,424876,533
87,110,425320,514
75,110,425356,514
89,110,425800,971
77,110,425836,971
91,110,426760,584
79,110,426796,584
89,110,427240,530
77,110,427276,530
87,110,427720,558
75,110,427756,558
89,110,428200,1087
77,110,428236,1087
91,110,429160,680
79,110,429196,680
91,110,430120,598
79,110,430156,598
91,110,431080,665
79,110,431116,665
91,110,432040,526
79,110,432076,526
89,110,432520,490
77,110,432556,490
87,110,433000,595
75,110,433036,595
89,110,433480,1020
77,110,433516,1020
91,110,434440,585
79,110,434476,585
89,110,434920,519
77,110,434956,519
87,110,435400,558
75,110,435436,558
89,110,435880,1011
77,110,435916,1011
91,110,436840,681
79,110,436876,681
91,110,437800,643
79,110,437836,643
91,110,438760,480
79,110,438796,480
75,110,439200,490
87,110,439200,490
84,110,439680,1233
96,110,439680,1233
82,110,440640,572
94,110,440640,572
77,110,441120,540
89,110,441120,540
75,110,441600,243
87,110,441600,243
87,110,442080,769
75,110,442080,769
75,110,443040,270
84,110,443040,270
80,110,443040,270
72,110,443040,270
72,110,443520,759
80,110,443520,759
75,110,443520,759
84,110,443520,759
75,110,444480,230
87,110,444480,230
75,110,444960,436
87,110,444960,436
79,110,445440,574
91,110,445440,574
80,110,445920,495
92,110,445920,495
91,110,446400,559
79,110,446400,559
80,110,446880,625
92,110,446880,625
94,110,447360,513
82,110,447360,513
77,110,447840,202
89,110,447840,202
77,110,448320,585
89,110,448320,585
82,110,448800,1174
75,110,448800,1174
87,110,448800,1174
79,110,448800,1174
87,110,450240,904
79,110,450240,904
82,110,450240,904
75,110,450240,904
82,110,451200,612
77,110,451200,612
86,110,451200,612
74,110,451200,612
74,110,452160,977
77,110,452160,977
86,110,452160,977
82,110,452160,977
75,110,453120,522
87,110,453120,522
72,110,453600,940
84,110,453600,940
75,110,454560,501
87,110,454560,501
96,110,455040,1143
84,110,455040,1143
94,110,456000,576
82,110,456000,576
77,110,456480,486
89,110,456480,486
75,110,456960,252
87,110,456960,252
80,110,456960,252
87,110,457440,854
80,110,457440,854
75,110,457440,854
72,110,458400,284
75,110,458400,284
80,110,458400,284
84,110,458400,284
72,110,458880,859
75,110,458880,859
84,110,458880,859
80,110,458880,859
75,110,459840,225
87,110,459840,225
87,110,460320,486
75,110,460320,486
79,110,460800,531
91,110,460800,531
92,110,461280,450
80,110,461280,450
79,110,461760,563
91,110,461760,563
92,110,462240,639
80,110,462240,639
94,110,462720,405
82,110,462720,405
87,110,463200,221
75,110,463200,221
87,110,463680,446
75,110,463680,446
77,110,464160,1021
89,110,464160,1021
91,110,465120,1012
79,110,465120,1012
77,110,466080,1041
89,110,466080,1041
91,110,467040,1026
79,110,467040,1026
80,110,468000,626
92,110,468000,626
91,110,468480,1368
79,110,468480,1368
87,110,469920,459
75,110,469920,459
96,110,470400,1188
84,110,470400,1188
94,110,471360,594
82,110,471360,594
77,110,471840,529
89,110,471840,529
87,110,472320,243
80,110,472320,243
75,110,472320,243
75,110,472800,747
80,110,472800,747
87,110,472800,747
72,110,473760,261
84,110,473760,261
84,110,474240,207
72,110,474240,207
84,110,474720,554
72,110,474720,554
87,110,475200,256
75,110,475200,256
87,110,475680,394
75,110,475680,394
79,110,476160,562
91,110,476160,562
80,110,476640,482
92,110,476640,482
79,110,477120,535
91,110,477120,535
92,110,477600,621
80,110,477600,621
94,110,478080,499
82,110,478080,499
77,110,478560,207
89,110,478560,207
89,110,479040,562
77,110,479040,562
75,110,479520,720
87,110,479520,720
87,110,480480,126
75,110,480480,126
75,110,480960,212
87,110,480960,212
87,110,481440,481
75,110,481440,481
86,110,481920,580
74,110,481920,580
86,110,482880,940
74,110,482880,940
87,110,483840,477
75,110,483840,477
72,110,484320,1035
84,110,484320,1035
87,110,485280,486
75,110,485280,486
84,110,485760,1134
96,110,485760,1134
94,110,486720,535
82,110,486720,535
77,110,487200,458
89,110,487200,458
87,110,487680,243
80,110,487680,243
75,110,487680,243
75,110,488160,747
80,110,488160,747
87,110,488160,747
84,110,489120,238
72,110,489120,238
72,110,489600,234
84,110,489600,234
84,110,490080,256
72,110,490080,256
72,110,490560,243
84,110,490560,243
84,110,491040,475
72,110,491040,475
71,110,491520,459
83,110,491520,459
79,110,492000,234
67,110,492000,234
79,110,492480,230
67,110,492480,230
79,110,492960,531
67,110,492960,531
77,110,493440,553
65,110,493440,553
65,110,494400,466
77,110,494400,466
79,110,494879,500
67,110,494879,500
87,110,495360,773
75,110,495360,773
89,110,496080,744
77,110,496080,744
91,110,496800,1027
79,110,496800,1027
89,110,497760,588
77,110,497760,588
87,110,498240,1043
75,110,498240,1043
84,110,499200,788
72,110,499200,788
82,110,499920,749
70,110,499920,749
84,110,500640,1095
72,110,500640,1095
82,110,501600,558
70,110,501600,558
84,110,502080,533
72,110,502080,533
82,110,502560,539
70,110,502560,539
87,110,503040,722
75,110,503040,722
89,110,503760,716
77,110,503760,716
91,110,504480,1004
79,110,504480,1004
89,110,505440,561
77,110,505440,561
91,110,505920,1051
79,110,505920,1051
92,110,506880,811
80,110,506880,811
91,110,507600,795
79,110,507600,795
89,110,508320,1021
77,110,508320,1021
87,110,509280,537
75,110,509280,537
86,110,509760,1019
74,110,509760,1019
87,110,510720,822
75,110,510720,822
89,110,511440,795
77,110,511440,795
91,110,512160,1087
79,110,512160,1087
89,110,513120,579
77,110,513120,579
87,110,513600,962
75,110,513600,962
79,110,514560,246
67,110,514560,246
79,110,515040,199
67,110,515040,199
79,110,515520,198
67,110,515520,198
79,110,516000,620
67,110,516000,620
82,110,516480,262
70,110,516480,262
82,110,516960,219
70,110,516960,219
82,110,517440,195
70,110,517440,195
82,110,517920,624
70,110,517920,624
84,110,518400,305
72,110,518400,305
48,110,519360,244
50,110,519600,270
51,110,519840,214
53,110,520080,242
55,110,520320,290
56,110,520560,303
58,110,520800,232
60,110,521040,256
62,110,521280,248
63,110,521520,252
62,110,521760,301
63,110,522000,250
65,110,522240,277
67,110,522480,305
68,110,522720,289
70,110,522960,220
72,110,523200,295
74,110,523440,244
75,110,523680,227
77,110,523920,321
79,110,524160,400
68,110,524640,213
80,110,524640,237
80,110,525120,192
68,110,525120,159
70,110,525600,237
82,110,525600,258
67,110,526079,240
72,110,526080,291
72,110,526319,52
75,110,526799,351
79,110,527039,504
75,110,527519,270
78,110,527759,462
75,110,528239,252
77,110,528479,315
75,110,528719,270
72,110,528959,213
70,110,529199,294
65,110,529439,357
67,110,529919,249
72,110,530159,537
75,110,530639,306
79,110,530879,471
75,110,531359,294
78,110,531599,477
75,110,532079,276
77,110,532319,288
75,110,532559,306
77,110,532799,378
82,110,533279,393
67,110,533759,267
72,110,533999,507
75,110,534479,309
79,110,534719,471
75,110,535199,264
78,110,535439,465
75,110,535919,258
77,110,536159,318
75,110,536399,255
72,110,536639,216
70,110,536879,300
65,110,537119,513
72,110,537599,303
70,110,537839,288
67,110,538079,537
70,110,538559,249
71,110,538799,522
72,110,539279,552
75,110,539759,321
72,110,539999,270
67,110,540239,156
67,110,540479,243
65,110,540719,177
65,110,540959,420
67,110,541439,246
72,110,541679,528
75,110,542159,333
79,110,542399,471
75,110,542879,297
78,110,543119,477
75,110,543599,282
77,110,543839,309
75,110,544079,261
72,110,544319,228
70,110,544559,285
65,110,544799,348
67,110,545279,252
72,110,545519,558
75,110,545999,321
79,110,546239,471
75,110,546719,300
78,110,546959,489
75,110,547439,291
77,110,547679,273
75,110,547919,309
77,110,548159,441
82,110,548639,438
67,110,549119,273
72,110,549359,513
75,110,549839,309
79,110,550079,480
75,110,550559,255
78,110,550799,477
75,110,551279,264
77,110,551519,312
75,110,551759,261
72,110,551999,204
70,110,552239,333
65,110,552479,480
72,110,552960,325
70,110,553200,263
67,110,553440,498
70,110,553920,273
71,110,554160,513
72,110,554640,503
75,110,555120,279
78,110,555360,287
75,110,555600,295
77,110,555840,277
75,110,556080,282
72,110,556320,217
70,110,556560,274
67,110,556800,299
72,110,557040,555
75,110,557520,253
79,110,557760,526
75,110,558240,279
78,110,558480,492
75,110,558960,246
77,110,559200,288
75,110,559440,297
82,110,559680,248
70,110,559680,248
84,110,560160,1500
72,110,560160,1500
24,110,562560,173
48,80,3841,732
54,80,5281,207
54,80,5761,705
53,80,6721,594
48,80,7681,738
54,80,9121,216
54,80,9601,588
53,80,10561,558
48,80,11521,582
54,80,12961,207
54,80,13441,624
53,80,14401,498
48,80,15361,945
36,80,18240,500
48,80,18240,500
36,80,19201,513
39,80,19681,549
41,80,20161,522
43,80,20641,504
46,80,21121,489
43,80,21601,552
41,80,22081,519
39,80,22561,510
32,80,23041,531
44,80,23521,459
39,80,24001,531
31,80,24481,924
43,80,25441,444
47,80,25921,534
50,80,26401,159
36,80,26881,531
39,80,27361,567
41,80,27841,483
43,80,28321,498
46,80,28801,492
43,80,29281,531
41,80,29761,489
39,80,30241,483
32,80,30721,492
44,80,31201,468
39,80,31681,507
31,80,32161,969
43,80,33121,429
47,80,33601,516
50,80,34081,150
36,80,34561,486
48,80,35041,456
51,80,35521,525
55,80,36001,465
60,80,36481,474
48,80,36961,564
55,80,37441,528
51,80,37921,159
32,80,38401,555
44,80,38881,543
39,80,39361,468
31,80,39841,870
43,80,40801,453
47,80,41281,480
50,80,41761,168
36,80,42241,513
48,80,42721,501
51,80,43201,465
55,80,43681,522
60,80,44161,435
48,80,44641,522
55,80,45121,510
51,80,45601,135
32,80,46081,570
44,80,46561,465
39,80,47041,465
31,80,47521,999
43,80,48481,435
47,80,48961,492
50,80,49441,144
36,80,49927,186
48,80,49930,225
48,80,50641,318
60,80,50881,105
55,80,50881,147
48,80,51361,135
36,80,51361,69
48,80,52321,489
60,80,52801,273
55,80,53041,279
51,80,53281,144
36,80,53761,141
48,80,53761,189
48,80,54481,321
60,80,54721,99
55,80,54721,132
36,80,55201,72
48,80,55201,138
48,80,56161,483
60,80,56641,294
55,80,56881,276
51,80,57121,162
36,80,57601,141
48,80,57601,201
48,80,58321,354
60,80,58561,141
55,80,58561,147
36,80,59041,72
48,80,59041,144
48,80,60001,468
60,80,60481,303
55,80,60721,309
51,80,60961,153
44,80,61441,144
32,80,61441,72
44,80,62161,345
56,80,62401,108
51,80,62401,102
43,80,62881,135
31,80,62881,96
43,80,63841,525
55,80,64321,273
50,80,64561,306
47,80,64801,171
36,80,65281,150
48,80,65281,207
48,80,66001,339
60,80,66241,108
55,80,66241,159
48,80,66721,156
36,80,66721,78
48,80,67681,429
60,80,68161,270
55,80,68401,264
51,80,68641,171
36,80,69121,156
48,80,69121,204
48,80,69841,336
60,80,70081,150
55,80,70081,144
48,80,70561,138
36,80,70561,81
48,80,71521,543
60,80,72001,294
55,80,72241,279
51,80,72481,165
36,80,72961,192
48,80,72961,279
48,80,73681,351
60,80,73921,132
55,80,73921,159
48,80,74401,147
36,80,74401,87
48,80,75361,510
60,80,75841,306
55,80,76081,252
51,80,76321,162
44,80,76801,144
32,80,76801,69
44,80,77281,357
56,80,77761,75
51,80,77761,75
31,80,78241,126
43,80,78241,123
43,80,78721,129
31,80,78721,144
31,80,79201,153
43,80,79201,126
31,80,79681,207
43,80,79681,261
36,80,80641,432
48,80,81121,495
51,80,81601,495
55,80,82081,543
60,80,82561,459
48,80,83041,501
55,80,83521,501
51,80,84001,153
32,80,84481,531
44,80,84961,459
39,80,85441,498
31,80,85921,948
43,80,86881,435
47,80,87361,492
50,80,87841,336
36,80,88321,504
48,80,88801,459
51,80,89281,486
55,80,89761,495
60,80,90241,513
48,80,90721,519
55,80,91201,510
51,80,91681,144
32,80,92161,525
44,80,92641,456
39,80,93121,459
31,80,93601,951
43,80,94561,426
47,80,95041,486
50,80,95521,400
48,80,96000,575
36,80,96000,506
55,80,96720,705
63,80,97440,502
50,80,97920,641
38,80,97920,646
53,80,98640,785
62,80,99360,512
58,80,99360,534
44,80,99840,592
32,80,99840,493
51,80,100560,613
60,80,101280,453
46,80,101760,672
34,80,101760,608
53,80,102480,682
62,80,103200,605
36,80,103680,580
48,80,103680,621
55,80,104400,696
63,80,105120,473
50,80,105600,721
38,80,105600,686
53,80,106320,701
62,80,107040,505
58,80,107040,477
39,80,107520,573
51,80,107520,543
51,80,108000,63
39,80,108000,93
51,80,108480,500
39,80,108480,500
51,80,108960,20
39,80,108960,20
39,80,109440,561
27,80,109440,491
44,80,111360,384
32,80,111360,320
56,80,111840,447
51,80,111840,439
44,80,112320,490
51,80,112800,468
56,80,112800,490
44,80,113280,437
51,80,113760,470
56,80,113760,473
44,80,114240,494
56,80,114720,500
51,80,114720,468
46,80,115200,467
34,80,115200,424
58,80,115680,474
53,80,115680,449
46,80,116160,481
58,80,116640,508
53,80,116640,483
46,80,117120,474
58,80,117600,496
53,80,117600,473
46,80,118080,260
58,80,118560,477
53,80,118560,430
51,80,119040,495
39,80,119040,444
63,80,119520,478
58,80,119520,469
51,80,120000,384
63,80,120480,486
58,80,120480,470
50,80,120960,452
38,80,120960,431
58,80,121440,456
62,80,121440,463
50,80,121920,483
58,80,122400,455
62,80,122400,473
48,80,122880,486
36,80,122880,483
60,80,123360,475
55,80,123360,435
48,80,123840,453
60,80,124320,514
55,80,124320,488
46,80,124800,504
34,80,124800,506
53,80,125280,488
58,80,125280,488
46,80,125760,408
53,80,126240,526
58,80,126240,499
44,80,126720,478
32,80,126720,396
51,80,127200,465
56,80,127200,483
44,80,127680,453
51,80,128160,452
56,80,128160,478
44,80,128640,453
56,80,129120,472
51,80,129120,448
44,80,129600,480
56,80,130080,475
51,80,130080,444
46,80,130560,507
34,80,130560,465
58,80,131040,509
53,80,131040,484
46,80,131520,462
58,80,132000,483
53,80,132000,458
46,80,132480,458
58,80,132960,515
53,80,132960,494
46,80,133440,342
58,80,133920,525
53,80,133920,503
43,80,134400,446
31,80,134400,432
50,80,134880,490
55,80,134880,493
43,80,135360,361
50,80,135840,400
55,80,135840,476
47,80,136320,454
35,80,136320,407
59,80,136800,452
55,80,136800,430
47,80,137280,445
59,80,137760,499
55,80,137760,481
48,80,138240,458
36,80,138240,419
60,80,138720,486
55,80,138720,461
48,80,139200,339
60,80,139680,495
55,80,139680,476
46,80,140160,527
34,80,140160,467
53,80,140640,465
58,80,140640,483
46,80,141120,409
53,80,141600,525
58,80,141600,486
44,80,142080,441
32,80,142080,330
51,80,142560,490
56,80,142560,501
44,80,143040,429
51,80,143520,456
56,80,143520,467
44,80,144000,454
56,80,144480,486
51,80,144480,458
44,80,144960,481
56,80,145440,478
51,80,145440,448
46,80,145920,466
34,80,145920,380
58,80,146400,467
53,80,146400,437
46,80,146880,425
58,80,147360,515
53,80,147360,485
46,80,147840,439
58,80,148320,476
53,80,148320,446
46,80,148800,308
53,80,149280,414
58,80,149280,460
51,80,149760,458
39,80,149760,396
58,80,150240,468
63,80,150240,474
51,80,150720,321
58,80,151200,469
63,80,151200,483
50,80,151680,460
38,80,151680,435
58,80,152160,450
62,80,152160,461
50,80,152640,429
58,80,153120,466
62,80,153120,479
48,80,153600,504
36,80,153600,457
60,80,154080,438
55,80,154080,405
48,80,154560,459
60,80,155040,513
55,80,155040,496
46,80,155520,478
34,80,155520,400
53,80,156000,467
58,80,156000,482
46,80,156480,437
58,80,156960,475
53,80,156960,521
44,80,157440,442
32,80,157440,335
51,80,157920,440
56,80,157920,454
44,80,158400,420
56,80,158880,458
51,80,158880,447
44,80,159360,368
51,80,159840,459
56,80,159840,473
44,80,160320,407
56,80,160800,486
51,80,160800,463
43,80,161280,420
31,80,161280,402
50,80,161760,442
55,80,161760,465
43,80,162240,282
50,80,162720,321
55,80,162720,432
47,80,163200,427
35,80,163200,387
55,80,163680,442
59,80,163680,458
47,80,164160,423
59,80,164640,453
55,80,164640,412
48,80,165120,4781
36,80,165120,4903
32,80,171360,189
44,80,171360,179
32,80,171840,153
44,80,171840,154
34,100,172320,300
46,100,172320,300
36,80,172800,511
39,80,173280,588
41,80,173760,502
43,80,174240,533
46,80,174720,494
43,80,175200,524
41,80,175680,560
39,80,176160,571
44,80,176640,278
44,80,177120,506
39,80,177600,517
44,80,178080,412
43,80,178560,569
41,80,179040,569
39,80,179520,501
38,80,180000,595
36,80,180480,551
39,80,180960,523
41,80,181440,524
43,80,181920,654
46,80,182400,452
43,80,182880,512
41,80,183360,560
39,80,183840,571
44,80,184320,275
44,80,184800,500
39,80,185280,491
44,80,185760,496
43,80,186240,550
44,80,186720,515
46,80,187200,551
47,80,187680,521
48,80,188160,349
48,80,188640,553
46,80,189120,499
48,80,189600,541
51,80,190080,507
48,80,190560,546
51,80,191040,518
53,80,191520,568
54,80,192000,290
54,80,192480,282
54,80,192960,248
54,80,193440,541
53,80,193920,555
51,80,194400,423
48,80,194880,492
46,80,195360,369
36,80,195840,510
39,80,196320,479
41,80,196800,497
43,80,197280,535
46,80,197760,445
43,80,198240,539
41,80,198720,515
39,80,199200,293
32,80,199680,174
44,80,199680,165
44,80,200160,157
32,80,200160,161
44,80,200640,176
32,80,200640,166
44,80,201120,173
32,80,201120,195
43,80,201600,229
31,80,201600,244
36,80,203520,247
43,80,203760,229
48,80,204000,225
51,80,204240,261
55,80,204480,243
51,80,204720,248
55,80,204960,196
60,80,205200,271
63,80,205440,196
60,80,205680,234
55,80,205920,257
51,80,206160,255
60,80,206400,217
55,80,206640,258
51,80,206880,60
36,80,207360,306
43,80,207600,250
48,80,207840,233
51,80,208080,259
55,80,208320,186
60,80,208560,232
63,80,208800,265
67,80,209040,203
72,80,209280,77
48,80,209760,58
36,80,209760,48
48,80,210240,91
36,80,210240,108
34,80,210720,179
46,80,210720,170
36,80,211200,288
43,80,211440,216
48,80,211680,251
51,80,211920,272
55,80,212160,187
60,80,212400,243
63,80,212640,266
67,80,212880,166
72,80,213120,69
48,80,213600,60
36,80,213600,66
48,80,214080,95
36,80,214080,112
46,80,214560,145
34,80,214560,171
44,80,215040,343
32,80,215040,317
44,80,215760,152
32,80,215760,159
43,80,216480,511
31,80,216480,513
44,80,217440,100
32,80,217440,127
34,80,217920,195
46,80,217920,153
47,80,218400,134
35,80,218400,130
48,80,218880,126
36,80,218880,93
48,80,219600,285
60,80,219840,104
55,80,219840,113
48,80,220320,91
36,80,220320,59
48,80,221280,495
60,80,221760,216
55,80,222000,264
51,80,222240,105
36,80,222720,152
48,80,222720,182
48,80,223440,319
60,80,223680,108
55,80,223680,103
48,80,224160,98
36,80,224160,55
48,80,225120,466
60,80,225600,249
55,80,225840,302
51,80,226080,125
36,80,226560,113
48,80,226560,146
48,80,227280,252
60,80,227520,86
55,80,227520,100
48,80,228000,92
36,80,228000,55
48,80,228720,293
60,80,228960,84
55,80,228960,84
36,80,229440,93
48,80,229440,87
48,80,229920,88
36,80,229920,102
36,80,230400,200
48,80,230400,219
32,80,234240,320
44,80,234240,384
56,80,234720,447
51,80,234720,439
44,80,235200,490
56,80,235680,490
51,80,235680,468
44,80,236160,437
51,80,236640,470
56,80,236640,473
44,80,237120,494
56,80,237600,500
51,80,237600,468
46,80,238080,467
34,80,238080,424
53,80,238560,449
58,80,238560,474
46,80,239040,481
58,80,239520,508
53,80,239520,483
46,80,240000,474
53,80,240480,473
58,80,240480,496
46,80,240960,260
53,80,241440,430
58,80,241440,477
51,80,241920,495
39,80,241920,444
58,80,242400,469
63,80,242400,478
51,80,242880,384
63,80,243360,486
58,80,243360,470
38,80,243840,431
50,80,243840,452
62,80,244320,463
58,80,244320,456
50,80,244800,483
62,80,245280,473
58,80,245280,455
36,80,245760,483
48,80,245760,486
55,80,246240,435
60,80,246240,475
48,80,246720,453
60,80,247200,514
55,80,247200,488
34,80,247680,506
46,80,247680,504
53,80,248160,488
58,80,248160,488
46,80,248640,408
53,80,249120,526
58,80,249120,499
32,80,249600,396
44,80,249600,478
56,80,250080,483
51,80,250080,465
44,80,250560,453
51,80,251040,452
56,80,251040,478
44,80,251520,453
51,80,252000,448
56,80,252000,472
44,80,252480,480
56,80,252960,475
51,80,252960,444
34,80,253440,465
46,80,253440,507
53,80,253920,484
58,80,253920,509
46,80,254400,462
53,80,254880,458
58,80,254880,483
46,80,255360,458
58,80,255840,515
53,80,255840,494
46,80,256320,342
53,80,256800,503
58,80,256800,525
31,80,257280,432
43,80,257280,446
55,80,257760,493
50,80,257760,490
43,80,258240,361
55,80,258720,476
50,80,258720,400
35,80,259200,407
47,80,259200,454
55,80,259680,430
59,80,259680,452
47,80,260160,445
59,80,260640,499
55,80,260640,481
36,80,261120,419
48,80,261120,458
55,80,261600,461
60,80,261600,486
48,80,262080,339
55,80,262560,476
60,80,262560,495
46,80,263040,527
34,80,263040,467
53,80,263520,465
58,80,263520,483
46,80,264000,409
53,80,264480,525
58,80,264480,486
44,80,264960,343
32,80,264960,460
48,80,265440,203
56,80,265440,222
51,80,265440,118
56,80,265920,225
51,80,265920,194
48,80,265920,189
51,80,266400,207
56,80,266400,246
48,80,266400,199
48,80,266880,189
56,80,266880,226
51,80,266880,185
56,80,267600,248
44,80,267600,211
32,80,268320,185
44,80,268320,169
34,80,268800,397
46,80,268800,437
53,80,269280,207
58,80,269280,229
50,80,269280,195
53,80,269760,208
58,80,269760,246
50,80,269760,218
53,80,270240,195
58,80,270240,260
50,80,270240,197
58,80,270720,252
53,80,270720,207
50,80,270720,195
58,80,271440,261
46,80,271440,235
46,80,272160,222
34,80,272160,222
51,80,272640,750
39,80,272640,752
55,80,273360,837
43,80,273360,797
46,80,274080,587
58,80,274080,461
50,80,274560,799
38,80,274560,749
43,80,275280,831
55,80,275280,801
46,80,276000,569
58,80,276000,530
36,80,276480,704
48,80,276480,773
51,80,277200,815
39,80,277200,829
55,80,277920,522
43,80,277920,562
34,80,278400,748
46,80,278400,691
38,80,279120,789
50,80,279120,768
41,80,279840,350
53,80,279840,614
44,80,280320,234
32,80,280320,219
56,80,280800,173
51,80,280800,128
48,80,280800,187
48,80,281280,185
51,80,281280,197
56,80,281280,193
56,80,281760,137
51,80,281760,173
48,80,281760,157
56,80,282240,214
51,80,282240,196
48,80,282240,183
44,80,282960,229
56,80,282960,254
44,80,283680,178
32,80,283680,199
31,80,284160,319
43,80,284160,325
55,80,284640,197
50,80,284640,220
47,80,284640,209
50,80,285120,151
55,80,285120,207
47,80,285120,142
47,80,285600,179
50,80,285600,169
55,80,285600,199
47,80,286080,174
50,80,286080,126
55,80,286080,201
43,80,286800,195
55,80,286800,234
35,80,287520,500
47,80,287520,500
48,80,288000,6908
36,80,288000,270
36,80,288960,240
36,80,289920,257
36,80,290880,235
36,80,291840,222
36,80,292800,231
36,80,293760,252
36,80,294720,206
46,80,295200,179
34,80,295200,195
48,80,295680,6820
36,80,295680,346
36,80,296640,249
36,80,297600,232
36,80,298560,273
36,80,299520,270
36,80,300480,293
36,80,301440,266
36,80,302400,270
39,80,303360,803
51,80,303360,768
48,80,304080,819
36,80,304080,760
39,80,304800,810
51,80,304800,757
48,80,305520,716
36,80,305520,696
51,80,306240,757
39,80,306240,781
36,80,306960,773
48,80,306960,789
51,80,307680,794
39,80,307680,819
48,80,308400,757
36,80,308400,730
51,80,309120,810
39,80,309120,837
50,80,309840,140
38,80,309840,94
38,80,310080,700
50,80,310080,858
39,80,310800,210
51,80,310800,203
39,80,311040,725
51,80,311040,719
36,80,311760,758
48,80,311760,670
51,80,312480,780
39,80,312480,756
36,80,313200,604
48,80,313200,650
39,80,313920,260
51,80,313920,204
39,80,314400,263
51,80,314400,186
39,80,314880,521
51,80,314880,496
32,80,318720,410
44,80,318720,445
51,80,319200,602
56,80,319680,590
51,80,320160,588
60,80,320640,485
51,80,321120,599
56,80,321600,600
51,80,322080,455
46,80,322560,496
34,80,322560,427
53,80,323040,496
58,80,323520,545
53,80,324000,504
62,80,324480,541
53,80,324960,525
58,80,325440,513
53,80,325920,480
51,80,326400,555
39,80,326400,534
58,80,326880,522
63,80,327360,484
58,80,327840,528
50,80,328320,589
38,80,328320,612
58,80,328800,506
62,80,329280,549
58,80,329760,480
48,80,330240,613
36,80,330240,618
55,80,330720,490
60,80,331200,534
55,80,331680,503
46,80,332160,480
34,80,332160,476
53,80,332640,526
58,80,333120,512
53,80,333600,547
32,80,334080,350
44,80,334080,381
51,80,334560,535
56,80,335040,510
51,80,335520,516
60,80,336000,530
51,80,336480,492
56,80,336960,486
51,80,337440,456
55,80,337920,510
51,80,338400,462
55,80,338880,488
51,80,339360,536
60,80,339840,690
51,80,340320,385
55,80,340800,541
51,80,341280,523
46,80,341760,480
34,80,341760,401
53,80,342240,535
58,80,342720,513
53,80,343200,509
62,80,343680,498
53,80,344160,612
58,80,344640,484
53,80,345120,476
43,80,345600,777
31,80,345600,709
47,80,347520,659
35,80,347520,626
48,80,349440,459
36,80,349440,415
51,80,349920,256
55,80,349920,256
51,80,350400,240
55,80,350400,264
60,80,350400,220
51,80,350880,370
55,80,350880,518
60,80,350880,394
48,80,351360,370
51,80,351840,246
60,80,351840,240
55,80,351840,256
55,80,352320,268
51,80,352320,222
60,80,352320,226
55,80,352800,500
51,80,352800,518
60,80,352800,479
46,80,353280,476
34,80,353280,443
50,80,353760,240
58,80,353760,252
53,80,353760,110
58,80,354240,246
53,80,354240,220
50,80,354240,232
50,80,354720,429
53,80,354720,451
58,80,354720,433
46,80,355200,457
53,80,355680,203
50,80,355680,203
58,80,355680,197
50,80,356160,190
53,80,356160,210
58,80,356160,223
58,80,356640,517
53,80,356640,515
50,80,356640,541
44,80,357120,504
32,80,357120,413
51,80,357600,227
48,80,357600,240
51,80,358080,198
48,80,358080,208
56,80,358080,242
56,80,358560,465
48,80,358560,469
51,80,358560,471
44,80,359040,403
51,80,359520,262
48,80,359520,244
56,80,359520,248
51,80,360000,250
56,80,360000,244
48,80,360000,248
51,80,360480,506
56,80,360480,492
48,80,360480,555
43,80,360960,488
31,80,360960,442
47,80,361440,234
50,80,361440,244
55,80,361440,224
50,80,361920,259
47,80,361920,240
55,80,361920,221
50,80,362400,481
47,80,362400,410
55,80,362400,449
43,80,362880,329
50,80,363360,241
47,80,363360,195
55,80,363360,215
50,80,363840,260
55,80,363840,207
47,80,363840,193
47,80,364320,175
55,80,364320,271
50,80,364320,212
36,80,364800,453
48,80,364800,480
51,80,365280,234
55,80,365280,183
51,80,365760,210
60,80,365760,224
55,80,365760,227
51,80,366240,392
55,80,366240,462
60,80,366240,383
48,80,366720,512
51,80,367200,246
60,80,367200,244
55,80,367200,258
51,80,367680,222
60,80,367680,238
55,80,367680,250
51,80,368160,429
55,80,368160,446
60,80,368160,409
46,80,368640,455
34,80,368640,382
50,80,369120,218
53,80,369120,211
58,80,369120,250
58,80,369600,289
50,80,369600,250
53,80,369600,254
50,80,370080,405
53,80,370080,445
58,80,370080,480
46,80,370560,360
53,80,371040,230
50,80,371040,222
58,80,371040,250
58,80,371520,245
50,80,371520,250
53,80,371520,240
50,80,372000,468
53,80,372000,513
58,80,372000,503
44,80,372480,3145
32,80,372480,3127
43,80,376320,3678
31,80,376320,3639
36,80,380160,277
48,80,380160,271
60,80,380640,278
51,80,380640,247
55,80,380640,327
48,80,381120,290
51,80,381600,197
60,80,381600,231
55,80,381600,257
48,80,382080,266
36,80,382080,257
60,80,382560,233
51,80,382560,238
55,80,382560,264
48,80,383040,273
60,80,383520,249
51,80,383520,229
55,80,383520,228
36,80,384000,244
48,80,384000,252
51,80,384480,252
60,80,384480,255
55,80,384480,242
48,80,384960,311
51,80,385440,264
60,80,385440,273
55,80,385440,269
48,80,385920,300
36,80,385920,126
60,80,386400,251
51,80,386400,273
55,80,386400,284
48,80,386880,302
51,80,387360,271
60,80,387360,266
55,80,387360,275
48,80,387840,285
36,80,387840,246
51,80,388320,255
60,80,388320,273
55,80,388320,275
48,80,388800,289
60,80,389280,247
51,80,389280,244
55,80,389280,280
48,80,389760,282
36,80,389760,229
51,80,390240,300
60,80,390240,255
55,80,390240,275
48,80,390720,279
51,80,391200,249
60,80,391200,255
55,80,391200,292
48,80,391680,251
36,80,391680,252
60,80,392160,269
51,80,392160,206
55,80,392160,270
48,80,392640,284
60,80,393120,270
51,80,393120,218
55,80,393120,268
48,80,393600,280
36,80,393600,224
60,80,394080,278
51,80,394080,216
55,80,394080,282
34,80,394560,284
46,80,394560,284
47,80,395040,224
35,80,395065,250
48,80,395520,275
36,80,395520,240
60,80,396000,270
55,80,396000,259
51,80,396000,219
48,80,396480,295
55,80,396960,278
51,80,396960,264
60,80,396960,262
48,80,397440,251
36,80,397440,201
60,80,397920,246
51,80,397920,206
55,80,397920,271
48,80,398400,274
51,80,398880,215
60,80,398880,255
55,80,398880,278
48,80,399360,262
36,80,399360,218
60,80,399840,284
51,80,399840,274
55,80,399840,280
48,80,400320,293
51,80,400800,266
60,80,400800,266
55,80,400800,284
48,80,401280,268
36,80,401280,208
51,80,401760,294
60,80,401760,253
55,80,401760,284
48,80,402240,295
51,80,402720,271
60,80,402720,249
55,80,402720,270
36,80,403200,238
48,80,403200,278
51,80,403680,221
60,80,403680,228
55,80,403680,280
48,80,404160,291
51,80,404640,235
60,80,404640,248
55,80,404640,282
36,80,405120,235
48,80,405120,273
51,80,405600,215
60,80,405600,266
55,80,405600,282
48,80,406080,291
51,80,406560,262
60,80,406560,275
55,80,406560,276
36,80,407040,230
48,80,407040,296
60,80,407520,264
51,80,407520,262
55,80,407520,279
48,80,408000,315
51,80,408480,271
60,80,408480,285
55,80,408480,288
36,80,408960,235
48,80,408960,264
60,80,409440,270
51,80,409440,282
55,80,409440,295
34,80,409950,284
46,80,409950,284
47,80,410430,224
35,80,410455,250
36,80,410880,253
48,80,410880,284
60,80,411360,295
55,80,411360,343
51,80,411360,345
48,80,411840,345
55,80,412320,367
51,80,412320,328
60,80,412320,358
48,80,412800,434
60,80,413280,384
55,80,413280,446
51,80,413280,351
48,80,413760,349
60,80,414240,380
55,80,414240,345
51,80,414240,485
32,80,414720,329
44,80,414720,407
51,80,415200,445
56,80,415200,418
48,80,415200,407
44,80,415680,288
48,80,416160,522
51,80,416160,479
56,80,416160,466
43,80,416640,389
31,80,416640,344
55,80,417120,380
50,80,417120,441
47,80,417120,333
43,80,417600,235
55,80,418080,220
50,80,418080,213
47,80,418080,177
36,80,418560,320
48,80,418560,375
51,80,419040,333
60,80,419040,275
55,80,419040,356
48,80,419520,463
60,80,420000,420
55,80,420000,436
51,80,420000,415
48,80,420480,463
60,80,420960,389
51,80,420960,417
55,80,420960,423
48,80,421440,224
51,80,421920,446
60,80,421920,314
55,80,421920,317
32,80,422400,320
44,80,422400,396
48,80,422880,374
51,80,422880,407
56,80,422880,405
44,80,423360,288
51,80,423840,441
56,80,423840,416
48,80,423840,481
31,80,424320,341
43,80,424320,402
55,80,424800,397
50,80,424800,457
47,80,424800,331
43,80,425280,253
50,80,425760,212
55,80,425760,221
47,80,425760,174
36,80,426240,309
48,80,426240,393
51,80,426720,298
55,80,426720,354
60,80,426720,265
48,80,427200,524
60,80,427680,487
55,80,427680,477
51,80,427680,467
48,80,428160,474
60,80,428640,421
51,80,428640,399
55,80,428640,448
48,80,429120,350
51,80,429600,429
60,80,429600,302
55,80,429600,292
32,80,430080,316
44,80,430080,387
56,80,430560,410
51,80,430560,434
48,80,430560,376
44,80,431040,305
51,80,431520,430
56,80,431520,444
48,80,431520,518
43,80,432000,362
31,80,432000,301
55,80,432480,376
50,80,432480,430
47,80,432480,317
43,80,432960,235
55,80,433440,225
50,80,433440,260
47,80,433440,172
36,80,433920,445
48,80,433920,510
48,80,435360,521
36,80,435360,457
48,80,436800,259
36,80,436800,210
36,80,437760,669
48,80,437760,651
32,80,441600,492
44,80,442080,416
32,80,442560,416
44,80,443040,454
32,80,443520,405
44,80,444000,336
32,80,444480,183
44,80,444720,98
32,80,444960,114
44,80,445200,179
34,80,445440,532
46,80,445920,335
34,80,446400,455
46,80,446880,381
34,80,447360,391
46,80,447840,321
34,80,448320,206
46,80,448560,165
34,80,448800,197
46,80,449040,173
39,80,449280,528
51,80,449760,324
39,80,450240,208
51,80,450480,114
39,80,450720,175
51,80,450960,165
38,80,451200,485
50,80,451680,293
38,80,452160,202
50,80,452400,171
38,80,452640,202
50,80,452880,162
36,80,453120,489
48,80,453600,283
36,80,454080,179
48,80,454320,156
36,80,454560,185
48,80,454800,137
34,80,455040,500
46,80,455520,271
34,80,456000,181
46,80,456240,137
34,80,456480,188
46,80,456720,167
32,80,456960,446
44,80,457440,267
32,80,457920,333
44,80,458400,289
32,80,458880,385
44,80,459360,307
32,80,459840,208
44,80,460080,143
32,80,460320,202
44,80,460560,123
34,80,460800,418
46,80,461280,324
34,80,461760,383
46,80,462240,312
34,80,462720,405
46,80,463200,302
34,80,463680,226
46,80,463920,159
34,80,464160,234
46,80,464400,158
31,80,464640,472
43,80,465120,332
31,80,465600,461
43,80,466080,411
35,80,466560,447
47,80,467040,463
35,80,467520,472
47,80,468000,396
36,80,468480,461
48,80,468960,414
36,80,469440,481
48,80,469920,347
34,80,470400,506
46,80,470880,405
34,80,471360,257
46,80,471600,177
34,80,471840,217
46,80,472080,159
32,80,472320,361
44,80,472320,252
56,80,472800,390
51,80,472800,342
44,80,473280,434
51,80,473760,503
56,80,473760,526
44,80,474240,501
56,80,474720,505
51,80,474720,461
44,80,475200,501
56,80,475680,513
51,80,475680,493
46,80,476160,457
34,80,476160,382
58,80,476640,493
53,80,476640,463
46,80,477120,452
58,80,477600,562
53,80,477600,531
46,80,478080,501
58,80,478560,472
53,80,478560,438
46,80,479040,391
58,80,479520,521
53,80,479520,443
51,80,480000,502
39,80,480000,392
58,80,480480,340
63,80,480480,375
39,80,480960,239
51,80,481200,174
39,80,481440,204
51,80,481680,190
38,80,481920,226
50,80,481920,242
62,80,482400,343
58,80,482400,302
38,80,482880,222
50,80,483120,189
38,80,483360,177
50,80,483600,112
36,80,483840,286
48,80,483840,282
60,80,484320,374
55,80,484320,291
36,80,484800,193
48,80,485040,156
36,80,485280,179
48,80,485520,92
34,80,485760,314
46,80,485760,322
53,80,486240,270
58,80,486240,353
34,80,486720,197
46,80,486960,170
34,80,487200,224
46,80,487440,90
44,80,487680,293
32,80,487680,217
51,80,488160,507
56,80,488160,533
44,80,488640,426
51,80,489120,434
56,80,489120,467
44,80,489600,395
56,80,490080,486
51,80,490080,453
44,80,490560,367
51,80,491040,531
56,80,491040,550
43,80,491520,420
31,80,491520,379
50,80,492000,446
55,80,492000,470
43,80,492480,271
50,80,492960,436
55,80,492960,483
47,80,493440,414
35,80,493440,369
59,80,493920,490
55,80,493920,461
47,80,494400,331
59,80,494880,454
55,80,494880,470
44,80,495360,461
32,80,495360,323
51,80,495840,466
56,80,495840,497
44,80,496320,471
56,80,496800,531
51,80,496800,492
44,80,497280,507
56,80,497760,517
51,80,497760,494
44,80,498240,481
51,80,498720,430
56,80,498720,458
46,80,499200,463
34,80,499200,350
58,80,499680,531
53,80,499680,509
46,80,500160,489
58,80,500640,560
53,80,500640,508
46,80,501120,492
58,80,501600,489
53,80,501600,462
46,80,502080,295
58,80,502560,457
53,80,502560,390
51,80,503040,446
39,80,503040,374
58,80,503520,474
63,80,503520,497
51,80,504000,325
58,80,504480,503
63,80,504480,506
50,80,504960,434
38,80,504960,396
58,80,505440,491
62,80,505440,506
50,80,505920,354
62,80,506400,479
58,80,506400,470
48,80,506880,519
36,80,506880,436
60,80,507360,458
55,80,507360,429
48,80,507840,412
55,80,508320,483
60,80,508320,490
46,80,508800,458
34,80,508800,376
53,80,509280,429
58,80,509280,467
46,80,509760,366
58,80,510240,484
53,80,510240,486
44,80,510720,327
32,80,510720,333
56,80,511200,215
48,80,511200,184
51,80,511200,204
48,80,511680,201
56,80,511680,198
51,80,511680,148
51,80,512160,181
48,80,512160,159
56,80,512160,167
48,80,512640,255
56,80,512640,255
51,80,512640,255
56,80,513360,228
44,80,513360,228
32,80,514080,222
44,80,514080,192
43,80,514560,217
31,80,514560,241
55,80,515040,193
47,80,515040,183
50,80,515040,198
50,80,515520,185
55,80,515520,205
47,80,515520,143
55,80,516000,275
50,80,516000,239
47,80,516000,191
46,80,516480,213
34,80,516480,248
53,80,516960,188
58,80,516960,201
50,80,516960,101
58,80,517440,128
53,80,517440,177
50,80,517440,174
50,80,517920,174
58,80,517920,242
53,80,517920,202
48,80,518400,1000
36,80,518400,1000
32,110,524640,213
44,110,524640,237
44,110,525120,192
32,110,525120,159
34,110,525600,237
46,110,525600,258
36,80,526080,472
48,80,526560,437
51,80,527040,508
55,80,527520,470
60,80,528000,396
48,80,528480,508
55,80,528960,535
51,80,529440,168
32,80,529920,575
44,80,530400,500
39,80,530880,477
31,80,531360,918
43,80,532320,417
47,80,532800,465
50,80,533280,197
36,80,533760,541
48,80,534240,477
51,80,534720,478
55,80,535200,471
60,80,535680,408
48,80,536160,523
55,80,536640,517
51,80,537120,107
32,80,537600,546
44,80,538080,505
39,80,538560,470
31,80,539040,931
43,80,540000,378
47,80,540480,458
50,80,540960,197
36,80,541440,539
48,80,541920,493
51,80,542400,468
55,80,542880,494
60,80,543360,418
48,80,543840,522
55,80,544320,503
51,80,544800,177
32,80,545280,528
44,80,545760,457
39,80,546240,492
31,80,546720,906
43,80,547680,325
47,80,548160,447
50,80,548640,184
36,80,549120,519
48,80,549600,475
51,80,550080,461
55,80,550560,472
60,80,551040,436
48,80,551520,517
55,80,552000,496
51,80,552480,166
32,80,552960,521
44,80,553440,494
39,80,553920,420
31,80,554400,1003
43,80,555360,413
47,80,555840,420
50,80,556320,161
48,80,556800,1074
36,80,556800,1050
34,80,559680,231
46,80,559680,225
48,80,560160,1728
36,80,560160,1725
48,80,562080,206
36,80,562320,291
