note,velocity,position,duration
67,110,11420,3120
79,110,11520,3120
65,110,15360,720
60,110,16080,720
64,110,16800,1920
62,110,18720,240
59,110,19200,720
62,110,19200,720
61,110,19920,720
62,110,20640,960
67,110,21600,480
66,110,22080,480
62,110,22560,480
64,110,23040,720
67,110,23760,720
66,110,24480,1200
64,110,25440,480
62,110,25920,960
59,110,26880,720
61,110,27600,720
62,110,28320,960
67,110,29280,480
66,110,29760,480
62,110,30240,480
64,110,30720,720
70,110,31440,720
69,110,32160,960
71,110,33120,720
73,110,33600,960
74,110,37920,240
62,110,37920,240
74,110,38400,1200
62,110,38400,1200
74,110,39840,240
62,110,39840,240
62,110,40320,960
74,110,40320,720
62,110,41760,240
74,110,41760,240
62,110,42240,480
74,110,42240,480
62,110,43200,480
74,110,43200,480
62,110,44160,720
74,110,44160,720
62,110,46080,240
65,110,46320,240
69,110,46560,240
74,110,46800,240
77,110,47040,240
81,110,47280,240
86,110,47520,240
89,110,47760,240
93,110,48000,240
98,110,48240,480
93,110,48480,480
89,110,48720,240
86,110,48960,240
81,110,49200,240
77,110,49440,240
74,110,49680,240
62,110,49920,240
65,110,50160,240
69,110,50400,240
74,110,50640,240
77,110,50880,240
81,110,51120,240
74,110,51600,1200
86,110,51600,960
62,110,53280,240
74,110,53280,240
62,110,53760,1200
74,110,53760,1200
62,110,55200,240
74,110,55200,240
62,110,55680,960
74,110,55680,720
62,110,57120,240
74,110,57120,240
62,110,57600,720
74,110,57600,720
62,110,58560,480
74,110,58560,480
62,110,59520,720
74,110,59520,480
62,110,61440,240
65,110,61680,240
69,110,61920,240
74,110,62160,240
77,110,62400,240
81,110,62640,240
86,110,62880,240
89,110,63120,480
93,110,63360,240
98,110,63600,240
93,110,63840,480
89,110,64080,240
86,110,64320,240
81,110,64560,240
77,110,64800,240
74,110,65040,240
74,110,65280,1680
86,110,65280,1440
74,110,69120,1440
65,110,69120,1440
77,110,69120,1440
74,110,70560,960
62,110,70560,960
74,110,72000,240
62,110,72000,240
74,110,72480,480
62,110,72480,480
74,110,72960,1440
67,110,72960,1440
79,110,72960,1440
77,110,74400,1920
65,110,74400,1920
70,110,77280,240
65,110,77280,240
74,110,77280,240
77,110,77280,240
70,110,77760,240
65,110,77760,240
74,110,77760,240
77,110,77760,240
70,110,78240,240
65,110,78240,240
74,110,78240,240
77,110,78240,240
70,110,78480,480
65,110,78480,480
74,110,78480,480
77,110,78480,480
70,110,79200,480
65,110,79200,480
74,110,79200,480
77,110,79200,480
79,110,79680,480
67,110,79680,480
77,110,80160,480
65,110,80160,480
69,110,80640,960
64,110,80640,960
73,110,80640,960
76,110,80640,960
77,110,81600,960
65,110,81600,960
79,110,82560,720
67,110,82560,720
79,110,83520,1200
67,110,83520,1200
78,110,84480,1440
66,110,84480,1440
74,110,85920,480
62,110,85920,480
76,110,86400,240
64,110,86400,240
76,110,86880,480
64,110,86880,480
74,110,87360,480
62,110,87360,480
76,110,87840,480
64,110,87840,480
78,110,88320,480
66,110,88320,480
79,110,88800,480
67,110,88800,480
81,110,89280,480
69,110,89280,480
78,110,89760,480
66,110,89760,480
76,110,90240,1920
64,110,90240,1920
74,110,92160,960
62,110,92160,960
78,110,93120,1200
66,110,93120,1200
74,110,94080,720
62,110,94080,720
74,110,95040,240
62,110,95040,240
74,110,95520,480
62,110,95520,480
73,110,96000,480
61,110,96000,480
71,110,96480,480
59,110,96480,480
73,110,96960,480
61,110,96960,480
76,110,97440,720
64,110,97440,720
74,110,97920,480
62,110,97920,480
71,110,98400,480
59,110,98400,480
79,110,98880,960
67,110,98880,960
78,110,99840,1440
66,110,99840,1440
74,110,101280,480
62,110,101280,480
76,110,101760,240
64,110,101760,240
76,110,102240,720
64,110,102240,720
76,110,103440,480
64,110,103440,480
62,110,103680,240
69,110,103680,240
62,110,104160,240
69,110,104160,240
62,110,104640,240
69,110,104640,240
62,110,105120,240
69,110,105120,240
64,110,105600,720
69,110,105600,720
79,110,106320,720
67,110,106320,720
78,110,107040,480
66,110,107040,480
76,110,107520,960
64,110,107520,960
78,110,108480,480
66,110,108480,480
74,110,108960,1920
62,110,108960,1920
61,110,111360,240
64,110,111600,240
69,110,111840,240
73,110,112080,240
76,110,112320,240
81,110,112560,240
85,110,112800,240
88,110,113040,240
93,110,113280,240
79,110,114240,960
67,110,114240,960
78,110,115200,1440
66,110,115200,1440
74,110,116640,480
62,110,116640,480
76,110,117120,240
64,110,117120,240
76,110,117600,480
64,110,117600,480
74,110,118080,480
62,110,118080,480
76,110,118560,480
64,110,118560,480
78,110,119040,480
66,110,119040,480
79,110,119520,480
67,110,119520,480
81,110,120000,480
69,110,120000,480
78,110,120480,480
66,110,120480,480
76,110,120960,1920
64,110,120960,1920
74,110,122880,960
62,110,122880,960
78,110,123840,960
66,110,123840,960
74,110,124800,720
62,110,124800,720
74,110,125760,240
62,110,125760,240
74,110,126240,480
62,110,126240,480
73,110,126720,480
61,110,126720,480
71,110,127200,480
59,110,127200,480
73,110,127680,480
61,110,127680,480
76,110,128160,720
64,110,128160,720
74,110,128640,480
62,110,128640,480
71,110,129120,480
59,110,129120,480
79,110,129600,960
67,110,129600,960
78,110,130560,1440
66,110,130560,1440
74,110,132000,480
62,110,132000,480
76,110,132480,240
64,110,132480,240
76,110,132960,480
64,110,132960,480
76,110,134160,480
64,110,134160,480
62,110,134400,240
69,110,134400,240
62,110,134880,240
69,110,134880,240
62,110,135360,240
69,110,135360,240
62,110,135840,240
69,110,135840,240
64,110,136320,720
69,110,136320,720
79,110,137040,720
67,110,137040,720
78,110,137760,480
66,110,137760,480
76,110,138240,960
64,110,138240,960
78,110,139200,480
66,110,139200,480
74,110,139680,2160
62,110,139680,2160
81,110,142560,240
69,110,142560,240
81,110,143040,240
69,110,143040,240
81,110,143520,240
69,110,143520,240
81,110,144000,720
69,110,144000,720
81,110,144960,960
69,110,144960,960
71,110,145920,960
59,110,145920,720
61,110,146640,720
62,110,147360,720
67,110,148080,720
66,110,148800,480
62,110,149280,480
64,110,149760,720
67,110,150480,720
66,110,151200,960
64,110,151920,720
62,110,152640,720
59,110,153600,720
61,110,154320,720
62,110,155040,960
67,110,155760,720
66,110,156480,480
62,110,156960,480
64,110,157440,480
81,110,157920,240
69,110,157920,240
81,110,158400,240
69,110,158400,240
81,110,158880,240
69,110,158880,240
81,110,159360,480
69,110,159360,480
81,110,160320,960
69,110,160320,960
71,110,161280,960
59,110,161280,720
61,110,162000,720
62,110,162720,960
67,110,163680,480
66,110,164160,480
62,110,164640,480
64,110,165120,720
67,110,165840,720
66,110,166560,960
64,110,167520,480
62,110,168000,960
59,110,168960,720
61,110,169680,720
62,110,170400,960
67,110,171360,480
66,110,171840,480
62,110,172320,480
64,110,172800,720
70,110,173760,480
69,110,174240,960
71,110,175200,720
73,110,175680,960
78,110,176640,1680
71,110,176640,1680
35,93,180240,240
38,85,3840,720
41,85,4560,720
43,85,5280,720
41,85,6000,960
43,85,6720,480
44,85,7200,480
38,85,7680,720
41,85,8400,720
43,85,9120,720
44,85,9840,720
45,85,10560,960
38,85,11520,720
41,85,12240,720
43,85,12960,720
41,85,13680,720
43,85,14400,480
44,85,14880,480
35,85,19200,240
47,85,19200,240
47,85,19680,240
59,85,19920,480
54,85,19920,480
47,85,20400,240
31,85,20640,240
43,85,20640,240
43,85,21600,480
50,85,22080,480
55,85,22080,480
43,85,22560,240
38,85,23040,240
50,85,23040,240
50,85,23520,240
57,85,23760,480
62,85,23760,480
50,85,24240,240
33,85,24480,240
45,85,24480,240
45,85,25440,480
52,85,25920,480
57,85,25920,480
45,85,26400,240
35,85,26880,240
47,85,26880,240
47,85,27360,240
54,85,27600,480
59,85,27600,480
47,85,27840,240
31,85,28320,240
43,85,28320,240
43,85,29280,480
50,85,29760,480
55,85,29760,480
43,85,30240,240
42,85,30720,240
30,85,30720,240
42,85,31200,240
54,85,31440,240
49,85,31440,240
42,85,31680,240
33,85,32160,240
45,85,32160,240
45,85,33120,480
52,85,33600,480
57,85,33600,480
45,85,34080,240
41,85,34560,480
38,85,35040,240
41,85,35280,480
38,85,35760,240
41,85,36000,480
38,85,36480,240
41,85,36720,480
38,85,37200,240
41,85,37440,480
38,85,38400,240
50,85,38400,240
54,85,38880,480
50,85,39360,480
54,85,39840,480
50,85,40320,480
54,85,40800,480
50,85,41280,480
54,85,41760,480
50,85,42240,480
38,85,42240,480
55,85,42720,480
50,85,43200,480
55,85,43680,480
50,85,44160,480
55,85,44640,480
50,85,45120,480
55,85,45600,240
38,85,46080,480
50,85,46560,240
53,85,46800,240
50,85,47280,240
45,85,47520,240
41,85,47760,240
38,85,48000,480
50,85,48480,240
53,85,48720,480
50,85,49200,240
45,85,49440,240
41,85,49680,240
38,85,49920,480
50,85,50400,240
53,85,50640,240
50,85,51120,240
45,85,51360,240
41,85,51600,240
50,85,51600,480
38,85,51840,480
50,85,52320,240
53,85,52560,240
50,85,53040,240
45,85,53280,240
41,85,53520,240
38,85,53760,480
50,85,54240,480
38,85,54720,480
50,85,55200,480
38,85,55680,480
50,85,56160,480
38,85,56640,480
50,85,57120,480
38,85,57600,480
50,85,58080,480
38,85,58560,480
50,85,59040,480
38,85,59520,480
50,85,60000,480
38,85,60480,480
50,85,60960,480
38,85,61440,720
41,85,62160,720
43,85,62880,720
41,85,63600,720
43,85,64320,480
44,85,64800,480
38,85,65280,720
41,85,66000,720
43,85,66720,720
44,85,67440,720
45,85,68160,960
38,85,69120,480
50,85,69600,480
38,85,70080,480
50,85,70560,480
38,85,71040,480
50,85,71520,480
38,85,72000,480
50,85,72480,480
38,85,72960,480
50,85,73440,480
38,85,73920,480
50,85,74400,480
38,85,74880,480
50,85,75360,480
38,85,75840,480
50,85,76320,240
34,85,76800,240
46,85,76800,240
46,85,77280,480
58,85,77760,240
53,85,77760,480
46,85,78240,480
58,85,78720,240
53,85,78720,480
46,85,79200,480
58,85,79680,480
53,85,79680,480
46,85,80160,240
33,85,80640,240
45,85,80640,240
57,85,81120,240
52,85,81120,240
49,85,81120,240
45,85,81120,240
57,85,81600,240
49,85,81600,240
45,85,81600,240
52,85,81600,240
57,85,82080,240
45,85,82080,240
49,85,82080,240
52,85,82080,240
57,85,82560,240
45,85,82560,240
52,85,82560,240
49,85,82560,240
35,85,84480,240
42,85,84720,240
47,85,84960,240
50,85,85200,240
54,85,85440,240
59,85,85680,240
54,85,85920,240
50,85,86160,240
31,85,86400,240
38,85,86640,240
43,85,86880,240
47,85,87120,240
50,85,87360,240
55,85,87600,240
50,85,87840,240
47,85,88080,240
38,85,88320,240
45,85,88560,240
50,85,88800,240
54,85,89040,240
57,85,89280,240
62,85,89520,240
57,85,89760,240
54,85,90000,240
33,85,90240,240
40,85,90480,240
45,85,90720,240
49,85,90960,240
52,85,91200,240
57,85,91440,240
52,85,91680,240
49,85,91920,240
35,85,92160,240
42,85,92400,240
47,85,92640,240
50,85,92880,240
54,85,93120,240
59,85,93360,240
54,85,93600,240
50,85,93840,240
31,85,94080,240
38,85,94320,240
43,85,94560,240
47,85,94800,240
50,85,95040,240
55,85,95280,240
50,85,95520,240
47,85,95760,240
33,85,96000,240
40,85,96240,240
45,85,96480,240
49,85,96720,240
52,85,96960,240
57,85,97200,240
52,85,97440,240
49,85,97680,240
35,85,97920,240
42,85,98160,240
47,85,98400,240
50,85,98640,240
54,85,98880,240
59,85,99120,240
54,85,99360,240
50,85,99600,240
35,85,99840,240
42,85,100080,240
47,85,100320,240
50,85,100560,240
54,85,100800,240
59,85,101040,240
54,85,101280,240
50,85,101520,240
31,85,101760,240
38,85,102000,240
43,85,102240,240
47,85,102480,240
50,85,102720,240
55,85,102960,240
50,85,103200,240
47,85,103440,240
38,85,103680,240
45,85,103920,240
50,85,104160,240
54,85,104400,240
57,85,104640,240
62,85,104880,240
57,85,105120,240
54,85,105360,240
33,85,105600,240
40,85,105840,240
45,85,106080,240
49,85,106320,240
52,85,106560,240
57,85,106800,240
52,85,107040,240
49,85,107280,240
35,85,107520,240
42,85,107760,240
47,85,108000,240
50,85,108240,240
54,85,108480,240
59,85,108720,240
54,85,108960,240
50,85,109200,240
31,85,109440,240
38,85,109680,240
43,85,109920,240
47,85,110160,240
50,85,110400,240
55,85,110640,240
50,85,110880,240
47,85,111120,240
33,85,111360,240
40,85,111600,240
45,85,111840,240
49,85,112080,240
52,85,112320,240
49,85,112560,240
52,85,112800,240
57,85,113040,240
61,85,113280,240
57,85,113520,240
52,85,113760,480
49,85,114000,240
57,85,114240,240
52,85,114480,240
49,85,114720,240
45,85,114960,240
30,85,115200,240
42,85,115200,240
57,85,115680,240
50,85,115680,240
54,85,115680,240
50,85,116160,240
57,85,116160,240
54,85,116160,240
50,85,116640,480
54,85,116640,480
57,85,116640,480
43,85,117120,240
31,85,117120,240
50,85,117600,240
55,85,117600,240
59,85,117600,240
50,85,118080,240
59,85,118080,240
55,85,118080,240
50,85,118560,480
59,85,118560,240
55,85,118560,480
33,85,119040,240
45,85,119040,240
49,85,119520,240
52,85,119520,240
57,85,119520,240
49,85,120000,240
57,85,120000,240
52,85,120000,240
49,85,120480,480
57,85,120480,480
52,85,120480,480
46,85,120960,240
34,85,120960,240
49,85,121440,240
54,85,121440,240
58,85,121440,240
49,85,121920,240
54,85,121920,240
58,85,121920,240
49,85,122400,480
54,85,122400,480
58,85,122400,480
35,85,122880,240
47,85,122880,240
54,85,123360,240
59,85,123360,240
50,85,123360,240
54,85,123840,240
59,85,123840,240
50,85,123840,240
54,85,124320,480
50,85,124320,480
59,85,124320,240
31,85,124800,240
43,85,124800,240
47,85,125280,240
50,85,125280,240
55,85,125280,240
47,85,125760,240
50,85,125760,240
55,85,125760,240
47,85,126240,240
55,85,126240,240
50,85,126240,240
33,85,126720,240
45,85,126720,240
49,85,127200,240
52,85,127200,240
57,85,127200,240
49,85,127680,240
57,85,127680,240
52,85,127680,240
49,85,128160,480
52,85,128160,480
57,85,128160,480
47,85,128640,240
35,85,128640,240
54,85,129120,240
50,85,129120,240
59,85,129120,240
54,85,129600,240
50,85,129600,240
59,85,129600,240
54,85,130080,480
50,85,130080,480
59,85,130080,480
47,85,130560,240
35,85,130560,240
54,85,131040,240
50,85,131040,240
59,85,131040,240
54,85,131520,240
59,85,131520,240
50,85,131520,240
54,85,132000,480
59,85,132000,480
50,85,132000,480
31,85,132480,240
43,85,132480,240
47,85,132960,240
50,85,132960,240
55,85,132960,240
47,85,133440,240
55,85,133440,240
50,85,133440,240
47,85,133920,240
55,85,133920,240
50,85,133920,240
38,85,134400,240
50,85,134400,240
54,85,134880,240
62,85,134880,240
57,85,134880,240
54,85,135360,240
62,85,135360,240
57,85,135360,240
54,85,135840,480
62,85,135840,240
57,85,135840,240
33,85,136320,240
45,85,136320,240
49,85,136800,240
57,85,136800,240
52,85,136800,240
49,85,137280,240
57,85,137280,240
52,85,137280,240
49,85,137760,240
57,85,137760,240
52,85,137760,240
35,85,138240,240
47,85,138240,240
54,85,138720,240
59,85,138720,240
50,85,138720,240
59,85,139200,240
50,85,139200,240
54,85,139200,240
54,85,139680,480
59,85,139680,240
50,85,139680,480
31,85,140160,240
43,85,140160,240
47,85,140640,240
50,85,140640,240
55,85,140640,240
47,85,141120,240
55,85,141120,240
50,85,141120,240
47,85,141600,240
50,85,141600,240
55,85,141600,240
33,85,142080,240
45,85,142080,240
45,85,142560,240
49,85,142800,240
57,85,142800,240
52,85,142800,240
45,85,143280,240
49,85,143520,240
57,85,143520,240
52,85,143520,240
45,85,144000,240
49,85,144240,240
57,85,144240,240
52,85,144240,240
45,85,144720,240
49,85,144960,240
57,85,144960,240
52,85,144960,240
45,85,145440,240
47,85,145920,240
35,85,145920,240
47,85,146400,240
59,85,146640,240
54,85,146640,480
47,85,146880,240
31,85,147360,240
43,85,147360,240
43,85,148320,480
55,85,148800,480
50,85,148800,480
43,85,149280,240
38,85,149760,240
50,85,149760,240
50,85,150240,240
62,85,150480,240
57,85,150480,480
50,85,150960,240
33,85,151200,240
45,85,151200,240
45,85,152160,480
57,85,152640,480
52,85,152640,480
45,85,153120,240
47,85,153600,240
35,85,153600,240
47,85,154080,240
59,85,154320,480
54,85,154320,480
47,85,154800,240
31,85,155040,240
43,85,155040,240
43,85,156000,480
55,85,156480,480
50,85,156480,480
43,85,156960,240
30,85,157440,240
42,85,157440,240
42,85,157920,240
54,85,158160,240
49,85,158160,240
42,85,158400,240
33,85,158880,240
45,85,158880,240
45,85,159840,480
57,85,160320,480
52,85,160320,480
45,85,160800,240
35,85,161280,240
47,85,161280,240
47,85,161760,240
59,85,162000,240
54,85,162000,480
47,85,162240,240
31,85,162720,240
43,85,162720,240
43,85,163680,480
50,85,164160,480
55,85,164160,480
43,85,164640,240
38,85,165120,240
50,85,165120,240
50,85,165600,240
62,85,165840,240
57,85,165840,480
50,85,166320,240
33,85,166560,240
45,85,166560,240
45,85,167520,480
57,85,168000,480
52,85,168000,480
45,85,168480,240
35,85,168960,240
47,85,168960,240
47,85,169440,240
59,85,169680,480
54,85,169680,480
47,85,170160,240
31,85,170400,240
43,85,170400,240
43,85,171360,480
55,85,171840,480
50,85,171840,480
43,85,172320,240
30,85,172800,240
42,85,172800,240
42,85,173280,240
54,85,173520,480
49,85,173520,480
42,85,174000,240
33,85,174240,240
45,85,174240,240
45,85,175200,480
57,85,175680,480
52,85,175680,480
45,85,176160,240
35,85,176640,240
47,85,176640,240
47,85,177120,240
59,85,177120,240
54,85,177120,240
47,85,177600,480
59,85,178080,240
54,85,178080,240
47,85,178560,240
59,85,178800,240
54,85,178800,240
47,85,179280,240
59,85,179520,480
54,85,179520,480
47,85,180000,240
