note,velocity,position,duration
71,42,240,120
68,42,240,120
75,51,240,120
66,51,360,120
75,51,720,120
71,42,720,120
68,42,720,120
66,51,840,120
75,51,1200,120
68,42,1200,120
71,42,1200,120
66,51,1320,120
68,44,1680,120
71,44,1680,120
75,52,1680,120
66,52,1800,120
68,44,2160,120
75,52,2160,120
71,44,2160,120
66,52,2280,120
68,44,2640,120
71,44,2640,120
75,52,2640,120
66,52,2760,120
77,42,3120,120
83,42,3120,120
87,51,3120,120
85,51,3240,120
87,51,3600,120
83,42,3600,120
77,42,3600,120
85,51,3720,120
87,51,4080,120
83,42,4080,120
77,42,4080,120
85,51,4200,120
83,44,4560,120
77,44,4560,120
87,52,4560,120
85,52,4680,120
87,52,5040,120
83,44,5040,120
77,44,5040,120
85,52,5160,120
87,52,5520,120
77,44,5520,120
83,44,5520,120
85,52,5640,120
63,35,6000,120
66,35,6000,120
70,35,6000,120
61,35,6120,118
61,35,6480,60
70,35,6480,60
66,35,6480,60
70,35,6960,60
66,35,6960,60
61,35,6960,60
70,35,7440,120
66,35,7440,120
63,35,7440,120
61,35,7560,118
70,35,7920,60
61,35,7920,60
66,35,7920,60
61,35,8400,60
66,35,8400,60
70,35,8400,60
71,35,8880,120
65,35,8880,120
63,35,8880,120
61,35,9000,118
65,36,9360,120
63,36,9360,120
71,36,9360,120
61,36,9480,120
71,38,9840,120
65,38,9840,120
63,38,9840,120
61,38,9960,120
71,39,10320,120
63,39,10320,120
65,39,10320,120
61,39,10440,120
63,41,10800,120
65,41,10800,120
71,41,10800,120
61,42,10920,118
63,43,11280,120
71,43,11280,120
65,43,11280,120
61,44,11400,120
63,35,11760,120
66,35,11760,120
70,35,11760,120
61,35,11880,118
61,35,12240,60
66,35,12240,60
70,35,12240,60
66,35,12720,60
61,35,12720,60
70,35,12720,60
63,35,13200,120
66,35,13200,120
70,35,13200,120
61,35,13320,118
61,35,13680,60
70,35,13680,60
66,35,13680,60
70,35,14160,60
66,35,14160,60
61,35,14160,60
71,35,14640,120
65,35,14640,120
63,35,14640,120
61,35,14760,120
71,36,15120,120
63,36,15120,120
65,36,15120,120
61,36,15240,120
63,38,15600,120
65,38,15600,120
71,38,15600,120
61,38,15720,120
63,39,16080,120
71,39,16080,120
65,39,16080,120
61,39,16200,120
63,41,16560,120
65,41,16560,120
71,41,16560,120
61,42,16680,120
63,43,17040,120
65,43,17040,120
71,43,17040,120
61,44,17160,120
61,58,17280,360
66,58,17280,360
66,55,17640,120
70,55,17640,120
70,57,17760,120
73,57,17760,120
73,61,18000,120
78,61,18000,120
78,66,18240,120
82,66,18240,120
85,63,18480,120
82,63,18480,120
90,76,18720,240
85,76,18720,240
102,85,19200,480
97,85,19200,480
90,85,19200,480
78,67,20160,240
90,67,20160,240
92,69,20400,240
80,69,20400,240
82,71,20640,480
94,71,20640,480
80,68,21120,240
92,68,21120,240
90,65,21360,180
78,65,21360,180
80,53,21480,60
92,53,21480,60
82,53,21540,60
94,53,21540,60
92,68,21600,480
80,68,21600,480
78,59,22080,240
90,59,22080,240
87,57,22320,240
75,57,22320,240
73,55,22560,480
85,55,22560,480
68,62,23040,240
80,62,23040,240
74,62,23040,480
82,64,23280,240
70,64,23280,240
71,66,23520,480
74,66,23520,480
83,66,23520,480
73,59,24000,480
80,59,24000,240
68,59,24000,240
82,53,24240,240
70,53,24240,240
78,62,24480,240
70,62,24480,240
66,62,24480,240
63,35,24720,120
66,35,24720,120
70,35,24720,120
61,35,24840,120
61,35,25200,60
66,35,25200,60
70,35,25200,60
66,35,25680,60
61,35,25680,60
70,35,25680,60
63,35,26160,120
66,35,26160,120
70,35,26160,120
61,35,26280,118
61,35,26640,60
70,35,26640,60
66,35,26640,60
70,35,27120,60
66,35,27120,60
61,35,27120,60
71,35,27600,120
65,35,27600,120
63,35,27600,120
61,35,27720,120
71,36,28080,120
63,36,28080,120
65,36,28080,120
61,36,28200,120
63,38,28560,120
65,38,28560,120
71,38,28560,120
61,38,28680,120
63,39,29040,120
71,39,29040,120
65,39,29040,120
61,39,29160,120
63,41,29520,120
65,41,29520,120
71,41,29520,120
61,42,29640,120
63,43,30000,120
65,43,30000,120
71,43,30000,120
61,44,30120,120
70,35,30480,120
66,35,30480,120
63,35,30480,120
61,35,30600,118
70,35,30960,60
66,35,30960,60
61,35,30960,60
70,35,31440,60
61,35,31440,60
66,35,31440,60
63,35,31920,120
66,35,31920,120
70,35,31920,120
61,35,32040,118
61,35,32400,60
66,35,32400,60
70,35,32400,60
66,35,32880,60
61,35,32880,60
70,35,32880,60
63,35,33360,120
65,35,33360,120
71,35,33360,120
61,35,33480,120
63,36,33840,120
71,36,33840,120
65,36,33840,120
61,36,33960,120
63,38,34320,120
65,38,34320,120
71,38,34320,120
61,38,34440,120
63,39,34800,120
65,39,34800,120
71,39,34800,120
61,39,34920,120
71,41,35280,120
65,41,35280,120
63,41,35280,120
61,42,35400,118
71,43,35760,120
65,43,35760,120
63,43,35760,120
61,44,35880,120
66,58,36000,360
61,58,36000,360
66,55,36360,120
70,55,36360,120
70,57,36480,120
73,57,36480,120
73,61,36720,120
78,61,36720,120
78,66,36960,120
82,66,36960,120
85,63,37200,120
82,63,37200,120
90,76,37440,240
85,76,37440,240
90,85,37920,480
97,85,37920,480
102,85,37920,480
78,61,38880,240
90,61,38880,240
92,63,39120,240
80,63,39120,240
82,66,39360,480
94,66,39360,480
80,62,39840,240
92,62,39840,240
78,60,40080,180
90,60,40080,180
92,49,40200,60
80,49,40200,60
82,49,40260,60
94,49,40260,60
92,62,40320,480
80,62,40320,480
78,58,40800,240
90,58,40800,240
89,56,41040,240
77,56,41040,240
75,53,41280,480
87,53,41280,480
66,57,41760,960
77,54,42000,240
75,62,42240,480
66,60,42720,480
72,60,42720,240
80,56,42960,240
77,57,43200,240
65,57,43200,240
58,35,43440,120
61,35,43440,120
65,35,43440,120
56,35,43560,115
56,35,43920,60
61,35,43920,60
65,35,43920,60
61,35,44400,60
56,35,44400,60
65,35,44400,60
58,35,44880,120
61,35,44880,120
65,35,44880,120
56,35,45000,110
56,35,45360,60
65,35,45360,60
61,35,45360,60
65,35,45840,60
61,35,45840,60
56,35,45840,60
66,35,46320,120
60,35,46320,120
58,35,46320,120
56,35,46440,110
66,36,46800,120
58,36,46800,120
60,36,46800,120
56,36,46920,120
58,38,47280,120
60,38,47280,120
66,38,47280,120
56,38,47400,120
58,39,47760,120
66,39,47760,120
60,39,47760,120
56,39,47880,120
58,41,48240,120
60,41,48240,120
66,41,48240,120
56,42,48360,110
58,43,48720,120
60,43,48720,120
66,43,48720,120
56,44,48840,120
65,35,49200,120
61,35,49200,120
58,35,49200,120
56,35,49320,110
65,35,49680,60
61,35,49680,60
56,35,49680,60
65,35,50160,60
56,35,50160,60
61,35,50160,60
58,35,50640,120
61,35,50640,120
65,35,50640,120
56,35,50760,110
56,35,51120,60
61,35,51120,60
65,35,51120,60
61,35,51600,60
56,35,51600,60
65,35,51600,60
58,35,52080,120
60,35,52080,120
66,35,52080,120
56,35,52200,110
58,36,52560,120
66,36,52560,120
60,36,52560,120
56,36,52680,120
58,38,53040,120
60,38,53040,120
66,38,53040,120
56,38,53160,120
58,39,53520,120
60,39,53520,120
66,39,53520,120
56,39,53640,120
66,41,54000,120
60,41,54000,120
58,41,54000,120
56,42,54120,110
66,43,54480,120
60,43,54480,120
58,43,54480,120
56,44,54600,120
61,58,54720,360
56,58,54720,360
61,55,55080,118
65,55,55080,120
65,57,55200,120
68,57,55200,120
68,61,55440,120
73,61,55440,120
73,66,55680,120
77,66,55680,120
80,63,55920,120
77,63,55920,120
73,76,56160,240
85,76,56160,240
80,76,56160,240
97,85,56640,480
89,85,56640,480
85,85,56640,480
75,61,57600,240
87,61,57600,240
89,63,57840,240
77,63,57840,240
78,66,58080,480
90,66,58080,480
80,62,58560,240
92,62,58560,240
90,60,58800,180
78,60,58800,180
77,49,58920,60
89,49,58920,60
78,49,58980,60
90,49,58980,60
89,62,59040,480
77,62,59040,480
75,55,59520,240
87,55,59520,240
89,52,59760,240
77,52,59760,240
73,50,60000,480
85,50,60000,480
70,52,60480,240
82,52,60480,240
76,52,60480,480
85,54,60720,240
73,54,60720,240
71,56,60960,480
75,56,60960,480
83,56,60960,480
73,50,61440,480
80,50,61440,240
68,50,61440,240
82,45,61680,240
70,45,61680,240
78,52,61920,240
70,52,61920,240
66,52,61920,240
63,35,62160,120
66,35,62160,120
70,35,62160,120
61,35,62280,110
61,35,62640,60
66,35,62640,60
70,35,62640,60
66,35,63120,60
61,35,63120,60
70,35,63120,60
63,35,63600,120
66,35,63600,120
70,35,63600,120
61,35,63720,110
61,35,64080,60
70,35,64080,60
66,35,64080,60
70,35,64560,60
66,35,64560,60
61,35,64560,60
71,35,65040,120
65,35,65040,120
63,35,65040,120
61,35,65160,110
71,36,65520,120
63,36,65520,120
65,36,65520,120
61,36,65640,120
63,38,66000,120
65,38,66000,120
71,38,66000,120
61,38,66120,120
63,39,66480,120
71,39,66480,120
65,39,66480,120
61,39,66600,120
63,41,66960,120
65,41,66960,120
71,41,66960,120
61,42,67080,120
63,43,67440,120
65,43,67440,120
71,43,67440,120
61,44,67560,120
70,35,67920,120
66,35,67920,120
63,35,67920,120
61,35,68040,110
70,35,68400,60
66,35,68400,60
61,35,68400,60
70,35,68880,60
61,35,68880,60
66,35,68880,60
63,35,69360,120
66,35,69360,120
70,35,69360,120
61,35,69480,110
61,35,69840,60
66,35,69840,60
70,35,69840,60
66,35,70320,60
61,35,70320,60
70,35,70320,60
63,35,70800,120
65,35,70800,120
71,35,70800,120
61,35,70920,110
63,36,71280,120
71,36,71280,120
65,36,71280,120
61,36,71400,120
63,38,71760,120
65,38,71760,120
71,38,71760,120
61,38,71880,120
63,39,72240,120
65,39,72240,120
71,39,72240,120
61,39,72360,120
71,41,72720,120
65,41,72720,120
63,41,72720,120
61,42,72840,120
71,43,73200,120
65,43,73200,120
63,43,73200,120
61,44,73320,120
66,58,73440,360
61,58,73440,360
66,55,73800,120
70,55,73800,120
70,57,73920,120
73,57,73920,120
73,61,74160,120
78,61,74160,120
78,66,74400,120
82,66,74400,120
85,63,74640,120
82,63,74640,120
90,76,74880,240
85,76,74880,240
90,85,75360,480
97,85,75360,480
102,85,75360,480
61,50,76320,120
66,50,76320,120
66,46,76560,120
68,46,76560,120
66,53,76800,480
69,53,76800,480
66,48,77280,120
71,48,77280,120
66,37,77520,120
69,44,77520,120
68,37,77640,60
69,37,77700,60
65,39,77760,480
68,47,77760,480
71,61,78240,480
74,61,78240,240
73,57,78480,240
69,60,78720,480
78,60,78720,480
69,50,79200,480
72,50,79200,480
77,61,79200,240
81,59,79440,240
69,45,79680,480
73,45,79680,480
81,56,79680,480
68,45,80160,480
72,45,80160,480
76,55,80160,480
66,38,80880,120
69,38,80880,120
73,38,80880,120
64,38,81000,110
64,38,81360,60
69,38,81360,60
73,38,81360,60
69,38,81840,60
64,38,81840,60
73,38,81840,60
76,38,81840,60
69,45,82080,120
73,55,82080,120
69,41,82320,120
74,50,82320,120
70,47,82560,480
76,58,82560,480
70,48,83040,120
77,52,83040,120
70,37,83280,120
76,48,83280,120
74,46,83400,60
76,45,83460,60
70,44,83520,480
74,57,83520,480
65,54,84000,120
72,54,84000,120
65,50,84240,120
70,50,84240,120
64,55,84480,480
69,55,84480,480
70,46,84960,480
76,57,84960,240
77,61,85200,240
70,54,85440,480
76,60,85440,480
79,66,85440,480
67,49,85920,480
70,49,85920,240
73,60,85920,480
69,53,86160,240
70,45,86640,120
74,45,86640,120
77,45,86640,120
69,45,86760,120
69,45,87120,60
74,45,87120,60
77,45,87120,60
74,45,87600,60
69,45,87600,60
77,45,87600,60
81,45,87600,60
69,45,87840,120
71,45,87840,120
74,55,87840,120
69,41,88080,120
71,41,88080,120
76,50,88080,120
69,47,88320,480
71,47,88320,480
77,58,88320,480
71,48,88800,120
69,48,88800,120
76,52,88800,120
69,37,89040,120
71,37,89040,120
74,48,89040,120
72,46,89160,60
74,45,89220,60
65,44,89280,480
69,44,89280,480
72,57,89280,480
65,54,89760,240
69,54,89760,240
71,54,89760,240
65,50,90000,240
69,50,90000,240
72,50,90000,240
65,55,90240,480
69,55,90240,480
74,55,90240,480
63,46,90720,480
69,57,90720,240
71,61,90960,240
63,54,91200,480
69,60,91200,480
72,66,91200,480
66,49,91680,480
63,49,91680,480
57,41,91680,480
59,41,91680,480
71,60,91680,480
61,45,92400,120
64,45,92400,120
68,45,92400,120
59,45,92520,120
59,45,92880,60
64,45,92880,60
68,45,92880,60
64,45,93360,60
59,45,93360,60
68,45,93360,60
71,45,93360,60
64,63,93840,240
74,63,93840,240
76,63,93840,240
66,67,94080,240
78,67,94080,240
68,63,94320,240
80,63,94320,240
68,68,94560,480
74,68,94560,240
78,68,94560,240
72,63,94800,240
76,63,94800,240
64,56,95040,240
69,56,95040,240
76,67,95040,240
68,53,95280,120
72,63,95280,120
69,56,95520,120
73,67,95520,120
73,59,95760,120
76,70,95760,120
76,62,96000,120
81,74,96000,120
85,78,96240,120
81,66,96240,120
88,81,96480,240
81,68,96480,240
85,65,96720,240
76,55,96720,240
69,64,96960,240
76,74,96960,240
64,54,97200,240
73,64,97200,240
69,63,97440,480
80,77,97440,240
71,70,97680,240
64,64,97920,240
68,76,97920,240
76,76,97920,240
88,97,98400,240
80,81,98400,240
76,80,98400,240
57,35,99600,120
60,35,99600,120
64,35,99600,120
55,35,99720,110
55,35,100080,60
60,35,100080,60
64,35,100080,60
55,35,100560,60
60,35,100560,60
64,35,100560,60
57,35,101040,120
60,35,101040,120
64,35,101040,120
55,35,101160,110
55,35,101520,60
60,35,101520,60
64,35,101520,60
55,35,102000,60
60,35,102000,60
64,35,102000,60
57,35,102480,120
59,35,102480,120
65,35,102480,120
55,35,102600,110
57,36,102960,120
59,36,102960,120
65,36,102960,120
55,36,103080,120
57,38,103440,120
59,38,103440,120
65,38,103440,120
55,38,103560,120
57,39,103920,120
59,39,103920,120
65,39,103920,120
55,39,104040,120
57,41,104400,120
59,41,104400,120
65,41,104400,120
55,42,104520,110
57,43,104880,120
59,43,104880,120
65,43,104880,120
55,44,105000,120
57,29,105360,120
60,29,105360,120
64,29,105360,120
55,29,105480,110
55,29,105840,60
60,29,105840,60
64,29,105840,60
55,29,106320,60
60,29,106320,60
64,29,106320,60
57,29,106800,120
60,29,106800,120
64,29,106800,120
55,29,106920,110
55,29,107280,60
60,29,107280,60
64,29,107280,60
55,29,107760,60
60,29,107760,60
64,29,107760,60
57,29,108240,120
59,29,108240,120
65,29,108240,120
55,29,108360,110
57,30,108720,120
59,30,108720,120
65,30,108720,120
55,30,108840,120
57,32,109200,120
59,32,109200,120
65,32,109200,120
55,32,109320,120
57,33,109680,120
59,33,109680,120
65,33,109680,120
55,33,109800,120
57,34,110160,120
59,34,110160,120
65,34,110160,120
55,35,110280,120
57,36,110640,120
59,36,110640,120
65,36,110640,120
55,37,110760,120
84,54,110880,120
72,54,110880,120
86,56,111120,120
74,56,111120,120
76,59,111360,480
88,59,111360,480
74,55,111840,120
86,55,111840,120
72,51,112080,120
84,51,112080,120
74,44,112200,60
86,44,112200,60
76,44,112260,60
88,44,112260,60
86,55,112320,480
74,55,112320,480
72,52,112800,120
84,52,112800,120
67,50,113040,120
79,50,113040,120
64,56,113280,240
76,56,113280,240
68,45,113520,240
74,45,113520,240
70,45,113760,240
73,45,113760,240
72,47,114000,240
75,47,114000,240
73,49,114240,240
76,49,114240,240
82,51,114480,240
76,51,114480,240
81,53,114720,240
79,53,114720,240
88,54,114960,240
79,54,114960,240
86,59,115200,240
77,59,115200,240
75,54,115440,240
81,54,115440,240
74,57,115680,240
80,57,115680,240
85,51,115920,240
76,51,115920,240
78,60,116160,480
86,60,116160,480
86,64,116640,120
74,55,116640,120
88,67,116880,120
76,56,116880,120
77,59,117120,480
89,70,117120,480
76,56,117600,120
88,66,117600,120
74,51,117840,120
86,61,117840,120
76,44,117960,60
88,52,117960,60
77,44,118020,60
89,52,118020,60
88,66,118080,480
76,56,118080,480
74,52,118560,120
86,62,118560,120
69,49,118800,120
81,58,118800,120
65,46,119040,120
77,55,119040,120
69,49,119280,240
76,58,119280,240
69,45,119520,240
75,45,119520,240
72,47,119760,240
76,47,119760,240
75,49,120000,240
78,49,120000,240
81,51,120240,240
79,51,120240,240
84,53,120480,240
78,53,120480,240
83,54,120720,240
81,54,120720,240
91,59,120960,240
79,59,120960,240
75,54,121200,240
84,54,121200,240
76,57,121440,240
83,57,121440,240
87,51,121680,240
81,51,121680,240
79,60,121920,480
88,60,121920,480
88,64,122400,120
76,55,122400,120
90,67,122640,120
78,56,122640,120
79,59,122880,480
91,70,122880,480
78,56,123360,120
90,66,123360,120
76,51,123600,120
88,61,123600,120
78,44,123720,60
90,52,123720,60
79,44,123780,60
91,52,123780,60
90,66,123840,480
78,56,123840,480
76,52,124320,120
88,62,124320,120
71,49,124560,120
83,58,124560,120
67,46,124800,480
79,55,124800,480
91,70,125280,120
79,59,125280,120
93,73,125520,120
81,61,125520,120
82,64,125760,480
94,77,125760,480
81,61,126240,120
93,72,126240,120
79,56,126480,120
91,67,126480,120
81,48,126600,60
93,57,126600,60
82,48,126660,60
94,57,126660,60
93,72,126720,480
81,61,126720,480
79,57,127200,120
91,68,127200,120
74,53,127440,120
86,63,127440,120
70,50,127680,480
82,60,127680,480
94,77,128160,120
82,64,128160,120
96,80,128400,120
84,67,128400,120
85,70,128640,120
97,84,128640,120
99,75,128880,120
87,62,128880,120
85,67,129120,120
97,79,129120,120
84,61,129360,120
96,73,129360,120
95,79,129600,120
83,67,129600,120
94,70,129840,120
82,59,129840,120
79,62,130080,120
91,74,130080,120
76,58,130320,120
88,69,130320,120
73,55,130560,120
85,66,130560,120
82,55,130800,120
70,55,130800,120
88,75,131040,120
76,67,131040,120
85,67,131280,120
73,59,131280,120
70,58,131520,120
82,70,131520,120
67,58,131760,120
79,69,131760,120
64,55,132000,120
76,66,132000,120
73,55,132240,120
61,55,132240,120
82,71,132480,120
70,60,132480,120
79,63,132720,120
67,53,132720,120
64,52,132960,120
76,63,132960,120
61,52,133200,120
73,62,133200,120
61,49,133440,240
58,49,133440,240
70,59,133440,240
67,49,133680,240
73,49,133680,240
61,49,133680,240
71,54,133920,240
59,45,133920,240
73,56,134160,240
61,47,134160,240
71,59,134400,480
63,50,134400,480
75,59,134400,480
61,46,134880,240
73,55,134880,240
59,43,135120,240
71,51,135120,240
67,55,135360,480
73,55,135360,480
61,46,135360,480
59,44,135840,240
71,52,135840,240
58,42,136080,240
70,50,136080,240
55,45,136320,480
67,53,136320,480
71,56,136800,240
59,47,136800,240
73,58,137040,240
61,49,137040,240
71,61,137280,480
63,52,137280,480
75,61,137280,480
61,48,137760,240
73,57,137760,240
59,45,138000,240
71,53,138000,240
67,57,138240,480
73,57,138240,480
61,48,138240,480
59,47,138720,240
71,55,138720,240
58,46,138960,240
70,54,138960,240
55,49,139200,480
67,58,139200,480
71,67,139680,240
59,56,139680,240
73,70,139920,240
61,58,139920,240
71,65,140160,480
63,63,140160,480
75,73,140160,480
61,57,140640,240
73,69,140640,240
59,53,140880,240
71,64,140880,240
69,58,141120,480
75,70,141120,240
63,58,141120,240
77,73,141360,240
65,60,141360,240
69,68,141600,960
66,66,141600,480
78,76,141600,480
65,59,142080,120
77,72,142080,120
63,55,142320,120
75,67,142320,120
61,64,142560,120
66,64,142560,120
70,64,142560,120
73,75,142560,120
63,59,142800,120
75,71,142800,120
65,66,143040,120
70,66,143040,120
77,77,143040,120
66,61,143280,120
78,74,143280,120
68,68,143520,120
80,79,143520,120
70,64,143760,120
82,76,143760,120
71,71,144000,120
77,84,144000,120
83,84,144000,120
72,66,144240,120
84,78,144240,120
73,72,144480,120
77,85,144480,120
83,85,144480,120
85,85,144480,120
86,81,144720,120
74,69,144720,120
87,89,144960,120
83,89,144960,120
75,75,144960,120
89,85,145200,120
77,71,145200,120
78,61,145440,240
90,86,145440,240
85,61,145440,240
92,89,145680,240
80,63,145680,240
85,79,145920,480
82,68,145920,480
94,94,145920,480
80,62,146400,240
92,88,146400,240
78,57,146640,120
90,81,146640,120
92,75,146760,60
94,75,146820,60
86,88,146880,480
92,88,146880,480
80,62,146880,480
78,59,147360,240
90,83,147360,240
76,56,147600,240
88,80,147600,240
78,61,147840,480
74,61,147840,480
86,84,147840,480
82,64,148320,240
73,64,148320,240
85,76,148320,240
78,64,148320,240
87,78,148560,240
75,66,148560,240
82,68,148800,480
77,68,148800,480
89,80,148800,480
75,64,149280,240
87,76,149280,240
73,59,149520,240
85,70,149520,240
74,55,149760,1440
83,65,149760,1440
71,55,149760,1440
78,61,151200,240
90,86,151200,240
85,61,151200,240
92,89,151440,240
80,63,151440,240
85,79,151680,480
82,68,151680,480
94,94,151680,480
80,62,152160,240
92,88,152160,240
78,57,152400,120
90,81,152400,120
92,75,152520,60
94,75,152580,60
86,88,152640,480
92,88,152640,480
80,62,152640,480
78,59,153120,240
90,83,153120,240
76,56,153360,240
88,80,153360,240
78,61,153600,480
74,61,153600,480
86,84,153600,480
82,64,154080,240
73,64,154080,240
85,76,154080,240
78,64,154080,240
87,78,154320,240
75,66,154320,240
82,68,154560,480
77,68,154560,480
89,80,154560,480
75,64,155040,240
87,76,155040,240
73,59,155280,240
85,70,155280,240
74,55,155520,1440
83,65,155520,1440
71,55,155520,1440
63,35,157200,120
66,35,157200,120
70,35,157200,120
61,35,157320,110
61,35,157680,60
66,35,157680,60
70,35,157680,60
61,35,158160,60
66,35,158160,60
70,35,158160,60
83,53,158640,240
77,47,158640,240
73,44,158640,240
85,60,158640,240
75,48,158880,240
87,68,158880,240
77,54,159120,240
89,64,159120,240
75,57,159360,240
87,68,159360,240
73,55,159600,240
85,65,159600,240
63,35,160080,120
66,35,160080,120
70,35,160080,120
61,35,160200,110
61,35,160560,60
66,35,160560,60
70,35,160560,60
61,35,161040,60
66,35,161040,60
70,35,161040,60
83,49,161520,240
77,46,161520,240
73,44,161520,240
85,60,161520,240
75,48,161760,240
87,68,161760,240
77,54,162000,240
89,64,162000,240
75,57,162240,240
87,68,162240,240
73,55,162480,240
85,65,162480,240
63,35,162960,120
66,35,162960,120
70,35,162960,120
61,35,163080,110
61,35,163440,60
66,35,163440,60
70,35,163440,60
61,35,163920,60
66,35,163920,60
70,35,163920,60
74,73,164400,120
62,61,164400,120
69,61,164400,120
64,66,164640,120
76,79,164640,120
66,62,164880,120
78,74,164880,120
67,66,165120,120
74,66,165120,120
79,79,165120,120
69,61,165360,120
81,73,165360,120
70,66,165600,120
74,66,165600,120
82,79,165600,120
71,67,165840,120
83,80,165840,120
86,83,166080,120
74,71,166080,120
91,83,166320,120
79,71,166320,120
95,84,166560,120
83,71,166560,120
98,86,166800,120
86,73,166800,120
59,50,167280,120
61,50,167280,120
59,54,167520,120
63,54,167520,120
59,50,167760,120
65,50,167760,120
63,45,167880,60
65,46,167940,60
59,54,168000,120
63,54,168000,120
59,50,168240,120
61,50,168240,120
63,35,168720,120
66,35,168720,120
70,35,168720,120
61,35,168840,110
61,35,169200,60
66,35,169200,60
70,35,169200,60
61,35,169680,60
66,35,169680,60
70,35,169680,60
83,53,170160,240
77,47,170160,240
73,44,170160,240
85,60,170160,240
75,48,170400,240
87,68,170400,240
77,54,170640,240
89,64,170640,240
75,57,170880,240
87,68,170880,240
73,55,171120,240
85,65,171120,240
63,35,171600,120
66,35,171600,120
70,35,171600,120
61,35,171720,110
61,35,172080,60
66,35,172080,60
70,35,172080,60
61,35,172560,60
66,35,172560,60
70,35,172560,60
83,49,173040,240
77,46,173040,240
73,44,173040,240
85,60,173040,240
75,48,173280,240
87,68,173280,240
77,54,173520,240
89,64,173520,240
75,57,173760,240
87,68,173760,240
73,55,174000,240
85,65,174000,240
63,35,174480,120
66,35,174480,120
70,35,174480,120
61,35,174600,110
61,35,174960,60
66,35,174960,60
70,35,174960,60
61,35,175440,60
66,35,175440,60
70,35,175440,60
74,73,175920,120
62,61,175920,120
69,61,175920,120
64,66,176160,120
76,79,176160,120
66,62,176400,120
78,74,176400,120
67,66,176640,120
74,66,176640,120
79,79,176640,120
69,61,176880,120
81,73,176880,120
70,66,177120,120
74,66,177120,120
82,79,177120,120
71,61,177360,120
83,77,177360,120
86,83,177600,120
74,71,177600,120
91,83,177840,120
79,71,177840,120
95,84,178080,120
83,71,178080,120
98,86,178320,120
86,73,178320,120
59,50,178800,120
61,50,178800,120
59,54,179040,120
63,54,179040,120
59,50,179280,120
65,50,179280,120
63,45,179400,60
65,46,179460,60
59,54,179520,120
63,54,179520,120
59,50,179760,120
61,50,179760,120
58,76,180000,120
66,79,180000,120
90,57,180240,120
85,48,180240,120
82,48,180240,120
78,57,180360,120
90,57,180720,120
85,48,180720,120
82,48,180720,120
78,57,180840,120
90,57,181200,120
85,48,181200,120
82,48,181200,120
78,57,181320,120
90,57,181680,120
85,48,181680,120
82,48,181680,120
78,57,181800,120
90,57,182160,120
85,48,182160,120
82,48,182160,120
78,57,182280,120
78,54,182640,120
90,64,182640,120
85,54,182640,120
82,54,182640,120
93,91,182880,120
84,77,182880,120
81,77,182880,120
74,51,183120,120
69,43,183120,120
66,43,183120,120
62,51,183240,120
74,51,183600,120
69,43,183600,120
66,43,183600,120
62,51,183720,120
74,51,184080,120
69,43,184080,120
66,43,184080,120
62,51,184200,120
74,51,184560,120
69,43,184560,120
66,43,184560,120
62,51,184680,120
74,51,185040,120
69,43,185040,120
66,43,185040,120
62,51,185160,120
62,48,185520,120
74,57,185520,120
69,48,185520,120
66,48,185520,120
66,76,185760,120
70,76,185760,120
73,76,185760,120
78,91,185760,120
90,57,186000,120
85,48,186000,120
82,48,186000,120
78,57,186120,120
90,57,186480,120
85,48,186480,120
82,48,186480,120
78,57,186600,120
90,57,186960,120
85,48,186960,120
82,48,186960,120
78,57,187080,120
90,57,187440,120
85,48,187440,120
82,48,187440,120
78,57,187560,120
90,57,187920,120
85,48,187920,120
82,48,187920,120
78,57,188040,120
78,54,188400,120
90,64,188400,120
85,54,188400,120
82,54,188400,120
90,91,188640,120
94,91,188640,120
87,76,188640,120
82,76,188640,120
75,51,188880,120
70,43,188880,120
66,43,188880,120
63,51,189000,120
75,51,189360,120
70,43,189360,120
66,43,189360,120
63,51,189480,120
75,51,189840,120
70,43,189840,120
66,43,189840,120
63,51,189960,120
75,51,190320,120
70,43,190320,120
66,43,190320,120
63,51,190440,120
75,51,190800,120
70,43,190800,120
66,43,190800,120
63,51,190920,120
87,74,191040,120
83,74,191040,120
78,63,191040,120
75,63,191040,120
78,64,191280,120
83,64,191280,120
87,77,191280,120
90,77,191280,120
94,82,191520,120
90,82,191520,120
85,69,191520,120
82,69,191520,120
71,57,191760,120
66,48,191760,120
63,48,191760,120
61,57,191880,110
73,59,192240,120
71,49,192240,120
68,49,192240,120
66,59,192360,110
82,61,192720,120
78,51,192720,120
75,51,192720,120
73,62,192840,110
85,63,193200,120
83,53,193200,120
80,53,193200,120
78,64,193320,110
94,66,193680,120
90,55,193680,120
87,55,193680,120
85,66,193800,110
97,68,194160,120
95,57,194160,120
92,57,194160,120
90,68,194280,110
90,92,195360,240
86,92,195360,240
83,77,195360,240
78,77,195360,240
94,97,195840,240
90,97,195840,240
85,82,195840,240
82,82,195840,240
90,82,197280,240
97,82,197280,240
102,97,197280,240
61,75,0,120
68,72,480,120
73,72,960,120
80,72,1440,120
73,71,1920,120
68,71,2400,120
61,75,2880,120
71,45,3360,120
77,64,3360,120
68,45,3360,120
61,72,3840,120
71,45,4320,120
77,68,4320,120
68,45,4320,120
61,74,4800,120
71,45,5280,120
77,67,5280,120
68,45,5280,120
54,51,5760,120
61,49,6240,60
49,49,6720,60
54,51,7200,120
61,49,7680,60
49,49,8160,60
56,51,8640,120
61,51,9120,350
63,55,9600,230
65,58,10080,230
68,61,10560,240
61,58,11040,350
54,51,11520,120
61,49,12000,60
49,49,12480,60
54,51,12960,120
61,49,13440,60
49,49,13920,60
56,51,14400,120
61,51,14880,350
63,55,15360,230
65,58,15840,230
68,61,16320,480
61,58,16800,350
54,54,17280,360
58,54,17280,360
61,50,17640,120
66,50,17760,120
70,54,18000,120
73,56,18240,120
78,54,18480,120
82,63,18720,120
42,58,19140,540
49,61,19170,510
58,70,19200,480
66,53,20160,240
68,55,20400,240
70,56,20640,480
68,54,21120,240
66,50,21360,240
68,56,21600,480
66,54,22080,240
63,50,22320,240
61,47,22560,480
59,59,23040,480
66,59,23040,480
56,56,23520,420
66,56,23520,420
49,42,23940,540
59,43,23970,510
65,54,24000,480
54,54,24480,480
61,54,24480,480
61,49,24960,60
49,49,25440,60
54,51,25920,120
61,49,26400,60
49,49,26880,60
56,51,27360,120
61,51,27840,350
63,55,28320,230
65,58,28800,230
68,61,29280,480
61,58,29760,350
54,51,30240,120
61,49,30720,60
49,49,31200,60
54,51,31680,120
61,49,32160,60
49,49,32640,60
56,51,33120,120
61,51,33600,350
63,55,34080,230
65,58,34560,230
68,61,35040,480
61,58,35520,230
58,54,36000,360
54,54,36000,360
61,50,36360,120
66,50,36480,120
70,54,36720,120
73,56,36960,120
78,54,37200,120
82,63,37440,120
42,58,37860,540
49,61,37890,510
58,70,37920,480
63,49,38880,240
65,50,39120,240
66,51,39360,480
65,49,39840,240
63,46,40080,240
65,51,40320,480
63,49,40800,240
58,46,41040,240
54,42,41280,480
51,55,41760,960
61,55,41760,960
85,58,42240,480
56,39,42720,480
63,49,42720,480
49,53,43200,480
56,53,43200,480
56,49,43680,60
44,49,44160,60
49,51,44640,120
56,49,45120,60
44,49,45600,60
48,51,46080,120
56,51,46560,120
58,55,47040,120
60,58,47520,120
63,61,48000,120
56,58,48480,120
49,51,48960,120
56,49,49440,60
44,49,49920,60
49,51,50400,120
56,49,50880,60
44,49,51360,60
51,51,51840,120
56,51,52320,120
58,55,52800,120
60,58,53280,120
63,61,53760,120
56,58,54240,120
49,54,54720,360
53,54,54720,360
56,50,55080,120
61,50,55200,120
65,54,55440,120
68,56,55680,120
73,54,55920,120
61,56,56100,300
68,56,56130,270
77,63,56160,240
37,58,56640,480
49,70,56640,480
71,49,57600,240
73,50,57840,240
75,51,58080,480
77,49,58560,240
75,46,58800,240
73,51,59040,480
71,49,59520,240
73,46,59760,240
70,42,60000,480
51,43,60480,480
67,43,60480,240
61,43,60480,480
63,39,60720,660
56,44,60960,420
68,44,60960,420
49,35,61380,540
59,36,61410,510
65,45,61440,480
54,45,61920,480
61,45,61920,350
61,49,62400,60
49,49,62880,60
54,51,63360,120
61,49,63840,60
49,49,64320,60
56,51,64800,120
61,51,65280,350
63,55,65760,230
65,58,66240,230
68,61,66720,480
61,58,67200,350
54,51,67680,120
61,49,68160,60
49,49,68640,60
54,51,69120,120
61,49,69600,60
49,49,70080,60
56,51,70560,120
61,51,71040,350
63,55,71520,230
65,58,72000,230
68,61,72480,480
61,58,72960,350
54,54,73440,360
58,54,73440,360
61,50,73800,120
66,50,73920,120
70,54,74160,120
73,56,74400,120
78,54,74640,120
82,63,74880,120
42,58,75300,540
49,61,75330,510
58,70,75360,480
54,32,76320,120
57,40,76320,120
54,28,76560,120
59,35,76560,120
54,36,76800,480
61,45,76800,480
54,32,77280,120
62,40,77280,120
54,28,77520,120
61,35,77520,120
54,41,77760,480
59,41,77760,480
54,42,78240,480
65,53,78240,480
66,50,78720,480
54,40,78720,480
65,53,79200,240
53,42,79200,480
63,49,79440,240
52,40,79680,480
64,50,79680,480
62,45,80160,480
52,36,80160,480
57,56,80640,240
76,57,81120,240
52,53,81600,480
57,32,82080,120
64,40,82080,120
57,28,82320,120
65,35,82320,120
57,36,82560,480
67,45,82560,480
57,32,83040,120
69,40,83040,120
57,28,83280,120
67,35,83280,120
57,31,83520,480
65,39,83520,480
57,36,84000,120
64,45,84000,120
57,31,84240,120
62,39,84240,120
61,44,84480,480
57,35,84480,480
67,45,84960,240
62,48,85200,240
61,53,85440,480
57,49,85920,480
62,70,86400,240
81,69,86880,240
69,66,87360,480
65,40,87840,120
64,35,88080,120
62,45,88320,480
64,40,88800,120
65,35,89040,120
64,39,89280,480
62,45,89760,240
60,39,90000,240
59,44,90240,480
53,45,90720,480
59,45,90720,480
77,59,91200,480
78,55,91680,480
35,60,91920,240
47,60,91920,240
28,70,92160,240
40,70,92160,240
71,70,92640,240
47,66,93120,480
45,66,93600,480
52,66,93600,480
62,58,94080,240
40,59,94560,240
45,56,95040,240
52,56,95040,240
61,56,95040,240
63,51,95280,120
64,55,95520,120
69,58,95760,120
73,62,96000,120
76,65,96240,120
66,69,96480,240
73,69,96480,240
78,60,96960,480
59,59,97440,240
63,63,97440,480
47,53,97680,240
52,63,97920,240
40,69,98400,240
48,51,99360,120
55,49,99840,60
43,49,100320,60
48,51,100800,120
55,49,101280,60
43,49,101760,60
50,51,102240,120
55,51,102720,350
57,55,103200,480
59,58,103680,230
62,59,104160,480
55,58,104640,250
48,43,105120,120
55,41,105600,60
43,41,106080,60
48,43,106560,120
55,41,107040,60
43,41,107520,60
50,43,108000,120
55,43,108480,350
57,46,108960,230
59,49,109440,230
62,50,109920,480
55,49,110400,350
64,44,110880,120
67,45,111120,120
72,45,111360,120
71,43,111600,120
70,44,111840,120
69,41,112080,120
68,45,112320,120
66,42,112560,120
67,44,112800,120
64,41,113040,120
60,37,113280,120
58,37,113520,240
57,34,113760,240
66,36,114000,240
67,37,114240,240
62,39,114480,240
61,41,114720,240
57,43,114960,240
62,45,115200,1200
72,42,115440,240
71,44,115680,240
70,45,115920,240
69,47,116160,480
57,37,116400,240
65,48,116640,120
69,49,116880,120
74,49,117120,120
73,47,117360,120
72,48,117600,120
71,45,117840,120
70,49,118080,120
68,46,118320,120
69,48,118560,120
65,45,118800,120
62,40,119040,120
60,40,119280,240
59,34,119520,1200
67,36,119760,240
69,37,120000,240
64,39,120240,240
63,41,120480,240
59,43,120720,240
64,45,120960,1200
69,42,121200,240
67,44,121440,240
72,45,121680,240
71,47,121920,480
59,37,122160,240
67,48,122400,120
71,49,122640,120
76,49,122880,120
75,47,123120,120
74,48,123360,120
73,45,123600,120
72,49,123840,120
70,46,124080,120
71,48,124320,120
67,45,124560,120
64,40,124800,120
59,40,125040,120
70,52,125280,120
74,53,125520,120
79,53,125760,120
78,51,126000,120
77,52,126240,120
76,49,126480,120
75,53,126720,120
73,50,126960,120
74,52,127200,120
70,49,127440,120
67,44,127680,120
62,44,127920,120
79,57,128160,120
81,58,128400,120
82,58,128640,120
84,56,128880,120
82,57,129120,120
81,53,129360,120
80,58,129600,120
79,55,129840,120
76,57,130080,120
73,53,130320,120
70,48,130560,120
67,48,130800,120
73,58,131040,120
70,55,131280,120
67,54,131520,120
64,53,131760,120
61,48,132000,120
58,48,132240,120
67,52,132480,120
64,49,132720,120
61,48,132960,120
58,47,133200,120
55,43,133440,240
52,43,133680,240
35,44,133920,240
42,45,134160,240
43,45,134400,240
42,43,134640,240
47,44,134880,240
51,41,135120,240
52,45,135360,240
54,39,135600,240
55,44,135840,240
52,41,136080,240
58,37,136320,240
59,37,136560,240
35,46,136800,240
42,47,137040,240
43,47,137280,240
42,45,137520,240
47,46,137760,240
51,43,138000,240
52,47,138240,240
54,38,138480,240
55,47,138720,240
52,45,138960,240
58,40,139200,240
59,40,139440,240
35,54,139680,240
42,56,139920,240
43,56,140160,240
42,53,140400,240
47,54,140640,240
51,51,140880,240
48,56,141120,240
56,58,141360,240
57,58,141600,240
60,55,141840,240
63,56,142080,240
66,53,142320,240
49,55,142560,240
66,51,143040,240
58,51,143040,240
61,51,143040,240
49,54,143520,240
37,61,144000,240
71,47,144480,240
65,42,144480,240
61,40,144480,240
37,61,144960,480
49,61,144960,480
42,70,145440,240
49,63,145680,480
58,75,145680,480
49,57,146160,240
58,68,146160,240
42,70,146400,240
49,55,146640,240
58,65,146640,240
42,72,146880,240
50,54,147120,480
59,63,147120,480
50,55,147600,240
59,65,147600,240
42,59,147840,240
50,50,148080,240
59,59,148080,240
42,63,148320,240
49,56,148560,480
58,67,148560,480
49,51,149040,240
58,61,149040,240
42,63,149280,240
49,49,149520,240
58,58,149520,240
42,64,149760,240
53,48,150000,480
62,56,150000,480
53,46,150480,240
62,55,150480,240
42,50,150720,240
53,42,150960,240
62,50,150960,240
42,70,151200,240
49,63,151440,480
58,75,151440,480
49,57,151920,240
58,68,151920,240
42,70,152160,240
49,55,152400,240
58,65,152400,240
42,72,152640,240
50,54,152880,480
59,63,152880,480
50,55,153360,240
59,65,153360,240
42,59,153600,240
50,50,153840,240
59,59,153840,240
42,63,154080,240
49,56,154320,480
58,67,154320,480
49,51,154800,240
58,61,154800,240
42,63,155040,240
49,49,155280,240
58,58,155280,240
42,64,155520,240
53,48,155760,480
62,56,155760,480
53,46,156240,240
62,55,156240,240
42,50,156480,240
53,42,156720,240
62,50,156720,240
54,51,156960,120
61,49,157440,60
49,49,157920,60
56,48,158400,240
61,44,158640,480
65,44,158640,480
71,53,158640,480
61,32,159120,240
65,32,159120,240
71,45,159120,240
49,53,159360,240
61,31,159600,240
65,31,159600,240
71,43,159600,240
54,51,159840,120
61,49,160320,60
49,49,160800,60
56,48,161280,240
61,44,161520,480
65,44,161520,480
71,53,161520,480
61,32,162000,240
65,32,162000,240
71,45,162000,240
49,53,162240,240
61,31,162480,240
65,31,162480,240
71,43,162480,240
54,51,162720,120
61,49,163200,60
49,49,163680,60
42,58,164160,480
50,52,164640,480
60,52,164640,480
38,52,165120,480
43,59,165600,480
50,55,166080,480
59,55,166080,480
43,55,166560,480
49,50,167040,1440
53,38,167280,60
54,45,167520,60
56,39,167760,60
54,44,168000,60
53,40,168240,60
54,51,168480,120
61,49,168960,60
49,49,169440,60
56,48,169920,240
61,44,170160,480
65,44,170160,480
71,53,170160,480
61,32,170640,240
65,32,170640,240
71,45,170640,240
49,53,170880,240
61,31,171120,240
65,31,171120,240
71,43,171120,240
54,51,171360,120
61,49,171840,60
49,49,172320,60
56,48,172800,240
61,44,173040,480
65,44,173040,480
71,53,173040,480
61,32,173520,240
65,32,173520,240
71,45,173520,240
49,53,173760,240
61,31,174000,240
65,31,174000,240
71,43,174000,240
54,51,174240,120
61,49,174720,60
49,49,175200,60
42,58,175680,480
50,52,176160,480
60,52,176160,480
38,52,176640,480
43,59,177120,480
50,55,177600,480
59,55,177600,480
43,55,178080,480
49,50,178560,1440
53,38,178800,60
54,45,179040,60
56,39,179280,60
54,44,179520,60
53,40,179760,60
42,61,180000,240
49,61,180000,240
80,69,180480,120
80,69,180960,120
80,69,181440,120
80,69,181920,120
80,69,182400,120
54,73,182880,240
50,73,182880,240
42,62,182880,240
64,64,183360,120
64,64,183840,120
64,64,184320,120
64,64,184800,120
64,64,185280,120
49,61,185760,240
42,61,185760,240
54,73,185760,240
80,68,186240,120
80,68,186720,120
80,68,187200,120
80,68,187680,120
80,68,188160,120
51,73,188640,240
46,61,188640,240
39,61,188640,240
65,64,189120,120
65,64,189600,120
65,64,190080,120
65,64,190560,120
47,52,191040,120
54,62,191040,120
59,62,191040,120
47,51,191280,120
54,61,191280,120
59,61,191280,120
42,58,191520,240
49,58,191520,240
54,69,191520,240
61,68,192000,120
66,72,192480,120
73,73,192960,120
78,77,193440,120
85,79,193920,120
90,90,194400,240
47,55,195360,240
54,55,195360,240
59,66,195360,240
42,61,195780,300
49,61,195810,270
58,73,195840,240
54,62,197220,300
61,62,197250,270
70,73,197280,240
