note,velocity,position,duration
72,29,660,300
77,29,680,280
81,29,700,260
84,36,720,240
81,27,960,240
84,34,960,240
77,27,960,240
72,27,960,240
84,34,1200,180
72,27,1200,180
81,27,1200,180
77,27,1200,180
72,29,1380,300
77,29,1400,280
81,29,1420,260
84,36,1440,240
77,27,1680,240
72,27,1680,240
84,34,1680,240
81,27,1680,240
77,27,1920,180
84,34,1920,180
81,27,1920,180
72,27,1920,180
72,29,2100,300
77,29,2120,280
81,29,2140,260
84,36,2160,240
81,27,2400,240
84,34,2400,240
72,27,2400,240
77,27,2400,240
81,27,2640,180
77,27,2640,180
84,34,2640,180
72,27,2640,180
72,29,2820,300
77,29,2840,280
81,29,2860,260
84,36,2880,240
81,27,3120,240
84,34,3120,240
77,27,3120,240
72,27,3120,240
84,34,3360,180
72,27,3360,180
81,27,3360,180
77,27,3360,180
72,29,3540,300
77,29,3560,280
81,29,3580,260
84,36,3600,240
77,27,3840,240
72,27,3840,240
84,34,3840,240
81,27,3840,240
77,27,4080,180
84,34,4080,180
81,27,4080,180
72,27,4080,180
72,29,4260,300
77,29,4280,280
81,29,4300,260
84,36,4320,240
84,34,4560,240
72,27,4560,240
81,27,4560,240
77,27,4560,240
77,27,4800,180
72,27,4800,180
84,34,4800,180
81,27,4800,180
72,29,4980,300
77,29,5000,280
81,29,5020,260
84,36,5040,240
81,27,5280,240
77,27,5280,240
84,34,5280,240
72,27,5280,240
81,27,5520,180
84,34,5520,180
72,27,5520,180
77,27,5520,180
72,29,5700,300
77,29,5720,280
81,29,5740,260
84,36,5760,240
84,34,6000,240
72,27,6000,240
77,27,6000,240
81,27,6000,240
81,27,6240,180
84,34,6240,180
77,27,6240,180
72,27,6240,180
76,29,6420,280
72,29,6420,300
84,36,6480,240
82,29,6480,260
84,34,6720,240
72,27,6720,240
82,27,6720,20
76,27,6720,240
76,27,6960,180
72,27,6960,180
84,34,6960,180
82,27,6960,180
76,29,7140,280
72,29,7140,300
82,29,7200,260
84,36,7200,240
82,27,7440,20
76,27,7440,240
84,34,7440,240
72,27,7440,240
82,27,7680,180
84,34,7680,180
72,27,7680,180
76,27,7680,180
76,29,7860,280
72,29,7860,300
84,36,7920,240
82,29,7920,260
84,34,8160,240
72,27,8160,240
82,27,8160,20
76,27,8160,240
76,27,8400,180
72,27,8400,180
84,34,8400,180
82,27,8400,180
76,29,8580,280
72,29,8580,300
82,29,8640,260
84,36,8640,240
82,27,8880,20
76,27,8880,240
84,34,8880,240
72,27,8880,240
82,27,9120,180
84,34,9120,180
72,27,9120,180
76,27,9120,180
72,29,9300,300
76,29,9300,280
82,29,9360,260
84,36,9360,240
84,34,9600,240
72,27,9600,240
76,27,9600,240
82,27,9600,20
82,28,9840,180
84,36,9840,180
76,28,9840,180
72,28,9840,180
76,31,10020,280
72,31,10020,300
84,39,10080,240
82,31,10080,260
84,37,10320,240
72,29,10320,240
82,29,10320,20
76,29,10320,240
76,29,10560,180
72,29,10560,180
84,37,10560,180
82,29,10560,180
76,31,10740,280
72,31,10740,300
82,29,10800,260
84,36,10800,240
82,27,11040,20
76,27,11040,240
84,34,11040,240
72,27,11040,240
82,27,11280,180
84,34,11280,180
72,27,11280,180
76,27,11280,180
76,29,11460,280
72,29,11460,300
84,36,11520,240
82,29,11520,260
76,27,11760,240
84,34,11760,240
82,27,11760,20
72,27,11760,240
82,27,12000,180
76,27,12000,180
84,34,12000,180
72,27,12000,180
72,29,12180,300
77,29,12200,280
81,29,12220,260
84,36,12240,240
81,27,12480,240
84,34,12480,240
77,27,12480,240
72,27,12480,240
84,34,12720,180
72,27,12720,180
81,27,12720,180
77,27,12720,180
72,29,12900,300
77,29,12920,280
81,29,12940,260
84,36,12960,240
77,27,13200,240
72,27,13200,240
84,34,13200,240
81,27,13200,240
84,34,13440,180
72,27,13440,180
81,27,13440,180
77,27,13440,180
72,29,13620,300
77,29,13640,280
81,29,13660,260
84,36,13680,240
77,27,13920,240
84,34,13920,240
81,27,13920,240
72,27,13920,240
81,27,14160,180
77,27,14160,180
84,34,14160,180
72,27,14160,180
72,29,14340,300
77,29,14360,280
81,29,14380,260
84,36,14400,240
81,27,14640,240
84,34,14640,240
77,27,14640,240
72,27,14640,240
84,34,14880,180
72,27,14880,180
77,27,14880,180
81,27,14880,180
72,29,15060,300
75,29,15080,280
80,29,15100,260
84,36,15120,240
75,27,15360,240
84,33,15360,240
80,27,15360,240
72,27,15360,240
80,27,15600,180
75,27,15600,180
84,33,15600,180
72,27,15600,180
72,29,15780,300
75,29,15800,280
80,29,15820,260
84,36,15840,240
80,27,16080,240
84,33,16080,240
75,27,16080,240
72,27,16080,240
84,33,16320,180
72,27,16320,180
80,27,16320,180
75,27,16320,180
72,29,16500,300
75,29,16520,280
80,29,16540,260
84,36,16560,240
75,27,16800,240
72,27,16800,240
84,33,16800,240
80,27,16800,240
84,33,17040,180
72,27,17040,180
80,27,17040,180
75,27,17040,180
72,29,17220,300
75,29,17240,280
80,29,17260,260
84,36,17280,240
75,27,17520,240
84,33,17520,240
80,27,17520,240
72,27,17520,240
80,27,17760,240
75,27,17760,240
84,33,17760,240
72,27,17760,240
76,29,18000,240
72,29,18000,240
84,36,18000,240
82,29,18000,240
82,27,18240,240
84,34,18240,240
76,27,18240,240
72,27,18240,240
84,34,18480,240
72,27,18480,240
76,27,18480,240
82,27,18480,240
76,29,18720,240
82,29,18720,240
72,29,18720,240
84,36,18720,240
82,28,18960,240
84,35,18960,240
72,28,18960,240
76,28,18960,240
82,30,19200,240
84,37,19200,240
76,30,19200,240
72,30,19200,240
72,34,19440,240
84,40,19440,240
77,34,19440,240
81,34,19440,240
84,38,19680,240
72,30,19680,240
81,30,19680,240
77,30,19680,240
77,30,19920,240
72,30,19920,240
84,38,19920,240
81,30,19920,240
78,34,20160,240
72,34,20160,240
74,34,20160,240
86,40,20160,240
81,34,20160,240
86,38,20400,240
81,30,20400,240
74,30,20400,240
78,30,20400,240
72,30,20400,240
72,30,20640,240
78,30,20640,240
74,30,20640,240
86,38,20640,240
81,30,20640,240
79,34,20880,240
70,34,20880,240
74,34,20880,240
82,40,20880,240
79,30,21120,240
74,30,21120,240
82,38,21120,240
70,30,21120,240
79,30,21360,240
82,38,21360,240
70,30,21360,240
74,30,21360,240
72,34,21600,240
70,34,21600,240
76,34,21600,240
82,40,21600,240
82,38,21840,240
70,30,21840,240
72,30,21840,240
76,30,21840,240
72,30,22080,240
70,30,22080,240
76,30,22080,240
82,38,22080,240
77,34,22320,240
69,28,22320,240
72,28,22320,240
81,40,22320,240
77,27,22560,240
72,23,22560,240
81,34,22560,240
69,23,22560,240
77,27,22800,240
81,34,22800,240
69,23,22800,240
72,23,22800,240
72,26,23040,240
69,26,23040,240
77,31,23040,240
81,31,23040,240
81,29,23280,240
69,24,23280,240
77,29,23280,240
72,24,23280,240
81,29,23520,240
69,24,23520,240
77,29,23520,240
72,24,23520,240
77,29,23760,240
81,36,23760,240
69,25,23760,240
73,25,23760,240
81,29,24000,240
69,19,24000,240
77,24,24000,240
73,19,24000,240
73,19,24240,240
69,19,24240,240
81,29,24240,240
77,24,24240,240
77,28,24480,240
69,23,24480,240
73,23,24480,240
81,28,24480,240
77,26,24720,240
73,20,24720,240
81,26,24720,240
69,20,24720,240
77,26,24960,240
81,26,24960,240
69,20,24960,240
73,20,24960,240
72,27,25200,240
69,27,25200,240
77,33,25200,240
81,38,25200,240
81,33,25440,240
69,22,25440,240
72,22,25440,240
77,26,25440,240
77,26,25680,240
72,22,25680,240
81,33,25680,240
69,22,25680,240
72,26,25920,240
69,26,25920,240
81,31,25920,240
77,31,25920,240
77,29,26160,240
81,29,26160,240
72,24,26160,240
69,24,26160,240
81,29,26400,240
69,24,26400,240
77,29,26400,240
72,24,26400,240
69,25,26640,240
81,36,26640,240
73,25,26640,240
77,29,26640,240
73,19,26880,240
69,19,26880,240
81,29,26880,240
77,24,26880,240
73,19,27120,240
81,29,27120,240
77,24,27120,240
69,19,27120,240
77,28,27360,240
81,28,27360,240
73,23,27360,240
69,23,27360,240
73,20,27600,240
81,26,27600,240
77,26,27600,240
69,20,27600,240
77,26,27840,240
73,20,27840,240
81,26,27840,240
69,20,27840,240
72,29,28080,240
69,29,28080,240
81,29,28080,240
77,29,28080,240
77,27,28320,240
81,27,28320,240
72,27,28320,240
69,27,28320,240
81,27,28560,240
69,27,28560,240
77,27,28560,240
72,27,28560,240
69,26,28800,240
81,26,28800,240
72,26,28800,240
77,26,28800,240
77,57,32400,720
76,55,33120,480
72,52,33600,240
84,58,33845,715
79,53,34680,120
80,56,34800,120
82,50,34920,60
80,41,34980,30
82,41,35010,30
80,49,35040,120
79,50,35160,120
84,53,35280,120
77,53,35400,120
79,56,35520,120
80,50,35640,60
79,44,35700,30
80,41,35730,30
79,52,35760,120
77,50,35880,120
76,53,36000,120
72,53,36120,120
71,56,36240,120
72,50,36360,120
75,52,36480,120
73,50,36600,120
72,49,36720,120
65,49,36840,120
67,51,36960,120
68,46,37080,60
67,40,37140,30
68,38,37170,30
67,48,37200,120
65,46,37320,120
64,49,37440,120
61,49,37560,120
60,49,37680,120
58,39,37800,120
56,44,37920,120
55,38,38040,120
77,50,38160,720
76,49,38880,480
72,47,39360,240
84,51,39600,720
79,48,40440,120
81,49,40560,120
82,45,40680,60
81,37,40740,30
82,37,40770,30
81,44,40800,120
79,45,40920,120
84,48,41040,120
77,48,41160,120
79,49,41280,120
81,45,41400,60
79,39,41460,30
81,37,41490,30
79,47,41520,120
77,45,41640,120
82,48,41760,480
76,48,41760,120
74,48,41880,120
76,49,42000,120
72,45,42120,120
81,45,42240,240
70,47,42240,120
72,45,42360,120
69,44,42480,1440
77,44,42480,1440
65,57,43920,720
63,55,44640,238
57,52,45120,180
56,51,45300,80
68,58,45360,720
66,53,46200,120
68,53,46320,120
69,50,46440,60
68,41,46500,30
69,41,46530,30
68,49,46560,120
66,50,46680,120
65,53,46800,120
66,53,46920,120
68,56,47040,120
66,50,47160,120
65,52,47280,120
68,50,47400,60
66,46,47460,30
68,46,47490,30
66,55,47520,120
65,51,47640,120
63,55,47760,360
65,50,47880,120
66,52,48000,120
63,50,48120,120
65,49,48240,360
56,46,48600,120
61,48,48720,240
59,41,49080,120
57,49,49200,120
56,40,49320,120
57,47,49440,120
59,40,49560,60
56,53,49620,80
65,57,49680,720
63,55,50400,238
57,52,50880,180
56,51,51060,80
68,58,51120,720
66,53,51960,120
68,53,52080,120
69,56,52200,120
71,59,52320,120
73,61,52440,60
71,53,52500,30
73,53,52530,30
71,62,52560,120
69,57,52680,120
68,62,52800,120
66,58,52920,120
68,60,53040,120
69,56,53160,60
66,51,53220,30
68,52,53250,30
66,58,53280,120
65,52,53400,120
63,51,53520,480
65,44,53640,120
66,49,53760,120
68,44,53880,120
73,26,54000,240
68,26,54000,240
65,26,54000,240
77,31,54000,240
77,29,54240,240
73,24,54240,240
68,24,54240,240
65,24,54240,240
77,29,54480,240
73,24,54480,240
68,24,54480,240
65,24,54480,240
73,26,54720,240
68,26,54720,240
65,26,54720,240
77,31,54720,240
77,29,54960,240
73,24,54960,240
68,24,54960,240
65,24,54960,240
77,29,55200,240
73,24,55200,240
68,24,55200,240
65,24,55200,240
73,26,55440,240
68,26,55440,240
65,26,55440,240
77,31,55440,240
77,29,55680,240
73,24,55680,240
68,24,55680,240
65,24,55680,240
77,29,55920,240
73,24,55920,240
68,24,55920,240
65,24,55920,240
73,26,56160,240
68,26,56160,240
65,26,56160,240
77,31,56160,240
77,29,56400,240
73,24,56400,240
68,24,56400,240
65,24,56400,240
77,29,56640,240
73,24,56640,240
68,24,56640,240
65,24,56640,240
73,26,56880,240
68,26,56880,240
65,26,56880,240
77,31,56880,240
77,29,57120,240
73,24,57120,240
68,24,57120,240
65,24,57120,240
77,29,57360,240
73,24,57360,240
68,24,57360,240
65,24,57360,240
73,26,57600,240
68,26,57600,240
65,26,57600,240
77,31,57600,240
77,29,57840,240
73,24,57840,240
68,24,57840,240
65,24,57840,240
77,29,58080,240
73,24,58080,240
68,24,58080,240
65,24,58080,240
73,26,58320,240
68,26,58320,240
65,26,58320,240
77,31,58320,240
77,29,58560,240
73,24,58560,240
68,24,58560,240
65,24,58560,240
77,29,58800,240
73,24,58800,240
68,24,58800,240
65,24,58800,240
73,26,59040,240
68,26,59040,240
65,26,59040,240
77,31,59040,240
77,29,59280,240
73,24,59280,240
68,24,59280,240
65,24,59280,240
77,29,59520,240
73,24,59520,240
68,24,59520,240
65,24,59520,240
73,26,59760,240
67,26,59760,240
65,26,59760,240
77,31,59760,240
77,29,60000,240
73,24,60000,240
67,24,60000,240
65,24,60000,240
77,29,60240,240
73,24,60240,240
67,24,60240,240
65,24,60240,240
73,26,60480,240
67,26,60480,240
65,26,60480,240
77,31,60480,240
77,29,60720,240
73,24,60720,240
67,24,60720,240
65,24,60720,240
77,29,60960,240
73,24,60960,240
67,24,60960,240
65,24,60960,240
73,26,61200,240
67,26,61200,240
65,26,61200,240
77,31,61200,240
77,29,61440,240
73,24,61440,240
67,24,61440,240
65,24,61440,240
77,29,61680,240
73,24,61680,240
67,24,61680,240
65,24,61680,240
73,26,61920,240
67,26,61920,240
70,26,61920,240
76,31,61920,240
76,29,62160,240
73,24,62160,240
67,24,62160,240
70,24,62160,240
76,29,62400,240
73,24,62400,240
67,24,62400,240
70,24,62400,240
77,57,62640,720
76,55,63360,480
72,52,63840,240
84,58,64085,715
79,53,64920,120
80,56,65040,120
82,50,65160,60
80,41,65220,30
82,41,65250,30
80,49,65280,120
79,50,65400,120
84,53,65520,120
77,53,65640,120
79,56,65760,120
80,50,65880,60
79,44,65940,30
80,41,65970,30
79,52,66000,120
77,50,66120,120
76,53,66240,120
72,53,66360,120
71,56,66480,120
72,50,66600,120
75,52,66720,120
73,50,66840,120
72,49,66960,1440
65,49,67080,120
67,51,67200,120
68,46,67320,60
67,40,67380,30
68,38,67410,30
67,48,67440,120
65,46,67560,120
64,49,67680,120
61,49,67800,120
60,49,67920,120
58,39,68040,120
56,44,68160,120
55,38,68280,120
77,50,68400,720
76,49,69120,480
72,47,69600,240
84,51,69840,720
79,48,70680,120
81,49,70800,120
82,45,70920,60
81,37,70980,30
82,37,71010,30
81,44,71040,120
79,45,71160,120
84,48,71280,120
77,48,71400,120
79,49,71520,120
81,45,71640,60
79,39,71700,30
81,37,71730,30
79,47,71760,120
77,45,71880,120
82,48,72000,480
76,48,72000,120
74,48,72120,120
76,49,72240,120
72,45,72360,120
81,45,72480,240
70,47,72480,120
72,45,72600,120
69,44,72720,959
77,44,72720,1440
57,46,74160,720
61,46,74160,720
69,56,74160,120
67,52,74280,120
65,51,74400,1200
57,46,75600,720
60,46,75600,720
69,56,75600,120
67,52,75720,120
65,51,75840,1200
57,42,77040,720
61,42,77040,720
69,51,77040,120
67,48,77160,120
65,47,77280,1200
57,42,78480,720
60,42,78480,720
69,51,78480,120
67,48,78600,120
65,47,78720,1200
61,56,79920,120
65,56,79920,120
63,52,80040,120
61,51,80160,480
61,51,80640,120
65,51,80640,120
63,48,80760,120
61,47,80880,480
55,41,81840,480
60,41,81840,480
64,41,81840,480
67,52,81840,480
55,33,82320,480
61,33,82320,480
65,33,82320,480
67,42,82320,480
55,41,83280,480
60,41,83280,480
64,41,83280,480
67,52,83280,480
55,33,83760,480
61,33,83760,480
65,33,83760,480
67,42,83760,480
53,40,84480,120
55,37,84600,120
58,43,84720,120
61,40,84840,120
55,43,84960,120
52,43,84960,120
60,39,85080,120
65,49,85200,120
67,46,85320,120
70,50,85440,120
73,48,85560,120
67,52,85680,120
64,52,85680,120
72,48,85800,120
77,53,85920,120
79,50,86040,120
82,56,86160,120
85,52,86280,120
84,55,86400,120
76,55,86400,120
79,50,86520,120
74,52,86640,120
82,52,86640,120
76,42,86760,120
70,48,86880,120
81,48,86880,120
72,37,87000,120
72,26,87060,60
77,26,87080,280
81,26,87100,260
84,31,87120,240
84,29,87360,240
81,24,87360,240
77,24,87360,240
72,24,87360,240
84,29,87600,180
81,24,87600,180
77,24,87600,180
72,24,87600,180
72,26,87780,300
77,26,87800,280
81,26,87820,260
84,31,87840,240
84,29,88080,240
81,24,88080,240
77,24,88080,240
72,24,88080,240
84,29,88320,180
81,24,88320,180
77,24,88320,180
72,24,88320,180
72,26,88500,300
77,26,88520,280
81,26,88540,260
84,31,88560,240
84,29,88800,240
81,24,88800,240
77,24,88800,240
72,24,88800,240
84,29,89040,180
81,24,89040,180
77,24,89040,180
72,24,89040,180
72,26,89220,300
77,26,89240,280
81,26,89260,260
84,31,89280,240
84,29,89520,240
81,24,89520,240
77,24,89520,240
72,24,89520,240
84,29,89760,180
81,24,89760,180
77,24,89760,180
72,24,89760,180
72,26,89940,300
77,26,89960,280
81,26,89980,260
84,31,90000,240
84,29,90240,240
81,24,90240,240
77,24,90240,240
72,24,90240,240
84,29,90480,180
81,24,90480,180
77,24,90480,180
72,24,90480,180
72,26,90660,300
77,26,90680,280
81,26,90700,260
84,31,90720,240
84,29,90960,240
81,24,90960,240
77,24,90960,240
72,24,90960,240
84,29,91200,180
81,24,91200,180
77,24,91200,180
72,24,91200,180
72,26,91380,300
77,26,91400,280
81,26,91420,260
84,31,91440,240
84,29,91680,240
81,24,91680,240
77,24,91680,240
72,24,91680,240
84,29,91920,180
81,24,91920,180
77,24,91920,180
72,24,91920,180
72,26,92100,300
77,26,92120,280
81,26,92140,260
84,31,92160,240
84,29,92400,240
81,24,92400,240
77,24,92400,240
72,24,92400,240
84,29,92640,180
81,24,92640,180
77,24,92640,180
72,24,92640,180
76,26,92820,280
72,26,92820,300
82,26,92880,260
84,31,92880,240
84,29,93120,240
82,24,93120,20
76,24,93120,240
72,24,93120,240
84,29,93360,180
82,24,93360,180
76,24,93360,180
72,24,93360,180
76,26,93540,280
72,26,93540,300
82,26,93600,260
84,31,93600,240
84,29,93840,240
82,24,93840,20
76,24,93840,240
72,24,93840,240
84,29,94080,180
82,24,94080,180
76,24,94080,180
72,24,94080,180
76,26,94260,280
72,26,94260,300
82,26,94320,260
84,31,94320,240
84,29,94560,240
82,24,94560,20
76,24,94560,240
72,24,94560,240
84,29,94800,180
82,24,94800,180
76,24,94800,180
72,24,94800,180
76,26,94980,280
72,26,94980,300
82,26,95040,260
84,31,95040,240
84,29,95280,240
82,24,95280,20
76,24,95280,240
72,24,95280,240
84,29,95520,180
82,24,95520,180
76,24,95520,180
72,24,95520,180
76,26,95700,280
72,26,95700,300
82,26,95760,260
84,31,95760,240
84,29,96000,240
82,24,96000,20
76,24,96000,240
72,24,96000,240
84,31,96240,180
82,25,96240,180
76,25,96240,180
72,25,96240,180
76,28,96420,280
72,28,96420,300
82,28,96480,260
84,35,96480,240
84,33,96720,240
82,26,96720,20
76,26,96720,240
72,26,96720,240
84,33,96960,180
82,26,96960,180
76,26,96960,180
72,26,96960,180
76,28,97140,280
72,28,97140,300
82,26,97200,260
84,31,97200,240
84,29,97440,240
82,24,97440,20
76,24,97440,240
72,24,97440,240
84,29,97680,180
82,24,97680,180
76,24,97680,180
72,24,97680,180
76,26,97860,280
72,26,97860,300
82,26,97920,260
84,31,97920,240
84,33,98160,240
82,26,98160,20
76,26,98160,240
72,26,98160,240
84,35,98400,180
82,28,98400,180
76,28,98400,180
72,28,98400,180
72,31,98580,300
77,31,98600,280
81,31,98620,260
84,39,98640,240
84,37,98880,240
81,29,98880,240
77,29,98880,240
72,29,98880,240
84,37,99120,180
81,29,99120,180
77,29,99120,180
72,29,99120,180
72,31,99300,300
77,31,99320,280
81,31,99340,260
84,39,99360,240
84,37,99600,240
81,29,99600,240
77,29,99600,240
72,29,99600,240
84,37,99840,180
81,29,99840,180
77,29,99840,180
72,29,99840,180
72,31,100020,300
77,31,100040,280
81,31,100060,260
84,39,100080,240
84,37,100320,240
81,29,100320,240
77,29,100320,240
72,29,100320,240
84,37,100560,180
81,29,100560,180
77,29,100560,180
72,29,100560,180
72,31,100740,300
77,31,100760,280
81,31,100780,260
84,42,100800,240
84,36,101040,240
81,28,101040,240
77,28,101040,240
72,28,101040,240
84,34,101280,180
81,27,101280,180
77,27,101280,180
72,27,101280,180
72,29,101460,300
75,29,101480,280
80,29,101500,260
84,36,101520,240
84,33,101760,240
80,27,101760,240
75,27,101760,240
72,27,101760,240
84,33,102000,180
80,27,102000,180
75,27,102000,180
72,27,102000,180
72,29,102180,300
75,29,102200,280
80,29,102220,260
84,36,102240,240
84,33,102480,240
80,27,102480,240
75,27,102480,240
72,27,102480,240
84,33,102720,180
80,27,102720,180
75,27,102720,180
72,27,102720,180
72,29,102900,300
75,29,102920,280
80,29,102940,260
84,36,102960,240
84,33,103200,240
80,27,103200,240
75,27,103200,240
72,27,103200,240
84,33,103440,180
80,27,103440,180
75,27,103440,180
72,27,103440,180
72,29,103620,300
75,29,103640,280
80,29,103660,260
84,36,103680,240
84,33,103920,240
80,27,103920,240
75,27,103920,240
72,27,103920,240
84,33,104160,240
80,27,104160,240
75,27,104160,240
72,27,104160,240
72,29,104400,240
76,29,104400,240
82,29,104400,240
84,36,104400,240
84,34,104640,240
82,27,104640,240
76,27,104640,240
72,27,104640,240
84,34,104880,240
82,27,104880,240
76,27,104880,240
72,27,104880,240
72,29,105120,240
76,29,105120,240
82,29,105120,240
84,36,105120,240
84,35,105360,240
82,28,105360,240
76,28,105360,240
72,28,105360,240
84,37,105600,240
82,30,105600,240
76,30,105600,240
72,30,105600,240
72,34,105840,240
77,34,105840,240
81,34,105840,240
84,40,105840,240
84,38,106080,240
81,30,106080,240
77,30,106080,240
72,30,106080,240
84,38,106320,240
81,30,106320,240
77,30,106320,240
72,30,106320,240
72,34,106560,240
74,34,106560,240
78,34,106560,240
81,34,106560,240
86,40,106560,240
72,30,106800,240
86,38,106800,240
81,30,106800,240
78,30,106800,240
74,30,106800,240
72,30,107040,240
86,38,107040,240
81,30,107040,240
78,30,107040,240
74,30,107040,240
70,34,107280,240
74,34,107280,240
79,34,107280,240
82,40,107280,240
82,38,107520,240
79,30,107520,240
74,30,107520,240
70,30,107520,240
82,38,107760,240
79,30,107760,240
74,30,107760,240
70,30,107760,240
70,34,108000,240
72,34,108000,240
76,34,108000,240
82,40,108000,240
82,38,108240,240
76,30,108240,240
72,30,108240,240
70,30,108240,240
82,38,108480,240
76,30,108480,240
72,30,108480,240
70,30,108480,240
69,28,108720,240
72,28,108720,240
77,34,108720,240
81,40,108720,240
81,34,108960,240
77,27,108960,240
72,23,108960,240
69,23,108960,240
81,34,109200,240
77,27,109200,240
72,23,109200,240
69,23,109200,240
69,26,109440,240
72,26,109440,240
77,31,109440,240
81,31,109440,240
81,29,109680,240
77,29,109680,240
72,24,109680,240
69,24,109680,240
81,29,109920,240
77,29,109920,240
72,24,109920,240
69,24,109920,240
69,25,110160,240
73,25,110160,240
77,29,110160,240
81,36,110160,240
81,29,110400,240
77,24,110400,240
73,19,110400,240
69,19,110400,240
81,29,110640,240
77,24,110640,240
73,19,110640,240
69,19,110640,240
69,23,110880,240
73,23,110880,240
77,28,110880,240
81,28,110880,240
81,26,111120,240
77,26,111120,240
73,20,111120,240
69,20,111120,240
81,26,111360,240
77,26,111360,240
73,20,111360,240
69,20,111360,240
69,25,111600,240
72,25,111600,240
77,30,111600,240
81,36,111600,240
81,30,111840,240
77,24,111840,240
72,20,111840,240
69,20,111840,240
81,30,112080,240
77,24,112080,240
72,20,112080,240
69,20,112080,240
69,24,112320,240
72,24,112320,240
77,29,112320,240
81,29,112320,240
81,27,112560,240
77,27,112560,240
72,22,112560,240
69,22,112560,240
81,27,112800,240
77,27,112800,240
72,22,112800,240
69,22,112800,240
69,23,113040,240
73,23,113040,240
77,27,113040,240
81,34,113040,240
81,27,113280,240
77,22,113280,240
73,18,113280,240
69,18,113280,240
81,27,113520,240
77,22,113520,240
73,18,113520,240
69,18,113520,240
69,20,113760,240
73,20,113760,240
77,26,113760,240
81,26,113760,240
81,24,114000,240
77,24,114000,240
73,19,114000,240
69,19,114000,240
81,24,114240,240
77,24,114240,240
73,19,114240,240
69,19,114240,240
69,27,114480,240
72,27,114480,240
77,27,114480,240
81,27,114480,240
81,25,114720,240
77,25,114720,240
72,25,114720,240
69,25,114720,240
81,25,114960,240
77,25,114960,240
72,25,114960,240
69,25,114960,240
69,24,115200,240
72,24,115200,240
77,24,115200,240
81,24,115200,240
57,34,116040,120
60,35,116160,120
65,37,116280,120
69,38,116400,120
72,39,116520,120
77,46,116640,120
69,33,116760,120
72,35,116880,120
77,38,117000,120
81,40,117120,120
84,44,117240,120
89,46,117360,720
57,27,118080,720
60,27,118080,720
65,33,118080,720
69,33,118080,720
41,35,630,810
48,37,660,780
57,39,690,750
65,50,720,720
64,44,1560,120
62,49,1680,120
60,44,1800,120
62,49,1920,120
64,44,2040,120
53,39,2160,720
62,45,2160,80
64,41,2240,80
62,41,2320,80
60,46,2400,1110
41,34,3510,810
48,37,3540,780
57,39,3570,750
65,50,3600,720
64,44,4440,120
62,49,4560,120
60,44,4680,120
62,49,4800,120
64,44,4920,120
62,48,5040,80
53,40,5040,720
64,41,5120,80
62,41,5200,80
60,46,5280,1110
41,40,6420,300
48,40,6450,270
55,47,6480,120
57,51,6600,120
58,53,6720,240
58,51,6960,120
60,53,7080,120
62,58,7200,360
64,58,7560,120
67,62,7680,120
64,57,7800,120
62,58,7920,80
64,53,8000,80
62,49,8080,80
60,49,8160,1110
41,40,9300,300
48,40,9330,270
55,47,9360,120
57,51,9480,120
58,53,9600,240
58,51,9840,120
60,53,9960,120
62,58,10080,240
64,62,10320,120
69,56,10440,120
67,62,10560,120
64,57,10680,120
62,58,10800,80
64,53,10880,80
62,49,10960,80
60,49,11040,1110
41,35,12150,810
48,37,12180,780
57,39,12210,750
65,50,12240,720
64,44,13080,120
62,49,13200,120
60,44,13320,120
62,49,13440,120
64,44,13560,120
53,41,13680,720
62,51,13680,80
64,41,13760,80
62,44,13840,80
60,44,13920,1110
51,37,15060,780
60,38,15090,750
68,49,15120,720
67,44,15960,120
65,49,16080,120
63,44,16200,120
65,49,16320,120
67,44,16440,120
65,50,16560,80
67,44,16640,80
65,44,16720,80
63,49,16800,1200
48,40,18000,240
55,47,18000,120
57,51,18120,120
58,53,18240,240
60,55,18480,120
62,57,18600,120
67,61,18720,480
64,61,19200,240
62,57,19440,80
53,41,19440,720
64,55,19520,80
62,51,19600,80
60,51,19680,480
50,66,20160,720
57,61,20400,240
62,61,20640,240
55,50,20880,120
62,56,20880,120
64,61,21000,120
65,64,21120,240
62,62,21360,120
55,56,21480,80
48,49,21560,120
55,49,21580,80
62,59,21600,80
64,51,21680,80
62,53,21760,80
60,50,21840,240
48,44,22080,240
41,41,22280,160
48,41,22300,20
57,51,22320,120
55,49,22440,120
53,45,22560,1200
41,37,23720,160
49,38,23740,120
57,46,23760,120
55,44,23880,120
53,39,24000,1200
41,39,25160,160
48,40,25180,120
57,49,25200,120
55,47,25320,120
53,42,25440,1200
41,37,26600,160
49,38,26620,120
57,46,26640,120
55,44,26760,120
53,39,26880,1200
41,33,28040,160
48,33,28060,120
57,39,28080,120
55,37,28200,120
53,35,28320,720
48,34,29280,240
41,40,29520,240
48,36,29760,240
60,36,30000,240
56,36,30000,240
61,41,30240,240
58,35,30240,240
67,33,30480,480
41,36,30960,240
48,36,31200,240
60,36,31440,240
56,36,31440,240
61,41,31680,240
58,35,31680,240
67,34,31920,480
41,36,32400,240
48,36,32640,240
60,34,32880,240
56,34,32880,240
60,39,33120,240
58,33,33120,240
67,29,33360,480
41,36,33840,240
48,34,34080,240
60,31,34320,240
56,31,34320,240
60,39,34560,240
58,33,34560,240
64,29,34800,480
41,36,35280,240
48,36,35520,240
60,36,35760,240
56,36,35760,240
60,39,36000,240
58,33,36000,240
67,29,36240,480
41,36,36720,240
48,36,36960,240
60,34,37200,240
56,34,37200,240
60,39,37440,240
58,33,37440,240
67,29,37680,420
53,36,38100,80
41,31,38160,240
48,31,38400,240
60,29,38640,240
56,29,38640,240
60,35,38880,240
58,29,38880,240
67,26,39120,480
41,31,39600,240
48,29,39840,240
60,29,40080,240
57,29,40080,240
60,35,40320,240
58,29,40320,240
64,26,40560,480
41,31,41040,240
48,31,41280,240
60,30,41520,240
57,30,41520,240
60,35,41760,240
58,29,41760,240
67,26,42000,480
41,31,42480,240
48,31,42720,240
60,29,42960,240
57,29,42960,960
65,33,43200,240
69,26,43440,480
37,36,43920,240
44,36,44160,240
53,34,44400,240
57,39,44640,240
49,33,44640,240
54,29,44880,480
63,29,44880,480
37,36,45360,240
44,34,45600,240
53,31,45840,240
57,39,46080,240
49,33,46080,240
54,29,46320,480
61,29,46320,480
37,36,46800,240
44,34,47040,240
53,34,47280,240
57,39,47520,240
49,33,47520,240
54,29,47760,480
37,36,48240,240
44,36,48480,240
53,34,48720,240
57,39,48960,240
49,33,48960,240
54,29,49200,480
63,29,49200,480
37,36,49680,240
44,36,49920,240
53,34,50160,240
57,39,50400,240
49,33,50400,240
54,29,50640,480
63,29,50640,480
37,36,51120,240
44,34,51360,240
53,31,51600,240
57,39,51840,240
49,33,51840,240
54,29,52080,480
63,29,52080,480
37,45,52560,240
44,39,52800,240
53,38,53040,240
57,44,53280,240
54,29,53520,480
37,33,53940,780
53,37,54000,720
61,48,54000,720
60,41,54840,120
58,47,54960,120
56,41,55080,120
58,47,55200,120
60,41,55320,120
58,42,55440,80
60,39,55520,80
58,39,55600,80
56,44,55680,1140
37,33,56820,780
53,37,56880,720
61,48,56880,720
60,41,57720,120
58,47,57840,120
56,41,57960,120
58,47,58080,120
60,41,58200,120
58,42,58320,80
60,39,58400,80
58,39,58480,80
56,44,58560,1140
46,42,59700,780
55,42,59730,110
61,42,59760,80
63,39,59840,80
61,39,59920,80
55,44,60000,1200
48,42,61200,720
58,42,61200,80
60,39,61280,80
58,39,61360,80
55,44,61440,480
60,44,61920,720
41,36,62640,240
48,36,62880,240
60,34,63120,240
56,34,63120,240
60,39,63360,240
58,33,63360,240
67,29,63600,480
41,36,64080,240
48,34,64320,240
60,31,64560,240
56,31,64560,240
60,39,64800,240
58,33,64800,240
64,29,65040,480
41,36,65520,240
48,36,65760,240
60,36,66000,240
56,36,66000,240
60,39,66240,240
58,33,66240,240
67,29,66480,480
41,36,66960,240
48,36,67200,240
60,34,67440,240
56,34,67440,240
60,39,67680,240
58,33,67680,240
67,29,67920,420
53,36,68340,80
41,31,68400,240
48,31,68640,240
60,29,68880,240
56,29,68880,240
60,35,69120,240
58,29,69120,240
67,26,69360,480
41,31,69840,240
48,29,70080,240
60,29,70320,240
57,29,70320,240
60,35,70560,240
58,29,70560,240
64,26,70800,480
41,31,71280,240
48,31,71520,240
60,30,71760,240
57,30,71760,240
60,35,72000,240
58,29,72000,240
67,26,72240,480
41,31,72720,240
48,31,72960,240
60,29,73200,240
57,29,73200,960
65,33,73440,240
69,26,73680,478
41,44,74160,240
49,39,74400,240
53,39,74640,240
57,42,74880,240
61,36,75120,480
41,44,75600,240
48,39,75840,240
53,39,76080,240
57,42,76320,240
60,36,76560,480
41,40,77040,240
49,36,77280,240
53,36,77520,240
57,39,77760,240
61,33,78000,480
41,40,78480,240
48,36,78720,240
53,36,78960,240
57,39,79200,240
60,33,79440,480
49,44,79920,720
53,44,79920,720
56,44,79920,720
46,40,80640,720
53,40,80640,720
55,40,80640,720
36,44,81360,240
43,48,81600,480
46,45,82200,120
44,48,82320,120
43,44,82440,120
44,49,82560,120
46,44,82680,120
36,44,82800,240
43,48,83040,480
46,45,83640,120
44,48,83760,120
43,44,83880,120
44,49,84000,120
46,44,84120,120
36,44,84240,240
49,55,84480,240
46,48,84720,240
48,44,84960,240
61,56,85200,240
58,50,85440,240
60,48,85680,240
73,61,85920,240
70,56,86160,240
72,41,86400,480
60,41,86880,240
41,30,87030,810
48,33,87060,780
57,35,87090,750
65,45,87120,720
64,39,87960,120
62,44,88080,120
60,39,88200,120
62,44,88320,120
64,39,88440,120
62,39,88560,80
53,35,88560,720
64,37,88640,80
62,37,88720,80
60,40,88800,1110
41,29,89910,810
48,33,89940,780
57,35,89970,750
65,45,90000,720
64,39,90840,120
62,44,90960,120
60,39,91080,120
62,44,91200,120
64,39,91320,120
62,42,91440,80
53,36,91440,720
64,37,91520,80
62,37,91600,80
60,40,91680,1110
41,36,92820,300
48,36,92850,270
55,41,92880,120
57,46,93000,120
58,48,93120,240
58,46,93360,120
60,48,93480,120
62,51,93600,360
64,51,93960,120
67,56,94080,120
64,50,94200,120
62,51,94320,80
64,48,94400,80
62,44,94480,80
60,44,94560,1110
41,36,95700,300
48,36,95730,270
55,41,95760,120
57,46,95880,120
58,48,96000,240
58,46,96240,120
60,48,96360,120
62,51,96480,240
64,56,96720,120
69,49,96840,120
67,56,96960,120
64,50,97080,120
62,51,97200,80
64,48,97280,80
62,44,97360,80
60,44,97440,1110
41,38,98550,810
48,40,98580,780
57,42,98610,750
65,55,98640,720
64,48,99480,120
62,53,99600,120
60,48,99720,120
62,53,99840,120
64,48,99960,120
62,56,100080,80
53,45,100080,720
64,45,100160,80
62,48,100240,80
60,48,100320,1110
51,37,101460,780
60,38,101490,750
68,49,101520,720
67,44,102360,120
65,49,102480,120
63,44,102600,120
65,49,102720,120
67,44,102840,120
65,50,102960,80
67,44,103040,80
65,44,103120,80
63,49,103200,1200
48,40,104400,240
55,47,104400,120
57,51,104520,120
58,53,104640,240
60,55,104880,120
62,57,105000,120
67,61,105120,480
64,61,105600,240
53,41,105840,720
62,57,105840,80
64,55,105920,80
62,51,106000,80
60,51,106080,480
50,66,106560,720
57,61,106800,240
62,61,107040,240
55,49,107280,120
62,56,107280,120
64,61,107400,120
65,64,107520,240
62,62,107760,120
55,56,107880,80
48,49,107960,120
55,49,107980,80
62,59,108000,80
64,51,108080,80
62,53,108160,80
60,50,108240,240
48,44,108480,240
41,41,108680,160
48,41,108700,20
57,51,108720,120
55,49,108840,120
53,45,108960,1200
41,37,110120,160
49,38,110140,120
57,46,110160,120
55,44,110280,120
53,39,110400,1200
41,37,111560,160
48,38,111580,120
57,46,111600,120
55,44,111720,120
53,40,111840,1200
41,35,113000,160
49,36,113020,120
57,42,113040,120
55,41,113160,120
53,37,113280,1200
41,30,114440,160
48,30,114460,120
57,37,114480,120
55,35,114600,120
53,33,114720,720
48,34,115680,240
41,28,115920,120
48,29,116040,120
53,30,116160,120
57,31,116280,120
60,31,116400,120
65,33,116520,120
69,34,116640,120
60,27,116760,120
65,29,116880,120
69,30,117000,120
72,33,117120,120
77,35,117240,120
81,36,117360,720
41,22,118080,720
48,22,118080,720
53,26,118080,720
