note,velocity,position,duration
62,74,0,5040
61,69,720,720
60,64,1440,3600
57,61,2160,2880
54,57,2880,2160
62,53,5040,360
62,53,5400,120
62,53,5520,240
67,56,5760,480
58,47,5760,480
62,47,5760,480
69,53,6240,240
66,50,6480,480
63,51,6480,480
70,60,6480,480
69,52,6960,240
62,48,7200,480
67,57,7200,480
67,53,7680,240
60,53,7920,360
62,53,7920,360
62,53,8280,120
60,53,8280,120
60,53,8400,240
62,53,8400,240
58,47,8640,480
67,56,8640,480
62,56,8640,480
69,53,9120,240
63,60,9360,480
66,51,9360,480
70,60,9360,480
69,51,9840,240
62,41,10080,480
67,57,10080,480
67,53,10560,240
58,53,10800,360
62,53,10800,360
58,53,11160,120
62,53,11160,120
62,53,11280,240
58,53,11280,240
58,60,11520,480
65,60,11520,480
65,58,12000,240
57,58,12240,480
65,58,12240,480
62,57,12720,240
53,61,12960,480
58,61,12960,480
58,62,13440,240
58,59,13680,360
55,59,13680,720
58,59,14040,120
60,53,14160,240
53,49,14400,720
62,49,14400,720
58,49,14400,720
54,46,15120,720
58,55,15120,360
58,50,15480,120
60,56,15600,240
62,57,15840,480
53,48,15840,480
58,57,15840,480
65,60,16320,240
63,66,16560,480
57,56,16560,480
67,66,16560,480
65,56,17040,240
62,58,17280,480
53,49,17280,480
58,52,17280,480
60,52,17760,240
55,49,18000,480
58,49,18000,360
58,48,18360,120
60,41,18480,240
55,41,18480,240
57,40,18720,2160
54,36,18720,2160
62,49,18720,2160
74,53,20880,360
74,53,21240,120
74,53,21360,240
74,47,21600,480
70,47,21600,480
79,56,21600,480
81,53,22080,240
75,47,22320,480
78,51,22320,480
82,60,22320,480
81,51,22800,240
74,48,23040,480
79,57,23040,480
79,53,23520,240
72,53,23760,360
74,53,23760,360
72,53,24120,120
74,53,24120,120
74,53,24240,240
72,53,24240,240
79,56,24480,480
74,56,24480,480
70,47,24480,480
81,53,24960,240
78,52,25200,480
75,52,25200,480
82,60,25200,480
81,51,25680,240
74,57,25920,480
79,57,25920,480
79,53,26400,240
70,53,26640,360
74,53,26640,360
74,53,27000,120
70,53,27000,120
70,53,27120,240
74,53,27120,240
70,60,27360,480
77,60,27360,480
77,55,27840,240
69,51,28080,480
77,58,28080,480
70,61,28560,240
65,55,28800,480
70,61,28800,480
70,62,29280,240
67,59,29520,720
70,59,29520,360
70,59,29880,120
72,58,30000,240
65,49,30240,720
74,49,30240,720
70,49,30240,720
66,46,30960,720
70,55,30960,360
70,50,31320,120
72,56,31440,240
74,57,31680,480
65,48,31680,480
70,57,31680,480
77,57,32160,240
75,56,32400,480
69,56,32400,480
79,66,32400,480
77,56,32880,240
74,58,33120,480
65,49,33120,480
70,58,33120,480
72,52,33600,240
67,49,33840,720
70,49,33840,360
70,48,34200,120
72,41,34320,240
74,49,34560,2160
69,40,34560,2160
66,40,34560,2160
62,53,36720,360
62,53,37080,120
62,53,37200,240
59,47,37440,480
62,47,37440,480
65,56,37440,480
67,54,37920,180
70,51,38100,60
62,60,38160,480
59,51,38160,480
68,60,38160,480
67,55,38640,240
59,48,38880,480
62,48,38880,480
65,57,38880,480
65,53,39360,240
56,53,39600,720
59,53,39600,360
60,53,39960,120
62,53,40080,240
62,47,40320,480
59,47,40320,480
65,56,40320,480
67,58,40800,180
70,51,40980,60
59,51,41040,480
62,53,41040,480
68,60,41040,480
67,55,41520,240
65,57,41760,480
59,48,41760,480
62,48,41760,480
65,53,42240,240
74,67,42480,360
67,67,42480,360
77,79,42480,360
79,79,42480,360
70,61,42840,120
79,72,42840,120
67,61,42840,120
77,72,42840,120
77,72,42960,240
79,72,42960,240
71,61,42960,240
67,61,42960,240
87,70,43200,480
91,84,43200,480
79,70,43200,480
84,70,43200,480
75,68,43680,240
79,68,43680,240
87,81,43680,240
79,72,43920,360
75,72,43920,360
87,85,43920,360
74,67,44280,120
79,67,44280,120
86,79,44280,120
84,79,44400,240
79,67,44400,240
72,67,44400,240
77,72,44640,360
74,72,44640,360
86,85,44640,360
71,62,45000,120
74,62,45000,120
77,74,45000,120
79,74,45120,180
74,62,45120,180
71,62,45120,180
82,66,45300,60
80,78,45360,360
74,64,45360,360
71,64,45360,360
79,73,45720,120
71,62,45720,120
74,62,45720,120
77,69,45840,240
74,58,45840,240
71,58,45840,240
75,80,46080,360
72,66,46080,360
75,62,46440,120
72,62,46440,120
78,74,46440,120
75,62,46560,240
79,74,46560,240
72,62,46560,240
75,72,46800,360
79,72,46800,360
87,85,46800,360
79,67,47160,120
74,67,47160,120
86,79,47160,120
79,63,47280,240
84,75,47280,240
72,63,47280,240
74,72,47520,360
77,72,47520,360
86,85,47520,360
77,74,47880,120
74,62,47880,120
71,62,47880,120
79,74,48000,180
74,62,48000,180
71,62,48000,180
82,67,48180,60
80,78,48240,360
74,64,48240,360
71,64,48240,360
79,73,48600,120
71,62,48600,120
74,62,48600,120
71,62,48720,240
77,73,48720,240
74,62,48720,240
75,80,48960,360
72,66,48960,360
72,62,49320,120
75,62,49320,120
78,74,49320,120
79,74,49440,240
75,62,49440,240
72,62,49440,240
74,68,49680,360
79,68,49680,360
86,81,49680,720
79,74,50044,120
74,74,50156,240
79,68,50400,360
84,81,50400,600
72,68,50400,360
79,70,50764,120
72,68,50880,120
81,62,51000,60
84,62,51060,60
74,51,51120,360
72,51,51120,360
78,51,51120,360
81,72,51120,360
79,69,51480,120
81,69,51600,240
70,68,51840,360
82,81,51840,720
74,68,51840,360
79,74,52204,120
74,74,52320,240
82,72,52560,360
74,72,52560,360
79,72,52560,360
86,72,52560,360
79,69,52920,120
74,69,53040,240
69,57,53280,360
74,68,53280,360
81,68,53280,720
74,74,53640,120
69,56,53760,240
73,61,54000,720
79,61,54000,720
81,72,54000,360
82,69,54360,120
81,69,54480,240
81,67,54720,720
86,79,54720,720
74,67,54720,720
74,63,55800,120
74,63,55920,240
75,71,56160,360
72,60,56160,720
69,60,56160,720
79,61,56520,120
82,61,56640,240
75,58,56880,720
79,58,56880,720
86,69,56880,360
84,63,57240,120
79,63,57360,240
72,56,57600,720
81,71,57600,360
74,56,57600,720
82,61,57960,120
81,61,58080,240
75,58,58320,360
78,58,58320,360
84,69,58320,360
74,53,58680,120
78,53,58680,120
82,63,58680,120
72,53,58800,240
78,53,58800,240
81,63,58800,240
70,60,59040,360
74,60,59040,360
79,71,59040,360
72,51,59400,120
75,51,59400,120
81,61,59400,120
70,51,59520,240
74,51,59520,240
79,61,59520,240
69,55,59760,360
77,64,59760,360
72,55,59760,360
74,49,60120,120
79,58,60120,120
70,49,60120,120
75,58,60240,240
67,49,60240,240
70,49,60240,240
74,61,60480,720
66,51,60480,720
69,51,60480,720
62,47,61560,120
62,47,61680,240
60,53,61920,720
57,53,61920,720
63,63,61920,360
67,55,62280,120
70,55,62400,240
67,51,62640,720
63,51,62640,720
74,61,62640,360
72,57,63000,120
67,57,63120,240
69,63,63360,360
62,48,63360,720
60,45,63360,720
70,55,63720,120
69,55,63840,240
66,51,64080,720
63,51,64080,720
72,61,64080,360
70,57,64440,120
69,57,64560,240
67,63,64800,360
58,53,64800,360
62,53,64800,360
69,55,65160,120
60,46,65160,120
63,46,65160,120
67,55,65280,240
58,46,65280,240
62,46,65280,240
65,58,65520,360
57,49,65520,360
60,49,65520,360
67,51,65880,120
58,42,65880,120
62,42,65880,120
63,51,66000,240
55,42,66000,240
58,42,66000,240
57,58,66240,720
62,58,66240,720
60,53,66960,720
62,53,66960,360
62,53,67320,120
62,53,67440,240
58,47,67680,480
62,47,67680,480
67,56,67680,480
69,56,68160,240
63,51,68400,480
66,60,68400,480
70,60,68400,480
69,55,68880,240
58,48,69120,480
62,48,69120,480
67,57,69120,480
67,53,69600,240
60,53,69840,360
62,53,69840,360
60,53,70200,120
62,53,70200,120
60,49,70320,240
62,49,70320,240
58,47,70560,480
62,56,70560,480
67,56,70560,480
69,53,71040,240
63,60,71280,480
66,60,71280,480
70,60,71280,480
69,52,71760,240
58,43,72000,480
62,48,72000,480
67,57,72000,480
67,53,72480,240
58,53,72720,360
62,53,72720,360
58,53,73080,120
62,53,73080,120
58,49,73200,240
62,49,73200,240
58,60,73440,480
65,60,73440,480
65,58,73920,240
57,58,74160,480
65,58,74160,480
62,55,74640,240
53,61,74880,480
58,61,74880,480
58,62,75360,240
55,59,75600,720
58,59,75600,360
58,59,75960,120
60,58,76080,240
53,49,76320,720
62,49,76320,720
58,49,76320,720
54,46,77040,720
58,55,77040,360
58,50,77400,120
60,56,77520,240
53,48,77760,480
58,57,77760,480
62,57,77760,480
65,60,78240,240
57,56,78480,480
63,66,78480,480
67,66,78480,480
65,56,78960,240
62,58,79200,480
53,49,79200,480
58,51,79200,480
60,52,79680,240
55,49,79920,480
58,49,79920,360
58,48,80280,120
55,41,80400,240
60,41,80400,240
54,40,80640,2160
57,40,80640,2160
62,49,80640,2160
62,53,82800,360
62,53,83160,120
62,53,83280,240
59,47,83520,480
62,47,83520,480
65,56,83520,480
67,56,84000,180
70,51,84180,60
59,51,84240,480
62,60,84240,480
68,60,84240,480
67,56,84720,240
59,48,84960,480
62,48,84960,480
65,57,84960,480
65,53,85440,240
56,53,85680,720
59,53,85680,360
60,53,86040,120
62,53,86160,240
59,47,86400,480
62,47,86400,480
65,56,86400,480
67,58,86880,180
70,51,87060,60
59,51,87120,480
62,60,87120,480
68,60,87120,480
67,59,87600,240
59,48,87840,480
62,48,87840,480
65,57,87840,480
65,53,88320,240
67,67,88560,360
74,67,88560,360
77,79,88560,360
79,79,88560,360
70,61,88920,120
67,61,88920,120
77,72,88920,120
79,72,88920,120
67,61,89040,240
71,61,89040,240
77,72,89040,240
79,72,89040,240
91,84,89280,1440
87,70,89280,1440
84,70,89280,1440
79,70,89280,1440
63,58,91440,360
67,58,91440,360
69,58,91440,360
63,58,91800,120
67,58,91800,120
70,70,91800,120
63,58,91920,240
67,58,91920,240
72,70,91920,240
63,63,92160,720
67,63,92160,720
72,77,92160,720
75,77,92160,720
67,58,92880,360
69,58,92880,360
72,70,92880,360
67,63,93240,120
69,63,93240,120
74,77,93240,120
67,62,93360,240
69,62,93360,240
75,74,93360,240
67,70,93600,720
69,70,93600,720
75,82,93600,720
81,82,93600,720
60,58,94320,720
67,69,94320,360
63,58,94320,720
69,60,94680,120
67,58,94800,240
67,58,95040,720
62,58,95040,720
74,69,95040,720
62,57,96120,120
62,57,96240,240
60,56,96480,720
63,67,96480,360
57,56,96480,720
67,59,96840,120
69,59,96960,240
63,57,97200,720
67,57,97200,720
72,68,97200,360
74,59,97560,120
75,59,97680,240
67,56,97920,720
74,67,97920,720
62,56,97920,720
61,55,98640,720
67,66,98640,360
72,56,99000,120
70,59,99120,240
60,55,99360,600
68,66,99360,360
72,55,99720,120
67,56,99840,120
66,55,99960,60
67,56,100020,60
60,52,100080,720
66,62,100080,360
64,55,100440,120
66,55,100560,240
67,52,100800,720
58,44,100800,720
57,45,101520,720
60,45,101520,360
62,53,101520,360
60,45,101880,120
62,53,101880,120
60,45,102000,240
62,53,102000,240
58,47,102240,480
62,47,102240,480
67,56,102240,480
69,55,102720,240
63,51,102960,480
66,50,102960,480
70,60,102960,480
69,53,103440,240
62,48,103680,480
67,57,103680,480
67,53,104160,240
60,53,104400,360
62,53,104400,360
60,53,104760,120
62,53,104760,120
60,51,104880,240
62,51,104880,240
58,47,105120,480
62,56,105120,480
67,56,105120,480
69,55,105600,240
63,51,105840,480
66,51,105840,480
70,60,105840,480
69,51,106320,240
62,51,106560,480
67,57,106560,480
67,53,107040,240
58,53,107280,360
62,53,107280,360
58,53,107640,120
62,53,107640,120
58,50,107760,240
62,50,107760,240
58,60,108000,480
65,60,108000,480
65,58,108480,240
57,58,108720,480
65,58,108720,480
62,56,109200,240
53,61,109440,480
58,61,109440,480
58,62,109920,240
55,59,110160,720
58,59,110160,360
58,59,110520,120
60,58,110640,240
53,49,110880,720
62,49,110880,720
58,49,110880,720
54,46,111600,720
58,55,111600,360
58,50,111960,120
60,56,112080,240
53,48,112320,480
58,57,112320,480
62,57,112320,480
65,60,112800,240
57,56,113040,480
63,66,113040,480
67,66,113040,480
65,56,113520,240
62,58,113760,480
53,49,113760,480
58,52,113760,480
60,52,114240,240
55,49,114480,480
58,49,114480,360
58,48,114840,120
55,41,114960,240
60,41,114960,240
54,38,115200,2160
57,40,115200,2160
62,49,115200,2160
74,53,117360,360
74,53,117720,120
74,53,117840,240
70,47,118080,480
74,47,118080,480
79,56,118080,480
81,53,118560,240
75,51,118800,480
78,51,118800,480
82,60,118800,480
81,50,119280,240
74,48,119520,480
79,57,119520,480
79,53,120000,240
72,53,120240,360
74,53,120240,360
72,53,120600,120
74,53,120600,120
72,53,120720,240
74,53,120720,240
70,47,120960,480
74,56,120960,480
79,56,120960,480
81,55,121440,240
75,51,121680,480
78,51,121680,480
82,60,121680,480
81,53,122160,240
74,57,122400,480
79,57,122400,480
79,53,122880,240
70,53,123120,360
74,53,123120,360
70,53,123480,120
74,53,123480,120
70,53,123600,240
74,53,123600,240
70,60,123840,480
77,60,123840,480
77,58,124320,240
69,58,124560,480
77,58,124560,480
70,61,125040,240
65,54,125280,480
70,61,125280,480
70,62,125760,240
67,59,126000,720
70,59,126000,360
70,59,126360,120
72,58,126480,240
65,49,126720,720
74,49,126720,720
70,49,126720,720
66,46,127440,720
70,55,127440,360
70,50,127800,120
72,56,127920,240
65,48,128160,480
70,57,128160,480
74,57,128160,480
77,60,128640,240
69,56,128880,480
75,66,128880,480
79,66,128880,480
77,56,129360,240
74,58,129600,480
65,49,129600,480
70,58,129600,480
72,52,130080,240
67,49,130320,720
70,49,130320,360
70,48,130680,120
72,41,130800,240
66,40,131040,2160
69,40,131040,2160
74,49,131040,2160
62,53,133200,360
62,53,133560,120
62,53,133680,240
59,47,133920,480
62,47,133920,480
65,56,133920,480
67,55,134400,180
70,51,134580,60
59,51,134640,480
62,60,134640,480
68,60,134640,480
67,55,135120,240
59,48,135360,480
62,48,135360,480
65,57,135360,480
65,53,135840,240
56,53,136080,720
59,53,136080,360
60,53,136440,120
62,53,136560,240
59,47,136800,480
62,47,136800,480
65,56,136800,480
67,57,137280,180
70,51,137460,60
59,51,137520,480
62,60,137520,480
68,60,137520,480
67,55,138000,240
59,48,138240,480
62,48,138240,480
65,57,138240,480
65,53,138720,240
67,67,138960,360
74,67,138960,360
77,79,138960,360
79,79,138960,360
70,61,139320,120
67,61,139320,120
77,72,139320,120
79,72,139320,120
67,61,139440,240
71,61,139440,240
77,72,139440,240
79,72,139440,240
91,84,139680,480
87,70,139680,480
84,70,139680,480
79,70,139680,480
87,81,140160,240
79,68,140160,240
75,68,140160,240
79,72,140400,360
75,72,140400,360
87,85,140400,360
74,67,140760,120
79,67,140760,120
86,79,140760,120
84,79,140880,240
79,67,140880,240
72,67,140880,240
77,72,141120,360
74,72,141120,360
86,85,141120,360
71,62,141480,120
74,62,141480,120
77,74,141480,120
79,74,141600,180
74,62,141600,180
71,62,141600,180
82,66,141780,60
74,64,141840,360
71,64,141840,360
80,78,141840,360
71,62,142200,120
74,62,142200,120
79,73,142200,120
77,73,142320,240
74,62,142320,240
71,62,142320,240
75,80,142560,360
72,66,142560,360
72,62,142920,120
75,62,142920,120
78,74,142920,120
79,74,143040,240
75,62,143040,240
72,62,143040,240
79,72,143280,360
75,72,143280,360
87,85,143280,360
74,67,143640,120
79,67,143640,120
86,79,143640,120
84,79,143760,240
79,67,143760,240
72,67,143760,240
77,72,144000,360
74,72,144000,360
86,85,144000,360
71,62,144360,120
74,62,144360,120
77,74,144360,120
79,74,144480,180
74,62,144480,180
71,62,144480,180
82,67,144660,60
74,64,144720,360
71,64,144720,360
80,78,144720,360
71,62,145080,120
74,62,145080,120
79,73,145080,120
77,73,145200,240
74,62,145200,240
71,62,145200,240
75,80,145440,360
72,66,145440,360
72,62,145800,120
75,62,145800,120
78,74,145800,120
79,74,145920,240
75,62,145920,240
72,62,145920,240
74,68,146160,360
86,81,146160,720
79,68,146160,360
79,74,146524,120
74,68,146636,240
84,81,146880,600
72,68,146880,360
79,68,146880,360
79,70,147244,120
72,66,147360,120
81,62,147480,60
84,62,147540,60
72,51,147600,360
74,51,147600,360
78,51,147600,360
81,72,147600,360
79,69,147960,120
81,69,148080,240
82,81,148320,720
70,68,148320,360
74,68,148320,360
79,71,148684,120
74,68,148800,240
74,72,149040,360
79,72,149040,360
82,72,149040,360
86,72,149040,360
79,69,149400,120
74,69,149520,240
81,68,149760,720
69,57,149760,360
74,68,149760,360
74,74,150120,120
69,66,150240,240
73,61,150480,720
79,61,150480,720
81,72,150480,360
82,69,150840,120
81,69,150960,240
86,79,151200,720
81,67,151200,720
74,67,151200,720
74,63,152280,120
74,63,152400,240
72,60,152640,720
69,60,152640,720
75,71,152640,360
79,61,153000,120
82,61,153120,240
75,58,153360,720
79,58,153360,720
86,69,153360,360
84,63,153720,120
79,63,153840,240
74,52,154080,720
72,52,154080,720
81,71,154080,360
82,61,154440,120
81,61,154560,240
75,58,154800,360
78,58,154800,360
84,69,154800,360
74,53,155160,120
78,53,155160,120
82,63,155160,120
72,53,155280,240
78,53,155280,240
81,63,155280,240
70,60,155520,360
74,60,155520,360
79,71,155520,360
72,51,155880,120
75,51,155880,120
81,61,155880,120
70,51,156000,240
74,51,156000,240
79,61,156000,240
69,55,156240,360
72,55,156240,360
77,64,156240,360
70,49,156600,120
74,49,156600,120
79,58,156600,120
67,49,156720,240
70,49,156720,240
75,58,156720,240
66,51,156960,720
69,51,156960,720
74,61,156960,720
62,47,158040,120
62,47,158160,240
60,53,158400,720
57,53,158400,720
63,63,158400,360
67,55,158760,120
70,55,158880,240
63,51,159120,720
67,51,159120,720
74,61,159120,360
72,57,159480,120
67,57,159600,240
62,50,159840,720
60,47,159840,720
69,63,159840,360
70,55,160200,120
69,55,160320,240
63,51,160560,720
66,51,160560,720
72,61,160560,360
70,57,160920,120
69,57,161040,240
58,53,161280,360
62,53,161280,360
67,63,161280,360
60,46,161640,120
63,46,161640,120
69,55,161640,120
58,46,161760,240
62,46,161760,240
67,55,161760,240
57,49,162000,360
60,49,162000,360
65,58,162000,360
58,42,162360,120
62,42,162360,120
67,51,162360,120
55,42,162480,240
58,42,162480,240
63,51,162480,240
57,58,162720,720
62,58,162720,720
60,53,163440,720
62,53,163440,360
62,53,163800,120
62,53,163920,240
58,47,164160,480
62,47,164160,480
67,56,164160,480
69,56,164640,240
63,51,164880,480
66,60,164880,480
70,60,164880,480
69,59,165360,240
58,48,165600,480
62,48,165600,480
67,57,165600,480
67,53,166080,240
60,53,166320,360
62,53,166320,360
60,53,166680,120
62,53,166680,120
60,51,166800,240
62,51,166800,240
58,47,167040,480
62,56,167040,480
67,56,167040,480
69,56,167520,240
63,60,167760,480
66,60,167760,480
70,60,167760,480
69,53,168240,240
58,48,168480,480
62,48,168480,480
67,57,168480,480
67,53,168960,240
58,53,169200,360
62,53,169200,360
58,53,169560,120
62,53,169560,120
58,49,169680,240
62,49,169680,240
58,60,169920,480
65,60,169920,480
65,58,170400,240
57,58,170640,480
65,58,170640,480
62,59,171120,240
53,61,171360,480
58,61,171360,480
58,62,171840,240
55,59,172080,720
58,59,172080,360
58,59,172440,120
60,58,172560,240
53,49,172800,720
62,49,172800,720
58,49,172800,720
54,46,173520,720
58,55,173520,360
58,50,173880,120
60,56,174000,240
53,48,174240,480
58,57,174240,480
62,57,174240,480
65,60,174720,240
57,56,174960,480
63,66,174960,480
67,66,174960,480
65,56,175440,240
62,58,175680,480
53,49,175680,480
58,50,175680,480
60,52,176160,240
55,49,176400,480
58,49,176400,360
58,48,176760,120
55,41,176880,240
60,41,176880,240
54,40,177120,2160
57,40,177120,2160
62,49,177120,2160
62,53,179280,360
62,53,179640,120
62,53,179760,240
59,47,180000,480
62,47,180000,480
65,56,180000,480
67,58,180480,180
70,51,180660,60
59,51,180720,480
62,60,180720,480
68,60,180720,480
67,55,181200,240
59,48,181440,480
62,48,181440,480
65,57,181440,480
65,53,181920,240
56,53,182160,720
59,53,182160,360
60,53,182520,120
62,53,182640,240
59,47,182880,480
62,47,182880,480
65,56,182880,480
67,58,183360,180
70,51,183540,60
59,51,183600,480
62,60,183600,480
68,60,183600,480
67,56,184080,240
59,48,184320,480
62,48,184320,480
65,57,184320,480
65,53,184800,240
67,67,185040,360
74,67,185040,360
77,79,185040,360
79,79,185040,360
70,61,185400,120
67,61,185400,120
77,72,185400,120
79,72,185400,120
67,61,185520,240
71,61,185520,240
77,72,185520,240
79,72,185520,240
91,84,185760,1440
87,70,185760,1440
84,70,185760,1440
79,70,185760,1440
63,58,187920,360
67,58,187920,360
69,58,187920,360
63,58,188280,120
67,58,188280,120
70,70,188280,120
63,58,188400,240
67,58,188400,240
72,70,188400,240
63,63,188640,720
67,63,188640,720
72,77,188640,720
75,77,188640,720
67,58,189360,360
69,58,189360,360
72,70,189360,360
67,63,189720,120
69,63,189720,120
74,77,189720,120
67,62,189840,240
69,62,189840,240
75,74,189840,240
67,70,190080,720
69,70,190080,720
75,82,190080,720
81,82,190080,720
60,58,190800,720
67,69,190800,360
63,58,190800,720
69,60,191160,120
67,58,191280,240
67,58,191520,720
62,58,191520,720
74,69,191520,720
62,57,192600,120
62,53,192720,240
60,56,192960,720
63,67,192960,360
57,56,192960,720
67,59,193320,120
69,59,193440,240
63,57,193680,720
67,57,193680,720
72,68,193680,360
74,59,194040,120
75,59,194160,240
67,56,194400,720
74,67,194400,720
62,56,194400,720
61,55,195120,720
67,66,195120,360
72,56,195480,120
70,59,195600,240
60,55,195840,600
68,66,195840,360
72,55,196200,120
67,56,196320,120
66,55,196440,60
67,56,196500,60
60,52,196560,720
66,62,196560,360
64,55,196920,120
66,55,197040,240
67,52,197280,720
58,44,197280,720
57,45,198000,720
60,45,198000,360
62,53,198000,360
60,45,198360,120
62,53,198360,120
60,49,198480,240
62,49,198480,240
58,47,198720,480
62,47,198720,480
67,56,198720,480
69,55,199200,240
63,51,199440,480
66,60,199440,480
70,60,199440,480
69,54,199920,240
62,48,200160,480
67,57,200160,480
67,53,200640,240
57,40,200880,720
60,53,200880,360
62,53,200880,360
60,53,201240,120
62,53,201240,120
60,53,201360,240
62,53,201360,240
58,47,201600,480
62,56,201600,480
67,56,201600,480
69,54,202080,180
72,44,202260,80
63,56,202320,480
66,56,202320,480
70,56,202320,480
69,52,202800,240
58,49,203040,240
62,49,203040,240
67,49,203040,240
54,49,203280,120
55,49,203400,120
57,50,203520,120
58,51,203640,120
61,52,203760,120
62,53,203880,120
57,50,204000,120
58,51,204120,120
61,51,204240,120
62,52,204360,120
66,53,204480,120
67,56,204600,120
61,51,204720,120
62,52,204840,120
66,56,204960,120
67,57,205080,120
69,59,205200,120
70,60,205320,120
66,56,205440,120
67,58,205560,120
69,59,205680,120
70,60,205800,120
73,61,205920,120
74,62,206040,120
69,57,206160,120
70,58,206280,120
73,60,206400,120
74,61,206520,120
78,64,206640,120
79,66,206760,120
73,59,206880,120
74,61,207000,120
78,63,207120,120
79,64,207240,120
81,66,207360,120
82,68,207480,120
78,64,207600,120
79,66,207720,120
81,69,207840,120
82,72,207960,120
85,74,208080,120
86,77,208200,120
81,74,208320,120
82,77,208440,120
85,81,208560,120
86,83,208680,120
91,93,208800,720
72,79,209520,720
74,79,209520,720
78,93,209520,720
86,93,209520,720
81,93,209520,720
70,79,210240,720
74,79,210240,720
82,93,210240,720
79,93,210240,720
69,79,210960,720
72,79,210960,720
74,93,210960,720
78,93,210960,720
67,86,211680,1440
70,86,211680,1440
74,96,211680,1440
79,102,211680,1440
91,108,213120,1440
86,102,213120,1440
79,90,213120,1440
50,45,3600,660
53,39,4260,60
51,49,4320,720
50,48,5040,720
50,40,5760,720
43,34,5760,720
55,40,5760,720
43,38,6480,720
60,47,6480,720
43,35,7200,720
58,41,7200,720
43,35,7920,720
57,41,7920,720
50,41,7920,720
50,40,8640,720
43,34,8640,720
55,40,8640,720
60,47,9360,720
43,38,9360,720
43,35,10080,720
58,41,10080,718
54,41,10800,720
42,35,10800,720
41,39,11520,1440
50,48,11520,720
51,42,12240,720
46,48,12960,720
50,48,12960,720
39,39,13680,720
46,48,13680,720
34,36,14400,720
46,42,14400,720
39,48,15120,720
46,48,15120,720
34,38,15840,720
46,46,15840,720
48,46,16560,720
41,38,16560,720
46,48,17280,720
39,33,18000,480
51,39,18000,480
45,37,18480,240
38,31,18720,2160
50,38,18720,2160
55,34,21600,720
67,40,21600,720
62,40,21600,720
55,36,22320,720
72,44,22320,720
55,35,23040,720
70,41,23040,720
62,41,23760,720
69,41,23760,720
55,35,23760,720
55,34,24480,720
67,40,24480,720
62,40,24480,720
55,33,25200,720
72,44,25200,720
55,35,25920,720
70,41,25920,718
66,41,26640,720
54,35,26640,720
53,36,27360,1440
62,48,27360,720
63,42,28080,720
62,48,28800,720
58,48,28800,720
63,48,29520,720
51,39,29520,720
46,36,30240,720
58,42,30240,720
51,48,30960,720
58,48,30960,720
46,38,31680,720
58,46,31680,720
53,38,32400,720
60,46,32400,720
58,48,33120,720
63,39,33840,480
51,33,33840,480
57,37,34320,240
50,31,34560,2160
62,38,34560,2153
56,40,37440,1440
43,34,37440,1440
55,41,38880,720
43,35,38880,1440
53,41,39600,360
51,39,39960,120
50,40,40080,240
56,40,40320,1440
43,34,40320,1440
56,41,41760,720
43,35,41760,660
43,66,42420,780
59,62,42480,360
61,55,42840,120
62,57,42960,240
36,69,43200,480
48,69,43200,480
60,50,43680,240
72,60,43680,240
67,50,43680,240
67,53,43920,360
72,64,43920,360
60,53,43920,360
67,52,44280,120
60,52,44280,120
72,62,44280,120
67,62,44400,240
60,52,44400,240
60,53,44640,360
71,64,44640,360
68,53,44640,360
60,49,45000,120
68,59,45000,120
60,49,45120,180
68,59,45120,180
60,50,45360,360
68,61,45360,360
68,58,45720,120
60,48,45720,120
68,55,45840,240
60,45,45840,240
67,61,46080,360
60,50,46080,360
67,57,46440,120
60,47,46440,120
67,57,46560,240
60,47,46560,240
67,53,46800,360
72,64,46800,360
60,53,46800,360
60,52,47160,120
72,62,47160,120
67,52,47160,120
60,49,47280,240
67,49,47280,240
68,53,47520,360
71,64,47520,360
60,53,47520,360
60,49,47880,120
68,59,47880,120
60,49,48000,180
68,59,48000,180
60,50,48240,360
68,61,48240,360
68,58,48600,120
60,48,48600,120
68,58,48720,240
60,48,48720,240
60,50,48960,720
67,61,48960,720
58,50,49680,720
67,50,49680,720
57,50,50400,1440
63,50,50400,720
62,50,51120,720
62,50,51840,720
55,50,51840,1440
64,50,52560,720
57,50,53280,1440
65,50,53280,720
64,50,54000,480
67,45,54480,240
62,53,54720,360
66,45,54720,720
61,50,55080,120
62,50,55200,240
62,53,55440,720
67,49,56160,1440
62,49,56160,360
61,42,56520,120
62,49,56640,240
62,50,56880,720
62,49,57600,360
66,49,57600,1440
61,42,57960,120
62,49,58080,240
62,50,58320,720
62,49,59040,360
62,42,59400,120
62,49,59520,240
62,50,59760,720
62,49,60480,360
63,39,60840,120
62,44,60960,240
62,44,61200,240
55,44,61920,1440
50,44,61920,360
49,38,62280,120
50,44,62400,240
50,45,62640,720
54,44,63360,1440
50,44,63360,360
49,38,63720,120
50,44,63840,240
50,45,64080,720
50,44,64800,360
50,38,65160,120
50,44,65280,240
50,45,65520,720
54,38,66240,720
50,38,66240,120
49,38,66360,120
50,38,66480,120
49,37,66600,120
50,38,66720,120
49,33,66840,120
54,38,66960,720
51,38,66960,120
50,33,67080,120
49,38,67200,120
50,34,67320,120
51,38,67440,120
50,30,67560,120
55,37,67680,120
43,37,67680,720
54,40,67800,120
53,41,67920,120
52,42,68040,120
51,44,68160,120
50,47,68280,120
49,47,68400,120
50,44,68520,120
51,42,68640,120
52,41,68760,120
53,40,68880,120
54,40,69000,120
43,41,69120,720
55,41,69120,120
54,36,69240,120
55,41,69360,120
50,37,69480,120
49,41,69600,120
50,36,69720,120
54,41,69840,120
50,40,69960,120
49,41,70080,120
50,36,70200,120
51,42,70320,120
50,41,70440,120
55,37,70560,120
43,37,70560,720
54,40,70680,120
53,42,70800,120
52,44,70920,120
51,44,71040,120
50,42,71160,120
49,42,71280,120
50,41,71400,120
51,40,71520,120
52,37,71640,120
53,41,71760,120
54,41,71880,120
43,41,72000,720
55,41,72000,120
54,36,72120,120
55,41,72240,120
50,37,72360,120
49,47,72480,120
50,42,72600,120
42,47,72720,720
50,41,72840,120
49,40,72960,120
50,41,73080,120
51,41,73200,120
50,41,73320,120
50,49,73440,120
41,49,73440,720
49,40,73560,120
50,49,73680,120
49,40,73800,120
50,48,73920,120
49,42,74040,120
51,47,74160,120
41,47,74160,720
50,41,74280,120
51,48,74400,120
48,41,74520,120
53,47,74640,120
51,41,74760,120
46,47,74880,720
50,47,74880,120
49,38,75000,120
50,47,75120,120
49,38,75240,120
50,47,75360,120
49,41,75480,120
39,47,75600,120
45,41,75720,120
46,48,75840,120
51,44,75960,120
55,52,76080,120
51,41,76200,120
46,49,76320,120
52,44,76440,120
53,48,76560,120
49,41,76680,120
50,49,76800,120
46,41,76920,120
39,47,77040,120
45,41,77160,120
46,42,77280,120
52,41,77400,120
54,47,77520,120
52,41,77640,120
46,48,77760,120
45,41,77880,120
46,48,78000,120
49,44,78120,120
50,47,78240,120
46,41,78360,120
41,52,78480,120
47,41,78600,120
48,44,78720,120
50,47,78840,120
51,48,78960,120
41,41,79080,120
46,49,79200,120
45,41,79320,120
46,47,79440,120
49,40,79560,120
50,47,79680,120
46,41,79800,120
39,44,79920,120
45,41,80040,120
46,44,80160,120
48,37,80280,120
51,41,80400,120
45,37,80520,120
38,47,80640,120
49,41,80760,120
50,47,80880,120
44,41,81000,120
46,47,81120,120
45,41,81240,120
41,47,81360,120
42,41,81480,120
37,47,81600,120
38,41,81720,120
32,47,81840,120
33,41,81960,120
38,49,82080,1440
43,34,83520,1440
56,40,83520,1440
43,35,84960,1440
56,41,84960,715
53,41,85680,360
51,39,86040,120
50,40,86160,240
43,34,86400,1440
56,40,86400,1440
43,35,87840,660
56,41,87840,720
43,66,88500,780
59,62,88560,360
61,55,88920,120
62,57,89040,240
36,69,89280,120
43,61,89400,120
48,61,89520,120
51,61,89640,120
55,69,89760,120
60,61,89880,120
63,61,90000,120
67,61,90120,120
72,59,90240,120
75,63,90360,120
79,68,90480,120
84,72,90600,120
87,79,90720,720
60,53,91440,360
58,51,91800,120
57,52,91920,240
57,59,92160,720
63,59,92880,360
62,57,93240,120
60,57,93360,240
60,61,93600,715
57,52,94320,720
58,51,95040,720
50,51,95040,360
49,41,95400,120
50,47,95520,240
50,47,95760,720
50,49,96480,360
55,49,96480,1440
49,41,96840,120
50,49,96960,240
50,48,97200,720
50,49,97920,360
58,49,97920,720
49,41,98280,120
50,49,98400,240
58,48,98640,720
51,48,98640,720
51,48,99360,720
44,48,99360,720
50,48,100080,720
50,49,100800,360
43,49,100800,720
51,41,101160,120
50,49,101280,240
50,48,101520,720
43,34,102240,720
50,40,102240,720
55,40,102240,720
60,47,102960,720
43,38,102960,720
58,41,103680,720
43,35,103680,720
43,35,104400,720
50,41,104400,720
57,41,104400,720
43,34,105120,720
50,40,105120,720
55,40,105120,720
43,38,105840,720
60,47,105840,720
43,35,106560,720
58,41,106560,715
42,35,107280,720
54,41,107280,720
50,48,108000,720
41,39,108000,1440
51,42,108720,720
46,45,109440,720
50,45,109440,720
39,39,110160,720
46,48,110160,720
34,36,110880,720
46,42,110880,720
39,48,111600,720
46,48,111600,720
34,38,112320,720
46,46,112320,720
41,38,113040,720
48,46,113040,720
46,48,113760,720
39,33,114480,480
51,39,114480,480
45,37,114960,240
50,35,115200,2160
38,31,115200,2160
62,40,118080,720
55,34,118080,720
67,40,118080,720
72,43,118800,720
55,38,118800,720
55,35,119520,720
70,41,119520,720
55,35,120240,720
62,41,120240,720
69,41,120240,720
55,34,120960,720
62,40,120960,720
67,40,120960,720
55,38,121680,720
72,45,121680,720
55,35,122400,720
70,41,122400,715
66,41,123120,720
54,35,123120,720
62,48,123840,720
53,39,123840,1440
63,42,124560,720
58,42,125280,720
62,48,125280,720
51,39,126000,720
63,48,126000,720
46,36,126720,720
58,42,126720,720
58,48,127440,720
51,48,127440,720
58,46,128160,720
46,38,128160,720
60,46,128880,720
53,38,128880,720
58,48,129600,720
51,33,130320,480
63,39,130320,480
57,37,130800,240
50,31,131040,2160
62,38,131040,2155
43,34,133920,1440
56,40,133920,1440
55,41,135360,720
43,35,135360,1440
53,41,136080,360
51,39,136440,120
50,40,136560,240
43,34,136800,1440
56,40,136800,1440
43,35,138240,660
56,41,138240,720
43,66,138900,780
59,62,138960,360
61,55,139320,120
62,57,139440,240
36,69,139680,480
48,69,139680,480
67,50,140160,240
72,60,140160,240
60,50,140160,240
67,53,140400,360
60,53,140400,360
72,64,140400,360
60,52,140760,120
72,62,140760,120
67,52,140760,120
67,62,140880,240
60,52,140880,240
71,64,141120,360
60,53,141120,360
68,53,141120,360
68,59,141480,120
60,49,141480,120
68,59,141600,180
60,49,141600,180
68,61,141840,360
60,50,141840,360
68,58,142200,120
60,48,142200,120
68,58,142320,240
60,48,142320,240
60,50,142560,360
67,61,142560,360
67,57,142920,120
60,47,142920,120
67,57,143040,240
60,47,143040,240
60,53,143280,360
67,53,143280,360
72,64,143280,360
60,52,143640,120
67,52,143640,120
72,62,143640,120
67,52,143760,240
60,52,143760,240
68,53,144000,360
60,53,144000,360
71,64,144000,360
60,49,144360,120
68,59,144360,120
60,49,144480,180
68,59,144480,180
60,50,144720,360
68,61,144720,360
60,48,145080,120
68,58,145080,120
60,48,145200,240
68,58,145200,240
60,50,145440,720
67,61,145440,720
58,50,146160,720
67,50,146160,720
57,50,146880,1440
63,50,146880,720
62,50,147600,720
55,50,148320,1440
62,50,148320,720
64,50,149040,720
65,50,149760,720
57,50,149760,1440
64,50,150480,480
67,45,150960,240
62,53,151200,360
66,45,151200,720
61,50,151560,120
62,50,151680,240
62,53,151920,720
62,49,152640,360
67,49,152640,1440
61,42,153000,120
62,49,153120,240
62,50,153360,720
66,49,154080,1440
62,49,154080,360
61,42,154440,120
62,49,154560,240
62,50,154800,720
62,49,155520,360
62,42,155880,120
62,49,156000,240
62,50,156240,720
62,49,156960,360
63,39,157320,120
62,44,157440,240
62,44,157680,240
50,44,158400,360
55,44,158400,1440
49,38,158760,120
50,44,158880,240
50,45,159120,720
50,44,159840,360
54,44,159840,1440
49,38,160200,120
50,44,160320,240
50,45,160560,720
50,44,161280,360
50,38,161640,120
50,44,161760,240
50,45,162000,720
54,38,162720,720
50,38,162720,120
49,38,162840,120
50,38,162960,120
49,37,163080,120
50,38,163200,120
49,33,163320,120
51,38,163440,120
54,38,163440,720
50,33,163560,120
49,38,163680,120
50,34,163800,120
51,38,163920,120
50,33,164040,120
43,37,164160,720
55,37,164160,120
54,40,164280,120
53,41,164400,120
52,42,164520,120
51,44,164640,120
50,47,164760,120
49,47,164880,120
50,44,165000,120
51,42,165120,120
52,41,165240,120
53,40,165360,120
54,40,165480,120
43,41,165600,720
55,41,165600,120
54,36,165720,120
55,41,165840,120
50,37,165960,120
49,41,166080,120
50,36,166200,120
54,41,166320,120
50,40,166440,120
49,41,166560,120
50,36,166680,120
51,42,166800,120
50,41,166920,120
43,37,167040,720
55,37,167040,120
54,40,167160,120
53,42,167280,120
52,44,167400,120
51,44,167520,120
50,42,167640,120
49,42,167760,120
50,41,167880,120
51,40,168000,120
52,37,168120,120
53,41,168240,120
54,41,168360,120
43,41,168480,720
55,41,168480,120
54,36,168600,120
55,41,168720,120
50,37,168840,120
49,47,168960,120
50,42,169080,120
42,47,169200,720
50,41,169320,120
49,37,169440,120
50,41,169560,120
51,42,169680,120
50,41,169800,120
50,49,169920,120
41,49,169920,720
49,44,170040,120
50,49,170160,120
49,42,170280,120
50,48,170400,120
49,42,170520,120
51,47,170640,120
41,47,170640,720
50,41,170760,120
51,48,170880,120
48,41,171000,120
53,47,171120,120
51,41,171240,120
46,47,171360,720
50,47,171360,120
49,39,171480,120
50,47,171600,120
49,41,171720,120
50,47,171840,120
49,41,171960,120
39,47,172080,120
45,41,172200,120
46,48,172320,120
51,44,172440,120
55,52,172560,120
51,41,172680,120
46,49,172800,120
52,44,172920,120
53,48,173040,120
49,41,173160,120
50,49,173280,120
46,41,173400,120
39,47,173520,120
45,41,173640,120
46,42,173760,120
52,41,173880,120
54,47,174000,120
52,41,174120,120
46,48,174240,120
45,41,174360,120
46,48,174480,120
49,44,174600,120
50,47,174720,120
46,41,174840,120
41,52,174960,120
47,41,175080,120
48,44,175200,120
50,47,175320,120
51,48,175440,120
41,41,175560,120
46,49,175680,120
45,41,175800,120
46,47,175920,120
49,40,176040,120
50,47,176160,120
46,41,176280,120
39,44,176400,120
45,41,176520,120
46,44,176640,120
48,37,176760,120
51,41,176880,120
45,37,177000,120
38,47,177120,120
49,41,177240,120
50,47,177360,120
44,41,177480,120
46,47,177600,120
45,41,177720,120
41,47,177840,120
42,41,177960,120
37,47,178080,120
38,41,178200,120
32,47,178320,120
33,41,178440,120
38,49,178560,1440
43,34,180000,1440
56,40,180000,1440
43,35,181440,1440
56,41,181440,715
53,41,182160,360
51,39,182520,120
50,40,182640,240
43,34,182880,1440
56,40,182880,1440
56,41,184320,720
43,35,184320,660
43,66,184980,780
59,62,185040,360
61,55,185400,120
62,57,185520,240
36,69,185760,120
43,61,185880,120
48,61,186000,120
51,61,186120,120
55,69,186240,120
60,61,186360,120
63,61,186480,120
67,61,186600,120
72,59,186720,120
75,63,186840,120
79,68,186960,120
84,72,187080,120
87,79,187200,720
60,53,187920,360
58,51,188280,120
57,52,188400,240
57,59,188640,720
63,59,189360,360
62,57,189720,120
60,57,189840,240
60,61,190080,715
57,52,190800,720
58,51,191520,720
50,51,191520,360
49,41,191880,120
50,47,192000,240
50,47,192240,720
55,49,192960,1440
50,49,192960,360
49,41,193320,120
50,49,193440,240
50,48,193680,720
50,49,194400,360
58,49,194400,720
49,41,194760,120
50,49,194880,240
51,48,195120,720
58,48,195120,720
51,48,195840,720
44,48,195840,720
50,48,196560,720
43,49,197280,720
50,49,197280,360
51,41,197640,120
50,49,197760,240
50,48,198000,720
43,51,198720,720
50,51,198720,360
51,42,199080,120
50,51,199200,240
50,50,199440,720
50,51,200160,360
43,51,200160,720
51,42,200520,120
50,51,200640,240
50,50,200880,720
50,51,201600,360
43,51,201600,720
51,40,201960,120
50,49,202080,240
50,47,202320,720
60,47,202320,720
50,41,203040,240
43,41,203040,240
42,49,203280,120
43,49,203400,120
45,50,203520,120
46,51,203640,120
49,52,203760,120
50,53,203880,120
45,50,204000,120
46,51,204120,120
49,51,204240,120
50,52,204360,120
54,53,204480,120
55,56,204600,120
49,51,204720,120
50,52,204840,120
54,56,204960,120
55,57,205080,120
57,59,205200,120
58,60,205320,120
54,56,205440,120
55,58,205560,120
57,59,205680,120
58,60,205800,120
61,61,205920,120
62,62,206040,120
57,57,206160,120
58,58,206280,120
61,60,206400,120
62,61,206520,120
66,64,206640,120
67,66,206760,120
61,68,206880,120
62,61,207000,120
66,63,207120,120
67,65,207240,120
69,67,207360,120
70,68,207480,120
66,70,207600,120
67,62,207720,120
69,66,207840,120
70,69,207960,120
73,72,208080,120
74,76,208200,120
69,74,208320,120
70,77,208440,120
73,81,208560,120
74,83,208680,120
79,93,208800,720
50,84,209520,720
38,70,209520,720
43,84,210240,720
55,84,210240,720
50,84,210960,720
38,70,210960,720
31,77,211680,1440
43,92,211680,1440
70,93,213120,1440
55,79,213120,1440
62,79,213120,1440
