note,velocity,position,duration
60,35,2160,600
56,31,2760,120
53,28,2880,2160
56,35,5040,600
60,30,5640,120
65,35,5760,720
68,35,6480,600
72,30,7080,120
77,35,7200,710
65,33,7920,720
72,35,8640,1200
74,33,9840,180
72,31,10020,60
74,32,10080,80
76,28,10160,80
74,32,10240,80
76,28,10320,80
74,32,10400,80
76,29,10480,80
74,32,10560,80
76,28,10640,80
74,31,10720,80
76,29,10800,80
74,27,10880,80
76,32,10960,80
74,27,11040,120
72,28,11160,120
76,31,11280,120
74,28,11400,120
72,35,11520,480
61,35,13680,600
58,31,14280,120
54,28,14400,2160
58,35,16560,600
61,30,17160,120
66,35,17280,720
70,35,18000,600
73,30,18600,120
78,34,18720,720
66,33,19440,720
73,35,20160,1200
75,32,21360,180
73,31,21540,60
75,30,21600,80
77,27,21680,80
75,30,21760,80
77,27,21840,80
75,30,21920,80
77,27,22000,80
75,29,22080,80
77,27,22160,80
75,29,22240,80
77,28,22320,80
75,30,22400,80
77,28,22480,80
75,26,22560,120
73,28,22680,120
77,31,22800,120
75,29,22920,120
73,35,23040,480
72,35,25920,1200
74,42,27120,180
72,38,27300,60
74,43,27360,80
76,35,27440,80
74,40,27520,80
76,36,27600,80
74,39,27680,80
76,36,27760,80
74,41,27840,80
76,37,27920,80
74,40,28000,80
76,35,28080,80
74,31,28160,80
76,37,28240,80
74,33,28320,120
72,33,28440,120
76,37,28560,120
74,33,28680,120
72,35,28800,480
76,35,31680,1200
77,38,32880,240
77,39,33120,80
79,34,33200,80
77,39,33280,80
79,35,33360,80
77,39,33440,80
79,35,33520,80
77,39,33600,80
79,35,33680,80
77,39,33760,80
79,36,33840,80
77,33,33920,80
79,39,34000,80
77,33,34080,120
76,34,34200,120
79,40,34320,120
77,35,34440,120
76,35,34560,480
76,35,36720,240
79,35,36720,240
79,31,36960,240
76,31,36960,240
76,35,37200,240
79,35,37200,240
79,35,37440,480
82,35,37440,480
82,83,39600,240
79,83,39600,240
82,77,39840,240
79,77,39840,240
79,83,40080,240
82,83,40080,240
88,85,40320,120
82,76,40440,120
91,85,40560,120
88,75,40680,120
94,85,40800,120
91,76,40920,120
88,85,41040,120
91,76,41160,120
82,83,41280,120
88,75,41400,120
79,83,41520,120
82,74,41640,120
76,81,41760,120
79,74,41880,120
70,81,42000,120
76,71,42120,120
67,80,42240,120
70,73,42360,120
64,80,42480,120
67,70,42600,120
58,79,42720,120
64,71,42840,120
60,35,48240,600
56,31,48840,120
53,103,48960,240
60,85,49200,475
65,101,49200,475
56,75,49200,475
53,75,49200,475
60,72,49680,475
56,72,49680,475
65,81,49680,475
68,96,49680,475
60,71,50160,475
72,96,50160,475
65,71,50160,475
68,79,50160,475
72,80,50640,475
77,95,50640,475
65,72,50640,475
68,72,50640,475
77,86,51120,475
68,76,51120,475
72,76,51120,475
80,103,51120,475
77,78,51600,238
84,94,51600,238
80,78,51600,238
72,71,51600,238
89,103,51840,2160
77,76,51840,2160
84,86,51840,2160
80,86,51840,2160
56,41,54000,600
60,35,54600,120
65,39,54720,720
68,41,55440,600
72,36,56040,120
77,39,56160,715
65,39,56880,720
60,103,57600,240
60,85,57840,475
64,101,57840,475
64,81,58320,475
67,96,58320,475
60,72,58320,475
72,96,58800,475
64,71,58800,475
67,79,58800,475
76,95,59280,475
67,72,59280,475
72,80,59280,475
79,103,59760,475
72,76,59760,475
76,86,59760,475
84,94,60240,238
76,78,60240,238
79,78,60240,238
72,41,60480,1200
74,45,61680,240
74,39,61920,80
76,35,62000,120
74,39,62080,80
76,36,62160,80
74,38,62240,80
76,36,62320,80
74,38,62400,80
76,36,62480,80
74,39,62560,80
76,37,62640,80
74,35,62720,80
76,39,62800,80
74,35,62880,120
72,36,63000,120
76,41,63120,120
74,38,63240,120
60,103,63360,238
60,85,63600,475
64,101,63600,475
60,72,64080,475
64,81,64080,475
67,96,64080,475
64,71,64560,475
67,79,64560,475
72,96,64560,475
67,72,65040,475
72,80,65040,475
76,95,65040,475
72,76,65520,475
76,86,65520,475
79,103,65520,475
76,78,66000,238
84,94,66000,238
79,78,66000,238
72,48,66240,1200
73,52,67440,180
72,48,67620,60
73,46,67680,80
75,41,67760,80
73,46,67840,80
75,41,67920,80
73,44,68000,80
75,41,68080,80
73,46,68160,80
75,42,68240,80
73,46,68320,80
75,43,68400,120
73,40,68520,120
75,46,68640,120
73,42,68760,120
72,48,68880,120
73,44,69000,120
79,58,69120,720
82,58,69120,720
83,56,72000,720
80,56,72000,720
88,75,74880,2880
80,75,74880,2880
83,75,74880,2880
82,52,77760,480
87,52,77760,480
79,52,77760,480
79,56,79920,600
82,56,79920,600
82,52,80520,120
79,52,80520,120
83,58,80640,480
80,58,80640,480
79,52,81120,240
82,52,81120,240
70,50,81840,240
67,50,81840,240
58,49,82560,240
55,49,82560,240
79,58,83400,120
82,58,83400,120
85,61,83520,480
82,61,83520,480
83,52,84000,240
80,52,84000,240
71,49,84720,240
68,49,84720,240
59,47,85440,235
56,47,85440,235
80,52,86280,120
83,52,86280,120
80,75,86400,2880
88,75,86400,2880
83,75,86400,2880
79,61,89280,480
87,61,89280,480
82,61,89280,480
75,52,90720,1440
66,52,90720,1440
69,52,90720,1440
74,52,92160,480
65,52,92160,480
68,52,92160,480
73,46,93600,480
64,46,93600,480
67,46,93600,480
73,41,95040,720
63,41,95040,720
67,41,95040,720
60,44,102960,600
63,40,103560,120
56,38,103680,720
68,41,103680,720
72,44,104400,600
60,40,104400,600
56,36,105000,120
68,39,105000,120
67,41,105120,720
55,38,105120,720
58,40,105840,600
70,44,105840,600
55,36,106440,120
67,39,106440,120
68,41,106560,720
56,38,106560,720
63,40,107280,1440
65,44,108720,600
61,40,109320,120
60,44,109440,720
63,44,110160,600
60,39,110760,120
58,44,110880,720
63,44,111600,600
61,39,112200,120
60,42,112320,720
63,42,113040,1440
72,55,114480,600
75,53,115080,120
80,56,115200,720
68,51,115200,720
72,57,115920,600
84,62,115920,600
80,58,116520,120
68,53,116520,120
67,57,116640,720
79,61,116640,720
70,62,117360,600
82,68,117360,600
79,63,117960,120
67,58,117960,120
68,51,118080,720
80,57,118080,720
63,45,118800,2160
75,52,118800,2160
76,85,120960,720
64,72,120960,720
61,69,121680,2160
73,81,121680,2160
71,58,123840,2160
70,51,126000,480
68,49,126480,180
69,38,126660,60
70,44,126720,120
71,38,126840,120
70,46,126960,120
71,40,127080,120
70,47,127200,120
71,40,127320,120
70,48,127440,120
71,41,127560,120
70,49,127680,120
71,42,127800,120
70,50,127920,120
71,42,128040,120
70,51,128160,120
71,44,128280,120
70,51,128400,120
71,45,128520,120
70,52,128640,120
71,46,128760,120
70,53,128880,120
71,48,129000,120
70,55,129120,120
71,48,129240,120
70,56,129360,120
71,48,129480,120
76,46,129600,120
75,39,129720,120
76,46,129840,120
75,40,129960,120
76,48,130080,120
75,41,130200,120
76,50,130320,120
75,44,130440,120
76,51,130560,120
75,45,130680,120
76,53,130800,120
75,47,130920,120
76,56,131040,120
75,48,131160,120
76,56,131280,120
75,47,131400,120
76,56,131520,120
75,48,131640,120
76,56,131760,120
75,49,131880,120
76,56,132000,120
75,49,132120,120
74,56,132240,120
75,48,132360,120
88,55,132480,120
87,46,132600,120
88,55,132720,120
87,48,132840,120
88,57,132960,120
87,50,133080,120
88,60,133200,120
87,51,133320,120
88,62,133440,120
87,52,133560,120
88,63,133680,120
87,55,133800,120
88,67,133920,120
87,56,134040,120
88,68,134160,120
87,57,134280,120
88,67,134400,120
87,56,134520,120
88,67,134640,120
87,58,134760,120
88,67,134880,120
87,58,135000,120
86,67,135120,120
87,56,135240,120
88,64,135360,240
87,55,135600,240
85,48,135840,240
83,49,136080,240
82,48,136320,240
80,48,136560,240
79,49,136800,240
78,47,137040,240
76,47,137280,240
75,48,137520,240
73,48,137760,240
71,45,138000,240
70,48,138240,240
68,44,138480,240
67,44,138720,240
66,45,138960,240
64,45,139200,240
63,45,139440,240
61,45,139680,240
56,83,146880,120
51,66,147000,120
47,66,147120,120
51,66,147240,120
56,80,147360,120
51,64,147480,120
59,84,147600,120
51,66,147720,120
58,83,147840,120
51,66,147960,120
56,81,148080,120
51,66,148200,120
56,83,148320,120
51,63,148440,120
47,63,148560,120
51,63,148680,120
56,79,148800,120
51,62,148920,120
59,83,149040,120
51,63,149160,120
58,80,149280,120
51,66,149400,120
56,80,149520,120
51,64,149640,120
64,83,149760,120
59,66,149880,120
56,66,150000,120
59,66,150120,120
64,80,150240,120
59,64,150360,120
68,84,150480,120
59,66,150600,120
66,83,150720,120
59,66,150840,120
64,81,150960,120
59,66,151080,120
64,83,151200,120
59,63,151320,120
56,63,151440,120
59,63,151560,120
64,80,151680,120
59,62,151800,120
68,83,151920,120
59,63,152040,120
66,80,152160,120
59,66,152280,120
64,80,152400,120
59,64,152520,120
73,92,152640,120
76,67,152760,120
73,77,152880,120
76,67,153000,120
73,74,153120,120
76,67,153240,120
73,73,153360,120
76,67,153480,120
73,73,153600,120
76,67,153720,120
73,73,153840,120
76,67,153960,120
73,73,154080,120
76,67,154200,120
73,73,154320,120
76,67,154440,120
73,72,154560,120
76,67,154680,120
73,95,154800,120
76,78,154920,120
70,89,155040,120
73,78,155160,120
67,84,155280,120
70,77,155400,120
64,82,155520,120
67,70,155640,120
61,81,155760,120
64,71,155880,120
58,82,156000,120
61,68,156120,120
56,81,156240,120
58,70,156360,120
61,80,156480,120
58,70,156600,120
56,80,156720,120
58,69,156840,120
56,70,157080,120
61,80,157200,120
58,69,157320,120
56,77,157440,120
61,70,157560,120
55,69,157800,120
61,80,157920,120
58,69,158040,120
55,78,158160,120
61,69,158280,120
68,83,158400,120
63,66,158520,120
59,66,158640,120
63,66,158760,120
68,80,158880,120
63,64,159000,120
71,84,159120,120
63,66,159240,120
70,83,159360,120
63,66,159480,120
68,81,159600,120
63,66,159720,120
68,83,159840,120
63,63,159960,120
59,63,160080,120
63,63,160200,120
68,80,160320,120
63,62,160440,120
71,83,160560,120
63,63,160680,120
70,80,160800,120
63,66,160920,120
68,80,161040,120
63,64,161160,120
76,83,161280,120
71,66,161400,120
68,66,161520,120
71,66,161640,120
76,80,161760,120
71,64,161880,120
80,84,162000,120
71,66,162120,120
78,83,162240,120
71,66,162360,120
76,81,162480,120
71,66,162600,120
76,83,162720,120
71,63,162840,120
68,63,162960,120
71,63,163080,120
76,80,163200,120
71,62,163320,120
80,83,163440,120
71,63,163560,120
78,80,163680,120
71,66,163800,120
76,80,163920,120
71,64,164040,120
85,94,164160,120
88,77,164280,120
85,78,164400,120
88,69,164520,120
85,75,164640,120
88,69,164760,120
85,75,164880,120
88,69,165000,120
85,74,165120,120
88,69,165240,120
85,71,165360,120
88,69,165480,120
85,71,165600,120
88,69,165720,120
85,71,165840,120
88,69,165960,120
85,73,166080,120
88,69,166200,120
85,76,166320,120
88,69,166440,120
85,77,166560,120
88,69,166680,120
85,77,166800,120
88,69,166920,120
85,82,167040,120
88,70,167160,120
82,81,167280,120
85,71,167400,120
80,82,167520,120
82,68,167640,120
80,81,167760,120
82,70,167880,120
85,80,168000,120
82,70,168120,120
80,80,168240,120
82,69,168360,120
80,72,168600,120
85,77,168720,120
82,70,168840,120
80,74,168960,120
85,69,169080,120
79,67,169320,120
85,71,169440,120
82,64,169560,120
79,68,169680,120
85,62,169800,120
76,72,170040,120
85,78,170160,120
82,70,170280,120
76,77,170400,120
85,69,170520,120
75,67,170760,120
85,74,170880,120
82,64,171000,120
75,70,171120,120
85,62,171240,120
80,72,171480,120
85,78,171600,120
82,70,171720,120
80,76,171840,120
85,69,171960,120
79,67,172200,120
85,73,172320,120
82,64,172440,120
79,70,172560,120
85,62,172680,120
83,79,173160,120
86,83,173280,120
89,74,173400,120
92,85,173520,120
89,81,173640,120
86,86,173760,120
95,83,173880,120
94,86,174000,120
92,78,174120,120
91,83,174240,120
94,81,174360,120
92,84,174480,120
91,82,174600,120
88,81,174720,120
87,74,174840,120
85,78,174960,120
88,75,175080,120
87,74,175200,120
85,72,175320,120
83,71,175440,120
82,66,175560,120
80,42,175800,120
83,45,175920,120
87,47,176040,120
92,49,176160,120
80,45,176280,120
92,49,176760,120
80,45,176880,120
92,49,177000,120
92,48,177480,120
80,45,177600,120
92,48,177720,120
91,48,178200,120
79,45,178320,120
91,49,178440,120
80,42,178680,120
83,45,178800,120
87,47,178920,120
92,49,179040,120
80,45,179160,120
80,49,179640,120
68,45,179760,120
80,49,179880,120
80,48,180360,120
68,45,180480,120
80,48,180600,120
79,48,181080,120
67,45,181200,120
79,49,181320,120
80,42,181560,120
83,45,181680,120
87,47,181800,120
92,49,181920,120
80,45,182040,120
92,49,182520,120
80,45,182640,120
92,49,182760,120
92,48,183240,120
80,45,183360,120
92,48,183480,120
91,48,183960,120
79,45,184080,120
91,49,184200,120
92,48,184320,120
87,45,184440,120
83,44,184560,120
87,39,184680,120
92,42,184800,120
87,39,184920,120
83,46,185040,120
87,41,185160,120
92,41,185280,120
87,37,185400,120
83,40,185520,120
87,36,185640,120
92,42,185760,120
87,39,185880,120
83,39,186000,120
87,35,186120,120
92,38,186240,120
87,34,186360,120
92,39,186480,120
87,35,186600,120
92,37,186720,120
87,31,186840,120
92,36,186960,120
87,30,187080,120
92,33,187200,2160
59,35,189360,600
56,31,189960,120
51,28,190080,2160
59,35,192240,600
56,31,192840,120
52,28,192960,2160
56,35,195120,600
59,30,195720,120
64,35,195840,720
68,36,196560,600
71,31,197160,120
76,36,197280,715
64,34,198000,720
71,35,198720,1200
73,33,199920,180
71,34,200100,60
73,31,200160,80
75,27,200240,80
73,31,200320,80
75,27,200400,80
73,31,200480,80
75,28,200560,80
73,31,200640,80
75,27,200720,80
73,31,200800,80
75,28,200880,80
73,26,200960,80
75,31,201040,80
73,26,201120,120
71,30,201240,120
75,35,201360,120
73,31,201480,120
71,35,201600,480
78,35,204480,1200
80,35,205680,240
77,35,205920,1440
80,44,205920,80
81,35,206000,80
80,40,206080,80
81,36,206160,80
80,39,206240,80
81,36,206320,80
80,38,206400,80
81,34,206480,80
80,37,206560,80
81,35,206640,80
80,31,206720,80
81,36,206800,80
80,33,206880,120
78,33,207000,120
81,37,207120,120
80,33,207240,120
78,35,207360,480
64,35,210240,1200
66,35,211440,240
63,35,211680,1440
66,44,211680,80
68,35,211760,80
66,40,211840,80
68,36,211920,80
66,39,212000,80
68,36,212080,80
66,39,212160,80
68,35,212240,80
66,39,212320,80
68,35,212400,80
66,31,212480,80
68,36,212560,80
66,33,212640,120
64,33,212760,120
68,37,212880,120
66,33,213000,120
64,35,213120,720
57,45,213840,1440
61,45,213840,1440
69,53,213840,1440
57,36,215280,720
61,36,215280,720
66,44,215280,600
68,39,215880,120
64,42,216000,1440
56,35,216000,1440
59,35,216000,1440
63,36,217440,1440
57,30,217440,1440
54,30,217440,1440
76,35,218880,1200
78,35,220080,240
78,36,220320,80
75,29,220320,1440
80,33,220400,80
78,36,220480,80
80,34,220560,80
78,36,220640,80
80,34,220720,80
78,36,220800,80
80,32,220880,80
78,36,220960,80
80,33,221040,80
78,30,221120,80
80,34,221200,80
78,31,221280,120
76,33,221400,120
80,37,221520,120
78,33,221640,120
76,35,221760,720
69,45,222480,1440
73,45,222480,1440
81,53,222480,1440
69,36,223920,720
73,36,223920,720
78,44,223920,600
80,39,224520,120
68,35,224640,1440
76,42,224640,1440
71,35,224640,1440
75,36,226080,480
69,30,226080,480
66,30,226080,480
71,70,227520,120
67,61,227640,120
71,70,227760,120
67,60,227880,120
71,70,228000,120
67,61,228120,120
71,70,228240,120
67,60,228360,120
71,70,228480,120
67,60,228600,120
71,70,228720,120
67,59,228840,120
71,70,228960,120
67,61,229080,120
71,70,229200,120
67,60,229320,120
71,70,229440,120
67,61,229560,120
71,70,229680,120
67,60,229800,120
71,70,229920,120
67,60,230040,120
71,70,230160,120
67,59,230280,120
71,70,230400,120
67,61,230520,120
71,70,230640,120
67,60,230760,120
71,70,230880,120
67,61,231000,120
71,70,231120,120
67,60,231240,120
71,70,231360,120
67,60,231480,120
71,70,231600,120
67,59,231720,120
71,70,231840,120
67,61,231960,120
71,70,232080,120
67,60,232200,120
71,70,232320,120
67,61,232440,120
71,70,232560,120
67,60,232680,120
71,70,232800,120
67,60,232920,120
71,70,233040,120
67,59,233160,120
65,83,233280,144
67,67,233424,144
71,70,233568,144
67,68,233712,144
65,68,233856,144
62,81,234000,144
65,67,234144,144
67,70,234288,144
65,68,234432,144
62,68,234576,144
59,77,234720,144
62,62,234864,144
65,67,235008,144
62,63,235152,144
59,63,235296,144
71,89,235440,600
74,80,236040,120
79,89,236160,720
83,91,236880,600
86,80,237480,120
79,82,237600,720
91,90,237600,720
91,86,238320,720
79,79,238320,720
79,91,239040,144
91,91,239040,144
87,73,239184,144
91,77,239328,144
87,74,239472,144
84,74,239616,144
79,91,239760,144
84,73,239904,144
87,77,240048,144
84,74,240192,144
79,74,240336,144
75,91,240480,144
79,73,240624,144
84,77,240768,144
79,74,240912,144
75,74,241056,144
72,91,241200,144
75,73,241344,144
79,77,241488,144
75,74,241632,144
72,74,241776,144
67,91,241920,144
72,73,242064,144
75,77,242208,144
72,74,242352,144
67,74,242496,144
63,91,242640,144
67,73,242784,144
72,77,242928,144
67,74,243072,144
63,74,243216,144
63,91,243360,144
67,73,243504,144
72,77,243648,144
67,74,243792,144
63,74,243936,144
63,91,244080,144
67,73,244224,144
72,77,244368,144
67,74,244512,144
63,74,244656,144
61,83,244800,144
63,67,244944,144
67,70,245088,144
63,68,245232,144
61,68,245376,144
58,81,245520,144
61,67,245664,144
63,70,245808,144
61,68,245952,144
58,68,246096,144
55,77,246240,144
58,62,246384,144
61,67,246528,144
58,63,246672,144
55,63,246816,144
67,89,246960,600
70,80,247560,120
75,89,247680,720
79,91,248400,600
82,80,249000,120
75,82,249120,720
87,90,249120,720
75,79,249840,720
87,86,249840,720
87,100,250560,144
92,80,250704,144
96,83,250848,144
92,81,250992,144
87,80,251136,144
84,97,251280,144
87,78,251424,144
92,81,251568,144
87,79,251712,144
84,75,251856,144
80,95,252000,144
84,77,252144,144
87,79,252288,144
84,77,252432,144
80,77,252576,144
75,93,252720,144
80,74,252864,144
84,78,253008,144
80,74,253152,144
75,74,253296,144
72,91,253440,144
75,73,253584,144
80,77,253728,144
75,74,253872,144
72,74,254016,144
68,91,254160,144
72,73,254304,144
75,77,254448,144
72,74,254592,144
68,74,254736,144
63,91,254880,144
68,73,255024,144
72,77,255168,144
68,74,255312,144
63,74,255456,144
60,91,255600,144
63,73,255744,144
68,77,255888,144
63,74,256032,144
60,74,256176,144
66,83,256320,2160
72,89,258480,600
75,85,259080,120
78,92,259200,720
84,95,259920,600
87,84,260520,120
90,96,260640,720
90,93,261360,720
90,105,262080,960
90,77,263040,120
87,76,263160,120
84,75,263280,120
78,75,263400,120
90,103,263520,960
78,77,264480,120
75,76,264600,120
72,75,264720,120
66,75,264840,120
78,94,264960,960
66,72,265920,120
63,71,266040,120
60,69,266160,120
54,69,266280,120
66,91,266400,240
66,74,266640,120
63,70,266760,120
60,70,266880,120
54,69,267000,120
66,89,267120,240
66,74,267360,120
63,72,267480,120
60,72,267600,120
54,71,267720,120
66,84,267840,720
63,58,270720,720
60,58,270720,720
72,59,272160,720
75,59,272160,720
65,55,273600,720
61,55,273600,720
73,58,275040,720
77,58,275040,720
61,61,276480,2880
70,61,276480,2880
65,61,276480,2880
60,52,279360,480
63,52,279360,480
68,52,279360,480
60,55,281520,600
63,55,281520,600
60,50,282120,120
63,50,282120,120
61,55,282240,480
65,55,282240,480
60,50,282720,240
63,50,282720,240
72,58,283440,240
75,58,283440,240
87,56,284160,240
84,56,284160,240
60,53,285000,120
63,53,285000,120
63,57,285120,480
66,57,285120,480
65,52,285600,240
61,52,285600,240
73,60,286320,240
77,60,286320,240
89,56,287040,235
85,56,287040,235
65,52,287880,120
61,52,287880,120
61,61,288000,2880
65,61,288000,2880
70,61,288000,2880
60,56,290880,480
63,56,290880,480
68,56,290880,480
61,52,292320,1440
64,52,292320,1440
69,52,292320,1440
60,57,293760,480
68,57,293760,480
63,57,293760,480
73,58,295200,1440
81,58,295200,1440
76,58,295200,1440
75,56,296640,480
80,56,296640,480
72,56,296640,480
62,46,298080,480
59,46,298080,480
68,46,298080,480
61,44,299520,480
58,44,299520,480
67,44,299520,480
57,39,300960,480
60,39,300960,480
66,39,300960,480
66,47,302400,480
60,47,302400,480
56,47,302400,480
75,67,303840,240
77,61,304080,240
75,59,304320,240
73,69,304560,240
75,66,304800,240
73,64,305040,240
72,70,305280,240
78,66,305520,240
78,73,306720,240
80,70,306960,240
78,70,307200,240
77,74,307440,240
78,71,307680,240
77,68,307920,240
75,81,308160,240
87,72,308400,240
87,83,309600,240
89,77,309840,240
87,73,310080,240
85,77,310320,240
87,75,310560,240
85,73,310800,240
84,76,311040,240
85,75,311280,240
84,72,311520,240
82,76,311760,240
84,73,312000,240
82,69,312240,240
80,74,312480,240
82,70,312720,240
80,67,312960,240
78,72,313200,240
80,66,313440,240
78,63,313680,240
77,73,313920,480
65,55,316080,600
53,44,316080,600
68,49,316680,120
56,39,316680,120
73,53,316800,720
61,49,316800,720
77,57,317520,600
65,52,317520,600
73,50,318120,120
61,46,318120,120
72,53,318240,720
60,49,318240,720
63,52,318960,600
75,57,318960,600
60,46,319560,120
72,50,319560,120
73,53,319680,720
61,49,319680,720
56,52,320400,1440
68,52,320400,1440
58,52,321840,600
70,57,321840,600
66,53,322440,120
65,59,322560,720
68,61,323280,600
65,55,323880,120
63,63,324000,720
66,66,324720,600
63,59,325320,120
60,72,325440,720
65,63,326160,1440
73,60,327600,600
61,56,327600,600
77,58,328200,120
65,53,328200,120
82,60,328320,720
70,51,328320,720
85,62,329040,600
73,57,329040,600
70,53,329640,120
82,58,329640,120
81,61,329760,720
69,57,329760,720
72,59,330480,600
84,65,330480,600
69,58,331080,120
81,63,331080,120
70,51,331200,720
82,57,331200,720
77,52,331920,1440
65,52,331920,1440
78,68,333360,600
66,62,333360,720
75,63,333960,120
73,70,334080,720
77,67,334800,600
73,61,335400,120
72,70,335520,720
75,71,336240,600
72,67,336840,120
70,78,336960,720
73,73,337680,1440
70,73,339120,600
82,79,339120,600
85,75,339720,120
73,69,339720,120
78,71,339840,720
90,80,339840,720
82,74,340560,600
94,81,340560,600
90,75,341160,120
78,69,341160,120
77,74,341280,720
89,80,341280,720
80,77,342000,600
92,85,342000,600
77,75,342600,120
89,82,342600,120
78,80,342720,720
90,89,342720,720
73,68,343440,2160
85,81,343440,2160
90,89,345600,720
78,80,345600,720
86,83,346320,2160
74,70,346320,2160
79,96,348480,720
91,96,348480,720
74,74,349200,2160
86,89,349200,2160
79,102,351360,720
91,102,351360,720
88,94,352080,2160
76,80,352080,2160
79,75,354960,600
82,71,355080,360
85,70,355200,120
88,70,355320,240
91,73,355440,120
79,71,355560,120
79,77,356400,600
82,72,356520,360
85,72,356640,120
88,70,356760,240
91,74,356880,120
79,72,357000,120
79,77,357840,600
82,71,357960,360
85,71,358080,120
88,70,358200,240
91,76,358320,120
79,71,358440,120
79,77,359280,600
82,71,359400,360
85,73,359520,120
88,70,359640,240
91,76,359760,120
79,71,359880,120
82,77,360240,480
85,71,360360,360
88,74,360480,120
91,70,360600,120
85,77,360960,480
88,72,361080,360
91,74,361200,120
94,70,361320,120
88,73,361800,120
91,74,361920,120
94,73,362040,120
88,73,362520,120
91,74,362640,120
94,73,362760,120
88,77,363120,120
91,75,363240,120
94,74,363360,240
85,77,363840,120
88,75,363960,120
91,74,364080,240
82,77,364560,120
85,75,364680,120
88,74,364800,240
79,77,365280,120
82,75,365400,120
85,74,365520,240
76,77,366000,120
79,72,366120,120
82,74,366240,240
73,77,366720,120
76,75,366840,120
79,74,366960,240
70,77,367440,120
73,75,367560,120
76,74,367680,240
67,77,368160,120
70,75,368280,120
73,74,368400,240
64,72,368880,120
67,71,369000,120
70,70,369120,240
61,72,369600,120
64,71,369720,120
67,70,369840,240
58,72,370320,120
61,71,370440,120
64,70,370560,240
55,72,371040,120
58,71,371160,120
61,70,371280,240
52,72,371760,120
55,71,371880,120
58,70,372000,240
49,72,372480,120
52,71,372600,120
55,70,372720,240
46,72,373200,120
49,71,373320,120
52,70,373440,240
43,72,373920,120
46,71,374040,120
49,70,374160,240
46,71,374400,120
43,71,374400,120
52,63,374520,120
46,71,374640,120
43,71,374640,120
52,63,374760,120
46,71,374880,120
43,71,374880,120
52,63,375000,120
46,71,375120,120
43,71,375120,120
52,63,375240,120
46,71,375360,120
43,71,375360,120
52,63,375480,120
43,71,375600,120
46,71,375600,120
52,63,375720,120
46,71,375840,120
43,71,375840,120
52,63,375960,120
43,71,376080,120
46,71,376080,120
52,63,376200,120
46,71,376320,120
43,71,376320,120
52,63,376440,120
46,71,376560,120
43,71,376560,120
52,63,376680,120
46,71,376800,120
43,71,376800,120
52,63,376920,120
43,71,377040,120
46,71,377040,120
52,63,377160,120
43,71,377280,120
46,71,377280,120
52,63,377400,120
46,71,377520,120
43,71,377520,120
52,63,377640,120
43,71,377760,120
46,71,377760,120
52,63,377880,120
43,71,378000,120
46,71,378000,120
52,63,378120,120
46,71,378240,120
43,71,378240,120
52,63,378360,120
43,71,378480,120
46,71,378480,120
52,63,378600,120
43,71,378720,120
46,71,378720,120
52,63,378840,120
43,71,378960,120
46,71,378960,120
52,63,379080,120
43,71,379200,120
46,71,379200,120
52,63,379320,120
46,71,379440,120
43,71,379440,120
52,63,379560,120
43,71,379680,120
46,71,379680,120
52,63,379800,120
46,71,379920,120
43,71,379920,120
52,63,380040,120
46,71,380160,120
43,71,380160,120
52,63,380280,120
43,71,380400,120
46,71,380400,120
52,63,380520,120
43,71,380640,120
46,71,380640,120
52,63,380760,120
46,71,380880,120
43,71,380880,120
52,63,381000,120
43,71,381120,120
46,71,381120,120
52,63,381240,120
46,71,381360,120
43,71,381360,120
52,63,381480,120
46,71,381600,120
43,71,381600,120
52,63,381720,120
43,71,381840,120
46,71,381840,120
52,63,381960,120
43,71,382080,120
46,71,382080,120
52,63,382200,120
46,71,382320,120
43,71,382320,120
52,63,382440,120
43,71,382560,120
46,71,382560,120
52,63,382680,120
43,71,382800,120
46,71,382800,120
52,63,382920,120
43,71,383040,120
46,71,383040,120
52,63,383160,120
43,71,383280,120
46,71,383280,120
52,63,383400,120
43,71,383520,120
46,71,383520,120
52,63,383640,120
46,71,383760,120
43,71,383760,120
52,63,383880,120
43,71,384000,120
46,71,384000,120
52,63,384120,120
46,71,384240,120
43,71,384240,120
52,63,384360,120
46,71,384480,120
43,71,384480,120
52,63,384600,120
43,71,384720,120
46,71,384720,120
52,63,384840,120
43,71,384960,120
46,71,384960,120
52,63,385080,120
43,71,385200,120
46,71,385200,120
52,63,385320,120
46,71,385440,120
43,71,385440,120
52,63,385560,120
43,71,385680,120
46,71,385680,120
52,63,385800,120
43,65,385920,480
52,65,385920,480
46,65,385920,480
48,27,390960,600
60,35,390960,600
56,31,391560,120
44,25,391560,120
41,22,391680,2160
53,28,391680,2160
56,35,393840,600
44,27,393840,600
48,24,394440,120
60,30,394440,120
65,35,394560,720
53,27,394560,720
68,36,395280,600
56,28,395280,600
72,31,395880,120
60,25,395880,120
77,40,396000,715
65,31,396000,715
65,33,396720,720
53,26,396720,720
67,26,397440,1440
64,26,397440,1440
72,35,397440,1200
74,33,398640,240
65,26,398880,1440
71,26,398880,1440
74,33,398880,80
76,29,398960,80
74,33,399040,80
76,29,399120,80
74,33,399200,80
76,30,399280,80
74,33,399360,80
76,29,399440,80
74,33,399520,80
76,30,399600,80
74,28,399680,80
76,33,399760,80
74,28,399840,120
72,30,399960,120
76,35,400080,120
74,31,400200,120
72,35,400320,480
64,19,400320,480
67,22,400320,480
61,35,402480,600
49,27,402480,600
58,31,403080,120
46,25,403080,120
54,28,403200,2160
42,22,403200,2160
46,27,405360,600
58,35,405360,600
61,30,405960,120
49,24,405960,120
54,27,406080,720
66,35,406080,720
70,36,406800,600
58,28,406800,600
61,25,407400,120
73,31,407400,120
78,40,407520,720
66,31,407520,720
54,26,408240,720
66,33,408240,720
65,26,408960,1440
68,26,408960,1440
73,35,408960,1200
75,33,410160,240
75,28,410400,80
66,26,410400,1440
72,26,410400,1440
77,25,410480,80
75,28,410560,80
77,25,410640,80
75,28,410720,80
77,25,410800,80
75,29,410880,80
77,25,410960,80
75,29,411040,80
77,26,411120,80
75,29,411200,80
77,27,411280,80
75,24,411360,120
73,30,411480,120
77,35,411600,120
75,31,411720,120
73,35,411840,480
65,19,411840,480
68,22,411840,480
72,35,414720,1200
74,38,415920,180
72,38,416100,60
74,37,416160,80
76,32,416240,80
74,37,416320,80
76,33,416400,80
74,37,416480,80
76,33,416560,80
74,37,416640,80
76,33,416720,80
74,37,416800,80
76,34,416880,80
74,31,416960,80
76,37,417040,80
74,31,417120,120
72,34,417240,120
76,40,417360,120
74,35,417480,120
72,35,417600,480
76,40,420480,1200
77,38,421680,180
76,38,421860,60
77,37,421920,80
79,32,422000,80
77,37,422080,80
79,33,422160,80
77,37,422240,80
79,33,422320,80
77,37,422400,80
79,33,422480,80
77,37,422560,80
79,34,422640,80
77,31,422720,80
79,37,422800,80
77,31,422880,120
76,34,423000,120
79,40,423120,120
77,35,423240,120
76,35,423360,480
76,35,425520,240
79,35,425520,240
76,31,425760,240
79,31,425760,240
79,35,426000,240
76,35,426000,240
82,35,426240,480
79,35,426240,480
79,66,428400,240
82,66,428400,240
79,62,428640,240
82,62,428640,240
82,68,428880,240
79,68,428880,240
88,71,429120,120
82,64,429240,120
91,72,429360,120
88,64,429480,120
94,73,429600,120
91,66,429720,120
88,74,429840,120
91,67,429960,120
82,74,430080,120
88,68,430200,120
79,75,430320,120
82,68,430440,120
76,75,430560,120
79,69,430680,120
70,76,430800,120
76,67,430920,120
67,76,431040,120
70,70,431160,120
64,77,431280,120
67,68,431400,120
58,78,431520,120
64,71,431640,120
60,35,437040,600
57,31,437640,120
53,103,437760,238
57,75,438000,475
53,75,438000,475
60,85,438000,475
65,101,438000,475
60,72,438480,475
65,81,438480,475
69,96,438480,475
57,72,438480,475
60,71,438960,475
65,71,438960,475
72,96,438960,475
69,79,438960,475
69,72,439440,475
77,95,439440,475
72,80,439440,475
65,72,439440,475
77,86,439920,475
69,76,439920,475
72,76,439920,475
81,103,439920,475
77,78,440400,238
84,94,440400,238
72,71,440400,238
81,78,440400,238
81,86,440640,2160
84,86,440640,2160
89,103,440640,2160
77,76,440640,2160
57,41,442800,600
60,35,443400,120
65,40,443520,720
69,43,444240,600
72,37,444840,120
77,40,444960,715
65,40,445680,720
60,103,446400,238
60,85,446640,475
64,101,446640,475
60,72,447120,475
67,96,447120,475
64,81,447120,475
67,81,447600,475
72,98,447600,475
64,72,447600,475
76,95,448080,475
67,72,448080,475
72,80,448080,475
79,103,448560,475
72,76,448560,475
76,86,448560,475
84,94,449040,238
76,78,449040,238
79,78,449040,238
72,41,449280,1200
74,45,450480,240
74,38,450720,80
76,35,450800,120
74,38,450880,80
76,36,450960,80
74,39,451040,80
76,36,451120,80
74,38,451200,80
76,36,451280,80
74,39,451360,80
76,37,451440,80
74,35,451520,80
76,39,451600,80
74,35,451680,120
72,36,451800,120
76,41,451920,120
74,38,452040,120
60,103,452160,238
64,101,452400,475
60,85,452400,475
64,81,452880,475
67,96,452880,475
60,72,452880,475
72,98,453360,475
64,72,453360,475
67,81,453360,475
76,95,453840,475
67,72,453840,475
72,80,453840,475
79,103,454320,475
72,76,454320,475
76,86,454320,475
76,78,454800,238
84,94,454800,238
79,78,454800,238
72,41,455040,1200
74,45,456240,240
74,44,456480,80
76,39,456560,80
74,42,456640,80
76,37,456720,80
74,41,456800,80
76,36,456880,80
74,40,456960,80
76,37,457040,80
74,41,457120,80
76,38,457200,120
74,37,457320,120
76,42,457440,120
74,41,457560,120
72,48,457680,120
74,44,457800,120
55,81,457920,238
64,103,457920,238
58,81,457920,238
64,85,458160,475
58,85,458160,475
67,101,458160,475
67,81,458640,475
70,96,458640,475
64,72,458640,475
70,85,459120,475
76,101,459120,475
67,75,459120,475
70,72,459600,475
79,95,459600,475
76,80,459600,475
76,76,460080,475
82,103,460080,475
79,86,460080,475
79,78,460560,238
88,94,460560,238
82,78,460560,238
76,48,460800,1200
77,52,462000,240
77,46,462240,80
79,41,462320,80
77,46,462400,80
79,41,462480,80
77,46,462560,80
79,41,462640,80
77,46,462720,80
79,42,462800,80
77,46,462880,80
79,43,462960,120
77,40,463080,120
79,46,463200,120
77,42,463320,120
76,48,463440,120
77,44,463560,120
67,103,463680,238
64,81,463680,238
76,101,463920,475
73,85,463920,475
76,81,464400,475
79,96,464400,475
82,101,464880,475
79,85,464880,475
82,80,465360,475
85,95,465360,475
85,86,465840,475
88,103,465840,475
88,78,466320,238
91,94,466320,238
79,79,466560,1200
76,59,466560,1440
80,87,467760,240
77,64,468000,1440
80,76,468000,120
82,68,468120,120
80,76,468240,120
82,68,468360,120
80,76,468480,120
82,68,468600,120
80,76,468720,120
82,67,468840,120
80,67,468960,120
79,70,469080,120
82,79,469200,120
80,73,469320,120
76,58,469440,720
79,58,469440,720
77,56,472320,720
80,56,472320,720
80,75,475200,2880
77,75,475200,2880
85,75,475200,2880
79,52,478080,480
76,52,478080,480
84,52,478080,480
76,56,480240,600
79,56,480240,600
79,52,480840,120
76,52,480840,120
80,58,480960,480
77,58,480960,480
79,52,481440,240
76,52,481440,240
67,50,482160,240
64,50,482160,240
55,49,482880,240
52,49,482880,240
79,58,483720,120
76,58,483720,120
82,61,483840,480
79,61,483840,480
77,52,484320,240
80,52,484320,240
65,49,485040,240
68,49,485040,240
53,47,485760,235
56,47,485760,235
77,52,486600,120
80,52,486600,120
80,75,486720,2880
77,75,486720,2880
85,75,486720,2880
79,61,489600,480
76,61,489600,480
84,61,489600,480
66,52,491040,1440
63,52,491040,1440
72,52,491040,1440
65,52,492480,480
71,52,492480,480
62,52,492480,480
61,46,493920,480
70,46,493920,480
65,46,493920,480
60,41,495360,720
68,41,495360,720
65,41,495360,720
57,44,503280,600
60,40,503880,120
53,38,504000,720
65,41,504000,720
57,40,504720,600
69,44,504720,600
65,39,505320,120
53,36,505320,120
64,41,505440,720
52,38,505440,720
67,44,506160,600
55,40,506160,600
64,39,506760,120
52,36,506760,120
53,38,506880,720
65,41,506880,720
60,40,507600,1440
62,44,509040,600
58,40,509640,120
57,44,509760,720
60,44,510480,600
57,39,511080,120
55,44,511200,720
60,44,511920,600
58,39,512520,120
57,42,512640,720
60,42,513360,1440
69,55,514800,600
72,53,515400,120
65,51,515520,720
77,56,515520,720
81,62,516240,600
69,57,516240,600
77,58,516840,120
65,53,516840,120
76,61,516960,720
64,57,516960,720
79,68,517680,600
67,62,517680,600
76,63,518280,120
64,58,518280,120
77,57,518400,720
65,51,518400,720
60,48,519120,2160
72,52,519120,2160
61,72,521280,720
73,85,521280,720
58,69,522000,2160
70,81,522000,2160
68,58,524160,2160
67,51,526320,480
65,49,526800,240
67,46,527040,120
68,39,527160,120
67,46,527280,120
68,40,527400,120
67,47,527520,120
68,40,527640,120
67,48,527760,120
68,41,527880,120
67,49,528000,120
68,42,528120,120
67,50,528240,120
68,42,528360,120
67,51,528480,120
68,44,528600,120
67,51,528720,120
68,45,528840,120
67,52,528960,120
68,46,529080,120
67,53,529200,120
68,48,529320,120
67,55,529440,120
68,48,529560,120
67,56,529680,120
68,48,529800,120
73,46,529920,120
72,39,530040,120
73,46,530160,120
72,40,530280,120
73,48,530400,120
72,41,530520,120
73,50,530640,120
72,44,530760,120
73,51,530880,120
72,45,531000,120
73,53,531120,120
72,47,531240,120
73,56,531360,120
72,48,531480,120
73,56,531600,120
72,47,531720,120
73,56,531840,120
72,48,531960,120
73,56,532080,120
72,49,532200,120
73,56,532320,120
72,49,532440,120
71,56,532560,120
72,48,532680,120
85,49,532800,120
84,41,532920,120
85,49,533040,120
84,43,533160,120
85,51,533280,120
84,45,533400,120
85,54,533520,120
84,45,533640,120
85,55,533760,120
84,46,533880,120
85,56,534000,120
84,49,534120,120
85,60,534240,120
84,49,534360,120
85,58,534480,120
84,48,534600,120
85,55,534720,120
84,45,534840,120
85,54,534960,120
84,45,535080,120
85,52,535200,120
84,44,535320,120
83,50,535440,120
84,40,535560,120
85,47,535680,240
84,47,535920,240
82,45,536160,240
80,42,536400,240
79,43,536640,240
78,42,536880,240
77,42,537120,240
76,42,537360,240
75,42,537600,240
73,42,537840,240
72,41,538080,240
70,41,538320,240
68,41,538560,240
67,39,538800,240
66,39,539040,240
65,38,539280,240
64,37,539520,240
63,36,539760,240
61,36,540000,240
60,36,540240,240
58,35,540480,240
53,83,547200,120
48,66,547320,120
44,66,547440,120
48,66,547560,120
53,72,547680,120
48,64,547800,120
56,84,547920,120
48,66,548040,120
55,83,548160,120
48,66,548280,120
53,81,548400,120
48,66,548520,120
53,83,548640,120
48,63,548760,120
44,63,548880,120
48,63,549000,120
53,66,549120,120
48,62,549240,120
56,83,549360,120
48,63,549480,120
55,80,549600,120
48,66,549720,120
53,80,549840,120
48,64,549960,120
61,83,550080,120
56,66,550200,120
53,66,550320,120
56,66,550440,120
61,77,550560,120
56,64,550680,120
65,84,550800,120
56,66,550920,120
63,83,551040,120
56,66,551160,120
61,81,551280,120
56,66,551400,120
61,83,551520,120
56,63,551640,120
53,63,551760,120
56,63,551880,120
61,75,552000,120
56,62,552120,120
65,83,552240,120
56,63,552360,120
63,80,552480,120
56,66,552600,120
61,80,552720,120
56,64,552840,120
70,93,552960,120
73,74,553080,120
70,76,553200,120
73,67,553320,120
70,72,553440,120
73,67,553560,120
70,72,553680,120
73,67,553800,120
70,72,553920,120
73,67,554040,120
70,72,554160,120
73,67,554280,120
70,76,554400,120
73,67,554520,120
70,76,554640,120
73,67,554760,120
70,76,554880,120
73,67,555000,120
70,95,555120,120
73,78,555240,120
67,89,555360,120
70,78,555480,120
64,84,555600,120
67,77,555720,120
61,82,555840,120
64,70,555960,120
58,81,556080,120
61,71,556200,120
55,82,556320,120
58,68,556440,120
53,81,556560,120
55,70,556680,120
58,80,556800,120
55,70,556920,120
53,80,557040,120
55,69,557160,120
53,70,557400,120
58,80,557520,120
55,69,557640,120
53,77,557760,120
58,70,557880,120
52,69,558120,120
58,80,558240,120
55,69,558360,120
52,78,558480,120
58,69,558600,120
65,83,558720,120
60,66,558840,120
56,66,558960,120
60,66,559080,120
65,80,559200,120
60,64,559320,120
68,84,559440,120
60,66,559560,120
67,83,559680,120
60,66,559800,120
65,81,559920,120
60,66,560040,120
65,83,560160,120
60,63,560280,120
56,63,560400,120
60,63,560520,120
65,80,560640,120
60,62,560760,120
68,83,560880,120
60,63,561000,120
67,80,561120,120
60,66,561240,120
65,80,561360,120
60,64,561480,120
73,83,561600,120
68,66,561720,120
65,66,561840,120
68,66,561960,120
73,80,562080,120
68,64,562200,120
77,84,562320,120
68,66,562440,120
75,83,562560,120
68,66,562680,120
73,81,562800,120
68,66,562920,120
73,83,563040,120
68,63,563160,120
65,63,563280,120
68,63,563400,120
73,80,563520,120
68,62,563640,120
77,83,563760,120
68,63,563880,120
75,80,564000,120
68,66,564120,120
73,80,564240,120
68,64,564360,120
82,93,564480,120
85,75,564600,120
82,80,564720,120
85,69,564840,120
82,77,564960,120
85,69,565080,120
82,78,565200,120
85,69,565320,120
82,74,565440,120
85,69,565560,120
82,74,565680,120
85,69,565800,120
82,74,565920,120
85,69,566040,120
82,74,566160,120
85,69,566280,120
82,74,566400,120
85,69,566520,120
82,75,566640,120
85,69,566760,120
82,77,566880,120
85,69,567000,120
82,77,567120,120
85,69,567240,120
82,82,567360,120
85,70,567480,120
79,81,567600,120
82,71,567720,120
77,82,567840,120
79,68,567960,120
77,81,568080,120
79,70,568200,120
82,80,568320,120
79,70,568440,120
77,80,568560,120
79,69,568680,120
77,72,568920,120
82,82,569040,120
79,70,569160,120
77,77,569280,120
82,69,569400,120
76,67,569640,120
82,75,569760,120
79,64,569880,120
76,72,570000,120
82,62,570120,120
73,72,570360,120
82,82,570480,120
79,70,570600,120
73,77,570720,120
82,69,570840,120
72,67,571080,120
82,75,571200,120
79,64,571320,120
72,72,571440,120
82,62,571560,120
77,72,571800,120
82,82,571920,120
79,70,572040,120
77,77,572160,120
82,69,572280,120
76,67,572520,120
82,75,572640,120
79,64,572760,120
76,72,572880,120
82,62,573000,120
83,83,573600,120
86,79,573720,120
89,87,573840,120
86,79,573960,120
83,86,574080,120
92,83,574200,120
91,84,574320,120
89,79,574440,120
88,79,574560,120
91,74,574680,120
89,79,574800,120
88,72,574920,120
85,73,575040,120
84,72,575160,120
82,78,575280,120
85,73,575400,120
84,75,575520,120
82,72,575640,120
80,71,575760,120
79,70,575880,120
77,39,576120,120
80,41,576240,120
84,43,576360,120
89,45,576480,120
77,41,576600,120
89,45,577080,120
77,41,577200,120
89,45,577320,120
89,44,577800,120
77,41,577920,120
89,44,578040,120
88,44,578520,120
76,41,578640,120
88,45,578760,120
77,39,579000,120
80,41,579120,120
84,43,579240,120
89,45,579360,120
77,41,579480,120
77,45,579960,120
65,41,580080,120
77,45,580200,120
77,44,580680,120
65,41,580800,120
77,44,580920,120
76,44,581400,120
64,41,581520,120
76,45,581640,120
77,39,581880,120
80,41,582000,120
84,43,582120,120
89,45,582240,120
77,41,582360,120
89,45,582840,120
77,41,582960,120
89,45,583080,120
89,44,583560,120
77,41,583680,120
89,44,583800,120
88,44,584280,120
76,41,584400,120
88,45,584520,120
89,44,584640,120
84,41,584760,120
80,40,584880,120
84,36,585000,120
89,39,585120,120
84,36,585240,120
80,42,585360,120
84,38,585480,120
89,38,585600,120
84,34,585720,120
80,37,585840,120
84,33,585960,120
89,39,586080,120
84,36,586200,120
80,36,586320,120
84,32,586440,120
89,35,586560,120
84,31,586680,120
89,36,586800,120
84,34,586920,120
89,34,587040,120
84,30,587160,120
89,33,587280,120
84,30,587400,120
89,38,587520,120
84,30,587640,120
80,37,587760,120
84,30,587880,120
89,33,588000,120
84,30,588120,120
80,36,588240,120
84,30,588360,120
89,35,588480,120
84,30,588600,120
80,31,588720,120
84,30,588840,120
89,38,588960,120
84,30,589080,120
80,33,589200,120
84,29,589320,120
89,33,589440,120
84,28,589560,120
89,37,589680,120
84,33,589800,120
80,34,589920,120
84,29,590040,120
89,33,590160,120
84,29,590280,120
89,38,590400,120
84,30,590520,120
80,37,590640,120
84,30,590760,120
89,33,590880,120
84,30,591000,120
89,36,591120,120
84,30,591240,120
80,35,591360,120
84,30,591480,120
89,31,591600,120
84,30,591720,120
89,38,591840,120
84,30,591960,120
80,33,592080,120
84,29,592200,120
89,33,592320,120
84,28,592440,120
89,37,592560,120
84,33,592680,120
80,34,592800,120
84,29,592920,120
89,33,593040,120
84,29,593160,120
87,38,593280,120
84,30,593400,120
80,37,593520,120
84,30,593640,120
87,33,593760,120
84,30,593880,120
80,36,594000,120
84,30,594120,120
87,35,594240,120
84,30,594360,120
80,31,594480,120
84,30,594600,120
87,38,594720,120
84,30,594840,120
80,33,594960,120
84,29,595080,120
87,33,595200,120
84,28,595320,120
87,37,595440,120
84,33,595560,120
80,34,595680,120
84,29,595800,120
87,33,595920,120
84,29,596040,120
87,38,596160,120
84,30,596280,120
80,37,596400,120
84,30,596520,120
87,33,596640,120
84,30,596760,120
87,36,596880,120
84,30,597000,120
80,35,597120,120
84,30,597240,120
87,31,597360,120
84,30,597480,120
87,38,597600,120
84,30,597720,120
80,33,597840,120
84,29,597960,120
87,33,598080,120
84,28,598200,120
87,37,598320,120
84,33,598440,120
80,34,598560,120
84,29,598680,120
87,33,598800,120
84,29,598920,120
89,38,599040,120
85,30,599160,120
80,37,599280,120
85,30,599400,120
89,33,599520,120
85,31,599640,120
89,37,599760,120
85,30,599880,120
80,36,600000,120
85,31,600120,120
89,34,600240,120
85,33,600360,120
89,40,600480,120
85,33,600600,120
80,35,600720,120
85,31,600840,120
89,35,600960,120
85,30,601080,120
89,40,601200,120
85,36,601320,120
80,37,601440,120
85,33,601560,120
89,36,601680,120
85,33,601800,120
90,40,601920,120
84,35,602040,120
80,40,602160,120
84,35,602280,120
90,37,602400,120
84,36,602520,120
90,42,602640,120
84,35,602760,120
80,41,602880,120
84,37,603000,120
90,38,603120,120
84,37,603240,120
90,44,603360,120
84,36,603480,120
80,44,603600,120
84,38,603720,120
90,39,603840,120
84,38,603960,120
90,45,604080,120
87,38,604200,120
80,44,604320,120
87,39,604440,120
90,39,604560,120
87,39,604680,120
89,55,604800,480
77,62,606960,600
80,57,607560,120
85,66,607680,720
89,62,608400,600
85,55,609000,120
84,63,609120,720
87,66,609840,600
84,55,610440,120
85,66,610560,720
80,59,611280,1440
77,68,612720,600
80,62,613320,120
85,71,613440,720
89,74,614160,600
85,64,614760,120
84,75,614880,720
87,80,615600,600
84,71,616200,120
83,85,616320,720
86,95,617040,1440
86,84,618480,600
83,79,619080,120
84,85,619200,720
88,97,619920,1440
91,84,621360,600
79,71,621360,600
77,67,621960,120
89,79,621960,120
88,85,622080,720
76,72,622080,720
79,79,622800,1440
91,93,622800,1440
79,74,624240,600
91,88,624240,600
76,70,624840,120
88,82,624840,120
89,89,624960,720
77,75,624960,720
92,96,625680,1440
80,81,625680,1440
92,88,627120,600
80,74,627120,600
89,82,627720,120
77,70,627720,120
61,80,627960,120
58,77,628080,120
66,72,628200,120
66,75,628680,120
61,78,628800,120
70,73,628920,120
70,74,629400,120
66,80,629520,120
73,74,629640,120
73,75,630120,120
70,80,630240,120
78,72,630360,120
78,74,630840,120
73,77,630960,120
82,72,631080,120
82,71,631560,120
78,75,631680,120
85,73,631800,120
85,74,632280,120
82,80,632400,120
90,74,632520,120
90,82,633120,120
85,79,633240,120
94,84,633360,240
63,80,633720,120
60,77,633840,120
69,72,633960,120
69,75,634440,120
63,78,634560,120
72,73,634680,120
72,74,635160,120
69,80,635280,120
75,74,635400,120
75,75,635880,120
72,80,636000,120
81,72,636120,120
81,75,636600,120
75,77,636720,120
84,72,636840,120
84,71,637320,120
81,75,637440,120
87,73,637560,120
87,74,638040,120
84,80,638160,120
93,74,638280,120
93,83,638880,120
87,77,639000,120
96,83,639120,240
65,74,639480,120
61,77,639600,120
70,72,639720,120
70,75,640320,120
65,72,640440,120
73,73,640560,240
67,75,640920,120
64,77,641040,120
72,72,641160,120
72,75,641760,120
67,72,641880,120
76,73,642000,240
68,73,642360,120
65,77,642480,120
73,72,642600,120
73,75,643200,120
68,71,643320,120
77,73,643440,240
70,80,643800,120
67,77,643920,120
76,72,644040,120
76,75,644640,120
70,73,644760,120
79,73,644880,240
72,64,645240,120
68,69,645360,120
77,64,645480,120
73,64,645960,120
70,69,646080,120
79,67,646200,120
75,69,646680,120
72,73,646800,120
81,69,646920,120
77,71,647400,120
73,68,647520,120
82,70,647640,120
79,71,648120,120
76,73,648240,120
84,70,648360,120
80,69,648840,120
77,73,648960,120
85,72,649080,120
82,74,649560,120
79,78,649680,120
88,74,649800,120
84,75,650280,120
80,77,650400,120
89,75,650520,120
85,78,651000,120
82,79,651120,120
91,74,651240,120
87,74,651720,120
84,79,651840,120
93,74,651960,120
89,79,652440,120
85,80,652560,120
94,79,652680,120
89,81,653160,120
85,83,653280,120
94,80,653400,120
89,78,654120,120
85,82,654240,120
94,79,654360,120
89,89,654480,120
85,83,654600,120
82,78,654720,120
77,78,654840,120
73,82,654960,120
82,79,655080,120
77,86,655200,120
73,82,655320,120
70,80,655440,120
65,74,655560,120
61,78,655680,120
70,73,655800,120
65,81,655920,120
61,78,656040,120
61,80,657360,120
65,75,657480,120
70,75,657600,120
73,75,657720,120
77,79,657840,120
73,73,657960,120
70,80,658080,120
73,74,658200,120
77,79,658320,120
82,74,658440,120
85,82,658560,120
82,75,658680,120
89,83,658800,120
85,78,658920,120
94,83,659040,120
89,78,659160,120
85,80,659280,120
82,75,659400,120
92,78,659880,120
89,85,660000,120
95,81,660120,120
92,92,660240,120
89,80,660360,120
86,81,660480,120
83,77,660600,120
80,81,660720,120
77,79,660840,120
83,85,660960,120
80,82,661080,120
77,78,661200,120
74,74,661320,120
71,75,661440,120
68,73,661560,120
74,81,661680,120
71,78,661800,120
68,74,661920,120
65,74,662040,120
62,74,662160,120
59,74,662280,120
68,79,662400,120
65,71,662520,120
62,74,662640,120
62,80,663840,120
65,74,663960,120
68,79,664080,120
71,74,664200,120
74,82,664320,120
77,75,664440,120
80,83,664560,120
83,78,664680,120
86,83,664800,120
89,78,664920,120
92,80,665040,120
95,75,665160,120
92,78,665640,120
89,82,665760,120
96,79,665880,120
92,92,666000,120
89,83,666120,120
84,82,666240,120
80,78,666360,120
77,82,666480,120
84,79,666600,120
80,86,666720,120
77,82,666840,120
72,80,666960,120
68,74,667080,120
65,78,667200,120
72,73,667320,120
68,81,667440,120
65,78,667560,120
65,80,669600,120
68,74,669720,120
72,79,669840,120
77,74,669960,120
80,78,670080,120
84,75,670200,120
89,83,670320,120
92,78,670440,120
96,83,670560,120
92,78,670680,120
89,80,670800,120
84,75,670920,120
91,72,671400,120
88,77,671520,120
94,73,671640,120
91,78,671760,120
88,77,671880,120
84,74,672000,120
82,72,672120,120
79,77,672240,120
76,73,672360,120
72,78,672480,120
70,75,672600,120
67,71,672720,120
64,70,672840,120
60,71,674880,120
64,71,675000,120
67,73,675120,120
70,69,675240,120
72,73,675360,120
76,66,675480,120
79,70,675600,120
76,66,675720,120
72,70,675840,120
76,66,675960,120
79,70,676080,120
76,60,676200,120
82,65,676320,120
79,58,676440,120
76,63,676560,120
79,56,676680,120
82,57,676800,480
79,46,678960,240
76,46,678960,240
76,42,679200,240
79,42,679200,240
76,46,679440,240
79,46,679440,240
82,46,679680,480
79,46,679680,480
64,39,681840,240
67,39,681840,240
64,37,682080,240
67,37,682080,240
67,37,682320,240
64,37,682320,240
67,41,682560,480
70,41,682560,480
70,32,686160,240
67,32,686160,240
76,32,686160,240
76,36,686400,240
70,36,686400,240
67,36,686400,240
76,39,686640,240
67,39,686640,240
70,39,686640,240
76,43,686880,720
70,43,686880,720
67,43,686880,720
84,87,687600,240
82,87,687600,240
79,87,687600,240
76,87,687600,240
88,102,687600,240
76,78,687840,240
84,78,687840,240
79,78,687840,240
88,93,687840,240
82,78,687840,240
79,78,688080,240
76,78,688080,240
82,78,688080,240
84,78,688080,240
88,93,688080,240
84,87,688320,480
80,87,688320,480
89,102,688320,480
77,87,688320,480
68,66,690480,600
72,58,691080,120
77,63,691200,720
80,68,691920,600
77,60,692520,120
76,63,692640,720
79,68,693360,600
76,60,693960,120
77,63,694080,720
72,62,694800,1440
80,71,696240,600
68,60,696240,600
84,62,696840,120
72,52,696840,120
77,61,696960,720
89,73,696960,720
92,78,697680,600
80,65,697680,600
89,71,698280,120
77,59,698280,120
88,76,698400,720
76,64,698400,720
91,82,699120,600
79,68,699120,600
88,77,699720,120
76,65,699720,120
90,99,699840,720
78,82,699840,720
72,63,700560,1440
84,79,700560,1440
75,70,702000,600
87,84,702000,600
72,66,702600,120
84,78,702600,120
89,99,702720,720
77,82,702720,720
70,63,703440,1440
82,79,703440,1440
73,70,704880,600
85,84,704880,600
82,78,705480,120
70,66,705480,120
68,75,705600,720
80,90,705600,720
84,84,706320,600
72,70,706320,600
80,78,706920,120
68,66,706920,120
79,90,707040,720
67,75,707040,720
79,77,707760,600
91,92,707760,600
76,72,708360,120
88,85,708360,120
78,84,708460,720
90,103,708460,720
72,69,709200,1440
84,86,709200,1440
87,92,710640,600
75,77,710640,600
72,72,711240,120
84,85,711240,120
89,103,711360,720
77,84,711360,720
82,86,712080,1440
70,69,712080,1440
73,77,713520,600
85,92,713520,600
70,72,714120,120
82,85,714120,120
68,82,714240,720
80,99,714240,720
84,92,714960,600
72,77,714960,600
80,85,715560,120
68,72,715560,120
79,99,715680,720
67,82,715680,720
84,101,716400,480
72,84,716400,480
84,95,716880,240
72,80,716880,240
84,105,717120,240
72,87,717120,240
65,59,717360,220
60,59,717360,220
72,79,717360,220
68,66,717360,220
68,66,717600,220
72,79,717600,220
60,59,717600,220
65,59,717600,220
68,69,717840,720
65,62,717840,720
72,84,717840,720
60,62,717840,720
60,59,718800,220
72,79,718800,220
64,66,718800,220
67,66,718800,220
72,79,719040,220
60,59,719040,220
64,66,719040,220
67,66,719040,220
72,84,719280,720
70,69,719280,720
67,62,719280,720
60,62,719280,720
68,66,720240,220
60,59,720240,220
65,59,720240,220
72,79,720240,220
68,66,720480,220
72,79,720480,220
60,59,720480,220
65,59,720480,220
60,62,720720,720
68,69,720720,720
65,62,720720,720
72,84,720720,720
64,66,721680,220
60,59,721680,220
72,79,721680,220
67,66,721680,220
64,66,721920,220
67,66,721920,220
60,59,721920,220
72,79,721920,220
72,84,722160,720
67,62,722160,720
70,69,722160,720
60,62,722160,720
65,65,723120,220
60,65,723120,220
72,77,723120,220
68,65,723120,220
65,73,723600,220
61,73,723600,220
73,85,723600,220
67,73,723600,220
61,65,724080,220
65,65,724080,220
67,65,724080,220
73,77,724080,220
60,69,724560,220
72,83,724560,220
68,69,724560,220
65,69,724560,220
60,70,725040,220
64,70,725040,220
72,82,725040,220
67,70,725040,220
64,59,725520,220
67,59,725520,220
60,59,725520,220
72,71,725520,220
65,76,725760,240
68,76,725760,240
60,76,725760,240
72,92,725760,240
53,59,726000,220
48,59,726000,220
56,66,726000,220
60,79,726000,220
48,59,726240,220
60,79,726240,220
56,66,726240,220
53,59,726240,220
48,62,726480,720
53,62,726480,720
60,84,726480,720
56,69,726480,720
48,59,727440,220
55,66,727440,220
60,79,727440,220
52,66,727440,220
55,66,727680,220
52,66,727680,220
48,59,727680,220
60,79,727680,220
55,62,727920,720
58,69,727920,720
60,84,727920,720
48,62,727920,720
48,59,728880,220
53,59,728880,220
56,66,728880,220
60,79,728880,220
48,59,729120,220
56,66,729120,220
60,79,729120,220
53,59,729120,220
53,62,729360,720
48,62,729360,720
56,69,729360,720
60,84,729360,720
52,66,730320,220
55,66,730320,220
48,59,730320,220
60,79,730320,220
55,66,730560,220
60,79,730560,220
52,66,730560,220
48,59,730560,220
58,69,730800,720
48,62,730800,720
55,62,730800,720
60,84,730800,720
53,63,731760,220
56,63,731760,220
60,81,731760,220
48,63,731760,220
49,69,732240,220
61,89,732240,220
55,69,732240,220
53,69,732240,220
49,63,732720,220
53,63,732720,220
55,63,732720,220
61,81,732720,220
56,66,733200,220
60,87,733200,220
48,66,733200,220
53,66,733200,220
55,66,733680,220
52,66,733680,220
60,87,733680,220
48,66,733680,220
52,63,734160,220
55,63,734160,220
48,63,734160,220
60,81,734160,220
68,63,734640,220
72,81,734640,220
65,63,734640,220
60,63,734640,220
65,69,735120,220
61,69,735120,220
73,89,735120,220
67,69,735120,220
65,63,735600,220
61,63,735600,220
67,63,735600,220
73,81,735600,220
72,87,736080,220
65,66,736080,220
60,66,736080,220
68,66,736080,220
60,66,736560,220
64,66,736560,220
72,87,736560,220
67,66,736560,220
64,63,737040,220
67,63,737040,220
60,63,737040,220
72,81,737040,220
80,72,737520,220
84,93,737520,220
77,72,737520,220
72,72,737520,220
79,79,738000,220
73,79,738000,220
77,79,738000,220
85,101,738000,220
85,93,738480,220
73,72,738480,220
77,72,738480,220
79,72,738480,220
84,99,738960,220
80,76,738960,220
77,76,738960,220
72,76,738960,220
84,99,739440,220
72,75,739440,220
76,75,739440,220
79,75,739440,220
84,93,739920,220
76,72,739920,220
72,72,739920,220
79,72,739920,220
60,64,740160,120
56,55,740280,120
60,59,740400,120
56,50,740520,120
60,55,740640,120
56,48,740760,120
60,43,740880,120
56,37,741000,120
60,43,741120,120
56,37,741240,120
60,43,741360,120
56,36,741480,120
60,43,741600,120
56,36,741720,120
60,42,741840,120
56,36,741960,120
60,42,742080,120
56,35,742200,120
60,42,742320,120
56,35,742440,120
60,41,742560,120
56,35,742680,120
60,41,742800,120
56,35,742920,120
60,41,743040,120
56,35,743160,120
60,41,743280,120
56,34,743400,120
60,40,743520,120
56,34,743640,120
60,40,743760,120
56,34,743880,120
60,40,744000,120
56,33,744120,120
60,40,744240,120
56,33,744360,120
60,40,744480,120
56,33,744600,120
60,39,744720,120
56,33,744840,120
60,39,744960,120
56,33,745080,120
60,39,745200,120
56,32,745320,120
60,38,745440,120
56,32,745560,120
60,38,745680,120
56,32,745800,120
60,38,745920,120
56,32,746040,120
60,37,746160,120
56,31,746280,120
60,37,746400,120
56,31,746520,120
72,37,746640,120
68,31,746760,120
72,37,746880,120
68,31,747000,120
72,36,747120,120
68,31,747240,120
72,36,747360,120
68,30,747480,120
72,36,747600,120
68,30,747720,120
72,35,747840,120
68,30,747960,120
72,35,748080,120
68,30,748200,120
72,35,748320,120
68,30,748440,120
72,34,748560,120
68,29,748680,120
72,34,748800,120
68,29,748920,120
72,34,749040,120
68,28,749160,120
72,33,749280,120
68,27,749400,120
72,33,749520,120
68,27,749640,120
72,32,749760,120
68,27,749880,120
72,31,750000,120
68,26,750120,120
72,31,750240,120
68,26,750360,120
72,31,750480,120
68,25,750600,120
72,30,750720,120
68,25,750840,120
72,29,750960,120
68,25,751080,120
72,29,751200,120
68,24,751320,120
72,29,751440,120
68,24,751560,120
72,28,751680,120
68,23,751800,120
72,27,751920,120
68,23,752040,120
72,26,752160,120
68,22,752280,120
72,26,752400,120
68,22,752520,120
72,25,752640,120
68,21,752760,120
72,24,752880,120
68,20,753000,120
72,23,753120,120
68,20,753240,120
72,23,753360,120
68,19,753480,120
72,22,753600,120
68,18,753720,120
72,21,753840,120
68,18,753960,120
72,21,754080,120
68,17,754200,120
72,20,754320,120
68,17,754440,120
72,18,754560,2880
68,15,754560,2880
36,27,2160,600
32,25,2760,120
29,22,2880,2160
32,27,5040,600
36,24,5640,120
41,27,5760,720
44,27,6480,600
48,24,7080,120
53,27,7200,710
56,26,7920,720
55,26,8640,1440
60,26,8640,1440
52,26,8640,1440
53,26,10080,1440
59,26,10080,1440
56,26,10080,1440
55,22,11520,480
52,19,11520,480
60,26,11520,480
37,27,13680,600
34,25,14280,120
30,22,14400,2160
34,27,16560,600
37,24,17160,120
42,27,17280,720
46,27,18000,600
49,24,18600,120
54,29,18720,720
58,26,19440,720
53,26,20160,1440
61,26,20160,1440
56,26,20160,1440
57,26,21600,1440
60,26,21600,1440
54,26,21600,1440
53,19,23040,480
56,22,23040,480
61,26,23040,480
67,26,25920,1440
64,26,25920,1440
68,26,27360,1440
71,26,27360,1440
65,26,27360,1440
64,22,28800,480
67,26,28800,480
37,27,29520,120
37,26,29760,120
37,26,30000,120
36,26,30240,240
67,26,31680,1440
73,26,31680,1440
70,26,31680,1440
70,26,33120,1440
73,26,33120,1440
68,26,33120,1440
67,22,34560,480
70,22,34560,480
73,26,34560,480
37,27,35280,120
37,26,35520,120
37,26,35760,120
36,26,36000,240
37,27,38160,240
37,26,38400,240
37,26,38640,240
36,26,38880,480
55,75,42960,120
58,63,43080,120
52,75,43200,120
55,64,43320,120
46,75,43440,120
52,60,43560,120
31,73,43680,120
34,67,43800,120
40,77,43920,120
43,67,44040,120
46,77,44160,120
49,67,44280,120
52,82,44400,120
55,73,44520,120
58,89,44640,240
41,72,45360,240
29,72,45360,240
56,86,45360,240
61,86,45360,240
49,86,45360,240
40,40,46080,2100
52,48,46080,2100
48,40,46080,2100
60,48,46080,2100
55,48,46080,2100
36,27,48240,600
32,25,48840,120
29,81,48960,240
32,61,49440,475
29,61,49440,475
41,81,49440,475
36,69,49440,475
32,57,49920,475
36,64,49920,475
41,76,49920,475
29,57,49920,475
32,55,50400,475
36,63,50400,475
41,73,50400,475
29,55,50400,475
32,61,50880,475
29,61,50880,475
41,81,50880,475
36,69,50880,475
32,55,51360,475
36,63,51360,475
41,73,51360,475
29,55,51360,475
29,61,51840,2160
36,69,51840,2160
41,81,51840,2160
32,61,51840,2160
32,33,54000,600
36,28,54600,120
41,33,54720,720
44,33,55440,600
48,28,56040,120
53,33,56160,715
41,30,56880,720
55,81,57600,240
52,81,57600,240
55,75,57840,475
43,69,58080,475
48,81,58080,475
40,61,58080,475
40,57,58560,475
48,76,58560,475
43,64,58560,475
43,63,59040,475
40,55,59040,475
48,73,59040,475
40,61,59520,475
48,81,59520,475
43,69,59520,475
43,63,60000,475
48,73,60000,475
40,55,60000,475
67,30,60480,1440
64,30,60480,1440
68,30,61920,1440
71,30,61920,1440
65,30,61920,1440
55,81,63360,238
52,81,63360,238
55,75,63600,475
43,69,63840,475
48,81,63840,475
40,61,63840,475
40,57,64320,475
48,76,64320,475
43,64,64320,475
43,63,64800,475
40,55,64800,475
48,73,64800,475
40,61,65280,475
48,81,65280,475
43,69,65280,475
43,63,65760,475
48,73,65760,475
40,55,65760,475
67,36,66240,1440
64,36,66240,1440
67,36,67680,1680
63,36,67680,1680
75,36,69360,220
75,36,69600,220
75,39,69840,220
75,37,70080,220
75,36,70320,220
75,39,70560,220
75,35,70800,220
75,35,71040,220
75,39,71280,220
75,36,71520,220
75,36,71760,220
75,38,72240,220
75,38,72480,220
71,39,72720,240
68,39,72720,240
75,37,72960,220
75,37,73200,220
75,41,73440,220
75,37,73680,220
75,38,73920,220
75,46,74160,220
75,40,74400,220
75,40,74640,220
75,38,75120,220
75,38,75360,220
68,40,75600,240
71,40,75600,240
75,37,75840,220
75,37,76080,220
68,37,76320,240
71,37,76320,240
75,37,76560,220
75,37,76800,220
68,37,77040,240
71,37,77040,240
75,37,77280,220
75,37,77520,220
67,39,77760,240
70,39,77760,240
63,37,78000,220
63,37,78240,220
63,38,78480,220
63,37,78720,220
63,37,78960,220
63,37,79200,220
63,37,79440,220
63,37,79680,220
63,38,79920,220
63,37,80160,220
63,37,80400,220
63,39,80640,220
63,37,80880,220
63,37,81120,220
63,38,81360,220
63,37,81600,220
63,37,81840,220
63,38,82080,220
63,39,82320,220
63,37,82560,220
58,44,82800,240
61,44,82800,240
63,37,83040,220
63,37,83280,220
63,39,83520,220
63,37,83760,220
63,37,84000,220
63,37,84240,220
63,37,84480,220
63,37,84720,220
63,38,84960,220
63,37,85200,220
63,37,85440,220
59,48,85680,240
56,44,85680,240
63,37,85920,220
63,37,86160,220
63,38,86640,220
63,38,86880,220
56,40,87120,240
59,40,87120,240
63,37,87360,220
63,37,87600,220
59,37,87840,240
56,37,87840,240
63,37,88080,220
63,37,88320,220
59,36,88560,240
56,36,88560,240
63,37,88800,220
63,37,89040,220
63,38,89520,220
63,38,89760,220
58,40,90000,240
55,40,90000,240
63,37,90240,220
63,37,90480,220
63,37,90960,220
63,37,91200,220
54,36,91440,240
57,36,91440,240
63,37,91680,220
63,37,91920,220
63,37,92400,220
63,36,92640,220
56,38,92880,240
53,38,92880,240
63,34,93120,220
63,34,93360,220
63,32,93840,220
63,32,94080,220
52,30,94320,240
55,30,94320,240
63,31,94560,220
63,30,94800,220
51,25,95280,220
51,26,95520,220
51,28,95760,220
51,26,96000,220
51,26,96240,220
51,28,96480,220
51,26,96720,220
51,26,96960,220
51,28,97200,220
51,26,97440,220
51,27,97680,220
58,41,97920,720
61,41,97920,720
55,41,97920,720
39,25,98160,220
39,26,98400,220
39,28,98640,220
39,26,98880,220
39,26,99120,220
39,28,99360,220
39,26,99600,220
39,26,99840,220
39,28,100080,220
39,26,100320,220
39,27,100560,220
32,28,100800,240
44,25,101040,240
36,20,101040,240
39,20,101040,240
32,26,101280,240
44,28,101520,240
36,22,101520,240
39,22,101520,240
32,26,101760,240
44,26,102000,240
36,20,102000,240
39,20,102000,240
32,28,102240,240
44,26,102480,240
39,20,102480,240
36,20,102480,240
32,26,102720,240
36,22,102960,240
48,40,102960,600
44,28,102960,240
39,22,102960,240
32,26,103200,240
36,21,103440,240
39,21,103440,240
44,27,103440,240
51,37,103560,120
32,28,103680,240
44,25,103920,240
36,20,103920,240
39,20,103920,240
32,26,104160,240
44,28,104400,240
36,22,104400,240
39,22,104400,240
32,26,104640,240
36,20,104880,240
39,20,104880,240
44,26,104880,240
34,28,105120,240
46,26,105360,240
39,20,105360,240
37,20,105360,240
34,26,105600,240
39,22,105840,240
46,28,105840,240
37,22,105840,240
34,26,106080,240
37,21,106320,240
46,27,106320,240
39,21,106320,240
36,28,106560,240
39,20,106800,240
44,20,106800,240
48,25,106800,240
36,26,107040,240
39,22,107280,240
51,40,107280,1440
44,22,107280,240
48,28,107280,240
36,26,107520,240
44,20,107760,240
48,26,107760,240
39,20,107760,240
36,28,108000,240
39,20,108240,240
44,20,108240,240
48,26,108240,240
36,26,108480,240
53,40,108720,600
44,28,108720,240
37,26,108960,240
44,27,109200,240
49,37,109320,120
48,40,109440,720
39,28,109440,240
44,25,109680,240
39,26,109920,240
44,28,110160,240
51,40,110160,600
39,25,110400,240
44,25,110640,240
48,36,110760,120
46,40,110880,720
39,28,110880,240
43,25,111120,240
39,25,111360,240
51,40,111600,600
43,28,111600,240
39,25,111840,240
43,25,112080,240
49,36,112200,120
44,28,112320,240
56,25,112560,240
48,20,112560,240
51,20,112560,240
44,27,112800,240
56,29,113040,240
48,23,113040,240
51,23,113040,240
44,28,113280,240
56,29,113520,240
48,22,113520,240
51,22,113520,240
44,32,113760,240
56,31,114000,240
51,24,114000,240
48,24,114000,240
44,31,114240,240
48,27,114480,240
51,27,114480,240
56,35,114480,240
60,51,114480,600
44,33,114720,240
48,27,114960,240
51,27,114960,240
56,34,114960,240
63,49,115080,120
44,37,115200,240
56,34,115440,240
51,27,115440,240
48,27,115440,240
44,36,115680,240
56,39,115920,240
51,30,115920,240
48,30,115920,240
44,37,116160,240
48,29,116400,240
56,38,116400,240
51,29,116400,240
46,40,116640,240
58,38,116880,240
51,29,116880,240
49,29,116880,240
46,39,117120,240
51,34,117360,240
58,42,117360,240
49,34,117360,240
46,40,117600,240
49,33,117840,240
58,42,117840,240
51,33,117840,240
60,36,118080,2880
51,28,118080,2880
48,28,118080,2880
56,36,118080,2880
56,59,120960,720
49,50,120960,2880
52,50,120960,2880
57,57,121680,2160
56,36,123840,2880
51,28,123840,2880
59,36,123840,2880
55,31,126720,2880
61,31,126720,2880
51,25,126720,2880
59,44,139920,240
58,42,140160,240
56,42,140400,240
55,41,140640,240
54,39,140880,240
52,42,141120,240
51,41,141360,240
49,41,141600,240
47,40,141840,240
46,39,142080,240
44,39,142320,240
43,42,142560,240
42,41,142800,240
41,41,143040,240
39,41,143280,240
37,41,143520,240
35,41,143760,240
34,42,144000,240
35,42,144240,240
37,42,144480,240
39,42,144720,240
40,41,144960,240
39,39,145200,240
37,42,145440,240
35,40,145680,240
34,40,145920,240
39,45,146160,240
37,42,146400,240
39,40,146640,240
32,64,146880,120
39,52,147000,120
44,52,147120,120
39,52,147240,120
32,58,147360,120
39,51,147480,120
32,68,147600,120
39,52,147720,120
32,64,147840,120
39,52,147960,120
32,62,148080,120
39,52,148200,120
32,64,148320,120
39,52,148440,120
44,52,148560,120
39,52,148680,120
32,58,148800,120
39,51,148920,120
32,68,149040,120
39,52,149160,120
32,64,149280,120
39,52,149400,120
32,62,149520,120
39,52,149640,120
32,64,149760,120
40,52,149880,120
44,52,150000,120
40,52,150120,120
32,58,150240,120
40,51,150360,120
32,68,150480,120
40,52,150600,120
32,64,150720,120
40,52,150840,120
32,62,150960,120
40,52,151080,120
32,64,151200,120
40,52,151320,120
44,52,151440,120
40,52,151560,120
32,58,151680,120
40,51,151800,120
32,68,151920,120
40,52,152040,120
32,64,152160,120
40,52,152280,120
32,62,152400,120
40,52,152520,120
33,90,152640,2160
45,106,152640,2160
46,88,154800,240
34,74,154800,240
37,72,155040,240
40,82,155280,240
43,95,155520,240
46,82,155760,240
49,82,156000,240
52,85,156240,230
52,83,156480,230
52,83,156720,230
52,97,156960,720
51,89,157680,720
44,64,158400,120
51,52,158520,120
56,52,158640,120
51,52,158760,120
44,58,158880,120
51,51,159000,120
44,68,159120,120
51,52,159240,120
44,64,159360,120
51,52,159480,120
44,62,159600,120
51,52,159720,120
44,64,159840,120
51,52,159960,120
56,52,160080,120
51,52,160200,120
44,58,160320,120
51,51,160440,120
44,68,160560,120
51,52,160680,120
44,64,160800,120
51,52,160920,120
44,62,161040,120
51,52,161160,120
44,64,161280,120
52,52,161400,120
56,52,161520,120
52,52,161640,120
44,58,161760,120
52,51,161880,120
44,68,162000,120
52,52,162120,120
44,64,162240,120
52,52,162360,120
44,62,162480,120
52,52,162600,120
44,64,162720,120
52,52,162840,120
56,52,162960,120
52,52,163080,120
44,58,163200,120
52,51,163320,120
44,68,163440,120
52,52,163560,120
44,64,163680,120
52,52,163800,120
44,62,163920,120
52,52,164040,120
57,106,164160,2160
45,90,164160,2160
46,59,166320,240
58,88,166320,240
61,72,166560,240
49,58,166560,240
64,82,166800,240
52,63,166800,240
67,95,167040,240
55,75,167040,240
70,82,167280,240
58,63,167280,240
73,82,167520,240
61,63,167520,240
64,68,167760,230
76,85,167760,230
76,83,168000,230
64,64,168000,230
76,83,168240,230
64,64,168240,230
64,80,168480,720
76,102,168480,720
75,86,169200,720
63,69,169200,720
68,102,169920,720
67,86,170640,720
76,102,171360,720
75,86,172080,720
74,97,172800,1440
77,91,172920,1320
80,97,173040,1200
75,85,174240,1440
79,77,174360,1320
68,45,175680,720
71,45,175680,720
73,44,176400,720
76,44,176400,720
71,45,177120,720
75,45,177120,720
75,60,177840,720
70,60,177840,720
73,60,177840,720
68,45,178560,720
71,45,178560,720
61,44,179280,720
64,44,179280,720
59,45,180000,720
63,45,180000,720
58,60,180720,720
61,60,180720,720
63,60,180720,720
59,45,181440,720
56,45,181440,720
52,44,182160,720
49,44,182160,720
51,45,182880,720
47,45,182880,720
51,60,183600,720
49,60,183600,720
46,60,183600,720
44,48,184320,1440
39,38,185760,720
35,30,186480,720
32,27,187200,2160
47,27,189360,600
44,25,189960,120
39,22,190080,2160
47,27,192240,600
44,25,192840,120
40,22,192960,2160
44,27,195120,600
47,24,195720,120
52,27,195840,720
56,28,196560,600
59,25,197160,120
64,28,197280,715
52,27,198000,720
54,26,198720,1440
51,26,198720,1440
59,26,198720,1440
52,26,200160,1440
58,26,200160,1440
55,26,200160,1440
54,22,201600,480
51,19,201600,480
59,26,201600,480
73,26,204480,1440
69,26,204480,1440
71,28,205920,1440
74,28,205920,1440
69,22,207360,480
73,26,207360,480
59,26,210240,1440
56,26,210240,1440
57,28,211680,1440
60,28,211680,1440
56,22,213120,720
59,26,213120,720
42,44,213840,1440
45,40,215280,720
47,35,216000,1440
35,30,217440,1440
71,26,218880,1440
68,26,218880,1440
69,28,220320,1440
72,28,220320,1440
68,22,221760,720
71,26,221760,720
66,44,222480,1440
54,38,222480,1440
57,40,223920,720
59,35,224640,1440
47,30,226080,480
47,83,226800,600
43,75,227400,120
40,80,227520,2160
43,81,229680,600
47,73,230280,120
52,81,230400,720
55,83,231120,600
59,73,231720,120
64,82,231840,720
64,79,232560,720
55,70,235440,144
59,59,235584,144
62,62,235728,144
59,60,235872,144
55,60,236016,144
53,70,236160,144
55,59,236304,144
59,62,236448,144
55,60,236592,144
53,60,236736,144
50,70,236880,144
53,59,237024,144
55,62,237168,144
53,60,237312,144
50,60,237456,144
47,70,237600,120
50,59,237720,120
53,60,237840,120
50,66,237960,120
47,59,238080,120
43,60,238200,120
41,70,238320,120
43,60,238440,120
47,60,238560,120
43,66,238680,120
41,66,238800,120
38,60,238920,120
36,80,239040,2160
39,81,241200,600
43,73,241800,120
48,81,241920,720
51,83,242640,600
55,73,243240,120
60,82,243360,720
60,79,244080,720
51,70,246960,144
55,59,247104,144
58,62,247248,144
55,60,247392,144
51,60,247536,144
49,70,247680,144
51,59,247824,144
55,62,247968,144
51,60,248112,144
49,60,248256,144
46,70,248400,144
49,59,248544,144
51,62,248688,144
49,60,248832,144
46,60,248976,144
43,70,249120,120
46,59,249240,120
49,60,249360,120
46,66,249480,120
43,59,249600,120
39,60,249720,120
37,70,249840,120
39,60,249960,120
43,60,250080,120
39,66,250200,120
37,66,250320,120
34,60,250440,120
32,80,250560,2160
36,81,252720,600
39,73,253320,120
44,81,253440,720
48,83,254160,600
51,73,254760,120
56,82,254880,720
56,79,255600,720
57,83,256320,144
60,67,256464,144
63,70,256608,144
60,68,256752,144
57,68,256896,144
54,81,257040,144
57,67,257184,144
60,70,257328,144
57,68,257472,144
54,68,257616,144
51,77,257760,144
54,62,257904,144
57,67,258048,144
54,63,258192,144
51,63,258336,144
48,70,258480,144
51,59,258624,144
54,62,258768,144
51,60,258912,144
48,60,259056,144
45,70,259200,144
48,59,259344,144
51,62,259488,144
48,60,259632,144
45,60,259776,144
42,70,259920,144
45,59,260064,144
48,62,260208,144
45,60,260352,144
42,60,260496,144
39,70,260640,120
42,59,260760,120
45,60,260880,120
42,66,261000,120
39,59,261120,120
36,60,261240,120
33,70,261360,120
36,60,261480,120
39,60,261600,120
42,66,261720,120
39,66,261840,120
36,60,261960,120
32,70,262080,120
36,60,262200,120
39,60,262320,120
42,66,262440,120
39,66,262560,120
36,60,262680,120
33,70,262800,120
36,60,262920,120
39,60,263040,120
42,66,263160,120
39,66,263280,120
36,60,263400,120
32,70,263520,120
36,60,263640,120
39,60,263760,120
42,66,263880,120
39,66,264000,120
36,60,264120,120
33,70,264240,120
36,60,264360,120
39,60,264480,120
42,66,264600,120
39,66,264720,120
36,60,264840,120
32,70,264960,120
36,60,265080,120
39,60,265200,120
42,60,265320,120
39,66,265440,120
36,60,265560,120
33,70,265680,120
36,60,265800,120
39,60,265920,120
42,61,266040,120
39,66,266160,120
36,60,266280,120
32,70,266400,120
36,60,266520,120
39,60,266640,120
42,61,266760,120
39,66,266880,120
36,60,267000,120
33,70,267120,120
36,60,267240,120
39,60,267360,120
42,60,267480,120
39,66,267600,120
36,60,267720,120
32,60,267840,240
44,60,267840,240
56,36,268080,220
56,36,268320,220
56,39,268560,220
56,37,268800,220
56,36,269040,220
56,39,269280,220
56,35,269520,220
56,35,269760,220
56,39,270000,220
56,36,270240,220
56,36,270480,220
56,36,270960,220
56,36,271200,220
56,39,271440,220
56,37,271680,220
56,36,271920,220
54,39,272160,240
56,35,272400,220
56,35,272640,220
56,39,272880,220
56,36,273120,220
56,36,273360,220
56,36,273840,220
56,36,274080,220
56,39,274320,220
56,37,274560,220
56,36,274800,220
53,39,275040,240
56,35,275280,220
56,35,275520,220
56,39,275760,220
56,36,276000,220
56,36,276240,220
56,38,276720,220
56,38,276960,220
53,40,277200,240
49,40,277200,240
56,37,277440,220
56,37,277680,220
49,37,277920,240
53,37,277920,240
56,37,278160,220
56,37,278400,220
49,37,278640,240
53,37,278640,240
56,37,278880,220
56,37,279120,220
48,39,279360,240
51,39,279360,240
56,37,279600,220
56,37,279840,220
56,38,280080,220
56,37,280320,220
56,37,280560,220
56,37,280800,220
56,37,281040,220
56,37,281280,220
56,38,281520,220
56,37,281760,220
56,37,282000,220
56,39,282240,220
56,37,282480,220
56,37,282720,220
56,38,282960,220
56,37,283200,220
56,37,283440,220
56,38,283680,220
56,39,283920,220
54,44,284400,240
51,44,284400,240
56,37,284640,220
56,37,284880,220
56,39,285120,220
56,37,285360,220
56,37,285600,220
56,37,285840,220
56,37,286080,220
56,37,286320,220
56,38,286560,220
56,37,286800,220
56,37,287040,220
49,44,287280,240
53,48,287280,240
56,37,287520,220
56,37,287760,220
56,38,288240,220
56,38,288480,220
53,40,288720,240
49,40,288720,240
56,37,288960,220
56,37,289200,220
49,37,289440,240
53,37,289440,240
56,37,289680,220
56,37,289920,220
49,36,290160,240
53,36,290160,240
56,37,290400,220
56,37,290640,220
56,38,291120,220
56,38,291360,220
51,40,291600,240
48,40,291600,240
56,37,291840,220
56,37,292080,220
56,37,292560,220
56,37,292800,220
49,36,293040,240
52,36,293040,240
56,37,293280,220
56,37,293520,220
56,38,294000,220
56,38,294240,220
51,40,294480,240
48,40,294480,240
56,37,294720,220
56,37,294960,220
56,37,295440,220
56,37,295680,220
49,36,295920,240
52,36,295920,240
56,37,296160,220
56,37,296400,220
56,37,296880,220
56,36,297120,220
51,38,297360,240
48,38,297360,240
56,34,297600,220
56,34,297840,220
56,32,298320,220
56,32,298560,220
47,30,298800,240
50,30,298800,240
56,31,299040,220
56,30,299280,220
56,31,299760,220
56,30,300000,220
49,32,300240,240
46,32,300240,240
56,28,300480,220
56,28,300720,220
56,27,301200,220
56,27,301440,220
48,25,301680,240
45,25,301680,240
56,26,301920,220
56,25,302160,220
44,44,302640,480
43,39,302880,240
44,44,303120,480
46,41,303360,240
44,45,303600,480
42,41,303840,240
44,41,304080,1200
42,48,304320,240
41,42,304560,240
42,42,304800,240
41,47,305040,240
39,55,305280,240
44,48,305520,480
43,42,305760,240
44,48,306000,480
46,45,306240,240
44,49,306480,1680
39,46,306720,240
41,46,306960,240
39,50,307200,240
37,47,307440,240
39,47,307680,240
37,51,307920,240
36,57,308160,240
44,52,308400,480
43,47,308640,240
44,52,308880,480
46,49,309120,240
44,53,309360,1680
36,50,309600,240
37,50,309840,240
36,54,310080,240
34,50,310320,240
36,51,310560,240
34,51,310800,240
32,55,311040,240
31,49,311280,240
32,49,311520,240
34,53,311760,240
32,46,312000,240
34,45,312240,240
35,50,312480,240
34,44,312720,240
35,42,312960,240
36,47,313200,240
35,40,313440,240
36,40,313680,240
37,36,313920,240
49,32,314160,240
41,26,314160,240
44,26,314160,240
37,33,314400,240
49,36,314640,240
41,28,314640,240
44,28,314640,240
37,33,314880,240
49,33,315120,240
44,26,315120,240
41,26,315120,240
37,36,315360,240
49,33,315600,240
41,26,315600,240
44,26,315600,240
37,33,315840,240
44,28,316080,240
41,28,316080,240
49,36,316080,240
37,33,316320,240
49,35,316560,240
41,27,316560,240
44,27,316560,240
37,36,316800,240
49,32,317040,240
44,26,317040,240
41,26,317040,240
37,33,317280,240
49,36,317520,240
44,28,317520,240
41,28,317520,240
37,33,317760,240
41,26,318000,240
49,33,318000,240
44,26,318000,240
39,36,318240,240
51,33,318480,240
42,26,318480,240
44,26,318480,240
39,33,318720,240
44,28,318960,240
42,28,318960,240
51,36,318960,240
39,33,319200,240
42,27,319440,240
44,27,319440,240
51,35,319440,240
41,36,319680,240
44,26,319920,240
53,32,319920,240
49,26,319920,240
41,33,320160,240
53,36,320400,240
49,28,320400,240
44,28,320400,240
41,33,320640,240
44,26,320880,240
53,33,320880,240
49,26,320880,240
41,36,321120,240
53,33,321360,240
44,26,321360,240
49,26,321360,240
41,33,321600,240
49,28,321840,240
54,36,321840,240
51,28,321840,240
42,33,322080,240
49,27,322320,240
54,35,322320,240
51,27,322320,240
44,37,322560,240
49,27,322800,240
56,33,322800,240
53,27,322800,240
44,34,323040,240
49,30,323280,240
56,38,323280,240
53,30,323280,240
44,34,323520,240
49,28,323760,240
56,35,323760,240
53,28,323760,240
44,40,324000,240
48,29,324240,240
56,36,324240,240
51,29,324240,240
44,36,324480,240
48,32,324720,240
56,41,324720,240
51,32,324720,240
44,37,324960,240
48,30,325200,240
56,37,325200,240
51,30,325200,240
45,51,325440,240
48,33,325680,240
53,33,325680,240
57,41,325680,240
45,45,325920,240
48,29,326160,240
53,29,326160,240
57,38,326160,240
45,36,326400,240
48,28,326640,240
53,28,326640,240
57,38,326640,240
45,39,326880,240
48,28,327120,240
53,28,327120,240
57,36,327120,240
45,39,327360,240
53,27,327600,240
58,35,327600,240
49,27,327600,240
46,33,327840,240
49,27,328080,240
53,27,328080,240
58,34,328080,240
46,37,328320,240
49,27,328560,240
53,27,328560,240
58,34,328560,240
46,36,328800,240
49,30,329040,240
53,30,329040,240
58,39,329040,240
46,37,329280,240
53,29,329520,240
58,38,329520,240
49,29,329520,240
48,40,329760,240
51,29,330000,240
53,29,330000,240
60,38,330000,240
48,39,330240,240
51,34,330480,240
60,42,330480,240
53,34,330480,240
48,40,330720,240
53,33,330960,240
60,42,330960,240
51,33,330960,240
49,37,331200,240
53,27,331440,240
58,27,331440,240
61,34,331440,240
49,36,331680,240
53,30,331920,240
58,30,331920,240
61,39,331920,240
49,37,332160,240
58,29,332400,240
61,38,332400,240
53,29,332400,240
49,40,332640,240
53,29,332880,240
58,29,332880,240
61,38,332880,240
49,39,333120,240
54,28,333360,240
63,36,333360,240
58,28,333360,240
51,33,333600,240
54,27,333840,240
63,35,333840,240
58,27,333840,240
53,37,334080,240
58,27,334320,240
65,33,334320,240
61,27,334320,240
53,34,334560,240
58,30,334800,240
65,38,334800,240
61,30,334800,240
53,34,335040,240
61,28,335280,240
65,35,335280,240
58,28,335280,240
53,40,335520,240
60,29,335760,240
57,29,335760,240
63,37,335760,240
53,37,336000,240
60,33,336240,240
57,33,336240,240
63,42,336240,240
53,38,336480,240
60,31,336720,240
57,31,336720,240
63,38,336720,240
54,53,336960,240
66,43,337200,240
61,34,337200,240
58,34,337200,240
54,47,337440,240
66,46,337680,240
61,35,337680,240
58,35,337680,240
54,43,337920,240
66,46,338160,240
61,34,338160,240
58,34,338160,240
54,47,338400,240
66,44,338640,240
61,34,338640,240
58,34,338640,240
54,47,338880,240
58,35,339120,240
61,35,339120,240
66,46,339120,240
54,42,339360,240
66,44,339600,240
58,35,339600,240
61,35,339600,240
54,48,339840,240
66,44,340080,240
61,35,340080,240
58,35,340080,240
54,47,340320,240
66,50,340560,240
61,39,340560,240
58,39,340560,240
54,48,340800,240
58,37,341040,240
66,49,341040,240
61,37,341040,240
56,52,341280,240
68,49,341520,240
59,37,341520,240
61,37,341520,240
56,50,341760,240
61,44,342000,240
68,55,342000,240
59,44,342000,240
56,52,342240,240
59,42,342480,240
68,55,342480,240
61,42,342480,240
58,48,342720,240
70,44,342960,240
61,35,342960,240
66,35,342960,240
58,47,343200,240
70,42,343440,240
61,33,343440,240
66,33,343440,240
58,40,343680,240
61,33,343920,240
66,33,343920,240
70,44,343920,240
58,50,344160,240
70,49,344400,240
66,37,344400,240
61,37,344400,240
58,52,344640,240
66,38,344880,240
70,51,344880,240
61,38,344880,240
58,48,345120,240
66,41,345360,240
70,55,345360,240
61,41,345360,240
59,57,345600,240
71,44,345840,240
62,35,345840,240
66,35,345840,240
59,47,346080,240
71,42,346320,240
62,33,346320,240
66,33,346320,240
59,40,346560,240
62,33,346800,240
66,33,346800,240
71,44,346800,240
59,50,347040,240
71,49,347280,240
66,37,347280,240
62,37,347280,240
59,53,347520,240
66,38,347760,240
71,52,347760,240
62,38,347760,240
59,49,348000,240
66,42,348240,240
71,56,348240,240
62,42,348240,240
59,60,348480,240
62,36,348720,240
67,36,348720,240
71,46,348720,240
59,49,348960,240
62,34,349200,240
67,34,349200,240
71,45,349200,240
59,42,349440,240
67,35,349680,240
71,47,349680,240
62,35,349680,240
59,53,349920,240
62,39,350160,240
67,39,350160,240
71,51,350160,240
59,56,350400,240
62,40,350640,240
71,55,350640,240
67,40,350640,240
59,51,350880,240
62,44,351120,240
71,59,351120,240
67,44,351120,240
60,64,351360,240
64,38,351600,240
67,38,351600,240
72,48,351600,240
60,51,351840,240
64,37,352080,240
67,37,352080,240
72,48,352080,240
60,47,352320,240
67,37,352560,240
72,50,352560,240
64,37,352560,240
60,57,352800,240
64,41,353040,240
67,41,353040,240
72,55,353040,240
60,59,353280,240
64,44,353520,240
72,58,353520,240
67,44,353520,240
60,55,353760,240
64,47,354000,240
72,61,354000,240
67,47,354000,240
61,102,354240,1440
64,78,354360,1320
67,78,354480,1200
70,78,354600,1080
73,78,354720,960
64,101,355680,1440
67,78,355800,1320
70,78,355920,1200
73,78,356040,1080
76,79,356160,960
67,101,357120,1440
70,84,357240,1320
73,84,357360,1200
76,84,357480,1080
70,100,358560,1440
73,84,358680,1320
76,86,358800,1200
73,96,360000,720
76,84,360120,600
79,84,360240,480
76,98,360720,720
79,84,360840,600
82,84,360960,480
79,100,361440,120
82,84,361560,120
85,84,361680,120
82,100,362160,120
85,84,362280,120
88,84,362400,120
85,102,362880,120
88,84,363000,114
82,97,363600,120
85,84,363720,114
79,96,364320,120
82,84,364440,114
76,96,365040,120
79,84,365160,114
73,96,365760,120
76,84,365880,114
70,96,366480,120
73,84,366600,114
67,96,367200,120
70,84,367320,114
64,96,367920,120
67,84,368040,114
61,91,368640,120
64,80,368760,114
58,91,369360,120
61,80,369480,114
55,91,370080,120
58,80,370200,114
52,91,370800,120
55,80,370920,114
49,91,371520,120
52,80,371640,114
46,91,372240,120
49,80,372360,114
43,91,372960,120
46,80,373080,114
40,91,373680,120
43,80,373800,114
37,104,374400,480
73,106,375120,240
73,100,375360,240
73,100,375600,240
73,105,375840,480
37,98,376560,240
37,93,376800,240
37,93,377040,240
37,100,377280,480
73,106,378000,240
73,100,378240,240
73,100,378480,240
73,105,378720,480
37,98,379440,240
37,93,379680,240
37,93,379920,240
36,100,380160,480
73,106,380880,240
73,100,381120,240
73,100,381360,240
72,105,381600,480
37,98,382320,240
37,93,382560,240
37,93,382800,240
36,100,383040,480
73,106,383760,240
73,100,384000,240
73,100,384240,240
72,105,384480,480
37,110,385200,240
37,105,385440,240
37,105,385680,240
36,59,385920,220
36,30,386160,220
36,30,386400,220
36,32,386640,220
36,27,386880,220
36,27,387120,220
36,30,387360,220
36,24,387600,220
36,24,387840,220
36,28,388080,220
36,22,388320,220
36,22,388560,220
36,24,388800,220
36,22,389040,220
36,22,389280,220
36,24,389520,220
36,20,389760,220
36,20,390000,220
36,23,390240,220
36,18,390480,220
36,23,390720,220
36,23,390960,220
36,20,391200,220
36,22,391440,220
36,23,391680,220
36,20,391920,220
36,22,392160,220
36,23,392400,220
36,20,392640,220
36,22,392880,220
36,23,393120,220
36,20,393360,220
36,22,393600,220
36,23,393840,220
36,20,394080,220
36,22,394320,220
36,23,394560,220
36,20,394800,220
36,22,395040,220
36,23,395280,220
36,20,395520,220
36,22,395760,220
36,23,396000,220
36,20,396240,220
36,22,396480,220
36,23,396720,220
36,20,396960,220
36,22,397200,220
36,23,397440,220
36,20,397680,220
36,22,397920,220
36,23,398160,220
36,20,398400,220
36,22,398640,220
36,23,398880,220
36,20,399120,220
36,22,399360,220
36,23,399600,220
36,20,399840,220
36,22,400080,220
36,23,400320,220
36,20,400560,220
36,22,400800,220
36,23,401040,220
36,20,401280,220
36,22,401520,220
36,23,401760,220
37,20,402000,220
37,22,402240,220
37,23,402480,220
37,20,402720,220
37,22,402960,220
37,23,403200,220
37,20,403440,220
37,22,403680,220
37,23,403920,220
37,20,404160,220
37,22,404400,220
37,23,404640,220
37,20,404880,220
37,22,405120,220
37,23,405360,220
37,20,405600,220
37,22,405840,220
37,23,406080,220
37,20,406320,220
37,22,406560,220
37,23,406800,220
37,20,407040,220
37,22,407280,220
37,23,407520,220
37,20,407760,220
37,22,408000,220
37,23,408240,220
37,20,408480,220
37,22,408720,220
37,23,408960,220
37,20,409200,220
37,22,409440,220
37,23,409680,220
37,20,409920,220
37,22,410160,220
37,23,410400,220
37,20,410640,220
37,22,410880,220
37,23,411120,220
37,20,411360,220
37,22,411600,220
37,23,411840,220
41,20,412080,220
35,15,412080,220
41,22,412320,220
35,16,412320,220
41,23,412560,220
35,17,412560,220
41,20,412800,220
35,15,412800,220
41,22,413040,220
35,16,413040,220
41,23,413280,220
35,17,413280,220
35,15,413520,220
41,20,413520,220
35,16,413760,220
41,22,413760,220
35,17,414000,220
41,23,414000,220
35,15,414240,220
41,20,414240,220
35,16,414480,220
41,22,414480,220
40,26,414720,1440
36,20,414960,220
36,22,415200,220
36,23,415440,220
36,20,415680,220
36,22,415920,220
41,26,416160,1440
36,20,416400,220
36,22,416640,220
36,23,416880,220
36,20,417120,220
36,22,417360,220
40,26,417600,220
36,20,417840,220
36,22,418080,220
49,27,418320,220
36,23,418320,220
36,20,418560,220
49,26,418560,220
49,26,418800,220
36,22,418800,220
48,26,419040,480
36,26,419040,220
36,20,419280,220
36,22,419520,220
36,23,419760,220
36,20,420000,220
36,22,420240,220
43,26,420480,1440
36,20,420720,220
36,22,420960,220
36,23,421200,220
36,20,421440,220
36,22,421680,220
44,26,421920,1440
36,20,422160,220
36,22,422400,220
36,23,422640,220
36,20,422880,220
36,22,423120,220
43,26,423360,220
36,20,423600,220
36,22,423840,220
36,23,424080,220
49,27,424080,220
49,26,424320,220
36,20,424320,220
49,26,424560,220
36,22,424560,220
48,26,424800,480
36,26,424800,220
36,20,425040,220
36,22,425280,220
36,23,425520,220
36,20,425760,220
36,22,426000,220
36,26,426240,220
36,20,426480,220
36,22,426720,220
49,27,426960,220
36,23,426960,220
36,20,427200,220
49,26,427200,220
36,22,427440,220
49,26,427440,220
48,26,427680,480
36,26,427680,220
36,20,427920,220
36,22,428160,220
36,43,428400,220
36,38,428640,220
36,41,428880,220
36,50,429120,220
36,40,429360,220
36,43,429600,220
36,47,429840,220
36,43,430080,220
36,45,430320,220
36,55,430560,220
36,45,430800,220
36,48,431040,220
36,52,431280,220
36,47,431520,220
55,75,431760,120
36,50,431760,220
58,63,431880,120
36,61,432000,220
52,76,432000,120
55,65,432120,120
36,49,432240,220
46,77,432240,120
52,62,432360,120
43,76,432480,120
36,52,432480,220
46,69,432600,120
36,57,432720,220
49,80,432720,120
46,70,432840,120
52,81,432960,120
36,51,432960,220
49,71,433080,120
36,54,433200,220
55,86,433200,120
52,78,433320,120
58,94,433440,240
43,66,433440,240
31,61,433440,240
36,58,433680,240
36,57,433920,240
49,93,434160,240
61,93,434160,240
56,93,434160,240
41,68,434160,240
29,62,434160,240
36,78,434400,240
36,66,434640,240
52,48,434880,2100
36,40,434880,2100
60,48,434880,2100
40,40,434880,2100
55,48,434880,2100
36,27,437040,600
33,25,437640,120
29,81,437760,240
33,61,438240,475
29,61,438240,475
41,81,438240,475
36,69,438240,475
33,57,438720,475
36,64,438720,475
41,76,438720,475
29,57,438720,475
33,55,439200,475
29,55,439200,475
41,73,439200,475
36,63,439200,475
33,61,439680,475
36,69,439680,475
41,81,439680,475
29,61,439680,475
33,55,440160,475
29,55,440160,475
41,73,440160,475
36,63,440160,475
29,61,440640,2160
33,61,440640,2160
36,69,440640,2160
41,81,440640,2160
33,33,442800,600
36,28,443400,120
41,34,443520,720
45,34,444240,600
48,29,444840,120
53,34,444960,715
41,31,445680,720
52,81,446400,238
55,81,446400,238
55,75,446640,475
40,61,446880,475
48,81,446880,475
43,69,446880,475
43,64,447360,475
40,57,447360,475
48,76,447360,475
40,55,447840,475
48,73,447840,475
43,63,447840,475
43,69,448320,475
48,81,448320,475
40,61,448320,475
40,55,448800,475
48,73,448800,475
43,63,448800,475
64,30,449280,1440
67,30,449280,1440
65,30,450720,1440
71,30,450720,1440
68,30,450720,1440
55,81,452160,238
52,81,452160,238
55,75,452400,475
43,69,452640,475
40,61,452640,475
48,81,452640,475
40,57,453120,475
48,76,453120,475
43,64,453120,475
43,63,453600,475
48,73,453600,475
40,55,453600,475
40,61,454080,475
48,81,454080,475
43,69,454080,475
43,63,454560,475
48,73,454560,475
40,55,454560,475
67,30,455040,1440
64,30,455040,1440
68,29,456480,1440
65,30,456480,1440
43,61,458400,475
52,81,458400,475
46,69,458400,475
46,64,458880,475
43,57,458880,475
52,76,458880,475
43,55,459360,475
52,73,459360,475
46,63,459360,475
46,69,459840,475
52,81,459840,475
43,61,459840,475
43,55,460320,475
52,73,460320,475
46,63,460320,475
67,36,460800,1440
70,36,460800,1440
68,36,462240,1440
72,36,462240,1440
46,61,464160,475
52,69,464160,475
55,81,464160,475
49,61,464160,475
58,57,464640,475
64,64,464640,475
61,57,464640,475
67,76,464640,475
58,55,465120,475
64,63,465120,475
67,73,465120,475
61,55,465120,475
61,61,465600,475
64,69,465600,475
67,81,465600,475
58,61,465600,475
61,55,466080,475
58,55,466080,475
67,73,466080,475
64,63,466080,475
70,59,466560,1440
73,59,466560,1440
71,59,468000,1440
74,59,468000,1440
60,39,469440,240
72,36,469680,220
72,36,469920,220
72,39,470160,220
72,37,470400,220
72,36,470640,220
72,39,470880,220
72,35,471120,220
72,35,471360,220
72,39,471600,220
72,36,471840,220
72,36,472080,220
72,38,472560,220
72,38,472800,220
68,39,473040,240
65,39,473040,240
72,37,473280,220
72,37,473520,220
72,41,473760,220
72,37,474000,220
72,38,474240,220
72,46,474480,220
72,40,474720,220
72,40,474960,220
72,38,475440,220
72,38,475680,220
68,40,475920,240
65,40,475920,240
72,37,476160,220
72,37,476400,220
65,37,476640,240
68,37,476640,240
72,37,476880,220
72,37,477120,220
65,37,477360,240
68,37,477360,240
72,37,477600,220
72,37,477840,220
64,39,478080,240
67,39,478080,240
60,37,478320,220
60,37,478560,220
60,38,478800,220
60,37,479040,220
60,37,479280,220
60,37,479520,220
60,37,479760,220
60,37,480000,220
60,38,480240,220
60,37,480480,220
60,37,480720,220
60,39,480960,220
60,37,481200,220
60,37,481440,220
60,38,481680,220
60,37,481920,220
60,37,482160,220
60,38,482400,220
60,39,482640,220
60,37,482880,220
55,44,483120,240
58,44,483120,240
60,37,483360,220
60,37,483600,220
60,39,483840,220
60,37,484080,220
60,37,484320,220
60,37,484560,220
60,37,484800,220
60,37,485040,220
60,38,485280,220
60,37,485520,220
60,37,485760,220
56,48,486000,240
53,44,486000,240
60,37,486240,220
60,37,486480,220
60,38,486960,220
60,38,487200,220
53,40,487440,240
56,40,487440,240
60,37,487680,220
60,37,487920,220
56,37,488160,240
53,37,488160,240
60,37,488400,220
60,37,488640,220
56,36,488880,240
53,36,488880,240
60,37,489120,220
60,37,489360,220
60,38,489840,220
60,38,490080,220
52,40,490320,240
55,40,490320,240
60,37,490560,220
60,37,490800,220
60,37,491280,220
60,37,491520,220
54,36,491760,240
51,36,491760,240
60,37,492000,220
60,37,492240,220
60,37,492720,220
60,36,492960,220
50,38,493200,240
53,38,493200,240
60,34,493440,220
60,34,493680,220
60,32,494160,220
60,32,494400,220
53,30,494640,240
49,30,494640,240
60,31,494880,220
60,30,495120,220
48,25,495600,220
48,26,495840,220
48,28,496080,220
48,26,496320,220
48,26,496560,220
48,28,496800,220
48,26,497040,220
48,26,497280,220
48,28,497520,220
48,26,497760,220
48,27,498000,220
55,41,498240,720
46,41,498240,720
52,41,498240,720
48,41,498240,720
36,25,498480,240
36,26,498720,240
36,28,498960,240
36,26,499200,240
36,26,499440,240
36,28,499680,240
36,26,499920,240
36,26,500160,240
36,28,500400,240
36,26,500640,240
36,27,500880,240
29,28,501120,240
33,20,501360,240
36,20,501360,240
41,25,501360,240
29,26,501600,240
33,22,501840,240
36,22,501840,240
41,28,501840,240
29,26,502080,240
33,20,502320,240
36,20,502320,240
41,26,502320,240
29,28,502560,240
33,20,502800,240
36,20,502800,240
41,26,502800,240
29,26,503040,240
45,40,503280,600
36,22,503280,240
33,22,503280,240
41,28,503280,240
29,26,503520,240
41,27,503760,240
33,21,503760,240
36,21,503760,240
48,37,503880,120
29,28,504000,240
33,20,504240,240
36,20,504240,240
41,25,504240,240
29,26,504480,240
41,28,504720,240
36,22,504720,240
33,22,504720,240
29,26,504960,240
36,20,505200,240
41,26,505200,240
33,20,505200,240
31,28,505440,240
34,20,505680,240
40,20,505680,240
43,26,505680,240
31,26,505920,240
34,22,506160,240
43,28,506160,240
40,22,506160,240
31,26,506400,240
40,21,506640,240
43,27,506640,240
34,21,506640,240
33,28,506880,240
41,20,507120,240
45,25,507120,240
36,20,507120,240
33,26,507360,240
48,40,507600,1440
45,28,507600,240
41,22,507600,240
36,22,507600,240
33,26,507840,240
36,20,508080,240
45,26,508080,240
41,20,508080,240
33,28,508320,240
45,26,508560,240
36,20,508560,240
41,20,508560,240
33,26,508800,240
41,28,509040,240
50,40,509040,600
34,26,509280,240
41,27,509520,240
46,37,509640,120
45,40,509760,720
36,28,509760,240
41,25,510000,240
36,26,510240,240
41,28,510480,240
48,40,510480,600
36,25,510720,240
41,25,510960,240
45,36,511080,120
43,40,511200,720
36,28,511200,240
40,25,511440,240
36,25,511680,240
48,40,511920,600
40,28,511920,240
36,25,512160,240
40,25,512400,240
46,36,512520,120
41,28,512640,240
45,20,512880,240
48,20,512880,240
53,25,512880,240
41,27,513120,240
45,23,513360,240
48,23,513360,240
53,29,513360,240
41,28,513600,240
45,22,513840,240
48,22,513840,240
53,29,513840,240
41,32,514080,240
45,24,514320,240
48,24,514320,240
53,31,514320,240
41,31,514560,240
57,51,514800,600
48,27,514800,240
45,27,514800,240
53,35,514800,240
41,33,515040,240
53,34,515280,240
45,27,515280,240
48,27,515280,240
60,49,515400,120
41,37,515520,240
45,27,515760,240
48,27,515760,240
53,34,515760,240
41,36,516000,240
45,30,516240,240
48,30,516240,240
53,39,516240,240
41,37,516480,240
48,29,516720,240
53,38,516720,240
45,29,516720,240
43,40,516960,240
46,29,517200,240
48,29,517200,240
55,38,517200,240
43,39,517440,240
46,34,517680,240
55,42,517680,240
48,34,517680,240
43,40,517920,240
48,33,518160,240
55,42,518160,240
46,33,518160,240
57,36,518400,2880
48,28,518400,2880
45,28,518400,2880
53,36,518400,2880
49,50,521280,2880
53,59,521280,720
46,50,521280,2880
54,57,522000,2160
48,28,524160,2880
56,36,524160,2880
53,36,524160,2880
48,25,527040,2880
52,31,527040,2880
58,31,527040,2880
56,34,540720,240
55,35,540960,240
54,33,541200,240
53,34,541440,240
52,33,541680,240
51,33,541920,240
49,33,542160,240
48,32,542400,240
46,32,542640,240
44,34,542880,240
43,33,543120,240
42,33,543360,240
41,33,543600,240
40,33,543840,240
39,33,544080,240
37,34,544320,240
36,34,544560,240
34,34,544800,240
32,34,545040,240
31,33,545280,240
32,31,545520,240
34,34,545760,240
36,33,546000,240
35,33,546240,240
36,36,546480,240
35,34,546720,240
36,33,546960,240
29,64,547200,120
36,52,547320,120
41,52,547440,120
36,52,547560,120
29,58,547680,120
36,51,547800,120
29,68,547920,120
36,52,548040,120
29,64,548160,120
36,52,548280,120
29,62,548400,120
36,52,548520,120
29,64,548640,120
36,52,548760,120
41,52,548880,120
36,52,549000,120
29,58,549120,120
36,51,549240,120
29,68,549360,120
36,52,549480,120
29,64,549600,120
36,52,549720,120
29,62,549840,120
36,52,549960,120
29,64,550080,120
37,52,550200,120
41,52,550320,120
37,52,550440,120
29,58,550560,120
37,51,550680,120
29,68,550800,120
37,52,550920,120
29,64,551040,120
37,52,551160,120
29,62,551280,120
37,52,551400,120
29,64,551520,120
37,52,551640,120
41,52,551760,120
37,52,551880,120
29,58,552000,120
37,51,552120,120
29,68,552240,120
37,52,552360,120
29,64,552480,120
37,52,552600,120
29,62,552720,120
37,52,552840,120
42,107,552960,2160
30,91,552960,2160
31,74,555120,240
43,88,555120,240
34,72,555360,240
37,82,555600,240
40,95,555840,240
43,82,556080,240
46,82,556320,240
49,85,556560,230
49,83,556800,230
49,83,557040,230
49,97,557280,720
48,89,558000,720
41,64,558720,120
48,52,558840,120
53,52,558960,120
48,52,559080,120
41,58,559200,120
48,51,559320,120
41,68,559440,120
48,52,559560,120
41,64,559680,120
48,52,559800,120
41,62,559920,120
48,52,560040,120
41,64,560160,120
48,52,560280,120
53,52,560400,120
48,52,560520,120
41,58,560640,120
48,51,560760,120
41,68,560880,120
48,52,561000,120
41,64,561120,120
48,52,561240,120
41,62,561360,120
48,52,561480,120
41,64,561600,120
49,52,561720,120
53,52,561840,120
49,52,561960,120
41,58,562080,120
49,51,562200,120
41,68,562320,120
49,52,562440,120
41,64,562560,120
49,52,562680,120
41,62,562800,120
49,52,562920,120
41,64,563040,120
49,52,563160,120
53,52,563280,120
49,52,563400,120
41,58,563520,120
49,51,563640,120
41,68,563760,120
49,52,563880,120
41,64,564000,120
49,52,564120,120
41,62,564240,120
49,52,564360,120
42,90,564480,2160
54,106,564480,2160
55,88,566640,240
43,59,566640,240
46,58,566880,240
58,72,566880,240
49,63,567120,240
61,82,567120,240
64,95,567360,240
52,75,567360,240
55,63,567600,240
67,82,567600,240
58,63,567840,240
70,82,567840,240
73,85,568080,230
61,68,568080,230
61,64,568320,230
73,83,568320,230
61,64,568560,230
73,83,568560,230
73,102,568800,720
61,80,568800,720
60,69,569520,720
72,86,569520,720
65,102,570240,720
64,86,570960,720
73,102,571680,720
72,86,572400,720
71,97,573120,1440
74,91,573240,1320
77,95,573360,1200
80,87,573480,1080
72,85,574560,1440
76,77,574680,1320
79,77,574800,1200
68,41,576000,720
65,41,576000,720
73,40,576720,720
70,40,576720,720
72,41,577440,720
68,41,577440,720
72,55,578160,720
70,55,578160,720
67,55,578160,720
65,41,578880,720
68,41,578880,720
58,40,579600,720
61,40,579600,720
56,41,580320,720
60,41,580320,720
60,55,581040,720
58,55,581040,720
55,55,581040,720
53,41,581760,720
56,41,581760,720
46,40,582480,720
49,40,582480,720
44,41,583200,720
48,41,583200,720
43,55,583920,720
46,55,583920,720
48,55,583920,720
41,44,584640,1440
36,36,586080,720
32,30,586800,720
29,24,587520,2160
32,29,589680,600
36,26,590280,120
41,29,590400,720
44,29,591120,600
48,26,591720,120
53,29,591840,720
41,28,592560,720
42,34,593280,2160
48,33,595440,600
51,28,596040,120
54,33,596160,720
60,33,596880,600
63,28,597480,120
66,33,597600,720
54,30,598320,720
53,33,599040,720
56,34,599760,600
61,30,600360,120
65,36,600480,720
53,35,601200,720
51,40,601920,600
54,36,602520,120
56,42,602640,600
60,38,603240,120
63,44,603360,600
66,39,603960,120
68,47,604080,600
72,42,604680,120
61,33,604800,240
65,24,605040,240
68,24,605040,240
73,30,605040,240
61,31,605280,240
65,26,605520,240
68,26,605520,240
73,33,605520,240
61,31,605760,240
65,24,606000,240
68,24,606000,240
73,31,606000,240
61,33,606240,240
65,24,606480,240
68,24,606480,240
73,31,606480,240
61,31,606720,240
65,26,606960,240
73,33,606960,240
68,26,606960,240
61,31,607200,240
65,25,607440,240
68,25,607440,240
73,32,607440,240
61,33,607680,240
65,24,607920,240
68,24,607920,240
73,30,607920,240
61,31,608160,240
65,26,608400,240
68,26,608400,240
73,33,608400,240
61,31,608640,240
68,24,608880,240
73,31,608880,240
65,24,608880,240
63,33,609120,240
66,24,609360,240
68,24,609360,240
75,31,609360,240
63,31,609600,240
68,26,609840,240
66,26,609840,240
75,33,609840,240
63,31,610080,240
66,25,610320,240
68,25,610320,240
75,32,610320,240
65,33,610560,240
68,24,610800,240
77,30,610800,240
73,24,610800,240
65,31,611040,240
77,33,611280,240
73,26,611280,240
68,26,611280,240
65,31,611520,240
68,24,611760,240
77,31,611760,240
73,24,611760,240
65,33,612000,240
77,31,612240,240
68,24,612240,240
73,24,612240,240
65,31,612480,240
73,36,612720,240
68,36,612720,240
68,34,612960,240
68,35,613200,240
73,35,613200,240
65,36,613440,240
68,26,613680,240
73,26,613680,240
77,33,613680,240
65,34,613920,240
73,29,614160,240
68,29,614160,240
77,37,614160,240
65,35,614400,240
77,36,614640,240
73,27,614640,240
68,27,614640,240
66,39,614880,240
69,28,615120,240
75,37,615120,240
72,28,615120,240
66,38,615360,240
75,40,615600,240
69,40,615600,240
72,40,615600,240
66,38,615840,240
75,40,616080,240
69,40,616080,240
72,40,616080,240
65,49,616320,240
74,39,616560,240
71,30,616560,240
68,30,616560,240
65,41,616800,240
68,35,617040,240
74,44,617040,240
71,35,617040,240
65,42,617280,240
68,34,617520,240
74,44,617520,240
71,34,617520,240
65,49,617760,240
68,36,618000,240
71,36,618000,240
74,48,618000,240
65,48,618240,240
71,41,618480,240
68,41,618480,240
74,55,618480,240
65,50,618720,240
74,52,618960,240
68,41,618960,240
71,41,618960,240
64,54,619200,240
76,47,619440,240
72,37,619440,240
67,37,619440,240
64,51,619680,240
67,42,619920,240
76,53,619920,240
72,42,619920,240
64,47,620160,240
67,41,620400,240
76,52,620400,240
72,41,620400,240
64,49,620640,240
67,43,620880,240
72,43,620880,240
76,54,620880,240
64,48,621120,240
72,41,621360,240
67,41,621360,240
76,55,621360,240
64,50,621600,240
76,52,621840,240
67,41,621840,240
72,41,621840,240
58,54,622080,240
67,47,622320,240
64,37,622320,240
61,37,622320,240
58,51,622560,240
61,42,622800,240
67,53,622800,240
64,42,622800,240
58,47,623040,240
61,41,623280,240
67,52,623280,240
64,41,623280,240
58,49,623520,240
64,43,623760,240
67,54,623760,240
61,43,623760,240
58,48,624000,240
61,43,624240,240
67,57,624240,240
64,43,624240,240
58,52,624480,240
61,43,624720,240
64,43,624720,240
67,54,624720,240
56,56,624960,240
60,38,625200,240
65,38,625200,240
68,49,625200,240
56,53,625440,240
65,44,625680,240
68,55,625680,240
60,44,625680,240
56,49,625920,240
65,43,626160,240
68,54,626160,240
60,43,626160,240
56,51,626400,240
65,45,626640,240
68,56,626640,240
60,45,626640,240
56,50,626880,240
60,43,627120,240
68,57,627120,240
65,43,627120,240
56,52,627360,240
60,43,627600,240
65,43,627600,240
68,54,627600,240
34,101,627840,240
46,101,627840,240
49,75,628320,120
54,69,628440,120
58,86,628560,240
54,75,629040,120
58,73,629160,120
61,86,629280,240
58,78,629760,120
61,73,629880,120
66,84,630000,240
61,77,630480,120
66,71,630600,120
70,81,630720,240
66,75,631200,120
70,74,631320,120
73,81,631440,240
70,75,631920,120
73,73,632040,120
78,84,632160,240
73,75,632640,120
78,74,632760,120
82,83,632880,240
48,101,633600,240
36,101,633600,240
51,80,634080,120
57,73,634200,120
60,89,634320,240
57,78,634800,120
60,73,634920,120
63,86,635040,240
60,78,635520,120
63,73,635640,120
69,84,635760,240
63,77,636240,120
69,71,636360,120
72,82,636480,240
69,75,636960,120
72,73,637080,120
75,85,637200,240
72,75,637680,120
75,73,637800,120
81,84,637920,240
75,80,638400,120
81,74,638520,120
84,85,638640,240
37,101,639360,240
49,101,639360,240
53,78,639840,120
58,73,639960,120
61,84,640080,240
52,101,640800,240
40,101,640800,240
55,80,641280,120
60,73,641400,120
64,82,641520,240
53,101,642240,240
41,101,642240,240
56,80,642720,120
61,73,642840,120
65,86,642960,240
43,101,643680,240
55,101,643680,240
58,80,644160,120
64,73,644280,120
67,86,644400,240
44,75,645120,240
56,69,645600,120
60,61,645720,120
46,77,645840,240
58,69,646320,120
61,64,646440,120
48,78,646560,240
60,71,647040,120
63,67,647160,120
49,81,647280,240
61,77,647760,120
65,71,647880,120
52,80,648000,240
64,77,648480,120
67,73,648600,120
53,83,648720,240
65,77,649200,120
68,72,649320,120
55,84,649440,240
67,78,649920,120
70,74,650040,120
56,85,650160,240
68,77,650640,120
72,73,650760,120
58,86,650880,240
70,81,651360,120
73,77,651480,120
60,89,651600,240
72,80,652080,120
75,78,652200,120
61,89,652320,240
73,83,652800,120
77,80,652920,120
61,92,653040,240
73,84,653520,120
77,80,653640,120
41,108,653760,120
53,100,653880,120
56,92,654000,120
58,74,656160,120
53,74,656280,120
49,74,656400,120
58,74,656520,120
53,79,656640,120
49,71,656760,120
46,74,656880,120
49,71,657000,120
53,74,657120,120
58,72,657240,120
62,105,659520,120
74,100,659640,120
77,92,659760,120
59,71,662760,120
56,74,662880,120
53,72,663000,120
50,80,663120,120
47,75,663240,120
50,75,663360,120
53,75,663480,120
56,79,663600,120
59,73,663720,120
36,125,665280,240
60,74,667680,120
56,74,667800,120
53,74,667920,120
60,74,668040,120
56,79,668160,120
53,71,668280,120
48,74,668400,120
44,71,668520,120
41,74,668640,120
36,72,668760,120
41,80,668880,120
44,75,669000,120
48,75,669120,120
53,75,669240,120
56,79,669360,120
60,73,669480,120
36,82,671040,120
48,72,671160,120
52,73,671280,120
55,74,671400,120
58,74,671520,240
60,73,672960,120
58,69,673080,120
55,74,673200,120
52,69,673320,120
48,71,673440,120
46,70,673560,120
43,70,673680,120
40,70,673800,120
36,75,673920,120
40,67,674040,120
43,70,674160,120
46,67,674280,120
48,70,674400,120
52,68,674520,120
55,76,674640,120
58,71,674760,120
49,37,677520,240
49,35,677760,240
49,35,678000,240
48,36,678240,480
49,35,680400,240
49,33,680640,240
49,33,680880,240
48,34,681120,480
37,32,683280,240
37,30,683520,240
37,30,683760,240
36,31,684000,720
37,31,684720,240
37,29,684960,240
37,29,685200,240
36,29,685440,720
37,21,686160,240
37,24,686400,240
37,26,686640,240
36,28,686880,720
36,70,687600,240
48,83,687600,240
48,78,687840,240
36,65,687840,240
48,78,688080,240
36,65,688080,240
29,71,688320,240
41,85,688320,240
65,30,688560,240
60,30,688560,240
56,37,688800,240
65,42,689040,240
60,32,689040,240
56,37,689280,240
60,30,689520,240
65,37,689520,240
56,42,689760,240
65,37,690000,240
60,30,690000,240
56,37,690240,240
65,42,690480,240
60,32,690480,240
56,37,690720,240
65,41,690960,240
60,31,690960,240
56,42,691200,240
60,30,691440,240
65,36,691440,240
56,37,691680,240
65,42,691920,240
60,32,691920,240
56,37,692160,240
65,37,692400,240
60,30,692400,240
58,42,692640,240
67,37,692880,240
60,30,692880,240
58,37,693120,240
67,42,693360,240
60,32,693360,240
58,37,693600,240
67,41,693840,240
60,31,693840,240
56,42,694080,240
60,30,694320,240
65,36,694320,240
56,37,694560,240
60,32,694800,240
65,42,694800,240
56,37,695040,240
60,30,695280,240
65,37,695280,240
56,42,695520,240
60,30,695760,240
65,37,695760,240
56,42,696000,240
60,34,696240,240
65,44,696240,240
56,40,696480,240
60,33,696720,240
65,44,696720,240
56,46,696960,240
68,40,697200,240
60,34,697200,240
65,40,697200,240
56,42,697440,240
68,47,697680,240
60,36,697680,240
65,47,697680,240
56,43,697920,240
68,44,698160,240
65,44,698160,240
60,36,698160,240
58,49,698400,240
64,36,698640,240
60,36,698640,240
67,45,698640,240
58,46,698880,240
64,39,699120,240
67,51,699120,240
60,39,699120,240
58,47,699360,240
64,38,699600,240
67,51,699600,240
60,38,699600,240
57,55,699840,240
66,48,700080,240
63,48,700080,240
60,39,700080,240
57,49,700320,240
66,55,700560,240
60,41,700560,240
63,55,700560,240
57,49,700800,240
60,39,701040,240
63,49,701040,240
66,49,701040,240
57,55,701280,240
66,49,701520,240
60,39,701520,240
63,49,701520,240
57,55,701760,240
63,40,702000,240
66,53,702000,240
60,40,702000,240
57,48,702240,240
63,39,702480,240
66,52,702480,240
60,39,702480,240
57,55,702720,240
65,48,702960,240
63,48,702960,240
60,39,702960,240
57,49,703200,240
65,55,703440,240
61,55,703440,240
58,49,703680,240
61,49,703920,240
65,49,703920,240
58,55,704160,240
65,49,704400,240
61,49,704400,240
58,55,704640,240
67,53,704880,240
64,40,704880,240
58,48,705120,240
64,39,705360,240
67,52,705360,240
48,55,705600,240
53,39,705840,240
56,48,705840,240
60,48,705840,240
48,49,706080,240
56,40,706320,240
60,53,706320,240
53,40,706320,240
48,48,706560,240
56,39,706800,240
53,39,706800,240
60,52,706800,240
46,55,707040,240
48,39,707280,240
52,48,707280,240
55,48,707280,240
46,49,707520,240
52,39,707760,240
48,39,707760,240
55,51,707760,240
46,47,708000,240
55,50,708240,240
48,38,708240,240
52,38,708240,240
45,53,708480,240
51,38,708720,240
57,47,708720,240
54,47,708720,240
45,48,708940,240
51,53,709200,240
57,53,709200,240
54,53,709200,240
45,48,709440,240
51,48,709680,240
57,48,709680,240
54,48,709680,240
45,53,709920,240
51,48,710160,240
57,48,710160,240
54,48,710160,240
45,53,710400,240
54,45,710640,240
57,59,710640,240
51,45,710640,240
45,49,710880,240
54,39,711120,240
57,55,711120,240
51,39,711120,240
45,57,711360,240
57,49,711600,240
53,49,711600,240
51,39,711600,240
45,49,711840,240
49,57,712080,240
53,57,712080,240
58,57,712080,240
46,49,712320,240
49,49,712560,240
53,49,712560,240
58,49,712560,240
46,57,712800,240
49,49,713040,240
53,49,713040,240
58,49,713040,240
46,57,713280,240
55,56,713520,240
58,56,713520,240
52,40,713520,240
46,49,713760,240
52,39,714000,240
58,55,714000,240
55,55,714000,240
48,57,714240,240
60,49,714480,240
56,49,714480,240
53,39,714480,240
48,49,714720,240
53,40,714960,240
60,56,714960,240
56,40,714960,240
48,49,715200,240
53,39,715440,240
60,55,715440,240
56,39,715440,240
48,57,715680,240
60,49,715920,240
52,49,715920,240
55,39,715920,240
48,49,716160,240
60,49,716400,240
55,37,716400,240
52,37,716400,240
48,44,716640,240
60,48,716880,240
55,36,716880,240
52,36,716880,240
41,63,717120,480
48,63,717120,480
53,75,717120,480
44,63,717120,480
53,79,718080,220
56,79,718080,220
53,76,718320,220
56,76,718320,220
52,80,718560,480
55,80,718560,480
55,79,719520,220
58,79,719520,220
55,76,719760,220
58,76,719760,220
53,80,720000,480
56,80,720000,480
56,79,720960,220
53,79,720960,220
56,76,721200,220
53,76,721200,220
55,80,721440,480
52,80,721440,480
58,79,722400,220
55,79,722400,220
55,76,722640,220
58,76,722640,220
56,80,722880,220
53,66,722880,220
56,76,723360,220
53,63,723360,220
53,59,723840,220
46,59,723840,220
55,73,723840,220
53,66,724320,220
56,80,724320,220
48,66,724320,220
53,63,724800,220
56,76,724800,220
48,63,724800,220
48,63,725280,220
55,76,725280,220
52,63,725280,220
44,61,725760,480
48,61,725760,480
53,73,725760,480
41,61,725760,480
44,75,726720,220
41,75,726720,220
44,72,726960,220
41,72,726960,220
43,76,727200,480
40,76,727200,480
46,75,728160,220
43,75,728160,220
46,72,728400,220
43,72,728400,220
44,76,728640,480
41,76,728640,480
44,75,729600,220
41,75,729600,220
44,72,729840,220
41,72,729840,220
43,76,730080,480
40,76,730080,480
46,75,731040,220
43,75,731040,220
46,72,731280,220
43,72,731280,220
41,66,731520,220
44,79,731520,220
44,71,732000,220
41,59,732000,220
34,55,732480,220
43,66,732480,220
41,55,732480,220
44,75,732960,220
36,62,732960,220
41,62,732960,220
44,71,733440,220
36,59,733440,220
41,59,733440,220
40,59,733920,220
43,71,733920,220
36,59,733920,220
36,62,734400,220
41,62,734400,220
44,75,734400,220
32,62,734400,220
32,59,734880,220
41,59,734880,220
36,59,734880,220
44,71,734880,220
46,66,735360,220
41,55,735360,220
43,60,735360,220
34,55,735360,220
48,75,735840,220
44,69,735840,220
41,62,735840,220
36,62,735840,220
48,71,736320,220
41,59,736320,220
44,66,736320,220
36,59,736320,220
46,71,736800,220
40,59,736800,220
43,66,736800,220
34,59,736800,220
36,65,737280,220
41,65,737280,220
44,77,737280,220
32,65,737280,220
32,62,737760,220
41,62,737760,220
36,62,737760,220
44,74,737760,220
46,69,738240,220
41,57,738240,220
43,63,738240,220
34,57,738240,220
48,77,738720,220
41,65,738720,220
36,65,738720,220
44,72,738720,220
44,69,739200,220
41,62,739200,220
36,62,739200,220
48,74,739200,220
36,62,739680,220
48,74,739680,220
43,69,739680,220
40,62,739680,220
29,82,740160,480
41,110,740160,480
68,62,740880,600
72,54,741480,120
77,59,741600,720
80,60,742320,600
84,52,742920,120
89,56,743040,720
84,58,743760,600
80,50,744360,120
77,54,744480,720
72,56,745200,600
68,48,745800,120
65,52,745920,720
60,47,746640,600
56,41,747240,120
53,44,747360,720
48,45,748080,600
44,39,748680,120
41,42,748800,720
36,38,749520,600
32,27,750120,120
29,28,750240,720
29,27,750960,720
29,27,751680,1440
29,19,753120,1440
29,12,754560,2880
