note,velocity,position,duration
67,56,241,120
72,60,361,120
76,63,481,108
67,50,601,120
72,47,721,120
76,47,841,120
67,56,1201,120
72,60,1321,120
76,62,1441,108
67,50,1561,120
72,48,1681,120
76,48,1801,120
69,56,2161,120
74,60,2281,120
77,65,2401,108
69,51,2521,120
74,50,2641,120
77,50,2761,120
69,58,3121,120
74,60,3241,120
77,65,3361,108
69,52,3481,120
74,50,3601,120
77,50,3721,120
67,56,4081,120
74,60,4201,120
77,65,4321,108
67,51,4441,120
74,50,4561,120
77,50,4681,120
67,56,5041,120
74,60,5161,120
77,65,5281,108
67,52,5401,120
74,50,5521,120
77,50,5641,120
67,53,6001,120
72,55,6121,120
76,60,6241,108
67,50,6361,120
72,47,6481,120
76,47,6601,120
67,55,6961,120
72,57,7081,120
76,61,7201,108
67,50,7321,120
72,48,7441,120
76,48,7561,120
69,61,7921,120
76,66,8041,120
81,70,8161,108
69,55,8281,120
76,51,8401,120
81,51,8521,120
69,61,8881,120
76,65,9001,120
81,68,9121,108
69,55,9241,120
76,52,9361,120
81,52,9481,120
66,56,9841,120
69,60,9961,120
74,63,10081,108
66,50,10201,120
69,47,10321,120
74,47,10441,120
66,56,10801,120
69,60,10921,120
74,62,11041,108
66,50,11161,120
69,48,11281,120
74,48,11401,120
67,58,11761,120
74,63,11881,120
79,66,12001,108
67,51,12121,120
74,50,12241,120
79,50,12361,120
67,58,12721,120
74,62,12841,120
79,65,12961,108
67,52,13081,120
74,50,13201,120
79,50,13321,120
64,56,13681,120
67,60,13801,120
72,63,13921,108
64,50,14041,120
67,47,14161,120
72,47,14281,120
64,56,14641,120
67,60,14761,120
72,62,14881,108
64,50,15001,120
67,48,15121,120
72,48,15241,120
64,56,15601,120
67,60,15721,120
72,63,15841,108
64,50,15961,120
67,47,16081,120
72,47,16201,120
64,56,16561,120
67,60,16681,120
72,62,16801,108
64,50,16921,120
67,48,17041,120
72,48,17161,120
62,56,17521,120
66,60,17641,120
72,63,17761,108
62,50,17881,120
66,47,18001,120
72,47,18121,120
62,56,18481,120
66,60,18601,120
72,62,18721,108
62,50,18841,120
66,48,18961,120
72,48,19081,120
62,53,19441,120
67,56,19561,120
71,60,19681,108
62,46,19801,120
67,45,19921,120
71,45,20041,120
62,53,20401,120
67,56,20521,120
71,58,20641,108
62,47,20761,120
67,45,20881,120
71,45,21001,120
64,53,21361,120
67,56,21481,120
73,60,21601,108
64,46,21721,120
67,45,21841,120
73,45,21961,120
64,53,22321,120
67,56,22441,120
73,58,22561,108
64,47,22681,120
67,45,22801,120
73,45,22921,120
62,56,23281,120
69,60,23401,120
74,63,23521,108
62,50,23641,120
69,47,23761,120
74,47,23881,120
62,56,24241,120
69,60,24361,120
74,62,24481,108
62,50,24601,120
69,48,24721,120
74,48,24841,120
62,53,25201,120
65,56,25321,120
71,60,25441,108
62,46,25561,120
65,45,25681,120
71,45,25801,120
62,53,26161,120
65,56,26281,120
71,58,26401,108
62,47,26521,120
65,45,26641,120
71,45,26761,120
60,53,27121,120
67,56,27241,120
72,60,27361,108
60,46,27481,120
67,45,27601,120
72,45,27721,120
60,53,28081,120
67,56,28201,120
72,58,28321,108
60,47,28441,120
67,45,28561,120
72,45,28681,120
57,50,29041,120
60,53,29161,120
65,56,29281,108
57,45,29401,120
60,42,29521,120
65,42,29641,120
57,50,30001,120
60,53,30121,120
65,55,30241,108
57,45,30361,120
60,43,30481,120
65,43,30601,120
57,50,30961,120
60,53,31081,120
65,56,31201,108
57,45,31321,120
60,42,31441,120
65,42,31561,120
57,50,31921,120
60,53,32041,120
65,55,32161,108
57,45,32281,120
60,43,32401,120
65,43,32521,120
55,50,32881,120
59,53,33001,120
65,56,33121,108
55,45,33241,120
59,42,33361,120
65,42,33481,120
55,50,33841,120
59,53,33961,120
65,55,34081,108
55,45,34201,120
59,43,34321,120
65,43,34441,120
55,50,34801,120
60,53,34921,120
64,56,35041,108
55,45,35161,120
60,42,35281,120
64,42,35401,120
55,50,35761,120
60,53,35881,120
64,55,36001,108
55,45,36121,120
60,43,36241,120
64,43,36361,120
58,47,36721,120
60,50,36841,120
64,53,36961,108
58,41,37081,120
60,40,37201,120
64,40,37321,120
58,47,37681,120
60,50,37801,120
64,52,37921,108
58,42,38041,120
60,40,38161,120
64,40,38281,120
57,47,38641,120
60,50,38761,120
64,53,38881,108
57,41,39001,120
60,40,39121,120
64,40,39241,120
57,47,39601,120
60,50,39721,120
64,52,39841,108
57,42,39961,120
60,40,40081,120
64,40,40201,120
57,50,40561,120
60,53,40681,120
63,56,40801,108
57,45,40921,120
60,42,41041,120
63,42,41161,120
57,50,41521,120
60,53,41641,120
63,55,41761,108
57,45,41881,120
60,43,42001,120
63,43,42121,120
59,47,42481,120
60,50,42601,120
62,53,42721,108
59,41,42841,120
60,40,42961,120
62,40,43081,120
59,47,43441,120
60,50,43561,120
62,52,43681,108
59,42,43801,120
60,40,43921,120
62,40,44041,120
55,50,44401,120
59,53,44521,120
62,56,44641,108
55,45,44761,120
59,42,44881,120
62,42,45001,120
55,50,45361,120
59,53,45481,120
62,55,45601,108
55,45,45721,120
59,43,45841,120
62,43,45961,120
55,50,46321,120
60,53,46441,120
64,56,46561,108
55,45,46681,120
60,42,46801,120
64,42,46921,120
55,50,47281,120
60,53,47401,120
64,55,47521,108
55,45,47641,120
60,43,47761,120
64,43,47881,120
55,53,48241,120
60,56,48361,120
65,60,48481,108
55,46,48601,120
60,45,48721,120
65,45,48841,120
55,53,49201,120
60,56,49321,120
65,58,49441,108
55,47,49561,120
60,45,49681,120
65,45,49801,120
55,53,50161,120
59,56,50281,120
65,60,50401,108
55,46,50521,120
59,45,50641,120
65,45,50761,120
55,53,51121,120
59,56,51241,120
65,58,51361,108
55,47,51481,120
59,45,51601,120
65,45,51721,120
57,56,52081,120
60,60,52201,120
66,63,52321,108
57,50,52441,120
60,47,52561,120
66,47,52681,120
57,56,53041,120
60,60,53161,120
66,62,53281,108
57,50,53401,120
60,48,53521,120
66,48,53641,120
55,58,54001,120
60,63,54121,120
67,66,54241,108
55,51,54361,120
60,50,54481,120
67,50,54601,120
55,58,54961,120
60,62,55081,120
67,65,55201,108
55,52,55321,120
60,50,55441,120
67,50,55561,120
55,50,55921,120
60,53,56041,120
65,56,56161,108
55,45,56281,120
60,42,56401,120
65,42,56521,120
55,50,56881,120
60,53,57001,120
65,55,57121,108
55,45,57241,120
60,43,57361,120
65,43,57481,120
55,50,57841,120
59,53,57961,120
65,56,58081,108
55,45,58201,120
59,42,58321,120
65,42,58441,120
55,50,58801,120
59,53,58921,120
65,55,59041,108
55,45,59161,120
59,43,59281,120
65,43,59401,120
55,53,59761,120
58,56,59881,120
64,60,60001,108
55,46,60121,120
58,45,60241,120
64,45,60361,120
55,53,60721,120
58,56,60841,120
64,58,60961,108
55,47,61081,120
58,45,61201,120
64,45,61321,120
53,50,61680,120
57,53,61800,120
60,55,61920,120
65,53,62040,120
60,53,62160,120
57,53,62280,120
60,55,62400,120
57,50,62520,120
53,47,62640,120
57,46,62760,120
53,46,62880,120
50,42,63000,120
53,43,63120,120
50,38,63240,120
67,50,63600,120
71,53,63720,120
74,55,63840,120
77,60,63960,120
74,55,64080,120
71,53,64200,120
74,56,64320,120
71,53,64440,120
67,56,64560,120
71,53,64680,120
62,55,64800,120
65,50,64920,120
64,50,65040,120
62,50,65160,120
72,50,65281,1440
67,50,65281,1440
64,50,65281,1440
60,61,1,960
64,57,121,840
60,62,961,960
64,57,1081,840
60,65,1921,960
62,60,2041,840
60,65,2881,960
62,60,3001,840
59,65,3841,960
62,60,3961,840
59,65,4801,960
62,60,4921,840
60,61,5761,960
64,57,5881,840
60,62,6721,960
64,57,6841,840
60,67,7681,960
64,62,7801,840
60,68,8641,960
64,62,8761,840
60,61,9601,960
62,57,9721,840
60,62,10561,960
62,57,10681,840
59,65,11521,960
62,60,11641,840
59,65,12481,960
62,60,12601,840
59,61,13441,960
60,57,13561,840
59,62,14401,960
60,57,14521,840
57,61,15361,960
60,57,15481,840
57,62,16321,960
60,57,16441,840
50,61,17281,960
57,57,17401,840
50,62,18241,960
57,57,18361,840
55,57,19201,960
59,55,19321,840
55,58,20161,960
59,55,20281,840
55,57,21121,960
58,55,21241,840
55,58,22081,960
58,55,22201,840
53,61,23041,960
57,57,23161,840
53,62,24001,960
57,57,24121,840
53,57,24961,960
56,55,25081,840
53,58,25921,960
56,55,26041,840
52,57,26881,960
55,55,27001,840
52,58,27841,960
55,55,27961,840
52,55,28801,960
53,51,28921,840
52,55,29761,960
53,51,29881,840
50,55,30721,960
53,51,30841,840
50,55,31681,960
53,51,31801,840
43,55,32641,960
50,51,32761,840
43,55,33601,960
50,51,33721,840
48,55,34561,960
52,51,34681,840
48,55,35521,960
52,51,35641,840
48,51,36481,960
55,48,36601,840
48,52,37441,960
55,48,37561,840
41,51,38401,960
53,48,38521,840
41,52,39361,960
53,48,39481,840
42,55,40321,960
48,51,40441,840
42,55,41281,960
48,51,41401,840
44,51,42241,960
53,48,42361,840
44,52,43201,960
53,48,43321,840
43,55,44161,960
53,51,44281,840
43,55,45121,960
53,51,45241,840
43,55,46081,960
52,51,46201,840
43,55,47041,960
52,51,47161,840
43,57,48001,960
50,55,48121,840
43,58,48961,960
50,55,49081,840
43,57,49921,960
50,55,50041,840
43,58,50881,960
50,55,51001,840
43,61,51841,960
51,57,51961,840
43,62,52801,960
51,57,52921,840
43,65,53761,960
52,60,53881,840
43,65,54721,960
52,60,54841,840
43,55,55681,960
50,51,55801,840
43,55,56641,960
50,51,56761,840
43,55,57601,960
50,51,57721,840
43,55,58561,960
50,51,58681,840
36,57,59521,960
48,55,59641,840
36,58,60481,960
48,55,60601,840
36,55,61441,1920
48,51,61560,1800
36,55,63361,1920
50,51,63480,1800
36,53,65281,1440
48,53,65281,1440
67,53,70320,240
69,54,70560,240
71,55,70800,240
72,60,71040,360
74,57,71400,60
72,57,71460,60
71,57,71520,220
76,60,71760,240
69,56,72000,220
74,60,72240,360
76,57,72600,120
74,57,72720,120
72,56,72840,120
71,55,72960,90
67,55,73080,120
69,56,73200,120
71,57,73320,120
72,57,73440,120
71,53,73560,120
72,54,73680,120
74,55,73800,120
76,56,73920,120
74,57,74040,120
76,58,74160,120
78,59,74280,120
79,60,74400,240
71,56,74640,240
72,60,74880,220
69,55,75120,240
74,58,75360,120
72,57,75480,120
71,56,75600,120
69,55,75720,120
67,54,75840,360
67,56,76200,120
65,55,76320,120
64,55,76440,120
65,55,76560,120
67,55,76680,120
69,55,76800,120
67,56,76920,120
69,55,77040,120
71,57,77160,120
72,59,77280,960
71,57,78240,480
72,60,78960,240
74,63,79200,240
76,64,79440,240
77,69,79680,360
79,66,80040,60
77,66,80100,60
76,66,80160,220
81,69,80400,240
74,64,80640,220
79,69,80880,360
81,67,81240,120
79,66,81360,120
77,64,81480,120
76,63,81600,220
81,70,81840,360
83,68,82200,120
81,67,82320,120
79,66,82440,120
77,65,82560,960
76,60,83520,360
78,57,83880,120
79,63,84000,960
78,63,84960,480
79,60,85440,120
77,59,85560,120
76,58,85680,120
74,57,85800,120
72,56,85920,120
74,57,86040,120
72,57,86160,120
71,57,86280,120
69,57,86400,120
72,58,86520,120
71,58,86640,120
69,57,86760,120
72,58,87480,120
69,55,87720,120
68,54,87840,180
76,60,88080,240
74,58,88320,240
72,56,88560,120
71,56,88680,120
69,54,88800,120
68,54,88920,120
69,54,89040,120
71,53,89160,120
72,56,89280,90
66,54,89400,120
69,54,89520,120
68,55,89640,120
71,58,89760,240
69,56,90000,120
71,56,90120,120
72,58,90240,220
77,64,90480,240
76,62,90720,240
74,60,90960,480
72,58,91440,120
71,58,91560,120
71,60,91680,45
72,55,91725,45
71,60,91770,270
69,57,92040,120
69,60,92160,480
67,53,95280,240
69,54,95520,240
71,55,95760,240
72,60,96000,360
74,57,96360,60
72,57,96420,60
71,57,96480,220
72,53,96720,240
74,56,96960,240
76,59,97200,240
77,64,97440,360
79,60,97800,60
77,60,97860,60
76,60,97920,220
81,68,98160,240
74,60,98400,220
79,66,98640,360
81,66,99000,120
79,64,99120,120
77,63,99240,120
76,61,99360,220
81,67,99600,240
74,60,99840,220
82,67,100080,240
81,67,100320,240
79,64,100560,120
77,61,100680,120
79,64,100800,120
77,61,100920,120
79,64,101040,120
76,60,101160,120
77,64,101280,120
79,60,101400,120
79,64,101520,30
81,55,101550,30
79,55,101580,30
77,60,101640,60
79,60,101700,60
81,67,101760,90
73,60,101880,120
74,60,102000,120
79,60,102120,120
76,64,102240,45
77,55,102285,45
76,60,102330,270
74,60,102600,120
74,61,102720,240
67,51,105360,240
69,53,105600,240
71,55,105840,240
72,60,106080,360
74,58,106440,60
72,58,106500,60
71,58,106560,220
76,60,106800,240
69,57,107040,220
74,60,107280,360
76,60,107640,120
74,57,107760,120
72,56,107880,120
71,55,108000,120
72,55,108120,120
74,57,108240,120
76,59,108360,120
77,61,108480,120
79,61,108600,120
81,61,108720,120
79,60,108840,120
77,60,108960,120
76,59,109080,120
74,59,109200,120
72,58,109320,120
71,58,109440,480
72,57,109920,240
74,57,110160,240
67,58,110400,220
72,60,110640,480
71,57,111120,240
72,60,111360,480
71,67,111840,240
70,67,112080,240
69,66,112320,240
74,72,112560,480
72,67,113040,240
74,67,113280,240
76,70,113520,240
77,74,113760,600
81,69,114360,120
79,69,114480,120
77,68,114600,120
76,67,114720,120
77,69,114840,120
76,68,114960,120
74,67,115080,120
72,70,115200,960
67,56,116280,60
69,57,116340,60
71,57,116400,120
72,59,116520,120
74,60,116640,120
76,62,116760,120
77,63,116880,300
72,55,117180,60
74,57,117240,60
76,58,117300,60
77,59,117360,120
79,62,117480,120
81,65,117600,360
83,64,117960,120
79,52,118080,960
84,56,118080,960
60,53,67440,240
62,54,67680,240
64,56,67920,240
65,60,68160,360
67,58,68520,60
65,58,68580,60
64,60,68640,220
69,60,68880,240
62,56,69120,220
67,60,69360,360
69,59,69720,120
67,59,69840,120
65,59,69960,120
64,58,70080,120
65,58,70200,120
64,58,70320,120
62,57,70440,120
60,57,70560,120
62,56,70680,120
60,56,70800,120
59,56,70920,120
57,56,71040,240
66,56,71280,240
67,60,71520,720
66,57,72240,120
64,57,72360,120
66,57,72480,220
62,57,72720,240
67,59,72960,240
65,58,73200,240
64,57,73440,240
62,56,73680,240
60,55,73920,240
67,60,74640,480
65,58,75120,120
64,58,75240,120
65,58,75360,600
65,57,75960,120
64,57,76080,240
62,57,76320,480
60,56,76800,240
65,60,77040,240
67,57,77400,120
65,57,77520,120
64,57,77640,120
65,57,77760,220
62,56,78000,240
67,62,78240,960
67,51,82800,240
69,53,83040,240
71,56,83280,240
72,60,83520,360
74,57,83880,60
72,57,83940,60
71,57,84000,220
76,60,84240,240
69,56,84480,220
74,60,84720,360
76,57,85080,120
74,56,85200,120
72,55,85320,120
71,54,85440,240
62,51,86160,240
64,52,86400,240
66,54,86640,240
67,60,86880,360
69,58,87240,60
67,58,87300,60
66,58,87360,220
71,60,87600,240
64,57,87840,220
69,60,88080,360
71,58,88440,120
69,58,88560,120
67,58,88680,120
66,58,88800,240
65,57,89040,240
64,55,89280,240
62,54,89520,360
64,54,89880,120
66,55,90000,120
68,55,90120,120
69,57,90240,120
68,56,90360,120
69,56,90480,120
71,56,90600,120
68,58,90720,120
66,55,90840,120
68,55,90960,120
69,55,91080,120
71,59,91200,240
60,53,92400,240
62,54,92640,240
64,55,92880,240
65,60,93120,360
67,58,93480,60
65,58,93540,60
64,58,93600,220
69,60,93840,240
62,56,94080,220
67,60,94320,360
69,57,94680,120
67,57,94800,120
65,57,94920,120
64,57,95040,220
64,56,95280,240
66,56,95520,240
67,60,95760,420
66,58,96240,240
68,58,96480,240
69,61,96720,480
67,57,97200,240
69,57,97440,240
71,57,97680,240
72,60,97920,360
74,58,98280,60
72,58,98340,60
71,58,98400,220
76,60,98640,240
69,58,98880,220
74,60,99120,360
76,57,99480,120
74,56,99600,120
72,55,99720,120
71,54,99840,220
79,65,100080,240
73,58,100320,240
74,58,100560,240
76,60,100800,220
73,56,101040,240
74,56,101280,240
76,56,101520,240
69,58,101760,240
64,52,102480,240
66,53,102720,240
67,55,102960,240
69,60,103200,360
71,58,103560,60
69,58,103620,60
67,58,103680,220
72,60,103920,240
66,55,104160,118
71,60,104400,360
72,57,104760,120
71,57,104880,120
69,56,105000,120
67,56,105120,120
66,55,105240,120
64,54,105360,120
62,54,105480,120
64,57,105600,480
62,58,106080,600
69,57,106680,120
67,57,106800,120
65,56,106920,120
64,56,107040,120
67,60,107160,120
65,56,107280,120
69,56,107400,120
67,58,107520,600
69,56,108120,120
70,56,108240,240
72,54,108480,480
74,60,108960,220
67,57,109200,240
67,60,109440,720
65,57,110160,480
64,57,110640,240
62,57,110880,480
64,56,111360,220
69,68,111600,480
67,56,112080,480
65,56,112560,240
67,57,112800,240
69,57,113040,240
70,60,113280,360
72,57,113640,60
70,57,113700,60
69,57,113760,220
74,60,114000,240
67,55,114240,220
72,60,114480,360
74,62,114840,120
72,62,114960,120
70,62,115080,120
69,61,115200,120
70,61,115320,120
69,61,115440,120
67,60,115560,120
65,60,115680,120
67,60,115800,120
65,59,115920,120
64,59,116040,120
62,59,116160,840
67,57,117000,120
69,60,117120,480
77,57,117720,120
74,57,117840,240
76,48,118080,960
55,50,73200,240
57,52,73440,240
59,55,73680,240
60,60,73920,360
62,57,74280,60
60,57,74340,60
59,57,74400,220
64,60,74640,240
57,56,74880,220
62,60,75120,360
64,58,75480,120
62,57,75600,120
60,56,75720,120
59,55,75840,220
60,60,76080,480
58,58,76560,240
57,56,76800,220
62,60,77040,240
55,56,77280,220
60,60,77520,240
57,55,77880,120
59,56,78000,120
60,58,78120,120
62,59,78240,480
55,60,78720,480
55,53,79440,240
57,54,79680,240
59,55,79920,240
60,60,80160,360
62,58,80520,60
60,58,80580,60
59,58,80640,220
64,60,80880,240
57,56,81120,220
62,60,81360,360
64,57,81720,120
62,56,81840,120
60,56,81960,120
59,55,82080,240
64,60,82320,720
62,60,83040,480
59,58,83640,120
60,60,83760,120
57,57,83880,90
64,58,84000,120
62,58,84120,120
60,57,84240,120
59,57,84360,120
60,60,84480,90
57,54,84600,120
59,56,84720,120
60,58,84840,120
62,60,84960,120
60,59,85080,120
59,58,85200,120
57,57,85320,120
55,56,85440,480
52,52,88560,240
54,54,88800,240
56,56,89040,240
57,60,89280,360
59,57,89640,60
57,57,89700,60
56,57,89760,220
60,60,90000,240
54,56,90240,220
59,60,90480,360
60,60,90840,120
59,59,90960,120
57,57,91080,120
56,56,91200,220
57,59,91440,480
56,57,91920,240
57,60,92160,480
55,52,92880,240
57,54,93120,240
59,56,93360,240
60,60,93600,360
62,57,93960,60
60,57,94020,60
59,57,94080,220
64,60,94320,240
57,55,94560,220
62,60,94800,480
55,57,95280,240
62,60,95520,480
60,57,96000,220
57,57,96240,240
64,60,96480,480
62,57,96960,240
57,51,98160,240
59,53,98400,240
61,55,98640,240
62,60,98880,360
64,58,99240,60
62,58,99300,60
60,58,99360,220
65,60,99600,240
59,54,99840,220
64,60,100080,360
65,61,100440,120
64,59,100560,120
62,58,100680,120
61,56,100800,240
57,53,102000,240
59,54,102240,240
61,55,102480,240
62,60,102720,360
64,57,103080,60
62,57,103140,60
60,57,103200,220
66,60,103440,240
59,54,103680,220
64,60,103920,360
66,63,104280,120
64,63,104400,120
62,62,104520,120
60,60,104640,1080
62,60,105720,120
60,59,105840,120
59,58,105960,120
57,57,106080,120
55,56,106200,120
57,58,106320,90
54,54,106440,120
55,54,106560,220
59,57,106800,240
60,60,107040,240
62,63,107280,240
64,66,107520,360
65,60,107880,60
64,60,107940,60
62,60,108000,220
67,65,108240,240
60,58,108480,220
65,66,108720,360
67,62,109080,120
65,60,109200,120
64,58,109320,120
62,57,109440,480
64,60,109920,240
62,60,110160,480
55,58,110640,240
55,61,110880,700
48,51,111600,240
50,53,111840,240
52,55,112080,240
53,60,112320,360
55,56,112680,60
53,56,112740,60
52,57,112800,220
57,60,113040,240
50,55,113280,220
55,60,113520,360
57,58,113880,120
55,58,114000,120
53,57,114120,120
52,57,114240,90
50,56,114360,120
52,56,114480,120
53,56,114600,120
55,57,114720,120
57,59,114840,120
58,63,114960,90
55,60,115080,120
57,60,115200,90
52,63,115320,120
53,55,115440,120
55,57,115560,120
57,59,115680,120
59,60,115800,120
60,62,115920,90
57,58,116040,120
59,62,116160,960
60,60,117120,1920
48,51,76080,240
50,53,76320,240
52,56,76560,240
53,60,76800,360
55,57,77160,60
53,57,77220,60
52,57,77280,220
57,60,77520,240
50,55,77760,220
55,60,78000,360
57,59,78360,120
55,58,78480,120
53,57,78600,120
52,56,78720,90
53,57,78840,120
52,56,78960,120
50,55,79080,120
48,54,79200,90
50,57,79320,120
48,56,79440,120
47,55,79560,120
45,54,79680,220
50,57,79920,240
57,60,80160,240
54,57,80400,240
55,58,80640,120
57,58,80760,120
58,60,80880,120
55,58,81000,120
49,56,81120,240
50,57,81360,240
57,58,81600,480
52,56,82080,480
57,56,82560,120
59,57,82680,120
60,58,82800,120
62,59,82920,120
60,60,83040,120
59,57,83160,120
57,56,83280,120
55,55,83400,120
60,60,83520,240
43,54,85680,240
45,55,85920,240
47,55,86160,240
48,60,86400,360
50,58,86760,60
48,58,86820,60
47,58,86880,220
52,60,87120,240
45,55,87360,220
50,60,87600,360
52,60,87960,120
50,58,88080,120
48,57,88200,120
47,55,88320,240
50,58,89040,240
48,58,89280,240
53,60,89520,480
52,58,90000,480
50,57,90480,480
52,57,90960,240
53,60,91200,240
52,55,91440,120
50,55,91560,120
52,58,91680,480
45,61,92160,480
43,52,94320,240
45,53,94560,240
47,55,94800,240
48,60,95040,360
50,57,95400,60
48,57,95460,60
47,57,95520,220
52,60,95760,240
45,56,96000,220
50,60,96240,360
52,61,96600,120
50,60,96720,120
48,59,96840,120
47,58,96960,220
46,57,97200,240
45,57,97440,240
43,56,97680,240
45,56,97920,180
54,60,98160,240
55,60,98400,240
52,57,98640,240
50,57,98880,460
52,56,99360,240
53,56,99600,240
55,60,99840,360
57,57,100200,60
55,57,100260,60
53,57,100320,220
58,60,100560,240
52,55,100800,220
57,60,101040,360
58,58,101400,120
57,58,101520,120
55,57,101640,120
53,58,101760,120
52,55,101880,120
53,58,102000,90
50,55,102120,120
55,59,102240,240
57,59,102480,240
50,56,102720,1080
52,57,103800,120
50,57,103920,120
48,56,104040,120
47,56,104160,120
45,55,104280,120
43,55,104400,120
42,54,104520,120
40,54,104640,220
52,52,104880,240
54,54,105120,240
55,56,105360,480
57,60,105840,120
55,58,105960,120
54,60,106080,220
50,57,106320,240
55,59,106560,1920
57,52,108480,480
59,57,108960,240
60,57,109200,240
53,58,109440,90
57,60,109560,120
55,59,109680,120
53,58,109800,120
52,57,109920,120
50,56,110040,120
48,56,110160,120
47,55,110280,120
48,51,110400,120
50,53,110520,120
52,56,110640,120
53,58,110760,120
43,57,111120,240
48,60,111360,7680
