note,velocity,position,duration
58,42,1440,120
62,50,1440,480
57,40,1560,120
58,45,1680,120
53,39,1800,120
62,35,1920,90
65,42,1920,90
58,32,2400,90
62,38,2400,90
58,42,3360,120
62,50,3360,480
57,40,3480,120
58,45,3600,120
53,39,3720,120
62,35,3840,90
65,42,3840,90
58,32,4320,90
62,38,4320,90
62,50,5280,240
58,42,5280,132
57,40,5400,132
58,46,5520,132
53,40,5640,120
65,53,5760,240
62,44,5760,132
61,42,5880,132
62,49,6000,132
58,42,6120,120
65,47,6240,132
70,56,6240,240
64,45,6360,132
65,51,6480,132
62,45,6600,120
70,49,6720,132
74,59,6720,240
69,47,6840,132
70,54,6960,132
65,47,7080,120
74,52,7200,132
77,62,7200,240
73,50,7320,132
74,57,7440,132
70,49,7560,120
82,72,7680,1440
81,60,9120,120
82,57,9240,120
84,60,9360,120
82,54,9480,120
81,60,9600,240
79,51,9840,240
77,54,10080,240
75,50,10320,240
74,59,10560,240
72,48,10800,240
79,56,11040,240
77,47,11280,240
75,54,11520,480
74,47,12000,480
69,58,12960,120
70,54,13080,120
72,58,13200,120
70,54,13320,120
68,60,13440,240
67,54,13680,240
65,66,13920,240
63,61,14160,240
62,69,14400,240
60,62,14640,240
63,73,14880,240
57,63,15120,240
58,79,15360,120
62,68,15600,120
60,65,15720,120
58,71,15840,120
57,65,15960,120
58,71,16080,120
55,65,16200,120
53,79,16320,120
67,68,16560,120
65,65,16680,120
63,71,16800,120
62,65,16920,120
63,71,17040,120
60,65,17160,120
58,79,17280,120
74,68,17520,120
72,65,17640,120
70,71,17760,120
69,65,17880,120
70,71,18000,120
67,65,18120,120
65,79,18240,120
79,78,18480,120
77,74,18600,120
75,81,18720,120
74,74,18840,120
75,81,18960,120
72,74,19080,120
70,90,19200,120
72,68,19440,120
74,68,19560,120
75,77,19680,120
77,70,19800,120
79,70,19920,120
81,71,20040,120
82,73,20160,30
84,65,20190,30
82,81,20220,60
81,72,20280,120
82,73,20400,120
84,74,20520,120
86,74,20640,30
87,66,20670,30
86,83,20700,120
84,75,20760,120
86,76,20880,120
88,76,21000,120
89,92,21120,120
65,79,21600,120
77,75,25920,1920
71,56,27360,480
72,44,27840,480
75,53,27840,480
69,41,28320,480
74,49,28320,960
70,55,28800,480
67,41,29280,480
72,49,29280,960
69,55,29760,480
65,42,30240,480
71,50,30240,480
72,68,30720,120
64,34,30840,120
67,40,30840,120
72,62,30960,120
64,33,31080,120
67,39,31080,120
72,64,31200,120
64,34,31320,120
67,41,31320,120
74,68,31440,120
64,34,31560,120
67,40,31560,120
76,62,31680,120
67,38,31800,120
70,45,31800,120
72,68,31920,120
67,38,32040,120
70,45,32040,120
74,68,32160,120
67,38,32280,120
70,45,32280,120
76,70,32400,120
67,38,32520,120
70,45,32520,120
77,68,32640,120
65,34,32760,120
69,40,32760,120
77,62,32880,120
65,33,33000,120
69,39,33000,120
77,64,33120,120
65,34,33240,120
69,41,33240,120
76,68,33360,120
65,34,33480,120
69,40,33480,120
74,62,33600,120
65,38,33720,120
68,45,33720,120
72,68,33840,120
65,38,33960,120
68,45,33960,120
71,68,34080,120
65,38,34200,120
68,45,34200,120
74,70,34320,120
65,38,34440,120
68,45,34440,120
72,68,34560,120
64,34,34680,120
67,40,34680,120
71,62,34800,120
64,33,34920,120
67,39,34920,120
72,64,35040,120
64,34,35160,120
67,41,35160,120
74,68,35280,120
64,34,35400,120
67,40,35400,120
76,62,35520,120
67,38,35640,120
70,45,35640,120
72,68,35760,120
67,38,35880,120
70,45,35880,120
74,68,36000,120
67,38,36120,120
70,45,36120,120
76,70,36240,120
67,38,36360,120
70,45,36360,120
77,68,36480,120
65,34,36600,120
69,40,36600,120
77,62,36720,120
65,33,36840,120
69,39,36840,120
77,64,36960,120
65,34,37080,120
69,41,37080,120
76,68,37200,120
65,34,37320,120
69,40,37320,120
74,62,37440,120
65,38,37560,120
68,45,37560,120
72,68,37680,120
65,38,37800,120
68,45,37800,120
71,68,37920,120
65,38,38040,120
68,45,38040,120
74,70,38160,120
65,38,38280,120
68,45,38280,120
72,78,38400,120
64,38,38520,120
67,45,38520,120
72,68,38640,120
64,38,38760,120
67,45,38760,120
71,68,38880,120
65,38,39000,120
68,45,39000,120
74,70,39120,120
65,38,39240,120
68,45,39240,120
72,76,39360,120
64,38,39480,120
67,45,39480,120
72,68,39600,120
64,38,39720,120
67,45,39720,120
71,68,39840,120
65,38,39960,120
68,45,39960,120
74,70,40080,120
65,38,40200,120
68,45,40200,120
64,59,40320,120
67,59,40320,120
72,70,40320,120
60,35,40440,132
62,40,40560,132
64,35,40680,132
65,40,40800,132
67,35,40920,132
69,40,41040,132
71,33,41160,132
72,40,41280,132
71,33,41400,132
72,40,41520,132
71,33,41640,132
72,40,41760,132
71,34,41880,132
72,40,42000,132
71,33,42120,120
69,38,42240,960
72,43,42240,960
69,49,43200,480
77,47,43680,480
69,41,44160,480
72,49,44160,480
81,43,44640,480
77,36,44640,480
69,42,45120,480
72,50,45120,480
84,43,45600,480
81,36,45600,480
69,38,46080,960
72,43,46080,960
69,49,47040,480
77,46,47520,480
69,41,48000,480
72,49,48000,480
81,43,48480,480
77,36,48480,480
69,42,48960,480
72,50,48960,480
84,43,49440,480
81,36,49440,480
69,41,49920,960
72,41,49920,960
74,49,49920,960
78,49,49920,960
78,70,52320,480
81,68,52800,480
84,66,53280,960
78,72,53760,960
82,73,54240,1920
79,75,54720,1440
73,66,55200,480
72,74,55680,960
81,67,56160,480
77,57,56160,480
70,61,56640,480
74,61,56640,480
79,72,56640,480
67,53,57120,480
70,53,57120,480
76,64,57120,480
65,64,57600,240
69,64,57600,240
77,77,57600,240
65,73,58560,950
69,88,58560,960
62,57,59520,470
65,68,59520,480
58,59,60000,240
62,70,60000,240
67,73,60480,720
70,88,60480,720
65,57,61200,240
69,68,61200,240
67,77,61440,480
64,64,61440,470
60,57,61920,240
64,68,61920,240
69,73,62400,950
72,88,62400,960
65,57,63360,470
69,68,63360,480
62,59,63840,240
65,70,63840,240
70,73,64320,720
74,88,64320,720
69,57,65040,240
72,68,65040,240
70,77,65280,480
67,64,65280,470
64,57,65760,240
67,68,65760,240
70,73,66240,720
79,88,66240,720
69,57,66960,240
77,68,66960,240
67,73,67200,720
76,88,67200,720
65,57,67920,240
74,68,67920,240
64,51,68160,480
72,60,68160,480
58,44,68640,480
70,52,68640,480
57,49,69120,480
69,58,69120,480
61,39,69600,480
67,46,69600,480
62,45,70080,480
65,53,70080,480
53,40,70560,480
55,40,70560,480
62,48,70560,480
53,32,71520,240
57,32,71520,240
60,38,71520,240
48,31,72480,240
52,31,72480,240
55,31,72480,240
60,37,72480,240
57,35,73440,450
53,29,73440,450
48,29,73440,450
65,55,74160,480
69,66,74160,480
65,43,74640,120
69,51,74640,120
62,41,75120,120
65,49,75120,120
58,38,75600,120
62,45,75600,120
67,60,76080,480
70,73,76080,480
65,43,76560,120
69,51,76560,120
64,41,77040,120
67,49,77040,120
60,38,77520,120
64,45,77520,120
69,60,78000,480
72,72,78000,480
69,47,78480,120
72,56,78480,120
65,45,78960,120
69,53,78960,120
62,41,79440,120
65,49,79440,120
70,68,79920,480
74,84,79920,480
69,49,80400,120
72,58,80400,120
67,47,80880,120
70,55,80880,120
64,43,81360,120
67,51,81360,120
70,79,81840,480
79,96,81840,480
69,56,82320,120
77,67,82320,120
67,79,82800,480
76,96,82800,480
65,56,83280,120
74,67,83280,120
64,44,83760,120
72,52,83760,120
58,39,84240,120
70,46,84240,120
69,54,84480,120
57,46,84600,120
61,43,84720,120
64,43,84840,120
69,53,84960,120
73,42,85080,120
76,42,85200,120
80,42,85320,120
81,49,85440,120
80,39,85560,120
81,42,85680,120
80,38,85800,120
81,48,85920,120
76,38,86040,120
73,38,86160,120
69,38,86280,120
57,46,86520,120
62,43,86640,120
65,43,86760,120
69,53,86880,120
74,42,87000,120
77,42,87120,120
80,42,87240,120
81,49,87360,120
80,39,87480,120
81,42,87600,120
80,38,87720,120
81,48,87840,120
77,38,87960,120
74,38,88080,120
69,38,88200,120
56,46,88440,120
59,43,88560,120
62,43,88680,120
65,50,88800,120
68,42,88920,120
71,42,89040,120
74,42,89160,120
77,49,89280,120
74,41,89400,120
80,48,89520,120
77,41,89640,120
74,48,89760,120
71,45,89880,120
68,42,90000,120
65,39,90120,120
64,48,90360,120
67,50,90480,120
70,51,90600,120
73,53,90720,120
76,55,90840,120
79,57,90960,120
82,59,91080,120
85,65,91200,120
88,57,91320,120
76,64,91440,120
88,56,91560,120
76,64,91680,120
88,58,91800,120
76,64,91920,120
88,59,92040,120
77,74,92160,120
89,59,92280,120
76,67,92400,120
88,54,92520,120
77,66,92640,120
89,57,92760,120
70,59,92880,120
82,50,93000,120
69,79,93120,120
81,54,93240,120
76,65,93360,120
88,57,93480,120
77,68,93600,120
89,60,93720,120
70,67,93840,120
82,58,93960,120
69,81,94080,120
81,58,94200,120
76,64,94320,120
88,59,94440,120
77,67,94560,120
89,55,94680,120
70,62,94800,120
82,51,94920,120
69,72,95040,120
81,52,95160,120
76,64,95280,120
88,54,95400,120
77,64,95520,120
89,51,95640,120
70,60,95760,120
82,51,95880,120
69,83,96000,120
81,53,96120,120
67,62,96240,120
79,54,96360,120
65,62,96480,120
77,54,96600,120
64,62,96720,120
76,53,96840,120
62,81,96960,120
74,53,97080,120
60,60,97200,120
72,52,97320,120
58,59,97440,120
70,52,97560,120
57,59,97680,120
69,50,97800,120
55,79,97920,120
67,50,98040,120
53,59,98160,120
65,49,98280,120
52,59,98400,120
64,49,98520,120
50,59,98640,120
62,51,98760,120
48,79,98880,120
60,49,99000,120
46,59,99120,120
58,50,99240,120
45,59,99360,120
57,48,99480,120
43,58,99600,120
55,49,99720,120
53,76,99840,120
41,64,99840,120
52,49,100080,120
60,42,100200,120
53,49,100320,120
60,41,100440,120
58,49,100560,120
60,42,100680,120
57,49,100800,120
60,41,100920,120
52,49,101040,120
60,42,101160,120
53,49,101280,120
60,43,101400,120
58,49,101520,120
60,40,101640,120
57,49,101760,120
60,41,101880,120
52,49,102000,120
60,42,102120,120
53,49,102240,120
60,43,102360,120
58,49,102480,120
60,40,102600,120
57,56,102720,120
60,45,102840,120
49,60,102960,120
61,52,103080,120
50,61,103200,120
62,49,103320,120
52,67,103440,120
64,60,103560,120
53,71,103680,120
65,62,103800,120
54,70,103920,120
66,64,104040,120
55,70,104160,120
67,64,104280,120
57,74,104400,120
69,65,104520,120
58,82,104640,120
70,71,104760,120
60,79,104880,120
72,70,105000,120
62,83,105120,120
74,72,105240,120
60,81,105360,120
72,69,105480,120
58,84,105600,120
70,69,105720,120
57,81,105840,120
69,69,105960,120
55,79,106080,120
67,69,106200,120
53,78,106320,120
65,65,106440,120
52,79,106560,120
64,69,106680,120
50,77,106800,120
62,65,106920,120
48,77,107040,120
60,67,107160,120
52,75,107280,120
64,66,107400,120
65,79,107520,480
53,79,107520,480
60,40,108480,960
57,34,108480,960
53,39,109200,240
61,46,109440,960
58,39,109440,960
56,40,110160,240
60,32,110400,480
58,32,110400,480
54,45,110400,240
53,40,110640,240
60,33,110880,480
58,33,110880,480
54,46,110880,240
52,40,111120,240
60,46,111360,720
57,39,111360,720
53,39,111360,720
69,52,112320,720
60,52,112320,960
57,44,112320,960
65,50,113040,240
70,52,113280,720
61,59,113280,960
58,50,113280,960
68,52,114000,240
61,41,114240,480
58,41,114240,480
66,58,114240,240
65,52,114480,240
61,42,114720,480
58,42,114720,480
66,59,114720,240
64,52,114960,240
65,59,115200,720
60,50,115200,720
57,50,115200,720
61,37,116160,480
58,37,116160,480
67,53,116160,240
65,46,116400,240
61,36,116640,480
58,36,116640,480
67,51,116640,240
64,44,116880,240
65,49,117120,720
60,42,117120,720
57,42,117120,720
61,30,118080,480
58,30,118080,480
66,43,118080,240
65,39,118320,240
61,31,118560,480
58,31,118560,480
66,44,118560,240
64,39,118800,240
53,74,119040,720
65,88,119040,720
55,67,119760,120
67,79,119760,120
57,74,120000,720
69,89,120000,720
58,68,120720,120
70,81,120720,120
60,77,120960,720
72,91,120960,720
62,62,121680,120
74,74,121680,120
64,71,121920,120
76,84,121920,120
65,68,122160,120
77,81,122160,120
67,74,122400,120
79,87,122400,120
69,69,122640,120
81,83,122640,120
70,81,122880,720
82,96,122880,720
69,71,123600,120
81,84,123600,120
67,78,123840,720
79,94,123840,720
65,70,124560,120
77,83,124560,120
64,78,124800,720
76,92,124800,720
62,62,125520,120
74,74,125520,120
60,70,125760,120
72,83,125760,120
58,66,126000,120
70,78,126000,120
57,70,126240,120
69,83,126240,120
55,64,126480,120
67,77,126480,120
53,78,126720,120
65,90,126720,120
64,53,127200,120
63,45,127320,120
64,53,127440,120
60,43,127560,120
65,57,127680,120
76,53,128160,120
75,45,128280,120
76,53,128400,120
72,43,128520,120
77,57,128640,120
88,91,129600,480
84,77,129600,480
82,77,129600,480
79,77,129600,480
76,77,129600,480
89,97,130560,480
84,82,130560,480
81,82,130560,480
77,82,130560,480
58,42,132000,120
62,50,132000,480
57,40,132120,120
58,45,132240,120
53,39,132360,120
62,35,132480,90
65,42,132480,90
58,32,132960,90
62,38,132960,90
58,42,133920,120
62,50,133920,480
57,40,134040,120
58,45,134160,120
53,39,134280,120
62,35,134400,90
65,42,134400,90
58,32,134880,90
62,38,134880,90
62,50,135840,240
58,42,135840,132
57,40,135960,132
58,46,136080,132
53,40,136200,120
65,53,136320,240
62,44,136320,132
61,42,136440,132
62,49,136560,132
58,42,136680,120
65,47,136800,132
70,56,136800,240
64,45,136920,132
65,51,137040,132
62,45,137160,120
70,49,137280,132
74,59,137280,240
69,47,137400,132
70,54,137520,132
65,47,137640,120
74,52,137760,132
77,62,137760,240
73,50,137880,132
74,57,138000,132
70,49,138120,120
82,72,138240,1440
81,60,139680,120
82,57,139800,120
84,60,139920,120
82,54,140040,120
81,60,140160,240
79,51,140400,240
77,54,140640,240
75,50,140880,240
74,59,141120,240
72,48,141360,240
79,56,141600,240
77,47,141840,240
75,54,142080,480
74,47,142560,480
69,58,143520,120
70,54,143640,120
72,58,143760,120
70,54,143880,120
68,60,144000,240
67,54,144240,240
65,66,144480,240
63,61,144720,240
62,69,144960,240
60,62,145200,240
63,73,145440,240
57,63,145680,240
58,79,145920,120
62,68,146160,120
60,65,146280,120
58,71,146400,120
57,65,146520,120
58,71,146640,120
55,65,146760,120
53,79,146880,120
67,68,147120,120
65,65,147240,120
63,71,147360,120
62,65,147480,120
63,71,147600,120
60,65,147720,120
58,79,147840,120
74,68,148080,120
72,65,148200,120
70,71,148320,120
69,65,148440,120
70,71,148560,120
67,65,148680,120
65,79,148800,120
79,78,149040,120
77,74,149160,120
75,81,149280,120
74,74,149400,120
75,81,149520,120
72,74,149640,120
70,90,149760,120
72,68,150000,120
74,68,150120,120
75,77,150240,120
77,70,150360,120
79,70,150480,120
81,71,150600,120
82,73,150720,30
84,65,150750,30
82,81,150780,60
81,72,150840,120
82,73,150960,120
84,74,151080,120
86,74,151200,30
87,66,151230,30
86,83,151260,120
84,75,151320,120
86,76,151440,120
88,76,151560,120
89,97,151680,120
65,79,152160,120
77,75,156480,1920
71,56,157920,480
72,44,158400,480
75,53,158400,480
69,41,158880,480
74,49,158880,960
70,55,159360,480
67,41,159840,480
72,49,159840,960
69,55,160320,480
65,42,160800,480
71,50,160800,480
72,68,161280,120
64,34,161400,120
67,40,161400,120
72,62,161520,120
64,33,161640,120
67,39,161640,120
72,64,161760,120
64,34,161880,120
67,41,161880,120
74,68,162000,120
64,34,162120,120
67,40,162120,120
76,62,162240,120
67,38,162360,120
70,45,162360,120
72,68,162480,120
67,38,162600,120
70,45,162600,120
74,68,162720,120
67,38,162840,120
70,45,162840,120
76,70,162960,120
67,38,163080,120
70,45,163080,120
77,68,163200,120
65,34,163320,120
69,40,163320,120
77,62,163440,120
65,33,163560,120
69,39,163560,120
77,64,163680,120
65,34,163800,120
69,41,163800,120
76,68,163920,120
65,34,164040,120
69,40,164040,120
74,62,164160,120
65,38,164280,120
68,45,164280,120
72,68,164400,120
65,38,164520,120
68,45,164520,120
71,68,164640,120
65,38,164760,120
68,45,164760,120
74,70,164880,120
65,38,165000,120
68,45,165000,120
72,68,165120,120
64,34,165240,120
67,40,165240,120
71,62,165360,120
64,33,165480,120
67,39,165480,120
72,64,165600,120
64,34,165720,120
67,41,165720,120
74,68,165840,120
64,34,165960,120
67,40,165960,120
76,62,166080,120
67,38,166200,120
70,45,166200,120
72,68,166320,120
67,38,166440,120
70,45,166440,120
74,68,166560,120
67,38,166680,120
70,45,166680,120
76,70,166800,120
67,38,166920,120
70,45,166920,120
77,68,167040,120
65,34,167160,120
69,40,167160,120
77,62,167280,120
65,33,167400,120
69,39,167400,120
77,64,167520,120
65,34,167640,120
69,41,167640,120
76,68,167760,120
65,34,167880,120
69,40,167880,120
74,62,168000,120
65,38,168120,120
68,45,168120,120
72,68,168240,120
65,38,168360,120
68,45,168360,120
71,68,168480,120
65,38,168600,120
68,45,168600,120
74,70,168720,120
65,38,168840,120
68,45,168840,120
72,78,168960,120
64,38,169080,120
67,45,169080,120
72,68,169200,120
64,38,169320,120
67,45,169320,120
71,68,169440,120
65,38,169560,120
68,45,169560,120
74,70,169680,120
65,38,169800,120
68,45,169800,120
72,76,169920,120
64,38,170040,120
67,45,170040,120
72,68,170160,120
64,38,170280,120
67,45,170280,120
71,68,170400,120
65,38,170520,120
68,45,170520,120
74,70,170640,120
65,38,170760,120
68,45,170760,120
64,59,170880,120
67,59,170880,120
72,70,170880,120
60,35,171000,132
62,40,171120,132
64,35,171240,132
65,40,171360,132
67,35,171480,132
69,40,171600,132
71,33,171720,132
72,40,171840,132
71,33,171960,132
72,40,172080,132
71,33,172200,132
72,40,172320,132
71,34,172440,132
72,40,172560,132
71,33,172680,120
69,38,172800,960
72,43,172800,960
69,49,173760,480
77,47,174240,480
69,41,174720,480
72,49,174720,480
81,43,175200,480
77,36,175200,480
69,42,175680,480
72,50,175680,480
84,43,176160,480
81,36,176160,480
69,38,176640,960
72,43,176640,960
69,49,177600,480
77,46,178080,480
69,41,178560,480
72,49,178560,480
81,43,179040,480
77,36,179040,480
69,42,179520,480
72,50,179520,480
84,43,180000,480
81,36,180000,480
69,41,180480,960
72,41,180480,960
74,49,180480,960
78,49,180480,960
78,70,182880,480
81,68,183360,480
84,66,183840,960
78,72,184320,960
82,73,184800,1920
79,75,185280,1440
73,66,185760,480
72,74,186240,960
81,67,186720,480
77,57,186720,480
70,61,187200,480
74,61,187200,480
79,72,187200,480
67,53,187680,480
70,53,187680,480
76,64,187680,480
65,64,188160,240
69,64,188160,240
77,77,188160,240
65,73,189120,950
69,88,189120,960
62,57,190080,470
65,68,190080,480
58,59,190560,240
62,70,190560,240
67,73,191040,720
70,88,191040,720
65,57,191760,240
69,68,191760,240
67,77,192000,480
64,64,192000,470
60,57,192480,240
64,68,192480,240
69,73,192960,950
72,88,192960,960
65,57,193920,470
69,68,193920,480
62,59,194400,240
65,70,194400,240
70,73,194880,720
74,88,194880,720
69,57,195600,240
72,68,195600,240
70,77,195840,480
67,64,195840,470
64,57,196320,240
67,68,196320,240
70,73,196800,720
79,88,196800,720
69,57,197520,240
77,68,197520,240
67,73,197760,720
76,88,197760,720
65,57,198480,240
74,68,198480,240
64,51,198720,480
72,60,198720,480
58,44,199200,480
70,52,199200,480
57,49,199680,480
69,58,199680,480
61,39,200160,480
67,46,200160,480
62,45,200640,480
65,53,200640,480
53,40,201120,480
55,40,201120,480
62,48,201120,480
53,32,202080,240
57,32,202080,240
60,38,202080,240
48,31,203040,240
52,31,203040,240
55,31,203040,240
60,37,203040,240
57,35,204000,450
53,29,204000,450
48,29,204000,450
65,55,204720,480
69,66,204720,480
65,43,205200,120
69,51,205200,120
62,41,205680,120
65,49,205680,120
58,38,206160,120
62,45,206160,120
67,60,206640,480
70,73,206640,480
65,43,207120,120
69,51,207120,120
64,41,207600,120
67,49,207600,120
60,38,208080,120
64,45,208080,120
69,60,208560,480
72,72,208560,480
69,47,209040,120
72,56,209040,120
65,45,209520,120
69,53,209520,120
62,41,210000,120
65,49,210000,120
70,68,210480,480
74,84,210480,480
69,49,210960,120
72,58,210960,120
67,47,211440,120
70,55,211440,120
64,43,211920,120
67,51,211920,120
70,79,212400,480
79,96,212400,480
69,56,212880,120
77,67,212880,120
67,79,213360,480
76,96,213360,480
65,56,213840,120
74,67,213840,120
64,44,214320,120
72,52,214320,120
58,39,214800,120
70,46,214800,120
69,54,215040,120
57,46,215160,120
61,43,215280,120
64,43,215400,120
69,53,215520,120
73,42,215640,120
76,42,215760,120
80,42,215880,120
81,49,216000,120
80,39,216120,120
81,42,216240,120
80,38,216360,120
81,48,216480,120
76,38,216600,120
73,38,216720,120
69,38,216840,120
57,46,217080,120
62,43,217200,120
65,43,217320,120
69,53,217440,120
74,42,217560,120
77,42,217680,120
80,42,217800,120
81,49,217920,120
80,39,218040,120
81,42,218160,120
80,38,218280,120
81,48,218400,120
77,38,218520,120
74,38,218640,120
69,38,218760,120
56,46,219000,120
59,43,219120,120
62,43,219240,120
65,50,219360,120
68,42,219480,120
71,42,219600,120
74,42,219720,120
77,49,219840,120
74,41,219960,120
80,48,220080,120
77,41,220200,120
74,48,220320,120
71,45,220440,120
68,42,220560,120
65,39,220680,120
64,48,220920,120
67,50,221040,120
70,51,221160,120
73,53,221280,120
76,55,221400,120
79,57,221520,120
82,59,221640,120
85,65,221760,120
88,57,221880,120
76,64,222000,120
88,56,222120,120
76,64,222240,120
88,58,222360,120
76,64,222480,120
88,59,222600,120
77,74,222720,120
89,59,222840,120
76,67,222960,120
88,54,223080,120
77,66,223200,120
89,57,223320,120
70,59,223440,120
82,50,223560,120
69,79,223680,120
81,54,223800,120
76,65,223920,120
88,57,224040,120
77,68,224160,120
89,60,224280,120
70,67,224400,120
82,58,224520,120
69,81,224640,120
81,58,224760,120
76,64,224880,120
88,59,225000,120
77,67,225120,120
89,55,225240,120
70,62,225360,120
82,51,225480,120
69,72,225600,120
81,52,225720,120
76,64,225840,120
88,54,225960,120
77,64,226080,120
89,51,226200,120
70,60,226320,120
82,51,226440,120
69,83,226560,120
81,53,226680,120
67,62,226800,120
79,54,226920,120
65,62,227040,120
77,54,227160,120
64,62,227280,120
76,53,227400,120
62,81,227520,120
74,53,227640,120
60,60,227760,120
72,52,227880,120
58,59,228000,120
70,52,228120,120
57,59,228240,120
69,50,228360,120
55,79,228480,120
67,50,228600,120
53,59,228720,120
65,49,228840,120
52,59,228960,120
64,49,229080,120
50,59,229200,120
62,51,229320,120
48,79,229440,120
60,49,229560,120
46,59,229680,120
58,50,229800,120
45,59,229920,120
57,48,230040,120
43,58,230160,120
55,49,230280,120
53,76,230400,120
41,64,230400,120
52,49,230640,120
60,42,230760,120
53,49,230880,120
60,41,231000,120
58,49,231120,120
60,42,231240,120
57,49,231360,120
60,41,231480,120
52,49,231600,120
60,42,231720,120
53,49,231840,120
60,43,231960,120
58,49,232080,120
60,40,232200,120
57,49,232320,120
60,41,232440,120
52,49,232560,120
60,42,232680,120
53,49,232800,120
60,43,232920,120
58,49,233040,120
60,40,233160,120
57,56,233280,120
60,45,233400,120
49,60,233520,120
61,52,233640,120
50,61,233760,120
62,49,233880,120
52,67,234000,120
64,60,234120,120
53,71,234240,120
65,62,234360,120
54,70,234480,120
66,64,234600,120
55,70,234720,120
67,64,234840,120
57,74,234960,120
69,65,235080,120
58,82,235200,120
70,71,235320,120
60,79,235440,120
72,70,235560,120
62,83,235680,120
74,72,235800,120
60,81,235920,120
72,69,236040,120
58,84,236160,120
70,69,236280,120
57,81,236400,120
69,69,236520,120
55,79,236640,120
67,69,236760,120
53,78,236880,120
65,65,237000,120
52,79,237120,120
64,69,237240,120
50,77,237360,120
62,65,237480,120
48,77,237600,120
60,67,237720,120
52,75,237840,120
64,66,237960,120
65,79,238080,480
53,79,238080,480
60,40,239040,960
57,34,239040,960
53,39,239760,240
61,46,240000,960
58,39,240000,960
56,40,240720,240
60,32,240960,480
58,32,240960,480
54,45,240960,240
53,40,241200,240
60,33,241440,480
58,33,241440,480
54,46,241440,240
52,40,241680,240
60,46,241920,720
57,39,241920,720
53,39,241920,720
69,52,242880,720
60,52,242880,960
57,44,242880,960
65,50,243600,240
70,52,243840,720
61,59,243840,960
58,50,243840,960
68,52,244560,240
61,41,244800,480
58,41,244800,480
66,58,244800,240
65,52,245040,240
61,42,245280,480
58,42,245280,480
66,59,245280,240
64,52,245520,240
65,59,245760,720
60,50,245760,720
57,50,245760,720
61,37,246720,480
58,37,246720,480
67,53,246720,240
65,46,246960,240
61,36,247200,480
58,36,247200,480
67,51,247200,240
64,44,247440,240
65,49,247680,720
60,42,247680,720
57,42,247680,720
61,30,248640,480
58,30,248640,480
66,43,248640,240
65,39,248880,240
61,31,249120,480
58,31,249120,480
66,44,249120,240
64,39,249360,240
53,74,249600,720
65,88,249600,720
55,67,250320,120
67,79,250320,120
57,74,250560,720
69,89,250560,720
58,68,251280,120
70,81,251280,120
60,77,251520,720
72,91,251520,720
62,62,252240,120
74,74,252240,120
64,71,252480,120
76,84,252480,120
65,68,252720,120
77,81,252720,120
67,74,252960,120
79,87,252960,120
69,69,253200,120
81,83,253200,120
70,81,253440,720
82,96,253440,720
69,71,254160,120
81,84,254160,120
67,78,254400,720
79,94,254400,720
65,70,255120,120
77,83,255120,120
64,78,255360,720
76,92,255360,720
62,62,256080,120
74,74,256080,120
60,70,256320,120
72,83,256320,120
58,66,256560,120
70,78,256560,120
57,70,256800,120
69,83,256800,120
55,64,257040,120
67,77,257040,120
53,78,257280,120
65,90,257280,120
64,53,257760,120
63,45,257880,120
64,53,258000,120
60,43,258120,120
65,57,258240,120
76,53,258720,120
75,45,258840,120
76,53,258960,120
72,43,259080,120
77,57,259200,120
88,91,260160,480
84,77,260160,480
82,77,260160,480
79,77,260160,480
76,77,260160,480
89,97,261120,480
84,82,261120,480
81,82,261120,480
77,82,261120,480
60,42,262560,120
59,40,262680,120
60,45,262800,120
57,39,262920,120
65,50,263040,120
60,42,264480,120
59,40,264600,120
60,45,264720,120
57,39,264840,120
65,50,264960,120
60,70,266400,120
59,66,266520,120
60,77,266640,120
57,71,266760,120
65,92,266880,720
67,82,267600,120
69,93,267840,720
70,86,268560,120
72,97,268800,720
74,82,269520,120
75,90,269760,120
74,85,270000,120
72,93,270240,120
74,86,270480,120
75,97,270720,720
74,77,271440,120
72,85,271680,120
70,80,271920,120
69,88,272160,120
70,81,272400,120
72,92,272640,720
70,76,273360,120
69,81,273600,120
67,74,273840,120
66,79,274080,120
64,71,274320,120
62,75,274560,960
57,40,275520,960
60,40,275520,960
66,34,275520,720
62,39,276240,240
55,39,276480,960
67,46,276480,720
58,39,276480,960
65,40,277200,240
58,32,277440,480
55,32,277440,480
63,45,277440,240
62,40,277680,240
58,33,277920,480
55,33,277920,480
63,46,277920,240
61,40,278160,240
62,46,278400,720
57,39,278400,720
54,39,278400,720
78,41,279360,720
69,40,279360,960
72,40,279360,960
74,42,280080,240
79,53,280320,720
67,39,280320,960
70,39,280320,960
77,44,281040,240
70,32,281280,480
67,32,281280,480
75,49,281280,240
74,44,281520,240
70,33,281760,480
67,33,281760,480
75,50,281760,240
73,44,282000,240
74,50,282240,720
69,39,282240,720
66,39,282240,720
70,32,283200,480
67,32,283200,480
76,49,283200,240
74,44,283440,240
70,33,283680,480
67,33,283680,480
76,50,283680,240
73,44,283920,240
74,50,284160,720
69,39,284160,720
66,39,284160,720
70,25,285120,480
67,25,285120,480
75,39,285120,240
74,35,285360,240
70,26,285600,480
67,26,285600,480
75,40,285600,240
73,35,285840,240
74,50,286080,720
69,39,286080,720
66,39,286080,720
75,86,288480,120
74,75,288720,120
72,84,288960,120
70,74,289200,120
69,84,289440,120
67,75,289680,120
66,84,289920,120
81,61,290400,120
80,50,290520,120
81,54,290640,120
78,50,290760,120
84,61,290880,120
83,50,291000,120
84,54,291120,120
81,50,291240,120
87,63,291360,120
86,50,291480,120
84,57,291600,120
82,50,291720,120
81,58,291840,120
82,50,291960,120
84,59,292080,120
82,49,292200,120
81,58,292320,120
79,50,292440,120
78,55,292560,120
79,50,292680,120
81,60,292800,120
79,47,292920,120
78,53,293040,120
75,46,293160,120
74,64,293280,120
72,51,293400,120
71,57,293520,120
72,52,293640,120
71,72,293760,480
80,81,296160,120
79,75,296400,120
77,84,296640,120
75,74,296880,120
74,84,297120,120
72,75,297360,120
71,84,297600,120
74,61,298080,120
73,50,298200,120
74,54,298320,120
71,50,298440,120
77,61,298560,120
76,50,298680,120
77,54,298800,120
74,50,298920,120
80,63,299040,120
79,50,299160,120
77,57,299280,120
75,50,299400,120
74,58,299520,120
75,50,299640,120
77,59,299760,120
75,49,299880,120
74,62,300000,120
72,50,300120,120
71,55,300240,120
72,50,300360,120
74,62,300480,120
72,51,300600,120
71,55,300720,120
68,46,300840,120
67,65,300960,120
65,47,301080,120
64,55,301200,120
65,50,301320,120
64,71,301440,480
73,86,303840,120
72,75,304080,120
70,84,304320,120
68,74,304560,120
67,84,304800,120
65,75,305040,120
64,84,305280,120
79,67,305760,120
78,55,305880,120
79,59,306000,120
76,55,306120,120
82,67,306240,120
81,55,306360,120
82,59,306480,120
79,55,306600,120
85,69,306720,120
84,55,306840,120
85,62,306960,120
84,55,307080,120
85,73,307200,120
82,55,307320,120
79,64,307440,120
76,53,307560,120
82,71,307680,120
79,55,307800,120
76,64,307920,120
73,55,308040,120
79,71,308160,120
76,51,308280,120
73,63,308400,120
70,50,308520,120
76,69,308640,120
73,51,308760,120
70,60,308880,120
67,50,309000,120
77,67,309600,120
76,55,309720,120
77,59,309840,120
72,55,309960,120
80,67,310080,120
79,55,310200,120
80,59,310320,120
77,55,310440,120
84,69,310560,120
83,55,310680,120
84,62,310800,120
80,55,310920,120
89,73,311040,120
84,55,311160,120
80,64,311280,120
77,53,311400,120
84,71,311520,120
80,55,311640,120
77,64,311760,120
72,55,311880,120
80,71,312000,120
77,51,312120,120
72,63,312240,120
68,50,312360,120
77,69,312480,120
72,51,312600,120
68,60,312720,120
65,50,312840,120
77,67,313440,120
76,55,313560,120
77,59,313680,120
74,55,313800,120
83,67,313920,120
82,55,314040,120
83,59,314160,120
77,55,314280,120
86,69,314400,120
85,55,314520,120
86,62,314640,120
83,55,314760,120
89,73,314880,120
86,55,315000,120
83,64,315120,120
77,53,315240,120
86,71,315360,120
83,55,315480,120
77,64,315600,120
74,55,315720,120
83,71,315840,120
77,51,315960,120
74,63,316080,120
71,50,316200,120
77,69,316320,120
74,51,316440,120
71,60,316560,120
65,50,316680,120
75,67,317280,120
74,54,317400,120
75,58,317520,120
72,54,317640,120
79,66,317760,120
78,53,317880,120
79,57,318000,120
75,53,318120,120
84,67,318240,120
83,53,318360,120
84,60,318480,120
79,53,318600,120
87,70,318720,120
84,53,318840,120
81,61,318960,120
75,50,319080,120
84,68,319200,120
81,52,319320,120
75,60,319440,120
72,52,319560,120
81,67,319680,120
75,48,319800,120
72,59,319920,120
69,47,320040,120
75,64,320160,120
72,47,320280,120
69,55,320400,120
63,46,320520,120
75,61,321120,120
74,50,321240,120
75,54,321360,120
72,50,321480,120
81,60,321600,120
80,50,321720,120
81,53,321840,120
75,49,321960,120
84,62,322080,120
83,49,322200,120
84,55,322320,120
81,48,322440,120
87,64,322560,120
84,48,322680,120
81,56,322800,120
75,47,322920,120
84,62,323040,120
81,48,323160,120
75,56,323280,120
72,48,323400,120
81,61,323520,120
75,44,323640,120
72,54,323760,120
69,43,323880,120
75,59,324000,120
72,43,324120,120
69,51,324240,120
63,43,324360,120
73,56,324960,120
72,46,325080,120
73,49,325200,120
70,46,325320,120
77,56,325440,120
76,45,325560,120
77,48,325680,120
73,45,325800,120
82,57,325920,120
81,45,326040,120
82,50,326160,120
77,45,326280,120
85,59,326400,120
82,44,326520,120
79,51,326640,120
73,42,326760,120
82,57,326880,120
79,44,327000,120
73,51,327120,120
70,44,327240,120
79,56,327360,120
73,40,327480,120
70,49,327600,120
67,39,327720,120
73,54,327840,120
70,40,327960,120
67,46,328080,120
61,39,328200,120
73,51,328800,120
72,42,328920,120
73,45,329040,120
70,41,329160,120
79,50,329280,120
78,41,329400,120
79,44,329520,120
73,41,329640,120
82,51,329760,120
81,41,329880,120
82,46,330000,120
79,40,330120,120
85,54,330240,120
82,40,330360,120
79,47,330480,120
73,38,330600,120
82,51,330720,120
79,40,330840,120
73,46,330960,120
70,40,331080,120
79,51,331200,120
73,36,331320,120
70,45,331440,120
67,36,331560,120
73,48,331680,120
70,36,331800,120
67,42,331920,120
61,35,332040,120
70,37,332160,120
67,28,332280,120
61,28,332400,120
58,28,332520,120
67,35,332640,120
61,28,332760,120
58,28,332880,120
55,28,333000,120
63,34,333120,120
61,29,333240,120
58,29,333360,120
55,28,333480,120
63,34,333600,120
61,28,333720,120
58,28,333840,120
55,28,333960,120
63,37,334080,120
61,28,334200,120
58,28,334320,120
55,28,334440,120
63,35,334560,120
61,28,334680,120
58,28,334800,120
55,28,334920,120
63,34,335040,120
61,29,335160,120
58,29,335280,120
55,28,335400,120
63,34,335520,120
61,28,335640,120
58,28,335760,120
55,28,335880,120
63,37,336000,120
61,28,336120,120
58,28,336240,120
55,28,336360,120
63,35,336480,120
61,28,336600,120
58,28,336720,120
55,28,336840,120
63,34,336960,120
61,29,337080,120
58,29,337200,120
55,28,337320,120
63,34,337440,120
61,28,337560,120
58,28,337680,120
55,28,337800,120
63,37,337920,120
61,27,338040,120
58,27,338160,120
55,27,338280,120
63,32,338400,120
61,25,338520,120
58,24,338640,120
55,24,338760,120
63,32,338880,120
61,23,339000,120
58,23,339120,120
55,21,339240,120
63,27,339360,120
61,20,339480,120
58,20,339600,120
55,19,339720,120
64,29,339840,120
61,22,339960,120
58,22,340080,120
55,22,340200,120
64,27,340320,120
61,22,340440,120
58,22,340560,120
55,22,340680,120
64,27,340800,120
61,23,340920,120
58,23,341040,120
55,22,341160,120
64,27,341280,120
61,22,341400,120
58,22,341520,120
55,22,341640,120
64,29,341760,120
61,22,341880,120
58,22,342000,120
55,22,342120,120
64,27,342240,120
61,22,342360,120
58,22,342480,120
55,22,342600,120
64,27,342720,120
61,23,342840,120
58,23,342960,120
55,22,343080,120
64,27,343200,120
61,22,343320,120
58,22,343440,120
55,22,343560,120
64,29,343680,120
61,22,343800,120
58,22,343920,120
55,22,344040,120
64,27,344160,120
61,22,344280,120
58,22,344400,120
55,22,344520,120
64,27,344640,120
61,23,344760,120
58,23,344880,120
55,22,345000,120
64,27,345120,120
61,22,345240,120
58,22,345360,120
55,22,345480,120
64,29,345600,120
61,22,345720,120
58,22,345840,120
55,22,345960,120
64,27,346080,120
61,22,346200,120
58,22,346320,120
55,22,346440,120
64,27,346560,120
61,23,346680,120
58,23,346800,120
55,22,346920,120
64,27,347040,120
61,22,347160,120
58,22,347280,120
55,22,347400,120
63,29,347520,120
60,22,347640,120
57,22,347760,120
54,22,347880,120
63,27,348000,120
60,22,348120,120
57,22,348240,120
54,22,348360,120
63,27,348480,120
60,23,348600,120
57,23,348720,120
54,22,348840,120
63,27,348960,120
60,22,349080,120
57,22,349200,120
54,22,349320,120
63,29,349440,120
60,22,349560,120
57,22,349680,120
54,22,349800,120
63,27,349920,120
60,22,350040,120
57,22,350160,120
54,22,350280,120
63,27,350400,120
60,23,350520,120
57,23,350640,120
54,22,350760,120
63,27,350880,120
60,22,351000,120
57,22,351120,120
54,22,351240,120
63,29,351360,120
60,22,351480,120
57,22,351600,120
54,22,351720,120
63,27,351840,120
60,22,351960,120
57,22,352080,120
54,22,352200,120
63,27,352320,120
60,23,352440,120
57,23,352560,120
54,22,352680,120
63,27,352800,120
60,22,352920,120
57,22,353040,120
54,22,353160,120
63,29,353280,120
60,22,353400,120
57,22,353520,120
54,22,353640,120
63,27,353760,120
60,22,353880,120
57,22,354000,120
54,22,354120,120
63,27,354240,120
60,23,354360,120
57,23,354480,120
53,22,354600,120
63,27,354720,120
60,22,354840,120
57,22,354960,120
53,22,355080,120
63,29,355200,120
60,22,355320,120
57,22,355440,120
53,22,355560,120
63,27,355680,120
60,22,355800,120
57,22,355920,120
53,22,356040,120
63,27,356160,120
60,23,356280,120
57,23,356400,120
53,22,356520,120
63,27,356640,120
60,22,356760,120
57,22,356880,120
53,22,357000,120
63,29,357120,120
60,22,357240,120
57,22,357360,120
53,22,357480,120
63,27,357600,120
60,22,357720,120
57,22,357840,120
53,22,357960,120
63,27,358080,120
60,23,358200,120
57,23,358320,120
53,22,358440,120
63,27,358560,120
60,22,358680,120
57,22,358800,120
53,22,358920,120
63,29,359040,120
60,22,359160,120
57,22,359280,120
53,22,359400,120
63,28,359520,120
60,23,359640,120
57,23,359760,120
53,23,359880,120
63,28,360000,120
60,24,360120,120
57,24,360240,120
53,24,360360,120
63,29,360480,120
60,24,360600,120
57,24,360720,120
53,24,360840,120
63,33,360960,120
60,25,361080,120
57,25,361200,120
53,25,361320,120
63,32,361440,120
60,26,361560,120
57,26,361680,120
53,26,361800,120
63,32,361920,120
60,28,362040,120
57,28,362160,120
53,27,362280,120
63,33,362400,120
60,28,362520,120
57,28,362640,120
53,28,362760,120
63,38,362880,120
60,29,363000,120
57,29,363120,120
53,29,363240,120
63,37,363360,120
60,30,363480,120
57,30,363600,120
53,30,363720,120
63,37,363840,120
60,32,363960,120
57,33,364080,120
53,32,364200,120
63,38,364320,120
60,32,364440,120
57,33,364560,120
53,33,364680,120
63,44,364800,120
60,33,364920,120
57,34,365040,120
53,34,365160,120
63,43,365280,120
60,36,365400,120
57,39,365520,120
53,41,365640,120
63,53,365760,120
60,43,365880,120
57,44,366000,120
53,44,366120,120
63,55,366240,120
60,45,366360,120
57,45,366480,120
53,45,366600,120
63,56,366720,120
60,46,366840,120
57,46,366960,120
53,46,367080,120
63,57,367200,120
60,47,367320,120
57,47,367440,120
53,47,367560,120
63,59,367680,120
60,48,367800,120
57,48,367920,120
53,49,368040,120
63,60,368160,120
60,49,368280,120
57,49,368400,120
53,50,368520,120
52,54,368880,252
53,44,369120,252
55,44,369360,252
57,53,369600,252
58,40,369840,252
60,40,370080,252
62,40,370320,252
63,52,370560,252
64,45,370800,252
65,43,371040,252
67,41,371280,252
69,45,371520,252
70,41,371760,252
72,38,372000,252
74,38,372240,252
63,38,372480,3120
72,38,372480,3120
75,45,372480,3120
58,42,375840,120
62,50,375840,480
57,40,375960,120
58,45,376080,120
53,39,376200,120
62,35,376320,90
65,42,376320,90
58,32,376800,90
62,38,376800,90
58,42,377760,120
62,50,377760,480
57,40,377880,120
58,45,378000,120
53,39,378120,120
62,35,378240,90
65,42,378240,90
58,32,378720,90
62,38,378720,90
62,50,379680,240
58,42,379680,132
57,40,379800,132
58,46,379920,132
53,40,380040,120
65,53,380160,240
62,44,380160,132
61,42,380280,132
62,49,380400,132
58,42,380520,120
65,47,380640,132
70,56,380640,240
64,45,380760,132
65,51,380880,132
62,45,381000,120
70,49,381120,132
74,59,381120,240
69,47,381240,132
70,54,381360,132
65,47,381480,120
74,52,381600,132
77,62,381600,240
73,50,381720,132
74,57,381840,132
70,49,381960,120
82,72,382080,1440
81,60,383520,120
82,57,383640,120
84,60,383760,120
82,54,383880,120
81,60,384000,240
79,51,384240,240
77,54,384480,240
75,50,384720,240
74,59,384960,240
72,48,385200,240
79,56,385440,240
77,47,385680,240
75,54,385920,480
74,47,386400,480
69,58,387360,120
70,54,387480,120
72,58,387600,120
70,54,387720,120
68,60,387840,240
67,54,388080,240
65,66,388320,240
63,61,388560,240
62,69,388800,240
60,62,389040,240
63,73,389280,240
57,63,389520,240
58,79,389760,120
62,68,390000,120
60,65,390120,120
58,71,390240,120
57,65,390360,120
58,71,390480,120
55,65,390600,120
53,79,390720,120
67,68,390960,120
65,65,391080,120
63,71,391200,120
62,65,391320,120
63,71,391440,120
60,65,391560,120
58,79,391680,120
74,68,391920,120
72,65,392040,120
70,71,392160,120
69,65,392280,120
70,71,392400,120
67,65,392520,120
65,79,392640,120
79,78,392880,120
77,74,393000,120
75,81,393120,120
74,74,393240,120
75,81,393360,120
72,74,393480,120
70,90,393600,120
72,68,393840,120
74,68,393960,120
75,77,394080,120
77,70,394200,120
79,70,394320,120
81,71,394440,120
82,73,394560,30
84,65,394590,30
82,81,394620,60
81,72,394680,120
82,73,394800,120
84,74,394920,120
86,74,395040,30
87,66,395070,30
86,83,395100,120
84,75,395160,120
86,76,395280,120
88,76,395400,120
89,94,395520,120
65,79,396000,120
62,54,397920,120
65,65,397920,480
61,52,398040,120
62,58,398160,120
58,50,398280,120
65,65,398400,120
74,65,398400,120
62,58,398880,120
70,58,398880,120
62,54,399840,120
65,65,399840,480
61,52,399960,120
62,58,400080,120
58,50,400200,120
65,65,400320,120
74,65,400320,120
62,58,400800,120
70,58,400800,120
80,75,404160,1920
74,56,405120,960
79,53,405600,960
75,44,406080,480
72,41,406560,480
77,49,406560,960
74,55,407040,480
71,41,407520,480
75,49,407520,960
72,55,408000,480
69,42,408480,480
74,50,408480,960
70,55,408960,480
67,41,409440,480
72,49,409440,960
68,55,409920,480
65,42,410400,480
70,50,410400,960
67,55,410880,480
63,41,411360,480
69,49,411360,480
70,50,411840,480
62,55,411840,470
58,42,412320,480
62,42,412320,480
57,60,412800,240
60,68,412800,240
65,62,413040,120
57,33,413160,120
60,39,413160,120
65,64,413280,120
57,34,413400,120
60,41,413400,120
67,68,413520,120
57,34,413640,120
60,40,413640,120
69,62,413760,120
60,38,413880,120
63,45,413880,120
65,68,414000,120
60,38,414120,120
63,45,414120,120
67,68,414240,120
60,38,414360,120
63,45,414360,120
69,70,414480,120
60,38,414600,120
63,45,414600,120
70,68,414720,120
58,34,414840,120
61,40,414840,120
70,62,414960,120
58,33,415080,120
61,39,415080,120
70,64,415200,120
58,34,415320,120
61,41,415320,120
68,68,415440,120
58,34,415560,120
61,40,415560,120
67,62,415680,120
58,38,415800,120
61,45,415800,120
65,68,415920,120
58,38,416040,120
61,45,416040,120
64,68,416160,120
58,38,416280,120
61,45,416280,120
67,70,416400,120
58,38,416520,120
61,45,416520,120
60,60,416640,240
57,60,416640,240
65,68,416640,240
77,62,416880,120
69,33,417000,120
72,39,417000,120
77,64,417120,120
69,34,417240,120
72,41,417240,120
79,68,417360,120
69,34,417480,120
72,40,417480,120
81,62,417600,120
72,38,417720,120
75,45,417720,120
77,68,417840,120
72,38,417960,120
75,45,417960,120
79,68,418080,120
72,38,418200,120
75,45,418200,120
81,70,418320,120
72,38,418440,120
75,45,418440,120
82,68,418560,120
70,34,418680,120
73,40,418680,120
82,62,418800,120
70,33,418920,120
73,39,418920,120
82,64,419040,120
70,34,419160,120
73,41,419160,120
80,68,419280,120
70,34,419400,120
73,40,419400,120
79,62,419520,120
70,38,419640,120
73,45,419640,120
77,68,419760,120
70,38,419880,120
73,45,419880,120
76,68,420000,120
70,38,420120,120
73,45,420120,120
79,70,420240,120
70,38,420360,120
73,45,420360,120
77,78,420480,120
69,38,420600,120
72,45,420600,120
77,68,420720,120
69,38,420840,120
72,45,420840,120
76,68,420960,120
70,38,421080,120
73,45,421080,120
79,70,421200,120
70,38,421320,120
73,45,421320,120
77,76,421440,120
69,38,421560,120
72,45,421560,120
77,68,421680,120
69,38,421800,120
72,45,421800,120
76,68,421920,120
70,38,422040,120
73,45,422040,120
79,70,422160,120
70,38,422280,120
73,45,422280,120
69,59,422400,120
72,59,422400,120
77,70,422400,120
65,35,422520,132
67,40,422640,132
69,35,422760,132
70,40,422880,132
72,35,423000,132
74,40,423120,132
76,33,423240,132
77,40,423360,132
76,33,423480,132
77,40,423600,132
76,33,423720,132
77,40,423840,132
76,34,423960,132
77,40,424080,132
76,33,424200,120
74,38,424320,960
77,43,424320,960
74,49,425280,480
82,47,425760,480
74,41,426240,480
77,49,426240,480
86,43,426720,480
82,36,426720,480
74,42,427200,480
77,50,427200,480
89,43,427680,480
86,36,427680,480
74,38,428160,960
77,43,428160,960
74,49,429120,480
82,46,429600,480
74,41,430080,480
77,49,430080,480
86,43,430560,480
82,36,430560,480
74,42,431040,480
77,50,431040,480
89,43,431520,480
86,36,431520,480
74,49,432000,960
77,49,432000,960
79,49,432000,960
83,49,432000,960
83,70,434400,480
86,70,434880,480
89,66,435360,960
83,72,435840,960
87,75,436320,1920
84,75,436800,1440
78,66,437280,480
77,74,437760,960
86,70,438240,480
82,57,438240,480
75,61,438720,480
79,61,438720,480
84,70,438720,480
72,53,439200,480
75,53,439200,480
81,64,439200,480
70,64,439680,240
74,64,439680,240
82,77,439680,240
70,73,440640,950
74,88,440640,960
67,57,441600,470
70,68,441600,480
63,59,442080,240
67,70,442080,240
72,73,442560,720
75,88,442560,720
70,57,443280,240
74,68,443280,240
72,77,443520,480
69,64,443520,470
65,57,444000,240
69,68,444000,240
74,73,444480,950
77,88,444480,960
70,57,445440,470
74,68,445440,480
67,59,445920,240
70,70,445920,240
75,73,446400,720
79,88,446400,720
74,57,447120,240
77,68,447120,240
75,77,447360,480
72,64,447360,470
69,57,447840,240
72,68,447840,240
75,73,448320,720
84,88,448320,720
74,57,449040,240
82,68,449040,240
72,73,449280,720
81,88,449280,720
70,57,450000,240
79,68,450000,240
69,51,450240,480
77,60,450240,480
63,44,450720,480
75,52,450720,480
62,49,451200,480
74,58,451200,480
66,39,451680,480
72,46,451680,480
67,45,452160,480
70,53,452160,480
60,40,452640,480
67,48,452640,480
58,32,453600,240
62,32,453600,240
65,38,453600,240
57,31,454560,240
60,31,454560,240
65,37,454560,240
62,35,455520,450
58,29,455520,450
53,29,455520,450
70,60,456240,480
74,72,456240,480
70,47,456720,120
74,56,456720,120
67,41,457200,120
70,49,457200,120
63,38,457680,120
67,45,457680,120
72,60,458160,480
75,73,458160,480
70,43,458640,120
74,51,458640,120
69,41,459120,120
72,49,459120,120
65,38,459600,120
69,45,459600,120
74,60,460080,480
77,72,460080,480
74,47,460560,120
77,56,460560,120
70,45,461040,120
74,53,461040,120
67,41,461520,120
70,49,461520,120
75,68,462000,480
79,84,462000,480
74,49,462480,120
77,58,462480,120
72,47,462960,120
75,55,462960,120
69,43,463440,120
72,51,463440,120
75,75,463920,480
84,93,463920,480
74,56,464400,120
82,67,464400,120
72,71,464880,480
81,82,464880,480
70,56,465360,120
79,67,465360,120
69,44,465840,120
77,52,465840,120
63,39,466320,120
75,46,466320,120
74,54,466560,120
62,46,466680,120
66,43,466800,120
69,43,466920,120
74,53,467040,120
78,42,467160,120
81,42,467280,120
85,42,467400,120
86,49,467520,120
85,39,467640,120
86,42,467760,120
85,38,467880,120
86,48,468000,120
81,38,468120,120
78,38,468240,120
74,38,468360,120
62,46,468600,120
67,43,468720,120
70,43,468840,120
74,53,468960,120
79,42,469080,120
82,42,469200,120
85,42,469320,120
86,49,469440,120
85,39,469560,120
86,42,469680,120
85,38,469800,120
86,48,469920,120
82,38,470040,120
79,38,470160,120
74,38,470280,120
61,46,470520,120
64,43,470640,120
67,43,470760,120
70,50,470880,120
73,42,471000,120
76,42,471120,120
79,42,471240,120
82,49,471360,120
79,41,471480,120
85,48,471600,120
82,41,471720,120
79,48,471840,120
76,45,471960,120
73,42,472080,120
70,39,472200,120
57,48,472440,120
60,50,472560,120
63,51,472680,120
66,53,472800,120
69,55,472920,120
72,57,473040,120
75,59,473160,120
78,65,473280,120
81,57,473400,120
69,64,473520,120
81,56,473640,120
69,64,473760,120
81,58,473880,120
69,64,474000,120
81,59,474120,120
70,74,474240,120
82,59,474360,120
69,67,474480,120
81,54,474600,120
70,66,474720,120
82,57,474840,120
63,59,474960,120
75,50,475080,120
62,79,475200,120
74,54,475320,120
69,65,475440,120
81,57,475560,120
70,68,475680,120
82,60,475800,120
63,67,475920,120
75,58,476040,120
62,81,476160,120
74,58,476280,120
69,64,476400,120
81,59,476520,120
70,67,476640,120
82,55,476760,120
63,62,476880,120
75,51,477000,120
62,72,477120,120
74,52,477240,120
69,64,477360,120
81,54,477480,120
70,64,477600,120
82,51,477720,120
63,60,477840,120
75,51,477960,120
62,83,478080,120
74,53,478200,120
69,62,478320,120
81,54,478440,120
70,62,478560,120
82,54,478680,120
69,62,478800,120
81,53,478920,120
67,81,479040,120
79,53,479160,120
65,60,479280,120
77,52,479400,120
63,59,479520,120
75,52,479640,120
62,59,479760,120
74,50,479880,120
60,79,480000,120
72,50,480120,120
58,59,480240,120
70,49,480360,120
57,59,480480,120
69,49,480600,120
55,59,480720,120
67,51,480840,120
53,79,480960,120
65,49,481080,120
51,59,481200,120
63,50,481320,120
50,59,481440,120
62,48,481560,120
48,58,481680,120
60,49,481800,120
58,76,481920,120
46,64,481920,120
57,49,482160,120
53,42,482280,120
58,49,482400,120
53,41,482520,120
63,49,482640,120
53,42,482760,120
62,49,482880,120
53,41,483000,120
57,49,483120,120
53,42,483240,120
58,49,483360,120
53,43,483480,120
63,49,483600,120
53,40,483720,120
62,49,483840,120
53,41,483960,120
57,49,484080,120
53,42,484200,120
58,49,484320,120
53,43,484440,120
63,49,484560,120
53,40,484680,120
62,56,484800,240
54,60,485040,120
66,52,485160,120
55,61,485280,120
67,49,485400,120
57,67,485520,120
69,60,485640,120
58,71,485760,120
70,62,485880,120
59,70,486000,120
71,64,486120,120
60,70,486240,120
72,64,486360,120
62,74,486480,120
74,65,486600,120
63,82,486720,120
75,71,486840,120
65,79,486960,120
77,70,487080,120
67,83,487200,120
79,72,487320,120
65,81,487440,120
77,69,487560,120
63,84,487680,120
75,69,487800,120
62,81,487920,120
74,69,488040,120
60,79,488160,120
72,69,488280,120
58,78,488400,120
70,65,488520,120
57,79,488640,120
69,69,488760,120
55,77,488880,120
67,65,489000,120
53,77,489120,120
65,67,489240,120
57,75,489360,120
69,66,489480,120
70,79,489600,480
58,79,489600,480
65,40,490560,960
62,34,490560,960
58,39,491280,240
66,46,491520,960
63,39,491520,960
61,40,492240,240
66,32,492480,480
63,32,492480,480
59,45,492480,240
58,40,492720,240
66,33,492960,480
63,33,492960,480
59,46,492960,240
57,40,493200,240
65,46,493440,720
62,39,493440,720
58,39,493440,720
74,52,494400,720
65,52,494400,960
62,44,494400,960
70,50,495120,240
75,52,495360,720
66,59,495360,960
63,50,495360,960
73,52,496080,240
66,41,496320,480
63,41,496320,480
71,58,496320,240
70,52,496560,240
66,42,496800,480
63,42,496800,480
71,59,496800,240
69,52,497040,240
70,59,497280,720
65,50,497280,720
62,50,497280,720
66,37,498240,480
63,37,498240,480
72,53,498240,240
70,46,498480,240
66,36,498720,480
63,36,498720,480
72,51,498720,240
69,44,498960,240
70,49,499200,720
65,42,499200,720
62,42,499200,720
66,30,500160,480
63,30,500160,480
71,43,500160,240
70,39,500400,240
66,31,500640,480
63,31,500640,480
71,44,500640,240
69,39,500880,240
58,74,501120,720
70,88,501120,720
60,67,501840,120
72,79,501840,120
62,74,502080,720
74,89,502080,720
63,68,502800,120
75,81,502800,120
65,77,503040,720
77,91,503040,720
67,62,503760,120
79,74,503760,120
69,71,504000,120
81,84,504000,120
70,68,504240,120
82,81,504240,120
72,74,504480,120
84,87,504480,120
74,69,504720,120
86,83,504720,120
75,81,504960,720
87,96,504960,720
74,71,505680,120
86,84,505680,120
72,78,505920,720
84,94,505920,720
70,70,506640,120
82,83,506640,120
69,78,506880,720
81,92,506880,720
67,62,507600,120
79,74,507600,120
65,70,507840,120
77,83,507840,120
63,66,508080,120
75,78,508080,120
62,70,508320,120
74,83,508320,120
60,64,508560,120
72,77,508560,120
58,78,508800,120
70,90,508800,120
69,53,509280,120
68,45,509400,120
69,53,509520,120
65,43,509640,120
70,57,509760,120
81,53,510240,120
80,45,510360,120
81,53,510480,120
77,43,510600,120
82,57,510720,120
81,91,511680,480
77,77,511680,480
75,77,511680,480
72,77,511680,480
69,77,511680,480
82,97,512640,480
77,82,512640,480
74,82,512640,480
70,82,512640,480
34,30,1920,90
46,36,1920,90
34,27,2400,90
46,32,2400,90
34,30,3840,90
46,36,3840,90
34,27,4320,90
46,32,4320,90
46,44,7680,120
50,31,7800,120
53,31,7920,120
58,31,8040,120
46,44,8160,120
50,32,8280,120
53,32,8400,120
58,32,8520,120
46,44,8640,120
50,33,8760,120
53,33,8880,120
58,33,9000,120
46,44,9120,120
50,33,9240,120
53,33,9360,120
58,33,9480,120
46,44,9600,120
51,31,9720,120
55,31,9840,120
58,31,9960,120
46,42,10080,120
51,28,10200,120
55,28,10320,120
58,28,10440,120
46,41,10560,120
51,29,10680,120
53,29,10800,120
57,29,10920,120
46,41,11040,120
51,31,11160,120
53,31,11280,120
57,31,11400,120
46,44,11520,120
50,31,11640,120
53,31,11760,120
58,31,11880,120
46,44,12000,120
50,32,12120,120
53,32,12240,120
58,32,12360,120
46,44,12480,120
50,32,12600,120
53,32,12720,120
56,32,12840,120
46,44,12960,120
50,32,13080,120
53,32,13200,120
56,32,13320,120
46,44,13440,120
51,32,13560,120
55,32,13680,120
51,32,13800,120
46,44,13920,120
51,36,14040,120
55,36,14160,120
51,36,14280,120
46,48,14400,120
48,37,14520,120
51,38,14640,120
53,40,14760,120
46,50,14880,120
48,40,15000,120
51,39,15120,120
53,43,15240,120
46,60,15360,120
46,53,15840,120
45,46,15960,120
46,53,16080,120
43,46,16200,120
41,60,16320,120
51,53,16800,120
50,46,16920,120
51,53,17040,120
48,46,17160,120
46,60,17280,120
58,53,17760,120
57,46,17880,120
58,53,18000,120
55,46,18120,120
53,60,18240,120
63,60,18720,120
62,52,18840,120
63,60,18960,120
60,52,19080,120
58,69,19200,120
60,53,19440,120
62,48,19560,120
63,54,19680,120
65,48,19800,120
67,48,19920,120
69,49,20040,120
70,56,20160,120
69,50,20280,120
70,50,20400,120
72,51,20520,120
74,58,20640,120
72,52,20760,120
74,52,20880,120
76,53,21000,120
77,73,21120,120
53,60,21600,120
46,65,22560,120
45,57,22680,120
46,62,22800,120
41,55,22920,120
50,65,23040,120
49,58,23160,120
50,63,23280,120
46,57,23400,120
53,65,23520,120
52,58,23640,120
53,63,23760,120
50,57,23880,120
58,65,24000,120
57,58,24120,120
58,63,24240,120
53,57,24360,120
62,63,24480,120
61,58,24600,120
62,62,24720,120
58,57,24840,120
65,72,24960,840
63,63,25800,120
62,71,25920,360
60,63,26280,120
58,72,26400,360
56,63,26760,120
55,72,26880,960
56,48,27840,480
54,42,28320,480
55,51,28800,480
52,44,29280,480
53,52,29760,480
50,34,30240,480
36,51,30720,240
48,51,30720,240
60,42,30960,137
60,42,31200,137
60,42,31440,137
60,51,31680,137
60,43,31920,137
60,43,32160,137
60,43,32400,137
60,51,32640,137
60,42,32880,137
60,42,33120,137
60,42,33360,137
60,51,33600,137
60,43,33840,137
60,43,34080,137
60,43,34320,144
36,51,34560,240
48,51,34560,240
60,42,34800,137
60,42,35040,137
60,42,35280,137
60,51,35520,137
60,43,35760,137
60,43,36000,137
60,43,36240,137
60,51,36480,137
60,42,36720,137
60,42,36960,137
60,42,37200,137
60,51,37440,137
60,43,37680,137
60,43,37920,137
60,43,38160,144
48,51,38400,228
60,43,38640,137
60,43,38880,137
60,43,39120,144
48,51,39360,228
60,43,39600,137
60,43,39840,137
60,43,40080,144
48,51,40320,480
53,31,42360,132
55,36,42480,132
57,31,42600,132
58,36,42720,132
60,31,42840,132
62,36,42960,132
64,29,43080,132
65,36,43200,132
64,29,43320,132
65,36,43440,132
64,29,43560,132
65,36,43680,132
64,27,43800,132
65,34,43920,132
64,26,44040,120
65,30,44160,132
64,25,44280,132
65,30,44400,132
64,25,44520,132
65,30,44640,132
64,25,44760,132
65,30,44880,132
64,25,45000,132
65,30,45120,132
64,25,45240,132
65,30,45360,132
64,25,45480,132
65,30,45600,132
64,25,45720,132
65,30,45840,132
64,25,45960,120
65,30,46080,120
53,31,46200,132
55,36,46320,132
57,31,46440,132
58,36,46560,132
60,31,46680,132
62,36,46800,132
64,29,46920,132
65,36,47040,132
64,29,47160,132
65,36,47280,132
64,29,47400,132
65,36,47520,132
64,27,47640,132
65,34,47760,132
64,26,47880,120
65,30,48000,132
64,25,48120,132
65,30,48240,132
64,25,48360,132
65,30,48480,132
64,25,48600,132
65,30,48720,132
64,25,48840,132
65,30,48960,132
64,25,49080,132
65,30,49200,132
64,25,49320,132
65,30,49440,132
63,25,49560,132
65,30,49680,132
63,25,49800,120
61,39,49920,180
62,34,50040,120
61,39,50160,180
62,35,50280,120
59,41,50400,180
60,35,50520,120
59,42,50640,180
60,36,50760,120
56,44,50880,180
57,37,51000,120
56,45,51120,180
57,37,51240,120
53,44,51360,180
54,38,51480,120
53,44,51600,180
54,39,51720,120
49,45,51840,180
50,39,51960,120
49,46,52080,180
50,40,52200,120
47,48,52320,180
48,41,52440,120
47,48,52560,180
48,41,52680,120
44,54,52800,180
45,42,52920,120
44,52,53040,180
45,43,53160,120
41,55,53280,180
42,44,53400,120
41,51,53520,180
42,44,53640,120
37,57,53760,180
38,44,53880,120
37,51,54000,180
38,44,54120,120
37,56,54240,180
38,50,54360,120
37,57,54480,180
38,44,54600,110
38,61,54720,180
39,52,54840,120
38,58,54960,180
39,52,55080,120
39,58,55200,180
40,44,55320,120
39,54,55440,180
40,44,55560,120
40,56,55680,180
41,48,55800,120
40,51,55920,180
41,44,56040,120
40,51,56160,180
41,44,56280,120
40,51,56400,180
41,44,56520,110
33,51,56640,180
34,44,56760,120
33,51,56880,180
34,44,57000,110
35,51,57120,180
36,44,57240,120
35,51,57360,180
36,44,57480,110
29,48,57600,240
53,54,58560,950
57,64,58560,960
50,41,59520,470
53,49,59520,480
46,41,60000,240
50,49,60000,240
55,54,60480,720
58,64,60480,720
53,41,61200,240
57,49,61200,240
52,49,61440,470
55,58,61440,480
48,44,61920,240
52,52,61920,240
57,54,62400,950
60,64,62400,960
53,41,63360,470
57,49,63360,480
50,41,63840,240
53,49,63840,240
58,54,64320,720
62,64,64320,720
57,41,65040,240
60,49,65040,240
55,49,65280,470
58,58,65280,480
52,44,65760,240
55,52,65760,240
58,54,66240,720
67,64,66240,720
57,41,66960,240
65,49,66960,240
55,54,67200,720
64,64,67200,720
53,41,67920,240
62,41,67920,240
52,41,68160,480
60,49,68160,480
50,34,68640,480
53,41,68640,480
49,36,69120,480
52,43,69120,480
45,27,69600,480
52,32,69600,480
46,33,70080,480
50,39,70080,480
47,31,70560,480
48,38,71040,960
36,32,72000,960
29,35,72960,960
57,66,73920,720
53,55,73920,720
53,37,74640,120
57,44,74640,120
50,45,74880,120
53,53,74880,120
46,39,75360,120
50,47,75360,120
58,66,75840,720
55,55,75840,720
53,37,76560,120
57,44,76560,120
52,45,76800,120
55,53,76800,120
48,39,77280,120
52,47,77280,120
60,72,77760,720
57,60,77760,720
57,40,78480,120
60,48,78480,120
53,49,78720,120
57,58,78720,120
50,42,79200,120
53,51,79200,120
62,75,79680,720
58,62,79680,720
57,42,80400,120
60,50,80400,120
55,51,80640,120
58,60,80640,120
52,44,81120,120
55,53,81120,120
67,79,81600,720
58,66,81600,720
57,44,82320,120
65,52,82320,120
64,79,82560,720
55,66,82560,720
53,44,83280,120
62,52,83280,120
52,49,83520,120
60,58,83520,120
50,40,84000,120
53,49,84000,120
49,34,84480,1920
52,34,84480,1920
55,40,84480,1920
50,34,86400,1920
53,40,86400,1920
47,34,88320,1920
50,34,88320,1920
53,40,88320,1920
46,57,90240,1200
49,57,90240,1200
52,57,90240,1200
55,68,90240,1200
46,50,91440,120
48,50,91440,120
55,60,91440,120
46,61,91680,120
48,61,91680,120
55,72,91680,120
46,51,91920,120
48,51,91920,120
55,61,91920,120
45,73,92160,480
48,73,92160,480
53,73,92160,480
40,57,92880,120
48,68,92880,120
41,63,93120,120
48,75,93120,120
46,56,93360,120
48,67,93360,120
45,63,93600,120
48,75,93600,120
40,56,93840,120
48,67,93840,120
41,63,94080,120
48,75,94080,120
46,56,94320,120
48,67,94320,120
45,63,94560,120
48,75,94560,120
40,56,94800,120
48,67,94800,120
41,63,95040,120
48,75,95040,120
46,56,95280,120
48,67,95280,120
45,63,95520,120
48,75,95520,120
40,57,95760,120
48,68,95760,120
41,89,96000,960
38,80,96960,960
34,88,97920,960
36,84,98880,960
29,81,99840,120
46,54,100080,120
45,60,100320,120
40,54,100560,120
41,60,100800,120
46,52,101040,120
45,60,101280,120
40,58,101520,120
41,60,101760,120
46,52,102000,120
45,60,102240,120
40,58,102480,120
41,67,102720,120
43,59,102960,120
41,72,103200,120
40,67,103440,120
38,75,103680,120
36,77,103920,120
34,80,104160,120
33,82,104400,120
31,94,104640,1920
36,87,106560,960
29,30,107520,120
41,26,107640,120
29,30,107760,120
41,25,107880,120
29,30,108000,120
41,26,108120,120
29,30,108240,120
41,27,108360,120
29,30,108480,120
41,27,108600,120
29,30,108720,120
41,25,108840,120
29,30,108960,120
41,26,109080,120
29,30,109200,120
41,26,109320,120
29,30,109440,120
41,26,109560,120
29,30,109680,120
41,25,109800,120
29,30,109920,120
41,26,110040,120
29,30,110160,120
41,27,110280,120
29,30,110400,120
41,27,110520,120
29,30,110640,120
41,25,110760,120
29,30,110880,120
41,26,111000,120
29,30,111120,120
41,26,111240,120
29,30,111360,120
41,26,111480,120
29,30,111600,120
41,25,111720,120
29,30,111840,120
41,26,111960,120
29,30,112080,120
41,27,112200,120
29,30,112320,120
41,27,112440,120
29,35,112560,120
41,29,112680,120
29,34,112800,120
41,26,112920,120
29,35,113040,120
41,31,113160,120
29,38,113280,120
41,30,113400,120
29,34,113520,120
41,25,113640,120
29,33,113760,120
41,26,113880,120
29,30,114000,120
41,27,114120,120
29,30,114240,120
41,27,114360,120
29,30,114480,120
41,25,114600,120
29,30,114720,120
41,26,114840,120
29,30,114960,120
41,26,115080,120
29,30,115200,120
41,25,115320,120
29,29,115440,120
41,24,115560,120
29,28,115680,120
41,24,115800,120
29,28,115920,120
41,25,116040,120
29,27,116160,120
41,24,116280,120
29,27,116400,120
41,22,116520,120
29,26,116640,120
41,22,116760,120
29,25,116880,120
41,22,117000,120
29,25,117120,120
41,21,117240,120
29,24,117360,120
41,20,117480,120
29,24,117600,120
41,20,117720,120
29,23,117840,120
41,20,117960,120
29,22,118080,120
41,20,118200,120
29,22,118320,120
41,18,118440,120
29,22,118560,120
41,19,118680,120
29,22,118800,120
41,19,118920,120
29,56,119040,720
41,66,119040,720
31,49,119760,120
43,59,119760,120
33,56,120000,720
45,66,120000,720
34,50,120720,120
46,60,120720,120
36,57,120960,720
48,68,120960,720
38,47,121680,120
50,56,121680,120
40,53,121920,120
52,63,121920,120
41,50,122160,120
53,60,122160,120
43,55,122400,120
55,65,122400,120
45,51,122640,120
57,61,122640,120
46,61,122880,720
58,72,122880,720
45,52,123600,120
57,63,123600,120
43,59,123840,720
55,69,123840,720
41,51,124560,120
53,61,124560,120
40,58,124800,720
52,69,124800,720
38,47,125520,120
50,56,125520,120
36,52,125760,120
48,62,125760,120
34,49,126000,120
46,58,126000,120
33,52,126240,120
45,62,126240,120
31,48,126480,120
43,57,126480,120
29,58,126720,120
41,69,126720,120
48,34,127200,120
55,34,127200,120
58,41,127200,120
53,41,127680,120
57,49,127680,120
60,34,128160,120
67,34,128160,120
70,41,128160,120
65,41,128640,120
69,49,128640,120
48,56,129600,480
60,67,129600,480
41,64,130560,480
53,76,130560,480
34,30,132480,90
46,36,132480,90
34,27,132960,90
46,32,132960,90
34,30,134400,90
46,36,134400,90
34,27,134880,90
46,32,134880,90
46,44,138240,120
50,31,138360,120
53,31,138480,120
58,31,138600,120
46,44,138720,120
50,32,138840,120
53,32,138960,120
58,32,139080,120
46,44,139200,120
50,33,139320,120
53,33,139440,120
58,33,139560,120
46,44,139680,120
50,33,139800,120
53,33,139920,120
58,33,140040,120
46,44,140160,120
51,31,140280,120
55,31,140400,120
58,31,140520,120
46,42,140640,120
51,28,140760,120
55,28,140880,120
58,28,141000,120
46,41,141120,120
51,29,141240,120
53,29,141360,120
57,29,141480,120
46,41,141600,120
51,31,141720,120
53,31,141840,120
57,31,141960,120
46,44,142080,120
50,31,142200,120
53,31,142320,120
58,31,142440,120
46,44,142560,120
50,32,142680,120
53,32,142800,120
58,32,142920,120
46,44,143040,120
50,32,143160,120
53,32,143280,120
56,32,143400,120
46,44,143520,120
50,32,143640,120
53,32,143760,120
56,32,143880,120
46,44,144000,120
51,32,144120,120
55,32,144240,120
51,32,144360,120
46,44,144480,120
51,36,144600,120
55,36,144720,120
51,36,144840,120
46,48,144960,120
48,37,145080,120
51,38,145200,120
53,40,145320,120
46,50,145440,120
48,40,145560,120
51,39,145680,120
53,43,145800,120
46,60,145920,120
46,53,146400,120
45,46,146520,120
46,53,146640,120
43,46,146760,120
41,60,146880,120
51,53,147360,120
50,46,147480,120
51,53,147600,120
48,46,147720,120
46,60,147840,120
58,53,148320,120
57,46,148440,120
58,53,148560,120
55,46,148680,120
53,60,148800,120
63,60,149280,120
62,52,149400,120
63,60,149520,120
60,52,149640,120
58,69,149760,120
60,53,150000,120
62,48,150120,120
63,54,150240,120
65,48,150360,120
67,48,150480,120
69,49,150600,120
70,56,150720,120
69,50,150840,120
70,50,150960,120
72,51,151080,120
74,58,151200,120
72,52,151320,120
74,52,151440,120
76,53,151560,120
77,73,151680,120
53,60,152160,120
46,65,153120,120
45,57,153240,120
46,62,153360,120
41,55,153480,120
50,65,153600,120
49,58,153720,120
50,63,153840,120
46,57,153960,120
53,65,154080,120
52,58,154200,120
53,63,154320,120
50,57,154440,120
58,65,154560,120
57,58,154680,120
58,63,154800,120
53,57,154920,120
62,63,155040,120
61,58,155160,120
62,62,155280,120
58,57,155400,120
65,72,155520,840
63,63,156360,120
62,71,156480,360
60,63,156840,120
58,72,156960,360
56,63,157320,120
55,72,157440,960
56,48,158400,480
54,42,158880,480
55,51,159360,480
52,44,159840,480
53,52,160320,480
50,34,160800,480
36,51,161280,240
48,51,161280,240
60,42,161520,137
60,42,161760,137
60,42,162000,137
60,51,162240,137
60,43,162480,137
60,43,162720,137
60,43,162960,137
60,51,163200,137
60,42,163440,137
60,42,163680,137
60,42,163920,137
60,51,164160,137
60,43,164400,137
60,43,164640,137
60,43,164880,144
36,51,165120,240
48,51,165120,240
60,42,165360,137
60,42,165600,137
60,42,165840,137
60,51,166080,137
60,43,166320,137
60,43,166560,137
60,43,166800,137
60,51,167040,137
60,42,167280,137
60,42,167520,137
60,42,167760,137
60,51,168000,137
60,43,168240,137
60,43,168480,137
60,43,168720,144
48,51,168960,228
60,43,169200,137
60,43,169440,137
60,43,169680,144
48,51,169920,228
60,43,170160,137
60,43,170400,137
60,43,170640,144
48,51,170880,480
53,31,172920,132
55,36,173040,132
57,31,173160,132
58,36,173280,132
60,31,173400,132
62,36,173520,132
64,29,173640,132
65,36,173760,132
64,29,173880,132
65,36,174000,132
64,29,174120,132
65,36,174240,132
64,27,174360,132
65,34,174480,132
64,26,174600,120
65,30,174720,132
64,25,174840,132
65,30,174960,132
64,25,175080,132
65,30,175200,132
64,25,175320,132
65,30,175440,132
64,25,175560,132
65,30,175680,132
64,25,175800,132
65,30,175920,132
64,25,176040,132
65,30,176160,132
64,25,176280,132
65,30,176400,132
64,25,176520,120
65,30,176640,120
53,31,176760,132
55,36,176880,132
57,31,177000,132
58,36,177120,132
60,31,177240,132
62,36,177360,132
64,29,177480,132
65,36,177600,132
64,29,177720,132
65,36,177840,132
64,29,177960,132
65,36,178080,132
64,27,178200,132
65,34,178320,132
64,26,178440,120
65,30,178560,132
64,25,178680,132
65,30,178800,132
64,25,178920,132
65,30,179040,132
64,25,179160,132
65,30,179280,132
64,25,179400,132
65,30,179520,132
64,25,179640,132
65,30,179760,132
64,25,179880,132
65,30,180000,132
63,25,180120,132
65,30,180240,132
63,25,180360,120
61,39,180480,180
62,34,180600,120
61,39,180720,180
62,35,180840,120
59,41,180960,180
60,35,181080,120
59,42,181200,180
60,36,181320,120
56,44,181440,180
57,37,181560,120
56,45,181680,180
57,37,181800,120
53,44,181920,180
54,38,182040,120
53,44,182160,180
54,39,182280,120
49,45,182400,180
50,39,182520,120
49,46,182640,180
50,40,182760,120
47,48,182880,180
48,41,183000,120
47,48,183120,180
48,41,183240,120
44,54,183360,180
45,42,183480,120
44,52,183600,180
45,43,183720,120
41,55,183840,180
42,44,183960,120
41,51,184080,180
42,44,184200,120
37,57,184320,180
38,44,184440,120
37,51,184560,180
38,44,184680,120
37,56,184800,180
38,50,184920,120
37,57,185040,180
38,44,185160,110
38,61,185280,180
39,52,185400,120
38,58,185520,180
39,52,185640,120
39,58,185760,180
40,44,185880,120
39,54,186000,180
40,44,186120,120
40,56,186240,180
41,48,186360,120
40,51,186480,180
41,44,186600,120
40,51,186720,180
41,44,186840,120
40,51,186960,180
41,44,187080,110
33,51,187200,180
34,44,187320,120
33,51,187440,180
34,44,187560,110
35,51,187680,180
36,44,187800,120
35,51,187920,180
36,44,188040,110
29,48,188160,240
53,54,189120,950
57,64,189120,960
50,41,190080,470
53,49,190080,480
46,41,190560,240
50,49,190560,240
55,54,191040,720
58,64,191040,720
53,41,191760,240
57,49,191760,240
52,49,192000,470
55,58,192000,480
48,44,192480,240
52,52,192480,240
57,54,192960,950
60,64,192960,960
53,41,193920,470
57,49,193920,480
50,41,194400,240
53,49,194400,240
58,54,194880,720
62,64,194880,720
57,41,195600,240
60,49,195600,240
55,49,195840,470
58,58,195840,480
52,44,196320,240
55,52,196320,240
58,54,196800,720
67,64,196800,720
57,41,197520,240
65,49,197520,240
55,54,197760,720
64,64,197760,720
53,41,198480,240
62,41,198480,240
52,41,198720,480
60,49,198720,480
50,34,199200,480
53,41,199200,480
49,36,199680,480
52,43,199680,480
45,27,200160,480
52,32,200160,480
46,33,200640,480
50,39,200640,480
47,31,201120,480
48,38,201600,960
36,32,202560,960
29,35,203520,960
57,66,204480,720
53,55,204480,720
53,37,205200,120
57,44,205200,120
50,45,205440,120
53,53,205440,120
46,39,205920,120
50,47,205920,120
58,66,206400,720
55,55,206400,720
53,37,207120,120
57,44,207120,120
52,45,207360,120
55,53,207360,120
48,39,207840,120
52,47,207840,120
60,72,208320,720
57,60,208320,720
57,40,209040,120
60,48,209040,120
53,49,209280,120
57,58,209280,120
50,42,209760,120
53,51,209760,120
62,75,210240,720
58,62,210240,720
57,42,210960,120
60,50,210960,120
55,51,211200,120
58,60,211200,120
52,44,211680,120
55,53,211680,120
67,79,212160,720
58,66,212160,720
57,44,212880,120
65,52,212880,120
64,79,213120,720
55,66,213120,720
53,44,213840,120
62,52,213840,120
52,49,214080,120
60,58,214080,120
50,40,214560,120
53,49,214560,120
49,34,215040,1920
52,34,215040,1920
55,40,215040,1920
50,34,216960,1920
53,40,216960,1920
47,34,218880,1920
50,34,218880,1920
53,40,218880,1920
46,57,220800,1200
49,57,220800,1200
52,57,220800,1200
55,68,220800,1200
46,50,222000,120
48,50,222000,120
55,60,222000,120
46,61,222240,120
48,61,222240,120
55,72,222240,120
46,51,222480,120
48,51,222480,120
55,61,222480,120
45,73,222720,480
48,73,222720,480
53,73,222720,480
40,57,223440,120
48,68,223440,120
41,63,223680,120
48,75,223680,120
46,56,223920,120
48,67,223920,120
45,63,224160,120
48,75,224160,120
40,56,224400,120
48,67,224400,120
41,63,224640,120
48,75,224640,120
46,56,224880,120
48,67,224880,120
45,63,225120,120
48,75,225120,120
40,56,225360,120
48,67,225360,120
41,63,225600,120
48,75,225600,120
46,56,225840,120
48,67,225840,120
45,63,226080,120
48,75,226080,120
40,57,226320,120
48,68,226320,120
41,89,226560,960
38,80,227520,960
34,88,228480,960
36,84,229440,960
29,81,230400,120
46,54,230640,120
45,60,230880,120
40,54,231120,120
41,60,231360,120
46,52,231600,120
45,60,231840,120
40,58,232080,120
41,60,232320,120
46,52,232560,120
45,60,232800,120
40,58,233040,120
41,67,233280,120
43,59,233520,120
41,72,233760,120
40,67,234000,120
38,75,234240,120
36,77,234480,120
34,80,234720,120
33,82,234960,120
31,94,235200,1920
36,87,237120,960
29,30,238080,120
41,26,238200,120
29,30,238320,120
41,25,238440,120
29,30,238560,120
41,26,238680,120
29,30,238800,120
41,27,238920,120
29,30,239040,120
41,27,239160,120
29,30,239280,120
41,25,239400,120
29,30,239520,120
41,26,239640,120
29,30,239760,120
41,26,239880,120
29,30,240000,120
41,26,240120,120
29,30,240240,120
41,25,240360,120
29,30,240480,120
41,26,240600,120
29,30,240720,120
41,27,240840,120
29,30,240960,120
41,27,241080,120
29,30,241200,120
41,25,241320,120
29,30,241440,120
41,26,241560,120
29,30,241680,120
41,26,241800,120
29,30,241920,120
41,26,242040,120
29,30,242160,120
41,25,242280,120
29,30,242400,120
41,26,242520,120
29,30,242640,120
41,27,242760,120
29,30,242880,120
41,27,243000,120
29,35,243120,120
41,29,243240,120
29,34,243360,120
41,26,243480,120
29,35,243600,120
41,31,243720,120
29,38,243840,120
41,30,243960,120
29,34,244080,120
41,25,244200,120
29,33,244320,120
41,26,244440,120
29,30,244560,120
41,27,244680,120
29,30,244800,120
41,27,244920,120
29,30,245040,120
41,25,245160,120
29,30,245280,120
41,26,245400,120
29,30,245520,120
41,26,245640,120
29,30,245760,120
41,25,245880,120
29,29,246000,120
41,24,246120,120
29,28,246240,120
41,24,246360,120
29,28,246480,120
41,25,246600,120
29,27,246720,120
41,24,246840,120
29,27,246960,120
41,22,247080,120
29,26,247200,120
41,22,247320,120
29,25,247440,120
41,22,247560,120
29,25,247680,120
41,21,247800,120
29,24,247920,120
41,20,248040,120
29,24,248160,120
41,20,248280,120
29,23,248400,120
41,20,248520,120
29,22,248640,120
41,20,248760,120
29,22,248880,120
41,18,249000,120
29,22,249120,120
41,19,249240,120
29,22,249360,120
41,19,249480,120
29,56,249600,720
41,66,249600,720
31,49,250320,120
43,59,250320,120
33,56,250560,720
45,66,250560,720
34,50,251280,120
46,60,251280,120
36,57,251520,720
48,68,251520,720
38,47,252240,120
50,56,252240,120
40,53,252480,120
52,63,252480,120
41,50,252720,120
53,60,252720,120
43,55,252960,120
55,65,252960,120
45,51,253200,120
57,61,253200,120
46,61,253440,720
58,72,253440,720
45,52,254160,120
57,63,254160,120
43,59,254400,720
55,69,254400,720
41,51,255120,120
53,61,255120,120
40,58,255360,720
52,69,255360,720
38,47,256080,120
50,56,256080,120
36,52,256320,120
48,62,256320,120
34,49,256560,120
46,58,256560,120
33,52,256800,120
45,62,256800,120
31,48,257040,120
43,57,257040,120
29,58,257280,120
41,69,257280,120
48,34,257760,120
55,34,257760,120
58,41,257760,120
53,41,258240,120
57,49,258240,120
60,34,258720,120
67,34,258720,120
70,41,258720,120
65,41,259200,120
69,49,259200,120
48,56,260160,480
60,67,260160,480
41,64,261120,480
53,76,261120,480
48,42,263520,120
47,40,263640,120
48,45,263760,120
45,39,263880,120
53,50,264000,120
48,42,265440,120
47,40,265560,120
48,45,265680,120
45,39,265800,120
53,50,265920,120
41,56,266880,720
53,66,266880,720
43,49,267600,120
55,59,267600,120
45,56,267840,720
57,66,267840,720
46,50,268560,120
58,60,268560,120
48,57,268800,720
60,68,268800,720
50,47,269520,120
62,56,269520,120
51,53,269760,120
63,63,269760,120
50,50,270000,120
62,60,270000,120
48,55,270240,120
60,65,270240,120
50,51,270480,120
62,61,270480,120
51,57,270720,720
63,68,270720,720
50,44,271440,120
62,53,271440,120
48,50,271680,120
60,59,271680,120
46,47,271920,120
58,57,271920,120
45,52,272160,120
57,61,272160,120
46,48,272400,120
58,57,272400,120
48,54,272640,720
60,64,272640,720
46,43,273360,120
58,52,273360,120
45,47,273600,120
57,56,273600,120
43,44,273840,120
55,52,273840,120
42,46,274080,120
54,55,274080,120
40,42,274320,120
52,50,274320,120
38,30,274560,120
50,26,274680,120
38,30,274800,120
50,25,274920,120
38,30,275040,120
50,26,275160,120
38,30,275280,120
50,27,275400,120
38,30,275520,120
50,27,275640,120
38,30,275760,120
50,25,275880,120
38,30,276000,120
50,26,276120,120
38,30,276240,120
50,26,276360,120
38,30,276480,120
50,26,276600,120
38,30,276720,120
50,25,276840,120
38,30,276960,120
50,26,277080,120
38,30,277200,120
50,27,277320,120
38,30,277440,120
50,27,277560,120
38,30,277680,120
50,25,277800,120
38,30,277920,120
50,26,278040,120
38,30,278160,120
50,26,278280,120
38,30,278400,120
50,26,278520,120
38,30,278640,120
50,25,278760,120
38,30,278880,120
50,26,279000,120
38,30,279120,120
50,27,279240,120
38,30,279360,120
50,27,279480,120
38,30,279600,120
50,25,279720,120
38,30,279840,120
50,26,279960,120
38,30,280080,120
50,26,280200,120
38,30,280320,120
50,26,280440,120
38,30,280560,120
50,25,280680,120
38,30,280800,120
50,26,280920,120
38,30,281040,120
50,27,281160,120
38,30,281280,120
50,27,281400,120
38,30,281520,120
50,25,281640,120
38,30,281760,120
50,26,281880,120
38,30,282000,120
50,26,282120,120
38,30,282240,120
50,26,282360,120
38,30,282480,120
50,25,282600,120
38,30,282720,120
50,26,282840,120
38,30,282960,120
50,27,283080,120
38,30,283200,120
50,27,283320,120
38,30,283440,120
50,25,283560,120
38,30,283680,120
50,26,283800,120
38,30,283920,120
50,26,284040,120
38,30,284160,120
50,26,284280,120
38,30,284400,120
50,25,284520,120
38,30,284640,120
50,26,284760,120
38,30,284880,120
50,27,285000,120
38,24,285120,120
50,21,285240,120
38,24,285360,120
50,20,285480,120
38,24,285600,120
50,20,285720,120
38,24,285840,120
50,20,285960,120
38,97,286080,720
40,70,286800,120
42,68,287040,720
50,81,287040,720
43,57,287760,120
52,68,287760,120
48,64,288000,720
45,64,288000,720
54,76,288000,720
50,54,288720,120
46,54,288720,120
55,64,288720,120
54,61,288960,120
57,72,288960,120
55,56,289200,120
58,66,289200,120
57,62,289440,120
60,73,289440,120
58,56,289680,120
62,66,289680,120
60,64,289920,120
63,76,289920,120
43,97,293760,720
45,70,294480,120
47,68,294720,720
55,81,294720,720
48,57,295440,120
57,68,295440,120
53,64,295680,720
50,64,295680,720
59,76,295680,720
55,54,296400,120
51,54,296400,120
60,64,296400,120
59,61,296640,120
62,72,296640,120
60,56,296880,120
63,66,296880,120
62,62,297120,120
65,73,297120,120
63,56,297360,120
67,66,297360,120
65,64,297600,120
68,76,297600,120
36,97,301440,720
38,70,302160,120
40,68,302400,720
48,81,302400,720
41,57,303120,120
50,68,303120,120
46,64,303360,720
43,64,303360,720
52,76,303360,720
48,54,304080,120
44,54,304080,120
53,64,304080,120
52,61,304320,120
55,72,304320,120
53,56,304560,120
56,66,304560,120
55,62,304800,120
58,73,304800,120
56,56,305040,120
60,66,305040,120
58,64,305280,120
61,76,305280,120
46,76,307200,1920
49,67,307680,1440
52,67,308160,960
55,67,308640,480
44,76,309120,1920
48,67,309600,1440
53,67,310080,960
56,67,310560,480
44,76,311040,1920
48,67,311520,1440
53,67,312000,960
56,67,312480,480
43,76,312960,1920
50,67,313440,1440
53,67,313920,960
55,67,314400,480
43,76,314880,1920
47,67,315360,1440
50,67,315840,960
55,67,316320,480
43,76,316800,1920
48,67,317280,1440
51,66,317760,960
55,65,318240,480
42,73,318720,1920
48,64,319200,1440
51,63,319680,960
54,62,320160,480
41,70,320640,1920
48,61,321120,1440
51,60,321600,960
53,60,322080,480
41,67,322560,1920
45,58,323040,1440
48,58,323520,960
53,57,324000,480
41,64,324480,1920
46,56,324960,1440
49,56,325440,960
53,55,325920,480
40,62,326400,1920
46,54,326880,1440
49,53,327360,960
52,52,327840,480
39,59,328320,1920
46,51,328800,1440
49,50,329280,960
51,50,329760,480
39,56,330240,1920
46,48,330720,1440
49,48,331200,960
51,47,331680,480
39,49,332160,720
41,44,332880,240
43,49,333120,720
44,44,333840,240
46,47,334080,720
48,44,334800,240
49,46,335040,240
48,44,335280,240
46,46,335520,240
44,38,335760,240
43,47,336000,720
44,44,336720,240
46,46,336960,240
44,44,337200,240
43,46,337440,240
41,38,337680,240
39,47,337925,720
36,39,339840,720
38,35,340560,240
40,39,340800,720
41,35,341520,240
43,37,341760,720
44,35,342480,240
46,36,342720,240
44,35,342960,240
43,36,343200,240
41,30,343440,240
40,37,343680,720
41,35,344400,240
43,36,344640,240
41,35,344880,240
40,36,345120,240
38,30,345360,240
36,37,345600,720
29,39,347520,720
31,35,348240,240
33,39,348480,720
34,35,349200,240
36,37,349440,720
37,35,350160,240
39,36,350400,240
37,35,350640,240
36,36,350880,240
34,30,351120,240
33,37,351360,720
34,35,352080,240
36,36,352320,240
34,35,352560,240
33,36,352800,240
31,30,353040,240
29,37,353280,2880
36,36,356160,240
34,35,356400,240
33,36,356640,240
31,30,356880,240
29,37,357120,2880
36,41,360000,240
34,40,360240,240
33,41,360480,240
31,34,360720,240
29,42,360960,960
36,43,361920,240
34,43,362160,240
33,46,362400,240
31,39,362640,240
29,48,362880,960
36,51,363840,240
34,50,364080,240
33,52,364320,240
31,44,364560,240
29,56,364800,720
31,54,365520,240
33,59,365760,240
34,54,366000,240
36,62,366240,240
38,54,366480,240
39,59,366720,240
40,54,366960,240
41,64,367200,240
43,57,367440,240
45,59,367680,240
46,55,367920,240
48,66,368160,240
50,60,368400,240
51,63,368640,1920
41,63,368640,1920
41,50,370560,960
48,50,370560,960
41,42,371520,960
46,42,371520,960
41,20,372480,3120
45,20,372480,3120
53,25,372480,3120
34,30,376320,90
46,36,376320,90
34,27,376800,90
46,32,376800,90
34,30,378240,90
46,36,378240,90
34,27,378720,90
46,32,378720,90
46,44,382080,120
50,31,382200,120
53,31,382320,120
58,31,382440,120
46,44,382560,120
50,32,382680,120
53,32,382800,120
58,32,382920,120
46,44,383040,120
50,33,383160,120
53,33,383280,120
58,33,383400,120
46,44,383520,120
50,33,383640,120
53,33,383760,120
58,33,383880,120
46,44,384000,120
51,31,384120,120
55,31,384240,120
58,31,384360,120
46,42,384480,120
51,28,384600,120
55,28,384720,120
58,28,384840,120
46,41,384960,120
51,29,385080,120
53,29,385200,120
57,29,385320,120
46,41,385440,120
51,31,385560,120
53,31,385680,120
57,31,385800,120
46,44,385920,120
50,31,386040,120
53,31,386160,120
58,31,386280,120
46,44,386400,120
50,32,386520,120
53,32,386640,120
58,32,386760,120
46,44,386880,120
50,32,387000,120
53,32,387120,120
56,32,387240,120
46,44,387360,120
50,32,387480,120
53,32,387600,120
56,32,387720,120
46,44,387840,120
51,32,387960,120
55,32,388080,120
51,32,388200,120
46,44,388320,120
51,36,388440,120
55,36,388560,120
51,36,388680,120
46,48,388800,120
48,37,388920,120
51,38,389040,120
53,40,389160,120
46,50,389280,120
48,40,389400,120
51,39,389520,120
53,43,389640,120
46,60,389760,120
46,53,390240,120
45,46,390360,120
46,53,390480,120
43,46,390600,120
41,60,390720,120
51,53,391200,120
50,46,391320,120
51,53,391440,120
48,46,391560,120
46,60,391680,120
58,53,392160,120
57,46,392280,120
58,53,392400,120
55,46,392520,120
53,60,392640,120
63,60,393120,120
62,52,393240,120
63,60,393360,120
60,52,393480,120
58,69,393600,120
60,53,393840,120
62,48,393960,120
63,54,394080,120
65,48,394200,120
67,48,394320,120
69,49,394440,120
70,56,394560,120
69,50,394680,120
70,50,394800,120
72,51,394920,120
74,58,395040,120
72,52,395160,120
74,52,395280,120
76,53,395400,120
77,73,395520,120
53,60,396000,120
46,54,396960,120
50,65,396960,480
45,52,397080,120
46,58,397200,120
41,50,397320,120
50,65,397440,120
53,65,397440,120
46,58,397920,120
50,58,397920,120
46,54,398880,120
50,65,398880,480
45,52,399000,120
46,58,399120,120
41,50,399240,120
50,65,399360,120
53,65,399360,120
46,58,399840,120
50,58,399840,120
50,65,400800,120
49,57,400920,120
50,62,401040,120
46,55,401160,120
53,65,401280,120
52,58,401400,120
53,63,401520,120
50,57,401640,120
58,65,401760,120
57,58,401880,120
58,63,402000,120
53,57,402120,120
62,65,402240,120
61,58,402360,120
62,63,402480,120
58,57,402600,120
65,63,402720,120
64,58,402840,120
65,62,402960,120
62,57,403080,120
68,75,403200,840
67,63,404040,120
65,71,404160,360
63,63,404520,120
62,72,404640,360
60,63,405000,120
59,72,405120,960
60,48,406080,480
57,42,406560,480
58,51,407040,480
55,44,407520,480
56,52,408000,480
54,34,408480,480
55,51,408960,480
52,44,409440,480
53,52,409920,480
50,34,410400,480
51,51,410880,480
48,44,411360,480
50,52,411840,480
52,34,412320,480
41,51,412800,240
53,42,413040,137
53,42,413280,137
53,42,413520,137
53,51,413760,137
53,43,414000,137
53,43,414240,137
53,43,414480,137
53,51,414720,137
53,42,414960,137
53,42,415200,137
53,42,415440,137
53,51,415680,137
53,43,415920,137
53,43,416160,137
53,43,416400,144
41,46,416640,240
53,51,416640,240
65,42,416880,137
65,42,417120,137
65,42,417360,137
65,51,417600,137
65,43,417840,137
65,43,418080,137
65,43,418320,137
65,51,418560,137
65,42,418800,137
65,42,419040,137
65,42,419280,137
65,51,419520,137
65,43,419760,137
65,43,420000,137
65,43,420240,144
53,51,420480,228
65,43,420720,137
65,43,420960,137
65,43,421200,144
53,51,421440,228
65,43,421680,137
65,43,421920,137
65,43,422160,144
53,51,422400,480
58,31,424440,132
60,36,424560,132
62,31,424680,132
63,36,424800,132
65,31,424920,132
67,36,425040,132
69,29,425160,132
70,36,425280,132
69,29,425400,132
70,36,425520,132
69,29,425640,132
70,36,425760,132
69,27,425880,132
70,34,426000,132
69,26,426120,120
70,30,426240,132
69,25,426360,132
70,30,426480,132
69,25,426600,132
70,30,426720,132
69,25,426840,132
70,30,426960,132
69,25,427080,132
70,30,427200,132
69,25,427320,132
70,30,427440,132
69,25,427560,132
70,30,427680,132
69,25,427800,132
70,30,427920,132
69,25,428040,120
70,30,428160,120
58,31,428280,132
60,36,428400,132
62,31,428520,132
63,36,428640,132
65,31,428760,132
67,36,428880,132
69,29,429000,132
70,36,429120,132
69,29,429240,132
70,36,429360,132
69,29,429480,132
70,36,429600,132
69,27,429720,132
70,34,429840,132
69,26,429960,120
70,30,430080,132
69,25,430200,132
70,30,430320,132
69,25,430440,132
70,30,430560,132
69,25,430680,132
70,30,430800,132
69,25,430920,132
70,30,431040,132
69,25,431160,132
70,30,431280,132
69,25,431400,132
70,30,431520,132
68,25,431640,132
70,30,431760,132
68,25,431880,120
66,39,432000,180
67,34,432120,120
66,39,432240,180
67,35,432360,120
64,41,432480,180
65,35,432600,120
64,42,432720,180
65,36,432840,120
61,44,432960,180
62,37,433080,120
61,45,433200,180
62,37,433320,120
58,44,433440,180
59,38,433560,120
58,44,433680,180
59,39,433800,120
54,45,433920,180
55,39,434040,120
54,46,434160,180
55,40,434280,120
52,48,434400,180
53,41,434520,120
52,48,434640,180
53,41,434760,120
49,54,434880,180
50,42,435000,120
49,52,435120,180
50,43,435240,120
46,55,435360,180
47,44,435480,120
46,51,435600,180
47,44,435720,120
42,57,435840,180
43,44,435960,120
42,51,436080,180
43,44,436200,120
42,56,436320,180
43,50,436440,120
42,57,436560,180
43,44,436680,110
43,61,436800,180
44,52,436920,120
43,58,437040,180
44,52,437160,120
44,58,437280,180
45,44,437400,120
44,54,437520,180
45,44,437640,120
45,56,437760,180
46,48,437880,120
45,51,438000,180
46,44,438120,120
45,51,438240,180
46,44,438360,120
45,51,438480,180
46,44,438600,110
38,51,438720,180
39,44,438840,120
38,51,438960,180
39,44,439080,110
40,51,439200,180
41,44,439320,120
40,51,439440,180
41,44,439560,110
34,48,439680,240
58,54,440640,950
62,64,440640,960
55,41,441600,470
58,49,441600,480
51,41,442080,240
55,49,442080,240
60,54,442560,720
63,64,442560,720
58,41,443280,240
62,49,443280,240
57,49,443520,470
60,58,443520,480
53,44,444000,240
57,52,444000,240
62,54,444480,950
65,64,444480,960
58,41,445440,470
62,49,445440,480
55,41,445920,240
58,49,445920,240
63,54,446400,720
67,64,446400,720
62,41,447120,240
65,49,447120,240
60,49,447360,470
63,58,447360,480
57,44,447840,240
60,52,447840,240
63,54,448320,720
72,64,448320,720
62,41,449040,240
70,49,449040,240
60,54,449280,720
69,64,449280,720
58,41,450000,240
67,41,450000,240
57,41,450240,480
65,49,450240,480
55,34,450720,480
58,41,450720,480
54,36,451200,480
57,43,451200,480
50,27,451680,480
57,32,451680,480
51,33,452160,480
55,39,452160,480
58,40,452640,480
52,31,452640,480
53,38,453120,960
41,32,454080,960
34,35,455040,960
62,66,456000,720
58,55,456000,720
58,37,456720,120
62,44,456720,120
55,45,456960,120
58,53,456960,120
51,39,457440,120
55,47,457440,120
63,66,457920,720
60,55,457920,720
58,37,458640,120
62,44,458640,120
57,45,458880,120
60,53,458880,120
53,39,459360,120
57,47,459360,120
65,72,459840,720
62,60,459840,720
62,40,460560,120
65,48,460560,120
58,49,460800,120
62,58,460800,120
55,42,461280,120
58,51,461280,120
67,75,461760,720
63,62,461760,720
62,42,462480,120
65,50,462480,120
60,51,462720,120
63,60,462720,120
57,44,463200,120
60,53,463200,120
72,79,463680,720
63,66,463680,720
62,44,464400,120
70,52,464400,120
69,79,464640,720
60,66,464640,720
58,44,465360,120
67,52,465360,120
57,49,465600,120
65,58,465600,120
55,40,466080,120
58,49,466080,120
54,34,466560,1920
57,34,466560,1920
60,40,466560,1920
55,34,468480,1920
58,40,468480,1920
52,34,470400,1920
55,40,470400,1920
51,57,472320,1200
54,68,472320,1200
51,50,473520,120
53,50,473520,120
60,60,473520,120
51,61,473760,120
53,61,473760,120
60,72,473760,120
51,51,474000,120
53,51,474000,120
60,61,474000,120
50,73,474240,480
53,73,474240,480
58,73,474240,480
45,57,474960,120
53,68,474960,120
46,63,475200,120
53,75,475200,120
51,56,475440,120
53,67,475440,120
50,63,475680,120
53,75,475680,120
45,56,475920,120
53,67,475920,120
46,63,476160,120
53,75,476160,120
51,56,476400,120
53,67,476400,120
50,63,476640,120
53,75,476640,120
45,56,476880,120
53,67,476880,120
46,63,477120,120
53,75,477120,120
51,56,477360,120
53,67,477360,120
50,63,477600,120
53,75,477600,120
45,57,477840,120
53,68,477840,120
46,89,478080,960
43,80,479040,960
39,88,480000,960
41,84,480960,960
34,81,481920,120
51,54,482160,120
50,60,482400,120
45,54,482640,120
46,60,482880,120
51,52,483120,120
50,60,483360,120
45,58,483600,120
46,60,483840,120
51,52,484080,120
50,60,484320,120
45,58,484560,120
46,67,484800,120
48,59,485040,120
46,72,485280,120
45,67,485520,120
43,75,485760,120
41,77,486000,120
39,80,486240,120
38,82,486480,120
36,94,486720,1920
29,73,488640,960
41,87,488640,960
34,30,489600,120
46,26,489720,120
34,30,489840,120
46,25,489960,120
34,30,490080,120
46,26,490200,120
34,30,490320,120
46,27,490440,120
34,30,490560,120
46,27,490680,120
34,30,490800,120
46,25,490920,120
34,30,491040,120
46,26,491160,120
34,30,491280,120
46,26,491400,120
34,30,491520,120
46,26,491640,120
34,30,491760,120
46,25,491880,120
34,30,492000,120
46,26,492120,120
34,30,492240,120
46,27,492360,120
34,30,492480,120
46,27,492600,120
34,30,492720,120
46,25,492840,120
34,30,492960,120
46,26,493080,120
34,30,493200,120
46,26,493320,120
34,30,493440,120
46,26,493560,120
34,30,493680,120
46,25,493800,120
34,30,493920,120
46,26,494040,120
34,30,494160,120
46,27,494280,120
34,30,494400,120
46,27,494520,120
34,35,494640,120
46,29,494760,120
34,34,494880,120
46,26,495000,120
34,35,495120,120
46,31,495240,120
34,38,495360,120
46,30,495480,120
34,34,495600,120
46,25,495720,120
34,33,495840,120
46,26,495960,120
34,30,496080,120
46,27,496200,120
34,30,496320,120
46,27,496440,120
34,30,496560,120
46,25,496680,120
34,30,496800,120
46,26,496920,120
34,30,497040,120
46,26,497160,120
34,30,497280,120
46,25,497400,120
34,29,497520,120
46,24,497640,120
34,28,497760,120
46,24,497880,120
34,28,498000,120
46,25,498120,120
34,27,498240,120
46,24,498360,120
34,27,498480,120
46,22,498600,120
34,26,498720,120
46,22,498840,120
34,25,498960,120
46,22,499080,120
34,25,499200,120
46,21,499320,120
34,24,499440,120
46,20,499560,120
34,24,499680,120
46,20,499800,120
34,23,499920,120
46,20,500040,120
34,22,500160,120
46,20,500280,120
34,22,500400,120
46,18,500520,120
34,22,500640,120
46,19,500760,120
34,22,500880,120
46,19,501000,120
34,56,501120,720
46,66,501120,720
36,49,501840,120
48,59,501840,120
38,56,502080,720
50,66,502080,720
39,50,502800,120
51,60,502800,120
41,57,503040,720
53,68,503040,720
43,47,503760,120
55,56,503760,120
45,53,504000,120
57,63,504000,120
46,50,504240,120
58,60,504240,120
48,55,504480,120
60,65,504480,120
50,51,504720,120
62,61,504720,120
51,61,504960,720
63,72,504960,720
50,52,505680,120
62,63,505680,120
48,59,505920,720
60,69,505920,720
46,51,506640,120
58,61,506640,120
45,58,506880,720
57,69,506880,720
43,47,507600,120
55,56,507600,120
41,52,507840,120
53,62,507840,120
39,49,508080,120
51,58,508080,120
38,52,508320,120
50,62,508320,120
36,48,508560,120
48,57,508560,120
34,58,508800,120
46,69,508800,120
53,34,509280,120
60,34,509280,120
63,41,509280,120
58,41,509760,120
62,49,509760,120
65,34,510240,120
72,34,510240,120
75,41,510240,120
70,41,510720,120
74,49,510720,120
41,56,511680,480
53,67,511680,480
34,64,512640,480
46,76,512640,480
