note,velocity,position,duration
63,69,0,720
67,69,0,720
72,82,0,720
67,70,840,120
75,78,960,360
72,70,1320,120
79,79,1440,360
75,70,1800,120
84,79,1920,360
79,70,2280,120
87,84,2400,120
87,84,2880,120
67,39,3840,240
72,46,3840,240
67,42,4320,960
72,50,4320,960
67,39,5280,470
71,46,5290,470
68,69,5760,720
65,69,5760,720
71,82,5760,720
71,70,6600,120
77,78,6720,360
74,70,7080,120
83,79,7200,360
77,70,7560,120
86,79,7680,360
83,70,8040,120
89,84,8160,120
89,84,8640,120
71,39,9600,240
74,46,9600,240
71,42,10080,960
74,50,10080,960
72,46,11040,360
72,45,11400,60
75,48,11460,60
79,53,11520,720
77,41,12240,240
75,51,12480,480
74,47,12960,960
72,39,13920,360
67,27,14280,40
72,45,14320,40
75,48,14360,40
79,53,14400,720
77,41,15120,240
72,43,15360,480
75,51,15360,480
71,39,15840,960
74,47,15840,960
72,39,16800,360
67,60,17160,40
72,63,17200,40
75,69,17240,40
67,69,17280,720
79,81,17280,720
77,61,18000,240
65,51,18000,240
75,73,18240,960
63,62,18240,960
74,72,19200,120
62,61,19200,120
72,75,19680,960
60,63,19680,960
59,63,20640,120
71,75,20640,120
56,62,21120,960
68,74,21120,960
55,57,22080,240
67,67,22080,240
59,42,23520,160
62,35,23680,160
65,35,23840,160
68,43,24000,160
67,36,24160,160
65,36,24320,160
63,43,24480,120
53,42,26400,160
56,35,26560,160
62,35,26720,160
65,43,26880,160
63,36,27040,160
62,36,27200,160
60,43,27360,120
55,66,29280,160
59,69,29440,160
62,72,29600,160
65,75,29760,160
62,67,29920,160
59,67,30080,160
55,79,30240,720
51,79,30240,720
60,94,30240,720
60,70,31080,120
67,78,31200,360
63,70,31560,120
72,85,31680,360
67,72,32040,120
75,80,32160,360
72,83,32520,120
79,96,32640,120
67,81,32640,120
79,96,33120,120
67,81,33120,120
59,70,33960,120
67,78,34080,360
62,70,34440,120
71,85,34560,360
67,74,34920,120
74,86,35040,360
71,83,35400,120
79,96,35520,120
67,81,35520,120
79,96,36000,120
67,81,36000,120
63,70,36840,120
67,78,36960,360
63,70,37320,120
72,85,37440,360
67,74,37800,120
75,86,37920,360
72,83,38280,120
79,90,38400,360
75,83,38760,120
74,96,38880,120
89,96,39360,120
71,96,40320,120
86,96,40800,120
72,96,41760,120
84,96,42240,120
67,50,46560,960
75,45,47040,480
68,42,47520,1440
75,50,47520,960
75,45,48480,960
67,42,48960,1440
77,45,49440,480
73,44,49920,960
68,42,50400,1440
71,45,50880,480
72,45,51360,480
76,50,52320,960
84,45,52800,480
77,42,53280,1440
84,50,53280,960
84,45,54240,960
76,42,54720,1440
85,45,55200,480
82,44,55680,960
72,42,56160,1440
79,45,56640,480
80,45,57120,480
72,50,58080,960
80,45,58560,480
73,42,59040,1440
80,50,59040,960
80,45,60000,960
72,42,60480,1440
82,45,60960,480
78,44,61440,960
68,49,61920,1440
76,52,62400,480
77,52,62880,960
69,50,63360,1440
78,55,63840,480
75,50,64320,960
65,42,64800,1440
75,45,65280,480
74,45,65760,960
66,42,66240,960
75,45,66720,480
63,28,67200,480
66,33,67200,480
62,32,67680,480
65,38,67680,480
72,38,69600,240
72,38,70080,240
72,46,70560,480
70,38,71040,480
68,38,72480,240
68,38,72960,240
68,43,73440,480
67,38,73920,480
72,37,75120,240
71,38,75360,240
72,34,75600,240
74,43,75840,240
72,38,76080,240
70,36,76560,240
69,38,76800,240
70,36,77040,240
72,44,77280,240
70,38,77520,240
68,36,78000,240
67,38,78240,240
68,35,78480,240
70,44,78720,240
68,37,78960,240
67,46,79200,2160
70,56,81360,240
75,62,81600,470
75,63,82080,1440
74,57,83520,480
70,51,84960,1440
70,61,86400,240
72,57,86640,80
70,52,86720,80
69,52,86800,80
70,61,86880,240
77,65,87120,240
80,73,87360,480
80,74,87840,1440
79,69,89280,480
67,56,90720,120
68,58,90960,120
70,60,91200,120
72,62,91440,120
74,64,91680,120
75,65,91920,120
77,70,92160,120
79,73,92400,120
80,76,92640,120
82,78,92880,120
84,81,93120,120
86,84,93360,120
87,91,93600,1440
86,71,95040,480
58,56,96480,120
60,58,96720,120
62,60,96960,120
63,62,97200,120
65,64,97440,120
67,65,97680,120
68,67,97920,120
70,72,98160,120
72,74,98400,120
74,76,98640,120
75,78,98880,120
77,80,99120,120
79,94,99360,1440
87,100,100800,960
55,77,101760,480
56,82,102240,1440
57,84,103680,1440
58,84,105120,1440
56,84,106560,120
58,57,106680,120
56,61,106800,80
58,57,106880,80
56,64,106960,80
58,56,107040,80
56,64,107120,80
58,56,107200,80
56,64,107280,80
58,55,107360,80
56,64,107440,80
58,54,107520,120
56,59,107640,120
55,55,107760,120
56,57,107880,120
55,74,108000,240
58,60,108240,240
63,68,108480,240
58,61,108720,240
63,69,108960,240
67,63,109200,240
70,69,109440,240
67,60,109680,240
70,69,109920,240
75,62,110160,240
79,73,110400,240
82,65,110640,240
87,89,110880,240
63,84,111840,1440
55,81,113280,480
56,84,113760,960
63,84,114720,480
57,92,115200,960
63,84,116160,480
58,77,116640,240
63,59,116880,240
62,68,117120,240
63,55,117360,240
59,65,117600,240
63,59,117840,240
60,82,118080,240
63,62,118320,240
62,71,118560,240
63,59,118800,240
57,66,119040,240
63,56,119280,240
58,88,119520,240
63,58,119760,240
61,72,120000,240
63,62,120240,240
59,72,120480,240
63,64,120720,240
60,88,120960,240
63,65,121200,240
62,75,121440,240
63,65,121680,240
57,80,121920,240
63,72,122160,240
58,93,122400,480
63,81,123240,120
70,87,123360,360
67,84,123720,120
75,93,123840,120
63,81,124680,120
69,87,124800,360
66,84,125160,120
75,93,125280,120
63,81,126120,120
70,87,126240,360
67,84,126600,120
75,93,126720,120
72,81,127560,120
78,87,127680,360
75,84,128040,120
79,95,128160,720
75,85,128880,240
75,93,129120,240
70,79,129360,180
70,88,129600,240
67,78,129840,180
67,85,130080,240
63,77,130320,180
63,81,130560,240
58,77,130800,180
58,66,133440,480
62,78,133440,480
58,70,133920,480
63,83,133920,480
70,53,135840,480
65,42,135840,480
68,42,135840,480
62,42,135840,480
62,38,136320,480
65,38,136320,480
68,38,136320,480
70,48,136320,480
63,42,136800,960
67,42,136800,960
72,53,136800,480
70,49,137280,480
65,42,138720,480
68,42,138720,480
74,53,138720,480
65,38,139200,480
68,38,139200,480
74,48,139200,480
67,42,139680,960
70,42,139680,960
77,53,139680,480
75,49,140160,480
62,42,141600,480
65,42,141600,480
68,42,141600,480
70,53,141600,480
70,48,142080,480
65,38,142080,480
68,38,142080,480
62,38,142080,480
63,42,142560,960
67,42,142560,960
72,53,142560,480
70,49,143040,480
53,42,144480,480
56,42,144480,480
62,53,144480,480
53,38,144960,480
56,38,144960,480
62,48,144960,480
55,42,145440,960
58,42,145440,960
65,53,145440,480
63,49,145920,480
53,42,147360,480
56,42,147360,480
62,53,147360,480
53,38,147840,480
56,38,147840,480
62,48,147840,480
56,42,148320,1440
62,42,148320,1440
65,53,148320,1440
58,44,149760,480
63,49,149760,480
63,69,151200,720
67,69,151200,720
72,82,151200,720
67,70,152040,120
75,78,152160,360
72,70,152520,120
79,79,152640,360
75,70,153000,120
84,79,153120,360
79,70,153480,120
87,84,153600,120
87,84,154080,120
67,39,155040,240
72,46,155040,240
67,42,155520,960
72,50,155520,960
67,39,156480,470
71,46,156490,470
68,69,156960,720
65,69,156960,720
71,82,156960,720
71,70,157800,120
77,78,157920,360
74,70,158280,120
83,79,158400,360
77,70,158760,120
86,79,158880,360
83,70,159240,120
89,84,159360,120
89,84,159840,120
71,39,160800,240
74,46,160800,240
71,42,161280,960
74,50,161280,960
72,46,162240,360
72,45,162600,60
75,48,162660,60
79,53,162720,720
77,41,163440,240
75,51,163680,480
74,47,164160,960
72,39,165120,360
67,27,165480,40
72,45,165520,40
75,48,165560,40
79,53,165600,720
77,41,166320,240
72,43,166560,480
75,51,166560,480
71,39,167040,960
74,47,167040,960
72,39,168000,360
67,60,168360,40
72,63,168400,40
75,69,168440,40
67,69,168480,720
79,81,168480,720
77,61,169200,240
65,51,169200,240
75,73,169440,960
63,62,169440,960
74,72,170400,120
62,61,170400,120
72,75,170880,960
60,63,170880,960
59,63,171840,120
71,75,171840,120
56,62,172320,960
68,74,172320,960
55,58,173280,240
67,68,173280,240
59,42,174720,160
62,35,174880,160
65,35,175040,160
68,43,175200,160
67,36,175360,160
65,36,175520,160
63,43,175680,120
53,42,177600,160
56,35,177760,160
62,35,177920,160
65,43,178080,160
63,36,178240,160
62,36,178400,160
60,43,178560,120
55,66,180480,160
59,69,180640,160
62,72,180800,160
65,75,180960,160
62,67,181120,160
59,67,181280,160
55,79,181440,720
51,79,181440,720
60,94,181440,720
60,70,182280,120
67,78,182400,360
63,70,182760,120
72,85,182880,360
67,72,183240,120
75,80,183360,360
72,83,183720,120
79,96,183840,120
67,81,183840,120
79,96,184320,120
67,81,184320,120
59,70,185160,120
67,78,185280,360
62,70,185640,120
71,85,185760,360
67,74,186120,120
74,86,186240,360
71,83,186600,120
79,96,186720,120
67,81,186720,120
79,96,187200,120
67,81,187200,120
63,70,188040,120
67,78,188160,360
63,70,188520,120
72,85,188640,360
67,74,189000,120
75,86,189120,360
72,83,189480,120
79,90,189600,360
75,83,189960,120
74,96,190080,120
89,96,190560,120
71,96,191520,120
86,96,192000,120
72,96,192960,120
84,96,193440,120
67,50,197760,960
75,45,198240,480
68,42,198720,1440
75,50,198720,960
75,45,199680,960
67,42,200160,1440
77,45,200640,480
73,44,201120,960
68,42,201600,1440
71,45,202080,480
72,45,202560,480
76,50,203520,960
84,45,204000,480
77,42,204480,1440
84,50,204480,960
84,45,205440,960
76,42,205920,1440
85,45,206400,480
82,44,206880,960
72,42,207360,1440
79,45,207840,480
80,45,208320,480
72,50,209280,960
80,45,209760,480
73,42,210240,1440
80,50,210240,960
80,45,211200,960
72,42,211680,1440
82,45,212160,480
78,44,212640,960
68,49,213120,1440
76,52,213600,480
77,52,214080,960
69,50,214560,1440
78,55,215040,480
75,50,215520,960
65,42,216000,1440
75,45,216480,480
74,45,216960,960
66,42,217440,960
75,45,217920,480
63,28,218400,480
66,33,218400,480
62,32,218880,480
65,38,218880,480
72,38,220800,240
72,38,221280,240
72,46,221760,480
70,38,222240,480
68,38,223680,240
68,38,224160,240
68,43,224640,480
67,38,225120,480
72,37,226320,240
71,38,226560,240
72,34,226800,240
74,43,227040,240
72,38,227280,240
70,36,227760,240
69,38,228000,240
70,36,228240,240
72,44,228480,240
70,38,228720,240
68,36,229200,240
67,38,229440,240
68,35,229680,240
70,44,229920,240
68,37,230160,240
67,46,230400,2160
70,56,232560,240
75,62,232800,470
75,63,233280,1440
74,57,234720,480
70,51,236160,1440
70,61,237600,240
72,57,237840,80
70,52,237920,80
69,52,238000,80
70,61,238080,240
77,65,238320,240
80,75,238560,480
80,78,239040,1440
79,69,240480,480
67,56,241920,120
68,58,242160,120
70,60,242400,120
72,62,242640,120
74,64,242880,120
75,65,243120,120
77,68,243360,120
79,70,243600,120
80,73,243840,120
82,76,244080,120
84,79,244320,120
86,81,244560,120
87,88,244800,1440
86,81,246240,480
58,56,247680,120
60,58,247920,120
62,60,248160,120
63,62,248400,120
65,64,248640,120
67,65,248880,120
68,67,249120,120
70,70,249360,120
72,73,249600,120
74,76,249840,120
75,79,250080,120
77,82,250320,120
79,89,250560,1440
87,100,252000,960
55,77,252960,480
56,82,253440,1440
57,84,254880,1440
58,84,256320,1440
56,84,257760,120
58,57,257880,120
56,61,258000,80
58,57,258080,80
56,64,258160,80
58,56,258240,80
56,64,258320,80
58,56,258400,80
56,64,258480,80
58,55,258560,80
56,64,258640,80
58,54,258720,120
56,59,258840,120
55,55,258960,120
56,57,259080,120
55,74,259200,240
58,60,259440,240
63,68,259680,240
58,61,259920,240
63,69,260160,240
67,63,260400,240
70,69,260640,240
67,60,260880,240
70,69,261120,240
75,62,261360,240
79,78,261600,240
82,73,261840,240
87,89,262080,240
63,84,263040,1440
55,81,264480,480
56,84,264960,960
63,84,265920,480
57,92,266400,960
63,84,267360,480
58,77,267840,240
63,60,268080,240
62,69,268320,240
63,55,268560,240
59,68,268800,240
63,61,269040,240
60,82,269280,240
63,63,269520,240
62,70,269760,240
63,62,270000,240
57,70,270240,240
63,61,270480,240
58,88,270720,240
63,66,270960,240
61,75,271200,240
63,62,271440,240
59,74,271680,240
63,65,271920,240
60,88,272160,240
63,65,272400,240
62,71,272640,240
63,65,272880,240
57,80,273120,240
63,72,273360,240
58,93,273600,480
63,81,274440,120
70,87,274560,360
67,84,274920,120
75,93,275040,120
63,81,275880,120
69,87,276000,360
66,84,276360,120
75,93,276480,120
63,81,277320,120
70,87,277440,360
67,84,277800,120
75,93,277920,120
72,81,278760,120
78,87,278880,360
75,84,279240,120
79,95,279360,720
75,85,280080,240
75,93,280320,240
70,79,280560,180
70,88,280800,240
67,78,281040,180
67,85,281280,240
63,77,281520,180
63,81,281760,240
58,77,282000,180
58,66,284640,480
62,78,284640,480
58,70,285120,480
63,83,285120,480
70,53,287040,480
65,42,287040,480
68,42,287040,480
62,42,287040,480
62,38,287520,480
65,38,287520,480
68,38,287520,480
70,48,287520,480
63,42,288000,960
67,42,288000,960
72,53,288000,480
70,49,288480,480
65,42,289920,480
68,42,289920,480
74,53,289920,480
65,38,290400,480
68,38,290400,480
74,48,290400,480
67,42,290880,960
70,42,290880,960
77,53,290880,480
75,49,291360,480
62,42,292800,480
65,42,292800,480
68,42,292800,480
70,53,292800,480
70,48,293280,480
65,38,293280,480
68,38,293280,480
62,38,293280,480
63,42,293760,960
67,42,293760,960
72,53,293760,480
70,49,294240,480
53,42,295680,480
56,42,295680,480
62,53,295680,480
53,38,296160,480
56,38,296160,480
62,48,296160,480
55,42,296640,960
58,42,296640,960
65,53,296640,480
63,49,297120,480
53,42,298560,480
56,42,298560,480
62,53,298560,480
53,38,299040,480
56,38,299040,480
62,48,299040,480
56,42,299520,1440
62,42,299520,1440
65,53,299520,1440
58,44,300960,480
63,49,300960,480
64,69,302400,720
67,69,302400,720
72,82,302400,720
67,70,303240,120
76,78,303360,360
72,70,303720,120
79,79,303840,360
76,70,304200,120
84,79,304320,360
79,70,304680,120
88,84,304800,120
88,84,305280,120
72,39,306240,240
76,46,306240,240
72,42,306720,960
76,50,306720,960
74,46,307680,470
71,39,307680,470
71,42,308160,720
74,50,308160,720
71,70,309000,120
77,78,309120,360
74,70,309480,120
83,79,309600,360
77,70,309960,120
86,79,310080,360
83,70,310440,120
89,84,310560,120
89,84,311040,120
74,39,312000,240
77,46,312000,240
74,42,312480,960
77,50,312480,960
76,46,313440,470
73,39,313440,470
73,42,313920,720
76,50,313920,720
70,70,314760,120
76,78,314880,360
73,70,315240,120
79,84,315360,360
76,70,315720,120
82,85,315840,360
79,70,316200,120
85,89,316320,120
67,87,316800,120
82,86,317280,120
64,85,318240,120
79,79,318720,120
65,42,319680,1440
77,50,319680,1440
84,53,321120,950
72,45,321120,950
84,50,322080,470
72,42,322080,470
84,54,322560,480
72,45,322560,480
83,50,323040,480
71,42,323040,480
85,50,323520,480
73,42,323520,480
72,42,324000,480
84,50,324000,480
82,50,324480,480
70,42,324480,480
79,50,324960,480
67,42,324960,480
76,56,325440,960
64,47,325440,960
67,50,326400,480
79,59,326400,480
84,65,326880,960
72,55,326880,960
79,59,327840,480
67,50,327840,480
70,54,328320,1440
82,64,328320,1440
80,58,329760,480
68,49,329760,480
69,48,330720,480
81,57,330720,480
70,52,331200,1440
82,62,331200,1440
89,66,332640,950
77,56,332640,950
89,62,333600,470
77,52,333600,470
89,68,334080,480
77,57,334080,480
88,62,334560,480
76,52,334560,480
90,62,335040,480
78,52,335040,480
77,52,335520,480
89,62,335520,480
87,62,336000,480
75,52,336000,480
84,62,336480,480
72,52,336480,480
81,70,336960,960
69,59,336960,960
72,61,337920,480
84,73,337920,480
89,81,338400,960
77,68,338400,960
84,73,339360,480
72,61,339360,480
75,68,339840,1440
87,80,339840,1440
85,72,341280,480
73,61,341280,480
73,61,342240,480
72,67,342720,960
75,61,343680,120
77,57,343800,80
75,61,343880,80
74,65,343960,80
75,69,344040,120
80,74,344160,960
75,66,345120,480
77,70,345600,480
76,61,346080,480
78,61,346560,480
77,70,347040,480
75,61,347520,480
72,61,348000,480
80,70,348480,480
79,61,348960,480
82,61,349440,480
80,70,349920,480
78,61,350400,480
75,61,350880,480
77,70,351360,480
76,61,351840,480
78,61,352320,480
77,70,352800,480
75,61,353280,480
72,61,353760,480
73,66,354240,1440
82,71,355680,950
73,57,355680,950
82,74,356640,470
73,60,356640,470
82,78,357120,2400
72,63,357120,2400
67,61,359520,480
70,72,359520,480
65,58,360000,1440
68,69,360000,1440
80,78,361440,950
77,62,361440,950
77,66,362400,480
80,81,362400,480
79,85,362880,2400
77,69,362880,2400
62,61,365280,480
65,72,365280,480
60,58,365760,480
63,69,365760,480
72,72,367200,950
84,85,367200,950
75,72,367200,950
72,71,368160,470
75,71,368160,470
84,84,368160,470
72,76,368640,1440
84,90,368640,1440
80,76,368640,1440
77,82,370080,950
89,97,370080,950
80,82,370080,950
77,81,371040,470
80,81,371040,470
89,96,371040,470
79,87,371520,2400
77,87,371520,2400
89,103,371520,2400
86,87,371520,2400
74,67,373920,480
77,79,373920,480
72,72,374400,960
75,85,374400,960
67,64,375360,960
75,76,375360,960
68,80,375840,960
65,62,376320,480
74,74,376320,480
63,60,376800,480
69,60,376800,480
72,71,376800,480
62,64,377280,480
67,64,377280,480
71,76,377280,480
71,48,378240,480
74,48,378240,480
79,57,378240,480
68,51,378720,480
72,51,378720,480
77,60,378720,480
67,47,379680,480
70,47,379680,480
75,56,379680,480
65,51,380160,480
68,51,380160,480
74,60,380160,480
63,48,381120,480
67,48,381120,480
72,57,381120,480
62,51,381600,480
65,51,381600,480
71,60,381600,480
60,45,382560,480
63,45,382560,480
68,54,382560,480
59,51,383040,480
62,51,383040,480
67,60,383040,480
71,43,384000,480
74,43,384000,480
79,51,384000,480
68,45,384480,480
72,45,384480,480
77,53,384480,480
67,40,385440,480
70,40,385440,480
75,48,385440,480
65,43,385920,480
68,43,385920,480
74,51,385920,480
63,39,386880,480
67,39,386880,480
72,47,386880,480
62,41,387360,480
65,41,387360,480
71,49,387360,480
60,35,388320,480
63,35,388320,480
68,42,388320,480
59,39,388800,480
62,39,388800,480
67,46,388800,480
60,34,389760,480
56,34,389760,480
65,41,389760,480
55,36,390240,480
60,36,390240,480
63,43,390240,480
53,32,391200,480
59,32,391200,480
62,38,391200,480
51,69,391680,720
55,69,391680,720
60,82,391680,720
67,70,392520,120
75,78,392640,360
72,70,393000,120
79,79,393120,360
75,70,393480,120
84,79,393600,360
79,70,393960,120
87,84,394080,120
87,84,394560,120
67,39,395520,240
72,46,395520,240
67,42,396000,960
72,50,396000,960
67,39,396960,470
71,46,396970,470
68,69,397440,720
65,69,397440,720
71,82,397440,720
71,70,398280,120
77,78,398400,360
74,70,398760,120
83,79,398880,360
77,70,399240,120
86,79,399360,360
83,70,399720,120
89,84,399840,120
89,84,400320,120
71,39,401280,240
74,46,401280,240
71,42,401760,960
74,50,401760,960
72,46,402720,360
72,45,403080,60
75,48,403140,60
79,53,403200,720
77,41,403920,240
75,51,404160,480
74,47,404640,960
72,39,405600,360
67,27,405960,40
72,45,406000,40
75,48,406040,40
79,53,406080,720
77,41,406800,240
72,43,407040,480
75,51,407040,480
71,39,407520,960
74,47,407520,960
72,39,408480,360
67,60,408840,40
72,63,408880,40
75,69,408920,40
67,69,408960,720
79,81,408960,720
77,61,409680,240
65,51,409680,240
75,73,409920,960
63,62,409920,960
74,72,410880,120
62,61,410880,120
72,75,411360,960
60,63,411360,960
59,63,412320,120
71,75,412320,120
56,62,412800,960
68,74,412800,960
55,57,413760,240
67,67,413760,240
59,42,415200,160
62,35,415360,160
65,35,415520,160
68,43,415680,160
67,36,415840,160
65,36,416000,160
63,43,416160,120
53,42,418080,160
56,35,418240,160
62,35,418400,160
65,43,418560,160
63,36,418720,160
62,36,418880,160
60,43,419040,120
55,66,420960,160
59,69,421120,160
62,72,421280,160
65,75,421440,160
62,67,421600,160
59,71,421760,160
60,94,421920,240
65,50,426720,960
73,45,427200,480
66,42,427680,1440
73,50,427680,960
73,45,428640,960
65,42,429120,1440
75,45,429600,480
71,44,430080,960
66,42,430560,1440
69,45,431040,480
70,45,431520,480
77,50,432480,960
85,45,432960,480
78,42,433440,1440
85,50,433440,960
85,45,434400,960
77,42,434880,1440
87,45,435360,480
83,44,435840,960
78,42,436320,1440
81,45,436800,480
82,45,437280,480
74,50,438240,960
82,45,438720,480
75,42,439200,1440
82,50,439200,960
82,45,440160,960
74,42,440640,1440
83,45,441120,480
80,44,441600,960
70,49,442080,1440
77,52,442560,480
78,52,443040,960
71,50,443520,1440
80,55,444000,480
77,50,444480,960
72,42,444960,1440
77,45,445440,480
76,45,445920,960
68,42,446400,960
77,45,446880,480
65,28,447360,480
68,33,447360,480
64,32,447840,480
67,38,447840,480
73,38,449760,240
73,38,450240,240
73,46,450720,480
72,38,451200,480
70,38,452640,240
70,38,453120,240
70,43,453600,480
69,38,454080,480
74,37,455280,240
73,38,455520,240
74,34,455760,240
76,43,456000,240
74,38,456240,240
72,36,456720,240
71,38,456960,240
72,36,457200,240
74,44,457440,240
72,38,457680,240
70,36,458160,240
69,38,458400,240
70,35,458640,240
72,44,458880,240
70,37,459120,240
69,46,459360,2160
72,56,461520,240
77,62,461760,480
77,63,462240,1440
76,57,463680,480
72,51,465120,1440
72,61,466560,240
74,57,466800,80
72,52,466880,80
71,52,466960,80
72,61,467040,240
79,71,467280,240
82,76,467520,480
82,78,468000,1440
81,69,469440,480
69,56,470880,120
70,58,471120,120
72,60,471360,120
74,62,471600,120
76,64,471840,120
77,65,472080,120
79,67,472320,120
81,71,472560,120
82,74,472800,120
84,77,473040,120
86,80,473280,120
88,83,473520,120
89,90,473760,1440
88,71,475200,480
60,56,476640,120
62,58,476880,120
64,60,477120,120
65,62,477360,120
67,64,477600,120
69,65,477840,120
70,71,478080,120
72,71,478320,120
74,73,478560,120
76,75,478800,120
77,82,479040,120
79,84,479280,120
80,92,479520,1920
79,77,481440,480
77,77,481920,480
75,84,482400,1080
77,57,483480,80
75,61,483560,80
74,65,483640,80
75,69,483720,120
79,84,483840,480
77,78,484320,480
74,78,484800,480
63,66,485280,2160
75,89,485280,2160
67,63,487440,240
79,84,487440,240
72,72,487680,480
84,97,487680,480
72,73,488160,1440
84,98,488160,1440
71,63,489600,480
83,85,489600,480
67,66,491040,2160
79,89,491040,2160
74,63,493200,240
86,84,493200,240
77,72,493440,470
89,97,493440,470
77,73,493920,1440
89,98,493920,1440
75,66,495360,480
87,88,495360,480
63,89,496800,240
67,75,497040,240
72,79,497280,240
67,79,497520,240
72,83,497760,240
75,89,498000,240
72,89,498240,240
75,77,498480,240
79,83,498720,240
75,89,498960,240
79,83,499200,240
84,89,499440,230
84,98,499680,1440
83,92,501120,480
55,80,502560,240
59,67,502800,240
62,71,503040,240
59,71,503280,240
62,74,503520,240
67,80,503760,240
62,80,504000,240
67,69,504240,240
71,74,504480,240
67,80,504720,240
71,74,504960,240
74,80,505200,240
75,86,505440,480
84,100,506400,1440
52,77,507840,480
53,82,508320,1440
54,84,509760,1440
55,84,511200,1440
53,84,512640,120
55,57,512760,120
53,61,512880,80
55,57,512960,80
53,64,513040,80
55,56,513120,80
53,64,513200,80
55,56,513280,80
53,64,513360,80
55,55,513440,80
53,64,513520,80
55,54,513600,120
53,59,513720,120
52,55,513840,120
53,57,513960,120
51,74,514080,240
55,60,514320,240
60,68,514560,240
55,61,514800,240
60,69,515040,240
63,63,515280,240
67,69,515520,240
63,60,515760,240
67,73,516000,240
72,68,516240,240
75,80,516480,240
79,73,516720,240
84,89,516960,240
60,84,517920,1440
52,81,519360,480
53,84,519840,960
60,84,520800,480
54,92,521280,960
60,84,522240,480
55,88,522720,240
60,62,522960,240
59,74,523200,240
60,62,523440,240
55,72,523680,240
60,62,523920,240
56,82,524160,240
60,62,524400,240
59,73,524640,240
60,64,524880,240
54,73,525120,240
60,62,525360,240
55,88,525600,240
60,63,525840,240
59,73,526080,240
60,62,526320,240
52,74,526560,240
60,65,526800,240
53,88,527040,240
60,64,527280,240
56,71,527520,240
60,65,527760,240
54,80,528000,240
60,72,528240,240
55,93,528480,480
67,81,529320,120
75,87,529440,360
72,84,529800,120
78,93,529920,120
66,81,530760,120
75,87,530880,360
72,84,531240,120
79,93,531360,120
67,81,532200,120
75,87,532320,360
72,84,532680,120
81,93,532800,120
69,81,533640,120
75,87,533760,360
72,84,534120,120
79,95,534240,720
75,85,534960,240
75,93,535200,240
72,79,535440,180
72,88,535680,240
67,78,535920,180
67,85,536160,240
63,77,536400,180
63,81,536640,240
60,77,536880,180
55,66,539520,480
59,78,539520,480
55,70,540000,480
60,83,540000,480
67,53,541920,480
62,42,541920,480
65,42,541920,480
59,42,541920,480
59,38,542400,480
62,38,542400,480
65,38,542400,480
67,48,542400,480
60,42,542880,960
63,42,542880,960
68,53,542880,480
67,49,543360,480
62,42,544800,480
65,42,544800,480
71,53,544800,480
62,38,545280,480
65,38,545280,480
71,48,545280,480
63,42,545760,960
67,42,545760,960
74,53,545760,480
72,49,546240,480
59,42,547680,480
62,42,547680,480
65,42,547680,480
67,53,547680,480
67,48,548160,480
62,38,548160,480
65,38,548160,480
59,38,548160,480
60,42,548640,960
63,42,548640,960
68,53,548640,480
67,49,549120,480
50,42,550560,480
53,42,550560,480
59,53,550560,480
50,38,551040,480
53,38,551040,480
59,48,551040,480
51,42,551520,960
55,42,551520,960
62,53,551520,480
60,49,552000,480
50,42,553440,480
53,42,553440,480
59,53,553440,480
50,38,553920,480
53,38,553920,480
59,48,553920,480
51,42,554400,480
55,42,554400,480
60,53,554400,480
67,82,555840,480
71,82,555840,480
74,82,555840,480
79,97,555840,480
60,82,557280,480
63,82,557280,480
67,82,557280,480
72,97,557280,480
60,70,0,720
55,59,0,720
51,59,0,720
48,59,0,720
60,34,3840,240
63,41,3840,240
63,41,4320,960
60,34,4320,960
62,32,5280,470
65,38,5280,470
53,59,5760,720
59,59,5760,720
56,59,5760,720
62,70,5760,720
50,59,5760,720
62,34,9600,240
68,41,9600,240
65,34,9600,240
68,41,10080,960
65,34,10080,960
62,34,10080,960
67,38,11040,480
63,32,11040,480
60,35,12480,480
55,29,12480,480
51,29,12480,480
53,33,12960,960
56,33,12960,960
59,39,12960,960
60,34,13920,480
55,28,13920,480
51,28,13920,480
63,29,15360,480
67,35,15360,480
68,39,15840,960
65,33,15840,960
63,28,16800,480
67,34,16800,480
55,39,18240,480
60,47,18240,480
51,39,18240,480
59,53,18720,960
53,45,18720,960
56,45,18720,960
55,46,19680,480
51,39,19680,480
50,46,20160,960
53,56,20160,960
51,49,21120,480
48,41,21120,480
50,47,21600,480
47,55,21600,480
56,34,24000,480
53,28,24000,480
50,28,24000,480
47,28,24000,480
55,34,24480,120
51,28,24480,120
48,28,24480,120
50,34,26880,480
44,28,26880,480
41,28,26880,480
48,28,27360,120
43,28,27360,120
51,34,27360,120
43,73,29760,240
31,73,29760,240
43,67,30240,720
36,67,30240,720
48,80,30240,720
39,67,30240,720
48,58,32640,120
55,69,32640,120
51,58,32640,120
47,58,33120,120
50,58,33120,120
55,69,33120,120
55,69,35520,120
47,58,35520,120
50,58,35520,120
55,69,36000,120
48,58,36000,120
51,58,36000,120
51,58,38400,120
60,69,38400,120
55,58,38400,120
56,58,38880,120
62,69,38880,120
53,58,38880,120
62,69,40320,120
59,58,40320,120
55,58,40320,120
55,58,41760,120
48,58,41760,120
60,69,41760,120
51,58,41760,120
63,69,44640,4320
61,50,46080,1440
60,49,47520,1440
61,34,48960,1440
58,28,48960,1440
56,28,50400,1440
63,33,50400,1440
70,50,51840,1440
72,60,51840,2880
68,49,53280,1440
67,28,54720,1440
70,34,54720,1440
65,28,56160,1440
68,33,56160,1440
66,50,57600,1440
68,60,57600,2880
65,49,59040,1440
63,44,60480,1440
66,44,60480,1440
61,28,61920,1440
65,33,61920,1440
59,42,63360,1440
63,48,63360,1440
58,33,64800,1440
57,33,66240,1440
46,33,67680,2880
53,33,68160,480
55,37,68640,480
56,41,69120,480
52,33,69600,480
53,35,70080,480
46,42,70560,2880
55,42,70560,480
50,33,71040,480
51,33,71520,480
53,40,72000,480
48,33,72480,480
50,33,72960,480
46,39,73440,2880
51,39,73440,480
53,33,73920,480
55,36,74400,480
56,40,74880,480
52,33,75360,480
53,33,75840,480
55,42,76320,480
46,42,76320,2880
50,33,76800,480
51,33,77280,480
53,40,77760,480
48,33,78240,480
50,33,78720,480
51,40,79200,240
58,28,79440,240
55,33,79680,240
58,27,79920,240
53,33,80174,240
58,30,80400,240
51,38,80640,240
58,28,80880,240
53,42,81120,240
58,35,81360,240
55,46,81600,240
58,40,81840,240
53,51,82080,240
58,44,82320,240
55,52,82560,240
58,43,82800,240
56,55,83040,240
58,47,83280,240
53,60,83520,240
58,39,83760,240
55,46,84000,240
58,33,84240,240
56,41,84480,240
58,33,84720,240
50,40,84960,240
58,28,85200,240
53,33,85440,240
58,27,85680,240
51,33,85920,240
58,30,86160,240
50,38,86400,240
58,31,86640,240
51,46,86880,240
58,38,87120,240
53,50,87360,240
58,43,87600,240
51,56,87840,240
58,42,88080,240
53,54,88320,240
58,44,88560,240
55,46,88800,240
58,33,89040,240
51,48,89280,240
58,39,89520,240
53,41,89760,240
58,33,90000,240
55,41,90240,240
58,33,90480,240
51,40,90720,240
58,28,90960,240
55,33,91200,240
58,27,91440,240
51,35,91680,240
58,32,91920,240
51,41,92160,240
58,38,92400,240
55,48,92640,240
58,41,92880,240
51,54,93120,240
58,51,93360,240
53,52,93600,240
58,48,93840,240
56,52,94080,240
58,44,94320,240
53,46,94560,240
58,43,94800,240
53,43,95040,240
58,31,95280,240
56,39,95520,240
58,31,95760,240
53,39,96000,240
58,31,96240,238
50,40,96480,240
58,32,96720,240
53,39,96960,240
58,29,97200,240
50,46,97440,240
58,37,97680,240
50,52,97920,240
58,43,98160,240
53,57,98400,240
58,49,98640,240
50,62,98880,240
58,51,99120,240
51,43,99600,240
50,50,99840,240
51,44,100080,240
50,53,100320,240
51,44,100560,240
43,67,100800,240
51,45,101040,240
44,59,101280,240
51,47,101520,240
46,61,101760,240
51,44,102000,240
44,65,102240,240
51,45,102480,240
46,57,102720,240
51,42,102960,240
48,55,103200,240
51,45,103440,240
45,67,103680,240
51,45,103920,240
46,56,104160,240
51,47,104400,240
48,55,104640,240
51,44,104880,240
46,64,105120,240
55,46,105360,240
51,56,105600,240
55,45,105840,240
46,57,106080,240
55,46,106320,240
46,64,106560,240
53,46,106800,240
50,55,107040,240
53,45,107280,240
46,55,107520,240
53,46,107760,240
39,64,108000,480
51,64,108000,480
43,67,110880,240
51,45,111120,240
44,59,111360,240
51,47,111600,240
46,61,111840,240
51,44,112080,240
43,67,112320,240
51,45,112560,240
44,57,112800,240
51,52,113040,240
46,61,113280,240
51,44,113520,240
44,65,113760,240
51,45,114000,240
46,58,114240,240
51,42,114480,240
48,57,114720,240
51,45,114960,240
45,67,115200,240
51,45,115440,240
46,56,115680,240
51,47,115920,240
48,58,116160,240
51,44,116400,240
46,67,116640,240
51,52,116880,240
50,61,117120,240
51,48,117360,240
47,62,117600,240
51,53,117840,240
48,71,118080,240
51,54,118320,240
50,65,118560,240
51,52,118800,240
45,64,119040,240
51,49,119280,240
46,77,119520,240
51,58,119760,240
49,65,120000,240
51,56,120240,240
47,70,120480,240
51,54,120720,240
48,77,120960,240
51,57,121200,240
50,63,121440,240
51,58,121680,240
45,71,121920,240
51,65,122160,240
46,82,122400,480
46,77,122880,120
51,77,122880,120
55,87,122880,120
51,77,124320,120
48,77,124320,120
54,87,124320,120
55,87,125760,120
46,77,125760,120
51,77,125760,120
57,87,127200,120
51,77,127200,120
54,77,127200,120
45,77,127200,120
46,77,128640,120
58,87,128640,120
55,77,128640,120
51,77,128640,120
58,81,131040,240
55,77,131280,180
55,82,131520,240
51,77,131760,180
51,83,132000,240
46,77,132240,180
46,92,132480,1440
34,78,132480,1440
56,70,133440,480
53,59,133440,480
55,79,133920,480
39,67,133920,480
46,51,134400,2400
45,51,134880,480
44,51,135360,480
43,49,135840,480
41,49,136320,480
39,51,136800,480
43,47,137280,480
46,47,137760,480
34,51,138240,480
41,48,138720,480
46,48,139200,480
39,67,139680,480
46,51,140160,2400
45,51,140640,480
44,51,141120,480
43,49,141600,480
41,49,142080,480
39,51,142560,480
43,47,143040,480
46,47,143520,480
34,51,144000,480
41,48,144480,480
46,48,144960,480
39,51,145440,480
43,47,145920,480
46,47,146400,480
34,51,146880,480
41,48,147360,480
46,48,147840,480
39,51,148320,480
43,47,148800,480
46,47,149280,480
51,40,149760,480
55,44,149760,480
60,70,151200,720
55,59,151200,720
51,59,151200,720
48,59,151200,720
60,34,155040,240
63,41,155040,240
63,41,155520,960
60,34,155520,960
62,32,156480,470
65,38,156480,470
53,59,156960,720
59,59,156960,720
56,59,156960,720
62,70,156960,720
50,59,156960,720
62,34,160800,240
68,41,160800,240
65,34,160800,240
68,41,161280,960
65,34,161280,960
62,34,161280,960
67,38,162240,480
63,32,162240,480
60,35,163680,480
55,29,163680,480
51,29,163680,480
53,33,164160,960
56,33,164160,960
59,39,164160,960
60,34,165120,480
55,28,165120,480
51,28,165120,480
63,29,166560,480
67,35,166560,480
68,39,167040,960
65,33,167040,960
63,28,168000,480
67,34,168000,480
55,39,169440,480
60,47,169440,480
51,39,169440,480
59,53,169920,960
53,45,169920,960
56,45,169920,960
55,46,170880,480
51,39,170880,480
50,46,171360,960
53,56,171360,960
51,49,172320,480
48,41,172320,480
50,47,172800,480
47,56,172800,480
56,34,175200,480
53,28,175200,480
50,28,175200,480
47,28,175200,480
55,34,175680,120
51,28,175680,120
48,28,175680,120
50,34,178080,480
44,28,178080,480
41,28,178080,480
48,28,178560,120
43,28,178560,120
51,34,178560,120
43,73,180960,240
31,73,180960,240
43,67,181440,720
36,67,181440,720
48,80,181440,720
39,67,181440,720
48,58,183840,120
55,69,183840,120
51,58,183840,120
47,58,184320,120
50,58,184320,120
55,69,184320,120
55,69,186720,120
47,58,186720,120
50,58,186720,120
55,69,187200,120
48,58,187200,120
51,58,187200,120
51,58,189600,120
60,69,189600,120
55,58,189600,120
56,58,190080,120
62,69,190080,120
53,58,190080,120
62,69,191520,120
59,58,191520,120
55,58,191520,120
55,58,192960,120
48,58,192960,120
60,69,192960,120
51,58,192960,120
63,69,195840,4320
61,50,197280,1440
60,49,198720,1440
61,34,200160,1440
58,28,200160,1440
56,28,201600,1440
63,33,201600,1440
70,50,203040,1440
72,60,203040,2880
68,49,204480,1440
67,28,205920,1440
70,34,205920,1440
65,28,207360,1440
68,33,207360,1440
66,50,208800,1440
68,60,208800,2880
65,49,210240,1440
63,44,211680,1440
66,44,211680,1440
61,28,213120,1440
65,33,213120,1440
59,42,214560,1440
63,48,214560,1440
58,33,216000,1440
57,33,217440,1440
46,33,218880,2880
53,33,219360,480
55,37,219840,480
56,41,220320,480
52,33,220800,480
53,35,221280,480
46,42,221760,2880
55,42,221760,480
50,33,222240,480
51,33,222720,480
53,40,223200,480
48,33,223680,480
50,33,224160,480
46,39,224640,2880
51,39,224640,480
53,33,225120,480
55,36,225600,480
56,40,226080,480
52,33,226560,480
53,33,227040,480
55,42,227520,480
46,42,227520,2880
50,33,228000,480
51,33,228480,480
53,40,228960,480
48,33,229440,480
50,33,229920,480
51,40,230400,240
58,28,230640,240
55,33,230880,240
58,27,231120,240
53,33,231374,240
58,30,231600,240
51,38,231840,240
58,33,232080,240
53,45,232320,240
58,37,232560,240
55,48,232800,240
58,43,233040,240
53,55,233280,240
58,40,233520,240
55,48,233760,240
58,30,234000,240
56,40,234240,240
58,33,234480,240
53,39,234720,240
58,33,234960,240
55,41,235200,240
58,33,235440,240
56,41,235680,240
58,33,235920,240
50,40,236160,240
58,28,236400,240
53,33,236640,240
58,27,236880,240
51,38,237120,240
58,34,237360,240
50,38,237600,240
58,34,237840,240
51,46,238080,240
58,39,238320,240
53,48,238560,240
58,44,238800,240
51,55,239040,240
58,43,239280,240
53,52,239520,240
58,37,239760,240
55,46,240000,240
58,33,240240,240
51,44,240480,240
58,39,240720,240
53,41,240960,240
58,33,241200,240
55,41,241440,240
58,33,241680,240
51,40,241920,240
58,28,242160,240
55,33,242400,240
58,27,242640,240
51,40,242880,240
58,31,243120,240
51,43,243360,240
58,38,243600,240
55,52,243840,240
58,45,244080,240
51,54,244320,240
58,47,244560,240
53,52,244800,240
58,43,245040,240
56,51,245280,240
58,40,245520,240
53,46,245760,240
58,37,246000,240
53,37,246240,240
58,31,246480,240
56,39,246720,240
58,31,246960,240
53,39,247200,240
58,31,247440,238
50,40,247680,240
58,32,247920,240
53,39,248160,240
58,29,248400,240
50,45,248640,240
58,36,248880,240
50,48,249120,240
58,40,249360,240
53,53,249600,240
58,45,249840,240
50,60,250080,240
58,50,250320,240
51,43,250800,240
50,61,251040,240
51,48,251280,240
50,60,251520,240
51,50,251760,240
43,67,252000,240
51,45,252240,240
44,59,252480,240
51,51,252720,240
46,60,252960,240
51,44,253200,240
44,65,253440,240
51,49,253680,240
46,60,253920,240
51,47,254160,240
48,59,254400,240
51,48,254640,240
45,67,254880,240
51,49,255120,240
46,59,255360,240
51,47,255600,240
48,57,255840,240
51,44,256080,240
46,64,256320,240
55,46,256560,240
51,57,256800,240
55,45,257040,240
46,56,257280,240
55,56,257520,240
46,64,257760,240
53,46,258000,240
50,56,258240,240
53,45,258480,240
46,58,258720,240
53,53,258960,240
39,64,259200,480
51,64,259200,480
43,67,262080,240
51,45,262320,240
44,50,262560,240
51,47,262800,240
46,54,263040,240
51,44,263280,240
43,67,263520,240
51,45,263760,240
44,50,264000,240
51,47,264240,240
46,54,264480,240
51,44,264720,240
44,65,264960,240
51,45,265200,240
46,59,265440,240
51,42,265680,240
48,58,265920,240
51,45,266160,240
45,67,266400,240
51,45,266640,240
46,60,266880,240
51,47,267120,240
48,58,267360,240
51,44,267600,240
46,67,267840,240
51,53,268080,240
50,61,268320,240
51,48,268560,240
47,61,268800,240
51,49,269040,240
48,71,269280,240
51,52,269520,240
50,63,269760,240
51,55,270000,240
45,66,270240,240
51,49,270480,240
46,77,270720,240
51,56,270960,240
49,66,271200,240
51,54,271440,240
47,67,271680,240
51,56,271920,240
48,77,272160,240
51,58,272400,240
50,63,272640,240
51,58,272880,240
45,71,273120,240
51,65,273360,240
46,82,273600,480
46,77,274080,120
51,77,274080,120
55,87,274080,120
51,77,275520,120
48,77,275520,120
54,87,275520,120
55,87,276960,120
46,77,276960,120
51,77,276960,120
57,87,278400,120
51,77,278400,120
54,77,278400,120
45,77,278400,120
46,77,279840,120
58,87,279840,120
55,77,279840,120
51,77,279840,120
58,81,282240,240
55,77,282480,180
55,82,282720,240
51,77,282960,180
51,83,283200,240
46,77,283440,180
46,92,283680,1440
34,78,283680,1440
56,70,284640,480
53,59,284640,480
55,79,285120,480
39,67,285120,480
46,51,285600,2400
45,51,286080,480
44,51,286560,480
43,49,287040,480
41,49,287520,480
39,51,288000,480
43,47,288480,480
46,47,288960,480
34,51,289440,480
41,48,289920,480
46,48,290400,480
39,67,290880,480
46,51,291360,2400
45,51,291840,480
44,51,292320,480
43,49,292800,480
41,49,293280,480
39,51,293760,480
43,47,294240,480
46,47,294720,480
34,51,295200,480
41,48,295680,480
46,48,296160,480
39,51,296640,480
43,47,297120,480
46,47,297600,480
34,51,298080,480
41,48,298560,480
46,48,299040,480
39,51,299520,480
43,47,300000,480
46,47,300480,480
51,40,300960,480
55,44,300960,480
60,70,302400,720
55,59,302400,720
52,59,302400,720
48,59,302400,720
64,34,306240,240
67,41,306240,240
67,41,306720,960
64,34,306720,960
65,32,307680,470
68,38,307680,470
65,34,308160,720
68,41,308160,720
65,34,312000,240
68,41,312000,240
68,41,312480,960
65,34,312480,960
67,32,313440,470
70,38,313440,470
67,34,313920,720
70,41,313920,720
53,40,319680,240
60,32,319920,240
56,34,320160,240
60,32,320400,240
53,34,320640,240
60,32,320880,240
53,40,321120,240
60,33,321360,240
56,34,321600,240
60,32,321840,240
53,35,322080,240
60,32,322320,240
55,40,322560,240
60,32,322800,240
58,34,323040,240
60,32,323280,240
55,37,323520,240
60,32,323760,240
52,32,324000,240
60,32,324240,240
55,35,324480,240
60,32,324720,240
52,37,324960,240
60,32,325200,240
48,40,325440,240
60,31,325680,240
52,36,325920,240
60,32,326160,240
55,38,326400,240
60,33,326640,240
52,45,326880,240
60,35,327120,240
55,38,327360,240
60,31,327600,240
58,37,327840,240
60,31,328080,240
53,45,328320,240
60,31,328560,240
56,36,328800,240
60,31,329040,240
53,36,329280,240
60,31,329520,240
53,40,329760,240
60,30,330000,240
52,42,330240,240
53,40,330480,240
51,49,330720,240
53,43,330960,240
49,52,331200,240
53,38,331440,240
48,43,331680,240
53,32,331920,240
49,38,332160,240
53,32,332400,240
46,45,332640,240
53,33,332880,240
48,34,333120,240
53,32,333360,240
49,35,333600,240
53,32,333840,240
48,46,334080,240
53,32,334320,240
51,34,334560,240
53,32,334800,240
48,37,335040,240
53,32,335280,240
45,40,335520,240
53,32,335760,240
48,35,336000,240
53,32,336240,240
45,37,336480,240
53,32,336720,240
41,40,336960,240
53,31,337200,240
45,45,337440,240
53,37,337680,240
48,46,337920,240
53,39,338160,240
45,51,338400,240
53,44,338640,240
48,38,338880,240
53,31,339120,240
51,37,339360,240
53,31,339600,240
46,45,339840,240
53,31,340080,240
49,36,340320,240
53,31,340560,240
46,36,340800,240
53,31,341040,240
46,40,341280,240
53,30,341520,240
49,33,341760,240
53,30,342000,240
46,33,342240,240
53,30,342480,240
44,40,342720,240
54,32,342960,240
51,48,343200,240
54,40,343440,240
44,51,343680,240
54,46,343920,240
44,52,344160,240
54,40,344400,240
48,40,344640,240
54,35,344880,240
44,40,345120,240
54,34,345360,240
49,40,345600,480
53,40,345600,480
68,45,347040,480
66,38,347520,480
63,38,348000,480
65,45,348480,480
64,38,348960,480
66,38,349440,480
65,45,349920,480
63,38,350400,480
60,38,350880,480
61,45,351360,480
60,38,351840,480
63,38,352320,480
61,45,352800,480
60,38,353280,480
57,38,353760,480
58,45,354240,480
61,37,354720,480
56,37,355200,480
55,45,355680,480
58,43,356160,480
53,48,356640,480
52,53,357120,480
55,44,357600,480
50,44,358080,480
48,52,358560,480
50,44,359040,480
52,44,359520,480
53,53,360000,480
56,45,360480,480
51,45,360960,480
50,45,361440,480
53,43,361920,480
48,48,362400,480
47,56,362880,480
50,46,363360,480
45,46,363840,480
43,55,364320,480
45,48,364800,480
47,48,365280,480
48,62,365760,480
51,52,366240,480
46,52,366720,480
44,61,367200,480
48,53,367680,480
43,53,368160,480
41,61,368640,480
44,53,369120,480
39,53,369600,480
38,70,370080,480
41,60,370560,480
36,60,371040,480
35,70,371520,480
38,60,372000,480
33,60,372480,480
31,66,372960,480
33,57,373440,480
35,57,373920,480
36,62,374400,480
38,57,374880,480
39,62,375360,480
41,57,375840,960
42,50,376800,480
43,57,377280,240
55,54,377760,480
55,45,379200,480
55,46,380640,480
55,47,382080,480
43,47,383520,480
43,39,384960,480
43,38,386400,480
43,37,387840,480
31,36,389280,480
43,36,389280,480
31,28,390720,480
43,33,390720,480
48,70,391680,720
43,59,391680,720
39,59,391680,720
36,59,391680,720
60,34,395520,240
63,41,395520,240
63,41,396000,960
60,34,396000,960
62,32,396960,470
65,38,396960,470
53,59,397440,720
59,59,397440,720
56,59,397440,720
62,70,397440,720
50,59,397440,720
62,34,401280,240
68,41,401280,240
65,34,401280,240
68,41,401760,960
65,34,401760,960
62,34,401760,960
67,38,402720,480
63,32,402720,480
60,35,404160,480
55,29,404160,480
51,29,404160,480
53,33,404640,960
56,33,404640,960
59,39,404640,960
60,34,405600,480
55,28,405600,480
51,28,405600,480
63,29,407040,480
67,35,407040,480
68,39,407520,960
65,33,407520,960
63,28,408480,480
67,34,408480,480
55,39,409920,480
60,47,409920,480
51,39,409920,480
59,53,410400,960
53,45,410400,960
56,45,410400,960
55,46,411360,480
51,39,411360,480
50,46,411840,960
53,56,411840,960
51,49,412800,480
48,41,412800,480
50,47,413280,480
47,56,413280,480
56,34,415680,480
53,28,415680,480
50,28,415680,480
47,28,415680,480
55,34,416160,120
51,28,416160,120
48,28,416160,120
50,34,418560,480
44,28,418560,480
41,28,418560,480
48,28,419040,120
43,28,419040,120
51,34,419040,120
43,73,421440,240
31,73,421440,240
36,67,421920,240
48,80,421920,240
61,69,424800,4320
59,50,426240,1440
58,49,427680,1440
59,34,429120,1440
56,28,429120,1440
54,28,430560,1440
61,33,430560,1440
71,50,432000,1440
73,60,432000,2880
70,49,433440,1440
68,28,434880,1440
71,34,434880,1440
66,28,436320,1440
73,33,436320,1440
68,50,437760,1440
70,60,437760,2880
66,49,439200,1440
65,44,440640,1440
68,44,440640,1440
63,28,442080,1440
66,33,442080,1440
61,42,443520,1440
65,48,443520,1440
67,33,444960,1440
60,28,444960,1440
59,33,446400,1440
60,42,447840,480
48,33,447840,2880
55,33,448320,480
56,37,448800,480
58,41,449280,480
53,33,449760,480
55,35,450240,480
48,42,450720,2880
56,42,450720,480
52,33,451200,480
53,33,451680,480
55,40,452160,480
50,33,452640,480
52,33,453120,480
48,39,453600,2880
53,39,453600,480
55,33,454080,480
57,36,454560,480
58,40,455040,480
54,33,455520,480
55,33,456000,480
57,42,456480,480
48,42,456480,2880
52,33,456960,480
53,33,457440,480
55,40,457920,480
50,33,458400,480
52,33,458880,480
53,40,459360,240
60,28,459600,240
57,33,459840,240
60,27,460080,240
55,33,460334,240
60,30,460560,240
53,38,460800,240
60,28,461040,240
55,43,461280,240
60,38,461520,240
57,51,461760,240
60,41,462000,240
55,53,462240,240
60,40,462480,240
57,45,462720,240
60,35,462960,240
58,40,463200,240
60,33,463440,240
55,39,463680,240
60,33,463920,240
57,41,464160,240
60,33,464400,240
58,41,464640,240
60,33,464880,240
52,40,465120,240
60,28,465360,240
55,33,465600,240
60,27,465840,240
53,33,466080,240
60,30,466320,240
52,38,466560,240
60,28,466800,240
53,47,467040,240
60,41,467280,240
55,49,467520,240
60,40,467760,240
53,54,468000,240
60,43,468240,240
55,45,468480,240
60,37,468720,240
57,46,468960,240
60,33,469200,240
53,44,469440,240
60,39,469680,240
55,41,469934,240
60,33,470160,240
57,41,470400,240
60,33,470640,240
53,40,470880,240
60,28,471120,240
57,33,471360,240
60,27,471600,240
53,34,471840,240
60,31,472080,240
53,40,472320,240
60,36,472560,240
57,48,472800,240
60,40,473040,240
53,51,473280,240
60,42,473520,240
55,59,473760,240
60,47,474000,240
58,46,474240,240
60,38,474480,240
55,46,474720,240
60,37,474960,240
55,44,475200,240
60,37,475440,240
58,47,475680,240
60,37,475920,240
55,47,476160,240
60,37,476400,238
52,40,476640,240
60,32,476880,240
55,39,477120,240
60,29,477360,240
52,40,477600,240
60,31,477840,240
52,46,478080,240
60,41,478320,240
55,52,478560,240
60,40,478800,240
52,57,479040,240
60,44,479280,240
53,45,479520,240
60,36,479760,240
55,49,480000,240
60,42,480240,240
56,51,480480,240
60,44,480720,240
53,47,480960,240
60,37,481200,240
55,41,481440,240
60,37,481680,240
56,41,481920,240
60,37,482160,240
55,51,482400,240
63,36,482640,240
60,41,482880,240
63,36,483120,240
55,41,483360,240
63,36,483600,240
55,47,483840,240
62,36,484080,240
59,42,484320,240
62,34,484560,240
55,40,484800,240
62,35,485040,240
48,60,485280,240
55,37,485520,240
51,52,485760,240
55,36,486000,240
50,52,486254,240
55,46,486480,240
48,57,486720,240
55,46,486960,240
50,57,487200,240
55,50,487440,240
51,61,487680,240
55,56,487920,240
50,66,488160,240
55,43,488400,240
51,59,488640,240
55,51,488880,240
53,60,489120,240
55,53,489360,240
50,63,489600,240
55,44,489840,240
51,54,490080,240
55,44,490320,240
53,54,490560,240
55,44,490800,240
47,54,491040,240
55,37,491280,240
50,44,491520,240
55,36,491760,240
48,44,492000,240
55,40,492240,240
47,51,492480,240
55,44,492720,240
48,57,492960,240
55,52,493200,240
50,61,493440,240
55,46,493680,240
48,69,493920,240
55,53,494160,240
50,60,494400,240
55,44,494640,240
51,54,494880,240
55,44,495120,240
48,52,495360,240
55,44,495600,240
50,54,495840,240
55,44,496080,240
51,54,496320,240
55,44,496560,240
48,54,496800,240
55,37,497040,240
51,44,497280,240
55,36,497520,240
48,44,497760,240
55,40,498000,240
48,51,498240,240
55,42,498480,240
51,51,498720,240
55,42,498960,240
48,60,499200,240
55,53,499440,240
50,66,499680,240
55,43,499920,240
53,54,500160,240
55,45,500400,240
50,54,500640,240
55,44,500880,240
50,52,501120,240
55,44,501360,240
53,54,501600,240
55,44,501840,240
50,54,502080,240
55,44,502320,238
47,54,502560,240
55,37,502800,240
50,49,503040,240
55,36,503280,240
47,50,503520,240
55,40,503760,240
47,58,504000,240
55,45,504240,240
50,51,504480,240
55,45,504720,240
47,56,504960,240
55,37,505200,240
48,43,505680,240
47,61,505920,240
48,44,506160,240
47,63,506400,240
48,50,506640,240
40,67,506880,240
48,52,507120,240
41,57,507360,240
48,47,507600,240
43,61,507840,240
48,44,508080,240
41,65,508320,240
48,45,508560,240
43,57,508800,240
48,48,509040,240
44,56,509280,240
48,50,509520,240
42,67,509760,240
48,51,510000,240
43,58,510240,240
48,49,510480,240
45,60,510720,240
48,44,510960,240
43,64,511200,240
51,51,511440,240
48,59,511680,240
51,50,511920,240
43,57,512160,240
51,46,512400,240
43,64,512640,240
50,46,512880,240
47,58,513120,240
50,47,513360,240
43,56,513600,240
50,46,513840,240
36,64,514080,480
48,64,514080,480
39,67,516960,240
48,45,517200,240
41,50,517440,240
48,47,517680,240
43,56,517920,240
48,50,518160,240
40,67,518400,240
48,45,518640,240
41,61,518880,240
48,47,519120,240
43,60,519360,240
48,44,519600,240
41,65,519840,240
48,45,520080,240
43,57,520320,240
48,42,520560,240
44,58,520800,240
48,45,521040,240
42,67,521280,240
48,51,521520,240
43,58,521760,240
48,47,522000,240
45,58,522240,240
48,44,522480,240
43,67,522720,240
48,51,522960,240
47,57,523200,240
48,48,523440,240
43,61,523680,240
48,50,523920,240
44,71,524160,240
48,56,524400,240
47,64,524640,240
48,55,524880,240
42,65,525120,240
48,54,525360,240
43,77,525600,240
48,58,525840,240
47,68,526080,240
48,54,526320,240
40,65,526560,240
48,50,526800,240
41,77,527040,240
48,51,527280,240
44,63,527520,240
48,58,527760,240
42,71,528000,240
48,65,528240,240
43,82,528480,480
55,77,528960,120
60,77,528960,120
63,87,528960,120
60,77,530400,120
56,77,530400,120
63,87,530400,120
63,87,531840,120
55,77,531840,120
60,77,531840,120
63,87,533280,120
60,77,533280,120
54,77,533280,120
55,77,534720,120
63,87,534720,120
60,77,534720,120
60,81,537120,240
55,77,537360,180
55,82,537600,240
51,77,537840,180
51,83,538080,240
48,77,538320,180
43,92,538560,1440
31,78,538560,1440
53,70,539520,480
50,59,539520,480
51,79,540000,480
36,67,540000,480
43,51,540480,2400
42,51,540960,480
41,51,541440,480
39,49,541920,480
38,49,542400,480
36,51,542880,480
39,47,543360,480
43,47,543840,480
31,51,544320,480
38,48,544800,480
43,48,545280,480
36,67,545760,480
43,51,546240,2400
42,51,546720,480
41,51,547200,480
39,49,547680,480
38,49,548160,480
36,51,548640,480
39,47,549120,480
43,47,549600,480
31,51,550080,480
38,48,550560,480
43,48,551040,480
36,51,551520,480
39,47,552000,480
43,47,552480,480
31,51,552960,480
38,48,553440,480
43,48,553920,480
36,51,554400,480
31,60,555840,480
35,60,555840,480
38,60,555840,480
43,71,555840,480
36,60,557280,480
39,60,557280,480
43,60,557280,480
48,71,557280,480
