note,velocity,position,duration
89,77,0,120
86,77,0,120
80,77,0,120
92,88,0,120
58,66,240,120
57,57,360,120
58,57,480,120
62,56,600,120
65,67,720,120
62,56,840,120
65,54,960,120
68,55,1080,120
65,55,1200,120
62,55,1320,120
68,65,1440,120
65,56,1560,120
68,57,1680,120
70,56,1800,120
68,55,1920,120
65,55,2040,120
70,67,2160,120
68,55,2280,120
70,55,2400,120
74,55,2520,120
70,55,2640,120
68,55,2760,120
77,64,2880,120
74,54,3000,120
77,55,3120,120
80,55,3240,120
77,54,3360,120
74,54,3480,120
80,65,3600,120
77,54,3720,120
80,54,3840,120
82,54,3960,120
80,53,4080,120
77,53,4200,120
82,62,4320,120
80,53,4440,120
82,54,4560,120
86,54,4680,120
82,53,4800,120
80,53,4920,120
86,64,5040,120
82,53,5160,120
86,52,5280,120
89,52,5400,120
86,52,5520,120
82,52,5640,120
89,57,5760,120
86,49,5880,120
89,50,6000,120
92,49,6120,120
89,48,6240,120
86,48,6360,120
82,58,6480,120
81,48,6600,120
82,47,6720,120
86,47,6840,120
89,47,6960,120
86,47,7080,120
89,54,7200,120
86,46,7320,120
89,47,7440,120
92,47,7560,120
89,46,7680,120
86,45,7800,120
82,55,7920,120
81,45,8040,120
82,45,8160,120
86,45,8280,120
89,44,8400,120
86,44,8520,120
77,51,8640,120
74,44,8760,120
77,45,8880,120
80,44,9000,120
77,43,9120,120
74,43,9240,120
70,52,9360,120
69,43,9480,120
70,42,9600,120
74,42,9720,120
77,42,9840,120
74,42,9960,120
77,48,10080,120
74,41,10200,120
77,42,10320,120
80,41,10440,120
77,41,10560,120
74,40,10680,120
70,49,10800,120
69,40,10920,120
70,40,11040,120
74,40,11160,120
77,39,11280,120
74,39,11400,120
80,88,11520,120
74,77,11520,120
77,77,11520,120
68,77,11520,120
58,66,11760,120
57,57,11880,120
58,56,12000,120
57,54,12120,120
60,64,12240,120
58,53,12360,120
63,51,12480,120
62,51,12600,120
67,51,12720,120
65,50,12840,120
70,60,12960,120
69,51,13080,120
72,59,13200,120
70,50,13320,120
75,50,13440,120
74,48,13560,120
79,57,13680,120
77,47,13800,120
82,45,13920,120
81,45,14040,120
84,45,14160,120
82,44,14280,120
82,45,14400,240
79,45,14640,240
75,39,14880,240
74,45,15120,240
77,40,15360,240
82,40,15600,180
82,45,15840,240
79,41,16080,240
75,41,16320,180
75,45,16560,240
79,39,16800,240
84,51,17040,180
84,57,17280,240
80,45,17520,240
77,45,17760,240
76,49,18000,240
79,44,18240,240
84,51,18480,180
84,60,18720,240
80,45,18960,240
77,45,19200,240
74,51,19440,240
77,45,19680,240
82,45,19920,180
82,50,20160,240
79,43,20400,240
75,43,20640,240
72,45,20880,240
77,41,21120,240
80,41,21360,180
70,47,21600,240
75,43,21840,240
79,43,22080,180
68,48,22320,240
74,43,22560,240
77,43,22800,180
68,43,22800,180
75,49,23040,240
67,49,23040,240
79,49,23520,240
80,49,23760,120
79,45,23880,120
80,49,24000,120
77,44,24120,120
82,49,24240,120
80,44,24360,120
79,67,24480,240
94,62,24720,240
67,49,25680,180
68,49,26400,240
70,51,26640,120
68,41,26760,120
70,49,26880,120
67,42,27000,120
72,49,27120,120
70,47,27240,120
68,69,27360,240
84,61,27600,240
77,55,28560,180
79,53,29280,240
80,53,29520,120
79,49,29640,120
80,55,29760,120
77,49,29880,120
92,74,30000,180
75,49,30720,180
77,57,30960,120
75,49,31080,120
77,56,31200,120
74,49,31320,120
89,72,31440,180
67,81,31680,120
79,60,31800,120
67,69,31920,120
79,59,32040,120
70,67,32160,120
82,59,32280,120
70,77,32400,120
82,57,32520,120
70,63,32640,120
82,56,32760,120
68,63,32880,120
80,56,33000,120
67,73,33120,120
79,60,33240,120
67,66,33360,120
79,60,33480,120
70,66,33600,120
82,59,33720,120
70,73,33840,120
82,60,33960,120
70,63,34080,120
82,55,34200,120
67,66,34320,120
79,60,34440,120
68,73,34560,120
80,53,34680,120
68,61,34800,120
80,53,34920,120
72,61,35040,120
84,56,35160,120
72,73,35280,120
84,53,35400,120
72,61,35520,120
84,55,35640,120
70,61,35760,120
82,53,35880,120
68,73,36000,120
80,55,36120,120
68,61,36240,120
80,55,36360,120
72,61,36480,120
84,55,36600,120
72,73,36720,120
84,52,36840,120
70,59,36960,120
82,52,37080,120
68,59,37200,120
80,53,37320,120
67,73,37440,120
79,53,37560,120
70,61,37680,120
82,55,37800,120
75,61,37920,120
87,55,38040,120
75,73,38160,120
87,53,38280,120
72,60,38400,120
84,53,38520,120
68,60,38640,120
80,53,38760,120
75,73,38880,120
87,56,39000,120
70,62,39120,120
82,55,39240,120
67,62,39360,120
79,55,39480,120
70,73,39600,120
82,56,39720,120
68,64,39840,120
80,57,39960,120
65,64,40080,120
77,58,40200,120
55,78,40320,120
63,64,40440,120
58,72,40560,120
67,64,40680,120
63,74,40800,120
70,64,40920,120
67,79,41040,120
75,64,41160,120
70,70,41280,120
79,64,41400,120
75,71,41520,120
82,64,41640,120
79,79,41760,120
87,64,41880,120
82,70,42000,120
91,61,42120,120
87,69,42240,120
94,62,42360,120
93,73,42480,120
94,66,42600,120
93,70,42720,120
94,64,42840,120
93,69,42960,120
94,64,43080,120
96,77,43200,120
94,77,43320,120
92,76,43440,120
91,75,43560,120
89,74,43680,120
87,74,43800,120
86,72,43920,120
84,65,44040,120
82,65,44160,120
80,65,44280,120
79,65,44400,120
77,65,44520,120
75,70,44640,120
74,69,44760,120
72,68,44880,120
70,68,45000,120
68,67,45120,120
67,66,45240,120
65,64,45360,120
63,59,45480,120
62,64,45600,120
65,60,45720,120
68,69,45840,120
62,63,45960,120
55,78,46080,120
63,64,46200,120
58,72,46320,120
67,64,46440,120
63,74,46560,120
70,64,46680,120
67,79,46800,120
75,64,46920,120
70,70,47040,120
79,64,47160,120
75,71,47280,120
82,64,47400,120
79,79,47520,120
87,64,47640,120
82,70,47760,120
91,61,47880,120
87,69,48000,120
94,62,48120,120
93,73,48240,120
94,66,48360,120
93,70,48480,120
94,64,48600,120
93,69,48720,120
94,64,48840,120
96,77,48960,120
94,77,49080,120
92,76,49200,120
91,75,49320,120
89,74,49440,120
87,74,49560,120
86,72,49680,120
84,65,49800,120
82,65,49920,120
80,65,50040,120
79,65,50160,120
77,65,50280,120
75,70,50400,81
74,69,50481,80
72,68,50560,80
70,68,50640,80
68,67,50720,80
67,66,50800,80
65,64,50880,80
63,59,50960,80
62,55,51040,80
60,62,51120,120
58,54,51240,120
57,60,51360,120
60,54,51480,120
63,64,51600,120
57,54,51720,120
58,95,51840,240
70,89,52560,240
73,96,53280,240
78,88,54000,240
73,94,54720,240
70,88,55440,240
66,93,56160,240
61,82,56880,240
57,95,57600,240
69,89,58320,240
72,96,59040,240
77,88,59760,240
72,94,60480,240
69,88,61200,240
65,93,61920,240
60,82,62640,240
73,55,63360,120
84,51,63780,60
82,57,63840,120
81,52,63960,120
82,57,64080,120
87,53,64500,60
85,59,64560,120
84,52,64680,120
85,63,64800,120
92,54,65220,60
90,60,65280,120
89,55,65400,120
90,61,65520,120
87,51,65940,60
85,57,66000,120
84,50,66120,120
85,60,66240,120
84,51,66660,60
82,56,66720,120
81,51,66840,120
82,56,66960,120
80,51,67380,60
78,57,67440,120
77,50,67560,120
78,60,67680,120
75,51,68100,60
73,56,68160,120
72,51,68280,120
73,56,68400,480
72,55,69120,120
82,51,69540,60
81,57,69600,120
79,52,69720,120
81,57,69840,120
86,53,70260,60
84,59,70320,120
83,52,70440,120
84,63,70560,120
90,55,70980,60
89,60,71040,120
88,55,71160,120
89,61,71280,120
85,51,71700,60
84,57,71760,120
83,50,71880,120
84,60,72000,120
82,51,72420,60
81,56,72480,120
79,51,72600,120
81,56,72720,120
78,51,73140,60
77,57,73200,120
76,50,73320,120
77,60,73440,120
73,51,73860,60
72,56,73920,120
71,51,74040,120
72,56,74160,240
73,61,74640,240
74,56,74880,720
65,35,74880,120
67,31,75000,120
65,35,75120,120
67,31,75240,120
65,34,75360,120
67,31,75480,120
65,36,75600,120
70,55,75600,720
67,32,75720,120
65,36,75840,120
67,31,75960,120
65,37,76080,120
67,31,76200,120
65,37,76320,120
69,59,76320,720
67,33,76440,120
65,37,76560,120
67,33,76680,120
65,37,76800,120
67,34,76920,120
65,38,77040,120
75,59,77040,720
67,34,77160,120
65,39,77280,120
67,33,77400,120
65,39,77520,120
67,34,77640,120
65,40,77760,120
74,64,77760,720
67,35,77880,120
65,39,78000,120
67,35,78120,120
65,38,78240,120
67,34,78360,120
65,39,78480,120
70,60,78480,720
67,34,78600,120
65,38,78720,120
67,33,78840,120
65,38,78960,120
67,32,79080,120
65,37,79200,120
69,60,79200,720
67,33,79320,120
65,37,79440,120
67,32,79560,120
65,35,79680,120
67,32,79800,120
65,36,79920,120
75,56,79920,720
67,32,80040,120
65,36,80160,120
67,30,80280,120
65,35,80400,120
67,30,80520,120
74,51,80640,120
77,45,80760,120
79,48,80880,80
81,50,80960,80
82,52,81040,80
84,54,81120,80
86,56,81200,80
87,59,81280,80
89,61,81360,120
87,60,81480,120
86,58,81600,120
84,57,81720,120
82,55,81840,120
81,54,81960,120
79,51,82080,120
81,45,82200,120
82,48,82320,120
84,50,82440,120
86,54,82560,80
87,56,82640,80
89,59,82720,80
91,61,82800,120
89,60,82920,120
87,58,83040,80
86,57,83120,80
84,56,83200,80
82,55,83280,80
81,54,83360,80
79,53,83440,80
77,57,83520,120
86,49,83640,120
82,59,83760,120
89,55,83880,120
86,62,84000,120
94,57,84120,120
89,62,84240,80
98,57,84320,80
94,55,84400,80
101,61,84480,80
98,53,84560,80
94,54,84640,80
89,59,84720,80
86,53,84800,80
82,53,84880,80
77,59,84960,480
84,59,85680,80
86,52,85760,80
84,59,85840,80
86,54,85920,80
84,59,86000,80
86,53,86080,80
84,59,86160,80
86,53,86240,80
84,56,86320,80
86,61,86400,720
77,41,86400,120
79,31,86520,120
77,35,86640,120
79,31,86760,120
77,34,86880,120
79,31,87000,120
77,36,87120,120
82,55,87120,720
79,32,87240,120
77,36,87360,120
79,31,87480,120
77,37,87600,120
79,31,87720,120
77,37,87840,120
81,59,87840,720
79,33,87960,120
77,37,88080,120
79,33,88200,120
77,37,88320,120
79,34,88440,120
77,38,88560,120
87,59,88560,720
79,34,88680,120
77,39,88800,120
79,33,88920,120
77,39,89040,120
79,34,89160,120
77,40,89280,120
86,64,89280,720
79,35,89400,120
77,39,89520,120
79,35,89640,120
77,38,89760,120
79,34,89880,120
82,60,90000,720
77,39,90000,120
79,34,90120,120
77,38,90240,120
79,33,90360,120
77,38,90480,120
79,32,90600,120
77,37,90720,120
81,60,90720,720
79,33,90840,120
77,37,90960,120
79,32,91080,120
77,35,91200,120
79,32,91320,120
87,56,91440,720
77,36,91440,120
79,32,91560,120
77,36,91680,120
79,30,91800,120
77,35,91920,120
79,30,92040,120
86,45,92400,120
82,45,92400,120
86,45,92640,120
82,45,92640,120
86,48,92880,120
82,48,92880,120
86,42,93120,120
82,42,93120,120
86,42,93360,120
82,42,93360,120
84,45,93840,120
82,45,93840,120
82,45,94080,120
84,45,94080,120
82,49,94320,120
84,49,94320,120
84,44,94560,120
82,44,94560,120
84,46,94800,120
82,46,94800,120
86,48,95280,120
82,48,95280,120
86,49,95520,120
82,49,95520,120
86,52,95760,120
82,52,95760,120
86,47,96000,120
82,47,96000,120
89,48,96240,120
82,48,96240,120
86,48,96240,120
87,59,96480,120
81,59,96480,120
89,59,96480,120
89,46,96720,120
81,46,96720,120
87,46,96720,120
87,45,96960,120
89,45,96960,120
81,45,96960,120
89,53,97200,120
81,53,97200,120
87,53,97200,120
87,45,97440,120
89,45,97440,120
81,45,97440,120
89,44,97680,120
81,44,97680,120
87,44,97680,120
80,70,98400,720
92,83,98400,720
79,66,99120,240
91,79,99120,240
78,69,99840,720
90,81,99840,720
77,67,100560,240
89,80,100560,240
68,73,101280,720
80,86,101280,720
67,71,102000,240
79,86,102000,240
66,78,102720,720
78,92,102720,720
65,75,103440,240
77,90,103440,240
70,60,103920,120
77,71,103920,120
65,60,103920,120
65,57,104160,120
77,68,104160,120
70,57,104160,120
70,58,104640,120
75,69,104640,120
67,58,104640,120
74,65,104880,120
67,55,104880,120
70,55,104880,120
63,60,105360,120
74,71,105360,120
67,60,105360,120
72,68,105600,120
67,57,105600,120
63,57,105600,120
70,69,106080,120
63,58,106080,120
60,58,106080,120
69,65,106320,120
63,55,106320,120
60,55,106320,120
70,71,106800,120
65,60,106800,120
58,60,106800,120
65,69,107040,120
62,58,107040,120
58,58,107040,120
55,74,107520,120
63,72,107520,120
58,60,107520,120
62,68,107760,120
58,58,107760,120
55,58,107760,120
62,76,108240,120
55,64,108240,120
51,64,108240,120
60,74,108480,120
55,62,108480,120
51,62,108480,120
48,79,108960,120
51,64,108960,120
58,77,108960,120
51,62,109200,120
57,73,109200,120
48,62,109200,120
46,62,109440,120
48,63,109560,120
50,65,109680,120
51,66,109800,120
53,67,109920,80
55,68,110000,80
57,68,110080,80
58,69,110160,80
60,70,110240,80
62,71,110320,80
63,72,110400,80
65,72,110480,80
67,73,110560,80
69,85,110640,120
57,67,110760,120
58,62,110880,120
60,63,111000,120
62,65,111120,120
63,66,111240,120
65,67,111360,80
67,68,111440,80
69,68,111520,80
70,69,111600,80
72,70,111680,80
74,71,111760,80
75,72,111840,80
77,72,111920,80
79,73,112000,80
81,85,112080,120
69,67,112200,120
70,62,112320,120
72,63,112440,120
74,65,112560,120
75,66,112680,120
77,68,112800,80
79,70,112880,80
81,72,112960,80
82,74,113040,120
84,75,113160,120
86,77,113280,80
87,79,113360,80
89,81,113440,80
91,83,113520,80
93,92,113600,80
81,85,113680,80
94,105,113760,480
82,89,113760,480
77,75,114480,480
74,75,114480,480
82,90,114480,480
62,74,115200,480
70,89,115200,480
65,74,115200,480
82,45,116400,240
82,45,116640,240
79,45,116880,240
75,39,117120,240
74,45,117360,240
77,40,117600,240
82,40,117840,180
82,45,118080,240
79,41,118320,240
75,41,118560,180
75,45,118800,240
79,39,119040,240
84,51,119280,180
84,57,119520,240
80,45,119760,240
77,45,120000,240
76,49,120240,240
79,44,120480,240
84,51,120720,180
84,60,120960,240
80,45,121200,240
77,45,121440,240
74,51,121680,240
77,45,121920,240
82,45,122160,180
82,50,122400,240
79,43,122640,240
75,43,122880,240
72,45,123120,240
77,41,123360,240
80,41,123600,180
70,47,123840,240
75,43,124080,240
79,43,124320,180
68,48,124560,240
74,43,124800,240
77,43,125040,180
68,43,125040,180
75,49,125280,240
67,49,125280,240
79,49,125760,240
80,49,126000,120
79,45,126120,120
80,49,126240,120
77,44,126360,120
82,49,126480,120
80,44,126600,120
79,67,126720,240
94,62,126960,240
67,49,127920,180
68,49,128640,240
70,51,128880,120
68,41,129000,120
70,49,129120,120
67,42,129240,120
72,49,129360,120
70,47,129480,120
68,69,129600,240
84,61,129840,240
77,55,130800,180
79,53,131520,240
80,53,131760,120
79,49,131880,120
80,55,132000,120
77,49,132120,120
92,74,132240,180
75,49,132960,180
77,57,133200,120
75,49,133320,120
77,56,133440,120
74,49,133560,120
89,72,133680,180
67,81,133920,120
79,60,134040,120
67,69,134160,120
79,59,134280,120
70,67,134400,120
82,59,134520,120
70,77,134640,120
82,57,134760,120
70,63,134880,120
82,56,135000,120
68,63,135120,120
80,56,135240,120
67,73,135360,120
79,60,135480,120
67,66,135600,120
79,60,135720,120
70,66,135840,120
82,59,135960,120
70,73,136080,120
82,60,136200,120
70,63,136320,120
82,55,136440,120
67,66,136560,120
79,60,136680,120
68,73,136800,120
80,53,136920,120
68,61,137040,120
80,53,137160,120
72,61,137280,120
84,56,137400,120
72,73,137520,120
84,53,137640,120
72,61,137760,120
84,55,137880,120
70,61,138000,120
82,53,138120,120
68,73,138240,120
80,55,138360,120
68,61,138480,120
80,55,138600,120
72,61,138720,120
84,55,138840,120
72,73,138960,120
84,52,139080,120
70,59,139200,120
82,52,139320,120
68,59,139440,120
80,53,139560,120
67,73,139680,120
79,53,139800,120
70,61,139920,120
82,55,140040,120
75,61,140160,120
87,55,140280,120
75,73,140400,120
87,53,140520,120
72,60,140640,120
84,53,140760,120
68,60,140880,120
80,53,141000,120
75,73,141120,120
87,56,141240,120
70,62,141360,120
82,55,141480,120
67,62,141600,120
79,55,141720,120
70,73,141840,120
82,56,141960,120
68,64,142080,120
80,57,142200,120
65,64,142320,120
77,58,142440,120
55,78,142560,120
63,64,142680,120
58,72,142800,120
67,64,142920,120
63,74,143040,120
70,64,143160,120
67,79,143280,120
75,64,143400,120
70,70,143520,120
79,64,143640,120
75,71,143760,120
82,64,143880,120
79,79,144000,120
87,64,144120,120
82,70,144240,120
91,61,144360,120
87,69,144480,120
94,62,144600,120
93,73,144720,120
94,66,144840,120
93,70,144960,120
94,64,145080,120
93,69,145200,120
94,64,145320,120
96,77,145440,120
94,77,145560,120
92,76,145680,120
91,75,145800,120
89,74,145920,120
87,74,146040,120
86,72,146160,120
84,65,146280,120
82,65,146400,120
80,65,146520,120
79,65,146640,120
77,65,146760,120
75,70,146880,120
74,69,147000,120
72,68,147120,120
70,68,147240,120
68,67,147360,120
67,66,147480,120
65,64,147600,120
63,59,147720,120
62,64,147840,120
65,60,147960,120
68,69,148080,120
62,63,148200,120
55,78,148320,120
63,64,148440,120
58,72,148560,120
67,64,148680,120
63,74,148800,120
70,64,148920,120
67,79,149040,120
75,64,149160,120
70,70,149280,120
79,64,149400,120
75,71,149520,120
82,64,149640,120
79,79,149760,120
87,64,149880,120
82,70,150000,120
91,61,150120,120
87,69,150240,120
94,62,150360,120
93,73,150480,120
94,66,150600,120
93,70,150720,120
94,64,150840,120
93,69,150960,120
94,64,151080,120
96,77,151200,120
94,77,151320,120
92,76,151440,120
91,75,151560,120
89,74,151680,120
87,74,151800,120
86,72,151920,120
84,65,152040,120
82,65,152160,120
80,65,152280,120
79,65,152400,120
77,65,152520,120
75,70,152640,81
74,69,152721,80
72,68,152800,80
70,68,152880,80
68,67,152960,80
67,66,153040,80
65,64,153120,80
63,59,153200,80
62,55,153280,80
60,62,153360,120
58,54,153480,120
57,60,153600,120
60,54,153720,120
63,64,153840,120
57,54,153960,120
58,95,154080,240
70,89,154800,240
73,96,155520,240
78,88,156240,240
73,94,156960,240
70,88,157680,240
66,93,158400,240
61,82,159120,240
57,95,159840,240
69,89,160560,240
72,96,161280,240
77,88,162000,240
72,94,162720,240
69,88,163440,240
65,93,164160,240
60,82,164880,240
73,55,165600,120
84,51,166020,60
82,57,166080,120
81,52,166200,120
82,57,166320,120
87,53,166740,60
85,59,166800,120
84,52,166920,120
85,63,167040,120
92,54,167460,60
90,60,167520,120
89,55,167640,120
90,61,167760,120
87,51,168180,60
85,57,168240,120
84,50,168360,120
85,60,168480,120
84,51,168900,60
82,56,168960,120
81,51,169080,120
82,56,169200,120
80,51,169620,60
78,57,169680,120
77,50,169800,120
78,60,169920,120
75,51,170340,60
73,56,170400,120
72,51,170520,120
73,56,170640,480
72,55,171360,120
82,51,171780,60
81,57,171840,120
79,52,171960,120
81,57,172080,120
86,53,172500,60
84,59,172560,120
83,52,172680,120
84,63,172800,120
90,55,173220,60
89,60,173280,120
88,55,173400,120
89,61,173520,120
85,51,173940,60
84,57,174000,120
83,50,174120,120
84,60,174240,120
82,51,174660,60
81,56,174720,120
79,51,174840,120
81,56,174960,120
78,51,175380,60
77,57,175440,120
76,50,175560,120
77,60,175680,120
73,51,176100,60
72,56,176160,120
71,51,176280,120
72,56,176400,240
73,61,176880,240
74,56,177120,720
65,35,177120,120
67,31,177240,120
65,35,177360,120
67,31,177480,120
65,34,177600,120
67,31,177720,120
65,36,177840,120
70,55,177840,720
67,32,177960,120
65,36,178080,120
67,31,178200,120
65,37,178320,120
67,31,178440,120
65,37,178560,120
69,59,178560,720
67,33,178680,120
65,37,178800,120
67,33,178920,120
65,37,179040,120
67,34,179160,120
65,38,179280,120
75,59,179280,720
67,34,179400,120
65,39,179520,120
67,33,179640,120
65,39,179760,120
67,34,179880,120
65,40,180000,120
74,64,180000,720
67,35,180120,120
65,39,180240,120
67,35,180360,120
65,38,180480,120
67,34,180600,120
65,39,180720,120
70,60,180720,720
67,34,180840,120
65,38,180960,120
67,33,181080,120
65,38,181200,120
67,32,181320,120
65,37,181440,120
69,60,181440,720
67,33,181560,120
65,37,181680,120
67,32,181800,120
65,35,181920,120
67,32,182040,120
65,36,182160,120
75,56,182160,720
67,32,182280,120
65,36,182400,120
67,30,182520,120
65,35,182640,120
67,30,182760,120
74,51,182880,120
77,45,183000,120
79,48,183120,80
81,50,183200,80
82,52,183280,80
84,54,183360,80
86,56,183440,80
87,59,183520,80
89,61,183600,120
87,60,183720,120
86,58,183840,120
84,57,183960,120
82,55,184080,120
81,54,184200,120
79,51,184320,120
81,45,184440,120
82,48,184560,120
84,50,184680,120
86,54,184800,80
87,56,184880,80
89,59,184960,80
91,61,185040,120
89,60,185160,120
87,58,185280,80
86,57,185360,80
84,56,185440,80
82,55,185520,80
81,54,185600,80
79,53,185680,80
77,57,185760,120
86,49,185880,120
82,59,186000,120
89,55,186120,120
86,62,186240,120
94,57,186360,120
89,62,186480,80
98,57,186560,80
94,55,186640,80
101,61,186720,80
98,53,186800,80
94,54,186880,80
89,59,186960,80
86,53,187040,80
82,53,187120,80
77,59,187200,480
84,59,187920,80
86,52,188000,80
84,59,188080,80
86,54,188160,80
84,59,188240,80
86,53,188320,80
84,59,188400,80
86,53,188480,80
84,56,188560,80
86,61,188640,720
77,41,188640,120
79,31,188760,120
77,35,188880,120
79,31,189000,120
77,34,189120,120
79,31,189240,120
77,36,189360,120
82,55,189360,720
79,32,189480,120
77,36,189600,120
79,31,189720,120
77,37,189840,120
79,31,189960,120
77,37,190080,120
81,59,190080,720
79,33,190200,120
77,37,190320,120
79,33,190440,120
77,37,190560,120
79,34,190680,120
77,38,190800,120
87,59,190800,720
79,34,190920,120
77,39,191040,120
79,33,191160,120
77,39,191280,120
79,34,191400,120
77,40,191520,120
86,64,191520,720
79,35,191640,120
77,39,191760,120
79,35,191880,120
77,38,192000,120
79,34,192120,120
82,60,192240,720
77,39,192240,120
79,34,192360,120
77,38,192480,120
79,33,192600,120
77,38,192720,120
79,32,192840,120
77,37,192960,120
81,60,192960,720
79,33,193080,120
77,37,193200,120
79,32,193320,120
77,35,193440,120
79,32,193560,120
87,56,193680,720
77,36,193680,120
79,32,193800,120
77,36,193920,120
79,30,194040,120
77,35,194160,120
79,30,194280,120
86,45,194640,120
82,45,194640,120
86,45,194880,120
82,45,194880,120
86,48,195120,120
82,48,195120,120
86,42,195360,120
82,42,195360,120
86,42,195600,120
82,42,195600,120
84,45,196080,120
82,45,196080,120
82,45,196320,120
84,45,196320,120
82,49,196560,120
84,49,196560,120
84,44,196800,120
82,44,196800,120
84,46,197040,120
82,46,197040,120
86,48,197520,120
82,48,197520,120
86,49,197760,120
82,49,197760,120
86,52,198000,120
82,52,198000,120
86,47,198240,120
82,47,198240,120
89,48,198480,120
82,48,198480,120
86,48,198480,120
87,59,198720,120
81,59,198720,120
89,59,198720,120
89,46,198960,120
81,46,198960,120
87,46,198960,120
87,45,199200,120
89,45,199200,120
81,45,199200,120
89,53,199440,120
81,53,199440,120
87,53,199440,120
87,45,199680,120
89,45,199680,120
81,45,199680,120
89,44,199920,120
81,44,199920,120
87,44,199920,120
80,70,200640,720
92,83,200640,720
79,66,201360,240
91,79,201360,240
78,69,202080,720
90,81,202080,720
77,67,202800,240
89,80,202800,240
68,73,203520,720
80,86,203520,720
67,71,204240,240
79,86,204240,240
66,78,204960,720
78,92,204960,720
65,75,205680,240
77,90,205680,240
70,60,206160,120
77,71,206160,120
65,60,206160,120
65,57,206400,120
77,68,206400,120
70,57,206400,120
70,58,206880,120
75,69,206880,120
67,58,206880,120
74,65,207120,120
67,55,207120,120
70,55,207120,120
63,60,207600,120
74,71,207600,120
67,60,207600,120
72,68,207840,120
67,57,207840,120
63,57,207840,120
70,69,208320,120
63,58,208320,120
60,58,208320,120
69,65,208560,120
63,55,208560,120
60,55,208560,120
70,71,209040,120
65,60,209040,120
58,60,209040,120
65,69,209280,120
62,58,209280,120
58,58,209280,120
55,74,209760,120
63,72,209760,120
58,60,209760,120
62,68,210000,120
58,58,210000,120
55,58,210000,120
62,76,210480,120
55,64,210480,120
51,64,210480,120
60,74,210720,120
55,62,210720,120
51,62,210720,120
48,79,211200,120
51,64,211200,120
58,77,211200,120
51,62,211440,120
57,73,211440,120
48,62,211440,120
46,62,211680,120
48,63,211800,120
50,65,211920,120
51,66,212040,120
53,67,212160,80
55,68,212240,80
57,68,212320,80
58,69,212400,80
60,70,212480,80
62,71,212560,80
63,72,212640,80
65,72,212720,80
67,73,212800,80
69,85,212880,120
57,67,213000,120
58,62,213120,120
60,63,213240,120
62,65,213360,120
63,66,213480,120
65,67,213600,80
67,68,213680,80
69,68,213760,80
70,69,213840,80
72,70,213920,80
74,71,214000,80
75,72,214080,80
77,72,214160,80
79,73,214240,80
81,85,214320,120
69,67,214440,120
70,62,214560,120
72,63,214680,120
74,65,214800,120
75,66,214920,120
77,68,215040,80
79,70,215120,80
81,72,215200,80
82,74,215280,120
84,75,215400,120
86,77,215520,80
87,79,215600,80
89,81,215680,80
91,83,215760,80
93,92,215840,80
81,85,215920,80
82,89,216000,480
94,105,216000,480
82,90,216720,480
77,75,216720,480
74,75,216720,480
62,74,217440,480
65,74,217440,480
70,89,217440,480
70,45,218640,120
70,57,218880,180
66,45,219120,120
63,45,219360,120
82,58,221520,240
70,49,221520,240
82,59,221760,720
70,49,221760,720
71,52,222480,720
83,62,222480,720
72,59,223200,720
84,70,223200,720
85,60,223920,480
73,50,223920,480
73,45,224400,120
73,59,224640,180
70,45,224880,120
66,45,225120,120
73,49,227280,238
85,58,227280,238
85,59,227520,720
73,49,227520,720
75,52,228240,1440
87,62,228240,1440
76,50,229680,1440
88,60,229680,1440
90,64,231120,720
78,55,231120,720
91,67,231840,720
79,57,231840,720
92,69,232560,1440
80,59,232560,1440
90,67,234000,720
78,57,234000,720
76,63,234720,720
88,63,234720,720
73,49,235440,720
85,58,235440,720
75,54,236160,480
87,54,236160,1440
80,52,236640,240
78,62,236880,480
75,55,237360,240
85,62,237600,1440
73,62,237600,480
80,54,238080,240
78,61,238320,480
73,49,238800,240
87,41,239040,720
78,50,239040,120
80,34,239160,120
78,39,239280,120
80,35,239400,120
78,39,239520,120
80,36,239640,120
78,52,239760,120
83,45,239760,720
80,38,239880,120
78,44,240000,120
80,38,240120,120
78,46,240240,120
80,39,240360,120
82,47,240480,720
78,57,240480,120
80,38,240600,120
78,42,240720,120
80,37,240840,120
78,40,240960,120
80,36,241080,120
90,45,241200,720
78,51,241200,120
80,37,241320,120
78,40,241440,120
80,35,241560,120
78,41,241680,120
80,34,241800,120
90,50,241920,720
78,45,241920,720
78,47,242640,720
66,40,242640,720
66,41,243360,720
74,41,243360,720
78,46,243360,720
79,45,244080,480
67,45,244080,480
74,45,244080,480
81,43,244560,240
69,43,244560,240
74,43,244560,240
74,54,244800,480
71,54,244800,480
83,54,244800,480
76,51,245280,240
88,51,245280,240
74,58,245520,480
86,58,245520,480
83,50,246000,240
71,50,246000,240
69,62,246240,480
81,62,246240,480
88,50,246720,240
76,50,246720,240
86,58,246960,480
74,58,246960,480
81,53,247440,240
69,53,247440,240
83,38,247680,720
74,46,247680,120
76,31,247800,120
74,36,247920,120
76,32,248040,120
74,36,248160,120
76,33,248280,120
74,48,248400,120
79,41,248400,720
76,35,248520,120
74,40,248640,120
76,35,248760,120
74,42,248880,120
76,36,249000,120
78,43,249120,720
74,52,249120,120
76,35,249240,120
74,39,249360,120
76,34,249480,120
74,37,249600,120
76,33,249720,120
84,41,249840,720
74,47,249840,120
76,34,249960,120
74,37,250080,120
76,32,250200,120
74,38,250320,240
74,42,250560,240
83,50,250560,240
71,44,250800,240
86,50,251040,120
67,42,251040,120
86,54,251280,240
66,45,251280,240
83,46,251520,240
67,39,251520,240
71,38,251760,120
79,45,251760,120
71,46,252240,240
74,46,252480,240
79,50,252720,240
83,50,252960,240
79,43,253200,120
86,53,253200,120
88,57,253440,480
79,45,253440,240
76,46,253680,240
72,46,253920,240
71,53,254160,240
72,46,254400,240
76,46,254640,240
79,50,255120,240
84,54,255360,240
76,51,255600,480
88,60,255600,480
75,52,256080,240
87,62,256080,240
87,60,256320,240
84,55,256560,240
80,55,256800,180
79,60,257040,240
82,57,257280,240
75,50,257520,180
87,57,257520,180
75,58,257760,240
72,50,258000,240
68,50,258240,180
75,58,258480,240
70,51,258720,240
82,51,258960,180
70,51,258960,180
70,50,259200,240
82,59,259200,240
67,43,259440,240
79,51,259440,240
63,39,259680,240
75,47,259680,240
62,45,259920,240
74,54,259920,240
77,49,260160,240
65,41,260160,240
82,50,260400,180
70,42,260400,180
70,46,260640,240
82,55,260640,240
67,43,260880,240
79,51,260880,240
63,43,261120,180
75,51,261120,180
63,47,261360,240
75,56,261360,240
79,48,261600,240
67,40,261600,240
84,58,261840,180
72,49,261840,180
72,53,262080,240
84,63,262080,240
68,48,262320,240
80,57,262320,240
65,48,262560,240
77,57,262560,240
64,53,262800,240
76,63,262800,240
67,48,263040,240
79,57,263040,240
72,52,263280,180
84,62,263280,180
84,73,263520,240
72,62,263520,240
68,50,263760,240
80,59,263760,240
77,59,264000,240
65,50,264000,240
74,67,264240,240
62,56,264240,240
65,51,264480,240
77,60,264480,240
70,51,264720,180
82,60,264720,180
70,56,264960,240
82,67,264960,240
67,49,265200,240
79,58,265200,240
63,49,265440,240
75,58,265440,240
60,51,265680,240
72,61,265680,240
77,56,265920,240
65,47,265920,240
80,56,266160,180
68,47,266160,180
70,65,266400,240
58,55,266400,240
75,59,266640,240
63,50,266640,240
79,60,266880,180
67,51,266880,180
70,67,267120,240
58,56,267120,240
74,60,267360,240
62,51,267360,240
68,60,267600,120
77,60,267720,120
79,55,267960,120
82,59,268080,120
87,55,268200,120
91,61,268320,120
79,55,268440,120
80,55,268680,120
82,59,268800,120
89,55,268920,120
92,61,269040,120
80,56,269160,120
79,56,269400,120
82,60,269520,120
87,56,269640,120
91,62,269760,120
79,56,269880,120
79,56,270120,120
82,61,270240,120
87,57,270360,120
91,63,270480,120
88,57,270600,120
80,57,270840,120
84,61,270960,120
89,57,271080,120
92,63,271200,120
80,57,271320,120
82,58,271560,120
84,62,271680,120
91,58,271800,120
94,64,271920,120
82,58,272040,120
80,58,272280,120
84,62,272400,120
89,59,272520,120
92,66,272640,120
80,59,272760,120
80,59,273000,120
82,63,273120,120
89,59,273240,120
92,67,273360,120
80,59,273480,120
79,60,273720,120
82,64,273840,120
87,60,273960,120
91,68,274080,120
79,61,274200,120
92,62,274440,120
89,68,274560,120
87,63,274680,120
80,72,274800,120
92,66,274920,120
94,67,275160,120
91,72,275280,120
87,68,275400,120
82,78,275520,120
94,69,275640,120
94,70,275880,120
89,77,276000,120
86,72,276120,120
82,81,276240,120
94,73,276360,120
55,85,276480,120
63,70,276600,120
58,79,276720,120
67,70,276840,120
63,81,276960,120
70,70,277080,120
67,86,277200,120
75,70,277320,120
70,77,277440,120
79,70,277560,120
75,78,277680,120
82,70,277800,120
79,86,277920,120
87,70,278040,120
82,77,278160,120
91,67,278280,120
87,75,278400,120
94,68,278520,120
93,80,278640,120
94,72,278760,120
93,77,278880,120
94,70,279000,120
93,75,279120,120
94,70,279240,120
96,84,279360,120
94,84,279480,120
92,83,279600,120
91,82,279720,120
89,81,279840,120
87,81,279960,120
86,79,280080,120
84,71,280200,120
82,71,280320,120
80,71,280440,120
79,71,280560,120
77,71,280680,120
75,77,280800,120
74,75,280920,120
72,74,281040,120
70,74,281160,120
68,73,281280,120
67,72,281400,120
65,70,281520,120
63,64,281640,120
62,70,281760,120
65,66,281880,120
68,75,282000,120
62,69,282120,120
55,85,282240,120
63,70,282360,120
58,79,282480,120
67,70,282600,120
63,81,282720,120
70,70,282840,120
67,86,282960,120
75,70,283080,120
70,77,283200,120
79,70,283320,120
75,78,283440,120
82,70,283560,120
79,86,283680,120
87,70,283800,120
82,77,283920,120
91,67,284040,120
87,75,284160,120
94,68,284280,120
93,80,284400,120
94,72,284520,120
93,77,284640,120
94,70,284760,120
93,75,284880,120
94,70,285000,120
96,84,285120,120
94,84,285240,120
92,83,285360,120
91,82,285480,120
89,81,285600,120
87,81,285720,120
85,79,285840,120
84,71,285960,120
82,71,286080,120
80,71,286200,120
79,71,286320,120
77,71,286440,120
75,77,286560,121
73,75,286680,121
72,74,286800,120
70,74,286920,120
68,73,287040,120
67,72,287160,120
65,68,287280,120
63,59,287400,120
62,66,287520,120
65,59,287640,120
68,64,287760,120
62,59,287880,120
63,95,288000,240
75,89,288720,240
78,96,289440,240
83,88,290160,240
78,94,290880,240
75,88,291600,240
71,93,292320,240
66,82,293040,240
62,95,293760,240
74,89,294480,240
77,96,295200,240
82,88,295920,240
77,94,296640,240
74,88,297360,240
70,93,298080,240
65,82,298800,240
78,55,299520,120
89,51,299940,60
87,56,300000,120
86,51,300120,120
87,56,300240,240
92,51,300660,60
90,57,300720,120
89,50,300840,120
90,60,300960,120
97,51,301380,60
95,56,301440,120
94,51,301560,120
95,56,301680,240
92,51,302100,60
90,57,302160,120
89,50,302280,120
90,60,302400,120
89,51,302820,60
87,56,302880,120
86,51,303000,120
87,56,303120,240
85,51,303540,60
83,57,303600,120
82,50,303720,120
83,60,303840,120
80,51,304260,60
78,56,304320,120
77,51,304440,120
78,56,304560,480
77,55,305280,120
87,51,305700,60
86,56,305760,120
84,51,305880,120
86,56,306000,240
90,51,306420,60
89,57,306480,120
88,50,306600,120
89,60,306720,120
95,51,307140,60
94,56,307200,120
93,51,307320,120
94,56,307440,240
90,51,307860,60
89,57,307920,120
88,50,308040,120
89,60,308160,120
87,51,308580,60
86,56,308640,120
84,51,308760,120
86,56,308880,240
83,51,309300,60
82,57,309360,120
81,50,309480,120
82,60,309600,120
78,51,310020,60
77,56,310080,120
76,51,310200,120
77,56,310320,240
78,52,310800,240
79,56,311040,720
70,35,311040,120
72,31,311160,120
70,35,311280,120
72,31,311400,120
70,34,311520,120
72,31,311640,120
70,36,311760,120
75,55,311760,720
72,32,311880,120
70,36,312000,120
72,31,312120,120
70,37,312240,120
72,31,312360,120
74,59,312480,720
70,37,312480,120
72,33,312600,120
70,37,312720,120
72,33,312840,120
70,37,312960,120
72,34,313080,120
70,38,313200,120
80,59,313200,720
72,34,313320,120
70,39,313440,120
72,33,313560,120
70,39,313680,120
72,34,313800,120
70,40,313920,120
79,64,313920,720
72,35,314040,120
70,39,314160,120
72,35,314280,120
70,38,314400,120
72,34,314520,120
75,60,314640,720
70,39,314640,120
72,34,314760,120
70,38,314880,120
72,33,315000,120
70,38,315120,120
72,32,315240,120
70,37,315360,120
74,60,315360,720
72,33,315480,120
70,37,315600,120
72,32,315720,120
70,35,315840,120
72,32,315960,120
80,56,316080,720
70,36,316080,120
72,32,316200,120
70,36,316320,120
72,30,316440,120
70,35,316560,120
72,30,316680,120
70,48,316800,120
79,51,316800,120
72,45,316920,120
74,50,317040,120
75,52,317160,120
77,54,317280,80
79,56,317360,80
80,59,317440,80
82,61,317520,120
80,60,317640,120
79,58,317760,80
77,56,317840,80
75,54,317920,80
74,53,318000,80
72,51,318080,80
71,49,318160,80
72,54,318240,120
75,45,318360,120
77,48,318480,120
79,50,318600,120
80,56,318720,120
82,59,318840,120
84,61,318960,120
82,60,319080,120
80,58,319200,80
79,57,319280,80
77,56,319360,80
75,55,319440,80
74,54,319520,80
72,53,319600,80
70,57,319680,120
79,49,319800,120
75,59,319920,120
82,55,320040,120
79,62,320160,120
87,57,320280,120
82,62,320400,120
91,57,320520,120
87,55,320640,120
94,61,320753,120
91,53,320880,120
87,54,321000,120
82,59,321120,480
89,59,321840,80
91,52,321920,80
89,59,322000,80
91,54,322080,80
89,59,322160,80
91,53,322240,80
89,59,322320,80
91,53,322400,80
89,56,322480,80
91,67,322560,720
82,45,322560,120
84,34,322680,120
82,38,322800,120
84,34,322920,120
82,37,323040,120
84,34,323160,120
87,60,323280,720
82,39,323280,120
84,35,323400,120
82,39,323520,120
84,34,323640,120
82,40,323760,120
84,34,323880,120
82,40,324000,120
86,64,324000,720
84,36,324120,120
82,40,324240,120
84,36,324360,120
82,40,324480,120
84,37,324600,120
92,64,324720,720
82,41,324720,120
84,37,324840,120
82,42,324960,120
84,36,325080,120
82,42,325200,120
84,37,325320,120
91,70,325440,720
82,44,325440,120
84,38,325560,120
82,42,325680,120
84,38,325800,120
82,41,325920,120
84,37,326040,120
82,42,326160,120
87,66,326160,720
84,37,326280,120
82,41,326400,120
84,36,326520,120
82,41,326640,120
84,35,326760,120
86,66,326880,720
82,40,326880,120
84,36,327000,120
82,40,327120,120
84,35,327240,120
82,38,327360,120
84,35,327480,120
82,39,327600,120
92,61,327600,720
84,35,327720,120
82,39,327840,120
84,33,327960,120
82,38,328080,120
84,33,328200,120
87,49,328560,120
91,49,328560,120
91,49,328800,120
87,49,328800,120
87,52,329040,120
91,52,329040,120
87,46,329280,120
91,46,329280,120
87,46,329520,120
91,46,329520,120
87,49,330000,120
89,49,330000,120
89,49,330240,120
87,49,330240,120
89,53,330480,120
87,53,330480,120
89,48,330720,120
87,48,330720,120
89,50,330960,120
87,50,330960,120
91,52,331440,120
87,52,331440,120
91,53,331680,120
87,53,331680,120
91,57,331920,120
87,57,331920,120
91,51,332160,120
87,51,332160,120
91,52,332400,120
87,52,332400,120
89,64,332640,120
86,64,332640,120
89,50,332880,120
86,50,332880,120
89,49,333120,120
86,49,333120,120
86,58,333360,120
89,58,333360,120
86,49,333600,120
89,49,333600,120
86,48,333840,120
89,48,333840,120
85,68,334560,720
97,80,334560,720
96,77,335280,240
84,64,335280,240
71,69,336000,720
83,81,336000,720
70,67,336720,240
82,80,336720,240
61,73,337440,720
73,86,337440,720
60,63,338160,240
72,77,338160,240
47,78,338880,720
59,92,338880,720
46,75,339600,240
58,90,339600,240
70,71,340080,120
58,60,340080,120
70,68,340320,120
58,57,340320,120
68,69,340800,120
56,58,340800,120
67,65,341040,120
55,55,341040,120
67,71,341520,120
55,60,341520,120
65,68,341760,120
53,57,341760,120
63,69,342240,120
51,58,342240,120
62,65,342480,120
50,55,342480,120
82,71,342960,120
70,60,342960,120
82,68,343200,120
70,57,343200,120
80,69,343680,120
68,58,343680,120
79,65,343920,120
67,55,343920,120
79,71,344400,120
67,60,344400,120
77,68,344640,120
65,57,344640,120
75,69,345120,120
63,58,345120,120
74,65,345360,120
62,55,345360,120
75,71,345840,120
67,60,345840,120
63,60,345840,120
70,69,346080,120
67,58,346080,120
63,58,346080,120
60,74,346560,120
68,72,346560,120
63,60,346560,120
67,68,346800,120
63,58,346800,120
60,58,346800,120
67,76,347280,120
60,64,347280,120
56,64,347280,120
65,74,347520,120
60,62,347520,120
56,62,347520,120
53,79,348000,120
63,77,348000,120
56,64,348000,120
62,73,348240,120
56,62,348240,120
53,62,348240,120
51,62,348480,120
53,63,348600,120
55,65,348720,120
56,66,348840,120
58,67,348960,80
60,68,349040,80
62,68,349120,80
63,69,349200,80
65,70,349280,80
67,71,349360,80
68,72,349440,80
70,72,349520,80
72,73,349600,80
74,85,349680,120
62,67,349800,120
63,62,349920,120
65,63,350040,120
67,65,350160,120
68,66,350280,120
70,67,350400,80
72,68,350480,80
74,68,350560,80
75,69,350640,80
77,70,350720,80
79,71,350800,80
80,72,350880,80
82,72,350960,80
84,73,351040,80
86,85,351120,120
74,67,351240,120
75,62,351360,120
77,63,351480,120
79,65,351600,120
80,66,351720,120
82,68,351840,80
84,70,351920,80
86,72,352000,80
87,74,352080,120
89,78,352200,120
91,82,352320,120
92,86,352440,120
94,90,352560,80
96,92,352640,80
98,95,352720,80
99,103,352800,480
67,75,353520,480
70,75,353520,480
75,90,353520,480
55,74,354240,480
58,74,354240,480
63,89,354240,480
70,70,354960,480
70,60,355440,240
70,45,355680,240
67,45,355920,240
63,39,356160,240
62,45,356400,240
65,40,356640,240
70,40,356880,180
70,45,357120,240
67,41,357360,240
63,41,357600,240
64,45,357840,240
67,39,358080,240
72,46,358320,180
72,50,358560,240
68,45,358800,240
65,45,359040,240
66,49,359280,240
69,44,359520,240
74,47,359760,180
74,56,360000,240
70,45,360240,240
67,45,360480,240
68,51,360720,240
70,45,360960,240
74,45,361200,180
75,50,361440,240
70,43,361680,240
67,43,361920,180
67,45,362160,240
70,41,362400,240
75,41,362640,180
79,50,362880,240
75,43,363120,240
70,44,363360,180
70,47,363600,240
75,43,363840,240
79,44,364080,180
79,46,364320,240
82,55,364320,240
75,39,364560,240
79,47,364560,240
75,48,364800,240
70,40,364800,240
79,51,365040,240
75,43,365040,240
70,39,365280,240
75,47,365280,240
67,40,365520,180
70,48,365520,180
70,50,365760,240
75,60,365760,240
67,43,366000,240
70,52,366000,240
67,52,366240,240
63,44,366240,240
70,54,366480,240
60,38,366720,240
68,46,366720,240
62,36,366960,180
65,43,366960,180
67,54,367200,120
75,54,367200,120
74,46,367320,120
75,46,367440,120
70,42,367560,120
67,54,367680,120
68,47,367860,60
67,54,367920,120
66,43,368040,120
67,48,368160,120
70,43,368280,120
75,56,368400,120
67,48,368640,720
79,54,368640,120
78,46,368760,120
79,46,368880,120
75,42,369000,120
70,54,369120,120
72,47,369300,60
70,54,369360,120
69,43,369480,120
70,48,369600,120
75,43,369720,120
79,56,369840,120
82,54,370080,120
79,45,370080,120
84,50,370200,120
80,42,370200,120
82,55,370320,120
79,45,370320,120
79,49,370440,120
75,41,370440,120
67,47,370560,240
75,56,370560,240
79,57,370800,120
75,48,370800,120
80,54,370920,120
79,59,371040,120
75,49,371040,120
75,53,371160,120
70,44,371160,120
67,50,371280,240
70,60,371280,240
75,62,371520,120
67,51,371520,120
77,56,371640,120
75,59,371760,120
67,49,371760,120
70,51,371880,120
67,43,371880,120
63,47,372000,240
67,56,372000,240
70,54,372240,240
60,38,372480,240
68,46,372480,240
62,36,372720,180
65,43,372720,180
79,46,373080,240
82,55,373080,240
75,39,373320,238
79,47,373320,238
75,48,373560,238
70,40,373560,238
79,51,373800,238
75,43,373800,238
70,39,374040,238
75,47,374040,238
67,40,374280,238
70,48,374280,238
70,50,374520,238
75,60,374520,238
67,43,374760,238
70,52,374760,238
67,52,375000,238
62,46,375240,238
70,54,375240,238
62,38,375480,238
68,46,375480,238
62,36,375720,120
65,43,375720,120
82,80,375840,120
94,63,375960,120
79,69,376080,120
91,64,376200,120
75,69,376320,120
87,64,376440,120
79,80,376560,120
91,64,376680,120
75,69,376800,120
87,64,376920,120
70,69,377040,120
82,65,377160,120
75,80,377280,120
87,65,377400,120
70,70,377520,120
82,65,377640,120
67,70,377760,120
79,66,377880,120
70,80,378000,120
82,64,378120,120
68,69,378240,120
80,65,378360,120
65,69,378480,120
77,66,378600,120
63,80,378720,120
75,65,378840,120
67,70,378960,120
79,66,379080,120
67,71,379200,120
79,67,379320,120
67,82,379440,120
79,66,379560,120
70,72,379680,120
82,68,379800,120
70,73,379920,120
82,69,380040,120
70,85,380160,120
82,70,380280,120
75,75,380400,120
87,70,380520,120
75,76,380640,120
87,72,380760,120
75,88,380880,120
87,77,381000,120
79,88,381120,120
91,81,381240,120
82,92,381360,120
94,84,381480,120
87,101,381600,480
99,109,381600,480
74,88,382320,480
68,74,382320,480
65,74,382320,480
70,74,382320,480
67,77,383040,480
70,80,383040,480
75,95,383040,480
65,66,0,120
68,75,0,120
62,66,0,120
58,66,0,120
46,60,240,120
50,50,360,120
46,60,480,120
50,51,600,120
50,59,720,120
53,52,840,120
50,59,960,120
53,52,1080,120
50,59,1200,120
53,51,1320,120
53,59,1440,120
56,51,1560,120
53,59,1680,120
56,50,1800,120
53,58,1920,120
56,50,2040,120
58,58,2160,120
62,50,2280,120
58,58,2400,120
62,50,2520,120
58,58,2640,120
62,51,2760,120
62,57,2880,120
65,50,3000,120
62,57,3120,120
65,49,3240,120
62,57,3360,120
65,48,3480,120
65,57,3600,120
68,48,3720,120
65,57,3840,120
68,49,3960,120
65,56,4080,120
68,50,4200,120
74,56,4320,120
77,49,4440,120
74,56,4560,120
77,47,4680,120
74,56,4800,120
77,47,4920,120
77,56,5040,120
80,47,5160,120
77,55,5280,120
80,48,5400,120
77,55,5520,120
80,49,5640,120
77,33,6240,720
80,33,6240,240
74,38,6480,480
80,32,7680,240
77,32,7680,720
74,36,7920,480
68,30,9120,240
65,30,9120,720
62,34,9360,480
65,28,10560,720
68,28,10560,240
62,31,10800,480
58,75,11520,120
50,66,11520,120
46,66,11520,120
53,66,11520,120
46,60,11760,120
46,59,12000,120
50,57,12240,120
53,56,12480,120
58,54,12720,120
62,54,12960,120
65,54,13200,120
68,52,13440,120
70,52,13440,120
70,50,13680,120
68,50,13680,120
68,49,13920,120
70,49,13920,120
70,48,14160,120
68,48,14160,120
63,34,14400,480
67,34,14400,480
70,40,14400,480
65,28,15120,480
68,28,15120,480
58,28,15120,480
70,34,15120,480
63,34,15840,480
70,40,15840,480
67,34,15840,480
64,28,17040,180
67,28,17040,180
70,28,17040,180
72,34,17040,180
68,34,17280,480
65,34,17280,480
72,40,17280,480
72,34,18000,480
70,28,18000,480
60,28,18000,480
67,28,18000,480
65,34,18720,480
68,34,18720,480
72,40,18720,480
65,31,19920,180
62,31,19920,180
68,31,19920,180
70,37,19920,180
67,33,20160,480
70,39,20160,480
63,33,20160,480
56,29,20880,480
60,29,20880,480
65,35,20880,480
63,35,21600,480
58,35,21600,480
67,42,21600,480
58,33,22320,480
65,39,22320,480
62,33,22320,480
58,39,22800,180
58,49,23040,240
55,49,23280,240
51,42,23520,240
50,49,23760,240
53,45,24000,240
58,45,24240,180
58,51,24480,240
55,47,24720,240
51,47,24960,180
51,52,25200,240
55,46,25440,240
52,49,25680,180
60,60,25680,180
60,66,25920,240
53,53,25920,240
56,53,26160,240
53,53,26400,240
52,59,26640,240
55,53,26880,240
60,58,27120,180
60,70,27360,240
56,56,27600,240
53,57,27840,240
50,64,28080,240
53,58,28320,240
50,53,28560,180
58,63,28560,180
58,72,28800,240
51,61,28800,240
55,56,29040,240
51,57,29280,240
44,50,29520,240
48,59,29520,240
53,55,29760,240
56,55,30000,180
46,61,30240,240
51,56,30480,240
55,56,30720,180
46,62,30960,240
50,56,31200,240
58,56,31440,180
46,56,31440,180
46,63,31680,240
43,63,31920,240
39,55,32160,240
38,63,32400,240
41,57,32640,240
46,57,32880,180
46,63,33120,240
43,58,33360,240
39,58,33600,180
39,63,33840,240
43,55,34080,240
40,58,34320,180
48,70,34320,180
48,78,34560,240
41,63,34560,240
44,63,34800,240
41,63,35040,240
40,69,35280,240
43,62,35520,240
48,73,35760,180
48,86,36000,240
44,63,36240,240
41,63,36480,240
38,72,36720,240
41,63,36960,240
38,58,37200,180
46,69,37200,180
39,66,37440,240
46,78,37440,240
43,60,37680,240
39,60,37920,240
32,53,38160,480
36,63,38160,240
41,58,38400,240
44,63,38640,180
34,69,38880,240
39,58,39120,240
43,58,39360,180
34,63,39600,240
41,57,39840,240
46,57,40080,180
39,73,40320,120
55,62,40560,120
51,49,40560,120
58,62,40800,120
51,49,40800,120
55,49,40800,120
55,49,41040,120
63,62,41040,120
58,49,41040,120
51,49,41040,120
51,49,41280,120
63,62,41280,120
58,49,41280,120
55,49,41280,120
58,49,41520,120
63,62,41520,120
51,49,41520,120
55,49,41520,120
63,70,41760,120
55,56,41760,120
58,56,41760,120
51,56,41760,120
58,49,42000,120
63,62,42000,120
51,49,42000,120
55,49,42000,120
55,49,42240,120
63,62,42240,120
58,49,42240,120
51,49,42240,120
53,49,42480,120
62,62,42480,120
56,49,42480,120
58,49,42480,120
51,49,42480,120
53,49,42720,120
62,62,42720,120
58,49,42720,120
56,49,42720,120
51,49,42720,120
53,49,42960,120
62,62,42960,120
58,49,42960,120
56,49,42960,120
51,49,42960,120
51,57,43200,120
63,72,43200,120
58,57,43200,120
55,57,43200,120
58,49,43440,120
63,62,43440,120
51,49,43440,120
55,49,43440,120
63,62,43680,120
55,49,43680,120
58,49,43680,120
51,49,43680,120
58,49,43920,120
63,62,43920,120
51,49,43920,120
55,49,43920,120
55,49,44160,120
63,62,44160,120
58,49,44160,120
51,49,44160,120
51,49,44400,120
63,62,44400,120
58,49,44400,120
55,49,44400,120
58,55,44640,120
63,69,44640,120
51,55,44640,120
55,55,44640,120
63,61,44880,120
55,48,44880,120
58,48,44880,120
51,48,44880,120
58,48,45120,120
63,61,45120,120
51,48,45120,120
55,48,45120,120
53,48,45360,120
58,61,45360,120
56,48,45360,120
51,48,45360,120
51,48,45600,120
58,61,45600,120
56,48,45600,120
53,48,45600,120
56,48,45840,120
58,61,45840,120
51,48,45840,120
53,48,45840,120
39,73,46080,120
51,49,46320,120
55,62,46320,120
51,49,46560,120
58,62,46560,120
55,49,46560,120
58,49,46800,120
63,62,46800,120
51,49,46800,120
55,49,46800,120
63,62,47040,120
55,49,47040,120
58,49,47040,120
51,49,47040,120
58,49,47280,120
63,62,47280,120
51,49,47280,120
55,49,47280,120
55,56,47520,120
63,70,47520,120
58,56,47520,120
51,56,47520,120
58,49,47760,120
51,49,47760,120
55,49,47760,120
63,62,47760,120
55,49,48000,120
51,49,48000,120
58,49,48000,120
63,62,48000,120
62,62,48240,120
53,49,48240,120
51,49,48240,120
58,49,48240,120
56,49,48240,120
62,62,48480,120
53,49,48480,120
51,49,48480,120
56,49,48480,120
58,49,48480,120
62,62,48720,120
53,49,48720,120
51,49,48720,120
56,49,48720,120
58,49,48720,120
63,72,48960,120
51,57,48960,120
58,57,48960,120
55,57,48960,120
63,62,49200,120
58,49,49200,120
51,49,49200,120
55,49,49200,120
63,62,49440,120
58,49,49440,120
55,49,49440,120
51,49,49440,120
58,49,49680,120
51,49,49680,120
55,49,49680,120
63,62,49680,120
55,49,49920,120
51,49,49920,120
58,49,49920,120
63,62,49920,120
63,62,50160,120
51,49,50160,120
58,49,50160,120
55,49,50160,120
55,55,50400,120
51,55,50400,120
58,69,50400,120
58,61,50640,120
55,48,50640,120
51,48,50640,120
55,48,50880,120
58,61,50880,120
51,48,50880,120
53,61,51120,120
51,48,51120,120
51,48,51360,120
53,61,51360,120
41,48,51360,120
53,61,51600,120
41,48,51600,120
51,48,51600,120
34,80,51840,240
46,80,51840,240
58,75,52560,240
61,81,53280,240
66,74,54000,240
61,79,54720,240
58,74,55440,240
54,78,56160,240
49,70,56880,240
45,80,57600,240
33,80,57600,240
57,75,58320,240
60,81,59040,240
65,74,59760,240
60,79,60480,240
57,74,61200,240
53,78,61920,240
48,70,62640,240
61,34,63360,120
66,40,63360,120
58,34,63360,120
58,29,63600,120
61,29,63600,120
66,35,63600,120
61,29,63840,120
58,29,63840,120
66,35,63840,120
58,29,64080,120
66,36,64080,120
61,29,64080,120
58,30,64320,120
61,30,64320,120
66,36,64320,120
61,30,64560,120
66,36,64560,120
58,30,64560,120
58,36,64800,120
61,36,64800,120
66,42,64800,120
61,31,65040,120
58,31,65040,120
66,37,65040,120
58,31,65280,120
66,37,65280,120
61,31,65280,120
58,31,65520,120
61,31,65520,120
66,38,65520,120
61,29,65760,120
66,35,65760,120
58,29,65760,120
58,29,66000,120
61,29,66000,120
66,35,66000,120
61,34,66240,120
58,34,66240,120
66,40,66240,120
58,29,66480,120
66,35,66480,120
61,29,66480,120
58,29,66720,120
61,29,66720,120
66,35,66720,120
61,29,66960,120
66,35,66960,120
58,29,66960,120
58,29,67200,120
61,29,67200,120
66,35,67200,120
61,29,67440,120
58,29,67440,120
66,35,67440,120
58,34,67680,120
66,40,67680,120
61,34,67680,120
58,29,67920,120
61,29,67920,120
66,35,67920,120
61,29,68160,120
66,35,68160,120
58,29,68160,120
58,29,68400,120
61,29,68400,120
66,35,68400,120
61,29,68640,120
58,29,68640,120
66,35,68640,120
58,29,68880,120
64,35,68880,120
61,29,68880,120
57,34,69120,120
60,34,69120,120
65,40,69120,120
60,29,69360,120
65,35,69360,120
57,29,69360,120
65,35,69600,120
57,29,69600,120
60,29,69600,120
57,29,69840,120
60,29,69840,120
65,36,69840,120
60,30,70080,120
57,30,70080,120
65,36,70080,120
57,30,70320,120
65,36,70320,120
60,30,70320,120
57,36,70560,120
60,36,70560,120
65,42,70560,120
65,37,70800,120
57,31,70800,120
60,31,70800,120
57,31,71040,120
60,31,71040,120
65,37,71040,120
60,31,71280,120
57,31,71280,120
65,38,71280,120
57,29,71520,120
65,35,71520,120
60,29,71520,120
57,29,71760,120
60,29,71760,120
65,35,71760,120
65,40,72000,120
57,34,72000,120
60,34,72000,120
57,29,72240,120
60,29,72240,120
65,35,72240,120
60,29,72480,120
57,29,72480,120
65,35,72480,120
57,29,72720,120
65,35,72720,120
60,29,72720,120
57,29,72960,120
60,29,72960,120
65,35,72960,120
65,35,73200,120
57,29,73200,120
60,29,73200,120
60,34,73440,120
57,34,73440,120
65,40,73440,120
60,29,73680,120
57,29,73680,120
65,35,73680,120
57,29,73920,120
60,29,73920,120
65,35,73920,120
57,29,74160,240
60,29,74160,240
65,35,74160,240
53,35,74400,240
51,35,74640,240
46,40,74880,1440
50,40,74880,480
55,33,75360,240
53,42,75600,480
50,39,76080,240
41,42,76320,1440
48,42,76320,480
55,36,76800,240
53,45,77040,480
48,41,77520,240
46,46,77760,1440
50,46,77760,480
55,37,78240,240
53,45,78480,480
50,40,78960,240
41,43,79200,1440
48,43,79200,480
55,34,79680,240
53,42,79920,480
48,37,80400,240
50,40,80640,120
46,34,80640,120
50,29,80880,120
53,29,80880,120
58,35,80880,120
50,29,81120,120
53,29,81120,120
58,35,81120,120
50,29,81360,120
53,29,81360,120
58,35,81360,120
50,29,81600,120
53,29,81600,120
58,35,81600,120
50,29,81840,120
53,29,81840,120
58,35,81840,120
51,29,82320,120
55,29,82320,120
58,35,82320,120
51,29,82560,120
55,29,82560,120
58,35,82560,120
51,29,82800,120
55,29,82800,120
58,35,82800,120
51,29,83040,120
55,29,83040,120
58,35,83040,120
51,29,83280,120
55,29,83280,120
60,35,83280,120
53,29,83760,120
58,29,83760,120
62,35,83760,120
53,29,84000,120
58,29,84000,120
62,35,84000,120
53,29,84240,120
58,29,84240,120
62,35,84240,120
53,29,84480,120
58,29,84480,120
62,35,84480,120
53,29,84720,120
58,29,84720,120
62,35,84720,120
62,35,84960,120
53,29,84960,120
58,29,84960,120
53,29,85200,120
58,29,85200,120
62,35,85200,120
62,35,85440,120
58,29,85440,120
53,29,85440,120
53,29,85680,120
57,29,85680,120
63,35,85680,120
53,29,85920,120
57,29,85920,120
63,35,85920,120
53,29,86160,120
57,29,86160,120
63,35,86160,120
58,40,86400,1440
62,40,86400,480
67,33,86880,240
65,42,87120,480
62,39,87600,240
53,42,87840,1440
60,42,87840,480
67,36,88320,240
65,45,88560,480
60,41,89040,240
58,46,89280,1440
62,46,89280,480
67,37,89760,240
65,45,90000,480
62,40,90480,240
53,43,90720,1440
60,43,90720,480
67,34,91200,240
65,42,91440,480
60,37,91920,240
62,51,92160,120
65,51,92160,120
67,45,92280,120
69,50,92400,120
70,52,92520,120
72,54,92640,80
74,56,92720,80
75,59,92800,80
77,61,92880,120
75,60,93000,120
74,58,93120,120
72,57,93240,120
70,55,93360,120
69,54,93480,120
63,51,93600,120
67,51,93600,120
69,45,93720,120
70,48,93840,120
72,50,93960,120
74,55,94080,80
75,57,94160,80
77,60,94240,80
79,62,94320,120
77,62,94440,120
75,60,94560,80
74,59,94640,80
72,58,94720,80
70,58,94800,80
69,57,94880,80
67,56,94960,80
65,60,95040,120
53,52,95160,120
58,63,95280,120
62,59,95400,120
65,68,95520,120
70,62,95640,120
74,63,95760,120
70,54,95880,120
77,66,96000,120
74,62,96120,120
70,70,96240,120
74,64,96360,120
72,67,96480,80
65,60,96480,240
74,59,96560,80
72,67,96640,80
74,61,96720,80
72,66,96800,80
74,59,96880,80
72,66,96960,80
74,59,97040,80
72,62,97120,80
74,56,97200,80
72,63,97280,80
74,55,97360,80
72,63,97440,80
74,55,97520,80
72,63,97600,80
74,55,97680,80
72,63,97760,80
74,59,97840,80
65,62,97920,120
71,55,98040,120
72,58,98160,120
74,60,98280,120
72,58,98400,120
71,58,98520,120
63,61,98640,120
72,56,98760,120
74,59,98880,120
75,61,99000,120
74,57,99120,120
72,57,99240,120
63,62,99366,120
69,55,99480,120
70,58,99600,120
72,60,99715,120
70,59,99840,120
69,59,99960,120
62,62,100080,120
70,57,100200,120
72,61,100320,120
74,64,100440,120
72,59,100560,120
70,60,100680,120
53,65,100806,120
59,58,100920,120
60,62,101040,120
62,64,101155,120
60,62,101280,120
59,63,101400,120
51,67,101520,120
60,61,101640,120
62,65,101760,120
63,67,101880,120
62,63,102000,120
60,63,102120,120
51,70,102246,120
57,62,102360,120
58,66,102480,120
60,68,102595,120
58,66,102720,120
57,67,102840,120
50,70,102960,120
58,65,103080,120
60,69,103200,120
62,71,103320,120
60,67,103440,120
58,67,103560,120
50,70,103680,120
53,62,103800,120
58,66,103920,120
62,68,104040,120
58,66,104160,120
53,63,104280,120
43,70,104400,120
46,65,104520,120
50,69,104640,120
55,71,104760,120
50,67,104880,120
46,64,105000,120
39,70,105120,120
43,62,105240,120
48,66,105360,120
51,68,105480,120
48,66,105600,120
43,63,105720,120
41,70,105840,120
48,65,105960,120
51,69,106080,120
53,71,106200,120
51,67,106320,120
48,64,106440,120
38,70,106560,120
41,62,106680,120
46,66,106800,120
50,68,106920,120
46,67,107040,120
41,64,107160,120
31,72,107280,120
34,67,107400,120
38,72,107520,120
43,74,107640,120
38,71,107760,120
34,67,107880,120
39,74,108000,120
43,66,108120,120
48,71,108240,120
43,74,108360,120
39,72,108480,240
29,77,108720,120
36,72,108840,120
39,77,108960,120
41,80,109080,120
29,75,109200,120
41,72,109320,120
34,75,109440,120
46,75,109680,120
46,64,109920,120
50,77,109920,120
46,70,110160,480
50,70,110160,480
53,83,110160,480
48,60,110640,120
41,60,110640,120
53,71,110640,120
46,67,110880,120
53,79,110880,120
50,67,110880,120
46,63,111120,120
50,63,111120,120
53,75,111120,120
53,74,111360,120
46,62,111360,120
50,62,111360,120
46,69,111600,480
50,69,111600,480
53,82,111600,480
48,63,112080,120
41,63,112080,120
53,75,112080,120
46,64,112320,120
53,76,112320,120
50,64,112320,120
46,63,112560,120
50,63,112560,120
53,75,112560,120
53,73,112800,120
46,61,112800,120
50,61,112800,120
46,70,113040,480
50,70,113040,480
53,83,113040,480
48,63,113520,120
41,63,113520,120
53,75,113520,120
46,69,113760,480
58,82,113760,480
50,69,113760,480
53,69,113760,480
46,69,114480,480
50,69,114480,480
58,82,114480,480
53,69,114480,480
53,69,115200,480
58,82,115200,480
50,69,115200,480
46,69,115200,480
63,34,116640,480
67,34,116640,480
70,40,116640,480
65,28,117360,480
68,28,117360,480
58,28,117360,480
70,34,117360,480
63,34,118080,480
70,40,118080,480
67,34,118080,480
64,28,119280,180
67,28,119280,180
70,28,119280,180
72,34,119280,180
68,34,119520,480
65,34,119520,480
72,40,119520,480
72,34,120240,480
70,28,120240,480
60,28,120240,480
67,28,120240,480
65,34,120960,480
68,34,120960,480
72,40,120960,480
65,31,122160,180
62,31,122160,180
68,31,122160,180
70,37,122160,180
67,33,122400,480
70,39,122400,480
63,33,122400,480
56,29,123120,480
60,29,123120,480
65,35,123120,480
63,35,123840,480
58,35,123840,480
67,42,123840,480
58,33,124560,480
65,39,124560,480
62,33,124560,480
58,39,125040,180
58,49,125280,240
55,49,125520,240
51,42,125760,240
50,49,126000,240
53,45,126240,240
58,45,126480,180
58,51,126720,240
55,47,126960,240
51,47,127200,180
51,52,127440,240
55,46,127680,240
52,49,127920,180
60,60,127920,180
60,66,128160,240
53,53,128160,240
56,53,128400,240
53,53,128640,240
52,59,128880,240
55,53,129120,240
60,58,129360,180
60,70,129600,240
56,56,129840,240
53,57,130080,240
50,64,130320,240
53,58,130560,240
50,53,130800,180
58,63,130800,180
58,72,131040,240
51,61,131040,240
55,56,131280,240
51,57,131520,240
44,50,131760,240
48,59,131760,240
53,55,132000,240
56,55,132240,180
46,61,132480,240
51,56,132720,240
55,56,132960,180
46,62,133200,240
50,56,133440,240
58,56,133680,180
46,56,133680,180
46,63,133920,240
43,63,134160,240
39,55,134400,240
38,63,134640,240
41,57,134880,240
46,57,135120,180
46,63,135360,240
43,58,135600,240
39,58,135840,180
39,63,136080,240
43,55,136320,240
40,58,136560,180
48,70,136560,180
48,78,136800,240
41,63,136800,240
44,63,137040,240
41,63,137280,240
40,69,137520,240
43,62,137760,240
48,73,138000,180
48,86,138240,240
44,63,138480,240
41,63,138720,240
38,72,138960,240
41,63,139200,240
38,58,139440,180
46,69,139440,180
39,66,139680,240
46,78,139680,240
43,60,139920,240
39,60,140160,240
32,53,140400,480
36,63,140400,240
41,58,140640,240
44,63,140880,180
34,69,141120,240
39,58,141360,240
43,58,141600,180
34,63,141840,240
41,57,142080,240
46,57,142320,180
39,73,142560,120
55,62,142800,120
51,49,142800,120
58,62,143040,120
51,49,143040,120
55,49,143040,120
55,49,143280,120
63,62,143280,120
58,49,143280,120
51,49,143280,120
51,49,143520,120
63,62,143520,120
58,49,143520,120
55,49,143520,120
58,49,143760,120
63,62,143760,120
51,49,143760,120
55,49,143760,120
63,70,144000,120
55,56,144000,120
58,56,144000,120
51,56,144000,120
58,49,144240,120
63,62,144240,120
51,49,144240,120
55,49,144240,120
55,49,144480,120
63,62,144480,120
58,49,144480,120
51,49,144480,120
53,49,144720,120
62,62,144720,120
56,49,144720,120
58,49,144720,120
51,49,144720,120
53,49,144960,120
62,62,144960,120
58,49,144960,120
56,49,144960,120
51,49,144960,120
53,49,145200,120
62,62,145200,120
58,49,145200,120
56,49,145200,120
51,49,145200,120
51,57,145440,120
63,72,145440,120
58,57,145440,120
55,57,145440,120
58,49,145680,120
63,62,145680,120
51,49,145680,120
55,49,145680,120
63,62,145920,120
55,49,145920,120
58,49,145920,120
51,49,145920,120
58,49,146160,120
63,62,146160,120
51,49,146160,120
55,49,146160,120
55,49,146400,120
63,62,146400,120
58,49,146400,120
51,49,146400,120
51,49,146640,120
63,62,146640,120
58,49,146640,120
55,49,146640,120
58,55,146880,120
63,69,146880,120
51,55,146880,120
55,55,146880,120
63,61,147120,120
55,48,147120,120
58,48,147120,120
51,48,147120,120
58,48,147360,120
63,61,147360,120
51,48,147360,120
55,48,147360,120
53,48,147600,120
58,61,147600,120
56,48,147600,120
51,48,147600,120
51,48,147840,120
58,61,147840,120
56,48,147840,120
53,48,147840,120
56,48,148080,120
58,61,148080,120
51,48,148080,120
53,48,148080,120
39,73,148320,120
51,49,148560,120
55,62,148560,120
51,49,148800,120
58,62,148800,120
55,49,148800,120
58,49,149040,120
63,62,149040,120
51,49,149040,120
55,49,149040,120
63,62,149280,120
55,49,149280,120
58,49,149280,120
51,49,149280,120
58,49,149520,120
63,62,149520,120
51,49,149520,120
55,49,149520,120
55,56,149760,120
63,70,149760,120
58,56,149760,120
51,56,149760,120
58,49,150000,120
51,49,150000,120
55,49,150000,120
63,62,150000,120
55,49,150240,120
51,49,150240,120
58,49,150240,120
63,62,150240,120
62,62,150480,120
53,49,150480,120
51,49,150480,120
58,49,150480,120
56,49,150480,120
62,62,150720,120
53,49,150720,120
51,49,150720,120
56,49,150720,120
58,49,150720,120
62,62,150960,120
53,49,150960,120
51,49,150960,120
56,49,150960,120
58,49,150960,120
63,72,151200,120
51,57,151200,120
58,57,151200,120
55,57,151200,120
63,62,151440,120
58,49,151440,120
51,49,151440,120
55,49,151440,120
63,62,151680,120
58,49,151680,120
55,49,151680,120
51,49,151680,120
58,49,151920,120
51,49,151920,120
55,49,151920,120
63,62,151920,120
55,49,152160,120
51,49,152160,120
58,49,152160,120
63,62,152160,120
63,62,152400,120
51,49,152400,120
58,49,152400,120
55,49,152400,120
55,55,152640,120
51,55,152640,120
58,69,152640,120
58,61,152880,120
55,48,152880,120
51,48,152880,120
55,48,153120,120
58,61,153120,120
51,48,153120,120
53,61,153360,120
51,48,153360,120
51,48,153600,120
53,61,153600,120
41,48,153600,120
53,61,153840,120
41,48,153840,120
51,48,153840,120
34,80,154080,240
46,80,154080,240
58,75,154800,240
61,81,155520,240
66,74,156240,240
61,79,156960,240
58,74,157680,240
54,78,158400,240
49,70,159120,240
45,80,159840,240
33,80,159840,240
57,75,160560,240
60,81,161280,240
65,74,162000,240
60,79,162720,240
57,74,163440,240
53,78,164160,240
48,70,164880,240
61,34,165600,120
66,40,165600,120
58,34,165600,120
58,29,165840,120
61,29,165840,120
66,35,165840,120
61,29,166080,120
58,29,166080,120
66,35,166080,120
58,29,166320,120
66,36,166320,120
61,29,166320,120
58,30,166560,120
61,30,166560,120
66,36,166560,120
61,30,166800,120
66,36,166800,120
58,30,166800,120
58,36,167040,120
61,36,167040,120
66,42,167040,120
61,31,167280,120
58,31,167280,120
66,37,167280,120
58,31,167520,120
66,37,167520,120
61,31,167520,120
58,31,167760,120
61,31,167760,120
66,38,167760,120
61,29,168000,120
66,35,168000,120
58,29,168000,120
58,29,168240,120
61,29,168240,120
66,35,168240,120
61,34,168480,120
58,34,168480,120
66,40,168480,120
58,29,168720,120
66,35,168720,120
61,29,168720,120
58,29,168960,120
61,29,168960,120
66,35,168960,120
61,29,169200,120
66,35,169200,120
58,29,169200,120
58,29,169440,120
61,29,169440,120
66,35,169440,120
61,29,169680,120
58,29,169680,120
66,35,169680,120
58,34,169920,120
66,40,169920,120
61,34,169920,120
58,29,170160,120
61,29,170160,120
66,35,170160,120
61,29,170400,120
66,35,170400,120
58,29,170400,120
58,29,170640,120
61,29,170640,120
66,35,170640,120
61,29,170880,120
58,29,170880,120
66,35,170880,120
58,29,171120,120
64,35,171120,120
61,29,171120,120
57,34,171360,120
60,34,171360,120
65,40,171360,120
60,29,171600,120
65,35,171600,120
57,29,171600,120
65,35,171840,120
57,29,171840,120
60,29,171840,120
57,29,172080,120
60,29,172080,120
65,36,172080,120
60,30,172320,120
57,30,172320,120
65,36,172320,120
57,30,172560,120
65,36,172560,120
60,30,172560,120
57,36,172800,120
60,36,172800,120
65,42,172800,120
65,37,173040,120
57,31,173040,120
60,31,173040,120
57,31,173280,120
60,31,173280,120
65,37,173280,120
60,31,173520,120
57,31,173520,120
65,38,173520,120
57,29,173760,120
65,35,173760,120
60,29,173760,120
57,29,174000,120
60,29,174000,120
65,35,174000,120
65,40,174240,120
57,34,174240,120
60,34,174240,120
57,29,174480,120
60,29,174480,120
65,35,174480,120
60,29,174720,120
57,29,174720,120
65,35,174720,120
57,29,174960,120
65,35,174960,120
60,29,174960,120
57,29,175200,120
60,29,175200,120
65,35,175200,120
65,35,175440,120
57,29,175440,120
60,29,175440,120
60,34,175680,120
57,34,175680,120
65,40,175680,120
60,29,175920,120
57,29,175920,120
65,35,175920,120
57,29,176160,120
60,29,176160,120
65,35,176160,120
57,29,176400,240
60,29,176400,240
65,35,176400,240
53,35,176640,240
51,35,176880,240
46,40,177120,1440
50,40,177120,480
55,33,177600,240
53,42,177840,480
50,39,178320,240
41,42,178560,1440
48,42,178560,480
55,36,179040,240
53,45,179280,480
48,41,179760,240
46,46,180000,1440
50,46,180000,480
55,37,180480,240
53,45,180720,480
50,40,181200,240
41,43,181440,1440
48,43,181440,480
55,34,181920,240
53,42,182160,480
48,37,182640,240
50,40,182880,120
46,34,182880,120
50,29,183120,120
53,29,183120,120
58,35,183120,120
50,29,183360,120
53,29,183360,120
58,35,183360,120
50,29,183600,120
53,29,183600,120
58,35,183600,120
50,29,183840,120
53,29,183840,120
58,35,183840,120
50,29,184080,120
53,29,184080,120
58,35,184080,120
51,29,184560,120
55,29,184560,120
58,35,184560,120
51,29,184800,120
55,29,184800,120
58,35,184800,120
51,29,185040,120
55,29,185040,120
58,35,185040,120
51,29,185280,120
55,29,185280,120
58,35,185280,120
51,29,185520,120
55,29,185520,120
60,35,185520,120
53,29,186000,120
58,29,186000,120
62,35,186000,120
53,29,186240,120
58,29,186240,120
62,35,186240,120
53,29,186480,120
58,29,186480,120
62,35,186480,120
53,29,186720,120
58,29,186720,120
62,35,186720,120
53,29,186960,120
58,29,186960,120
62,35,186960,120
62,35,187200,120
53,29,187200,120
58,29,187200,120
53,29,187440,120
58,29,187440,120
62,35,187440,120
62,35,187680,120
58,29,187680,120
53,29,187680,120
53,29,187920,120
57,29,187920,120
63,35,187920,120
53,29,188160,120
57,29,188160,120
63,35,188160,120
53,29,188400,120
57,29,188400,120
63,35,188400,120
58,40,188640,1440
62,40,188640,480
67,33,189120,240
65,42,189360,480
62,39,189840,240
53,42,190080,1440
60,42,190080,480
67,36,190560,240
65,45,190800,480
60,41,191280,240
58,46,191520,1440
62,46,191520,480
67,37,192000,240
65,45,192240,480
62,40,192720,240
53,43,192960,1440
60,43,192960,480
67,34,193440,240
65,42,193680,480
60,37,194160,240
62,51,194400,120
65,51,194400,120
67,45,194520,120
69,50,194640,120
70,52,194760,120
72,54,194880,80
74,56,194960,80
75,59,195040,80
77,61,195120,120
75,60,195240,120
74,58,195360,120
72,57,195480,120
70,55,195600,120
69,54,195720,120
63,51,195840,120
67,51,195840,120
69,45,195960,120
70,48,196080,120
72,50,196200,120
74,55,196320,80
75,57,196400,80
77,60,196480,80
79,62,196560,120
77,62,196680,120
75,60,196800,80
74,59,196880,80
72,58,196960,80
70,58,197040,80
69,57,197120,80
67,56,197200,80
65,60,197280,120
53,52,197400,120
58,63,197520,120
62,59,197640,120
65,68,197760,120
70,62,197880,120
74,63,198000,120
70,54,198120,120
77,66,198240,120
74,62,198360,120
70,70,198480,120
74,64,198600,120
72,67,198720,80
65,60,198720,240
74,59,198800,80
72,67,198880,80
74,61,198960,80
72,66,199040,80
74,59,199120,80
72,66,199200,80
74,59,199280,80
72,62,199360,80
74,56,199440,80
72,63,199520,80
74,55,199600,80
72,63,199680,80
74,55,199760,80
72,63,199840,80
74,55,199920,80
72,63,200000,80
74,59,200080,80
65,62,200160,120
71,55,200280,120
72,58,200400,120
74,60,200520,120
72,58,200640,120
71,58,200760,120
63,61,200880,120
72,56,201000,120
74,59,201120,120
75,61,201240,120
74,57,201360,120
72,57,201480,120
63,62,201606,120
69,55,201720,120
70,58,201840,120
72,60,201955,120
70,59,202080,120
69,59,202200,120
62,62,202320,120
70,57,202440,120
72,61,202560,120
74,64,202680,120
72,59,202800,120
70,60,202920,120
53,65,203046,120
59,58,203160,120
60,62,203280,120
62,64,203395,120
60,62,203520,120
59,63,203640,120
51,67,203760,120
60,61,203880,120
62,65,204000,120
63,67,204120,120
62,63,204240,120
60,63,204360,120
51,70,204486,120
57,62,204600,120
58,66,204720,120
60,68,204835,120
58,66,204960,120
57,67,205080,120
50,70,205200,120
58,65,205320,120
60,69,205440,120
62,71,205560,120
60,67,205680,120
58,67,205800,120
50,70,205920,120
53,62,206040,120
58,66,206160,120
62,68,206280,120
58,66,206400,120
53,63,206520,120
43,70,206640,120
46,65,206760,120
50,69,206880,120
55,71,207000,120
50,67,207120,120
46,64,207240,120
39,70,207360,120
43,62,207480,120
48,66,207600,120
51,68,207720,120
48,66,207840,120
43,63,207960,120
41,70,208080,120
48,65,208200,120
51,69,208320,120
53,71,208440,120
51,67,208560,120
48,64,208680,120
38,70,208800,120
41,62,208920,120
46,66,209040,120
50,68,209160,120
46,67,209280,120
41,64,209400,120
31,72,209520,120
34,67,209640,120
38,72,209760,120
43,74,209880,120
38,71,210000,120
34,67,210120,120
39,74,210240,120
43,66,210360,120
48,71,210480,120
43,74,210600,120
39,72,210720,240
29,77,210960,120
36,72,211080,120
39,77,211200,120
41,80,211320,120
29,75,211440,120
41,72,211560,120
34,75,211680,120
46,75,211920,120
46,64,212160,120
50,77,212160,120
46,70,212400,480
50,70,212400,480
53,83,212400,480
48,60,212880,120
41,60,212880,120
53,71,212880,120
46,67,213120,120
53,79,213120,120
50,67,213120,120
46,63,213360,120
50,63,213360,120
53,75,213360,120
53,74,213600,120
46,62,213600,120
50,62,213600,120
46,69,213840,480
50,69,213840,480
53,82,213840,480
48,63,214320,120
41,63,214320,120
53,75,214320,120
46,64,214560,120
53,76,214560,120
50,64,214560,120
46,63,214800,120
50,63,214800,120
53,75,214800,120
53,73,215040,120
46,61,215040,120
50,61,215040,120
46,70,215280,480
50,70,215280,480
53,83,215280,480
48,63,215760,120
41,63,215760,120
53,75,215760,120
46,69,216000,480
58,82,216000,480
50,69,216000,480
53,69,216000,480
46,69,216720,480
50,69,216720,480
58,82,216720,480
53,69,216720,480
46,69,217440,480
50,69,217440,480
53,69,217440,480
58,82,217440,480
58,56,219600,180
54,45,219840,120
51,45,220080,120
46,51,220320,180
42,45,220560,120
39,45,220800,120
66,51,222000,120
63,43,222000,120
66,51,222240,120
63,43,222240,120
63,46,222480,120
66,55,222480,120
63,43,222720,120
66,51,222720,120
66,51,222960,120
63,43,222960,120
66,50,223200,120
63,50,223200,120
68,59,223200,120
66,43,223440,120
63,43,223440,120
68,51,223440,120
63,43,223680,120
68,51,223680,120
66,43,223680,120
61,47,223920,120
68,56,223920,120
65,47,223920,120
65,44,224160,120
68,52,224160,120
61,44,224160,120
65,28,224400,120
61,28,224400,120
68,32,224400,120
61,56,225360,180
58,45,225600,120
54,45,225840,120
49,51,226080,180
46,45,226320,120
42,45,226560,120
66,43,227760,120
70,51,227760,120
66,43,228000,120
70,51,228000,120
71,55,228240,120
66,46,228240,120
71,51,228480,120
66,43,228480,120
71,51,228720,120
66,43,228720,120
66,43,228960,120
72,59,228960,120
66,43,229200,120
72,51,229200,120
72,51,229440,120
66,46,229440,120
73,56,229680,120
66,47,229680,120
73,52,229920,120
66,44,229920,120
66,44,230160,120
73,53,230160,120
66,48,230400,120
73,58,230400,120
73,52,230640,120
66,44,230640,120
73,54,230880,120
66,45,230880,120
75,60,231120,120
66,50,231120,120
66,44,231360,120
75,53,231360,120
66,45,231600,120
75,53,231600,120
76,62,231840,120
66,52,231840,120
76,56,232080,120
66,47,232080,120
76,57,232320,120
66,47,232320,120
66,54,232560,120
76,64,232560,120
66,49,232800,120
76,58,232800,120
76,59,233040,120
66,49,233040,120
76,67,233280,120
66,56,233280,120
76,56,233520,120
66,47,233520,120
66,46,233760,120
76,55,233760,120
66,53,234000,120
75,63,234000,120
75,57,234240,120
66,48,234240,120
75,56,234480,120
66,47,234480,120
73,58,234720,120
66,49,234720,120
66,43,234960,120
73,51,234960,120
66,42,235200,120
73,50,235200,120
66,41,235440,120
64,41,235440,120
70,48,235440,120
64,36,235680,120
70,43,235680,120
66,36,235680,120
64,35,235920,120
70,42,235920,120
66,35,235920,120
66,46,236160,120
63,38,236160,720
68,31,236280,120
66,36,236400,120
68,32,236520,120
66,36,236640,120
68,33,236760,120
66,48,236880,120
59,41,236880,720
68,35,237000,120
66,40,237120,120
68,35,237240,120
66,42,237360,120
68,36,237480,120
66,52,237600,120
58,43,237600,720
68,35,237720,120
66,39,237840,120
68,34,237960,120
66,37,238080,120
68,33,238200,120
66,47,238320,120
64,41,238320,720
68,34,238440,120
66,37,238560,120
68,32,238680,120
66,38,238800,120
68,31,238920,120
59,48,239040,1440
63,48,239040,480
68,45,239520,240
66,54,239760,480
63,49,240240,240
54,46,240480,720
61,55,240480,480
68,46,240960,240
52,45,241200,720
66,53,241200,480
61,44,241680,240
51,35,241920,120
59,27,242040,120
51,31,242160,120
59,26,242280,120
51,31,242400,120
59,27,242520,120
50,37,242640,120
60,27,242760,120
50,31,242880,120
60,27,243000,120
50,31,243120,120
60,27,243240,120
48,35,243360,120
57,27,243480,120
48,31,243600,120
57,26,243720,120
48,31,243840,120
57,27,243960,120
47,37,244080,120
55,27,244200,120
47,31,244320,120
55,27,244440,120
45,31,244560,120
54,27,244680,120
43,36,244800,240
55,36,244800,240
59,38,245040,120
55,32,245040,120
62,39,245160,120
59,40,245280,120
55,34,245280,120
62,36,245400,120
59,42,245520,120
55,35,245520,120
62,40,245640,120
59,44,245760,120
55,37,245760,120
62,42,245880,120
59,46,246000,120
55,39,246000,120
62,44,246120,120
54,40,246240,120
60,48,246240,120
62,42,246360,120
54,35,246480,120
60,42,246480,120
62,42,246600,120
54,40,246720,120
60,48,246720,120
62,44,246840,120
54,39,246960,120
60,46,246960,120
62,41,247080,120
54,37,247200,120
60,44,247200,120
62,39,247320,120
54,35,247440,120
60,42,247440,120
62,36,247560,120
55,48,247680,1440
59,48,247680,480
64,45,248160,240
62,54,248400,480
59,49,248880,240
50,46,249120,1440
57,55,249120,480
64,46,249600,240
62,53,249840,480
57,44,250320,240
62,44,250560,480
59,37,250560,480
55,37,250560,480
62,44,251760,120
62,44,252000,240
59,38,252240,240
55,38,252480,240
53,44,252720,240
50,44,252960,240
47,44,253200,120
48,44,253440,480
67,40,253920,237
67,44,254160,240
64,40,254400,240
55,34,254640,238
60,40,254640,238
55,44,254880,240
52,40,255120,240
48,40,255360,240
43,44,255600,240
36,39,255840,240
48,39,256080,238
48,39,256320,120
51,31,256440,120
56,31,256560,120
51,31,256680,120
56,30,256800,120
51,32,256920,120
49,41,257040,120
51,32,257160,120
55,33,257280,120
58,33,257400,120
61,33,257520,120
55,33,257640,120
56,40,257760,120
60,32,257880,120
63,33,258000,120
60,33,258120,120
63,34,258240,120
60,34,258360,120
55,42,258480,120
58,33,258600,120
63,33,258720,120
58,33,258840,120
55,33,258960,120
58,33,259080,120
51,41,259200,120
55,33,259320,120
58,34,259440,120
55,35,259560,120
58,35,259680,120
55,35,259800,120
46,43,259920,120
56,34,260040,120
58,34,260160,120
56,34,260280,120
58,34,260400,120
56,34,260520,120
51,42,260640,120
55,34,260760,120
58,36,260880,120
55,36,261000,120
58,36,261120,120
55,36,261240,120
58,45,261360,120
55,35,261480,120
58,35,261600,120
55,35,261720,120
52,35,261840,120
55,35,261960,120
53,43,262080,120
56,36,262200,120
60,37,262320,120
56,37,262440,120
60,37,262560,120
56,37,262680,120
48,46,262800,120
58,36,262920,120
60,36,263040,120
58,36,263160,120
60,36,263280,120
58,36,263400,120
53,44,263520,120
56,37,263640,120
60,38,263760,120
56,38,263880,120
60,38,264000,120
56,38,264120,120
58,47,264240,120
56,37,264360,120
58,37,264480,120
56,37,264600,120
50,37,264720,120
56,37,264840,120
51,46,264960,120
55,38,265080,120
58,39,265200,120
55,39,265320,120
58,39,265440,120
55,39,265560,120
44,49,265680,120
53,38,265800,120
56,38,265920,120
53,38,266040,120
56,38,266160,120
53,39,266280,120
46,47,266400,120
51,39,266520,120
55,40,266640,120
51,40,266760,120
55,40,266880,120
51,40,267000,120
46,50,267120,120
50,39,267240,120
53,39,267360,120
50,39,267480,120
46,39,267600,240
58,39,267600,240
46,57,267840,120
58,67,267840,120
43,49,268080,120
55,58,268080,120
39,44,268320,120
51,54,268320,120
38,51,268560,120
50,62,268560,120
41,47,268800,120
53,56,268800,120
46,48,269040,121
58,57,269040,121
46,52,269280,120
58,63,269280,120
43,49,269520,120
55,58,269520,120
39,49,269760,121
51,58,269760,121
39,54,270000,120
51,64,270000,120
43,46,270240,120
55,55,270240,120
48,56,270480,121
60,66,270480,121
48,60,270720,120
60,72,270720,120
44,55,270960,120
56,65,270960,120
41,55,271200,120
53,65,271200,120
40,60,271440,120
52,72,271440,120
43,55,271680,120
55,65,271680,120
48,59,271920,121
60,71,271920,121
48,71,272160,120
60,83,272160,120
44,57,272400,120
56,67,272400,120
41,57,272640,120
53,67,272640,120
38,64,272880,120
50,77,272880,120
41,58,273120,120
53,69,273120,120
46,58,273360,121
58,69,273360,121
46,64,273600,120
58,77,273600,120
43,56,273840,120
55,66,273840,120
39,56,274080,120
51,66,274080,120
36,58,274320,120
48,70,274320,120
41,54,274560,120
53,64,274560,120
44,54,274800,121
56,64,274800,121
34,63,275040,120
46,74,275040,120
39,57,275280,120
51,67,275280,120
43,58,275520,121
55,69,275520,121
34,64,275760,120
46,77,275760,120
38,58,276000,120
50,69,276000,120
46,58,276240,120
58,69,276240,120
39,73,276480,120
55,62,276720,120
51,49,276720,120
58,62,276960,120
55,49,276960,120
51,49,276960,120
63,62,277200,120
58,49,277200,120
55,49,277200,120
51,49,277200,120
63,62,277440,120
58,49,277440,120
55,49,277440,120
51,49,277440,120
63,62,277680,120
58,49,277680,120
55,49,277680,120
51,49,277680,120
63,70,277920,120
58,56,277920,120
55,56,277920,120
51,56,277920,120
63,62,278160,120
58,49,278160,120
55,49,278160,120
51,49,278160,120
63,62,278400,120
58,49,278400,120
55,49,278400,120
51,49,278400,120
62,62,278640,120
56,49,278640,120
58,49,278640,120
53,49,278640,120
51,49,278640,120
62,62,278880,120
58,49,278880,120
56,49,278880,120
53,49,278880,120
51,49,278880,120
62,62,279120,120
58,49,279120,120
56,49,279120,120
53,49,279120,120
51,49,279120,120
63,72,279360,120
58,57,279360,120
55,57,279360,120
51,57,279360,120
63,62,279600,120
58,49,279600,120
55,49,279600,120
51,49,279600,120
63,62,279840,120
58,49,279840,120
55,49,279840,120
51,49,279840,120
63,62,280080,120
58,49,280080,120
55,49,280080,120
51,49,280080,120
63,62,280320,120
58,49,280320,120
55,49,280320,120
51,49,280320,120
63,62,280560,120
58,49,280560,120
55,49,280560,120
51,49,280560,120
63,69,280800,120
58,55,280800,120
55,55,280800,120
51,55,280800,120
63,61,281040,120
58,48,281040,120
55,48,281040,120
51,48,281040,120
63,61,281280,120
58,48,281280,120
55,48,281280,120
51,48,281280,120
58,61,281520,120
56,48,281520,120
53,48,281520,120
51,48,281520,120
58,61,281760,120
56,48,281760,120
53,48,281760,120
51,48,281760,120
58,61,282000,120
56,48,282000,120
53,48,282000,120
51,48,282000,120
39,73,282240,120
55,62,282480,120
51,49,282480,120
58,62,282720,120
55,49,282720,120
51,49,282720,120
63,62,282960,120
58,49,282960,120
55,49,282960,120
51,49,282960,120
63,62,283200,120
58,49,283200,120
55,49,283200,120
51,49,283200,120
63,62,283440,120
58,49,283440,120
55,49,283440,120
51,49,283440,120
63,70,283680,120
58,56,283680,120
55,56,283680,120
51,56,283680,120
63,62,283920,120
58,49,283920,120
55,49,283920,120
51,49,283920,120
63,62,284160,120
58,49,284160,120
55,49,284160,120
51,49,284160,120
61,62,284400,120
58,49,284400,120
55,49,284400,120
51,49,284400,120
61,62,284640,120
58,49,284640,120
55,49,284640,120
51,49,284640,120
61,62,284880,120
58,49,284880,120
55,49,284880,120
51,49,284880,120
61,72,285120,120
58,57,285120,120
55,57,285120,120
51,57,285120,120
61,62,285360,120
58,49,285360,120
55,49,285360,120
51,49,285360,120
61,62,285600,120
58,49,285600,120
55,49,285600,120
51,49,285600,120
61,62,285840,120
58,49,285840,120
55,49,285840,120
51,49,285840,120
61,62,286080,120
58,49,286080,120
55,49,286080,120
51,49,286080,120
61,62,286320,120
58,49,286320,120
55,49,286320,120
51,49,286320,120
58,55,286560,120
61,69,286560,120
55,55,286560,120
51,55,286560,120
58,48,286800,120
61,61,286800,120
55,48,286800,120
51,48,286800,120
56,48,287040,120
60,61,287040,120
51,48,287040,120
51,48,287280,120
53,48,287280,120
59,61,287280,120
56,48,287280,120
51,48,287520,120
59,61,287520,120
56,48,287520,120
53,48,287520,120
51,48,287760,120
58,61,287760,120
56,48,287760,120
53,48,287760,120
39,80,288000,240
51,80,288000,240
63,75,288720,240
66,81,289440,240
71,74,290160,240
66,79,290880,240
63,74,291600,240
59,78,292320,240
54,70,293040,240
38,80,293760,240
50,80,293760,240
62,75,294480,240
65,81,295200,240
70,74,295920,240
65,79,296640,240
62,74,297360,240
58,78,298080,240
53,70,298800,240
63,34,299520,120
66,34,299520,120
71,40,299520,120
63,29,299760,120
66,29,299760,120
71,35,299760,120
63,29,300000,120
66,29,300000,120
71,35,300000,120
63,29,300240,120
66,29,300240,120
71,35,300240,120
63,29,300480,120
66,29,300480,120
71,35,300480,120
63,29,300720,120
66,29,300720,120
71,35,300720,120
63,34,300960,120
66,34,300960,120
71,40,300960,120
63,29,301200,120
66,29,301200,120
71,35,301200,120
63,29,301440,120
66,29,301440,120
71,35,301440,120
63,29,301680,120
66,29,301680,120
71,35,301680,120
63,29,301920,120
66,29,301920,120
71,35,301920,120
63,29,302160,120
66,29,302160,120
71,35,302160,120
63,34,302400,120
66,34,302400,120
71,40,302400,120
63,29,302640,120
66,29,302640,120
71,35,302640,120
63,29,302880,120
66,29,302880,120
71,35,302880,120
63,29,303120,120
66,29,303120,120
71,35,303120,120
63,29,303360,120
66,29,303360,120
71,35,303360,120
63,29,303600,120
66,29,303600,120
71,35,303600,120
63,34,303840,120
66,34,303840,120
71,40,303840,120
63,29,304080,120
66,29,304080,120
71,35,304080,120
63,29,304320,120
66,29,304320,120
71,35,304320,120
63,29,304560,120
66,29,304560,120
71,35,304560,120
63,29,304800,120
66,29,304800,120
71,35,304800,120
63,29,305040,120
66,29,305040,120
69,35,305040,120
62,34,305280,120
65,34,305280,120
70,40,305280,120
62,29,305520,120
65,29,305520,120
70,35,305520,120
62,29,305760,120
65,29,305760,120
70,35,305760,120
62,29,306000,120
65,29,306000,120
70,35,306000,120
62,29,306240,120
65,29,306240,120
70,35,306240,120
62,29,306480,120
65,29,306480,120
70,35,306480,120
62,34,306720,120
65,34,306720,120
70,40,306720,120
62,29,306960,120
65,29,306960,120
70,35,306960,120
62,29,307200,120
65,29,307200,120
70,35,307200,120
62,29,307440,120
65,29,307440,120
70,35,307440,120
62,29,307680,120
65,29,307680,120
70,35,307680,120
62,29,307920,120
65,29,307920,120
70,35,307920,120
62,34,308160,120
65,34,308160,120
70,40,308160,120
62,29,308400,120
65,29,308400,120
70,35,308400,120
62,29,308640,120
65,29,308640,120
70,35,308640,120
62,29,308880,120
65,29,308880,120
70,35,308880,120
62,29,309120,120
65,29,309120,120
70,35,309120,120
62,29,309360,120
65,29,309360,120
70,35,309360,120
62,34,309600,120
65,34,309600,120
70,40,309600,120
62,29,309840,120
65,29,309840,120
70,35,309840,120
62,29,310080,120
65,29,310080,120
70,35,310080,120
62,29,310320,240
65,29,310320,240
70,35,310320,240
58,35,310560,240
56,35,310800,240
51,40,311040,1440
55,40,311040,480
60,33,311520,240
58,42,311760,480
55,39,312240,240
46,42,312480,1440
53,42,312480,480
60,36,312960,240
58,45,313200,480
53,41,313680,240
51,46,313920,1440
55,46,313920,480
60,37,314400,240
58,45,314640,480
55,40,315120,240
46,43,315360,1440
53,43,315360,480
60,34,315840,240
58,42,316080,480
53,37,316560,240
58,40,316800,120
51,34,316800,120
55,29,317040,120
58,29,317040,120
63,35,317040,120
55,29,317280,120
58,29,317280,120
63,35,317280,120
55,29,317520,120
58,29,317520,120
63,35,317520,120
55,29,317760,120
58,29,317760,120
63,35,317760,120
55,29,318000,120
59,29,318000,120
63,35,318000,120
56,29,318480,120
60,29,318480,120
63,35,318480,120
56,29,318720,120
60,29,318720,120
63,35,318720,120
56,29,318960,120
60,29,318960,120
63,35,318960,120
56,29,319200,120
60,29,319200,120
63,35,319200,120
57,29,319440,120
63,29,319440,120
65,35,319440,120
58,29,319920,120
63,29,319920,120
67,35,319920,120
58,29,320160,120
63,29,320160,120
67,35,320160,120
58,29,320400,120
63,29,320400,120
67,35,320400,120
58,29,320640,120
63,29,320640,120
67,35,320640,120
58,29,320880,120
63,29,320880,120
67,35,320880,120
67,35,321120,120
58,29,321120,120
63,29,321120,120
58,29,321360,120
63,29,321360,120
67,35,321360,120
58,29,321600,120
63,29,321600,120
67,35,321600,120
58,29,321840,120
62,29,321840,120
68,35,321840,120
58,29,322080,120
62,29,322080,120
68,35,322080,120
58,29,322320,120
62,29,322320,120
68,35,322320,120
63,40,322560,1440
67,40,322560,480
72,33,323040,240
70,42,323280,480
67,39,323760,240
58,42,324000,1440
65,42,324000,480
72,36,324480,240
70,45,324720,480
65,41,325200,240
63,46,325440,1440
67,46,325440,480
72,37,325920,240
70,45,326160,480
67,40,326640,240
58,43,326880,1440
65,43,326880,480
72,34,327360,240
70,42,327600,480
65,37,328080,240
63,51,328320,120
67,45,328440,120
68,50,328560,120
70,52,328680,120
72,54,328800,120
74,56,328920,120
75,61,329040,120
74,60,329160,120
72,58,329280,120
70,57,329400,120
68,55,329520,120
67,54,329640,120
68,51,329760,120
72,45,329880,120
74,48,330000,120
75,50,330120,120
77,55,330240,120
79,57,330360,120
80,62,330480,120
79,60,330600,120
77,59,330720,120
75,58,330840,120
74,57,330960,120
72,55,331080,120
70,60,331200,120
58,52,331320,120
63,63,331440,120
67,59,331560,120
70,68,331680,120
75,62,331800,120
79,63,331920,120
75,54,332040,120
82,66,332160,120
79,62,332280,120
75,70,332400,120
70,64,332520,120
70,60,332640,240
77,67,332640,80
79,59,332720,80
77,67,332800,80
79,61,332880,80
77,66,332960,80
79,59,333040,80
77,66,333120,80
79,59,333200,80
77,62,333280,80
79,56,333360,80
77,63,333440,80
79,55,333520,80
77,63,333600,80
79,55,333680,80
77,63,333760,80
79,55,333840,80
77,63,333920,80
79,59,334000,80
70,62,334080,120
76,55,334200,120
77,58,334320,120
79,60,334440,120
77,58,334560,120
76,58,334680,120
68,61,334800,120
77,56,334920,120
79,59,335040,120
80,61,335160,120
79,57,335280,120
77,57,335400,120
56,62,335526,120
62,55,335640,120
63,58,335760,120
65,60,335875,120
63,59,336000,120
62,59,336120,120
55,62,336240,120
63,57,336360,120
65,61,336480,120
67,64,336600,120
65,59,336720,120
63,60,336840,120
46,65,336966,120
52,58,337080,120
53,62,337200,120
55,64,337315,120
53,62,337440,120
52,63,337560,120
44,67,337680,120
53,61,337800,120
55,65,337920,120
56,67,338040,120
55,63,338160,120
53,63,338280,120
32,70,338406,120
38,62,338520,120
39,66,338640,120
41,68,338755,120
39,66,338880,120
38,67,339000,120
31,70,339120,120
39,65,339240,120
41,69,339360,120
43,71,339480,120
41,67,339600,120
39,67,339720,120
31,70,339840,120
34,62,339960,120
39,66,340080,120
43,68,340200,120
39,66,340320,120
34,63,340440,120
36,70,340560,120
39,65,340680,120
43,69,340800,120
48,71,340920,120
43,67,341040,120
39,64,341160,120
32,70,341280,120
36,62,341400,120
41,66,341520,120
44,68,341640,120
41,66,341760,120
36,63,341880,120
34,70,342000,120
41,65,342120,120
44,69,342240,120
46,71,342360,120
44,67,342480,120
41,64,342600,120
43,70,342720,120
46,62,342840,120
51,66,342960,120
55,68,343080,120
51,66,343200,120
46,63,343320,120
48,70,343440,120
51,65,343560,120
55,69,343680,120
60,71,343800,120
55,67,343920,120
51,64,344040,120
44,70,344160,120
48,62,344280,120
53,66,344400,120
56,68,344520,120
53,66,344640,120
48,63,344760,120
34,70,344880,120
41,65,345000,120
44,69,345120,120
46,71,345240,120
44,67,345360,120
41,64,345480,120
31,70,345600,120
34,62,345720,120
39,66,345840,120
43,68,345960,120
39,67,346080,120
34,64,346200,120
36,72,346320,120
39,67,346440,120
43,72,346560,120
48,74,346680,120
43,71,346800,120
39,67,346920,120
32,74,347040,120
36,66,347160,120
41,71,347280,120
44,74,347400,120
41,72,347520,120
36,67,347640,120
34,77,347760,120
41,72,347880,120
44,77,348000,120
46,80,348120,120
34,75,348240,120
46,72,348360,120
39,75,348480,120
51,75,348720,120
55,77,348960,120
51,64,348960,120
51,70,349200,480
55,70,349200,480
58,83,349200,480
46,60,349680,120
53,60,349680,120
58,71,349680,120
51,67,349920,120
55,67,349920,120
58,79,349920,120
51,63,350160,120
55,63,350160,120
58,75,350160,120
51,62,350400,120
55,62,350400,120
58,74,350400,120
51,69,350640,480
55,69,350640,480
58,82,350640,480
46,63,351120,120
53,63,351120,120
58,75,351120,120
51,64,351360,120
55,64,351360,120
58,76,351360,120
51,63,351600,120
55,63,351600,120
58,75,351600,120
51,61,351840,120
55,61,351840,120
58,73,351840,120
51,70,352080,480
55,70,352080,480
58,83,352080,480
46,63,352560,120
53,63,352560,120
58,75,352560,120
51,69,352800,480
55,69,352800,480
58,82,352800,480
39,69,353520,480
51,82,353520,480
39,69,354240,480
51,82,354240,480
51,34,355680,480
55,34,355680,480
58,40,355680,480
53,28,356400,480
56,28,356400,480
46,28,356400,480
58,34,356400,480
51,34,357120,480
58,40,357120,480
55,34,357120,480
48,28,357840,240
55,28,357840,240
60,34,357840,240
52,28,358320,180
55,28,358320,180
58,28,358320,180
60,34,358320,180
56,34,358560,480
53,34,358560,480
60,40,358560,480
62,34,359280,240
50,28,359280,240
57,28,359280,240
54,28,359760,180
57,28,359760,180
62,34,359760,180
55,34,360000,480
58,34,360000,480
62,40,360000,480
53,34,360720,480
56,34,360720,480
58,34,360720,480
62,40,360720,480
58,33,361440,480
55,33,361440,480
63,39,361440,480
51,33,361440,480
63,42,362880,240
58,36,363120,240
55,37,363360,180
55,39,363600,240
58,36,363840,240
63,36,364080,180
39,38,364320,240
43,46,364320,240
46,39,364560,240
43,33,364560,240
46,33,364800,240
51,40,364800,240
46,43,365040,240
43,36,365040,240
46,32,365280,240
51,39,365280,240
51,33,365520,180
55,40,365520,180
46,42,365760,240
51,50,365760,240
55,43,366000,240
51,36,366000,240
55,36,366240,240
58,44,366240,240
46,31,366720,240
53,38,366720,240
46,29,366960,180
58,36,366960,180
51,30,367200,480
55,30,367200,480
58,36,367200,480
51,40,368640,720
63,45,368640,120
62,39,368760,120
63,39,368880,120
58,35,369000,120
55,45,369120,120
56,39,369300,60
55,45,369360,120
54,36,369480,120
55,40,369600,120
58,36,369720,120
63,47,369840,120
39,45,370080,120
38,36,370200,120
39,41,370320,120
43,37,370440,120
46,47,370560,240
43,48,370800,120
41,38,370920,120
43,45,371040,120
46,39,371160,120
51,50,371280,240
46,51,371520,120
45,40,371640,120
46,45,371760,120
51,38,371880,120
55,47,372000,240
46,31,372480,240
53,38,372480,240
46,29,372720,180
58,36,372720,180
39,38,372960,240
43,46,372960,240
46,39,373200,240
43,33,373200,240
46,33,373440,240
51,40,373440,240
46,43,373680,240
43,36,373680,240
46,32,373920,240
51,39,373920,240
51,33,374160,230
55,40,374160,230
46,42,374400,240
51,50,374400,240
55,43,374640,240
51,36,374640,240
46,36,374880,238
51,36,374880,238
58,44,374880,238
46,42,375120,238
53,42,375120,238
58,50,375120,238
53,31,375360,238
46,31,375360,238
58,38,375360,238
56,36,375600,240
46,29,375600,240
58,36,375600,240
70,80,375840,120
67,67,376080,120
63,67,376320,120
67,80,376560,120
63,70,376800,120
58,70,377040,120
63,80,377280,120
58,71,377520,120
55,71,377760,120
58,80,378000,120
56,69,378240,120
46,55,378480,120
53,69,378480,120
39,65,378720,120
51,82,378720,120
51,51,378960,120
55,51,378960,120
58,51,378960,120
63,64,378960,120
51,51,379200,120
55,51,379200,120
58,51,379200,120
63,64,379200,120
51,51,379440,120
55,51,379440,120
58,51,379440,120
63,64,379440,120
51,51,379680,120
55,51,379680,120
58,51,379680,120
63,64,379680,120
51,51,379920,120
55,51,379920,120
58,51,379920,120
63,64,379920,120
51,59,380160,120
55,59,380160,120
58,59,380160,120
63,74,380160,120
51,48,380400,120
55,48,380400,120
58,48,380400,120
63,61,380400,120
51,49,380640,120
55,49,380640,120
58,49,380640,120
63,62,380640,120
51,50,380880,120
55,50,380880,120
58,50,380880,120
63,63,380880,120
51,51,381120,120
55,51,381120,120
58,51,381120,120
63,64,381120,120
51,51,381360,120
55,51,381360,120
58,51,381360,120
63,64,381360,120
51,59,381600,480
55,59,381600,480
58,59,381600,480
63,74,381600,480
46,57,382320,480
58,68,382320,480
39,61,383040,480
51,74,383040,480
