note,velocity,position,duration
57,42,0,720
61,40,720,720
66,40,1440,720
61,40,1440,720
73,48,1440,480
69,40,1440,480
69,42,1920,240
61,39,2160,240
69,47,2160,240
61,34,2400,240
66,41,2400,240
59,34,2640,240
65,34,2640,240
68,41,2640,240
61,34,2640,240
57,42,2880,720
66,42,2880,720
69,50,2880,720
61,42,2880,720
59,47,3600,480
71,56,3600,480
66,47,3600,480
66,46,4080,238
62,46,4080,238
74,55,4080,238
62,52,4320,480
74,62,4320,480
66,52,4320,480
66,48,4800,238
73,57,4800,238
61,48,4800,238
66,53,5040,240
73,64,5040,240
61,53,5040,240
65,49,5280,240
71,49,5280,240
73,49,5280,240
77,60,5280,240
73,57,5520,240
69,52,5520,240
66,52,5520,240
78,68,5520,240
80,72,5760,720
73,61,5760,720
68,61,5760,720
74,51,6480,720
71,43,6480,720
68,43,6480,720
68,42,7200,720
71,42,7200,720
74,50,7200,720
62,42,7680,240
61,36,7920,480
69,36,7920,480
73,43,7920,480
59,35,8400,238
62,35,8400,238
65,35,8400,238
71,42,8400,238
59,40,8640,713
62,40,8640,713
65,40,8640,713
71,48,8640,713
59,39,9360,240
65,39,9360,240
62,39,9360,240
71,47,9360,240
66,34,9600,240
57,34,9600,240
61,34,9600,240
69,41,9600,240
56,34,9840,240
62,34,9840,240
66,34,9840,240
68,41,9840,240
66,40,10080,475
56,40,10080,475
63,40,10080,475
68,48,10080,475
63,36,10560,238
56,36,10560,238
66,36,10560,238
68,43,10560,238
63,45,10800,240
66,45,10800,240
56,45,10800,240
68,53,10800,240
66,40,11040,240
63,40,11040,240
57,40,11040,240
69,49,11040,240
54,42,11280,240
57,42,11280,240
63,42,11280,240
66,52,11280,240
54,44,11520,720
57,44,11520,720
63,44,11520,240
66,53,11520,720
60,45,11760,240
61,46,12000,240
56,36,12240,240
65,55,12240,240
53,36,12240,240
61,46,12240,240
68,57,12480,240
71,59,12720,240
62,50,12960,480
65,50,12960,240
71,60,12960,480
68,50,13200,240
61,45,13440,238
69,50,13440,238
66,45,13440,238
69,58,13680,240
61,48,13680,240
66,48,13680,240
65,42,13920,240
68,51,13920,240
59,42,13920,240
62,42,13920,240
66,51,14160,240
63,42,14160,240
57,42,14160,120
60,42,14280,120
63,50,14400,480
66,60,14400,480
57,50,14400,480
60,50,14400,480
65,50,14880,240
61,45,14880,240
56,45,14880,240
65,66,15120,240
68,60,15360,240
65,42,15600,480
71,63,15600,120
68,42,15600,480
74,63,15720,119
71,50,15840,480
74,72,15840,480
65,36,16080,240
68,36,16080,240
66,48,16320,238
73,54,16320,238
69,48,16320,238
73,55,16560,240
69,46,16560,240
66,46,16680,120
62,39,16800,240
68,39,16800,240
71,47,16800,240
65,39,16800,240
60,39,17040,238
66,39,17040,238
69,47,17040,238
63,39,17040,238
66,45,17280,480
69,54,17280,480
60,44,17520,240
63,44,17520,240
61,38,17760,238
65,38,17760,238
68,44,17760,238
68,43,18000,480
65,35,18000,480
61,35,18000,480
64,34,18480,180
67,39,18480,180
61,34,18480,180
67,53,18660,60
83,65,18720,480
81,62,19200,240
67,55,19440,720
79,65,19440,480
78,64,19920,240
67,55,20160,720
76,65,20160,480
78,63,20640,240
67,55,20880,480
79,65,20880,480
66,64,21360,238
66,60,21600,240
66,45,21840,240
69,53,21840,240
66,43,22080,240
69,43,22080,240
73,51,22080,240
73,54,22320,475
65,45,22320,475
68,45,22320,475
73,43,22800,238
68,36,22800,238
65,36,22800,238
68,40,23040,480
65,40,23040,480
73,48,23040,480
66,36,23520,238
69,43,23520,238
66,37,23760,238
69,47,23760,238
61,37,24000,240
66,45,24000,240
68,44,24240,120
65,44,24240,120
61,44,24240,240
66,47,24360,120
69,47,24360,120
68,51,24480,480
71,51,24480,480
62,50,24720,240
61,47,24960,240
66,47,24960,240
69,58,24960,240
59,51,25200,480
69,60,25200,240
65,51,25200,480
62,51,25200,480
68,57,25440,240
66,54,25680,240
63,45,25680,240
57,45,25680,240
57,50,25920,240
61,50,25920,720
66,60,25920,240
55,50,26160,240
64,56,26160,240
56,50,26400,238
65,56,26400,238
56,50,26640,360
61,50,26640,360
65,59,26640,360
68,60,27000,120
71,63,27120,120
74,66,27240,119
68,36,27360,240
71,50,27360,240
74,71,27360,480
65,36,27360,240
62,36,27360,240
65,36,27600,240
68,36,27600,240
69,48,27840,240
73,54,27840,240
65,39,28080,480
62,39,28080,480
73,55,28080,240
68,39,28080,480
71,47,28320,240
63,39,28560,240
66,39,28560,240
69,47,28560,240
66,45,28800,480
63,44,28800,240
60,44,28800,240
69,54,28800,480
60,39,29040,240
63,39,29040,240
61,38,29280,240
65,38,29280,240
68,44,29280,240
65,35,29520,240
61,35,29520,240
68,43,29520,240
64,34,29760,240
67,39,29760,240
62,34,30000,180
67,53,30180,60
83,65,30240,480
81,60,30713,238
81,65,30960,240
91,65,31200,240
79,46,31200,240
78,54,31440,238
90,64,31440,238
90,69,31680,240
78,58,31680,240
76,56,31920,240
88,67,31920,240
78,60,32160,238
90,71,32160,238
90,75,32400,240
78,63,32400,240
91,72,32640,360
79,61,32640,360
78,64,33000,119
66,57,33000,119
66,54,33120,240
78,54,33120,240
81,52,33360,240
69,52,33360,240
85,59,33600,238
73,59,33600,238
73,62,33840,480
85,62,33840,480
85,57,34320,238
73,57,34320,238
85,63,34560,240
73,53,34560,240
74,52,34800,240
86,62,34800,240
67,47,35040,240
79,56,35040,240
83,63,35280,240
71,53,35280,240
61,48,35520,240
73,57,35520,240
65,47,35760,240
77,56,35760,240
78,63,36000,240
66,53,36000,240
73,57,36240,360
85,68,36240,360
68,41,36600,120
80,49,36600,120
81,53,36720,240
69,45,36720,240
69,45,36960,360
81,54,36960,360
65,37,37320,120
77,44,37320,120
73,44,38760,238
73,44,39000,238
73,44,39240,238
78,55,39360,238
73,44,39480,238
78,63,39600,240
73,44,39720,238
81,63,39840,240
73,48,39960,238
85,68,40080,238
73,50,40200,120
85,71,40320,480
77,52,40440,238
83,52,40440,238
77,37,40680,240
83,44,40680,240
88,75,40800,120
86,67,40920,120
86,73,41040,240
71,44,41160,238
77,64,41280,240
71,44,41400,238
83,64,41520,240
71,44,41640,240
83,74,41760,240
65,44,41880,238
71,55,42000,240
65,39,42120,238
73,63,42240,120
65,37,42360,238
74,65,42360,119
71,40,42480,240
74,66,42480,240
65,37,42600,238
71,44,42600,120
73,63,42720,360
71,44,42840,238
65,37,42840,238
65,37,43080,120
71,66,43080,120
71,63,43200,120
69,54,43320,240
73,63,43560,240
78,67,43800,200
81,66,44000,80
85,67,44080,160
90,70,44240,80
92,71,44320,80
93,75,44400,80
90,73,44480,80
85,63,44560,80
85,68,44640,60
86,63,44700,60
85,59,44760,30
86,60,44790,30
85,62,44820,30
86,63,44850,30
85,64,44880,30
86,65,44910,30
85,66,44940,60
84,69,45000,60
85,71,45060,60
88,74,45120,80
85,69,45200,80
86,70,45280,79
86,76,45360,80
76,62,45440,80
77,62,45520,80
77,70,45600,80
86,59,45680,80
85,60,45760,79
85,67,45840,80
82,58,45920,80
83,53,46000,79
83,59,46080,60
65,46,46140,60
66,47,46200,60
68,48,46260,60
69,49,46320,60
70,50,46380,60
71,51,46440,60
72,52,46500,60
73,54,46560,80
74,55,46640,80
75,57,46720,80
76,58,46800,80
73,60,46880,80
74,61,46960,79
74,64,47040,60
83,62,47100,60
80,56,47160,60
77,56,47220,60
74,62,47280,60
72,57,47340,60
74,55,47400,60
73,55,47460,60
73,57,47520,240
66,48,47640,238
78,62,47760,360
66,48,47880,240
73,56,48120,120
74,62,48240,480
71,43,48360,238
65,36,48360,238
65,36,48600,238
71,43,48600,238
73,56,48720,240
65,36,48840,120
71,43,48840,120
73,62,48960,80
85,57,49040,80
80,57,49120,80
83,63,49200,60
81,65,49260,60
77,68,49320,60
78,70,49380,60
80,71,49440,60
78,70,49500,60
81,68,49560,40
78,67,49600,40
73,65,49641,40
76,66,49680,120
75,62,49800,120
71,52,49800,238
65,43,49800,238
74,62,49920,120
74,58,50040,238
71,48,50040,238
65,41,50040,238
65,41,50280,120
71,48,50280,120
73,58,50280,120
73,60,50400,360
66,40,50520,240
78,62,50760,238
78,63,51000,475
66,40,51240,240
78,65,51480,238
78,67,51720,480
71,45,51960,240
83,69,52200,238
83,71,52440,475
71,61,52680,240
71,62,52920,238
83,73,52920,238
71,63,53160,238
83,75,53160,238
71,64,53400,238
83,76,53400,238
71,65,53640,238
83,77,53640,238
71,66,53880,119
83,78,53880,238
88,80,54120,238
83,68,54120,238
76,68,54120,238
86,81,54360,238
88,81,54360,238
83,68,54360,238
76,68,54360,238
88,82,54600,119
85,69,54600,119
81,69,54600,119
76,69,54600,119
76,56,54720,240
88,73,54720,120
80,57,54840,120
76,54,54960,240
83,64,54960,120
81,60,55080,120
78,51,55200,360
80,60,55200,120
81,60,55320,120
84,69,55440,240
78,60,55560,120
81,65,55680,360
83,55,55680,720
79,57,55800,120
78,60,55920,120
79,55,56040,120
77,56,56160,240
80,57,56280,120
76,54,56400,600
82,64,56400,120
81,60,56520,120
80,60,56640,120
81,60,56760,120
83,69,56880,240
76,60,57000,120
79,65,57120,120
81,55,57120,600
78,57,57240,120
77,60,57360,120
78,55,57480,120
75,50,57600,240
78,53,57720,120
76,51,57840,240
81,61,57840,120
79,55,57960,120
73,51,58080,240
78,61,58080,120
79,55,58200,119
79,63,58320,120
73,53,58320,240
76,57,58440,120
74,56,58560,240
79,67,58560,120
78,58,58680,120
76,68,58800,120
71,57,58800,360
77,61,58920,119
77,71,59040,240
65,61,59160,120
64,57,59280,240
70,68,59280,120
76,68,59280,240
69,59,59400,120
66,58,59520,240
68,69,59520,120
74,69,59520,240
69,60,59640,120
79,74,59760,240
73,67,59760,120
76,62,59880,120
78,71,60000,240
74,60,60000,240
77,58,60240,240
83,69,60240,480
71,58,60240,240
71,61,60480,240
80,72,60480,240
74,61,60480,240
74,62,60720,240
69,62,60720,240
81,74,60720,240
74,80,60960,240
86,91,60960,480
74,82,61200,240
79,82,61200,240
76,73,61440,240
73,73,61440,240
85,87,61440,240
79,73,61440,240
85,78,61680,600
79,78,61680,600
91,95,61680,600
88,80,61680,600
67,50,62280,120
64,54,62400,120
70,45,62520,120
68,52,62640,120
69,45,62760,120
64,50,62880,120
71,45,63000,120
69,49,63120,120
67,45,63240,120
66,49,63360,240
38,58,63840,720
38,52,64560,120
33,46,64680,120
33,52,64800,718
33,52,65520,478
33,52,66000,240
30,52,66240,240
86,61,66720,720
74,53,66720,720
86,55,67440,120
74,48,67440,120
81,48,67560,119
69,42,67560,119
81,55,67680,718
69,48,67680,718
81,55,68400,478
69,48,68400,478
81,55,68880,240
69,48,68880,240
78,53,69120,240
66,45,69120,240
38,58,69600,478
38,56,70080,238
38,56,70320,80
37,50,70400,80
38,50,70480,60
33,52,70560,478
33,52,71040,478
33,52,71520,480
30,52,72000,240
86,70,72480,478
74,61,72480,478
74,61,72960,238
86,70,72960,238
86,68,73200,81
74,59,73200,81
73,53,73280,80
85,60,73280,80
74,53,73360,80
86,60,73360,60
81,67,73440,478
69,59,73440,479
69,62,73920,478
81,70,73920,478
69,61,74400,400
81,70,74400,400
67,45,74800,80
79,50,74800,80
66,50,74880,240
78,50,74880,240
66,40,75120,80
78,50,75120,480
76,40,75200,80
74,40,75280,80
73,50,75360,80
71,41,75440,80
69,43,75520,80
67,50,75600,80
79,50,75600,720
70,42,75680,80
69,42,75760,80
67,50,75840,80
69,40,75920,80
71,40,76000,80
73,50,76080,80
74,41,76160,80
76,41,76240,80
69,50,76320,240
81,50,76320,240
69,42,76560,80
81,52,76560,480
79,42,76640,80
78,43,76720,80
76,55,76800,80
74,45,76880,80
72,48,76960,80
71,57,77040,80
83,57,77040,720
74,48,77120,80
72,49,77200,80
71,60,77280,80
72,48,77360,80
74,49,77440,80
76,62,77520,80
78,51,77600,80
79,52,77680,160
85,65,77760,240
79,53,77840,80
78,54,77920,80
76,54,78000,80
74,54,78080,80
73,55,78160,80
86,70,78240,240
74,70,78240,80
76,57,78320,80
78,61,78400,80
76,72,78480,80
88,77,78480,480
82,61,78560,80
81,62,78640,80
79,75,78720,80
78,60,78800,80
76,61,78880,80
78,77,78960,80
90,83,78960,240
79,63,79040,80
81,64,79120,80
91,88,79200,240
79,72,79200,80
78,61,79280,80
76,62,79360,80
81,74,79440,240
75,63,79440,80
74,51,79520,80
75,51,79600,80
83,70,79680,240
74,65,79680,80
72,53,79760,80
71,54,79840,80
74,53,79920,80
77,70,79920,480
73,48,80000,80
71,47,80080,80
68,52,80160,80
69,46,80240,80
71,45,80320,80
73,47,80400,80
76,58,80400,240
70,44,80480,80
69,43,80560,80
75,51,80640,720
81,61,80640,720
83,52,81360,478
78,44,81360,478
71,44,81360,478
78,51,81840,240
75,43,81840,240
71,43,81840,240
81,61,82080,120
78,57,82200,120
91,66,82320,120
79,66,82320,120
71,62,82440,120
83,62,82440,120
90,69,82560,120
78,69,82560,120
88,62,82680,120
76,62,82680,120
86,52,82800,480
74,62,82800,120
77,65,82920,120
79,69,83040,120
78,64,83160,120
73,54,83280,120
81,54,83280,120
85,64,83280,120
76,54,83280,120
72,58,83400,120
81,58,83400,120
84,69,83400,120
75,58,83400,120
84,72,83520,240
81,61,83520,60
78,71,83580,60
75,69,83640,60
72,68,83700,60
72,66,83760,360
69,56,83760,60
66,61,83820,60
63,59,83880,60
60,58,83940,60
69,60,84000,60
63,48,84060,60
71,48,84120,120
59,40,84120,60
62,48,84120,60
67,48,84180,60
58,35,84240,480
70,41,84240,480
67,35,84240,480
62,35,84240,480
69,61,84960,240
66,51,84960,80
62,55,85040,80
57,55,85120,80
69,61,85200,360
66,51,85200,60
62,54,85260,60
57,55,85320,60
66,55,85380,60
66,63,85440,60
62,54,85500,60
68,59,85560,120
65,50,85560,60
62,50,85620,60
64,48,85680,238
58,48,85680,238
55,48,85680,238
67,57,85680,238
63,38,87120,475
66,45,87120,475
63,36,87600,238
66,36,87600,238
71,42,87600,238
59,38,87840,475
63,38,87840,475
71,45,87840,475
66,38,87840,475
63,36,88320,238
59,36,88320,238
71,44,88320,238
66,36,88320,238
64,38,88560,238
59,38,88560,238
71,45,88560,238
57,35,88800,475
64,35,88800,475
61,35,88800,475
69,41,88800,475
57,35,89280,480
66,35,89280,480
62,35,89280,480
69,41,89280,480
66,33,89760,240
57,42,90000,480
69,36,90480,240
66,40,90720,480
90,59,91200,240
78,49,91200,240
81,49,91200,240
79,53,91440,480
76,53,91440,480
88,63,91440,480
81,51,91920,238
76,43,91920,238
69,43,91920,238
79,43,91920,238
69,45,92160,480
81,54,92160,480
78,45,92160,480
78,43,92640,240
69,50,92880,480
69,39,93360,240
81,47,93360,240
78,54,93600,480
66,45,93600,480
69,40,94080,240
81,48,94080,240
79,56,94320,480
83,56,94320,480
71,47,94320,480
85,54,94800,240
76,45,94800,240
79,45,94800,240
73,45,94800,240
78,50,95040,720
74,50,95040,720
86,60,95040,720
88,68,95760,713
85,56,95760,713
76,56,95760,713
76,62,96480,480
88,73,96480,480
85,62,96480,480
87,70,96960,240
90,70,96960,240
78,59,96960,240
91,75,97200,238
79,63,97200,238
88,75,97200,238
88,80,97440,238
93,80,97440,238
81,68,97440,238
88,72,97680,238
93,85,97680,238
91,85,97680,238
81,72,97680,238
93,74,97920,240
81,62,97920,240
69,46,98160,240
81,55,98160,240
66,46,98400,238
78,55,98400,238
66,51,98640,240
78,60,98640,240
62,46,98880,240
74,55,98880,240
64,47,99120,240
76,56,99120,240
66,51,99360,720
78,60,99360,720
67,51,100080,480
79,60,100080,480
71,53,100560,238
83,63,100560,238
71,56,100800,480
79,56,100800,480
83,67,100800,480
79,55,101280,238
82,65,101280,238
70,55,101280,238
70,55,101520,240
82,65,101520,240
88,64,101760,240
76,54,101760,240
89,66,102000,120
77,56,102000,120
78,57,102120,119
90,68,102120,119
90,69,102240,720
78,58,102240,720
75,68,102960,120
78,70,103080,120
80,69,103200,120
87,73,103320,120
90,74,103440,120
92,76,103560,120
65,51,103680,720
77,60,103680,720
68,51,104400,240
80,60,104400,480
77,57,104640,240
80,61,104880,240
78,45,104880,240
85,69,105120,720
80,58,105120,240
73,60,105360,240
73,60,105600,238
81,68,105840,480
73,57,105840,240
69,56,106080,240
73,51,106320,240
78,60,106320,238
66,51,106320,240
90,73,106560,480
78,62,106560,240
87,70,106800,240
78,59,107040,238
87,70,107040,238
90,70,107040,238
78,64,107280,240
87,76,107280,240
90,76,107280,240
87,73,107520,240
80,62,107520,240
78,62,107520,240
85,73,107760,240
80,62,107760,240
77,62,107760,240
83,73,108000,720
80,62,108000,480
77,62,108000,480
80,70,108480,110
77,67,108600,120
50,61,108720,120
53,60,108840,120
58,62,108960,120
62,64,109080,120
65,67,109200,120
70,69,109320,118
70,62,109440,480
82,73,109440,480
67,56,109920,238
79,67,109920,238
67,62,110160,240
79,73,110160,240
63,57,110400,240
75,68,110400,240
77,68,110640,240
70,57,110640,240
65,57,110640,120
74,57,110640,240
68,68,110760,120
79,73,110880,480
67,62,110880,480
70,62,110880,480
75,62,110880,480
83,73,111360,240
71,62,111360,240
80,75,111600,480
68,63,111600,480
77,68,112080,240
65,57,112080,240
85,84,112320,480
73,71,112320,480
70,66,112800,240
82,78,112800,240
79,81,113040,480
67,68,113040,480
75,54,113520,240
63,27,113640,120
67,33,113640,120
63,39,113760,240
71,46,113760,480
68,39,113760,240
68,52,114240,240
76,58,114480,480
73,56,114960,240
70,60,115200,480
78,68,115680,240
90,80,115680,240
75,73,115920,480
87,87,115920,480
72,70,116400,240
84,83,116400,240
80,74,116640,480
92,87,116640,480
76,68,117120,240
88,80,117120,240
73,73,117360,480
85,87,117360,480
57,45,117840,240
69,53,117840,240
57,43,118080,235
66,51,118080,480
63,56,118560,240
83,63,118800,480
80,53,119280,240
77,51,119520,480
85,59,120000,240
73,54,120000,240
81,60,120240,480
73,51,120240,120
78,51,120360,238
69,51,120600,120
86,56,120720,240
74,50,120720,240
83,56,120960,480
71,47,120960,480
68,42,121440,240
80,50,121440,240
77,46,121680,480
65,39,121680,480
74,44,122160,238
65,37,122160,238
68,37,122160,238
71,37,122160,238
71,39,122400,475
65,27,122400,475
62,27,122400,475
68,27,122400,475
68,36,122880,238
59,25,122880,238
62,25,122880,238
65,25,122880,238
65,34,123120,475
56,24,123120,475
59,24,123120,475
62,24,123120,475
62,30,123600,300
53,21,123600,300
56,21,123600,300
59,21,123600,300
59,30,123900,60
56,30,123960,60
53,30,124020,60
50,30,124080,60
47,30,124140,60
44,30,124200,60
47,30,124260,60
50,35,124320,60
53,30,124380,60
56,30,124440,60
59,30,124500,60
59,30,124560,60
62,36,124560,60
65,30,124620,60
68,30,124680,60
71,30,124740,60
74,35,124800,60
71,29,124800,60
77,30,124860,60
80,30,124920,60
83,30,124980,60
81,22,125040,240
86,32,125040,60
84,28,125100,60
86,28,125160,60
85,28,125220,60
81,24,125280,240
86,35,125280,60
73,24,125340,60
86,28,125400,60
85,28,125460,60
73,22,125520,60
81,32,125520,240
85,28,125580,60
86,28,125640,60
85,28,125700,60
83,28,125760,60
69,24,125820,60
83,28,125880,60
81,26,125940,60
69,28,126000,60
81,28,126060,60
83,28,126120,60
81,28,126180,60
80,34,126240,60
66,24,126300,60
80,28,126360,60
78,28,126420,60
68,28,126480,60
80,28,126540,60
81,26,126600,60
80,26,126660,60
69,31,126720,60
81,31,126780,60
83,29,126840,60
81,30,126900,60
83,39,126960,60
70,28,127020,60
83,35,127080,60
82,35,127140,60
71,36,127200,60
83,37,127260,60
85,37,127320,60
83,38,127380,60
85,49,127440,60
83,40,127500,60
71,34,127560,60
83,42,127620,60
71,42,127680,60
83,44,127740,60
85,42,127800,60
83,42,127860,60
88,55,127920,60
86,46,127980,60
74,40,128040,60
86,48,128100,60
74,50,128160,60
86,50,128220,60
88,51,128280,60
86,51,128340,60
88,60,128400,60
86,43,128460,60
74,52,128520,60
86,53,128580,60
73,52,128640,60
85,54,128700,60
86,54,128760,60
85,55,128820,60
86,68,128880,60
85,56,128940,60
73,47,129000,60
85,56,129060,60
77,43,129120,60
83,57,129120,60
89,57,129180,60
90,58,129240,60
89,58,129300,60
92,70,129360,60
90,59,129420,60
81,50,129480,60
78,50,129480,60
90,60,129540,60
93,68,129600,60
92,61,129660,60
80,61,129720,60
92,61,129780,60
92,51,129900,60
80,60,129960,60
92,55,130020,60
92,54,130140,60
80,59,130200,60
92,55,130260,60
80,53,130380,60
88,64,130440,60
86,53,130500,60
85,61,130560,60
86,61,130620,60
80,57,130680,60
86,57,130740,60
86,56,130860,60
80,64,130920,60
86,56,130980,60
74,61,131040,60
85,54,131100,60
88,58,131160,60
86,53,131220,60
85,66,131280,60
86,51,131340,60
74,61,131400,60
86,54,131460,60
74,63,131520,60
86,57,131580,60
88,64,131640,60
86,57,131700,58
86,66,131760,60
85,53,131820,60
73,59,131880,60
85,51,131940,60
84,50,132000,60
85,49,132060,60
73,48,132120,60
85,47,132180,60
82,55,132240,60
83,46,132300,60
71,37,132360,60
83,44,132420,60
71,50,132480,60
83,44,132540,60
85,45,132600,60
83,46,132660,60
82,55,132720,60
83,48,132780,60
71,43,132840,60
83,51,132900,60
71,56,132960,60
83,54,133020,60
85,55,133080,60
83,56,133140,60
85,49,133260,60
71,43,133320,60
83,49,133380,60
83,45,133500,60
69,43,133560,60
81,43,133620,60
81,49,133740,60
68,47,133800,60
80,54,133860,60
68,54,133920,60
80,54,133980,60
79,51,134040,60
80,51,134100,60
81,61,134160,60
80,43,134220,60
68,52,134280,60
80,52,134340,60
68,50,134400,60
80,51,134460,60
81,51,134520,60
80,50,134580,60
81,61,134640,60
80,50,134700,60
68,41,134760,60
80,49,134820,60
69,49,134880,60
81,48,134940,60
83,48,135000,60
81,48,135060,60
80,57,135120,60
78,47,135180,60
66,39,135240,60
78,47,135300,60
77,53,135360,60
78,46,135420,60
66,45,135480,60
78,46,135540,60
80,54,135600,60
78,39,135660,60
66,46,135720,60
78,46,135780,60
77,45,135840,60
78,41,135900,60
66,46,135960,60
78,40,136020,60
78,46,136140,60
65,39,136200,60
77,46,136260,60
81,46,136380,60
68,42,136440,60
80,46,136500,60
85,46,136620,60
71,39,136680,60
83,46,136740,60
85,46,136800,60
71,39,136860,60
85,46,136920,60
83,46,136980,60
82,54,137040,60
83,46,137100,60
71,37,137160,60
83,46,137220,58
83,45,137280,60
81,46,137340,60
69,41,137400,60
81,46,137460,60
83,57,137520,60
69,39,137580,60
83,44,137640,60
81,46,137700,58
81,46,137760,60
68,39,137820,60
81,43,137880,60
80,43,137940,58
80,55,138000,60
66,38,138060,60
80,39,138120,60
78,46,138180,60
77,46,138240,60
78,46,138300,60
66,41,138360,60
78,46,138420,60
80,54,138480,60
78,45,138540,60
66,38,138600,60
78,46,138660,60
65,45,138720,60
77,42,138780,60
78,46,138840,60
77,46,138900,60
78,57,138960,60
65,39,139020,60
78,45,139080,60
77,46,139140,60
68,51,139200,60
80,47,139260,60
81,47,139320,60
80,48,139380,60
83,59,139440,60
71,42,139500,60
74,51,139560,60
86,53,139620,60
85,58,139680,60
86,55,139740,60
74,50,139800,60
86,57,139860,60
88,68,139920,60
86,58,139980,60
74,50,140040,60
86,61,140100,58
86,60,140160,60
73,52,140220,60
86,59,140280,60
85,58,140340,60
86,62,140460,60
73,50,140520,60
85,54,140580,60
85,56,140700,60
71,45,140760,60
83,49,140820,60
83,50,140940,60
69,40,141000,60
81,47,141060,60
83,57,141120,60
69,45,141180,60
83,54,141240,60
81,51,141300,60
80,63,141360,60
81,52,141420,60
69,42,141480,60
81,51,141540,60
81,49,141600,60
68,42,141660,60
81,48,141720,60
80,47,141780,60
80,50,141900,60
68,41,141960,60
80,49,142020,60
92,48,142140,60
80,53,142200,60
92,48,142260,60
91,44,142380,60
79,51,142440,60
91,47,142500,60
91,46,142620,60
79,52,142680,60
91,46,142740,60
91,45,142860,60
83,51,142920,60
95,45,142980,60
95,44,143100,60
81,48,143160,60
93,43,143220,60
93,43,143340,60
79,49,143400,60
91,45,143460,60
91,48,143580,60
79,57,143640,60
91,51,143700,60
91,55,143820,60
79,61,143880,60
78,57,143940,60
90,57,143940,60
90,60,144060,60
76,55,144120,60
88,63,144180,60
88,60,144300,60
76,53,144360,60
88,57,144420,60
88,53,144540,60
76,57,144600,60
78,50,144660,60
90,50,144660,60
90,47,144780,60
79,54,144840,60
91,44,144900,60
91,43,145020,60
79,50,145080,60
91,43,145140,60
91,43,145260,60
79,51,145320,60
78,43,145380,60
90,43,145380,60
90,52,145440,60
78,43,145500,60
78,43,145560,60
90,43,145620,60
93,50,145680,60
81,36,145740,60
81,43,145800,60
93,43,145860,60
97,50,145920,60
85,43,145980,60
85,49,146040,60
97,43,146100,60
97,43,146220,60
85,49,146280,60
97,45,146340,60
85,48,146460,60
73,45,146520,60
85,51,146580,60
97,55,146700,60
85,65,146760,60
97,57,146820,60
85,60,146940,60
73,48,147000,60
85,63,147060,60
97,53,147180,60
85,61,147240,60
97,59,147300,60
93,55,147360,60
81,54,147420,60
81,52,147480,60
93,49,147540,60
93,52,147600,60
81,41,147660,60
81,47,147720,60
93,44,147780,60
90,52,147840,60
78,47,147900,60
78,47,147960,60
66,46,148020,60
77,50,148080,60
80,59,148080,60
71,50,148080,60
68,56,148140,60
78,50,148200,60
81,59,148200,60
73,50,148200,60
69,62,148260,60
80,55,148320,240
83,65,148320,240
71,55,148320,240
68,50,148560,240
71,59,148560,240
62,50,148560,240
61,50,148800,240
66,50,148800,240
69,59,148800,240
59,51,149040,240
62,51,149040,240
69,65,149040,240
65,55,149040,240
62,50,149280,240
59,50,149280,240
68,59,149280,240
65,59,149280,240
63,50,149520,240
57,50,149520,240
66,59,149520,240
63,56,149760,360
66,66,149760,720
57,56,149760,720
60,55,150120,120
61,55,150240,120
60,55,150360,120
56,50,150480,720
65,59,150480,720
61,50,150480,720
68,57,150840,120
71,60,150960,120
74,63,151080,120
68,55,151200,238
62,46,151200,238
74,65,151200,238
65,46,151200,238
71,55,151200,238
68,50,151440,238
74,59,151440,238
62,50,151440,238
71,50,151440,238
61,50,151680,238
73,59,151680,238
69,50,151680,238
68,55,151920,238
73,65,151920,238
65,55,151920,238
62,55,151920,238
68,50,152160,238
71,59,152160,238
65,59,152160,238
62,50,152160,238
63,50,152400,238
66,50,152400,238
69,59,152400,238
66,56,152640,480
69,66,152640,480
60,55,152880,120
61,55,153000,120
65,51,153120,240
68,51,153120,240
60,55,153120,120
61,55,153240,120
61,50,153360,240
56,50,153360,240
65,50,153360,240
68,59,153360,240
55,33,153600,240
58,33,153600,240
64,39,153600,240
67,48,153600,420
55,33,153840,240
59,33,153840,240
62,39,153840,240
67,47,154020,60
83,63,154080,480
71,47,154320,240
69,37,154560,238
81,50,154560,238
69,40,154800,240
81,55,154800,240
67,35,155040,240
79,48,155040,240
67,36,155280,240
71,36,155280,120
79,49,155280,120
74,33,155400,120
78,44,155400,120
67,40,155520,240
74,48,155520,240
78,55,155520,240
67,36,155760,240
72,36,155760,240
76,49,155760,240
76,48,156000,120
72,35,156000,120
67,35,156000,120
75,38,156120,120
78,51,156120,120
69,38,156120,120
72,38,156120,120
75,40,156240,120
78,55,156240,120
69,40,156240,120
72,40,156240,120
79,50,156360,120
74,37,156360,120
71,37,156360,120
71,37,156480,240
74,37,156480,240
79,50,156480,240
67,40,156720,120
54,30,156840,120
66,36,156840,120
54,34,156960,238
66,40,156960,238
57,31,157200,238
69,37,157200,238
66,31,157200,238
61,31,157200,238
61,31,157440,238
73,37,157440,238
69,31,157440,238
66,31,157440,238
61,34,157680,475
73,41,157680,475
68,34,157680,475
65,34,157680,475
61,29,158160,238
73,35,158160,238
69,29,158160,238
66,29,158160,238
61,36,158400,240
69,36,158400,240
73,43,158400,240
62,34,158640,240
67,34,158640,240
74,40,158640,240
55,30,158880,240
67,36,158880,240
59,31,159120,240
71,37,159120,240
61,37,159360,240
65,31,159600,240
53,26,159600,240
66,38,159840,240
54,32,159840,240
73,41,160080,360
61,34,160080,360
68,29,160440,120
56,24,160440,120
69,31,160560,240
57,26,160560,240
81,42,160800,360
69,34,160800,360
77,25,161160,120
65,21,161160,120
78,43,162480,357
78,44,162840,238
78,44,163080,238
81,61,163200,238
78,49,163320,238
86,74,163440,240
78,54,163560,238
88,71,163680,240
78,52,163800,238
90,71,163920,240
78,45,164040,120
90,69,164160,30
91,61,164190,30
90,67,164220,30
91,63,164250,30
90,63,164280,30
91,71,164310,30
90,69,164340,30
91,78,164370,30
93,83,164400,240
81,57,164520,475
91,75,164640,240
91,77,164880,320
81,56,165000,240
88,68,165240,120
85,62,165360,120
86,65,165480,120
87,74,165600,120
88,64,165720,200
79,63,165920,80
78,64,166000,80
79,64,166080,80
81,66,166160,80
82,68,166240,80
85,70,166320,80
83,68,166400,80
81,66,166480,80
79,69,166560,80
78,65,166640,80
79,60,166720,80
80,69,166800,80
81,64,166880,80
76,59,166960,80
79,70,167040,120
78,64,167160,240
81,69,167400,240
86,76,167640,238
86,74,167880,240
88,78,168120,240
90,68,168360,119
90,62,168480,30
91,59,168510,30
90,64,168540,30
91,60,168570,30
90,67,168600,30
91,62,168630,30
90,69,168660,30
91,65,168690,30
90,72,168720,30
91,66,168750,30
90,74,168780,30
91,70,168810,30
90,77,168840,40
89,79,168880,40
90,75,168920,40
93,84,168960,120
91,67,169080,120
91,72,169200,320
87,69,169520,80
88,72,169600,80
91,72,169680,80
90,67,169760,80
88,64,169840,78
88,77,169920,320
84,67,170240,80
85,64,170320,80
88,76,170400,80
86,67,170480,80
85,65,170560,80
83,72,170640,60
82,62,170700,60
86,66,170760,60
85,63,170820,60
84,72,170880,60
85,63,170940,60
76,66,171000,60
79,60,171060,60
77,72,171120,60
78,62,171180,60
73,66,171240,60
76,61,171300,60
74,66,171360,240
83,70,171600,360
78,59,171960,120
79,66,172080,480
70,39,172200,238
76,46,172200,238
70,37,172440,238
76,44,172440,238
78,64,172560,240
70,39,172680,120
76,46,172680,120
71,43,172800,240
74,43,172800,240
78,66,172800,60
90,56,172860,60
85,59,172920,60
86,55,172980,60
88,66,173040,60
86,57,173100,60
82,59,173160,60
83,55,173220,60
85,66,173280,60
83,60,173340,60
86,66,173400,40
83,57,173440,40
78,50,173481,40
81,66,173520,120
79,60,173640,238
70,31,173640,238
76,31,173640,238
76,31,173880,238
70,31,173880,238
79,60,173880,238
78,64,174120,120
70,31,174120,120
76,37,174120,120
78,72,174240,357
74,61,174240,119
71,61,174240,119
66,53,174360,238
66,59,174600,238
74,48,174600,119
71,46,174600,119
78,71,174600,238
70,58,174720,119
76,49,174720,119
70,54,174840,119
78,70,174840,119
66,59,174840,119
76,49,174840,119
71,65,174960,119
66,65,174960,119
74,65,174960,119
78,77,174960,357
71,56,175080,238
74,61,175320,119
71,63,175320,238
83,75,175320,238
78,51,175320,119
75,62,175440,119
78,52,175440,119
75,62,175560,119
71,62,175560,119
78,52,175560,119
83,75,175560,119
72,63,175680,119
78,63,175680,119
75,63,175680,119
84,75,175680,119
72,63,175800,238
78,63,175800,238
75,63,175800,238
84,76,175800,238
72,65,176040,238
78,78,176040,119
75,65,176040,119
84,78,176040,238
75,65,176160,119
81,78,176160,119
72,66,176280,119
81,66,176280,119
84,79,176280,119
75,66,176280,119
73,66,176400,119
85,79,176400,119
80,66,176400,119
80,67,176520,238
73,67,176520,238
85,80,176520,238
73,68,176760,119
85,82,176760,238
80,82,176760,119
78,82,176880,119
73,69,176880,119
78,69,177000,119
73,69,177000,238
85,83,177000,238
77,67,177120,120
84,65,177240,120
72,60,177240,120
87,59,177360,120
75,59,177360,120
85,59,177480,120
73,59,177480,120
84,58,177600,120
72,58,177600,120
73,57,177720,120
85,57,177720,120
76,56,177840,240
88,56,177840,240
75,55,178080,600
87,55,178080,600
84,55,178680,120
72,46,178680,120
87,63,178800,120
75,53,178800,120
85,55,178920,120
73,46,178920,120
84,60,179040,120
72,51,179040,120
73,45,179160,120
85,53,179160,120
75,50,179280,240
87,59,179280,240
85,55,179520,600
73,46,179520,600
70,47,180120,120
82,56,180120,120
73,56,180240,120
85,66,180240,120
71,50,180360,120
83,59,180360,120
70,56,180480,120
82,67,180480,120
83,60,180600,119
71,51,180600,119
71,56,180720,120
83,67,180720,120
68,51,180840,120
80,61,180840,120
71,57,180960,120
83,68,180960,120
70,52,181080,120
82,62,181080,120
68,56,181200,120
80,67,181200,120
69,52,181320,117
81,62,181320,117
69,62,181440,240
81,74,181440,240
80,69,181680,240
73,58,181680,240
68,58,181680,240
73,63,181920,360
78,75,181920,240
83,78,182160,240
73,67,182280,120
80,67,182400,120
82,79,182400,240
78,67,182520,120
77,69,182640,120
87,82,182640,480
78,70,182760,120
75,73,182880,240
78,87,182880,240
78,68,183120,240
85,80,183120,240
73,68,183120,240
90,94,183360,480
78,79,183360,480
89,90,183840,240
77,76,183840,240
95,93,184080,600
83,83,184080,600
89,83,184080,600
92,83,184080,600
71,36,184680,120
68,40,184800,120
74,36,184920,120
72,40,185040,120
73,36,185160,120
68,40,185280,120
75,36,185400,120
73,40,185520,120
71,35,185640,120
70,49,185760,240
42,58,186240,720
42,52,186960,120
37,46,187080,118
37,52,187200,718
37,52,187920,478
37,52,188400,238
34,52,188640,240
90,61,189120,717
78,53,189120,717
90,55,189840,119
78,48,189840,119
85,48,189960,119
73,42,189960,119
85,55,190080,713
73,48,190080,713
85,55,190800,475
73,48,190800,475
85,55,191280,238
73,48,191280,238
82,53,191520,240
70,45,191520,240
42,58,192000,475
42,58,192480,238
42,56,192720,80
41,50,192800,80
42,50,192880,60
37,52,192960,475
37,52,193440,475
37,52,193920,475
34,52,194400,240
90,67,194880,713
78,59,194880,713
90,65,195600,81
78,57,195600,81
77,51,195680,80
89,58,195680,80
78,51,195760,80
90,58,195760,60
85,67,195840,475
73,59,195840,475
73,62,196320,475
85,70,196320,475
73,63,196800,400
85,72,196800,400
71,45,197200,80
83,50,197200,80
70,50,197280,240
82,50,197280,240
70,40,197520,80
82,55,197520,480
80,40,197600,80
78,40,197680,80
77,50,197760,80
75,41,197840,80
73,43,197920,80
71,50,198000,80
83,55,198000,720
73,42,198080,80
70,42,198160,80
71,50,198240,80
73,40,198320,80
75,40,198400,80
77,50,198480,80
78,41,198560,80
80,41,198640,80
73,50,198720,240
85,55,198720,240
82,42,198960,80
85,57,198960,480
80,42,199040,80
78,43,199120,80
76,55,199200,80
75,45,199280,80
73,48,199360,160
87,67,199440,720
75,48,199520,80
76,49,199600,80
75,60,199680,80
77,48,199760,80
78,49,199840,80
80,62,199920,80
82,51,200000,80
83,52,200080,160
89,71,200160,240
83,53,200240,80
82,54,200320,80
80,54,200400,80
78,54,200480,80
77,55,200560,80
90,77,200640,240
78,70,200640,80
80,57,200720,80
82,61,200800,80
80,72,200880,80
92,84,200880,480
83,61,200960,80
82,62,201040,80
80,75,201120,80
82,60,201200,80
83,61,201280,80
94,91,201360,240
82,77,201360,80
83,63,201440,80
85,64,201520,160
95,96,201600,240
82,61,201680,80
83,62,201760,80
85,74,201840,240
79,63,201840,80
78,51,201920,80
76,51,202000,80
87,70,202080,240
75,65,202080,80
76,53,202160,80
78,54,202240,160
81,70,202320,480
77,48,202400,80
75,47,202480,80
72,52,202560,80
73,46,202640,80
75,45,202720,80
77,47,202800,80
80,58,202800,240
74,44,202880,80
73,43,202960,80
76,51,203040,480
79,51,203040,720
85,61,203040,720
75,51,203520,240
87,52,203760,480
82,44,203760,480
75,44,203760,480
73,43,204240,240
75,43,204240,240
82,51,204240,240
73,51,204480,120
85,61,204480,120
70,48,204600,120
82,57,204600,120
83,74,204720,120
71,62,204720,120
75,60,204840,120
87,71,204840,120
94,79,204960,120
82,67,204960,120
92,73,205080,240
80,62,205080,240
90,72,205320,240
78,61,205320,240
66,56,205560,120
70,56,205560,120
78,67,205560,120
65,58,205680,120
77,69,205680,120
68,58,205680,120
73,64,205800,120
64,64,205800,120
76,76,205800,120
67,64,205800,120
64,46,205920,480
67,46,205920,480
73,46,205920,480
76,55,205920,480
73,40,206400,60
76,51,206400,120
67,40,206460,60
75,40,206520,120
71,40,206520,60
66,40,206580,60
62,29,206640,480
66,29,206640,480
70,29,206640,480
74,34,206640,480
66,51,207360,480
70,51,207360,480
73,61,207360,600
61,51,207360,480
70,40,207840,60
66,40,207900,60
69,40,207960,60
72,40,207960,120
66,40,208020,60
65,40,208080,240
71,48,208080,240
68,40,208080,240
62,40,208080,240
67,38,209520,475
70,45,209520,475
67,36,210000,240
70,36,210000,240
75,42,210000,240
67,38,210240,480
63,38,210240,480
70,38,210240,480
75,45,210240,480
63,36,210720,240
75,44,210720,240
67,36,210720,240
63,38,210960,240
66,38,210960,240
75,45,210960,240
61,35,211200,480
73,41,211200,480
65,35,211200,480
61,35,211680,480
66,35,211680,480
70,35,211680,480
73,41,211680,480
70,33,212160,240
61,42,212400,480
73,36,212880,240
70,40,213120,480
82,59,213600,240
73,49,213600,240
70,49,213600,240
68,53,213840,480
80,63,213840,480
71,53,213840,480
73,51,214320,240
71,43,214320,240
68,43,214320,240
61,43,214320,240
73,54,214560,480
61,45,214560,480
70,45,214560,480
82,51,215040,240
73,50,215280,480
85,58,215760,240
73,49,215760,240
70,54,216000,480
82,64,216000,480
73,52,216480,480
85,62,216480,480
85,56,216960,120
75,56,216960,240
87,67,216960,240
83,61,217080,120
82,67,217200,120
89,67,217200,240
77,56,217200,240
83,60,217320,120
82,56,217440,720
90,67,217440,720
78,56,217440,720
80,48,218160,720
89,48,218160,720
92,57,218160,720
85,52,218640,240
94,43,218880,480
90,36,218880,480
85,36,218880,480
82,36,218880,480
70,36,219360,238
73,36,219360,238
82,43,219360,238
85,60,219600,360
82,51,219600,360
73,51,219600,360
86,67,219960,120
83,57,219960,120
74,57,219960,120
88,72,220080,120
85,60,220080,120
76,60,220080,120
90,56,220200,119
86,47,220200,119
78,47,220200,119
90,51,220320,480
78,43,220320,480
86,40,220800,236
74,34,220800,236
86,46,221040,240
74,39,221040,240
83,43,221280,240
71,36,221280,240
73,36,221520,240
85,43,221520,240
74,39,221760,480
86,47,221760,480
71,39,223200,720
83,47,223200,720
74,39,223920,720
86,47,223920,720
91,80,224640,960
79,67,224640,960
71,45,225600,240
74,54,225600,240
66,44,225840,120
72,52,225840,120
67,40,225960,120
71,47,225960,120
67,43,226080,240
71,51,226080,240
43,58,226560,475
43,58,227040,238
43,56,227280,80
42,50,227360,80
43,50,227440,60
38,52,227520,475
38,52,228000,475
38,52,228480,480
35,48,228960,240
91,67,229440,475
79,59,229440,475
79,59,229920,238
91,67,229920,238
91,65,230160,81
79,57,230160,81
78,51,230240,80
90,58,230240,80
79,46,230320,80
91,55,230320,60
86,67,230400,475
74,59,230400,475
74,62,230880,475
86,70,230880,475
74,63,231360,475
86,72,231360,475
86,73,231840,475
74,64,231840,475
74,71,232320,475
86,80,232320,475
74,75,232800,320
86,84,232800,320
73,63,233120,80
85,72,233120,80
74,64,233200,78
86,73,233200,78
78,74,233280,475
86,85,233280,475
74,74,233280,475
78,82,233760,475
74,82,233760,475
86,93,233760,475
78,86,234240,320
90,97,234240,320
77,72,234560,80
89,82,234560,80
78,73,234640,78
90,83,234640,78
78,85,234720,475
90,97,234720,475
78,103,235200,360
90,103,235200,360
78,103,235680,360
90,103,235680,360
90,102,236160,119
78,102,236160,119
90,102,236280,238
90,103,236520,238
90,104,236760,238
90,106,237000,238
90,107,237240,238
90,108,237480,120
73,48,237600,480
69,42,238080,238
69,47,238320,240
66,41,238560,240
65,34,238800,240
68,41,238800,240
61,34,238800,240
57,42,239040,480
66,42,239040,480
69,50,239040,480
61,42,239040,480
58,47,239520,240
61,47,239520,240
66,47,239520,240
70,56,239520,240
62,51,239760,480
59,51,239760,480
71,61,239760,480
66,51,239760,480
71,55,240240,240
66,55,240240,240
62,55,240240,240
74,66,240240,240
71,67,240480,480
62,67,240480,480
74,79,240480,480
65,67,240480,480
69,55,240960,238
66,55,240960,238
73,65,240960,238
61,55,240960,238
69,63,241200,240
66,63,241200,240
73,76,241200,240
61,63,241200,240
59,55,241440,240
62,55,241440,240
68,55,241440,240
71,68,241440,240
66,55,241680,240
63,55,241680,240
57,55,241680,240
69,67,241680,240
66,48,241920,480
57,48,241920,480
69,57,241920,480
63,48,241920,480
61,46,242160,480
65,46,242400,240
56,46,242400,240
68,55,242400,240
65,53,242640,240
61,53,242640,240
68,64,242640,240
56,53,242640,240
55,49,242880,240
58,49,242880,240
64,49,242880,240
67,60,242880,480
62,52,243120,180
59,52,243120,180
55,52,243120,180
67,53,243300,60
83,65,243360,480
71,55,243600,240
69,52,243840,238
81,62,243840,238
69,55,244080,240
81,65,244080,240
67,51,244320,240
79,57,244320,240
66,50,244560,238
78,57,244560,238
66,55,244800,240
78,65,244800,240
64,52,245040,240
76,56,245040,240
66,52,245280,238
78,56,245280,238
66,52,245520,240
78,61,245520,240
67,55,245760,360
79,59,245760,360
54,43,246120,119
66,46,246120,119
54,45,246240,240
66,60,246240,240
57,45,246480,240
69,53,246480,240
61,43,246720,238
66,43,246720,238
69,43,246720,238
73,51,246720,238
61,45,246960,480
73,54,246960,480
65,45,246960,480
68,45,246960,480
61,36,247440,238
73,43,247440,238
69,36,247440,238
66,36,247440,238
69,40,247680,240
61,40,247680,240
73,48,247680,240
62,36,247920,240
74,43,247920,240
67,36,247920,240
55,36,248160,240
67,43,248160,240
59,37,248400,240
71,47,248400,240
49,37,248640,240
61,45,248640,240
65,44,248880,120
53,37,248880,120
54,32,249000,120
66,38,249000,120
54,25,249120,360
58,25,249120,360
64,25,249120,360
66,52,249120,480
66,25,249480,120
78,57,249600,240
66,25,249720,238
78,57,249840,480
66,25,249960,238
66,25,250200,238
73,50,250320,240
66,25,250440,238
76,57,250560,240
66,25,250680,238
74,51,250800,240
62,25,250920,238
68,25,250920,238
65,25,250920,238
71,51,251040,480
62,25,251160,238
65,25,251160,238
68,25,251160,238
62,25,251400,238
65,25,251400,238
68,25,251400,238
74,56,251520,240
62,25,251640,238
65,25,251640,238
68,25,251640,238
71,53,251760,240
62,25,251880,119
65,25,251880,119
68,25,251880,119
61,34,252000,240
66,34,252000,240
70,48,252000,80
78,45,252080,80
73,48,252160,80
82,54,252240,80
78,51,252320,80
85,51,252400,80
78,57,252480,80
91,63,252560,80
90,59,252640,80
89,64,252720,80
90,59,252800,80
88,59,252880,160
85,57,253040,80
82,57,253120,80
73,34,253200,240
79,62,253200,80
78,60,253280,80
76,60,253360,160
73,59,253520,80
74,59,253600,80
83,63,253680,80
80,53,253760,80
86,58,253840,160
85,53,254000,80
83,50,254080,78
71,42,254160,475
74,42,254160,475
77,42,254160,475
80,42,254160,475
83,52,254160,475
71,44,254640,240
74,44,254640,240
77,44,254640,240
80,44,254640,240
83,56,254640,240
70,43,254880,1198
73,43,254880,1198
78,43,254880,1198
82,54,254880,1198
70,42,256080,718
73,42,256080,718
78,42,256080,718
82,53,256080,718
90,50,256800,718
82,40,256800,718
78,40,256800,718
78,36,257520,475
82,36,257520,475
90,46,257520,475
94,44,258000,951
85,35,258000,951
82,35,258000,951
73,35,258960,240
73,38,259200,480
69,33,259680,238
69,37,259920,240
66,32,260160,240
65,27,260400,240
68,32,260400,240
61,27,260400,240
66,33,260640,480
69,40,260640,480
61,33,260640,480
58,29,261120,240
61,29,261120,240
66,29,261120,240
70,37,261120,240
62,36,261360,480
59,36,261360,480
71,46,261360,480
66,36,261360,480
70,39,261840,240
66,39,261840,240
61,39,261840,240
73,49,261840,240
71,44,262080,238
62,44,262080,238
74,56,262080,238
66,44,262080,238
71,28,262320,475
68,28,262320,475
74,35,262320,475
62,28,262320,475
71,33,262800,475
68,33,262800,475
74,42,262800,475
62,33,262800,475
62,25,263280,120
68,25,263280,120
71,25,263280,120
74,32,263280,120
70,25,263400,117
61,25,263400,117
73,32,263400,117
61,33,263520,1440
70,33,263520,1440
73,39,263520,1440
70,28,264960,1438
78,28,264960,1438
85,33,264960,1438
70,28,266400,720
78,28,266400,720
85,33,266400,720
58,28,267120,720
66,28,267120,720
73,33,267120,720
58,24,268020,300
66,24,268080,240
73,33,268140,180
33,23,0,720
45,28,0,720
37,21,720,720
49,30,720,720
42,29,1440,720
49,29,1440,720
54,35,1440,720
42,29,2160,240
49,29,2160,240
54,35,2160,240
45,26,2400,240
49,26,2400,240
57,31,2400,240
44,26,2640,240
49,26,2640,240
56,31,2640,240
42,28,2880,720
49,28,2880,720
54,34,2880,720
38,33,3600,480
50,39,3600,480
35,34,4080,238
47,40,4080,238
35,37,4320,480
47,46,4320,480
33,35,4800,238
45,42,4800,238
33,39,5040,240
45,48,5040,240
32,38,5280,240
44,45,5280,240
30,40,5520,240
42,48,5520,240
29,39,5760,720
41,48,5760,720
59,30,6480,720
56,30,6480,720
53,30,6480,720
62,36,6480,720
29,28,7200,720
41,34,7200,720
30,25,7920,480
42,30,7920,480
32,26,8400,238
44,31,8400,238
32,29,8640,713
44,35,8640,713
32,29,9360,240
44,35,9360,240
33,26,9600,240
45,31,9600,240
35,26,9840,240
47,31,9840,240
36,29,10080,475
48,35,10080,475
36,27,10560,238
48,32,10560,238
36,33,10800,238
48,40,10800,238
36,31,11040,238
48,37,11040,238
36,32,11280,240
48,39,11280,240
37,32,11520,720
49,39,11520,720
37,27,12240,240
49,32,12240,240
49,31,12480,240
53,31,12480,240
56,37,12480,240
49,31,12720,240
56,31,12720,240
59,37,12720,240
49,36,12960,480
59,43,12960,480
49,28,13440,238
57,34,13440,238
49,36,13680,240
57,43,13680,240
49,32,13920,240
56,38,13920,240
49,32,14160,240
54,38,14160,240
49,36,14400,480
54,43,14400,480
49,28,14880,240
53,34,14880,240
49,36,15120,480
53,49,15120,240
56,45,15360,240
56,32,15600,240
49,32,15600,240
59,38,15600,120
62,38,15720,119
59,36,15840,480
49,36,15840,480
62,43,15840,480
57,31,16320,238
49,31,16320,238
61,37,16320,238
49,34,16560,240
61,41,16560,240
57,34,16560,240
49,30,16800,240
59,36,16800,240
56,30,16800,240
49,29,17040,238
57,35,17040,238
54,29,17040,238
54,32,17280,480
49,32,17280,480
57,39,17280,480
53,25,17760,238
49,25,17760,238
56,29,17760,238
53,26,18000,480
49,26,18000,480
56,31,18000,480
55,21,18480,180
52,21,18480,180
49,21,18480,180
58,26,18480,180
50,32,18720,720
55,32,18720,720
59,43,18730,720
59,30,19440,10
55,30,19440,720
62,36,19440,480
62,30,19920,240
64,39,20160,720
60,33,20160,720
59,29,20880,480
62,35,20880,480
62,32,21360,238
62,35,21600,240
61,31,21840,240
49,26,22080,240
54,26,22080,240
57,26,22080,240
61,31,22080,240
49,29,22320,475
53,29,22320,475
56,29,22320,475
61,35,22320,475
49,27,22800,238
53,27,22800,238
56,27,22800,238
61,32,22800,238
49,29,23040,480
53,29,23040,480
56,29,23040,480
61,35,23040,480
54,27,23520,238
57,27,23520,238
61,32,23520,238
54,27,23760,238
57,27,23760,238
61,35,23760,238
57,34,24000,240
56,33,24240,120
59,33,24240,120
54,38,24360,120
57,38,24360,120
37,43,24480,1440
41,38,24720,240
42,39,24960,240
44,42,25200,360
45,45,25560,120
47,48,25680,120
48,50,25800,120
37,36,25920,840
49,43,25920,840
49,45,26760,120
53,45,26880,120
56,45,27000,120
59,38,27120,120
62,38,27240,119
37,36,27360,240
49,43,27367,240
41,31,27600,240
49,31,27600,7
53,37,27600,240
49,31,27840,240
42,31,27840,240
54,37,27840,240
44,34,28080,360
56,41,28080,360
49,34,28080,360
57,45,28440,120
45,38,28440,120
59,48,28560,120
47,40,28560,120
60,50,28680,120
48,42,28680,120
49,32,28800,480
54,28,29040,240
57,35,29040,240
53,25,29280,240
49,25,29280,240
56,29,29280,240
53,26,29520,240
49,26,29520,240
56,31,29520,240
58,26,29760,240
52,21,29760,240
49,21,29760,240
55,21,29760,240
50,21,30000,240
55,21,30000,240
59,26,30000,240
59,43,30240,720
43,32,30240,720
50,32,30240,720
55,30,30960,720
47,30,30960,720
62,36,30960,720
48,30,31680,720
64,42,31680,720
55,30,31680,720
47,39,32400,480
55,39,32400,240
62,47,32400,240
55,35,32640,240
50,36,32880,240
54,43,32880,240
50,35,33120,240
54,35,33120,240
49,31,33360,240
54,31,33360,240
57,31,33360,240
49,26,33600,238
54,26,33600,238
57,26,33600,238
61,31,33600,238
49,31,33840,480
53,31,33840,480
56,31,33840,480
61,38,33840,480
54,27,34320,238
57,27,34320,238
61,32,34320,238
57,33,34560,240
54,33,34560,240
61,39,34560,240
47,26,34800,480
62,34,34800,240
55,31,35040,240
59,39,35280,240
37,26,35520,240
49,31,35520,480
53,31,35760,240
49,33,36000,240
42,33,36000,240
54,39,36000,240
49,31,36240,480
41,31,36240,480
56,37,36240,480
49,28,36720,240
42,28,36720,240
54,33,36720,240
49,20,36960,480
57,32,36960,360
53,22,37320,120
42,26,37680,120
61,26,37920,120
57,20,37920,120
54,20,37920,120
49,20,37920,120
61,31,38160,120
57,24,38160,120
54,24,38160,120
49,24,38160,120
42,26,38400,120
61,26,38640,120
57,20,38640,120
54,20,38640,120
49,20,38640,120
49,23,38880,120
54,23,38880,120
57,23,38880,120
61,29,38880,120
42,26,39120,120
61,26,39360,120
57,20,39360,120
54,20,39360,120
49,20,39360,120
49,24,39600,120
54,24,39600,120
57,24,39600,120
61,30,39600,120
42,26,39840,120
61,26,40080,120
57,20,40080,120
54,20,40080,120
49,20,40080,120
53,23,40320,120
49,23,40320,120
56,23,40320,120
59,23,40320,120
61,29,40320,120
44,26,40560,120
62,26,40800,120
59,20,40800,120
56,20,40800,120
53,20,40800,120
53,24,41040,120
56,24,41040,120
59,24,41040,120
62,30,41040,120
44,26,41280,120
62,26,41520,120
59,20,41520,120
56,20,41520,120
53,20,41520,120
53,23,41760,120
56,23,41760,120
59,23,41760,120
62,29,41760,120
44,26,42000,120
62,26,42240,120
59,20,42240,120
56,20,42240,120
53,20,42240,120
53,24,42480,120
56,24,42480,120
59,24,42480,120
62,30,42480,120
44,26,42720,120
61,26,42960,120
59,20,42960,120
56,20,42960,120
53,20,42960,120
49,23,43200,120
54,23,43200,120
57,23,43200,120
61,29,43200,120
42,26,43440,120
61,26,43680,120
57,20,43680,120
54,20,43680,120
49,20,43680,120
49,24,43920,120
54,24,43920,120
57,24,43920,120
61,30,43920,120
42,26,44160,120
61,26,44400,120
57,20,44400,120
54,20,44400,120
49,20,44400,120
53,25,44640,120
49,25,44640,120
56,25,44640,120
59,25,44640,120
61,32,44640,120
44,30,44880,120
62,32,45120,120
59,24,45120,120
56,24,45120,120
53,24,45120,120
53,28,45360,120
56,28,45360,120
59,28,45360,120
62,35,45360,120
44,29,45600,120
62,28,45840,120
59,21,45840,120
56,21,45840,120
53,21,45840,120
53,23,46080,120
56,23,46080,120
59,23,46080,120
62,29,46080,120
44,29,46320,120
62,31,46560,120
59,24,46560,120
56,24,46560,120
53,24,46560,120
53,28,46800,120
56,28,46800,120
59,28,46800,120
62,35,46800,120
44,32,47040,120
61,32,47280,120
59,25,47280,120
56,25,47280,120
53,25,47280,120
54,28,47520,120
57,28,47520,120
61,36,47520,120
45,32,47760,120
61,32,48000,120
57,25,48000,120
54,25,48000,120
53,30,48240,120
56,30,48240,120
59,30,48240,120
62,37,48240,120
44,32,48480,120
61,32,48720,120
59,25,48720,120
56,25,48720,120
53,25,48720,120
54,28,48960,120
57,28,48960,120
61,36,48960,120
45,32,49200,120
49,25,49440,120
61,32,49440,120
57,25,49440,120
54,25,49440,120
49,30,49680,120
53,30,49680,120
56,30,49680,120
59,30,49680,120
61,37,49680,120
44,32,49920,120
61,32,50160,120
59,25,50160,120
56,25,50160,120
57,30,50400,120
61,39,50400,120
45,35,50640,120
61,36,50880,120
58,28,50880,120
58,34,51120,120
61,42,51120,120
46,40,51360,120
63,40,51600,120
59,31,51600,120
59,36,51840,120
63,47,51840,120
47,42,52080,120
64,42,52320,120
61,33,52320,120
61,40,52560,120
64,50,52560,120
49,44,52800,120
66,44,53040,120
63,35,53040,120
66,49,53280,120
63,41,53280,120
51,41,53400,120
67,49,53520,120
64,41,53520,120
52,42,53640,120
69,51,53760,120
66,42,53760,120
54,41,53880,120
67,47,54000,120
71,56,54000,120
55,44,54120,120
68,48,54240,120
71,57,54240,120
56,51,54360,120
69,52,54480,120
73,62,54480,120
57,49,54600,120
69,40,54720,240
73,48,54720,240
61,40,54960,240
57,34,54960,480
63,35,55200,360
57,33,55440,720
63,32,55560,120
66,38,55680,120
64,34,55800,120
63,39,55920,120
64,35,56040,120
57,34,56160,720
62,48,56160,240
61,40,56400,600
57,33,56880,720
61,32,57000,120
64,38,57120,120
62,34,57240,120
61,39,57360,120
62,35,57480,120
57,33,57600,480
63,39,57600,240
60,39,57600,240
64,39,57840,240
61,33,57840,240
63,39,58080,120
58,33,58080,240
64,39,58200,119
64,45,58320,120
58,38,58320,240
61,39,58440,120
64,44,58560,120
59,37,58560,240
62,39,58680,120
61,43,58800,120
56,36,58800,240
62,39,58920,119
56,39,59040,240
62,46,59040,240
61,42,59280,240
55,35,59280,240
57,33,59520,240
54,33,59520,240
62,39,59520,240
52,45,59760,120
45,38,59760,240
49,39,59880,120
52,57,60000,120
47,43,60000,240
50,48,60120,120
49,57,60240,120
44,48,60240,240
50,53,60360,120
41,51,60480,240
50,67,60480,120
44,59,60600,120
42,53,60720,360
47,69,60720,120
45,58,60840,120
44,69,60960,120
41,45,61080,120
45,58,61080,120
40,57,61200,120
45,68,61200,120
32,61,61320,120
34,72,61440,120
33,63,61560,120
32,72,61680,120
33,62,61800,110
33,81,61920,120
52,43,62040,120
49,47,62160,120
55,43,62280,120
52,48,62400,120
58,43,62520,120
56,47,62640,120
57,43,62760,120
52,46,62880,120
59,39,63000,120
57,45,63120,120
55,40,63240,120
50,32,63360,1200
54,38,63360,120
59,33,63480,120
56,38,63600,120
57,34,63720,120
54,38,63840,120
59,33,63960,120
56,38,64080,120
57,33,64200,120
54,32,64320,120
59,28,64440,120
50,27,64560,240
54,32,64560,120
57,28,64680,120
49,32,64800,240
52,38,64800,120
57,33,64920,120
50,32,65040,240
54,38,65040,120
57,34,65160,120
52,34,65280,238
55,41,65280,120
57,36,65400,120
52,34,65520,240
55,40,65520,120
57,34,65640,120
50,32,65760,240
54,38,65760,120
57,32,65880,120
49,31,66000,240
52,37,66000,120
57,34,66120,120
50,32,66240,1200
54,38,66240,120
59,33,66360,120
56,38,66480,120
57,34,66600,120
54,38,66720,120
59,33,66840,120
56,38,66960,120
57,33,67080,120
54,38,67200,120
59,32,67320,120
50,29,67440,240
54,34,67440,120
57,29,67560,120
49,27,67680,240
52,32,67680,120
57,28,67800,120
50,28,67920,240
54,34,67920,120
57,31,68040,120
52,32,68160,238
55,39,68160,120
57,35,68280,120
52,34,68400,240
55,40,68400,120
57,34,68520,120
50,32,68640,240
54,38,68640,120
57,32,68760,120
49,31,68880,240
52,37,68880,120
57,34,69000,120
50,32,69120,1200
54,38,69120,81
59,33,69201,80
57,33,69280,80
56,38,69360,81
59,34,69440,80
57,34,69520,60
54,38,69600,81
59,33,69681,80
57,33,69760,60
56,38,69840,81
59,33,69920,80
57,33,70000,60
54,38,70080,81
59,34,70161,80
57,34,70240,60
50,32,70320,240
54,38,70320,81
58,34,70400,80
57,34,70480,60
49,32,70560,240
52,38,70560,81
59,33,70640,80
57,33,70720,60
50,32,70800,240
54,38,70800,81
59,34,70880,80
57,34,70960,60
52,34,71040,238
55,41,71040,81
59,36,71120,80
57,36,71200,60
52,34,71280,240
55,40,71280,81
59,34,71360,80
57,34,71440,60
50,32,71520,240
54,38,71520,81
59,32,71600,80
57,32,71680,60
49,31,71760,240
52,37,71760,81
59,34,71840,80
57,34,71920,60
50,32,72000,1200
54,38,72000,81
59,39,72081,80
57,39,72160,80
56,46,72240,81
59,41,72320,80
57,42,72400,60
54,47,72480,81
59,41,72561,80
57,42,72640,60
56,49,72720,81
59,42,72800,80
57,43,72880,60
54,50,72960,81
59,45,73041,80
57,45,73120,60
50,43,73200,240
54,51,73200,81
58,50,73280,80
57,50,73360,60
49,44,73440,240
52,53,73440,81
59,46,73520,80
57,46,73600,60
50,45,73680,240
54,54,73680,81
59,48,73760,80
57,49,73840,60
52,50,73920,240
55,60,73920,81
59,53,74000,80
57,54,74080,60
52,50,74160,240
55,60,74160,81
59,51,74240,80
57,51,74320,60
50,49,74400,240
54,58,74400,81
59,49,74480,80
57,50,74560,60
49,49,74640,240
52,58,74640,81
57,53,74720,80
55,40,74800,60
54,40,74880,80
50,50,74880,720
57,36,74960,80
55,36,75040,80
54,40,75120,80
55,38,75200,80
57,38,75280,80
59,40,75360,80
61,37,75440,80
62,37,75520,80
64,40,75600,240
52,50,75600,720
64,40,75840,80
62,36,75920,80
61,36,76000,80
59,40,76080,80
57,35,76160,80
55,35,76240,80
61,40,76320,80
54,50,76320,720
62,36,76400,80
61,37,76480,80
57,42,76560,80
59,40,76640,80
60,41,76720,80
62,44,76800,80
64,41,76880,80
66,41,76960,80
67,46,77040,320
55,57,77040,720
66,43,77360,80
64,44,77440,80
62,50,77520,80
60,44,77600,80
59,44,77680,80
64,52,77760,80
57,65,77760,480
61,47,77840,80
62,47,77920,80
64,54,78000,80
66,51,78080,80
67,52,78160,80
59,70,78240,240
66,56,78240,80
64,52,78320,80
62,52,78400,80
70,58,78480,80
61,72,78480,480
64,52,78560,80
66,53,78640,80
67,60,78720,80
69,57,78800,80
70,58,78880,80
63,77,78960,240
69,62,78960,80
67,57,79040,80
66,58,79120,80
67,58,79200,80
64,72,79200,240
70,52,79280,80
73,53,79360,80
66,50,79440,240
72,51,79440,80
71,48,79520,80
72,49,79600,80
67,65,79680,160
71,52,79680,80
69,48,79760,80
55,52,79840,80
67,52,79840,80
59,48,79920,80
56,52,79920,480
61,47,80000,80
62,39,80080,80
65,45,80160,80
64,38,80240,80
62,37,80320,80
61,43,80400,80
55,38,80400,240
63,36,80480,80
64,35,80560,80
66,39,80640,720
69,46,80640,720
63,32,81360,478
66,38,81360,478
59,26,81840,240
63,26,81840,240
66,31,81840,240
64,41,82080,360
67,41,82080,360
55,30,82440,120
59,36,82440,120
55,43,82560,240
69,43,82560,120
67,37,82680,120
66,46,82800,120
57,39,82800,480
68,39,82920,120
71,44,83040,120
69,40,83160,120
33,38,83280,120
45,45,83280,120
31,38,83400,60
43,45,83400,60
30,39,83460,60
42,46,83460,60
30,52,83520,60
33,44,83580,60
36,43,83640,60
39,42,83700,60
42,41,83760,60
45,40,83820,60
48,39,83880,60
51,38,83940,60
54,36,84000,60
60,27,84060,60
55,27,84120,60
59,27,84180,60
43,22,84240,480
55,26,84240,480
33,39,84960,80
38,34,85040,80
42,34,85120,80
45,39,85200,360
50,32,85260,60
54,32,85320,60
57,32,85380,60
50,38,85440,60
54,34,85500,60
47,28,85560,120
50,34,85560,60
53,34,85620,60
49,32,85680,238
52,38,85680,238
46,25,85920,360
49,25,85920,360
52,25,85920,360
55,30,85920,360
47,22,86280,120
51,22,86280,120
54,27,86280,120
47,25,86400,475
51,25,86400,475
54,30,86400,475
47,22,86880,238
51,22,86880,238
54,22,86880,238
59,27,86880,238
47,25,87120,475
51,25,87120,475
54,25,87120,475
59,30,87120,475
47,22,87600,238
51,22,87600,238
54,22,87600,238
59,27,87600,238
35,25,87840,238
47,30,87840,238
30,25,88080,475
42,30,88080,475
31,25,88560,238
43,30,88560,238
33,21,88800,475
45,25,88800,475
26,20,89280,480
38,24,89280,480
54,22,89760,240
45,24,90000,480
57,21,90480,240
54,24,90720,480
33,28,91200,240
45,34,91200,240
47,40,91440,480
35,27,91440,480
45,34,91440,480
37,29,91920,238
49,29,91920,238
45,29,91920,238
45,30,92160,480
38,30,92160,480
50,36,92160,480
66,33,92640,240
57,33,92880,480
42,26,93360,240
45,26,93360,240
54,31,93360,240
45,28,93600,480
57,33,93600,480
42,28,94080,480
45,28,94080,480
54,33,94080,480
40,28,94560,240
45,28,94560,240
52,34,94560,240
33,29,94800,240
45,34,94800,240
38,30,95040,720
45,36,95040,720
33,31,95760,713
45,37,95760,713
33,32,96480,480
45,38,96480,480
43,43,96960,120
42,45,97080,120
40,53,97200,120
38,48,97320,120
37,64,97440,80
40,53,97520,80
45,55,97600,80
49,65,97680,80
52,59,97760,80
57,59,97840,80
42,36,97920,720
54,43,97920,720
45,36,98640,720
57,43,98640,720
50,36,99360,720
62,43,99360,720
47,36,100080,480
59,43,100080,480
43,30,100560,240
55,36,100560,240
40,39,100800,480
52,47,100800,480
52,36,101280,238
55,43,101280,238
49,36,101520,480
52,43,101520,480
47,37,102000,120
50,44,102000,120
46,38,102120,119
49,45,102120,119
46,47,102240,120
49,44,102360,120
54,47,102480,120
58,49,102600,120
61,51,102720,120
66,53,102840,120
68,56,102960,720
66,47,102960,720
63,47,102960,720
60,47,102960,720
44,42,103680,480
56,50,103680,480
41,38,104160,238
53,45,104160,238
41,42,104400,240
53,50,104400,240
37,38,104640,240
49,45,104640,240
39,38,104880,240
51,45,104880,240
41,42,105120,480
53,50,105120,480
53,38,105600,240
56,45,105600,240
54,42,105840,480
57,50,105840,480
61,48,106320,240
57,40,106320,240
61,50,106560,480
57,42,106560,480
60,46,107040,238
56,39,107040,238
56,42,107280,240
60,50,107280,240
63,46,107520,240
60,39,107520,240
65,46,107760,240
61,39,107760,240
62,50,108000,120
65,45,108120,120
68,48,108240,120
74,51,108360,120
77,52,108480,110
80,49,108600,120
74,46,108720,480
77,46,108720,480
80,46,108720,480
82,55,108720,480
43,62,109440,120
46,50,109560,120
51,50,109680,120
55,47,109800,120
58,54,109920,120
63,45,110040,120
46,53,110160,120
51,45,110280,120
55,51,110400,120
58,45,110520,120
56,45,110640,120
53,45,110760,120
51,55,110880,120
55,49,111000,120
58,49,111120,120
63,49,111240,120
44,54,111360,120
56,47,111480,120
47,54,111600,120
51,48,111720,120
56,51,111840,120
59,45,111960,120
49,45,112080,120
61,45,112200,120
46,65,112320,120
49,42,112440,120
54,51,112560,120
58,46,112680,120
49,58,112800,120
61,46,112920,120
51,58,113040,120
55,47,113160,120
58,55,113280,120
61,47,113400,120
55,30,113520,120
58,30,113640,120
56,39,113760,120
59,26,113880,120
63,26,114000,120
68,26,114120,118
60,31,114240,120
63,31,114360,120
61,40,114480,120
64,34,114600,120
68,34,114720,120
73,29,114840,118
65,34,114960,120
68,31,115080,120
54,39,115200,120
58,31,115320,120
61,31,115440,120
66,45,115560,120
39,59,115680,120
51,52,115800,120
42,58,115920,120
46,49,116040,120
51,57,116160,120
54,49,116280,120
44,53,116400,120
56,49,116520,120
40,59,116640,120
44,51,116760,120
49,52,116880,120
52,50,117000,120
44,50,117120,120
56,45,117240,120
45,54,117360,120
49,49,117480,120
52,49,117600,120
57,49,117720,118
49,37,117840,120
61,34,117960,120
51,39,118080,480
54,31,118200,360
58,31,118320,120
63,31,118440,118
55,35,118560,120
58,31,118680,120
56,37,118800,120
59,34,118920,120
63,34,119040,120
68,34,119160,120
60,37,119280,120
63,34,119400,120
61,41,119520,120
65,31,119640,120
68,31,119760,120
73,31,119880,118
65,42,120000,120
68,36,120120,120
66,42,120240,120
69,34,120360,120
73,34,120480,120
78,34,120600,120
59,37,120720,120
71,34,120840,118
59,34,120840,120
56,28,121080,120
68,33,121080,120
65,33,121320,120
53,28,121320,120
61,30,121800,120
49,25,121800,120
37,25,122040,120
49,30,122040,120
37,22,122520,120
49,26,122520,120
37,25,122760,120
37,22,123240,120
37,21,123480,120
37,21,123600,240
37,30,123840,238
37,24,124080,238
44,24,124320,238
37,20,124320,238
37,20,124560,238
44,24,124560,238
37,20,124800,238
44,24,124800,238
30,20,125040,238
37,20,125040,238
42,24,125040,238
30,20,125280,238
37,20,125280,238
42,24,125280,238
37,20,125520,238
42,20,125520,238
49,24,125520,238
37,20,125760,238
42,20,125760,238
49,24,125760,238
37,20,126000,238
42,20,126000,238
49,24,126000,238
37,20,126240,238
42,20,126240,238
49,24,126240,238
37,20,126480,238
41,20,126480,238
49,24,126480,238
37,28,126720,238
42,28,126720,238
49,34,126720,238
37,23,126960,238
42,23,126960,238
49,27,126960,238
38,24,127200,238
42,24,127200,238
50,28,127200,238
38,25,127440,238
42,25,127440,238
50,30,127440,238
38,26,127680,238
42,26,127680,238
50,31,127680,238
35,27,127920,238
42,27,127920,238
47,32,127920,238
35,29,128160,238
42,29,128160,238
47,35,128160,238
47,29,128400,238
54,29,128400,238
59,34,128400,238
45,30,128640,238
54,30,128640,238
57,36,128640,238
45,31,128880,238
54,31,128880,238
57,37,128880,238
44,32,129120,238
49,32,129120,238
56,38,129120,238
42,33,129360,238
49,33,129360,238
54,39,129360,238
41,35,129600,238
49,35,129600,238
56,42,129600,238
41,34,129840,238
49,34,129840,238
56,40,129840,238
53,34,130080,238
56,34,130080,238
59,34,130080,238
61,40,130080,238
53,34,130320,238
56,34,130320,238
59,34,130320,238
62,40,130320,238
53,34,130560,238
56,34,130560,238
59,34,130560,238
62,40,130560,238
53,34,130800,238
56,34,130800,238
59,34,130800,238
62,40,130800,238
53,35,131040,238
56,35,131040,238
59,35,131040,238
62,42,131040,238
41,34,131280,238
44,34,131280,238
53,40,131280,238
41,34,131520,238
44,34,131520,238
53,40,131520,238
41,30,131760,238
44,30,131760,238
53,36,131760,238
42,28,132000,238
45,28,132000,238
54,33,132000,238
44,26,132240,238
47,26,132240,238
56,31,132240,238
44,25,132480,238
47,25,132480,238
56,30,132480,238
56,26,132720,238
59,26,132720,238
62,26,132720,238
65,31,132720,238
56,29,132960,238
59,29,132960,238
62,29,132960,238
65,35,132960,238
59,32,133200,238
56,32,133200,238
62,32,133200,238
65,38,133200,238
57,31,133440,238
61,31,133440,238
66,37,133440,238
59,30,133680,119
62,30,133680,119
66,36,133680,119
60,30,133800,120
63,30,133800,120
66,36,133800,120
60,31,134040,120
63,31,134040,120
66,31,134040,120
68,37,134040,120
60,29,134280,120
63,29,134280,120
66,34,134280,120
66,28,134520,120
60,28,134520,120
63,28,134520,120
68,34,134520,120
60,27,134760,120
63,27,134760,120
66,33,134760,120
60,27,135000,120
63,27,135000,120
66,27,135000,120
69,32,135000,120
54,26,135240,120
48,26,135240,120
51,26,135240,120
57,31,135240,120
49,27,135480,120
54,27,135480,120
57,32,135480,120
57,22,135720,120
49,22,135720,120
54,22,135720,120
60,26,135720,120
57,26,135960,120
49,26,135960,120
54,26,135960,120
61,31,135960,120
53,26,136080,240
49,26,136080,240
56,26,136080,240
61,31,136080,240
49,26,136320,240
53,26,136320,240
56,31,136320,240
49,26,136560,240
56,26,136560,240
59,31,136560,240
49,27,136800,240
56,27,136800,240
59,32,136800,240
49,23,137040,240
56,23,137040,240
59,27,137040,240
49,26,137280,240
54,26,137280,240
57,31,137280,240
49,23,137520,240
54,23,137520,240
57,27,137520,240
47,26,137760,240
50,26,137760,240
53,26,137760,240
56,31,137760,240
45,26,138000,240
48,26,138000,240
51,26,138000,240
54,31,138000,240
51,27,138240,240
46,27,138240,240
47,27,138240,240
54,32,138240,240
51,23,138480,240
46,23,138480,240
47,23,138480,240
54,27,138480,240
44,26,138720,240
49,26,138720,240
53,31,138720,240
44,23,138960,240
49,23,138960,240
53,27,138960,240
49,26,139200,240
53,31,139200,120
53,31,139320,120
56,31,139320,120
59,32,139440,120
49,27,139440,240
56,32,139440,120
62,34,139560,120
59,34,139560,120
49,31,139680,238
59,31,139680,238
62,37,139680,238
49,32,139920,238
59,32,139920,238
62,38,139920,238
49,34,140160,238
57,34,140160,238
61,41,140160,238
49,35,140400,238
57,35,140400,238
61,42,140400,238
49,32,140640,238
56,32,140640,238
59,38,140640,238
49,29,140880,238
54,29,140880,238
57,34,140880,238
49,33,141120,238
54,33,141120,238
57,40,141120,238
57,30,141360,238
49,30,141360,238
54,30,141360,238
60,36,141360,238
53,28,141600,238
49,28,141600,238
56,28,141600,238
61,33,141600,238
53,28,141840,238
49,28,141840,238
56,28,141840,238
61,33,141840,238
53,27,142080,238
49,27,142080,238
56,27,142080,238
61,32,142080,238
52,26,142320,238
58,26,142320,238
49,26,142320,238
55,26,142320,238
61,32,142320,238
55,26,142560,238
50,26,142560,238
59,26,142560,238
62,31,142560,238
55,25,142800,238
50,25,142800,238
59,25,142800,238
62,30,142800,238
50,24,143040,238
59,24,143040,238
55,24,143040,238
62,29,143040,238
55,24,143280,238
50,24,143280,238
59,24,143280,238
62,28,143280,238
55,26,143520,238
59,26,143520,238
62,31,143520,238
59,29,143760,238
55,29,143760,238
62,35,143760,238
55,33,144000,238
60,33,144000,238
64,39,144000,238
55,34,144240,238
60,34,144240,238
64,41,144240,238
60,30,144480,238
55,30,144480,238
64,36,144480,238
55,27,144720,238
59,27,144720,238
62,32,144720,238
50,24,144960,238
55,24,144960,238
59,24,144960,238
62,28,144960,238
50,24,145200,238
57,24,145200,238
54,24,145200,238
62,28,145200,238
54,25,145440,238
50,25,145440,238
57,25,145440,238
62,30,145440,238
54,24,145680,238
49,24,145680,238
57,24,145680,238
61,28,145680,238
54,24,145920,238
49,24,145920,238
57,24,145920,238
61,28,145920,238
53,24,146160,238
49,24,146160,238
56,24,146160,238
61,28,146160,238
49,26,146400,238
53,26,146400,238
56,26,146400,238
61,31,146400,238
49,29,146640,238
53,29,146640,238
56,29,146640,238
61,35,146640,238
53,34,146880,238
49,34,146880,238
56,34,146880,238
61,41,146880,238
53,36,147120,238
49,36,147120,238
56,36,147120,238
61,43,147120,238
54,31,147360,238
57,31,147360,238
61,37,147360,238
54,26,147600,238
57,26,147600,238
61,32,147600,238
61,32,147840,119
57,32,147840,119
49,25,147960,120
45,25,147960,120
57,30,147960,120
44,32,148080,120
49,32,148080,120
56,37,148080,120
42,34,148200,120
49,34,148200,120
54,41,148200,120
37,37,148320,119
49,44,148320,119
37,61,148440,240
29,39,148680,240
41,47,148680,240
30,39,148920,240
42,47,148920,240
32,39,149160,240
44,47,149160,240
33,41,149400,120
45,49,149400,120
35,44,149520,120
47,52,149520,120
36,46,149640,120
48,55,149640,120
37,42,149760,120
49,50,149760,120
36,36,149880,120
48,43,149880,120
37,41,150000,120
49,49,150000,120
36,36,150120,120
48,43,150120,120
37,39,150240,120
49,46,150240,120
36,35,150360,120
48,42,150360,120
37,40,150480,120
49,48,150480,120
53,36,150600,120
56,46,150720,120
53,36,150840,120
56,44,150960,120
59,36,151080,120
49,31,151200,120
53,31,151200,120
56,37,151200,120
59,44,151200,120
37,51,151320,240
49,61,151320,240
41,39,151560,240
53,47,151560,240
42,39,151800,240
54,47,151800,240
44,39,152040,240
56,47,152040,240
45,41,152280,120
57,49,152280,120
47,44,152400,120
59,52,152400,120
48,46,152520,240
60,55,152520,240
49,36,152760,120
61,43,152760,120
36,41,152880,120
48,49,152880,120
37,36,153000,120
49,43,153000,120
36,39,153120,120
48,46,153120,120
37,35,153240,120
49,42,153240,120
48,46,153360,120
36,39,153360,120
37,35,153480,120
49,42,153480,120
37,34,153600,120
46,30,153720,120
38,33,153840,120
47,30,153960,120
31,33,154080,120
43,28,154200,120
50,28,154320,120
43,28,154440,120
50,28,154560,120
43,28,154680,120
35,33,154800,120
43,28,154920,120
55,28,155040,120
43,28,155160,120
55,28,155280,120
43,28,155400,120
36,33,155520,120
43,29,155640,120
55,29,155760,120
43,29,155880,120
55,29,156000,120
43,29,156120,120
31,33,156240,120
43,28,156360,120
55,28,156480,120
43,28,156600,120
55,28,156720,60
43,24,156780,60
38,23,156840,120
42,28,156840,120
38,25,156960,120
42,30,156960,120
45,27,157080,120
37,22,157200,120
42,22,157200,120
45,27,157200,120
49,27,157320,120
37,22,157440,120
42,22,157440,120
45,27,157440,120
49,27,157560,120
37,28,157680,120
41,28,157680,120
44,33,157680,120
49,28,157800,120
37,23,157920,120
41,23,157920,120
44,28,157920,120
49,28,158040,120
42,28,158160,120
45,28,158160,120
49,28,158280,120
42,26,158400,120
45,31,158400,120
49,26,158520,120
35,22,158640,120
47,26,158640,120
50,26,158760,120
35,22,158880,120
43,26,158880,120
47,26,159000,118
35,26,159120,120
47,31,159120,120
47,24,159240,120
37,20,159360,120
49,24,159360,120
49,24,159480,120
37,24,159600,120
41,24,159720,120
30,29,159840,120
37,22,159960,120
42,26,159960,120
29,26,160080,120
37,21,160200,120
44,24,160200,120
29,23,160320,120
37,19,160440,120
44,22,160440,120
30,24,160560,120
37,19,160680,120
45,23,160680,120
37,18,160800,120
49,18,160920,120
42,15,160920,120
37,18,161040,120
49,18,161160,120
38,24,161520,120
50,29,161520,120
69,23,161760,120
66,19,161760,120
62,19,161760,120
57,19,161760,120
69,23,162000,120
66,19,162000,120
62,19,162000,120
57,19,162000,120
38,23,162240,120
50,28,162240,120
69,23,162480,120
66,19,162480,120
62,19,162480,120
57,19,162480,120
69,23,162720,120
66,19,162720,120
62,19,162720,120
57,19,162720,120
38,22,162960,120
50,27,162960,120
69,23,163200,120
66,19,163200,120
62,19,163200,120
57,19,163200,120
69,23,163440,120
66,19,163440,120
62,19,163440,120
57,19,163440,120
38,22,163680,120
50,26,163680,120
69,23,163920,120
66,19,163920,120
62,19,163920,120
57,19,163920,120
69,23,164160,120
64,19,164160,120
61,19,164160,120
57,19,164160,120
37,22,164400,120
49,27,164400,120
69,23,164640,120
64,19,164640,120
61,19,164640,120
57,19,164640,120
69,23,164880,120
64,19,164880,120
61,19,164880,120
57,19,164880,120
37,22,165120,120
49,26,165120,120
69,23,165360,120
64,19,165360,120
61,19,165360,120
57,19,165360,120
69,23,165600,120
64,19,165600,120
61,19,165600,120
57,19,165600,120
37,22,165840,120
49,27,165840,120
69,23,166080,120
64,19,166080,120
61,19,166080,120
57,19,166080,120
69,23,166320,120
64,19,166320,120
61,19,166320,120
57,19,166320,120
37,22,166560,120
49,26,166560,120
69,23,166800,120
64,19,166800,120
61,19,166800,120
57,19,166800,120
69,26,167040,120
66,21,167040,120
62,21,167040,120
57,21,167040,120
38,25,167280,120
50,31,167280,120
66,26,167520,120
62,21,167520,120
57,21,167520,120
54,21,167520,120
66,26,167760,120
62,21,167760,120
59,21,167760,120
54,21,167760,120
35,25,168000,120
47,29,168000,120
66,26,168240,120
62,21,168240,120
59,21,168240,120
54,21,168240,120
61,21,168480,120
66,26,168480,120
64,21,168480,120
58,21,168480,120
54,21,168480,120
34,25,168720,120
46,31,168720,120
55,21,168960,120
67,26,168960,120
64,21,168960,120
61,21,168960,120
58,21,168960,120
55,21,169200,120
67,26,169200,120
64,21,169200,120
61,21,169200,120
58,21,169200,120
34,25,169440,120
46,29,169440,120
55,21,169680,120
67,26,169680,120
64,21,169680,120
61,21,169680,120
58,21,169680,120
61,21,169920,120
67,26,169920,120
64,21,169920,120
58,21,169920,120
55,21,169920,120
34,25,170160,120
46,31,170160,120
55,21,170400,120
67,26,170400,120
64,21,170400,120
61,21,170400,120
58,21,170400,120
54,21,170640,120
66,26,170640,120
64,21,170640,120
61,21,170640,120
58,21,170640,120
34,25,170880,120
46,29,170880,120
66,26,171120,120
54,21,171120,120
64,21,171120,120
61,21,171120,120
58,21,171120,120
59,21,171360,120
66,26,171360,120
62,21,171360,120
54,21,171360,120
35,25,171600,120
47,31,171600,120
66,26,171840,120
62,21,171840,120
59,21,171840,120
54,21,171840,120
66,26,172080,120
64,21,172080,120
54,21,172080,120
58,21,172080,120
37,25,172320,120
49,29,172320,120
66,26,172560,120
64,21,172560,120
54,21,172560,120
58,21,172560,120
59,23,172800,120
66,28,172800,120
62,23,172800,120
54,23,172800,120
35,27,173040,120
47,34,173040,120
66,29,173280,120
62,23,173280,120
59,23,173280,120
54,23,173280,120
66,29,173520,120
64,24,173520,120
54,24,173520,120
58,24,173520,120
37,29,173760,120
49,33,173760,120
66,30,174000,120
64,24,174000,120
54,24,174000,120
58,24,174000,120
59,29,174240,120
66,36,174240,120
62,29,174240,120
54,29,174240,120
38,46,174480,120
50,58,174480,120
61,39,174720,120
54,31,174720,120
49,31,174720,120
59,39,174960,120
54,31,174960,120
47,31,174960,120
35,50,175200,120
47,62,175200,120
57,41,175440,120
45,33,175440,120
56,42,175680,120
44,33,175680,120
32,53,175920,120
44,67,175920,120
54,44,176160,120
42,36,176160,120
53,54,176400,120
41,43,176400,120
53,44,176520,120
65,55,176520,120
41,54,176640,120
53,66,176640,120
53,54,176760,120
65,68,176760,120
51,57,176880,120
39,46,176880,120
51,46,177000,120
63,57,177000,120
37,44,177120,240
49,44,177120,240
61,25,177360,480
65,25,177360,240
68,30,177360,240
66,24,177600,240
70,29,177600,360
67,25,177840,120
61,25,177840,720
70,30,177960,120
67,25,177960,120
70,25,178080,120
73,30,178080,120
68,24,178200,120
71,29,178200,120
67,24,178320,120
70,29,178320,120
68,24,178440,120
71,29,178440,120
66,27,178560,120
70,33,178560,120
61,27,178560,720
66,27,178680,120
69,33,178680,120
65,27,178800,600
68,33,178800,600
61,25,179280,720
68,30,179400,120
65,25,179400,120
68,25,179520,120
71,30,179520,120
66,24,179640,120
70,29,179640,120
65,24,179760,120
68,29,179760,120
66,24,179880,120
70,29,179880,120
64,28,180000,240
67,34,180000,240
61,28,180000,480
65,24,180240,240
68,29,180240,240
62,33,180480,240
65,33,180480,240
68,39,180480,240
68,35,180720,120
62,29,180720,240
65,31,180840,120
63,33,180960,240
68,39,180960,120
66,34,181080,120
60,34,181200,240
65,40,181200,120
66,35,181320,120
60,39,181440,240
66,46,181440,120
63,40,181560,120
59,38,181680,240
66,45,181680,120
65,40,181800,120
58,42,181920,240
66,50,181920,120
61,40,182040,120
56,42,182160,240
61,42,182160,240
66,50,182160,120
65,40,182280,120
54,44,182400,240
61,44,182400,240
66,52,182400,240
47,39,182640,240
59,47,182640,240
47,46,182880,240
59,55,182880,120
53,47,183000,120
46,45,183120,240
56,54,183120,120
54,49,183240,120
45,46,183360,240
53,55,183360,120
51,50,183480,120
48,57,183600,120
44,48,183600,240
49,52,183720,120
39,61,183840,120
37,51,183960,120
36,64,184080,120
37,58,184200,120
37,72,184320,120
56,32,184440,120
53,36,184560,120
59,31,184680,120
56,36,184800,120
62,28,184920,120
60,34,185040,120
61,30,185160,120
56,34,185280,120
63,29,185400,120
61,34,185520,120
59,30,185640,120
54,32,185760,1200
58,38,185760,120
63,33,185880,120
60,38,186000,120
61,34,186120,120
58,38,186240,120
63,33,186360,120
60,38,186480,120
61,33,186600,120
58,38,186720,120
63,34,186840,120
54,32,186960,240
58,38,186960,120
61,34,187080,120
53,32,187200,240
56,38,187200,120
61,33,187320,120
54,32,187440,240
58,38,187440,120
61,34,187560,120
56,34,187680,240
59,41,187680,120
61,36,187800,120
56,34,187920,240
59,40,187920,120
61,34,188040,120
54,32,188160,240
58,38,188160,120
61,32,188280,120
53,31,188400,240
56,37,188400,120
61,34,188520,120
54,32,188640,1200
58,38,188640,120
63,33,188760,120
60,38,188880,120
61,34,189000,120
58,38,189120,120
63,33,189240,120
60,38,189360,120
61,33,189480,120
58,38,189600,120
63,28,189720,120
54,27,189840,240
58,32,189840,120
61,28,189960,120
53,32,190080,240
56,38,190080,120
61,33,190200,120
54,32,190320,240
58,38,190320,120
61,34,190440,120
56,34,190560,240
59,41,190560,120
61,36,190680,120
56,34,190800,240
59,40,190800,120
61,34,190920,120
54,32,191040,240
58,38,191040,120
61,32,191160,120
53,26,191280,240
56,31,191280,120
61,28,191400,120
54,32,191520,1200
58,38,191520,81
63,33,191601,80
61,33,191680,80
60,38,191760,81
63,34,191840,80
61,34,191920,60
58,38,192000,81
63,33,192081,80
61,33,192160,60
60,38,192240,81
63,33,192320,80
61,33,192400,60
58,38,192480,81
63,34,192561,80
61,34,192640,60
54,32,192720,240
58,38,192720,81
62,34,192800,80
61,34,192880,60
53,32,192960,240
56,38,192960,81
63,33,193040,80
61,33,193120,60
54,32,193200,240
58,38,193200,81
63,34,193280,80
61,34,193360,60
56,34,193440,240
59,41,193440,81
63,36,193520,80
61,36,193600,60
56,34,193680,240
59,40,193680,81
63,34,193760,80
61,34,193840,60
54,32,193920,240
58,38,193920,81
63,32,194000,80
61,32,194080,60
53,31,194160,240
56,37,194160,81
63,34,194240,80
61,34,194320,60
54,32,194400,1200
58,38,194400,81
63,33,194481,80
61,33,194560,80
60,39,194640,81
63,34,194720,80
61,35,194800,60
58,39,194880,81
63,34,194961,80
61,35,195040,60
60,41,195120,81
63,35,195200,80
61,36,195280,60
58,42,195360,81
63,38,195441,80
61,34,195520,60
54,32,195600,240
58,38,195600,81
62,34,195680,80
61,34,195760,60
53,39,195840,240
56,47,195840,81
63,41,195920,80
61,41,196000,60
54,40,196080,240
58,49,196080,81
63,44,196160,80
61,46,196240,60
56,47,196320,240
59,57,196320,81
63,51,196400,80
61,53,196480,60
56,50,196560,240
59,60,196560,81
63,51,196640,80
61,51,196720,60
54,49,196800,240
58,58,196800,81
63,49,196880,80
61,50,196960,60
53,49,197040,240
56,58,197040,81
61,53,197120,80
59,40,197200,60
58,40,197280,80
54,50,197280,720
61,36,197360,80
59,36,197440,80
58,40,197520,80
59,38,197600,80
61,38,197680,80
63,40,197760,80
65,37,197840,80
66,37,197920,80
68,40,198000,320
56,50,198000,720
66,36,198320,80
65,36,198400,80
63,40,198480,80
61,35,198560,80
59,35,198640,80
65,40,198720,80
58,50,198720,720
66,36,198800,80
65,37,198880,80
61,42,198960,80
63,40,199040,80
64,41,199120,80
66,44,199200,80
68,41,199280,80
70,41,199360,80
71,46,199440,240
59,57,199440,720
71,48,199680,80
70,43,199760,80
68,44,199840,80
66,50,199920,80
65,44,200000,80
63,44,200080,80
61,65,200160,480
65,47,200240,80
66,47,200320,80
68,54,200400,80
70,51,200480,80
71,52,200560,80
63,70,200640,240
70,56,200640,80
68,52,200720,80
66,52,200800,80
65,72,200880,480
68,52,200960,80
70,53,201040,80
71,60,201120,80
73,57,201200,80
75,58,201280,80
66,77,201360,240
73,62,201360,80
71,57,201440,80
70,58,201520,80
76,58,201600,80
68,72,201600,240
73,52,201680,80
75,53,201760,80
70,61,201840,240
76,51,201840,80
58,48,201920,160
66,48,201920,80
67,49,202000,80
59,65,202080,240
66,52,202080,80
64,48,202160,80
63,52,202240,80
63,48,202320,80
60,52,202320,480
65,47,202400,80
66,39,202480,80
69,45,202560,80
68,38,202640,80
66,37,202720,80
61,43,202800,80
59,38,202800,240
65,36,202880,80
68,35,202960,80
70,39,203040,720
73,46,203040,720
67,32,203760,480
70,38,203760,480
63,26,204240,240
67,31,204240,240
70,41,204480,120
67,37,204600,120
56,36,204720,240
68,46,204720,120
63,37,204840,120
47,49,204960,240
61,49,204960,120
59,47,205080,120
49,45,205200,240
58,54,205200,240
37,36,205440,120
46,43,205440,120
37,33,205560,180
49,46,205560,180
35,45,205740,60
47,53,205740,60
34,46,205800,60
46,55,205800,60
35,48,205860,60
47,57,205860,60
34,52,205920,60
37,44,205980,60
40,43,206040,60
43,42,206100,60
46,41,206160,60
49,40,206220,60
52,39,206280,60
55,38,206340,60
58,36,206400,60
61,36,206400,60
64,27,206460,60
59,27,206520,60
63,27,206580,60
47,22,206640,480
59,26,206640,480
37,39,207360,80
42,34,207440,80
46,34,207520,80
49,31,207600,80
54,31,207680,80
58,31,207760,80
49,39,207840,120
54,38,207840,60
58,34,207900,60
51,28,207960,120
54,34,207960,60
57,34,208020,60
50,32,208080,240
53,32,208080,240
56,32,208080,240
59,38,208080,240
50,25,208320,360
53,25,208320,360
56,25,208320,360
59,30,208320,360
51,22,208680,120
55,22,208680,120
58,27,208680,120
51,25,208800,475
55,25,208800,475
58,30,208800,475
51,22,209280,238
55,22,209280,238
58,22,209280,238
63,27,209280,238
51,25,209520,475
55,25,209520,475
58,25,209520,475
63,30,209520,475
51,22,210000,238
55,22,210000,238
58,22,210000,238
63,27,210000,238
39,25,210240,240
51,30,210240,240
34,25,210480,480
46,30,210480,480
35,25,210960,240
47,30,210960,240
37,21,211200,480
49,25,211200,480
30,20,211680,480
42,24,211680,480
58,22,212160,240
49,24,212400,480
61,21,212880,240
58,24,213120,480
37,28,213600,480
49,34,213600,480
39,27,214080,120
51,40,214080,120
37,27,214200,120
49,40,214200,120
51,29,214320,120
49,29,214320,120
39,29,214320,120
41,29,214440,120
49,29,214440,120
53,29,214440,120
49,30,214560,480
42,30,214560,480
54,36,214560,480
70,33,215040,240
61,37,215280,480
34,28,215760,240
46,34,215760,240
37,34,216000,240
49,40,216000,240
49,28,216240,240
61,34,216240,240
46,30,216480,240
49,30,216480,240
58,36,216480,240
44,36,216720,480
49,36,216720,480
56,43,216720,480
37,34,217200,240
49,40,217200,240
42,36,217440,720
49,36,217440,720
54,43,217440,720
37,28,218160,720
49,33,218160,720
30,22,218880,480
42,26,218880,480
42,22,219360,238
54,26,219360,238
42,25,219600,480
54,29,219600,480
42,36,220080,180
54,43,220080,180
40,31,220260,60
52,36,220260,60
38,28,220320,720
50,33,220320,720
42,25,221040,720
54,30,221040,720
47,26,221760,480
59,31,221760,480
47,26,222720,240
59,31,222720,240
43,22,222960,120
55,26,222960,120
38,22,223080,117
50,26,223080,117
38,26,223200,480
50,31,223200,480
35,22,223680,238
47,26,223680,238
35,26,223920,240
47,31,223920,240
31,22,224160,240
43,27,224160,240
33,22,224400,240
45,27,224400,240
35,46,224640,240
47,55,224640,240
47,49,224880,240
55,58,224880,240
48,52,225120,240
57,62,225120,240
50,54,225360,240
59,65,225360,240
59,45,225600,240
55,38,225600,240
50,33,225840,120
60,39,225840,120
57,33,225840,120
59,34,225960,120
55,28,225960,120
55,36,226080,1200
59,42,226080,81
64,37,226161,80
62,37,226240,80
61,42,226320,81
64,38,226400,80
62,38,226480,60
59,42,226560,81
64,37,226641,80
62,37,226720,60
61,42,226800,81
64,37,226880,80
62,37,226960,60
59,42,227040,81
64,38,227121,80
62,38,227200,60
55,36,227280,240
59,42,227280,81
63,38,227360,80
62,38,227440,60
54,36,227520,240
57,42,227520,81
64,37,227600,80
62,37,227680,60
55,36,227760,240
59,42,227760,81
64,38,227840,80
62,38,227920,60
57,38,228000,240
60,46,228000,81
64,40,228080,80
62,40,228160,60
57,38,228240,240
60,45,228240,81
64,38,228320,80
62,38,228400,60
55,36,228480,240
59,42,228480,81
64,36,228560,80
62,36,228640,60
54,35,228720,240
58,41,228720,80
64,38,228800,80
62,38,228880,60
55,36,228960,1200
59,42,228960,81
64,37,229041,80
62,37,229120,80
61,43,229200,81
64,38,229280,80
62,39,229360,60
59,44,229440,81
64,38,229521,80
62,39,229600,60
61,46,229680,81
64,39,229760,80
62,40,229840,60
59,47,229920,81
64,42,230001,80
62,42,230080,60
55,40,230160,240
59,48,230160,81
63,43,230240,80
62,43,230320,60
54,41,230400,240
57,50,230400,81
64,43,230480,80
62,43,230560,60
55,42,230640,240
59,51,230640,81
64,45,230720,80
62,46,230800,60
57,47,230880,240
60,57,230880,81
64,50,230960,80
62,51,231040,60
57,47,231120,240
60,57,231120,81
64,48,231200,80
62,48,231280,60
55,46,231360,240
59,55,231360,81
64,46,231440,80
62,47,231520,60
54,46,231600,240
58,55,231600,80
64,50,231680,80
62,38,231760,60
54,45,231840,240
58,55,231840,80
64,50,231920,80
62,51,232000,60
55,50,232080,240
59,60,232080,81
64,54,232160,80
62,55,232240,60
56,57,232320,240
59,69,232320,81
64,61,232400,80
62,63,232480,60
56,59,232560,240
59,70,232560,80
64,60,232640,80
62,61,232720,60
56,54,232800,240
59,60,232800,81
65,54,232880,80
62,55,232960,60
56,53,233040,240
59,63,233040,81
65,57,233120,80
62,57,233200,60
57,55,233280,240
62,67,233280,80
66,58,233360,80
64,59,233440,60
58,58,233520,240
62,70,233520,81
66,62,233600,80
64,64,233680,60
59,66,233760,240
62,79,233760,81
66,71,233840,80
64,72,233920,60
59,68,234000,240
62,81,234000,80
66,69,234080,80
64,70,234160,60
59,62,234240,240
62,69,234240,81
66,63,234320,80
64,63,234400,60
59,61,234480,240
62,72,234480,81
65,65,234560,80
66,66,234640,60
59,63,234720,240
62,76,234720,80
67,66,234800,80
66,67,234880,60
60,66,234960,240
63,79,234960,80
68,71,235040,80
66,73,235120,60
60,71,235200,240
63,84,235200,80
69,72,235280,80
66,72,235360,60
48,73,235440,240
51,86,235440,80
57,74,235520,80
54,74,235600,60
60,69,235680,240
63,82,235680,80
69,73,235760,80
66,73,235840,60
48,71,235920,240
51,84,235920,80
57,76,236000,80
54,76,236080,60
60,81,236160,36
69,74,236220,60
66,74,236280,60
63,62,236280,60
69,74,236340,60
48,81,236400,36
57,75,236460,60
51,63,236520,60
54,75,236520,60
57,75,236580,60
60,81,236640,36
69,74,236700,60
66,74,236760,60
63,62,236760,60
69,74,236820,60
48,81,236880,24
57,73,236920,40
51,73,236960,40
54,73,236961,40
57,73,237001,40
51,62,237040,40
54,73,237040,40
57,73,237080,40
60,81,237120,24
69,73,237160,40
63,73,237200,40
66,73,237201,40
69,73,237241,40
63,62,237280,40
66,73,237280,40
69,73,237320,40
48,81,237360,24
57,74,237400,40
51,74,237440,40
54,74,237441,40
57,74,237481,40
51,62,237520,40
54,74,237520,40
57,74,237560,40
61,38,237600,480
57,33,238080,238
57,35,238320,240
54,31,238560,240
49,26,238800,240
56,31,238800,240
42,28,239040,480
54,34,239040,480
42,35,239520,240
54,41,239520,240
35,36,239760,480
47,43,239760,480
35,41,240240,240
47,49,240240,240
32,47,240480,480
44,58,240480,480
33,40,240960,238
45,47,240960,238
33,46,241200,240
45,57,241200,240
35,43,241440,240
47,51,241440,240
48,51,241680,240
36,42,241680,240
36,34,241920,240
48,42,241920,240
37,38,242160,360
49,45,242160,360
36,34,242520,120
48,40,242520,120
37,39,242640,240
49,48,242640,240
37,38,242880,240
49,45,242880,240
50,48,243120,240
38,40,243120,240
43,43,243360,720
31,32,243360,720
38,32,243360,720
43,30,244080,720
35,30,244080,720
50,36,244080,720
36,33,244800,720
52,39,244800,720
43,33,244800,720
35,29,245520,240
43,29,245520,240
50,35,245520,240
43,46,245760,360
38,32,246000,240
42,38,246120,119
38,29,246240,240
42,35,246240,240
37,29,246480,240
45,31,246480,240
37,26,246720,238
49,31,246720,238
37,29,246960,480
49,35,246960,480
42,27,247440,238
49,32,247440,238
42,29,247680,240
49,35,247680,249
35,27,247920,720
50,32,247920,240
43,32,248160,240
47,35,248400,240
37,35,248640,240
37,33,248880,240
41,33,248880,120
42,30,249000,120
37,29,249120,240
42,35,249120,240
30,23,249360,240
42,28,249360,240
34,23,249600,240
46,28,249600,240
37,29,249840,240
49,35,249840,240
30,23,250080,240
42,28,250080,240
34,23,250320,240
46,28,250320,240
35,26,250560,240
47,31,250560,240
30,22,250800,240
42,27,250800,240
35,22,251040,240
47,27,251040,240
38,26,251280,240
50,31,251280,240
30,21,251520,240
42,25,251520,240
35,21,251760,240
47,25,251760,240
37,24,252000,240
49,29,252000,240
30,19,252240,240
42,23,252240,240
34,20,252480,240
46,24,252480,240
37,26,252720,240
49,32,252720,240
30,22,252960,240
42,26,252960,240
34,22,253200,240
46,27,253200,240
35,30,253440,240
47,36,253440,240
30,24,253680,240
42,29,253680,240
35,22,253920,240
47,27,253920,240
38,29,254160,80
50,35,254160,80
30,33,254240,80
35,35,254320,80
38,42,254400,80
42,40,254480,80
47,38,254560,80
50,35,254640,80
42,33,254720,80
50,31,254800,80
42,27,254880,80
49,20,254960,80
42,20,255040,80
54,27,255120,80
49,22,255200,80
54,22,255280,80
42,27,255360,80
49,23,255440,80
42,23,255520,80
54,27,255600,80
49,23,255680,80
54,23,255760,80
49,27,255840,80
42,21,255920,80
49,21,256000,80
54,27,256080,80
49,22,256160,80
54,22,256240,80
37,27,256320,80
42,23,256400,80
37,23,256480,80
49,27,256560,80
42,23,256640,80
49,23,256720,80
37,26,256800,80
42,22,256880,80
37,22,256960,80
49,27,257040,80
42,23,257120,80
49,23,257200,80
37,27,257280,80
42,23,257360,80
37,23,257440,80
49,27,257520,80
42,24,257600,80
49,24,257680,80
42,27,257760,80
37,23,257840,80
42,23,257920,80
30,27,258000,80
37,23,258080,80
30,23,258160,80
42,27,258240,80
37,24,258320,80
42,24,258400,80
30,27,258480,80
37,24,258560,80
30,24,258640,80
42,27,258720,80
37,23,258800,80
42,23,258880,80
37,27,258960,80
42,24,259040,80
37,24,259120,80
49,30,259200,240
61,26,259440,240
57,26,259680,238
57,28,259920,240
54,24,260160,240
53,20,260400,240
49,20,260400,240
56,24,260400,240
57,33,260640,240
54,27,260640,240
42,28,260880,720
54,32,260880,720
35,28,261600,240
47,34,261600,240
30,32,261840,240
42,39,261840,240
35,42,262080,240
29,28,262320,475
41,34,262320,475
29,28,262800,475
41,34,262800,475
41,30,263280,120
29,25,263280,120
30,26,263400,117
42,31,263400,117
30,28,263520,720
42,34,263520,720
42,24,264240,1440
49,24,264240,1440
58,29,264240,1440
30,19,265680,1440
37,19,265680,1440
46,23,265680,1440
30,19,267120,720
37,19,267120,720
46,23,267120,720
30,16,267840,480
37,18,267900,420
46,20,267960,360
