note,velocity,position,duration
74,88,1320,120
77,88,1320,120
82,88,1320,120
86,105,1320,120
77,79,1440,180
82,79,1440,180
74,79,1440,180
86,94,1440,180
74,80,1680,45
87,100,1680,45
77,80,1680,45
82,80,1680,45
86,97,1800,45
74,82,1800,45
82,82,1800,45
77,82,1800,45
77,88,1920,120
74,88,1920,120
82,88,1920,120
86,105,1920,120
74,80,2160,120
70,80,2160,120
77,80,2160,120
82,96,2160,120
82,88,3240,120
86,88,3240,120
77,88,3240,120
89,105,3240,120
77,79,3360,180
82,79,3360,180
86,79,3360,180
89,94,3360,180
82,80,3600,45
86,80,3600,45
91,100,3600,45
77,80,3600,45
77,82,3720,45
82,82,3720,45
89,97,3720,45
86,82,3720,45
89,105,3840,120
77,88,3840,120
82,88,3840,120
86,88,3840,120
74,80,4080,120
77,80,4080,120
82,80,4080,120
86,96,4080,120
70,50,4560,120
72,45,4680,120
74,50,4800,480
67,39,5040,240
69,33,5280,240
72,39,5280,240
68,42,5520,240
72,50,5520,120
74,46,5640,120
75,55,5760,480
67,46,5760,240
69,45,6000,240
70,38,6240,240
74,45,6240,240
67,39,6480,240
74,47,6480,120
75,50,6600,120
65,45,6720,240
77,54,6720,360
70,45,6960,240
79,52,7080,120
67,42,7200,240
77,50,7200,120
75,43,7320,240
69,43,7440,240
77,45,7560,120
70,35,7680,240
65,35,7680,240
75,49,7680,120
74,41,7800,120
72,30,7920,240
77,43,7920,120
67,30,7920,240
75,37,8040,120
69,30,8160,240
72,35,8160,240
82,50,8400,120
84,45,8520,120
86,50,8640,480
79,39,8880,240
81,33,9120,240
84,39,9120,240
84,50,9360,120
80,42,9360,240
86,46,9480,120
79,46,9600,240
87,55,9600,480
81,45,9840,240
86,45,10080,240
82,38,10080,240
79,39,10320,240
86,51,10320,120
87,55,10440,120
89,59,10560,360
77,45,10560,240
82,45,10800,240
91,57,10920,120
89,55,11040,120
79,42,11040,240
87,47,11160,240
81,43,11280,240
89,50,11400,120
87,57,11520,120
77,44,11520,240
86,49,11640,240
82,46,11760,480
87,53,11880,120
86,60,12000,120
84,49,12120,120
86,55,12240,120
81,47,12240,240
77,47,12240,240
87,51,12360,120
77,52,12480,240
91,67,12480,120
82,52,12480,240
89,53,12600,120
91,58,12720,120
82,41,12720,240
89,59,12840,120
89,69,12960,120
79,53,12960,240
87,55,13080,120
81,43,13200,240
89,61,13200,120
87,56,13320,120
87,74,13440,120
77,57,13440,240
86,57,13560,120
87,63,13680,120
82,45,13680,480
86,58,13800,117
86,75,13920,120
84,61,14040,120
86,67,14160,120
77,47,14160,240
81,47,14160,240
87,70,14280,120
91,69,14400,120
77,58,14400,240
82,58,14400,240
89,70,14520,120
82,60,14640,240
88,76,14640,240
91,72,14760,240
87,67,14880,240
92,74,15000,240
84,64,15120,240
87,76,15120,240
93,77,15240,120
82,73,15360,240
96,86,15360,120
86,73,15360,240
94,72,15480,120
82,71,15600,240
93,84,15600,120
87,71,15600,240
91,74,15720,120
89,86,15840,120
86,72,15840,120
82,72,15840,120
89,80,16080,120
93,80,16080,120
84,67,16080,120
81,67,16080,120
82,85,16320,480
89,85,16320,480
86,85,16320,480
94,101,16320,480
70,63,16800,480
82,75,16800,480
74,63,16800,480
77,50,17280,60
86,59,17280,60
74,50,17280,60
82,61,17520,60
74,51,17520,60
70,51,17520,60
74,51,17760,60
77,51,17760,60
86,61,17760,60
72,51,18000,60
75,51,18000,60
84,61,18000,60
87,116,18240,480
79,97,18240,480
75,97,18240,480
84,75,18720,480
75,63,18720,480
72,63,18720,480
87,59,19200,60
75,50,19200,60
79,50,19200,60
73,51,19440,60
76,51,19440,60
85,61,19440,60
78,51,19680,60
87,61,19680,60
75,51,19680,60
77,51,19920,60
74,51,19920,60
86,61,19920,60
89,111,20160,480
80,93,20160,480
77,93,20160,480
86,75,20640,480
74,63,20640,480
77,63,20640,480
80,50,21120,60
77,50,21120,60
89,59,21120,60
74,51,21360,60
78,51,21360,60
86,61,21360,60
80,51,21600,60
89,61,21600,60
77,51,21600,60
79,51,21840,60
75,51,21840,60
87,61,21840,60
91,111,22080,480
79,93,22080,480
82,93,22080,480
87,75,22560,480
79,63,22560,480
75,63,22560,480
82,63,22560,480
79,50,23040,60
91,59,23040,60
82,50,23040,60
76,51,23280,60
82,51,23280,60
88,61,23280,60
82,56,23520,60
78,56,23520,60
90,67,23520,60
89,69,23760,60
82,58,23760,60
77,58,23760,60
92,69,24000,60
82,59,24000,60
80,59,24000,60
78,62,24240,60
90,74,24240,60
82,62,24240,60
92,76,24480,60
82,64,24480,60
80,64,24480,60
82,66,24720,60
91,79,24720,60
79,66,24720,60
82,67,24960,60
87,67,24960,60
94,79,24960,60
91,67,24960,60
80,70,25200,60
92,84,25200,60
82,72,25440,60
94,86,25440,60
93,89,25680,60
81,74,25680,60
84,84,25920,120
96,99,25920,120
82,74,26160,120
94,88,26160,120
79,82,26400,120
91,97,26400,120
89,90,26640,120
77,76,26640,120
87,97,26880,120
75,85,26880,120
86,82,27120,120
74,69,27120,120
84,87,27360,120
72,73,27360,120
70,68,27600,120
82,81,27600,120
67,75,27840,120
79,89,27840,120
65,66,28080,120
77,79,28080,120
75,82,28320,120
63,69,28320,120
62,64,28560,120
74,76,28560,120
72,80,28800,120
60,67,28800,120
70,71,29040,120
58,59,29040,120
67,78,29280,120
55,65,29280,120
65,72,29520,120
53,61,29520,120
69,77,29760,240
65,67,30000,240
72,73,30240,240
65,67,30480,240
77,71,30720,240
65,59,30960,240
81,68,31200,240
65,56,31440,240
84,62,31680,240
65,49,31920,240
89,54,32160,240
65,45,32400,240
89,52,32640,240
65,41,32880,240
89,48,33120,240
82,77,33960,120
86,92,33960,120
74,77,33960,120
77,77,33960,120
74,69,34080,240
77,69,34080,240
86,82,34080,240
82,69,34080,240
74,70,34320,45
82,70,34320,45
77,70,34320,45
87,89,34320,45
77,72,34440,45
74,72,34440,45
86,85,34440,45
82,72,34440,45
86,92,34560,120
82,77,34560,120
77,77,34560,120
74,77,34560,120
70,70,34800,120
82,84,34800,120
77,70,34800,120
74,70,34800,120
82,77,35880,120
77,77,35880,120
86,92,35880,120
74,77,35887,120
74,82,36000,7
86,99,36000,240
78,70,36240,45
74,70,36240,45
81,70,36240,45
86,84,36240,45
86,85,36360,45
78,70,36360,45
74,72,36360,45
81,72,36360,45
81,77,36480,120
74,77,36480,120
86,92,36480,120
78,77,36480,120
81,70,36720,120
78,70,36720,120
74,70,36720,120
86,84,36720,120
66,33,37680,120
74,39,37680,120
69,33,37680,120
74,42,38160,120
69,35,38160,120
66,35,38160,120
69,37,38640,120
74,44,38640,120
66,37,38640,120
66,39,39120,120
69,39,39120,120
74,46,39120,120
74,41,39600,120
72,41,39600,120
78,49,39600,120
69,41,39600,120
69,43,40080,120
74,43,40080,120
78,51,40080,120
72,43,40080,120
81,60,40560,120
78,50,40560,120
72,50,40560,120
69,50,40560,120
84,68,41040,120
78,57,41040,120
72,57,41040,120
81,57,41040,120
78,64,41520,120
84,64,41520,120
90,75,41520,120
81,64,41520,120
93,79,42000,120
84,66,42000,120
81,66,42000,120
84,69,42480,120
93,69,42480,120
96,82,42480,120
96,85,42960,120
90,71,42960,120
84,71,42960,120
93,71,42960,120
93,71,43200,120
96,85,43200,120
84,71,43200,120
90,71,43200,120
84,57,43440,120
81,57,43440,120
83,57,43560,120
80,57,43560,120
84,63,43680,240
81,63,43680,240
66,52,43920,120
69,52,43920,120
70,52,44040,120
67,52,44040,120
69,58,44160,240
66,58,44160,240
81,47,44400,120
84,47,44400,120
83,47,44520,120
80,47,44520,120
84,56,44640,240
81,56,44640,240
90,47,44880,120
93,47,45000,120
96,57,45120,120
98,48,45240,120
96,49,45360,120
95,50,45480,120
96,65,45600,120
98,57,45720,120
100,66,45840,120
96,58,45960,120
93,69,46080,120
95,56,46200,120
96,66,46320,120
93,54,46440,120
90,66,46560,120
91,53,46680,120
93,61,46800,120
90,53,46920,120
84,47,47040,120
86,47,47160,120
88,58,47280,120
84,47,47400,120
81,47,47520,120
83,47,47640,120
84,53,47760,120
81,47,47880,120
78,47,48000,120
79,47,48120,120
81,52,48240,120
78,47,48360,120
74,47,48480,240
72,47,48480,240
69,47,48480,240
95,57,48960,120
96,48,49080,120
95,49,49200,120
93,50,49320,120
95,65,49440,120
96,57,49560,120
98,66,49680,120
95,58,49800,120
91,69,49920,120
93,56,50040,120
95,66,50160,120
91,54,50280,120
86,66,50400,120
90,53,50520,120
91,61,50640,120
86,53,50760,120
83,47,50880,120
84,47,51000,120
86,58,51120,120
83,47,51240,120
79,47,51360,120
81,47,51480,120
83,53,51600,120
79,47,51720,120
74,47,51840,120
78,47,51960,120
79,52,52080,120
71,47,52200,118
67,40,52320,120
69,40,52440,120
71,45,52560,118
67,40,52680,120
62,40,52800,240
69,46,52800,240
66,40,52800,240
88,52,53040,120
86,47,53160,120
88,40,53280,120
86,40,53400,120
84,45,53520,120
88,40,53640,120
84,52,53760,120
83,42,53880,120
81,49,54000,120
84,43,54120,120
81,48,54240,120
79,40,54360,120
78,45,54480,120
81,40,54600,120
76,52,54720,120
74,42,54840,120
72,49,54960,120
76,43,55080,120
72,48,55200,120
71,40,55320,120
69,45,55440,120
72,40,55560,120
69,52,55680,120
67,42,55800,120
66,49,55920,120
69,43,56040,120
72,48,56160,120
71,40,56280,120
69,45,56400,120
72,40,56520,120
62,40,56640,240
67,46,56640,240
98,52,56880,120
96,47,57000,120
98,40,57120,120
96,40,57240,120
95,45,57360,120
98,40,57480,120
95,52,57600,120
93,42,57720,120
91,49,57840,120
95,43,57960,120
83,48,58080,120
81,40,58200,120
79,45,58320,120
83,40,58440,120
74,52,58560,120
72,42,58680,120
71,49,58800,120
74,43,58920,120
83,48,59040,120
81,40,59160,120
79,45,59280,120
83,40,59400,120
86,62,59520,120
84,51,59640,120
83,61,59760,120
84,52,59880,120
88,62,60000,240
90,51,60240,240
81,51,60240,240
86,51,60240,240
91,51,60480,240
79,51,60480,240
86,51,60480,240
69,40,61680,240
66,34,61680,240
67,32,61920,120
71,38,61920,120
91,47,62160,120
83,39,62160,120
90,44,62280,120
81,37,62280,120
91,47,62400,240
83,39,62400,240
83,33,62640,240
79,33,62640,240
88,39,62640,240
86,42,62880,240
81,35,62880,240
78,35,62880,240
85,40,63120,240
79,30,63120,240
76,30,63120,240
79,38,63360,240
88,45,63360,240
78,30,63600,238
86,36,63600,238
86,36,63840,240
78,30,63840,240
79,38,64080,120
86,45,64080,120
84,40,64200,120
81,34,64200,120
83,46,64320,240
79,43,64560,360
91,51,64560,120
88,46,64800,120
96,51,65040,120
84,43,65040,120
93,44,65160,120
88,37,65160,120
90,51,65280,240
86,47,65520,360
98,56,65520,240
95,53,65760,120
91,52,66000,120
90,45,66120,120
91,52,66240,240
88,47,66480,240
84,51,66720,240
78,37,66960,240
83,44,66960,240
83,44,67200,720
78,44,67200,240
81,50,67440,120
79,44,67560,118
79,49,67680,240
88,55,67920,240
79,46,67920,480
82,46,67920,240
81,44,68160,720
79,50,68400,120
77,44,68520,120
77,49,68640,240
77,55,68880,480
80,55,68880,240
86,55,68880,240
79,44,69120,720
77,50,69360,120
76,44,69480,118
76,49,69600,240
85,55,69840,240
76,46,69840,480
79,46,69840,240
78,44,70080,720
76,50,70320,120
75,44,70440,120
74,49,70560,240
77,46,70800,240
74,46,70800,240
83,55,70800,240
74,46,71040,240
77,55,71040,120
76,46,71160,240
73,46,71280,240
81,48,71400,120
72,46,71520,240
75,55,71520,120
74,47,71640,240
71,46,71760,240
79,49,71880,120
74,56,72000,120
86,44,72120,120
85,45,72240,120
84,46,72360,120
81,47,72480,120
78,47,72600,120
75,48,72720,120
74,49,72840,120
73,50,72960,120
72,51,73080,120
69,52,73200,120
66,53,73320,120
63,61,73440,120
67,51,73440,240
62,47,73560,120
76,58,73680,120
67,49,73680,240
74,47,73800,120
74,56,73920,120
86,44,74040,120
85,45,74160,120
84,46,74280,120
81,47,74400,120
78,47,74520,120
75,48,74640,120
74,49,74760,120
73,50,74880,120
72,51,75000,120
69,52,75120,120
66,53,75240,120
67,51,75360,240
63,61,75360,120
62,47,75480,120
76,58,75600,120
67,49,75600,240
74,47,75720,120
74,52,75840,120
71,45,75960,120
79,54,75960,120
83,58,76080,120
74,49,76080,120
72,44,76200,120
81,52,76200,120
71,58,76320,120
79,58,76320,960
75,50,76440,120
76,55,76560,120
71,50,76680,120
70,54,76800,120
75,58,76920,120
76,58,77040,120
70,53,77160,120
69,56,77280,120
73,50,77400,120
74,60,77520,120
86,54,77640,120
86,61,77760,120
98,48,77880,120
97,49,78000,120
96,50,78120,120
93,51,78240,120
90,51,78360,120
87,52,78480,120
86,53,78600,120
85,55,78720,120
84,60,78840,120
81,64,78960,120
78,67,79080,120
75,72,79200,120
79,60,79200,240
74,51,79320,120
79,53,79440,240
88,63,79440,120
86,51,79560,120
86,61,79680,120
98,48,79800,120
97,49,79920,120
96,50,80040,120
93,51,80160,120
90,51,80280,120
87,52,80400,120
86,53,80520,120
85,57,80640,120
84,59,80760,120
81,61,80880,120
78,63,81000,120
79,54,81120,240
75,67,81120,120
74,51,81240,120
79,53,81360,240
88,63,81360,120
86,51,81480,120
86,56,81600,120
79,54,81720,120
71,45,81720,120
74,49,81840,120
83,58,81840,120
81,52,81960,120
72,44,81960,120
71,58,82080,120
79,58,82080,960
75,50,82200,120
76,55,82320,120
71,50,82440,120
70,54,82560,120
75,58,82680,120
76,58,82800,120
70,53,82920,120
69,56,83040,120
78,54,83040,240
74,50,83160,120
79,54,83280,240
67,60,83280,120
72,50,83400,120
79,54,83520,120
76,47,83640,120
84,57,83640,120
88,62,83760,120
79,52,83760,120
77,47,83880,120
86,56,83880,120
76,63,84000,120
84,63,84000,960
80,55,84120,120
81,61,84240,120
75,56,84360,120
75,61,84480,120
80,66,84600,120
81,66,84720,120
75,62,84840,120
74,66,84960,120
83,63,84960,240
79,59,85080,120
84,64,85200,240
72,72,85200,120
77,60,85320,120
84,63,85440,120
81,55,85560,120
89,66,85560,120
84,60,85680,120
93,71,85680,120
82,55,85800,120
91,65,85800,120
89,73,85920,960
80,73,85920,120
77,63,86040,120
80,70,86160,120
79,65,86280,120
80,70,86400,120
85,71,86520,120
86,77,86640,120
80,71,86760,120
79,75,86880,120
88,78,86880,720
83,68,87000,120
84,82,87120,120
79,69,87240,120
84,74,87360,240
76,79,87600,240
88,93,87600,240
84,79,87600,240
79,79,87600,240
83,74,87840,240
86,88,87840,240
84,74,88080,120
88,86,88080,120
89,92,88200,120
86,78,88200,120
88,81,88320,120
91,96,88320,120
84,77,88560,120
88,91,88560,120
79,79,89520,240
76,79,89520,240
88,93,89520,240
84,79,89520,240
86,88,89760,240
83,74,89760,240
88,86,90000,120
84,74,90000,120
86,78,90120,120
89,92,90120,120
88,81,90240,120
91,96,90240,120
88,86,90480,240
79,86,90480,240
81,86,90480,240
91,103,90480,240
88,86,90960,240
85,86,90960,240
91,103,90960,240
79,86,90960,240
91,103,91440,240
86,86,91440,240
83,86,91440,240
79,86,91440,240
79,86,91920,240
91,103,91920,240
85,86,91920,240
81,86,91920,240
91,77,92160,480
83,65,92160,480
86,65,92160,480
79,65,92160,480
79,54,92640,720
86,64,92640,720
83,54,92640,720
74,53,93360,240
83,63,93360,240
79,53,93360,240
74,56,93600,120
78,57,93720,120
79,58,93840,120
83,59,93960,120
85,60,94080,120
86,61,94200,120
88,62,94320,120
86,62,94440,120
90,63,94560,120
91,64,94680,120
93,65,94800,120
91,66,94920,120
94,67,95040,120
95,68,95160,120
96,69,95280,120
95,70,95400,120
98,71,95520,240
84,70,95760,240
81,59,95760,240
74,59,95760,240
74,49,96000,960
83,58,96000,960
79,49,96000,960
84,57,96960,480
79,48,96960,480
84,51,97440,480
87,61,97440,480
79,51,97440,480
91,56,97920,960
79,56,97920,960
86,67,97920,480
83,61,98400,480
84,51,98880,480
79,51,98880,480
87,60,98880,480
84,63,99360,480
79,53,99360,480
79,56,99840,960
82,66,99840,480
83,59,100320,480
86,64,100800,480
78,54,100800,480
81,53,101280,360
84,63,101280,360
74,52,101520,240
81,57,101640,120
78,48,101640,120
83,58,101760,960
74,49,101760,240
79,49,101760,81
81,42,101841,80
79,49,101921,81
81,44,102001,81
79,49,102082,80
81,44,102162,81
79,50,102240,81
81,44,102321,80
79,50,102401,81
81,46,102481,81
79,51,102562,80
81,45,102642,81
84,67,102720,480
79,51,102720,81
81,44,102801,80
79,52,102881,81
81,47,102961,81
79,52,103042,80
81,47,103122,81
79,53,103200,81
88,73,103200,480
81,47,103281,80
79,54,103361,81
81,48,103441,81
79,54,103522,80
81,48,103602,81
79,55,103680,81
91,67,103680,960
81,47,103761,80
79,55,103841,81
81,50,103921,81
79,56,104002,80
81,51,104082,81
79,56,104160,81
81,50,104241,80
79,57,104321,81
81,51,104401,81
79,57,104482,80
81,51,104562,81
88,72,104640,480
79,58,104640,81
81,50,104721,80
79,59,104801,81
81,53,104881,81
79,59,104962,80
81,53,105042,81
84,77,105120,480
79,60,105120,81
81,52,105201,80
79,60,105281,81
81,55,105361,81
79,61,105442,80
81,54,105522,81
79,61,105600,81
82,83,105600,240
81,53,105681,80
79,62,105761,81
83,75,105840,480
81,56,105841,81
79,62,105922,80
81,56,106002,81
79,63,106080,81
81,55,106161,80
79,64,106241,81
86,86,106320,240
81,57,106321,81
79,64,106402,80
81,56,106482,81
86,75,106560,81
88,66,106641,80
86,75,106721,81
74,60,106800,240
88,64,106801,81
86,75,106882,80
88,68,106962,81
86,78,107040,81
88,69,107121,80
86,75,107201,81
85,75,107280,120
86,79,107400,120
89,73,107520,120
86,73,107520,120
95,73,107520,120
98,86,107520,120
86,66,107760,480
89,66,107760,480
95,66,107760,480
98,78,107760,480
86,66,108240,120
84,66,108240,120
89,66,108240,120
96,78,108240,120
89,67,108480,120
95,79,108480,120
83,67,108480,120
86,67,108480,120
86,70,108720,120
96,83,108720,120
89,70,108720,120
84,70,108720,120
98,82,108960,120
86,69,108960,120
89,69,108960,120
95,69,109200,120
83,58,109200,120
86,58,109200,120
88,58,109200,120
88,50,109440,120
96,59,109440,120
84,50,109440,120
83,45,109680,120
86,45,109680,120
88,45,109680,120
95,53,109680,120
96,59,109920,120
88,50,109920,120
84,50,109920,120
84,45,110160,120
93,53,110160,120
88,45,110160,120
81,45,110160,120
81,50,110400,120
88,50,110400,120
91,59,110400,120
91,53,110640,120
81,45,110640,120
85,45,110640,120
90,59,110880,120
81,50,110880,120
84,50,110880,120
84,45,111120,120
93,53,111120,120
81,45,111120,120
91,64,111360,120
83,55,111360,120
79,55,111360,120
83,50,111600,120
86,59,111600,120
74,50,111600,120
84,58,111840,120
78,58,111840,120
90,69,111840,120
90,55,112080,120
84,55,112080,120
93,65,112080,120
81,55,112080,120
83,63,112320,120
79,63,112320,120
91,75,112320,120
83,59,112560,120
74,59,112560,120
86,69,112560,120
84,69,112800,120
90,80,112800,120
78,69,112800,120
90,64,113040,120
84,64,113040,120
81,64,113040,120
93,76,113040,120
79,77,113280,120
91,70,113400,120
74,79,113520,120
86,73,113640,120
78,82,113760,120
90,76,113880,120
81,85,114000,120
93,79,114120,120
79,88,114240,120
91,82,114360,120
74,91,114480,120
86,86,114600,120
78,94,114720,120
90,90,114840,120
81,99,114960,120
93,92,115080,120
91,110,115200,180
79,91,115200,180
93,112,115680,180
81,94,115680,180
82,99,116160,840
94,118,116160,840
58,57,118920,120
70,81,119040,360
70,71,119400,120
70,78,119520,240
77,88,121320,120
86,105,121320,120
82,88,121320,120
74,88,121320,120
86,94,121440,180
74,79,121440,180
82,79,121440,180
77,79,121440,180
74,80,121680,45
77,80,121680,45
87,100,121680,45
82,80,121680,45
74,82,121800,45
77,82,121800,45
82,82,121800,45
86,97,121800,45
77,88,121920,120
86,105,121920,120
82,88,121920,120
74,88,121920,120
70,80,122160,120
82,96,122160,120
77,80,122160,120
74,80,122160,120
77,88,123240,120
82,88,123240,120
86,88,123240,120
89,105,123240,120
89,94,123360,180
86,79,123360,180
82,79,123360,180
77,79,123360,180
82,80,123600,45
91,100,123600,45
77,80,123600,45
86,80,123600,45
82,82,123720,45
86,82,123720,45
89,97,123720,45
77,82,123720,45
89,105,123840,120
77,88,123840,120
82,88,123840,120
86,88,123840,120
86,96,124080,120
82,80,124080,120
74,80,124080,120
77,80,124080,120
70,50,124560,120
72,45,124680,120
74,50,124800,480
67,39,125040,240
72,39,125280,240
69,33,125280,240
72,50,125520,120
68,42,125520,240
74,46,125640,120
67,46,125760,240
75,55,125760,480
69,45,126000,240
70,38,126240,240
74,45,126240,240
67,39,126480,240
74,47,126480,120
75,50,126600,120
77,54,126720,360
65,45,126720,240
70,45,126960,240
79,52,127080,120
67,42,127200,240
77,50,127200,120
75,43,127320,240
69,43,127440,240
77,45,127560,120
75,49,127680,120
65,35,127680,240
70,35,127680,240
74,41,127800,120
72,30,127920,240
67,30,127920,240
77,43,127920,120
75,37,128040,120
69,30,128160,240
72,35,128160,240
82,50,128400,120
84,45,128520,120
86,50,128640,480
79,39,128880,240
81,33,129120,240
84,39,129120,240
80,42,129360,240
84,50,129360,120
86,46,129480,120
79,46,129600,240
87,55,129600,480
81,45,129840,240
82,38,130080,240
86,45,130080,240
86,51,130320,120
79,39,130320,240
87,55,130440,120
77,45,130560,240
89,59,130560,360
82,45,130800,240
91,57,130920,120
79,42,131040,240
89,55,131040,120
87,47,131160,240
81,43,131280,240
89,50,131400,120
87,57,131520,120
77,44,131520,240
86,49,131640,240
82,46,131760,480
87,53,131880,120
86,60,132000,120
84,49,132120,120
77,47,132240,240
86,55,132240,120
81,47,132240,240
87,51,132360,120
91,67,132480,120
77,52,132480,240
82,52,132480,240
89,53,132600,120
82,41,132720,240
91,58,132720,120
89,59,132840,118
79,53,132960,240
89,69,132960,120
87,55,133080,120
89,61,133200,120
81,43,133200,240
87,56,133320,120
77,57,133440,240
87,74,133440,120
86,57,133560,120
82,45,133680,480
87,63,133680,120
86,58,133800,118
86,75,133920,120
84,61,134040,120
86,67,134160,120
81,47,134160,240
77,47,134160,240
87,70,134280,120
82,58,134400,240
91,69,134400,120
77,58,134400,240
89,70,134520,120
82,60,134640,240
88,76,134640,240
91,72,134760,240
87,67,134880,240
92,74,135000,240
87,76,135120,240
84,64,135120,240
93,77,135240,120
86,73,135360,240
82,73,135360,240
96,86,135360,120
94,72,135480,120
93,84,135600,120
82,71,135600,240
87,71,135600,240
91,74,135720,120
89,86,135840,120
86,72,135840,120
82,72,135840,120
93,80,136080,120
84,67,136080,120
89,80,136080,120
81,67,136080,120
94,101,136320,480
86,85,136320,480
89,85,136320,480
82,85,136320,480
74,63,136800,480
70,63,136800,480
82,75,136800,480
74,50,137280,60
77,50,137280,60
86,59,137280,60
82,61,137520,60
74,51,137520,60
70,51,137520,60
77,51,137760,60
74,51,137760,60
86,61,137760,60
72,51,138000,60
84,61,138000,60
75,51,138000,60
75,97,138240,480
79,97,138240,480
87,116,138240,480
84,75,138720,480
75,63,138720,480
72,63,138720,480
87,59,139200,60
75,50,139200,60
79,50,139200,60
73,51,139440,60
76,51,139440,60
85,61,139440,60
87,61,139680,60
75,51,139680,60
78,51,139680,60
86,61,139920,60
77,51,139920,60
74,51,139920,60
89,111,140160,480
80,93,140160,480
77,93,140160,480
74,63,140640,480
86,75,140640,480
77,63,140640,480
80,50,141120,60
77,50,141120,60
89,59,141120,60
86,61,141360,60
74,51,141360,60
78,51,141360,60
89,61,141600,60
80,51,141600,60
77,51,141600,60
87,61,141840,60
75,51,141840,60
79,51,141840,60
79,93,142080,480
82,93,142080,480
91,111,142080,480
75,63,142560,480
79,63,142560,480
82,63,142560,480
87,75,142560,480
82,50,143040,60
79,50,143040,60
91,59,143040,60
82,51,143280,60
88,61,143280,60
76,51,143280,60
78,56,143520,60
82,56,143520,60
90,67,143520,60
82,58,143760,60
89,69,143760,60
77,58,143760,60
80,59,144000,60
82,59,144000,60
92,69,144000,60
78,62,144240,60
82,62,144240,60
90,74,144240,60
80,64,144480,60
82,64,144480,60
92,76,144480,60
91,79,144720,60
82,66,144720,60
79,66,144720,60
91,67,144960,60
82,67,144960,60
94,79,144960,60
87,67,144960,60
92,84,145200,60
80,70,145200,60
82,72,145440,60
94,86,145440,60
93,89,145680,60
81,74,145680,60
84,84,145920,120
96,99,145920,120
94,88,146160,120
82,74,146160,120
91,97,146400,120
79,82,146400,120
77,76,146640,120
89,90,146640,120
75,85,146880,120
87,97,146880,120
86,82,147120,120
74,69,147120,120
72,73,147360,120
84,87,147360,120
82,81,147600,120
70,68,147600,120
79,89,147840,120
67,75,147840,120
77,79,148080,120
65,66,148080,120
63,69,148320,120
75,82,148320,120
62,64,148560,120
74,76,148560,120
60,67,148800,120
72,80,148800,120
70,71,149040,120
58,59,149040,120
67,78,149280,120
55,65,149280,120
65,72,149520,120
53,61,149520,120
69,77,149760,240
65,67,150000,240
72,73,150240,240
65,67,150480,240
77,71,150720,240
65,59,150960,240
81,68,151200,240
65,56,151440,240
84,62,151680,240
65,49,151920,240
89,54,152160,240
65,45,152400,240
89,52,152640,240
65,41,152880,240
89,48,153120,240
82,77,153960,120
86,92,153960,120
77,77,153960,120
74,77,153960,120
82,69,154080,240
77,69,154080,240
86,82,154080,240
74,69,154080,240
82,70,154320,45
77,70,154320,45
87,89,154320,45
74,70,154320,45
82,72,154440,45
74,72,154440,45
77,72,154440,45
86,85,154440,45
82,77,154560,120
74,77,154560,120
77,77,154560,120
86,92,154560,120
82,84,154800,120
74,70,154800,120
77,70,154800,120
70,70,154800,120
77,77,155880,120
86,92,155880,120
82,77,155880,120
74,77,155887,120
86,99,156000,240
74,82,156000,7
81,70,156240,45
74,70,156240,45
78,70,156240,45
86,84,156240,45
86,85,156360,45
78,70,156360,45
74,72,156360,45
81,72,156360,45
81,77,156480,120
86,92,156480,120
74,77,156480,120
78,77,156480,120
86,84,156720,120
81,70,156720,120
74,70,156720,120
78,70,156720,120
66,33,157680,120
74,39,157680,120
69,33,157680,120
66,35,158160,120
69,35,158160,120
74,42,158160,120
69,37,158640,120
66,37,158640,120
74,44,158640,120
66,39,159120,120
69,39,159120,120
74,46,159120,120
74,41,159600,120
72,41,159600,120
78,49,159600,120
69,41,159600,120
69,43,160080,120
78,51,160080,120
72,43,160080,120
74,43,160080,120
69,50,160560,120
72,50,160560,120
81,60,160560,120
78,50,160560,120
78,57,161040,120
84,68,161040,120
72,57,161040,120
81,57,161040,120
84,64,161520,120
78,64,161520,120
90,75,161520,120
81,64,161520,120
84,66,162000,120
81,66,162000,120
93,79,162000,120
93,69,162480,120
84,69,162480,120
96,82,162480,120
84,71,162960,120
96,85,162960,120
90,71,162960,120
93,71,162960,120
93,71,163200,120
96,85,163200,120
84,71,163200,120
90,71,163200,120
84,57,163440,120
81,57,163440,120
80,57,163560,120
83,57,163560,120
81,63,163680,240
84,63,163680,240
66,52,163920,120
69,52,163920,120
70,52,164040,120
67,52,164040,120
69,58,164160,240
66,58,164160,240
84,47,164400,120
81,47,164400,120
80,47,164520,120
83,47,164520,120
81,56,164640,240
84,56,164640,240
90,47,164880,120
93,47,165000,120
96,57,165120,120
98,48,165240,120
96,49,165360,120
95,50,165480,120
96,65,165600,120
98,57,165720,120
100,66,165840,120
96,58,165960,120
93,69,166080,120
95,56,166200,120
96,66,166320,120
93,54,166440,120
90,66,166560,120
91,53,166680,120
93,61,166800,120
90,53,166920,120
84,47,167040,120
86,47,167160,120
88,58,167280,120
84,47,167400,120
81,47,167520,120
83,47,167640,120
84,53,167760,120
81,47,167880,120
78,47,168000,120
79,47,168120,120
81,52,168240,120
78,47,168360,120
72,47,168480,240
69,47,168480,240
74,47,168480,240
95,57,168960,120
96,48,169080,120
95,49,169200,120
93,50,169320,120
95,65,169440,120
96,57,169560,120
98,66,169680,120
95,58,169800,120
91,69,169920,120
93,56,170040,120
95,66,170160,120
91,54,170280,120
86,66,170400,120
90,53,170520,120
91,61,170640,120
86,53,170760,120
83,47,170880,120
84,47,171000,120
86,58,171120,120
83,47,171240,120
79,47,171360,120
81,47,171480,120
83,53,171600,120
79,47,171720,120
74,47,171840,120
78,47,171960,120
79,52,172080,120
71,47,172200,120
67,40,172320,120
69,40,172440,120
71,45,172560,118
67,40,172680,120
66,40,172800,240
69,46,172800,240
62,40,172800,240
88,52,173040,120
86,47,173160,120
88,40,173280,120
86,40,173400,120
84,45,173520,120
88,40,173640,120
84,52,173760,120
83,42,173880,120
81,49,174000,120
84,43,174120,120
81,48,174240,120
79,40,174360,120
78,45,174480,120
81,40,174600,120
76,52,174720,120
74,42,174840,120
72,49,174960,120
76,43,175080,120
72,48,175200,120
71,40,175320,120
69,45,175440,120
72,40,175560,120
69,52,175680,120
67,42,175800,120
66,49,175920,120
69,43,176040,120
72,48,176160,120
71,40,176280,120
69,45,176400,120
72,40,176520,120
62,40,176640,240
67,46,176640,240
98,52,176880,120
96,47,177000,120
98,40,177120,120
96,40,177240,120
95,45,177360,120
98,40,177480,120
95,52,177600,120
93,42,177720,120
91,49,177840,120
95,43,177960,120
83,48,178080,120
81,40,178200,120
79,45,178320,120
83,40,178440,120
74,52,178560,120
72,42,178680,120
71,49,178800,120
74,43,178920,120
83,48,179040,120
81,40,179160,120
79,45,179280,120
83,40,179400,120
86,62,179520,120
84,51,179640,120
83,61,179760,120
84,52,179880,120
88,62,180000,240
86,51,180240,240
81,51,180240,240
90,51,180240,240
79,51,180480,240
91,51,180480,240
86,51,180480,240
69,40,181680,240
66,34,181680,240
67,32,181920,120
71,38,181920,120
91,47,182160,120
83,39,182160,120
90,44,182280,120
81,37,182280,120
83,39,182400,240
91,47,182400,240
79,33,182640,240
83,33,182640,240
88,39,182640,240
81,35,182880,240
86,42,182880,240
78,35,182880,240
79,30,183120,240
76,30,183120,240
85,40,183120,240
88,45,183360,240
79,38,183360,240
86,36,183600,238
78,30,183600,238
78,30,183840,240
86,36,183840,240
79,38,184080,120
86,45,184080,120
81,34,184200,120
84,40,184200,120
83,46,184320,240
91,51,184560,120
79,43,184560,360
88,46,184800,120
96,51,185040,120
84,43,185040,120
88,37,185160,120
93,44,185160,120
90,51,185280,240
86,47,185520,360
98,56,185520,240
95,53,185760,120
91,52,186000,120
90,45,186120,120
91,52,186240,240
88,47,186480,240
84,51,186720,240
78,37,186960,240
83,44,186960,240
78,44,187200,240
83,44,187200,720
81,50,187440,120
79,44,187560,118
79,49,187680,240
82,46,187920,240
88,55,187920,240
79,46,187920,480
81,44,188160,720
79,50,188400,120
77,44,188520,120
77,49,188640,240
77,55,188880,480
86,55,188880,240
80,55,188880,240
79,44,189120,720
77,50,189360,120
76,44,189480,118
76,49,189600,240
79,46,189840,240
76,46,189840,480
85,55,189840,240
78,44,190080,720
76,50,190320,120
75,44,190440,120
74,49,190560,240
77,46,190800,240
83,55,190800,240
74,46,190800,240
77,55,191040,120
74,46,191040,240
76,46,191160,240
73,46,191280,240
81,48,191400,120
75,55,191520,120
72,46,191520,240
74,47,191640,240
71,46,191760,240
79,49,191880,120
74,56,192000,120
86,44,192120,120
85,45,192240,120
84,46,192360,120
81,47,192480,120
78,47,192600,120
75,48,192720,120
74,49,192840,120
73,50,192960,120
72,51,193080,120
69,52,193200,120
66,53,193320,120
67,51,193440,240
63,61,193440,120
62,47,193560,120
67,49,193680,240
76,58,193680,120
74,47,193800,120
74,56,193920,120
86,44,194040,120
85,45,194160,120
84,46,194280,120
81,47,194400,120
78,47,194520,120
75,48,194640,120
74,49,194760,120
73,50,194880,120
72,51,195000,120
69,52,195120,120
66,53,195240,120
67,51,195360,240
63,61,195360,120
62,47,195480,120
67,49,195600,240
76,58,195600,120
74,47,195720,120
74,52,195840,120
71,45,195960,120
79,54,195960,120
83,58,196080,120
74,49,196080,120
72,44,196200,120
81,52,196200,120
71,58,196320,120
79,58,196320,960
75,50,196440,120
76,55,196560,120
71,50,196680,120
70,54,196800,120
75,58,196920,120
76,58,197040,120
70,53,197160,120
69,56,197280,120
73,50,197400,120
74,60,197520,120
86,54,197640,120
86,61,197760,120
98,48,197880,120
97,49,198000,120
96,50,198120,120
93,51,198240,120
90,51,198360,120
87,52,198480,120
86,53,198600,120
85,55,198720,120
84,56,198840,120
81,64,198960,120
78,67,199080,120
75,72,199200,120
79,60,199200,240
74,51,199320,120
79,53,199440,240
88,63,199440,120
86,51,199560,120
86,61,199680,120
98,48,199800,120
97,49,199920,120
96,50,200040,120
93,51,200160,120
90,51,200280,120
87,52,200400,120
86,53,200520,120
85,57,200640,120
84,53,200760,120
81,61,200880,120
78,63,201000,120
75,67,201120,120
79,54,201120,240
74,51,201240,120
88,63,201360,120
79,53,201360,240
86,51,201480,120
86,56,201600,120
79,54,201720,120
71,45,201720,120
74,49,201840,120
83,58,201840,120
72,44,201960,120
81,52,201960,120
79,58,202080,960
71,58,202080,120
75,50,202200,120
76,55,202320,120
71,50,202440,120
70,54,202560,120
75,58,202680,120
76,58,202800,120
70,53,202920,120
78,54,203040,240
69,56,203040,120
74,50,203160,120
79,54,203280,240
67,60,203280,120
72,50,203400,120
79,54,203520,120
76,47,203640,120
84,57,203640,120
79,52,203760,120
88,62,203760,120
86,56,203880,120
77,47,203880,120
84,63,204000,960
76,63,204000,120
80,55,204120,120
81,61,204240,120
75,56,204360,120
75,61,204480,120
80,66,204600,120
81,66,204720,120
75,62,204840,120
83,63,204960,240
74,66,204960,120
79,59,205080,120
72,72,205200,120
84,64,205200,240
77,60,205320,120
84,63,205440,120
81,55,205560,120
89,66,205560,120
93,71,205680,120
84,60,205680,120
91,65,205800,120
82,55,205800,120
89,73,205920,960
80,73,205920,120
77,63,206040,120
80,70,206160,120
79,65,206280,120
80,70,206400,120
85,73,206520,120
86,77,206640,120
80,71,206760,120
79,75,206880,120
88,78,206880,720
83,68,207000,120
84,82,207120,120
79,69,207240,120
84,74,207360,240
76,79,207600,240
84,79,207600,240
79,79,207600,240
88,93,207600,240
83,74,207840,240
86,88,207840,240
84,74,208080,120
88,86,208080,120
89,92,208200,120
86,78,208200,120
91,96,208320,120
88,81,208320,120
84,77,208560,120
88,91,208560,120
88,93,209520,240
79,79,209520,240
84,79,209520,240
76,79,209520,240
83,74,209760,240
86,88,209760,240
88,86,210000,120
84,74,210000,120
86,78,210120,120
89,92,210120,120
91,96,210240,120
88,81,210240,120
91,103,210480,240
88,86,210480,240
81,86,210480,240
79,86,210480,240
85,86,210960,240
88,86,210960,240
91,103,210960,240
79,86,210960,240
91,103,211440,240
83,86,211440,240
86,86,211440,240
79,86,211440,240
79,86,211920,240
85,86,211920,240
81,86,211920,240
91,103,211920,240
91,77,212160,480
79,65,212160,480
83,65,212160,480
86,65,212160,480
86,64,212640,720
79,54,212640,720
83,54,212640,720
74,53,213360,240
79,53,213360,240
83,63,213360,240
74,56,213600,120
78,57,213720,120
79,58,213840,120
83,59,213960,120
85,60,214080,120
86,61,214200,120
88,62,214320,120
86,62,214440,120
90,63,214560,120
91,64,214680,120
93,65,214800,120
91,66,214920,120
94,67,215040,120
95,68,215160,120
96,69,215280,120
95,70,215400,120
98,71,215520,240
81,59,215760,240
74,59,215760,240
84,70,215760,240
83,58,216000,960
79,49,216000,960
74,49,216000,960
84,57,216960,480
79,48,216960,480
84,51,217440,480
79,51,217440,480
87,61,217440,480
91,56,217920,960
86,67,217920,480
79,56,217920,960
83,61,218400,480
84,51,218880,480
79,51,218880,480
87,60,218880,480
79,53,219360,480
84,63,219360,480
82,66,219840,480
79,56,219840,960
83,59,220320,480
78,54,220800,480
86,64,220800,480
84,63,221280,360
81,53,221280,360
74,52,221520,240
78,48,221640,120
81,57,221640,120
79,49,221760,81
74,49,221760,240
83,58,221760,960
81,42,221841,80
79,49,221921,81
81,44,222001,81
79,49,222082,80
81,44,222162,81
79,50,222240,81
81,44,222321,80
79,50,222401,81
81,46,222481,81
79,51,222562,80
81,45,222642,81
84,67,222720,480
79,51,222720,81
81,44,222801,80
79,52,222881,81
81,47,222961,81
79,52,223042,80
81,47,223122,81
79,53,223200,81
88,73,223200,480
81,47,223281,80
79,54,223361,81
81,48,223441,81
79,54,223522,80
81,48,223602,81
91,67,223680,960
79,55,223680,81
81,47,223761,80
79,55,223841,81
81,50,223921,81
79,56,224002,80
81,51,224082,81
79,56,224160,81
81,50,224241,80
79,57,224321,81
81,51,224401,81
79,57,224482,80
81,51,224562,81
88,72,224640,480
79,58,224640,81
81,50,224721,80
79,59,224801,81
81,53,224881,81
79,59,224962,80
81,53,225042,81
79,60,225120,81
84,77,225120,480
81,52,225201,80
79,60,225281,81
81,55,225361,81
79,61,225442,80
81,54,225522,81
82,83,225600,240
79,61,225600,81
81,53,225681,80
79,62,225761,81
83,75,225840,480
81,56,225841,81
79,62,225922,80
81,56,226002,81
79,63,226080,81
81,55,226161,80
79,64,226241,81
86,86,226320,240
81,57,226321,81
79,64,226402,80
81,56,226482,81
86,75,226560,81
88,66,226641,80
86,75,226721,81
74,60,226800,240
88,64,226801,81
86,75,226882,80
88,68,226962,81
86,78,227040,81
88,69,227121,80
86,75,227201,81
85,75,227280,120
86,79,227400,120
86,73,227520,120
95,73,227520,120
98,86,227520,120
89,73,227520,120
89,66,227760,480
95,66,227760,480
86,66,227760,480
98,78,227760,480
86,66,228240,120
84,66,228240,120
96,78,228240,120
89,66,228240,120
86,67,228480,120
95,79,228480,120
83,67,228480,120
89,67,228480,120
96,83,228720,120
89,70,228720,120
84,70,228720,120
86,70,228720,120
89,69,228960,120
86,69,228960,120
98,82,228960,120
88,58,229200,120
95,69,229200,120
83,58,229200,120
86,58,229200,120
84,50,229440,120
88,50,229440,120
96,59,229440,120
88,45,229680,120
86,45,229680,120
83,45,229680,120
95,53,229680,120
84,50,229920,120
88,50,229920,120
96,59,229920,120
84,45,230160,120
81,45,230160,120
93,53,230160,120
88,45,230160,120
91,59,230400,120
88,50,230400,120
81,50,230400,120
85,45,230640,120
91,53,230640,120
81,45,230640,120
81,50,230880,120
84,50,230880,120
90,59,230880,120
81,45,231120,120
93,53,231120,120
84,45,231120,120
79,55,231360,120
83,55,231360,120
91,64,231360,120
86,59,231600,120
74,50,231600,120
83,50,231600,120
90,69,231840,120
84,58,231840,120
78,58,231840,120
84,55,232080,120
93,65,232080,120
90,55,232080,120
81,55,232080,120
79,63,232320,120
91,75,232320,120
83,63,232320,120
74,59,232560,120
83,59,232560,120
86,69,232560,120
84,69,232800,120
78,69,232800,120
90,80,232800,120
90,64,233040,120
93,76,233040,120
84,64,233040,120
81,64,233040,120
79,77,233280,120
91,70,233400,120
74,79,233520,120
86,73,233640,120
78,82,233760,120
90,76,233880,120
81,85,234000,120
93,79,234120,120
79,88,234240,120
91,82,234360,120
74,91,234480,120
86,86,234600,120
78,94,234720,120
90,90,234840,120
81,99,234960,120
93,92,235080,120
79,91,235200,180
91,110,235200,180
81,94,235680,180
93,112,235680,180
83,99,236160,960
95,118,236160,960
83,91,237120,180
95,110,237120,180
84,94,237600,180
96,112,237600,180
86,99,238080,960
98,118,238080,960
74,43,239040,60
79,43,239040,60
86,51,239040,60
86,46,239280,480
79,39,239280,480
74,39,239280,480
79,39,239760,120
75,39,239760,120
84,46,239760,120
83,47,240000,120
77,40,240000,120
79,40,240000,120
84,49,240240,120
79,42,240240,120
75,42,240240,120
74,41,240480,120
86,49,240480,120
79,41,240480,120
79,34,240720,120
77,34,240720,120
83,41,240720,120
79,43,240960,60
75,43,240960,60
87,51,240960,60
79,39,241200,480
75,39,241200,480
87,46,241200,480
77,39,241680,120
79,39,241680,120
86,46,241680,120
74,39,241680,120
75,40,241920,120
79,40,241920,120
84,47,241920,120
77,42,242160,120
74,42,242160,120
79,42,242160,120
86,49,242160,120
87,49,242400,120
75,41,242400,120
79,41,242400,120
84,41,242640,120
79,34,242640,120
75,34,242640,120
80,47,242880,60
89,56,242880,60
77,47,242880,60
80,44,243120,480
77,44,243120,480
89,52,243120,480
79,48,243600,120
75,48,243600,120
87,57,243600,120
86,61,243840,120
77,52,243840,120
74,52,243840,120
87,66,244080,120
79,56,244080,120
75,56,244080,120
80,57,244320,120
77,57,244320,120
89,68,244320,120
86,67,244560,120
82,56,244560,120
74,56,244560,120
77,56,244560,120
91,105,244800,180
79,87,244800,180
87,87,244800,180
92,107,245280,180
80,90,245280,180
89,90,245280,180
94,113,245760,960
82,94,245760,960
91,94,245760,960
67,50,246720,180
63,42,246720,180
68,52,247200,180
65,44,247200,180
70,53,247680,840
67,45,247680,840
51,57,250440,120
63,77,250560,357
63,56,250920,118
63,63,251040,240
46,40,252360,120
51,44,252480,358
51,40,252840,118
51,43,252960,240
53,44,253200,90
51,40,253320,90
51,44,253440,90
48,39,253680,90
48,39,253920,480
56,47,254400,90
56,42,254640,90
55,42,254760,90
53,47,254880,120
53,44,255120,90
51,44,255240,90
50,47,255360,240
50,39,255840,480
58,50,256320,90
58,44,256560,90
56,44,256680,90
55,48,256800,120
55,44,257040,90
53,44,257160,90
52,48,257280,240
52,39,257760,480
60,48,258240,90
60,44,258480,90
58,44,258600,90
56,49,258720,120
56,45,258960,90
55,46,259080,90
53,50,259200,90
53,47,259440,90
55,47,259560,90
56,51,259680,120
56,48,259920,90
58,48,260040,90
55,51,260160,120
55,49,260400,90
53,49,260520,90
51,55,260640,240
65,46,261000,120
70,56,261120,358
70,47,261480,118
70,55,261600,240
72,53,261840,90
70,48,261960,90
70,57,262080,90
67,48,262320,90
67,49,262560,480
75,61,263040,90
75,57,263280,90
74,57,263400,90
72,62,263520,120
72,58,263760,90
70,58,263880,90
69,64,264000,240
69,53,264480,480
77,65,264960,90
77,62,265200,90
75,62,265320,90
74,66,265440,120
74,63,265680,90
72,63,265800,90
71,67,265920,240
71,53,266400,480
79,71,266880,90
79,67,267120,90
77,67,267240,90
75,68,267360,120
75,68,267600,90
74,69,267720,90
72,71,267840,90
72,69,268080,90
70,70,268200,90
68,74,268320,120
68,71,268560,90
67,71,268680,90
65,76,268800,120
65,72,269040,90
67,73,269160,90
68,76,269280,240
70,73,269520,240
63,62,269760,240
70,62,269760,240
67,74,269760,358
67,64,270120,118
67,76,270240,240
68,74,270480,90
70,70,270600,90
67,70,270600,90
75,74,270720,358
67,62,270720,240
63,53,270960,240
75,64,271080,120
63,64,271200,480
75,76,271200,240
77,74,271440,90
75,70,271560,90
63,62,271680,90
75,74,271680,90
72,68,271920,210
70,57,272040,90
68,62,272160,90
72,74,272160,480
68,73,272400,90
67,64,272520,90
65,62,272640,240
80,81,272640,90
80,71,272880,90
79,67,273000,90
77,78,273120,120
65,64,273120,480
77,74,273360,90
75,68,273480,90
74,74,273600,90
74,68,273840,90
72,57,273960,90
70,62,274080,90
74,74,274080,480
70,73,274320,90
68,64,274440,90
82,79,274560,90
67,62,274560,240
82,71,274800,90
80,67,274920,90
79,78,275040,120
67,64,275040,720
79,74,275280,90
77,68,275400,90
76,74,275520,240
64,56,275760,240
65,59,276000,240
67,62,276240,240
60,51,276240,90
58,49,276360,90
56,58,276480,120
68,58,276480,720
65,51,276720,120
63,44,276840,120
62,51,276960,120
62,52,277200,120
69,52,277200,240
60,45,277320,120
70,63,277440,90
58,63,277440,240
79,62,277680,90
77,57,277800,90
75,67,277920,120
75,63,278160,90
74,57,278280,90
72,68,278400,720
60,47,278640,240
65,60,278880,480
73,61,279120,240
65,72,279360,90
74,72,279360,90
67,66,279600,90
75,66,279600,90
74,59,279720,90
65,59,279720,90
72,76,279840,120
63,76,279840,120
71,73,280080,90
62,76,280080,120
67,66,280200,90
72,67,280320,357
75,79,280320,357
75,72,280680,119
72,61,280680,119
72,64,280800,240
75,76,280800,240
74,67,281040,90
77,79,281040,90
75,68,281160,90
72,57,281160,90
72,67,281280,90
75,79,281280,90
72,69,281520,90
68,58,281520,90
68,58,281760,480
72,69,281760,480
80,79,282240,90
77,67,282240,90
80,79,282480,90
77,67,282480,90
79,75,282600,90
75,63,282600,90
77,79,282720,120
73,67,282720,120
73,67,282960,90
77,79,282960,90
75,75,283080,90
72,63,283080,90
73,79,283200,240
70,67,283200,240
70,58,283680,480
73,69,283680,480
79,67,284160,90
82,79,284160,90
79,67,284400,90
82,79,284400,90
77,63,284520,90
80,75,284520,90
76,67,284640,120
79,79,284640,120
79,79,284880,90
76,67,284880,90
74,63,285000,90
77,75,285000,90
76,79,285120,240
72,67,285120,240
72,58,285600,480
77,69,285600,480
84,79,286080,90
80,67,286080,90
80,67,286320,90
84,79,286320,90
79,63,286440,90
82,75,286440,90
80,79,286560,120
77,67,286560,120
79,68,286800,90
82,80,286800,90
77,65,286920,90
80,77,286920,90
79,79,287040,90
75,67,287040,90
80,79,287280,90
89,79,287280,90
87,75,287400,90
79,63,287400,90
77,67,287520,120
86,79,287520,120
87,80,287760,90
79,68,287760,90
77,65,287880,90
86,77,287880,90
75,67,288000,90
84,79,288000,90
79,67,288240,90
82,79,288240,90
80,63,288360,90
84,75,288360,90
85,80,288480,120
82,68,288480,120
77,70,288720,90
80,82,288720,90
79,67,288840,90
82,80,288840,90
80,70,288960,90
84,82,288960,90
72,71,289200,240
75,83,289200,90
77,80,289320,90
79,84,289440,240
71,71,289440,240
71,79,289800,120
74,94,289800,120
79,86,289920,840
83,102,289920,840
71,73,290760,120
74,87,290760,120
79,86,290880,720
83,102,290880,720
83,53,291600,240
79,45,291600,240
87,53,291600,120
86,45,291720,120
86,45,291840,240
83,45,291840,240
91,53,291840,120
89,45,291960,120
71,45,292320,240
79,53,292320,120
74,45,292320,240
77,45,292440,120
67,53,292800,120
59,45,292800,240
62,45,292800,240
65,45,292920,120
74,45,293280,240
71,45,293280,240
79,53,293280,120
77,45,293400,120
79,86,293760,840
87,102,293760,840
84,86,293760,840
79,73,294600,840
75,87,294600,840
84,86,294720,720
87,102,294720,720
84,53,295440,240
79,45,295440,240
89,53,295440,120
87,45,295560,120
87,45,295680,240
84,45,295680,240
92,53,295680,120
91,45,295800,120
72,45,296160,240
75,45,296160,240
80,53,296160,120
79,45,296273,120
63,45,296640,240
60,45,296640,240
68,53,296640,120
67,45,296760,120
75,45,297120,240
80,53,297120,120
72,45,297120,240
79,45,297240,120
77,86,297600,840
86,86,297600,840
89,102,297600,840
74,87,298440,120
77,73,298440,120
89,102,298560,720
86,86,298560,720
77,73,298920,120
82,67,299040,240
86,53,299280,240
82,45,299280,240
91,53,299280,120
89,45,299400,120
86,49,299520,240
89,49,299520,240
94,58,299520,120
92,50,299640,120
82,63,300000,120
77,54,300000,240
74,54,300000,240
80,54,300113,120
65,58,300480,240
62,58,300480,240
70,68,300480,120
68,59,300600,120
77,63,300960,240
74,63,300960,240
82,74,300960,120
80,63,301080,120
87,86,301440,840
91,102,301440,840
79,73,302280,120
82,73,302280,120
91,102,302400,720
87,86,302400,720
79,87,302760,120
84,80,302880,240
78,73,303240,120
81,87,303240,120
93,106,303360,840
90,90,303360,840
81,76,304200,120
78,76,304200,120
93,106,304320,720
90,90,304320,720
81,91,304680,120
86,84,304800,240
90,90,304800,240
80,76,305160,120
83,91,305160,120
95,97,305280,840
86,82,305280,840
89,82,305280,840
92,82,305280,840
83,82,305280,840
80,76,306120,120
83,76,306120,120
89,82,306240,840
83,82,306240,840
86,82,306240,840
92,82,306240,840
95,97,306240,840
82,76,307080,120
76,76,307080,120
79,76,307080,120
85,76,307080,120
94,82,307200,840
91,82,307200,840
97,97,307200,840
88,82,307200,840
82,76,308040,120
85,76,308040,120
79,76,308040,120
76,76,308040,120
91,82,308160,840
88,82,308160,840
94,82,308160,840
97,97,308160,840
86,83,309000,120
81,83,309000,120
78,83,309000,120
86,90,309120,360
90,90,309120,360
93,90,309120,360
98,106,309120,360
86,80,309480,120
98,100,309600,360
74,74,309960,120
86,93,310080,360
74,68,310440,120
86,85,310560,360
74,62,310920,120
86,78,311040,360
74,56,311400,120
86,70,311520,360
74,51,311880,120
86,63,312000,360
74,45,312360,120
86,55,312480,360
75,39,312840,120
87,58,312960,960
75,49,313440,480
88,57,313920,480
76,48,313920,960
79,61,314400,480
78,67,314880,480
83,56,314880,960
75,61,315360,480
76,51,315840,480
71,51,315840,480
79,60,315840,480
71,53,316320,480
76,63,316320,480
74,66,316800,480
75,59,317280,480
78,64,317760,480
76,63,318240,240
73,57,318480,240
75,66,318720,240
62,48,318960,240
63,56,319200,480
66,64,319680,480
64,52,320160,240
61,48,320400,240
71,59,320640,120
75,59,320640,120
76,48,320760,120
75,48,320880,120
74,48,321000,120
75,55,321120,120
76,48,321240,120
78,48,321360,120
77,48,321480,120
80,57,321600,120
78,54,321720,120
77,54,321840,120
78,54,321960,120
76,56,322080,120
75,53,322200,120
76,51,322320,120
73,45,322440,120
63,59,322560,120
75,59,322560,240
64,48,322680,120
63,48,322800,120
62,48,322920,120
63,55,323040,120
64,48,323160,120
66,48,323280,120
65,48,323400,120
68,57,323520,120
66,54,323640,120
65,54,323760,120
66,54,323880,120
64,56,324000,120
63,53,324120,120
64,51,324240,120
66,45,324360,120
61,51,324480,240
54,51,324480,240
64,61,324480,240
66,63,326280,90
73,61,326400,358
73,54,326760,118
73,61,326880,180
75,48,327120,90
61,63,327240,90
73,51,327240,90
73,51,327360,120
64,61,327360,358
70,51,327600,120
64,54,327720,118
64,61,327840,180
66,48,328080,90
64,51,328200,90
64,51,328320,120
61,51,328560,120
66,63,329160,90
76,67,329280,358
64,63,329640,90
76,54,329640,118
73,61,329760,360
76,61,329760,180
73,54,330120,120
73,61,330240,180
73,63,331080,90
82,67,331200,358
61,63,331560,90
82,54,331560,118
70,61,331680,360
82,61,331680,180
70,54,332040,118
70,61,332160,180
52,64,332520,90
61,62,332640,840
55,68,333480,90
64,71,333600,600
55,70,334200,90
64,76,334320,360
79,72,334680,90
88,78,334800,360
56,74,335160,90
64,79,335280,360
80,76,335640,90
88,83,335760,360
57,78,336120,90
64,84,336240,360
81,81,336600,90
88,88,336720,360
57,85,337080,90
65,93,337200,360
81,89,337560,90
89,101,337680,240
74,82,337920,180
82,82,337920,180
77,82,337920,180
86,99,337931,180
74,91,338280,120
82,91,338280,120
86,111,338280,120
77,91,338280,120
77,82,338400,180
86,99,338400,180
82,82,338400,180
74,82,338400,180
74,84,338640,45
87,104,338640,45
82,84,338640,45
77,84,338640,45
74,86,338760,45
86,102,338760,45
77,86,338760,45
82,86,338760,45
77,91,338880,120
74,91,338880,120
82,91,338880,120
86,111,338880,120
74,84,339120,120
70,84,339120,120
77,84,339120,120
82,101,339120,120
77,101,339720,120
74,93,339720,120
82,82,339840,180
77,82,339840,180
89,99,339840,180
82,91,340200,120
77,91,340200,120
89,111,340200,120
86,91,340200,120
86,82,340320,180
82,82,340320,180
77,82,340320,180
89,99,340320,180
91,104,340560,45
86,84,340560,45
82,84,340560,45
77,84,340560,45
89,102,340680,45
86,86,340680,45
77,86,340680,45
82,86,340680,45
89,111,340800,120
86,91,340800,120
82,91,340800,120
77,91,340800,120
86,101,341040,120
74,84,341040,120
77,84,341040,120
82,84,341040,120
79,45,341520,120
82,54,341520,120
81,43,341640,120
84,51,341640,120
77,51,341760,480
86,61,341760,480
82,51,341760,480
77,47,342240,240
84,56,342240,240
81,47,342240,240
69,47,342480,120
72,56,342480,120
65,41,342480,240
71,35,342600,120
74,46,342600,120
67,49,342720,480
72,49,342720,480
75,58,342720,480
67,43,343200,240
74,51,343200,240
70,43,343200,240
74,58,343440,120
70,49,343440,480
75,60,343560,120
77,63,343680,360
67,45,343920,240
70,54,343920,240
79,60,344040,120
67,62,344160,240
77,62,344160,120
75,51,344280,240
69,57,344400,240
77,50,344520,120
70,51,344640,240
75,60,344640,120
74,46,344760,120
65,41,344880,120
68,41,344880,120
74,49,344880,120
77,49,344880,120
67,37,345000,120
72,44,345000,120
75,44,345000,120
63,37,345000,120
60,34,345120,240
72,40,345120,240
69,40,345120,240
74,58,345360,120
75,60,345480,120
77,63,345600,360
69,45,345720,120
70,54,345840,360
79,60,345960,120
75,64,346080,360
66,47,346200,120
69,53,346320,360
77,50,346440,120
75,60,346560,120
70,50,346680,120
74,50,346680,120
77,57,346800,120
65,35,346800,480
75,55,346920,120
72,50,347040,240
75,58,347280,120
63,49,347280,120
77,60,347400,120
65,51,347400,120
79,63,347520,360
67,45,347520,120
69,45,347640,120
70,54,347760,360
80,60,347880,120
77,64,348000,360
69,47,348120,120
70,53,348240,480
79,50,348360,120
77,60,348480,120
75,50,348600,120
70,35,348720,480
79,57,348720,120
77,55,348840,120
74,50,348960,240
77,58,349200,120
78,60,349320,120
80,63,349440,360
69,45,349560,120
70,54,349680,480
82,60,349800,120
78,64,349920,240
66,49,350160,120
78,58,350160,120
68,51,350280,120
80,60,350280,120
82,63,350400,360
70,38,350400,120
72,45,350520,120
73,54,350640,360
83,60,350760,120
80,64,350880,240
77,45,351000,120
78,47,351120,120
82,56,351120,120
83,60,351240,120
80,51,351240,120
82,65,351360,240
85,65,351360,360
78,54,351600,480
87,64,351720,120
85,60,351840,120
83,43,351960,240
77,53,352080,480
85,63,352200,120
83,60,352320,120
82,46,352440,240
78,53,352560,360
83,62,352680,120
82,58,352800,120
77,41,352920,120
80,48,352920,120
78,48,353040,120
82,56,353040,120
83,60,353160,120
80,50,353160,120
87,64,353280,120
80,51,353280,120
85,58,353400,120
77,46,353400,120
87,65,353520,120
78,52,353520,360
85,58,353640,120
85,66,353760,120
83,58,353880,120
76,46,353880,120
85,67,354000,120
77,53,354000,360
83,60,354120,120
83,67,354240,120
82,61,354360,120
73,48,354360,120
83,68,354480,120
78,54,354480,360
82,61,354600,120
82,69,354720,120
80,62,354840,120
77,49,354840,120
82,69,354960,120
78,55,354960,120
80,51,355080,120
83,63,355080,120
77,56,355200,120
87,70,355200,120
78,48,355320,120
85,61,355320,120
78,48,355440,240
73,61,355440,120
85,63,355560,118
85,71,355680,120
76,57,355680,120
83,62,355800,120
77,49,355800,120
71,62,355920,120
77,49,355920,240
83,62,356040,120
83,72,356160,120
77,58,356160,120
82,65,356280,120
78,52,356280,120
78,52,356400,240
70,65,356400,120
82,67,356520,118
82,75,356640,120
80,69,356760,120
82,70,356880,120
73,53,356880,240
83,70,357000,120
73,65,357120,120
87,81,357120,120
78,60,357240,120
85,75,357240,240
83,76,357360,240
77,60,357360,240
86,81,357480,240
82,61,357600,240
78,61,357600,240
87,80,357720,120
88,83,357840,120
82,61,357840,240
77,61,357840,240
89,87,357960,120
78,71,358080,240
92,89,358080,120
82,71,358080,240
90,85,358200,120
78,74,358320,240
89,91,358320,120
82,74,358320,240
87,82,358440,120
85,98,358560,120
80,77,358560,120
77,77,358560,120
77,81,358800,120
85,81,358800,120
80,81,358800,120
89,103,358800,120
78,97,359040,480
85,97,359040,480
82,97,359040,480
90,115,359040,480
58,63,359520,480
66,75,359520,480
61,63,359520,480
66,50,360000,60
70,59,360000,60
61,50,360000,60
66,61,360240,60
61,51,360240,60
58,51,360240,60
61,51,360480,60
66,51,360480,60
70,61,360480,60
65,51,360720,60
59,51,360720,60
62,51,360720,60
68,61,360720,60
83,89,360960,480
92,105,360960,480
86,89,360960,480
89,89,360960,480
80,89,360960,480
62,63,361440,480
68,75,361440,480
65,63,361440,480
59,63,361440,480
65,50,361920,60
68,50,361920,60
62,50,361920,60
71,59,361920,60
62,51,362160,60
68,61,362160,60
65,51,362160,60
59,51,362160,60
68,51,362400,60
62,51,362400,60
65,51,362400,60
71,61,362400,60
67,51,362640,60
61,51,362640,60
64,51,362640,60
70,61,362640,60
82,89,362880,480
85,89,362880,480
88,89,362880,480
94,105,362880,480
61,63,363360,480
67,63,363360,480
64,63,363360,480
70,75,363360,480
70,50,363840,60
67,50,363840,60
73,59,363840,60
64,50,363840,60
67,51,364080,60
64,51,364080,60
70,61,364080,60
61,51,364080,60
67,51,364320,60
70,51,364320,60
64,51,364320,60
73,61,364320,60
62,51,364560,60
71,61,364560,60
66,51,364560,60
83,89,364800,480
86,89,364800,480
95,105,364800,480
90,89,364800,480
71,75,365280,480
66,63,365280,480
62,63,365280,480
68,50,365760,60
65,50,365760,60
71,50,365760,60
74,59,365760,60
68,51,366000,60
71,61,366000,60
65,51,366000,60
62,51,366000,60
71,56,366240,60
74,67,366240,60
68,56,366240,60
65,56,366240,60
70,58,366480,60
73,69,366480,60
67,58,366480,60
64,58,366480,60
70,59,366720,60
76,69,366720,60
67,59,366720,60
73,59,366720,60
67,62,366960,60
70,62,366960,60
64,62,366960,60
73,74,366960,60
67,65,367200,60
73,65,367200,60
70,65,367200,60
76,77,367200,60
66,67,367440,60
74,81,367440,60
71,67,367440,60
78,82,367680,60
74,70,367680,60
66,70,367680,60
71,70,367680,60
71,74,367920,60
74,89,367920,60
66,74,367920,60
74,77,368160,60
71,77,368160,60
78,92,368160,60
66,77,368160,60
71,80,368400,60
68,80,368400,60
77,97,368400,60
73,80,368400,60
80,92,368640,240
92,108,368640,240
78,81,368880,240
90,96,368880,240
87,106,369120,240
75,90,369120,240
73,83,369360,240
85,99,369360,240
71,93,369600,240
83,106,369600,240
70,75,369840,240
82,90,369840,240
68,80,370080,240
80,95,370080,240
66,74,370320,240
78,89,370320,240
75,97,370560,240
63,82,370560,240
61,72,370800,240
73,86,370800,240
59,75,371040,240
71,90,371040,240
58,70,371280,240
70,83,371280,240
68,88,371520,240
56,73,371520,240
66,76,371760,240
54,63,371760,240
63,81,372000,240
51,68,372000,240
61,74,372240,240
49,62,372240,240
65,77,372480,240
61,67,372720,240
68,73,372960,240
61,67,373200,240
73,71,373440,240
61,59,373680,240
77,68,373920,240
61,56,374160,240
80,62,374400,240
61,49,374640,240
85,54,374880,240
61,45,375120,240
85,52,375360,240
61,41,375600,240
85,48,375840,240
83,91,376680,119
78,91,376680,119
86,111,376680,119
74,91,376680,119
78,82,376800,240
86,99,376800,240
74,82,376800,240
83,82,376800,240
83,84,377040,45
88,105,377040,45
74,84,377040,45
78,84,377040,45
78,86,377160,45
74,86,377160,45
83,86,377160,45
86,102,377160,45
86,111,377280,120
78,91,377280,120
83,91,377280,120
74,91,377280,120
83,101,377520,120
74,84,377520,120
78,84,377520,120
71,84,377520,120
78,33,378480,120
83,33,378480,120
74,33,378480,120
86,39,378480,120
86,45,378960,120
78,37,378960,120
83,37,378960,120
74,37,378960,120
83,42,379440,120
86,50,379440,120
79,42,379440,120
74,42,379440,120
86,54,379920,120
83,46,379920,120
79,46,379920,120
74,46,379920,120
83,46,380400,120
74,46,380400,120
79,46,380400,120
86,55,380400,120
79,51,380880,120
74,51,380880,120
86,60,380880,120
83,51,380880,120
84,50,381360,120
75,50,381360,120
79,50,381360,120
87,60,381360,120
79,55,381840,120
75,55,381840,120
87,65,381840,120
84,55,381840,120
87,65,382320,120
84,55,382320,120
75,55,382320,120
79,55,382320,120
84,60,382800,120
79,60,382800,120
75,60,382800,120
87,71,382800,120
75,59,383280,120
87,70,383280,120
84,59,383280,120
81,59,383280,120
75,64,383760,120
84,65,383760,120
81,65,383760,120
87,76,383760,120
87,75,384240,120
75,63,384240,120
81,63,384240,120
84,63,384240,120
81,69,384720,120
87,69,384720,120
84,69,384720,120
93,81,384720,120
84,68,385200,120
96,80,385200,120
87,68,385200,120
93,68,385200,120
87,74,385680,120
96,74,385680,120
99,87,385680,120
93,74,385680,120
87,75,385920,240
99,88,385920,240
93,75,385920,240
96,75,385920,240
84,57,386160,120
87,57,386160,120
83,57,386280,120
86,57,386280,120
84,63,386400,240
87,63,386400,240
69,52,386640,120
72,52,386640,120
73,52,386760,120
70,52,386760,120
72,58,386880,240
69,58,386880,240
72,47,387120,120
75,47,387120,120
74,47,387240,120
71,47,387240,120
75,56,387360,240
72,56,387360,240
81,47,387600,120
84,47,387720,120
87,57,387840,120
89,48,387960,120
87,49,388080,120
86,50,388200,120
87,65,388320,120
89,57,388440,120
91,66,388560,120
87,58,388680,120
84,69,388800,120
86,56,388920,120
87,66,389040,120
84,54,389160,120
81,66,389280,120
82,53,389400,120
84,61,389520,120
81,53,389640,120
75,47,389760,120
77,47,389880,120
79,58,390000,120
75,47,390120,120
72,47,390240,120
74,47,390360,120
75,53,390480,120
72,47,390600,120
69,47,390720,120
70,47,390840,120
72,52,390960,120
69,47,391080,120
65,47,391200,240
63,47,391200,240
60,47,391200,240
86,57,391680,120
87,48,391800,120
86,49,391920,120
84,50,392040,120
86,65,392160,120
87,57,392280,120
89,66,392400,120
86,58,392520,120
82,69,392640,120
84,56,392760,120
86,66,392880,120
82,54,393000,120
77,66,393120,120
81,53,393240,120
82,61,393360,120
77,53,393480,120
74,47,393600,120
75,47,393720,120
77,58,393840,120
74,47,393960,120
70,47,394080,120
72,47,394200,120
74,53,394320,120
70,47,394440,120
65,47,394560,120
69,47,394680,120
70,52,394800,120
62,47,394920,120
70,40,395040,120
72,40,395160,120
74,45,395280,118
70,40,395400,120
65,40,395520,240
72,46,395520,240
69,40,395520,240
91,52,395760,120
89,47,395880,120
91,40,396000,120
89,40,396120,120
87,45,396240,120
91,40,396360,120
87,52,396480,120
86,42,396600,120
84,49,396720,120
87,43,396840,120
84,48,396960,120
82,40,397080,120
81,45,397200,120
84,40,397320,120
78,52,397440,120
77,42,397560,120
75,49,397680,120
78,43,397800,120
75,48,397920,120
74,40,398040,120
72,45,398160,120
75,40,398280,120
72,52,398400,120
70,42,398520,120
69,49,398640,120
72,43,398760,120
63,48,398880,120
62,40,399000,120
60,45,399120,120
63,40,399240,120
65,40,399360,240
70,46,399360,240
89,52,399600,120
87,47,399720,120
89,40,399840,120
87,40,399960,120
86,45,400080,120
89,40,400200,120
86,52,400320,120
84,42,400440,120
82,49,400560,120
86,43,400680,120
77,48,400800,120
75,40,400920,120
74,45,401040,120
77,40,401160,120
82,52,401280,120
79,42,401400,120
77,49,401520,120
82,43,401640,120
74,48,401760,120
72,40,401880,120
70,45,402000,120
74,40,402120,120
86,62,402240,120
74,62,402240,480
84,51,402360,120
82,61,402480,120
86,52,402600,120
87,52,402720,120
78,62,402720,480
86,59,402840,120
87,62,402960,120
89,65,403080,120
77,51,403200,240
89,51,403200,240
72,40,404400,240
69,34,404400,240
74,38,404640,120
70,32,404640,120
94,47,404880,120
93,44,405000,120
94,47,405120,240
91,39,405360,240
82,33,405360,240
79,33,405360,240
81,35,405600,240
89,42,405600,240
77,35,405600,240
88,40,405840,240
79,30,405840,240
76,30,405840,240
79,38,406080,240
91,45,406080,240
82,38,406080,240
81,30,406320,240
77,30,406320,240
89,36,406320,240
81,30,406560,240
89,36,406560,240
70,38,406800,120
77,45,406800,120
75,40,406920,120
72,34,406920,120
74,46,407040,240
82,51,407280,240
70,43,407280,360
79,46,407520,120
75,43,407760,120
87,51,407760,120
79,37,407880,120
84,44,407880,120
81,51,408000,240
77,47,408240,360
89,56,408240,240
86,53,408480,120
82,52,408720,120
81,45,408840,120
82,52,408960,240
79,37,409200,240
91,47,409200,240
87,51,409440,240
75,37,409440,240
79,37,409440,240
86,44,409680,238
81,37,409680,238
74,37,409680,238
74,36,409920,240
81,44,409920,240
86,44,409920,720
84,50,410160,120
82,44,410280,118
82,49,410400,240
91,55,410640,240
82,46,410640,480
85,46,410640,240
84,44,410880,720
82,50,411120,120
80,44,411240,118
80,49,411360,240
80,55,411600,480
89,55,411600,240
83,55,411600,240
82,44,411840,720
80,50,412080,120
79,44,412200,118
79,49,412320,240
79,46,412560,480
88,55,412560,240
82,46,412560,240
81,44,412800,720
79,50,413040,120
77,44,413160,118
77,49,413280,240
80,46,413520,240
86,55,413520,240
77,46,413520,240
80,55,413760,120
77,46,413760,240
79,46,413880,240
75,46,414000,240
84,48,414120,120
78,55,414240,120
75,46,414240,240
77,47,414360,240
74,46,414480,240
82,49,414600,120
77,56,414720,120
89,49,414840,120
88,50,414960,120
87,50,415080,120
84,51,415200,120
81,52,415320,120
78,53,415440,120
77,54,415560,120
76,55,415680,120
75,56,415800,120
72,56,415920,120
69,57,416040,120
66,61,416160,120
70,51,416160,240
65,47,416280,120
79,58,416400,120
70,49,416400,240
77,47,416520,120
77,56,416640,120
89,50,416760,120
88,51,416880,120
87,52,417000,120
84,53,417120,120
81,54,417240,120
78,55,417360,120
77,57,417480,120
76,58,417600,120
75,59,417720,120
72,60,417840,120
69,61,417960,120
66,64,418080,120
70,64,418080,240
65,47,418200,120
70,49,418320,240
79,58,418320,120
77,47,418440,120
77,52,418560,120
74,45,418680,120
82,54,418680,120
77,49,418800,120
86,58,418800,120
84,52,418920,120
75,44,418920,120
82,58,419040,960
74,58,419040,120
78,50,419160,120
79,55,419280,120
74,50,419400,120
73,54,419520,120
78,58,419640,120
79,58,419760,120
73,53,419880,120
72,56,420000,120
76,50,420120,120
77,60,420240,120
89,54,420360,120
89,61,420480,120
101,48,420600,120
100,49,420720,120
99,50,420840,120
96,51,420960,120
93,51,421080,120
90,52,421200,120
89,53,421320,120
88,55,421440,120
87,60,421560,120
84,64,421680,120
81,67,421800,120
82,60,421920,240
78,72,421920,120
77,51,422040,120
91,63,422160,120
82,53,422160,240
89,51,422280,120
89,48,422520,120
88,49,422640,120
87,50,422760,120
84,51,422880,120
81,51,423000,120
78,52,423120,120
77,53,423240,120
76,57,423360,120
75,59,423480,120
72,61,423600,120
69,63,423720,120
70,54,423840,240
66,67,423840,120
65,51,423960,120
79,63,424080,120
70,53,424080,240
77,51,424200,120
77,56,424320,120
82,54,424440,120
74,45,424440,120
77,49,424560,120
86,58,424560,120
84,52,424680,120
75,44,424680,120
74,58,424800,120
82,58,424800,960
78,50,424920,120
79,55,425040,120
74,50,425160,120
73,54,425280,120
78,58,425400,120
79,58,425520,120
73,53,425640,120
72,56,425760,120
81,54,425760,240
77,50,425880,120
82,54,426000,240
70,60,426000,120
75,50,426120,120
82,54,426240,120
87,57,426360,120
79,47,426360,120
82,52,426480,120
91,62,426480,120
89,56,426600,120
80,47,426600,120
87,63,426720,960
79,63,426720,120
83,55,426840,120
84,61,426960,120
79,56,427080,120
78,61,427200,120
83,64,427320,120
84,66,427440,120
78,62,427560,120
77,66,427680,120
86,63,427680,240
82,59,427800,120
75,66,427920,120
87,64,427920,240
80,60,428040,120
87,63,428160,240
84,55,428280,120
87,60,428400,120
92,71,428400,240
85,55,428520,120
85,68,428640,120
92,73,428640,960
83,63,428760,120
82,70,428880,120
83,65,429000,120
83,70,429120,120
88,73,429240,120
89,77,429360,120
83,71,429480,120
91,78,429600,720
82,75,429600,120
86,68,429720,120
87,82,429840,120
82,69,429960,120
79,83,430080,240
91,93,430320,240
87,79,430320,240
79,79,430320,240
82,79,430320,240
86,74,430560,240
89,88,430560,240
91,86,430800,120
87,74,430800,120
89,78,430920,120
92,92,430920,120
94,96,431040,120
91,81,431040,120
91,91,431280,120
87,77,431280,120
91,93,432240,240
79,79,432240,240
82,79,432240,240
87,79,432240,240
89,88,432480,240
86,74,432480,240
87,74,432720,120
91,86,432720,120
89,78,432840,120
92,92,432840,120
91,81,432960,120
94,96,432960,120
79,86,433200,240
70,86,433200,240
72,86,433200,240
82,103,433200,240
76,86,433680,240
70,86,433680,240
79,86,433680,240
82,103,433680,240
82,103,434160,240
74,86,434160,240
77,86,434160,240
70,86,434160,240
72,79,434640,240
82,94,434640,240
70,79,434640,240
76,79,434640,240
74,65,434880,480
82,77,434880,480
70,65,434880,480
77,65,434880,480
77,64,435360,720
74,54,435360,720
74,63,436080,118
77,56,436320,120
81,57,436440,120
82,58,436560,120
86,59,436680,120
88,60,436800,120
89,61,436920,120
91,62,437040,120
89,62,437160,120
93,63,437280,120
94,64,437400,120
96,65,437520,120
94,66,437640,120
97,67,437760,120
98,68,437880,120
99,69,438000,120
98,70,438120,120
101,71,438240,240
75,70,438480,240
72,59,438480,240
74,58,438720,960
86,59,439200,480
87,57,439680,480
75,48,439680,480
90,61,440160,480
78,51,440160,480
82,62,440640,960
77,57,441120,480
74,51,441120,480
78,59,441600,480
90,60,441840,240
87,63,442080,480
75,53,442080,480
73,56,442560,480
85,66,442560,480
86,59,443040,480
74,56,443040,480
77,54,443520,480
89,64,443520,480
87,63,444000,360
75,53,444000,360
72,48,444360,120
84,57,444360,120
86,58,444480,960
82,49,444480,81
77,49,444480,960
84,42,444561,80
82,49,444641,81
84,44,444721,81
82,49,444802,80
84,44,444882,81
82,50,444960,81
84,44,445041,80
82,50,445121,81
84,46,445201,81
82,51,445282,80
84,45,445362,81
75,56,445440,480
82,51,445440,81
87,67,445440,480
84,44,445521,80
82,52,445601,81
84,47,445681,81
82,52,445762,80
84,47,445842,81
79,62,445920,480
82,53,445920,81
91,73,445920,480
84,47,446001,80
82,54,446081,81
84,48,446161,81
82,54,446242,80
84,48,446322,81
82,55,446400,81
94,85,446400,960
84,47,446481,80
82,55,446561,81
84,50,446641,81
82,56,446722,80
84,51,446802,81
82,56,446880,81
84,50,446961,80
82,57,447041,81
84,51,447121,81
82,57,447202,80
84,51,447282,81
79,61,447360,480
82,58,447360,81
91,72,447360,480
84,50,447441,80
82,59,447521,81
84,53,447601,81
82,59,447682,80
84,53,447762,81
75,65,447840,480
87,77,447840,480
82,60,447840,81
84,52,447921,80
82,60,448001,81
84,55,448081,81
82,61,448162,80
84,54,448242,81
82,61,448320,81
73,65,448320,240
85,83,448320,240
84,53,448401,80
82,62,448481,81
86,75,448560,480
74,65,448560,480
84,56,448561,81
82,62,448642,80
84,56,448722,81
82,63,448800,81
84,55,448881,80
82,64,448961,81
77,74,449040,240
89,86,449040,240
84,57,449041,81
82,64,449122,80
84,56,449202,81
89,86,449280,600
81,75,449280,81
82,66,449361,80
81,75,449441,81
82,64,449521,81
81,75,449602,80
82,68,449682,81
81,78,449760,81
82,69,449841,80
87,86,449880,120
81,75,449921,81
79,79,450000,120
84,79,450000,120
81,79,450120,120
89,79,450120,120
80,87,450240,120
77,87,450240,120
86,87,450240,120
89,103,450240,120
89,79,450480,480
92,79,450480,480
101,93,450480,480
98,79,450480,480
99,78,450960,120
92,66,450960,120
87,66,450960,120
89,66,450960,120
86,67,451200,120
98,79,451200,120
89,67,451200,120
92,67,451200,120
87,70,451440,120
89,70,451440,120
99,83,451440,120
92,70,451440,120
92,69,451680,120
101,82,451680,120
89,69,451680,120
98,69,451920,120
91,58,451920,120
89,58,451920,120
86,58,451920,120
87,50,452160,120
99,59,452160,120
91,50,452160,120
86,45,452400,120
98,53,452400,120
91,45,452400,120
89,45,452400,120
99,59,452640,120
87,50,452640,120
91,50,452640,120
91,45,452880,120
84,45,452880,120
96,53,452880,120
84,50,453120,120
94,59,453120,120
91,50,453120,120
88,45,453360,120
84,45,453360,120
94,53,453360,120
87,50,453600,120
84,50,453600,120
93,59,453600,120
84,45,453840,120
96,53,453840,120
87,45,453840,120
86,55,454080,120
82,55,454080,120
94,64,454080,120
77,50,454320,120
86,50,454320,120
89,59,454320,120
89,58,454560,120
81,58,454560,120
93,69,454560,120
87,58,454560,120
96,65,454800,120
89,55,454800,120
87,55,454800,120
84,55,454800,120
86,63,455040,120
94,75,455040,120
82,63,455040,120
89,69,455280,120
86,59,455280,120
77,59,455280,120
81,69,455520,120
87,69,455520,120
89,69,455520,120
93,80,455520,120
87,64,455760,120
89,64,455760,120
96,76,455760,120
84,64,455760,120
82,77,456000,120
94,70,456120,120
77,79,456240,120
89,73,456360,120
81,82,456480,120
93,76,456600,120
84,85,456720,120
96,79,456840,120
82,88,456960,120
94,82,457080,120
77,91,457200,120
89,81,457320,120
69,89,457440,120
81,81,457560,120
72,90,457680,120
84,80,457800,120
70,88,457920,120
82,82,458040,120
65,91,458160,120
77,81,458280,120
71,89,458400,120
83,81,458520,120
74,90,458640,120
86,80,458760,120
72,88,458880,120
84,82,459000,120
67,91,459120,120
79,81,459240,120
71,89,459360,120
83,81,459480,120
74,90,459600,120
86,80,459720,120
72,88,459840,120
84,82,459960,120
67,91,460080,120
79,81,460200,120
72,89,460320,120
84,81,460440,120
75,90,460560,120
87,80,460680,120
74,88,460800,120
86,82,460920,120
69,91,461040,120
81,80,461160,120
73,88,461280,120
85,80,461400,120
76,88,461520,120
88,78,461640,120
74,86,461760,120
86,79,461880,120
69,88,462000,120
81,78,462120,120
74,85,462240,120
86,77,462360,120
77,85,462480,120
89,76,462600,120
75,83,462720,120
87,77,462840,120
70,85,462960,120
82,76,463080,120
74,82,463200,120
86,75,463320,120
77,83,463440,120
89,73,463560,120
75,80,463680,120
87,75,463800,120
70,82,463920,120
82,73,464040,120
75,80,464160,120
87,72,464280,120
78,81,464400,120
90,71,464520,120
77,78,464640,120
89,72,464760,120
72,80,464880,120
84,71,465000,120
75,78,465120,120
87,70,465240,120
78,78,465360,120
90,69,465480,120
73,75,465600,120
85,70,465720,120
69,77,465840,120
81,68,465960,120
72,75,466080,120
84,68,466200,120
75,75,466320,120
87,67,466440,120
66,73,466560,120
78,68,466680,120
65,75,466800,120
77,66,466920,120
69,72,467040,120
81,66,467160,120
75,72,467280,120
87,64,467400,120
71,40,467520,120
74,58,467520,960
70,34,467640,120
71,40,467760,120
70,35,467880,120
71,40,468000,120
70,35,468120,120
71,40,468240,120
70,36,468360,120
71,40,468480,120
75,48,468480,480
70,34,468600,120
71,40,468720,120
70,35,468840,120
78,51,468960,480
71,40,468960,120
70,35,469080,120
71,40,469200,120
70,36,469320,120
82,60,469440,960
71,40,469440,120
70,34,469560,120
71,40,469680,120
70,35,469800,120
71,40,469920,120
70,35,470040,120
71,40,470160,120
70,36,470280,120
71,40,470400,120
78,62,470400,480
70,34,470520,120
71,40,470640,120
70,35,470760,120
71,40,470880,120
75,51,470880,480
70,35,471000,120
70,40,471120,120
72,36,471240,120
74,52,471360,960
70,39,471360,81
72,33,471441,80
70,39,471521,81
72,35,471601,81
70,39,471682,80
72,35,471762,81
70,40,471840,81
72,35,471921,80
70,40,472001,81
72,36,472081,81
70,40,472162,80
72,36,472242,81
75,60,472320,720
70,40,472320,81
72,35,472401,80
70,41,472481,81
72,37,472561,81
70,41,472642,80
72,37,472722,81
70,42,472800,81
72,37,472881,80
70,43,472961,81
79,65,473040,240
72,38,473041,81
70,43,473122,80
72,38,473202,81
82,74,473280,720
70,44,473280,81
72,37,473361,80
70,44,473441,81
72,40,473521,81
70,45,473602,80
72,40,473682,81
70,45,473760,81
72,40,473841,80
70,45,473921,81
80,65,474000,240
72,40,474001,81
70,45,474082,80
72,40,474162,81
70,46,474240,81
79,64,474240,240
72,40,474321,80
70,47,474401,81
77,64,474480,240
72,42,474481,81
70,47,474562,80
72,42,474642,81
70,48,474720,81
75,69,474720,240
72,41,474801,80
70,48,474881,81
74,69,474960,240
72,44,474961,81
70,48,475042,80
72,43,475122,81
75,66,475200,720
70,43,475200,81
72,37,475281,80
70,44,475361,81
72,39,475441,81
70,42,475522,80
72,38,475602,81
70,43,475680,81
72,36,475761,80
70,42,475841,81
74,63,475920,240
72,37,475921,81
70,41,476002,80
72,36,476082,81
77,60,476160,240
70,39,476160,81
72,33,476241,80
70,38,476321,81
75,57,476400,480
72,34,476401,81
70,37,476482,80
72,33,476562,81
70,37,476640,81
72,32,476721,80
70,37,476801,81
74,55,476880,240
72,32,476881,81
70,36,476962,80
72,31,477042,81
70,50,477120,960
74,39,477120,61
75,33,477181,60
74,38,477241,60
75,34,477301,61
74,37,477361,61
75,33,477422,60
74,37,477480,61
75,32,477541,60
74,37,477601,60
75,32,477661,61
74,36,477721,61
75,31,477782,60
74,37,477840,60
75,32,477907,60
74,36,477960,60
72,32,478010,60
74,41,478080,132
75,37,478200,132
74,41,478320,132
72,37,478440,132
70,42,478560,132
69,37,478680,132
70,40,478800,132
72,37,478920,132
74,41,479040,132
75,42,479160,132
77,43,479280,132
79,44,479400,132
81,45,479520,132
82,46,479640,132
84,47,479760,132
86,48,479880,132
87,49,480000,132
89,46,480120,132
87,48,480240,132
86,47,480360,132
84,46,480480,132
82,45,480600,132
81,44,480720,132
79,43,480840,132
77,42,480960,132
75,41,481080,132
74,40,481200,132
72,39,481320,132
70,38,481440,132
69,37,481560,132
67,35,481680,132
65,34,481800,120
74,37,481920,357
65,31,481920,357
65,25,482280,119
74,30,482280,119
74,39,482400,240
65,33,482400,240
62,71,482760,120
65,71,482760,120
67,85,482760,120
63,88,482880,357
75,105,482880,357
67,88,482880,357
63,59,483240,119
67,59,483240,119
75,72,483240,119
75,94,483360,240
67,79,483360,240
63,79,483360,240
67,30,483720,120
65,25,483720,120
67,31,483840,357
75,37,483840,357
75,30,484200,119
67,25,484200,119
75,39,484320,240
67,33,484320,240
64,71,484680,120
67,71,484680,120
69,85,484680,120
65,88,484800,357
77,105,484800,357
69,88,484800,357
77,72,485160,119
69,59,485160,119
65,59,485160,119
69,79,485280,240
77,94,485280,240
65,79,485280,240
67,25,485640,120
69,30,485640,120
77,37,485760,357
69,31,485760,357
69,25,486120,119
77,30,486120,119
77,39,486240,240
69,33,486240,240
65,65,486600,120
68,65,486600,120
70,78,486600,120
67,80,486720,357
70,80,486720,357
79,96,486720,357
67,54,487080,119
79,66,487080,119
70,54,487080,119
79,86,487200,240
70,72,487200,240
67,72,487200,240
67,74,488520,120
75,90,488520,120
69,92,488640,357
72,92,488640,357
81,110,488640,357
75,92,488640,357
69,67,489000,119
72,67,489000,119
75,67,489000,119
81,82,489000,119
81,108,489120,240
72,90,489120,240
69,90,489120,240
75,90,489120,240
86,57,490920,120
82,47,490920,120
77,47,490920,120
74,47,490920,120
82,42,491040,180
74,42,491040,180
86,51,491040,180
77,42,491040,180
77,45,491280,60
82,45,491280,60
74,45,491280,60
87,55,491280,60
82,47,491400,60
86,55,491400,60
77,47,491400,60
74,47,491400,60
86,62,491520,60
77,51,491520,60
74,51,491520,60
82,51,491520,60
74,49,491760,60
70,49,491760,60
77,49,491760,60
82,59,491760,60
65,76,492000,60
70,76,492000,60
62,76,492000,60
74,92,492000,60
62,70,492240,60
65,70,492240,60
58,70,492240,60
70,84,492240,60
77,42,492480,357
86,42,492480,357
82,42,492480,357
89,51,492480,357
86,47,492840,120
77,47,492840,120
89,57,492840,120
82,47,492840,120
82,42,492960,180
77,42,492960,180
86,42,492960,180
89,51,492960,180
91,55,493200,60
86,45,493200,60
77,45,493200,60
82,45,493200,60
77,47,493320,60
89,55,493320,60
82,47,493320,60
86,47,493320,60
89,62,493440,60
82,51,493440,60
77,51,493440,60
86,51,493440,60
77,49,493680,60
74,49,493680,60
82,49,493680,60
86,59,493680,60
77,92,493920,60
70,76,493920,60
65,76,493920,60
74,76,493920,60
74,84,494160,60
65,70,494160,60
62,70,494160,60
70,70,494160,60
89,55,494400,60
86,45,494400,60
86,53,494640,60
82,44,494640,60
77,90,494880,60
74,74,494880,60
74,75,495120,60
70,63,495120,60
86,55,495360,60
82,45,495360,60
82,53,495600,60
77,44,495600,60
74,90,495840,60
70,74,495840,60
70,75,496080,60
65,63,496080,60
82,55,496320,60
77,45,496320,60
77,53,496560,60
74,44,496560,60
70,90,496800,60
65,74,496800,60
62,63,497040,60
65,75,497040,60
69,42,497280,960
75,52,497280,960
74,45,498240,60
77,55,498240,60
70,44,498480,60
74,53,498480,60
62,61,498720,60
65,75,498720,60
58,57,498960,60
62,68,498960,60
70,51,499200,60
74,62,499200,60
65,49,499440,60
70,59,499440,60
62,79,499680,60
58,65,499680,60
58,72,499920,60
53,60,499920,60
65,51,500160,60
70,62,500160,60
62,49,500400,60
65,59,500400,60
53,65,500640,60
58,79,500640,60
50,60,500880,60
53,72,500880,60
57,42,501120,960
63,52,501120,960
57,42,502440,60
66,51,502440,60
63,42,502440,60
66,45,502560,60
63,37,502560,60
57,37,502560,60
58,40,502800,60
65,49,502800,60
62,40,502800,60
54,41,503400,60
60,41,503400,60
57,41,503400,60
63,49,503400,60
54,35,503520,60
57,35,503520,60
60,35,503520,60
63,43,503520,60
53,38,503760,60
58,38,503760,60
62,46,503760,60
63,46,504360,60
54,38,504360,60
57,38,504360,60
60,38,504360,60
60,33,504480,60
57,33,504480,60
63,40,504480,60
54,33,504480,60
62,43,504720,60
53,35,504720,60
58,35,504720,60
51,35,505320,60
58,35,505320,60
54,35,505320,60
60,43,505320,60
51,31,505440,60
54,31,505440,60
58,31,505440,60
60,37,505440,60
58,40,505680,60
50,32,505680,60
53,32,505680,60
50,33,506280,60
53,33,506280,60
58,33,506280,60
62,40,506280,60
53,29,506400,60
50,29,506400,60
58,29,506400,60
62,36,506400,60
53,32,506640,60
50,32,506640,60
58,39,506640,60
53,26,507120,240
62,32,507120,240
58,26,507120,240
50,26,507120,240
89,100,508320,240
86,100,508320,240
82,100,508320,240
94,119,508320,240
70,119,508800,960
58,100,508800,960
34,96,840,120
62,93,960,360
53,78,960,360
58,78,960,360
53,69,1320,120
62,84,1320,120
58,69,1320,120
62,93,1440,180
58,78,1440,180
53,78,1440,180
62,88,1680,45
58,75,1680,45
53,75,1680,45
58,78,1800,45
62,93,1800,45
53,78,1800,45
62,93,1920,120
53,78,1920,120
58,78,1920,120
53,78,2160,120
50,78,2160,120
58,93,2160,120
34,96,2760,120
58,78,2880,360
53,78,2880,360
62,78,2880,360
65,93,2880,360
58,69,3240,120
53,69,3240,120
62,69,3240,120
65,84,3240,120
58,78,3360,180
65,93,3360,180
62,78,3360,180
53,78,3360,180
62,75,3600,45
58,75,3600,45
65,88,3600,45
53,75,3600,45
62,78,3720,45
58,78,3720,45
65,93,3720,45
53,78,3720,45
58,78,3840,120
65,93,3840,120
53,78,3840,120
62,78,3840,120
58,78,4080,120
62,93,4080,120
53,78,4080,120
64,29,5040,240
65,29,5280,240
59,40,5520,240
60,40,5760,240
54,36,6000,240
55,36,6240,240
51,40,6480,240
50,40,6720,240
49,35,6960,240
48,35,7200,240
41,40,7440,240
46,38,7680,240
39,30,7920,240
41,27,8160,240
76,29,8880,240
77,29,9120,240
71,40,9360,240
72,40,9600,240
66,36,9840,240
67,36,10080,240
63,40,10320,240
62,40,10560,240
61,35,10800,240
60,35,11040,240
53,40,11280,240
58,36,11520,240
54,43,11760,240
53,44,12000,240
51,45,12240,240
50,46,12480,240
49,47,12720,240
48,48,12960,240
41,50,13200,240
46,50,13440,240
42,52,13680,240
41,53,13920,240
39,54,14160,240
38,55,14400,240
37,56,14640,240
36,57,14880,240
30,58,15120,240
31,67,15360,240
39,61,15600,240
41,70,15840,120
29,66,16080,120
41,66,16080,120
46,68,16320,120
34,57,16320,120
53,47,16440,120
58,47,16440,120
62,56,16440,120
62,56,16560,120
58,47,16560,120
53,47,16560,120
53,47,16680,120
62,56,16680,120
58,47,16680,120
62,53,16920,120
53,45,16920,120
58,45,16920,120
58,45,17040,120
53,45,17040,120
62,54,17040,120
58,45,17160,120
53,45,17160,120
62,54,17160,120
53,37,17400,60
58,37,17400,60
62,44,17400,60
58,44,17640,60
50,37,17640,60
53,37,17880,60
58,37,17880,60
62,44,17880,60
60,44,18120,60
51,37,18120,60
58,37,18120,60
46,78,18240,120
34,65,18240,120
58,54,18360,120
63,64,18360,120
55,54,18360,120
63,64,18480,120
55,54,18480,120
58,54,18480,120
63,64,18600,120
58,54,18600,120
55,54,18600,120
58,45,18840,120
60,53,18840,120
51,45,18840,120
58,45,18960,120
60,54,18960,120
51,45,18960,120
60,54,19080,120
58,45,19080,120
51,45,19080,120
58,37,19320,60
63,44,19320,60
55,37,19320,60
52,37,19560,60
58,37,19560,60
61,44,19560,60
54,37,19800,60
63,44,19800,60
58,37,19800,60
62,44,20040,60
53,37,20040,60
58,37,20040,60
46,74,20160,120
34,62,20160,120
58,51,20280,120
56,51,20280,120
65,61,20280,120
65,61,20400,120
56,51,20400,120
58,51,20400,120
65,61,20520,120
56,51,20520,120
58,51,20520,120
58,45,20760,120
53,45,20760,120
62,53,20760,120
62,54,20880,120
58,45,20880,120
53,45,20880,120
58,45,21000,120
62,54,21000,120
53,45,21000,120
58,37,21240,60
65,44,21240,60
56,37,21240,60
58,37,21480,60
54,37,21480,60
62,44,21480,60
58,37,21720,60
65,44,21720,60
56,37,21720,60
58,37,21960,60
63,44,21960,60
55,37,21960,60
46,74,22080,120
34,62,22080,120
63,51,22200,120
67,61,22200,120
58,51,22200,120
67,61,22320,120
58,51,22320,120
63,51,22320,120
67,61,22440,120
58,51,22440,120
63,51,22440,120
58,45,22680,120
63,53,22680,120
55,45,22680,120
63,54,22800,120
58,45,22800,120
55,45,22800,120
58,45,22920,120
63,54,22920,120
55,45,22920,120
58,33,23160,60
67,39,23160,60
63,33,23160,60
64,39,23400,60
58,33,23400,60
61,33,23400,60
63,36,23640,60
58,36,23640,60
66,44,23640,60
62,37,23880,60
58,37,23880,60
65,45,23880,60
58,39,24120,60
65,39,24120,60
68,46,24120,60
58,40,24360,60
66,48,24360,60
62,40,24360,60
68,50,24600,60
65,42,24600,60
58,42,24600,60
58,43,24840,60
67,52,24840,60
63,43,24840,60
60,45,25080,60
67,53,25080,60
63,45,25080,60
58,45,25080,60
68,54,25320,60
58,45,25320,60
63,45,25320,60
60,45,25320,60
70,56,25560,60
58,47,25560,60
60,47,25560,60
63,47,25560,60
60,48,25800,60
63,48,25800,60
58,48,25800,60
69,58,25800,60
72,66,26040,60
60,56,26040,60
70,66,26280,60
58,56,26280,60
55,56,26520,60
67,66,26520,60
65,66,26760,60
53,56,26760,60
51,50,27000,60
63,59,27000,60
62,59,27240,60
50,50,27240,60
48,50,27480,60
60,59,27480,60
58,59,27720,60
46,50,27720,60
55,59,27960,60
43,50,27960,60
41,50,28200,60
53,59,28200,60
39,47,28440,60
51,56,28440,60
50,56,28680,60
38,47,28680,60
48,53,28920,60
36,45,28920,60
34,45,29160,60
46,53,29160,60
31,45,29400,60
43,53,29400,60
29,45,29640,60
41,53,29640,60
33,42,29880,120
29,28,30120,120
36,39,30360,120
29,27,30600,120
41,37,30840,120
29,26,31080,120
45,34,31320,120
29,24,31560,120
48,32,31800,120
29,23,32040,120
53,29,32280,120
29,24,32520,120
53,28,32760,120
29,21,33000,120
53,21,33240,120
34,77,33480,120
62,81,33600,360
53,68,33600,360
58,68,33600,360
62,73,33960,120
58,61,33960,120
53,61,33960,120
53,68,34080,240
58,68,34080,240
62,81,34080,240
53,66,34320,45
62,77,34320,45
58,66,34320,45
53,68,34440,45
62,81,34440,45
58,68,34440,45
53,68,34560,120
62,81,34560,120
58,68,34560,120
50,68,34800,120
58,81,34800,120
53,68,34800,120
34,84,35400,120
62,81,35520,360
50,68,35520,360
58,68,35520,360
53,68,35520,360
58,61,35880,120
50,61,35880,120
53,61,35880,120
62,73,35880,120
62,97,36000,240
50,81,36000,240
57,66,36240,45
62,77,36240,45
50,66,36240,45
54,66,36240,45
62,81,36360,45
54,68,36360,45
57,68,36360,45
50,68,36360,45
57,68,36480,120
54,68,36480,120
62,81,36480,120
50,68,36480,120
57,68,36720,120
50,68,36720,120
54,68,36720,120
62,81,36720,120
50,39,37320,120
62,45,37440,360
50,40,37800,120
62,47,37920,360
50,42,38280,120
62,49,38400,360
50,41,38760,120
62,52,38880,360
50,44,39240,120
57,55,39360,360
60,55,39360,360
50,46,39720,120
60,58,39840,360
57,58,39840,360
50,50,40200,120
57,60,40320,360
54,60,40320,360
50,52,40680,120
45,63,40800,360
50,52,41160,120
45,65,41280,360
50,57,41640,120
43,68,41760,360
50,57,42120,120
42,71,42240,360
50,59,42600,120
39,73,42720,360
50,67,43080,120
38,67,43200,240
50,73,43200,240
75,48,43440,120
74,48,43560,120
75,54,43680,240
74,44,43920,120
73,44,44040,120
74,44,44160,240
63,43,44400,120
62,43,44520,120
63,51,44640,240
62,43,44880,120
61,43,45000,120
62,51,45120,240
50,42,45480,120
54,51,45600,240
57,40,45960,120
60,51,46080,240
66,43,46440,120
69,51,46560,240
72,45,46800,120
69,45,46920,120
81,40,47040,120
83,40,47160,120
84,44,47280,120
81,40,47400,120
72,40,47520,120
74,40,47640,120
76,45,47760,120
72,40,47880,120
69,40,48000,120
71,40,48120,120
72,45,48240,120
69,40,48360,118
66,40,48480,120
67,40,48600,120
69,45,48720,120
66,40,48840,120
71,51,48960,240
62,48,48960,240
67,48,48960,240
50,42,49320,120
55,51,49440,240
59,40,49800,120
62,51,49920,240
67,43,50280,120
71,51,50400,240
74,45,50760,120
79,40,50880,120
81,40,51000,120
83,44,51120,120
79,40,51240,118
71,40,51360,120
72,40,51480,120
74,45,51600,120
71,40,51720,120
67,40,51840,120
69,40,51960,120
71,45,52080,118
67,40,52200,118
71,40,52320,120
72,40,52440,120
74,45,52560,120
71,40,52680,120
72,40,52800,120
74,40,52920,120
72,45,53040,120
71,40,53160,120
72,40,53280,120
74,40,53400,120
76,45,53520,120
72,40,53640,120
69,46,53760,120
71,38,53880,120
72,45,54000,120
69,40,54120,120
66,45,54240,120
67,36,54360,120
69,41,54480,120
66,36,54600,120
60,46,54720,120
62,38,54840,120
64,45,54960,120
60,40,55080,120
57,45,55200,120
59,36,55320,120
60,41,55440,120
57,36,55560,120
54,46,55680,120
55,38,55800,120
57,45,55920,120
54,40,56040,120
69,45,56160,120
67,36,56280,120
66,41,56400,120
69,36,56520,120
71,40,56640,120
72,40,56760,120
71,45,56880,120
69,40,57000,120
71,40,57120,120
72,40,57240,120
74,45,57360,120
71,40,57480,120
67,46,57600,120
69,38,57720,120
71,45,57840,120
67,40,57960,120
62,45,58080,120
66,36,58200,120
67,41,58320,120
62,36,58440,120
59,46,58560,120
60,38,58680,120
62,45,58800,120
59,40,58920,120
55,45,59040,120
57,36,59160,120
59,41,59280,120
55,36,59400,120
50,46,59520,120
54,38,59640,120
55,45,59760,120
50,40,59880,120
48,45,60000,120
55,36,60120,120
50,41,60240,120
48,36,60360,120
47,36,60480,240
43,34,60720,240
55,40,60720,240
52,36,60960,120
48,30,60960,120
60,40,61200,120
57,36,61320,120
54,36,61440,240
50,31,61680,240
62,36,61680,240
59,36,61920,120
55,30,61920,120
64,36,62160,480
55,30,62160,480
55,30,62640,240
64,36,62640,240
66,40,62880,240
57,34,62880,240
57,25,63120,240
67,30,63120,120
69,36,63240,120
69,36,63360,240
62,30,63360,720
71,36,63600,180
73,31,63780,60
74,36,63840,240
76,37,64080,120
78,36,64200,120
79,36,64320,240
74,36,64560,240
71,30,64560,240
72,30,64800,120
76,36,64800,120
69,36,65040,120
72,32,65160,120
74,36,65280,240
66,30,65520,240
69,36,65520,240
67,33,65760,120
71,36,65760,120
67,30,66240,240
64,30,66240,240
71,36,66240,240
72,36,66480,240
67,30,66480,240
64,30,66480,240
64,30,66720,240
67,36,66720,120
72,36,66720,240
69,30,66840,120
66,30,66960,240
63,30,66960,240
71,36,66960,240
71,36,67200,240
66,30,67200,240
63,30,67200,240
63,31,67440,240
59,26,67440,240
64,30,67680,240
67,36,67680,240
62,34,67920,120
65,40,67920,120
64,36,68040,120
61,30,68040,120
61,30,68160,240
64,36,68160,240
57,26,68400,240
61,31,68400,240
62,30,68640,240
65,36,68640,240
63,40,68880,120
60,34,68880,120
62,36,69000,119
59,30,69000,119
59,30,69120,240
62,36,69120,240
59,31,69360,240
55,26,69360,240
60,30,69600,240
64,36,69600,240
63,40,69840,120
59,34,69840,120
58,30,69960,119
61,36,69960,119
58,30,70080,240
61,36,70080,240
58,31,70320,240
54,26,70320,240
62,36,70560,240
59,30,70560,240
61,40,70800,120
57,34,70800,120
59,36,70920,120
56,30,70920,120
59,36,71040,240
56,30,71040,240
57,36,71280,120
64,30,71280,240
55,30,71400,120
54,30,71520,240
57,36,71520,240
55,36,71760,120
59,30,71760,240
47,32,71880,120
50,25,72000,1440
60,30,72000,1440
45,25,72000,1440
59,30,73440,480
47,25,73440,480
50,25,73440,480
45,25,73920,1440
60,30,73920,1440
50,25,73920,1440
47,25,75360,480
50,25,75360,480
59,30,75360,480
47,30,75840,480
35,25,75840,480
40,23,76320,480
52,28,76320,480
49,30,76800,480
37,25,76800,480
50,29,77280,240
38,24,77280,240
57,25,77760,1440
72,30,77760,1440
62,25,77760,1440
71,30,79200,480
59,25,79200,480
62,25,79200,480
60,30,79680,1440
45,25,79680,1440
50,25,79680,1440
47,25,81120,240
59,30,81120,240
50,25,81120,240
59,30,81360,240
59,30,81600,480
64,28,82080,480
61,30,82560,480
62,29,83040,240
63,29,83280,240
64,31,83520,480
69,30,84000,480
66,33,84480,480
67,34,84960,240
68,34,85200,240
69,36,85440,480
73,35,85920,480
71,39,86400,480
60,39,86880,720
72,39,86880,720
36,56,87600,240
48,66,87600,240
64,82,88560,120
60,69,88560,120
59,67,88800,240
62,79,88800,240
60,68,89040,120
64,81,89040,120
65,84,89160,120
62,71,89160,120
67,88,89280,120
64,74,89280,120
48,66,89520,240
36,56,89520,240
37,62,90480,240
49,74,90480,240
45,79,90960,240
33,67,90960,240
50,74,91440,240
38,62,91440,240
52,79,91920,240
40,67,91920,240
38,50,92160,120
42,50,92280,120
43,50,92400,120
47,50,92520,120
50,50,92640,120
54,50,92760,120
55,50,92880,120
59,50,93000,120
62,50,93120,120
66,50,93240,120
67,50,93360,120
71,50,93480,120
67,43,93840,120
71,44,93960,120
73,45,94080,120
74,46,94200,120
76,47,94320,120
74,48,94440,120
78,50,94560,120
79,51,94680,120
81,52,94800,120
79,53,94920,120
82,54,95040,120
83,55,95160,120
84,56,95280,120
83,58,95400,120
86,59,95520,240
62,60,95760,80
64,63,95840,80
66,66,95920,80
55,40,96000,160
71,32,96160,160
67,32,96320,160
66,40,96480,160
71,33,96640,160
67,33,96800,160
63,40,96960,160
72,31,97120,160
67,31,97280,160
60,40,97440,160
72,33,97600,160
67,33,97760,160
59,40,97920,160
71,31,98080,160
67,31,98240,160
55,40,98400,160
71,32,98560,160
67,32,98720,160
60,40,98880,160
72,33,99040,160
67,33,99200,160
63,40,99360,160
72,32,99520,160
67,32,99680,160
62,40,99840,160
70,32,100000,160
67,32,100160,160
62,40,100320,160
71,36,100480,160
67,36,100640,160
62,40,100800,160
72,33,100960,160
69,33,101120,160
50,40,101280,160
62,34,101440,160
60,34,101600,160
43,40,101760,120
55,33,101880,120
59,33,102000,120
55,33,102120,120
54,41,102240,120
55,35,102360,120
67,35,102480,120
55,35,102600,120
52,42,102720,120
55,36,102840,120
67,36,102960,120
55,37,103080,120
48,44,103200,120
55,37,103320,120
64,37,103440,120
55,38,103560,120
47,45,103680,120
55,37,103800,120
62,37,103920,120
55,37,104040,120
43,46,104160,120
55,39,104280,120
59,40,104400,120
55,40,104520,120
48,48,104640,120
55,42,104760,120
64,42,104880,120
55,42,105000,120
52,51,105120,120
55,43,105240,120
67,43,105360,120
55,43,105480,120
50,50,105600,120
52,44,105720,120
54,48,105840,120
55,51,105960,120
57,54,106080,120
59,55,106200,120
57,55,106320,120
55,54,106440,120
54,54,106560,120
55,49,106680,120
54,49,106800,120
52,49,106920,120
50,54,107040,120
48,50,107160,120
47,59,107280,120
45,66,107400,120
31,66,107520,120
43,56,107640,120
31,66,107760,120
43,56,107880,120
31,66,108000,120
43,57,108120,120
31,66,108240,120
43,57,108360,120
31,66,108480,120
43,57,108600,120
31,66,108720,120
43,58,108840,120
31,66,108960,120
43,59,109080,120
32,45,109200,120
44,34,109320,120
33,43,109440,120
45,33,109560,120
32,43,109680,120
44,33,109800,120
33,43,109920,120
45,34,110040,120
36,43,110160,120
48,35,110280,120
37,43,110400,120
49,33,110520,120
40,43,110640,120
52,33,110760,120
38,43,110880,120
50,34,111000,120
38,43,111120,120
50,35,111240,120
38,47,111360,120
50,36,111480,120
43,48,111600,120
55,37,111720,120
38,50,111840,120
50,40,111960,118
50,53,112080,120
62,44,112200,120
38,54,112320,120
50,42,112440,120
43,57,112560,120
55,44,112680,120
38,58,112800,120
50,47,112920,118
50,61,113040,120
62,51,113160,120
43,59,113280,120
55,50,113400,120
38,61,113520,120
50,51,113640,120
42,64,113760,120
54,55,113880,120
45,67,114000,120
57,58,114120,120
43,68,114240,120
55,63,114360,120
38,71,114480,120
50,63,114600,120
30,74,114720,120
42,64,114840,120
33,76,114960,120
45,67,115080,120
31,69,115200,180
43,81,115200,180
33,69,115680,180
45,81,115680,180
34,72,116160,840
46,86,116160,840
46,50,117000,120
58,71,117120,360
58,58,117480,120
58,65,117600,240
50,50,118920,120
62,71,119040,360
62,58,119400,120
62,64,119520,240
34,96,120840,120
53,78,120960,360
62,93,120960,360
58,78,120960,360
58,69,121320,120
62,84,121320,120
53,69,121320,120
58,78,121440,180
53,78,121440,180
62,93,121440,180
58,75,121680,45
62,88,121680,45
53,75,121680,45
58,78,121800,45
53,78,121800,45
62,93,121800,45
62,93,121920,120
53,78,121920,120
58,78,121920,120
50,78,122160,120
58,93,122160,120
53,78,122160,120
34,96,122760,120
62,78,122880,360
58,78,122880,360
65,93,122880,360
53,78,122880,360
53,69,123240,120
65,84,123240,120
62,69,123240,120
58,69,123240,120
58,78,123360,180
65,93,123360,180
62,78,123360,180
53,78,123360,180
53,75,123600,45
58,75,123600,45
65,88,123600,45
62,75,123600,45
58,78,123720,45
65,93,123720,45
53,78,123720,45
62,78,123720,45
53,78,123840,120
62,78,123840,120
65,93,123840,120
58,78,123840,120
58,78,124080,120
62,93,124080,120
53,78,124080,120
64,29,125040,240
65,29,125280,240
59,40,125520,240
60,40,125760,240
54,36,126000,240
55,36,126240,240
51,40,126480,240
50,40,126720,240
49,35,126960,240
48,35,127200,240
41,40,127440,240
46,38,127680,240
39,30,127920,240
41,27,128160,240
76,29,128880,240
77,29,129120,240
71,40,129360,240
72,40,129600,240
66,36,129840,240
67,36,130080,240
63,40,130320,240
62,40,130560,240
61,35,130800,240
60,35,131040,240
53,40,131280,240
58,36,131520,240
54,43,131760,240
53,44,132000,240
51,45,132240,240
50,46,132480,240
49,47,132720,240
48,48,132960,240
41,50,133200,240
46,50,133440,240
42,52,133680,240
41,53,133920,240
39,54,134160,240
38,55,134400,240
37,56,134640,240
36,57,134880,240
30,58,135120,240
31,67,135360,240
39,61,135600,240
41,70,135840,120
29,66,136080,120
41,66,136080,120
34,57,136320,120
46,68,136320,120
62,56,136440,120
53,47,136440,120
58,47,136440,120
53,47,136560,120
62,56,136560,120
58,47,136560,120
62,56,136680,120
53,47,136680,120
58,47,136680,120
53,45,136920,120
58,45,136920,120
62,53,136920,120
58,45,137040,120
53,45,137040,120
62,54,137040,120
62,54,137160,120
53,45,137160,120
58,45,137160,120
53,37,137400,60
62,44,137400,60
58,37,137400,60
58,44,137640,60
50,37,137640,60
62,44,137880,60
58,37,137880,60
53,37,137880,60
58,37,138120,60
60,44,138120,60
51,37,138120,60
34,65,138240,120
46,78,138240,120
55,54,138360,120
63,64,138360,120
58,54,138360,120
55,54,138480,120
58,54,138480,120
63,64,138480,120
58,54,138600,120
63,64,138600,120
55,54,138600,120
60,53,138840,120
51,45,138840,120
58,45,138840,120
51,45,138960,120
58,45,138960,120
60,54,138960,120
60,54,139080,120
51,45,139080,120
58,45,139080,120
55,37,139320,60
63,44,139320,60
58,37,139320,60
58,37,139560,60
61,44,139560,60
52,37,139560,60
58,37,139800,60
63,44,139800,60
54,37,139800,60
58,37,140040,60
53,37,140040,60
62,44,140040,60
34,62,140160,120
46,74,140160,120
58,51,140280,120
56,51,140280,120
65,61,140280,120
56,51,140400,120
58,51,140400,120
65,61,140400,120
65,61,140520,120
58,51,140520,120
56,51,140520,120
58,45,140760,120
62,53,140760,120
53,45,140760,120
58,45,140880,120
62,54,140880,120
53,45,140880,120
53,45,141000,120
62,54,141000,120
58,45,141000,120
58,37,141240,60
65,44,141240,60
56,37,141240,60
62,44,141480,60
54,37,141480,60
58,37,141480,60
56,37,141720,60
58,37,141720,60
65,44,141720,60
63,44,141960,60
58,37,141960,60
55,37,141960,60
46,74,142080,120
34,62,142080,120
67,61,142200,120
58,51,142200,120
63,51,142200,120
58,51,142320,120
67,61,142320,120
63,51,142320,120
67,61,142440,120
63,51,142440,120
58,51,142440,120
55,45,142680,120
58,45,142680,120
63,53,142680,120
55,45,142800,120
58,45,142800,120
63,54,142800,120
55,45,142920,120
63,54,142920,120
58,45,142920,120
63,33,143160,60
67,39,143160,60
58,33,143160,60
64,39,143400,60
61,33,143400,60
58,33,143400,60
63,36,143640,60
66,44,143640,60
58,36,143640,60
58,37,143880,60
65,45,143880,60
62,37,143880,60
58,39,144120,60
68,46,144120,60
65,39,144120,60
58,40,144360,60
62,40,144360,60
66,48,144360,60
65,42,144600,60
58,42,144600,60
68,50,144600,60
58,43,144840,60
63,43,144840,60
67,52,144840,60
67,53,145080,60
58,45,145080,60
63,45,145080,60
60,45,145080,60
63,45,145320,60
60,45,145320,60
68,54,145320,60
58,45,145320,60
58,47,145560,60
60,47,145560,60
63,47,145560,60
70,56,145560,60
60,48,145800,60
58,48,145800,60
69,58,145800,60
63,48,145800,60
60,56,146040,60
72,66,146040,60
58,56,146280,60
70,66,146280,60
67,66,146520,60
55,56,146520,60
53,56,146760,60
65,66,146760,60
63,59,147000,60
51,50,147000,60
62,59,147240,60
50,50,147240,60
60,59,147480,60
48,50,147480,60
46,50,147720,60
58,59,147720,60
43,50,147960,60
55,59,147960,60
53,59,148200,60
41,50,148200,60
51,56,148440,60
39,47,148440,60
38,47,148680,60
50,56,148680,60
36,45,148920,60
48,53,148920,60
46,53,149160,60
34,45,149160,60
31,45,149400,60
43,53,149400,60
41,53,149640,60
29,45,149640,60
33,42,149880,120
29,28,150120,120
36,39,150360,120
29,27,150600,120
41,37,150840,120
29,26,151080,120
45,34,151320,120
29,24,151560,120
48,32,151800,120
29,23,152040,120
53,29,152280,120
29,24,152520,120
53,28,152760,120
29,21,153000,120
53,21,153240,120
34,84,153480,120
53,68,153600,360
58,68,153600,360
62,81,153600,360
53,61,153960,120
58,61,153960,120
62,73,153960,120
62,81,154080,240
58,68,154080,240
53,68,154080,240
62,77,154320,45
58,66,154320,45
53,66,154320,45
53,68,154440,45
62,81,154440,45
58,68,154440,45
58,68,154560,120
62,81,154560,120
53,68,154560,120
50,68,154800,120
53,68,154800,120
58,81,154800,120
34,84,155400,120
53,68,155520,360
50,68,155520,360
58,68,155520,360
62,81,155520,360
53,61,155880,120
62,73,155880,120
50,61,155880,120
58,61,155880,120
50,81,156000,240
62,97,156000,240
50,66,156240,45
62,77,156240,45
54,66,156240,45
57,66,156240,45
50,68,156360,45
57,68,156360,45
54,68,156360,45
62,81,156360,45
54,68,156480,120
57,68,156480,120
50,68,156480,120
62,81,156480,120
50,68,156720,120
62,81,156720,120
54,68,156720,120
57,68,156720,120
50,39,157320,120
62,45,157440,360
50,40,157800,120
62,47,157920,360
50,42,158280,120
62,49,158400,360
50,41,158760,120
62,52,158880,360
50,44,159240,120
60,55,159360,360
57,55,159360,360
50,46,159720,120
60,58,159840,360
57,58,159840,360
50,50,160200,120
57,60,160320,360
54,60,160320,360
50,52,160680,120
45,63,160800,360
50,52,161160,120
45,65,161280,360
50,57,161640,120
43,68,161760,360
50,57,162120,120
42,71,162240,360
50,59,162600,120
39,73,162720,360
50,67,163080,120
50,73,163200,240
38,67,163200,240
75,48,163440,120
74,48,163560,120
75,54,163680,240
74,44,163920,120
73,44,164040,120
74,44,164160,240
63,43,164400,120
62,43,164520,120
63,51,164640,240
62,43,164880,120
61,43,165000,120
62,51,165120,240
50,42,165480,120
54,51,165600,240
57,40,165960,120
60,51,166080,240
66,43,166440,120
69,51,166560,240
72,45,166800,120
69,45,166920,120
81,40,167040,120
83,40,167160,120
84,44,167280,120
81,40,167400,120
72,40,167520,120
74,40,167640,120
76,45,167760,120
72,40,167880,120
69,40,168000,120
71,40,168120,120
72,45,168240,120
69,40,168360,118
66,40,168480,120
67,40,168600,120
69,45,168720,120
66,40,168840,120
67,48,168960,240
71,51,168960,240
62,48,168960,240
50,42,169320,120
55,51,169440,240
59,40,169800,120
62,51,169920,240
67,43,170280,120
71,51,170400,240
74,45,170760,120
79,40,170880,120
81,40,171000,120
83,44,171120,120
79,40,171240,118
71,40,171360,120
72,40,171480,120
74,45,171600,120
71,40,171720,120
67,40,171840,120
69,40,171960,120
71,45,172080,118
67,40,172200,118
71,40,172320,120
72,40,172440,120
74,45,172560,120
71,40,172680,120
72,40,172800,120
74,40,172920,120
72,45,173040,120
71,40,173160,120
72,40,173280,120
74,40,173400,120
76,45,173520,120
72,40,173640,120
69,46,173760,120
71,38,173880,120
72,45,174000,120
69,40,174120,120
66,45,174240,120
67,36,174360,120
69,41,174480,120
66,36,174600,120
60,46,174720,120
62,38,174840,120
64,45,174960,120
60,40,175080,120
57,45,175200,120
59,36,175320,120
60,41,175440,120
57,36,175560,120
54,46,175680,120
55,38,175800,120
57,45,175920,120
54,40,176040,120
69,45,176160,120
67,36,176280,120
66,41,176400,120
69,36,176520,120
71,40,176640,120
72,40,176760,120
71,45,176880,120
69,40,177000,120
71,40,177120,120
72,40,177240,120
74,45,177360,120
71,40,177480,120
67,46,177600,120
69,38,177720,120
71,45,177840,120
67,40,177960,120
62,45,178080,120
66,36,178200,120
67,41,178320,120
62,36,178440,120
59,46,178560,120
60,38,178680,120
62,45,178800,120
59,40,178920,120
55,45,179040,120
57,36,179160,120
59,41,179280,120
55,36,179400,120
50,46,179520,120
54,38,179640,120
55,45,179760,120
50,40,179880,120
48,45,180000,120
55,36,180120,120
50,41,180240,120
48,36,180360,120
47,36,180480,240
43,34,180720,240
55,40,180720,240
52,36,180960,120
48,30,180960,120
60,40,181200,120
57,36,181320,120
54,36,181440,240
50,31,181680,240
62,36,181680,240
55,30,181920,120
59,36,181920,120
64,36,182160,480
55,30,182160,480
55,30,182640,240
64,36,182640,240
66,40,182880,240
57,34,182880,240
67,30,183120,120
57,25,183120,240
69,36,183240,120
62,30,183360,720
69,36,183360,240
71,36,183600,180
73,31,183780,60
74,36,183840,240
76,37,184080,120
78,36,184200,120
79,36,184320,240
71,30,184560,240
74,36,184560,240
76,36,184800,120
72,30,184800,120
69,36,185040,120
72,32,185160,120
74,36,185280,240
69,36,185520,240
66,30,185520,240
67,33,185760,120
71,36,185760,120
64,30,186240,240
67,30,186240,240
71,36,186240,240
64,30,186480,240
72,36,186480,240
67,30,186480,240
67,36,186720,120
64,30,186720,240
72,36,186720,240
69,30,186840,120
63,30,186960,240
66,30,186960,240
71,36,186960,240
66,30,187200,240
71,36,187200,240
63,30,187200,240
63,31,187440,240
59,26,187440,240
67,36,187680,240
64,30,187680,240
65,40,187920,120
62,34,187920,120
64,36,188040,119
61,30,188040,119
64,36,188160,240
61,30,188160,240
61,31,188400,240
57,26,188400,240
65,36,188640,240
62,30,188640,240
63,40,188880,120
60,34,188880,120
62,36,189000,120
59,30,189000,120
59,30,189120,240
62,36,189120,240
55,26,189360,240
59,31,189360,240
60,30,189600,240
64,36,189600,240
59,34,189840,120
63,40,189840,120
58,30,189960,119
61,36,189960,119
58,30,190080,240
61,36,190080,240
54,26,190320,240
58,31,190320,240
59,30,190560,240
62,36,190560,240
57,34,190800,120
61,40,190800,120
59,36,190920,119
56,30,190920,119
59,36,191040,240
56,30,191040,240
57,36,191280,120
64,30,191280,240
55,30,191400,120
57,36,191520,240
54,30,191520,240
55,36,191760,120
59,30,191760,240
47,32,191880,120
45,25,192000,1440
50,25,192000,1440
60,30,192000,1440
59,30,193440,480
47,25,193440,480
50,25,193440,480
45,25,193920,1440
60,30,193920,1440
50,25,193920,1440
47,25,195360,480
59,30,195360,480
50,25,195360,480
35,25,195840,480
47,30,195840,480
52,28,196320,480
40,23,196320,480
37,25,196800,480
49,30,196800,480
50,29,197280,240
38,24,197280,240
62,25,197760,1440
72,30,197760,1440
57,25,197760,1440
71,30,199200,480
59,25,199200,480
62,25,199200,480
45,25,199680,1440
50,25,199680,1440
60,30,199680,1440
50,25,201120,240
47,25,201120,240
59,30,201120,240
59,30,201360,238
59,30,201600,480
64,28,202080,480
61,30,202560,480
62,29,203040,240
63,29,203280,240
64,31,203520,480
69,30,204000,480
66,33,204480,480
67,34,204960,240
68,34,205200,240
69,36,205440,480
73,35,205920,480
71,39,206400,480
60,39,206880,720
72,39,206880,720
48,66,207600,240
36,56,207600,240
60,69,208560,120
64,82,208560,120
59,67,208800,240
62,79,208800,240
60,68,209040,120
64,81,209040,120
62,71,209160,120
65,84,209160,120
64,74,209280,120
67,88,209280,120
36,56,209520,240
48,66,209520,240
37,62,210480,240
49,74,210480,240
45,79,210960,240
33,67,210960,240
38,62,211440,240
50,74,211440,240
40,67,211920,240
52,79,211920,240
38,50,212160,120
42,50,212280,120
43,50,212400,120
47,50,212520,120
50,50,212640,120
54,50,212760,120
55,50,212880,120
59,50,213000,120
62,50,213120,120
66,50,213240,120
67,50,213360,120
71,50,213480,120
67,43,213840,120
71,44,213960,120
73,45,214080,120
74,46,214200,120
76,47,214320,120
74,48,214440,120
78,50,214560,120
79,51,214680,120
81,52,214800,120
79,53,214920,120
82,54,215040,120
83,55,215160,120
84,56,215280,120
83,58,215400,120
86,59,215520,240
62,60,215760,80
64,63,215840,80
66,66,215920,80
55,40,216000,160
71,32,216160,160
67,32,216320,160
66,40,216480,160
71,33,216640,160
67,33,216800,160
63,40,216960,160
72,31,217120,160
67,31,217280,160
60,40,217440,160
72,33,217600,160
67,33,217760,160
59,40,217920,160
71,31,218080,160
67,31,218240,160
55,40,218400,160
71,32,218560,160
67,32,218720,160
60,40,218880,160
72,33,219040,160
67,33,219200,160
63,40,219360,160
72,32,219520,160
67,32,219680,160
62,40,219840,160
70,32,220000,160
67,32,220160,160
62,40,220320,160
71,36,220480,160
67,36,220640,160
62,40,220800,160
72,33,220960,160
69,33,221120,160
50,40,221280,160
62,34,221440,160
60,34,221600,160
43,40,221760,120
55,33,221880,120
59,33,222000,120
55,33,222120,120
54,41,222240,120
55,35,222360,120
67,35,222480,120
55,35,222600,120
52,42,222720,120
55,36,222840,120
67,36,222960,120
55,37,223080,120
48,44,223200,120
55,37,223320,120
64,37,223440,120
55,38,223560,120
47,45,223680,120
55,37,223800,120
62,37,223920,120
55,37,224040,120
43,46,224160,120
55,39,224280,120
59,40,224400,120
55,40,224520,120
48,48,224640,120
55,42,224760,120
64,42,224880,120
55,42,225000,120
52,51,225120,120
55,43,225240,120
67,43,225360,120
55,43,225480,120
50,50,225600,120
52,44,225720,120
54,48,225840,120
55,51,225960,120
57,54,226080,120
59,55,226200,120
57,55,226320,120
55,54,226440,120
54,54,226560,120
55,49,226680,120
54,49,226800,120
52,49,226920,120
50,54,227040,120
48,50,227160,120
47,59,227280,120
45,66,227400,120
31,66,227520,120
43,56,227640,120
31,66,227760,120
43,56,227880,120
31,66,228000,120
43,57,228120,120
31,66,228240,120
43,57,228360,120
31,66,228480,120
43,57,228600,120
31,66,228720,120
43,58,228840,120
31,66,228960,120
43,59,229080,120
32,45,229200,120
44,34,229320,120
33,43,229440,120
45,33,229560,120
32,43,229680,120
44,33,229800,120
33,43,229920,120
45,34,230040,120
36,43,230160,120
48,35,230280,120
37,43,230400,120
49,33,230520,120
40,43,230640,120
52,33,230760,120
38,43,230880,120
50,34,231000,120
38,43,231120,120
50,35,231240,120
38,47,231360,120
50,36,231480,120
43,48,231600,120
55,37,231720,120
38,50,231840,120
50,40,231960,120
50,53,232080,120
62,44,232200,120
38,54,232320,120
50,42,232440,120
43,57,232560,120
55,44,232680,120
38,58,232800,120
50,47,232920,120
50,61,233040,120
62,51,233160,120
43,59,233280,120
55,50,233400,120
38,61,233520,120
50,51,233640,120
42,64,233760,120
54,55,233880,120
45,67,234000,120
57,58,234120,120
43,68,234240,120
55,63,234360,120
38,71,234480,120
50,63,234600,120
30,74,234720,120
42,64,234840,120
33,76,234960,120
45,67,235080,120
43,81,235200,180
31,69,235200,180
33,69,235680,180
45,81,235680,180
35,72,236160,960
47,86,236160,960
47,81,237120,180
35,69,237120,180
48,81,237600,180
36,69,237600,180
50,86,238080,960
38,72,238080,960
71,39,239040,120
67,33,239160,120
71,39,239280,120
67,33,239400,120
71,39,239520,120
67,34,239640,120
72,39,239760,120
67,34,239880,120
74,39,240000,120
67,34,240120,120
72,39,240240,120
67,34,240360,120
71,39,240480,120
67,35,240600,120
74,27,240720,120
67,20,240840,120
72,39,240960,120
67,33,241080,120
72,39,241200,120
67,33,241320,120
72,39,241440,120
67,34,241560,120
71,39,241680,120
67,34,241800,120
72,39,241920,120
67,34,242040,120
71,39,242160,120
67,34,242280,120
72,39,242400,120
67,35,242520,120
72,27,242640,120
60,20,242760,120
70,42,242880,120
58,36,243000,120
62,44,243120,120
70,44,243120,120
58,38,243240,120
70,46,243360,120
62,46,243360,120
58,41,243480,120
70,48,243600,120
63,48,243600,120
58,43,243720,120
65,50,243840,120
70,50,243840,120
58,44,243960,120
70,52,244080,120
63,52,244080,120
58,46,244200,120
70,54,244320,120
62,54,244320,120
58,49,244440,120
44,44,244560,120
56,33,244680,120
43,77,244800,120
55,70,244920,114
55,70,245040,120
67,70,245160,120
41,77,245280,120
53,69,245400,114
53,69,245520,120
65,69,245640,120
39,85,245760,120
51,67,245880,114
63,82,246000,720
51,69,246000,720
55,40,246960,120
58,35,247080,120
53,40,247440,120
56,34,247560,120
55,40,247920,600
51,93,248520,120
63,90,248640,357
63,61,249000,117
63,66,249120,240
55,91,250440,120
67,80,250560,357
67,63,250920,117
67,69,251040,240
39,40,253320,120
44,44,253440,358
44,40,253800,118
44,43,253920,240
46,44,254160,90
44,40,254280,90
44,44,254400,68
41,39,254640,90
41,39,254880,480
46,44,255360,90
46,44,255600,90
44,44,255720,90
43,44,255840,120
43,44,256080,90
41,44,256200,90
40,44,256320,240
40,39,256800,480
48,44,257280,90
48,44,257520,90
46,44,257640,90
44,44,257760,120
44,44,258000,90
43,44,258120,90
41,44,258240,240
48,37,258600,90
53,37,258720,120
53,38,258960,90
51,38,259080,90
50,46,259200,90
50,39,259440,90
48,39,259560,90
46,39,259680,120
48,40,259920,90
50,40,260040,90
51,48,260160,120
43,41,260400,240
45,42,260640,240
48,42,260880,240
53,47,260880,120
51,47,261000,120
46,51,261120,90
50,43,261120,240
46,43,261360,90
48,44,261480,90
50,44,261600,120
51,44,261840,90
58,48,261960,120
53,45,261960,90
51,54,262080,120
63,54,262080,358
63,50,262440,118
63,54,262560,240
65,55,262800,90
63,51,262920,90
48,56,263040,90
63,56,263040,68
60,50,263280,90
48,48,263280,90
50,48,263400,90
52,48,263520,120
60,51,263520,480
53,49,263760,90
55,49,263880,90
65,59,264000,90
53,59,264000,120
65,59,264240,90
63,60,264360,90
53,50,264480,120
62,60,264480,120
53,51,264720,90
62,61,264720,90
51,51,264840,90
60,61,264840,90
50,61,264960,90
59,61,264960,240
50,52,265200,90
51,52,265320,90
59,55,265440,480
53,52,265440,120
55,53,265680,90
56,53,265800,90
67,64,265920,90
55,64,265920,120
67,65,266160,90
65,65,266280,90
63,65,266400,120
55,55,266400,120
63,66,266640,90
55,55,266640,90
62,66,266760,90
53,55,266760,90
51,66,266880,90
60,66,266880,90
51,56,267120,90
60,59,267120,480
53,56,267240,90
55,57,267360,120
57,57,267600,90
67,57,267600,90
65,58,267720,90
59,58,267720,90
60,69,267840,90
63,69,267840,90
65,58,268080,90
50,58,268080,90
67,59,268200,90
52,59,268200,90
53,59,268320,120
60,59,268320,120
60,59,268560,90
41,59,268560,90
43,55,268680,90
58,60,268680,90
60,72,268800,120
44,72,268800,120
46,51,269040,240
62,61,269040,240
47,51,269280,240
63,61,269280,240
62,62,269520,90
46,62,269520,90
62,62,269640,90
34,62,269640,90
65,62,269640,90
39,61,269760,358
39,54,270120,90
39,54,270240,240
41,61,270480,90
39,54,270600,90
48,61,270720,358
39,51,270720,240
36,43,270960,240
48,54,271080,90
48,62,271200,240
36,52,271200,480
50,61,271440,90
48,54,271560,90
48,61,271680,120
44,51,271680,90
44,62,271920,210
43,57,272040,90
41,53,272160,90
44,63,272160,480
41,54,272400,90
39,54,272520,90
38,51,272640,240
53,56,272640,90
53,56,272880,90
51,59,273000,90
50,59,273120,120
38,52,273120,480
50,56,273360,90
48,52,273480,90
46,61,273600,120
46,62,273840,90
44,57,273960,90
46,63,274080,480
43,53,274080,90
43,54,274320,90
41,54,274440,90
40,51,274560,240
55,56,274560,90
55,56,274800,90
53,59,274920,90
40,52,275040,480
52,59,275040,120
52,56,275280,90
50,52,275400,90
48,61,275520,120
55,51,275760,90
48,43,275760,90
61,41,275880,90
46,34,275880,90
48,51,276000,90
60,51,276000,90
44,43,276000,90
43,45,276240,90
52,54,276240,90
41,50,276480,720
53,50,276480,240
48,42,276720,240
53,52,276960,240
51,42,277200,240
42,42,277200,240
50,56,277440,90
43,51,277440,720
50,54,277680,240
55,59,277920,240
43,47,278160,240
53,56,278160,240
44,46,278400,720
51,55,278400,240
56,58,278640,120
55,50,278760,120
53,59,278880,120
53,61,279120,120
45,41,279120,240
51,53,279240,120
50,67,279360,90
46,51,279360,90
47,53,279600,240
58,52,279600,90
56,47,279720,90
55,60,279840,120
48,59,279840,120
53,66,280080,240
50,56,280080,240
51,66,280320,240
48,47,280320,240
51,61,281160,120
48,51,281160,90
56,67,281280,357
53,56,281280,357
53,51,281640,119
56,61,281640,119
53,54,281760,240
56,64,281760,240
55,56,282000,90
58,67,282000,90
53,48,282120,90
56,57,282120,90
56,67,282240,90
53,56,282240,90
53,58,282480,90
49,49,282480,90
49,49,282720,480
53,58,282720,480
61,67,283200,90
58,56,283200,90
61,67,283440,90
58,56,283440,90
60,63,283560,90
56,53,283560,90
55,56,283680,120
58,67,283680,120
58,67,283920,90
55,56,283920,90
56,63,284040,90
53,53,284040,90
55,67,284160,240
52,56,284160,240
55,58,284640,480
52,49,284640,480
60,56,285120,90
64,67,285120,90
60,56,285360,90
63,67,285360,90
61,63,285480,90
58,53,285480,90
60,67,285600,120
56,56,285600,120
56,56,285840,90
60,67,285840,90
55,53,285960,90
58,63,285960,90
56,67,286080,90
53,56,286080,90
50,56,286320,90
53,67,286320,90
51,53,286440,90
55,63,286440,90
56,67,286560,120
53,56,286560,120
48,56,286800,90
51,67,286800,90
50,53,286920,90
53,63,286920,90
55,67,287040,90
51,56,287040,90
47,56,287280,90
50,67,287280,90
51,63,287400,90
48,53,287400,90
50,56,287520,120
53,67,287520,120
48,67,287760,90
45,56,287760,90
47,53,287880,90
50,63,287880,90
51,67,288000,90
48,56,288000,90
61,56,288240,90
65,67,288240,90
63,63,288360,90
60,53,288360,90
61,68,288480,120
58,57,288480,120
60,57,288720,90
63,69,288720,90
61,65,288840,90
58,55,288840,90
60,70,288960,90
56,58,288960,90
56,59,289200,90
60,71,289200,90
55,59,289440,240
62,71,289440,240
67,64,290280,119
71,76,290280,119
67,71,290400,360
71,84,290400,360
59,68,290760,119
55,57,290760,119
55,63,290880,360
59,75,290880,360
43,51,291240,119
47,60,291240,119
43,56,291360,240
47,67,291360,240
87,53,292080,120
86,47,292200,120
75,53,292560,120
74,47,292680,120
63,53,293040,120
62,47,293160,120
75,53,293520,120
74,47,293640,120
60,75,293760,360
75,76,294120,119
72,64,294120,119
72,71,294240,360
75,84,294240,360
60,57,294600,119
63,68,294600,119
60,63,294720,360
63,75,294720,360
48,51,295080,119
51,60,295080,119
51,67,295200,240
48,56,295200,240
89,53,295920,120
87,47,296040,120
77,53,296400,120
75,47,296520,120
65,53,296880,120
63,47,297000,120
77,53,297360,120
75,47,297480,120
58,75,297600,360
74,76,297960,119
70,64,297960,119
74,84,298080,360
70,71,298080,360
62,68,298440,119
58,57,298440,119
58,63,298560,360
62,75,298560,360
46,51,298920,119
50,60,298920,119
46,56,299040,240
50,67,299040,240
91,60,299760,120
89,54,299880,120
79,66,300240,120
77,59,300360,120
67,71,300720,120
65,64,300840,120
79,76,301200,120
77,69,301320,120
63,75,301440,360
75,75,301440,360
79,76,301800,119
75,64,301800,119
75,71,301920,360
79,84,301920,360
67,68,302280,119
63,57,302280,119
63,63,302400,360
67,75,302400,360
51,58,302760,119
63,69,302760,119
63,77,302880,240
51,64,302880,240
74,79,303720,119
62,67,303720,119
74,88,303840,360
62,74,303840,360
50,59,304200,119
62,71,304200,119
62,78,304320,360
50,66,304320,360
50,72,304680,119
38,60,304680,119
50,80,304800,240
38,67,304800,240
62,59,305640,119
65,59,305640,119
68,59,305640,119
74,71,305640,119
71,59,305640,119
68,66,305760,360
71,66,305760,360
62,66,305760,360
74,78,305760,360
65,66,305760,360
56,53,306120,119
53,53,306120,119
50,53,306120,119
59,53,306120,119
62,64,306120,119
62,78,306240,360
50,66,306240,360
59,66,306240,360
56,66,306240,360
53,66,306240,360
44,53,306600,119
38,53,306600,119
41,53,306600,119
47,53,306600,119
50,64,306600,119
47,66,306720,360
50,78,306720,360
38,66,306720,360
41,66,306720,360
44,66,306720,360
67,59,307560,119
62,59,307560,119
70,59,307560,119
76,71,307560,119
76,78,307680,360
62,66,307680,360
70,66,307680,360
67,66,307680,360
58,53,308040,119
50,53,308040,119
64,64,308040,119
55,53,308040,119
58,66,308160,360
50,66,308160,360
64,78,308160,360
55,66,308160,360
46,53,308520,119
43,53,308520,119
52,64,308520,119
38,53,308520,119
43,66,308640,360
38,66,308640,360
52,78,308640,360
46,66,308640,360
74,67,309480,119
62,56,309480,119
66,56,309480,119
69,56,309480,119
74,81,309600,357
69,68,309600,357
66,68,309600,357
62,68,309600,357
50,52,309960,119
62,62,309960,119
62,69,310080,360
50,58,310080,360
50,57,310440,119
38,47,310440,119
38,54,310560,360
50,64,310560,360
50,52,310920,120
38,59,311040,360
62,47,311400,120
50,53,311520,360
62,42,311880,120
50,46,312000,360
62,37,312360,120
50,42,312480,360
71,32,312840,120
59,40,312960,160
71,32,313120,160
70,32,313280,160
71,40,313440,160
66,33,313600,160
71,33,313760,160
67,40,313920,160
71,31,314080,160
67,31,314240,160
71,40,314400,160
64,33,314560,160
71,33,314720,160
63,40,314880,160
71,31,315040,160
63,31,315200,160
71,40,315360,160
59,32,315520,160
71,32,315680,160
59,40,315840,160
64,33,316000,160
59,33,316160,160
67,40,316320,160
64,32,316480,160
67,32,316640,160
66,40,316800,160
71,32,316960,160
66,32,317120,160
71,40,317280,160
66,36,317440,160
71,36,317600,160
66,40,317760,160
70,33,317920,160
66,33,318080,160
70,40,318240,160
66,34,318400,160
70,34,318560,160
66,40,318720,160
71,32,318880,160
66,32,319040,160
71,40,319200,160
66,36,319360,160
71,36,319520,160
70,40,319680,160
73,33,319840,160
70,33,320000,160
73,40,320160,160
70,34,320320,160
73,34,320480,160
66,40,320640,160
71,32,320800,160
66,32,320960,160
71,40,321120,160
66,36,321280,160
71,36,321440,160
66,40,321600,160
70,33,321760,160
66,33,321920,160
70,40,322080,160
66,34,322240,160
70,34,322400,160
66,40,322560,160
71,32,322720,160
66,32,322880,160
71,40,323040,160
66,36,323200,160
71,36,323360,160
70,40,323520,160
73,33,323680,160
70,33,323840,160
73,40,324000,160
30,70,324360,120
34,68,324480,358
34,61,324840,118
34,68,324960,180
35,64,325200,90
54,63,325320,90
34,61,325320,90
34,61,325440,180
58,61,325440,358
30,61,325680,180
58,54,325800,118
58,61,325920,180
59,48,326160,45
58,51,326280,90
58,51,326400,120
54,51,326640,120
30,63,328200,120
40,61,328320,358
42,63,328680,120
40,54,328680,118
52,61,328800,360
40,61,328800,180
52,54,329160,120
52,61,329280,180
37,63,330120,120
46,61,330240,358
49,63,330600,120
46,54,330600,118
58,61,330720,360
46,61,330720,180
58,54,331080,118
58,61,331200,180
40,63,332040,90
49,72,332160,840
43,66,333000,90
52,75,333120,840
43,69,333960,90
52,77,334080,360
67,71,334440,90
76,77,334560,360
44,73,334920,90
52,71,335040,360
68,74,335400,90
76,79,335520,360
45,76,335880,90
52,75,336000,360
69,78,336360,90
76,86,336480,360
45,83,336840,90
53,93,336960,360
69,86,337320,90
77,97,337440,360
46,100,337800,120
34,88,337800,120
46,110,337920,240
58,110,337920,240
60,97,338160,120
58,88,338280,120
53,97,338400,240
55,97,338640,120
53,90,338760,120
50,97,338880,240
51,97,339120,120
50,91,339240,120
46,97,339360,240
48,97,339600,120
46,97,339720,60
38,88,339780,30
50,89,339810,30
62,110,339840,240
63,97,340080,120
62,88,340200,120
58,97,340320,240
62,97,340560,120
58,90,340680,120
53,97,340800,240
58,93,341040,120
53,88,341160,120
50,78,341280,120
46,73,341400,120
51,40,341520,120
48,35,341640,120
46,29,341760,240
48,34,342000,120
46,31,342120,120
41,30,342240,240
53,36,342240,240
51,33,342480,120
50,30,342600,120
48,35,342720,240
50,33,342960,120
48,29,343080,120
43,28,343200,240
55,34,343200,240
53,28,343440,120
56,33,343440,120
51,28,343560,120
55,33,343560,120
50,31,343680,240
53,37,343680,240
49,27,343920,240
52,32,343920,240
48,32,344160,240
51,38,344160,240
41,25,344400,240
48,30,344400,240
43,28,344640,240
46,33,344640,240
38,28,344880,120
47,33,344880,120
39,24,345000,120
48,29,345000,120
41,24,345120,240
48,29,345120,240
53,28,345360,240
58,33,345360,120
60,33,345480,120
53,31,345600,1680
62,37,345600,360
63,32,345960,120
60,38,346080,360
62,30,346440,120
60,36,346560,120
58,30,346680,120
62,35,346800,120
60,30,346920,120
57,36,347040,240
58,28,347280,240
60,33,347280,120
62,33,347400,120
58,31,347520,1200
63,37,347520,360
65,32,347880,120
62,38,348000,360
63,30,348360,120
62,36,348480,120
60,30,348600,120
58,31,348720,480
63,35,348720,120
62,30,348840,120
58,28,349200,240
62,33,349200,120
63,33,349320,120
58,31,349440,480
65,37,349440,360
66,32,349800,120
63,38,349920,240
61,28,350160,240
63,33,350160,120
65,33,350280,120
61,31,350400,960
66,37,350400,360
68,32,350760,120
65,38,350880,120
71,38,351000,120
70,40,351120,120
68,40,351240,120
61,31,351360,960
66,40,351360,240
70,35,351600,480
68,41,352080,480
61,45,352320,960
66,39,352560,240
73,46,352800,240
71,43,353040,240
61,47,353280,960
71,55,353280,120
70,49,353400,120
71,54,353520,120
70,50,353640,120
70,55,353760,120
68,47,353880,120
70,56,354000,120
68,49,354120,120
61,49,354240,960
68,56,354240,120
67,49,354360,120
75,57,354480,120
73,50,354600,120
73,57,354720,240
71,51,354960,240
61,51,355200,480
69,58,355200,120
70,54,355320,120
71,54,355440,120
70,54,355560,120
61,52,355680,480
67,59,355680,120
68,52,355800,120
70,52,355920,120
68,53,356040,120
61,53,356160,480
65,60,356160,120
66,57,356280,120
68,56,356400,120
66,56,356520,120
61,54,356640,240
66,62,356640,120
65,57,356760,120
59,55,356880,240
66,57,356880,120
68,57,357000,120
58,46,357120,240
70,59,357120,240
56,44,357360,240
68,55,357360,240
63,61,357600,240
51,48,357600,240
62,56,357840,240
50,45,357840,240
49,49,358080,240
61,62,358080,240
37,48,358320,480
49,61,358320,360
47,71,358680,120
46,73,358800,120
37,58,358800,240
44,78,358920,120
42,78,359040,120
30,64,359040,120
49,51,359160,119
54,51,359160,119
58,61,359160,119
58,61,359280,119
54,51,359280,119
49,51,359280,119
49,51,359400,120
58,61,359400,118
54,51,359400,120
54,53,359640,119
46,45,359640,119
49,45,359640,119
49,45,359760,119
46,45,359760,119
54,54,359760,119
49,45,359880,120
46,45,359880,120
54,54,359880,120
49,37,360120,60
54,37,360120,60
58,44,360120,60
49,37,360360,60
54,44,360360,60
46,37,360360,60
49,37,360600,60
54,37,360600,60
58,44,360600,60
50,37,360840,60
56,44,360840,60
47,37,360840,60
53,37,360840,60
42,71,360960,120
30,59,360960,120
56,51,361080,119
53,51,361080,119
59,61,361080,119
50,51,361080,119
56,51,361200,119
59,61,361200,119
50,51,361200,119
53,51,361200,119
56,51,361320,120
59,61,361320,120
53,51,361320,120
50,51,361320,120
50,45,361560,119
53,45,361560,119
56,53,361560,119
47,45,361560,119
50,45,361680,119
53,45,361680,119
56,54,361680,119
47,45,361680,119
50,45,361800,120
56,54,361800,120
53,45,361800,120
47,45,361800,120
56,37,362040,60
53,37,362040,60
59,44,362040,60
50,37,362040,60
50,37,362280,60
47,37,362280,60
53,37,362280,60
56,44,362280,60
56,37,362520,60
50,37,362520,60
59,44,362520,60
53,37,362520,60
55,37,362760,60
58,44,362760,60
49,37,362760,60
52,37,362760,60
42,71,362880,120
30,59,362880,120
58,51,363000,119
52,51,363000,119
61,61,363000,119
61,61,363120,119
52,51,363120,119
58,51,363120,119
61,61,363240,120
52,51,363240,120
58,51,363240,120
55,45,363480,119
52,45,363480,119
49,45,363480,119
58,53,363480,119
55,45,363600,119
58,54,363600,119
52,45,363600,119
49,45,363600,119
55,45,363720,120
52,45,363720,120
58,54,363720,120
49,45,363720,120
58,37,363960,60
55,37,363960,60
61,44,363960,60
52,37,363960,60
55,37,364200,60
52,37,364200,60
49,37,364200,60
58,44,364200,60
58,37,364440,60
52,37,364440,60
61,44,364440,60
55,37,364440,60
54,37,364680,60
59,44,364680,60
50,37,364680,60
42,71,364800,120
30,59,364800,120
59,51,364920,119
62,61,364920,119
54,51,364920,119
62,61,365040,119
54,51,365040,119
59,51,365040,119
62,61,365160,120
54,51,365160,120
59,51,365160,120
54,45,365400,119
59,53,365400,119
50,45,365400,119
59,54,365520,119
54,45,365520,119
50,45,365520,119
54,45,365640,120
59,54,365640,120
50,45,365640,120
56,37,365880,60
53,37,365880,60
62,44,365880,60
59,37,365880,60
56,37,366120,60
59,44,366120,60
50,37,366120,60
53,37,366120,60
53,41,366360,60
59,41,366360,60
56,41,366360,60
62,49,366360,60
55,42,366600,60
58,42,366600,60
52,42,366600,60
61,51,366600,60
58,44,366840,60
55,44,366840,60
61,44,366840,60
64,52,366840,60
55,45,367080,60
52,45,367080,60
61,54,367080,60
58,45,367080,60
58,48,367320,60
64,57,367320,60
61,48,367320,60
54,48,367320,60
54,49,367560,60
62,60,367560,60
59,49,367560,60
54,52,367800,60
62,61,367800,60
59,52,367800,60
62,65,368040,60
54,54,368040,60
59,54,368040,60
62,68,368280,60
54,57,368280,60
59,57,368280,60
59,58,368520,60
61,58,368520,60
56,58,368520,60
65,70,368520,60
68,72,368760,60
56,61,368760,60
66,72,369000,60
54,61,369000,60
51,61,369240,60
63,72,369240,60
61,72,369480,60
49,61,369480,60
47,55,369720,60
59,64,369720,60
58,64,369960,60
46,55,369960,60
44,55,370200,60
56,64,370200,60
54,64,370440,60
42,55,370440,60
51,64,370680,60
39,55,370680,60
37,55,370920,60
49,64,370920,60
35,51,371160,60
47,61,371160,60
46,61,371400,60
34,51,371400,60
44,57,371640,60
32,49,371640,60
30,48,371880,60
42,56,371880,60
39,55,372120,60
37,54,372360,60
41,42,372600,120
37,28,372840,120
44,39,373080,120
37,27,373320,120
49,37,373560,120
37,26,373800,120
53,34,374040,120
37,24,374280,120
56,32,374520,120
37,23,374760,120
61,29,375000,118
37,24,375240,120
61,28,375480,118
37,21,375720,120
54,21,375960,120
61,21,375960,120
35,101,376200,120
62,97,376320,357
54,81,376320,357
59,81,376320,357
62,88,376680,119
59,73,376680,119
54,73,376680,119
54,81,376800,240
59,81,376800,240
62,97,376800,240
54,79,377040,45
62,91,377040,45
59,79,377040,45
54,81,377160,45
62,97,377160,45
59,81,377160,45
54,81,377280,120
62,97,377280,120
59,81,377280,120
50,81,377520,120
59,97,377520,120
54,81,377520,120
47,39,378120,120
62,45,378240,360
47,42,378600,120
62,49,378720,360
47,45,379080,120
62,53,379200,360
43,45,379560,120
59,58,379680,360
43,51,380040,120
59,57,380160,360
43,49,380520,120
59,62,380640,360
43,54,381000,120
59,61,381120,360
36,52,381480,120
51,67,381600,360
36,58,381960,120
51,65,382080,360
36,55,382440,120
51,71,382560,360
36,61,382920,120
51,69,383040,360
29,58,383400,120
45,74,383520,360
29,64,383880,120
45,72,384000,360
41,61,384360,120
36,79,384480,360
41,68,384840,120
33,76,384960,360
41,65,385320,120
30,83,385440,360
41,71,385800,120
29,78,385920,240
41,85,385920,240
78,48,386160,120
77,48,386280,120
78,54,386400,240
77,44,386640,120
76,44,386760,120
77,44,386880,240
66,43,387120,120
65,43,387240,120
66,51,387360,240
65,43,387600,120
64,43,387720,120
53,40,387840,240
57,40,387840,240
60,40,387840,240
63,51,387840,240
53,42,388200,120
57,51,388320,240
60,40,388680,120
65,51,388800,240
69,43,389160,120
72,51,389280,240
75,45,389520,120
72,45,389640,120
67,40,389760,120
69,40,389880,120
70,44,390000,120
67,40,390120,120
63,40,390240,120
65,40,390360,120
67,45,390480,120
63,40,390600,120
60,40,390720,120
62,40,390840,120
63,45,390960,120
60,40,391080,120
57,40,391200,120
58,40,391320,120
60,45,391440,120
57,40,391560,120
62,51,391680,240
53,48,391680,240
58,48,391680,240
53,42,392040,120
58,51,392160,240
62,40,392520,120
65,51,392640,240
70,43,393000,120
74,51,393120,240
62,45,393360,120
58,45,393480,120
70,40,393600,120
72,40,393720,120
74,44,393840,120
70,40,393960,120
62,40,394080,120
63,40,394200,120
65,45,394320,120
62,40,394440,120
58,40,394560,120
60,40,394680,120
62,45,394800,120
58,40,394920,118
74,40,395040,120
75,40,395160,120
77,45,395280,120
74,40,395400,120
75,40,395520,120
77,40,395640,120
75,45,395760,120
74,40,395880,120
75,40,396000,120
77,40,396120,120
79,45,396240,120
75,40,396360,120
72,46,396480,120
74,38,396600,120
75,45,396720,120
72,40,396840,120
69,45,396960,120
70,36,397080,120
72,41,397200,120
69,36,397320,120
63,46,397440,120
65,38,397560,120
66,45,397680,120
63,40,397800,120
60,45,397920,120
62,36,398040,120
63,41,398160,120
60,36,398280,120
57,46,398400,120
58,38,398520,120
60,45,398640,120
57,40,398760,120
72,45,398880,120
70,36,399000,120
69,41,399120,120
72,36,399240,120
74,40,399360,120
75,40,399480,120
74,45,399600,120
72,40,399720,120
74,40,399840,120
75,40,399960,120
77,45,400080,120
74,40,400200,120
70,46,400320,120
72,38,400440,120
74,45,400560,120
70,40,400680,120
65,45,400800,120
69,36,400920,120
70,41,401040,120
65,36,401160,120
62,46,401280,120
63,38,401400,120
65,45,401520,120
62,40,401640,120
58,45,401760,120
60,36,401880,120
62,41,402000,120
58,36,402120,120
53,46,402240,120
57,38,402360,120
58,45,402480,120
53,40,402600,120
51,45,402720,120
58,36,402840,120
53,41,402960,120
51,36,403080,120
50,36,403200,240
46,34,403440,240
58,40,403440,240
55,36,403680,120
51,30,403680,120
63,40,403920,120
60,36,404040,120
57,36,404160,240
53,34,404400,240
65,36,404400,240
62,36,404640,120
58,30,404640,120
64,30,405360,240
61,26,405360,240
58,26,405360,240
67,36,405360,240
65,34,405600,240
69,40,405600,240
60,34,405600,240
67,27,405840,120
60,25,405840,240
70,30,405840,120
72,36,405960,120
72,36,406080,240
65,30,406080,240
65,30,406320,240
74,36,406320,180
76,31,406500,60
65,30,406560,240
77,36,406560,240
67,37,406800,120
69,36,406920,120
70,36,407040,238
65,36,407280,240
62,30,407280,240
63,30,407520,120
67,36,407520,120
72,36,407760,120
75,32,407880,120
77,36,408000,238
69,30,408240,240
72,36,408240,240
70,30,408480,120
74,36,408480,120
67,41,408720,120
66,36,408840,120
67,36,408960,240
75,36,409200,240
70,30,409200,240
67,30,409200,240
67,30,409440,240
72,36,409440,240
69,30,409680,238
66,30,409680,238
69,30,409920,240
66,30,409920,240
66,31,410160,240
62,26,410160,240
67,30,410400,240
70,36,410400,240
65,34,410640,120
68,40,410640,120
67,36,410760,119
64,30,410760,119
64,30,410880,240
67,36,410880,240
60,26,411120,240
64,31,411120,240
65,30,411360,240
68,36,411360,240
66,40,411600,120
63,34,411600,120
65,36,411720,119
62,30,411720,119
62,30,411840,240
65,36,411840,240
62,31,412080,240
58,26,412080,240
63,30,412320,240
67,36,412320,240
65,40,412560,120
62,34,412560,120
61,30,412680,119
64,36,412680,119
61,30,412800,240
64,36,412800,240
61,31,413040,240
57,26,413040,240
65,36,413280,240
62,30,413280,240
63,40,413520,120
60,34,413520,120
62,36,413640,119
59,30,413640,119
62,36,413760,240
59,30,413760,240
60,36,414000,120
63,30,414000,240
58,30,414120,120
57,30,414240,240
60,36,414240,240
58,36,414480,120
62,30,414480,240
50,32,414600,120
53,25,414720,1440
63,30,414720,1440
48,25,414720,1440
62,30,416160,480
50,25,416160,480
53,25,416160,480
36,25,416640,1440
51,30,416640,1440
41,25,416640,1440
38,25,418080,480
41,25,418080,480
50,30,418080,480
50,30,418560,480
38,25,418560,480
43,23,419040,480
55,28,419040,480
52,30,419520,480
40,25,419520,480
53,29,420000,240
41,24,420000,240
60,25,420480,1440
75,30,420480,1440
65,25,420480,1440
74,30,421920,480
62,25,421920,480
65,25,421920,480
63,30,422400,1440
48,25,422400,1440
53,25,422400,1440
50,25,423840,480
62,30,423840,480
53,25,423840,480
50,25,424320,480
62,30,424320,480
55,23,424800,480
67,28,424800,480
52,25,425280,480
64,30,425280,480
53,24,425760,240
65,29,425760,240
54,24,426000,240
66,29,426000,240
55,26,426240,480
67,31,426240,480
60,25,426720,480
72,30,426720,480
57,28,427200,480
69,33,427200,480
58,28,427680,240
70,34,427680,240
59,28,427920,240
71,34,427920,240
60,30,428160,480
72,36,428160,480
64,29,428640,480
76,35,428640,480
62,34,429120,480
74,39,429120,480
63,39,429600,720
75,39,429600,720
39,56,430320,240
51,66,430320,240
67,82,431280,120
63,69,431280,120
62,67,431520,240
65,79,431520,240
63,68,431760,120
67,81,431760,120
68,84,431880,120
65,71,431880,120
70,88,432000,120
67,74,432000,120
51,66,432240,240
39,56,432240,240
40,62,433200,240
52,74,433200,240
48,79,433680,240
36,67,433680,240
53,74,434160,240
41,62,434160,240
55,72,434640,240
43,61,434640,240
41,50,434880,120
45,50,435000,120
46,50,435120,120
50,50,435240,120
53,50,435360,120
57,50,435480,120
58,50,435600,120
62,50,435720,120
65,50,435840,120
69,50,435960,120
70,50,436080,120
74,50,436200,120
70,43,436560,120
74,44,436680,120
76,45,436800,120
77,46,436920,120
79,47,437040,120
77,48,437160,120
81,50,437280,120
82,51,437400,120
84,52,437520,120
82,53,437640,120
85,54,437760,120
86,55,437880,120
87,56,438000,120
86,58,438120,120
89,59,438240,240
65,60,438480,80
67,63,438560,80
69,66,438640,80
58,40,438720,160
70,32,438880,160
69,32,439040,160
70,40,439200,160
69,33,439360,160
70,33,439520,160
66,40,439680,160
70,31,439840,160
66,31,440000,160
70,40,440160,160
63,33,440320,160
70,33,440480,160
62,40,440640,160
70,31,440800,160
65,31,440960,160
58,40,441120,160
70,32,441280,160
65,32,441440,160
63,40,441600,160
70,33,441760,160
63,33,441920,160
66,40,442080,160
70,32,442240,160
66,32,442400,160
65,40,442560,160
70,32,442720,160
65,32,442880,160
71,40,443040,160
65,36,443200,160
71,36,443360,160
65,40,443520,160
72,33,443680,160
69,33,443840,160
53,40,444000,160
60,34,444160,160
57,34,444320,160
46,40,444480,120
58,33,444600,120
62,33,444720,120
58,33,444840,120
53,41,444960,120
58,35,445080,120
68,35,445200,120
58,35,445320,120
55,42,445440,120
58,36,445560,120
70,36,445680,120
58,37,445800,120
51,44,445920,120
58,37,446040,120
67,37,446160,120
58,38,446280,120
50,45,446400,120
58,37,446520,120
65,37,446640,120
58,37,446760,120
46,46,446880,120
58,39,447000,120
62,40,447120,120
58,40,447240,120
51,48,447360,120
58,42,447480,120
67,42,447600,120
58,42,447720,120
55,51,447840,120
58,43,447960,120
70,43,448080,120
58,43,448200,120
53,50,448320,120
58,44,448440,120
57,48,448560,120
58,51,448680,120
53,54,448800,120
50,55,448920,120
48,55,449040,120
46,54,449160,120
41,54,449280,120
43,49,449400,120
45,49,449520,120
46,49,449640,120
48,54,449760,120
50,50,449880,120
51,59,450000,120
53,66,450120,120
34,66,450240,120
46,56,450360,120
34,66,450480,120
46,56,450600,120
34,66,450720,120
46,57,450840,120
34,66,450960,120
46,57,451080,120
34,66,451200,120
46,57,451320,120
34,66,451440,120
46,58,451560,120
34,66,451680,120
46,59,451800,120
35,45,451920,120
47,34,452040,120
36,43,452160,120
48,33,452280,120
35,43,452400,120
47,33,452520,120
36,43,452640,120
48,34,452760,120
39,43,452880,120
51,35,453000,120
40,43,453120,120
52,33,453240,120
43,43,453360,120
55,33,453480,120
41,43,453600,120
53,34,453720,120
41,43,453840,120
53,35,453960,120
41,47,454080,120
53,36,454200,120
46,48,454320,120
58,37,454440,120
41,50,454560,120
53,40,454680,118
53,53,454800,120
65,44,454920,120
41,54,455040,120
53,42,455160,120
46,57,455280,120
58,44,455400,120
41,58,455520,120
53,47,455640,118
53,61,455760,120
65,51,455880,120
46,59,456000,120
58,50,456120,120
41,61,456240,120
53,51,456360,120
45,64,456480,120
57,55,456600,120
48,67,456720,120
60,58,456840,120
46,68,456960,120
58,63,457080,120
41,71,457200,120
53,63,457320,120
33,71,457440,120
45,60,457560,120
36,71,457680,120
48,63,457800,120
34,68,457920,120
46,63,458040,120
29,71,458160,120
41,63,458280,120
35,71,458400,120
47,60,458520,120
38,71,458640,120
50,63,458760,120
36,68,458880,120
48,63,459000,120
31,71,459120,120
43,63,459240,120
35,71,459360,120
47,60,459480,120
38,71,459600,120
50,63,459720,120
36,68,459840,120
48,63,459960,120
31,71,460080,120
43,63,460200,120
36,71,460320,120
48,60,460440,120
39,71,460560,120
51,63,460680,120
38,68,460800,120
50,63,460920,120
33,71,461040,120
45,62,461160,120
37,70,461280,120
49,59,461400,120
40,69,461520,120
52,61,461640,120
38,66,461760,120
50,61,461880,120
33,68,462000,120
45,61,462120,120
38,68,462240,120
50,57,462360,120
41,67,462480,120
53,59,462600,120
39,64,462720,120
51,59,462840,120
34,66,462960,120
46,59,463080,120
38,66,463200,120
50,55,463320,120
41,66,463440,120
53,57,463560,120
39,62,463680,120
51,57,463800,120
34,64,463920,120
46,57,464040,120
39,63,464160,120
51,54,464280,120
42,63,464400,120
54,56,464520,120
41,60,464640,120
53,56,464760,120
36,62,464880,120
48,55,465000,120
39,62,465120,120
51,52,465240,120
42,61,465360,120
54,54,465480,120
37,58,465600,120
49,54,465720,120
33,60,465840,120
45,53,465960,120
36,60,466080,120
48,50,466200,120
39,59,466320,120
51,52,466440,120
30,56,466560,120
42,52,466680,120
29,58,466800,120
41,51,466920,120
33,58,467040,120
45,49,467160,120
39,57,467280,120
51,51,467400,120
34,37,467520,480
46,44,467520,480
44,32,468000,480
56,38,468000,480
42,33,468480,480
54,39,468480,480
39,24,468960,480
51,29,468960,480
38,34,469440,480
50,40,469440,480
34,26,469920,480
46,31,469920,480
39,34,470400,480
51,40,470400,480
54,30,470880,240
58,37,470880,240
55,30,471120,240
58,39,471120,120
60,39,471240,120
53,46,471360,240
58,31,471360,81
60,26,471441,80
58,31,471521,81
55,40,471600,240
60,27,471601,81
58,31,471682,80
60,27,471762,81
56,46,471840,240
58,32,471840,81
60,27,471921,80
58,32,472001,81
53,40,472080,240
60,28,472081,81
58,32,472162,80
60,28,472242,81
58,32,472320,81
55,46,472320,240
60,27,472401,80
58,32,472481,81
56,40,472560,240
60,29,472561,81
58,32,472642,80
60,29,472722,81
55,46,472800,240
58,33,472800,81
60,29,472881,80
58,34,472961,81
51,40,473040,240
60,30,473041,81
58,34,473122,80
60,30,473202,81
58,35,473280,81
50,46,473280,240
60,29,473361,80
58,35,473441,81
51,40,473520,240
60,32,473521,81
58,35,473602,80
60,32,473682,81
53,46,473760,240
58,35,473760,81
60,32,473841,80
58,36,473921,81
50,40,474000,240
60,32,474001,81
58,36,474082,80
60,32,474162,81
51,46,474240,240
58,36,474240,81
60,32,474321,80
58,37,474401,81
53,40,474480,240
60,33,474481,81
58,37,474562,80
60,33,474642,81
55,46,474720,240
58,38,474720,81
60,32,474801,80
58,38,474881,81
56,40,474960,240
60,35,474961,81
58,38,475042,80
60,34,475122,81
55,40,475200,720
58,34,475200,81
60,29,475281,80
58,34,475361,81
60,30,475441,81
58,33,475522,80
60,29,475602,81
58,34,475680,81
60,29,475761,80
58,33,475841,81
56,31,475920,240
60,29,475921,81
58,32,476002,80
60,27,476082,81
55,37,476160,720
58,30,476160,81
60,26,476241,80
58,30,476321,81
60,27,476401,81
58,29,476482,80
60,26,476562,81
58,30,476640,81
60,26,476721,80
58,29,476801,81
53,27,476880,240
60,25,476881,81
58,28,476962,80
60,24,477042,81
53,30,477120,960
62,36,477120,960
58,30,477127,960
70,36,478320,132
69,33,478440,132
67,37,478560,132
65,33,478680,132
67,36,478800,132
69,33,478920,132
70,36,479040,132
72,37,479160,132
74,38,479280,132
75,39,479400,132
77,40,479520,132
79,41,479640,132
81,42,479760,132
82,43,479880,132
41,33,480120,132
43,33,480240,132
45,32,480360,132
46,32,480480,132
48,31,480600,132
50,31,480720,132
51,30,480840,132
53,30,480960,132
55,30,481080,132
57,29,481200,132
58,29,481320,132
60,28,481440,132
62,28,481560,132
63,27,481680,132
62,27,481800,120
62,32,481920,357
58,27,481920,357
62,26,482280,119
58,22,482280,119
62,32,482400,240
58,27,482400,240
35,62,482760,120
47,74,482760,120
48,92,482880,357
36,77,482880,357
48,62,483240,119
36,52,483240,119
48,78,483360,240
36,63,483360,240
59,22,483720,120
62,26,483720,120
63,32,483840,357
60,27,483840,357
63,26,484200,119
60,22,484200,119
63,32,484320,240
60,27,484320,240
37,62,484680,120
49,74,484680,120
50,92,484800,357
38,77,484800,357
50,62,485160,119
38,52,485160,119
50,78,485280,240
38,63,485280,240
61,22,485640,120
64,26,485640,120
65,32,485760,357
62,27,485760,357
65,26,486120,119
62,22,486120,119
65,32,486240,240
62,27,486240,240
38,57,486600,120
50,68,486600,120
51,84,486720,357
39,70,486720,357
51,57,487080,119
39,48,487080,119
51,71,487200,240
39,58,487200,240
39,66,488520,120
51,77,488520,120
41,96,488640,357
29,80,488640,357
41,72,489000,119
29,59,489000,119
41,89,489120,240
29,73,489120,240
30,33,490320,132
29,29,490440,132
30,33,490560,132
29,29,490680,132
30,33,490800,132
29,29,490920,132
33,33,491040,132
34,28,491160,132
33,35,491280,132
34,30,491400,132
30,36,491520,132
29,32,491640,132
30,38,491760,132
29,43,491880,132
34,63,492000,480
42,63,492000,120
41,53,492120,120
42,61,492240,120
41,55,492360,120
30,42,492480,132
29,29,492600,132
30,33,492720,132
29,29,492840,132
33,33,492960,132
34,28,493080,132
33,35,493200,132
34,30,493320,132
30,36,493440,132
29,32,493560,132
30,38,493680,132
29,34,493800,132
34,63,493920,480
42,63,493920,120
41,53,494040,120
42,61,494160,120
41,55,494280,120
30,36,494400,132
29,32,494520,132
30,38,494640,132
29,34,494760,132
34,50,494880,480
42,50,494880,120
41,53,495000,120
42,61,495120,120
41,55,495240,120
30,36,495360,132
29,32,495480,132
30,38,495600,132
29,34,495720,132
34,63,495840,480
42,63,495840,120
41,53,495960,120
42,61,496080,120
41,55,496200,120
30,46,496320,132
29,32,496440,132
30,38,496560,132
29,34,496680,132
34,63,496800,480
42,63,496800,120
41,53,496920,120
42,61,497040,120
41,55,497160,120
46,35,497280,480
54,39,497280,132
53,34,497400,132
54,40,497520,132
53,36,497640,132
54,39,497760,132
53,34,497880,132
54,40,498000,132
53,36,498120,132
30,48,498480,120
29,43,498600,120
34,60,498720,480
42,60,498720,120
41,51,498840,120
42,59,498960,120
41,53,499080,120
30,46,499200,132
29,41,499320,132
30,48,499440,132
29,43,499560,132
34,60,499680,480
42,60,499680,120
41,51,499800,120
42,59,499920,120
41,53,500040,120
30,46,500160,132
29,41,500280,132
30,48,500400,132
29,43,500520,132
34,60,500640,480
42,60,500640,120
41,51,500760,120
42,59,500880,120
41,53,501000,120
34,35,501120,960
42,39,501120,132
41,34,501240,132
42,40,501360,132
41,36,501480,132
42,39,501600,132
41,34,501720,132
42,40,501840,132
41,36,501960,120
45,39,502080,132
46,34,502200,132
45,40,502320,132
46,36,502440,132
45,39,502560,132
46,34,502680,132
45,40,502800,132
46,36,502920,120
34,35,503040,960
42,39,503040,132
41,34,503160,132
42,39,503280,132
41,35,503400,132
42,37,503520,132
41,32,503640,132
42,38,503760,132
41,34,503880,120
33,36,504000,132
34,31,504120,132
33,36,504240,132
34,32,504360,132
33,35,504480,132
34,30,504600,132
33,35,504720,132
34,31,504840,120
30,33,504960,132
29,29,505080,132
30,34,505200,132
29,30,505320,132
30,32,505440,132
29,28,505560,132
41,32,505680,132
34,32,505680,132
29,29,505800,120
41,32,505920,132
34,31,505920,132
29,27,506040,132
41,32,506160,132
34,32,506160,132
29,28,506280,132
41,32,506400,132
34,31,506400,132
29,27,506520,132
41,32,506640,132
34,32,506640,132
29,28,506760,120
41,27,506880,120
34,23,507000,120
41,27,507120,120
34,24,507240,120
41,44,507360,120
34,49,507480,120
46,55,507600,120
41,55,507600,120
34,60,507720,120
41,66,507840,120
46,66,507840,120
34,70,507960,120
41,75,508080,120
46,75,508080,120
34,81,508200,120
46,81,508320,240
50,81,508320,240
53,81,508320,240
58,97,508320,240
34,76,508800,960
46,92,508800,960
