note,velocity,position,duration
77,45,600,120
79,50,720,120
77,46,840,120
75,50,960,120
74,46,1080,120
72,46,1200,120
70,46,1320,120
69,50,1440,240
70,47,1680,240
71,53,1920,240
72,49,2160,360
78,45,2520,120
81,50,2640,120
79,46,2760,120
77,50,2880,120
75,46,3000,120
74,46,3120,120
72,46,3240,120
70,50,3360,240
72,47,3600,240
73,53,3840,240
74,49,4080,360
77,51,4440,120
79,58,4560,120
74,52,4680,120
77,56,4800,120
75,52,4920,120
77,57,5040,120
72,52,5160,120
75,57,5280,120
74,52,5400,120
79,59,5520,120
74,52,5640,120
77,62,5760,120
75,56,5880,120
77,62,6000,120
72,54,6120,120
74,67,6240,120
75,57,6360,120
76,59,6480,120
77,61,6600,120
78,67,6720,120
79,64,6840,120
81,67,6960,120
82,69,7080,120
84,70,7200,120
85,74,7320,120
86,81,7440,120
76,54,7560,120
79,58,7680,240
77,53,7920,240
65,38,8280,120
77,45,8280,120
67,42,8400,120
79,50,8400,120
65,39,8520,120
77,46,8520,120
63,42,8640,120
75,50,8640,120
62,39,8760,120
74,46,8760,120
60,39,8880,120
72,46,8880,120
58,39,9000,120
70,46,9000,120
57,42,9120,240
69,42,9120,240
58,39,9360,240
70,47,9360,240
59,45,9600,240
71,53,9600,240
60,41,9840,360
72,49,9840,360
66,38,10200,120
78,45,10200,120
69,42,10320,120
81,50,10320,120
67,39,10440,120
79,46,10440,120
65,42,10560,120
77,50,10560,120
63,39,10680,120
75,46,10680,120
62,39,10800,120
74,46,10800,120
60,39,10920,120
72,46,10920,120
58,42,11040,240
70,50,11040,240
60,39,11280,240
72,47,11280,240
61,45,11520,240
73,53,11520,240
62,41,11760,360
74,49,11760,360
77,56,12120,120
68,45,12240,480
79,63,12240,120
74,57,12360,120
77,62,12480,120
75,58,12600,120
69,45,12720,240
77,63,12720,120
72,58,12840,120
70,46,12960,240
75,64,12960,120
74,59,13080,120
68,46,13200,480
79,67,13200,120
74,59,13320,120
77,71,13440,120
75,64,13560,120
69,47,13680,240
77,71,13680,120
72,63,13800,120
70,59,13920,120
75,71,13920,120
62,53,14040,120
74,63,14040,120
63,56,14160,120
75,67,14160,120
65,60,14280,120
77,71,14280,120
66,67,14400,120
78,80,14400,120
67,63,14520,120
79,75,14520,120
69,67,14640,60
81,80,14640,60
70,70,14760,60
82,83,14760,60
58,70,14880,240
70,70,14880,240
60,58,15120,240
72,69,15120,240
61,41,15360,240
73,49,15360,240
62,38,15600,300
74,45,15600,300
70,59,15900,60
69,61,15960,60
70,62,16020,60
71,62,16080,60
72,64,16140,60
73,65,16200,60
74,67,16260,60
75,69,16320,60
76,70,16380,60
77,71,16440,60
78,73,16500,60
79,74,16560,60
80,76,16620,60
81,77,16680,60
82,78,16740,60
70,53,16800,48
72,48,16848,48
70,45,16896,48
69,45,16944,48
70,45,16992,48
63,42,17040,240
74,52,17040,180
72,41,17220,60
62,42,17280,240
70,50,17280,240
65,67,17760,480
74,80,17760,480
67,45,18240,480
72,53,18240,52
74,50,18292,51
72,53,18343,52
74,50,18395,52
72,53,18447,51
71,49,18498,52
72,49,18550,51
74,49,18600,60
75,50,18660,60
67,57,18720,240
63,45,18960,240
69,54,18960,240
62,47,19200,480
70,56,19200,240
65,46,19440,120
65,67,19680,480
74,80,19680,480
67,45,20160,480
72,63,20160,120
74,56,20280,40
72,56,20320,40
71,56,20360,40
72,63,20400,180
74,58,20580,60
64,45,20640,480
70,63,20640,120
72,56,20760,40
70,56,20800,40
69,56,20840,40
70,63,20880,180
72,58,21060,60
65,47,21120,480
70,56,21120,240
69,46,21360,120
69,55,21840,480
77,64,21900,420
81,69,21960,360
69,57,22320,480
77,68,22380,420
81,73,22440,360
69,60,22800,480
77,71,22860,420
81,76,22920,360
69,63,23280,240
77,74,23340,180
81,79,23400,120
89,82,23760,480
77,69,23760,480
88,62,24240,120
76,52,24240,120
86,82,24720,480
74,69,24720,480
84,62,25200,120
72,52,25200,120
82,82,25680,360
70,69,25680,360
69,52,26040,240
81,62,26040,240
67,60,26280,240
79,60,26280,240
65,52,26520,240
77,62,26520,240
67,54,26760,120
79,58,26760,120
68,56,26880,240
80,66,26880,240
69,51,27120,240
81,60,27120,240
65,57,27360,720
69,57,27360,240
71,49,27600,480
72,62,28080,120
64,52,28080,120
62,57,28320,720
65,57,28320,240
67,49,28560,240
68,53,28800,240
69,62,29040,120
60,52,29040,120
58,57,29280,600
62,57,29280,240
64,49,29520,240
65,53,29760,120
57,57,29880,240
55,62,30120,240
53,67,30360,240
52,72,30600,120
53,70,30720,60
45,50,30780,60
48,50,30840,60
53,50,30900,60
57,53,30960,60
60,50,31020,60
65,50,31080,60
69,50,31140,60
60,55,31200,60
65,50,31260,60
69,50,31320,60
72,50,31380,60
65,55,31440,60
69,50,31500,60
72,50,31560,60
77,50,31620,60
76,74,31680,60
82,50,31740,60
79,50,31800,60
76,50,31860,60
72,54,31920,60
79,50,31980,60
76,50,32040,60
72,50,32100,60
70,56,32160,60
76,50,32220,60
72,50,32280,60
70,50,32340,60
67,54,32400,60
72,50,32460,60
70,50,32520,60
67,50,32580,60
65,70,32640,60
57,50,32700,60
60,50,32760,60
65,50,32820,60
69,53,32880,60
72,50,32940,60
77,50,33000,60
81,50,33060,60
72,55,33120,60
77,50,33180,60
81,50,33240,60
84,50,33300,60
77,55,33360,60
81,50,33420,60
84,50,33480,60
89,50,33540,60
82,74,33600,60
88,50,33660,60
84,50,33720,60
82,50,33780,60
79,54,33840,60
84,50,33900,60
82,50,33960,60
79,50,34020,60
76,56,34080,60
82,50,34140,60
79,50,34200,60
76,50,34260,60
70,54,34320,60
79,50,34380,60
76,50,34440,60
70,50,34500,60
65,77,34560,60
57,55,34620,60
60,55,34680,60
65,55,34740,60
69,58,34800,60
72,55,34860,60
77,55,34920,60
81,55,34980,60
72,61,35040,60
77,55,35100,60
81,56,35160,60
84,56,35220,60
77,61,35280,60
81,56,35340,60
84,56,35400,60
89,56,35460,60
57,62,35580,60
60,62,35640,60
65,62,35700,60
69,66,35760,60
72,62,35820,60
77,62,35880,60
81,62,35940,60
72,69,36000,60
77,63,36060,60
81,63,36120,60
84,63,36180,60
77,69,36240,60
81,63,36300,60
84,63,36360,60
89,63,36420,60
58,63,36540,60
61,70,36600,60
65,70,36660,60
70,73,36720,60
73,70,36780,60
77,70,36840,60
82,70,36900,60
73,77,36960,60
77,70,37020,60
82,70,37080,60
85,70,37140,60
77,78,37200,60
82,71,37260,60
85,71,37320,60
89,71,37380,60
76,79,37440,60
88,70,37500,60
85,70,37560,60
82,70,37620,60
76,80,37680,60
73,68,37740,60
70,70,37800,60
64,70,37860,60
61,79,37920,60
63,68,37980,60
61,69,38040,60
60,69,38100,60
58,78,38160,60
61,72,38220,60
60,76,38280,60
58,81,38340,60
57,86,38400,240
60,40,39960,120
62,45,40080,120
60,41,40200,120
58,45,40320,120
57,40,40440,120
55,43,40560,120
53,40,40680,90
53,45,40800,240
63,38,41880,40
65,40,41920,40
63,38,41960,40
65,45,42000,120
63,41,42120,120
62,45,42240,120
60,40,42360,120
58,43,42480,120
57,40,42600,90
57,45,42720,240
72,44,43080,120
74,49,43200,120
72,45,43320,120
70,49,43440,120
69,44,43560,120
67,47,43680,120
65,44,43800,90
75,44,44040,120
77,49,44160,120
75,45,44280,120
74,49,44400,120
72,44,44520,120
70,47,44640,120
69,44,44760,120
77,49,44880,120
75,47,45000,120
74,47,45120,120
72,47,45240,120
70,44,45360,120
69,44,45480,120
77,53,45600,120
75,49,45720,120
74,46,45840,120
72,46,45960,120
70,49,46080,80
69,49,46160,80
77,54,46240,80
75,49,46320,80
74,49,46400,80
72,49,46480,80
70,49,46560,60
69,49,46620,60
77,58,46680,60
75,50,46740,60
74,50,46800,60
72,50,46860,60
70,50,46920,60
69,50,46980,60
77,59,47040,60
75,52,47100,60
74,52,47160,60
72,52,47220,60
70,52,47280,60
69,52,47340,60
78,61,47400,60
77,55,47460,60
75,56,47520,48
74,57,47568,48
72,58,47616,48
70,58,47664,48
69,59,47712,48
79,50,47760,120
77,46,47880,120
75,50,48000,120
74,46,48120,120
72,46,48240,120
70,46,48360,120
69,50,48480,240
70,47,48720,240
71,53,48960,240
72,49,49200,240
78,45,49560,120
81,50,49680,120
79,46,49800,120
77,50,49920,120
75,44,50040,120
74,46,50160,120
72,44,50280,120
69,50,50400,120
70,41,50520,120
71,47,50640,120
72,44,50760,120
73,58,50880,240
74,53,51120,360
77,56,51480,120
79,64,51600,120
74,58,51720,120
77,62,51840,120
75,58,51960,120
77,64,52080,120
72,58,52200,120
75,64,52320,120
74,59,52440,120
79,67,52560,120
74,59,52680,120
77,71,52800,120
75,64,52920,120
77,71,53040,120
72,62,53160,120
74,70,53280,120
75,60,53400,120
76,62,53520,120
77,64,53640,120
78,70,53760,120
79,66,53880,120
81,69,54000,120
82,70,54120,120
84,71,54240,120
85,76,54360,120
86,81,54480,120
76,64,54600,120
79,58,54720,240
77,53,54960,240
65,38,55320,120
77,45,55320,120
67,42,55440,120
79,50,55440,120
65,39,55560,120
77,46,55560,120
63,42,55680,120
75,50,55680,120
62,39,55800,120
74,46,55800,120
60,39,55920,120
72,46,55920,120
58,39,56040,120
70,46,56040,120
57,42,56160,240
69,42,56160,240
58,39,56400,240
70,47,56400,240
59,45,56640,240
71,53,56640,240
60,41,56880,360
72,49,56880,360
66,38,57240,120
78,45,57240,120
69,42,57360,120
81,50,57360,120
67,39,57480,120
79,46,57480,120
65,42,57600,120
77,50,57600,120
63,43,57720,120
75,43,57720,120
62,39,57840,120
74,46,57840,120
60,43,57960,120
72,43,57960,120
57,42,58080,120
69,50,58080,120
58,44,58200,120
70,44,58200,120
59,39,58320,120
71,47,58320,120
60,45,58440,120
72,45,58440,120
61,45,58560,240
73,53,58560,240
62,41,58800,360
74,49,58800,360
77,56,59160,120
68,45,59280,480
79,63,59280,120
74,57,59400,120
77,62,59520,120
75,58,59640,120
69,45,59760,240
77,63,59760,120
72,58,59880,120
70,46,60000,240
75,64,60000,120
74,59,60120,120
68,46,60240,480
79,67,60240,120
74,59,60360,120
77,71,60480,120
75,64,60600,120
69,47,60720,240
77,71,60720,120
72,63,60840,120
70,59,60960,120
75,71,60960,120
62,53,61080,120
74,63,61080,120
63,56,61200,120
75,67,61200,120
65,60,61320,120
77,71,61320,120
66,64,61440,120
78,76,61440,120
67,61,61560,120
79,72,61560,120
69,64,61680,60
81,76,61680,60
70,67,61800,60
82,80,61800,60
58,71,61920,240
70,71,61920,240
60,58,62160,240
72,69,62160,240
61,41,62400,240
73,49,62400,240
62,38,62640,300
74,45,62640,300
70,59,62940,60
69,61,63000,60
70,62,63060,60
71,62,63120,60
72,64,63180,60
73,65,63240,60
74,67,63300,60
75,69,63360,60
76,70,63420,60
77,71,63480,60
78,73,63540,60
79,74,63600,60
80,76,63660,60
81,78,63720,60
82,78,63780,60
70,53,63840,48
72,48,63888,48
70,45,63936,48
69,45,63984,48
70,45,64032,48
63,42,64080,240
74,52,64080,180
72,41,64260,60
62,42,64320,240
70,50,64320,240
53,79,64800,480
61,96,64800,480
54,85,65280,480
59,96,65280,360
61,70,65640,60
63,71,65700,60
54,81,65760,240
51,64,66000,240
57,77,66000,240
49,67,66240,480
58,79,66240,240
53,65,66480,120
53,79,66720,480
61,96,66720,480
55,96,67200,480
60,96,67200,480
60,96,67680,480
70,96,67680,480
60,81,68160,120
68,96,68160,120
65,86,68400,480
68,86,68400,480
77,102,68400,480
64,81,68880,120
67,81,68880,120
76,96,68880,120
65,86,69120,120
68,86,69120,120
77,102,69120,120
60,36,69240,66
58,31,69300,60
60,36,69360,66
56,32,69420,60
60,36,69480,66
55,31,69540,60
60,42,69600,66
53,31,69660,60
60,36,69720,66
52,31,69780,60
60,36,69840,66
53,30,69900,60
60,36,69960,66
55,31,70020,60
60,45,70080,66
56,31,70140,60
65,36,70200,66
63,31,70260,60
65,36,70320,66
61,32,70380,60
65,36,70440,66
60,31,70500,60
65,42,70560,66
58,31,70620,60
65,36,70680,66
57,31,70740,60
65,36,70800,66
58,30,70860,60
65,36,70920,66
60,31,70980,60
65,49,71040,66
61,34,71100,60
65,39,71160,66
61,34,71220,60
67,39,71280,66
65,35,71340,60
67,39,71400,66
65,34,71460,60
68,46,71520,66
65,34,71580,60
68,39,71640,66
65,34,71700,60
70,39,71760,66
64,33,71820,60
70,39,71880,66
64,34,71940,60
65,78,72000,120
60,36,72120,60
72,42,72120,66
70,37,72180,60
60,36,72240,60
72,43,72240,66
68,39,72300,60
60,36,72360,60
72,44,72360,66
67,39,72420,60
60,44,72480,60
72,53,72480,66
65,39,72540,60
60,38,72600,60
72,46,72600,66
64,39,72660,60
60,39,72720,60
72,47,72720,66
65,40,72780,60
60,40,72840,60
72,48,72840,66
67,41,72900,60
60,52,72960,60
72,61,72960,66
68,42,73020,60
65,42,73080,60
77,50,73080,66
75,43,73140,60
65,42,73200,60
77,50,73200,66
73,46,73260,60
65,42,73320,60
77,52,73320,66
72,45,73380,60
65,51,73440,60
77,62,73440,66
70,45,73500,60
65,44,73560,60
77,54,73560,66
69,47,73620,60
65,44,73680,60
77,54,73680,66
70,46,73740,60
65,46,73800,60
77,56,73800,66
72,47,73860,60
65,63,73920,60
77,77,73920,66
73,54,73980,60
65,52,74040,60
77,62,74040,66
73,54,74100,60
67,53,74160,60
79,63,74160,66
77,57,74220,60
67,53,74280,60
79,63,74280,66
77,56,74340,60
68,65,74400,60
80,76,74400,66
77,57,74460,60
68,55,74520,60
80,67,74520,66
77,58,74580,60
70,57,74640,60
82,67,74640,66
76,57,74700,60
70,58,74760,60
82,68,74760,66
76,60,74820,60
77,94,74880,120
89,93,75000,240
89,89,75240,120
88,90,75360,60
85,73,75420,60
82,78,75480,60
79,74,75540,60
76,67,75600,120
73,56,75600,60
72,61,75660,60
76,61,75720,120
73,51,75720,60
70,60,75780,60
77,83,75840,110
68,77,75840,120
77,93,75960,240
77,89,76200,120
76,90,76320,60
73,75,76380,60
70,78,76440,60
67,74,76500,60
64,67,76560,120
61,56,76560,60
60,61,76620,60
64,61,76680,120
61,51,76680,60
58,60,76740,60
56,70,76800,240
65,83,76800,240
58,88,78000,540
61,71,78540,60
60,71,78600,60
58,64,78660,60
56,81,78720,240
53,73,78960,240
63,88,79920,540
66,71,80460,60
65,71,80520,60
63,64,80580,60
61,81,80640,240
58,73,80880,240
73,79,81120,480
63,72,81600,780
72,83,81600,360
73,70,81960,60
75,70,82020,60
67,85,82080,120
69,80,82320,120
66,71,82380,60
65,71,82440,60
63,64,82500,60
61,81,82560,240
70,81,82560,480
58,73,82800,240
78,79,83040,480
68,72,83520,780
77,83,83520,360
78,70,83880,60
80,70,83940,60
72,85,84000,120
74,80,84240,120
71,71,84300,60
70,71,84360,60
68,64,84420,60
66,81,84480,240
75,81,84480,480
63,73,84720,240
83,93,85680,600
80,79,85680,600
78,68,86280,66
82,80,86280,66
77,62,86340,66
80,74,86340,66
75,86,86400,120
78,93,86400,120
82,93,86640,600
78,79,86640,600
77,68,87240,66
80,80,87240,66
75,62,87300,66
78,74,87300,66
77,91,87360,360
73,77,87360,360
75,64,87720,66
78,77,87720,66
77,64,87780,66
80,77,87780,66
68,79,87840,120
72,93,87840,120
70,74,88080,120
73,88,88080,120
75,91,88320,360
72,77,88320,360
73,64,88680,66
77,77,88680,66
75,64,88740,66
78,77,88740,66
67,79,88800,120
70,93,88800,120
69,74,89040,120
72,88,89040,120
73,91,89280,360
70,77,89280,480
75,77,89640,60
77,77,89700,60
78,91,89760,360
70,77,89760,480
80,77,90120,60
82,77,90180,60
83,91,90240,360
78,77,90240,480
85,77,90600,60
87,77,90660,60
65,77,90720,120
70,91,90720,120
63,74,90960,120
69,88,90960,120
61,75,91200,120
70,90,91200,120
65,36,91320,66
63,31,91380,60
65,36,91440,66
61,32,91500,60
65,36,91560,66
60,31,91620,60
65,42,91680,66
58,31,91740,60
65,36,91800,66
57,31,91860,60
65,36,91920,66
58,30,91980,60
65,36,92040,66
60,31,92100,60
65,45,92160,66
61,31,92220,60
70,36,92280,66
68,31,92340,60
70,36,92400,66
66,32,92460,60
70,36,92520,66
65,31,92580,60
70,42,92640,66
63,31,92700,60
70,36,92760,66
62,31,92820,60
70,36,92880,66
63,30,92940,60
70,36,93000,66
65,31,93060,60
70,49,93120,66
66,34,93180,60
70,39,93240,66
66,34,93300,60
72,39,93360,66
70,35,93420,60
72,39,93480,66
70,34,93540,60
73,46,93600,66
70,34,93660,60
73,39,93720,66
70,34,93780,60
75,39,93840,66
69,33,93900,60
75,39,93960,66
69,34,94020,60
70,74,94080,120
77,48,94200,66
65,40,94200,60
75,42,94260,60
65,40,94320,60
77,48,94320,66
73,43,94380,60
65,40,94440,60
77,50,94440,66
72,45,94500,60
77,59,94560,66
65,49,94560,60
70,45,94620,60
65,44,94680,60
77,54,94680,66
69,45,94740,60
65,44,94800,60
77,54,94800,66
70,45,94860,60
77,56,94920,66
65,46,94920,60
72,47,94980,60
65,61,95040,60
77,72,95040,66
73,48,95100,60
70,48,95160,60
82,58,95160,66
80,50,95220,60
70,50,95280,60
82,59,95280,66
78,55,95340,60
82,62,95400,66
70,50,95400,60
77,54,95460,60
70,62,95520,60
82,73,95520,66
75,54,95580,60
82,66,95640,66
70,53,95640,60
74,55,95700,60
70,53,95760,60
82,66,95760,66
75,55,95820,60
70,57,95880,60
82,69,95880,66
77,58,95940,60
82,86,96000,66
70,70,96000,60
78,66,96060,60
70,63,96120,60
82,75,96120,66
78,68,96180,60
72,66,96240,60
84,78,96240,66
82,71,96300,60
84,78,96360,66
72,66,96360,60
82,71,96420,60
85,97,96480,66
73,82,96480,60
82,71,96540,60
73,69,96600,60
85,86,96600,66
82,74,96660,60
75,73,96720,60
87,86,96720,66
81,73,96780,60
87,87,96840,66
75,75,96840,60
81,77,96900,60
82,100,96960,120
89,97,97080,240
89,93,97320,120
87,94,97440,60
84,74,97500,60
81,81,97560,60
77,77,97620,60
75,58,97680,60
74,64,97740,60
75,53,97800,60
72,63,97860,60
70,87,97920,110
77,97,98040,240
77,93,98280,120
75,94,98400,60
72,73,98460,60
69,81,98520,60
65,74,98580,60
63,58,98640,60
62,64,98700,60
63,53,98760,60
60,63,98820,60
58,87,98880,240
63,36,100800,480
58,36,100800,240
61,43,100800,240
56,34,101040,240
59,40,101040,240
63,30,102720,960
60,30,102720,960
66,36,102720,240
65,34,102960,350
65,34,103320,132
66,34,103440,132
65,34,103560,120
63,30,103680,960
60,30,103680,960
66,36,103680,240
65,34,103920,350
65,34,104280,132
66,34,104400,132
65,34,104520,120
63,30,104640,240
60,30,104640,240
66,36,104640,360
65,34,105000,120
66,36,105120,360
65,29,105480,120
66,34,105600,60
65,29,105660,60
66,34,105720,60
65,29,105780,60
66,34,105840,60
65,29,105900,60
66,34,105960,60
65,30,106020,60
66,34,106080,60
65,30,106140,60
66,34,106200,60
65,29,106260,60
66,34,106320,60
65,29,106380,60
66,34,106440,60
65,31,106500,60
67,34,106560,60
65,29,106620,60
67,35,106680,60
65,30,106740,60
67,36,106800,60
65,31,106860,60
67,37,106920,60
65,33,106980,60
67,39,107040,60
65,34,107100,60
67,40,107160,60
65,34,107220,60
67,41,107280,60
65,35,107340,60
67,42,107400,60
65,39,107460,60
65,42,107640,120
77,48,107760,120
65,42,107880,120
65,42,108120,120
77,47,108240,120
65,42,108360,120
65,42,108600,120
77,48,108720,120
65,42,108840,120
77,48,108960,120
65,42,109560,120
77,48,109680,120
65,42,109800,120
65,42,110040,120
77,47,110160,120
65,42,110280,120
65,42,110520,120
77,48,110640,120
65,42,110760,120
77,48,110880,240
77,56,111480,120
89,67,111600,240
65,47,111960,120
77,54,112080,240
77,66,112440,120
89,78,112560,360
77,71,112920,240
79,67,113160,60
81,70,113220,60
82,72,113280,60
84,73,113340,60
86,75,113400,60
84,73,113460,60
82,74,113520,60
81,70,113580,60
79,71,113640,60
77,69,113700,60
76,68,113760,60
74,66,113820,60
72,63,113880,60
70,62,113940,60
69,60,114000,60
67,58,114060,60
65,57,114120,60
64,55,114180,60
67,54,114240,60
65,49,114300,60
69,54,114360,60
67,48,114420,60
70,54,114480,60
69,50,114540,60
72,54,114600,60
70,49,114660,60
74,54,114720,60
72,48,114780,60
75,54,114840,60
74,49,114900,60
77,54,114960,60
76,48,115020,60
79,53,115080,60
77,49,115140,60
63,42,115200,120
75,50,115200,120
62,39,115320,120
74,46,115320,120
60,39,115440,120
72,46,115440,120
58,39,115560,120
70,46,115560,120
57,42,115680,240
69,42,115680,240
58,39,115920,240
70,47,115920,240
59,45,116160,240
71,53,116160,240
60,41,116400,360
72,49,116400,360
66,48,116760,60
78,45,116820,60
69,43,116880,60
81,46,116940,60
67,53,117000,60
79,46,117060,60
65,52,117120,60
77,47,117180,60
63,51,117240,60
75,46,117300,60
62,51,117360,60
74,46,117420,60
60,51,117480,60
72,46,117540,60
57,50,117600,60
69,42,117660,60
58,47,117720,60
70,42,117780,60
59,49,117840,60
71,42,117900,60
60,49,117960,60
72,42,118020,60
61,45,118080,240
73,53,118080,240
62,41,118320,360
74,49,118320,360
65,56,118680,60
77,52,118740,60
67,64,118800,60
79,58,118860,60
62,57,118920,60
74,52,118980,60
65,62,119040,60
77,59,119100,60
63,58,119160,60
75,53,119220,60
65,64,119280,60
77,58,119340,60
60,58,119400,60
72,51,119460,60
63,64,119520,60
75,59,119580,60
62,59,119640,60
74,53,119700,60
67,67,119760,60
79,60,119820,60
62,59,119880,60
74,55,119940,60
65,71,120000,60
77,67,120060,60
63,64,120120,60
75,59,120180,60
65,72,120240,60
77,67,120300,60
60,63,120360,60
72,60,120420,60
63,71,120480,60
75,64,120540,60
62,64,120600,60
74,57,120660,60
63,67,120720,60
75,58,120780,60
65,71,120840,60
77,64,120900,60
66,76,120960,60
78,69,121020,60
67,76,121080,60
79,69,121140,60
69,76,121200,60
81,66,121260,60
70,78,121320,60
82,70,121380,60
58,71,121440,240
70,71,121440,240
60,58,121680,240
72,69,121680,240
61,41,121920,240
73,49,121920,240
62,38,122160,300
74,45,122160,300
70,59,122460,60
69,61,122520,60
70,62,122580,60
71,62,122640,60
72,64,122700,60
73,65,122760,60
74,67,122820,60
75,69,122880,60
76,70,122940,60
77,71,123000,60
78,73,123060,60
79,74,123120,60
80,76,123180,60
81,77,123240,60
82,78,123300,60
70,53,123360,48
72,48,123408,48
70,45,123456,48
69,45,123504,48
70,45,123552,48
63,42,123600,240
74,52,123600,180
72,41,123780,60
62,42,123840,240
70,50,123840,240
65,67,124320,480
74,80,124320,480
67,45,124800,480
72,53,124800,52
74,50,124852,51
72,53,124903,52
74,50,124955,52
72,53,125007,51
71,49,125058,52
72,49,125110,51
74,49,125160,60
75,50,125220,60
67,57,125280,240
63,45,125520,240
69,54,125520,240
62,47,125760,470
70,56,125760,240
65,46,126000,120
65,67,126240,480
74,80,126240,480
67,45,126720,480
72,63,126720,120
74,56,126840,40
72,56,126880,40
71,56,126920,40
72,63,126960,180
74,58,127140,60
64,45,127200,480
70,63,127200,120
72,56,127320,40
70,56,127360,40
69,56,127400,40
70,63,127440,180
72,58,127620,60
65,47,127680,480
70,56,127680,240
69,46,127920,120
67,67,128160,480
79,80,128160,480
72,45,128640,480
77,63,128640,120
79,56,128760,40
77,56,128800,40
76,56,128840,40
77,63,128880,180
79,58,129060,60
69,45,129120,480
75,63,129120,120
77,56,129240,40
75,56,129280,40
74,56,129320,40
75,63,129360,180
77,58,129540,60
70,47,129600,470
75,56,129600,240
74,46,129840,120
74,54,130320,480
82,69,130380,420
86,73,130440,360
74,61,130800,480
82,73,130860,420
86,78,130920,360
74,65,131280,480
82,76,131340,420
86,81,131400,360
74,68,131760,240
82,80,131820,180
86,86,131880,120
86,90,132240,480
74,75,132240,480
84,68,132720,120
72,57,132720,120
82,90,133200,480
70,75,133200,480
81,68,133680,120
69,57,133680,120
79,90,134160,360
67,75,134160,360
65,57,134520,240
77,68,134520,240
63,66,134760,240
75,66,134760,240
62,57,135000,240
74,68,135000,240
60,59,135240,120
72,63,135240,120
61,61,135360,240
73,72,135360,240
62,56,135600,120
74,66,135600,120
62,62,135840,240
74,57,136080,480
64,53,136080,480
65,68,136560,120
72,57,136560,120
58,62,136800,240
70,57,137040,480
61,53,137040,480
62,68,137520,120
69,57,137520,120
55,62,137760,240
67,62,137760,240
57,59,138000,240
66,53,138000,480
58,59,138240,240
65,69,138360,240
55,69,138480,240
60,69,138480,240
63,77,138600,240
62,84,138840,240
60,92,139080,120
58,92,139200,60
50,50,139260,60
53,50,139320,60
58,50,139380,60
62,53,139440,60
65,50,139500,60
70,50,139560,60
74,50,139620,60
65,55,139680,60
70,50,139740,60
74,50,139800,60
77,50,139860,60
70,55,139920,60
74,50,139980,60
77,50,140040,60
82,50,140100,60
81,69,140160,60
87,50,140220,60
84,50,140280,60
81,50,140340,60
77,54,140400,60
84,50,140460,60
81,50,140520,60
77,50,140580,60
75,56,140640,60
81,50,140700,60
77,50,140760,60
75,50,140820,60
72,54,140880,60
77,50,140940,60
75,50,141000,60
72,50,141060,60
70,69,141120,60
50,50,141180,60
53,50,141240,60
58,50,141300,60
62,53,141360,60
65,50,141420,60
70,50,141480,60
74,50,141540,60
65,55,141600,60
70,50,141660,60
74,50,141720,60
77,50,141780,60
70,55,141840,60
74,50,141900,60
77,50,141960,60
82,50,142020,60
81,72,142080,60
87,50,142140,60
84,50,142200,60
81,50,142260,60
77,54,142320,60
84,50,142380,60
81,50,142440,60
77,50,142500,60
75,56,142560,60
81,50,142620,60
77,50,142680,60
75,50,142740,60
72,54,142800,60
77,50,142860,60
75,50,142920,60
72,50,142980,60
70,74,143040,60
50,50,143100,60
53,50,143160,60
58,50,143220,60
62,53,143280,60
65,50,143340,60
70,50,143400,60
74,50,143460,60
65,55,143520,60
70,50,143580,60
74,50,143640,60
77,50,143700,60
70,55,143760,60
74,50,143820,60
77,50,143880,60
82,50,143940,60
50,55,144060,60
53,55,144120,60
58,55,144180,60
62,58,144240,60
65,55,144300,60
70,55,144360,60
74,55,144420,60
65,60,144480,60
70,55,144540,60
74,55,144600,60
77,55,144660,60
70,60,144720,60
74,55,144780,60
77,55,144840,60
82,55,144900,60
51,55,145020,60
55,60,145080,60
58,60,145140,60
63,63,145200,60
67,60,145260,60
70,60,145320,60
75,60,145380,60
67,66,145440,60
70,60,145500,60
75,60,145560,60
79,60,145620,60
70,66,145680,60
75,60,145740,60
79,60,145800,60
82,60,145860,60
62,66,146400,60
65,59,146460,60
68,61,146520,60
70,64,146580,60
74,67,146640,48
77,68,146688,48
80,70,146736,48
84,68,146784,48
82,65,146832,48
80,50,146880,120
79,46,147000,120
77,46,147120,120
75,46,147240,120
74,50,147360,240
75,47,147600,240
76,53,147840,240
77,49,148080,240
83,45,148440,24
84,43,148464,24
83,45,148488,24
81,42,148512,24
83,42,148536,24
86,50,148560,120
84,46,148680,120
82,50,148800,120
80,44,148920,120
79,46,149040,120
77,43,149160,120
74,50,149280,120
75,44,149400,120
76,47,149520,120
77,43,149640,120
78,53,149760,240
79,49,150000,360
79,51,150360,120
80,58,150480,120
79,52,150600,120
77,50,150720,120
75,44,150840,120
74,46,150960,120
72,43,151080,120
71,50,151200,240
72,47,151440,240
73,53,151680,240
74,49,151920,240
79,34,152280,120
80,40,152400,120
79,36,152520,120
77,40,152640,120
75,36,152760,120
74,38,152880,120
72,36,153000,120
75,34,153240,120
77,40,153360,120
75,36,153480,120
74,40,153600,120
72,36,153720,120
70,38,153840,120
69,36,153960,120
57,36,155580,60
58,36,155640,60
60,37,155700,60
62,37,155760,60
63,38,155820,60
65,39,155880,60
67,39,155940,60
69,40,156000,80
70,42,156080,80
71,43,156160,80
72,44,156240,80
73,44,156320,80
74,45,156400,80
75,49,156480,80
69,42,156560,80
70,42,156640,80
71,45,156720,80
72,48,156800,80
74,50,156880,80
75,52,156960,80
69,47,157040,80
70,49,157120,80
71,50,157200,80
72,52,157280,80
74,53,157360,80
75,62,157440,60
69,54,157500,60
68,51,157560,60
69,52,157620,60
70,53,157680,60
71,54,157740,60
72,56,157800,60
73,57,157860,60
74,59,157920,80
75,61,158000,80
76,59,158080,80
79,50,158160,120
77,46,158280,110
77,50,158400,40
75,46,158480,40
74,46,158560,40
74,46,158640,40
72,46,158720,40
70,46,158800,40
70,50,158880,40
68,44,158960,40
69,44,159040,40
72,47,159120,40
69,44,159200,40
70,44,159280,40
71,53,159360,240
72,49,159600,240
78,45,159960,120
81,50,160080,120
79,46,160200,120
79,50,160320,40
77,46,160400,40
75,46,160480,40
75,46,160560,40
74,42,160640,40
72,42,160720,40
72,50,160800,40
69,44,160880,40
70,44,160960,40
74,47,161040,40
71,44,161120,40
72,44,161200,40
73,53,161280,240
74,49,161520,320
77,51,161840,80
76,48,161920,80
77,58,162000,80
79,52,162080,80
74,49,162160,80
77,56,162240,80
75,52,162320,80
74,51,162400,80
75,57,162480,80
77,52,162560,80
72,52,162640,80
75,57,162720,80
74,52,162800,80
73,51,162880,80
74,59,162960,80
79,52,163040,80
74,55,163120,80
77,62,163200,80
75,56,163280,80
74,56,163360,80
75,62,163440,80
77,54,163520,80
72,54,163600,80
75,61,163680,60
74,55,163740,60
73,52,163800,60
74,53,163860,60
75,55,163920,60
76,56,163980,60
77,57,164040,60
78,58,164100,60
79,64,164160,60
80,60,164220,60
81,61,164280,60
82,62,164340,60
83,63,164400,60
84,65,164460,60
85,67,164520,60
86,68,164580,60
88,79,164640,60
86,62,164700,60
84,65,164760,60
82,59,164820,60
81,64,164880,60
79,59,164940,60
77,58,165000,60
76,54,165060,60
79,58,165120,240
77,53,165360,240
65,38,165720,120
77,45,165720,120
67,42,165840,120
79,50,165840,120
65,39,165960,120
77,46,165960,120
63,42,166160,40
75,50,166160,40
62,35,166240,40
74,41,166240,40
60,39,166400,40
72,46,166400,40
58,35,166480,40
70,41,166480,40
56,42,166640,40
68,50,166640,40
57,35,166720,40
69,41,166720,40
57,39,166880,40
69,46,166880,40
70,41,166960,40
58,35,166960,40
59,45,167040,240
71,53,167040,240
72,49,167280,360
60,41,167280,360
78,45,167640,120
66,38,167640,120
69,42,167760,120
81,50,167760,120
67,39,167880,120
79,46,167880,120
65,42,168080,40
77,50,168080,40
63,35,168160,40
75,41,168160,40
62,39,168320,40
74,46,168320,40
72,41,168400,40
60,35,168400,40
57,42,168560,40
69,50,168560,40
58,35,168640,40
70,41,168640,40
59,39,168800,40
71,46,168800,40
72,41,168880,40
60,35,168880,40
61,45,168960,240
73,53,168960,240
74,49,169200,320
62,41,169200,480
77,56,169520,80
76,56,169600,80
68,54,169680,480
77,62,169680,80
79,57,169760,80
74,51,169840,80
77,62,169920,80
75,58,170000,80
74,54,170080,80
75,63,170160,80
69,46,170160,240
77,58,170240,80
72,53,170320,80
75,64,170400,80
70,46,170400,240
74,59,170480,80
73,59,170560,80
74,67,170640,80
68,47,170640,480
79,62,170720,80
74,59,170800,80
77,71,170880,80
75,64,170960,80
74,61,171040,80
75,72,171120,80
69,47,171120,240
77,66,171200,80
72,63,171280,60
70,60,171360,80
75,71,171360,80
62,53,171440,80
74,63,171440,80
61,53,171520,80
73,63,171520,80
62,57,171600,80
74,67,171600,80
63,60,171680,40
75,71,171680,40
64,60,171760,40
76,71,171760,40
65,64,171840,40
77,76,171840,40
66,61,171920,40
78,72,171920,40
67,61,172000,40
79,72,172000,40
68,64,172080,40
80,76,172080,40
69,67,172160,40
81,80,172160,40
70,67,172240,40
82,80,172240,40
70,71,172320,240
58,71,172320,240
72,69,172560,240
60,58,172560,240
61,41,172800,240
73,49,172800,240
62,38,173040,300
74,45,173040,300
70,59,173340,60
69,61,173400,60
70,62,173460,60
71,62,173520,60
72,64,173580,60
73,65,173640,60
74,67,173700,60
75,69,173760,60
76,70,173820,60
77,71,173880,60
78,73,173940,60
79,74,174000,60
80,76,174060,60
81,77,174120,60
82,78,174180,60
70,53,174240,48
72,48,174288,48
70,45,174336,48
69,45,174384,48
70,45,174432,48
63,44,174480,240
74,52,174480,180
72,41,174660,60
70,53,174720,60
62,53,174720,240
65,59,174780,60
67,62,174840,60
69,64,174900,60
70,67,174960,60
72,71,175020,60
74,78,175080,60
75,84,175140,60
70,85,175200,480
77,101,175200,480
69,85,175680,480
77,101,175680,480
70,85,176160,360
77,101,176160,480
72,85,176520,60
74,85,176580,60
75,85,176640,480
77,101,176640,480
74,85,177120,360
82,101,177120,480
75,56,177480,60
77,57,177540,60
82,81,177600,60
79,68,177600,60
72,45,177840,60
84,53,177840,60
79,45,177840,60
86,63,178080,60
77,53,178080,60
74,53,178080,60
87,54,178320,60
75,45,178320,60
74,51,178560,480
86,61,178560,240
82,53,178800,120
70,81,179040,480
77,97,179040,480
69,81,179520,480
77,97,179520,480
70,81,180000,360
77,97,180000,480
72,81,180360,60
74,81,180420,60
75,81,180480,480
77,97,180480,480
74,81,180960,360
82,97,180960,540
75,67,181320,60
77,68,181380,60
79,97,181440,60
75,81,181440,60
72,67,181680,60
84,79,181680,60
79,67,181680,60
86,98,181920,60
77,82,181920,60
74,82,181920,60
87,87,182160,60
75,74,182160,60
74,75,182400,480
86,104,182400,240
82,81,182640,120
70,74,182880,360
74,88,182880,360
82,106,182880,540
72,61,183240,60
75,73,183240,60
74,62,183300,60
77,74,183300,60
79,106,183360,60
75,88,183360,60
72,72,183600,60
84,86,183600,60
79,72,183600,60
86,108,183840,60
77,90,183840,60
74,90,183840,60
87,99,184080,60
75,80,184080,60
74,82,184320,470
86,114,184320,240
82,88,184560,120
70,94,184800,360
74,94,184800,360
82,111,184800,540
72,73,185160,60
75,86,185160,60
74,75,185220,60
77,90,185220,60
79,106,185280,60
75,74,185280,60
76,85,185520,60
72,85,185520,60
84,100,185520,60
82,85,185520,60
82,91,185760,60
86,108,185760,60
77,91,185760,60
74,91,185760,60
75,82,186000,60
81,97,186000,60
69,82,186000,60
74,87,186240,60
70,87,186240,60
82,103,186240,60
77,45,186360,120
79,50,186480,120
77,46,186600,120
75,50,186720,120
74,43,186840,120
72,46,186960,120
70,43,187080,120
63,40,187200,710
69,50,187200,120
67,46,187320,120
65,47,187440,480
63,37,187920,240
67,44,187920,120
69,42,188040,120
62,35,188160,60
70,42,188160,60
65,38,188280,120
67,42,188400,120
65,39,188520,120
63,42,188640,120
62,37,188760,120
60,39,188880,120
58,37,189000,120
51,34,189120,710
57,42,189120,120
55,39,189240,120
53,39,189360,480
51,31,189840,240
55,37,189840,120
57,35,189960,120
50,32,190080,60
58,37,190080,60
63,42,190320,60
69,42,190320,60
62,42,190560,60
70,42,190560,60
72,88,190800,60
75,88,190800,60
81,105,190800,60
70,98,191040,60
74,98,191040,60
82,116,191040,60
58,42,960,240
65,34,1080,120
62,38,1200,240
65,34,1320,120
63,38,1440,120
60,38,1440,240
65,34,1560,120
62,37,1680,120
58,37,1680,240
65,34,1800,120
57,43,1920,960
63,43,1920,960
65,34,2040,60
65,34,2160,60
65,34,2280,60
65,37,2400,60
65,34,2520,60
65,34,2640,60
65,34,2760,60
57,42,2880,240
65,34,3000,120
63,38,3120,240
65,34,3240,120
62,38,3360,240
65,34,3480,120
57,37,3600,240
65,34,3720,120
58,43,3840,720
65,34,3960,60
65,34,4080,60
65,34,4200,60
65,37,4320,60
65,34,4440,60
59,34,4560,240
65,34,4680,60
60,42,4800,240
65,34,4920,120
57,38,5040,240
65,34,5160,120
58,42,5280,240
65,34,5400,120
59,38,5520,240
65,34,5640,120
60,47,5760,240
65,34,5880,120
57,42,6000,240
65,34,6120,120
58,52,6240,240
62,38,6360,120
57,47,6480,240
60,42,6600,120
55,58,6720,230
58,42,6840,120
55,49,6960,240
58,41,7080,120
48,63,7200,230
58,39,7320,120
48,43,7440,240
58,34,7560,120
53,43,7680,720
58,29,7800,120
57,35,7920,120
55,29,8040,120
57,34,8160,240
46,42,8640,240
53,34,8760,120
50,38,8880,240
53,34,9000,120
51,38,9120,120
48,38,9120,240
53,34,9240,120
50,37,9360,120
46,37,9360,240
53,34,9480,120
45,43,9600,960
51,43,9600,960
53,34,9720,60
53,34,9840,60
53,34,9960,60
53,37,10080,60
53,34,10200,60
53,34,10320,60
53,34,10440,60
45,42,10560,240
53,34,10680,120
51,38,10800,240
53,34,10920,120
50,38,11040,240
53,34,11160,120
45,37,11280,240
53,34,11400,120
46,43,11520,720
53,34,11640,60
53,34,11760,60
53,34,11880,60
53,37,12000,60
53,37,12120,60
47,37,12240,240
53,37,12360,60
48,46,12480,240
53,38,12600,120
41,42,12720,240
53,38,12840,120
46,47,12960,240
53,38,13080,120
47,43,13200,240
53,39,13320,120
48,54,13440,240
53,39,13560,120
41,48,13680,240
53,39,13800,120
46,56,13920,240
53,41,14040,120
44,50,14160,240
46,45,14280,120
43,65,14400,230
46,53,14520,120
39,61,14640,240
51,53,14760,120
41,56,14880,230
50,42,15000,120
41,49,15120,240
45,43,15240,120
34,43,15360,120
46,29,15480,600
58,35,15600,60
58,29,15720,60
58,37,15840,60
58,35,15960,60
56,43,16080,240
58,39,16200,120
55,52,16320,240
58,46,16440,120
51,56,16560,240
63,50,16680,120
53,35,16800,230
62,29,16920,120
53,35,17040,240
57,29,17160,120
46,33,17280,240
58,39,17280,240
58,50,17760,480
62,60,17760,480
51,38,18240,720
60,45,18240,720
53,34,18960,240
60,41,18960,240
46,42,19200,240
58,50,19200,240
58,50,19680,480
62,60,19680,480
52,41,20160,480
55,41,20160,480
48,41,20640,480
60,41,20640,480
53,42,21120,480
60,50,21120,480
45,62,21600,480
53,52,21660,420
57,54,21720,360
46,65,22080,480
53,54,22140,420
57,57,22200,360
48,68,22560,480
53,57,22620,420
57,59,22680,360
50,71,23040,480
53,59,23100,420
57,62,23160,360
62,53,23520,480
65,53,23520,480
69,63,23520,240
71,59,23760,480
60,54,24000,480
67,64,24000,480
72,58,24240,120
58,53,24480,480
62,53,24480,480
65,63,24480,240
64,50,24720,480
67,59,24720,480
57,54,24960,480
65,50,25200,120
69,58,25200,120
55,53,25440,480
58,53,25440,480
62,63,25440,240
64,59,25680,240
60,58,25920,240
65,58,25920,240
53,58,25920,240
46,45,26160,120
58,53,26160,120
48,51,26400,120
57,60,26400,120
48,45,26640,120
52,54,26640,120
41,51,26880,240
53,60,26880,240
50,58,27360,480
53,58,27360,240
56,52,27600,480
48,62,27840,480
57,58,28080,120
46,58,28320,480
50,58,28320,240
52,52,28560,480
45,62,28800,480
53,58,29040,120
43,62,29280,480
50,58,29280,240
49,52,29520,360
41,62,29760,240
48,51,29880,240
34,57,30000,240
46,54,30120,240
36,59,30240,240
45,55,30360,240
36,62,30480,240
43,57,30600,120
29,64,30720,240
41,46,30960,720
45,46,31200,480
48,46,31440,240
41,54,31680,960
43,54,31680,960
46,47,31920,720
48,47,32160,480
52,47,32400,240
41,64,32640,240
53,46,32880,720
57,46,33120,480
60,46,33360,240
53,54,33600,960
55,54,33600,960
58,47,33840,720
60,47,34080,480
64,47,34320,240
41,75,34560,240
53,57,34800,720
57,57,35040,480
60,58,35280,240
39,82,35520,240
51,63,35760,720
57,64,36000,480
60,64,36240,240
37,91,36480,240
49,66,36720,720
53,67,36960,480
58,67,37200,240
42,94,37440,960
46,68,37680,240
49,72,37920,240
52,75,38160,240
41,72,38400,600
53,84,38400,600
48,40,39000,120
50,45,39120,120
48,41,39240,120
46,45,39360,120
45,40,39480,120
43,43,39600,120
41,40,39720,90
41,45,39840,240
51,38,40920,40
53,40,40960,40
51,38,41000,40
53,45,41040,120
51,41,41160,120
50,45,41280,120
48,40,41400,120
46,43,41520,120
45,40,41640,90
45,45,41760,240
60,40,42840,120
62,45,42960,120
60,41,43080,120
58,45,43200,120
57,40,43320,120
55,43,43440,120
53,40,43560,90
63,40,43800,120
65,45,43920,120
63,41,44040,120
62,45,44160,120
60,40,44280,120
58,43,44400,120
57,40,44520,90
58,42,48000,240
65,34,48120,120
62,38,48240,240
65,34,48360,120
63,38,48480,120
60,38,48480,240
65,34,48600,120
62,37,48720,120
58,37,48720,240
65,34,48840,120
57,43,48960,960
63,43,48960,960
65,34,49080,60
65,34,49200,60
65,34,49320,60
65,37,49440,60
65,34,49560,60
65,34,49680,60
65,34,49800,60
57,42,49920,240
65,34,50040,120
63,38,50160,240
65,34,50280,120
62,38,50400,240
65,34,50520,120
57,37,50640,240
65,34,50760,120
58,47,50880,720
65,37,51000,60
65,37,51120,60
65,37,51240,60
65,41,51360,60
65,37,51480,60
59,37,51600,240
65,38,51720,60
60,47,51840,240
65,38,51960,120
57,42,52080,240
65,38,52200,120
58,47,52320,240
65,38,52440,120
59,43,52560,240
65,38,52680,120
60,54,52800,240
65,39,52920,120
57,48,53040,240
65,39,53160,120
58,55,53280,240
62,40,53400,120
57,49,53520,240
60,44,53640,120
55,60,53760,230
58,43,53880,120
55,50,54000,240
58,42,54120,120
48,57,54240,230
58,40,54360,120
48,44,54480,240
58,40,54600,120
53,43,54720,720
58,29,54840,120
57,35,54960,120
55,29,55080,120
57,34,55200,240
46,42,55680,240
53,34,55800,120
50,38,55920,240
53,34,56040,120
51,38,56160,120
48,38,56160,240
53,34,56280,120
50,37,56400,120
46,37,56400,240
53,34,56520,120
45,43,56640,960
51,43,56640,960
53,34,56760,60
53,34,56880,60
53,34,57000,60
53,37,57120,60
53,34,57240,60
53,34,57360,60
53,34,57480,60
45,42,57600,240
53,34,57720,120
51,38,57840,240
53,34,57960,120
50,38,58080,240
53,34,58200,120
45,37,58320,240
53,34,58440,120
46,43,58560,720
53,34,58680,60
53,34,58800,60
53,34,58920,60
53,37,59040,60
53,37,59160,60
47,37,59280,240
53,37,59400,60
48,46,59520,240
53,38,59640,120
41,42,59760,240
53,38,59880,120
46,47,60000,240
53,38,60120,120
47,43,60240,240
53,39,60360,120
48,54,60480,240
53,39,60600,120
41,48,60720,240
53,39,60840,120
46,56,60960,240
53,41,61080,120
44,50,61200,240
46,45,61320,120
43,62,61440,230
46,51,61560,120
39,58,61680,240
51,51,61800,120
41,56,61920,230
50,42,62040,120
41,49,62160,240
45,43,62280,120
34,43,62400,120
46,29,62520,600
58,35,62640,60
58,29,62760,60
58,40,62880,60
58,35,63000,60
56,43,63120,240
58,39,63240,120
55,52,63360,240
58,46,63480,120
51,56,63600,240
63,51,63720,120
53,35,63840,230
62,29,63960,120
53,35,64080,240
57,29,64200,120
46,33,64320,240
58,39,64320,240
46,59,64800,480
49,71,64800,480
39,53,65280,720
47,64,65280,360
49,64,65640,60
51,64,65700,60
42,58,65760,240
41,48,66000,240
45,58,66000,240
34,59,66240,360
46,71,66240,360
46,59,66720,480
49,71,66720,480
40,71,67200,480
48,71,67200,480
52,71,67680,480
55,71,67680,480
53,59,68160,120
56,71,68160,120
47,64,68400,120
59,76,68400,120
48,59,68640,120
60,71,68640,120
36,59,68880,120
48,71,68880,120
41,70,69120,120
53,82,69120,120
40,30,69240,60
43,36,69240,60
41,30,69360,60
44,36,69360,60
43,30,69480,60
46,36,69480,60
44,34,69600,60
48,40,69600,60
46,29,69720,60
49,35,69720,60
44,29,69840,60
48,35,69840,60
43,29,69960,60
46,35,69960,60
41,34,70080,60
44,40,70080,60
45,30,70200,60
48,36,70200,60
46,30,70320,60
49,36,70320,60
51,36,70440,60
48,30,70440,60
53,40,70560,60
49,34,70560,60
51,30,70680,60
54,36,70680,60
49,30,70800,60
53,36,70800,60
48,30,70920,60
51,36,70920,60
46,38,71040,60
49,45,71040,60
46,30,71160,60
49,36,71160,60
47,30,71280,60
50,36,71280,60
47,30,71400,60
50,36,71400,60
48,39,71520,60
53,47,71520,60
48,32,71640,60
53,38,71640,60
48,32,71760,60
55,38,71760,60
48,32,71880,60
55,38,71880,60
53,61,72000,120
56,72,72000,120
40,36,72120,60
52,42,72120,60
41,36,72240,60
53,43,72240,60
43,36,72360,60
55,44,72360,60
44,42,72480,60
56,50,72480,60
46,37,72600,60
58,45,72600,60
44,37,72720,60
56,46,72720,60
43,37,72840,60
55,46,72840,60
41,46,72960,60
53,54,72960,60
45,42,73080,60
57,50,73080,60
46,42,73200,60
58,50,73200,60
60,52,73320,60
48,42,73320,60
61,58,73440,60
49,50,73440,60
51,44,73560,60
63,54,73560,60
49,44,73680,60
61,54,73680,60
48,46,73800,60
60,56,73800,60
46,60,73920,60
58,71,73920,60
58,48,74040,60
61,57,74040,60
59,48,74160,60
62,58,74160,60
59,48,74280,60
62,58,74280,60
60,65,74400,60
65,78,74400,60
60,54,74520,60
65,64,74520,60
60,55,74640,60
67,66,74640,60
60,56,74760,60
67,67,74760,60
53,53,74880,60
56,53,74880,60
60,53,74880,60
65,63,74880,60
53,53,75000,60
56,53,75000,60
60,53,75000,60
65,63,75000,60
53,47,75120,60
56,47,75120,60
60,47,75120,60
65,56,75120,60
53,47,75240,60
56,47,75240,60
60,47,75240,60
65,56,75240,60
53,49,75360,60
55,49,75360,60
58,49,75360,60
60,49,75360,60
64,59,75360,60
53,42,75480,60
55,42,75480,60
58,42,75480,60
60,42,75480,60
64,50,75480,60
53,42,75600,60
55,42,75600,60
58,42,75600,60
60,42,75600,60
64,50,75600,60
53,42,75720,60
55,42,75720,60
58,42,75720,60
60,42,75720,60
64,50,75720,60
41,53,75840,60
44,53,75840,60
48,53,75840,60
53,63,75840,60
41,53,75960,60
44,53,75960,60
48,53,75960,60
53,63,75960,60
41,47,76080,60
44,47,76080,60
48,47,76080,60
53,56,76080,60
41,47,76200,60
44,47,76200,60
48,47,76200,60
53,56,76200,60
41,49,76320,60
43,49,76320,60
46,49,76320,60
48,49,76320,60
52,59,76320,60
41,42,76440,60
43,42,76440,60
46,42,76440,60
48,42,76440,60
52,50,76440,60
41,42,76560,60
43,42,76560,60
46,42,76560,60
48,42,76560,60
52,50,76560,60
41,42,76680,60
43,42,76680,60
46,42,76680,60
48,42,76680,60
52,50,76680,60
41,51,76800,480
53,61,76800,480
44,79,77280,480
43,83,77760,360
44,70,78120,60
46,70,78180,60
38,85,78240,120
40,80,78480,120
41,90,78720,120
49,79,79200,480
48,83,79680,360
49,70,80040,60
51,70,80100,60
43,85,80160,120
45,80,80400,120
46,90,80640,120
53,80,82080,480
46,90,82560,240
58,80,84000,480
51,90,84480,240
58,79,84960,480
54,67,84960,480
56,83,85440,360
53,70,85440,360
54,59,85800,66
58,70,85800,66
56,59,85860,66
59,70,85860,66
48,72,85920,120
51,85,85920,120
50,68,86160,120
53,80,86160,120
54,83,86400,360
51,70,86400,360
53,59,86760,66
56,70,86760,66
54,59,86820,66
58,70,86820,66
46,72,86880,120
49,85,86880,120
48,68,87120,120
51,80,87120,120
49,78,87360,120
53,83,87360,120
56,83,87600,600
53,70,87600,600
51,60,88200,66
54,71,88200,66
49,56,88260,66
53,67,88260,66
48,78,88320,120
51,83,88320,120
66,83,88560,600
63,70,88560,600
61,60,89160,66
65,71,89160,66
60,56,89220,66
63,67,89220,66
61,83,89280,360
58,70,89280,360
56,59,89640,120
60,70,89640,120
58,83,89760,360
54,70,89760,360
53,59,90120,120
56,70,90120,120
54,83,90240,240
51,70,90240,480
63,70,90480,240
53,70,90720,120
61,83,90720,120
60,79,90960,120
53,67,90960,120
46,61,91200,120
58,72,91200,120
45,30,91320,60
48,36,91320,60
46,30,91440,60
49,36,91440,60
48,30,91560,60
51,36,91560,60
49,34,91680,60
53,40,91680,60
51,29,91800,60
54,35,91800,60
49,29,91920,60
53,35,91920,60
48,29,92040,60
51,35,92040,60
46,34,92160,60
49,40,92160,60
50,30,92280,60
53,36,92280,60
51,30,92400,60
54,36,92400,60
56,36,92520,60
53,30,92520,60
58,40,92640,60
54,34,92640,60
56,30,92760,60
59,36,92760,60
54,30,92880,60
58,36,92880,60
53,30,93000,60
56,36,93000,60
51,38,93120,60
54,45,93120,60
51,30,93240,60
54,36,93240,60
52,30,93360,60
55,36,93360,60
52,30,93480,60
55,36,93480,60
53,39,93600,60
58,47,93600,60
53,32,93720,60
58,38,93720,60
53,32,93840,60
60,38,93840,60
53,32,93960,60
60,38,93960,60
46,58,94080,120
58,69,94080,120
45,40,94200,60
57,48,94200,60
46,40,94320,60
58,48,94320,60
48,40,94440,60
60,50,94440,60
49,48,94560,60
61,57,94560,60
51,43,94680,60
63,51,94680,60
49,43,94800,60
61,53,94800,60
48,43,94920,60
60,54,94920,60
46,54,95040,60
58,64,95040,60
50,48,95160,60
62,58,95160,60
51,50,95280,60
63,59,95280,60
65,62,95400,60
53,50,95400,60
66,70,95520,60
54,58,95520,60
56,53,95640,60
68,66,95640,60
54,53,95760,60
66,66,95760,60
53,57,95880,60
65,69,95880,60
51,74,96000,60
63,88,96000,60
63,58,96120,60
66,69,96120,60
64,60,96240,60
67,72,96240,60
64,60,96360,60
67,72,96360,60
65,73,96480,60
70,90,96480,60
65,68,96600,60
70,81,96600,60
65,70,96720,60
72,85,96720,60
65,71,96840,60
72,86,96840,60
58,66,96960,60
61,66,96960,60
65,66,96960,60
70,78,96960,60
58,55,97080,60
61,55,97080,60
65,55,97080,60
70,66,97080,60
58,49,97200,60
61,49,97200,60
65,49,97200,60
70,58,97200,60
58,49,97320,60
61,49,97320,60
65,49,97320,60
70,58,97320,60
58,51,97440,60
60,51,97440,60
63,51,97440,60
65,51,97440,60
69,61,97440,60
58,44,97560,60
60,44,97560,60
63,44,97560,60
65,44,97560,60
69,52,97560,60
58,44,97680,60
60,44,97680,60
63,44,97680,60
65,44,97680,60
69,52,97680,60
58,44,97800,60
60,44,97800,60
63,44,97800,60
65,44,97800,60
69,52,97800,60
46,55,97920,60
49,55,97920,60
53,55,97920,60
58,66,97920,60
46,55,98040,60
49,55,98040,60
53,55,98040,60
58,66,98040,60
46,49,98160,60
49,49,98160,60
53,49,98160,60
58,58,98160,60
46,49,98280,60
49,49,98280,60
53,49,98280,60
58,58,98280,60
46,51,98400,60
48,51,98400,60
51,51,98400,60
53,51,98400,60
57,61,98400,60
46,44,98520,60
48,44,98520,60
51,44,98520,60
53,44,98520,60
57,52,98520,60
46,44,98640,60
48,44,98640,60
51,44,98640,60
53,44,98640,60
57,52,98640,60
46,44,98760,60
48,44,98760,60
51,44,98760,60
53,44,98760,60
57,52,98760,60
46,64,98880,600
49,45,99480,132
51,50,99600,132
49,46,99720,132
47,50,99840,132
46,46,99960,132
44,46,100080,132
42,46,100200,132
41,50,100320,240
42,47,100560,240
43,53,100800,240
44,49,101040,360
51,45,101400,132
52,50,101520,132
51,46,101640,132
49,50,101760,132
47,41,101880,132
46,46,102000,132
44,40,102120,132
43,48,102240,240
44,40,102480,240
45,45,102720,960
46,45,103680,960
45,45,104640,240
55,35,107520,120
63,42,107520,120
53,33,107640,120
62,39,107640,120
51,33,107760,120
60,39,107760,120
50,33,107880,120
58,39,107880,120
48,35,108000,240
57,35,108000,240
50,33,108240,240
58,39,108240,240
56,38,108480,240
59,45,108480,240
57,34,108720,360
60,41,108720,360
66,38,109080,120
69,42,109200,120
67,39,109320,120
65,42,109440,110
55,33,109560,120
63,39,109560,120
53,33,109680,120
62,39,109680,120
51,33,109800,120
60,39,109800,120
50,35,109920,240
58,42,109920,240
57,33,110160,240
60,39,110160,240
57,38,110400,240
61,45,110400,240
58,34,110640,360
62,41,110640,360
65,43,111000,120
59,34,111120,240
67,49,111120,120
62,44,111240,120
60,37,111360,240
65,51,111360,120
63,48,111480,120
57,37,111600,240
65,53,111600,120
60,48,111720,120
58,38,111840,240
63,53,111840,120
62,49,111960,120
59,38,112080,240
67,56,112080,120
62,50,112200,120
60,39,112320,240
65,59,112320,120
63,54,112440,120
57,39,112560,240
65,60,112560,120
60,52,112680,120
58,50,112800,240
63,59,112800,120
62,53,112920,240
57,47,113040,240
60,60,113160,360
55,66,113280,480
58,60,113520,480
48,62,113760,480
58,58,114000,480
53,58,114240,480
57,47,114480,240
46,42,115200,240
53,34,115320,120
50,38,115440,240
53,34,115560,120
51,38,115680,120
48,38,115680,240
53,34,115800,120
50,37,115920,120
46,37,115920,240
53,34,116040,120
45,43,116160,960
51,43,116160,960
53,34,116280,60
53,34,116400,60
53,34,116520,60
53,37,116640,60
53,34,116760,60
53,34,116880,60
53,34,117000,60
45,42,117120,240
53,34,117240,120
51,38,117360,240
53,34,117480,120
50,38,117600,240
53,34,117720,120
45,37,117840,240
53,34,117960,120
46,43,118080,720
53,34,118200,60
53,34,118320,60
53,34,118440,60
53,40,118560,60
53,37,118680,60
53,37,118800,60
47,37,118800,240
53,37,118920,60
48,47,119040,240
53,38,119160,120
45,42,119280,240
53,38,119400,120
46,47,119520,240
53,38,119640,120
47,43,119760,240
53,39,119880,120
48,54,120000,240
53,39,120120,120
45,49,120240,240
53,39,120360,120
46,56,120480,240
53,41,120600,120
44,51,120720,240
46,45,120840,120
43,62,120960,230
46,51,121080,120
39,58,121200,240
51,51,121320,120
41,56,121440,230
50,42,121560,120
41,49,121680,240
45,43,121800,120
34,43,121920,120
46,29,122040,600
58,35,122160,60
58,29,122280,60
58,37,122400,60
58,35,122520,60
56,43,122640,240
58,39,122760,120
55,52,122880,240
58,46,123000,120
51,56,123120,240
63,50,123240,120
53,35,123360,230
62,29,123480,120
53,35,123600,240
57,29,123720,120
46,33,123840,240
58,39,123840,240
58,50,124320,480
62,60,124320,480
51,38,124800,720
60,45,124800,720
53,34,125520,240
60,41,125520,240
46,42,125760,470
58,50,125760,470
58,50,126240,480
62,60,126240,480
52,41,126720,480
55,41,126720,480
48,41,127200,480
60,41,127200,480
53,42,127680,480
60,50,127680,480
58,50,128160,480
62,60,128160,480
57,41,128640,480
60,41,128640,480
53,41,129120,480
65,41,129120,480
58,42,129600,470
65,50,129600,470
50,62,130080,480
58,52,130140,420
62,54,130200,360
51,69,130560,480
58,58,130620,420
62,60,130680,360
53,73,131040,480
58,61,131100,420
62,64,131160,360
55,77,131520,480
58,64,131580,420
62,68,131640,360
62,58,132000,240
65,58,132000,240
70,69,132000,230
64,58,132240,240
67,58,132240,240
70,64,132240,480
65,59,132480,480
69,63,132720,120
58,58,132960,240
62,58,132960,240
67,69,132960,230
61,55,133200,240
64,55,133200,480
67,64,133200,480
62,59,133440,360
65,63,133680,120
55,58,133920,240
58,58,133920,240
63,69,133920,240
57,58,134160,240
60,58,134160,240
63,64,134160,480
58,68,134400,240
62,58,134520,240
51,49,134640,240
60,66,134760,240
53,56,134880,230
58,59,135000,240
53,49,135120,240
57,59,135240,360
46,56,135360,360
58,66,135600,120
46,63,135840,480
53,63,135840,240
55,57,136080,480
45,68,136320,480
57,63,136560,120
43,63,136800,480
50,63,136800,240
52,57,137040,480
41,68,137280,480
53,63,137520,120
39,68,137760,480
46,63,137760,240
48,57,138000,240
53,56,138240,240
38,68,138240,240
39,69,138480,240
58,68,138720,240
53,68,138720,240
41,73,138720,240
57,72,138960,240
51,72,138960,240
29,79,138960,240
34,83,139200,240
46,46,139440,720
50,46,139680,480
53,46,139920,240
46,54,140160,960
48,54,140160,960
51,47,140400,720
53,47,140640,480
57,47,140880,240
34,64,141120,240
46,46,141360,720
50,46,141600,480
53,46,141840,240
46,54,142080,960
48,54,142080,960
51,47,142320,720
53,47,142560,480
57,47,142800,240
34,69,143040,240
46,52,143280,720
50,52,143520,480
53,52,143760,240
32,77,144000,240
44,56,144240,720
50,56,144480,480
53,56,144720,240
31,83,144960,240
43,57,145200,720
46,57,145440,480
51,57,145680,240
38,59,145920,60
41,60,145980,60
44,61,146040,60
46,61,146100,60
50,62,146160,60
53,64,146220,60
56,65,146280,60
58,66,146340,60
63,42,146880,240
70,34,147000,120
67,38,147120,240
70,34,147240,120
68,38,147360,120
65,38,147360,240
70,34,147480,120
67,37,147600,120
63,37,147600,240
70,34,147720,120
62,43,147840,960
68,43,147840,960
70,34,147960,60
70,34,148080,60
70,34,148200,60
70,37,148320,60
70,34,148440,60
70,34,148560,60
70,34,148680,60
62,42,148800,240
70,34,148920,120
68,38,149040,240
70,34,149160,120
67,38,149280,240
70,34,149400,120
62,37,149520,240
70,34,149640,120
63,43,149760,240
70,34,149880,60
63,43,150000,240
71,34,150120,60
63,43,150240,240
72,34,150360,60
67,34,150840,120
63,38,150960,240
67,34,151080,120
65,38,151200,120
62,38,151200,240
67,34,151320,120
63,37,151440,120
60,37,151440,240
67,34,151560,120
59,43,151680,600
65,43,151680,600
67,34,151800,60
67,34,151920,60
67,34,152040,60
67,34,152160,120
67,28,153240,120
68,34,153360,120
67,30,153480,120
65,34,153600,120
63,30,153720,120
62,32,153840,120
60,30,153960,120
63,40,154200,120
65,45,154320,120
63,41,154440,120
62,45,154560,120
60,40,154680,120
58,43,154800,120
57,40,154920,120
55,46,155040,120
53,40,155160,120
51,40,155280,120
50,40,155400,120
48,51,155520,120
46,41,155640,120
45,45,155760,120
43,47,155880,120
41,51,156000,2400
67,42,158400,60
65,34,158520,120
62,38,158640,240
65,34,158760,120
63,38,158880,120
60,38,158880,240
65,34,159000,120
62,37,159120,120
58,37,159120,240
65,34,159240,120
57,43,159360,960
63,43,159360,960
65,34,159480,60
65,34,159600,60
65,34,159720,60
65,37,159840,60
65,34,159960,60
65,34,160080,60
65,34,160200,60
57,42,160320,240
65,34,160440,120
63,38,160560,240
65,34,160680,120
62,38,160800,240
65,34,160920,120
57,37,161040,240
65,34,161160,120
58,43,161280,720
65,34,161400,60
65,34,161520,60
65,34,161640,60
65,37,161760,60
65,34,161880,60
59,34,162000,240
65,34,162120,60
60,42,162240,240
65,34,162360,120
57,38,162480,240
65,34,162600,120
58,42,162720,240
65,34,162840,120
59,38,162960,240
65,34,163080,120
60,47,163200,240
65,34,163320,120
57,42,163440,240
65,34,163560,120
58,48,163680,240
62,35,163800,120
57,44,163920,240
60,39,164040,120
55,55,164160,230
58,47,164280,120
55,57,164400,240
58,50,164520,120
48,63,164640,230
58,46,164760,120
48,53,164880,240
58,34,165000,230
53,43,165120,720
58,29,165240,120
57,35,165360,120
55,29,165480,120
57,34,165600,240
46,42,166080,240
53,34,166200,120
50,38,166320,240
53,34,166440,120
51,38,166560,120
48,38,166560,240
53,34,166680,120
50,37,166800,120
46,37,166800,240
53,34,166920,120
45,43,167040,960
51,43,167040,960
53,34,167160,60
53,34,167280,60
53,34,167400,60
53,37,167520,60
53,34,167640,60
53,34,167760,60
53,34,167880,60
45,42,168000,240
53,34,168120,120
51,38,168240,240
53,34,168360,120
50,38,168480,240
53,34,168600,120
45,37,168720,240
53,34,168840,120
46,43,168960,720
53,34,169080,60
53,34,169200,60
53,34,169320,60
53,40,169440,60
53,37,169560,60
47,37,169680,240
53,37,169800,60
48,47,169920,240
53,38,170040,120
41,42,170160,240
53,38,170280,120
46,47,170400,240
53,38,170520,120
47,43,170640,240
53,39,170760,120
48,54,170880,240
53,47,171000,120
41,53,171120,240
53,44,171240,120
46,64,171360,240
53,49,171480,120
44,60,171600,240
46,45,171720,120
43,73,171840,230
46,60,171960,120
39,69,172080,240
51,60,172200,120
41,56,172320,230
50,42,172440,120
41,49,172560,240
45,43,172680,120
34,43,172800,120
46,29,172920,600
58,35,173040,60
58,29,173160,60
58,49,173280,60
58,39,173400,60
56,50,173520,240
58,39,173640,120
55,63,173760,240
58,52,173880,120
51,56,174000,240
63,50,174120,120
53,35,174240,230
62,29,174360,120
53,35,174480,240
57,29,174600,120
46,33,174720,240
58,39,174720,240
62,69,175200,480
65,79,175200,480
60,69,175680,480
63,69,175680,480
65,79,175680,480
58,69,176160,480
62,69,176160,480
65,79,176160,480
65,79,176640,480
60,69,176640,480
57,69,176640,480
65,86,177120,480
56,72,177120,480
58,72,177120,480
63,64,177600,60
58,55,177600,60
55,55,177600,60
60,35,177840,60
58,29,177840,60
52,29,177840,60
62,39,178080,60
58,33,178080,60
53,33,178080,60
60,35,178320,60
57,29,178320,60
53,29,178320,60
46,33,178560,240
58,39,178560,240
62,70,179040,66
61,56,179100,66
62,60,179160,66
61,55,179220,66
62,60,179280,66
65,55,179340,66
63,55,179400,66
62,55,179460,60
60,70,179520,66
59,56,179580,66
60,60,179640,66
59,55,179700,66
60,60,179760,66
63,55,179820,66
62,55,179880,66
60,55,179940,60
58,70,180000,66
57,56,180060,66
58,60,180120,66
57,55,180180,66
58,60,180240,66
62,55,180300,66
60,55,180360,66
58,55,180420,60
57,70,180480,66
56,56,180540,66
57,60,180600,66
56,55,180660,66
57,60,180720,66
60,55,180780,66
58,55,180840,66
57,55,180900,60
56,70,180960,66
55,56,181020,66
56,60,181080,66
55,55,181140,66
56,60,181200,66
60,55,181260,66
58,55,181320,66
56,55,181380,60
55,70,181440,66
58,48,181500,66
57,43,181560,66
58,43,181620,60
52,49,181680,66
58,43,181740,66
57,42,181800,66
58,43,181860,60
53,57,181920,66
58,46,181980,66
57,50,182040,66
58,50,182100,60
53,60,182160,66
57,50,182220,66
56,50,182280,66
57,51,182340,60
58,61,182400,60
60,56,182460,60
62,58,182520,60
63,61,182580,60
65,63,182640,60
67,66,182700,60
69,68,182760,60
70,72,182820,60
68,76,182880,66
67,61,182940,66
65,66,183000,66
63,60,183060,66
62,66,183120,66
60,60,183180,66
58,60,183240,66
56,60,183300,60
55,76,183360,66
58,52,183420,66
57,46,183480,66
58,46,183540,60
52,44,183600,66
58,52,183660,66
57,46,183720,66
58,48,183780,60
53,62,183840,66
58,50,183900,66
57,55,183960,66
58,55,184020,60
53,66,184080,66
57,55,184140,66
56,55,184200,66
57,56,184260,60
58,67,184320,60
57,61,184380,60
55,63,184440,60
53,67,184500,60
51,69,184560,60
50,72,184620,60
48,74,184680,60
46,79,184740,60
44,76,184800,66
43,61,184860,66
41,66,184920,66
39,60,184980,66
38,66,185040,66
36,60,185100,66
34,60,185160,66
32,60,185220,60
31,87,185280,66
43,56,185340,66
42,58,185400,66
43,58,185460,60
30,84,185520,66
42,63,185580,66
41,62,185640,66
42,62,185700,60
29,93,185760,66
41,66,185820,66
40,66,185880,66
41,66,185940,60
29,90,186000,66
41,68,186060,66
40,68,186120,66
41,68,186180,60
34,96,186240,240
65,39,186600,120
67,42,186720,120
65,36,186840,120
63,39,186960,120
62,36,187080,120
53,35,187200,480
60,42,187200,120
58,37,187320,120
57,39,187440,120
55,36,187560,120
41,35,187680,480
53,39,187680,120
51,37,187800,120
50,36,187920,120
48,34,188040,120
46,53,188160,240
53,33,188520,120
55,35,188640,120
53,32,188760,120
51,33,188880,120
50,32,189000,120
41,30,189120,480
48,35,189120,120
46,32,189240,120
45,33,189360,120
43,29,189480,120
29,30,189600,480
41,33,189600,120
39,31,189720,120
38,30,189840,120
36,28,189960,120
34,31,190080,60
53,35,190320,60
60,35,190320,60
58,35,190560,60
41,70,190800,60
53,84,190800,60
34,79,191040,60
46,93,191040,60
