note,velocity,position,duration
65,46,240,60
65,50,320,80
77,46,400,60
77,59,480,80
89,66,560,520
77,51,720,360
89,50,1080,360
77,42,1080,360
85,39,2040,360
89,47,2040,360
80,39,2040,360
77,39,2040,360
89,40,3000,360
82,34,3000,360
77,34,3000,360
85,34,3000,360
82,32,3960,600
78,32,3960,600
90,38,3960,600
85,32,3960,600
73,37,4920,120
78,41,5040,120
73,36,5160,120
78,42,5280,120
73,35,5400,120
78,42,5520,120
70,38,5640,120
75,48,5760,960
66,35,5880,120
71,41,6000,120
66,35,6120,120
71,43,6240,120
66,37,6360,120
71,42,6480,120
63,39,6600,120
75,47,6720,240
65,33,6720,120
68,32,6840,120
73,43,6960,480
65,30,6960,120
68,37,7080,120
65,35,7200,120
68,38,7320,120
65,28,7440,120
71,39,7440,240
68,27,7560,120
66,38,7680,240
70,45,7680,240
69,38,7920,240
66,38,7920,240
75,45,7920,240
65,34,8160,420
68,40,8160,420
66,29,8580,60
70,35,8580,60
78,39,8640,240
82,47,8640,240
70,39,8640,240
73,39,8640,240
78,34,9240,360
70,34,9240,360
75,34,9240,360
82,41,9240,360
78,32,9960,240
87,39,9960,240
75,32,9960,240
66,35,11160,118
68,38,11280,132
70,41,11400,132
71,45,11520,132
73,48,11640,132
75,52,11760,132
76,52,11880,132
75,55,12000,132
71,52,12120,120
78,57,12240,132
76,55,12360,132
75,53,12480,132
73,51,12600,132
71,49,12720,132
70,47,12840,132
71,47,12960,120
78,47,13080,118
80,47,13200,132
82,49,13320,132
83,50,13440,132
85,52,13560,132
87,53,13680,132
88,52,13800,132
87,59,13920,132
85,47,14040,132
83,47,14160,132
82,47,14280,132
80,54,14400,132
78,47,14520,132
76,47,14640,132
75,47,14760,132
73,51,14880,132
71,47,15000,132
70,47,15120,132
68,47,15240,132
66,51,15360,120
76,54,15480,120
75,57,15600,120
80,60,15720,120
78,60,15840,120
83,45,15960,120
82,52,16080,120
88,49,16200,120
76,41,16320,360
82,41,16320,360
88,49,16320,360
83,41,16680,360
87,49,16680,360
78,41,16680,360
75,41,16680,360
75,49,17640,240
83,49,17640,240
87,49,17640,240
80,49,17640,240
75,37,17880,120
68,37,18000,120
75,37,18120,120
76,46,18240,120
75,40,18360,120
68,42,18480,120
75,45,18600,120
76,49,18720,1080
70,41,19800,120
75,46,19920,120
74,42,20040,120
75,44,20160,120
70,37,20280,120
75,43,20400,120
73,37,20520,120
72,52,20640,120
75,46,20760,120
72,55,20880,120
80,47,21000,120
73,60,21120,120
80,54,21240,120
75,63,21360,120
80,58,21480,120
76,70,21600,480
64,53,22080,600
61,42,22680,120
66,50,22800,120
65,37,22920,120
66,51,23040,120
61,43,23160,120
66,51,23280,120
64,44,23400,120
63,54,23520,240
75,60,23760,480
73,52,24240,240
71,63,24480,120
75,53,24600,120
71,62,24720,120
75,53,24840,120
76,63,24960,120
83,63,24960,600
75,60,25080,120
68,65,25200,120
71,60,25320,120
76,58,25440,480
80,59,25560,120
81,65,25680,120
85,59,25800,120
69,58,25920,240
76,70,25920,120
81,59,26040,120
71,62,26160,240
75,73,26160,120
80,71,26280,120
75,81,26400,120
71,69,26400,240
80,73,26520,120
75,81,26640,120
73,69,26640,240
79,77,26760,120
75,81,26880,120
71,69,26880,240
80,74,27000,120
70,69,27120,240
75,81,27120,120
82,72,27240,120
80,32,27480,600
75,32,27480,600
83,38,27480,600
71,32,27480,600
80,32,28440,600
83,38,28440,600
76,32,28440,600
71,32,28440,600
85,38,29400,600
76,32,29400,600
73,32,29400,600
80,32,29400,600
76,32,30360,600
73,32,30360,600
85,38,30360,600
81,32,30360,600
69,37,31200,60
69,32,31280,80
81,41,31360,80
81,46,31440,560
93,45,31520,480
92,61,32000,320
80,51,32000,320
88,58,32320,320
76,49,32320,320
75,46,32640,320
87,55,32640,320
74,45,32960,320
86,53,32960,320
83,50,33280,320
71,42,33280,320
80,51,33600,160
76,45,33760,160
75,45,33920,160
74,45,34080,160
71,45,34240,160
68,45,34400,160
64,48,34560,160
63,42,34720,160
62,42,34880,160
62,41,43200,480
59,34,43200,480
59,35,43680,45
62,42,43680,45
59,35,43920,240
62,42,43920,240
62,43,44160,480
59,36,44160,480
67,45,44640,45
59,38,44640,45
59,38,44880,240
67,47,44880,240
67,47,45120,480
64,40,45120,480
64,42,45600,45
67,51,45600,45
67,51,45840,240
64,42,45840,240
64,44,46080,480
72,53,46080,480
64,46,46560,45
72,55,46560,45
64,52,46800,240
72,52,46800,240
72,58,47040,480
69,48,47040,480
72,65,47520,60
69,54,47520,60
69,57,47760,240
72,69,47760,240
69,60,48000,480
77,73,48000,480
69,67,48480,60
74,67,48480,60
77,82,48480,60
74,71,48720,240
69,71,48720,240
77,86,48720,240
76,76,48960,480
69,76,48960,480
73,76,48960,480
81,91,48960,480
76,75,49440,60
73,75,49440,60
69,75,49440,60
81,89,49440,60
73,74,49680,240
69,74,49680,240
81,89,49680,240
76,74,49680,240
69,73,49920,480
81,87,49920,480
73,73,49920,480
76,73,49920,480
69,71,50400,60
73,71,50400,60
76,71,50400,60
81,86,50400,60
76,71,50640,240
73,71,50640,240
81,85,50640,240
69,71,50640,240
73,70,50880,480
81,83,50880,480
76,70,50880,480
69,70,50880,480
69,68,51360,60
81,82,51360,60
81,81,51600,240
69,68,51600,240
69,61,51840,480
81,73,51840,480
69,54,52320,60
81,65,52320,60
69,51,52560,240
81,61,52560,240
81,57,52800,480
69,47,52800,480
81,49,53280,60
69,40,53280,60
69,37,53520,240
81,45,53520,240
69,27,53760,480
81,32,53760,480
81,32,54240,60
69,27,54240,60
81,32,54480,240
69,27,54480,240
81,40,54720,80
82,36,54800,80
81,40,54880,80
82,35,54960,80
81,40,55040,80
82,36,55120,80
81,40,55200,80
82,36,55280,80
81,40,55360,80
82,36,55440,80
81,40,55520,80
82,35,55600,80
81,40,55680,80
82,36,55760,80
81,40,55840,80
82,35,55920,80
81,40,56000,80
82,34,56080,80
81,48,56160,80
82,43,56240,80
81,49,56320,80
82,43,56400,80
81,50,56480,80
82,43,56560,80
84,52,56640,80
86,47,56720,80
84,53,56800,80
86,47,56880,80
84,54,56960,80
86,49,57040,80
84,56,57120,80
86,50,57200,80
84,57,57280,80
86,52,57360,80
84,58,57440,80
86,51,57520,80
84,60,57600,80
86,54,57680,80
84,61,57760,80
86,54,57840,80
84,62,57920,80
86,53,58000,80
89,64,58080,80
91,57,58160,80
89,65,58240,80
91,57,58320,80
89,66,58400,80
91,60,58480,80
89,68,58560,80
91,61,58640,80
89,69,58720,80
91,63,58800,80
89,70,58880,80
91,62,58960,80
89,78,59040,120
87,77,59160,120
86,76,59280,120
84,75,59400,120
82,73,59520,120
81,72,59640,120
79,71,59760,120
77,73,59880,120
75,75,60000,120
74,76,60120,120
72,78,60240,120
77,79,60360,120
65,75,60480,240
70,89,60480,240
58,75,60480,240
62,75,60480,240
67,50,61200,144
65,43,61320,144
63,50,61440,144
62,47,61560,144
60,47,61680,144
58,47,61800,144
57,50,61920,144
58,44,62040,144
57,44,62160,144
55,44,62280,144
53,50,62400,120
55,44,62520,120
53,44,62640,120
51,44,62760,120
50,50,62880,120
51,44,63000,120
50,44,63120,120
48,44,63240,120
46,50,63360,480
58,65,76320,120
76,65,76800,80
77,59,76880,80
76,65,76960,80
77,60,77040,80
76,65,77120,80
77,61,77200,80
76,65,77280,80
77,65,77360,80
76,65,77440,80
77,61,77520,60
76,65,77580,60
74,61,77640,60
76,61,77700,60
77,69,77760,480
77,62,78480,144
76,52,78600,144
74,52,78720,144
72,52,78840,144
70,58,78960,144
69,51,79080,144
74,69,79200,480
74,62,79920,144
72,52,80040,144
70,52,80160,144
69,52,80280,144
67,58,80400,144
65,51,80520,144
70,69,80640,480
70,66,81360,144
69,65,81480,144
67,64,81600,144
69,63,81720,144
67,61,81840,144
65,62,81960,144
64,66,82080,144
65,59,82200,144
64,59,82320,144
62,59,82440,120
60,59,82560,120
62,62,82680,144
64,57,82800,144
65,57,82920,144
66,57,83040,144
67,57,83160,144
69,57,83280,144
67,57,83400,120
65,60,83520,144
67,61,83640,144
69,61,83760,144
70,62,83880,144
71,63,84000,144
72,63,84120,144
74,64,84240,144
72,60,84360,144
70,64,84480,144
69,63,84600,144
67,62,84720,144
65,60,84840,144
64,65,84960,144
65,56,85080,144
64,58,85200,144
62,58,85320,120
60,62,85440,144
62,62,85560,144
64,58,85680,144
65,58,85800,144
66,58,85920,144
67,58,86040,144
69,58,86160,144
65,58,86280,120
64,66,86400,144
65,62,86520,144
72,59,86640,144
70,59,86760,120
69,62,86880,144
70,56,87000,144
72,56,87120,144
70,56,87240,120
68,58,87360,144
69,57,87480,144
70,57,87600,144
69,57,87720,120
67,68,87840,144
68,62,87960,144
75,68,88080,144
74,62,88200,120
72,64,88320,144
73,59,88440,144
74,59,88560,144
73,59,88680,120
71,62,88800,144
72,58,88920,144
74,58,89040,144
72,58,89160,120
63,79,89280,960
68,79,89280,144
69,68,89400,144
70,68,89520,144
69,68,89640,120
64,68,89760,120
65,64,89880,120
67,64,90000,120
65,64,90120,120
65,71,90240,720
71,68,90240,120
72,63,90360,120
74,63,90480,120
72,63,90600,120
62,65,90960,120
74,76,91200,720
69,45,91440,240
70,50,91680,480
58,65,92400,120
70,76,92640,720
66,45,92880,240
67,50,93120,480
67,61,93840,120
79,68,94080,264
71,51,94320,240
77,61,94320,264
72,51,94560,240
75,60,94560,264
67,51,94800,240
76,60,94800,264
72,59,95040,120
77,70,95040,120
65,59,95280,240
72,59,95520,240
75,78,95520,720
66,59,95760,240
65,59,96000,720
75,59,96240,240
75,65,96480,264
65,50,96720,240
74,59,96720,264
63,50,96960,240
72,59,96960,264
62,50,97200,240
70,59,97200,264
60,50,97440,240
69,59,97440,264
62,50,97680,240
70,59,97680,240
65,70,97920,120
71,59,98160,240
72,59,98400,240
63,78,98400,720
66,59,98640,240
65,59,98880,480
62,59,99120,240
80,77,99360,120
70,59,99600,240
76,59,99840,240
79,85,99840,720
70,59,100080,720
77,59,100560,240
72,77,100800,120
75,59,101040,240
79,59,101280,240
70,85,101280,720
73,59,101520,240
72,59,101760,480
69,59,102000,240
89,83,102240,120
81,67,102480,240
84,67,102720,240
87,89,102720,720
78,67,102960,240
77,67,103200,480
86,71,103440,240
92,92,103680,120
82,67,103920,240
88,67,104160,240
91,102,104160,720
82,67,104400,480
86,67,104880,240
89,77,104880,480
83,67,105120,240
79,67,105360,240
89,77,105360,480
84,67,105600,240
79,67,105840,240
88,72,105840,240
84,67,106080,240
87,77,106080,720
77,67,106320,480
82,67,106800,240
86,77,106800,240
82,67,107040,240
85,77,107040,240
70,67,107280,240
73,77,107280,360
58,67,107520,240
79,68,107640,120
82,71,107760,120
85,73,107880,120
76,76,108000,80
85,76,108000,240
77,64,108080,80
76,76,108160,80
77,64,108240,80
84,69,108240,120
76,76,108320,80
82,69,108360,120
77,64,108400,80
76,76,108480,80
81,72,108480,120
77,64,108560,80
82,67,108600,120
76,76,108640,80
77,64,108720,60
84,67,108720,120
76,57,108780,60
74,57,108840,60
82,67,108840,120
76,57,108900,60
77,73,108960,480
81,73,108960,120
79,67,109080,120
81,67,109200,120
82,67,109320,120
84,77,109440,120
82,71,109560,120
81,70,109680,120
79,69,109800,120
77,68,109920,120
79,69,110040,120
77,69,110160,120
75,69,110280,120
62,67,110400,240
74,73,110400,120
85,82,110520,120
86,85,110640,120
85,81,110760,120
78,76,110880,80
87,76,110880,240
79,64,110960,80
78,76,111040,80
79,64,111120,80
86,69,111120,120
78,76,111200,80
84,69,111240,120
79,64,111280,80
78,76,111360,80
83,72,111360,120
79,64,111440,80
84,67,111480,120
78,76,111520,80
79,64,111600,60
86,67,111600,120
78,57,111660,60
75,57,111720,60
84,67,111720,120
78,57,111780,60
79,73,111840,480
83,73,111840,120
81,67,111960,120
83,67,112080,120
84,67,112200,120
86,77,112320,120
84,71,112440,120
83,70,112560,120
80,69,112680,120
79,68,112800,120
80,69,112920,120
79,69,113040,120
77,69,113160,120
75,65,113280,240
67,65,113280,120
71,66,113400,120
72,68,113520,120
73,71,113640,120
75,74,113760,120
73,74,113880,120
72,72,114000,120
70,70,114120,120
68,78,114240,120
70,75,114360,120
68,73,114480,120
66,70,114600,120
65,76,114720,480
73,70,114960,120
75,70,115080,120
77,76,115200,120
78,74,115320,120
77,71,115440,120
75,71,115560,120
73,72,115680,120
72,71,115800,120
70,69,115920,120
68,68,116040,120
73,79,116160,600
61,79,116160,120
63,69,116280,120
64,69,116400,120
65,69,116520,120
66,74,116640,480
75,74,116760,120
73,69,116880,120
72,69,117000,120
70,68,117120,120
68,67,117240,120
66,66,117360,120
65,66,117480,120
70,74,117600,840
58,74,117600,120
60,68,117720,120
61,69,117840,120
62,70,117960,120
63,71,118080,120
62,67,118200,120
63,67,118320,120
65,67,118440,120
66,74,118560,240
67,70,118800,240
70,80,118800,240
68,72,119040,240
72,82,119040,240
73,83,119280,240
66,79,119520,720
75,90,119520,720
66,70,120240,240
75,80,120240,240
66,74,120480,240
75,85,120480,240
65,70,120720,240
73,80,120720,240
63,73,120960,240
72,83,120960,240
61,70,121200,240
73,80,121200,240
60,70,121440,240
63,70,121440,240
65,67,121680,120
61,67,121680,240
66,68,121800,120
68,70,121920,120
60,70,121920,240
70,71,122040,120
72,72,122160,120
63,72,122160,240
73,74,122280,120
74,75,122400,120
75,77,122520,120
77,79,122640,120
75,76,122760,120
73,74,122880,120
72,73,123000,120
70,72,123120,120
68,71,123240,120
73,72,123360,120
75,73,123480,120
77,75,123600,120
78,77,123720,120
79,78,123840,120
80,76,123960,120
82,81,124080,120
80,73,124200,120
78,79,124320,120
77,78,124440,120
75,76,124560,120
73,75,124680,120
60,70,124800,120
68,80,124800,240
61,63,124920,120
60,63,125040,120
58,65,125160,120
66,80,125280,720
56,68,125280,120
58,58,125400,120
60,58,125520,120
61,58,125640,120
62,64,125760,120
63,58,125880,120
65,80,126000,240
60,58,126000,120
61,58,126120,120
70,80,126240,480
64,64,126240,120
65,58,126360,120
66,58,126480,120
65,58,126600,120
62,68,126720,120
63,57,126840,120
67,57,126960,120
68,57,127080,120
66,65,127200,120
67,58,127320,120
68,58,127440,120
67,58,127560,120
73,70,127680,240
69,66,127680,120
70,61,127800,120
72,70,127920,120
70,61,128040,120
72,80,128160,720
67,68,128160,120
68,60,128280,120
70,60,128400,120
68,60,128520,120
66,66,128640,120
67,61,128760,120
70,80,128880,240
68,61,128880,120
67,61,129000,120
75,80,129120,480
69,68,129120,120
70,62,129240,120
72,62,129360,120
70,62,129480,120
68,68,129600,120
70,61,129720,120
72,61,129840,120
73,61,129960,120
72,68,130080,120
73,63,130200,120
71,63,130320,120
72,63,130440,120
77,80,130560,240
71,68,130560,120
72,62,130680,120
73,62,130800,120
72,62,130920,120
77,80,131040,120
69,68,131040,120
70,63,131160,120
75,80,131280,120
72,63,131280,120
70,63,131400,120
62,68,131520,120
63,63,131640,120
65,63,131760,120
63,63,131880,120
73,80,132000,240
67,68,132000,120
68,61,132120,120
70,61,132240,120
68,61,132360,120
73,80,132480,240
67,68,132480,120
68,63,132600,120
72,80,132720,240
70,63,132720,120
68,63,132840,120
67,68,132960,120
68,62,133080,120
73,80,133200,120
70,62,133200,120
71,62,133320,120
91,75,133440,80
72,68,133440,120
92,60,133520,80
70,68,133560,120
91,68,133600,75
92,60,133680,80
69,61,133680,120
91,75,133760,80
70,61,133800,110
92,60,133840,80
91,75,133920,80
70,68,133920,120
92,60,134000,80
68,58,134040,120
91,75,134080,80
92,60,134160,60
63,65,134160,120
91,75,134220,60
89,60,134280,60
68,60,134280,120
91,60,134340,60
92,75,134400,480
67,66,135120,120
92,67,135120,120
91,62,135240,120
68,74,135360,480
89,69,135360,120
87,60,135480,120
85,60,135600,120
84,60,135720,120
89,68,135840,480
64,66,136560,120
89,67,136560,120
87,62,136680,120
65,74,136800,480
85,69,136800,120
84,60,136920,120
82,60,137040,120
80,60,137160,120
85,68,137280,480
75,72,138000,240
85,67,138000,120
84,60,138120,120
73,80,138240,240
82,67,138240,120
84,61,138360,120
70,68,138480,240
82,61,138480,120
80,61,138600,120
70,68,138720,240
79,67,138720,120
80,62,138840,120
79,62,138960,120
77,62,139080,120
75,62,139200,120
77,61,139320,120
79,63,139440,120
80,64,139560,120
81,66,139680,120
82,68,139800,120
84,69,139920,120
82,67,140040,120
80,69,140160,120
82,64,140280,120
84,68,140400,120
85,69,140520,120
86,72,140640,120
87,73,140760,120
89,75,140880,120
87,71,141000,120
85,74,141120,120
84,73,141240,120
82,71,141360,120
80,70,141480,120
73,78,141600,240
82,78,141600,240
73,80,142080,720
70,73,142080,720
73,75,142800,238
65,69,142800,238
73,78,143040,264
65,71,143040,264
72,74,143280,264
63,68,143280,264
61,70,143520,264
70,77,143520,264
60,62,143760,240
68,68,143760,240
58,72,144000,264
67,79,144000,264
60,68,144240,240
68,74,144240,240
69,62,144480,120
70,57,144600,120
72,61,144720,120
73,62,144840,120
75,64,144960,120
77,65,145080,120
78,67,145200,120
77,63,145320,120
75,66,145440,120
73,65,145560,120
72,63,145680,120
70,63,145800,120
75,78,145920,264
66,71,145920,264
73,74,146160,264
65,68,146160,264
63,70,146400,264
72,77,146400,264
61,62,146640,240
70,68,146640,240
60,72,146880,264
69,79,146880,264
61,68,147120,240
70,74,147120,240
50,62,147360,144
51,57,147480,144
53,61,147600,144
55,62,147720,144
56,64,147840,144
58,65,147960,144
59,67,148080,144
58,63,148200,144
56,66,148320,144
55,65,148440,144
53,63,148560,144
51,63,148680,120
52,62,148800,144
53,57,148920,144
55,61,149040,144
56,62,149160,144
58,64,149280,144
60,65,149400,144
61,67,149520,144
60,63,149640,144
58,66,149760,144
56,65,149880,144
55,63,150000,144
53,63,150120,120
75,78,150240,264
71,71,150240,264
73,74,150480,264
70,68,150480,264
68,70,150720,264
71,77,150720,264
66,62,150960,240
70,68,150960,240
65,72,151200,264
68,79,151200,264
66,68,151440,240
70,74,151440,240
85,78,151680,264
76,71,151680,264
83,74,151920,264
75,68,151920,264
73,70,152160,264
82,77,152160,264
71,62,152400,240
80,68,152400,240
70,72,152640,264
79,79,152640,264
71,68,152880,480
80,74,152880,480
80,78,153360,480
83,85,153360,480
79,82,153840,240
82,90,153840,240
73,66,154080,720
76,78,154080,720
73,64,154800,480
76,76,154800,480
71,52,155280,240
75,62,155280,240
70,57,155520,240
73,68,155520,240
68,56,155760,240
71,66,155760,240
67,59,156000,240
70,70,156000,240
68,56,156240,240
71,66,156240,240
70,57,156480,240
73,68,156480,240
71,60,156720,478
75,71,156720,478
71,59,157200,238
75,70,157200,238
75,85,157440,720
71,72,157440,720
73,76,158160,480
70,52,158160,480
68,56,158640,240
71,66,158640,240
66,47,158880,240
70,56,158880,240
68,52,159120,240
65,44,159120,240
70,54,159360,240
66,45,159360,240
68,48,159600,240
71,56,159600,240
66,56,159840,240
73,56,159840,240
66,51,160080,240
75,60,160080,480
65,54,160320,240
66,45,160560,240
73,54,160560,480
68,40,160800,120
66,53,160920,120
65,40,161040,120
73,48,161040,240
68,48,161160,120
66,46,161280,240
70,39,161280,120
58,46,161400,120
61,40,161520,120
66,40,161640,120
70,52,161760,120
66,40,161880,120
65,40,162000,120
71,54,162000,120
63,40,162120,120
65,41,162240,240
73,57,162240,240
66,40,162480,120
68,40,162600,120
70,50,162720,480
78,58,163320,120
77,54,163440,120
75,58,163560,120
77,65,163680,240
78,62,163920,120
80,68,164040,720
77,67,164160,120
65,56,164280,120
68,60,164400,120
73,64,164520,120
77,70,164640,240
89,72,164760,120
78,75,164880,240
87,75,164880,120
85,71,165000,120
80,59,165120,480
84,75,165120,240
85,70,165360,120
87,70,165480,120
80,66,165600,480
77,57,165600,600
77,66,166200,120
75,65,166320,120
73,63,166440,120
72,62,166560,120
70,61,166680,120
68,59,166800,120
66,58,166920,120
65,69,167040,118
77,75,167040,120
78,80,167280,120
80,83,167520,600
68,62,167640,120
70,62,167760,120
72,62,167880,120
74,62,168000,240
77,62,168120,120
75,62,168240,120
70,62,168240,240
74,62,168360,120
70,56,168480,120
75,62,168480,480
66,66,168960,120
90,78,169080,120
89,78,169200,120
68,78,169200,120
87,76,169320,120
86,74,169440,120
70,74,169440,480
83,72,169560,120
82,70,169680,120
80,68,169800,120
70,66,169920,240
78,74,169920,480
66,66,170160,360
78,74,170520,120
77,72,170640,120
75,71,170760,120
74,70,170880,120
71,68,171000,120
70,67,171120,120
68,65,171240,120
66,69,171360,120
78,78,171360,120
80,83,171600,120
82,88,171840,600
79,66,172440,120
77,65,172560,120
75,65,172680,120
87,76,172800,120
83,65,172920,120
82,65,173040,120
80,65,173160,120
92,80,173280,120
89,67,173400,120
87,68,173520,120
86,68,173640,120
92,87,173760,600
80,70,174360,120
78,70,174480,120
77,70,174600,120
80,82,174720,120
77,69,174840,120
75,69,174960,120
74,69,175080,120
77,81,175200,120
70,70,175320,120
69,70,175440,120
70,70,175560,120
82,85,175680,120
77,72,175800,120
76,72,175920,120
77,72,176040,120
89,85,176160,120
82,73,176280,120
81,73,176400,120
82,73,176520,120
94,87,176640,120
92,76,176760,120
90,76,176880,120
89,76,177000,120
90,87,177120,480
75,87,178560,120
65,67,178800,120
73,80,178800,120
63,66,179040,120
71,78,179040,120
86,91,179040,120
61,62,179280,120
70,74,179280,120
59,60,179520,120
68,71,179520,120
87,96,179520,960
58,57,179760,120
66,68,179760,120
63,72,180000,960
71,85,180000,960
63,70,181440,120
71,87,181440,120
61,67,181680,120
70,80,181680,120
59,66,181920,120
68,78,181920,120
82,91,181920,120
58,62,182160,120
66,74,182160,120
56,60,182400,120
65,71,182400,120
83,96,182400,960
54,57,182640,120
63,68,182640,120
59,72,182880,960
68,85,182880,960
59,70,184320,120
68,87,184320,120
58,67,184560,120
66,80,184560,120
56,66,184800,120
65,78,184800,120
82,91,184800,120
58,62,185040,120
66,74,185040,120
56,60,185280,120
65,71,185280,120
83,96,185280,960
54,57,185520,120
63,68,185520,120
82,96,186240,480
80,96,186720,1440
92,109,188160,720
90,99,189120,120
89,99,189600,120
87,107,190080,120
86,99,190560,120
65,69,191040,120
68,82,191040,120
63,60,191280,120
66,71,191280,120
56,68,191520,120
65,81,191520,120
58,60,191760,120
66,71,191760,120
56,68,192000,120
65,80,192000,120
54,60,192240,120
63,71,192240,120
53,66,192480,120
62,78,192480,120
54,60,192720,120
63,71,192720,120
62,68,192960,120
65,81,192960,120
63,60,193200,120
66,71,193200,120
65,68,193440,120
68,80,193440,120
66,71,193680,120
70,60,193680,120
63,67,193920,120
72,79,193920,120
65,60,194160,120
74,71,194160,120
66,67,194400,120
75,79,194400,120
68,60,194640,120
77,71,194640,120
70,66,194880,120
78,78,194880,120
71,60,195120,120
79,71,195120,120
77,66,195360,120
80,78,195360,120
82,71,195600,120
78,60,195600,120
83,80,195840,120
80,68,195840,120
82,71,196080,120
78,60,196080,120
71,68,196320,120
80,81,196320,120
70,60,196560,120
78,71,196560,120
68,68,196800,120
75,80,196800,120
66,71,197040,120
73,66,197280,120
65,78,197280,120
63,71,197520,120
72,66,197760,120
61,78,197760,120
60,71,198000,120
63,78,198240,1440
81,71,199680,80
73,71,199680,120
82,65,199760,80
81,71,199840,80
82,66,199920,80
72,66,199920,120
81,71,200000,80
82,66,200080,80
81,71,200160,80
77,71,200160,120
82,66,200240,80
81,71,200320,80
82,65,200400,80
75,65,200400,120
81,71,200480,80
82,65,200560,80
81,71,200640,80
73,71,200640,120
82,64,200720,80
81,71,200800,80
82,67,200880,80
72,67,200880,120
81,71,200960,80
82,67,201040,80
81,71,201120,80
78,71,201120,120
82,66,201200,80
81,71,201280,80
79,67,201360,120
72,67,201360,120
81,67,201480,120
75,74,201600,80
82,74,201600,1440
77,69,201680,80
75,74,201760,80
77,69,201840,80
75,74,201920,80
77,70,202000,80
75,74,202080,80
77,70,202160,80
75,74,202240,80
77,67,202320,80
75,74,202400,80
77,69,202480,80
75,74,202560,80
77,69,202640,80
75,74,202720,80
73,70,202800,120
75,68,202920,120
73,70,203040,120
82,83,203040,120
72,62,203280,120
80,74,203280,120
70,62,203520,120
78,74,203520,120
68,62,203760,120
77,74,203760,120
66,62,204000,120
75,74,204000,120
65,62,204240,120
73,74,204240,120
75,73,204480,120
78,87,204480,960
63,71,204720,120
65,74,204960,120
66,77,205200,120
68,79,205440,120
70,82,205680,360
78,85,205920,120
68,66,206160,120
77,78,206160,120
66,64,206400,120
75,76,206400,120
65,62,206640,120
73,74,206640,120
76,80,206880,480
79,80,206880,120
85,70,207000,120
82,71,207120,120
79,71,207240,120
76,74,207360,120
82,69,207480,120
79,70,207600,120
76,70,207720,120
73,76,207840,120
79,69,207960,120
76,69,208080,120
73,69,208200,120
70,66,208320,1440
72,78,208320,120
79,69,208440,120
76,69,208560,120
72,69,208680,120
73,77,208800,120
82,69,208920,120
79,69,209040,120
76,69,209160,120
72,85,209280,480
82,87,210240,960
58,70,211200,1440
67,71,211200,80
68,66,211280,80
67,63,211360,80
68,60,211440,80
67,63,211520,80
68,59,211600,80
67,63,211680,80
68,60,211760,80
67,63,211840,80
68,59,211920,80
67,63,212000,80
68,59,212080,80
67,63,212160,80
68,60,212240,80
67,63,212320,80
68,59,212400,80
67,63,212480,80
68,59,212560,80
60,70,212640,240
65,70,212640,480
75,70,212880,1200
60,60,214080,80
61,56,214160,80
60,60,214240,80
61,56,214320,80
60,60,214400,80
61,56,214480,80
87,116,214560,960
60,60,214560,80
61,56,214640,80
60,60,214720,80
61,56,214800,80
60,60,214880,80
61,56,214960,80
60,60,215040,80
61,56,215120,80
60,60,215200,80
61,56,215280,80
60,60,215360,80
61,56,215440,80
63,79,215520,960
72,60,215520,80
73,56,215600,80
72,60,215680,80
73,56,215760,80
72,60,215840,80
73,56,215920,80
72,60,216000,80
73,56,216080,80
72,60,216160,80
73,56,216240,80
72,60,216320,80
73,56,216400,80
64,79,216480,480
72,60,216480,80
73,56,216560,80
72,60,216640,80
73,56,216720,80
72,60,216800,80
73,56,216880,80
70,59,216960,480
65,59,216960,240
73,59,217200,1200
85,110,218400,1440
58,51,218400,80
60,47,218480,80
58,51,218560,80
60,47,218640,80
58,51,218720,80
60,47,218800,80
58,60,218880,80
60,56,218960,80
58,60,219040,80
60,56,219120,80
58,60,219200,80
60,56,219280,80
58,60,219360,80
60,56,219440,80
58,60,219520,80
60,60,219600,60
58,56,219660,60
57,56,219720,60
58,56,219780,60
61,79,219840,1440
70,60,219840,80
72,56,219920,80
70,60,220000,80
72,56,220080,80
70,60,220160,80
72,56,220240,80
70,60,220320,80
72,56,220400,80
70,60,220480,80
72,56,220560,80
70,60,220640,80
72,56,220720,80
70,60,220800,80
72,56,220880,80
70,60,220960,80
72,56,221040,80
70,60,221120,80
72,56,221200,80
67,69,221280,720
70,60,221280,80
72,56,221360,80
70,60,221440,80
72,56,221520,80
70,60,221600,80
72,56,221680,80
70,60,221760,80
72,56,221840,80
70,60,221920,80
65,59,222000,240
72,56,222000,80
70,60,222080,80
72,56,222160,80
63,59,222240,240
70,60,222240,80
72,56,222320,80
70,60,222400,80
72,56,222480,60
61,59,222480,240
70,56,222540,60
69,53,222600,60
70,54,222660,60
77,69,222720,720
75,47,223440,240
73,51,223680,240
72,48,223920,240
67,51,224160,240
71,51,224160,240
68,46,224400,240
72,46,224400,240
69,51,224640,240
75,51,224640,240
70,48,224880,240
73,48,224880,240
63,51,225120,240
72,51,225120,240
61,49,225360,480
70,49,225360,240
69,51,225600,240
61,45,225840,480
70,45,225840,240
63,51,226080,480
60,45,226320,235
80,52,226680,144
79,51,226800,144
77,50,226920,144
75,60,227040,120
70,48,227160,120
72,40,227280,120
79,64,227280,120
73,53,227400,120
72,48,227520,120
80,68,227520,240
60,48,227640,120
63,48,227760,120
68,48,227880,120
72,59,228000,120
84,52,228120,120
82,51,228240,120
73,62,228240,120
80,50,228360,120
79,50,228480,480
75,65,228480,720
80,51,228960,120
72,50,229080,120
75,48,229200,120
80,57,229320,120
84,74,229440,120
85,77,229680,120
87,80,229920,480
60,63,230400,120
72,52,230520,120
70,50,230640,120
61,65,230640,120
68,49,230760,120
67,50,230880,480
63,68,230880,600
68,50,231360,600
60,62,231480,120
58,65,231600,120
56,68,231720,120
60,71,231840,240
68,62,231960,120
72,65,232080,120
77,67,232200,120
80,72,232320,120
77,65,232440,120
75,65,232560,120
82,75,232560,120
73,62,232680,120
72,66,232800,600
84,79,232800,960
68,65,233400,144
67,63,233520,144
65,61,233640,144
68,71,233760,600
80,65,233880,120
79,69,234000,120
77,63,234120,120
76,71,234240,120
72,61,234360,120
70,65,234480,120
77,65,234480,120
68,60,234600,120
80,66,234720,120
82,68,234960,120
84,69,235200,600
72,62,235320,120
74,64,235440,120
76,66,235560,120
77,68,235680,480
80,62,235800,120
79,65,235920,120
77,60,236040,120
81,66,236160,120
82,69,236400,120
84,72,236640,600
72,58,236760,120
74,61,236880,120
76,64,237000,120
77,68,237120,358
81,63,237240,120
79,65,237360,120
77,62,237480,120
82,68,237600,120
84,71,237840,120
85,74,238080,600
77,59,238200,120
79,61,238320,120
81,63,238440,120
82,65,238560,110
82,58,238680,360
78,58,238800,120
77,56,238920,120
81,63,239040,480
75,63,239040,120
77,65,239280,120
78,70,239520,600
81,60,239640,120
84,62,239760,120
85,65,239880,120
87,67,240000,480
75,60,240120,120
73,63,240240,120
72,55,240360,120
77,65,240480,144
82,69,240600,144
81,65,240720,144
79,64,240840,144
77,60,240960,120
75,60,241080,120
74,60,241200,120
72,60,241320,120
70,67,241440,720
74,67,241440,120
77,60,241560,120
78,60,241680,120
80,60,241800,120
79,66,241920,144
82,67,242040,144
80,70,242160,144
79,69,242280,144
77,68,242400,120
75,66,242520,120
63,65,242640,360
74,65,242640,120
72,64,242760,120
70,69,242880,480
67,60,243000,120
68,60,243120,120
70,60,243240,120
63,65,243360,120
75,69,243480,144
73,68,243600,144
72,67,243720,144
70,65,243840,120
68,64,243960,120
67,60,244080,120
65,60,244200,120
67,66,244320,120
63,66,244320,720
70,61,244440,120
72,62,244560,120
73,63,244680,120
72,64,244800,144
84,70,244920,144
82,69,245040,144
80,68,245160,144
79,66,245280,120
77,66,245400,120
75,63,245520,120
73,61,245640,120
63,72,245760,120
72,65,245760,720
67,74,246000,120
68,79,246240,240
79,65,246480,240
70,78,246480,240
80,65,246720,720
72,79,246720,240
73,80,246960,240
75,82,247200,480
84,87,247440,240
73,66,247680,144
85,92,247680,480
77,73,247800,144
75,71,247920,144
73,69,248040,144
72,71,248160,120
70,66,248280,120
68,66,248400,120
66,66,248520,120
65,66,248640,720
68,79,248640,120
72,81,248880,120
73,85,249120,720
66,72,249360,120
68,79,249600,720
76,79,249840,240
77,84,250080,240
70,74,250320,720
78,86,250320,360
82,83,250680,144
80,80,250800,144
78,77,250920,144
77,81,251040,120
75,72,251160,120
73,72,251280,120
71,72,251400,120
61,72,251520,120
70,72,251520,720
65,75,251760,120
66,78,252000,720
71,72,252240,240
73,76,252480,720
68,66,252720,240
70,73,252960,240
82,66,253200,240
78,66,253200,360
83,72,253440,240
74,66,253560,144
73,66,253680,144
71,66,253800,144
70,70,253920,120
67,68,254040,120
66,67,254160,120
64,66,254280,120
62,71,254400,720
66,71,254400,120
70,74,254640,120
71,79,254880,720
64,73,255120,240
66,76,255360,720
73,71,255600,240
74,75,255840,240
73,78,256080,240
76,78,256080,240
78,86,256320,120
82,90,256560,120
83,90,256800,720
85,90,257520,120
86,94,257760,120
88,97,258000,120
90,99,258240,240
78,71,258720,240
78,57,260160,480
76,56,260640,960
73,50,261600,480
74,56,262080,960
73,50,263040,960
71,50,264000,480
71,50,264480,480
71,56,264960,480
66,50,265440,480
74,56,265920,480
73,56,266400,480
66,56,266880,240
82,46,267360,80
83,37,267440,80
82,45,267520,80
83,40,267600,80
82,45,267680,80
83,45,267760,80
82,46,267840,80
83,46,267920,80
82,40,268000,80
83,46,268080,60
82,41,268140,60
80,41,268200,60
82,42,268260,60
83,54,268320,480
83,46,269040,120
81,40,269160,120
79,47,269280,120
78,40,269400,120
76,43,269520,120
78,40,269640,120
79,45,269760,120
81,40,269880,120
79,44,270000,120
78,40,270120,120
76,42,270240,120
74,40,270360,120
73,37,270480,120
74,40,270600,120
76,44,270720,120
74,40,270840,120
73,40,270960,120
71,40,271080,120
69,44,271200,120
68,36,271320,120
69,40,271440,120
67,38,271560,120
66,38,271680,120
69,39,271800,118
71,40,271920,120
73,41,272040,120
74,41,272160,120
76,44,272280,120
78,46,272400,120
79,48,272520,120
81,50,272640,120
83,47,272760,120
81,49,272880,120
80,49,273000,120
79,48,273120,120
78,42,273240,120
76,42,273360,120
75,44,273480,120
76,50,273600,120
78,40,273720,120
76,40,273840,120
75,40,273960,120
74,47,274080,120
73,40,274200,120
71,40,274320,120
69,40,274440,120
71,44,274560,120
73,37,274680,120
74,40,274800,120
73,36,274920,120
74,41,275040,120
76,42,275160,120
78,44,275280,120
76,45,275400,120
78,51,275520,120
79,46,275640,120
79,44,276000,480
74,46,276480,120
76,47,276600,120
78,48,276720,120
79,49,276840,120
81,55,276960,120
83,50,277080,120
83,55,277440,480
78,59,277920,120
79,60,278040,120
81,61,278160,120
83,62,278280,120
85,63,278400,120
86,59,278520,120
86,67,278880,480
85,61,279360,80
86,51,279440,80
85,63,279520,80
86,52,279600,80
85,65,279680,80
86,54,279760,80
85,68,279840,80
86,56,279920,80
85,68,280000,80
86,53,280080,80
85,63,280160,80
86,51,280240,80
70,48,280320,240
70,48,280800,80
78,60,280800,480
71,43,280880,80
70,48,280960,80
71,44,281040,80
70,48,281120,80
71,44,281200,80
70,48,281280,80
76,56,281280,480
71,45,281360,80
70,48,281440,80
71,45,281520,80
70,48,281600,80
71,44,281680,80
70,48,281760,80
73,56,281760,480
71,48,281840,80
70,44,281920,80
71,48,282000,120
70,48,282120,120
71,54,282240,960
76,64,282240,480
74,57,282720,1440
66,57,283200,480
64,59,283680,960
73,63,284160,1440
61,56,284640,480
64,57,285120,480
71,63,285600,1920
62,48,285600,480
61,48,286080,960
59,48,287040,480
64,48,287520,240
59,40,287520,480
62,43,287760,240
61,48,288000,240
59,40,288000,480
62,42,288240,240
61,48,288480,240
54,40,288480,480
62,43,288720,240
64,48,288960,240
62,40,288960,480
65,43,289200,240
61,48,289440,480
66,51,289440,960
54,48,289920,480
78,55,290400,480
74,50,290880,80
76,47,290960,80
74,52,291040,80
76,50,291120,80
74,55,291200,80
76,52,291280,80
74,56,291360,80
76,50,291440,80
74,53,291520,80
76,45,291600,80
74,50,291680,80
76,44,291760,80
62,55,291840,480
71,55,291840,240
65,47,292080,240
61,51,292320,480
66,51,292320,960
54,43,292800,480
66,51,293280,240
68,51,293520,120
70,56,293640,120
71,58,293760,120
73,60,293880,120
74,62,294000,120
76,64,294120,120
78,66,294240,120
79,69,294360,120
79,60,294720,480
78,50,295200,80
79,47,295280,80
78,52,295360,80
79,50,295440,80
78,55,295520,80
79,52,295600,80
78,56,295680,80
79,50,295760,80
78,53,295840,80
79,45,295920,80
78,50,296000,80
79,44,296080,80
74,60,296160,480
71,60,296640,960
62,45,296640,80
64,42,296720,80
62,46,296800,80
64,45,296880,80
62,49,296960,80
64,46,297040,80
62,50,297120,80
64,45,297200,80
62,47,297280,80
64,40,297360,80
62,45,297440,80
64,39,297520,80
61,50,297600,480
67,60,297600,480
64,62,298080,120
66,63,298200,120
67,64,298320,120
69,65,298440,120
71,67,298560,120
73,66,298680,120
61,55,298800,120
62,57,298920,120
73,69,299040,480
64,57,299040,120
66,55,299160,120
67,57,299280,120
69,60,299400,120
67,62,299520,120
69,63,299640,120
71,64,299760,120
73,65,299880,120
74,67,300000,120
76,66,300120,120
64,55,300240,120
66,57,300360,120
76,69,300480,480
67,57,300480,120
69,55,300600,120
71,57,300720,120
73,60,300840,120
79,74,300960,120
78,72,301080,120
76,71,301200,120
74,69,301320,120
73,67,301440,120
71,68,301560,120
67,64,301680,120
66,61,301800,120
71,75,301920,480
64,62,301920,120
62,60,302040,120
61,57,302160,120
59,55,302280,120
76,74,302400,120
74,72,302520,120
73,71,302640,120
71,69,302760,120
69,67,302880,120
67,72,303000,120
64,64,303120,120
62,61,303240,120
67,75,303360,480
61,62,303360,120
59,60,303480,120
57,57,303600,120
55,55,303720,120
62,73,303840,120
66,73,303840,480
61,68,303960,120
59,63,304080,120
57,62,304200,120
55,62,304320,120
54,61,304440,120
66,63,304560,120
67,65,304680,120
69,67,304800,120
71,69,304920,120
73,72,305040,120
74,74,305160,120
66,73,305280,120
69,73,305280,480
64,68,305400,120
62,63,305520,120
61,62,305640,120
59,62,305760,120
57,61,305880,120
69,63,306000,120
71,65,306120,120
73,67,306240,120
74,69,306360,120
76,72,306480,120
78,74,306600,120
67,73,306720,120
71,73,306720,480
66,68,306840,120
64,63,306960,120
62,62,307080,120
61,62,307200,120
59,61,307320,120
71,63,307440,120
73,65,307560,120
67,65,307680,480
74,67,307680,120
76,69,307800,120
78,72,307920,120
79,74,308040,120
76,80,308160,120
79,80,308160,480
74,74,308280,120
73,69,308400,120
71,68,308520,120
69,68,308640,120
67,67,308760,120
79,69,308880,120
81,68,309000,120
79,71,309120,480
83,73,309120,120
85,75,309240,120
86,79,309360,120
88,81,309480,120
78,71,309600,480
90,85,309600,120
88,83,309720,120
86,80,309840,120
85,78,309960,120
83,76,310080,120
81,73,310200,120
81,71,310560,480
74,71,311040,480
86,85,311040,120
85,83,311160,120
83,80,311280,120
81,78,311400,120
79,76,311520,120
78,73,311640,120
78,71,312000,480
74,69,313200,120
76,70,313320,120
78,72,313440,120
79,73,313560,120
81,74,313680,120
82,75,313800,120
83,76,313920,120
81,71,314040,120
79,71,314160,120
78,70,314280,120
76,69,314400,120
74,68,314520,120
79,77,314640,120
78,71,314760,120
76,70,314880,120
74,69,315000,120
72,68,315120,120
71,66,315240,120
76,78,315360,120
74,69,315480,120
73,67,315600,120
71,66,315720,120
69,67,315840,120
68,63,315960,120
67,63,316080,1200
64,63,316080,120
62,59,316200,120
61,63,316320,120
59,59,316440,120
57,58,316560,120
56,57,316680,120
64,62,316800,120
62,57,316920,120
61,57,317040,120
62,57,317160,120
66,70,317280,960
64,70,317280,600
61,58,317880,120
62,58,318000,120
64,58,318120,120
62,65,318240,960
66,65,318240,480
71,68,318720,1200
62,52,319320,120
59,57,319440,120
65,52,319560,120
66,57,319680,480
62,57,320160,120
66,52,320280,120
68,57,320400,240
65,48,320400,120
64,52,320520,120
67,63,320640,240
58,57,320640,120
64,50,320760,120
66,58,320880,480
62,48,320880,120
57,51,321000,120
58,68,321120,480
64,57,321360,240
58,65,321600,720
55,65,321840,240
52,65,322080,480
58,65,322320,360
54,65,322560,360
56,57,322680,120
57,65,322800,360
53,60,322920,120
54,65,323040,360
61,58,323160,120
62,65,323280,360
55,60,323400,120
57,65,323520,360
61,58,323640,120
62,65,323760,360
58,60,323880,120
59,65,324000,360
53,58,324120,120
54,65,324240,360
49,60,324360,120
50,65,324480,360
54,59,324600,120
55,65,324720,360
51,60,324840,120
52,65,324960,360
57,57,325080,120
59,65,325200,360
54,60,325320,120
55,65,325440,360
58,59,325560,120
59,65,325680,360
54,60,325800,120
55,65,325920,360
63,56,326040,120
64,65,326160,360
57,60,326280,120
59,65,326400,360
66,59,326520,120
67,65,326640,480
58,60,326760,120
57,60,326880,480
68,72,327120,240
69,78,327360,720
64,67,327600,240
61,73,327840,240
57,65,328080,480
67,65,328080,240
66,73,328320,480
58,65,328560,240
59,65,328800,720
66,66,329040,240
63,71,329280,240
57,65,329520,240
59,67,329520,480
55,65,329760,240
71,82,330000,240
72,86,330240,720
67,69,330480,240
64,75,330720,240
60,65,330960,480
71,70,330960,240
69,76,331200,240
61,75,331440,240
62,75,331680,720
69,69,331920,240
66,74,332160,240
60,69,332400,240
62,69,332400,480
59,63,332640,120
60,62,332760,144
74,72,332880,144
72,69,333000,144
71,72,333120,720
76,69,333840,480
76,69,334320,120
74,65,334440,120
72,74,334560,480
73,69,335040,240
78,75,335280,480
78,70,335760,120
76,65,335880,120
74,76,336000,720
71,69,336720,120
79,75,336840,360
79,69,337200,120
77,69,337320,120
76,76,337440,240
79,78,337680,240
78,81,337920,240
79,84,338160,240
84,86,338400,240
69,69,338880,80
71,63,338960,80
69,69,339040,80
71,64,339120,80
69,69,339200,80
71,63,339280,80
69,69,339360,80
66,69,339360,480
71,64,339440,80
69,69,339520,80
71,64,339600,80
69,69,339680,80
71,63,339760,80
67,69,339840,480
67,69,340560,120
69,62,340680,120
71,69,340800,120
72,65,340920,120
74,65,341040,120
76,65,341160,120
71,75,341280,480
71,69,342000,120
72,63,342120,120
74,69,342240,120
76,69,342360,120
78,63,342480,120
79,63,342600,120
74,75,342720,480
74,69,343440,120
76,63,343560,120
78,69,343680,120
76,65,343800,120
78,65,343920,120
79,65,344040,120
81,69,344160,120
80,65,344280,120
81,69,344400,120
83,69,344520,120
84,79,344640,120
83,71,344760,120
81,70,344880,120
79,67,345000,120
78,70,345120,120
75,67,345240,120
74,67,345360,120
76,67,345480,120
78,75,345600,120
76,73,345720,120
74,71,345840,120
72,69,345960,120
71,69,346080,120
69,64,346200,120
67,64,346320,120
69,64,346440,120
71,64,346560,120
72,66,346680,120
74,68,346800,120
75,70,346920,120
76,72,347040,120
79,66,347160,120
78,69,347280,120
76,66,347400,120
74,69,347520,120
79,64,347640,120
78,67,347760,120
79,63,347880,120
73,69,348000,480
69,63,348480,240
72,75,348480,960
63,68,348720,240
66,68,348960,240
69,68,349200,480
71,75,349440,480
67,69,349680,240
73,73,349920,240
74,76,350160,240
67,66,350400,240
76,78,350400,240
78,81,350640,240
79,90,350880,720
78,80,351600,240
76,85,351840,240
79,80,352080,120
78,69,352200,120
66,79,352320,480
76,80,353520,120
74,69,353640,120
62,79,353760,480
83,80,354960,120
81,69,355080,120
78,70,355200,120
74,64,355320,120
73,64,355440,120
71,64,355560,120
70,73,355680,480
61,62,355680,120
60,62,355800,120
61,62,355920,120
63,62,356040,120
69,69,356160,720
64,58,356160,120
63,60,356280,120
64,60,356400,120
66,60,356520,120
67,68,356640,120
66,61,356760,120
71,69,356880,120
64,58,356880,120
62,62,357000,120
73,74,357120,120
72,63,357240,120
73,63,357360,120
74,63,357480,120
76,68,357600,120
75,67,357720,120
76,68,357840,120
78,70,357960,120
79,71,358080,120
78,68,358200,120
76,64,358320,120
74,64,358440,120
73,68,358560,120
70,60,358680,120
69,60,358800,120
71,60,358920,120
72,68,359040,120
71,62,359160,120
69,62,359280,120
67,62,359400,120
66,68,359520,120
67,64,359640,120
69,64,359760,120
71,64,359880,120
72,77,360000,80
74,69,360080,80
72,74,360160,80
74,68,360240,80
72,71,360320,80
74,66,360400,80
72,70,360480,80
74,62,360560,80
72,69,360640,80
74,63,360720,80
64,57,360720,120
72,68,360800,80
66,43,360840,120
74,67,360880,80
67,64,360960,480
71,64,360960,480
69,77,361440,80
71,69,361520,80
69,74,361600,80
71,68,361680,80
69,71,361760,80
71,66,361840,80
69,70,361920,80
71,62,362000,80
69,69,362080,80
71,63,362160,80
61,57,362160,120
69,68,362240,80
63,43,362280,120
71,67,362320,80
68,46,362400,120
64,64,362400,480
71,40,362520,120
68,46,362640,120
64,43,362760,120
67,73,362880,80
69,66,362960,80
67,70,363040,80
69,65,363120,80
67,68,363200,80
69,63,363280,80
67,67,363360,80
69,59,363440,80
67,66,363520,80
69,60,363600,80
59,57,363600,120
67,65,363680,80
61,43,363720,120
69,64,363760,80
66,52,363840,120
62,64,363840,480
69,46,363960,120
66,52,364080,120
62,49,364200,120
66,50,364320,120
64,46,364440,120
66,48,364560,120
67,40,364680,120
69,48,364800,120
71,50,364920,120
83,73,365040,240
73,60,365040,120
75,55,365160,120
76,83,365280,240
88,84,365520,240
64,50,365760,120
62,46,365880,120
64,48,366000,120
66,40,366120,120
67,48,366240,120
69,50,366360,120
81,73,366480,240
71,61,366480,120
73,55,366600,120
74,83,366720,240
86,84,366960,240
62,50,367200,120
60,46,367320,120
62,48,367440,120
63,40,367560,120
65,48,367680,120
67,50,367800,120
79,73,367920,240
69,61,367920,120
71,55,368040,120
72,83,368160,240
84,84,368400,360
76,78,368760,120
77,84,368880,120
79,89,369000,120
80,94,369120,240
64,55,369240,120
65,57,369360,120
67,58,369480,120
68,59,369600,600
70,61,369720,120
72,62,369840,120
74,65,369960,120
75,70,370080,480
67,58,370200,120
70,62,370320,144
68,58,370440,144
67,62,370560,144
65,55,370680,144
63,55,370800,144
62,55,370920,144
75,62,371040,144
63,62,371040,960
74,58,371160,144
72,58,371280,144
70,58,371400,120
75,62,371520,120
70,55,371640,144
75,62,371760,144
74,55,371880,144
72,62,372000,144
70,61,372120,144
68,60,372240,144
67,59,372360,120
79,73,372480,600
75,73,372480,144
74,60,372600,144
72,66,372720,144
70,60,372840,144
74,73,372960,480
77,66,373080,144
80,69,373200,144
79,62,373320,144
77,69,373440,144
75,68,373560,144
74,66,373680,144
72,64,373800,120
70,69,373920,1080
65,69,373920,144
67,55,374040,144
65,62,374160,144
63,58,374280,144
62,68,374400,144
60,59,374520,144
62,59,374640,144
63,59,374760,144
65,62,374880,600
72,59,375000,144
74,61,375120,144
75,64,375240,144
77,70,375360,600
67,60,375480,144
68,63,375600,144
69,65,375720,144
70,68,375840,600
79,62,375960,144
80,67,376080,144
81,70,376200,144
82,72,376320,480
72,62,376440,144
74,65,376560,144
75,69,376680,144
77,61,376800,144
80,72,376800,144
75,57,376920,144
79,68,376920,144
74,54,377040,120
77,75,377040,144
75,70,377160,120
84,87,377280,240
68,75,377760,80
70,67,377840,80
68,72,377920,80
70,62,378000,80
68,67,378080,80
70,61,378160,80
68,67,378240,80
70,62,378320,80
68,67,378400,80
70,61,378480,80
68,67,378560,80
70,62,378640,80
77,70,378720,144
79,72,378840,144
80,73,378960,144
82,75,379080,144
84,76,379200,120
86,78,379320,120
87,80,379440,120
88,81,379560,120
89,83,379680,120
91,84,379800,120
92,86,379920,240
94,100,380160,240
79,75,380640,80
80,67,380720,80
79,72,380800,80
80,62,380880,80
79,67,380960,80
80,61,381040,80
79,67,381120,80
80,62,381200,80
79,67,381280,80
80,61,381360,80
79,67,381440,80
80,62,381520,80
75,70,381600,144
77,72,381720,144
79,73,381840,144
80,75,381960,144
82,76,382080,120
84,78,382200,120
85,80,382320,120
86,81,382440,120
87,83,382560,120
89,84,382680,120
90,86,382800,120
91,88,382920,120
92,90,383040,120
82,70,383040,144
80,76,383160,144
79,73,383280,144
77,73,383400,118
77,72,383520,960
75,72,383520,120
74,72,383640,120
72,71,383760,120
70,70,383880,120
69,70,384000,120
70,65,384120,120
65,68,384240,120
68,63,384360,120
67,90,384480,120
82,73,384600,144
84,74,384720,144
86,75,384840,144
82,77,384960,960
87,77,384960,120
86,78,385080,120
87,79,385200,120
89,81,385320,120
91,82,385440,120
89,83,385560,120
91,85,385680,120
92,86,385800,120
94,90,385920,120
80,73,386160,144
79,73,386280,118
79,72,386400,960
77,72,386400,120
76,72,386520,120
73,71,386640,120
72,70,386760,120
71,70,386880,120
72,65,387000,120
67,68,387120,120
70,63,387240,120
68,90,387360,120
84,74,387600,144
88,75,387720,144
84,77,387840,720
89,77,387840,120
91,78,387960,120
92,79,388080,120
91,81,388200,120
89,79,388320,120
87,77,388440,120
78,75,388560,240
86,75,388560,120
84,73,388680,120
83,79,388800,240
79,73,388800,240
74,73,389040,120
59,73,389280,60
60,68,389340,60
59,73,389400,60
60,66,389460,60
55,73,389520,120
71,73,389760,60
72,68,389820,60
71,73,389880,60
72,66,389940,60
79,73,390000,120
63,73,390240,60
65,68,390300,60
63,73,390360,60
65,66,390420,60
60,73,390480,120
75,75,390720,60
77,70,390780,60
75,75,390840,60
77,68,390900,60
84,75,390960,120
69,77,391200,60
70,72,391260,60
69,78,391320,60
70,70,391380,60
62,78,391440,120
78,79,391680,60
79,74,391740,60
78,80,391800,60
79,72,391860,60
86,81,391920,120
70,81,392160,240
67,83,392400,120
82,83,392640,60
84,78,392700,60
82,84,392760,60
84,77,392820,60
91,86,392880,120
76,88,393120,60
77,82,393180,60
76,89,393240,60
77,81,393300,60
73,90,393360,120
88,92,393600,60
89,86,393660,60
88,93,393720,60
89,85,393780,60
81,93,393840,120
93,93,393840,120
89,94,394080,120
77,79,394080,120
86,95,394320,120
74,80,394320,120
81,97,394560,120
69,82,394560,120
77,98,394800,120
65,83,394800,120
74,101,395040,120
62,85,395040,120
69,93,395280,120
57,78,395280,120
56,80,395520,120
62,80,395520,120
68,95,395520,120
80,96,395760,120
74,81,395760,120
68,81,395760,120
81,98,396000,120
73,82,396000,120
69,82,396000,120
93,110,396480,120
88,93,396480,120
85,93,396480,120
81,93,396480,120
69,50,399360,504
67,45,399840,504
66,50,400320,504
67,46,400800,504
69,46,401280,480
62,50,401760,480
62,44,402240,504
64,44,402240,504
60,44,402720,480
66,44,402720,480
67,50,403200,960
59,50,403200,504
61,41,403680,504
66,44,404160,480
62,44,404160,960
64,50,404640,960
61,42,405120,960
69,47,405600,1920
63,48,406080,504
64,47,406560,504
66,48,407040,960
71,52,407520,504
73,54,408000,504
64,45,408000,480
74,54,408480,480
62,45,408480,960
69,50,408960,480
67,47,409440,480
64,47,409440,480
66,47,409920,960
57,39,409920,480
58,50,410400,480
64,46,410880,1440
59,46,410880,480
61,46,411360,480
62,50,411840,480
69,51,412320,504
76,60,412320,504
71,45,412800,960
74,54,412800,504
73,58,413280,504
69,42,413760,504
74,53,413760,504
67,42,414240,480
76,53,414240,480
66,42,414720,504
69,50,414720,504
67,39,415200,504
71,46,415200,504
69,39,415680,504
72,46,415680,504
74,52,416160,960
62,42,416160,504
64,44,416640,504
73,52,417120,960
66,44,417120,480
67,50,417600,960
71,46,418080,480
66,39,418560,984
69,46,418560,984
64,39,419520,504
67,46,419520,504
62,39,420000,960
66,46,420000,504
64,50,420480,960
61,44,420960,960
69,54,421440,960
63,48,421920,1440
66,48,422400,480
71,54,422880,960
64,54,423360,480
76,67,423840,504
74,63,424320,504
73,59,424800,480
78,64,425280,504
76,57,425760,504
74,57,426240,480
81,71,426720,504
79,68,427200,504
78,67,427680,480
71,53,428160,480
75,63,428160,480
69,46,428640,480
78,56,428640,480
67,51,429120,480
71,62,429120,480
66,42,429600,504
69,50,429600,504
68,42,430080,504
71,49,430080,504
69,50,430560,480
73,57,430560,480
71,44,431040,504
74,61,431040,504
76,62,431520,960
73,44,431520,504
69,55,432000,480
65,49,432480,504
74,58,432480,504
64,46,432960,504
73,54,432960,504
62,44,433440,1920
71,52,433440,1920
61,45,435360,480
69,53,435360,480
63,46,435840,960
72,55,435840,960
64,45,436800,480
71,54,436800,480
67,42,437280,960
73,53,437280,960
66,45,438240,480
74,57,438240,480
75,54,438720,960
67,45,438720,480
74,58,439680,480
73,55,440160,480
72,55,440640,240
69,50,441120,80
77,50,441120,480
70,44,441200,80
69,50,441280,80
70,44,441360,80
69,50,441440,80
70,44,441520,80
69,50,441600,80
75,45,441600,480
70,45,441680,80
69,50,441760,80
70,49,441840,60
69,46,441900,60
67,46,441960,60
69,46,442020,60
74,50,442080,504
75,46,442560,504
70,43,442800,144
69,39,442920,144
67,42,443040,144
77,46,443040,480
65,41,443160,144
63,39,443280,144
62,37,443400,120
67,50,443520,480
71,50,443520,480
72,44,444000,504
67,40,444240,144
65,38,444360,144
63,40,444480,144
74,44,444480,480
62,40,444600,144
60,39,444720,144
59,38,444840,120
62,46,444960,480
71,55,444960,240
67,50,445440,480
65,46,445920,480
64,53,446400,504
65,50,446880,504
67,51,447360,480
60,58,447840,480
62,52,448320,504
72,52,448320,504
64,54,448800,504
70,54,448800,480
65,57,449280,480
69,63,449280,480
67,57,449760,504
70,57,449760,504
69,58,450240,504
72,58,450240,480
63,70,450720,240
65,70,450720,240
72,64,450960,480
81,72,451200,80
82,57,451280,80
81,72,451360,80
82,57,451440,80
77,72,451440,480
81,72,451520,80
82,57,451600,80
81,72,451680,80
82,57,451760,80
81,72,451840,80
82,57,451920,80
78,81,451920,240
81,72,452000,80
82,57,452080,80
82,90,452400,120
81,82,452520,120
79,81,452640,120
77,80,452760,120
75,79,452880,120
74,78,453000,120
58,82,453360,120
56,73,453480,120
55,72,453600,120
53,72,453720,120
51,71,453840,120
50,70,453960,120
79,95,454320,120
77,82,454440,120
75,81,454560,120
74,80,454680,120
72,79,454800,120
70,78,454920,120
60,82,455280,120
58,73,455400,120
56,72,455520,120
55,72,455640,120
53,71,455760,120
52,70,455880,120
77,92,456240,120
76,82,456360,120
73,81,456480,120
72,80,456600,120
70,79,456720,120
69,78,456840,120
57,82,457200,120
55,73,457320,120
54,72,457440,120
51,72,457560,120
50,71,457680,120
48,70,457800,120
86,90,458160,120
84,82,458280,120
82,81,458400,120
81,80,458520,120
79,79,458640,120
78,78,458760,120
62,82,459120,120
61,73,459240,120
60,72,459360,120
58,72,459480,120
57,71,459600,120
55,70,459720,120
75,92,460080,120
74,82,460200,120
72,81,460320,120
70,80,460440,120
69,79,460560,120
67,78,460680,120
65,78,460800,120
64,78,460920,120
70,88,461040,240
62,88,461040,120
60,81,461160,120
58,80,461280,120
57,80,461400,120
55,79,461520,120
53,78,461640,120
52,77,461760,120
50,75,461880,120
60,78,462000,120
58,74,462120,120
57,80,462240,120
55,82,462360,120
53,86,462480,120
52,89,462600,120
58,95,462720,240
50,95,462720,120
48,87,462840,120
52,81,462960,120
55,85,463080,120
46,80,463200,240
64,80,463680,80
65,74,463760,80
64,80,463840,80
65,74,463920,80
64,80,464000,80
65,75,464080,80
64,80,464160,80
65,73,464240,80
64,82,464320,80
65,74,464400,60
64,80,464460,60
62,73,464520,60
64,73,464580,60
65,86,464640,480
65,78,465360,120
64,74,465480,120
62,80,465600,120
60,74,465720,120
58,74,465840,120
57,74,465960,120
62,88,466080,480
62,78,466800,120
60,74,466920,120
58,80,467040,120
57,74,467160,120
55,74,467280,120
53,74,467400,120
58,88,467520,480
70,78,468240,120
69,72,468360,120
67,90,468480,120
69,73,468600,120
67,73,468720,120
65,73,468840,120
64,89,468960,120
65,74,469080,120
64,74,469200,120
62,74,469320,120
60,90,469440,120
62,73,469560,120
64,73,469680,120
65,73,469800,120
66,88,469920,120
67,73,470040,120
69,73,470160,120
67,73,470280,120
65,87,470400,120
67,75,470520,120
69,75,470640,120
70,75,470760,120
71,89,470880,120
72,73,471000,120
74,73,471120,120
72,73,471240,120
74,94,471360,120
75,94,471360,240
72,73,471480,120
70,73,471600,120
69,73,471720,120
60,85,471840,80
62,78,471920,80
60,85,472000,80
62,80,472080,80
60,85,472160,80
62,78,472240,80
60,85,472320,80
62,80,472400,80
60,85,472480,80
62,73,472560,80
60,82,472640,80
62,73,472720,80
58,78,472800,480
58,65,473520,120
60,60,473640,120
62,68,473760,120
63,60,473880,120
62,60,474000,120
65,60,474000,120
60,60,474120,120
67,60,474120,120
58,60,474240,120
63,72,474240,480
57,60,474360,120
55,60,474480,120
53,60,474600,120
58,72,474720,480
62,65,474960,120
63,56,475080,120
65,66,475200,120
67,60,475320,120
58,60,475440,360
69,60,475440,120
70,60,475560,120
67,74,475680,480
59,60,475800,120
60,60,475920,120
62,60,476040,120
63,72,476160,480
65,66,476400,120
67,60,476520,120
69,71,476640,120
67,62,476760,120
63,55,476880,480
69,62,476880,120
70,62,477000,120
72,72,477120,120
70,65,477240,120
64,59,477360,480
72,65,477360,120
74,65,477480,120
75,78,477600,120
74,69,477720,120
65,60,477840,960
72,72,477840,120
74,75,477960,120
75,86,478080,120
74,76,478200,120
73,73,478320,120
72,72,478440,120
70,77,478560,120
69,64,478680,120
63,54,478800,240
67,63,478800,120
69,64,478920,120
62,63,479040,480
70,74,479040,120
69,63,479160,120
67,62,479280,120
65,62,479400,240
60,65,479520,240
78,68,479640,120
79,74,479760,120
77,69,479880,120
75,71,480000,120
74,64,480120,120
72,67,480240,120
70,69,480360,120
69,74,480480,120
70,65,480600,120
69,67,480720,120
67,68,480840,120
65,81,480960,120
67,71,481080,120
69,71,481200,120
70,71,481320,120
72,80,481440,120
73,70,481560,120
74,70,481680,120
72,70,481800,120
70,65,481920,240
74,81,481920,120
76,70,482040,120
77,70,482160,120
79,81,482280,240
72,70,482520,120
74,71,482640,120
76,72,482760,120
77,73,482880,120
79,74,483000,120
81,75,483120,120
82,76,483240,120
84,77,483360,120
81,68,483480,120
79,73,483600,120
77,72,483720,120
75,81,483840,120
74,71,483960,120
76,71,484080,120
78,71,484200,120
79,79,484320,120
81,72,484440,120
82,81,484560,120
84,71,484680,120
86,85,484800,120
82,76,484920,120
81,76,485040,120
79,76,485160,120
77,82,485280,120
75,73,485400,120
77,76,485520,120
79,79,485640,120
81,82,485760,120
82,84,485880,120
84,87,486000,120
86,90,486120,120
87,93,486240,240
69,69,486720,480
72,74,486720,80
74,70,486800,80
72,74,486880,80
74,70,486960,80
72,74,487040,80
74,70,487120,80
63,69,487200,480
72,74,487200,80
74,69,487280,80
72,74,487360,80
74,70,487440,60
72,74,487500,60
70,68,487560,60
72,68,487620,60
62,69,487680,240
70,81,487680,480
61,69,487920,240
67,69,488160,480
70,74,488160,80
72,70,488240,80
70,74,488320,80
72,70,488400,80
70,74,488480,80
72,70,488560,80
61,69,488640,480
70,74,488640,80
72,69,488720,80
70,74,488800,80
72,70,488880,60
70,74,488940,60
69,68,489000,60
70,68,489060,60
60,69,489120,240
69,81,489120,240
68,67,489360,240
59,62,489360,240
65,69,489600,480
68,74,489600,80
70,70,489680,80
68,74,489760,80
70,70,489840,80
68,74,489920,80
70,70,490000,80
59,69,490080,480
68,74,490080,80
70,69,490160,80
68,74,490240,80
70,70,490320,60
68,74,490380,60
67,68,490440,60
68,68,490500,60
58,69,490560,240
67,81,490560,480
64,62,490800,240
67,62,491760,240
64,69,492000,240
65,61,492240,240
69,62,493200,240
66,69,493440,240
67,61,493680,240
70,62,494640,240
67,69,494880,240
69,61,495120,240
69,55,495360,120
72,61,495360,240
65,49,495480,120
67,55,495600,120
77,66,495600,480
69,50,495720,120
70,55,495840,120
69,48,495960,120
70,55,496080,120
74,61,496080,240
65,43,496200,120
67,55,496320,120
72,61,496320,240
66,48,496440,120
67,55,496560,120
70,57,496560,240
60,49,496680,240
69,61,496800,240
68,58,497040,240
67,49,497280,120
79,73,497280,720
69,59,497400,120
71,57,497520,120
72,55,497640,120
73,53,497760,120
74,51,497880,120
75,59,498000,120
77,59,498000,240
74,41,498120,120
77,52,498240,240
75,47,498480,240
66,45,498720,120
74,52,498720,240
67,41,498840,120
68,45,498960,120
72,47,498960,240
67,41,499080,120
71,52,499200,240
72,46,499440,240
69,57,499680,120
77,57,499680,240
70,50,499800,120
69,55,499920,120
67,49,500040,120
65,58,500160,120
75,68,500160,720
67,55,500280,120
69,54,500400,120
70,52,500520,120
71,50,500640,120
72,49,500760,120
74,59,500880,120
75,59,500880,240
72,41,501000,120
75,52,501120,240
74,47,501360,240
64,45,501600,120
72,52,501600,240
65,41,501720,120
67,45,501840,120
70,47,501840,240
65,41,501960,120
69,52,502080,240
70,46,502320,240
59,64,502560,120
60,57,502680,120
59,57,502800,120
57,57,502920,120
55,65,503040,120
57,58,503160,120
59,59,503280,120
60,59,503400,120
61,65,503520,120
62,58,503640,120
63,58,503760,120
62,58,503880,120
72,57,504000,240
60,64,504000,120
62,57,504120,120
64,57,504240,120
65,57,504360,120
70,68,504480,720
66,64,504480,120
67,57,504600,120
68,57,504720,120
67,57,504840,120
65,63,504960,120
64,56,505080,120
70,59,505200,240
61,56,505200,120
60,56,505320,120
69,64,505440,120
70,57,505560,120
69,57,505680,120
67,57,505800,120
65,65,505920,120
67,58,506040,120
69,59,506160,120
70,59,506280,120
71,65,506400,120
72,58,506520,120
74,58,506640,120
72,58,506760,120
70,64,506880,120
72,57,507000,120
74,57,507120,120
75,57,507240,120
76,64,507360,120
77,57,507480,120
79,57,507600,120
77,57,507720,120
67,66,507840,240
71,63,507840,120
74,56,507960,120
65,56,508080,180
75,56,508080,120
77,56,508200,120
65,68,508320,240
71,64,508320,120
72,57,508440,120
63,62,508560,180
74,57,508560,120
72,57,508680,120
62,66,508800,240
74,64,508800,120
75,57,508920,120
60,61,509040,180
77,57,509040,120
75,57,509160,120
69,63,509280,120
72,56,509400,120
74,56,509520,120
75,56,509640,120
76,64,509760,120
77,57,509880,120
79,57,510000,120
77,57,510120,120
81,64,510240,120
82,57,510360,120
84,57,510480,120
82,57,510600,120
75,66,510720,240
78,63,510720,120
79,56,510840,120
74,56,510960,180
81,56,510960,120
79,56,511080,120
74,68,511200,240
80,64,511200,120
81,57,511320,120
72,62,511440,180
82,57,511440,120
81,57,511560,120
70,66,511680,240
83,64,511680,120
84,57,511800,120
69,61,511920,180
86,57,511920,120
84,57,512040,120
74,66,512160,240
76,63,512160,120
78,56,512280,120
72,56,512400,180
79,56,512400,120
78,56,512520,120
72,68,512640,240
79,64,512640,120
80,57,512760,120
70,62,512880,180
81,57,512880,120
79,57,513000,120
74,66,513120,240
82,64,513120,120
83,57,513240,120
75,61,513360,180
84,57,513360,120
82,57,513480,120
74,66,513600,240
80,63,513600,120
81,56,513720,120
72,56,513840,180
82,56,513840,120
81,56,513960,120
76,68,514080,240
85,64,514080,120
86,57,514200,120
77,62,514320,180
87,57,514320,120
86,57,514440,120
75,66,514560,240
83,64,514560,120
84,57,514680,120
74,61,514800,180
86,57,514800,120
82,57,514920,120
73,70,515040,120
74,65,515160,120
72,71,515280,144
70,67,515400,120
68,64,515520,120
71,83,515520,240
62,61,515640,120
67,64,515760,144
72,76,515760,144
64,61,515880,120
62,64,516000,120
70,82,516000,240
64,62,516120,120
61,64,516240,144
69,76,516240,144
64,61,516360,120
70,64,516480,120
73,83,516480,240
64,61,516600,120
69,64,516720,144
74,76,516720,144
66,64,516840,120
63,64,516960,120
72,83,516960,240
66,61,517080,120
62,64,517200,144
70,76,517200,144
67,62,517320,120
70,64,517440,120
75,83,517440,240
69,63,517560,120
70,64,517680,144
76,76,517680,144
67,62,517800,120
73,64,517920,120
78,82,517920,240
72,63,518040,120
73,64,518160,144
79,76,518160,144
70,62,518280,120
64,78,518400,240
67,78,518400,240
70,92,518400,240
85,74,518880,960
82,74,518880,960
88,88,518880,80
89,80,518960,80
88,88,519040,80
89,79,519120,80
88,89,519200,80
89,82,519280,80
88,90,519360,80
89,82,519440,80
88,91,519520,80
89,81,519600,60
88,88,519660,60
86,84,519720,60
88,89,519780,60
91,98,519840,480
58,92,520080,60
76,88,520320,80
77,80,520400,80
76,88,520480,80
77,79,520560,80
91,88,520560,120
76,89,520640,80
89,79,520680,120
77,82,520720,80
76,90,520800,80
88,88,520800,120
77,82,520880,80
85,79,520920,120
76,91,520960,80
84,88,521040,120
77,81,521040,60
76,88,521100,60
82,79,521160,120
74,84,521160,60
76,89,521220,60
77,98,521280,480
81,92,521520,60
93,98,521760,240
77,86,522000,120
76,85,522120,120
74,83,522240,120
72,82,522360,120
70,81,522480,120
69,80,522600,120
74,98,522720,480
77,92,522960,60
89,98,523200,240
74,86,523440,120
72,85,523560,120
70,83,523680,120
69,82,523800,120
67,81,523920,120
65,80,524040,120
70,98,524160,480
74,85,524400,240
86,97,524640,240
84,95,524880,240
82,92,525120,240
83,90,525360,240
84,90,525600,240
82,94,526080,720
82,87,526800,240
77,74,527040,144
79,68,527160,144
81,68,527280,144
82,68,527400,144
83,72,527520,144
84,64,527640,144
86,69,527760,144
84,64,527880,144
82,72,528000,144
81,64,528120,144
79,71,528240,144
77,66,528360,120
86,90,528480,240
84,94,528960,720
84,87,529680,240
79,74,529920,144
81,68,530040,144
82,68,530160,144
84,68,530280,144
85,72,530400,144
86,64,530520,144
87,69,530640,144
86,64,530760,144
84,72,530880,144
82,64,531000,144
81,71,531120,144
79,66,531240,120
89,90,531360,240
87,94,531840,720
87,87,532560,240
82,74,532800,144
84,68,532920,144
86,68,533040,144
87,68,533160,144
88,72,533280,144
89,65,533400,144
91,70,533520,144
89,65,533640,144
88,74,533760,144
89,65,533880,144
90,73,534000,144
89,68,534120,120
86,75,534240,144
87,70,534360,144
89,70,534480,144
87,71,534600,120
84,76,534720,144
85,71,534840,144
87,71,534960,144
85,71,535080,120
83,77,535200,144
84,72,535320,144
85,73,535440,144
84,73,535560,120
75,89,535680,120
90,95,535920,240
66,66,536160,1200
72,66,536160,960
77,72,536160,120
75,65,536280,120
77,72,536400,120
75,67,536520,120
77,72,536640,120
75,67,536760,120
74,72,536880,120
75,66,537000,120
74,74,537120,480
58,73,537360,240
65,73,537360,240
70,75,537600,240
74,69,537840,120
75,61,537960,120
77,66,538080,120
79,67,538200,120
81,68,538320,120
82,69,538440,120
77,78,538560,480
62,73,538800,240
74,75,539040,240
77,69,539280,120
79,61,539400,120
81,66,539520,120
82,67,539640,120
84,68,539760,120
86,69,539880,120
79,78,540000,480
63,73,540240,240
75,75,540480,240
79,69,540720,120
81,61,540840,120
82,66,540960,120
83,67,541080,120
84,68,541200,120
86,69,541320,120
87,78,541440,240
88,83,541680,360
89,73,542040,120
87,81,542160,120
86,78,542280,120
84,79,542400,120
82,75,542520,120
81,75,542640,120
79,75,542760,120
77,80,542880,120
79,70,543000,120
77,76,543120,120
75,68,543240,120
74,74,543360,120
75,68,543480,120
77,73,543600,120
76,66,543720,120
77,78,543840,240
59,78,544800,240
75,64,545280,80
77,59,545360,80
75,64,545440,80
77,59,545520,80
75,64,545600,80
77,58,545680,80
75,64,545760,80
77,59,545840,80
75,64,545920,80
77,58,546000,60
75,61,546060,60
74,58,546120,60
75,58,546180,60
79,64,546240,480
79,73,546960,120
77,74,547080,120
75,72,547200,120
74,69,547320,120
72,67,547440,120
71,64,547560,120
72,73,547680,480
67,73,548160,480
72,73,548400,120
70,70,548520,120
60,73,548640,480
69,72,548640,120
67,69,548760,120
65,67,548880,120
64,64,549000,120
62,64,549120,120
60,61,549240,120
58,59,549360,120
57,58,549480,120
69,73,549600,240
62,68,549840,120
60,64,549960,120
58,68,550080,120
57,65,550200,120
55,63,550320,120
53,60,550440,120
52,64,550560,120
50,64,550680,120
48,62,550800,120
46,61,550920,120
75,76,551280,120
74,71,551400,120
72,77,551520,120
70,74,551640,120
69,71,551760,120
67,68,551880,120
65,74,552000,120
63,73,552120,120
62,71,552240,120
60,69,552360,120
72,77,552480,240
60,74,552720,120
58,70,552840,120
57,76,552960,120
55,72,553080,120
53,70,553200,120
51,68,553320,120
50,72,553440,120
60,79,553560,120
58,69,553680,120
57,66,553800,120
62,61,553920,240
74,76,553920,120
72,72,554040,120
77,76,554160,120
75,71,554280,120
74,79,554400,120
72,76,554520,120
70,74,554640,120
69,71,554760,120
79,78,554880,120
77,76,555000,120
75,73,555120,120
74,71,555240,120
74,61,555360,480
82,81,555360,120
81,78,555480,120
79,75,555600,120
77,72,555720,120
67,86,555840,240
75,86,555840,240
72,86,556080,240
93,86,556320,80
94,82,556400,80
93,86,556480,80
84,86,556560,240
94,81,556560,80
93,86,556640,80
94,81,556720,80
93,86,556800,80
94,80,556880,80
93,86,556960,80
94,86,557040,60
89,82,557040,240
93,81,557100,60
91,80,557160,60
93,80,557220,60
94,90,557280,480
86,88,557520,240
94,88,558000,120
93,86,558120,120
91,83,558240,120
89,81,558360,120
87,78,558480,120
86,76,558600,120
63,77,558720,240
91,88,558720,240
79,81,558960,240
79,69,559200,80
81,64,559280,80
79,68,559360,80
81,66,559440,80
91,88,559440,120
79,69,559520,80
89,86,559560,120
81,66,559600,80
79,71,559680,80
87,83,559680,120
81,65,559760,80
86,81,559800,120
79,71,559840,80
81,69,559920,80
84,78,559920,120
79,73,560000,80
82,76,560040,120
81,67,560080,80
87,88,560160,480
79,75,560160,80
81,70,560240,80
79,74,560320,80
80,72,560400,240
81,78,560640,240
87,88,560880,120
86,82,561000,120
84,88,561120,120
86,82,561240,120
64,67,561360,240
84,83,561360,120
82,83,561480,120
65,72,561600,240
81,88,561600,120
82,83,561720,120
81,83,561840,120
79,83,561960,120
77,88,562080,120
79,82,562200,120
81,82,562320,120
82,82,562440,120
83,84,562560,120
84,85,562680,120
86,86,562800,120
84,84,562920,120
82,89,563040,120
84,90,563160,120
86,92,563280,120
87,94,563400,120
89,96,563520,120
80,82,563640,120
81,83,563760,120
82,87,563880,120
84,95,564000,240
82,88,564240,240
79,80,564480,240
82,95,564480,240
77,75,564720,240
80,89,564720,240
70,75,564960,240
79,89,564960,240
68,71,565200,240
77,84,565200,240
92,100,565440,240
89,85,565440,240
87,80,565680,180
91,95,565680,180
91,101,565920,240
87,85,565920,240
84,80,566160,240
87,95,566160,240
86,99,566400,240
82,84,566400,240
89,90,566640,180
86,76,566640,180
72,83,566880,240
75,83,566880,240
81,98,566880,240
70,84,567120,240
74,84,567120,240
82,99,567120,240
80,62,567840,240
66,45,568320,80
67,42,568400,80
66,48,568480,80
67,46,568560,80
66,52,568640,80
67,48,568720,80
66,56,568800,80
67,51,568880,80
66,58,568960,80
67,55,569040,60
66,63,569100,60
67,58,569160,60
66,60,569220,60
78,93,569280,240
63,63,569760,80
65,57,569840,80
63,66,569920,80
65,60,570000,80
63,69,570080,80
65,64,570160,80
63,73,570240,80
65,67,570320,80
63,76,570400,80
65,71,570480,60
63,80,570540,60
62,74,570600,60
63,75,570660,60
66,83,570720,120
45,63,570840,120
48,65,570960,120
51,66,571080,120
54,68,571200,120
57,70,571320,120
60,71,571440,120
63,73,571560,120
66,78,571680,120
57,64,571800,120
60,66,571920,120
63,68,572040,120
66,69,572160,120
69,71,572280,120
72,73,572400,120
75,75,572520,120
78,81,572640,120
69,66,572760,120
72,67,572880,120
75,69,573000,120
78,71,573120,120
81,72,573240,120
84,74,573360,120
87,76,573480,120
90,86,573600,120
69,67,573720,120
72,70,573840,120
75,74,573960,120
78,77,574080,120
57,63,574200,120
60,68,574320,120
63,72,574440,120
66,76,574560,120
45,64,574680,120
48,69,574800,120
51,74,574920,120
54,79,575040,480
45,79,575520,720
42,79,575520,720
51,79,575520,720
41,70,576240,240
44,70,576240,240
50,70,576240,240
70,50,576480,120
68,45,576600,120
70,50,576720,120
68,45,576840,120
70,50,576960,120
68,45,577080,120
67,50,577200,120
68,45,577320,120
71,58,577440,480
56,53,577680,240
68,50,577920,240
71,46,578160,120
79,55,578160,240
70,50,578280,120
68,47,578400,120
80,56,578400,240
66,48,578520,120
65,52,578640,120
63,48,578760,120
68,58,578880,480
53,53,579120,240
65,50,579360,240
68,46,579600,120
76,55,579600,240
66,50,579720,120
65,47,579840,120
77,56,579840,240
63,48,579960,120
62,52,580080,120
59,48,580200,120
66,58,580320,480
51,53,580560,240
63,50,580800,240
66,46,581040,120
74,55,581040,240
65,50,581160,120
63,47,581280,120
75,56,581280,240
61,48,581400,120
63,56,581520,360
59,52,581520,120
58,48,581640,120
57,50,581760,240
65,46,581880,120
63,46,582000,120
62,46,582120,120
54,52,582240,720
63,52,582240,120
61,48,582360,120
60,48,582480,120
59,48,582600,120
60,54,582720,120
59,48,582840,120
54,48,582960,240
60,48,582960,120
61,48,583080,120
54,48,583200,240
63,56,583200,240
53,48,583440,240
60,56,583680,720
53,48,583680,240
51,45,583920,240
50,55,584160,240
60,45,584400,240
51,45,584400,240
51,52,584640,240
60,52,584640,240
50,38,584880,240
58,45,584880,240
51,43,585120,240
57,51,585120,240
50,36,585360,240
58,43,585360,240
45,41,585600,240
51,41,585600,240
54,49,585600,240
46,33,585840,240
50,33,585840,240
53,39,585840,240
54,45,586080,240
57,45,586080,240
63,53,586080,240
53,35,586320,240
58,35,586320,240
62,42,586320,240
63,43,586560,240
66,43,586560,240
69,51,586560,240
62,35,586800,240
65,35,586800,240
70,42,586800,240
69,44,587040,240
75,44,587040,240
78,52,587040,240
70,38,587280,240
74,38,587280,240
77,45,587280,240
81,52,587520,60
72,44,587520,960
75,44,587520,960
82,47,587580,60
81,52,587640,60
82,47,587700,60
81,52,587760,60
82,46,587820,60
81,52,587880,60
82,47,587940,60
81,52,588000,60
82,47,588060,60
81,52,588120,60
82,48,588180,60
81,52,588240,80
79,47,588320,80
81,47,588400,80
70,39,588480,480
73,39,588480,480
82,47,588480,480
64,44,588960,60
65,39,589020,60
64,44,589080,60
65,39,589140,60
64,44,589200,60
65,39,589260,60
64,44,589320,60
65,39,589380,60
70,40,589440,480
73,48,589440,480
64,44,589440,60
65,39,589500,60
64,44,589560,60
65,40,589620,60
64,44,589680,80
62,39,589760,80
64,39,589840,80
65,46,589920,480
72,46,589920,480
69,46,590400,60
70,42,590460,60
69,46,590520,60
70,42,590580,60
69,46,590640,60
70,41,590700,60
69,46,590760,60
70,42,590820,60
69,46,590880,60
75,52,590880,480
70,42,590940,60
69,46,591000,60
70,43,591060,60
69,46,591120,80
67,42,591200,80
69,42,591280,80
65,37,591360,480
72,37,591360,480
75,44,591360,480
65,37,591840,720
72,37,591840,720
75,44,591840,720
79,44,592560,144
77,39,592680,144
75,44,592800,144
74,39,592920,144
72,39,593040,144
71,39,593160,120
75,46,593280,480
67,44,594000,144
65,39,594120,144
63,44,594240,144
62,39,594360,144
60,39,594480,144
59,39,594600,120
63,46,594720,480
79,44,595440,144
77,39,595560,144
75,44,595680,144
74,39,595800,144
72,39,595920,144
71,39,596040,144
79,46,596160,144
77,47,596280,144
75,48,596400,144
74,48,596520,144
72,49,596640,144
70,51,596760,144
69,52,596880,144
67,53,597000,144
65,55,597120,144
63,56,597240,144
62,57,597360,144
60,59,597480,144
58,60,597600,120
57,62,597720,120
55,63,597840,120
53,64,597960,120
51,67,598080,120
50,68,598200,120
48,71,598320,120
46,72,598440,120
45,76,598560,120
43,79,598680,120
41,85,598800,120
40,89,598920,120
41,99,599040,240
53,99,599040,240
69,95,599520,960
81,95,599520,80
82,75,599600,80
81,82,599680,80
82,72,599760,80
81,79,599840,80
82,71,599920,80
81,76,600000,80
82,69,600080,80
81,73,600160,80
82,67,600240,60
81,76,600300,60
79,73,600360,60
81,80,600420,60
70,78,600480,240
82,92,600480,240
55,75,600960,240
67,89,600960,240
71,95,601440,960
83,95,601440,80
84,75,601520,80
83,82,601600,80
84,72,601680,80
83,79,601760,80
84,71,601840,80
83,76,601920,80
84,69,602000,80
83,73,602080,80
84,67,602160,60
83,74,602220,60
81,70,602280,60
83,79,602340,60
72,78,602400,240
84,92,602400,240
57,75,602880,240
69,89,602880,240
73,95,603360,960
85,95,603360,80
86,75,603440,80
85,82,603520,80
86,72,603600,80
85,79,603680,80
86,71,603760,80
85,76,603840,80
86,69,603920,80
85,73,604000,80
86,67,604080,60
85,74,604140,60
83,66,604200,60
85,79,604260,60
74,78,604320,240
86,92,604320,240
58,75,604800,240
70,89,604800,240
74,95,605280,960
86,95,605280,80
87,75,605360,80
86,82,605440,80
87,72,605520,80
86,79,605600,80
87,71,605680,80
86,76,605760,80
87,69,605840,80
86,73,605920,80
87,70,606000,60
86,78,606060,60
84,73,606120,60
86,81,606180,60
75,78,606240,240
87,92,606240,240
60,75,606720,240
72,89,606720,240
76,95,607200,960
88,95,607200,80
89,75,607280,80
88,82,607360,80
89,72,607440,80
88,79,607520,80
89,71,607600,80
88,76,607680,80
89,69,607760,80
88,73,607840,80
89,67,607920,60
88,76,607980,60
86,70,608040,60
88,79,608100,60
77,78,608160,240
89,92,608160,240
62,75,608640,240
74,89,608640,240
78,95,609120,960
90,95,609120,80
91,75,609200,80
90,82,609280,80
91,72,609360,80
90,79,609440,80
91,71,609520,80
90,76,609600,80
91,69,609680,80
90,73,609760,80
91,67,609840,60
90,77,609900,60
88,74,609960,60
90,83,610020,60
79,78,610080,240
91,92,610080,240
63,75,610560,240
75,89,610560,240
93,89,611040,720
89,75,611040,720
87,75,611040,720
84,75,611040,720
81,75,611040,720
94,93,612000,720
89,78,612000,720
86,78,612000,720
82,78,612000,720
81,89,612960,720
77,75,612960,720
75,75,612960,720
72,75,612960,720
69,75,612960,720
82,94,614400,1920
77,79,614400,1920
74,79,614400,1920
70,79,614400,1920
41,50,0,80
53,46,80,60
53,54,160,80
29,30,640,440
41,36,640,440
41,27,1440,240
53,32,1440,240
37,28,2400,240
49,34,2400,240
34,26,3360,240
46,31,3360,240
30,20,4320,240
42,24,4320,240
53,29,6840,120
56,32,6960,120
53,27,7080,120
56,32,7200,120
53,26,7320,120
56,31,7440,120
49,25,7560,120
54,38,7680,240
48,30,7920,240
49,28,8160,240
42,28,8400,240
54,31,8880,240
42,26,8880,240
51,32,9600,240
39,27,9600,240
35,27,10080,120
47,32,10080,120
54,30,10200,120
56,31,10320,120
58,31,10440,120
59,32,10560,120
61,33,10680,120
63,34,10800,120
64,35,10920,120
63,36,11040,120
59,33,11160,132
66,39,11280,132
64,39,11400,132
63,40,11520,132
61,41,11640,132
59,42,11760,132
58,43,11880,132
59,43,12000,132
54,38,12120,120
56,44,12240,132
58,44,12360,132
59,43,12480,132
61,43,12600,132
63,42,12720,132
64,42,12840,132
63,42,12960,120
75,42,13080,132
78,39,13200,132
76,40,13320,132
75,42,13440,132
73,44,13560,132
71,45,13680,132
70,47,13800,132
71,50,13920,132
70,42,14040,132
75,42,14160,132
73,42,14280,132
71,49,14400,132
70,37,14520,132
68,37,14640,132
66,37,14760,132
64,46,14880,132
63,42,15000,132
61,42,15120,132
59,42,15240,132
58,42,15360,120
61,45,15480,120
59,47,15600,120
64,50,15720,120
63,50,15840,120
62,39,15960,120
61,47,16080,120
54,40,16200,120
61,34,16320,360
66,40,16320,360
54,34,16320,360
47,32,17040,240
35,32,17040,240
32,82,17760,240
44,82,17760,240
68,39,18840,120
61,41,18960,120
68,37,19080,120
70,42,19200,120
68,34,19320,120
61,41,19440,120
68,34,19560,120
67,45,19680,720
67,52,20400,480
67,49,20880,240
64,57,21120,240
63,52,21360,240
61,60,21600,120
56,37,21720,120
49,42,21840,120
56,37,21960,120
57,44,22080,120
56,37,22200,120
49,37,22320,120
56,37,22440,120
57,46,22560,720
56,40,23280,240
58,57,23520,120
55,57,23520,960
61,44,23640,120
58,52,23760,120
63,44,23880,120
64,54,24000,120
63,42,24120,120
58,46,24240,120
63,39,24360,120
56,55,24480,240
59,41,24600,120
56,42,24720,120
59,42,24840,120
61,53,24960,120
59,37,25080,120
56,45,25200,120
47,38,25200,240
59,37,25320,120
52,49,25440,240
49,41,25440,720
61,57,25680,480
59,46,26160,240
51,39,26160,240
59,57,26400,240
51,48,26400,720
58,48,26640,240
56,55,26880,240
51,41,27120,240
55,49,27120,240
44,20,28080,240
56,24,28080,240
40,20,29040,240
52,24,29040,240
49,24,30000,240
37,20,30000,240
33,38,30800,80
45,32,30880,60
45,41,30960,80
57,32,31040,60
57,32,31120,80
45,32,31600,80
33,27,31600,80
47,39,31680,7680
33,33,31680,7680
38,33,31680,7680
40,33,31680,7680
59,42,35040,120
56,36,35160,120
52,37,35280,120
51,37,35400,120
50,48,35520,72
52,39,35580,72
50,48,35640,72
52,41,35700,72
50,40,35760,72
52,34,35820,72
50,40,35880,72
52,35,35940,72
50,40,36000,72
52,34,36060,72
50,40,36120,72
52,35,36180,72
50,40,36240,72
52,34,36300,72
50,40,36360,72
52,35,36420,72
50,40,36480,72
52,34,36540,72
50,40,36600,72
52,34,36660,72
50,40,36720,72
52,34,36780,72
50,40,36840,72
52,34,36900,60
51,45,36960,72
52,38,37020,72
51,45,37080,72
52,41,37140,72
51,40,37200,72
52,34,37260,72
51,40,37320,72
52,35,37380,72
51,40,37440,72
52,35,37500,72
51,40,37560,72
52,35,37620,72
51,40,37680,72
52,35,37760,96
51,40,37840,96
52,42,37920,60
54,35,37980,72
52,44,38040,72
54,38,38100,72
52,40,38160,72
54,35,38220,72
52,40,38280,72
54,35,38340,72
52,40,38400,72
54,35,38460,72
52,40,38520,72
54,35,38580,72
52,40,38640,72
54,35,38700,72
52,40,38760,72
54,36,38820,72
52,40,38880,72
54,35,38940,72
52,40,39000,72
54,36,39060,72
52,40,39120,96
51,37,39200,96
52,37,39280,80
52,41,39360,480
49,34,39360,480
45,26,39600,240
33,22,39600,240
52,41,39840,30
49,34,39840,30
45,28,39960,60
33,23,39960,60
49,34,40080,240
52,41,40080,240
52,41,40320,480
49,34,40320,480
33,22,40560,240
45,26,40560,240
49,34,40800,30
57,41,40800,30
42,28,40920,60
30,23,40920,60
54,34,41040,240
49,34,41040,240
57,41,41040,240
57,41,41280,480
54,34,41280,480
38,22,41520,240
50,26,41520,240
57,41,41760,30
54,34,41760,30
38,23,41880,60
50,28,41880,60
57,41,42000,240
54,34,42000,240
57,41,42240,480
54,34,42240,480
50,26,42480,240
38,22,42480,240
54,34,42720,30
62,41,42720,30
35,23,42840,60
47,28,42840,60
54,34,42960,240
59,34,42960,238
62,41,42960,238
43,22,43440,240
55,26,43440,240
43,23,43800,60
55,28,43800,60
43,23,44400,240
55,27,44400,240
40,26,44760,60
52,31,44760,60
60,31,45360,240
48,27,45360,240
48,28,45720,60
60,34,45720,60
57,34,46320,240
45,29,46320,240
45,31,46680,60
57,38,46680,60
41,32,47280,240
53,38,47280,240
53,45,47640,60
41,37,47640,60
38,41,48240,240
50,48,48240,240
50,57,48600,60
38,47,48600,60
33,48,49200,240
37,48,49200,240
40,48,49200,240
45,57,49200,240
37,50,49560,60
33,50,49560,60
45,61,49560,60
40,50,49560,60
37,46,50160,240
40,46,50160,240
45,54,50160,240
33,46,50160,240
33,47,50520,60
40,47,50520,60
45,58,50520,60
37,47,50520,60
37,44,51120,240
33,44,51120,240
45,52,51120,240
40,44,51120,240
33,45,51480,60
45,56,51480,60
45,44,52080,240
33,37,52080,240
33,35,52440,60
45,43,52440,60
33,28,53040,240
45,33,53040,240
45,32,53400,60
33,26,53400,60
29,17,54000,240
41,20,54000,240
41,22,54360,60
29,18,54360,60
29,25,54720,240
41,30,54720,240
53,25,55200,240
57,30,55200,240
41,46,56160,240
29,39,56160,240
57,33,56640,240
60,39,56640,240
41,55,57600,240
29,46,57600,240
65,54,58080,240
60,45,58080,240
57,45,58080,240
53,45,58080,240
29,48,58560,240
41,57,58560,240
65,66,59040,240
60,56,59040,240
57,56,59040,240
53,56,59040,240
29,63,59520,720
41,75,59520,720
43,54,60240,120
45,55,60360,120
34,55,60480,240
38,55,60480,240
46,65,60480,240
41,55,60480,240
53,40,61920,240
69,46,62400,80
70,40,62480,80
69,46,62560,80
70,40,62640,80
69,44,62720,80
70,40,62800,80
69,45,62880,80
70,40,62960,80
69,44,63040,80
70,40,63120,60
69,44,63180,60
67,40,63240,60
69,40,63300,60
70,52,63360,480
70,52,64080,144
69,46,64200,144
67,46,64320,144
65,46,64440,144
63,48,64560,144
62,43,64680,144
67,52,64800,240
67,52,65520,144
65,46,65640,144
63,46,65760,144
62,46,65880,144
60,49,66000,144
58,45,66120,144
63,52,66240,240
63,52,66960,144
62,46,67080,144
60,52,67200,144
62,46,67320,144
60,46,67440,144
58,46,67560,120
57,53,67680,144
58,47,67800,144
57,47,67920,144
55,47,68040,144
53,52,68160,144
55,47,68280,144
57,48,68400,144
58,48,68520,144
59,52,68640,144
60,49,68760,144
62,49,68880,144
60,49,69000,120
58,52,69120,144
60,47,69240,144
62,47,69360,144
63,47,69480,144
64,52,69600,144
65,45,69720,144
67,45,69840,144
65,45,69960,144
63,52,70080,144
62,48,70200,144
60,48,70320,144
58,48,70440,120
57,52,70560,144
58,47,70680,144
57,47,70800,144
55,47,70920,144
53,53,71040,144
55,47,71160,144
57,48,71280,144
58,48,71400,120
59,54,71520,144
60,47,71640,144
62,48,71760,144
60,48,71880,120
58,55,72000,144
60,48,72120,144
62,49,72240,144
63,49,72360,144
64,56,72480,144
65,51,72600,144
67,52,72720,144
65,52,72840,120
58,57,72960,120
66,52,73080,144
67,53,73200,144
66,53,73320,120
58,61,73440,120
67,53,73560,144
69,53,73680,144
67,53,73800,120
66,59,73920,120
67,55,74040,144
69,55,74160,144
67,55,74280,120
64,60,74400,120
65,54,74520,144
67,54,74640,144
65,55,74760,120
64,61,74880,120
65,57,75000,144
67,57,75120,144
65,57,75240,120
62,62,75360,120
63,58,75480,144
65,59,75600,144
63,59,75720,120
61,63,75840,120
62,59,75960,144
63,59,76080,144
62,59,76200,120
61,65,76320,120
62,58,76440,144
63,58,76560,144
62,58,76680,120
59,65,76800,120
60,60,76920,120
62,60,77040,120
60,60,77160,120
57,65,77280,120
58,58,77400,120
60,58,77520,120
58,58,77640,120
57,65,78000,120
69,76,78240,720
53,65,79440,120
65,76,79680,720
50,61,80880,120
62,68,81120,264
60,61,81360,264
58,60,81600,264
59,60,81840,264
60,70,82080,120
58,71,82560,720
58,59,83280,240
58,65,83520,264
57,59,83760,264
55,59,84000,264
53,59,84240,264
52,59,84480,264
53,59,84720,240
60,69,84960,120
58,68,85440,720
57,65,86160,240
62,71,86400,120
61,70,86880,720
60,62,87600,240
65,71,87840,120
64,70,88320,720
63,61,89040,240
41,73,89280,240
57,70,89760,80
58,62,89840,80
57,70,89920,80
58,63,90000,80
57,70,90080,80
58,63,90160,80
57,70,90240,80
58,64,90320,80
57,70,90400,80
58,63,90480,60
57,70,90540,60
55,65,90600,60
57,65,90660,60
58,72,90720,480
58,62,91440,144
57,52,91560,144
55,52,91680,144
53,52,91800,144
51,58,91920,144
50,51,92040,144
55,69,92160,480
55,62,92880,144
53,52,93000,144
51,52,93120,144
50,52,93240,144
48,58,93360,144
46,51,93480,144
51,69,93600,480
51,56,94320,144
50,55,94440,144
48,54,94560,144
50,53,94680,144
48,51,94800,144
46,52,94920,144
45,56,95040,144
46,50,95160,144
45,50,95280,144
43,50,95400,120
41,50,95520,120
43,52,95640,144
45,48,95760,144
46,48,95880,144
47,48,96000,144
48,48,96120,144
50,48,96240,144
48,48,96360,120
46,51,96480,144
48,51,96600,144
50,51,96720,144
51,52,96840,144
52,53,96960,144
53,53,97080,144
55,54,97200,144
53,51,97320,144
51,54,97440,144
50,53,97560,144
48,52,97680,144
46,51,97800,144
45,56,97920,144
46,50,98040,144
45,50,98160,144
43,50,98280,120
41,50,98400,120
43,52,98520,144
45,48,98640,144
46,48,98760,144
45,48,98880,144
46,48,99000,144
48,48,99120,144
50,48,99240,120
51,51,99360,144
53,51,99480,144
55,51,99600,144
51,52,99720,144
49,53,99840,144
50,53,99960,144
52,54,100080,144
49,51,100200,144
50,54,100320,120
53,53,100440,120
58,52,100560,120
62,51,100680,120
54,56,100800,144
55,50,100920,144
57,50,101040,144
55,50,101160,120
51,50,101280,120
52,52,101400,144
53,48,101520,144
52,48,101640,144
53,48,101760,120
57,48,101880,120
60,48,102000,120
65,48,102120,120
59,51,102240,144
60,51,102360,144
62,51,102480,144
60,52,102600,144
56,53,102720,144
57,53,102840,144
58,54,102960,144
57,51,103080,144
58,54,103200,144
57,53,103320,144
55,52,103440,144
53,51,103560,144
51,51,103680,144
53,51,103800,144
55,51,103920,144
51,52,104040,144
50,53,104160,144
49,53,104280,144
48,54,104400,144
49,51,104520,144
50,54,104640,144
52,53,104760,144
53,52,104880,144
54,51,105000,144
55,51,105120,144
57,51,105240,144
58,51,105360,144
59,52,105480,144
48,53,105600,120
52,53,105720,120
55,54,105840,120
60,51,105960,120
53,54,106080,144
55,53,106200,144
56,52,106320,144
57,51,106440,144
46,51,106560,120
50,51,106680,120
53,51,106800,120
58,52,106920,120
52,53,107040,120
55,53,107160,120
58,54,107280,120
64,51,107400,120
55,54,107520,120
52,53,107640,120
55,52,107760,120
52,51,107880,120
41,67,108960,240
57,70,109440,80
58,64,109520,80
57,70,109600,80
58,62,109680,80
57,70,109760,80
58,62,109840,80
57,68,109920,80
58,59,110000,80
57,68,110080,80
58,61,110160,60
57,68,110220,60
55,63,110280,60
57,63,110340,60
58,63,110400,480
43,67,111840,240
59,70,112320,80
60,64,112400,80
59,70,112480,80
60,62,112560,80
59,70,112640,80
60,62,112720,80
59,68,112800,80
60,59,112880,80
59,68,112960,80
60,61,113040,60
59,68,113100,60
57,63,113160,60
59,63,113220,60
60,63,113280,240
44,63,113520,240
60,70,113760,80
61,64,113840,80
60,70,113920,80
61,62,114000,80
60,70,114080,80
61,62,114160,80
60,68,114240,80
61,59,114320,80
60,68,114400,80
61,61,114480,60
60,68,114540,60
58,63,114600,60
60,63,114660,60
61,63,114720,480
61,61,115440,120
60,61,115560,120
58,67,115680,120
56,61,115800,120
54,61,115920,120
53,61,116040,120
58,69,116160,480
58,63,116880,120
56,61,117000,120
54,57,117120,120
53,58,117240,120
51,58,117360,120
49,58,117480,120
54,64,117600,480
54,61,118320,120
53,56,118440,120
51,61,118560,120
53,57,118680,120
51,57,118800,120
49,57,118920,120
48,61,119040,120
49,55,119160,120
48,55,119280,120
46,55,119400,120
44,61,119520,120
46,55,119640,120
48,56,119760,120
49,57,119880,120
50,62,120000,120
51,57,120120,120
53,57,120240,120
51,57,120360,120
49,57,120480,120
51,57,120600,120
53,59,120720,120
54,59,120840,120
55,61,120960,120
56,62,121080,120
58,66,121200,120
56,62,121320,120
54,61,121440,120
53,62,121560,120
51,60,121680,120
49,58,121800,120
44,70,121920,240
51,86,122400,720
42,75,122400,720
42,65,123120,240
51,74,123120,240
51,80,123360,240
42,70,123360,240
41,65,123600,240
49,74,123600,240
39,70,123840,240
48,80,123840,240
49,77,124080,240
37,67,124080,240
48,70,124320,240
51,80,124320,240
53,72,124560,240
49,63,124560,240
37,63,126240,240
49,72,126240,240
36,70,126720,720
48,80,126720,720
46,73,127440,240
34,64,127440,240
51,81,127680,480
39,71,127680,480
43,63,129120,240
55,72,129120,240
41,70,129600,720
53,80,129600,720
51,72,130320,240
39,63,130320,240
56,80,130560,480
44,70,130560,480
55,72,131520,240
43,63,131520,240
43,69,132000,240
55,79,132000,240
41,67,132240,240
53,77,132240,240
63,68,132960,240
51,68,132960,240
63,68,133440,240
61,60,133680,230
61,68,133920,240
60,59,134160,240
48,66,134640,120
60,74,134880,480
44,66,136080,120
56,74,136320,480
41,59,137520,120
53,66,137760,120
57,58,138000,120
58,68,138240,240
62,57,138480,240
63,62,138720,240
58,67,139200,718
61,73,139200,718
61,69,139920,238
58,63,139920,238
58,65,140160,240
61,71,140160,240
60,68,140400,240
56,62,140400,240
49,64,140640,240
58,70,140640,240
56,62,140880,240
48,57,140880,240
55,72,141120,240
46,66,141120,240
56,68,141360,240
48,62,141360,240
43,60,141600,144
44,55,141720,144
43,55,141840,144
41,55,141960,144
39,55,142080,144
41,54,142200,144
43,56,142320,144
44,57,142440,120
45,59,142560,120
46,61,142680,144
48,62,142800,144
46,60,142920,144
43,62,143040,144
44,57,143160,144
46,61,143280,144
48,62,143400,144
49,64,143520,144
51,65,143640,144
53,67,143760,144
51,63,143880,120
49,72,144000,120
48,71,144120,120
46,69,144240,120
44,63,144360,120
63,71,144480,240
54,65,144480,240
61,68,144720,240
53,62,144720,240
51,64,144960,240
60,70,144960,240
49,57,145200,240
58,62,145200,240
57,72,145440,240
48,66,145440,240
49,62,145680,240
58,68,145680,240
45,62,145920,144
46,57,146040,144
48,61,146160,144
49,62,146280,144
51,64,146400,144
53,65,146520,144
54,67,146640,144
53,63,146760,120
51,72,146880,120
49,71,147000,120
48,69,147120,120
46,63,147240,120
44,71,147360,264
43,68,147600,264
41,70,147840,264
39,62,148080,264
38,72,148320,264
39,68,148560,240
46,71,148800,264
44,68,149040,264
43,70,149280,264
41,62,149520,264
40,72,149760,264
41,68,150000,240
53,62,150240,144
54,57,150360,144
56,61,150480,144
58,62,150600,144
59,64,150720,144
61,65,150840,144
63,67,150960,144
61,63,151080,144
59,72,151200,144
58,71,151320,144
56,69,151440,144
54,63,151560,120
43,62,151680,144
44,57,151800,144
46,61,151920,144
47,62,152040,144
49,64,152160,144
51,65,152280,144
52,67,152400,144
51,63,152520,144
49,72,152640,144
47,71,152760,144
46,69,152880,144
44,63,153000,144
42,63,153120,144
40,63,153240,144
39,63,153360,144
38,63,153480,120
39,63,153600,120
43,63,153720,120
46,63,153840,120
51,63,153960,120
43,60,154080,960
55,84,154080,80
56,70,154160,80
55,74,154240,80
56,67,154320,80
55,73,154400,80
56,64,154480,80
55,72,154560,80
56,64,154640,80
55,70,154720,80
56,64,154800,60
55,75,154860,60
53,65,154920,60
55,70,154980,60
44,75,155040,960
56,83,155040,960
51,70,156000,480
39,59,156000,480
37,59,156480,480
49,70,156480,480
41,60,156960,960
53,84,156960,80
54,70,157040,80
53,74,157120,80
54,67,157200,80
53,73,157280,80
54,64,157360,80
53,72,157440,80
54,64,157520,80
53,70,157600,80
54,64,157680,60
53,75,157740,60
51,65,157800,60
53,70,157860,60
54,83,157920,480
42,75,157920,480
37,59,158400,480
49,70,158400,480
39,47,158880,480
51,56,158880,480
47,56,159360,720
35,47,159360,720
46,45,160080,240
34,38,160080,240
44,45,160320,240
32,38,160320,240
46,45,160560,240
34,38,160560,240
35,38,160800,240
47,45,160800,240
49,45,161040,240
37,38,161040,240
30,39,161280,480
42,39,161280,480
49,35,162360,120
51,35,162480,120
53,35,162600,120
54,40,162720,120
46,35,162840,120
49,35,162960,120
54,35,163080,120
58,51,163200,120
59,54,163440,120
61,56,163680,480
56,44,165240,120
58,46,165360,120
60,48,165480,120
61,50,165600,120
53,43,165720,120
56,45,165840,120
61,45,165960,120
53,73,166080,120
54,75,166320,120
56,78,166560,600
65,56,167160,120
63,56,167280,120
61,56,167400,120
60,56,167520,120
58,56,167640,120
56,56,167760,120
54,56,167880,120
53,56,168000,240
56,56,168240,240
54,56,168480,115
54,56,168600,120
58,56,168720,120
63,56,168840,120
62,56,169560,120
63,56,169680,120
65,56,169800,120
63,56,169920,120
54,56,170040,120
58,56,170160,120
51,56,170280,120
54,64,170400,120
56,64,170640,120
58,64,170880,600
54,56,171480,120
53,56,171600,120
51,56,171720,120
50,56,171840,120
47,56,171960,120
46,56,172080,120
44,56,172200,120
43,64,172320,120
44,64,172560,120
46,69,172800,120
47,74,173040,120
59,77,173280,600
56,56,173880,120
54,56,174000,120
53,56,174120,120
51,56,174240,480
58,56,174240,960
50,56,174720,480
73,50,175200,80
75,44,175280,80
73,50,175360,80
75,46,175440,80
73,52,175520,80
75,47,175600,80
73,53,175680,80
75,45,175760,80
73,53,175840,80
75,47,175920,80
73,54,176000,80
75,49,176080,80
73,56,176160,80
75,49,176240,80
73,56,176320,80
75,51,176400,80
73,56,176480,80
75,50,176560,80
73,56,176640,80
75,50,176720,80
73,56,176800,80
75,51,176880,60
73,56,176940,60
71,48,177000,60
73,48,177060,60
75,61,177120,960
47,87,177600,120
59,96,178080,960
44,87,180480,120
56,96,180960,960
41,87,183360,120
53,96,183840,960
53,67,185760,120
62,79,185760,120
63,71,186000,120
54,60,186000,120
53,66,186240,120
62,78,186240,120
51,60,186480,120
60,71,186480,120
50,67,186720,120
58,79,186720,120
51,60,186960,120
60,71,186960,120
53,67,187200,120
62,79,187200,120
63,71,187440,120
54,60,187440,120
55,67,187680,120
64,79,187680,120
65,71,187920,120
56,60,187920,120
58,65,188160,120
66,77,188160,120
56,60,188400,120
65,71,188400,120
54,65,188640,120
63,77,188640,120
65,71,188880,120
56,60,188880,120
58,66,189120,120
66,78,189120,120
59,60,189360,120
68,71,189360,120
69,78,189600,120
65,66,189600,120
66,60,189840,120
70,71,189840,120
71,79,190080,120
68,67,190080,120
66,60,190320,120
70,71,190320,120
59,67,190560,120
68,79,190560,120
66,71,190800,120
58,60,190800,120
34,84,191040,1440
46,99,191040,1440
44,99,192480,1440
32,84,192480,1440
32,84,193920,720
44,99,193920,720
42,99,194880,120
30,84,194880,120
41,99,195360,120
29,84,195360,120
39,99,195840,120
27,84,195840,120
26,84,196320,120
38,99,196320,120
27,84,196800,120
39,99,196800,120
58,60,197040,120
56,68,197280,120
54,60,197520,120
53,68,197760,120
51,60,198000,120
49,66,198240,120
58,78,198240,120
57,71,198480,120
48,60,198480,120
46,60,198720,120
54,71,198720,120
44,60,198960,120
53,71,198960,120
42,60,199200,120
51,71,199200,120
41,60,199440,120
49,71,199440,120
51,71,199680,1440
39,60,199680,1440
24,64,201120,1440
36,71,201120,80
37,65,201200,80
36,71,201280,80
37,66,201360,80
36,71,201440,80
37,66,201520,80
36,71,201600,80
37,66,201680,80
36,71,201760,80
37,67,201840,80
36,71,201920,80
37,66,202000,80
36,71,202080,80
37,67,202160,80
36,71,202240,80
37,66,202320,80
36,71,202400,80
37,66,202480,80
36,71,202560,80
37,68,202640,80
36,71,202720,80
34,68,202800,120
36,68,202920,120
34,86,203040,960
34,84,204480,120
24,55,204720,120
36,65,204720,120
37,66,204960,120
25,56,204960,120
27,56,205200,120
39,67,205200,120
41,68,205440,120
29,57,205440,120
30,58,205680,120
42,69,205680,120
25,59,205920,960
37,70,205920,960
36,79,206880,960
24,62,206880,960
52,71,208320,80
40,71,208320,1440
53,65,208400,80
52,63,208480,80
53,59,208560,80
52,63,208640,80
53,59,208720,80
52,63,208800,80
53,59,208880,80
52,63,208960,80
53,60,209040,80
52,63,209120,80
53,59,209200,80
52,63,209280,80
53,60,209360,80
52,63,209440,80
53,59,209520,80
52,63,209600,80
53,59,209680,80
55,71,209760,80
56,66,209840,80
55,63,209920,80
56,60,210000,80
55,63,210080,80
56,59,210160,80
55,63,210240,80
56,60,210320,80
55,63,210400,80
56,59,210480,80
55,63,210560,80
56,59,210640,80
55,63,210720,80
56,60,210800,80
55,63,210880,80
56,59,210960,80
55,63,211040,80
56,59,211120,80
29,89,211200,960
45,60,212640,80
46,56,212720,80
45,60,212800,80
46,56,212880,80
45,60,212960,80
46,56,213040,80
45,60,213120,80
46,56,213200,80
45,60,213280,80
46,56,213360,80
45,60,213440,80
46,56,213520,80
45,60,213600,80
46,56,213680,80
45,60,213760,80
46,56,213840,80
45,60,213920,80
46,56,214000,80
34,71,215520,1440
49,51,216960,80
51,47,217040,80
49,51,217120,80
51,47,217200,80
49,51,217280,80
51,47,217360,80
49,51,217440,80
51,47,217520,80
49,51,217600,80
51,47,217680,80
49,51,217760,80
51,47,217840,80
49,51,217920,80
51,47,218000,80
49,51,218080,80
51,51,218160,60
49,45,218220,60
48,45,218280,60
49,45,218340,60
51,50,218400,1440
56,66,219840,720
55,60,220560,240
53,66,220800,240
51,53,221040,240
50,66,221280,240
51,55,221520,240
51,66,221760,1440
60,55,222720,240
61,59,222960,240
51,57,223200,960
59,59,223200,240
60,53,223440,240
58,59,223680,240
56,53,223920,240
51,45,224160,80
53,42,224240,80
51,45,224320,80
53,42,224400,80
51,45,224480,80
53,42,224560,80
51,45,224640,80
53,42,224720,80
51,45,224800,80
53,42,224880,80
51,45,224960,80
53,42,225040,80
51,45,225120,80
53,42,225200,80
51,45,225280,80
53,45,225360,120
51,40,225480,120
53,52,225600,240
55,47,225840,240
56,40,226080,120
48,40,226200,120
51,40,226320,120
56,40,226440,120
60,52,226560,120
61,54,226800,120
63,61,227040,480
58,40,228600,120
60,43,228720,120
61,45,228840,120
60,49,228960,480
56,40,229560,144
55,44,229680,144
53,40,229800,144
51,49,229920,480
55,42,230040,120
56,44,230160,120
58,47,230280,120
53,44,231000,120
51,52,231120,120
49,46,231240,120
48,53,231360,240
50,55,231600,120
52,58,231720,120
53,61,231840,480
52,55,232920,120
53,56,233040,120
55,58,233160,120
56,64,233280,120
58,68,233520,120
60,73,233760,600
56,59,234360,120
55,59,234480,120
53,59,234600,120
60,64,234720,120
65,69,234840,144
64,67,234960,144
62,65,235080,144
60,62,235200,120
58,60,235320,120
56,57,235440,120
55,55,235560,120
53,68,235680,240
60,64,236160,120
63,69,236280,144
61,67,236400,144
60,65,236520,144
58,62,236640,120
57,60,236760,120
55,57,236880,120
53,55,237000,120
51,68,237120,480
49,64,237600,120
61,69,237720,144
60,67,237840,144
58,65,237960,144
57,62,238080,120
55,60,238200,120
53,57,238320,120
51,55,238440,120
49,68,238560,480
48,64,239040,120
60,69,239160,144
58,67,239280,144
57,65,239400,144
54,62,239520,120
53,60,239640,120
51,57,239760,120
49,55,239880,120
48,68,240000,480
50,68,240480,120
38,57,240480,120
51,71,240720,120
39,60,240720,120
41,64,240960,600
53,76,240960,600
50,63,241560,120
48,63,241680,120
46,63,241800,120
39,57,241920,120
51,68,241920,120
41,57,242160,120
53,68,242160,120
43,59,242400,600
55,70,242400,600
51,64,243000,120
47,64,243120,120
46,64,243240,120
43,57,243360,120
55,68,243360,120
44,60,243600,120
56,71,243600,120
46,61,243840,600
58,72,243840,600
55,64,244440,120
53,64,244560,120
51,64,244680,120
44,61,244800,120
56,72,244800,120
46,61,245040,120
58,72,245040,120
48,63,245280,600
60,75,245280,600
56,60,245880,144
51,59,246000,144
48,59,246120,120
56,69,246240,120
51,60,246360,120
48,60,246480,120
44,60,246600,120
51,63,246720,120
48,58,246840,120
44,58,246960,120
39,58,247080,120
42,63,247200,120
51,58,247320,120
48,58,247440,120
42,58,247560,120
53,72,247680,120
41,61,247680,120
42,61,247920,120
54,72,247920,120
44,63,248160,600
56,75,248160,600
53,60,248760,144
49,59,248880,144
44,59,249000,120
53,69,249120,120
48,60,249240,120
44,60,249360,120
41,60,249480,120
49,63,249600,120
44,58,249720,120
41,58,249840,120
37,58,249960,120
44,63,250080,120
41,58,250200,120
39,58,250320,120
37,58,250440,120
58,72,250560,120
46,61,250560,120
59,72,250800,120
47,61,250800,120
61,75,251040,600
49,63,251040,600
58,60,251640,144
54,59,251760,144
49,59,251880,120
58,69,252000,120
54,60,252120,120
49,60,252240,120
46,60,252360,120
54,63,252480,120
49,58,252600,120
46,58,252720,120
42,58,252840,120
49,63,252960,120
46,58,253080,120
44,58,253200,120
42,58,253320,120
50,72,253440,120
38,61,253440,120
52,72,253680,120
40,61,253680,120
54,75,253920,600
42,63,253920,600
50,60,254520,144
47,59,254640,144
42,59,254760,120
50,69,254880,120
47,60,255000,120
42,60,255120,120
38,60,255240,120
47,63,255360,120
42,58,255480,120
38,58,255600,120
35,58,255720,120
42,65,255840,120
38,58,255960,120
37,63,256080,120
35,66,256200,120
74,65,256320,240
30,74,256320,240
73,65,256560,144
71,65,256680,120
74,65,256800,144
71,60,256920,144
67,61,257040,144
66,61,257160,120
71,65,257280,144
66,58,257400,144
64,58,257520,144
62,58,257640,120
66,63,257760,144
62,54,257880,144
61,54,258000,144
59,54,258120,120
62,59,258240,144
59,49,258360,144
55,50,258480,144
54,50,258600,120
55,59,258720,120
54,41,258840,144
56,41,258960,144
58,41,259080,120
59,40,259200,144
61,36,259320,144
62,37,259440,144
64,39,259560,144
66,40,259680,144
67,41,259800,144
66,41,259920,144
65,40,260040,144
64,38,260160,144
62,37,260280,144
61,36,260400,144
59,35,260520,120
61,35,260640,144
62,37,260760,144
61,36,260880,144
60,36,261000,144
59,35,261120,144
58,34,261240,144
56,33,261360,144
54,32,261480,144
56,36,261600,144
58,35,261720,144
59,39,261840,144
58,34,261960,144
59,36,262080,144
61,34,262200,144
62,41,262320,144
61,35,262440,144
62,39,262560,144
64,36,262680,120
64,36,263040,480
59,39,263520,144
61,39,263640,144
62,34,263760,144
64,34,263880,144
66,39,264000,144
67,34,264120,120
67,36,264480,480
62,39,264960,144
64,36,265080,144
66,36,265200,144
68,36,265320,144
70,39,265440,144
71,35,265560,120
71,36,265920,480
70,33,266400,80
71,27,266480,80
70,32,266560,80
71,28,266640,80
70,32,266720,80
71,32,266800,80
70,33,266880,80
71,33,266960,80
70,28,267040,80
71,33,267120,60
70,29,267180,60
68,29,267240,60
70,30,267300,60
54,50,267360,240
59,50,268320,240
74,36,268800,80
76,34,268880,80
74,37,268960,80
76,35,269040,80
74,39,269120,80
76,36,269200,80
74,40,269280,80
76,37,269360,80
74,41,269440,80
74,42,269580,60
73,43,269640,60
74,48,269700,60
76,54,269760,480
45,50,270240,240
67,41,270240,480
61,36,270720,80
62,34,270800,80
61,37,270880,80
62,35,270960,80
61,39,271040,80
62,36,271120,80
61,40,271200,80
62,37,271280,80
61,41,271360,80
62,37,271440,60
61,43,271500,60
59,43,271560,60
61,48,271620,60
62,54,271680,480
69,44,271920,240
71,50,272160,240
67,49,272400,240
66,47,272640,240
65,45,272880,240
66,47,273120,960
57,47,273120,480
55,47,273600,960
64,51,274080,480
55,47,274560,480
52,47,274560,480
59,47,275040,480
54,47,275040,960
57,45,275520,480
52,44,276000,960
55,44,276000,960
50,47,276960,480
54,47,276960,480
50,45,277440,480
55,45,277440,480
50,47,277920,480
55,47,277920,240
54,43,278160,240
52,47,278400,240
45,47,278400,480
54,42,278640,240
54,47,278880,480
56,47,278880,240
57,42,279120,240
55,52,279360,960
52,52,279360,480
46,46,279840,480
54,46,280320,240
54,41,281760,120
52,39,281880,120
50,39,282000,120
49,39,282120,120
47,39,282240,144
49,38,282360,144
50,38,282480,144
52,38,282600,144
54,41,282720,144
55,38,282840,144
54,38,282960,144
53,38,283080,144
52,41,283200,144
50,37,283320,144
49,37,283440,144
47,37,283560,144
49,37,283680,144
50,36,283800,144
49,36,283920,144
48,36,284040,144
47,41,284160,144
46,34,284280,144
44,34,284400,144
42,34,284520,144
44,40,284640,144
46,36,284760,144
47,36,284880,144
46,36,285000,144
47,36,285120,144
49,38,285240,144
50,41,285360,144
49,43,285480,144
50,45,285600,144
52,41,285720,120
52,44,286080,480
47,36,286560,144
49,38,286680,144
50,41,286800,144
52,43,286920,144
54,45,287040,144
55,41,287160,120
55,44,287520,480
50,36,288000,144
52,38,288120,144
54,41,288240,144
56,43,288360,144
58,45,288480,144
59,41,288600,120
59,44,288960,480
58,40,289440,80
59,37,289520,80
58,40,289600,80
59,36,289680,80
58,40,289760,80
59,34,289840,80
58,40,289920,80
59,37,290000,80
58,40,290080,80
59,36,290160,80
58,40,290240,80
59,36,290320,80
42,36,290400,240
44,39,290640,120
46,42,290760,120
47,45,290880,120
49,45,291000,120
50,44,291120,120
52,42,291240,120
54,50,291360,240
59,44,291840,480
58,40,292320,80
59,37,292400,80
58,40,292480,80
59,36,292560,80
58,40,292640,80
59,34,292720,80
58,40,292800,80
59,37,292880,80
58,40,292960,80
59,36,293040,80
58,40,293120,80
59,36,293200,80
42,44,293280,480
54,44,293280,480
50,40,293760,80
52,37,293840,80
50,40,293920,80
52,36,294000,80
50,40,294080,80
52,34,294160,80
50,40,294240,80
52,37,294320,80
50,40,294400,80
52,36,294480,80
50,40,294560,80
52,36,294640,80
47,33,294720,240
37,28,294960,240
46,34,294960,240
38,32,295200,120
45,32,295200,480
40,33,295320,120
42,35,295440,120
43,36,295560,120
45,38,295680,120
47,37,295800,120
54,38,296160,480
47,33,296160,480
43,32,296640,120
45,33,296760,120
47,35,296880,120
49,36,297000,120
50,38,297120,120
52,37,297240,120
52,38,297600,480
49,45,298080,120
50,48,298200,120
52,50,298320,120
54,53,298440,120
55,55,298560,120
57,48,298680,120
57,59,299040,480
52,45,299520,120
54,48,299640,120
55,50,299760,120
57,53,299880,120
59,55,300000,120
61,48,300120,120
61,59,300480,480
64,58,300960,120
62,56,301080,120
61,53,301200,120
59,51,301320,120
57,49,301440,120
55,44,301560,120
55,64,301920,480
61,58,302400,120
59,56,302520,120
57,53,302640,120
55,51,302760,120
54,49,302880,120
52,44,303000,120
52,64,303360,480
38,57,303840,120
40,47,303960,120
42,50,304080,120
43,53,304200,120
44,56,304320,120
45,50,304440,120
54,65,304800,480
45,65,304800,480
42,57,305280,120
43,47,305400,120
45,50,305520,120
47,53,305640,120
49,56,305760,120
50,50,305880,120
50,65,306240,480
57,65,306240,480
43,57,306720,120
45,47,306840,120
47,50,306960,120
49,53,307080,120
50,56,307200,120
52,50,307320,120
52,65,307680,480
49,62,308160,120
50,51,308280,120
52,55,308400,120
54,58,308520,120
55,61,308640,120
57,55,308760,120
57,71,309120,480
50,67,309600,120
49,64,309720,120
47,62,309840,120
45,60,309960,120
43,57,310080,120
42,55,310200,120
54,55,310320,120
55,58,310440,120
57,62,310560,120
59,65,310680,120
61,69,310800,120
62,72,310920,120
47,67,311040,120
45,64,311160,120
43,62,311280,120
42,60,311400,120
40,57,311520,120
38,55,311640,120
50,55,311760,120
52,58,311880,120
54,62,312000,120
55,65,312120,120
57,69,312240,120
59,72,312360,118
55,61,312480,120
59,72,312480,120
57,69,312600,120
54,58,312600,120
52,56,312720,120
55,67,312720,120
50,54,312840,120
54,64,312840,120
49,52,312960,120
52,62,312960,120
47,51,313080,120
50,60,313080,120
47,52,313440,480
50,60,313440,480
43,65,313920,120
45,59,314040,120
47,59,314160,120
48,58,314280,120
50,57,314400,120
52,56,314520,120
47,64,314640,120
48,59,314760,120
50,58,314880,120
52,57,315000,120
54,55,315120,120
55,54,315240,120
45,64,315360,120
47,58,315480,120
49,57,315600,120
50,55,315720,120
52,54,315840,120
53,58,315960,120
45,54,316080,120
47,51,316200,120
49,54,316320,120
50,52,316440,120
49,52,316560,120
47,52,316680,120
46,60,316800,600
44,50,317400,120
42,50,317520,120
44,50,317640,120
46,60,317760,480
47,50,318240,120
49,46,318360,120
47,46,318480,120
45,46,318600,120
44,50,318720,120
50,48,318840,120
47,48,318960,120
53,48,319080,120
56,56,319200,120
45,57,319680,120
54,52,319800,120
50,57,319920,120
57,52,320040,120
54,57,320160,120
62,49,320280,120
47,57,320400,240
49,59,320640,240
50,65,320880,240
31,80,321120,240
49,71,321600,80
50,63,321680,80
49,71,321760,80
50,62,321840,80
49,71,321920,80
50,63,322000,80
49,71,322080,80
50,65,322160,80
49,71,322240,80
50,65,322320,60
49,65,322380,60
47,65,322440,60
49,65,322500,60
50,73,322560,480
50,69,323280,144
49,68,323400,144
47,66,323520,144
45,65,323640,144
43,64,323760,144
42,62,323880,120
47,73,324000,480
47,69,324720,144
45,68,324840,144
43,66,324960,144
42,65,325080,144
40,64,325200,144
38,62,325320,120
43,73,325440,480
43,66,326160,144
42,60,326280,144
40,66,326400,144
39,57,326520,144
40,57,326640,144
38,57,326760,144
37,66,326880,144
38,58,327000,144
37,58,327120,144
35,58,327240,144
33,66,327360,144
35,61,327480,144
37,61,327600,144
38,61,327720,144
39,66,327840,144
40,58,327960,144
42,58,328080,144
40,58,328200,144
38,66,328320,144
40,58,328440,144
38,58,328560,144
37,58,328680,144
35,66,328800,144
37,61,328920,144
38,61,329040,144
40,61,329160,144
41,66,329280,144
42,58,329400,144
43,58,329520,144
42,58,329640,144
40,66,329760,144
41,58,329880,144
40,58,330000,144
38,58,330120,144
36,66,330240,144
38,61,330360,144
40,61,330480,144
41,61,330600,144
42,66,330720,144
43,58,330840,144
45,58,330960,144
43,58,331080,144
42,66,331200,144
43,58,331320,144
42,58,331440,144
40,58,331560,144
38,66,331680,144
40,61,331800,144
42,61,331920,144
43,61,332040,144
44,66,332160,144
45,58,332280,144
47,58,332400,144
45,58,332520,120
43,58,332640,240
59,54,332880,144
57,54,333000,144
55,64,333120,240
57,57,333240,144
53,57,333360,240
59,57,333360,144
60,57,333480,144
61,64,333600,144
52,64,333600,240
62,57,333720,144
56,57,333840,144
62,57,333960,120
56,53,334080,480
60,49,334080,120
62,44,334200,120
60,49,334320,120
59,44,334440,120
57,48,334560,240
59,44,334680,120
60,49,334800,120
55,48,334800,240
62,44,334920,120
63,49,335040,120
54,55,335040,240
64,45,335160,120
58,49,335280,120
64,46,335400,120
62,49,335520,120
58,51,335520,480
64,45,335640,120
62,49,335760,120
61,43,335880,120
59,48,336000,240
61,42,336120,120
57,48,336240,240
62,49,336240,120
64,45,336360,120
65,49,336480,120
55,55,336480,240
66,45,336600,120
67,49,336720,120
65,45,336840,120
64,49,336960,120
59,53,336960,480
65,45,337080,120
64,49,337200,120
62,45,337320,120
60,48,337440,240
62,49,337560,120
64,49,337680,120
59,50,337680,240
62,47,337800,120
57,51,337920,240
60,49,337920,120
62,47,338040,120
60,49,338160,120
55,52,338160,240
59,48,338280,120
57,49,338400,120
54,54,338400,240
59,49,338520,120
52,56,338640,240
57,49,338640,120
55,50,338760,120
54,57,338880,480
51,49,338880,120
50,49,339000,120
48,54,339120,120
50,49,339240,120
51,53,339360,120
50,49,339480,120
51,53,339600,120
48,49,339720,120
59,65,340080,120
47,73,340320,720
57,57,340560,240
55,63,340800,480
55,64,341520,120
43,69,341760,720
54,53,342000,240
52,61,342240,240
50,53,342480,240
47,53,342480,240
45,53,342720,240
48,53,342720,240
60,65,342960,240
48,53,343200,240
52,53,343200,240
50,50,343440,240
47,50,343440,240
45,53,343680,240
48,53,343680,240
43,50,343920,240
47,50,343920,240
42,59,344160,240
45,59,344160,480
51,53,344400,240
50,63,344640,1680
52,53,344880,240
54,53,345120,240
55,53,345360,240
57,53,345600,240
59,56,345840,240
60,60,346080,240
50,53,346320,240
59,53,346320,240
57,53,346560,240
48,53,346560,240
55,49,346800,480
47,49,346800,240
48,53,347040,480
60,53,347280,480
50,58,347520,480
59,53,347760,240
58,64,348000,120
52,64,348000,480
67,55,348120,120
66,56,348240,120
67,56,348360,120
54,61,348480,144
57,56,348600,144
55,56,348720,144
54,56,348840,144
52,60,348960,144
50,55,349080,144
52,55,349200,144
54,55,349320,144
55,61,349440,144
50,55,349560,144
55,55,349680,144
54,55,349800,144
52,60,349920,144
54,53,350040,144
52,53,350160,144
50,53,350280,144
49,60,350400,144
50,54,350520,144
49,55,350640,144
47,55,350760,120
50,60,350880,80
45,60,350880,240
52,55,350960,80
50,60,351040,80
52,55,351120,80
44,55,351120,240
50,60,351200,80
52,54,351280,80
50,60,351360,80
45,63,351360,960
52,56,351440,80
50,60,351520,80
52,60,351600,60
50,55,351660,60
49,55,351720,60
50,55,351780,60
49,60,351840,480
50,61,352560,120
47,61,352560,240
52,56,352680,120
45,60,352800,480
54,60,352800,120
55,62,352920,120
57,64,353040,120
59,66,353160,120
54,66,353280,480
43,61,354000,240
54,61,354000,120
55,56,354120,120
54,60,354240,480
57,60,354240,120
59,62,354360,120
61,64,354480,120
62,66,354600,120
57,66,354720,480
50,53,355440,240
57,53,355440,120
59,47,355560,120
52,53,355680,120
51,47,355800,120
52,47,355920,120
54,47,356040,120
55,53,356160,120
54,47,356280,120
55,47,356400,120
57,47,356520,120
59,53,356640,120
57,47,356760,120
55,47,356880,120
56,47,357000,120
45,47,357120,240
57,47,357120,120
56,42,357240,120
57,46,357360,120
59,49,357480,120
61,53,357600,240
49,47,357840,120
45,47,357840,480
50,41,357960,120
52,52,358080,720
47,40,358320,240
49,53,358560,240
54,47,358800,120
50,47,358800,720
55,42,358920,120
57,47,359040,120
55,41,359160,120
54,41,359280,120
52,41,359400,120
50,47,359520,120
52,43,359640,120
54,43,359760,120
55,43,359880,120
57,43,360000,120
59,39,360120,120
60,43,360240,120
62,39,360360,120
64,49,360480,120
62,43,360600,120
50,43,360720,240
55,46,360960,120
59,40,361080,120
55,46,361200,120
52,43,361320,120
54,43,361440,120
52,39,361560,120
54,43,361680,120
55,39,361800,120
57,49,361920,120
59,43,362040,120
47,43,362160,240
52,52,362400,480
52,43,362880,120
50,39,363000,120
52,43,363120,120
54,39,363240,120
55,49,363360,120
57,43,363480,120
45,43,363600,240
50,52,363840,480
57,66,364320,80
59,59,364400,80
57,63,364480,80
59,58,364560,80
57,60,364640,80
59,57,364720,80
57,59,364800,80
59,53,364880,80
57,59,364960,80
59,54,365040,80
57,58,365120,80
59,57,365200,80
56,54,365280,120
59,42,365400,120
56,50,365520,120
52,40,365640,120
55,66,365760,80
57,59,365840,80
55,63,365920,80
57,58,366000,80
55,60,366080,80
57,57,366160,80
55,59,366240,80
57,53,366320,80
55,59,366400,80
57,54,366480,80
55,58,366560,80
57,57,366640,80
54,54,366720,120
57,42,366840,120
54,50,366960,120
50,40,367080,120
53,66,367200,80
55,59,367280,80
53,63,367360,80
55,58,367440,80
53,60,367520,80
55,57,367600,80
53,59,367680,80
55,53,367760,80
53,59,367840,80
55,54,367920,80
53,58,368000,80
55,57,368080,80
51,54,368160,120
55,49,368280,120
51,59,368400,120
48,54,368520,120
56,73,368640,240
41,66,369120,80
43,59,369200,80
41,63,369280,80
43,58,369360,80
41,60,369440,80
43,57,369520,80
41,59,369600,80
43,53,369680,80
41,59,369760,80
43,54,369840,80
41,58,369920,80
43,57,370000,80
39,63,370080,480
39,53,370800,144
41,54,370920,144
43,56,371040,144
44,57,371160,144
46,59,371280,144
48,60,371400,120
43,67,371520,240
43,53,372240,144
44,54,372360,144
46,56,372480,144
48,57,372600,144
50,59,372720,144
51,60,372840,120
46,67,372960,240
46,53,373680,144
48,54,373800,144
50,56,373920,144
48,57,374040,144
50,59,374160,144
51,60,374280,144
53,62,374400,144
52,56,374520,144
53,56,374640,144
55,56,374760,144
56,63,374880,144
55,54,375000,144
53,54,375120,144
51,54,375240,144
50,61,375360,144
51,54,375480,144
50,54,375600,144
48,54,375720,144
46,56,375840,144
48,51,375960,144
46,51,376080,144
44,51,376200,144
43,56,376320,144
44,50,376440,144
46,50,376560,144
48,50,376680,144
50,59,376800,144
51,52,376920,144
53,57,377040,144
55,62,377160,120
44,60,377280,144
46,61,377400,144
48,62,377520,144
49,63,377640,144
51,64,377760,120
53,65,377880,120
55,66,378000,120
56,67,378120,120
58,69,378240,120
59,70,378360,120
60,71,378480,240
80,82,378720,238
65,75,379200,80
67,67,379280,80
65,72,379360,80
67,62,379440,80
65,67,379520,80
67,61,379600,80
65,67,379680,80
67,62,379760,80
65,67,379840,80
67,61,379920,80
65,67,380000,80
67,62,380080,80
55,60,380160,144
56,61,380280,144
58,62,380400,144
60,63,380520,144
62,64,380640,120
63,65,380760,120
65,66,380880,120
67,67,381000,120
68,69,381120,120
69,70,381240,120
70,71,381360,240
55,93,381600,240
39,75,382080,80
41,67,382160,80
39,72,382240,80
41,62,382320,80
39,67,382400,80
41,61,382480,80
39,67,382560,80
41,62,382640,80
39,67,382720,80
41,61,382800,80
39,67,382880,80
41,62,382960,80
34,97,383040,240
50,75,383520,80
51,67,383600,80
50,72,383680,80
51,62,383760,80
50,67,383840,80
51,61,383920,80
50,67,384000,80
51,62,384080,80
50,67,384160,80
51,61,384240,80
50,67,384320,80
51,62,384400,80
39,94,384480,240
55,75,384960,80
56,67,385040,80
55,72,385120,80
56,62,385200,80
55,67,385280,80
56,61,385360,80
55,67,385440,80
56,62,385520,80
55,67,385600,80
56,61,385680,80
55,67,385760,80
56,62,385840,80
36,98,385920,240
52,75,386400,80
53,67,386480,80
52,72,386560,80
53,62,386640,80
52,67,386720,80
53,61,386800,80
52,67,386880,80
53,62,386960,80
52,67,387040,80
53,61,387120,80
52,67,387200,80
53,62,387280,80
41,95,387360,240
56,75,387840,80
58,67,387920,80
56,72,388000,80
58,62,388080,80
56,67,388160,80
58,61,388240,80
56,67,388320,80
58,62,388400,80
56,67,388480,80
58,61,388560,80
56,67,388640,80
58,62,388720,80
55,73,388800,240
59,65,389040,120
43,62,389280,60
44,54,389340,60
43,61,389400,60
44,54,389460,60
63,64,390000,120
48,62,390240,60
50,54,390300,60
48,61,390360,60
50,54,390420,60
57,66,390960,120
42,65,391200,60
43,57,391260,60
42,65,391320,60
43,57,391380,60
58,68,391920,120
43,69,392160,60
44,61,392220,60
43,68,392280,60
44,61,392340,60
64,75,392880,120
49,75,393120,60
50,65,393180,60
49,74,393240,60
50,66,393300,60
57,82,393840,120
53,67,394080,120
50,69,394320,120
45,70,394560,120
41,72,394800,120
38,73,395040,120
33,57,395280,120
45,68,395280,120
46,70,395520,120
34,58,395520,120
34,59,395760,120
46,71,395760,120
33,60,396000,120
37,60,396000,120
45,72,396000,120
40,60,396000,120
33,65,396480,120
45,76,396480,120
37,65,396480,120
40,65,396480,120
57,44,405120,504
55,42,405600,504
54,42,406080,504
55,44,406560,504
57,44,407040,960
55,44,408000,504
54,40,408480,480
59,47,408960,480
49,40,409440,480
50,40,409920,480
43,43,410400,480
44,41,410880,480
45,41,411360,480
47,37,411840,480
42,47,412320,504
44,47,412800,504
45,47,413280,504
47,46,413760,504
49,47,414240,480
50,47,414720,504
62,44,415200,504
60,44,415680,504
59,47,416160,504
61,39,416640,504
62,40,417120,480
55,42,417600,504
57,44,418080,504
59,47,418560,480
52,47,419040,504
54,41,419520,504
55,41,420000,504
56,47,420480,504
57,45,420960,504
55,45,421440,480
54,44,421920,480
59,45,422400,480
57,45,422880,480
55,44,423360,960
61,51,423840,504
59,47,424320,504
53,39,424320,504
54,44,424800,960
58,51,424800,480
62,54,425280,504
61,54,425760,504
56,54,425760,264
58,48,426000,264
59,44,426240,480
62,54,426240,480
57,46,426720,504
61,55,426720,480
61,45,427200,504
64,54,427200,504
62,47,427680,480
66,56,427680,480
54,52,428160,480
51,51,428640,480
52,54,429120,480
64,53,429600,504
62,52,430080,504
61,59,430560,480
45,50,431040,504
43,47,431520,504
42,48,432000,480
44,47,432480,504
45,47,432960,960
44,43,433920,480
40,43,434400,480
45,47,434880,480
57,43,435360,480
54,43,435840,480
55,47,436320,960
52,47,437280,480
51,42,437760,480
50,46,438240,480
48,46,438720,480
57,44,439200,480
53,30,439200,480
58,46,439680,480
46,39,439680,480
46,39,440160,480
52,46,440160,480
53,46,440640,480
45,46,440640,480
48,46,441120,480
41,46,441600,480
46,46,442080,480
43,46,444960,480
59,50,445440,80
60,44,445520,80
59,50,445600,80
60,44,445680,80
59,51,445760,80
60,44,445840,80
59,51,445920,80
60,46,446000,80
59,52,446080,80
60,51,446160,60
59,48,446220,60
57,48,446280,60
59,48,446340,60
60,48,446400,480
60,47,447120,144
58,43,447240,144
57,47,447360,144
55,46,447480,144
53,44,447600,144
52,42,447720,120
57,53,447840,480
57,52,448560,144
55,47,448680,144
53,51,448800,144
52,50,448920,144
50,48,449040,144
48,46,449160,120
53,57,449280,480
53,56,450000,144
52,51,450120,144
50,55,450240,144
48,54,450360,144
46,52,450480,144
45,49,450600,120
48,57,450720,144
46,57,450840,144
45,57,450960,144
43,58,451080,120
41,81,451200,480
29,71,451200,480
39,72,451680,480
27,63,451680,480
26,71,452160,480
38,81,452160,480
39,73,452640,480
27,64,452640,480
29,63,453120,480
41,72,453120,480
39,81,453600,480
27,71,453600,480
41,71,454080,480
29,62,454080,480
31,62,454560,480
43,71,454560,480
40,80,455040,480
28,70,455040,480
29,60,455520,480
41,69,455520,480
31,60,456000,480
43,69,456000,480
29,67,456480,480
41,77,456480,480
31,59,456960,480
43,67,456960,480
45,67,457440,480
33,59,457440,480
30,64,457920,480
42,73,457920,480
43,65,458400,480
31,57,458400,480
45,65,458880,480
33,57,458880,480
43,72,459360,480
31,63,459360,480
33,57,459840,480
45,65,459840,480
34,69,460320,120
46,65,460440,120
48,65,460560,120
46,61,460680,120
45,65,460800,120
43,69,460920,120
41,69,461040,120
40,69,461160,120
43,69,461280,120
41,65,461400,120
52,65,461520,120
50,65,461640,120
48,65,461760,120
46,63,461880,120
45,65,462000,120
43,60,462120,120
41,69,462240,120
40,71,462360,120
38,73,462480,120
36,75,462600,120
43,71,463200,80
45,65,463280,80
43,71,463360,80
45,65,463440,80
43,71,463520,80
45,66,463600,80
43,71,463680,80
45,65,463760,80
43,71,463840,80
45,66,463920,80
43,71,464000,80
45,66,464080,80
41,88,464160,480
41,75,464880,120
43,68,465000,120
45,75,465120,120
46,74,465240,120
48,74,465360,120
50,74,465480,120
45,87,465600,480
45,75,466320,120
46,68,466440,120
48,75,466560,120
50,74,466680,120
52,74,466800,120
53,74,466920,120
48,87,467040,480
48,67,467760,120
50,63,467880,120
52,73,468000,120
50,63,468120,120
52,63,468240,120
53,63,468360,120
55,74,468480,120
53,63,468600,120
55,63,468720,120
57,63,468840,120
58,74,468960,120
57,62,469080,120
55,62,469200,120
57,62,469320,120
58,73,469440,120
57,61,469560,120
55,62,469680,120
53,62,469800,120
52,74,469920,120
50,62,470040,120
48,62,470160,120
50,62,470280,120
51,73,470400,120
50,62,470520,120
48,62,470640,120
46,62,470760,120
50,76,470880,120
48,62,471000,120
46,62,471120,120
45,62,471240,120
46,73,471360,120
45,63,471480,120
43,63,471600,120
41,63,471720,120
51,78,471840,960
29,98,472080,240
45,72,472320,80
46,65,472400,80
45,72,472480,80
46,64,472560,80
45,72,472640,80
46,64,472720,80
45,72,472800,80
50,72,472800,480
46,65,472880,80
45,72,472960,80
46,70,473040,60
45,63,473100,60
43,63,473160,60
45,63,473220,60
46,84,473280,480
46,60,474000,120
45,54,474120,120
43,60,474240,120
41,53,474360,120
39,53,474480,120
38,53,474600,120
43,65,474720,480
43,60,475440,120
41,54,475560,120
39,60,475680,120
38,53,475800,120
36,53,475920,120
35,53,476040,120
36,65,476160,480
51,60,476880,120
50,53,477000,120
48,60,477120,120
50,53,477240,120
48,53,477360,120
46,53,477480,120
45,64,477600,120
46,58,477720,120
45,61,477840,120
43,64,477960,120
41,72,478080,120
43,60,478200,120
45,60,478320,120
46,60,478440,120
48,68,478560,120
49,56,478680,120
50,56,478800,120
48,56,478920,120
46,66,479040,120
48,57,479160,120
50,57,479280,120
51,57,479400,120
52,60,479520,120
51,55,479640,120
50,60,479760,120
51,54,479880,120
53,59,480000,120
55,56,480120,120
57,61,480240,120
58,57,480360,120
60,63,480480,120
58,60,480600,120
60,66,480720,120
62,62,480840,120
63,68,480960,120
62,63,481080,120
61,62,481200,120
60,60,481320,120
58,65,481440,120
57,60,481560,120
55,57,481680,120
57,55,481800,120
58,63,481920,120
57,57,482040,120
55,58,482160,120
53,58,482280,120
55,58,482400,80
52,50,482400,480
57,52,482480,80
55,58,482560,80
57,52,482640,80
55,58,482720,80
57,53,482800,80
55,58,482880,80
46,58,482880,480
57,53,482960,80
55,58,483040,80
57,54,483120,80
55,58,483200,80
57,54,483280,80
53,58,483360,480
45,51,483360,480
57,58,483840,80
54,50,483840,480
58,52,483920,80
57,58,484000,80
58,52,484080,80
57,58,484160,80
58,53,484240,80
48,58,484320,480
57,58,484320,80
58,53,484400,80
57,58,484480,80
58,54,484560,80
57,58,484640,80
58,54,484720,80
55,58,484800,480
46,51,484800,480
55,50,485280,480
58,58,485280,80
60,52,485360,80
58,58,485440,80
60,52,485520,80
58,58,485600,80
60,53,485680,80
58,58,485760,80
50,58,485760,480
60,53,485840,80
58,58,485920,80
60,54,486000,80
58,58,486080,80
60,54,486160,80
57,58,486240,480
48,51,486240,240
42,52,486480,360
43,48,486840,120
45,50,486960,120
46,53,487080,120
48,55,487200,120
50,58,487320,120
52,60,487440,120
54,63,487560,120
43,65,487680,120
55,55,487800,120
41,62,487920,120
53,51,488040,120
40,53,488160,120
41,48,488280,120
43,50,488400,120
45,53,488520,120
46,55,488640,120
48,58,488760,120
50,60,488880,120
52,63,489000,120
41,65,489120,120
53,55,489240,120
39,62,489360,120
51,51,489480,120
38,53,489600,120
39,48,489720,120
41,50,489840,120
43,53,489960,120
44,55,490080,120
46,58,490200,120
48,60,490320,120
50,63,490440,120
39,74,490560,120
51,63,490680,120
49,71,490800,240
37,58,490800,240
34,66,491040,80
49,66,491040,120
36,52,491120,80
48,53,491160,120
34,66,491200,80
50,53,491280,120
36,52,491280,80
34,66,491360,80
52,53,491400,120
36,52,491440,80
34,66,491520,80
53,57,491520,120
36,52,491600,80
55,59,491640,120
34,66,491680,80
36,52,491760,80
57,61,491760,120
34,66,491840,80
58,63,491880,120
36,52,491920,80
33,66,492000,480
60,65,492000,120
57,64,492120,120
55,62,492240,120
53,60,492360,120
51,66,492480,120
36,66,492480,80
38,52,492560,80
50,53,492600,120
36,66,492640,80
38,52,492720,80
52,53,492720,120
36,66,492800,80
54,53,492840,120
38,52,492880,80
36,66,492960,80
55,57,492960,120
38,52,493040,80
57,59,493080,120
36,66,493119,80
38,52,493200,80
58,61,493200,120
36,66,493280,80
60,63,493320,120
38,52,493360,80
34,66,493440,480
62,65,493440,120
58,64,493560,120
57,62,493680,120
55,60,493800,120
53,66,493920,120
38,66,493920,80
39,52,494000,80
51,53,494040,120
38,66,494080,80
53,53,494160,120
39,52,494160,80
38,66,494240,80
55,53,494280,120
39,52,494320,80
57,57,494400,120
38,66,494400,80
39,52,494480,80
58,59,494520,120
38,66,494560,80
60,61,494640,120
39,52,494640,80
38,66,494720,80
62,63,494760,120
39,52,494800,80
36,66,494880,480
63,65,494880,120
60,64,495000,120
58,62,495120,120
57,60,495240,120
39,66,495360,80
41,60,495440,80
39,66,495520,80
41,62,495600,60
39,55,495660,60
38,55,495720,60
39,55,495780,60
38,63,495840,480
40,63,496320,240
52,57,496560,240
53,37,496800,1440
63,49,496920,120
62,48,497040,120
60,48,497160,120
59,48,497280,120
60,52,497400,120
62,49,497520,120
63,46,497640,120
64,53,497760,120
65,43,497880,120
67,49,498000,120
65,40,498120,120
60,45,498240,120
53,37,498240,1440
62,41,498360,120
63,45,498480,120
62,39,498600,120
65,45,499200,120
63,41,499320,120
62,45,499440,120
63,41,499560,120
60,48,499680,120
53,37,499680,1440
62,41,499800,120
60,48,499920,120
58,41,500040,120
57,48,500160,120
58,52,500280,120
60,49,500400,120
62,46,500520,120
63,53,500640,120
64,43,500760,120
65,49,500880,120
63,40,501000,120
53,37,501120,1200
58,45,501120,120
60,41,501240,120
62,45,501360,120
63,39,501480,120
63,45,502080,120
62,41,502200,120
60,45,502320,120
54,37,502320,240
58,41,502440,120
55,77,502560,120
43,65,502560,120
41,72,503040,720
53,85,503040,720
53,72,503760,240
41,61,503760,240
53,74,504000,240
41,62,504000,240
40,54,504240,180
52,64,504240,180
49,66,504480,240
37,56,504480,240
36,50,504720,180
48,59,504720,180
35,56,504960,240
47,66,504960,240
36,47,505200,180
48,56,505200,180
53,77,505440,120
41,65,505440,120
39,72,505920,720
51,85,505920,720
51,72,506640,240
39,61,506640,240
51,74,506880,240
39,62,506880,240
50,64,507120,180
38,54,507120,180
48,66,507360,240
36,56,507360,240
47,59,507600,180
35,50,507600,180
53,66,509280,240
41,56,509280,240
39,51,509520,180
51,60,509520,180
51,66,509760,240
39,56,509760,240
38,51,510000,180
50,60,510000,180
36,56,510240,240
48,66,510240,240
34,51,510480,180
46,61,510480,180
42,64,515040,240
54,76,515040,240
55,66,515280,120
43,56,515280,120
41,61,515520,240
53,72,515520,240
52,66,515760,120
40,56,515760,120
55,72,516000,240
43,61,516000,240
57,66,516240,120
45,56,516240,120
43,62,516480,240
55,74,516480,240
42,56,516720,120
54,66,516720,120
45,64,516960,240
57,76,516960,240
58,66,517200,120
46,56,517200,120
42,62,517440,240
54,74,517440,240
43,56,517680,120
55,66,517680,120
39,65,517920,240
51,77,517920,240
40,56,518160,120
52,66,518160,120
58,56,518400,240
61,66,518400,240
46,69,518880,960
43,65,518880,80
45,57,518960,80
43,65,519040,80
45,58,519120,80
43,66,519200,80
45,58,519280,80
43,66,519360,80
45,61,519440,80
43,67,519520,80
45,58,519600,60
43,69,519660,60
41,62,519720,60
43,66,519780,60
64,62,522000,240
65,73,522240,240
61,62,523440,240
62,73,523680,240
70,70,524880,144
69,65,525000,144
67,70,525120,144
69,61,525240,144
67,67,525360,144
65,61,525480,144
64,68,525600,144
65,62,525720,144
64,62,525840,144
62,62,525960,144
60,66,526080,144
62,59,526200,144
64,63,526320,144
65,59,526440,144
66,66,526560,144
67,59,526680,144
69,65,526800,144
67,60,526920,120
70,85,527040,240
69,89,527520,720
69,82,528240,240
66,68,528480,144
67,62,528600,144
66,62,528720,144
64,62,528840,144
62,66,528960,144
64,59,529080,144
66,63,529200,144
67,59,529320,144
68,66,529440,144
69,59,529560,144
70,65,529680,144
69,60,529800,120
72,85,529920,240
70,89,530400,720
70,82,531120,240
69,68,531360,144
70,62,531480,144
69,62,531600,144
67,62,531720,144
65,66,531840,144
67,59,531960,144
69,63,532080,144
70,59,532200,144
71,66,532320,144
72,59,532440,144
74,65,532560,144
72,60,532680,120
75,85,532800,240
74,89,533280,720
75,85,534000,120
73,76,534120,120
71,86,534240,144
72,79,534360,144
73,79,534480,144
72,80,534600,120
69,86,534720,144
70,83,534840,144
72,83,534960,144
70,83,535080,120
68,88,535200,144
69,84,535320,144
70,85,535440,144
69,85,535560,120
29,84,535680,120
45,66,536160,80
46,58,536240,80
45,66,536320,80
46,59,536400,80
45,66,536480,80
46,60,536560,80
45,66,536640,80
46,66,536720,80
45,66,536800,80
46,60,536880,60
45,66,536940,60
43,60,537000,60
45,60,537060,60
46,71,537120,480
46,60,537840,120
45,52,537960,120
43,59,538080,120
41,59,538200,120
39,63,538320,120
38,64,538440,120
41,69,538560,480
43,60,539280,120
41,52,539400,120
39,59,539520,120
38,59,539640,120
36,63,539760,120
34,64,539880,120
39,69,540000,480
39,60,540720,120
38,52,540840,120
36,59,540960,120
38,59,541080,120
36,63,541200,120
34,64,541320,120
33,59,541440,240
45,60,541680,120
43,52,541800,120
53,59,541920,240
41,59,541920,240
69,59,542400,80
70,54,542480,80
69,59,542560,80
70,54,542640,80
69,59,542720,80
70,53,542800,80
69,59,542880,80
70,54,542960,80
69,59,543040,80
70,53,543120,60
69,56,543180,60
67,53,543240,60
69,53,543300,60
70,59,543360,480
46,73,543600,120
62,73,543840,60
63,68,543900,60
62,73,543960,60
63,68,544020,60
70,73,544080,120
69,74,544200,120
67,72,544320,120
65,69,544440,120
63,67,544560,120
62,64,544680,120
67,73,544800,480
67,73,545520,120
65,74,545640,120
63,72,545760,120
62,69,545880,120
60,67,546000,120
59,64,546120,120
63,73,546240,480
51,73,546480,120
60,73,546720,60
62,68,546780,60
60,73,546840,60
62,68,546900,60
63,62,546960,120
62,62,547080,120
60,61,547200,120
59,58,547320,120
57,56,547440,120
55,54,547560,120
36,73,547680,240
63,62,547680,480
52,59,548160,80
53,54,548240,80
52,59,548320,80
53,54,548400,80
52,59,548480,80
53,53,548560,80
52,59,548640,80
53,54,548720,80
52,59,548800,80
53,53,548880,60
52,56,548940,60
50,53,549000,60
52,53,549060,60
53,59,549120,480
53,64,549840,120
52,59,549960,120
50,65,550080,120
48,62,550200,120
46,59,550320,120
45,56,550440,120
55,86,550560,480
58,76,551040,240
55,64,551280,120
53,60,551400,120
51,64,551520,120
50,61,551640,120
48,60,551760,120
46,59,551880,120
57,64,552000,480
57,62,552720,120
55,59,552840,120
53,64,552960,120
51,61,553080,120
50,59,553200,120
48,57,553320,120
46,61,553440,120
57,67,553560,120
55,58,553680,120
53,56,553800,120
58,64,553920,120
57,61,554040,120
62,64,554160,120
60,60,554280,120
58,67,554400,120
57,64,554520,120
55,62,554640,120
53,60,554760,120
51,66,554880,120
50,64,555000,120
48,62,555120,120
46,60,555240,120
43,68,555360,120
45,66,555480,120
46,63,555600,120
47,61,555720,120
48,61,555840,120
50,62,555960,120
51,64,556080,120
50,62,556200,120
48,61,556320,120
46,58,556440,120
45,58,556560,120
43,57,556680,120
41,61,556800,120
39,61,556920,120
38,64,557040,120
36,66,557160,120
34,76,557280,240
50,64,557760,80
51,59,557840,80
50,65,557920,80
51,60,558000,80
50,66,558080,80
51,61,558160,80
50,67,558240,80
51,62,558320,80
50,68,558400,80
51,65,558480,60
50,69,558540,60
48,65,558600,60
50,65,558660,60
51,72,558720,240
52,67,560880,240
53,72,561120,480
53,72,561840,240
63,61,562080,720
66,72,562080,720
66,66,562800,240
63,56,562800,240
63,59,563040,240
66,70,563040,240
65,67,563280,240
62,56,563280,240
60,55,563520,240
63,65,563520,240
62,63,563760,240
58,53,563760,240
50,63,564000,120
51,56,564120,120
50,57,564240,120
48,57,564360,120
46,63,564480,120
48,58,564600,120
50,58,564720,120
51,58,564840,120
52,61,564960,120
53,62,565080,120
55,64,565200,120
53,62,565320,120
50,61,565440,120
51,63,565560,120
53,65,565680,120
51,63,565800,120
47,63,565920,120
48,63,566040,120
50,65,566160,120
51,66,566280,120
52,68,566400,120
53,70,566520,120
55,73,566640,120
53,69,566760,120
53,71,566880,240
41,60,566880,240
34,56,567120,240
46,67,567120,240
34,45,568320,240
50,56,568800,80
51,51,568880,80
50,59,568960,80
51,55,569040,60
50,63,569100,60
51,56,569160,60
50,58,569220,60
51,67,569280,240
63,67,569280,240
78,57,569760,480
42,77,570240,240
54,84,570240,240
27,100,570720,80
29,56,570800,80
27,66,570880,80
29,55,570960,80
27,66,571040,80
29,54,571120,80
27,64,571200,80
29,57,571280,80
27,63,571360,80
29,53,571440,80
27,62,571520,80
29,55,571600,80
27,62,571680,80
29,52,571760,80
27,61,571840,80
29,51,571920,80
27,59,572000,80
29,50,572080,80
27,58,572160,80
29,50,572240,80
27,57,572320,80
29,51,572400,80
27,57,572480,80
29,49,572560,80
27,56,572640,80
29,49,572720,80
27,56,572800,80
29,49,572880,80
27,56,572960,80
29,48,573040,80
27,56,573120,80
29,48,573200,80
27,56,573280,80
29,48,573360,80
27,56,573440,80
29,48,573520,80
27,56,573600,80
29,49,573680,80
27,56,573760,80
29,50,573840,80
27,56,573920,80
29,49,574000,80
27,56,574080,80
29,49,574160,80
27,56,574240,80
29,49,574320,80
27,56,574400,80
29,48,574480,80
27,56,574560,80
29,48,574640,80
27,56,574720,80
29,48,574800,80
27,56,574880,80
29,48,574960,80
27,56,575040,80
29,49,575120,80
27,56,575200,80
29,50,575280,80
27,56,575360,80
29,41,575440,80
29,30,575520,480
34,54,575520,80
36,44,575600,80
34,52,575680,80
36,39,575760,80
34,49,575840,80
36,38,575920,80
29,30,576000,1440
34,46,576000,80
36,36,576080,80
34,44,576160,80
36,33,576240,80
34,41,576320,80
36,30,576400,80
34,37,576480,80
36,31,576560,80
34,37,576640,80
36,32,576720,80
34,37,576800,80
36,32,576880,80
34,37,576960,80
36,31,577040,80
34,37,577120,80
36,30,577200,80
34,37,577280,80
36,31,577360,80
34,37,577440,80
29,30,577440,1440
36,31,577520,80
34,37,577600,80
36,30,577680,80
34,37,577760,80
36,31,577840,80
34,37,577920,80
36,31,578000,80
34,37,578080,80
36,30,578160,80
34,37,578240,80
36,31,578320,80
34,37,578400,80
36,31,578480,80
34,37,578560,80
36,30,578640,80
34,37,578720,80
36,31,578800,80
34,37,578880,80
29,30,578880,1440
36,31,578960,80
34,37,579040,80
36,30,579120,80
34,37,579200,80
36,31,579280,80
34,37,579360,80
36,31,579440,80
34,37,579520,80
36,30,579600,80
34,37,579680,80
36,31,579760,80
34,37,579840,80
36,31,579920,80
34,37,580000,80
36,30,580080,80
34,37,580160,80
36,31,580240,80
29,30,580320,1440
34,37,580320,80
36,31,580400,80
34,37,580480,80
36,30,580560,80
34,37,580640,80
36,31,580720,80
34,37,580800,80
36,31,580880,80
34,37,580960,80
36,30,581040,80
34,37,581120,80
36,31,581200,80
34,37,581280,80
36,31,581360,80
34,37,581440,80
36,30,581520,80
34,37,581600,80
36,31,581680,80
29,30,581760,1440
34,37,581760,80
36,31,581840,80
34,37,581920,80
36,30,582000,80
34,37,582080,80
36,31,582160,80
34,37,582240,80
36,31,582320,80
34,37,582400,80
36,30,582480,80
34,37,582560,80
36,31,582640,80
34,37,582720,80
36,31,582800,80
34,37,582880,80
36,30,582960,80
34,37,583040,80
36,31,583120,80
34,37,583200,80
29,30,583200,1440
36,31,583280,80
34,37,583360,80
36,30,583440,80
34,37,583520,80
36,31,583600,80
34,37,583680,80
36,31,583760,80
34,37,583840,80
36,30,583920,80
34,37,584000,80
36,31,584080,80
34,37,584160,80
36,31,584240,80
34,37,584320,80
36,30,584400,80
34,37,584480,80
36,31,584560,80
29,30,584640,480
34,37,584640,60
36,31,584700,60
34,37,584760,60
36,30,584820,60
34,37,584880,60
36,31,584940,60
34,37,585000,60
36,31,585060,60
29,30,585120,480
34,37,585120,60
36,30,585180,60
34,37,585240,60
36,31,585300,60
34,37,585360,60
36,31,585420,60
34,37,585480,60
36,30,585540,60
29,30,585600,480
34,37,585600,60
36,31,585660,60
34,37,585720,60
36,31,585780,60
34,37,585840,60
36,30,585900,60
34,37,585960,60
36,31,586020,60
29,30,586080,480
34,37,586080,60
36,31,586140,60
34,37,586200,60
36,31,586260,60
34,37,586320,60
36,30,586380,60
34,37,586440,60
36,31,586500,60
29,30,586560,480
34,37,586560,60
36,31,586620,60
34,37,586680,60
36,31,586740,60
34,37,586800,60
36,30,586860,60
34,37,586920,60
36,31,586980,60
29,30,587040,480
34,37,587040,60
36,31,587100,60
34,37,587160,60
36,37,587220,80
34,37,587280,80
33,35,587360,80
34,35,587440,80
30,35,587520,480
34,35,587520,480
42,42,587520,480
31,35,588000,960
34,35,588000,960
43,42,588000,960
55,37,588960,60
57,33,589020,60
55,37,589080,60
57,33,589140,60
55,37,589200,60
57,33,589260,60
55,37,589320,60
57,33,589380,60
55,37,589440,60
57,33,589500,60
55,37,589560,60
57,34,589620,60
55,37,589680,80
53,33,589760,80
55,33,589840,80
57,42,589920,480
60,39,590400,60
62,35,590460,60
60,39,590520,60
62,35,590580,60
60,39,590640,60
62,35,590700,60
60,39,590760,60
62,35,590820,60
60,39,590880,60
53,52,590880,480
62,35,590940,60
60,39,591000,60
62,36,591060,60
60,39,591120,80
58,35,591200,80
60,35,591280,80
53,34,591360,480
57,34,591360,480
60,40,591360,480
53,39,591840,720
60,47,591840,720
57,39,591840,720
55,37,594000,144
53,33,594120,144
51,37,594240,144
50,33,594360,144
48,33,594480,144
47,33,594600,120
51,39,594720,480
67,37,595440,144
65,33,595560,144
63,37,595680,144
62,33,595800,144
60,33,595920,144
59,33,596040,144
67,39,596160,144
65,39,596280,144
63,40,596400,144
62,40,596520,144
60,41,596640,144
58,42,596760,144
57,44,596880,144
55,45,597000,144
53,46,597120,144
51,47,597240,144
50,48,597360,144
48,49,597480,144
46,50,597600,120
45,52,597720,120
43,53,597840,120
41,55,597960,120
39,56,598080,120
38,57,598200,120
36,60,598320,120
34,61,598440,120
33,64,598560,120
31,67,598680,120
29,71,598800,120
28,75,598920,120
29,83,599040,240
45,79,599520,80
46,56,599600,80
45,61,599680,80
46,53,599760,80
45,59,599840,80
46,52,599920,80
45,57,600000,80
46,52,600080,80
45,55,600160,80
46,50,600240,60
45,58,600300,60
43,56,600360,60
45,63,600420,60
46,68,600480,240
31,69,600960,240
47,79,601440,80
48,56,601520,80
47,61,601600,80
48,53,601680,80
47,59,601760,80
48,52,601840,80
47,57,601920,80
48,52,602000,80
47,55,602080,80
48,50,602160,60
47,58,602220,60
45,52,602280,60
47,61,602340,60
48,68,602400,240
33,69,602880,240
49,79,603360,80
50,56,603440,80
49,61,603520,80
50,53,603600,80
49,59,603680,80
50,52,603760,80
49,57,603840,80
50,52,603920,80
49,55,604000,80
50,50,604080,60
49,58,604140,60
47,54,604200,60
49,61,604260,60
50,68,604320,240
34,69,604800,240
50,79,605280,80
51,56,605360,80
50,61,605440,80
51,53,605520,80
50,59,605600,80
51,52,605680,80
50,57,605760,80
51,52,605840,80
50,55,605920,80
51,50,606000,60
50,58,606060,60
48,53,606120,60
50,54,606180,60
51,68,606240,240
36,69,606720,240
52,79,607200,80
53,56,607280,80
52,61,607360,80
53,53,607440,80
52,59,607520,80
53,52,607600,80
52,57,607680,80
53,52,607760,80
52,55,607840,80
53,50,607920,60
52,56,607980,60
50,54,608040,60
52,59,608100,60
53,68,608160,240
38,69,608640,240
54,79,609120,80
55,56,609200,80
54,61,609280,80
55,53,609360,80
54,59,609440,80
55,52,609520,80
54,57,609600,80
55,52,609680,80
54,55,609760,80
55,50,609840,60
54,54,609900,60
52,49,609960,60
54,54,610020,60
55,68,610080,240
39,69,610560,240
65,84,611040,720
63,71,611040,720
60,71,611040,720
53,71,611040,720
46,73,612000,720
50,73,612000,720
53,73,612000,720
58,87,612000,720
53,79,612960,720
51,67,612960,720
48,67,612960,720
41,67,612960,720
34,73,614400,1920
38,73,614400,1920
41,73,614400,1920
46,87,614400,1920
