note,velocity,position,duration
67,40,0,480
63,34,0,480
65,39,480,480
58,33,480,480
55,33,960,720
63,39,960,720
63,44,1680,180
68,37,1860,60
67,44,1920,240
67,46,2160,180
73,44,2340,60
72,50,2400,240
72,55,2640,60
74,48,2700,20
72,48,2720,20
71,48,2740,20
72,55,2760,60
74,48,2820,60
75,58,2880,360
63,44,2880,240
66,39,3120,240
63,33,3120,240
72,44,3240,120
71,46,3360,240
62,32,3360,240
67,37,3360,240
79,62,3600,120
87,58,3720,120
87,63,3840,360
75,48,3840,240
78,48,4080,240
75,40,4080,240
84,53,4200,120
74,40,4320,238
79,40,4320,238
83,50,4320,238
82,60,4560,240
74,46,4560,240
79,46,4560,240
82,68,4800,560
74,55,4800,240
75,55,5040,240
77,46,5280,80
70,51,5360,80
72,46,5440,80
69,55,5520,80
70,46,5600,80
68,46,5680,40
58,34,5760,480
64,40,5760,480
67,40,5760,480
61,34,5760,480
62,33,6240,480
65,39,6240,480
56,33,6240,480
54,33,6720,720
63,39,6720,720
66,44,7440,180
63,34,7440,240
71,37,7620,60
71,44,7680,240
64,34,7680,240
64,34,7920,240
70,46,7920,180
76,44,8100,60
75,50,8160,240
63,34,8160,240
75,55,8400,60
77,48,8460,20
75,48,8480,20
74,48,8500,20
75,55,8520,60
77,48,8580,60
78,58,8640,360
72,37,8640,240
72,44,8880,240
75,49,9000,120
74,46,9120,240
70,37,9120,240
70,37,9360,480
73,55,9360,60
75,48,9420,20
73,48,9440,20
72,48,9460,20
73,55,9480,60
75,48,9540,60
76,58,9600,360
70,44,9840,240
75,49,9960,60
73,44,10020,60
71,46,10080,240
68,37,10080,240
63,42,10320,240
75,55,10320,240
70,42,10320,240
74,51,10560,240
68,39,10560,240
62,39,10560,240
70,39,10560,240
62,32,11160,119
70,38,11160,119
74,45,11160,119
68,32,11160,119
70,39,11280,119
63,33,11280,119
66,33,11280,119
75,47,11280,119
66,30,11400,119
75,43,11400,119
70,36,11400,119
63,30,11400,119
77,55,11520,240
65,39,11520,240
70,46,11520,240
74,45,12120,119
70,38,12120,119
70,39,12240,119
75,47,12240,119
75,43,12360,119
70,36,12360,119
77,55,12480,240
70,46,12480,240
70,41,13080,119
77,49,13080,119
79,54,13200,119
70,44,13200,119
68,42,13320,119
80,51,13320,119
68,46,13440,240
80,55,13440,240
77,49,14040,119
70,41,14040,119
79,54,14160,119
70,44,14160,119
80,51,14280,119
68,42,14280,119
80,44,14640,240
68,36,14640,240
68,36,15120,240
80,44,15120,240
80,77,15360,720
68,64,15360,720
67,59,16080,240
74,70,16080,120
79,67,16200,60
67,59,16320,240
79,70,16320,240
72,70,16560,120
65,59,16560,240
77,67,16680,60
65,59,16800,240
77,70,16800,240
70,70,17040,120
63,59,17040,240
75,67,17160,60
68,59,17280,720
63,59,17280,480
75,70,17280,480
70,59,17280,720
74,59,17760,240
62,50,17760,240
75,59,18000,240
70,50,18000,240
63,50,18000,240
65,48,18240,240
70,48,18240,240
77,57,18240,240
67,51,18480,240
70,51,18480,240
79,60,18480,240
70,54,18720,240
80,64,18720,240
68,54,18720,240
70,57,18960,240
82,68,18960,240
67,66,19200,240
70,66,19200,240
82,78,19200,240
82,81,19680,240
70,69,19680,240
82,78,20160,720
94,93,20160,720
82,65,20880,960
70,55,20880,960
67,62,21840,240
79,62,21840,240
77,65,22080,240
65,55,22080,240
74,57,22320,240
62,48,22320,240
71,57,22560,240
59,48,22560,240
70,56,22800,238
58,47,22800,238
70,78,23040,240
58,66,23040,240
82,81,23520,240
70,69,23520,240
82,78,24000,720
94,93,24000,720
70,55,24720,960
82,65,24720,960
67,62,25680,240
79,62,25680,240
64,55,25920,240
76,65,25920,240
77,57,26160,240
65,48,26160,240
72,57,26400,240
60,48,26400,240
63,47,26640,240
75,56,26640,240
74,56,26880,120
62,56,26880,120
70,49,27000,120
69,51,27120,120
70,53,27240,120
72,55,27360,120
69,46,27360,120
70,48,27480,120
74,57,27480,120
72,50,27600,120
75,59,27600,120
74,51,27720,120
77,61,27720,120
75,53,27840,480
79,63,27840,480
84,62,28320,120
80,52,28320,120
82,59,28440,120
79,50,28440,120
77,47,28560,120
80,56,28560,120
79,53,28680,120
75,45,28680,120
77,61,28800,240
74,51,28800,240
96,68,29280,120
92,57,29280,120
94,64,29400,120
91,55,29400,120
89,51,29520,120
92,61,29520,120
91,58,29640,120
87,49,29640,120
89,67,29760,240
86,56,29760,240
84,68,30000,120
74,57,30000,120
82,67,30120,120
75,56,30120,120
71,56,30240,120
80,67,30240,120
79,66,30360,120
72,56,30360,120
67,55,30480,90
77,64,30480,90
75,53,30600,90
78,63,30600,90
79,61,30720,90
74,51,30720,90
74,55,30840,90
78,55,30840,90
81,64,30840,90
74,57,30960,90
79,57,30960,90
83,68,30960,90
74,60,31080,90
83,71,31080,90
79,60,31080,90
75,63,31200,90
79,63,31200,90
84,75,31200,90
77,67,31320,90
83,67,31320,90
86,79,31320,90
79,69,31440,90
84,69,31440,90
87,82,31440,90
88,85,31560,90
84,72,31560,90
79,72,31560,90
88,89,31680,120
84,74,31680,120
79,74,31680,120
89,92,32160,120
77,92,32160,120
84,92,32160,120
70,65,32640,1200
75,84,32640,720
77,85,33360,120
78,93,33600,960
70,61,33840,120
69,52,33960,120
70,61,34080,120
69,54,34200,120
70,61,34320,120
69,54,34440,120
70,65,34560,1200
75,84,34560,720
77,85,35280,120
79,93,35520,960
70,61,35760,120
69,52,35880,120
70,61,36000,120
69,54,36120,120
70,61,36240,120
69,54,36360,120
78,70,36480,240
70,51,36720,120
69,44,36840,120
70,51,36960,120
69,43,37080,120
70,51,37200,120
69,45,37320,120
77,70,37440,240
72,51,37680,120
71,44,37800,120
72,51,37920,120
71,43,38040,120
72,51,38160,120
71,45,38280,120
77,70,38400,120
74,51,38640,120
72,44,38760,120
77,70,38880,120
72,51,39120,120
70,44,39240,120
77,70,39360,120
70,51,39600,120
69,44,39720,120
77,70,39840,120
72,51,40080,120
70,44,40200,120
78,70,40320,240
70,51,40560,120
69,44,40680,120
70,51,40800,120
69,43,40920,120
70,51,41040,120
69,45,41160,120
77,70,41280,240
72,51,41520,120
71,44,41640,120
72,51,41760,120
71,43,41880,120
72,51,42000,120
71,45,42120,120
77,70,42240,120
74,51,42480,120
72,44,42600,120
77,70,42720,120
72,51,42960,120
71,44,43080,120
77,70,43200,120
74,51,43440,120
72,44,43560,120
77,64,43680,240
72,59,43920,480
75,70,43920,480
65,45,44160,480
74,65,44400,240
70,55,44400,240
72,65,44640,240
69,55,44640,240
84,59,44880,480
87,70,44880,480
77,45,45120,480
82,55,45360,240
86,65,45360,240
84,65,45600,240
81,55,45600,240
91,77,45840,480
84,64,45840,240
81,64,45840,240
77,65,46080,240
82,65,46080,240
77,63,46320,240
89,75,46320,240
82,63,46320,240
79,69,46560,240
82,69,46560,240
87,79,46800,240
84,67,46800,240
81,67,46800,240
86,88,47040,960
77,49,47160,120
79,55,47280,120
77,50,47400,120
79,55,47520,120
77,47,47640,120
79,55,47760,120
77,48,47880,120
84,80,48000,960
75,46,48120,120
77,54,48240,120
75,50,48360,120
77,53,48480,120
75,47,48600,120
77,53,48720,120
75,48,48840,120
82,70,48960,480
74,53,48960,120
70,48,49080,120
72,53,49200,120
70,48,49320,120
79,68,49440,240
70,48,49560,120
77,60,49680,240
70,48,49800,120
77,68,49920,240
70,53,49920,120
65,48,50040,120
69,53,50160,120
75,58,50160,240
65,48,50280,120
70,53,50400,120
74,66,50400,240
65,48,50520,120
72,57,50640,240
65,48,50760,120
74,79,50880,960
65,44,51000,120
67,49,51120,120
65,45,51240,120
67,49,51360,120
65,42,51480,120
67,49,51600,120
65,43,51720,120
72,72,51840,960
63,41,51960,120
65,48,52080,120
63,45,52200,120
65,47,52320,120
63,42,52440,120
65,47,52560,120
63,43,52680,120
70,63,52800,480
62,47,52800,120
58,43,52920,120
60,47,53040,120
58,43,53160,120
67,61,53280,240
58,43,53400,120
65,54,53520,240
58,43,53640,120
58,47,53760,120
65,61,53760,240
53,43,53880,120
63,52,54000,240
57,47,54000,120
53,43,54120,120
58,47,54240,120
62,59,54240,240
53,43,54360,120
60,51,54480,240
53,43,54600,120
58,57,54720,600
54,46,54840,360
50,55,54960,240
53,47,55330,120
50,47,55440,120
58,47,55560,240
58,47,55800,120
57,51,55920,120
58,49,56040,120
60,52,56160,120
62,44,56280,120
63,51,56400,120
60,47,56520,120
70,57,56640,600
66,46,56760,360
62,55,56880,240
65,47,57250,120
62,47,57360,120
70,47,57480,240
65,47,57600,480
70,47,57720,120
69,51,57840,120
70,49,57960,120
72,52,58080,120
74,44,58200,120
75,51,58320,120
72,47,58440,120
74,51,58560,120
72,42,58680,120
70,49,58800,360
67,41,59160,120
65,48,59280,360
63,42,59640,120
62,48,59760,360
60,42,60120,120
58,47,60240,360
55,41,60600,120
53,47,60720,360
51,38,61080,120
50,43,61200,360
48,37,61560,120
46,44,61680,360
48,36,62040,120
46,41,62160,480
70,45,64320,960
77,53,64320,960
70,43,65280,960
79,51,65280,960
80,77,66240,720
68,64,66240,720
67,59,66960,240
74,70,66960,120
79,67,67080,60
79,70,67200,240
67,59,67200,240
72,70,67440,120
65,59,67440,240
77,67,67560,60
77,70,67680,240
65,59,67680,240
63,59,67920,240
70,70,67920,120
75,67,68040,60
63,59,68160,480
70,59,68160,720
68,59,68160,720
75,70,68160,480
74,59,68640,240
62,50,68640,240
75,59,68880,240
70,50,68880,240
63,50,68880,240
70,48,69120,240
65,48,69120,240
77,57,69120,240
70,51,69360,240
79,60,69360,240
67,51,69360,240
68,54,69600,240
70,54,69600,240
80,64,69600,240
70,57,69840,240
82,68,69840,240
70,66,70080,240
82,78,70080,240
67,66,70080,240
82,81,70560,240
70,69,70560,240
82,78,71040,720
94,93,71040,720
82,65,71760,960
70,55,71760,960
67,62,72720,240
79,62,72720,240
77,65,72960,240
65,55,72960,240
74,57,73200,240
62,48,73200,240
71,57,73440,240
59,48,73440,240
58,47,73680,240
70,56,73680,240
58,66,73920,240
70,78,73920,240
82,81,74400,240
70,69,74400,240
82,78,74880,720
94,93,74880,720
82,65,75600,960
70,55,75600,960
79,62,76560,240
67,62,76560,240
64,55,76800,240
76,65,76800,240
65,48,77040,240
77,57,77040,240
72,57,77280,240
60,48,77280,240
63,47,77520,240
75,56,77520,240
62,56,77760,120
74,56,77760,120
70,49,77880,120
69,51,78000,120
70,53,78120,120
72,55,78240,120
69,46,78240,120
74,57,78360,120
70,48,78360,120
72,50,78480,120
75,59,78480,120
77,61,78600,120
74,51,78600,120
79,63,78720,480
75,53,78720,480
84,62,79200,120
80,52,79200,120
79,50,79320,120
82,59,79320,120
77,47,79440,120
80,56,79440,120
75,45,79560,120
79,53,79560,120
77,61,79680,240
74,51,79680,240
96,68,80160,120
92,57,80160,120
94,64,80280,120
91,55,80280,120
89,51,80400,120
92,61,80400,120
87,49,80520,120
91,58,80520,120
89,67,80640,240
86,56,80640,240
84,68,80880,120
74,57,80880,120
75,56,81000,120
82,67,81000,120
80,67,81120,120
71,56,81120,120
79,66,81240,120
72,56,81240,120
67,55,81360,90
77,64,81360,90
75,53,81480,90
78,63,81480,90
79,61,81600,90
74,51,81600,90
81,64,81720,90
74,55,81720,90
78,55,81720,90
74,57,81840,90
79,57,81840,90
83,68,81840,90
83,71,81960,90
74,60,81960,90
79,60,81960,90
84,75,82080,90
79,63,82080,90
75,63,82080,90
77,67,82200,90
86,79,82200,90
83,67,82200,90
84,69,82320,90
87,82,82320,90
79,69,82320,90
79,72,82440,90
84,72,82440,90
88,85,82440,90
88,89,82560,120
79,74,82560,120
84,74,82560,120
84,92,83040,120
77,92,83040,120
89,92,83040,120
75,84,83520,720
70,65,83520,1200
77,85,84240,120
78,93,84480,960
70,61,84720,120
69,52,84840,120
70,61,84960,120
69,54,85080,120
70,61,85200,120
69,54,85320,120
75,84,85440,720
70,65,85440,1200
77,85,86160,120
79,93,86400,960
70,61,86640,120
69,52,86760,120
70,61,86880,120
69,54,87000,120
70,61,87120,120
69,54,87240,120
78,70,87360,240
70,51,87600,120
69,44,87720,120
70,51,87840,120
69,43,87960,120
70,51,88080,120
69,45,88200,120
77,70,88320,240
72,51,88560,120
71,44,88680,120
72,51,88800,120
71,43,88920,120
72,51,89040,120
71,45,89160,120
77,70,89280,120
74,51,89520,120
72,44,89640,120
77,70,89760,120
72,51,90000,120
70,44,90120,120
77,70,90240,120
70,51,90480,120
69,44,90600,120
77,70,90720,120
72,51,90960,120
70,44,91080,120
78,70,91200,240
70,51,91440,120
69,44,91560,120
70,51,91680,120
69,43,91800,120
70,51,91920,120
69,45,92040,120
77,70,92160,240
72,51,92400,120
71,44,92520,120
72,51,92640,120
71,43,92760,120
72,51,92880,120
71,45,93000,120
77,70,93120,120
74,51,93360,120
72,44,93480,120
77,70,93600,120
72,51,93840,120
71,44,93960,120
77,70,94080,120
74,51,94320,120
72,44,94440,120
77,64,94560,240
72,59,94800,480
75,70,94800,480
65,45,95040,480
74,65,95280,240
70,55,95280,240
72,65,95520,240
69,55,95520,240
84,59,95760,480
87,70,95760,480
77,45,96000,480
86,65,96240,240
82,55,96240,240
81,55,96480,240
84,65,96480,240
81,64,96720,240
84,64,96720,240
91,77,96720,480
82,65,96960,240
77,65,96960,240
82,63,97200,240
77,63,97200,240
89,75,97200,240
82,69,97440,240
79,69,97440,240
87,79,97680,240
81,67,97680,240
84,67,97680,240
86,88,97920,960
77,49,98040,120
79,55,98160,120
77,50,98280,120
79,55,98400,120
77,47,98520,120
79,55,98640,120
77,48,98760,120
84,80,98880,960
75,46,99000,120
77,54,99120,120
75,50,99240,120
77,53,99360,120
75,47,99480,120
77,53,99600,120
75,48,99720,120
74,53,99840,120
82,70,99840,480
70,48,99960,120
72,53,100080,120
70,48,100200,120
79,68,100320,240
70,48,100440,120
77,60,100560,240
70,48,100680,120
70,53,100800,120
77,68,100800,240
65,48,100920,120
69,53,101040,120
75,58,101040,240
65,48,101160,120
74,66,101280,240
70,53,101280,120
65,48,101400,120
72,57,101520,240
65,48,101640,120
74,79,101760,960
65,44,101880,120
67,49,102000,120
65,45,102120,120
67,49,102240,120
65,42,102360,120
67,49,102480,120
65,43,102600,120
72,72,102720,960
63,41,102840,120
65,48,102960,120
63,45,103080,120
65,47,103200,120
63,42,103320,120
65,47,103440,120
63,43,103560,120
70,63,103680,480
62,47,103680,120
58,43,103800,120
60,47,103920,120
58,43,104040,120
67,61,104160,240
58,43,104280,120
65,54,104400,240
58,43,104520,120
58,47,104640,120
65,61,104640,240
53,43,104760,120
57,47,104880,120
63,52,104880,240
53,43,105000,120
62,59,105120,240
58,47,105120,120
53,43,105240,120
60,51,105360,240
53,43,105480,120
58,57,105600,600
54,46,105720,360
50,55,105840,240
53,47,106210,120
50,47,106320,120
58,47,106440,240
58,47,106680,120
57,51,106800,120
58,49,106920,120
60,52,107040,120
62,44,107160,120
63,51,107280,120
60,47,107400,120
70,57,107520,600
66,46,107640,360
62,55,107760,240
65,47,108130,120
62,47,108240,120
70,47,108360,240
65,47,108480,480
70,47,108600,120
69,51,108720,120
70,49,108840,120
72,52,108960,120
74,44,109080,120
75,51,109200,120
72,47,109320,120
74,51,109440,120
72,42,109560,120
70,49,109680,360
67,41,110040,120
65,48,110160,360
63,42,110520,120
62,48,110640,360
60,42,111000,120
58,47,111120,360
55,41,111480,120
53,47,111600,360
51,38,111960,120
50,43,112080,360
48,37,112440,120
46,44,112560,360
48,36,112920,120
46,41,113040,480
70,45,115200,960
77,53,115200,960
80,51,116160,960
68,43,116160,960
67,73,117120,720
79,88,117120,720
74,79,117840,120
79,76,117960,60
79,79,118080,240
67,66,118080,240
72,78,118320,120
77,74,118440,60
65,65,118560,240
77,77,118560,240
72,77,118800,120
75,73,118920,60
63,63,119040,240
75,75,119040,240
69,74,119280,120
74,71,119400,60
62,62,119520,240
74,74,119520,240
67,62,119520,240
72,64,119760,240
79,64,119760,120
84,57,119880,60
65,45,120000,960
63,45,120960,960
66,38,121920,1680
69,38,121920,1680
75,45,121920,1680
70,45,123600,120
73,45,123600,120
65,45,123600,120
73,55,123840,960
72,50,124800,960
74,45,125760,1920
72,45,125760,1920
81,45,125760,1920
78,45,125760,1920
72,55,127680,960
71,50,128640,960
71,45,129600,1920
75,45,129600,1920
81,45,129600,1920
78,45,129600,1920
71,55,131520,960
70,50,132480,960
74,45,133440,1200
77,45,133440,1200
70,45,133440,1200
80,45,133440,1200
82,62,134640,240
83,69,134880,240
82,62,135120,240
74,45,135360,1200
70,45,135360,1200
77,45,135360,1200
80,45,135360,1200
82,62,136560,240
77,52,136560,240
78,58,136800,240
83,69,136800,240
82,62,137040,240
77,52,137040,240
79,64,137280,720
82,64,137280,720
75,64,137280,720
87,77,137280,720
77,45,138000,240
80,62,138000,120
85,52,138120,60
78,51,138240,240
85,61,138240,240
77,51,138480,120
71,51,138480,240
83,51,138600,60
83,55,138720,240
80,46,138720,240
71,46,138720,240
66,47,138960,240
82,47,138960,240
78,47,138960,240
80,50,139200,240
68,42,139200,240
66,38,139440,240
78,45,139440,240
77,50,139680,240
65,42,139680,240
66,39,139920,240
78,47,139920,240
71,38,140160,960
68,38,140160,960
80,45,140160,960
80,45,141120,960
71,38,141120,960
68,38,141120,960
67,38,142080,960
72,38,142080,960
79,45,142080,960
77,44,143040,960
65,37,143040,960
67,37,143040,960
71,37,143040,960
63,36,144000,960
75,42,144000,960
67,36,144000,960
72,36,144000,960
74,41,144960,960
71,35,144960,960
65,35,144960,960
68,35,144964,956
67,34,145920,960
63,34,145920,960
72,40,145920,960
65,33,146880,960
62,33,146880,960
59,33,146880,960
68,39,146880,960
60,32,147840,898
63,32,147840,960
67,38,147840,960
68,37,148800,960
63,31,148800,960
60,31,148800,898
63,30,149760,960
68,36,149760,960
62,30,150720,960
68,36,150720,960
68,36,151680,960
63,30,151680,960
63,30,152640,960
68,36,152640,960
63,30,153600,720
68,36,153600,720
56,50,154320,120
68,52,154440,120
56,55,154560,120
68,56,154680,108
68,59,154800,120
80,61,154920,120
68,64,155040,120
80,66,155160,120
68,69,155280,120
80,71,155400,108
80,84,155520,720
68,68,155520,720
67,59,156240,240
74,70,156240,120
79,67,156360,60
79,70,156480,240
67,59,156480,240
72,70,156720,120
65,59,156720,240
77,67,156840,60
77,70,156960,240
65,59,156960,240
63,59,157200,240
70,70,157200,120
75,67,157320,60
70,59,157440,720
63,59,157440,480
75,70,157440,480
68,59,157440,720
74,59,157920,240
62,50,157920,240
75,59,158160,240
70,50,158160,240
63,50,158160,240
65,48,158400,240
70,48,158400,240
77,57,158400,240
70,51,158640,240
67,51,158640,240
79,60,158640,240
68,54,158880,240
80,64,158880,240
70,54,158880,240
82,68,159120,240
70,57,159120,240
67,66,159360,240
82,78,159360,240
70,66,159360,240
82,81,159840,240
70,69,159840,240
94,93,160320,720
82,78,160320,720
82,65,161040,960
70,55,161040,960
79,62,162000,240
67,62,162000,240
65,55,162240,240
77,65,162240,240
62,48,162480,240
74,57,162480,240
71,57,162720,240
59,48,162720,240
58,47,162960,240
70,56,162960,240
70,78,163200,240
58,66,163200,240
82,81,163680,240
70,69,163680,240
94,93,164160,720
82,78,164160,720
82,65,164880,960
70,55,164880,960
79,62,165840,240
67,62,165840,240
64,55,166080,240
76,65,166080,240
77,57,166320,240
65,48,166320,240
60,48,166560,240
72,57,166560,240
63,47,166800,240
75,56,166800,240
74,56,167040,120
62,56,167040,120
70,49,167160,120
69,51,167280,120
70,53,167400,120
72,55,167520,120
69,46,167520,120
74,57,167640,120
70,48,167640,120
75,59,167760,120
72,50,167760,120
74,51,167880,120
77,61,167880,120
79,63,168000,480
75,53,168000,480
80,52,168480,120
84,62,168480,120
82,59,168600,120
79,50,168600,120
77,47,168720,120
80,56,168720,120
75,45,168840,120
79,53,168840,120
77,67,168960,240
74,56,168960,240
80,68,169200,120
71,57,169200,120
72,56,169320,120
79,67,169320,120
67,56,169440,120
77,67,169440,120
78,66,169560,120
75,56,169560,120
74,55,169680,90
79,64,169680,90
77,53,169800,90
74,53,169800,90
81,63,169800,90
79,51,169920,90
74,51,169920,90
83,61,169920,90
79,55,170040,90
74,55,170040,90
83,64,170040,90
75,57,170160,90
79,57,170160,90
84,68,170160,90
77,60,170280,90
86,71,170280,90
83,60,170280,90
87,75,170400,90
84,63,170400,90
79,63,170400,90
79,67,170520,90
88,79,170520,90
84,67,170520,90
89,82,170640,90
84,69,170640,90
77,69,170640,90
89,85,170760,90
84,72,170760,90
77,72,170760,90
82,81,170880,120
86,93,170880,120
77,77,170880,120
87,92,171360,120
82,92,171360,120
75,92,171360,120
68,84,171840,720
63,65,171840,1200
70,85,172560,120
71,93,172800,960
63,61,173040,120
62,52,173160,120
63,61,173280,120
62,54,173400,120
63,61,173520,120
62,54,173640,120
68,84,173760,720
63,65,173760,1200
70,85,174480,120
72,93,174720,960
63,61,174960,120
62,52,175080,120
63,61,175200,120
62,54,175320,120
63,61,175440,120
62,54,175560,120
71,70,175680,240
63,51,175920,120
62,44,176040,120
63,51,176160,120
62,43,176280,120
63,51,176400,120
62,45,176520,120
70,70,176640,240
65,51,176880,120
64,44,177000,120
65,51,177120,120
64,43,177240,120
65,51,177360,120
64,45,177480,120
70,70,177600,120
67,51,177840,120
65,44,177960,120
70,70,178080,120
65,51,178320,120
63,44,178440,120
70,70,178560,120
63,51,178800,120
62,44,178920,120
70,70,179040,120
65,51,179280,120
63,44,179400,120
83,70,179520,240
75,51,179760,120
74,44,179880,120
75,51,180000,120
74,43,180120,120
75,51,180240,120
74,45,180360,120
82,70,180480,240
77,51,180720,120
76,44,180840,120
77,51,180960,120
76,43,181080,120
77,51,181200,120
76,45,181320,120
82,70,181440,120
79,51,181680,120
77,44,181800,120
82,70,181920,120
77,51,182160,120
76,44,182280,120
82,70,182400,120
79,51,182640,120
77,44,182760,120
82,64,182880,240
80,70,183120,480
77,59,183120,480
70,45,183360,480
79,65,183600,240
75,55,183600,240
77,65,183840,240
74,55,183840,240
89,59,184080,480
92,70,184080,480
82,45,184320,480
87,55,184560,240
91,65,184560,240
89,65,184800,240
86,55,184800,240
86,64,185040,240
89,64,185040,240
96,77,185040,480
87,65,185280,240
82,65,185280,240
94,75,185520,240
87,63,185520,240
82,63,185520,240
87,69,185760,240
84,69,185760,240
92,79,186000,240
89,67,186000,240
86,67,186000,240
79,70,186240,960
91,88,186240,960
82,49,186360,120
84,55,186480,120
82,50,186600,120
84,55,186720,120
82,47,186840,120
84,55,186960,120
82,48,187080,120
77,70,187200,960
89,80,187200,960
80,46,187320,120
82,54,187440,120
80,50,187560,120
82,53,187680,120
80,47,187800,120
82,53,187920,120
80,48,188040,120
87,70,188160,480
79,53,188160,120
75,48,188280,120
77,53,188400,120
75,48,188520,120
84,68,188640,240
75,48,188760,120
82,60,188880,240
75,48,189000,120
82,68,189120,240
75,53,189120,120
70,48,189240,120
74,53,189360,120
80,58,189360,240
70,48,189480,120
75,53,189600,120
79,66,189600,240
70,48,189720,120
68,53,189840,120
77,57,189840,240
70,48,189960,120
67,65,190080,960
79,79,190080,960
70,44,190200,120
72,49,190320,120
70,45,190440,120
72,49,190560,120
70,42,190680,120
72,49,190800,120
70,43,190920,120
65,65,191040,960
77,72,191040,960
68,41,191160,120
70,48,191280,120
68,45,191400,120
70,47,191520,120
68,42,191640,120
70,47,191760,120
68,43,191880,120
67,47,192000,120
75,63,192000,480
63,43,192120,120
65,47,192240,120
63,43,192360,120
72,61,192480,240
60,47,192480,120
68,51,192480,240
63,43,192600,120
67,45,192720,240
58,47,192720,120
70,54,192720,240
63,43,192840,120
67,47,192960,120
70,61,192960,240
58,43,193080,120
68,52,193200,240
65,47,193200,120
56,43,193320,120
67,59,193440,240
63,47,193440,120
55,43,193560,120
65,51,193680,240
62,51,193680,240
53,43,193800,120
63,57,193920,600
59,46,194040,360
55,55,194160,240
58,47,194530,120
55,47,194640,120
63,47,194760,240
58,47,194880,480
63,47,195000,120
62,51,195120,120
63,49,195240,120
65,52,195360,120
67,44,195480,120
68,51,195600,120
65,47,195720,120
75,57,195840,600
71,46,195960,360
67,55,196080,240
70,47,196450,120
67,47,196560,120
75,47,196680,240
70,47,196800,480
75,47,196920,120
74,51,197040,120
75,49,197160,120
77,52,197280,120
79,44,197400,120
80,51,197520,120
77,47,197640,120
79,51,197760,120
77,42,197880,120
75,49,198000,360
72,41,198360,120
70,48,198480,360
68,42,198840,120
67,48,198960,360
65,42,199320,120
63,47,199440,360
60,41,199800,120
58,47,199920,360
56,38,200280,120
55,43,200400,360
53,37,200760,120
51,44,200880,360
53,36,201240,120
51,41,201360,480
75,45,203520,960
82,53,203520,960
85,55,204480,960
73,46,204480,960
84,84,205440,720
72,70,205440,720
72,59,206160,120
77,70,206160,120
73,56,206280,60
82,67,206280,60
82,70,206400,240
73,59,206400,240
70,59,206640,120
75,70,206640,120
72,56,206760,60
80,67,206760,60
80,70,206880,240
72,59,206880,240
68,59,207120,120
73,70,207120,120
79,67,207240,60
70,56,207240,60
79,70,207360,240
70,59,207360,240
72,70,207600,120
67,59,207600,120
68,56,207720,60
77,67,207720,60
68,59,207840,238
77,70,207840,238
77,70,208080,238
65,59,208080,238
77,70,208320,480
65,59,208320,480
64,50,208800,240
76,59,208800,240
72,50,209040,240
65,50,209040,240
77,59,209040,240
72,48,209280,240
67,48,209280,240
79,57,209280,240
80,60,209520,240
72,51,209520,240
68,51,209520,240
70,54,209760,240
72,54,209760,240
82,64,209760,240
67,57,210000,240
72,57,210000,240
76,57,210000,240
79,68,210000,240
77,66,210240,240
68,66,210240,240
80,78,210240,240
72,66,210240,240
72,75,210720,240
84,89,210720,240
96,102,211200,720
84,85,211200,720
84,65,211920,960
72,55,211920,960
80,62,212880,240
68,62,212880,240
67,55,213120,240
79,65,213120,240
76,57,213360,240
64,48,213360,240
61,48,213600,240
73,57,213600,240
72,56,213840,238
60,47,213840,238
60,66,214080,240
72,78,214080,240
72,75,214560,240
84,89,214560,240
84,85,215040,720
96,102,215040,720
84,65,215760,960
72,55,215760,960
68,62,216720,240
80,62,216720,240
77,65,216960,240
65,55,216960,240
74,57,217200,240
62,48,217200,240
71,57,217440,240
59,48,217440,240
70,56,217680,240
58,47,217680,240
70,78,217920,240
58,66,217920,240
70,75,218400,240
82,89,218400,240
94,102,218880,720
82,85,218880,720
82,65,219600,960
70,55,219600,960
66,62,220560,240
78,62,220560,240
65,55,220800,240
77,65,220800,240
74,57,221040,240
62,48,221040,240
59,48,221280,240
71,57,221280,240
70,56,221520,238
58,47,221520,238
70,78,221760,240
58,66,221760,240
82,89,222240,240
70,75,222240,240
82,78,222720,240
94,90,222720,240
83,86,223200,240
95,103,223200,240
71,55,223680,960
70,50,224640,960
68,48,225600,240
72,55,227520,960
70,50,228480,960
69,48,229440,240
77,55,231360,960
75,50,232320,960
74,48,233280,240
70,51,235200,960
82,60,235200,960
68,52,236160,960
80,61,236160,960
67,59,237120,1440
79,70,237120,1440
68,38,238560,240
80,45,238560,240
65,34,238800,240
77,40,238800,240
75,39,239040,960
79,47,239040,960
70,40,240000,960
77,48,240000,960
67,40,240960,480
75,48,240960,480
68,35,241440,240
72,42,241440,240
70,41,241680,238
67,34,241680,238
67,39,241920,240
70,46,241920,240
65,34,242160,240
68,40,242160,240
63,34,242400,240
67,40,242400,240
58,34,242640,240
65,40,242640,240
63,42,242880,120
58,36,243000,120
60,36,243120,120
58,36,243240,120
57,42,243360,120
58,36,243480,120
67,36,243600,120
63,36,243720,120
62,42,243840,120
63,36,243960,120
65,36,244080,120
67,36,244200,120
68,42,244320,120
69,37,244440,120
72,37,244560,120
70,37,244680,120
69,42,244800,120
70,35,244920,120
72,35,245040,120
70,35,245160,120
69,42,245280,120
70,35,245400,120
79,35,245520,120
75,35,245640,120
74,47,245760,120
75,40,245880,120
77,40,246000,120
79,40,246120,120
80,48,246240,120
81,39,246360,120
84,39,246480,120
82,39,246600,120
81,46,246720,120
82,38,246840,120
84,39,246960,120
82,39,247080,120
81,48,247200,120
82,40,247320,120
91,41,247440,120
87,41,247560,120
86,57,247680,120
87,50,247800,120
89,50,247920,120
91,51,248040,120
92,61,248160,120
93,50,248280,120
96,50,248400,120
94,51,248520,120
93,63,248640,120
94,54,248760,120
92,53,248880,120
91,53,249000,120
89,60,249120,120
87,51,249240,120
86,51,249360,120
84,50,249480,120
82,59,249600,120
80,45,249720,120
79,45,249840,120
77,45,249960,120
75,52,250080,120
74,47,250200,120
77,43,250320,120
80,41,250440,120
75,39,250560,960
79,47,250560,960
70,40,251520,960
77,48,251520,960
67,40,252480,480
75,48,252480,480
68,35,252960,240
72,42,252960,240
70,41,253200,238
67,34,253200,238
67,39,253440,240
70,46,253440,240
65,34,253680,240
68,40,253680,240
63,34,253920,240
67,40,253920,240
58,34,254160,240
65,40,254160,240
63,42,254400,120
58,36,254520,120
60,36,254640,120
58,36,254760,120
57,42,254880,120
58,36,255000,120
67,36,255120,120
63,36,255240,120
62,42,255360,120
63,36,255480,120
65,36,255600,120
67,36,255720,120
68,42,255840,120
69,37,255960,120
72,37,256080,120
70,37,256200,120
69,42,256320,120
70,35,256440,120
72,35,256560,120
70,35,256680,120
69,42,256800,120
70,37,256920,120
79,37,257040,120
75,37,257160,120
74,51,257280,120
75,42,257400,120
77,42,257520,120
79,42,257640,120
80,51,257760,120
81,43,257880,120
84,42,258000,120
82,42,258120,120
81,53,258240,120
82,44,258360,120
84,45,258480,120
82,46,258600,120
81,54,258720,120
82,45,258840,120
91,47,258960,120
87,47,259080,120
86,57,259200,120
87,50,259320,120
89,50,259440,120
91,51,259560,120
92,65,259680,120
93,52,259800,120
96,54,259920,120
94,51,260040,118
94,73,260160,120
70,47,260280,120
72,47,260400,120
70,47,260520,120
69,56,260640,120
70,41,260760,120
79,42,260880,120
75,44,261000,120
74,59,261120,120
75,48,261240,120
77,45,261360,120
79,42,261480,120
80,54,261600,120
81,41,261720,120
84,41,261840,120
82,41,261960,120
82,60,262080,120
58,39,262200,120
60,36,262320,120
58,36,262440,120
57,45,262560,120
58,34,262680,120
67,34,262800,120
63,37,262920,120
57,50,263040,120
58,37,263160,120
68,35,263280,120
65,35,263400,120
62,45,263520,120
72,39,263640,120
70,39,263760,120
62,39,263880,120
63,55,264000,960
58,50,264960,960
55,48,265920,240
63,46,267840,960
67,55,267840,960
65,50,268800,960
58,42,268800,960
63,48,269760,240
55,40,269760,240
63,31,271440,240
67,39,271440,240
58,42,271680,960
65,52,271680,960
55,37,272640,240
63,46,272640,240
75,31,273360,240
79,39,273360,240
70,44,273600,960
77,46,273600,960
67,33,274560,240
75,39,274560,240
87,37,275280,240
91,45,275280,240
87,41,275760,240
91,49,275760,240
82,45,276000,240
89,53,276000,240
87,50,276240,238
79,42,276240,238
79,41,276480,238
87,49,276480,240
63,38,277680,240
67,45,277680,240
58,41,277920,240
65,49,277920,240
63,46,278160,238
55,39,278160,238
55,38,278400,238
63,45,278400,240
53,43,279360,478
58,51,279360,720
51,46,280080,120
55,55,280080,120
53,48,280320,478
58,57,280320,720
51,52,281040,120
55,62,281040,120
53,53,281280,478
58,63,281280,720
51,56,282000,120
55,67,282000,120
50,59,282240,720
53,59,282240,720
58,70,282240,720
62,75,282960,120
53,63,282960,120
56,63,282960,120
55,41,283200,240
63,41,283200,240
63,41,285120,120
65,35,285240,120
63,35,285360,120
62,35,285480,120
63,41,285600,120
65,37,285720,120
67,37,285840,120
68,37,285960,120
70,46,286080,120
72,40,286200,120
74,41,286320,120
75,43,286440,120
77,44,286560,120
79,45,286680,120
80,47,286800,120
82,48,286920,120
84,55,287040,160
86,48,287200,160
87,49,287360,160
89,51,287520,120
91,54,287640,120
92,58,287760,120
94,61,287880,120
96,64,288000,480
94,52,288480,240
87,57,288960,120
89,42,289080,120
87,43,289200,120
86,45,289320,120
87,47,289440,96
89,48,289536,96
91,49,289632,96
92,51,289728,96
94,52,289824,96
96,62,289920,480
94,48,290400,240
87,65,290880,120
89,50,291000,120
87,54,291120,120
86,58,291240,120
87,62,291360,96
89,64,291456,96
91,67,291552,96
92,71,291648,96
94,74,291744,96
84,77,291840,960
96,77,291840,960
82,68,292800,240
94,68,292800,240
53,79,293760,120
56,79,293760,120
58,79,293760,120
62,93,293760,120
55,79,294720,120
58,79,294720,120
63,93,294720,120
36,27,960,720
48,32,960,720
48,27,1680,240
51,32,1680,240
46,28,1920,238
52,33,1920,238
46,28,2160,238
52,34,2160,238
45,30,2400,240
53,36,2400,240
54,38,2640,240
44,32,2640,240
55,40,2880,240
43,34,2880,720
57,26,3120,240
59,29,3360,240
67,44,3840,240
55,44,3840,720
69,37,4080,240
71,33,4320,240
70,33,4560,240
67,24,4560,240
68,45,4800,240
65,45,4800,240
70,53,4800,720
63,39,5040,240
67,46,5040,240
62,43,5280,240
65,51,5280,240
62,46,5520,240
58,39,5520,240
46,32,6240,480
34,27,6240,480
35,27,6720,720
47,32,6720,720
47,27,7440,240
54,32,7440,240
54,33,7680,238
49,28,7680,238
54,34,7920,238
49,28,7920,238
47,30,8160,238
54,36,8160,238
46,32,8400,240
54,38,8400,480
45,40,8640,480
53,34,8880,240
53,30,9120,240
46,25,9120,240
44,32,9360,240
52,38,9360,480
43,40,9600,480
51,34,9840,240
51,30,10080,240
44,25,10080,240
54,31,10320,240
42,26,10320,240
46,26,10320,240
41,27,10560,240
46,27,10560,240
53,32,10560,240
46,34,11160,119
53,40,11160,119
41,28,11160,119
39,28,11280,119
46,34,11280,119
51,40,11280,119
46,28,11400,119
39,23,11400,119
51,34,11400,119
46,39,11520,240
50,47,11520,240
38,33,11520,240
65,34,12120,119
68,40,12120,119
66,40,12240,119
63,34,12240,119
66,34,12360,119
63,28,12360,119
62,39,12480,240
65,47,12480,240
65,44,13080,119
62,37,13080,119
63,46,13200,119
61,39,13200,119
59,33,13320,119
63,40,13320,119
59,39,13440,240
63,47,13440,240
62,37,14040,119
65,44,14040,119
61,39,14160,119
63,46,14160,119
60,33,14280,119
63,40,14280,119
60,31,14640,240
63,37,14640,240
63,37,15120,240
60,31,15120,240
63,77,15360,720
60,64,15360,720
62,60,16080,120
59,51,16080,120
61,59,16200,60
58,50,16200,60
58,56,16320,240
61,67,16320,240
57,51,16560,120
60,60,16560,120
56,50,16680,60
59,59,16680,60
56,56,16800,240
59,67,16800,240
58,60,17040,120
55,51,17040,120
54,50,17160,60
57,59,17160,60
56,67,17280,720
53,56,17280,720
55,45,18000,240
51,38,18000,240
50,40,18240,240
53,48,18240,240
48,42,18480,240
51,50,18480,240
46,45,18720,240
50,53,18720,240
53,56,18960,240
46,47,18960,240
50,47,18960,240
39,56,19200,120
46,40,19320,120
55,40,19440,120
46,40,19560,120
39,54,19680,120
46,44,19800,120
55,43,19920,120
46,43,20040,120
41,58,20160,120
46,49,20280,120
56,49,20400,120
46,47,20520,120
41,53,20640,120
46,44,20760,120
56,44,20880,120
46,44,21000,120
43,53,21120,120
46,43,21240,120
58,43,21360,120
46,43,21480,120
43,53,21600,120
46,43,21720,120
58,43,21840,120
46,43,21960,120
44,53,22080,120
46,44,22200,120
56,44,22320,120
46,44,22440,120
34,53,22560,120
46,46,22680,120
53,46,22800,120
46,46,22920,120
39,56,23040,120
46,40,23160,120
55,40,23280,120
46,40,23400,120
39,54,23520,120
46,44,23640,120
55,43,23760,120
46,43,23880,120
41,58,24000,120
46,49,24120,120
56,49,24240,120
46,47,24360,120
41,53,24480,120
46,44,24600,120
56,44,24720,120
46,44,24840,120
43,53,24960,120
51,43,25080,120
58,43,25200,120
51,43,25320,120
43,53,25440,120
51,43,25560,120
58,43,25680,120
51,43,25800,120
44,53,25920,120
51,44,26040,120
60,44,26160,120
51,44,26280,120
45,53,26400,120
53,46,26520,120
60,46,26640,120
53,46,26760,120
46,52,26880,240
58,52,26880,240
63,46,27120,120
62,49,27240,120
60,48,27360,120
58,47,27480,120
57,46,27600,120
56,45,27720,120
55,44,27840,120
53,43,27960,120
51,42,28080,120
50,41,28200,120
51,40,28320,120
53,42,28440,120
55,44,28560,120
56,46,28680,120
58,48,28800,240
60,42,29040,120
62,46,29160,120
63,44,29280,120
65,46,29400,120
67,48,29520,120
68,50,29640,120
70,57,29760,240
68,46,30000,120
67,53,30120,120
65,52,30240,120
63,51,30360,120
62,50,30480,90
60,49,30600,90
59,47,30720,90
57,48,30840,90
55,51,30960,90
53,55,31080,90
51,59,31200,90
50,62,31320,90
48,66,31440,90
46,58,31560,90
48,69,31560,90
48,72,31680,120
46,61,31680,120
48,75,32160,120
45,63,32160,120
42,71,32640,720
48,65,32640,1920
41,71,33360,120
39,80,33600,960
42,71,34560,720
48,65,34560,1920
41,71,35280,120
40,80,35520,960
48,48,36480,240
41,40,36480,240
50,48,37440,240
41,40,37440,240
41,40,38400,240
51,48,38400,240
41,40,38880,240
50,48,38880,240
41,40,39360,240
48,48,39360,240
41,40,39840,240
50,48,39840,240
48,48,40320,240
41,40,40320,240
50,48,41280,240
41,40,41280,240
41,40,42240,240
51,48,42240,240
41,40,42720,240
50,48,42720,240
51,48,43200,240
41,40,43200,240
53,48,43680,240
55,38,43920,120
57,40,44040,120
58,42,44160,120
60,44,44280,120
62,46,44400,120
63,48,44520,120
65,50,44640,240
67,38,44880,120
69,40,45000,120
70,42,45120,120
72,44,45240,120
74,46,45360,120
75,48,45480,120
77,50,45600,240
75,47,45840,240
74,56,46080,240
73,46,46320,240
72,55,46560,240
65,47,46800,240
58,39,47040,960
61,39,47280,480
64,39,47280,480
62,39,47760,240
65,39,47760,240
58,39,48000,960
66,39,48240,480
69,39,48240,480
65,39,48720,240
58,39,48960,960
62,33,49200,240
65,39,49200,240
63,33,49440,240
67,39,49440,240
62,30,49680,240
65,39,49680,240
62,39,49920,240
53,39,49920,960
63,39,50160,240
60,33,50160,240
58,33,50400,240
62,39,50400,240
60,39,50640,240
57,30,50640,240
46,35,50880,960
49,35,51120,480
52,35,51120,480
53,35,51600,240
50,35,51600,240
46,35,51840,960
54,35,52080,480
57,35,52080,480
53,35,52560,240
46,35,52800,960
50,29,53040,240
53,35,53040,240
55,35,53280,240
51,29,53280,240
50,27,53520,240
53,35,53520,240
41,35,53760,960
50,35,53760,240
48,29,54000,240
51,35,54000,240
46,29,54240,240
50,35,54240,240
45,27,54480,240
48,35,54480,240
46,43,54720,360
34,43,54720,360
42,39,55080,120
41,45,55200,240
34,38,55440,240
29,55,55680,240
53,47,55680,480
51,44,55920,120
50,36,56040,120
48,43,56160,120
46,39,56280,120
45,39,56400,120
41,39,56400,120
53,39,56520,120
46,43,56640,360
54,39,57000,120
53,45,57120,240
46,38,57360,240
41,55,57600,240
63,44,57840,120
62,36,57960,120
60,43,58080,120
58,39,58200,120
57,39,58320,120
53,39,58320,120
60,39,58440,120
58,39,58560,360
62,39,58560,360
60,33,58920,120
58,39,59040,360
55,34,59400,120
53,39,59520,360
51,35,59880,120
50,39,60000,360
48,33,60360,120
46,39,60480,360
43,31,60840,120
41,39,60960,360
39,34,61320,120
38,39,61440,360
36,35,61800,120
34,39,61920,360
68,37,62280,120
65,30,62280,120
65,36,62400,960
68,42,62400,960
63,36,63360,960
67,42,63360,960
62,36,64320,960
65,42,64320,960
63,42,65280,960
61,36,65280,960
63,77,66240,720
60,64,66240,720
59,51,66960,120
62,60,66960,120
58,50,67080,60
61,59,67080,60
58,56,67200,240
61,67,67200,240
57,51,67440,120
60,60,67440,120
59,59,67560,60
56,50,67560,60
56,56,67680,240
59,67,67680,240
55,51,67920,120
58,60,67920,120
54,50,68040,60
57,59,68040,60
56,67,68160,720
53,56,68160,720
51,38,68880,240
55,45,68880,240
53,48,69120,240
50,40,69120,240
48,42,69360,240
51,50,69360,240
46,45,69600,240
50,53,69600,240
53,56,69840,240
50,47,69840,240
46,47,69840,240
39,56,70080,120
46,40,70200,120
55,40,70320,120
46,40,70440,120
39,54,70560,120
46,44,70680,120
55,43,70800,120
46,43,70920,120
41,58,71040,120
46,49,71160,120
56,49,71280,120
46,47,71400,120
41,53,71520,120
46,44,71640,120
56,44,71760,120
46,44,71880,120
43,53,72000,120
46,43,72120,120
58,43,72240,120
46,43,72360,120
43,53,72480,120
46,43,72600,120
58,43,72720,120
46,43,72840,120
44,53,72960,120
46,44,73080,120
56,44,73200,120
46,44,73320,120
34,53,73440,120
46,46,73560,120
53,46,73680,120
46,46,73800,120
39,56,73920,120
46,40,74040,120
55,40,74160,120
46,40,74280,120
39,54,74400,120
46,44,74520,120
55,43,74640,120
46,43,74760,120
41,58,74880,120
46,49,75000,120
56,49,75120,120
46,47,75240,120
41,53,75360,120
46,44,75480,120
56,44,75600,120
46,44,75720,120
43,53,75840,120
51,43,75960,120
58,43,76080,120
51,43,76200,120
43,53,76320,120
51,43,76440,120
58,43,76560,120
51,43,76680,120
44,53,76800,120
51,44,76920,120
60,44,77040,120
51,44,77160,120
45,53,77280,120
53,46,77400,120
60,46,77520,120
53,46,77640,120
46,52,77760,240
58,52,77760,240
63,46,78000,120
62,49,78120,120
60,48,78240,120
58,47,78360,120
57,46,78480,120
56,45,78600,120
55,44,78720,120
53,43,78840,120
51,42,78960,120
50,41,79080,120
51,40,79200,120
53,42,79320,120
55,44,79440,120
56,46,79560,120
58,48,79680,240
60,42,79920,120
62,46,80040,120
63,44,80160,120
65,46,80280,120
67,48,80400,120
68,50,80520,120
70,57,80640,240
68,46,80880,120
67,53,81000,120
65,52,81120,120
63,51,81240,120
62,50,81360,90
60,49,81480,90
59,47,81600,90
57,48,81720,90
55,51,81840,90
53,55,81960,90
51,59,82080,90
50,62,82200,90
48,66,82320,90
46,58,82440,90
48,69,82440,90
46,61,82560,120
48,72,82560,120
48,75,83040,120
45,63,83040,120
48,65,83520,1920
42,71,83520,720
41,71,84240,120
39,80,84480,960
48,65,85440,1920
42,71,85440,720
41,71,86160,120
40,80,86400,960
41,40,87360,240
48,48,87360,240
41,40,88320,240
50,48,88320,240
51,48,89280,240
41,40,89280,240
41,40,89760,240
50,48,89760,240
41,40,90240,240
48,48,90240,240
41,40,90720,240
50,48,90720,240
41,40,91200,240
48,48,91200,240
41,40,92160,240
50,48,92160,240
41,40,93120,240
51,48,93120,240
41,40,93600,240
50,48,93600,240
51,48,94080,240
41,40,94080,240
53,48,94567,240
55,38,94800,120
57,40,94920,120
58,42,95040,120
60,44,95160,120
62,46,95280,120
63,48,95400,120
65,50,95520,240
67,38,95760,120
69,40,95880,120
70,42,96000,120
72,44,96120,120
74,46,96240,120
75,48,96360,120
77,50,96480,240
75,47,96720,240
74,56,96960,240
73,46,97200,240
72,55,97440,240
65,47,97680,240
58,39,97920,960
64,39,98160,480
61,39,98160,480
62,39,98640,240
65,39,98640,240
58,39,98880,960
66,39,99120,480
69,39,99120,480
65,39,99600,240
58,39,99840,960
62,33,100080,240
65,39,100080,240
67,39,100320,240
63,33,100320,240
65,39,100560,240
62,30,100560,240
62,39,100800,240
53,39,100800,960
63,39,101040,240
60,33,101040,240
58,33,101280,240
62,39,101280,240
60,39,101520,240
57,30,101520,240
46,35,101760,960
49,35,102000,480
52,35,102000,480
50,35,102480,240
53,35,102480,240
46,35,102720,960
54,35,102960,480
57,35,102960,480
53,35,103440,240
46,35,103680,960
53,35,103920,240
50,29,103920,240
55,35,104160,240
51,29,104160,240
50,27,104400,240
53,35,104400,240
50,35,104640,240
41,35,104640,960
51,35,104880,240
48,29,104880,240
46,29,105120,240
50,35,105120,240
45,27,105360,240
48,35,105360,240
34,43,105600,360
46,43,105600,360
42,39,105960,120
41,45,106080,240
34,38,106320,240
29,55,106560,240
53,47,106560,480
51,44,106800,120
50,36,106920,120
48,43,107040,120
46,39,107160,120
41,39,107280,120
45,39,107280,120
53,39,107400,120
46,43,107520,360
54,39,107880,120
53,45,108000,240
46,38,108240,240
41,55,108480,240
63,44,108720,120
62,36,108840,120
60,43,108960,120
58,39,109080,120
53,39,109200,120
57,39,109200,120
60,39,109320,120
62,39,109440,360
58,39,109440,360
60,33,109800,120
58,39,109920,360
55,34,110280,120
53,39,110400,360
51,35,110760,120
50,39,110880,360
48,33,111240,120
46,39,111360,360
43,31,111720,120
41,39,111840,360
39,34,112200,120
38,39,112320,360
36,35,112680,120
34,39,112800,360
65,30,113160,120
68,37,113160,120
68,42,113280,960
65,36,113280,960
63,36,114240,960
67,42,114240,960
62,36,115200,960
65,42,115200,960
63,42,116160,960
60,36,116160,960
62,77,117120,720
59,64,117120,720
58,51,117840,240
62,60,117840,240
56,56,118080,240
60,67,118080,240
59,67,118560,240
56,56,118560,240
60,62,119040,240
55,52,119040,240
60,49,119280,240
54,41,119280,240
59,61,119520,240
53,51,119520,240
55,51,119520,240
55,34,119760,240
60,41,119760,240
51,34,119760,240
48,50,122160,120
54,41,122280,60
54,48,122400,120
45,47,122640,120
51,37,122760,60
51,48,122880,120
41,48,123120,120
48,39,123240,60
48,48,123360,120
49,45,123600,120
62,50,126000,120
69,41,126120,60
69,48,126240,120
54,47,126480,120
60,37,126600,60
60,48,126720,120
50,48,126960,120
57,39,127080,60
57,48,127200,120
38,48,127440,120
50,39,127560,60
54,50,129840,120
63,41,129960,60
63,48,130080,120
51,47,130320,120
59,37,130440,60
59,48,130560,120
47,48,130800,120
54,39,130920,60
54,48,131040,120
42,48,131280,120
51,39,131400,60
56,50,133680,120
65,41,133800,60
65,48,133920,120
53,47,134160,120
62,37,134280,60
62,48,134400,120
50,40,134640,120
53,48,134640,120
53,33,134760,60
56,39,134760,60
53,40,134880,120
56,48,134880,120
53,48,135120,120
50,40,135120,120
53,33,135240,60
56,39,135240,60
56,50,135600,120
65,41,135720,60
65,48,135840,120
53,47,136080,120
62,37,136200,60
62,48,136320,120
74,52,136560,240
75,58,136800,240
74,52,137040,240
70,77,137280,720
67,64,137280,720
61,64,137280,720
68,43,138000,240
59,43,138000,240
65,43,138000,240
66,48,138240,240
58,40,138240,240
61,40,138240,240
56,42,138480,240
61,42,138480,240
53,42,138720,240
61,42,138720,240
61,42,138960,240
54,42,138960,240
63,48,139200,240
59,40,139200,240
58,34,139440,240
61,40,139440,240
59,40,139680,240
56,34,139680,240
54,34,139920,240
58,40,139920,240
41,50,140400,120
49,41,140520,60
49,48,140640,120
53,47,140880,120
61,37,141000,60
41,50,141360,120
50,41,141480,60
50,48,141600,120
53,47,141840,120
62,37,141960,60
39,50,142320,120
48,41,142440,60
48,47,142560,120
51,46,142800,120
60,36,142920,60
38,48,143280,120
47,39,143400,60
47,46,143520,120
50,45,143760,120
59,35,143880,60
36,47,144240,120
48,38,144360,60
48,45,144480,120
48,44,144720,120
60,34,144840,60
36,46,145200,120
48,37,145320,60
48,44,145440,120
48,42,145680,120
60,33,145800,60
36,45,146160,120
48,36,146280,60
48,42,146400,120
48,41,146640,120
60,32,146760,60
36,43,147120,120
48,35,147240,60
48,41,147360,120
48,40,147600,120
60,31,147720,60
36,42,148080,120
48,34,148200,60
48,40,148320,120
48,39,148560,120
60,30,148680,60
36,41,149040,120
48,33,149160,60
48,39,149280,120
48,38,149520,120
60,29,149640,60
48,40,150000,120
60,32,150120,60
48,37,150240,120
60,29,150360,60
47,40,150960,120
59,32,151080,60
47,37,151200,120
59,29,151320,60
48,40,151920,120
60,32,152040,60
48,37,152160,120
60,29,152280,60
48,40,152880,120
60,32,153000,60
48,37,153120,120
60,29,153240,60
48,40,153840,120
60,32,153960,60
48,37,154080,120
60,29,154200,60
48,40,154320,120
60,40,154440,120
48,45,154560,120
60,48,154680,108
60,52,154800,120
63,56,154920,120
60,59,155040,120
63,63,155160,120
60,67,155280,120
63,70,155400,108
63,77,155520,720
60,64,155520,720
59,51,156240,120
62,60,156240,120
61,59,156360,60
58,50,156360,60
61,67,156480,240
58,56,156480,240
57,51,156720,120
60,60,156720,120
56,50,156840,60
59,59,156840,60
59,67,156960,240
56,56,156960,240
55,51,157200,120
58,60,157200,120
57,59,157320,60
54,50,157320,60
56,67,157440,720
53,56,157440,720
51,38,158160,240
55,45,158160,240
50,40,158400,240
53,48,158400,240
48,42,158640,240
51,50,158640,240
46,45,158880,240
50,53,158880,240
53,56,159120,240
46,47,159120,240
50,47,159120,240
39,56,159360,120
46,40,159480,120
55,40,159600,120
46,40,159720,120
39,54,159840,120
46,44,159960,120
55,43,160080,120
46,43,160200,120
41,58,160320,120
46,49,160440,120
56,49,160560,120
46,47,160680,120
41,53,160800,120
46,44,160920,120
56,44,161040,120
46,44,161160,120
43,53,161280,120
46,43,161400,120
58,43,161520,120
46,43,161640,120
43,53,161760,120
46,43,161880,120
58,43,162000,120
46,43,162120,120
44,53,162240,120
46,44,162360,120
56,44,162480,120
46,44,162600,120
34,53,162720,120
46,46,162840,120
53,46,162960,120
46,46,163080,120
39,56,163200,120
46,40,163320,120
55,40,163440,120
46,40,163560,120
39,54,163680,120
46,44,163800,120
56,43,163920,120
46,43,164040,120
43,58,164160,120
51,49,164280,120
58,49,164400,120
51,47,164520,120
43,53,164640,120
51,44,164760,120
58,44,164880,120
51,44,165000,120
43,53,165120,120
51,43,165240,120
58,43,165360,120
51,43,165480,120
43,53,165600,120
51,43,165720,120
58,43,165840,120
51,43,165960,120
44,53,166080,120
51,44,166200,120
60,44,166320,120
51,44,166440,120
45,53,166560,120
53,46,166680,120
60,46,166800,120
53,46,166920,120
46,52,167040,240
63,46,167280,120
62,49,167400,120
60,48,167520,120
58,47,167640,120
57,46,167760,120
56,45,167880,120
55,44,168000,120
53,43,168120,120
51,42,168240,120
50,41,168360,120
51,40,168480,120
53,42,168600,120
55,44,168720,120
56,46,168840,120
58,57,168960,240
65,46,169200,120
63,53,169320,120
62,52,169440,120
60,51,169560,120
59,50,169680,90
57,49,169800,90
55,47,169920,90
53,48,170040,90
51,51,170160,90
50,55,170280,90
48,59,170400,90
46,62,170520,90
48,66,170640,90
45,66,170640,90
45,58,170760,90
48,69,170760,90
46,72,170880,120
44,61,170880,120
43,63,171360,120
46,75,171360,120
53,65,171840,1920
47,71,171840,720
46,71,172560,120
44,80,172800,960
53,65,173760,1920
47,71,173760,720
46,71,174480,120
45,80,174720,960
53,48,175680,240
46,40,175680,240
46,40,176640,240
55,48,176640,240
56,48,177600,240
46,40,177600,240
55,48,178080,240
46,40,178080,240
53,48,178560,240
46,40,178560,240
46,40,179040,240
55,48,179040,240
58,40,179520,240
65,48,179520,240
58,40,180480,240
67,48,180480,240
58,40,181440,240
68,48,181440,240
58,40,181920,240
67,48,181920,240
58,40,182400,240
68,48,182400,240
58,48,182880,240
60,38,183120,120
62,40,183240,120
63,42,183360,120
65,44,183480,120
67,46,183600,120
68,48,183720,120
70,50,183840,240
72,38,184080,120
74,40,184200,120
75,42,184320,120
77,44,184440,120
79,46,184560,120
80,48,184680,120
82,50,184800,240
80,47,185040,240
79,56,185280,240
78,46,185520,240
77,55,185760,240
70,47,186000,240
63,39,186240,960
66,39,186480,480
69,39,186480,480
67,39,186960,240
70,39,186960,240
63,39,187200,960
74,39,187440,480
71,39,187440,480
70,39,187920,240
63,39,188160,960
67,33,188400,240
70,39,188400,240
72,39,188640,240
68,33,188640,240
67,30,188880,240
70,39,188880,240
67,39,189120,240
58,39,189120,960
65,33,189360,240
68,39,189360,240
67,39,189600,240
63,33,189600,240
62,30,189840,240
65,39,189840,240
51,35,190080,960
54,38,190320,480
57,53,190320,480
58,35,190800,240
55,35,190800,240
51,35,191040,960
59,38,191280,480
62,50,191280,480
58,35,191760,240
51,29,192000,480
55,29,192000,480
58,35,192000,480
56,35,192480,240
44,29,192480,240
51,29,192480,240
39,27,192720,240
51,35,192720,240
34,35,192960,240
46,35,193200,240
34,35,193440,240
46,35,193680,240
51,43,193920,360
39,43,193920,360
47,39,194280,120
46,45,194400,240
39,38,194640,240
34,55,194880,240
56,44,195120,120
55,36,195240,120
53,43,195360,120
51,39,195480,120
50,39,195600,120
46,39,195600,240
58,39,195720,120
51,43,195840,360
59,39,196200,120
58,45,196320,240
51,38,196560,240
46,55,196800,240
68,44,197040,120
67,36,197160,120
65,43,197280,120
63,39,197400,120
58,39,197520,120
62,39,197520,120
65,39,197640,120
63,39,197760,360
67,39,197760,360
65,33,198120,120
63,39,198240,360
60,34,198600,120
58,39,198720,360
56,35,199080,120
55,39,199200,360
53,33,199560,120
51,39,199680,360
48,31,200040,120
46,39,200160,360
44,34,200520,120
43,39,200640,360
41,35,201000,120
39,39,201120,360
73,37,201480,120
70,30,201480,120
70,36,201600,960
73,42,201600,960
68,36,202560,960
72,42,202560,960
70,42,203520,960
67,36,203520,960
65,36,204480,960
68,42,204480,960
67,84,205440,720
63,70,205440,720
63,51,206160,120
69,60,206160,120
65,59,206280,60
61,50,206280,60
65,67,206400,240
61,56,206400,240
61,51,206640,120
67,60,206640,120
63,59,206760,60
60,50,206760,60
63,67,206880,240
60,56,206880,240
65,60,207120,120
60,44,207120,120
58,50,207240,60
61,59,207240,60
61,67,207360,240
58,56,207360,240
64,60,207600,120
58,51,207600,120
60,59,207720,60
56,50,207720,60
56,56,207840,238
60,67,207840,238
56,56,208080,238
59,67,208080,238
58,67,208320,720
55,56,208320,720
53,38,209040,240
56,45,209040,240
55,48,209280,240
52,40,209280,240
50,42,209520,240
53,50,209520,240
52,53,209760,240
48,45,209760,240
48,47,210000,240
55,47,210000,240
58,56,210000,240
52,47,210000,240
41,56,210240,120
48,40,210360,120
56,40,210480,120
48,40,210600,120
41,54,210720,120
48,44,210840,120
56,43,210960,120
48,43,211080,120
43,58,211200,120
48,49,211320,120
58,49,211440,120
48,47,211560,120
43,53,211680,120
48,44,211800,120
58,44,211920,120
48,44,212040,120
44,53,212160,120
48,43,212280,120
60,43,212400,120
48,43,212520,120
44,53,212640,120
48,43,212760,120
60,43,212880,120
48,43,213000,120
46,53,213120,120
48,44,213240,120
58,44,213360,120
48,44,213480,120
36,53,213600,120
48,46,213720,120
55,46,213840,120
48,46,213960,120
41,56,214080,120
48,40,214200,120
56,40,214320,120
48,40,214440,120
41,54,214560,120
48,44,214680,120
56,43,214800,120
48,43,214920,120
43,58,215040,120
48,49,215160,120
58,49,215280,120
48,47,215400,120
43,53,215520,120
48,44,215640,120
58,44,215760,120
48,44,215880,120
44,53,216000,120
48,43,216120,120
60,43,216240,120
48,43,216360,120
41,53,216480,120
48,43,216600,120
56,43,216720,120
48,43,216840,120
38,53,216960,120
46,44,217080,120
53,44,217200,120
46,44,217320,120
38,53,217440,120
46,46,217560,120
53,46,217680,120
46,46,217800,120
39,56,217920,120
46,40,218040,120
54,40,218160,120
46,40,218280,120
39,54,218400,120
46,44,218520,120
54,43,218640,120
46,43,218760,120
41,58,218880,120
46,49,219000,120
56,49,219120,120
46,47,219240,120
41,53,219360,120
46,44,219480,120
56,44,219600,120
46,44,219720,120
42,53,219840,120
46,43,219960,120
58,43,220080,120
46,43,220200,120
42,53,220320,120
46,43,220440,120
58,43,220560,120
46,43,220680,120
44,53,220800,120
46,44,220920,120
56,44,221040,120
46,44,221160,120
34,53,221280,120
46,46,221400,120
53,46,221520,120
46,46,221640,120
39,56,221760,120
46,40,221880,120
54,40,222000,120
46,40,222120,120
41,54,222240,120
46,44,222360,120
56,43,222480,120
46,43,222600,120
43,56,222720,120
51,40,222840,120
58,40,222960,120
51,40,223080,120
44,54,223200,120
51,44,223320,120
59,43,223440,120
51,43,223560,120
59,43,225600,960
58,44,226560,960
57,46,227520,240
60,43,229440,960
58,44,230400,960
56,46,231360,240
65,36,233280,960
68,43,233280,960
63,39,234240,960
67,47,234240,960
62,40,235200,960
65,48,235200,960
60,43,236160,960
63,51,236160,960
59,55,237120,960
62,64,237120,960
63,41,238080,480
58,34,238080,960
65,36,238560,240
62,36,238800,240
58,36,239160,120
60,36,239280,120
58,36,239400,120
57,42,239520,120
58,36,239640,120
55,36,239760,120
51,36,239880,120
56,42,240000,120
53,36,240120,120
50,36,240240,120
46,36,240360,120
44,43,240480,120
41,36,240600,120
38,36,240720,120
34,36,240840,120
39,45,240960,120
41,36,241080,120
43,36,241200,120
44,36,241320,120
46,43,241440,120
48,36,241560,120
50,36,241680,120
51,36,241800,120
46,33,241920,960
53,42,241920,120
55,30,242040,120
56,30,242160,120
57,30,242280,120
58,39,242400,240
56,33,242640,240
55,39,242880,960
51,33,242880,960
46,33,243840,960
53,39,243840,960
63,33,244800,960
67,39,244800,960
58,33,245760,960
65,39,245760,960
75,33,246720,960
79,39,246720,960
70,36,247680,480
74,36,247680,480
77,43,247680,480
68,39,248160,480
70,39,248160,480
74,39,248160,480
77,46,248160,480
67,40,248640,480
70,48,248640,480
63,39,249120,480
67,46,249120,480
58,37,249600,480
65,37,249600,480
68,44,249600,480
58,34,250080,480
65,34,250080,480
68,41,250080,480
58,36,250680,120
60,36,250800,120
58,36,250920,120
57,42,251040,120
58,36,251160,120
55,36,251280,120
51,36,251400,120
56,42,251520,120
53,36,251640,120
50,36,251760,120
46,36,251880,120
44,43,252000,120
41,36,252120,120
38,36,252240,120
34,36,252360,120
39,45,252480,120
41,36,252600,120
43,36,252720,120
44,36,252840,120
46,43,252960,120
48,36,253080,120
50,36,253200,120
51,36,253320,120
46,33,253440,960
53,42,253440,120
55,30,253560,120
56,30,253680,120
57,30,253800,120
58,39,253920,240
56,33,254160,240
55,39,254400,960
51,33,254400,960
46,33,255360,960
53,39,255360,960
63,33,256320,960
67,39,256320,960
58,33,257280,960
65,39,257280,960
75,33,258240,960
79,39,258240,960
70,36,259200,480
77,43,259200,480
68,39,259680,480
70,39,259680,480
77,46,259680,480
67,40,260160,240
70,48,260160,118
63,39,260400,480
67,46,260400,480
63,40,260880,240
67,48,260880,240
58,37,261120,480
65,44,261120,480
56,34,261600,480
58,34,261600,480
65,41,261600,480
55,40,262080,240
58,48,262080,118
51,33,262320,480
55,39,262320,480
51,34,262800,240
55,40,262800,240
53,31,263040,480
46,31,263040,480
56,37,263040,480
46,28,263520,480
53,28,263520,480
56,34,263520,480
51,43,265920,960
46,44,266880,960
43,37,267840,240
55,43,269760,960
51,36,269760,960
53,44,270720,960
46,37,270720,960
43,27,271680,240
51,33,271680,240
51,26,272400,240
55,31,272400,238
46,31,272640,960
53,37,272640,960
43,27,273600,240
51,33,273600,240
63,26,274320,240
67,31,274320,238
58,31,274560,960
65,37,274560,960
55,31,275520,240
63,37,275520,240
75,38,276720,240
79,45,276720,240
70,41,276960,240
77,49,276960,240
75,46,277200,238
67,39,277200,238
67,38,277440,238
75,45,277440,240
51,38,278640,240
55,45,278640,240
46,41,278880,240
53,49,278880,240
51,46,279120,240
43,39,279120,240
50,47,279600,120
53,56,279600,120
39,59,279840,120
50,54,280560,120
53,63,280560,120
39,65,280800,120
50,59,281520,120
53,70,281520,120
39,73,281760,120
46,77,282480,120
34,80,282720,120
46,82,282960,120
39,30,283200,951
39,30,284160,951
38,24,284160,951
36,24,285120,951
39,30,285120,951
34,24,286080,951
39,30,286080,951
32,24,287040,951
39,30,287040,951
31,24,288000,951
39,30,288000,951
32,24,288960,951
39,30,288960,951
31,24,289920,951
39,30,289920,951
32,24,290880,951
39,30,290880,951
31,26,291840,240
39,33,291840,240
34,53,293760,240
38,53,293760,240
41,53,293760,240
46,63,293760,240
39,53,294720,240
43,53,294720,240
46,53,294720,240
51,63,294720,240
