note,velocity,position,duration
68,51,1680,240
63,46,1920,720
59,46,1920,720
68,55,1920,240
70,49,2160,240
70,51,2400,240
68,49,2640,240
59,49,2640,240
63,49,2640,240
59,46,2880,720
63,46,2880,720
68,55,2880,240
70,51,3120,240
70,52,3360,240
68,56,3600,240
59,47,3600,240
62,47,3600,240
59,49,3840,720
62,49,3840,720
68,58,3840,240
70,53,4080,240
70,55,4320,240
62,48,4560,240
59,48,4560,240
68,57,4560,240
59,50,4800,720
63,50,4800,720
68,60,4800,240
70,56,5040,240
70,56,5280,240
64,50,5520,240
59,50,5520,240
68,60,5520,240
59,52,5760,1440
65,52,5760,1440
68,62,5760,240
70,57,6000,240
70,58,6240,240
68,47,6480,240
68,51,6720,240
73,42,6960,240
73,40,7200,480
58,40,9360,240
66,46,9360,240
66,49,9600,720
58,41,9600,720
70,44,9840,240
70,46,10080,240
58,39,10320,240
65,44,10320,240
65,48,10560,720
58,42,10560,720
70,45,10800,240
70,47,11040,240
58,38,11280,240
63,42,11280,240
63,49,11520,720
58,44,11520,720
70,44,11760,240
70,46,12000,240
61,44,12240,180
58,39,12240,180
58,42,12480,180
63,48,12480,180
58,42,12720,180
65,42,12720,180
66,48,12960,180
58,42,12960,180
58,44,13200,180
70,44,13200,180
59,44,13440,720
68,49,13440,720
71,44,13680,240
71,46,13920,240
66,44,14160,240
59,39,14160,240
59,42,14400,720
66,48,14400,720
71,45,14640,240
71,47,14880,240
65,42,15120,240
59,38,15120,240
59,44,15360,720
65,49,15360,720
71,44,15600,240
71,46,15840,240
65,44,16080,120
59,39,16080,240
59,42,16320,960
66,48,16320,180
65,42,16560,180
66,48,16800,180
68,44,17040,180
58,44,17280,720
66,49,17280,720
70,44,17520,240
70,50,17760,240
58,44,18000,240
65,48,18000,240
58,50,18240,720
65,57,18240,720
70,55,18480,240
70,61,18720,240
64,57,18960,240
58,50,18960,240
58,62,19200,720
64,70,19200,720
70,62,19440,240
70,66,19680,240
64,62,19920,240
58,56,19920,240
58,59,20160,720
64,66,20160,480
72,59,20400,240
72,58,20640,240
70,49,20880,240
64,49,20880,240
65,45,21120,720
69,50,21120,720
60,45,21120,720
60,42,21840,240
67,48,21840,240
72,48,21840,240
72,50,22080,720
67,50,22080,720
60,45,22080,720
69,52,22800,240
65,52,22800,240
74,58,22800,240
65,55,23040,720
69,55,23040,720
74,62,23040,720
77,56,23760,180
69,49,23760,180
72,49,23760,180
65,55,24000,180
69,55,24000,180
74,60,24000,180
72,50,24240,180
64,45,24240,180
67,45,24240,180
60,46,24480,180
65,46,24480,180
69,51,24480,180
58,40,24720,180
67,45,24720,180
62,40,24720,180
62,45,24960,720
58,45,24960,240
67,50,24960,720
62,42,25680,240
67,48,25680,240
70,48,25680,240
62,45,25920,720
70,50,25920,720
67,50,25920,720
67,52,26640,240
70,52,26640,240
74,58,26640,240
67,55,26880,720
70,55,26880,720
74,62,26880,720
70,50,27600,180
67,50,27600,180
74,50,27600,180
77,57,27600,180
67,56,27840,180
77,62,27840,180
70,56,27840,180
74,56,27840,180
67,46,28080,180
70,46,28080,180
76,52,28080,180
67,49,28320,180
77,55,28320,180
74,49,28320,180
70,49,28320,180
72,42,28560,180
70,42,28560,180
67,42,28560,180
79,48,28560,180
65,39,28680,840
72,45,28740,780
81,50,28800,720
84,52,29520,240
72,47,29520,240
79,52,29520,240
84,56,29760,720
79,56,29760,720
72,50,29760,720
86,64,30480,240
77,59,30480,240
81,59,30480,240
77,61,30720,720
81,61,30720,720
86,69,30720,720
81,55,31440,180
84,55,31440,180
89,62,31440,180
81,59,31680,180
77,59,31680,180
86,66,31680,180
76,48,31920,180
79,48,31920,180
84,52,31920,180
81,51,32160,180
77,46,32160,180
72,46,32160,180
70,39,32400,180
74,39,32400,180
79,44,32400,180
79,50,32640,720
70,45,32640,720
74,45,32640,720
70,48,33360,240
67,42,33360,240
74,48,33360,240
74,50,33600,720
70,50,33600,720
67,45,33600,720
70,49,34320,240
60,49,34320,240
67,49,34320,240
72,55,34320,240
60,47,34560,720
72,52,34560,720
67,47,34560,720
70,47,34560,720
66,49,35280,240
60,49,35280,240
70,56,35280,240
72,56,35280,240
60,53,35520,720
66,53,35520,720
70,59,35520,720
72,59,35520,720
70,59,36240,240
66,59,36240,240
61,59,36240,240
73,66,36240,240
61,61,36480,720
73,70,36480,720
66,61,36480,720
70,61,36480,720
66,61,37200,240
63,61,37200,240
70,69,37200,240
75,69,37200,240
63,67,37440,720
66,67,37440,720
75,74,37440,720
70,74,37440,720
63,52,38160,240
63,58,38400,1440
70,45,38640,240
70,39,38880,960
63,41,41520,240
63,48,41760,1920
70,41,42000,240
70,42,42240,1440
68,51,43920,240
59,46,44160,720
63,46,44160,720
68,55,44160,240
70,49,44400,240
70,51,44640,240
63,49,44880,240
59,49,44880,240
68,49,44880,240
59,46,45120,720
63,46,45120,720
68,55,45120,240
70,51,45360,240
70,52,45600,240
59,47,45840,240
62,47,45840,240
68,56,45840,240
59,49,46080,720
62,49,46080,720
68,58,46080,240
70,53,46320,240
70,55,46560,240
59,48,46800,240
62,48,46800,240
68,57,46800,240
68,60,47040,240
59,50,47040,720
63,50,47040,720
70,56,47280,240
70,56,47520,240
59,50,47760,240
64,50,47760,240
68,60,47760,240
65,52,48000,1440
68,62,48000,240
59,52,48000,1440
70,57,48240,240
70,58,48480,240
68,47,48720,240
68,51,48960,240
73,42,49200,240
73,40,49440,480
66,46,51600,240
58,38,51600,240
58,40,51840,720
66,49,51840,720
70,44,52080,240
70,46,52320,240
58,39,52560,240
65,44,52560,240
65,48,52800,720
58,42,52800,720
70,45,53040,240
70,47,53280,240
58,38,53520,240
63,42,53520,240
63,49,53760,720
58,44,53760,720
70,44,54000,240
70,46,54240,240
58,39,54480,180
61,44,54480,180
63,48,54720,180
58,42,54720,180
58,42,54960,180
65,42,54960,180
58,42,55200,180
66,48,55200,180
58,44,55440,180
70,44,55440,180
59,44,55680,720
68,49,55680,720
71,44,55920,240
71,46,56160,240
59,39,56400,240
66,44,56400,240
59,42,56640,720
66,48,56640,720
71,45,56880,240
71,47,57120,240
59,38,57360,240
65,42,57360,240
59,44,57600,720
65,49,57600,720
71,44,57840,240
71,46,58080,240
65,44,58320,120
59,39,58320,240
59,42,58560,960
66,48,58560,180
65,42,58800,180
66,48,59040,180
68,44,59280,180
58,44,59520,720
66,49,59520,720
70,44,59760,240
70,48,60000,240
58,41,60240,240
65,46,60240,240
58,45,60480,720
65,50,60480,720
70,45,60720,240
70,50,60960,240
58,48,61200,240
63,48,61200,240
58,48,61440,720
63,53,61440,720
70,49,61680,240
70,53,61920,240
63,53,62160,240
57,48,62160,240
57,56,62400,720
63,63,62400,720
69,61,62640,240
69,70,62880,240
63,67,63120,240
57,59,63120,240
58,44,63360,720
66,49,63360,720
70,44,63600,240
70,46,63840,240
66,44,64080,240
58,39,64080,240
58,42,64320,720
66,48,64320,720
70,45,64560,240
70,47,64800,240
58,38,65040,180
66,42,65040,180
59,44,65280,720
63,49,65280,720
70,44,65520,240
70,46,65760,240
59,39,66000,240
63,44,66000,240
59,42,66240,720
63,48,66240,720
70,45,66480,240
70,47,66720,240
59,38,66960,180
63,42,66960,180
58,44,67200,720
66,49,67200,720
70,44,67440,240
70,46,67680,240
66,44,67920,240
58,39,67920,240
58,42,68160,720
66,48,68160,720
70,45,68400,240
70,47,68640,240
58,48,68880,240
66,42,68880,240
59,44,69120,720
63,49,69120,720
70,44,69360,240
70,46,69600,240
59,39,69840,240
63,44,69840,240
59,42,70080,720
63,48,70080,720
70,45,70320,240
70,47,70560,240
59,38,70800,240
63,42,70800,240
58,44,71040,720
66,49,71040,720
70,44,71280,240
70,46,71520,240
58,39,71760,240
66,44,71760,240
58,42,72000,720
66,48,72000,720
70,45,72240,240
70,47,72480,240
66,42,72720,240
58,48,72720,240
58,41,72960,720
66,46,72960,720
70,40,73200,240
70,41,73440,240
66,39,73680,240
58,35,73680,240
66,41,73920,720
58,37,73920,720
70,38,74160,240
70,39,74400,240
58,39,74640,240
66,34,74640,240
66,39,74880,240
70,34,75120,240
70,39,75360,240
66,34,75600,240
73,39,75840,960
66,39,75840,240
70,33,76080,240
70,39,76320,240
66,33,76560,240
66,37,76800,240
70,30,77040,240
70,36,77280,240
66,28,77520,240
73,35,77760,960
66,35,77760,240
70,28,78000,240
70,34,78240,240
66,28,78480,240
70,31,78960,240
70,30,79200,240
54,45,1920,720
54,39,2640,240
53,45,2880,720
53,45,3600,240
52,49,3840,720
52,49,4560,240
51,53,4800,720
50,49,5520,240
49,53,5760,1440
42,29,7680,720
49,33,7680,720
37,27,7920,240
37,30,8160,240
42,26,8400,240
49,29,8400,240
42,29,8640,720
49,33,8640,720
37,26,8880,240
37,29,9120,240
42,26,9360,240
49,29,9360,240
42,29,9600,720
49,33,9600,720
37,27,9840,240
37,30,10080,240
49,28,10320,240
42,25,10320,240
42,29,10560,720
49,33,10560,720
37,26,10800,240
37,29,11040,240
42,26,11280,240
49,29,11280,240
42,29,11520,720
49,33,11520,720
37,27,11760,240
37,30,12000,240
49,28,12240,240
42,25,12240,240
42,29,12480,720
49,33,12480,720
37,26,12720,240
37,29,12960,240
42,26,13200,240
49,29,13200,240
42,29,13440,720
49,33,13440,720
37,27,13680,240
37,30,13920,240
49,28,14160,240
42,25,14160,240
42,29,14400,720
49,33,14400,720
37,26,14640,240
37,29,14880,240
42,26,15120,240
49,29,15120,240
42,29,15360,720
49,33,15360,720
37,27,15600,240
37,30,15840,240
49,28,16080,240
42,25,16080,240
39,35,16320,180
49,27,16320,960
37,30,16560,180
39,36,16800,180
41,30,17040,180
42,29,17280,720
49,33,17280,720
37,27,17520,240
37,33,17760,240
49,30,18000,240
42,27,18000,240
42,34,18240,720
49,39,18240,720
37,33,18480,240
37,38,18720,240
42,34,18960,240
48,39,18960,240
42,41,19200,720
48,47,19200,720
36,37,19440,240
36,44,19680,240
48,39,19920,240
43,35,19920,240
43,39,20160,720
48,46,20160,720
36,34,20400,240
36,37,20640,240
43,30,20880,240
48,33,20880,240
41,50,21120,3780
53,50,21120,720
57,44,21360,240
57,48,21600,240
52,48,21840,240
52,50,22080,720
57,46,22320,240
57,49,22560,240
50,53,22800,240
50,56,23040,720
57,47,23280,240
57,49,23520,240
48,48,23760,180
50,53,24000,180
52,46,24240,180
53,49,24480,180
55,44,24720,180
41,50,24900,3900
55,50,24960,720
58,44,25200,240
58,48,25440,240
53,48,25680,240
53,50,25920,720
58,46,26160,240
58,49,26400,240
52,53,26640,240
52,56,26880,720
58,47,27120,240
58,49,27360,240
50,48,27600,180
50,53,27840,180
48,46,28080,180
50,49,28320,180
52,44,28560,180
41,50,28800,3780
53,50,28800,720
57,44,29040,240
57,49,29280,240
52,52,29520,240
52,56,29760,720
57,52,30000,240
57,57,30240,240
50,60,30480,240
50,63,30720,720
57,53,30960,240
57,56,31200,240
48,55,31440,180
50,59,31680,180
52,49,31920,180
53,50,32160,180
55,44,32400,180
41,50,32580,1020
55,50,32640,720
58,44,32880,240
58,48,33120,240
53,48,33360,240
53,50,33600,720
58,46,33840,240
58,50,34080,240
52,55,34320,240
52,52,34560,720
58,47,34800,240
58,55,35040,240
51,56,35280,240
51,59,35520,720
58,57,35760,240
58,61,36000,240
49,66,36240,240
49,70,36480,720
58,60,36720,240
58,67,36960,240
48,69,37200,240
48,74,37440,2400
58,62,37680,240
58,69,37920,1920
47,34,40080,240
47,39,40320,3360
56,33,40560,240
56,33,40800,2880
54,45,44160,720
54,39,44880,240
53,45,45120,720
53,45,45840,240
52,49,46080,720
52,49,46800,240
51,53,47040,720
50,49,47760,240
49,53,48000,1440
42,29,49920,720
49,33,49920,720
37,27,50160,240
37,30,50400,240
42,26,50640,240
49,29,50640,240
42,29,50880,720
49,33,50880,720
37,26,51120,240
37,29,51360,240
42,26,51600,240
49,29,51600,240
42,29,51840,720
49,33,51840,720
37,27,52080,240
37,30,52320,240
49,28,52560,240
42,25,52560,240
42,29,52800,720
49,33,52800,720
37,26,53040,240
37,29,53280,240
42,26,53520,240
49,29,53520,240
42,29,53760,720
49,33,53760,720
37,27,54000,240
37,30,54240,240
49,28,54480,240
42,25,54480,240
42,29,54720,720
49,33,54720,720
37,26,54960,240
37,29,55200,240
42,26,55440,240
49,29,55440,240
42,29,55680,720
49,33,55680,720
37,27,55920,240
37,30,56160,240
49,28,56400,240
42,25,56400,240
42,29,56640,720
49,33,56640,720
37,26,56880,240
37,29,57120,240
42,26,57360,240
49,29,57360,240
42,29,57600,720
49,33,57600,720
37,27,57840,240
37,30,58080,240
49,28,58320,240
42,25,58320,240
39,35,58560,180
49,27,58560,960
37,30,58800,180
39,36,59040,180
41,30,59280,180
42,29,59520,720
49,33,59520,720
37,27,59760,240
37,31,60000,240
49,29,60240,240
42,26,60240,240
42,31,60480,720
49,36,60480,720
37,29,60720,240
37,34,60960,240
42,24,61200,240
47,27,61200,240
42,30,61440,720
47,35,61440,720
35,31,61680,240
35,35,61920,240
48,34,62160,240
42,30,62160,240
42,38,62400,720
48,42,62400,720
36,36,62640,240
36,45,62880,240
42,40,63120,240
48,45,63120,240
37,53,63300,1980
54,56,63360,480
53,52,63840,480
51,56,64320,480
49,51,64800,420
37,47,65160,120
58,66,65280,480
56,57,65760,360
54,53,66120,120
54,59,66240,240
53,53,66480,240
51,57,66720,240
53,52,66960,180
37,47,67140,1980
54,56,67200,480
49,52,67680,240
50,47,67920,240
51,56,68160,240
48,48,68400,240
49,51,68640,480
37,47,69000,120
58,66,69120,480
56,57,69600,360
54,53,69960,120
54,59,70080,240
53,53,70320,240
51,57,70560,240
53,52,70800,240
42,48,71040,720
49,55,71040,720
36,47,71760,180
37,53,72000,180
42,48,72240,180
46,51,72480,180
49,48,72720,180
51,51,72960,720
48,41,73680,180
49,47,73920,180
54,40,74160,180
58,42,74400,180
61,39,74640,180
63,41,74880,960
58,39,75840,960
63,39,76800,960
58,35,77760,960
66,28,78720,1920
