note,velocity,position,duration
67,79,0,480
70,79,0,480
75,79,0,480
79,88,0,480
65,62,480,120
70,62,480,120
74,62,480,120
77,70,480,120
75,62,720,120
67,62,720,120
70,62,720,120
79,70,720,120
68,79,960,480
72,79,960,480
80,88,960,480
75,79,960,480
75,62,1440,120
70,62,1440,120
67,62,1440,120
79,70,1440,120
65,63,1680,120
72,63,1680,120
77,71,1680,120
75,63,1680,120
70,75,1920,480
67,75,1920,480
75,75,1920,480
79,84,1920,480
65,60,2400,120
77,68,2400,120
68,60,2400,120
74,60,2400,120
67,57,2640,120
63,57,2640,120
70,57,2640,120
75,63,2640,120
65,60,2880,120
74,60,2880,120
77,68,2880,120
70,63,3120,120
63,70,3360,480
72,70,3360,480
75,79,3360,480
63,67,3840,480
75,74,3840,480
70,67,3840,480
74,74,3840,480
68,67,4320,420
63,67,4320,420
72,67,4320,420
75,74,4320,420
63,67,4800,480
75,74,4800,480
67,67,4800,480
70,67,4800,480
62,62,5280,120
65,62,5280,120
70,62,5280,120
74,70,5280,120
75,70,5520,120
70,62,5520,120
63,62,5520,120
67,62,5520,120
72,72,5760,480
75,72,5760,480
79,81,5760,480
67,72,5760,480
77,69,6240,120
65,61,6240,120
68,61,6240,120
72,61,6240,120
63,61,6480,120
67,61,6480,120
72,61,6480,120
75,69,6480,120
70,69,6720,480
74,78,6720,480
62,69,6720,480
67,69,6720,480
60,64,7200,120
63,64,7200,120
67,64,7200,120
72,72,7200,120
70,70,7440,120
58,62,7440,120
62,62,7440,120
67,62,7440,120
57,61,7680,120
66,61,7680,120
69,69,7680,120
62,66,7920,120
55,68,8160,480
67,75,8160,480
55,68,8640,480
66,68,8640,480
67,75,8640,480
55,67,9120,420
65,67,9120,420
67,74,9120,420
67,79,9600,480
79,88,9600,480
70,79,9600,480
75,79,9600,480
77,72,10080,120
74,64,10080,120
65,64,10080,120
70,64,10080,120
67,64,10320,120
70,64,10320,120
75,64,10320,120
79,72,10320,120
80,88,10560,480
68,79,10560,480
72,79,10560,480
75,79,10560,480
67,62,11040,120
70,62,11040,120
75,70,11040,120
79,70,11040,120
75,70,11280,120
72,62,11280,120
77,70,11280,120
65,62,11280,120
67,77,11520,480
70,77,11520,480
75,77,11520,480
79,85,11520,480
77,72,12000,120
65,64,12000,120
68,64,12000,120
74,64,12000,120
63,62,12240,120
67,62,12240,120
70,62,12240,120
75,70,12240,120
77,68,12480,120
74,60,12480,120
65,60,12480,120
70,66,12720,120
63,74,12960,480
75,83,12960,480
73,78,13440,480
63,78,13440,480
75,86,13440,480
71,83,13920,450
63,83,13920,450
75,93,13920,450
87,101,14400,480
82,90,14400,480
75,90,14400,480
78,90,14400,480
78,83,14880,240
82,83,14880,240
86,93,14880,240
74,83,14880,240
87,90,15120,240
82,80,15120,240
78,80,15120,240
75,80,15120,240
78,85,15360,480
83,95,15360,480
75,85,15360,480
71,85,15360,480
82,86,15840,240
70,78,15840,240
78,78,15840,240
75,78,15840,240
78,77,16080,240
83,85,16080,240
75,77,16080,240
71,77,16080,240
80,92,16320,480
68,82,16320,480
75,82,16320,480
71,82,16320,480
79,83,16800,240
75,74,16800,240
71,74,16800,240
67,74,16800,240
68,74,17040,240
71,74,17040,240
80,83,17040,240
75,74,17040,240
66,79,17280,480
69,79,17280,480
72,79,17280,480
78,88,17280,480
77,73,17760,120
74,61,17880,120
70,63,18000,120
69,60,18120,120
74,71,18240,120
70,61,18360,120
65,63,18480,120
64,61,18600,120
70,70,18720,120
65,61,18840,120
62,63,18960,120
60,61,19080,120
89,64,22560,120
86,59,22680,120
82,61,22800,120
81,60,22920,120
86,64,23040,120
82,58,23160,120
77,58,23280,120
76,58,23400,120
82,60,23520,120
77,56,23640,120
74,56,23760,120
72,56,23880,120
70,66,24000,480
70,68,24480,480
67,60,24480,480
63,63,24960,480
67,71,24960,480
70,71,24960,480
72,74,25440,480
60,67,25440,480
63,67,25440,480
67,74,25440,480
60,68,25920,480
63,68,25920,480
68,75,25920,480
72,75,25920,480
72,72,26400,480
77,81,26400,480
65,72,26400,480
68,72,26400,480
62,79,26880,1920
67,79,26880,1920
71,88,26880,1800
74,88,26880,1320
86,57,27360,120
83,53,27480,120
79,54,27600,120
78,54,27720,120
83,57,27840,120
79,54,27960,120
74,54,28080,120
73,54,28200,120
79,57,28320,120
74,54,28440,120
71,55,28560,120
69,54,28680,120
67,64,28800,480
65,58,29280,480
67,64,29280,480
63,60,29760,480
67,68,29760,480
65,62,30240,480
62,62,30240,480
67,70,30240,480
60,67,30720,480
63,67,30720,480
67,74,30720,480
69,78,31200,480
63,69,31200,480
60,69,31200,480
58,74,31680,1920
62,74,31680,1920
70,83,31680,1920
89,64,32160,120
86,61,32280,120
82,64,32400,120
81,62,32520,120
86,60,32640,120
82,55,32760,120
77,58,32880,120
76,54,33000,120
82,58,33120,120
77,53,33240,120
74,56,33360,120
72,53,33480,120
70,64,33600,480
66,65,34080,480
70,65,34080,480
66,62,34560,480
63,62,34560,480
70,69,34560,480
66,68,35040,480
63,68,35040,480
71,68,35040,480
75,77,35040,480
63,71,35520,480
75,80,35520,480
68,71,35520,480
71,71,35520,480
71,79,36000,480
68,79,36000,480
76,88,36000,480
80,88,36000,480
66,88,36480,960
78,97,36480,960
71,88,36480,960
75,97,36480,960
83,89,36960,480
87,99,36960,480
75,89,36960,480
82,89,37440,480
75,89,37440,480
87,99,37440,480
75,89,37920,480
87,99,37920,480
81,89,37920,480
87,102,38400,360
82,91,38400,360
79,91,38400,360
75,91,38400,360
70,66,38880,120
65,66,38880,120
74,66,38880,120
77,73,38880,120
67,66,39120,120
79,73,39120,120
70,66,39120,120
75,66,39120,120
72,77,39360,480
68,77,39360,480
75,77,39360,480
80,85,39360,480
67,64,39840,120
79,72,39840,120
70,64,39840,120
75,72,39840,120
65,64,40080,120
72,64,40080,120
77,72,40080,120
75,64,40080,120
79,86,40320,480
75,78,40320,480
67,78,40320,480
70,78,40320,480
65,64,40800,120
68,64,40800,120
74,64,40800,120
77,72,40800,120
75,71,41040,120
63,63,41040,120
67,63,41040,120
70,63,41040,120
65,62,41280,120
74,62,41280,120
77,70,41280,120
70,69,41520,120
75,79,41760,480
72,70,41760,480
63,70,41760,480
63,69,42240,480
70,69,42240,480
74,78,42240,480
75,78,42240,480
75,77,42720,480
63,69,42720,480
68,69,42720,480
72,69,42720,480
63,67,43200,480
67,67,43200,480
70,67,43200,480
75,74,43200,480
74,77,43680,120
65,69,43680,120
70,69,43680,120
62,69,43680,120
63,69,43920,120
67,69,43920,120
70,69,43920,120
75,77,43920,120
67,73,44160,480
72,73,44160,480
75,73,44160,480
79,82,44160,480
65,68,44640,120
68,68,44640,120
72,68,44640,120
77,75,44640,120
72,68,44880,120
75,75,44880,120
63,68,44880,120
67,68,44880,120
62,71,45120,480
67,71,45120,480
70,71,45120,480
74,80,45120,480
67,64,45600,120
60,64,45600,120
63,64,45600,120
72,72,45600,120
58,62,45840,120
62,62,45840,120
70,70,45840,120
67,62,45840,120
69,70,46080,120
66,62,46080,120
57,62,46080,120
62,68,46320,120
55,59,46560,480
67,66,46560,480
67,75,47040,480
55,68,47040,480
66,75,47040,480
55,67,47520,360
65,74,47520,360
67,74,47520,360
79,77,48000,480
75,65,48000,480
67,65,48000,480
70,65,48000,480
65,61,48480,120
70,61,48480,120
74,61,48480,120
77,72,48480,120
79,73,48720,120
67,62,48720,120
70,62,48720,120
75,62,48720,120
68,65,48960,480
72,65,48960,480
75,65,48960,480
80,77,48960,480
75,62,49440,120
79,74,49440,120
67,62,49440,120
70,62,49440,120
65,53,49680,120
72,53,49680,120
77,72,49680,120
75,53,49680,120
75,58,49920,480
67,58,49920,480
70,58,49920,480
79,76,49920,480
65,63,50400,120
68,63,50400,120
77,75,50400,120
74,75,50400,120
70,62,50640,120
67,62,50640,120
63,62,50640,120
75,73,50640,120
65,62,50880,120
74,74,50880,120
77,74,50880,120
70,71,51120,120
75,69,51360,480
63,61,51360,480
74,68,51840,480
63,68,51840,480
75,75,51840,480
75,81,52320,480
63,72,52320,480
72,72,52320,480
87,90,52800,480
91,101,52800,480
84,90,52800,480
79,90,52800,480
86,93,53280,120
83,93,53280,120
74,83,53280,120
84,79,53520,120
87,89,53520,120
75,79,53520,120
83,92,53760,480
80,82,53760,480
71,82,53760,480
75,82,53760,480
75,79,54240,120
80,79,54240,120
84,88,54240,120
72,79,54240,120
79,84,54480,120
76,84,54480,120
67,75,54480,120
72,80,54720,480
80,90,54720,480
77,80,54720,480
68,80,54720,480
76,83,55200,240
73,83,55200,240
63,74,55200,240
74,74,55440,240
77,83,55440,240
65,74,55440,240
69,88,55680,960
66,79,55680,960
63,79,55680,960
75,88,55680,610
74,78,56280,130
72,76,56400,130
71,78,56520,120
66,65,56640,180
60,65,56640,180
63,65,56640,180
72,74,56640,180
59,62,57120,180
62,62,57120,180
67,69,57120,180
60,64,57600,1920
48,58,57600,960
50,47,58560,960
62,52,58560,960
63,39,59520,1920
72,44,59520,1920
75,44,59520,1920
60,45,61440,160
51,37,61440,160
55,41,61600,160
51,35,61760,160
60,41,61760,160
50,33,61920,480
62,39,61920,480
55,33,61920,480
51,37,62400,160
63,45,62400,160
55,41,62560,160
51,35,62720,160
63,41,62720,160
50,34,62880,480
55,34,62880,480
62,40,62880,480
55,40,63360,160
67,48,63360,160
63,44,63520,160
53,37,63680,160
65,44,63680,160
62,46,63840,480
60,44,64320,160
51,37,64320,160
55,41,64480,160
49,35,64640,160
61,41,64640,160
58,45,64800,480
60,39,65280,160
72,47,65280,160
68,45,65440,160
58,37,65600,160
70,44,65600,160
67,41,65756,480
60,39,66240,160
72,47,66240,160
68,44,66400,160
58,38,66560,160
70,46,66560,160
67,44,66720,160
56,37,66880,160
68,45,66880,160
65,41,67040,160
54,37,67200,160
66,44,67200,160
63,41,67360,160
66,41,67520,160
54,35,67520,160
55,37,67680,480
62,37,67680,480
67,44,67680,480
69,44,68160,160
57,37,68164,160
63,42,68320,160
69,42,68480,160
57,36,68484,160
55,37,68640,480
62,37,68640,480
67,44,68640,480
60,52,69120,160
72,52,69120,160
67,48,69280,160
60,48,69440,160
72,48,69440,160
62,48,69600,480
67,48,69600,480
74,48,69600,480
76,61,70080,160
64,61,70080,160
67,57,70240,160
64,56,70400,160
76,56,70400,160
74,61,70560,480
67,61,70560,480
62,61,70560,480
79,66,71040,160
67,66,71040,160
76,61,71200,160
65,61,71360,160
77,61,71360,160
62,60,71520,480
74,60,71520,480
67,60,71520,480
64,78,72000,160
76,78,72000,160
72,71,72160,160
62,71,72320,160
74,71,72320,160
70,71,72480,480
64,71,72480,480
58,71,72480,480
84,90,72960,160
72,76,72960,160
77,67,73120,80
81,79,73120,80
72,67,73280,120
84,79,73280,120
76,68,73440,480
79,80,73440,480
69,74,73920,160
81,88,73920,160
74,67,74080,80
77,79,74080,80
69,67,74240,80
81,79,74240,80
72,68,74400,480
76,80,74400,480
79,86,74880,160
67,73,74880,160
72,58,75040,160
76,69,75040,160
67,72,75200,160
79,85,75200,160
77,66,75360,160
74,56,75360,160
79,79,75520,160
67,67,75520,160
72,51,75680,160
76,61,75680,160
67,72,75840,160
79,85,75840,160
69,56,76000,160
72,67,76000,160
67,67,76160,160
79,79,76160,160
67,62,76320,480
71,62,76320,480
79,74,76320,480
74,62,76320,480
72,75,76800,160
84,89,76800,160
79,59,76960,160
83,70,76960,160
72,67,77120,160
84,79,77120,160
77,52,77280,160
81,62,77280,160
84,78,77440,160
72,66,77440,160
76,52,77600,160
79,62,77600,160
69,72,77760,160
81,85,77760,160
79,70,77920,160
76,59,77920,160
81,79,78080,160
69,67,78080,160
74,53,78240,160
77,63,78240,160
69,68,78400,160
81,80,78400,160
76,61,78560,160
72,51,78560,160
67,74,78720,160
79,88,78720,160
74,59,78880,160
77,70,78880,160
79,85,79040,160
67,72,79040,160
72,56,79200,160
76,66,79200,160
67,70,79360,160
79,83,79360,160
69,56,79520,160
72,66,79520,160
79,82,79680,480
67,69,79680,480
71,69,79680,480
74,69,79680,480
60,73,80160,240
72,84,80160,240
48,70,80640,960
60,79,80640,1920
62,61,81600,960
50,55,81600,960
72,48,82560,1920
63,42,82560,1920
75,48,82560,1920
48,41,84480,480
60,47,84480,960
62,49,84960,480
50,44,84960,480
77,52,85440,480
65,47,85440,480
72,52,85440,960
64,45,85920,480
76,50,85920,480
75,37,86400,1920
87,41,86400,1920
84,41,86400,1920
60,27,88200,360
63,27,88240,320
68,27,88280,280
72,39,88320,240
73,39,88560,120
60,26,88680,360
63,26,88712,328
68,26,88744,296
72,39,88776,264
74,39,88808,232
75,41,89040,120
68,28,89160,240
80,29,89220,300
84,44,89280,120
79,42,89520,120
68,28,89640,240
80,28,89680,200
77,27,89720,280
84,40,89760,120
76,39,90000,120
68,26,90120,240
80,26,90180,180
84,26,90240,120
75,39,90240,960
68,24,90600,240
80,25,90660,180
84,40,90720,120
82,26,91080,360
79,26,91140,300
73,41,91200,240
72,40,91440,120
79,26,91560,360
75,26,91620,300
70,39,91680,240
72,40,91920,120
80,25,92040,360
77,25,92100,300
73,42,92160,240
72,42,92400,120
77,26,92520,360
73,26,92580,300
70,41,92640,240
68,40,92880,120
75,25,93000,360
70,25,93060,300
67,42,93120,240
65,41,93360,120
73,24,93480,360
70,24,93540,300
63,40,93600,240
65,41,93840,120
75,28,93960,360
73,28,94020,300
67,44,94080,240
70,40,94320,120
75,26,94440,360
73,26,94500,300
65,42,94560,240
68,38,94800,120
75,26,94920,360
72,26,94980,300
63,40,95040,240
67,35,95280,120
75,25,95400,360
70,25,95460,300
61,39,95520,240
65,33,95760,120
60,39,96000,240
68,30,96060,120
72,30,96120,120
61,39,96240,240
62,39,96480,240
68,30,96540,120
72,30,96600,120
63,41,96720,240
60,31,96900,120
72,44,96960,240
75,33,97020,120
68,42,97200,240
65,40,97440,240
72,33,97500,120
75,33,97560,120
66,39,97680,180
67,39,97920,960
72,31,97980,120
75,31,98040,120
72,31,98400,120
75,31,98460,120
79,31,98520,120
83,26,98760,360
79,26,98820,300
75,41,98880,240
74,40,99120,120
79,26,99240,360
75,26,99300,300
72,39,99360,240
67,40,99600,120
77,25,99720,360
74,25,99780,300
70,42,99840,240
68,42,100080,120
74,26,100200,360
71,26,100260,300
67,41,100320,240
65,40,100560,120
71,25,100680,360
67,25,100740,300
63,42,100800,240
62,41,101040,120
67,24,101160,360
63,24,101220,300
60,40,101280,240
55,41,101520,120
67,28,101640,360
63,28,101700,300
60,44,101760,240
58,40,102000,120
63,26,102120,360
60,26,102180,540
56,42,102240,240
62,39,102720,960
59,39,102720,960
55,39,102720,480
53,38,103200,480
67,30,103680,480
55,30,103680,480
63,30,103680,480
57,36,104160,480
66,36,104160,480
69,36,104160,480
58,39,104640,960
70,39,104640,960
67,39,104640,960
79,30,105600,480
75,30,105600,480
67,30,105600,480
69,34,106080,480
78,34,106080,480
81,34,106080,480
82,30,106560,960
70,30,106560,960
79,30,106560,960
55,30,107520,480
64,30,107520,480
67,30,107520,480
57,33,108000,480
69,33,108000,480
66,33,108000,480
70,36,108480,480
58,36,108480,480
67,36,108480,480
60,39,108960,480
69,39,108960,480
72,39,108960,480
61,44,109440,480
70,44,109440,480
73,44,109440,480
72,48,109920,480
64,48,109920,480
76,48,109920,480
73,51,110400,960
65,51,110400,480
77,51,110400,480
79,55,110880,480
67,55,110880,480
72,45,111360,240
80,30,111420,120
84,34,111480,120
73,46,111600,240
74,48,111840,240
80,35,111900,180
84,35,111960,120
75,49,112080,240
72,35,112260,120
80,53,112320,240
84,38,112380,120
79,49,112560,240
77,49,112800,240
80,35,112860,120
84,35,112920,120
76,48,113040,240
72,31,113280,120
75,47,113280,960
80,31,113340,120
84,31,113400,120
72,31,113760,120
80,31,113820,120
84,31,113880,120
82,26,114120,360
79,26,114180,300
73,41,114240,240
72,40,114480,120
79,26,114600,360
75,26,114660,300
70,39,114720,240
72,40,114960,120
80,25,115080,360
77,25,115140,300
73,42,115200,240
72,42,115440,120
77,26,115560,360
73,26,115620,300
70,41,115680,240
68,40,115920,120
75,25,116040,360
70,25,116100,300
67,42,116160,240
65,41,116400,120
73,24,116520,360
70,24,116580,300
63,40,116640,240
65,41,116880,120
75,28,117000,360
73,28,117060,300
67,44,117120,240
70,40,117360,120
75,26,117480,360
73,26,117540,300
65,42,117600,240
68,38,117840,120
75,26,117960,360
72,26,118020,300
63,40,118080,240
67,35,118320,120
75,25,118440,360
70,25,118500,300
61,39,118560,240
65,33,118800,120
60,39,119040,240
68,30,119100,120
72,30,119160,120
61,39,119280,240
62,39,119520,240
68,30,119580,120
72,30,119640,120
63,41,119760,240
60,39,120000,240
72,44,120060,120
75,33,120120,120
68,42,120240,240
65,40,120480,240
72,33,120540,120
75,33,120600,120
64,39,120720,240
60,42,120960,240
63,35,121020,180
67,35,121080,120
72,35,121140,60
73,42,121200,240
70,42,121200,240
61,42,121200,240
62,49,121440,240
74,49,121440,240
71,49,121440,240
75,53,121680,240
72,53,121680,240
63,53,121680,240
87,63,121920,240
78,63,121920,240
75,63,121920,240
84,50,122160,240
72,50,122160,240
80,50,122160,240
80,46,122400,240
77,46,122400,240
68,46,122400,240
78,42,122640,240
75,42,122640,240
66,42,122640,240
77,41,122880,480
65,41,122880,480
73,41,122880,480
73,39,123360,480
76,39,123360,480
64,39,123360,480
63,35,123840,960
72,35,123840,960
75,35,123840,960
68,31,124800,480
56,31,124800,480
63,31,124800,480
55,30,125280,480
63,30,125280,480
67,30,125280,480
63,25,125760,960
54,25,125760,960
66,25,125760,960
79,35,126720,480
72,35,126720,480
67,35,126720,480
79,31,127200,480
74,31,127200,480
67,31,127200,480
75,35,127680,480
79,35,127680,480
67,35,127680,480
79,33,128160,480
74,33,128160,480
67,33,128160,480
79,39,128640,480
67,39,128640,480
75,35,128800,160
77,35,128960,160
74,36,129120,480
67,36,129120,480
79,36,129120,480
79,37,129600,480
75,37,129600,160
67,37,129600,480
72,34,129760,160
73,34,129920,160
70,36,130080,480
67,36,130080,480
79,36,130080,480
84,52,130560,160
72,52,130560,160
80,48,130720,160
70,48,130880,160
82,48,130880,160
79,53,131040,480
72,50,131520,160
84,50,131520,160
80,44,131680,160
82,48,131840,160
70,48,131840,160
79,40,132000,160
68,44,132160,160
80,44,132160,160
77,42,132320,160
78,45,132480,160
66,45,132480,160
75,45,132640,160
66,45,132800,160
78,45,132800,160
67,41,132960,480
74,41,132960,480
79,41,132960,480
81,48,133440,160
69,48,133440,160
75,48,133600,160
69,48,133760,160
81,48,133760,160
67,45,133920,480
79,45,133920,480
74,45,133920,480
72,61,134400,160
84,61,134400,160
79,59,134560,160
72,59,134720,160
84,59,134720,160
86,58,134880,480
79,58,134880,480
74,58,134880,480
88,69,135360,160
76,69,135360,160
79,66,135520,160
76,66,135680,160
88,66,135680,160
74,69,135840,480
86,69,135840,480
79,69,135840,480
79,80,136320,160
91,80,136320,160
88,77,136480,160
89,77,136640,160
77,65,136640,160
74,70,136800,480
62,70,136800,480
67,70,136800,480
88,88,137280,160
76,74,137280,160
79,84,137440,160
86,84,137600,160
74,71,137600,160
70,79,137760,480
64,79,137760,480
58,67,137760,480
72,78,138240,160
84,92,138240,160
77,74,138400,80
81,88,138400,80
72,74,138560,120
84,88,138560,120
76,92,138720,480
67,78,138720,480
79,92,138720,480
69,77,139200,160
81,91,139200,160
77,86,139360,80
74,73,139360,80
69,73,139520,120
81,86,139520,120
72,92,139680,480
64,78,139680,480
76,92,139680,480
67,78,140160,160
79,92,140160,160
72,70,140320,160
76,83,140320,160
79,92,140480,160
67,78,140480,160
74,70,140640,160
77,83,140640,160
67,78,140800,160
79,92,140800,160
76,83,140960,160
72,70,140960,160
79,92,141120,160
67,78,141120,160
69,73,141280,160
72,86,141280,160
67,73,141440,160
79,86,141440,160
74,77,141600,480
67,69,141600,480
71,76,141600,480
79,92,141600,480
72,75,142080,160
84,89,142080,160
83,70,142240,160
79,59,142240,160
72,67,142400,160
84,79,142400,160
77,52,142560,160
81,62,142560,160
72,66,142720,160
84,78,142720,160
76,52,142880,160
79,62,142880,160
81,85,143040,160
69,72,143040,160
76,59,143200,160
79,70,143200,160
69,67,143360,160
81,79,143360,160
77,63,143520,160
74,53,143520,160
81,80,143680,160
69,68,143680,160
72,51,143840,160
76,61,143840,160
67,74,144000,160
79,88,144000,160
77,70,144160,160
74,59,144160,160
67,72,144320,160
79,85,144320,160
72,56,144480,160
76,66,144480,160
79,83,144640,160
67,70,144640,160
69,56,144800,160
72,66,144800,160
67,66,144960,480
72,66,144960,480
76,92,144960,480
79,92,144960,480
79,89,145440,120
67,62,145440,120
71,70,145440,120
74,79,145440,120
64,37,146160,120
60,37,146160,120
55,37,146160,120
55,37,146400,120
59,37,146400,120
62,37,146400,120
64,35,146640,120
60,35,146640,120
55,35,146640,120
65,37,147120,120
60,37,147120,120
57,37,147120,120
60,37,147360,120
64,37,147360,120
55,37,147360,120
60,35,147600,120
57,35,147600,120
62,35,147600,120
55,37,148080,120
60,37,148080,120
64,37,148080,120
62,37,148320,120
59,37,148320,120
53,37,148320,120
52,35,148560,120
60,35,148560,120
59,37,148800,120
50,37,148800,120
62,37,148800,120
55,37,149040,120
60,37,149520,120
57,37,149520,120
48,37,149520,120
67,37,150000,120
60,37,150000,120
72,37,150000,120
71,37,150000,120
84,37,150480,120
81,37,150480,120
77,37,150480,120
72,37,150480,120
76,36,150960,120
84,36,150960,120
79,36,150960,120
83,37,151200,120
79,37,151200,120
74,37,151200,120
76,35,151440,120
79,35,151440,120
84,35,151440,120
81,35,151920,120
84,35,151920,120
88,35,151920,120
86,37,152160,120
81,37,152160,120
77,37,152160,120
76,35,152400,120
84,35,152400,120
81,35,152400,120
83,35,152880,120
79,35,152880,120
76,35,152880,120
81,37,153120,120
76,37,153120,120
72,37,153120,120
79,35,153360,120
76,35,153360,120
71,35,153360,120
66,39,153600,120
75,39,153600,120
78,39,153600,120
71,37,153840,120
76,37,154320,120
76,28,154800,120
75,28,154800,120
64,28,154800,120
64,27,155280,120
62,27,155280,120
52,27,155280,120
55,28,155760,120
60,28,155760,120
64,28,155760,120
62,29,156000,120
59,29,156000,120
55,29,156000,120
55,27,156240,120
64,27,156240,120
60,27,156240,120
65,35,156720,120
60,35,156720,120
57,35,156720,120
64,35,156960,120
55,35,156960,120
60,35,156960,120
62,33,157200,120
57,33,157200,120
60,33,157200,120
64,33,157680,120
60,33,157680,120
55,33,157680,120
53,33,157920,120
62,33,157920,120
59,33,157920,120
52,31,158160,120
60,31,158160,120
50,31,158400,120
62,31,158400,120
59,31,158400,120
55,30,158640,120
60,30,159120,120
48,30,159120,120
72,26,159600,120
70,26,159600,120
60,26,159600,120
84,24,160080,120
80,24,160080,120
72,24,160080,120
84,29,160560,240
79,29,160560,720
75,29,160560,240
83,29,160800,240
74,29,160800,240
75,28,161040,240
84,28,161040,240
72,26,161520,720
79,26,161520,240
75,26,161520,240
74,26,161760,240
77,26,161760,240
75,25,162000,240
79,25,162000,240
75,26,162480,240
67,26,162480,720
72,26,162480,240
71,26,162720,240
74,26,162720,240
72,26,162960,240
75,26,162960,240
72,29,163200,480
68,29,163200,480
68,27,163680,480
65,27,163680,480
72,27,163680,480
72,26,164160,480
68,26,164160,480
60,26,164160,480
65,25,164640,480
73,25,164640,480
80,29,165360,720
86,29,165360,240
77,29,165360,240
84,29,165600,240
75,29,165600,240
77,27,165840,240
86,27,165840,240
82,26,166320,240
79,26,166320,240
74,26,166320,720
77,26,166560,240
80,26,166560,240
82,26,166800,240
79,26,166800,240
79,26,167280,240
70,26,167280,720
75,26,167280,240
77,26,167520,240
74,26,167520,240
75,26,167760,240
79,26,167760,240
75,29,168000,480
72,29,168000,480
68,27,168480,480
75,27,168480,480
72,27,168480,480
72,26,168960,480
75,26,168960,480
63,26,168960,480
68,25,169440,480
77,25,169440,480
86,29,170160,720
91,29,170160,240
82,29,170160,240
89,29,170400,240
80,29,170400,240
82,27,170640,240
91,27,170640,240
84,26,171120,240
87,26,171120,240
79,26,171120,720
82,26,171360,240
86,26,171360,240
87,26,171600,240
84,26,171600,240
84,26,172080,240
75,26,172080,720
80,26,172080,240
82,26,172320,240
79,26,172320,240
80,26,172560,240
84,26,172560,240
80,30,172800,480
77,30,172800,480
80,30,173280,480
74,30,173280,480
77,30,173280,480
77,30,173760,480
80,30,173760,480
68,30,173760,480
74,30,174240,480
80,30,174240,480
72,29,174720,480
75,29,174720,480
78,29,174720,480
81,29,174720,480
78,28,175200,480
81,28,175200,480
72,28,175200,480
75,28,175200,480
72,30,175680,480
75,30,175680,480
78,30,175680,480
81,30,175680,480
78,30,176160,480
72,30,176160,480
75,30,176160,480
81,30,176160,480
87,31,177120,120
84,30,177240,120
81,34,177360,120
78,34,177480,120
72,37,177600,120
69,36,177720,120
66,39,177840,120
63,38,177960,120
101,45,181920,120
98,41,182040,120
89,35,182160,120
85,33,182280,120
86,35,182400,120
82,33,182520,120
74,35,182640,120
69,35,182760,120
70,35,182880,120
65,33,183000,120
62,35,183120,120
60,33,183240,120
102,48,186720,120
99,35,186840,120
90,35,186960,120
86,31,187080,120
87,35,187200,120
83,33,187320,120
75,35,187440,120
70,35,187560,120
71,35,187680,120
66,33,187800,120
63,35,187920,120
61,33,188040,120
104,52,191520,120
101,35,191640,120
92,35,191760,120
88,34,191880,120
89,35,192000,120
85,34,192120,120
77,35,192240,120
72,33,192360,120
73,35,192480,120
68,34,192600,120
65,35,192720,120
63,34,192840,120
73,41,193440,480
61,41,193440,480
73,41,193920,480
61,41,193920,480
70,41,193920,480
70,52,194400,480
66,52,194400,480
75,52,194400,480
78,52,194400,480
66,57,194880,480
78,57,194880,480
71,57,194880,480
75,57,194880,480
83,63,195360,480
80,63,195360,480
75,63,195360,480
71,63,195360,480
70,63,195840,960
74,63,195840,960
77,63,195840,960
82,63,195840,960
101,70,196320,120
98,56,196440,120
89,56,196560,120
86,53,196680,120
82,56,196800,120
74,53,196920,120
70,56,197040,240
82,62,197280,480
90,62,197280,480
87,62,197280,480
78,62,197280,480
89,62,197760,960
86,62,197760,960
77,62,197760,960
82,62,197760,960
74,57,198240,960
70,57,198240,960
65,57,198240,480
77,57,198240,480
87,67,199200,480
83,67,199200,480
78,67,199200,480
75,67,199200,480
73,67,199680,960
85,67,199680,960
80,67,199680,960
77,67,199680,960
104,72,200160,120
101,68,200280,120
92,68,200400,120
89,66,200520,120
85,68,200640,120
77,67,200760,120
73,68,200880,240
94,76,201120,480
90,76,201120,480
85,69,201120,480
82,69,201120,480
85,69,201600,960
80,69,201600,960
89,76,201600,960
92,76,201600,960
68,73,202080,960
80,73,202080,480
77,73,202080,960
73,73,202080,960
73,66,203040,960
68,66,203040,480
76,66,203040,960
80,66,203040,960
80,79,204000,480
92,88,204000,480
85,79,204000,480
88,79,204000,480
78,79,204480,480
82,79,204480,480
85,79,204480,480
90,88,204480,480
89,88,204960,480
85,79,204960,480
77,79,204960,480
82,79,204960,480
76,82,205440,480
82,82,205440,480
85,82,205440,480
88,92,205440,480
87,94,205920,480
75,84,205920,480
83,84,205920,480
87,97,206400,480
82,88,206400,480
75,88,206400,480
75,89,206880,480
87,100,206880,480
81,89,206880,480
82,91,207360,360
87,102,207360,360
79,91,207360,360
75,91,207360,360
65,75,207840,120
77,84,207840,120
70,75,207840,120
74,75,207840,120
67,74,208080,120
70,74,208080,120
75,83,208080,120
79,83,208080,120
80,95,208320,480
75,85,208320,480
68,85,208320,480
72,85,208320,480
67,74,208800,120
70,74,208800,120
75,74,208800,120
79,83,208800,120
75,73,209040,120
65,73,209040,120
72,73,209040,120
77,82,209040,120
67,85,209280,480
70,85,209280,480
75,85,209280,480
79,95,209280,480
74,88,209760,120
77,88,209760,120
65,79,209760,120
68,79,209760,120
63,74,210000,120
67,74,210000,120
70,74,210000,120
75,83,210000,120
77,82,210240,120
65,73,210240,120
74,73,210240,120
70,79,210480,120
63,83,210720,480
72,93,210720,480
75,93,210720,480
75,86,211200,480
70,78,211200,480
74,86,211200,480
63,78,211200,480
63,77,211680,420
68,77,211680,420
72,85,211680,420
75,85,211680,420
75,88,212160,480
63,79,212160,480
67,79,212160,480
70,88,212160,480
62,82,212640,120
65,82,212640,120
70,82,212640,120
74,92,212640,120
70,79,212880,120
75,88,212880,120
63,79,212880,120
67,79,212880,120
72,86,213120,480
75,86,213120,480
79,96,213120,480
67,86,213120,480
72,81,213600,120
65,81,213600,120
68,81,213600,120
77,91,213600,120
63,80,213840,120
67,80,213840,120
75,90,213840,120
72,80,213840,120
70,84,214080,480
67,84,214080,480
62,84,214080,480
74,94,214080,480
60,75,214560,120
63,75,214560,120
67,75,214560,120
72,84,214560,120
62,72,214800,120
58,72,214800,120
67,81,214800,120
70,81,214800,120
57,75,215040,120
69,84,215040,120
66,84,215040,120
62,80,215280,120
67,90,215520,480
55,80,215520,480
55,79,216000,480
66,88,216000,480
67,88,216000,480
67,82,216480,420
55,73,216480,420
65,82,216480,420
67,67,216960,480
70,67,216960,480
75,67,216960,480
79,74,216960,480
74,59,217440,240
77,67,217440,240
65,59,217440,240
70,59,217440,240
67,64,217680,240
70,64,217680,240
75,64,217680,240
79,72,217680,240
75,70,217920,480
68,70,217920,480
72,70,217920,480
80,79,217920,480
67,60,218400,240
70,60,218400,240
79,68,218400,240
75,60,218400,240
77,70,218640,240
72,62,218640,240
65,62,218640,240
75,62,218640,240
67,67,218880,480
70,67,218880,480
75,67,218880,480
79,74,218880,480
68,66,219360,240
65,66,219360,240
74,66,219360,240
77,73,219360,240
63,63,219600,240
75,71,219600,240
67,63,219600,240
70,63,219600,240
74,72,219840,240
65,64,219840,240
77,72,219840,240
70,70,220080,240
63,80,220320,480
75,80,220320,480
75,83,220800,480
73,83,220800,480
63,74,220800,480
63,79,221280,420
70,89,221280,420
75,89,221280,420
80,90,221760,480
83,90,221760,480
92,101,221760,480
87,90,221760,480
86,93,222240,120
82,93,222240,120
74,83,222240,120
87,90,222480,120
83,90,222480,120
75,80,222480,120
80,89,222720,480
83,100,222720,480
76,89,222720,480
71,89,222720,480
79,88,223200,120
67,79,223200,120
75,79,223200,120
68,77,223440,120
80,85,223440,120
76,77,223440,120
76,96,223680,480
73,86,223680,480
68,86,223680,480
64,86,223680,480
60,74,224160,120
72,83,224160,120
68,74,224160,120
73,83,224400,120
64,74,224400,120
61,74,224400,120
59,81,224640,480
71,91,224640,480
62,81,224640,480
65,81,224640,480
63,83,225120,120
58,83,225120,120
70,93,225120,480
59,82,225360,120
63,82,225360,120
68,92,225360,120
66,93,225600,360
58,83,225600,360
63,83,225600,360
70,93,225600,360
56,83,226080,360
62,83,226080,360
70,93,226080,360
65,83,226080,360
58,83,226560,120
54,83,226560,120
63,93,226560,120
82,79,226920,120
70,67,226920,120
65,72,227040,120
66,67,227400,120
78,79,227400,120
63,72,227520,120
82,81,227880,120
70,69,227880,120
65,74,228000,120
66,69,228360,120
78,81,228360,120
63,74,228480,120
75,73,228840,120
87,86,228840,120
65,74,228960,120
89,82,229320,120
77,69,229320,120
66,74,229440,120
78,69,229800,120
90,82,229800,120
69,74,229920,120
93,93,230280,120
81,79,230280,120
94,83,230400,480
82,74,230400,480
90,74,230400,480
87,74,230400,480
68,79,230880,480
62,79,230880,480
70,79,230880,480
74,88,230880,480
63,70,231360,120
66,70,231360,120
75,79,231360,120
83,71,231720,120
71,59,231720,120
66,66,231840,120
79,73,232200,120
67,73,232200,120
63,66,232320,120
83,77,232680,120
71,65,232680,120
66,66,232800,120
79,74,233160,120
67,62,233160,120
63,66,233280,120
90,77,233640,120
78,57,233640,120
65,72,233760,120
89,80,234120,120
77,60,234120,120
63,71,234240,120
87,80,234600,120
75,60,234600,120
57,69,234720,120
93,86,235080,120
81,78,235080,120
94,82,235200,480
90,73,235200,480
87,73,235200,480
82,73,235200,480
87,78,235680,480
75,71,235680,480
80,71,235680,480
83,78,235680,480
63,66,236160,480
69,66,236160,480
72,66,236160,480
75,74,236160,480
62,63,236640,480
65,63,236640,480
56,63,236640,480
58,63,236640,480
70,71,236640,480
63,53,239040,80
62,51,239200,80
63,53,239360,80
65,53,239520,80
63,51,239680,80
62,53,239840,80
66,56,240000,80
62,53,240160,80
65,53,240160,80
63,56,240320,80
66,56,240320,80
68,56,240480,80
66,52,240640,80
63,52,240640,80
65,56,240800,80
62,56,240800,80
75,66,240960,80
86,63,241120,80
74,63,241120,80
75,66,241280,80
87,66,241280,80
77,66,241440,80
87,63,241600,80
75,63,241600,80
77,66,241760,80
89,66,241760,80
78,77,241920,80
77,74,242080,80
89,74,242080,80
90,77,242240,80
78,77,242240,80
80,85,242400,80
90,83,242560,80
78,83,242560,80
77,85,242720,80
89,85,242720,80
87,78,242880,80
82,78,242880,80
90,86,242880,80
78,78,242880,80
77,84,243040,80
89,84,243040,80
78,86,243200,80
90,86,243200,80
87,78,243360,80
83,78,243360,80
92,86,243360,80
80,78,243360,80
78,83,243520,80
90,83,243520,80
89,86,243680,80
77,86,243680,80
90,88,243840,80
87,79,243840,80
78,79,243840,80
82,79,243840,80
77,85,244000,80
89,85,244000,80
90,88,244160,80
78,88,244160,80
83,79,244320,80
87,79,244320,80
92,88,244320,80
80,79,244320,80
90,85,244480,80
78,85,244480,80
77,88,244640,80
89,88,244640,80
82,79,244800,80
87,79,244800,80
90,88,244800,80
78,79,244800,80
77,85,244960,80
89,85,244960,80
75,88,245120,80
87,88,245120,80
87,79,245280,80
83,79,245280,80
90,88,245280,80
78,79,245280,80
89,85,245440,80
77,85,245440,80
87,88,245600,80
75,88,245600,80
90,89,245760,80
78,79,245760,80
87,79,245760,80
84,79,245760,80
81,79,245760,80
89,85,245920,80
77,85,245920,80
87,89,246080,80
75,89,246080,80
82,79,246240,80
89,89,246240,80
86,79,246240,80
77,79,246240,80
70,92,246480,80
82,92,246480,80
75,101,246720,160
87,101,246720,160
78,86,247200,480
83,86,247200,480
87,96,247200,480
75,86,247200,480
85,96,247680,480
82,86,247680,480
78,86,247680,480
73,86,247680,480
80,82,248160,480
83,92,248160,480
71,82,248160,480
75,82,248160,480
70,86,248640,960
82,96,248640,1920
75,86,248640,960
78,86,248640,1920
70,90,249600,240
63,80,249600,240
66,80,249600,240
75,90,249600,240
63,80,250080,240
75,90,250080,240
66,80,250080,240
70,80,250080,240
99,90,250560,960
94,80,250560,960
90,76,250560,960
87,75,250560,960
39,62,0,480
46,62,0,480
51,70,0,480
34,50,480,120
46,57,480,120
39,50,720,120
51,57,720,120
32,62,960,480
44,70,960,480
39,49,1440,120
51,55,1440,120
32,49,1680,120
44,55,1680,120
39,62,1920,480
46,62,1920,480
51,70,1920,480
34,48,2400,120
46,53,2400,120
27,48,2640,120
39,53,2640,120
34,48,2880,120
46,53,2880,120
58,53,3120,120
46,48,3120,120
39,61,3360,480
51,61,3360,480
62,62,3840,480
58,56,3840,480
51,56,3840,480
51,61,4320,420
56,55,4320,420
60,61,4320,420
39,53,4800,480
46,53,4800,480
51,60,4800,480
34,49,5280,120
46,56,5280,120
39,49,5520,120
51,56,5520,120
36,59,5760,480
48,67,5760,480
41,48,6240,120
53,53,6240,120
36,48,6480,120
48,53,6480,120
43,52,6720,480
46,52,6720,480
50,52,6720,480
55,59,6720,480
36,50,7200,120
48,57,7200,120
31,49,7440,120
43,56,7440,120
26,49,7680,120
38,55,7680,120
50,52,7920,120
38,47,7920,120
31,55,8160,480
43,61,8160,480
54,61,8640,480
43,55,8640,480
43,52,9120,420
53,59,9120,420
39,70,9600,480
46,70,9600,480
51,70,9600,480
34,49,10080,120
46,56,10080,120
39,49,10320,120
51,56,10320,120
32,62,10560,480
44,70,10560,480
39,49,11040,120
51,56,11040,120
32,49,11280,120
44,56,11280,120
39,62,11520,480
46,62,11520,480
51,70,11520,480
34,49,12000,120
46,56,12000,120
27,48,12240,120
39,53,12240,120
34,47,12480,120
46,52,12480,120
58,52,12720,120
46,47,12720,120
39,59,12960,480
51,66,12960,480
39,66,13440,480
37,66,13440,480
49,73,13440,480
35,68,13920,450
39,68,13920,450
47,75,13920,450
34,72,14400,480
39,72,14400,480
42,72,14400,480
46,81,14400,480
42,67,14880,240
54,74,14880,240
39,64,15120,240
51,72,15120,240
47,69,15360,480
51,69,15360,480
54,69,15360,480
59,77,15360,480
39,62,15840,240
51,70,15840,240
35,62,16080,240
47,70,16080,240
56,73,16320,480
51,66,16320,480
47,66,16320,480
44,66,16320,480
35,59,16800,240
47,66,16800,240
32,59,17040,240
44,66,17040,240
39,62,17280,480
45,62,17280,480
48,62,17280,480
51,70,17280,480
22,49,17760,480
34,56,17760,480
22,49,18240,480
34,56,18240,480
22,51,18720,480
34,51,18720,480
46,59,19200,480
58,66,19200,480
45,42,19680,480
46,42,19680,480
58,48,19680,480
43,42,20160,480
46,42,20160,480
58,48,20160,480
41,42,20640,480
46,42,20640,480
57,48,20640,480
58,48,20640,480
39,46,21120,480
46,46,21120,480
55,51,21120,480
58,51,21120,480
36,40,21600,480
46,40,21600,480
51,40,21600,480
57,46,21600,480
60,46,21600,480
34,40,22080,960
46,46,22080,1920
53,46,22080,1920
58,46,22080,1920
62,46,22080,1920
22,39,22560,480
34,44,22560,480
34,44,23040,480
22,39,23040,480
22,39,23520,480
34,44,23520,480
58,51,24000,480
55,47,24480,480
58,52,24480,480
51,49,24960,480
55,56,24960,480
48,52,25440,480
51,52,25440,480
55,59,25440,480
44,52,25920,480
48,52,25920,480
51,59,25920,480
56,59,25920,480
41,57,26400,480
44,57,26400,480
48,57,26400,480
53,63,26400,480
43,62,26880,1920
47,62,26880,1920
50,62,26880,1920
55,70,26880,1920
31,43,27360,480
31,43,27840,480
31,43,28320,480
55,51,28800,480
53,51,29280,480
55,51,29280,480
51,47,29760,480
55,52,29760,480
50,49,30240,480
53,56,30240,480
55,56,30240,480
48,52,30720,480
51,59,30720,480
55,59,30720,480
41,56,31200,480
48,56,31200,480
53,62,31200,480
46,59,31680,1920
50,66,31680,1920
53,66,31680,1920
22,39,32160,480
34,44,32160,480
22,41,32640,480
34,41,32640,480
22,38,33120,480
34,38,33120,480
58,51,33600,480
54,45,34080,480
58,51,34080,480
51,54,34560,480
54,47,34560,480
58,54,34560,480
47,54,35040,480
51,54,35040,480
54,60,35040,480
59,60,35040,480
44,57,35520,480
47,57,35520,480
51,64,35520,480
56,64,35520,480
40,61,36000,480
44,61,36000,480
47,69,36000,480
52,69,36000,480
47,69,36480,960
51,69,36480,960
54,69,36480,960
59,77,36480,960
27,70,36960,480
30,67,37080,120
35,70,37200,120
39,67,37320,120
42,70,37440,480
47,67,37560,120
51,70,37680,120
54,67,37800,120
59,70,37920,480
63,67,38040,120
66,70,38160,120
71,67,38280,120
58,67,38400,360
63,67,38400,360
67,67,38400,360
70,74,38400,360
58,58,38880,120
46,51,38880,120
39,51,39120,120
51,58,39120,120
63,70,39360,480
60,62,39360,480
56,62,39360,480
51,62,39360,480
39,50,39840,120
51,57,39840,120
32,50,40080,120
44,57,40080,120
39,62,40320,480
46,62,40320,480
51,70,40320,480
34,50,40800,120
46,57,40800,120
27,49,41040,120
39,56,41040,120
34,49,41280,120
46,55,41280,120
58,52,41520,120
46,47,41520,120
39,57,41760,480
51,63,41760,480
62,62,42240,480
58,56,42240,480
51,56,42240,480
51,55,42720,480
56,55,42720,480
60,61,42720,480
39,53,43200,480
46,53,43200,480
51,60,43200,480
34,53,43680,120
46,60,43680,120
39,53,43920,120
51,60,43920,120
36,58,44160,480
48,64,44160,480
41,51,44640,120
53,58,44640,120
36,51,44880,120
48,58,44880,120
43,56,45120,480
50,56,45120,480
55,62,45120,480
36,50,45600,120
48,57,45600,120
31,50,45840,120
43,57,45840,120
26,49,46080,120
38,56,46080,120
50,53,46320,120
38,48,46320,120
31,47,46560,480
43,52,46560,480
54,61,47040,480
43,55,47040,480
43,52,47520,360
53,59,47520,360
39,50,48000,480
46,50,48000,480
51,59,48000,480
34,46,48480,120
46,55,48480,120
39,49,48720,120
51,58,48720,120
32,51,48960,480
44,61,48960,480
39,48,49440,120
51,57,49440,120
32,45,49680,120
44,54,49680,120
39,47,49920,480
46,47,49920,480
51,56,49920,480
34,49,50400,120
46,58,50400,120
51,56,50640,120
39,47,50640,120
34,48,50880,120
46,57,50880,120
58,57,51120,120
46,50,51120,120
39,49,51360,480
51,56,51360,480
39,55,51840,480
38,55,51840,480
50,61,51840,480
36,58,52320,480
39,58,52320,480
48,64,52320,480
31,72,52800,480
36,72,52800,480
39,72,52800,480
43,81,52800,480
39,67,53280,120
51,74,53280,120
48,74,53520,120
36,67,53520,120
44,69,53760,480
51,69,53760,480
56,77,53760,480
36,62,54240,120
48,70,54240,120
32,62,54480,120
44,70,54480,120
53,74,54720,480
48,67,54720,480
44,67,54720,480
41,67,54720,480
32,59,55200,240
44,66,55200,240
29,59,55440,240
41,66,55440,240
48,62,55680,480
51,62,55680,480
54,62,55680,480
57,70,55680,480
60,70,55680,480
31,62,56160,240
43,70,56160,240
31,53,56640,180
43,58,56640,180
31,48,57120,180
43,55,57120,180
32,46,57600,1920
36,46,57600,1920
44,51,57600,1920
60,35,59520,1910
56,35,59520,1920
51,30,59520,1910
36,27,61440,480
48,33,61440,160
43,33,61600,160
48,33,61760,160
36,25,61920,480
43,30,61920,480
36,27,62400,480
48,33,62400,160
43,33,62560,160
48,33,62720,160
36,25,62880,480
43,30,62880,480
36,29,63360,480
51,35,63360,160
43,35,63520,160
50,35,63680,160
36,29,63840,480
43,35,63840,480
36,27,64320,480
48,33,64320,160
43,33,64480,160
46,33,64640,160
43,33,64800,480
36,27,64800,480
36,35,65280,320
44,35,65288,160
48,35,65440,160
43,33,65600,160
36,33,65600,640
46,31,65756,480
36,31,66240,320
44,38,66240,160
48,35,66400,160
36,29,66560,320
43,35,66560,160
46,34,66720,160
36,26,66880,320
41,35,66880,160
44,31,67040,160
36,29,67200,480
39,35,67204,160
44,33,67360,160
39,33,67524,160
31,29,67680,480
43,35,67680,480
36,29,68160,480
39,35,68160,160
45,34,68320,160
39,34,68480,160
31,29,68640,480
43,35,68640,480
52,41,69120,160
36,41,69120,480
43,38,69280,160
52,38,69440,160
50,37,69600,480
55,37,69600,480
43,37,69600,480
48,37,69600,480
36,48,70080,480
48,48,70080,160
43,44,70240,160
48,44,70400,160
55,39,70560,480
50,39,70560,480
48,39,70560,480
43,39,70560,480
36,52,71040,480
52,52,71040,160
43,48,71200,160
50,48,71360,160
43,46,71520,480
48,46,71520,480
50,46,71520,480
55,46,71520,480
36,54,72000,480
48,60,72000,160
43,53,72160,160
46,53,72320,160
55,53,72480,480
48,53,72480,480
43,53,72480,480
36,56,72960,160
41,56,72960,160
45,66,72960,160
48,52,73120,80
55,56,73280,640
48,47,73280,640
52,47,73280,640
60,64,73440,480
38,56,73920,160
41,56,73920,160
45,66,73920,160
50,62,74080,80
45,47,74240,640
48,47,74240,640
52,56,74240,640
57,63,74400,480
31,67,74880,160
43,52,75040,160
52,64,75200,160
48,54,75200,160
43,42,75360,160
55,50,75360,160
50,52,75520,160
53,62,75520,160
43,40,75680,160
55,48,75680,160
48,57,75840,160
52,68,75840,160
43,44,76000,160
55,52,76000,160
45,52,76160,160
48,62,76160,160
43,49,76320,480
47,49,76320,480
50,58,76320,480
55,58,76320,480
36,62,76800,160
48,58,76960,160
57,57,77120,480
53,48,77120,480
48,44,77280,480
60,52,77280,480
52,51,77600,160
55,51,77600,160
33,58,77760,160
45,58,77920,160
53,58,78080,480
50,49,78080,480
45,44,78240,480
57,52,78240,480
48,49,78560,160
52,49,78560,160
31,58,78720,160
43,52,78880,160
52,59,79040,160
48,50,79040,160
43,52,79200,160
55,52,79200,160
45,59,79360,160
48,59,79360,160
43,51,79520,160
55,51,79520,160
31,37,79680,480
35,37,79680,480
38,44,79680,480
43,44,79680,480
36,50,80160,180
48,59,80160,180
34,50,80400,180
46,59,80400,180
32,53,80640,1920
36,53,80640,1920
44,60,80640,1920
51,34,82560,1920
56,38,82560,1920
60,38,82560,1910
32,29,84480,960
36,29,84480,960
44,33,84480,960
48,37,85440,960
44,37,85440,960
53,37,85440,480
52,35,85920,480
63,28,86400,1920
60,28,86400,1920
56,25,86400,1920
51,25,86400,1920
32,22,88200,240
44,27,88320,120
48,22,88560,120
44,17,88740,180
56,26,88800,120
60,22,89040,120
56,17,89220,180
68,27,89280,120
60,23,89520,120
44,17,89700,180
56,27,89760,120
48,24,90000,120
32,16,90180,180
44,27,90240,120
48,22,90480,120
44,17,90660,180
56,26,90720,120
60,22,90960,120
56,16,91140,180
63,27,91200,120
67,24,91440,120
56,15,91620,180
61,27,91680,120
63,24,91920,120
56,15,92100,180
65,26,92160,120
68,24,92400,120
56,16,92580,180
61,27,92640,120
65,24,92880,120
44,16,93060,180
49,26,93120,120
51,24,93360,120
44,17,93480,240
51,17,93540,180
55,26,93600,120
56,24,93840,120
44,17,93960,240
51,17,94020,180
58,24,94080,120
61,24,94320,120
44,17,94440,240
51,17,94500,180
56,24,94560,120
60,24,94800,120
44,17,94920,240
51,17,94980,180
55,22,95040,120
58,24,95280,120
44,16,95400,240
51,16,95460,180
56,22,95520,120
55,19,95760,120
44,22,95940,180
56,27,96000,120
48,22,96240,120
32,17,96420,180
44,26,96480,120
48,22,96720,120
44,17,96900,180
56,27,96960,120
48,23,97200,120
32,17,97380,180
44,27,97440,120
48,24,97680,120
31,16,97860,180
43,27,97920,120
48,22,98160,120
43,17,98340,180
55,26,98400,120
60,22,98640,120
53,16,98820,180
55,27,98880,120
59,24,99120,120
51,15,99300,180
60,27,99360,120
63,24,99600,120
53,15,99780,180
62,26,99840,120
65,24,100080,120
55,16,100260,180
59,27,100320,120
62,24,100560,120
43,16,100740,180
55,26,100800,120
59,24,101040,120
39,17,101220,180
48,26,101280,120
51,24,101520,120
39,17,101700,180
49,24,101760,120
51,24,102000,120
44,17,102180,180
48,24,102240,120
51,24,102480,120
32,28,102660,180
39,35,102720,120
44,30,102960,120
51,38,103680,120
39,33,103920,120
27,40,104160,120
39,33,104400,120
61,27,104640,960
51,27,104640,960
49,36,105600,120
37,30,105840,120
25,36,106080,120
37,29,106320,120
64,23,106560,950
61,23,106560,960
52,23,106560,960
48,28,107520,120
36,29,107760,120
24,30,108000,120
36,31,108240,120
48,22,108420,120
52,34,108480,60
48,35,108720,120
36,35,108960,120
48,37,109200,120
46,26,109380,120
53,38,109440,60
46,39,109680,120
34,40,109920,120
53,42,110160,120
51,27,110340,120
58,44,110400,60
39,44,110640,120
27,46,110880,120
51,47,111120,120
32,22,111300,180
44,27,111360,120
48,22,111600,120
44,17,111780,180
56,26,111840,120
60,22,112080,120
56,17,112260,180
68,27,112320,120
60,23,112560,120
44,17,112740,180
56,27,112800,120
48,24,113040,120
32,16,113220,180
44,27,113280,120
48,22,113520,120
44,17,113700,180
56,26,113760,120
60,22,114000,120
56,16,114180,180
63,27,114240,120
67,24,114480,120
56,15,114660,180
61,27,114720,120
63,24,114960,120
56,15,115140,180
65,26,115200,120
68,24,115440,120
56,16,115620,180
61,27,115680,120
65,24,115920,120
44,16,116100,180
49,26,116160,120
51,24,116400,120
44,17,116520,240
51,17,116580,180
55,26,116640,120
56,24,116880,120
44,17,117000,240
51,17,117060,180
58,24,117120,120
61,24,117360,120
44,17,117480,240
51,17,117540,180
56,24,117600,120
60,24,117840,120
44,17,117960,240
51,17,118020,180
55,22,118080,120
58,24,118320,120
44,16,118440,240
51,16,118500,180
56,22,118560,120
55,19,118800,120
44,22,118980,180
56,27,119040,120
48,22,119280,120
32,17,119460,180
44,26,119520,120
48,22,119760,120
44,22,119940,180
56,27,120000,120
48,23,120240,120
32,17,120420,180
44,27,120480,120
48,29,120720,120
44,26,120900,180
56,34,120960,120
51,30,121200,120
32,26,121320,240
44,35,121440,120
48,40,121680,120
56,37,121800,240
68,46,121920,120
60,37,122160,120
44,32,122280,240
56,40,122400,120
48,28,122640,120
25,28,122760,240
37,35,122880,120
44,35,123120,120
37,26,123300,180
49,33,123360,120
56,29,123600,120
68,35,123840,900
56,35,123840,900
60,35,123840,900
24,27,124680,240
36,34,124800,120
44,28,125040,120
36,23,125220,180
48,30,125280,120
56,23,125520,120
60,26,125760,960
56,26,125760,960
48,26,125760,960
48,30,126720,160
36,25,126720,480
43,28,126880,160
48,28,127040,160
62,18,127200,480
55,18,127200,480
50,18,127200,480
51,30,127680,160
36,25,127680,480
43,27,127840,160
51,27,128000,160
62,19,128160,480
50,19,128160,480
55,19,128160,480
51,27,128640,160
36,23,128640,480
43,24,128800,160
50,24,128960,160
43,20,129120,480
48,20,129120,480
55,20,129120,480
48,27,129600,160
36,23,129600,480
43,26,129760,160
46,26,129920,160
43,22,130080,480
48,22,130080,480
55,22,130080,480
44,41,130560,160
36,41,130560,480
48,35,130720,160
48,35,130880,640
55,35,130880,160
58,35,131040,480
36,36,131520,320
44,36,131520,160
48,30,131680,160
48,35,131840,320
55,35,131840,160
58,29,132000,160
48,31,132160,320
53,31,132160,160
56,30,132320,160
36,35,132480,480
39,35,132480,160
44,35,132640,160
51,35,132800,160
43,25,132960,480
48,25,132960,480
50,25,132960,480
55,25,132960,480
36,38,133440,480
39,38,133440,160
45,38,133600,160
51,38,133760,160
43,30,133920,480
48,30,133920,480
50,30,133920,480
55,30,133920,480
36,46,134400,480
43,46,134400,480
52,46,134400,480
50,39,134880,160
48,39,134880,160
55,39,134880,160
43,48,135040,160
50,38,135200,160
48,38,135200,160
55,38,135200,160
36,48,135360,480
43,48,135360,480
48,48,135360,480
48,39,135840,160
50,39,135840,160
55,39,135840,160
43,49,136000,160
48,39,136160,160
50,39,136160,160
55,39,136160,160
36,55,136320,480
43,55,136320,480
52,55,136320,240
50,49,136560,240
50,45,136800,160
48,45,136800,160
55,45,136800,160
43,57,136960,160
50,47,137120,160
48,47,137120,160
55,47,137120,160
36,62,137280,480
43,62,137280,480
48,62,137280,240
46,61,137520,240
48,53,137760,160
55,53,137760,160
43,62,137920,160
48,52,138080,160
55,52,138080,160
36,52,138240,480
41,52,138240,480
45,62,138240,480
48,62,138240,480
52,51,138720,160
55,51,138720,160
60,60,138720,160
48,62,138880,160
52,48,139040,160
55,48,139040,160
60,57,139040,160
38,52,139200,480
41,52,139200,480
45,52,139200,480
50,62,139200,480
48,45,139680,160
52,45,139680,160
57,53,139680,160
45,60,139840,160
48,46,140000,160
52,46,140000,160
57,55,140000,160
31,59,140160,320
43,70,140160,320
52,63,140480,160
48,53,140480,160
43,59,140640,160
55,70,140640,160
50,56,140800,160
53,67,140800,160
43,56,140960,160
55,67,140960,160
48,59,141120,160
52,70,141120,160
43,56,141280,160
55,66,141280,160
45,56,141440,160
48,66,141440,160
43,56,141600,480
47,56,141600,480
50,56,141600,480
55,73,141600,480
36,62,142080,160
48,58,142240,160
57,57,142400,480
53,48,142400,480
48,44,142560,480
60,52,142560,480
52,51,142880,160
55,51,142880,160
33,58,143040,160
45,58,143200,160
53,58,143360,480
50,58,143360,480
45,44,143520,480
57,52,143520,480
48,49,143840,160
52,49,143840,160
31,58,144000,160
43,52,144160,160
53,59,144320,160
50,50,144320,160
43,44,144480,160
55,52,144480,160
48,50,144640,160
52,59,144640,160
43,43,144800,640
55,51,144800,640
45,66,144960,480
48,66,144960,480
43,42,145260,180
47,46,145320,240
50,48,145380,180
55,52,145440,120
36,39,145920,120
31,29,146400,120
36,29,146640,120
29,30,146880,120
36,29,147360,120
29,29,147600,120
36,33,147840,120
31,29,148320,120
36,29,148560,120
31,29,148800,120
43,29,149040,120
36,30,149280,120
55,29,149760,120
59,29,149760,120
48,29,149760,120
69,29,150240,120
65,29,150240,120
60,29,150240,120
67,33,150720,120
64,33,150720,120
60,33,150720,120
55,29,151200,120
60,29,151440,120
57,29,151680,120
62,29,152160,120
57,29,152400,120
64,30,152640,120
57,29,153120,120
64,29,153360,120
59,29,153600,120
64,29,154080,120
51,27,154560,120
52,27,154560,120
63,27,154560,120
38,24,155040,120
40,24,155040,120
50,24,155040,120
24,27,155520,120
36,29,155520,120
31,24,156000,120
36,23,156240,120
29,29,156480,120
36,27,156960,120
29,27,157200,120
36,29,157440,120
31,26,157920,120
36,25,158160,120
31,25,158400,120
43,24,158640,120
36,26,158880,120
46,22,159360,120
58,22,159360,120
48,22,159360,120
68,19,159840,120
60,19,159840,120
56,19,159840,120
31,27,160320,960
48,18,160800,480
43,24,161280,960
51,24,161280,480
55,19,161760,1440
60,22,162240,480
63,20,162720,480
31,22,163200,960
43,18,164160,960
56,17,164640,480
31,24,165120,960
50,18,165600,480
43,19,166080,960
55,19,166080,480
58,19,166560,480
55,20,167040,960
63,20,167040,480
67,20,167520,480
31,22,168000,960
43,18,168960,960
60,17,169440,480
31,22,169920,960
55,18,170400,480
43,20,170640,1200
60,20,170880,480
63,19,171360,480
55,18,171840,960
68,18,171840,480
72,20,172320,480
31,22,172800,960
43,22,173760,960
65,22,174240,480
63,22,174720,480
55,22,174720,1440
60,22,175200,480
57,22,175680,480
54,22,176160,360
43,17,176520,240
48,17,176580,180
51,28,176640,120
43,24,177000,240
48,24,177060,180
51,29,177120,120
43,26,177480,240
48,26,177540,180
51,29,177600,120
43,26,177960,240
48,26,178020,180
51,30,178080,120
57,30,178080,120
54,35,178200,120
51,37,178320,120
48,39,178440,120
43,41,178560,480
55,41,178560,480
41,27,179040,480
43,27,179040,480
55,27,179040,480
39,27,179520,480
43,27,179520,480
55,27,179520,480
38,27,180000,480
43,27,180000,480
53,27,180000,480
55,27,180000,480
51,27,180480,480
55,27,180480,480
36,27,180480,480
43,27,180480,480
35,26,180960,480
39,26,180960,480
47,26,180960,480
51,26,180960,480
57,26,180960,480
34,26,181440,720
41,26,181440,960
46,26,181440,1920
50,26,181440,1920
58,26,181440,1920
22,25,181920,240
34,25,181920,240
22,25,182400,240
34,25,182400,240
22,25,182880,240
34,25,182880,240
46,25,183360,480
58,25,183360,480
42,25,183840,480
58,25,183840,480
39,25,184320,480
54,25,184320,480
58,25,184320,480
35,22,184800,480
51,22,184800,480
54,22,184800,480
59,22,184800,480
32,22,185280,440
51,22,185280,440
56,22,185280,440
59,22,185280,440
28,18,185760,480
40,18,185760,480
56,18,185760,480
59,18,185760,480
64,18,185760,480
35,18,186240,720
47,18,186240,960
54,18,186240,1920
59,18,186240,1920
63,18,186240,1920
23,25,186720,240
35,25,186720,240
23,25,187200,240
35,25,187200,240
23,25,187680,240
35,25,187680,240
47,27,188160,480
59,27,188160,480
47,27,188640,480
59,27,188640,480
45,27,188640,480
43,27,189120,480
47,27,189120,480
59,27,189120,480
42,30,189600,480
47,30,189600,480
59,30,189600,480
57,30,189600,480
40,30,190080,480
47,30,190080,480
55,30,190080,480
59,30,190080,480
38,29,190560,480
42,29,190560,480
50,29,190560,480
54,29,190560,480
60,29,190560,480
37,27,191040,720
44,27,191040,960
49,27,191040,960
53,27,191040,1920
61,27,191040,1920
25,25,191520,240
37,25,191520,240
25,25,192000,240
37,25,192000,240
25,25,192480,240
37,25,192480,240
49,30,192960,480
61,30,192960,475
46,30,193440,480
58,30,193440,480
42,30,193920,480
46,30,193920,480
54,30,193920,480
39,40,194400,480
46,40,194400,480
51,40,194400,480
35,44,194880,480
39,44,194880,480
47,44,194880,480
32,50,195360,480
39,50,195360,480
44,50,195360,480
34,51,195840,960
38,51,195840,960
41,51,195840,960
46,51,195840,960
58,41,196320,960
62,41,196320,960
65,41,196320,960
70,41,196320,480
51,48,197280,480
54,48,197280,480
58,48,197280,480
63,48,197280,480
58,48,197760,960
62,48,197760,960
65,48,197760,960
70,48,197760,960
34,45,198240,120
41,44,198360,120
46,45,198480,120
50,44,198600,120
58,45,198720,120
62,44,198840,120
65,45,198960,240
35,52,199200,480
39,52,199200,480
42,52,199200,480
47,52,199200,480
37,52,199680,960
41,52,199680,960
44,52,199680,960
49,52,199680,960
61,53,200160,960
65,53,200160,960
68,53,200160,960
73,53,200160,480
54,52,201120,480
58,52,201120,480
61,52,201120,480
66,59,201120,480
61,52,201600,960
65,52,201600,960
68,59,201600,960
73,59,201600,960
37,55,202080,120
44,52,202200,120
49,55,202320,120
53,52,202440,120
61,55,202560,120
65,52,202680,120
68,55,202800,240
37,49,203040,120
44,48,203160,120
49,50,203280,120
52,48,203400,120
61,50,203520,120
64,48,203640,120
68,50,203760,240
30,49,204000,240
34,50,204120,120
37,51,204240,120
42,52,204360,120
46,52,204480,120
49,52,204600,120
54,53,204720,120
58,55,204840,120
61,56,204960,240
66,56,205080,120
70,57,205200,120
73,59,205320,120
66,51,205340,220
70,51,205380,180
73,51,205420,20
78,59,205440,120
71,59,205920,240
66,60,206040,120
63,61,206160,120
59,61,206280,120
54,62,206400,240
51,62,206520,120
47,64,206640,120
42,66,206760,120
39,66,206880,240
35,66,207000,120
30,67,207120,120
27,68,207240,120
58,69,207360,360
63,69,207360,360
67,69,207360,360
70,78,207360,360
58,67,207840,120
46,59,207840,120
39,57,208080,120
51,63,208080,120
63,77,208320,480
60,69,208320,480
56,69,208320,480
51,69,208320,480
39,59,208800,120
51,66,208800,120
32,57,209040,120
44,63,209040,120
39,69,209280,480
46,69,209280,480
51,77,209280,480
34,62,209760,120
46,70,209760,120
27,59,210000,120
39,66,210000,120
34,59,210240,120
46,66,210240,120
58,62,210480,120
46,62,210480,120
39,66,210720,480
51,73,210720,480
62,72,211200,480
58,64,211200,480
51,64,211200,480
51,62,211680,480
56,62,211680,480
60,70,211680,480
39,62,212160,480
46,62,212160,480
51,70,212160,480
34,64,212640,120
46,72,212640,120
39,68,212880,120
27,60,212880,120
60,77,213120,480
55,69,213120,480
51,69,213120,480
48,69,213120,480
41,62,213600,120
53,70,213600,120
36,62,213840,120
48,70,213840,120
43,67,214080,480
46,67,214080,480
50,67,214080,480
55,74,214080,480
36,59,214560,120
48,66,214560,120
31,56,214800,120
43,62,214800,120
26,59,215040,120
38,67,215040,120
50,61,215280,120
38,55,215280,120
31,63,215520,480
43,71,215520,480
54,70,216000,480
43,62,216000,480
43,58,216480,420
53,64,216480,420
51,52,216960,480
55,52,216960,480
58,52,216960,480
63,59,216960,480
58,53,217440,240
46,48,217440,240
39,53,217680,240
51,60,217680,240
51,59,217920,480
56,66,217920,480
44,59,217920,480
39,48,218400,240
51,53,218400,240
32,49,218640,240
44,56,218640,240
39,50,218880,480
46,50,218880,480
51,57,218880,480
34,52,219360,240
46,59,219360,240
27,50,219600,240
39,57,219600,240
34,50,219840,240
46,57,219840,240
58,56,220080,240
46,49,220080,240
39,58,220320,480
51,64,220320,480
39,59,220800,480
37,59,220800,480
49,66,220800,480
34,62,221280,420
39,62,221280,420
46,70,221280,420
32,72,221760,480
39,72,221760,480
44,81,221760,480
35,67,222240,120
47,74,222240,120
44,72,222480,120
32,64,222480,120
47,70,222720,480
40,70,222720,480
44,70,222720,480
52,79,222720,480
44,62,223200,120
56,70,223200,120
40,60,223440,120
52,68,223440,120
61,77,223680,480
56,69,223680,480
52,69,223680,480
49,69,223680,480
40,59,224160,120
52,66,224160,120
37,59,224400,120
49,66,224400,120
44,64,224640,480
50,64,224640,480
53,64,224640,480
56,72,224640,480
42,67,225120,120
54,74,225120,120
53,71,225360,120
41,63,225360,120
46,67,225600,360
58,74,225600,360
34,67,226080,360
46,74,226080,360
39,55,226560,120
46,52,226680,120
51,55,226800,120
54,52,226920,120
46,40,227040,480
50,40,227040,480
56,48,227040,480
39,53,227520,120
46,52,227640,120
51,53,227760,120
54,53,227880,120
46,40,228000,480
50,40,228000,480
56,48,228000,480
39,52,228480,240
47,50,228600,120
51,52,228720,120
54,50,228840,120
48,40,228960,480
51,40,228960,480
57,48,228960,480
39,52,229440,240
48,51,229560,120
51,52,229680,120
57,50,229800,120
51,41,229920,480
54,41,229920,480
60,49,229920,480
34,49,230400,480
39,49,230400,480
42,56,230400,480
46,56,230400,480
46,49,230880,480
53,49,230880,480
56,56,230880,480
58,56,230880,480
35,46,231360,120
42,45,231480,120
47,46,231600,120
51,45,231720,120
47,34,231840,480
52,34,231840,480
58,40,231840,480
35,46,232320,120
42,45,232440,120
47,46,232560,120
51,45,232680,120
47,33,232800,480
52,33,232800,480
58,39,232800,480
35,41,233280,120
42,39,233400,120
47,41,233520,120
51,39,233640,600
48,33,233760,480
57,39,233760,480
29,41,234240,120
41,40,234360,120
45,41,234480,120
48,40,234600,600
51,38,234720,480
41,32,234720,480
34,57,235200,480
39,57,235200,480
42,57,235200,480
46,64,235200,480
46,54,235680,480
51,54,235680,480
56,54,235680,480
59,61,235680,480
46,52,236160,480
53,52,236160,480
60,59,236160,480
34,55,236640,480
46,55,236640,480
39,27,237060,140
42,27,237080,120
46,26,237100,20
51,52,237120,80
50,37,237280,80
51,36,237440,80
39,26,237540,140
44,26,237560,120
47,26,237580,100
53,36,237600,80
51,35,237760,80
50,35,237920,80
39,28,238040,120
46,28,238060,100
54,38,238080,80
50,37,238240,80
53,37,238240,80
51,37,238400,80
54,37,238400,80
39,28,238520,120
47,28,238540,100
56,37,238560,80
54,36,238720,80
51,36,238720,80
53,36,238880,80
50,36,238880,80
51,30,238980,140
54,30,239000,120
58,30,239020,100
51,31,239460,140
56,31,239480,120
59,31,239500,100
51,35,239960,120
58,37,239980,100
51,35,240440,120
59,35,240460,100
63,40,240900,140
66,40,240920,120
70,40,240940,100
63,41,241380,140
68,44,241400,120
71,41,241420,100
63,48,241880,120
70,48,241900,100
63,52,242360,120
71,53,242380,100
63,42,242880,120
66,42,242880,120
70,42,242880,120
75,48,242880,120
51,52,243120,120
63,52,243120,120
63,42,243360,120
68,42,243360,120
71,42,243360,120
75,48,243360,120
44,49,243600,120
56,49,243600,120
63,48,243840,120
51,42,243840,120
54,42,243840,120
58,42,243840,120
39,52,244080,120
51,52,244080,120
51,42,244320,120
56,42,244320,120
59,42,244320,120
63,48,244320,120
32,53,244560,120
44,53,244560,120
46,48,244800,120
51,48,244800,120
54,48,244800,120
58,53,244800,120
27,58,245040,120
39,58,245040,120
47,47,245280,120
51,47,245280,120
54,47,245280,120
59,52,245280,120
27,57,245520,120
39,57,245520,120
60,52,245760,480
57,52,245760,480
54,47,245760,480
51,47,245760,480
48,47,245760,480
46,55,246180,180
53,55,246200,160
58,61,246220,140
62,61,246240,120
34,70,246480,120
46,70,246480,120
27,74,246720,160
39,74,246720,160
35,63,247200,480
39,63,247200,480
42,63,247200,480
47,71,247200,480
42,63,247680,480
46,63,247680,480
49,63,247680,480
54,71,247680,480
44,62,248160,480
47,62,248160,480
51,62,248160,480
56,70,248160,480
51,63,248640,1440
54,63,248640,1440
58,63,248640,1680
63,71,248640,960
27,62,249600,240
39,70,249600,240
46,62,250080,240
51,62,250080,240
54,62,250080,240
58,70,250080,240
78,69,250560,960
75,61,250560,960
70,58,250560,960
66,58,250560,960
