note,velocity,position,duration
73,38,420,60
72,42,480,60
66,27,540,60
60,26,600,60
72,34,660,60
70,41,720,240
65,27,780,60
58,27,840,60
70,38,1140,80
72,42,1200,60
66,27,1260,60
60,26,1320,60
72,43,1380,60
77,47,1440,240
70,27,1500,60
65,27,1560,60
77,43,1860,60
80,56,1920,60
73,27,1980,60
68,34,2040,60
80,39,2100,60
78,49,2160,60
73,27,2220,60
66,27,2280,60
73,38,2580,80
78,42,2640,60
72,27,2700,60
66,26,2760,60
78,34,2820,60
77,41,2880,60
72,27,2940,60
65,25,3000,60
72,34,3300,60
77,41,3360,60
70,27,3420,60
65,27,3480,60
77,34,3540,60
75,41,3600,60
70,27,3660,60
63,27,3720,60
73,34,3780,60
72,41,3840,60
66,27,3900,60
60,27,3960,60
77,38,4260,80
75,42,4320,60
69,27,4380,60
63,26,4440,60
73,34,4500,60
72,41,4560,60
69,27,4620,60
63,27,4680,60
78,38,4980,80
77,42,5040,240
72,27,5100,60
69,26,5160,60
65,24,5220,60
76,42,5280,240
72,27,5340,60
69,26,5400,60
65,24,5460,60
75,42,5520,240
72,27,5580,60
69,26,5640,60
65,24,5700,60
73,41,5760,1120
69,33,5820,1060
66,28,5880,1000
61,22,5940,60
73,38,6900,80
72,42,6960,60
66,27,7020,60
60,26,7080,60
72,34,7140,60
70,41,7200,240
65,27,7260,60
58,27,7320,60
70,38,7620,70
72,42,7680,60
66,27,7740,60
60,26,7800,60
72,34,7860,60
77,46,7920,240
72,27,7980,180
65,27,8040,60
77,46,8340,70
82,54,8400,60
76,33,8460,60
70,41,8520,60
82,49,8580,60
81,60,8640,60
75,32,8700,60
69,32,8760,60
77,45,9060,60
80,52,9120,60
74,33,9180,60
68,32,9240,60
80,43,9300,60
79,51,9360,60
73,32,9420,60
67,32,9480,60
75,41,9780,60
78,49,9840,60
72,32,9900,60
66,32,9960,60
78,41,10020,60
77,49,10080,60
71,32,10140,60
65,32,10200,60
75,41,10260,60
73,49,10320,60
71,32,10380,60
65,32,10440,60
76,45,10740,70
77,50,10800,60
68,32,10860,60
65,31,10920,60
73,41,10980,60
72,49,11040,60
68,32,11100,60
65,32,11160,60
72,45,11460,60
73,50,11520,240
67,32,11580,60
64,31,11640,60
60,29,11700,60
70,50,11760,240
67,32,11820,60
61,31,11880,60
60,29,11940,60
67,50,12000,240
64,32,12060,60
58,31,12120,60
60,29,12180,60
70,49,12240,720
65,39,12300,60
60,34,12360,60
53,27,12420,60
68,51,12600,60
80,54,12660,60
78,58,12720,60
72,32,12780,60
66,39,12840,60
78,49,12900,60
77,49,12960,60
71,32,13020,60
65,32,13080,60
75,41,13140,60
73,49,13200,60
71,32,13260,60
65,32,13320,60
74,45,13620,70
73,50,13680,60
68,31,13740,60
65,30,13800,60
72,39,13860,60
71,47,13920,60
68,31,13980,60
62,30,14040,60
73,41,14340,60
71,46,14400,240
68,29,14460,60
62,28,14520,60
69,45,14640,240
66,28,14700,60
61,27,14760,60
68,44,14880,240
65,27,14940,60
59,26,15000,60
66,41,15120,1080
62,33,15180,420
57,28,15240,960
61,28,15600,600
56,29,16200,120
60,29,16200,240
65,37,16200,120
54,27,16320,120
63,34,16320,120
54,29,16440,120
60,29,16440,120
63,37,16440,120
53,26,16560,360
61,37,16560,360
73,40,16920,120
65,34,16920,120
66,30,17040,120
72,30,17040,120
75,37,17040,120
75,39,17160,60
72,34,17160,60
66,34,17160,60
65,29,17220,420
77,30,17250,390
80,42,17280,360
77,40,17640,60
73,34,17640,60
66,33,17700,180
78,34,17730,180
82,42,17760,120
72,35,17880,60
75,42,17880,60
65,29,17940,360
77,30,17970,330
80,42,18000,300
61,27,18300,120
73,26,18330,150
77,39,18360,120
72,35,18480,60
68,29,18480,60
58,26,18540,180
70,34,18570,150
73,42,18600,120
65,29,18720,360
68,29,18720,360
66,30,19080,120
63,30,19080,120
66,31,19200,240
63,31,19200,240
58,30,19320,120
65,42,19440,240
68,42,19440,240
59,40,19440,132
58,31,19560,132
63,39,19680,240
66,39,19680,240
57,34,19680,132
58,31,19800,132
59,37,19920,132
66,39,19920,240
63,39,19920,240
60,31,20040,120
63,37,20160,132
66,42,20160,240
56,42,20160,240
61,32,20280,132
65,40,20400,240
56,40,20400,240
60,39,20400,132
61,34,20520,132
65,44,20640,240
53,44,20640,240
60,46,20640,132
58,38,20760,120
57,51,20880,132
65,56,20880,240
53,56,20880,240
58,39,21000,132
61,43,21120,132
51,45,21120,240
63,45,21120,240
60,33,21240,132
64,38,21360,240
52,38,21360,240
58,39,21360,132
60,28,21480,120
65,33,21600,360
53,33,21600,360
58,24,21600,240
57,21,21840,120
56,29,21960,120
60,29,21960,240
65,37,21960,120
54,27,22080,120
63,34,22080,120
54,29,22200,120
60,29,22200,120
63,37,22200,120
53,26,22320,360
61,37,22320,360
73,38,22680,120
65,32,22680,120
66,28,22800,120
72,28,22800,120
75,35,22800,120
75,37,22920,60
72,32,22920,60
66,32,22920,60
65,27,22980,420
77,28,23010,390
80,39,23040,360
77,40,23400,60
73,34,23400,60
66,37,23460,180
78,41,23490,180
82,46,23520,120
71,35,23640,60
75,42,23640,60
65,29,23700,360
77,30,23730,330
80,42,23760,300
61,30,24060,120
73,33,24090,150
77,39,24120,120
71,35,24240,60
68,29,24240,60
58,19,24300,180
70,30,24330,150
73,38,24360,120
65,31,24480,360
69,40,24480,360
70,37,24840,120
66,37,24840,120
70,37,24960,240
66,37,24960,240
61,29,25080,120
66,40,25200,240
69,40,25200,240
62,39,25200,132
61,29,25320,132
66,37,25440,240
70,37,25440,240
60,33,25440,132
61,29,25560,132
62,36,25680,132
70,38,25680,240
66,38,25680,240
61,30,25800,120
63,37,25920,132
71,48,25920,240
68,44,25920,240
61,33,26040,132
70,42,26160,240
66,42,26160,240
60,40,26160,132
61,36,26280,132
67,47,26400,240
55,47,26400,240
63,49,26400,132
61,40,26520,120
65,56,26640,120
68,62,26640,240
56,62,26640,240
61,41,26760,132
60,45,26880,120
54,47,26880,480
66,47,26880,480
58,34,27000,132
56,38,27120,132
60,30,27240,120
65,32,27360,420
53,32,27360,420
63,23,27360,240
61,20,27600,120
73,25,27780,60
61,21,27780,60
72,29,27840,60
60,24,27840,60
72,28,28020,60
60,23,28020,60
58,12,28080,240
70,15,28080,240
65,31,28320,240
77,27,28740,70
76,34,28800,60
73,28,28860,60
64,29,28920,60
76,24,28980,70
75,31,29040,60
73,25,29100,60
63,25,29160,60
80,27,29460,70
78,34,29520,60
75,28,29580,60
66,29,29640,60
78,24,29700,70
77,31,29760,60
75,25,29820,60
65,25,29880,60
82,27,30180,70
80,34,30240,60
77,28,30300,60
68,30,30360,60
82,37,30540,70
80,45,30600,60
77,41,30660,60
68,51,30720,60
82,49,30900,66
80,43,30960,60
77,32,31020,60
71,28,31080,66
70,31,31140,66
68,36,31200,60
65,29,31260,60
59,27,31320,66
60,32,32100,66
61,36,32160,60
68,32,32220,60
71,26,32280,60
80,34,32340,66
79,34,32400,60
76,30,32460,60
70,27,32520,66
68,28,32580,66
67,33,32640,60
64,27,32700,60
58,24,32760,66
59,25,33540,66
60,28,33600,60
67,24,33660,60
76,27,33720,240
79,27,33720,240
82,27,33720,240
85,34,33720,120
70,20,33720,60
84,33,33840,120
67,20,33960,240
64,20,33960,240
59,26,33960,120
60,24,34080,120
63,22,34200,240
66,22,34200,240
70,22,34200,240
73,28,34200,120
72,27,34320,120
51,17,34680,600
53,17,34680,600
57,17,34680,600
61,22,34680,120
60,21,34800,480
85,25,35400,60
75,19,35460,60
84,25,35520,60
78,19,35580,60
82,25,35640,60
72,19,35700,60
81,25,35760,60
75,19,35820,60
80,24,35880,60
69,19,35940,60
78,25,36000,60
72,19,36060,60
77,25,36120,60
66,19,36180,60
75,25,36240,60
69,19,36300,60
73,24,36600,60
63,19,36660,60
72,25,36720,60
66,19,36780,60
73,22,37080,60
65,19,37140,60
71,25,37200,60
68,19,37260,60
59,25,37320,60
71,34,37380,60
70,41,37440,120
68,27,37500,60
58,27,37560,60
70,38,37860,70
71,42,37920,60
68,27,37980,60
59,26,38040,60
71,34,38100,60
77,41,38160,60
68,27,38220,60
65,27,38280,60
77,43,38580,70
80,53,38640,60
74,32,38700,60
68,42,38760,60
80,47,38820,60
78,58,38880,60
75,32,38940,60
66,32,39000,60
73,45,39300,70
78,50,39360,60
72,32,39420,60
66,31,39480,60
78,41,39540,60
77,49,39600,60
72,32,39660,60
65,32,39720,60
72,41,40020,60
77,49,40080,60
70,32,40140,60
65,32,40200,60
77,41,40260,60
75,49,40320,60
70,32,40380,60
63,32,40440,60
73,41,40500,60
72,49,40560,60
66,32,40620,60
60,32,40680,60
77,45,40980,70
75,50,41040,60
69,32,41100,60
63,31,41160,60
73,41,41220,60
72,49,41280,60
69,32,41340,60
63,32,41400,60
78,45,41700,60
77,50,41760,240
72,31,41820,60
69,30,41880,60
65,28,41940,60
76,47,42000,240
72,30,42060,60
69,28,42120,60
65,26,42180,60
75,45,42240,240
72,28,42300,60
69,27,42360,60
65,25,42420,60
73,41,42480,960
69,33,42540,900
66,28,42600,840
61,22,42660,60
85,32,43260,60
83,29,43320,60
81,28,43380,60
80,31,43440,60
78,28,43500,60
75,28,43560,60
73,28,43620,60
72,35,43680,60
66,27,43740,60
60,26,43800,60
72,34,43860,60
70,41,43920,240
65,27,43980,60
58,27,44040,60
70,40,44340,60
73,47,44400,60
66,32,44460,60
58,31,44520,60
73,45,44580,60
78,58,44640,60
71,32,44700,60
66,32,44760,60
75,47,45060,60
73,56,45120,60
67,33,45180,60
58,43,45240,60
70,49,45300,60
71,60,45360,60
66,32,45420,60
59,32,45480,60
71,51,45780,60
72,47,45840,60
75,57,45840,60
68,36,45900,60
60,36,45960,60
75,50,46020,60
80,62,46080,60
73,35,46140,60
68,35,46200,60
73,49,46500,60
80,58,46560,60
73,38,46620,60
68,39,46680,60
80,51,46740,60
85,70,46800,60
79,38,46860,60
73,38,46920,60
73,53,47220,60
78,61,47280,60
72,42,47340,60
66,42,47400,60
78,56,47460,60
83,66,47520,60
77,41,47580,60
71,41,47640,60
71,53,47940,60
76,66,48000,60
70,44,48060,60
64,45,48120,60
76,49,48180,60
81,69,48240,240
75,47,48300,60
69,46,48360,60
78,69,48480,240
75,47,48540,60
69,46,48600,60
75,69,48720,240
69,47,48780,60
66,46,48840,60
69,69,48960,240
63,43,49020,60
57,42,49080,60
68,66,49200,240
63,43,49260,60
57,42,49320,60
66,66,49440,240
63,43,49500,60
57,42,49560,60
57,36,49650,30
63,36,49650,30
65,42,49650,30
87,76,49680,240
81,47,49740,60
75,46,49800,60
81,69,49920,240
75,47,49980,60
69,46,50040,60
75,70,50160,240
69,47,50220,60
63,46,50280,60
69,65,50400,240
63,40,50460,60
57,39,50520,60
68,63,50640,240
63,39,50700,60
57,37,50760,60
66,61,50880,240
63,37,50940,60
57,36,51000,60
65,58,51120,240
60,35,51180,60
57,33,51240,60
64,52,51360,240
60,31,51420,60
57,29,51480,60
63,46,51600,600
60,28,51680,520
57,26,51760,440
53,29,52200,240
57,29,52200,240
62,37,52200,120
60,34,52320,120
53,29,52440,480
57,29,52440,120
60,37,52440,120
58,37,52560,360
76,39,52920,120
77,34,53040,120
74,38,53160,120
70,31,53280,120
65,32,53400,120
62,25,53520,120
56,29,53640,120
61,29,53640,120
65,37,53640,120
57,29,53760,120
60,29,53760,120
63,34,53760,120
57,29,53880,120
60,29,53880,120
63,37,53880,120
56,29,54000,360
61,37,54000,360
79,39,54360,120
80,34,54480,120
77,38,54600,120
73,31,54720,120
68,32,54840,120
65,25,54960,120
73,68,55080,120
60,43,55200,240
66,43,55200,240
72,49,55200,120
72,63,55320,120
58,43,55440,480
65,43,55440,480
70,70,55440,360
70,68,55800,120
59,43,55920,240
65,43,55920,240
71,49,55920,120
71,65,56040,120
60,43,56160,480
64,43,56160,480
72,70,56160,360
72,62,56520,120
58,40,56640,240
64,40,56640,240
70,46,56640,120
70,60,56760,120
56,39,56880,480
65,39,56880,480
68,64,56880,360
68,60,57240,120
57,37,57360,240
63,37,57360,240
69,43,57360,120
69,51,57480,120
58,36,57600,480
62,36,57600,480
70,59,57600,360
58,52,57960,120
61,38,58080,120
61,50,58200,120
60,44,58320,360
53,32,58320,480
58,32,58320,720
65,52,58320,360
53,39,58680,120
60,32,58800,120
60,33,58920,120
63,27,59040,240
57,22,59040,240
54,22,59040,240
61,24,59280,240
57,20,59280,240
53,20,59280,240
60,22,59520,720
57,18,59520,720
51,18,59520,720
58,22,60240,235
61,25,60600,120
65,20,60720,120
70,20,60840,120
73,20,60960,120
89,20,61080,120
77,17,61080,120
82,18,61200,720
94,22,61200,720
39,25,480,60
37,29,720,120
52,28,900,70
53,31,960,60
58,20,1020,60
65,19,1080,60
39,25,1200,60
37,29,1440,120
57,28,1620,70
58,31,1680,60
65,20,1740,60
70,19,1800,60
34,25,1920,120
39,29,2160,120
57,26,2340,70
58,31,2400,60
61,20,2460,60
70,19,2520,60
32,25,2640,120
37,29,2880,120
55,22,3060,70
56,27,3120,60
60,18,3180,60
68,17,3240,60
30,29,3360,120
36,29,3600,120
39,29,3840,120
53,26,4020,70
54,31,4080,60
58,20,4140,60
66,19,4200,60
29,25,4320,120
41,29,4560,120
52,28,4740,70
53,31,4800,60
57,20,4860,60
65,19,4920,60
57,24,6000,60
54,24,6060,60
49,24,6120,60
45,22,6180,60
42,22,6240,60
37,22,6300,60
33,22,6360,60
30,22,6420,60
27,22,6480,60
39,21,6540,60
42,22,6600,60
45,23,6660,60
51,24,6720,60
54,26,6780,60
57,27,6840,60
39,25,6960,120
37,29,7200,120
52,28,7380,70
53,31,7440,60
58,20,7500,60
65,19,7560,60
39,25,7680,120
37,29,7920,120
57,28,8100,70
58,31,8160,60
65,20,8220,60
70,19,8280,60
36,30,8400,120
41,35,8640,120
59,38,8820,70
60,42,8880,60
63,38,8940,60
72,23,9000,60
34,30,9120,120
39,35,9360,120
57,31,9540,70
58,37,9600,60
61,21,9660,60
70,20,9720,60
32,35,9840,120
37,35,10080,120
49,35,10320,120
55,33,10500,70
56,37,10560,60
59,24,10620,60
68,23,10680,60
36,30,10800,120
48,35,11040,120
52,33,11220,70
53,37,11280,60
56,24,11340,60
65,23,11400,60
48,32,12480,60
44,33,12540,60
41,42,12600,60
36,45,12660,60
32,55,12720,60
44,34,12780,60
37,35,12960,120
49,35,13200,120
55,28,13380,70
56,37,13440,60
59,24,13500,60
68,23,13560,60
37,30,13680,120
49,33,13920,120
52,31,14100,70
53,35,14160,60
56,22,14220,60
65,21,14280,60
30,26,14580,60
30,25,14820,60
30,24,15060,60
54,22,15300,60
50,22,15360,60
45,22,15420,60
42,22,15480,60
38,19,15540,60
33,18,15600,60
30,18,15660,60
33,17,15720,60
38,17,15780,60
42,16,15840,80
45,15,15920,80
50,13,16000,80
54,15,16080,120
32,20,16200,240
37,17,16440,300
43,22,16680,120
44,21,16800,360
56,22,16920,480
49,25,17160,600
60,22,17400,120
61,26,17520,480
49,22,17760,720
56,22,17760,360
55,22,18120,120
56,26,18240,480
46,19,18480,240
53,19,18480,240
39,26,18720,120
46,22,18840,120
51,23,18960,120
58,24,19080,120
46,30,19320,120
38,30,19440,240
47,33,19440,132
46,26,19560,132
45,28,19680,132
39,28,19680,240
46,26,19800,132
47,31,19920,132
39,28,19920,240
48,26,20040,120
51,31,20160,132
41,30,20160,240
49,27,20280,132
41,31,20400,240
48,32,20400,132
49,30,20520,132
37,33,20640,240
48,39,20640,132
46,32,20760,120
45,43,20880,132
42,39,20880,240
46,32,21000,132
49,36,21120,132
42,34,21120,240
48,28,21240,132
46,33,21360,132
42,30,21360,240
48,24,21480,480
41,24,21600,360
32,20,21960,240
37,17,22200,180
43,22,22440,120
44,21,22560,360
56,20,22680,1560
49,23,22920,600
58,22,23160,120
59,26,23280,600
49,35,23520,720
58,22,23880,120
59,26,24000,480
49,19,24240,240
53,19,24240,240
42,35,24480,120
49,29,24600,120
54,29,24720,120
61,29,24840,120
49,29,25080,120
42,28,25200,240
50,32,25200,132
49,25,25320,132
48,27,25440,132
42,27,25440,240
49,25,25560,132
50,30,25680,132
42,28,25680,240
49,26,25800,120
51,31,25920,132
41,29,25920,240
49,28,26040,132
42,31,26160,240
48,34,26160,132
49,31,26280,132
46,35,26400,240
51,41,26400,120
49,35,26520,240
44,42,26640,240
53,35,26760,132
51,37,26880,132
44,36,26880,360
49,29,27000,132
48,33,27120,120
44,26,27240,540
37,23,27360,420
49,15,27780,60
48,24,27840,60
48,15,28020,60
46,22,28080,180
40,21,28260,60
41,26,28320,60
45,21,28380,60
53,25,28440,60
41,21,28500,60
42,28,28560,60
46,21,28620,60
54,21,28680,60
54,21,28980,70
55,26,29040,60
58,21,29100,60
67,25,29160,60
55,21,29220,70
56,28,29280,60
60,21,29340,60
68,21,29400,60
44,21,29700,70
45,26,29760,60
48,21,29820,60
57,25,29880,60
45,21,29940,70
46,28,30000,60
50,21,30060,60
58,21,30120,60
58,21,30300,60
59,28,30360,60
62,23,30420,60
71,35,30480,60
59,29,30540,70
60,38,30600,60
65,26,30660,60
72,38,30720,60
60,31,30780,66
61,41,30840,66
65,30,30900,66
73,29,30960,60
58,29,31380,66
56,31,31440,66
53,28,31500,60
47,29,31560,60
36,27,31620,66
37,34,31680,60
44,30,31740,60
47,30,31800,66
48,36,31860,66
49,29,31920,60
56,26,31980,60
59,30,32040,66
56,26,32820,66
55,27,32880,60
52,24,32940,60
46,25,33000,60
35,22,33060,66
36,28,33120,60
43,25,33180,60
46,25,33240,66
47,29,33300,66
48,23,33360,60
55,21,33420,60
58,23,33480,66
54,16,34440,240
51,16,34440,240
47,20,34440,120
48,18,34560,120
28,22,34920,120
29,22,35040,180
41,19,35220,60
45,22,35280,60
48,22,35340,60
51,19,35400,60
54,19,35460,60
57,19,35520,60
60,22,35580,60
66,19,35640,60
63,19,35700,60
54,22,35760,60
57,19,35820,60
63,19,35880,60
60,19,35940,60
51,22,36000,60
54,21,36060,60
60,21,36120,60
57,21,36180,60
48,24,36240,60
51,19,36300,60
57,19,36360,60
54,19,36420,60
51,24,36480,60
48,19,36540,60
45,19,36600,60
42,19,36660,60
39,22,36720,60
45,20,36780,60
54,20,36840,60
39,22,37080,60
44,21,37140,60
53,21,37200,120
38,29,37440,120
52,26,37620,70
53,31,37680,60
56,20,37740,60
65,19,37800,60
39,25,37920,120
38,29,38160,120
57,28,38340,70
58,32,38400,60
65,20,38460,60
70,19,38520,60
34,30,38640,120
39,35,38880,120
57,33,39060,70
58,37,39120,60
61,24,39180,60
70,23,39240,60
32,30,39360,120
37,35,39600,120
55,26,39780,70
56,29,39840,60
60,18,39900,60
68,18,39960,60
30,35,40080,120
36,35,40320,120
39,35,40560,120
53,33,40740,70
54,37,40800,60
58,24,40860,60
66,23,40920,60
29,30,41040,120
41,35,41280,60
52,33,41460,70
53,37,41520,60
57,24,41580,60
65,23,41640,60
57,24,42720,60
54,24,42780,60
49,24,42840,60
45,22,42900,60
42,22,42960,60
37,22,43020,60
33,22,43080,60
30,22,43140,60
27,22,43200,120
39,21,43320,60
42,22,43380,60
45,23,43440,60
51,24,43500,60
54,26,43560,60
57,27,43620,60
39,25,43680,120
37,29,43920,120
52,28,44100,70
53,31,44160,60
58,20,44220,60
65,19,44280,60
40,30,44400,120
39,35,44640,120
53,33,44820,70
54,37,44880,60
59,24,44940,60
66,23,45000,60
40,30,45120,120
39,35,45360,120
53,33,45540,70
54,37,45600,60
59,24,45660,60
66,23,45720,60
42,33,45840,120
41,42,46080,120
55,38,46260,70
56,48,46320,60
61,26,46380,60
68,25,46440,60
40,41,46560,120
39,45,46800,120
57,38,46980,70
58,45,47040,60
61,28,47100,60
70,27,47160,60
38,45,47280,120
37,48,47520,120
55,42,47700,70
56,48,47760,60
59,30,47820,60
68,29,47880,60
36,47,48000,120
35,51,48240,120
59,42,48420,60
47,42,48660,60
35,42,48900,60
47,39,49140,60
35,39,49380,60
47,39,49620,60
36,42,49680,120
41,42,49680,120
48,51,49680,120
65,42,49860,60
60,36,49860,60
60,42,50100,60
53,36,50100,60
48,36,50340,60
53,42,50340,60
41,30,50580,60
48,36,50580,60
29,35,50820,60
41,28,51060,60
48,33,51060,60
29,30,51300,60
41,23,51540,60
48,27,51540,60
29,25,51840,360
41,24,52200,240
51,20,52320,120
51,20,52440,120
41,17,52440,240
50,22,52560,1080
40,22,52680,120
41,21,52800,840
41,24,53640,240
54,20,53760,120
54,20,53880,120
41,17,53880,240
53,22,54000,1080
40,22,54120,120
41,21,54240,840
41,36,55080,240
51,25,55200,240
57,30,55200,240
41,26,55320,240
50,25,55440,480
53,32,55440,480
40,58,55560,120
41,51,55680,600
49,25,55920,240
53,30,55920,240
48,25,56160,480
55,32,56160,480
40,56,56280,120
41,49,56400,600
48,23,56640,240
55,28,56640,240
49,23,56880,480
53,29,56880,480
40,50,57000,120
41,44,57120,600
47,22,57360,240
53,26,57360,240
46,21,57600,480
53,27,57600,480
40,46,57720,120
41,40,57840,600
46,19,58080,240
53,23,58080,240
48,24,58320,720
40,40,58440,120
41,34,58560,480
29,25,59040,600
22,25,59760,120
34,21,59880,120
41,21,60000,120
46,21,60120,120
49,21,60240,120
53,21,60360,120
46,22,60480,480
58,26,60480,120
34,19,60960,240
49,19,61200,720
41,16,61200,720
34,16,61200,720
