note,velocity,position,duration
76,67,90,630
79,67,90,630
72,67,90,630
84,80,90,630
64,70,720,220
60,59,720,220
52,59,720,220
64,74,960,480
52,62,960,480
60,62,960,480
60,60,1440,120
53,60,1440,120
65,71,1440,120
55,63,1680,120
60,63,1680,120
67,75,1680,120
57,66,1920,120
60,66,1920,120
69,78,1920,120
55,62,2400,120
67,74,2400,120
60,62,2400,120
52,59,3600,216
60,59,3600,216
64,70,3600,216
64,77,3840,480
60,65,3840,480
52,65,3840,480
53,65,4320,120
60,65,4320,120
65,77,4320,120
55,68,4560,120
67,80,4560,120
60,68,4560,120
60,70,4800,480
69,83,4800,480
57,70,4800,480
67,81,5280,120
55,68,5280,120
60,68,5280,120
57,70,5520,120
69,83,5520,120
60,70,5520,120
58,72,5760,120
60,72,5760,120
70,85,5760,120
69,81,6240,120
57,68,6240,120
60,68,6240,120
55,60,7200,120
60,60,7200,120
67,71,7200,120
60,63,7440,120
57,63,7440,120
69,75,7440,120
65,66,7680,120
71,78,7680,120
59,66,7680,120
64,68,8160,120
72,80,8160,120
60,68,8160,120
67,69,8640,120
74,82,8640,120
62,69,8640,120
64,71,9120,120
67,71,9120,120
76,84,9120,120
72,72,9600,960
74,72,9600,960
78,78,9600,80
79,73,9680,80
78,80,9760,80
79,75,9840,80
78,82,9920,80
79,78,10000,80
78,84,10080,80
79,81,10160,80
78,86,10240,80
79,84,10320,60
78,89,10380,60
76,84,10440,60
78,85,10500,60
71,79,10560,480
79,93,10560,480
74,83,11040,120
78,75,11280,120
79,83,11520,120
62,66,12000,120
66,60,12240,120
67,66,12480,120
50,69,12960,120
54,61,13200,120
55,64,13440,160
59,57,13600,160
60,57,13760,160
62,66,13920,160
64,59,14080,160
66,59,14240,160
67,67,14400,120
70,69,14520,120
72,71,14640,120
74,73,14760,120
76,75,14880,120
78,77,15000,120
79,79,15120,120
81,84,15240,120
82,80,15450,630
70,67,15450,630
77,67,15450,630
74,67,15450,630
70,67,16080,216
62,67,16080,216
74,80,16080,216
70,71,16320,480
62,71,16320,480
74,85,16320,480
63,69,16800,120
75,81,16800,120
70,69,16800,120
65,72,17040,120
70,72,17040,120
77,86,17040,120
70,75,17280,120
67,75,17280,120
79,89,17280,120
65,71,17760,120
77,85,17760,120
70,71,17760,120
70,67,18960,216
62,67,18960,216
74,80,18960,216
62,74,19200,480
74,88,19200,480
70,74,19200,480
70,74,19680,120
63,74,19680,120
75,88,19680,120
70,78,19920,120
77,92,19920,120
65,78,19920,120
67,80,20160,480
79,95,20160,480
70,80,20160,480
70,78,20640,120
77,93,20640,120
65,78,20640,120
67,80,20880,120
79,95,20880,120
70,80,20880,120
70,82,21120,120
80,97,21120,120
68,82,21120,120
79,93,21600,120
67,78,21600,120
70,78,21600,120
77,81,22560,120
70,69,22560,120
65,69,22560,120
67,72,22800,120
79,86,22800,120
70,72,22800,120
79,75,23040,120
83,89,23040,120
71,75,23040,120
72,78,23520,120
84,92,23520,120
79,78,23520,120
86,94,24000,120
79,79,24000,120
74,79,24000,120
75,81,24480,120
79,81,24480,120
87,96,24480,120
77,81,24960,120
84,81,24960,120
89,96,24960,120
78,89,25440,960
90,105,25440,960
86,89,25440,960
84,89,25440,960
84,89,26400,960
79,89,26400,960
91,105,26400,960
86,89,26400,960
81,89,27360,940
86,89,27360,940
93,105,27360,940
84,89,27360,940
81,89,28320,720
93,105,28320,720
84,89,28320,720
86,89,28320,720
91,83,29040,120
79,70,29040,120
83,70,29040,120
77,74,29280,120
89,88,29280,120
74,63,29520,120
86,75,29520,120
83,87,29760,120
71,73,29760,120
79,70,30000,120
67,59,30000,120
77,83,30240,120
65,70,30240,120
74,68,30480,120
62,57,30480,120
60,68,30720,720
72,80,30720,720
64,68,30720,720
60,40,32400,216
60,48,32640,480
62,41,33120,120
64,46,33360,120
65,51,33600,460
65,45,34080,216
65,37,34320,216
67,46,34320,216
67,49,34560,480
69,45,35040,120
71,45,35280,120
79,51,35280,216
79,55,35520,720
72,49,35520,480
74,47,36000,120
76,55,36240,120
79,55,36240,216
79,62,36480,240
77,53,36480,720
78,53,36720,240
81,63,36960,120
76,45,37200,240
79,54,37200,120
79,59,37440,240
76,50,37440,720
78,50,37680,240
81,59,37920,120
72,42,38160,240
79,50,38160,120
73,55,38400,480
82,65,38400,480
81,59,38880,120
74,50,38880,120
62,40,40080,216
62,48,40320,480
64,41,40800,120
65,46,41040,120
67,51,41280,480
67,45,41760,240
69,46,42000,216
67,37,42000,216
69,49,42240,480
71,45,42720,120
73,45,42960,120
81,51,42960,216
74,49,43200,480
81,55,43200,720
76,47,43680,120
81,55,43920,216
77,55,43920,120
79,53,44160,720
81,62,44160,240
80,53,44400,240
82,63,44640,120
77,45,44880,240
81,54,44880,120
81,59,45120,240
77,50,45120,720
80,50,45360,240
82,59,45600,120
81,50,45840,120
74,42,45840,240
75,55,46080,480
84,69,46080,480
76,50,46560,120
83,59,46560,120
88,78,48000,480
78,66,48000,720
87,69,48480,120
81,68,49920,720
91,81,49920,480
90,72,50400,120
93,80,50880,480
82,68,50880,480
91,74,51360,120
76,63,53760,480
64,53,53760,480
75,61,54240,120
73,61,54480,120
71,58,54720,480
81,69,54720,480
80,61,55200,120
78,61,55440,120
76,61,55680,960
83,72,55680,480
81,65,56160,120
80,61,56400,120
76,59,56640,480
78,70,56640,240
79,61,56880,216
79,63,57120,720
76,53,57120,960
78,67,57840,240
76,59,58080,480
78,70,58080,240
79,64,58320,216
79,64,58560,240
76,54,58560,480
80,61,58800,216
76,59,59040,960
80,70,59040,720
79,60,59760,240
79,62,60000,240
76,52,60000,480
80,64,60240,216
80,66,60480,240
76,56,60480,480
81,68,60720,216
76,62,60960,700
81,74,60960,700
82,69,61680,216
76,58,61680,216
76,65,61920,240
82,77,61920,240
79,57,62160,216
85,68,62160,216
79,59,62400,240
85,70,62400,240
82,70,62640,216
88,70,62640,216
88,75,62880,240
82,75,62880,240
91,73,63120,240
85,62,63120,240
90,80,63360,120
87,68,63360,120
66,80,64080,1440
78,85,64320,720
69,72,64320,1200
76,80,65040,240
75,84,65280,240
78,83,66000,1440
81,76,66240,1200
90,90,66240,720
88,85,66960,240
87,95,67200,240
93,99,67680,120
87,84,67680,120
90,84,67680,120
81,84,67680,120
66,77,68640,480
69,83,69120,1200
66,46,70560,480
69,49,71040,1200
66,46,72480,480
69,49,72960,960
71,48,73920,720
72,46,74640,216
72,53,74880,960
71,46,75840,480
74,49,76560,240
77,54,76800,960
76,50,77760,720
71,50,78480,240
74,57,78720,960
72,52,79680,480
72,49,80640,940
72,50,81600,1440
74,56,82320,240
76,65,82560,480
76,63,83520,1440
79,75,83520,1440
79,62,85440,1440
83,73,85440,1440
74,69,87300,1740
79,73,87330,1710
86,76,87360,1680
83,66,89040,240
78,62,89280,960
84,73,89280,720
81,61,90000,240
79,69,90240,960
81,63,91200,720
72,53,91200,1920
77,52,91920,240
76,63,92160,960
71,54,93120,960
77,64,93120,1680
72,64,94080,960
76,52,94800,240
78,50,95040,720
69,42,95040,960
75,37,95760,240
84,40,96000,960
88,40,96000,960
76,34,96000,1900
86,35,96960,480
83,35,96960,480
84,41,97440,480
88,41,97440,480
89,46,97920,720
86,46,97920,720
76,25,97920,1900
86,39,98640,240
83,39,98640,240
83,46,98880,480
80,46,98880,480
81,40,99360,480
84,40,99360,480
83,40,99840,480
76,34,99840,1900
86,40,99840,480
84,35,100320,480
81,35,100320,480
79,35,100800,480
83,35,100800,480
81,41,101280,480
77,41,101280,480
80,46,101760,720
76,25,101760,1420
81,39,102480,240
78,39,102480,240
80,46,102720,480
83,46,102720,480
76,40,103200,2380
84,40,103680,960
88,40,103680,960
83,35,104640,480
86,35,104640,480
88,43,105120,480
84,43,105120,480
76,25,105600,1900
91,55,105600,720
88,55,105600,720
86,42,106320,240
89,42,106320,240
83,50,106560,480
86,50,106560,480
89,44,107040,480
86,44,107040,480
84,44,107520,480
88,44,107520,480
76,37,107520,1900
81,37,108000,480
84,37,108000,480
86,36,108480,480
83,36,108480,480
80,42,108960,480
83,42,108960,480
76,25,109440,1920
84,46,109440,480
81,40,109440,480
81,39,109920,480
78,39,109920,480
83,46,110400,480
80,46,110400,480
76,40,110880,480
64,24,111600,240
69,34,111840,240
76,24,112080,240
64,27,112560,240
71,33,112800,240
76,24,113040,240
69,27,113520,240
72,34,113760,240
77,24,114000,240
65,29,114480,240
71,33,114720,240
77,24,114946,240
69,32,115440,240
77,38,115680,240
83,32,115920,240
68,32,116400,240
76,41,116640,240
83,34,116880,240
74,35,117360,240
83,44,117600,240
88,38,117840,240
72,38,118320,240
81,48,118560,240
88,36,118800,240
69,39,119520,600
71,47,119520,600
65,39,119520,600
72,45,120120,120
71,45,120240,120
69,45,120360,120
71,46,120480,120
72,49,120600,120
74,52,120720,120
76,55,120840,120
79,68,120960,480
77,64,121440,240
68,39,123360,600
65,39,123360,600
71,47,123360,600
72,45,123960,120
71,45,124080,120
70,45,124200,120
71,46,124320,120
72,49,124440,120
74,52,124560,120
76,55,124680,120
79,68,124800,480
77,64,125280,240
84,74,125760,480
74,62,125760,720
82,69,126240,240
62,41,128640,132
72,41,128640,480
63,41,128760,132
62,41,128880,132
61,41,129000,132
70,61,129120,240
62,45,129120,132
65,47,129240,132
68,49,129360,132
70,52,129480,132
75,67,129600,720
84,67,129600,480
82,61,130080,240
74,51,130560,132
84,75,130560,480
75,47,130680,132
74,47,130800,132
73,47,130920,132
74,51,131040,132
82,70,131040,240
77,53,131160,132
80,56,131280,132
82,60,131400,132
96,77,131520,480
86,77,131520,720
94,86,132000,720
93,75,132720,240
92,77,132960,240
91,73,133200,240
90,69,133440,240
89,63,133680,240
88,70,133920,240
87,69,134160,240
86,70,134400,240
85,60,134640,240
84,64,134880,240
83,67,135120,240
82,71,135360,240
81,60,135600,240
80,67,135840,240
79,54,136080,240
78,60,136320,240
77,54,136560,240
76,59,136800,240
75,50,137040,240
74,59,137280,240
73,46,137520,240
72,53,137760,240
71,46,138000,240
72,54,138720,480
75,58,139200,480
81,54,139680,480
77,54,140640,480
76,43,141120,480
68,34,141600,480
77,32,142080,240
81,40,142080,960
69,23,142320,240
77,23,142560,240
69,23,142800,240
76,35,143040,480
79,35,143040,480
81,41,143520,480
77,41,143520,480
82,46,144000,720
79,46,144000,700
76,39,144720,220
79,39,144720,240
73,46,144960,480
76,46,144960,480
74,40,145440,480
77,40,145440,480
76,40,145920,480
79,40,145920,480
77,35,146400,480
74,35,146400,480
76,35,146880,480
72,35,146880,480
74,41,147360,480
70,41,147360,480
73,46,147840,720
69,25,147840,720
71,39,148560,240
74,39,148560,240
73,46,148800,480
76,46,148800,480
85,46,149760,720
81,25,149760,720
83,39,150480,240
86,39,150480,240
85,46,150720,480
88,46,150720,480
69,23,151680,720
72,50,151680,720
74,42,152400,240
71,36,152400,240
76,50,152640,1680
72,42,152640,1680
74,40,154320,240
77,48,154320,240
79,57,154560,1680
76,46,154560,960
75,51,155520,960
72,27,155520,960
81,62,156240,240
79,50,156480,940
74,50,156480,960
83,60,156480,1680
72,26,157440,960
79,58,157440,960
84,62,158160,240
74,56,158400,960
83,56,158400,960
86,67,158400,1680
77,56,158400,960
79,70,159360,960
76,31,159360,960
88,74,160080,240
89,73,160320,1200
86,73,160320,1200
77,61,160320,1200
85,67,161520,240
88,67,161520,240
76,56,161520,240
77,61,161760,240
89,72,161760,240
86,72,161760,240
85,67,162000,240
76,56,162000,240
88,67,162000,240
86,76,162240,240
77,64,162240,240
89,76,162240,240
85,73,162480,240
88,73,162480,240
76,62,162480,240
86,76,162720,240
89,76,162720,240
77,64,162720,240
85,81,162960,120
88,81,162960,120
76,68,162960,120
89,73,163200,120
101,86,163200,120
91,73,163200,120
98,75,163320,120
95,76,163440,120
91,73,163560,120
89,86,163680,120
86,72,163800,120
83,76,163920,120
79,69,164040,120
89,86,164160,120
86,75,164280,120
83,76,164400,120
79,73,164520,120
77,86,164640,120
74,72,164760,120
71,76,164880,120
67,69,165000,120
89,86,165120,120
86,75,165240,120
83,76,165360,120
79,73,165480,120
77,86,165600,120
74,72,165720,120
71,76,165840,120
67,69,165960,120
65,81,166080,80
62,70,166160,80
59,70,166240,80
55,75,166320,80
59,70,166400,80
62,70,166480,80
65,79,166560,80
67,70,166640,80
74,70,166720,80
77,70,166800,80
79,70,166880,80
83,70,166960,80
84,88,167130,630
72,73,167130,630
79,73,167130,630
76,73,167130,630
64,70,167760,216
60,59,167760,216
52,59,167760,216
52,62,168000,480
60,62,168000,480
64,74,168000,480
60,60,168480,120
65,71,168480,120
53,60,168480,120
67,75,168720,120
55,63,168720,120
60,63,168720,120
60,66,168960,120
57,66,168960,120
69,78,168960,120
67,74,169440,120
55,62,169440,120
60,62,169440,120
60,59,170640,216
52,59,170640,216
64,70,170640,216
64,77,170880,480
60,65,170880,480
52,65,170880,480
65,77,171360,120
60,65,171360,120
53,65,171360,120
55,68,171600,120
60,68,171600,120
67,80,171600,120
69,83,171840,480
57,70,171840,480
60,70,171840,480
67,81,172320,120
60,68,172320,120
55,68,172320,120
69,83,172560,120
60,70,172560,120
57,70,172560,120
60,72,172800,120
70,85,172800,120
58,72,172800,120
57,68,173280,120
69,81,173280,120
60,68,173280,120
67,71,174240,120
55,60,174240,120
60,60,174240,120
60,63,174480,120
69,75,174480,120
57,63,174480,120
65,66,174720,120
71,78,174720,120
59,66,174720,120
64,68,175200,120
72,80,175200,120
60,68,175200,120
67,69,175680,120
74,82,175680,120
62,69,175680,120
64,71,176160,120
76,84,176160,120
67,71,176160,120
78,78,176640,80
72,72,176640,960
74,72,176640,960
79,73,176720,80
78,80,176800,80
79,75,176880,80
78,82,176960,80
79,78,177040,80
78,84,177120,80
79,81,177200,80
78,86,177280,80
79,84,177360,60
78,89,177420,60
76,84,177480,60
78,85,177540,60
71,79,177600,480
79,93,177600,480
74,83,178080,120
78,75,178320,120
79,83,178560,120
62,66,179040,120
66,60,179280,120
67,66,179520,120
50,69,180000,120
54,61,180240,120
55,64,180480,160
59,57,180640,160
60,57,180800,160
62,66,180960,160
64,59,181120,160
66,59,181280,160
67,67,181440,120
70,69,181560,120
72,71,181680,120
74,73,181800,120
76,75,181920,120
78,77,182040,120
79,79,182160,120
81,84,182280,120
74,67,182490,630
77,67,182490,630
82,80,182490,630
70,67,182490,630
74,80,183120,216
70,67,183120,216
62,67,183120,216
62,71,183360,480
70,71,183360,480
74,85,183360,480
70,69,183840,120
75,81,183840,120
63,69,183840,120
65,72,184080,120
70,72,184080,120
77,86,184080,120
67,75,184320,120
70,75,184320,120
79,89,184320,120
77,85,184800,120
65,71,184800,120
70,71,184800,120
74,80,186000,216
70,67,186000,216
62,67,186000,216
70,74,186240,480
74,88,186240,480
62,74,186240,480
75,88,186720,120
70,74,186720,120
63,74,186720,120
70,78,186960,120
77,92,186960,120
65,78,186960,120
79,95,187200,480
67,80,187200,480
70,80,187200,480
70,78,187680,120
65,78,187680,120
77,93,187680,120
67,80,187920,120
70,80,187920,120
79,95,187920,120
70,82,188160,120
68,82,188160,120
80,97,188160,120
79,93,188640,120
70,78,188640,120
67,78,188640,120
77,81,189600,120
70,69,189600,120
65,69,189600,120
67,72,189840,120
79,86,189840,120
70,72,189840,120
83,89,190080,120
79,75,190080,120
71,75,190080,120
79,78,190560,120
72,78,190560,120
84,92,190560,120
74,79,191040,120
79,79,191040,120
86,94,191040,120
87,96,191520,120
75,81,191520,120
79,81,191520,120
77,81,192000,120
84,81,192000,120
89,96,192000,120
78,89,192480,960
86,89,192480,940
84,89,192480,949
90,105,192480,960
86,89,193440,940
79,89,193440,960
91,105,193440,960
84,89,193440,940
93,105,194400,940
81,89,194400,940
86,89,194400,940
84,89,194400,940
86,89,195360,720
84,89,195360,720
81,89,195360,720
93,105,195360,720
83,70,196080,120
79,70,196080,120
91,83,196080,120
89,88,196320,120
77,74,196320,120
74,63,196560,120
86,75,196560,120
83,87,196800,120
71,73,196800,120
67,59,197040,120
79,70,197040,120
65,70,197280,120
77,83,197280,120
74,68,197520,120
62,57,197520,120
64,68,197760,720
72,80,197760,720
60,68,197760,720
60,40,199440,216
60,48,199680,480
62,41,200160,120
64,46,200400,120
65,51,200640,460
65,45,201120,216
67,46,201360,216
65,37,201360,240
67,49,201600,480
69,45,202080,120
79,51,202320,240
71,45,202320,120
79,55,202560,700
72,49,202560,480
74,47,203040,120
79,55,203280,220
76,55,203280,120
77,53,203520,720
79,62,203520,240
78,53,203760,240
81,63,204000,120
79,54,204240,120
76,45,204240,240
76,50,204480,720
79,59,204480,240
78,50,204720,240
81,59,204960,120
79,50,205200,120
72,42,205200,240
73,55,205440,480
82,65,205440,480
74,50,205920,120
81,59,205920,120
62,40,207120,216
62,48,207360,480
64,41,207840,120
65,46,208080,120
67,51,208320,480
67,45,208800,220
67,37,209040,220
69,46,209040,220
69,49,209280,480
71,45,209760,120
73,45,210000,120
81,51,210000,240
81,55,210240,720
74,49,210240,480
76,47,210720,120
81,55,210960,216
77,55,210960,120
79,53,211200,720
81,62,211200,240
80,53,211440,240
82,63,211680,120
77,45,211920,220
81,54,211920,120
77,50,212160,720
81,59,212160,240
80,50,212400,240
82,59,212640,120
81,50,212880,120
74,42,212880,240
75,55,213120,480
84,68,213120,480
83,59,213600,120
76,50,213600,120
78,66,215040,720
88,78,215040,480
87,69,215520,120
81,68,216960,720
91,81,216960,480
90,72,217440,120
93,80,217920,480
82,68,217920,480
91,74,218400,120
76,63,220800,480
64,53,220800,480
75,61,221280,120
73,61,221520,120
71,58,221760,480
81,69,221760,480
80,61,222240,120
78,61,222480,120
83,72,222720,480
76,61,222720,960
81,65,223200,120
80,61,223440,120
78,70,223680,240
76,59,223680,480
79,61,223920,216
76,53,224160,940
79,63,224160,700
78,67,224880,240
78,70,225120,240
76,59,225120,460
79,64,225360,216
76,54,225600,460
79,64,225600,240
80,61,225840,216
80,70,226080,720
76,59,226080,940
79,60,226800,240
79,62,227040,240
76,52,227040,460
80,64,227280,216
76,56,227520,460
80,66,227520,240
81,68,227760,240
76,62,228000,720
81,74,228000,720
82,69,228720,216
76,58,228720,216
76,65,228960,240
82,77,228960,240
85,68,229200,216
79,57,229200,216
85,70,229440,240
79,59,229440,240
88,70,229680,216
82,70,229680,216
82,75,229920,240
88,75,229920,240
85,62,230160,240
91,73,230160,240
87,68,230400,120
90,80,230400,120
66,80,231120,1440
69,72,231360,1200
78,85,231360,720
76,80,232080,240
75,84,232320,240
78,83,233040,1440
90,90,233280,720
81,76,233280,1200
88,85,234000,240
87,95,234240,240
93,99,234720,120
81,84,234720,120
87,84,234720,120
90,84,234720,120
66,77,235680,480
69,83,236160,1200
66,46,237600,480
69,49,238080,1200
66,46,239520,480
69,49,240000,960
71,48,240960,720
72,46,241680,216
72,53,241920,960
71,46,242880,480
74,49,243600,240
77,54,243840,960
76,50,244800,720
71,50,245520,240
74,57,245760,960
72,52,246720,480
72,49,247680,940
72,50,248640,1440
74,56,249360,240
76,65,249600,480
76,63,250560,1440
79,75,250560,1440
83,73,252480,1440
79,62,252480,1440
74,69,254340,1740
79,73,254370,1710
86,76,254400,1680
83,66,256080,240
84,73,256320,720
78,62,256320,960
81,61,257040,240
79,69,257280,960
81,63,258240,720
72,53,258240,1920
77,52,258960,240
76,63,259200,960
77,64,260160,1680
71,54,260160,960
72,64,261120,960
76,52,261840,240
69,42,262080,960
78,50,262080,720
75,37,262800,240
76,34,263040,1900
84,40,263040,960
88,40,263040,960
83,35,264000,480
86,35,264000,480
84,41,264480,480
88,41,264480,480
86,46,264960,720
76,25,264960,1900
89,46,264960,720
83,39,265680,220
86,39,265680,240
80,46,265920,480
83,46,265920,480
81,40,266400,480
84,40,266400,480
76,34,266880,1900
86,40,266880,480
83,40,266880,480
84,35,267360,480
81,35,267360,480
79,35,267840,480
83,35,267840,480
77,41,268320,480
81,41,268320,480
76,25,268800,1420
80,46,268800,720
81,39,269520,240
78,39,269520,240
83,46,269760,480
80,46,269760,480
76,40,270240,2380
88,40,270720,960
84,40,270720,960
86,35,271680,480
83,35,271680,480
88,43,272160,480
84,43,272160,480
88,55,272640,720
91,55,272640,720
76,25,272640,1900
89,42,273360,240
86,42,273360,220
86,50,273600,480
83,50,273600,480
89,44,274080,480
86,44,274080,480
76,37,274560,1900
84,44,274560,460
88,44,274560,480
81,37,275040,480
84,37,275040,480
83,36,275520,460
86,36,275520,480
83,42,276000,480
80,42,276000,480
84,46,276480,480
76,25,276480,1920
81,40,276480,460
81,39,276960,480
78,39,276960,480
80,46,277440,480
83,46,277440,480
76,40,277920,480
64,24,278640,240
69,34,278880,240
76,24,279120,240
64,24,279600,240
71,33,279840,240
76,24,280080,240
69,24,280560,240
72,34,280800,240
77,24,281040,240
65,24,281520,240
71,33,281760,240
77,24,281986,240
69,32,282480,240
77,38,282720,240
83,32,282960,240
68,32,283440,240
76,41,283680,240
83,34,283920,240
74,35,284400,240
83,44,284640,240
88,38,284880,240
72,38,285360,240
81,48,285600,240
88,36,285840,240
71,47,286560,600
65,39,286560,600
69,39,286560,600
72,45,287160,120
71,45,287280,120
69,45,287400,120
71,46,287520,120
72,49,287640,120
74,52,287760,120
76,55,287880,120
79,68,288000,480
77,64,288480,240
65,39,290400,600
71,47,290400,600
68,39,290400,600
72,45,291000,120
71,45,291120,120
70,45,291240,120
71,46,291360,120
72,49,291480,120
74,52,291600,120
76,55,291720,120
79,68,291840,480
77,64,292320,240
74,62,292800,720
84,74,292800,480
82,69,293280,240
62,41,295680,132
72,41,295680,480
63,41,295800,132
62,41,295920,132
61,41,296040,132
62,45,296160,132
70,61,296160,240
65,47,296280,132
68,49,296400,132
70,52,296520,132
84,67,296640,480
75,67,296640,720
82,61,297120,240
74,51,297600,132
84,75,297600,480
75,47,297720,132
74,47,297840,132
73,47,297960,132
82,70,298080,240
74,51,298080,132
77,53,298200,132
80,56,298320,132
82,60,298440,132
96,77,298560,480
86,77,298560,720
94,86,299040,720
93,75,299760,240
92,77,300000,240
91,73,300240,240
90,69,300480,240
89,63,300720,240
88,70,300960,240
87,69,301200,240
86,70,301440,240
85,60,301680,240
84,64,301920,240
83,67,302160,240
82,71,302400,240
81,60,302640,240
80,67,302880,240
79,54,303120,240
78,60,303360,240
77,54,303600,240
76,59,303840,240
75,50,304080,240
74,59,304320,240
73,46,304560,240
72,53,304800,240
71,46,305040,240
72,54,305760,480
75,58,306240,480
81,54,306720,480
77,54,307680,480
76,43,308160,480
68,34,308640,480
81,40,309120,960
77,32,309120,240
69,23,309360,240
77,23,309600,240
69,23,309840,240
79,35,310080,480
76,35,310080,480
81,41,310560,480
77,41,310560,480
79,46,311040,700
82,46,311040,720
76,39,311760,240
79,39,311760,240
73,46,312000,480
76,46,312000,480
77,40,312480,480
74,40,312480,480
79,40,312960,480
76,40,312960,480
74,35,313440,480
77,35,313440,480
76,35,313920,480
72,35,313920,480
74,41,314400,480
70,41,314400,480
73,46,314880,720
69,25,314880,720
71,39,315600,240
74,39,315600,240
73,46,315840,480
76,46,315840,480
85,46,316800,720
81,25,316800,720
86,39,317520,240
83,39,317520,240
85,46,317760,480
88,46,317760,480
72,50,318720,720
69,23,318720,720
74,42,319440,240
71,36,319440,240
72,42,319680,1680
76,50,319680,1680
74,40,321360,240
77,48,321360,240
76,46,321600,960
79,57,321600,1680
75,51,322560,960
72,27,322560,960
81,62,323280,240
83,60,323520,1680
74,50,323520,960
79,50,323520,940
72,26,324480,960
79,58,324480,960
84,62,325200,240
74,56,325440,960
86,67,325440,1680
77,56,325440,960
83,56,325440,960
76,31,326400,960
79,70,326400,960
88,74,327120,240
89,73,327360,1200
86,73,327360,1200
77,61,327360,1200
88,67,328560,240
76,56,328560,240
85,67,328560,240
89,72,328800,240
77,61,328800,240
86,72,328800,240
88,67,329040,240
85,67,329040,240
76,56,329040,240
89,76,329280,240
77,64,329280,240
86,76,329280,240
85,73,329520,240
76,62,329520,240
88,73,329520,240
77,64,329760,240
89,76,329760,240
86,76,329760,240
85,81,330000,120
88,81,330000,120
76,68,330000,120
91,73,330240,120
89,73,330240,120
101,86,330240,120
98,75,330360,120
95,76,330480,120
91,73,330600,120
89,86,330720,120
86,72,330840,120
83,76,330960,120
79,69,331080,120
89,86,331200,120
86,75,331320,120
83,76,331440,120
79,73,331560,120
77,86,331680,120
74,72,331800,120
71,76,331920,120
67,63,332040,120
77,79,332160,120
74,64,332280,120
71,73,332400,120
67,59,332520,120
65,67,332640,120
62,58,332760,120
59,67,332880,120
55,56,333000,120
65,65,333120,120
62,52,333240,120
59,63,333360,120
55,46,333480,120
53,58,333600,120
50,47,333720,120
47,57,333840,120
43,46,333960,120
79,52,336000,960
77,52,336960,480
79,55,337440,480
80,58,337920,720
77,50,338640,240
74,57,338880,480
75,47,339360,480
74,46,339840,480
77,55,339840,480
72,40,340320,480
75,48,340320,480
70,40,340800,480
74,48,340800,480
72,43,341280,480
68,36,341280,480
71,49,341760,720
69,39,342480,240
72,47,342480,240
74,54,342720,480
71,45,342720,480
75,46,343680,720
79,55,343680,720
74,44,344400,720
77,52,344400,720
75,46,345120,480
79,55,345120,480
82,64,345600,720
75,54,345600,960
80,56,346320,240
74,52,346560,456
77,62,346560,456
77,46,347040,480
80,55,347040,480
79,62,347520,456
75,52,347520,456
75,48,348000,456
72,40,348000,456
77,57,348480,456
74,48,348480,456
74,49,348960,480
71,41,348960,480
75,49,349440,960
72,40,349440,240
67,35,349680,240
72,40,349920,240
67,36,350160,240
68,40,350400,240
73,49,350400,960
65,34,350640,240
68,40,350880,240
65,33,351120,240
71,49,351360,960
67,40,351360,240
59,32,351600,240
67,40,351840,240
59,35,352080,240
67,40,352320,240
59,36,352560,240
55,40,352800,480
72,40,353280,319
75,49,353280,960
67,35,353600,320
72,40,353920,320
73,49,354240,960
68,40,354240,319
65,34,354560,320
68,40,354880,320
71,49,355200,960
67,40,355200,319
59,32,355520,320
67,40,355840,320
55,40,356160,240
75,62,357120,216
82,73,357120,216
70,62,357120,216
70,59,357360,456
82,70,357360,456
75,59,357360,456
75,58,357840,456
70,58,357840,456
82,68,357840,456
80,73,358320,456
82,73,358320,456
70,62,358320,456
74,62,358320,456
70,58,358800,456
82,69,358800,456
79,69,358800,456
75,58,358800,456
70,58,359280,456
77,58,359280,456
82,69,359280,456
74,58,359280,456
74,56,359760,456
70,56,359760,456
80,67,359760,456
82,67,359760,456
77,63,360240,456
70,63,360240,456
82,75,360240,456
80,75,360240,456
79,66,360720,456
75,56,360720,456
82,66,360720,456
70,56,360720,456
80,86,361200,456
74,73,361200,456
82,86,361200,456
86,86,361200,456
75,72,361680,456
82,72,361680,456
87,86,361680,456
79,72,361680,456
80,77,362160,456
77,77,362160,456
89,91,362160,456
82,77,362160,456
87,95,362640,240
79,80,362640,240
91,95,362640,240
89,100,362880,216
92,100,362880,216
80,85,362880,216
86,85,362880,216
80,81,363120,456
92,95,363120,456
89,95,363120,456
86,81,363120,456
80,80,363600,456
89,95,363600,456
92,95,363600,456
86,80,363600,456
86,83,364080,456
80,83,364080,456
92,98,364080,456
89,98,364080,456
86,85,364560,180
81,85,364560,180
93,100,364560,180
89,100,364560,180
94,112,364800,940
86,92,364800,940
82,92,364800,940
89,92,364800,940
89,80,365760,480
92,95,365760,480
86,80,365760,480
80,80,365760,480
89,85,366240,480
94,101,366240,480
82,85,366240,480
86,85,366240,480
87,90,366720,720
92,90,366720,700
83,90,366720,720
95,108,366720,720
80,81,367440,240
92,96,367440,240
75,88,367680,480
87,104,367680,480
87,83,368160,456
83,83,368160,456
95,98,368160,456
92,83,368160,456
84,92,368640,960
96,112,368640,960
92,92,368640,960
87,92,368647,960
94,95,369600,456
82,80,369600,456
87,80,369600,7
87,85,370080,456
92,85,370080,456
84,85,370080,456
96,101,370080,456
85,90,370560,720
92,90,370560,700
97,108,370560,720
92,96,371280,240
80,81,371280,240
77,88,371520,480
89,104,371520,480
97,98,372000,456
92,83,372000,456
85,83,372000,456
95,88,372480,960
86,88,372480,960
92,88,372480,960
98,104,372480,960
92,89,373440,456
95,89,373440,456
96,105,373440,456
84,89,373440,456
95,92,373920,456
92,92,373920,456
86,92,373920,456
98,109,373920,456
93,97,374400,120
89,97,374400,120
101,115,374400,120
96,97,374400,120
99,97,374640,120
87,82,374640,120
96,97,374880,120
84,82,374880,120
93,98,375120,120
81,83,375120,120
90,106,375360,120
78,106,375360,120
75,78,375600,120
87,92,375600,120
84,93,375840,120
72,79,375840,120
81,93,376080,120
69,79,376080,120
66,77,376320,120
78,91,376320,120
63,70,376560,120
75,83,376560,120
72,83,376800,120
60,70,376800,120
69,72,377040,120
57,61,377040,120
54,68,377280,120
66,80,377280,120
63,79,377520,120
51,67,377520,120
60,77,377760,120
48,65,377760,120
42,63,378000,120
54,75,378000,120
48,68,378240,960
60,81,378240,478
55,68,378240,212
55,60,378480,720
60,65,378720,480
63,58,378960,240
66,62,379200,240
67,64,379440,240
72,67,379680,240
75,69,379920,240
78,72,380160,240
79,65,380400,240
75,81,380880,216
79,81,380880,216
87,96,380880,216
79,85,381120,480
87,101,381120,480
75,85,381120,480
77,80,381600,120
74,80,381600,120
86,95,381600,120
84,95,381840,120
72,80,381840,120
75,80,381840,120
67,69,382320,240
73,74,382560,240
76,66,382800,240
78,71,383040,240
79,73,383280,240
84,77,383520,240
88,79,383760,240
90,82,384000,240
91,74,384240,240
79,81,384720,216
88,96,384720,216
76,81,384720,216
79,85,384960,480
88,101,384960,480
76,85,384960,480
74,80,385440,120
86,95,385440,120
77,80,385440,120
76,80,385680,120
85,95,385680,120
73,80,385680,120
65,62,386160,240
68,62,386400,240
77,81,386640,216
80,81,386640,216
89,96,386640,216
89,101,386880,480
80,85,386880,480
77,85,386880,480
76,80,387360,120
88,95,387360,120
79,80,387360,120
86,95,387600,120
74,80,387600,120
77,80,387600,120
84,81,387840,480
89,81,387840,480
96,96,387840,480
92,96,387840,480
91,91,388320,120
87,77,388320,120
79,77,388320,120
86,77,388560,120
77,77,388560,120
89,91,388560,120
96,81,388800,456
92,81,388800,456
89,81,388800,456
101,96,388800,456
89,77,389280,120
92,77,389280,120
96,91,389280,120
84,77,389280,120
95,91,389520,120
89,77,389520,120
83,77,389520,120
92,77,389520,120
89,74,389760,456
96,74,389760,456
101,88,389760,456
92,74,389760,456
96,83,390240,240
87,83,390240,240
99,83,390240,240
98,83,390480,240
95,83,390480,240
86,70,390480,240
84,70,390720,240
93,83,390720,240
96,83,390720,240
91,83,390960,240
95,83,390960,240
83,70,390960,240
81,70,391200,240
93,83,391200,240
89,83,391200,240
89,83,391440,240
80,70,391440,240
92,83,391440,240
78,77,391680,240
90,91,391680,240
91,86,391920,240
79,73,391920,240
83,80,392400,228
80,80,392400,228
92,95,392400,228
86,80,392400,228
83,90,392640,480
80,90,392640,480
92,106,392640,480
86,90,392640,480
79,73,393120,120
91,87,393120,120
77,70,393360,120
89,83,393360,120
66,77,393600,240
78,91,393600,240
67,73,393840,240
79,86,393840,240
86,80,394320,228
92,95,394320,228
80,80,394320,228
83,80,394320,228
80,90,394560,480
92,106,394560,480
86,90,394560,480
83,90,394560,480
79,73,395040,120
91,87,395040,120
89,83,395280,120
77,70,395280,120
80,91,395520,240
68,77,395520,240
82,86,395760,240
70,73,395760,240
90,80,396240,228
83,80,396240,228
95,95,396240,228
90,90,396480,480
95,106,396480,480
83,90,396480,480
90,87,396960,120
78,73,396960,120
74,70,397200,120
86,83,397200,120
71,77,397440,240
83,91,397440,240
73,73,397680,240
85,86,397680,240
90,92,398160,228
98,109,398160,228
86,92,398160,228
86,103,398400,480
98,121,398400,480
90,103,398400,480
95,100,398880,120
83,83,398880,120
90,95,399120,120
78,80,399120,120
95,109,399360,480
88,92,399360,480
91,92,399360,480
100,109,399360,480
91,92,400320,480
86,92,400320,480
98,109,400320,480
95,109,400320,480
95,109,401280,480
91,92,401280,480
85,92,401280,480
97,109,401280,480
94,109,402240,480
85,92,402240,480
82,92,402240,480
90,109,402240,480
50,80,403680,160
59,71,403840,160
66,71,404000,160
66,81,404160,240
78,73,404400,240
70,79,404640,240
71,74,404880,240
54,80,405600,160
59,71,405760,160
66,71,405920,160
66,81,406080,240
78,73,406320,240
73,79,406560,240
74,74,406800,240
71,80,407520,160
83,75,407680,140
83,75,407840,160
95,80,408000,160
94,76,408160,160
97,76,408320,160
95,80,408480,160
91,75,408640,160
88,74,408800,160
82,80,408960,160
85,75,409120,160
82,76,409280,160
69,80,409440,120
79,80,409440,160
82,76,409600,160
70,75,409680,120
79,80,409760,140
79,86,409920,160
70,86,409920,480
82,77,410080,160
79,77,410240,160
71,80,410400,120
76,80,410400,160
79,76,410560,160
73,76,410640,120
76,80,410720,160
74,93,410880,960
62,79,410880,960
66,79,410880,960
64,75,411840,720
76,90,411840,720
69,75,411840,720
69,59,412560,216
66,59,412560,216
78,72,412560,216
66,79,412800,960
69,79,412800,960
78,93,412800,960
67,75,413760,720
79,90,413760,720
74,75,413760,700
74,59,414480,240
69,59,414480,240
81,72,414480,240
85,93,414720,480
73,79,414720,480
74,73,415440,216
86,86,415440,216
86,93,415680,480
83,79,415680,960
74,79,415680,480
76,75,416160,120
88,89,416160,120
89,85,416400,120
77,72,416400,120
86,79,416640,480
77,79,416640,480
89,93,416640,480
87,75,417120,120
91,89,417120,120
79,75,417120,120
92,85,417360,120
80,72,417360,120
89,72,417360,120
89,79,417600,420
80,79,417600,420
92,93,417600,420
85,81,418035,525
89,85,418050,510
92,88,418065,495
97,92,418080,480
57,80,419040,160
66,71,419200,160
73,71,419360,140
73,81,419520,240
85,73,419760,240
77,79,420000,240
78,74,420240,240
61,80,420960,160
66,71,421120,160
73,71,421280,140
73,81,421440,240
85,73,421680,240
80,79,421920,240
81,74,422160,240
66,80,422880,160
78,75,423040,140
78,75,423200,160
90,80,423360,160
89,76,423520,160
91,76,423680,160
90,80,423840,160
84,75,424000,160
81,74,424160,160
78,80,424320,160
81,75,424480,160
78,76,424640,160
71,68,424800,160
79,80,424800,160
83,76,424960,160
72,68,425120,140
84,80,425120,160
81,68,425120,140
72,73,425280,160
81,86,425280,160
84,80,425440,160
72,70,425600,160
81,83,425600,160
83,89,425760,160
74,76,425760,160
86,88,425920,160
75,81,426080,160
84,81,426080,160
87,96,426080,160
84,90,427200,480
72,76,427200,480
81,76,427200,480
86,87,427680,120
74,73,427680,120
83,73,427680,120
87,79,427920,120
75,67,427920,120
84,67,427920,120
84,90,429120,480
72,76,429120,480
81,76,429120,480
83,73,429600,120
86,87,429600,120
74,73,429600,120
84,67,429840,120
87,79,429840,120
75,67,429840,120
88,50,432000,480
84,42,432000,480
76,42,432000,480
86,45,432480,180
74,38,432480,180
83,38,432480,180
81,38,432720,180
84,45,432720,180
72,38,432720,180
84,50,432960,480
72,42,432960,480
81,42,432960,480
71,38,433440,180
83,45,433440,180
79,38,433440,180
81,45,433680,180
78,38,433680,180
69,38,433680,180
78,42,433920,480
69,42,433920,480
81,50,433920,480
79,38,434400,180
83,45,434400,180
81,38,434640,180
84,45,434640,180
84,50,434880,480
81,42,434880,480
86,45,435360,180
83,38,435360,180
88,45,435600,180
84,38,435600,180
88,49,435840,480
91,62,435840,480
90,49,436320,180
86,41,436320,180
84,41,436560,180
88,49,436560,180
88,55,436800,480
84,46,436800,480
86,49,437280,180
83,41,437280,180
84,49,437520,180
81,41,437520,180
84,50,437760,480
81,42,437760,480
83,38,438240,180
86,45,438240,180
84,38,438480,180
88,45,438480,180
84,42,438720,480
88,50,438720,480
86,41,439200,180
90,49,439200,180
91,49,439440,180
88,41,439440,180
91,53,439680,480
95,68,439680,480
93,53,440160,180
90,45,440160,180
91,53,440400,180
88,45,440400,180
88,50,440640,480
91,60,440640,480
90,53,441120,180
86,45,441120,180
84,45,441360,180
88,53,441360,180
84,42,441600,480
88,50,441600,480
90,45,442080,180
86,38,442080,180
91,45,442320,180
88,38,442320,180
88,42,442560,480
91,50,442560,480
93,49,443040,180
90,41,443040,180
95,49,443280,180
91,41,443280,180
83,53,443520,456
95,68,443520,456
91,53,443520,456
84,53,443520,456
84,45,444000,180
93,53,444000,180
81,45,444000,180
91,53,444240,180
84,45,444240,180
79,45,444240,180
71,53,445440,456
79,68,445440,456
72,53,445440,456
76,53,445440,456
69,40,445920,180
78,47,445920,180
72,40,445920,180
69,40,446160,180
76,47,446160,180
67,40,446160,180
72,40,446160,180
95,68,447360,456
83,53,447360,456
91,53,447360,456
84,53,447360,456
93,53,447840,180
81,45,447840,180
84,45,447840,180
84,45,448080,180
91,53,448080,180
79,45,448080,180
79,68,449280,456
72,53,449280,456
71,53,449280,456
76,53,449280,456
69,40,449760,180
78,47,449760,180
72,40,449760,180
69,40,450000,180
67,40,450000,180
76,47,450000,180
72,40,450000,180
96,53,451200,456
100,68,451200,456
91,53,451200,456
93,53,451200,456
96,53,451680,180
93,45,451680,180
91,45,451680,180
88,45,451920,180
91,45,451920,180
93,53,451920,180
91,68,452160,456
88,53,452160,456
84,53,452160,456
88,53,452640,180
84,45,452640,180
81,45,452640,180
79,45,452880,180
81,45,452880,180
84,53,452880,180
81,68,453120,456
79,53,453120,456
76,53,453120,456
79,53,453600,180
72,45,453600,180
76,45,453600,180
72,45,453840,180
76,53,453840,180
69,45,453840,180
72,68,454080,456
69,53,454080,456
67,53,454080,456
69,53,454560,180
64,45,454560,180
67,45,454560,180
64,45,454800,180
67,53,454800,180
60,45,454800,180
64,53,455040,2880
57,53,455040,3840
55,53,455040,1920
60,53,455040,3840
54,53,456960,1920
62,49,457920,960
71,55,458880,960
72,54,459840,720
74,43,460560,216
74,47,460800,960
79,59,460800,960
73,45,461760,480
81,58,461760,720
76,35,462480,216
83,43,462480,216
79,47,462720,960
83,62,462720,960
81,51,463680,480
78,43,463680,480
72,35,464400,240
84,51,464400,240
70,47,464640,960
88,64,464640,960
86,51,465600,480
71,43,465600,480
67,60,466560,960
69,59,467520,720
71,47,468240,216
71,51,468480,960
76,64,468480,960
70,49,469440,480
78,63,469440,720
76,38,470160,216
79,47,470160,216
79,51,470400,960
83,68,470400,960
82,56,471360,480
78,47,471360,480
73,38,472080,240
88,55,472080,240
76,50,472320,960
85,69,472320,960
86,53,473280,480
74,44,473280,480
69,35,474720,160
81,30,474880,140
81,30,475040,160
93,39,475200,160
92,35,475360,160
95,35,475520,160
93,39,475680,160
90,31,475840,160
81,31,476000,160
69,35,476640,160
81,30,476800,140
81,30,476960,160
93,39,477120,160
92,35,477280,160
95,35,477440,160
93,39,477600,160
90,31,477760,160
81,31,477920,160
69,30,478080,960
66,30,478080,945
62,24,479040,720
66,29,479040,720
57,19,479760,240
64,23,479760,240
66,30,480000,940
69,30,480000,960
62,24,480960,720
66,29,480960,720
57,19,481680,240
64,23,481680,240
69,35,482400,160
81,30,482560,140
81,30,482720,160
93,39,482880,160
92,35,483040,160
95,35,483200,160
93,39,483360,160
90,31,483520,160
81,31,483680,160
69,35,484320,160
81,30,484480,140
81,30,484640,160
93,39,484800,160
92,35,484960,160
95,35,485120,160
93,39,485280,160
88,31,485440,160
81,31,485600,160
73,38,486240,160
85,33,486400,140
85,33,486560,160
95,42,486720,160
94,38,486880,160
97,38,487040,160
95,42,487200,160
91,34,487360,160
88,34,487520,160
73,38,488160,160
85,33,488320,140
85,33,488480,160
95,42,488640,160
94,38,488800,160
97,38,488960,160
95,42,489120,160
91,34,489280,160
88,34,489440,160
73,38,490080,160
85,33,490240,140
85,33,490400,160
94,42,490560,160
93,38,490720,160
96,38,490880,160
94,42,491040,160
91,34,491200,160
88,34,491360,160
85,45,491680,160
96,45,491840,160
94,51,492000,160
91,42,492160,160
88,42,492320,160
85,48,492640,160
96,49,492800,160
94,55,492960,160
91,49,493120,160
88,49,493280,160
94,65,493440,160
91,53,493600,160
88,56,493760,160
94,70,493920,160
91,60,494080,160
88,61,494240,160
94,79,494400,160
91,65,494560,160
88,68,494720,160
94,86,494880,160
91,72,495040,160
88,74,495200,160
82,77,495360,160
94,91,495360,160
91,79,495520,160
88,80,495680,160
82,80,495840,160
94,94,495840,160
91,82,496000,160
88,83,496160,160
82,82,496320,160
94,97,496320,160
91,86,496480,160
88,86,496640,160
82,85,496800,160
94,101,496800,160
91,88,496960,160
88,89,497120,160
82,91,497280,720
88,91,497280,720
91,91,497280,720
94,110,497280,720
58,70,498000,216
64,84,498000,216
52,70,498000,216
60,70,498000,216
58,74,498240,480
52,74,498240,480
64,89,498240,480
60,74,498240,480
65,85,498720,120
53,72,498720,120
60,72,498720,120
55,75,498960,120
60,75,498960,120
67,90,498960,120
69,93,499200,120
60,79,499200,120
57,73,499200,120
60,74,499680,120
55,69,499680,120
67,89,499680,120
58,70,500880,216
60,70,500880,216
52,70,500880,216
64,84,500880,216
58,78,501120,480
64,92,501120,480
52,78,501120,480
60,78,501120,480
65,92,501600,120
60,78,501600,120
53,78,501600,120
60,81,501840,120
55,81,501840,120
67,96,501840,120
60,84,502080,480
57,84,502080,480
69,100,502080,480
55,81,502560,120
67,97,502560,120
60,81,502560,120
60,84,502800,120
57,84,502800,120
69,100,502800,120
58,86,503040,120
70,102,503040,120
60,86,503040,120
57,81,503520,120
69,97,503520,120
60,81,503520,120
67,71,504480,120
60,60,504480,120
55,60,504480,120
60,63,504720,120
57,63,504720,120
69,75,504720,120
67,66,504960,120
59,66,504960,120
71,78,504960,120
65,66,504960,120
67,68,505440,120
60,68,505440,120
64,68,505440,120
72,80,505440,120
74,82,505920,120
67,69,505920,120
62,69,505920,120
64,71,506400,120
76,84,506400,120
67,71,506400,120
78,78,506880,80
74,72,506880,960
72,72,506880,960
79,73,506960,80
78,80,507040,80
79,75,507120,80
78,82,507200,80
79,78,507280,80
78,84,507360,80
79,81,507440,80
78,86,507520,80
79,84,507600,60
78,89,507660,60
76,84,507720,60
78,85,507780,60
71,79,507840,480
79,93,507840,480
74,83,508320,120
78,75,508560,120
79,83,508800,120
62,66,509280,120
66,60,509520,120
67,66,509760,120
50,69,510240,120
54,61,510480,120
55,65,510720,120
59,65,510840,120
60,66,510960,120
62,67,511080,120
64,68,511200,120
66,69,511320,120
67,70,511440,120
69,71,511560,120
71,71,511680,120
74,72,511800,120
76,75,511920,120
78,78,512040,120
79,81,512160,120
83,83,512280,120
84,86,512400,120
86,89,512520,120
84,84,512730,630
79,84,512730,630
75,84,512730,630
87,101,512730,630
63,88,513360,216
60,73,513360,216
51,73,513360,216
51,78,513600,480
60,78,513600,480
63,93,513600,480
53,75,514080,120
60,75,514080,120
65,89,514080,120
55,79,514320,120
67,94,514320,120
60,79,514320,120
68,97,514560,120
60,82,514560,120
56,82,514560,120
56,78,515040,120
60,78,515040,120
68,93,515040,120
68,82,516000,120
80,97,516000,120
77,84,516600,630
80,84,516600,630
89,101,516600,630
65,88,517200,216
61,73,517200,216
53,73,517200,216
53,78,517440,480
61,78,517440,480
65,93,517440,480
54,75,517920,120
61,75,517920,120
66,89,517920,120
56,79,518160,120
68,94,518160,120
61,79,518160,120
69,97,518400,120
66,82,518400,120
57,73,518400,120
57,70,518880,120
66,78,518880,120
69,93,518880,120
69,82,519840,120
81,97,519840,120
78,84,520440,630
81,84,520440,630
90,101,520440,630
66,88,521040,216
62,73,521040,216
54,73,521040,216
54,78,521280,480
62,78,521280,480
66,93,521280,480
55,75,521760,120
62,75,521760,120
67,89,521760,120
57,79,522000,120
69,94,522000,120
62,79,522000,120
70,97,522240,120
62,82,522240,120
58,82,522240,120
57,78,522720,120
62,78,522720,120
69,93,522720,120
73,87,523680,120
67,73,523680,120
61,73,523680,120
62,78,524160,120
66,78,524160,120
74,93,524160,120
69,76,524880,960
72,76,525120,720
81,90,525120,720
79,82,525840,240
78,90,526080,240
81,76,526800,940
84,82,527040,700
93,97,527040,700
81,89,527760,240
84,89,527760,240
93,89,527760,240
80,97,528000,240
83,97,528000,240
92,97,528000,240
71,76,528720,960
74,76,528960,720
83,90,528960,720
81,82,529680,240
71,72,529920,240
74,72,529920,240
80,90,529920,240
83,86,530640,931
86,95,530880,698
95,105,530880,698
84,86,531600,931
87,95,531840,698
96,105,531840,698
84,86,532560,931
87,95,532800,698
96,105,532800,698
84,86,533520,931
87,95,533760,698
96,105,533760,698
82,86,534480,931
86,95,534720,698
94,105,534720,698
81,86,535440,931
87,95,535680,698
93,105,535680,698
79,86,536400,931
88,95,536640,698
82,95,536640,698
91,105,536640,698
78,86,537360,240
81,83,537600,240
90,105,537600,240
86,95,537600,240
74,75,537840,240
86,81,538080,120
81,68,538080,120
78,68,538080,120
69,75,538320,240
81,81,538560,120
78,68,538560,120
74,68,538560,120
66,75,538800,240
78,81,539040,120
74,68,539040,120
69,68,539040,120
62,72,539280,240
74,81,539520,120
69,68,539520,120
66,68,539520,120
66,77,540960,480
69,83,541440,1200
66,46,542880,480
69,49,543360,1200
69,46,544800,480
72,49,545280,960
74,48,546240,720
75,46,546960,216
75,53,547200,960
74,46,548160,480
77,49,548880,240
80,54,549120,960
79,50,550080,720
74,50,550800,240
77,57,551040,960
75,52,552000,480
75,49,552960,940
75,50,553920,1440
77,56,554640,240
79,65,554880,480
82,75,555840,1440
79,63,555840,1440
82,62,557760,1440
86,73,557760,1440
77,67,559620,1740
82,69,559650,1710
89,72,559680,1680
86,66,561360,240
81,62,561600,960
87,73,561600,720
84,61,562320,240
82,69,562560,960
75,53,563520,1920
84,63,563520,720
80,52,564240,240
79,63,564480,960
80,64,565440,1680
74,54,565440,960
75,64,566400,960
79,52,567120,240
72,42,567360,960
81,50,567360,720
78,37,568080,240
91,40,568320,960
87,40,568320,960
79,34,568320,1920
89,35,569280,480
86,35,569280,480
87,41,569760,480
91,41,569760,480
79,31,570240,1920
89,46,570240,700
92,46,570240,720
89,39,570960,240
86,39,570960,240
86,46,571200,480
83,46,571200,480
84,40,571680,480
87,40,571680,480
89,40,572160,480
86,40,572160,480
79,34,572160,1920
84,35,572640,480
87,35,572640,480
86,35,573120,480
82,35,573120,480
80,41,573600,480
84,41,573600,480
79,38,574080,1420
83,46,574080,720
84,39,574800,240
81,39,574800,240
86,46,575040,480
83,46,575040,480
79,40,575520,2400
91,40,576000,960
87,40,576000,960
89,35,576960,480
86,35,576960,480
87,43,577440,480
91,43,577440,480
79,34,577920,1900
91,55,577920,720
94,55,577920,720
92,42,578640,240
89,42,578640,220
89,50,578880,480
86,50,578880,480
89,44,579360,480
92,44,579360,480
91,44,579840,456
87,44,579840,456
79,37,579840,1900
84,37,580320,480
87,37,580320,480
89,36,580800,456
86,36,580800,456
83,42,581280,480
86,42,581280,480
84,40,581760,456
79,25,581760,1900
87,46,581760,456
84,39,582240,480
81,39,582240,480
86,46,582720,456
83,46,582720,456
79,40,583200,460
67,24,583920,240
72,39,584160,240
79,24,584400,240
67,24,584880,240
74,38,585120,240
79,24,585360,240
72,24,585840,240
75,41,586080,240
80,24,586320,240
68,24,586800,240
74,38,587040,240
80,24,587266,240
72,32,587760,240
80,40,588000,240
86,32,588240,240
71,32,588720,240
79,41,588960,240
86,34,589200,240
77,35,589680,240
86,47,589920,240
91,38,590160,240
75,38,590640,240
84,52,590880,240
91,36,591120,240
72,39,591840,600
74,47,591840,600
68,39,591840,600
75,45,592440,120
74,45,592560,120
72,45,592680,120
74,46,592800,120
75,49,592920,120
77,52,593040,120
79,55,593160,120
82,68,593280,480
80,64,593760,240
71,39,595680,600
74,47,595680,600
68,39,595680,600
75,45,596280,120
74,45,596400,120
73,45,596520,120
74,46,596640,120
75,49,596760,120
77,52,596880,120
79,55,597000,120
82,68,597120,480
80,64,597600,240
77,62,598080,720
87,74,598080,480
85,69,598560,240
75,41,600960,480
65,41,600960,132
66,41,601080,132
65,41,601200,132
64,41,601320,132
73,61,601440,240
65,45,601440,132
68,47,601560,132
71,49,601680,132
73,52,601800,132
87,67,601920,480
78,67,601920,720
85,61,602400,240
77,51,602880,132
87,75,602880,480
78,47,603000,132
77,47,603120,132
76,47,603240,132
85,70,603360,240
77,51,603360,132
80,53,603480,132
83,56,603600,132
85,60,603720,132
89,77,603840,720
99,77,603840,480
97,86,604320,720
96,75,605040,240
95,77,605280,240
94,73,605520,240
93,69,605760,240
92,63,606000,240
91,70,606240,240
90,69,606480,240
89,70,606720,240
88,60,606960,240
87,64,607200,240
86,67,607440,240
85,71,607680,240
84,60,607920,240
83,67,608160,240
82,54,608400,240
81,60,608640,240
80,54,608880,240
79,59,609120,240
78,50,609360,240
77,44,609600,240
76,46,609840,240
75,53,610080,240
74,46,610320,240
75,54,611040,480
78,58,611520,480
84,54,612000,480
80,54,612960,480
79,43,613440,480
71,34,613920,480
80,32,614400,240
84,40,614400,960
72,23,614640,240
80,23,614880,240
72,23,615120,240
82,35,615360,480
79,35,615360,480
80,41,615840,480
84,41,615840,480
82,46,616320,698
85,46,616320,698
82,39,617040,240
79,39,617040,240
76,46,617280,480
79,46,617280,480
80,40,617760,480
77,40,617760,480
79,40,618240,480
82,40,618240,480
80,35,618720,480
77,35,618720,480
79,35,619200,480
75,35,619200,480
73,41,619680,480
77,41,619680,480
72,25,620160,720
76,46,620160,720
77,39,620880,240
74,39,620880,240
79,46,621120,480
76,46,621120,480
72,51,621600,360
84,53,621600,360
73,49,622080,1920
85,58,622080,960
83,42,623040,480
80,35,623040,480
81,41,623520,480
85,49,623520,480
73,44,624000,1420
83,56,624000,698
86,56,624000,698
83,44,624720,216
80,37,624720,216
77,44,624960,480
80,52,624960,480
73,39,625440,480
85,47,625440,480
83,39,625440,480
78,72,625920,1920
82,72,625920,960
90,72,625920,960
88,62,626880,480
85,51,626880,480
86,57,627360,480
90,68,627360,480
73,52,627840,1440
88,77,627840,698
91,85,627840,698
88,68,628560,240
85,57,628560,240
82,68,628800,480
85,81,628800,480
78,70,629280,480
90,87,629280,480
88,70,629280,480
83,57,629760,240
87,57,629760,240
93,68,629760,240
95,68,629760,240
81,56,630240,120
93,66,630240,120
83,58,630480,120
95,68,630480,120
84,60,630720,240
96,71,630720,240
81,55,630960,240
93,66,630960,240
78,58,631200,120
90,68,631200,120
79,53,631440,120
91,63,631440,120
81,61,631680,240
93,73,631680,240
78,56,631920,240
90,68,631920,240
72,59,632160,120
84,70,632160,120
74,54,632400,120
86,64,632400,120
75,63,632640,240
87,74,632640,240
72,58,632880,240
84,70,632880,240
69,60,633120,120
81,71,633120,120
71,56,633360,120
83,66,633360,120
72,64,633600,240
84,76,633600,240
69,58,633840,240
81,70,633840,240
66,62,634080,120
78,73,634080,120
67,56,634320,120
79,66,634320,120
69,65,634560,240
81,78,634560,240
66,60,634800,240
78,72,634800,240
73,63,635280,120
69,63,635280,120
67,63,635280,120
79,75,635280,120
78,64,635760,120
75,64,635760,120
69,64,635760,120
81,75,635760,120
79,69,636240,120
76,69,636240,120
69,69,636240,120
81,82,636240,120
78,75,636720,120
75,75,636720,120
72,75,636720,120
84,89,636720,120
81,81,637200,120
76,81,637200,120
73,81,637200,120
85,95,637200,120
82,89,637440,960
85,89,637440,960
91,89,637440,960
94,105,637440,960
81,79,638400,480
86,79,638400,480
89,79,638400,480
93,93,638400,480
73,80,639120,240
85,90,639120,240
82,89,639360,960
85,89,639360,960
91,89,639360,960
94,105,639360,960
81,79,640320,480
86,79,640320,480
89,79,640320,480
93,93,640320,480
74,80,641040,240
86,90,641040,240
83,89,641280,960
86,89,641280,960
92,89,641280,960
95,105,641280,960
85,89,642240,960
88,89,642240,960
93,89,642240,960
97,105,642240,960
86,89,643200,960
93,89,643200,960
98,105,643200,960
89,89,644160,960
93,89,644160,960
101,105,644160,960
84,83,645120,720
88,83,645120,720
91,83,645120,720
96,100,645120,720
88,87,645840,216
84,73,645840,216
76,73,645840,216
88,92,646080,480
76,77,646080,480
84,77,646080,480
86,75,646560,120
77,75,646560,120
89,88,646560,120
79,78,646800,120
88,78,646800,120
91,93,646800,120
81,82,647040,456
89,82,647040,456
93,97,647040,456
81,77,647520,480
93,92,647520,480
89,77,647520,480
91,92,648000,480
79,77,648000,480
88,77,648000,480
88,75,648480,120
84,75,648480,120
96,88,648480,120
86,78,648720,120
91,78,648720,120
98,93,648720,120
88,82,648960,465
97,82,648960,465
100,97,648960,465
88,77,649440,480
100,92,649440,480
97,77,649440,480
93,92,649920,480
81,77,649920,480
89,77,649920,480
95,75,650400,120
86,75,650400,120
98,88,650400,120
88,78,650640,120
96,78,650640,120
100,93,650640,120
89,82,650880,480
98,82,650880,480
101,97,650880,480
86,75,651360,120
95,75,651360,120
98,88,651360,120
84,78,651600,120
93,78,651600,120
96,93,651600,120
95,92,651840,480
83,77,651840,480
91,77,651840,480
93,75,652320,120
84,75,652320,120
96,88,652320,120
86,78,652560,120
95,78,652560,120
98,93,652560,120
88,82,652800,480
96,82,652800,480
100,97,652800,480
84,75,653280,120
93,75,653280,120
96,88,653280,120
83,78,653520,120
91,78,653520,120
95,93,653520,120
93,92,653760,480
81,77,653760,480
89,77,653760,480
91,75,654240,120
83,75,654240,120
95,88,654240,120
84,78,654480,120
93,78,654480,120
96,93,654480,120
86,82,654720,480
95,82,654720,480
98,97,654720,480
83,75,655200,120
91,75,655200,120
95,88,655200,120
81,78,655440,120
89,78,655440,120
93,93,655440,120
79,82,655680,480
88,82,655680,480
91,97,655680,480
77,75,656160,120
86,75,656160,120
89,88,656160,120
76,78,656400,120
84,78,656400,120
88,93,656400,120
75,73,656640,390
78,73,656640,390
81,73,656640,390
84,73,656640,390
87,87,656640,390
72,71,657120,870
75,71,657120,870
78,71,657120,870
81,71,657120,870
84,84,657120,870
69,66,658080,390
72,66,658080,390
75,66,658080,390
78,66,658080,390
81,78,658080,390
67,63,658560,480
71,63,658560,480
74,63,658560,480
77,63,658560,480
79,75,658560,480
67,63,659040,160
79,55,659200,160
77,55,659360,160
79,63,659520,160
82,63,659520,160
89,57,659680,160
88,57,659840,160
67,63,660000,160
70,63,660000,160
77,56,660160,160
76,56,660320,160
65,63,660480,160
69,63,660480,160
76,57,660640,160
74,57,660800,160
77,63,660960,160
81,63,660960,160
88,55,661120,160
86,56,661280,160
81,64,661440,160
84,64,661440,160
91,58,661600,160
90,58,661760,160
69,64,661920,160
72,64,661920,160
79,58,662080,160
78,58,662240,160
67,66,662400,160
72,66,662400,160
81,59,662560,160
79,59,662720,160
79,66,662880,160
84,66,662880,160
93,58,663040,160
91,58,663200,160
84,67,663360,160
86,67,663360,160
95,60,663520,160
93,61,663680,160
72,68,663840,160
74,68,663840,160
83,61,664000,160
81,61,664160,160
72,69,664320,160
74,69,664320,160
83,62,664480,160
81,62,664640,160
84,69,664800,160
86,69,664800,160
95,62,664960,160
93,62,665120,160
89,70,665280,160
95,70,665280,160
100,62,665440,160
98,63,665600,160
77,71,665760,160
83,71,665760,160
88,63,665920,160
86,63,666080,160
72,69,666240,456
76,69,666240,456
84,83,666240,456
60,63,666720,240
72,74,666720,240
64,63,666720,240
60,56,667080,108
64,56,667080,108
72,66,667080,108
61,63,667200,456
64,63,667200,456
70,63,667200,456
73,74,667200,456
73,65,667680,480
76,65,667680,480
82,65,667680,480
85,78,667680,480
82,69,668160,480
74,69,668160,480
77,69,668160,480
86,83,668160,480
62,63,668640,240
74,74,668640,240
70,63,668640,240
62,56,669000,108
70,56,669000,108
74,66,669000,108
64,63,669120,456
70,63,669120,456
73,63,669120,456
76,74,669120,456
76,66,669600,480
82,66,669600,480
85,66,669600,480
88,80,669600,480
86,71,670080,480
77,71,670080,480
81,71,670080,480
89,86,670080,480
69,66,670560,240
65,66,670560,240
77,78,670560,240
74,66,670560,240
69,59,670920,120
65,59,670920,120
74,59,670920,120
77,70,670920,120
69,67,671040,480
72,67,671040,480
77,67,671040,480
81,79,671040,480
81,77,671520,931
84,77,671520,931
89,77,671520,931
93,93,671520,931
81,79,672480,960
84,79,672480,960
89,79,672480,960
93,95,672480,960
79,81,673440,960
83,81,673440,960
88,81,673440,960
91,97,673440,960
89,101,674400,960
77,83,674400,960
83,83,674400,960
86,83,674400,960
71,78,675360,456
77,78,675360,456
79,78,675360,456
83,94,675360,456
72,79,675840,480
76,79,675840,480
79,79,675840,480
84,95,675840,480
76,80,676560,216
72,67,676560,216
64,67,676560,216
76,85,676800,480
64,71,676800,480
72,71,676800,480
72,69,677280,120
65,69,677280,120
77,81,677280,120
67,72,677520,120
72,72,677520,120
79,86,677520,120
69,75,677760,120
72,75,677760,120
81,89,677760,120
67,71,678240,120
79,85,678240,120
72,71,678240,120
60,82,679440,216
57,69,679440,216
52,69,679440,216
60,88,679680,931
52,74,679680,931
57,74,679680,931
57,72,680640,456
60,72,680640,456
62,85,680640,456
57,73,681120,456
60,73,681120,456
64,86,681120,456
57,75,681600,960
60,75,681600,960
65,89,681600,1920
55,76,682560,931
59,90,682560,931
55,73,683520,1920
60,73,683520,1920
64,87,683520,1920
48,60,0,720
55,63,30,690
60,67,60,660
64,70,90,630
36,55,720,220
43,55,720,220
48,65,720,220
36,55,960,480
43,55,960,480
48,65,960,480
38,50,1440,120
50,59,1440,120
40,55,1680,120
48,55,1680,120
52,65,1680,120
41,56,1920,120
48,56,1920,120
53,67,1920,120
40,52,2400,120
48,52,2400,120
52,62,2400,120
36,55,3600,216
43,55,3600,216
48,65,3600,216
36,55,3840,480
43,55,3840,480
48,65,3840,480
38,50,4320,120
50,59,4320,120
40,55,4560,120
48,55,4560,120
52,65,4560,120
41,56,4800,240
48,56,4800,240
53,67,4800,240
48,50,5280,120
40,50,5280,120
52,59,5280,120
41,55,5520,120
48,55,5520,120
53,65,5520,120
43,56,5760,120
48,56,5760,120
55,67,5760,120
41,52,6240,120
48,52,6240,120
53,62,6240,120
48,50,7200,120
40,50,7200,120
52,59,7200,120
41,55,7440,120
48,55,7440,120
53,65,7440,120
38,56,7680,120
50,67,7680,120
40,57,8160,120
52,68,8160,120
35,59,8640,120
47,70,8640,120
36,62,9120,120
48,73,9120,120
33,67,9600,960
38,67,9600,960
45,79,9600,960
31,63,10560,480
38,63,10560,480
43,75,10560,480
62,70,11040,120
66,63,11280,120
67,69,11520,120
50,56,12000,120
54,50,12240,120
55,55,12480,120
38,56,12960,120
42,50,13200,120
43,55,13440,480
55,55,14400,960
58,55,14400,960
46,60,15360,720
53,63,15390,690
58,67,15420,660
62,70,15450,630
34,55,16080,216
46,65,16080,216
34,55,16320,480
46,65,16320,480
36,50,16800,120
48,59,16800,120
38,55,17040,120
50,65,17040,120
39,56,17280,120
46,56,17280,120
51,67,17280,120
38,52,17760,120
46,52,17760,120
50,62,17760,120
34,55,18960,216
46,65,18960,216
34,55,19200,480
46,65,19200,480
36,50,19680,120
48,59,19680,120
38,55,19920,120
50,65,19920,120
39,56,20160,240
46,56,20160,240
51,67,20160,240
46,50,20640,120
38,50,20640,120
50,59,20640,120
39,55,20880,120
46,55,20880,120
51,65,20880,120
41,56,21120,120
46,56,21120,120
53,67,21120,120
39,52,21600,120
46,52,21600,120
51,62,21600,120
38,50,22560,120
50,59,22560,120
39,55,22800,120
51,65,22800,120
41,56,23040,120
53,67,23040,120
39,57,23520,120
51,68,23520,120
35,59,24000,120
47,70,24000,120
36,62,24480,120
48,73,24480,120
33,62,24960,120
45,73,24960,120
32,62,25440,960
38,62,25440,960
44,73,25440,960
31,62,26400,960
38,62,26400,960
43,73,26400,960
30,62,27360,940
38,62,27360,940
42,73,27360,940
30,62,28320,480
38,62,28320,480
42,73,28320,480
31,51,28800,120
38,51,28800,120
43,61,28800,120
50,58,29280,960
53,58,29280,960
59,69,29280,960
55,58,29280,960
31,48,30240,120
43,57,30240,120
36,54,30720,120
43,54,30720,120
48,64,30720,120
48,34,31440,216
52,40,31440,216
48,39,31680,480
52,46,31680,480
50,34,32160,120
53,41,32160,120
52,36,32400,120
55,43,32400,120
53,39,32640,120
57,46,32640,120
52,34,33120,120
55,40,33120,120
55,37,33600,480
59,44,33600,480
60,41,34080,120
57,34,34080,120
59,37,34320,120
62,44,34320,120
65,47,34560,480
60,39,34560,480
64,44,35040,120
60,37,35040,120
62,40,35280,120
55,34,35280,120
64,49,35520,480
60,41,35520,480
62,42,36000,120
55,35,36000,120
52,35,36240,120
60,42,36240,120
59,49,36480,720
55,41,36480,720
64,44,37200,216
60,37,37200,216
64,53,37440,720
60,45,37440,720
67,47,38160,216
64,39,38160,216
67,54,38400,480
64,45,38400,480
65,50,38880,120
50,39,39360,480
53,46,39360,480
52,34,39840,120
55,41,39840,120
53,36,40080,120
57,43,40080,120
55,39,40320,120
58,46,40320,120
53,34,40800,120
57,40,40800,120
57,37,41280,480
61,44,41280,480
62,41,41760,120
59,34,41760,120
61,37,42000,120
64,44,42000,120
67,47,42240,480
62,39,42240,480
65,44,42720,120
62,37,42720,120
64,40,42960,120
57,34,42960,120
65,49,43200,480
62,41,43200,480
64,42,43680,120
57,35,43680,120
53,35,43920,120
62,42,43920,120
61,49,44160,720
57,41,44160,720
65,44,44880,216
62,37,44880,216
65,53,45120,720
62,45,45120,720
69,47,45840,216
65,39,45840,216
69,54,46080,480
66,45,46080,480
67,50,46560,120
52,37,47040,480
55,44,47040,480
57,41,47520,120
54,34,47520,120
55,37,47760,120
59,44,47760,120
60,54,48000,720
57,45,48000,720
55,44,48960,480
64,52,48960,480
66,46,49440,120
57,39,49440,120
59,41,49680,120
67,49,49680,120
60,51,49920,480
69,60,49920,480
63,51,49920,480
60,47,50640,216
63,47,50640,216
69,56,50640,216
61,54,50880,480
70,64,50880,480
64,54,50880,480
51,50,52560,216
47,50,52560,216
51,58,52800,480
47,58,52800,480
49,51,53280,120
52,51,53280,120
51,53,53520,120
54,53,53520,120
52,61,53760,480
56,61,53760,460
59,54,54240,120
56,54,54240,120
61,58,54480,120
57,58,54480,120
63,61,54720,480
59,61,54720,480
61,59,55200,120
64,59,55200,120
63,61,55440,120
66,61,55440,120
64,63,55680,480
68,63,55680,480
66,61,56160,120
69,61,56160,120
68,64,56400,120
71,64,56400,120
69,69,56640,240
72,69,56640,240
70,63,56880,216
73,63,56880,216
70,63,57120,720
73,63,57120,720
69,60,57840,240
72,60,57840,240
69,63,58080,240
72,63,58080,240
70,57,58320,216
73,57,58320,216
70,57,58560,240
73,57,58560,240
71,57,58800,216
74,57,58800,216
71,63,59040,720
74,63,59040,720
70,63,59760,240
73,63,59760,240
70,68,60000,240
73,68,60000,240
71,63,60240,216
74,63,60240,216
71,65,60480,240
74,65,60480,240
72,63,60720,216
72,71,60960,700
73,63,61680,216
73,71,61920,240
70,63,62160,216
70,67,62400,240
67,63,62640,216
67,73,62880,240
58,67,63120,240
59,74,63360,120
47,70,63600,240
60,74,63840,720
48,62,63840,720
35,69,64560,240
36,62,64800,480
48,74,64800,480
47,69,65520,240
48,58,65760,480
60,69,65760,480
35,68,66480,240
36,62,66720,480
48,74,66720,480
35,64,67200,120
47,76,67200,120
47,65,67680,120
51,65,67680,120
54,65,67680,120
59,77,67680,120
60,64,69360,240
64,70,69600,240
76,63,69840,240
59,38,71280,240
63,42,71520,240
75,37,71760,240
60,26,73200,240
64,28,73440,240
60,22,73680,240
64,28,73920,240
60,24,74160,240
64,24,74400,240
69,20,74640,240
62,23,75120,240
65,27,75360,240
62,22,75600,240
65,27,75840,240
62,24,76080,240
65,24,76320,240
69,20,76560,240
52,24,77040,240
56,27,77280,240
52,24,77520,240
56,27,77760,240
52,23,78000,240
56,23,78240,240
62,19,78480,240
57,23,78960,240
64,27,79200,240
57,24,79440,240
64,27,79680,240
57,22,79920,240
64,22,80160,240
69,20,80400,240
45,29,80880,240
52,32,81120,240
45,28,81360,240
52,32,81600,240
45,27,81840,240
52,27,82080,240
54,27,82320,240
43,26,82800,240
52,31,83040,240
55,27,83280,240
60,39,83520,240
55,34,83760,240
52,37,84000,240
48,40,84240,240
42,44,84480,240
47,38,84720,240
52,38,84960,240
55,38,85200,240
40,51,85440,240
47,40,85680,240
52,42,85920,240
55,42,86160,240
35,57,86400,240
47,44,86640,240
50,44,86880,240
55,44,87120,240
67,53,87360,240
62,44,87600,240
59,44,87840,240
55,44,88080,240
47,53,88320,240
50,42,88560,240
55,44,88800,240
62,41,89040,240
51,39,89520,240
57,42,89760,240
60,39,90000,240
52,39,90480,240
55,42,90720,240
60,39,90960,240
53,32,91440,240
57,37,91680,240
60,32,91920,240
55,33,92400,240
60,37,92640,240
64,34,92880,240
56,44,93120,960
62,34,93360,240
65,34,93600,240
68,34,93840,240
57,44,94080,960
60,30,94320,240
65,34,94560,240
69,29,94800,240
59,32,95040,960
63,26,95280,240
66,29,95520,240
71,26,95760,240
64,28,96000,240
52,20,96240,240
64,20,96480,240
52,20,96720,240
62,28,96960,240
59,24,96960,240
52,21,97200,240
64,21,97440,240
60,18,97440,240
52,21,97680,240
65,28,97920,240
62,24,97920,240
52,20,98160,240
62,20,98400,240
59,17,98400,240
52,20,98640,240
56,23,98880,240
59,27,98880,240
52,21,99120,240
60,21,99360,240
57,18,99360,240
52,21,99600,240
59,24,99840,240
62,28,99840,240
52,20,100080,240
57,24,100320,240
60,20,100320,240
52,20,100560,240
59,28,100800,240
55,24,100800,240
52,21,101040,240
57,21,101280,240
53,18,101280,240
52,21,101520,240
56,28,101760,240
52,20,102000,240
57,20,102240,240
54,17,102240,240
52,20,102480,240
56,23,102720,240
59,27,102720,240
52,21,102960,240
56,21,103200,240
52,21,103440,240
60,24,103680,240
64,28,103680,240
52,20,103920,240
60,24,104160,240
64,20,104160,240
52,20,104400,240
62,28,104640,240
59,24,104640,240
52,21,104880,240
64,22,105120,240
60,18,105120,240
52,22,105360,240
67,31,105600,240
64,26,105600,240
52,22,105840,240
65,22,106080,240
62,18,106080,240
52,22,106320,240
59,25,106560,240
62,30,106560,240
52,23,106800,240
65,23,107040,240
62,19,107040,240
52,23,107280,240
60,26,107520,240
64,31,107520,240
52,22,107760,240
57,26,108000,240
60,21,108000,240
52,21,108240,240
62,29,108480,240
59,25,108480,240
52,21,108720,240
59,21,108960,240
56,18,108960,240
52,21,109200,240
57,24,109440,240
60,28,109440,240
52,20,109680,240
57,20,109920,240
54,17,109920,240
52,20,110160,240
56,23,110400,240
59,27,110400,240
52,21,110640,240
56,21,110880,240
52,21,111120,240
60,29,111360,240
57,21,111600,240
52,24,111840,240
48,21,112080,240
60,29,112320,240
57,22,112560,240
52,24,112800,240
48,20,113040,240
62,29,113280,240
57,20,113520,240
53,24,113760,240
50,21,114000,240
62,29,114240,240
57,24,114480,240
53,24,114720,240
50,23,114946,240
62,29,115200,240
59,21,115440,240
57,24,115680,240
52,22,115920,240
62,30,116160,240
59,22,116400,240
56,25,116640,240
52,25,116880,240
69,30,117120,240
65,23,117360,240
64,25,117600,240
57,22,117840,240
69,31,118080,240
64,25,118320,240
60,29,118560,240
57,26,118800,240
38,43,119040,240
50,38,119280,240
53,42,119520,2400
57,47,119760,2160
62,51,120000,1920
38,43,122880,240
50,38,123120,240
53,42,123360,1920
56,47,123600,1680
59,51,123840,1440
56,43,125760,720
58,43,125760,720
62,43,125760,720
65,51,125760,720
70,60,125760,720
43,45,127680,132
44,37,127800,132
43,37,127920,132
42,37,128040,132
43,45,128160,132
46,42,128280,132
51,45,128400,132
55,48,128520,132
56,52,128640,720
58,52,128640,720
55,45,129600,132
56,37,129720,132
55,37,129840,132
54,37,129960,132
55,45,130080,132
58,42,130200,132
63,45,130320,132
67,48,130440,132
68,59,130560,720
70,59,130560,720
80,51,131520,132
77,42,131640,132
74,42,131760,132
70,42,131880,132
68,51,132000,132
65,48,132120,132
62,51,132240,132
56,55,132360,132
57,55,132480,6720
53,46,133440,960
62,60,133440,960
52,50,134400,960
64,59,134400,960
50,52,135360,1920
65,62,135360,1920
53,45,137280,960
62,54,137280,960
52,40,138240,960
60,48,138240,960
52,28,140160,960
56,28,140160,940
59,33,140160,960
65,44,140640,480
64,33,141120,480
56,24,141600,480
45,27,142080,960
57,32,142080,960
67,32,143040,480
64,24,143040,240
57,21,143280,240
69,24,143520,480
65,18,143520,240
57,21,143760,240
70,32,144000,240
67,24,144000,240
57,20,144240,240
67,23,144480,240
64,17,144480,240
57,20,144720,240
61,23,144960,240
64,31,144960,240
57,21,145200,240
65,24,145440,240
62,18,145440,240
57,21,145680,240
64,24,145920,240
67,32,145920,240
57,20,146160,240
62,24,146400,240
65,23,146400,240
57,20,146640,240
64,32,146880,240
60,24,146880,240
57,21,147120,240
62,24,147360,240
58,18,147360,240
57,21,147600,240
61,32,147840,240
57,23,148080,240
59,19,148320,240
62,23,148320,240
57,23,148560,240
61,26,148800,240
64,31,148800,240
57,24,149051,240
61,24,149280,240
64,24,149280,240
57,20,149531,240
69,32,149760,240
57,23,150000,240
69,23,150240,240
57,23,150480,240
69,31,150720,240
57,29,150971,240
69,34,151200,240
57,39,151451,240
64,44,151680,240
57,25,151920,240
64,25,152148,240
57,25,152400,240
64,34,152640,240
57,26,152891,240
64,26,153120,240
57,22,153371,240
67,46,153600,240
55,30,153840,240
67,32,154080,240
55,34,154320,240
67,42,154560,240
55,34,154800,240
67,34,155040,240
55,34,155280,240
66,48,155520,240
55,36,155760,240
66,37,156000,240
55,37,156240,240
65,47,156480,240
55,34,156720,240
65,34,156960,240
55,27,157200,240
64,50,157440,240
55,36,157680,240
64,36,157920,240
55,36,158160,240
62,50,158400,240
55,40,158640,240
62,40,158880,240
55,40,159120,240
60,52,159360,240
55,39,159600,240
60,42,159840,240
55,48,160080,240
59,45,160320,240
55,45,160560,240
59,52,160800,240
55,45,161040,240
67,55,161280,240
55,46,161520,240
67,55,161760,240
55,47,162000,240
67,60,162240,240
55,49,162480,240
67,63,162720,240
55,51,162960,480
62,58,163140,300
65,63,163170,270
71,68,163200,240
64,50,163440,240
76,59,163440,240
65,56,163680,240
77,66,163680,240
61,50,163920,240
73,59,163920,240
62,56,164160,240
74,67,164160,240
58,50,164400,240
70,59,164400,240
59,56,164640,240
71,66,164640,240
55,50,164880,120
67,59,164880,120
40,50,165360,240
52,59,165360,240
41,56,165600,240
53,66,165600,240
37,50,165840,240
49,59,165840,240
38,56,166080,240
50,67,166080,240
34,50,166320,240
46,59,166320,240
35,56,166560,240
47,66,166560,240
31,50,166800,120
43,59,166800,120
48,64,167040,720
55,67,167070,690
60,70,167100,660
64,73,167130,630
36,55,167760,216
43,55,167760,216
48,65,167760,216
36,55,168000,480
43,55,168000,480
48,65,168000,480
38,50,168480,120
50,59,168480,120
40,55,168720,120
48,55,168720,120
52,65,168720,120
41,56,168960,120
48,56,168960,120
53,67,168960,120
40,52,169440,120
48,52,169440,120
52,62,169440,120
36,55,170640,216
43,55,170640,216
48,65,170640,216
36,55,170880,480
43,55,170880,480
48,65,170880,480
38,50,171360,120
50,59,171360,120
40,55,171600,120
48,55,171600,120
52,65,171600,120
41,56,171840,240
48,56,171840,240
53,67,171840,240
48,50,172320,120
40,50,172320,120
52,59,172320,120
41,55,172560,120
48,55,172560,120
53,65,172560,120
43,56,172800,120
48,56,172800,120
55,67,172800,120
41,52,173280,120
48,52,173280,120
53,62,173280,120
48,50,174240,120
40,50,174240,120
52,59,174240,120
41,55,174480,120
48,55,174480,120
53,65,174480,120
38,56,174720,120
50,67,174720,120
40,57,175200,120
52,68,175200,120
35,59,175680,120
47,70,175680,120
36,62,176160,120
48,73,176160,120
33,67,176640,960
38,67,176640,940
45,79,176640,960
31,63,177600,480
38,63,177600,480
43,75,177600,480
62,70,178080,120
66,63,178320,120
67,69,178560,120
50,56,179040,120
54,50,179280,120
55,55,179520,120
38,56,180000,120
42,50,180240,120
43,55,180480,480
55,55,181440,960
58,55,181440,960
46,60,182400,720
53,63,182430,690
58,67,182460,660
62,70,182490,630
34,55,183120,216
46,65,183120,216
34,55,183360,480
46,65,183360,480
36,50,183840,120
48,59,183840,120
38,55,184080,120
50,65,184080,120
39,56,184320,120
46,56,184320,120
51,67,184320,120
38,52,184800,120
46,52,184800,120
50,62,184800,120
34,55,186000,216
46,65,186000,216
34,55,186240,480
46,65,186240,480
36,50,186720,120
48,59,186720,120
38,55,186960,120
50,65,186960,120
39,56,187200,240
46,56,187200,240
51,67,187200,240
46,50,187680,120
38,50,187680,120
50,59,187680,120
39,55,187920,120
46,55,187920,120
51,65,187920,120
41,56,188160,120
46,56,188160,120
53,67,188160,120
39,52,188640,120
46,52,188640,120
51,62,188640,120
38,50,189600,120
50,59,189600,120
39,55,189840,120
51,65,189840,120
41,56,190080,120
53,67,190080,120
39,57,190560,120
51,68,190560,120
35,59,191040,120
47,70,191040,120
36,62,191520,120
48,73,191520,120
33,62,192000,120
45,73,192000,120
32,62,192480,960
38,62,192480,940
44,73,192480,960
31,62,193440,960
38,62,193440,940
43,73,193440,960
30,62,194400,940
38,62,194400,940
42,73,194400,940
30,62,195360,480
38,62,195360,480
42,73,195360,480
31,51,195840,120
38,51,195840,120
43,61,195840,120
50,58,196320,960
53,58,196320,960
59,69,196320,960
55,58,196320,960
31,48,197280,120
43,57,197280,120
36,54,197760,120
43,54,197760,120
48,64,197760,120
48,34,198480,216
52,40,198480,216
48,39,198720,480
52,46,198720,480
50,34,199200,120
53,41,199200,120
52,36,199440,120
55,43,199440,120
53,39,199680,120
57,46,199680,120
52,34,200160,120
55,40,200160,120
55,37,200640,480
59,44,200640,480
60,41,201120,120
57,34,201120,120
59,37,201360,120
62,44,201360,120
65,47,201600,480
60,39,201600,480
64,44,202080,120
60,37,202080,120
62,40,202320,120
55,34,202320,120
64,49,202560,480
60,41,202560,480
62,42,203040,120
55,35,203040,120
52,35,203280,120
60,42,203280,120
59,49,203520,720
55,41,203520,720
64,44,204240,216
60,37,204240,216
64,53,204480,700
60,45,204480,720
67,47,205200,216
64,39,205200,216
67,54,205440,480
64,45,205440,480
65,50,205920,120
50,39,206400,480
53,46,206400,480
52,34,206880,120
55,41,206880,120
53,36,207120,120
57,43,207120,120
55,39,207360,120
58,46,207360,120
53,34,207840,120
57,40,207840,120
57,37,208320,480
61,44,208320,480
62,41,208800,120
59,34,208800,120
61,37,209040,120
64,44,209040,120
67,47,209280,480
62,39,209280,480
65,44,209760,120
62,37,209760,120
64,40,210000,120
57,34,210000,120
65,49,210240,480
62,41,210240,480
64,42,210720,120
57,35,210720,120
53,35,210960,120
62,42,210960,120
61,49,211200,720
57,41,211200,720
65,44,211920,216
62,37,211920,216
65,53,212160,700
62,45,212160,700
69,47,212880,216
65,39,212880,216
69,54,213120,480
66,45,213120,480
67,50,213600,120
52,37,214080,480
55,44,214080,480
57,41,214560,120
54,34,214560,120
55,37,214800,120
59,44,214800,120
60,54,215040,720
57,45,215040,720
55,44,216000,480
64,52,216000,480
66,46,216480,120
57,39,216480,120
59,41,216720,120
67,49,216720,120
60,51,216960,480
69,60,216960,480
63,51,216960,480
60,47,217680,240
63,47,217680,240
69,56,217680,240
61,54,217920,480
70,64,217920,480
64,54,217920,480
51,50,219600,216
47,50,219600,216
51,58,219840,480
47,58,219840,480
49,51,220320,120
52,51,220320,120
51,53,220560,120
54,53,220560,120
52,61,220800,480
56,61,220800,480
59,54,221280,120
56,54,221280,120
61,58,221520,120
57,58,221520,120
63,61,221760,480
59,61,221760,480
61,59,222240,120
64,59,222240,120
63,61,222480,120
66,61,222480,120
64,63,222720,480
68,63,222720,480
66,61,223200,120
69,61,223200,120
68,64,223440,120
71,64,223440,120
69,69,223680,240
72,69,223680,240
70,63,223920,216
73,63,223920,216
70,63,224160,720
73,63,224160,720
69,60,224880,216
72,60,224880,216
69,63,225120,240
72,63,225120,240
70,57,225360,216
73,57,225360,216
70,57,225600,240
73,57,225600,240
71,57,225840,216
74,57,225840,216
71,63,226080,720
74,63,226080,720
70,63,226800,240
73,63,226800,240
70,68,227040,240
73,68,227040,240
71,63,227280,216
74,63,227280,216
71,65,227520,240
74,65,227520,240
72,63,227760,240
72,71,228000,720
73,63,228720,216
73,71,228960,240
70,63,229200,216
70,67,229440,240
67,63,229680,216
67,73,229920,240
58,67,230160,240
59,74,230400,120
47,70,230640,240
60,74,230880,720
48,62,230880,720
35,69,231600,240
36,62,231840,480
48,74,231840,480
47,69,232560,240
48,58,232800,480
60,69,232800,480
35,68,233520,240
36,62,233760,480
48,74,233760,480
35,64,234240,120
47,76,234240,120
47,65,234720,120
51,65,234720,120
54,65,234720,120
59,77,234720,120
60,64,236400,240
64,70,236640,240
76,63,236880,240
59,38,238320,240
63,42,238560,240
75,37,238800,240
60,26,240240,240
64,28,240480,240
60,22,240720,240
64,28,240960,240
60,21,241200,240
64,24,241440,240
69,20,241680,240
62,23,242160,240
65,27,242400,240
62,22,242640,240
65,27,242880,240
62,24,243120,240
65,24,243360,240
69,20,243600,240
52,24,244080,240
56,27,244320,240
52,24,244560,240
56,27,244800,240
52,23,245040,240
56,23,245280,240
62,19,245520,240
57,23,246000,240
64,27,246240,240
57,24,246480,240
64,27,246720,240
57,22,246960,240
64,22,247200,240
69,20,247440,240
45,29,247920,240
52,32,248160,240
45,28,248400,240
52,32,248640,240
45,27,248880,240
52,27,249120,240
54,27,249360,240
43,26,249840,240
52,31,250080,240
55,27,250320,240
60,39,250560,240
55,34,250800,240
52,37,251040,240
48,40,251280,240
42,44,251520,240
47,38,251760,240
52,38,252000,240
55,38,252240,240
40,51,252480,240
47,40,252720,240
52,42,252960,240
55,42,253200,240
35,57,253440,240
47,44,253680,240
50,44,253920,240
55,44,254160,240
67,53,254400,240
62,44,254640,240
59,44,254880,240
55,44,255120,240
47,53,255360,240
50,42,255600,240
55,44,255840,240
62,41,256080,240
51,39,256560,240
57,42,256800,240
60,39,257040,240
52,39,257520,240
55,42,257760,240
60,39,258000,240
53,32,258480,240
57,37,258720,240
60,32,258960,240
55,33,259440,240
60,37,259680,240
64,34,259920,240
56,44,260160,960
62,34,260400,240
65,34,260640,240
68,34,260880,240
57,44,261120,960
60,30,261360,240
65,34,261600,240
69,29,261840,240
59,32,262080,960
63,26,262320,240
66,29,262560,240
71,26,262800,240
64,28,263040,240
52,20,263280,240
64,20,263520,240
52,20,263760,240
62,28,264000,240
59,24,264000,240
52,21,264240,240
64,21,264480,240
60,18,264480,240
52,21,264720,240
65,28,264960,240
62,24,264960,240
52,20,265200,240
62,20,265440,240
59,17,265440,240
52,20,265680,240
56,23,265920,240
59,27,265920,240
52,21,266160,240
60,21,266400,240
57,18,266400,240
52,21,266640,240
59,24,266880,240
62,28,266880,240
52,20,267120,240
57,24,267360,240
60,20,267360,240
52,20,267600,240
59,28,267840,240
55,24,267840,240
52,21,268080,240
57,21,268320,240
53,18,268320,240
52,21,268560,240
56,28,268800,240
52,20,269040,240
57,20,269280,240
54,17,269280,240
52,20,269520,240
56,23,269760,240
59,27,269760,240
52,21,270000,240
56,21,270240,240
52,21,270480,240
60,24,270720,240
64,28,270720,240
52,20,270960,240
60,24,271200,240
64,20,271200,240
52,20,271440,240
62,28,271680,240
59,24,271680,240
52,21,271920,240
64,22,272160,240
60,18,272160,240
52,22,272400,240
67,31,272640,240
64,26,272640,240
52,22,272880,240
65,22,273120,240
62,18,273120,240
52,22,273360,240
59,25,273600,240
62,30,273600,240
52,23,273840,240
65,23,274080,240
62,19,274080,240
52,23,274320,240
60,26,274560,240
64,31,274560,240
52,22,274800,240
57,26,275040,240
60,21,275040,240
52,21,275280,240
62,29,275520,240
59,25,275520,240
52,21,275760,240
59,21,276000,240
56,18,276000,240
52,21,276240,240
57,24,276480,240
60,28,276480,240
52,20,276720,240
57,20,276960,240
54,17,276960,240
52,20,277200,240
56,23,277440,240
59,27,277440,240
52,21,277680,240
56,21,277920,240
52,21,278160,240
60,29,278400,240
57,21,278640,240
52,24,278880,240
48,21,279120,240
60,29,279360,240
57,22,279600,240
52,24,279840,240
48,20,280080,240
62,29,280320,240
57,20,280560,240
53,24,280800,240
50,21,281040,240
62,29,281280,240
57,24,281520,240
53,24,281760,240
50,23,281986,240
62,29,282240,240
59,21,282480,240
57,24,282720,240
52,22,282960,240
62,30,283200,240
59,22,283440,240
56,25,283680,240
52,25,283920,240
69,30,284160,240
65,23,284400,240
64,25,284640,240
57,22,284880,240
69,31,285120,240
64,25,285360,240
60,29,285600,240
57,26,285840,240
38,43,286080,240
50,38,286320,240
53,42,286560,2400
57,47,286800,2160
62,51,287040,1920
38,43,289920,240
50,38,290160,240
53,42,290400,1920
56,47,290640,1680
59,51,290880,1440
56,43,292800,720
58,43,292800,720
62,43,292800,720
65,51,292800,720
70,60,292800,720
43,45,294720,132
44,37,294840,132
43,37,294960,132
42,37,295080,132
43,45,295200,132
46,42,295320,132
51,45,295440,132
55,48,295560,132
56,52,295680,720
58,52,295680,720
55,45,296640,132
56,37,296760,132
55,37,296880,132
54,37,297000,132
55,45,297120,132
58,42,297240,132
63,45,297360,132
67,48,297480,132
68,59,297600,720
70,59,297600,720
80,51,298560,132
77,42,298680,132
74,42,298800,132
70,42,298920,132
68,51,299040,132
65,48,299160,132
62,51,299280,132
56,55,299400,132
57,55,299520,6720
53,46,300480,960
62,59,300480,960
52,50,301440,960
64,59,301440,960
50,52,302400,1920
65,62,302400,1920
53,45,304320,960
62,54,304320,960
52,40,305280,960
60,48,305280,960
52,28,307200,960
56,28,307200,940
59,33,307200,960
65,44,307680,480
64,33,308160,480
56,24,308640,480
45,27,309120,960
57,32,309120,960
67,32,310080,480
64,24,310080,240
57,21,310320,240
69,24,310560,480
65,18,310560,240
57,21,310800,240
70,32,311040,240
67,24,311040,240
57,20,311280,240
67,23,311520,240
64,17,311520,240
57,20,311760,240
61,23,312000,240
64,31,312000,240
57,21,312240,240
65,24,312480,240
62,18,312480,240
57,21,312720,240
64,24,312960,240
67,32,312960,240
57,20,313200,240
62,24,313440,240
65,23,313440,240
57,20,313680,240
64,32,313920,240
60,24,313920,240
57,21,314160,240
62,24,314400,240
58,18,314400,240
57,21,314640,240
61,32,314880,240
57,23,315120,240
59,19,315360,240
62,23,315360,240
57,23,315600,240
61,26,315840,240
64,31,315840,240
57,24,316091,240
61,24,316320,240
64,24,316320,240
57,20,316571,240
69,32,316800,240
57,23,317040,240
69,23,317280,240
57,23,317520,240
69,31,317760,240
57,29,318011,240
69,34,318240,240
57,39,318491,240
64,44,318720,240
57,25,318960,240
64,25,319188,240
57,25,319440,240
64,34,319680,240
57,26,319931,240
64,26,320160,240
57,22,320411,240
67,46,320640,240
55,30,320880,240
67,32,321120,240
55,34,321360,240
67,42,321600,240
55,34,321840,240
67,34,322080,240
55,34,322320,240
66,48,322560,240
55,36,322800,240
66,37,323040,240
55,37,323280,240
65,47,323520,240
55,34,323760,240
65,34,324000,240
55,27,324240,240
64,50,324480,240
55,36,324720,240
64,36,324960,240
55,36,325200,240
62,50,325440,240
55,40,325680,240
62,40,325920,240
55,40,326160,240
60,52,326400,240
55,39,326640,240
60,42,326880,240
55,48,327120,240
59,45,327360,240
55,45,327600,240
59,52,327840,240
55,45,328080,240
67,55,328320,240
55,46,328560,240
67,55,328800,240
55,47,329040,240
67,60,329280,240
55,49,329520,240
67,63,329760,240
55,51,330000,480
62,58,330180,300
65,63,330210,270
71,68,330240,240
64,50,330480,240
76,59,330480,240
65,56,330720,240
77,66,330720,240
61,50,330960,120
73,59,330960,120
62,56,331200,120
74,67,331200,120
52,49,332400,240
53,58,332640,240
49,48,332880,120
50,57,333120,120
67,46,334080,960
63,36,334080,960
31,36,334080,240
55,24,334320,240
56,31,334560,240
55,24,334800,240
65,36,335040,480
62,27,335040,480
55,24,335280,240
67,38,335520,480
63,38,335520,480
55,24,335760,240
68,43,336000,720
65,43,336000,700
55,23,336240,240
56,19,336480,240
62,25,336720,220
65,36,336720,240
55,26,336720,240
59,36,336960,480
62,43,336960,480
55,24,337200,240
63,36,337440,480
60,30,337440,480
55,24,337680,240
62,35,337920,480
65,42,337920,480
55,30,338160,240
60,33,338400,480
63,39,338400,480
55,30,338640,240
62,41,338880,480
58,34,338880,480
55,28,339120,240
60,37,339360,480
56,31,339360,480
55,29,339600,240
59,43,339840,720
55,30,340080,240
56,30,340320,240
60,36,340560,240
55,28,340560,240
62,46,340800,480
55,28,341040,240
55,30,341520,240
67,46,341760,960
62,36,341760,940
55,26,342000,240
56,31,342240,240
55,26,342480,240
65,36,342720,480
62,27,342720,480
55,24,342960,240
67,38,343200,480
63,32,343200,480
55,24,343440,240
70,44,343680,720
67,34,343680,240
55,23,343920,240
56,19,344160,240
68,28,344400,240
55,36,344400,240
62,28,344640,480
65,34,344640,480
55,24,344880,240
70,36,345120,240
67,30,345120,240
65,30,345360,240
68,36,345360,240
63,35,345600,240
67,42,345600,480
55,30,345840,240
60,33,346080,240
63,39,346080,480
55,30,346320,240
65,41,346560,480
62,34,346560,240
55,28,346800,240
62,37,347040,480
59,31,347040,240
55,29,347280,240
60,30,347520,240
63,43,347520,480
55,30,347760,240
60,36,348000,480
57,30,348000,240
55,36,348240,240
59,30,348480,240
62,46,348480,480
55,28,348720,240
55,30,349200,1200
51,25,349440,960
60,30,349440,960
53,22,350400,960
56,22,350400,960
61,27,350400,960
62,27,351360,960
55,22,351360,960
43,30,353040,1200
39,25,353280,960
48,30,353280,960
41,22,354240,960
44,22,354240,960
49,27,354240,960
50,27,355200,960
43,22,355200,960
31,74,356640,240
43,88,356640,240
55,98,357120,960
43,80,357120,960
53,83,358080,480
41,70,358080,480
55,88,358560,480
43,74,358560,480
56,94,359040,720
44,79,359040,720
53,84,359760,240
41,71,359760,240
50,91,360000,480
38,77,360000,480
51,86,360480,480
39,73,360480,480
41,77,360960,480
53,91,360960,480
39,73,361440,480
51,87,361440,480
38,79,361920,480
50,93,361920,480
36,75,362400,480
48,89,362400,480
35,80,362880,960
47,95,362880,960
34,80,363840,480
46,95,363840,480
33,86,364320,420
45,102,364320,420
32,72,364740,60
44,72,364770,30
65,84,364800,720
62,80,364800,720
58,75,364800,720
56,72,364800,720
46,66,365520,228
58,78,365520,228
46,66,365760,480
58,78,365760,480
48,60,366240,120
60,70,366240,120
50,66,366480,120
62,78,366480,120
56,67,366720,120
51,67,366720,120
59,67,366720,120
63,80,366720,120
32,80,367200,480
44,96,367200,480
51,67,368160,456
56,67,368160,456
59,67,368160,456
63,80,368160,456
54,72,368640,720
68,84,368640,720
63,80,368640,720
60,75,368640,720
56,72,368640,700
30,100,369120,240
42,100,369120,240
42,75,369360,216
44,75,369360,216
56,89,369360,216
42,75,369600,456
44,75,369600,456
56,89,369600,456
49,66,370080,120
61,77,370080,120
51,72,370320,120
63,85,370320,120
56,73,370560,120
53,73,370560,120
61,73,370560,120
65,88,370560,120
29,74,371040,480
41,88,371040,480
53,67,372000,390
56,67,372000,390
61,67,372000,390
65,67,372000,390
65,62,372390,330
68,62,372420,300
71,73,372450,270
77,73,372480,240
59,56,372720,240
71,67,372720,240
56,56,372960,240
68,67,372960,240
53,56,373200,240
65,67,373200,240
62,69,373440,240
50,58,373440,240
47,60,373680,240
59,71,373680,240
44,72,373920,240
56,72,373920,240
41,62,374160,180
53,74,374160,180
42,78,374340,300
45,81,374355,285
48,84,374370,270
51,87,374385,255
57,90,374400,240
75,77,374640,120
72,77,374880,120
69,77,375120,120
66,85,375360,120
63,67,375600,120
60,67,375840,120
57,67,376080,120
54,67,376320,120
51,59,376560,120
48,58,376800,120
45,57,377040,120
42,64,377280,120
39,55,377520,120
36,55,377760,120
30,55,378000,120
31,69,378240,960
43,81,378240,960
50,62,379200,720
62,73,379200,720
63,63,379920,240
51,52,379920,240
31,62,380400,240
36,62,380640,240
39,62,380880,240
43,62,381120,240
48,62,381360,240
51,62,381600,240
55,62,381840,240
49,69,382080,960
61,81,382080,960
50,62,383040,720
62,73,383040,720
64,63,383760,240
52,52,383760,240
31,62,384240,240
37,62,384480,240
40,62,384720,240
43,62,384960,240
49,62,385200,240
52,62,385440,240
55,62,385680,240
50,69,385920,960
62,81,385920,960
52,62,386880,720
64,73,386880,720
65,63,387600,240
53,52,387600,240
47,69,388320,480
59,81,388320,480
48,62,388800,720
60,73,388800,720
62,63,389520,240
50,52,389520,240
43,69,390240,480
55,81,390240,480
45,62,390720,720
57,73,390720,720
59,63,391440,240
47,52,391440,240
41,68,391920,240
53,73,392160,240
47,62,392160,240
41,69,392400,240
47,68,392880,240
59,73,393120,240
53,62,393120,240
47,68,393360,240
41,68,393840,240
53,73,394080,240
47,62,394080,240
41,69,394320,240
47,68,394800,240
59,73,395040,240
53,62,395040,240
47,68,395280,240
40,68,395760,240
52,73,396000,240
42,62,396000,240
40,69,396240,240
38,68,396720,240
50,73,396960,240
42,62,396960,240
38,68,397200,240
37,68,397680,240
49,73,397920,240
42,62,397920,240
37,69,398160,240
35,68,398640,240
50,73,398880,240
42,62,398880,240
35,68,399120,180
64,74,399315,525
67,77,399330,510
71,81,399345,495
76,84,399360,480
37,78,399840,240
49,92,399840,240
62,75,400275,525
67,78,400290,510
71,81,400305,495
74,84,400320,480
38,78,400800,240
50,92,400800,240
61,74,401235,525
67,77,401250,510
71,81,401265,495
73,84,401280,480
40,78,401760,240
52,92,401760,240
58,75,402195,525
61,78,402210,510
66,81,402225,495
70,84,402240,480
30,78,402720,240
42,92,402720,240
35,79,403200,960
47,93,403200,960
37,75,404160,720
49,90,404160,720
50,72,404880,216
38,59,404880,216
38,79,405120,960
50,93,405120,960
40,75,406080,720
52,90,406080,720
54,72,406800,240
42,59,406800,240
45,79,407040,480
57,93,407040,480
64,86,407760,216
59,73,407760,216
55,79,408000,1440
64,93,408000,480
59,79,408000,480
63,75,408480,120
66,89,408480,120
67,85,408720,120
64,72,408720,120
67,93,408960,480
64,79,408960,480
40,62,409440,240
52,74,409440,240
37,69,409920,240
49,82,409920,240
33,64,410400,240
45,76,410400,240
38,68,411360,160
45,60,411520,160
50,60,411680,140
50,68,411840,240
62,62,412080,240
56,67,412320,240
57,62,412560,240
38,68,413280,160
45,60,413440,160
50,60,413600,140
50,68,413760,240
62,62,414000,240
53,67,414240,240
54,62,414480,240
44,68,415200,160
56,63,415360,140
56,63,415520,160
68,68,415680,160
66,64,415840,160
68,64,416000,140
68,68,416160,160
65,63,416320,160
62,62,416480,160
59,68,416640,160
56,63,416800,160
53,63,416960,160
49,68,417120,160
53,63,417280,160
49,62,417440,160
47,68,417600,160
49,62,417760,160
47,62,417920,160
44,68,418080,160
47,61,418240,160
44,60,418400,160
42,79,418560,960
54,93,418560,960
44,75,419520,720
56,90,419520,720
57,72,420240,216
45,59,420240,216
45,79,420480,960
57,93,420480,960
47,75,421440,720
59,90,421440,720
61,72,422160,240
49,59,422160,240
52,79,422400,480
64,93,422400,480
69,77,423120,216
66,65,423120,216
62,71,423360,960
69,83,423360,480
66,71,423360,480
67,67,423840,120
71,80,423840,120
72,76,424080,120
69,64,424080,120
72,83,424320,480
69,71,424320,480
45,62,424800,240
57,74,424800,240
42,69,425280,240
54,82,425280,240
38,70,425760,240
50,83,425760,240
36,83,426240,137
38,74,426377,138
36,83,426515,137
38,76,426653,137
36,83,426790,137
38,77,426928,137
36,83,427065,135
60,66,427200,480
69,79,427200,480
62,65,427680,120
71,78,427680,120
63,61,427920,120
72,72,427920,120
36,83,428160,137
38,74,428297,138
36,83,428435,137
38,76,428573,137
36,83,428710,137
38,77,428848,137
36,83,428985,135
60,66,429120,480
69,79,429120,480
62,65,429600,120
71,78,429600,120
63,61,429840,120
72,72,429840,120
36,74,430080,160
38,63,430240,160
36,68,430400,160
38,57,430560,160
36,61,430720,160
38,51,430880,160
36,54,431040,160
38,46,431200,160
36,48,431360,160
38,39,431520,160
36,41,431680,160
38,34,431840,160
36,25,432000,480
76,37,433920,480
72,31,433920,480
64,31,433920,480
74,33,434400,180
71,28,434400,180
62,28,434400,180
72,33,434640,180
69,28,434640,180
60,28,434640,180
72,37,434880,480
64,31,434880,480
60,31,434880,480
71,33,435360,180
62,28,435360,180
59,28,435360,180
69,33,435600,180
60,28,435600,180
57,28,435600,180
69,37,435840,480
60,31,435840,480
57,31,435840,480
71,33,436320,180
62,28,436320,180
59,28,436320,180
72,33,436560,180
64,28,436560,180
60,28,436560,180
72,37,436800,480
64,31,436800,480
60,31,436800,480
74,33,437280,180
66,28,437280,180
62,28,437280,180
76,33,437520,180
67,28,437520,180
64,28,437520,180
79,37,437760,480
76,31,437760,480
67,31,437760,480
78,33,438240,180
74,28,438240,180
66,28,438240,180
76,33,438480,180
72,28,438480,180
64,28,438480,180
76,37,438720,480
72,31,438720,480
64,31,438720,480
74,33,439200,180
66,28,439200,180
62,28,439200,180
72,33,439440,180
64,28,439440,180
60,28,439440,180
72,37,439680,480
64,31,439680,480
60,31,439680,480
74,33,440160,180
66,28,440160,180
62,28,440160,180
76,33,440400,180
72,28,440400,180
64,28,440400,180
76,37,440640,480
72,31,440640,480
64,31,440640,480
78,33,441120,180
69,28,441120,180
66,28,441120,180
79,33,441360,180
71,28,441360,180
67,28,441360,180
83,37,441600,480
79,31,441600,480
71,31,441600,480
81,33,442080,180
78,28,442080,180
69,28,442080,180
79,33,442320,180
76,28,442320,180
67,28,442320,180
79,37,442560,480
71,31,442560,480
67,31,442560,480
78,33,443040,180
69,28,443040,180
66,28,443040,180
76,33,443280,180
67,28,443280,180
64,28,443280,180
67,31,443520,456
76,37,443520,456
72,31,443520,456
64,31,443520,456
72,28,444000,180
76,33,444000,180
67,28,444000,180
64,28,444000,180
67,28,444240,180
76,33,444240,180
72,28,444240,180
64,28,444240,180
57,47,444480,137
59,37,444617,137
57,41,444755,137
59,38,444893,137
57,41,445030,137
59,38,445168,137
57,41,445305,135
45,42,446400,137
47,33,446537,137
45,36,446675,137
47,34,446813,137
45,36,446950,137
47,34,447088,137
45,36,447225,135
67,31,447360,456
76,37,447360,456
72,31,447360,456
64,31,447360,456
72,28,447840,180
76,33,447840,180
67,28,447840,180
64,28,447840,180
67,28,448080,180
76,33,448080,180
72,28,448080,180
64,28,448080,180
57,47,448320,137
59,37,448457,137
57,41,448595,137
59,38,448733,137
57,41,448870,137
59,38,449008,137
57,41,449145,135
45,42,450240,137
47,33,450377,137
45,36,450515,137
47,34,450653,137
45,36,450790,137
47,34,450928,137
45,36,451065,5895
38,39,451200,160
40,33,451360,160
38,39,451520,160
40,32,451680,160
38,39,451840,160
40,33,452000,160
38,39,452160,160
40,33,452320,160
38,39,452480,160
40,33,452640,160
38,39,452800,160
40,34,452960,160
38,39,453120,160
40,33,453280,160
38,39,453440,160
40,32,453600,160
38,39,453760,160
40,33,453920,160
38,39,454080,160
40,33,454240,160
38,39,454400,160
40,33,454560,160
38,39,454720,160
40,34,454880,160
38,39,455040,160
40,33,455200,160
38,39,455360,160
40,32,455520,160
38,39,455680,160
40,33,455840,160
36,39,456000,160
38,33,456160,160
36,39,456320,160
38,33,456480,160
36,39,456640,160
38,34,456800,160
36,39,456960,160
38,32,457120,160
36,38,457280,160
38,32,457440,160
36,37,457600,160
38,31,457760,160
33,36,457920,160
38,30,458080,160
33,35,458240,160
38,29,458400,160
33,34,458560,160
38,29,458720,160
31,45,458880,240
59,37,459120,240
64,40,459360,240
62,36,459600,240
69,40,459840,240
67,37,460080,240
62,40,460320,240
59,37,460560,240
52,36,461040,240
59,40,461280,240
57,38,461520,240
66,40,461760,240
64,37,462000,240
61,40,462240,240
55,37,462480,240
50,36,462960,240
64,40,463200,240
62,38,463440,240
72,40,463680,240
69,37,463920,240
66,40,464160,240
62,37,464400,240
55,36,464880,240
64,40,465120,240
62,38,465360,240
69,40,465600,240
67,37,465840,240
62,40,466080,240
59,37,466320,240
40,40,466800,240
54,44,467040,240
52,39,467280,240
60,44,467520,240
59,40,467760,240
55,44,468000,240
52,40,468240,240
49,39,468720,240
55,44,468960,240
54,41,469200,240
64,44,469440,240
61,40,469680,240
58,44,469920,240
54,40,470160,240
42,39,470640,240
62,44,470880,240
61,41,471120,240
66,44,471360,240
64,40,471600,240
61,44,471840,240
54,40,472080,240
47,38,472560,240
61,42,472800,240
59,39,473040,240
55,41,473280,240
54,31,473520,240
50,34,473760,240
47,26,474000,240
45,30,474240,240
54,30,474255,945
62,30,474270,930
57,24,475200,720
64,29,475200,720
62,19,475920,216
66,23,475920,216
62,30,476160,960
66,30,476160,960
57,24,477120,480
64,29,477120,480
64,29,477840,240
57,24,477840,240
33,29,478560,160
45,25,478720,140
45,25,478880,160
57,33,479040,160
56,29,479200,160
59,29,479360,160
57,33,479520,160
54,26,479680,160
45,26,479840,160
33,29,480480,160
45,25,480640,140
45,25,480800,160
57,33,480960,160
56,29,481120,160
59,29,481280,160
57,33,481440,160
54,26,481600,160
45,26,481760,160
45,30,481920,240
54,30,481935,945
62,30,481950,930
57,24,482880,720
64,29,482880,720
62,19,483600,216
66,23,483600,216
62,30,483840,960
66,30,483840,960
57,24,484800,480
64,29,484800,480
64,29,485520,240
57,24,485520,240
71,33,485760,960
67,33,485760,945
64,26,486720,700
67,31,486720,720
61,20,487440,240
64,25,487440,240
71,33,487680,960
67,33,487680,945
64,26,488640,700
67,31,488640,720
61,20,489360,240
64,25,489360,240
70,33,489600,960
67,33,489600,945
64,26,490560,700
67,31,490560,720
61,20,491280,240
64,25,491280,240
70,39,491520,480
67,39,491520,472
64,31,492000,314
67,38,492000,320
61,25,492320,160
64,31,492320,160
70,41,492480,480
67,41,492480,470
64,34,492960,320
67,41,492960,320
61,27,493280,160
64,33,493280,160
67,57,493440,160
70,57,493440,160
64,49,493600,160
61,52,493760,160
73,62,493920,160
70,54,494080,160
67,54,494240,160
76,69,494400,160
73,62,494560,160
70,63,494720,160
79,76,494880,160
76,64,495040,160
73,66,495200,160
64,70,495840,120
52,58,495840,120
61,61,496080,120
49,52,496080,120
46,68,496320,120
58,81,496320,120
43,64,496560,120
55,76,496560,120
40,78,496800,120
52,93,496800,120
37,72,497040,120
49,85,497040,120
48,88,497280,720
43,79,497280,720
36,75,497280,720
36,66,498000,216
43,66,498000,216
48,78,498000,216
36,66,498240,480
43,66,498240,480
48,78,498240,480
38,60,498720,120
50,70,498720,120
40,66,498960,120
48,66,498960,120
52,78,498960,120
41,67,499200,120
48,67,499200,120
53,80,499200,120
40,62,499680,120
48,62,499680,120
52,74,499680,120
36,66,500880,216
43,66,500880,216
48,78,500880,216
36,66,501120,480
43,66,501120,480
48,78,501120,480
38,60,501600,120
50,70,501600,120
40,66,501840,120
48,66,501840,120
52,78,501840,120
41,67,502080,240
48,67,502080,240
53,80,502080,240
48,60,502560,120
40,60,502560,120
52,70,502560,120
41,66,502800,120
48,66,502800,120
53,78,502800,120
43,67,503040,120
48,67,503040,120
55,80,503040,120
41,62,503520,120
48,62,503520,120
53,74,503520,120
48,50,504480,120
40,50,504480,120
52,59,504480,120
41,55,504720,120
48,55,504720,120
53,65,504720,120
38,56,504960,120
50,67,504960,120
40,57,505440,120
52,68,505440,120
35,59,505920,120
47,70,505920,120
36,62,506400,120
48,73,506400,120
33,67,506880,960
38,67,506880,960
45,79,506880,960
31,63,507840,480
38,63,507840,480
43,75,507840,480
62,70,508320,120
66,63,508560,120
67,69,508800,120
50,56,509280,120
54,50,509520,120
55,55,509760,120
38,56,510240,120
42,50,510480,120
43,55,510720,480
59,48,511680,480
55,48,511680,480
62,55,511680,480
48,69,512640,720
51,72,512670,690
55,77,512700,660
60,80,512730,630
43,60,513360,216
36,60,513360,216
48,71,513360,216
43,60,513600,480
36,60,513600,480
48,71,513600,480
38,55,514080,120
50,64,514080,120
39,60,514320,120
51,71,514320,120
41,61,514560,120
48,61,514560,120
53,73,514560,120
41,57,515040,120
48,57,515040,120
53,68,515040,120
44,61,516000,120
56,73,516000,120
49,69,516480,720
56,72,516510,690
61,77,516540,660
65,80,516570,630
37,60,517200,216
49,71,517200,216
37,60,517440,480
49,71,517440,480
39,55,517920,120
51,64,517920,120
41,60,518160,120
53,71,518160,120
42,54,518400,120
49,54,518400,120
54,65,518400,120
42,51,518880,120
49,51,518880,120
54,61,518880,120
45,61,519840,120
57,73,519840,120
50,69,520320,720
57,72,520350,690
62,77,520380,660
66,80,520410,630
38,60,521040,216
50,71,521040,216
38,60,521280,480
50,71,521280,480
40,55,521760,120
52,64,521760,120
42,60,522000,120
54,71,522000,120
43,61,522240,120
50,61,522240,120
55,73,522240,120
42,57,522720,120
50,57,522720,120
54,68,522720,120
39,54,523680,120
51,65,523680,120
38,57,524160,120
50,68,524160,120
50,68,524400,240
51,68,524640,480
63,75,524640,480
38,68,525360,240
39,67,525600,480
51,75,525600,480
50,68,526320,240
51,68,526560,480
63,75,526560,480
38,68,527280,240
39,67,527520,480
51,75,527520,480
40,68,528000,216
52,75,528000,216
52,68,528240,240
53,68,528480,480
65,75,528480,480
40,68,529200,240
41,67,529440,480
53,75,529440,480
52,68,530160,240
53,68,530400,480
65,75,530400,480
40,68,531120,240
41,67,531360,720
53,75,531360,720
41,68,532080,240
42,67,532320,700
54,75,532320,720
42,68,533040,240
43,67,533280,720
55,75,533280,720
43,68,534000,240
45,67,534240,700
57,75,534240,720
45,68,534960,240
46,67,535200,700
58,75,535200,720
46,68,535920,240
48,67,536160,700
60,75,536160,720
48,68,536880,240
49,67,537120,480
61,75,537120,480
50,67,537600,240
62,75,537600,240
50,54,538560,120
54,54,538560,120
57,64,538560,120
38,54,539520,120
45,54,539520,120
54,64,539520,120
63,64,541680,240
67,70,541920,240
79,63,542160,240
62,38,543600,240
66,42,543840,240
78,37,544080,240
63,26,545520,240
67,28,545760,240
63,22,546000,240
67,28,546240,240
63,24,546480,240
67,24,546720,240
72,20,546960,240
65,23,547440,240
68,27,547680,240
65,22,547920,240
68,27,548160,240
65,24,548400,240
68,24,548640,240
72,20,548880,240
55,24,549360,240
59,27,549600,240
55,24,549840,240
59,27,550080,240
55,23,550320,240
59,23,550560,240
65,19,550800,240
60,23,551280,240
67,27,551520,240
60,24,551760,240
67,27,552000,240
60,22,552240,240
67,22,552480,240
72,20,552720,240
48,29,553200,240
55,32,553440,240
48,28,553680,240
55,32,553920,240
48,27,554160,240
55,27,554400,240
57,27,554640,240
46,26,555120,240
55,31,555360,240
58,27,555600,240
63,39,555840,240
58,34,556080,240
55,37,556320,240
51,40,556560,240
45,44,556800,240
50,38,557040,240
55,38,557280,240
58,38,557520,240
43,51,557760,240
50,40,558000,240
55,42,558240,240
58,42,558480,240
38,57,558720,240
50,44,558960,240
53,44,559200,240
58,44,559440,240
70,53,559680,240
65,44,559920,240
62,44,560160,240
58,44,560400,240
50,53,560640,240
53,42,560880,240
58,44,561120,240
65,41,561360,240
54,39,561840,240
60,42,562080,240
63,39,562320,240
55,39,562800,240
58,42,563040,240
63,39,563280,240
56,32,563760,240
60,37,564000,240
63,32,564240,240
58,33,564720,240
63,37,564960,240
67,34,565200,240
59,44,565440,960
65,34,565680,240
68,34,565920,240
71,34,566160,240
60,44,566400,960
63,30,566640,240
68,34,566880,240
72,29,567120,240
62,32,567360,960
66,26,567600,240
69,29,567840,240
74,26,568080,240
67,28,568320,240
55,20,568560,240
67,20,568800,240
55,20,569040,240
65,28,569280,240
62,24,569280,240
55,21,569520,240
67,21,569760,240
63,18,569760,240
55,21,570000,240
68,28,570240,240
65,24,570240,240
55,20,570480,240
65,20,570720,240
62,17,570720,240
55,20,570960,240
59,23,571200,240
62,27,571200,240
55,21,571440,240
63,21,571680,240
60,18,571680,240
55,21,571920,240
62,24,572160,240
65,28,572160,240
55,20,572400,240
60,24,572640,240
63,20,572640,240
55,20,572880,240
62,28,573120,240
58,24,573120,240
55,21,573360,240
60,21,573600,240
56,18,573600,240
55,21,573840,240
59,28,574080,240
55,20,574320,240
60,20,574560,240
57,17,574560,240
55,20,574800,240
59,23,575040,240
62,27,575040,240
55,21,575280,240
59,21,575520,240
55,21,575760,240
63,24,576000,240
67,28,576000,240
55,20,576240,240
63,24,576480,240
67,20,576480,240
55,20,576720,240
65,28,576960,240
62,24,576960,240
55,21,577200,240
67,22,577440,240
63,18,577440,240
55,22,577680,240
70,31,577920,240
67,26,577920,240
55,22,578160,240
68,22,578400,240
65,18,578400,240
55,22,578640,240
62,25,578880,240
65,30,578880,240
55,23,579120,240
68,23,579360,240
65,19,579360,240
55,23,579600,240
63,26,579840,240
67,31,579840,240
55,22,580080,240
60,26,580320,240
63,21,580320,240
55,21,580560,240
65,29,580800,240
62,25,580800,240
55,21,581040,240
62,21,581280,240
59,18,581280,240
55,21,581520,240
60,24,581760,240
63,28,581760,240
55,20,582000,240
60,20,582240,240
57,17,582240,240
55,20,582480,240
59,23,582720,240
62,27,582720,240
55,21,582960,240
59,21,583200,240
55,21,583440,240
63,29,583680,240
60,21,583920,240
55,24,584160,240
51,21,584400,240
63,29,584640,240
60,22,584880,240
55,24,585120,240
51,20,585360,240
65,29,585600,240
60,20,585840,240
56,24,586080,240
53,21,586320,240
65,29,586560,240
60,24,586800,240
56,24,587040,240
53,23,587266,240
65,29,587520,240
62,21,587760,240
60,24,588000,240
55,22,588240,240
65,30,588480,240
62,22,588720,240
59,25,588960,240
55,25,589200,240
72,30,589440,240
67,23,589680,240
65,25,589920,240
60,22,590160,240
72,31,590400,240
67,25,590640,240
63,29,590880,240
60,26,591120,240
41,43,591360,240
53,38,591600,240
56,42,591840,2400
60,47,592080,2160
65,51,592320,1920
41,43,595200,240
53,38,595440,240
56,42,595680,1920
59,47,595920,1680
62,51,596160,1440
61,43,598080,720
68,51,598080,720
71,60,598080,720
46,45,600000,132
47,37,600120,132
46,37,600240,132
45,37,600360,132
46,45,600480,132
49,42,600600,132
54,45,600720,132
58,48,600840,132
59,52,600960,720
61,52,600960,720
58,45,601920,132
59,37,602040,132
58,37,602160,132
57,37,602280,132
58,45,602400,132
61,42,602520,132
66,45,602640,132
70,48,602760,132
71,59,602880,720
73,59,602880,720
83,51,603840,132
80,42,603960,132
77,42,604080,132
73,42,604200,132
71,51,604320,132
68,48,604440,132
65,51,604560,132
59,55,604680,132
60,55,604800,6720
56,46,605760,960
65,55,605760,960
55,50,606720,960
67,59,606720,960
53,52,607680,1920
68,62,607680,1920
56,45,609600,960
65,54,609600,960
55,40,610560,960
63,48,610560,960
55,28,612480,960
59,28,612480,940
62,33,612480,960
68,44,612960,480
67,33,613440,480
59,24,613920,480
48,27,614400,960
60,32,614400,960
70,32,615360,480
67,24,615360,240
60,21,615600,240
72,24,615840,480
68,18,615840,240
60,21,616080,240
73,32,616320,240
70,24,616320,240
60,20,616560,240
70,23,616800,240
67,17,616800,240
60,20,617040,240
64,23,617280,240
67,31,617280,240
60,21,617520,240
68,24,617760,240
65,18,617760,240
60,21,618000,240
67,24,618240,240
70,32,618240,240
60,20,618480,240
65,24,618720,240
68,23,618720,240
60,20,618960,240
67,32,619200,240
63,24,619200,240
60,21,619440,240
65,24,619680,240
61,18,619680,240
60,21,619920,240
64,32,620160,240
60,23,620400,240
62,19,620640,240
65,23,620640,240
60,23,620880,240
64,26,621120,240
67,31,621120,240
60,24,621371,240
49,36,621960,120
61,42,622080,120
59,24,622560,120
61,26,622800,120
62,31,623040,240
59,28,623280,240
56,23,623520,120
57,28,623760,120
59,36,624000,240
56,27,624240,240
53,36,624480,120
54,29,624720,120
56,35,624960,120
53,24,625200,120
49,27,625440,120
54,41,625800,120
66,54,625920,120
64,41,626400,120
66,41,626640,120
67,49,626880,240
64,43,627120,240
61,37,627360,120
62,43,627600,120
64,47,627840,240
61,37,628080,240
58,47,628320,120
59,37,628560,120
61,48,628800,120
58,40,629040,120
54,48,629280,120
59,83,629760,960
47,68,629760,960
57,71,630720,480
45,60,630720,480
59,76,631200,480
47,64,631200,480
60,82,631680,720
48,69,631680,720
57,75,632400,240
45,63,632400,240
54,81,632640,480
42,69,632640,480
55,78,633120,480
43,66,633120,480
45,70,633600,720
57,83,633600,720
42,67,634320,240
54,80,634320,240
39,74,634560,480
51,87,634560,480
40,71,635040,480
52,84,635040,480
36,76,635520,480
48,91,635520,480
37,70,636000,480
49,84,636000,480
33,78,636480,480
45,93,636480,480
31,85,636960,360
43,100,636960,360
29,63,637320,60
41,63,637380,60
53,53,637440,960
58,53,637440,960
64,63,637440,960
61,68,637446,960
53,57,638400,480
57,57,638400,480
65,68,638400,480
62,57,638400,480
29,63,639120,120
41,63,639240,120
53,53,639360,960
58,53,639360,960
64,63,639360,960
61,68,639366,960
53,57,640320,480
57,57,640320,480
65,68,640320,480
62,57,640320,480
29,63,641040,120
41,63,641160,120
28,66,641280,960
40,78,641280,960
33,66,642240,960
40,66,642240,960
45,78,642240,960
29,66,643200,960
38,66,643200,960
41,78,643200,960
26,66,644160,960
33,66,644160,960
38,78,644160,960
31,66,645120,960
43,78,645120,960
43,66,646080,840
52,66,646080,840
60,78,646080,840
43,60,646920,960
50,60,646980,900
59,82,647040,480
60,77,647520,120
62,81,647760,120
43,60,647880,960
52,60,647940,900
64,82,648000,480
60,77,648480,120
59,81,648720,120
43,60,648840,960
49,60,648900,900
57,82,648960,480
61,77,649440,120
64,81,649680,120
43,60,649800,960
50,60,649860,900
65,82,649920,480
62,77,650400,120
60,81,650640,120
43,60,650760,960
50,60,650820,900
59,82,650880,480
62,77,651360,120
63,81,651600,120
43,60,651720,960
52,60,651780,900
64,82,651840,480
60,77,652320,120
59,81,652560,120
43,60,652680,960
48,60,652740,900
57,82,652800,480
60,77,653280,120
61,81,653520,120
43,60,653640,960
50,60,653700,900
62,82,653760,480
59,77,654240,120
57,81,654480,120
43,60,654720,840
47,60,654720,840
55,82,654720,480
57,77,655200,120
59,81,655440,120
43,60,655560,960
48,60,655620,900
60,82,655680,480
62,77,656160,120
64,81,656400,120
43,52,656550,480
48,52,656580,450
54,52,656610,390
66,62,656640,390
43,51,657030,960
48,50,657060,930
54,50,657090,900
63,60,657120,870
43,47,657990,480
48,47,658020,450
54,46,658050,420
60,55,658080,390
43,45,658470,570
50,45,658500,540
55,45,658530,480
59,53,658560,480
43,61,659040,240
47,61,659040,240
47,55,659400,120
43,61,659520,1200
49,61,659520,480
61,63,660000,480
62,62,660480,240
43,61,660960,240
50,61,660965,240
50,56,661320,120
43,62,661440,1200
51,62,661440,480
63,64,661920,480
64,65,662400,240
52,64,662880,240
43,64,662880,240
52,58,663240,120
43,65,663360,960
53,65,663360,480
65,68,663840,240
53,59,664200,120
43,67,664320,960
54,68,664320,240
66,69,664800,240
54,51,665160,60
43,59,665220,60
50,59,665240,520
53,59,665260,500
55,70,665280,480
65,59,665760,480
67,71,665760,480
62,59,665760,480
55,59,665760,480
31,71,666240,160
43,63,666400,140
43,63,666560,160
55,71,666720,160
54,63,666880,160
57,63,667040,160
55,71,667200,160
52,62,667360,160
46,62,667520,160
43,71,667680,160
40,63,667840,160
34,62,668000,160
29,71,668160,160
41,63,668320,140
41,63,668480,160
52,71,668640,160
55,63,668800,160
53,63,668960,160
52,71,669120,160
49,63,669280,160
46,63,669440,160
43,73,669600,160
40,64,669760,160
37,64,669920,160
26,73,670080,160
38,66,670240,140
38,66,670400,160
50,75,670560,160
49,66,670720,160
52,67,670880,160
50,75,671040,160
45,66,671200,160
41,66,671360,160
38,77,671520,160
33,68,671680,160
26,68,671840,160
31,78,672000,160
43,69,672160,140
43,69,672320,160
55,79,672480,160
54,70,672640,160
55,71,672800,160
43,80,672960,160
55,70,673120,140
55,70,673280,160
67,81,673440,160
66,72,673600,160
69,71,673760,160
67,82,673920,160
64,73,674080,160
59,73,674240,160
55,83,674400,160
50,74,674560,160
47,74,674720,160
43,84,674880,160
38,74,675040,160
35,74,675200,160
31,85,675360,160
38,76,675520,160
43,75,675680,160
36,86,675840,480
48,63,676560,216
55,63,676560,216
60,74,676560,216
48,63,676800,480
55,63,676800,480
60,74,676800,480
50,57,677280,120
62,67,677280,120
52,63,677520,120
60,63,677520,120
64,74,677520,120
53,64,677760,120
60,64,677760,120
65,77,677760,120
52,59,678240,120
60,59,678240,120
64,71,678240,120
33,58,679440,216
45,69,679440,216
33,62,679680,931
45,74,679680,931
29,62,680640,456
41,74,680640,456
28,62,681120,456
40,74,681120,456
26,68,681600,960
38,80,681600,1920
31,65,682560,931
24,69,683520,1920
36,82,683520,1920
