note,velocity,position,duration
52,76,0,240
74,63,720,720
86,75,720,720
83,63,720,720
81,73,1440,720
84,73,1440,720
72,62,1440,720
78,63,2160,720
69,63,2160,720
81,75,2160,720
83,70,2880,120
71,59,2880,120
79,59,2880,120
67,52,3120,120
76,52,3120,120
79,62,3120,120
81,70,3360,120
78,54,3360,120
69,55,3360,120
78,63,3600,120
75,53,3600,120
66,53,3600,120
79,70,3840,120
76,59,3840,120
67,59,3840,120
64,54,4080,120
76,64,4080,120
73,54,4080,120
78,70,4320,120
66,59,4320,120
75,59,4320,120
66,58,4800,120
78,69,4800,120
75,58,4800,120
73,62,6000,120
61,52,6000,120
63,54,6240,120
75,64,6240,120
64,56,6480,120
76,66,6480,120
66,56,6720,120
78,67,6720,120
67,58,6960,120
79,69,6960,120
66,59,7200,120
78,70,7200,120
75,59,7200,120
71,58,7680,120
83,69,7680,120
73,62,8880,120
61,52,8880,120
63,54,9120,120
75,64,9120,120
64,56,9360,120
76,66,9360,120
66,56,9600,120
78,67,9600,120
67,58,9840,120
79,69,9840,120
69,59,10080,120
81,70,10080,120
78,59,10080,120
74,58,10560,120
86,69,10560,120
55,76,11520,240
89,63,12240,720
93,75,12240,720
81,63,12240,720
91,73,12960,720
88,73,12960,720
79,62,12960,720
84,63,13680,720
76,63,13680,720
88,75,13680,720
86,59,14400,120
89,70,14400,120
77,59,14400,120
86,62,14640,120
83,52,14640,120
74,52,14640,120
84,54,14880,120
76,55,14880,120
88,70,14880,120
81,53,15120,120
84,63,15120,120
72,53,15120,120
74,59,15360,120
86,70,15360,120
83,59,15360,120
71,54,15600,120
83,64,15600,120
79,54,15600,120
81,59,15840,120
72,59,15840,120
84,70,15840,120
81,58,16320,120
72,58,16320,120
84,69,16320,120
69,59,16560,720
81,70,16560,720
77,59,16560,720
79,56,17520,120
67,47,17520,120
71,49,17760,120
83,58,17760,120
84,60,18000,120
72,51,18000,120
74,52,18240,120
86,62,18240,120
76,54,18480,120
88,64,18480,120
79,60,18660,180
84,60,18690,150
91,70,18720,120
77,49,19200,120
89,58,19200,120
84,57,19440,720
72,48,19440,720
81,58,20400,120
69,48,20400,120
71,53,20640,120
83,63,20640,120
84,67,20880,120
72,57,20880,120
86,73,21120,120
74,61,21120,120
76,65,21360,120
88,78,21360,120
79,75,21540,180
87,75,21570,150
91,87,21600,120
90,69,22080,120
78,58,22080,120
69,56,22320,720
81,67,22320,720
52,76,23040,240
83,63,23760,720
86,75,23760,720
74,63,23760,720
72,62,24480,720
84,73,24480,720
81,73,24480,720
78,63,25200,720
69,63,25200,720
81,75,25200,720
83,70,25920,120
71,59,25920,120
79,59,25920,120
76,52,26160,120
79,62,26160,120
67,52,26160,120
78,54,26400,120
69,55,26400,120
81,70,26400,120
75,53,26640,120
78,63,26640,120
66,53,26640,120
79,70,26880,120
67,59,26880,120
76,59,26880,120
64,54,27120,120
73,54,27120,120
76,64,27120,120
75,59,27360,120
66,59,27360,120
78,70,27360,120
66,58,27840,120
75,58,27840,120
78,69,27840,120
61,52,29040,120
73,62,29040,120
75,64,29280,120
63,54,29280,120
76,66,29520,120
64,56,29520,120
66,56,29760,120
78,67,29760,120
79,69,30000,120
67,58,30000,120
78,70,30240,120
75,59,30240,120
66,59,30240,120
83,69,30720,120
71,58,30720,120
61,52,31920,120
73,62,31920,120
75,64,32160,120
63,54,32160,120
64,56,32400,120
76,66,32400,120
78,67,32640,120
66,56,32640,120
67,58,32880,120
79,69,32880,120
69,59,33120,120
78,59,33120,120
81,70,33120,120
86,69,33600,120
74,58,33600,120
55,76,34560,240
89,63,35280,720
81,63,35280,720
93,75,35280,720
88,73,36000,720
91,73,36000,720
79,62,36000,720
88,75,36720,720
76,63,36720,720
84,63,36720,720
89,70,37440,120
77,59,37440,120
86,59,37440,120
74,52,37680,120
86,62,37680,120
83,52,37680,120
76,55,37920,120
88,70,37920,120
84,54,37920,120
84,63,38160,120
72,53,38160,120
81,53,38160,120
83,59,38400,120
86,70,38400,120
74,59,38400,120
83,64,38640,120
71,54,38640,120
79,54,38640,120
81,59,38880,120
72,59,38880,120
84,70,38880,120
84,69,39360,120
72,58,39360,120
81,58,39360,120
77,59,39600,720
69,59,39600,720
81,70,39600,720
67,47,40560,120
79,56,40560,120
71,49,40800,120
83,58,40800,120
84,60,41040,120
72,51,41040,120
86,62,41280,120
74,52,41280,120
76,54,41520,120
88,64,41520,120
79,60,41700,180
84,60,41730,150
91,70,41760,120
89,58,42240,120
77,49,42240,120
84,57,42480,720
72,48,42480,720
69,48,43440,120
81,58,43440,120
83,63,43680,120
71,53,43680,120
72,57,43920,120
84,67,43920,120
86,73,44160,120
74,61,44160,120
88,78,44400,120
76,65,44400,120
79,75,44580,180
87,75,44610,150
91,87,44640,120
90,69,45120,120
78,58,45120,120
69,56,45360,720
81,67,45360,720
48,76,46080,240
67,59,46800,720
70,71,46800,720
58,59,46800,720
57,58,47520,720
69,69,47520,720
65,69,47520,720
62,59,48240,720
65,71,48240,720
53,59,48240,720
55,56,48960,120
67,66,48960,120
64,56,48960,120
64,58,49200,120
52,49,49200,120
65,66,49440,120
53,52,49440,120
62,59,49680,120
50,50,49680,120
64,66,49920,120
52,56,49920,120
61,60,50160,120
49,51,50160,120
62,66,50400,120
50,56,50400,120
50,55,50880,120
62,65,50880,120
51,76,51840,240
73,71,52560,720
70,59,52560,720
61,59,52560,720
72,69,53280,720
68,69,53280,720
60,58,53280,720
68,71,54000,720
65,59,54000,720
56,59,54000,720
58,56,54720,120
67,56,54720,120
70,66,54720,120
67,58,54960,120
55,49,54960,120
68,66,55200,120
56,52,55200,120
65,59,55440,120
53,50,55440,120
67,66,55680,120
55,56,55680,120
64,60,55920,120
52,51,55920,120
53,56,56160,120
65,66,56160,120
53,55,56640,120
65,65,56640,120
54,76,57600,240
76,67,58320,720
88,81,58320,720
85,67,58320,720
83,79,59040,720
87,79,59040,720
75,66,59040,720
71,67,59760,720
83,81,59760,720
80,67,59760,720
64,42,61200,720
62,41,61920,720
59,42,62640,720
54,91,63360,240
88,78,63840,240
85,64,63840,240
76,64,63840,240
83,75,64080,480
75,75,64080,480
87,75,64080,480
71,64,64560,240
83,78,64560,240
80,64,64560,240
92,78,65280,240
80,64,65280,240
88,64,65280,240
90,75,65520,480
87,75,65520,480
78,75,65520,480
75,64,66000,240
87,78,66000,240
83,64,66000,240
64,42,66720,240
62,41,66960,480
59,42,67440,240
61,42,68160,240
59,41,68400,480
55,42,68880,240
54,41,69120,480
66,26,71280,120
64,22,71280,120
58,22,71280,120
61,22,71280,120
61,25,71520,120
58,25,71520,120
64,25,71520,120
66,30,71520,120
58,22,71760,120
66,26,71760,120
61,22,71760,120
64,22,71760,120
66,33,72000,120
59,28,72000,120
63,28,72000,120
61,26,72720,120
52,22,72720,120
54,22,72720,120
58,22,72720,120
52,25,72960,120
54,25,72960,120
58,25,72960,120
63,30,72960,120
52,22,73200,120
54,22,73200,120
58,22,73200,120
61,26,73200,120
51,28,73440,120
54,28,73440,120
59,33,73440,120
58,22,74160,120
66,26,74160,120
61,22,74160,120
64,22,74160,120
58,25,74400,120
61,25,74400,120
64,25,74400,120
66,30,74400,120
61,22,74640,120
66,26,74640,120
64,22,74640,120
58,22,74640,120
66,33,74880,120
63,28,74880,120
59,28,74880,120
58,22,75600,120
61,26,75600,120
52,22,75600,120
54,22,75600,120
58,25,75840,120
52,25,75840,120
54,25,75840,120
63,30,75840,120
58,22,76080,120
52,22,76080,120
61,26,76080,120
54,22,76080,120
54,28,76320,120
59,33,76320,120
51,28,76320,120
66,23,77040,120
60,23,77040,120
63,23,77040,120
68,28,77040,120
66,27,77280,120
68,33,77280,120
63,27,77280,120
60,27,77280,120
63,25,77520,120
60,25,77520,120
66,25,77520,120
68,29,77520,120
64,32,77760,120
61,32,77760,120
68,38,77760,120
58,27,78480,120
61,27,78480,120
64,27,78480,120
66,32,78480,120
58,32,78720,120
63,32,78720,120
64,32,78720,120
66,38,78720,120
64,28,78960,120
66,34,78960,120
58,28,78960,120
61,28,78960,120
59,37,79200,120
63,37,79200,120
66,43,79200,120
63,31,79920,120
69,31,79920,120
71,36,79920,120
66,31,79920,120
63,36,80160,120
66,36,80160,120
69,36,80160,120
71,43,80160,120
63,32,80400,120
66,32,80400,120
69,32,80400,120
71,38,80400,120
64,42,80640,120
71,49,80640,120
68,42,80640,120
73,47,81360,120
65,39,81360,120
68,39,81360,120
71,39,81360,120
73,55,81600,120
71,46,81600,120
68,46,81600,120
65,46,81600,120
68,41,81840,120
65,41,81840,120
73,48,81840,120
71,41,81840,120
70,52,82080,120
66,52,82080,120
73,63,82080,120
85,55,82800,120
90,65,82800,120
82,55,82800,120
76,55,82800,120
76,62,83040,120
90,74,83040,120
85,62,83040,120
82,62,83040,120
82,57,83280,120
76,57,83280,120
90,68,83280,120
85,57,83280,120
76,55,83520,120
85,55,83520,120
82,55,83520,120
90,65,83520,120
76,62,83760,120
85,62,83760,120
90,74,83760,120
82,62,83760,120
85,57,84000,120
82,57,84000,120
76,57,84000,120
90,68,84000,120
85,55,84240,120
76,55,84240,120
90,65,84240,120
82,55,84240,120
76,62,84480,120
82,62,84480,120
90,74,84480,120
85,62,84480,120
82,57,84720,120
90,68,84720,120
76,57,84720,120
85,57,84720,120
83,67,84960,120
75,67,84960,120
87,79,84960,120
71,61,85440,120
83,72,85440,120
78,79,85680,120
66,67,85680,120
75,71,86160,120
63,60,86160,120
71,79,86400,120
67,73,86880,120
82,55,87120,120
85,55,87120,120
76,55,87120,120
90,65,87120,120
90,74,87360,120
76,62,87360,120
82,62,87360,120
85,62,87360,120
76,57,87600,120
85,57,87600,120
82,57,87600,120
90,68,87600,120
83,67,87840,120
75,67,87840,120
87,79,87840,120
71,61,88320,120
83,72,88320,120
66,67,88560,120
78,79,88560,120
63,60,89040,120
75,71,89040,120
71,79,89280,120
67,73,89760,120
76,55,90000,120
85,55,90000,120
82,55,90000,120
90,65,90000,120
85,62,90240,120
90,74,90240,120
76,62,90240,120
82,62,90240,120
85,57,90480,120
76,57,90480,120
82,57,90480,120
90,68,90480,120
75,67,90720,120
83,67,90720,120
87,79,90720,120
83,72,91200,120
71,61,91200,120
79,79,91440,120
67,67,91440,120
76,64,91920,120
64,64,91920,120
72,69,92160,120
69,52,92640,120
66,58,92880,120
63,43,93360,120
59,45,93600,120
55,36,95040,120
52,36,96480,120
86,37,97200,720
83,31,97200,720
81,36,97920,710
84,36,97920,710
81,37,98640,720
78,31,98640,720
83,35,99360,120
79,29,99360,120
76,26,99600,120
79,31,99600,120
78,27,99840,120
81,35,99840,120
78,31,100080,120
75,26,100080,120
76,29,100320,120
79,35,100320,120
76,32,100560,120
73,27,100560,120
78,35,100800,120
75,29,100800,120
78,34,101280,120
75,29,101280,120
71,34,101520,960
70,26,102480,120
73,31,102480,120
71,27,102720,120
75,32,102720,120
73,28,102960,120
76,33,102960,120
75,28,103200,120
78,33,103200,120
76,29,103440,120
79,34,103440,120
75,29,103680,120
78,35,103680,120
83,34,104160,120
71,34,104400,960
70,26,105360,120
73,31,105360,120
71,27,105600,120
75,32,105600,120
73,28,105840,120
76,33,105840,120
75,28,106080,120
78,33,106080,120
79,34,106320,120
76,29,106320,120
70,29,106500,180
73,29,106530,150
78,35,106560,120
85,34,107040,120
78,34,107280,720
82,34,107280,720
90,41,107280,720
66,30,108000,120
70,35,108000,120
85,32,108480,120
90,38,108720,720
82,31,108720,720
78,31,108720,720
66,26,109440,120
70,30,109440,120
85,28,109920,120
78,27,110160,2160
82,27,110160,2160
90,33,110160,2160
61,62,112560,120
73,73,112560,120
63,64,112800,120
75,76,112800,120
77,79,113040,120
65,67,113040,120
66,69,113280,120
78,82,113280,120
80,85,113520,120
68,85,113520,120
82,88,113760,120
70,74,113760,120
73,74,113760,120
78,74,113760,120
73,74,114240,120
85,88,114240,120
78,80,114480,120
90,95,114480,120
59,87,115200,240
85,72,115920,720
97,86,115920,720
93,72,115920,720
95,83,116640,720
83,71,116640,720
92,83,116640,720
92,86,117360,720
88,72,117360,720
80,72,117360,720
81,64,118080,120
90,64,118080,120
93,77,118080,120
87,57,118320,120
90,68,118320,120
78,57,118320,120
80,60,118560,120
92,77,118560,120
88,59,118560,120
76,58,118800,120
85,58,118800,120
88,69,118800,120
87,64,119040,120
90,77,119040,120
78,64,119040,120
75,59,119280,120
83,59,119280,120
87,70,119280,120
85,64,119520,120
88,77,119520,120
76,64,119520,120
88,75,120000,120
85,63,120000,120
76,63,120000,120
73,64,120240,720
81,64,120240,720
85,77,120240,720
71,47,121200,120
83,56,121200,120
75,49,121440,120
87,58,121440,120
88,60,121680,120
76,51,121680,120
78,52,121920,120
90,62,121920,120
92,64,122160,120
80,54,122160,120
83,60,122340,180
88,60,122370,150
95,70,122400,120
81,49,122880,120
93,58,122880,120
88,57,123120,720
76,48,123120,720
85,58,124080,120
73,48,124080,120
75,53,124320,120
87,63,124320,120
76,57,124560,120
88,67,124560,120
90,73,124800,120
78,61,124800,120
80,65,125040,120
92,78,125040,120
83,75,125220,180
87,75,125250,150
95,87,125280,120
93,69,125760,120
81,58,125760,120
75,56,126000,720
87,67,126000,720
52,91,126720,240
89,78,127200,240
77,64,127200,240
86,64,127200,240
88,75,127440,480
76,75,127440,480
84,75,127440,480
81,64,127920,240
72,64,127920,240
84,78,127920,240
83,59,128160,120
74,59,128160,120
86,70,128160,120
83,62,128400,120
71,52,128400,120
80,52,128400,120
72,55,128640,120
81,54,128640,120
84,70,128640,120
78,53,128880,120
69,53,128880,120
81,63,128880,120
71,59,129120,120
83,70,129120,120
80,59,129120,120
68,54,129360,120
76,54,129360,120
80,64,129360,120
82,70,129600,120
70,59,129600,120
76,59,129600,120
79,64,130080,240
88,64,130080,240
91,78,130080,240
78,75,130320,480
90,75,130320,480
87,75,130320,480
83,64,130800,240
75,64,130800,240
87,78,130800,240
88,70,131040,120
85,59,131040,120
76,59,131040,120
73,52,131280,120
82,52,131280,120
85,62,131280,120
83,54,131520,120
75,55,131520,120
87,70,131520,120
80,53,131760,120
83,63,131760,120
71,53,131760,120
72,59,132000,120
84,70,132000,120
81,59,132000,120
69,54,132240,120
81,64,132240,120
78,54,132240,120
83,70,132480,120
71,59,132480,120
78,59,132480,120
84,64,132960,240
96,78,132960,240
93,64,132960,240
95,75,133200,480
83,75,133200,480
91,75,133200,480
91,78,133680,240
79,64,133680,240
88,64,133680,240
93,70,133920,120
90,59,133920,120
81,59,133920,120
87,52,134160,120
90,62,134160,120
78,52,134160,120
79,55,134400,120
91,70,134400,120
88,55,134400,120
76,53,134640,120
84,53,134640,120
88,63,134640,120
78,59,134880,120
86,59,134880,120
90,70,134880,120
74,54,135120,120
83,54,135120,120
86,64,135120,120
76,59,135360,120
88,70,135360,120
84,59,135360,120
84,62,135600,120
81,52,135600,120
72,52,135600,120
83,55,135840,120
86,70,135840,120
74,55,135840,120
79,53,136080,120
71,53,136080,120
83,63,136080,120
72,59,136320,120
84,70,136320,120
81,59,136320,120
78,54,136560,120
81,64,136560,120
69,54,136560,120
83,70,136800,120
79,59,136800,120
71,59,136800,120
67,53,137040,120
79,63,137040,120
76,53,137040,120
69,57,137280,120
78,57,137280,120
81,73,137280,120
78,68,137520,120
66,57,137520,120
75,57,137520,120
76,65,137760,120
79,77,137760,120
67,65,137760,120
76,72,138000,120
72,61,138000,120
64,61,138000,120
92,90,138240,456
88,76,138240,456
80,76,138240,456
79,76,138720,456
88,76,138720,456
91,90,138720,456
87,76,139200,456
90,90,139200,456
78,76,139200,456
77,76,139680,456
89,90,139680,456
86,76,139680,456
85,75,140160,456
88,89,140160,456
76,75,140160,456
87,87,140640,456
75,73,140640,456
84,73,140640,456
86,85,141120,456
74,72,141120,456
83,72,141120,456
73,71,141600,456
85,84,141600,456
82,71,141600,456
84,82,142080,456
81,69,142080,456
72,69,142080,456
71,68,142560,456
80,68,142560,456
83,81,142560,456
79,67,143040,366
83,80,143040,366
71,67,143040,366
83,78,143520,456
75,66,143520,456
71,66,143520,456
78,66,143520,456
64,59,144000,120
76,70,144000,120
74,62,144240,120
71,52,144240,120
76,70,144480,120
64,55,144480,120
69,53,144720,120
72,63,144720,120
76,70,144960,120
64,59,144960,120
71,64,145200,120
67,54,145200,120
64,59,145440,120
76,70,145440,120
69,62,145680,120
66,52,145680,120
76,70,145920,120
64,55,145920,120
67,63,146160,120
76,70,146400,120
64,59,146400,120
62,54,146640,120
66,64,146640,120
64,59,146880,120
76,70,146880,120
64,61,147120,120
60,51,147120,120
76,68,147360,120
64,53,147360,120
62,61,147600,120
59,51,147600,120
76,66,147840,120
64,56,147840,120
57,50,148080,120
60,60,148080,120
64,54,148320,120
76,65,148320,120
59,57,148560,120
55,47,148560,120
64,49,148800,120
76,63,148800,120
54,47,149040,120
57,56,149040,120
76,61,149280,120
64,51,149280,120
57,55,149520,120
53,46,149520,120
55,61,149760,120
52,51,149760,120
52,51,150000,120
55,61,150000,120
52,51,150240,120
55,61,150240,120
57,67,150480,720
53,56,150480,720
52,51,151200,120
55,61,151200,120
52,51,151440,120
55,61,151440,120
55,61,151680,120
52,51,151680,120
60,61,151920,720
69,61,151920,720
57,61,151920,720
55,61,152640,120
52,51,152640,120
52,51,152880,120
55,61,152880,120
52,51,153120,120
55,61,153120,120
72,77,153360,960
76,77,153360,960
79,77,153360,960
84,99,153360,960
52,79,154800,120
55,95,154800,120
55,95,155520,120
52,79,155520,120
52,79,156233,120
55,95,156233,120
89,84,156960,1680
101,101,156960,1680
96,84,156960,1680
93,84,156960,1680
96,70,158760,120
84,59,158760,120
93,71,159000,120
81,60,159000,120
77,61,159240,120
89,72,159240,120
84,69,159480,120
72,58,159480,120
81,70,159720,120
69,59,159720,120
65,65,159960,120
77,77,159960,120
60,62,160200,120
72,74,160200,120
57,63,160440,120
69,75,160440,120
65,83,160680,120
53,70,160680,120
48,65,160920,120
60,77,160920,120
50,66,161160,120
62,78,161160,120
48,68,161280,120
55,68,161280,120
60,80,161280,120
52,68,161280,120
55,68,162720,120
52,68,162720,120
60,80,162720,120
48,68,162720,120
52,68,164160,120
55,68,164160,120
60,80,164160,120
48,68,164160,120
64,40,167040,2870
55,40,168480,1440
60,30,169920,240
64,40,169920,1920
55,20,170160,240
60,30,170400,240
55,21,170640,240
60,30,170880,240
55,20,171120,240
60,30,171360,240
55,22,171600,240
65,40,171840,480
62,30,171840,240
55,21,172080,240
63,30,172320,240
66,35,172320,480
55,22,172560,240
64,30,172800,240
67,40,172800,480
55,23,173040,240
69,36,173280,480
65,30,173280,240
55,24,173520,240
71,40,173760,480
62,30,173760,240
55,24,174000,240
64,30,174240,240
72,44,174240,480
60,23,174480,240
65,30,174720,240
74,49,174720,480
60,30,174960,240
67,30,175200,240
76,57,175200,480
60,30,175440,240
73,30,175680,240
79,62,175680,1440
70,30,175680,240
64,33,175920,240
73,38,176160,240
70,38,176160,240
64,32,176400,240
70,38,176640,240
73,38,176640,240
64,34,176880,240
77,57,177120,960
69,30,177120,240
74,30,177120,240
65,27,177360,240
69,34,177600,240
74,34,177600,240
65,27,177840,240
70,37,178080,240
76,50,178080,475
73,37,178080,240
67,29,178320,240
70,38,178560,240
76,51,178560,960
73,38,178560,240
67,26,178800,240
70,29,179040,240
73,29,179040,240
67,26,179280,240
69,35,179520,240
74,47,179520,480
65,26,179760,240
73,33,180000,240
76,44,180000,960
69,33,180000,240
64,26,180240,240
69,26,180480,240
73,26,180480,240
64,26,180720,240
77,47,180960,480
69,35,180960,240
74,35,180960,240
65,28,181200,240
67,30,181440,240
72,40,181440,2880
64,20,181680,240
67,30,181920,240
64,21,182160,240
67,30,182400,240
64,20,182640,240
67,30,182880,240
64,22,183120,240
67,30,183360,240
64,21,183600,240
69,30,183840,240
64,22,184080,240
67,30,184320,240
71,40,184320,480
62,23,184560,240
67,30,184800,240
72,36,184800,480
65,24,185040,240
74,40,185280,480
67,30,185280,240
65,24,185520,240
76,44,185760,480
67,30,185760,240
64,23,186000,240
77,49,186240,480
71,30,186240,240
67,30,186480,240
72,30,186720,240
79,57,186720,480
67,30,186960,240
82,62,187200,1440
73,34,187200,240
70,37,187440,240
73,43,187680,240
70,36,187920,240
73,43,188160,240
70,38,188400,240
74,34,188640,240
81,57,188640,960
69,30,188880,240
74,36,189120,240
69,29,189360,240
74,34,189600,240
80,42,189600,475
71,26,189840,240
79,45,190080,960
73,34,190080,240
69,23,190320,240
73,26,190560,240
69,23,190800,240
78,42,191040,480
73,31,191040,240
69,23,191280,240
79,39,191520,960
73,29,191520,240
69,23,191760,240
73,23,192000,240
69,23,192240,240
82,42,192480,480
73,31,192480,240
69,25,192720,240
73,27,192960,240
81,51,192960,1440
70,24,193200,240
73,30,193440,240
70,24,193680,240
73,29,193920,240
70,23,194160,240
73,34,194400,240
79,45,194400,480
70,23,194640,240
73,26,194880,240
70,23,195120,240
73,30,195360,240
79,42,195360,475
70,23,195600,240
76,34,195840,240
79,45,195840,960
71,23,196080,240
76,26,196320,240
71,23,196560,240
78,42,196800,480
76,31,196800,240
71,23,197040,240
76,29,197280,240
79,39,197280,960
71,23,197520,240
76,23,197760,240
71,23,198000,240
83,42,198240,480
76,31,198240,240
71,25,198480,240
81,51,198720,1440
76,27,198720,240
70,24,198960,240
76,30,199200,240
70,24,199440,240
76,29,199680,240
70,23,199920,240
79,45,200160,480
76,34,200160,240
70,23,200400,240
76,26,200640,240
70,23,200880,240
79,42,201120,475
76,30,201120,240
70,23,201360,240
79,45,201600,960
71,34,201600,240
67,23,201840,240
71,26,202080,240
67,23,202320,240
78,42,202560,480
71,31,202560,240
67,23,202800,240
79,39,203040,960
71,29,203040,240
67,23,203280,240
71,23,203520,240
67,23,203760,240
74,42,204000,480
71,31,204000,240
67,25,204240,240
70,34,204480,240
67,23,204720,240
70,26,204960,240
67,23,205200,240
70,31,205440,240
67,23,205680,240
70,29,205920,240
67,23,206160,240
70,23,206400,240
67,23,206640,240
70,31,206880,240
67,25,207120,240
74,45,207360,960
66,34,207360,240
62,23,207600,240
66,26,207840,240
62,23,208080,240
73,42,208320,480
66,31,208320,240
62,23,208560,240
74,39,208800,960
66,29,208800,240
62,23,209040,240
66,23,209280,240
62,23,209520,240
66,31,209760,240
69,42,209760,480
62,25,210000,240
65,32,210240,240
62,21,210480,240
65,24,210720,240
62,21,210960,240
65,28,211200,240
62,21,211440,240
65,27,211680,240
62,20,211920,240
65,20,212160,240
62,20,212400,240
65,27,212640,240
62,21,212880,240
65,26,213120,240
74,34,213120,960
62,19,213360,240
65,19,213600,240
62,19,213840,240
65,27,214080,240
73,36,214080,480
62,21,214320,240
65,28,214560,240
62,19,214800,240
65,21,215040,240
62,18,215280,240
65,26,215520,240
62,18,215760,240
65,24,216000,240
74,31,216000,2400
62,18,216240,240
65,18,216480,240
62,18,216720,240
65,25,216960,240
62,19,217200,240
65,27,217440,240
62,18,217680,240
65,19,217920,240
62,18,218160,240
65,19,218400,480
59,23,218400,240
55,17,218640,240
60,30,218880,240
64,40,218880,1920
55,20,219120,240
60,30,219360,240
55,21,219600,240
60,30,219840,240
55,20,220080,240
60,30,220320,240
55,22,220560,240
62,30,220800,240
65,40,220800,480
55,21,221040,240
63,30,221280,240
66,35,221280,480
55,22,221520,240
67,40,221760,480
64,30,221760,240
55,23,222000,240
65,30,222240,240
69,36,222240,480
55,24,222480,240
62,30,222720,240
71,40,222720,480
55,24,222960,240
64,30,223200,240
72,44,223200,480
60,23,223440,240
65,30,223680,240
74,49,223680,480
60,30,223920,240
67,30,224160,240
76,57,224160,480
60,30,224400,240
70,30,224640,240
73,30,224640,240
79,62,224640,1440
64,33,224880,240
70,38,225120,240
73,38,225120,240
64,32,225360,240
70,38,225600,240
73,38,225600,240
64,34,225840,240
77,57,226080,960
74,30,226080,240
69,30,226080,240
65,27,226320,240
69,34,226560,240
74,34,226560,240
65,27,226800,240
70,37,227040,240
76,50,227040,475
73,37,227040,240
67,29,227280,240
73,43,227520,240
76,51,227520,960
70,38,227520,240
67,26,227760,240
73,33,228000,240
70,29,228000,240
67,26,228240,240
69,35,228480,240
74,47,228480,480
65,26,228720,240
69,33,228960,240
76,44,228960,960
73,33,228960,240
64,26,229200,240
69,26,229440,240
73,26,229440,240
64,26,229680,240
74,35,229920,240
77,47,229920,480
69,35,229920,240
65,28,230160,240
67,30,230400,240
72,40,230400,2880
64,20,230640,240
67,30,230880,240
64,21,231120,240
67,30,231360,240
64,20,231600,240
67,30,231840,240
64,22,232080,240
67,30,232320,240
64,21,232560,240
69,30,232800,240
64,22,233040,240
67,30,233280,240
71,40,233280,480
62,23,233520,240
67,30,233760,240
72,36,233760,480
65,24,234000,240
67,30,234240,240
74,40,234240,480
65,24,234480,240
67,30,234720,240
76,44,234720,480
64,23,234960,240
77,49,235200,480
71,30,235200,240
67,30,235440,240
72,30,235680,240
79,57,235680,480
67,30,235920,240
82,62,236160,1440
73,34,236160,240
70,37,236400,240
73,43,236640,240
70,36,236880,240
73,43,237120,240
70,38,237360,240
81,57,237600,960
74,34,237600,240
69,30,237840,240
74,36,238080,240
69,29,238320,240
74,34,238560,240
80,42,238560,475
71,26,238800,240
73,34,239040,240
79,45,239040,960
69,23,239280,240
73,26,239520,240
69,23,239760,240
78,42,240000,480
73,31,240000,240
69,23,240240,240
79,39,240480,960
73,29,240480,240
69,23,240720,240
73,23,240960,240
69,23,241200,240
73,31,241440,240
82,42,241440,480
69,25,241680,240
73,27,241920,240
81,51,241920,1440
70,24,242160,240
73,30,242400,240
70,24,242640,240
73,29,242880,240
70,23,243120,240
73,38,243360,240
79,45,243360,480
70,23,243600,240
73,26,243840,240
70,23,244080,240
73,30,244320,240
79,42,244320,475
70,23,244560,240
76,34,244800,240
79,45,244800,960
71,23,245040,240
76,26,245280,240
71,23,245520,240
78,42,245760,480
76,31,245760,240
71,23,246000,240
76,29,246240,240
79,39,246240,960
71,23,246480,240
76,23,246720,240
71,23,246960,240
76,31,247200,240
83,42,247200,480
71,25,247440,240
81,51,247680,1440
76,27,247680,240
70,24,247920,240
76,30,248160,240
70,24,248400,240
76,29,248640,240
70,23,248880,240
79,45,249120,480
76,34,249120,240
70,23,249360,240
76,26,249600,240
70,23,249840,240
79,42,250080,475
76,30,250080,240
70,23,250320,240
71,34,250560,240
79,45,250560,960
67,23,250800,240
71,26,251040,240
67,23,251280,240
71,31,251520,240
78,42,251520,480
67,23,251760,240
79,39,252000,960
71,29,252000,240
67,23,252240,240
71,23,252480,240
67,23,252720,240
74,42,252960,480
71,31,252960,240
67,25,253200,240
70,34,253440,240
67,23,253680,240
70,26,253920,240
67,23,254160,240
70,31,254400,240
67,23,254640,240
70,29,254880,240
67,23,255120,240
70,23,255360,240
67,23,255600,240
70,31,255840,240
67,25,256080,240
74,45,256320,960
66,34,256320,240
62,23,256560,240
66,26,256800,240
62,23,257040,240
66,31,257280,240
73,42,257280,480
62,23,257520,240
74,39,257760,960
66,29,257760,240
62,23,258000,240
66,23,258240,240
62,23,258480,240
69,42,258720,480
66,31,258720,240
62,25,258960,240
65,32,259200,240
62,21,259440,240
65,24,259680,240
62,21,259920,240
65,28,260160,240
62,21,260400,240
65,27,260640,240
62,20,260880,240
65,20,261120,240
62,20,261360,240
65,27,261600,240
62,21,261840,240
74,34,262080,960
65,26,262080,240
62,19,262320,240
65,19,262560,240
62,19,262800,240
65,27,263040,240
73,36,263040,480
62,21,263280,240
65,28,263520,240
62,19,263760,240
65,21,264000,240
62,18,264240,240
65,26,264480,240
62,18,264720,240
65,24,264960,240
74,31,264960,2400
62,18,265200,240
65,18,265440,240
62,18,265680,240
65,25,265920,240
62,19,266160,240
65,27,266400,240
62,18,266640,240
65,19,266880,240
62,18,267120,240
65,19,267360,480
59,23,267360,240
55,17,267600,240
60,30,267840,240
63,40,267840,1920
55,20,268080,240
60,30,268320,240
55,21,268560,240
60,30,268800,240
55,20,269040,240
60,34,269280,240
55,25,269520,240
62,34,269760,240
65,40,269760,480
55,24,270000,240
62,34,270240,240
66,35,270240,480
55,25,270480,240
67,40,270720,480
63,34,270720,240
55,26,270960,240
65,34,271200,240
69,36,271200,480
55,27,271440,240
62,34,271680,240
71,40,271680,480
55,27,271920,240
63,34,272160,240
72,44,272160,480
60,26,272400,240
65,34,272640,240
74,49,272640,480
60,34,272880,240
67,34,273120,240
75,57,273120,480
60,34,273360,240
79,62,273600,1440
73,34,273600,240
70,34,273600,240
64,37,273840,240
70,43,274080,240
73,43,274080,240
64,36,274320,240
70,43,274560,240
73,43,274560,240
64,38,274800,240
68,34,275040,240
77,57,275040,960
73,34,275040,240
65,31,275280,240
73,38,275520,240
68,38,275520,240
65,31,275760,240
75,50,276000,475
68,42,276000,240
65,33,276240,240
75,51,276480,960
68,43,276480,240
65,29,276720,240
68,33,276960,240
65,29,277200,240
68,39,277440,240
73,47,277440,480
65,29,277680,240
68,37,277920,240
77,44,277920,960
65,29,278160,240
68,29,278400,240
65,29,278640,240
68,39,278880,240
73,47,278880,480
65,32,279120,240
72,40,279360,2880
67,30,279360,240
63,20,279600,240
67,30,279840,240
63,21,280080,240
67,30,280320,240
63,20,280560,240
67,30,280800,240
63,22,281040,240
67,30,281280,240
63,21,281520,240
69,30,281760,240
63,22,282000,240
71,40,282240,480
67,34,282240,240
62,26,282480,240
72,36,282720,480
67,34,282720,240
65,27,282960,240
74,40,283200,480
67,34,283200,240
65,27,283440,240
67,34,283680,240
75,44,283680,480
63,26,283920,240
71,34,284160,240
77,49,284160,480
67,34,284400,240
72,34,284640,240
79,57,284640,390
67,34,284880,150
82,62,285120,1440
73,34,285120,240
70,37,285360,240
73,43,285600,240
70,36,285840,240
73,43,286080,240
70,38,286320,240
80,57,286560,960
73,34,286560,240
68,30,286800,240
73,36,287040,240
68,29,287280,240
79,42,287520,475
73,34,287520,240
70,26,287760,240
73,44,288000,240
79,52,288000,1440
70,33,288240,240
73,40,288480,240
70,31,288720,240
73,39,288960,240
70,29,289200,240
73,39,289440,240
77,46,289440,960
68,26,289680,240
73,35,289920,240
68,27,290160,240
73,32,290400,240
75,38,290400,475
67,26,290640,240
75,44,290880,2400
73,34,290880,240
67,23,291120,240
73,34,291360,240
67,27,291600,240
73,35,291840,240
67,26,292080,240
73,29,292320,240
67,24,292560,240
73,36,292800,240
67,28,293040,240
77,55,293280,475
73,32,293280,240
68,31,293520,240
73,34,293760,240
75,45,293760,2400
67,23,294000,240
73,34,294240,240
67,27,294480,240
73,35,294720,240
67,26,294960,240
73,29,295200,240
67,24,295440,240
73,36,295680,240
67,28,295920,240
73,32,296160,240
77,55,296160,475
68,31,296400,240
73,38,296640,240
75,45,296640,2400
67,26,296880,240
73,38,297120,240
67,31,297360,240
73,39,297600,240
67,29,297840,240
73,33,298080,240
67,27,298320,240
73,40,298560,240
67,32,298800,240
82,60,299040,475
73,47,299040,240
70,35,299280,240
75,45,299520,2400
73,38,299520,240
70,26,299760,240
73,38,300000,240
70,31,300240,240
73,39,300480,240
70,29,300720,240
73,33,300960,240
70,27,301200,240
73,40,301440,240
70,32,301680,240
73,47,301920,240
82,60,301920,475
70,35,302160,240
73,38,302400,240
75,45,302400,1440
70,26,302640,240
73,38,302880,240
70,31,303120,240
73,39,303360,240
70,29,303600,240
73,38,303840,240
76,45,303840,2880
70,26,304080,240
73,38,304320,240
70,32,304560,240
73,40,304800,240
70,30,305040,240
74,41,305280,240
71,28,305508,240
74,41,305760,240
71,34,306000,240
74,44,306240,240
71,33,306480,240
77,56,306720,2880
74,44,306720,240
71,30,306960,240
74,44,307200,240
71,37,307440,240
74,47,307680,240
71,35,307920,240
75,70,308160,240
72,32,308400,240
75,47,308640,240
72,39,308880,240
75,50,309120,240
72,37,309360,240
75,50,309600,240
78,68,309600,1440
72,34,309840,240
75,50,310080,240
72,42,310320,240
75,53,310560,240
72,40,310800,240
78,58,311040,240
84,69,311040,1440
72,42,311280,240
78,56,311520,240
72,50,311760,240
78,60,312000,240
72,48,312240,240
78,42,312480,240
84,69,312480,240
86,69,312480,1440
74,42,312720,240
84,56,312960,240
78,50,312960,240
74,50,313200,240
78,48,313440,240
84,60,313440,240
74,48,313680,120
88,91,313920,1920
79,42,313920,240
84,42,313920,240
76,30,314160,240
79,33,314400,240
84,33,314400,240
76,28,314640,240
79,33,314880,240
84,33,314880,240
76,25,315120,240
84,34,315360,240
79,34,315360,240
76,27,315600,240
89,67,315840,480
86,52,315840,240
77,28,316080,240
87,31,316320,240
90,67,316320,480
78,32,316560,240
88,61,316800,240
91,79,316800,240
79,39,317040,240
91,74,317280,240
81,57,317280,240
79,40,317520,240
91,75,317760,240
83,58,317760,240
79,44,318000,240
91,76,318240,240
84,59,318240,240
79,39,318480,240
91,74,318720,240
86,57,318720,240
79,44,318960,240
91,81,319200,240
88,63,319200,240
79,34,319440,240
82,56,319680,240
91,85,319680,1440
88,56,319680,240
85,56,319680,240
79,42,319920,240
85,51,320160,240
82,51,320160,240
88,51,320160,240
79,38,320400,240
88,47,320640,240
85,47,320640,240
82,47,320640,240
79,38,320880,240
89,74,321120,960
86,34,321120,240
81,34,321120,240
77,31,321360,240
86,38,321600,240
81,38,321600,240
77,31,321840,240
82,42,322080,240
85,42,322080,240
88,73,322080,475
79,33,322320,240
82,48,322560,240
85,48,322560,240
88,77,322560,960
76,29,322800,240
82,37,323040,240
85,37,323040,240
76,29,323280,240
86,66,323520,480
81,51,323520,240
74,29,323760,240
85,47,324000,240
88,72,324000,960
81,47,324000,240
76,34,324240,240
85,42,324480,240
81,42,324480,240
76,30,324720,240
81,48,324960,240
86,48,324960,240
89,74,324960,480
77,32,325200,240
84,70,325440,1440
79,45,325440,240
76,45,325440,240
72,25,325680,240
79,42,325920,240
76,42,325920,240
72,27,326160,240
76,40,326400,240
79,40,326400,240
72,23,326640,240
74,47,326880,240
83,72,326880,960
79,47,326880,240
71,36,327120,240
74,57,327360,240
79,57,327360,240
71,39,327600,240
81,64,327840,480
74,59,327840,240
69,41,328080,240
79,54,328320,240
83,70,328320,480
74,44,328560,240
84,70,328800,480
79,54,328800,240
72,44,329040,240
86,72,329280,480
79,56,329280,240
74,47,329520,240
79,58,329760,240
88,75,329760,480
76,47,330000,240
89,75,330240,480
83,58,330240,240
77,51,330480,240
84,62,330720,240
91,80,330720,480
79,55,330960,240
91,69,331200,960
85,69,331200,240
94,82,331200,960
82,56,331440,240
85,64,331680,240
82,53,331920,240
89,69,332160,960
93,82,332160,960
84,69,332160,240
81,56,332400,240
84,64,332640,240
81,53,332880,240
92,82,333120,960
84,69,333120,240
87,69,333120,960
80,56,333360,240
84,64,333600,240
80,53,333840,240
91,82,334080,960
87,69,334080,960
84,69,334080,240
79,56,334320,240
84,64,334560,240
79,53,334800,240
84,69,335040,240
87,69,335040,960
90,82,335040,960
78,56,335280,240
84,64,335520,240
78,53,335760,240
89,82,336000,960
86,69,336000,240
77,56,336240,240
86,64,336480,240
77,53,336720,240
84,69,336960,240
79,56,336960,240
88,82,336960,960
76,56,337200,240
84,64,337440,240
79,53,337440,240
76,53,337680,240
88,69,337920,240
91,82,337920,480
82,56,337920,240
79,56,338160,240
89,82,338400,960
86,69,338400,240
81,56,338400,240
77,56,338640,240
86,64,338880,240
81,53,338880,240
77,53,339120,240
86,82,339360,480
81,56,339360,240
74,56,339600,240
84,82,339840,1440
79,69,339840,240
76,56,339840,240
72,56,340080,240
79,64,340320,240
76,53,340320,240
72,53,340560,240
79,56,340800,240
76,53,340800,240
72,56,341040,180
77,50,341220,300
83,62,341250,270
88,73,341280,960
76,50,341520,240
83,57,341760,240
77,47,341760,240
76,47,342000,240
77,47,342240,240
83,50,342240,240
86,73,342240,480
76,50,342480,240
84,73,342720,1440
76,50,342720,240
79,62,342720,240
72,50,342960,240
79,57,343200,240
76,47,343200,240
72,47,343440,240
76,47,343680,240
79,50,343680,240
72,50,343920,240
79,50,344160,240
82,62,344160,240
84,73,344160,5760
72,50,344400,240
79,47,344640,240
82,57,344640,240
72,47,344880,240
79,47,345120,240
82,50,345120,240
72,50,345360,240
77,50,345600,240
81,62,345600,240
72,50,345840,240
77,47,346080,240
81,57,346080,240
72,47,346320,240
77,47,346560,240
81,50,346560,240
72,50,346800,240
74,50,347040,240
77,62,347040,240
72,50,347280,240
74,47,347520,240
77,57,347520,240
72,47,347760,240
74,47,348000,240
77,50,348000,240
72,50,348240,240
76,50,348480,240
79,62,348480,240
72,50,348720,240
76,47,348960,240
79,57,348960,240
72,47,349200,240
76,47,349440,240
79,50,349440,240
72,50,349680,240
67,36,349920,240
70,44,349920,240
72,65,349920,10080
60,36,350160,240
67,33,350400,240
70,40,350400,240
60,32,350640,240
67,32,350880,240
70,35,350880,240
60,35,351120,240
65,35,351360,240
69,43,351360,240
60,34,351600,240
65,32,351840,240
69,39,351840,240
60,32,352080,240
65,32,352320,240
69,34,352320,240
60,33,352560,240
62,33,352800,240
65,41,352800,240
60,33,353040,240
62,31,353280,240
65,37,353280,240
60,31,353520,240
62,31,353760,240
65,32,353760,240
60,32,354000,240
64,32,354240,240
67,40,354240,240
60,32,354480,240
64,30,354720,240
67,36,354720,240
60,29,354960,240
64,29,355200,240
67,32,355200,240
60,32,355440,240
64,38,355680,240
60,31,355920,240
64,35,356160,240
60,28,356400,240
64,30,356640,240
60,30,356880,240
64,37,357120,240
60,30,357360,240
64,33,357600,240
60,27,357840,240
64,28,358080,240
60,28,358320,240
64,35,358560,240
60,27,358800,240
64,31,359040,240
60,24,359280,240
64,26,359520,240
60,26,359760,240
64,34,360000,240
60,26,360240,240
64,30,360480,240
60,24,360720,240
64,26,360960,240
60,26,361200,240
64,33,361440,240
60,25,361680,240
64,29,361920,240
60,23,362160,240
64,25,362400,240
60,25,362640,240
64,32,362880,240
60,24,363120,240
64,28,363360,240
60,22,363600,240
64,24,363840,240
60,24,364080,240
64,31,364320,240
60,24,364560,240
64,27,364800,240
60,22,365040,240
64,23,365280,240
60,23,365520,240
64,30,365760,240
60,23,366000,240
64,26,366240,240
60,21,366480,240
64,22,366720,240
60,22,366960,240
64,29,367200,240
60,22,367440,240
64,25,367680,240
60,20,367920,240
64,22,368160,240
60,22,368400,240
64,28,368640,360
60,22,369000,360
64,27,369360,360
60,22,369720,360
64,27,370080,480
60,22,370560,480
64,26,371040,480
60,20,371520,480
64,25,372000,480
60,20,372480,480
64,60,372960,206
62,62,373166,207
60,64,373373,206
59,66,373579,206
57,69,373785,207
55,71,373992,206
53,73,374198,202
52,82,374400,240
83,63,375120,720
86,75,375120,720
74,63,375120,720
72,62,375840,720
84,73,375840,720
81,73,375840,720
78,63,376560,720
69,63,376560,720
81,75,376560,720
83,70,377280,120
71,59,377280,120
79,59,377280,120
76,52,377520,120
79,62,377520,120
67,52,377520,120
78,54,377760,120
69,55,377760,120
81,70,377760,120
75,53,378000,120
78,63,378000,120
66,53,378000,120
79,70,378240,120
67,59,378240,120
76,59,378240,120
64,54,378480,120
73,54,378480,120
76,64,378480,120
75,59,378720,120
66,59,378720,120
78,70,378720,120
66,58,379200,120
75,58,379200,120
78,69,379200,120
61,52,380400,120
73,62,380400,120
75,64,380640,120
63,54,380640,120
76,66,380880,120
64,56,380880,120
66,56,381120,120
78,67,381120,120
79,69,381360,120
67,58,381360,120
78,70,381600,120
75,59,381600,120
66,59,381600,120
83,69,382080,120
71,58,382080,120
61,52,383280,120
73,62,383280,120
75,64,383520,120
63,54,383520,120
64,56,383760,120
76,66,383760,120
78,67,384000,120
66,56,384000,120
67,58,384240,120
79,69,384240,120
69,59,384480,120
78,59,384480,120
81,70,384480,120
86,69,384960,120
74,58,384960,120
55,76,385920,240
89,63,386640,720
81,63,386640,720
93,75,386640,720
88,73,387360,720
91,73,387360,720
79,62,387360,720
88,75,388080,720
76,63,388080,720
84,63,388080,720
89,70,388800,120
77,59,388800,120
86,59,388800,120
74,52,389040,120
86,62,389040,120
83,52,389040,120
76,55,389280,120
88,70,389280,120
84,54,389280,120
84,63,389520,120
72,53,389520,120
81,53,389520,120
83,59,389760,120
86,70,389760,120
74,59,389760,120
83,64,390000,120
71,54,390000,120
79,54,390000,120
81,59,390240,120
72,59,390240,120
84,70,390240,120
84,69,390720,120
72,58,390720,120
81,58,390720,120
77,59,390960,720
69,59,390960,720
81,70,390960,720
67,47,391920,120
79,56,391920,120
71,49,392160,120
83,58,392160,120
84,60,392400,120
72,51,392400,120
86,62,392640,120
74,52,392640,120
76,54,392880,120
88,64,392880,120
79,60,393060,180
84,60,393090,150
91,70,393120,120
89,58,393600,120
77,49,393600,120
84,57,393840,720
72,48,393840,720
69,48,394800,120
81,58,394800,120
83,63,395040,120
71,53,395040,120
72,57,395280,120
84,67,395280,120
86,73,395520,120
74,61,395520,120
88,78,395760,120
76,65,395760,120
79,75,395940,180
87,75,395970,150
91,87,396000,120
90,69,396480,120
78,58,396480,120
69,56,396720,720
81,67,396720,720
48,76,397440,240
67,59,398160,720
70,71,398160,720
58,59,398160,720
57,58,398880,720
69,69,398880,720
65,69,398880,720
62,59,399600,720
65,71,399600,720
53,59,399600,720
55,56,400320,120
67,66,400320,120
64,56,400320,120
64,58,400560,120
52,49,400560,120
65,66,400800,120
53,52,400800,120
62,59,401040,120
50,50,401040,120
64,66,401280,120
52,56,401280,120
61,60,401520,120
49,51,401520,120
62,66,401760,120
50,56,401760,120
50,55,402240,120
62,65,402240,120
51,76,403200,240
73,71,403920,720
70,59,403920,720
61,59,403920,720
72,69,404640,720
68,69,404640,720
60,58,404640,720
68,71,405360,720
65,59,405360,720
56,59,405360,720
58,56,406080,120
67,56,406080,120
70,66,406080,120
67,58,406320,120
55,49,406320,120
68,66,406560,120
56,52,406560,120
65,59,406800,120
53,50,406800,120
67,66,407040,120
55,56,407040,120
64,60,407280,120
52,51,407280,120
53,56,407520,120
65,66,407520,120
53,55,408000,120
65,65,408000,120
54,76,408960,240
76,67,409680,720
88,81,409680,720
85,67,409680,720
83,79,410400,720
87,79,410400,720
75,66,410400,720
71,67,411120,720
83,81,411120,720
80,67,411120,720
64,42,412560,720
62,41,413280,720
59,42,414000,720
54,91,414720,240
88,78,415200,240
85,64,415200,240
76,64,415200,240
83,75,415440,480
75,75,415440,480
87,75,415440,480
71,64,415920,240
83,78,415920,240
80,64,415920,240
92,78,416640,240
80,64,416640,240
88,64,416640,240
90,75,416880,480
87,75,416880,480
78,75,416880,480
75,64,417360,240
87,78,417360,240
83,64,417360,240
64,42,418080,240
62,41,418320,480
59,42,418800,240
61,42,419520,240
59,41,419760,480
55,42,420240,240
54,41,420480,480
66,26,422640,120
64,22,422640,120
58,22,422640,120
61,22,422640,120
61,25,422880,120
58,25,422880,120
64,25,422880,120
66,30,422880,120
58,22,423120,120
66,26,423120,120
61,22,423120,120
64,22,423120,120
66,33,423360,120
59,28,423360,120
63,28,423360,120
61,26,424080,120
52,22,424080,120
54,22,424080,120
58,22,424080,120
52,25,424320,120
54,25,424320,120
58,25,424320,120
63,30,424320,120
52,22,424560,120
54,22,424560,120
58,22,424560,120
61,26,424560,120
51,28,424800,120
54,28,424800,120
59,33,424800,120
58,22,425520,120
66,26,425520,120
61,22,425520,120
64,22,425520,120
58,25,425760,120
61,25,425760,120
64,25,425760,120
66,30,425760,120
61,22,426000,120
66,26,426000,120
64,22,426000,120
58,22,426000,120
66,33,426240,120
63,28,426240,120
59,28,426240,120
58,22,426960,120
61,26,426960,120
52,22,426960,120
54,22,426960,120
58,25,427200,120
52,25,427200,120
54,25,427200,120
63,30,427200,120
58,22,427440,120
52,22,427440,120
61,26,427440,120
54,22,427440,120
54,28,427680,120
59,33,427680,120
51,28,427680,120
66,23,428400,120
60,23,428400,120
63,23,428400,120
68,28,428400,120
66,27,428640,120
68,33,428640,120
63,27,428640,120
60,27,428640,120
63,25,428880,120
60,25,428880,120
66,25,428880,120
68,29,428880,120
64,32,429120,120
61,32,429120,120
68,38,429120,120
58,27,429840,120
61,27,429840,120
64,27,429840,120
66,32,429840,120
58,32,430080,120
63,32,430080,120
64,32,430080,120
66,38,430080,120
64,28,430320,120
66,34,430320,120
58,28,430320,120
61,28,430320,120
59,37,430560,120
63,37,430560,120
66,43,430560,120
63,31,431280,120
69,31,431280,120
71,36,431280,120
66,31,431280,120
63,36,431520,120
66,36,431520,120
69,36,431520,120
71,43,431520,120
63,32,431760,120
66,32,431760,120
69,32,431760,120
71,38,431760,120
64,42,432000,120
71,49,432000,120
68,42,432000,120
73,47,432720,120
65,39,432720,120
68,39,432720,120
71,39,432720,120
73,55,432960,120
71,46,432960,120
68,46,432960,120
65,46,432960,120
68,41,433200,120
65,41,433200,120
73,48,433200,120
71,41,433200,120
70,52,433440,120
66,52,433440,120
73,63,433440,120
85,55,434160,120
90,65,434160,120
82,55,434160,120
76,55,434160,120
76,62,434400,120
90,74,434400,120
85,62,434400,120
82,62,434400,120
82,57,434640,120
76,57,434640,120
90,68,434640,120
85,57,434640,120
76,55,434880,120
85,55,434880,120
82,55,434880,120
90,65,434880,120
76,62,435120,120
85,62,435120,120
90,74,435120,120
82,62,435120,120
85,57,435360,120
82,57,435360,120
76,57,435360,120
90,68,435360,120
85,55,435600,120
76,55,435600,120
90,65,435600,120
82,55,435600,120
76,62,435840,120
82,62,435840,120
90,74,435840,120
85,62,435840,120
82,57,436080,120
90,68,436080,120
76,57,436080,120
85,57,436080,120
83,67,436320,120
75,67,436320,120
87,79,436320,120
71,61,436800,120
83,72,436800,120
78,79,437040,120
66,67,437040,120
75,71,437520,120
63,60,437520,120
71,79,437760,120
67,73,438240,120
82,55,438480,120
85,55,438480,120
76,55,438480,120
90,65,438480,120
90,74,438720,120
76,62,438720,120
82,62,438720,120
85,62,438720,120
76,57,438960,120
85,57,438960,120
82,57,438960,120
90,68,438960,120
83,67,439200,120
75,67,439200,120
87,79,439200,120
71,61,439680,120
83,72,439680,120
66,67,439920,120
78,79,439920,120
63,60,440400,120
75,71,440400,120
71,79,440640,120
67,73,441120,120
76,55,441360,120
85,55,441360,120
82,55,441360,120
90,65,441360,120
85,62,441600,120
90,74,441600,120
76,62,441600,120
82,62,441600,120
85,57,441840,120
76,57,441840,120
82,57,441840,120
90,68,441840,120
75,67,442080,120
83,67,442080,120
87,79,442080,120
83,72,442560,120
71,61,442560,120
79,79,442800,120
67,67,442800,120
76,64,443280,120
64,64,443280,120
72,69,443520,120
69,52,444000,120
66,58,444240,120
63,43,444720,120
59,45,444960,120
55,36,446400,120
52,36,447840,120
86,37,448560,720
83,31,448560,720
81,36,449280,710
84,36,449280,710
81,37,450000,720
78,31,450000,720
83,35,450720,120
79,29,450720,120
76,26,450960,120
79,31,450960,120
78,27,451200,120
81,35,451200,120
78,31,451440,120
75,26,451440,120
76,29,451680,120
79,35,451680,120
76,32,451920,120
73,27,451920,120
78,35,452160,120
75,29,452160,120
78,34,452640,120
75,29,452640,120
71,34,452880,960
70,26,453840,120
73,31,453840,120
71,27,454080,120
75,32,454080,120
73,28,454320,120
76,33,454320,120
75,28,454560,120
78,33,454560,120
76,29,454800,120
79,34,454800,120
75,29,455040,120
78,35,455040,120
83,34,455520,120
71,34,455760,960
70,26,456720,120
73,31,456720,120
71,27,456960,120
75,32,456960,120
73,28,457200,120
76,33,457200,120
75,28,457440,120
78,33,457440,120
79,34,457680,120
76,29,457680,120
70,29,457860,180
73,29,457890,150
78,35,457920,120
85,34,458400,120
78,34,458640,720
82,34,458640,720
90,41,458640,720
66,30,459360,120
70,35,459360,120
85,32,459840,120
90,38,460080,720
82,31,460080,720
78,31,460080,720
66,26,460800,120
70,30,460800,120
85,28,461280,120
78,27,461520,2160
82,27,461520,2160
90,33,461520,2160
61,62,463920,120
73,73,463920,120
63,64,464160,120
75,76,464160,120
77,79,464400,120
65,67,464400,120
66,69,464640,120
78,82,464640,120
80,85,464880,120
68,85,464880,120
82,88,465120,120
70,74,465120,120
73,74,465120,120
78,74,465120,120
73,74,465600,120
85,88,465600,120
78,80,465840,120
90,95,465840,120
59,87,466560,240
85,72,467280,720
97,86,467280,720
93,72,467280,720
95,83,468000,720
83,71,468000,720
92,83,468000,720
92,86,468720,720
88,72,468720,720
80,72,468720,720
81,64,469440,120
90,64,469440,120
93,77,469440,120
87,57,469680,120
90,68,469680,120
78,57,469680,120
80,60,469920,120
92,77,469920,120
88,59,469920,120
76,58,470160,120
85,58,470160,120
88,69,470160,120
87,64,470400,120
90,77,470400,120
78,64,470400,120
75,59,470640,120
83,59,470640,120
87,70,470640,120
85,64,470880,120
88,77,470880,120
76,64,470880,120
88,75,471360,120
85,63,471360,120
76,63,471360,120
73,64,471600,720
81,64,471600,720
85,77,471600,720
71,47,472560,120
83,56,472560,120
75,49,472800,120
87,58,472800,120
88,60,473040,120
76,51,473040,120
78,52,473280,120
90,62,473280,120
92,64,473520,120
80,54,473520,120
83,60,473700,180
88,60,473730,150
95,70,473760,120
81,49,474240,120
93,58,474240,120
88,57,474480,720
76,48,474480,720
85,58,475440,120
73,48,475440,120
75,53,475680,120
87,63,475680,120
76,57,475920,120
88,67,475920,120
90,73,476160,120
78,61,476160,120
80,65,476400,120
92,78,476400,120
83,75,476580,180
87,75,476610,150
95,87,476640,120
93,69,477120,120
81,58,477120,120
75,56,477360,720
87,67,477360,720
52,91,478080,240
89,78,478560,240
77,64,478560,240
86,64,478560,240
88,75,478800,480
76,75,478800,480
84,75,478800,480
81,64,479280,240
72,64,479280,240
84,78,479280,240
83,59,479520,120
74,59,479520,120
86,70,479520,120
83,62,479760,120
71,52,479760,120
80,52,479760,120
72,55,480000,120
81,54,480000,120
84,70,480000,120
78,53,480240,120
69,53,480240,120
81,63,480240,120
71,59,480480,120
83,70,480480,120
80,59,480480,120
68,54,480720,120
76,54,480720,120
80,64,480720,120
82,70,480960,120
70,59,480960,120
76,59,480960,120
79,64,481440,240
88,64,481440,240
91,78,481440,240
78,75,481680,480
90,75,481680,480
87,75,481680,480
83,64,482160,240
75,64,482160,240
87,78,482160,240
88,70,482400,120
85,59,482400,120
76,59,482400,120
73,52,482640,120
82,52,482640,120
85,62,482640,120
83,54,482880,120
75,55,482880,120
87,70,482880,120
80,53,483120,120
83,63,483120,120
71,53,483120,120
72,59,483360,120
84,70,483360,120
81,59,483360,120
69,54,483600,120
81,64,483600,120
78,54,483600,120
83,70,483840,120
71,59,483840,120
78,59,483840,120
84,64,484320,240
96,78,484320,240
93,64,484320,240
95,75,484560,480
83,75,484560,480
91,75,484560,480
91,78,485040,240
79,64,485040,240
88,64,485040,240
93,70,485280,120
90,59,485280,120
81,59,485280,120
87,52,485520,120
90,62,485520,120
78,52,485520,120
79,55,485760,120
91,70,485760,120
88,55,485760,120
76,53,486000,120
84,53,486000,120
88,63,486000,120
78,59,486240,120
86,59,486240,120
90,70,486240,120
74,54,486480,120
83,54,486480,120
86,64,486480,120
76,59,486720,120
88,70,486720,120
84,59,486720,120
84,62,486960,120
81,52,486960,120
72,52,486960,120
83,55,487200,120
86,70,487200,120
74,55,487200,120
79,53,487440,120
71,53,487440,120
83,63,487440,120
72,59,487680,120
84,70,487680,120
81,59,487680,120
78,54,487920,120
81,64,487920,120
69,54,487920,120
83,70,488160,120
79,59,488160,120
71,59,488160,120
67,53,488400,120
79,63,488400,120
76,53,488400,120
69,57,488640,120
78,57,488640,120
81,73,488640,120
78,68,488880,120
66,57,488880,120
75,57,488880,120
76,65,489120,120
79,77,489120,120
67,65,489120,120
76,72,489360,120
72,61,489360,120
64,61,489360,120
92,90,489600,456
88,76,489600,456
80,76,489600,456
79,76,490080,456
88,76,490080,456
91,90,490080,456
87,76,490560,456
90,90,490560,456
78,76,490560,456
77,76,491040,456
89,90,491040,456
86,76,491040,456
85,75,491520,456
88,89,491520,456
76,75,491520,456
87,87,492000,456
75,73,492000,456
84,73,492000,456
86,85,492480,456
74,72,492480,456
83,72,492480,456
73,71,492960,456
85,84,492960,456
82,71,492960,456
84,82,493440,456
81,69,493440,456
72,69,493440,456
71,68,493920,456
80,68,493920,456
83,81,493920,456
79,67,494400,366
83,80,494400,366
71,67,494400,366
83,78,494880,456
75,66,494880,456
71,66,494880,456
78,66,494880,456
64,59,495360,120
76,70,495360,120
74,62,495600,120
71,52,495600,120
76,70,495840,120
64,55,495840,120
69,53,496080,120
72,63,496080,120
76,70,496320,120
64,59,496320,120
71,64,496560,120
67,54,496560,120
64,59,496800,120
76,70,496800,120
69,62,497040,120
66,52,497040,120
76,70,497280,120
64,55,497280,120
67,63,497520,120
76,70,497760,120
64,59,497760,120
62,54,498000,120
66,64,498000,120
64,59,498240,120
76,70,498240,120
64,61,498480,120
60,51,498480,120
76,68,498720,120
64,53,498720,120
62,61,498960,120
59,51,498960,120
76,66,499200,120
64,56,499200,120
57,50,499440,120
60,60,499440,120
64,54,499680,120
76,65,499680,120
59,57,499920,120
55,47,499920,120
64,49,500160,120
76,63,500160,120
54,47,500400,120
57,56,500400,120
76,61,500640,120
64,51,500640,120
57,55,500880,120
53,46,500880,120
55,61,501120,120
52,51,501120,120
52,51,501360,120
55,61,501360,120
52,51,501600,120
55,61,501600,120
57,67,501840,720
53,56,501840,720
52,51,502560,120
55,61,502560,120
52,51,502800,120
55,61,502800,120
55,61,503040,120
52,51,503040,120
60,61,503280,720
69,61,503280,720
57,61,503280,720
55,61,504000,120
52,51,504000,120
52,51,504240,120
55,61,504240,120
52,51,504480,120
55,61,504480,120
72,77,504720,960
76,77,504720,960
79,77,504720,960
84,99,504720,960
52,79,506160,120
55,95,506160,120
55,95,506880,120
52,79,506880,120
52,79,507593,120
55,95,507593,120
89,84,508320,1680
101,101,508320,1680
96,84,508320,1680
93,84,508320,1680
96,70,510120,120
84,59,510120,120
93,71,510360,120
81,60,510360,120
77,61,510600,120
89,72,510600,120
84,69,510840,120
72,58,510840,120
81,70,511080,120
69,59,511080,120
65,65,511320,120
77,77,511320,120
60,62,511560,120
72,74,511560,120
57,63,511800,120
69,75,511800,120
65,83,512040,120
53,70,512040,120
48,65,512280,120
60,77,512280,120
50,66,512520,120
62,78,512520,120
48,68,512640,120
55,68,512640,120
60,80,512640,120
52,68,512640,120
55,68,514080,120
52,68,514080,120
60,80,514080,120
48,68,514080,120
52,68,515520,120
55,68,515520,120
60,80,515520,120
48,68,515520,120
40,61,0,240
28,51,0,240
52,47,720,2380
59,47,720,720
62,56,720,720
60,56,1440,720
57,47,1440,720
57,56,2160,720
54,47,2160,720
59,56,2880,120
55,47,2880,120
55,52,3120,120
52,44,3120,120
57,56,3360,120
54,47,3360,120
51,42,3600,120
54,50,3600,120
52,47,3840,120
55,56,3840,120
52,52,4080,120
49,44,4080,120
51,47,4320,120
54,56,4320,120
59,68,5040,960
47,55,5040,960
49,49,6000,120
51,50,6240,120
52,52,6480,120
54,53,6720,120
55,54,6960,120
51,47,7200,120
54,56,7200,120
47,55,7920,960
59,68,7920,960
49,49,8880,120
51,50,9120,120
52,52,9360,120
54,53,9600,120
55,54,9840,120
54,47,10080,120
57,56,10080,120
50,55,10800,480
62,68,10800,480
31,51,11520,240
43,61,11520,240
69,56,12240,720
65,47,12240,720
55,47,12240,2380
64,47,12960,720
67,56,12960,720
60,47,13680,720
64,56,13680,720
65,56,14400,120
62,47,14400,120
59,44,14640,120
62,52,14640,120
60,47,14880,120
64,56,14880,120
60,50,15120,120
57,42,15120,120
59,47,15360,120
62,56,15360,120
59,52,15600,120
55,44,15600,120
57,47,15840,120
60,56,15840,120
60,53,16320,120
57,44,16320,120
57,68,16560,720
53,55,16560,720
40,40,17280,480
52,46,17280,480
55,34,18000,480
60,39,18000,480
52,34,18000,480
50,46,18720,480
38,40,18720,480
50,34,19440,480
53,34,19440,480
57,34,19440,480
60,39,19440,480
48,46,20160,480
36,40,20160,480
48,38,20880,480
52,38,20880,480
60,44,20880,480
57,38,20880,480
47,57,21600,480
35,50,21600,480
59,40,22320,480
54,40,22320,480
63,46,22320,480
28,51,23040,240
40,61,23040,240
62,56,23760,720
59,47,23760,720
52,47,23760,2380
57,47,24480,720
60,56,24480,720
57,56,25200,720
54,47,25200,720
59,56,25920,120
55,47,25920,120
52,44,26160,120
55,52,26160,120
54,47,26400,120
57,56,26400,120
54,50,26640,120
51,42,26640,120
55,56,26880,120
52,47,26880,120
49,44,27120,120
52,52,27120,120
54,56,27360,120
51,47,27360,120
47,55,28080,960
59,68,28080,960
49,49,29040,120
51,50,29280,120
52,52,29520,120
54,53,29760,120
55,54,30000,120
54,56,30240,120
51,47,30240,120
47,55,30960,960
59,68,30960,960
49,49,31920,120
51,50,32160,120
52,52,32400,120
54,53,32640,120
55,54,32880,120
54,47,33120,120
57,56,33120,120
62,68,33840,480
50,55,33840,480
31,51,34560,240
43,61,34560,240
55,47,35280,2380
69,56,35280,720
65,47,35280,720
64,47,36000,720
67,56,36000,720
64,56,36720,720
60,47,36720,720
62,47,37440,120
65,56,37440,120
62,52,37680,120
59,44,37680,120
60,47,37920,120
64,56,37920,120
57,42,38160,120
60,50,38160,120
59,47,38400,120
62,56,38400,120
59,52,38640,120
55,44,38640,120
57,47,38880,120
60,56,38880,120
57,44,39360,120
60,53,39360,120
53,55,39600,720
57,68,39600,720
40,40,40320,480
52,46,40320,480
55,34,41040,480
60,39,41040,480
52,34,41040,480
50,46,41760,480
38,40,41760,480
53,34,42480,480
57,34,42480,480
50,34,42480,480
60,39,42480,480
36,40,43200,480
48,46,43200,480
57,38,43920,480
52,38,43920,480
48,38,43920,480
60,44,43920,480
47,57,44640,480
35,50,44640,480
54,40,45360,480
63,46,45360,480
59,40,45360,480
24,51,46080,240
36,61,46080,240
36,44,46800,1920
46,53,46800,720
43,44,46800,720
45,53,47520,720
41,44,47520,720
41,53,48240,720
38,44,48240,720
40,44,48960,120
43,53,48960,120
37,49,49200,120
38,53,49440,120
35,47,49680,120
37,53,49920,120
33,49,50160,120
38,53,50400,120
38,64,51120,720
26,52,51120,720
39,61,51840,240
27,51,51840,240
46,44,52560,720
39,44,52560,1920
49,53,52560,720
48,53,53280,720
44,44,53280,720
44,53,54000,720
41,44,54000,720
46,53,54720,120
43,44,54720,120
40,49,54960,120
41,53,55200,120
38,47,55440,120
40,53,55680,120
36,49,55920,120
41,53,56160,120
41,64,56880,720
29,52,56880,720
42,61,57600,240
30,51,57600,240
54,50,58320,1920
61,50,58320,720
64,60,58320,720
63,60,59040,720
59,50,59040,720
59,60,59760,720
56,50,59760,720
42,36,60480,2880
55,31,61200,720
54,31,61920,720
50,31,62640,720
30,61,63360,240
42,73,63373,240
54,39,63840,950
61,48,63840,240
64,58,63840,240
63,58,64080,480
59,48,64080,480
59,58,64560,240
56,48,64560,240
54,73,64800,1440
64,48,65280,240
68,58,65280,240
66,58,65520,480
63,48,65520,480
63,58,66000,240
59,48,66000,240
42,44,66240,1440
55,31,66720,240
54,31,66960,480
50,31,67440,240
42,36,67680,1440
52,31,68160,240
50,27,68400,480
47,29,68880,240
42,33,69120,120
35,27,69360,120
42,32,69600,120
35,26,69840,120
42,31,70080,120
35,27,70320,120
42,29,70560,120
35,26,70800,120
42,31,71040,120
42,32,72000,120
35,25,72240,120
42,29,72480,120
42,32,73440,120
35,24,73680,120
42,30,73920,120
42,33,74880,120
35,27,75120,120
42,32,75360,120
42,32,76320,120
35,28,76560,120
42,34,76800,120
42,37,77760,120
35,30,78000,120
42,39,78240,120
35,45,79200,120
42,35,79440,120
35,45,79680,120
42,41,79920,120
35,51,80640,120
42,39,80880,120
35,51,81120,120
42,46,81360,120
35,64,82080,120
42,53,82320,120
35,58,82560,120
42,53,82800,120
35,51,83520,120
47,61,83520,120
54,53,83760,120
42,45,83760,120
47,60,84000,120
35,51,84000,120
54,53,84240,120
42,45,84240,120
35,52,84480,120
47,62,84480,120
42,45,84720,120
54,53,84720,120
47,62,84960,120
35,52,84960,120
59,54,85440,120
54,58,85680,120
51,54,86160,120
59,60,86400,120
47,51,86400,120
55,54,86880,120
43,45,86880,120
54,53,87120,120
42,45,87120,120
47,62,87360,120
35,52,87360,120
42,45,87600,120
54,53,87600,120
47,62,87840,120
35,52,87840,120
59,54,88320,120
54,58,88560,120
51,54,89040,120
47,51,89280,120
59,60,89280,120
43,45,89760,120
55,54,89760,120
54,53,90000,120
42,45,90000,120
47,62,90240,120
35,52,90240,120
42,45,90480,120
54,53,90480,120
47,62,90720,120
35,52,90720,120
59,54,91200,120
55,58,91440,120
52,46,91920,120
48,43,92160,120
60,52,92160,120
45,32,92640,120
57,39,92640,120
54,44,92880,120
42,37,92880,120
39,26,93360,120
51,31,93360,120
47,34,93600,120
35,29,93600,120
31,23,95040,120
43,27,95040,120
28,23,96480,720
40,27,96480,240
32,23,97200,720
33,26,97920,720
36,22,98640,720
40,26,99360,720
34,21,100080,720
35,26,100800,720
47,21,101520,720
43,26,102240,720
40,21,102960,720
35,26,103680,720
47,21,104400,720
43,26,105120,720
40,21,105840,720
42,26,106560,720
37,21,107280,720
58,18,108000,240
61,23,108000,240
54,18,108000,240
37,19,108720,720
61,20,109440,240
54,15,109440,240
58,15,109440,240
37,17,110160,2160
49,56,112560,120
37,47,112560,120
39,48,112800,120
51,57,112800,120
41,49,113040,120
53,58,113040,120
54,61,113280,120
42,51,113280,120
44,53,113520,120
56,63,113520,120
58,65,113760,120
46,55,113760,120
37,52,114240,120
49,62,114240,120
30,63,114480,120
42,75,114480,120
47,70,115200,240
35,58,115200,240
59,54,115920,2380
69,54,115920,720
73,64,115920,720
68,54,116640,720
71,64,116640,720
64,54,117360,720
68,64,117360,720
66,51,118080,120
69,61,118080,120
63,48,118320,120
66,57,118320,120
64,51,118560,120
68,61,118560,120
61,46,118800,120
64,55,118800,120
66,61,119040,120
63,51,119040,120
63,57,119280,120
59,48,119280,120
61,51,119520,120
64,61,119520,120
64,58,120000,120
61,48,120000,120
61,74,120240,720
57,60,120240,720
44,40,120960,480
56,46,120960,480
59,34,121680,480
56,34,121680,480
64,39,121680,480
42,40,122400,480
54,46,122400,480
61,34,123120,480
64,39,123120,480
54,34,123120,480
57,34,123120,480
52,46,123840,480
40,40,123840,480
64,44,124560,480
56,38,124560,480
52,38,124560,480
61,38,124560,480
47,57,125280,480
35,50,125280,480
57,40,126000,480
54,40,126000,480
59,40,126000,480
63,46,126000,480
40,73,126720,240
28,61,126720,240
52,58,127440,2160
65,58,127920,240
64,62,128160,480
60,58,128640,240
62,63,128880,480
59,58,129360,240
61,67,129600,240
52,67,129600,240
40,73,130320,240
28,61,130320,240
67,58,130800,240
52,58,131040,1440
66,62,131040,480
63,58,131520,240
64,63,131760,480
61,58,132240,240
52,67,132480,240
63,67,132480,240
40,73,133200,240
28,61,133200,240
60,49,133680,240
72,58,133680,240
71,62,133920,480
59,52,133920,480
55,49,134400,120
67,58,134400,120
57,39,134640,120
69,47,134640,120
66,53,134880,120
54,45,134880,120
55,40,135120,120
67,48,135120,120
52,67,135360,120
64,67,135360,120
66,48,135600,120
54,40,135600,120
50,49,135840,120
62,58,135840,120
64,47,136080,120
52,39,136080,120
48,45,136320,120
60,53,136320,120
50,40,136560,120
62,48,136560,120
47,67,136800,120
59,67,136800,120
48,40,137040,120
60,48,137040,120
45,51,137280,120
57,60,137280,120
47,42,137520,120
59,50,137520,120
43,49,137760,120
55,58,137760,120
57,54,138000,120
45,45,138000,120
35,62,138120,60
47,63,138180,60
71,70,138240,456
64,59,138240,456
59,59,138240,456
68,70,138240,456
64,59,138720,456
59,59,138720,456
71,70,138720,456
67,59,138720,456
71,70,139200,456
66,59,139200,456
59,59,139200,456
63,59,139200,456
62,59,139680,456
65,70,139680,456
59,59,139680,456
71,70,139680,456
61,58,140160,456
64,58,140160,456
59,58,140160,456
71,69,140160,456
59,57,140640,456
63,57,140640,456
60,57,140640,456
71,67,140640,456
62,56,141120,456
71,66,141120,456
59,56,141120,456
61,55,141600,456
71,65,141600,456
58,55,141600,456
71,64,142080,456
57,54,142080,456
60,54,142080,456
56,53,142560,456
68,63,142560,456
59,53,142560,456
55,52,143040,366
59,52,143040,366
67,62,143040,366
47,51,143430,546
54,51,143460,516
57,51,143490,486
66,60,143520,456
52,67,144000,120
40,67,144000,120
50,48,144240,120
47,40,144240,120
52,58,144480,120
40,49,144480,120
45,39,144720,120
48,47,144720,120
52,53,144960,120
40,45,144960,120
47,48,145200,120
43,40,145200,120
52,67,145440,120
40,67,145440,120
42,40,145680,120
45,48,145687,120
52,58,145920,120
40,49,145920,120
43,47,146160,120
52,53,146400,120
42,48,146640,120
38,40,146640,120
52,67,146880,120
36,39,147120,120
40,47,147120,120
40,56,147360,120
35,37,147600,120
38,45,147600,120
40,50,147840,120
36,45,148080,120
33,37,148080,120
40,62,148320,120
31,36,148560,120
35,44,148560,120
40,52,148800,120
30,34,149040,120
33,41,149040,120
40,46,149280,120
29,34,149520,120
33,41,149520,120
28,37,149760,120
40,44,149760,120
28,37,150000,120
40,44,150000,120
40,44,150240,120
28,37,150240,120
45,44,150480,720
48,52,150480,720
28,37,151200,120
40,44,151200,120
40,44,151440,120
28,37,151440,120
40,44,151680,120
28,37,151680,120
53,57,151920,720
45,48,151920,720
28,37,152640,120
40,44,152640,120
28,37,152880,120
40,44,152880,120
28,37,153120,120
40,44,153120,120
52,60,153360,960
55,60,153360,960
46,60,153360,960
60,71,153360,960
40,69,154800,120
28,57,154800,120
28,57,155520,120
40,69,155520,120
40,69,156233,120
28,57,156233,120
48,64,156960,1680
60,77,156960,1680
53,64,156960,1680
45,64,156960,1680
72,70,158640,120
60,59,158640,120
57,54,158880,120
69,64,158880,120
65,72,159120,120
53,60,159120,120
48,57,159360,120
60,68,159360,120
57,70,159600,120
45,59,159600,120
41,64,159840,120
53,77,159840,120
36,59,160080,120
48,71,160080,120
45,72,160320,120
33,60,160320,120
41,81,160560,120
29,69,160560,120
36,75,160800,120
24,63,160800,120
26,65,161040,120
38,78,161040,120
24,66,161280,120
36,78,161280,120
36,78,162720,120
24,66,162720,120
24,66,164160,120
36,78,164160,120
36,29,169920,5760
43,35,169920,5760
29,34,175680,2870
41,40,175680,2870
29,34,178560,2880
41,40,178560,2880
52,35,181440,1920
43,29,181440,2880
53,40,183360,480
54,35,183840,480
55,40,184320,470
57,36,184800,480
55,29,184800,1920
59,40,185280,480
60,37,185760,480
62,41,186240,480
64,48,186720,480
67,40,187200,1440
58,34,187200,1440
61,34,187200,1440
52,34,187200,1440
54,34,188640,960
66,40,188640,960
57,34,188640,960
62,34,188640,960
56,28,189600,480
65,33,189600,480
57,30,190080,2880
64,36,190080,960
63,32,191040,480
64,36,191520,960
67,33,192480,480
58,30,192960,2880
65,36,192960,1440
64,36,194400,950
64,33,195360,470
59,30,195840,2880
64,36,195840,960
63,32,196800,480
64,36,197280,960
67,33,198240,480
66,36,198720,1440
60,30,198720,1440
64,36,200160,1440
61,30,200160,1440
62,36,201600,960
55,45,204480,960
54,42,205440,480
55,39,205920,960
50,42,206880,480
50,42,210240,960
49,39,211200,480
50,35,211680,960
45,37,212640,480
50,38,214560,960
44,34,215520,480
50,35,217440,960
43,32,218400,480
36,29,218880,5760
43,35,218880,5760
41,40,224640,2870
29,34,224640,2870
29,34,227520,2880
41,40,227520,2880
52,35,230400,1920
43,29,230400,2880
53,40,232320,480
54,35,232800,480
55,40,233280,470
55,29,233760,1920
57,36,233760,480
59,40,234240,480
60,37,234720,480
62,41,235200,480
64,48,235680,480
52,34,236160,1440
67,40,236160,1440
58,34,236160,1440
61,34,236160,1440
54,34,237600,960
62,34,237600,960
66,40,237600,960
57,34,237600,960
65,33,238560,480
56,28,238560,480
57,30,239040,2880
64,36,239040,960
63,32,240000,480
64,36,240480,960
67,33,241440,480
65,36,241920,1440
58,30,241920,2880
64,36,243360,950
64,33,244320,470
59,30,244800,2880
64,36,244800,960
63,32,245760,480
64,36,246240,960
67,33,247200,480
66,36,247680,1440
60,30,247680,1440
61,30,249120,1440
64,36,249120,1430
62,36,250560,960
55,45,253440,960
54,42,254400,480
55,39,254880,960
50,42,255840,480
50,42,259200,960
49,39,260160,480
50,35,260640,960
45,37,261600,480
50,38,263520,960
44,34,264480,480
50,35,266400,960
43,32,267360,480
43,35,267840,5760
36,29,267840,5760
41,40,273600,2870
29,34,273600,2870
41,40,276480,2880
29,34,276480,2880
43,29,279360,2880
51,35,279360,1920
53,40,281280,480
54,35,281760,480
55,40,282240,470
57,36,282720,480
55,29,282720,1920
59,40,283200,480
60,37,283680,480
62,41,284160,480
63,48,284640,390
52,34,285030,1530
58,34,285060,1500
61,34,285090,1470
67,40,285120,1440
56,34,286560,960
61,34,286560,960
65,40,286560,960
53,34,286560,960
61,28,287520,475
55,28,287520,475
63,33,287520,475
55,34,288000,1440
63,40,288000,1440
61,34,288000,1440
65,40,289440,960
56,28,289440,960
61,28,289440,960
61,23,290400,475
58,23,290400,475
63,33,290400,475
63,37,290880,2400
58,31,290880,2400
61,31,290880,2400
56,35,293280,475
65,41,293280,475
61,35,293280,475
58,31,293760,2400
63,37,293760,2400
61,31,293760,2400
61,35,296160,475
65,41,296160,475
56,35,296160,475
58,31,296640,2310
63,37,296640,2310
61,31,296640,2310
53,35,298950,570
56,35,298980,535
61,35,299010,505
65,41,299040,475
55,31,299520,2310
63,37,299520,2310
61,31,299520,2310
53,35,301830,570
56,35,301860,535
61,35,301890,505
65,41,301920,475
63,37,302400,1440
55,31,302400,2880
61,31,302400,2880
64,37,303840,2880
62,33,305280,2880
56,33,305280,2880
65,42,306720,2880
57,38,308160,2880
63,50,308160,2880
66,57,309600,1440
51,52,311040,1440
57,65,311040,1440
45,52,311040,1440
45,62,312480,1440
36,52,312480,1400
33,67,312480,1440
31,54,313800,40
36,59,313840,40
43,63,313880,40
55,61,313920,2870
67,72,313920,1920
64,61,313920,1920
62,50,315840,480
65,59,315840,480
63,50,316320,480
66,59,316320,480
55,52,316800,1200
64,52,316800,480
67,62,316800,480
60,47,317280,480
69,56,317280,480
71,56,317760,420
62,47,317760,420
55,55,318180,540
64,55,318210,510
72,65,318240,480
65,45,318720,480
74,54,318720,480
67,45,319200,480
76,54,319200,480
29,54,319560,60
41,55,319620,60
61,59,319680,1440
58,59,319680,1440
64,70,319680,1440
53,59,319680,2400
62,59,321120,960
65,70,321120,960
57,59,321120,960
55,59,322080,480
41,61,322560,2880
55,72,322560,960
53,61,323520,480
52,68,324000,960
50,58,324960,480
43,56,325440,2880
52,67,325440,1920
53,64,327360,480
54,56,327840,480
55,64,328320,2880
57,57,328800,480
59,64,329280,480
60,59,329760,480
62,65,330240,480
64,76,330720,480
49,45,331200,960
46,45,331200,960
40,45,331200,960
52,53,331200,960
53,53,332160,960
41,45,332160,960
48,45,332160,960
51,45,333120,960
48,45,333120,960
42,45,333120,960
54,53,333120,960
43,45,334080,960
48,45,334080,960
51,45,334080,960
55,53,334080,960
48,45,335040,960
45,45,335040,960
51,45,335040,960
57,53,335040,960
50,45,336000,960
47,45,336000,960
55,45,336000,960
59,53,336000,960
52,45,336960,960
48,45,336960,960
55,45,336960,960
60,53,336960,960
55,45,337920,480
49,45,337920,480
58,45,337920,480
61,53,337920,480
53,45,338400,960
50,45,338400,960
57,45,338400,960
62,53,338400,960
57,45,339360,480
53,45,339360,480
62,45,339360,480
65,53,339360,480
60,45,339840,1440
55,45,339840,1440
64,45,339840,1440
67,53,339840,1440
31,40,341280,1440
43,47,341280,1440
43,40,342720,1440
36,40,342720,1440
48,47,342720,1440
55,40,344160,1440
58,40,344160,1440
48,40,344160,4800
60,47,344160,4800
53,40,345600,1440
57,40,345600,1440
50,40,347040,1440
53,40,347040,1440
52,47,348480,480
55,47,348480,480
40,40,348960,240
52,40,348960,240
41,40,349440,240
53,40,349440,240
46,51,349920,1440
38,51,349920,240
50,51,349920,240
40,42,350400,240
52,42,350400,240
36,42,350880,3360
48,42,350880,3360
41,47,351360,1440
45,47,351360,1440
38,43,352800,1440
41,43,352800,1440
40,42,354240,240
43,42,354240,240
40,35,354720,240
41,32,355200,240
38,38,355680,240
40,31,356160,240
36,30,356640,3840
36,30,360480,240
38,29,360960,240
35,34,361440,240
36,28,361920,240
33,27,362400,3840
33,26,366240,240
35,26,366720,240
31,30,367200,240
33,24,367680,240
29,24,368160,4800
40,47,372960,206
38,49,373166,207
36,52,373373,206
35,54,373579,206
33,57,373785,207
31,59,373992,206
29,62,374198,202
28,73,374400,240
40,73,374400,240
62,56,375120,720
59,47,375120,720
52,47,375120,2380
57,47,375840,720
60,56,375840,720
57,56,376560,720
54,47,376560,720
59,56,377280,120
55,47,377280,120
52,44,377520,120
55,52,377520,120
54,47,377760,120
57,56,377760,120
54,50,378000,120
51,42,378000,120
55,56,378240,120
52,47,378240,120
49,44,378480,120
52,52,378480,120
54,56,378720,120
51,47,378720,120
47,55,379440,960
59,68,379440,960
49,49,380400,120
51,50,380640,120
52,52,380880,120
54,53,381120,120
55,54,381360,120
54,56,381600,120
51,47,381600,120
47,55,382320,960
59,68,382320,960
49,49,383280,120
51,50,383520,120
52,52,383760,120
54,53,384000,120
55,54,384240,120
54,47,384480,120
57,56,384480,120
62,68,385200,480
50,55,385200,480
31,51,385920,240
43,61,385920,240
55,47,386640,2380
69,56,386640,720
65,47,386640,720
64,47,387360,720
67,56,387360,720
64,56,388080,720
60,47,388080,720
62,47,388800,120
65,56,388800,120
62,52,389040,120
59,44,389040,120
60,47,389280,120
64,56,389280,120
57,42,389520,120
60,50,389520,120
59,47,389760,120
62,56,389760,120
59,52,390000,120
55,44,390000,120
57,47,390240,120
60,56,390240,120
57,44,390720,120
60,53,390720,120
53,55,390960,720
57,68,390960,720
40,40,391680,480
52,46,391680,480
55,34,392400,480
60,39,392400,480
52,34,392400,480
50,46,393120,480
38,40,393120,480
53,34,393840,480
57,34,393840,480
50,34,393840,480
60,39,393840,480
36,40,394560,480
48,46,394560,480
57,38,395280,480
52,38,395280,480
48,38,395280,480
60,44,395280,480
47,57,396000,480
35,50,396000,480
54,40,396720,480
63,46,396720,480
59,40,396720,480
24,51,397440,240
36,61,397440,240
36,44,398160,1920
46,53,398160,720
43,44,398160,720
45,53,398880,720
41,44,398880,720
41,53,399600,720
38,44,399600,720
40,44,400320,120
43,53,400320,120
37,49,400560,120
38,53,400800,120
35,47,401040,120
37,53,401280,120
33,49,401520,120
38,53,401760,120
38,64,402480,720
26,52,402480,720
39,61,403200,240
27,51,403200,240
46,44,403920,720
39,44,403920,1920
49,53,403920,720
48,53,404640,720
44,44,404640,720
44,53,405360,720
41,44,405360,720
46,53,406080,120
43,44,406080,120
40,49,406320,120
41,53,406560,120
38,47,406800,120
40,53,407040,120
36,49,407280,120
41,53,407520,120
41,64,408240,720
29,52,408240,720
42,61,408960,240
30,51,408960,240
54,50,409680,1920
61,50,409680,720
64,60,409680,720
63,60,410400,720
59,50,410400,720
59,60,411120,720
56,50,411120,720
42,36,411840,2880
55,31,412560,720
54,31,413280,720
50,31,414000,720
30,61,414720,240
42,73,414733,240
54,39,415200,950
61,48,415200,240
64,58,415200,240
63,58,415440,480
59,48,415440,480
59,58,415920,240
56,48,415920,240
54,73,416160,1440
64,48,416640,240
68,58,416640,240
66,58,416880,480
63,48,416880,480
63,58,417360,240
59,48,417360,240
42,36,417600,1440
55,31,418080,240
54,31,418320,480
50,31,418800,240
42,36,419040,1440
52,31,419520,240
50,27,419760,480
47,29,420240,240
42,33,420480,120
35,27,420720,120
42,32,420960,120
35,26,421200,120
42,31,421440,120
35,27,421680,120
42,29,421920,120
35,26,422160,120
42,31,422400,120
42,32,423360,120
35,25,423600,120
42,29,423840,120
42,32,424800,120
35,24,425040,120
42,30,425280,120
42,33,426240,120
35,27,426480,120
42,32,426720,120
42,32,427680,120
35,28,427920,120
42,34,428160,120
42,37,429120,120
35,30,429360,120
42,39,429600,120
35,45,430560,120
42,35,430800,120
35,45,431040,120
42,41,431280,120
35,51,432000,120
42,39,432240,120
35,51,432480,120
42,46,432720,120
35,64,433440,120
42,53,433680,120
35,58,433920,120
42,53,434160,120
35,51,434880,120
47,61,434880,120
54,53,435120,120
42,45,435120,120
47,60,435360,120
35,51,435360,120
54,53,435600,120
42,45,435600,120
35,52,435840,120
47,62,435840,120
42,45,436080,120
54,53,436080,120
47,62,436320,120
35,52,436320,120
59,54,436800,120
54,58,437040,120
51,54,437520,120
59,60,437760,120
47,51,437760,120
55,54,438240,120
43,45,438240,120
54,53,438480,120
42,45,438480,120
47,62,438720,120
35,52,438720,120
42,45,438960,120
54,53,438960,120
47,62,439200,120
35,52,439200,120
59,54,439680,120
54,58,439920,120
51,54,440400,120
47,51,440640,120
59,60,440640,120
43,45,441120,120
55,54,441120,120
54,53,441360,120
42,45,441360,120
47,62,441600,120
35,52,441600,120
42,45,441840,120
54,53,441840,120
47,62,442080,120
35,52,442080,120
59,54,442560,120
55,58,442800,120
52,46,443280,120
48,43,443520,120
60,52,443520,120
45,32,444000,120
57,39,444000,120
54,44,444240,120
42,37,444240,120
39,26,444720,120
51,31,444720,120
47,34,444960,120
35,29,444960,120
31,23,446400,120
43,27,446400,120
28,23,447840,720
40,27,447840,240
32,23,448560,720
33,26,449280,720
36,22,450000,720
40,26,450720,720
34,21,451440,720
35,26,452160,720
47,21,452880,720
43,26,453600,720
40,21,454320,720
35,26,455040,720
47,21,455760,720
43,26,456480,720
40,21,457200,720
42,26,457920,720
37,21,458640,720
58,18,459360,240
61,23,459360,240
54,18,459360,240
37,19,460080,720
61,20,460800,240
54,15,460800,240
58,15,460800,240
37,17,461520,2160
49,56,463920,120
37,47,463920,120
39,48,464160,120
51,57,464160,120
41,49,464400,120
53,58,464400,120
54,61,464640,120
42,51,464640,120
44,53,464880,120
56,63,464880,120
58,65,465120,120
46,55,465120,120
37,52,465600,120
49,62,465600,120
30,63,465840,120
42,75,465840,120
47,70,466560,240
35,58,466560,240
59,54,467280,2380
69,54,467280,720
73,64,467280,720
68,54,468000,720
71,64,468000,720
64,54,468720,720
68,64,468720,720
66,51,469440,120
69,61,469440,120
63,48,469680,120
66,57,469680,120
64,51,469920,120
68,61,469920,120
61,46,470160,120
64,55,470160,120
66,61,470400,120
63,51,470400,120
63,57,470640,120
59,48,470640,120
61,51,470880,120
64,61,470880,120
64,58,471360,120
61,48,471360,120
61,74,471600,720
57,60,471600,720
44,40,472320,480
56,46,472320,480
59,34,473040,480
56,34,473040,480
64,39,473040,480
42,40,473760,480
54,46,473760,480
61,34,474480,480
64,39,474480,480
54,34,474480,480
57,34,474480,480
52,46,475200,480
40,40,475200,480
64,44,475920,480
56,38,475920,480
52,38,475920,480
61,38,475920,480
47,57,476640,480
35,50,476640,480
57,40,477360,480
54,40,477360,480
59,40,477360,480
63,46,477360,480
40,73,478080,240
28,61,478080,240
52,58,478800,2160
65,58,479280,240
64,62,479520,480
60,58,480000,240
62,63,480240,480
59,58,480720,240
61,67,480960,240
52,67,480960,240
40,73,481680,240
28,61,481680,240
67,58,482160,240
52,58,482400,1440
66,62,482400,480
63,58,482880,240
64,63,483120,480
61,58,483600,240
52,67,483840,240
63,67,483840,240
40,73,484560,240
28,61,484560,240
60,49,485040,240
72,58,485040,240
71,62,485280,480
59,52,485280,480
55,49,485760,120
67,58,485760,120
57,39,486000,120
69,47,486000,120
66,53,486240,120
54,45,486240,120
55,40,486480,120
67,48,486480,120
52,67,486720,120
64,67,486720,120
66,48,486960,120
54,40,486960,120
50,49,487200,120
62,58,487200,120
64,47,487440,120
52,39,487440,120
48,45,487680,120
60,53,487680,120
50,40,487920,120
62,48,487920,120
47,67,488160,120
59,67,488160,120
48,40,488400,120
60,48,488400,120
45,51,488640,120
57,60,488640,120
47,42,488880,120
59,50,488880,120
43,49,489120,120
55,58,489120,120
57,54,489360,120
45,45,489360,120
35,62,489480,60
47,63,489540,60
71,70,489600,456
64,59,489600,456
59,59,489600,456
68,70,489600,456
64,59,490080,456
59,59,490080,456
71,70,490080,456
67,59,490080,456
71,70,490560,456
66,59,490560,456
59,59,490560,456
63,59,490560,456
62,59,491040,456
65,70,491040,456
59,59,491040,456
71,70,491040,456
61,58,491520,456
64,58,491520,456
59,58,491520,456
71,69,491520,456
59,57,492000,456
63,57,492000,456
60,57,492000,456
71,67,492000,456
62,56,492480,456
71,66,492480,456
59,56,492480,456
61,55,492960,456
71,65,492960,456
58,55,492960,456
71,64,493440,456
57,54,493440,456
60,54,493440,456
56,53,493920,456
68,63,493920,456
59,53,493920,456
55,52,494400,366
59,52,494400,366
67,62,494400,366
47,51,494790,546
54,51,494820,516
57,51,494850,486
66,60,494880,456
52,67,495360,120
40,67,495360,120
50,48,495600,120
47,40,495600,120
52,58,495840,120
40,49,495840,120
45,39,496080,120
48,47,496080,120
52,53,496320,120
40,45,496320,120
47,48,496560,120
43,40,496560,120
52,67,496800,120
40,67,496800,120
42,40,497040,120
45,48,497047,120
52,58,497280,120
40,49,497280,120
43,47,497520,120
52,53,497760,120
42,48,498000,120
38,40,498000,120
52,67,498240,120
36,39,498480,120
40,47,498480,120
40,56,498720,120
35,37,498960,120
38,45,498960,120
40,50,499200,120
36,45,499440,120
33,37,499440,120
40,62,499680,120
31,36,499920,120
35,44,499920,120
40,52,500160,120
30,34,500400,120
33,41,500400,120
40,46,500640,120
29,34,500880,120
33,41,500880,120
28,37,501120,120
40,44,501120,120
28,37,501360,120
40,44,501360,120
40,44,501600,120
28,37,501600,120
45,44,501840,720
48,52,501840,720
28,37,502560,120
40,44,502560,120
40,44,502800,120
28,37,502800,120
40,44,503040,120
28,37,503040,120
53,57,503280,720
45,48,503280,720
28,37,504000,120
40,44,504000,120
28,37,504240,120
40,44,504240,120
28,37,504480,120
40,44,504480,120
52,60,504720,960
55,60,504720,960
46,60,504720,960
60,71,504720,960
40,69,506160,120
28,57,506160,120
28,57,506880,120
40,69,506880,120
40,69,507593,120
28,57,507593,120
48,64,508320,1680
60,77,508320,1680
53,64,508320,1680
45,64,508320,1680
72,70,510000,120
60,59,510000,120
57,54,510240,120
69,64,510240,120
65,72,510480,120
53,60,510480,120
48,57,510720,120
60,68,510720,120
57,70,510960,120
45,59,510960,120
41,64,511200,120
53,77,511200,120
36,59,511440,120
48,71,511440,120
45,72,511680,120
33,60,511680,120
41,81,511920,120
29,69,511920,120
36,75,512160,120
24,63,512160,120
26,65,512400,120
38,78,512400,120
24,66,512640,120
36,78,512640,120
36,78,514080,120
24,66,514080,120
24,66,515520,120
36,78,515520,120
