note,velocity,position,duration
55,34,2880,456
60,40,2880,456
60,31,3360,456
67,37,3360,456
60,34,3840,240
63,40,3840,240
59,31,4080,180
62,37,4080,180
63,34,4260,60
55,34,4320,220
60,40,4320,220
55,34,6720,456
60,40,6720,456
60,31,7200,456
67,37,7200,456
60,34,7680,240
63,40,7680,240
59,31,7920,180
62,37,7920,180
63,34,8100,60
55,34,8160,470
60,40,8160,470
55,34,8640,220
60,40,8640,220
55,31,8880,110
59,37,8880,110
55,34,9000,110
60,34,9000,110
55,34,9120,470
62,40,9120,470
55,34,9600,220
60,40,9600,220
55,31,9840,110
59,37,9840,110
55,34,9960,110
60,34,9960,110
59,34,10080,470
62,40,10080,470
55,34,10560,465
60,40,10560,465
58,35,11040,228
67,42,11040,228
58,37,11280,228
67,44,11280,228
60,37,11520,240
63,44,11520,240
59,31,11760,180
62,37,11760,180
63,34,11940,60
55,34,12000,304
60,40,12000,470
55,31,12240,64
55,31,12320,64
55,26,12400,64
55,37,12480,1920
60,37,12600,120
62,37,12840,120
63,37,13080,120
60,39,13320,120
59,33,13560,120
60,32,13800,120
62,28,14040,360
55,34,14400,456
60,40,14400,456
60,31,14880,456
67,37,14880,456
60,34,15360,240
63,40,15360,240
59,31,15600,180
62,37,15600,180
63,34,15780,60
60,40,15840,1200
67,31,17040,64
67,31,17120,64
67,26,17200,64
67,37,17280,1440
60,28,17360,64
72,33,17360,64
60,28,17440,64
72,33,17440,64
62,27,17600,64
74,32,17600,64
62,27,17680,64
74,32,17680,64
63,28,17840,64
75,34,17840,64
63,28,17920,64
75,34,17920,64
60,28,18080,64
72,33,18080,64
60,28,18160,64
72,33,18160,64
59,31,18320,64
71,37,18320,64
59,32,18400,64
71,38,18400,64
62,42,18560,64
74,49,18560,64
62,42,18640,64
74,50,18640,64
68,56,18840,360
80,65,18840,360
68,38,19200,451
73,45,19200,451
68,39,19680,475
72,39,19680,475
75,39,19680,451
80,47,19680,451
68,28,20160,240
73,28,20160,240
80,40,20160,240
65,26,20400,180
71,26,20400,180
74,37,20400,180
75,34,20573,60
63,34,20640,480
72,40,20640,480
55,30,21240,60
60,30,21240,60
55,34,21360,60
59,34,21360,60
55,30,21480,60
60,30,21480,60
55,33,21720,60
59,33,21720,60
62,33,21720,60
67,60,21840,960
60,31,22160,64
72,37,22160,64
60,32,22240,64
72,38,22240,64
59,45,22400,64
71,53,22400,64
60,47,22480,64
72,56,22480,64
62,57,22680,60
74,65,22680,60
68,56,22800,720
80,65,22800,720
73,48,23040,460
69,51,23520,340
72,51,23520,340
75,51,23520,340
81,61,23520,340
69,35,23880,100
72,35,23880,100
75,35,23880,100
81,42,23880,100
72,30,24000,120
75,30,24000,120
79,36,24000,120
59,31,24240,180
62,37,24240,180
63,34,24420,60
60,40,24480,1200
79,40,25680,80
91,49,25760,80
89,43,25840,50
87,51,25920,80
86,43,26000,80
84,43,26080,80
83,50,26160,80
84,40,26240,80
86,40,26320,80
84,49,26400,20
86,45,26420,20
84,51,26440,40
79,42,26480,80
77,42,26560,80
75,47,26640,80
74,40,26720,80
72,40,26800,80
74,46,26880,80
79,38,26960,80
67,38,27040,80
66,42,27120,80
69,37,27200,80
72,37,27280,80
70,49,27360,20
72,45,27380,20
70,51,27400,40
69,36,27440,80
67,38,27520,320
69,46,27840,80
62,38,27920,80
74,38,28000,80
73,46,28080,80
76,37,28160,80
79,39,28240,80
77,49,28320,20
79,45,28340,20
77,51,28360,40
76,36,28400,80
74,38,28480,290
74,44,28800,480
70,51,28800,80
69,43,28880,80
67,43,28960,80
66,50,29040,80
67,40,29120,80
69,40,29200,80
79,42,29280,480
70,51,29280,80
69,42,29360,80
70,42,29440,80
75,47,29520,80
70,40,29600,80
67,40,29680,50
77,44,29760,240
74,51,29760,80
72,43,29840,80
70,43,29920,80
75,42,30000,240
69,50,30000,80
70,40,30080,80
69,40,30160,80
74,47,30240,480
70,49,30240,20
72,45,30260,20
70,51,30280,40
69,42,30320,80
67,42,30400,320
74,47,30720,480
70,49,30720,20
72,45,30740,20
70,51,30760,40
69,42,30800,80
67,42,30880,80
66,47,30960,80
67,42,31040,80
69,45,31120,80
79,51,31200,240
70,49,31200,80
69,43,31280,80
70,43,31360,80
77,50,31440,240
74,47,31440,80
75,41,31520,80
74,39,31600,80
75,51,31680,240
72,49,31680,20
74,45,31700,20
72,51,31720,40
71,42,31760,80
70,42,31840,80
68,47,31920,80
74,50,31920,240
67,42,32000,80
65,45,32080,80
72,47,32160,480
63,49,32160,20
65,45,32180,20
63,51,32200,40
62,42,32240,80
60,42,32320,1040
71,39,33360,240
74,39,33360,240
79,47,33360,240
77,39,33360,240
84,48,33600,228
79,40,33600,228
75,40,33600,228
72,40,33600,228
86,52,33840,228
79,44,33840,228
77,44,33840,228
74,44,33840,228
87,53,34080,228
79,45,34080,228
75,45,34080,228
84,52,34320,228
79,44,34320,228
72,44,34320,228
83,55,34560,228
79,46,34560,228
74,46,34560,228
71,46,34560,228
86,50,34800,228
84,42,34800,228
81,42,34800,228
74,42,34800,228
91,55,35040,480
86,46,35040,480
82,46,35040,480
79,46,35040,480
90,61,35520,228
86,51,35520,228
81,51,35520,228
78,51,35520,228
93,54,35760,228
91,45,35760,228
88,45,35760,228
81,45,35760,228
98,63,36000,480
93,53,36000,480
89,53,36000,480
86,53,36000,480
65,48,36480,480
74,57,36480,480
67,50,36960,480
70,50,36960,480
79,59,36960,480
77,44,37440,240
74,49,37440,20
75,45,37460,20
74,51,37480,40
72,43,37520,80
70,43,37600,80
75,42,37680,240
69,50,37680,80
70,40,37760,80
72,40,37840,80
74,47,37920,480
70,49,37920,20
72,45,37940,20
70,51,37960,40
69,42,38000,80
67,42,38080,320
65,39,38400,480
74,47,38400,480
79,51,38880,240
67,41,38880,240
77,50,39120,240
70,49,39120,20
72,45,39140,20
70,51,39160,40
69,41,39200,80
70,39,39280,80
72,49,39360,20
75,51,39360,240
74,45,39380,20
72,51,39400,40
71,42,39440,80
70,42,39520,80
74,50,39600,240
68,49,39600,20
70,45,39620,20
68,51,39640,40
67,42,39680,80
65,45,39760,80
63,49,39840,20
72,47,39840,480
65,45,39860,20
63,51,39880,40
62,42,39920,80
60,42,40000,320
56,34,40320,220
60,40,40320,220
55,31,40560,110
58,37,40560,110
56,34,40680,110
60,34,40680,110
56,34,40800,470
61,40,40800,470
56,28,41280,220
60,40,41280,220
55,39,41520,110
58,47,41520,110
56,36,41640,110
60,43,41640,110
58,49,41760,470
63,58,41760,470
56,38,42240,465
60,45,42240,465
61,42,42720,228
68,50,42720,228
62,47,42960,228
68,56,42960,228
63,46,43200,240
67,55,43200,240
59,31,43440,180
62,37,43440,180
63,34,43620,60
55,34,43680,470
60,40,43680,470
56,34,44160,220
60,40,44160,220
55,31,44400,110
58,37,44400,110
56,34,44520,110
60,34,44520,110
56,34,44647,360
61,40,44647,360
80,28,44820,45
85,28,44820,45
92,34,44820,45
82,24,44880,45
85,24,44880,45
91,29,44880,45
80,23,44940,45
85,23,44940,45
89,28,44940,45
80,28,45000,45
85,28,45000,45
89,34,45000,45
79,28,45060,45
87,30,45060,45
79,25,45120,45
85,25,45120,45
87,30,45120,45
80,28,45180,45
85,28,45180,45
92,34,45180,45
82,22,45240,45
85,22,45240,45
91,27,45240,45
80,22,45300,45
85,22,45300,45
89,27,45300,45
80,28,45360,45
85,28,45360,45
89,34,45360,45
79,30,45420,45
87,34,45420,45
79,25,45480,45
85,25,45480,45
87,30,45480,45
56,34,45720,220
60,40,45720,220
55,31,45960,110
58,37,45960,110
56,34,46080,110
60,34,46080,110
58,34,46200,360
63,40,46200,360
82,28,46380,45
87,28,46380,45
94,34,46380,45
84,24,46440,45
87,24,46440,45
93,29,46440,45
82,23,46500,45
87,23,46500,45
91,28,46500,45
82,28,46560,45
87,28,46560,45
91,34,46560,45
81,28,46620,45
89,30,46620,45
81,25,46680,45
87,25,46680,45
89,30,46680,45
82,28,46740,45
87,28,46740,45
94,34,46740,45
84,22,46800,45
87,22,46800,45
93,27,46800,45
82,22,46860,45
87,22,46860,45
91,27,46860,45
82,28,46920,45
87,28,46920,45
91,34,46920,45
81,30,46980,45
89,34,46980,45
81,25,47040,45
87,25,47040,45
89,30,47040,45
65,39,47280,480
74,47,47280,480
79,51,47760,240
67,41,47760,240
77,50,48000,240
70,49,48000,20
72,45,48020,20
70,51,48040,40
69,41,48080,80
70,39,48160,80
72,49,48240,20
75,51,48240,240
74,45,48260,20
72,51,48280,40
71,42,48320,80
70,42,48400,80
74,50,48480,240
68,49,48480,20
70,45,48500,20
68,51,48520,40
67,42,48560,80
65,45,48640,80
63,49,48720,20
72,47,48720,1200
65,45,48740,20
63,51,48760,40
62,42,48800,80
60,42,48880,1040
79,81,49920,160
65,60,50000,80
71,60,50000,80
77,63,50080,80
76,75,50160,240
67,50,50240,80
72,50,50240,80
64,50,50320,80
74,71,50400,240
67,50,50480,80
71,50,50480,80
65,50,50560,80
72,77,50640,240
67,50,50720,80
60,50,50800,80
69,72,50880,240
64,50,50960,80
60,50,51040,80
67,76,51120,160
55,50,51200,80
62,50,51200,80
65,64,51280,80
64,68,51360,240
60,50,51440,80
55,50,51520,80
62,59,51600,390
59,50,51680,80
55,50,51760,80
59,50,51840,80
55,50,51920,80
62,54,52000,80
64,65,52080,240
60,50,52160,80
55,50,52240,80
67,70,52320,240
64,50,52400,80
60,50,52480,80
65,75,52560,160
59,50,52640,80
60,50,52720,80
64,65,52720,80
62,71,52800,240
59,50,52880,80
55,50,52960,80
60,69,53040,240
55,50,53120,80
52,50,53200,80
62,74,53280,240
55,50,53360,80
59,50,53360,80
53,50,53440,80
64,76,53520,240
55,50,53600,80
60,50,53600,80
52,50,53680,80
79,81,53760,160
65,50,53840,80
71,60,53840,80
77,63,53920,80
76,75,54000,240
67,50,54080,80
72,50,54080,80
64,50,54160,80
74,71,54240,240
67,50,54320,80
71,50,54320,80
65,50,54400,80
72,77,54480,240
67,50,54560,80
60,50,54640,80
69,72,54720,240
64,50,54800,80
60,50,54880,80
67,76,54960,160
55,50,55040,80
62,50,55040,80
65,64,55120,80
64,68,55200,240
60,50,55280,80
55,50,55360,80
62,59,55440,480
59,42,55520,80
55,43,55600,80
59,50,55680,80
55,50,55760,80
59,39,55840,80
60,55,55920,480
56,34,56000,80
51,34,56080,80
56,39,56160,80
51,33,56240,80
56,33,56320,80
65,55,56400,480
58,34,56480,80
56,34,56560,80
58,39,56640,80
56,33,56720,80
58,33,56800,80
63,52,56880,240
56,42,56960,80
51,39,57040,80
61,49,57120,240
55,38,57200,80
51,38,57280,80
60,46,57360,480
55,38,57440,160
51,29,57520,80
54,40,57600,160
51,29,57680,80
54,45,57760,80
60,46,57840,240
55,38,57920,80
52,38,58000,80
59,46,58080,160
53,40,58160,80
60,46,58240,80
52,46,58240,80
62,51,58320,480
59,40,58400,80
57,40,58480,80
59,40,58560,240
72,56,58800,240
67,43,58880,80
60,44,58960,80
71,54,59040,160
62,30,59120,80
67,41,59120,80
72,50,59200,80
60,50,59200,80
74,58,59280,480
71,44,59360,80
67,44,59440,80
71,56,59520,80
67,49,59600,80
71,54,59680,80
76,66,59760,480
72,54,59840,80
67,50,59920,80
72,56,60000,80
67,58,60080,80
72,62,60160,80
81,73,60240,240
76,52,60320,80
72,52,60400,80
81,72,60480,240
74,53,60560,80
69,54,60640,80
79,72,60720,240
76,52,60800,80
72,52,60800,80
67,52,60880,80
77,70,60960,240
71,52,61040,80
67,52,61120,80
76,67,61200,480
72,54,61280,80
66,52,61360,80
67,49,61440,80
64,46,61520,80
60,44,61600,80
57,37,61760,60
60,37,61760,60
62,44,61760,60
57,36,61840,60
60,36,61840,60
62,43,61840,60
57,43,61920,60
60,43,61920,60
65,51,61920,60
57,37,62000,60
60,44,62000,60
61,37,62000,60
57,36,62080,60
60,36,62080,60
62,44,62080,60
60,43,62240,60
62,43,62240,60
69,52,62240,60
60,44,62320,60
62,44,62320,60
69,52,62320,60
60,51,62400,60
62,51,62400,60
69,61,62400,60
60,46,62480,60
62,46,62480,60
68,55,62480,60
60,47,62560,60
62,47,62560,60
69,56,62560,60
62,51,62720,60
66,51,62720,60
72,60,62720,60
62,51,62800,60
66,51,62800,60
72,60,62800,60
62,59,62880,60
66,59,62880,60
72,70,62880,60
62,52,62960,60
66,52,62960,60
71,62,62960,60
62,53,63040,60
66,53,63040,60
72,62,63040,60
72,62,63200,60
75,62,63200,60
78,74,63200,60
72,63,63280,60
75,63,63280,60
78,75,63280,60
72,71,63360,60
75,71,63360,60
78,85,63360,60
72,65,63440,60
75,65,63440,60
77,78,63440,60
72,66,63520,50
75,66,63520,50
78,79,63520,50
72,77,63600,60
76,77,63600,60
79,91,63600,60
72,68,63680,60
76,80,63680,60
67,68,63760,60
72,80,63760,60
64,76,63840,60
67,90,63840,60
60,63,63920,60
64,75,63920,60
57,63,64000,60
60,75,64000,60
55,89,64080,480
67,31,66240,228
72,31,66240,228
76,37,66240,228
65,37,66480,228
72,37,66480,228
76,44,66480,228
72,37,66720,228
76,37,66720,228
77,44,66720,228
81,44,66960,228
72,37,66960,228
76,37,66960,228
65,34,67200,228
72,34,67200,228
76,41,67200,228
65,37,67440,240
71,37,67440,240
74,44,67440,240
65,35,67680,240
71,35,67680,240
74,42,67680,240
65,31,68160,228
71,31,68160,228
74,37,68160,228
64,37,68400,228
71,37,68400,228
74,44,68400,228
71,37,68640,228
74,37,68640,228
76,44,68640,228
79,44,68880,228
71,37,68880,228
74,37,68880,228
64,34,69120,228
71,34,69120,228
74,41,69120,228
64,37,69360,240
69,37,69360,240
72,44,69360,240
64,35,69600,240
69,35,69600,240
72,42,69600,240
64,31,70080,228
69,31,70080,228
72,37,70080,228
62,31,70320,228
69,37,70320,228
72,44,70320,228
69,37,70560,228
72,37,70560,228
74,44,70560,228
77,44,70800,228
69,37,70800,228
72,37,70800,228
62,34,71040,228
69,34,71040,228
72,41,71040,228
62,37,71280,240
67,37,71280,240
71,44,71280,240
62,35,71520,240
67,35,71520,240
71,42,71520,240
55,37,72000,228
58,43,72240,960
52,31,72240,228
60,44,72240,228
53,37,72480,228
62,44,72480,228
64,44,72720,228
55,37,72720,228
52,34,72960,228
60,41,72960,228
57,51,73200,228
65,44,73200,228
57,37,73440,720
60,37,73440,228
67,44,73440,228
69,44,73680,228
65,37,73680,228
53,41,73920,228
56,43,74160,960
50,31,74160,228
59,44,74160,228
52,37,74400,228
60,44,74400,228
62,44,74640,228
53,37,74640,228
50,34,74880,228
59,41,74880,228
55,38,75120,470
52,38,75120,470
60,45,75120,470
60,39,75600,1440
58,33,75600,480
55,33,75600,480
53,32,76080,480
57,38,76080,480
53,30,76560,480
50,25,76560,480
52,21,77040,720
55,21,77040,720
60,25,77040,720
55,44,720,240
60,50,960,240
62,43,1200,240
63,43,1440,240
60,36,1680,240
59,38,1920,250
60,35,2160,250
62,35,2400,470
48,27,2880,456
51,32,2880,456
51,27,3360,456
55,32,3360,456
55,30,3840,240
43,21,4080,240
53,25,4080,240
48,25,4320,220
51,30,4320,220
55,44,4560,240
60,50,4800,240
62,43,5040,240
63,43,5280,240
60,36,5520,240
59,38,5760,250
60,35,6000,250
62,35,6240,470
48,27,6720,456
51,32,6720,456
39,27,7200,456
48,32,7200,456
43,21,7680,228
55,30,7680,233
43,21,7920,240
53,25,7920,240
36,25,8160,470
51,30,8160,470
48,28,8640,220
51,34,8640,220
50,26,8880,110
53,31,8880,110
48,24,9000,110
51,29,9000,110
47,28,9120,480
50,34,9120,470
48,28,9600,220
51,34,9600,220
50,26,9840,110
53,31,9840,110
48,24,9960,110
51,29,9960,110
43,28,10080,480
50,34,10080,470
48,28,10560,465
51,34,10560,465
39,30,11040,228
46,30,11040,228
51,36,11040,228
39,30,11280,228
46,30,11280,228
51,36,11280,228
43,23,11520,228
55,33,11520,233
43,21,11760,240
53,25,11760,240
36,25,12000,470
51,30,12000,470
43,35,12240,240
48,40,12480,240
50,34,12720,240
51,34,12960,240
48,28,13200,240
47,30,13440,250
48,28,13680,250
50,28,13920,470
48,27,14400,456
51,32,14400,456
51,27,14880,456
55,32,14880,456
55,30,15360,230
43,25,15360,230
55,27,15600,64
43,27,15600,240
53,27,15600,240
55,27,15680,64
55,23,15760,64
44,30,15840,360
54,30,15840,360
36,25,15840,1200
51,30,15840,1200
43,22,16200,840
55,28,16200,840
43,35,17040,240
55,31,17040,64
55,31,17120,64
55,26,17200,64
55,29,17280,1440
48,40,17280,240
50,34,17520,240
51,34,17760,240
48,28,18000,240
47,30,18240,250
50,45,18480,250
56,64,18720,470
53,31,19200,475
56,31,19200,475
61,31,19200,451
65,37,19200,451
54,32,19680,475
56,32,19680,475
60,32,19680,475
63,32,19680,451
66,38,19680,451
53,27,20160,240
56,27,20160,240
61,27,20160,240
65,32,20160,240
67,27,20400,64
55,22,20400,240
67,27,20480,64
67,23,20560,64
60,21,20640,480
67,30,20640,480
48,32,21120,120
51,32,21120,120
50,31,21360,60
53,31,21360,60
48,26,21480,60
51,26,21480,60
43,33,21600,120
50,33,21600,120
51,35,22080,120
48,35,22080,120
55,35,22080,120
53,37,22320,60
50,37,22320,60
55,37,22320,60
50,34,22440,60
48,34,22440,60
55,34,22440,60
47,44,22560,120
50,44,22560,120
55,44,22560,120
53,31,23040,460
56,31,23040,460
61,31,23040,460
65,37,23040,460
66,43,23520,340
63,36,23520,340
60,36,23520,340
54,36,23520,340
54,31,23880,100
60,31,23880,100
63,31,23880,100
66,37,23880,100
67,32,24000,120
63,27,24000,120
60,27,24000,120
55,27,24000,120
55,27,24240,64
43,27,24240,240
53,27,24240,240
55,27,24320,64
55,23,24400,64
44,30,24480,360
54,30,24480,360
36,25,24480,1200
51,30,24480,1200
43,24,24840,840
55,28,24840,840
31,29,25680,240
43,35,25680,240
36,34,25920,240
48,40,25920,240
38,28,26160,240
50,34,26160,240
39,28,26400,240
51,34,26400,240
36,23,26640,240
48,28,26640,240
35,25,26880,240
47,30,26880,250
38,32,27120,240
50,38,27120,250
43,36,27360,480
55,43,27360,470
42,25,27840,240
54,30,27840,250
45,32,28080,240
57,38,28080,250
50,36,28320,450
62,43,28320,450
62,45,28800,460
58,38,28800,460
51,34,29280,460
63,40,29280,460
58,34,29280,460
53,41,29760,240
62,49,29760,240
58,41,29760,240
54,36,30000,240
60,43,30000,240
58,49,30240,480
55,41,30240,480
62,46,30720,460
58,39,30720,460
51,36,31200,220
63,43,31200,220
58,36,31200,220
62,40,31440,240
58,34,31440,240
53,34,31440,240
55,39,31680,220
60,39,31680,220
63,47,31680,220
65,40,31920,220
59,34,31920,220
55,34,31920,220
48,38,32160,1200
55,45,32160,1200
55,36,33360,80
67,44,33440,80
65,38,33520,80
63,44,33600,20
65,40,33620,20
63,45,33640,40
62,38,33680,80
60,38,33760,80
59,45,33840,80
60,36,33920,80
62,36,34000,80
60,44,34080,20
62,40,34100,20
60,45,34120,40
55,37,34160,80
53,37,34240,80
51,42,34320,80
50,36,34400,80
48,36,34480,80
50,41,34560,80
43,34,34640,80
55,34,34720,80
54,37,34800,80
57,33,34880,80
60,33,34960,80
58,44,35040,20
60,40,35060,20
58,45,35080,40
57,32,35120,80
55,34,35200,320
57,41,35520,80
50,34,35600,80
62,34,35680,80
61,41,35760,80
64,33,35840,80
67,35,35920,80
65,44,36000,20
67,40,36020,20
65,45,36040,40
64,32,36080,80
62,34,36160,290
58,44,36480,20
60,40,36500,20
58,45,36520,40
57,38,36560,80
55,38,36640,80
53,45,36720,80
55,36,36800,80
57,36,36880,80
51,37,36960,480
58,45,36960,80
57,37,37040,80
58,37,37120,80
63,42,37200,80
58,36,37280,80
55,36,37360,50
50,39,37440,240
58,45,37440,80
57,38,37520,80
55,38,37600,80
54,45,37680,240
55,36,37760,80
57,36,37840,80
55,40,37920,480
57,37,38000,80
58,37,38080,320
58,44,38400,20
60,40,38420,20
58,45,38440,40
57,37,38480,80
55,37,38560,80
53,42,38640,80
55,37,38720,80
57,40,38800,80
51,45,38880,240
58,44,38880,80
57,38,38960,80
58,38,39040,80
53,45,39120,240
62,42,39120,80
60,36,39200,80
62,35,39280,80
63,40,39360,80
55,45,39360,240
62,37,39440,80
63,37,39520,80
55,45,39600,240
65,42,39600,80
62,37,39680,80
59,40,39760,80
60,45,39840,80
48,42,39840,480
55,37,39920,80
51,37,40000,320
44,28,40320,220
51,34,40320,220
46,26,40560,110
51,31,40560,110
44,24,40680,110
51,29,40680,110
41,28,40800,480
53,34,40800,470
44,33,41280,220
51,39,41280,220
46,34,41520,110
51,41,41520,110
44,33,41640,110
51,39,41640,110
43,44,41760,480
55,52,41760,470
44,32,42240,465
51,38,42240,465
41,34,42720,228
53,40,42720,228
41,38,42960,228
53,45,42960,228
48,40,43200,240
43,40,43200,228
55,48,43200,233
43,21,43440,240
53,25,43440,240
48,25,43680,470
51,30,43680,470
44,28,44160,220
51,34,44160,220
46,26,44400,110
51,31,44400,110
44,24,44520,110
51,29,44520,110
41,28,44647,360
53,34,44647,360
65,30,44820,45
73,30,44820,45
77,36,44820,45
67,25,44880,45
73,25,44880,45
75,30,44880,45
68,23,44940,45
73,28,44940,45
68,28,45000,45
73,34,45000,86
70,28,45060,45
70,23,45120,45
73,28,45120,45
65,28,45180,45
73,28,45180,45
77,34,45180,45
67,24,45240,45
73,24,45240,45
75,29,45240,45
68,28,45300,45
73,34,45300,45
68,25,45360,45
73,30,45360,86
70,30,45420,45
70,25,45480,45
73,30,45480,45
44,28,45720,220
51,34,45720,220
46,26,45960,110
51,31,45960,110
44,24,46080,110
51,29,46080,110
43,28,46200,360
55,34,46200,360
67,30,46380,45
75,30,46380,45
79,36,46380,45
69,25,46440,45
75,25,46440,45
77,30,46440,45
70,23,46500,45
75,28,46500,45
70,28,46560,45
75,34,46560,86
72,28,46620,45
72,23,46680,45
75,28,46680,45
67,28,46740,45
75,28,46740,45
79,34,46740,45
69,24,46800,45
75,24,46800,45
77,29,46800,45
70,28,46860,45
75,34,46860,45
70,25,46920,45
75,30,46920,86
72,30,46980,45
72,25,47040,45
75,30,47040,45
58,44,47280,20
60,40,47300,20
58,45,47320,40
57,37,47360,80
55,37,47440,80
53,42,47520,80
55,37,47600,80
57,40,47680,80
51,45,47760,240
58,44,47760,80
57,38,47840,80
58,38,47920,80
53,45,48000,240
62,42,48000,80
60,36,48080,80
62,35,48160,80
63,40,48240,80
55,45,48240,240
62,37,48320,80
63,37,48400,80
55,45,48480,240
65,42,48480,80
62,37,48560,80
59,40,48640,80
60,45,48720,80
48,42,48720,1200
55,37,48800,80
51,37,48880,1040
31,56,49920,240
43,56,49920,240
36,62,50160,240
48,62,50160,240
38,53,50400,240
50,53,50400,240
40,60,50640,240
52,60,50640,240
36,52,50880,240
48,52,50880,240
35,62,51120,240
47,62,51120,250
36,43,51360,240
48,43,51360,250
31,53,51600,480
43,53,51600,470
36,45,52080,480
48,53,52080,480
43,49,52560,480
55,58,52560,480
40,45,53040,240
52,53,53040,240
38,47,53280,240
50,56,53280,240
48,60,53520,240
36,51,53520,240
31,56,53760,240
43,56,53760,240
36,62,54000,240
48,62,54000,240
38,53,54240,240
50,53,54240,240
40,60,54480,240
52,60,54480,240
36,52,54720,240
48,52,54720,240
35,62,54960,240
47,62,54960,250
36,43,55200,240
48,43,55200,250
31,53,55440,480
43,53,55440,470
32,35,55920,480
44,42,55920,480
37,35,56400,480
49,42,56400,480
36,44,56880,240
48,44,56880,250
34,29,57120,240
46,29,57120,250
32,42,57360,480
44,42,57360,470
31,42,57840,480
43,42,57840,480
43,42,58320,480
50,42,58440,120
55,51,58560,120
53,48,58680,120
52,55,58800,240
43,55,58800,960
53,55,59040,120
52,49,59160,120
50,54,59280,240
55,50,59520,240
48,45,59760,480
60,54,59760,240
58,57,60000,240
53,52,60240,480
57,62,60240,240
59,55,60480,240
52,45,60720,240
60,54,60720,240
50,38,60960,240
59,45,60960,240
48,36,61200,480
60,44,61200,480
41,36,61680,480
48,36,61680,480
53,43,61680,480
42,43,62160,480
50,43,62160,480
54,51,62160,480
45,50,62640,480
50,50,62640,480
57,59,62640,480
44,66,63120,60
51,66,63120,60
56,78,63120,60
60,52,63200,60
63,52,63200,60
66,62,63200,60
60,53,63280,60
63,53,63280,60
66,63,63280,60
60,64,63360,60
63,64,63360,60
66,76,63360,60
60,56,63440,60
63,56,63440,60
65,66,63440,60
60,57,63520,50
63,57,63520,50
66,67,63520,50
43,61,63570,30
52,61,63570,30
55,68,63570,30
64,62,63600,60
67,73,63600,60
60,55,63680,60
67,65,63680,60
55,56,63760,60
64,66,63760,60
52,63,63840,60
60,75,63840,60
48,53,63920,60
55,62,63920,60
45,53,64000,60
52,62,64000,60
43,63,64080,300
53,75,64080,60
50,66,64160,60
47,66,64240,60
43,69,64320,60
41,59,64400,60
38,59,64480,60
36,40,64560,228
36,36,64800,228
36,32,65040,228
48,37,65280,228
55,37,65280,228
48,42,65520,228
59,42,65520,228
48,36,65760,228
60,36,65760,228
48,36,66000,228
64,36,66000,228
48,30,66240,228
59,30,66240,228
48,42,66480,228
57,42,66480,480
48,36,66720,228
48,36,66960,228
48,37,67200,228
57,37,67200,228
48,42,67440,228
57,42,67440,228
48,36,67680,228
59,36,67680,228
48,36,67920,228
62,36,67920,228
48,30,68160,228
57,30,68160,228
48,42,68400,228
55,42,68400,480
48,36,68640,228
48,36,68880,228
48,37,69120,228
55,37,69120,228
48,42,69360,228
55,42,69360,228
48,36,69600,228
57,36,69600,228
48,36,69840,228
60,36,69840,228
48,30,70080,228
55,30,70080,228
48,42,70320,228
53,42,70320,480
48,36,70560,228
48,36,70800,228
48,37,71040,228
53,37,71040,228
48,42,71280,228
53,42,71280,228
48,36,71520,228
57,36,71520,228
48,36,71760,228
55,36,71760,228
48,30,72000,228
53,30,72000,228
36,42,72240,228
48,42,72240,228
43,36,72480,228
36,36,72480,228
48,42,72720,228
36,36,72720,228
36,37,72960,228
43,37,72960,228
36,42,73200,228
48,42,73200,228
43,36,73440,228
36,36,73440,228
48,42,73680,228
36,36,73680,228
36,37,73920,228
43,37,73920,228
36,42,74160,228
48,42,74160,228
43,36,74400,228
36,36,74400,228
48,42,74640,228
36,36,74640,228
36,37,74880,228
43,37,74880,228
36,39,75120,228
48,39,75120,228
43,33,75360,228
36,33,75360,228
48,38,75600,228
36,32,75600,228
36,32,75840,228
43,32,75840,228
36,35,76080,228
48,35,76080,228
43,28,76320,228
36,28,76320,228
48,33,76560,228
36,28,76560,228
36,28,76800,228
43,28,76800,228
36,25,77040,720
43,25,77040,720
48,30,77040,720
87,51,25890,15
89,51,25905,15
70,51,28770,15
72,51,28785,15
74,51,29730,15
75,51,29745,15
