note,velocity,position,duration
72,67,2100,240
76,67,2130,210
84,80,2160,180
60,45,2640,120
64,54,2640,120
64,59,2880,120
60,50,2880,120
62,45,3120,120
65,53,3120,120
67,53,3360,120
64,45,3360,120
65,50,3600,120
69,59,3600,120
67,54,3840,120
64,45,3840,120
72,67,4020,240
76,67,4050,210
84,80,4080,180
64,59,4320,120
60,50,4320,120
62,45,4560,120
65,53,4560,120
67,53,4800,120
64,45,4800,120
65,50,5040,120
69,59,5040,120
64,45,5280,120
67,54,5280,120
69,53,5520,120
65,45,5520,120
71,59,5760,120
67,50,5760,120
72,54,6000,120
69,45,6000,120
74,53,6240,120
71,45,6240,120
76,67,6420,240
79,67,6440,220
84,67,6460,200
88,80,6480,180
64,45,6960,120
67,54,6960,120
67,60,7200,120
64,51,7200,120
65,46,7440,120
69,56,7440,120
71,57,7680,120
67,48,7680,120
72,65,7920,120
69,55,7920,120
71,61,8160,120
67,51,8160,120
76,78,8340,240
79,78,8360,220
84,78,8380,200
88,93,8400,180
67,54,8640,120
71,65,8640,120
72,60,8880,120
69,50,8880,120
71,51,9120,120
74,62,9120,120
76,71,9360,120
72,59,9360,120
71,56,9600,120
74,66,9600,120
72,56,9840,120
76,67,9840,120
78,77,10080,120
74,64,10080,120
79,72,10320,120
76,60,10320,120
78,61,10560,120
81,72,10560,120
91,76,10800,960
83,76,10800,960
95,90,10800,960
93,81,11760,120
81,68,11760,120
90,68,11760,120
79,68,12000,120
91,81,12000,120
88,68,12000,120
90,76,12240,960
81,76,12240,960
93,90,12240,960
88,68,13200,120
91,81,13200,120
79,68,13200,120
90,81,13440,120
87,68,13440,120
78,68,13440,120
88,76,13680,120
79,76,13680,120
91,90,13680,120
90,81,13920,120
87,68,13920,120
78,68,13920,120
85,68,14160,120
88,81,14160,120
76,68,14160,120
78,76,14400,120
87,76,14400,120
90,90,14400,120
71,68,14880,120
83,81,14880,120
83,76,15120,960
95,90,15120,960
92,76,15120,960
81,68,16080,120
93,81,16080,120
90,68,16080,120
80,68,16320,120
92,81,16320,120
88,68,16320,120
81,76,16560,960
93,90,16560,960
90,76,16560,960
88,68,17520,120
92,81,17520,120
80,68,17520,120
90,81,17760,120
78,68,17760,120
87,68,17760,120
88,76,18000,120
80,76,18000,120
92,90,18000,120
87,68,18240,120
78,68,18240,120
90,81,18240,120
76,68,18480,120
88,81,18480,120
85,68,18480,120
78,76,18720,120
90,90,18720,120
87,76,18720,120
71,68,19200,120
83,81,19200,120
83,82,19440,120
92,97,19440,120
95,97,19440,120
88,77,19920,480
92,91,19920,480
80,77,19920,480
88,77,20400,720
93,91,20400,720
81,77,20400,720
88,75,21120,360
90,89,21120,360
78,75,21120,360
88,67,21480,110
80,67,21480,110
92,79,21480,110
92,88,21600,120
88,74,21600,120
80,74,21600,120
76,69,22080,480
68,69,22080,480
80,81,22080,480
81,81,22560,720
76,69,22560,720
69,69,22560,720
66,67,23280,350
76,67,23280,350
78,80,23280,350
76,60,23640,110
80,71,23640,110
68,60,23640,110
76,66,23760,120
68,66,23760,120
80,79,23760,120
76,67,24180,240
80,67,24210,210
88,80,24240,180
52,66,24480,120
64,79,24480,120
76,67,25620,240
80,67,25650,210
88,80,25680,180
64,79,25920,120
52,66,25920,120
64,52,28500,240
68,51,28530,210
76,61,28560,180
52,55,28800,120
68,40,30000,120
64,40,30000,120
76,48,30000,120
52,46,30240,120
72,67,32340,240
76,67,32370,210
84,80,32400,180
60,45,32880,120
64,54,32880,120
60,50,33120,120
64,59,33120,120
62,45,33360,120
65,53,33360,120
67,53,33600,120
64,45,33600,120
69,59,33840,120
65,50,33840,120
64,45,34080,120
67,54,34080,120
72,67,34260,240
76,67,34290,210
84,80,34320,180
64,59,34560,120
60,50,34560,120
65,53,34800,120
62,45,34800,120
67,53,35040,120
64,45,35040,120
65,50,35280,120
69,59,35280,120
67,54,35520,120
64,45,35520,120
65,45,35760,120
69,53,35760,120
67,50,36000,120
71,59,36000,120
69,45,36240,120
72,54,36240,120
71,45,36480,120
74,53,36480,120
76,67,36660,240
79,67,36680,220
84,67,36700,200
88,80,36720,180
64,45,37200,120
67,54,37200,120
64,51,37440,120
67,60,37440,120
69,56,37680,120
65,46,37680,120
67,48,37920,120
71,57,37920,120
72,65,38160,120
69,55,38160,120
67,51,38400,120
71,61,38400,120
76,78,38580,240
79,78,38600,220
84,78,38620,200
88,93,38640,180
71,65,38880,120
67,54,38880,120
69,50,39120,120
72,60,39120,120
74,62,39360,120
71,51,39360,120
72,59,39600,120
76,71,39600,120
74,66,39840,120
71,56,39840,120
76,67,40080,120
72,56,40080,120
74,64,40320,120
78,77,40320,120
79,72,40560,120
76,60,40560,120
78,61,40800,120
81,72,40800,120
83,76,41040,960
95,90,41040,960
91,76,41040,960
90,68,42000,120
81,68,42000,120
93,81,42000,120
79,68,42240,120
91,81,42240,120
88,68,42240,120
81,76,42480,960
90,76,42480,960
93,90,42480,960
91,81,43440,120
88,68,43440,120
79,68,43440,120
78,68,43680,120
87,68,43680,120
90,81,43680,120
91,90,43920,120
79,76,43920,120
88,76,43920,120
78,68,44160,120
87,68,44160,120
90,81,44160,120
88,81,44400,120
85,68,44400,120
76,68,44400,120
78,76,44640,120
87,76,44640,120
90,90,44640,120
83,81,45120,120
71,68,45120,120
83,76,45360,960
92,76,45360,960
95,90,45360,960
93,81,46320,120
90,68,46320,120
81,68,46320,120
80,68,46560,120
88,68,46560,120
92,81,46560,120
90,76,46800,960
81,76,46800,960
93,90,46800,960
80,68,47760,120
92,81,47760,120
88,68,47760,120
87,68,48000,120
78,68,48000,120
90,81,48000,120
80,76,48240,120
92,90,48240,120
88,76,48240,120
78,68,48480,120
87,68,48480,120
90,81,48480,120
88,81,48720,120
85,68,48720,120
76,68,48720,120
78,76,48960,120
87,76,48960,120
90,90,48960,120
83,81,49440,120
71,68,49440,120
83,82,49680,120
92,97,49680,120
95,97,49680,120
92,91,50160,480
88,77,50160,480
80,77,50160,480
81,77,50640,720
88,77,50640,720
93,91,50640,720
90,89,51360,360
78,75,51360,360
88,75,51360,360
88,67,51720,110
80,67,51720,110
92,79,51720,110
92,88,51840,120
88,74,51840,120
80,74,51840,120
68,69,52320,480
76,69,52320,480
80,81,52320,480
76,69,52800,720
69,69,52800,720
81,81,52800,720
66,67,53520,350
78,80,53520,350
76,67,53520,350
68,60,53880,110
76,60,53880,110
80,71,53880,110
68,66,54000,120
80,79,54000,120
76,66,54000,120
76,67,54420,240
80,67,54450,210
88,80,54480,180
64,79,54720,120
52,66,54720,120
76,67,55860,240
80,67,55890,210
88,80,55920,180
52,66,56160,120
64,79,56160,120
76,74,58080,120
69,73,58320,120
73,87,58320,120
81,87,58320,120
64,55,58560,120
61,46,58560,120
62,55,58800,120
59,46,58800,120
57,51,59040,230
61,60,59040,230
61,46,60720,120
64,55,60720,120
59,46,60960,120
62,55,60960,120
57,51,61200,120
61,60,61200,120
69,74,62400,120
65,73,62640,120
77,87,62640,120
65,46,62880,120
69,55,62880,120
64,46,63120,120
67,55,63120,120
62,51,63360,120
65,60,63360,120
62,41,63600,120
65,49,63600,120
57,41,63840,120
64,49,63840,120
62,58,64080,120
53,49,64080,120
65,46,65040,120
69,55,65040,120
64,46,65280,120
67,55,65280,120
62,51,65520,120
65,60,65520,120
65,49,65760,120
62,41,65760,120
64,49,66000,120
57,41,66000,120
53,49,66240,120
62,58,66240,120
72,74,66720,120
69,73,66960,120
81,87,66960,120
69,46,67200,120
72,55,67200,120
70,55,67440,120
67,46,67440,120
69,60,67680,120
65,51,67680,120
69,49,67920,120
65,41,67920,120
60,41,68160,120
67,49,68160,120
65,58,68400,120
57,49,68400,120
72,55,69360,120
69,46,69360,120
67,46,69600,120
70,55,69600,120
65,51,69840,120
69,60,69840,120
65,41,70080,120
69,49,70080,120
67,49,70320,120
60,41,70320,120
65,58,70560,120
57,49,70560,120
77,74,71040,120
74,73,71280,120
86,87,71280,120
70,46,71520,120
74,55,71520,120
72,55,71760,120
65,46,71760,120
62,51,72000,120
70,60,72000,120
74,64,73200,120
83,73,73440,120
71,62,73440,120
71,55,73680,120
68,46,73680,120
69,55,73920,120
66,46,73920,120
68,60,74160,120
65,51,74160,120
71,48,75360,120
68,49,75600,120
80,58,75600,120
68,51,75840,120
65,43,75840,120
67,48,76080,120
64,40,76080,120
65,45,76320,120
62,38,76320,120
71,74,77520,240
77,83,77760,120
65,71,77760,120
65,49,78240,700
65,49,78960,720
71,74,79680,240
66,71,79920,120
78,83,79920,120
66,49,80400,700
66,49,81120,720
71,74,81840,240
67,71,82080,120
74,71,82080,120
79,83,82080,120
77,71,82080,120
67,60,82560,700
71,60,82560,700
74,60,82560,700
79,71,82560,700
77,60,82560,700
71,62,83280,700
67,62,83280,700
79,74,83280,720
74,62,83280,700
77,62,83280,700
71,66,84000,150
74,66,84000,150
77,78,84000,150
79,78,84000,150
67,66,84000,150
79,76,84150,210
83,79,84180,180
89,83,84210,150
91,87,84240,120
67,60,84720,720
79,71,84720,720
77,60,84720,720
67,60,85440,120
77,60,85440,120
79,71,85440,120
67,58,85680,120
79,69,85680,120
77,58,85680,120
77,62,85920,120
69,62,85920,120
81,73,85920,120
83,77,86160,120
77,65,86160,120
71,65,86160,120
76,69,86400,120
72,69,86400,120
84,82,86400,120
60,45,86880,120
64,54,86880,120
64,59,87120,120
60,50,87120,120
65,53,87360,120
62,45,87360,120
64,45,87600,120
67,53,87600,120
65,50,87840,120
69,59,87840,120
64,45,88080,120
67,54,88080,120
72,67,88260,240
76,67,88290,210
84,80,88320,180
60,50,88560,120
64,59,88560,120
62,45,88800,120
65,53,88800,120
67,53,89040,120
64,45,89040,120
69,59,89280,120
65,50,89280,120
67,54,89520,120
64,45,89520,120
65,45,89760,120
69,53,89760,120
71,59,90000,120
67,50,90000,120
69,45,90240,120
72,54,90240,120
74,53,90480,120
71,45,90480,120
76,67,90660,240
79,67,90680,220
85,67,90700,200
88,80,90720,180
61,45,91200,120
64,54,91200,120
61,51,91440,120
64,60,91440,120
62,46,91680,120
65,56,91680,120
64,48,91920,120
67,57,91920,120
69,65,92160,120
65,55,92160,120
67,61,92400,120
64,51,92400,120
76,78,92580,240
79,78,92600,220
85,78,92620,200
88,93,92640,180
64,50,92880,120
67,59,92880,120
69,53,93120,120
65,45,93120,120
67,45,93360,120
71,53,93360,120
69,50,93600,120
73,59,93600,120
71,54,93840,120
67,45,93840,120
73,53,94080,120
69,45,94080,120
71,50,94320,120
74,59,94320,120
76,54,94560,120
73,45,94560,120
76,45,94800,120
79,53,94800,120
81,67,94980,240
84,67,95000,220
89,67,95020,200
93,80,95040,180
65,45,95520,120
69,54,95520,120
69,60,95760,120
65,51,95760,120
67,46,96000,120
70,56,96000,120
69,48,96240,120
72,57,96240,120
70,55,96480,120
74,65,96480,120
69,51,96720,120
72,61,96720,120
81,78,96900,240
84,78,96920,220
89,78,96940,200
93,93,96960,180
83,65,97200,120
79,54,97200,120
71,54,97200,120
81,50,97440,120
72,50,97440,120
84,60,97440,120
83,51,97680,120
86,62,97680,120
74,51,97680,120
84,59,97920,120
76,59,97920,120
88,71,97920,120
86,56,98160,120
77,56,98160,120
89,66,98160,120
79,56,98400,120
91,67,98400,120
83,56,98400,120
79,64,98640,120
83,64,98640,120
91,77,98640,120
83,60,98880,120
91,72,98880,120
79,60,98880,120
91,72,99120,120
79,61,99120,120
83,61,99120,120
79,76,99360,960
84,76,99360,960
91,90,99360,960
84,68,100320,120
89,81,100320,120
77,68,100320,120
76,68,100560,120
88,81,100560,120
84,68,100560,120
84,76,100800,960
89,90,100800,960
77,76,100800,960
88,81,101760,120
76,68,101760,120
84,68,101760,120
84,68,102000,120
86,81,102000,120
74,68,102000,120
84,76,102240,120
88,90,102240,120
76,76,102240,120
74,68,102480,120
86,81,102480,120
72,68,102720,120
84,81,102720,120
74,76,102960,120
86,90,102960,120
79,81,103440,120
67,68,103440,120
91,90,103680,960
84,76,103680,960
79,76,103680,960
77,68,104640,120
89,81,104640,120
84,68,104640,120
84,68,104880,120
87,81,104880,120
75,68,104880,120
89,90,105120,960
84,76,105120,960
77,76,105120,960
87,81,106080,120
84,68,106080,120
75,68,106080,120
74,68,106320,120
84,68,106320,120
86,81,106320,120
87,90,106560,120
75,76,106560,120
84,76,106560,120
86,81,106800,120
74,68,106800,120
72,68,107040,120
84,81,107040,120
74,76,107280,120
86,90,107280,120
67,68,107760,120
79,81,107760,120
91,97,108000,120
79,82,108000,120
84,97,108000,120
88,91,108480,480
76,77,108480,480
84,77,108480,480
84,77,108960,720
89,91,108960,720
77,77,108960,720
84,75,109680,360
86,89,109680,360
74,75,109680,360
84,67,110040,110
88,79,110040,110
76,67,110040,110
76,74,110160,120
88,88,110160,120
84,74,110160,120
64,69,110640,480
72,69,110640,480
76,81,110640,480
65,69,111120,720
77,81,111120,720
72,69,111120,720
72,67,111840,350
62,67,111840,350
74,80,111840,350
76,71,112200,110
64,60,112200,110
72,60,112200,110
72,66,112320,120
64,66,112320,120
76,79,112320,120
72,67,112740,240
76,67,112770,210
84,80,112800,180
60,79,113040,120
72,67,114180,240
76,67,114210,210
84,80,114240,180
60,79,114480,120
72,42,117030,270
74,42,117060,240
78,41,117090,210
84,49,117120,180
60,44,117360,120
72,39,118470,270
74,39,118500,240
78,38,118530,210
84,46,118560,180
60,37,118800,120
62,34,121440,220
67,34,121440,220
71,40,121440,220
71,48,121680,1190
67,40,121680,1190
62,40,121680,1190
64,33,122880,240
67,33,122880,240
74,39,122880,240
71,33,122880,240
64,40,123120,960
67,40,123120,960
71,40,123120,960
74,48,123120,960
76,45,124320,220
72,45,124320,220
69,45,124320,220
79,54,124320,220
69,49,124560,1920
79,58,124560,1920
72,49,124560,1920
76,49,124560,1920
67,42,126480,240
69,42,126480,240
76,50,126480,240
72,54,126720,480
67,45,126720,480
64,45,126720,480
62,39,127200,240
67,39,127200,240
71,46,127200,240
66,42,127440,480
59,42,127440,480
68,50,127440,480
60,39,127920,240
69,47,127920,240
66,39,127920,240
72,53,128160,720
64,45,128160,720
62,42,128880,480
66,50,128880,480
71,40,130080,220
62,34,130080,220
67,34,130080,220
62,40,130320,1190
67,40,130320,1190
71,48,130320,1190
71,33,131520,240
67,33,131520,240
64,33,131520,240
74,39,131520,240
64,40,131760,960
74,48,131760,960
67,40,131760,960
71,40,131760,960
73,49,132960,220
76,49,132960,220
83,59,132960,220
79,49,132960,220
76,53,133200,1920
83,63,133200,1920
79,53,133200,1920
73,53,133200,1920
81,50,135120,240
73,42,135120,240
76,42,135120,240
71,45,135360,480
73,45,135360,480
79,54,135360,480
78,46,135840,240
73,39,135840,240
69,39,135840,240
66,41,136080,240
73,41,136080,240
75,49,136080,240
73,37,136320,240
67,37,136320,240
76,44,136320,240
71,37,136560,240
79,44,136560,240
73,44,136560,240
73,43,136800,1200
69,43,136800,1200
78,51,136800,1200
67,33,138000,240
76,39,138000,240
73,39,138000,240
66,38,138240,720
69,38,138240,1200
74,45,138240,1200
76,36,139440,240
72,42,139680,480
71,32,140160,240
68,41,140400,480
69,35,140880,240
72,40,141120,1200
67,34,142320,240
65,41,142560,480
62,34,142560,720
66,35,143040,240
69,39,143760,960
79,36,143760,240
76,42,144000,480
72,32,144480,240
62,34,144720,480
68,34,144720,480
71,41,144720,480
72,35,145200,240
69,29,145200,240
62,34,145440,720
72,40,145440,1200
76,40,145440,1200
71,34,146640,240
67,28,146640,240
68,41,146880,480
65,28,146880,480
66,29,147360,240
69,35,147360,240
83,41,148080,240
72,39,148080,960
79,47,148320,480
76,34,148800,240
72,39,149520,960
83,41,149520,240
79,47,149760,480
76,34,150240,240
72,39,150960,960
81,41,150960,240
79,47,151200,480
76,34,151680,240
79,41,152400,240
69,39,152400,960
76,47,152640,480
72,34,153120,240
78,47,153840,240
72,47,153840,240
69,39,153840,240
69,45,154080,480
72,53,154080,480
76,53,154080,480
74,46,154560,240
69,39,154560,240
69,45,154800,480
72,54,154800,480
67,38,155280,240
71,45,155280,240
67,34,155520,2160
70,41,155520,2160
73,38,156480,720
76,37,157200,480
62,31,157680,1920
69,37,157680,1920
67,34,160320,220
62,34,160320,220
71,40,160320,220
62,40,160560,1190
71,48,160560,1190
67,40,160560,1190
67,33,161760,240
74,39,161760,240
71,33,161760,240
64,33,161760,240
71,40,162000,960
74,48,162000,960
67,40,162000,960
64,40,162000,960
69,45,163200,220
79,54,163200,220
76,45,163200,220
72,45,163200,220
69,49,163440,1920
72,49,163440,1920
76,49,163440,1920
79,58,163440,1920
69,42,165360,240
67,42,165360,240
76,50,165360,240
64,45,165600,480
72,54,165600,480
67,45,165600,480
67,39,166080,240
62,39,166080,240
71,46,166080,240
59,42,166320,480
68,50,166320,480
66,42,166320,480
60,39,166800,240
66,39,166800,240
69,47,166800,240
72,53,167040,720
64,45,167040,720
66,50,167760,480
62,42,167760,480
62,34,168960,220
67,34,168960,220
71,40,168960,220
67,40,169200,1190
62,40,169200,1190
71,48,169200,1190
64,33,170400,240
74,39,170400,240
71,33,170400,240
67,33,170400,240
64,40,170640,1190
67,40,170640,1190
71,40,170640,1190
74,48,170640,1190
71,39,171840,220
66,39,171840,220
74,46,171840,220
66,46,172080,1190
74,55,172080,1190
71,46,172080,1190
71,42,173280,240
78,50,173280,240
74,42,173280,240
67,42,173280,240
74,52,173520,1190
78,63,173520,1190
71,52,173520,1190
67,52,173520,1190
69,44,174720,240
78,52,174720,240
74,44,174720,240
74,55,174960,1190
69,55,174960,1190
78,66,174960,1190
71,47,176160,240
81,57,176160,240
74,47,176160,240
78,47,176160,240
71,60,176400,3360
74,60,176400,3360
81,73,176400,3360
78,60,176400,1440
77,65,177840,1920
71,46,179760,240
74,46,179760,240
80,55,179760,240
83,69,180000,720
74,55,180720,480
68,46,180720,480
69,46,181920,960
73,55,181920,960
76,69,182160,720
67,55,182880,480
78,46,184080,240
76,46,184080,240
84,55,184080,240
88,74,184320,720
78,55,185040,480
72,46,185040,480
72,39,186240,960
74,39,186240,960
77,46,186240,960
81,58,186480,720
71,43,187200,480
74,46,187200,480
67,34,188400,220
72,34,188400,220
76,40,188400,220
76,48,188640,1190
67,40,188640,1190
72,40,188640,1190
69,33,189840,240
72,33,189840,240
79,39,189840,240
76,33,189840,240
72,40,190080,1190
79,48,190080,1190
76,40,190080,1190
69,40,190080,1190
81,45,191280,220
84,54,191280,220
77,45,191280,220
74,45,191280,220
74,49,191520,1920
84,58,191520,1920
81,49,191520,1920
77,49,191520,1920
72,42,193440,240
74,42,193440,240
81,50,193440,240
77,54,193680,480
69,45,193680,480
72,45,193680,480
67,39,194160,240
72,39,194160,240
76,46,194160,240
73,50,194400,480
71,42,194400,480
64,42,194400,480
65,39,194880,240
71,39,194880,240
74,47,194880,240
77,53,195120,720
69,45,195120,720
67,42,195840,480
71,50,195840,480
76,40,197040,220
72,34,197040,220
67,34,197040,220
67,40,197280,1190
72,40,197280,1190
76,48,197280,1190
76,33,198480,240
79,39,198480,240
72,33,198480,240
69,33,198480,240
69,40,198720,960
79,48,198720,960
76,40,198720,960
72,40,198720,960
78,49,199920,220
81,49,199920,220
84,49,199920,220
88,59,199920,220
81,53,200160,1920
88,63,200160,1920
84,53,200160,1920
78,53,200160,1920
86,50,202080,240
81,42,202080,240
78,42,202080,240
76,45,202320,480
78,45,202320,480
84,54,202320,480
83,46,202800,240
74,39,202800,240
78,39,202800,240
71,41,203040,240
78,41,203040,240
80,49,203040,240
81,44,203280,240
78,37,203280,240
72,37,203280,240
76,37,203520,240
78,44,203520,240
84,44,203520,240
78,43,203760,1200
74,43,203760,1200
83,51,203760,1200
72,33,204960,240
81,39,204960,240
78,39,204960,240
66,41,205200,240
59,41,205200,240
68,49,205200,240
60,37,205440,240
69,44,205440,240
66,37,205440,240
64,37,205680,240
66,44,205680,240
72,44,205680,240
71,51,205920,1200
66,43,205920,1200
62,43,205920,1200
60,33,207120,240
66,39,207120,240
69,39,207120,240
82,67,207360,240
73,56,207360,240
80,56,207360,240
74,50,207600,240
80,50,207600,240
83,60,207600,240
86,60,207840,240
80,60,207840,240
77,50,207840,240
76,58,208080,1200
80,58,208080,1200
84,69,208080,1200
80,52,209280,240
74,44,209280,240
83,52,209280,240
61,56,209520,240
70,67,209520,240
68,56,209520,240
68,50,209760,240
62,50,209760,240
71,60,209760,240
65,50,210000,240
74,60,210000,240
68,60,210000,240
64,58,210240,1200
68,58,210240,1200
72,69,210240,1200
71,52,211440,240
68,52,211440,240
62,44,211440,240
74,58,211680,240
80,58,211680,240
83,70,211680,240
84,62,211920,240
76,52,211920,240
81,52,211920,240
81,52,212160,230
84,62,212160,230
90,62,212160,230
90,72,212400,1200
84,61,212400,1200
81,61,212400,1200
84,62,213600,230
88,62,213600,230
93,73,213600,230
88,66,213840,1200
84,66,213840,1200
93,78,213840,1200
81,55,215040,240
90,65,215040,240
84,55,215040,240
81,61,215280,480
78,61,215280,480
86,72,215280,480
76,54,215760,240
84,64,215760,240
81,54,215760,240
71,53,216000,240
78,53,216000,240
80,63,216000,240
81,55,216240,240
78,46,216240,240
72,46,216240,240
76,45,216480,240
78,54,216480,240
84,54,216480,240
83,61,216720,1200
74,51,216720,1200
78,51,216720,1200
72,34,217920,170
78,40,217920,170
81,40,217920,170
67,55,218100,240
71,54,218130,210
79,67,218160,180
59,37,218640,120
59,41,218880,120
55,35,218880,120
57,31,219120,120
60,37,219120,120
62,37,219360,120
59,31,219360,120
60,35,219600,120
64,41,219600,120
62,37,219840,120
59,31,219840,120
67,51,220020,240
71,55,220050,210
79,64,220080,180
59,41,220320,120
55,35,220320,120
57,31,220560,120
60,37,220560,120
62,37,220800,120
59,31,220800,120
60,35,221040,120
64,41,221040,120
59,31,221280,120
62,37,221280,120
67,49,221460,240
71,49,221490,210
79,64,221520,180
67,49,222180,240
71,49,222210,210
79,65,222240,180
81,64,222480,180
72,52,222480,180
69,52,222480,180
53,28,222960,120
57,38,222960,120
57,42,223200,120
53,36,223200,120
55,33,223440,120
58,40,223440,120
57,34,223680,120
60,41,223680,120
58,40,223920,120
62,47,223920,120
57,37,224160,120
60,44,224160,120
69,57,224400,180
72,57,224400,180
81,68,224400,180
53,38,224640,120
57,45,224640,120
58,42,224880,120
55,34,224880,120
60,43,225120,120
57,36,225120,120
72,60,225840,180
69,60,225840,180
81,71,225840,180
69,61,226560,180
81,73,226560,180
72,61,226560,180
71,60,226800,180
80,60,226800,180
83,73,226800,180
52,35,227280,120
56,43,227280,120
56,48,227520,120
52,41,227520,120
57,45,227760,120
54,37,227760,120
56,39,228000,120
59,46,228000,120
57,45,228240,120
60,53,228240,120
59,50,228480,120
56,42,228480,120
71,65,228660,240
80,65,228690,210
83,78,228720,180
56,51,228960,120
52,43,228960,120
57,47,229200,120
54,39,229200,120
59,49,229440,120
56,41,229440,120
71,67,230160,180
80,67,230160,180
83,80,230160,180
80,69,230880,180
83,82,230880,180
71,69,230880,180
74,63,231060,240
77,66,231080,220
81,68,231100,200
86,82,231120,180
62,46,231600,120
65,49,231600,120
62,46,231840,120
65,54,231840,120
64,42,232080,120
67,51,232080,120
69,52,232320,120
65,44,232320,120
67,51,232560,120
70,60,232560,120
69,56,232800,120
65,47,232800,120
74,73,232980,240
77,73,233000,220
81,73,233020,200
86,87,233040,180
62,48,233280,120
65,57,233280,120
64,43,233520,120
67,53,233520,120
65,46,233760,120
69,54,233760,120
74,75,234420,240
77,75,234440,220
81,75,234460,200
86,90,234480,180
74,77,235140,240
77,77,235160,220
81,77,235180,200
86,92,235200,180
77,67,235380,240
83,67,235410,210
91,80,235440,180
71,54,235920,120
67,45,235920,120
71,60,236160,120
67,51,236160,120
72,56,236400,120
69,46,236400,120
74,57,236640,120
71,48,236640,120
72,55,236880,120
76,65,236880,120
74,61,237120,120
71,51,237120,120
77,78,237300,240
83,78,237330,210
91,93,237360,180
67,50,237600,120
71,59,237600,120
72,53,237840,120
69,45,237840,120
74,53,238080,120
71,45,238080,120
76,59,238320,120
72,50,238320,120
71,45,238560,120
74,54,238560,120
76,53,238800,120
72,45,238800,120
77,59,239040,120
74,50,239040,120
76,45,239280,120
79,54,239280,120
77,45,239520,120
81,53,239520,120
79,78,239700,240
83,78,239730,210
91,93,239760,180
74,54,240240,120
71,45,240240,120
74,60,240480,120
71,51,240480,120
76,56,240720,120
72,46,240720,120
77,57,240960,120
74,48,240960,120
76,55,241200,120
79,65,241200,120
77,61,241440,120
74,51,241440,120
79,78,241620,240
83,78,241650,210
91,93,241680,180
74,54,241920,120
83,54,241920,120
86,65,241920,120
84,50,242160,120
76,50,242160,120
88,60,242160,120
89,62,242400,120
77,51,242400,120
86,51,242400,120
91,71,242640,120
88,59,242640,120
79,59,242640,120
93,66,242880,120
81,56,242880,120
89,56,242880,120
82,56,243120,120
91,56,243120,120
94,67,243120,120
94,77,243360,120
82,64,243360,120
91,64,243360,120
94,72,243600,120
82,60,243600,120
91,60,243600,120
82,61,243840,120
94,72,243840,120
91,61,243840,120
95,90,244080,960
91,76,244080,960
83,76,244080,960
81,68,245040,120
93,81,245040,120
90,68,245040,120
88,68,245280,120
91,81,245280,120
79,68,245280,120
90,76,245520,960
93,90,245520,960
81,76,245520,960
79,68,246480,120
88,68,246480,120
91,81,246480,120
78,68,246720,120
87,68,246720,120
90,81,246720,120
79,76,246960,120
91,90,246960,120
88,76,246960,120
87,68,247200,120
90,81,247200,120
78,68,247200,120
85,68,247440,120
76,68,247440,120
88,81,247440,120
90,90,247680,120
87,76,247680,120
78,76,247680,120
83,81,248160,120
71,68,248160,120
95,90,248400,960
83,76,248400,960
92,76,248400,960
90,68,249360,120
93,81,249360,120
81,68,249360,120
88,68,249600,120
80,68,249600,120
92,81,249600,120
90,76,249840,960
81,76,249840,960
93,90,249840,960
80,68,250800,120
88,68,250800,120
92,81,250800,120
90,81,251040,120
87,68,251040,120
78,68,251040,120
92,90,251280,120
80,76,251280,120
88,76,251280,120
90,81,251520,120
87,68,251520,120
78,68,251520,120
85,68,251760,120
76,68,251760,120
88,81,251760,120
87,76,252000,120
90,90,252000,120
78,76,252000,120
83,81,252480,120
71,68,252480,120
95,97,252720,120
92,97,252720,120
83,82,252720,120
80,77,253200,480
92,91,253200,480
88,77,253200,480
81,77,253680,720
93,91,253680,720
88,77,253680,720
90,89,254400,360
88,75,254400,360
78,75,254400,360
92,79,254760,110
88,67,254760,110
80,67,254760,110
80,74,254880,120
92,88,254880,120
88,74,254880,120
68,69,255360,480
80,81,255360,480
76,69,255360,480
76,69,255840,720
69,69,255840,720
81,81,255840,720
78,80,256560,350
76,67,256560,350
66,67,256560,350
68,60,256920,110
80,71,256920,110
76,60,256920,110
76,66,257040,120
80,79,257040,120
68,66,257040,120
76,77,257460,240
80,77,257490,210
88,92,257520,180
52,77,257760,120
64,90,257760,120
76,77,258900,240
80,77,258930,210
88,92,258960,180
52,77,259200,120
64,90,259200,120
64,64,261120,240
64,70,261360,720
60,59,261360,720
64,55,262080,480
69,65,262080,480
64,58,262560,240
71,69,262560,240
72,63,262800,720
76,75,262800,720
69,58,263520,480
72,69,263520,480
64,64,264000,240
64,70,264240,720
60,59,264240,720
64,55,264960,480
69,65,264960,480
64,58,265440,240
71,69,265440,240
72,63,265680,1190
76,75,265680,1190
72,58,266880,240
76,69,266880,240
67,63,267120,960
79,75,267120,960
76,63,267120,960
74,59,268080,180
77,71,268080,180
72,54,268320,180
76,64,268320,180
71,63,268560,720
74,75,268560,720
67,68,269280,470
67,69,269760,240
64,63,270000,960
76,75,270000,960
72,63,270000,960
71,59,270960,180
74,71,270960,180
69,54,271200,180
72,64,271200,180
68,63,271440,1190
71,75,271440,1190
64,64,272640,240
61,59,272880,720
64,70,272880,720
69,65,273600,480
64,55,273600,480
64,58,274080,240
71,69,274080,240
73,63,274320,720
76,75,274320,720
69,58,275040,470
73,69,275040,470
73,58,275520,240
76,69,275520,240
68,63,275760,2150
80,75,275760,960
76,63,275760,960
75,59,276720,180
78,71,276720,180
73,54,276960,180
76,64,276960,180
72,63,277200,1190
75,75,277200,1190
68,68,277920,470
75,64,278400,230
68,59,278640,705
75,70,278640,705
71,59,278640,705
68,55,279360,720
71,55,279360,720
76,65,279360,470
76,69,279840,230
76,75,280080,720
72,63,280080,720
69,63,280080,720
69,67,280800,720
72,67,280800,720
79,79,280800,470
77,75,281280,240
67,59,281520,720
72,59,281520,720
76,70,281520,720
74,55,282240,470
69,46,282240,720
74,55,282720,240
68,49,282960,1200
76,59,282960,1200
76,46,284160,240
76,57,284400,720
67,48,284400,720
72,48,284400,720
69,50,285120,720
72,50,285120,720
79,59,285120,470
77,56,285600,240
72,42,285840,720
69,42,285840,720
76,50,285840,720
65,41,286560,720
74,49,286560,470
71,41,286560,720
74,44,287040,240
64,34,287280,480
68,34,287280,480
76,41,287280,3600
60,38,288480,240
69,38,288480,240
62,35,288720,480
71,42,288720,480
64,31,289200,240
72,37,289200,240
69,38,289440,720
64,38,289440,1200
72,50,289440,720
68,33,290160,480
71,39,290160,480
72,37,290640,240
69,28,290640,230
64,28,290640,240
65,31,290880,480
69,31,290880,480
74,40,290880,480
69,37,291360,230
67,37,291360,230
76,48,291360,230
69,43,291600,1190
79,56,291600,720
71,43,291600,1190
77,49,292320,480
71,42,292800,950
69,33,292803,950
74,45,293040,480
77,47,293520,240
71,42,293760,720
69,42,293760,720
77,55,293760,720
68,49,294480,710
71,38,294960,240
68,38,295200,720
76,51,295200,480
64,38,295200,720
71,41,295680,240
64,34,295920,720
73,41,295920,720
69,34,295920,720
61,38,297120,240
69,38,297120,240
62,35,297360,480
71,42,297360,480
69,31,297840,240
64,31,297840,240
73,37,297840,240
65,43,298080,1440
69,43,298080,1440
76,51,298080,720
74,47,298800,480
77,46,299280,240
76,52,299520,480
65,44,299520,720
70,44,299520,720
74,47,300000,180
67,43,300180,300
70,43,300210,30
72,51,300240,2880
79,40,301440,240
77,49,301680,480
70,49,301680,720
67,49,301680,720
76,42,302160,230
67,46,302400,720
70,46,302400,720
76,46,302400,720
64,29,303480,360
67,38,303480,360
64,33,303840,360
67,33,303840,360
69,44,303840,360
70,45,304200,360
64,35,304200,360
67,35,304200,360
64,39,304560,1440
67,39,304560,1440
71,46,304560,1440
71,45,306000,720
67,38,306000,720
64,38,306000,720
63,48,306720,2160
69,48,306720,720
72,57,306720,720
71,51,307440,720
67,43,307440,720
66,38,308160,720
69,45,308160,720
67,53,308880,720
64,45,308880,720
76,42,309960,360
67,42,309960,360
79,50,309960,360
69,45,310320,360
81,54,310320,360
76,45,310320,360
70,48,310680,360
79,48,310680,360
76,48,310680,360
82,57,310680,360
79,51,311040,1080
76,51,311040,1080
71,51,311040,1080
83,61,311040,1080
76,52,312120,360
79,62,312120,360
79,55,312480,360
83,65,312480,360
88,69,312840,360
79,58,312840,360
93,72,313200,720
81,61,313200,720
84,61,313200,720
91,67,313920,720
83,56,313920,720
79,56,313920,720
78,56,314640,720
90,66,314640,720
81,56,314640,720
88,74,315360,720
80,62,315360,720
76,62,315360,720
88,64,317280,240
76,64,317280,240
76,59,317520,720
84,59,317520,720
88,70,317520,720
84,65,318240,480
72,55,318240,480
81,55,318240,480
71,58,318720,240
80,58,318720,240
83,69,318720,240
76,75,318960,720
72,63,318960,1200
64,63,318960,720
69,58,319680,480
81,69,319680,480
88,64,320160,240
76,55,320160,240
84,55,320160,240
76,59,320400,720
84,59,320400,720
88,70,320400,720
84,65,321120,480
81,55,321120,480
72,55,321120,480
71,58,321600,240
80,58,321600,240
83,69,321600,240
72,63,321840,1190
64,63,321840,1190
76,75,321840,1190
64,58,323040,240
76,69,323040,240
72,58,323040,240
72,59,323280,720
64,59,323280,720
76,70,323280,720
65,55,324000,480
77,65,324000,480
74,55,324000,480
67,58,324480,240
76,58,324480,240
79,69,324480,240
79,75,324720,720
71,63,324720,1200
67,63,324720,720
65,58,325440,480
77,69,325440,480
62,55,325920,240
74,64,325920,240
71,55,325920,240
60,59,326160,960
69,59,326160,960
72,70,326160,480
74,66,326640,80
72,55,326720,80
71,55,326800,80
72,70,326880,240
62,58,327120,180
71,58,327120,180
74,69,327120,180
72,58,327360,180
64,58,327360,180
76,69,327360,180
64,63,327600,720
76,75,327600,720
68,63,327600,720
76,64,328800,240
88,64,328800,240
76,59,329040,720
85,59,329040,720
88,70,329040,720
81,55,329760,480
73,55,329760,480
85,65,329760,480
71,58,330240,240
83,69,330240,240
80,58,330240,240
73,63,330480,1200
64,63,330480,720
76,75,330480,720
69,58,331200,480
81,69,331200,480
85,55,331680,240
76,55,331680,240
88,64,331680,240
80,59,331920,960
92,80,331920,960
88,68,331920,960
87,55,332880,180
78,55,332880,180
90,65,332880,180
76,58,333120,180
88,69,333120,180
85,58,333120,180
75,63,333360,1190
84,63,333360,1190
87,75,333360,1190
87,62,334560,240
75,52,334560,240
75,55,334800,720
83,54,334800,1440
87,65,334800,720
88,68,335520,470
76,57,335520,470
76,55,336000,230
88,65,336000,230
84,57,336240,1440
76,58,336240,720
88,69,336240,720
89,71,336960,470
77,60,336960,470
89,68,337440,230
77,57,337440,230
77,61,337680,720
89,73,337680,720
86,61,337680,720
93,78,338400,480
89,66,338400,480
86,66,338400,480
81,66,338400,480
91,73,338880,240
79,62,338880,240
81,62,339120,720
77,62,339120,720
84,62,339120,720
89,74,339120,720
84,66,339840,480
76,66,339840,480
82,66,339840,480
88,78,339840,480
77,62,340320,230
89,73,340320,230
77,62,340560,720
89,74,340560,720
84,62,340560,720
81,62,340560,720
72,74,341760,120
60,62,341760,120
61,69,342000,720
69,69,342000,720
73,82,342000,720
77,57,342720,120
65,48,342720,120
81,60,342960,120
69,51,342960,120
73,54,343200,120
85,64,343200,120
89,71,343440,720
85,60,343440,720
77,60,343440,720
85,57,344160,470
90,68,344160,470
78,57,344160,470
90,65,344640,240
78,55,344640,240
78,66,344880,720
90,78,344880,720
86,66,344880,720
91,71,345600,470
79,59,345600,470
86,59,345600,470
79,56,346080,230
91,66,346080,230
88,61,346320,720
91,73,346320,720
79,61,346320,720
91,66,347040,480
88,66,347040,480
95,78,347040,480
83,66,347040,480
81,62,347520,240
93,73,347520,240
79,62,347760,720
86,62,347760,720
83,62,347760,720
91,74,347760,720
86,66,348480,480
90,78,348480,480
84,66,348480,480
81,66,348480,480
78,66,348480,480
91,73,348960,230
79,62,348960,230
83,62,349200,720
86,62,349200,720
79,62,349200,720
91,74,349200,720
74,74,350400,240
62,62,350400,240
63,69,350640,960
71,69,350640,960
75,82,350640,960
79,69,351600,120
67,58,351600,120
69,62,351840,120
81,73,351840,120
74,65,352080,1190
83,77,352080,1190
71,65,352080,1190
79,65,352080,1190
62,62,353280,240
74,74,353280,240
75,82,353520,960
63,69,353520,960
71,69,353520,960
67,58,354480,120
79,69,354480,120
81,73,354720,120
69,62,354720,120
80,65,354960,1190
83,77,354960,1190
74,65,354960,1190
71,65,354960,1190
74,66,356160,240
62,66,356160,240
63,53,356400,360
71,53,356400,360
75,63,356400,360
76,56,356760,360
71,47,356760,360
64,47,356760,360
65,51,357120,1425
68,51,357120,1425
71,51,357120,1425
77,61,357120,1425
74,51,357120,1425
68,45,358560,1425
65,45,358560,1425
71,45,358560,1425
74,54,358560,1425
68,43,360000,1425
65,43,360000,1425
62,43,360000,1425
71,51,360000,1425
59,40,361440,1425
68,48,361440,1425
62,40,361440,1425
65,40,361440,1425
59,37,362880,713
62,45,362880,713
59,36,363600,2640
56,29,363600,2640
65,40,366420,240
69,40,366450,210
77,54,366480,180
53,27,366960,120
57,32,366960,120
53,30,367200,120
57,35,367200,120
58,31,367440,120
55,27,367440,120
57,27,367680,120
60,31,367680,120
58,30,367920,120
62,35,367920,120
57,27,368160,120
60,32,368160,120
65,40,368340,240
69,40,368370,210
77,52,368400,180
53,30,368640,120
57,35,368640,120
58,31,368880,120
55,27,368880,120
60,31,369120,120
57,27,369120,120
62,35,369360,120
58,30,369360,120
60,32,369600,120
57,27,369600,120
58,27,369840,120
62,31,369840,120
64,35,370080,120
60,30,370080,120
65,32,370320,120
62,27,370320,120
67,31,370560,120
64,27,370560,120
65,36,370800,710
69,43,370800,710
72,37,371520,470
69,31,371520,480
72,38,372000,240
77,45,372000,240
81,52,372240,720
77,44,372240,720
69,38,372960,720
65,32,372960,720
77,48,374400,720
81,57,374400,720
73,53,375060,240
81,57,375090,30
85,61,375120,180
57,27,375600,120
61,32,375600,120
57,30,375840,120
61,35,375840,120
59,27,376080,120
62,31,376080,120
64,31,376320,120
61,27,376320,120
62,30,376560,120
66,35,376560,120
61,27,376800,120
64,32,376800,120
69,40,377040,180
73,52,377040,180
57,30,377280,120
61,35,377280,120
59,27,377520,120
62,31,377520,120
61,27,377760,120
64,31,377760,120
62,30,378000,120
66,35,378000,120
61,27,378240,120
64,32,378240,120
66,31,378480,120
62,27,378480,120
64,30,378720,120
68,35,378720,120
69,32,378960,120
66,27,378960,120
68,27,379200,120
71,31,379200,120
61,36,379380,780
67,36,379400,760
69,36,379420,740
73,43,379440,720
78,45,380160,480
73,31,380160,480
66,31,380160,480
67,38,380640,170
73,38,380640,170
79,51,380640,170
73,44,380820,770
79,44,380840,760
81,44,380860,730
85,52,380880,710
79,32,381600,720
81,38,381600,720
69,32,381600,720
73,32,381600,720
69,48,383040,720
73,48,383040,720
81,57,383040,720
79,48,383040,720
74,46,383700,240
78,46,383720,220
81,46,383740,20
86,64,383760,180
62,27,384240,120
66,32,384240,120
66,35,384480,120
62,30,384480,120
67,31,384720,120
64,27,384720,120
66,27,384960,120
69,31,384960,120
71,35,385200,120
67,30,385200,120
69,32,385440,120
66,27,385440,120
74,50,385620,240
78,50,385650,210
86,64,385680,180
62,30,385920,120
66,35,385920,120
67,31,386160,120
64,27,386160,120
66,28,386400,120
69,32,386400,120
67,32,386640,120
71,37,386640,120
69,35,386880,120
66,29,386880,120
67,30,387120,120
71,35,387120,120
69,34,387360,120
73,40,387360,120
74,38,387600,120
71,32,387600,120
76,37,387840,120
73,32,387840,120
81,53,388080,720
77,38,388080,710
69,38,388080,720
74,44,388800,480
77,44,388800,480
86,52,388800,480
81,53,389280,230
76,53,389280,240
88,63,389280,240
81,58,389520,720
93,69,389520,720
89,58,389520,720
86,51,390240,480
77,51,390240,480
89,60,390240,480
81,48,390720,180
93,57,390720,180
89,48,390720,180
82,55,390900,240
88,55,390920,220
91,55,390940,200
96,77,390960,180
60,29,391440,120
64,35,391440,120
64,38,391680,120
60,33,391680,120
65,34,391920,120
62,29,391920,120
64,29,392160,120
67,34,392160,120
69,38,392400,120
65,33,392400,120
67,35,392640,120
64,29,392640,120
72,50,392820,240
76,50,392840,220
82,50,392860,200
84,65,392880,180
64,38,393120,120
60,33,393120,120
62,29,393360,120
65,34,393360,120
64,30,393600,120
67,35,393600,120
69,40,393840,120
65,35,393840,120
64,31,394080,120
67,38,394080,120
65,33,394320,120
69,38,394320,120
67,37,394560,120
70,44,394560,120
72,41,394800,120
69,35,394800,120
70,35,395040,120
74,40,395040,120
76,41,395220,780
82,41,395250,720
88,58,395280,720
78,48,396000,480
90,57,396000,480
82,48,396000,480
79,58,396480,180
82,58,396480,180
91,69,396480,180
88,63,396660,750
94,63,396690,720
100,75,396720,720
82,56,397440,480
88,56,397440,480
94,66,397440,480
100,62,397920,180
88,52,397920,180
94,52,397920,180
91,78,398100,240
94,78,398130,210
103,93,398160,180
70,54,398640,120
67,45,398640,120
67,51,398880,120
70,60,398880,120
69,46,399120,120
72,56,399120,120
70,48,399360,120
74,57,399360,120
72,55,399600,120
76,65,399600,120
74,61,399840,120
70,51,399840,120
79,78,400020,240
82,78,400050,210
91,93,400080,180
86,65,400320,120
82,54,400320,120
74,54,400320,120
84,50,400560,120
76,50,400560,120
88,60,400560,120
86,51,400800,120
89,62,400800,120
77,51,400800,120
88,59,401040,120
79,59,401040,120
91,71,401040,120
89,56,401280,120
81,56,401280,120
93,66,401280,120
82,56,401520,120
94,67,401520,120
91,56,401520,120
82,64,401760,120
91,64,401760,120
94,77,401760,120
91,60,402000,120
94,72,402000,120
82,60,402000,120
94,72,402240,120
82,61,402240,120
91,61,402240,120
83,76,402480,960
91,76,402480,960
95,90,402480,960
90,68,403440,120
93,81,403440,120
81,68,403440,120
79,68,403680,120
91,81,403680,120
88,68,403680,120
90,76,403920,960
93,90,403920,960
81,76,403920,960
91,81,404880,120
79,68,404880,120
88,68,404880,120
87,68,405120,120
90,81,405120,120
78,68,405120,120
88,76,405360,120
91,90,405360,120
79,76,405360,120
87,68,405600,120
78,68,405600,120
90,81,405600,120
76,68,405840,120
88,81,405840,120
85,68,405840,120
87,76,406080,120
90,90,406080,120
78,76,406080,120
71,68,406560,120
83,81,406560,120
85,76,406800,960
97,90,406800,960
93,76,406800,960
95,81,407760,120
83,68,407760,120
92,68,407760,120
81,68,408000,120
90,68,408000,120
93,81,408000,120
95,90,408240,960
92,76,408240,960
83,76,408240,960
81,68,409200,120
93,81,409200,120
90,68,409200,120
88,68,409440,120
80,68,409440,120
92,81,409440,120
93,90,409680,120
90,76,409680,120
81,76,409680,120
88,68,409920,120
80,68,409920,120
92,81,409920,120
90,81,410160,120
78,68,410160,120
87,68,410160,120
80,76,410400,120
92,90,410400,120
88,76,410400,120
76,68,410880,120
88,81,410880,120
95,97,411120,120
92,97,411120,120
88,82,411120,120
100,97,411120,120
88,77,411600,480
95,91,411600,480
83,77,411600,480
88,77,412080,720
97,91,412080,720
85,77,412080,720
88,75,412800,360
93,89,412800,360
81,75,412800,360
88,67,413160,110
83,67,413160,110
95,79,413160,110
88,74,413280,120
83,74,413280,120
95,88,413280,120
83,81,413760,480
76,69,413760,480
71,69,413760,480
76,69,414240,720
85,81,414240,720
73,69,414240,720
69,67,414960,350
76,67,414960,350
81,80,414960,350
76,60,415320,110
83,71,415320,110
71,60,415320,110
71,66,415440,120
76,66,415440,120
83,79,415440,120
76,67,415860,240
80,67,415890,210
88,80,415920,180
52,67,416160,120
64,79,416160,120
76,67,417300,240
80,67,417330,210
88,80,417360,180
64,79,417600,120
52,67,417600,120
76,74,419520,120
69,73,419760,120
73,87,419760,120
81,87,419760,120
61,46,420000,120
64,55,420000,120
59,46,420240,120
62,55,420240,120
57,51,420480,230
61,60,420480,230
61,46,422160,120
64,55,422160,120
59,46,422400,120
62,55,422400,120
61,60,422640,120
57,51,422640,120
69,74,423840,120
77,87,424080,120
65,73,424080,120
65,46,424320,120
69,55,424320,120
64,46,424560,120
67,55,424560,120
62,51,424800,120
65,60,424800,120
65,49,425040,120
62,41,425040,120
64,49,425280,120
57,41,425280,120
62,58,425520,120
53,49,425520,120
69,55,426480,120
65,46,426480,120
67,55,426720,120
64,46,426720,120
62,51,426960,120
65,60,426960,120
62,41,427200,120
65,49,427200,120
57,41,427440,120
64,49,427440,120
53,49,427680,120
62,58,427680,120
72,74,428160,120
81,87,428400,120
69,73,428400,120
69,46,428640,120
72,55,428640,120
67,46,428880,120
70,55,428880,120
65,51,429120,120
69,60,429120,120
69,49,429360,120
65,41,429360,120
60,41,429600,120
67,49,429600,120
65,58,429840,120
57,49,429840,120
69,46,430800,120
72,55,430800,120
70,55,431040,120
67,46,431040,120
65,51,431280,120
69,60,431280,120
69,49,431520,120
65,41,431520,120
60,41,431760,120
67,49,431760,120
65,58,432000,120
57,49,432000,120
77,74,432480,120
86,87,432720,120
74,73,432720,120
70,46,432960,120
74,55,432960,120
65,46,433200,120
72,55,433200,120
70,60,433440,120
62,51,433440,120
74,64,434640,120
71,62,434880,120
83,73,434880,120
68,46,435120,120
71,55,435120,120
69,55,435360,120
66,46,435360,120
65,51,435600,120
68,60,435600,120
71,48,436800,120
68,49,437040,120
80,58,437040,120
65,43,437280,120
68,51,437280,120
64,40,437520,120
67,48,437520,120
65,45,437760,120
62,38,437760,120
71,74,438960,240
77,83,439200,120
65,71,439200,120
65,49,439680,700
65,49,440400,720
71,74,441120,240
78,83,441360,120
66,71,441360,120
66,49,441840,700
66,49,442560,720
71,74,443280,240
77,71,443520,120
74,71,443520,120
79,83,443520,120
67,71,443520,120
67,60,444000,700
79,71,444000,700
74,60,444000,700
71,60,444000,700
77,60,444000,700
71,62,444720,700
67,62,444720,700
74,62,444720,700
79,74,444720,720
77,62,444720,700
71,66,445440,220
74,66,445440,220
79,78,445440,220
67,66,445440,220
77,78,445440,220
79,76,445680,120
83,79,445680,120
89,83,445680,120
91,87,445680,120
77,60,446160,720
79,71,446160,720
67,60,446160,720
67,60,446880,120
79,71,446880,120
77,60,446880,120
79,69,447120,120
77,58,447120,120
67,58,447120,120
77,62,447360,120
81,73,447360,120
69,62,447360,120
77,65,447600,120
83,77,447600,120
71,65,447600,120
72,69,447840,120
84,82,447840,120
76,69,447840,120
64,54,448320,120
60,45,448320,120
64,59,448560,120
60,50,448560,120
65,53,448800,120
62,45,448800,120
64,45,449040,120
67,53,449040,120
69,59,449280,120
65,50,449280,120
67,54,449520,120
64,45,449520,120
72,67,449700,240
76,67,449730,210
84,80,449760,180
60,50,450000,120
64,59,450000,120
62,45,450240,120
65,53,450240,120
64,45,450480,120
67,53,450480,120
65,50,450720,120
69,59,450720,120
67,54,450960,120
64,45,450960,120
69,53,451200,120
65,45,451200,120
67,50,451440,120
71,59,451440,120
69,45,451680,120
72,54,451680,120
71,45,451920,120
74,53,451920,120
76,73,452100,240
79,73,452120,220
85,73,452140,200
88,88,452160,180
61,45,452640,120
64,54,452640,120
61,51,452880,120
64,60,452880,120
65,56,453120,120
62,46,453120,120
67,57,453360,120
64,48,453360,120
69,65,453600,120
65,55,453600,120
64,51,453840,120
67,61,453840,120
76,78,454020,240
79,78,454040,220
85,78,454060,200
88,93,454080,180
67,59,454320,120
64,50,454320,120
65,45,454560,120
69,53,454560,120
67,45,454800,120
71,53,454800,120
69,50,455040,120
73,59,455040,120
71,54,455280,120
67,45,455280,120
69,45,455520,120
73,53,455520,120
74,59,455760,120
71,50,455760,120
76,54,456000,120
73,45,456000,120
79,53,456240,120
76,45,456240,120
81,73,456420,240
84,73,456440,220
89,73,456460,200
93,88,456480,180
69,54,456960,120
65,45,456960,120
65,51,457200,120
69,60,457200,120
67,46,457440,120
70,56,457440,120
69,48,457680,120
72,57,457680,120
70,55,457920,120
74,65,457920,120
72,61,458160,120
69,51,458160,120
81,78,458340,240
84,78,458360,220
89,78,458380,200
93,93,458400,180
69,54,458640,120
81,65,458640,120
70,51,458880,120
82,61,458880,120
71,53,459120,120
83,65,459120,120
72,63,459360,120
84,76,459360,120
74,62,459600,120
86,73,459600,120
76,63,459840,120
88,75,459840,120
77,74,460080,120
89,89,460080,120
91,85,460320,120
79,71,460320,120
92,87,460560,120
80,74,460560,120
84,80,460800,120
93,95,460800,120
81,80,460800,120
87,80,460800,120
72,60,462000,240
69,51,462000,240
71,57,462240,480
74,68,462240,480
72,51,462720,240
75,60,462720,240
69,51,464160,240
72,60,464160,240
71,57,464400,480
74,68,464400,480
72,51,464880,240
75,60,464880,240
72,51,465600,240
69,51,465600,240
75,60,465600,240
70,54,466200,342
76,64,466200,342
73,54,466200,342
82,73,466560,342
73,62,466560,342
76,62,466560,342
82,69,466920,342
85,82,466920,342
82,77,467280,342
88,91,467280,342
76,77,467280,342
85,86,467640,342
76,73,467640,342
82,73,467640,342
76,70,468000,710
73,70,468000,710
82,83,468000,710
70,62,468720,720
76,73,468720,720
73,62,468720,720
71,57,469440,720
75,66,469440,720
70,51,470640,240
73,60,470640,240
71,57,470880,480
75,68,470880,480
73,51,471360,240
76,60,471360,240
70,51,472800,240
73,60,472800,240
75,68,473040,480
71,57,473040,480
73,51,473520,240
76,60,473520,240
76,60,474240,240
73,51,474240,240
70,51,474240,240
71,54,474840,342
74,54,474840,342
77,64,474840,342
77,62,475200,342
74,62,475200,342
83,73,475200,342
77,69,475560,342
83,69,475560,342
86,82,475560,342
77,77,475920,342
83,77,475920,342
89,91,475920,342
86,86,476280,342
83,73,476280,342
77,73,476280,342
77,70,476640,710
74,70,476640,710
83,83,476640,710
71,62,477360,720
77,73,477360,720
74,62,477360,720
76,66,478080,240
72,57,478080,240
68,70,478800,720
64,59,478800,960
76,70,478800,960
72,59,478800,960
69,66,479520,240
68,70,480240,720
64,59,480240,960
76,70,480240,960
72,59,480240,960
69,66,480960,240
64,59,481680,960
68,70,481680,720
72,59,481680,960
76,70,481680,960
69,66,482400,240
72,59,483120,650
64,59,483120,650
76,70,483120,650
68,70,483120,650
65,49,483780,780
72,49,483810,710
77,59,483840,713
76,53,484560,713
72,45,484560,713
64,45,484560,713
69,49,485280,713
74,59,485280,713
62,49,485280,713
69,39,486000,713
72,47,486000,713
62,39,486000,713
60,39,486000,713
62,45,486720,713
59,45,486720,713
71,53,486720,713
67,45,486720,713
62,38,487440,713
69,45,487440,713
59,38,487440,713
67,53,488160,713
60,45,488160,713
64,45,488160,713
55,37,488880,713
59,37,488880,713
65,45,488880,713
64,43,489600,240
60,37,489600,240
72,59,490320,960
64,59,490320,960
68,70,490320,720
76,70,490320,960
69,66,491040,240
68,70,491760,720
76,70,491760,960
72,59,491760,960
64,59,491760,960
69,66,492480,240
76,70,493200,960
68,70,493200,720
72,59,493200,960
64,59,493200,960
69,66,493920,240
68,70,494640,650
64,59,494640,650
72,59,494640,650
76,70,494640,650
65,49,495300,780
72,49,495330,713
77,59,495360,713
64,45,496080,713
72,45,496080,713
76,53,496080,713
69,49,496800,713
74,59,496800,713
62,49,496800,713
62,39,497520,713
72,47,497520,713
69,39,497520,713
62,45,498240,713
67,45,498240,713
71,53,498240,713
81,62,498960,713
71,52,498960,713
69,52,498960,713
79,64,499680,713
72,54,499680,713
67,54,499680,713
65,46,500400,713
77,55,500400,713
71,46,500400,713
64,54,501120,720
72,54,501120,720
76,64,501120,720
70,46,501840,650
79,55,501840,650
67,46,501840,650
70,39,502500,60
79,47,502500,60
69,52,502560,288
77,62,502560,288
76,55,502920,288
67,46,502920,288
69,54,503280,288
77,64,503280,288
74,55,503640,288
65,46,503640,288
69,50,504000,288
64,50,504000,288
74,59,504000,288
72,51,504360,288
64,43,504360,288
69,43,504360,288
69,50,504720,288
64,50,504720,288
71,59,504720,288
69,54,505080,288
72,64,505080,288
64,54,505080,288
65,60,505440,1440
71,60,505440,1440
76,71,505440,1200
74,62,506640,240
64,49,506880,240
72,58,506880,240
81,70,507600,960
69,59,507600,960
73,70,507600,720
77,59,507600,960
74,66,508320,240
69,59,509040,960
73,70,509040,720
81,70,509040,960
77,59,509040,960
74,66,509760,240
69,59,510480,960
77,59,510480,960
73,70,510480,720
81,70,510480,960
74,66,511200,240
69,59,511920,650
73,70,511920,650
81,70,511920,650
77,59,511920,650
70,49,512580,780
77,51,512600,720
84,51,512620,20
82,62,512640,720
77,45,513360,720
81,53,513360,720
69,45,513360,720
79,59,514080,713
67,49,514080,713
74,49,514080,713
77,47,514800,713
74,39,514800,713
67,39,514800,713
76,53,515520,713
67,45,515520,713
72,45,515520,713
74,45,516240,713
67,38,516240,713
65,38,516240,713
72,53,516960,713
67,45,516960,713
64,45,516960,713
67,37,517680,713
64,37,517680,713
70,45,517680,713
65,37,518400,240
69,43,518400,240
81,70,519120,960
69,59,519120,960
73,70,519120,720
77,59,519120,960
74,66,519840,240
81,70,520560,960
76,59,520560,720
69,59,520560,960
77,66,521280,240
72,59,522000,960
81,59,522000,960
76,70,522000,720
84,70,522000,960
77,66,522720,240
80,59,523440,720
84,76,523440,960
72,59,523440,960
81,73,524160,240
76,70,524880,650
88,70,524880,650
84,59,524880,650
77,56,525540,780
84,52,525560,720
91,51,525580,20
89,74,525600,720
88,60,526320,713
76,51,526320,713
84,51,526320,713
81,56,527040,713
86,67,527040,713
74,56,527040,713
74,44,527760,713
81,44,527760,713
72,44,527760,713
84,54,527760,713
74,51,528480,658
79,51,528480,658
83,60,528480,658
71,51,528480,658
81,59,529140,780
83,59,529170,750
93,71,529200,720
91,73,529920,713
84,62,529920,713
79,62,529920,713
83,52,530640,713
77,52,530640,713
89,63,530640,713
88,73,531360,713
84,62,531360,713
76,62,531360,713
79,52,532080,650
82,52,532080,650
91,63,532080,650
79,42,532740,60
82,42,532740,60
91,51,532740,60
77,57,532800,288
89,68,532800,288
81,57,532800,288
88,60,533160,288
76,50,533160,288
79,50,533160,288
77,59,533520,288
81,59,533520,288
89,70,533520,288
74,50,533880,288
81,50,533880,288
86,60,533880,288
76,55,534240,288
74,55,534240,288
86,64,534240,288
81,55,534240,288
72,47,534600,288
84,56,534600,288
76,47,534600,288
81,47,534600,288
83,64,534960,288
76,55,534960,288
71,55,534960,288
81,55,534960,288
84,70,535320,288
76,59,535320,288
72,59,535320,288
81,59,535320,288
88,71,535680,1200
83,60,535680,1440
76,60,535680,1200
77,60,535680,1440
86,62,536880,240
74,52,536880,240
72,49,537120,120
79,49,537120,120
84,58,537120,120
76,49,537120,120
84,68,537840,120
88,81,537840,120
76,68,537840,120
74,67,538560,120
83,67,538560,120
86,79,538560,120
84,68,539280,120
76,68,539280,120
88,80,539280,120
74,63,540000,120
86,75,540000,120
83,63,540000,120
95,78,540720,240
83,66,540720,240
93,65,540960,240
95,65,541200,240
84,67,541440,240
96,79,541440,240
91,67,541680,240
88,67,541920,240
83,66,542160,240
95,78,542160,240
93,63,542400,240
95,63,542640,240
96,76,542880,240
84,64,542880,240
91,65,543120,240
88,65,543360,240
84,68,543600,120
76,68,543600,120
88,81,543600,120
74,67,544320,120
83,67,544320,120
86,79,544320,120
76,68,545040,120
84,68,545040,120
88,80,545040,120
83,63,545760,120
74,63,545760,120
86,75,545760,120
95,78,546480,240
83,66,546480,240
93,65,546720,240
95,65,546960,240
96,79,547200,240
84,67,547200,240
91,67,547440,240
88,67,547680,240
95,78,547920,240
83,66,547920,240
93,63,548160,240
95,63,548400,240
96,76,548640,240
84,64,548640,240
91,65,548880,240
88,65,549120,180
88,64,549360,240
100,76,549360,240
96,65,549600,240
93,65,549840,240
103,79,550080,240
91,67,550080,240
100,64,550320,240
96,64,550560,240
88,78,550800,240
100,78,550800,240
96,64,551040,240
91,64,551280,240
96,78,551520,240
84,66,551520,240
91,64,551760,240
88,64,552000,240
79,63,552240,240
91,75,552240,240
88,64,552480,240
84,64,552720,240
79,77,552960,120
88,65,553680,120
91,77,553680,120
84,65,553680,120
79,65,553680,120
86,73,555120,120
95,87,555120,120
89,73,555120,120
83,73,555120,120
84,76,555840,120
96,90,555840,120
88,76,555840,120
60,45,556320,120
64,54,556320,120
64,60,556560,240
60,51,556560,240
62,48,556800,240
65,56,556800,240
67,58,557040,240
64,49,557040,240
65,57,557280,240
69,67,557280,240
64,52,557520,240
67,62,557520,240
65,54,557760,240
69,64,557760,240
67,62,558000,240
71,73,558000,240
69,57,558240,240
72,67,558240,240
71,65,558480,240
74,77,558480,240
76,76,558720,120
88,90,558720,120
84,76,558720,120
64,45,559200,120
67,54,559200,120
67,60,559440,240
64,51,559440,240
65,48,559680,240
69,56,559680,240
71,58,559920,240
67,49,559920,240
69,57,560160,240
72,67,560160,240
67,52,560400,240
71,62,560400,240
69,54,560640,240
72,64,560640,240
71,62,560880,240
74,73,560880,240
72,57,561120,240
76,67,561120,240
74,65,561360,240
77,77,561360,240
79,76,561600,120
91,90,561600,120
88,76,561600,120
71,45,562080,120
79,45,562080,120
83,54,562080,120
71,51,562320,120
83,60,562320,120
79,51,562320,120
72,48,562560,120
81,48,562560,120
84,56,562560,120
74,49,562800,120
86,58,562800,120
83,49,562800,120
76,57,563040,120
84,57,563040,120
88,67,563040,120
74,52,563280,120
83,52,563280,120
86,62,563280,120
76,54,563520,120
84,54,563520,120
88,64,563520,120
77,62,563760,120
86,62,563760,120
89,73,563760,120
79,57,564000,120
88,57,564000,120
91,67,564000,120
81,65,564240,120
89,65,564240,120
93,77,564240,120
83,68,564480,120
91,72,564480,120
95,85,564480,120
81,72,565200,120
84,72,565200,120
89,72,565200,120
93,85,565200,120
91,85,565920,120
88,72,565920,120
84,72,565920,120
79,72,565920,120
76,72,566640,120
79,72,566640,120
83,72,566640,120
88,85,566640,120
84,85,567360,120
81,72,567360,120
76,72,567360,120
72,72,567360,120
74,72,568800,120
79,72,568800,120
83,72,568800,120
86,85,568800,120
76,76,570120,60
79,76,570120,60
84,76,570120,60
88,76,570120,60
76,72,570240,1440
79,72,570240,1440
84,72,570240,1440
88,85,570240,1440
36,60,2160,120
43,49,2400,120
48,49,2640,120
36,56,2880,120
43,44,3120,120
48,44,3360,120
36,56,3600,120
43,46,3840,120
48,46,4080,120
36,60,4320,120
43,49,4560,120
48,49,4800,120
36,56,5040,120
43,44,5280,120
48,44,5520,120
36,56,5760,120
43,46,6000,120
48,46,6240,120
36,60,6480,120
43,49,6720,120
48,49,6960,120
36,57,7200,120
43,46,7440,120
48,47,7680,120
36,62,7920,120
43,52,8160,120
48,53,8400,120
36,66,8640,120
43,55,8880,120
48,56,9120,120
36,67,9360,120
43,54,9600,120
48,55,9840,120
36,72,10080,120
43,61,10320,120
48,62,10560,120
35,73,10800,120
43,52,11040,120
47,53,11280,120
35,71,11520,120
43,56,11760,120
47,56,12000,120
35,73,12240,120
42,52,12480,120
47,53,12720,120
35,71,12960,120
42,56,13200,120
47,56,13440,120
35,71,13680,120
40,56,13920,120
47,56,14160,120
35,71,14400,120
39,56,14640,120
47,56,14880,120
28,73,15120,120
35,52,15360,120
40,53,15600,120
28,71,15840,120
35,56,16080,120
40,56,16320,120
28,73,16560,120
35,52,16800,120
40,53,17040,120
28,71,17280,120
35,56,17520,120
40,56,17760,120
28,71,18000,120
35,56,18240,120
40,56,18480,120
28,71,18720,120
35,56,18960,120
40,56,19200,120
28,71,19440,120
52,53,19920,480
56,53,19920,480
59,53,19920,480
64,63,19920,480
61,53,20400,720
52,53,20400,720
57,53,20400,720
64,63,20400,720
57,52,21120,360
64,62,21120,360
52,52,21120,360
54,52,21120,360
59,46,21480,110
52,46,21480,110
56,46,21480,110
64,55,21480,110
64,61,21600,120
52,51,21600,120
56,51,21600,120
59,51,21600,120
52,56,22080,480
40,47,22080,480
47,47,22080,480
52,56,22560,720
40,47,22560,720
49,47,22560,720
45,46,23280,350
52,55,23280,350
40,46,23280,350
40,41,23640,120
47,41,23640,120
52,49,23640,120
40,60,23760,120
47,49,24000,120
52,49,24240,120
28,56,24480,120
35,44,24720,120
40,44,24960,120
28,56,25200,120
35,46,25440,120
40,46,25680,120
28,56,25920,120
35,44,26160,120
40,44,26400,120
28,56,26640,120
35,46,26880,120
40,46,27120,120
28,56,27360,120
35,46,27600,120
40,46,27840,120
28,50,28080,120
35,36,28320,120
40,33,28560,120
28,39,28800,120
35,28,29040,120
40,27,29280,120
28,34,29520,120
35,27,29760,120
40,27,30000,120
28,30,30240,120
35,21,30480,120
40,20,30720,120
28,27,30960,120
35,20,31200,120
40,20,31440,120
28,26,31680,120
36,60,32400,120
43,49,32640,120
48,49,32880,120
36,56,33120,120
43,44,33360,120
48,44,33600,120
36,56,33840,120
43,46,34080,120
48,46,34320,120
36,60,34560,120
43,49,34800,120
48,49,35040,120
36,56,35280,120
43,44,35520,120
48,44,35760,120
36,56,36000,120
43,46,36240,120
48,46,36480,120
36,60,36720,120
43,49,36960,120
48,49,37200,120
36,57,37440,120
43,46,37680,120
48,47,37920,120
36,62,38160,120
43,52,38400,120
48,53,38640,120
36,66,38880,120
43,55,39120,120
48,56,39360,120
36,67,39600,120
43,54,39840,120
48,55,40080,120
36,72,40320,120
43,61,40560,120
48,62,40800,120
35,73,41040,120
43,52,41280,120
47,53,41520,120
35,71,41760,120
43,56,42000,120
47,56,42240,120
35,73,42480,120
42,52,42720,120
47,53,42960,120
35,71,43200,120
42,56,43440,120
47,56,43680,120
35,71,43920,120
40,56,44160,120
47,56,44400,120
35,71,44640,120
39,56,44880,120
47,56,45120,120
28,73,45360,120
35,52,45600,120
40,53,45840,120
28,71,46080,120
35,56,46320,120
40,56,46560,120
28,73,46800,120
35,52,47040,120
40,53,47280,120
28,71,47520,120
35,56,47760,120
40,56,48000,120
28,71,48240,120
35,56,48480,120
40,56,48720,120
28,71,48960,120
35,56,49200,120
40,56,49440,120
28,71,49680,120
52,53,50160,480
56,53,50160,480
64,63,50160,480
59,53,50160,480
64,63,50640,720
52,53,50640,720
61,53,50640,720
57,53,50640,720
64,62,51360,360
52,52,51360,360
57,52,51360,360
54,52,51360,360
56,46,51720,110
52,46,51720,110
64,55,51720,110
59,46,51720,110
56,51,51840,120
64,61,51840,120
59,51,51840,120
52,51,51840,120
40,47,52320,480
52,56,52320,480
47,47,52320,480
52,56,52800,720
40,47,52800,720
49,47,52800,720
52,55,53520,350
40,46,53520,350
45,46,53520,350
40,41,53880,120
52,49,53880,120
47,41,53880,120
40,60,54000,120
47,49,54240,120
52,49,54480,120
28,56,54720,120
35,44,54960,120
40,44,55200,120
28,56,55440,120
35,46,55680,120
40,46,55920,120
28,56,56160,120
35,44,56400,120
40,44,56640,120
28,56,56880,120
35,46,57120,120
40,46,57360,120
28,56,57600,120
33,67,58320,120
61,49,59280,120
57,41,59280,120
52,41,59520,120
59,49,59520,120
49,49,59760,120
57,58,59760,120
40,74,60240,120
45,87,60480,120
57,41,61440,120
61,49,61440,120
52,41,61680,120
59,49,61680,120
33,41,61680,120
57,58,61920,120
49,49,61920,120
33,41,61920,120
35,58,62160,120
37,64,62400,120
38,67,62640,120
45,74,64560,120
50,87,64800,120
38,41,66000,120
38,41,66240,120
39,58,66480,120
40,64,66720,120
41,67,66960,120
48,74,68880,120
53,87,69120,120
41,41,70320,120
41,41,70560,120
43,58,70800,120
45,64,71040,120
46,67,71280,120
44,41,72240,120
45,41,72480,120
47,45,72720,120
47,43,72960,120
48,45,73200,120
50,55,73440,120
47,41,74400,120
48,41,74640,120
50,45,74880,120
50,43,75120,120
52,45,75360,120
53,55,75600,120
53,36,76560,120
55,36,76800,120
56,43,77040,120
56,39,77280,120
57,49,77520,120
59,61,77760,120
62,41,78240,700
59,34,78240,700
62,41,78960,720
59,34,78960,720
59,65,79920,120
63,65,79920,120
63,41,80400,700
59,34,80400,700
63,41,81120,720
59,34,81120,720
62,55,82080,720
55,55,82080,720
65,65,82080,720
31,60,83280,120
43,60,83280,120
43,64,83520,120
31,64,83520,120
45,67,83760,120
33,67,83760,120
47,70,84000,120
35,70,84000,120
36,73,84240,120
43,60,84480,120
48,60,84720,120
36,70,84960,120
43,59,85200,120
48,59,85440,120
36,66,85680,120
43,59,85920,120
48,59,86160,120
36,66,86400,120
43,49,86640,120
48,49,86880,120
36,56,87120,120
43,44,87360,120
48,44,87600,120
36,56,87840,120
43,46,88080,120
48,46,88320,120
36,60,88560,120
43,49,88800,120
48,49,89040,120
36,56,89280,120
43,44,89520,120
48,44,89760,120
35,56,90000,120
43,46,90240,120
47,46,90480,120
33,60,90720,120
40,49,90960,120
45,49,91200,120
33,57,91440,120
40,46,91680,120
45,47,91920,120
33,62,92160,120
40,52,92400,120
45,53,92640,120
33,60,92880,120
40,49,93120,120
45,49,93360,120
33,56,93600,120
40,44,93840,120
45,44,94080,120
31,56,94320,120
40,46,94560,120
43,46,94800,120
29,60,95040,120
36,49,95280,120
41,49,95520,120
29,57,95760,120
36,46,96000,120
41,47,96240,120
29,62,96480,120
36,52,96720,120
41,53,96960,120
29,66,97200,120
31,55,97440,120
41,56,97680,120
29,67,97920,120
31,54,98160,120
41,55,98400,120
29,72,98640,120
31,61,98880,120
41,62,99120,120
28,68,99360,120
40,80,99360,120
26,48,99600,120
38,57,99600,120
24,49,99840,120
36,58,99840,120
38,78,100080,960
26,66,100080,960
36,48,101040,120
48,57,101040,120
35,49,101280,120
47,58,101280,120
36,66,101520,960
48,78,101520,960
47,57,102480,120
35,48,102480,120
33,49,102720,120
45,58,102720,120
35,48,102960,120
47,57,102960,120
43,57,103440,120
31,48,103440,120
39,68,103680,120
51,80,103680,120
50,57,103920,120
38,48,103920,120
48,58,104160,120
36,49,104160,120
38,66,104400,960
50,78,104400,960
48,57,105360,120
36,48,105360,120
47,58,105600,120
35,49,105600,120
48,78,105840,960
36,66,105840,960
47,57,106800,120
35,48,106800,120
33,49,107040,120
45,58,107040,120
47,57,107280,120
35,48,107280,120
31,48,107760,120
43,57,107760,120
36,60,107940,180
43,60,107970,150
52,71,108000,120
60,63,108480,480
48,53,108480,480
55,53,108480,480
52,53,108480,480
53,53,108960,720
57,53,108960,720
60,63,108960,720
48,53,108960,720
50,52,109680,360
48,52,109680,360
53,52,109680,360
60,62,109680,360
60,55,110040,110
48,46,110040,110
55,46,110040,110
52,46,110040,110
48,51,110160,120
52,51,110160,120
55,51,110160,120
60,61,110160,120
43,47,110640,480
48,56,110640,480
36,47,110640,480
48,56,111120,720
36,47,111120,720
45,47,111120,720
41,46,111840,350
36,46,111840,350
48,55,111840,350
43,41,112200,120
36,41,112200,120
48,49,112200,120
36,60,112320,120
43,49,112560,120
48,49,112800,120
36,56,113040,120
43,44,113280,120
48,44,113520,120
36,56,113760,120
43,46,114000,120
48,46,114240,120
36,56,114480,120
43,44,114720,120
48,44,114960,120
36,56,115200,120
43,46,115440,120
48,46,115680,120
36,56,115920,120
43,35,116160,120
48,35,116400,120
33,43,116640,120
38,29,116880,120
45,29,117120,120
33,38,117360,120
38,32,117600,120
45,32,117840,120
33,40,118080,120
38,32,118320,120
45,31,118560,120
33,38,118800,120
38,26,119040,120
45,26,119280,120
33,35,119520,120
38,25,119760,120
45,28,120000,120
33,35,120240,120
38,25,120480,120
45,25,120720,120
31,34,120900,300
43,34,120960,240
50,29,121200,240
55,30,121440,240
59,34,121680,240
55,29,121920,240
50,29,122160,240
40,38,122400,240
55,28,122640,240
59,28,122880,240
62,32,123120,240
52,32,123120,720
59,34,123360,240
55,36,123600,240
45,41,123840,240
33,41,123840,240
60,31,124080,2400
64,31,124320,2160
57,31,124560,1920
67,31,124560,1920
57,29,126480,240
64,35,126480,240
55,29,126480,240
60,38,126720,480
52,32,126720,480
55,32,126720,480
55,28,127200,240
50,28,127200,240
59,33,127200,240
38,42,127440,240
57,33,127920,240
48,28,127920,240
52,32,128160,720
60,38,128160,720
50,29,128880,480
57,35,128880,480
43,34,129600,240
50,29,129840,240
55,30,130080,240
59,34,130320,240
55,29,130560,240
50,29,130800,240
40,38,131040,240
55,28,131280,240
59,28,131520,240
62,32,131760,240
52,32,131760,720
59,34,132000,240
55,36,132240,240
45,41,132480,240
33,41,132480,240
64,31,132720,2400
67,34,132960,2160
61,34,133200,1920
71,34,133200,1920
61,29,135120,240
64,29,135120,240
69,35,135120,240
59,32,135360,480
67,38,135360,480
61,32,135360,480
61,28,135840,240
66,33,135840,240
57,28,135840,240
33,35,136080,240
45,42,136080,240
61,26,136560,240
59,26,136560,240
67,31,136560,240
61,31,136800,1200
66,37,136800,1200
57,31,136800,1200
64,30,138000,240
55,25,138000,240
61,30,138000,240
50,36,138240,240
38,30,138240,240
54,29,138480,240
57,29,138720,240
66,38,138960,120
38,29,140400,240
64,29,141600,240
60,34,141840,480
59,29,142320,240
56,36,142560,480
50,30,142560,2160
57,29,143043,240
60,35,143280,1200
55,29,144480,240
50,30,144720,720
53,36,144720,480
54,29,145200,240
38,29,145440,240
67,29,145920,240
64,34,146160,480
60,29,146640,240
59,36,146880,480
50,30,146880,2160
60,29,147360,240
64,35,147600,1200
59,29,148800,240
56,36,149040,480
50,30,149040,1440
57,29,149520,240
71,36,150240,240
67,42,150480,480
64,30,150960,240
38,29,151200,240
69,36,151680,240
67,42,151920,480
64,30,152400,240
38,29,152640,240
67,36,153120,240
64,42,153360,480
60,30,153840,240
38,29,154080,240
66,34,154560,240
60,28,154560,240
57,28,154560,240
64,38,154800,480
60,32,154800,480
55,32,154800,480
62,34,155280,240
55,28,155280,240
61,32,155520,960
50,27,155520,2160
58,29,156480,720
55,30,157200,480
50,22,157680,1920
60,26,157680,1920
54,22,157680,1920
43,34,159840,240
50,29,160080,240
55,30,160320,240
59,34,160560,240
55,29,160800,240
50,29,161040,240
40,38,161280,240
55,28,161520,240
59,28,161760,240
62,32,162000,240
52,32,162000,720
59,34,162240,240
55,36,162480,240
33,41,162720,240
45,41,162720,240
60,31,162960,2400
64,31,163200,2160
67,31,163440,1920
57,31,163440,1920
64,35,165360,240
57,29,165360,240
55,29,165360,240
60,38,165600,480
52,32,165600,480
55,32,165600,480
55,28,166080,240
59,33,166080,240
50,28,166080,240
38,42,166320,240
48,28,166800,240
57,33,166800,240
60,38,167040,720
52,32,167040,720
50,29,167760,480
57,35,167760,480
43,34,168480,240
50,29,168720,240
55,30,168960,240
59,34,169200,240
55,29,169440,240
50,29,169680,240
40,38,169920,240
55,28,170160,240
59,28,170400,240
62,32,170640,240
52,32,170640,720
59,34,170880,240
55,36,171120,240
47,34,171360,240
54,29,171600,240
59,34,171847,240
62,39,172080,240
59,33,172320,240
54,33,172560,240
43,43,172800,240
59,32,173040,240
62,36,173280,240
66,41,173520,240
55,41,173520,720
62,44,173760,240
59,47,174000,240
50,43,174240,240
57,32,174480,240
62,37,174720,240
66,43,174960,240
62,47,175200,240
57,51,175440,240
47,55,175680,240
62,40,175920,3360
66,46,176160,1680
69,51,176400,2880
59,44,176400,2880
65,55,177840,1440
40,62,179280,240
59,39,179760,240
68,46,179760,240
62,39,179760,240
71,55,180000,720
56,42,180720,480
62,50,180720,480
45,62,181440,240
61,46,181920,960
57,39,181920,960
64,55,182160,720
55,50,182880,480
38,62,183600,240
66,39,184080,240
64,39,184080,240
72,46,184080,240
76,60,184320,720
62,42,185040,480
66,50,185040,480
43,62,185760,240
65,39,186240,1440
62,33,186240,1440
60,33,186240,960
69,46,186480,720
59,34,187200,480
67,42,187200,480
36,34,187920,240
48,34,187920,240
55,29,188160,240
60,30,188400,240
64,34,188640,240
60,29,188880,240
55,29,189120,240
45,38,189360,240
60,28,189600,240
64,28,189840,240
57,32,190080,720
67,32,190080,240
64,34,190320,240
60,36,190560,240
38,41,190800,240
50,41,190800,240
65,31,191040,2400
69,31,191280,2160
62,31,191520,1920
72,31,191520,1920
62,29,193440,240
60,29,193440,240
69,35,193440,240
60,32,193680,480
65,38,193680,480
57,32,193680,480
64,33,194160,240
60,28,194160,240
55,28,194160,240
43,42,194400,240
53,28,194880,240
62,33,194880,240
65,38,195120,720
57,32,195120,720
55,29,195840,480
62,35,195840,480
36,34,196560,240
48,34,196560,240
55,29,196800,240
60,30,197040,240
64,34,197280,240
60,29,197520,240
55,29,197760,240
45,38,198000,240
60,28,198240,240
64,28,198480,240
67,32,198720,240
57,32,198720,720
64,34,198960,240
60,36,199200,240
50,41,199440,240
38,41,199440,240
69,31,199680,2400
72,34,199920,2160
66,34,200160,1920
76,34,200160,1920
69,29,202080,240
74,35,202080,240
66,29,202080,240
66,32,202320,480
64,32,202320,480
72,38,202320,480
62,28,202800,240
71,33,202800,240
66,28,202800,240
38,35,203040,240
50,42,203040,240
66,26,203520,240
64,26,203520,240
72,31,203520,240
62,31,203760,1200
66,31,203760,1200
71,37,203760,1200
60,25,204960,240
69,30,204960,240
66,30,204960,240
54,27,205200,240
56,32,205200,240
47,27,205200,240
48,26,205440,240
57,31,205440,240
54,26,205440,240
52,26,205680,240
60,31,205680,240
54,26,205680,240
54,31,205920,1200
59,37,205920,1200
50,31,205920,1200
54,30,207120,240
48,25,207120,240
57,30,207120,240
38,48,207360,240
50,57,207360,240
65,34,207840,240
68,34,207840,240
74,42,207840,240
64,42,208080,1200
72,50,208080,1200
68,42,208080,1200
62,33,209280,240
71,40,209280,240
68,40,209280,240
58,43,209520,240
56,37,209520,240
49,37,209520,240
56,34,209760,240
59,42,209760,240
50,34,209760,240
56,34,210000,240
53,34,210000,240
62,42,210000,240
56,42,210240,1200
52,42,210240,1200
60,50,210240,1200
56,40,211440,240
50,33,211440,240
59,40,211440,240
50,60,211680,240
38,50,211680,240
78,43,212160,230
69,36,212160,230
72,36,212160,230
72,43,212400,1200
78,52,212400,1200
69,43,212400,1200
72,43,213600,230
76,43,213600,230
81,51,213600,230
72,48,213840,1200
76,48,213840,1200
81,57,213840,1200
69,39,215040,240
78,47,215040,240
72,39,215040,240
66,45,215280,480
74,53,215280,480
69,45,215280,480
72,49,215760,240
69,41,215760,240
64,41,215760,240
66,35,216000,240
68,41,216000,240
59,35,216000,240
66,33,216240,240
60,33,216240,240
69,39,216240,240
66,32,216480,240
64,32,216480,240
72,38,216480,240
66,37,216720,1200
62,37,216720,1200
71,44,216720,1200
60,26,217920,170
69,31,217920,170
66,31,217920,170
43,42,218160,120
50,34,218400,120
55,34,218640,120
43,39,218880,120
50,30,219120,120
55,30,219360,120
43,39,219600,120
50,32,219840,120
55,32,220080,120
43,42,220320,120
50,34,220560,120
55,34,220800,120
43,39,221040,120
50,30,221280,120
55,30,221520,120
43,39,221760,120
50,32,222000,120
55,32,222240,120
41,42,222480,120
45,34,222720,120
53,34,222960,120
41,40,223200,120
45,33,223440,120
53,33,223680,120
41,45,223920,120
45,37,224160,120
53,39,224400,120
41,42,224640,120
45,34,224880,120
53,35,225120,120
41,47,225360,120
45,40,225600,120
53,40,225840,120
41,48,226080,120
45,40,226320,120
53,41,226560,120
40,48,226800,120
47,39,227040,120
52,39,227280,120
40,46,227520,120
47,37,227760,120
52,38,228000,120
40,51,228240,120
47,43,228480,120
52,44,228720,120
40,48,228960,120
47,39,229200,120
52,40,229440,120
40,53,229680,120
47,45,229920,120
52,46,230160,120
40,54,230400,120
47,45,230640,120
52,47,230880,120
38,54,231120,120
41,44,231360,120
50,44,231600,120
38,51,231840,120
41,42,232080,120
50,43,232320,120
38,57,232560,120
41,48,232800,120
50,49,233040,120
38,54,233280,120
41,43,233520,120
50,45,233760,120
38,59,234000,120
41,50,234240,120
50,51,234480,120
38,60,234720,120
41,50,234960,120
50,52,235200,120
36,60,235440,120
43,49,235680,120
48,49,235920,120
36,57,236160,120
43,46,236400,120
48,47,236640,120
36,62,236880,120
43,52,237120,120
48,53,237360,120
36,60,237600,120
43,49,237840,120
48,49,238080,120
36,56,238320,120
43,44,238560,120
48,44,238800,120
36,56,239040,120
43,46,239280,120
48,46,239520,120
36,60,239763,120
43,49,240000,120
48,49,240240,120
36,57,240480,120
43,46,240720,120
48,47,240960,120
36,62,241200,120
43,52,241440,120
48,53,241680,120
36,66,241920,120
43,55,242160,120
48,56,242400,120
36,67,242640,120
43,54,242880,120
48,55,243120,120
36,72,243360,120
43,61,243600,120
48,62,243840,120
35,80,244080,120
43,57,244320,120
47,58,244560,120
35,75,244800,120
43,57,245040,120
47,58,245280,120
35,76,245520,120
42,61,245760,120
47,61,246000,120
35,80,246240,120
42,57,246480,120
47,58,246720,120
35,75,246960,120
40,57,247200,120
47,58,247440,120
35,76,247680,120
39,61,247920,120
47,61,248160,120
28,80,248400,120
35,57,248640,120
40,58,248880,120
28,75,249120,120
35,57,249360,120
40,58,249600,120
28,76,249840,120
35,61,250080,120
40,61,250320,120
28,80,250560,120
35,57,250800,120
40,58,251040,120
28,75,251280,120
35,57,251520,120
40,58,251760,120
28,76,252000,120
35,61,252240,120
40,61,252480,120
28,71,252720,120
56,53,253200,480
59,53,253200,480
52,53,253200,480
64,63,253200,480
52,53,253680,720
64,63,253680,720
61,53,253680,720
57,53,253680,720
52,52,254400,360
64,62,254400,360
54,52,254400,360
57,52,254400,360
64,55,254760,110
52,46,254760,110
59,46,254760,110
56,46,254760,110
56,51,254880,120
59,51,254880,120
64,61,254880,120
52,51,254880,120
52,56,255360,480
40,47,255360,480
47,47,255360,480
40,47,255840,720
52,56,255840,720
49,47,255840,720
40,46,256560,350
52,55,256560,350
45,46,256560,350
40,41,256920,120
52,49,256920,120
47,41,256920,120
40,60,257040,120
47,49,257280,120
52,49,257520,120
28,56,257760,120
35,44,258000,120
40,44,258240,120
28,56,258480,120
35,46,258720,120
40,46,258960,120
28,56,259200,120
35,44,259440,120
40,44,259680,120
28,56,259920,120
35,46,260160,120
40,46,260400,120
28,56,260640,120
45,42,261360,720
52,50,261360,720
48,39,262080,480
57,46,262080,480
52,41,262560,240
59,49,262560,240
60,45,262800,720
64,53,262800,720
57,41,263520,480
60,49,263520,480
52,49,264000,230
45,42,264240,720
52,50,264240,720
48,39,264960,480
57,46,264960,480
52,41,265440,240
59,49,265440,240
60,45,265680,1190
64,53,265680,1190
57,41,266880,240
60,49,266880,240
43,45,267120,720
55,53,267120,720
55,53,267840,1430
65,50,268080,180
62,42,268080,180
64,45,268320,180
60,38,268320,180
62,53,268560,720
59,45,268560,720
55,57,269280,470
55,49,269760,240
48,45,270000,720
60,53,270000,720
50,45,270720,720
62,53,270720,720
52,45,271440,1190
64,53,271440,1190
52,54,272640,240
45,42,272880,720
52,50,272880,720
48,39,273600,480
57,46,273600,480
52,41,274080,240
59,49,274080,240
61,45,274320,720
64,53,274320,720
61,49,275040,470
57,41,275040,470
57,49,275520,240
45,41,275520,240
44,45,275760,720
56,53,275760,710
56,53,276480,1430
63,42,276720,180
66,50,276720,180
61,38,276960,180
64,45,276960,180
60,45,277200,720
63,53,277200,720
56,57,277920,470
63,56,278400,230
56,42,278640,705
59,42,278640,705
63,50,278640,705
56,39,279360,720
64,46,279360,470
59,39,279360,720
64,49,279840,230
60,45,280080,650
64,53,280080,650
57,45,280080,650
50,46,280740,780
57,47,280760,760
60,49,280780,740
67,50,280800,470
65,49,281280,240
60,42,281520,720
64,50,281520,720
55,42,281520,720
53,33,282240,720
62,39,282240,470
57,33,282240,720
62,39,282720,240
59,35,282960,1200
64,41,282960,1200
52,35,282960,1200
36,35,284400,720
41,28,285120,720
45,36,285840,720
47,30,286560,720
40,36,287280,240
53,27,287520,240
52,27,287760,230
52,37,288000,180
52,27,288240,180
52,27,288480,180
52,37,288720,180
52,28,288960,180
52,28,289200,180
40,36,289440,240
53,27,289680,240
52,27,289920,230
52,37,290160,180
52,27,290400,180
52,27,290640,180
52,37,290880,180
52,28,291120,180
52,28,291360,180
38,36,291600,240
52,27,291840,240
50,27,292080,230
50,37,292320,180
50,27,292560,180
50,27,292800,180
50,37,293040,180
50,28,293280,180
50,28,293520,180
40,36,293760,240
53,27,294000,240
52,27,294240,230
52,37,294480,180
52,27,294720,180
52,27,294960,180
52,37,295200,180
52,28,295440,180
52,28,295680,180
45,36,295920,240
53,27,296160,240
52,27,296400,230
52,37,296640,180
52,27,296880,180
52,27,297120,180
52,37,297360,180
52,28,297600,180
52,28,297840,180
38,36,298050,270
50,43,298080,240
53,27,298320,240
57,27,298560,230
62,37,298800,240
57,27,299040,240
53,27,299280,240
62,37,299520,240
58,28,299760,240
53,28,300000,180
52,43,300240,240
55,27,300480,240
58,27,300720,230
60,37,300960,240
58,27,301200,240
55,27,301440,240
50,37,301680,240
55,28,301920,240
58,28,302160,240
48,34,302400,1440
55,24,302640,240
58,24,302880,230
60,32,303120,240
58,26,303360,240
55,26,303600,240
60,35,303840,240
55,25,304080,240
52,25,304320,240
47,34,304560,1440
52,24,304800,240
55,24,305040,230
59,32,305280,240
55,26,305520,240
52,26,305760,240
59,35,306000,240
55,31,306240,240
52,33,306480,240
47,41,306720,1440
54,31,306960,240
57,31,307200,230
59,38,307440,240
57,26,307680,240
54,26,307920,240
59,42,308160,240
54,34,308400,240
51,34,308640,240
48,47,308880,1440
55,30,309120,240
58,30,309360,230
60,45,309600,240
58,35,309840,240
55,43,310080,240
60,54,310320,240
55,43,310560,240
52,43,310800,240
47,53,311040,720
52,43,311280,240
55,43,311520,240
59,55,311760,240
59,48,312420,780
67,48,312450,750
76,48,312480,720
75,48,313200,600
59,48,313200,2160
66,48,313200,2160
69,48,313200,2160
76,48,313800,60
75,48,313860,60
73,48,313920,720
75,48,314640,720
52,48,315360,240
65,55,315600,240
64,48,315840,240
53,54,316080,240
52,48,316320,240
41,61,316560,240
40,55,316800,230
40,48,317040,120
40,47,317280,120
40,50,317520,720
33,42,317520,720
45,46,318240,480
36,39,318240,480
47,49,318720,240
40,41,318720,240
52,53,318960,720
48,45,318960,710
48,49,319680,480
45,41,319680,480
40,49,320160,230
33,42,320160,230
33,42,320400,720
40,50,320400,720
36,39,321120,480
45,46,321120,480
40,41,321600,240
47,49,321600,240
48,45,321840,710
52,53,321840,720
45,53,322560,470
48,53,322560,470
48,41,323040,240
52,49,323040,240
55,50,323280,960
52,42,323280,960
43,49,323280,1440
53,49,324240,180
50,49,324240,180
52,49,324480,180
48,41,324480,180
50,53,324720,1190
43,45,324720,1190
50,49,325920,230
43,42,325920,230
48,42,326160,960
40,49,326160,1440
52,50,326160,960
47,49,327120,180
50,49,327120,180
45,41,327360,180
48,49,327360,180
47,53,327600,1190
40,45,327600,1190
40,47,328800,240
40,50,329040,720
33,42,329040,720
37,39,329760,480
45,46,329760,480
40,41,330240,240
47,49,330240,240
49,45,330480,710
52,53,330480,720
45,41,331200,470
49,49,331200,480
33,42,331680,230
45,49,331680,230
32,42,331920,720
44,50,331920,720
56,46,332640,1440
63,41,332880,180
66,49,332880,180
64,49,333120,180
61,41,333120,180
63,53,333360,1190
60,45,333360,1190
56,53,334080,470
63,44,334560,240
59,49,334800,1440
63,49,334800,720
56,43,334800,1440
64,48,335520,470
64,46,336000,230
57,45,336240,1440
64,52,336240,720
60,52,336240,1440
65,51,336960,470
65,48,337440,230
65,52,337680,620
62,44,337680,620
59,44,337680,620
47,42,338310,810
53,42,338340,780
55,42,338370,750
62,50,338400,720
48,45,339120,720
57,45,339120,720
60,53,339120,720
53,45,339120,720
55,42,339840,480
48,42,339840,470
60,50,339840,480
48,50,340320,230
48,53,340560,720
41,45,340560,720
53,55,341280,480
45,46,341280,480
55,56,341760,240
48,47,341760,240
53,52,342000,720
57,62,342000,720
53,53,342720,480
49,45,342720,480
45,45,342720,480
46,48,343440,720
49,57,343440,720
46,45,344160,240
54,53,344160,240
49,40,344400,240
58,48,344400,240
54,42,344640,240
61,50,344640,240
62,62,344880,720
59,52,344880,720
47,47,345600,240
55,55,345600,240
50,41,345840,240
59,49,345840,240
62,51,346080,240
55,42,346080,240
60,44,346320,620
64,52,346320,620
48,42,346950,810
55,42,346980,780
57,42,347010,750
64,50,347040,720
59,45,347760,720
50,45,347760,720
62,53,347760,720
55,45,347760,720
50,42,348480,470
62,50,348480,480
57,42,348480,480
50,50,348960,230
50,53,349200,720
43,45,349200,720
47,46,349920,480
55,55,349920,480
50,47,350400,240
57,56,350400,240
55,52,350640,720
59,62,350640,720
47,45,351360,240
51,45,351360,240
55,53,351360,240
43,48,351840,240
51,57,351840,230
41,48,352080,720
50,57,352080,720
55,55,352800,480
47,46,352800,480
57,56,353280,240
50,47,353280,240
59,62,353520,720
55,52,353520,720
51,45,354240,240
47,45,354240,240
55,53,354240,240
41,48,354720,240
51,57,354720,240
40,48,354960,720
50,57,354960,720
47,46,355680,480
56,55,355680,480
50,47,356160,240
57,56,356160,240
56,52,356400,1440
59,62,356400,1440
50,57,357840,720
40,48,357840,720
47,46,358560,480
56,55,358560,480
50,47,359040,240
57,56,359040,240
56,44,359280,1440
59,62,359280,1440
40,37,360720,1440
50,44,360720,1440
47,32,362160,1440
56,38,362160,1440
40,28,363600,2640
50,33,363600,2640
41,32,366480,120
48,29,366720,120
48,29,366960,120
41,33,367200,120
48,26,367440,120
48,26,367680,120
41,33,367920,120
48,27,368160,120
48,27,368400,120
41,36,368640,120
48,29,368880,120
48,29,369120,120
41,33,369360,120
48,26,369600,120
48,26,369840,120
41,33,370080,120
48,27,370320,120
48,27,370560,120
41,36,370800,120
48,29,371040,120
48,29,371280,120
41,33,371520,120
48,26,371760,120
48,26,372000,120
41,33,372240,120
48,27,372480,120
48,27,372720,120
41,33,372960,120
48,27,373200,120
48,27,373440,120
41,33,373680,120
48,27,373920,120
48,27,374160,120
41,36,374400,120
48,31,374640,120
48,32,374880,120
40,32,375120,120
49,29,375360,120
49,29,375600,120
40,33,375840,120
49,26,376080,120
49,26,376320,120
40,33,376560,120
49,27,376800,120
49,27,377040,120
40,36,377280,120
49,29,377520,120
49,29,377760,120
40,33,378000,120
49,26,378240,120
49,26,378480,120
40,33,378720,120
49,27,378960,120
49,27,379200,120
39,36,379440,120
49,29,379680,120
49,29,379920,120
39,33,380160,120
49,26,380400,120
49,26,380640,120
39,33,380880,120
49,27,381120,120
49,27,381360,120
39,33,381600,120
49,27,381840,120
49,27,382080,120
39,33,382320,120
49,27,382560,120
49,27,382800,120
39,36,383040,120
49,31,383280,120
49,32,383520,120
38,32,383760,120
50,29,384000,120
50,29,384240,120
38,33,384480,120
50,26,384720,120
50,26,384960,120
38,33,385200,120
50,27,385440,120
50,29,385680,120
38,36,385920,120
50,29,386160,120
50,30,386400,120
38,35,386640,120
50,28,386880,120
50,29,387120,120
38,38,387360,120
50,32,387600,120
50,32,387840,120
38,45,388080,120
50,36,388320,120
50,36,388560,120
38,41,388800,120
50,32,389040,120
50,40,389280,120
38,48,389520,120
50,33,389760,120
50,33,390000,120
38,41,390240,120
50,33,390480,120
50,33,390720,120
36,35,390960,120
43,31,391200,120
48,31,391440,120
36,36,391680,120
43,28,391920,120
48,28,392160,120
36,36,392400,120
43,29,392640,120
48,29,392880,120
36,39,393120,120
43,31,393360,120
48,33,393600,120
36,38,393840,120
43,30,394080,120
48,31,394320,120
36,41,394560,120
43,35,394800,120
48,35,395040,120
36,49,395280,120
43,39,395520,120
48,39,395760,120
36,45,396000,120
43,35,396240,120
48,44,396480,120
36,52,396720,120
43,36,396960,120
48,36,397200,120
36,45,397440,120
43,36,397680,120
48,36,397920,120
36,60,398163,120
43,49,398400,120
48,49,398640,120
36,57,398880,120
43,46,399120,120
48,47,399360,120
36,62,399600,120
43,52,399840,120
48,53,400080,120
36,66,400320,120
43,55,400560,120
48,56,400800,120
36,67,401040,120
43,54,401280,120
48,55,401520,120
36,72,401760,120
43,61,402000,120
48,62,402240,120
35,80,402480,120
43,57,402720,120
47,58,402960,120
35,75,403200,120
43,57,403440,120
47,58,403680,120
35,76,403920,120
42,61,404160,120
47,61,404400,120
35,80,404640,120
42,57,404880,120
47,58,405120,120
35,75,405360,120
40,57,405600,120
47,58,405840,120
35,76,406080,120
39,61,406320,120
47,61,406560,120
28,80,406800,120
35,57,407040,120
40,58,407280,120
28,75,407520,120
35,57,407760,120
40,58,408000,120
28,76,408240,120
35,61,408480,120
40,61,408720,120
28,80,408960,120
35,57,409200,120
40,58,409440,120
28,75,409680,120
35,57,409920,120
40,58,410160,120
28,76,410400,120
35,61,410640,120
40,61,410880,120
28,71,411120,120
52,53,411540,480
59,53,411570,450
68,63,411600,420
52,53,412020,720
61,53,412050,690
69,63,412080,660
52,52,412740,420
57,52,412760,400
61,52,412780,380
66,62,412800,360
59,46,413160,50
68,55,413160,50
52,51,413220,180
59,51,413250,150
68,61,413280,120
40,53,413700,480
47,53,413730,450
56,63,413760,420
40,53,414180,720
49,53,414210,690
57,63,414240,660
40,52,414900,420
45,52,414920,400
49,52,414940,380
54,62,414960,360
47,46,415320,110
56,55,415320,110
28,60,415440,120
35,49,415680,120
40,49,415920,120
28,56,416160,120
35,44,416400,120
40,44,416640,120
28,56,416880,120
35,46,417120,120
40,46,417360,120
28,56,417600,120
35,44,417840,120
40,44,418080,120
28,56,418320,120
35,46,418560,120
40,46,418800,120
28,56,419040,120
33,67,419760,120
57,41,420720,120
61,49,420720,120
59,49,420960,120
52,41,420960,120
57,58,421200,120
49,49,421200,120
40,74,421680,120
45,87,421920,120
61,49,422880,120
57,41,422880,120
33,41,423120,120
59,49,423120,120
52,41,423120,120
49,49,423360,120
33,41,423360,120
57,58,423360,120
35,58,423600,120
37,64,423840,120
38,67,424080,120
45,74,426000,120
50,87,426240,120
38,41,427440,120
38,41,427680,120
39,58,427920,120
40,64,428160,120
41,67,428400,120
48,74,430320,120
53,87,430560,120
41,41,431760,120
41,41,432000,120
43,58,432240,120
45,64,432480,120
46,67,432720,120
44,41,433680,120
45,41,433920,120
47,45,434160,120
47,43,434400,120
48,45,434640,120
50,55,434880,120
47,41,435840,120
48,41,436080,120
50,45,436320,120
50,43,436560,120
52,45,436800,120
53,55,437040,120
53,36,438000,120
55,36,438240,120
56,43,438480,120
56,39,438720,120
57,49,438960,120
59,61,439200,120
59,34,439680,700
62,41,439680,700
62,41,440400,720
59,34,440400,720
59,65,441360,120
63,65,441360,120
63,41,441840,700
59,34,441840,700
63,41,442560,720
59,34,442560,720
62,55,443520,720
55,55,443520,720
65,65,443520,720
31,60,444720,120
43,60,444720,120
43,64,444960,120
31,64,444960,120
45,67,445200,120
33,67,445200,120
35,70,445440,120
47,70,445440,120
36,73,445680,120
43,60,445920,120
48,60,446160,120
36,70,446400,120
43,59,446640,120
48,59,446880,120
36,66,447120,120
43,59,447360,120
48,59,447600,120
36,66,447840,120
43,49,448080,120
48,49,448320,120
36,56,448560,120
43,44,448800,120
48,44,449040,120
36,56,449280,120
43,46,449520,120
48,46,449760,120
36,60,450000,120
43,49,450240,120
48,49,450480,120
36,56,450720,120
43,44,450960,120
48,44,451200,120
35,56,451440,120
43,46,451680,120
47,46,451920,120
33,66,452160,120
40,49,452400,120
45,49,452640,120
33,57,452880,120
40,46,453120,120
45,47,453360,120
33,62,453600,120
40,52,453840,120
45,53,454080,120
33,60,454320,120
40,49,454560,120
45,49,454800,120
33,56,455040,120
40,44,455280,120
45,44,455520,120
31,56,455760,120
40,46,456000,120
43,46,456240,120
29,66,456480,120
36,49,456720,120
41,49,456960,120
29,57,457200,120
36,46,457440,120
41,47,457680,120
29,62,457920,120
36,52,458160,120
41,53,458400,120
29,66,458640,120
36,56,458880,120
41,58,459120,120
29,72,459360,120
36,59,459600,120
41,62,459840,120
29,83,460080,120
36,72,460320,120
41,75,460560,120
30,77,460800,120
42,91,460800,120
54,48,461040,120
54,48,461280,120
54,48,461520,120
54,45,461760,120
54,45,462000,120
54,45,462240,120
54,45,462480,120
54,45,462720,120
42,48,462960,120
54,63,462960,120
54,48,463200,120
54,48,463440,120
54,48,463680,120
54,45,463920,120
54,45,464160,120
54,45,464400,120
54,45,464640,120
54,45,464880,120
54,63,465120,120
42,48,465120,120
54,48,465360,120
54,48,465600,120
54,48,465840,120
54,45,466080,120
54,49,466320,120
54,54,466560,120
54,59,466800,120
54,64,467040,120
30,69,467280,120
42,91,467280,120
54,67,467520,120
54,63,467760,120
54,58,468000,120
54,54,468240,120
54,50,468480,120
54,45,468720,120
54,45,468960,120
54,45,469200,120
54,40,469440,120
42,40,469440,120
54,48,469680,120
54,48,469920,120
54,48,470160,120
54,45,470400,120
54,45,470640,120
54,45,470880,120
54,45,471120,120
54,45,471360,120
54,63,471600,120
42,48,471600,120
54,48,471840,120
54,48,472080,120
54,48,472320,120
54,45,472560,120
54,45,472800,120
54,45,473040,120
54,45,473280,120
54,45,473520,120
43,48,473760,120
55,63,473760,120
55,48,474000,120
55,48,474240,120
55,48,474480,120
55,45,474720,120
55,49,474960,120
55,54,475200,120
55,59,475440,120
55,64,475680,120
31,69,475920,120
43,91,475920,120
55,67,476160,120
55,63,476400,120
55,58,476640,120
55,54,476880,120
55,50,477120,120
55,45,477360,120
55,45,477600,120
55,45,477840,120
48,59,478080,240
36,66,478800,240
40,44,479040,240
44,44,479280,240
45,66,479520,240
47,41,479760,240
45,41,480000,240
36,66,480240,240
40,46,480480,240
44,46,480720,240
45,66,480960,240
47,43,481200,240
45,43,481440,240
36,66,481680,240
40,46,481920,240
44,46,482160,240
45,66,482400,240
47,43,482640,240
45,43,482880,240
36,66,483120,240
40,44,483360,240
44,44,483600,240
45,50,483840,240
48,41,484080,240
57,41,484320,240
43,50,484560,240
48,44,484800,240
55,44,485040,240
41,50,485280,240
48,40,485520,240
53,40,485760,240
42,50,486000,240
50,41,486240,240
54,41,486480,240
43,50,486720,240
50,42,486960,240
55,42,487200,240
41,50,487440,240
43,42,487680,240
53,42,487920,240
40,47,488160,240
43,36,488400,240
52,34,488640,240
38,41,488880,240
43,30,489120,240
50,29,489360,240
48,37,489600,240
36,66,490320,240
40,44,490560,240
44,44,490800,240
45,66,491040,240
47,41,491280,240
45,41,491520,240
36,66,491760,240
40,46,492000,240
44,46,492240,240
45,66,492480,240
47,43,492720,240
45,43,492960,240
36,66,493200,240
40,46,493440,240
44,46,493680,240
45,66,493920,240
47,43,494160,240
45,43,494400,240
36,66,494640,240
40,44,494880,240
44,44,495120,240
45,50,495360,240
48,41,495600,240
57,41,495840,240
43,50,496080,240
48,44,496320,240
55,44,496560,240
41,50,496800,240
48,40,497040,240
53,40,497280,240
42,50,497520,240
50,41,497760,240
54,41,498000,240
43,50,498240,240
50,44,498480,240
55,49,498720,240
41,54,498960,240
43,44,499200,240
53,44,499440,240
40,49,499680,240
43,38,499920,240
52,38,500160,240
38,44,500400,240
43,30,500640,240
50,29,500880,240
36,49,501120,240
43,38,501360,240
48,38,501600,240
40,44,501840,240
48,30,502080,240
52,30,502320,240
41,42,502560,240
48,30,502800,240
53,30,503040,240
41,42,503280,240
48,29,503520,240
53,29,503760,240
54,49,504000,240
43,29,504240,240
54,46,504480,240
43,34,504720,240
54,47,504960,240
43,38,505200,240
55,57,505440,1680
43,48,505440,1440
48,44,506880,240
41,66,507600,240
45,44,507840,240
49,44,508080,240
50,66,508320,240
52,41,508560,240
50,41,508800,240
41,66,509040,240
45,46,509280,240
49,46,509520,240
50,66,509760,240
52,43,510000,240
50,43,510240,240
41,66,510480,240
45,46,510720,240
49,46,510960,240
50,66,511200,240
52,43,511440,240
50,43,511680,240
41,66,511920,240
45,44,512160,240
49,44,512400,240
50,50,512640,240
53,41,512880,240
62,38,513120,240
48,50,513360,240
53,44,513600,240
60,36,513840,240
46,50,514080,240
50,40,514320,240
58,36,514560,240
47,50,514800,240
50,41,515040,240
59,32,515280,240
48,50,515520,240
55,40,515760,240
60,38,516000,240
48,46,516240,240
53,32,516480,240
59,30,516720,240
48,47,516960,240
52,36,517200,240
60,30,517440,240
48,41,517680,240
55,30,517920,240
60,29,518160,240
53,37,518400,240
41,66,519120,240
45,44,519360,240
49,44,519600,240
50,66,519840,240
52,41,520080,240
50,41,520320,240
37,66,520560,240
40,46,520800,240
45,46,521040,240
38,66,521280,240
41,43,521520,240
45,43,521760,240
45,66,522000,240
48,46,522240,240
52,46,522480,240
53,66,522720,240
55,43,522960,240
53,43,523200,240
40,66,523440,240
44,46,523680,240
48,46,523920,240
41,66,524160,240
45,43,524400,240
48,43,524640,240
44,66,524880,240
48,44,525120,240
52,44,525360,240
45,50,525600,240
48,41,525840,240
57,41,526080,240
43,50,526320,240
48,44,526560,240
55,44,526800,240
41,50,527040,240
48,40,527280,240
53,40,527520,240
42,50,527760,240
50,41,528000,240
54,41,528240,240
43,50,528480,240
50,44,528720,240
55,49,528960,240
41,54,529200,240
43,44,529440,240
53,44,529680,240
40,49,529920,240
43,38,530160,240
52,38,530400,240
38,44,530640,240
43,30,530880,240
50,29,531120,240
36,49,531360,240
43,38,531600,240
48,38,531840,240
40,44,532080,240
48,30,532320,240
52,30,532560,240
41,42,532800,240
48,30,533040,240
53,30,533280,240
41,42,533520,240
48,29,533760,240
53,29,534000,240
54,49,534240,240
43,29,534480,240
54,46,534720,240
43,34,534960,240
54,47,535200,240
43,38,535440,240
55,42,535620,60
65,48,535680,1380
71,57,535680,1380
48,37,537060,150
55,37,537080,140
60,37,537100,130
64,44,537120,120
54,58,537840,240
52,49,538080,240
54,49,538320,240
55,58,538560,240
50,52,538800,240
43,52,539040,240
54,58,539280,240
52,52,539520,240
54,52,539760,240
55,58,540000,240
50,52,540240,240
43,52,540480,240
55,57,540720,120
62,57,540720,120
67,68,540720,120
65,57,540720,120
48,52,541380,180
55,52,541410,150
64,62,541440,120
62,58,542160,120
65,58,542160,120
67,69,542160,120
55,58,542160,120
48,53,542820,180
55,53,542850,150
64,63,542880,120
54,58,543600,240
52,49,543840,240
54,49,544080,240
55,58,544320,240
50,52,544560,240
43,52,544800,240
54,58,545040,240
52,52,545280,240
54,52,545520,240
55,58,545760,240
50,52,546000,240
43,52,546240,240
65,57,546480,120
67,68,546480,120
62,57,546480,120
55,57,546480,120
48,52,547140,180
55,52,547170,150
64,62,547200,120
62,58,547920,120
67,69,547920,120
65,58,547920,120
55,58,547920,120
48,53,548580,180
55,53,548610,150
64,63,548640,120
45,53,549240,240
48,53,549300,180
52,53,549330,150
64,63,549360,120
55,64,550080,240
43,54,550080,240
48,54,550320,240
52,54,550560,240
60,64,550800,240
48,54,550800,240
52,56,551040,240
55,56,551280,240
64,64,551520,240
52,54,551520,240
55,59,551760,240
60,59,552000,240
67,64,552240,240
55,54,552240,240
60,56,552480,240
64,56,552720,240
67,72,552960,120
43,64,554320,200
47,64,554340,180
50,64,554360,160
53,64,554380,140
55,76,554400,120
36,56,555840,240
43,44,556080,240
48,49,556320,240
36,57,556560,240
43,47,556800,240
48,48,557040,240
36,63,557280,240
43,51,557520,240
48,53,557760,240
36,69,558000,240
43,56,558240,240
48,57,558480,240
36,56,558720,240
43,44,558960,240
48,49,559200,240
36,57,559440,240
43,47,559680,240
48,48,559920,240
36,63,560160,240
43,51,560400,240
48,53,560640,240
36,69,560880,240
43,56,561120,240
48,57,561360,240
36,56,561600,240
43,44,561840,240
48,49,562080,240
36,57,562320,240
43,47,562560,240
48,48,562800,240
36,63,563040,240
43,51,563280,240
48,53,563520,240
36,69,563760,240
43,56,564000,240
48,57,564240,240
28,63,564480,120
40,69,564480,120
29,62,565200,120
41,69,565200,120
36,62,565920,120
48,69,565920,120
40,62,566640,120
52,69,566640,120
45,62,567270,210
52,62,567300,180
57,62,567330,150
60,69,567360,120
43,62,568680,240
50,62,568710,210
55,62,568740,180
59,62,568770,150
62,69,568800,120
36,60,569940,60
43,63,570000,60
48,63,570060,60
55,62,570240,1440
60,62,570240,1440
64,62,570240,1440
67,69,570240,1440
