note,velocity,position,duration
58,41,1,480
57,29,480,80
58,31,560,80
61,33,640,80
65,37,720,120
57,29,1200,80
58,31,1280,80
61,32,1360,80
65,37,1440,120
58,100,2880,120
90,92,3600,1440
82,78,3600,1440
94,92,3600,1440
75,51,5040,360
84,61,5040,360
87,61,5040,360
84,68,5400,120
77,57,5400,120
89,68,5400,120
90,71,5520,240
78,60,5520,240
84,71,5520,240
85,68,5760,240
77,57,5760,240
89,68,5760,240
57,27,6240,80
58,29,6320,80
61,30,6400,80
65,35,6480,120
57,27,6960,80
58,29,7040,80
61,30,7120,80
65,35,7200,120
56,100,8640,120
92,90,9360,1440
89,90,9360,1440
80,76,9360,1440
84,60,10800,360
75,51,10800,360
87,60,10800,360
84,65,11160,120
89,65,11160,120
77,55,11160,120
84,70,11280,240
90,70,11280,240
78,59,11280,240
77,56,11520,240
85,67,11520,240
89,67,11520,240
77,81,12240,480
69,81,12240,480
57,81,12960,480
65,81,12960,480
57,27,17760,80
58,29,17840,80
61,30,17920,80
65,34,18000,120
57,29,18480,80
58,30,18560,80
61,31,18640,80
65,36,18720,120
58,100,20160,120
90,92,20880,1080
94,92,20880,1080
82,78,20880,1080
87,58,21960,120
84,58,21960,120
75,49,21960,120
84,58,22080,240
75,49,22080,240
87,58,22080,240
75,51,22320,360
84,61,22320,360
87,61,22320,360
89,68,22680,120
84,68,22680,120
77,57,22680,120
84,71,22800,240
90,71,22800,240
78,60,22800,240
85,68,23040,240
89,68,23040,240
77,57,23040,240
57,29,23520,80
58,30,23600,80
61,32,23680,80
65,37,23760,120
57,29,24240,80
58,30,24320,80
61,32,24400,80
65,37,24480,120
48,100,25920,120
84,64,26640,1440
92,90,26640,1440
96,90,26640,1440
88,60,28080,360
79,43,28080,360
91,60,28080,360
80,46,28440,120
88,65,28440,120
92,65,28440,120
88,70,28560,240
82,50,28560,240
94,70,28560,240
80,47,28800,240
92,67,28800,240
89,67,28800,240
80,81,29520,480
72,68,29520,480
68,68,29520,480
77,81,29520,480
68,81,30240,480
56,68,30240,480
60,68,30240,480
65,81,30240,480
101,97,34560,960
99,68,35520,120
97,62,35640,120
92,65,35760,120
89,59,35880,120
87,62,36000,120
85,57,36120,120
80,58,36240,120
77,53,36360,120
75,55,36480,120
73,51,36600,120
68,52,36720,240
72,55,37440,120
73,52,37560,120
75,50,37680,120
77,47,37800,120
78,45,37920,120
80,42,38033,120
81,40,38160,120
81,50,38880,120
80,49,39000,120
79,47,39120,120
78,46,39240,120
77,44,39360,120
76,42,39480,120
75,41,39600,120
101,97,40320,960
99,68,41280,120
97,60,41400,120
92,65,41520,120
89,58,41640,120
87,62,41760,120
85,57,41880,120
80,58,42000,120
77,53,42120,120
75,55,42240,120
73,49,42360,120
68,52,42480,240
72,42,43200,120
73,41,43320,120
75,41,43440,120
77,40,43560,120
78,39,43680,120
80,38,43793,120
81,37,43920,120
81,42,44640,120
80,41,44760,120
79,40,44880,120
78,39,45000,120
77,37,45120,120
76,36,45240,120
75,35,45360,120
71,38,46080,1440
77,59,46080,960
75,53,47040,360
73,52,47400,110
71,38,47520,720
73,54,47520,720
70,56,48240,720
78,56,48240,1200
71,50,48960,1440
77,52,49440,230
77,51,49680,240
75,50,49920,240
73,49,50160,240
70,44,50400,720
73,44,50400,720
82,56,50400,720
68,44,51120,720
73,44,51120,720
82,62,51120,480
82,64,51600,231
67,44,51780,60
73,45,51840,1440
82,68,51840,480
75,57,52320,240
75,57,52560,240
77,51,52800,60
79,51,52860,60
77,56,52920,240
75,56,53160,110
73,49,53280,720
75,59,53280,720
72,53,54000,720
80,64,54000,960
73,55,54720,1440
79,60,54960,240
77,59,55200,240
79,60,55440,240
77,59,55680,360
75,56,56040,120
72,56,56160,1440
84,56,56160,720
84,64,56880,480
84,63,57360,230
84,68,57600,960
82,63,58560,360
80,63,58920,110
80,63,59040,720
85,75,59760,720
85,82,60480,480
84,78,60960,240
84,75,61200,240
82,71,61440,360
80,63,61800,120
89,80,61920,720
89,77,62640,480
89,81,63120,230
89,85,63360,720
87,72,64080,240
85,71,64320,240
82,70,64560,240
84,75,64800,720
82,71,65520,240
80,68,65760,240
77,63,66000,240
82,69,66240,240
80,64,66480,240
78,61,66720,240
78,55,66960,60
80,55,67020,60
78,63,67080,120
77,58,67200,360
76,59,67560,110
76,59,67680,720
77,63,68400,480
80,57,68880,240
68,57,69120,480
80,57,69180,660
72,63,69600,480
84,63,69840,240
70,63,70080,360
82,63,70080,360
68,63,70440,110
80,63,70440,110
68,63,70560,720
80,63,70560,1440
73,75,71280,720
85,75,71280,720
80,60,72000,1080
73,75,72000,480
85,75,72000,480
72,78,72480,240
84,78,72480,240
72,75,72720,360
84,75,72720,360
70,71,73080,120
82,71,73080,120
68,63,73200,240
80,63,73200,240
80,80,73440,720
77,68,73440,720
89,80,73440,720
77,65,74160,480
80,77,74160,480
89,77,74160,480
77,62,74640,230
80,74,74640,230
89,74,74640,230
77,69,74880,720
80,82,74880,720
89,82,74880,720
78,67,75600,240
75,56,75600,240
87,67,75600,240
73,55,75840,360
78,65,75840,360
85,65,75840,360
70,54,76200,120
78,64,76200,120
82,64,76200,120
72,52,76320,720
80,62,76320,720
84,62,76320,720
70,54,77040,240
78,64,77040,240
82,64,77040,240
68,57,77280,240
77,68,77280,240
80,68,77280,240
70,61,77520,240
77,72,77520,240
82,72,77520,240
77,77,77760,480
71,65,77760,480
83,77,77760,480
77,75,78240,240
70,63,78240,240
82,75,78240,240
71,66,78480,1200
77,78,78480,1200
83,78,78480,1200
70,64,79680,240
77,76,79680,240
82,76,79680,240
71,68,79920,240
77,81,79920,240
83,81,79920,240
70,66,80160,240
77,78,80160,240
82,78,80160,240
71,66,80400,240
77,78,80400,240
83,78,80400,240
71,68,80640,480
78,81,80640,480
83,81,80640,480
70,69,81120,240
78,82,81120,240
82,82,81120,240
94,96,81360,1080
90,96,81360,1080
82,81,81360,1080
84,80,82440,110
78,80,82440,110
72,68,82440,110
72,68,82560,230
78,80,82560,230
84,80,82560,230
72,79,82800,360
78,93,82800,360
84,93,82800,360
89,89,83160,120
80,89,83160,120
77,75,83160,120
87,92,83280,240
78,92,83280,240
75,78,83280,240
85,104,83520,120
77,104,83520,120
73,88,83520,120
65,97,84240,120
73,75,84360,120
80,79,84480,120
77,83,84600,120
85,87,84720,120
94,91,84840,120
84,86,84960,240
92,96,84960,240
66,97,85680,120
72,75,85800,120
80,80,85920,120
78,84,86040,120
84,88,86160,120
92,93,86280,120
85,87,86400,240
89,97,86400,240
65,97,87120,120
73,75,87240,120
80,79,87360,120
77,83,87480,120
85,87,87600,120
94,91,87720,120
84,86,87840,240
92,96,87840,240
66,97,88560,120
72,75,88680,120
80,80,88800,120
78,84,88920,120
84,88,89040,120
92,93,89160,120
85,87,89280,240
89,97,89280,240
65,97,90000,120
73,75,90120,120
80,78,90240,120
77,75,90360,120
85,79,90480,120
92,75,90600,120
85,78,90720,120
77,75,90840,120
80,80,90960,120
73,75,91080,120
65,79,91200,120
68,75,91320,120
61,78,91440,120
53,77,91560,120
56,82,91680,120
49,79,91800,120
41,87,91920,120
49,85,92040,120
97,101,92880,720
85,85,92880,720
57,29,95520,80
58,31,95600,80
61,33,95680,80
65,38,95760,120
57,29,96240,80
58,31,96320,80
61,32,96400,80
65,38,96480,120
58,100,97920,120
94,92,98640,1440
90,92,98640,1440
82,78,98640,1440
75,51,100080,360
84,61,100080,360
87,61,100080,360
77,57,100440,120
84,68,100440,120
89,68,100440,120
78,60,100560,240
84,71,100560,240
90,71,100560,240
77,57,100800,240
85,68,100800,240
89,68,100800,240
57,27,101280,80
58,29,101360,80
61,30,101440,80
65,35,101520,120
57,27,102000,80
58,29,102080,80
61,30,102160,80
65,35,102240,120
56,100,103680,120
92,90,104400,1440
89,90,104400,1440
80,76,104400,1440
75,51,105840,144
84,60,105840,144
87,60,105840,144
84,60,105984,144
76,51,105984,144
88,60,105984,144
77,55,106128,144
84,65,106128,144
89,65,106128,144
80,61,106272,144
84,72,106272,144
92,72,106272,144
90,70,106416,144
84,70,106416,144
78,70,106416,144
77,56,106560,240
85,67,106560,240
89,67,106560,240
69,81,107280,480
77,81,107280,480
57,81,108000,480
65,81,108000,480
57,27,112800,80
58,29,112880,80
61,30,112960,80
65,35,113040,120
57,29,113520,80
58,30,113600,80
61,31,113680,80
65,35,113760,120
58,100,115200,120
82,78,115920,1080
90,92,115920,1080
94,92,115920,1080
87,58,117000,120
84,58,117000,120
75,49,117000,120
87,58,117120,240
84,58,117120,240
75,49,117120,240
75,51,117360,360
84,61,117360,360
87,61,117360,360
84,68,117720,120
89,68,117720,120
77,57,117720,120
84,71,117840,240
78,60,117840,240
90,71,117840,240
85,68,118080,240
77,57,118080,240
89,68,118080,240
57,29,118560,80
58,30,118640,80
61,32,118720,80
65,37,118800,120
57,29,119280,80
58,30,119360,80
61,32,119440,80
65,37,119520,120
48,100,120960,120
84,76,121680,1440
92,90,121680,1440
96,90,121680,1440
91,73,123120,180
97,73,123120,180
85,62,123120,180
84,60,123300,180
91,71,123300,180
96,71,123300,180
89,67,123480,180
77,56,123480,180
84,67,123480,180
91,68,123660,180
84,68,123660,180
79,57,123660,180
92,73,123840,240
84,73,123840,240
80,62,123840,240
72,81,124560,480
80,81,124560,480
68,68,124560,480
77,81,124560,480
60,81,125280,480
68,81,125280,480
56,68,125280,480
65,81,125280,480
41,94,127440,720
38,50,128160,90
39,51,128240,90
41,51,128320,90
39,52,128400,90
41,53,128480,90
39,55,128560,90
41,56,128640,90
39,56,128720,90
41,57,128800,90
39,58,128880,70
41,59,128940,70
39,60,129000,70
41,61,129060,60
39,62,129120,60
41,62,129180,60
39,62,129240,60
41,63,129300,60
39,64,129360,90
38,73,129440,90
39,73,129520,90
101,97,129600,960
99,68,130560,120
97,61,130680,120
92,65,130800,120
89,59,130920,120
87,62,131040,120
85,56,131160,120
80,58,131280,120
77,53,131400,120
75,55,131520,120
73,50,131640,120
68,52,131760,240
72,55,132480,120
73,52,132600,120
75,50,132720,120
77,47,132840,120
78,45,132960,120
80,42,133073,120
81,40,133200,120
81,50,133920,120
80,49,134040,120
79,47,134160,120
78,46,134280,120
77,44,134400,120
76,42,134520,120
75,41,134640,120
101,97,135360,960
99,68,136320,120
97,61,136440,120
92,65,136560,120
89,59,136680,120
87,62,136800,120
85,57,136920,120
80,58,137040,120
77,53,137160,120
75,55,137280,120
73,51,137400,120
68,52,137520,240
72,42,138240,120
73,41,138360,120
75,41,138480,120
77,40,138600,120
78,39,138720,120
80,38,138833,120
81,37,138960,120
81,42,139680,120
80,41,139800,120
79,40,139920,120
78,39,140040,120
77,37,140160,120
76,36,140280,120
75,35,140400,240
71,40,141120,1440
77,59,141120,960
75,53,142080,360
73,52,142440,110
71,43,142560,720
73,58,142560,720
70,56,143280,720
78,56,143280,1200
71,50,144000,1440
77,52,144480,240
77,51,144720,240
75,50,144960,240
73,49,145200,230
70,44,145440,720
73,44,145440,720
82,56,145440,720
68,44,146160,720
73,44,146160,720
82,62,146160,480
82,64,146640,240
67,44,146820,60
73,45,146880,1440
82,68,146880,480
75,57,147360,240
75,57,147600,240
77,51,147840,60
79,51,147900,60
77,56,147960,240
75,56,148200,110
73,49,148320,720
75,59,148320,720
72,53,149040,720
80,64,149040,960
73,55,149760,1440
79,60,150000,240
77,59,150240,240
79,60,150480,240
77,59,150720,360
75,56,151080,120
72,56,151200,1440
84,56,151200,720
84,64,151920,480
84,63,152400,230
84,68,152640,960
82,63,153600,360
80,63,153960,110
80,63,154080,720
85,75,154800,720
85,82,155520,480
84,78,156000,230
84,75,156240,240
82,71,156480,360
80,63,156840,120
89,80,156960,720
89,77,157680,480
89,81,158160,230
89,85,158400,720
87,72,159120,240
85,71,159360,240
82,70,159600,240
84,75,159840,720
82,71,160560,240
80,68,160800,240
77,63,161040,240
82,69,161280,240
80,64,161520,240
78,61,161760,230
78,55,162000,60
80,55,162060,60
78,63,162120,120
77,58,162240,360
76,59,162600,110
76,59,162720,720
77,63,163440,480
80,57,163920,240
68,57,164160,480
80,57,164220,660
72,63,164640,480
84,63,164880,240
70,63,165120,360
82,63,165120,360
68,63,165480,110
80,63,165480,110
68,63,165600,720
80,63,165600,1440
73,75,166320,720
85,75,166320,720
78,60,167040,720
80,60,167040,720
73,75,167040,360
85,75,167040,360
84,71,167400,120
72,71,167400,120
80,70,167520,240
78,70,167520,240
72,70,167520,240
84,70,167520,240
80,60,167760,360
78,60,167760,360
72,75,167760,360
84,75,167760,360
70,71,168120,120
82,71,168120,120
78,60,168240,240
68,63,168240,240
80,63,168240,240
80,80,168480,720
77,68,168480,720
89,80,168480,720
77,65,169200,480
80,77,169200,480
89,77,169200,480
77,66,169680,230
80,78,169680,230
89,78,169680,230
77,69,169920,720
80,82,169920,720
89,82,169920,720
78,67,170640,240
75,56,170640,240
87,67,170640,240
73,55,170880,360
78,65,170880,360
85,65,170880,360
70,54,171240,120
78,64,171240,120
82,64,171240,120
72,52,171360,720
80,62,171360,720
84,62,171360,720
70,54,172080,240
78,64,172080,240
82,64,172080,240
68,57,172320,240
77,68,172320,240
80,68,172320,240
70,61,172560,240
77,72,172560,240
82,72,172560,240
77,77,172800,480
71,65,172800,480
83,77,172800,480
77,75,173280,240
70,63,173280,240
82,75,173280,240
71,66,173520,1200
77,78,173520,1200
83,78,173520,1200
70,64,174720,240
77,76,174720,240
82,76,174720,240
71,68,174960,240
77,81,174960,240
83,81,174960,240
70,66,175200,240
77,78,175200,240
82,78,175200,240
71,66,175440,240
77,78,175440,240
83,78,175440,240
71,68,175680,480
78,81,175680,480
83,81,175680,480
70,69,176160,240
78,82,176160,240
82,82,176160,240
94,95,176400,1080
90,95,176400,1080
82,80,176400,1080
84,80,177480,110
78,80,177480,110
72,68,177480,110
72,68,177600,230
78,80,177600,230
84,80,177600,230
72,79,177840,360
78,93,177840,360
84,93,177840,360
89,89,178200,120
80,89,178200,120
77,75,178200,120
87,92,178320,240
78,92,178320,240
75,78,178320,240
85,101,178560,120
77,101,178560,120
73,85,178560,120
65,97,179280,120
73,75,179400,120
80,79,179520,120
77,83,179640,120
85,87,179760,120
94,91,179880,120
84,86,180000,240
92,96,180000,240
66,97,180720,120
72,75,180840,120
80,80,180960,120
78,84,181080,120
84,88,181200,120
92,93,181320,120
85,87,181440,240
89,97,181440,240
65,97,182160,120
73,75,182280,120
80,79,182400,120
77,83,182520,120
85,87,182640,120
94,91,182760,120
84,86,182880,240
92,96,182880,240
66,97,183600,120
72,75,183720,120
80,80,183840,120
78,84,183960,120
84,88,184080,120
92,93,184200,120
85,97,184320,240
89,97,184320,240
65,97,185040,120
73,75,185160,120
80,78,185280,120
77,75,185400,120
85,79,185520,120
92,75,185640,120
85,78,185760,120
77,75,185880,120
80,80,186000,120
73,75,186120,120
65,79,186240,120
68,75,186360,120
61,78,186480,120
53,77,186600,120
56,82,186720,120
49,79,186840,120
41,87,186960,120
49,85,187080,120
97,101,187920,720
85,85,187920,720
52,44,190080,720
61,52,190080,720
64,52,190080,720
54,37,190800,720
61,44,190800,960
66,44,190800,2160
59,57,191760,240
61,57,192000,240
64,60,192240,240
62,56,192480,240
61,56,192720,230
52,44,192960,720
61,52,192960,720
64,52,192960,720
54,37,193680,720
61,44,193680,960
66,44,193680,2160
59,57,194640,240
61,57,194880,240
64,60,195120,240
62,56,195360,360
61,56,195720,110
56,37,195840,1200
61,44,195840,720
64,44,195840,1440
59,37,196560,480
57,32,197040,240
61,30,197280,1440
73,53,198720,600
71,45,199320,60
73,45,199380,60
71,50,199440,360
69,47,199800,120
71,50,199920,240
73,53,200160,360
74,50,200520,120
73,48,200640,120
71,43,200760,60
73,43,200820,60
71,52,200880,360
69,48,201240,120
71,47,201360,240
73,39,201600,120
61,29,201720,120
73,29,201840,120
68,29,201960,120
73,29,202080,120
68,29,202200,120
80,29,202320,120
73,29,202440,120
80,29,202560,120
73,29,202680,120
85,29,202800,120
80,29,202920,120
85,29,203040,120
80,29,203160,120
92,29,203280,120
85,29,203400,120
92,29,203520,120
85,29,203640,120
97,39,203760,120
52,44,204480,720
61,52,204480,1680
64,52,204480,720
54,37,205200,720
66,44,205200,2160
59,57,206160,240
61,57,206400,240
64,60,206640,240
62,56,206880,240
61,56,207120,240
52,44,207360,720
61,52,207360,1680
64,52,207360,720
54,37,208080,2880
66,44,208080,2160
59,57,209040,240
61,57,209280,240
64,60,209520,240
62,56,209760,360
61,56,210120,50
61,50,210180,60
69,56,210240,240
66,53,210480,240
62,51,210720,240
56,37,210960,1200
61,44,210960,720
64,44,210960,1440
59,37,211680,480
57,32,212160,240
61,30,212400,1440
73,42,214560,1560
75,42,216120,120
78,43,216240,120
76,41,216360,120
73,39,216480,120
69,39,216600,120
68,35,216720,30
68,35,216780,60
80,43,216840,480
78,37,217320,60
80,37,217380,60
78,43,217440,360
76,39,217800,120
78,39,217920,240
80,42,218160,360
81,40,218520,120
80,40,218640,120
78,37,218760,60
80,37,218820,60
78,44,218880,360
76,33,219240,120
78,31,219360,240
80,31,219600,1080
68,25,220680,120
80,25,220800,120
75,25,220920,120
80,25,221040,120
75,25,221160,120
87,21,221280,120
80,21,221400,120
87,21,221520,120
80,21,221640,120
92,28,221760,120
80,44,222000,240
78,44,222240,240
76,45,222480,960
67,34,222720,120
68,34,222840,120
71,34,222960,80
69,34,223040,80
68,34,223120,80
68,43,223200,960
76,42,223440,240
75,42,223680,240
73,44,223920,240
67,36,224160,120
68,32,224280,120
71,36,224400,80
69,36,224480,80
68,32,224560,80
68,44,224640,960
80,43,224880,240
78,40,225120,240
76,46,225360,960
67,38,225600,120
68,34,225720,120
71,38,225840,80
69,38,225920,80
68,35,226000,80
68,42,226080,720
76,43,226320,240
75,41,226560,240
73,47,226800,240
72,37,227040,120
73,37,227160,120
76,37,227280,80
74,37,227360,80
73,34,227440,80
73,41,227520,960
85,46,227760,240
83,44,228000,240
81,53,228240,960
72,32,228480,120
73,30,228600,120
76,32,228720,80
74,32,228800,80
73,30,228880,80
73,37,228960,960
81,38,229200,240
80,36,229440,240
78,40,229680,240
72,27,229920,120
73,28,230040,120
76,30,230160,80
74,30,230240,80
73,27,230320,80
73,38,230400,960
85,40,230640,240
83,37,230880,240
81,45,231120,960
72,37,231360,120
73,37,231480,120
76,37,231600,80
74,37,231680,80
73,34,231760,80
73,42,231840,960
81,44,232080,240
80,42,232320,240
78,47,232560,960
72,37,232800,120
73,34,232920,120
76,37,233040,80
74,37,233120,80
73,34,233200,80
73,41,233280,720
80,43,233520,240
81,42,233760,240
80,50,234000,240
67,32,234240,120
68,30,234360,120
71,32,234480,80
69,32,234560,80
68,30,234640,80
68,37,234720,960
78,47,234960,240
76,47,235200,240
75,53,235440,960
67,38,235680,120
68,35,235800,120
71,38,235920,80
69,38,236000,80
68,35,236080,80
68,46,236160,960
75,47,236400,240
73,44,236640,240
72,52,236880,240
67,41,237120,120
68,39,237240,120
71,41,237360,80
69,41,237440,80
68,38,237520,80
68,52,237600,960
78,43,237840,240
76,41,238080,240
75,47,238320,240
70,38,238560,120
71,36,238680,120
75,38,238800,80
73,38,238880,80
71,35,238960,80
71,41,239040,720
76,34,239280,240
78,34,239520,240
68,35,239760,120
71,37,239880,120
76,40,240000,120
80,42,240120,120
78,44,240240,120
76,42,240360,120
80,38,240480,120
83,40,240600,120
88,43,240720,120
92,46,240840,120
90,50,240960,120
88,47,241080,120
83,44,241200,120
80,43,241320,120
78,42,241440,120
76,41,241560,120
71,40,241680,120
68,39,241800,120
66,38,241920,120
64,37,242040,120
59,36,242160,120
68,39,242280,120
66,38,242400,120
64,37,242520,120
61,36,242640,120
64,34,242760,120
66,37,242880,120
69,39,243000,120
73,41,243120,120
76,43,243240,120
78,46,243360,120
81,48,243480,120
85,50,243600,120
88,51,243720,120
90,49,243840,120
93,47,243960,120
92,50,244080,120
90,49,244200,120
87,49,244320,120
81,48,244440,120
80,47,244560,120
78,46,244680,120
75,45,244800,120
71,44,244920,120
75,45,245040,120
73,42,245160,120
71,39,245280,120
69,37,245400,120
68,35,245520,120
71,37,245640,120
76,40,245760,120
80,42,245880,120
78,44,246000,120
76,42,246120,120
80,38,246240,120
83,40,246360,120
88,43,246480,120
92,46,246600,120
90,50,246720,120
88,47,246840,120
83,44,246960,120
80,43,247080,120
78,42,247200,120
76,41,247320,120
71,40,247440,120
68,39,247560,120
66,38,247680,120
64,37,247800,120
59,36,247920,120
68,39,248040,120
66,38,248160,120
64,37,248280,120
61,36,248400,120
64,34,248520,113
66,37,248640,120
69,39,248760,120
73,41,248880,120
76,43,249000,120
78,46,249120,120
81,48,249240,120
85,50,249360,120
88,51,249480,120
90,49,249600,120
93,47,249720,120
92,47,249840,120
90,48,249960,120
87,49,250080,120
81,50,250200,120
80,51,250320,120
78,52,250440,120
75,53,250560,120
71,52,250680,120
75,51,250800,120
73,51,250920,120
71,53,251040,120
69,57,251160,120
68,56,251280,120
71,59,251400,120
76,61,251520,120
80,63,251640,120
78,65,251760,120
76,63,251880,120
80,61,252000,120
83,61,252120,120
88,64,252240,120
92,66,252360,120
90,69,252480,120
88,65,252600,120
84,62,252720,120
81,61,252840,120
78,60,252960,120
76,60,253080,120
72,59,253200,120
69,58,253320,120
66,57,253440,120
64,56,253560,120
60,55,253680,120
57,54,253800,120
54,53,253920,120
52,52,254040,120
56,52,254160,120
59,51,254280,120
64,52,254400,120
68,53,254520,120
66,54,254640,120
64,52,254760,120
68,49,254880,120
71,51,255000,120
76,54,255120,120
80,57,255240,120
78,59,255360,120
76,57,255480,120
72,59,255600,120
69,61,255720,120
66,62,255840,120
64,64,255960,120
60,66,256080,120
57,67,256200,120
54,69,256320,120
52,71,256440,120
48,73,256560,120
45,74,256680,120
42,76,256800,120
40,78,256920,120
47,73,257280,120
52,68,257400,120
57,68,257520,120
56,68,257640,120
59,73,257760,120
64,67,257880,120
69,67,258000,120
68,68,258120,120
71,72,258240,120
76,73,258360,120
81,76,258480,120
80,71,258600,120
83,71,258720,120
88,71,258840,120
93,71,258960,120
92,71,259080,120
88,77,259200,120
83,71,259320,120
81,71,259440,120
80,71,259560,120
76,71,259680,120
71,71,259800,120
69,71,259920,120
68,72,260040,120
64,73,260160,120
59,75,260280,120
57,77,260400,120
56,78,260520,120
52,80,260640,120
47,81,260760,120
45,82,260880,120
44,84,261000,120
40,86,261120,120
35,88,261240,120
52,55,262800,720
61,65,262800,720
64,65,262800,720
54,46,263520,720
61,55,263520,960
66,55,263520,2160
59,71,264480,240
61,71,264720,240
64,75,264960,240
62,70,265200,360
61,64,265560,110
52,55,265680,720
61,65,265680,720
64,65,265680,720
54,46,266400,2880
61,55,266400,960
66,55,266400,2160
59,67,267360,240
61,67,267600,240
64,72,267840,240
62,66,268080,360
61,57,268440,50
61,54,268500,540
69,63,268560,240
66,62,268800,480
62,57,269040,240
56,52,269280,1200
61,52,269280,720
64,52,269280,1440
59,43,270000,480
57,37,270480,240
61,35,270720,1440
73,53,272160,600
71,45,272760,60
73,45,272820,60
71,50,272880,360
69,47,273240,120
71,50,273360,240
73,53,273600,360
74,50,273960,120
73,48,274080,120
71,43,274200,60
73,43,274260,60
71,52,274320,360
69,48,274680,120
71,47,274800,240
73,39,275040,120
61,29,275160,120
73,29,275280,120
68,29,275400,120
73,29,275520,120
68,29,275640,120
80,29,275760,120
73,29,275880,120
80,29,276000,120
73,29,276120,120
85,29,276240,120
80,29,276360,120
85,29,276480,120
80,29,276600,120
92,29,276720,120
85,29,276840,120
92,29,276960,120
85,29,277080,120
97,39,277200,120
52,37,277920,720
61,44,277920,1680
64,44,277920,720
54,31,278640,720
66,37,278640,2160
59,48,279600,240
61,48,279840,240
64,51,280080,240
62,47,280320,360
61,47,280680,120
52,37,280800,720
61,44,280800,1680
64,44,280800,720
54,31,281520,2880
66,37,281520,2160
59,48,282480,240
61,48,282720,240
64,51,282960,240
62,47,283200,240
61,47,283440,170
61,40,283620,660
69,36,283680,120
68,33,283800,120
71,39,283920,120
69,38,284040,120
66,36,284160,120
62,35,284280,120
56,31,284400,1200
61,37,284400,720
64,37,284400,1440
59,31,285120,480
57,27,285600,240
61,25,285840,1440
73,42,288000,1560
75,42,289560,120
78,43,289680,120
76,41,289800,120
73,39,289920,120
69,39,290040,120
68,35,290160,30
68,35,290220,60
80,43,290280,480
78,37,290760,60
80,37,290820,60
78,43,290880,360
76,39,291240,120
78,39,291360,240
80,42,291600,360
81,40,291960,120
80,40,292080,120
78,37,292200,60
80,37,292260,60
78,44,292320,360
76,33,292680,120
78,31,292800,240
80,31,293040,1080
68,25,294120,120
80,25,294240,120
75,25,294360,120
80,25,294480,120
75,25,294600,120
87,21,294720,120
80,21,294840,120
87,21,294960,120
80,21,295080,120
92,28,295200,120
80,44,295440,240
78,44,295680,240
76,45,295920,960
67,34,296160,120
68,31,296280,120
71,34,296400,80
69,34,296480,80
68,32,296560,80
68,43,296640,960
76,42,296880,240
75,39,297120,240
73,44,297360,240
67,36,297600,120
68,33,297720,120
71,36,297840,80
69,36,297920,80
68,33,298000,80
68,44,298080,960
80,43,298320,240
78,39,298560,240
76,46,298800,960
67,38,299040,120
68,35,299160,120
71,38,299280,80
69,38,299360,80
68,36,299440,80
68,42,299520,720
76,43,299760,240
75,38,300000,240
73,47,300240,240
72,37,300480,120
73,35,300600,120
76,37,300720,80
74,37,300800,80
73,35,300880,70
73,41,300960,960
85,46,301200,240
83,43,301440,240
81,53,301680,960
72,32,301920,120
73,30,302040,120
76,32,302160,80
74,32,302240,80
73,30,302320,70
73,37,302400,960
81,38,302640,240
80,36,302880,240
78,40,303120,240
72,27,303360,120
73,27,303480,120
76,30,303600,80
74,30,303680,80
73,29,303760,70
73,38,303840,960
85,40,304080,240
83,38,304320,240
81,45,304560,960
72,37,304800,120
73,37,304920,120
76,37,305040,80
74,37,305120,80
73,34,305200,70
73,42,305280,960
81,44,305520,240
80,40,305760,240
78,47,306000,960
72,37,306240,120
73,35,306360,120
76,37,306480,80
74,37,306560,80
73,35,306640,70
73,41,306720,720
80,43,306960,240
81,40,307200,240
80,50,307440,240
67,32,307680,120
68,30,307800,120
71,32,307920,80
69,32,308000,80
68,30,308080,70
68,37,308160,960
78,47,308400,240
76,44,308640,240
75,53,308880,960
67,38,309120,120
68,38,309240,120
71,38,309360,80
69,38,309440,80
68,35,309520,70
68,46,309600,960
75,47,309840,240
73,44,310080,240
72,52,310320,240
67,41,310560,120
68,38,310680,120
71,41,310800,80
69,41,310880,80
68,38,310960,70
68,52,311040,960
78,43,311280,240
76,39,311520,240
75,47,311760,240
70,38,312000,120
71,36,312120,120
75,38,312240,80
73,38,312320,80
71,35,312400,70
71,41,312480,720
76,34,312720,240
78,34,312960,240
68,35,313200,120
71,37,313320,120
76,40,313440,120
80,42,313560,120
78,44,313680,120
76,42,313800,120
80,38,313920,120
83,40,314040,120
88,43,314160,120
92,46,314280,120
90,50,314400,120
88,47,314520,120
83,44,314640,120
80,43,314760,120
78,42,314880,120
76,41,315000,120
71,40,315120,120
68,39,315240,120
66,38,315360,120
64,37,315480,120
59,36,315600,120
68,39,315720,120
66,38,315840,120
64,37,315960,120
61,36,316080,120
64,34,316200,120
66,37,316320,120
69,39,316440,120
73,41,316560,120
76,43,316680,120
78,46,316800,120
81,48,316920,120
85,50,317040,120
88,51,317160,120
90,49,317280,120
93,47,317400,120
92,50,317520,120
90,49,317640,120
87,49,317760,120
81,48,317880,120
80,47,318000,120
78,46,318120,120
75,45,318240,120
71,44,318360,120
75,45,318480,120
73,42,318600,120
71,39,318720,120
69,37,318840,120
68,35,318960,120
71,37,319080,120
76,40,319200,120
80,42,319320,120
78,44,319440,120
76,42,319560,120
80,38,319680,120
83,40,319800,120
88,43,319920,120
92,46,320040,120
90,50,320160,120
88,47,320280,120
83,44,320400,120
80,43,320520,120
78,42,320640,120
76,41,320760,120
71,40,320880,120
68,39,321000,120
66,38,321120,120
64,37,321240,120
59,36,321360,120
68,39,321480,120
66,38,321600,120
64,37,321720,120
61,36,321840,120
64,34,321960,113
66,37,322080,120
69,39,322200,120
73,41,322320,120
76,43,322440,120
78,46,322560,120
81,48,322680,120
85,50,322800,120
88,51,322920,120
90,49,323040,120
93,47,323160,120
92,47,323280,120
90,48,323400,120
87,49,323520,120
81,50,323640,120
80,51,323760,120
78,52,323880,120
75,53,324000,120
71,52,324120,120
75,51,324240,120
73,51,324360,120
71,53,324480,120
69,57,324600,120
68,56,324720,120
71,59,324840,120
76,61,324960,120
80,63,325080,120
78,65,325200,120
76,63,325320,120
80,61,325440,120
83,61,325560,120
88,64,325680,120
92,66,325800,120
90,69,325920,120
88,65,326040,120
84,62,326160,120
81,61,326280,120
78,60,326400,120
76,60,326520,120
72,59,326640,120
69,58,326760,120
66,57,326880,120
64,56,327000,120
60,55,327120,120
57,54,327240,120
54,53,327360,120
52,52,327480,120
56,52,327600,120
59,51,327720,120
64,52,327840,120
68,53,327960,120
66,54,328080,120
64,52,328200,120
68,49,328320,120
71,51,328440,120
76,54,328560,120
80,57,328680,120
78,59,328800,120
76,57,328920,120
72,59,329040,120
69,61,329160,120
66,62,329280,120
64,64,329400,120
60,66,329520,120
57,67,329640,120
54,69,329760,120
52,71,329880,120
48,73,330000,120
45,74,330120,120
42,76,330240,120
40,78,330360,120
47,73,330720,120
52,68,330840,120
57,68,330960,120
56,68,331080,120
59,73,331200,120
64,67,331320,120
69,67,331440,120
68,68,331560,120
71,72,331680,120
76,73,331800,120
81,76,331920,120
80,71,332040,120
83,71,332160,120
88,71,332280,120
93,71,332400,120
92,71,332520,120
88,77,332640,120
83,71,332760,120
81,71,332880,120
80,71,333000,120
76,71,333120,120
71,71,333240,120
69,71,333360,120
68,72,333480,120
64,73,333600,120
59,75,333720,120
57,77,333840,120
56,78,333960,120
52,80,334080,120
47,81,334200,120
45,82,334320,120
44,84,334440,120
40,86,334560,120
35,88,334680,120
47,73,336480,120
53,68,336600,120
57,68,336720,120
56,68,336840,120
59,73,336960,120
65,67,337080,120
69,67,337200,120
68,68,337320,120
71,72,337440,120
77,73,337560,120
81,76,337680,120
80,71,337800,120
83,71,337920,120
89,71,338040,120
93,71,338160,120
92,71,338280,120
89,77,338400,120
83,71,338520,120
81,71,338640,120
80,71,338760,120
77,71,338880,120
71,71,339000,120
69,71,339120,120
68,72,339240,120
65,73,339360,120
59,75,339480,120
57,77,339600,120
56,78,339720,120
53,80,339840,120
47,81,339960,120
45,82,340080,120
44,84,340200,120
41,86,340320,120
35,88,340440,120
70,66,342240,120
68,67,342360,120
71,68,342480,120
77,69,342600,120
82,71,342720,120
80,72,342840,120
83,73,342960,120
89,74,343080,120
94,75,343200,120
92,77,343320,120
82,80,343440,120
88,74,343560,120
92,77,343680,120
91,81,343800,120
88,80,343920,120
82,78,344040,120
80,76,344160,120
79,76,344280,120
76,76,344400,120
70,76,344520,120
68,74,344640,120
67,73,344760,120
57,73,344880,120
63,73,345000,120
68,74,345120,120
66,75,345240,120
69,76,345360,120
75,76,345480,120
80,77,345600,120
78,76,345720,120
81,79,345840,120
87,81,345960,120
92,84,346080,120
90,86,346200,120
80,88,346320,120
85,87,346440,120
90,87,346560,120
89,85,346680,120
85,83,346800,120
80,82,346920,120
78,80,347040,120
77,78,347160,120
73,76,347280,120
68,74,347400,120
66,72,347520,120
65,71,347640,120
60,71,347760,120
66,71,347880,120
71,71,348000,120
69,71,348120,120
72,71,348240,120
78,71,348360,120
83,69,348480,120
81,71,348600,120
84,73,348720,120
90,75,348840,120
95,76,348960,120
93,78,349080,120
83,80,349200,120
89,82,349320,120
93,82,349440,120
92,80,349560,120
89,79,349680,120
83,78,349800,120
81,77,349920,120
80,76,350040,120
77,75,350160,120
71,74,350280,120
69,73,350400,120
68,72,350520,120
58,71,350640,120
64,71,350760,120
69,71,350880,120
67,71,351000,120
70,71,351120,120
76,71,351240,120
81,69,351360,120
79,71,351480,120
82,73,351600,120
88,75,351720,120
93,76,351840,120
91,78,351960,120
81,80,352080,120
86,82,352200,120
91,82,352320,120
90,80,352440,120
86,79,352560,120
81,78,352680,120
79,76,352800,120
78,75,352920,120
74,73,353040,120
69,71,353160,120
67,70,353280,120
66,68,353400,120
62,66,353520,240
67,66,353520,240
74,66,353520,240
73,58,353760,120
74,55,353880,120
77,58,354000,80
75,58,354080,80
74,55,354160,80
74,67,354240,960
86,66,354480,240
78,66,354480,480
84,64,354720,240
79,70,354960,240
82,70,354960,240
73,59,355200,120
74,55,355320,120
77,59,355440,80
75,59,355520,80
74,55,355600,80
74,69,355680,960
70,65,355920,240
82,65,355920,240
69,62,356160,240
81,62,356160,240
67,69,356400,240
79,69,356400,240
73,59,356640,120
74,55,356760,120
77,59,356880,80
75,59,356960,80
74,55,357040,80
74,70,357120,960
86,65,357360,240
78,65,357360,480
84,65,357600,240
79,69,357840,240
82,69,357840,240
66,58,358080,120
67,53,358200,120
70,58,358320,80
68,58,358400,80
67,55,358480,80
67,70,358560,960
79,63,358800,240
74,63,358800,480
77,63,359040,240
72,71,359280,240
75,71,359280,240
78,57,359520,120
79,57,359640,120
82,57,359760,80
80,57,359840,80
79,54,359920,80
79,71,360000,960
91,63,360240,240
83,63,360240,480
89,63,360480,240
84,71,360720,240
87,71,360720,240
78,59,360960,120
79,56,361080,120
82,59,361200,80
80,59,361280,80
79,55,361360,80
79,70,361440,720
75,64,361680,240
87,64,361680,240
74,64,361920,240
86,64,361920,240
79,70,362160,240
72,70,362160,240
84,70,362160,240
66,59,362400,120
67,55,362520,120
70,59,362640,80
68,59,362720,80
67,56,362800,80
67,71,362880,960
79,56,363120,240
71,56,363120,480
77,55,363360,240
72,60,363600,240
75,60,363600,240
62,53,363840,120
63,53,363960,120
67,53,364080,80
65,53,364160,80
63,50,364240,80
63,61,364320,960
75,58,364560,240
67,58,364560,480
73,56,364800,240
68,63,365040,240
71,63,365040,240
74,54,365280,120
75,51,365400,120
78,54,365520,80
76,54,365600,80
75,51,365680,80
75,62,365760,960
87,58,366000,240
82,58,366000,480
85,59,366240,240
80,67,366480,240
83,67,366480,240
74,59,366720,120
75,56,366840,120
78,59,366960,80
76,59,367040,80
75,55,367120,73
75,68,367200,720
71,63,367440,240
83,63,367440,240
70,63,367680,240
82,63,367680,240
75,69,367920,240
68,69,367920,240
80,69,367920,240
74,60,368160,120
75,56,368280,120
78,60,368400,80
76,60,368480,80
75,56,368560,71
75,74,368640,960
87,65,368880,240
82,65,368880,480
85,65,369120,240
80,76,369360,240
83,76,369360,240
74,66,369600,120
75,61,369720,120
78,66,369840,80
76,66,369920,80
75,61,370000,74
75,82,370080,720
71,73,370320,240
83,73,370320,240
70,73,370560,240
82,73,370560,240
76,87,370800,240
68,73,370800,240
80,87,370800,240
80,70,371460,60
92,95,371520,240
90,81,371760,120
88,76,371880,120
83,79,372000,120
80,72,372120,120
78,76,372240,120
76,71,372360,120
71,74,372480,120
68,68,372600,120
66,71,372720,120
64,66,372840,120
59,69,372960,240
75,55,373680,120
76,52,373800,120
78,50,373920,120
80,44,374040,120
81,45,374160,120
83,42,374280,120
84,40,374400,240
84,50,375120,120
83,46,375240,120
81,47,375360,120
80,43,375480,120
78,44,375600,120
76,42,375720,120
75,41,375840,240
80,81,376500,60
92,115,376560,960
90,81,377520,120
88,73,377640,120
83,79,377760,120
80,73,377880,120
78,76,378000,120
76,70,378120,120
71,74,378240,120
68,69,378360,120
66,71,378480,120
64,70,378600,120
59,69,378720,240
77,57,379440,120
78,55,379560,120
80,53,379680,120
81,52,379800,120
83,50,379920,120
85,48,380040,120
86,46,380160,240
86,56,380880,120
85,54,381000,120
83,53,381120,120
81,52,381240,120
80,51,381360,120
78,50,381480,120
77,48,381600,240
79,66,382320,120
80,65,382440,120
82,64,382560,120
83,63,382680,120
85,62,382800,120
87,61,382920,120
88,60,383040,240
88,65,383760,120
87,64,383880,120
85,62,384000,120
83,61,384120,120
82,59,384240,120
80,58,384360,120
79,56,384480,240
81,71,385200,120
82,72,385320,120
84,73,385440,120
85,75,385560,120
87,76,385680,120
89,77,385800,120
90,78,385920,120
99,78,386040,120
90,77,386160,120
89,76,386280,120
87,75,386400,120
85,75,386520,120
84,71,386640,120
85,72,386760,120
86,73,386880,120
87,74,387000,120
88,76,387120,120
89,77,387240,120
90,78,387360,120
99,79,387480,120
90,80,387600,120
89,82,387720,120
87,83,387840,120
85,84,387960,120
84,85,388080,120
101,93,388320,120
100,83,388440,120
99,81,388560,120
96,78,388680,120
93,76,388800,240
77,90,389280,120
76,82,389400,120
75,80,389520,120
72,78,389640,120
69,76,389760,240
53,90,390240,120
52,84,390360,120
51,82,390480,120
48,80,390600,120
85,89,390960,240
73,89,390960,240
76,74,391200,120
77,71,391320,120
80,74,391440,80
78,74,391520,80
77,71,391600,70
77,89,391680,240
88,81,391920,240
76,81,391920,240
77,81,392160,240
89,81,392160,240
70,89,392400,240
82,89,392400,240
72,73,392640,120
73,71,392760,120
77,73,392880,80
75,73,392960,80
73,69,393040,70
73,89,393120,240
84,81,393360,240
72,81,393360,240
73,81,393600,240
85,81,393600,240
66,89,393840,240
78,89,393840,240
69,73,394080,120
70,69,394200,120
73,73,394320,80
72,73,394400,80
70,69,394480,70
70,89,394560,240
81,81,394800,240
69,81,394800,240
70,81,395040,240
82,81,395040,240
63,89,395280,240
75,89,395280,240
65,74,395520,120
66,70,395640,120
70,74,395760,80
68,74,395840,80
66,71,395920,70
66,89,396000,720
74,85,396240,240
77,85,396240,240
75,85,396480,240
78,85,396480,240
65,84,396720,240
72,84,396720,240
75,84,396720,240
77,84,396720,240
64,68,396960,120
65,66,397080,120
68,68,397200,100
66,68,397280,100
65,66,397360,70
53,59,397440,240
58,59,397455,225
61,59,397470,210
65,59,397485,195
87,73,397680,240
75,73,397680,240
85,73,397920,240
73,73,397920,240
72,68,398160,240
77,69,398175,225
81,72,398190,210
84,77,398205,195
64,68,398400,120
65,66,398520,120
68,69,398640,100
66,69,398720,100
65,67,398800,70
53,60,398880,240
58,60,398895,225
61,60,398910,210
65,60,398925,195
84,74,399120,240
72,74,399120,240
70,74,399360,240
82,74,399360,240
69,69,399600,240
72,70,399615,225
77,74,399630,210
81,76,399645,195
64,65,399840,120
65,60,399960,120
68,65,400080,100
66,65,400160,100
65,61,400240,70
53,56,400320,240
58,56,400335,225
61,56,400350,210
65,56,400365,195
87,78,400560,240
75,78,400560,240
73,78,400800,240
85,78,400800,240
72,74,401040,240
77,75,401055,225
81,77,401070,210
84,80,401085,195
64,70,401280,120
65,67,401400,120
68,70,401520,100
66,70,401600,100
65,68,401680,70
53,62,401760,240
58,62,401775,225
61,62,401790,210
65,62,401805,195
84,77,402000,240
72,77,402000,240
70,77,402240,240
82,77,402240,240
69,73,402480,240
72,74,402495,225
77,77,402510,210
81,81,402525,195
64,67,402720,120
65,64,402840,120
68,67,402960,100
66,67,403040,100
65,64,403120,70
65,80,403200,240
85,77,403440,240
73,77,403440,240
72,78,403680,240
84,78,403680,240
69,74,403920,240
72,75,403935,225
77,78,403950,210
81,83,403965,195
59,70,404160,120
60,66,404280,120
63,70,404400,100
61,70,404480,100
60,66,404560,70
60,80,404640,240
70,78,404880,240
69,75,405120,240
69,65,405360,240
72,67,405375,225
77,71,405390,210
81,71,405405,195
64,70,405600,120
65,67,405720,120
68,70,405840,100
66,70,405920,100
65,66,406000,70
65,80,406080,240
85,77,406320,240
73,77,406320,240
72,77,406560,240
84,77,406560,240
69,65,406800,240
72,66,406815,225
77,70,406830,210
81,76,406845,195
59,69,407040,120
60,67,407160,120
63,69,407280,100
61,69,407360,100
60,66,407440,70
60,78,407520,240
70,77,407760,240
69,74,408000,240
69,62,408240,240
72,63,408255,225
77,65,408270,210
81,69,408285,195
59,64,408480,120
60,59,408600,120
63,64,408720,100
61,64,408800,100
60,60,408880,70
60,72,408960,240
70,71,409200,240
69,69,409440,240
69,58,409680,240
72,59,409695,225
77,61,409710,210
81,63,409725,195
59,59,409920,120
60,56,410040,120
63,59,410160,100
61,59,410240,100
60,55,410320,70
60,67,410400,240
70,67,410640,240
69,64,410880,240
69,54,411120,240
72,54,411135,225
77,56,411150,210
81,58,411165,195
47,53,411360,150
48,51,411480,150
51,53,411600,100
49,53,411680,100
48,49,411760,70
48,59,411840,240
58,56,412080,120
57,58,412320,120
53,62,412560,240
47,46,412800,150
48,43,412920,150
51,46,413040,100
49,46,413120,100
48,42,413200,70
48,51,413280,240
58,52,413520,120
57,52,413760,120
53,56,414000,240
47,47,415680,150
48,44,415800,150
51,47,415920,100
49,47,416000,100
48,44,416080,70
48,55,416160,120
58,52,416400,120
57,49,416640,120
53,55,416880,240
46,46,417840,240
45,45,418080,240
41,46,418320,720
57,29,420240,80
58,31,420320,80
61,33,420400,80
65,37,420480,120
57,29,420960,80
58,31,421040,80
61,32,421120,80
65,43,421200,1440
58,100,422640,120
94,92,423360,1440
90,92,423360,1440
82,78,423360,1440
75,51,424800,360
84,61,424800,360
87,61,424800,360
77,57,425160,120
84,68,425160,120
89,68,425160,120
78,60,425280,240
84,71,425280,240
90,71,425280,240
77,57,425520,240
85,68,425520,240
89,68,425520,240
57,27,426000,80
58,29,426080,80
61,30,426160,80
65,35,426240,120
57,27,426720,80
58,29,426800,80
61,30,426880,80
65,39,426960,1440
56,100,428400,120
92,90,429120,1440
89,90,429120,1440
80,76,429120,1440
75,51,430560,360
84,60,430560,360
87,60,430560,360
77,55,430920,120
84,65,430920,120
89,65,430920,120
78,59,431040,240
84,70,431040,240
90,70,431040,240
77,56,431280,240
85,67,431280,240
89,67,431280,240
69,81,432000,480
77,81,432000,480
57,81,432720,480
65,81,432720,480
57,27,437520,80
58,29,437600,80
61,30,437680,80
65,34,437760,120
57,29,438240,80
58,30,438320,80
61,31,438400,80
65,39,438480,1440
58,100,439920,120
82,78,440640,1080
90,92,440640,1080
94,92,440640,1080
87,58,441720,120
84,58,441720,120
75,49,441720,120
87,58,441840,240
84,58,441840,240
75,49,441840,240
75,51,442080,360
84,61,442080,360
87,61,442080,360
84,68,442440,120
89,68,442440,120
77,57,442440,120
84,71,442560,240
78,60,442560,240
90,71,442560,240
85,68,442800,240
77,57,442800,240
89,68,442800,240
57,29,443280,80
58,30,443360,80
61,32,443440,80
65,37,443520,120
57,29,444000,80
58,30,444080,80
61,32,444160,80
65,39,444240,1440
48,100,445680,120
84,76,446400,1440
92,90,446400,1440
96,90,446400,1440
91,60,447840,360
88,60,447840,360
79,51,447840,360
80,55,448200,120
88,65,448200,120
92,65,448200,120
82,59,448320,240
88,70,448320,240
94,70,448320,240
92,67,448560,240
89,67,448560,240
80,56,448560,240
72,81,449280,480
80,81,449280,480
68,68,449280,480
77,81,449280,480
60,81,450000,480
68,81,450000,480
56,68,450000,480
65,81,450000,480
41,94,452160,720
38,50,452880,90
39,51,452960,90
41,51,453040,90
39,52,453120,80
41,53,453200,90
39,55,453280,90
41,56,453357,90
39,56,453440,90
41,57,453520,90
39,58,453600,70
41,59,453660,70
39,60,453720,70
41,61,453780,70
39,62,453837,60
41,62,453900,70
39,62,453960,70
41,63,454020,70
39,64,454080,90
38,73,454160,90
39,73,454240,90
101,97,454320,960
99,68,455280,120
97,62,455400,120
92,65,455520,120
89,60,455640,120
87,62,455760,120
85,57,455880,120
80,58,456000,120
77,52,456120,120
75,55,456240,120
73,51,456360,120
68,52,456480,240
72,55,457200,120
73,52,457320,120
75,50,457440,120
77,47,457560,120
78,45,457680,120
80,42,457793,120
81,40,457920,120
81,50,458640,120
80,49,458760,120
79,47,458880,120
78,46,459000,120
77,44,459120,120
76,42,459240,120
75,41,459360,120
101,97,460080,960
99,68,461040,120
97,61,461160,120
92,65,461280,120
89,59,461400,120
87,62,461520,120
85,57,461640,120
80,58,461760,120
77,57,461880,120
75,55,462000,120
73,51,462120,120
68,52,462240,240
72,42,462960,120
73,41,463080,120
75,41,463200,120
77,40,463320,120
78,39,463440,120
80,38,463553,120
81,37,463680,120
81,42,464400,120
80,41,464520,120
79,40,464640,120
78,39,464760,120
77,37,464880,120
76,36,465000,120
75,35,465120,240
71,40,465840,1440
77,59,465840,960
75,53,466800,360
73,52,467160,110
71,38,467280,720
73,56,467280,720
70,56,468000,720
78,56,468000,1200
71,50,468720,1440
77,52,469200,230
77,51,469440,240
75,50,469680,240
73,49,469920,240
70,44,470160,720
73,44,470160,720
82,56,470160,720
68,44,470880,720
73,44,470880,720
82,62,470880,480
82,64,471360,240
67,44,471540,60
73,45,471600,1440
82,68,471600,480
75,57,472080,240
75,57,472320,240
77,51,472560,60
79,51,472620,60
77,56,472680,240
75,56,472920,110
73,49,473040,720
75,59,473040,720
72,53,473760,720
80,64,473760,960
73,55,474480,1440
79,60,474720,240
77,59,474960,240
79,60,475200,240
77,59,475440,360
75,56,475800,120
72,56,475920,1440
84,56,475920,720
84,64,476640,480
84,63,477120,230
84,68,477360,960
82,63,478320,360
80,63,478680,110
80,63,478800,720
85,75,479520,720
85,82,480240,480
84,78,480720,230
84,75,480960,240
82,71,481200,360
80,63,481560,120
89,80,481680,720
89,77,482400,480
89,81,482880,230
89,85,483120,720
87,72,483840,240
85,71,484080,240
82,70,484320,240
84,75,484560,720
82,71,485280,240
80,68,485520,240
77,63,485760,240
82,69,486000,240
80,64,486240,240
78,61,486480,230
78,55,486720,60
80,55,486780,60
78,63,486840,120
77,58,486960,360
76,59,487320,110
76,59,487440,720
77,63,488160,480
80,57,488640,240
68,57,488880,480
80,57,488940,660
72,63,489360,480
84,63,489600,240
70,63,489840,360
82,63,489840,360
68,63,490200,110
80,63,490200,110
68,63,490320,720
80,63,490320,1440
73,75,491040,720
85,75,491040,720
78,60,491760,480
80,60,491760,480
73,75,491760,360
85,75,491760,360
75,71,492120,120
84,71,492120,120
80,60,492240,240
78,60,492240,240
72,78,492240,240
84,78,492240,240
80,60,492480,360
78,60,492480,360
72,75,492480,360
84,75,492480,360
70,71,492840,120
82,71,492840,120
78,60,492960,240
68,63,492960,240
80,63,492960,240
80,80,493200,720
77,68,493200,720
89,80,493200,720
77,65,493920,480
80,77,493920,480
89,77,493920,480
77,66,494400,240
80,78,494400,240
89,78,494400,240
77,69,494640,720
80,82,494640,720
89,82,494640,720
78,67,495360,240
75,56,495360,240
87,67,495360,240
73,55,495600,360
78,65,495600,360
85,65,495600,360
70,54,495960,120
78,64,495960,120
82,64,495960,120
72,52,496080,720
80,62,496080,720
84,62,496080,720
70,54,496800,240
78,64,496800,240
82,64,496800,240
68,57,497040,240
77,68,497040,240
80,68,497040,240
70,61,497280,240
77,72,497280,240
82,72,497280,240
77,77,497520,480
71,65,497520,480
83,77,497520,480
77,75,498000,240
70,63,498000,240
82,75,498000,240
71,66,498240,1200
77,78,498240,1200
83,78,498240,1200
70,64,499440,240
77,76,499440,240
82,76,499440,240
71,68,499680,240
77,81,499680,240
83,81,499680,240
70,66,499920,240
77,78,499920,240
82,78,499920,240
71,66,500160,240
77,78,500160,240
83,78,500160,240
71,68,500400,480
78,81,500400,480
83,81,500400,480
70,69,500880,240
78,82,500880,240
82,82,500880,240
73,74,501120,1200
79,88,501120,1200
85,88,501120,1200
72,69,502320,240
79,82,502320,240
84,82,502320,240
73,73,502560,240
79,86,502560,240
85,86,502560,240
72,68,502800,240
79,81,502800,240
84,81,502800,240
73,72,503040,240
79,85,503040,240
85,85,503040,240
73,74,503280,480
80,88,503280,480
85,88,503280,480
72,77,503760,240
80,91,503760,240
84,91,503760,240
81,90,504000,480
75,76,504000,480
87,90,504000,480
87,88,504480,240
81,88,504480,240
75,74,504480,240
87,92,504720,480
80,92,504720,480
75,78,504720,480
86,88,505200,240
80,88,505200,240
74,74,505200,240
89,99,505440,480
83,99,505440,480
77,84,505440,480
89,95,505920,240
83,95,505920,240
77,80,505920,240
89,96,506160,480
82,96,506160,480
77,81,506160,480
88,96,506640,240
82,96,506640,240
76,81,506640,240
91,101,506880,480
85,101,506880,480
79,85,506880,480
91,98,507360,240
85,98,507360,240
79,83,507360,240
91,98,507600,480
84,98,507600,480
79,83,507600,480
92,94,508080,240
84,94,508080,240
80,79,508080,240
93,110,508320,480
84,110,508320,480
81,93,508320,480
84,94,508800,240
78,94,508800,240
72,79,508800,240
85,109,509040,180
77,109,509040,180
73,92,509040,180
65,97,509760,120
73,75,509880,120
80,79,510000,120
77,83,510120,120
85,87,510240,120
94,91,510360,120
84,96,510480,240
92,96,510480,240
66,97,511200,120
72,75,511320,120
80,80,511440,120
78,84,511560,120
84,88,511680,120
92,93,511800,120
85,97,511920,240
89,97,511920,240
65,97,512640,120
73,75,512760,120
80,79,512880,120
77,83,513000,120
85,87,513120,120
94,91,513240,120
84,96,513360,240
92,96,513360,240
66,97,514080,120
72,75,514200,120
80,80,514320,120
78,84,514440,120
84,88,514560,120
92,93,514680,60
85,100,514740,60
97,113,514800,240
95,111,515040,120
93,103,515160,120
88,107,515280,120
85,98,515400,120
83,102,515520,120
81,94,515640,120
76,98,515760,120
73,91,515880,120
71,94,516000,120
69,85,516120,120
64,90,516240,120
61,82,516360,120
59,85,516480,120
57,77,516600,120
52,81,516720,240
53,93,516960,480
65,93,516960,480
52,87,517440,180
64,87,517440,180
85,100,517620,60
97,113,517680,240
95,111,517920,120
93,103,518040,120
88,107,518160,120
85,98,518280,120
83,102,518400,120
81,96,518520,120
76,98,518640,120
73,91,518760,120
71,94,518880,120
69,87,519000,120
64,90,519120,120
61,82,519240,120
59,85,519360,120
57,78,519480,120
52,81,519600,240
53,93,519840,480
65,93,519840,480
52,87,520320,240
64,87,520320,240
53,87,520560,180
65,87,520560,180
53,43,520800,120
57,45,520920,120
61,46,521040,120
65,48,521160,120
73,54,521280,240
77,54,521280,240
53,43,521520,120
57,44,521640,120
61,45,521760,120
65,46,521880,120
73,54,522000,240
77,54,522000,240
53,46,522240,120
58,46,522360,120
61,47,522480,120
65,47,522600,120
73,54,522720,240
77,54,522720,240
53,45,522960,120
58,46,523080,120
62,47,523200,120
65,49,523320,120
74,55,523440,240
77,55,523440,240
54,46,523680,120
58,47,523800,120
62,48,523920,120
66,49,524040,120
74,57,524160,240
78,57,524160,240
54,47,524400,120
58,48,524520,120
63,49,524640,120
66,51,524760,120
75,57,524880,240
78,57,524880,240
55,47,525120,120
61,48,525240,120
64,50,525360,120
67,51,525480,120
76,60,525600,240
79,60,525600,240
68,56,525840,120
73,60,525960,120
77,63,526080,120
80,67,526200,360
92,77,526320,240
89,77,526320,240
85,77,526320,240
60,63,526800,80
61,64,526880,80
65,66,526960,80
68,68,527040,240
59,62,527520,80
60,63,527600,80
65,65,527680,80
68,67,527760,240
57,62,528240,80
58,64,528320,80
65,66,528400,80
68,68,528480,240
56,86,529200,240
92,90,529920,960
89,90,529920,960
80,90,529920,960
80,77,530880,240
87,77,530880,240
92,77,530880,240
80,77,531120,240
89,77,531120,240
92,77,531120,240
80,75,531360,240
87,75,531360,240
92,75,531360,240
80,80,531600,240
89,80,531600,240
92,80,531600,240
80,79,531840,240
92,79,531840,240
87,79,531840,240
92,90,532080,180
89,90,532080,180
85,90,532080,180
80,90,532080,180
60,63,532560,80
61,64,532640,80
65,66,532720,80
68,68,532800,240
59,62,533280,80
60,63,533360,80
65,65,533440,80
68,67,533520,240
57,62,534000,80
58,64,534080,80
65,66,534160,80
68,68,534240,240
56,86,534960,240
92,90,535680,960
89,90,535680,960
80,90,535680,960
80,74,536640,240
87,74,536640,240
92,74,536640,240
80,71,536880,240
89,71,536880,240
92,71,536880,240
80,68,537120,240
87,68,537120,240
92,68,537120,240
80,66,537360,240
89,66,537360,240
92,66,537360,240
80,63,537600,240
92,63,537600,240
87,63,537600,240
89,59,537840,480
92,59,537840,720
80,59,537840,720
87,59,538320,240
89,58,538560,480
93,58,538560,720
81,58,538560,720
87,58,539040,240
89,60,539280,480
81,60,539280,720
93,60,539280,720
87,58,539760,240
90,62,540000,480
82,62,540000,720
94,62,540000,720
88,63,540480,240
90,64,540720,480
82,64,540720,720
94,64,540720,720
88,70,541200,240
91,74,541440,480
83,74,541440,720
95,74,541440,720
89,73,541920,240
91,78,542160,480
83,78,542160,720
95,78,542160,720
89,78,542640,240
92,84,542880,480
96,84,542880,720
84,84,542880,720
90,86,543360,240
101,101,543600,240
99,100,543840,120
97,96,543960,120
92,98,544080,120
89,93,544200,120
87,95,544320,120
85,89,544440,120
80,92,544560,120
77,86,544680,120
75,89,544800,120
73,83,544920,120
68,86,545040,120
65,81,545160,120
63,83,545280,120
61,79,545400,120
56,80,545520,240
65,64,545760,720
57,88,545760,480
69,88,545760,480
56,83,546240,240
68,83,546240,240
101,100,546480,240
99,99,546720,120
97,92,546840,120
92,96,546960,120
89,91,547080,120
87,93,547200,120
85,88,547320,120
80,90,547440,120
77,86,547560,120
75,87,547680,120
73,81,547800,120
68,84,547920,120
65,79,548040,120
63,82,548160,120
61,76,548280,120
56,79,548400,240
65,82,548640,720
57,82,548640,480
69,82,548640,480
56,77,549120,240
68,77,549120,240
56,70,549360,240
65,70,549360,240
68,70,549360,240
57,82,550080,480
69,82,550080,480
56,77,550560,240
68,77,550560,240
56,71,550800,240
65,71,550800,240
68,71,550800,240
57,83,551520,480
69,83,551520,480
56,77,552000,240
68,77,552000,240
56,74,552240,240
65,74,552240,240
68,74,552240,240
57,86,552960,480
69,86,552960,480
56,81,553440,240
68,81,553440,240
57,71,553680,180
65,71,553680,180
69,71,553680,180
56,73,553920,180
65,73,553920,180
68,73,553920,180
57,74,554160,180
65,74,554160,180
69,74,554160,180
56,76,554400,180
65,76,554400,180
68,76,554400,180
57,77,554640,180
65,77,554640,180
69,77,554640,180
56,79,554880,180
65,79,554880,180
68,79,554880,180
57,89,555120,180
65,89,555120,180
69,89,555120,180
60,85,555840,240
64,85,555840,240
70,100,555840,240
72,100,555840,240
69,85,556560,240
72,100,556560,240
81,100,556560,240
77,100,556560,240
66,85,557280,240
68,85,557280,240
72,100,557280,240
75,100,557280,240
78,100,557280,240
80,100,557280,240
65,85,558000,720
68,85,558000,720
73,100,558000,720
77,100,558000,720
53,85,559440,720
56,85,559440,720
61,101,559440,720
65,101,559440,720
61,73,560760,120
68,87,560760,120
73,87,560760,120
101,123,560880,720
46,41,1,480
45,27,480,80
46,28,560,80
49,29,640,80
53,33,720,120
45,26,1200,80
46,27,1280,80
49,29,1360,80
53,32,1440,120
34,95,2880,120
46,95,2880,120
58,72,3600,1440
60,72,3600,1440
63,85,3600,1440
66,85,3600,1440
70,85,3600,1440
58,47,5040,360
60,47,5040,360
63,56,5040,360
66,56,5040,360
70,56,5040,360
58,51,5400,120
60,51,5400,120
63,61,5400,120
66,61,5400,120
70,61,5400,120
58,56,5520,240
60,56,5520,240
63,66,5520,240
66,66,5520,240
70,66,5520,240
58,52,5760,240
61,52,5760,240
65,62,5760,240
70,62,5760,240
45,27,6240,80
46,28,6320,80
49,30,6400,80
53,33,6480,120
45,26,6960,80
46,28,7040,80
49,30,7120,80
53,34,7200,120
32,95,8640,120
44,95,8640,120
56,72,9300,1500
65,76,9330,1470
73,89,9360,1440
56,49,10800,360
63,58,10800,360
66,58,10800,360
68,58,10800,360
56,53,11160,120
63,63,11160,120
66,63,11160,120
68,63,11160,120
56,57,11280,240
63,68,11280,240
66,68,11280,240
68,68,11280,240
68,65,11520,240
61,55,11520,240
65,65,11520,240
65,77,12240,480
60,77,12240,480
53,65,12240,480
41,65,12960,480
48,77,12960,480
53,77,12960,480
29,79,13680,1680
41,94,13680,1680
30,82,15360,180
42,97,15360,180
45,27,17760,80
46,28,17840,80
49,29,17920,80
53,33,18000,120
45,27,18480,80
46,28,18560,80
49,29,18640,80
53,33,18720,120
46,95,20160,120
34,95,20160,120
63,85,20880,1080
58,72,20880,1080
60,72,20880,1080
70,85,20880,1080
66,85,20880,1080
58,47,21960,120
60,47,21960,120
63,56,21960,120
66,56,21960,120
70,56,21960,120
58,47,22080,240
60,47,22080,240
63,56,22080,240
66,56,22080,240
70,56,22080,240
63,56,22320,360
58,47,22320,360
60,47,22320,360
66,56,22320,360
70,56,22320,360
60,51,22680,120
63,61,22680,120
58,51,22680,120
66,61,22680,120
70,61,22680,120
63,66,22800,240
66,66,22800,240
58,56,22800,240
60,56,22800,240
70,66,22800,240
65,62,23040,240
58,52,23040,240
61,52,23040,240
70,62,23040,240
45,27,23520,80
46,29,23600,80
49,30,23680,80
53,34,23760,120
45,24,24240,80
46,26,24320,80
49,27,24400,80
53,32,24480,120
24,95,25920,120
36,95,25920,120
68,89,26640,1440
72,89,26640,1440
65,63,26640,1440
60,63,26640,1440
60,41,28080,360
70,58,28080,360
64,41,28080,360
72,58,28080,360
64,45,28440,120
60,45,28440,120
72,63,28440,120
70,63,28440,120
70,68,28560,240
60,48,28560,240
64,48,28560,240
72,68,28560,240
72,65,28800,240
65,46,28800,240
68,65,28800,240
53,65,29520,480
65,77,29520,480
60,77,29520,480
53,77,30240,480
48,77,30240,480
41,65,30240,480
28,79,30960,1680
40,94,30960,1680
29,82,32640,180
41,97,32640,180
25,71,34560,120
37,84,34560,120
44,45,35040,240
56,45,35040,240
61,53,35280,240
53,53,35280,240
44,42,35760,240
56,42,35760,240
53,47,36000,240
61,47,36000,240
32,44,37440,120
44,52,37440,120
66,38,38160,240
55,38,38160,240
60,38,38160,240
56,35,38400,240
60,35,38400,240
66,35,38400,240
66,31,38640,120
56,31,38640,120
60,31,38640,120
57,35,39600,240
60,35,39600,240
66,35,39600,240
66,32,39840,240
60,32,39840,240
56,32,39840,240
66,28,40080,120
60,28,40080,120
56,28,40080,120
25,68,40320,120
37,82,40320,120
44,45,40800,240
56,45,40800,240
61,53,41040,240
53,53,41040,240
44,42,41520,240
56,42,41520,240
53,47,41760,240
61,47,41760,240
44,20,43200,720
51,20,43200,720
54,20,43200,720
60,32,43920,120
61,32,44040,120
63,32,44160,120
65,32,44280,120
66,32,44400,120
68,32,44520,120
69,32,44640,120
57,30,45360,120
56,29,45480,120
55,28,45600,120
54,27,45720,120
53,26,45840,120
51,25,45960,120
49,30,46080,120
56,28,46200,120
61,30,46320,120
65,34,46440,120
61,31,46560,120
56,30,46680,120
49,28,46800,120
59,28,46920,120
61,30,47040,120
65,31,47160,120
61,30,47280,120
59,29,47400,120
54,28,47520,120
59,28,47640,120
61,31,47760,120
66,34,47880,120
61,31,48000,120
59,29,48120,120
49,30,48240,120
58,28,48360,120
61,30,48480,120
66,33,48600,120
61,31,48720,120
58,30,48840,120
56,30,48960,120
59,28,49080,120
61,30,49200,120
68,33,49320,120
61,31,49440,120
59,29,49560,120
49,30,49680,120
59,28,49800,120
61,30,49920,120
65,31,50040,120
61,30,50160,120
59,29,50280,120
54,32,50400,120
58,30,50520,120
61,34,50640,120
66,35,50760,120
61,34,50880,120
58,33,51000,120
52,33,51120,120
58,36,51240,120
61,39,51360,120
68,37,51480,120
61,34,51600,120
58,31,51720,120
51,36,51840,120
58,38,51960,120
61,41,52080,120
67,45,52200,120
61,42,52320,120
58,39,52440,120
55,39,52560,120
61,38,52680,120
63,41,52800,120
70,46,52920,120
63,42,53040,120
61,39,53160,120
56,38,53280,120
61,38,53400,120
63,42,53520,120
68,45,53640,120
63,41,53760,120
61,38,53880,120
51,38,54000,120
60,37,54120,120
63,40,54240,120
68,44,54360,120
63,41,54480,120
60,39,54600,120
58,39,54720,120
61,37,54840,120
63,40,54960,120
70,42,55080,120
63,41,55200,120
61,39,55320,120
51,38,55440,120
61,36,55560,120
63,38,55680,120
67,40,55800,120
63,40,55920,120
61,37,56040,120
56,38,56160,120
60,40,56280,120
63,44,56400,120
68,45,56520,120
63,44,56640,120
60,42,56760,120
55,40,56880,720
56,41,57000,120
60,45,57120,120
63,49,57240,120
60,47,57360,120
56,41,57480,120
54,36,57600,720
56,36,57720,120
60,39,57840,120
63,42,57960,120
60,41,58080,120
56,38,58200,120
54,38,58320,720
56,41,58440,120
60,41,58560,120
63,41,58680,120
60,38,58800,120
56,35,58920,120
53,33,59040,720
56,33,59160,120
61,36,59280,120
65,39,59400,120
61,37,59520,120
56,35,59640,120
53,35,59760,120
56,38,59880,120
61,41,60000,120
68,42,60120,120
61,40,60240,120
56,37,60360,120
51,35,60480,120
56,38,60600,120
60,41,60720,120
66,41,60840,120
60,39,60960,120
56,36,61080,120
51,35,61200,120
56,34,61320,120
60,37,61440,120
66,39,61560,120
60,36,61680,120
56,31,61800,120
50,32,61920,120
56,31,62040,120
59,35,62160,120
65,37,62280,120
59,36,62400,120
56,34,62520,120
50,33,62640,120
56,30,62760,120
58,35,62880,120
65,37,63000,120
58,36,63120,120
56,34,63240,120
51,35,63360,120
54,35,63480,120
58,38,63600,120
63,39,63720,120
58,38,63840,120
54,36,63960,120
42,32,64080,120
54,31,64200,120
58,36,64320,120
63,38,64440,120
58,36,64560,120
54,34,64680,120
44,34,64800,120
53,36,64920,120
56,37,65040,120
61,39,65160,120
56,37,65280,120
53,35,65400,120
44,36,65520,120
53,34,65640,120
56,35,65760,120
61,38,65880,120
56,37,66000,120
53,36,66120,120
44,36,66240,120
54,34,66360,120
56,36,66480,120
60,36,66600,120
56,35,66720,120
54,34,66840,120
44,34,66960,120
54,31,67080,120
56,35,67200,120
60,37,67320,120
56,35,67440,120
54,33,67560,120
49,34,67680,120
56,33,67800,120
61,36,67920,120
65,37,68040,120
61,36,68160,120
58,35,68280,120
56,37,68400,240
61,36,68520,120
65,39,68640,120
68,40,68760,120
65,39,68880,120
61,38,69000,120
54,42,69120,720
56,42,69240,120
60,42,69360,120
63,42,69480,120
60,42,69600,120
56,42,69720,120
54,51,69840,720
56,45,69960,120
60,45,70080,120
63,45,70200,120
60,41,70320,120
56,38,70440,120
53,37,70560,720
56,36,70680,120
61,39,70800,120
65,42,70920,120
61,40,71040,120
56,38,71160,120
53,39,71280,120
56,41,71400,120
61,45,71520,120
68,46,71640,120
61,44,71760,120
56,40,71880,120
51,39,72000,120
56,41,72120,120
60,45,72240,120
66,45,72360,120
60,42,72480,120
56,39,72600,120
51,37,72720,120
56,37,72840,120
60,40,72960,120
66,42,73080,120
60,39,73200,120
56,34,73320,120
50,39,73440,120
56,37,73560,120
59,41,73680,120
65,44,73800,120
59,42,73920,120
56,40,74040,120
50,35,74160,120
56,36,74280,120
58,41,74400,120
65,44,74520,120
58,42,74640,120
56,40,74760,120
51,35,74880,120
54,38,75000,120
58,41,75120,120
63,42,75240,120
58,41,75360,120
54,39,75480,120
42,34,75600,120
54,34,75720,120
58,39,75840,120
63,41,75960,120
58,39,76080,120
54,37,76200,120
44,36,76320,120
53,39,76440,120
56,40,76560,120
61,42,76680,120
56,40,76800,120
53,38,76920,120
44,35,77040,120
53,35,77160,120
56,37,77280,120
61,39,77400,120
56,37,77520,120
53,35,77640,120
44,35,77760,120
53,37,77880,120
56,39,78000,120
62,41,78120,120
56,39,78240,120
53,36,78360,120
44,37,78480,120
53,39,78600,120
56,43,78720,120
62,48,78840,120
56,45,78960,120
53,41,79080,120
44,39,79200,120
53,40,79320,120
56,43,79440,120
62,45,79560,120
56,42,79680,120
53,36,79800,120
44,39,79920,120
53,40,80040,120
56,43,80160,120
62,47,80280,120
56,44,80400,120
53,40,80520,120
44,41,80640,120
51,43,80760,120
54,47,80880,120
63,50,81000,120
54,46,81120,120
51,43,81240,120
44,67,81360,120
51,50,81480,120
54,55,81600,120
63,58,81720,120
54,55,81840,120
51,52,81960,120
44,62,82080,120
51,50,82200,120
54,55,82320,120
60,58,82440,120
54,55,82560,120
51,51,82680,120
44,67,82800,120
51,57,82920,120
54,61,83040,120
60,65,83160,120
54,62,83280,120
51,59,83400,120
37,71,83520,120
44,70,84000,120
53,75,84120,120
61,83,84240,240
32,73,84960,120
44,68,85440,120
51,74,85560,120
60,84,85680,240
37,78,86400,120
44,70,86880,120
53,75,87000,120
61,83,87120,240
32,78,87840,120
44,68,88320,120
51,74,88440,120
60,84,88560,240
25,82,89280,240
44,68,89760,120
53,74,89880,120
61,84,90000,240
25,86,92160,120
37,102,92160,120
61,86,92880,720
73,102,92880,720
45,27,95520,80
46,28,95600,80
49,29,95680,80
53,34,95760,120
45,26,96240,80
46,27,96320,80
49,29,96400,80
53,34,96480,120
34,95,97920,120
46,95,97920,120
58,72,98640,1440
60,72,98640,1440
63,85,98640,1440
66,85,98640,1440
70,85,98640,1440
58,47,100080,360
60,47,100080,360
63,56,100080,360
66,56,100080,360
70,56,100080,360
58,51,100440,120
60,51,100440,120
63,61,100440,120
66,61,100440,120
70,61,100440,120
58,56,100560,240
60,56,100560,240
63,66,100560,240
66,66,100560,240
70,66,100560,240
58,52,100800,240
61,52,100800,240
65,62,100800,240
70,62,100800,240
45,27,101280,80
46,28,101360,80
49,30,101440,80
53,35,101520,120
45,26,102000,80
46,28,102080,80
49,30,102160,80
53,34,102240,120
32,95,103680,120
44,95,103680,120
56,75,104340,1500
65,89,104370,1470
73,89,104400,1440
56,44,105840,144
63,52,105840,144
66,52,105840,144
68,52,105840,144
66,52,105984,144
63,52,105984,144
56,44,105984,144
68,52,105984,144
68,54,106128,144
66,54,106128,144
63,54,106128,144
56,45,106128,144
68,61,106272,144
66,61,106272,144
63,61,106272,144
56,51,106272,144
68,58,106416,144
66,58,106416,144
63,58,106416,144
56,49,106416,144
68,58,106560,240
61,49,106560,240
65,58,106560,240
65,77,107280,480
60,77,107280,480
53,77,107280,480
41,77,108000,480
48,77,108000,480
53,77,108000,480
29,79,108720,1680
41,94,108720,1680
30,82,110400,180
42,97,110400,180
45,27,112800,80
46,28,112880,80
49,29,112960,80
53,34,113040,120
45,27,113520,80
46,28,113600,80
49,29,113680,80
53,34,113760,120
46,95,115200,120
34,95,115200,120
63,85,115920,1080
58,72,115920,1080
60,72,115920,1080
70,85,115920,1080
66,85,115920,1080
58,47,117000,120
60,47,117000,120
63,56,117000,120
66,56,117000,120
70,56,117000,120
58,47,117120,240
60,47,117120,240
63,56,117120,240
66,56,117120,240
70,56,117120,240
63,56,117360,360
58,47,117360,360
60,47,117360,360
66,56,117360,360
70,56,117360,360
60,51,117720,120
63,61,117720,120
58,51,117720,120
66,61,117720,120
70,61,117720,120
63,66,117840,240
66,66,117840,240
58,56,117840,240
60,56,117840,240
70,66,117840,240
65,62,118080,240
58,52,118080,240
61,52,118080,240
70,62,118080,240
45,27,118560,80
46,29,118640,80
49,30,118720,80
53,35,118800,120
45,24,119280,80
46,26,119360,80
49,27,119440,80
53,34,119520,120
24,95,120960,120
36,95,120960,120
68,89,121680,1440
72,89,121680,1440
65,89,121680,1440
60,75,121680,1440
60,58,123120,180
70,69,123120,180
64,69,123120,180
72,69,123120,180
60,53,123300,180
64,63,123300,180
70,63,123300,180
72,63,123300,180
64,61,123480,180
60,51,123480,180
72,61,123480,180
70,61,123480,180
72,62,123660,180
64,62,123660,180
60,52,123660,180
70,62,123660,180
72,68,123840,240
65,68,123840,240
68,68,123840,240
53,65,124560,480
65,77,124560,480
60,77,124560,480
53,77,125280,480
48,77,125280,480
41,65,125280,480
28,79,126000,1440
40,94,126000,1440
29,94,127440,720
26,45,128160,90
27,45,128240,90
29,45,128320,90
27,46,128400,90
29,47,128480,90
27,49,128560,90
29,50,128640,90
27,51,128720,90
29,51,128800,90
27,52,128880,70
29,53,128940,70
27,53,129000,70
29,54,129060,60
27,55,129120,60
29,55,129180,60
27,56,129240,60
29,56,129300,60
27,59,129360,90
26,73,129440,90
27,73,129520,90
25,74,129600,120
37,88,129600,120
44,45,130080,240
56,45,130080,240
61,53,130320,240
53,53,130320,240
44,42,130800,240
56,42,130800,240
53,47,131040,240
61,47,131040,240
32,52,132480,120
44,52,132480,120
66,38,133200,240
55,38,133200,240
60,38,133200,240
56,35,133440,240
60,35,133440,240
66,35,133440,240
66,31,133680,120
56,31,133680,120
60,31,133680,120
57,35,134640,240
60,35,134640,240
66,35,134640,240
66,32,134880,240
60,32,134880,240
56,32,134880,240
66,28,135120,120
60,28,135120,120
56,28,135120,120
25,74,135360,120
37,88,135360,120
44,45,135840,240
56,45,135840,240
61,53,136080,240
53,53,136080,240
44,42,136560,240
56,42,136560,240
53,47,136800,240
61,47,136800,240
44,25,138240,720
51,25,138240,720
54,25,138240,720
60,32,138960,120
61,32,139080,120
63,32,139200,120
65,32,139320,120
66,32,139440,120
68,32,139560,120
69,32,139680,120
57,30,140400,120
56,29,140520,120
55,28,140640,120
54,27,140760,120
53,26,140880,120
51,25,141000,120
49,27,141120,120
56,28,141240,120
61,30,141360,120
65,34,141480,120
61,31,141600,120
56,30,141720,120
49,29,141840,120
59,28,141960,120
61,30,142080,120
65,31,142200,120
61,30,142320,120
59,29,142440,120
54,28,142560,120
59,28,142680,120
61,31,142800,120
66,34,142920,120
61,31,143040,120
59,29,143160,120
49,29,143280,120
58,28,143400,120
61,30,143520,120
66,33,143640,120
61,31,143760,120
58,30,143880,120
56,28,144000,120
59,28,144120,120
61,30,144240,120
68,33,144360,120
61,31,144480,120
59,29,144600,120
49,29,144720,120
59,28,144840,120
61,30,144960,120
65,31,145080,120
61,30,145200,120
59,29,145320,120
54,29,145440,120
58,30,145560,120
61,34,145680,120
66,35,145800,120
61,34,145920,120
58,33,146040,120
52,35,146160,120
58,36,146280,120
61,39,146400,120
68,37,146520,120
61,34,146640,120
58,31,146760,120
51,36,146880,120
58,38,147000,120
61,41,147120,120
67,45,147240,120
61,42,147360,120
58,39,147480,120
55,36,147600,120
61,38,147720,120
63,41,147840,120
70,46,147960,120
63,42,148080,120
61,39,148200,120
56,37,148320,120
61,38,148440,120
63,42,148560,120
68,45,148680,120
63,41,148800,120
61,38,148920,120
51,36,149040,120
60,37,149160,120
63,40,149280,120
68,44,149400,120
63,41,149520,120
60,39,149640,120
58,36,149760,120
61,37,149880,120
63,40,150000,120
70,42,150120,120
63,41,150240,120
61,39,150360,120
51,37,150480,120
61,36,150600,120
63,38,150720,120
67,40,150840,120
63,40,150960,120
61,37,151080,120
56,50,151200,120
60,40,151320,120
63,44,151440,120
68,45,151560,120
63,44,151680,120
60,42,151800,120
55,39,151920,720
56,41,152040,120
60,45,152160,120
63,49,152280,120
60,47,152400,120
56,41,152520,120
54,38,152640,720
56,36,152760,120
60,39,152880,120
63,42,153000,120
60,41,153120,120
56,38,153240,120
54,47,153360,720
56,41,153480,120
60,41,153600,120
63,41,153720,120
60,38,153840,120
56,35,153960,120
53,34,154080,720
56,33,154200,120
61,36,154320,120
65,39,154440,120
61,37,154560,120
56,35,154680,120
53,36,154800,120
56,38,154920,120
61,41,155040,120
68,42,155160,120
61,40,155280,120
56,37,155400,120
51,35,155520,120
56,38,155640,120
60,41,155760,120
66,41,155880,120
60,39,156000,120
56,36,156120,120
51,34,156240,120
56,34,156360,120
60,37,156480,120
66,39,156600,120
60,36,156720,120
56,31,156840,120
50,31,156960,120
56,31,157080,120
59,35,157200,120
65,37,157320,120
59,36,157440,120
56,34,157560,120
50,34,157680,120
56,30,157800,120
58,35,157920,120
65,37,158040,120
58,36,158160,120
56,34,158280,120
51,34,158400,120
54,35,158520,120
58,38,158640,120
63,39,158760,120
58,38,158880,120
54,36,159000,120
42,34,159120,120
54,31,159240,120
58,36,159360,120
63,38,159480,120
58,36,159600,120
54,34,159720,120
44,35,159840,120
53,36,159960,120
56,37,160080,120
61,39,160200,120
56,37,160320,120
53,35,160440,120
44,33,160560,120
53,34,160680,120
56,35,160800,120
61,38,160920,120
56,37,161040,120
53,36,161160,120
44,39,161280,120
54,34,161400,120
56,36,161520,120
60,36,161640,120
56,35,161760,120
54,34,161880,120
44,31,162000,120
54,31,162120,120
56,35,162240,120
60,37,162360,120
56,35,162480,120
54,33,162600,120
49,33,162720,120
56,33,162840,120
61,36,162960,120
65,37,163080,120
61,36,163200,120
58,35,163320,120
56,36,163440,120
61,36,163560,120
65,39,163680,120
68,40,163800,120
65,39,163920,120
61,38,164040,120
54,38,164160,720
56,42,164280,120
60,42,164400,120
63,42,164520,120
60,42,164640,120
56,42,164760,120
54,41,164880,720
56,45,165000,120
60,45,165120,120
63,45,165240,120
60,41,165360,120
56,38,165480,120
53,37,165600,720
56,36,165720,120
61,39,165840,120
65,42,165960,120
61,40,166080,120
56,38,166200,120
53,39,166320,120
56,41,166440,120
61,45,166560,120
68,46,166680,120
61,44,166800,120
56,40,166920,120
51,39,167040,120
56,41,167160,120
60,45,167280,120
66,45,167400,120
60,42,167520,120
56,39,167640,120
51,38,167760,120
56,37,167880,120
60,40,168000,120
66,42,168120,120
60,39,168240,120
56,34,168360,120
50,35,168480,120
56,37,168600,120
59,41,168720,120
65,44,168840,120
59,42,168960,120
56,40,169080,120
50,35,169200,120
56,36,169320,120
58,41,169440,120
65,44,169560,120
58,42,169680,120
56,40,169800,120
51,37,169920,120
54,38,170040,120
58,41,170160,120
63,42,170280,120
58,41,170400,120
54,39,170520,120
42,37,170640,120
54,34,170760,120
58,39,170880,120
63,41,171000,120
58,39,171120,120
54,37,171240,120
44,37,171360,120
53,39,171480,120
56,40,171600,120
61,42,171720,120
56,40,171840,120
53,38,171960,120
44,35,172080,120
53,35,172200,120
56,37,172320,120
61,39,172440,120
56,37,172560,120
53,35,172680,120
44,38,172800,120
53,37,172920,120
56,39,173040,120
62,41,173160,120
56,39,173280,120
53,36,173400,120
44,40,173520,120
53,39,173640,120
56,43,173760,120
62,48,173880,120
56,45,174000,120
53,41,174120,120
44,40,174240,120
53,40,174360,120
56,43,174480,120
62,45,174600,120
56,42,174720,120
53,36,174840,120
44,52,174960,120
53,40,175080,120
56,43,175200,120
62,47,175320,120
56,44,175440,120
53,40,175560,120
44,54,175680,120
51,43,175800,120
54,47,175920,120
63,50,176040,120
54,46,176160,120
51,43,176280,120
44,67,176400,120
51,50,176520,120
54,55,176640,120
63,58,176760,120
54,55,176880,120
51,52,177000,120
44,62,177120,120
51,50,177240,120
54,55,177360,120
60,58,177480,120
54,55,177600,120
51,51,177720,120
44,67,177840,120
51,57,177960,120
54,61,178080,120
60,65,178200,120
54,62,178320,120
51,59,178440,120
37,71,178560,120
44,70,179040,120
53,75,179160,120
61,83,179280,240
32,87,180000,120
44,68,180480,120
51,74,180600,120
60,84,180720,240
37,87,181440,120
44,70,181920,120
53,75,182040,120
61,83,182160,240
32,87,182880,120
44,68,183360,120
51,74,183480,120
60,84,183600,240
25,82,184320,240
44,68,184800,120
53,74,184920,120
61,84,185040,240
25,96,187200,120
37,96,187200,120
61,86,187920,720
73,102,187920,720
33,40,190080,720
45,40,190080,2880
38,36,190800,2160
33,40,192960,720
45,40,192960,2880
38,36,193680,2160
40,34,195840,1200
50,34,195840,1200
45,30,197040,1680
49,30,197040,240
52,26,197280,1440
52,32,199200,240
55,32,199200,240
58,32,199200,240
50,38,199440,240
54,38,199440,240
59,38,199440,240
54,32,199920,240
57,32,199920,240
62,32,199920,240
53,36,200160,480
56,36,200160,480
61,36,200160,480
52,31,200640,240
55,31,200640,240
58,31,200640,240
50,37,200880,240
54,37,200880,240
59,37,200880,240
54,32,201360,240
57,32,201360,240
62,32,201360,240
49,29,201600,240
56,29,201630,210
65,29,201660,180
37,25,202320,120
33,40,204480,720
45,40,204480,2880
38,36,205200,2160
33,40,207360,720
45,40,207360,3600
38,36,208080,2880
40,34,210960,1200
52,34,210960,720
50,34,211680,480
45,30,212160,240
49,30,212160,240
45,26,212400,1440
52,26,212400,1440
59,26,217200,240
62,26,217200,240
65,26,217200,240
57,31,217440,240
61,31,217440,240
66,31,217440,240
61,28,217920,240
64,28,217920,240
69,28,217920,240
60,31,218160,480
63,31,218160,480
68,31,218160,480
59,27,218640,240
62,27,218640,240
65,27,218640,240
57,31,218880,240
61,31,218880,240
66,31,218880,240
61,25,219360,240
64,25,219360,240
69,25,219360,240
56,24,219600,240
63,24,219600,240
72,24,219600,240
44,24,220320,240
49,33,222480,720
64,30,222720,240
56,30,222960,480
51,33,223200,720
54,33,223200,720
60,32,223440,240
56,32,223680,480
52,33,223920,720
61,32,224160,240
56,32,224400,480
48,33,224640,720
63,31,224880,240
56,31,225120,480
49,33,225360,720
64,33,225600,240
56,31,225840,480
51,33,226080,720
54,33,226080,720
60,31,226320,240
56,31,226560,480
52,33,226800,720
61,31,227040,240
56,31,227280,240
59,31,227520,240
53,33,227520,720
68,31,227760,240
61,31,228000,480
54,36,228240,720
57,36,228240,720
66,31,228480,240
61,31,228720,480
56,33,228960,720
59,33,228960,720
65,31,229200,240
61,31,229440,480
57,33,229680,720
66,27,229920,240
61,27,230160,480
53,30,230400,720
68,31,230640,240
61,31,230880,480
54,33,231120,720
57,33,231120,720
69,31,231360,240
61,31,231600,480
56,33,231840,720
59,33,231840,720
65,31,232080,240
61,31,232320,480
57,33,232560,720
66,31,232800,240
61,31,233040,240
45,31,233280,120
61,28,233520,240
54,28,233760,240
44,30,234000,240
51,30,234000,720
60,27,234240,240
54,27,234480,240
52,31,234720,720
61,33,234960,240
56,33,235200,240
44,38,235440,240
54,38,235440,720
60,32,235680,240
56,32,235920,480
52,37,236160,720
61,31,236400,240
56,31,236640,240
44,36,236880,240
51,36,236880,720
60,34,237120,240
56,34,237360,480
52,38,237600,720
61,31,237840,240
56,31,238080,240
47,33,238320,1440
54,29,238560,1200
57,29,238800,960
63,33,239040,720
52,32,239760,720
64,29,240000,240
59,29,240000,240
56,30,240240,240
51,35,240480,720
64,30,240720,240
59,30,240720,240
56,32,240960,240
52,32,241200,240
64,30,241440,240
59,30,241440,240
56,30,241680,240
47,32,241920,720
45,36,242640,120
64,31,242880,240
61,31,242880,240
54,31,243120,240
42,40,243360,120
64,35,243600,240
61,35,243600,240
54,35,243840,240
47,38,244080,120
59,34,244320,1200
63,34,244320,1200
54,31,244560,240
56,38,244800,240
54,40,245040,240
56,48,245280,240
52,35,245520,720
64,31,245760,240
59,31,245760,240
56,33,246000,240
51,38,246240,720
64,33,246480,240
59,33,246480,240
56,35,246720,240
52,35,246960,240
64,33,247200,240
59,33,247200,240
56,33,247440,240
47,35,247680,720
45,36,248400,120
64,31,248640,240
61,31,248640,240
54,31,248880,240
42,40,249120,120
64,35,249360,240
61,35,249360,240
54,35,249600,240
47,42,249840,120
59,36,250080,1200
63,36,250080,1200
54,36,250320,240
56,38,250560,240
54,40,250800,240
56,45,251040,240
52,49,251280,720
64,44,251520,240
59,44,251520,240
56,44,251760,240
47,67,252000,120
64,74,252240,240
59,74,252240,240
56,74,252480,240
45,70,252720,240
57,70,252720,240
48,77,252960,480
60,77,252960,480
40,66,254160,720
52,52,254400,240
47,52,254640,240
35,68,254880,120
52,68,255120,240
47,68,255360,240
33,75,255600,240
45,75,255600,240
36,86,255840,480
48,86,255840,480
28,98,257040,240
68,80,258480,240
59,80,258480,240
52,80,258480,240
28,96,261360,720
33,50,262800,720
45,50,262800,2880
38,44,263520,2160
33,50,265680,720
45,50,265680,3600
38,44,266400,2880
40,41,269280,1200
52,41,269280,720
50,39,270000,480
45,36,270480,1680
49,36,270480,240
52,32,270720,1440
52,32,272640,240
55,32,272640,240
58,32,272640,240
50,38,272880,240
54,38,272880,240
59,38,272880,240
54,32,273360,240
57,32,273360,240
62,32,273360,240
53,36,273600,480
56,36,273600,480
61,36,273600,480
52,31,274080,240
55,31,274080,240
58,31,274080,240
50,37,274320,240
54,37,274320,240
59,37,274320,240
54,32,274800,240
57,32,274800,240
62,32,274800,240
49,29,275040,240
56,29,275070,210
65,29,275100,180
37,25,275760,120
45,34,277920,2880
38,30,278640,2160
33,34,280800,720
45,34,280800,3600
38,30,281520,2880
40,28,284400,1200
52,28,284400,720
50,28,285120,480
45,25,285600,1680
49,25,285600,240
52,22,285840,1440
59,26,290640,240
62,26,290640,240
65,26,290640,240
57,31,290880,240
61,31,290880,240
66,31,290880,240
61,28,291360,240
64,28,291360,240
69,28,291360,240
60,31,291600,480
63,31,291600,480
68,31,291600,480
59,27,292080,240
62,27,292080,240
65,27,292080,240
57,31,292320,240
61,31,292320,240
66,31,292320,240
61,25,292800,240
64,25,292800,240
69,25,292800,240
56,24,293040,240
63,24,293040,240
72,24,293040,240
44,24,293760,240
49,33,295920,720
64,30,296160,240
56,30,296400,480
51,33,296640,720
54,33,296640,720
60,32,296880,240
56,32,297120,480
52,33,297360,720
61,32,297600,240
56,32,297840,480
48,33,298080,720
63,31,298320,240
56,31,298560,480
49,33,298800,720
64,33,299040,240
56,31,299280,480
51,33,299520,720
54,33,299520,720
60,31,299760,240
56,31,300000,480
52,33,300240,720
61,31,300480,240
56,31,300720,240
59,31,300960,240
53,33,300960,720
68,31,301200,240
61,31,301440,480
54,36,301680,720
57,36,301680,720
66,31,301920,240
61,31,302160,480
56,33,302400,720
59,33,302400,720
65,31,302640,240
61,31,302880,480
57,33,303120,720
66,27,303360,240
61,27,303600,480
53,30,303840,720
68,31,304080,240
61,31,304320,480
54,33,304560,720
57,33,304560,720
69,31,304800,240
61,31,305040,480
56,33,305280,720
59,33,305280,720
65,31,305520,240
61,31,305760,480
57,33,306000,720
66,31,306240,240
61,31,306480,240
45,31,306720,120
61,28,306960,240
54,28,307200,240
44,30,307440,240
51,30,307440,720
60,27,307680,240
54,27,307920,240
52,31,308160,720
61,33,308400,240
56,33,308640,240
44,38,308880,240
54,38,308880,720
60,32,309120,240
56,32,309360,480
52,37,309600,720
61,31,309840,240
56,31,310080,240
44,36,310320,240
51,36,310320,720
60,34,310560,240
56,34,310800,480
52,38,311040,720
61,31,311280,240
56,31,311520,240
47,33,311760,1440
54,29,312000,1200
57,29,312240,960
63,33,312480,720
52,32,313200,720
64,29,313440,240
59,29,313440,240
56,30,313680,240
51,35,313920,720
64,30,314160,240
59,30,314160,240
56,32,314400,240
52,32,314640,240
64,30,314880,240
59,30,314880,240
56,30,315120,240
47,32,315360,720
45,36,316080,120
64,31,316320,240
61,31,316320,240
54,31,316560,240
42,40,316800,120
64,35,317040,240
61,35,317040,240
54,35,317280,240
47,38,317520,120
59,34,317760,1200
63,34,317760,1200
54,31,318000,240
56,38,318240,240
54,40,318480,240
56,48,318720,240
52,35,318960,720
64,31,319200,240
59,31,319200,240
56,33,319440,240
51,38,319680,720
64,33,319920,240
59,33,319920,240
56,35,320160,240
52,35,320400,240
64,33,320640,240
59,33,320640,240
56,33,320880,240
47,35,321120,720
45,36,321840,120
64,31,322080,240
61,31,322080,240
54,31,322320,240
42,40,322560,120
64,35,322800,240
61,35,322800,240
54,35,323040,240
47,42,323280,120
59,36,323520,1200
63,36,323520,1200
54,36,323760,240
56,38,324000,240
54,40,324240,240
56,45,324480,240
52,49,324720,720
64,44,324960,240
59,44,324960,240
56,44,325200,240
47,62,325440,120
64,67,325680,240
59,67,325680,240
56,67,325920,240
45,70,326160,240
57,70,326160,240
48,77,326400,480
60,77,326400,480
40,66,327600,720
52,52,327840,240
47,52,328080,240
35,68,328320,120
52,66,328560,240
47,66,328800,240
33,75,329040,240
45,75,329040,240
36,86,329280,480
48,86,329280,480
28,104,330480,240
68,80,331920,240
59,80,331920,240
52,80,331920,240
28,96,334800,720
38,98,336240,240
26,83,336240,240
56,80,337680,240
65,80,337680,240
59,80,337680,240
50,68,337680,240
26,96,340560,1440
25,86,342000,240
37,102,342000,240
44,84,342720,240
56,84,342720,240
51,90,342960,240
63,90,342960,240
49,84,343200,240
61,84,343200,240
49,95,343440,480
61,95,343440,480
37,90,344160,120
49,90,344160,120
25,90,344880,240
37,90,344880,240
42,82,345600,240
54,82,345600,240
51,87,345840,240
63,87,345840,240
49,82,346080,240
61,82,346080,240
49,93,346320,120
61,93,346320,120
31,71,346560,240
43,71,346560,240
32,71,346800,240
44,71,346800,240
32,71,347040,240
44,71,347040,240
39,75,347280,240
51,75,347280,240
37,74,347520,240
49,74,347520,240
38,93,347760,240
50,93,347760,240
45,81,348480,240
57,81,348480,240
64,86,348720,240
52,86,348720,240
50,79,348960,240
62,79,348960,240
50,93,349200,480
62,93,349200,480
38,97,349920,120
50,97,349920,120
38,93,350640,240
26,79,350640,240
43,81,351360,240
55,81,351360,240
64,86,351600,240
52,86,351600,240
50,79,351840,240
62,79,351840,240
50,86,352080,120
62,86,352080,120
37,71,352320,240
49,71,352320,240
38,71,352560,240
50,71,352560,240
38,77,352800,120
50,77,352800,120
35,70,353040,240
47,70,353040,240
36,71,353280,240
48,71,353280,240
34,84,353520,240
46,84,353520,240
62,56,353760,240
50,56,354000,240
55,56,354000,240
45,68,354240,240
62,56,354480,240
50,56,354720,240
57,56,354720,240
43,66,354960,240
62,56,355200,240
50,56,355440,240
58,56,355440,240
48,65,355680,720
62,56,355920,240
54,56,356160,240
57,56,356160,240
46,65,356400,240
62,56,356640,240
50,56,356880,240
55,56,356880,240
45,66,357120,240
62,56,357360,240
50,56,357600,240
57,56,357600,240
43,65,357840,240
62,56,358080,240
55,56,358320,240
47,64,358560,240
62,56,358800,240
55,56,359040,240
48,65,359280,240
63,56,359520,240
55,56,359760,240
50,65,360000,240
65,54,360240,240
55,54,360480,240
59,54,360480,240
51,66,360720,240
67,54,360960,240
55,54,361200,240
60,54,361200,240
53,64,361440,720
67,54,361680,240
55,54,361920,240
59,54,361920,240
51,63,362160,720
63,52,362400,240
55,52,362640,240
60,52,362640,240
50,58,362880,720
62,51,363120,240
55,51,363360,240
48,57,363600,720
60,49,363840,240
51,49,364080,240
55,49,364080,240
46,55,364320,720
61,50,364560,240
51,50,364800,240
55,50,364800,240
44,56,365040,240
59,50,365280,240
51,50,365520,240
56,50,365520,240
43,57,365760,240
63,52,366000,240
51,52,366240,240
58,52,366240,240
44,59,366480,240
63,53,366720,240
51,53,366960,240
56,53,366960,240
59,53,366960,240
46,64,367200,240
63,54,367440,240
51,54,367680,240
55,54,367680,240
61,54,367680,240
47,66,367920,240
63,57,368160,240
51,57,368400,240
56,57,368400,240
59,57,368400,240
43,68,368640,240
63,60,368880,240
51,60,369120,240
58,60,369120,240
44,70,369360,240
63,60,369600,240
51,60,369840,240
56,60,369840,240
59,60,369840,240
46,72,370080,240
63,67,370320,240
51,72,370560,240
55,72,370560,240
61,72,370560,240
35,86,370800,120
47,86,370800,120
64,50,371280,240
56,50,371280,240
71,62,371520,240
59,62,371520,240
56,51,372000,240
64,51,372000,240
59,61,372240,240
71,61,372240,240
35,40,373680,120
47,40,373680,120
63,38,374400,240
66,38,374400,240
57,38,374400,240
60,38,374400,240
60,44,374640,240
57,44,374640,240
63,44,374640,240
68,44,374640,240
63,42,374880,240
66,42,374880,240
57,42,374880,240
60,42,374880,240
66,39,375120,120
63,39,375120,120
60,39,375120,120
57,39,375120,120
35,53,375840,240
47,53,375840,240
45,49,376080,240
33,49,376080,240
36,53,376320,240
48,53,376320,240
35,52,376560,120
47,52,376560,120
64,45,376800,240
56,45,376800,240
64,45,377040,240
56,45,377040,240
71,51,377280,360
59,51,377280,360
64,45,377640,120
56,45,377640,120
56,45,377760,240
64,45,377760,240
59,52,378000,240
71,52,378000,240
38,40,379440,120
50,40,379440,120
66,38,380160,240
68,38,380160,240
59,38,380160,240
59,44,380400,240
66,44,380400,240
69,44,380400,240
66,42,380640,240
68,42,380640,240
59,42,380640,240
68,39,380880,120
65,39,380880,120
59,39,380880,120
38,53,381600,240
50,53,381600,240
48,53,381840,240
36,53,381840,240
37,53,382080,240
49,53,382080,240
40,47,382320,120
52,47,382320,120
68,48,383040,240
70,48,383040,240
61,48,383040,240
61,53,383280,240
68,53,383280,240
71,53,383280,240
68,51,383520,240
70,51,383520,240
61,51,383520,240
70,49,383760,120
67,49,383760,120
61,49,383760,120
40,58,384480,240
52,58,384480,240
50,58,384720,240
38,58,384720,240
39,58,384960,240
51,58,384960,240
42,55,385200,120
54,55,385200,120
60,49,385680,240
63,49,385680,240
69,49,385680,240
63,54,385920,240
69,54,385920,240
75,54,385920,240
60,52,386400,240
63,52,386400,240
69,52,386400,240
63,56,386640,240
69,56,386640,240
75,56,386640,240
54,70,387120,228
66,70,387120,228
54,70,387360,228
66,70,387360,228
54,70,387600,228
66,70,387600,228
54,70,387840,228
66,70,387840,228
53,73,388080,240
60,73,388080,240
63,73,388080,240
69,73,388080,240
89,89,388800,120
88,81,388920,120
87,79,389040,120
84,78,389160,120
81,76,389280,240
65,88,389760,120
64,81,389880,120
63,79,390000,120
60,77,390120,120
57,75,390240,240
41,117,390720,240
34,100,390960,240
46,100,390960,240
70,58,391200,240
58,58,391200,240
65,58,391440,240
61,58,391440,240
44,81,391680,240
56,81,391680,240
68,58,391920,240
56,58,391920,240
65,58,392160,240
60,58,392160,240
42,81,392400,240
54,81,392400,240
66,58,392640,240
54,58,392640,240
61,58,392880,240
58,58,392880,240
41,80,393120,240
53,80,393120,240
65,56,393360,240
53,56,393360,240
61,56,393600,240
56,56,393600,240
39,81,393840,240
51,81,393840,240
63,56,394080,240
51,56,394080,240
58,56,394320,240
54,56,394320,240
37,81,394560,240
49,81,394560,240
61,62,394800,240
49,62,394800,240
53,61,395040,240
58,61,395040,240
36,81,395280,240
48,81,395280,240
60,57,395520,240
48,57,395520,240
51,57,395760,240
54,57,395760,240
34,80,396000,240
46,80,396000,240
58,58,396240,480
46,58,396240,480
51,58,396480,240
54,58,396480,240
48,76,396720,240
45,76,396720,240
53,76,396720,240
57,76,396720,240
52,64,396960,120
53,61,397080,120
56,64,397200,100
54,64,397280,100
53,61,397360,70
34,57,397440,240
46,57,397470,210
63,71,397680,240
51,71,397680,240
49,72,397920,240
61,72,397920,240
41,74,398160,240
48,74,398175,225
57,74,398190,210
52,62,398400,120
53,59,398520,120
56,62,398640,100
54,62,398720,100
53,58,398800,70
34,54,398880,240
46,54,398910,210
60,69,399120,240
48,69,399120,240
46,69,399360,240
58,69,399360,240
41,75,399600,240
48,75,399615,225
57,75,399630,210
52,61,399840,120
53,58,399960,120
56,61,400080,100
54,61,400160,100
53,57,400240,70
34,55,400320,240
46,55,400350,210
63,74,400560,240
51,74,400560,240
49,73,400800,240
61,73,400800,240
41,75,401040,240
48,75,401055,225
57,74,401070,210
52,67,401280,120
53,63,401400,120
56,67,401520,100
54,67,401600,100
53,62,401680,70
34,60,401760,240
46,60,401790,210
60,74,402000,240
48,74,402000,240
46,74,402240,240
58,74,402240,240
41,75,402480,240
48,75,402495,225
57,74,402510,210
52,63,402720,120
53,60,402840,120
56,63,402960,100
54,63,403040,100
53,60,403120,70
53,74,403200,240
61,71,403440,240
60,73,403680,240
41,76,403920,240
48,76,403935,225
57,76,403950,210
47,67,404160,120
48,64,404280,120
51,67,404400,100
49,67,404480,100
48,64,404560,70
36,74,404640,240
48,74,404640,240
58,73,404880,240
57,70,405120,240
41,69,405360,240
48,69,405375,225
57,69,405390,210
52,66,405600,120
53,63,405720,120
56,66,405840,100
54,66,405920,100
53,63,406000,70
53,74,406080,240
61,74,406320,240
60,71,406560,240
41,68,406800,240
48,68,406815,225
57,68,406830,210
47,66,407040,120
48,64,407160,120
51,66,407280,100
49,66,407360,100
48,63,407440,70
36,75,407520,240
48,75,407520,240
58,69,407760,240
57,71,408000,240
41,59,408240,240
48,59,408255,225
57,59,408270,210
47,61,408480,120
48,57,408600,120
51,61,408720,100
49,61,408800,100
48,57,408880,70
36,69,408960,240
48,69,408960,240
58,67,409200,240
57,65,409440,240
41,62,409680,240
48,62,409695,225
57,62,409710,210
47,56,409920,120
48,53,410040,120
51,57,410160,100
49,57,410240,100
48,54,410320,70
36,65,410400,240
48,65,410400,240
58,60,410640,240
57,60,410880,240
41,56,411120,240
48,56,411135,225
53,56,411150,210
35,48,411360,150
36,44,411480,150
39,48,411600,100
37,48,411680,100
36,45,411760,70
36,55,411840,240
46,55,412080,120
45,53,412320,120
41,56,412560,240
35,43,412800,150
36,40,412920,150
39,43,413040,100
37,43,413120,100
36,40,413200,70
36,46,413280,240
46,49,413520,120
45,49,413760,120
41,52,414000,240
35,44,415680,150
36,41,415800,150
39,44,415920,100
37,44,416000,100
36,41,416080,70
36,52,416160,120
46,49,416400,120
45,46,416640,120
41,52,416880,240
34,43,417840,240
33,43,418080,240
29,43,418320,720
45,27,420240,80
46,28,420320,80
49,29,420400,80
53,33,420480,120
45,26,420960,80
46,27,421040,80
49,29,421120,80
53,38,421200,1440
34,95,422640,120
46,95,422640,120
58,72,423360,1440
60,72,423360,1440
63,85,423360,1440
66,85,423360,1440
70,85,423360,1440
58,47,424800,360
60,47,424800,360
63,56,424800,360
66,56,424800,360
70,56,424800,360
58,51,425160,120
60,51,425160,120
63,61,425160,120
66,61,425160,120
70,61,425160,120
58,56,425280,240
60,56,425280,240
63,66,425280,240
66,66,425280,240
70,66,425280,240
58,52,425520,240
61,52,425520,240
65,62,425520,240
70,62,425520,240
45,27,426000,80
46,28,426080,80
49,30,426160,80
53,33,426240,120
45,26,426720,80
46,28,426800,80
49,30,426880,80
53,37,426960,1440
32,95,428400,120
44,95,428400,120
56,75,429060,1500
65,89,429090,1470
73,89,429120,1440
56,49,430560,360
63,58,430560,360
66,58,430560,360
68,58,430560,360
56,53,430920,120
63,63,430920,120
66,63,430920,120
68,63,430920,120
56,57,431040,240
63,68,431040,240
66,68,431040,240
68,68,431040,240
68,65,431280,240
61,55,431280,240
65,65,431280,240
65,77,432000,480
60,77,432000,480
53,65,432000,480
41,65,432720,480
48,77,432720,480
53,77,432720,480
29,79,433440,1680
41,94,433440,1680
30,82,435120,180
42,97,435120,180
45,27,437520,80
46,28,437600,80
49,29,437680,80
53,33,437760,120
45,27,438240,80
46,28,438320,80
49,29,438400,80
53,37,438480,1440
46,95,439920,120
34,95,439920,120
63,85,440640,1080
58,72,440640,1080
60,72,440640,1080
70,85,440640,1080
66,85,440640,1080
58,47,441720,120
60,47,441720,120
63,56,441720,120
66,56,441720,120
70,56,441720,120
58,47,441840,240
60,47,441840,240
63,56,441840,240
66,56,441840,240
70,56,441840,240
63,56,442080,360
58,47,442080,360
60,47,442080,360
66,56,442080,360
70,56,442080,360
60,51,442440,120
63,61,442440,120
58,51,442440,120
66,61,442440,120
70,61,442440,120
63,66,442560,240
66,66,442560,240
58,56,442560,240
60,56,442560,240
70,66,442560,240
65,62,442800,240
58,52,442800,240
61,62,442800,240
70,62,442800,240
45,27,443280,80
46,29,443360,80
49,30,443440,80
53,34,443520,120
45,24,444000,80
46,26,444080,80
49,27,444160,80
53,37,444240,1440
24,95,445680,120
36,95,445680,120
68,89,446400,1440
72,89,446400,1440
65,75,446400,1440
60,75,446400,1440
60,49,447840,360
70,58,447840,360
64,58,447840,360
72,58,447840,360
64,63,448200,120
60,53,448200,120
72,63,448200,120
70,63,448200,120
70,68,448320,240
60,57,448320,240
64,68,448320,240
72,68,448320,240
72,65,448560,240
65,55,448560,240
68,65,448560,240
53,65,449280,480
65,77,449280,480
60,77,449280,480
53,77,450000,480
48,77,450000,480
41,65,450000,480
28,79,450720,1440
40,94,450720,1440
29,94,452160,720
26,45,452880,90
27,45,452960,90
29,45,453040,90
27,46,453120,90
29,47,453200,80
27,49,453280,90
29,50,453360,90
27,51,453440,90
29,51,453520,90
27,52,453600,70
29,53,453660,70
27,53,453720,70
29,54,453780,70
27,55,453840,70
29,55,453900,70
27,56,453960,70
29,56,454020,70
27,59,454080,90
26,73,454160,90
27,73,454240,90
25,74,454320,120
37,88,454320,120
44,45,454800,240
56,45,454800,240
61,53,455040,240
53,53,455040,240
44,42,455520,240
56,42,455520,240
53,47,455760,240
61,47,455760,240
32,52,457200,120
44,52,457200,120
66,38,457920,240
55,38,457920,240
60,38,457920,240
56,35,458160,240
60,35,458160,240
66,35,458160,240
66,31,458400,120
56,31,458400,120
60,31,458400,120
57,35,459360,240
60,35,459360,240
66,35,459360,240
66,32,459600,240
60,32,459600,240
56,32,459600,240
66,28,459840,120
60,28,459840,120
56,28,459840,120
25,74,460080,120
37,88,460080,120
44,45,460560,240
56,45,460560,240
61,53,460800,240
53,53,460800,240
44,42,461280,240
56,42,461280,240
53,47,461520,240
61,47,461520,240
44,25,462960,720
51,25,462960,720
54,25,462960,720
60,32,463680,120
61,32,463800,120
63,32,463920,120
65,32,464040,120
66,32,464160,120
68,32,464280,120
69,32,464400,120
57,30,465120,120
56,29,465240,120
55,28,465360,120
54,27,465480,120
53,26,465600,120
51,25,465720,120
49,27,465840,120
56,28,465960,120
61,30,466080,120
65,34,466200,120
61,31,466320,120
56,30,466440,120
49,29,466560,120
59,28,466680,120
61,30,466800,120
65,31,466920,120
61,30,467040,120
59,29,467160,120
54,28,467280,120
59,28,467400,120
61,31,467520,120
66,34,467640,120
61,31,467760,120
59,29,467880,120
49,29,468000,120
58,28,468120,120
61,30,468240,120
66,33,468360,120
61,31,468480,120
58,30,468600,120
56,28,468720,120
59,28,468840,120
61,30,468960,120
68,33,469080,120
61,31,469200,120
59,29,469320,120
49,29,469440,120
59,28,469560,120
61,30,469680,120
65,31,469800,120
61,30,469920,120
59,29,470040,120
54,29,470160,120
58,30,470280,120
61,34,470400,120
66,35,470520,120
61,34,470640,120
58,33,470760,120
52,35,470880,120
58,36,471000,120
61,39,471120,120
68,37,471240,120
61,34,471360,120
58,31,471480,120
51,36,471600,120
58,38,471720,120
61,41,471840,120
67,45,471960,120
61,42,472080,120
58,39,472200,120
55,36,472320,120
61,38,472440,120
63,41,472560,120
70,46,472680,120
63,42,472800,120
61,39,472920,120
56,37,473040,120
61,38,473160,120
63,42,473280,120
68,45,473400,120
63,41,473520,120
61,38,473640,120
51,36,473760,120
60,37,473880,120
63,40,474000,120
68,44,474120,120
63,41,474240,120
60,39,474360,120
58,36,474480,120
61,37,474600,120
63,40,474720,120
70,42,474840,120
63,41,474960,120
61,39,475080,120
51,37,475200,120
61,36,475320,120
63,38,475440,120
67,40,475560,120
63,40,475680,120
61,37,475800,120
56,50,475920,120
60,40,476040,120
63,44,476160,120
68,45,476280,120
63,44,476400,120
60,42,476520,120
55,39,476640,720
56,41,476760,120
60,45,476880,120
63,49,477000,120
60,47,477120,120
56,41,477240,120
54,38,477360,720
56,36,477480,120
60,39,477600,120
63,42,477720,120
60,41,477840,120
56,38,477960,120
54,47,478080,720
56,41,478200,120
60,41,478320,120
63,41,478440,120
60,38,478560,120
56,35,478680,120
53,34,478800,720
56,33,478920,120
61,36,479040,120
65,39,479160,120
61,37,479280,120
56,35,479400,120
53,36,479520,120
56,38,479640,120
61,41,479760,120
68,42,479880,120
61,40,480000,120
56,37,480120,120
51,35,480240,120
56,38,480360,120
60,41,480480,120
66,41,480600,120
60,39,480720,120
56,36,480840,120
51,34,480960,120
56,34,481080,120
60,37,481200,120
66,39,481320,120
60,36,481440,120
56,31,481560,120
50,31,481680,120
56,31,481800,120
59,35,481920,120
65,37,482040,120
59,36,482160,120
56,34,482280,120
50,34,482400,120
56,30,482520,120
58,35,482640,120
65,37,482760,120
58,36,482880,120
56,34,483000,120
51,34,483120,120
54,35,483240,120
58,38,483360,120
63,39,483480,120
58,38,483600,120
54,36,483720,120
42,34,483840,120
54,31,483960,120
58,36,484080,120
63,38,484200,120
58,36,484320,120
54,34,484440,120
44,35,484560,120
53,36,484680,120
56,37,484800,120
61,39,484920,120
56,37,485040,120
53,35,485160,120
44,33,485280,120
53,34,485400,120
56,35,485520,120
61,38,485640,120
56,37,485760,120
53,36,485880,120
44,39,486000,120
54,34,486120,120
56,36,486240,120
60,36,486360,120
56,35,486480,120
54,34,486600,120
44,31,486720,120
54,31,486840,120
56,35,486960,120
60,37,487080,120
56,35,487200,120
54,33,487320,120
49,33,487440,120
56,33,487560,120
61,36,487680,120
65,37,487800,120
61,36,487920,120
58,35,488040,120
56,36,488160,240
61,36,488280,120
65,39,488400,120
68,40,488520,120
65,39,488640,120
61,38,488760,120
54,38,488880,720
56,42,489000,120
60,42,489120,120
63,42,489240,120
60,42,489360,120
56,42,489480,120
54,41,489600,720
56,45,489720,120
60,45,489840,120
63,45,489960,120
60,41,490080,120
56,38,490200,120
53,37,490320,720
56,36,490440,120
61,39,490560,120
65,42,490680,120
61,40,490800,120
56,38,490920,120
53,39,491040,120
56,41,491160,120
61,45,491280,120
68,46,491400,120
61,44,491520,120
56,40,491640,120
51,39,491760,120
56,41,491880,120
60,45,492000,120
66,45,492120,120
60,42,492240,120
56,39,492360,120
51,38,492480,120
56,37,492600,120
60,40,492720,120
66,42,492840,120
60,39,492960,120
56,34,493080,120
50,35,493200,120
56,37,493320,120
59,41,493440,120
65,44,493560,120
59,42,493680,120
56,40,493800,120
50,35,493920,120
56,36,494040,120
58,41,494160,120
65,44,494280,120
58,42,494400,120
56,40,494520,120
51,37,494640,120
54,38,494760,120
58,41,494880,120
63,42,495000,120
58,41,495120,120
54,39,495240,120
42,37,495360,120
54,34,495480,120
58,39,495600,120
63,41,495720,120
58,39,495840,120
54,37,495960,120
44,37,496080,120
53,39,496200,120
56,40,496320,120
61,42,496440,120
56,40,496560,120
53,38,496680,120
44,35,496800,120
53,35,496920,120
56,37,497040,120
61,39,497160,120
56,37,497280,120
53,35,497400,120
44,38,497520,120
53,37,497640,120
56,39,497760,120
62,41,497880,120
56,39,498000,120
53,36,498120,120
44,40,498240,120
53,39,498360,120
56,43,498480,120
62,48,498600,120
56,45,498720,120
53,41,498840,120
44,40,498960,120
53,40,499080,120
56,43,499200,120
62,45,499320,120
56,42,499440,120
53,36,499560,120
44,52,499680,120
53,40,499800,120
56,43,499920,120
62,47,500040,120
56,44,500160,120
53,40,500280,120
44,54,500400,120
51,43,500520,120
54,47,500640,120
63,50,500760,120
54,46,500880,120
51,43,501000,120
44,56,501120,120
52,47,501240,120
55,49,501360,120
64,51,501480,120
55,49,501600,120
52,47,501720,120
44,57,501840,120
52,48,501960,120
55,51,502080,120
64,53,502200,120
55,51,502320,120
52,49,502440,120
44,61,502560,120
52,51,502680,120
55,54,502800,120
64,56,502920,120
55,54,503040,120
52,51,503160,120
44,64,503280,120
53,54,503400,120
56,56,503520,120
65,59,503640,120
56,55,503760,120
53,52,503880,120
44,67,504000,120
51,55,504120,120
54,57,504240,120
60,60,504360,120
54,58,504480,120
51,55,504600,120
44,68,504720,120
47,57,504840,120
53,59,504960,120
59,60,505080,120
53,59,505200,120
47,57,505320,120
44,68,505440,120
53,56,505560,120
56,60,505680,120
62,62,505800,120
56,60,505920,120
53,57,506040,120
44,70,506160,120
49,59,506280,120
55,62,506400,120
61,65,506520,120
55,62,506640,120
49,59,506760,120
44,72,506880,120
52,59,507000,120
58,64,507120,120
64,66,507240,120
58,62,507360,120
52,59,507480,120
44,72,507600,120
51,58,507720,120
54,63,507840,120
63,68,507960,120
54,65,508080,120
51,62,508200,120
44,72,508320,120
51,60,508440,120
54,64,508560,120
60,69,508680,120
54,65,508800,120
51,63,508920,120
37,78,509040,180
44,68,509524,120
51,68,509640,120
61,83,509760,240
32,87,510480,120
44,68,510960,120
51,74,511080,120
60,84,511200,240
37,87,511920,120
44,70,512400,120
53,75,512520,120
61,83,512640,240
32,87,513360,120
44,68,513840,120
51,74,513960,120
60,84,514080,240
33,97,514800,120
45,97,514800,120
39,82,515040,240
51,82,515040,240
40,90,515280,240
52,90,515280,240
40,90,515520,720
52,90,515520,720
39,77,516480,240
40,77,516720,240
33,81,516960,480
41,81,516960,480
40,75,517440,240
33,75,517440,240
33,97,517680,120
45,97,517680,120
39,82,517920,240
51,82,517920,240
40,90,518160,240
52,90,518160,240
40,90,518400,720
52,90,518400,720
39,77,519360,240
40,77,519600,240
33,81,519840,480
41,81,519840,480
40,75,520320,240
33,75,520320,240
33,87,520560,180
41,87,520560,180
33,38,521040,240
45,38,521040,240
41,42,521280,240
53,42,521280,240
33,39,521760,240
45,39,521760,240
41,43,522000,240
53,43,522000,240
34,39,522480,240
46,39,522480,240
41,43,522720,240
53,43,522720,240
34,40,523200,240
46,40,523200,240
41,44,523440,240
53,44,523440,240
34,42,523920,240
46,42,523920,240
42,48,524160,240
54,48,524160,240
34,44,524640,240
46,44,524640,240
42,48,524880,240
54,48,524880,240
33,46,525360,240
45,46,525360,240
45,51,525600,240
57,51,525600,240
32,54,526080,240
44,54,526080,240
65,65,526320,240
61,65,526320,240
56,65,526320,240
53,65,526320,240
48,58,526800,80
49,60,526880,80
53,61,526960,80
56,63,527040,240
47,58,527520,80
48,60,527600,80
53,62,527680,80
56,64,527760,240
45,57,528240,80
46,58,528320,80
53,61,528400,80
56,63,528480,240
32,81,529200,240
44,81,529200,240
66,85,529920,960
72,85,529920,960
77,85,529920,960
66,65,530880,240
72,65,530880,240
75,65,530880,240
66,65,531120,240
72,65,531120,240
77,65,531120,240
66,63,531360,240
72,63,531360,240
75,63,531360,240
66,67,531600,240
72,67,531600,240
77,67,531600,240
75,66,531840,240
72,66,531840,240
66,66,531840,240
65,76,532080,180
68,76,532080,180
73,76,532080,180
77,76,532080,180
48,58,532560,80
49,60,532640,80
53,61,532720,80
56,63,532800,240
47,58,533280,80
48,60,533360,80
53,62,533440,80
56,64,533520,240
45,57,534000,80
46,58,534080,80
53,61,534160,80
56,63,534240,240
32,81,534960,240
44,81,534960,240
66,85,535680,960
72,85,535680,960
77,85,535680,960
66,70,536640,240
72,70,536640,240
75,70,536640,240
66,68,536880,240
72,68,536880,240
77,68,536880,240
66,66,537120,240
72,66,537120,240
75,66,537120,240
66,64,537360,240
72,64,537360,240
77,64,537360,240
75,61,537600,240
72,61,537600,240
66,61,537600,240
77,59,537840,480
66,59,537840,720
72,59,537840,720
75,56,538320,240
77,55,538560,480
66,55,538560,720
72,55,538560,720
75,58,539040,240
77,60,539280,480
66,60,539280,720
72,60,539280,720
75,57,539760,240
78,61,540000,480
67,61,540000,720
73,61,540000,720
76,63,540480,240
78,67,540720,480
67,67,540720,720
73,67,540720,720
76,69,541200,240
79,72,541440,480
68,72,541440,720
74,72,541440,720
77,74,541920,240
79,75,542160,480
68,75,542160,720
74,75,542160,720
77,79,542640,240
80,83,542880,480
68,83,542880,720
75,83,542880,720
78,86,543360,240
37,90,543600,240
49,90,543600,240
43,74,543840,240
44,74,544080,240
44,79,544320,240
42,62,544560,240
54,62,544560,240
41,58,544800,240
53,58,544800,240
41,68,545040,120
53,68,545040,120
43,59,545280,240
44,59,545520,240
45,73,545760,480
44,70,546240,240
37,90,546480,240
49,90,546480,240
43,73,546720,240
44,75,546960,240
44,77,547200,240
42,62,547440,240
54,62,547440,240
41,58,547680,240
53,58,547680,240
41,68,547920,120
53,68,547920,120
43,59,548160,240
44,59,548400,240
45,73,548640,480
44,70,549120,240
37,60,549360,120
49,60,549360,120
43,68,549600,240
44,68,549840,240
42,70,550320,240
54,70,550320,240
41,70,550560,240
53,70,550560,240
37,63,550800,120
49,63,550800,120
43,69,551040,240
44,69,551280,240
42,70,551760,240
54,70,551760,240
41,70,552000,240
53,70,552000,240
37,64,552240,120
49,64,552240,120
43,69,552480,240
44,69,552720,240
42,70,553200,240
54,70,553200,240
41,70,553440,240
53,70,553440,240
37,67,553680,180
45,67,553680,180
37,68,553920,180
44,68,553920,180
37,70,554160,180
45,70,554160,180
37,71,554400,180
44,71,554400,180
37,73,554640,180
45,73,554640,180
37,74,554880,180
44,74,554880,180
36,84,555120,180
45,84,555120,180
36,85,555840,240
43,101,555840,240
48,101,555840,240
41,85,556560,240
48,101,556560,240
53,101,556560,240
44,85,557280,240
51,101,557280,240
56,101,557280,240
49,85,558000,720
56,101,558000,720
61,101,558000,720
37,85,559440,720
44,100,559440,720
49,100,559440,720
49,69,560700,180
56,82,560730,150
65,82,560760,120
25,100,560880,720
37,109,560880,720
