note,velocity,position,duration
70,57,122400,480
65,49,122880,480
66,52,123360,480
75,57,123840,960
73,52,124800,480
73,52,125280,480
66,44,125760,480
68,45,126240,480
70,52,126720,3360
73,53,133920,480
69,49,134400,480
70,54,134880,480
78,58,135360,960
77,52,136320,480
77,52,136800,480
70,52,137280,480
72,53,137760,480
75,57,138240,480
73,57,138720,2880
70,60,145440,480
65,53,145920,480
66,57,146400,480
75,59,146880,960
73,57,147840,480
73,57,148320,480
66,53,148800,480
68,52,149280,480
70,57,149760,3360
70,62,156960,480
69,54,157440,480
70,59,157920,480
71,62,158400,960
72,60,159360,480
74,63,159840,480
70,60,160320,480
79,60,160800,480
77,61,161280,1320
70,52,162600,60
72,46,162660,60
70,63,162720,480
69,57,163200,480
70,61,163680,480
71,62,164160,960
72,63,165120,480
73,66,165600,480
70,63,166080,480
78,63,166560,480
77,65,167040,480
75,63,167520,480
73,63,168000,480
71,62,168480,5760
70,54,174240,480
65,49,174720,480
66,52,175200,480
75,57,175680,960
73,52,176640,480
73,52,177120,480
66,45,177600,480
68,46,178080,480
70,52,178560,3360
71,53,185760,480
67,49,186240,480
68,54,186720,480
76,58,187200,960
75,54,188160,480
75,54,188640,480
68,49,189120,480
70,51,189600,480
73,53,190080,480
71,51,190560,2880
68,39,197760,480
70,39,198240,480
66,46,198720,960
63,39,199680,480
68,39,200640,480
70,39,201120,480
66,46,201600,960
63,43,202560,480
68,44,203520,480
70,45,204000,480
71,47,204480,480
72,48,204960,480
73,52,205440,480
74,56,205920,480
75,52,206400,480
65,35,206880,480
66,36,207360,480
70,57,231840,480
65,49,232320,480
66,52,232800,480
75,56,233280,960
73,52,234240,480
73,52,234720,480
66,44,235200,480
68,45,235680,480
70,52,236160,3360
71,53,243360,480
67,50,243840,480
68,57,244320,480
76,58,244800,960
75,54,245760,480
75,54,246240,480
68,49,246720,480
70,52,247200,480
73,58,247680,480
71,54,248160,2880
68,39,255360,480
70,39,255840,480
66,46,256320,960
63,39,257280,480
68,39,258240,480
70,39,258720,480
66,46,259200,960
63,43,260160,480
68,44,261120,480
70,45,261600,480
71,47,262080,480
72,48,262560,480
73,52,263040,480
74,52,263520,480
75,51,264000,480
65,35,264480,480
66,36,264960,480
70,54,289440,480
65,49,289920,480
66,52,290400,480
75,57,290880,960
73,52,291840,480
73,52,292320,480
66,45,292800,480
68,45,293280,480
70,52,293760,3360
71,54,300960,480
67,52,301440,480
68,54,301920,480
76,59,302400,960
75,56,303360,480
75,58,303840,480
68,49,304320,480
70,51,304800,480
73,57,305280,480
71,52,305760,2880
68,39,312960,480
70,39,313440,480
66,46,313920,960
63,39,314880,480
68,39,315840,480
70,39,316320,480
66,46,316800,960
63,43,317760,480
68,44,318720,480
70,45,319200,480
71,47,319680,480
72,51,320160,480
73,57,320640,480
70,51,450720,480
65,42,451200,480
66,46,451680,480
75,51,452160,960
73,47,453120,480
73,47,453600,480
66,38,454080,480
68,38,454560,480
70,49,455040,3360
58,72,960,480
51,47,1440,90
63,56,1440,90
51,49,1680,90
63,58,1680,90
51,54,1920,90
63,64,1920,90
51,56,2160,90
63,65,2160,90
51,61,2400,480
63,72,2400,480
65,80,2880,480
59,67,2880,480
63,67,2880,480
53,67,2880,480
65,56,3360,240
71,56,3360,240
75,56,3360,240
77,68,3360,240
63,55,3600,240
75,66,3600,240
65,56,3840,240
70,56,3840,240
74,56,3840,240
77,68,3840,240
66,53,4080,240
78,65,4080,240
54,49,4320,90
66,59,4320,90
54,52,4560,90
66,61,4560,90
54,57,4800,90
66,67,4800,90
54,57,5040,90
66,66,5040,90
54,64,5280,480
66,75,5280,480
56,67,5760,480
62,69,5760,480
66,69,5760,480
68,82,5760,480
80,72,6240,240
74,59,6240,240
78,59,6240,240
68,59,6240,240
66,58,6480,240
78,70,6480,240
80,72,6720,240
73,59,6720,240
77,59,6720,240
68,59,6720,240
69,54,6960,240
81,65,6960,240
57,47,7200,90
69,56,7200,90
57,51,7440,90
69,60,7440,90
57,54,7680,90
69,64,7680,90
57,59,7920,90
69,69,7920,90
57,68,8160,480
69,79,8160,480
58,52,8640,90
70,63,8640,90
68,52,8640,90
56,52,8640,90
65,52,8640,90
58,55,8880,90
65,55,8880,90
68,55,8880,90
56,55,8880,90
70,66,8880,90
58,57,9120,90
65,57,9120,90
68,57,9120,90
56,57,9120,90
70,67,9120,90
56,57,9360,90
65,57,9360,90
68,68,9360,90
58,57,9360,90
70,68,9360,90
56,68,9600,480
70,81,9600,480
68,68,9600,480
58,68,9600,480
62,68,9600,480
70,63,10080,90
63,52,10080,90
66,52,10080,90
58,52,10080,90
58,55,10320,90
63,55,10320,90
66,55,10320,90
70,66,10320,90
63,57,10560,90
66,57,10560,90
70,67,10560,90
63,56,10800,90
66,56,10800,90
70,67,10800,90
63,70,11040,480
66,72,11040,480
70,85,11040,480
58,66,11520,480
63,66,11520,480
70,78,11520,480
56,66,12000,480
63,66,12000,480
68,78,12000,480
54,63,12480,480
57,63,12480,480
63,63,12480,480
66,74,12480,480
58,52,12960,240
61,52,12960,240
65,61,12960,240
61,59,13200,240
66,66,13440,240
73,78,13440,240
66,73,13680,240
70,69,13920,240
78,82,13920,240
70,71,14160,240
73,65,14400,240
82,76,14400,240
73,69,14640,240
78,66,14880,240
85,78,14880,240
78,73,15120,240
82,69,15360,240
90,82,15360,240
82,75,15600,240
85,69,15840,480
82,69,15840,480
94,82,15840,480
85,66,16320,480
80,64,16320,480
92,76,16320,480
85,73,16800,480
80,61,16800,480
73,61,16800,480
73,57,17280,480
80,61,17280,480
85,75,17280,960
90,68,17760,480
78,58,17760,480
73,56,18240,480
68,49,18240,480
61,40,18240,480
61,40,18720,480
68,48,18720,480
73,56,18720,960
78,56,19200,480
66,49,19200,480
73,55,19680,480
68,46,19680,480
61,38,19680,480
61,40,20160,480
68,48,20160,480
73,55,20160,960
78,56,20640,480
66,48,20640,480
61,52,21120,480
73,52,21120,480
61,51,21600,1440
73,56,21600,1440
58,46,23040,5760
70,53,23040,5760
51,52,30240,90
63,63,30240,90
51,55,30480,90
63,66,30480,90
51,57,30720,90
63,67,30720,90
51,59,30960,90
63,68,30960,90
51,69,31200,480
63,80,31200,480
65,90,31680,480
59,75,31680,480
63,75,31680,480
53,75,31680,480
77,76,32160,240
71,63,32160,240
75,63,32160,240
65,63,32160,240
63,61,32400,240
75,74,32400,240
77,76,32640,240
70,63,32640,240
74,63,32640,240
65,63,32640,240
66,59,32880,240
78,72,32880,240
54,52,33120,90
66,63,33120,90
54,55,33360,90
66,66,33360,90
54,57,33600,90
66,67,33600,90
54,57,33840,90
66,66,33840,90
54,68,34080,480
66,79,34080,480
56,72,34560,480
62,73,34560,480
66,75,34560,480
68,87,34560,480
80,76,35040,240
74,63,35040,240
78,63,35040,240
68,63,35040,240
66,61,35280,240
78,74,35280,240
80,76,35520,240
73,63,35520,240
77,63,35520,240
68,63,35520,240
69,58,35760,240
81,71,35760,240
57,47,36000,90
69,56,36000,90
57,51,36240,90
69,60,36240,90
57,54,36480,90
69,64,36480,90
57,57,36720,90
69,68,36720,90
57,68,36960,480
69,80,36960,480
71,64,37440,90
65,53,37440,90
69,53,37440,90
59,53,37440,90
59,56,37680,90
65,56,37680,90
69,56,37680,90
71,67,37680,90
71,71,37920,90
65,60,37920,90
69,60,37920,90
59,60,37920,90
71,72,38160,90
65,60,38160,90
69,72,38160,90
59,60,38160,90
59,68,38400,480
65,68,38400,480
69,68,38400,480
71,81,38400,480
72,66,38880,90
63,54,38880,90
69,54,38880,90
60,54,38880,90
72,69,39120,90
63,57,39120,90
69,57,39120,90
60,57,39120,90
60,63,39360,90
63,63,39360,90
72,74,39360,90
60,55,39600,90
63,55,39600,90
72,76,39600,90
66,73,39840,480
60,73,39840,480
63,73,39840,480
72,86,39840,480
76,81,40320,480
66,69,40320,480
69,69,40320,480
64,69,40320,480
62,69,40800,480
67,69,40800,480
74,81,40800,480
50,72,41280,480
62,85,41280,480
61,61,41760,240
61,59,42000,240
66,66,42240,240
73,78,42240,240
66,75,42480,240
69,69,42720,240
78,82,42720,240
69,75,42960,240
73,65,43200,240
81,76,43200,240
73,71,43440,240
78,66,43680,240
85,78,43680,240
78,75,43920,240
81,69,44160,240
90,82,44160,240
81,75,44400,240
85,69,44640,480
81,69,44640,480
93,82,44640,480
85,66,45120,480
80,66,45120,480
92,78,45120,480
85,73,45600,480
80,61,45600,480
73,61,45600,480
73,61,46080,480
80,61,46080,480
85,75,46080,960
90,68,46560,480
78,58,46560,480
73,58,47040,480
68,48,47040,480
61,40,47040,480
61,42,47520,480
68,50,47520,480
73,58,47520,960
78,56,48000,480
66,49,48000,480
73,56,48480,480
68,46,48480,480
61,38,48480,480
61,40,48960,480
68,48,48960,480
73,56,48960,960
78,55,49440,480
66,46,49440,480
61,69,49920,960
73,81,49920,960
62,64,50880,240
74,75,50880,240
61,59,51120,240
73,71,51120,240
56,63,51360,240
68,73,51360,240
57,54,51600,240
69,65,51600,240
54,58,51840,1440
66,70,51840,1440
62,84,53280,480
74,84,53280,480
57,48,53760,240
62,48,53760,240
57,49,54000,240
62,49,54000,240
56,50,54240,240
61,50,54240,240
57,51,54480,240
62,51,54480,240
58,52,54720,240
63,52,54720,240
59,53,54960,240
64,53,54960,240
60,54,55200,240
65,54,55200,240
61,55,55440,240
66,55,55440,240
62,57,55680,240
67,57,55680,240
63,59,55920,240
68,59,55920,240
64,59,56160,240
69,59,56160,240
65,60,56400,240
70,60,56400,240
66,64,56640,240
71,64,56640,240
67,65,56880,240
72,65,56880,240
68,66,57120,240
73,66,57120,240
69,67,57360,240
74,67,57360,240
69,68,57600,480
74,68,57600,480
70,73,58080,480
75,73,58080,480
87,80,58560,240
82,80,58560,240
75,80,58560,240
87,91,59040,480
99,79,59040,480
58,48,59520,240
63,48,59520,240
63,49,59760,240
58,49,59760,240
57,50,60000,240
62,50,60000,240
58,51,60240,240
63,51,60240,240
59,52,60480,240
64,52,60480,240
60,53,60720,240
65,53,60720,240
61,54,60960,240
66,54,60960,240
62,55,61200,240
67,55,61200,240
63,57,61440,240
68,57,61440,240
64,59,61680,240
69,59,61680,240
65,59,61920,240
70,59,61920,240
66,60,62160,240
71,60,62160,240
67,64,62400,240
72,64,62400,240
68,65,62640,240
73,65,62640,240
69,66,62880,240
74,66,62880,240
70,67,63120,240
75,67,63120,240
70,68,63360,480
75,68,63360,480
71,73,63840,480
76,73,63840,480
88,80,64320,240
83,80,64320,240
76,80,64320,240
88,91,64800,480
100,85,64800,480
64,58,65280,240
76,70,65280,240
64,58,65520,240
76,70,65520,240
63,53,65760,240
75,64,65760,240
64,53,66000,240
76,64,66000,240
65,58,66240,240
77,70,66240,240
66,53,66480,240
78,64,66480,240
67,58,66720,120
79,70,66720,120
67,54,66960,120
79,65,66960,120
67,54,67200,120
79,65,67200,120
67,54,67440,120
79,65,67440,120
67,58,67680,240
79,70,67680,240
66,54,67920,240
78,65,67920,240
66,58,68160,120
78,70,68160,120
66,54,68400,120
78,65,68400,120
65,54,68640,120
77,65,68640,120
66,54,68880,120
78,65,68880,120
67,58,69120,240
79,70,69120,240
68,53,69360,240
80,63,69360,240
69,54,69600,120
81,65,69600,120
69,56,69840,120
81,67,69840,120
69,58,70080,120
81,70,70080,120
69,60,70320,120
81,72,70320,120
69,66,70560,240
81,78,70560,240
68,60,70800,240
80,72,70800,240
68,63,71040,120
80,74,71040,120
68,65,71280,120
80,76,71280,120
67,65,71520,120
79,77,71520,120
68,68,71760,120
80,80,71760,120
68,77,72000,420
73,77,72000,420
80,91,72000,420
70,55,72420,60
82,63,72420,60
68,73,72480,240
73,73,72480,240
80,86,72480,240
67,66,72720,240
79,79,72720,240
68,73,72960,240
73,73,72960,240
80,88,72960,240
70,69,73200,240
82,82,73200,240
73,76,73440,480
68,76,73440,480
80,90,73440,480
92,95,73920,240
80,79,73920,240
66,73,74400,480
73,73,74400,480
78,88,74400,480
66,65,74880,420
71,65,74880,420
78,77,74880,420
68,61,75300,60
80,61,75300,60
66,70,75360,240
71,70,75360,240
78,82,75360,240
65,67,75600,240
77,79,75600,240
66,70,75840,240
71,70,75840,240
78,84,75840,240
68,67,76080,240
80,79,76080,240
71,76,76320,480
66,76,76320,480
78,90,76320,480
90,92,76800,240
78,79,76800,240
64,73,77280,480
71,73,77280,480
76,88,77280,480
64,77,77760,420
69,77,77760,420
76,91,77760,420
66,55,78180,60
78,63,78180,60
64,77,78240,240
69,77,78240,240
76,91,78240,240
63,69,78480,240
75,82,78480,240
64,73,78720,240
69,73,78720,240
76,88,78720,240
66,69,78960,240
78,82,78960,240
63,76,79200,240
69,76,79200,240
75,90,79200,240
63,74,79440,240
66,71,79680,240
75,84,79680,240
75,81,79920,240
87,89,80160,240
78,74,80160,240
87,88,80400,240
99,93,80640,480
90,77,80640,480
63,70,81120,240
69,82,81120,240
66,70,81120,240
66,67,81600,240
69,67,81600,240
78,79,81600,240
65,70,82080,240
70,70,82080,240
77,82,82080,240
58,52,82560,240
65,52,82560,240
70,61,82560,240
75,66,83040,240
66,56,83040,240
72,66,83040,240
63,56,83040,240
61,57,83520,240
65,57,83520,240
70,68,83520,240
73,68,83520,240
61,50,84000,240
65,60,84000,240
63,49,84480,240
65,49,84480,240
69,58,84480,240
72,58,84480,240
61,46,84960,240
65,46,84960,240
70,55,84960,240
53,38,85440,240
58,48,85440,240
63,50,85920,240
58,40,85920,240
54,40,85920,240
53,43,86400,240
58,43,86400,240
61,51,86400,240
53,45,86880,240
60,45,87360,240
57,37,87360,240
51,37,87360,240
58,46,87840,1920
70,46,87840,1920
70,46,89760,480
82,46,89760,480
94,46,90240,480
82,46,90240,480
70,46,90720,1920
58,46,90720,1920
70,53,92640,480
82,53,92640,480
94,59,93120,480
82,59,93120,480
51,52,93600,90
63,63,93600,90
51,55,93840,90
63,66,93840,90
63,67,94080,90
51,57,94080,90
63,68,94320,90
51,59,94320,90
63,79,94560,480
51,66,94560,480
53,73,95040,480
63,75,95040,480
59,71,95040,480
65,88,95040,480
71,63,95520,240
77,76,95520,240
75,63,95520,240
65,63,95520,240
63,61,95760,240
75,74,95760,240
65,63,96000,240
74,63,96000,240
77,76,96000,240
70,63,96000,240
78,72,96240,240
66,59,96240,240
66,63,96480,90
54,52,96480,90
54,55,96720,90
66,66,96720,90
54,57,96960,90
66,67,96960,90
66,66,97200,90
54,57,97200,90
66,79,97440,480
54,68,97440,480
56,72,97920,480
62,73,97920,480
66,75,97920,480
68,87,97920,480
68,63,98400,240
78,63,98400,240
80,76,98400,240
74,63,98400,240
66,61,98640,240
78,74,98640,240
68,63,98880,240
77,63,98880,240
80,76,98880,240
73,63,98880,240
81,72,99120,240
69,59,99120,240
69,56,99360,90
57,47,99360,90
57,51,99600,90
69,60,99600,90
57,54,99840,90
69,64,99840,90
57,57,100080,90
69,68,100080,90
69,82,100320,480
57,70,100320,480
70,63,100800,90
58,52,100800,90
68,52,100800,90
56,52,100800,90
65,52,100800,90
65,55,101040,90
70,66,101040,90
68,55,101040,90
56,55,101040,90
58,55,101040,90
56,60,101280,90
68,60,101280,90
58,60,101280,90
70,71,101280,90
65,60,101280,90
56,61,101520,90
65,61,101520,90
68,73,101520,90
70,73,101520,90
58,61,101520,90
56,68,101760,480
58,68,101760,480
62,68,101760,480
68,68,101760,480
70,81,101760,480
66,53,102240,90
63,53,102240,90
70,64,102240,90
58,53,102240,90
66,56,102480,90
58,56,102480,90
70,68,102480,90
63,56,102480,90
66,61,102720,90
70,73,102720,90
63,61,102720,90
66,64,102960,90
63,64,102960,90
70,75,102960,90
66,72,103200,480
70,84,103200,480
63,72,103200,480
56,75,103680,480
63,75,103680,480
68,90,103680,480
63,75,104160,480
68,75,104160,480
75,90,104160,480
77,85,104640,480
71,72,104640,480
65,72,104640,480
75,72,104640,480
70,72,105120,480
66,72,105120,480
75,72,105120,480
78,85,105120,480
87,87,105600,240
99,101,105600,240
83,86,106080,480
71,72,106080,480
75,72,106080,480
83,84,106560,240
95,99,106560,240
68,71,107040,480
71,71,107040,480
75,71,107040,480
80,85,107040,480
80,84,107520,240
92,99,107520,240
70,75,108000,480
66,75,108000,480
75,75,108000,480
78,89,108000,480
90,99,108480,240
78,84,108480,240
65,72,108960,480
70,72,108960,480
77,86,108960,480
75,72,108960,480
89,99,109440,240
77,84,109440,240
65,75,109920,480
70,75,109920,480
74,75,109920,480
77,89,109920,480
87,102,110400,450
75,85,110400,450
63,78,110880,1440
75,94,110880,1440
58,69,112320,480
70,81,112320,480
59,64,112800,240
71,75,112800,240
58,59,113040,240
70,71,113040,240
53,63,113280,240
65,73,113280,240
54,54,113520,240
66,65,113520,240
51,58,113760,1920
63,70,113760,1920
58,30,117120,480
58,32,117600,960
58,28,118560,480
58,32,119040,960
58,27,120000,480
58,32,120480,960
58,27,121440,480
58,33,121920,480
58,25,122880,480
58,25,123360,480
58,19,124320,480
66,24,124320,480
58,19,124800,480
66,24,124800,480
59,22,125760,480
65,25,126240,480
59,21,126240,480
58,22,127200,480
66,26,127200,480
58,22,127680,480
66,26,127680,480
58,21,128160,480
66,25,128160,480
61,20,128640,480
66,24,128640,480
61,20,129120,480
66,24,129120,480
61,21,129600,480
66,25,129600,480
56,20,130080,480
61,24,130080,480
54,20,130560,480
61,24,130560,480
54,21,131040,480
61,25,131040,480
56,20,131520,480
61,24,131520,480
54,20,132000,480
61,24,132000,480
54,21,132480,480
61,25,132480,480
56,20,132960,480
61,24,132960,480
54,21,133440,480
61,25,133440,480
61,27,134400,480
61,27,134880,480
61,22,135840,480
70,26,135840,480
61,20,136320,480
70,24,136320,480
63,22,137280,480
69,26,137760,480
63,22,137760,480
61,21,138720,480
70,25,138720,480
61,21,139200,480
70,25,139200,480
61,23,139680,480
70,27,139680,480
65,24,140160,480
70,28,140160,480
65,23,140640,480
70,27,140640,480
65,22,141120,480
70,27,141120,480
60,22,141600,480
65,26,141600,480
58,22,142080,480
65,26,142080,480
58,22,142560,480
65,26,142560,480
60,22,143040,480
65,26,143040,480
58,22,143520,480
65,26,143520,480
58,22,144000,480
65,26,144000,480
60,22,144480,480
65,26,144480,480
58,22,144960,480
65,26,144960,480
58,27,145920,480
58,26,146400,480
58,22,147360,480
66,27,147360,480
58,22,147840,480
66,26,147840,480
59,22,148800,480
65,27,149280,480
59,22,149280,480
58,24,150240,480
66,28,150240,480
58,24,150720,480
66,27,150720,480
58,23,151200,480
66,27,151200,480
61,22,151680,480
66,27,151680,480
61,22,152160,480
66,27,152160,480
61,22,152640,480
66,26,152640,480
56,22,153120,480
61,26,153120,480
54,21,153600,480
61,25,153600,480
54,22,154080,480
61,27,154080,480
56,22,154560,480
61,26,154560,480
54,22,155040,480
61,26,155040,480
54,22,155520,480
61,27,155520,480
56,22,156000,480
61,26,156000,480
58,22,156480,480
61,26,156480,480
58,24,157440,480
65,28,157440,480
58,24,157920,480
65,28,157920,480
59,24,158880,480
65,28,158880,480
60,31,159360,480
65,37,159360,480
62,28,160320,480
70,28,160800,480
67,24,160800,480
65,27,161760,480
69,32,161760,480
65,31,162240,360
69,31,162240,360
58,24,163200,480
65,27,163200,480
58,23,163680,480
65,27,163680,480
59,24,164640,480
65,28,164640,480
60,22,165120,480
65,26,165120,480
61,34,166080,480
70,28,166560,480
66,24,166560,480
65,24,167520,480
71,28,167520,480
65,24,168000,480
71,28,168000,478
65,35,168480,480
65,39,168960,480
65,39,169440,480
65,37,169920,480
63,36,170400,480
65,36,170880,480
65,35,171360,480
63,35,171840,480
65,32,172320,480
65,32,172800,480
63,31,173280,480
65,31,173760,480
58,25,174720,480
58,22,175200,480
58,20,176160,480
66,25,176160,480
58,20,176640,480
66,25,176640,480
59,23,177600,480
65,27,178080,480
59,22,178080,480
58,24,179040,480
66,28,179040,480
58,23,179520,480
66,27,179520,480
58,23,180000,480
66,28,180000,480
61,20,180480,480
66,24,180480,480
61,20,180960,480
66,24,180960,480
61,20,181440,480
66,24,181440,480
56,20,181920,480
61,24,181920,480
54,18,182400,480
61,24,182400,480
54,18,182880,480
61,24,182880,480
56,17,183360,480
61,22,183360,480
54,17,183840,480
61,22,183840,480
54,14,184320,480
61,22,184320,480
56,13,184800,480
61,22,184800,480
58,13,185280,480
61,20,185280,480
59,26,186240,480
59,26,186720,480
59,22,187680,480
68,27,187680,480
59,21,188160,480
68,25,188160,480
61,28,189120,480
67,27,189600,480
61,22,189600,480
59,22,190560,480
68,26,190560,480
59,22,191040,480
68,26,191040,480
59,20,191520,480
68,28,191520,480
63,24,192000,480
68,29,192000,480
63,24,192480,480
68,27,192480,480
63,22,192960,480
68,27,192960,480
58,21,193440,480
63,26,193440,480
56,20,193920,480
63,25,193920,480
56,20,194400,480
63,25,194400,480
58,18,194880,480
63,24,194880,480
56,18,195360,480
63,24,195360,480
56,18,195840,480
63,24,195840,480
58,18,196320,480
63,23,196320,480
59,18,196800,480
54,18,196800,480
63,23,196800,480
53,24,197280,480
59,24,197280,480
61,28,197280,480
59,22,197760,480
65,27,197760,480
59,22,198240,480
65,27,198240,480
54,25,198720,480
59,30,198720,480
54,21,199200,480
59,25,199200,480
54,22,199680,480
59,26,199680,480
56,27,200160,480
59,27,200160,480
61,36,200160,480
59,23,200640,480
65,27,200640,480
59,23,201120,480
65,27,201120,480
54,25,201600,480
59,30,201600,480
54,23,202080,480
59,27,202080,480
54,23,202560,480
59,27,202560,480
56,27,203040,480
59,27,203040,480
61,31,203040,480
59,28,203520,480
65,34,203520,480
59,30,204000,480
65,36,204000,480
59,31,204480,480
65,37,204480,480
60,32,204960,480
65,39,204960,480
61,36,205440,480
65,43,205440,480
62,36,205920,480
65,45,205920,480
63,34,206400,480
65,42,206400,478
59,24,206880,480
61,28,206880,480
58,26,207360,480
61,30,207360,480
56,30,208800,1440
60,30,208800,1440
66,36,208800,1440
68,36,208800,1440
56,30,210240,480
61,30,210240,1440
65,30,210240,1440
68,36,210240,1440
60,31,211680,960
66,37,211680,1440
68,37,211680,1440
61,42,212640,240
63,37,212880,240
64,45,213120,480
68,45,213120,1200
65,39,213600,960
77,52,214320,240
63,39,214560,1440
69,39,214560,960
77,49,214560,960
69,39,215520,480
70,46,216000,960
61,39,216000,1440
65,37,216960,480
73,45,216960,480
61,34,217440,1440
63,39,217440,1440
67,47,217440,1440
60,39,218880,960
63,39,218880,960
68,47,218880,960
61,37,219840,480
65,37,219840,480
68,45,219840,480
60,30,220320,1440
66,36,220320,1440
68,36,220320,1440
61,39,221760,960
65,42,221760,1440
68,46,221760,1440
56,35,222720,480
60,45,223200,480
66,45,223200,1440
68,45,223200,1440
58,38,223680,240
56,34,223920,240
61,42,224160,240
63,37,224400,240
65,39,224640,960
68,47,224640,1440
64,42,225600,480
68,45,226080,960
63,38,226080,1440
66,38,227040,480
62,37,227520,480
66,45,227520,960
61,39,228000,960
63,39,228480,480
73,47,228480,480
61,41,228960,1437
65,41,228960,1440
73,48,228960,1440
65,31,230400,1440
68,37,230400,960
69,45,231360,480
58,25,232320,480
58,22,232800,480
58,20,233760,480
66,25,233760,480
58,20,234240,480
66,25,234240,480
59,23,235200,480
65,27,235680,480
59,22,235680,480
58,24,236640,480
66,28,236640,480
58,23,237120,480
66,27,237120,480
58,23,237600,480
66,27,237600,480
61,20,238080,480
66,24,238080,480
61,20,238560,480
66,24,238560,480
61,20,239040,480
66,24,239040,480
56,20,239520,480
61,24,239520,480
54,20,240000,480
61,24,240000,480
54,20,240480,480
61,24,240480,480
56,18,240960,480
61,23,240960,480
54,18,241440,480
61,23,241440,480
54,15,241920,480
61,23,241920,480
56,15,242400,480
61,24,242400,480
54,15,242880,480
61,23,242880,480
59,26,243840,480
59,26,244320,480
59,25,245280,480
68,30,245280,480
59,21,245760,480
68,25,245760,480
61,28,246720,480
67,27,247200,480
61,22,247200,480
59,22,248160,480
68,26,248160,480
59,22,248640,480
68,26,248640,480
59,20,249120,480
68,28,249120,480
63,24,249600,480
68,29,249600,480
63,24,250080,480
68,27,250080,480
63,22,250560,480
68,27,250560,480
58,23,251040,480
63,27,251040,480
56,22,251520,480
63,27,251520,480
56,22,252000,480
63,27,252000,480
58,22,252480,480
63,27,252480,480
56,22,252960,480
63,27,252960,480
56,22,253440,480
63,27,253440,480
58,22,253920,480
63,27,253920,480
59,22,254400,480
54,22,254400,480
63,27,254400,480
53,24,254880,480
59,28,254880,480
61,28,254880,480
59,22,255360,480
65,27,255360,480
59,22,255840,480
65,27,255840,480
54,25,256320,480
59,30,256320,480
54,21,256800,480
59,25,256800,480
54,22,257280,480
59,26,257280,480
56,27,257760,480
59,27,257760,480
61,36,257760,480
59,23,258240,480
65,27,258240,480
59,23,258720,480
65,27,258720,480
54,25,259200,480
59,30,259200,480
54,23,259680,480
59,27,259680,480
54,23,260160,480
59,27,260160,480
56,27,260640,480
59,27,260640,480
61,31,260640,480
59,28,261120,480
65,34,261120,480
59,30,261600,480
65,36,261600,480
59,31,262080,480
65,37,262080,480
60,32,262560,480
65,39,262560,480
61,35,263040,480
65,42,263040,480
62,37,263520,480
65,45,263520,480
63,34,264000,480
65,41,264000,478
59,24,264480,480
61,28,264480,480
58,26,264960,480
61,30,264960,480
56,30,266400,1440
60,30,266400,1440
66,36,266400,1440
68,36,266400,1440
56,30,267840,480
61,30,267840,1440
65,30,267840,1440
68,36,267840,1440
60,31,269280,960
66,37,269280,1440
68,37,269280,1440
61,42,270240,240
63,37,270480,240
64,45,270720,480
68,45,270720,1200
65,39,271200,960
77,52,271920,240
63,39,272160,1440
69,39,272160,960
77,49,272160,960
69,39,273120,480
70,46,273600,960
61,39,273600,1440
65,37,274560,480
73,45,274560,480
61,34,275040,1440
63,39,275040,1440
67,47,275040,1440
60,39,276480,960
63,39,276480,960
68,47,276480,960
61,37,277440,480
65,37,277440,480
68,45,277440,480
60,30,277920,1440
66,36,277920,1440
68,36,277920,1440
61,39,279360,960
65,43,279360,1440
68,46,279360,1440
56,35,280320,480
60,45,280800,480
66,40,280800,1440
68,45,280800,1440
58,38,281280,240
56,34,281520,240
61,42,281760,240
63,37,282000,240
65,39,282240,960
68,47,282240,1440
64,42,283200,480
68,45,283680,960
63,38,283680,1440
66,38,284640,478
62,37,285120,480
66,45,285120,960
61,39,285600,960
63,39,286080,480
73,47,286080,480
61,41,286560,1438
65,41,286560,1440
73,48,286560,1440
65,31,288000,1440
68,37,288000,960
69,45,288960,480
58,25,289920,480
58,22,290400,480
58,20,291360,480
66,25,291360,480
58,20,291840,480
66,25,291840,480
59,23,292800,480
65,27,293280,480
59,22,293280,480
58,24,294240,480
66,28,294240,480
58,23,294720,480
66,27,294720,480
58,23,295200,480
66,27,295200,480
61,20,295680,480
66,24,295680,480
61,20,296160,480
66,24,296160,480
61,20,296640,480
66,24,296640,480
56,20,297120,480
61,24,297120,480
54,20,297600,480
61,24,297600,480
54,20,298080,480
61,24,298080,480
56,18,298560,480
61,23,298560,480
54,18,299040,480
61,23,299040,480
54,15,299520,480
61,23,299520,480
56,15,300000,480
61,24,300000,480
54,15,300480,480
61,23,300480,480
59,26,301440,480
59,26,301920,480
59,25,302880,480
68,30,302880,480
59,21,303360,480
68,25,303360,480
61,28,304320,480
67,27,304800,480
61,22,304800,480
59,22,305760,480
68,26,305760,480
59,22,306240,480
68,26,306240,480
59,20,306720,480
68,28,306720,480
63,24,307200,480
68,29,307200,480
63,24,307680,480
68,27,307680,480
63,22,308160,480
68,27,308160,480
58,23,308640,480
63,27,308640,480
56,22,309120,480
63,27,309120,480
56,22,309600,480
63,27,309600,480
58,22,310080,480
63,27,310080,480
56,22,310560,480
63,27,310560,480
56,22,311040,480
63,27,311040,480
58,22,311520,480
63,27,311520,480
59,22,312000,480
54,22,312000,480
63,27,312000,480
53,24,312480,480
59,28,312480,480
61,28,312480,480
59,22,312960,480
65,27,312960,480
59,22,313440,480
65,27,313440,480
54,25,313920,480
59,30,313920,480
54,21,314400,480
59,25,314400,480
54,22,314880,480
59,26,314880,480
56,27,315360,480
59,27,315360,480
61,36,315360,480
59,23,315840,480
65,27,315840,480
59,23,316320,480
65,27,316320,480
54,25,316800,480
59,30,316800,480
54,23,317280,480
59,27,317280,480
54,23,317760,480
59,27,317760,480
56,27,318240,480
59,27,318240,480
61,31,318240,480
59,29,318720,480
65,35,318720,480
59,31,319200,480
65,37,319200,480
59,33,319680,480
65,40,319680,480
60,36,320160,480
65,45,320160,480
61,42,320640,480
65,47,320640,480
74,49,321120,480
62,43,321120,480
65,43,321120,480
75,51,321600,720
63,44,321600,720
65,45,321600,720
74,49,322320,240
62,33,322320,240
65,33,322320,240
74,50,322560,480
62,34,322560,480
65,35,322560,480
75,51,323040,720
63,44,323040,720
65,44,323040,720
74,54,323760,240
62,37,323760,240
74,58,324000,480
62,49,324000,480
73,63,324480,720
61,52,324480,720
72,55,325200,240
60,46,325200,240
72,61,325440,480
60,51,325440,480
71,61,325920,720
59,52,325920,720
70,61,326640,240
58,49,326640,240
70,66,326880,480
58,55,326880,480
69,68,327360,720
57,56,327360,720
68,67,328080,240
56,55,328080,240
68,73,328320,480
56,59,328320,480
66,73,328800,480
54,61,328800,480
58,73,329280,480
51,47,329760,90
63,56,329760,90
51,49,330000,90
63,58,330000,90
51,54,330240,90
63,64,330240,90
51,56,330480,90
63,65,330480,90
51,61,330720,480
63,72,330720,480
53,67,331200,480
59,67,331200,480
63,67,331200,480
65,80,331200,480
65,56,331680,240
71,56,331680,240
75,56,331680,240
77,68,331680,240
63,55,331920,240
75,66,331920,240
65,56,332160,240
70,56,332160,240
74,56,332160,240
77,68,332160,240
66,53,332400,240
78,65,332400,240
54,49,332640,90
66,59,332640,90
54,52,332880,90
66,61,332880,90
54,57,333120,90
66,67,333120,90
54,57,333360,90
66,66,333360,90
54,64,333600,480
66,75,333600,480
56,67,334080,480
62,69,334080,480
66,69,334080,480
68,82,334080,480
68,59,334560,240
74,59,334560,240
78,59,334560,240
80,72,334560,240
66,58,334800,240
78,70,334800,240
68,59,335040,240
73,59,335040,240
77,59,335040,240
80,72,335040,240
69,54,335280,240
81,65,335280,240
57,47,335520,90
69,56,335520,90
57,51,335760,90
69,60,335760,90
57,54,336000,90
69,64,336000,90
57,59,336240,90
69,69,336240,90
57,68,336480,480
69,79,336480,480
58,52,336960,90
65,52,336960,90
68,52,336960,90
56,52,336960,90
70,63,336960,90
58,55,337200,90
65,55,337200,90
68,55,337200,90
56,55,337200,90
70,66,337200,90
58,57,337440,90
65,57,337440,90
68,57,337440,90
56,57,337440,90
70,67,337440,90
58,57,337680,90
65,57,337680,90
68,68,337680,90
56,57,337680,90
70,68,337680,90
58,68,337920,480
62,68,337920,480
68,68,337920,480
56,68,337920,480
70,81,337920,480
58,52,338400,90
63,52,338400,90
66,52,338400,90
70,63,338400,90
58,55,338640,90
63,55,338640,90
66,55,338640,90
70,66,338640,90
63,57,338880,90
66,57,338880,90
70,67,338880,90
63,56,339120,90
66,56,339120,90
70,67,339120,90
63,70,339360,480
66,72,339360,480
70,85,339360,480
58,66,339840,480
63,66,339840,480
70,78,339840,480
56,66,340320,480
63,66,340320,480
68,78,340320,480
54,63,340800,480
57,63,340800,480
63,63,340800,480
66,74,340800,480
58,52,341280,240
61,52,341280,240
65,61,341280,240
61,59,341520,240
66,66,341760,240
73,78,341760,240
66,75,342000,240
70,69,342240,240
78,82,342240,240
70,75,342480,240
73,65,342720,240
82,76,342720,240
73,71,342960,240
78,66,343200,240
85,78,343200,240
78,75,343440,240
82,69,343680,240
90,82,343680,240
82,75,343920,240
85,69,344160,480
82,69,344160,480
94,82,344160,480
85,66,344640,480
80,64,344640,480
92,76,344640,480
85,73,345120,480
80,61,345120,480
73,61,345120,480
73,57,345600,480
80,61,345600,480
85,75,345600,960
90,68,346080,480
78,58,346080,480
73,56,346560,480
68,49,346560,480
61,40,346560,480
61,40,347040,480
68,48,347040,480
73,56,347040,960
78,56,347520,480
66,49,347520,480
73,55,348000,480
68,46,348000,480
61,38,348000,480
61,40,348480,480
68,48,348480,480
73,55,348480,960
78,56,348960,480
66,48,348960,480
61,52,349440,480
73,52,349440,480
61,51,349920,1440
73,56,349920,1440
58,46,351360,5760
70,53,351360,5760
51,52,358560,90
63,63,358560,90
51,55,358800,90
63,66,358800,90
51,57,359040,90
63,67,359040,90
51,59,359280,90
63,68,359280,90
51,69,359520,480
63,80,359520,480
53,75,360000,480
59,75,360000,480
63,75,360000,480
65,90,360000,480
65,63,360480,240
71,63,360480,240
75,63,360480,240
77,76,360480,240
63,61,360720,240
75,74,360720,240
65,63,360960,240
70,63,360960,240
74,63,360960,240
77,76,360960,240
66,59,361200,240
78,72,361200,240
54,52,361440,90
66,63,361440,90
54,55,361680,90
66,66,361680,90
54,57,361920,90
66,67,361920,90
54,57,362160,90
66,66,362160,90
54,68,362400,480
66,79,362400,480
56,72,362880,480
62,73,362880,480
66,75,362880,480
68,87,362880,480
68,63,363360,240
74,63,363360,240
78,63,363360,240
80,76,363360,240
66,61,363600,240
78,74,363600,240
68,63,363840,240
73,63,363840,240
77,63,363840,240
80,76,363840,240
69,58,364080,240
81,71,364080,240
57,47,364320,90
69,56,364320,90
57,51,364560,90
69,60,364560,90
57,54,364800,90
69,64,364800,90
57,57,365040,90
69,68,365040,90
57,68,365280,480
69,80,365280,480
59,53,365760,90
65,53,365760,90
69,53,365760,90
71,64,365760,90
59,56,366000,90
65,56,366000,90
69,56,366000,90
71,67,366000,90
59,60,366240,90
65,60,366240,90
69,60,366240,90
71,71,366240,90
59,60,366480,90
65,60,366480,90
69,72,366480,90
71,72,366480,90
59,68,366720,480
65,68,366720,480
69,68,366720,480
71,81,366720,480
60,54,367200,90
63,54,367200,90
69,54,367200,90
72,66,367200,90
60,57,367440,90
63,57,367440,90
69,57,367440,90
72,69,367440,90
60,63,367680,90
63,63,367680,90
72,74,367680,90
60,55,367920,90
63,55,367920,90
72,76,367920,90
66,73,368160,480
60,73,368160,480
63,73,368160,480
72,86,368160,480
64,69,368640,480
66,69,368640,480
69,69,368640,480
76,81,368640,480
62,69,369120,480
67,69,369120,480
74,81,369120,480
50,72,369600,480
62,85,369600,480
61,61,370080,240
61,59,370320,240
66,66,370560,240
73,78,370560,240
66,75,370800,240
69,69,371040,240
78,82,371040,240
69,73,371280,240
73,65,371520,240
81,76,371520,240
73,71,371760,240
78,66,372000,240
85,78,372000,240
78,75,372240,240
81,69,372480,240
90,82,372480,240
81,75,372720,240
85,69,372960,480
81,69,372960,480
93,82,372960,480
85,66,373440,480
80,66,373440,480
92,78,373440,480
85,73,373920,480
80,61,373920,480
73,61,373920,480
73,61,374400,480
80,61,374400,480
85,75,374400,960
90,68,374880,480
78,58,374880,480
73,58,375360,480
68,48,375360,480
61,40,375360,480
61,42,375840,480
68,50,375840,480
73,58,375840,960
78,56,376320,480
66,49,376320,480
73,56,376800,480
68,46,376800,480
61,38,376800,480
61,40,377280,480
68,48,377280,480
73,56,377280,960
78,55,377760,480
66,46,377760,480
61,69,378240,960
73,81,378240,960
62,64,379200,240
74,75,379200,240
61,59,379440,240
73,71,379440,240
56,63,379680,240
68,73,379680,240
57,54,379920,240
69,65,379920,240
54,58,380160,1440
66,70,380160,1440
62,84,381600,480
74,84,381600,480
57,48,382080,240
62,48,382080,240
57,49,382320,240
62,49,382320,240
56,50,382560,240
61,50,382560,240
57,51,382800,240
62,51,382800,240
58,52,383040,240
63,52,383040,240
59,53,383280,240
64,53,383280,240
60,54,383520,240
65,54,383520,240
61,55,383760,240
66,55,383760,240
62,57,384000,240
67,57,384000,240
63,59,384240,240
68,59,384240,240
64,59,384480,240
69,59,384480,240
65,60,384720,240
70,60,384720,240
66,64,384960,240
71,64,384960,240
67,65,385200,240
72,65,385200,240
68,66,385440,240
73,66,385440,240
69,67,385680,240
74,67,385680,240
69,68,385920,480
74,68,385920,480
70,73,386400,480
75,73,386400,480
87,80,386880,240
82,80,386880,240
75,80,386880,240
87,91,387360,480
99,79,387360,480
58,48,387840,240
63,48,387840,240
58,49,388080,240
63,49,388080,240
57,50,388320,240
62,50,388320,240
58,51,388560,240
63,51,388560,240
59,52,388800,240
64,52,388800,240
60,53,389040,240
65,53,389040,240
61,54,389280,240
66,54,389280,240
62,55,389520,240
67,55,389520,240
63,57,389760,240
68,57,389760,240
64,59,390000,240
69,59,390000,240
65,59,390240,240
70,59,390240,240
66,60,390480,240
71,60,390480,240
67,64,390720,240
72,64,390720,240
68,65,390960,240
73,65,390960,240
69,66,391200,240
74,66,391200,240
70,67,391440,240
75,67,391440,240
70,68,391680,480
75,68,391680,480
71,73,392160,480
76,73,392160,480
88,80,392640,240
83,80,392640,240
76,80,392640,240
88,91,393120,480
100,85,393120,480
64,58,393600,240
76,70,393600,240
64,58,393840,240
76,70,393840,240
63,53,394080,240
75,64,394080,240
64,53,394320,240
76,64,394320,240
65,58,394560,240
77,70,394560,240
66,53,394800,240
78,64,394800,240
67,58,395040,120
79,70,395040,120
67,54,395280,120
79,65,395280,120
67,54,395520,120
79,65,395520,120
67,54,395760,120
79,65,395760,120
67,58,396000,240
79,70,396000,240
66,54,396240,240
78,65,396240,240
66,58,396480,120
78,70,396480,120
66,54,396720,120
78,65,396720,120
65,54,396960,120
77,65,396960,120
66,54,397200,120
78,65,397200,120
67,58,397440,240
79,70,397440,240
68,53,397680,240
80,63,397680,240
69,54,397920,120
81,65,397920,120
69,56,398160,120
81,67,398160,120
69,58,398400,120
81,70,398400,120
69,60,398640,120
81,72,398640,120
69,66,398880,240
81,78,398880,240
68,60,399120,240
80,72,399120,240
68,63,399360,120
80,74,399360,120
68,65,399600,120
80,76,399600,120
67,65,399840,120
79,77,399840,120
68,68,400080,120
80,80,400080,120
68,77,400320,420
73,77,400320,420
80,91,400320,420
70,55,400740,60
82,63,400740,60
68,73,400800,240
73,73,400800,240
80,86,400800,240
67,66,401040,240
79,79,401040,240
68,73,401280,240
73,73,401280,240
80,88,401280,240
70,69,401520,240
82,82,401520,240
73,76,401760,480
68,76,401760,480
80,90,401760,480
92,95,402240,240
80,79,402240,240
66,73,402720,480
73,73,402720,480
78,88,402720,480
66,65,403200,420
71,65,403200,420
78,77,403200,420
68,61,403620,60
80,61,403620,60
66,70,403680,240
71,70,403680,240
78,82,403680,240
65,67,403920,240
77,79,403920,240
66,70,404160,240
71,70,404160,240
78,84,404160,240
68,67,404400,240
80,79,404400,240
71,76,404640,480
66,76,404640,480
78,90,404640,480
90,92,405120,240
78,79,405120,240
64,73,405600,480
71,73,405600,480
76,88,405600,480
64,77,406080,420
69,77,406080,420
76,91,406080,420
66,55,406500,60
78,63,406500,60
64,77,406560,240
69,77,406560,240
76,91,406560,240
63,69,406800,240
75,82,406800,240
64,73,407040,240
69,73,407040,240
76,88,407040,240
66,69,407280,240
78,82,407280,240
63,76,407520,240
69,76,407520,240
75,90,407520,240
63,74,407760,240
66,71,408000,240
75,84,408000,240
75,91,408240,240
87,89,408480,240
78,74,408480,240
87,93,408720,240
99,93,408960,480
90,77,408960,480
63,70,409440,240
69,82,409440,240
66,70,409440,240
66,67,409920,240
69,67,409920,240
78,79,409920,240
65,70,410400,240
70,70,410400,240
77,82,410400,240
58,52,410880,240
65,52,410880,240
70,61,410880,240
63,56,411360,240
66,56,411360,240
72,66,411360,240
75,66,411360,240
61,57,411840,240
65,57,411840,240
70,68,411840,240
73,68,411840,240
61,50,412320,240
65,60,412320,240
63,49,412800,240
65,49,412800,240
69,58,412800,240
72,58,412800,240
61,46,413280,240
65,46,413280,240
70,55,413280,240
53,38,413760,240
58,48,413760,240
63,50,414240,240
58,40,414240,240
54,40,414240,240
53,43,414720,240
58,43,414720,240
61,51,414720,240
53,45,415200,240
60,45,415680,240
57,37,415680,240
51,37,415680,240
58,46,416160,1920
70,46,416160,1920
70,46,418080,480
82,46,418080,480
94,46,418560,480
82,46,418560,480
70,46,419040,1920
58,46,419040,1920
70,53,420960,480
82,53,420960,480
94,59,421440,480
82,59,421440,480
51,52,421920,90
63,63,421920,90
51,55,422160,90
63,66,422160,90
63,67,422400,90
51,57,422400,90
63,68,422640,90
51,59,422640,90
63,79,422880,480
51,66,422880,480
53,73,423360,480
63,75,423360,480
59,71,423360,480
65,88,423360,480
65,63,423840,240
77,76,423840,240
75,63,423840,240
71,63,423840,240
63,61,424080,240
75,74,424080,240
70,63,424320,240
74,63,424320,240
77,76,424320,240
65,63,424320,240
78,72,424560,240
66,59,424560,240
66,63,424800,90
54,52,424800,90
54,55,425040,90
66,66,425040,90
54,57,425280,90
66,67,425280,90
66,66,425520,90
54,57,425520,90
66,79,425760,480
54,68,425760,480
56,72,426240,480
62,73,426240,480
66,75,426240,480
68,87,426240,480
68,63,426720,240
78,63,426720,240
80,76,426720,240
74,63,426720,240
66,61,426960,240
78,74,426960,240
68,63,427200,240
77,63,427200,240
80,76,427200,240
73,63,427200,240
81,72,427440,240
69,59,427440,240
69,56,427680,90
57,47,427680,90
57,51,427920,90
69,60,427920,90
57,54,428160,90
69,64,428160,90
57,57,428400,90
69,68,428400,90
69,82,428640,480
57,70,428640,480
65,52,429120,90
69,52,429120,90
71,63,429120,90
59,52,429120,90
59,55,429360,90
69,55,429360,90
65,55,429360,90
71,66,429360,90
65,60,429600,90
59,60,429600,90
71,71,429600,90
69,60,429600,90
65,61,429840,90
69,73,429840,90
71,73,429840,90
59,61,429840,90
59,68,430080,480
65,68,430080,480
69,68,430080,480
71,81,430080,480
60,53,430560,90
63,53,430560,90
72,64,430560,90
69,53,430560,90
63,56,430800,90
60,56,430800,90
72,68,430800,90
69,56,430800,90
63,61,431040,90
72,73,431040,90
60,61,431040,90
63,64,431280,90
60,64,431280,90
72,75,431280,90
66,72,431520,480
63,72,431520,480
72,84,431520,480
60,72,431520,480
66,78,432000,480
63,78,432000,480
69,78,432000,480
75,93,432000,480
75,80,432480,240
78,80,432480,240
81,80,432480,240
90,94,432480,240
74,94,432960,480
62,78,432960,480
66,78,432960,480
61,74,433440,480
66,74,433440,480
73,88,433440,480
78,81,433920,240
90,98,433920,240
66,71,434400,480
62,71,434400,480
74,84,434400,480
74,81,434880,240
86,98,434880,240
68,71,435360,480
66,66,435360,480
62,64,435360,480
71,84,435360,480
71,81,435840,240
83,98,435840,240
66,71,436320,480
61,71,436320,480
69,84,436320,480
69,80,436800,240
81,96,436800,240
66,71,437280,480
61,71,437280,480
68,84,437280,480
68,78,437760,240
80,94,437760,240
65,67,438240,480
61,67,438240,480
68,79,438240,480
85,80,438720,240
80,67,438720,240
73,63,438720,240
73,63,439200,480
80,67,439200,480
85,82,439200,480
90,74,439680,480
78,64,439680,480
73,46,440160,240
68,38,440160,240
61,29,440160,240
61,30,440640,480
68,40,440640,480
73,46,440640,480
78,43,441120,480
66,37,441120,480
73,42,441600,480
68,31,441600,480
61,27,441600,480
61,35,442080,480
73,46,442080,480
78,43,442560,480
66,34,442560,480
73,39,443040,480
68,29,443040,480
61,25,443040,480
61,32,443520,480
73,43,443520,480
78,40,444000,480
66,31,444000,480
73,36,444480,480
68,27,444480,480
61,23,444480,480
61,29,444960,480
73,39,444960,480
78,37,445440,480
66,29,445440,480
73,33,445920,480
68,26,445920,480
61,21,445920,480
61,27,446400,480
73,37,446400,480
78,35,446880,480
66,27,446880,480
73,32,447360,480
68,24,447360,480
61,20,447360,480
61,27,447840,480
73,35,447840,480
78,33,448320,480
66,27,448320,480
73,30,448800,480
68,23,448800,480
61,19,448800,480
61,25,449280,480
73,33,449280,480
78,31,449760,480
66,25,449760,480
61,19,450240,480
68,23,450240,480
73,30,450240,480
58,23,451200,480
58,23,451680,480
58,17,452640,480
66,22,452640,480
58,17,453120,480
66,22,453120,480
59,20,454080,480
65,23,454560,480
59,19,454560,480
58,20,455520,480
66,24,455520,480
58,20,456000,480
66,24,456000,480
58,19,456480,480
66,23,456480,480
61,18,456960,480
66,22,456960,480
61,18,457440,480
66,22,457440,480
61,19,457920,480
66,23,457920,480
56,18,458400,480
61,22,458400,480
54,18,458880,480
61,22,458880,480
54,19,459360,480
61,23,459360,480
56,18,459840,480
61,22,459840,480
54,18,460320,480
61,22,460320,480
54,19,460800,480
61,23,460800,480
56,18,461280,480
61,22,461280,480
54,19,461760,480
61,23,461760,480
54,19,462240,480
61,23,462240,480
54,23,465120,6240
61,23,465120,6240
66,23,465120,6240
70,23,465120,6240
34,40,960,480
46,47,960,480
27,36,1440,480
39,42,1440,480
28,36,1920,90
40,42,1920,90
29,36,2160,90
41,45,2160,90
30,42,2400,480
42,50,2400,480
32,50,2880,390
44,59,2880,390
44,37,3270,480
51,37,3300,450
53,37,3330,420
59,46,3360,390
46,37,3750,570
53,37,3780,540
56,37,3810,483
62,46,3840,480
30,38,4320,480
42,44,4320,480
31,38,4800,90
43,44,4800,90
32,35,5040,90
44,43,5040,90
33,43,5280,480
45,51,5280,480
35,53,5760,390
47,63,5760,390
48,39,6150,480
54,39,6180,450
56,39,6210,420
62,48,6240,390
49,39,6630,570
56,39,6660,540
59,39,6690,510
65,48,6720,480
33,36,7200,480
45,42,7200,480
35,36,7680,90
47,42,7680,90
36,37,7920,90
48,45,7920,90
37,46,8160,480
49,54,8160,480
38,40,8640,480
50,47,8640,480
39,38,9120,90
51,44,9120,90
40,37,9360,90
52,45,9360,90
41,45,9600,480
53,53,9600,480
42,40,10080,480
54,47,10080,480
44,38,10560,90
56,44,10560,90
45,37,10800,90
57,45,10800,90
46,47,11040,480
58,56,11040,480
47,48,11520,480
59,57,11520,480
35,43,12000,480
47,52,12000,480
36,43,12480,480
48,52,12480,480
37,50,12960,480
49,60,12960,480
49,48,13440,480
58,57,13440,480
61,57,13920,480
54,48,13920,480
58,42,14400,480
66,60,14400,480
61,40,14880,480
70,57,14880,480
73,57,15360,480
66,40,15360,480
70,48,15840,480
78,57,15840,480
71,46,16320,480
77,51,16320,480
61,42,16800,480
65,42,16800,480
71,51,16800,480
61,46,17280,960
65,46,17280,480
71,52,17280,480
54,38,17760,480
70,47,17760,480
49,28,18240,480
53,33,18240,480
59,38,18240,480
49,31,18720,960
53,34,18720,480
59,42,18720,480
42,32,19200,480
58,38,19200,480
49,29,19680,480
53,31,19680,480
59,36,19680,480
49,30,20160,960
53,34,20160,480
59,38,20160,480
42,32,20640,480
58,38,20640,480
44,36,24480,480
56,43,24480,480
42,30,24960,480
54,37,24960,480
39,30,25440,480
51,37,25440,480
42,36,25920,480
54,43,25920,480
41,30,26400,480
53,37,26400,480
37,30,26880,480
49,37,26880,480
39,36,27360,480
51,43,27360,480
37,30,27840,480
49,37,27840,480
34,30,28320,480
46,37,28320,480
35,32,28800,480
47,39,28800,480
34,29,29280,480
46,35,29280,480
30,29,29760,480
42,35,29760,480
27,40,30240,480
39,47,30240,480
28,38,30720,90
40,44,30720,90
29,38,30960,90
41,47,30960,90
30,47,31200,480
42,56,31200,480
32,56,31680,480
44,67,31680,480
44,43,32160,480
51,43,32160,480
53,43,32160,480
59,51,32160,480
46,43,32640,480
53,43,32640,480
56,43,32640,480
62,51,32640,480
30,40,33120,480
42,47,33120,480
31,38,33600,90
43,44,33600,90
32,35,33840,90
44,43,33840,90
33,46,34080,480
45,54,34080,480
35,56,34560,480
47,67,34560,480
48,43,35040,480
54,43,35040,480
56,43,35040,480
62,51,35040,480
49,43,35520,480
56,43,35520,480
59,43,35520,480
65,51,35520,480
33,36,36000,480
45,42,36000,480
35,36,36480,90
47,42,36480,90
36,37,36720,90
48,45,36720,90
37,46,36960,480
49,54,36960,480
38,40,37440,480
50,47,37440,480
39,40,37920,90
51,47,37920,90
40,39,38160,90
52,48,38160,90
41,45,38400,480
53,53,38400,480
42,42,38880,480
54,49,38880,480
43,42,39360,90
55,49,39360,90
44,40,39600,90
56,50,39600,90
45,49,39840,480
57,58,39840,480
54,50,40320,480
48,50,40320,480
60,59,40320,480
55,45,40800,480
47,45,40800,480
59,54,40800,480
26,49,41280,480
38,59,41280,480
49,61,41760,240
25,50,41760,480
37,60,41760,480
49,48,42240,480
57,57,42240,480
61,57,42720,480
54,48,42720,480
57,42,43200,480
66,60,43200,480
61,40,43680,480
69,57,43680,480
73,57,44160,480
66,40,44160,480
69,48,44640,480
78,57,44640,480
71,46,45120,480
77,54,45120,480
61,42,45600,480
65,42,45600,480
71,51,45600,480
61,46,46080,960
65,46,46080,480
71,54,46080,480
54,38,46560,480
69,47,46560,480
49,28,47040,480
53,33,47040,480
59,38,47040,480
49,30,47520,960
53,36,47520,480
59,42,47520,480
42,32,48000,480
57,38,48000,480
49,26,48480,480
53,31,48480,480
59,36,48480,480
49,29,48960,960
53,34,48960,480
59,38,48960,480
42,30,49440,480
57,37,49440,480
37,57,49920,960
49,69,49920,960
38,52,50880,240
50,63,50880,240
37,48,51120,240
49,57,51120,240
32,53,51360,240
44,64,51360,240
33,47,51600,240
45,55,51600,240
30,52,51840,1440
42,63,51840,1440
26,72,53280,480
38,72,53280,480
54,38,53760,240
54,39,54000,240
53,40,54240,240
54,42,54480,240
55,43,54720,240
56,45,54960,240
57,46,55200,240
58,47,55440,240
59,49,55680,240
60,50,55920,240
61,51,56160,240
62,53,56400,240
63,55,56640,240
64,55,56880,240
65,55,57120,240
66,57,57360,240
66,58,57600,480
67,64,58080,480
67,74,58560,240
63,74,58560,240
58,74,58560,240
55,74,58560,240
39,79,59040,480
51,79,59040,480
55,38,59520,240
55,39,59760,240
54,40,60000,240
55,42,60240,240
56,43,60480,240
57,45,60720,240
58,46,60960,240
59,47,61200,240
60,49,61440,240
61,50,61680,240
62,51,61920,240
63,53,62160,240
64,55,62400,240
65,55,62640,240
66,55,62880,240
67,57,63120,240
67,58,63360,480
68,64,63840,480
68,74,64320,240
64,74,64320,240
59,74,64320,240
56,74,64320,240
40,79,64800,480
52,79,64800,480
56,50,65280,240
59,59,65280,240
56,49,65520,240
59,58,65520,240
55,46,65760,240
58,54,65760,240
56,46,66000,240
59,54,66000,240
57,49,66240,240
60,58,66240,240
58,49,66480,240
61,58,66480,240
59,49,66720,120
62,58,66720,120
59,45,66960,120
62,53,66960,120
59,45,67200,120
62,53,67200,120
59,46,67440,120
62,54,67440,120
59,49,67680,240
62,58,67680,240
58,46,67920,240
61,54,67920,240
58,49,68160,120
61,58,68160,120
58,46,68400,120
61,54,68400,120
57,46,68640,120
60,54,68640,120
58,46,68880,120
61,54,68880,120
59,49,69120,240
62,58,69120,240
60,46,69360,240
63,54,69360,240
61,49,69600,120
64,58,69600,120
61,51,69840,120
64,60,69840,120
61,53,70080,120
64,63,70080,120
61,53,70320,120
64,64,70320,120
61,56,70560,240
64,67,70560,240
60,50,70800,240
63,59,70800,240
60,50,71040,120
63,59,71040,120
60,52,71280,120
63,61,71280,120
59,53,71520,120
62,64,71520,120
60,54,71760,120
63,65,71760,120
59,56,72000,480
65,67,72000,480
61,56,72000,480
37,49,72480,480
49,59,72480,480
65,65,72960,480
61,54,72960,480
59,54,72960,480
64,67,73440,480
61,56,73440,480
59,56,73440,480
54,56,73440,480
30,51,73920,240
42,60,73920,240
64,61,74400,480
61,52,74400,480
58,52,74400,480
54,52,74400,480
57,54,74880,480
63,63,74880,480
59,54,74880,480
35,47,75360,480
47,57,75360,480
63,61,75840,480
59,51,75840,480
57,51,75840,480
62,67,76320,480
59,56,76320,480
57,56,76320,480
52,56,76320,480
28,51,76800,240
40,60,76800,240
62,61,77280,480
56,52,77280,480
52,52,77280,480
55,56,77760,480
61,67,77760,480
57,56,77760,480
33,50,78240,480
45,59,78240,480
61,60,78720,480
57,51,78720,480
55,51,78720,480
54,56,79200,480
60,67,79200,480
57,48,79680,480
60,58,79680,480
69,55,80160,480
72,65,80160,480
84,68,80640,480
81,56,80640,480
48,48,81120,240
60,58,81120,240
24,48,81600,240
36,57,81600,240
25,50,82080,240
37,59,82080,240
37,34,82560,240
49,40,82560,240
27,37,83040,240
39,46,83040,240
29,40,83520,240
41,49,83520,240
41,35,84000,240
53,44,84000,240
29,35,84480,240
41,43,84480,240
34,30,84960,240
46,37,84960,240
37,25,85440,240
49,31,85440,240
39,33,85920,240
41,38,86400,240
29,28,87360,240
41,34,87360,240
34,30,87840,480
46,36,87840,480
44,26,88320,480
56,31,88320,480
41,26,88800,480
53,31,88800,480
42,30,89280,480
54,36,89280,480
41,26,89760,480
53,31,89760,480
37,26,90240,480
49,31,90240,480
39,30,90720,480
51,36,90720,480
37,26,91200,480
49,31,91200,480
34,31,91680,480
46,31,91680,480
35,38,92160,480
47,38,92160,480
34,38,92640,480
46,38,92640,480
30,40,93120,480
42,40,93120,480
27,40,93600,480
39,47,93600,480
28,38,94080,90
40,44,94080,90
29,38,94320,90
41,47,94320,90
30,46,94560,480
42,54,94560,480
32,56,95040,480
44,67,95040,480
44,43,95520,480
51,43,95520,480
53,43,95520,480
59,51,95520,480
46,43,96000,480
53,43,96000,480
56,43,96000,480
62,51,96000,480
30,40,96480,480
42,47,96480,480
31,38,96960,90
43,44,96960,90
32,35,97200,90
44,43,97200,90
33,46,97440,480
45,54,97440,480
35,56,97920,480
47,67,97920,480
48,43,98400,480
54,43,98400,480
56,43,98400,480
62,51,98400,480
49,43,98880,480
56,43,98880,480
59,43,98880,480
65,51,98880,480
33,36,99360,480
45,42,99360,480
35,36,99840,90
47,42,99840,90
36,37,100080,90
48,45,100080,90
37,47,100320,480
49,56,100320,480
38,40,100800,480
50,47,100800,480
39,40,101280,90
51,47,101280,90
40,39,101520,90
52,48,101520,90
41,45,101760,480
53,53,101760,480
42,42,102240,480
54,50,102240,480
44,42,102720,90
56,48,102720,90
45,39,102960,90
57,50,102960,90
46,48,103200,480
58,57,103200,480
47,54,103680,480
59,66,103680,480
35,49,104160,480
47,59,104160,480
32,49,104640,480
44,59,104640,480
51,49,105120,480
54,49,105120,480
58,49,105120,480
63,59,105120,480
30,55,105600,240
42,67,105600,240
63,63,106080,480
59,52,106080,480
56,52,106080,480
51,52,106080,480
32,55,106560,240
44,67,106560,240
63,57,107040,480
59,48,107040,480
56,48,107040,480
53,48,107040,480
35,55,107520,240
47,66,107520,240
63,60,108000,480
58,51,108000,480
54,51,108000,480
34,55,108480,240
46,66,108480,240
63,60,108960,480
58,51,108960,480
53,51,108960,480
34,57,109440,240
46,69,109440,240
62,60,109920,480
58,51,109920,480
56,51,109920,480
53,51,109920,480
27,62,110400,450
39,74,110400,450
39,52,110880,1440
51,63,110880,1440
34,57,112320,480
46,69,112320,480
35,52,112800,240
47,63,112800,240
34,48,113040,240
46,57,113040,240
29,53,113280,240
41,64,113280,240
30,47,113520,240
42,55,113520,240
27,52,113760,1920
39,63,113760,1920
30,27,116640,480
63,22,117120,480
49,17,117120,480
54,17,117120,480
49,16,117600,480
54,16,117600,480
61,20,117600,480
42,25,118080,480
63,24,118560,480
54,20,118560,480
49,20,118560,480
49,15,119040,480
54,15,119040,480
61,18,119040,480
42,27,119520,480
63,24,120000,480
54,20,120000,480
49,20,120000,480
49,15,120480,480
54,15,120480,480
61,18,120480,480
42,27,120960,480
63,27,121440,480
49,22,121440,480
54,22,121440,480
49,17,121920,480
54,17,121920,480
61,21,121920,480
42,34,122400,480
63,24,122880,480
54,20,122880,480
49,20,122880,480
49,16,123360,480
54,16,123360,480
61,21,123360,480
42,34,123840,480
63,21,124320,480
49,17,124320,480
54,17,124320,480
49,15,124800,480
54,15,124800,480
61,18,124800,480
37,33,125280,480
63,24,125760,480
54,20,125760,480
49,20,125760,480
49,16,126240,480
54,16,126240,480
61,21,126240,480
42,34,126720,480
63,24,127200,480
49,20,127200,480
54,20,127200,480
49,16,127680,480
54,16,127680,480
61,21,127680,480
49,20,128160,480
54,18,128160,480
61,22,128160,480
49,17,128640,480
54,17,128640,480
59,22,128640,480
49,18,129120,480
54,18,129120,480
58,23,129120,480
49,18,129600,480
54,18,129600,480
58,23,129600,480
47,18,130080,480
49,23,130080,480
46,18,130560,480
49,23,130560,480
46,18,131040,480
49,23,131040,480
47,18,131520,480
49,23,131520,480
46,18,132000,480
49,23,132000,480
46,17,132480,480
49,22,132480,480
47,17,132960,480
49,22,132960,480
46,16,133440,480
49,20,133440,480
46,34,133920,480
66,24,134400,480
58,20,134400,480
53,20,134400,480
53,16,134880,480
58,16,134880,480
65,21,134880,480
46,34,135360,480
66,22,135840,480
53,17,135840,480
58,17,135840,480
53,14,136320,480
58,14,136320,480
65,17,136320,480
41,33,136800,480
66,24,137280,480
60,13,137280,480
53,13,137280,480
53,16,137760,480
60,16,137760,480
65,20,137760,480
46,34,138240,480
66,24,138720,480
53,20,138720,480
58,20,138720,480
53,17,139200,480
58,17,139200,480
65,22,139200,480
53,14,139680,480
58,17,139680,480
65,23,139680,480
53,20,140160,480
58,20,140160,480
63,24,140160,480
53,20,140640,480
58,20,140640,480
61,24,140640,480
53,16,141120,480
58,16,141120,480
61,25,141120,480
51,20,141600,480
53,24,141600,480
49,20,142080,480
53,24,142080,480
49,20,142560,480
53,24,142560,480
51,20,143040,480
53,24,143040,480
49,20,143520,480
53,24,143520,480
49,20,144000,480
53,24,144000,480
51,24,144480,480
53,24,144480,480
49,20,144960,480
53,24,144960,480
42,36,145440,480
63,25,145920,480
54,21,145920,480
49,21,145920,480
49,16,146400,480
54,16,146400,480
61,21,146400,480
42,34,146880,480
63,21,147360,480
49,17,147360,480
54,17,147360,480
49,15,147840,480
54,15,147840,480
61,18,147840,480
37,34,148320,480
63,26,148800,480
54,22,148800,480
49,22,148800,480
49,18,149280,480
54,18,149280,480
61,23,149280,480
42,34,149760,480
63,25,150240,480
49,21,150240,480
54,21,150240,480
49,20,150720,480
54,20,150720,480
61,24,150720,480
49,21,151200,480
54,21,151200,480
61,25,151200,480
49,20,151680,480
54,20,151680,480
59,24,151680,480
49,21,152160,480
54,21,152160,480
58,25,152160,480
49,21,152640,480
54,21,152640,480
58,25,152640,480
47,21,153120,480
49,25,153120,480
46,21,153600,480
49,25,153600,480
46,21,154080,480
49,25,154080,480
47,21,154560,480
49,25,154560,480
46,21,155040,480
49,25,155040,480
46,18,155520,480
49,23,155520,480
44,16,156000,480
49,22,156000,480
42,16,156480,480
49,22,156480,480
41,44,156960,480
62,27,157440,480
53,23,157440,480
53,20,157920,480
62,24,157920,480
41,41,158400,480
63,27,158880,480
53,22,158880,480
57,22,158880,480
53,24,159360,480
57,24,159360,480
63,28,159360,480
41,39,159840,480
65,28,160320,480
58,24,160320,480
53,24,160320,480
53,20,160800,480
61,20,160800,480
64,24,160800,480
41,41,161280,480
63,27,161760,480
53,23,161760,480
60,23,161760,480
53,20,162240,480
60,20,162240,480
63,24,162240,480
41,45,162720,480
62,28,163200,480
53,24,163200,480
53,22,163680,480
62,27,163680,480
41,43,164160,480
63,27,164640,480
53,24,164640,480
57,24,164640,480
53,20,165120,480
57,20,165120,480
63,24,165120,480
46,45,165600,480
65,33,166080,480
58,22,166080,480
53,22,166080,480
53,13,166560,480
58,13,166560,480
61,24,166560,480
37,45,167040,480
61,24,167520,480
68,27,167520,480
56,24,167520,480
59,24,167520,480
61,22,168000,480
56,22,168000,480
59,22,168000,480
68,26,168000,480
56,22,168480,480
59,22,168480,480
61,22,168480,480
68,26,168480,480
56,23,168960,480
59,23,168960,480
61,27,168960,480
56,23,169440,480
59,27,169440,480
61,27,169440,480
56,23,169920,480
59,23,169920,480
61,27,169920,480
54,23,170400,480
59,23,170400,480
61,27,170400,480
56,23,170880,480
59,23,170880,480
61,27,170880,480
56,23,171360,480
59,23,171360,480
61,27,171360,480
54,22,171840,480
59,22,171840,480
61,26,171840,480
56,22,172320,480
59,22,172320,480
61,26,172320,480
56,20,172800,480
59,20,172800,480
61,24,172800,480
54,18,173280,480
59,18,173280,480
61,23,173280,480
56,18,173760,480
59,18,173760,480
61,23,173760,480
42,37,174240,480
63,25,174720,480
54,21,174720,480
49,21,174720,480
49,18,175200,480
54,18,175200,480
61,23,175200,480
42,34,175680,480
63,23,176160,480
49,18,176160,480
54,18,176160,480
49,15,176640,480
54,15,176640,480
61,18,176640,480
37,33,177120,480
63,27,177600,480
54,23,177600,480
49,23,177600,480
49,18,178080,480
54,18,178080,480
61,23,178080,480
42,34,178560,480
63,24,179040,480
49,20,179040,480
54,20,179040,480
49,17,179520,480
54,17,179520,480
61,22,179520,480
49,12,180000,480
54,12,180000,480
61,21,180000,480
49,18,180480,480
54,18,180480,480
59,23,180480,480
49,13,180960,480
54,15,180960,480
58,22,180960,480
49,20,181440,480
54,20,181440,480
58,24,181440,480
47,20,181920,480
49,24,181920,480
46,18,182400,480
49,24,182400,480
46,18,182880,480
49,24,182880,480
47,18,183360,480
49,23,183360,480
46,18,183840,480
49,23,183840,480
46,17,184320,480
49,23,184320,480
44,17,184800,480
49,22,184800,480
42,17,185280,480
49,22,185280,480
44,31,185760,480
64,26,186240,480
56,22,186240,480
51,22,186240,480
51,17,186720,480
56,17,186720,480
63,22,186720,480
44,38,187200,480
64,24,187680,480
51,18,187680,480
56,18,187680,480
51,17,188160,480
56,17,188160,480
63,21,188160,480
39,33,188640,480
64,22,189120,480
58,17,189120,480
51,17,189120,480
51,14,189600,480
58,14,189600,480
63,17,189600,480
44,34,190080,480
64,25,190560,480
51,21,190560,480
56,21,190560,480
51,18,191040,480
56,18,191040,480
63,23,191040,480
51,16,191520,480
56,16,191520,480
63,25,191520,474
51,20,192000,480
56,20,192000,480
61,24,192000,480
51,20,192480,480
56,20,192480,480
59,24,192480,480
51,21,192960,480
56,21,192960,480
59,25,192960,480
49,20,193440,480
51,24,193440,480
47,20,193920,480
51,24,193920,480
47,20,194400,480
51,24,194400,480
49,20,194880,480
51,21,194880,480
47,18,195360,480
51,23,195360,480
47,18,195840,480
51,23,195840,480
46,17,196320,480
51,22,196320,480
44,16,196800,480
51,20,196800,480
37,20,197280,480
49,27,198240,360
50,26,198600,60
51,26,198660,60
53,25,198720,80
51,21,198800,80
53,24,198880,80
51,22,198960,80
53,24,199040,80
51,21,199120,80
53,24,199200,80
51,21,199280,80
53,24,199360,80
51,21,199440,80
53,24,199520,80
51,21,199600,80
53,24,199680,120
51,21,199800,120
53,24,199920,60
51,20,199980,60
49,24,200040,60
51,18,200100,60
53,32,200160,480
37,25,200640,480
49,27,201120,360
50,26,201480,60
51,26,201540,60
53,25,201600,80
51,21,201680,80
53,24,201760,80
51,22,201840,80
53,24,201920,80
51,21,202000,80
53,24,202080,80
51,21,202160,80
53,24,202240,80
51,21,202320,80
53,24,202400,80
51,21,202480,80
53,24,202560,120
51,21,202680,120
53,24,202800,60
51,20,202860,60
49,24,202920,60
51,18,202980,60
53,34,203040,480
37,36,203520,480
49,17,204000,480
56,17,204000,480
61,26,204000,480
49,20,204480,480
56,20,204480,480
61,28,204480,480
49,21,204960,480
56,21,204960,480
59,32,204960,480
49,21,205440,480
56,21,205440,480
59,35,205440,480
49,26,205920,480
56,26,205920,480
59,37,205920,480
49,21,206400,480
56,21,206400,480
59,31,206400,475
49,17,206880,480
56,26,206880,480
42,18,207360,480
49,25,207360,480
58,39,207840,240
56,37,208080,240
54,36,208320,240
53,35,208560,240
53,39,208800,240
51,39,209040,240
49,37,209280,240
48,36,209520,240
46,35,209760,240
44,35,210000,240
37,35,210240,240
58,42,210720,240
56,37,210960,240
54,36,211200,240
53,36,211440,240
53,39,211680,240
51,39,211920,240
49,37,212160,240
48,36,212400,240
46,36,212640,240
44,35,212880,240
37,35,213120,240
56,35,213600,240
58,36,213840,240
60,37,214080,240
61,41,214320,240
61,45,214560,240
60,37,214800,240
52,41,215040,240
53,36,215280,240
61,39,215520,240
60,35,215760,240
58,39,216000,480
46,41,216480,240
53,35,216720,240
56,37,216960,240
60,35,217200,240
60,39,217440,240
58,35,217680,240
50,36,217920,240
51,35,218160,240
60,37,218400,240
58,35,218640,240
56,37,218880,480
58,39,219360,240
56,37,219600,240
54,36,219840,240
53,35,220080,240
53,39,220320,240
51,39,220560,240
49,37,220800,240
48,36,221040,240
46,35,221280,240
44,35,221520,240
37,35,221760,240
58,42,222240,240
56,37,222480,240
54,36,222720,240
53,36,222960,240
53,39,223200,240
51,39,223440,240
49,37,223680,240
48,36,223920,240
46,36,224160,240
44,35,224400,240
37,35,224640,240
56,39,225120,240
55,36,225360,240
58,39,225600,240
56,34,225840,240
59,39,226080,480
47,43,226560,240
53,39,226800,240
56,43,227040,240
54,39,227280,240
58,45,227520,480
42,41,228000,240
49,36,228240,240
54,41,228480,240
58,36,228720,240
56,43,228960,480
37,39,229440,240
44,35,229680,240
49,39,229920,240
56,36,230160,240
61,39,230400,240
60,34,230640,240
59,35,230880,240
58,34,231120,240
59,41,231360,240
49,35,231600,240
42,37,231840,480
63,25,232320,480
54,21,232320,480
49,21,232320,480
49,18,232800,480
54,18,232800,480
61,23,232800,480
42,34,233280,480
63,23,233760,480
49,18,233760,480
54,18,233760,480
49,15,234240,480
54,15,234240,480
61,18,234240,480
37,33,234720,480
63,27,235200,480
54,23,235200,480
49,23,235200,480
49,18,235680,480
54,18,235680,480
61,23,235680,480
42,34,236160,480
63,24,236640,480
49,20,236640,480
54,20,236640,480
49,17,237120,480
54,17,237120,480
61,22,237120,480
49,12,237600,480
54,15,237600,480
61,22,237600,480
49,18,238080,480
54,18,238080,480
59,23,238080,480
49,12,238560,480
54,15,238560,480
58,21,238560,480
49,13,239040,480
54,16,239040,480
58,21,239040,480
47,20,239520,480
49,24,239520,480
46,20,240000,480
49,24,240000,480
46,20,240480,480
49,24,240480,480
47,20,240960,480
49,24,240960,480
46,20,241440,480
49,24,241440,480
46,20,241920,480
49,24,241920,480
47,20,242400,480
49,24,242400,480
46,20,242880,480
49,24,242880,480
44,31,243360,480
64,26,243840,480
56,22,243840,480
51,22,243840,480
51,17,244320,480
56,17,244320,480
63,22,244320,480
44,38,244800,480
64,24,245280,480
51,18,245280,480
56,18,245280,480
51,17,245760,480
56,17,245760,480
63,21,245760,480
39,33,246240,480
64,25,246720,480
58,21,246720,480
51,21,246720,480
51,16,247200,480
58,16,247200,480
63,21,247200,480
44,34,247680,480
64,25,248160,480
51,21,248160,480
56,21,248160,480
51,18,248640,480
56,18,248640,480
63,23,248640,480
51,16,249120,480
56,16,249120,480
63,25,249120,480
51,20,249600,480
56,20,249600,480
61,24,249600,480
51,20,250080,480
56,20,250080,480
59,24,250080,480
51,21,250560,480
56,21,250560,480
59,25,250560,480
49,22,251040,480
51,26,251040,480
47,22,251520,480
51,26,251520,480
47,22,252000,480
51,26,252000,480
49,22,252480,480
51,24,252480,480
47,22,252960,480
51,26,252960,480
47,22,253440,480
51,26,253440,480
46,21,253920,480
51,25,253920,480
44,20,254400,480
51,24,254400,480
37,20,254880,480
49,27,255840,360
50,26,256200,60
51,26,256260,60
53,25,256320,80
51,21,256400,80
53,24,256480,80
51,22,256560,80
53,24,256640,80
51,21,256720,80
53,24,256800,80
51,21,256880,80
53,24,256960,80
51,21,257040,80
53,24,257120,80
51,21,257200,80
53,24,257280,120
51,21,257400,120
53,24,257520,60
51,20,257580,60
49,24,257640,60
51,18,257700,60
53,32,257760,480
37,25,258240,480
49,27,258720,360
50,26,259080,60
51,26,259140,60
53,25,259200,80
51,21,259280,80
53,24,259360,80
51,22,259440,80
53,24,259520,80
51,21,259600,80
53,24,259680,80
51,21,259760,80
53,24,259840,80
51,21,259920,80
53,24,260000,80
51,21,260080,80
53,24,260160,120
51,21,260280,120
53,24,260400,60
51,20,260460,60
49,24,260520,60
51,18,260580,60
53,34,260640,480
37,36,261120,480
49,17,261600,480
56,17,261600,480
61,26,261600,480
49,20,262080,480
56,20,262080,480
61,28,262080,480
49,21,262560,480
56,21,262560,480
59,32,262560,480
49,21,263040,480
56,21,263040,480
59,34,263040,480
49,27,263520,480
56,27,263520,480
59,37,263520,480
49,20,264000,480
56,20,264000,480
59,31,264000,475
49,17,264480,480
56,26,264480,480
42,18,264960,480
49,26,264960,480
58,39,265440,240
56,37,265680,240
54,36,265920,240
53,35,266160,240
53,39,266400,240
51,39,266640,240
49,37,266880,240
48,36,267120,240
46,35,267360,240
44,35,267600,240
37,35,267840,240
58,42,268320,240
56,37,268560,240
54,36,268800,240
53,36,269040,240
53,39,269280,240
51,39,269520,240
49,37,269760,240
48,36,270000,240
46,36,270240,240
44,35,270480,240
37,35,270720,240
56,35,271200,240
58,36,271440,240
60,37,271680,240
61,41,271920,240
61,45,272160,240
60,37,272400,240
52,41,272640,240
53,36,272880,240
61,39,273120,240
60,35,273360,240
58,39,273600,480
46,41,274080,240
53,35,274320,240
56,37,274560,240
60,35,274800,240
60,39,275040,240
58,35,275280,240
50,36,275520,240
51,35,275760,240
60,37,276000,240
58,35,276240,240
56,37,276480,480
58,39,276960,240
56,37,277200,240
54,36,277440,240
53,35,277680,240
53,39,277920,240
51,39,278160,240
49,37,278400,240
48,36,278640,240
46,35,278880,240
44,35,279120,240
37,35,279360,240
58,42,279840,240
56,37,280080,240
54,36,280320,240
53,36,280560,240
53,39,280800,240
51,39,281040,240
49,37,281280,240
48,36,281520,240
46,36,281760,240
44,35,282000,240
37,35,282240,240
56,39,282720,240
55,36,282960,240
58,39,283200,240
56,34,283440,240
59,39,283680,480
47,43,284160,240
53,39,284400,240
56,43,284640,240
54,39,284880,240
58,45,285120,480
42,41,285600,240
49,36,285840,240
54,41,286080,240
58,36,286320,240
56,43,286560,480
37,39,287040,240
44,35,287280,240
49,39,287520,240
56,36,287760,240
61,39,288000,240
60,34,288240,240
59,34,288480,240
58,34,288720,240
59,41,288960,240
49,34,289200,240
42,37,289440,480
63,25,289920,480
54,21,289920,480
49,21,289920,480
49,18,290400,480
54,18,290400,480
61,23,290400,480
42,34,290880,480
63,23,291360,480
49,18,291360,480
54,18,291360,480
49,15,291840,480
54,15,291840,480
61,18,291840,480
37,33,292320,480
63,27,292800,480
54,23,292800,480
49,23,292800,480
49,18,293280,480
54,18,293280,480
61,23,293280,480
42,34,293760,480
63,24,294240,480
49,20,294240,480
54,20,294240,480
49,17,294720,480
54,17,294720,480
61,22,294720,480
49,12,295200,480
54,15,295200,480
61,22,295200,480
49,18,295680,480
54,18,295680,480
59,23,295680,480
49,12,296160,480
54,15,296160,480
58,21,296160,480
49,20,296640,480
54,20,296640,480
58,23,296640,480
47,20,297120,480
49,24,297120,480
46,20,297600,480
49,24,297600,480
46,20,298080,480
49,24,298080,480
47,20,298560,480
49,24,298560,480
46,20,299040,480
49,24,299040,480
46,20,299520,480
49,24,299520,480
47,20,300000,480
49,24,300000,480
46,20,300480,480
49,24,300480,480
44,31,300960,480
64,26,301440,480
56,22,301440,480
51,22,301440,480
51,17,301920,480
56,17,301920,480
63,22,301920,480
44,38,302400,480
64,24,302880,480
51,18,302880,480
56,18,302880,480
51,17,303360,480
56,17,303360,480
63,21,303360,480
39,33,303840,480
64,25,304320,480
58,21,304320,480
51,21,304320,480
51,16,304800,480
58,16,304800,480
63,21,304800,480
44,34,305280,480
64,25,305760,480
51,21,305760,480
56,21,305760,480
51,18,306240,480
56,18,306240,480
63,23,306240,480
51,16,306720,480
56,16,306720,480
63,25,306720,480
51,20,307200,480
56,20,307200,480
61,24,307200,480
51,20,307680,480
56,20,307680,480
59,24,307680,480
51,21,308160,480
56,21,308160,480
59,25,308160,480
49,22,308640,480
51,26,308640,480
47,22,309120,480
51,26,309120,480
47,22,309600,480
51,26,309600,480
49,22,310080,480
51,24,310080,480
47,22,310560,480
51,26,310560,480
47,22,311040,480
51,26,311040,480
46,21,311520,480
51,25,311520,480
44,20,312000,480
51,24,312000,480
37,20,312480,480
49,27,313440,360
50,26,313800,60
51,26,313860,60
53,25,313920,80
51,21,314000,80
53,24,314080,80
51,22,314160,80
53,24,314240,80
51,21,314320,80
53,24,314400,80
51,21,314480,80
53,24,314560,80
51,21,314640,80
53,24,314720,80
51,21,314800,80
53,24,314880,120
51,21,315000,120
53,24,315120,60
51,20,315180,60
49,24,315240,60
51,18,315300,60
53,32,315360,480
37,25,315840,480
49,27,316320,360
50,26,316680,60
51,26,316740,60
53,25,316800,80
51,21,316880,80
53,24,316960,80
51,22,317040,80
53,24,317120,80
51,21,317200,80
53,24,317280,80
51,21,317360,80
53,24,317440,80
51,21,317520,80
53,24,317600,80
51,21,317680,80
53,24,317760,120
51,21,317880,120
53,24,318000,60
51,20,318060,60
49,24,318120,60
51,18,318180,60
53,34,318240,480
37,37,318720,480
49,20,319200,480
56,20,319200,480
61,30,319200,480
49,23,319680,480
56,23,319680,480
61,34,319680,480
49,24,320160,480
56,24,320160,480
59,36,320160,480
49,23,320640,480
56,22,320640,480
59,39,320640,480
49,28,321120,480
56,34,321120,480
59,34,321120,480
49,29,321600,480
56,34,321600,480
59,35,321600,480
59,27,322080,480
49,23,322080,480
56,24,322080,480
49,27,322560,480
56,34,322560,480
59,34,322560,480
49,14,323040,720
56,20,323040,720
59,36,323040,720
38,31,323760,240
50,39,323760,240
38,35,324000,480
50,43,324000,480
37,39,324480,720
49,47,324480,720
36,31,325200,240
48,38,325200,240
36,34,325440,480
48,42,325440,480
35,42,325920,720
47,50,325920,720
34,32,326640,240
46,40,326640,240
34,34,326880,480
46,44,326880,480
33,45,327360,720
45,55,327360,720
32,35,328080,240
44,44,328080,240
32,37,328320,480
44,48,328320,480
30,29,328800,480
42,56,328800,480
34,42,329280,480
46,49,329280,480
27,36,329760,480
39,42,329760,480
28,36,330240,90
40,42,330240,90
29,36,330480,90
41,45,330480,90
30,42,330720,480
42,50,330720,480
32,50,331200,390
44,59,331200,390
44,37,331590,480
51,37,331620,450
53,37,331650,420
59,46,331680,390
46,37,332070,570
53,37,332100,540
56,37,332130,510
62,46,332160,480
30,38,332640,480
42,44,332640,480
31,38,333120,90
43,44,333120,90
32,35,333360,90
44,43,333360,90
33,43,333600,480
45,51,333600,480
35,53,334080,390
47,63,334080,390
48,39,334470,480
54,39,334500,450
56,39,334530,420
62,48,334560,390
49,39,334950,570
56,39,334980,540
59,39,335010,510
65,48,335040,480
33,36,335520,480
45,42,335520,480
35,36,336000,90
47,42,336000,90
36,37,336240,90
48,45,336240,90
37,46,336480,480
49,54,336480,480
38,40,336960,480
50,47,336960,480
39,38,337440,90
51,44,337440,90
40,37,337680,90
52,45,337680,90
41,45,337920,480
53,53,337920,480
42,40,338400,480
54,47,338400,480
44,38,338880,90
56,44,338880,90
45,37,339120,90
57,45,339120,90
46,47,339360,480
58,56,339360,480
47,48,339840,480
59,57,339840,480
35,43,340320,480
47,52,340320,480
36,43,340800,480
48,52,340800,480
37,50,341280,480
49,60,341280,480
49,48,341760,480
58,57,341760,480
61,57,342240,480
54,48,342240,480
58,42,342720,480
66,60,342720,480
61,40,343200,480
70,57,343200,480
73,57,343680,480
66,40,343680,480
70,48,344160,480
78,57,344160,480
71,46,344640,480
77,51,344640,480
61,42,345120,480
65,42,345120,480
71,51,345120,480
61,46,345600,960
65,46,345600,480
71,52,345600,480
54,38,346080,480
70,47,346080,480
49,28,346560,480
53,33,346560,480
59,38,346560,480
49,31,347040,960
53,34,347040,480
59,42,347040,480
42,32,347520,480
58,38,347520,480
49,29,348000,480
53,31,348000,480
59,36,348000,480
49,30,348480,960
53,34,348480,480
59,38,348480,480
42,32,348960,480
58,38,348960,480
44,36,352800,480
56,43,352800,480
42,30,353280,480
54,37,353280,480
39,30,353760,480
51,37,353760,480
42,36,354240,480
54,43,354240,480
41,30,354720,480
53,37,354720,480
37,30,355200,480
49,37,355200,480
39,36,355680,480
51,43,355680,480
37,30,356160,480
49,37,356160,480
34,30,356640,480
46,37,356640,480
35,32,357120,480
47,39,357120,480
34,29,357600,480
46,35,357600,480
30,29,358080,480
42,35,358080,480
27,40,358560,480
39,47,358560,480
28,38,359040,90
40,44,359040,90
29,38,359280,90
41,47,359280,90
30,47,359520,480
42,56,359520,480
32,56,360000,480
44,67,360000,480
44,43,360480,480
51,43,360480,480
53,43,360480,480
59,51,360480,480
46,43,360960,480
53,43,360960,480
56,43,360960,480
62,51,360960,480
30,40,361440,480
42,47,361440,480
31,38,361920,90
43,44,361920,90
32,35,362160,90
44,43,362160,90
33,46,362400,480
45,54,362400,480
35,56,362880,480
47,67,362880,480
48,43,363360,480
54,43,363360,480
56,43,363360,480
62,51,363360,480
49,43,363840,480
56,43,363840,480
59,43,363840,480
65,51,363840,480
33,36,364320,480
45,42,364320,480
35,36,364800,90
47,42,364800,90
36,37,365040,90
48,45,365040,90
37,46,365280,480
49,54,365280,480
38,40,365760,480
50,47,365760,480
39,40,366240,90
51,47,366240,90
40,39,366480,90
52,48,366480,90
41,45,366720,480
53,53,366720,480
42,42,367200,480
54,49,367200,480
43,42,367680,90
55,49,367680,90
44,40,367920,90
56,50,367920,90
45,49,368160,480
57,58,368160,480
54,50,368640,480
48,50,368640,480
60,59,368640,480
55,45,369120,480
47,45,369120,480
59,54,369120,480
26,49,369600,480
38,59,369600,480
49,61,370080,240
25,50,370080,480
37,60,370080,480
49,48,370560,480
57,57,370560,480
61,57,371040,480
54,48,371040,480
57,42,371520,480
66,60,371520,480
61,40,372000,480
69,57,372000,480
73,57,372480,480
66,40,372480,480
69,48,372960,480
78,57,372960,480
71,46,373440,480
77,54,373440,480
61,42,373920,480
65,42,373920,480
71,51,373920,480
61,46,374400,960
65,46,374400,480
71,54,374400,480
54,38,374880,480
69,47,374880,480
49,28,375360,480
53,33,375360,480
59,38,375360,480
49,30,375840,960
53,36,375840,480
59,42,375840,480
42,32,376320,480
57,38,376320,480
49,26,376800,480
53,31,376800,480
59,36,376800,480
49,29,377280,960
53,34,377280,480
59,38,377280,480
42,30,377760,480
57,37,377760,480
37,57,378240,960
49,69,378240,960
38,52,379200,240
50,63,379200,240
37,48,379440,240
49,57,379440,240
32,53,379680,240
44,64,379680,240
33,47,379920,240
45,55,379920,240
30,52,380160,1440
42,63,380160,1440
26,72,381600,480
38,72,381600,480
54,38,382080,240
54,39,382320,240
53,40,382560,240
54,42,382800,240
55,43,383040,240
56,45,383280,240
57,46,383520,240
58,47,383760,240
59,49,384000,240
60,50,384240,240
61,51,384480,240
62,53,384720,240
63,55,384960,240
64,55,385200,240
65,55,385440,240
66,57,385680,240
66,58,385920,480
67,64,386400,480
67,74,386880,240
63,74,386880,240
58,74,386880,240
55,74,386880,240
39,79,387360,480
51,79,387360,480
55,38,387840,240
55,39,388080,240
54,40,388320,240
55,42,388560,240
56,43,388800,240
57,45,389040,240
58,46,389280,240
59,47,389520,240
60,49,389760,240
61,50,390000,240
62,51,390240,240
63,53,390480,240
64,55,390720,240
65,55,390960,240
66,55,391200,240
67,57,391440,240
67,58,391680,480
68,64,392160,480
68,74,392640,240
64,74,392640,240
59,74,392640,240
56,74,392640,240
40,79,393120,480
52,79,393120,480
56,50,393600,240
59,59,393600,240
56,49,393840,240
59,58,393840,240
55,46,394080,240
58,54,394080,240
56,46,394320,240
59,54,394320,240
57,49,394560,240
60,58,394560,240
58,49,394800,240
61,58,394800,240
59,49,395040,120
62,58,395040,120
59,45,395280,120
62,53,395280,120
59,45,395520,120
62,53,395520,120
59,46,395760,120
62,54,395760,120
59,49,396000,240
62,58,396000,240
58,46,396240,240
61,54,396240,240
58,49,396480,120
61,58,396480,120
58,46,396720,120
61,54,396720,120
57,46,396960,120
60,54,396960,120
58,46,397200,120
61,54,397200,120
59,49,397440,240
62,58,397440,240
60,46,397680,240
63,54,397680,240
61,49,397920,120
64,58,397920,120
61,51,398160,120
64,60,398160,120
61,53,398400,120
64,63,398400,120
61,53,398640,120
64,64,398640,120
61,56,398880,240
64,67,398880,240
60,50,399120,240
63,59,399120,240
60,50,399360,120
63,59,399360,120
60,52,399600,120
63,61,399600,120
59,53,399840,120
62,64,399840,120
60,54,400080,120
63,65,400080,120
59,56,400320,480
65,67,400320,480
61,56,400320,480
37,49,400800,480
49,59,400800,480
65,65,401280,480
61,54,401280,480
59,54,401280,480
64,67,401760,480
61,56,401760,480
59,56,401760,480
54,56,401760,480
30,51,402240,480
42,60,402240,480
64,61,402720,480
61,52,402720,480
58,52,402720,480
54,52,402720,480
57,54,403200,480
63,63,403200,480
59,54,403200,480
35,47,403680,480
47,57,403680,480
63,61,404160,480
59,51,404160,480
57,51,404160,480
62,67,404640,480
59,56,404640,480
57,56,404640,480
52,56,404640,480
28,51,405120,480
40,60,405120,480
62,61,405600,480
56,52,405600,480
52,52,405600,480
55,56,406080,480
61,67,406080,480
57,56,406080,480
33,50,406560,480
45,59,406560,480
61,60,407040,480
57,51,407040,480
55,51,407040,480
54,56,407520,480
60,67,407520,480
57,48,408000,480
60,58,408000,480
69,55,408480,480
72,65,408480,480
84,68,408960,480
81,56,408960,480
48,48,409440,240
60,58,409440,240
24,48,409920,240
36,57,409920,240
25,50,410400,240
37,59,410400,240
37,34,410880,240
49,40,410880,240
27,37,411360,240
39,46,411360,240
29,40,411840,240
41,49,411840,240
41,35,412320,240
53,44,412320,240
29,35,412800,240
41,43,412800,240
34,30,413280,240
46,37,413280,240
37,25,413760,240
49,31,413760,240
39,33,414240,240
41,38,414720,240
29,28,415680,240
41,34,415680,240
34,30,416160,480
46,36,416160,480
44,26,416640,480
56,31,416640,480
41,26,417120,480
53,31,417120,480
42,30,417600,480
54,36,417600,480
41,26,418080,480
53,31,418080,480
37,26,418560,480
49,31,418560,480
39,30,419040,480
51,36,419040,480
37,26,419520,480
49,31,419520,480
34,31,420000,480
46,31,420000,480
35,38,420480,480
47,38,420480,480
34,38,420960,480
46,38,420960,480
30,40,421440,480
42,40,421440,480
27,40,421920,480
39,47,421920,480
28,38,422400,90
40,44,422400,90
29,38,422640,90
41,47,422640,90
30,46,422880,480
42,54,422880,480
32,56,423360,480
44,67,423360,480
44,43,423840,480
51,43,423840,480
53,43,423840,480
59,51,423840,480
46,43,424320,480
53,43,424320,480
56,43,424320,480
62,51,424320,480
30,40,424800,480
42,47,424800,480
31,38,425280,90
43,44,425280,90
32,35,425520,90
44,43,425520,90
33,46,425760,480
45,54,425760,480
35,56,426240,480
47,67,426240,480
48,43,426720,480
54,43,426720,480
56,43,426720,480
62,51,426720,480
49,43,427200,480
56,43,427200,480
59,43,427200,480
65,51,427200,480
33,36,427680,480
45,42,427680,480
35,36,428160,90
47,42,428160,90
36,37,428400,90
48,45,428400,90
37,47,428640,480
49,56,428640,480
38,40,429120,480
50,47,429120,480
39,40,429600,90
51,47,429600,90
40,39,429840,90
52,48,429840,90
41,45,430080,480
53,53,430080,480
42,42,430560,480
54,50,430560,480
43,42,431040,90
55,48,431040,90
44,39,431280,90
56,50,431280,90
45,48,431520,480
57,57,431520,480
36,53,432000,480
48,65,432000,480
60,51,432480,240
66,51,432480,240
69,51,432480,240
72,61,432480,240
47,69,432960,480
35,57,432960,480
45,49,433440,480
49,58,433440,480
54,58,433440,480
57,58,433440,480
33,54,433920,240
45,65,433920,240
47,50,434400,480
54,50,434400,480
59,59,434400,480
35,54,434880,240
47,65,434880,240
56,50,435360,480
50,45,435360,480
54,47,435360,480
59,59,435360,480
38,54,435840,240
50,65,435840,240
54,50,436320,480
49,50,436320,480
57,59,436320,480
37,54,436800,240
49,65,436800,240
54,50,437280,480
49,50,437280,480
56,59,437280,480
37,54,437760,240
49,65,437760,240
56,47,438240,480
49,47,438240,480
59,56,438240,480
61,40,438720,240
65,46,438720,240
71,55,438720,240
61,46,439200,420
65,50,439200,420
71,59,439200,420
54,42,439620,540
61,44,439650,510
69,51,439680,480
49,19,440160,240
53,26,440160,240
59,30,440160,240
49,21,440640,420
53,28,440640,420
59,33,440640,420
42,25,441060,540
49,25,441090,510
57,30,441120,480
49,17,441600,480
53,21,441600,480
59,25,441600,480
49,24,442080,480
54,28,442080,480
57,33,442080,480
42,25,442560,480
49,17,443040,480
53,20,443040,480
59,23,443040,480
49,21,443520,480
54,26,443520,480
57,30,443520,480
42,22,444000,480
49,15,444480,480
53,18,444480,480
59,21,444480,480
49,19,444960,480
54,24,444960,480
58,27,444960,480
42,21,445440,480
49,14,445920,480
53,17,445920,480
59,20,445920,480
49,18,446400,480
54,23,446400,480
58,26,446400,480
42,19,446880,480
49,13,447360,480
53,16,447360,480
59,19,447360,480
49,17,447840,480
54,21,447840,480
58,25,447840,480
42,18,448320,480
49,13,448800,480
53,15,448800,480
59,17,448800,480
49,16,449280,480
54,20,449280,480
58,24,449280,480
42,17,449760,480
49,13,450240,480
53,15,450240,480
59,17,450240,480
42,32,450720,480
63,20,451200,480
54,17,451200,480
49,17,451200,480
49,14,451680,480
54,14,451680,480
61,17,451680,480
49,16,452160,480
54,16,452160,480
61,20,452160,480
63,16,452640,480
49,10,452640,480
54,14,452640,480
49,12,453120,480
54,12,453120,480
61,15,453120,480
49,16,453600,480
54,16,453600,480
61,20,453600,480
63,19,454080,480
54,16,454080,480
49,16,454080,480
49,13,454560,480
54,13,454560,480
61,16,454560,480
49,16,455040,480
54,16,455040,480
61,20,455040,480
63,19,455520,480
49,16,455520,480
54,16,455520,480
49,13,456000,480
54,13,456000,480
61,16,456000,480
49,16,456480,480
54,16,456480,480
61,19,456480,480
49,14,456960,480
54,14,456960,480
59,17,456960,480
49,15,457440,480
54,15,457440,480
58,18,457440,480
49,15,457920,480
54,15,457920,480
58,18,457920,480
47,17,458400,480
49,21,458400,480
46,17,458880,480
49,21,458880,480
46,17,459360,480
49,21,459360,480
47,17,459840,480
49,21,459840,480
46,17,460320,480
49,21,460320,480
46,16,460800,480
49,20,460800,480
47,16,461280,480
49,20,461280,480
46,15,461760,960
49,18,461760,960
32,17,462720,480
44,20,462720,480
30,17,463200,480
42,20,463200,480
30,17,463680,480
42,20,463680,480
32,17,464160,480
44,20,464160,480
30,17,464640,480
42,20,464640,480
25,16,466560,120
37,20,466560,120
30,16,468000,120
42,20,468000,120
