note,velocity,position,duration
59,55,1440,360
71,52,1800,120
71,62,1920,1440
72,58,3370,480
71,62,3850,1440
72,58,5290,480
71,62,5770,1430
72,59,7200,480
71,64,7680,1440
70,58,9125,480
69,62,9605,1440
71,63,11045,480
69,66,11525,1440
71,67,12965,480
69,67,13445,1440
71,66,14880,360
69,57,15240,120
69,62,15370,1430
68,62,16800,960
69,65,17760,240
71,69,18000,240
74,74,18240,240
72,65,18480,240
64,68,18720,240
69,62,18960,240
66,62,19200,1440
69,57,20640,480
66,62,21120,1380
71,52,22500,60
69,62,22560,480
67,62,23040,240
66,46,23280,240
60,54,23520,240
59,42,23760,240
63,64,24000,240
66,59,24240,240
74,65,24480,160
72,62,24640,160
71,57,24800,160
71,62,24960,1440
72,68,26410,480
71,71,26890,1440
72,74,28325,480
71,76,28805,1435
72,77,30240,480
71,84,30720,360
70,78,31080,120
70,85,31200,240
71,70,31440,60
70,73,31500,60
69,76,31560,60
70,79,31620,60
79,88,31680,480
78,91,32160,360
76,77,32520,120
76,89,32640,240
75,86,32880,240
84,92,33120,240
75,85,33360,240
75,88,33600,240
76,82,33840,240
79,85,34080,240
71,77,34320,240
74,80,34560,240
72,69,34800,240
76,77,35040,160
64,67,35200,160
69,67,35360,160
66,73,35520,720
69,69,36240,240
66,64,36480,1380
71,47,37860,60
69,57,37920,480
66,57,38400,1800
64,52,40200,120
64,57,40320,1440
66,52,41760,480
64,52,42240,1440
66,47,43680,480
64,47,44160,960
52,28,46080,960
64,33,46080,960
54,28,46080,960
59,28,46080,960
54,28,47040,960
59,28,47040,960
51,28,47040,960
63,33,47040,960
64,33,48000,1920
59,28,48000,1920
52,28,48000,1920
55,28,48000,1920
55,21,1920,216
59,25,1920,216
64,31,1920,216
55,18,2160,216
59,22,2160,216
64,27,2160,216
55,18,2400,216
59,22,2400,216
64,27,2400,216
55,18,2640,216
59,22,2640,216
64,27,2640,216
55,18,2880,216
59,22,2880,216
64,27,2880,216
55,18,3120,216
59,22,3120,216
64,27,3120,216
55,16,3360,216
59,19,3360,216
64,24,3360,216
55,16,3600,216
59,19,3600,216
64,24,3600,216
54,21,3840,216
64,31,3840,216
57,25,3840,216
54,18,4080,216
57,22,4080,216
64,27,4080,216
54,18,4320,216
64,27,4320,216
57,22,4320,216
57,22,4560,216
54,18,4560,216
64,27,4560,216
57,22,4800,216
54,18,4800,216
63,27,4800,216
63,27,5040,216
57,22,5040,216
54,18,5040,216
54,16,5280,216
57,19,5280,216
63,24,5280,216
54,16,5520,216
57,19,5520,216
63,24,5520,216
53,21,5760,216
57,25,5760,216
63,31,5760,216
53,18,6000,216
63,27,6000,216
57,22,6000,216
63,27,6240,216
57,22,6240,216
53,18,6240,216
53,18,6480,216
57,22,6480,216
63,27,6480,216
57,22,6720,216
62,27,6720,216
53,18,6720,216
53,18,6960,216
62,27,6960,216
57,22,6960,216
53,16,7200,216
62,24,7200,216
56,19,7200,216
53,16,7440,216
56,19,7440,216
62,24,7440,216
52,21,7680,216
56,25,7680,216
62,31,7680,216
56,22,7920,216
62,27,7920,216
52,18,7920,216
56,22,8160,216
62,27,8160,216
52,18,8160,216
62,27,8400,216
56,22,8400,216
52,18,8400,216
62,27,8640,216
55,22,8640,216
52,18,8640,216
52,18,8880,216
55,22,8880,216
62,27,8880,216
61,24,9120,216
52,16,9120,216
55,19,9120,216
52,16,9360,216
55,19,9360,216
61,24,9360,216
52,21,9600,216
60,31,9600,216
55,25,9600,216
55,22,9840,216
52,18,9840,216
60,27,9840,216
55,23,10080,216
52,18,10080,216
60,28,10080,216
55,23,10320,216
60,28,10320,216
52,19,10320,216
60,31,10560,216
52,20,10560,216
54,26,10560,216
60,34,10800,216
52,22,10800,216
54,26,10800,216
54,23,11040,216
52,19,11040,216
60,31,11040,216
52,19,11280,216
54,25,11280,216
60,32,11280,216
54,34,11520,216
60,39,11520,216
52,27,11520,216
54,27,11760,216
60,35,11760,216
52,23,11760,216
54,27,12000,216
60,35,12000,216
52,22,12000,216
52,22,12240,216
60,34,12240,216
54,26,12240,216
51,26,12480,216
60,32,12480,216
54,26,12480,216
51,25,12720,216
54,25,12720,216
60,32,12720,216
51,20,12960,216
54,20,12960,216
60,27,12960,216
54,20,13200,216
60,26,13200,216
51,20,13200,216
54,29,13440,216
50,25,13440,216
60,37,13440,216
50,20,13680,216
54,26,13680,216
60,32,13680,216
54,26,13920,216
60,32,13920,216
50,20,13920,216
60,32,14160,216
50,20,14160,216
54,26,14160,216
60,32,14400,216
50,20,14400,216
54,26,14400,216
50,20,14640,216
54,26,14640,216
60,32,14640,216
50,17,14880,216
60,26,14880,216
54,20,14880,216
54,20,15120,216
50,17,15120,216
60,26,15120,216
53,25,15360,216
50,21,15360,216
60,31,15360,216
60,27,15600,216
53,22,15600,216
50,18,15600,216
50,18,15840,216
53,22,15840,216
60,27,15840,216
50,18,16080,216
60,27,16080,216
53,22,16080,216
50,18,16320,216
53,22,16320,216
59,27,16320,216
50,18,16560,216
53,22,16560,216
59,27,16560,216
53,19,16800,216
59,24,16800,216
50,16,16800,216
53,19,17040,216
59,24,17040,216
50,16,17040,216
52,29,17280,216
59,29,17280,216
48,24,17280,216
48,23,17520,216
59,28,17520,216
52,28,17520,216
48,26,17760,216
57,32,17760,216
52,32,17760,216
57,35,18000,216
48,27,18000,216
52,35,18000,216
48,27,18240,216
52,35,18240,216
57,35,18240,216
48,26,18480,216
57,32,18480,216
52,32,18480,216
52,26,18720,216
48,20,18720,216
57,26,18720,216
52,25,18960,216
48,20,18960,216
57,25,18960,216
52,29,19200,216
57,29,19200,216
47,24,19200,216
57,27,19440,216
47,22,19440,216
52,27,19440,216
57,27,19680,216
47,22,19680,216
51,27,19680,216
47,22,19920,216
51,27,19920,216
57,27,19920,216
48,22,20160,216
57,27,20160,216
52,27,20160,216
48,22,20400,216
52,27,20400,216
57,27,20400,216
48,19,20640,216
52,23,20640,216
57,23,20640,216
48,19,20880,216
52,23,20880,216
57,23,20880,216
47,24,21120,216
51,29,21120,216
57,29,21120,216
47,22,21360,216
51,27,21360,216
57,27,21360,216
47,22,21600,216
51,27,21600,216
57,27,21600,216
47,22,21840,216
51,27,21840,216
57,27,21840,216
48,22,22080,216
52,27,22080,216
57,27,22080,216
48,22,22320,216
52,27,22320,216
57,27,22320,216
48,19,22560,216
52,23,22560,216
57,23,22560,216
48,19,22800,216
52,23,22800,216
57,23,22800,216
47,24,23040,480
51,29,23040,480
57,29,23040,480
55,21,24960,216
59,25,24960,216
64,31,24960,216
55,18,25200,216
59,22,25200,216
64,27,25200,216
55,18,25440,216
59,22,25440,216
64,29,25440,216
55,19,25680,216
59,24,25680,216
64,29,25680,216
55,19,25920,216
59,25,25920,216
64,31,25920,216
55,20,26160,216
59,26,26160,216
64,32,26160,216
55,20,26400,216
59,24,26400,216
64,32,26400,216
55,20,26640,216
59,26,26640,216
64,33,26640,216
54,23,26880,216
64,35,26880,216
57,28,26880,216
54,20,27120,216
57,25,27120,216
64,32,27120,216
54,21,27360,216
64,33,27360,216
57,26,27360,216
57,27,27600,216
54,22,27600,216
64,35,27600,216
57,28,27840,216
53,22,27840,216
63,35,27840,216
63,38,28080,216
57,29,28080,216
53,24,28080,216
53,24,28320,216
57,27,28320,216
63,38,28320,216
53,25,28560,216
57,30,28560,216
63,38,28560,216
53,30,28800,216
56,37,28800,216
63,45,28800,216
53,26,29040,216
63,40,29040,216
56,33,29040,216
62,41,29280,216
56,34,29280,216
53,27,29280,216
53,27,29520,216
56,36,29520,216
62,41,29520,216
56,36,29760,216
62,44,29760,216
52,29,29760,216
52,29,30000,216
62,45,30000,216
56,37,30000,216
52,27,30240,216
62,40,30240,216
56,31,30240,216
52,27,30480,216
56,31,30480,216
62,41,30480,216
52,42,30720,216
55,42,30720,216
62,50,30720,216
52,36,30960,216
55,36,30960,216
62,42,30960,216
52,38,31200,216
55,38,31200,216
61,45,31200,216
52,46,31440,216
55,46,31440,216
61,55,31440,216
49,46,31680,216
52,46,31680,216
58,56,31680,216
49,43,31920,216
52,43,31920,216
58,52,31920,216
48,43,32160,216
52,43,32160,216
57,52,32160,216
48,45,32400,216
52,45,32400,216
57,54,32400,216
35,57,32640,216
47,69,32640,216
69,54,32880,216
66,54,32880,216
60,45,32880,216
57,45,32880,216
57,45,33120,216
60,45,33120,216
66,54,33120,216
69,54,33120,216
57,45,33360,216
60,45,33360,216
66,54,33360,216
69,54,33360,216
66,57,33600,216
63,57,33600,216
59,47,33600,216
55,47,33600,216
64,49,33840,216
59,41,33840,216
55,41,33840,216
55,41,34080,216
59,41,34080,216
64,49,34080,216
55,41,34320,216
59,41,34320,216
64,49,34320,216
64,53,34560,216
60,44,34560,216
57,44,34560,216
57,38,34800,216
60,38,34800,216
64,46,34800,216
45,44,35040,216
60,44,35280,216
54,37,35280,216
52,37,35280,216
47,38,35520,216
52,38,35520,216
59,46,35520,216
47,33,35760,216
52,33,35760,216
59,38,35760,216
48,33,36000,216
52,33,36000,216
57,38,36000,216
48,29,36240,216
52,29,36240,216
57,36,36240,216
47,24,36480,216
52,29,36480,216
59,29,36480,216
47,22,36720,216
52,27,36720,216
59,27,36720,216
47,22,36960,216
59,27,36960,216
52,27,36964,216
47,22,37200,216
52,27,37200,216
59,27,37200,216
48,22,37440,216
52,27,37440,216
57,27,37440,216
48,22,37680,216
52,27,37680,216
57,27,37680,216
48,19,37920,216
52,23,37920,216
57,23,37920,216
48,19,38160,216
52,23,38160,216
57,23,38160,216
47,24,38400,216
52,29,38400,216
59,29,38400,216
47,22,38640,216
52,27,38640,216
59,27,38640,216
47,22,38880,216
59,27,38880,216
52,27,38884,216
47,22,39120,216
52,27,39120,216
59,27,39120,216
47,22,39360,216
51,27,39360,216
59,27,39360,216
47,22,39600,216
51,27,39600,216
59,27,39600,216
47,19,39840,216
51,23,39840,216
57,23,39840,216
47,19,40080,216
51,23,40080,216
57,23,40080,216
48,32,40320,216
55,32,40320,216
48,29,40560,216
55,29,40560,216
48,29,40800,216
55,29,40800,216
48,28,41040,216
55,28,41040,216
48,28,41280,216
58,28,41280,216
48,28,41520,216
58,28,41520,216
48,19,41760,216
52,23,41760,216
57,23,41760,216
48,19,42000,216
52,23,42000,216
57,23,42000,216
47,24,42240,216
52,29,42240,216
57,29,42240,216
47,22,42480,216
52,27,42480,216
57,27,42480,216
47,22,42720,216
56,27,42720,216
52,27,42724,216
47,22,42960,216
52,27,42960,216
56,27,42960,216
47,22,43200,216
52,27,43200,216
55,27,43200,216
47,22,43440,216
52,27,43440,216
55,27,43440,216
47,19,43680,216
52,23,43680,216
55,23,43680,216
47,19,43920,216
52,23,43920,216
55,23,43920,216
46,24,44160,960
48,29,44160,960
55,29,44160,960
35,19,46080,960
47,23,46080,960
35,19,47040,960
42,23,47040,960
47,23,47040,960
28,19,48000,1920
40,23,48000,1920
