note,velocity,position,duration
73,54,11520,120
70,51,11640,60
72,51,11880,120
73,54,12000,120
70,51,12120,60
73,54,12480,120
70,51,12600,60
72,51,12840,120
73,54,12960,120
70,51,13080,60
73,54,13440,120
70,51,13560,60
72,61,13800,120
73,66,13920,120
82,64,14040,60
81,61,14400,120
72,57,14520,60
73,49,14760,120
75,52,14880,120
72,49,15000,60
78,55,15360,120
72,49,15480,60
73,49,15720,120
75,52,15840,120
72,49,15960,60
78,55,16320,120
72,49,16440,60
73,49,16680,120
75,52,16800,120
72,49,16920,60
78,58,17280,120
72,51,17400,60
73,65,17640,120
75,71,17760,120
84,64,17880,60
84,61,18240,240
73,57,18360,60
75,49,18600,120
82,52,18720,240
77,52,18720,120
73,49,18840,60
85,82,19200,120
73,69,19200,120
84,75,19320,60
79,63,19320,60
73,61,19560,120
82,72,19560,120
81,78,19680,120
77,64,19680,120
72,57,19800,60
84,68,19800,60
66,46,20160,120
78,55,20160,120
72,42,20280,60
77,50,20280,60
66,40,20520,120
75,49,20520,120
73,52,20640,120
70,44,20640,120
65,40,20760,60
77,49,20760,60
73,69,21120,120
85,82,21120,120
84,75,21240,60
79,63,21240,60
73,61,21480,120
82,72,21480,120
77,64,21600,120
81,78,21600,120
72,57,21720,60
84,68,21720,60
66,46,22080,120
78,55,22080,120
77,50,22200,60
72,42,22200,60
66,40,22440,120
75,49,22440,120
74,52,22560,120
70,44,22560,120
77,49,22680,60
73,40,22680,60
65,40,22680,60
82,75,23040,120
77,75,23040,120
89,89,23040,120
88,83,23160,60
76,70,23160,60
73,62,23400,120
85,72,23400,120
76,68,23520,120
84,80,23520,120
72,68,23520,120
82,75,23640,60
70,62,23640,60
70,68,24000,120
82,80,24000,120
80,73,24120,60
76,61,24120,60
67,57,24360,120
79,68,24360,120
75,59,24480,120
78,69,24480,120
66,55,24600,60
72,64,24600,60
68,57,24960,120
80,68,24960,120
74,52,25080,60
79,62,25080,60
65,51,25320,120
77,61,25320,120
72,53,25440,120
75,63,25440,120
63,44,25560,60
67,52,25560,60
72,57,25920,120
75,67,25920,120
66,59,26040,60
63,49,26040,60
75,62,26400,120
72,53,26400,120
63,46,26520,60
65,56,26520,60
73,68,26880,120
61,40,27000,120
65,40,27000,120
70,59,27000,120
72,67,27240,120
73,68,27360,120
61,40,27480,120
65,40,27480,120
70,60,27480,120
73,68,27840,120
65,40,27960,120
61,40,27960,120
70,60,27960,120
72,68,28200,120
73,68,28320,120
61,40,28440,120
65,40,28440,120
70,60,28440,120
73,68,28800,120
61,46,28920,120
65,46,28920,120
70,67,28920,120
72,73,29160,120
73,84,29280,120
70,52,29400,120
77,52,29400,120
82,76,29400,120
81,76,29760,120
69,46,29880,120
72,67,29880,120
73,67,30120,120
75,68,30240,120
66,40,30360,120
69,40,30360,120
72,60,30360,120
78,71,30720,120
69,40,30840,120
66,40,30840,120
72,59,30840,120
73,67,31080,120
75,68,31200,120
66,40,31320,120
69,40,31320,120
72,60,31320,120
78,71,31680,120
66,40,31800,120
69,40,31800,120
72,59,31800,120
73,67,32040,120
75,68,32160,120
66,40,32280,120
69,40,32280,120
72,60,32280,120
78,74,32640,120
66,42,32760,120
69,42,32760,120
72,63,32760,120
73,78,33000,120
75,88,33120,120
72,54,33240,120
78,54,33240,120
84,78,33240,120
84,73,33600,120
72,50,33720,120
73,72,33720,120
75,64,33960,120
77,69,34080,120
70,44,34200,120
82,69,34200,120
73,44,34200,120
85,85,34560,120
73,71,34680,120
84,84,34680,120
79,71,34680,120
82,80,34920,120
81,86,35040,120
77,67,35160,120
72,67,35160,120
84,80,35160,120
78,67,35520,120
66,55,35640,120
77,66,35640,120
72,55,35640,120
75,64,35880,120
74,69,36000,120
70,53,36120,120
77,64,36120,120
73,53,36120,120
65,53,36120,120
85,85,36480,120
73,71,36600,120
84,84,36600,120
79,71,36600,120
82,80,36840,120
81,86,36960,120
77,67,37080,120
72,67,37080,120
84,80,37080,120
83,84,37440,120
71,65,37560,120
82,77,37560,120
77,65,37560,120
80,80,37800,120
79,86,37920,120
78,63,38040,120
70,63,38040,120
82,75,38040,120
78,83,38400,720
69,83,38400,240
81,99,38400,240
70,66,38640,240
82,79,38640,240
69,75,38880,240
81,89,38880,240
82,79,39120,240
70,66,39120,240
77,66,39120,240
69,78,39360,240
77,78,39360,240
81,92,39360,240
75,67,39600,480
70,67,39600,240
82,80,39600,240
69,74,39840,240
81,89,39840,240
70,67,40080,240
73,67,40080,240
82,80,40080,240
66,84,40320,120
61,79,40320,120
73,100,40320,120
60,65,40560,120
66,73,40560,120
72,86,40560,120
70,66,41040,240
61,56,41040,240
66,58,41040,240
56,56,41040,240
56,58,41280,480
70,68,41280,480
62,58,41280,480
66,56,41280,480
68,62,41760,360
63,53,41760,360
66,62,41760,360
56,53,41760,360
53,49,42120,120
53,41,42240,960
61,41,42240,960
68,49,42240,960
56,41,43200,480
61,41,43200,480
65,49,43200,480
66,44,43680,480
58,37,43680,480
63,37,43680,480
54,31,44160,1920
60,37,44160,1920
65,46,44160,960
63,41,45120,960
53,41,45960,600
61,41,46020,1020
68,49,46080,480
56,41,46560,480
65,49,46560,480
66,49,47040,240
58,41,47040,240
61,41,47040,480
56,39,47280,240
65,47,47280,240
63,41,47520,480
60,37,47520,240
68,44,47520,240
58,35,47760,240
66,41,47760,240
54,29,48000,1920
60,36,48000,1920
65,45,48000,960
63,41,48960,960
68,52,49920,480
61,40,49920,960
53,41,49920,480
64,44,50400,480
70,51,50400,480
63,44,50880,480
72,52,50880,480
73,58,51360,360
66,49,51360,480
72,53,51720,120
75,60,51720,120
65,42,51840,480
73,47,51840,480
77,61,51840,480
64,44,52320,480
61,44,52320,480
70,51,52320,480
60,44,52800,420
63,44,52800,960
72,52,52800,420
58,56,53220,540
73,58,53280,360
75,60,53640,120
65,53,53760,480
72,53,53760,960
77,63,53760,480
75,60,54240,480
65,53,54240,960
61,53,54720,480
70,63,54720,480
73,63,54720,480
64,53,55200,360
68,53,55200,360
72,63,55200,360
65,57,55560,120
70,57,55560,120
59,51,55680,480
65,56,55680,480
68,61,55680,480
63,59,56160,360
54,47,56160,360
58,49,56160,360
66,59,56160,360
56,47,56520,120
61,56,56520,120
65,56,56520,120
63,59,56640,720
58,49,56640,480
61,59,56640,480
54,47,57120,360
60,53,57120,360
64,60,57360,120
65,55,57480,1080
73,60,57540,1020
80,72,57600,960
68,49,58560,480
73,49,58560,480
77,60,58560,480
65,34,59040,240
68,39,59040,240
70,41,59280,240
75,41,59280,240
78,55,59280,240
77,65,59520,720
66,38,59520,960
72,45,59520,960
75,55,60240,240
70,58,60480,240
68,52,60720,240
61,61,60960,240
63,55,61200,120
65,62,61320,120
65,55,61440,480
73,57,61440,960
80,68,61440,480
68,49,61920,480
77,62,61920,480
78,66,62400,240
73,57,62400,480
70,55,62400,240
68,46,62640,240
77,55,62640,240
68,48,62880,160
77,57,62880,160
72,46,63040,160
80,55,63040,160
70,46,63200,160
78,55,63200,160
77,61,63360,720
66,32,63360,960
72,38,63360,960
75,60,64080,240
70,60,64320,160
68,51,64480,160
70,51,64640,160
68,58,64800,160
61,53,64960,160
63,53,65120,160
68,59,65280,480
73,58,65280,960
80,73,65280,960
70,57,65760,480
82,68,65760,480
84,73,66240,480
80,61,66240,960
78,61,66240,960
72,61,66240,480
73,68,66720,360
85,75,66720,360
75,70,67080,120
87,73,67080,120
80,66,67200,960
77,66,67200,960
89,78,67200,480
82,73,67680,480
70,61,67680,480
78,66,68160,480
80,66,68160,480
72,66,68160,480
84,78,68160,480
73,66,68640,360
85,79,68640,360
75,64,69000,120
87,77,69000,120
84,66,69120,960
87,74,69120,960
77,70,69120,480
89,81,69120,480
78,66,69600,720
90,78,69600,720
82,74,70080,960
85,74,70080,960
89,77,70320,240
77,64,70320,240
76,63,70560,240
88,75,70560,240
77,63,70800,240
89,75,70800,240
80,72,71040,480
90,71,71040,960
92,85,71040,480
87,57,71040,960
82,70,71520,720
94,84,71520,720
89,81,72000,480
92,80,72240,240
80,67,72240,240
78,70,72480,360
90,84,72480,360
82,62,72480,480
89,78,72840,120
77,66,72840,120
82,73,72960,480
80,73,72960,240
92,86,72960,240
78,60,73200,240
90,72,73200,240
89,72,73440,240
82,54,73440,480
77,57,73440,240
74,60,73680,240
86,72,73680,240
82,54,73920,480
89,81,73920,240
77,69,73920,240
87,71,74160,240
75,60,74160,240
76,55,74400,480
82,72,74400,240
70,61,74400,240
85,67,74640,240
73,56,74640,240
70,66,74880,240
77,61,74880,480
82,80,74880,240
80,73,75120,240
68,61,75120,240
73,73,75360,480
66,61,75360,240
61,61,75360,240
66,62,75600,240
78,74,75600,240
61,67,75840,480
75,80,75840,480
66,67,75840,480
73,67,75840,480
65,63,76320,240
77,75,76320,240
72,51,76320,480
66,60,76560,240
78,70,76560,240
73,47,76800,480
70,62,76800,240
82,77,76800,240
69,51,77040,240
81,68,77040,240
80,77,77280,160
73,53,77280,160
68,64,77280,160
73,70,77440,320
61,60,77440,160
66,60,77600,160
78,70,77600,160
73,66,77760,480
75,80,77760,240
66,66,77760,480
63,66,77760,240
65,57,78000,120
77,68,78000,120
63,53,78120,120
75,63,78120,120
62,61,78240,120
72,61,78240,480
74,73,78240,120
63,57,78360,120
75,68,78360,120
65,61,78480,120
77,73,78480,120
66,58,78600,120
78,69,78600,120
73,67,78720,320
67,70,78720,160
79,83,78720,160
80,79,78880,160
68,66,78880,160
77,69,79040,160
89,77,79040,160
78,70,79200,320
75,70,79200,160
87,82,79200,160
73,62,79360,160
85,73,79360,160
73,64,79520,160
78,80,79520,160
66,68,79520,160
73,69,79680,480
75,82,79680,900
63,69,79680,480
68,69,79680,720
66,61,80160,240
72,61,80160,240
73,73,80580,60
65,72,80640,160
73,85,80640,160
63,62,80800,80
70,73,80800,80
63,62,80960,80
70,73,80960,80
63,62,81120,160
70,75,81120,160
68,71,81280,80
72,62,81440,80
78,74,81440,80
72,63,81600,160
78,75,81600,160
73,62,81760,80
77,74,81760,80
75,62,81920,80
82,74,81920,80
75,64,82080,160
82,78,82080,160
80,73,82240,80
90,73,82400,80
84,62,82400,80
84,64,82560,160
90,78,82560,160
85,62,82720,80
89,73,82720,80
82,73,82880,80
75,62,82880,80
75,62,83040,160
82,75,83040,160
80,72,83200,80
72,62,83360,80
78,74,83360,80
78,75,83520,160
72,62,83520,160
73,60,83680,80
77,71,83680,80
70,74,83840,80
63,62,83840,80
63,64,84000,160
70,78,84000,160
68,74,84160,80
60,62,84320,80
66,74,84320,80
60,64,84480,160
66,78,84480,160
65,67,84640,80
61,56,84640,80
64,49,84800,80
69,59,84800,80
64,51,84960,160
69,62,84960,160
63,49,85120,80
68,58,85120,80
72,44,85280,80
78,52,85280,80
72,46,85440,160
78,55,85440,160
73,44,85600,80
77,52,85600,80
81,52,85760,80
76,44,85760,80
76,46,85920,160
81,55,85920,160
75,41,86080,80
80,51,86080,80
84,39,86240,80
90,46,86240,80
84,40,86400,160
90,49,86400,160
85,39,86560,80
89,46,86560,80
76,47,86720,80
81,55,86720,80
76,49,86880,160
81,59,86880,160
75,45,87040,80
80,56,87040,80
72,47,87200,80
78,56,87200,80
72,49,87360,160
78,59,87360,160
73,47,87520,80
77,55,87520,80
64,45,87680,80
69,54,87680,80
64,49,87840,160
69,59,87840,160
63,45,88000,80
68,56,88000,80
63,52,88160,80
60,52,88160,80
66,62,88160,80
63,49,88320,160
60,49,88320,160
66,59,88320,160
64,42,88480,80
60,41,88480,80
67,49,88480,80
72,56,88640,80
62,49,88640,80
66,47,88640,80
62,49,88800,160
66,49,88800,160
72,59,88800,160
62,42,88960,80
67,41,88960,80
71,48,88960,80
65,47,89120,80
67,47,89120,80
71,47,89120,80
77,56,89120,80
71,49,89280,160
65,49,89280,160
67,49,89280,160
77,59,89280,160
67,46,89440,80
72,44,89440,80
76,52,89440,80
84,56,89600,80
74,49,89600,80
78,47,89600,80
72,49,89600,80
72,49,89760,160
84,59,89760,160
74,49,89760,160
78,49,89760,160
71,46,89920,80
79,41,89920,80
83,51,89920,80
77,49,90080,80
79,49,90080,80
83,47,90080,80
89,55,90080,80
77,49,90240,160
79,49,90240,160
83,49,90240,160
89,59,90240,160
74,63,90400,160
70,45,90400,160
71,66,90560,160
80,80,90560,160
73,68,90720,160
77,74,90720,160
74,71,90880,160
83,84,90880,160
76,66,91040,160
80,79,91040,160
77,74,91200,160
86,89,91200,160
83,85,91360,160
79,72,91360,160
89,92,91520,160
80,78,91520,160
82,73,91680,160
86,86,91680,160
83,79,91840,160
92,94,91840,160
83,77,92000,160
95,90,92000,160
84,85,92160,160
96,101,92160,160
60,64,92320,160
67,64,92320,160
72,77,92320,160
67,64,92480,160
60,64,92480,160
72,77,92480,160
60,55,92640,160
68,55,92640,160
72,77,92640,160
60,63,92800,160
68,63,92800,160
72,75,92800,160
60,63,92960,160
68,63,92960,160
72,75,92960,160
72,80,93120,160
60,57,93120,160
68,57,93120,160
60,64,93280,160
68,64,93280,160
72,77,93280,160
60,64,93440,160
68,64,93440,160
72,77,93440,160
60,68,93600,160
68,68,93600,160
72,81,93600,160
72,79,93760,160
60,67,93760,160
68,67,93760,160
60,67,93920,160
68,67,93920,160
72,79,93920,160
60,67,94080,80
68,67,94080,80
72,80,94080,80
60,68,94240,80
69,68,94240,80
72,81,94240,80
60,69,94400,80
69,69,94400,80
72,82,94400,80
69,71,94560,80
60,71,94560,80
72,83,94560,80
61,71,94720,80
69,71,94720,80
73,84,94720,80
61,71,94880,80
69,71,94880,80
73,85,94880,80
61,72,95040,80
69,72,95040,80
73,86,95040,80
73,88,95200,80
61,73,95200,80
69,73,95200,80
61,75,95360,80
69,75,95360,80
73,90,95360,80
61,77,95520,80
69,77,95520,80
73,91,95520,80
61,78,95680,80
68,78,95680,80
73,92,95680,80
73,93,95840,80
61,79,95840,80
67,79,95840,80
61,73,96000,80
68,86,96000,80
73,102,96000,80
65,68,96160,160
68,80,96160,160
77,95,96160,160
65,68,96320,160
68,80,96320,160
77,95,96320,160
65,72,96480,160
68,85,96480,160
77,101,96480,160
75,95,96640,160
63,68,96640,160
61,68,96800,160
73,95,96800,160
65,68,97120,160
70,80,97120,160
77,95,97120,160
65,68,97280,160
70,80,97280,160
77,95,97280,160
65,72,97440,160
70,85,97440,160
77,101,97440,160
75,95,97600,160
63,68,97600,160
61,68,97760,160
73,95,97760,160
65,68,98080,160
68,80,98080,160
77,95,98080,160
65,68,98240,160
68,80,98240,160
77,95,98240,160
65,72,98400,160
68,85,98400,160
77,101,98400,160
75,95,98560,160
63,68,98560,160
61,68,98720,160
73,95,98720,160
65,68,99040,160
67,80,99040,160
77,95,99040,160
65,68,99200,160
67,80,99200,160
77,95,99200,160
65,72,99360,160
67,85,99360,160
77,101,99360,160
75,95,99520,160
63,68,99520,160
61,68,99680,160
73,95,99680,160
51,84,99840,1920
55,84,99840,1920
61,95,99840,1920
63,101,99840,1920
54,80,101760,1920
60,80,101760,1920
65,95,101760,1920
73,54,107520,120
70,51,107640,60
72,51,107880,120
73,54,108000,120
70,51,108120,60
73,54,108480,120
70,51,108600,60
72,51,108840,120
73,54,108960,120
70,51,109080,60
73,54,109440,120
70,51,109560,60
72,61,109800,120
73,66,109920,120
82,64,110040,60
81,64,110400,120
72,59,110520,60
73,51,110760,120
75,54,110880,120
72,51,111000,60
78,57,111360,120
72,51,111480,60
73,51,111720,120
75,54,111840,120
72,51,111960,60
78,57,112320,120
72,51,112440,60
73,51,112680,120
75,54,112800,120
72,51,112920,60
78,60,113280,120
72,53,113400,60
73,65,113640,120
75,71,113760,120
84,64,113880,60
84,61,114240,240
73,57,114360,60
75,49,114600,120
82,52,114720,240
77,52,114720,120
73,49,114840,60
73,69,115200,120
85,82,115200,120
84,75,115320,60
79,63,115320,60
73,61,115560,120
82,72,115560,120
81,78,115680,120
77,64,115680,120
72,57,115800,60
84,68,115800,60
66,46,116160,120
78,55,116160,120
77,50,116280,60
72,42,116280,60
66,40,116520,120
75,49,116520,120
73,52,116640,120
70,44,116640,120
65,40,116760,60
77,49,116760,60
73,69,117120,120
85,82,117120,120
84,75,117240,60
79,63,117240,60
73,61,117480,120
82,72,117480,120
81,78,117600,120
77,64,117600,120
72,57,117720,60
84,68,117720,60
66,46,118080,120
78,55,118080,120
77,50,118200,60
72,42,118200,60
66,40,118440,120
75,49,118440,120
74,52,118560,120
70,44,118560,120
73,40,118680,60
65,40,118680,60
77,49,118680,60
82,75,119040,120
77,75,119040,120
89,89,119040,120
88,83,119160,60
76,70,119160,60
73,62,119400,120
85,75,119400,120
75,68,119520,120
84,80,119520,120
72,68,119520,120
70,62,119640,60
82,75,119640,60
70,68,120000,120
82,80,120000,120
80,73,120120,60
76,61,120120,60
67,57,120360,120
79,68,120360,120
75,59,120480,120
78,69,120480,120
66,53,120600,60
72,62,120600,60
68,57,120960,120
80,68,120960,120
79,62,121080,60
74,52,121080,60
65,51,121320,120
77,61,121320,120
72,53,121440,120
75,63,121440,120
63,44,121560,60
67,52,121560,60
72,57,121920,120
75,67,121920,120
66,59,122040,60
63,49,122040,60
72,53,122400,120
75,62,122400,120
63,46,122520,60
65,56,122520,60
73,68,122880,120
61,40,123000,120
65,40,123000,120
70,59,123000,120
72,67,123240,120
73,68,123360,120
61,40,123480,120
65,40,123480,120
70,60,123480,120
73,68,123840,120
61,40,123960,120
65,40,123960,120
70,60,123960,120
72,68,124200,120
73,68,124320,120
61,40,124440,120
65,40,124440,120
70,60,124440,120
73,68,124800,120
61,46,124920,120
65,46,124920,120
70,67,124920,120
72,73,125160,120
73,84,125280,120
70,52,125400,120
77,52,125400,120
82,76,125400,120
81,76,125760,120
69,46,125880,120
72,67,125880,120
73,67,126120,120
75,68,126240,120
66,40,126360,120
69,40,126360,120
72,60,126360,120
78,71,126720,120
66,40,126840,120
69,40,126840,120
72,59,126840,120
73,67,127080,120
75,68,127200,120
66,40,127320,120
69,40,127320,120
72,60,127320,120
78,71,127680,120
66,40,127800,120
69,40,127800,120
72,59,127800,120
73,67,128040,120
75,68,128160,120
66,40,128280,120
69,40,128280,120
72,60,128280,120
78,74,128640,120
66,42,128760,120
69,42,128760,120
72,63,128760,120
73,82,129000,120
75,88,129120,120
72,54,129240,120
78,54,129240,120
84,78,129240,120
84,73,129600,120
72,50,129720,120
73,72,129720,120
75,64,129960,120
77,69,130080,120
70,44,130200,120
82,69,130200,120
73,44,130200,120
85,85,130560,120
73,71,130680,120
84,84,130680,120
79,71,130680,120
82,80,130920,120
81,86,131040,120
77,67,131160,120
72,67,131160,120
84,80,131160,120
78,67,131520,120
66,55,131640,120
77,66,131640,120
72,55,131640,120
75,64,131880,120
74,69,132000,120
70,53,132120,120
73,53,132120,120
65,53,132120,120
77,64,132120,120
85,85,132480,120
73,71,132600,120
84,84,132600,120
79,71,132600,120
82,80,132840,120
81,86,132960,120
77,67,133080,120
72,67,133080,120
84,80,133080,120
83,84,133440,120
71,65,133560,120
82,77,133560,120
77,65,133560,120
80,80,133800,120
79,86,133920,120
78,63,134040,120
70,63,134040,120
82,75,134040,120
78,83,134400,720
69,83,134400,240
81,99,134400,240
70,66,134640,240
82,79,134640,240
69,75,134880,240
81,89,134880,240
70,66,135120,240
77,66,135120,240
82,79,135120,240
69,78,135360,240
77,78,135360,240
81,92,135360,240
75,67,135600,480
70,67,135600,240
82,80,135600,240
69,74,135840,240
81,89,135840,240
70,67,136080,240
73,67,136080,240
82,80,136080,240
61,79,136320,120
66,84,136320,120
73,100,136320,120
60,66,136560,120
66,73,136560,120
72,86,136560,120
56,56,137040,240
61,56,137040,240
66,58,137040,240
70,66,137040,240
56,58,137280,480
62,58,137280,480
66,56,137280,480
70,68,137280,480
56,53,137760,360
63,53,137760,360
66,62,137760,360
68,62,137760,360
53,49,138120,120
53,41,138240,960
61,41,138240,960
68,49,138240,960
56,41,139200,480
61,41,139200,480
65,49,139200,480
58,37,139680,480
63,37,139680,480
66,44,139680,480
54,34,140160,1920
60,36,140160,1920
65,47,140160,960
63,41,141120,960
53,41,141960,600
61,41,142020,1020
68,49,142080,480
56,41,142560,480
65,49,142560,480
58,41,143040,240
61,41,143040,480
66,49,143040,240
56,39,143280,240
65,47,143280,240
63,41,143520,480
60,37,143520,240
68,44,143520,240
58,35,143760,240
66,41,143760,240
54,31,144000,1920
60,36,144000,1920
65,45,144000,960
63,41,144960,960
61,40,145920,960
53,41,145920,480
68,53,145920,480
64,44,146400,480
70,51,146400,480
63,44,146880,480
72,52,146880,480
73,58,147360,360
66,49,147360,480
72,53,147720,120
75,60,147720,120
65,43,147840,480
73,46,147840,480
77,61,147840,480
61,44,148320,480
64,44,148320,480
70,51,148320,480
60,44,148800,420
63,44,148800,960
72,52,148800,420
58,56,149220,540
73,58,149280,360
75,60,149640,120
65,53,149760,480
72,53,149760,960
77,63,149760,480
65,53,150240,960
75,60,150240,480
61,53,150720,480
70,63,150720,480
73,63,150720,480
64,53,151200,360
68,53,151200,360
72,63,151200,360
65,57,151560,120
70,57,151560,120
59,51,151680,480
65,56,151680,480
68,61,151680,480
54,49,152160,360
58,49,152160,360
63,59,152160,360
66,59,152160,360
56,47,152520,120
61,56,152520,120
65,56,152520,120
63,59,152640,720
58,49,152640,480
61,59,152640,480
54,47,153120,360
60,53,153120,360
64,60,153360,120
65,55,153480,1080
73,60,153540,1020
80,72,153600,960
68,49,154560,480
73,49,154560,480
77,60,154560,480
65,34,155040,240
68,39,155040,240
70,41,155280,240
75,41,155280,240
78,55,155280,240
77,68,155520,720
66,33,155520,960
72,42,155520,960
75,55,156240,240
70,58,156480,240
68,52,156720,240
61,61,156960,240
63,55,157200,120
65,62,157320,120
65,55,157440,480
73,57,157440,960
80,68,157440,480
68,49,157920,480
77,62,157920,480
73,57,158400,480
70,55,158400,240
78,66,158400,240
68,46,158640,240
77,55,158640,240
68,48,158880,160
77,57,158880,160
72,46,159040,160
80,55,159040,160
70,46,159200,160
78,55,159200,160
77,61,159360,720
66,32,159360,960
72,36,159360,960
75,60,160080,240
70,60,160320,160
68,51,160480,160
70,51,160640,160
68,58,160800,160
61,53,160960,160
63,53,161120,160
68,61,161280,480
73,58,161280,960
80,73,161280,960
70,57,161760,480
82,68,161760,480
80,61,162240,960
78,61,162240,960
72,61,162240,480
84,73,162240,480
73,68,162720,360
85,75,162720,360
75,70,163080,120
87,73,163080,120
80,66,163200,960
77,66,163200,960
89,78,163200,480
82,73,163680,480
70,61,163680,480
72,66,164160,480
84,78,164160,480
80,66,164160,480
78,66,164160,480
85,79,164640,360
73,66,164640,360
75,64,165000,120
87,77,165000,120
84,66,165120,960
87,74,165120,960
77,70,165120,480
89,81,165120,480
78,66,165600,720
90,78,165600,720
82,74,166080,960
85,74,166080,960
77,64,166320,240
89,77,166320,240
76,63,166560,240
88,75,166560,240
77,63,166800,240
89,75,166800,240
87,57,167040,960
90,71,167040,960
92,85,167040,480
80,72,167040,480
82,70,167520,720
94,84,167520,720
89,81,168000,480
80,67,168240,240
92,80,168240,240
78,70,168480,360
90,84,168480,360
82,62,168480,480
89,78,168840,120
77,66,168840,120
82,73,168960,480
80,73,168960,240
92,86,168960,240
78,60,169200,240
90,72,169200,240
82,53,169440,480
77,59,169440,240
89,72,169440,240
74,60,169680,240
86,72,169680,240
82,61,169920,480
89,81,169920,240
77,69,169920,240
87,71,170160,240
75,60,170160,240
76,53,170400,480
82,72,170400,240
70,61,170400,240
85,67,170640,240
73,56,170640,240
77,64,170880,480
70,66,170880,240
82,80,170880,240
80,73,171120,240
68,61,171120,240
73,73,171360,480
66,61,171360,240
61,61,171360,240
66,62,171600,240
78,74,171600,240
61,67,171840,480
66,67,171840,480
73,67,171840,480
75,80,171840,480
65,59,172320,240
77,75,172320,240
72,51,172320,480
66,60,172560,240
78,70,172560,240
73,46,172800,480
70,60,172800,240
82,77,172800,240
69,50,173040,240
81,70,173040,240
73,53,173280,160
68,64,173280,160
80,77,173280,160
73,70,173440,320
61,60,173440,160
66,60,173600,160
78,70,173600,160
63,66,173760,240
75,80,173760,240
66,66,173760,480
73,66,173760,480
65,57,174000,120
77,68,174000,120
63,53,174120,120
75,63,174120,120
72,61,174240,480
62,61,174240,120
74,73,174240,120
63,57,174360,120
75,68,174360,120
65,61,174480,120
77,73,174480,120
66,58,174600,120
78,69,174600,120
73,70,174720,320
67,70,174720,160
79,83,174720,160
68,66,174880,160
80,79,174880,160
77,69,175040,160
89,77,175040,160
78,70,175200,320
75,70,175200,160
87,82,175200,160
73,62,175360,160
85,73,175360,160
73,64,175520,160
78,80,175520,160
66,68,175520,160
75,82,175680,900
63,69,175680,480
68,69,175680,720
73,69,175680,480
66,61,176160,240
72,61,176160,240
73,73,176580,60
65,72,176640,160
73,85,176640,160
63,62,176800,80
70,73,176800,80
70,73,176960,80
63,62,176960,80
63,62,177120,160
70,75,177120,160
68,71,177280,80
72,62,177440,80
78,74,177440,80
72,63,177600,160
78,75,177600,160
73,62,177760,80
77,74,177760,80
75,62,177920,80
82,74,177920,80
82,78,178080,160
75,64,178080,160
80,73,178240,80
90,73,178400,80
84,62,178400,80
84,64,178560,160
90,78,178560,160
85,62,178720,80
89,73,178720,80
82,73,178880,80
75,62,178880,80
75,62,179040,160
82,75,179040,160
80,72,179200,80
72,62,179360,80
78,74,179360,80
78,75,179520,160
72,62,179520,160
73,60,179680,80
77,71,179680,80
70,74,179840,80
63,62,179840,80
63,64,180000,160
70,78,180000,160
68,74,180160,80
60,62,180320,80
66,74,180320,80
60,64,180480,160
66,78,180480,160
65,67,180640,80
61,56,180640,80
69,59,180800,80
64,49,180800,80
69,62,180960,160
64,51,180960,160
63,49,181120,80
68,58,181120,80
72,44,181280,80
78,52,181280,80
72,46,181440,160
78,55,181440,160
73,44,181600,80
77,52,181600,80
76,44,181760,80
81,52,181760,80
81,55,181920,160
76,46,181920,160
75,41,182080,80
80,51,182080,80
84,39,182240,80
90,46,182240,80
84,40,182400,160
90,49,182400,160
85,39,182560,80
89,46,182560,80
81,55,182720,80
76,47,182720,80
76,49,182880,160
81,59,182880,160
80,56,183040,80
75,45,183040,80
72,47,183200,80
78,56,183200,80
72,49,183360,160
78,59,183360,160
73,47,183520,80
77,55,183520,80
69,56,183680,80
64,47,183680,80
64,49,183840,160
69,59,183840,160
68,56,184000,80
63,45,184000,80
63,52,184160,80
60,52,184160,80
66,62,184160,80
63,49,184320,160
60,49,184320,160
66,59,184320,160
64,42,184480,80
60,41,184480,80
67,49,184480,80
62,49,184640,80
66,47,184640,80
72,56,184640,80
66,49,184800,160
72,59,184800,160
62,49,184800,160
62,42,184960,80
67,41,184960,80
71,48,184960,80
65,47,185120,80
67,47,185120,80
71,47,185120,80
77,56,185120,80
65,49,185280,160
67,49,185280,160
77,59,185280,160
71,49,185280,160
67,46,185440,80
72,44,185440,80
76,52,185440,80
84,56,185600,80
74,49,185600,80
78,47,185600,80
72,49,185600,80
72,49,185760,160
74,49,185760,160
78,49,185760,160
84,59,185760,160
79,41,185920,80
83,51,185920,80
71,46,185920,80
77,49,186080,80
79,49,186080,80
83,47,186080,80
89,55,186080,80
77,49,186240,160
79,49,186240,160
83,49,186240,160
89,59,186240,160
74,63,186400,160
70,45,186400,160
71,66,186560,160
80,80,186560,160
73,68,186720,160
77,74,186720,160
74,71,186880,160
83,84,186880,160
76,66,187040,160
80,79,187040,160
77,74,187200,160
86,89,187200,160
83,85,187360,160
79,72,187360,160
89,92,187520,160
80,78,187520,160
82,73,187680,160
86,86,187680,160
83,79,187840,160
92,94,187840,160
83,77,188000,160
95,90,188000,160
84,85,188160,160
96,101,188160,160
60,64,188320,160
67,64,188320,160
72,77,188320,160
67,64,188480,160
60,64,188480,160
72,77,188480,160
60,55,188640,160
68,55,188640,160
72,77,188640,160
60,63,188800,160
68,63,188800,160
72,75,188800,160
60,63,188960,160
68,63,188960,160
72,75,188960,160
72,80,189120,160
60,57,189120,160
68,57,189120,160
60,64,189280,160
68,64,189280,160
72,77,189280,160
60,64,189440,160
68,64,189440,160
72,77,189440,160
60,68,189600,160
68,68,189600,160
72,81,189600,160
72,79,189760,160
60,67,189760,160
68,67,189760,160
60,67,189920,160
68,67,189920,160
72,79,189920,160
60,67,190080,80
68,67,190080,80
72,80,190080,80
60,68,190240,80
69,68,190240,80
72,81,190240,80
60,69,190400,80
69,69,190400,80
72,82,190400,80
69,71,190560,80
60,71,190560,80
72,83,190560,80
61,71,190720,80
69,71,190720,80
73,84,190720,80
61,71,190880,80
69,71,190880,80
73,85,190880,80
61,72,191040,80
69,72,191040,80
73,86,191040,80
73,88,191200,80
61,73,191200,80
69,73,191200,80
69,75,191360,80
73,90,191360,80
61,75,191360,80
61,77,191520,80
73,91,191520,80
69,77,191520,80
61,78,191680,80
73,92,191680,80
68,78,191680,80
61,79,191840,80
67,79,191840,80
73,93,191840,80
61,73,192000,80
73,102,192000,80
68,86,192000,80
65,68,192160,160
68,80,192160,160
77,95,192160,160
65,68,192320,160
68,80,192320,160
77,95,192320,160
65,72,192480,160
68,85,192480,160
77,101,192480,160
63,68,192640,160
75,95,192640,160
73,95,192800,160
61,68,192800,160
65,68,193120,160
70,80,193120,160
77,95,193120,160
65,68,193280,160
70,80,193280,160
77,95,193280,160
65,72,193440,160
70,85,193440,160
77,101,193440,160
63,68,193600,160
75,95,193600,160
73,95,193760,160
61,68,193760,160
65,68,194080,160
68,80,194080,160
77,95,194080,160
65,68,194240,160
68,80,194240,160
77,95,194240,160
65,72,194400,160
68,85,194400,160
77,101,194400,160
63,68,194560,160
75,95,194560,160
73,95,194720,160
61,68,194720,160
65,68,195040,160
67,80,195040,160
77,95,195040,160
65,68,195200,160
67,80,195200,160
77,95,195200,160
65,72,195360,160
67,85,195360,160
77,101,195360,160
63,68,195520,160
75,95,195520,160
73,95,195680,160
61,68,195680,160
51,84,195840,1920
55,84,195840,1920
63,101,195840,1920
61,95,195840,1920
54,80,197760,1920
65,95,197760,1860
60,80,197760,1920
66,86,199620,60
54,79,199680,960
61,79,199680,960
66,93,199680,960
60,31,202560,960
62,32,202560,1320
69,47,202560,480
70,44,203040,480
59,39,203520,960
71,47,203520,360
62,40,203880,120
62,44,204000,480
62,41,210240,960
64,41,210240,1320
71,49,210240,480
72,47,210720,480
61,41,211200,1920
73,49,211200,360
65,44,211560,120
65,47,211680,1440
65,40,213120,360
61,39,213120,960
73,56,213120,360
66,55,213480,120
66,58,213600,480
66,51,214080,360
62,51,214080,960
74,61,214080,360
67,57,214440,120
67,60,214560,480
65,58,215040,960
67,58,215040,960
75,75,215040,730
74,68,215760,240
63,54,216000,480
67,58,216000,480
74,73,216000,370
72,51,216360,480
65,44,216480,480
70,61,216840,120
60,50,216960,960
63,58,216960,960
70,68,216960,370
68,55,217320,120
68,61,217440,170
72,62,217600,170
70,61,217760,170
59,49,217920,960
68,64,217920,490
67,58,218400,240
67,67,218640,240
79,70,218640,240
58,55,218880,120
70,64,218880,120
61,49,219000,120
69,58,219000,120
57,51,219240,120
67,61,219240,120
62,56,219360,120
66,67,219360,120
57,51,219480,120
69,61,219480,120
60,52,219720,120
72,63,219720,120
60,57,219840,120
72,68,219840,120
63,52,219960,120
71,63,219960,120
59,52,220200,120
69,62,220200,120
64,57,220320,120
68,68,220320,120
59,52,220440,120
71,62,220440,120
62,53,220680,120
74,64,220680,120
62,59,220800,120
74,70,220800,120
65,55,220920,120
73,64,220920,120
61,52,221160,120
71,62,221160,120
66,55,221280,160
70,64,221280,160
61,58,221440,160
73,68,221440,160
70,61,221600,160
73,72,221600,160
64,62,221760,160
76,75,221760,160
73,66,221920,160
76,78,221920,160
70,67,222080,160
82,81,222080,160
80,72,222240,160
85,86,222240,160
76,75,222400,160
88,84,222400,160
88,77,222560,160
100,86,222560,160
60,61,222720,960
64,69,222720,960
72,82,222720,730
58,52,223440,240
70,72,223440,240
58,64,223680,480
60,53,223680,960
65,56,223680,960
70,77,223680,480
56,55,224160,360
68,73,224160,360
56,49,224520,120
68,67,224520,120
61,58,224640,480
56,52,224640,360
64,61,224640,800
68,70,224640,360
55,58,225000,120
67,60,225000,120
55,58,225120,117
67,68,225120,170
53,44,225280,160
65,63,225280,170
52,30,225440,160
64,60,225440,160
55,45,225600,480
63,58,225600,960
67,71,225600,490
54,42,226080,240
66,62,226080,240
69,59,226320,240
81,68,226320,240
60,60,226560,120
72,70,226560,120
66,53,226680,120
71,63,226680,120
59,56,226920,120
69,67,226920,120
64,61,227040,120
68,73,227040,120
59,56,227160,120
71,67,227160,120
62,57,227400,120
74,69,227400,120
62,62,227520,120
74,74,227520,120
68,57,227640,120
73,69,227640,120
61,57,227880,120
71,68,227880,120
66,62,228000,120
70,74,228000,120
61,57,228120,120
73,68,228120,120
64,58,228360,120
76,70,228360,120
64,64,228480,120
76,77,228480,120
70,60,228600,120
75,70,228600,120
63,57,228840,120
73,68,228840,120
68,60,228960,160
72,70,228960,160
63,63,229120,160
75,74,229120,160
72,67,229280,160
75,79,229280,160
66,68,229440,160
78,82,229440,160
75,71,229600,160
78,85,229600,160
69,73,229760,160
81,89,229760,160
78,80,229920,160
81,94,229920,160
74,82,230080,160
86,97,230080,160
78,85,230240,160
90,104,230240,160
86,88,230400,120
91,104,230400,120
79,79,230520,120
82,93,230520,120
84,94,230760,120
81,80,230760,120
82,84,230880,120
86,100,230880,120
74,80,231000,120
79,94,231000,120
82,88,231360,120
86,104,231360,120
74,79,231480,120
79,93,231480,120
81,89,231720,120
78,75,231720,120
79,80,231840,120
82,94,231840,120
86,75,231960,120
91,89,231960,120
85,84,232320,120
89,101,232320,120
77,75,232440,120
82,90,232440,120
84,91,232680,120
81,77,232680,120
82,81,232800,120
85,96,232800,120
73,77,232920,120
77,91,232920,120
85,82,233280,120
89,99,233280,120
77,75,233400,120
82,90,233400,120
84,85,233640,120
81,72,233640,120
82,77,233760,120
85,91,233760,120
89,72,233880,120
94,85,233880,120
84,88,234240,120
89,104,234240,120
77,79,234360,120
80,93,234360,120
82,91,234600,120
79,77,234600,120
80,77,234720,120
84,96,234720,120
72,77,234840,120
77,91,234840,120
80,88,235200,120
84,104,235200,120
72,79,235320,120
77,93,235320,120
79,89,235560,120
76,75,235560,120
77,80,235680,120
80,94,235680,120
84,75,235800,120
89,89,235800,120
84,90,236160,120
88,107,236160,120
76,79,236280,120
80,93,236280,120
82,91,236520,120
79,77,236520,120
80,78,236640,120
84,94,236640,120
72,77,236760,120
76,91,236760,120
80,88,237120,120
84,104,237120,120
72,79,237240,120
76,93,237240,120
79,89,237480,120
76,75,237480,120
76,80,237600,120
80,94,237600,120
84,75,237720,120
88,89,237720,120
83,88,238080,120
88,104,238080,120
76,79,238200,120
79,93,238200,120
81,91,238440,120
78,77,238440,120
79,81,238560,120
83,96,238560,120
71,77,238680,120
76,91,238680,120
79,88,239040,120
83,104,239040,120
71,79,239160,120
76,93,239160,120
78,89,239400,120
75,75,239400,120
76,80,239520,120
79,94,239520,120
83,75,239640,120
88,89,239640,120
83,88,240000,120
86,104,240000,120
74,79,240120,120
79,93,240120,120
81,91,240360,120
78,77,240360,120
79,81,240480,120
83,96,240480,120
71,77,240600,120
74,91,240600,120
83,88,240960,120
86,104,240960,120
74,79,241080,120
79,93,241080,120
81,89,241320,120
78,75,241320,120
79,80,241440,120
83,94,241440,120
86,75,241560,120
91,89,241560,120
81,88,241920,120
86,104,241920,120
74,79,242040,120
78,93,242040,120
79,91,242280,120
76,77,242280,120
78,81,242400,120
81,96,242400,120
69,77,242520,120
74,91,242520,120
77,88,242880,120
81,104,242880,120
69,79,243000,120
74,93,243000,120
76,89,243240,120
73,75,243240,120
74,80,243360,120
77,94,243360,120
81,75,243480,120
86,89,243480,120
81,78,243840,160
84,78,243840,160
89,92,243840,160
78,86,244000,160
81,75,244160,160
84,90,244160,160
77,75,244160,160
77,83,244320,160
72,77,244320,160
72,77,244480,160
77,77,244480,160
81,91,244480,160
69,82,244640,160
69,78,244800,160
72,78,244800,160
77,92,244800,160
66,86,244960,160
69,71,245120,160
72,85,245120,160
65,71,245120,160
60,78,245280,160
57,69,245440,160
60,69,245440,160
65,81,245440,160
65,73,245600,160
53,73,245600,160
54,73,245760,120
66,86,245760,120
63,69,245880,120
61,68,246000,120
59,59,246120,120
66,57,246240,120
71,68,246240,120
59,52,246360,120
63,62,246360,120
61,55,246600,120
64,66,246600,120
66,69,246720,120
63,58,246720,120
75,67,246840,120
71,56,246840,120
75,60,247200,120
78,72,247200,120
66,55,247320,120
71,66,247320,120
70,59,247560,120
73,70,247560,120
71,62,247680,120
75,74,247680,120
83,70,247800,120
78,58,247800,120
83,66,248160,120
87,79,248160,120
75,62,248280,120
78,74,248280,120
76,64,248520,120
82,75,248520,120
78,68,248640,120
83,80,248640,120
90,75,248760,120
87,63,248760,120
79,74,249120,160
82,89,249120,160
79,67,249280,160
85,67,249280,160
91,79,249280,160
79,67,249440,160
85,67,249440,160
91,79,249440,160
79,72,249600,120
83,72,249600,120
91,85,249600,120
78,67,249720,120
90,79,249720,120
66,57,250080,120
71,68,250080,120
59,52,250200,120
63,62,250200,120
61,55,250440,120
64,66,250440,120
66,69,250560,120
63,58,250560,120
75,67,250680,120
71,56,250680,120
75,60,251040,120
78,72,251040,120
66,55,251160,120
71,66,251160,120
70,59,251400,120
73,70,251400,120
71,62,251520,120
75,74,251520,120
83,70,251640,120
78,58,251640,120
83,66,252000,120
87,79,252000,120
75,62,252120,120
78,74,252120,120
76,64,252360,120
82,75,252360,120
78,68,252480,120
83,80,252480,120
90,75,252600,120
87,63,252600,120
79,74,252960,160
82,89,252960,160
79,67,253120,160
85,67,253120,160
91,79,253120,160
79,67,253280,160
85,67,253280,160
91,79,253280,160
80,85,253440,160
84,85,253440,160
92,85,253440,160
81,80,253600,160
87,80,253600,160
93,80,253600,160
58,56,253760,160
70,66,253760,160
57,49,253920,160
69,58,253920,160
63,52,254080,160
66,61,254080,160
61,58,254240,160
73,70,254240,160
60,53,254400,160
72,63,254400,160
63,53,254560,160
66,63,254560,160
58,60,254720,160
70,72,254720,160
57,55,254880,160
69,64,254880,160
63,57,255040,160
66,68,255040,160
61,62,255200,160
73,74,255200,160
60,57,255360,160
72,68,255360,160
63,60,255520,160
66,71,255520,160
66,66,255680,160
78,79,255680,160
65,58,255840,160
77,70,255840,160
72,61,256000,160
75,72,256000,160
70,67,256160,160
82,80,256160,160
69,61,256320,160
81,73,256320,160
75,63,256480,160
78,75,256480,160
73,72,256640,160
85,85,256640,160
84,75,256800,160
72,63,256800,160
78,81,256960,160
75,68,256960,160
90,89,257120,320
78,74,257120,320
84,63,257440,160
89,75,257440,160
78,62,257600,160
88,74,257600,160
84,64,257760,160
87,77,257760,160
78,62,257920,160
86,73,257920,160
81,58,258080,160
85,70,258080,160
75,62,258240,160
84,73,258240,160
78,58,258400,160
83,68,258400,160
75,55,258560,160
82,66,258560,160
78,58,258720,160
81,69,258720,160
72,53,258880,160
80,63,258880,160
79,63,259040,160
75,53,259040,160
69,52,259200,160
78,62,259200,160
72,49,259360,160
77,59,259360,160
69,49,259520,160
76,59,259520,160
72,49,259680,160
75,59,259680,160
63,45,259840,160
74,53,259840,160
69,46,260000,160
73,53,260000,160
63,53,260160,160
72,53,260160,160
69,49,260320,160
71,49,260320,160
63,49,260480,160
74,49,260480,160
69,52,260640,160
72,52,260640,160
69,53,260800,160
79,53,260800,160
75,49,260960,100
77,49,260960,100
62,39,261060,60
62,41,261120,960
70,41,261120,960
77,49,261120,960
65,41,262080,480
70,41,262080,480
74,49,262080,480
67,37,262560,480
72,37,262560,480
75,44,262560,480
63,39,263040,1920
74,47,263040,960
72,41,264000,960
62,41,264960,480
70,41,264960,480
77,49,264960,480
70,41,265440,480
65,41,265440,480
74,49,265440,480
67,41,265920,240
70,41,265920,480
75,49,265920,240
65,39,266160,240
74,47,266160,240
71,37,266400,240
68,37,266400,240
77,44,266400,240
72,35,266640,240
67,35,266640,240
75,41,266640,240
63,31,266880,1920
69,36,266880,1920
74,45,266880,960
72,41,267840,960
70,40,268800,480
62,42,268800,480
77,53,268800,480
67,37,269280,480
70,40,269280,480
79,51,269280,480
69,44,269760,480
75,44,269760,960
81,52,269760,480
70,51,270240,360
82,58,270240,360
72,53,270600,120
81,53,270600,120
84,60,270600,120
74,48,270720,480
82,51,270720,480
86,61,270720,480
67,44,271200,480
70,44,271200,480
73,44,271200,480
79,51,271200,480
69,44,271680,420
72,44,271680,480
81,52,271680,420
67,56,272100,540
72,56,272130,30
82,58,272160,360
84,60,272520,120
74,53,272640,480
81,53,272640,480
86,63,272640,480
72,50,273120,480
81,53,273120,480
74,53,273120,480
84,60,273120,480
74,53,273600,480
70,53,273600,480
79,63,273600,480
82,63,273600,480
73,53,274080,360
77,53,274080,360
81,63,274080,360
67,54,274440,120
74,57,274440,120
79,57,274440,120
65,51,274560,480
67,51,274560,480
74,56,274560,480
77,61,274560,480
63,49,275040,360
67,49,275040,360
72,59,275040,360
75,59,275040,360
66,47,275400,120
70,56,275400,120
74,56,275400,120
60,52,275520,960
72,59,275520,960
67,49,275520,480
70,59,275520,480
65,45,276000,240
69,49,276000,240
63,43,276240,240
67,50,276240,240
62,45,276480,960
70,49,276480,960
77,64,276480,960
65,49,277440,480
70,49,277440,480
74,60,277440,480
62,34,277920,240
65,39,277920,240
67,41,278160,240
72,41,278160,240
75,55,278160,240
74,68,278400,720
63,35,278400,960
69,42,278400,960
72,55,279120,240
67,58,279360,240
65,52,279600,240
58,61,279840,240
60,55,280080,240
62,55,280320,480
70,54,280320,960
77,68,280320,480
65,49,280800,480
74,62,280800,480
70,57,281280,960
67,55,281280,240
75,66,281280,240
65,46,281520,240
74,55,281520,240
65,48,281760,160
74,57,281760,160
69,46,281920,160
77,55,281920,160
67,46,282080,160
75,55,282080,160
74,64,282240,720
63,42,282240,960
69,41,282240,960
72,58,282960,240
67,60,283200,160
65,51,283360,160
67,51,283520,160
65,58,283680,160
58,53,283840,160
60,53,284000,100
62,51,284100,540
70,61,284130,990
77,73,284160,480
67,57,284640,480
79,68,284640,480
77,61,285120,960
77,56,285120,960
75,56,285120,960
69,57,285120,480
81,73,285120,480
70,72,285600,360
82,75,285600,360
72,70,285960,120
84,73,285960,120
77,68,286080,480
74,66,286080,960
86,80,286080,480
79,73,286560,480
67,61,286560,480
69,66,287040,480
81,78,287040,480
77,66,287040,960
75,66,287040,960
82,81,287520,360
70,68,287520,360
72,64,287880,120
84,77,287880,120
81,66,288000,960
84,74,288000,960
74,73,288000,480
86,88,288000,480
75,78,288480,720
87,91,288480,720
79,74,288960,960
82,74,288960,960
74,67,289200,240
86,80,289200,240
73,66,289440,240
85,79,289440,240
74,66,289680,240
86,79,289680,240
81,57,289920,960
84,57,289920,960
87,71,289920,960
89,90,289920,480
77,72,289920,480
79,70,290400,720
91,84,290400,720
86,85,290880,480
77,64,291120,240
89,77,291120,240
75,70,291360,360
87,84,291360,360
79,62,291360,480
86,78,291720,120
74,66,291720,120
79,67,291840,480
77,74,291840,240
89,88,291840,240
75,62,292080,240
87,76,292080,240
79,59,292320,480
74,61,292320,240
86,73,292320,240
71,55,292560,240
83,68,292560,240
79,59,292800,480
86,79,292800,240
74,67,292800,240
84,69,293040,240
72,58,293040,240
73,57,293280,480
79,72,293280,240
67,61,293280,240
82,67,293520,480
70,56,293520,480
72,64,293760,480
75,64,293760,480
81,71,294000,480
69,57,294000,480
75,73,294240,480
70,61,294240,480
67,57,294480,480
79,72,294480,480
72,67,294720,480
75,80,294720,480
66,57,294960,480
78,71,294960,480
75,73,295200,480
69,59,295200,480
65,60,295440,480
77,70,295440,480
70,53,295680,240
70,56,295920,240
66,56,295920,240
78,72,295920,240
70,53,296160,240
67,64,296160,240
79,77,296160,240
65,56,296400,240
70,56,296400,240
77,72,296400,240
69,60,296640,240
72,69,296640,240
65,52,296880,240
68,55,296880,240
74,68,296880,240
63,59,297120,240
67,62,297120,240
75,70,297120,240
66,57,297360,240
69,68,297360,240
65,60,297600,240
70,69,297600,240
63,56,297840,240
66,56,297840,240
72,67,297840,240
62,54,298080,240
65,58,298080,240
74,70,298080,240
58,58,298320,180
61,58,298320,180
67,69,298320,180
58,50,298500,60
60,58,298560,960
58,58,298560,480
63,58,298560,960
70,69,298560,480
57,51,299040,480
69,61,299040,480
62,65,299520,160
70,77,299520,160
58,65,299526,160
61,62,299680,80
66,73,299680,80
61,62,299840,80
66,73,299840,80
61,62,300000,160
66,75,300000,160
60,61,300160,80
65,66,300160,80
69,62,300320,80
75,74,300320,80
69,62,300480,160
75,75,300480,160
70,62,300640,80
74,74,300640,80
73,62,300800,80
78,74,300800,80
73,62,300960,160
78,75,300960,160
72,63,301120,80
77,69,301120,80
81,62,301280,80
87,73,301280,80
81,64,301440,160
87,78,301440,160
82,62,301600,80
86,73,301600,80
78,73,301760,80
73,62,301760,80
73,64,301920,160
78,78,301920,160
72,62,302080,80
77,70,302080,80
69,62,302240,80
75,74,302240,80
69,64,302400,160
75,78,302400,160
70,59,302560,80
74,69,302560,80
66,74,302720,80
61,62,302720,80
61,62,302880,160
66,75,302880,160
60,59,303040,80
65,66,303040,80
57,62,303200,80
63,74,303200,80
57,62,303360,160
63,75,303360,160
58,53,303520,80
62,63,303520,80
60,49,303680,80
67,59,303680,80
60,51,303840,160
67,62,303840,160
65,58,304000,80
69,44,304160,80
75,52,304160,80
69,46,304320,160
75,55,304320,160
70,44,304480,80
74,52,304480,80
72,44,304640,80
79,52,304640,80
72,46,304800,160
79,55,304800,160
77,51,304960,80
81,39,305120,80
87,46,305120,80
81,40,305280,160
87,49,305280,160
82,39,305440,80
86,46,305440,80
79,55,305600,80
72,47,305600,80
72,49,305760,160
79,59,305760,160
77,56,305920,80
69,47,306080,80
75,56,306080,80
69,49,306240,160
75,59,306240,160
70,47,306400,80
74,55,306400,80
67,56,306560,80
60,47,306560,80
60,49,306720,160
67,59,306720,160
65,56,306880,80
60,52,307040,80
57,52,307040,80
63,62,307040,80
60,49,307200,160
57,49,307200,160
63,59,307200,160
61,46,307360,80
57,44,307360,80
64,52,307360,80
57,49,307520,80
59,49,307520,80
63,47,307520,80
69,56,307520,80
57,49,307680,160
59,49,307680,160
63,49,307680,160
69,59,307680,160
56,46,307840,80
64,44,307840,80
68,51,307840,80
62,47,308000,80
64,47,308000,80
68,47,308000,80
74,56,308000,80
62,49,308160,160
64,49,308160,160
68,49,308160,160
74,59,308160,160
61,46,308320,80
69,44,308320,80
73,52,308320,80
69,49,308480,80
71,49,308480,80
75,47,308480,80
81,56,308480,80
69,49,308640,160
71,49,308640,160
75,49,308640,160
81,59,308640,160
68,46,308800,80
76,41,308800,80
80,51,308800,80
74,49,308960,80
76,49,308960,80
80,47,308960,80
86,55,308960,80
74,49,309120,160
76,49,309120,160
80,49,309120,160
86,59,309120,160
67,45,309280,160
71,63,309280,160
68,66,309440,160
77,80,309440,160
70,68,309600,160
74,74,309600,160
71,71,309760,160
80,84,309760,160
73,66,309920,160
77,79,309920,160
74,74,310080,160
83,89,310080,160
80,85,310240,160
76,72,310240,160
77,78,310400,160
86,92,310400,160
79,73,310560,160
83,86,310560,160
80,79,310720,160
89,94,310720,160
80,77,310880,160
92,90,310880,160
88,85,311040,160
81,85,311040,160
93,101,311040,160
57,64,311200,160
64,64,311200,160
69,77,311200,160
57,64,311360,160
64,64,311360,160
69,77,311360,160
57,55,311520,160
64,55,311520,160
69,77,311520,160
57,63,311680,160
64,63,311680,160
69,75,311680,160
57,63,311840,160
64,63,311840,160
69,75,311840,160
57,57,312000,160
65,57,312000,160
69,80,312000,160
57,64,312160,160
65,64,312160,160
69,77,312160,160
57,64,312320,160
65,64,312320,160
69,77,312320,160
57,68,312480,160
65,68,312480,160
69,81,312480,160
57,67,312640,160
65,67,312640,160
69,79,312640,160
57,67,312800,160
65,67,312800,160
69,79,312800,160
57,67,312960,80
65,67,312960,80
69,80,312960,80
58,68,313120,80
65,68,313120,80
70,81,313120,80
58,69,313280,80
65,69,313280,80
70,82,313280,80
58,71,313440,80
65,71,313440,80
70,83,313440,80
58,71,313600,80
66,71,313600,80
70,84,313600,80
58,71,313760,80
66,71,313760,80
70,85,313760,80
58,72,313920,80
66,72,313920,80
70,86,313920,80
58,73,314080,80
66,73,314080,80
70,88,314080,80
58,75,314240,80
66,75,314240,80
70,90,314240,80
58,77,314400,80
66,77,314400,80
70,91,314400,80
58,78,314560,80
65,78,314560,80
70,92,314560,80
58,79,314720,80
64,79,314720,80
70,93,314720,80
58,73,314880,80
65,86,314880,80
70,102,314880,80
62,68,315040,160
65,80,315040,160
74,95,315040,160
62,68,315200,160
65,80,315200,160
74,95,315200,160
62,72,315360,160
65,85,315360,160
74,101,315360,160
60,68,315520,160
72,95,315520,160
58,68,315680,160
70,95,315680,160
62,68,316000,160
66,80,316000,160
74,95,316000,160
62,68,316160,160
66,80,316160,160
74,95,316160,160
62,72,316320,160
66,85,316320,160
74,101,316320,160
60,68,316480,160
72,95,316480,160
58,68,316640,160
70,95,316640,160
62,68,316960,160
65,80,316960,160
74,95,316960,160
62,68,317120,160
65,80,317120,160
74,95,317120,160
62,72,317280,160
65,85,317280,160
74,101,317280,160
60,68,317440,160
72,95,317440,160
58,68,317600,160
70,95,317600,160
63,80,317920,160
74,95,317920,160
63,80,318080,160
74,95,318080,160
63,85,318240,480
74,101,318240,160
72,95,318400,160
70,95,318560,160
62,84,318720,960
65,84,318720,960
70,101,318720,960
74,101,318720,960
62,71,319680,480
65,71,319680,480
70,84,319680,480
74,84,319680,480
62,69,320160,480
65,69,320160,480
71,83,320160,480
74,83,320160,480
62,69,320640,480
65,69,320640,480
70,82,320640,480
74,82,320640,480
62,68,321120,480
65,68,321120,480
71,82,321120,480
74,82,321120,480
63,74,321600,480
66,74,321600,480
71,88,321600,480
75,88,321600,480
63,72,322080,480
66,72,322080,480
72,88,322080,480
75,88,322080,480
64,74,322560,480
67,74,322560,480
72,88,322560,480
76,88,322560,480
64,73,323040,480
67,73,323040,480
73,87,323040,480
76,87,323040,480
65,76,323520,480
68,76,323520,480
73,93,323520,480
77,93,323520,480
65,76,324000,480
69,76,324000,480
75,92,324000,480
77,92,324000,480
65,78,324480,480
70,93,324480,480
77,93,324480,480
66,79,324960,480
70,94,324960,480
78,94,324960,480
70,79,325440,480
72,79,325440,480
75,95,325440,480
82,95,325440,480
69,77,325920,480
72,77,325920,480
75,93,325920,480
81,93,325920,480
70,85,326400,480
74,102,326400,480
82,102,326400,480
70,84,326880,480
75,84,326880,480
78,101,326880,480
82,101,326880,480
70,85,327360,480
74,85,327360,480
77,101,327360,480
82,101,327360,480
70,85,327840,480
75,85,327840,480
78,101,327840,480
82,101,327840,480
70,91,328320,960
74,91,328320,960
77,108,328320,960
82,108,328320,960
82,100,329280,960
94,117,329280,960
62,105,330240,960
37,76,0,1680
49,90,0,1680
28,76,1680,240
40,90,1680,240
28,76,1920,1920
40,90,1920,1920
49,76,2880,960
61,90,2880,960
56,76,2880,960
49,72,3840,120
49,65,3960,1800
51,79,4080,3600
57,81,4200,3480
29,85,4320,3360
41,85,4320,3360
61,85,4320,1440
48,64,5760,1920
60,64,5760,1920
34,44,7680,120
46,52,7680,120
53,29,7800,120
49,22,7920,120
61,26,7920,120
58,22,7920,120
41,33,8040,120
34,25,8160,120
46,29,8160,120
53,29,8280,120
49,23,8400,120
61,27,8400,120
58,23,8400,120
41,35,8520,120
34,27,8640,120
46,33,8640,120
53,30,8760,120
49,24,8880,120
61,29,8880,120
58,24,8880,120
41,35,9000,120
34,28,9120,120
46,34,9120,120
53,35,9240,120
49,26,9360,120
61,31,9360,120
58,26,9360,120
41,39,9480,120
34,30,9600,120
46,38,9600,120
53,35,9720,120
49,28,9840,120
61,34,9840,120
58,28,9840,120
41,39,9960,120
34,29,10080,120
46,35,10080,120
53,34,10200,120
49,25,10320,120
61,30,10320,120
58,25,10320,120
41,36,10440,120
34,27,10560,120
46,33,10560,120
53,30,10680,120
49,24,10800,120
61,29,10800,120
58,24,10800,120
41,35,10920,120
34,25,11040,120
46,29,11040,120
53,29,11160,120
49,24,11280,120
61,28,11280,120
58,24,11280,120
53,33,11400,120
46,35,11520,120
53,34,11640,120
61,30,11760,120
58,30,11760,120
53,31,11880,120
46,35,12000,120
53,33,12120,120
61,31,12240,120
58,31,12240,120
53,31,12360,120
46,35,12480,120
53,34,12600,120
61,31,12720,120
58,31,12720,120
53,31,12840,120
46,35,12960,120
53,33,13080,120
61,31,13200,120
58,31,13200,120
53,31,13320,120
46,35,13440,120
53,33,13560,120
61,31,13680,120
58,31,13680,120
53,33,13800,120
46,37,13920,120
53,35,14040,120
61,34,14160,120
58,34,14160,120
53,34,14280,120
48,35,14400,120
54,34,14520,120
63,30,14640,120
57,30,14640,120
54,31,14760,120
48,35,14880,120
54,33,15000,120
63,31,15120,120
57,31,15120,120
54,31,15240,120
48,35,15360,120
51,34,15480,120
63,30,15600,120
57,30,15600,120
51,31,15720,120
48,35,15840,120
54,33,15960,120
63,31,16080,120
57,31,16080,120
54,31,16200,120
48,35,16320,120
51,34,16440,120
63,30,16560,120
57,30,16560,120
51,31,16680,120
48,35,16800,120
54,33,16920,120
63,31,17040,120
57,31,17040,120
54,31,17160,120
48,35,17280,120
51,35,17400,120
63,34,17520,120
57,34,17520,120
51,35,17640,120
48,39,17760,120
54,37,17880,120
63,37,18000,120
57,37,18000,120
54,38,18120,120
49,35,18240,120
53,34,18360,120
65,30,18480,120
57,30,18480,120
53,31,18600,120
49,35,18720,120
53,33,18840,120
65,31,18960,120
58,31,18960,120
53,31,19080,120
52,56,19200,120
61,53,19320,120
67,50,19440,120
52,51,19560,120
53,56,19680,120
60,52,19800,120
69,58,19920,120
53,51,20040,120
45,33,20160,120
54,30,20280,120
63,29,20400,120
45,29,20520,120
46,33,20640,120
53,30,20760,120
61,29,20880,120
46,29,21000,120
52,56,21120,120
61,53,21240,120
67,50,21360,120
52,51,21480,120
53,56,21600,120
60,52,21720,120
69,58,21840,120
53,51,21960,120
45,33,22080,120
54,30,22200,120
63,29,22320,120
45,29,22440,120
46,33,22560,120
53,30,22680,120
61,29,22800,120
46,29,22920,120
43,56,23040,120
48,53,23160,120
49,50,23280,120
58,49,23400,120
43,52,23520,120
48,49,23640,120
49,49,23760,120
58,49,23880,120
43,47,24000,120
48,45,24120,120
49,42,24240,120
58,44,24360,120
45,49,24480,120
50,44,24600,120
51,46,24720,120
60,44,24840,120
47,47,24960,120
52,45,25080,120
53,42,25200,120
62,44,25320,120
48,49,25440,120
54,39,25560,120
55,40,25680,120
63,39,25800,120
46,52,25920,120
53,45,26040,120
54,41,26160,120
63,42,26280,120
45,52,26400,120
52,41,26520,120
53,42,26640,120
63,41,26760,120
46,51,26880,120
53,44,27000,120
58,47,27120,120
41,48,27240,120
46,51,27360,120
53,43,27480,120
58,48,27600,120
41,48,27720,120
46,51,27840,120
53,44,27960,120
58,48,28080,120
41,48,28200,120
46,51,28320,120
53,43,28440,120
58,48,28560,120
41,48,28680,120
46,51,28800,120
53,49,28920,120
58,48,29040,120
41,49,29160,120
46,54,29280,120
53,51,29400,120
61,50,29520,120
49,50,29640,120
48,51,29760,120
54,44,29880,120
63,47,30000,120
48,48,30120,120
54,51,30240,120
57,43,30360,120
63,48,30480,120
48,48,30600,120
51,51,30720,120
57,44,30840,120
63,47,30960,120
48,48,31080,120
54,51,31200,120
57,43,31320,120
63,48,31440,120
48,48,31560,120
51,51,31680,120
57,44,31800,120
63,47,31920,120
48,48,32040,120
54,51,32160,120
57,43,32280,120
63,48,32400,120
48,48,32520,120
51,52,32640,120
57,46,32760,120
63,50,32880,120
48,51,33000,120
54,57,33120,120
57,54,33240,120
63,54,33360,120
48,55,33480,120
49,51,33600,120
57,50,33720,120
65,47,33840,120
53,48,33960,120
58,51,34080,120
61,49,34200,120
65,48,34320,120
49,48,34440,120
52,61,34560,120
61,59,34680,120
67,55,34800,120
52,57,34920,120
53,61,35040,120
60,58,35160,120
69,57,35280,120
53,57,35400,120
45,48,35520,120
54,44,35640,120
63,44,35760,120
45,44,35880,120
46,48,36000,120
53,44,36120,120
61,44,36240,120
46,44,36360,120
52,61,36480,120
61,59,36600,120
67,55,36720,120
52,57,36840,120
53,61,36960,120
60,58,37080,120
69,57,37200,120
53,57,37320,120
50,61,37440,120
59,58,37560,120
65,55,37680,120
50,55,37800,120
51,61,37920,120
58,57,38040,120
66,55,38160,120
51,55,38280,120
39,69,38400,120
46,59,38520,120
58,71,38640,120
46,59,38760,120
41,69,38880,120
46,59,39000,120
58,69,39120,120
46,59,39240,120
42,69,39360,120
46,59,39480,120
58,68,39600,120
46,59,39720,120
43,68,39840,120
51,59,39960,120
63,68,40080,120
51,59,40200,120
44,52,40320,120
51,57,40320,120
58,68,40320,120
44,39,40560,120
51,46,40560,120
56,56,40560,120
34,38,41040,240
46,46,41040,240
35,41,41280,480
47,49,41280,480
36,39,41760,360
48,46,41760,360
37,31,42240,960
49,37,42240,1440
42,39,43680,480
44,36,44160,1200
45,37,45360,240
46,39,45600,240
44,37,45840,240
37,33,46080,960
49,39,47040,480
42,39,47520,480
44,29,48000,1200
45,37,49200,240
48,35,49440,160
46,34,49600,160
44,34,49760,160
37,41,49920,480
55,44,50400,480
44,37,50880,960
54,44,50880,480
58,44,51360,360
56,49,51720,120
49,39,51840,480
56,42,51840,480
55,44,52320,480
44,37,52800,480
54,44,52800,960
42,37,53280,420
41,41,53700,540
57,49,53760,480
33,40,54240,480
45,48,54240,480
34,41,54720,480
46,49,54720,480
36,41,55200,360
48,49,55200,360
37,37,55560,120
49,45,55560,120
38,41,55680,480
50,49,55680,480
39,41,56160,360
51,49,56160,360
41,37,56520,120
53,45,56520,120
42,41,56640,480
54,49,56640,480
44,45,57120,480
37,39,57600,160
55,33,57760,160
56,31,57920,160
58,37,58080,160
56,31,58240,160
44,31,58400,160
49,39,58560,160
55,35,58720,160
56,35,58880,160
58,37,59040,160
56,33,59200,160
44,33,59360,160
51,39,59520,160
55,35,59680,160
56,35,59840,160
58,37,60000,160
56,33,60160,160
44,33,60320,160
54,39,60480,160
55,35,60640,160
56,35,60800,160
58,37,60960,160
56,33,61120,160
44,33,61280,160
49,39,61440,120
55,34,61680,120
56,33,61800,120
58,37,61920,120
56,31,62040,108
56,37,62160,120
44,37,62280,120
49,39,62400,120
55,35,62640,120
56,35,62760,120
58,37,62880,120
56,33,63000,108
56,37,63120,120
44,31,63240,120
51,39,63360,120
55,35,63600,120
56,35,63720,120
58,37,63840,120
56,33,63960,108
56,37,64080,120
44,33,64200,120
54,39,64320,240
55,35,64560,120
56,35,64680,120
58,39,64800,120
56,35,64920,108
56,39,65040,120
44,35,65160,120
49,44,65280,120
56,39,65400,120
58,39,65520,120
56,39,65640,120
65,44,65760,120
56,40,65880,120
58,40,66000,120
56,41,66120,120
44,45,66240,120
56,40,66360,120
58,41,66480,120
56,41,66600,120
66,47,66720,120
56,44,66840,120
58,44,66960,120
56,44,67080,120
49,48,67200,120
56,42,67320,120
58,42,67440,120
56,42,67560,120
65,49,67680,120
56,46,67800,120
58,46,67920,120
56,46,68040,120
44,50,68160,120
56,46,68280,120
58,46,68400,120
56,46,68520,120
66,52,68640,120
56,49,68760,120
58,49,68880,120
56,49,69000,120
45,57,69120,120
52,51,69240,120
53,51,69360,120
60,51,69480,120
57,58,69600,120
64,53,69720,120
65,53,69840,120
72,53,69960,120
46,59,70080,120
52,52,70200,120
53,52,70320,120
61,53,70440,120
58,60,70560,120
64,55,70680,120
65,55,70800,120
73,56,70920,120
48,61,71040,120
55,55,71160,120
56,55,71280,120
63,55,71400,120
60,62,71520,120
67,57,71640,120
68,57,71760,120
75,57,71880,120
50,62,72000,120
57,56,72120,120
58,57,72240,120
65,57,72360,120
62,63,72480,120
69,58,72600,120
70,59,72720,120
39,59,72960,120
46,52,73080,120
51,52,73200,120
58,52,73320,120
41,59,73440,120
46,52,73560,120
50,52,73680,120
56,52,73800,120
42,62,73920,120
46,52,74040,120
51,52,74160,120
58,52,74280,120
43,61,74400,120
49,52,74520,120
52,52,74640,120
58,52,74760,120
44,59,74880,120
49,52,75000,120
53,52,75120,120
61,52,75240,120
46,58,75360,120
49,52,75480,120
54,52,75600,120
61,52,75720,120
44,52,75840,120
51,47,75960,120
56,47,76080,120
61,47,76200,120
42,55,76320,120
48,47,76440,120
51,47,76560,120
56,47,76680,120
41,55,76800,120
44,47,76920,120
49,47,77040,120
56,47,77160,120
46,56,77280,120
49,47,77400,120
54,47,77520,120
61,47,77640,120
45,55,77760,120
49,47,77880,120
54,47,78000,120
61,47,78120,120
44,51,78240,120
51,47,78360,120
60,47,78480,120
42,47,78600,120
41,56,78720,120
44,47,78840,120
49,46,78960,120
56,46,79080,120
46,53,79200,120
49,45,79320,120
54,44,79440,120
61,44,79560,120
44,50,79680,120
51,42,79800,120
56,42,79920,120
61,41,80040,120
44,49,80160,120
51,41,80280,120
56,40,80400,120
60,40,80520,120
49,56,80640,160
56,56,80640,160
61,66,80640,160
51,42,80800,80
55,42,80800,80
61,51,80800,80
51,42,80960,80
55,42,80960,80
61,51,80960,80
51,46,81120,160
55,46,81120,160
61,56,81120,160
56,42,81280,80
60,51,81280,80
56,42,81440,80
68,51,81440,80
63,42,81440,80
56,46,81600,160
63,46,81600,160
68,56,81600,160
61,42,81760,80
68,51,81760,80
67,51,81920,80
63,42,81920,80
73,51,81920,80
63,46,82080,160
67,56,82080,160
73,56,82080,160
68,42,82240,80
72,51,82240,80
68,42,82400,80
75,42,82400,80
80,51,82400,80
68,46,82560,160
75,46,82560,160
80,56,82560,160
73,42,82720,80
80,51,82720,80
63,44,82880,80
73,52,82880,80
67,44,82880,80
63,46,83040,160
67,46,83040,160
73,56,83040,160
68,44,83200,80
72,52,83200,80
56,44,83360,80
63,44,83360,80
68,52,83360,80
56,46,83520,160
63,46,83520,160
68,56,83520,160
61,44,83680,80
68,52,83680,80
55,44,83840,80
51,44,83840,80
61,52,83840,80
51,46,84000,160
55,46,84000,160
61,56,84000,160
56,44,84160,80
60,52,84160,80
51,44,84320,80
44,44,84320,80
56,52,84320,80
44,46,84480,160
51,46,84480,160
56,56,84480,160
49,39,84640,80
56,47,84640,80
55,36,84800,80
61,41,84800,80
55,37,84960,160
61,44,84960,160
56,34,85120,80
60,41,85120,80
56,29,85280,80
68,36,85280,80
63,29,85280,80
56,33,85440,160
63,33,85440,160
68,39,85440,160
61,29,85600,80
68,36,85600,80
67,36,85760,80
73,36,85760,80
67,39,85920,160
73,39,85920,160
68,29,86080,80
72,36,86080,80
68,26,86240,80
75,26,86240,80
80,31,86240,80
68,29,86400,160
75,29,86400,160
80,35,86400,160
73,26,86560,80
80,31,86560,80
73,39,86720,80
67,33,86720,80
67,35,86880,160
73,41,86880,160
68,33,87040,80
72,39,87040,80
56,33,87200,80
63,33,87200,80
68,39,87200,80
56,35,87360,160
63,35,87360,160
68,41,87360,160
61,33,87520,80
68,39,87520,80
55,33,87680,80
61,39,87680,80
55,35,87840,160
61,41,87840,160
56,33,88000,80
60,39,88000,80
44,41,88160,80
56,49,88160,80
44,39,88320,160
56,47,88320,160
43,33,88480,80
55,39,88480,80
55,38,88640,80
57,45,88640,80
55,39,88800,160
57,47,88800,160
55,31,88960,80
59,39,88960,80
55,36,89120,80
62,44,89120,80
55,39,89280,160
62,47,89280,160
60,34,89440,80
55,34,89440,80
64,41,89440,80
55,44,89600,80
62,44,89600,80
69,44,89600,80
55,47,89760,160
62,47,89760,160
69,47,89760,160
55,44,89920,80
62,34,89920,80
67,41,89920,80
55,47,90080,80
62,36,90080,80
67,44,90080,80
55,39,90240,160
62,39,90240,160
67,47,90240,160
62,34,90400,160
68,49,90400,160
53,61,90560,160
56,47,90720,160
65,56,90720,160
50,62,90880,160
56,49,91040,160
62,59,91040,160
47,64,91200,160
53,50,91360,160
59,60,91360,160
44,69,91520,160
50,53,91680,160
56,64,91680,160
41,77,91840,160
29,69,92000,160
41,69,92000,160
40,42,92160,160
28,42,92160,160
40,36,92320,160
52,50,92320,160
40,40,92480,160
52,48,92480,160
40,40,92640,160
52,48,92640,160
40,40,92800,160
52,48,92800,160
40,41,92960,160
52,49,92960,160
40,38,93120,160
52,55,93120,160
39,44,93280,160
51,52,93280,160
39,44,93440,160
51,52,93440,160
39,47,93600,160
51,56,93600,160
40,44,93760,160
52,52,93760,160
40,44,93920,160
52,52,93920,160
40,46,94080,80
52,56,94080,80
40,47,94240,80
52,57,94240,80
40,48,94400,80
52,58,94400,80
40,49,94560,80
52,58,94560,80
40,50,94720,80
52,59,94720,80
40,51,94880,80
52,61,94880,80
40,52,95040,80
52,62,95040,80
39,52,95200,80
51,62,95200,80
39,53,95360,80
51,63,95360,80
39,53,95520,80
51,64,95520,80
40,55,95680,80
52,66,95680,80
40,56,95840,80
52,67,95840,80
41,52,96000,80
53,74,96000,80
56,50,96160,160
49,50,96160,160
61,71,96160,160
56,51,96320,160
49,51,96320,160
61,72,96320,160
49,53,96480,160
56,53,96480,160
61,75,96480,160
30,68,96960,160
42,96,96960,160
54,50,97120,160
49,50,97120,160
61,71,97120,160
54,51,97280,160
49,51,97280,160
61,72,97280,160
49,53,97440,160
54,53,97440,160
61,75,97440,160
32,68,97920,160
44,96,97920,160
56,50,98080,160
49,50,98080,160
61,71,98080,160
56,51,98240,160
49,51,98240,160
61,72,98240,160
49,53,98400,160
56,53,98400,160
61,75,98400,160
34,68,98880,160
46,96,98880,160
58,50,99040,160
51,50,99040,160
61,71,99040,160
58,51,99200,160
51,51,99200,160
61,72,99200,160
51,53,99360,160
58,53,99360,160
61,75,99360,160
27,59,99840,1920
39,70,99840,1920
32,56,101760,1920
44,66,101760,1920
34,44,103680,120
46,52,103680,120
53,29,103800,120
49,22,103920,120
61,26,103920,120
58,22,103920,120
41,33,104040,120
34,25,104160,120
46,29,104160,120
53,29,104280,120
49,23,104400,120
61,27,104400,120
58,23,104400,120
41,35,104520,120
34,27,104640,120
46,33,104640,120
53,30,104760,120
49,24,104880,120
61,29,104880,120
58,24,104880,120
41,35,105000,120
34,28,105120,120
46,34,105120,120
53,35,105240,120
49,26,105360,120
61,31,105360,120
58,26,105360,120
41,39,105480,120
34,30,105600,120
46,38,105600,120
53,35,105720,120
49,28,105840,120
61,34,105840,120
58,28,105840,120
41,39,105960,120
34,29,106080,120
46,35,106080,120
53,34,106200,120
49,25,106320,120
61,30,106320,120
58,25,106320,120
41,36,106440,120
34,27,106560,120
46,33,106560,120
53,30,106680,120
49,24,106800,120
61,29,106800,120
58,24,106800,120
41,35,106920,120
34,25,107040,120
46,29,107040,120
53,29,107160,120
49,24,107280,120
61,28,107280,120
58,24,107280,120
53,33,107400,120
46,35,107520,120
53,34,107640,120
61,30,107760,120
58,30,107760,120
53,31,107880,120
46,35,108000,120
53,33,108120,120
61,31,108240,120
58,31,108240,120
53,31,108360,120
46,35,108480,120
53,34,108600,120
61,31,108720,120
58,31,108720,120
53,31,108840,120
46,35,108960,120
53,33,109080,120
61,31,109200,120
58,31,109200,120
53,31,109320,120
46,35,109440,120
53,33,109560,120
61,31,109680,120
58,31,109680,120
53,33,109800,120
46,37,109920,120
53,35,110040,120
61,34,110160,120
58,34,110160,120
53,34,110280,120
48,35,110400,120
54,34,110520,120
63,30,110640,120
57,30,110640,120
54,31,110760,120
48,35,110880,120
54,33,111000,120
63,31,111120,120
57,31,111120,120
54,31,111240,120
48,35,111360,120
51,34,111480,120
63,30,111600,120
57,30,111600,120
51,31,111720,120
48,35,111840,120
54,33,111960,120
63,31,112080,120
57,31,112080,120
54,31,112200,120
48,35,112320,120
51,34,112440,120
63,30,112560,120
57,30,112560,120
51,31,112680,120
48,35,112800,120
54,33,112920,120
63,31,113040,120
57,31,113040,120
54,31,113160,120
48,35,113280,120
51,35,113400,120
63,34,113520,120
57,34,113520,120
51,35,113640,120
48,39,113760,120
54,37,113880,120
63,37,114000,120
57,37,114000,120
54,38,114120,120
49,35,114240,120
53,34,114360,120
65,30,114480,120
57,30,114480,120
53,31,114600,120
49,35,114720,120
53,33,114840,120
65,31,114960,120
58,31,114960,120
53,31,115080,120
52,56,115200,120
61,53,115320,120
67,50,115440,120
52,51,115560,120
53,56,115680,120
60,52,115800,120
69,58,115920,120
53,51,116040,120
45,33,116160,120
54,30,116280,120
63,29,116400,120
45,29,116520,120
46,33,116640,120
53,30,116760,120
61,29,116880,120
46,29,117000,120
52,56,117120,120
61,53,117240,120
67,50,117360,120
52,51,117480,120
53,56,117600,120
60,52,117720,120
69,58,117840,120
53,51,117960,120
45,33,118080,120
54,30,118200,120
63,29,118320,120
45,29,118440,120
46,33,118560,120
53,30,118680,120
61,29,118800,120
46,29,118920,120
43,56,119040,120
48,53,119160,120
49,50,119280,120
58,49,119400,120
43,52,119520,120
48,49,119640,120
49,49,119760,120
58,49,119880,120
43,47,120000,120
48,45,120120,120
49,42,120240,120
58,44,120360,120
45,49,120480,120
50,44,120600,120
51,46,120720,120
60,44,120840,120
47,47,120960,120
52,45,121080,120
53,42,121200,120
62,44,121320,120
48,49,121440,120
54,39,121560,120
55,40,121680,120
63,39,121800,120
46,52,121920,120
53,45,122040,120
54,41,122160,120
63,42,122280,120
45,52,122400,120
52,41,122520,120
53,42,122640,120
63,41,122760,120
46,51,122880,120
53,44,123000,120
58,47,123120,120
41,48,123240,120
46,51,123360,120
53,43,123480,120
58,48,123600,120
41,48,123720,120
46,51,123840,120
53,44,123960,120
58,48,124080,120
41,48,124200,120
46,51,124320,120
53,43,124440,120
58,48,124560,120
41,48,124680,120
46,51,124800,120
53,49,124920,120
58,48,125040,120
41,49,125160,120
46,54,125280,120
53,51,125400,120
61,50,125520,120
49,50,125640,120
48,51,125760,120
54,44,125880,120
63,47,126000,120
48,48,126120,120
54,51,126240,120
57,43,126360,120
63,48,126480,120
48,48,126600,120
51,51,126720,120
57,44,126840,120
63,47,126960,120
48,48,127080,120
54,51,127200,120
57,43,127320,120
63,48,127440,120
48,48,127560,120
51,51,127680,120
57,44,127800,120
63,47,127920,120
48,48,128040,120
54,51,128160,120
57,43,128280,120
63,48,128400,120
48,48,128520,120
51,52,128640,120
57,46,128760,120
63,50,128880,120
48,51,129000,120
54,57,129120,120
57,54,129240,120
63,54,129360,120
48,55,129480,120
49,51,129600,120
57,50,129720,120
65,47,129840,120
53,48,129960,120
58,51,130080,120
61,49,130200,120
65,48,130320,120
49,48,130440,120
52,61,130560,120
61,59,130680,120
67,55,130800,120
52,57,130920,120
53,61,131040,120
60,58,131160,120
69,57,131280,120
53,57,131400,120
45,48,131520,120
54,44,131640,120
63,44,131760,120
45,44,131880,120
46,48,132000,120
53,44,132120,120
61,44,132240,120
46,44,132360,120
52,61,132480,120
61,59,132600,120
67,55,132720,120
52,57,132840,120
53,61,132960,120
60,58,133080,120
69,57,133200,120
53,57,133320,120
50,61,133440,120
59,58,133560,120
65,55,133680,120
50,55,133800,120
51,61,133920,120
58,57,134040,120
66,55,134160,120
51,55,134280,120
39,69,134400,120
46,59,134520,120
58,71,134640,120
46,59,134760,120
41,69,134880,120
46,59,135000,120
58,69,135120,120
46,59,135240,120
42,69,135360,120
46,59,135480,120
58,68,135600,120
46,59,135720,120
43,68,135840,120
51,59,135960,120
63,68,136080,120
51,59,136200,120
44,51,136320,120
51,57,136320,120
58,68,136320,120
44,39,136560,120
51,46,136560,120
56,56,136560,120
34,38,137040,240
46,46,137040,240
35,41,137280,480
47,49,137280,480
36,39,137760,360
48,46,137760,360
37,31,138240,960
49,37,138240,1440
42,39,139680,480
44,39,140160,1200
45,37,141360,240
46,39,141600,240
44,37,141840,240
37,33,142080,960
49,39,142080,1440
42,39,143520,480
44,29,144000,1200
45,37,145200,240
48,35,145440,160
46,34,145600,160
44,34,145760,160
37,41,145920,480
55,44,146400,480
44,37,146880,960
54,44,146880,480
58,44,147360,360
56,49,147720,120
49,39,147840,480
56,45,147840,480
55,44,148320,480
44,37,148800,480
54,44,148800,960
42,37,149280,420
41,41,149700,540
57,49,149760,480
33,40,150240,480
45,48,150240,480
34,41,150720,480
46,49,150720,480
36,41,151200,360
48,49,151200,360
37,37,151560,120
49,45,151560,120
38,41,151680,480
50,49,151680,480
39,41,152160,360
51,49,152160,360
41,37,152520,120
53,45,152520,120
42,41,152640,480
54,49,152640,480
44,45,153120,480
37,39,153600,160
55,33,153760,160
56,31,153920,160
58,37,154080,160
56,31,154240,160
44,31,154400,160
49,39,154560,160
55,35,154720,160
56,35,154880,160
58,37,155040,160
56,33,155200,160
44,33,155360,160
51,39,155520,160
55,35,155680,160
56,35,155840,160
58,37,156000,160
56,33,156160,160
44,33,156320,160
54,39,156480,160
55,35,156640,160
56,35,156800,160
58,37,156960,160
56,33,157120,160
44,33,157280,160
49,39,157440,120
55,34,157680,120
56,33,157800,120
58,37,157920,120
56,31,158040,108
56,37,158160,120
44,37,158280,120
49,39,158400,120
55,35,158640,120
56,35,158760,120
58,37,158880,120
56,33,159000,108
56,37,159120,120
44,31,159240,120
51,39,159360,120
55,35,159600,120
56,35,159720,120
58,37,159840,120
56,33,159960,108
56,37,160080,120
44,33,160200,120
54,39,160320,240
55,35,160560,120
56,35,160680,120
58,39,160800,120
56,35,160920,108
56,39,161040,120
44,35,161160,120
49,44,161280,120
56,39,161400,120
58,39,161520,120
56,39,161640,120
65,44,161760,120
56,40,161880,120
58,40,162000,120
56,41,162120,120
44,45,162240,120
56,40,162360,120
58,41,162480,120
56,41,162600,120
66,47,162720,120
56,44,162840,120
58,44,162960,120
56,44,163080,120
49,48,163200,120
56,42,163320,120
58,42,163440,120
56,42,163560,120
65,49,163680,120
56,46,163800,120
58,46,163920,120
56,46,164040,120
44,50,164160,120
56,46,164280,120
58,46,164400,120
56,46,164520,120
66,52,164640,120
56,49,164760,120
58,49,164880,120
56,49,165000,120
45,57,165120,120
52,51,165240,120
53,51,165360,120
60,51,165480,120
57,58,165600,120
64,53,165720,120
65,53,165840,120
72,53,165960,120
46,59,166080,120
52,52,166200,120
53,52,166320,120
61,53,166440,120
58,60,166560,120
64,55,166680,120
65,55,166800,120
73,56,166920,120
48,61,167040,120
55,55,167160,120
56,55,167280,120
63,55,167400,120
60,62,167520,120
67,57,167640,120
68,57,167760,120
75,57,167880,120
50,62,168000,120
57,56,168120,120
58,57,168240,120
65,57,168360,120
62,63,168480,120
69,58,168600,120
70,59,168720,120
39,59,168960,120
46,52,169080,120
51,52,169200,120
58,52,169320,120
41,59,169440,120
46,52,169560,120
50,52,169680,120
56,52,169800,120
42,62,169920,120
46,52,170040,120
51,52,170160,120
58,52,170280,120
43,61,170400,120
49,52,170520,120
52,52,170640,120
58,52,170760,120
44,59,170880,120
49,52,171000,120
53,52,171120,120
61,52,171240,120
46,58,171360,120
49,52,171480,120
54,52,171600,120
61,52,171720,120
44,52,171840,120
51,47,171960,120
56,47,172080,120
61,47,172200,120
42,55,172320,120
48,47,172440,120
51,47,172560,120
56,47,172680,120
41,55,172800,120
44,47,172920,120
49,47,173040,120
56,47,173160,120
46,56,173280,120
49,47,173400,120
54,47,173520,120
61,47,173640,120
45,55,173760,120
49,47,173880,120
54,47,174000,120
61,47,174120,120
44,51,174240,120
51,47,174360,120
60,47,174480,120
42,47,174600,120
41,56,174720,120
44,47,174840,120
49,46,174960,120
56,46,175080,120
46,53,175200,120
49,45,175320,120
54,44,175440,120
61,44,175560,120
44,50,175680,120
51,42,175800,120
56,42,175920,120
61,41,176040,120
44,49,176160,120
51,41,176280,120
56,40,176400,120
60,40,176520,120
61,66,176640,160
49,56,176640,160
56,56,176640,160
51,42,176800,80
55,42,176800,80
61,51,176800,80
61,51,176960,80
55,42,176960,80
51,42,176960,80
61,56,177120,160
55,46,177120,160
51,46,177120,160
56,42,177280,80
60,51,177280,80
63,42,177440,80
68,51,177440,80
56,42,177440,80
68,56,177600,160
56,46,177600,160
63,46,177600,160
61,42,177760,80
68,51,177760,80
73,51,177920,80
63,42,177920,80
67,51,177920,80
63,46,178080,160
67,56,178080,160
73,56,178080,160
68,42,178240,80
72,51,178240,80
80,51,178400,80
75,42,178400,80
68,42,178400,80
68,46,178560,160
80,56,178560,160
75,46,178560,160
80,51,178720,80
73,42,178720,80
63,44,178880,80
73,52,178880,80
67,44,178880,80
73,56,179040,160
67,46,179040,160
63,46,179040,160
68,44,179200,80
72,52,179200,80
56,44,179360,80
63,44,179360,80
68,52,179360,80
68,56,179520,160
63,46,179520,160
56,46,179520,160
68,52,179680,80
61,44,179680,80
61,52,179840,80
51,44,179840,80
55,44,179840,80
61,56,180000,160
55,46,180000,160
51,46,180000,160
56,44,180160,80
60,52,180160,80
56,52,180320,80
44,44,180320,80
51,44,180320,80
56,56,180480,160
51,46,180480,160
44,46,180480,160
49,39,180640,80
56,47,180640,80
55,36,180800,80
61,41,180800,80
55,37,180960,160
61,44,180960,160
56,34,181120,80
60,41,181120,80
63,29,181280,80
68,36,181280,80
56,29,181280,80
68,39,181440,160
63,33,181440,160
56,33,181440,160
61,29,181600,80
68,36,181600,80
67,36,181760,80
73,36,181760,80
67,39,181920,160
73,39,181920,160
72,36,182080,80
68,29,182080,80
68,26,182240,80
75,26,182240,80
80,31,182240,80
80,35,182400,160
75,29,182400,160
68,29,182400,160
73,26,182560,80
80,31,182560,80
73,39,182720,80
67,33,182720,80
67,35,182880,160
73,41,182880,160
68,33,183040,80
72,39,183040,80
68,39,183200,80
63,33,183200,80
56,33,183200,80
63,35,183360,160
68,41,183360,160
56,35,183360,160
61,33,183520,80
68,39,183520,80
55,33,183680,80
61,39,183680,80
55,35,183840,160
61,41,183840,160
56,33,184000,80
60,39,184000,80
44,41,184160,80
56,49,184160,80
44,39,184320,160
56,47,184320,160
43,33,184480,80
55,39,184480,80
55,38,184640,80
57,45,184640,80
57,47,184800,160
55,39,184800,160
59,39,184960,80
55,31,184960,80
62,44,185120,80
55,36,185120,80
62,47,185280,160
55,39,185280,160
55,34,185440,80
60,34,185440,80
64,41,185440,80
69,44,185600,80
55,44,185600,80
62,44,185600,80
69,47,185760,160
55,47,185760,160
62,47,185760,160
62,34,185920,80
67,41,185920,80
55,44,185920,80
62,36,186080,80
55,47,186080,80
67,44,186080,80
55,39,186240,160
67,47,186240,160
62,39,186240,160
68,49,186400,160
62,34,186400,160
53,61,186560,160
65,56,186720,160
56,47,186720,160
50,62,186880,160
56,49,187040,160
62,59,187040,160
47,64,187200,160
53,50,187360,160
59,60,187360,160
44,69,187520,160
50,53,187680,160
56,64,187680,160
41,77,187840,160
29,69,188000,160
41,69,188000,160
40,42,188160,160
28,42,188160,160
52,50,188320,160
40,36,188320,160
52,48,188480,160
40,40,188480,160
52,48,188640,160
40,40,188640,160
40,40,188800,160
52,48,188800,160
40,41,188960,160
52,49,188960,160
40,38,189120,160
52,55,189120,160
39,44,189280,160
51,52,189280,160
39,44,189440,160
51,52,189440,160
39,47,189600,160
51,56,189600,160
40,44,189760,160
52,52,189760,160
52,52,189920,160
40,44,189920,160
40,46,190080,80
52,56,190080,80
40,47,190240,80
52,57,190240,80
40,48,190400,80
52,58,190400,80
40,49,190560,80
52,58,190560,80
40,50,190720,80
52,59,190720,80
52,61,190880,80
40,51,190880,80
40,52,191040,80
52,62,191040,80
39,52,191200,80
51,62,191200,80
39,53,191360,80
51,63,191360,80
51,64,191520,80
39,53,191520,80
52,66,191680,80
40,55,191680,80
52,67,191840,80
40,56,191840,80
53,74,192000,80
41,52,192000,80
56,50,192160,160
49,50,192160,160
61,71,192160,160
56,51,192320,160
49,51,192320,160
61,72,192320,160
49,53,192480,160
56,53,192480,160
61,75,192480,160
30,68,192960,160
42,96,192960,160
49,50,193120,160
54,50,193120,160
61,71,193120,160
54,51,193280,160
49,51,193280,160
61,72,193280,160
49,53,193440,160
54,53,193440,160
61,75,193440,160
32,68,193920,160
44,96,193920,160
56,50,194080,160
61,71,194080,160
49,50,194080,160
61,72,194240,160
49,51,194240,160
56,51,194240,160
61,75,194400,160
56,53,194400,160
49,53,194400,160
34,68,194880,160
46,96,194880,160
58,50,195040,160
51,50,195040,160
61,71,195040,160
61,72,195200,160
51,51,195200,160
58,51,195200,160
61,75,195360,160
58,53,195360,160
51,53,195360,160
27,59,195840,1920
39,70,195840,1920
32,56,197760,1920
44,66,197760,1920
45,66,199680,120
33,56,199680,120
42,60,199800,120
30,50,199800,120
32,56,200040,120
44,66,200040,120
33,52,200160,120
45,62,200160,120
30,52,200280,120
42,62,200280,120
33,37,200640,120
45,44,200640,120
30,33,200760,120
42,39,200760,120
32,37,201000,120
44,44,201000,120
33,33,201120,120
45,39,201120,120
30,33,201240,120
42,39,201240,120
33,37,201600,120
45,44,201600,120
30,34,201720,120
42,39,201720,120
32,37,201960,120
44,44,201960,120
33,34,202080,120
45,39,202080,120
42,34,202200,120
54,39,202200,120
54,41,202560,480
38,34,203040,480
43,30,203520,960
50,30,203520,960
55,37,203520,960
38,33,204480,360
50,39,204480,360
31,29,204840,120
43,35,204840,120
31,30,204960,480
43,37,204960,480
38,39,205440,120
31,36,205560,120
33,39,205800,120
35,36,205920,120
31,36,206040,120
50,41,206400,120
38,35,206400,120
43,39,206520,120
31,31,206520,120
45,42,206760,120
33,36,206760,120
47,39,206880,120
35,33,206880,120
43,39,207000,120
31,33,207000,120
50,46,207360,120
38,38,207360,120
44,42,207480,120
32,36,207480,120
45,47,207720,120
33,40,207720,120
47,42,207840,120
35,36,207840,120
44,45,207960,120
32,37,207960,120
50,58,208320,120
38,48,208320,120
44,53,208440,120
32,45,208440,120
45,60,208680,120
33,49,208680,120
47,53,208800,120
35,46,208800,120
44,56,208920,120
32,47,208920,120
50,63,209280,120
38,52,209280,120
47,58,209400,120
35,49,209400,120
49,67,209640,120
37,57,209640,120
50,60,209760,120
38,51,209760,120
59,62,209880,120
47,52,209880,120
56,40,210240,480
40,36,210720,480
45,33,211200,960
52,33,211200,480
57,39,211200,960
53,33,211680,1440
33,33,212160,120
45,39,212160,120
29,29,212280,120
41,36,212280,120
31,33,212520,120
43,39,212520,120
33,29,212640,120
45,35,212640,120
29,29,212760,120
41,35,212760,120
45,31,213120,960
53,38,213120,480
54,39,213600,480
47,35,214080,960
54,41,214080,480
55,42,214560,480
35,35,215040,120
47,41,215040,120
31,31,215160,120
43,38,215160,120
33,38,215400,120
45,46,215400,120
35,35,215520,120
47,41,215520,120
31,36,215640,120
43,42,215640,120
36,35,216000,120
48,41,216000,120
31,31,216120,120
43,38,216120,120
36,38,216360,120
48,46,216360,120
38,35,216480,120
50,41,216480,120
31,36,216600,120
43,42,216600,120
39,29,216960,120
51,35,216960,120
31,26,217080,120
43,31,217080,120
38,29,217320,120
50,35,217320,120
39,26,217440,120
51,30,217440,120
44,26,217560,120
56,30,217560,120
41,29,217920,120
53,35,217920,120
38,26,218040,120
50,31,218040,120
39,29,218280,120
51,35,218280,120
41,26,218400,120
53,30,218400,120
50,26,218520,120
62,30,218520,120
40,42,218880,160
45,39,219040,320
55,39,219200,160
54,44,219360,160
45,40,219520,160
38,40,219680,160
41,44,219840,160
47,38,220000,320
57,39,220160,160
56,44,220320,160
47,39,220480,160
40,39,220640,160
43,46,220800,160
49,40,220960,160
59,40,221120,160
42,49,221280,160
49,42,221440,160
58,42,221600,160
43,53,221760,160
52,58,221920,160
61,60,222080,160
44,66,222240,160
52,69,222400,160
61,74,222560,160
32,49,222720,120
44,59,222720,120
28,44,222840,120
40,53,222840,120
30,51,223080,120
42,62,223080,120
32,46,223200,120
44,56,223200,120
28,47,223320,120
40,57,223320,120
32,49,223680,120
44,59,223680,120
29,44,223800,120
41,53,223800,120
31,51,224040,120
43,62,224040,120
32,46,224160,120
44,56,224160,120
29,47,224280,120
41,57,224280,120
34,38,224640,120
46,46,224640,120
31,35,224760,120
43,42,224760,120
32,41,225000,120
44,51,225000,120
34,39,225120,120
46,46,225120,120
43,40,225240,120
55,47,225240,120
36,36,225600,120
48,44,225600,120
33,31,225720,120
45,39,225720,120
34,36,225960,120
46,44,225960,120
36,31,226080,120
48,38,226080,120
48,31,226200,120
60,38,226200,120
39,55,226560,160
47,42,226720,320
57,42,226880,160
56,48,227040,160
47,44,227200,160
40,44,227360,160
41,48,227520,160
49,41,227680,320
59,42,227840,160
58,48,228000,160
49,42,228160,160
42,42,228320,160
43,50,228480,160
51,44,228640,320
61,44,228800,160
44,53,228960,160
51,46,229120,160
60,46,229280,160
45,58,229440,160
54,63,229600,160
63,66,229760,160
48,71,229920,160
54,74,230080,160
62,81,230240,160
34,73,230400,160
46,86,230400,160
50,61,230560,160
58,72,230560,160
55,68,230720,160
62,80,230720,160
58,68,230880,160
67,80,230880,160
55,63,231040,160
62,75,231040,160
26,56,231280,80
38,66,231280,80
26,73,231360,160
38,86,231360,160
50,61,231520,160
58,72,231520,160
55,63,231680,160
62,75,231680,160
58,63,231840,160
67,75,231840,160
55,60,232000,160
62,71,232000,160
50,52,232160,160
58,62,232160,160
46,70,232320,160
58,82,232320,160
53,59,232480,160
61,70,232480,160
58,66,232640,160
65,77,232640,160
61,66,232800,160
70,77,232800,160
58,61,232960,160
65,72,232960,160
37,53,233200,80
49,63,233200,80
37,70,233280,160
49,82,233280,160
53,59,233440,160
61,70,233440,160
58,61,233600,160
65,72,233600,160
61,61,233760,160
70,72,233760,160
58,58,233920,160
65,69,233920,160
53,50,234080,160
61,60,234080,160
32,73,234240,160
44,86,234240,160
53,61,234400,160
60,72,234400,160
56,68,234560,160
65,80,234560,160
60,68,234720,160
68,80,234720,160
56,63,234880,160
65,75,234880,160
36,66,235140,80
24,56,235140,80
24,73,235200,20
36,86,235200,20
53,61,235360,160
60,72,235360,160
56,63,235520,160
65,75,235520,160
60,63,235680,160
68,75,235680,160
56,60,235840,160
65,71,235840,160
53,52,236000,160
60,62,236000,160
44,73,236160,160
56,86,236160,160
52,61,236320,160
60,72,236320,160
56,68,236480,160
64,80,236480,160
60,68,236640,160
68,80,236640,160
56,63,236800,160
64,75,236800,160
48,66,237060,80
36,56,237060,80
36,73,237120,20
48,86,237120,20
52,61,237280,160
60,72,237280,160
56,63,237440,160
64,75,237440,160
60,63,237600,160
68,75,237600,160
56,60,237760,160
64,71,237760,160
52,52,237920,160
60,62,237920,160
43,73,238080,160
55,86,238080,160
55,61,238240,160
64,72,238240,160
59,68,238400,160
67,80,238400,160
64,68,238560,160
71,80,238560,160
59,63,238720,160
67,75,238720,160
47,66,238980,80
35,56,238980,80
35,73,239040,20
47,86,239040,20
55,61,239200,160
64,72,239200,160
59,63,239360,160
67,75,239360,160
64,63,239520,160
71,75,239520,160
59,60,239680,160
67,71,239680,160
55,52,239840,160
64,62,239840,160
43,73,240000,160
55,86,240000,160
50,61,240160,160
59,72,240160,160
55,68,240320,160
62,80,240320,160
59,68,240480,160
67,80,240480,160
55,63,240640,160
62,75,240640,160
43,66,240900,80
31,56,240900,80
31,73,240960,20
43,86,240960,20
50,61,241120,160
59,72,241120,160
55,63,241280,160
62,75,241280,160
59,63,241440,160
67,75,241440,160
55,60,241600,160
62,71,241600,160
50,52,241760,160
59,62,241760,160
42,73,241920,160
54,86,241920,160
50,61,242080,160
57,72,242080,160
54,68,242240,160
62,80,242240,160
57,68,242400,160
66,80,242400,160
54,63,242560,160
62,75,242560,160
50,56,242720,160
57,66,242720,160
41,73,242880,160
53,86,242880,160
50,61,243040,160
57,72,243040,160
53,63,243200,160
62,75,243200,160
57,63,243360,160
65,75,243360,160
53,60,243520,160
62,71,243520,160
50,52,243680,160
57,62,243680,160
41,64,243840,160
53,77,243840,160
48,55,244000,160
57,64,244000,160
53,60,244160,160
60,71,244160,160
57,60,244320,160
65,71,244320,160
53,57,244480,160
60,68,244480,160
29,49,244720,80
41,59,244720,80
29,64,244800,160
41,77,244800,160
48,55,244960,160
57,64,244960,160
53,57,245120,160
60,67,245120,160
57,57,245280,157
41,51,245440,160
29,53,245600,160
27,57,245760,240
39,57,245760,240
39,46,246240,120
42,39,246360,120
54,39,246480,120
47,39,246600,120
42,47,246720,120
47,42,246840,120
59,42,246960,120
51,44,247080,120
47,49,247200,120
51,42,247320,120
63,44,247440,120
54,44,247560,120
51,50,247680,120
54,42,247800,120
66,44,247920,120
59,44,248040,120
54,56,248160,120
59,48,248280,120
71,48,248400,120
63,48,248520,120
59,56,248640,120
63,51,248760,120
75,51,248880,120
66,52,249000,120
52,62,249120,120
58,56,249240,120
67,56,249360,120
61,56,249480,120
51,62,249600,120
54,53,249720,120
66,53,249840,120
59,53,249960,120
39,46,250080,120
42,39,250200,120
54,39,250320,120
47,39,250440,120
42,47,250560,120
47,42,250680,120
59,42,250800,120
51,44,250920,120
47,49,251040,120
51,42,251160,120
63,44,251280,120
54,44,251400,120
51,50,251520,120
54,42,251640,120
66,44,251760,120
59,44,251880,120
54,56,252000,120
59,48,252120,120
71,48,252240,120
63,48,252360,120
59,56,252480,120
63,51,252600,120
75,51,252720,120
66,52,252840,120
52,62,252960,120
58,56,253080,120
67,56,253200,120
61,56,253320,120
41,62,253440,160
48,52,253600,160
49,41,253760,160
54,34,253760,320
48,38,253920,160
41,39,254080,160
51,36,254240,320
58,42,254240,160
57,39,254400,160
41,41,254560,160
49,46,254720,160
54,39,254720,320
48,44,254880,160
41,44,255040,160
51,41,255200,320
58,48,255200,160
57,46,255360,160
41,46,255520,160
58,51,255680,160
63,42,255680,320
57,47,255840,160
53,47,256000,160
66,46,256160,320
61,53,256160,160
60,49,256320,160
53,50,256480,160
63,48,256640,320
70,56,256640,160
69,50,256800,160
53,51,256960,160
70,49,257120,160
75,59,257120,320
69,58,257280,160
65,56,258240,480
65,55,258720,480
65,49,259200,960
53,40,260160,480
53,34,260640,420
34,39,261060,60
46,31,261120,1440
53,37,261120,960
58,37,262080,960
51,39,262560,480
41,29,262980,1980
53,39,263040,1200
54,33,264240,240
55,35,264480,240
53,33,264720,240
46,33,264960,960
58,39,265920,480
51,39,266400,480
53,29,266880,240
54,37,267120,240
57,35,267360,160
55,34,267520,160
53,34,267680,160
41,29,267840,240
42,37,268080,240
45,35,268320,160
43,34,268480,160
41,34,268640,160
34,39,268800,240
61,36,269280,480
64,44,269280,480
60,37,269760,960
53,37,269760,960
63,44,269760,480
67,44,270240,360
65,40,270600,60
46,39,270660,540
53,39,270690,30
65,46,270720,480
64,44,271200,480
63,37,271680,480
60,37,271680,480
53,37,271680,480
65,44,271680,480
51,37,272160,480
55,37,272160,480
60,37,272160,480
63,37,272160,480
60,41,272640,480
57,41,272640,480
50,41,272640,480
66,49,272640,480
30,36,273120,480
42,42,273120,480
31,41,273600,480
43,49,273600,480
33,41,274080,360
45,49,274080,360
34,37,274440,120
46,45,274440,120
35,41,274560,480
47,49,274560,480
36,41,275040,360
48,49,275040,360
38,37,275400,120
50,45,275400,120
39,41,275520,480
51,49,275520,480
41,41,276000,480
53,46,276000,480
34,39,276480,160
52,33,276640,160
53,31,276800,160
55,37,276960,160
53,31,277120,160
41,31,277280,160
46,39,277440,160
52,35,277600,160
53,35,277760,160
55,37,277920,160
53,33,278080,160
41,33,278240,160
48,39,278400,160
52,35,278560,160
53,35,278720,160
55,37,278880,160
53,33,279040,160
41,33,279200,160
51,39,279360,160
52,35,279520,160
53,35,279680,160
55,37,279840,160
53,33,280000,160
41,33,280160,160
34,39,280320,240
52,34,280560,120
53,33,280680,120
55,37,280800,120
53,31,280920,108
53,37,281040,120
41,37,281160,120
46,39,281280,240
52,35,281520,120
53,35,281640,120
55,37,281760,120
53,33,281880,108
53,37,282000,120
41,31,282120,120
29,39,282240,240
52,35,282480,120
53,35,282600,120
55,37,282720,120
53,33,282840,108
53,37,282960,120
41,33,283080,120
51,39,283200,240
52,35,283440,120
53,35,283560,120
55,39,283680,120
53,35,283800,108
53,39,283920,120
41,35,284040,120
46,44,284160,120
53,39,284280,120
55,39,284400,120
53,39,284520,120
62,44,284640,120
53,40,284760,120
55,40,284880,120
53,41,285000,120
41,45,285120,120
53,40,285240,120
55,41,285360,120
53,41,285480,120
63,47,285600,120
53,44,285720,120
55,44,285840,120
53,44,285960,120
46,48,286080,120
53,42,286200,120
55,42,286320,120
53,42,286440,120
62,49,286560,120
53,46,286680,120
55,46,286800,120
53,46,286920,120
41,50,287040,120
53,46,287160,120
55,46,287280,120
53,46,287400,120
63,52,287520,120
53,49,287640,120
55,49,287760,120
53,49,287880,120
42,57,288000,120
49,51,288120,120
50,51,288240,120
57,51,288360,120
54,58,288480,120
61,53,288600,120
62,53,288720,120
69,53,288840,120
43,59,288960,120
49,52,289080,120
50,52,289200,120
58,53,289320,120
55,60,289440,120
61,55,289560,120
62,55,289680,120
70,56,289800,120
45,61,289920,120
52,55,290040,120
53,55,290160,120
60,55,290280,120
57,62,290400,120
64,57,290520,120
65,57,290640,120
72,57,290760,120
47,62,290880,120
54,56,291000,120
55,57,291120,120
62,57,291240,120
59,63,291360,120
66,58,291480,120
67,59,291600,120
36,59,291840,120
43,52,291960,120
48,52,292080,120
55,52,292200,120
38,59,292320,120
43,52,292440,120
50,52,292560,120
55,52,292680,120
39,62,292800,120
43,52,292920,120
48,52,293040,120
55,52,293160,120
40,61,293280,120
46,52,293400,120
49,52,293520,120
55,52,293640,120
41,59,293760,120
48,52,293880,120
51,52,294000,120
57,52,294120,120
43,58,294240,120
46,52,294360,120
51,52,294480,120
58,52,294600,120
45,52,294720,120
48,47,294840,120
51,47,294960,120
60,47,295080,120
48,55,295200,120
51,47,295320,120
57,47,295440,120
63,47,295560,120
50,46,295680,240
62,55,295680,240
58,46,295680,240
62,46,295920,240
58,38,295920,240
50,38,295920,240
51,42,296160,240
58,42,296160,240
63,51,296160,240
53,38,296400,240
58,38,296400,240
62,46,296400,240
63,50,296640,240
54,42,296640,240
47,39,296880,240
59,47,296880,240
48,44,297120,240
60,52,297120,240
51,40,297360,240
63,47,297360,240
50,36,297600,240
53,39,297600,240
62,50,297600,240
58,38,297600,240
45,36,297840,240
57,42,297840,240
46,49,298080,240
58,49,298080,240
40,37,298320,180
52,45,298320,180
28,44,298560,240
40,52,298560,240
41,48,298800,720
29,40,298800,480
55,55,299040,240
53,51,299280,400
46,53,299520,160
52,42,299680,80
58,51,299680,80
52,42,299840,80
58,51,299840,80
52,46,300000,160
58,56,300000,160
53,38,300160,80
57,45,300160,80
53,42,300320,80
65,51,300320,80
60,42,300320,80
53,46,300480,160
60,46,300480,160
65,56,300480,160
58,42,300640,80
65,51,300640,80
64,51,300800,80
70,51,300800,80
64,56,300960,160
70,56,300960,160
65,40,301120,80
69,48,301120,80
65,42,301280,80
72,42,301280,80
77,51,301280,80
65,46,301440,160
72,46,301440,160
77,56,301440,160
70,42,301600,80
77,51,301600,80
70,52,301760,80
64,44,301760,80
64,46,301920,160
70,56,301920,160
65,41,302080,80
69,49,302080,80
53,44,302240,80
60,44,302240,80
65,52,302240,80
53,46,302400,160
60,46,302400,160
65,56,302400,160
58,41,302560,80
65,49,302560,80
52,44,302720,80
58,52,302720,80
52,46,302880,160
58,56,302880,160
53,39,303040,80
57,46,303040,80
48,44,303200,80
41,44,303200,80
53,52,303200,80
41,46,303360,160
53,56,303360,160
48,46,303360,160
53,46,303520,80
46,39,303520,80
48,36,303680,80
52,36,303680,80
58,41,303680,80
48,37,303840,160
52,37,303840,160
58,44,303840,160
53,34,304000,80
57,41,304000,80
53,29,304160,80
65,36,304160,80
60,29,304160,80
53,33,304320,160
60,33,304320,160
65,39,304320,160
58,29,304480,80
65,36,304480,80
60,36,304640,80
64,36,304640,80
70,36,304640,80
60,39,304800,160
64,39,304800,160
70,39,304800,160
65,29,304960,80
69,36,304960,80
65,26,305120,80
72,26,305120,80
77,31,305120,80
65,29,305280,160
72,29,305280,160
77,35,305280,160
70,26,305440,80
77,31,305440,80
60,33,305600,80
70,39,305600,80
64,33,305600,80
60,35,305760,160
64,35,305760,160
70,41,305760,160
65,33,305920,80
69,39,305920,80
53,33,306080,80
60,33,306080,80
65,39,306080,80
53,35,306240,160
60,35,306240,160
65,41,306240,160
58,33,306400,80
65,39,306400,80
48,33,306560,80
52,33,306560,80
58,39,306560,80
48,35,306720,160
52,35,306720,160
58,41,306720,160
53,33,306880,80
57,39,306880,80
41,41,307040,80
53,49,307040,80
41,39,307200,160
53,47,307200,160
40,35,307360,80
52,41,307360,80
52,38,307520,80
54,45,307520,80
52,39,307680,160
54,47,307680,160
52,34,307840,80
59,41,307840,80
52,36,308000,80
59,44,308000,80
52,39,308160,160
59,47,308160,160
57,34,308320,80
52,34,308320,80
64,41,308320,80
52,44,308480,80
59,44,308480,80
66,44,308480,80
52,47,308640,160
59,47,308640,160
66,47,308640,160
52,44,308800,80
59,34,308800,80
64,41,308800,80
62,36,308960,80
52,47,308960,80
64,44,308960,80
59,36,308960,80
62,39,309120,160
59,39,309120,160
52,39,309120,160
64,47,309120,160
59,34,309280,160
65,49,309280,160
50,61,309440,160
53,47,309600,160
62,56,309600,160
47,62,309760,160
53,49,309920,160
59,59,309920,160
44,64,310080,160
47,50,310240,160
56,60,310240,160
41,69,310400,160
47,53,310560,160
53,64,310560,160
38,77,310720,160
26,69,310880,160
38,69,310880,160
37,42,311040,160
25,42,311040,160
37,36,311200,160
49,50,311200,160
37,40,311360,160
49,48,311360,160
37,40,311520,160
49,48,311520,160
37,40,311680,160
49,48,311680,160
37,41,311840,160
49,49,311840,160
37,38,312000,160
49,55,312000,160
36,44,312160,160
48,52,312160,160
36,44,312320,160
48,52,312320,160
36,47,312480,160
48,56,312480,160
37,44,312640,160
49,52,312640,160
37,44,312800,160
49,52,312800,160
37,46,312960,80
49,56,312960,80
37,47,313120,80
49,57,313120,80
37,48,313280,80
49,58,313280,80
37,49,313440,80
49,58,313440,80
37,50,313600,80
49,59,313600,80
37,51,313760,80
49,61,313760,80
49,62,313920,80
37,52,313920,80
36,52,314080,80
48,62,314080,80
36,53,314240,80
48,63,314240,80
36,53,314400,80
48,64,314400,80
37,55,314560,80
49,66,314560,80
37,56,314720,80
49,67,314720,80
38,52,314880,80
50,74,314880,80
53,50,315040,160
46,50,315040,160
58,71,315040,160
53,51,315200,160
46,51,315200,160
58,72,315200,160
46,53,315360,160
53,53,315360,160
58,75,315360,160
27,68,315840,160
39,96,315840,160
51,50,316000,160
46,50,316000,160
58,71,316000,160
51,51,316160,160
46,51,316160,160
58,72,316160,160
46,53,316320,160
51,53,316320,160
58,75,316320,160
29,68,316800,160
41,96,316800,160
53,50,316960,160
46,50,316960,160
58,71,316960,160
53,51,317120,160
46,51,317120,160
58,72,317120,160
46,53,317280,160
53,53,317280,160
58,75,317280,160
30,68,317760,160
42,96,317760,160
51,50,317920,160
46,50,317920,160
58,71,317920,160
51,51,318080,160
46,51,318080,160
58,72,318080,160
46,53,318240,160
51,53,318240,160
58,75,318240,160
31,60,318600,120
43,72,318600,120
32,73,318720,60
44,86,318720,60
29,66,318840,60
41,79,318840,60
31,73,319080,60
43,86,319080,60
32,68,319200,60
44,81,319200,60
29,68,319320,60
41,81,319320,60
32,56,319680,120
44,67,319680,120
29,49,319800,60
41,60,319800,60
31,52,320040,120
43,62,320040,120
32,51,320160,120
44,61,320160,120
29,51,320280,60
41,61,320280,60
32,56,320640,120
44,67,320640,120
29,50,320760,60
41,60,320760,60
31,52,321000,120
43,66,321000,120
32,51,321120,120
44,62,321120,120
29,52,321240,60
41,63,321240,60
33,60,321600,120
45,74,321600,120
30,56,321720,60
42,63,321720,60
31,59,321960,120
43,71,321960,120
33,57,322080,120
45,69,322080,120
42,57,322200,60
54,69,322200,60
34,63,322560,120
46,75,322560,120
31,56,322680,60
43,67,322680,60
33,61,322920,120
45,71,322920,120
34,59,323040,120
46,71,323040,120
43,60,323160,60
55,71,323160,60
35,68,323520,120
47,79,323520,120
47,60,323640,60
59,73,323640,60
36,68,324000,160
48,68,324000,160
48,74,324160,160
60,74,324160,160
49,78,324320,160
61,78,324320,160
50,66,324480,480
58,66,324480,480
62,79,324480,480
51,67,324960,480
58,67,324960,480
63,80,324960,480
54,67,325440,480
58,67,325440,480
60,67,325440,480
63,67,325440,480
66,80,325440,480
53,65,325920,480
60,65,325920,480
63,65,325920,480
65,78,325920,480
46,72,326400,480
58,86,326400,480
39,70,326880,480
51,86,326880,480
34,72,327360,480
46,87,327360,480
27,70,327840,480
39,86,327840,480
34,74,328320,960
46,92,328320,960
62,74,329280,960
65,74,329280,960
70,77,329280,960
74,95,329280,960
46,65,330240,960
34,59,330240,960
41,60,330240,960
50,67,330240,960
53,71,330240,960
58,91,330240,960
