note,velocity,position,duration
48,90,1,1199
51,79,1200,240
56,83,1440,240
58,76,1680,240
60,83,1920,240
56,75,2160,240
63,76,2400,240
70,72,2640,240
72,73,2880,240
68,68,3120,240
75,76,3360,240
82,68,3600,240
84,69,3840,240
79,58,4080,240
82,59,4320,240
80,53,4560,240
79,49,4800,480
78,44,5280,240
78,40,6000,240
79,44,6240,240
78,41,6480,240
77,44,6720,240
78,41,6960,240
81,45,7200,160
79,41,7360,160
75,44,7520,160
75,43,7680,360
74,39,8040,120
77,40,8160,160
75,39,8320,160
74,33,8480,144
74,31,8640,480
72,43,10560,720
67,46,11280,240
70,62,11760,3840
60,48,15120,1200
62,44,15360,960
66,44,15600,240
70,49,15840,240
69,47,16080,240
67,44,16320,1440
58,28,16800,475
62,33,16800,475
58,28,17280,475
62,33,17280,475
74,47,17760,1440
62,28,18240,475
67,33,18240,475
62,28,18720,475
67,33,18720,475
72,47,19200,1440
60,22,19680,475
63,23,19680,475
67,28,19680,475
60,22,20160,475
63,23,20160,475
67,28,20160,475
60,48,20880,1200
62,44,21120,960
66,44,21360,240
70,49,21600,240
69,47,21840,240
67,44,22080,1440
58,28,22560,475
62,33,22560,475
58,28,23040,475
62,33,23040,475
64,44,23520,1440
57,28,24000,475
55,28,24000,475
61,33,24000,475
57,28,24480,475
55,28,24480,475
61,33,24480,475
66,44,24960,1440
54,20,25440,475
57,23,25440,475
62,28,25440,475
54,20,25920,475
57,23,25920,475
62,28,25920,475
60,48,26640,1200
62,44,26880,960
66,44,27120,240
70,49,27360,240
69,47,27600,240
67,44,27840,1440
58,28,28320,475
62,33,28320,475
58,28,28800,475
62,33,28800,475
79,53,29280,1440
70,28,29760,475
67,28,29760,475
73,33,29760,475
70,28,30240,475
67,28,30240,475
73,33,30240,475
77,50,30720,1440
70,29,31200,475
72,34,31200,475
70,29,31680,475
72,35,31680,475
63,48,32160,1440
65,48,32400,240
69,44,32640,960
75,46,32880,240
74,51,33120,240
73,49,33480,110
73,46,33600,1440
63,20,34080,475
65,23,34080,475
69,28,34080,475
63,20,34560,475
65,23,34560,475
69,28,34560,475
74,46,35040,1440
65,23,35520,475
62,19,35520,475
70,28,35520,475
65,23,36000,475
62,18,36000,475
70,28,36000,475
72,47,36480,1440
63,28,36960,475
67,33,36960,475
63,28,37440,475
67,34,37440,475
60,48,38160,1200
62,44,38400,960
66,44,38640,240
70,49,38880,240
69,47,39120,240
67,44,39360,1440
58,28,39840,475
62,33,39840,475
58,28,40320,475
62,33,40320,475
74,47,40800,1440
62,28,41280,475
67,33,41280,475
62,28,41760,475
67,33,41760,475
72,47,42240,1440
60,23,42720,475
63,23,42720,475
67,28,42720,475
60,23,43200,475
63,23,43200,475
67,28,43200,475
60,48,43920,1200
62,44,44160,960
66,44,44400,240
70,49,44640,240
69,47,44880,240
67,44,45120,1440
58,28,45600,475
62,33,45600,475
58,28,46080,475
62,33,46080,475
64,44,46560,1440
57,23,47040,475
55,23,47040,475
61,28,47040,475
57,23,47520,475
55,23,47520,475
61,28,47520,475
66,44,48000,1440
54,17,48480,475
57,19,48480,475
62,23,48480,475
54,17,48960,475
57,19,48960,475
62,23,48960,475
60,48,49680,1200
62,44,49920,960
66,44,50160,240
70,49,50400,240
69,47,50640,240
67,44,50880,1440
62,28,51360,475
59,28,51360,475
65,33,51360,475
62,28,51840,475
59,28,51840,475
65,33,51840,475
79,58,52320,1440
65,28,52800,475
71,31,52800,475
67,31,52800,475
74,36,52800,475
65,32,53280,475
71,32,53280,475
67,28,53280,475
74,37,53280,475
79,62,53760,1440
67,33,54240,475
72,33,54240,475
75,39,54240,475
67,34,54720,475
72,34,54720,475
75,40,54720,475
74,66,55200,1440
62,35,55680,475
67,41,55680,475
62,36,56160,475
67,42,56160,475
72,58,56640,1440
60,35,57120,475
67,41,57120,475
60,34,57600,475
67,40,57600,475
67,62,58080,1440
58,31,58560,475
62,37,58560,475
58,30,59040,475
62,36,59040,475
79,62,59520,1440
67,33,60000,475
72,33,60000,475
75,39,60000,475
67,34,60480,475
72,34,60480,475
75,40,60480,475
74,59,60960,1440
62,35,61440,475
67,41,61440,475
62,36,61920,475
67,42,61920,475
72,64,62400,1440
60,35,62880,475
67,41,62880,475
60,34,63360,475
67,40,63360,475
67,62,63840,1440
58,31,64320,475
61,37,64320,475
58,30,64800,475
61,36,64800,475
65,57,65280,1440
58,35,65760,475
62,42,65760,475
58,35,66240,475
62,42,66240,475
74,60,66720,1860
65,38,67200,475
62,38,67200,475
70,45,67200,475
65,38,67680,475
62,38,67680,475
70,45,67680,475
63,51,68160,480
69,51,68160,480
74,55,68580,60
63,48,68640,480
69,48,68640,480
72,62,68640,480
63,45,69120,480
69,45,69120,480
71,58,69120,480
63,50,69600,480
69,50,69600,480
72,65,69600,480
63,49,70080,480
69,49,70080,480
74,64,70080,480
63,51,70560,480
69,51,70560,480
75,66,70560,480
75,71,71040,1440
63,49,71520,480
70,49,71520,480
63,49,72000,480
70,49,72000,480
62,43,72480,480
70,43,72480,480
74,56,72480,1440
62,43,72960,480
70,43,72960,480
62,43,73440,480
70,43,73440,480
60,51,73920,480
66,51,73920,480
70,50,74340,60
60,48,74400,480
66,48,74400,480
69,57,74400,480
60,43,74880,480
66,43,74880,480
68,54,74880,480
60,48,75360,480
66,48,75360,480
69,57,75360,480
60,47,75840,480
66,47,75840,480
70,56,75840,480
60,49,76320,480
66,49,76320,480
72,58,76320,480
72,67,76800,1440
60,49,77280,480
67,49,77280,480
60,49,77760,480
67,49,77760,480
58,43,78240,480
67,43,78240,480
70,51,78240,1440
58,43,78720,480
67,43,78720,480
58,43,79200,480
67,43,79200,480
63,50,79680,480
67,50,79680,480
69,56,79680,1440
63,50,80160,480
67,50,80160,480
63,50,80640,480
67,50,80640,480
62,42,81120,480
66,42,81120,480
69,51,81120,1200
62,42,81600,480
66,42,81600,480
62,42,82080,480
66,42,82080,480
69,51,82320,120
57,51,82440,600
64,51,82500,540
69,51,82560,2400
69,66,84960,600
70,56,85560,120
69,56,85680,120
68,57,85800,120
69,58,85920,120
79,60,86040,120
76,61,86160,120
77,62,86280,120
77,63,86400,120
91,64,86520,120
89,66,86640,120
88,66,86760,120
87,67,86880,80
84,58,86960,80
81,58,87040,80
82,62,87120,80
86,58,87200,80
84,58,87280,80
82,66,87360,80
79,58,87440,80
77,58,87520,80
74,62,87600,80
75,58,87680,80
76,58,87760,80
77,63,87840,80
78,58,87920,80
81,58,88000,80
79,58,88080,80
77,56,88160,80
75,56,88240,80
73,64,88320,240
74,66,88800,1440
72,56,90240,480
67,57,90720,480
70,62,91200,1440
66,53,92640,1440
67,47,94080,480
70,28,94560,240
82,50,94560,240
74,45,94800,240
77,48,95040,240
75,45,95280,720
69,31,96000,240
81,50,96000,240
73,44,96240,240
75,49,96480,240
74,45,96720,720
70,30,97440,240
82,50,97440,240
74,48,97680,240
77,50,97920,240
75,47,98160,720
68,32,98880,240
80,51,98880,240
73,47,99120,240
75,52,99360,240
74,47,99600,720
67,32,100320,240
79,53,100320,240
71,50,100560,240
74,53,100800,240
72,49,101040,720
60,41,101760,240
72,54,101760,240
68,49,102000,240
70,55,102240,240
69,49,102480,720
63,43,103200,240
75,55,103200,240
71,53,103440,240
74,56,103680,240
72,52,103920,720
63,48,104640,240
67,57,104640,480
62,51,104880,240
61,52,105120,240
66,47,105120,480
69,57,105120,480
60,52,105360,240
58,60,105600,480
67,60,105600,480
70,71,105600,480
70,52,106080,960
82,71,106080,960
74,67,106320,240
77,71,106560,240
75,66,106800,720
69,57,107520,960
81,71,107520,960
73,65,107760,240
75,72,108000,240
74,66,108240,720
70,56,108960,960
82,72,108960,960
74,69,109200,240
77,73,109440,240
75,67,109680,240
68,57,110400,960
80,74,110400,960
73,67,110640,240
75,74,110880,240
74,67,111120,240
67,57,111840,960
79,75,111840,960
71,71,112080,240
74,75,112320,240
72,70,112560,240
60,57,113280,960
72,75,113280,960
68,69,113520,240
70,76,113760,240
69,69,114000,240
63,59,114720,960
75,76,114720,960
71,73,114960,240
74,77,115200,240
72,71,115440,240
54,78,116160,960
66,78,116160,960
61,71,116400,240
63,71,116640,240
62,71,116880,240
67,79,117120,240
58,67,117120,240
60,78,117360,120
55,53,117360,120
58,65,117480,120
57,64,117600,120
55,65,117720,120
58,77,117840,240
67,77,117840,240
60,77,118080,120
55,52,118080,120
58,64,118200,120
57,64,118320,120
55,63,118440,120
65,69,118560,120
60,52,118680,120
63,54,118800,120
54,55,118920,120
60,57,119040,120
63,58,119160,120
66,60,119280,120
72,62,119400,120
77,63,119520,120
75,65,119640,120
74,67,119760,120
72,68,119880,120
79,79,120000,120
70,67,120000,120
67,53,120240,120
72,78,120240,120
70,65,120360,120
69,64,120480,120
67,65,120600,120
70,69,120720,240
79,77,120720,240
72,77,120960,120
67,52,120960,120
70,64,121080,120
69,64,121200,120
67,63,121320,120
77,69,121440,120
72,52,121560,120
75,54,121680,120
66,55,121800,120
72,57,121920,120
75,58,122040,120
78,60,122160,120
84,62,122280,120
89,63,122400,120
87,65,122520,120
86,67,122640,120
84,68,122760,120
91,76,122880,120
82,64,122880,120
91,63,123240,120
96,75,123240,120
94,68,123360,120
86,68,123480,120
94,73,123600,120
90,62,123600,120
93,67,123720,120
86,66,123840,120
78,60,123960,120
82,71,123960,120
81,64,124080,120
74,64,124200,120
84,66,124320,120
79,56,124320,120
82,60,124440,120
86,60,124560,120
91,62,124680,120
96,74,124680,120
94,68,124800,120
86,69,124920,120
94,71,125040,120
90,60,125040,120
93,64,125160,120
86,63,125280,120
78,56,125400,120
82,66,125400,120
81,60,125520,120
74,60,125640,120
79,56,125760,120
84,66,125760,120
82,60,125880,120
86,60,126000,120
91,62,126120,120
96,74,126120,120
94,68,126240,120
86,69,126360,120
94,71,126480,120
90,60,126480,120
93,64,126600,120
86,63,126720,120
78,56,126840,120
82,66,126840,120
81,60,126960,120
74,60,127080,120
72,59,127200,120
67,50,127200,120
70,54,127320,120
74,54,127440,120
84,66,127560,120
79,55,127560,120
82,61,127680,120
74,62,127800,120
82,63,127920,120
78,54,127920,120
81,57,128040,120
74,56,128160,120
70,59,128280,120
66,50,128280,120
69,54,128400,120
62,54,128520,120
72,59,128640,120
67,50,128640,120
70,54,128760,120
74,54,128880,120
84,59,129000,120
79,49,129000,120
82,54,129120,120
74,55,129240,120
81,56,129360,120
74,48,129360,120
79,51,129480,120
70,50,129600,120
75,53,129720,120
70,45,129720,120
74,48,129840,120
67,48,129960,120
72,45,130080,120
67,38,130080,120
70,40,130200,120
62,40,130320,120
62,41,130440,120
69,50,130440,120
67,45,130560,120
58,46,130680,120
63,47,130800,120
58,40,130800,120
62,43,130920,120
55,42,131040,120
55,38,131160,120
60,45,131160,120
58,40,131280,120
50,40,131400,120
55,45,131520,120
60,53,131520,120
58,48,131640,120
50,48,131760,120
55,46,131880,120
62,55,131880,120
60,50,132000,120
51,51,132120,120
55,45,132240,120
60,54,132240,120
58,50,132360,120
50,50,132480,120
55,45,132600,120
62,53,132600,120
60,48,132720,120
51,48,132840,120
55,45,132960,120
60,53,132960,120
58,48,133080,120
50,48,133200,120
62,55,133320,120
55,46,133320,120
60,50,133440,120
51,51,133560,120
55,45,133680,120
60,54,133680,120
58,50,133800,120
50,50,133920,120
62,53,134040,120
55,45,134040,120
60,48,134160,120
51,48,134280,120
55,50,134400,120
62,51,134520,120
58,52,134640,120
62,53,134760,120
67,55,134880,120
70,56,135000,120
74,57,135120,120
79,58,135240,120
82,59,135360,120
86,61,135480,120
91,62,135600,120
98,63,135720,120
94,63,135840,120
98,60,135960,120
91,59,136080,120
86,58,136200,120
82,58,136320,120
79,57,136440,120
74,56,136560,120
70,56,136680,120
67,55,136800,120
62,54,136920,120
58,53,137040,120
50,53,137160,120
55,49,137280,120
62,50,137400,120
58,52,137520,120
62,54,137640,120
67,55,137760,120
74,57,137880,120
70,57,138000,120
74,56,138120,120
67,54,138240,120
62,53,138360,120
58,51,138480,120
50,49,138600,120
54,49,138720,120
62,50,138840,120
58,52,138960,120
62,54,139080,120
66,55,139200,120
74,57,139320,120
70,57,139440,120
74,56,139560,120
66,54,139680,120
62,53,139800,120
58,51,139920,120
50,49,140040,120
55,50,140160,120
62,51,140280,120
58,52,140400,120
62,53,140520,120
67,55,140640,120
70,56,140760,120
74,57,140880,120
79,58,141000,120
82,59,141120,120
86,61,141240,120
91,62,141360,120
98,63,141480,120
94,63,141600,120
98,60,141720,120
91,59,141840,120
86,58,141960,120
82,58,142080,120
79,57,142200,120
74,56,142320,120
70,56,142440,120
67,55,142560,120
62,54,142680,120
58,53,142800,120
50,53,142920,120
54,49,143040,120
62,50,143160,120
58,52,143280,120
62,54,143400,120
66,55,143520,120
74,57,143640,120
70,57,143760,120
74,56,143880,120
66,54,144000,120
62,53,144120,120
58,51,144240,120
50,49,144360,120
53,49,144480,120
62,50,144600,120
58,52,144720,120
62,54,144840,120
65,55,144960,120
74,57,145080,120
70,57,145200,120
74,56,145320,120
65,54,145440,120
62,53,145560,120
58,51,145680,120
50,49,145800,120
53,50,145920,120
60,51,146040,120
57,52,146160,120
60,53,146280,120
65,55,146400,120
69,56,146520,120
72,57,146640,120
77,58,146760,120
81,59,146880,120
84,61,147000,120
89,62,147120,120
93,63,147240,120
101,63,147360,240
60,30,151440,1680
65,36,151440,1680
62,34,153120,1440
67,42,153120,960
67,37,154080,480
63,42,154560,1920
75,50,156480,720
74,40,157200,240
67,33,157440,1440
72,49,157440,1440
74,48,158880,960
69,37,158880,1440
74,37,159840,480
70,40,160320,1440
82,60,161760,960
82,56,162720,480
82,59,163200,960
80,55,164160,454
80,59,164640,480
79,56,165120,480
78,55,165600,460
78,58,166080,960
79,56,167040,960
80,62,168000,720
75,56,168720,240
79,59,168960,960
77,50,169920,960
79,59,170880,720
74,53,171600,240
77,59,171840,480
75,55,172320,480
74,55,172800,480
72,55,173280,160
74,50,173440,160
72,50,173600,160
71,53,173760,240
72,50,174000,240
74,50,174240,240
75,50,174480,180
60,30,174660,1500
65,36,174720,1440
62,34,176160,1440
67,42,176160,960
67,37,177120,480
63,42,177600,1920
75,55,179520,720
74,44,180240,240
67,34,180480,1440
72,53,180480,1440
69,40,181920,1440
74,52,181920,950
74,47,182880,480
70,49,183360,1440
82,66,184800,950
82,60,185760,460
82,68,186240,1440
72,61,187680,960
74,55,188640,480
75,60,189120,160
77,53,189280,160
75,53,189440,160
74,52,189600,480
75,55,190080,480
79,56,190560,474
79,61,191040,640
77,48,191680,160
75,48,191840,140
75,50,192000,1440
67,36,193920,240
68,34,194160,240
70,37,194400,160
74,34,194560,160
72,34,194720,160
70,42,194880,1440
67,36,196800,240
68,34,197040,240
70,37,197280,160
74,34,197440,160
72,34,197600,160
70,42,197760,1440
65,36,199680,240
68,34,199920,240
70,37,200160,160
74,34,200320,160
72,34,200480,160
70,42,200640,640
61,34,201280,480
63,34,201440,160
67,39,201600,160
72,34,201760,160
70,35,201920,160
68,38,202080,720
59,37,202800,480
63,38,203040,240
65,35,203280,240
67,46,203520,1440
67,36,205440,240
68,34,205680,240
70,37,205920,160
74,34,206080,160
72,34,206240,160
70,42,206400,480
82,51,206880,1440
67,36,208480,160
68,34,208640,160
70,37,208800,160
74,34,208960,160
72,34,209120,160
70,42,209280,480
82,50,209760,1440
65,36,211360,160
68,34,211520,160
70,37,211680,160
74,34,211840,160
72,34,212000,160
70,42,212160,640
61,34,212800,480
63,34,212960,160
67,39,213120,160
72,34,213280,160
70,35,213440,160
68,38,213600,720
59,37,214320,480
63,38,214560,240
65,35,214800,240
67,46,215040,1680
67,34,216720,240
70,36,216960,240
79,37,217200,240
77,40,217440,240
75,37,217680,240
74,46,217920,1680
70,34,219600,240
74,36,219840,240
82,37,220080,240
74,40,220320,240
75,37,220560,240
76,46,220800,480
77,46,221280,1200
74,39,222480,240
77,43,222720,240
86,50,222960,240
84,46,223200,240
82,41,223440,240
80,45,223680,240
81,40,223920,240
89,51,224160,240
88,46,224400,240
86,45,224640,240
81,40,224880,240
74,40,225120,240
69,36,225360,240
65,39,225600,240
62,34,225840,240
64,39,226080,180
67,31,226260,60
65,36,226320,240
62,38,228240,1200
64,37,228480,960
68,37,228720,240
72,41,228960,240
71,39,229200,240
69,37,229440,1440
60,23,229920,475
64,28,229920,475
60,23,230400,475
64,28,230400,475
76,41,230880,1440
69,28,231360,475
69,28,231840,475
74,39,232320,1440
69,28,232800,475
65,23,232800,475
65,23,233280,475
69,28,233280,475
62,40,234000,1200
64,37,234240,960
68,37,234480,240
72,41,234720,240
71,39,234960,240
69,37,235200,1440
60,23,235680,475
64,28,235680,475
60,23,236160,475
64,28,236160,475
66,37,236640,1440
64,28,237120,475
57,23,237120,475
60,23,237120,475
64,28,237600,475
57,23,237600,475
60,23,237600,475
68,37,238080,1440
59,19,238560,475
64,23,238560,475
59,19,239040,475
64,23,239040,475
62,40,239760,1200
64,37,240000,960
68,37,240240,240
72,41,240480,240
71,39,240720,240
69,37,240960,1440
60,23,241440,475
64,28,241440,475
60,23,241920,475
64,28,241920,475
76,53,242400,1440
72,32,242880,475
69,26,242880,475
69,26,243360,475
72,32,243360,475
78,53,243840,1440
64,26,244320,475
69,26,244320,475
72,32,244320,475
69,26,244800,475
72,32,244800,475
64,26,244800,475
60,40,245520,1200
64,37,245760,960
68,37,246000,240
71,41,246240,240
69,39,246480,240
69,37,246720,1440
64,28,247200,475
60,23,247200,475
60,23,247680,475
64,28,247680,475
78,55,248160,1440
64,28,248640,475
69,28,248640,475
72,34,248640,475
64,28,249120,475
69,28,249120,475
72,36,249120,475
80,58,249600,1440
69,30,250080,475
72,30,250080,475
75,36,250080,475
75,37,250560,475
72,30,250560,475
69,30,250560,475
78,62,251040,960
69,31,251520,480
75,39,251520,480
72,31,251520,480
80,65,252240,220
80,66,252480,1440
75,45,252960,475
72,35,252960,475
69,35,252960,475
75,45,253440,475
72,35,253440,475
69,35,253440,475
78,69,253920,960
69,38,254400,480
72,38,254400,480
75,47,254400,480
80,71,255120,220
80,74,255360,1440
75,50,255840,475
72,39,255840,475
69,39,255840,475
75,50,256320,475
72,40,256320,475
69,40,256320,475
78,81,256800,960
75,53,257280,480
69,42,257280,480
72,42,257280,480
80,77,258000,240
81,78,258240,1440
78,57,258720,475
72,47,258720,475
75,47,258720,475
78,59,259200,475
75,48,259200,475
72,48,259200,475
80,94,259680,960
78,63,260160,475
75,50,260160,475
72,50,260160,475
75,50,260640,475
72,50,260640,475
78,61,260640,475
81,100,260640,475
71,82,261120,1440
74,82,261120,1440
83,99,261120,1440
80,82,261120,1440
76,82,261120,1440
76,81,262560,960
74,81,262560,960
80,81,262560,960
85,96,262560,960
74,77,263520,480
76,77,263520,480
80,77,263520,480
85,91,263520,480
81,96,264000,1440
73,81,264000,1440
69,81,264000,1440
81,89,265440,960
85,89,265440,960
93,105,265440,960
80,85,266400,480
85,85,266400,480
92,101,266400,480
78,85,266880,1440
85,89,266880,1440
90,103,266880,1440
83,86,268320,960
87,86,268320,960
92,102,268320,960
92,93,269280,480
87,79,269280,480
81,79,269280,480
88,103,269760,1440
80,88,269760,1440
76,88,269760,1440
88,113,271200,960
76,96,271200,960
76,96,272160,480
88,113,272160,480
81,86,272640,1440
76,94,272640,960
88,113,272640,960
74,82,273600,480
86,97,273600,480
86,95,274080,160
74,81,274080,160
76,79,274240,160
88,93,274240,160
74,75,274400,160
86,90,274400,160
73,82,274560,240
85,97,274560,240
86,93,274800,240
74,79,274800,240
90,97,275040,240
78,82,275040,240
88,92,275280,240
76,78,275280,240
74,94,275520,960
80,86,275520,1440
86,113,275520,960
73,82,276480,480
85,97,276480,480
85,95,276960,160
73,81,276960,160
74,79,277120,160
86,93,277120,160
73,75,277280,160
85,90,277280,160
72,82,277440,240
84,97,277440,240
85,93,277680,240
73,79,277680,240
76,82,277920,240
88,97,277920,240
74,78,278160,240
86,92,278160,240
78,86,278400,1440
73,94,278400,480
85,110,278400,480
71,82,278880,720
83,97,278880,720
70,82,279600,240
82,97,279600,240
83,97,279840,360
71,82,279840,360
77,86,279840,1440
72,79,280200,360
84,93,280200,360
85,97,280560,360
73,82,280560,360
68,78,280920,360
80,92,280920,360
73,77,281280,960
78,81,281280,960
71,94,281280,480
83,113,281280,480
81,97,281760,720
69,82,281760,960
80,97,282480,120
78,80,282600,60
80,79,282660,60
69,82,282720,480
78,97,282720,480
75,82,282720,480
71,82,282720,480
69,71,283200,220
77,84,283200,220
75,71,283200,220
71,71,283200,220
71,74,283440,220
69,74,283440,220
75,74,283440,220
78,88,283440,220
69,77,283680,220
71,77,283680,220
75,77,283680,220
80,91,283680,220
71,80,283920,220
75,80,283920,220
69,80,283920,220
81,94,283920,220
68,82,284160,1440
64,82,284160,1440
62,82,284160,1440
71,99,284160,1440
73,81,285600,960
76,96,285600,960
64,81,285600,960
68,81,285600,960
62,77,286560,480
76,91,286560,480
64,77,286560,480
68,77,286560,480
73,77,286560,480
61,81,287040,480
57,81,287040,480
69,96,287040,480
73,81,288000,480
69,81,288000,480
81,96,288000,480
93,105,288480,960
81,89,288480,960
85,89,288480,960
92,101,289440,480
85,85,289440,480
80,85,289440,480
85,89,289920,1440
78,87,289920,1440
90,103,289920,1440
92,102,291360,960
87,86,291360,960
83,86,291360,960
92,93,292320,480
87,79,292320,480
81,79,292320,480
80,88,292800,1440
76,88,292800,1440
88,103,292800,1440
88,89,294240,1320
100,104,294240,1320
88,89,295560,120
100,104,295560,120
88,87,295680,240
100,104,295680,240
66,80,297120,1920
78,94,297120,1920
78,79,299040,120
66,67,299040,120
68,67,299160,120
80,79,299160,120
66,70,299280,240
78,83,299280,240
65,64,299520,240
77,77,299520,240
66,67,299760,240
78,79,299760,240
68,68,300000,240
80,81,300000,240
70,71,300240,240
82,84,300240,240
71,73,300480,240
83,86,300480,240
73,74,300720,240
85,89,300720,240
86,91,300960,240
74,77,300960,240
76,80,301200,240
88,94,301200,240
78,94,301440,240
90,113,301440,240
68,80,302880,960
80,94,302880,960
80,94,303840,480
68,80,303840,480
68,79,304320,960
80,74,304560,240
81,79,304800,240
80,74,305040,240
67,64,305280,240
79,77,305280,240
68,67,305520,240
80,79,305520,240
70,68,305760,240
82,81,305760,240
72,71,306000,240
84,84,306000,240
73,73,306240,240
85,86,306240,240
75,74,306480,240
87,89,306480,240
76,77,306720,240
88,91,306720,240
90,94,306960,240
78,80,306960,240
80,94,307200,240
92,113,307200,240
68,80,308640,960
80,94,308640,960
68,80,309600,480
80,94,309600,480
80,80,310080,120
68,68,310080,120
70,62,310200,120
82,74,310200,120
68,62,310320,240
80,74,310320,240
67,64,310560,240
79,77,310560,240
68,67,310800,240
80,79,310800,240
82,82,311040,240
70,69,311040,240
71,72,311280,240
83,86,311280,240
73,75,311520,240
85,90,311520,240
75,78,311760,240
87,93,311760,240
89,95,312000,240
77,81,312000,240
79,85,312240,240
91,101,312240,240
80,85,312480,240
92,101,312480,240
82,86,312720,240
94,102,312720,240
83,94,312960,120
95,112,312960,120
92,85,313200,120
95,85,313200,120
89,79,313320,120
87,78,313440,120
83,77,313560,120
80,80,313680,120
83,80,313680,120
77,78,313800,120
75,73,313920,120
71,73,314040,120
71,74,314160,120
68,74,314160,120
65,64,314280,120
63,64,314400,120
59,63,314520,120
56,69,314640,120
59,69,314640,120
53,61,314760,120
51,60,314880,120
47,60,315000,120
59,60,315120,120
56,60,315120,120
53,62,315240,120
51,52,315360,120
47,52,315480,120
56,52,315600,120
59,52,315600,240
53,51,315720,120
58,52,315840,130
56,48,315960,130
59,52,316080,130
53,47,316200,130
58,47,316320,130
56,47,316440,130
59,52,316560,130
53,47,316680,130
58,52,316800,130
56,47,316920,130
59,47,317040,130
53,47,317160,130
58,52,317280,130
56,48,317400,130
59,52,317520,130
53,47,317640,130
58,47,317760,130
56,47,317880,130
59,52,318000,130
53,47,318120,130
58,52,318240,130
56,47,318360,130
59,47,318480,130
53,47,318600,130
58,52,318720,130
56,48,318840,130
59,53,318960,130
53,48,319080,130
58,48,319200,130
56,49,319320,130
59,55,319440,130
53,50,319560,130
58,56,319680,130
56,51,319800,130
59,51,319920,130
53,52,320040,130
58,58,320160,130
56,54,320280,130
59,59,320400,130
53,54,320520,130
58,54,320640,130
56,54,320760,130
59,61,320880,130
53,55,321000,130
58,62,321120,130
56,56,321240,130
59,57,321360,130
53,57,321480,130
58,65,321600,240
58,65,321840,130
62,56,321960,130
59,65,322080,130
62,58,322200,130
61,65,322320,130
65,58,322440,130
62,65,322560,130
68,58,322680,130
64,65,322800,130
68,58,322920,130
65,65,323040,130
71,58,323160,130
67,65,323280,130
71,58,323400,130
68,64,323520,130
74,57,323640,130
70,63,323760,130
74,56,323880,130
71,63,324000,130
74,57,324120,130
73,62,324240,130
77,56,324360,130
74,62,324480,130
80,56,324600,130
76,62,324720,130
80,55,324840,130
77,61,324960,130
83,55,325080,130
79,61,325200,130
83,54,325320,130
80,60,325440,130
86,54,325560,130
82,60,325680,130
86,54,325800,130
83,59,325920,130
86,52,326040,130
85,59,326160,130
89,53,326280,130
86,59,326400,130
92,54,326520,130
88,58,326640,130
92,54,326760,130
89,58,326880,130
95,53,327000,130
91,57,327120,130
95,54,327240,130
94,57,327360,130
92,51,327480,130
95,57,327600,130
89,51,327720,130
94,57,327840,130
92,51,327960,130
96,57,328080,130
89,50,328200,130
94,57,328320,130
92,52,328440,130
97,60,328560,130
89,51,328680,130
94,61,328800,130
92,51,328920,130
98,63,329040,130
89,51,329160,130
94,57,329280,130
92,52,329400,130
99,63,329520,130
89,52,329640,130
94,61,329760,130
92,52,329880,130
100,59,330000,130
89,51,330120,130
101,63,330240,130
98,51,330360,130
97,52,330480,130
100,52,330600,130
99,57,330720,130
96,53,330840,130
95,57,330960,130
98,52,331080,130
97,52,331200,130
94,52,331320,130
93,57,331440,130
96,52,331560,130
95,57,331680,130
92,52,331800,130
91,52,331920,130
94,53,332040,130
92,57,332160,130
89,55,332280,130
86,57,332400,130
82,52,332520,130
81,52,332640,130
82,52,332760,130
80,57,332880,130
82,52,333000,130
78,56,333120,130
79,48,333240,130
91,47,333360,130
86,47,333480,130
87,51,333600,130
83,44,333720,130
84,49,333840,130
79,46,333960,130
82,50,334080,130
80,48,334200,130
79,47,334320,130
77,48,334440,120
78,52,334560,130
79,45,334680,130
91,47,334800,130
86,45,334920,130
87,50,335040,130
83,45,335160,130
84,49,335280,130
79,46,335400,130
82,48,335520,130
80,48,335640,130
79,47,335760,130
77,48,335880,120
78,52,336000,130
79,45,336120,130
91,47,336240,130
86,46,336360,130
87,52,336480,130
83,47,336600,130
84,52,336720,130
79,49,336840,130
82,52,336960,130
80,53,337080,130
79,52,337200,130
77,54,337320,120
75,64,337440,240
81,49,337560,120
77,48,337680,120
74,58,337800,240
81,48,337920,120
77,48,338040,120
72,56,338160,240
81,48,338280,120
77,48,338400,120
70,54,338520,240
81,47,338640,120
77,47,338760,120
78,56,338880,130
79,48,339000,130
91,47,339120,130
86,47,339240,130
87,51,339360,130
83,44,339480,130
84,51,339600,130
79,46,339720,130
82,50,339840,130
80,48,339960,130
79,47,340080,130
77,48,340200,120
78,52,340320,130
79,45,340440,130
91,47,340560,130
86,45,340680,130
87,50,340800,130
83,45,340920,130
84,49,341040,130
79,46,341160,130
82,48,341280,130
80,48,341400,130
79,47,341520,130
77,48,341640,120
78,52,341760,130
79,45,341880,130
91,47,342000,130
86,46,342120,130
87,52,342240,130
83,47,342360,130
84,52,342480,130
79,49,342600,130
82,52,342720,130
80,53,342840,130
79,52,342960,130
77,54,343080,120
76,56,343200,120
75,56,343320,120
74,55,343440,120
73,54,343560,120
72,52,343680,120
71,51,343800,120
70,50,343920,120
69,49,344040,120
72,50,344160,120
70,50,344280,120
69,48,344400,120
68,48,344520,120
67,49,344640,130
68,49,344760,130
69,50,344880,130
70,52,345000,130
72,52,345120,130
70,53,345240,130
68,52,345360,130
70,53,345480,130
71,56,345600,130
72,58,345720,130
73,59,345840,130
72,57,345960,120
69,49,346080,130
70,49,346200,130
71,50,346320,130
72,52,346440,130
74,52,346560,130
72,53,346680,130
70,52,346800,130
72,53,346920,130
73,56,347040,130
74,58,347160,130
75,59,347280,130
74,57,347400,130
71,49,347520,130
72,49,347640,130
73,50,347760,130
74,52,347880,130
75,52,348000,130
74,53,348120,130
72,52,348240,130
73,53,348360,130
74,56,348480,130
75,58,348600,130
76,59,348720,130
77,57,348840,130
79,65,348960,130
77,64,349080,130
76,62,349200,130
75,61,349320,130
74,58,349440,130
73,56,349560,130
72,55,349680,130
71,53,349800,130
70,54,349920,130
69,54,350040,130
70,51,350160,130
68,50,350280,130
67,53,350400,240
58,53,350640,120
70,49,350760,120
62,54,350880,120
71,50,351000,120
58,55,351120,120
70,51,351240,120
63,60,351360,240
67,54,351480,120
64,63,351600,240
73,53,351720,120
60,59,351840,120
72,52,351960,120
65,66,352080,240
69,52,352200,120
64,61,352320,120
73,55,352440,120
60,63,352560,120
72,56,352680,120
65,70,352800,240
69,61,352920,120
66,68,353040,240
75,61,353160,120
62,70,353280,120
74,61,353400,120
67,75,353520,240
71,67,353640,120
66,76,353760,240
75,68,353880,120
62,75,354000,120
74,68,354120,120
67,80,354240,240
70,69,354360,120
68,80,354480,240
77,71,354600,120
64,80,354720,120
76,75,354840,120
69,86,354960,240
73,73,355080,120
70,89,355200,240
79,76,355320,120
66,89,355440,120
78,79,355560,120
71,91,355680,240
75,82,355800,120
72,93,355920,240
81,85,356040,360
73,82,356160,240
85,98,356160,240
78,82,356160,240
72,64,356400,120
73,64,356520,120
75,65,356640,120
77,66,356760,120
78,67,356880,120
80,67,357000,120
81,68,357120,120
83,69,357240,120
85,70,357360,120
87,71,357480,120
89,71,357600,120
90,72,357720,120
92,73,357840,120
93,74,357960,120
90,75,358080,120
85,75,358200,120
81,76,358320,120
78,76,358440,120
73,74,358560,120
69,72,358680,120
66,71,358800,120
61,69,358920,120
57,66,359040,120
66,67,359160,120
63,68,359280,120
69,69,359400,110
69,70,359520,120
78,72,359640,120
75,73,359760,120
81,74,359880,110
81,75,360000,120
90,76,360120,120
87,77,360240,120
93,79,360360,120
90,80,360480,120
93,78,360600,120
87,77,360720,120
81,76,360840,120
78,75,360960,120
81,75,361080,120
75,74,361200,120
69,73,361320,120
66,72,361440,120
69,72,361560,120
63,71,361680,120
57,70,361800,120
70,71,361920,240
58,71,361920,240
67,71,361920,240
63,71,361920,240
57,46,362160,130
58,46,362280,130
60,47,362400,130
62,47,362520,130
63,48,362640,130
64,49,362760,130
67,49,362880,130
65,50,363000,130
67,50,363120,130
65,51,363240,130
72,52,363360,130
70,52,363480,130
69,53,363600,130
70,53,363720,130
72,54,363840,130
74,54,363960,130
75,55,364080,130
76,56,364200,130
79,56,364320,130
77,57,364440,130
79,57,364560,130
77,58,364680,130
84,59,364800,130
82,59,364920,130
81,60,365040,130
82,60,365160,130
84,61,365280,130
86,61,365400,130
87,62,365520,130
88,63,365640,130
91,63,365760,130
89,64,365880,130
91,64,366000,130
89,65,366120,130
94,66,366240,240
81,64,366480,130
82,65,366600,130
84,65,366720,130
86,66,366840,130
87,67,366960,130
88,68,367080,130
91,71,367200,130
89,68,367320,130
91,71,367440,130
89,68,367560,130
94,68,367680,120
89,77,368340,60
101,89,368400,120
100,84,368520,120
99,83,368640,120
98,82,368760,120
96,81,368880,120
94,79,369000,120
93,78,369120,120
91,77,369240,120
89,76,369360,120
88,75,369480,120
87,74,369600,120
86,73,369720,120
84,72,369840,120
82,71,369960,120
81,70,370080,120
79,69,370200,120
77,68,370320,120
76,67,370440,120
75,66,370560,120
73,65,370680,120
71,64,370800,120
70,63,370920,120
68,62,371040,120
66,61,371160,120
65,60,371280,120
63,59,371400,120
61,58,371520,120
59,57,371640,120
58,56,371760,120
56,55,371880,120
54,57,372000,120
53,59,372120,120
51,62,372240,120
49,64,372360,120
47,66,372480,120
46,68,372600,120
44,70,372720,120
42,72,372840,120
41,75,372960,120
39,77,373080,120
37,79,373200,120
35,81,373320,120
67,78,374880,960
62,66,374880,960
58,66,374880,960
62,61,375840,480
56,61,375840,480
67,73,375840,480
55,65,376320,480
63,76,376320,480
63,66,377280,1440
67,66,377280,1440
75,78,377280,1440
74,73,378720,480
70,61,378720,480
63,61,378720,480
63,65,379200,1440
70,65,379200,1440
72,77,379200,1440
65,67,380640,960
74,79,380640,960
69,67,380640,960
63,63,381600,480
69,63,381600,480
74,74,381600,480
62,59,382080,480
70,71,382080,480
70,64,383520,960
82,75,383520,960
71,65,384480,480
83,77,384480,480
72,65,384960,180
84,77,384960,180
85,72,385248,180
82,60,385248,180
76,61,385536,180
84,73,385536,180
82,63,385824,180
83,74,385824,180
76,67,386112,168
84,79,386112,168
80,57,386280,120
84,69,386280,120
80,73,386400,240
92,87,386400,240
84,81,387600,240
75,69,387600,240
74,65,387840,180
82,77,387840,180
80,60,388128,180
84,72,388128,180
82,73,388416,180
74,61,388416,180
81,74,388704,180
80,63,388704,180
82,79,388992,168
74,67,388992,168
82,69,389160,120
79,57,389160,120
79,73,389280,240
91,87,389280,240
74,69,390480,240
82,81,390480,240
72,65,390720,180
80,77,390720,180
75,60,391008,180
82,72,391008,180
72,61,391296,180
80,73,391296,180
75,63,391584,180
79,74,391584,180
80,79,391872,168
72,67,391872,168
77,57,392040,120
80,69,392040,120
89,87,392160,240
77,73,392160,240
80,78,393120,480
77,78,393120,480
79,78,393600,360
77,66,393600,360
82,71,393960,120
77,69,394080,720
80,81,394080,720
79,75,394800,240
77,64,394800,240
75,63,395040,460
79,74,395040,460
75,67,395520,460
80,79,395520,460
81,84,396000,460
75,71,396000,460
68,71,396480,1440
70,71,396480,1440
77,71,396480,1440
82,84,396480,1440
68,66,397920,960
70,66,397920,960
74,66,397920,960
79,66,397920,960
82,78,397920,960
68,61,398880,480
79,61,398880,480
82,73,398880,480
70,61,398880,480
74,61,398880,480
67,65,399360,480
75,76,399360,480
79,72,400800,960
87,86,400800,960
75,72,400800,960
86,80,401760,480
82,67,401760,480
75,67,401760,480
82,71,402240,1440
75,71,402240,1440
84,85,402240,1440
86,87,403680,960
81,73,403680,960
77,73,403680,960
86,81,404640,480
81,69,404640,480
75,69,404640,480
74,65,405120,480
82,77,405120,480
82,78,406560,960
94,94,406560,960
82,74,407760,230
94,88,407760,230
82,78,408000,960
94,94,408000,960
60,65,409440,480
72,77,409440,960
62,61,410400,480
74,73,410400,480
63,57,410880,360
75,69,410880,90
77,69,410970,90
75,69,411060,180
62,53,411240,360
74,64,411240,360
63,53,411600,360
75,64,411600,360
79,64,411960,360
67,53,411960,360
74,53,411960,360
74,60,412320,960
68,66,412320,480
79,72,412320,1120
70,66,412800,480
68,61,413280,480
77,61,413440,160
75,61,413600,140
67,68,413760,1440
75,68,413760,1440
67,61,415840,160
68,57,416000,160
70,63,416160,160
74,68,416320,160
72,63,416480,160
70,70,416640,1440
67,57,418720,160
68,60,418880,160
70,65,419040,160
74,68,419200,160
72,61,419360,160
70,70,419520,1440
65,54,421600,160
68,59,421760,160
70,64,421920,160
74,68,422080,160
72,63,422240,160
70,70,422400,480
61,57,423040,480
63,56,423200,160
67,60,423360,160
72,65,423520,160
70,59,423680,160
68,65,423840,720
59,60,424560,480
63,62,424800,240
65,57,425040,240
67,70,425280,480
67,61,427360,160
68,58,427520,160
70,64,427680,160
74,68,427840,160
72,58,428000,160
70,72,428160,120
82,72,428400,120
94,87,428640,240
67,38,430240,160
68,42,430400,160
70,46,430560,160
74,50,430720,160
72,45,430880,160
70,56,431040,120
82,56,431280,120
94,67,431520,240
65,39,433120,160
68,42,433280,160
70,45,433440,160
74,48,433600,160
72,45,433760,160
70,56,433920,640
61,39,434560,480
63,43,434720,160
67,46,434880,160
72,50,435040,160
70,46,435200,160
68,51,435360,720
59,49,436080,480
63,51,436320,240
65,46,436560,240
67,62,436800,1680
67,51,438480,240
70,54,438720,240
79,55,438960,240
77,60,439200,240
75,55,439440,240
70,66,439680,1680
67,51,441360,240
70,54,441600,240
79,55,441840,240
77,60,442080,240
75,55,442320,240
74,66,442560,1680
70,51,444240,240
74,54,444480,240
82,55,444720,240
81,60,444960,240
79,55,445200,240
74,69,445440,1680
70,51,447120,240
74,54,447360,240
82,55,447600,240
81,60,447840,240
79,55,448080,240
74,59,448320,240
70,55,448560,240
74,54,448800,240
82,53,449040,240
81,56,449280,240
79,51,449520,240
74,56,449760,240
70,51,450000,240
74,51,450240,240
82,54,450480,240
81,50,450720,240
79,49,450960,240
74,48,451200,240
81,45,451440,240
84,52,451680,240
82,47,451920,240
79,50,452160,240
75,46,452400,240
70,45,452640,240
67,45,452880,240
60,43,453120,240
62,42,453360,240
65,41,453600,240
63,39,453840,240
60,38,455760,1200
62,37,456000,960
66,37,456240,240
70,41,456480,240
69,39,456720,240
67,37,456960,1440
62,28,457440,475
58,23,457440,475
58,23,457920,475
62,28,457920,475
74,41,458400,1440
67,28,458880,475
67,28,459360,475
72,39,459840,1440
67,28,460320,475
63,23,460320,475
67,28,460800,475
63,23,460800,475
60,40,461520,1200
62,37,461760,960
66,37,462000,240
70,41,462240,240
69,39,462480,240
67,37,462720,1440
62,28,463200,475
58,23,463200,475
58,23,463680,475
62,28,463680,475
64,37,464160,1440
57,23,464640,475
55,23,464640,475
61,28,464640,475
57,23,465120,475
61,28,465120,475
55,23,465120,475
66,37,465600,1440
62,23,466080,475
57,19,466080,475
54,19,466080,475
54,19,466560,475
57,19,466560,475
62,23,466560,475
60,40,467280,1200
62,37,467520,960
66,37,467760,240
70,41,468000,240
69,39,468240,240
67,37,468480,1440
58,23,468960,475
62,28,468960,475
58,23,469440,475
62,28,469440,475
74,58,469920,1440
67,29,470400,475
70,36,470400,475
67,29,470880,475
70,36,470880,475
76,59,471360,1440
67,29,471840,475
70,36,471840,475
67,29,472320,475
70,36,472320,475
58,40,473040,1200
61,37,473280,960
64,37,473520,240
69,41,473760,240
67,39,474000,240
67,37,474240,1440
61,27,474720,475
58,27,474720,475
64,33,474720,475
58,27,475200,475
64,33,475200,475
61,27,475200,475
76,62,475680,1440
73,39,476160,475
70,32,476160,475
67,32,476160,475
73,41,476640,475
70,32,476640,475
67,32,476640,475
78,64,477120,1440
67,35,477600,475
70,35,477600,475
73,41,477600,475
67,35,478080,475
70,35,478080,475
73,43,478080,475
76,63,478560,960
73,44,479040,475
70,36,479040,475
67,36,479040,475
78,67,479760,220
78,67,480000,1440
73,47,480480,475
67,37,480480,475
70,37,480480,475
70,37,480960,475
67,37,480960,475
73,47,480960,475
76,73,481440,960
67,40,481920,480
70,40,481920,480
73,50,481920,480
78,73,482640,220
78,73,482880,1440
73,52,483360,475
70,41,483360,475
67,41,483360,475
70,43,483840,475
67,43,483840,475
73,52,483840,475
76,75,484320,960
67,47,484800,480
70,47,484800,480
73,59,484800,480
78,77,485520,240
81,80,485760,1440
73,58,486240,475
70,58,486240,475
76,72,486240,475
76,73,486720,475
73,58,486720,475
70,58,486720,475
79,85,487200,960
70,62,487680,480
76,79,487680,480
73,62,487680,480
81,93,488160,480
74,86,488640,480
70,86,488640,480
82,101,488640,480
86,80,489360,220
94,95,489360,220
96,101,489600,220
87,86,489600,220
86,80,489840,220
94,95,489840,220
93,97,490080,220
84,82,490080,220
82,80,490320,220
91,95,490320,220
81,80,490560,220
90,94,490560,220
82,79,490800,220
91,93,490800,220
89,93,491040,220
81,79,491040,220
87,92,491400,90
79,78,491400,90
87,91,491520,220
79,77,491520,220
86,90,491760,220
78,75,491760,220
84,89,492000,220
75,74,492000,220
74,73,492240,220
82,86,492240,220
81,85,492480,220
72,72,492480,220
79,83,492720,220
70,70,492720,220
69,72,492960,140
78,85,492960,140
75,85,493120,140
72,72,493120,140
74,86,493280,140
72,73,493280,140
74,88,493440,90
71,74,493440,90
74,88,493536,90
70,74,493536,90
74,88,493632,90
69,74,493632,90
74,89,493728,90
68,74,493728,90
69,74,493824,90
74,89,493824,90
70,75,493920,100
74,90,493920,100
69,75,494040,100
74,90,494040,100
72,77,494160,100
74,91,494160,100
74,91,494280,100
70,77,494280,100
67,85,494400,100
74,91,494400,100
86,73,494640,100
91,73,494640,100
94,87,494640,100
81,76,494760,100
86,67,495000,100
91,79,495000,100
82,67,495000,100
91,87,495120,100
86,73,495120,100
82,73,495120,100
78,75,495240,100
79,67,495480,100
82,67,495480,100
86,79,495480,100
82,73,495600,100
79,73,495600,100
86,87,495600,100
73,78,495720,100
82,78,495960,100
79,66,495960,100
74,66,495960,100
74,73,496080,100
79,73,496080,100
82,87,496080,100
70,75,496200,100
84,78,496440,100
79,66,496440,100
75,66,496440,100
84,87,496560,100
79,73,496560,100
75,73,496560,100
74,75,496680,100
73,75,496800,100
72,75,496920,100
79,73,497040,100
84,87,497040,100
75,73,497040,100
74,74,497160,100
73,76,497280,100
72,76,497400,100
75,73,497520,100
78,73,497520,100
84,87,497520,100
74,76,497640,100
73,76,497760,100
72,76,497880,100
74,73,498000,100
78,73,498000,100
81,87,498000,100
72,76,498120,100
79,73,498240,240
82,87,498240,240
70,73,498240,240
74,73,498240,240
86,73,498480,100
94,87,498480,100
91,73,498480,100
81,76,498600,100
82,67,498840,100
91,79,498840,100
86,67,498840,100
91,87,498960,100
82,73,498960,100
86,73,498960,100
78,75,499080,100
79,67,499320,100
82,67,499320,100
86,79,499320,100
79,73,499440,100
82,73,499440,100
86,87,499440,100
73,78,499560,100
82,78,499800,100
79,66,499800,100
74,66,499800,100
74,73,499920,100
79,73,499920,100
82,87,499920,100
70,75,500040,100
79,66,500280,100
75,66,500280,100
84,78,500280,100
84,87,500400,100
79,73,500400,100
75,73,500400,100
74,75,500520,100
73,75,500640,100
72,75,500760,100
75,73,500880,100
79,73,500880,100
84,87,500880,100
74,74,501000,100
73,76,501120,100
72,76,501240,100
84,87,501360,100
78,73,501360,100
75,73,501360,100
74,76,501480,100
73,76,501600,100
72,76,501720,100
81,87,501840,100
78,73,501840,100
74,73,501840,100
72,76,501960,100
74,73,502080,240
70,73,502080,240
79,73,502080,240
82,87,502080,240
80,70,502320,120
92,72,502440,120
87,60,502440,120
80,72,502560,120
75,63,502680,120
80,75,502680,120
67,77,502800,240
79,77,502920,120
75,65,502920,120
66,87,503040,240
69,65,503160,120
78,77,503160,120
78,77,503280,120
90,77,503400,120
81,65,503400,120
79,87,503520,240
91,75,503640,120
82,64,503640,120
79,75,503760,120
70,64,503880,120
79,75,503880,120
68,77,504000,240
80,72,504120,120
75,60,504120,120
80,74,504240,240
87,65,504360,120
92,76,504360,120
80,76,504480,120
80,78,504600,120
75,65,504600,120
67,77,504720,240
79,77,504840,120
75,65,504840,120
66,87,504960,240
78,77,505080,120
69,65,505080,120
78,77,505200,120
81,65,505320,120
90,77,505320,120
79,87,505440,240
91,75,505560,120
82,64,505560,120
79,75,505680,120
70,64,505800,120
79,75,505800,120
65,77,505920,240
77,71,506040,120
68,59,506040,120
77,70,506160,120
80,59,506280,120
89,71,506280,120
77,68,506400,120
68,66,506520,120
75,77,506520,120
63,69,506640,240
68,57,506760,120
75,69,506760,120
62,77,506880,240
68,57,507000,120
74,69,507000,120
74,69,507120,120
86,69,507240,120
80,57,507240,120
74,77,507360,120
72,67,507480,120
68,56,507480,120
60,67,507600,120
68,56,507720,120
72,67,507720,120
60,77,507840,240
72,69,507960,120
63,57,507960,120
72,69,508080,240
84,69,508200,120
75,57,508200,120
72,77,508320,240
75,56,508440,120
84,67,508440,120
70,67,508560,240
74,56,508680,120
82,67,508680,120
70,77,508800,240
82,69,508920,120
74,57,508920,120
69,69,509040,240
72,57,509160,120
81,69,509160,120
67,77,509280,240
79,67,509400,120
70,56,509400,120
66,67,509520,240
69,56,509640,120
78,67,509640,120
79,87,509760,120
67,73,509760,120
70,73,509760,120
80,70,510000,240
92,72,510120,120
87,60,510120,120
80,72,510240,120
75,63,510360,120
80,75,510360,120
67,77,510480,240
75,65,510600,120
79,77,510600,120
66,87,510720,240
78,77,510840,120
69,65,510840,120
78,77,510960,120
90,77,511080,120
81,65,511080,120
79,87,511200,240
82,64,511320,120
91,75,511320,120
79,75,511440,120
70,64,511560,120
79,75,511560,120
68,77,511680,240
75,60,511800,120
80,72,511800,120
80,74,511920,240
92,76,512040,120
87,65,512040,120
80,76,512160,120
75,65,512280,120
80,78,512280,120
67,77,512400,240
79,77,512520,120
72,65,512520,120
66,87,512640,240
69,65,512760,120
78,77,512760,120
78,77,512880,120
81,65,513000,120
90,77,513000,120
79,87,513120,240
91,75,513240,120
82,64,513240,120
79,75,513360,120
70,64,513480,120
79,75,513480,120
65,77,513600,240
68,59,513720,120
77,71,513720,120
77,70,513840,120
80,59,513960,120
89,71,513960,120
77,68,514080,120
67,66,514200,120
75,77,514200,120
63,69,514320,240
67,57,514440,120
75,69,514440,120
62,77,514560,240
66,59,514680,120
74,71,514680,120
74,70,514800,120
78,59,514920,120
86,71,514920,120
74,68,515040,120
73,77,515160,120
64,66,515160,120
61,69,515280,240
73,69,515400,120
64,57,515400,120
60,77,515520,240
63,59,515640,120
72,71,515640,120
72,70,515760,240
75,59,515880,120
84,71,515880,120
71,68,516000,240
83,73,516120,120
75,64,516120,120
72,70,516240,240
84,70,516360,120
75,58,516360,120
72,79,516480,240
84,73,516600,120
75,61,516600,120
75,72,516720,240
78,61,516840,120
87,74,516840,120
74,71,516960,240
78,69,517080,120
86,81,517080,120
75,72,517200,240
78,60,517320,120
87,73,517320,120
75,82,517440,240
78,63,517560,120
87,75,517560,120
78,75,517680,240
82,64,517800,120
90,76,517800,120
77,73,517920,240
89,84,518040,120
80,71,518040,120
78,75,518160,240
90,75,518280,120
81,63,518280,120
78,86,518400,240
81,66,518520,120
90,78,518520,120
81,78,518640,240
93,79,518760,120
84,66,518760,120
82,76,518880,240
94,87,519000,120
86,74,519000,120
84,78,519120,240
96,78,519240,120
87,65,519240,120
84,89,519360,240
87,68,519480,120
96,81,519480,120
82,80,519600,240
86,68,519720,120
94,81,519720,120
82,77,519840,240
86,75,519960,120
94,89,519960,120
81,78,520080,240
93,78,520200,120
84,66,520200,120
81,89,520320,240
93,81,520440,120
84,68,520440,120
79,80,520560,240
82,68,520680,120
91,81,520680,120
79,77,520800,240
82,75,520920,120
91,89,520920,120
74,78,521040,240
78,66,521160,120
86,78,521160,120
82,77,521400,120
86,71,521520,120
94,84,521520,120
82,80,521640,120
94,82,521760,120
85,70,521760,120
82,79,521880,120
93,85,522000,120
84,72,522000,120
81,81,522120,120
93,88,522240,120
84,74,522240,120
81,79,522360,120
82,74,522480,120
91,87,522480,120
79,80,522600,120
82,75,522720,120
91,89,522720,120
79,79,522840,120
86,89,522960,120
78,75,522960,120
74,81,523080,120
86,87,523320,120
91,80,523440,120
94,80,523440,120
98,95,523440,120
86,86,523560,120
86,88,523920,120
82,74,523920,120
79,74,523920,120
74,78,524040,120
67,70,524400,120
70,70,524400,120
74,82,524400,120
62,76,524520,120
58,70,524880,120
62,82,524880,120
55,70,524880,120
50,64,525000,120
64,90,525360,120
58,75,525360,120
55,75,525360,120
50,77,525480,120
55,75,525840,120
58,75,525840,120
64,90,525840,120
50,81,525960,120
58,75,526320,120
55,75,526320,120
64,90,526320,120
50,77,526440,120
58,75,526800,120
55,75,526800,120
64,90,526800,120
50,81,526920,120
55,54,527520,80
56,54,527600,80
57,55,527680,80
58,55,527760,80
59,56,527840,80
60,56,527920,80
61,56,528000,80
62,57,528080,80
63,57,528160,80
64,58,528240,80
65,58,528320,80
66,58,528400,80
67,59,528480,80
68,59,528560,80
69,60,528640,80
70,60,528720,80
71,60,528800,80
72,61,528880,80
73,61,528960,80
74,63,529040,80
75,63,529120,80
76,64,529200,80
77,64,529280,80
78,64,529360,80
79,65,529440,80
80,65,529520,80
81,66,529600,80
82,66,529680,80
83,66,529760,80
84,67,529840,80
85,67,529920,80
86,68,530000,80
87,68,530080,80
88,68,530160,80
89,69,530240,80
90,69,530320,80
91,70,530400,80
92,70,530480,80
93,70,530560,80
94,71,530640,80
95,71,530720,80
97,72,530800,80
99,88,530880,120
98,80,531000,120
101,80,531120,120
99,81,531240,120
98,79,531360,120
96,79,531480,120
95,79,531600,120
98,79,531720,120
96,79,531840,120
94,79,531960,120
93,79,532080,120
91,79,532200,120
90,79,532320,120
93,79,532440,120
91,79,532560,120
90,84,532680,120
87,80,532800,120
86,80,532920,120
87,80,533040,120
86,79,533160,120
89,79,533280,120
87,79,533400,120
86,78,533520,120
84,77,533640,120
83,77,533760,120
86,76,533880,120
84,76,534000,120
82,75,534120,120
81,75,534240,120
79,75,534360,120
78,75,534480,120
81,75,534600,120
79,75,534720,120
78,75,534840,120
75,75,534960,120
74,75,535080,120
75,74,535200,120
74,74,535320,120
77,74,535440,120
75,74,535560,120
74,74,535680,120
72,74,535800,120
71,74,535920,120
74,73,536040,120
72,73,536160,120
70,73,536280,120
69,73,536400,120
67,73,536520,120
66,74,536640,120
63,75,536760,120
62,76,536880,120
60,76,537000,120
58,76,537120,120
57,79,537240,120
55,81,537360,120
54,83,537480,120
51,84,537600,120
50,84,537720,120
48,85,537840,120
46,86,537960,120
45,88,538080,120
43,89,538200,120
42,91,538320,120
39,93,538440,120
38,94,538560,120
36,94,538680,120
34,95,538800,120
33,97,538920,120
45,75,540120,120
46,75,540240,120
48,76,540360,120
50,77,540480,120
52,77,540600,120
54,78,540720,120
55,78,540840,120
57,79,540960,120
58,80,541080,120
60,80,541200,120
62,81,541320,120
64,81,541440,120
66,82,541560,120
67,83,541680,120
69,83,541800,120
70,84,541920,120
72,84,542040,120
74,85,542160,120
76,86,542280,120
78,86,542400,120
79,89,542520,120
46,85,544920,600
48,71,545520,120
50,71,545640,120
52,71,545760,120
54,72,545880,120
55,72,546000,120
57,72,546120,120
58,73,546240,120
60,73,546360,120
62,73,546480,120
64,74,546600,120
66,74,546720,120
67,74,546840,120
69,75,546960,120
70,75,547080,120
72,75,547200,120
74,76,547320,120
76,76,547440,120
78,76,547560,120
79,77,547680,120
81,77,547800,120
82,77,547920,120
84,78,548040,120
86,78,548160,120
88,78,548280,120
90,79,548400,120
91,79,548520,120
93,79,548640,120
94,87,548760,120
50,37,549240,360
62,45,549240,360
58,37,549240,360
55,37,549240,360
50,37,549600,120
62,45,549600,120
58,37,549600,120
55,37,549600,120
55,37,549720,480
50,37,549720,480
58,37,549720,480
62,45,549720,480
62,94,550280,80
67,94,550360,80
70,99,550440,80
75,100,550520,80
74,94,550600,70
74,94,550680,120
100,104,551130,130
88,109,551160,100
99,106,551290,130
87,108,551320,100
98,104,551450,130
86,107,551480,100
97,100,551610,130
85,106,551640,100
96,102,551770,130
84,103,551800,100
95,103,551930,130
83,102,551960,100
94,102,552090,130
82,101,552120,100
93,101,552250,130
81,100,552280,100
92,99,552410,130
80,99,552440,100
79,88,552600,120
91,98,552600,120
90,97,552760,120
78,87,552760,120
89,97,552920,120
77,87,552920,120
76,86,553080,120
88,96,553080,120
87,95,553240,120
75,85,553240,120
74,84,553400,120
86,94,553400,120
85,93,553560,120
73,83,553560,120
84,91,553720,120
72,81,553720,120
83,95,553880,120
71,85,553880,120
70,89,554040,120
82,99,554040,120
81,103,554200,120
69,92,554200,120
68,97,554360,120
80,108,554360,120
67,96,554520,480
79,113,554520,480
86,92,555480,960
82,92,555480,960
91,108,555480,960
94,108,555480,960
55,117,556440,960
36,74,1,1199
39,66,1200,240
44,70,1440,240
46,64,1680,240
48,70,1920,240
44,63,2160,240
51,63,2400,240
58,55,2640,240
60,58,2880,240
56,54,3120,240
63,62,3360,240
70,54,3600,240
72,57,3840,240
67,48,4080,240
70,53,4320,240
68,35,4560,240
67,32,4800,480
66,27,5280,240
66,34,6000,240
67,37,6240,240
66,34,6480,240
65,37,6720,240
66,34,6960,240
69,38,7200,160
67,34,7360,160
63,37,7520,160
63,36,7680,360
62,33,8040,120
65,34,8160,160
63,33,8320,160
62,26,8480,144
62,24,8640,480
55,42,10560,960
51,42,10560,960
60,42,10560,960
50,44,11520,1920
55,48,11640,1800
63,56,11760,1680
38,46,14880,240
43,27,16800,475
43,27,17280,475
58,25,18240,475
58,25,18720,475
57,22,19680,475
57,22,20160,475
38,46,21120,240
38,46,21600,240
43,27,22560,475
43,27,23040,475
45,25,24000,475
45,25,24480,475
38,19,25440,475
38,19,25920,475
50,46,26880,475
50,46,27360,475
43,27,28320,475
43,27,28800,475
64,25,29760,475
64,25,30240,475
65,28,31200,475
65,28,31680,475
41,46,32640,475
41,46,33120,475
46,19,34080,475
46,19,34560,475
58,21,35520,475
58,21,36000,475
57,27,36960,475
57,27,37440,475
38,46,38400,475
38,46,38880,475
43,27,39840,475
43,27,40320,475
58,25,41280,475
58,25,41760,475
57,22,42720,475
57,22,43200,475
38,46,44160,475
38,46,44640,475
43,27,45600,475
43,27,46080,475
45,21,47040,475
45,21,47520,475
38,17,48480,475
38,17,48960,475
50,46,49920,475
50,46,50400,475
55,27,51360,475
55,27,51840,475
43,28,52800,475
43,28,53280,475
48,32,54240,960
36,35,54240,475
55,43,54720,475
50,31,55680,960
38,34,55680,475
55,44,56160,475
51,33,57120,960
39,36,57120,475
55,43,57600,475
50,28,58560,960
38,31,58560,475
55,36,59040,475
47,52,59520,240
48,42,59760,240
50,42,60000,240
48,42,60240,240
55,51,60480,480
49,53,60960,240
50,43,61200,240
51,47,61440,240
50,42,61680,240
55,52,61920,480
50,57,62400,240
51,48,62640,240
53,48,62880,240
51,48,63120,240
55,54,63360,360
51,36,63720,4
52,36,63760,40
53,35,63800,40
52,35,63840,60
53,36,63900,60
52,36,63960,60
53,37,64020,60
52,37,64080,60
53,38,64140,60
52,38,64200,60
53,39,64260,60
52,39,64320,60
53,39,64380,60
52,40,64440,60
53,40,64500,60
52,42,64560,60
53,42,64620,60
52,43,64680,60
53,43,64740,60
52,44,64800,60
53,44,64860,60
52,46,64920,60
53,46,64980,60
52,47,65040,60
51,47,65100,90
52,48,65190,90
53,55,65280,1920
40,37,67200,480
52,46,67200,480
41,37,67680,480
53,46,67680,480
42,42,68160,1920
54,51,68160,1920
41,34,70080,480
53,40,70080,480
42,37,70560,480
54,44,70560,480
43,40,71040,2880
55,48,71040,2880
38,32,73920,2880
50,38,73920,2880
39,33,76800,2880
51,39,76800,2880
36,39,79680,1440
48,39,79680,1440
38,33,81120,1440
50,39,81120,1440
37,33,82560,480
49,39,82560,480
52,30,83040,475
57,30,83040,475
64,36,83040,475
52,28,83520,475
57,28,83520,475
64,34,83520,475
52,28,84000,475
57,28,84000,475
64,34,84000,475
52,28,84480,475
57,28,84480,475
64,34,84480,475
52,29,84960,475
57,29,84960,475
64,35,84960,475
36,36,85440,480
48,42,85440,480
53,33,85920,475
57,33,85920,475
63,33,85920,475
65,39,85920,475
53,33,86400,475
57,33,86400,475
63,33,86400,475
65,39,86400,475
53,33,86880,475
57,33,86880,475
63,33,86880,475
65,39,86880,475
53,33,87360,475
57,33,87360,475
63,33,87360,475
65,39,87360,475
53,33,87840,475
57,33,87840,475
63,33,87840,475
65,39,87840,475
34,38,88320,480
46,45,88320,480
50,31,88800,480
53,31,88800,480
58,39,88800,480
53,33,89280,480
58,33,89280,480
62,39,89280,480
39,40,89760,480
51,31,90240,480
55,31,90240,480
60,37,90240,480
55,31,90720,480
60,31,90720,480
63,37,90720,480
38,42,91200,480
55,29,91680,480
58,29,91680,480
63,35,91680,480
62,35,92160,960
58,29,92160,960
55,29,92160,480
50,39,92640,1440
61,35,93120,480
58,29,93120,480
57,30,93600,480
60,36,93600,480
43,36,94080,240
65,28,94560,480
58,19,94560,960
55,19,94560,960
63,29,95040,480
42,38,95520,240
63,28,96000,480
54,19,96000,960
57,19,96000,960
62,29,96480,480
43,38,96960,240
65,30,97440,480
58,20,97440,960
55,20,97440,960
63,30,97920,480
41,40,98400,240
59,20,98880,960
63,30,98880,480
53,20,98880,960
56,20,98880,960
62,30,99360,480
39,41,99840,240
62,32,100320,480
55,21,100320,960
51,21,100320,960
60,32,100800,480
36,42,101280,240
58,31,101760,480
51,26,101760,960
57,32,102240,480
38,43,102720,240
55,33,103200,480
60,28,103200,960
50,28,103200,960
54,33,103680,480
38,44,104160,240
57,37,104640,480
50,38,105120,480
55,59,105600,240
43,59,105600,240
65,43,106080,480
55,36,106080,960
58,36,106560,480
63,43,106560,480
54,62,107040,240
42,62,107040,240
63,41,107520,480
54,35,107520,960
57,35,108000,480
62,42,108000,480
55,61,108480,240
43,61,108480,240
65,44,108960,480
55,36,108960,960
58,37,109440,480
63,44,109440,480
53,63,109920,240
41,63,109920,240
63,43,110400,480
53,36,110400,960
56,36,110880,480
59,36,110880,480
62,43,110880,480
51,62,111360,240
39,62,111360,240
62,45,111840,480
51,38,111840,960
55,38,112320,480
60,45,112320,480
48,66,112800,240
36,66,112800,240
58,44,113280,480
48,37,113280,960
51,37,113760,480
57,44,113760,480
38,64,114240,240
45,46,114720,480
55,46,114720,480
48,39,115200,480
54,47,115200,480
38,67,115680,240
45,51,116160,480
51,51,116160,480
48,51,116640,480
50,51,116640,720
43,51,117120,240
31,32,117360,240
43,38,117360,240
50,51,117840,240
43,38,117840,240
43,32,118080,480
51,43,118080,120
50,45,118200,120
48,43,118560,960
43,43,118560,960
51,51,118560,960
57,49,118800,720
43,43,119520,240
55,51,119520,240
63,55,119760,240
51,46,119760,240
50,46,120000,120
62,51,120000,120
43,32,120240,480
55,38,120240,480
62,45,120720,240
55,38,120720,240
55,32,120960,480
63,43,120960,120
62,45,121080,120
60,43,121440,960
55,43,121440,960
63,51,121440,960
69,49,121680,720
55,43,122400,240
67,51,122400,240
75,55,122640,240
63,46,122640,240
67,55,122880,120
74,55,122880,120
75,66,123600,240
63,38,123600,240
66,38,123600,240
69,48,123600,240
74,52,123840,240
62,52,124080,240
55,55,124320,120
62,51,124560,480
74,51,124800,240
66,38,125040,240
63,38,125040,240
75,66,125040,240
69,48,125040,240
74,50,125280,240
62,53,125520,240
55,55,125760,240
50,51,126240,240
54,38,126480,240
63,66,126480,240
57,48,126480,240
51,38,126480,240
62,50,126720,240
50,53,126960,240
43,49,127200,120
50,45,127440,480
62,45,127680,240
63,57,127920,240
51,34,127920,240
54,34,127920,240
57,42,127920,240
62,45,128160,240
50,47,128400,240
43,58,128640,240
58,45,128880,240
50,45,128880,240
37,46,129360,240
49,58,129360,240
38,39,129600,240
50,45,129600,240
43,49,130080,240
31,49,130080,240
46,38,130320,240
37,49,130800,240
38,38,131040,240
43,49,131520,240
31,49,131520,240
36,45,132000,240
31,49,132240,240
43,49,132240,240
36,45,132720,240
31,49,132960,240
43,49,132960,240
36,45,133440,240
43,49,133680,240
31,49,133680,240
36,45,134160,240
31,41,134400,720
43,49,134400,720
62,48,135360,220
67,57,135360,220
62,53,135600,220
55,45,135600,220
62,48,135840,480
67,57,135840,480
38,49,137040,240
31,44,137280,1200
43,52,137280,1200
38,47,138480,240
30,44,138720,1200
42,52,138720,1200
38,47,139920,240
43,49,140160,720
31,41,140160,720
55,57,141120,220
50,48,141120,220
43,45,141360,220
50,53,141360,220
50,48,141600,480
55,57,141600,480
38,49,142800,240
42,52,143040,1200
30,44,143040,1200
38,47,144240,240
41,52,144480,1200
29,44,144480,1920
43,47,145680,240
45,49,145920,480
60,44,146880,220
65,52,146880,220
60,44,147120,220
53,36,147120,220
65,52,147360,1200
60,44,147360,1200
53,35,148560,240
60,41,148560,240
65,46,148800,1200
60,39,148800,1200
53,31,150000,240
60,36,150000,240
60,34,150240,480
65,40,150240,480
53,28,150720,240
60,34,150720,240
65,37,150960,240
60,31,150960,240
53,30,151200,230
60,36,151200,230
34,36,151680,480
46,29,152160,480
56,29,152640,480
53,31,153120,480
60,31,153600,480
58,31,154080,480
39,36,154560,480
46,27,155040,480
51,26,155520,480
55,32,156000,480
58,31,156480,480
63,31,156960,480
60,33,157440,480
63,30,157920,480
53,25,158400,480
63,33,158880,480
67,30,159360,480
65,30,159840,480
46,36,160320,480
53,29,160800,480
58,29,161280,480
62,32,161760,480
65,32,162240,480
70,32,162720,480
60,36,163200,480
63,30,163680,480
53,30,164160,480
58,33,164640,480
62,26,165120,480
68,28,165600,480
58,36,166080,480
62,29,166560,480
51,29,167040,480
56,28,167520,480
60,29,168000,480
67,29,168480,480
56,36,168960,480
60,31,169440,480
50,32,169920,480
55,30,170400,480
59,36,170880,480
65,30,171360,480
55,36,171840,480
60,31,172320,480
48,31,172800,480
53,33,173280,480
57,33,173760,480
63,33,174240,480
53,36,174720,480
56,29,175200,480
46,29,175680,480
56,31,176160,480
60,31,176640,480
58,31,177120,480
39,36,177600,480
46,30,178080,480
51,27,178560,480
55,31,179040,480
58,31,179520,480
63,28,180000,480
60,30,180480,480
63,30,180960,480
53,25,181440,480
63,33,181920,480
67,30,182400,480
65,30,182880,480
46,36,183360,480
53,32,183840,480
58,32,184320,480
62,34,184800,480
65,37,185280,480
70,42,185760,480
36,44,186240,480
64,30,186720,480
58,26,187200,480
55,30,187680,1440
64,27,188160,480
58,27,188640,480
53,36,189120,1440
63,31,189600,480
57,31,190080,480
46,36,190560,480
62,31,191040,480
56,31,191520,480
39,38,192000,240
46,26,192240,240
55,31,192480,240
51,27,192720,240
58,31,192960,240
55,27,193200,240
63,32,193440,480
39,32,194880,240
46,22,195120,240
55,26,195360,240
51,22,195600,240
58,26,195840,240
55,22,196080,240
63,27,196320,480
39,32,197760,240
46,22,198000,240
56,26,198240,240
53,22,198480,240
58,26,198720,240
56,22,198960,240
62,27,199200,480
39,32,200640,240
46,25,200880,240
55,28,201120,480
39,32,202080,240
51,25,202320,240
56,29,202560,480
39,32,203520,240
46,22,203760,240
55,26,204000,240
51,22,204240,240
58,26,204480,240
55,22,204720,240
63,27,204960,480
39,32,206400,240
46,22,206640,240
55,26,206880,240
51,22,207120,240
58,26,207360,240
55,22,207600,240
63,27,207840,480
39,32,209280,240
46,22,209520,240
56,26,209760,240
53,22,210000,240
58,26,210240,240
56,22,210480,240
62,27,210720,480
39,32,212160,240
46,25,212400,240
55,28,212640,480
39,32,213600,240
51,25,213840,240
56,29,214080,480
39,32,215040,240
46,22,215280,240
55,26,215520,240
51,22,215760,240
58,26,216000,240
55,22,216240,240
63,27,216480,480
43,32,217920,240
50,22,218160,240
58,26,218400,240
55,22,218640,240
62,26,218880,240
58,22,219120,240
67,27,219360,480
46,32,220800,240
53,22,221040,240
62,26,221280,240
58,22,221520,240
65,26,221760,240
62,22,222000,240
70,27,222240,480
50,31,223680,240
57,26,223920,240
65,31,224160,240
62,26,224400,240
69,31,224640,240
65,26,224880,240
52,28,226560,1440
40,25,227040,480
40,25,227520,480
40,39,228480,240
40,39,228960,240
40,22,229920,475
40,22,230400,475
64,34,230880,1440
52,21,231360,475
57,21,231360,475
57,21,231840,475
52,21,231840,475
62,34,232320,1440
57,22,232800,475
52,22,232800,475
52,22,233280,475
57,22,233280,475
40,39,234240,240
40,39,234720,240
40,22,235680,475
40,22,236160,475
54,31,236640,1440
40,21,237120,475
40,21,237600,475
56,31,238080,1440
40,16,238560,475
40,16,239040,475
40,39,240000,475
40,39,240480,475
40,22,241440,475
40,22,241920,475
64,41,242400,1440
60,24,242880,475
52,19,242880,475
57,19,242880,475
52,19,243360,475
60,24,243360,475
57,19,243360,475
66,41,243840,1440
52,19,244320,475
60,24,244320,475
57,19,244320,475
60,24,244800,475
52,19,244800,475
57,19,244800,475
40,39,245760,475
40,39,246240,475
40,22,247200,475
40,22,247680,475
66,45,248160,1440
52,21,248640,475
60,26,248640,475
57,21,248640,475
57,21,249120,475
52,21,249120,475
60,26,249120,475
68,47,249600,1440
52,21,250080,475
60,28,250080,475
57,21,250080,475
57,21,250560,475
52,21,250560,475
60,28,250560,475
66,50,251040,960
57,23,251520,480
52,23,251520,480
60,28,251520,480
68,53,252240,220
68,53,252480,1440
52,25,252960,475
60,32,252960,475
57,25,252960,475
52,26,253440,475
60,33,253440,475
57,26,253440,475
66,57,253920,960
60,34,254400,480
52,27,254400,480
57,27,254400,480
68,59,255120,220
68,59,255360,1440
52,29,255840,475
57,29,255840,475
60,36,255840,475
52,29,256320,475
60,37,256320,475
57,29,256320,475
66,65,256800,960
57,31,257280,480
52,31,257280,480
60,39,257280,480
68,61,258000,240
69,63,258240,1440
57,34,258720,475
52,34,258720,475
60,41,258720,475
60,46,259200,475
52,34,259200,475
57,34,259200,475
68,74,259680,780
57,35,260160,300
52,35,260160,300
60,46,260160,300
52,35,260460,660
57,36,260520,600
60,46,260580,540
69,80,260640,480
28,70,261120,480
40,84,261120,480
52,61,261600,480
62,72,261600,480
56,61,261600,480
62,61,262080,480
64,73,262080,480
56,61,262080,480
68,84,262560,480
59,70,262560,480
62,70,262560,480
64,72,263040,480
56,61,263040,480
62,61,263040,480
62,73,263520,480
52,61,263520,480
56,61,263520,480
45,84,264000,480
33,70,264000,480
52,61,264480,480
61,73,264480,480
57,62,264960,480
64,74,264960,480
61,70,265440,480
69,84,265440,480
64,73,265920,480
57,61,265920,480
61,73,266400,480
52,61,266400,480
47,84,266880,480
35,70,266880,480
59,73,267360,480
54,61,267360,480
63,73,267840,480
57,61,267840,480
66,84,268320,480
59,70,268320,480
57,61,268800,480
63,72,268800,480
59,72,269280,480
54,61,269280,480
52,84,269760,480
40,70,269760,480
52,62,270240,480
59,74,270240,480
56,62,270720,480
64,74,270720,480
68,84,271200,480
59,70,271200,480
56,62,271680,480
64,74,271680,480
59,74,272160,480
52,62,272160,480
42,70,272640,480
54,84,272640,480
54,62,273120,480
62,74,273120,480
69,74,273600,480
57,62,273600,480
35,70,274080,480
47,84,274080,480
54,62,274560,480
62,74,274560,960
69,74,275040,480
59,62,275040,480
52,84,275520,480
40,70,275520,480
52,62,276000,480
61,74,276000,480
56,62,276480,480
68,74,276480,480
45,84,276960,480
33,70,276960,480
61,74,277440,960
52,62,277440,480
68,74,277920,480
57,62,277920,480
38,70,278400,480
50,84,278400,480
50,62,278880,480
59,74,278880,480
54,62,279360,480
66,74,279360,480
37,70,279840,480
49,84,279840,480
61,74,280320,480
56,62,280320,480
65,74,280800,480
59,62,280800,480
42,84,281280,480
30,70,281280,480
54,62,281760,960
61,74,281760,480
57,62,282240,480
66,74,282240,480
35,70,282720,480
47,84,282720,480
59,74,283200,480
53,62,283200,960
63,74,283680,480
57,62,283680,480
40,84,284160,480
28,70,284160,480
56,72,284640,480
47,61,284640,480
59,73,285120,480
52,61,285120,480
56,70,285600,480
62,84,285600,480
59,72,286080,480
52,61,286080,480
47,61,286560,480
56,73,286560,480
33,70,287040,480
45,84,287040,480
52,61,287520,480
61,73,287520,480
57,62,288000,480
64,74,288000,480
61,70,288480,480
69,84,288480,480
64,73,288960,480
57,61,288960,480
61,73,289440,480
52,61,289440,480
35,70,289920,480
47,84,289920,480
59,73,290400,480
54,61,290400,480
63,73,290880,480
57,61,290880,480
59,70,291360,480
66,84,291360,480
57,61,291840,480
63,72,291840,480
59,72,292320,480
54,61,292320,480
52,84,292800,480
40,70,292800,480
52,62,293280,480
59,74,293280,480
56,62,293760,480
64,74,293760,480
59,70,294240,480
68,84,294240,480
56,62,294720,480
64,74,294720,480
59,74,295200,480
52,62,295200,480
52,84,295680,480
40,70,295680,480
58,74,296160,480
52,62,296160,480
61,74,296640,480
54,62,296640,480
58,70,297120,480
64,84,297120,480
54,62,297600,480
61,74,297600,480
52,62,298080,480
58,74,298080,480
28,70,298560,480
40,84,298560,480
52,62,299040,480
58,74,299040,480
54,62,299520,480
61,74,299520,480
64,84,300000,480
58,70,300000,480
61,74,300480,480
54,62,300480,480
52,62,300960,480
58,74,300960,480
40,70,301440,480
52,84,301440,480
52,62,301920,480
60,74,301920,480
56,62,302400,480
63,74,302400,480
66,84,302880,480
60,70,302880,480
56,62,303360,480
63,74,303360,480
52,62,303840,480
60,74,303840,480
40,84,304320,480
28,70,304320,480
52,62,304800,480
59,74,304800,480
56,62,305280,480
63,74,305280,480
60,70,305760,480
66,84,305760,480
63,74,306240,480
56,62,306240,480
60,74,306720,480
52,62,306720,480
40,70,307200,480
52,84,307200,480
52,74,307680,480
61,62,307680,480
56,62,308160,480
64,74,308160,480
39,70,308640,480
51,84,308640,480
51,62,309120,480
59,74,309120,480
63,74,309600,480
56,62,309600,480
37,70,310080,480
49,84,310080,480
56,74,310560,480
49,62,310560,480
61,75,311040,480
52,63,311040,480
32,72,311520,480
44,88,311520,480
47,66,312000,480
56,79,312000,480
51,67,312480,480
59,80,312480,480
41,88,312960,240
29,72,312960,240
53,52,313590,570
59,54,313620,540
63,56,313650,510
68,59,313680,480
34,44,315840,240
50,34,316080,240
34,44,316560,240
50,34,316800,240
34,46,317280,240
50,34,317520,240
34,48,318000,240
50,34,318240,240
50,49,318720,240
65,34,318960,240
50,52,319440,240
65,36,319680,240
50,53,320160,240
65,38,320400,240
50,55,320880,240
65,40,321120,240
34,50,321600,240
56,45,322320,240
53,37,322320,240
46,37,322320,240
53,37,323040,240
62,45,323040,240
56,37,323040,240
62,36,323760,240
56,36,323760,240
65,44,323760,240
68,43,324480,240
58,36,324480,240
65,36,324480,240
65,35,325200,240
68,35,325200,240
74,42,325200,240
68,39,325920,240
74,39,325920,240
77,46,325920,240
80,45,326640,240
77,38,326640,240
70,38,326640,240
77,37,327360,2160
80,37,327360,2160
86,44,327360,2160
84,44,329520,720
75,37,329520,720
80,37,329520,720
75,37,330240,720
84,44,330240,720
80,37,330240,960
74,37,330960,240
82,44,330960,240
51,42,333120,120
63,28,333360,480
67,28,333360,480
72,48,333360,240
70,35,333600,240
46,41,333840,120
62,23,334080,480
68,27,334080,480
57,33,334080,240
58,33,334320,240
51,42,334560,120
67,28,334800,480
63,28,334800,480
72,48,334800,240
70,35,335040,240
46,41,335280,120
62,23,335520,480
57,33,335520,240
68,27,335520,480
58,33,335760,240
51,42,336000,120
58,28,336240,480
63,28,336240,480
68,48,336240,240
67,36,336480,240
44,43,336720,120
60,29,336960,480
67,50,336960,240
56,29,336960,480
65,37,337200,240
46,45,337440,120
63,50,337680,240
53,29,337680,480
56,29,337680,480
62,36,337920,240
46,41,338160,120
53,27,338400,480
56,27,338400,480
60,46,338400,240
58,34,338640,240
51,42,338880,120
63,28,339120,480
67,28,339120,480
72,48,339120,240
70,35,339360,240
46,41,339600,120
57,33,339840,240
68,27,339840,480
62,23,339840,480
58,33,340080,240
51,42,340320,120
72,48,340560,240
63,28,340560,480
67,28,340560,480
70,35,340800,240
46,41,341040,120
62,23,341280,480
68,27,341280,480
57,33,341280,240
58,33,341520,240
51,42,341760,120
67,28,342000,480
77,48,342000,240
70,28,342000,480
75,36,342240,240
44,43,342480,120
67,50,342720,240
60,29,342720,480
56,29,342720,480
65,37,342960,240
46,48,343200,240
62,38,343680,240
56,38,343680,240
53,38,343680,240
56,38,343920,240
53,38,343920,240
62,38,343920,240
53,38,344160,240
56,38,344160,240
62,38,344160,240
56,38,344400,240
62,38,344400,240
53,38,344400,240
58,49,344640,240
61,58,344640,240
51,49,344640,240
51,49,345000,120
39,41,345000,120
51,50,345120,120
39,41,345120,120
56,42,345360,120
60,51,345360,120
43,42,345600,120
55,51,345600,120
42,44,345840,120
54,52,345840,120
57,49,346080,240
63,58,346080,240
53,49,346440,120
41,41,346440,120
41,41,346560,120
53,50,346560,120
62,51,346800,120
58,42,346800,120
45,42,347040,120
57,51,347040,120
44,44,347280,120
56,52,347280,120
59,49,347520,240
65,58,347520,240
43,41,347880,120
55,49,347880,120
43,41,348000,120
55,50,348000,120
63,51,348240,120
60,42,348240,120
48,51,348480,240
36,42,348480,240
56,46,348960,240
63,53,348960,240
47,62,349200,240
56,42,349680,240
62,51,349680,240
46,60,349920,240
51,37,350400,240
39,31,350400,240
43,31,350640,240
55,37,350640,240
56,38,350880,240
44,32,350880,240
55,46,351120,240
43,38,351120,240
39,33,351360,240
51,39,351360,240
46,34,351600,240
58,41,351600,240
45,39,351840,240
57,49,351840,240
41,36,352080,240
53,44,352080,240
46,45,352320,240
58,45,352320,240
45,44,352560,240
57,53,352560,240
41,38,352800,240
53,47,352800,240
60,49,353040,240
48,39,353040,240
59,59,353280,240
47,52,353280,240
43,43,353520,240
55,52,353520,240
60,53,353760,240
48,43,353760,240
59,63,354000,240
47,54,354000,240
55,55,354240,240
43,46,354240,240
62,55,354480,240
50,47,354480,240
49,56,354720,240
61,68,354720,240
45,48,354960,240
57,57,354960,240
52,62,355200,240
64,75,355200,240
51,50,355440,240
63,59,355440,240
47,60,355680,240
59,74,355680,240
50,53,355920,240
62,62,355920,240
37,61,356160,240
49,73,356160,240
61,44,356520,120
57,44,356520,120
69,53,356520,120
66,53,356520,120
69,55,356640,240
66,55,356640,240
61,46,356640,240
57,46,356640,240
66,56,356880,240
69,56,356880,240
57,47,356880,240
61,47,356880,240
69,58,357120,240
61,49,357120,240
57,49,357120,240
66,58,357120,240
57,50,357360,240
66,59,357360,240
69,59,357360,240
61,50,357360,240
57,60,357600,720
69,72,357600,720
61,60,357600,720
66,72,357600,720
37,58,358800,240
49,69,358800,240
48,86,359040,240
36,73,359040,240
54,45,359400,120
63,53,359400,120
57,45,359400,120
63,55,359520,240
54,47,359520,240
57,47,359520,240
54,54,359760,240
57,54,359760,240
63,65,359760,240
36,60,360240,240
48,72,360240,240
35,74,360480,240
47,88,360480,240
63,59,360840,120
54,50,360840,120
57,50,360840,120
63,58,360960,240
54,49,360960,240
57,49,360960,240
57,48,361200,240
54,48,361200,240
63,57,361200,240
47,72,361680,240
35,60,361680,240
46,88,361920,240
34,74,361920,240
63,44,362880,240
57,44,362880,240
60,44,362880,240
58,43,363120,240
62,43,363120,240
56,43,363120,240
58,47,363360,240
55,47,363360,240
63,47,363360,240
69,46,364320,240
72,46,364320,240
75,46,364320,240
70,46,364560,240
74,46,364560,240
68,46,364560,240
67,46,364800,240
75,46,364800,240
70,46,364800,240
87,56,365760,240
81,56,365760,240
84,56,365760,240
82,56,366000,240
80,56,366000,240
86,56,366000,240
82,57,366240,240
79,57,366240,240
87,57,366240,240
81,58,367200,240
84,58,367200,240
87,58,367200,240
82,58,367440,240
80,58,367440,240
86,58,367440,240
82,59,367680,240
87,59,367680,240
79,59,367680,240
69,72,368400,240
60,72,368400,240
63,72,368400,240
65,72,368400,240
47,69,370470,330
51,73,370500,300
56,77,370530,270
63,80,370560,240
35,91,372000,240
34,80,373440,240
41,55,373680,240
46,55,373920,240
50,55,374160,240
46,55,374400,240
41,55,374640,240
34,66,374880,240
41,55,375120,240
46,55,375360,240
53,55,375600,240
46,55,375840,240
41,55,376080,240
39,60,376320,240
46,54,376560,240
51,54,376800,240
55,54,377040,240
51,54,377280,240
46,53,377520,240
39,60,377760,240
48,53,378000,240
51,53,378240,240
58,53,378480,240
51,53,378720,240
48,53,378960,240
41,60,379200,240
48,52,379440,240
51,52,379680,240
58,53,379920,240
51,53,380160,240
48,53,380400,240
41,60,380640,240
48,53,380880,240
51,53,381120,240
57,54,381360,240
51,54,381600,240
48,54,381840,240
46,59,382080,240
53,51,382320,240
58,51,382560,240
62,51,382800,240
58,51,383040,240
53,51,383280,240
46,54,383520,240
53,51,383760,240
58,51,384000,240
65,51,384240,240
58,51,384480,240
53,51,384720,240
46,58,384960,240
55,47,385200,240
60,48,385440,240
64,50,385680,240
60,51,385920,240
55,53,386160,240
46,54,386400,240
56,51,386640,240
60,51,386880,240
65,51,387120,240
60,51,387360,240
56,51,387600,240
46,58,387840,240
53,47,388080,240
56,48,388320,240
62,50,388560,240
56,51,388800,240
53,53,389040,240
46,54,389280,240
51,51,389520,240
55,51,389760,240
63,51,390000,240
55,51,390240,240
51,51,390480,240
46,58,390720,240
51,47,390960,240
56,48,391200,240
60,50,391440,240
56,51,391680,240
51,53,391920,240
46,54,392160,240
53,51,392400,240
56,51,392640,240
62,51,392880,240
56,51,393120,240
53,51,393360,240
47,54,393600,240
53,48,393840,240
55,48,394080,240
62,48,394320,240
55,48,394560,240
53,48,394800,240
48,54,395040,240
51,46,395280,240
55,48,395520,240
63,51,395760,240
54,53,396000,240
51,49,396240,240
50,80,396480,240
56,55,396720,240
58,55,396960,240
65,55,397200,240
58,55,397440,240
56,55,397680,240
46,66,397920,240
53,55,398160,240
58,55,398400,240
62,55,398640,240
58,55,398880,240
53,55,399120,240
39,60,399360,240
46,54,399600,240
51,54,399840,240
55,54,400080,240
58,54,400320,240
63,53,400560,240
67,60,400800,240
63,53,401040,240
58,53,401280,240
55,53,401520,240
51,53,401760,240
46,53,402000,240
41,60,402240,240
48,52,402480,240
51,52,402720,240
58,53,402960,240
51,53,403200,240
48,53,403440,240
41,60,403680,240
48,53,403920,240
51,53,404160,240
57,54,404400,240
51,54,404640,240
48,54,404880,240
34,59,405120,240
46,53,405360,240
53,55,405600,240
58,57,405840,240
62,58,406080,240
65,60,406320,240
74,61,406560,240
70,59,406800,240
65,57,407040,240
62,55,407280,240
58,53,407520,240
53,51,407760,240
46,57,408000,240
52,49,408240,240
55,49,408480,240
60,49,408720,240
55,49,408960,240
52,49,409200,240
46,47,409440,240
52,47,409680,240
55,53,409920,240
60,47,410160,240
55,47,410400,240
52,47,410640,240
46,55,410880,240
53,46,411120,240
57,46,411360,240
60,46,411600,240
57,47,411840,240
53,47,412080,240
46,52,412320,240
53,47,412560,240
56,47,412800,240
62,47,413040,240
56,47,413280,240
53,47,413520,240
39,57,413760,240
46,40,414000,240
51,48,414240,240
55,42,414480,240
51,54,414720,240
46,50,414960,240
39,55,415200,240
46,45,415440,240
51,45,415680,240
58,45,415920,240
51,45,416160,240
46,45,416400,240
39,50,416640,240
46,37,416880,240
51,51,417120,240
55,46,417360,240
51,55,417600,240
46,49,417840,240
39,50,418080,240
46,40,418320,240
51,40,418560,240
58,40,418800,240
51,40,419040,240
46,40,419280,240
39,54,419520,240
46,37,419760,240
50,47,420000,240
56,37,420240,240
50,50,420480,240
46,46,420720,240
39,47,420960,240
46,40,421200,240
50,40,421440,240
58,40,421680,240
50,40,421920,240
46,40,422160,240
39,54,422400,240
46,42,422640,240
51,49,422880,240
55,42,423120,240
51,42,423360,240
46,42,423600,240
39,46,423840,240
47,42,424080,240
51,42,424320,240
56,42,424560,240
51,42,424800,240
47,42,425040,240
39,54,425280,240
46,37,425520,240
51,44,425760,240
55,37,426000,240
51,44,426240,240
46,37,426480,240
39,47,426720,240
46,37,426960,240
51,37,427200,240
58,37,427440,240
51,37,427680,240
46,37,427920,240
39,54,428160,240
46,37,428400,240
51,44,428640,240
55,37,428880,240
51,44,429120,240
46,37,429360,240
39,41,429600,240
46,29,429840,240
51,29,430080,240
58,29,430320,240
51,29,430560,240
46,29,430800,240
39,43,431040,240
46,29,431280,240
50,35,431520,240
56,29,431760,240
50,35,432000,240
46,29,432240,240
39,37,432480,240
46,29,432720,240
50,29,432960,240
58,29,433200,240
50,29,433440,240
46,29,433680,240
39,43,433920,240
46,33,434160,240
51,33,434400,240
55,33,434640,240
51,33,434880,240
46,33,435120,240
39,38,435360,240
47,33,435600,240
51,33,435840,240
56,33,436080,240
51,33,436320,240
47,33,436560,240
39,43,436800,240
46,29,437040,240
51,35,437280,240
55,29,437520,240
51,35,437760,240
46,29,438000,240
39,41,438240,240
46,33,438480,240
51,33,438720,240
58,33,438960,240
51,33,439200,240
46,33,439440,240
39,45,439680,240
46,33,439920,240
51,35,440160,240
55,35,440400,240
51,35,440640,240
46,33,440880,240
39,41,441120,240
46,33,441360,240
51,33,441600,240
58,33,441840,240
51,26,442080,240
46,25,442320,240
43,48,442560,240
50,33,442800,240
55,31,443040,240
58,34,443280,240
62,37,443520,240
58,40,443760,240
67,45,444000,240
62,40,444240,240
58,39,444480,240
55,38,444720,240
50,37,444960,240
43,35,445200,240
31,42,445440,240
43,32,445680,240
50,34,445920,240
55,37,446160,240
58,39,446400,240
62,41,446640,240
70,42,446880,240
67,41,447120,240
62,39,447360,240
58,38,447600,240
55,36,447840,240
50,35,448080,240
43,37,448320,240
50,33,448560,240
62,33,448800,480
50,28,454080,1440
38,25,454560,475
38,25,455040,475
38,39,456000,475
38,39,456480,475
38,22,457440,475
38,22,457920,475
62,34,458400,1440
50,21,458880,475
55,21,458880,475
55,21,459360,475
50,21,459360,475
60,34,459840,1440
55,22,460320,475
50,22,460320,475
50,22,460800,475
55,22,460800,475
38,39,461760,475
38,39,462240,475
38,22,463200,475
38,22,463680,475
38,21,464640,475
38,21,465120,475
38,16,466080,475
38,16,466560,475
38,39,467520,475
38,39,468000,475
38,22,468960,475
38,22,469440,475
62,43,469920,1440
55,21,470400,475
58,27,470400,475
50,21,470400,475
58,27,470880,475
55,21,470880,475
50,21,470880,475
64,45,471360,1440
58,27,471840,475
50,21,471840,475
55,21,471840,475
55,21,472320,475
50,21,472320,475
58,27,472320,475
38,39,473280,475
38,39,473760,475
38,26,474720,475
38,26,475200,475
64,48,475680,1440
58,29,476160,475
55,24,476160,475
50,24,476160,475
55,24,476640,475
50,24,476640,475
58,29,476640,475
66,52,477120,1440
58,32,477600,475
50,24,477600,475
55,24,477600,475
55,24,478080,475
58,32,478080,475
50,24,478080,475
64,51,478560,960
55,26,479040,475
58,32,479040,475
50,26,479040,475
66,53,479760,220
66,53,480000,1440
50,26,480480,475
55,26,480480,475
58,35,480480,475
55,27,480960,475
58,36,480960,475
50,27,480960,475
64,56,481440,960
50,27,481920,480
58,36,481920,480
55,27,481920,480
66,56,482640,220
66,56,482880,1440
58,37,483360,475
55,29,483360,475
50,29,483360,475
50,29,483840,475
55,29,483840,475
58,39,483840,475
64,60,484320,960
55,35,484800,480
58,44,484800,480
50,35,484800,480
66,66,485520,240
69,69,485760,1440
64,52,486240,475
58,42,486240,475
61,42,486240,475
58,42,486720,475
64,55,486720,475
61,42,486720,475
67,68,487200,960
64,57,487680,480
58,45,487680,480
61,45,487680,480
69,75,488160,480
26,70,488640,480
38,82,488640,480
50,56,489120,480
58,66,489120,480
62,66,489600,480
55,56,489600,480
58,56,490080,480
67,66,490080,480
55,56,490560,480
62,66,490560,480
58,79,491040,480
50,67,491040,480
26,56,491520,480
38,66,491520,480
50,56,492000,480
60,66,492000,480
54,56,492000,480
62,59,492480,480
54,49,492480,480
60,49,492480,480
60,55,492960,480
66,64,492960,480
60,58,493440,480
54,58,493440,480
62,69,493440,480
50,61,493920,480
54,61,493920,480
60,73,493920,480
43,73,494400,240
31,73,494400,240
62,55,494880,240
67,66,494880,240
58,55,494880,240
46,53,495120,120
67,64,495360,240
58,53,495360,240
62,53,495360,240
50,57,495600,120
67,64,495840,240
62,53,495840,240
58,53,495840,240
55,54,496080,120
63,53,496320,240
60,53,496320,240
57,53,496320,240
67,64,496320,240
45,55,496560,120
60,53,496800,240
67,64,496800,240
63,53,496800,240
57,55,497040,120
66,64,497280,240
62,53,497280,240
60,53,497280,240
50,56,497520,120
60,53,497760,240
66,63,497760,240
62,53,497760,240
57,56,498000,120
55,55,498240,240
62,55,498240,240
67,66,498240,240
43,53,498480,120
62,55,498720,240
67,66,498720,240
58,55,498720,240
46,53,498960,120
58,53,499200,240
67,64,499200,240
62,53,499200,240
50,57,499440,120
67,64,499680,240
62,53,499680,240
58,53,499680,240
55,54,499920,120
63,53,500160,240
60,53,500160,240
57,53,500160,240
67,64,500160,240
45,55,500400,120
67,64,500640,240
63,53,500640,240
60,53,500640,240
57,55,500880,120
62,53,501120,240
66,64,501120,240
60,53,501120,240
50,56,501360,120
62,53,501600,240
60,53,501600,240
66,63,501600,240
57,56,501840,120
62,53,502080,240
55,53,502080,240
67,63,502080,240
48,65,502320,720
56,47,502800,240
63,56,502800,240
50,63,503040,120
57,48,503280,240
62,57,503280,240
60,48,503280,240
43,63,503520,120
58,47,503760,240
55,47,503760,240
62,55,503760,240
48,65,504000,960
63,53,504240,480
56,44,504240,480
56,47,504720,240
63,56,504720,240
50,63,504960,120
62,57,505200,240
60,48,505200,240
57,48,505200,240
43,63,505440,120
58,47,505680,240
55,47,505680,240
62,55,505680,240
47,65,505920,120
56,43,506160,240
53,43,506160,240
62,51,506160,240
48,60,506400,480
56,42,506640,240
51,42,506640,240
60,50,506640,240
50,56,506880,480
56,43,507120,240
53,43,507120,240
59,51,507120,240
51,56,507360,480
56,49,507600,240
42,56,507840,120
60,43,508080,240
54,43,508080,240
63,51,508080,240
55,43,508320,240
62,53,508320,240
58,43,508320,240
43,56,508560,120
48,56,508800,120
67,51,509040,238
57,43,509040,240
63,43,509040,240
50,56,509280,480
57,43,509520,240
60,43,509520,240
62,51,509520,240
55,53,509760,120
62,63,509760,120
58,53,509766,120
48,65,510000,720
56,47,510480,240
63,56,510480,240
50,63,510720,120
62,57,510960,240
57,48,510960,240
60,48,510960,240
43,63,511200,120
58,47,511440,240
55,47,511440,240
62,55,511440,240
48,65,511680,960
56,44,511920,720
63,53,511920,720
50,72,512160,240
51,72,512400,240
50,63,512640,120
62,57,512880,240
57,48,512880,240
60,48,512880,240
43,63,513120,120
62,55,513360,240
55,47,513360,240
58,47,513360,240
47,65,513600,120
35,54,513600,120
53,43,513840,240
62,51,513840,240
56,43,513840,240
48,60,514080,120
36,51,514080,120
60,50,514320,240
51,42,514320,240
55,42,514320,240
38,54,514560,120
50,65,514560,120
54,43,514800,240
57,51,514800,240
40,51,515040,120
52,60,515040,120
58,50,515280,240
55,42,515280,240
54,65,515520,120
42,54,515520,120
60,43,515760,240
63,51,515760,240
54,43,515760,240
55,43,516000,240
60,43,516000,240
63,51,516000,240
43,48,516240,120
55,58,516240,120
44,55,516480,120
56,66,516480,120
63,44,516720,240
67,52,516720,240
56,44,516720,240
57,45,516960,240
67,53,516960,240
63,45,516960,240
45,50,517200,120
57,60,517200,120
58,69,517440,120
46,57,517440,120
63,46,517680,240
58,46,517680,240
66,54,517680,240
69,55,517920,240
59,46,517920,240
63,46,517920,240
47,52,518160,120
59,63,518160,120
48,59,518400,120
60,71,518400,120
66,47,518640,480
62,47,518640,480
60,47,518640,480
69,56,518640,480
60,57,519120,240
66,48,519120,240
62,57,519120,240
69,57,519120,240
58,74,519360,120
46,61,519360,120
55,49,519600,240
62,49,519600,240
67,58,519600,240
48,54,519840,120
60,66,519840,120
57,54,520080,240
67,66,520080,240
63,54,520080,240
62,74,520320,120
50,61,520320,120
70,58,520560,240
67,49,520560,240
62,49,520560,240
48,54,520800,120
60,66,520800,120
66,54,521040,240
69,66,521040,240
62,54,521040,240
60,54,521040,240
46,52,521280,120
58,61,521280,120
62,46,521520,240
55,46,521520,240
67,54,521520,240
60,58,521760,120
48,48,521760,120
57,48,522000,240
63,48,522000,240
67,57,522000,240
50,56,522240,120
62,68,522240,120
67,49,522480,240
70,58,522480,240
62,49,522480,240
48,51,522720,120
60,60,522720,120
62,49,522960,240
69,49,522960,240
66,49,522960,240
60,49,522960,240
58,87,523200,120
46,73,523200,120
82,73,523680,120
86,86,523680,120
79,73,523680,120
74,78,523800,120
70,69,524160,120
74,81,524160,120
67,69,524160,120
62,77,524280,120
62,82,524640,120
58,70,524640,120
55,70,524640,120
50,74,524760,120
42,93,525120,120
30,78,525120,120
43,81,525240,120
31,69,525240,120
37,78,525600,120
49,93,525600,120
38,72,525720,120
50,85,525720,120
42,93,526080,120
30,78,526080,120
43,81,526200,120
31,69,526200,120
49,93,526560,120
37,78,526560,120
50,85,526680,120
38,72,526680,120
38,97,527040,480
26,81,527040,480
64,69,528480,360
61,69,528480,360
58,69,528480,360
55,69,528480,360
58,62,528840,120
55,62,528840,120
64,62,528840,120
61,62,528840,120
66,69,528960,480
58,69,528960,480
55,69,528960,480
61,69,528960,480
61,69,529440,360
55,69,529440,360
58,69,529440,360
64,69,529440,360
64,62,529800,120
61,62,529800,120
55,62,529800,120
58,62,529800,120
58,69,529920,480
61,69,529920,480
55,69,529920,480
66,69,529920,480
61,69,530400,300
55,69,530400,300
58,69,530400,300
64,69,530400,300
50,67,530700,5940
57,68,530760,5880
60,70,530820,5820
67,78,530880,3480
66,80,534360,2278
31,115,539040,1080
33,65,540120,120
34,65,540240,120
36,66,540360,120
38,67,540480,120
40,67,540600,120
42,68,540720,120
43,68,540840,120
45,69,540960,120
46,69,541080,120
48,70,541200,120
50,70,541320,120
52,71,541440,120
54,72,541560,120
55,72,541680,120
57,73,541800,120
58,73,541920,120
60,74,542040,120
62,74,542160,120
64,75,542280,120
66,76,542400,120
67,83,542520,120
50,31,543000,360
43,26,543000,360
31,26,543000,360
55,31,543000,360
58,38,543000,360
31,26,543360,120
55,31,543360,120
58,38,543360,120
43,26,543360,120
50,31,543360,120
31,26,543480,480
43,26,543480,480
55,31,543480,480
58,38,543480,480
50,31,543480,480
50,84,544040,80
38,75,544040,80
43,71,544120,80
55,80,544120,80
45,77,544200,80
57,85,544200,80
48,79,544280,80
60,89,544280,80
46,74,544360,70
58,83,544360,70
46,82,544440,120
58,92,544440,120
31,79,544920,600
33,52,545520,120
34,52,545640,120
36,53,545760,120
38,53,545880,120
40,54,546000,120
42,54,546120,120
43,55,546240,120
45,55,546360,120
46,56,546480,120
48,56,546600,120
50,57,546720,120
52,57,546840,120
54,58,546960,120
55,58,547080,120
57,59,547200,120
58,60,547320,120
60,60,547440,120
62,61,547560,120
64,61,547680,120
66,62,547800,120
67,62,547920,120
69,63,548040,120
70,63,548160,120
72,64,548280,120
74,64,548400,120
76,65,548520,120
78,65,548640,120
79,70,548760,120
43,26,549240,360
31,26,549240,360
31,26,549600,120
43,26,549600,120
31,26,549720,480
43,26,549720,480
50,86,550280,80
55,86,550360,80
58,89,550440,80
63,90,550520,80
62,86,550600,70
62,86,550680,120
34,74,551130,161
46,77,551160,100
35,76,551290,130
47,76,551320,100
36,75,551450,130
48,75,551480,100
37,74,551610,130
49,74,551640,100
38,73,551770,130
50,73,551800,100
39,75,551930,130
51,72,551960,100
40,74,552090,130
52,73,552120,100
41,72,552250,130
53,72,552280,100
42,72,552410,130
54,72,552440,100
55,72,552600,120
43,66,552600,120
42,66,552760,120
54,72,552760,120
41,65,552920,120
53,71,552920,120
52,70,553080,120
40,64,553080,120
51,69,553240,120
39,63,553240,120
50,67,553400,120
38,61,553400,120
49,66,553560,120
37,60,553560,120
48,66,553720,120
36,60,553720,120
35,60,553880,120
47,66,553880,120
34,67,554040,120
46,73,554040,120
33,72,554200,120
45,79,554200,120
32,77,554360,120
44,84,554360,120
31,71,554520,480
43,83,554520,480
67,95,555480,960
55,80,555480,960
62,80,555480,960
43,95,556440,960
31,80,556440,960
