note,velocity,position,duration
77,55,1440,720
75,55,2160,240
73,55,2400,360
65,50,2760,120
68,55,2880,960
73,58,3840,240
77,61,4080,240
82,68,4320,840
80,50,5160,120
76,56,5280,120
77,50,5400,120
72,55,5520,120
73,50,5640,120
69,63,5760,1440
70,58,7200,720
84,56,8040,120
82,58,8160,120
77,52,8280,120
80,56,8400,120
78,51,8520,120
77,57,8640,480
75,58,9120,360
77,52,9480,30
75,52,9510,30
74,52,9540,30
75,52,9570,30
77,61,9600,240
78,69,9840,180
78,57,10020,60
90,79,10080,480
87,56,10500,60
85,55,10560,60
81,54,10620,60
78,52,10680,60
75,49,10740,60
72,53,10800,60
73,54,10920,60
74,55,11040,60
75,56,11160,60
77,57,11280,60
78,58,11400,60
79,69,11520,540
80,54,12060,60
82,59,12120,60
80,50,12180,60
77,56,12240,960
73,53,12960,240
75,55,13200,360
78,65,13200,360
70,51,13560,120
73,60,13560,120
72,55,13680,240
75,65,13680,240
73,53,13920,240
77,62,13920,240
69,52,14160,240
72,61,14160,240
72,55,14400,240
75,65,14400,240
70,50,14640,120
73,59,14640,120
82,64,14820,60
73,54,14820,60
73,56,14880,80
82,66,14880,80
72,55,14960,80
80,65,14960,80
70,54,15040,80
78,64,15040,80
70,53,15120,240
77,63,15120,480
69,52,15360,80
70,54,15440,80
71,56,15520,80
77,58,15600,40
72,49,15600,40
77,60,15680,40
73,51,15680,40
77,62,15760,40
75,52,15760,40
73,53,15840,240
77,63,15840,240
75,55,16080,360
78,65,16080,360
70,51,16440,120
73,60,16440,120
70,49,16560,45
73,58,16560,45
73,55,16605,135
77,65,16605,135
72,58,16740,140
75,58,16740,30
77,53,16770,30
75,62,16800,80
70,47,16880,80
73,55,16880,80
72,47,16960,80
75,55,16960,80
73,52,17040,60
77,61,17040,60
69,52,17220,60
72,61,17220,60
72,55,17280,240
75,65,17280,240
70,50,17520,120
73,59,17520,120
73,47,17760,240
82,66,17760,360
74,66,18000,120
80,53,18120,120
83,62,18120,120
73,53,18240,80
82,62,18240,80
80,54,18320,80
81,58,18320,80
73,57,18400,80
82,67,18400,80
89,70,18480,60
80,58,18480,60
80,57,18660,80
82,67,18660,60
82,68,18720,240
78,57,18720,240
80,56,18960,240
83,66,18960,240
75,54,19200,240
78,64,19200,240
78,54,19440,80
82,64,19440,80
77,52,19520,80
80,61,19520,80
78,52,19600,80
82,61,19600,80
77,55,19680,80
80,65,19680,80
75,52,19760,80
78,61,19760,80
77,52,19840,80
80,61,19840,80
78,55,19920,60
82,65,19920,60
77,60,20100,60
74,51,20100,60
77,56,20160,240
80,66,20160,240
75,51,20400,120
78,60,20400,120
87,63,20580,60
78,53,20580,60
78,57,20640,80
87,68,20640,80
77,57,20720,80
85,67,20720,80
75,55,20800,80
83,65,20800,80
74,50,20880,80
82,59,20880,80
70,50,20960,40
82,59,20960,40
71,50,21040,40
82,59,21040,40
72,51,21120,40
82,60,21120,40
73,52,21200,40
82,61,21200,40
74,53,21280,40
82,62,21280,40
82,64,21360,40
75,54,21360,40
82,65,21440,40
76,55,21440,40
82,66,21520,40
77,56,21520,40
78,45,21600,96
82,54,21600,96
80,47,21696,96
83,57,21696,96
82,60,21792,96
78,50,21792,96
77,53,21888,96
80,63,21888,96
78,54,21984,96
82,65,21984,96
80,58,22080,60
83,69,22080,60
78,66,22260,50
75,56,22260,50
75,53,22320,60
78,63,22320,60
78,59,22380,60
82,70,22380,60
80,64,22500,60
77,54,22500,60
77,62,22560,20
80,62,22560,20
82,55,22580,20
78,55,22580,20
80,61,22600,40
77,61,22600,40
75,53,22640,80
78,63,22640,80
77,54,22760,30
80,64,22760,30
77,55,22800,80
80,65,22800,80
78,57,22880,40
82,67,22880,40
74,55,23000,30
77,65,23000,30
74,59,23040,60
77,59,23040,60
77,53,23100,120
80,62,23100,120
75,61,23520,480
78,73,23520,480
74,61,24000,120
78,73,24000,120
78,76,24240,120
73,64,24240,120
72,64,24480,360
78,78,24480,360
69,62,24840,120
81,74,24840,120
68,64,24960,480
80,76,24960,480
66,60,25440,240
78,72,25440,240
61,58,25680,240
73,70,25680,240
60,56,25920,480
72,66,25920,480
68,52,26400,240
69,57,26640,80
71,50,26720,80
69,52,26800,80
68,51,26880,120
69,51,27000,120
76,57,27120,180
75,53,27300,60
75,57,27360,240
69,61,27720,120
81,73,27720,120
68,58,27840,480
80,70,27840,480
68,55,28320,60
80,65,28320,60
66,54,28380,60
78,64,28380,60
68,53,28440,60
80,63,28440,60
66,53,28500,60
78,62,28500,60
64,53,28560,60
76,62,28560,60
63,52,28620,60
75,61,28620,60
64,51,28680,60
76,60,28680,60
63,50,28740,60
75,59,28740,60
60,56,28800,120
72,66,28800,120
68,46,29400,120
69,51,29520,80
71,45,29600,80
69,46,29680,80
68,45,29760,120
69,45,29880,60
69,46,29940,60
76,52,30000,120
75,49,30180,60
75,54,30240,240
75,51,30960,1440
74,51,32400,720
73,54,33120,480
73,51,33840,960
72,49,34800,240
70,48,35040,360
68,42,35400,120
70,44,35520,120
72,45,35640,120
73,47,35760,120
75,48,35880,120
77,49,36000,720
75,49,36720,240
73,49,36960,360
65,45,37320,120
68,49,37440,960
73,52,38400,240
77,54,38640,240
82,61,38880,840
80,45,39720,120
76,50,39840,120
77,45,39960,120
72,49,40080,120
73,45,40200,120
69,56,40320,1440
70,52,41760,720
84,50,42600,120
82,52,42720,120
77,46,42840,120
80,50,42960,120
78,45,43080,120
77,51,43200,480
75,52,43680,420
74,57,44040,120
75,57,44160,120
76,57,44280,120
77,62,44400,180
78,51,44580,30
78,51,44610,30
90,71,44640,320
87,65,44960,80
85,62,45040,80
81,60,45120,80
78,58,45200,80
75,55,45280,80
72,47,45360,120
68,49,45540,60
75,50,45600,40
84,50,45640,40
69,48,45680,40
76,52,45720,40
85,53,45760,40
70,50,45800,40
77,54,45840,40
86,55,45880,40
71,53,45920,40
78,56,45960,40
87,57,46000,40
72,54,46040,40
88,64,46080,360
79,54,46080,360
89,58,46440,120
80,49,46440,120
89,57,46560,80
80,48,46560,80
90,61,46640,40
82,51,46640,40
80,45,46760,40
89,54,46760,40
89,58,46800,60
80,49,46800,60
85,54,46860,660
77,45,46860,660
85,60,47520,240
76,51,47520,240
86,57,47760,240
78,48,47760,240
81,54,48000,240
73,45,48000,240
85,61,48240,120
76,61,48240,120
74,43,48360,30
83,51,48360,30
76,51,48390,30
85,51,48390,30
74,45,48420,60
83,54,48420,60
82,54,48480,120
73,45,48480,120
74,48,48600,120
83,57,48600,120
85,60,48720,60
76,51,48720,60
71,45,48900,60
80,54,48900,60
74,54,48960,120
83,64,48960,120
81,61,49320,120
73,51,49320,120
73,51,49440,40
81,61,49440,40
73,50,49520,40
80,59,49520,40
73,50,49600,40
78,59,49600,40
74,51,49680,360
76,61,49680,360
70,49,50040,60
76,58,50040,60
71,52,50160,60
76,61,50160,60
72,55,50280,60
76,66,50280,60
73,59,50400,480
76,67,50400,480
74,55,50880,120
78,61,50880,120
69,55,51000,120
73,65,51000,120
68,50,51120,60
73,59,51120,60
73,56,51180,120
76,66,51180,120
74,60,51300,60
71,51,51300,60
74,58,51360,20
71,58,51360,20
76,52,51380,20
73,52,51380,20
74,57,51400,40
71,57,51400,40
70,50,51440,80
73,59,51440,80
71,51,51520,80
74,60,51520,80
71,52,51600,80
74,61,51600,80
73,54,51680,40
76,63,51680,80
68,55,51800,40
71,65,51800,40
74,62,51840,240
71,53,51840,240
73,62,52080,240
69,53,52080,240
73,59,52320,480
81,70,52320,480
73,59,52800,240
81,70,52800,240
81,76,53040,240
73,64,53040,240
73,63,53280,800
80,75,53280,240
81,74,53520,360
80,75,53880,120
78,73,54000,320
75,72,54080,80
73,70,54160,80
72,70,54240,360
76,70,54320,80
78,75,54400,80
80,75,54480,60
72,61,54660,60
75,72,54660,60
75,64,54720,320
78,76,54720,320
73,62,55040,40
76,73,55040,40
76,62,55160,40
85,73,55160,40
76,63,55200,80
85,75,55200,80
80,62,55280,80
83,73,55280,80
78,59,55400,40
81,70,55400,40
76,64,55440,40
80,76,55440,40
68,57,55520,40
80,68,55520,40
69,58,55600,40
80,69,55600,40
70,58,55680,40
80,70,55680,40
71,59,55760,40
80,71,55760,40
72,60,55840,40
80,72,55840,40
73,61,55920,40
80,73,55920,40
74,61,55968,40
80,73,55968,40
75,63,56016,40
80,74,56016,40
76,63,56064,40
80,74,56064,40
77,64,56112,40
80,75,56112,40
80,79,56160,180
78,67,56160,180
83,63,56340,60
81,78,56400,240
78,66,56400,240
80,79,56640,240
78,67,56640,240
87,88,56880,60
78,74,56880,60
76,69,57120,240
80,81,57120,240
75,72,57360,240
80,85,57360,240
75,75,57600,720
80,89,57600,480
78,80,58080,240
72,64,58560,240
75,64,58560,240
78,76,58560,240
71,68,58800,240
75,68,58800,240
78,80,58800,240
70,71,59040,120
75,71,59040,120
78,84,59040,120
78,78,59220,60
90,97,59280,600
86,86,59880,120
87,79,60000,80
81,77,60080,80
82,77,60160,80
77,76,60240,80
78,75,60320,80
74,75,60400,80
69,71,60480,120
75,71,60480,120
78,84,60480,120
78,78,60660,60
90,97,60720,600
86,86,61320,120
87,79,61440,80
80,77,61520,80
81,77,61600,80
77,76,61680,80
78,75,61760,80
74,75,61840,80
69,71,61920,120
75,71,61920,120
78,84,61920,120
78,78,62100,60
90,97,62160,480
69,71,62640,120
73,71,62640,120
78,84,62640,120
78,78,62820,60
90,97,62880,240
69,71,63120,120
72,71,63120,120
78,84,63120,120
78,78,63300,60
90,97,63360,320
89,86,63680,80
88,84,63760,80
78,89,63840,80
87,82,63920,80
86,82,64000,80
85,87,64080,80
75,79,64160,80
84,79,64240,80
82,83,64320,80
81,77,64400,80
72,74,64480,80
80,81,64560,80
79,75,64640,80
78,73,64720,80
77,79,64800,720
75,82,65520,240
73,77,65760,360
65,74,66120,120
68,81,66240,960
73,81,67200,240
77,85,67440,240
82,95,67680,840
80,69,68520,120
76,76,68640,120
77,70,68760,120
72,75,68880,120
73,69,69000,120
71,79,69120,1440
83,61,70560,800
79,50,71360,80
80,50,71440,80
79,53,71520,80
78,50,71600,80
79,50,71680,80
82,56,71760,80
80,52,71840,80
77,50,71920,80
75,51,72000,720
73,47,72720,30
75,43,72745,30
73,47,72770,30
75,43,72795,30
73,47,72820,30
75,43,72840,30
73,47,72860,30
75,43,72880,30
73,47,72900,30
75,43,72920,30
73,47,72940,30
72,47,72960,40
73,46,73000,40
75,47,73040,40
77,48,73080,40
78,49,73120,40
80,50,73160,40
82,51,73200,40
83,52,73240,40
85,53,73280,40
87,54,73320,40
89,55,73360,40
90,55,73400,40
94,57,73440,60
92,55,73500,60
95,52,73560,60
91,52,73620,60
92,52,73680,60
91,52,73740,60
95,52,73800,60
90,52,73860,60
91,49,73920,60
90,49,73980,60
95,50,74040,60
89,50,74100,60
90,51,74160,60
89,52,74220,60
95,52,74280,60
88,53,74340,60
89,53,74400,60
88,54,74460,60
95,55,74520,60
87,55,74580,60
88,56,74640,60
87,57,74700,60
95,57,74760,60
86,57,74820,60
85,57,74880,60
87,58,74940,60
85,59,75000,60
84,59,75060,60
85,60,75120,60
87,61,75180,60
89,61,75240,60
90,62,75300,60
92,62,75360,60
94,62,75420,60
95,64,75480,60
97,66,75540,60
101,65,75600,60
99,64,75660,60
97,62,75720,60
95,61,75780,60
92,59,75840,60
89,58,75900,60
85,57,75960,60
83,56,76020,60
80,54,76080,60
77,53,76140,60
73,51,76200,60
71,50,76260,60
70,53,76320,360
69,48,76680,60
70,50,76740,60
71,53,76800,60
70,50,76860,60
73,52,76920,40
71,50,76960,40
70,48,77000,40
70,50,77040,480
82,54,77520,480
78,59,77760,240
83,61,78000,240
80,55,78000,240
75,51,78240,180
78,61,78240,180
75,50,78420,60
78,59,78420,60
78,56,78480,120
82,66,78480,120
80,60,78660,60
77,51,78660,60
80,58,78720,20
77,58,78720,20
82,52,78740,20
78,52,78740,20
80,57,78760,40
77,57,78760,40
75,50,78800,80
78,59,78800,80
77,51,78880,80
80,60,78880,80
82,63,78960,80
78,54,78960,40
74,55,79160,40
77,65,79160,40
80,62,79200,240
77,53,79200,240
78,57,79440,120
75,57,79440,120
78,56,79620,60
87,66,79620,60
78,55,79680,80
87,65,79680,80
77,52,79760,80
85,61,79760,80
75,52,79840,80
83,61,79840,80
74,57,79920,80
82,68,79920,80
70,49,80000,40
82,58,80000,40
71,50,80080,40
82,60,80080,40
72,52,80160,40
82,62,80160,40
73,53,80240,40
82,63,80240,40
74,56,80320,40
82,66,80320,40
75,57,80400,40
82,68,80400,40
76,59,80480,40
82,70,80480,40
77,60,80560,40
82,71,80560,40
78,59,80640,240
82,67,80640,240
83,61,80880,360
80,55,80880,360
75,55,81240,60
78,65,81240,60
75,50,81300,60
78,59,81300,60
78,56,81360,120
82,66,81360,120
80,60,81540,60
77,51,81540,60
80,58,81600,20
77,58,81600,20
82,52,81620,20
78,52,81620,20
80,57,81640,40
77,57,81640,40
75,50,81680,80
78,59,81680,80
77,51,81760,80
80,60,81760,80
77,52,81840,80
80,61,81840,80
78,54,81920,40
82,63,81920,80
74,55,82040,40
77,65,82040,40
80,62,82080,240
77,53,82080,240
78,57,82320,120
75,57,82320,120
90,71,82560,360
82,60,82560,360
89,73,82920,60
80,62,82920,60
78,56,83040,40
87,67,83040,40
77,57,83120,40
85,68,83120,40
75,59,83200,40
84,70,83200,40
73,60,83280,40
82,71,83280,40
72,61,83360,40
80,72,83360,40
70,62,83440,40
78,73,83440,40
68,61,83520,240
77,72,83520,240
70,64,83760,240
78,76,83760,240
68,62,84000,240
77,74,84000,240
66,62,84240,240
75,73,84240,240
65,60,84480,240
73,71,84480,240
61,60,84720,240
65,71,84720,240
61,65,84960,720
68,77,84960,720
63,66,85680,720
61,66,85680,720
70,78,85680,720
56,66,86400,720
61,66,86400,720
63,78,86400,400
68,61,86800,40
73,63,86840,40
75,65,86880,40
80,67,86920,40
85,68,86960,40
87,70,87000,40
92,72,87040,40
97,73,87080,40
99,92,87120,400
97,78,87520,40
92,76,87560,40
87,74,87600,40
85,72,87640,40
80,69,87680,40
75,67,87720,40
73,65,87760,40
68,63,87800,40
63,78,87840,720
65,66,88560,360
56,66,88560,720
68,78,88560,720
63,72,88920,120
65,78,89040,80
63,75,89120,80
61,75,89200,80
61,78,89280,480
85,62,90000,240
79,55,90240,480
84,62,90720,240
78,55,90960,480
83,62,91440,240
77,54,91680,480
82,60,92160,240
76,52,92400,480
81,58,92880,240
75,51,93120,480
80,60,93600,1920
68,43,94080,90
70,44,94200,90
72,45,94320,90
73,46,94440,90
74,47,94560,90
75,48,94680,90
77,50,94800,90
78,51,94920,90
77,54,95040,480
85,55,95760,240
94,41,95940,60
79,49,96000,480
84,55,96480,240
93,41,96660,60
78,49,96720,480
83,55,97200,240
92,41,97380,60
77,49,97440,480
82,55,97920,240
91,41,98100,60
76,49,98160,480
81,55,98640,240
90,41,98820,60
75,49,98880,480
80,55,99360,2160
79,47,100200,90
78,46,100320,90
77,45,100440,90
75,45,100560,90
77,43,100680,90
73,52,100800,1440
77,46,101520,120
78,45,101640,120
79,46,101760,120
80,48,101880,120
84,48,102000,120
82,47,102120,120
72,45,102240,120
80,53,102240,840
73,45,102360,120
74,45,102480,120
75,45,102600,120
78,44,102720,120
77,44,102840,120
75,44,102960,480
79,44,103080,120
78,43,103200,120
77,42,103320,120
68,40,103440,240
75,42,103440,120
77,39,103560,120
69,43,103680,120
73,48,103680,720
68,43,103800,120
67,43,103920,120
68,43,104040,120
72,37,104100,60
70,43,104160,120
68,42,104280,120
68,42,104400,480
77,42,104400,120
78,41,104520,120
79,42,104640,120
80,44,104760,120
84,45,104880,120
82,44,105000,120
72,41,105120,120
80,48,105120,840
73,41,105240,120
74,41,105360,120
75,41,105480,120
78,41,105600,120
77,41,105720,120
75,40,105840,480
79,40,105960,120
78,40,106080,120
77,38,106200,120
68,36,106320,240
75,38,106320,120
77,36,106440,120
65,34,106560,1440
73,39,106560,1440
68,31,108000,90
77,37,108000,90
70,31,108102,90
78,37,108102,90
72,31,108204,90
80,37,108204,90
73,30,108306,90
82,36,108306,90
75,30,108408,90
84,36,108408,90
77,29,108510,90
85,35,108510,90
78,29,108612,90
87,35,108612,90
80,28,108720,90
89,34,108720,90
82,28,108822,90
90,34,108822,90
84,28,108924,90
92,33,108924,90
85,28,109026,90
94,33,109026,90
87,27,109128,90
96,32,109128,90
89,27,109230,90
97,32,109230,90
90,27,109332,90
99,32,109332,90
101,36,109440,480
92,30,109440,480
68,30,110160,720
77,36,110160,720
65,28,110880,1440
73,33,110880,1440
37,30,0,120
65,26,120,120
56,26,240,120
65,26,360,120
61,26,480,120
53,26,600,120
49,30,720,120
65,26,840,120
56,26,960,120
65,25,1080,120
61,28,1200,120
53,25,1320,120
49,30,1440,120
65,26,1560,120
56,26,1680,120
65,26,1800,120
61,26,1920,120
53,26,2040,120
49,30,2160,120
65,26,2280,120
56,26,2400,120
65,26,2520,120
61,26,2640,120
53,26,2760,120
49,30,2880,120
65,28,3000,120
56,28,3120,120
65,27,3240,120
61,27,3360,120
53,27,3480,120
49,31,3600,120
65,27,3720,120
56,27,3840,120
65,28,3960,120
61,28,4080,120
53,30,4200,120
49,34,4320,120
65,29,4440,120
56,28,4560,120
65,28,4680,120
61,28,4800,120
53,27,4920,120
49,30,5040,120
65,26,5160,120
56,26,5280,120
65,25,5400,120
61,25,5520,120
53,24,5640,120
37,30,5760,120
66,26,5880,120
57,26,6000,120
66,26,6120,120
63,26,6240,120
54,26,6360,120
49,30,6480,120
66,26,6600,120
57,26,6720,120
66,25,6840,120
63,28,6960,120
57,25,7080,120
49,30,7200,120
66,26,7320,120
58,26,7440,120
66,26,7560,120
63,26,7680,120
54,26,7800,120
49,30,7920,120
66,26,8040,120
58,26,8160,120
66,25,8280,120
63,28,8400,120
54,25,8520,120
48,30,8640,120
66,26,8760,120
57,25,8880,120
66,24,9000,120
63,23,9120,120
54,23,9240,120
46,31,9360,120
66,27,9480,120
58,28,9600,120
66,30,9720,120
63,31,9840,120
54,34,9960,120
45,38,10080,120
66,28,10200,120
57,27,10320,120
66,25,10440,120
61,24,10560,120
51,23,10680,120
44,30,10800,120
66,24,10920,120
56,26,11040,120
66,28,11160,120
60,29,11280,120
51,30,11400,120
37,38,11520,120
64,29,11640,60
55,28,11760,120
64,28,11880,60
58,28,12000,120
53,27,12120,120
37,28,12240,120
65,23,12360,120
56,23,12480,120
65,23,12600,120
61,24,12720,120
53,25,12840,120
46,38,12960,120
65,28,13080,120
58,28,13200,120
65,27,13320,120
61,26,13440,120
53,26,13560,120
46,33,13680,120
65,28,13800,120
57,28,13920,120
65,28,14040,120
63,28,14160,120
53,27,14280,120
46,38,14400,120
65,28,14520,120
58,28,14640,120
65,27,14760,120
61,26,14880,120
53,26,15000,120
41,33,15120,120
65,28,15240,120
60,28,15360,120
65,26,15480,120
63,28,15600,120
57,30,15720,120
46,38,15840,120
65,28,15960,120
58,28,16080,120
65,27,16200,120
61,26,16320,120
53,26,16440,120
46,33,16560,120
65,28,16680,120
57,28,16800,120
65,28,16920,120
63,28,17040,120
53,27,17160,120
46,38,17280,120
65,28,17400,120
58,28,17520,120
65,27,17640,120
61,26,17760,120
53,26,17880,120
46,34,18000,120
68,28,18120,120
58,26,18240,120
68,28,18360,120
62,30,18480,120
53,32,18600,120
39,38,18720,120
66,31,18840,120
58,29,18960,120
66,29,19080,120
63,29,19200,120
54,29,19320,120
51,39,19440,120
68,30,19560,120
58,30,19680,120
68,30,19800,120
62,30,19920,120
53,30,20040,120
51,39,20160,120
66,31,20280,120
58,31,20400,120
66,31,20520,120
63,29,20640,120
54,29,20760,120
46,40,20880,120
68,30,21000,120
58,32,21120,120
68,34,21240,120
62,35,21360,120
53,37,21480,120
39,38,21600,120
66,28,21720,120
58,28,21840,120
66,27,21960,120
63,26,22080,120
54,26,22200,120
51,33,22320,120
68,28,22440,120
58,28,22560,120
68,28,22680,120
62,28,22800,120
53,27,22920,120
51,44,23040,120
66,34,23160,120
58,34,23280,120
66,34,23400,120
63,34,23520,120
54,34,23640,120
45,64,23760,720
61,40,23880,120
51,42,24000,120
61,44,24120,120
54,46,24240,120
45,48,24360,120
44,54,24480,120
60,47,24600,120
51,47,24720,120
60,47,24840,120
54,46,24960,120
51,46,25080,120
45,67,25200,720
57,51,25320,120
51,51,25440,120
57,51,25560,120
54,51,25680,120
51,51,25800,120
44,44,25920,120
56,32,26040,120
51,30,26160,120
56,28,26280,120
54,27,26400,120
51,25,26520,120
49,31,26640,120
64,27,26760,120
54,27,26880,120
64,27,27000,120
57,27,27120,120
49,28,27240,120
48,44,27360,120
63,30,27480,120
54,32,27600,120
63,39,27720,120
56,42,27840,120
54,43,27960,120
45,49,28080,120
61,40,28200,120
51,38,28320,120
61,35,28440,120
54,35,28560,120
51,33,28680,120
44,44,28800,120
56,32,28920,120
51,30,29040,120
56,28,29160,120
54,23,29280,120
44,22,29400,120
49,28,29520,120
64,23,29640,120
54,23,29760,120
64,23,29880,120
57,23,30000,120
49,24,30120,120
48,31,30240,120
63,24,30360,120
54,24,30480,120
63,24,30600,120
57,24,30720,120
54,24,30840,120
47,28,30960,120
63,24,31080,120
54,24,31200,120
63,24,31320,120
57,24,31440,120
54,24,31560,120
47,31,31680,120
63,24,31800,120
53,24,31920,120
63,24,32040,120
56,24,32160,120
53,24,32280,240
47,28,32400,120
62,24,32520,120
52,24,32640,240
62,24,32760,120
56,24,32880,120
52,24,33000,120
45,31,33120,120
61,24,33240,120
52,24,33360,120
61,24,33480,120
57,24,33600,120
52,24,33720,120
45,28,33840,120
61,24,33960,120
51,24,34080,120
61,24,34200,120
54,24,34320,120
51,24,34440,120
44,31,34560,120
60,24,34680,120
51,24,34800,120
60,24,34920,120
54,24,35040,120
49,24,35160,120
44,28,35280,120
56,24,35400,120
48,24,35520,120
56,24,35640,120
54,24,35760,120
51,24,35880,120
37,27,36000,120
65,22,36120,120
56,22,36240,120
65,22,36360,120
61,22,36480,120
53,22,36600,120
49,27,36720,120
65,22,36840,120
56,22,36960,120
65,22,37080,120
61,22,37200,120
53,22,37320,120
49,27,37440,120
65,24,37560,120
56,24,37680,120
65,23,37800,120
61,23,37920,120
53,23,38040,120
49,28,38160,120
65,23,38280,120
56,23,38400,120
65,24,38520,120
61,25,38640,120
53,27,38760,120
49,30,38880,120
65,26,39000,120
56,25,39120,120
65,24,39240,120
61,24,39360,120
53,23,39480,120
49,27,39600,120
65,22,39720,120
56,22,39840,120
65,22,39960,120
61,22,40080,120
53,22,40200,120
37,28,40320,240
66,22,40440,120
57,22,40560,120
66,22,40680,120
61,22,40800,120
54,22,40920,120
49,27,41040,120
66,22,41160,120
57,22,41280,120
66,22,41400,120
62,26,41520,120
54,22,41640,120
49,28,41760,240
66,22,41880,120
58,22,42000,120
66,22,42120,120
63,22,42240,120
54,22,42360,120
49,27,42480,120
66,22,42600,120
58,22,42720,120
66,22,42840,120
63,24,42960,120
54,22,43080,120
48,27,43200,120
66,22,43320,120
57,22,43440,120
66,22,43560,120
63,21,43680,120
54,21,43800,120
46,28,43920,120
66,23,44040,120
58,25,44160,120
66,27,44280,120
63,28,44400,120
54,30,44520,120
45,34,44640,120
66,24,44760,120
57,23,44880,120
66,22,45000,120
61,22,45120,120
51,21,45240,120
44,27,45360,120
66,22,45480,120
56,22,45600,120
66,24,45720,120
60,26,45840,120
51,27,45960,120
37,28,46080,120
68,24,46200,120
56,24,46320,120
68,24,46440,120
61,24,46560,120
53,24,46680,120
49,28,46800,120
65,24,46920,120
56,24,47040,120
65,25,47160,120
61,25,47280,120
56,25,47400,120
49,29,47520,120
64,27,47640,120
52,26,47760,120
64,26,47880,120
57,26,48000,120
52,26,48120,120
50,23,48240,120
64,24,48360,120
52,25,48480,120
64,26,48600,120
56,27,48720,120
52,28,48840,120
49,31,48960,120
64,29,49080,120
52,29,49200,120
64,29,49320,120
57,29,49440,120
52,29,49560,120
44,34,49680,120
64,26,49800,120
52,28,49920,120
64,30,50040,120
62,32,50160,120
52,34,50280,120
45,40,50400,120
64,32,50520,120
52,32,50640,120
64,32,50760,120
61,32,50880,120
52,32,51000,120
40,40,51120,120
64,34,51240,120
56,35,51360,120
64,35,51480,120
62,35,51600,120
52,35,51720,120
45,50,51840,120
64,39,51960,120
57,39,52080,120
64,39,52200,120
61,39,52320,120
52,39,52440,120
39,65,52560,120
66,40,52680,120
57,42,52800,120
66,44,52920,120
61,46,53040,120
51,48,53160,120
44,50,53280,120
66,39,53400,120
56,39,53520,120
66,39,53640,120
61,39,53760,120
51,39,53880,120
44,63,54000,120
66,40,54120,120
56,42,54240,120
66,44,54360,120
60,46,54480,120
51,48,54600,120
44,50,54720,120
64,39,54840,120
56,39,54960,120
64,39,55080,120
61,39,55200,120
52,39,55320,120
32,58,55440,120
64,40,55560,120
56,42,55680,120
64,44,55800,120
61,46,55920,120
52,48,56040,120
44,65,56160,120
63,51,56280,120
54,51,56400,120
63,51,56520,120
60,51,56640,120
51,51,56760,120
32,64,56880,120
63,48,57000,120
54,51,57120,120
63,54,57240,120
60,57,57360,120
51,59,57480,120
45,76,57600,120
63,55,57720,120
54,56,57840,120
63,57,57960,120
60,57,58080,120
51,57,58200,120
33,82,58320,120
63,57,58440,120
54,58,58560,120
63,59,58680,120
59,62,58800,120
51,63,58920,120
46,84,59040,120
63,52,59160,120
54,52,59280,120
63,54,59400,120
58,54,59520,120
51,52,59640,120
34,80,59760,120
63,56,59880,120
54,56,60000,120
63,56,60120,120
58,56,60240,120
51,56,60360,120
47,71,60480,120
63,52,60600,120
54,52,60720,120
63,54,60840,120
57,54,60960,120
51,52,61080,120
35,79,61200,120
63,56,61320,120
54,56,61440,120
63,56,61560,120
57,56,61680,120
51,56,61800,120
48,70,61920,480
63,52,62040,120
54,52,62160,120
63,54,62280,120
57,54,62400,120
51,52,62520,120
49,66,62640,480
61,52,62760,120
54,52,62880,120
57,54,63000,120
50,66,63120,480
60,52,63240,120
54,52,63360,120
57,54,63480,120
51,66,63600,480
63,52,63720,120
54,52,63840,120
56,55,63960,120
44,66,64080,120
66,52,64200,120
56,51,64320,120
66,50,64440,120
60,49,64560,120
54,47,64680,120
37,76,64800,120
65,44,64920,120
56,48,65040,120
65,48,65160,120
61,48,65280,120
53,47,65400,120
49,56,65520,120
65,44,65640,120
56,44,65760,120
65,44,65880,120
61,44,66000,120
53,44,66120,120
49,52,66240,120
65,48,66360,120
56,48,66480,120
65,46,66600,120
61,46,66720,120
53,46,66840,120
49,54,66960,120
65,46,67080,120
56,46,67200,120
65,48,67320,120
61,49,67440,120
53,52,67560,120
49,59,67680,120
65,51,67800,120
56,49,67920,120
65,48,68040,120
61,48,68160,120
53,46,68280,120
49,52,68400,120
65,44,68520,120
56,44,68640,120
65,44,68760,120
61,44,68880,120
53,42,69000,120
37,52,69120,120
65,44,69240,120
56,44,69360,120
65,44,69480,120
61,44,69600,120
53,44,69720,120
49,52,69840,120
65,44,69960,120
56,44,70080,120
65,37,70200,120
61,42,70320,120
53,32,70440,120
49,28,70560,120
65,22,70680,120
56,22,70800,120
65,22,70920,120
61,22,71040,120
53,22,71160,120
49,27,71280,120
65,22,71400,120
56,22,71520,120
65,22,71640,120
61,24,71760,120
53,22,71880,120
37,27,72000,120
65,22,72120,120
56,22,72240,120
65,22,72360,120
59,21,72480,120
53,21,72600,120
49,28,72720,120
65,23,72840,120
56,25,72960,120
65,27,73080,120
59,28,73200,120
53,30,73320,120
49,33,73440,240
65,28,73680,240
56,28,73920,240
65,28,74160,240
59,28,74400,240
53,28,74640,240
49,28,74880,240
65,29,75120,240
56,30,75360,240
65,30,75600,240
59,29,75840,240
53,28,76080,240
50,29,76320,120
65,22,76440,120
56,22,76560,120
65,22,76680,120
58,21,76800,120
53,21,76920,120
50,28,77040,120
65,23,77160,120
56,25,77280,120
65,27,77400,120
58,28,77520,120
53,30,77640,120
51,35,77760,120
66,28,77880,120
58,28,78000,120
66,28,78120,120
63,28,78240,120
54,28,78360,120
51,35,78480,120
68,30,78600,120
58,31,78720,120
68,31,78840,120
62,31,78960,120
53,31,79080,120
51,44,79200,120
66,34,79320,120
58,34,79440,120
66,34,79560,120
63,34,79680,120
54,34,79800,120
46,45,79920,120
65,35,80040,120
58,37,80160,120
65,39,80280,120
62,40,80400,120
53,42,80520,120
39,35,80640,120
66,28,80760,120
58,28,80880,120
66,28,81000,120
63,28,81120,120
54,28,81240,120
51,35,81360,120
68,30,81480,120
58,31,81600,120
68,31,81720,120
62,31,81840,120
53,31,81960,120
51,44,82080,120
66,34,82200,120
58,34,82320,120
66,34,82440,120
63,34,82560,120
54,34,82680,120
42,65,82800,120
63,40,82920,120
54,42,83040,120
63,44,83160,120
58,46,83280,120
51,48,83400,120
44,52,83520,120
61,44,83640,120
53,44,83760,120
61,44,83880,120
56,44,84000,120
44,44,84120,120
46,57,84240,120
61,48,84360,120
53,48,84480,120
61,48,84600,120
58,48,84720,120
46,49,84840,120
41,58,84960,120
56,51,85080,120
49,51,85200,120
56,51,85320,120
49,51,85440,120
41,52,85560,120
42,64,85680,120
58,51,85800,120
49,52,85920,120
58,54,86040,120
51,55,86160,120
42,56,86280,120
32,58,86400,120
61,51,86520,120
51,51,86640,120
61,51,86760,120
56,51,86880,120
51,52,87000,120
44,64,87120,120
61,51,87240,120
51,52,87360,120
61,54,87480,120
56,55,87600,120
51,56,87720,120
32,58,87840,120
61,51,87960,120
51,51,88080,120
61,51,88200,120
54,51,88320,120
51,52,88440,120
44,64,88560,120
60,51,88680,120
51,52,88800,120
60,54,88920,120
54,55,89040,120
44,56,89160,120
37,64,89280,120
65,26,89400,120
56,26,89520,120
65,26,89640,120
61,26,89760,120
53,26,89880,120
49,30,90000,120
64,26,90120,120
58,26,90240,120
64,26,90360,120
61,26,90480,120
55,26,90600,120
49,30,90720,120
63,26,90840,120
57,26,90960,120
63,26,91080,120
60,26,91200,120
54,26,91320,120
49,30,91440,720
62,26,91560,120
56,25,91680,120
62,25,91800,120
59,25,91920,120
53,25,92040,120
49,28,92160,720
61,25,92280,120
55,24,92400,120
61,24,92520,120
58,24,92640,120
52,24,92760,120
49,28,92880,720
61,23,93000,120
54,23,93120,120
61,23,93240,120
57,23,93360,120
51,23,93480,120
49,27,93600,120
60,22,93720,120
54,22,93840,120
60,22,93960,120
56,22,94080,120
51,22,94200,120
49,27,94320,120
60,22,94440,120
54,22,94560,120
60,22,94680,120
56,22,94800,120
51,22,94920,120
37,27,95040,120
65,22,95160,120
56,22,95280,120
65,22,95400,120
61,22,95520,120
53,22,95640,120
49,27,95760,120
64,22,95880,60
58,22,96000,120
64,22,96120,60
61,22,96240,120
55,22,96360,120
49,27,96480,120
63,22,96600,120
57,22,96720,120
63,22,96840,120
60,22,96960,120
54,22,97080,120
49,27,97200,120
62,22,97320,120
56,22,97440,120
62,22,97560,120
59,22,97680,120
53,22,97800,120
49,27,97920,720
61,22,98040,120
55,22,98160,120
61,22,98280,120
58,22,98400,120
52,22,98520,120
49,27,98640,720
61,22,98760,120
54,22,98880,120
61,22,99000,120
57,22,99120,120
51,22,99240,120
49,27,99360,120
60,22,99480,120
54,22,99600,120
60,22,99720,120
56,22,99840,120
51,22,99960,120
49,27,100080,120
60,22,100200,120
54,22,100320,120
60,22,100440,120
56,22,100560,120
51,22,100680,120
37,27,100800,120
61,22,100920,120
49,22,101040,120
61,22,101160,120
53,22,101280,120
44,22,101400,120
37,26,101520,120
61,22,101640,120
49,22,101760,120
61,22,101880,120
53,22,102000,120
44,22,102120,120
37,26,102240,120
60,21,102360,120
51,21,102480,120
60,21,102600,120
54,21,102720,120
44,21,102840,120
37,25,102960,120
60,21,103080,120
51,21,103200,120
60,21,103320,120
54,21,103440,120
44,21,103560,120
37,24,103680,120
61,21,103800,120
49,20,103920,120
61,20,104040,120
53,20,104160,120
44,20,104280,120
37,24,104400,120
61,20,104520,120
49,20,104640,120
61,20,104760,120
53,20,104880,120
44,20,105000,120
37,23,105120,120
60,20,105240,120
51,20,105360,120
60,19,105480,120
54,19,105600,120
44,19,105720,120
37,22,105840,120
60,19,105960,120
51,19,106080,120
60,19,106200,120
54,19,106320,120
44,19,106440,120
37,22,106560,120
61,18,106680,120
49,18,106800,120
61,18,106920,120
53,18,107040,120
44,18,107160,120
37,22,107280,120
61,18,107400,120
49,18,107520,120
61,18,107640,120
53,18,107760,120
44,18,107880,120
37,22,108000,120
61,18,108120,120
49,18,108240,120
61,18,108360,120
53,18,108480,120
44,18,108600,120
37,22,108720,120
61,18,108840,120
49,18,108960,120
61,18,109080,120
53,18,109200,120
44,18,109320,120
37,17,109440,480
44,16,110160,720
56,20,110160,720
49,16,110880,1440
56,20,110880,1440
