note,velocity,position,duration
51,74,0,480
63,88,0,480
58,57,1440,120
63,68,1440,120
55,51,1920,120
58,61,1920,120
56,31,2400,480
64,31,2400,480
68,37,2400,480
55,28,2880,240
63,28,2880,240
67,32,2880,240
59,74,5760,480
56,74,5760,480
52,74,5760,480
64,88,5760,480
59,57,7200,120
64,68,7200,120
52,45,7680,120
56,45,7680,120
59,54,7680,120
61,31,8160,480
70,31,8160,480
73,37,8160,480
68,28,8640,240
71,32,8640,240
60,74,11520,480
57,74,11520,480
53,74,11520,480
65,88,11520,480
57,45,12240,120
62,53,12240,120
58,47,12360,120
63,56,12360,120
59,50,12480,120
64,59,12480,120
60,52,12600,120
65,59,12600,120
61,55,12720,120
67,65,12720,120
62,68,12840,120
68,68,12840,120
63,64,12960,120
69,76,12960,120
57,62,13440,120
53,62,13440,120
60,62,13440,120
65,74,13440,120
60,66,13920,480
65,66,13920,480
72,78,13920,480
56,62,14400,240
58,62,14400,240
62,62,14400,240
65,62,14400,240
70,73,14400,240
59,49,15120,120
64,58,15120,120
60,51,15240,120
65,61,15240,120
61,55,15360,120
66,64,15360,120
62,57,15480,120
67,64,15480,120
63,60,15600,120
68,71,15600,120
64,74,15720,120
69,74,15720,120
65,64,15840,120
70,76,15840,120
58,63,16320,120
53,63,16320,120
62,75,16320,120
65,75,16320,120
65,70,16800,480
70,70,16800,480
77,82,16800,480
61,65,17280,240
63,65,17280,240
67,65,17280,240
70,65,17280,240
75,77,17280,240
73,77,17760,120
77,77,17760,120
68,72,17880,120
67,72,18000,120
75,72,18120,120
73,77,18240,120
77,77,18240,120
68,70,18360,120
67,70,18480,120
75,70,18600,120
70,77,18720,120
77,77,18720,120
67,71,18840,120
63,71,18960,120
75,71,19080,120
72,77,19200,120
77,77,19200,120
67,72,19320,120
63,72,19440,120
75,72,19560,120
73,77,19680,120
77,77,19680,120
70,71,19800,120
63,71,19920,120
75,71,20040,120
73,73,20160,120
77,73,20160,120
70,67,20280,120
63,68,20400,120
75,68,20520,120
73,75,20640,120
77,75,20640,120
70,70,20760,120
63,71,20880,120
75,71,21000,120
73,77,21120,120
77,77,21120,120
70,72,21240,120
63,73,21360,120
75,73,21480,120
73,80,21600,120
77,80,21600,120
70,74,21720,120
63,75,21840,120
75,77,21960,120
73,83,22080,120
77,83,22080,120
70,78,22200,120
63,79,22320,120
75,79,22440,120
73,85,22560,120
77,85,22560,120
70,80,22680,120
63,81,22800,120
75,82,22920,120
73,75,23040,360
77,89,23040,360
72,72,23400,108
75,85,23400,108
72,72,23520,480
75,85,23520,480
68,68,24240,120
72,80,24240,120
70,67,24360,120
73,79,24360,120
73,72,24480,120
77,85,24480,120
72,68,24600,240
75,80,24600,60
77,74,24660,60
75,85,24720,120
71,68,24840,120
74,80,24840,120
72,68,24960,480
75,80,24960,480
68,68,25680,120
72,80,25680,120
70,67,25800,120
73,79,25800,120
73,72,25920,120
77,85,25920,120
72,68,26040,240
75,80,26040,60
77,74,26100,60
75,85,26160,120
71,68,26280,120
74,80,26280,120
73,72,26400,120
77,85,26400,60
72,68,26520,240
75,80,26520,120
77,74,26580,60
75,85,26640,120
71,68,26760,120
74,80,26760,120
72,68,26880,180
75,80,26880,180
63,66,27060,300
70,66,27090,270
78,78,27120,240
63,64,27360,240
69,64,27360,240
77,76,27360,240
65,64,27600,240
69,64,27600,240
72,76,27600,240
65,64,27840,240
70,64,27840,240
73,76,27840,240
66,73,28080,80
54,73,28160,80
66,73,28240,80
53,65,28320,240
65,77,28320,240
61,72,28560,180
66,78,28740,60
75,75,28800,360
78,89,28800,360
73,72,29160,108
77,85,29160,108
73,72,29280,480
77,85,29280,480
70,68,30000,120
73,80,30000,120
72,67,30120,120
75,79,30120,120
75,72,30240,120
78,85,30240,120
73,68,30360,240
77,80,30360,60
78,74,30420,60
77,85,30480,120
72,68,30600,120
76,80,30600,120
73,68,30720,480
77,80,30720,480
67,68,31440,120
73,68,31440,120
79,80,31440,120
68,67,31560,120
80,79,31560,120
72,71,31680,120
84,84,31680,120
79,73,31800,120
75,62,31800,120
72,66,31920,120
84,78,31920,120
70,65,32100,54
82,77,32100,54
70,68,32160,120
82,81,32160,120
75,70,32280,120
72,59,32280,120
70,63,32400,120
82,75,32400,120
68,57,32580,54
80,67,32580,54
68,66,32640,120
80,78,32640,120
75,66,32760,120
70,56,32760,120
68,62,32880,120
80,73,32880,120
67,56,33060,54
79,66,33060,54
67,63,33120,120
79,75,33120,120
74,65,33240,120
70,55,33240,120
67,60,33360,120
79,71,33360,120
65,57,33540,54
77,68,33540,54
65,61,33600,120
77,73,33600,120
70,63,33720,120
67,54,33720,120
65,58,33840,120
77,69,33840,120
63,54,34020,60
75,63,34020,60
61,63,34080,120
73,75,34080,120
68,63,34200,120
65,54,34200,120
61,59,34320,120
73,70,34320,120
60,53,34500,60
72,62,34500,60
65,63,34560,480
67,54,35040,60
68,55,35100,60
67,55,35160,60
68,56,35220,60
65,56,35280,120
67,57,35400,120
68,58,35520,60
70,59,35580,60
68,59,35640,60
70,60,35700,60
67,60,35760,120
68,61,35880,120
61,42,36000,240
67,42,36000,240
69,60,36000,120
70,56,36120,120
61,39,36240,240
67,39,36240,240
72,56,36240,120
73,56,36360,120
60,50,36480,240
68,50,36480,240
72,60,36480,240
59,57,36720,180
62,57,36720,180
65,57,36720,180
68,57,36720,180
77,68,36720,180
60,52,36900,54
63,52,36900,54
68,52,36900,54
75,62,36900,54
60,58,36960,120
63,58,36960,120
68,58,36960,120
75,69,36960,120
68,64,37080,240
80,76,37200,120
67,59,37380,60
79,70,37380,60
65,59,37440,480
77,70,37440,480
67,64,37920,120
79,65,38040,40
80,66,38080,40
79,65,38120,40
65,56,38160,120
77,66,38160,120
67,56,38280,120
79,67,38280,120
68,64,38400,120
80,65,38520,40
82,65,38560,40
80,65,38600,40
67,60,38640,120
79,71,38640,120
68,61,38760,120
80,72,38760,120
69,57,38880,120
75,63,38880,120
81,75,38880,120
70,63,39000,120
82,70,39000,120
72,59,39120,120
79,59,39120,120
84,70,39120,120
73,59,39240,120
85,70,39240,120
72,63,39360,120
80,63,39360,120
84,75,39360,120
77,64,39600,180
80,64,39600,180
89,76,39600,180
75,58,39780,54
80,58,39780,54
87,69,39780,54
75,65,39840,120
80,65,39840,120
87,77,39840,120
87,60,40020,60
75,60,40020,60
73,64,40080,180
81,64,40080,180
85,76,40080,180
72,59,40260,60
84,70,40260,60
70,64,40320,120
82,76,40320,120
58,59,40560,180
66,59,40560,180
70,70,40560,180
60,59,40740,60
72,70,40740,60
61,62,40800,240
65,62,40800,240
73,74,40800,240
61,61,41040,180
63,61,41040,180
66,61,41040,180
73,72,41040,180
60,58,41220,60
72,69,41220,60
58,63,41280,240
65,63,41280,240
70,75,41280,240
56,61,41520,180
58,61,41520,180
63,61,41520,180
68,72,41520,180
54,57,41700,60
66,68,41700,60
53,60,41760,120
61,60,41760,120
65,71,41760,120
45,59,42000,60
46,59,42060,60
48,60,42120,60
49,61,42180,60
51,61,42240,60
53,62,42300,60
55,63,42360,60
57,63,42420,60
58,64,42480,60
60,65,42540,60
61,65,42600,60
63,66,42660,60
65,67,42720,60
67,67,42780,60
69,68,42840,60
70,68,42900,60
72,69,42960,60
73,70,43020,60
75,70,43080,60
77,71,43140,60
79,72,43200,60
81,72,43260,60
82,77,43320,120
70,77,43320,120
84,71,43500,60
73,64,43560,120
82,76,43560,120
79,76,43560,120
81,71,43680,120
78,71,43680,120
72,60,43680,120
73,63,43800,240
79,75,43800,240
82,75,43800,240
72,60,44040,240
79,71,44040,240
84,71,44040,240
68,62,44280,240
72,62,44280,240
80,73,44280,240
63,60,44520,240
68,60,44520,240
75,71,44520,240
65,65,44760,240
68,65,44760,240
77,77,44760,240
68,61,45000,240
72,61,45000,240
80,72,45000,240
61,69,45240,240
65,69,45240,240
70,81,45240,240
73,81,45240,240
65,66,45480,240
68,66,45480,240
73,78,45480,240
77,78,45480,240
58,74,45720,240
63,74,45720,240
68,87,45720,240
70,87,45720,240
61,69,45960,240
63,69,45960,240
67,69,45960,240
70,82,45960,240
75,82,45960,240
77,82,46200,360
85,82,46200,360
89,97,46200,360
75,79,46560,108
84,79,46560,108
87,93,46560,108
75,79,46680,240
84,79,46680,240
87,93,46680,240
63,71,46860,60
63,71,46920,48
65,71,46968,48
63,71,47016,48
62,71,47064,48
63,71,47112,48
68,87,47160,120
72,74,47400,120
80,74,47400,120
84,88,47400,120
73,73,47520,120
82,73,47520,120
85,86,47520,120
77,79,47640,120
85,79,47640,120
89,93,47640,120
75,74,47820,54
84,74,47820,54
87,88,47820,54
75,74,47880,120
84,74,47880,120
87,93,47880,120
74,74,48000,120
83,74,48000,120
86,88,48000,120
75,74,48120,240
84,74,48120,240
87,88,48120,240
63,70,48300,60
63,70,48360,48
65,70,48408,48
63,70,48456,48
62,70,48504,48
63,70,48552,48
68,87,48600,120
84,88,48840,120
72,74,48840,120
80,74,48840,120
85,86,48960,120
73,73,48960,120
82,73,48960,120
85,79,49080,120
89,93,49080,120
77,79,49080,120
75,74,49200,240
84,74,49200,240
87,88,49200,60
89,81,49260,60
87,93,49320,120
83,74,49440,120
86,88,49440,120
74,74,49440,120
85,79,49560,120
89,93,49560,120
77,79,49560,120
84,74,49680,240
87,88,49680,60
75,74,49680,240
89,81,49740,60
87,93,49800,120
74,74,49920,120
83,74,49920,120
86,88,49920,120
75,74,50040,180
84,74,50040,180
87,88,50040,180
75,72,50220,240
82,72,50250,210
90,85,50280,180
75,70,50460,240
81,70,50490,210
89,83,50520,180
72,70,50670,270
75,70,50700,240
77,70,50730,210
84,83,50760,180
70,70,50940,240
77,70,50970,210
85,83,51000,180
78,80,51240,80
66,80,51320,80
78,80,51400,80
65,71,51480,240
77,84,51480,240
61,74,51720,240
73,79,51720,240
78,82,51960,360
87,82,51960,360
90,97,51960,360
77,79,52320,108
85,79,52320,108
89,93,52320,108
77,79,52440,240
85,79,52440,240
89,93,52440,240
65,71,52620,60
65,71,52680,48
66,71,52728,48
65,71,52776,48
64,71,52824,48
65,71,52872,48
70,87,52920,120
73,74,53160,120
85,88,53160,120
82,74,53160,120
75,73,53280,120
84,73,53280,120
87,86,53280,120
90,93,53400,120
78,79,53400,120
87,79,53400,120
77,74,53580,54
85,74,53580,54
89,88,53580,54
85,74,53640,120
77,74,53640,120
89,93,53640,120
76,74,53760,120
88,88,53760,120
84,74,53760,120
77,88,53880,240
85,74,53880,240
89,88,53880,240
65,71,54060,60
65,71,54120,48
66,71,54168,48
65,71,54216,48
64,71,54264,48
65,71,54312,48
70,87,54360,240
79,81,54600,120
91,96,54600,120
85,81,54600,120
80,80,54720,120
92,94,54720,120
84,85,54840,120
96,101,54840,120
87,74,54960,120
91,88,54960,120
96,93,55080,120
84,79,55080,120
94,92,55260,54
82,78,55260,54
82,81,55320,120
94,97,55320,120
84,70,55440,120
87,84,55440,120
94,90,55560,120
82,75,55560,120
80,68,55740,54
92,80,55740,54
80,79,55800,120
92,93,55800,120
87,79,55920,120
82,67,55920,120
92,88,56040,120
80,74,56040,120
91,79,56220,54
79,67,56220,54
79,75,56280,120
91,90,56280,120
86,78,56400,120
82,66,56400,120
79,72,56520,120
91,85,56520,120
89,81,56700,54
77,68,56700,54
89,88,56760,120
77,73,56760,120
82,75,56880,120
79,64,56880,120
77,69,57000,120
89,82,57000,120
75,64,57180,60
87,75,57180,60
73,75,57240,120
85,90,57240,120
77,64,57360,120
80,75,57360,120
85,84,57480,120
73,70,57480,120
84,74,57660,60
72,63,57660,60
65,92,57720,480
67,70,58200,60
68,71,58260,60
67,71,58320,60
68,72,58380,60
65,72,58440,120
67,73,58560,120
68,75,58680,60
70,75,58740,60
68,77,58800,60
70,77,58860,60
67,78,58920,120
68,79,59040,120
61,48,59160,240
67,48,59160,240
69,82,59160,120
70,77,59280,120
61,44,59400,240
67,44,59400,240
72,77,59400,120
73,77,59520,120
60,69,59640,240
68,69,59640,240
72,82,59640,240
77,83,59880,180
59,70,59880,180
62,70,59880,180
65,70,59880,180
68,70,59880,180
63,63,60060,54
60,63,60060,54
75,75,60060,54
68,63,60060,54
60,71,60120,120
75,84,60120,120
63,71,60120,120
68,71,60120,120
68,79,60240,240
80,83,60360,120
67,64,60540,60
79,77,60540,60
65,64,60600,480
77,77,60600,480
67,70,61080,120
79,71,61200,40
80,72,61240,40
79,71,61280,40
65,61,61320,120
77,72,61320,120
67,61,61440,120
79,73,61440,120
68,70,61560,120
80,71,61680,40
82,71,61720,40
80,71,61760,40
67,66,61800,120
79,78,61800,120
68,67,61920,120
80,79,61920,120
69,69,62040,120
75,69,62040,120
81,82,62040,120
70,69,62160,120
82,77,62160,120
72,64,62280,120
79,64,62280,120
84,77,62280,120
73,64,62400,120
85,77,62400,120
72,69,62520,120
80,69,62520,120
84,82,62520,120
77,70,62760,180
80,70,62760,180
89,83,62760,180
75,63,62940,54
80,63,62940,54
87,75,62940,54
75,71,63000,120
80,71,63000,120
87,84,63000,120
87,66,63180,60
75,66,63180,60
73,70,63240,180
81,70,63240,180
85,83,63240,180
72,64,63420,60
84,77,63420,60
70,70,63480,120
82,83,63480,120
70,64,63720,180
78,64,63720,180
82,77,63720,180
72,64,63900,60
84,77,63900,60
73,68,63960,240
77,68,63960,240
85,81,63960,240
75,67,64200,180
73,67,64200,180
85,79,64200,180
78,67,64200,180
72,63,64380,60
84,75,64380,60
70,69,64440,240
77,69,64440,240
82,82,64440,240
68,67,64680,180
75,67,64680,180
80,79,64680,180
70,67,64680,180
66,62,64860,60
78,74,64860,60
73,66,64920,120
77,78,64920,120
65,66,64920,120
45,64,65160,60
46,64,65220,60
48,66,65280,60
49,67,65340,60
51,67,65400,60
53,68,65460,60
55,69,65520,60
57,69,65580,60
58,70,65640,60
60,71,65700,60
61,71,65760,60
63,72,65820,60
65,73,65880,60
67,73,65940,60
69,74,66000,60
70,74,66060,60
72,75,66120,60
73,77,66180,60
75,77,66240,60
77,78,66300,60
79,77,66360,60
81,77,66420,60
82,78,66480,60
84,79,66540,60
85,80,66600,60
87,80,66660,60
89,81,66720,60
91,82,66780,90
93,83,66870,90
94,92,66960,120
82,92,66960,120
96,85,67140,60
85,77,67200,120
94,91,67200,120
91,91,67200,120
90,85,67320,120
84,72,67320,120
93,85,67320,120
85,75,67440,240
91,90,67440,240
94,90,67440,240
84,72,67680,240
91,85,67680,240
96,85,67680,240
80,74,67920,240
84,74,67920,240
92,88,67920,240
75,72,68160,240
80,72,68160,240
87,85,68160,240
77,72,68400,120
80,72,68400,120
89,85,68400,120
61,67,68640,180
55,56,68640,180
63,67,68640,480
55,56,68820,54
61,67,68820,54
55,61,68880,480
61,72,68880,480
70,72,68880,480
56,56,69360,120
60,56,69360,120
68,67,69360,120
72,66,69840,120
84,78,69840,120
60,42,70080,120
72,51,70080,120
60,40,70260,60
72,47,70260,60
61,45,70320,240
72,55,70320,240
60,41,70560,120
72,51,70560,120
60,39,70740,60
72,47,70740,60
63,49,70800,240
72,58,70800,240
60,46,71040,120
72,55,71040,120
61,44,71220,60
72,52,71220,60
65,51,71280,240
72,62,71280,240
60,49,71520,120
72,58,71520,120
64,47,71700,60
72,55,71700,60
67,55,71760,240
72,67,71760,240
60,51,72000,120
72,61,72000,120
65,48,72180,60
72,56,72180,60
68,56,72240,240
72,68,72240,240
60,55,72480,120
72,66,72480,120
66,51,72660,60
72,61,72660,60
67,55,72720,240
72,68,72720,240
64,55,72720,240
76,68,72720,240
84,71,72960,480
88,71,72960,480
76,71,72960,480
74,66,73440,120
83,66,73440,120
86,66,73440,120
76,69,73560,120
84,69,73560,120
88,69,73560,120
89,71,73680,240
86,71,73680,240
77,71,73680,240
76,71,73920,180
79,71,73920,180
88,71,73920,180
74,68,74100,60
86,68,74100,60
76,68,74160,240
84,68,74160,240
88,68,74160,240
60,59,74400,60
64,61,74460,60
67,62,74520,60
71,63,74580,60
72,64,74640,60
76,66,74700,60
79,68,74760,60
83,68,74820,60
84,70,74880,60
88,72,74940,60
91,73,75000,60
96,74,75060,60
85,63,75120,240
97,75,75120,240
86,67,75360,240
98,79,75360,240
87,69,75600,120
99,82,75600,120
63,42,75840,120
75,51,75840,120
63,40,76020,60
75,47,76020,60
64,45,76080,240
75,55,76080,240
63,41,76320,120
75,51,76320,120
63,39,76500,60
75,47,76500,60
66,49,76560,240
75,58,76560,240
63,46,76800,120
75,55,76800,120
64,44,76980,60
75,52,76980,60
68,51,77040,240
75,62,77040,240
63,49,77280,120
75,58,77280,120
67,47,77460,60
75,55,77460,60
70,55,77520,240
75,67,77520,240
63,51,77760,120
75,61,77760,120
68,48,77940,60
75,56,77940,60
71,56,78000,240
75,68,78000,240
63,55,78240,120
75,66,78240,120
69,51,78420,60
75,61,78420,60
70,55,78480,240
75,68,78480,240
67,55,78480,240
79,68,78480,240
87,71,78720,480
91,71,78720,480
79,71,78720,480
78,66,79200,120
86,66,79200,120
90,66,79200,120
79,69,79320,120
87,69,79320,120
91,69,79320,120
92,71,79440,240
86,71,79440,240
80,71,79440,240
79,71,79680,180
86,71,79680,180
91,71,79680,180
77,68,79860,60
89,68,79860,60
79,68,79920,240
87,68,79920,240
91,68,79920,240
68,56,80160,240
79,67,80160,180
77,63,80340,60
67,50,80400,240
75,59,80400,240
56,56,80640,240
67,67,80640,180
65,63,80820,60
55,50,80880,240
63,59,80880,240
65,68,81360,960
58,63,82320,480
60,67,82800,720
60,64,83520,180
61,62,83700,60
61,53,83760,60
63,54,83820,60
61,56,83880,60
63,56,83940,60
61,57,84000,48
63,57,84048,48
61,56,84096,48
60,56,84144,48
61,55,84192,48
60,67,84240,720
60,64,84960,180
61,62,85140,60
61,53,85200,60
63,54,85260,60
61,56,85320,60
63,56,85380,60
61,57,85440,48
63,57,85488,48
61,56,85536,48
60,56,85584,48
61,55,85632,48
60,64,85680,240
62,56,85920,120
64,58,86040,120
65,61,86160,240
67,64,86400,240
70,63,86640,120
68,62,86760,120
67,61,86880,120
65,59,87000,60
65,49,87060,30
65,48,87090,30
77,68,87120,960
58,53,88080,480
70,63,88080,480
60,56,88560,720
72,67,88560,720
72,64,89280,180
73,62,89460,30
61,49,89490,30
73,53,89520,60
75,54,89580,60
73,56,89640,60
75,56,89700,60
73,57,89760,48
75,57,89808,48
73,56,89856,48
72,56,89904,48
73,55,89952,48
60,56,90000,720
72,67,90000,720
72,66,90720,180
73,64,90900,30
61,51,90930,30
73,55,90960,60
75,56,91020,60
73,58,91080,60
75,58,91140,60
73,60,91200,48
75,60,91248,48
73,59,91296,48
72,58,91344,48
73,57,91392,48
74,56,91440,60
75,57,91500,60
74,59,91560,60
75,60,91620,60
74,61,91680,48
75,61,91728,48
74,61,91776,48
73,60,91824,48
74,59,91872,48
75,58,91920,60
77,59,91980,60
75,60,92040,60
77,62,92100,60
75,62,92160,60
77,63,92220,60
75,64,92280,60
77,65,92340,60
75,66,92400,60
77,68,92460,60
75,69,92520,60
74,69,92580,60
75,67,92640,60
77,68,92700,60
79,70,92760,60
80,71,92820,60
82,72,92880,60
84,74,92940,60
85,75,93000,60
87,76,93060,60
77,82,93120,360
85,82,93120,360
89,97,93120,360
75,79,93480,108
84,79,93480,108
87,93,93480,108
75,79,93600,240
84,79,93600,240
87,93,93600,240
63,71,93780,60
63,71,93840,48
65,71,93888,48
63,71,93936,48
62,71,93984,48
63,71,94032,48
68,87,94080,120
72,74,94320,120
80,74,94320,120
84,88,94320,120
73,73,94440,120
82,73,94440,120
85,86,94440,120
77,79,94560,120
85,79,94560,120
89,93,94560,120
75,74,94740,54
84,74,94740,54
87,88,94740,54
75,74,94800,120
84,74,94800,120
87,93,94800,120
74,74,94920,120
83,74,94920,120
86,88,94920,120
75,74,95040,240
84,74,95040,240
87,88,95040,240
63,70,95220,60
63,70,95280,48
65,70,95328,48
63,70,95376,48
62,70,95424,48
63,70,95472,48
68,87,95520,120
84,88,95760,120
72,74,95760,120
80,74,95760,120
85,86,95880,120
73,73,95880,120
82,73,95880,120
85,79,96000,120
89,93,96000,120
77,79,96000,120
75,74,96120,240
84,74,96120,240
87,88,96120,60
89,81,96180,60
87,93,96240,120
83,74,96360,120
86,88,96360,120
74,74,96360,120
85,79,96480,120
89,93,96480,120
77,79,96480,120
84,74,96600,240
87,88,96600,60
75,74,96600,240
89,81,96660,60
87,93,96720,120
74,74,96840,120
83,74,96840,120
86,88,96840,120
75,74,96960,180
84,74,96960,180
87,88,96960,180
75,72,97140,240
82,72,97170,210
90,85,97200,180
75,70,97380,240
81,70,97410,210
89,83,97440,180
72,70,97590,270
75,70,97620,240
77,70,97650,210
84,83,97680,180
70,70,97860,240
77,70,97890,210
85,83,97920,180
78,80,98160,80
66,80,98240,80
78,80,98320,80
65,71,98400,240
77,84,98400,240
61,74,98640,240
73,79,98640,240
78,82,98880,360
87,82,98880,360
90,97,98880,360
77,79,99240,108
85,79,99240,108
89,93,99240,108
77,79,99360,240
85,79,99360,240
89,93,99360,240
65,71,99540,60
65,71,99600,48
66,71,99648,48
65,71,99696,48
64,71,99744,48
65,71,99792,48
70,87,99840,240
73,74,100080,120
85,88,100080,120
82,74,100080,120
75,73,100200,120
84,73,100200,120
87,86,100200,120
90,93,100320,120
78,79,100320,120
87,79,100320,120
77,74,100500,60
85,74,100500,60
89,88,100500,60
85,74,100560,120
77,74,100560,120
89,93,100560,120
76,74,100680,120
88,88,100680,120
84,74,100680,120
77,88,100800,240
85,74,100800,240
89,88,100800,240
65,71,100980,60
65,71,101040,48
66,71,101088,48
65,71,101136,48
64,71,101184,48
65,71,101232,48
70,87,101280,240
79,81,101520,120
91,96,101520,120
85,81,101520,120
80,80,101640,120
92,94,101640,120
84,85,101760,120
96,101,101760,120
87,74,101880,120
91,88,101880,120
96,93,102000,120
84,79,102000,120
94,92,102180,54
82,78,102180,54
82,81,102240,120
94,97,102240,120
84,70,102360,120
87,84,102360,120
94,90,102480,120
82,75,102480,120
80,68,102660,54
92,80,102660,54
80,79,102720,120
92,93,102720,120
87,79,102840,120
82,67,102840,120
92,88,102960,120
80,74,102960,120
91,79,103140,54
79,67,103140,54
79,75,103200,120
91,90,103200,120
86,78,103320,120
82,66,103320,120
79,72,103440,120
91,85,103440,120
89,81,103620,54
77,68,103620,54
89,88,103680,120
77,73,103680,120
82,75,103800,120
79,64,103800,120
77,69,103920,120
89,82,103920,120
75,64,104100,60
87,75,104100,60
73,75,104160,120
85,90,104160,120
77,64,104280,120
80,75,104280,120
85,84,104400,120
73,70,104400,120
84,74,104580,60
72,63,104580,60
65,92,104640,480
67,56,105120,60
68,56,105180,60
67,56,105240,60
68,57,105300,60
65,57,105360,120
67,58,105480,120
68,60,105600,60
70,60,105660,60
68,61,105720,60
70,61,105780,60
67,62,105840,120
68,63,105960,120
61,46,106080,240
67,46,106080,240
69,65,106080,120
70,61,106200,120
61,43,106320,240
67,43,106320,240
72,61,106320,120
73,61,106440,120
60,46,106560,240
68,55,106560,240
72,65,106560,240
77,66,106800,180
59,56,106800,180
62,56,106800,180
65,56,106800,180
68,56,106800,180
63,50,106980,54
60,50,106980,54
75,60,106980,54
68,50,106980,54
60,56,107040,120
75,67,107040,120
63,56,107040,120
68,56,107040,120
68,63,107160,240
80,75,107280,120
67,58,107460,60
79,70,107460,60
65,58,107520,480
77,70,107520,480
67,64,108000,120
79,64,108120,40
80,65,108160,40
79,64,108200,40
65,55,108240,120
77,65,108240,120
67,55,108360,120
79,66,108360,120
68,64,108480,120
80,64,108600,40
82,64,108640,40
80,64,108680,40
67,59,108720,120
79,71,108720,120
68,60,108840,120
80,72,108840,120
69,52,108960,120
75,52,108960,120
81,74,108960,120
70,63,109080,120
82,70,109080,120
72,49,109200,120
79,58,109200,120
84,70,109200,120
73,58,109320,120
85,70,109320,120
72,63,109440,120
80,63,109440,120
84,74,109440,120
77,64,109680,180
80,64,109680,180
89,75,109680,180
75,57,109860,54
80,57,109860,54
87,69,109860,54
75,64,109920,120
80,64,109920,120
87,77,109920,120
87,59,110100,60
75,59,110100,60
73,64,110160,180
81,64,110160,180
85,75,110160,180
72,58,110340,60
84,70,110340,60
70,64,110400,120
82,75,110400,120
70,58,110640,180
78,58,110640,180
82,70,110640,180
72,58,110820,60
84,70,110820,60
73,62,110880,240
77,62,110880,240
85,73,110880,240
75,60,111120,180
73,60,111120,180
85,72,111120,180
78,60,111120,180
72,57,111300,60
84,69,111300,60
70,63,111360,240
77,63,111360,240
82,74,111360,240
68,60,111600,180
75,60,111600,180
80,72,111600,180
70,60,111600,180
66,56,111780,60
78,67,111780,60
73,59,111840,120
77,71,111840,120
65,59,111840,120
45,64,112080,60
46,64,112140,60
48,66,112200,60
49,67,112260,60
51,67,112320,60
53,68,112380,60
55,69,112440,60
57,69,112500,60
58,70,112560,60
60,71,112620,60
61,71,112680,60
63,72,112740,60
65,73,112800,60
67,73,112860,60
69,74,112920,60
70,74,112980,60
72,75,113040,60
73,77,113100,60
75,77,113160,60
77,78,113220,60
79,77,113280,60
81,77,113340,60
82,78,113400,60
84,79,113460,60
85,80,113520,60
87,80,113580,60
89,81,113640,60
91,82,113700,90
93,83,113790,90
94,92,113880,120
82,92,113880,120
96,85,114060,60
85,77,114120,120
94,91,114120,120
91,91,114120,120
90,85,114240,120
84,72,114240,120
93,85,114240,120
85,75,114360,240
91,90,114360,240
94,90,114360,240
84,72,114600,240
91,85,114600,240
96,85,114600,240
80,74,114840,240
84,74,114840,240
92,88,114840,240
75,72,115080,240
80,72,115080,240
87,85,115080,240
77,72,115320,120
80,72,115320,120
89,85,115320,120
61,67,115560,180
55,56,115560,180
63,67,115560,480
55,56,115740,54
61,67,115740,54
55,61,115800,480
61,72,115800,480
70,72,115800,480
56,56,116280,120
60,56,116280,120
68,67,116280,120
56,67,116670,480
59,70,116700,450
64,74,116730,420
68,80,116760,390
56,67,117150,480
59,70,117180,450
64,74,117210,420
68,79,117240,390
56,66,117630,480
59,69,117660,450
64,72,117690,420
68,78,117720,390
56,67,118110,480
59,70,118140,450
64,74,118170,420
68,79,118200,390
56,67,118590,480
59,70,118620,450
64,74,118650,420
68,79,118680,390
56,67,119070,570
59,70,119100,540
64,75,119130,510
68,81,119160,480
56,65,119640,60
59,65,119640,60
64,74,119640,60
68,80,119640,60
56,36,122520,960
59,44,122520,960
57,34,123480,360
59,41,123480,360
57,36,123840,120
59,43,123840,120
56,36,123960,360
59,43,123960,360
56,35,124320,120
64,41,124320,120
56,39,124440,480
59,39,124440,480
68,46,124440,480
57,33,124920,480
59,33,124920,480
66,40,124920,480
56,35,125400,360
59,42,125400,360
56,34,125760,120
64,41,125760,120
56,36,125880,240
59,36,125880,240
68,44,125880,240
57,34,126240,120
63,40,126240,120
56,34,126360,240
64,41,126360,240
56,35,126600,240
64,35,126600,240
68,41,126600,240
59,39,126840,240
68,39,126840,240
71,46,126840,240
61,39,127080,60
68,39,127080,60
73,47,127080,60
63,40,127200,60
68,40,127200,60
75,48,127200,60
64,42,127320,120
68,42,127320,120
76,50,127320,120
59,38,127560,120
68,38,127560,120
71,45,127560,120
68,45,127800,480
71,45,127800,480
80,53,127800,480
59,40,128280,720
66,40,128280,720
69,40,128280,720
71,48,128280,720
59,41,129000,60
69,41,129000,60
71,49,129000,60
59,41,129120,60
69,41,129120,60
71,49,129120,60
59,43,129240,120
69,43,129240,120
71,51,129240,120
59,40,129480,120
69,40,129480,120
71,48,129480,120
59,44,129720,360
68,44,129720,360
71,52,129720,360
64,41,130080,108
68,41,130080,108
76,50,130080,108
64,44,130200,480
68,44,130200,480
76,52,130200,480
59,40,130680,480
64,40,130680,480
68,48,130680,480
57,45,131160,240
59,45,131160,240
66,53,131160,720
57,43,131400,60
59,51,131400,60
59,51,131520,60
57,43,131520,60
57,45,131640,120
59,54,131640,120
57,44,131880,240
59,44,131880,240
66,52,131880,240
57,44,132120,60
59,44,132120,60
68,52,132120,60
57,43,132240,60
59,43,132240,60
66,51,132240,60
57,42,132360,60
59,42,132360,60
64,50,132360,60
63,40,132480,60
57,40,132480,60
59,40,132480,60
66,48,132480,60
56,52,132600,360
64,44,132600,840
68,52,132600,840
61,50,132960,120
59,52,133080,960
68,42,133440,108
71,51,133440,108
68,42,133560,480
71,51,133560,480
56,45,134040,720
59,53,134040,720
55,45,134760,60
59,54,134760,60
56,46,134880,60
59,54,134880,60
57,48,135000,120
59,57,135000,120
57,47,135240,60
61,55,135240,60
57,48,135360,60
63,57,135360,60
56,51,135480,360
64,61,135480,360
56,49,135840,108
59,49,135840,108
56,51,135960,480
59,51,135960,480
68,61,135960,480
57,53,136440,480
59,53,136440,480
66,63,136440,480
56,57,136920,360
59,67,136920,360
56,60,137280,108
64,71,137280,108
56,61,137400,240
59,61,137400,240
68,72,137400,240
57,59,137760,120
63,71,137760,120
56,61,137880,240
64,73,137880,240
56,63,138120,240
64,63,138120,240
68,76,138120,240
59,66,138360,480
68,66,138360,480
71,78,138360,480
61,61,138840,120
68,61,138840,120
73,72,138840,120
63,64,138960,120
68,64,138960,120
75,75,138960,120
64,64,139080,120
68,64,139080,120
76,77,139080,120
66,68,139200,120
71,68,139200,120
78,82,139200,120
71,85,139320,360
68,71,139320,480
76,71,139320,480
80,85,139320,480
70,81,139680,840
67,74,139800,720
75,74,139800,720
79,88,139800,720
58,72,140520,240
67,72,140520,240
70,86,140520,480
63,76,140760,240
67,76,140760,240
75,90,140760,480
67,81,141000,240
70,81,141000,240
79,96,141000,240
70,85,141240,360
79,85,141240,360
82,101,141240,360
75,83,141600,120
79,83,141600,120
87,99,141600,840
75,84,141720,360
79,100,141720,360
75,81,142080,120
67,81,142080,120
79,96,142080,360
67,81,142200,240
75,81,142200,240
72,78,142440,120
84,92,142440,120
79,78,142440,120
70,85,142680,480
79,85,142680,480
82,102,142680,480
58,83,143400,60
70,98,143400,60
58,83,143520,60
70,98,143520,60
58,89,143640,120
70,106,143640,120
68,89,143640,120
65,86,143880,120
68,86,143880,120
70,86,143880,120
77,101,143880,120
63,94,144120,120
67,94,144120,120
75,111,144120,120
51,70,144270,240
57,72,144300,210
59,74,144330,180
63,77,144360,150
51,72,144510,240
57,75,144540,210
59,78,144570,180
63,81,144600,150
51,74,144750,240
57,78,144780,210
59,80,144810,180
63,83,144840,150
51,77,144990,240
57,80,145020,210
59,82,145050,180
63,86,145080,150
51,80,145230,330
57,83,145260,300
59,85,145290,270
63,89,145320,240
52,84,145560,120
56,84,145560,120
64,99,145560,120
56,79,145950,480
59,80,145980,450
64,80,146010,420
68,80,146040,390
56,78,146430,480
59,78,146460,450
64,77,146490,420
68,77,146520,390
56,75,146910,480
59,75,146940,450
64,75,146970,420
68,74,147000,390
56,72,147390,480
59,72,147420,450
64,72,147450,420
68,72,147480,390
56,69,147870,570
59,69,147900,540
64,69,147930,510
68,69,147960,480
56,66,148440,60
59,66,148440,60
64,66,148440,60
68,66,148440,60
56,37,151320,960
59,44,151320,960
57,35,152280,360
59,42,152280,360
57,36,152640,120
59,44,152640,120
56,36,152760,360
59,44,152760,360
56,35,153120,108
64,41,153120,108
56,39,153240,480
59,39,153240,480
68,46,153240,480
57,33,153720,480
59,33,153720,480
66,40,153720,480
56,35,154200,360
59,42,154200,360
56,35,154560,108
64,42,154560,108
56,36,154680,240
59,36,154680,240
68,44,154680,240
57,34,155040,120
63,41,155040,120
56,35,155160,240
64,42,155160,240
56,36,155400,240
64,36,155400,240
68,42,155400,240
59,39,155640,240
68,39,155640,240
71,47,155640,240
61,39,155880,60
68,39,155880,60
73,47,155880,60
63,40,156000,60
68,40,156000,60
75,49,156000,60
64,43,156120,120
68,43,156120,120
76,51,156120,120
59,39,156360,120
68,39,156360,120
71,45,156360,120
68,45,156600,480
71,45,156600,480
80,54,156600,480
59,34,157080,720
66,34,157080,720
69,41,157080,720
71,49,157080,720
59,42,157800,60
69,42,157800,60
71,50,157800,60
59,42,157920,60
69,42,157920,60
71,50,157920,60
59,43,158040,120
69,43,158040,120
71,52,158040,120
59,41,158280,120
69,41,158280,120
71,49,158280,120
59,45,158520,360
68,45,158520,360
71,53,158520,360
64,42,158880,108
68,42,158880,108
76,50,158880,108
64,44,159000,480
68,44,159000,480
76,53,159000,480
59,41,159480,480
64,41,159480,480
68,49,159480,480
57,46,159960,240
59,46,159960,240
66,54,159960,720
57,44,160200,60
59,52,160200,60
59,52,160320,60
57,44,160320,60
57,45,160440,120
59,54,160440,120
57,45,160680,240
59,45,160680,240
66,54,160680,240
57,45,160920,60
59,45,160920,60
68,53,160920,60
57,44,161040,60
59,44,161040,60
66,52,161040,60
57,43,161160,60
59,43,161160,60
64,51,161160,60
63,41,161280,60
57,41,161280,60
59,41,161280,60
66,50,161280,60
56,53,161400,360
64,45,161400,840
68,53,161400,840
61,51,161760,120
59,54,161880,960
68,43,162240,108
71,52,162240,108
68,43,162360,480
71,52,162360,480
56,45,162840,720
59,53,162840,720
55,45,163560,60
59,54,163560,60
56,46,163680,60
59,54,163680,60
57,48,163800,120
59,57,163800,120
57,47,164040,60
61,55,164040,60
57,48,164160,60
63,57,164160,60
56,51,164280,360
64,61,164280,360
56,49,164640,108
59,49,164640,108
56,51,164760,480
59,51,164760,480
68,61,164760,480
57,53,165240,480
59,53,165240,480
66,63,165240,480
56,57,165720,360
59,67,165720,360
56,60,166080,108
64,71,166080,108
56,61,166200,240
59,61,166200,240
68,72,166200,240
57,58,166560,120
63,70,166560,120
56,61,166680,240
64,73,166680,240
56,63,166920,240
64,63,166920,240
68,76,166920,240
59,66,167160,480
68,66,167160,480
71,78,167160,480
61,61,167640,120
68,61,167640,120
73,72,167640,120
63,64,167760,120
68,64,167760,120
75,75,167760,120
64,64,167880,120
68,64,167880,120
76,77,167880,120
66,67,168000,120
71,67,168000,120
78,81,168000,120
71,85,168120,360
68,71,168120,480
76,71,168120,480
80,85,168120,480
70,81,168480,840
67,74,168600,720
75,74,168600,720
79,88,168600,720
58,72,169320,240
67,72,169320,240
70,86,169320,480
63,76,169560,240
67,76,169560,240
75,90,169560,480
67,81,169800,240
70,81,169800,240
79,96,169800,240
70,85,170040,360
79,85,170040,360
82,101,170040,360
75,83,170400,120
79,83,170400,120
87,99,170400,840
75,84,170520,360
79,100,170520,360
75,81,170880,120
67,81,170880,120
79,96,170880,360
67,81,171000,240
75,81,171000,240
72,78,171240,120
84,92,171240,120
79,78,171240,120
70,85,171480,480
79,85,171480,480
82,102,171480,480
58,83,172200,60
70,98,172200,60
58,83,172320,60
70,98,172320,60
58,89,172440,120
70,106,172440,120
68,89,172440,120
65,86,172680,120
68,86,172680,120
70,86,172680,120
77,101,172680,120
63,83,172920,120
67,94,172920,120
75,111,172920,120
63,67,173160,60
75,79,173160,60
63,63,173280,60
75,75,173280,60
63,68,173400,240
75,81,173400,240
63,66,173640,60
75,78,173640,60
63,62,173760,60
75,73,173760,60
63,67,173880,240
75,79,173880,240
63,62,174120,60
75,74,174120,60
63,60,174240,60
75,71,174240,60
61,51,174360,240
63,51,174360,240
75,81,174360,480
63,55,174600,60
63,54,174720,60
63,54,174840,240
70,71,174840,480
63,54,175080,60
63,53,175200,60
60,58,175320,240
66,58,175320,240
72,68,175320,240
66,56,175560,120
77,66,175560,120
66,54,175680,120
75,64,175680,120
65,57,175800,240
75,68,175800,120
73,64,175920,120
65,54,176040,60
73,64,176040,60
65,49,176160,60
72,59,176160,60
65,52,176280,240
70,62,176280,480
65,53,176520,108
65,53,176640,108
60,54,176760,240
64,54,176760,240
72,64,176760,480
60,54,177000,108
64,54,177000,108
60,53,177120,108
64,53,177120,108
65,57,177240,240
60,57,177240,240
70,68,177240,120
68,64,177360,120
60,54,177480,60
68,64,177480,60
60,49,177600,60
67,59,177600,60
60,52,177720,240
65,62,177720,480
60,50,177960,108
62,50,177960,108
60,50,178080,108
62,50,178080,108
59,54,178200,240
62,54,178200,240
67,64,178200,480
59,51,178440,108
62,51,178440,108
59,50,178560,108
62,50,178560,108
60,47,178680,240
63,56,178680,60
65,56,178740,60
63,62,178800,120
59,49,178920,120
62,58,178920,120
60,49,179040,120
63,59,179040,120
65,56,179160,60
62,47,179160,240
67,56,179220,60
65,62,179280,120
60,49,179400,120
63,58,179400,120
62,59,179520,120
65,59,179520,120
55,54,179640,240
67,64,179640,480
63,54,179640,240
63,51,179880,108
55,51,179880,108
63,50,180000,108
55,50,180000,108
74,51,180120,240
65,51,180120,240
67,51,180120,240
79,81,180120,480
67,55,180360,108
65,55,180360,108
67,54,180480,108
65,54,180480,108
67,54,180600,240
65,54,180600,240
74,71,180600,480
67,54,180840,108
65,54,180840,108
67,53,180960,108
65,53,180960,108
70,58,181080,240
64,58,181080,240
72,58,181080,240
76,68,181080,480
70,56,181320,108
64,56,181320,108
72,56,181320,108
70,57,181440,108
64,54,181440,108
72,57,181440,108
68,57,181560,240
72,57,181560,240
79,68,181560,120
77,64,181680,120
68,54,181800,60
72,54,181800,60
77,64,181800,60
68,49,181920,60
72,49,181920,60
75,59,181920,60
72,52,182040,240
68,44,182040,240
65,44,182040,240
74,62,182040,480
72,53,182280,108
68,53,182280,108
65,53,182280,108
72,53,182400,108
68,53,182400,108
65,53,182400,108
70,54,182520,240
72,54,182520,240
76,64,182520,480
70,54,182760,108
72,54,182760,108
70,53,182880,108
72,53,182880,108
68,54,183000,240
72,54,183000,240
79,64,183000,120
77,61,183120,120
68,51,183240,60
72,51,183240,60
77,60,183240,60
68,44,183360,60
72,44,183360,60
75,54,183360,60
68,51,183480,240
75,61,183480,120
74,56,183600,120
65,46,183720,60
68,46,183720,60
74,56,183720,60
65,42,183840,60
68,42,183840,60
72,51,183840,60
65,49,183960,240
72,57,183960,120
70,53,184080,120
62,42,184200,60
65,42,184200,60
70,51,184200,60
62,38,184320,60
65,38,184320,60
68,45,184320,60
59,39,184440,120
62,39,184440,120
67,47,184440,120
63,33,184680,120
60,33,184680,120
67,39,184680,120
60,32,184800,120
57,32,184800,120
67,38,184800,120
59,31,184920,120
62,31,184920,120
67,44,184920,120
63,30,185160,120
60,30,185160,120
67,36,185160,120
60,29,185280,120
57,29,185280,120
67,35,185280,120
62,34,185400,120
67,34,185400,120
59,28,185400,120
74,50,185640,360
72,39,186000,120
71,38,186120,120
69,37,186240,120
68,36,186360,120
69,36,186480,120
71,36,186600,120
72,36,186720,120
73,36,186840,120
74,36,186960,120
79,40,187080,120
76,36,187200,120
73,36,187320,120
74,38,187440,120
78,40,187560,120
76,38,187680,120
74,36,187800,120
72,36,187920,120
64,36,188040,120
66,36,188160,120
67,32,188280,30
69,32,188310,30
67,36,188340,60
66,36,188400,120
67,35,188520,120
68,36,188640,120
69,36,188760,120
78,40,188880,120
76,37,189000,120
74,36,189120,120
73,38,189240,120
78,37,189360,120
79,39,189480,120
81,40,189600,120
84,42,189720,120
82,40,189840,120
79,38,189960,120
73,36,190080,120
74,44,190200,180
76,36,190380,60
74,44,190440,180
75,36,190620,60
74,44,190680,180
76,36,190860,60
74,44,190920,180
75,36,191100,60
74,44,191160,180
76,36,191340,60
74,44,191400,180
75,36,191580,60
74,40,191640,120
72,39,191760,120
70,38,191880,120
69,36,192000,120
68,36,192120,120
69,36,192240,120
70,36,192360,120
72,36,192480,120
73,36,192600,120
74,39,192720,120
79,47,192840,60
78,40,192960,60
77,47,193080,60
76,40,193200,60
75,39,193320,60
74,38,193440,60
73,36,193560,120
72,36,193680,120
69,36,193800,120
70,36,193920,120
67,32,194040,30
69,32,194070,30
67,36,194100,60
66,41,194160,120
67,35,194280,120
69,40,194400,120
70,50,194520,120
82,54,194640,120
81,51,194760,120
79,49,194880,120
81,56,195000,120
79,55,195120,120
77,53,195240,120
75,51,195360,120
77,53,195480,120
75,51,195600,120
70,48,195720,120
72,45,195840,120
74,46,195960,60
75,43,196020,60
74,46,196080,60
75,44,196140,60
74,46,196200,60
75,46,196260,60
74,47,196320,40
73,46,196360,40
74,46,196400,40
75,50,196440,60
77,47,196500,60
75,51,196560,60
77,47,196620,60
75,52,196680,60
77,49,196740,60
75,54,196800,40
74,51,196840,40
75,51,196880,40
76,58,196920,60
77,52,196980,60
76,56,197040,60
77,53,197100,60
76,60,197160,60
77,55,197220,60
76,61,197280,40
75,57,197320,40
76,57,197360,40
77,64,197400,120
75,51,197520,120
73,51,197640,120
72,54,197760,120
71,45,197880,120
72,48,198000,120
73,45,198120,120
75,46,198240,120
76,54,198360,120
77,49,198480,120
82,59,198600,120
81,55,198720,120
80,59,198840,120
79,48,198960,120
78,51,199080,120
77,54,199200,120
76,50,199320,120
75,47,199440,120
73,51,199560,120
72,49,199680,120
70,41,199800,30
72,41,199830,30
70,50,199860,60
69,45,199920,120
70,50,200040,120
72,45,200160,120
73,49,200280,120
85,57,200400,120
84,53,200520,120
82,51,200640,120
84,56,200760,120
82,55,200880,120
80,53,201000,120
78,51,201120,120
80,53,201240,120
78,51,201360,120
73,48,201480,120
75,45,201600,120
77,46,201720,80
78,44,201800,80
77,43,201880,80
76,45,201960,80
77,42,202040,80
78,43,202120,80
77,43,202200,80
78,43,202280,80
77,41,202360,80
76,43,202440,80
77,40,202520,80
78,40,202600,80
77,42,202680,80
78,39,202760,80
77,38,202840,80
76,41,202920,80
77,39,203000,80
78,38,203080,80
77,43,203160,120
75,41,203280,120
73,40,203400,120
72,39,203520,120
71,38,203640,120
72,38,203760,120
73,38,203880,120
75,39,204000,120
76,39,204120,120
77,39,204240,120
82,43,204360,60
81,42,204540,60
80,49,204600,60
79,43,204720,60
78,41,204840,60
77,40,204960,60
76,39,205080,120
75,39,205200,120
72,38,205320,120
73,38,205440,120
70,34,205560,30
72,34,205590,30
70,38,205620,60
69,38,205680,120
70,37,205800,120
73,38,205920,120
72,47,206040,120
70,41,206160,120
68,40,206280,120
67,39,206400,120
66,38,206520,120
67,38,206640,120
68,38,206760,120
70,39,206880,120
71,39,207000,120
72,47,207120,120
77,43,207240,120
73,42,207360,120
72,47,207480,120
70,41,207600,120
68,40,207720,120
67,39,207840,120
66,38,207960,120
67,45,208080,120
72,47,208200,120
71,39,208320,120
70,39,208440,120
68,39,208560,120
67,39,208680,120
65,38,208800,120
64,43,208920,120
72,49,209040,120
70,40,209160,120
68,39,209280,120
66,38,209400,120
67,38,209520,120
68,38,209640,120
70,39,209760,120
71,39,209880,120
72,49,210000,120
77,43,210120,120
73,42,210240,120
72,48,210360,120
70,41,210480,120
68,40,210600,120
67,39,210720,120
66,38,210840,120
67,38,210960,120
72,45,211080,120
71,39,211200,120
70,39,211320,120
68,39,211440,120
67,39,211560,120
65,38,211680,120
64,43,211800,120
72,46,211920,120
70,40,212040,120
68,39,212160,120
66,38,212280,120
67,38,212400,120
68,38,212520,120
70,39,212640,120
71,39,212760,120
72,49,212880,120
75,43,213000,120
73,42,213120,120
72,50,213240,120
70,41,213360,120
68,40,213480,120
67,39,213600,120
66,36,213720,120
67,37,213840,120
68,38,213960,120
70,39,214080,120
71,39,214200,120
72,48,214320,120
73,40,214440,120
71,38,214560,120
72,49,214680,120
70,41,214800,120
68,40,214920,120
67,39,215040,120
66,36,215160,120
67,37,215280,120
68,38,215400,120
70,39,215520,120
71,39,215640,120
72,50,215760,120
75,40,215880,120
73,38,216000,120
72,49,216120,120
70,41,216240,120
68,40,216360,120
67,39,216480,120
66,36,216600,120
67,37,216720,120
68,38,216840,120
70,39,216960,120
71,39,217080,120
72,50,217200,120
73,40,217320,120
71,38,217440,120
72,50,217560,120
70,44,217680,120
68,43,217800,120
67,42,217920,120
66,45,218040,120
67,46,218160,120
68,50,218280,120
70,55,218400,120
68,57,218520,120
67,57,218640,120
65,57,218760,120
64,59,218880,120
63,58,219000,120
64,61,219120,120
65,63,219240,120
67,65,219360,120
61,74,219480,240
67,66,219600,120
60,71,219720,240
67,63,219840,120
59,60,219960,120
60,63,220080,120
61,65,220200,120
63,68,220320,120
61,70,220440,120
60,68,220560,120
58,67,220680,120
56,65,220800,120
55,76,220920,360
60,69,221040,120
58,70,221160,120
54,70,221280,120
53,73,221400,360
60,70,221520,120
58,70,221640,120
52,70,221760,120
51,79,221880,360
56,72,222000,120
55,74,222120,120
51,75,222240,120
49,82,222360,360
55,78,222480,120
53,81,222600,120
49,82,222720,120
48,88,222840,240
51,82,222960,120
46,84,223080,240
51,86,223200,120
77,82,223320,360
85,88,223320,360
89,102,223320,360
75,79,223680,108
84,79,223680,108
87,93,223680,108
75,79,223800,240
84,79,223800,240
87,93,223800,240
63,71,223980,60
63,71,224040,48
65,71,224088,48
63,71,224136,48
62,71,224184,48
63,71,224232,48
68,87,224280,120
72,74,224520,120
80,74,224520,120
84,88,224520,120
73,73,224640,120
82,73,224640,120
85,86,224640,120
77,79,224760,120
85,79,224760,120
89,93,224760,120
75,74,224940,54
84,74,224940,54
87,88,224940,54
75,74,225000,120
84,74,225000,120
87,93,225000,120
74,74,225120,120
83,74,225120,120
86,88,225120,120
75,74,225240,240
84,74,225240,240
87,88,225240,240
63,70,225420,60
63,70,225480,48
65,70,225528,48
63,70,225576,48
62,70,225624,48
63,70,225672,48
68,87,225720,120
84,88,225960,120
72,74,225960,120
80,74,225960,120
85,86,226080,120
73,73,226080,120
82,73,226080,120
85,79,226200,120
89,93,226200,120
77,79,226200,120
75,74,226320,240
84,74,226320,240
87,88,226320,60
89,81,226380,60
87,93,226440,120
83,74,226560,120
86,88,226560,120
74,74,226560,120
85,79,226680,120
89,93,226680,120
77,79,226680,120
84,74,226800,240
87,88,226800,60
75,74,226800,240
89,81,226860,60
87,93,226920,120
74,74,227040,120
83,74,227040,120
86,88,227040,120
75,74,227160,180
84,74,227160,180
87,88,227160,180
75,72,227340,240
82,72,227370,210
90,85,227400,180
75,70,227580,240
81,70,227610,210
89,83,227640,180
72,70,227790,270
75,70,227820,240
77,70,227850,210
84,83,227880,180
70,70,228060,240
77,70,228090,210
85,83,228120,180
78,80,228360,80
66,80,228440,80
78,80,228520,80
65,71,228600,240
77,84,228600,240
61,74,228840,240
73,79,228840,240
78,82,229080,360
87,82,229080,360
90,97,229080,360
77,79,229440,108
85,79,229440,108
89,93,229440,108
77,79,229560,240
85,79,229560,240
89,93,229560,240
65,71,229740,60
65,71,229800,48
66,71,229848,48
65,71,229896,48
64,71,229944,48
65,71,229992,48
70,87,230040,120
73,74,230280,120
85,88,230280,120
82,74,230280,120
75,73,230400,120
84,73,230400,120
87,86,230400,120
90,93,230520,120
78,79,230520,120
87,79,230520,120
77,74,230700,54
85,74,230700,54
89,88,230700,54
85,74,230760,120
77,74,230760,120
89,93,230760,120
76,74,230880,120
88,88,230880,120
84,74,230880,120
77,88,231000,240
85,74,231000,240
89,88,231000,240
65,71,231180,60
65,71,231240,48
66,71,231288,48
65,71,231336,48
64,71,231384,48
65,71,231432,48
70,87,231480,240
79,81,231720,120
91,96,231720,120
85,81,231720,120
80,80,231840,120
92,94,231840,120
84,85,231960,120
96,101,231960,120
87,74,232080,120
91,88,232080,120
96,93,232200,120
84,79,232200,120
94,92,232380,54
82,78,232380,54
82,81,232440,120
94,97,232440,120
84,70,232560,120
87,84,232560,120
94,90,232680,120
82,75,232680,120
80,68,232860,54
92,80,232860,54
80,79,232920,120
92,93,232920,120
87,79,233040,120
82,67,233040,120
92,88,233160,120
80,74,233160,120
91,79,233340,54
79,67,233340,54
79,75,233400,120
91,90,233400,120
86,78,233520,120
82,66,233520,120
79,72,233640,120
91,85,233640,120
89,81,233820,54
77,68,233820,54
89,88,233880,120
77,73,233880,120
82,75,234000,120
79,64,234000,120
77,69,234120,120
89,82,234120,120
75,64,234300,60
87,75,234300,60
73,75,234360,120
85,90,234360,120
77,64,234480,120
80,75,234480,120
85,84,234600,120
73,70,234600,120
84,71,234780,60
72,61,234780,60
65,88,234840,480
67,59,235320,60
68,60,235380,60
67,61,235440,60
68,61,235500,60
65,62,235560,120
67,64,235680,120
68,66,235800,60
70,67,235860,60
68,69,235920,60
70,70,235980,60
67,71,236040,120
68,73,236160,120
61,45,236280,240
67,54,236280,240
69,77,236280,120
70,73,236400,120
61,43,236520,240
67,51,236520,240
72,73,236520,120
73,74,236640,120
60,57,236760,240
68,68,236760,240
72,81,236760,240
77,83,237000,180
59,70,237000,180
62,70,237000,180
65,70,237000,180
68,70,237000,180
63,63,237180,54
60,63,237180,54
75,75,237180,54
68,63,237180,54
60,71,237240,120
75,84,237240,120
63,71,237240,120
68,71,237240,120
68,79,237360,240
80,83,237480,120
67,64,237660,60
79,77,237660,60
65,64,237720,480
77,77,237720,480
67,70,238200,120
79,71,238320,40
80,72,238360,40
79,71,238400,40
65,61,238440,120
77,72,238440,120
67,61,238560,120
79,73,238560,120
68,70,238680,120
80,71,238800,40
82,71,238840,40
80,71,238880,40
67,66,238920,120
79,78,238920,120
68,67,239040,120
80,79,239040,120
69,49,239160,120
75,69,239160,120
81,82,239160,120
70,69,239280,120
82,77,239280,120
72,45,239400,120
79,64,239400,120
84,77,239400,120
73,64,239520,120
85,77,239520,120
72,69,239640,120
80,69,239640,120
84,82,239640,120
77,70,239880,180
80,70,239880,180
89,83,239880,180
75,63,240060,54
80,63,240060,54
87,75,240060,54
75,71,240120,120
80,71,240120,120
87,84,240120,120
87,66,240300,60
75,66,240300,60
73,70,240360,180
81,70,240360,180
85,83,240360,180
72,64,240540,60
84,77,240540,60
70,70,240600,120
82,83,240600,120
70,64,240840,180
78,64,240840,180
82,77,240840,180
72,64,241020,60
84,77,241020,60
73,68,241080,240
77,68,241080,240
85,81,241080,240
75,67,241320,180
73,67,241320,180
85,79,241320,180
78,67,241320,180
72,63,241500,60
84,75,241500,60
70,69,241560,240
77,69,241560,240
82,82,241560,240
68,67,241800,180
75,67,241800,180
80,79,241800,180
70,67,241800,180
66,62,241980,60
78,74,241980,60
73,66,242040,120
77,78,242040,120
65,66,242040,120
45,64,242280,60
46,64,242340,60
48,66,242400,60
49,67,242460,60
51,67,242520,60
53,68,242580,60
55,69,242640,60
57,69,242700,60
58,70,242760,60
60,71,242820,60
61,71,242880,60
63,72,242940,60
65,73,243000,60
67,73,243060,60
69,74,243120,60
70,74,243180,60
72,75,243240,60
73,77,243300,60
75,77,243360,60
77,78,243420,60
79,77,243480,60
81,77,243540,60
82,78,243600,60
84,79,243660,60
85,80,243720,60
87,80,243780,60
89,81,243840,60
91,82,243900,90
93,83,243990,90
94,92,244080,120
82,92,244080,120
96,85,244260,60
85,77,244320,120
94,91,244320,120
91,91,244320,120
90,85,244440,120
84,72,244440,120
93,85,244440,120
85,75,244560,240
91,90,244560,240
94,90,244560,240
84,72,244800,240
91,85,244800,240
96,85,244800,240
80,74,245040,240
84,74,245040,240
92,88,245040,240
75,72,245280,240
80,72,245280,240
87,85,245280,240
77,74,245520,240
80,74,245520,240
89,88,245520,240
75,72,245760,240
80,72,245760,240
87,85,245760,240
72,70,246000,240
75,70,246000,240
84,83,246000,240
68,68,246240,240
72,68,246240,240
80,80,246240,240
65,70,246480,240
68,70,246480,240
77,83,246480,240
63,68,246720,240
67,68,246720,240
75,80,246720,240
60,68,246960,120
68,68,246960,120
72,80,246960,120
63,66,247200,60
65,61,247260,60
63,65,247320,60
65,61,247380,60
62,81,247440,240
65,71,247680,80
68,73,247760,80
71,75,247840,80
74,77,247920,80
77,79,248000,80
80,81,248080,80
83,83,248160,80
86,85,248240,80
98,87,248320,80
87,89,248400,120
99,89,248400,120
70,75,248640,60
82,89,248640,60
75,75,248640,60
70,70,248760,60
82,83,248760,60
75,70,248760,60
70,75,248880,120
75,75,248880,120
82,89,248880,120
69,70,249120,120
75,70,249120,120
81,83,249120,120
70,73,249240,120
75,73,249240,120
82,87,249240,120
72,77,249360,240
75,77,249360,240
84,91,249360,240
67,75,249600,240
73,75,249600,240
75,75,249600,240
79,89,249600,240
68,74,249840,120
72,74,249840,120
80,88,249840,120
63,66,250080,60
65,61,250140,60
63,65,250200,60
65,61,250260,60
62,81,250320,240
65,71,250560,80
68,73,250640,80
71,75,250720,80
74,77,250800,80
77,79,250880,80
80,81,250960,80
83,83,251040,80
86,85,251120,80
98,87,251200,80
87,89,251280,120
99,89,251280,120
70,75,251520,60
82,89,251520,60
75,75,251520,60
70,70,251640,60
82,83,251640,60
75,70,251640,60
70,75,251760,120
75,75,251760,120
82,89,251760,120
72,63,251880,120
75,63,251880,120
84,75,251880,120
69,70,252000,120
75,70,252000,120
81,83,252000,120
70,73,252120,120
75,73,252120,120
82,87,252120,120
72,77,252240,240
75,77,252240,240
84,91,252240,240
67,75,252480,240
73,75,252480,240
75,75,252480,240
79,89,252480,240
77,85,252720,360
68,78,252720,360
72,84,252720,360
80,102,252720,360
75,93,253080,108
63,79,253200,480
72,79,253200,480
75,93,253200,480
72,74,253920,120
80,74,253920,120
84,88,253920,120
73,73,254040,120
82,73,254040,120
85,86,254040,120
77,82,254160,360
85,88,254160,360
89,102,254160,360
75,79,254520,108
84,79,254520,108
87,93,254520,108
75,79,254640,480
84,79,254640,480
87,93,254640,480
72,74,255360,120
80,74,255360,120
84,88,255360,120
73,73,255480,120
82,73,255480,120
85,86,255480,120
77,82,255600,360
85,88,255600,360
89,102,255600,360
75,79,255960,120
84,79,255960,120
87,93,255960,120
77,82,256080,360
85,88,256080,360
89,102,256080,360
75,79,256440,120
84,79,256440,120
87,93,256440,120
77,82,256560,360
85,88,256560,360
89,102,256560,360
75,79,256920,120
84,79,256920,120
87,93,256920,120
77,82,257040,360
85,88,257040,360
89,102,257040,360
75,79,257400,108
84,79,257400,108
87,93,257400,108
75,79,257520,480
84,79,257520,480
87,93,257520,480
89,93,258000,60
84,79,258000,60
77,79,258000,60
79,81,258120,120
84,81,258120,120
91,96,258120,120
80,85,258240,120
84,85,258240,120
92,100,258240,120
82,89,258360,120
87,89,258360,240
94,105,258360,120
96,110,258480,240
92,110,258480,240
84,93,258480,240
52,79,259200,60
55,79,259200,60
60,93,259200,60
64,93,259200,60
52,75,259320,60
55,75,259320,60
60,89,259320,60
64,89,259320,60
52,79,259440,120
55,79,259440,120
60,93,259440,120
64,93,259440,120
52,74,259680,120
55,74,259680,120
60,88,259680,120
64,88,259680,120
52,78,259830,330
55,78,259860,300
60,92,259890,270
64,92,259920,240
52,79,260310,330
55,79,260340,300
60,93,260370,270
64,93,260400,240
51,79,260790,330
55,79,260820,300
61,93,260850,270
63,93,260880,240
56,86,261360,240
60,86,261360,240
68,102,261360,240
27,63,0,480
39,75,0,480
49,40,720,120
52,40,720,120
57,47,720,120
50,42,840,120
53,42,840,120
58,50,840,120
51,45,960,120
54,45,960,120
59,53,960,120
52,46,1080,120
55,46,1080,120
60,55,1080,120
53,49,1200,120
56,49,1200,120
61,58,1200,120
53,51,1320,120
57,61,1320,120
62,61,1320,120
55,63,1440,120
39,42,1920,120
46,50,1920,120
50,28,2400,480
59,32,2400,480
51,23,2880,240
58,28,2880,240
44,36,3360,130
59,42,3360,130
43,33,3480,130
58,39,3480,130
38,33,3600,130
52,40,3600,130
39,35,3720,130
51,42,3720,130
44,39,3840,130
59,47,3840,130
43,38,3960,130
58,45,3960,130
38,39,4080,130
52,47,4080,130
39,40,4200,130
51,47,4200,130
44,44,4320,130
59,53,4320,130
43,43,4440,130
58,50,4440,130
38,44,4560,130
52,53,4560,130
39,46,4680,130
51,55,4680,130
44,52,4800,130
59,61,4800,130
43,49,4920,130
58,58,4920,130
38,49,5040,130
52,59,5040,130
39,52,5160,130
51,61,5160,130
44,58,5280,130
59,70,5280,130
43,55,5400,130
58,64,5400,130
38,55,5520,130
52,66,5520,130
39,57,5640,120
51,68,5640,120
44,63,5760,480
39,63,5760,480
51,75,5760,480
50,40,6480,120
53,40,6480,120
58,47,6480,120
51,42,6600,120
54,42,6600,120
59,50,6600,120
52,45,6720,120
55,45,6720,120
60,53,6720,120
53,46,6840,120
56,46,6840,120
61,55,6840,120
54,49,6960,120
57,49,6960,120
62,58,6960,120
54,51,7080,120
58,61,7080,120
63,61,7080,120
56,63,7200,120
39,37,7680,120
47,45,7680,120
58,28,8160,480
55,28,8160,480
64,32,8160,480
56,23,8640,240
59,23,8640,240
64,28,8640,240
46,36,9120,130
61,42,9120,130
44,33,9240,130
59,39,9240,130
39,33,9360,130
54,40,9360,130
44,35,9480,130
52,42,9480,130
46,39,9600,130
61,47,9600,130
44,38,9720,130
59,45,9720,130
39,39,9840,130
54,47,9840,130
44,40,9960,130
52,47,9960,130
46,44,10080,130
61,53,10080,130
44,43,10200,130
59,50,10200,130
39,44,10320,130
54,53,10320,130
44,46,10440,130
52,55,10440,130
46,52,10560,130
61,61,10560,130
44,49,10680,130
59,58,10680,130
39,49,10800,130
54,59,10800,130
44,52,10920,130
52,61,10920,130
46,58,11040,130
61,70,11040,130
44,55,11160,130
59,64,11160,130
39,55,11280,130
54,66,11280,130
44,57,11400,120
52,68,11400,120
45,63,11520,480
39,63,11520,480
51,75,11520,480
54,45,12240,120
55,47,12360,120
56,50,12480,120
57,52,12600,120
58,55,12720,120
59,57,12840,120
60,71,12960,120
39,54,13440,120
51,64,13440,120
57,67,13920,480
51,56,13920,480
63,67,13920,480
27,52,14400,240
39,62,14400,240
56,49,15120,120
57,51,15240,120
58,55,15360,120
59,57,15480,120
60,60,15600,120
61,62,15720,120
62,71,15840,120
39,54,16320,120
51,64,16320,120
58,58,16800,480
62,70,16800,480
56,58,16800,480
68,70,16800,480
27,54,17280,240
39,65,17280,240
34,54,17760,120
46,64,17760,120
39,46,18000,60
51,55,18000,60
41,49,18120,60
53,58,18120,60
43,51,18240,60
55,60,18240,60
44,52,18360,60
56,62,18360,60
46,55,18480,60
58,65,18480,60
48,56,18600,60
60,67,18600,60
49,59,18720,60
61,70,18720,60
39,54,19200,60
51,64,19200,60
55,59,19680,480
67,70,19680,600
61,53,20280,120
58,53,20400,120
51,54,20520,120
67,63,20640,120
61,58,20760,120
58,58,20880,120
51,58,21000,120
67,63,21120,120
61,58,21240,120
58,58,21360,120
51,59,21480,120
67,68,21600,120
61,60,21720,120
58,61,21840,120
51,62,21960,120
61,70,22080,120
55,63,22200,120
51,63,22320,120
46,63,22440,120
55,72,22560,120
49,66,22680,120
46,65,22800,120
39,66,22920,120
32,61,23040,120
44,72,23040,120
51,61,23280,240
63,72,23280,240
68,70,23520,240
60,70,23520,240
56,59,23520,240
39,66,23760,60
51,78,23760,60
44,67,24000,120
56,79,24000,120
27,56,24240,240
39,67,24240,240
32,61,24480,240
44,72,24480,240
63,67,24720,240
51,56,24720,240
68,69,24960,240
60,69,24960,240
56,58,24960,240
39,61,25200,60
51,73,25200,60
44,67,25440,120
56,79,25440,120
27,56,25680,240
39,67,25680,240
32,61,25920,240
44,72,25920,240
63,67,26160,240
51,56,26160,240
68,69,26400,240
60,69,26400,240
56,58,26400,240
39,56,26640,120
51,67,26640,120
44,59,26880,120
56,70,26880,120
39,57,27060,210
46,57,27090,180
54,68,27120,150
41,57,27270,240
48,57,27300,300
51,68,27330,180
57,68,27360,150
48,56,27510,90
53,56,27540,210
57,67,27570,180
63,67,27600,150
46,58,27750,330
53,58,27780,300
58,69,27810,270
61,69,27840,240
30,55,28080,240
42,65,28080,240
29,55,28320,240
41,65,28320,240
37,53,28560,240
49,63,28560,240
34,61,28800,120
46,72,28800,120
53,61,29040,240
65,72,29040,240
70,70,29280,240
61,70,29280,240
58,59,29280,240
41,66,29520,60
53,78,29520,60
46,67,29760,120
58,79,29760,120
29,56,30000,240
41,67,30000,240
34,61,30240,240
46,72,30240,240
65,67,30480,240
53,56,30480,240
70,69,30720,240
61,69,30720,240
58,58,30720,240
41,61,30960,60
53,73,30960,60
46,67,31200,120
58,79,31200,120
34,56,31440,240
46,67,31440,240
27,61,31680,120
39,72,31680,120
61,55,31920,120
67,66,31920,120
63,55,31920,120
39,59,32160,120
51,69,32160,120
60,53,32400,120
63,63,32400,120
39,57,32640,120
51,67,32640,120
58,51,32880,120
63,61,32880,120
34,54,33120,120
46,64,33120,120
56,50,33360,120
62,60,33360,120
58,50,33360,120
39,56,33600,120
51,66,33600,120
55,52,33840,120
58,62,33840,120
41,57,34080,240
53,68,34080,480
56,62,34320,240
37,51,34560,240
49,61,34560,240
53,45,34800,240
58,53,34800,240
36,45,35040,240
48,54,35040,240
52,40,35280,240
60,48,35280,240
58,40,35280,240
29,49,35520,240
41,58,35520,240
53,46,35760,240
56,46,35760,240
60,55,35760,240
39,47,36000,120
51,56,36000,120
51,44,36240,240
58,52,36240,240
44,44,36480,240
51,44,36480,240
56,52,36480,240
44,56,37200,240
56,66,37200,240
37,57,37440,240
49,68,37440,240
53,50,37680,240
58,59,37680,240
36,58,37920,240
48,69,37920,240
58,52,38160,240
64,62,38160,240
60,52,38160,240
29,60,38400,240
41,71,38400,240
56,67,38640,240
60,67,38640,240
65,67,38640,240
39,59,38880,120
51,70,38880,120
58,55,39120,240
61,55,39120,240
63,55,39120,240
67,65,39120,240
56,55,39360,120
63,55,39360,120
68,65,39360,120
68,64,39600,180
59,64,39600,180
62,64,39600,180
71,64,39600,180
68,58,39780,54
60,58,39780,54
72,58,39780,54
63,58,39780,54
68,65,39840,120
72,65,39840,120
60,65,39840,120
63,65,39840,120
53,56,40020,240
63,56,40050,210
69,66,40080,180
46,60,40260,240
53,60,40290,210
61,71,40320,180
39,56,40500,240
46,56,40530,210
54,66,40560,180
34,52,40740,240
41,52,40770,240
49,62,40800,180
27,52,41040,180
39,62,41040,180
34,52,41220,240
41,52,41250,210
49,62,41280,180
39,51,41460,240
46,51,41490,210
51,61,41520,180
34,56,41700,240
41,56,41730,210
49,66,41760,180
33,50,42000,60
34,50,42060,60
36,51,42120,60
37,51,42180,60
39,51,42240,60
41,52,42300,60
43,53,42360,60
45,53,42420,60
46,54,42480,60
48,55,42540,60
49,55,42600,60
51,56,42660,60
53,56,42720,60
55,56,42780,60
57,57,42840,60
58,57,42900,60
60,58,42960,60
61,59,43020,60
63,59,43080,60
65,60,43140,60
67,61,43200,60
69,61,43260,60
27,62,43560,120
39,73,43560,120
39,56,43800,120
51,66,43800,120
51,61,44040,240
63,72,44040,240
65,70,44280,240
60,59,44280,240
53,59,44280,240
48,56,44520,240
56,56,44520,240
60,66,44520,240
49,61,44760,240
56,72,44760,240
61,72,44760,240
41,56,45000,240
53,66,45000,240
46,60,45240,240
53,72,45240,240
58,72,45240,240
34,58,45480,240
46,69,45480,240
39,65,45720,240
51,77,45720,240
27,60,45960,240
39,71,45960,240
32,67,46200,120
44,79,46200,120
60,67,46440,240
51,67,46440,240
63,79,46440,240
68,77,46680,240
60,77,46680,240
56,64,46680,240
39,72,46920,60
51,85,46920,60
44,73,47160,120
56,86,47160,120
27,61,47400,240
39,73,47400,240
32,67,47640,240
44,79,47640,240
60,61,47880,240
63,73,47880,240
51,61,47880,240
68,75,48120,240
60,75,48120,240
56,63,48120,240
39,67,48360,60
51,80,48360,60
44,73,48600,120
56,86,48600,120
27,61,48840,240
39,73,48840,240
32,67,49080,240
44,79,49080,240
60,61,49320,240
63,73,49320,240
51,61,49320,240
68,75,49560,240
60,75,49560,240
56,63,49560,240
39,61,49800,120
51,73,49800,120
44,64,50040,120
56,77,50040,120
39,62,50220,210
46,62,50250,180
54,74,50280,150
41,62,50430,240
48,62,50460,300
51,74,50490,180
57,74,50520,150
53,61,50670,240
60,61,50700,210
63,73,50730,180
69,73,50760,150
46,63,50940,300
53,75,50970,270
61,75,51000,240
42,60,51240,240
54,71,51240,240
41,60,51480,240
53,71,51480,240
37,58,51720,240
49,69,51720,240
34,67,51960,120
46,79,51960,120
61,79,52200,240
53,67,52200,240
65,79,52200,240
70,77,52440,240
61,77,52440,240
58,64,52440,240
41,72,52680,60
53,85,52680,60
46,73,52920,120
58,86,52920,120
29,61,53160,240
41,73,53160,240
34,67,53400,240
46,79,53400,240
61,61,53640,240
65,73,53640,240
53,61,53640,240
70,75,53880,240
61,75,53880,240
58,63,53880,240
41,67,54120,60
53,80,54120,60
46,73,54360,120
58,86,54360,120
34,61,54600,240
46,73,54600,240
27,67,54840,120
39,79,54840,120
67,60,55080,240
61,60,55080,240
72,72,55080,120
63,60,55080,240
70,70,55200,120
51,75,55320,120
70,72,55560,120
60,58,55560,240
63,69,55560,240
68,70,55680,120
51,73,55800,120
68,72,56040,120
58,56,56040,240
63,67,56040,240
67,70,56160,120
46,70,56280,120
67,72,56520,120
56,55,56520,240
62,66,56520,240
58,55,56520,240
65,70,56640,120
51,72,56760,120
65,72,57000,120
55,57,57000,240
58,68,57000,240
63,70,57120,120
41,62,57240,240
53,74,57240,480
61,72,57480,120
56,68,57480,240
60,70,57600,120
37,62,57720,240
49,74,57720,240
53,55,57960,240
58,64,57960,240
36,63,58200,240
48,75,58200,240
52,57,58440,240
60,68,58440,240
58,57,58440,240
29,66,58680,240
41,78,58680,240
53,73,58920,240
56,73,58920,240
60,73,58920,240
39,57,59160,120
51,69,59160,120
51,54,59400,240
58,63,59400,240
44,60,59640,240
51,60,59640,240
56,71,59640,240
44,61,60360,240
56,72,60360,240
37,62,60600,240
49,74,60600,240
53,55,60840,240
58,64,60840,240
36,63,61080,240
48,75,61080,240
58,57,61320,240
64,68,61320,240
60,57,61320,240
29,66,61560,240
41,78,61560,240
56,73,61800,240
60,73,61800,240
65,73,61800,240
39,64,62040,120
51,77,62040,120
58,60,62280,240
61,60,62280,240
63,60,62280,240
67,71,62280,240
56,60,62520,120
63,60,62520,120
68,71,62520,120
68,70,62760,180
59,70,62760,180
62,70,62760,180
71,70,62760,180
68,63,62940,54
60,63,62940,54
72,63,62940,54
63,63,62940,54
68,71,63000,120
72,71,63000,120
60,71,63000,120
63,71,63000,120
53,61,63150,270
60,61,63180,240
63,61,63210,210
69,72,63240,180
46,66,63420,240
53,66,63450,210
61,78,63480,180
51,61,63660,240
58,61,63690,210
66,72,63720,180
46,57,63900,240
53,57,63930,210
61,68,63960,180
39,57,64140,240
46,57,64170,210
54,68,64200,180
34,57,64380,240
41,57,64410,210
49,68,64440,180
39,56,64620,240
46,56,64650,210
54,67,64680,180
46,61,64860,240
53,61,64890,210
61,72,64920,180
33,55,65160,60
34,55,65220,60
36,56,65280,60
37,56,65340,60
39,56,65400,60
41,57,65460,60
43,58,65520,60
45,58,65580,60
46,59,65640,60
48,60,65700,60
49,60,65760,60
51,61,65820,60
53,61,65880,60
55,61,65940,60
57,62,66000,60
58,62,66060,60
60,63,66120,60
61,64,66180,60
63,64,66240,60
65,66,66300,60
67,67,66360,60
69,65,66420,60
70,66,66480,60
72,67,66540,60
73,68,66600,60
75,69,66660,60
77,70,66720,60
79,71,66780,90
81,72,66870,60
27,68,67200,120
39,80,67200,120
51,61,67440,120
63,72,67440,120
72,67,67680,240
67,67,67680,240
63,67,67680,240
75,79,67680,240
77,77,67920,240
72,64,67920,240
65,64,67920,240
60,61,68160,240
68,61,68160,240
72,72,68160,240
61,61,68400,120
68,61,68400,120
73,72,68400,120
39,58,68640,480
51,69,68640,480
27,51,69120,120
39,61,69120,120
32,51,69360,120
44,61,69360,120
24,47,69840,120
36,55,69840,120
36,34,70080,120
48,41,70080,120
36,33,70260,60
48,39,70260,60
40,44,70320,240
49,44,70320,240
28,35,70560,120
40,42,70560,120
40,36,70740,60
48,44,70740,60
41,40,70800,240
51,49,70800,240
29,39,71040,120
41,47,71040,120
41,37,71220,60
49,45,71220,60
43,44,71280,240
53,51,71280,240
31,39,71520,120
43,48,71520,120
43,39,71700,60
52,45,71700,60
44,51,71760,240
55,51,71760,240
32,42,72000,120
44,51,72000,120
44,43,72180,60
53,51,72180,60
44,48,72240,240
56,56,72240,240
32,47,72480,120
44,56,72480,120
44,45,72660,60
54,52,72660,60
43,46,72720,240
55,55,72720,240
55,52,72960,60
67,52,72960,60
55,54,73080,60
67,54,73080,60
57,60,73200,120
69,60,73200,120
55,56,73320,120
67,56,73320,120
55,56,73440,60
67,56,73440,60
55,56,73560,60
67,56,73560,60
55,65,73680,120
67,65,73680,120
62,53,73920,240
65,53,73920,240
67,53,73920,240
71,53,73920,240
60,49,74160,240
67,49,74160,240
72,49,74160,240
48,50,74400,60
52,51,74460,60
55,52,74520,60
59,53,74580,60
60,54,74640,60
64,56,74700,60
67,57,74760,60
71,57,74820,60
72,62,74880,120
60,56,75000,120
61,49,75120,240
73,58,75120,240
62,52,75360,240
74,62,75360,240
63,55,75600,120
75,65,75600,120
39,34,75840,120
51,41,75840,120
39,33,76020,60
51,39,76020,60
43,44,76080,240
52,44,76080,240
31,35,76320,120
43,42,76320,120
43,36,76500,60
51,44,76500,60
44,40,76560,240
54,49,76560,240
32,39,76800,120
44,47,76800,120
44,37,76980,60
52,45,76980,60
46,44,77040,240
56,51,77040,240
34,39,77280,120
46,48,77280,120
46,38,77460,60
55,45,77460,60
47,51,77520,240
58,51,77520,240
35,42,77760,120
47,51,77760,120
47,43,77940,60
56,51,77940,60
47,48,78000,240
59,56,78000,240
35,47,78240,120
47,56,78240,120
47,45,78420,60
57,52,78420,60
46,46,78480,240
58,55,78480,240
58,52,78720,60
70,52,78720,60
58,54,78840,60
70,54,78840,60
60,60,78960,120
72,60,78960,120
58,56,79080,120
70,56,79080,120
58,56,79200,60
70,56,79200,60
58,56,79320,60
70,56,79320,60
58,65,79440,120
70,65,79440,120
58,53,79590,330
65,53,79620,300
68,53,79650,270
74,53,79680,240
63,49,79920,240
67,49,79920,240
75,49,79920,240
51,40,80160,240
59,40,80160,240
63,48,80160,240
51,38,80400,240
58,38,80400,240
63,45,80400,240
39,40,80640,240
47,40,80640,240
51,48,80640,240
39,38,80880,240
46,38,80880,240
51,45,80880,240
27,45,81120,120
39,45,81120,120
25,49,81360,120
37,58,81360,120
53,38,81600,90
55,45,81600,90
53,39,81720,90
55,47,81720,90
53,41,81840,180
55,49,81840,180
53,38,82080,180
55,45,82080,180
53,38,82320,180
55,45,82320,180
53,38,82560,180
55,45,82560,180
36,45,82800,240
48,53,82800,960
52,39,83040,90
55,47,83040,90
52,39,83160,90
55,47,83160,90
52,42,83280,180
55,50,83280,180
52,38,83520,180
55,45,83520,180
34,46,83760,240
46,55,83760,240
55,45,84000,240
53,38,84000,240
36,45,84240,240
48,53,84240,960
52,39,84480,90
55,47,84480,90
52,39,84600,90
55,47,84600,90
55,50,84720,180
52,42,84720,180
52,38,84960,180
55,45,84960,180
34,46,85200,240
46,55,85200,240
53,38,85440,240
55,45,85440,240
48,53,85680,240
36,45,85680,240
60,47,85920,90
55,39,85920,90
58,39,85920,90
55,39,86040,90
58,39,86040,90
60,47,86040,90
55,42,86160,180
58,42,86160,180
60,50,86160,180
58,38,86400,180
55,38,86400,180
60,45,86400,180
41,46,86640,240
53,55,86640,480
56,38,86880,240
60,45,86880,240
37,49,87120,240
49,58,87120,240
58,38,87360,90
55,38,87360,90
65,45,87360,90
55,39,87480,90
65,47,87480,90
58,39,87480,90
58,41,87600,180
55,41,87600,180
65,49,87600,180
55,38,87840,180
58,38,87840,180
65,45,87840,180
55,38,88080,180
65,45,88080,180
65,45,88320,180
55,38,88320,180
36,45,88560,240
48,53,88560,240
64,47,88800,90
55,39,88800,90
64,47,88920,90
55,39,88920,90
64,50,89040,180
55,42,89040,180
55,38,89280,180
64,45,89280,180
34,46,89520,240
46,55,89520,240
56,38,89760,240
53,38,89760,240
65,45,89760,240
36,45,90000,240
48,53,90000,240
64,47,90240,90
55,39,90240,90
64,48,90360,90
55,40,90360,90
64,50,90480,180
55,43,90480,180
55,39,90720,180
64,46,90720,180
34,48,90960,240
46,57,90960,240
56,40,91200,240
65,48,91200,240
53,40,91200,240
34,49,91440,240
46,58,91440,240
56,41,91680,240
62,41,91680,240
68,50,91680,240
58,41,91680,240
39,62,91920,240
27,53,91920,240
61,46,92160,240
58,46,92160,240
63,54,92160,240
55,46,92160,240
58,57,92400,240
61,57,92400,240
63,57,92400,240
67,68,92400,240
61,49,92640,480
63,49,92640,480
67,49,92640,480
73,59,92640,480
32,67,93120,120
44,79,93120,120
60,67,93360,240
51,67,93360,240
63,79,93360,240
68,77,93600,240
60,77,93600,240
56,64,93600,240
39,72,93840,60
51,85,93840,60
44,73,94080,120
56,86,94080,120
27,61,94320,240
39,73,94320,240
32,67,94560,240
44,79,94560,240
60,61,94800,240
63,73,94800,240
51,61,94800,240
68,75,95040,240
60,75,95040,240
56,63,95040,240
39,67,95280,60
51,80,95280,60
44,73,95520,120
56,86,95520,120
27,61,95760,240
39,73,95760,240
32,67,96000,240
44,79,96000,240
60,61,96240,240
63,73,96240,240
51,61,96240,240
68,75,96480,240
60,75,96480,240
56,63,96480,240
39,61,96720,120
51,73,96720,120
44,64,96960,120
56,77,96960,120
39,62,97140,210
46,62,97170,180
54,74,97200,150
41,62,97350,240
48,62,97380,300
51,74,97410,180
57,74,97440,150
53,61,97590,240
60,61,97620,210
63,73,97650,180
69,73,97680,150
46,63,97860,300
53,75,97890,270
61,75,97920,240
42,60,98160,240
54,71,98160,240
41,60,98400,240
53,71,98400,240
37,58,98640,240
49,69,98640,240
34,67,98880,120
46,79,98880,120
61,79,99120,240
53,67,99120,240
65,79,99120,240
70,77,99360,240
61,77,99360,240
58,64,99360,240
41,72,99600,60
53,85,99600,60
46,73,99840,120
58,86,99840,120
29,61,100080,240
41,73,100080,240
34,67,100320,240
46,79,100320,240
61,61,100560,240
65,73,100560,240
53,61,100560,240
70,75,100800,240
61,75,100800,240
58,63,100800,240
41,67,101040,60
53,80,101040,60
46,73,101280,120
58,86,101280,120
34,61,101520,240
46,73,101520,240
27,67,101760,120
39,79,101760,120
67,60,102000,240
61,60,102000,240
72,72,102000,120
63,60,102000,240
70,70,102120,120
51,75,102240,120
70,72,102480,120
60,58,102480,240
63,69,102480,240
68,70,102600,120
51,73,102720,120
68,72,102960,120
58,56,102960,240
63,67,102960,240
67,70,103080,120
46,70,103200,120
67,72,103440,120
56,55,103440,240
62,66,103440,240
58,55,103440,240
65,70,103560,120
51,72,103680,120
65,72,103920,120
55,57,103920,240
58,68,103920,240
63,70,104040,120
41,62,104160,240
53,74,104160,480
61,72,104400,120
56,68,104400,240
60,70,104520,120
37,62,104640,240
49,74,104640,240
53,55,104880,240
58,64,104880,240
36,50,105120,240
48,60,105120,240
52,45,105360,240
60,54,105360,240
58,45,105360,240
29,52,105600,240
41,62,105600,240
53,58,105840,240
56,58,105840,240
60,58,105840,240
39,43,106080,120
51,51,106080,120
51,40,106320,240
58,47,106320,240
44,40,106560,240
51,48,106560,240
56,56,106560,240
44,55,107280,240
56,65,107280,240
37,56,107520,240
49,67,107520,240
53,50,107760,240
58,58,107760,240
36,57,108000,240
48,69,108000,240
58,51,108240,240
64,62,108240,240
60,51,108240,240
29,59,108480,240
41,71,108480,240
56,66,108720,240
60,66,108720,240
65,66,108720,240
39,58,108960,120
51,70,108960,120
58,46,109200,240
61,46,109200,240
63,55,109200,240
67,64,109200,240
56,55,109440,120
63,55,109440,120
68,64,109440,120
68,64,109680,180
59,64,109680,180
62,64,109680,180
71,64,109680,180
68,57,109860,54
60,57,109860,54
72,57,109860,54
63,57,109860,54
68,64,109920,120
72,64,109920,120
60,64,109920,120
63,64,109920,120
53,55,110070,270
60,55,110100,240
63,55,110130,210
69,65,110160,180
46,59,110340,240
53,59,110370,210
61,71,110400,180
51,55,110580,240
58,55,110610,210
66,65,110640,180
46,51,110820,240
53,51,110850,210
61,62,110880,180
39,51,111060,240
46,51,111090,210
54,62,111120,180
34,51,111300,240
41,51,111330,210
49,62,111360,180
39,50,111540,240
46,50,111570,210
54,60,111600,180
46,55,111780,240
53,55,111810,210
61,65,111840,180
33,55,112080,60
34,55,112140,60
36,56,112200,60
37,56,112260,60
39,56,112320,60
41,57,112380,60
43,58,112440,60
45,58,112500,60
46,59,112560,60
48,60,112620,60
49,60,112680,60
51,61,112740,60
53,61,112800,60
55,61,112860,60
57,62,112920,60
58,62,112980,60
60,63,113040,60
61,64,113100,60
63,64,113160,60
65,66,113220,60
67,67,113280,60
69,65,113340,60
70,66,113400,60
72,67,113460,60
73,68,113520,60
75,69,113580,60
77,70,113640,60
79,71,113700,90
81,72,113790,60
27,68,114120,120
39,80,114120,120
51,61,114360,120
63,72,114360,120
72,67,114600,240
67,67,114600,240
63,67,114600,240
75,79,114600,240
77,77,114840,240
72,64,114840,240
65,64,114840,240
60,61,115080,240
68,61,115080,240
72,72,115080,240
61,61,115320,120
68,61,115320,120
73,72,115320,120
39,58,115560,480
51,69,115560,480
27,51,116040,120
39,61,116040,120
32,51,116280,120
44,61,116280,120
40,53,116700,450
47,56,116730,420
52,60,116760,390
40,53,117180,450
47,56,117210,420
52,60,117240,390
40,53,117660,450
47,56,117690,420
52,60,117720,390
40,53,118140,450
47,56,118170,420
52,60,118200,390
40,53,118620,450
47,56,118650,420
52,60,118680,390
40,53,119100,540
47,56,119130,510
52,60,119160,480
40,53,119640,60
47,53,119640,60
52,63,119640,60
39,24,119760,60
51,28,119760,60
37,24,119880,60
49,28,119880,60
35,24,120000,60
47,28,120000,60
40,28,120120,60
52,35,120120,60
39,27,120240,60
51,32,120240,60
37,24,120360,60
49,28,120360,60
35,24,120480,60
47,28,120480,60
40,28,120600,60
52,35,120600,60
39,24,120720,60
51,28,120720,60
37,24,120840,60
49,28,120840,60
35,24,120960,60
47,28,120960,60
40,29,121080,60
52,34,121080,60
39,24,121200,60
51,28,121200,60
37,24,121320,60
49,28,121320,60
35,24,121440,60
47,28,121440,60
40,29,121560,60
52,34,121560,60
39,26,121680,60
51,32,121680,60
37,24,121800,60
49,29,121800,60
35,24,121920,60
47,29,121920,60
40,29,122040,60
52,35,122040,60
39,23,122160,60
51,28,122160,60
37,23,122280,60
49,28,122280,60
35,23,122400,60
47,28,122400,60
40,30,122520,60
52,36,122520,60
39,24,122640,60
51,29,122640,60
37,25,122760,60
49,29,122760,60
35,25,122880,60
47,29,122880,60
40,30,123000,60
52,36,123000,60
39,28,123120,60
51,34,123120,60
37,25,123240,60
49,30,123240,60
35,25,123360,60
47,30,123360,60
40,30,123480,60
52,36,123480,60
39,25,123600,60
51,29,123600,60
37,25,123720,60
49,29,123720,60
35,26,123840,60
47,30,123840,60
40,31,123960,60
52,36,123960,60
39,26,124080,60
51,30,124080,60
37,26,124200,60
49,30,124200,60
35,26,124320,60
47,30,124320,60
40,31,124440,60
52,36,124440,60
39,28,124560,60
51,33,124560,60
37,25,124680,60
49,30,124680,60
35,25,124800,60
47,30,124800,60
40,30,124920,60
52,37,124920,60
39,25,125040,60
51,30,125040,60
37,25,125160,60
49,30,125160,60
35,25,125280,60
47,30,125280,60
40,30,125400,60
52,37,125400,60
39,25,125520,60
51,30,125520,60
37,25,125640,60
49,30,125640,60
35,25,125760,60
47,30,125760,60
40,31,125880,60
52,38,125880,60
39,30,126000,60
51,35,126000,60
37,26,126120,60
49,33,126120,60
35,26,126240,60
47,33,126240,60
40,33,126360,60
52,39,126360,60
39,27,126480,60
51,32,126480,60
37,27,126600,60
49,33,126600,60
35,28,126720,60
47,33,126720,60
40,34,126840,60
52,41,126840,60
39,27,126960,60
51,33,126960,60
37,27,127080,60
49,33,127080,60
35,28,127200,60
47,33,127200,60
40,35,127320,60
52,41,127320,60
39,31,127440,60
51,38,127440,60
37,28,127560,60
49,35,127560,60
35,28,127680,60
47,35,127680,60
40,36,127800,60
52,42,127800,60
39,29,127920,60
51,34,127920,60
37,29,128040,60
49,34,128040,60
35,29,128160,60
47,34,128160,60
40,35,128280,60
52,41,128280,60
39,29,128400,60
51,34,128400,60
37,29,128520,60
49,34,128520,60
35,29,128640,60
47,34,128640,60
40,35,128760,60
52,42,128760,60
39,33,128880,60
51,39,128880,60
37,29,129000,60
49,35,129000,60
35,29,129120,60
47,35,129120,60
40,35,129240,60
52,42,129240,60
39,28,129360,60
51,34,129360,60
37,29,129480,60
49,34,129480,60
35,29,129600,60
47,34,129600,60
40,35,129720,60
52,41,129720,60
39,29,129840,60
51,35,129840,60
37,29,129960,60
49,35,129960,60
35,29,130080,60
47,35,130080,60
40,36,130200,60
52,42,130200,60
39,32,130320,60
51,39,130320,60
37,29,130440,60
49,36,130440,60
35,29,130560,60
47,35,130560,60
40,36,130680,60
52,42,130680,60
39,29,130800,60
51,35,130800,60
37,29,130920,60
49,35,130920,60
35,29,131040,60
47,35,131040,60
40,36,131160,60
52,42,131160,60
39,29,131280,60
51,35,131280,60
37,29,131400,60
49,35,131400,60
35,29,131520,60
47,35,131520,60
40,36,131640,60
52,42,131640,60
39,32,131760,60
51,39,131760,60
37,29,131880,60
49,36,131880,60
35,29,132000,60
47,36,132000,60
40,36,132120,60
52,43,132120,60
39,29,132240,60
51,36,132240,60
37,29,132360,60
49,36,132360,60
35,29,132480,60
47,36,132480,60
40,36,132600,60
52,43,132600,60
39,29,132720,60
51,36,132720,60
37,30,132840,60
49,36,132840,60
35,30,132960,60
47,35,132960,60
40,37,133080,60
52,43,133080,60
39,33,133200,60
51,40,133200,60
37,30,133320,60
49,37,133320,60
35,30,133440,60
47,37,133440,60
40,37,133560,60
52,43,133560,60
39,30,133680,60
51,36,133680,60
37,30,133800,60
49,37,133800,60
35,30,133920,60
47,37,133920,60
40,37,134040,60
52,44,134040,60
39,31,134160,60
51,37,134160,60
37,31,134280,60
49,37,134280,60
35,31,134400,60
47,38,134400,60
40,38,134520,60
52,45,134520,60
39,36,134640,60
51,42,134640,60
37,31,134760,60
49,38,134760,60
35,31,134880,60
47,39,134880,60
40,40,135000,60
52,48,135000,60
39,33,135120,60
51,40,135120,60
37,33,135240,60
49,41,135240,60
35,34,135360,60
47,42,135360,60
40,43,135480,60
52,51,135480,60
39,34,135600,60
51,43,135600,60
37,35,135720,60
49,43,135720,60
35,37,135840,60
47,43,135840,60
40,44,135960,60
52,53,135960,60
39,41,136080,60
51,49,136080,60
37,38,136200,60
49,46,136200,60
35,38,136320,60
47,46,136320,60
40,47,136440,60
52,57,136440,60
39,38,136560,60
51,46,136560,60
37,40,136680,60
49,47,136680,60
35,40,136800,60
47,48,136800,60
40,51,136920,60
52,59,136920,60
39,41,137040,60
51,50,137040,60
37,41,137160,60
49,50,137160,60
35,42,137280,60
47,51,137280,60
40,52,137400,60
52,61,137400,60
39,48,137520,60
51,58,137520,60
37,44,137640,60
49,55,137640,60
35,45,137760,60
47,56,137760,60
40,56,137880,60
52,66,137880,60
39,45,138000,60
51,53,138000,60
37,46,138120,60
49,54,138120,60
35,47,138240,60
47,57,138240,60
40,58,138360,60
52,69,138360,60
39,47,138480,60
51,57,138480,60
37,47,138600,60
49,57,138600,60
35,48,138720,60
47,58,138720,60
40,62,138840,60
52,73,138840,60
39,56,138960,60
51,67,138960,60
37,52,139080,60
49,63,139080,60
35,52,139200,60
47,63,139200,60
40,64,139320,60
52,77,139320,60
39,53,139440,60
51,63,139440,60
40,54,139560,60
52,64,139560,60
38,55,139680,60
50,65,139680,60
39,66,139800,60
51,77,139800,60
38,54,139920,60
50,65,139920,60
36,54,140040,60
48,65,140040,60
34,54,140160,60
46,65,140160,60
39,67,140280,60
51,79,140280,60
38,62,140400,60
50,75,140400,60
36,58,140520,60
48,69,140520,60
34,58,140640,60
46,69,140640,60
39,69,140760,60
51,84,140760,60
38,58,140880,60
50,68,140880,60
36,59,141000,60
48,70,141000,60
34,61,141120,60
46,71,141120,60
39,71,141240,60
51,82,141240,60
38,57,141360,60
50,68,141360,60
36,58,141480,60
48,69,141480,60
34,58,141600,60
46,69,141600,60
39,72,141720,60
51,85,141720,60
38,64,141840,60
50,78,141840,60
36,60,141960,60
48,73,141960,60
34,60,142080,60
46,73,142080,60
39,73,142200,60
51,87,142200,60
38,60,142320,60
50,72,142320,60
36,60,142440,60
48,72,142440,60
34,62,142560,60
46,74,142560,60
39,73,142680,60
51,84,142680,60
38,59,142800,60
50,70,142800,60
36,59,142920,60
48,70,142920,60
34,59,143040,60
46,71,143040,60
39,74,143160,60
51,87,143160,60
38,66,143280,60
50,80,143280,60
36,62,143400,60
48,74,143400,60
34,62,143520,60
46,74,143520,60
39,75,143640,60
51,89,143640,60
38,62,143760,60
50,74,143760,60
36,62,143880,60
48,74,143880,60
34,63,144000,60
46,75,144000,60
39,76,144120,60
51,90,144120,60
35,58,144300,240
42,61,144330,210
47,63,144360,180
35,60,144540,240
42,63,144570,210
47,66,144600,180
35,63,144780,240
42,65,144810,210
47,69,144840,180
35,64,145020,240
42,68,145050,210
47,71,145080,180
35,66,145260,300
42,70,145290,270
47,73,145320,240
28,59,145560,120
40,70,145560,120
40,80,145980,450
47,80,146010,420
52,80,146040,390
40,78,146460,450
47,77,146490,420
52,77,146520,390
40,75,146940,450
47,75,146970,420
52,74,147000,390
40,72,147420,450
47,72,147450,420
52,72,147480,390
40,69,147900,540
47,69,147930,510
52,69,147960,480
40,66,148440,60
47,66,148440,60
52,66,148440,60
39,24,148560,60
51,28,148560,60
37,24,148680,60
49,28,148680,60
35,24,148800,60
47,28,148800,60
40,28,148920,60
52,35,148920,60
39,27,149040,60
51,32,149040,60
37,24,149160,60
49,28,149160,60
35,24,149280,60
47,28,149280,60
40,28,149400,60
52,35,149400,60
39,24,149520,60
51,28,149520,60
37,24,149640,60
49,28,149640,60
35,24,149760,60
47,28,149760,60
40,29,149880,60
52,35,149880,60
39,24,150000,60
51,28,150000,60
37,24,150120,60
49,28,150120,60
35,24,150240,60
47,28,150240,60
40,29,150360,60
52,34,150360,60
39,26,150480,60
51,32,150480,60
37,24,150600,60
49,29,150600,60
35,24,150720,60
47,29,150720,60
40,29,150840,60
52,35,150840,60
39,24,150960,60
51,28,150960,60
37,24,151080,60
49,28,151080,60
35,24,151200,60
47,28,151200,60
40,31,151320,60
52,36,151320,60
39,24,151440,60
51,29,151440,60
37,25,151560,60
49,29,151560,60
35,25,151680,60
47,29,151680,60
40,30,151800,60
52,36,151800,60
39,28,151920,60
51,34,151920,60
37,25,152040,60
49,30,152040,60
35,25,152160,60
47,30,152160,60
40,30,152280,60
52,36,152280,60
39,25,152400,60
51,29,152400,60
37,25,152520,60
49,29,152520,60
35,26,152640,60
47,30,152640,60
40,31,152760,60
52,36,152760,60
39,26,152880,60
51,30,152880,60
37,26,153000,60
49,30,153000,60
35,26,153120,60
47,30,153120,60
40,31,153240,60
52,36,153240,60
39,28,153360,60
51,33,153360,60
37,26,153480,60
49,31,153480,60
35,26,153600,60
47,31,153600,60
40,31,153720,60
52,38,153720,60
39,26,153840,60
51,30,153840,60
37,26,153960,60
49,30,153960,60
35,26,154080,60
47,30,154080,60
40,31,154200,60
52,38,154200,60
39,25,154320,60
51,30,154320,60
37,25,154440,60
49,30,154440,60
35,25,154560,60
47,30,154560,60
40,31,154680,60
52,38,154680,60
39,30,154800,60
51,36,154800,60
37,26,154920,60
49,33,154920,60
35,26,155040,60
47,33,155040,60
40,33,155160,60
52,40,155160,60
39,27,155280,60
51,32,155280,60
37,27,155400,60
49,33,155400,60
35,28,155520,60
47,33,155520,60
40,35,155640,60
52,42,155640,60
39,28,155760,60
51,34,155760,60
37,28,155880,60
49,34,155880,60
35,28,156000,60
47,34,156000,60
40,35,156120,60
52,41,156120,60
39,32,156240,60
51,39,156240,60
37,28,156360,60
49,35,156360,60
35,28,156480,60
47,35,156480,60
40,36,156600,60
52,42,156600,60
39,29,156720,60
51,34,156720,60
37,29,156840,60
49,34,156840,60
35,29,156960,60
47,34,156960,60
40,36,157080,60
52,42,157080,60
39,29,157200,60
51,35,157200,60
37,29,157320,60
49,35,157320,60
35,29,157440,60
47,35,157440,60
40,36,157560,60
52,42,157560,60
39,33,157680,60
51,39,157680,60
37,29,157800,60
49,36,157800,60
35,29,157920,60
47,36,157920,60
40,36,158040,60
52,42,158040,60
39,29,158160,60
51,35,158160,60
37,30,158280,60
49,35,158280,60
35,30,158400,60
47,35,158400,60
40,36,158520,60
52,42,158520,60
39,29,158640,60
51,35,158640,60
37,29,158760,60
49,35,158760,60
35,29,158880,60
47,35,158880,60
40,36,159000,60
52,43,159000,60
39,33,159120,60
51,39,159120,60
37,29,159240,60
49,36,159240,60
35,29,159360,60
47,36,159360,60
40,37,159480,60
52,43,159480,60
39,30,159600,60
51,36,159600,60
37,30,159720,60
49,36,159720,60
35,30,159840,60
47,36,159840,60
40,37,159960,60
52,43,159960,60
39,30,160080,60
51,36,160080,60
37,30,160200,60
49,36,160200,60
35,30,160320,60
47,36,160320,60
40,36,160440,60
52,43,160440,60
39,32,160560,60
51,40,160560,60
37,30,160680,60
49,37,160680,60
35,30,160800,60
47,37,160800,60
40,37,160920,60
52,44,160920,60
39,30,161040,60
51,36,161040,60
37,30,161160,60
49,36,161160,60
35,30,161280,60
47,36,161280,60
40,37,161400,60
52,44,161400,60
39,29,161520,60
51,36,161520,60
37,30,161640,60
49,36,161640,60
35,30,161760,60
47,36,161760,60
40,38,161880,60
52,44,161880,60
39,34,162000,60
51,41,162000,60
37,31,162120,60
49,38,162120,60
35,31,162240,60
47,38,162240,60
40,38,162360,60
52,44,162360,60
39,31,162480,60
51,37,162480,60
37,31,162600,60
49,38,162600,60
35,31,162720,60
47,38,162720,60
40,37,162840,60
52,44,162840,60
39,31,162960,60
51,37,162960,60
37,31,163080,60
49,37,163080,60
35,31,163200,60
47,38,163200,60
40,38,163320,60
52,45,163320,60
39,36,163440,60
51,42,163440,60
37,31,163560,60
49,38,163560,60
35,31,163680,60
47,39,163680,60
40,40,163800,60
52,48,163800,60
39,33,163920,60
51,40,163920,60
37,33,164040,60
49,41,164040,60
35,34,164160,60
47,42,164160,60
40,43,164280,60
52,51,164280,60
39,34,164400,60
51,43,164400,60
37,35,164520,60
49,43,164520,60
35,37,164640,60
47,43,164640,60
40,44,164760,60
52,53,164760,60
39,41,164880,60
51,49,164880,60
37,38,165000,60
49,46,165000,60
35,38,165120,60
47,46,165120,60
40,47,165240,60
52,57,165240,60
39,38,165360,60
51,46,165360,60
37,40,165480,60
49,47,165480,60
35,40,165600,60
47,48,165600,60
40,51,165720,60
52,59,165720,60
39,41,165840,60
51,50,165840,60
37,41,165960,60
49,50,165960,60
35,42,166080,60
47,51,166080,60
40,52,166200,60
52,61,166200,60
39,48,166320,60
51,58,166320,60
37,44,166440,60
49,55,166440,60
35,45,166560,60
47,56,166560,60
40,56,166680,60
52,66,166680,60
39,45,166800,60
51,53,166800,60
37,46,166920,60
49,54,166920,60
35,47,167040,60
47,57,167040,60
40,58,167160,60
52,69,167160,60
39,47,167280,60
51,57,167280,60
37,47,167400,60
49,57,167400,60
35,48,167520,60
47,58,167520,60
40,62,167640,60
52,73,167640,60
39,56,167760,60
51,67,167760,60
37,52,167880,60
49,63,167880,60
35,52,168000,60
47,63,168000,60
40,64,168120,60
52,77,168120,60
39,53,168240,60
51,63,168240,60
40,54,168360,60
52,64,168360,60
38,55,168480,60
50,65,168480,60
39,66,168600,60
51,77,168600,60
38,54,168720,60
50,65,168720,60
36,54,168840,60
48,65,168840,60
34,54,168960,60
46,65,168960,60
39,67,169080,60
51,79,169080,60
38,62,169200,60
50,75,169200,60
36,58,169320,60
48,69,169320,60
34,58,169440,60
46,69,169440,60
39,69,169560,60
51,84,169560,60
38,58,169680,60
50,68,169680,60
36,59,169800,60
48,70,169800,60
34,61,169920,60
46,71,169920,60
39,71,170040,60
51,82,170040,60
38,57,170160,60
50,68,170160,60
36,58,170280,60
48,69,170280,60
34,58,170400,60
46,69,170400,60
39,72,170520,60
51,85,170520,60
38,64,170640,60
50,78,170640,60
36,60,170760,60
48,73,170760,60
34,60,170880,60
46,73,170880,60
39,73,171000,60
51,87,171000,60
38,60,171120,60
50,72,171120,60
36,60,171240,60
48,72,171240,60
34,62,171360,60
46,74,171360,60
39,73,171480,60
51,84,171480,60
38,59,171600,60
50,70,171600,60
36,59,171720,60
48,70,171720,60
34,59,171840,60
46,71,171840,60
39,74,171960,60
51,87,171960,60
38,66,172080,60
50,80,172080,60
36,62,172200,60
48,74,172200,60
34,62,172320,60
46,74,172320,60
39,75,172440,60
51,89,172440,60
38,62,172560,60
50,74,172560,60
36,62,172680,60
48,74,172680,60
34,63,172800,60
46,75,172800,60
39,64,172920,60
51,71,172920,60
39,54,173160,60
51,64,173160,60
39,49,173280,60
51,58,173280,60
40,53,173400,240
52,63,173400,240
40,51,173640,60
52,61,173640,60
40,50,173760,60
52,59,173760,60
41,55,173880,240
53,65,173880,240
41,52,174120,60
53,62,174120,60
41,51,174240,60
53,60,174240,60
42,43,174360,240
54,51,174360,240
61,51,174600,60
54,43,174600,60
61,51,174720,60
54,43,174720,60
61,51,174840,240
54,43,174840,240
54,43,175080,60
61,51,175080,60
54,43,175200,60
61,51,175200,60
44,40,175320,240
51,40,175320,240
56,48,175320,240
51,40,175560,60
56,40,175560,60
60,48,175560,60
51,40,175680,60
56,40,175680,60
60,48,175680,60
49,45,175800,240
56,45,175800,240
60,52,175800,240
49,40,176040,60
56,40,176040,60
61,48,176040,60
49,40,176160,60
56,40,176160,60
61,48,176160,60
49,45,176280,240
55,45,176280,240
61,54,176280,240
49,43,176520,108
55,43,176520,108
61,51,176520,108
49,43,176640,108
55,43,176640,108
61,51,176640,108
48,45,176760,240
55,45,176760,240
58,54,176760,240
48,43,177000,108
55,43,177000,108
58,51,177000,108
48,43,177120,108
55,43,177120,108
58,51,177120,108
53,45,177240,240
56,52,177240,240
53,40,177480,60
56,48,177480,60
51,40,177600,60
56,48,177600,60
50,45,177720,240
56,54,177720,240
50,40,177960,108
56,48,177960,108
50,40,178080,108
56,48,178080,108
43,45,178200,240
50,45,178200,240
55,54,178200,240
43,40,178440,108
50,40,178440,108
55,48,178440,108
43,40,178560,108
50,40,178560,108
55,48,178560,108
48,42,178680,240
55,49,178680,240
48,38,178920,108
55,45,178920,108
48,38,179040,108
55,45,179040,108
56,49,179160,240
46,42,179160,240
56,45,179400,108
46,38,179400,108
46,38,179520,108
56,45,179520,108
39,45,179640,240
46,45,179640,240
51,54,179640,240
46,40,179880,108
51,48,179880,108
39,40,179880,108
46,40,180000,108
51,48,180000,108
39,40,180000,108
35,43,180120,240
47,51,180120,240
47,43,180360,108
59,51,180360,108
55,43,180360,108
47,43,180480,108
59,51,180480,108
55,43,180480,108
47,43,180600,240
59,51,180600,240
55,43,180600,240
47,43,180840,108
55,43,180840,108
59,51,180840,108
47,43,180960,108
55,43,180960,108
59,51,180960,108
48,40,181080,240
55,40,181080,240
60,48,181080,240
48,40,181320,108
55,40,181320,108
60,48,181320,108
48,40,181440,108
55,40,181440,108
60,48,181440,108
53,45,181560,240
60,45,181560,240
64,52,181560,240
53,40,181800,60
60,40,181800,60
65,48,181800,60
53,40,181920,60
60,40,181920,60
65,48,181920,60
53,45,182040,240
60,45,182040,240
62,54,182040,240
53,43,182280,108
60,43,182280,108
62,51,182280,108
53,43,182400,108
60,43,182400,108
62,51,182400,108
55,45,182520,240
60,45,182520,240
64,54,182520,240
55,43,182760,108
60,43,182760,108
64,51,182760,108
55,43,182880,108
60,43,182880,108
64,51,182880,108
56,42,183000,240
60,42,183000,240
64,49,183000,240
56,38,183240,60
60,38,183240,60
65,45,183240,60
56,36,183360,60
60,36,183360,60
65,44,183360,60
53,39,183480,240
60,39,183480,240
65,47,183480,240
53,35,183720,60
60,41,183720,60
53,35,183840,60
60,41,183840,60
50,38,183960,240
56,38,183960,240
60,45,183960,240
50,31,184200,60
55,31,184200,60
60,38,184200,60
50,31,184320,60
53,31,184320,60
60,38,184320,60
43,34,184440,120
50,34,184440,120
55,39,184440,120
43,30,184680,120
48,30,184680,120
55,36,184680,120
43,30,184800,120
51,30,184800,120
55,36,184800,120
43,31,184920,120
50,31,184920,120
55,37,184920,120
43,28,185160,120
48,28,185160,120
55,34,185160,120
43,28,185280,120
51,28,185280,120
55,34,185280,120
43,27,185400,120
50,27,185400,120
55,33,185400,120
62,38,185640,480
62,32,186120,480
54,27,186360,240
60,32,186360,240
50,24,186600,240
62,29,186600,240
55,27,186840,240
59,32,186840,240
50,24,187080,240
62,28,187080,240
38,47,187320,120
50,24,187560,240
62,28,187560,240
57,27,187800,240
60,32,187800,240
50,24,188040,240
62,28,188040,240
55,27,188280,240
59,32,188280,240
50,24,188520,240
62,29,188520,240
54,27,188760,240
57,32,188760,240
50,24,189000,240
62,28,189000,240
55,27,189240,240
58,32,189240,240
50,27,189480,480
62,32,189480,480
50,26,189960,240
62,31,189960,240
54,27,190200,240
57,32,190200,240
50,24,190440,240
62,28,190440,240
55,27,190680,240
58,32,190680,240
50,24,190920,240
62,28,190920,240
56,27,191160,240
59,32,191160,240
50,24,191400,240
62,28,191400,240
57,27,191640,240
60,29,191640,240
50,24,191880,480
62,32,191880,480
50,24,192360,240
62,29,192360,240
55,27,192600,240
58,32,192600,240
50,24,192840,240
62,28,192840,240
38,47,193080,120
50,24,193320,240
62,28,193320,240
54,27,193560,240
60,32,193560,240
50,24,193800,240
62,28,193800,240
55,27,194040,240
58,32,194040,240
50,24,194280,240
62,29,194280,240
55,34,194520,240
58,40,194520,240
50,30,194760,480
63,36,194760,480
50,34,195240,240
63,40,195240,240
55,33,195480,240
58,39,195480,240
50,33,195720,240
63,39,195720,240
54,29,195960,240
57,29,195960,240
62,35,195960,240
50,36,196200,240
55,32,196440,240
58,32,196440,240
63,38,196440,240
49,40,196680,240
55,36,196920,240
58,36,196920,240
64,42,196920,240
48,43,197160,240
41,52,197400,120
53,34,197640,480
65,44,197640,480
53,34,198120,240
65,40,198120,240
58,37,198360,240
61,44,198360,240
53,33,198600,240
65,39,198600,240
29,56,198840,120
53,33,199080,240
65,39,199080,240
57,37,199320,240
63,44,199320,240
53,33,199560,240
65,39,199560,240
58,37,199800,240
61,44,199800,240
53,34,200040,240
65,40,200040,240
58,37,200280,240
61,44,200280,240
53,33,200520,480
66,39,200520,480
53,37,201000,240
66,44,201000,240
58,36,201240,240
61,42,201240,240
53,36,201480,240
66,42,201480,240
57,31,201720,240
60,38,201720,240
53,33,201960,240
65,38,201960,240
58,32,202200,240
61,38,202200,240
53,31,202440,240
65,38,202440,240
59,32,202680,240
62,37,202680,240
53,29,202920,240
65,36,202920,240
60,28,203160,240
63,31,203160,240
53,26,203400,480
65,34,203400,480
53,26,203880,240
65,31,203880,240
58,28,204120,240
61,34,204120,240
53,25,204360,240
65,30,204360,240
29,43,204600,120
53,25,204840,240
65,30,204840,240
57,28,205080,240
63,34,205080,240
53,25,205320,240
65,30,205320,240
58,28,205560,240
61,34,205560,240
53,26,205800,240
65,31,205800,240
41,51,206040,120
48,26,206280,480
60,34,206280,480
48,26,206760,240
60,31,206760,240
53,28,207000,240
56,34,207000,240
48,25,207240,240
60,30,207240,240
39,47,207480,120
48,26,207720,480
60,34,207720,480
48,26,208200,240
60,31,208200,240
37,48,208440,120
49,25,208680,240
60,30,208680,240
36,49,208920,120
48,26,209160,480
60,34,209160,480
48,26,209640,240
60,31,209640,240
53,28,209880,240
56,34,209880,240
48,25,210120,240
60,30,210120,240
39,50,210360,120
48,26,210600,480
60,34,210600,480
48,26,211080,240
60,31,211080,240
37,51,211320,120
49,25,211560,240
60,30,211560,240
36,49,211800,120
48,26,212040,480
60,34,212040,480
48,26,212520,240
60,31,212520,240
53,28,212760,240
56,34,212760,240
48,25,213000,240
60,30,213000,240
51,28,213240,240
55,39,213240,240
48,26,213480,480
60,34,213480,480
48,26,213960,240
60,31,213960,240
49,28,214200,240
53,34,214200,240
48,25,214440,240
60,30,214440,240
52,39,214680,240
48,26,214920,480
60,34,214920,480
48,26,215400,240
60,31,215400,240
53,28,215640,240
56,34,215640,240
48,25,215880,240
60,30,215880,240
51,28,216120,240
55,39,216120,240
48,26,216360,480
60,34,216360,480
48,26,216840,240
60,31,216840,240
49,28,217080,240
53,34,217080,240
48,25,217320,480
60,30,217320,480
52,34,217560,240
54,37,218040,120
55,39,218160,120
56,43,218280,120
58,46,218400,120
56,48,218520,120
55,48,218640,120
53,48,218760,120
52,49,218880,120
51,48,219000,120
52,51,219120,120
53,53,219240,120
55,55,219360,120
49,62,219480,240
55,56,219600,120
48,60,219720,240
55,53,219840,120
47,51,219960,120
48,53,220080,120
49,54,220200,120
51,57,220320,120
49,60,220440,120
48,58,220560,120
46,56,220680,120
44,55,220800,120
43,64,220920,360
48,58,221040,120
46,58,221160,120
42,59,221280,120
41,62,221400,360
48,58,221520,120
46,58,221640,120
40,59,221760,120
39,66,221880,360
44,60,222000,120
43,61,222120,120
39,63,222240,120
37,69,222360,360
43,65,222480,120
41,68,222600,120
37,68,222720,120
36,74,222840,240
39,70,222960,120
34,71,223080,240
39,73,223200,120
32,70,223320,120
44,84,223320,120
60,67,223560,240
51,67,223560,240
63,79,223560,240
68,77,223800,240
60,77,223800,240
56,64,223800,240
39,72,224040,60
51,85,224040,60
44,73,224280,120
56,86,224280,120
27,61,224520,240
39,73,224520,240
32,67,224760,240
44,79,224760,240
60,61,225000,240
63,73,225000,240
51,61,225000,240
68,75,225240,240
60,75,225240,240
56,63,225240,240
39,67,225480,60
51,80,225480,60
44,73,225720,120
56,86,225720,120
27,61,225960,240
39,73,225960,240
32,67,226200,240
44,79,226200,240
60,61,226440,240
63,73,226440,240
51,61,226440,240
68,75,226680,240
60,75,226680,240
56,63,226680,240
39,61,226920,120
51,73,226920,120
44,64,227160,120
56,77,227160,120
39,62,227340,210
46,62,227370,180
54,74,227400,150
41,62,227550,240
48,62,227580,300
51,74,227610,180
57,74,227640,150
53,61,227790,240
60,61,227820,210
63,73,227850,180
69,73,227880,150
46,63,228060,300
53,75,228090,270
61,75,228120,240
42,60,228360,240
54,71,228360,240
41,60,228600,240
53,71,228600,240
37,58,228840,240
49,69,228840,240
34,67,229080,120
46,79,229080,120
61,79,229320,240
53,67,229320,240
65,79,229320,240
70,77,229560,240
61,77,229560,240
58,64,229560,240
41,72,229800,60
53,85,229800,60
46,73,230040,120
58,86,230040,120
29,61,230280,240
41,73,230280,240
34,67,230520,240
46,79,230520,240
61,61,230760,240
65,73,230760,240
53,61,230760,240
70,75,231000,240
61,75,231000,240
58,63,231000,240
41,67,231240,60
53,80,231240,60
46,73,231480,120
58,86,231480,120
34,61,231720,240
46,73,231720,240
27,67,231960,120
39,79,231960,120
67,60,232200,240
61,60,232200,240
72,72,232200,120
63,60,232200,240
70,70,232320,120
51,75,232440,120
70,72,232680,120
60,58,232680,240
63,69,232680,240
68,70,232800,120
51,73,232920,120
68,72,233160,120
58,56,233160,240
63,67,233160,240
67,70,233280,120
46,70,233400,120
67,72,233640,120
56,55,233640,240
62,66,233640,240
58,55,233640,240
65,70,233760,120
51,72,233880,120
65,72,234120,120
55,57,234120,240
58,68,234120,240
63,70,234240,120
41,62,234360,240
53,74,234360,480
61,72,234600,120
56,68,234600,240
60,68,234720,120
37,59,234840,240
49,71,234840,240
53,51,235080,240
58,59,235080,240
36,53,235320,240
48,63,235320,240
52,49,235560,240
60,59,235560,240
58,49,235560,240
29,58,235800,240
41,69,235800,240
53,67,236040,240
56,67,236040,240
60,67,236040,240
39,51,236280,120
51,72,236280,120
51,48,236520,240
58,68,236520,240
44,50,236760,240
51,50,236760,240
56,70,236760,240
44,61,237480,240
56,72,237480,240
37,62,237720,240
49,74,237720,240
53,55,237960,240
58,64,237960,240
36,63,238200,240
48,75,238200,240
58,57,238440,240
64,68,238440,240
60,57,238440,240
29,66,238680,240
41,78,238680,240
53,68,238920,240
56,70,238920,240
60,73,238920,240
65,73,238920,240
39,64,239160,120
51,77,239160,120
58,43,239400,240
61,43,239400,240
63,60,239400,240
67,71,239400,240
56,60,239640,120
63,60,239640,120
68,71,239640,120
68,70,239880,180
59,70,239880,180
62,70,239880,180
71,70,239880,180
68,63,240060,54
60,63,240060,54
72,63,240060,54
63,63,240060,54
68,71,240120,120
72,71,240120,120
60,71,240120,120
63,71,240120,120
53,61,240270,270
60,61,240300,240
63,61,240330,210
69,72,240360,180
46,66,240540,240
53,66,240570,210
61,78,240600,180
51,61,240780,240
58,61,240810,210
66,72,240840,180
46,57,241020,240
53,57,241050,210
61,68,241080,180
39,57,241260,240
46,57,241290,210
54,68,241320,180
34,57,241500,240
41,57,241530,210
49,68,241560,180
39,56,241740,240
46,56,241770,210
54,67,241800,180
46,61,241980,240
53,61,242010,210
61,72,242040,180
33,55,242280,60
34,55,242340,60
36,56,242400,60
37,56,242460,60
39,56,242520,60
41,57,242580,60
43,58,242640,60
45,58,242700,60
46,59,242760,60
48,60,242820,60
49,60,242880,60
51,61,242940,60
53,61,243000,60
55,61,243060,60
57,62,243120,60
58,62,243180,60
60,63,243240,60
61,64,243300,60
63,64,243360,60
65,66,243420,60
67,67,243480,60
69,65,243540,60
70,66,243600,60
72,67,243660,60
73,68,243720,60
75,69,243780,60
77,70,243840,60
79,71,243900,90
81,72,243990,60
27,68,244320,120
39,80,244320,120
51,61,244560,120
63,72,244560,120
72,67,244800,240
67,67,244800,240
63,67,244800,240
75,79,244800,240
77,77,245040,240
72,64,245040,240
65,64,245040,240
60,61,245280,240
68,61,245280,240
72,72,245280,240
73,77,245520,240
68,64,245520,240
61,64,245520,240
60,61,245760,240
68,61,245760,240
72,72,245760,240
68,73,246000,240
63,60,246000,240
56,60,246000,240
53,57,246240,240
65,68,246240,240
61,73,246480,240
56,60,246480,240
49,60,246480,240
51,57,246720,240
58,57,246720,240
61,68,246720,240
32,57,246960,120
44,68,246960,120
51,57,247200,240
56,57,247200,240
60,68,247200,240
53,62,247440,240
56,62,247440,240
59,73,247440,240
41,57,247680,120
53,68,247680,120
29,62,247920,120
41,73,247920,120
28,63,248160,240
40,75,248160,240
27,64,248400,120
39,76,248400,120
58,60,248640,60
61,60,248640,60
63,60,248640,60
67,71,248640,60
58,56,248760,60
61,56,248760,60
63,56,248760,60
67,67,248760,60
58,60,248880,120
61,60,248880,120
63,60,248880,120
67,71,248880,120
58,55,249120,120
61,55,249120,120
63,55,249120,120
66,65,249120,120
58,58,249240,120
61,58,249240,120
63,58,249240,120
67,69,249240,120
58,61,249360,240
61,61,249360,240
63,61,249360,240
68,72,249360,240
58,59,249600,240
61,59,249600,240
63,59,249600,240
70,70,249600,240
44,62,249840,120
56,74,249840,120
51,57,250080,240
56,57,250080,240
60,68,250080,240
53,62,250320,240
56,62,250320,240
59,73,250320,240
41,57,250560,120
53,68,250560,120
29,62,250800,120
41,73,250800,120
28,63,251040,240
40,75,251040,240
27,64,251280,120
39,76,251280,120
58,60,251520,60
61,60,251520,60
63,60,251520,60
67,71,251520,60
58,56,251640,60
61,56,251640,60
63,56,251640,60
67,67,251640,60
58,60,251760,120
61,60,251760,120
63,60,251760,120
67,71,251760,120
58,51,251880,120
61,51,251880,120
63,51,251880,120
68,60,251880,120
58,55,252000,120
61,55,252000,120
63,55,252000,120
66,65,252000,120
58,58,252120,120
61,58,252120,120
63,58,252120,120
67,69,252120,120
58,61,252240,240
61,61,252240,240
63,61,252240,240
68,72,252240,240
58,59,252480,240
61,59,252480,240
63,59,252480,240
70,70,252480,240
32,70,252720,120
44,84,252720,120
39,67,252960,120
51,79,252960,120
56,77,253200,120
44,64,253200,120
51,72,253440,60
63,85,253440,60
56,73,253680,120
68,86,253680,120
63,61,253920,120
75,73,253920,120
32,70,254160,120
44,84,254160,120
39,67,254400,120
51,79,254400,120
56,77,254640,120
44,64,254640,120
51,72,254880,60
63,85,254880,60
56,73,255120,120
68,86,255120,120
63,61,255360,120
75,73,255360,120
32,70,255600,120
44,84,255600,120
39,67,255840,120
51,79,255840,120
56,77,256080,120
44,64,256080,120
51,72,256320,60
63,85,256320,60
56,73,256560,120
68,86,256560,120
51,61,256800,120
63,73,256800,120
44,70,257040,120
56,84,257040,120
39,67,257280,120
51,79,257280,120
32,71,257520,60
44,84,257520,60
31,68,257640,60
43,80,257640,60
29,68,257760,60
41,81,257760,60
27,68,257880,60
39,81,257880,60
32,64,258000,60
44,77,258000,60
31,68,258120,60
43,80,258120,60
29,70,258240,60
41,83,258240,60
27,73,258360,60
39,86,258360,60
32,74,258480,240
44,89,258480,240
36,65,259200,60
43,65,259200,60
48,77,259200,60
36,61,259320,60
43,61,259320,60
48,72,259320,60
36,65,259440,120
43,65,259440,120
48,77,259440,120
36,60,259680,120
43,60,259680,120
48,71,259680,120
36,60,259860,300
43,60,259890,270
48,71,259920,240
36,60,260340,300
43,60,260370,270
48,71,260400,240
39,60,260820,300
46,71,260880,240
32,67,261360,240
44,79,261360,240
