note,velocity,position,duration
72,40,1920,120
69,32,2040,120
65,32,2160,120
62,33,2280,120
60,40,2400,120
65,36,2520,120
77,40,2640,120
74,36,2760,120
72,40,2880,120
69,32,3000,120
65,32,3120,120
62,32,3240,120
60,40,3360,120
65,37,3480,120
77,40,3600,120
74,36,3720,120
72,40,3840,120
69,35,3960,120
65,34,4080,120
62,34,4200,120
60,40,4320,120
65,35,4440,120
77,40,4560,120
74,36,4680,120
72,40,4800,120
69,35,4920,120
65,35,5040,120
62,35,5160,120
60,40,5280,120
64,38,5400,120
70,40,5520,120
67,37,5640,120
69,40,5760,120
65,37,5880,120
60,33,6000,120
57,33,6120,117
60,37,6240,120
65,34,6360,120
64,31,6480,120
70,37,6480,120
67,37,6600,120
69,40,6720,120
65,38,6840,120
60,35,6960,120
57,35,7080,117
60,37,7200,120
65,34,7320,120
70,37,7440,120
64,31,7440,120
67,36,7560,120
69,40,7680,120
65,37,7800,120
60,33,7920,120
57,33,8040,114
60,37,8160,120
65,32,8280,120
70,45,8400,120
68,41,8520,120
69,45,8640,120
70,40,8760,120
74,45,8880,120
71,41,9000,120
72,48,9120,120
76,46,9240,120
77,50,9360,120
81,52,9480,120
79,52,9600,120
76,40,9720,120
72,45,9840,120
69,41,9960,120
67,45,10080,120
72,40,10200,120
84,48,10320,120
81,42,10440,120
79,45,10560,120
76,41,10680,120
72,41,10800,120
69,41,10920,120
67,45,11040,120
72,42,11160,120
84,48,11280,120
81,41,11400,120
79,45,11520,120
76,42,11640,120
72,42,11760,120
69,42,11880,120
67,45,12000,120
72,41,12120,120
84,49,12240,120
81,42,12360,120
79,45,12480,120
76,41,12600,120
72,41,12720,120
69,41,12840,120
67,45,12960,120
71,43,13080,120
77,45,13200,120
74,42,13320,120
76,45,13440,120
72,42,13560,120
67,37,13680,120
64,37,13800,116
67,42,13920,120
72,38,14040,120
71,44,14160,120
77,44,14160,120
74,42,14280,120
76,45,14400,120
72,43,14520,120
67,39,14640,120
64,39,14760,116
67,42,14880,120
72,38,15000,120
71,29,15120,120
77,42,15120,120
74,41,15240,120
76,45,15360,120
72,42,15480,120
67,37,15600,120
64,37,15720,114
67,42,15840,120
72,36,15960,120
76,51,16080,120
79,49,16200,120
84,51,16320,120
88,49,16440,120
86,51,16560,120
79,47,16680,120
74,51,16800,120
79,47,16920,120
74,49,17040,120
76,48,17160,120
84,52,17280,120
81,42,17400,120
77,42,17520,120
74,43,17640,120
72,46,17760,120
77,42,17880,120
89,51,18000,120
86,46,18120,120
84,51,18240,120
81,46,18360,120
77,46,18480,120
74,46,18600,120
72,51,18720,120
77,47,18840,120
89,51,18960,120
86,46,19080,120
84,53,19200,120
81,44,19320,120
77,44,19440,120
74,44,19560,120
72,46,19680,120
77,43,19800,120
89,51,19920,120
86,47,20040,120
84,51,20160,120
81,46,20280,120
77,46,20400,120
74,46,20520,120
72,51,20640,120
76,49,20760,120
82,51,20880,120
79,47,21000,120
81,51,21120,120
77,44,21240,120
72,39,21360,120
69,39,21480,117
72,44,21600,120
77,40,21720,120
82,44,21840,120
76,34,21840,120
79,44,21960,120
81,46,22080,120
77,45,22200,120
72,41,22320,120
69,41,22440,117
72,44,22560,120
77,40,22680,120
82,44,22800,120
76,34,22800,120
79,43,22920,120
81,46,23040,120
77,44,23160,120
72,39,23280,120
69,39,23400,113
72,47,23520,120
77,41,23640,120
81,48,23760,120
84,46,23880,120
89,51,24000,120
93,46,24120,120
91,48,24240,120
84,45,24360,120
79,52,24480,120
84,46,24600,120
79,51,24720,120
81,48,24840,120
89,48,24960,120
86,45,25080,120
82,42,25200,120
79,42,25320,120
77,46,25440,120
82,42,25560,120
94,48,25680,120
91,46,25800,120
89,51,25920,120
86,46,26040,120
82,48,26160,120
79,44,26280,120
77,47,26400,120
82,44,26520,120
94,51,26640,120
91,48,26760,120
89,48,26880,120
86,46,27000,120
83,43,27120,120
79,43,27240,120
77,48,27360,120
79,43,27480,120
95,48,27600,120
91,46,27720,120
89,51,27840,120
86,46,27960,120
83,48,28080,120
79,45,28200,120
77,48,28320,120
79,44,28440,120
95,51,28560,120
91,48,28680,120
89,48,28800,120
86,46,28920,120
84,42,29040,120
81,43,29160,120
79,48,29280,120
84,45,29400,120
96,48,29520,120
93,46,29640,120
89,51,29760,120
86,46,29880,120
84,48,30000,120
81,48,30120,120
79,52,30240,120
84,46,30360,120
96,51,30480,120
93,48,30600,120
89,51,30720,120
86,47,30840,120
84,44,30960,120
81,44,31080,117
79,47,31200,120
84,42,31320,120
96,51,31440,120
93,45,31560,120
91,53,31680,120
88,45,31800,120
84,45,31920,120
81,45,32040,120
79,51,32160,120
84,40,32280,120
96,45,32400,120
91,37,32520,120
96,45,32640,120
93,41,32760,120
89,41,32880,120
86,42,33000,120
84,45,33120,120
89,41,33240,120
101,45,33360,120
98,42,33480,120
96,45,33600,120
93,42,33720,120
89,42,33840,120
86,42,33960,120
84,45,34080,120
89,43,34200,120
101,45,34320,120
98,42,34440,120
96,46,34560,120
93,43,34680,120
89,43,34800,120
86,43,34920,120
84,45,35040,120
89,42,35160,120
101,45,35280,120
98,43,35400,120
96,45,35520,120
93,42,35640,120
89,42,35760,120
86,42,35880,120
84,45,36000,120
88,44,36120,120
94,45,36240,120
91,43,36360,120
93,45,36480,120
89,43,36600,120
84,37,36720,120
81,37,36840,120
77,43,36960,120
72,39,37080,120
76,33,37200,120
82,42,37200,120
79,43,37320,120
81,45,37440,120
77,44,37560,120
72,40,37680,120
69,40,37800,120
65,43,37920,120
60,39,38040,120
70,42,38160,120
64,33,38160,120
67,42,38280,120
69,45,38400,120
65,44,38520,120
60,39,38640,120
57,39,38760,117
60,41,38880,120
65,36,39000,120
70,39,39120,120
64,30,39120,120
67,39,39240,120
69,42,39360,120
65,41,39480,120
60,34,39600,120
57,34,39720,117
60,38,39840,120
65,34,39960,120
70,35,40080,120
64,28,40080,120
67,35,40200,120
69,38,40320,120
65,38,40440,120
60,34,40560,120
57,34,40680,120
60,34,40800,120
65,32,40920,120
69,36,41040,120
72,33,41160,120
77,39,41280,120
81,34,41400,120
84,30,41520,120
89,26,41640,120
93,33,41760,120
84,31,41880,120
89,29,42000,120
81,26,42120,120
101,42,42240,480
41,30,1800,1080
48,37,1860,1020
57,44,1920,960
36,47,3840,480
47,33,4200,60
48,33,4260,60
50,38,4320,60
48,38,4380,60
50,39,4440,60
48,40,4500,60
50,40,4560,60
48,41,4620,60
47,42,4680,60
48,42,4740,60
48,36,4800,960
57,47,4800,480
55,45,5280,480
41,47,5760,240
48,37,6000,120
53,33,6120,120
57,41,6240,240
48,35,6480,240
55,41,6480,240
41,48,6720,240
48,41,6960,120
53,36,7080,120
57,42,7200,240
48,40,7440,240
55,40,7440,240
41,47,7680,240
48,45,7920,120
53,39,8040,120
57,45,8160,120
53,40,8280,120
62,40,8400,120
59,35,8520,120
60,43,8640,240
70,39,8880,120
68,36,9000,120
69,39,9120,240
48,30,9480,1080
55,37,9540,1020
64,45,9600,960
43,47,11520,480
54,33,11880,60
55,33,11940,60
57,38,12000,60
55,38,12060,60
57,39,12120,60
55,40,12180,60
57,40,12240,60
55,41,12300,60
54,42,12360,60
55,42,12420,60
55,36,12480,960
64,47,12480,480
62,45,12960,480
48,47,13440,240
55,43,13680,120
60,39,13800,120
64,44,13920,240
55,30,14160,240
62,41,14160,240
48,48,14400,240
55,42,14640,120
60,37,14760,120
64,45,14880,240
55,29,15120,240
62,42,15120,240
48,47,15360,160
55,45,15520,160
60,39,15680,160
64,47,15840,160
70,44,16000,160
53,30,17160,1080
60,37,17220,1020
69,46,17280,960
48,47,19200,480
59,33,19560,60
60,33,19620,60
62,38,19680,60
60,38,19740,60
62,39,19800,60
60,40,19860,60
62,40,19920,60
60,41,19980,60
59,42,20040,60
60,42,20100,60
60,36,20160,960
69,47,20160,480
67,45,20640,480
53,47,21120,240
60,44,21360,120
65,40,21480,120
69,46,21600,240
60,32,21840,240
67,41,21840,240
53,48,22080,240
60,43,22320,120
65,41,22440,120
69,45,22560,240
60,32,22800,240
67,42,22800,240
53,47,23040,160
60,45,23200,160
65,39,23360,160
69,47,23520,160
75,50,23680,160
58,55,24960,160
65,20,25120,160
74,45,25280,160
55,54,26880,160
65,47,27040,160
74,43,27200,160
60,57,28800,160
67,47,28960,1760
72,43,29120,160
77,52,29280,1440
60,42,30600,600
67,48,30660,60
70,61,30720,1920
76,49,31200,1440
81,52,31680,240
53,35,32520,1080
60,40,32580,1020
69,44,32640,960
48,38,34560,480
59,29,34920,60
60,29,34980,60
62,34,35040,60
60,34,35100,60
62,35,35160,60
60,36,35220,60
62,36,35280,60
60,36,35340,60
59,37,35400,60
60,37,35460,60
60,32,35520,960
69,42,35520,480
67,40,36000,480
53,42,36480,240
60,40,36720,120
65,38,36840,120
69,42,36960,240
60,28,37200,240
67,36,37200,240
41,43,37440,240
48,40,37680,120
53,36,37800,120
57,40,37920,240
48,28,38160,240
55,37,38160,240
41,43,38400,240
48,39,38640,120
53,36,38760,120
57,40,38880,240
48,26,39120,240
55,35,39120,240
41,40,39360,240
48,35,39600,120
53,32,39720,120
57,37,39840,240
48,24,40080,240
55,33,40080,240
41,37,40320,360
48,31,40680,120
53,31,40800,120
57,28,40920,120
60,28,41040,120
65,27,41160,120
69,29,41280,120
75,32,41400,120
69,29,41520,120
65,23,41640,120
60,27,41760,120
57,24,41880,120
53,22,42000,120
48,20,42120,120
41,21,42240,480
