note,velocity,position,duration
53,34,0,480
58,40,0,480
54,34,480,480
58,40,480,360
58,36,840,120
53,34,960,480
58,40,960,960
54,28,1440,480
53,34,1920,480
58,40,1920,480
54,34,2400,480
58,40,2400,360
58,36,2760,120
53,34,2880,480
58,40,2880,960
54,28,3360,480
53,34,3840,480
58,40,3840,480
54,34,4320,480
58,40,4320,360
58,36,4680,108
53,34,4800,480
58,40,4800,480
61,49,5280,360
54,39,5280,480
60,45,5640,108
60,48,5760,360
53,39,5760,480
58,42,6120,108
54,37,6240,480
58,44,6240,360
58,36,6600,108
53,34,6720,480
58,40,6720,960
54,28,7200,480
58,42,7680,480
53,42,7680,480
61,50,7680,480
58,42,8160,480
54,42,8160,480
61,50,8160,360
61,45,8520,108
58,42,8640,480
53,42,8640,480
61,50,8640,480
65,59,9120,360
61,52,9120,360
54,48,9120,480
63,53,9480,60
60,47,9480,60
65,48,9540,60
63,57,9600,360
60,51,9600,360
53,48,9600,480
61,50,9960,108
58,45,9960,108
61,55,10080,360
54,46,10080,480
58,48,10080,360
61,45,10440,108
58,39,10440,108
61,50,10560,960
53,42,10560,480
58,45,10560,960
54,35,11040,480
61,58,11520,420
70,73,11520,240
58,58,11520,420
68,66,11760,180
68,58,11940,60
61,55,12000,480
66,61,12000,360
58,55,12000,480
65,53,12360,108
58,50,12480,480
65,59,12480,480
61,50,12480,480
58,42,12960,480
61,51,12960,480
61,58,13440,420
70,73,13440,240
58,58,13440,420
68,65,13680,180
68,58,13860,60
61,55,13920,480
66,61,13920,360
58,55,13920,480
65,54,14280,108
58,50,14400,480
65,59,14400,480
61,50,14400,480
58,42,14880,480
61,51,14880,480
53,39,15360,480
58,46,15360,480
54,39,15840,480
58,46,15840,360
58,41,16200,108
58,46,16320,480
53,39,16320,480
61,54,16800,360
54,44,16800,480
60,49,17160,60
61,45,17220,60
60,52,17280,360
53,44,17280,480
58,46,17640,108
54,42,17760,480
58,50,17760,360
58,41,18120,108
53,39,18240,480
58,46,18240,960
54,32,18720,480
73,68,19200,460
82,83,19200,240
70,68,19200,240
68,56,19440,180
80,73,19440,180
68,64,19620,20
73,57,19640,20
80,59,19660,20
73,74,19680,480
78,73,19680,360
66,61,19680,480
65,52,20040,108
77,61,20040,108
65,58,20160,480
77,69,20160,480
73,69,20160,480
73,68,20640,480
61,57,20640,480
70,68,20640,480
73,68,21120,460
82,83,21120,240
70,68,21120,240
68,56,21360,180
80,73,21360,180
68,66,21540,20
73,58,21560,20
80,58,21580,20
73,76,21600,480
78,73,21600,360
66,63,21600,480
65,52,21960,108
77,61,21960,108
65,58,22080,480
77,69,22080,480
73,69,22080,480
73,68,22560,480
61,57,22560,480
70,68,22560,480
58,52,23040,480
65,52,23040,480
70,61,23040,480
58,53,23520,360
66,53,23520,480
70,63,23520,360
58,48,23880,108
70,57,23880,108
58,54,24000,480
65,54,24000,480
70,65,24000,480
61,68,24480,360
73,82,24480,360
66,66,24480,480
60,59,24840,120
72,71,24840,120
60,68,24960,360
72,79,24960,360
65,68,24960,480
58,59,25320,108
70,71,25320,108
58,64,25440,360
66,64,25440,480
70,77,25440,360
58,60,25800,108
70,72,25800,108
58,63,25920,480
65,64,25920,480
70,76,25920,480
68,75,26400,480
60,75,26400,480
72,95,26400,480
66,75,26400,480
61,78,26880,480
65,78,26880,480
73,100,26880,480
65,74,27360,360
73,74,27360,360
77,89,27360,360
66,74,27720,120
78,89,27720,120
68,78,27840,360
80,93,27840,360
73,78,27840,360
70,78,28200,120
82,93,28200,120
72,84,28320,360
80,84,28320,360
84,99,28320,360
73,88,28680,120
85,102,28680,120
89,103,28800,960
80,88,28800,1680
77,88,28800,960
84,88,28800,1680
75,79,29760,720
87,95,29760,720
78,89,30600,120
72,75,30600,120
75,75,30600,120
66,75,30600,120
75,80,30720,480
65,80,30720,480
72,80,30720,480
77,102,30720,480
70,74,31200,360
65,74,31200,360
73,74,31200,360
77,89,31200,360
67,74,31560,120
79,89,31560,120
77,78,31680,360
69,78,31680,360
73,78,31680,360
81,93,31680,360
70,78,32040,120
82,93,32040,120
72,84,32160,360
77,84,32160,360
84,99,32160,360
73,88,32520,60
85,102,32520,60
70,88,32580,1020
76,88,32600,1000
79,88,32620,980
85,103,32640,960
72,76,33600,480
77,76,33600,480
84,90,33600,480
56,68,34560,480
54,68,34560,480
60,68,34560,480
65,68,34560,480
68,80,34560,480
63,68,35040,480
56,68,35040,480
60,68,35040,480
54,68,35040,480
68,80,35040,480
53,68,35520,480
61,68,35520,480
68,80,35520,480
57,68,36480,480
51,68,36480,480
61,68,36480,480
65,80,36480,480
65,80,36960,480
57,68,36960,480
60,68,36960,480
51,68,36960,480
49,68,37440,960
58,80,37440,960
46,39,38400,480
53,39,38400,480
58,46,38400,480
54,39,38880,480
58,46,38880,360
58,41,39240,120
53,39,39360,480
58,46,39360,480
61,54,39840,360
54,44,39840,480
60,49,40200,60
61,45,40260,60
60,52,40320,360
53,44,40320,480
58,46,40680,120
54,42,40800,480
58,50,40800,360
58,41,41160,120
53,39,41280,480
58,46,41280,480
55,76,41760,360
61,97,41760,360
52,76,41760,360
54,76,42120,120
60,76,42120,120
63,97,42120,120
53,79,42240,480
61,79,42240,480
65,101,42240,480
77,93,42720,360
65,77,42720,360
73,77,42720,360
66,77,43080,120
78,93,43080,120
68,82,43200,360
73,82,43200,360
80,97,43200,360
70,82,43560,120
82,97,43560,120
72,88,43680,360
80,88,43680,360
84,105,43680,360
73,92,44040,120
85,108,44040,120
84,92,44160,1680
80,92,44160,1680
77,92,44160,960
89,109,44160,960
75,82,45120,720
87,99,45120,720
66,75,45960,120
72,75,45960,120
75,75,45960,120
78,89,45960,120
77,102,46080,480
65,80,46080,480
72,80,46080,480
75,80,46080,480
70,74,46560,360
65,74,46560,360
73,74,46560,360
77,89,46560,360
67,74,46920,120
79,89,46920,120
77,78,47040,360
69,78,47040,360
73,78,47040,360
81,93,47040,360
70,78,47400,120
82,93,47400,120
72,84,47520,360
77,84,47520,360
84,99,47520,360
73,88,47880,60
85,102,47880,60
70,88,47940,1020
76,88,47960,1000
79,88,47980,980
85,103,48000,960
72,76,48960,480
77,76,48960,480
84,90,48960,480
56,68,49920,480
68,80,49920,480
60,68,49920,480
65,68,49920,480
54,68,49920,480
54,68,50400,480
56,68,50400,480
60,68,50400,480
63,68,50400,480
68,80,50400,480
53,68,50880,480
61,68,50880,480
68,80,50880,480
65,80,51840,480
51,68,51840,480
61,68,51840,480
57,68,51840,480
51,68,52320,480
57,68,52320,480
60,68,52320,480
65,80,52320,480
49,68,52800,960
58,80,52800,960
46,39,53760,480
53,39,53760,480
58,46,53760,480
54,39,54240,480
58,46,54240,360
58,41,54600,120
53,39,54720,480
58,46,54720,480
61,54,55200,360
54,44,55200,480
60,49,55560,60
61,45,55620,60
60,52,55680,360
53,44,55680,480
58,46,56040,120
54,42,56160,480
58,50,56160,360
58,41,56520,120
53,39,56640,480
58,46,56640,480
77,54,57600,960
78,50,58560,240
77,46,58800,240
75,50,59040,240
73,46,59280,240
72,50,59520,480
82,54,60000,480
80,52,60480,960
78,51,61440,960
80,50,62400,240
78,46,62640,240
77,50,62880,240
75,46,63120,240
73,50,63360,480
85,53,63840,480
80,49,64320,960
77,52,65280,960
78,51,66240,240
77,46,66480,240
75,50,66720,240
74,46,66960,120
75,46,67080,60
77,42,67140,60
75,53,67200,240
74,51,67440,240
75,54,67680,240
77,55,67920,240
78,57,68160,240
70,52,68400,240
77,57,68640,240
75,50,68880,120
72,39,69000,60
73,39,69060,58
73,39,69120,45
75,36,69165,45
73,40,69210,45
75,37,69255,45
73,42,69300,45
75,38,69345,45
73,44,69390,45
75,39,69435,45
73,46,69480,45
75,42,69525,45
73,48,69570,45
75,42,69615,45
73,47,69660,45
75,40,69706,45
73,44,69750,45
75,38,69795,46
73,42,69840,60
75,37,69900,60
72,40,69960,60
73,35,70020,60
82,54,70080,240
80,50,70320,240
78,52,70560,240
68,50,70800,240
75,54,71040,960
73,50,72000,480
77,54,72960,960
78,50,73920,240
77,46,74160,240
75,50,74400,240
73,46,74640,240
72,50,74880,480
82,54,75360,480
80,52,75840,960
78,51,76800,960
80,50,77760,240
78,46,78000,240
77,50,78240,240
75,46,78480,240
73,50,78720,480
85,53,79200,480
80,49,79680,960
77,52,80640,960
78,51,81600,240
77,46,81840,240
75,50,82080,240
74,46,82320,120
75,46,82440,60
77,42,82500,60
75,53,82560,240
74,51,82800,240
75,54,83040,240
77,55,83280,240
78,57,83520,240
70,52,83760,240
77,57,84000,240
75,50,84240,120
72,39,84360,60
73,39,84420,60
73,39,84480,45
75,36,84525,45
73,40,84570,45
75,37,84615,45
73,42,84660,45
75,38,84705,45
73,44,84750,45
75,39,84795,45
73,46,84840,45
75,42,84885,45
73,48,84930,45
75,42,84975,45
73,47,85020,45
75,40,85066,45
73,44,85110,45
75,38,85155,46
73,42,85200,60
75,37,85260,60
72,40,85320,60
73,35,85380,60
82,54,85440,240
80,50,85680,240
78,52,85920,240
68,50,86160,240
75,54,86400,960
73,50,87360,480
72,56,88320,960
73,52,89280,240
72,48,89520,240
70,52,89760,240
68,48,90000,240
67,52,90240,480
77,56,90720,480
75,54,91200,960
73,55,92160,960
75,55,93120,240
73,50,93360,240
72,55,93600,240
70,51,93840,240
69,55,94080,480
78,59,94560,480
77,55,95040,960
77,59,96000,960
78,58,96960,240
77,52,97200,240
75,57,97440,240
73,52,97680,235
73,59,97920,480
72,57,98400,480
72,56,99120,210
75,55,99330,30
73,59,99360,360
72,58,99720,115
72,59,99840,480
70,56,100320,480
72,56,101040,210
75,59,101250,30
73,59,101280,360
72,56,101640,120
72,50,101760,480
77,55,102240,480
78,54,102720,480
68,46,103200,480
77,54,103680,960
78,50,104640,240
77,46,104880,240
75,50,105120,240
73,46,105360,240
72,50,105600,480
82,54,106080,480
80,52,106560,960
78,51,107520,960
80,50,108480,240
78,46,108720,240
77,50,108960,240
75,46,109200,240
73,50,109440,480
85,53,109920,480
80,49,110400,960
77,52,111360,960
78,51,112320,240
77,46,112560,240
75,50,112800,240
74,46,113040,120
75,46,113160,60
77,42,113220,60
75,53,113280,240
74,51,113520,240
75,54,113760,240
77,55,114000,240
78,57,114240,240
70,52,114480,240
77,57,114720,240
75,50,114960,120
72,39,115080,60
73,39,115140,60
73,39,115200,45
75,36,115245,45
73,40,115290,45
75,37,115335,45
73,42,115380,45
75,38,115425,45
73,44,115470,45
75,39,115515,45
73,46,115560,45
75,42,115605,45
73,48,115650,45
75,42,115695,45
73,47,115740,45
75,40,115786,45
73,44,115830,45
75,38,115875,46
73,42,115920,60
75,37,115980,60
72,40,116040,60
73,35,116100,60
82,54,116160,240
80,50,116400,240
78,52,116640,240
68,50,116880,240
75,54,117120,960
73,45,118080,480
72,56,119040,960
73,52,120000,240
72,48,120240,240
70,52,120480,240
68,48,120720,240
67,52,120960,480
77,56,121440,480
75,54,121920,960
73,55,122880,960
75,55,123840,240
73,50,124080,240
72,55,124320,240
70,51,124560,240
69,55,124800,480
78,59,125280,480
77,55,125760,960
77,59,126720,960
78,58,127680,240
77,52,127920,240
75,57,128160,240
73,52,128400,235
73,59,128640,480
72,57,129120,480
72,56,129840,210
75,55,130050,30
73,59,130080,360
72,58,130440,113
72,59,130560,480
70,56,131040,480
72,56,131760,210
75,59,131970,30
73,59,132000,360
72,56,132360,113
72,50,132480,480
77,55,132960,480
78,54,133440,480
68,45,133920,480
77,54,134400,960
78,50,135360,240
77,46,135600,240
75,50,135840,240
73,46,136080,240
72,50,136320,480
82,54,136800,480
80,52,137280,960
78,51,138240,960
80,50,139200,240
78,46,139440,240
77,50,139680,240
75,46,139920,240
73,50,140160,480
85,53,140640,480
80,49,141120,960
77,52,142080,960
78,51,143040,240
77,46,143280,240
75,50,143520,240
74,46,143760,120
75,46,143880,60
77,42,143940,60
75,53,144000,240
74,51,144240,240
75,54,144480,240
77,55,144720,240
78,57,144960,240
70,52,145200,240
77,57,145440,240
75,50,145680,120
72,39,145800,60
73,39,145860,60
73,39,145920,45
75,36,145965,45
73,40,146010,45
75,37,146055,45
73,42,146100,45
75,38,146145,45
73,44,146190,45
75,39,146235,45
73,46,146280,45
75,42,146325,45
73,48,146370,45
75,42,146415,45
73,47,146460,45
75,40,146506,45
73,44,146550,45
75,38,146595,46
73,42,146640,60
75,37,146700,60
72,40,146760,60
73,35,146820,60
82,54,146880,240
80,50,147120,240
78,52,147360,240
68,50,147600,240
75,54,147840,960
73,45,148800,480
53,34,149760,480
58,40,149760,480
54,34,150240,480
58,40,150240,360
58,36,150600,108
53,34,150720,480
58,40,150720,960
54,28,151200,480
53,34,151680,480
58,40,151680,480
54,34,152160,480
58,40,152160,360
58,36,152520,108
53,34,152640,480
58,40,152640,960
54,28,153120,480
53,34,153600,480
58,40,153600,480
54,34,154080,480
58,40,154080,360
58,36,154440,108
53,34,154560,480
58,40,154560,480
61,49,155040,360
54,39,155040,480
60,45,155400,108
60,48,155520,360
53,39,155520,480
58,42,155880,108
54,37,156000,480
58,44,156000,360
58,36,156360,108
53,34,156480,480
58,40,156480,960
54,28,156960,480
58,42,157440,480
53,42,157440,480
61,50,157440,480
58,42,157920,480
54,42,157920,480
61,50,157920,360
61,45,158280,108
58,42,158400,480
53,42,158400,480
61,50,158400,480
65,59,158880,360
61,52,158880,360
54,48,158880,480
63,53,159240,60
60,47,159240,60
65,48,159300,60
63,57,159360,360
60,51,159360,360
53,48,159360,480
61,50,159720,108
58,45,159720,108
61,55,159840,360
54,46,159840,480
58,48,159840,360
61,45,160200,108
58,39,160200,108
61,50,160320,960
53,42,160320,480
58,45,160320,960
54,35,160800,480
61,58,161280,420
70,73,161280,240
58,58,161280,420
68,67,161520,180
68,58,161700,60
61,55,161760,480
66,61,161760,360
58,55,161760,480
65,53,162120,108
58,50,162240,480
65,59,162240,480
61,50,162240,480
58,42,162720,480
61,51,162720,480
61,58,163200,420
70,73,163200,240
58,58,163200,420
68,67,163440,180
68,58,163620,60
61,55,163680,480
66,61,163680,360
58,55,163680,480
65,54,164040,108
58,50,164160,480
65,59,164160,480
61,50,164160,480
58,42,164640,480
61,51,164640,480
53,39,165120,480
58,46,165120,480
54,39,165600,480
58,46,165600,360
58,41,165960,108
53,39,166080,480
58,46,166080,480
61,54,166560,360
54,44,166560,480
60,49,166920,60
61,45,166980,60
60,52,167040,360
53,44,167040,480
58,46,167400,108
54,42,167520,480
58,50,167520,360
58,41,167880,108
53,39,168000,480
58,46,168000,960
54,32,168480,480
73,68,168960,460
82,83,168960,240
70,68,168960,240
68,56,169200,180
80,73,169200,180
68,64,169380,20
73,57,169400,20
80,59,169420,20
73,74,169440,480
78,73,169440,360
66,61,169440,480
65,52,169800,108
77,61,169800,108
65,58,169920,480
77,69,169920,480
73,69,169920,480
73,68,170400,480
61,57,170400,480
70,68,170400,480
73,68,170880,460
82,83,170880,240
70,68,170880,240
68,56,171120,180
80,73,171120,180
68,66,171300,20
73,58,171320,20
80,58,171340,20
73,76,171360,480
78,73,171360,360
66,63,171360,480
65,52,171720,108
77,61,171720,108
65,58,171840,480
77,69,171840,480
73,69,171840,480
73,68,172320,480
61,57,172320,480
70,68,172320,480
58,52,172800,480
65,52,172800,480
70,61,172800,480
58,53,173280,360
66,53,173280,480
70,63,173280,360
58,48,173640,108
70,57,173640,108
58,54,173760,480
65,54,173760,480
70,65,173760,480
61,68,174240,360
73,82,174240,360
66,66,174240,480
60,59,174600,108
72,71,174600,108
60,68,174720,360
72,79,174720,360
65,68,174720,480
58,59,175080,108
70,71,175080,108
58,64,175200,360
66,64,175200,480
70,77,175200,360
58,60,175560,108
70,72,175560,108
58,63,175680,480
65,64,175680,480
70,76,175680,480
68,75,176160,480
60,75,176160,480
72,95,176160,480
66,75,176160,480
61,78,176640,480
65,78,176640,480
73,100,176640,480
65,74,177120,360
73,74,177120,360
77,89,177120,360
66,74,177480,120
78,89,177480,120
68,78,177600,360
73,78,177600,360
80,93,177600,360
70,78,177960,120
82,93,177960,120
72,84,178080,360
80,84,178080,360
84,99,178080,360
73,88,178440,120
85,102,178440,120
84,88,178560,1680
80,88,178560,1680
77,88,178560,960
89,103,178560,960
75,79,179520,720
87,95,179520,720
66,75,180360,120
72,75,180360,120
75,75,180360,120
78,89,180360,120
75,80,180480,480
65,80,180480,480
72,80,180480,480
77,102,180480,480
70,74,180960,360
65,74,180960,360
73,74,180960,360
77,89,180960,360
67,74,181320,120
79,89,181320,120
77,78,181440,360
69,78,181440,360
73,78,181440,360
81,93,181440,360
70,78,181800,120
82,93,181800,120
72,84,181920,360
77,84,181920,360
84,99,181920,360
73,88,182280,60
85,102,182280,60
70,88,182340,1020
76,88,182360,1000
79,88,182380,980
85,103,182400,960
72,76,183360,480
77,76,183360,480
84,90,183360,480
56,68,184320,480
54,68,184320,480
60,68,184320,480
65,68,184320,480
68,80,184320,480
54,68,184800,480
56,68,184800,480
60,68,184800,480
63,68,184800,480
68,80,184800,480
53,68,185280,480
61,68,185280,480
68,80,185280,480
57,68,186240,480
51,68,186240,480
61,68,186240,480
65,80,186240,480
51,68,186720,480
57,68,186720,480
60,68,186720,480
65,80,186720,480
49,68,187200,960
58,80,187200,960
46,39,188160,480
53,39,188160,480
58,46,188160,480
54,39,188640,480
58,46,188640,360
58,41,189000,108
53,39,189120,480
58,46,189120,480
61,54,189600,360
54,44,189600,480
60,49,189960,60
61,45,190020,60
60,52,190080,360
53,44,190080,480
58,46,190440,120
54,42,190560,480
58,50,190560,360
58,41,190920,108
53,39,191040,480
58,46,191040,480
55,76,191520,360
61,97,191520,360
52,76,191520,360
54,76,191880,120
60,76,191880,120
63,97,191880,120
53,79,192000,480
61,79,192000,480
65,101,192000,480
65,74,192480,360
73,74,192480,360
77,89,192480,360
66,74,192840,120
78,89,192840,120
68,79,192960,360
73,79,192960,360
80,93,192960,360
70,79,193320,120
82,93,193320,120
72,84,193440,360
80,84,193440,360
84,100,193440,360
73,88,193800,120
85,103,193800,120
84,88,193920,1680
80,88,193920,1680
77,88,193920,960
89,104,193920,960
75,79,194880,720
87,95,194880,720
66,72,195720,120
72,72,195720,120
75,72,195720,120
78,85,195720,120
75,77,195840,480
65,77,195840,480
72,77,195840,480
77,98,195840,480
70,74,196320,360
65,74,196320,360
73,74,196320,360
77,89,196320,360
67,74,196680,120
79,89,196680,120
77,78,196800,360
69,78,196800,360
73,78,196800,360
81,93,196800,360
70,78,197160,120
82,93,197160,120
72,84,197280,360
77,84,197280,360
84,99,197280,360
73,88,197640,60
85,102,197640,60
70,88,197700,1020
76,88,197720,1000
79,88,197740,980
85,103,197760,960
72,76,198720,480
77,76,198720,480
84,90,198720,480
56,68,199680,480
54,68,199680,480
60,68,199680,480
65,68,199680,480
68,80,199680,480
54,68,200160,480
56,68,200160,480
60,68,200160,480
63,68,200160,480
68,80,200160,480
53,68,200640,480
61,68,200640,480
68,80,200640,480
57,68,201600,480
51,68,201600,480
61,68,201600,480
65,80,201600,480
51,68,202080,480
57,68,202080,480
60,68,202080,480
65,80,202080,480
49,68,202560,960
58,80,202560,960
46,39,203520,480
53,39,203520,480
58,46,203520,480
54,39,204000,480
58,46,204000,360
58,41,204360,108
53,39,204480,480
58,46,204480,480
61,45,204960,360
54,37,204960,480
60,40,205320,60
61,37,205380,60
60,42,205440,360
53,36,205440,480
58,36,205800,108
54,33,205920,480
58,40,205920,360
58,28,206280,108
49,26,206400,960
53,26,206400,960
58,31,206400,960
34,28,0,480
41,28,0,480
46,34,0,480
37,25,480,480
42,25,480,480
49,30,480,480
34,28,960,480
41,28,960,480
46,34,960,480
37,23,1440,480
42,23,1440,480
49,28,1440,480
34,28,1920,480
41,28,1920,480
46,34,1920,480
37,25,2400,480
42,25,2400,480
49,30,2400,480
34,28,2880,480
41,28,2880,480
46,34,2880,480
37,22,3360,480
42,22,3360,480
49,27,3360,480
34,28,3840,480
41,28,3840,480
46,34,3840,480
37,25,4320,480
42,30,4320,480
49,30,4320,480
34,28,4800,480
41,28,4800,480
46,34,4800,480
37,22,5280,480
42,27,5280,480
49,27,5280,480
34,28,5760,480
41,28,5760,480
46,34,5760,480
37,25,6240,480
42,25,6240,480
49,30,6240,480
34,28,6720,480
41,28,6720,480
46,34,6720,480
37,22,7200,480
42,22,7200,480
49,27,7200,480
34,35,7680,480
41,35,7680,480
46,42,7680,480
37,30,8160,480
42,37,8160,480
49,37,8160,480
34,35,8640,480
41,35,8640,480
46,42,8640,480
37,27,9120,480
42,34,9120,480
49,34,9120,480
34,35,9600,480
41,35,9600,480
46,42,9600,480
37,30,10080,480
42,30,10080,480
49,37,10080,480
34,35,10560,480
41,35,10560,480
46,42,10560,480
37,27,11040,480
42,27,11040,480
49,34,11040,480
34,42,11520,480
41,42,11520,480
46,52,11520,480
37,36,12000,480
42,36,12000,480
49,44,12000,480
34,38,12480,480
41,38,12480,480
46,46,12480,480
37,27,12960,480
42,27,12960,480
49,35,12960,480
34,42,13440,480
41,42,13440,480
46,52,13440,480
37,36,13920,480
42,36,13920,480
49,44,13920,480
34,38,14400,480
41,38,14400,480
46,46,14400,480
37,27,14880,480
42,27,14880,480
49,35,14880,480
34,32,15360,480
41,32,15360,480
46,39,15360,480
37,28,15840,480
42,34,15840,480
49,34,15840,480
34,32,16320,480
41,32,16320,480
46,39,16320,480
37,25,16800,480
42,31,16800,480
49,31,16800,480
34,32,17280,480
41,32,17280,480
46,39,17280,480
37,28,17760,480
42,28,17760,480
49,34,17760,480
34,32,18240,480
41,32,18240,480
46,39,18240,480
37,25,18720,480
42,25,18720,480
49,31,18720,480
34,47,19200,480
41,47,19200,480
46,57,19200,480
37,37,19680,480
42,37,19680,480
49,46,19680,480
34,39,20160,480
41,39,20160,480
46,48,20160,480
37,30,20640,480
42,30,20640,480
49,38,20640,480
34,47,21120,480
41,47,21120,480
46,57,21120,480
37,37,21600,480
42,37,21600,480
49,46,21600,480
34,39,22080,480
41,39,22080,480
46,48,22080,480
37,30,22560,480
42,30,22560,480
49,38,22560,480
34,43,23040,480
41,43,23040,480
46,52,23040,480
37,37,23520,480
42,46,23520,480
49,46,23520,480
34,45,24000,480
41,45,24000,480
46,54,24000,480
37,36,24480,480
42,46,24480,480
49,46,24480,480
34,49,24960,480
41,49,24960,480
46,58,24960,480
37,42,25440,480
42,42,25440,480
49,51,25440,480
34,53,25920,480
41,53,25920,480
46,64,25920,480
32,56,26400,480
44,71,26400,480
25,59,26880,480
37,74,26880,480
49,64,27360,360
56,64,27360,360
61,76,27360,360
63,76,27720,120
49,68,27840,360
56,68,27840,360
65,80,27840,360
66,80,28200,120
63,73,28320,360
56,73,28320,360
68,86,28320,360
65,85,28680,120
32,77,28800,480
44,92,28800,480
63,69,29280,360
66,69,29280,360
72,81,29280,360
61,65,29640,108
66,65,29640,108
70,76,29640,108
61,63,29760,360
66,63,29760,360
70,75,29760,360
60,59,30120,108
66,59,30120,108
68,71,30120,108
60,57,30240,360
66,57,30240,360
68,68,30240,360
57,66,30600,120
60,66,30600,120
63,77,30600,120
34,66,30720,480
46,78,30720,480
53,63,31200,480
58,63,31200,480
61,75,31200,480
37,68,31680,480
49,80,31680,480
65,76,32160,480
61,64,32160,480
58,64,32160,480
53,64,32160,480
29,77,32640,480
41,92,32640,480
53,69,33120,480
58,69,33120,480
61,69,33120,480
67,81,33120,480
53,64,33600,480
57,64,33600,480
60,64,33600,480
69,75,33600,480
53,81,34080,240
43,61,34320,80
44,61,34400,80
46,61,34480,80
44,61,34560,45
46,56,34605,45
44,64,34650,45
46,57,34695,45
44,66,34740,45
46,59,34785,45
44,68,34830,45
46,61,34875,45
44,70,34920,45
46,65,34965,45
44,73,35010,45
46,66,35055,45
44,72,35100,45
46,63,35146,45
44,69,35190,45
46,60,35235,46
44,66,35280,60
46,58,35340,60
43,64,35400,60
44,55,35460,60
49,68,35520,480
49,79,36000,240
40,61,36240,80
41,61,36320,80
42,61,36400,80
41,61,36480,45
42,56,36525,45
41,64,36570,45
42,57,36615,45
41,66,36660,45
42,59,36705,45
41,68,36750,45
42,61,36795,45
41,70,36840,45
42,65,36885,45
41,73,36930,45
42,66,36975,45
41,72,37020,45
42,63,37066,45
41,69,37110,45
42,60,37155,46
41,66,37200,60
42,58,37260,60
40,64,37320,60
41,55,37380,60
42,64,37440,480
41,49,37920,240
37,40,38160,240
34,32,38400,480
41,32,38400,480
46,39,38400,480
37,28,38880,480
42,34,38880,480
49,34,38880,480
34,32,39360,480
41,32,39360,480
46,39,39360,480
37,25,39840,480
42,31,39840,480
49,31,39840,480
34,32,40320,480
41,32,40320,480
46,39,40320,480
37,28,40800,480
42,28,40800,480
49,34,40800,480
34,32,41280,480
41,32,41280,480
46,39,41280,480
33,57,41760,360
45,73,41760,360
32,57,42120,120
44,73,42120,120
25,60,42240,480
37,76,42240,480
49,67,42720,360
56,67,42720,360
61,80,42720,360
63,80,43080,120
49,71,43200,360
56,71,43200,360
65,85,43200,360
66,85,43560,120
63,76,43680,360
56,76,43680,360
68,90,43680,360
65,89,44040,120
32,81,44160,480
44,96,44160,480
63,72,44640,360
66,72,44640,360
72,85,44640,360
61,67,45000,120
66,67,45000,120
70,79,45000,120
61,66,45120,360
66,66,45120,360
70,78,45120,360
60,61,45480,120
66,61,45480,120
68,73,45480,120
60,60,45600,360
66,60,45600,360
68,71,45600,360
57,66,45960,120
60,66,45960,120
63,77,45960,120
34,66,46080,480
46,78,46080,480
53,63,46560,480
58,63,46560,480
61,75,46560,480
37,68,47040,480
49,80,47040,480
65,76,47520,480
61,64,47520,480
58,64,47520,480
53,64,47520,480
29,77,48000,480
41,92,48000,480
53,69,48480,480
58,69,48480,480
61,69,48480,480
67,81,48480,480
53,64,48960,480
57,64,48960,480
60,64,48960,480
69,75,48960,480
53,81,49440,240
43,61,49680,80
44,61,49760,80
46,61,49840,80
44,61,49920,45
46,56,49965,45
44,64,50010,45
46,57,50055,45
44,66,50100,45
46,59,50145,45
44,68,50190,45
46,61,50235,45
44,70,50280,45
46,65,50325,45
44,73,50370,45
46,66,50415,45
44,72,50460,45
46,63,50506,45
44,69,50550,45
46,60,50595,46
44,66,50640,60
46,58,50700,60
43,64,50760,60
44,55,50820,60
49,68,50880,480
49,68,51360,240
40,61,51600,80
41,61,51680,80
42,61,51760,80
41,61,51840,45
42,56,51885,45
41,64,51930,45
42,57,51975,45
41,66,52020,45
42,59,52065,45
41,68,52110,45
42,61,52155,45
41,70,52200,45
42,65,52245,45
41,73,52290,45
42,66,52335,45
41,72,52380,45
42,63,52426,45
41,69,52470,45
42,60,52515,46
41,66,52560,60
42,58,52620,60
40,64,52680,60
41,55,52740,60
42,64,52800,480
41,51,53280,240
37,39,53520,240
34,32,53760,480
41,32,53760,480
46,39,53760,480
37,28,54240,480
42,34,54240,480
49,34,54240,480
34,32,54720,480
41,32,54720,480
46,39,54720,480
37,25,55200,480
42,31,55200,480
49,31,55200,480
34,32,55680,480
41,32,55680,480
46,39,55680,480
37,28,56160,480
42,28,56160,480
49,34,56160,480
34,32,56640,480
41,32,56640,480
46,39,56640,480
32,32,57120,480
44,39,57120,480
37,33,57600,240
44,27,57840,240
53,27,58080,240
61,28,58320,240
37,33,58560,240
44,27,58800,240
53,27,59040,240
61,28,59280,240
39,33,59520,240
44,27,59760,240
54,24,60000,240
60,24,60240,240
39,31,60480,240
44,24,60720,240
54,27,60960,240
60,25,61200,240
32,33,61440,240
44,29,61680,240
54,29,61920,240
60,30,62160,240
32,36,62400,240
44,30,62640,240
54,30,62880,240
60,31,63120,240
37,36,63360,240
44,30,63600,240
53,28,63840,240
61,25,64080,240
37,33,64320,240
44,27,64560,240
53,29,64800,240
61,27,65040,240
37,33,65280,240
44,27,65520,240
53,30,65760,240
61,28,66000,240
34,33,66240,240
46,29,66480,240
56,29,66720,240
62,30,66960,240
39,33,67200,240
46,30,67440,240
54,30,67680,240
63,27,67920,240
42,33,68160,240
51,29,68400,240
58,30,68640,240
63,27,68880,120
43,33,69120,240
52,28,69360,240
61,28,69600,240
70,29,69840,240
44,33,70080,240
51,28,70320,240
60,30,70560,240
66,30,70800,240
32,33,71040,240
44,27,71280,240
54,27,71520,240
60,26,71760,240
37,31,72000,240
44,28,72240,240
53,28,72480,240
61,28,72720,240
37,33,72960,240
44,27,73200,240
53,27,73440,240
61,28,73680,240
37,33,73920,240
44,27,74160,240
53,27,74400,240
61,28,74640,240
39,33,74880,240
44,27,75120,240
54,24,75360,240
60,24,75600,240
39,31,75840,240
44,24,76080,240
54,27,76320,240
60,25,76560,240
32,33,76800,240
44,29,77040,240
54,29,77280,240
60,30,77520,240
32,36,77760,240
44,30,78000,240
54,30,78240,240
60,31,78480,240
37,36,78720,240
44,30,78960,240
53,28,79200,240
61,25,79440,240
37,33,79680,240
44,27,79920,240
53,29,80160,240
61,27,80400,240
37,33,80640,240
44,27,80880,240
53,30,81120,240
61,28,81360,240
34,33,81600,240
46,29,81840,240
56,29,82080,240
62,30,82320,240
39,33,82560,240
46,30,82800,240
54,30,83040,240
63,27,83280,240
42,33,83520,240
51,29,83760,240
58,30,84000,240
63,27,84240,120
43,33,84480,240
52,28,84720,240
61,28,84960,240
70,29,85200,240
44,33,85440,240
51,28,85680,240
60,30,85920,240
66,30,86160,240
32,33,86400,240
44,27,86640,240
54,27,86880,240
60,26,87120,240
37,31,87360,240
44,28,87600,240
53,28,87840,240
61,28,88080,240
32,34,88320,240
44,28,88560,240
51,28,88800,240
60,29,89040,240
32,34,89280,240
44,28,89520,240
51,28,89760,240
60,29,90000,240
34,34,90240,240
46,28,90480,240
51,25,90720,240
61,25,90960,240
34,32,91200,240
46,25,91440,240
51,28,91680,240
61,26,91920,240
34,36,92160,240
46,31,92400,240
52,31,92640,240
61,33,92880,240
34,39,93120,240
46,33,93360,240
52,33,93600,240
61,34,93840,240
36,40,94080,240
48,33,94320,240
54,31,94560,240
63,28,94800,240
36,37,95040,240
48,30,95280,240
51,33,95520,240
63,30,95760,240
37,37,96000,240
49,31,96240,240
58,34,96480,240
65,32,96720,240
37,37,96960,240
49,33,97200,240
58,33,97440,240
65,34,97680,240
39,40,97920,240
51,35,98160,240
58,37,98400,240
66,33,98640,240
41,41,98880,240
53,35,99120,240
58,37,99360,240
65,35,99600,240
42,40,99840,240
51,34,100080,240
58,37,100320,240
63,33,100560,240
42,38,100800,240
54,34,101040,240
58,37,101280,240
64,34,101520,240
41,36,101760,240
48,32,102000,240
57,32,102240,240
65,31,102480,240
39,35,102720,240
51,33,102960,240
56,27,103200,240
66,26,103440,240
60,23,103440,240
37,33,103680,240
44,27,103920,240
53,27,104160,240
61,28,104400,240
37,33,104640,240
44,27,104880,240
53,27,105120,240
61,28,105360,240
39,33,105600,240
44,27,105840,240
54,24,106080,240
60,24,106320,240
39,31,106560,240
44,24,106800,240
54,27,107040,240
60,25,107280,240
32,33,107520,240
44,29,107760,240
54,29,108000,240
60,30,108240,240
32,36,108480,240
44,30,108720,240
54,30,108960,240
60,31,109200,240
37,36,109440,240
44,30,109680,240
53,28,109920,240
61,25,110160,240
37,33,110400,240
44,27,110640,240
53,29,110880,240
61,27,111120,240
37,33,111360,240
44,27,111600,240
53,30,111840,240
61,28,112080,240
34,33,112320,240
46,29,112560,240
56,29,112800,240
62,30,113040,240
39,33,113280,240
46,30,113520,240
54,30,113760,240
63,27,114000,240
42,33,114240,240
51,29,114480,240
58,30,114720,240
63,27,114960,120
43,33,115200,240
52,28,115440,240
61,28,115680,240
70,29,115920,240
44,33,116160,240
51,28,116400,240
60,30,116640,240
66,30,116880,240
32,33,117120,240
44,27,117360,240
54,27,117600,240
60,26,117840,240
37,27,118080,240
44,25,118320,240
53,25,118560,240
61,25,118800,240
32,34,119040,240
44,28,119280,240
51,28,119520,240
60,29,119760,240
32,34,120000,240
44,28,120240,240
51,28,120480,240
60,29,120720,240
34,34,120960,240
46,28,121200,240
51,25,121440,240
61,25,121680,240
34,32,121920,240
46,25,122160,240
51,28,122400,240
61,26,122640,240
34,36,122880,240
46,31,123120,240
52,31,123360,240
61,33,123600,240
34,39,123840,240
46,33,124080,240
52,33,124320,240
61,34,124560,240
36,40,124800,240
48,33,125040,240
54,31,125280,240
63,28,125520,240
36,37,125760,240
48,30,126000,240
51,33,126240,240
63,30,126480,240
37,37,126720,240
49,31,126960,240
58,34,127200,240
65,32,127440,240
37,37,127680,240
49,33,127920,240
58,33,128160,240
65,34,128400,240
39,40,128640,240
51,35,128880,240
58,37,129120,240
66,33,129360,240
41,41,129600,240
53,35,129840,240
58,37,130080,240
65,35,130320,240
42,40,130560,240
51,34,130800,240
58,37,131040,240
63,33,131280,240
42,38,131520,240
54,34,131760,240
58,37,132000,240
64,34,132240,240
41,36,132480,240
48,32,132720,240
57,32,132960,240
65,31,133200,240
39,35,133440,240
51,33,133680,240
56,27,133920,240
66,26,134160,240
60,22,134160,240
37,33,134400,240
44,27,134640,240
53,27,134880,240
61,28,135120,240
37,33,135360,240
44,27,135600,240
53,27,135840,240
61,28,136080,240
39,33,136320,240
44,27,136560,240
54,24,136800,240
60,24,137040,240
39,31,137280,240
44,24,137520,240
54,27,137760,240
60,25,138000,240
32,33,138240,240
44,29,138480,240
54,29,138720,240
60,30,138960,240
32,36,139200,240
44,30,139440,240
54,30,139680,240
60,31,139920,240
37,36,140160,240
44,30,140400,240
53,28,140640,240
61,25,140880,240
37,33,141120,240
44,27,141360,240
53,29,141600,240
61,27,141840,240
37,33,142080,240
44,27,142320,240
53,30,142560,240
61,28,142800,240
34,33,143040,240
46,29,143280,240
56,29,143520,240
62,30,143760,240
39,33,144000,240
46,30,144240,240
54,30,144480,240
63,27,144720,240
42,33,144960,240
51,29,145200,240
58,30,145440,240
63,27,145680,120
43,33,145920,240
52,28,146160,240
61,28,146400,240
70,29,146640,240
44,33,146880,240
51,28,147120,240
60,30,147360,240
66,30,147600,240
32,33,147840,240
44,27,148080,240
54,27,148320,240
60,23,148560,240
49,23,148800,480
53,23,148800,480
61,27,148800,480
34,28,149760,480
41,28,149760,480
46,34,149760,480
37,25,150240,480
42,25,150240,480
49,30,150240,480
34,28,150720,480
41,28,150720,480
46,34,150720,480
37,23,151200,480
42,23,151200,480
49,28,151200,480
34,28,151680,480
41,28,151680,480
46,34,151680,480
37,25,152160,480
42,25,152160,480
49,30,152160,480
34,28,152640,480
41,28,152640,480
46,34,152640,480
37,22,153120,480
42,22,153120,480
49,27,153120,480
34,28,153600,480
41,28,153600,480
46,34,153600,480
37,25,154080,480
42,30,154080,480
49,30,154080,480
34,28,154560,480
41,28,154560,480
46,34,154560,480
37,22,155040,480
42,27,155040,480
49,27,155040,480
34,28,155520,480
41,28,155520,480
46,34,155520,480
37,25,156000,480
42,25,156000,480
49,30,156000,480
34,28,156480,480
41,28,156480,480
46,34,156480,480
37,22,156960,480
42,22,156960,480
49,27,156960,480
34,35,157440,480
41,35,157440,480
46,42,157440,480
37,30,157920,480
42,37,157920,480
49,37,157920,480
34,35,158400,480
41,35,158400,480
46,42,158400,480
37,27,158880,480
42,34,158880,480
49,34,158880,480
34,35,159360,480
41,35,159360,480
46,42,159360,480
37,30,159840,480
42,30,159840,480
49,37,159840,480
34,35,160320,480
41,35,160320,480
46,42,160320,480
37,27,160800,480
42,27,160800,480
49,34,160800,480
34,42,161280,480
41,42,161280,480
46,52,161280,480
37,36,161760,480
42,36,161760,480
49,44,161760,480
34,38,162240,480
41,38,162240,480
46,46,162240,480
37,27,162720,480
42,27,162720,480
49,35,162720,480
34,42,163200,480
41,42,163200,480
46,52,163200,480
37,36,163680,480
42,36,163680,480
49,44,163680,480
34,38,164160,480
41,38,164160,480
46,46,164160,480
37,27,164640,480
42,27,164640,480
49,35,164640,480
34,32,165120,480
41,32,165120,480
46,39,165120,480
37,28,165600,480
42,34,165600,480
49,34,165600,480
34,32,166080,480
41,32,166080,480
46,39,166080,480
37,25,166560,480
42,31,166560,480
49,31,166560,480
34,32,167040,480
41,32,167040,480
46,39,167040,480
37,28,167520,480
42,28,167520,480
49,34,167520,480
34,32,168000,480
41,32,168000,480
46,39,168000,480
37,25,168480,480
42,25,168480,480
49,31,168480,480
34,47,168960,480
41,47,168960,480
46,57,168960,480
37,37,169440,480
42,37,169440,480
49,46,169440,480
34,39,169920,480
41,39,169920,480
46,48,169920,480
37,30,170400,480
42,30,170400,480
49,38,170400,480
34,47,170880,480
41,47,170880,480
46,57,170880,480
37,37,171360,480
42,37,171360,480
49,46,171360,480
34,39,171840,480
41,39,171840,480
46,48,171840,480
37,30,172320,480
42,30,172320,480
49,38,172320,480
34,43,172800,480
41,43,172800,480
46,52,172800,480
37,37,173280,480
42,46,173280,480
49,46,173280,480
34,45,173760,480
41,45,173760,480
46,54,173760,480
37,36,174240,480
42,46,174240,480
49,46,174240,480
34,49,174720,480
41,49,174720,480
46,58,174720,480
37,42,175200,480
42,42,175200,480
49,51,175200,480
34,53,175680,480
41,53,175680,480
46,64,175680,480
32,56,176160,480
44,71,176160,480
25,59,176640,480
37,74,176640,480
49,64,177120,360
56,64,177120,360
61,76,177120,360
63,76,177480,120
49,68,177600,360
56,68,177600,360
65,80,177600,360
66,80,177960,120
63,73,178080,360
56,73,178080,360
68,86,178080,360
65,85,178440,120
32,77,178560,480
44,92,178560,480
63,69,179040,360
66,69,179040,360
72,81,179040,360
61,65,179400,108
66,65,179400,108
70,76,179400,108
61,63,179520,360
66,63,179520,360
70,75,179520,360
60,59,179880,108
66,59,179880,108
68,71,179880,108
60,57,180000,360
66,57,180000,360
68,68,180000,360
57,66,180360,120
60,66,180360,120
63,77,180360,120
34,66,180480,480
46,78,180480,480
53,63,180960,480
58,63,180960,480
61,75,180960,480
37,68,181440,480
49,80,181440,480
65,76,181920,480
61,64,181920,480
58,64,181920,480
53,64,181920,480
29,77,182400,480
41,92,182400,480
53,69,182880,480
58,69,182880,480
61,69,182880,480
67,81,182880,480
53,64,183360,480
57,64,183360,480
60,64,183360,480
69,75,183360,480
53,87,183840,240
43,61,184080,80
44,61,184160,80
46,61,184240,80
44,61,184320,45
46,56,184365,45
44,64,184410,45
46,57,184455,45
44,66,184500,45
46,59,184545,45
44,68,184590,45
46,61,184635,45
44,70,184680,45
46,65,184725,45
44,73,184770,45
46,66,184815,45
44,72,184860,45
46,63,184906,45
44,69,184950,45
46,60,184995,46
44,66,185040,60
46,58,185100,60
43,64,185160,60
44,55,185220,60
49,68,185280,480
49,82,185760,240
40,61,186000,80
41,61,186080,80
42,61,186160,80
41,61,186240,45
42,56,186285,45
41,64,186330,45
42,57,186375,45
41,66,186420,45
42,59,186465,45
41,68,186510,45
42,61,186555,45
41,70,186600,45
42,65,186645,45
41,73,186690,45
42,66,186735,45
41,72,186780,45
42,63,186826,45
41,69,186870,45
42,60,186915,46
41,66,186960,60
42,58,187020,60
40,64,187080,60
41,55,187140,60
42,64,187200,480
41,49,187680,240
37,39,187920,240
34,32,188160,480
41,32,188160,480
46,39,188160,480
37,28,188640,480
42,34,188640,480
49,34,188640,480
34,32,189120,480
41,32,189120,480
46,39,189120,480
37,25,189600,480
42,31,189600,480
49,31,189600,480
34,32,190080,480
41,32,190080,480
46,39,190080,480
37,28,190560,480
42,28,190560,480
49,34,190560,480
34,32,191040,480
41,32,191040,480
46,39,191040,480
33,57,191520,360
45,73,191520,360
32,57,191880,120
44,73,191880,120
25,60,192000,480
37,76,192000,480
49,64,192480,360
56,64,192480,360
61,77,192480,360
63,77,192840,120
49,68,192960,360
56,68,192960,360
65,81,192960,360
66,81,193320,120
63,73,193440,360
56,73,193440,360
68,86,193440,360
65,85,193800,120
32,78,193920,480
44,92,193920,480
63,69,194400,360
66,69,194400,360
72,81,194400,360
61,64,194760,108
66,64,194760,108
70,76,194760,108
61,63,194880,360
66,63,194880,360
70,75,194880,360
60,59,195240,108
66,59,195240,108
68,70,195240,108
60,58,195360,360
66,58,195360,360
68,68,195360,360
57,63,195720,120
60,63,195720,120
63,74,195720,120
34,63,195840,480
46,75,195840,480
53,63,196320,480
58,63,196320,480
61,75,196320,480
37,68,196800,480
49,80,196800,480
65,76,197280,480
61,64,197280,480
58,64,197280,480
53,64,197280,480
29,77,197760,480
41,92,197760,480
53,69,198240,480
58,69,198240,480
61,69,198240,480
67,81,198240,480
53,64,198720,480
57,64,198720,480
60,64,198720,480
69,75,198720,480
53,81,199200,240
43,61,199440,80
44,61,199520,80
46,61,199600,80
44,61,199680,45
46,56,199725,45
44,64,199770,45
46,57,199815,45
44,66,199860,45
46,59,199905,45
44,68,199950,45
46,61,199995,45
44,70,200040,45
46,65,200085,45
44,73,200130,45
46,66,200175,45
44,72,200220,45
46,63,200266,45
44,69,200310,45
46,60,200355,46
44,66,200400,60
46,58,200460,60
43,64,200520,60
44,55,200580,60
49,68,200640,480
49,68,201120,240
40,61,201360,80
41,61,201440,80
42,61,201520,80
41,61,201600,45
42,56,201645,45
41,64,201690,45
42,57,201735,45
41,66,201780,45
42,59,201825,45
41,68,201870,45
42,61,201915,45
41,70,201960,45
42,65,202005,45
41,73,202050,45
42,66,202095,45
41,72,202140,45
42,63,202186,45
41,69,202230,45
42,60,202275,46
41,66,202320,60
42,58,202380,60
40,64,202440,60
41,55,202500,60
42,64,202560,480
41,47,203040,240
37,39,203280,240
34,32,203520,480
41,32,203520,480
46,39,203520,480
37,28,204000,480
42,34,204000,480
49,34,204000,480
34,32,204480,480
41,32,204480,480
46,39,204480,480
37,21,204960,480
42,26,204960,480
49,26,204960,480
34,26,205440,480
41,26,205440,480
46,31,205440,480
37,22,205920,480
42,22,205920,480
49,27,205920,475
34,20,206400,960
41,24,206400,960
