note,velocity,position,duration
30,111,1920,90
42,113,1920,74
30,105,2181,65
42,103,2183,49
30,115,2307,60
42,103,2307,54
30,109,2433,57
42,108,2433,48
59,109,2553,95
62,111,2676,90
64,105,2799,57
47,116,2924,142
62,93,2924,142
66,111,2924,142
54,83,3056,78
59,95,3173,70
62,89,3173,57
66,105,3173,63
54,90,3297,83
62,87,3297,63
66,101,3297,63
66,108,3413,78
59,93,3417,83
62,72,3431,28
54,93,3534,111
62,96,3545,127
67,124,3545,172
59,101,3660,74
62,106,3794,168
66,124,3794,168
45,116,3914,111
52,98,4041,74
62,92,4041,80
66,103,4041,63
57,98,4163,78
66,103,4169,58
62,96,4175,66
66,103,4284,90
52,96,4290,84
62,83,4296,53
57,99,4406,93
64,96,4416,152
61,76,4419,38
52,99,4529,103
61,97,4541,136
66,106,4544,181
57,105,4650,71
59,105,4778,172
62,114,4778,187
43,116,4902,120
59,88,5022,72
62,103,5022,63
50,89,5034,66
59,97,5147,64
62,93,5147,60
55,95,5151,81
50,97,5270,94
62,102,5270,75
59,95,5391,78
64,114,5399,70
50,93,5519,108
66,116,5525,160
55,105,5639,79
66,116,5760,218
62,105,5766,152
42,113,5880,125
49,92,6014,102
61,93,6015,72
64,102,6015,78
54,95,6138,111
61,95,6138,135
64,116,6144,171
49,93,6267,152
57,101,6390,80
59,108,6516,86
49,93,6522,84
54,93,6641,100
62,105,6641,81
49,93,6761,66
64,105,6761,58
66,118,6888,159
47,113,6896,133
62,96,6899,135
54,93,7013,88
66,92,7139,46
59,93,7143,77
62,82,7143,33
54,93,7262,90
66,105,7266,53
62,83,7274,34
59,96,7386,95
66,99,7392,75
62,72,7410,27
54,96,7512,102
62,91,7517,139
67,121,7517,175
59,102,7637,73
62,105,7761,173
66,118,7761,180
45,121,7872,107
66,108,8000,75
62,93,8006,76
52,101,8012,64
57,99,8133,81
66,108,8133,84
62,88,8144,60
52,98,8253,81
64,112,8256,89
57,101,8373,84
62,105,8378,90
52,93,8501,82
61,113,8501,166
57,102,8619,60
59,109,8753,220
62,118,8753,271
43,120,8871,140
50,89,9000,99
55,91,9135,72
50,80,9270,69
59,99,9395,58
62,106,9510,77
50,96,9524,61
64,109,9636,59
55,95,9644,72
67,119,9753,69
50,93,9759,54
43,121,9888,140
62,106,9888,119
66,124,9888,180
50,92,10022,82
55,89,10145,76
50,96,10268,73
59,95,10401,78
67,121,10401,78
79,121,10401,98
50,93,10529,97
55,102,10653,81
78,115,10781,399
66,119,10784,352
69,120,10784,382
47,121,10904,165
54,84,11039,112
59,88,11169,89
54,83,11294,109
62,88,11424,71
54,78,11544,105
59,82,11682,83
54,52,11813,60
47,79,11925,126
59,83,11946,96
54,72,12063,108
59,70,12200,96
66,91,12200,178
54,66,12306,114
59,75,12447,98
64,85,12447,233
54,68,12561,110
59,79,12695,118
62,84,12695,124
54,63,12813,119
47,83,12956,141
61,86,12956,355
54,72,13077,132
47,83,13214,97
54,78,13328,114
62,90,13341,324
47,73,13452,123
54,76,13575,131
47,82,13695,152
59,95,13707,152
54,77,13821,65
43,93,13934,225
59,91,13947,152
50,83,14063,99
55,71,14195,114
66,96,14195,213
50,80,14309,112
55,78,14442,125
64,92,14442,237
50,79,14558,114
55,78,14685,131
62,101,14685,114
50,75,14804,93
43,92,14931,885
61,99,14931,369
50,80,15056,108
55,76,15182,108
50,82,15297,120
62,97,15306,338
55,83,15432,101
50,83,15543,104
55,81,15672,128
59,95,15672,152
50,85,15789,53
38,111,15914,172
59,109,15924,150
45,90,16035,92
50,90,16163,105
66,102,16176,186
54,75,16299,113
64,97,16427,241
57,83,16436,85
54,77,16545,120
57,85,16670,135
62,99,16670,121
54,83,16797,98
50,97,16923,144
61,97,16926,363
54,70,17042,126
57,83,17174,106
54,83,17295,107
62,95,17295,345
57,88,17423,105
54,83,17540,106
57,91,17667,120
59,99,17667,140
54,87,17783,64
42,101,17918,189
59,105,17918,157
49,82,18045,108
54,93,18173,108
66,107,18173,195
49,85,18294,102
54,96,18417,108
64,111,18420,218
49,79,18548,85
54,93,18657,90
62,108,18665,114
49,72,18786,35
42,98,18909,30
54,95,18909,50
61,105,18909,339
42,96,19026,60
54,93,19026,63
42,97,19148,43
54,96,19148,60
42,109,19272,86
54,99,19272,59
59,111,19280,97
34,96,19632,185
46,105,19632,183
58,109,19632,183
35,99,20517,50
47,103,20517,57
47,96,20643,65
35,91,20648,55
33,97,20906,61
45,101,20906,60
33,86,21041,70
45,92,21047,58
31,103,21308,79
43,109,21308,81
47,85,22668,210
54,65,22814,106
78,81,22953,257
59,65,22968,96
54,76,23084,99
76,86,23214,255
62,50,23240,52
54,75,23325,113
59,75,23465,106
74,91,23469,237
54,66,23583,98
47,78,23708,177
73,85,23717,229
54,64,23835,96
71,89,23966,271
59,72,23967,99
54,70,24093,113
62,71,24222,89
73,89,24227,253
54,64,24345,161
59,72,24476,79
74,94,24488,97
76,101,24615,825
43,88,24738,323
50,67,24876,95
55,70,25001,94
50,75,25130,94
59,83,25260,78
50,73,25388,100
55,75,25505,109
74,94,25509,128
50,75,25637,78
73,103,25637,390
43,88,25761,366
50,71,25895,88
55,71,26018,97
50,74,26144,90
59,82,26282,69
50,78,26403,132
55,78,26522,70
61,83,26526,74
73,99,26526,60
74,111,26663,1096
62,101,26664,375
38,111,26774,240
45,80,26913,107
50,83,27039,114
54,79,27171,179
57,84,27311,106
62,87,27432,123
57,99,27561,138
54,78,27684,56
38,88,27819,159
45,73,27951,86
50,81,28070,103
74,105,28089,132
62,92,28094,111
54,72,28205,96
57,88,28341,111
62,99,28341,95
74,111,28341,132
54,79,28463,114
57,88,28596,63
76,111,28596,45
64,95,28604,51
73,120,28727,417
61,114,28730,400
42,103,28845,323
49,86,28980,110
54,89,29105,114
49,87,29228,124
57,90,29360,85
49,88,29480,90
54,87,29609,112
49,83,29729,82
42,101,29861,183
62,114,29861,186
71,106,29861,229
74,118,29861,246
49,88,30005,115
54,93,30128,118
49,90,30246,116
76,115,30390,164
57,93,30395,90
64,113,30395,109
73,102,30395,214
49,83,30530,111
54,93,30647,118
49,78,30774,107
43,111,30908,433
66,108,30908,559
74,109,30908,538
78,112,30908,525
50,88,31050,99
55,83,31173,96
50,85,31295,112
59,88,31433,78
50,86,31559,112
55,85,31686,113
50,83,31799,79
43,103,31931,375
59,109,31934,253
50,83,32060,97
55,80,32184,110
50,79,32307,104
62,114,32435,465
59,87,32442,81
50,83,32562,110
55,88,32688,116
50,90,32814,68
45,112,32946,263
61,112,32946,152
52,91,33069,195
57,93,33201,57
61,97,33332,73
57,98,33462,120
52,105,33582,146
49,95,33713,66
45,93,33836,120
33,122,33971,55
31,119,34529,133
38,116,34529,144
43,93,34662,72
50,97,34797,129
55,95,34926,68
59,105,35064,71
66,115,35064,162
74,113,35064,156
78,118,35064,191
55,93,35204,108
50,92,35318,114
55,96,35448,93
73,113,35580,201
76,123,35580,161
43,118,35588,238
64,112,35588,108
50,93,35714,97
55,91,35837,111
50,91,35961,95
59,97,36095,82
66,113,36095,76
74,111,36095,115
78,115,36095,166
50,88,36222,176
55,105,36342,72
69,119,36476,316
74,121,36476,357
81,120,36476,336
38,122,36594,246
45,96,36732,108
50,93,36867,138
54,92,36998,241
57,95,37137,107
62,96,37266,119
57,109,37389,149
54,93,37511,58
38,101,37638,164
45,90,37761,95
50,98,37890,111
64,106,37890,173
69,115,37890,168
76,119,37890,161
54,88,38036,94
62,112,38159,108
74,121,38159,136
57,98,38165,141
54,92,38295,116
57,105,38420,67
76,120,38426,55
64,113,38432,49
61,123,38559,1296
73,123,38559,1293
42,113,38675,172
49,93,38802,126
54,97,38939,130
49,97,39063,135
57,105,39198,81
49,95,39320,115
54,97,39452,114
49,88,39570,74
42,106,39696,150
49,88,39824,99
54,98,39950,136
61,111,39950,142
73,121,39950,165
49,92,40077,111
57,96,40212,81
62,113,40212,92
74,125,40212,138
49,93,40340,190
54,101,40458,72
64,113,40469,48
76,124,40469,54
78,124,40593,167
66,126,40596,179
30,119,40716,119
42,103,40835,61
58,108,40964,85
49,95,40973,100
61,91,41090,133
54,92,41102,87
64,103,41208,120
49,93,41217,99
66,107,41331,98
54,99,41334,71
49,99,41450,78
67,118,41456,81
54,106,41582,61
64,105,41582,75
42,103,41589,45
42,116,41709,120
54,120,41709,129
66,126,41709,164
42,113,41970,53
54,113,41975,48
66,125,41975,67
42,116,42101,90
54,118,42101,66
66,126,42101,114
30,111,42360,66
42,111,42363,54
66,118,42363,57
78,118,42363,62
30,113,42486,50
42,106,42486,50
66,112,42486,65
78,111,42486,68
30,106,42608,49
42,106,42608,49
66,108,42608,67
78,112,42608,70
30,125,42738,81
42,123,42738,83
66,120,42738,123
78,120,42738,119
59,112,43161,50
71,124,43161,59
74,123,43286,49
62,112,43289,46
76,123,43401,68
64,89,43412,57
35,119,43529,169
66,125,43529,156
78,124,43529,157
42,99,43649,105
47,108,43769,93
78,106,43773,86
66,108,43778,66
69,105,43782,56
51,95,43901,100
66,109,43901,70
78,110,43901,76
54,96,44027,93
66,107,44027,67
78,115,44027,73
59,103,44141,121
67,120,44154,71
79,123,44154,90
54,105,44270,67
66,119,44400,156
69,120,44400,176
78,115,44400,173
40,119,44526,107
33,119,44531,102
45,105,44652,87
66,110,44660,66
78,111,44660,67
49,90,44783,87
66,105,44786,61
78,110,44786,63
52,105,44904,87
66,96,44907,53
78,106,44907,59
57,101,45026,103
76,120,45035,63
64,113,45041,51
52,99,45156,146
78,123,45164,99
66,118,45168,99
49,105,45279,59
62,118,45410,174
67,121,45410,199
74,119,45410,184
31,122,45533,115
43,99,45659,64
74,108,45671,67
62,106,45678,60
50,99,45794,100
62,106,45794,66
74,118,45794,64
55,86,45917,61
62,102,45917,61
74,107,45917,64
59,102,46044,54
64,114,46044,62
76,121,46044,68
55,103,46169,132
66,120,46169,135
78,123,46169,139
50,114,46292,58
66,123,46415,154
69,119,46415,169
78,120,46415,166
30,127,46535,123
42,103,46661,63
64,111,46665,69
76,119,46665,81
48,95,46794,102
64,114,46794,201
69,121,46794,194
76,125,46794,162
54,105,46923,78
57,111,47058,68
59,106,47180,60
71,118,47180,49
54,109,47309,81
62,114,47309,64
74,123,47309,61
76,125,47435,63
64,108,47442,50
35,119,47562,150
66,121,47562,140
78,123,47562,150
42,99,47687,111
47,106,47798,93
66,105,47798,66
69,105,47798,66
78,102,47798,72
51,97,47927,102
66,110,47927,67
78,108,47927,73
54,105,48051,113
66,105,48051,69
78,112,48051,74
59,111,48177,120
67,118,48182,66
79,119,48182,88
54,105,48302,60
66,118,48429,158
69,116,48429,183
78,113,48429,173
33,119,48549,107
40,119,48549,117
45,103,48674,87
66,109,48689,64
78,106,48689,70
49,93,48806,94
66,111,48806,64
78,118,48806,67
52,112,48921,96
76,121,48933,63
64,113,48936,45
57,106,49050,107
74,124,49061,58
62,113,49067,43
52,101,49184,112
61,114,49187,91
73,123,49187,130
49,108,49308,78
62,118,49439,627
66,123,49439,592
74,124,49439,667
43,126,49566,168
50,96,49691,103
55,93,49823,82
50,97,49949,90
59,102,50079,65
50,102,50207,82
62,114,50208,60
74,123,50208,56
55,99,50324,108
76,125,50333,58
64,112,50339,49
50,99,50445,71
79,121,50451,50
67,119,50456,48
42,122,50583,185
66,126,50583,183
78,124,50583,168
49,97,50717,109
54,96,50844,117
49,93,50966,108
57,99,51098,75
66,118,51104,111
74,119,51104,102
62,112,51110,81
49,96,51236,109
54,93,51351,48
61,105,51365,67
73,109,51365,61
59,111,51495,225
62,120,51495,236
71,119,51495,212
31,115,51627,129
38,111,51627,143
43,105,51756,78
50,96,51890,118
55,108,52017,78
59,118,52143,71
71,126,52143,110
55,113,52268,76
66,112,52395,63
78,113,52395,63
76,125,52524,267
64,121,52530,227
33,116,52650,114
40,121,52650,120
45,103,52775,100
49,93,52914,104
69,118,52917,137
76,119,52917,149
64,111,52923,135
52,111,53042,303
62,116,53178,53
74,123,53178,56
61,121,53304,114
73,124,53304,113
57,112,53424,65
59,118,53562,194
62,121,53562,213
71,116,53562,267
35,122,53682,158
42,89,53817,111
47,103,53939,99
51,96,54071,108
54,99,54201,123
62,118,54201,108
67,124,54201,165
74,121,54201,168
59,111,54333,134
54,105,54462,62
76,120,54587,291
64,118,54593,315
69,124,54593,304
33,121,54725,114
40,118,54725,120
45,105,54851,87
49,97,54980,237
52,101,55109,117
57,111,55245,120
52,103,55371,132
49,101,55493,49
71,118,55499,60
59,113,55505,54
69,123,55623,74
57,109,55631,52
31,121,55754,126
59,121,55758,150
71,124,55758,161
43,111,55880,75
59,118,56031,119
71,126,56031,150
55,109,56150,93
71,126,56286,122
59,120,56292,69
55,116,56417,73
66,112,56550,53
78,116,56550,51
76,126,56684,565
64,120,56690,448
30,125,56822,63
42,116,56822,51
40,119,57018,41
52,123,57018,48
38,118,57185,60
50,118,57185,52
37,123,57354,72
49,125,57354,65
35,118,57537,63
47,121,57537,54
33,121,57731,72
45,126,57735,66
30,125,57972,387
42,126,57972,380
69,125,58125,197
74,126,58125,194
81,125,58125,197
67,121,58439,79
79,119,58439,106
31,119,58634,130
38,122,58634,144
67,125,58634,100
74,123,58634,138
79,123,58634,120
43,109,58761,69
50,102,58890,119
55,105,59033,76
66,126,59033,106
69,123,59033,141
78,116,59033,118
59,109,59165,73
55,98,59309,136
50,96,59433,107
55,99,59561,91
43,123,59696,198
59,118,59696,178
50,97,59822,105
55,87,59954,124
66,112,59954,219
50,96,60078,99
59,98,60206,79
64,118,60206,244
50,93,60333,99
55,89,60455,121
62,116,60465,117
50,90,60584,76
43,114,60705,908
61,114,60711,338
50,90,60828,98
55,89,60953,108
50,93,61071,110
62,114,61071,342
55,97,61205,108
50,101,61319,114
59,111,61446,162
55,92,61451,135
50,90,61568,67
35,109,61694,136
59,113,61694,159
42,94,61826,126
47,103,61956,102
66,111,61964,220
51,91,62085,113
54,88,62214,108
64,114,62214,239
59,92,62339,120
54,90,62460,132
62,116,62460,146
59,93,62586,93
61,108,62720,367
47,109,62723,144
51,83,62843,124
54,91,62969,115
51,90,63089,135
62,111,63096,332
54,97,63219,108
51,95,63332,126
59,109,63455,174
54,99,63458,147
51,92,63575,73
38,116,63714,183
59,105,63714,146
45,105,63833,105
50,99,63965,93
66,109,63975,194
54,87,64094,99
57,99,64220,118
64,116,64220,234
54,93,64344,116
62,109,64478,136
57,98,64479,146
54,88,64605,62
38,109,64728,357
61,111,64734,236
45,105,64854,110
50,99,64986,105
45,97,65108,105
62,112,65108,346
50,98,65229,107
45,99,65349,105
50,99,65472,138
59,106,65472,162
45,97,65594,54
59,112,65726,166
30,122,65732,142
42,99,65855,72
49,101,65990,115
66,112,65990,241
54,105,66123,84
49,89,66243,116
64,118,66255,230
54,99,66371,79
49,88,66492,110
62,112,66498,119
54,98,66627,56
42,103,66750,69
54,108,66750,65
61,112,66750,350
42,103,66876,56
54,101,66876,56
42,96,67001,45
54,98,67004,57
42,118,67127,139
54,114,67127,94
59,118,67127,141
34,118,67512,204
46,121,67512,200
58,121,67512,183
35,100,68438,61
47,112,68438,54
35,97,68576,75
47,109,68576,51
33,108,68834,57
45,116,68834,60
45,113,68973,71
33,103,68976,59
66,74,69342,621
69,87,69383,588
74,76,69410,549
78,64,69473,475
81,81,69491,465
90,91,69557,396
