note,velocity,position,duration
82,80,0,120
80,74,120,120
82,74,360,120
77,76,480,120
82,80,720,90
80,80,960,120
77,80,1080,120
75,74,1320,120
71,80,1440,480
68,80,2040,120
65,79,2160,120
63,84,2280,120
59,86,2400,480
56,80,3000,120
53,79,3120,120
51,84,3240,120
47,86,3360,240
55,97,3600,240
50,82,3600,240
51,40,5040,90
58,40,5040,90
58,57,5520,60
51,50,5520,60
58,64,5640,60
51,56,5640,60
51,40,6000,90
58,40,6000,90
51,40,6480,90
58,40,6480,90
58,57,6960,60
51,50,6960,60
58,64,7080,60
51,56,7080,60
51,40,7440,90
58,40,7440,90
51,32,7920,90
58,32,7920,90
51,29,8400,90
58,29,8400,90
70,80,8640,120
68,74,8760,120
59,45,8880,120
63,45,8880,120
70,74,9000,120
65,76,9120,120
59,45,9360,120
63,45,9360,120
70,80,9360,90
68,80,9600,120
65,80,9720,120
59,45,9840,90
63,74,9960,120
59,80,10080,120
59,72,10320,60
63,80,10320,60
58,80,10560,90
58,74,10680,120
60,74,10920,120
58,76,11040,120
63,68,11250,120
70,80,11280,90
58,80,11520,960
58,64,12480,120
56,57,12600,120
58,56,12840,120
60,64,12960,120
56,53,13200,90
58,64,13440,120
56,57,13560,120
58,56,13800,120
59,64,13920,120
56,53,14160,90
58,64,14400,120
56,59,14520,120
53,59,14760,90
51,61,14880,120
50,65,15120,120
48,71,15360,120
43,68,15600,120
48,76,15840,120
50,80,16080,120
70,80,16320,120
68,74,16440,120
59,45,16560,120
63,45,16560,120
70,74,16680,120
65,76,16800,120
59,45,17040,120
63,45,17040,120
70,80,17040,90
68,80,17280,120
65,80,17400,120
59,45,17520,90
63,74,17640,120
59,80,17760,120
59,72,18000,60
63,80,18000,60
58,80,18240,90
58,74,18360,120
60,74,18600,120
58,76,18720,120
63,68,18930,120
70,80,18960,90
58,80,19200,960
58,55,20160,90
58,49,20280,120
60,53,20520,120
58,61,20640,120
61,53,20880,90
63,64,21120,90
65,61,21360,90
63,65,21600,90
66,71,21840,90
65,80,22080,90
65,74,22200,120
67,74,22440,120
65,76,22560,210
67,68,22770,120
74,80,22800,90
70,85,23040,480
62,72,23040,480
82,90,23520,240
94,106,23520,240
60,54,24000,120
63,64,24000,120
62,48,24120,240
65,57,24120,240
63,47,24360,120
67,56,24360,120
62,54,24480,90
65,64,24480,90
60,45,24720,90
63,53,24720,90
65,53,24960,960
62,45,24960,960
94,64,25440,240
82,54,25440,240
60,54,25920,120
63,64,25920,120
62,48,26040,240
65,57,26040,240
63,47,26280,120
67,56,26280,120
62,54,26400,120
65,64,26400,120
60,45,26640,90
63,53,26640,90
65,53,26880,120
62,45,26880,120
60,53,27120,240
63,53,27120,240
62,53,27360,240
65,53,27360,240
67,53,27600,120
70,53,27600,120
72,53,27600,120
56,36,27840,1920
60,36,27840,1920
63,42,27840,1920
55,30,29760,960
60,30,29760,960
63,36,29760,960
46,65,30840,120
48,65,30960,120
50,67,31080,120
48,68,31200,120
46,62,31440,90
60,54,31680,120
63,64,31680,120
62,48,31800,240
65,57,31800,240
63,47,32040,120
67,56,32040,120
62,54,32160,90
65,64,32160,90
60,45,32400,90
63,53,32400,90
65,53,32640,960
62,45,32640,960
94,64,33120,240
82,54,33120,240
60,54,33600,120
63,64,33600,120
62,48,33720,240
65,57,33720,240
63,47,33960,120
67,56,33960,120
62,54,34080,120
65,64,34080,120
60,45,34320,90
63,53,34320,90
65,53,34560,120
62,45,34560,120
60,53,34800,240
63,53,34800,240
62,53,35040,240
65,53,35040,240
67,53,35280,120
70,53,35280,120
72,53,35280,120
71,60,35520,1440
75,60,35520,1440
82,80,35520,120
80,74,35640,120
82,74,35880,120
77,76,36000,120
82,80,36240,90
80,80,36480,120
77,80,36600,120
75,74,36840,120
71,80,36960,480
68,80,37560,120
65,79,37680,120
63,84,37800,120
59,86,37920,120
55,97,38160,240
50,82,38160,240
51,40,38640,90
58,40,38640,90
51,40,39120,90
58,40,39120,90
51,39,40560,90
58,39,40560,90
51,36,41040,90
58,36,41040,90
51,39,42480,90
58,39,42480,90
51,36,42960,90
58,36,42960,90
57,25,44340,60
61,30,44400,60
58,25,44400,60
57,25,44820,60
61,30,44880,60
58,25,44880,60
55,25,45300,60
56,28,45360,60
59,33,45360,60
56,25,45780,60
65,38,45840,60
60,38,45840,60
57,32,45840,60
57,25,46260,60
61,30,46320,60
58,25,46320,60
57,25,46740,60
61,30,46800,60
58,25,46800,60
55,25,47220,60
56,28,47280,60
59,33,47280,60
56,25,47700,60
65,38,47760,60
60,38,47760,60
57,32,47760,60
57,25,48180,60
61,30,48240,60
58,25,48240,60
57,25,49380,60
58,28,49440,60
61,33,49440,60
48,21,51300,60
47,22,51360,60
51,27,51360,60
57,25,52020,60
61,30,52080,60
58,25,52080,60
57,25,52500,60
61,30,52560,60
58,25,52560,60
55,25,52980,60
56,28,53040,60
59,33,53040,60
56,25,53460,60
65,38,53520,60
60,38,53520,60
57,32,53520,60
57,25,53940,60
61,30,54000,60
58,25,54000,60
57,25,54420,60
61,30,54480,60
58,25,54480,60
55,25,54900,60
56,28,54960,60
59,33,54960,60
56,25,55380,60
65,38,55440,60
60,38,55440,60
57,32,55440,60
57,25,55860,60
61,30,55920,60
58,25,55920,60
57,46,58080,1200
65,63,58560,720
64,68,59280,240
58,68,59280,240
63,49,59520,960
59,41,59520,960
74,25,59700,60
71,28,59760,60
75,33,59760,60
72,25,59940,60
71,28,60000,60
73,33,60000,60
74,25,60180,60
75,38,60240,60
71,38,60240,60
74,25,60660,60
71,28,60720,60
75,33,60720,60
72,25,60900,60
71,28,60960,60
73,33,60960,60
74,25,61140,60
75,38,61200,60
71,38,61200,60
57,46,61920,1440
65,63,62400,720
64,68,63120,240
63,49,63360,960
58,41,63360,960
74,25,63540,60
70,28,63600,60
75,33,63600,60
72,25,63780,60
70,28,63840,60
73,33,63840,60
74,25,64020,60
75,38,64080,60
70,38,64080,60
74,25,64500,60
70,28,64560,60
75,33,64560,60
72,25,64740,60
70,28,64800,60
73,33,64800,60
74,25,64980,60
75,38,65040,60
70,38,65040,60
69,50,65760,480
77,63,66240,240
80,74,66480,480
78,68,66960,240
70,57,67200,240
75,68,67200,120
78,74,67320,240
68,72,67440,240
77,68,67560,120
73,78,67680,480
66,66,67680,240
65,57,67920,240
63,48,68160,240
68,57,68160,120
71,61,68280,240
61,55,68400,240
70,57,68520,120
59,42,68640,1200
61,50,68640,480
58,42,68880,480
57,46,69600,960
65,63,70080,720
58,68,70560,480
64,68,70800,240
63,49,71040,960
59,41,71040,960
74,25,71220,60
71,28,71280,60
75,33,71280,60
72,25,71460,60
71,28,71520,60
73,33,71520,60
74,25,71700,60
75,38,71760,60
71,38,71760,60
57,46,72480,1440
65,63,72960,720
64,53,73680,240
63,49,73920,960
58,41,73920,960
74,25,74100,60
70,28,74160,60
75,33,74160,60
72,25,74340,60
70,28,74400,60
73,33,74400,60
74,25,74580,60
75,38,74640,60
70,38,74640,60
73,50,75360,480
81,63,75840,240
83,74,76080,480
82,68,76560,240
70,57,76800,240
77,68,76800,120
80,74,76920,240
68,72,77040,240
78,68,77160,120
75,78,77280,480
66,66,77280,240
65,57,77520,240
70,57,77760,120
73,61,77880,240
71,57,78120,120
65,50,78240,360
66,50,78600,120
54,31,78720,3840
59,31,78720,3840
63,31,78720,3840
70,43,81000,120
68,47,81120,240
70,41,81360,240
70,43,81960,120
68,47,82080,240
70,41,82320,240
54,31,82560,960
59,31,82560,2880
61,31,82560,2880
53,31,83520,1920
70,34,83880,120
68,39,84000,240
70,34,84240,240
70,33,84840,120
68,40,84960,240
70,32,85200,240
70,39,85440,120
68,34,85560,120
70,42,85800,120
65,45,85920,120
70,48,86160,90
68,39,86400,120
65,34,86520,120
63,42,86760,120
59,45,86880,120
63,48,87120,90
58,80,87360,90
58,74,87480,120
60,74,87720,120
58,76,87840,120
63,68,88050,120
70,80,88080,90
58,80,88320,960
58,64,89280,120
56,57,89400,120
58,56,89640,120
60,64,89760,90
56,53,90000,90
58,64,90240,120
56,57,90360,120
58,56,90600,120
59,64,90720,90
56,53,90960,90
58,64,91200,120
56,59,91320,120
53,59,91560,90
51,61,91680,120
50,65,91920,120
48,71,92160,120
43,68,92400,120
48,76,92640,120
50,80,92880,120
70,80,93120,120
68,74,93240,120
63,45,93360,120
59,45,93360,120
70,74,93480,120
65,76,93600,120
59,45,93840,120
63,45,93840,120
70,80,93840,90
68,80,94080,120
65,80,94200,120
59,45,94320,90
63,74,94440,120
59,80,94560,120
63,80,94800,60
59,72,94800,60
58,80,95040,90
58,74,95160,120
60,74,95400,120
58,76,95520,120
63,68,95730,120
70,80,95760,90
58,80,96000,960
58,55,96960,90
58,49,97080,120
60,53,97320,120
58,61,97440,90
61,53,97680,90
63,64,97920,90
65,61,98160,90
63,65,98400,90
66,71,98640,90
65,80,98880,90
65,74,99000,120
67,74,99240,120
65,76,99360,210
67,68,99570,120
74,80,99600,90
62,72,99840,480
70,85,99840,480
94,106,100320,240
82,90,100320,240
63,64,100800,120
60,54,100800,120
62,48,100920,240
65,57,100920,240
67,56,101160,120
63,47,101160,120
62,54,101280,90
65,64,101280,90
60,45,101520,90
63,53,101520,90
65,53,101760,960
62,45,101760,960
94,64,102240,240
82,54,102240,240
60,54,102720,120
63,64,102720,120
65,57,102840,240
62,48,102840,240
67,56,103080,120
63,47,103080,120
65,64,103200,90
62,54,103200,90
60,45,103440,90
63,53,103440,90
65,53,103680,120
62,45,103680,120
60,53,103920,240
63,53,103920,240
62,53,104160,240
65,53,104160,240
70,53,104400,120
72,53,104400,120
67,53,104400,120
57,36,104640,960
61,36,104640,960
64,42,104640,960
56,36,105600,960
60,36,105600,960
65,42,105600,960
55,30,106560,1920
58,36,106560,1920
53,30,106560,960
51,30,107520,960
48,69,107760,120
50,73,107880,120
48,76,108000,120
60,54,108480,120
63,64,108480,120
62,48,108600,240
65,57,108600,240
67,56,108840,120
63,47,108840,120
65,64,108960,90
62,54,108960,90
63,53,109200,90
60,45,109200,90
62,45,109440,960
65,53,109440,960
94,64,109920,240
82,54,109920,240
60,54,110400,120
63,64,110400,120
62,48,110520,240
65,57,110520,240
67,56,110760,120
63,47,110760,120
65,64,110880,90
62,54,110880,90
63,53,111120,90
60,45,111120,90
62,45,111360,120
65,53,111360,120
63,53,111600,240
60,53,111600,240
65,53,111840,240
62,53,111840,240
70,53,112080,120
67,53,112080,120
72,53,112080,120
71,60,112320,1440
82,80,112320,120
75,60,112320,1440
80,74,112440,120
82,74,112680,120
77,76,112800,120
82,80,113040,90
80,80,113280,120
77,80,113400,120
75,74,113640,120
71,80,113760,480
68,80,114360,120
65,79,114480,120
63,84,114600,120
59,86,114720,120
55,97,114960,240
50,82,114960,240
58,40,115440,90
51,40,115440,90
58,40,115920,90
51,40,115920,90
51,33,117360,90
58,33,117360,90
51,30,117840,90
58,30,117840,90
58,28,119280,90
51,28,119280,90
58,25,119760,90
51,25,119760,90
47,70,120480,240
46,75,120720,66
44,77,120780,66
43,79,120840,66
41,81,120900,66
51,85,120960,240
51,89,121920,240
70,68,0,120
68,62,120,120
70,62,360,120
65,64,480,120
70,68,720,90
68,68,960,120
65,68,1080,120
63,62,1320,120
59,68,1440,480
56,65,2040,120
53,65,2160,120
51,67,2280,120
47,71,2400,480
44,65,3000,120
41,65,3120,120
39,67,3240,120
35,71,3360,240
46,78,3600,240
34,66,3600,240
39,40,4800,90
46,40,4800,90
55,33,5040,90
53,33,5040,90
39,40,5280,90
46,40,5280,90
55,35,5520,90
53,35,5520,90
39,40,5760,90
46,40,5760,90
55,33,6000,90
53,33,6000,90
39,40,6240,90
46,40,6240,90
55,33,6480,90
53,33,6480,90
39,40,6720,90
46,40,6720,90
55,35,6960,90
53,35,6960,90
39,40,7200,90
46,40,7200,90
55,33,7440,90
53,33,7440,90
39,34,7680,90
46,34,7680,90
55,27,7920,90
53,27,7920,90
39,31,8160,90
46,31,8160,90
55,24,8400,90
53,24,8400,90
39,40,8640,90
46,40,8640,90
56,33,8880,90
53,33,8880,90
39,40,9120,90
46,40,9120,90
56,35,9360,90
53,35,9360,90
39,40,9600,90
46,40,9600,90
56,33,9840,90
53,33,9840,90
39,40,10080,90
46,40,10080,90
56,33,10320,90
53,33,10320,90
39,34,10560,90
46,40,10560,90
55,33,10800,90
53,28,10800,90
46,47,11040,90
39,39,11040,90
53,34,11280,90
55,41,11280,90
46,50,11520,90
39,42,11520,90
53,34,11760,90
55,40,11760,90
46,43,12000,90
39,36,12000,90
53,29,12240,90
55,35,12240,90
39,40,12480,90
46,40,12480,90
53,33,12720,90
51,33,12720,90
39,40,12960,90
46,40,12960,90
53,35,13200,90
51,35,13200,90
39,40,13440,90
46,40,13440,90
53,33,13680,90
51,33,13680,90
39,40,13920,90
46,40,13920,90
53,35,14160,90
51,35,14160,90
46,54,14400,120
44,50,14520,120
41,50,14760,90
39,51,14880,120
38,55,15120,120
36,60,15360,120
31,57,15600,120
36,64,15840,120
38,68,16080,120
39,40,16320,90
46,40,16320,90
56,33,16560,90
53,33,16560,90
39,40,16800,90
46,40,16800,90
56,35,17040,90
53,35,17040,90
39,40,17280,90
46,40,17280,90
56,33,17520,90
53,33,17520,90
39,40,17760,90
46,40,17760,90
56,33,18000,90
53,33,18000,90
39,34,18240,90
46,40,18240,90
55,33,18480,90
53,28,18480,90
46,47,18720,90
39,39,18720,90
53,34,18960,90
55,41,18960,90
46,50,19200,90
39,42,19200,90
53,34,19440,90
55,40,19440,90
46,43,19680,90
39,36,19680,90
53,29,19920,90
55,35,19920,90
42,34,20160,90
49,40,20160,90
49,28,20400,60
56,33,20400,90
54,28,20400,90
42,34,20640,90
49,40,20640,90
49,29,20880,60
57,35,20880,90
54,29,20880,90
49,43,21120,90
42,36,21120,90
54,31,21360,90
58,37,21360,90
49,31,21360,60
49,45,21600,90
42,38,21600,90
54,35,21840,90
59,42,21840,90
49,35,21840,60
64,67,22320,120
61,42,22320,90
60,57,22560,240
63,64,22560,240
63,58,22800,90
57,49,22800,90
53,49,22800,60
53,62,23040,240
58,73,23040,240
46,62,23040,240
34,60,23520,240
46,71,23520,240
56,40,24000,90
58,40,24000,90
70,33,24240,90
68,33,24240,90
56,40,24480,90
58,40,24480,90
70,35,24720,90
68,35,24720,90
56,40,24960,90
58,40,24960,90
70,33,25200,90
68,33,25200,90
56,40,25440,90
58,40,25440,90
70,35,25680,90
68,35,25680,90
55,40,25920,90
58,40,25920,90
70,33,26160,90
55,40,26400,90
58,40,26400,90
70,35,26640,90
55,40,26880,120
58,40,26880,120
70,33,27120,90
55,40,27360,240
58,40,27360,240
63,35,27600,90
46,44,27840,120
48,39,27960,120
50,39,28200,120
48,44,28320,120
46,37,28560,90
46,44,28800,120
48,39,28920,120
50,39,29160,120
48,44,29280,120
46,37,29520,90
46,37,29760,120
48,33,29880,120
50,33,30120,120
48,37,30240,120
46,31,30480,90
34,65,30840,120
36,65,30960,120
38,67,31080,120
36,68,31200,120
22,55,31440,90
34,62,31440,90
56,40,31680,90
58,40,31680,90
70,33,31920,90
68,33,31920,90
56,40,32160,90
58,40,32160,90
70,35,32400,90
68,35,32400,90
56,40,32640,90
58,40,32640,90
70,33,32880,90
68,33,32880,90
56,40,33120,90
58,40,33120,90
70,35,33360,90
68,35,33360,90
55,40,33600,90
58,40,33600,90
67,33,33840,90
70,33,33840,90
55,40,34080,90
58,40,34080,90
67,33,34320,90
70,35,34320,90
55,40,34560,120
58,40,34560,120
67,33,34800,90
70,33,34800,90
55,40,35040,240
58,40,35040,240
63,35,35280,90
59,51,35520,1440
63,51,35520,1440
70,68,35520,120
68,62,35640,120
70,62,35880,120
65,64,36000,120
70,68,36240,90
68,68,36480,120
65,68,36600,120
63,62,36840,120
59,68,36960,480
56,65,37560,120
53,65,37680,120
51,67,37800,120
47,71,37920,120
46,78,38160,240
34,66,38160,240
55,33,38640,90
53,33,38640,90
39,40,38880,90
46,40,38880,90
55,33,39120,90
53,33,39120,90
39,34,39360,480
46,40,39360,480
55,32,40560,90
53,32,40560,90
39,38,40800,90
46,38,40800,90
55,29,41040,90
53,29,41040,90
39,29,41280,480
46,34,41280,480
55,32,42480,90
53,32,42480,90
39,38,42720,90
46,38,42720,90
55,30,42960,90
53,30,42960,90
39,34,43200,480
41,34,43680,480
42,30,44160,120
49,30,44160,1920
42,29,44640,120
42,30,45120,120
42,29,45600,120
51,24,46020,60
42,30,46080,120
49,30,46080,1920
42,29,46560,120
42,30,47040,120
42,29,47520,120
49,30,48000,1920
42,29,48240,120
41,29,48480,120
39,29,48720,120
37,37,48960,240
42,29,50160,120
41,29,50400,120
39,29,50640,120
37,37,50880,120
35,32,51120,120
34,30,51360,120
32,30,51600,120
42,30,51840,120
49,30,51840,1920
42,29,52320,120
42,30,52800,120
42,29,53280,120
51,24,53700,60
42,30,53760,120
49,30,53760,1920
42,29,54240,120
42,30,54720,120
42,29,55200,120
49,30,55680,2160
42,29,55920,120
41,29,56160,120
39,29,56400,120
37,37,56640,240
39,37,57840,240
41,41,58080,240
42,38,58320,240
45,49,58560,240
46,42,58800,240
47,55,59040,240
48,46,59280,240
49,29,59520,960
44,24,59520,960
56,29,59760,60
59,29,59760,60
65,29,59760,60
56,29,60000,60
59,29,60000,60
65,29,60000,60
59,29,60240,60
56,29,60240,60
65,29,60240,60
56,29,60720,60
59,29,60720,60
65,29,60720,60
56,29,60960,60
59,29,60960,60
65,29,60960,60
59,29,61200,60
56,29,61200,60
65,29,61200,60
49,29,62400,1920
42,24,63360,960
58,29,63600,60
61,29,63600,60
66,29,63600,60
58,29,63840,60
61,29,63840,60
66,29,63840,60
61,29,64080,60
58,29,64080,60
66,29,64080,60
58,29,64560,60
61,29,64560,60
66,29,64560,60
58,29,64800,60
61,29,64800,60
66,29,64800,60
61,29,65040,60
58,29,65040,60
66,29,65040,60
57,42,65760,480
65,53,66240,240
68,62,66480,480
66,57,66960,240
49,29,67200,960
65,49,67440,240
56,41,67440,720
59,41,67440,720
63,49,67680,240
61,41,67920,240
54,41,68160,240
59,34,68160,720
53,41,68400,240
51,36,68640,240
49,34,68880,480
42,29,69120,960
49,34,69360,480
49,34,69840,480
43,29,70080,960
49,42,70320,720
49,29,71040,960
44,24,71040,960
56,29,71280,60
59,29,71280,60
66,29,71280,60
56,29,71520,60
59,29,71520,60
65,29,71520,60
59,29,71760,60
56,29,71760,60
63,29,71760,60
54,34,72240,240
53,34,72480,240
51,34,72720,720
48,32,73440,480
49,29,73920,960
42,24,73920,960
58,29,74160,60
61,29,74160,60
66,29,74160,60
58,29,74400,60
61,29,74400,60
65,29,74400,60
61,29,74640,60
58,29,74640,60
63,29,74640,60
61,42,75360,480
69,53,75840,240
71,62,76080,480
70,57,76560,240
47,29,76800,960
59,41,77040,720
63,49,77040,720
56,30,77040,720
54,30,77040,720
63,41,77760,240
61,41,78000,240
59,36,78240,160
58,36,78400,160
56,36,78560,160
46,31,78720,120
49,41,78840,240
47,37,79080,120
37,31,79200,600
39,33,79800,240
41,27,80040,120
39,34,80160,240
37,31,80400,2160
46,31,82560,120
49,41,82680,240
47,37,82920,120
37,31,83040,120
39,30,83160,240
41,33,83400,120
39,30,83520,240
37,27,83753,1680
39,34,87360,90
46,40,87360,90
55,33,87600,90
53,28,87600,90
46,47,87840,90
39,39,87840,90
53,34,88080,90
55,41,88080,90
46,50,88320,90
39,42,88320,90
53,34,88560,90
55,40,88560,90
46,43,88800,90
39,36,88800,90
53,29,89040,90
55,35,89040,90
39,40,89280,90
46,40,89280,90
53,33,89520,90
51,33,89520,90
39,40,89760,90
46,40,89760,90
53,35,90000,90
51,35,90000,90
39,40,90240,90
46,40,90240,90
53,33,90480,90
51,33,90480,90
39,40,90720,90
46,40,90720,90
53,35,90960,90
51,35,90960,90
46,54,91200,120
44,50,91320,120
41,50,91560,90
39,51,91680,120
38,55,91920,120
36,60,92160,120
31,57,92400,120
36,64,92640,120
38,68,92880,120
39,40,93120,90
46,40,93120,90
56,33,93360,90
53,33,93360,90
39,40,93600,90
46,40,93600,90
56,35,93840,90
53,35,93840,90
39,40,94080,90
46,40,94080,90
56,33,94320,90
53,33,94320,90
39,40,94560,90
46,40,94560,90
56,33,94800,60
53,33,94800,60
39,34,95040,90
46,40,95040,90
55,33,95280,90
53,28,95280,90
46,47,95520,90
39,39,95520,90
53,34,95760,90
55,41,95760,90
46,50,96000,90
39,42,96000,90
53,34,96240,90
55,40,96240,90
46,43,96480,90
39,36,96480,90
53,29,96720,90
55,35,96720,90
42,34,96960,90
49,40,96960,90
49,28,97200,60
56,33,97200,90
54,28,97200,90
42,34,97440,90
49,40,97440,90
49,29,97680,60
57,35,97680,90
54,29,97680,90
49,43,97920,90
42,36,97920,90
54,31,98160,90
58,37,98160,90
49,31,98160,60
49,45,98400,90
42,38,98400,90
54,35,98640,90
59,42,98640,90
49,35,98640,60
64,67,99120,120
61,42,99120,90
60,57,99360,240
63,64,99360,240
63,58,99600,90
57,49,99600,90
53,49,99600,60
53,62,99840,240
58,73,99840,240
46,62,99840,240
34,60,100320,240
46,71,100320,240
56,40,100800,90
58,40,100800,90
70,33,101040,90
68,33,101040,90
56,40,101280,90
58,40,101280,90
70,35,101520,90
68,35,101520,90
56,40,101760,90
58,40,101760,90
70,33,102000,90
68,33,102000,90
56,40,102240,90
58,40,102240,90
70,35,102480,90
68,35,102480,90
55,40,102720,90
58,40,102720,90
70,33,102960,90
55,40,103200,90
58,40,103200,90
70,35,103440,90
55,40,103680,120
58,40,103680,120
70,33,103920,90
55,40,104160,240
58,40,104160,240
63,35,104400,90
47,44,104640,120
49,39,104760,120
51,39,105000,120
49,44,105120,120
47,37,105360,90
46,44,105600,120
48,39,105720,120
50,39,105960,120
48,44,106080,120
46,37,106320,90
46,37,106560,120
48,33,106680,120
50,33,106920,120
48,37,107040,120
46,31,107280,90
46,70,107640,120
34,70,107640,120
36,70,107760,120
38,73,107880,120
36,78,108000,120
22,74,108240,90
34,83,108240,90
56,40,108480,90
58,40,108480,90
70,33,108720,90
68,33,108720,90
56,40,108960,90
58,40,108960,90
70,35,109200,90
68,35,109200,90
56,40,109440,90
58,40,109440,90
70,33,109680,90
68,33,109680,90
56,40,109920,90
58,40,109920,90
70,35,110160,90
68,35,110160,90
55,40,110400,90
58,40,110400,90
67,33,110640,90
70,33,110640,90
55,40,110880,90
58,40,110880,90
67,33,111120,90
70,35,111120,90
55,40,111360,120
58,40,111360,120
67,33,111600,90
70,33,111600,90
55,40,111840,240
58,40,111840,240
63,35,112080,90
59,51,112320,1440
63,51,112320,1440
70,68,112320,120
68,62,112440,120
70,62,112680,120
65,64,112800,120
70,68,113040,90
68,68,113280,120
65,68,113400,120
63,62,113640,120
59,68,113760,480
56,65,114360,120
53,65,114480,120
51,67,114600,120
47,71,114720,120
46,78,114960,240
34,66,114960,240
55,33,115440,90
53,33,115440,90
39,40,115680,90
46,40,115680,90
55,33,115920,90
53,33,115920,90
39,34,116160,480
46,40,116160,480
55,27,117360,90
53,27,117360,90
39,32,117600,90
46,32,117600,90
55,24,117840,90
53,24,117840,90
39,24,118080,480
46,28,118080,480
55,22,119280,90
53,22,119280,90
39,27,119520,90
46,27,119520,90
55,21,119760,90
53,21,119760,90
35,59,120480,240
34,63,120720,66
32,65,120780,66
31,67,120840,66
29,68,120900,66
27,61,120960,240
39,72,120960,240
27,62,121920,240
39,74,121920,240
