note,velocity,position,duration
64,36,1628,174
71,38,1717,138
76,49,1771,112
71,29,2821,153
83,25,2826,126
81,31,3946,1096
69,26,3949,1224
64,36,6481,143
71,37,6549,124
76,51,6606,72
83,37,7575,109
71,34,7579,113
69,35,8695,1436
78,26,8702,1369
66,15,8707,1329
64,34,11238,177
71,55,11295,268
76,45,11360,278
83,52,12358,150
71,38,12364,133
69,38,13399,1158
81,46,13406,1050
64,36,15862,196
71,40,15935,263
76,36,15995,275
83,30,17061,126
71,28,17065,114
78,20,18350,723
66,15,18366,758
66,31,22249,292
67,42,22978,347
71,38,23673,70
66,27,24343,2185
62,35,24355,2169
66,37,27037,1142
62,36,27057,1175
69,40,28369,1607
67,48,29966,2043
78,41,33130,262
66,39,33137,179
79,61,33762,198
67,49,33768,192
71,20,34447,233
83,66,34448,232
66,24,35040,944
69,42,35117,867
78,46,35183,919
86,85,36457,365
74,53,36470,277
76,30,37781,604
83,37,37856,563
88,78,37935,425
67,40,39283,285
69,34,39975,221
71,36,40693,2756
64,33,40711,2592
66,40,44534,130
78,46,44535,153
67,44,44920,158
79,44,44922,158
66,45,45295,289
78,51,45297,271
76,68,46018,116
64,57,46029,110
62,52,46381,94
74,56,46381,61
59,43,46686,567
64,51,46753,490
71,48,46835,295
67,45,47553,398
66,39,48292,287
64,28,49170,581
78,81,50827,156
66,50,50840,104
79,80,51217,86
67,55,51225,56
78,77,51612,224
66,65,51617,248
76,74,52374,105
64,65,52377,113
74,81,52752,115
62,56,52762,82
67,65,53167,474
76,66,53167,420
64,51,53174,470
67,49,53937,335
66,40,54717,384
67,40,55355,88
66,42,55433,136
64,63,55552,1027
78,72,57247,184
66,65,57249,150
79,97,57638,94
67,82,57646,69
78,93,58032,185
66,84,58034,206
64,55,58698,295
69,65,58745,208
76,92,58802,182
74,86,59192,108
62,59,59211,80
59,39,59570,669
64,58,59646,525
71,63,59701,392
64,20,60480,474
67,56,60487,809
66,58,61297,528
59,43,61312,440
64,50,62170,198
78,81,63876,195
66,68,63882,133
79,84,64275,87
67,74,64284,82
69,73,64685,319
78,81,64689,291
66,77,64690,347
64,49,65412,186
69,63,65462,151
76,86,65516,134
74,89,65893,108
62,70,65899,75
76,38,66348,888
67,57,66353,847
64,42,66359,777
83,38,67251,888
76,57,67257,847
71,42,67263,776
66,22,68251,560
64,25,69340,3311
78,48,80339,271
66,32,80347,215
79,68,81075,215
67,56,81089,119
83,71,81835,98
71,49,81847,49
78,41,82563,2213
69,43,82568,2216
66,26,82576,2222
66,21,85188,1280
69,37,85260,1170
74,44,85320,1139
78,66,85377,1136
81,79,86763,785
69,56,86764,909
67,40,88163,2821
71,48,88234,2811
79,88,88287,2660
78,62,92026,204
66,54,92028,171
79,72,92745,190
67,59,92756,105
83,85,93479,83
71,59,93486,39
66,24,94072,799
69,45,94134,791
78,63,94207,865
86,88,95628,933
79,73,95634,901
74,67,95639,865
76,37,97019,465
79,59,97076,421
88,104,97139,301
79,49,97979,476
67,43,98000,368
79,44,98772,353
67,35,98790,248
81,68,99545,107
69,56,99552,79
71,28,100261,3040
74,47,100293,3057
83,43,100374,2904
78,75,104170,169
66,73,104170,137
79,89,104537,117
67,69,104546,85
66,65,104908,299
78,70,104911,278
64,50,105543,211
69,70,105588,168
76,90,105631,159
74,87,106017,125
62,49,106037,142
59,55,106440,1168
71,78,106440,793
67,42,107245,282
66,42,108004,187
64,35,108808,298
78,81,110311,149
66,66,110323,118
79,97,110669,94
67,69,110681,58
78,84,111008,161
66,70,111016,159
64,51,111661,152
69,58,111702,116
76,100,111746,99
74,100,112093,101
62,74,112098,66
76,84,112479,358
67,78,112483,382
64,71,112486,379
67,80,113174,320
64,63,113187,365
62,76,113904,316
66,79,113906,391
64,92,114678,467
78,95,116230,130
66,88,116231,100
79,107,116604,87
67,100,116606,37
69,87,116987,211
78,96,116989,229
66,91,116989,260
64,84,117642,124
69,73,117677,104
76,105,117716,95
74,106,118078,72
62,92,118085,42
71,107,118457,321
59,101,118458,438
64,90,118464,367
67,103,119186,725
59,76,119204,352
66,94,119903,408
67,62,120445,115
66,69,120523,137
64,102,120624,446
78,98,122122,184
66,89,122127,148
79,104,122481,113
67,93,122487,96
78,93,122856,207
66,84,122858,217
69,80,122861,210
64,58,123479,200
69,68,123521,169
76,99,123567,146
74,91,123936,122
62,72,123943,60
67,60,124330,404
76,59,124331,405
64,56,124339,327
67,34,125087,258
66,18,125907,407
64,19,126943,251
64,33,128613,173
71,39,128694,128
76,68,128747,70
83,32,129657,131
71,27,129658,155
69,29,130592,974
81,34,130593,858
64,34,133301,172
71,43,133361,179
76,51,133405,165
83,44,134271,124
71,31,134281,90
78,25,135240,1181
69,26,135253,1235
66,13,135279,1233
64,31,137788,125
71,44,137845,139
76,37,137887,139
83,41,138815,159
71,37,138819,191
81,37,139828,680
69,26,139837,832
64,36,142535,163
71,40,142596,162
76,55,142662,140
83,27,143761,298
71,25,143775,293
78,26,145084,1213
66,21,145109,1011
79,39,147882,6156
67,33,147901,6137
52,20,1515,3684
59,30,1578,3628
50,21,6359,3671
57,26,6417,3482
52,26,11110,3609
59,32,11189,3422
50,25,15720,3705
57,31,15769,3846
52,43,21507,1623
59,19,22240,734
55,39,22974,736
59,32,23665,102
50,28,24354,1492
59,27,25034,664
54,14,25702,874
59,30,26388,138
48,38,27063,1425
57,31,27735,661
52,38,28382,1121
57,47,29140,295
52,28,29985,1979
59,30,30634,595
55,39,31240,832
59,50,31849,175
52,33,32495,1964
55,40,33125,625
59,31,33772,724
55,35,34458,146
50,38,35178,2183
59,31,35807,666
54,25,36474,702
59,32,37177,183
48,55,37937,2210
55,36,38624,651
52,27,39302,889
55,28,39984,147
52,32,40706,2425
59,22,41405,682
55,19,42099,993
59,23,42911,161
48,30,43749,595
55,31,44163,639
60,36,44546,153
48,28,45303,439
55,36,45651,535
60,43,46024,52
40,40,46818,606
47,21,47194,330
52,28,47566,291
55,29,47907,684
50,55,50024,1044
57,44,50435,412
62,45,50844,183
50,40,51629,416
57,41,51987,505
62,47,52374,55
48,52,53182,2785
55,43,53559,2379
60,32,54326,1440
36,95,56405,821
43,73,56839,396
48,76,57246,190
55,60,57638,401
60,78,58042,229
55,59,58411,150
48,72,58810,188
50,49,59199,88
40,59,59674,758
47,29,60117,360
52,29,60500,376
55,43,60886,1285
45,78,63042,411
38,91,63043,388
50,81,63473,401
54,56,63877,535
57,51,64284,242
50,57,64689,507
54,30,65088,498
57,50,65498,74
48,37,66362,3385
55,27,66794,3089
60,33,67253,2486
52,38,70388,3360
59,25,71373,908
57,27,72292,1559
52,68,74518,2548
59,23,75479,1107
54,27,76520,1337
52,46,79502,1674
59,33,80346,757
55,48,81093,856
59,41,81848,99
50,48,82574,2192
59,30,83280,684
54,25,83948,870
59,32,84630,151
48,40,85382,2267
57,29,86063,678
52,38,86776,958
57,36,87519,98
52,37,88296,2154
59,27,88996,659
55,31,89681,701
59,62,90388,301
52,39,90775,44
40,63,91234,722
47,31,91650,357
52,43,92031,366
55,29,92391,342
59,39,92765,523
64,44,93119,69
50,44,94215,1635
59,43,94938,720
54,38,95649,1027
59,37,96395,134
48,75,97149,1884
55,38,97608,1712
60,31,98784,345
52,42,100370,1840
59,27,101121,765
55,42,101837,383
59,70,102623,250
52,59,103008,406
48,93,103406,926
55,63,103800,771
60,32,104181,223
48,66,104912,618
55,54,105267,513
60,49,105621,74
40,88,106438,776
47,19,106882,367
52,35,107242,338
55,33,107604,232
38,63,109585,518
45,58,109941,213
50,47,110321,355
54,33,110683,358
57,54,111028,140
62,62,111368,34
48,64,112488,1851
55,52,112838,1841
60,51,113533,215
43,99,115453,371
36,103,115456,352
48,84,115849,122
55,79,116251,175
60,73,116603,68
48,67,117009,363
55,88,117353,211
60,82,117694,44
40,88,118460,564
47,38,118827,344
52,56,119187,317
55,48,119535,353
59,61,119909,315
55,56,120249,399
52,27,120630,330
45,102,121381,361
38,114,121385,349
50,72,121763,366
54,41,122130,431
57,52,122485,375
62,75,122868,271
57,59,123212,385
50,84,123577,35
52,59,124337,806
59,28,124732,942
52,8,128543,3229
59,22,128603,3087
50,26,133206,3539
57,31,133229,3403
52,25,137632,3680
59,28,137724,3565
50,21,142400,4283
57,25,142466,4107
52,29,147898,6156
59,29,147919,6129
