note,velocity,position,duration
69,50,1446,222
72,49,1682,223
53,46,1922,967
60,46,1922,967
64,60,1922,967
76,49,1922,1443
55,44,2889,951
62,58,2889,951
71,50,3365,223
72,49,3602,223
57,46,3842,967
64,60,3842,967
74,49,3842,1443
55,44,4809,951
62,58,4809,951
79,64,5285,223
71,63,5522,223
53,46,5762,967
60,46,5762,967
64,60,5762,967
69,55,5762,1443
55,44,6729,951
62,58,6729,951
74,61,7205,475
57,46,7682,967
64,60,7682,967
67,49,7682,1443
55,44,8649,951
62,58,8649,951
69,50,9125,223
72,49,9362,223
41,46,9602,967
48,46,9602,967
57,60,9602,967
67,41,9602,1443
76,55,9602,1443
43,44,10569,951
50,44,10569,951
59,58,10569,951
71,42,11045,223
83,56,11045,237
72,41,11282,223
84,55,11282,238
45,46,11522,967
52,46,11522,967
60,60,11522,967
74,54,11522,492
72,50,12014,951
43,44,12489,951
50,44,12489,951
59,58,12489,951
67,55,12965,223
79,69,12965,237
74,62,13202,478
41,46,13442,967
48,46,13442,967
57,60,13442,967
72,52,13696,1189
43,44,14409,951
50,44,14409,951
59,58,14409,951
69,42,14885,223
81,56,14885,237
74,41,15122,479
86,55,15122,493
45,46,15362,967
52,46,15362,967
60,60,15362,967
72,41,15615,1665
84,55,15615,1665
43,44,16329,951
50,44,16329,951
59,58,16329,951
45,54,17282,239
52,49,17536,223
57,50,17774,222
60,41,18011,589
64,51,18011,589
69,55,18726,222
81,69,18726,236
76,54,18962,238
88,68,18962,238
41,66,19202,239
76,59,19202,728
79,70,19202,728
88,65,19202,728
48,61,19456,224
53,62,19694,222
57,61,19930,225
76,54,19930,110
88,68,19930,117
71,54,20047,835
83,68,20047,835
43,64,20170,224
50,61,20409,222
55,62,20646,222
59,61,20882,223
69,54,20882,109
81,68,20882,116
72,54,20998,1567
84,68,20998,1567
45,66,21122,239
52,61,21376,224
57,62,21614,222
52,61,21851,224
45,56,22090,224
60,70,22090,238
52,61,22328,223
59,62,22565,223
69,55,22565,223
81,69,22565,237
52,61,22802,223
76,54,22802,238
88,68,22802,238
41,66,23042,239
76,59,23042,728
79,70,23042,728
88,65,23042,728
48,61,23296,224
53,62,23534,222
57,61,23770,225
76,54,23770,110
88,68,23770,117
71,54,23887,835
83,68,23887,835
43,64,24010,224
50,61,24249,222
55,62,24486,222
59,61,24722,223
72,54,24722,109
84,68,24722,116
67,54,24838,1567
79,68,24838,1567
45,66,24962,239
52,61,25216,224
60,62,25454,222
52,61,25691,224
59,64,25930,224
52,61,26169,236
45,54,26346,554
52,54,26366,39
57,68,26405,475
67,55,26405,223
79,65,26405,237
76,75,26642,109
67,54,26759,1566
79,64,26759,1566
41,60,26882,239
48,55,27136,224
57,56,27374,222
60,55,27611,224
43,50,27850,224
59,64,27850,238
50,55,28088,223
55,56,28325,223
74,55,28325,223
86,69,28325,237
59,55,28562,223
84,62,28562,109
74,54,28679,851
86,64,28679,851
45,61,28802,239
52,56,29056,224
45,49,29294,222
60,63,29294,236
52,56,29530,225
84,62,29530,110
81,62,29647,1073
59,59,29770,224
52,56,30009,236
45,49,30206,1048
52,49,30206,39
57,59,30245,969
71,67,30722,492
41,42,31214,1426
48,42,31214,1426
57,56,31214,1426
62,55,31214,951
64,55,31214,951
69,69,31214,951
79,63,32165,475
45,42,32642,2878
52,42,32642,2878
60,56,32642,2878
67,54,32642,2878
71,54,32642,2878
76,64,32642,2878
76,68,36006,222
88,82,36006,236
74,67,36242,238
86,81,36242,238
29,60,36482,239
41,78,36482,253
74,72,36482,239
79,72,36482,239
86,86,36482,253
48,61,36735,225
72,67,36735,239
84,81,36735,239
53,62,36974,222
72,68,36974,222
84,82,36974,236
57,61,37210,225
79,67,37210,225
91,81,37210,239
31,59,37449,225
43,76,37449,239
72,70,37449,476
76,70,37449,476
84,84,37449,476
50,61,37688,223
55,62,37925,223
71,68,37925,223
83,82,37925,237
59,61,38162,223
72,67,38162,1207
84,81,38162,1207
45,66,38402,239
52,61,38656,224
45,54,38894,222
60,68,38894,236
52,61,39130,225
59,64,39369,225
74,78,39369,476
52,61,39609,222
45,62,39845,223
76,68,39845,223
88,82,39845,237
43,61,40082,223
74,67,40082,238
86,81,40082,238
29,60,40322,239
41,78,40322,253
74,72,40322,239
79,72,40322,239
86,86,40322,253
48,61,40575,225
72,67,40575,225
84,81,40575,239
53,62,40814,222
67,68,40814,222
79,82,40814,236
57,61,41050,225
76,67,41050,225
88,81,41050,239
31,59,41289,225
43,76,41289,239
74,70,41289,713
79,70,41289,713
86,84,41289,713
50,61,41528,223
55,62,41766,222
59,61,42002,223
76,67,42002,109
88,81,42002,116
72,67,42118,1567
84,81,42118,1567
45,66,42242,239
52,61,42496,224
45,54,42734,222
60,68,42734,236
52,61,42970,225
59,64,43210,224
52,61,43449,222
33,52,43685,223
45,69,43685,237
76,68,43685,223
88,82,43685,237
31,57,43922,223
43,74,43922,238
74,67,43922,238
86,81,43922,238
29,60,44162,239
41,78,44162,253
74,72,44162,239
79,72,44162,239
81,72,44162,253
86,86,44162,253
48,61,44415,225
72,67,44415,239
84,81,44415,239
53,62,44654,222
72,68,44654,222
84,82,44654,236
57,61,44890,225
79,67,44890,239
91,81,44890,239
31,59,45129,225
43,76,45129,239
79,70,45129,713
84,70,45129,713
91,84,45129,713
50,61,45368,223
55,62,45606,222
59,61,45842,223
74,67,45842,109
86,81,45842,116
72,67,45958,1567
84,81,45958,1567
45,66,46082,239
52,61,46336,224
45,54,46574,222
60,68,46574,236
52,61,46810,225
59,64,47050,224
52,61,47289,222
45,62,47525,223
69,68,47525,223
81,82,47525,237
43,61,47762,223
72,67,47762,223
84,81,47762,238
74,72,47912,582
79,72,47942,552
81,72,47972,522
41,70,48002,239
86,86,48002,492
48,65,48256,224
53,66,48494,222
74,68,48494,222
86,82,48494,236
57,65,48730,225
72,67,48730,225
84,81,48730,239
43,68,48969,225
74,70,48969,225
86,84,48969,239
50,65,49208,223
76,67,49208,223
88,81,49208,237
55,66,49445,223
74,68,49445,237
86,82,49445,237
59,65,49682,223
74,67,49682,479
86,77,49682,493
45,70,49922,239
52,64,50175,225
72,66,50175,953
84,80,50175,953
57,63,50414,222
60,61,50651,224
45,59,50890,224
52,58,51128,223
84,68,51128,223
57,56,51366,222
83,66,51366,222
43,54,51602,223
76,64,51602,109
81,63,51719,1090
41,57,51842,239
48,52,52096,224
53,53,52334,222
57,52,52571,224
43,55,52809,225
50,52,53049,222
84,62,53049,222
55,53,53286,222
83,63,53286,222
59,52,53522,223
76,62,53522,109
72,62,53639,1090
45,57,53762,239
52,52,54016,224
45,45,54254,222
60,59,54254,236
52,52,54490,225
59,55,54729,225
52,52,54969,222
84,54,54969,222
96,68,54969,236
57,53,55205,223
83,55,55205,223
95,69,55205,237
55,52,55442,223
76,54,55442,109
88,68,55442,116
81,54,55558,852
93,68,55558,852
53,51,55682,239
60,46,55936,224
65,47,56174,222
69,46,56410,225
81,54,56410,110
93,68,56410,117
83,54,56527,835
95,68,56527,835
55,49,56650,224
62,46,56889,222
67,47,57126,222
71,46,57362,223
86,54,57362,109
98,68,57362,116
84,54,57478,838
96,68,57478,1091
57,51,57602,239
64,46,57856,224
72,47,58094,475
64,46,58331,224
71,49,58569,225
64,46,58809,222
84,62,58809,222
57,47,59046,222
83,63,59046,222
55,46,59282,223
76,62,59282,109
81,62,59399,1090
53,59,59522,239
60,54,59776,224
65,55,60014,222
69,54,60251,224
55,57,60489,225
62,54,60729,222
84,54,60729,222
96,68,60729,236
67,55,60965,223
83,55,60965,223
95,69,60965,237
71,54,61202,223
76,54,61202,109
88,68,61202,116
72,54,61318,1091
84,68,61318,838
57,48,61442,239
64,43,61696,224
72,63,61934,475
64,43,62171,224
71,48,62409,225
64,43,62649,222
84,54,62649,222
96,68,62649,236
57,48,62885,223
83,55,62885,223
95,69,62885,237
55,47,63122,223
84,54,63122,109
96,68,63122,116
86,54,63238,852
98,68,63238,852
53,50,63362,239
60,45,63616,224
65,46,63854,222
69,45,64090,225
88,54,64090,117
100,68,64090,117
88,54,64207,835
100,64,64207,835
55,48,64330,224
62,45,64569,222
67,46,64806,222
71,45,65042,1193
84,54,65042,109
96,68,65042,116
83,54,65158,107
95,68,65158,2042
57,50,65282,239
64,45,65536,224
69,46,65774,222
71,45,66011,224
69,43,66250,950
72,50,66250,950
