note,velocity,position,duration
62,36,1680,60
64,36,1740,60
65,36,1800,60
67,36,1860,60
69,38,1920,120
74,34,2160,120
62,34,2160,120
65,34,2160,120
62,34,2400,120
74,34,2400,120
65,34,2400,120
73,34,2640,120
62,34,2640,120
65,34,2640,120
73,36,2880,120
62,36,2880,120
65,36,2880,120
65,34,3120,120
62,34,3120,120
72,34,3120,120
72,34,3360,120
62,34,3360,120
65,34,3360,120
62,34,3600,120
71,34,3600,120
65,34,3600,120
71,36,3840,120
62,36,3840,120
65,36,3840,120
70,33,4080,120
62,33,4080,120
65,33,4080,120
65,33,4320,120
62,33,4320,120
70,33,4320,120
69,32,4560,120
62,32,4560,120
65,32,4560,120
59,43,4800,120
68,43,4800,120
64,43,4800,120
64,43,5040,480
68,43,5040,480
59,43,5040,480
67,36,5520,60
69,36,5580,60
70,36,5640,60
72,36,5700,60
74,38,5760,120
67,34,6000,120
70,34,6000,120
79,34,6000,120
70,34,6240,120
79,34,6240,120
67,34,6240,120
78,34,6480,120
67,34,6480,120
70,34,6480,120
70,36,6720,120
78,36,6720,120
67,36,6720,120
77,34,6960,120
70,34,6960,120
67,34,6960,120
70,34,7200,120
77,34,7200,120
67,34,7200,120
70,34,7440,120
67,34,7440,120
76,34,7440,120
76,36,7680,120
70,36,7680,120
67,36,7680,120
75,32,7920,120
67,32,7920,120
70,32,7920,120
75,32,8160,120
67,32,8160,120
70,32,8160,120
74,32,8400,120
67,32,8400,120
70,32,8400,120
64,44,8640,120
73,44,8640,120
69,44,8640,120
64,44,8880,480
73,44,8880,480
69,44,8880,480
74,46,9600,60
76,35,9660,60
77,35,9720,60
79,35,9780,60
81,40,9840,120
79,46,10080,60
77,36,10140,60
76,36,10200,60
74,36,10260,60
72,40,10320,120
70,45,10560,60
72,36,10620,60
74,36,10680,60
76,36,10740,60
77,41,10800,120
76,46,11040,60
74,37,11100,60
72,37,11160,60
70,37,11220,60
69,43,11280,120
67,46,11520,60
69,37,11580,60
70,37,11640,60
72,37,11700,60
74,44,11760,120
72,47,12000,60
70,37,12060,60
69,37,12120,60
67,37,12180,60
65,43,12240,120
64,45,12720,720
57,45,12720,720
86,47,13440,60
84,37,13500,60
82,37,13560,60
81,37,13620,60
79,40,13680,120
74,48,13920,60
72,37,13980,60
70,37,14040,60
69,37,14100,60
67,40,14160,120
64,45,14640,720
57,45,14640,720
86,47,15360,60
84,37,15420,60
82,37,15480,60
81,37,15540,60
79,40,15600,120
74,48,15840,60
72,37,15900,60
70,37,15960,60
69,37,16020,60
67,40,16080,120
57,45,16560,240
64,45,16560,240
74,40,16800,60
72,36,16860,60
70,36,16920,60
69,36,16980,60
67,40,17040,120
64,38,17520,240
57,38,17520,240
74,34,17760,60
72,34,17820,60
70,34,17880,60
69,34,17940,60
67,32,18000,120
64,37,18480,240
57,37,18480,240
74,32,18720,60
72,32,18780,60
70,32,18840,60
69,32,18900,60
67,29,18960,120
64,35,19440,240
57,35,19440,240
74,32,19680,60
72,32,19740,60
70,32,19800,60
69,32,19860,60
67,29,19920,120
57,37,20400,120
64,37,20400,120
61,37,20400,120
64,37,20880,120
58,37,20880,120
61,37,20880,120
64,34,21360,120
56,34,21360,120
61,34,21360,120
61,35,21840,120
57,35,21840,120
64,35,21840,120
64,36,22320,120
58,36,22320,120
61,36,22320,120
59,40,22800,120
64,40,22800,120
61,40,22800,120
64,41,23280,120
60,41,23280,120
61,41,23280,120
64,43,23760,120
59,43,23760,120
61,43,23760,120
61,45,24240,120
58,45,24240,120
64,45,24240,120
64,48,24720,120
57,48,24720,120
61,48,24720,120
56,49,25200,120
64,49,25200,120
61,49,25200,120
61,51,25680,120
55,51,25680,120
58,51,25680,120
61,53,26160,120
58,53,26160,120
54,53,26160,120
61,55,26640,120
58,55,26640,120
53,55,26640,120
61,58,27120,120
52,58,27120,120
57,58,27120,120
55,59,27600,120
61,59,27600,120
51,59,27600,120
57,59,27600,120
74,86,29520,60
76,86,29580,60
77,86,29640,60
79,86,29700,60
81,90,29760,120
86,81,30000,120
74,68,30000,120
77,68,30000,120
86,81,30240,120
74,68,30240,120
77,68,30240,120
77,68,30480,120
74,68,30480,120
85,81,30480,120
85,86,30720,120
74,73,30720,120
77,73,30720,120
74,68,30960,120
84,81,30960,120
77,68,30960,120
84,81,31200,120
74,68,31200,120
77,68,31200,120
83,81,31440,120
74,68,31440,120
77,68,31440,120
77,73,31680,120
74,73,31680,120
83,86,31680,120
77,69,31920,120
74,69,31920,120
82,82,31920,120
82,82,32160,120
77,69,32160,120
74,69,32160,120
81,82,32400,120
74,69,32400,120
77,82,32400,120
76,79,32640,120
71,79,32640,120
80,93,32640,120
80,97,32880,480
71,82,32880,480
76,82,32880,480
79,86,33360,60
81,86,33420,60
82,86,33480,60
84,86,33540,60
86,90,33600,120
79,68,33840,120
82,68,33840,120
91,81,33840,120
82,68,34080,120
91,81,34080,120
79,68,34080,120
90,81,34320,120
79,68,34320,120
82,68,34320,120
82,73,34560,120
90,86,34560,120
79,73,34560,120
89,81,34800,120
82,68,34800,120
79,68,34800,120
82,68,35040,120
89,81,35040,120
79,68,35040,120
82,68,35280,120
79,68,35280,120
88,81,35280,120
88,86,35520,120
79,73,35520,120
82,73,35520,120
82,69,35760,120
87,82,35760,120
79,69,35760,120
87,82,36000,120
79,69,36000,120
82,69,36000,120
82,69,36240,120
86,82,36240,120
79,69,36240,120
81,79,36480,120
76,79,36480,120
85,93,36480,120
85,97,36720,480
81,82,36720,480
76,82,36720,480
86,106,37440,60
88,83,37500,60
89,83,37560,60
91,83,37620,60
93,83,37680,120
91,104,37920,60
89,84,37980,60
88,84,38040,60
86,84,38100,60
84,85,38160,120
82,104,38400,60
84,84,38460,60
86,84,38520,60
88,84,38580,60
89,84,38640,120
88,104,38880,60
86,84,38940,60
84,84,39000,60
82,84,39060,60
81,84,39120,120
79,104,39360,60
81,86,39420,60
82,86,39480,60
84,86,39540,60
86,86,39600,120
84,104,39840,60
82,86,39900,60
81,85,39960,60
79,85,40020,60
77,85,40080,120
76,94,40320,120
81,94,40320,120
88,94,40320,120
76,94,40560,480
88,94,40560,480
81,94,40560,480
82,92,41280,60
84,83,41340,60
86,83,41400,60
88,83,41460,60
89,83,41520,120
88,92,41760,60
86,84,41820,60
84,84,41880,60
82,84,41940,60
81,85,42000,120
79,92,42240,60
81,84,42300,60
82,84,42360,60
84,84,42420,60
86,84,42480,120
84,92,42720,60
82,84,42780,60
81,84,42840,60
79,84,42900,60
77,84,42960,120
75,94,43200,60
77,83,43260,60
79,83,43320,60
81,83,43380,60
82,83,43440,120
81,92,43680,60
79,83,43740,60
77,83,43800,60
75,83,43860,60
74,83,43920,120
69,86,44160,120
81,86,44160,120
76,86,44160,120
76,86,44400,480
81,86,44400,480
69,86,44400,480
74,75,45120,60
76,66,45180,60
77,66,45240,60
79,66,45300,60
81,66,45360,120
79,77,45600,60
77,65,45660,60
76,65,45720,60
74,65,45780,60
72,65,45840,120
70,73,46080,60
72,65,46140,60
74,64,46200,60
76,64,46260,60
77,64,46320,120
76,72,46560,60
74,64,46620,60
72,63,46680,60
70,63,46740,60
69,63,46800,120
67,71,47040,60
69,63,47100,60
70,63,47160,60
72,62,47220,60
74,62,47280,120
72,71,47520,60
70,62,47580,60
69,62,47640,60
67,60,47700,60
65,60,47760,120
64,60,48000,120
76,71,48000,120
69,60,48000,120
69,61,48240,480
64,61,48240,480
76,72,48240,480
70,58,48960,60
72,54,49020,60
74,54,49080,60
76,54,49140,60
77,54,49200,120
76,60,49440,60
74,54,49500,60
72,54,49560,60
70,54,49620,60
69,55,49680,120
67,59,49920,60
69,54,49980,60
70,54,50040,60
72,54,50100,60
74,52,50160,120
72,56,50400,60
70,52,50460,60
69,52,50520,60
67,52,50580,60
65,52,50640,120
63,56,50880,60
65,51,50940,60
67,51,51000,60
69,51,51060,60
70,51,51120,120
69,55,51360,60
67,50,51420,60
65,50,51480,60
63,50,51540,60
62,50,51600,120
57,43,51840,120
64,43,51840,120
69,51,51840,120
57,44,52080,480
69,52,52080,480
64,44,52080,480
86,59,52800,60
84,47,52860,60
82,47,52920,60
81,47,52980,60
79,51,53040,120
74,60,53280,60
72,47,53340,60
70,47,53400,60
69,47,53460,60
67,51,53520,120
69,51,54000,720
57,43,54000,720
64,43,54000,720
86,59,54720,60
84,47,54780,60
82,47,54840,60
81,47,54900,60
79,51,54960,120
74,60,55200,60
72,47,55260,60
70,47,55320,60
69,47,55380,60
67,51,55440,120
69,43,55920,120
64,36,55920,120
57,36,55920,120
74,51,56160,60
72,46,56220,60
70,46,56280,60
69,46,56340,60
67,50,56400,120
69,43,56880,120
64,36,56880,120
57,36,56880,120
74,42,57120,60
72,42,57180,60
70,42,57240,60
69,42,57300,60
67,40,57360,120
57,34,57840,120
69,40,57840,120
64,34,57840,120
74,40,58080,60
72,40,58140,60
70,40,58200,60
69,39,58260,60
67,36,58320,120
57,30,58800,120
64,30,58800,120
69,36,58800,120
74,37,59040,60
72,37,59100,60
70,37,59160,60
69,37,59220,60
67,35,59280,120
50,46,60240,60
52,46,60300,60
53,46,60360,60
55,46,60420,60
57,50,60480,120
53,36,60720,120
50,36,60720,120
62,43,60720,120
50,36,60960,120
53,36,60960,120
62,43,60960,120
50,36,61200,120
61,43,61200,120
53,36,61200,120
50,39,61440,120
61,46,61440,120
53,39,61440,120
53,36,61680,120
50,36,61680,120
60,43,61680,120
53,36,61920,120
50,36,61920,120
60,43,61920,120
50,36,62160,120
53,36,62160,120
59,43,62160,120
50,39,62400,120
59,46,62400,120
53,39,62400,120
50,35,62640,120
58,42,62640,120
53,35,62640,120
53,35,62880,120
50,35,62880,120
58,42,62880,120
53,34,63120,1200
57,41,63120,1200
50,34,63120,1200
62,40,65280,120
69,39,65520,120
74,36,65760,120
81,42,66000,1680
74,27,67200,960
78,27,67200,960
83,48,67680,240
85,48,67920,240
74,27,68160,960
86,52,68160,480
85,48,68640,240
83,48,68880,240
74,26,69120,960
78,26,69120,960
85,50,69120,240
81,48,69360,480
85,46,69840,180
85,39,70020,60
74,23,70080,960
78,42,70080,960
81,48,71040,480
74,27,71040,960
78,27,71040,960
83,48,71520,240
85,48,71760,240
74,27,72000,960
86,52,72000,480
85,48,72480,240
83,48,72720,240
74,26,72960,960
85,50,72960,240
78,48,73200,480
85,46,73680,180
85,39,73860,60
73,23,73920,960
81,42,73920,960
69,42,74880,480
62,27,75120,720
66,27,75120,720
71,42,75360,240
73,42,75600,240
74,47,75840,480
62,27,76080,720
73,42,76320,240
71,42,76560,240
73,44,76800,240
66,26,77040,720
62,26,77040,720
69,42,77280,240
73,41,77520,180
73,34,77700,60
66,37,77760,960
62,23,78000,720
69,42,78720,480
62,27,78960,720
66,27,78960,720
71,42,79200,240
73,42,79440,240
74,47,79680,480
62,27,79920,720
73,44,80160,240
71,46,80400,240
73,51,80640,480
62,35,80880,720
66,42,81120,240
73,41,81360,180
73,34,81540,60
69,37,81600,960
61,23,81840,720
76,35,82800,80
79,35,82880,80
88,35,82960,80
83,41,83040,480
76,35,83760,80
79,35,83840,80
88,35,83920,80
83,41,84000,480
67,40,84720,120
73,36,84840,120
71,40,84960,120
76,36,85080,120
74,40,85200,120
79,36,85320,120
76,39,85440,120
81,36,85560,120
79,39,85680,120
85,35,85800,120
83,39,85920,120
88,36,86040,120
72,35,86640,80
75,35,86717,80
84,35,86800,80
79,40,86880,480
72,35,87600,80
75,35,87680,80
84,35,87760,80
79,40,87840,480
63,40,88560,120
69,36,88680,120
67,40,88800,120
72,36,88920,120
70,40,89040,120
75,36,89160,120
72,39,89280,120
77,36,89400,120
75,39,89520,120
81,35,89640,120
79,39,89760,120
84,36,89880,120
60,33,90480,120
66,31,90600,120
64,33,90720,120
69,31,90840,120
67,33,90960,120
72,31,91080,120
69,32,91200,120
74,29,91320,120
72,31,91440,120
78,27,91560,120
76,29,91680,120
81,25,91800,120
79,24,92160,960
83,24,92160,960
86,44,92160,480
88,42,92640,240
90,42,92880,240
79,24,93120,960
91,47,93120,480
90,42,93600,240
88,42,93840,240
79,23,94080,960
83,23,94080,960
90,44,94080,240
86,42,94320,480
90,41,94800,180
90,34,94980,60
79,20,95040,960
83,37,95040,960
86,42,96000,480
79,24,96000,960
83,24,96000,960
88,42,96480,240
90,42,96720,240
79,24,96960,960
91,47,96960,480
90,42,97440,240
88,42,97680,240
79,23,97920,960
90,44,97920,240
83,42,98160,480
90,41,98640,180
90,34,98820,60
78,20,98880,960
86,37,98880,960
74,41,99840,480
71,26,100080,720
67,26,100080,720
76,41,100320,240
78,41,100560,240
79,44,100800,480
67,26,101040,720
78,41,101280,240
76,41,101520,240
78,43,101760,240
67,25,102000,720
71,25,102000,720
74,41,102240,240
78,40,102480,180
78,33,102660,60
71,35,102720,960
67,21,102960,720
74,43,103680,480
67,26,103920,720
71,26,103920,720
76,43,104160,240
78,43,104400,240
79,47,104640,480
67,26,104880,720
78,42,105120,240
76,44,105360,240
78,50,105600,480
67,33,105840,720
71,41,106080,240
78,40,106320,180
78,33,106500,60
74,35,106560,960
66,21,106800,720
81,35,107760,80
84,35,107840,80
93,35,107920,80
88,41,108000,480
79,40,108720,120
86,36,108840,120
83,40,108960,120
91,36,109080,120
86,40,109200,120
95,36,109320,120
76,35,109680,80
79,35,109760,80
88,35,109840,80
83,41,109920,480
78,40,110640,120
86,36,110760,120
81,40,110880,120
90,36,111000,120
86,40,111120,120
93,36,111240,120
69,35,111600,80
72,35,111680,80
81,34,111760,80
76,40,111840,480
71,37,112560,120
74,35,112680,120
71,37,112800,120
79,34,112920,120
74,37,113040,120
83,34,113160,120
64,33,113520,80
67,33,113600,80
76,33,113680,80
71,39,113760,480
66,37,114480,120
74,35,114600,120
69,39,114720,120
78,35,114840,120
74,39,114960,120
81,35,115080,120
62,36,119760,60
64,36,119820,60
65,36,119880,60
67,36,119940,60
69,38,120000,120
62,34,120240,120
65,34,120240,120
74,34,120240,120
62,34,120480,120
74,34,120480,120
65,34,120480,120
62,34,120720,120
73,34,120720,120
65,34,120720,120
65,36,120960,120
73,36,120960,120
62,36,120960,120
62,34,121200,120
72,34,121200,120
65,34,121200,120
65,34,121440,120
62,34,121440,120
72,34,121440,120
65,34,121680,120
62,34,121680,120
71,34,121680,120
62,36,121920,120
65,36,121920,120
71,36,121920,120
62,33,122160,120
70,33,122160,120
65,33,122160,120
62,33,122400,120
70,33,122400,120
65,33,122400,120
65,32,122640,120
62,32,122640,120
69,32,122640,120
64,43,122880,120
59,43,122880,120
68,43,122880,120
59,43,123120,480
64,43,123120,480
68,43,123120,480
67,36,123600,60
69,36,123660,60
70,36,123720,60
72,36,123780,60
74,38,123840,120
67,34,124080,120
70,34,124080,120
79,34,124080,120
79,34,124320,120
70,34,124320,120
67,34,124320,120
70,34,124560,120
78,34,124560,120
67,34,124560,120
70,36,124800,120
78,36,124800,120
67,36,124800,120
67,34,125040,120
70,34,125040,120
77,34,125040,120
70,34,125280,120
67,34,125280,120
77,34,125280,120
67,34,125520,120
70,34,125520,120
76,34,125520,120
70,36,125760,120
76,36,125760,120
67,36,125760,120
75,32,126000,120
67,32,126000,120
70,32,126000,120
70,32,126240,120
67,32,126240,120
75,32,126240,120
74,32,126480,120
70,32,126480,120
67,32,126480,120
64,44,126720,120
69,44,126720,120
73,44,126720,120
73,44,126960,480
69,44,126960,480
64,44,126960,480
74,46,127680,60
76,35,127740,60
77,35,127800,60
79,35,127860,60
81,40,127920,120
79,46,128160,60
77,36,128220,60
76,36,128280,60
74,36,128340,60
72,40,128400,120
70,45,128640,60
72,36,128700,60
74,36,128760,60
76,36,128820,60
77,41,128880,120
76,46,129120,60
74,37,129180,60
72,37,129240,60
70,37,129300,60
69,43,129360,120
67,46,129600,60
69,37,129660,60
70,37,129720,60
72,37,129780,60
74,44,129840,120
72,47,130080,60
70,37,130140,60
69,37,130200,60
67,37,130260,60
65,43,130320,120
57,45,130800,720
64,45,130800,720
86,47,131520,60
84,37,131580,60
82,37,131640,60
81,37,131700,60
79,40,131760,120
74,48,132000,60
72,37,132060,60
70,37,132120,60
69,37,132180,60
67,40,132240,120
57,45,132720,720
64,45,132720,720
86,47,133440,60
84,37,133500,60
82,37,133560,60
81,37,133620,60
79,40,133680,120
74,48,133920,60
72,37,133980,60
70,37,134040,60
69,37,134100,60
67,40,134160,120
57,45,134640,240
64,45,134640,240
74,40,134880,60
72,36,134940,60
70,36,135000,60
69,36,135060,60
67,40,135120,120
64,38,135600,240
57,38,135600,240
74,34,135840,60
72,34,135900,60
70,34,135960,60
69,34,136020,60
67,32,136080,120
64,37,136560,240
57,37,136560,240
74,32,136800,60
72,32,136860,60
70,32,136920,60
69,32,136980,60
67,29,137040,120
57,35,137520,240
64,35,137520,240
74,32,137760,60
72,32,137820,60
70,32,137880,60
69,32,137940,60
67,29,138000,120
57,37,138480,120
64,37,138480,120
61,37,138480,120
58,37,138960,120
64,37,138960,120
61,37,138960,120
61,34,139440,120
56,34,139440,120
64,34,139440,120
61,35,139920,120
64,35,139920,120
57,35,139920,120
61,36,140400,120
58,36,140400,120
64,36,140400,120
61,40,140880,120
59,40,140880,120
64,40,140880,120
60,41,141360,120
61,41,141360,120
64,41,141360,120
59,43,141840,120
64,43,141840,120
61,43,141840,120
58,45,142320,120
64,45,142320,120
61,45,142320,120
61,48,142800,120
57,48,142800,120
64,48,142800,120
61,49,143280,120
56,49,143280,120
64,49,143280,120
55,51,143760,120
58,51,143760,120
61,51,143760,120
54,53,144240,120
61,53,144240,120
58,53,144240,120
53,55,144720,120
61,55,144720,120
58,55,144720,120
57,58,145200,120
52,58,145200,120
61,58,145200,120
55,59,145680,120
57,59,145680,120
61,59,145680,120
51,59,145680,120
74,86,147600,60
76,86,147660,60
77,86,147720,60
79,86,147780,60
81,90,147840,120
74,68,148080,120
77,68,148080,120
86,81,148080,120
74,68,148320,120
77,68,148320,120
86,81,148320,120
74,68,148560,120
77,68,148560,120
85,81,148560,120
74,73,148800,120
77,73,148800,120
85,86,148800,120
74,68,149040,120
77,68,149040,120
84,81,149040,120
77,68,149280,120
84,81,149280,120
74,68,149280,120
74,68,149520,120
77,68,149520,120
83,81,149520,120
74,73,149760,120
77,73,149760,120
83,86,149760,120
74,69,150000,120
77,69,150000,120
82,82,150000,120
74,69,150240,120
77,69,150240,120
82,82,150240,120
77,69,150480,120
81,82,150480,120
74,69,150480,120
71,79,150720,120
76,79,150720,120
80,93,150720,120
71,82,150960,480
76,82,150960,480
80,97,150960,480
79,86,151440,60
81,86,151500,60
82,86,151560,60
84,86,151620,60
86,90,151680,120
79,68,151920,120
91,81,151920,120
82,68,151920,120
91,81,152160,120
79,68,152160,120
82,68,152160,120
79,68,152400,120
82,68,152400,120
90,81,152400,120
90,86,152640,120
82,73,152640,120
79,73,152640,120
79,68,152880,120
89,81,152880,120
82,68,152880,120
82,68,153120,120
79,68,153120,120
89,81,153120,120
79,68,153360,120
88,81,153360,120
82,68,153360,120
82,73,153600,120
79,73,153600,120
88,86,153600,120
79,69,153840,120
87,82,153840,120
82,69,153840,120
82,69,154080,120
87,82,154080,120
79,69,154080,120
86,82,154320,120
82,69,154320,120
79,69,154320,120
76,79,154560,120
85,93,154560,120
81,79,154560,120
85,97,154800,480
76,82,154800,480
81,82,154800,480
86,106,155520,60
88,83,155580,60
89,83,155640,60
91,83,155700,60
93,83,155760,120
91,104,156000,60
89,84,156060,60
88,84,156120,60
86,84,156180,60
84,85,156240,120
82,104,156480,60
84,84,156540,60
86,84,156600,60
88,84,156660,60
89,84,156720,120
88,104,156960,60
86,84,157020,60
84,84,157080,60
82,84,157140,60
81,84,157200,120
79,104,157440,60
81,86,157500,60
82,86,157560,60
84,86,157620,60
86,86,157680,120
84,104,157920,60
82,86,157980,60
81,85,158040,60
79,85,158100,60
77,85,158160,120
81,94,158400,120
88,94,158400,120
76,94,158400,120
76,94,158640,480
81,94,158640,480
88,94,158640,480
82,92,159360,60
84,83,159420,60
86,83,159480,60
88,83,159540,60
89,83,159600,120
88,92,159840,60
86,84,159900,60
84,84,159960,60
82,84,160020,60
81,85,160080,120
79,92,160320,60
81,84,160380,60
82,84,160440,60
84,84,160500,60
86,84,160560,120
84,92,160800,60
82,84,160860,60
81,84,160920,60
79,84,160980,60
77,84,161040,120
75,94,161280,60
77,83,161340,60
79,83,161400,60
81,83,161460,60
82,83,161520,120
81,92,161760,60
79,83,161820,60
77,83,161880,60
75,83,161940,60
74,83,162000,120
76,86,162240,120
81,86,162240,120
69,86,162240,120
69,86,162480,480
76,86,162480,480
81,86,162480,480
74,75,163200,60
76,66,163260,60
77,66,163320,60
79,66,163380,60
81,66,163440,120
79,77,163680,60
77,65,163740,60
76,65,163800,60
74,65,163860,60
72,65,163920,120
70,73,164160,60
72,65,164220,60
74,64,164280,60
76,64,164340,60
77,64,164400,120
76,72,164640,60
74,64,164700,60
72,63,164760,60
70,63,164820,60
69,63,164880,120
67,71,165120,60
69,63,165180,60
70,63,165240,60
72,62,165300,60
74,62,165360,120
72,71,165600,60
70,62,165660,60
69,62,165720,60
67,60,165780,60
65,60,165840,120
64,71,166080,120
69,71,166080,120
76,71,166080,120
64,72,166320,480
69,72,166320,480
76,72,166320,480
70,58,167040,60
72,54,167100,60
74,54,167160,60
76,54,167220,60
77,54,167280,120
76,60,167520,60
74,54,167580,60
72,54,167640,60
70,54,167700,60
69,55,167760,120
67,59,168000,60
69,54,168060,60
70,54,168120,60
72,54,168180,60
74,52,168240,120
72,56,168480,60
70,52,168540,60
69,52,168600,60
67,52,168660,60
65,52,168720,120
63,56,168960,60
65,51,169020,60
67,51,169080,60
69,51,169140,60
70,51,169200,120
69,55,169440,60
67,50,169500,60
65,50,169560,60
63,50,169620,60
62,50,169680,120
57,43,169920,120
64,43,169920,120
69,51,169920,120
57,44,170160,480
64,44,170160,480
69,52,170160,480
86,59,170880,60
84,47,170940,60
82,47,171000,60
81,47,171060,60
79,51,171120,120
74,60,171360,60
72,47,171420,60
70,47,171480,60
69,47,171540,60
67,51,171600,120
69,51,172080,720
57,43,172080,720
64,43,172080,720
86,59,172800,60
84,47,172860,60
82,47,172920,60
81,47,172980,60
79,51,173040,120
74,60,173280,60
72,47,173340,60
70,47,173400,60
69,47,173460,60
67,51,173520,120
69,43,174000,120
57,36,174000,120
64,36,174000,120
74,51,174240,60
72,46,174300,60
70,46,174360,60
69,46,174420,60
67,50,174480,120
69,43,174960,120
57,36,174960,120
64,36,174960,120
74,42,175200,60
72,42,175260,60
70,42,175320,60
69,42,175380,60
67,40,175440,120
69,40,175920,120
57,34,175920,120
64,34,175920,120
74,40,176160,60
72,40,176220,60
70,40,176280,60
69,39,176340,60
67,36,176400,120
69,36,176880,120
57,36,176880,120
64,36,176880,120
74,37,177120,60
72,37,177180,60
70,37,177240,60
69,37,177300,60
67,35,177360,120
50,46,178320,60
52,46,178380,60
53,46,178440,60
55,46,178500,60
57,50,178560,120
50,36,178800,120
53,36,178800,120
62,43,178800,120
50,36,179040,120
53,36,179040,120
62,43,179040,120
50,36,179280,120
53,36,179280,120
61,43,179280,120
53,39,179520,120
61,46,179520,120
50,39,179520,120
50,36,179760,120
53,36,179760,120
60,43,179760,120
50,36,180000,120
53,36,180000,120
60,43,180000,120
50,36,180240,120
53,36,180240,120
59,43,180240,120
50,39,180480,120
53,39,180480,120
59,46,180480,120
53,35,180720,120
58,42,180720,120
50,35,180720,120
50,35,180960,120
53,35,180960,120
58,42,180960,120
50,34,181200,1200
53,34,181200,1200
57,41,181200,1200
62,40,183360,120
69,39,183600,120
74,36,183840,120
81,42,184080,1200
86,113,185280,120
81,95,185280,120
74,95,185280,120
74,86,185400,120
81,86,185400,120
86,102,185400,120
38,32,1,120
45,31,240,120
38,32,480,120
45,31,720,120
38,32,960,120
45,31,1200,120
38,32,1440,120
45,31,1680,120
38,32,1920,120
45,31,2160,120
38,32,2400,120
45,31,2640,120
38,32,2880,120
45,31,3120,120
38,32,3360,120
45,31,3600,120
38,32,3840,120
45,29,4080,120
38,32,4320,120
45,29,4560,120
38,32,4800,120
45,31,5040,120
38,32,5280,120
45,31,5520,120
38,32,5760,120
45,31,6000,120
38,32,6240,120
45,31,6480,120
38,32,6720,120
45,31,6960,120
38,32,7200,120
45,31,7440,120
38,32,7680,120
45,29,7920,120
38,32,8160,120
45,29,8400,120
38,32,8640,120
45,31,8880,120
38,32,9120,120
45,31,9360,120
58,32,9840,120
65,32,9840,120
53,32,10320,120
60,32,10320,120
62,32,10800,120
55,32,10800,120
50,32,11280,120
57,32,11280,120
58,32,11760,120
51,32,11760,120
53,32,12240,120
46,32,12240,120
45,37,12480,120
52,32,12720,120
45,38,12960,120
52,32,13200,120
39,37,13440,120
46,32,13680,120
39,37,13920,120
46,32,14160,120
45,37,14400,120
52,32,14640,120
45,38,14880,120
52,32,15120,120
39,37,15360,120
46,32,15600,120
39,37,15840,120
46,32,16080,120
45,37,16320,120
52,32,16560,120
39,38,16800,120
46,31,17040,120
45,34,17280,120
52,32,17520,120
39,34,17760,120
46,29,18000,120
45,35,18240,120
52,32,18480,120
39,34,18720,120
46,28,18960,120
45,32,19200,120
52,29,19440,120
39,32,19680,120
46,27,19920,120
45,46,20160,120
52,41,20400,120
46,46,20640,120
52,41,20880,120
44,44,21120,120
52,42,21360,120
45,46,21600,120
52,43,21840,120
46,48,22080,120
52,43,22320,120
47,51,22560,120
52,45,22800,120
48,53,23040,120
52,49,23280,120
47,57,23520,120
52,50,23760,120
46,58,24000,120
52,53,24240,120
45,60,24480,120
52,54,24720,120
44,63,24960,120
52,58,25200,120
43,66,25440,120
49,60,25680,120
42,69,25920,120
49,64,26160,120
41,77,26400,120
49,69,26640,120
40,83,26880,120
49,76,27120,120
39,86,27360,120
49,79,27600,120
50,94,27840,120
38,80,27840,120
45,80,28080,120
33,68,28080,120
50,94,28320,120
38,80,28320,120
33,68,28560,120
45,80,28560,120
38,80,28800,120
50,94,28800,120
33,68,29040,120
45,80,29040,120
50,94,29280,120
38,80,29280,120
33,68,29520,120
45,80,29520,120
38,71,29760,120
50,84,29760,120
33,60,30000,120
45,71,30000,120
38,71,30240,120
50,84,30240,120
33,60,30480,120
45,71,30480,120
50,84,30720,120
38,71,30720,120
33,60,30960,120
45,71,30960,120
38,71,31200,120
50,84,31200,120
33,60,31440,120
45,71,31440,120
50,84,31680,120
38,71,31680,120
45,71,31920,120
33,60,31920,120
50,84,32160,120
38,71,32160,120
45,71,32400,120
33,60,32400,120
38,71,32640,120
50,84,32640,120
33,60,32880,120
45,71,32880,120
38,71,33120,120
50,84,33120,120
33,60,33360,120
45,71,33360,120
50,84,33600,120
38,71,33600,120
45,71,33840,120
33,60,33840,120
50,84,34080,120
38,71,34080,120
45,71,34320,120
33,60,34320,120
38,71,34560,120
50,84,34560,120
45,71,34800,120
33,60,34800,120
50,84,35040,120
38,71,35040,120
45,71,35280,120
33,60,35280,120
38,71,35520,120
50,84,35520,120
33,60,35760,120
45,71,35760,120
50,84,36000,120
38,71,36000,120
33,60,36240,120
45,71,36240,120
38,71,36480,120
50,84,36480,120
33,60,36720,120
45,71,36720,120
38,71,36960,120
50,84,36960,120
33,60,37200,120
45,71,37200,120
53,71,37440,120
65,84,37440,120
50,71,37680,120
38,50,37680,120
64,84,37920,120
52,71,37920,120
38,50,38160,120
50,71,38160,120
62,84,38400,120
50,71,38400,120
50,71,38640,120
38,50,38640,120
60,84,38880,120
48,71,38880,120
38,50,39120,120
50,71,39120,120
46,60,39360,120
58,84,39360,120
38,50,39600,120
50,71,39600,120
57,84,39840,120
45,60,39840,120
50,71,40080,120
38,50,40080,120
43,60,40320,120
55,84,40320,120
50,71,40560,120
38,50,40560,120
55,84,40800,120
43,60,40800,120
38,50,41040,120
50,71,41040,120
62,84,41280,120
50,71,41280,120
38,60,41520,120
50,71,41520,120
60,84,41760,120
48,71,41760,120
50,71,42000,120
38,60,42000,120
58,84,42240,120
46,71,42240,120
38,60,42480,120
50,71,42480,120
57,84,42720,120
45,71,42720,120
50,71,42960,120
38,60,42960,120
55,84,43200,120
43,71,43200,120
50,71,43440,120
38,60,43440,120
41,71,43680,120
53,84,43680,120
38,60,43920,120
50,71,43920,120
40,71,44160,120
52,84,44160,120
50,71,44400,120
38,60,44400,120
52,84,44640,120
40,71,44640,120
38,60,44880,120
50,71,44880,120
53,62,45120,120
38,52,45360,120
52,60,45600,120
38,51,45840,120
50,59,46080,120
38,50,46320,120
48,58,46560,120
38,49,46800,120
46,57,47040,120
38,48,47280,120
45,56,47520,120
38,48,47760,120
43,55,48000,120
38,47,48240,120
43,54,48480,120
38,46,48720,120
50,49,48960,120
38,41,49200,120
48,48,49440,120
38,41,49680,120
46,48,49920,120
38,40,50160,120
45,47,50400,120
38,40,50640,120
43,47,50880,120
38,40,51120,120
41,46,51360,120
38,39,51600,120
40,46,51840,120
38,37,52080,120
40,44,52320,120
38,37,52560,120
39,47,52800,120
45,41,53040,120
39,47,53280,120
45,41,53520,120
38,47,53760,120
45,41,54000,120
38,48,54240,120
45,41,54480,120
39,47,54720,120
45,41,54960,120
39,47,55200,120
45,41,55440,120
38,47,55680,120
45,41,55920,120
39,48,56160,120
45,39,56400,120
38,43,56640,120
45,41,56880,120
39,43,57120,120
45,36,57360,120
38,43,57600,120
45,39,57840,120
39,42,58080,120
45,34,58320,120
38,39,58560,120
45,36,58800,120
39,37,59040,120
45,32,59280,120
38,41,59520,120
45,39,59760,120
38,41,60000,120
45,39,60240,120
38,41,60480,120
45,39,60720,120
38,41,60960,120
45,39,61200,120
38,41,61440,120
45,39,61680,120
38,41,61920,120
45,39,62160,120
38,41,62400,120
45,37,62640,120
38,41,62880,120
45,37,63120,120
38,43,63360,120
45,40,63600,120
38,43,63840,120
45,41,64080,120
38,42,64320,120
45,40,64560,120
50,42,64800,120
57,40,65040,120
62,27,67200,960
69,27,67200,960
66,27,68160,960
71,27,68160,960
59,27,68160,960
62,27,69120,960
69,27,69120,960
71,23,70080,960
59,23,70080,960
66,23,70080,960
62,36,71040,480
69,27,71040,960
61,36,71520,480
71,27,72000,960
66,37,72000,480
59,27,72000,960
65,35,72480,480
69,40,72960,480
64,27,72960,960
68,37,73440,480
64,35,73920,480
69,23,73920,958
57,23,73920,960
65,33,74400,480
57,27,75120,720
50,21,75120,720
47,21,76080,720
59,27,76080,720
54,21,76080,720
57,27,77040,720
50,21,77040,720
59,23,78000,720
47,18,78000,720
54,18,78000,720
57,27,78960,720
50,35,78960,480
49,34,79440,240
47,31,79920,720
59,31,79920,720
54,39,79920,480
53,35,80400,240
40,27,80820,780
57,35,80880,480
56,34,81360,240
52,18,81840,720
57,23,81840,720
45,18,81840,720
57,35,82560,80
67,35,82640,80
73,35,82720,80
79,40,83040,480
57,35,83520,80
67,35,83600,80
73,35,83680,80
79,40,84000,480
57,40,84480,120
64,40,84720,120
67,39,84960,120
71,39,85200,120
73,37,85440,120
76,36,85680,120
79,36,85920,120
53,35,86400,80
63,35,86480,80
69,35,86560,80
75,39,86880,480
53,35,87360,80
63,35,87440,80
69,35,87520,80
75,41,87840,480
53,40,88320,120
60,40,88560,120
63,39,88800,120
67,39,89040,120
69,37,89280,120
72,36,89520,120
75,36,89760,120
50,33,90240,120
57,33,90480,120
60,32,90720,120
64,32,90960,120
66,31,91200,120
69,29,91440,120
72,28,91680,120
74,24,92160,960
67,24,92160,960
76,24,93120,960
71,24,93120,960
64,24,93120,960
67,24,94080,960
74,24,94080,960
64,20,95040,960
71,20,95040,960
76,20,95040,960
67,32,96000,480
74,24,96000,960
66,32,96480,480
76,24,96960,960
64,24,96960,960
71,33,96960,480
70,31,97440,480
69,24,97920,960
74,35,97920,480
73,33,98400,480
62,20,98880,960
69,31,98880,480
74,20,98880,958
70,27,99360,480
55,26,100080,720
62,26,100080,720
52,26,101040,720
59,26,101040,720
64,26,101040,720
55,26,102000,720
62,26,102000,720
64,21,102960,720
52,21,102960,720
59,21,102960,720
55,33,103920,480
62,26,103920,720
54,33,104400,240
52,29,104880,720
59,37,104880,480
64,29,104880,720
58,33,105360,240
45,26,105780,780
62,33,105840,480
61,33,106320,240
62,21,106800,720
50,21,106800,720
57,21,106800,720
62,35,107520,80
72,35,107600,80
78,35,107680,80
84,40,108000,480
62,40,108480,120
71,40,108720,120
74,39,108960,120
79,39,109200,120
62,35,109440,80
69,35,109520,80
73,35,109600,80
79,40,109920,480
62,40,110400,120
69,40,110640,120
74,39,110880,120
78,39,111120,120
50,35,111360,80
60,35,111441,80
66,35,111520,80
72,39,111840,480
50,39,112320,120
59,37,112560,120
62,36,112800,120
67,36,113040,120
50,33,113280,80
57,33,113360,80
61,33,113440,80
67,37,113760,480
50,35,114240,120
57,37,114480,120
62,40,114720,120
69,42,114960,120
74,46,115200,120
69,43,115440,120
62,43,115680,120
69,43,115920,120
62,43,116160,120
57,43,116400,120
62,42,116640,120
57,41,116880,120
50,42,117120,120
57,40,117360,120
50,42,117600,120
45,41,117840,120
38,41,118080,120
45,31,118320,120
38,32,118560,120
45,31,118800,120
38,32,119040,120
45,31,119280,120
38,32,119520,120
45,31,119760,120
38,32,120000,120
45,31,120240,120
38,32,120480,120
45,31,120720,120
38,32,120960,120
45,31,121200,120
38,32,121440,120
45,31,121680,120
38,32,121920,120
45,29,122160,120
38,32,122400,120
45,29,122640,120
38,32,122880,120
45,31,123120,120
38,32,123360,120
45,31,123600,120
38,32,123840,120
45,31,124080,120
38,32,124320,120
45,31,124560,120
38,32,124800,120
45,31,125040,120
38,32,125280,120
45,31,125520,120
38,32,125760,120
45,29,126000,120
38,32,126240,120
45,29,126480,120
38,32,126720,120
45,31,126960,120
38,32,127200,120
45,31,127440,120
65,32,127920,120
58,32,127920,120
60,32,128400,120
53,32,128400,120
62,32,128880,120
55,32,128880,120
50,32,129360,120
57,32,129360,120
51,32,129840,120
58,32,129840,120
46,32,130320,120
53,32,130320,120
45,37,130560,120
52,32,130800,120
45,38,131040,120
52,32,131280,120
39,37,131520,120
46,32,131760,120
39,37,132000,120
46,32,132240,120
45,37,132480,120
52,32,132720,120
45,38,132960,120
52,32,133200,120
39,37,133440,120
46,32,133680,120
39,37,133920,120
46,32,134160,120
45,37,134400,120
52,32,134640,120
39,38,134880,120
46,31,135120,120
45,34,135360,120
52,32,135600,120
39,34,135840,120
46,29,136080,120
45,35,136320,120
52,32,136560,120
39,34,136800,120
46,28,137040,120
45,32,137280,120
52,29,137520,120
39,32,137760,120
46,27,138000,120
45,46,138240,120
52,41,138480,120
46,46,138720,120
52,41,138960,120
44,44,139200,120
52,42,139440,120
45,46,139680,120
52,43,139920,120
46,48,140160,120
52,43,140400,120
47,51,140640,120
52,45,140880,120
48,53,141120,120
52,49,141360,120
47,57,141600,120
52,50,141840,120
46,58,142080,120
52,53,142320,120
45,60,142560,120
52,54,142800,120
44,63,143040,120
52,58,143280,120
43,66,143520,120
49,60,143760,120
42,69,144000,120
49,64,144240,120
41,77,144480,120
49,69,144720,120
40,83,144960,120
49,76,145200,120
39,86,145440,120
49,79,145680,120
38,87,145920,120
50,102,145920,120
33,68,146160,120
45,80,146160,120
38,80,146400,120
50,94,146400,120
33,68,146640,120
45,80,146640,120
38,80,146880,120
50,94,146880,120
33,68,147120,120
45,80,147120,120
38,80,147360,120
50,94,147360,120
45,80,147600,120
33,68,147600,120
38,71,147840,120
50,84,147840,120
33,60,148080,120
45,71,148080,120
38,71,148320,120
50,84,148320,120
45,71,148560,120
33,60,148560,120
38,71,148800,120
50,84,148800,120
33,60,149040,120
45,71,149040,120
38,71,149280,120
50,84,149280,120
45,71,149520,120
33,60,149520,120
38,71,149760,120
50,84,149760,120
33,60,150000,120
45,71,150000,120
38,71,150240,120
50,84,150240,120
45,71,150480,120
33,60,150480,120
38,71,150720,120
50,84,150720,120
33,60,150960,120
45,71,150960,120
38,71,151200,120
50,84,151200,120
45,71,151440,120
33,60,151440,120
38,71,151680,120
50,84,151680,120
33,60,151920,120
45,71,151920,120
38,71,152160,120
50,84,152160,120
45,71,152400,120
33,60,152400,120
38,71,152640,120
50,84,152640,120
33,60,152880,120
45,71,152880,120
38,71,153120,120
50,84,153120,120
45,71,153360,120
33,60,153360,120
38,71,153600,120
50,84,153600,120
33,60,153840,120
45,71,153840,120
38,71,154080,120
50,84,154080,120
45,71,154320,120
33,60,154320,120
38,71,154560,120
50,84,154560,120
33,60,154800,120
45,71,154800,120
38,71,155040,120
50,84,155040,120
45,71,155280,120
33,60,155280,120
65,84,155520,120
53,71,155520,120
38,60,155760,120
50,71,155760,120
52,71,156000,120
64,84,156000,120
38,60,156240,120
50,71,156240,120
62,84,156480,120
50,71,156480,120
38,60,156720,120
50,71,156720,120
48,71,156960,120
60,84,156960,120
38,60,157200,120
50,71,157200,120
46,71,157440,120
58,84,157440,120
38,60,157680,120
50,71,157680,120
45,71,157920,120
57,84,157920,120
38,60,158160,120
50,71,158160,120
43,71,158400,120
55,84,158400,120
38,60,158640,120
50,71,158640,120
43,71,158880,120
55,84,158880,120
38,60,159120,120
50,71,159120,120
62,84,159360,120
50,71,159360,120
38,60,159600,120
50,71,159600,120
48,71,159840,120
60,84,159840,120
38,60,160080,120
50,71,160080,120
58,84,160320,120
46,71,160320,120
38,60,160560,120
50,71,160560,120
45,71,160800,120
57,84,160800,120
38,60,161040,120
50,71,161040,120
43,71,161280,120
55,84,161280,120
38,60,161520,120
50,71,161520,120
41,71,161760,120
53,84,161760,120
38,60,162000,120
50,71,162000,120
40,71,162240,120
52,84,162240,120
38,60,162480,120
50,71,162480,120
40,71,162720,120
52,84,162720,120
38,60,162960,120
50,71,162960,120
53,62,163200,120
38,52,163440,120
52,60,163680,120
38,51,163920,120
50,59,164160,120
38,50,164400,120
48,58,164640,120
38,49,164880,120
46,57,165120,120
38,48,165360,120
45,56,165600,120
38,48,165840,120
43,55,166080,120
38,47,166320,120
43,54,166560,120
38,46,166800,120
50,49,167040,120
38,41,167280,120
48,48,167520,120
38,41,167760,120
46,48,168000,120
38,40,168240,120
45,47,168480,120
38,40,168720,120
43,47,168960,120
38,40,169200,120
41,46,169440,120
38,39,169680,120
40,46,169920,120
38,37,170160,120
40,44,170400,120
38,37,170640,120
39,47,170880,120
45,41,171120,120
39,47,171360,120
45,41,171600,120
38,47,171840,120
45,41,172080,120
38,48,172320,120
45,41,172560,120
39,47,172800,120
45,41,173040,120
39,47,173280,120
45,41,173520,120
38,47,173760,120
45,41,174000,120
39,48,174240,120
45,39,174480,120
38,43,174720,120
45,41,174960,120
39,43,175200,120
45,36,175440,120
38,43,175680,120
45,39,175920,120
39,42,176160,120
45,34,176400,120
38,39,176640,120
45,36,176880,120
39,37,177120,120
45,32,177360,120
38,41,177600,120
45,39,177840,120
38,41,178080,120
45,39,178320,120
38,41,178560,120
45,39,178800,120
38,41,179040,120
45,39,179280,120
38,41,179520,120
45,39,179760,120
38,41,180000,120
45,39,180240,120
38,41,180480,120
45,37,180720,120
38,41,180960,120
45,37,181200,120
38,43,181440,120
45,40,181680,120
38,43,181920,120
45,41,182160,120
38,42,182400,120
45,40,182640,120
50,42,182880,120
57,40,183120,120
50,90,185280,120
38,75,185280,120
45,75,185280,120
38,68,185400,120
50,81,185400,120
45,68,185400,120
