note,velocity,position,duration
57,31,480,240
50,31,480,240
50,31,720,240
57,31,720,240
50,36,960,240
57,36,960,240
50,31,2400,240
57,31,2400,240
50,31,2640,240
57,31,2640,240
50,35,2880,240
57,35,2880,240
69,39,3600,80
71,39,3680,80
69,41,3760,80
66,44,3840,480
69,44,4080,240
66,42,4320,60
74,45,4320,60
78,42,4560,60
66,45,4560,60
76,45,4800,240
66,37,4800,480
74,42,5040,240
66,42,5280,60
69,41,5520,60
66,41,5520,60
71,45,5760,240
69,45,5760,240
66,45,5760,240
66,41,6240,240
69,41,6240,240
71,41,6240,240
66,41,6600,120
71,41,6600,120
69,41,6600,120
71,41,6720,480
69,41,6720,480
66,41,6720,480
62,42,7200,60
66,42,7200,60
62,42,7440,60
68,42,7440,60
66,42,7440,60
62,45,7680,480
66,45,7680,480
69,45,7680,240
71,42,7920,240
66,44,8160,60
62,44,8160,60
62,44,8400,60
68,44,8400,60
66,44,8400,60
69,45,8640,240
62,45,8640,480
66,45,8640,480
71,42,8880,240
62,44,9120,120
66,44,9120,120
66,44,9360,60
62,44,9360,60
68,44,9360,60
62,47,9600,240
64,47,9600,240
69,47,9600,240
61,42,10080,240
69,42,10080,240
69,42,10440,120
61,42,10440,120
69,42,10560,240
61,42,10560,240
73,44,11280,80
74,44,11360,80
73,44,11440,80
71,47,11520,480
74,47,11760,240
79,49,12000,60
71,49,12000,60
83,45,12240,60
71,45,12240,60
81,48,12480,240
71,41,12480,480
79,42,12720,240
71,42,12960,60
67,42,12960,60
67,42,13200,60
71,42,13200,60
74,42,13200,60
78,46,13440,240
74,46,13440,240
71,46,13440,240
67,46,13440,240
78,42,13920,240
74,42,13920,240
71,42,13920,240
67,42,13920,240
78,42,14280,120
74,42,14280,120
71,42,14280,120
67,42,14280,120
78,42,14400,480
74,42,14400,480
67,42,14400,480
71,42,14400,480
71,42,14880,60
67,42,14880,60
73,42,15120,60
71,42,15120,60
67,42,15120,60
74,46,15360,240
67,46,15360,480
71,46,15360,480
76,42,15600,240
71,45,15840,60
67,45,15840,60
67,45,16080,60
71,45,16080,60
73,45,16080,60
74,47,16320,240
67,47,16320,480
71,47,16320,480
76,44,16560,240
71,45,16800,60
67,45,16800,60
67,45,17040,60
71,45,17040,60
73,45,17040,60
74,49,17280,240
69,49,17280,240
67,49,17280,240
74,45,17760,240
66,45,17760,240
74,45,18120,120
66,45,18120,120
74,45,18240,240
66,45,18240,240
62,27,19680,240
69,27,19680,240
62,27,19920,240
69,27,19920,240
62,33,20160,240
69,33,20160,240
62,27,21600,240
69,27,21600,240
62,27,21840,240
69,27,21840,240
62,31,22080,240
69,31,22080,240
81,35,22800,80
83,35,22880,80
81,36,22960,80
78,39,23040,480
81,39,23280,240
78,39,23520,60
86,39,23520,60
90,37,23760,60
78,37,23760,60
88,41,24000,240
78,33,24000,480
86,37,24240,240
78,37,24480,60
81,36,24720,60
78,36,24720,60
78,39,24960,240
81,39,24960,240
83,39,24960,240
78,37,25440,240
81,37,25440,240
83,37,25440,240
83,37,25800,120
78,37,25800,120
81,37,25800,120
78,37,25920,480
81,37,25920,480
83,37,25920,480
74,38,26400,60
78,38,26400,60
74,38,26640,60
80,38,26640,60
78,38,26640,60
81,41,26880,240
78,41,26880,480
74,41,26880,480
83,37,27120,240
78,39,27360,60
74,39,27360,60
80,38,27600,60
74,38,27600,60
78,38,27600,60
78,41,27840,480
74,41,27840,480
81,41,27840,240
83,37,28080,240
74,39,28320,60
78,39,28320,60
80,39,28560,60
74,39,28560,60
78,39,28560,60
74,41,28800,240
76,41,28800,240
81,41,28800,240
73,38,29280,240
81,38,29280,240
73,38,29640,120
81,38,29640,120
73,38,29760,240
81,38,29760,240
85,39,30480,80
86,39,30560,80
85,39,30640,80
83,42,30720,480
86,42,30960,240
91,44,31200,60
83,44,31200,60
95,39,31440,60
83,39,31440,60
93,42,31680,240
83,37,31680,480
91,38,31920,240
83,38,32160,60
79,38,32160,60
83,38,32400,60
79,38,32400,60
86,38,32400,60
83,42,32640,240
86,42,32640,240
90,42,32640,240
79,42,32640,240
83,37,33120,240
86,37,33120,240
90,37,33120,240
79,37,33120,240
83,37,33480,120
86,37,33480,120
90,37,33480,120
79,37,33480,120
83,37,33600,480
86,37,33600,480
90,37,33600,480
79,37,33600,480
79,38,34080,60
83,38,34080,60
85,38,34320,60
83,38,34320,60
79,38,34320,60
83,42,34560,480
79,42,34560,480
86,42,34560,240
88,38,34800,240
83,39,35040,60
79,39,35040,60
85,39,35280,60
83,39,35280,60
79,39,35280,60
86,42,35520,240
83,42,35520,480
79,42,35520,480
88,39,35760,240
83,39,36000,60
79,39,36000,60
85,39,36240,60
83,39,36240,60
79,39,36240,60
86,44,36480,240
81,44,36480,240
79,44,36480,240
86,39,36960,240
78,39,36960,240
86,39,37320,120
78,39,37320,120
86,39,37440,240
78,39,37440,240
61,75,40320,120
64,75,40320,480
59,68,40440,120
61,68,40560,120
57,68,40680,60
62,68,40800,120
66,71,40800,480
59,68,41040,120
61,75,41280,120
64,75,41280,480
59,69,41400,120
61,69,41520,120
57,69,41640,60
62,68,41760,120
66,71,41760,480
59,68,42000,120
74,56,42480,240
78,56,42480,80
68,56,42480,240
80,56,42560,80
78,56,42640,80
76,60,42720,120
73,60,42720,120
69,60,42720,120
73,59,42960,120
76,59,42960,120
69,59,42960,120
76,59,43200,960
73,59,43200,960
69,59,43200,960
60,52,44160,480
64,52,44160,480
68,48,44640,240
72,48,44640,240
76,48,44640,240
68,47,44880,240
72,47,44880,240
76,47,44880,240
68,46,45120,480
72,46,45120,480
76,46,45120,480
72,34,45600,60
76,34,45600,60
76,34,45840,60
72,34,45840,60
77,34,45840,60
72,37,46080,480
76,37,46080,480
79,37,46080,240
81,34,46320,240
72,34,46560,60
76,34,46560,60
72,34,46800,60
76,34,46800,60
77,34,46800,60
71,38,47040,480
77,38,47040,480
79,38,47040,240
81,34,47280,240
67,34,47520,120
71,34,47520,120
76,34,47520,120
67,34,47760,120
71,34,47760,120
74,34,47760,120
74,35,47880,60
76,35,47940,60
64,39,48000,480
74,39,48000,240
72,34,48240,240
64,34,48480,120
72,34,48480,120
64,34,48720,120
72,34,48720,120
64,39,48960,360
72,39,48960,360
64,75,49920,120
67,75,49920,480
62,68,50040,120
64,68,50160,120
60,68,50280,60
65,68,50400,120
69,71,50400,480
62,68,50640,120
64,75,50880,120
67,75,50880,480
62,69,51000,120
64,69,51120,120
60,69,51240,60
65,68,51360,120
69,71,51360,480
62,68,51600,120
77,56,52080,240
81,56,52080,80
71,56,52080,240
83,56,52160,80
81,56,52240,80
79,60,52320,120
76,60,52320,120
72,60,52320,120
76,59,52560,120
79,59,52560,120
72,59,52560,120
79,59,52800,960
76,59,52800,960
72,59,52800,960
63,52,53760,480
67,52,53760,480
71,48,54240,240
75,48,54240,240
79,48,54240,240
71,47,54480,240
75,47,54480,240
79,47,54480,240
71,46,54720,480
75,46,54720,480
79,46,54720,480
75,34,55200,60
79,34,55200,60
79,34,55440,120
75,34,55440,120
80,34,55440,120
75,37,55680,480
79,37,55680,480
82,37,55680,240
84,34,55920,240
75,34,56160,60
79,34,56160,60
75,34,56400,60
79,34,56400,60
80,34,56400,60
74,38,56640,480
80,38,56640,480
82,38,56640,240
84,34,56880,240
70,34,57120,120
74,34,57120,120
79,34,57120,120
70,34,57360,120
74,34,57360,120
77,34,57360,120
77,35,57480,60
79,35,57540,60
67,39,57600,480
77,39,57600,240
75,34,57840,240
67,34,58080,120
75,34,58080,120
67,34,58320,120
75,34,58320,120
67,39,58560,480
75,39,58560,480
55,25,59160,120
61,28,59160,120
63,29,59400,120
61,25,59400,120
55,25,59400,120
55,25,59640,120
61,25,59640,120
65,34,59640,120
55,26,59880,120
61,26,59880,120
67,33,59880,120
55,27,60120,120
61,31,60120,120
63,31,60360,120
55,27,60360,120
61,27,60360,120
55,28,60600,120
61,28,60600,120
65,36,60600,120
55,28,60840,120
61,28,60840,120
67,33,60840,120
55,29,61080,120
61,34,61080,120
63,34,61320,120
55,30,61320,120
61,30,61320,120
55,29,61560,120
61,29,61560,120
65,39,61560,120
68,42,61800,120
55,31,62040,120
61,31,62040,120
67,38,62040,120
63,38,62280,120
55,31,62280,120
61,31,62280,120
55,31,62520,120
61,31,62520,120
65,39,62520,120
55,32,62760,120
61,38,62760,120
56,36,63000,120
63,36,63000,120
63,35,63240,120
65,35,63240,120
56,35,63240,120
56,30,63480,120
63,30,63480,120
67,40,63480,120
56,31,63720,120
63,31,63720,120
68,39,63720,120
56,31,63960,120
63,36,63960,120
63,36,64200,120
56,31,64200,120
65,31,64200,120
56,32,64440,120
63,32,64440,120
67,41,64440,120
56,32,64680,120
63,32,64680,120
68,39,64680,120
56,34,64920,120
63,39,64920,120
63,39,65160,120
56,34,65160,120
65,34,65160,120
56,34,65400,120
63,34,65400,120
67,44,65400,120
70,48,65640,120
56,36,65880,120
63,36,65880,120
68,44,65880,120
63,44,66120,120
56,36,66120,120
65,36,66120,120
56,36,66360,120
63,36,66360,120
67,45,66360,120
56,36,66600,120
63,43,66600,120
60,48,66840,120
66,48,66840,120
66,44,67080,120
68,44,67080,120
60,44,67080,120
60,47,67320,120
66,47,67320,120
70,47,67320,120
60,37,67560,120
66,37,67560,120
72,46,67560,120
60,48,67800,120
66,48,67800,120
66,44,68040,120
60,37,68040,120
68,37,68040,120
60,47,68280,120
66,47,68280,120
70,47,68280,120
60,37,68520,120
66,37,68520,120
72,45,68520,120
60,47,68760,120
66,47,68760,120
66,46,69000,120
60,46,69000,120
68,46,69000,120
60,56,69240,120
66,56,69240,120
70,56,69240,120
73,50,69480,120
60,55,69720,120
66,55,69720,120
72,55,69720,120
68,48,69960,120
60,40,69960,120
66,40,69960,120
60,40,70200,120
66,40,70200,120
70,50,70200,120
60,40,70440,120
66,47,70440,120
61,59,70680,120
68,59,70680,120
68,52,70920,120
70,52,70920,120
61,52,70920,120
61,57,71160,120
68,57,71160,120
72,57,71160,120
61,55,71400,120
68,55,71400,120
73,55,71400,120
61,59,71640,120
68,59,71640,120
68,53,71880,120
61,53,71880,120
70,53,71880,120
61,59,72120,120
68,59,72120,120
72,59,72120,120
61,55,72360,120
68,55,72360,120
73,55,72360,120
61,59,72600,120
68,59,72600,120
68,57,72840,120
61,57,72840,120
70,57,72840,120
61,64,73080,120
68,64,73080,120
72,64,73080,120
75,64,73320,120
61,62,73560,120
68,62,73560,120
73,62,73560,120
70,59,73800,120
61,48,73800,120
68,48,73800,120
61,48,74040,120
68,48,74040,120
72,61,74040,120
61,48,74280,120
68,57,74280,120
62,71,74520,120
68,71,74520,120
68,63,74760,120
62,63,74760,120
70,63,74760,120
62,70,75000,120
68,70,75000,120
72,70,75000,120
75,75,75240,120
62,69,75480,120
68,69,75480,120
74,69,75480,120
70,63,75720,120
62,52,75720,120
68,52,75720,120
62,52,75960,120
68,52,75960,120
72,66,75960,120
68,62,76200,120
74,70,76440,120
72,70,76440,120
68,70,76440,120
68,66,76680,120
75,66,76680,120
72,66,76680,120
77,72,76920,120
68,72,76920,120
72,72,76920,120
80,81,77160,120
79,80,77400,120
68,80,77400,120
72,80,77400,120
72,72,77640,120
75,72,77640,120
68,72,77640,120
77,80,77880,120
68,80,77880,120
72,80,77880,120
74,66,78120,120
77,75,78360,120
79,75,78600,120
80,81,78840,120
84,75,79080,120
80,75,79320,120
77,75,79560,120
80,81,79800,120
77,75,80040,120
74,75,80280,120
77,75,80520,120
74,81,80760,120
70,75,81000,120
74,75,81240,120
70,75,81480,120
67,81,81720,120
70,75,81960,120
67,75,82200,120
63,75,82440,120
67,85,82680,120
63,80,82920,120
60,80,83160,120
63,80,83400,120
60,93,83640,120
56,86,83880,120
60,89,84120,120
56,103,84360,120
55,108,84480,1920
68,93,84960,480
56,83,84960,480
60,83,84960,480
63,83,84960,480
80,93,85440,480
75,83,85440,480
68,83,85440,480
72,83,85440,480
92,91,85920,480
87,81,85920,480
84,81,85920,480
80,81,85920,480
54,108,86400,1920
68,93,86880,480
56,83,86880,480
60,83,86880,480
63,83,86880,480
80,93,87360,480
75,83,87360,480
68,83,87360,480
72,83,87360,480
92,91,87840,480
87,81,87840,480
84,81,87840,480
80,81,87840,480
53,111,88320,1920
68,93,88800,480
56,83,88800,480
59,83,88800,480
63,83,88800,480
80,93,89280,480
75,83,89280,480
68,83,89280,480
71,83,89280,480
92,91,89760,480
87,81,89760,480
83,81,89760,480
80,81,89760,480
52,111,90240,1920
57,83,90720,480
69,93,90720,480
55,83,90720,480
61,83,90720,480
67,93,90720,480
67,83,91200,480
81,93,91200,480
79,93,91200,480
69,83,91200,480
73,83,91200,480
81,78,91680,240
93,86,91680,240
91,86,91680,240
85,78,91680,240
79,78,91680,240
81,88,91920,80
83,88,92000,80
81,88,92080,80
78,97,92160,480
81,97,92400,240
81,90,92640,120
86,101,92640,120
78,90,92640,120
81,83,92880,120
90,93,92880,120
78,83,92880,120
81,75,93120,480
88,102,93120,240
78,75,93120,480
86,93,93360,240
74,89,93600,120
78,93,93600,120
74,81,93840,120
81,90,93840,120
78,81,93840,120
74,85,94080,240
83,95,94080,240
81,85,94080,240
78,85,94080,240
74,77,94560,240
83,86,94560,240
81,77,94560,240
78,77,94560,240
74,77,94920,120
83,86,94920,120
81,77,94920,120
78,77,94920,120
74,77,95040,480
83,86,95040,480
81,86,95040,480
78,77,95040,480
74,90,95520,120
78,90,95520,120
74,90,95760,120
80,90,95760,120
78,90,95760,120
74,87,96000,480
78,87,96000,480
81,97,96000,240
83,89,96240,240
78,93,96480,120
74,93,96480,120
80,90,96720,120
78,90,96720,120
74,90,96720,120
81,97,96960,240
74,87,96960,480
78,87,96960,480
83,89,97200,240
74,93,97440,120
78,93,97440,120
80,93,97680,120
74,93,97680,120
78,93,97680,120
69,87,97920,240
74,87,97920,240
76,87,97920,240
81,97,97920,240
76,75,98400,240
69,75,98400,240
73,75,98400,240
81,84,98400,240
69,75,98760,120
76,75,98760,120
73,75,98760,120
81,84,98760,120
69,75,98880,480
76,75,98880,480
73,75,98880,480
81,84,98880,480
85,89,99600,80
86,89,99680,80
85,89,99760,80
83,96,99840,480
86,96,100080,240
86,89,100320,120
91,99,100320,120
83,89,100320,120
86,81,100560,120
95,91,100560,120
83,81,100560,120
93,97,100800,240
83,76,100800,480
91,86,101040,240
83,86,101280,120
79,76,101280,120
83,76,101520,120
86,86,101520,120
79,76,101520,120
90,90,101760,240
86,80,101760,240
83,80,101760,240
79,80,101760,240
90,80,102240,240
86,72,102240,240
83,72,102240,240
79,72,102240,240
90,80,102600,120
86,72,102600,120
83,72,102600,120
79,72,102600,120
90,80,102720,480
86,72,102720,480
83,72,102720,480
79,72,102720,480
83,86,103200,120
79,86,103200,120
85,86,103440,120
83,86,103440,120
79,86,103440,120
86,96,103680,240
79,86,103680,480
83,86,103680,480
88,86,103920,240
83,91,104160,120
79,91,104160,120
85,89,104400,120
83,89,104400,120
79,89,104400,120
86,96,104640,240
83,86,104640,480
79,86,104640,480
88,89,104880,240
83,91,105120,120
79,91,105120,120
85,91,105360,120
83,91,105360,120
79,91,105360,120
74,84,105600,240
86,94,105600,240
81,84,105600,240
79,84,105600,240
81,73,106080,240
74,73,106080,240
86,81,106080,240
78,73,106080,240
81,73,106440,120
74,73,106440,120
86,81,106440,120
78,73,106440,120
81,73,106560,240
74,73,106560,240
86,81,106560,240
78,73,106560,240
71,44,109440,240
59,30,109440,960
62,30,109440,960
69,46,109680,480
67,42,110160,240
59,30,110400,960
62,30,110400,960
66,44,110400,960
69,44,111360,240
57,30,111360,960
60,30,111360,960
67,46,111600,480
66,40,112080,240
57,30,112320,960
60,30,112320,960
64,44,112320,960
67,45,113280,240
55,31,113280,960
59,31,113280,960
66,46,113520,480
64,40,114000,240
55,34,114240,960
62,31,114240,960
67,46,114240,960
66,45,115200,240
55,44,115200,960
61,44,115200,960
64,46,115440,480
66,42,115920,240
54,44,116160,960
62,44,116160,960
64,40,117120,960
71,40,117120,960
76,56,117120,240
74,55,117360,480
72,44,117840,240
64,40,118080,960
67,40,118080,960
71,45,118080,960
62,36,119040,960
69,36,119040,960
74,51,119040,240
72,55,119280,480
71,44,119760,240
62,38,120000,960
66,38,120000,960
69,45,120000,960
60,36,120960,960
67,36,120960,960
72,52,120960,240
71,55,121200,480
69,47,121680,240
78,61,121920,600
67,35,121920,960
72,35,121920,960
81,55,122520,120
79,44,122640,80
76,44,122720,80
72,44,122800,80
60,37,122880,960
66,37,122880,960
71,46,122880,240
69,48,123120,480
71,39,123600,240
60,40,123840,240
67,30,123840,960
59,37,124080,420
71,27,124680,1080
75,27,124740,1020
83,42,124800,240
82,45,125040,480
80,40,125520,120
71,27,125640,120
75,27,125700,60
82,44,125760,840
71,27,126600,120
75,27,126660,60
82,42,126720,240
80,45,126960,480
78,40,127440,120
71,27,127560,120
75,27,127620,60
80,42,127680,960
72,29,128640,960
80,42,128640,240
79,47,128880,480
78,42,129360,240
73,37,129600,240
77,50,129600,480
72,39,129840,480
76,44,130080,480
71,35,130320,240
70,31,130560,960
75,38,130560,240
73,42,130800,480
75,42,131280,240
66,30,131520,660
71,30,131520,660
67,23,132360,1080
71,23,132420,1020
79,37,132480,240
78,39,132720,480
76,36,133200,120
67,23,133320,120
71,23,133380,60
78,38,133440,840
67,23,134280,120
71,23,134340,60
78,37,134400,240
76,39,134640,480
74,36,135120,120
67,23,135240,120
71,23,135300,60
76,38,135360,960
68,27,136320,960
76,39,136320,240
75,45,136560,480
74,39,137040,240
69,35,137280,240
73,47,137280,480
68,37,137520,480
72,40,137760,480
67,31,138000,240
66,29,138240,960
71,36,138240,240
69,39,138480,480
66,39,138960,240
62,28,139200,960
71,35,140160,240
59,26,140160,960
62,26,140160,960
69,36,140400,480
67,34,140880,240
59,26,141120,960
62,26,141120,960
66,36,141120,960
69,36,142080,240
57,26,142080,960
60,26,142080,960
67,38,142320,480
66,35,142800,240
57,26,143040,960
60,26,143040,960
64,36,143040,960
67,37,144000,240
55,27,144000,960
59,27,144000,960
66,38,144240,480
64,35,144720,240
55,27,144960,960
62,27,144960,960
67,27,144960,960
66,37,145920,240
55,36,145920,960
61,36,145920,960
64,38,146160,480
66,35,146640,240
54,36,146880,960
62,36,146880,960
64,35,147840,960
71,35,147840,960
76,47,147840,240
74,46,148080,480
72,36,148560,240
64,35,148800,960
67,35,148800,960
71,38,148800,960
62,29,149760,960
69,29,149760,960
74,42,149760,240
72,46,150000,480
71,36,150480,240
62,31,150720,960
66,31,150720,960
69,38,150720,960
60,29,151680,960
67,29,151680,960
72,44,151680,240
71,46,151920,480
69,39,152400,240
78,51,152640,600
67,28,152640,960
72,28,152640,960
81,46,153240,120
79,36,153360,80
76,36,153440,80
72,36,153520,80
60,30,153600,960
66,30,153600,960
71,38,153600,240
69,40,153840,480
71,34,154320,240
60,35,154560,240
67,26,154560,960
59,30,154800,480
71,27,155400,1080
75,27,155460,1020
83,42,155520,240
82,45,155760,480
80,40,156240,120
71,27,156360,120
75,27,156420,60
82,42,156480,840
71,27,157320,120
75,27,157380,60
82,42,157440,240
80,45,157680,480
78,40,158160,120
71,27,158280,120
75,27,158340,60
80,42,158400,960
72,29,159360,960
80,42,159360,240
79,47,159600,480
78,42,160080,240
73,37,160320,240
77,50,160320,480
72,39,160560,480
76,44,160800,480
71,35,161040,240
70,31,161280,960
75,38,161280,240
73,42,161520,480
75,42,162000,240
66,30,162240,660
71,30,162240,660
67,23,163080,1080
71,23,163140,1020
79,37,163200,240
78,39,163440,480
76,36,163920,120
67,23,164040,120
71,23,164100,60
78,38,164160,840
67,23,165000,120
71,23,165060,60
78,37,165120,240
76,39,165360,480
74,36,165840,120
67,23,165960,120
71,23,166020,60
76,38,166080,960
68,27,167040,960
76,39,167040,240
75,45,167280,480
74,39,167760,240
69,35,168000,240
73,47,168000,480
68,37,168240,480
72,40,168480,480
67,31,168720,240
66,29,168960,960
71,36,168960,240
69,39,169200,480
66,39,169680,240
62,28,169920,960
71,35,170880,240
59,26,170880,960
62,26,170880,960
69,36,171120,480
67,34,171600,240
59,26,171840,960
62,26,171840,960
66,36,171840,960
69,36,172800,240
57,26,172800,960
60,26,172800,960
67,38,173040,480
66,35,173520,240
57,26,173760,960
60,26,173760,960
64,37,173760,960
67,37,174720,240
55,27,174720,960
59,27,174720,960
66,38,174960,480
64,35,175440,240
55,27,175680,960
62,27,175680,960
67,27,175680,960
66,37,176640,240
55,36,176640,960
61,36,176640,960
64,38,176880,480
66,35,177360,240
54,36,177600,960
62,36,177600,960
64,35,178560,960
71,35,178560,960
76,47,178560,240
74,46,178800,480
72,36,179280,240
64,35,179520,960
67,35,179520,960
71,38,179520,960
62,29,180480,960
69,29,180480,960
74,42,180480,240
72,46,180720,480
71,36,181200,240
62,31,181440,960
66,31,181440,960
69,38,181440,960
60,29,182400,960
67,29,182400,960
72,44,182400,240
71,46,182640,480
69,39,183120,240
78,51,183360,600
67,28,183360,960
72,28,183360,960
81,46,183960,120
79,36,184080,80
76,36,184160,80
72,36,184240,80
60,30,184320,960
66,30,184320,960
71,38,184320,240
69,40,184560,480
71,34,185040,240
60,35,185280,240
67,26,185280,960
59,30,185520,480
50,31,186720,240
57,31,186720,240
50,31,186960,240
57,31,186960,240
50,36,187200,240
57,36,187200,240
50,31,188640,240
57,31,188640,240
50,31,188880,240
57,31,188880,240
50,35,189120,240
57,35,189120,240
69,39,189840,80
71,39,189920,80
69,41,190000,80
66,44,190080,480
69,44,190320,240
74,45,190560,60
66,42,190560,60
78,42,190800,60
66,45,190800,60
76,45,191040,240
66,37,191040,480
74,42,191280,240
66,42,191520,60
69,41,191760,60
66,41,191760,60
71,45,192000,240
69,45,192000,240
66,45,192000,240
71,41,192480,240
69,41,192480,240
66,41,192480,240
71,41,192840,120
69,41,192840,120
66,41,192840,120
71,41,192960,480
69,41,192960,480
66,41,192960,480
62,42,193440,60
66,42,193440,60
62,42,193680,60
68,42,193680,60
66,42,193680,60
62,45,193920,480
66,45,193920,480
69,45,193920,240
71,42,194160,240
66,44,194400,60
62,44,194400,60
68,44,194640,60
66,44,194640,60
62,44,194640,60
69,45,194880,240
62,45,194880,480
66,45,194880,480
71,42,195120,240
62,44,195360,60
66,44,195360,60
68,44,195600,60
62,44,195600,60
66,44,195600,60
62,47,195840,240
64,47,195840,240
69,47,195840,240
61,42,196320,240
69,42,196320,240
61,42,196680,120
69,42,196680,120
61,42,196800,240
69,42,196800,240
73,44,197520,80
74,44,197600,80
73,44,197680,80
71,47,197760,480
74,47,198000,240
79,49,198240,60
71,49,198240,60
83,45,198480,60
71,45,198480,60
81,48,198720,240
71,41,198720,480
79,42,198960,240
71,42,199200,60
67,42,199200,60
71,42,199440,60
74,42,199440,60
67,42,199440,60
78,46,199680,240
74,46,199680,240
71,46,199680,240
67,46,199680,240
78,42,200160,240
74,42,200160,240
71,42,200160,240
67,42,200160,240
78,42,200520,120
74,42,200520,120
71,42,200520,120
67,42,200520,120
78,42,200640,480
74,42,200640,480
71,42,200640,480
67,42,200640,480
71,42,201120,60
67,42,201120,60
73,42,201360,60
71,42,201360,60
67,42,201360,60
74,46,201600,240
67,46,201600,480
71,46,201600,480
76,42,201840,240
71,45,202080,60
67,45,202080,60
73,45,202320,60
71,45,202320,60
67,45,202320,60
74,47,202560,240
71,47,202560,480
67,47,202560,480
76,44,202800,240
71,45,203040,60
67,45,203040,60
73,45,203280,60
71,45,203280,60
67,45,203280,60
74,49,203520,240
69,49,203520,240
67,49,203520,240
74,45,204000,240
66,45,204000,240
74,45,204360,120
66,45,204360,120
74,45,204480,240
66,45,204480,240
62,27,205920,240
69,27,205920,240
62,27,206160,240
69,27,206160,240
62,33,206400,240
69,33,206400,240
62,27,207840,240
69,27,207840,240
62,27,208080,240
69,27,208080,240
62,31,208320,240
69,31,208320,240
81,35,209040,80
83,35,209120,80
81,36,209200,80
78,39,209280,480
81,39,209520,240
86,39,209760,60
78,39,209760,60
90,37,210000,60
78,37,210000,60
88,41,210240,240
78,33,210240,480
86,37,210480,240
78,37,210720,60
81,36,210960,60
78,36,210960,60
83,39,211200,240
81,39,211200,240
78,39,211200,240
83,37,211680,240
81,37,211680,240
78,37,211680,240
83,37,212040,120
81,37,212040,120
78,37,212040,120
83,37,212160,480
81,37,212160,480
78,37,212160,480
74,38,212640,60
78,38,212640,60
74,38,212880,60
80,38,212880,60
78,38,212880,60
74,41,213120,480
78,41,213120,480
81,41,213120,240
83,37,213360,240
78,39,213600,60
74,39,213600,60
80,38,213840,60
78,38,213840,60
74,38,213840,60
81,41,214080,240
74,41,214080,480
78,41,214080,480
83,37,214320,240
74,39,214560,60
78,39,214560,60
80,39,214800,60
74,39,214800,60
78,39,214800,60
74,41,215040,240
76,41,215040,240
81,41,215040,240
73,38,215520,240
81,38,215520,240
73,38,215880,120
81,38,215880,120
73,38,216000,240
81,38,216000,240
85,39,216720,80
86,39,216800,80
85,39,216880,80
83,42,216960,480
86,42,217200,240
91,44,217440,60
83,44,217440,60
95,39,217680,60
83,39,217680,60
93,42,217920,240
83,37,217920,480
91,38,218160,240
83,38,218400,60
79,38,218400,60
83,38,218640,60
86,38,218640,60
79,38,218640,60
90,42,218880,240
86,42,218880,240
83,42,218880,240
79,42,218880,240
90,37,219360,240
86,37,219360,240
83,37,219360,240
79,37,219360,240
90,37,219720,120
86,37,219720,120
83,37,219720,120
79,37,219720,120
90,37,219840,480
86,37,219840,480
83,37,219840,480
79,37,219840,480
83,38,220320,60
79,38,220320,60
85,38,220560,60
83,38,220560,60
79,38,220560,60
86,42,220800,240
79,42,220800,480
83,42,220800,480
88,38,221040,240
83,39,221280,60
79,39,221280,60
85,39,221520,60
83,39,221520,60
79,39,221520,60
86,42,221760,240
83,42,221760,480
79,42,221760,480
88,39,222000,240
83,39,222240,60
79,39,222240,60
85,39,222480,60
83,39,222480,60
79,39,222480,60
86,44,222720,240
81,44,222720,240
79,44,222720,240
86,39,223200,240
78,39,223200,240
86,39,223560,120
78,39,223560,120
86,39,223680,240
78,39,223680,240
61,75,226560,120
64,75,226560,480
59,68,226680,120
61,68,226800,120
57,68,226920,60
62,68,227040,120
66,71,227040,480
59,68,227280,120
61,75,227520,120
64,75,227520,480
59,69,227640,120
61,69,227760,120
57,69,227880,60
62,68,228000,120
66,71,228000,480
59,68,228240,120
74,56,228720,240
78,56,228720,80
68,56,228720,240
80,56,228800,80
78,56,228880,80
76,60,228960,120
73,60,228960,120
69,60,228960,120
73,59,229200,120
76,59,229200,120
69,59,229200,120
76,59,229440,960
73,59,229440,960
69,59,229440,960
60,52,230400,480
64,52,230400,480
68,48,230880,240
72,48,230880,240
76,48,230880,240
68,47,231120,240
72,47,231120,240
76,47,231120,240
68,46,231360,480
72,46,231360,480
76,46,231360,480
72,34,231840,120
76,34,231840,120
76,34,232080,120
72,34,232080,120
77,34,232080,120
72,37,232320,480
76,37,232320,480
79,37,232320,240
81,34,232560,240
72,34,232800,120
76,34,232800,120
72,34,233040,120
76,34,233040,120
77,34,233040,120
71,38,233280,480
77,38,233280,480
79,38,233280,240
81,34,233520,240
67,34,233760,120
71,34,233760,120
76,34,233760,120
67,34,234000,120
71,34,234000,120
74,34,234000,120
74,35,234120,60
76,35,234180,60
64,39,234240,480
74,39,234240,240
72,34,234480,240
64,34,234720,120
72,34,234720,120
64,34,234960,120
72,34,234960,120
64,39,235200,360
72,39,235200,360
64,75,236160,120
67,75,236160,480
62,68,236280,120
64,68,236400,120
60,68,236520,60
65,68,236640,120
69,71,236640,480
62,68,236880,120
64,75,237120,120
67,75,237120,480
62,69,237240,120
64,69,237360,120
60,69,237480,60
65,68,237600,120
69,71,237600,480
62,68,237840,120
77,56,238320,240
81,56,238320,80
71,56,238320,240
83,56,238400,80
81,56,238480,80
79,60,238560,120
76,60,238560,120
72,60,238560,120
76,59,238800,120
79,59,238800,120
72,59,238800,120
79,59,239040,960
76,59,239040,960
72,59,239040,960
63,52,240000,480
67,52,240000,480
71,48,240480,240
75,48,240480,240
79,48,240480,240
71,47,240720,240
75,47,240720,240
79,47,240720,240
71,46,240960,480
75,46,240960,480
79,46,240960,480
75,34,241440,60
79,34,241440,60
79,34,241680,60
75,34,241680,60
80,34,241680,60
75,37,241920,480
79,37,241920,480
82,37,241920,240
84,34,242160,240
75,34,242400,60
79,34,242400,60
75,34,242640,60
79,34,242640,60
80,34,242640,60
74,38,242880,480
80,38,242880,480
82,38,242880,240
84,34,243120,240
70,34,243360,120
74,34,243360,120
79,34,243360,120
70,34,243600,120
74,34,243600,120
77,34,243600,120
77,35,243720,60
79,35,243780,60
67,39,243840,480
77,39,243840,240
75,34,244080,240
67,34,244320,120
75,34,244320,120
67,34,244560,120
75,34,244560,120
67,39,244800,480
75,39,244800,480
55,25,245400,120
61,28,245400,120
63,29,245640,120
61,25,245640,120
55,25,245640,120
55,25,245880,120
58,25,245880,120
65,34,245880,120
55,26,246120,120
61,26,246120,120
67,33,246120,120
55,27,246360,120
61,31,246360,120
63,31,246600,120
55,27,246600,120
61,27,246600,120
55,28,246840,120
61,28,246840,120
65,36,246840,120
55,28,247080,120
61,28,247080,120
67,33,247080,120
55,29,247320,120
61,34,247320,120
63,34,247560,120
55,30,247560,120
61,30,247560,120
55,29,247800,120
61,29,247800,120
65,39,247800,120
68,42,248040,120
55,31,248280,120
61,31,248280,120
67,38,248280,120
63,38,248520,120
55,31,248520,120
61,31,248520,120
55,31,248760,120
61,31,248760,120
65,39,248760,120
55,32,249000,120
61,38,249000,120
56,36,249240,120
63,36,249240,120
63,35,249480,120
65,35,249480,120
56,35,249480,120
56,30,249720,120
63,30,249720,120
67,40,249720,120
56,31,249960,120
63,31,249960,120
68,39,249960,120
56,31,250200,120
63,36,250200,120
63,36,250440,120
56,31,250440,120
65,31,250440,120
56,32,250680,120
63,32,250680,120
67,41,250680,120
56,32,250920,120
63,32,250920,120
68,39,250920,120
56,34,251160,120
63,39,251160,120
63,39,251400,120
56,35,251400,120
65,35,251400,120
56,34,251640,120
63,34,251640,120
67,44,251640,120
70,48,251880,120
56,36,252120,120
63,36,252120,120
68,44,252120,120
63,44,252360,120
56,36,252360,120
65,36,252360,120
56,36,252600,120
63,36,252600,120
67,45,252600,120
56,36,252840,120
63,43,252840,120
60,48,253080,120
66,48,253080,120
66,44,253320,120
68,44,253320,120
60,44,253320,120
60,47,253560,120
66,47,253560,120
70,47,253560,120
60,37,253800,120
66,37,253800,120
72,46,253800,120
60,48,254040,120
66,48,254040,120
66,44,254280,120
60,37,254280,120
68,37,254280,120
60,47,254520,120
66,47,254520,120
70,47,254520,120
60,37,254760,120
66,37,254760,120
72,45,254760,120
60,47,255000,120
66,47,255000,120
66,46,255240,120
60,46,255240,120
68,46,255240,120
60,56,255480,120
66,56,255480,120
70,56,255480,120
73,50,255720,120
60,55,255960,120
66,55,255960,120
72,55,255960,120
68,48,256200,120
60,40,256200,120
66,40,256200,120
60,40,256440,120
66,40,256440,120
70,50,256440,120
60,40,256680,120
66,47,256680,120
61,59,256920,120
68,59,256920,120
68,52,257160,120
70,52,257160,120
61,52,257160,120
61,57,257400,120
68,57,257400,120
72,57,257400,120
61,55,257640,120
68,55,257640,120
73,55,257640,120
61,59,257880,120
68,59,257880,120
68,53,258120,120
61,53,258120,120
70,53,258120,120
61,59,258360,120
68,59,258360,120
72,59,258360,120
61,55,258600,120
68,55,258600,120
73,55,258600,120
61,59,258840,120
68,59,258840,120
68,57,259080,120
61,57,259080,120
70,57,259080,120
61,64,259320,120
68,64,259320,120
72,64,259320,120
75,64,259560,120
61,62,259800,120
68,62,259800,120
73,62,259800,120
70,59,260040,120
61,48,260040,120
68,48,260040,120
61,48,260280,120
68,48,260280,120
72,61,260280,120
61,48,260520,120
68,57,260520,120
62,71,260760,120
68,71,260760,120
68,63,261000,120
62,63,261000,120
70,63,261000,120
62,70,261240,120
68,70,261240,120
72,70,261240,120
75,75,261480,120
62,69,261720,120
68,69,261720,120
74,69,261720,120
70,63,261960,120
62,52,261960,120
68,52,261960,120
62,52,262200,120
68,52,262200,120
72,66,262200,120
68,62,262440,120
74,70,262680,120
72,70,262680,120
68,70,262680,120
68,66,262920,120
75,66,262920,120
72,66,262920,120
77,72,263160,120
68,72,263160,120
72,72,263160,120
80,81,263400,120
79,80,263640,120
68,80,263640,120
72,80,263640,120
72,72,263880,120
75,72,263880,120
68,72,263880,120
77,80,264120,120
68,80,264120,120
72,80,264120,120
74,66,264360,120
77,75,264600,120
79,75,264840,120
80,81,265080,120
84,75,265320,120
80,75,265560,120
77,75,265800,120
80,81,266040,120
77,75,266280,120
74,75,266520,120
77,75,266760,120
74,81,267000,120
70,75,267240,120
74,75,267480,120
70,75,267720,120
67,81,267960,120
70,75,268200,120
67,75,268440,120
63,75,268680,120
67,85,268920,120
63,80,269160,120
60,80,269400,120
63,80,269640,120
60,93,269880,120
56,86,270120,120
60,89,270360,120
56,103,270600,120
55,108,270720,1920
68,93,271200,480
56,83,271200,480
60,83,271200,480
63,83,271200,480
80,93,271680,480
75,83,271680,480
68,83,271680,480
72,83,271680,480
92,91,272160,480
87,81,272160,480
84,81,272160,480
80,81,272160,480
54,108,272640,1920
68,93,273120,480
56,83,273120,480
60,83,273120,480
63,83,273120,480
80,93,273600,480
75,83,273600,480
68,83,273600,480
72,83,273600,480
92,91,274080,480
87,81,274080,480
84,81,274080,480
80,81,274080,480
53,111,274560,1920
68,93,275040,480
56,83,275040,480
59,83,275040,480
63,83,275040,480
80,93,275520,480
75,83,275520,480
68,83,275520,480
71,83,275520,480
92,91,276000,480
87,81,276000,480
83,81,276000,480
80,81,276000,480
52,111,276480,1920
57,83,276960,480
69,93,276960,480
55,83,276960,480
61,83,276960,480
67,93,276960,480
67,83,277440,480
81,93,277440,480
79,93,277440,480
69,83,277440,480
73,83,277440,480
81,78,277920,240
93,86,277920,240
91,86,277920,240
85,78,277920,240
79,78,277920,240
81,88,278160,80
83,88,278240,80
81,88,278320,80
78,97,278400,480
81,97,278640,240
81,90,278880,120
86,101,278880,120
78,90,278880,120
81,83,279120,120
90,93,279120,120
78,83,279120,120
81,75,279360,480
88,102,279360,240
78,75,279360,480
86,93,279600,240
74,90,279840,120
78,93,279840,120
74,81,280080,120
81,90,280080,120
78,81,280080,120
74,85,280320,240
83,95,280320,240
81,95,280320,240
78,85,280320,240
74,77,280800,240
83,86,280800,240
81,86,280800,240
78,77,280800,240
74,77,281160,120
83,86,281160,120
81,86,281160,120
78,77,281160,120
74,77,281280,480
83,86,281280,480
81,86,281280,480
78,77,281280,480
74,90,281760,120
78,90,281760,120
74,90,282000,120
80,90,282000,120
78,90,282000,120
74,87,282240,480
78,87,282240,480
81,97,282240,240
83,89,282480,240
78,93,282720,120
74,93,282720,120
80,90,282960,120
78,90,282960,120
74,90,282960,120
81,97,283200,240
74,87,283200,480
78,87,283200,480
83,89,283440,240
74,93,283680,120
78,93,283680,120
80,93,283920,120
74,93,283920,120
78,93,283920,120
69,87,284160,240
74,87,284160,240
76,87,284160,240
81,97,284160,240
76,75,284640,240
69,75,284640,240
73,75,284640,240
81,84,284640,240
69,75,285000,120
76,75,285000,120
73,75,285000,120
81,84,285000,120
69,75,285120,480
76,75,285120,480
73,75,285120,480
81,84,285120,480
85,89,285840,80
86,89,285920,80
85,89,286000,80
83,96,286080,480
86,96,286320,240
86,89,286560,120
91,99,286560,120
83,89,286560,120
86,81,286800,120
95,91,286800,120
83,81,286800,120
93,97,287040,240
83,76,287040,480
91,86,287280,240
83,86,287520,120
79,86,287520,120
83,86,287760,120
86,86,287760,120
79,76,287760,120
90,90,288000,240
86,80,288000,240
83,80,288000,240
79,80,288000,240
90,80,288480,240
86,72,288480,240
83,72,288480,240
79,72,288480,240
90,80,288840,120
86,72,288840,120
83,72,288840,120
79,72,288840,120
90,80,288960,480
86,72,288960,480
83,72,288960,480
79,72,288960,480
83,86,289440,120
79,86,289440,120
85,86,289680,120
83,86,289680,120
79,86,289680,120
86,96,289920,240
79,86,289920,480
83,86,289920,480
88,86,290160,240
83,91,290400,120
79,91,290400,120
85,89,290640,120
83,89,290640,120
79,89,290640,120
86,96,290880,240
83,86,290880,480
79,86,290880,480
88,89,291120,240
83,91,291360,120
79,91,291360,120
85,91,291600,120
83,91,291600,120
79,91,291600,120
74,84,291840,240
86,94,291840,240
81,84,291840,240
79,84,291840,240
81,73,292320,240
74,73,292320,240
86,81,292320,240
78,73,292320,240
81,73,292680,120
74,73,292680,120
86,81,292680,120
78,73,292680,120
81,73,292800,240
74,73,292800,240
86,81,292800,240
78,73,292800,240
86,71,293520,80
88,71,293600,80
86,71,293680,80
84,72,293880,120
78,72,293880,120
88,72,294120,120
84,72,294120,120
78,72,294120,120
86,72,294360,120
84,72,294360,120
78,72,294360,120
90,72,294600,120
84,72,294600,120
78,72,294600,120
84,72,294840,120
78,72,294840,120
88,72,295080,120
84,72,295080,120
78,72,295080,120
86,72,295320,120
84,72,295320,120
78,72,295320,120
90,72,295560,120
84,72,295560,120
78,72,295560,120
83,84,295680,240
81,84,295680,240
86,84,295680,240
83,72,296160,240
79,72,296160,240
86,72,296160,240
83,72,296520,120
86,72,296520,120
79,72,296520,120
83,72,296640,480
86,72,296640,480
79,72,296640,480
81,63,297360,80
83,63,297441,80
81,63,297519,80
79,64,297720,120
73,64,297720,120
83,64,297960,120
79,64,297960,120
73,64,297960,120
79,64,298200,120
81,64,298200,120
73,64,298200,120
85,64,298440,120
79,64,298440,120
73,64,298440,120
73,63,298680,120
79,63,298680,120
83,63,298920,120
79,63,298920,120
73,63,298920,120
73,63,299160,120
79,63,299160,120
81,63,299160,120
79,63,299400,120
85,63,299400,120
73,63,299400,120
81,70,299520,240
78,70,299520,240
76,70,299520,240
81,64,300000,240
78,64,300000,240
74,64,300000,240
81,64,300360,120
78,64,300360,120
74,64,300360,120
81,64,300480,480
78,64,300480,480
74,64,300480,480
74,50,301200,80
76,50,301280,80
74,50,301360,80
72,51,301560,120
66,51,301560,120
76,51,301800,120
72,51,301800,120
66,51,301800,120
72,51,302040,120
74,51,302040,120
66,51,302040,120
78,51,302280,120
72,51,302280,120
66,51,302280,120
66,50,302520,120
72,50,302520,120
76,50,302760,120
72,50,302760,120
66,50,302760,120
66,50,303000,120
72,50,303000,120
74,50,303000,120
72,50,303240,120
78,50,303240,120
66,50,303240,120
74,60,303360,240
71,60,303360,240
69,60,303360,240
74,51,303840,240
71,51,303840,240
67,51,303840,240
74,51,304200,120
71,51,304200,120
67,51,304200,120
74,51,304320,480
71,51,304320,480
67,51,304320,480
69,47,305040,80
71,47,305121,80
69,47,305199,80
67,47,305400,120
61,47,305400,120
71,47,305640,120
67,47,305640,120
61,47,305640,120
67,47,305880,120
69,47,305880,120
61,47,305880,120
73,47,306120,120
67,47,306120,120
61,47,306120,120
61,47,306360,120
67,47,306360,120
71,47,306600,120
67,47,306600,120
61,47,306600,120
61,47,306840,120
67,47,306840,120
69,47,306840,120
67,47,307080,120
73,47,307080,120
61,47,307080,120
69,55,307200,240
66,55,307200,240
64,55,307200,240
69,47,307680,240
66,47,307680,240
62,47,307680,240
69,47,308040,120
66,47,308040,120
62,47,308040,120
69,47,308160,480
66,47,308160,480
62,47,308160,480
62,45,309120,240
59,45,309120,240
57,45,309120,240
62,42,309600,240
59,42,309600,240
55,42,309600,240
62,42,309960,120
59,42,309960,120
55,42,309960,120
62,42,310080,480
59,42,310080,480
55,42,310080,480
52,35,311520,120
57,35,311520,120
54,35,311520,120
50,35,312480,120
57,35,312480,120
54,35,312480,120
45,35,313440,120
47,35,313440,120
50,35,313440,120
43,35,314400,120
47,35,314400,120
50,35,314400,120
50,35,315360,240
43,35,315360,240
62,35,316320,240
55,35,316320,240
74,37,317280,240
67,37,317280,240
86,39,318240,240
79,39,318240,240
86,39,319200,240
79,39,319200,240
67,37,320160,240
74,37,320160,240
55,35,321120,240
62,35,321120,240
43,34,322080,240
50,34,322080,240
31,30,323520,240
38,30,323520,240
86,126,324480,360
81,94,324480,360
78,93,324480,360
74,93,324480,360
38,36,0,240
45,36,0,240
38,31,1440,240
45,31,1440,240
45,31,1680,240
38,31,1680,240
38,36,1920,240
45,36,1920,240
38,31,3360,240
45,31,3360,240
45,31,3600,240
38,31,3600,240
45,35,3840,240
38,35,3840,240
50,31,4320,60
57,31,4320,60
50,31,4560,60
57,31,4560,60
50,35,4800,240
57,35,4800,240
38,31,5280,60
45,31,5280,60
38,31,5520,60
45,31,5520,60
45,35,5760,480
38,35,5760,480
50,33,6240,240
57,33,6240,240
50,33,6600,120
57,33,6600,120
57,33,6720,480
50,33,6720,480
35,34,7680,480
42,34,7680,480
54,31,8160,60
47,31,8160,60
47,31,8400,60
54,31,8400,60
40,34,8640,480
47,34,8640,480
52,31,9120,120
59,31,9120,120
52,31,9360,60
59,31,9360,60
33,35,9600,480
40,35,9600,480
57,33,10080,240
64,33,10080,240
64,33,10440,120
57,33,10440,120
64,33,10560,240
57,33,10560,240
43,39,11520,480
50,39,11520,480
62,38,12000,60
55,38,12000,60
55,38,12240,60
62,38,12240,60
55,41,12480,480
62,41,12480,480
40,36,13440,480
47,36,13440,480
59,34,13920,240
52,34,13920,240
52,34,14280,120
59,34,14280,120
52,36,14400,480
59,36,14400,480
45,39,15360,480
52,39,15360,480
64,36,15840,60
57,36,15840,60
57,36,16080,60
64,36,16080,60
57,39,16320,480
64,39,16320,480
45,39,17280,480
38,39,17280,480
69,36,17760,240
62,36,17760,240
69,36,18120,120
62,36,18120,120
62,36,18240,480
69,36,18240,480
50,27,18720,240
57,27,18720,240
50,27,18960,240
57,27,18960,240
50,31,19200,240
57,31,19200,240
50,27,20640,240
57,27,20640,240
50,27,20880,240
57,27,20880,240
57,30,21120,240
50,30,21120,240
50,27,22560,240
57,27,22560,240
50,27,22800,240
57,27,22800,240
50,31,23040,240
57,31,23040,240
62,27,23520,60
69,27,23520,60
69,27,23760,60
62,27,23760,60
62,31,24000,240
69,31,24000,240
57,27,24480,60
50,27,24480,60
57,27,24720,60
50,27,24720,60
50,31,24960,480
57,31,24960,480
62,30,25440,240
69,30,25440,240
62,30,25800,120
69,30,25800,120
69,30,25920,480
62,30,25920,480
47,30,26880,480
54,30,26880,480
66,27,27360,60
59,27,27360,60
59,27,27600,60
66,27,27600,60
52,30,27840,480
59,30,27840,480
64,27,28320,60
71,27,28320,60
71,27,28560,60
64,27,28560,60
57,30,28800,480
64,30,28800,480
69,28,29280,240
76,28,29280,240
76,28,29640,120
69,28,29640,120
76,28,29760,240
69,28,29760,240
55,35,30720,480
62,35,30720,480
67,33,31200,60
74,33,31200,60
74,33,31440,60
67,33,31440,60
67,36,31680,480
74,36,31680,480
52,33,32640,480
59,33,32640,480
71,29,33120,240
64,29,33120,240
64,29,33480,120
71,29,33480,120
71,33,33600,480
64,33,33600,480
57,34,34560,480
64,34,34560,480
76,33,35040,60
69,33,35040,60
69,33,35280,60
76,33,35280,60
69,35,35520,480
76,35,35520,480
69,34,36480,480
62,34,36480,480
81,33,36960,240
74,33,36960,240
81,33,37320,120
74,33,37320,120
74,33,37440,480
81,33,37440,480
45,80,38400,480
52,80,38400,480
45,72,38880,120
52,72,38880,120
52,72,39120,120
45,72,39120,120
45,80,39360,480
52,80,39360,480
45,72,39840,120
52,72,39840,120
45,72,40080,120
52,72,40080,120
45,71,40320,480
52,71,40320,480
45,64,40800,240
52,64,40800,240
45,64,41040,120
52,64,41040,120
45,71,41280,480
52,71,41280,480
45,64,41760,240
52,64,41760,240
45,64,42000,120
52,64,42000,120
56,59,44160,480
43,33,46080,120
52,33,46080,120
55,33,46200,120
60,33,46320,120
64,33,46440,120
43,33,47040,120
50,33,47040,120
55,33,47160,120
59,33,47280,120
65,33,47400,120
36,33,48000,480
43,33,48000,480
48,30,48480,120
55,30,48480,120
48,30,48720,120
55,30,48720,120
48,33,48960,360
55,33,48960,360
55,72,49440,120
48,72,49440,120
48,72,49680,120
55,72,49680,120
48,71,49920,480
55,71,49920,480
55,64,50400,240
48,64,50400,240
48,64,50640,120
55,64,50640,120
55,71,50880,480
48,71,50880,480
55,64,51360,240
48,64,51360,240
55,64,51600,120
48,64,51600,120
59,59,53760,480
46,33,55680,120
55,33,55680,120
58,33,55800,120
63,33,55920,120
67,33,56040,120
53,33,56640,120
46,33,56640,120
58,33,56760,120
62,33,56880,120
68,33,57000,120
46,33,57600,480
39,33,57600,480
58,30,58080,120
51,30,58080,120
58,30,58320,120
51,30,58320,120
58,33,58560,480
51,33,58560,480
46,27,59040,120
51,27,59040,120
39,23,59280,120
46,23,59520,120
51,23,59520,120
39,26,59760,120
46,29,60000,120
51,29,60000,120
39,27,60240,120
46,27,60480,120
51,27,60480,120
39,28,60720,120
46,35,60960,120
51,35,60960,120
39,30,61200,120
46,30,61440,120
51,30,61440,120
39,30,61680,120
46,36,61920,120
51,36,61920,120
39,33,62160,120
46,33,62400,120
51,33,62400,120
39,33,62640,120
48,33,62880,120
51,33,62880,120
39,30,63120,120
48,31,63360,120
51,31,63360,120
39,30,63600,120
48,34,63840,120
51,34,63840,120
39,31,64080,120
48,32,64320,120
51,32,64320,120
39,32,64560,120
48,40,64800,120
51,40,64800,120
39,34,65040,120
48,35,65280,120
51,35,65280,120
39,35,65520,120
48,42,65760,120
51,42,65760,120
39,37,66000,120
48,38,66240,120
51,38,66240,120
39,38,66480,120
44,44,66720,120
54,44,66720,120
39,42,66960,120
44,44,67200,120
54,44,67200,120
39,39,67440,120
44,45,67680,120
54,45,67680,120
39,42,67920,120
44,42,68160,120
54,42,68160,120
39,44,68400,120
44,48,68640,120
54,48,68640,120
39,42,68880,120
44,47,69120,120
54,47,69120,120
39,44,69360,120
44,50,69600,120
54,50,69600,120
39,46,69840,120
44,46,70080,120
54,46,70080,120
39,46,70320,120
44,50,70560,120
53,50,70560,120
39,46,70800,120
44,48,71040,120
53,48,71040,120
39,46,71280,120
44,51,71520,120
53,51,71520,120
39,47,71760,120
44,50,72000,120
53,50,72000,120
39,47,72240,120
44,60,72480,120
53,60,72480,120
39,50,72720,120
44,56,72960,120
53,56,72960,120
39,51,73200,120
44,59,73440,120
53,59,73440,120
39,53,73680,120
44,57,73920,120
53,57,73920,120
39,53,74160,120
39,60,74400,240
46,60,74400,240
53,60,74400,240
39,55,74640,240
46,55,74640,240
53,55,74640,240
39,57,74880,480
46,57,74880,480
53,57,74880,480
51,53,75360,240
58,53,75360,240
65,53,75360,240
51,53,75600,240
58,53,75600,240
65,53,75600,240
51,61,75840,480
58,61,75840,480
65,61,75840,480
39,59,76320,240
46,59,76320,240
53,59,76320,240
39,55,76560,240
46,55,76560,240
53,55,76560,240
39,59,76800,480
46,59,76800,480
53,59,76800,480
51,61,77280,240
58,61,77280,240
65,61,77280,240
51,56,77520,240
58,56,77520,240
65,56,77520,240
51,64,77760,480
58,64,77760,480
65,64,77760,480
65,75,78240,120
53,75,78240,120
55,75,78480,120
67,75,78480,120
68,82,78720,120
56,82,78720,120
72,75,78960,120
60,75,78960,120
68,75,79200,120
56,75,79200,120
65,75,79440,120
53,75,79440,120
68,82,79680,240
56,82,79680,240
65,75,79920,240
53,75,79920,240
62,75,80160,240
50,75,80160,240
53,75,80400,240
65,75,80400,240
50,82,80640,240
62,82,80640,240
46,75,80880,240
58,75,80880,240
62,75,81120,240
50,75,81120,240
46,75,81360,240
58,75,81360,240
43,82,81600,240
55,82,81600,240
46,75,81840,240
58,75,81840,240
43,75,82080,240
55,75,82080,240
39,75,82320,240
51,75,82320,240
43,85,82560,240
55,85,82560,240
39,79,82800,240
51,79,82800,240
36,79,83040,240
48,79,83040,240
39,79,83280,240
51,79,83280,240
36,85,83520,240
48,85,83520,240
32,81,83760,240
44,81,83760,240
36,86,84000,240
48,86,84000,240
32,95,84240,240
44,95,84240,240
31,90,84480,1920
43,107,84480,1920
51,88,84960,480
48,74,84960,480
44,74,84960,480
63,88,85440,480
60,74,85440,480
56,74,85440,480
75,88,85920,480
72,74,85920,480
68,74,85920,480
30,90,86400,1920
42,107,86400,1920
51,88,86880,480
48,74,86880,480
44,74,86880,480
63,88,87360,480
60,74,87360,480
56,74,87360,480
75,88,87840,480
72,74,87840,480
68,74,87840,480
29,93,88320,1920
41,110,88320,1920
51,88,88800,480
47,74,88800,480
44,74,88800,480
63,88,89280,480
59,74,89280,480
56,74,89280,480
75,88,89760,480
71,74,89760,480
68,74,89760,480
28,93,90240,1920
40,110,90240,960
49,88,90720,480
45,74,90720,480
40,74,90720,480
57,74,91200,480
61,88,91200,480
52,74,91200,480
73,88,91680,240
69,74,91680,240
64,74,91680,240
38,79,92160,120
45,79,92160,120
50,68,92280,120
54,68,92400,120
57,68,92520,120
62,70,92640,96
57,70,92736,96
54,69,92832,96
50,68,92928,96
45,68,93024,96
38,64,93120,96
45,69,93216,96
50,70,93312,96
54,71,93408,96
57,73,93504,96
62,75,93600,240
38,77,94080,240
45,77,94080,240
50,77,94080,240
62,68,94320,480
57,68,94320,480
54,68,94320,480
66,68,94800,480
62,68,94800,480
57,68,94800,480
69,68,95280,240
66,68,95280,240
62,68,95280,240
35,66,96000,80
42,59,96080,80
47,59,96160,80
50,59,96240,80
54,59,96320,80
59,59,96400,80
62,59,96480,240
40,66,96960,96
47,59,97056,96
52,59,97152,96
56,59,97248,96
62,59,97344,96
66,59,97440,240
33,75,97920,240
40,75,97920,240
45,75,97920,240
61,64,98160,480
57,64,98160,480
52,64,98160,480
64,64,98640,480
61,64,98640,480
57,64,98640,480
69,64,99120,240
64,64,99120,240
61,64,99120,240
43,65,99840,120
50,65,99840,120
55,57,99960,120
59,57,100080,120
62,57,100200,120
67,65,100320,96
62,59,100416,96
59,58,100512,96
55,58,100608,96
50,57,100704,96
43,56,100800,96
47,56,100896,96
55,57,100992,96
59,57,101088,96
62,57,101184,96
67,57,101280,240
40,73,101760,240
47,73,101760,240
52,73,101760,240
66,62,102000,480
62,62,102000,480
59,62,102000,480
55,62,102000,480
67,62,102480,480
66,62,102480,480
62,62,102480,480
59,62,102480,480
71,62,102960,240
67,62,102960,240
66,62,102960,240
62,62,102960,240
45,69,103680,96
52,60,103776,96
57,60,103872,96
62,60,103968,96
67,60,104064,96
71,60,104160,240
45,69,104640,96
52,60,104736,96
57,60,104832,96
62,60,104928,96
67,60,105024,96
71,60,105120,240
38,75,105600,240
45,75,105600,240
50,75,105600,240
66,64,105840,480
62,64,105840,480
57,64,105840,480
69,64,106320,480
66,64,106320,480
62,64,106320,480
66,62,106800,240
69,62,106800,240
74,62,106800,240
43,44,107520,960
50,44,107520,960
43,44,108480,960
50,44,108480,960
43,30,109440,960
50,30,109440,960
59,44,110400,240
43,30,110400,960
50,30,110400,960
57,45,110640,480
55,40,111120,240
43,27,111360,960
50,27,111360,960
54,42,111360,960
57,44,112320,240
43,30,112320,960
50,30,112320,960
55,46,112560,480
54,40,113040,240
52,42,113280,960
43,27,113280,960
50,27,113280,960
55,44,114240,240
40,37,114240,960
54,46,114480,480
52,42,114960,240
33,44,115200,960
45,44,115200,960
38,50,116160,240
45,50,116160,240
62,55,116400,480
50,55,116400,480
49,55,116880,240
61,55,116880,240
48,40,117120,960
55,40,117120,960
60,40,117120,960
55,34,118080,960
52,31,118080,240
64,31,118080,240
50,36,118320,480
62,36,118320,480
48,28,118800,240
60,28,118800,240
47,31,119040,960
54,31,119040,960
59,31,119040,960
54,36,120000,960
50,31,120000,240
62,31,120000,240
48,36,120240,480
60,36,120240,480
47,29,120720,240
59,29,120720,240
45,30,120960,960
52,30,120960,960
57,30,120960,960
33,55,121920,960
60,57,121920,240
59,51,122160,480
57,45,122640,240
38,40,122880,960
50,40,122880,960
43,30,123840,660
50,30,123840,660
54,27,124500,4140
63,27,124560,4080
66,27,124620,4020
71,29,125760,240
70,29,126000,480
68,27,126480,240
70,27,126720,960
70,29,127680,240
68,29,127920,480
66,27,128400,240
63,29,128640,960
66,29,128640,960
61,34,129600,960
68,34,129600,960
64,31,130560,960
54,31,130560,960
64,31,131520,240
59,25,131520,960
63,31,131760,420
50,23,132180,4140
59,23,132240,240
62,23,132300,4020
67,29,133440,240
66,29,133680,480
64,27,134160,240
66,27,134400,960
66,29,135360,240
64,29,135600,480
62,27,136080,240
59,27,136320,960
62,27,136320,960
57,30,137280,960
64,30,137280,960
60,29,138240,960
50,29,138240,960
59,29,139200,240
57,29,139440,480
54,29,139920,240
43,23,140160,480
50,23,140160,480
74,34,140640,480
59,29,141120,240
43,26,141120,960
50,26,141120,960
57,35,141360,480
55,31,141840,240
43,22,142080,480
50,22,142080,480
54,22,142080,480
74,35,142560,480
57,29,143040,240
43,26,143040,960
50,26,143040,960
55,36,143280,480
54,31,143760,240
52,22,144000,480
43,22,144000,480
50,22,144000,480
74,34,144480,360
40,30,144840,1080
55,34,144960,240
54,36,145200,480
52,31,145680,240
33,36,145920,480
45,36,145920,480
69,36,146400,480
38,42,146880,240
45,42,146880,240
62,46,147120,480
50,46,147120,480
49,46,147600,240
61,46,147600,240
48,35,147840,480
55,35,147840,480
60,35,147840,480
79,46,148320,480
55,22,148800,960
52,23,148800,240
64,23,148800,240
50,31,149040,480
62,31,149040,480
48,25,149520,240
60,25,149520,240
47,27,149760,480
54,27,149760,480
59,27,149760,480
78,46,150240,480
54,22,150720,960
50,23,150720,240
62,23,150720,240
48,31,150960,480
60,31,150960,480
47,25,151440,240
59,25,151440,240
45,26,151680,480
52,26,151680,480
57,26,151680,480
76,44,152160,360
33,56,152520,1080
60,55,152640,240
59,42,152880,480
57,37,153360,240
38,35,153600,480
50,35,153600,480
74,38,154080,480
43,26,154560,720
50,26,154560,720
54,27,155220,4140
63,27,155280,4080
66,27,155340,4020
71,29,156480,240
70,29,156720,480
68,27,157200,240
70,27,157440,960
70,29,158400,240
68,29,158640,480
66,27,159120,240
63,29,159360,960
66,29,159360,960
61,34,160320,960
68,34,160320,960
64,31,161280,960
54,31,161280,960
64,31,162240,240
59,25,162240,960
63,31,162480,420
50,23,162900,4140
59,23,162960,240
62,23,163020,4020
67,29,164160,240
66,29,164400,480
64,27,164880,240
66,27,165120,960
66,29,166080,240
64,29,166320,480
62,27,166800,240
59,27,167040,960
62,27,167040,960
57,30,168000,960
64,30,168000,960
60,29,168960,960
50,29,168960,960
59,29,169920,240
57,29,170160,480
54,29,170640,240
43,23,170880,480
50,23,170880,480
74,34,171360,480
59,29,171840,240
43,26,171840,960
50,26,171840,960
57,35,172080,480
55,31,172560,240
43,22,172800,480
50,22,172800,480
54,22,172800,480
74,35,173280,480
57,29,173760,240
43,26,173760,960
50,26,173760,960
55,36,174000,480
54,31,174480,240
52,22,174720,480
43,22,174720,480
50,22,174720,480
74,35,175200,360
40,30,175560,1080
55,34,175680,240
54,36,175920,480
52,31,176400,240
33,36,176640,480
45,36,176640,480
69,36,177120,480
38,42,177600,240
45,42,177600,240
62,46,177840,480
50,46,177840,480
49,46,178320,240
61,46,178320,240
48,35,178560,480
55,35,178560,480
60,35,178560,480
79,47,179040,480
55,22,179520,960
52,23,179520,240
64,23,179520,240
50,31,179760,480
62,31,179760,480
48,25,180240,240
60,25,180240,240
47,27,180480,480
54,27,180480,480
59,27,180480,480
78,46,180960,480
54,22,181440,960
50,23,181440,240
62,23,181440,240
48,31,181680,480
60,31,181680,480
47,25,182160,240
59,25,182160,240
45,26,182400,480
52,26,182400,480
57,26,182400,480
76,42,182880,360
33,56,183240,1080
60,55,183360,240
59,42,183600,480
57,37,184080,240
38,35,184320,480
50,35,184320,480
74,35,184800,480
43,26,185280,720
50,26,185280,720
38,36,186240,240
45,36,186240,240
38,31,187680,240
45,31,187680,240
38,31,187920,240
45,31,187920,240
38,36,188160,240
45,36,188160,240
38,31,189600,240
45,31,189600,240
38,31,189840,240
45,31,189840,240
38,35,190080,240
45,35,190080,240
50,31,190560,60
57,31,190560,60
50,31,190800,60
57,31,190800,60
57,35,191040,240
50,35,191040,240
38,31,191520,60
45,31,191520,60
38,31,191760,60
45,31,191760,60
38,35,192000,480
45,35,192000,480
50,33,192480,240
57,33,192480,240
50,33,192840,120
57,33,192840,120
50,33,192960,480
57,33,192960,480
35,34,193920,480
42,34,193920,480
47,31,194400,60
54,31,194400,60
47,31,194640,60
54,31,194640,60
40,34,194880,480
47,34,194880,480
52,31,195360,60
59,31,195360,60
52,31,195600,60
59,31,195600,60
33,35,195840,480
40,35,195840,480
64,33,196320,240
57,33,196320,240
64,33,196680,120
57,33,196680,120
64,33,196800,240
57,33,196800,240
43,39,197760,480
50,39,197760,480
62,38,198240,60
55,38,198240,60
62,38,198480,60
55,38,198480,60
55,41,198720,480
62,41,198720,480
40,36,199680,480
47,36,199680,480
59,34,200160,240
52,34,200160,240
59,34,200520,120
52,34,200520,120
52,36,200640,480
59,36,200640,480
45,39,201600,480
52,39,201600,480
64,36,202080,60
57,36,202080,60
64,36,202320,60
57,36,202320,60
57,39,202560,480
64,39,202560,480
38,39,203520,480
45,39,203520,480
69,36,204000,240
62,36,204000,240
69,36,204360,120
62,36,204360,120
69,36,204480,480
62,36,204480,480
50,27,204960,240
57,27,204960,240
50,27,205200,240
57,27,205200,240
50,31,205440,240
57,31,205440,240
50,27,206880,240
57,27,206880,240
50,27,207120,240
57,27,207120,240
50,30,207360,240
57,30,207360,240
50,27,208800,240
57,27,208800,240
50,27,209040,240
57,27,209040,240
50,31,209280,240
57,31,209280,240
62,27,209760,60
69,27,209760,60
62,27,210000,60
69,27,210000,60
69,31,210240,240
62,31,210240,240
50,27,210720,60
57,27,210720,60
50,27,210960,60
57,27,210960,60
50,31,211200,480
57,31,211200,480
62,30,211680,240
69,30,211680,240
62,30,212040,120
69,30,212040,120
62,30,212160,480
69,30,212160,480
47,30,213120,480
54,30,213120,480
59,27,213600,60
66,27,213600,60
59,27,213840,60
66,27,213840,60
52,30,214080,480
59,30,214080,480
64,27,214560,60
71,27,214560,60
64,27,214800,60
71,27,214800,60
57,30,215040,480
64,30,215040,480
76,28,215520,240
69,28,215520,240
76,28,215880,120
69,28,215880,120
76,28,216000,240
69,28,216000,240
55,35,216960,480
62,35,216960,480
74,33,217440,60
67,33,217440,60
74,33,217680,60
67,33,217680,60
67,36,217920,480
74,36,217920,480
52,33,218880,480
59,33,218880,480
71,29,219360,240
64,29,219360,240
71,29,219720,120
64,29,219720,120
64,33,219840,480
71,33,219840,480
57,34,220800,480
64,34,220800,480
76,33,221280,60
69,33,221280,60
76,33,221520,60
69,33,221520,60
69,35,221760,480
76,35,221760,480
62,34,222720,480
69,34,222720,480
81,33,223200,240
74,33,223200,240
81,33,223560,120
74,33,223560,120
81,33,223680,480
74,33,223680,480
45,80,224640,480
52,80,224640,480
45,72,225120,120
52,72,225120,120
52,72,225360,120
45,72,225360,120
45,80,225600,480
52,80,225600,480
45,72,226080,120
52,72,226080,120
45,72,226320,120
52,72,226320,120
45,71,226560,480
52,71,226560,480
45,64,227040,240
52,64,227040,240
45,64,227280,120
52,64,227280,120
45,71,227520,480
52,71,227520,480
45,64,228000,240
52,64,228000,240
45,64,228240,120
52,64,228240,120
56,59,230400,480
43,33,232320,120
52,33,232320,120
55,33,232440,120
60,33,232560,120
64,33,232680,120
43,33,233280,120
50,33,233280,120
55,33,233400,120
59,33,233520,120
65,33,233640,120
36,33,234240,480
43,33,234240,480
48,30,234720,120
55,30,234720,120
48,30,234960,120
55,30,234960,120
48,33,235200,360
55,33,235200,360
55,72,235680,120
48,72,235680,120
48,72,235920,120
55,72,235920,120
48,71,236160,480
55,71,236160,480
55,64,236640,240
48,64,236640,240
48,64,236880,120
55,64,236880,120
55,71,237120,480
48,71,237120,480
55,64,237600,240
48,64,237600,240
55,64,237840,120
48,64,237840,120
59,59,240000,480
46,33,241920,120
55,33,241920,120
58,33,242040,120
63,33,242160,120
67,33,242280,120
53,33,242880,120
46,33,242880,120
58,33,243000,120
62,33,243120,120
68,33,243240,120
46,33,243840,480
39,33,243840,480
58,30,244320,120
51,30,244320,120
58,30,244560,120
51,30,244560,120
58,33,244800,480
51,33,244800,480
46,27,245280,120
51,27,245280,120
39,23,245520,120
46,23,245760,120
51,23,245760,120
39,26,246000,120
46,29,246240,120
51,29,246240,120
39,27,246480,120
46,27,246720,120
51,27,246720,120
39,28,246960,120
46,35,247200,120
51,35,247200,120
39,30,247440,120
46,30,247680,120
51,30,247680,120
39,30,247920,120
46,36,248160,120
51,36,248160,120
39,33,248400,120
46,33,248640,120
51,33,248640,120
39,33,248880,120
48,33,249120,120
51,33,249120,120
39,30,249360,120
48,31,249600,120
51,31,249600,120
39,30,249840,120
48,34,250080,120
51,34,250080,120
39,31,250320,120
48,32,250560,120
51,32,250560,120
39,32,250800,120
48,40,251040,120
51,40,251040,120
39,34,251280,120
48,35,251520,120
51,35,251520,120
39,35,251760,120
48,42,252000,120
51,42,252000,120
39,37,252240,120
48,38,252480,120
51,38,252480,120
39,38,252720,120
44,44,252960,120
54,44,252960,120
39,42,253200,120
44,44,253440,120
54,44,253440,120
39,39,253680,120
44,45,253920,120
54,45,253920,120
39,42,254160,120
44,42,254400,120
54,42,254400,120
39,44,254640,120
44,48,254880,120
54,48,254880,120
39,42,255120,120
44,47,255360,120
54,47,255360,120
39,44,255600,120
44,50,255840,120
54,50,255840,120
39,46,256080,120
44,46,256320,120
54,46,256320,120
39,46,256560,120
44,50,256800,120
53,50,256800,120
39,46,257040,120
44,48,257280,120
53,48,257280,120
39,46,257520,120
44,51,257760,120
53,51,257760,120
39,47,258000,120
44,50,258240,120
53,50,258240,120
39,47,258480,120
44,60,258720,120
53,60,258720,120
39,50,258960,120
44,56,259200,120
53,56,259200,120
39,51,259440,120
44,59,259680,120
53,59,259680,120
39,53,259920,120
44,57,260160,120
53,57,260160,120
39,53,260400,120
39,60,260640,240
46,60,260640,240
53,60,260640,240
39,55,260880,240
46,55,260880,240
53,55,260880,240
39,57,261120,480
46,57,261120,480
53,57,261120,480
51,53,261600,240
58,53,261600,240
65,53,261600,240
51,53,261840,240
58,53,261840,240
65,53,261840,240
51,61,262080,480
58,61,262080,480
65,61,262080,480
39,59,262560,240
46,59,262560,240
53,59,262560,240
39,55,262800,240
46,55,262800,240
53,55,262800,240
39,59,263040,480
46,59,263040,480
53,59,263040,480
51,61,263520,240
58,61,263520,240
65,61,263520,240
51,56,263760,240
58,56,263760,240
65,56,263760,240
51,64,264000,480
58,64,264000,480
65,64,264000,480
65,75,264480,120
53,75,264480,120
55,75,264720,120
67,75,264720,120
68,82,264960,120
56,82,264960,120
72,75,265200,120
60,75,265200,120
68,75,265440,120
56,75,265440,120
65,75,265680,120
53,75,265680,120
68,82,265920,240
56,82,265920,240
65,75,266160,240
53,75,266160,240
62,75,266400,240
50,75,266400,240
53,75,266640,240
65,75,266640,240
50,82,266880,240
62,82,266880,240
46,75,267120,240
58,75,267120,240
62,75,267360,240
50,75,267360,240
46,75,267600,240
58,75,267600,240
43,82,267840,240
55,82,267840,240
46,75,268080,240
58,75,268080,240
43,75,268320,240
55,75,268320,240
39,75,268560,240
51,75,268560,240
43,85,268800,240
55,85,268800,240
39,79,269040,240
51,79,269040,240
36,79,269280,240
48,79,269280,240
39,79,269520,240
51,79,269520,240
36,85,269760,240
48,85,269760,240
32,81,270000,240
44,81,270000,240
36,86,270240,240
48,86,270240,240
32,95,270480,240
44,95,270480,240
31,90,270720,1920
43,107,270720,1920
51,88,271200,480
48,74,271200,480
44,74,271200,480
63,88,271680,480
60,74,271680,480
56,74,271680,480
75,88,272160,480
72,74,272160,480
68,74,272160,480
30,90,272640,1920
42,107,272640,1920
51,88,273120,480
48,74,273120,480
44,74,273120,480
63,88,273600,480
60,74,273600,480
56,74,273600,480
75,88,274080,480
72,74,274080,480
68,74,274080,480
29,93,274560,1920
41,110,274560,1920
51,88,275040,480
47,74,275040,480
44,74,275040,480
63,88,275520,480
59,74,275520,480
56,74,275520,480
75,88,276000,480
71,74,276000,480
68,74,276000,480
28,93,276480,1920
40,110,276480,960
49,88,276960,480
45,74,276960,480
40,74,276960,480
57,74,277440,480
61,88,277440,480
52,74,277440,480
73,88,277920,240
69,74,277920,240
64,74,277920,240
38,79,278400,120
45,79,278400,120
50,68,278520,120
54,68,278640,120
57,68,278760,120
62,70,278880,96
57,70,278976,96
54,69,279072,96
50,68,279168,96
45,68,279264,96
38,64,279360,96
45,69,279456,96
50,70,279552,96
54,71,279648,96
57,73,279744,96
62,75,279840,240
38,77,280320,240
45,77,280320,240
50,77,280320,240
62,68,280560,480
57,68,280560,480
54,68,280560,480
66,68,281040,480
62,68,281040,480
57,68,281040,480
69,68,281520,240
66,68,281520,240
62,68,281520,240
35,66,282240,80
42,59,282320,80
47,59,282400,80
50,59,282480,80
54,59,282560,80
59,59,282640,80
62,59,282720,240
40,66,283200,96
47,59,283296,96
52,59,283392,96
56,59,283488,96
62,59,283584,96
66,59,283680,240
33,75,284160,240
40,75,284160,240
45,75,284160,240
61,64,284400,480
57,64,284400,480
52,64,284400,480
64,64,284880,480
61,64,284880,480
57,64,284880,480
69,64,285360,240
64,64,285360,240
61,64,285360,240
43,65,286080,120
50,65,286080,120
55,57,286200,120
59,57,286320,120
62,57,286440,120
67,65,286560,96
62,59,286656,96
59,58,286752,96
55,58,286848,96
50,57,286944,96
43,56,287040,96
47,56,287136,96
55,57,287232,96
59,57,287328,96
62,57,287424,96
67,57,287520,240
40,73,288000,240
47,73,288000,240
52,73,288000,240
66,62,288240,480
62,62,288240,480
59,62,288240,480
55,62,288240,480
67,62,288720,480
66,62,288720,480
62,62,288720,480
59,62,288720,480
71,62,289200,240
67,62,289200,240
66,62,289200,240
62,62,289200,240
45,69,289920,96
52,60,290016,96
57,60,290112,96
62,60,290208,96
67,60,290304,96
71,60,290400,240
45,69,290880,96
52,60,290976,96
57,60,291072,96
62,60,291168,96
67,60,291264,96
71,60,291360,240
38,75,291840,240
45,75,291840,240
50,75,291840,240
66,64,292080,480
62,64,292080,480
57,64,292080,480
69,64,292560,480
66,64,292560,480
62,64,292560,480
66,62,293040,240
69,62,293040,240
74,62,293040,240
38,55,293760,180
45,55,293760,180
33,48,294000,180
45,48,294000,180
38,55,294240,180
45,55,294240,180
33,48,294480,180
45,48,294480,180
38,52,294720,180
45,52,294720,180
33,48,294960,180
45,48,294960,180
38,55,295200,180
45,55,295200,180
33,46,295440,180
45,46,295440,180
38,51,295680,180
45,51,295680,180
33,52,295920,180
38,51,296160,180
45,51,296160,180
33,52,296400,180
38,51,296640,180
45,51,296640,180
33,51,296880,180
38,51,297120,180
45,51,297120,180
33,52,297360,180
38,55,297600,180
45,55,297600,180
33,48,297840,180
45,48,297840,180
38,55,298080,180
45,55,298080,180
33,48,298320,180
45,48,298320,180
38,53,298560,180
45,53,298560,180
33,48,298800,180
45,48,298800,180
38,53,299040,180
45,53,299040,180
33,46,299280,180
45,46,299280,180
38,51,299520,180
45,51,299520,180
33,52,299760,180
38,51,300000,180
45,51,300000,180
33,52,300240,180
38,51,300480,180
45,51,300480,180
33,51,300720,180
38,51,300960,180
45,51,300960,180
33,40,301200,180
38,44,301440,180
45,44,301440,180
33,38,301680,180
45,38,301680,180
38,44,301920,180
45,44,301920,180
33,38,302160,180
45,38,302160,180
38,42,302400,180
45,42,302400,180
33,38,302640,180
45,38,302640,180
38,42,302880,180
45,42,302880,180
33,36,303120,180
38,39,303360,180
45,39,303360,180
33,40,303600,180
38,39,303840,180
45,39,303840,180
33,40,304080,180
38,39,304320,180
45,39,304320,180
33,39,304560,180
38,39,304800,180
45,39,304800,180
33,39,305040,180
38,44,305280,180
45,44,305280,180
33,38,305520,180
38,44,305760,180
45,44,305760,180
33,38,306000,180
38,42,306240,180
45,42,306240,180
33,38,306480,180
38,42,306720,180
45,42,306720,180
33,36,306960,180
38,39,307200,180
45,39,307200,180
33,40,307440,180
38,39,307680,180
45,39,307680,180
33,40,307920,180
38,39,308160,180
45,39,308160,180
33,39,308400,180
38,39,308640,180
45,39,308640,180
33,39,308880,180
38,35,309120,180
45,35,309120,180
33,36,309360,180
38,35,309600,180
45,35,309600,180
33,36,309840,180
38,35,310080,180
45,35,310080,180
33,35,310320,180
38,35,310560,180
45,35,310560,180
33,35,310800,180
38,35,311040,120
45,35,311040,120
33,36,311520,120
38,35,312000,120
45,35,312000,120
33,35,312480,120
38,35,312960,120
45,35,312960,120
33,34,313440,120
38,35,313920,120
45,35,313920,120
33,35,314400,120
38,35,314880,240
45,35,314880,240
57,35,315840,240
50,35,315840,240
62,35,316800,240
69,35,316800,240
81,38,317760,240
74,38,317760,240
93,42,318720,240
86,42,318720,240
81,39,319680,240
74,39,319680,240
62,35,320640,240
69,35,320640,240
50,31,321600,240
57,31,321600,240
38,31,322560,240
45,31,322560,240
26,77,324480,360
33,77,324480,360
38,91,324480,360
