note,velocity,position,duration
87,70,900,60
86,77,960,240
86,70,1200,240
82,58,1200,120
79,70,1320,120
79,63,1440,240
81,75,1440,240
81,68,1680,180
78,57,1680,120
74,68,1800,60
87,70,1860,60
86,77,1920,240
86,71,2160,240
82,59,2160,120
79,72,2280,120
79,66,2400,240
81,78,2400,240
81,72,2640,240
78,60,2640,120
74,73,2760,120
91,69,2880,120
93,82,2880,240
90,66,3000,120
86,70,3120,120
79,61,3360,120
81,73,3360,240
78,58,3480,120
74,62,3600,120
67,53,3840,120
69,63,3840,240
66,54,3960,120
62,57,4080,240
66,50,4200,120
67,57,4320,420
75,63,4740,60
74,69,4800,240
74,66,5040,240
70,55,5040,120
67,63,5160,120
67,56,5280,240
69,67,5280,240
69,61,5520,180
66,51,5520,120
62,61,5640,60
75,63,5700,60
74,69,5760,240
74,67,6000,240
70,56,6000,120
67,64,6120,120
67,59,6240,240
69,70,6240,240
66,54,6480,120
69,64,6480,240
62,65,6600,120
79,62,6720,120
81,73,6720,240
78,64,6840,120
74,63,6960,120
67,54,7200,120
69,65,7200,240
66,55,7320,120
62,55,7440,120
55,47,7680,120
57,56,7680,240
54,43,7800,120
50,51,7920,240
54,45,8040,120
55,51,8160,420
79,50,8580,60
77,55,8640,120
77,52,8880,240
74,50,9000,120
75,55,9120,240
75,52,9360,120
77,45,9360,480
72,50,9480,120
74,52,9600,240
74,52,9840,120
77,45,9840,480
70,50,9960,120
72,52,10080,240
77,42,10320,480
72,52,10320,120
69,50,10440,120
70,52,10560,240
77,45,10800,120
82,40,10920,120
70,42,11040,120
77,45,11280,120
82,41,11400,120
70,41,11520,120
77,45,11760,120
82,41,11880,120
70,41,12000,120
67,47,12420,60
65,52,12480,120
65,49,12720,240
62,47,12840,120
63,52,12960,240
63,49,13200,120
65,42,13200,480
60,47,13320,120
62,49,13440,240
62,49,13680,120
65,42,13680,480
58,47,13800,120
60,49,13920,240
65,39,14160,480
60,49,14160,120
57,47,14280,120
58,49,14400,240
69,42,14640,120
74,38,14760,120
62,39,14880,120
69,42,15120,120
74,38,15240,120
62,38,15360,120
69,42,15600,120
74,38,15720,120
62,38,15840,120
63,50,16260,60
62,61,16320,420
75,54,17220,60
74,65,17280,420
87,70,18180,60
86,77,18240,240
86,70,18480,240
82,58,18480,120
79,70,18600,120
79,63,18720,240
81,75,18720,240
81,68,18960,180
78,57,18960,120
74,68,19080,60
87,70,19140,60
86,77,19200,240
86,71,19440,240
82,59,19440,120
79,72,19560,120
79,66,19680,240
81,78,19680,240
81,72,19920,240
78,60,19920,120
74,73,20040,120
79,69,20160,120
81,82,20160,240
78,66,20280,120
74,70,20400,120
69,73,20640,240
67,61,20640,120
66,59,20760,120
62,62,20880,120
55,53,21120,120
57,63,21120,240
54,48,21240,120
50,57,21360,240
54,50,21480,120
55,57,21600,420
79,50,22020,60
77,55,22080,120
77,52,22320,240
74,50,22440,120
75,55,22560,240
75,52,22800,120
77,45,22800,480
72,50,22920,120
74,52,23040,240
74,52,23280,120
77,45,23280,480
70,50,23400,120
72,52,23520,240
77,42,23760,480
72,52,23760,120
69,50,23880,120
70,52,24000,240
77,45,24240,120
82,40,24360,120
70,42,24480,120
77,45,24720,120
82,41,24840,120
70,41,24960,120
77,45,25200,120
82,41,25320,120
70,41,25440,120
67,47,25860,60
65,52,25920,120
65,49,26160,240
62,47,26280,120
63,52,26400,240
63,49,26640,120
65,42,26640,480
60,47,26760,120
62,49,26880,240
62,49,27120,120
65,42,27120,480
58,47,27240,120
60,49,27360,240
65,39,27600,480
60,49,27600,120
57,47,27720,120
58,49,27840,240
69,42,28080,120
74,38,28200,120
62,39,28320,120
69,42,28560,120
74,38,28680,120
62,38,28800,120
69,42,29040,120
74,38,29160,120
62,38,29280,120
63,50,29700,60
62,61,29760,420
75,54,30660,60
74,65,30720,420
87,69,31620,60
86,75,31680,240
86,68,31920,240
82,57,31920,120
79,69,32040,120
79,61,32160,240
81,73,32160,240
81,67,32400,180
78,56,32400,120
74,61,32520,60
75,63,32580,60
74,69,32640,240
74,67,32880,240
70,56,32880,120
67,64,33000,120
67,59,33120,240
69,70,33120,240
66,54,33360,120
69,64,33360,240
62,65,33480,120
79,62,33600,120
81,73,33600,240
78,58,33720,120
74,59,33840,120
67,48,34080,120
69,58,34080,240
66,47,34200,120
62,46,34320,120
55,37,34560,120
57,44,34560,240
54,33,34680,120
50,38,34800,240
54,32,34920,120
55,35,35040,480
67,41,1200,720
74,49,1200,720
72,54,1440,240
69,49,1680,180
67,41,2160,720
74,49,2160,720
72,56,2400,240
69,52,2640,240
81,78,3120,238
79,65,3120,120
78,63,3240,120
74,66,3360,120
67,57,3600,120
69,69,3600,238
66,56,3720,120
62,57,3840,120
50,46,4080,120
43,43,4320,420
55,51,4320,420
55,36,5040,720
62,44,5040,720
60,48,5280,240
57,44,5520,240
55,36,6000,720
62,44,6000,720
60,50,6240,240
57,46,6480,240
67,58,6960,120
69,70,6960,238
66,62,7080,120
62,59,7200,120
55,51,7440,120
57,62,7440,238
54,54,7560,120
50,51,7680,120
38,41,7920,120
31,38,8160,420
43,45,8160,420
58,28,8880,720
65,35,8880,720
67,34,9120,240
69,34,9360,240
58,28,9840,960
65,35,9840,960
63,32,10080,240
60,32,10320,240
62,40,10560,240
53,38,10800,120
46,33,10920,120
62,33,11040,120
53,38,11280,120
46,33,11400,120
62,33,11520,120
53,38,11760,120
46,33,11880,120
62,34,12000,120
46,26,12720,720
53,33,12720,720
55,32,12960,240
57,32,13200,240
46,26,13680,960
53,33,13680,960
51,30,13920,240
48,30,14160,240
50,38,14400,240
45,36,14640,120
38,31,14760,120
54,31,14880,120
45,36,15120,120
38,31,15240,120
54,31,15360,120
45,36,15600,120
38,31,15720,120
54,32,15840,120
70,52,16740,60
69,61,16800,420
82,61,17700,60
81,72,17760,420
67,41,18480,720
74,49,18480,720
72,54,18720,240
69,49,18960,180
67,41,19440,720
74,49,19440,720
72,56,19680,240
69,52,19920,240
69,78,20400,238
67,65,20400,120
66,63,20520,120
62,66,20640,120
57,69,20880,238
55,57,20880,120
54,56,21000,120
50,57,21120,120
38,46,21360,120
31,43,21600,420
43,51,21600,420
58,28,22320,720
65,35,22320,720
67,34,22560,240
69,34,22800,240
58,28,23280,960
65,35,23280,960
63,32,23520,240
60,32,23760,240
62,40,24000,240
53,38,24240,120
46,33,24360,120
62,33,24480,120
53,38,24720,120
46,33,24840,120
62,33,24960,120
53,38,25200,120
46,33,25320,120
62,34,25440,120
46,26,26160,720
53,33,26160,720
55,32,26400,240
57,32,26640,240
46,26,27120,960
53,33,27120,960
51,30,27360,240
48,30,27600,240
50,38,27840,240
45,36,28080,120
38,31,28200,120
54,31,28320,120
45,36,28560,120
38,31,28680,120
54,31,28800,120
45,36,29040,120
38,31,29160,120
54,32,29280,120
70,52,30180,60
69,61,30240,420
82,61,31140,60
81,72,31200,420
67,39,31920,720
74,48,31920,718
72,52,32160,240
69,48,32400,240
55,36,32880,720
62,44,32880,720
60,50,33120,240
57,46,33360,240
67,55,33840,120
69,66,33840,238
66,51,33960,120
62,53,34080,120
55,43,34320,120
57,52,34320,238
54,37,34440,120
50,40,34560,120
38,30,34800,120
31,26,35040,480
43,31,35040,480
