note,velocity,position,duration
57,49,0,341
62,49,0,341
67,58,0,341
57,49,360,341
66,58,360,341
57,49,720,1139
62,49,720,1139
67,58,720,1139
57,49,1920,341
62,49,1920,341
67,58,1920,341
57,49,2280,341
66,58,2280,341
57,49,2640,683
62,49,2640,683
67,58,2640,683
55,58,3600,227
59,49,3840,341
62,49,3840,341
67,58,3840,341
59,49,4200,341
66,58,4200,341
55,49,4560,911
59,49,4560,911
64,58,4560,911
62,58,5520,569
57,49,6120,341
57,49,6480,455
62,49,6480,455
66,49,6480,455
71,64,6960,455
74,64,7440,227
64,64,7680,683
67,64,7680,683
76,64,7680,683
55,64,8400,455
59,64,8400,455
64,64,8400,455
71,80,8880,455
76,80,8880,455
71,80,9360,227
76,80,9360,227
79,80,9360,227
69,80,9600,911
74,80,9600,911
81,80,9600,911
67,96,10800,455
79,96,10800,455
69,96,11280,227
81,96,11280,227
71,96,11520,341
76,96,11520,341
83,96,11520,341
57,96,11880,341
62,96,11880,341
59,96,12240,341
64,96,12240,341
57,96,12600,341
62,96,12600,341
100,81,12960,14
98,81,12976,14
96,81,12993,14
95,81,13010,14
93,81,13027,14
91,81,13044,14
89,81,13061,14
88,81,13078,14
86,81,13095,14
84,81,13113,14
83,81,13129,14
81,81,13146,14
79,81,13163,14
77,81,13180,14
76,81,13197,14
74,81,13214,14
72,81,13231,14
71,81,13248,14
69,81,13266,14
67,81,13282,14
65,81,13299,17
64,81,13320,113
59,96,13440,341
64,96,13440,341
57,96,13800,341
62,96,13800,341
59,96,14160,341
64,96,14160,341
57,96,14520,341
62,96,14520,341
64,96,14880,59
71,96,14880,59
76,96,14880,59
64,96,15000,59
71,96,15000,59
76,96,15000,59
64,96,15120,59
71,96,15120,59
76,96,15120,59
64,96,15240,59
71,96,15240,59
76,96,15240,59
59,96,15360,341
64,96,15360,341
57,96,15720,341
62,96,15720,341
59,96,16080,341
64,96,16080,341
57,96,16440,341
62,96,16440,341
71,96,16800,227
76,96,16800,227
83,96,16800,227
64,96,17040,227
71,96,17040,227
59,96,17280,341
64,96,17280,341
57,96,17640,341
62,96,17640,341
59,96,18000,341
64,96,18000,341
57,96,18360,341
62,96,18360,341
62,96,18720,455
69,96,18720,455
74,96,18720,455
71,64,19200,341
76,64,19200,341
79,64,19560,341
78,64,19920,227
74,64,20160,227
74,64,20400,227
76,64,20640,341
74,64,21000,569
69,64,22080,227
67,64,22320,113
67,64,22440,113
69,64,22560,227
72,64,22800,227
64,64,23040,227
71,64,23040,227
64,64,23280,683
64,64,25200,227
67,64,25440,113
69,64,25560,227
71,64,25800,341
69,64,26160,227
71,64,26400,227
74,64,26640,227
71,64,26880,341
76,64,26880,341
79,64,27240,341
78,64,27600,455
74,64,28080,227
76,64,28320,341
74,64,28680,569
74,64,29520,113
74,64,29640,113
83,64,29760,113
81,64,29880,113
83,64,30000,113
81,64,30120,113
83,64,30240,227
84,64,30480,113
83,64,30600,227
79,64,30840,341
79,64,32400,227
69,64,32640,341
78,64,32640,341
78,64,33000,341
79,64,33360,227
74,64,33600,455
81,64,33600,455
67,80,34320,227
79,80,34320,227
69,80,34560,341
74,80,34560,341
81,80,34560,341
67,80,34920,341
79,80,34920,341
64,80,35280,341
67,80,35280,341
76,80,35280,341
67,80,35640,341
79,80,35640,341
71,80,36000,341
83,80,36000,341
69,80,36360,341
74,80,36360,341
81,80,36360,341
69,80,36720,227
69,80,36960,227
69,80,37200,227
69,80,37440,113
69,80,37560,227
71,80,37800,341
67,80,38160,227
79,80,38160,227
69,80,38400,341
72,80,38400,341
81,80,38400,341
67,80,38760,341
79,80,38760,341
64,80,39120,455
67,80,39120,455
76,80,39120,455
67,80,39600,227
79,80,39600,227
74,80,39840,683
78,80,39840,683
86,80,39840,683
69,80,40560,227
69,80,40800,227
67,80,41040,227
69,80,41280,341
66,80,41640,341
67,80,42000,227
79,80,42000,227
69,80,42240,341
74,80,42240,341
81,80,42240,341
67,80,42600,341
79,80,42600,341
64,80,42960,455
67,80,42960,455
76,80,42960,455
67,80,43440,227
79,80,43440,227
71,80,43680,341
83,80,43680,341
69,80,44040,341
74,80,44040,341
81,80,44040,341
69,80,44640,227
74,80,44640,227
81,80,44640,227
71,80,44880,227
83,80,44880,227
69,80,45120,227
74,80,45120,227
81,80,45120,227
71,80,45360,227
83,80,45360,227
74,80,45600,227
78,80,45600,227
86,80,45600,227
71,80,45840,227
83,80,45840,227
69,80,46080,341
72,80,46080,341
81,80,46080,341
67,80,46440,341
72,80,46440,341
79,80,46440,341
64,68,46800,341
66,68,47160,113
67,68,47280,113
69,68,47400,113
71,68,47520,113
74,68,47640,113
67,80,47760,227
79,80,47760,227
66,80,48000,341
69,80,48000,341
78,80,48000,341
66,80,48360,341
78,80,48360,341
67,80,48720,227
79,80,48720,227
69,80,48960,455
74,80,48960,455
81,80,48960,455
54,76,49440,399
50,76,49440,378
79,49,49920,341
78,49,50280,341
79,49,50640,1139
79,49,51840,341
78,49,52200,341
79,49,52560,683
67,49,53520,227
79,49,53760,341
78,49,54120,341
76,49,54480,911
74,49,55440,960
59,64,56880,455
71,64,56880,455
62,64,57360,227
74,64,57360,227
64,64,57600,911
67,64,57600,911
76,64,57600,911
64,70,58800,455
67,70,58800,455
76,70,58800,455
67,73,59280,227
79,73,59280,227
69,74,59520,911
74,74,59520,911
78,74,59520,911
81,74,59520,911
67,81,60720,455
71,81,60720,455
79,81,60720,455
69,84,61200,227
81,84,61200,227
71,85,61440,227
76,85,61440,227
79,85,61440,227
83,85,61440,227
57,86,61680,227
69,86,61680,227
59,88,61920,227
71,88,61920,227
62,89,62160,227
74,89,62160,227
64,90,62400,227
76,90,62400,227
66,92,62640,227
78,92,62640,227
67,93,62880,227
79,93,62880,227
66,94,63120,227
78,94,63120,227
62,96,63840,455
74,96,63840,455
62,96,64320,455
74,96,64320,455
71,96,64800,455
83,96,64800,455
69,96,65280,227
72,96,65280,227
81,96,65280,227
71,96,65520,227
83,96,65520,227
74,96,65760,227
86,96,65760,227
71,96,66000,227
83,96,66000,227
69,96,66240,227
72,96,66240,227
81,96,66240,227
71,96,66480,113
83,96,66480,113
71,96,66600,113
83,96,66600,113
67,96,66960,227
79,96,66960,227
69,96,67200,227
74,96,67200,227
81,96,67200,227
71,96,67440,227
83,96,67440,227
74,96,67680,227
86,96,67680,227
71,96,67920,227
83,96,67920,227
69,96,68160,227
74,96,68160,227
81,96,68160,227
71,96,68400,113
83,96,68400,113
71,96,68520,113
83,96,68520,113
62,96,68880,227
62,96,69120,227
62,96,69360,113
67,96,69360,113
62,96,69480,341
67,96,69480,341
62,96,69840,227
62,96,70080,227
62,96,70320,227
67,96,70320,227
62,96,70560,227
69,96,70560,227
62,96,70800,227
67,96,70800,227
62,96,71040,455
66,96,71040,455
74,96,71040,455
62,96,71520,455
66,96,71520,455
72,96,71520,455
62,96,72000,341
71,96,72000,341
62,96,72360,341
69,96,72360,341
62,96,72720,227
67,96,72720,227
60,96,72960,455
64,96,72960,455
67,96,72960,455
67,96,73680,455
72,96,73680,455
79,96,73680,455
69,96,74160,227
81,96,74160,227
71,96,74400,227
83,96,74400,227
69,96,74640,227
72,96,74640,227
81,96,74640,227
62,96,75360,227
74,96,75360,227
69,96,75600,455
75,96,75600,455
81,96,75600,455
71,96,76080,227
83,96,76080,227
74,96,76320,227
86,96,76320,227
71,96,76560,227
76,96,76560,227
83,96,76560,227
59,96,76800,341
64,96,76800,341
57,96,77160,341
62,96,77160,341
59,96,77520,341
64,96,77520,341
57,96,77880,341
62,96,77880,341
64,96,78240,59
71,96,78240,59
76,96,78240,59
64,96,78360,59
71,96,78360,59
76,96,78360,59
64,96,78480,59
71,96,78480,59
76,96,78480,59
64,96,78600,59
71,96,78600,59
76,96,78600,59
54,96,78720,341
59,96,78720,341
52,96,79080,113
57,96,79080,113
62,96,79200,455
74,96,79200,455
62,96,79680,455
66,96,79680,455
74,96,79680,455
71,96,80160,455
83,96,80160,455
69,96,80640,227
72,96,80640,227
81,96,80640,227
71,96,80880,227
83,96,80880,227
74,96,81120,227
86,96,81120,227
71,96,81360,227
83,96,81360,227
69,96,81600,227
72,96,81600,227
81,96,81600,227
71,96,81840,113
83,96,81840,113
71,96,81960,113
83,96,81960,113
67,96,82320,113
79,96,82320,113
67,96,82440,113
79,96,82440,113
69,96,82560,227
74,96,82560,227
81,96,82560,227
71,96,82800,227
83,96,82800,227
74,96,83040,227
86,96,83040,227
71,96,83280,227
83,96,83280,227
69,96,83520,227
74,96,83520,227
81,96,83520,227
71,96,83760,113
83,96,83760,113
67,96,83880,113
79,96,83880,113
67,96,84240,227
79,96,84240,227
67,96,84480,455
71,96,84480,455
79,96,84480,455
69,96,84960,227
81,96,84960,227
71,96,85200,455
75,96,85200,455
83,96,85200,455
71,96,85680,227
83,96,85680,227
79,96,85920,227
91,96,85920,227
78,96,86160,683
83,96,86160,683
90,96,86160,683
74,96,86880,455
86,96,86880,455
71,96,87360,341
76,96,87360,341
83,96,87360,341
69,96,87720,341
81,96,87720,341
67,96,88080,227
79,96,88080,227
67,96,88320,455
72,96,88320,455
79,96,88320,455
67,96,89040,455
72,96,89040,455
79,96,89040,455
69,96,89520,227
81,96,89520,227
71,96,89760,227
83,96,89760,227
69,96,90000,227
74,96,90000,227
81,96,90000,227
62,80,90960,227
74,80,90960,227
62,80,91200,455
74,80,91200,455
64,80,91680,455
76,80,91680,455
59,96,92160,341
64,96,92160,341
57,96,92520,341
62,96,92520,341
59,96,92880,341
64,96,92880,341
57,96,93240,341
62,96,93240,341
76,96,93600,59
83,96,93600,59
71,96,93720,59
76,96,93840,59
83,96,93840,59
71,96,93960,59
59,96,94080,341
64,96,94080,341
57,96,94440,341
62,96,94440,341
59,96,94800,341
64,96,94800,341
57,96,95160,341
62,96,95160,341
76,96,95520,75
74,96,95600,75
71,96,95680,75
67,96,95760,75
66,96,95840,75
62,96,95920,75
59,96,96000,341
64,96,96000,341
57,96,96360,341
62,96,96360,341
59,96,96720,341
64,96,96720,341
57,96,97080,341
62,96,97080,341
76,96,97440,59
83,96,97440,59
71,96,97560,59
76,96,97680,59
83,96,97680,59
71,96,97800,59
59,96,97920,341
64,96,97920,341
57,93,98280,341
62,93,98280,341
59,90,98640,341
64,90,98640,341
57,86,99000,341
62,86,99000,341
62,83,99360,75
66,82,99440,75
69,81,99520,75
62,80,99600,227
66,80,99600,227
74,80,99600,227
88,61,99840,119
83,49,99960,113
88,49,100080,113
91,61,100200,119
83,49,100320,113
88,49,100440,113
90,61,100560,119
79,49,100680,113
83,49,100800,113
79,49,100920,113
86,61,101040,119
79,49,101160,113
88,61,101280,119
79,49,101400,113
83,49,101520,113
86,61,101640,233
79,49,101880,113
78,49,102000,113
74,49,102120,113
69,49,102240,113
74,49,102360,113
79,61,102480,119
74,49,102600,240
81,61,102720,119
74,49,102840,779
78,49,102960,113
79,61,103080,119
81,61,103200,119
78,49,103320,113
84,61,103440,119
78,49,103560,113
83,61,103680,119
71,49,103800,113
74,49,103920,113
76,61,104040,119
71,49,104160,113
74,49,104280,113
76,49,104400,113
83,49,104520,113
91,49,104640,113
90,49,104760,113
86,49,104880,113
81,49,105000,113
79,49,105120,113
78,49,105240,113
74,49,105360,179
69,49,105480,113
66,49,105600,113
69,49,105720,113
76,61,105840,119
69,49,105960,113
79,61,106080,119
81,61,106200,239
83,61,106440,119
78,49,106560,113
74,49,106680,600
69,61,106800,119
62,49,106920,113
71,61,107040,119
62,49,107160,113
74,61,107280,179
62,49,107400,113
76,61,107520,119
71,49,107640,113
76,50,107760,113
79,64,107880,119
71,51,108000,113
76,52,108120,113
78,66,108240,119
67,53,108360,113
71,54,108480,113
67,55,108600,113
74,69,108720,119
67,56,108840,113
76,71,108960,119
67,57,109080,113
71,58,109200,113
74,74,109320,233
74,60,109560,113
78,61,109680,113
79,61,109800,113
81,62,109920,113
69,63,110040,113
74,79,110160,119
78,64,110280,113
83,81,110400,119
81,81,110520,119
83,83,110640,119
81,84,110760,119
83,84,110880,119
74,68,111000,113
84,86,111120,119
83,86,111240,119
74,70,111360,113
79,89,111480,119
74,71,111600,113
72,72,111720,113
71,73,111840,113
67,73,111960,113
64,74,112080,113
62,75,112200,1019
60,75,112320,113
64,76,112440,113
67,77,112560,113
71,77,112680,113
72,78,112800,113
74,79,112920,113
67,100,113040,119
79,100,113040,119
74,80,113160,113
66,100,113280,119
78,100,113280,119
69,80,113400,113
74,80,113520,113
66,100,113640,119
78,100,113640,119
69,80,113760,113
74,80,113880,113
67,100,114000,119
79,100,114000,119
74,80,114120,113
69,100,114240,119
81,100,114240,119
74,80,114360,113
76,80,114480,113
78,80,114600,113
71,100,114720,479
74,100,114720,479
83,100,114720,479
62,96,115440,113
69,96,115440,113
62,96,115560,113
69,96,115560,113
62,96,115680,227
69,96,115680,227
62,96,115920,113
69,96,115920,113
69,96,116040,113
69,96,116160,113
69,96,116280,113
69,96,116400,113
69,96,116520,113
69,96,116640,227
67,96,116880,113
64,96,117000,113
62,96,117360,113
69,96,117360,113
62,96,117480,113
69,96,117480,113
62,96,117600,113
69,96,117600,113
62,96,117720,113
69,96,117720,113
62,96,117840,227
69,96,117840,227
62,96,118080,113
67,96,118080,113
69,96,118200,227
62,96,118440,113
71,96,118440,113
69,96,118560,227
67,96,118800,227
74,96,119280,113
86,96,119280,113
74,96,119400,113
86,96,119400,113
74,96,119520,227
78,96,119520,227
86,96,119520,227
71,96,119760,113
83,96,119760,113
71,96,119880,113
83,96,119880,113
71,96,120000,227
74,96,120000,227
83,96,120000,227
69,96,120240,113
81,96,120240,113
69,96,120360,113
81,96,120360,113
71,96,120480,227
74,96,120480,227
83,96,120480,227
69,96,120720,113
81,96,120720,113
67,96,120840,113
79,96,120840,113
64,96,120960,119
76,96,120960,119
71,80,121080,113
66,80,121200,113
71,80,121320,113
67,96,121440,119
79,96,121440,119
74,80,121560,113
69,80,121680,113
74,80,121800,113
69,96,121920,119
81,96,121920,119
78,80,122040,113
74,80,122160,113
78,80,122280,113
71,96,122400,119
83,96,122400,119
78,80,122520,113
74,80,122640,113
78,80,122760,113
76,96,122880,119
79,96,122880,119
88,96,122880,119
69,96,123120,113
81,96,123120,113
69,96,123240,113
81,96,123240,113
69,96,123360,227
74,96,123360,227
78,96,123360,227
81,96,123360,227
66,96,123600,113
78,96,123600,113
66,96,123720,113
78,96,123720,113
66,96,123840,341
69,96,123840,341
74,96,123840,341
78,96,123840,341
64,96,124200,341
76,96,124200,341
62,96,124560,227
74,96,124560,227
69,96,125040,113
81,96,125040,113
69,96,125160,113
81,96,125160,113
69,96,125280,113
74,96,125280,113
81,96,125280,113
67,96,125400,113
79,96,125400,113
67,96,125520,113
79,96,125520,113
66,96,125640,113
78,96,125640,113
66,96,125760,227
69,96,125760,227
78,96,125760,227
67,96,126000,227
79,96,126000,227
69,96,126240,227
74,96,126240,227
81,96,126240,227
67,96,126480,227
79,96,126480,227
71,96,126720,455
74,96,126720,455
83,96,126720,455
72,96,127200,227
84,96,127200,227
71,96,127440,455
74,96,127440,455
83,96,127440,455
72,96,127920,227
84,96,127920,227
71,96,128160,455
74,96,128160,455
83,96,128160,455
57,96,128640,455
62,96,128640,455
62,96,129120,455
74,96,129120,455
62,96,129600,455
74,96,129600,455
71,96,130080,455
74,96,130080,455
83,96,130080,455
69,96,130560,227
72,96,130560,227
81,96,130560,227
71,96,130800,227
83,96,130800,227
74,96,131040,227
86,96,131040,227
71,96,131280,227
83,96,131280,227
69,96,131520,227
72,96,131520,227
81,96,131520,227
71,96,131760,113
83,96,131760,113
71,96,131880,113
83,96,131880,113
67,96,132240,227
79,96,132240,227
69,96,132480,227
74,96,132480,227
81,96,132480,227
71,96,132720,227
83,96,132720,227
74,96,132960,227
86,96,132960,227
71,96,133200,227
83,96,133200,227
69,96,133440,227
74,96,133440,227
81,96,133440,227
71,96,133680,113
83,96,133680,113
71,96,133800,113
83,96,133800,113
62,96,134160,227
62,96,134400,227
62,96,134640,113
67,96,134640,113
62,96,134760,341
67,96,134760,341
62,96,135120,227
62,96,135360,227
62,96,135600,227
67,96,135600,227
62,96,135840,227
69,96,135840,227
62,96,136080,227
67,96,136080,227
62,96,136320,455
66,96,136320,455
74,96,136320,455
62,96,136800,455
66,96,136800,455
72,96,136800,455
62,96,137280,341
71,96,137280,341
62,96,137640,341
69,96,137640,341
62,96,138000,227
67,96,138000,227
60,96,138240,455
64,96,138240,455
67,96,138240,455
67,96,138960,227
72,96,138960,227
79,96,138960,227
67,96,139200,227
72,96,139200,227
79,96,139200,227
69,96,139440,227
81,96,139440,227
71,96,139680,227
83,96,139680,227
69,96,139920,683
72,96,139920,683
81,96,139920,683
69,96,140880,455
75,96,140880,455
81,96,140880,455
71,96,141360,227
83,96,141360,227
74,96,141600,227
86,96,141600,227
71,96,141840,227
76,96,141840,227
83,96,141840,227
59,96,142080,341
64,96,142080,341
57,96,142440,341
62,96,142440,341
59,96,142800,341
64,96,142800,341
57,96,143160,341
62,96,143160,341
64,96,143520,59
71,96,143520,59
76,96,143520,59
64,96,143640,59
71,96,143640,59
76,96,143640,59
64,96,143760,59
71,96,143760,59
76,96,143760,59
64,96,143880,59
71,96,143880,59
76,96,143880,59
54,96,144000,455
59,96,144000,455
62,96,144480,455
74,96,144480,455
62,96,144960,455
66,96,144960,455
74,96,144960,455
71,96,145440,455
74,96,145440,455
83,96,145440,455
69,96,145920,227
72,96,145920,227
81,96,145920,227
71,96,146160,227
83,96,146160,227
74,96,146400,227
86,96,146400,227
71,96,146640,227
83,96,146640,227
69,96,146880,227
72,96,146880,227
81,96,146880,227
71,96,147120,113
83,96,147120,113
71,96,147240,113
83,96,147240,113
67,96,147600,113
79,96,147600,113
67,96,147720,113
79,96,147720,113
69,96,147840,227
74,96,147840,227
81,96,147840,227
71,96,148080,227
83,96,148080,227
74,96,148320,227
86,96,148320,227
71,96,148560,227
83,96,148560,227
69,96,148800,227
74,96,148800,227
81,96,148800,227
71,96,149040,113
83,96,149040,113
67,96,149160,113
79,96,149160,113
67,96,149520,227
79,96,149520,227
67,96,149760,341
71,96,149760,341
79,96,149760,341
69,96,150120,341
81,96,150120,341
71,96,150480,455
75,96,150480,455
83,96,150480,455
71,96,150960,227
83,96,150960,227
79,96,151200,227
91,96,151200,227
78,96,151440,683
83,96,151440,683
90,96,151440,683
74,96,152160,455
86,96,152160,455
71,96,152640,341
76,96,152640,341
83,96,152640,341
69,96,153000,341
81,96,153000,341
67,96,153360,227
79,96,153360,227
67,96,153600,455
72,96,153600,455
79,96,153600,455
67,96,154320,455
72,96,154320,455
79,96,154320,455
69,96,154800,227
81,96,154800,227
71,96,155040,227
83,96,155040,227
69,96,155280,227
74,96,155280,227
81,96,155280,227
69,64,156240,227
81,64,156240,227
69,64,156480,455
81,64,156480,455
69,64,156960,455
81,64,156960,455
74,49,157440,227
71,58,157440,1823
83,58,157440,1823
76,49,157680,1595
74,49,159360,1595
71,49,161040,113
69,49,161160,113
71,49,161280,113
69,49,161400,113
64,49,161520,1595
74,49,165120,227
86,49,165120,227
76,49,165360,1595
88,49,165360,1595
74,49,167040,1595
79,49,167040,1595
86,49,167040,1595
83,49,168720,113
81,49,168840,113
71,49,168960,113
76,49,168960,113
83,49,168960,113
81,49,169080,113
76,49,169200,1595
79,58,173520,227
79,58,173760,455
78,58,174480,227
78,58,174720,455
74,58,175440,227
74,58,175680,341
72,58,176040,341
71,58,176400,227
79,58,177360,227
79,58,177600,455
81,58,178320,227
81,58,178560,455
83,58,179280,227
83,58,179520,341
78,58,179880,341
79,58,180240,227
74,49,180480,227
86,49,180480,227
76,49,180720,455
88,49,180720,455
74,49,181200,1139
74,49,182400,683
79,49,182400,683
86,49,182400,683
67,49,183120,683
74,49,183120,683
74,49,183840,227
79,49,183840,227
86,49,183840,227
83,49,184080,113
81,49,184200,113
71,49,184320,113
76,49,184320,113
83,49,184320,113
81,49,184440,113
76,49,184560,455
74,49,185040,1139
69,58,186240,455
74,58,186960,227
86,58,186960,227
72,58,187200,341
84,58,187200,341
71,58,187560,341
83,58,187560,341
67,58,187920,227
79,58,187920,227
64,49,188280,113
67,49,188400,113
72,49,188520,113
74,49,188640,113
76,49,188760,113
79,49,188880,113
74,49,189000,113
79,49,189120,113
67,49,189240,335
72,49,189360,113
74,49,189480,113
76,49,189600,113
79,49,189720,113
78,49,189840,113
76,49,189960,113
78,49,190080,113
74,49,190200,113
69,49,190320,113
67,49,190440,113
66,49,190560,113
69,49,190680,113
74,49,190800,113
69,49,190920,113
74,49,191040,113
66,49,191160,113
69,49,191280,113
72,49,191400,113
66,49,191520,113
69,49,191640,113
71,49,191760,113
66,49,191880,113
67,49,192000,113
69,49,192120,113
71,49,192240,113
74,49,192360,113
76,49,192480,113
78,49,192600,113
79,49,192720,113
74,49,192840,113
79,49,192960,113
67,49,193080,335
71,49,193200,113
74,49,193320,113
76,49,193440,113
79,49,193560,113
81,49,193680,113
74,49,193800,113
71,49,194040,113
74,49,194160,113
81,50,194280,113
78,50,194400,113
79,51,194520,113
83,51,194640,113
86,52,194760,113
91,52,194880,113
90,53,195000,113
86,53,195120,113
81,54,195240,113
79,54,195360,113
78,55,195480,113
74,55,195600,113
69,56,195720,113
62,67,195840,341
67,67,195840,341
62,69,196200,341
64,69,196200,341
69,69,196200,341
62,70,196560,227
71,70,196560,227
62,72,196800,455
67,72,196800,455
71,72,196800,455
57,75,197520,227
62,75,197520,227
57,76,197760,341
62,76,197760,341
57,78,198120,120
62,78,198120,341
62,80,198480,227
74,80,198480,227
62,81,198720,455
69,81,198720,455
74,81,198720,455
69,85,199440,227
81,85,199440,227
69,86,199680,683
74,86,199680,683
81,86,199680,683
71,90,200400,227
76,90,200400,227
83,90,200400,227
71,91,200640,911
76,91,200640,911
83,91,200640,911
62,96,202080,455
74,96,202080,455
62,96,202560,455
74,96,202560,455
71,96,203040,455
83,96,203040,455
69,96,203520,227
72,96,203520,227
81,96,203520,227
71,96,203760,227
83,96,203760,227
74,96,204000,227
86,96,204000,227
71,96,204240,227
83,96,204240,227
69,96,204480,227
72,96,204480,227
81,96,204480,227
71,96,204720,113
83,96,204720,113
71,96,204840,113
83,96,204840,113
67,96,205200,227
79,96,205200,227
69,96,205440,227
74,96,205440,227
81,96,205440,227
71,96,205680,227
83,96,205680,227
74,96,205920,227
86,96,205920,227
71,96,206160,227
83,96,206160,227
69,96,206400,227
74,96,206400,227
81,96,206400,227
71,96,206640,113
83,96,206640,113
71,96,206760,113
83,96,206760,113
62,96,207120,227
74,96,207120,227
62,96,207360,227
67,96,207360,227
74,96,207360,227
67,96,207600,113
79,96,207600,113
67,96,207720,341
79,96,207720,341
62,96,208080,227
74,96,208080,227
62,96,208320,227
67,96,208320,227
74,96,208320,227
67,96,208560,227
79,96,208560,227
69,96,208800,227
81,96,208800,227
67,96,209040,227
79,96,209040,227
74,96,209280,455
78,96,209280,455
86,96,209280,455
72,96,209760,455
84,96,209760,455
71,96,210240,341
74,96,210240,341
83,96,210240,341
69,96,210600,341
81,96,210600,341
67,96,210960,227
79,96,210960,227
67,96,211200,455
72,96,211200,455
79,96,211200,455
67,96,211920,455
72,96,211920,455
79,96,211920,455
69,96,212400,227
81,96,212400,227
71,96,212640,227
83,96,212640,227
69,96,212880,683
72,96,212880,683
81,96,212880,683
62,96,213600,227
74,96,213600,227
69,96,213840,455
75,96,213840,455
81,96,213840,455
71,96,214320,227
83,96,214320,227
74,96,214560,227
86,96,214560,227
74,96,214800,227
86,96,214800,227
76,84,215040,119
88,84,215040,119
79,70,215160,113
76,70,215280,113
74,84,215400,119
86,84,215400,119
79,70,215520,113
74,70,215640,113
76,84,215760,119
88,84,215760,119
79,70,215880,113
76,70,216000,113
74,84,216120,119
86,84,216120,119
79,70,216240,113
74,70,216360,113
76,84,216480,119
88,84,216480,119
79,70,216600,113
76,70,216720,113
79,70,216840,113
71,84,216960,119
83,84,216960,119
74,70,217080,113
71,70,217200,113
69,84,217320,119
81,84,217320,119
74,70,217440,113
69,70,217560,113
71,84,217680,119
83,84,217680,119
74,70,217800,113
71,70,217920,113
69,84,218040,119
81,84,218040,119
74,70,218160,113
69,70,218280,113
71,84,218400,119
83,84,218400,119
74,70,218520,113
71,70,218640,113
74,70,218760,113
69,96,218880,227
72,96,218880,227
81,96,218880,227
71,96,219120,227
83,96,219120,227
74,96,219360,227
86,96,219360,227
71,96,219600,227
83,96,219600,227
69,96,219840,227
72,96,219840,227
81,96,219840,227
71,96,220080,113
83,96,220080,113
71,96,220200,113
83,96,220200,113
67,96,220560,113
79,96,220560,113
67,96,220680,113
79,96,220680,113
69,96,220800,227
74,96,220800,227
81,96,220800,227
71,96,221040,227
83,96,221040,227
74,96,221280,227
86,96,221280,227
71,96,221520,227
83,96,221520,227
69,96,221760,227
74,96,221760,227
81,96,221760,227
71,96,222000,113
83,96,222000,113
67,96,222120,113
79,96,222120,113
67,96,222480,227
79,96,222480,227
67,96,222720,455
71,96,222720,455
79,96,222720,455
69,96,223200,227
81,96,223200,227
71,96,223440,455
75,96,223440,455
83,96,223440,455
71,96,223920,227
83,96,223920,227
79,96,224160,227
91,96,224160,227
78,96,224400,683
83,96,224400,683
90,96,224400,683
74,96,225120,455
86,96,225120,455
71,96,225600,341
74,96,225600,341
83,96,225600,341
69,96,225960,341
81,96,225960,341
67,96,226320,227
79,96,226320,227
67,96,226560,455
72,96,226560,455
79,96,226560,455
67,96,227280,455
72,96,227280,455
79,96,227280,455
69,96,227760,227
81,96,227760,227
71,96,228000,227
83,96,228000,227
69,96,228240,683
74,96,228240,683
81,96,228240,683
69,96,229200,227
81,96,229200,227
69,96,229440,455
74,96,229440,455
81,96,229440,455
69,96,229920,455
74,96,229920,455
81,96,229920,455
71,96,230400,350
76,96,230400,342
83,96,230400,345
59,78,230640,113
64,76,230760,113
67,76,230880,113
71,76,231000,99
76,76,231120,109
78,76,231240,113
79,76,231360,113
83,76,231480,116
88,76,231600,113
90,76,231720,113
91,76,231840,113
88,76,231960,113
91,76,232080,113
95,76,232200,113
93,76,232320,113
91,76,232440,113
90,76,232560,113
91,76,232680,113
90,76,232800,113
86,76,232920,113
81,76,233040,113
79,76,233160,113
78,76,233280,113
79,76,233400,113
78,76,233520,113
74,76,233640,113
69,76,233760,113
67,76,233880,113
66,76,234000,113
62,76,234120,113
59,76,234240,113
62,76,234360,113
64,76,234480,113
67,76,234600,113
69,76,234720,113
67,76,234840,113
69,76,234960,113
71,76,235080,113
74,76,235200,113
76,76,235320,113
79,76,235440,113
83,76,235560,113
86,76,235680,113
88,76,235800,113
91,76,235920,113
95,76,236040,113
93,76,236160,113
91,76,236280,113
90,76,236400,113
86,76,236520,113
81,76,236640,113
79,76,236760,113
78,76,236880,113
79,76,237000,113
78,76,237120,113
74,76,237240,113
69,76,237360,113
67,76,237480,113
66,76,237600,113
67,76,237720,113
66,76,237840,113
62,76,237960,113
59,76,238080,113
64,76,238200,113
67,76,238320,113
71,76,238440,113
76,76,238560,113
78,76,238680,113
67,96,238800,455
72,96,238800,455
79,96,238800,455
69,96,239280,227
81,96,239280,227
71,96,239520,227
83,96,239520,227
69,96,239760,227
74,96,239760,227
81,96,239760,227
62,96,240720,227
62,96,240960,455
64,96,241440,455
59,96,241920,341
64,96,241920,341
57,96,242280,341
62,96,242280,341
59,96,242640,341
64,96,242640,341
57,96,243000,341
62,96,243000,341
76,96,243360,59
83,96,243360,59
71,96,243480,59
76,96,243600,59
83,96,243600,59
71,96,243720,59
59,96,243840,341
64,96,243840,341
57,96,244200,341
62,96,244200,341
59,96,244560,341
64,96,244560,341
57,96,244920,341
62,96,244920,341
64,96,245280,75
69,96,245360,75
71,96,245440,75
76,96,245520,75
81,96,245600,75
86,96,245680,75
76,96,245760,119
88,96,245760,119
79,80,245880,113
76,80,246000,113
74,96,246120,119
86,96,246120,119
79,80,246240,113
74,80,246360,113
76,96,246480,119
88,96,246480,119
79,80,246600,113
76,80,246720,113
74,96,246840,119
86,96,246840,119
79,80,246960,113
74,80,247080,113
76,96,247200,119
88,96,247200,119
79,80,247320,113
76,80,247440,113
79,80,247560,113
76,96,247680,119
88,96,247680,119
79,80,247800,113
76,80,247920,113
74,96,248040,119
86,96,248040,119
79,80,248160,113
74,80,248280,113
76,96,248400,119
88,96,248400,119
79,80,248520,113
76,80,248640,113
74,96,248760,119
86,96,248760,119
79,80,248880,113
74,80,249000,113
76,115,249120,119
88,115,249120,119
79,96,249240,113
76,115,249360,239
83,115,249360,239
88,115,249360,239
36,49,0,341
45,49,360,341
50,49,720,1139
38,49,1920,341
45,49,2280,341
50,49,2640,1139
40,49,3840,341
47,49,4200,341
52,49,4560,1139
42,49,5760,341
50,49,6120,341
54,49,6480,455
67,49,6960,227
66,49,7200,227
62,49,7440,227
36,49,7680,341
43,51,8040,341
52,54,8400,683
67,60,9120,455
50,64,9600,911
57,64,9600,911
66,64,9600,911
28,96,11520,341
40,96,11520,341
40,96,11880,113
47,96,12000,341
52,96,12000,341
40,96,12360,227
47,96,12600,113
52,96,12600,113
40,96,12720,227
47,96,12960,113
52,96,12960,113
40,96,13080,227
35,96,13320,113
28,96,13440,341
40,96,13440,341
40,96,13800,113
47,96,13920,341
52,96,13920,341
40,96,14280,227
47,96,14520,113
52,96,14520,113
40,96,14640,227
40,96,14880,59
52,96,14880,59
40,96,15000,59
52,96,15000,59
40,96,15120,59
52,96,15120,59
35,96,15240,59
28,96,15360,341
40,96,15360,341
40,96,15720,113
47,96,15840,341
52,96,15840,341
40,96,16200,227
47,96,16440,113
52,96,16440,113
40,96,16560,227
47,96,16800,113
52,96,16800,113
40,96,16920,227
35,96,17160,113
28,96,17280,341
40,96,17280,341
40,96,17640,113
47,96,17760,341
52,96,17760,341
40,96,18120,227
47,96,18360,113
52,96,18360,113
40,96,18480,227
40,96,18720,59
52,96,18720,59
40,96,18840,59
52,96,18840,59
40,96,18960,59
52,96,18960,59
40,96,19080,59
52,96,19080,59
40,49,19200,341
54,49,19560,341
55,49,19920,1139
62,49,19920,1139
38,49,21120,341
54,49,21480,341
55,49,21840,1139
62,49,21840,1139
36,49,23040,341
52,49,23400,341
55,49,23760,1139
62,49,23760,1139
38,49,24960,341
54,49,25320,341
55,49,25680,1139
62,49,25680,1139
40,49,26880,341
54,49,27240,341
55,49,27600,1139
62,49,27600,1139
38,49,28800,341
54,49,29160,341
57,49,29520,1139
62,49,29520,1139
36,49,30720,341
52,49,31080,341
55,49,31440,1139
62,49,31440,1139
38,49,32640,341
54,49,33000,341
57,49,33360,455
62,49,33360,455
55,64,33840,227
54,64,34080,227
50,64,34320,227
40,64,34560,227
54,64,34800,227
55,64,35040,341
62,64,35040,341
52,64,35400,227
52,64,35640,113
55,64,35760,227
62,64,35760,227
52,64,36000,227
40,64,36240,227
38,64,36480,227
45,64,36720,227
54,64,36960,227
54,64,37200,113
55,64,37320,227
62,64,37320,227
54,64,37560,113
55,64,37680,227
62,64,37680,227
54,64,37920,227
38,64,38160,227
36,64,38400,227
52,64,38640,227
55,64,38880,341
62,64,38880,341
48,64,39240,227
52,64,39480,113
55,64,39600,227
62,64,39600,227
52,64,39840,227
36,64,40080,227
38,64,40320,227
50,64,40560,113
54,64,40680,113
55,64,40800,227
62,64,40800,227
50,64,41040,113
55,64,41160,227
62,64,41160,227
54,64,41400,113
50,64,41520,227
55,64,41760,227
62,64,41760,227
50,64,42000,113
38,64,42120,113
40,64,42240,227
54,64,42480,227
55,64,42720,341
62,64,42720,341
52,64,43080,227
52,64,43320,113
55,64,43440,227
62,64,43440,227
52,64,43680,227
40,64,43920,227
38,64,44160,227
45,64,44400,227
54,64,44640,227
54,64,44880,113
55,64,45000,227
62,64,45000,227
54,64,45240,113
55,64,45360,227
62,64,45360,227
54,64,45600,227
38,64,45840,227
36,64,46080,227
52,64,46320,227
55,64,46560,341
62,64,46560,341
48,64,46920,227
52,64,47160,113
55,64,47280,227
62,64,47280,227
52,64,47520,227
36,64,47760,227
38,64,48000,227
50,64,48000,227
57,64,48240,113
62,64,48240,113
54,64,48360,113
50,64,48480,113
57,64,48600,227
62,64,48600,227
57,64,48840,113
62,64,48840,113
50,64,48960,113
45,64,49080,113
42,64,49200,113
38,64,49320,113
42,76,49440,367
30,76,49440,356
48,42,49920,341
55,42,49920,341
62,42,50280,341
69,42,50280,341
69,42,50640,1139
74,42,50640,1139
50,42,51840,341
57,42,51840,341
62,42,52200,341
69,42,52200,341
69,42,52560,1139
74,42,52560,1139
52,42,53760,341
59,42,53760,341
62,42,54120,341
66,42,54120,341
69,42,54480,1139
74,42,54480,960
47,42,55680,341
54,42,55680,341
62,42,56040,341
66,42,56040,341
69,42,56400,455
74,42,56400,455
57,49,56880,227
54,49,57120,227
50,49,57360,227
36,64,57600,455
48,64,57600,455
36,66,58080,455
48,66,58080,455
36,69,58560,455
48,69,58560,455
36,72,59040,455
48,72,59040,455
38,74,59520,455
50,74,59520,455
38,77,60000,455
50,77,60000,455
38,80,60480,455
50,80,60480,455
38,82,60960,455
50,82,60960,455
40,85,61440,227
52,85,61440,227
40,86,61680,227
52,86,61680,227
40,88,61920,227
52,88,61920,227
40,89,62160,227
52,89,62160,227
40,90,62400,227
52,90,62400,227
40,92,62640,227
52,92,62640,227
40,93,62880,227
52,93,62880,227
40,94,63120,227
52,94,63120,227
52,96,63360,113
50,96,63480,113
43,96,63600,113
40,96,63720,59
54,96,63840,911
57,96,63840,911
47,96,64800,455
59,96,64800,455
24,96,65280,341
36,96,65280,341
36,80,65640,113
43,80,65760,227
48,80,65760,227
36,80,66000,113
48,80,66120,227
55,80,66360,113
60,80,66360,113
48,80,66480,227
55,80,66720,113
60,80,66720,113
48,80,66840,227
36,80,67080,113
26,80,67200,341
38,80,67200,341
38,80,67560,113
45,80,67680,227
50,80,67680,227
38,80,67920,113
50,80,68040,227
57,80,68280,113
62,80,68280,113
50,80,68400,227
57,80,68640,113
62,80,68640,113
50,80,68760,227
50,80,69000,113
40,80,69120,341
52,80,69120,341
40,80,69480,113
47,80,69600,227
52,80,69600,227
40,80,69840,113
52,80,69960,227
55,80,70200,113
59,80,70200,113
52,80,70320,227
55,80,70560,113
59,80,70560,113
52,80,70680,227
40,80,70920,113
35,80,71040,341
47,80,71040,341
42,80,71400,113
47,80,71520,227
50,80,71520,227
35,80,71760,113
47,80,71880,227
54,80,72120,113
59,80,72120,113
47,80,72240,227
54,80,72480,113
59,80,72480,113
47,80,72600,227
35,80,72840,113
24,80,72960,341
36,80,72960,341
36,80,73320,113
43,80,73440,227
48,80,73440,227
36,80,73680,113
48,80,73800,227
55,80,74040,113
60,80,74040,113
48,80,74160,227
55,80,74400,113
60,80,74400,113
48,80,74520,227
36,80,74760,113
27,80,74880,341
39,80,74880,341
39,80,75240,113
47,80,75360,227
51,80,75360,227
39,80,75600,113
51,80,75720,227
54,80,75960,113
59,80,75960,113
51,80,76080,227
54,80,76320,113
59,80,76320,113
51,80,76440,227
39,80,76680,113
47,80,76800,227
52,80,76800,227
52,80,77040,113
47,80,77160,113
43,80,77280,113
40,80,77400,113
47,80,77520,227
52,80,77520,227
52,80,77760,113
47,80,77880,113
43,80,78000,113
40,80,78120,113
40,80,78240,59
52,80,78240,59
40,80,78360,59
52,80,78360,59
40,80,78480,59
52,80,78480,59
40,80,78600,59
35,80,78720,227
47,80,78720,227
42,80,78960,113
33,80,79080,227
45,80,79080,227
45,80,79320,113
54,80,79440,227
59,80,79440,227
47,80,79680,113
52,80,79800,227
57,80,79800,227
45,80,80040,113
47,80,80160,113
42,80,80280,113
35,80,80400,227
47,80,80400,227
24,80,80640,341
36,80,80640,341
36,80,81000,113
43,80,81120,227
48,80,81120,227
36,80,81360,113
48,80,81480,227
55,80,81720,113
60,80,81720,113
48,80,81840,227
55,80,82080,113
60,80,82080,113
48,80,82200,227
36,80,82440,113
26,80,82560,341
38,80,82560,341
38,80,82920,113
45,80,83040,227
50,80,83040,227
38,80,83280,113
50,80,83400,227
57,80,83640,113
62,80,83640,113
50,80,83760,227
57,80,84000,113
62,80,84000,113
50,80,84120,227
38,80,84360,113
27,80,84480,341
39,80,84480,341
39,80,84840,113
47,80,84960,227
51,80,84960,227
39,80,85200,113
51,80,85320,227
54,80,85560,113
59,80,85560,113
51,80,85680,227
54,80,85920,113
59,80,85920,113
51,80,86040,227
39,80,86280,113
28,80,86400,341
40,80,86400,341
40,80,86760,113
47,80,86880,227
52,80,86880,227
40,80,87120,113
52,80,87240,227
59,80,87480,113
64,80,87480,113
52,80,87600,227
59,80,87840,113
64,80,87840,113
52,80,87960,227
40,80,88200,113
24,80,88320,341
36,80,88320,341
36,80,88680,113
43,80,88800,227
48,80,88800,227
36,80,89040,113
48,80,89160,227
60,80,89400,113
55,80,89520,113
52,80,89640,113
48,80,89760,113
43,80,89880,113
40,80,90000,113
36,80,90120,113
26,80,90240,113
38,80,90240,113
26,80,90360,113
38,80,90360,113
28,96,92160,341
40,96,92160,341
40,96,92520,113
47,96,92640,341
52,96,92640,341
40,96,93000,227
47,96,93240,113
52,96,93240,113
40,96,93360,227
40,96,93600,59
52,96,93600,59
40,96,93720,59
52,96,93720,59
40,96,93840,59
52,96,93840,59
35,96,93960,59
28,96,94080,341
40,96,94080,341
40,96,94440,113
47,96,94560,341
52,96,94560,341
40,96,94920,227
47,96,95160,113
52,96,95160,113
40,96,95280,227
40,96,95520,59
52,96,95520,59
40,96,95640,59
52,96,95640,59
40,96,95760,59
52,96,95760,59
35,96,95880,59
28,96,96000,341
40,96,96000,341
40,96,96360,113
47,96,96480,341
52,96,96480,341
40,96,96840,227
47,96,97080,113
52,96,97080,113
40,96,97200,227
40,96,97440,59
52,96,97440,59
40,96,97560,59
52,96,97560,59
40,96,97680,59
52,96,97680,59
35,96,97800,59
28,96,97920,341
40,96,97920,341
40,93,98280,113
47,92,98400,341
52,92,98400,341
40,88,98760,227
47,86,99000,113
52,86,99000,113
40,85,99120,227
40,83,99360,59
52,83,99360,59
40,82,99480,59
52,82,99480,59
40,80,99600,227
52,80,99600,227
52,49,99840,341
66,49,100200,341
67,49,100560,1139
74,49,100560,1139
50,49,101760,341
66,49,102120,341
67,49,102480,1139
74,49,102480,120
48,49,103680,341
64,49,104040,341
67,49,104400,1139
74,49,104400,960
50,49,105600,341
66,49,105960,341
67,49,106320,1139
74,49,106320,360
40,49,107520,341
54,51,107880,341
55,53,108240,1139
62,53,108240,1139
38,59,109440,341
54,61,109800,341
57,63,110160,1139
62,63,110160,1139
36,70,111360,341
52,72,111720,341
55,74,112080,1139
62,74,112080,120
38,80,113280,227
50,80,113280,227
38,80,113640,113
50,80,113640,113
38,80,114000,227
50,80,114000,227
38,80,114240,455
50,80,114240,455
54,80,114720,113
62,80,114720,113
57,80,114840,113
54,80,114960,113
50,80,115080,113
40,80,115200,119
52,80,115200,119
40,80,115560,113
52,80,115560,113
40,80,115920,119
52,80,115920,119
57,80,116160,455
59,80,116160,455
62,80,116160,455
57,80,116640,119
59,80,116640,119
62,80,116640,119
50,80,116880,113
51,80,117000,113
40,80,117120,119
52,80,117120,119
40,80,117480,113
52,80,117480,113
40,80,117840,119
52,80,117840,119
40,80,118080,227
52,80,118080,227
40,80,118320,119
52,80,118320,119
55,80,118560,119
59,80,118560,119
62,80,118560,119
50,80,118800,113
51,80,118920,113
40,80,119040,119
52,80,119040,119
40,80,119400,113
52,80,119400,113
40,80,119760,119
52,80,119760,119
57,80,120000,455
59,80,120000,455
62,80,120000,455
57,80,120480,119
59,80,120480,119
62,80,120480,119
50,80,120720,113
51,80,120840,113
40,80,120960,119
52,80,120960,119
40,80,121320,113
52,80,121320,113
40,80,121680,119
52,80,121680,119
40,80,122160,227
52,80,122160,227
38,80,122400,227
50,80,122400,227
35,80,122640,227
47,80,122640,227
28,80,122880,119
40,80,122880,119
28,80,123240,113
40,80,123240,113
28,80,123600,119
40,80,123600,119
40,80,124080,113
47,80,124200,113
52,80,124320,113
50,80,124440,113
47,80,124560,227
28,80,124800,119
40,80,124800,119
28,80,125160,113
40,80,125160,113
28,80,125520,119
40,80,125520,119
40,80,125880,113
47,80,126000,119
52,80,126000,119
40,80,126240,455
52,80,126240,455
36,80,126720,341
48,80,126720,341
48,80,127080,227
48,80,127320,113
55,80,127440,227
60,80,127440,227
48,80,127680,113
36,80,127800,227
48,80,127800,227
48,80,128040,113
55,80,128160,227
60,80,128160,227
48,80,128400,227
26,80,128640,341
38,80,128640,341
26,80,129000,113
38,80,129000,113
54,80,129360,227
57,80,129360,227
50,80,129600,113
45,80,129720,113
42,80,129840,113
38,80,129960,113
26,96,130080,455
38,96,130080,455
24,96,130560,341
36,96,130560,341
36,80,130920,113
43,80,131040,227
48,80,131040,227
36,80,131280,113
48,80,131400,227
55,80,131640,113
60,80,131640,113
48,80,131760,227
55,80,132000,113
60,80,132000,113
48,80,132120,227
36,80,132360,113
26,80,132480,341
38,80,132480,341
38,80,132840,113
45,80,132960,227
50,80,132960,227
38,80,133200,113
50,80,133320,227
57,80,133560,113
62,80,133560,113
50,80,133680,227
57,80,133920,113
62,80,133920,113
50,80,134040,227
50,80,134280,113
40,80,134400,341
52,80,134400,341
40,80,134760,113
47,80,134880,227
52,80,134880,227
40,80,135120,113
52,80,135240,227
55,80,135480,113
59,80,135480,113
52,80,135600,227
55,80,135840,113
59,80,135840,113
52,80,135960,227
40,80,136200,113
35,80,136320,341
47,80,136320,341
42,80,136680,113
47,80,136800,227
50,80,136800,227
35,80,137040,113
47,80,137160,227
54,80,137400,113
59,80,137400,113
47,80,137520,227
54,80,137760,113
59,80,137760,113
47,80,137880,227
35,80,138120,113
24,80,138240,341
36,80,138240,341
36,80,138600,113
43,80,138720,227
48,80,138720,227
36,80,138960,113
48,80,139080,227
55,80,139320,113
60,80,139320,113
48,80,139440,227
55,80,139680,113
60,80,139680,113
48,80,139800,227
36,80,140040,113
27,80,140160,341
39,80,140160,341
39,80,140520,113
47,80,140640,227
51,80,140640,227
39,80,140880,113
51,80,141000,227
54,80,141240,113
59,80,141240,113
51,80,141360,227
54,80,141600,113
59,80,141600,113
51,80,141720,227
39,80,141960,113
47,80,142080,227
52,80,142080,227
52,80,142320,113
47,80,142440,113
43,80,142560,113
40,80,142680,113
47,80,142800,227
52,80,142800,227
52,80,143040,113
47,80,143160,113
43,80,143280,113
40,80,143400,113
40,80,143520,59
52,80,143520,59
40,80,143640,59
52,80,143640,59
40,80,143760,59
52,80,143760,59
40,80,143880,59
35,80,144000,227
47,80,144000,227
42,80,144240,113
33,80,144360,227
45,80,144360,227
45,80,144600,113
54,80,144720,227
59,80,144720,227
47,80,144960,113
52,80,145080,227
57,80,145080,227
45,80,145320,113
54,80,145440,113
59,80,145440,113
47,80,145560,113
35,80,145680,227
47,80,145680,227
36,80,145920,113
43,80,146040,113
48,80,146160,113
50,80,146280,113
52,80,146400,113
48,80,146520,113
52,80,146640,113
55,80,146760,113
60,80,146880,113
55,80,147000,113
52,80,147120,113
50,80,147240,113
52,80,147360,113
48,80,147480,113
43,80,147600,113
36,80,147720,113
38,80,147840,113
45,80,147960,113
50,80,148080,113
52,80,148200,113
54,80,148320,113
50,80,148440,113
54,80,148560,113
57,80,148680,113
62,80,148800,113
57,80,148920,113
54,80,149040,113
52,80,149160,113
54,80,149280,113
50,80,149400,113
45,80,149520,113
38,80,149640,113
39,80,149760,113
47,80,149880,113
51,80,150000,113
52,80,150120,113
54,80,150240,113
51,80,150360,113
54,80,150480,113
57,80,150600,113
59,80,150720,113
57,80,150840,113
54,80,150960,113
52,80,151080,113
54,80,151200,113
51,80,151320,113
47,80,151440,113
39,80,151560,113
40,80,151680,113
47,80,151800,113
52,80,151920,113
54,80,152040,113
55,80,152160,113
52,80,152280,113
55,80,152400,113
59,80,152520,113
64,80,152640,113
59,80,152760,113
55,80,152880,113
54,80,153000,113
55,80,153120,113
52,80,153240,113
47,80,153360,113
40,80,153480,113
36,80,153600,113
43,80,153720,113
48,80,153840,113
50,80,153960,113
52,80,154080,113
48,80,154200,113
52,80,154320,113
55,80,154440,113
60,80,154560,113
55,80,154680,113
52,80,154800,113
50,80,154920,113
52,80,155040,113
48,80,155160,113
43,80,155280,113
36,80,155400,113
26,80,155520,227
38,80,155520,227
48,49,157440,341
55,49,157440,341
62,49,157440,341
57,49,157800,341
62,49,158160,1139
67,49,158160,1139
50,49,159360,341
57,49,159360,341
62,49,159360,341
57,49,159720,341
62,49,160080,1139
67,49,160080,1139
52,49,161280,341
62,49,161280,341
59,49,161640,341
62,49,162000,1139
67,49,162000,1139
47,49,163200,341
57,49,163200,341
62,49,163200,341
57,49,163560,341
62,49,163920,455
66,49,163920,455
67,49,164400,227
66,49,164640,227
62,49,164880,227
48,49,165120,341
55,49,165120,341
62,49,165120,341
57,49,165480,341
62,49,165840,1139
67,49,165840,1139
50,49,167040,341
57,49,167040,341
62,49,167040,341
57,49,167400,341
62,49,167760,1139
67,49,167760,1139
52,49,168960,341
62,49,168960,341
59,49,169320,341
62,49,169680,1139
67,49,169680,1139
47,49,170880,341
57,49,170880,341
62,49,170880,341
57,49,171240,341
62,49,171600,455
66,49,171600,455
67,49,172080,227
66,49,172320,227
62,49,172560,227
48,49,172800,341
55,49,172800,341
62,49,172800,341
57,49,173160,341
62,49,173520,1139
67,49,173520,1139
50,49,174720,341
57,49,174720,341
62,49,174720,341
57,49,175080,341
62,49,175440,1139
67,49,175440,1139
52,49,176640,341
62,49,176640,341
59,49,177000,341
62,49,177360,1139
67,49,177360,1139
47,49,178560,341
57,49,178560,341
62,49,178560,341
57,49,178920,341
62,49,179280,455
66,49,179280,455
67,49,179760,227
66,49,180000,227
62,49,180240,227
48,49,180480,341
55,49,180480,341
62,49,180480,341
57,49,180840,341
67,60,181200,227
62,49,181200,1139
67,60,181440,455
66,60,182160,227
66,60,182400,455
50,49,182400,341
57,49,182400,341
57,49,182760,1481
62,60,183120,227
62,60,183360,341
60,60,183720,341
59,60,184080,227
52,49,184320,341
62,49,184320,341
59,49,184680,341
67,60,185040,227
62,49,185040,1139
67,60,185280,455
69,60,186000,227
47,49,186240,341
57,49,186240,341
62,49,186240,341
57,49,186600,341
62,49,186960,455
66,49,186960,455
67,49,187440,227
66,49,187680,227
62,49,187920,227
48,49,188160,341
55,49,188160,341
62,49,188160,341
57,49,188520,341
64,60,188880,227
67,60,188880,227
62,49,188880,960
64,60,189120,455
67,60,189120,120
62,60,189840,227
66,60,189840,227
62,60,190080,455
66,60,190080,455
50,49,190080,341
57,49,190080,341
57,49,190440,960
59,60,190800,227
62,60,190800,227
59,60,191040,341
62,60,191040,341
57,60,191400,521
60,60,191400,341
55,60,191760,227
59,60,191760,227
52,49,192000,341
62,49,192000,341
59,49,192360,341
64,60,192720,227
67,60,192720,227
62,49,192720,1139
64,60,192960,455
67,60,192960,120
66,60,193680,227
69,60,193680,227
66,60,193920,455
69,60,193920,455
47,49,193920,341
57,49,193920,341
62,49,193920,341
57,50,194280,341
67,63,194640,227
71,63,194640,227
62,51,194640,600
67,64,194880,341
71,64,194880,341
62,66,195240,360
66,66,195240,341
62,68,195600,227
66,68,195600,227
36,56,195840,227
48,56,195840,227
48,57,196080,227
52,58,196320,227
55,58,196320,227
48,59,196560,227
55,60,196800,227
60,60,196800,227
48,61,197040,227
52,62,197280,227
55,62,197280,227
48,63,197520,227
38,64,197760,227
50,64,197760,227
50,65,198000,227
54,66,198240,227
57,66,198240,227
50,67,198480,227
54,68,198720,227
57,68,198720,227
50,69,198960,227
54,70,199200,227
57,70,199200,227
50,71,199440,227
28,72,199680,227
40,72,199680,227
45,73,199920,227
57,73,199920,227
47,74,200160,227
59,74,200160,227
50,75,200400,227
62,75,200400,227
52,76,200640,227
64,76,200640,227
54,77,200880,227
66,77,200880,227
55,78,201120,227
67,78,201120,227
54,79,201360,227
66,79,201360,227
52,80,201600,113
50,80,201720,113
43,80,201840,113
40,80,201960,59
54,80,202080,227
57,80,202080,227
54,80,202440,227
57,80,202440,227
54,80,202800,227
57,80,202800,227
54,80,203160,227
57,80,203160,227
60,80,203520,113
55,80,203640,113
48,80,203760,119
24,96,204000,239
36,96,204000,239
36,80,204240,113
48,80,204360,227
55,80,204600,113
60,80,204600,113
48,80,204720,227
55,80,204960,113
60,80,204960,113
48,80,205080,227
48,80,205320,113
26,80,205440,341
38,80,205440,341
38,80,205800,113
45,80,205920,227
50,80,205920,227
38,80,206160,113
50,80,206280,227
57,80,206520,113
62,80,206520,113
50,80,206640,227
57,80,206880,113
62,80,206880,113
50,80,207000,227
50,80,207240,113
40,80,207360,341
52,80,207360,341
40,80,207720,113
47,80,207840,227
52,80,207840,227
40,80,208080,113
52,80,208200,227
55,80,208440,113
59,80,208440,113
52,80,208560,227
55,80,208800,113
59,80,208800,113
52,80,208920,227
40,80,209160,113
35,80,209280,341
47,80,209280,341
47,80,209640,113
54,80,209760,227
59,80,209760,227
35,80,210000,113
47,80,210120,227
54,80,210360,113
59,80,210360,113
47,80,210480,227
54,80,210720,113
59,80,210720,113
47,80,210840,227
35,80,211080,113
24,80,211200,341
36,80,211200,341
36,80,211560,113
43,80,211680,227
48,80,211680,227
36,80,211920,113
48,80,212040,227
55,80,212280,113
60,80,212280,113
48,80,212400,227
55,80,212640,113
60,80,212640,113
48,80,212760,227
36,80,213000,113
27,80,213120,341
39,80,213120,341
39,80,213480,113
47,80,213600,227
51,80,213600,227
39,80,213840,113
51,80,213960,227
54,80,214200,113
59,80,214200,113
51,80,214320,227
54,80,214560,113
59,80,214560,113
51,80,214680,227
39,80,214920,113
47,80,215040,227
52,80,215040,227
52,80,215280,113
47,80,215400,113
43,80,215520,113
40,80,215640,113
47,80,215760,227
52,80,215760,227
52,80,216000,113
47,80,216120,113
43,80,216240,113
40,80,216360,113
40,80,216480,59
52,80,216480,59
40,80,216600,59
52,80,216600,59
40,80,216720,59
52,80,216720,59
40,80,216840,59
35,80,216960,227
47,80,216960,227
42,80,217200,227
38,111,217440,479
50,111,217440,479
38,111,217920,479
50,111,217920,479
47,111,218400,479
59,111,218400,479
24,80,218880,341
36,80,218880,341
36,80,219240,113
43,80,219360,227
48,80,219360,227
36,80,219600,113
48,80,219720,227
55,80,219960,113
60,80,219960,113
48,80,220080,227
55,80,220320,113
60,80,220320,113
48,80,220440,227
36,80,220680,113
26,80,220800,341
38,80,220800,341
38,80,221160,113
45,80,221280,227
50,80,221280,227
38,80,221520,113
50,80,221640,227
57,80,221880,113
62,80,221880,113
50,80,222000,227
57,80,222240,113
62,80,222240,113
50,80,222360,227
38,80,222600,113
27,80,222720,341
39,80,222720,341
39,80,223080,113
47,80,223200,227
51,80,223200,227
39,80,223440,113
51,80,223560,227
54,80,223800,113
59,80,223800,113
51,80,223920,227
54,80,224160,113
59,80,224160,113
51,80,224280,227
39,80,224520,113
28,80,224640,341
40,80,224640,341
40,80,225000,113
47,80,225120,227
52,80,225120,227
40,80,225360,113
52,80,225480,227
59,80,225720,113
64,80,225720,113
52,80,225840,227
59,80,226080,113
64,80,226080,113
52,80,226200,227
40,80,226440,113
24,80,226560,341
36,80,226560,341
36,80,226920,113
43,80,227040,227
48,80,227040,227
36,80,227280,113
48,80,227400,227
60,80,227640,113
55,80,227760,113
52,80,227880,113
48,80,228000,113
43,80,228120,113
40,80,228240,113
36,80,228360,113
26,80,228480,341
38,80,228480,341
38,80,228840,113
45,80,228960,227
50,80,228960,227
50,80,229200,75
52,80,229280,75
54,80,229360,531
57,80,229440,455
62,80,229440,455
26,80,229920,455
38,80,229920,455
24,80,230400,341
36,80,230400,341
36,80,230760,113
43,80,230880,227
48,80,230880,227
36,80,231120,113
48,80,231240,227
55,80,231480,113
60,80,231480,113
48,80,231600,227
55,80,231840,113
60,80,231840,113
48,80,231960,227
36,80,232200,113
26,80,232320,341
38,80,232320,341
38,80,232680,113
45,80,232800,227
50,80,232800,227
38,80,233040,113
50,80,233160,227
57,80,233400,113
62,80,233400,113
50,80,233520,227
57,80,233760,113
62,80,233760,113
50,80,233880,227
38,80,234120,113
28,80,234240,341
40,80,234240,341
40,80,234600,113
47,80,234720,227
52,80,234720,227
40,80,234960,113
52,80,235080,227
59,80,235320,113
64,80,235320,113
52,80,235440,227
59,80,235680,113
64,80,235680,113
52,80,235800,227
40,80,236040,113
35,80,236160,341
47,80,236160,341
47,80,236520,113
54,80,236640,227
59,80,236640,227
35,80,236880,113
47,80,237000,227
54,80,237240,113
59,80,237240,113
47,80,237360,227
54,80,237600,113
59,80,237600,113
47,80,237720,227
35,80,237960,113
24,80,238080,341
36,80,238080,341
36,80,238440,113
43,80,238560,227
48,80,238560,227
36,80,238800,113
48,80,238920,227
60,80,239160,113
55,80,239280,113
52,80,239400,113
48,80,239520,113
43,80,239640,113
40,80,239760,113
36,80,239880,113
26,80,240000,227
38,80,240000,227
28,80,241920,341
40,80,241920,341
40,80,242280,113
47,80,242400,341
52,80,242400,341
40,80,242760,227
47,80,243000,113
52,80,243000,113
40,80,243120,227
40,80,243360,59
52,80,243360,59
40,80,243480,59
52,80,243480,59
40,80,243600,59
52,80,243600,59
35,80,243720,59
28,80,243840,341
40,80,243840,341
40,80,244200,113
47,80,244320,341
52,80,244320,341
40,80,244680,227
47,80,244920,113
52,80,244920,113
40,80,245040,227
40,80,245280,59
52,80,245280,59
40,80,245400,59
52,80,245400,59
40,80,245520,59
52,80,245520,59
35,80,245640,59
28,80,245760,341
40,80,245760,341
40,80,246120,113
47,80,246240,341
52,80,246240,341
40,80,246600,227
47,80,246840,113
52,80,246840,113
40,80,246960,227
40,80,247200,59
52,80,247200,59
40,80,247320,59
52,80,247320,59
40,80,247440,59
52,80,247440,59
35,80,247560,59
28,80,247680,341
40,80,247680,341
40,80,248040,113
47,80,248160,341
52,80,248160,341
40,80,248520,227
47,80,248760,113
52,80,248760,113
40,80,248880,227
40,96,249120,227
52,96,249120,227
28,96,249360,227
40,96,249360,227
