note,velocity,position,duration
62,80,0,113
65,80,120,113
69,80,240,113
74,80,360,113
77,80,480,113
81,80,600,113
86,80,720,113
81,80,840,113
77,80,960,113
74,80,1080,113
86,80,1200,113
81,80,1320,113
77,80,1440,113
74,80,1560,113
69,80,1680,113
65,80,1800,113
61,80,1920,113
65,80,2040,113
69,80,2160,113
73,80,2280,113
77,80,2400,113
81,80,2520,113
85,80,2640,113
81,80,2760,113
77,80,2880,113
73,80,3000,113
85,80,3120,113
81,80,3240,113
77,80,3360,113
73,80,3480,113
69,80,3600,113
65,80,3720,113
60,80,3840,113
65,80,3960,113
69,80,4080,113
72,80,4200,113
77,80,4320,113
81,80,4440,113
84,80,4560,113
81,80,4680,113
77,80,4800,113
72,80,4920,113
84,80,5040,113
81,80,5160,113
77,80,5280,113
72,80,5400,113
69,80,5520,113
65,80,5640,113
59,80,5760,113
65,80,5880,113
69,80,6000,113
71,80,6120,113
77,80,6240,113
81,80,6360,113
83,80,6480,113
81,80,6600,113
77,80,6720,113
71,80,6840,113
83,80,6960,113
81,80,7080,113
77,80,7200,113
71,80,7320,113
69,80,7440,113
65,80,7560,113
62,99,7680,113
74,99,7680,113
69,80,7800,113
65,80,7920,113
64,80,8040,113
62,80,8160,113
64,80,8280,113
65,80,8400,113
69,80,8520,113
64,99,8640,113
76,99,8640,113
74,80,8760,113
72,80,8880,113
70,80,9000,113
65,80,9120,113
70,80,9240,113
74,80,9360,113
76,80,9480,113
65,99,9600,113
77,99,9600,113
72,80,9720,113
69,80,9840,113
67,80,9960,113
65,80,10080,113
67,80,10200,113
69,80,10320,113
72,80,10440,113
67,99,10560,113
79,99,10560,113
77,80,10680,113
72,80,10800,113
69,80,10920,113
67,80,11040,113
69,80,11160,113
72,80,11280,113
77,80,11400,113
69,99,11520,113
81,99,11520,113
79,80,11640,113
74,80,11760,113
72,80,11880,113
70,80,12000,113
72,80,12120,113
74,80,12240,113
79,80,12360,113
70,99,12480,113
82,99,12480,113
81,80,12600,113
79,80,12720,113
74,80,12840,113
70,80,12960,113
74,80,13080,113
79,80,13200,113
82,80,13320,113
73,99,13440,113
85,99,13440,113
82,80,13560,113
81,80,13680,113
79,80,13800,113
76,80,13920,113
81,80,14040,113
82,80,14160,113
85,80,14280,113
76,99,14400,90
88,99,14400,90
86,80,14496,90
85,80,14592,90
82,80,14688,90
81,80,14784,90
79,80,14880,75
77,80,14960,75
76,80,15040,75
74,80,15120,75
73,80,15200,75
70,80,15280,75
65,64,15360,455
69,64,15360,455
65,64,15840,227
60,64,16080,455
65,64,16080,455
62,64,16560,227
65,64,16800,227
60,64,17040,455
64,64,17040,455
65,64,17520,227
62,64,17760,455
67,64,17760,455
62,64,18720,227
62,64,18960,227
60,64,19200,455
64,64,19200,455
60,64,19680,227
64,64,19920,455
67,64,19920,455
64,64,20400,227
64,64,20640,227
62,64,20880,683
62,64,22080,455
62,64,22560,455
65,64,22560,455
62,64,23040,455
67,64,23040,455
69,64,23520,227
62,64,23760,683
67,64,23760,683
67,64,24480,227
67,64,24720,227
60,64,24960,455
64,64,24960,455
69,64,24960,455
64,69,25440,227
60,72,25680,455
64,72,25680,455
60,77,26160,227
67,80,26400,227
62,80,26640,683
65,80,26640,683
69,80,28080,227
72,80,28080,227
81,80,28080,227
67,80,28320,227
79,80,28320,227
65,80,28560,227
69,80,28560,227
77,80,28560,227
84,64,28800,113
79,64,28920,113
84,64,29040,113
91,64,29160,113
62,64,29760,113
60,66,29880,113
65,68,30000,113
67,70,30120,113
72,72,30240,113
67,74,30360,113
72,76,30480,113
79,78,30600,113
69,80,30720,455
74,80,30720,455
81,80,30720,455
65,80,31200,227
77,80,31200,227
65,80,31440,455
70,80,31440,455
77,80,31440,455
62,80,31920,227
74,80,31920,227
65,80,32160,227
77,80,32160,227
64,80,32400,455
67,80,32400,455
76,80,32400,455
65,80,32880,227
77,80,32880,227
67,80,33120,455
72,80,33120,455
79,80,33120,455
62,80,34080,227
74,80,34080,227
62,80,34320,227
74,80,34320,227
64,80,34560,455
67,80,34560,455
76,80,34560,455
60,80,35040,227
72,80,35040,227
67,80,35280,455
72,80,35280,455
79,80,35280,455
69,80,35760,227
81,80,35760,227
67,80,36000,227
79,80,36000,227
65,80,36240,683
69,80,36240,683
77,80,36240,683
62,80,37440,455
65,80,37440,455
74,80,37440,455
69,80,37920,455
74,80,37920,455
81,80,37920,455
70,80,38400,455
74,80,38400,455
82,80,38400,455
65,82,38880,227
77,82,38880,227
65,83,39120,683
70,83,39120,683
77,83,39120,683
62,86,39840,227
74,86,39840,227
65,88,40080,227
77,88,40080,227
64,89,40320,455
67,89,40320,455
76,89,40320,455
65,91,40800,227
77,91,40800,227
67,92,41040,455
72,92,41040,455
79,92,41040,455
60,94,41520,227
72,94,41520,227
64,96,41760,227
67,96,41760,227
76,96,41760,227
64,96,42000,227
76,96,42000,227
65,96,42240,455
69,96,42240,455
77,96,42240,455
65,96,42960,227
77,96,42960,227
67,96,43200,455
72,96,43200,455
79,96,43200,455
60,96,43680,227
72,96,43680,227
62,96,43920,227
65,96,43920,227
74,96,43920,227
69,80,44400,227
74,80,44400,227
77,80,44400,227
81,80,44400,227
69,80,44640,227
74,80,44640,227
77,80,44640,227
81,80,44640,227
62,80,45120,227
69,80,45120,227
65,80,45360,227
67,80,45600,227
58,80,45840,683
62,80,45840,683
65,80,45840,683
62,80,46560,455
67,80,47040,227
70,80,47040,227
65,80,47280,455
69,80,47280,455
64,80,47760,455
67,80,47760,455
65,80,48240,227
67,80,48480,227
60,80,48720,683
64,80,48720,683
60,80,49680,227
60,80,49920,455
64,80,50400,227
70,80,50400,227
64,80,50640,455
69,80,50640,455
64,80,51120,227
67,80,51360,227
60,80,51600,1139
65,80,51600,1139
60,80,53040,227
69,80,53040,227
60,80,53280,227
67,80,53280,227
62,80,53520,455
65,80,53520,455
62,80,54000,227
62,80,54240,683
62,80,54960,227
65,80,55200,227
69,80,55200,227
64,80,55440,455
67,80,55440,455
69,80,55920,227
60,80,56160,455
64,80,56160,455
60,80,57120,227
60,80,57360,227
64,80,57600,455
69,80,57600,455
69,80,58080,227
60,80,58320,455
64,80,58320,455
67,80,58320,455
60,80,58800,455
57,84,59280,1139
62,84,59280,1139
69,96,60480,227
72,96,60480,227
81,96,60480,227
65,96,60720,227
77,96,60720,227
67,96,60960,227
79,96,60960,227
65,96,61200,683
70,96,61200,683
77,96,61200,683
62,96,61920,455
74,96,61920,455
70,96,62400,227
74,96,62400,227
82,96,62400,227
69,96,62640,455
81,96,62640,455
67,96,63120,455
72,96,63120,455
79,96,63120,455
65,96,63600,227
77,96,63600,227
67,96,63840,227
79,96,63840,227
64,96,64080,683
67,96,64080,683
76,96,64080,683
60,96,65280,455
64,96,65280,455
72,96,65280,455
70,96,65760,227
82,96,65760,227
69,96,66000,455
72,96,66000,455
81,96,66000,455
64,96,66480,227
76,96,66480,227
67,96,66720,227
79,96,66720,227
65,96,66960,1139
69,96,66960,1139
77,96,66960,1139
62,64,68400,119
64,64,68640,119
58,64,68880,683
62,64,68880,683
65,64,68880,683
62,64,69600,119
67,64,69600,119
62,66,69840,119
65,66,69840,119
64,71,70320,119
62,73,70560,119
65,73,70560,119
60,76,70800,683
64,76,70800,683
67,76,70800,683
64,83,71520,119
69,83,71520,119
64,86,71760,119
67,86,71760,119
70,93,72480,119
82,93,72480,119
69,96,72720,455
73,96,72720,455
76,96,72720,455
81,96,72720,455
67,96,73200,227
79,96,73200,227
69,96,73440,227
81,96,73440,227
70,97,73680,227
74,97,73680,227
77,97,73680,227
82,97,73680,227
70,103,74400,683
73,103,74400,683
76,103,74400,683
82,103,74400,683
72,108,75120,455
84,108,75120,455
69,112,75600,455
72,112,75600,455
81,112,75600,455
67,112,76080,227
79,112,76080,227
69,112,76320,113
72,112,76320,113
81,112,76320,113
76,112,76440,113
69,112,76560,113
64,112,76680,113
57,112,76800,239
69,112,77280,119
72,112,77280,119
81,112,77280,119
69,112,77520,227
72,112,77520,227
81,112,77520,227
68,112,77760,227
71,112,77760,227
80,112,77760,227
69,112,78000,227
72,112,78000,227
81,112,78000,227
71,112,78240,455
74,112,78240,455
83,112,78240,455
72,112,78720,227
76,112,78720,227
81,112,78720,227
84,112,78720,227
71,112,78960,227
83,112,78960,227
67,112,79200,227
79,112,79200,227
67,112,79440,227
71,112,79440,227
79,112,79440,227
64,112,79920,227
76,112,79920,227
71,112,80160,227
83,112,80160,227
69,112,80400,455
72,112,80400,455
76,112,80400,455
81,112,80400,455
76,90,80880,227
88,90,80880,227
83,88,81120,227
95,88,81120,227
81,86,81360,455
93,86,81360,455
64,96,81840,227
67,96,82080,227
57,96,82320,455
60,96,82320,455
65,96,82320,455
65,96,82800,227
69,96,83040,227
59,96,83280,455
62,96,83280,455
67,96,83280,455
62,96,83760,455
55,96,84240,455
60,96,84240,455
62,96,84240,455
64,98,84720,227
60,100,84960,455
64,100,84960,455
64,88,85440,113
65,89,85560,113
68,90,85680,113
69,90,85800,113
71,91,85920,113
74,92,86040,113
64,110,86160,227
76,110,86160,227
72,112,86400,227
76,112,86400,227
79,112,86400,227
84,112,86400,227
71,112,86640,227
83,112,86640,227
74,112,86880,227
86,112,86880,227
72,112,87120,227
79,112,87120,227
84,112,87120,227
67,112,87600,227
79,112,87600,227
71,112,87840,227
83,112,87840,227
69,112,88080,455
72,112,88080,455
76,112,88080,455
81,112,88080,455
76,90,88560,227
88,90,88560,227
83,88,88800,227
95,88,88800,227
81,86,89040,455
93,86,89040,455
69,96,89520,227
67,96,89760,227
60,96,90000,683
65,96,90000,683
69,96,90000,683
69,96,90720,227
62,96,90960,455
67,96,90960,455
71,96,90960,455
62,96,91440,455
67,96,91440,455
60,96,91920,683
64,96,91920,683
69,96,91920,683
81,112,92640,227
84,112,92640,227
93,112,92640,227
81,112,92880,227
84,112,92880,227
93,112,92880,227
80,112,93120,227
83,112,93120,227
92,112,93120,227
81,112,93360,227
84,112,93360,227
93,112,93360,227
83,112,93600,455
86,112,93600,455
95,112,93600,455
84,112,94080,227
88,112,94080,227
93,112,94080,227
96,112,94080,227
83,112,94320,227
95,112,94320,227
79,112,94560,227
91,112,94560,227
79,112,94800,227
83,112,94800,227
91,112,94800,227
76,112,95280,227
88,112,95280,227
83,112,95520,227
95,112,95520,227
81,112,95760,455
84,112,95760,455
88,112,95760,455
93,112,95760,455
89,95,96240,113
88,95,96360,113
84,95,96480,113
81,95,96600,113
77,95,96720,113
76,95,96840,113
72,95,96960,113
69,95,97080,113
64,112,97200,227
76,112,97200,227
67,112,97440,227
79,112,97440,227
65,112,97680,455
69,112,97680,455
77,112,97680,455
65,112,98160,227
77,112,98160,227
69,112,98400,227
81,112,98400,227
71,112,98640,455
74,112,98640,455
83,112,98640,455
67,112,99120,455
79,112,99120,455
71,112,99600,455
76,112,99600,455
83,112,99600,455
72,112,100080,227
84,112,100080,227
71,112,100320,455
76,112,100320,455
83,112,100320,455
71,95,100800,113
72,95,100920,113
76,95,101040,113
77,95,101160,113
80,95,101280,113
83,95,101400,113
76,112,101520,227
88,112,101520,227
84,112,101760,227
88,112,101760,227
93,112,101760,227
96,112,101760,227
83,112,102000,227
95,112,102000,227
86,112,102240,227
98,112,102240,227
84,112,102480,455
86,112,102480,455
91,112,102480,455
96,112,102480,455
79,112,102960,227
91,112,102960,227
83,112,103200,227
95,112,103200,227
84,112,103440,455
88,112,103440,455
91,112,103440,455
96,112,103440,455
96,90,103920,113
95,90,104040,113
91,88,104160,113
88,87,104280,113
84,86,104400,113
83,84,104520,113
79,84,104640,113
76,83,104760,113
72,96,104880,227
71,96,105120,227
60,96,105360,683
65,96,105360,683
69,96,105360,683
69,96,106080,227
62,96,106320,455
67,96,106320,455
74,96,106320,455
62,96,106800,455
67,96,106800,455
60,96,107280,455
64,96,107280,455
67,96,107280,455
71,96,107760,227
60,96,108000,227
64,96,108000,227
69,96,108000,227
57,81,108240,113
59,81,108360,113
60,81,108480,113
64,81,108600,113
69,81,108720,113
71,81,108840,113
72,81,108960,113
76,81,109080,113
81,81,109200,113
83,81,109320,113
72,96,109440,227
76,96,109440,227
79,96,109440,227
84,96,109440,227
72,96,109680,227
76,96,109680,227
79,96,109680,227
84,96,109680,227
69,96,110160,227
71,96,110160,227
74,96,110160,227
81,96,110160,227
67,96,110640,227
71,96,110640,227
74,96,110640,227
79,96,110640,227
72,96,111120,3875
76,96,111120,3875
79,96,111120,3875
84,96,111120,3875
38,80,0,455
50,80,0,455
50,80,480,227
53,80,720,455
57,80,720,455
62,80,720,455
50,80,1200,227
53,80,1440,227
57,80,1440,227
62,80,1440,227
50,80,1680,227
37,80,1920,455
49,80,1920,455
49,80,2400,227
53,80,2640,455
57,80,2640,455
61,80,2640,455
49,80,3120,227
53,80,3360,227
57,80,3360,227
61,80,3360,227
49,80,3600,227
36,80,3840,455
48,80,3840,455
48,80,4320,227
53,80,4560,455
57,80,4560,455
60,80,4560,455
48,80,5040,227
53,80,5280,227
57,80,5280,227
60,80,5280,227
48,80,5520,227
35,80,5760,455
47,80,5760,455
47,80,6240,227
53,80,6480,455
57,80,6480,455
59,80,6480,455
47,80,6960,227
53,80,7200,227
57,80,7200,227
59,80,7200,227
47,80,7440,227
34,80,7680,227
46,80,7680,227
46,80,7920,227
53,80,8160,227
58,80,8160,227
46,80,8400,455
46,80,8880,227
53,80,9120,227
58,80,9120,227
46,80,9360,227
33,80,9600,227
45,80,9600,227
45,80,9840,227
53,80,10080,227
57,80,10080,227
45,80,10320,455
45,80,10800,227
53,80,11040,227
57,80,11040,227
45,80,11280,227
31,80,11520,227
43,80,11520,227
43,80,11760,227
50,80,12000,227
55,80,12000,227
43,80,12240,455
43,80,12720,227
50,80,12960,227
55,80,12960,227
43,80,13200,227
28,80,13440,227
40,80,13440,227
45,80,13680,227
52,80,13920,227
57,80,13920,227
45,80,14160,455
45,80,14640,227
57,80,14880,113
52,80,15000,113
45,80,15120,227
29,49,15360,119
41,49,15360,119
41,49,15600,119
48,49,15840,119
53,49,15840,119
41,49,16080,119
41,49,16320,119
41,49,16560,119
48,49,16800,119
53,49,16800,119
41,49,17040,119
31,49,17280,119
43,49,17280,119
43,49,17520,119
50,49,17760,119
55,49,17760,119
43,49,18000,119
43,49,18240,119
43,49,18480,119
50,49,18720,119
55,49,18720,119
43,49,18960,119
33,49,19200,119
45,49,19200,119
45,49,19440,119
52,49,19680,119
57,49,19680,119
45,49,19920,119
45,49,20160,119
45,49,20400,119
52,49,20640,119
57,49,20640,119
45,49,20880,119
38,49,21120,119
50,49,21120,119
50,49,21360,119
53,49,21600,119
57,49,21600,119
50,49,21840,119
50,49,22080,119
50,49,22320,119
53,49,22560,119
57,49,22560,119
50,49,22800,119
31,49,23040,119
43,49,23040,119
43,49,23280,119
50,49,23520,119
55,49,23520,119
43,49,23760,119
43,49,24000,119
43,49,24240,119
50,49,24480,119
55,49,24480,119
43,49,24720,119
36,54,24960,119
48,54,24960,119
48,56,25200,119
55,58,25440,119
60,58,25440,119
48,61,25680,119
48,63,25920,119
48,65,26160,119
36,80,26400,455
48,80,26400,455
38,80,26880,227
50,80,26880,227
36,80,27120,227
48,80,27120,227
37,80,27360,227
49,80,27360,227
38,80,27600,227
50,80,27600,227
26,80,28080,227
38,80,28080,227
28,80,28320,227
40,80,28320,227
29,80,28560,227
41,80,28560,227
41,80,29280,227
53,80,29280,227
43,80,29520,227
55,80,29520,227
36,80,30000,683
48,80,30000,683
31,68,30720,119
43,68,30720,119
43,68,30960,119
50,68,31200,119
55,68,31200,119
43,68,31440,119
43,68,31680,119
43,68,31920,119
50,68,32160,119
55,68,32160,119
43,68,32400,119
36,68,32640,119
48,68,32640,119
48,68,32880,119
55,68,33120,119
60,68,33120,119
48,68,33360,119
48,68,33600,119
48,68,33840,119
55,68,34080,119
60,68,34080,119
48,68,34320,119
33,68,34560,119
45,68,34560,119
45,68,34800,119
52,68,35040,119
57,68,35040,119
45,68,35280,119
45,68,35520,119
45,68,35760,119
52,68,36000,119
57,68,36000,119
45,68,36240,119
38,68,36480,119
50,68,36480,119
50,68,36720,119
53,68,36960,119
57,68,36960,119
50,68,37200,119
50,68,37440,119
50,68,37680,119
53,68,37920,119
57,68,37920,119
50,68,38160,119
31,68,38400,119
43,68,38400,119
43,69,38640,119
50,69,38880,119
55,69,38880,119
43,70,39120,119
43,71,39360,119
43,72,39600,119
50,73,39840,119
55,73,39840,119
43,74,40080,119
36,75,40320,119
48,75,40320,119
48,76,40560,119
55,77,40800,119
60,77,40800,119
48,78,41040,119
48,79,41280,119
48,79,41520,119
36,96,41760,455
48,96,41760,455
38,96,42240,227
50,96,42240,227
33,96,42480,227
45,96,42480,227
33,96,42720,227
45,96,42720,227
29,96,42960,227
41,96,42960,227
29,96,43200,227
41,96,43200,227
28,96,43440,227
40,96,43440,227
24,96,43680,227
36,96,43680,227
26,96,43920,227
38,96,43920,227
26,80,44400,227
38,80,44400,227
26,80,44640,227
38,80,44640,227
38,80,45120,227
50,80,45120,227
36,80,45360,227
48,80,45360,227
43,80,45840,911
55,80,45840,911
43,66,46800,227
50,66,47040,227
55,66,47040,227
43,66,47280,227
46,66,47520,227
36,80,47760,455
48,80,47760,455
48,66,48240,455
52,66,48720,455
50,66,49200,227
48,66,49440,455
33,80,49920,455
45,80,49920,455
52,65,50400,227
57,65,50400,227
45,65,50640,227
45,65,50880,227
48,65,51120,227
52,65,51360,227
41,80,51600,227
53,80,51600,227
48,65,51840,227
55,65,52080,227
48,65,52320,227
53,65,52320,227
41,65,52560,227
48,65,52800,227
53,65,53040,227
52,65,53280,227
34,80,53520,455
46,80,53520,455
46,66,54000,227
58,66,54240,227
53,66,54480,227
46,66,54720,227
46,66,54960,227
53,66,55200,227
58,66,55200,227
36,80,55440,455
48,80,55440,455
48,65,55920,227
55,65,56160,227
52,65,56400,227
48,65,56640,227
48,65,56880,227
52,65,57120,227
55,65,57120,227
48,65,57360,227
33,80,57600,227
45,80,57600,227
45,65,57840,227
57,65,58080,227
52,65,58320,227
45,65,58560,227
45,65,58800,227
52,67,59040,227
57,67,59040,227
45,69,59280,227
38,86,59520,227
50,86,59520,227
38,89,59760,227
50,89,59760,227
38,91,60000,227
50,91,60000,227
38,96,60480,227
50,96,60480,227
36,96,60720,227
48,96,60720,227
31,96,61200,911
43,96,61200,911
43,81,62160,227
50,81,62400,227
55,81,62400,227
31,81,62640,227
43,81,62640,227
34,81,62880,119
46,81,62880,119
36,81,63120,455
48,81,63120,455
48,81,63600,455
52,81,64080,227
55,81,64320,227
60,81,64320,227
50,81,64560,227
36,81,64800,119
48,81,64800,119
34,81,65040,119
46,81,65040,119
33,81,65280,455
45,81,65280,455
52,81,65760,227
57,81,65760,227
45,81,66000,227
36,81,66240,227
48,81,66240,227
40,81,66480,119
52,81,66480,119
41,81,66960,455
53,81,66960,455
41,54,67440,119
48,54,67680,119
53,54,67680,119
41,54,67920,119
53,54,68160,119
57,54,68160,119
48,54,68400,119
41,54,68640,119
34,54,68880,455
46,54,68880,455
46,54,69360,119
53,54,69600,119
58,54,69600,119
46,56,69840,119
53,58,70080,119
58,58,70080,119
46,60,70320,119
46,62,70560,119
36,64,70800,455
48,64,70800,455
48,69,71280,119
55,70,71520,119
60,70,71520,119
48,73,71760,119
55,74,72000,119
60,74,72000,119
48,77,72240,119
48,79,72480,119
33,81,72720,455
45,81,72720,455
52,81,73200,227
57,81,73200,227
45,81,73440,227
34,82,73680,455
46,82,73680,455
53,85,74160,227
58,85,74160,227
46,87,74400,227
33,88,74640,455
45,88,74640,455
52,91,75120,227
57,91,75120,227
45,93,75360,227
36,95,75600,455
48,95,75600,455
55,95,76080,227
60,95,76080,227
48,95,76320,227
34,112,76560,227
46,112,76560,227
33,112,76800,239
45,112,76800,239
52,112,77760,75
47,112,77840,75
44,112,77920,75
40,112,78000,113
35,112,78120,113
28,112,78240,227
40,112,78240,227
45,112,78480,113
40,112,78600,113
33,112,78720,227
45,112,78720,227
33,112,78960,227
45,112,78960,227
31,112,79440,227
43,112,79440,227
28,112,79920,227
40,112,79920,227
29,112,80400,455
41,112,80400,455
41,90,80880,227
48,88,81120,227
53,88,81120,227
41,86,81360,227
48,84,81600,227
41,81,81840,227
48,81,82080,227
53,81,82080,227
38,81,82320,455
50,81,82320,455
53,81,82800,227
57,81,82800,227
50,81,83040,227
31,81,83280,455
43,81,83280,455
50,81,83760,227
55,81,83760,227
43,81,84000,227
36,81,84240,455
48,81,84240,455
52,83,84720,227
55,83,84720,227
48,84,84960,227
40,86,85200,455
52,86,85200,455
52,90,85680,227
56,91,85920,227
59,91,85920,227
62,91,85920,227
52,93,86160,227
33,112,86400,227
45,112,86400,227
33,112,86640,227
45,112,86640,227
31,112,87120,227
43,112,87120,227
28,112,87600,227
40,112,87600,227
29,112,88080,455
41,112,88080,455
41,90,88560,227
48,88,88800,227
53,88,88800,227
41,86,89040,227
48,84,89280,227
41,81,89520,227
48,81,89760,227
53,81,89760,227
38,81,90000,455
50,81,90000,455
53,81,90480,227
57,81,90480,227
50,81,90720,227
31,81,90960,455
43,81,90960,455
50,81,91440,227
55,81,91440,227
43,81,91680,227
33,81,91920,455
45,81,91920,455
45,90,92400,227
52,95,92640,227
57,95,92640,227
45,95,92880,227
28,95,93120,227
40,95,93120,227
40,95,93360,227
47,95,93600,227
52,95,93600,227
45,112,93840,113
40,112,93960,113
33,112,94080,227
45,112,94080,227
33,112,94320,227
45,112,94320,227
31,112,94800,227
43,112,94800,227
28,112,95280,227
40,112,95280,227
29,112,95760,455
41,112,95760,455
41,95,96240,227
48,95,96480,227
53,95,96480,227
41,95,96720,227
48,95,96960,227
41,95,97200,227
48,95,97440,227
53,95,97440,227
38,95,97680,455
50,95,97680,455
53,95,98160,227
57,95,98160,227
50,95,98400,227
31,95,98640,455
43,95,98640,455
50,95,99120,227
55,95,99120,227
43,95,99360,227
36,95,99600,455
48,95,99600,455
52,95,100080,227
55,95,100080,227
48,95,100320,227
40,95,100560,455
52,95,100560,455
52,95,101040,227
56,95,101280,227
59,95,101280,227
62,95,101280,227
52,95,101520,227
33,112,101760,227
45,112,101760,227
33,112,102000,227
45,112,102000,227
31,112,102480,227
43,112,102480,227
28,112,102960,227
40,112,102960,227
29,112,103440,455
41,112,103440,455
41,90,103920,227
48,88,104160,227
53,88,104160,227
41,86,104400,227
48,84,104640,227
41,81,104880,227
48,81,105120,227
53,81,105120,227
38,81,105360,455
50,81,105360,455
53,81,105840,227
57,81,105840,227
50,81,106080,227
31,81,106320,455
43,81,106320,455
50,81,106800,227
55,81,106800,227
43,81,107040,227
33,81,107280,455
45,81,107280,455
45,81,107760,227
52,81,108000,227
57,81,108000,227
45,81,108240,227
33,81,108480,227
45,81,108480,227
33,81,108720,227
45,81,108720,227
33,81,108960,227
45,81,108960,227
45,96,109200,113
40,96,109320,113
33,96,109440,227
45,96,109440,227
33,96,109680,227
45,96,109680,227
31,96,110160,227
43,96,110160,227
28,96,110640,227
40,96,110640,227
29,96,111120,3875
41,96,111120,3875
