note,velocity,position,duration
67,46,1200,240
67,49,1440,420
71,47,1860,60
69,47,1920,240
62,49,2160,240
64,45,2400,240
66,45,2640,120
67,45,2760,30
66,45,2790,30
64,45,2820,30
66,45,2850,30
67,46,2880,90
67,45,3120,90
67,45,3360,90
67,45,3600,480
62,45,4080,240
69,45,4080,180
72,45,4260,60
62,41,4320,720
71,49,4320,240
69,45,4560,240
71,45,4800,240
66,44,5040,480
62,36,5040,720
74,49,5040,240
72,45,5280,240
67,45,5520,240
71,45,5520,240
67,47,5760,240
71,47,5760,240
66,45,6000,240
69,45,6000,240
66,45,6240,240
69,45,6240,240
66,45,6480,480
69,45,6480,480
68,46,6960,240
71,46,6960,240
69,49,7200,240
72,49,7200,240
71,51,7440,240
74,51,7440,240
72,51,7680,240
76,51,7680,240
72,51,7920,480
76,51,7920,480
72,52,8400,80
69,52,8400,240
71,42,8480,80
72,44,8560,80
67,50,8640,240
71,50,8640,240
69,49,8880,240
72,49,8880,240
71,49,9120,240
74,49,9120,240
67,51,9360,960
72,51,9360,240
74,51,9600,240
76,51,9840,240
74,53,10080,240
79,57,10320,240
79,57,10560,240
81,60,10800,120
79,53,10920,120
78,57,11040,120
76,50,11160,120
74,55,11280,120
73,49,11400,120
76,47,11520,240
74,44,11760,240
74,44,12000,240
74,44,12240,360
71,44,12600,120
72,44,12720,120
69,44,12840,120
67,49,12960,420
71,47,13380,60
69,47,13440,240
62,49,13680,240
64,45,13920,240
66,45,14160,120
67,45,14280,30
66,45,14310,30
64,45,14340,30
66,45,14370,30
67,46,14400,90
67,45,14640,90
67,45,14880,90
67,45,15120,480
62,45,15600,240
69,45,15600,180
72,45,15780,60
62,41,15840,720
71,49,15840,240
69,45,16080,240
71,45,16320,240
66,44,16560,480
62,36,16560,720
74,49,16560,240
72,45,16800,240
67,45,17040,240
71,45,17040,240
67,47,17280,240
71,47,17280,240
66,45,17520,240
69,45,17520,240
66,45,17760,240
69,45,17760,240
66,45,18000,480
69,45,18000,480
68,46,18480,240
71,46,18480,240
69,49,18720,240
72,49,18720,240
71,51,18960,240
74,51,18960,240
72,51,19200,240
76,51,19200,240
72,51,19440,480
76,51,19440,480
72,53,19920,80
69,53,19920,240
71,46,20000,80
72,46,20080,80
67,50,20160,240
71,50,20160,240
69,49,20400,240
72,49,20400,240
71,49,20640,240
74,49,20640,240
67,51,20880,960
72,51,20880,240
74,51,21120,240
76,51,21360,240
74,53,21600,240
79,57,21840,240
79,57,22080,240
81,60,22320,120
79,53,22440,120
78,57,22560,120
76,52,22680,120
74,55,22800,120
73,47,22920,120
76,47,23040,240
74,44,23280,240
74,44,23520,240
74,44,23760,480
79,53,24240,240
79,53,24480,420
83,47,24900,60
81,51,24960,240
79,53,25200,240
78,49,25440,240
76,49,25680,240
74,50,25920,90
74,47,26160,90
74,47,26400,90
74,47,26640,480
75,51,27120,240
76,52,27360,240
78,54,27600,120
79,45,27720,30
78,45,27750,30
76,45,27780,30
78,45,27810,30
79,57,27840,240
69,52,28080,240
71,50,28320,240
73,46,28560,120
74,39,28680,30
73,39,28710,30
71,39,28740,30
73,39,28770,30
74,46,28800,120
74,42,29280,120
74,43,29520,120
74,42,30000,120
74,45,30240,120
74,44,30720,120
74,45,30960,120
74,41,31440,120
74,43,31680,120
74,37,31920,240
78,37,31920,240
76,36,32160,240
79,36,32160,240
81,37,32640,240
78,37,32640,240
79,36,32880,240
83,36,32880,240
81,40,33360,240
84,40,33360,240
83,36,33600,240
79,36,33600,240
72,47,34080,240
81,47,34080,240
71,47,34320,240
79,47,34320,240
72,45,34560,1080
78,45,34560,1080
71,43,35640,60
72,45,35700,60
74,47,35760,60
72,45,35820,60
71,45,35880,60
69,44,35940,60
67,49,36000,420
71,47,36420,60
69,47,36480,240
62,49,36720,240
64,45,36960,240
66,45,37200,120
67,45,37320,40
66,45,37350,40
64,45,37380,40
66,45,37410,30
67,46,37440,90
67,45,37680,90
67,45,37920,90
67,45,38160,480
62,45,38640,240
69,45,38640,180
72,45,38820,60
62,41,38880,720
71,49,38880,240
69,45,39120,240
71,45,39360,240
66,44,39600,480
62,36,39600,720
74,49,39600,240
72,45,39840,240
67,45,40080,240
71,45,40080,240
67,47,40320,240
71,47,40320,240
66,45,40560,240
69,45,40560,240
66,45,40800,240
69,45,40800,240
66,45,41040,480
69,45,41040,480
68,46,41520,240
71,46,41520,240
69,49,41760,240
72,49,41760,240
71,51,42000,240
74,51,42000,240
72,51,42240,240
76,51,42240,240
72,51,42480,480
76,51,42480,480
72,45,42960,120
69,45,42960,240
74,43,43080,40
72,43,43110,40
71,43,43140,40
72,43,43170,40
67,46,43200,240
71,46,43200,240
69,45,43440,240
72,45,43440,240
71,45,43680,120
74,45,43680,120
73,45,43800,40
74,45,43840,40
76,45,43880,40
71,47,43920,480
74,47,43920,480
59,40,44400,240
67,40,44400,120
69,36,44520,40
67,36,44550,40
66,36,44580,40
67,36,44610,30
60,44,44640,240
69,44,44640,240
64,41,44880,240
72,41,44880,240
62,41,45120,240
71,41,45120,240
60,44,45360,240
69,44,45360,120
71,36,45480,30
69,36,45510,30
67,36,45540,30
69,36,45570,30
59,40,45600,240
67,40,45600,240
57,35,45840,240
66,35,45840,120
67,35,45960,40
66,35,45990,40
64,35,46020,40
66,35,46050,40
60,39,46080,240
69,39,46080,240
59,30,46320,240
67,30,46320,240
59,30,46560,240
67,30,46560,240
59,30,46800,480
67,30,46800,480
79,53,47280,240
79,53,47520,420
83,51,47940,60
81,51,48000,240
79,53,48240,240
78,49,48480,240
76,49,48720,240
74,50,48960,90
74,47,49200,90
74,47,49440,90
74,47,49680,480
75,51,50160,240
76,52,50400,240
78,54,50640,120
79,45,50760,40
78,45,50790,40
76,45,50820,40
78,45,50850,40
79,57,50880,240
69,52,51120,240
71,50,51360,240
73,46,51600,120
74,39,51720,40
73,39,51750,40
71,39,51780,40
73,39,51810,40
74,46,51840,120
74,42,52320,120
74,43,52560,120
74,42,53040,120
74,45,53280,120
74,44,53760,120
74,45,54000,120
74,41,54480,120
74,43,54720,120
74,37,54960,240
78,37,54960,240
76,36,55200,240
79,36,55200,240
81,37,55680,240
78,37,55680,240
79,36,55920,240
83,36,55920,240
81,40,56400,240
84,40,56400,240
83,36,56640,240
79,36,56640,240
72,47,57120,240
81,47,57120,240
71,47,57360,240
79,47,57360,240
72,45,57600,1080
78,45,57600,1080
71,43,58680,60
72,45,58740,60
74,47,58800,60
72,45,58860,60
71,45,58920,60
69,44,58980,60
67,49,59040,420
71,47,59460,60
69,47,59520,240
62,49,59760,240
64,45,60000,240
66,45,60240,120
67,45,60360,40
66,45,60390,40
64,45,60420,40
66,45,60450,40
67,46,60480,90
67,45,60720,90
67,45,60960,90
67,45,61200,480
62,45,61680,240
69,45,61680,180
72,45,61860,60
62,41,61920,720
71,49,61920,240
69,45,62160,240
71,45,62400,240
66,44,62640,480
62,36,62640,720
74,49,62640,240
72,45,62880,240
67,45,63120,240
71,45,63120,240
67,47,63360,240
71,47,63360,240
66,45,63600,240
69,45,63600,240
66,45,63840,240
69,45,63840,240
66,45,64080,480
69,45,64080,480
68,46,64560,240
71,46,64560,240
69,49,64800,240
72,49,64800,240
71,51,65040,240
74,51,65040,240
72,51,65280,240
76,51,65280,240
72,51,65520,480
76,51,65520,480
72,45,66000,120
69,45,66000,240
74,43,66120,40
72,43,66150,40
71,43,66180,40
72,43,66210,40
67,46,66240,240
71,46,66240,240
69,45,66480,240
72,45,66480,240
71,45,66720,120
74,45,66720,120
73,45,66840,40
74,45,66880,40
76,45,66920,40
71,47,66960,480
74,47,66960,480
59,40,67440,240
67,40,67440,120
69,36,67560,40
67,36,67590,40
66,36,67620,40
67,36,67650,40
60,44,67680,240
69,44,67680,240
64,41,67920,240
72,41,67920,240
62,41,68160,240
71,41,68160,240
60,44,68400,240
69,44,68400,120
71,36,68520,30
69,36,68550,30
67,36,68580,30
69,36,68610,30
59,40,68640,240
67,40,68640,240
57,35,68880,240
66,35,68880,120
67,35,69000,40
66,35,69030,40
64,35,69060,40
66,35,69090,40
60,39,69120,240
69,39,69120,240
59,30,69360,240
67,30,69360,240
59,30,69600,240
67,30,69600,240
59,30,69840,480
67,30,69840,480
74,41,70320,120
74,41,70560,120
75,44,71040,120
75,44,71280,120
78,46,71760,120
78,46,72000,120
79,56,72480,120
79,56,72720,120
82,72,73200,480
73,72,73200,240
74,72,73440,480
81,69,73680,240
73,72,73920,240
82,72,73920,480
74,72,74160,480
81,68,74400,240
80,77,74640,120
81,67,74760,50
80,69,74800,50
78,69,74840,50
80,79,74880,240
81,69,75120,120
81,69,75360,120
83,69,75840,120
83,69,76080,120
69,44,76560,240
69,44,76800,240
69,45,77040,240
71,39,77280,240
73,39,77520,240
73,35,77760,720
74,33,78480,240
74,41,78960,120
74,41,79200,120
75,44,79680,120
75,44,79920,120
78,46,80400,120
78,46,80640,120
79,56,81120,120
79,56,81360,120
82,72,81840,480
73,72,81840,240
74,72,82080,480
81,66,82320,240
73,72,82560,240
82,72,82560,480
74,72,82800,480
81,66,83040,240
80,77,83280,120
81,64,83400,50
80,64,83440,50
78,65,83480,50
80,81,83520,240
81,67,83760,120
81,67,84000,120
83,77,84480,120
83,77,84720,120
69,44,85200,240
69,44,85440,240
69,45,85680,240
71,39,85920,240
73,39,86160,240
73,35,86400,720
74,33,87120,240
74,36,87600,240
74,37,87840,240
67,37,88320,240
72,39,88560,240
66,37,89040,240
70,39,89280,240
61,44,89760,240
62,45,90000,240
79,70,90480,480
67,70,90480,240
69,58,90720,480
78,69,90960,240
67,58,91200,240
79,70,91200,480
69,58,91440,480
78,67,91680,240
67,58,91920,240
79,73,91920,240
72,63,92160,960
75,63,92160,960
78,74,92160,960
81,74,92160,960
74,44,93120,240
82,44,93120,240
82,44,93360,480
74,44,93360,240
75,44,93600,960
81,44,93840,240
81,44,94080,480
74,41,94560,240
79,41,94560,240
72,37,94800,240
78,37,94800,240
72,35,95040,720
78,35,95040,720
70,33,95760,240
79,33,95760,240
74,36,96240,240
74,37,96480,240
67,37,96960,240
72,39,97200,240
66,37,97680,240
70,39,97920,240
61,44,98400,240
62,45,98640,240
79,70,99120,480
67,58,99120,240
69,58,99360,480
78,69,99600,240
67,58,99840,240
79,70,99840,480
69,58,100080,480
78,67,100320,240
67,58,100560,240
79,73,100560,240
72,63,100800,960
75,63,100800,960
78,74,100800,960
81,74,100800,960
74,44,101760,240
82,44,101760,240
82,44,102000,480
74,44,102000,240
75,44,102240,960
81,44,102480,240
81,44,102720,480
74,41,103200,240
79,41,103200,240
72,37,103440,240
78,37,103440,240
72,35,103680,720
78,35,103680,720
70,33,104400,240
79,33,104400,240
67,46,104880,240
67,49,105120,420
71,47,105540,60
69,47,105600,240
62,49,105840,240
63,45,106080,120
64,45,106200,120
65,45,106320,120
66,45,106440,120
67,46,106560,240
67,45,106800,240
67,45,107040,240
67,45,107280,480
62,45,107760,240
69,45,107760,180
72,45,107940,60
62,49,108000,720
71,49,108000,120
70,47,108120,120
71,49,108240,120
70,46,108360,120
71,49,108480,120
74,46,108600,120
66,44,108720,480
62,44,108720,720
74,49,108720,240
72,45,108960,240
67,45,109200,240
71,45,109200,240
67,47,109440,240
71,47,109440,240
66,45,109680,240
69,45,109680,240
66,45,109920,240
69,45,109920,240
66,45,110160,480
69,45,110160,480
68,46,110640,240
71,46,110640,240
69,49,110880,240
72,49,110880,240
71,51,111120,240
74,51,111120,240
72,51,111360,240
76,51,111360,240
72,51,111600,480
76,51,111600,480
71,47,112080,120
74,47,112080,120
69,47,112200,120
72,47,112200,120
71,49,112320,120
72,45,112440,120
71,49,112560,120
72,45,112680,120
71,49,112800,120
74,45,112920,120
72,51,113040,240
74,51,113280,240
76,51,113520,240
74,53,113760,240
79,57,114000,240
79,57,114240,240
81,60,114480,120
79,59,114600,120
78,57,114720,120
76,56,114840,120
74,55,114960,120
73,54,115080,120
76,47,115200,240
74,44,115440,240
74,41,115680,240
74,41,115920,360
71,44,116280,120
72,44,116400,120
69,44,116520,120
67,49,116640,420
71,47,117060,60
69,47,117120,240
62,49,117360,240
63,45,117600,120
64,45,117720,120
65,45,117840,120
66,45,117960,120
67,46,118080,240
67,45,118320,240
67,45,118560,240
67,45,118800,480
62,45,119280,240
69,45,119280,180
72,45,119460,60
62,49,119520,720
71,49,119520,120
70,47,119640,120
71,49,119760,120
70,46,119880,120
71,49,120000,120
74,46,120120,120
66,44,120240,480
62,44,120240,720
74,49,120240,240
72,45,120480,240
67,45,120720,240
71,45,120720,240
67,47,120960,240
71,47,120960,240
66,45,121200,240
69,45,121200,240
66,45,121440,240
69,45,121440,240
66,45,121680,480
69,45,121680,480
68,46,122160,240
71,46,122160,240
69,49,122400,240
72,49,122400,240
71,51,122640,240
74,51,122640,240
72,51,122880,240
76,51,122880,240
72,51,123120,480
76,51,123120,480
71,47,123600,120
74,47,123600,120
69,47,123720,120
72,47,123720,120
71,49,123840,120
72,45,123960,120
71,49,124080,120
72,45,124200,120
71,49,124320,120
74,45,124440,120
72,51,124560,240
74,51,124800,240
76,51,125040,240
74,53,125280,240
79,57,125520,240
79,57,125760,240
81,60,126000,120
79,59,126120,120
78,57,126240,120
76,56,126360,120
74,55,126480,120
73,54,126600,120
76,47,126720,240
74,44,126960,240
74,41,127200,240
74,41,127440,240
79,53,127920,240
79,53,128160,420
83,51,128580,60
81,51,128640,240
79,53,128880,240
78,49,129120,240
76,49,129360,240
74,50,129600,240
74,47,129840,240
74,47,130080,240
74,47,130320,480
75,51,130800,240
76,52,131040,120
75,50,131160,120
78,52,131280,120
76,51,131400,120
79,52,131520,120
78,51,131640,120
81,52,131760,120
79,51,131880,120
78,51,132000,120
76,50,132120,120
74,49,132240,120
73,47,132360,120
74,53,132480,240
74,46,132960,240
74,51,133200,240
74,46,133680,240
74,53,133920,240
74,46,134400,240
74,50,134640,240
74,41,135120,240
74,41,135480,120
78,43,135600,120
74,39,135720,120
76,41,135840,120
79,43,135960,120
78,41,136200,120
81,43,136320,120
78,40,136440,120
79,42,136560,120
83,44,136680,120
81,57,136920,120
84,59,137040,120
78,54,137160,120
81,57,137280,120
72,53,137400,120
78,56,137520,120
69,51,137640,120
72,54,137760,120
66,49,137880,120
69,52,138000,120
60,48,138120,120
76,50,138240,1200
74,44,139440,60
72,44,139500,60
71,44,139560,60
69,44,139620,60
67,49,139680,420
71,47,140100,60
69,47,140160,240
62,49,140400,240
63,45,140640,120
64,45,140760,120
65,45,140880,120
66,45,141000,120
67,46,141120,240
67,45,141360,240
67,45,141600,240
67,45,141840,480
62,45,142320,240
69,45,142320,180
72,45,142500,60
62,49,142560,720
71,49,142560,120
70,47,142680,120
71,49,142800,120
70,46,142920,120
71,49,143040,120
74,46,143160,120
66,44,143280,480
62,44,143280,720
74,49,143280,240
72,45,143520,240
67,45,143760,240
71,45,143760,240
67,47,144000,240
71,47,144000,240
66,45,144240,240
69,45,144240,240
66,45,144480,240
69,45,144480,240
66,45,144720,480
69,45,144720,480
68,46,145200,240
71,46,145200,240
69,49,145440,240
72,49,145440,240
71,51,145680,240
74,51,145680,240
72,51,145920,240
76,51,145920,240
72,51,146160,480
76,51,146160,480
71,47,146640,120
74,47,146640,120
69,47,146760,120
72,47,146760,120
67,49,146880,240
71,49,146880,240
69,46,147120,240
72,46,147120,240
71,46,147360,240
74,46,147360,240
59,47,147600,240
67,47,147600,240
60,45,147840,240
69,45,147840,240
62,45,148080,240
71,45,148080,240
69,46,148320,240
64,46,148440,240
71,45,148560,240
62,45,148680,240
72,45,148800,240
60,45,148920,240
72,45,149040,240
60,45,149160,240
69,45,149280,240
60,45,149400,240
66,43,149520,240
60,45,149640,840
69,41,149760,720
59,31,150480,240
67,31,150480,240
79,53,150960,240
79,53,151200,420
83,51,151620,60
81,51,151680,240
79,53,151920,240
78,49,152160,240
76,49,152400,240
74,50,152640,240
74,47,152880,240
74,47,153120,240
74,47,153360,480
75,51,153840,240
76,52,154080,120
75,50,154200,120
78,52,154320,120
76,51,154440,120
79,52,154560,120
78,51,154680,120
81,52,154800,120
79,51,154920,120
78,51,155040,120
76,50,155160,120
74,49,155280,120
73,47,155400,120
74,52,155520,240
74,45,156000,240
74,49,156240,240
74,46,156720,240
74,51,156960,240
74,45,157440,240
74,50,157680,240
74,41,158160,240
74,41,158520,120
78,43,158640,120
74,39,158760,120
76,41,158880,120
79,43,159000,120
78,41,159240,120
81,43,159360,120
78,40,159480,120
79,42,159600,120
83,44,159720,120
81,57,159960,120
84,59,160080,120
78,54,160200,120
81,57,160320,120
72,53,160440,120
78,56,160560,120
69,51,160680,120
72,54,160800,120
66,49,160920,120
69,52,161040,120
60,48,161160,120
76,50,161280,1200
74,44,162480,60
72,44,162540,60
71,44,162600,60
69,44,162660,60
67,49,162720,420
71,47,163140,60
69,47,163200,240
62,49,163440,240
63,45,163680,120
64,45,163800,120
65,45,163920,120
66,45,164040,120
67,46,164160,240
67,45,164400,240
67,45,164640,240
67,45,164880,480
62,45,165360,240
69,45,165360,180
72,45,165540,60
62,49,165600,720
71,49,165600,120
70,47,165720,120
71,49,165840,120
70,46,165960,120
71,49,166080,120
74,46,166200,120
66,44,166320,480
62,44,166320,720
74,49,166320,240
72,45,166560,240
67,45,166800,240
71,45,166800,240
67,47,167040,240
71,47,167040,240
66,45,167280,240
69,45,167280,240
66,45,167520,240
69,45,167520,240
66,45,167760,480
69,45,167760,480
68,46,168240,240
71,46,168240,240
69,49,168480,240
72,49,168480,240
71,51,168720,240
74,51,168720,240
72,51,168960,240
76,51,168960,240
72,51,169200,480
76,51,169200,480
71,47,169680,120
74,47,169680,120
69,47,169800,120
72,47,169800,120
67,49,169920,240
71,49,169920,240
69,46,170160,240
72,46,170160,240
71,46,170400,240
74,46,170400,240
59,47,170640,240
67,47,170640,240
60,45,170880,240
69,45,170880,240
62,45,171120,240
71,45,171120,240
69,46,171360,240
64,46,171480,240
71,45,171600,240
62,45,171720,240
72,45,171840,240
60,45,171960,240
72,45,172080,240
60,45,172200,240
69,45,172320,240
60,45,172440,240
66,43,172560,240
60,45,172680,840
69,41,172800,720
59,31,173520,240
67,31,173520,240
74,41,174000,120
74,41,174240,120
74,44,174720,120
75,44,174840,120
75,45,174960,120
79,49,175440,120
78,46,175560,120
78,46,175680,120
82,59,176160,120
78,56,176280,120
79,56,176400,120
82,63,176880,120
81,66,177000,120
84,74,177120,360
82,62,177480,120
81,62,177600,60
79,62,177660,60
77,62,177720,60
76,62,177780,30
74,62,177810,30
88,88,178080,480
85,88,178080,480
82,74,178080,480
79,74,178080,480
77,67,178620,60
81,70,178680,60
85,71,178740,60
86,72,178800,60
79,71,178860,60
85,72,178920,60
86,74,178980,60
88,76,179040,60
81,73,179100,60
86,75,179160,60
88,77,179220,60
89,89,179280,240
74,71,179520,480
77,83,179520,480
83,83,179520,480
69,58,180240,240
81,69,180240,240
77,57,180480,120
74,57,180600,120
69,55,180960,240
79,65,180960,240
76,54,181200,120
73,46,181320,100
73,53,181440,480
74,36,181920,180
74,36,182160,240
74,41,182640,120
74,41,182880,120
74,44,183360,120
75,44,183480,120
75,45,183600,120
79,49,184080,120
78,46,184200,120
78,46,184320,120
82,59,184800,120
78,56,184920,120
79,56,185040,120
82,63,185520,120
81,66,185640,120
84,74,185760,360
82,62,186120,120
81,62,186240,60
79,62,186300,60
77,62,186360,60
76,62,186420,30
74,62,186450,30
88,88,186720,480
85,88,186720,480
82,73,186720,480
79,73,186720,480
77,67,187260,60
81,70,187320,60
85,71,187380,60
86,72,187440,60
79,71,187500,60
85,72,187560,60
86,74,187620,60
88,76,187680,60
81,73,187740,60
86,75,187800,60
88,77,187860,60
89,89,187920,240
74,71,188160,480
77,83,188160,480
83,83,188160,480
69,59,188880,240
81,70,188880,240
77,57,189120,120
74,57,189240,120
69,54,189600,240
79,64,189600,240
76,54,189840,120
73,48,189960,120
73,55,190080,480
74,36,190560,180
74,36,190800,240
74,36,191280,120
74,37,191520,120
67,37,192000,240
72,39,192240,240
66,37,192720,240
70,39,192960,240
61,44,193440,240
62,45,193680,240
67,70,194160,120
79,63,194280,120
69,68,194400,120
79,63,194520,120
78,63,194640,120
69,63,194760,120
67,67,194880,120
79,63,195000,120
69,64,195120,120
79,64,195240,120
78,64,195360,120
69,64,195480,120
67,70,195600,120
79,70,195720,120
75,77,195840,120
87,69,195960,120
74,74,196080,120
86,66,196200,120
72,66,196320,120
84,63,196440,240
82,61,196680,120
81,61,196800,120
79,61,196920,120
78,61,197040,120
79,59,197160,120
77,57,197280,120
75,54,197400,120
74,53,197520,120
72,51,197640,120
70,48,197760,120
69,46,197880,120
67,42,198000,360
69,39,198360,120
66,39,198480,240
67,31,199200,120
67,31,199440,120
74,36,199920,120
74,37,200160,120
67,37,200640,240
72,39,200880,240
66,37,201360,240
70,39,201600,240
61,44,202080,240
62,45,202320,240
67,70,202800,120
79,63,202920,120
69,68,203040,120
79,63,203160,120
78,63,203280,120
69,63,203400,120
67,67,203520,120
79,67,203640,120
69,64,203760,120
79,64,203880,120
78,64,204000,120
69,64,204120,120
67,70,204240,120
79,70,204360,120
75,75,204480,120
87,67,204600,120
74,74,204720,120
86,64,204840,120
72,64,204960,120
84,60,205080,240
82,57,205320,120
81,57,205440,120
79,57,205560,120
78,57,205680,120
79,56,205800,120
77,55,205920,120
75,54,206040,120
74,52,206160,120
72,49,206280,120
70,45,206400,120
69,44,206520,120
67,42,206640,360
69,39,207000,120
66,39,207120,240
67,31,207840,120
67,31,208080,120
67,44,208560,240
67,45,208800,420
71,42,209220,60
69,45,209280,240
62,45,209520,240
66,48,209760,120
64,43,209880,110
67,50,210000,120
66,45,210120,110
69,52,210240,120
67,48,210360,110
72,54,210480,120
71,50,210600,110
74,55,210720,120
71,51,210840,110
67,49,210960,480
62,51,211440,240
69,51,211440,240
62,51,211680,720
70,51,211680,120
71,54,211800,120
72,58,211920,120
73,61,212040,120
74,64,212160,240
66,55,212400,480
62,55,212400,720
74,55,212400,240
72,56,212640,240
67,50,212880,240
71,50,212880,240
67,56,213120,240
71,56,213120,240
66,54,213360,240
69,54,213360,240
66,54,213600,240
69,54,213600,240
66,54,213840,480
69,54,213840,480
68,55,214320,240
71,55,214320,240
72,57,214560,60
69,59,214620,60
71,60,214680,60
72,61,214740,60
74,63,214800,60
76,63,214860,60
78,65,214920,60
80,66,214980,60
81,67,215040,60
83,68,215100,60
84,70,215160,60
86,71,215220,60
84,72,215280,240
88,72,215280,240
83,61,215520,240
86,61,215520,240
81,61,215760,480
84,61,215760,120
86,61,215880,40
84,61,215920,40
83,61,215960,40
84,63,216000,240
79,60,216240,240
83,60,216240,240
86,59,216480,180
88,50,216660,60
86,59,216720,120
84,55,216840,45
86,49,216900,60
84,59,216960,120
83,55,217080,45
84,50,217140,60
83,59,217200,120
81,55,217320,45
83,50,217380,60
81,59,217440,120
79,55,217560,45
81,50,217620,60
79,59,217680,120
78,54,217800,240
81,59,218040,240
79,56,218280,240
76,52,218520,240
73,47,218760,240
74,39,219000,120
76,43,219120,120
74,39,219240,120
76,43,219360,120
74,39,219480,120
74,39,219600,240
67,44,220080,240
67,45,220320,420
71,42,220740,60
69,45,220800,240
62,45,221040,240
66,48,221280,120
64,45,221400,110
67,52,221520,120
66,46,221640,110
69,52,221760,120
67,46,221880,110
72,54,222000,120
71,51,222120,110
74,55,222240,120
71,51,222360,110
67,49,222480,480
62,51,222960,240
69,51,222960,240
62,51,223200,720
70,51,223200,120
71,54,223320,120
72,58,223440,120
73,61,223560,120
74,64,223680,240
66,55,223920,480
62,55,223920,720
74,55,223920,240
72,56,224160,240
67,51,224400,240
71,51,224400,240
67,56,224640,240
71,56,224640,240
66,54,224880,240
69,54,224880,240
66,54,225120,240
69,54,225120,240
66,54,225360,480
69,54,225360,480
68,55,225840,240
71,55,225840,240
72,61,226080,60
69,61,226140,60
71,62,226200,60
72,63,226260,60
74,64,226320,60
76,65,226380,60
78,66,226440,60
80,66,226500,60
81,67,226560,60
83,68,226620,60
84,70,226680,60
86,71,226740,60
84,72,226800,240
88,72,226800,240
83,61,227040,240
86,61,227040,240
81,61,227280,480
84,61,227280,120
86,61,227400,40
84,61,227440,40
83,61,227480,40
84,63,227520,240
79,60,227760,240
83,60,227760,240
86,59,228000,180
88,50,228180,60
86,59,228240,120
84,55,228360,45
86,49,228420,60
84,59,228480,120
83,55,228600,45
84,50,228660,60
83,59,228720,120
81,55,228840,45
83,50,228900,60
81,59,228960,120
79,55,229080,45
81,50,229140,60
79,59,229200,120
78,54,229320,240
81,59,229560,240
79,56,229800,240
76,52,230040,240
73,47,230280,240
74,39,230520,120
76,43,230640,120
74,39,230760,120
76,43,230880,120
74,39,231000,120
74,39,231120,240
79,43,231600,240
78,43,231840,120
79,43,231960,90
81,45,232080,120
79,43,232200,90
81,46,232320,120
79,43,232440,90
81,46,232560,120
79,43,232680,90
79,46,232800,120
78,43,232920,90
78,45,233040,120
76,43,233160,90
76,47,233280,120
74,45,233400,90
74,44,233520,60
74,45,233640,60
74,45,233760,60
74,46,233880,60
76,51,234000,120
75,47,234120,120
75,47,234240,60
75,47,234360,60
75,47,234480,60
75,47,234600,60
75,52,234720,120
76,49,234840,120
78,49,234960,120
76,49,235080,120
79,52,235200,120
78,49,235320,120
81,50,235440,120
79,51,235560,120
78,53,235680,120
76,54,235800,120
74,56,235920,120
73,59,236040,120
74,79,236160,120
86,65,236280,120
74,60,236400,60
74,60,236520,60
74,60,236640,60
74,60,236760,60
74,81,236880,120
86,65,237000,120
74,60,237120,60
74,60,237240,60
74,60,237360,60
74,60,237480,60
74,79,237600,60
78,57,237660,60
81,61,237720,60
86,55,237780,60
74,62,237840,60
74,57,237960,60
74,57,238080,60
74,57,238200,60
74,76,238320,60
78,54,238380,60
81,59,238440,60
86,52,238500,60
74,57,238560,60
74,57,238680,60
74,57,238800,60
74,57,238920,60
74,75,239040,120
86,59,239160,120
86,57,239280,60
86,57,239400,60
86,57,239520,60
86,57,239640,60
85,68,239760,120
86,59,239880,120
86,57,240000,60
86,57,240120,60
86,57,240240,60
86,57,240360,60
87,73,240480,120
86,59,240600,120
86,57,240720,60
86,57,240840,60
86,57,240960,60
86,57,241080,60
85,67,241200,120
86,59,241320,120
86,57,241440,60
86,57,241560,60
86,57,241680,60
86,57,241800,60
86,58,241920,60
86,58,242040,60
86,58,242160,60
86,57,242280,60
86,55,242400,60
86,55,242520,60
86,54,242640,120
86,52,242880,120
86,52,243120,120
84,51,243360,120
86,51,243360,120
84,49,243600,120
86,49,243600,120
84,49,243840,120
86,49,243840,120
84,46,244080,180
86,46,244080,180
84,45,244320,180
86,45,244320,180
84,45,244560,180
86,45,244560,180
84,42,244800,240
86,42,244800,240
84,40,245040,240
86,40,245040,240
84,37,245280,240
86,37,245280,240
84,36,245520,720
86,36,245520,720
72,31,246720,240
74,31,246720,240
74,31,246960,480
72,31,246960,480
67,46,247440,240
67,49,247680,420
71,47,248100,60
69,47,248160,240
62,49,248400,240
64,45,248640,240
66,45,248880,120
67,45,249000,40
66,45,249030,40
64,45,249060,40
66,45,249090,40
67,46,249120,90
67,45,249360,90
67,45,249600,90
67,45,249840,480
62,56,250320,240
66,56,250320,240
69,56,250320,240
62,60,250560,240
67,60,250560,240
71,60,250560,240
62,52,251010,200
67,54,251020,190
71,56,251030,180
74,60,251040,170
62,54,251250,510
66,56,251260,500
69,59,251270,490
72,61,251280,480
62,54,251760,240
67,54,251760,240
71,54,251760,240
69,56,252240,60
71,59,252300,60
73,60,252360,60
74,61,252420,60
76,63,252480,60
78,63,252540,60
79,64,252600,30
81,65,252630,30
83,66,252660,30
85,69,252690,30
86,84,252720,480
68,43,253200,240
71,43,253200,240
69,45,253440,240
72,45,253440,240
71,45,253680,240
74,45,253680,240
72,40,253920,120
76,40,253920,120
72,36,254160,240
76,36,254160,240
66,45,254640,240
69,45,254640,240
67,47,254880,240
71,47,254880,240
69,46,255120,240
72,46,255120,240
71,41,255360,120
74,41,255360,120
71,37,255600,240
74,37,255600,240
67,39,256080,240
69,43,256320,120
71,44,256560,120
72,44,256800,120
62,44,257040,120
64,42,257280,120
66,42,257520,120
59,47,258460,260
62,51,258470,250
67,54,258480,240
79,43,258960,240
78,43,259200,120
79,43,259320,90
81,45,259440,120
79,43,259560,90
81,46,259680,120
79,43,259800,90
81,46,259920,120
79,43,260040,90
79,46,260160,120
78,43,260280,90
78,45,260400,120
76,43,260520,90
76,47,260640,120
74,45,260760,90
74,44,260880,60
74,45,261000,60
74,45,261120,60
74,46,261240,60
76,51,261360,120
75,47,261480,120
75,47,261600,60
75,47,261720,60
75,47,261840,60
75,47,261960,60
75,52,262080,120
76,49,262200,120
78,49,262320,120
76,49,262440,120
79,52,262560,120
78,49,262680,120
81,50,262800,120
79,51,262920,120
78,52,263040,120
76,52,263160,120
74,53,263280,120
73,54,263400,120
74,76,263520,120
86,61,263640,120
74,57,263760,60
74,57,263880,60
74,57,264000,60
74,57,264120,60
74,77,264240,120
86,61,264360,120
74,57,264480,60
74,57,264600,60
74,57,264720,60
74,57,264840,60
74,75,264960,60
78,55,265020,60
81,61,265080,60
86,55,265140,60
74,57,265200,60
74,57,265320,60
74,57,265440,60
74,57,265560,60
74,73,265680,60
78,54,265740,60
81,60,265800,60
86,54,265860,60
74,57,265920,60
74,57,266040,60
74,57,266160,60
74,57,266280,60
74,72,266400,120
86,59,266520,120
86,57,266640,60
86,57,266760,60
86,57,266880,60
86,57,267000,60
85,65,267120,120
86,59,267240,120
86,57,267360,60
86,57,267480,60
86,57,267600,60
86,57,267720,60
87,72,267840,120
86,59,267960,120
86,57,268080,60
86,57,268200,60
86,57,268320,60
86,57,268440,60
85,68,268560,120
86,59,268680,120
86,57,268800,60
86,57,268920,60
86,57,269040,60
86,57,269160,60
86,58,269280,60
86,57,269400,60
86,56,269520,60
86,55,269640,60
86,54,269760,60
86,54,269880,60
86,54,270000,120
86,52,270240,120
86,52,270480,120
84,51,270720,120
86,51,270720,120
84,49,270960,120
86,49,270960,120
84,49,271200,120
86,49,271200,120
84,46,271440,180
86,46,271440,180
84,45,271680,180
86,45,271680,180
84,45,271920,180
86,45,271920,180
84,42,272160,240
86,42,272160,240
84,40,272400,240
86,40,272400,240
84,37,272640,240
86,37,272640,240
84,36,272880,720
86,36,272880,720
72,31,274080,240
74,31,274080,240
74,31,274320,480
72,31,274320,480
67,46,274800,240
67,49,275040,420
71,47,275460,60
69,47,275520,240
62,49,275760,240
64,45,276000,240
66,45,276240,120
67,45,276360,30
66,45,276390,30
64,45,276420,30
66,45,276450,30
67,46,276480,90
67,45,276720,90
67,45,276960,90
67,45,277200,480
62,56,277680,240
66,56,277680,240
69,56,277680,240
62,60,277920,240
67,60,277920,240
71,60,277920,240
62,52,278370,200
67,54,278380,190
71,57,278390,180
74,61,278400,170
62,53,278610,510
66,55,278620,500
69,57,278630,490
72,61,278640,480
62,54,279120,240
67,54,279120,240
71,54,279120,240
69,56,279600,60
71,59,279660,60
73,60,279720,60
74,61,279780,60
76,63,279840,60
78,63,279900,60
79,64,279960,30
81,65,279990,30
83,66,280020,30
85,69,280050,30
86,84,280080,480
68,43,280560,240
71,43,280560,240
69,45,280800,240
72,45,280800,240
71,45,281040,240
74,45,281040,240
72,40,281280,120
76,40,281280,120
72,36,281520,240
76,36,281520,240
66,45,282000,240
69,45,282000,240
67,47,282240,240
71,47,282240,240
69,46,282480,240
72,46,282480,240
71,41,282720,120
74,41,282720,120
71,37,282960,240
74,37,282960,240
67,39,283440,240
69,43,283680,120
71,44,283920,120
72,44,284160,120
62,44,284400,120
64,42,284640,120
66,42,284880,120
59,50,285820,260
62,50,285830,250
67,55,285840,240
59,38,1200,240
55,38,1200,240
55,40,1440,480
59,40,1440,480
55,38,1920,240
60,38,1920,240
55,40,2160,480
60,40,2160,480
55,38,2640,240
60,38,2640,240
55,37,2880,90
59,37,2880,90
55,36,3120,90
59,36,3120,90
55,36,3360,90
59,36,3360,90
55,36,3600,480
59,36,3600,480
54,36,4080,180
57,36,4260,60
55,39,4320,240
54,36,4560,240
55,36,4800,240
57,38,5040,480
55,36,5520,240
50,38,5760,240
62,36,6000,240
62,36,6240,240
62,36,6480,240
60,36,6720,240
59,37,6960,240
57,40,7200,480
55,39,7680,240
54,40,7920,240
57,39,8160,240
62,39,8400,240
55,46,8640,1680
65,46,9120,240
64,46,9360,240
62,46,9600,240
60,46,9840,240
59,42,10080,240
54,40,10320,240
57,40,10320,240
52,40,10560,240
55,40,10560,240
52,43,10800,480
55,43,10800,240
59,42,11040,240
57,40,11280,240
67,40,11280,480
62,40,11520,720
66,36,11760,240
66,36,12000,240
62,32,12240,480
66,32,12240,480
55,40,12960,480
59,40,12960,480
55,38,13440,240
60,38,13440,240
55,40,13680,480
60,40,13680,480
55,38,14160,240
60,38,14160,240
55,37,14400,90
59,37,14400,90
55,36,14640,90
59,36,14640,90
55,36,14880,90
59,36,14880,90
55,36,15120,480
59,36,15120,480
54,36,15600,180
57,36,15780,60
55,39,15840,240
54,36,16080,240
55,36,16320,240
57,38,16560,480
55,36,17040,240
50,38,17280,240
62,36,17520,240
62,36,17760,240
62,36,18000,240
60,36,18240,240
59,37,18480,240
57,40,18720,480
55,39,19200,240
54,40,19440,240
57,39,19680,240
62,39,19920,240
55,46,20160,1680
65,46,20640,240
64,46,20880,240
62,46,21120,240
60,46,21360,240
59,42,21600,240
54,40,21840,240
57,40,21840,240
52,40,22080,240
55,40,22080,240
52,43,22320,480
55,43,22320,240
59,42,22560,240
57,40,22800,240
67,40,22800,480
62,40,23040,720
66,36,23280,240
66,36,23520,240
62,32,23760,480
66,32,23760,480
62,34,24240,240
59,34,24240,240
62,36,24480,480
59,36,24480,480
64,34,24960,240
60,34,24960,240
59,36,25200,240
62,36,25200,240
60,36,25440,240
57,36,25440,240
55,34,25680,240
59,34,25680,240
54,33,25920,90
57,33,25920,90
54,32,26160,90
57,32,26160,90
54,32,26400,90
57,32,26400,90
54,32,26640,720
57,32,26640,240
59,39,26880,240
60,43,27120,240
55,36,27360,240
59,36,27360,240
54,37,27600,240
57,37,27600,240
52,37,27840,240
55,37,27840,240
67,33,28080,240
57,33,28080,720
66,33,28320,240
64,33,28560,240
50,20,29040,240
54,26,29040,240
52,20,29280,180
55,26,29280,180
54,21,29760,240
57,27,29760,240
55,21,30000,180
59,27,30000,180
57,27,30480,240
60,34,30480,240
55,25,30720,180
59,32,30720,180
54,25,31200,240
57,31,31200,240
52,23,31440,180
55,29,31440,180
50,32,31680,240
54,32,31680,240
62,35,32160,120
62,36,32400,120
62,35,32880,120
62,36,33120,120
62,36,33600,120
62,48,33840,360
66,43,34080,240
67,43,34320,240
62,41,34560,1080
69,41,34560,1080
55,40,36000,480
59,40,36000,480
55,38,36480,240
60,38,36480,240
55,40,36720,480
60,40,36720,480
55,38,37200,240
60,38,37200,240
55,37,37440,90
59,37,37440,90
55,36,37680,90
59,36,37680,90
55,36,37920,90
59,36,37920,90
55,36,38160,480
59,36,38160,480
54,36,38640,180
57,36,38820,60
55,39,38880,240
54,36,39120,240
55,36,39360,240
57,38,39600,480
55,36,40080,240
50,38,40320,240
62,36,40560,240
62,36,40800,240
62,36,41040,240
60,36,41280,240
59,37,41520,240
57,40,41760,480
55,39,42240,240
54,40,42480,240
57,39,42720,240
62,39,42960,240
55,39,43200,720
43,41,43920,240
47,40,44160,240
52,36,44400,240
48,39,44640,720
50,37,45360,720
43,32,46080,240
47,26,46320,240
50,26,46560,240
55,26,46800,480
62,34,47280,240
59,34,47280,240
62,36,47520,480
59,36,47520,480
64,34,48000,240
60,34,48000,240
59,36,48240,240
62,36,48240,240
60,36,48480,240
57,36,48480,240
55,34,48720,240
59,34,48720,240
54,33,48960,90
57,33,48960,90
54,32,49200,90
57,32,49200,90
54,32,49440,90
57,32,49440,90
54,32,49680,720
57,32,49680,240
59,39,49920,240
60,43,50160,240
55,36,50400,240
59,36,50400,240
54,37,50640,240
57,37,50640,240
52,37,50880,240
55,37,50880,240
67,33,51120,240
57,33,51120,720
66,33,51360,240
64,33,51600,240
50,21,52080,240
54,27,52080,240
52,21,52320,180
55,27,52320,180
54,23,52800,240
57,29,52800,240
55,21,53040,180
59,27,53040,180
57,27,53520,240
60,34,53520,240
55,25,53760,180
59,32,53760,180
54,25,54240,240
57,32,54240,240
52,25,54480,180
55,32,54480,180
50,32,54720,240
54,32,54720,240
62,35,55200,120
62,36,55440,120
62,35,55920,120
62,36,56160,120
62,36,56640,120
62,48,56880,360
66,43,57120,240
67,43,57360,240
62,41,57600,1080
69,41,57600,1080
55,40,59040,480
59,40,59040,480
55,38,59520,240
60,38,59520,240
55,40,59760,480
60,40,59760,480
55,38,60240,240
60,38,60240,240
55,37,60480,90
59,37,60480,90
55,36,60720,90
59,36,60720,90
55,36,60960,90
59,36,60960,90
55,36,61200,480
59,36,61200,480
54,36,61680,180
57,36,61860,60
55,39,61920,240
54,36,62160,240
55,36,62400,240
57,38,62640,480
55,36,63120,240
50,38,63360,240
62,36,63600,240
62,36,63840,240
62,36,64080,240
60,36,64320,240
59,37,64560,240
57,40,64800,480
55,39,65280,240
54,40,65520,240
57,39,65760,240
62,39,66000,240
55,39,66240,720
43,41,66960,240
47,40,67200,240
52,36,67440,240
48,39,67680,720
50,37,68400,720
43,32,69120,240
47,26,69360,240
50,26,69600,240
55,26,69840,480
55,24,70800,240
58,28,70800,240
60,32,71520,240
55,27,71520,240
55,28,72240,240
60,34,72240,240
55,45,72960,240
58,54,72960,240
55,57,73200,240
64,57,73200,240
65,52,73440,480
53,52,73440,480
64,57,73920,240
55,57,73920,240
53,51,74160,480
65,51,74160,480
62,54,74640,240
58,54,74640,240
65,54,74640,240
65,52,74880,720
62,52,74880,720
57,52,74880,720
65,51,75600,720
62,51,75600,720
56,51,75600,720
65,40,76320,720
62,40,76320,720
57,40,76320,720
67,31,77280,240
67,31,77520,240
67,28,77760,240
65,22,78000,240
64,21,78240,240
62,22,78480,240
55,24,79440,240
58,28,79440,240
60,30,80160,240
55,25,80160,240
55,26,80880,240
60,31,80880,240
55,45,81600,240
58,54,81600,240
55,57,81840,240
64,57,81840,240
65,52,82080,480
53,52,82080,480
64,57,82560,240
55,57,82560,240
53,51,82800,480
65,51,82800,480
62,54,83280,240
58,54,83280,240
65,54,83280,240
65,52,83520,720
62,52,83520,720
57,52,83520,720
65,51,84240,720
62,51,84240,720
56,51,84240,720
65,40,84960,720
62,40,84960,720
57,40,84960,720
67,31,85920,240
67,31,86160,240
67,29,86400,240
65,24,86640,240
64,22,86880,240
62,22,87120,240
58,23,88080,240
62,23,88080,240
63,27,88800,240
57,27,88800,240
55,27,89520,240
58,27,89520,240
50,45,90240,240
38,45,90240,240
58,45,90480,240
62,55,90480,240
63,50,90720,480
60,42,90720,480
62,55,91200,240
58,45,91200,240
60,41,91440,480
63,49,91440,480
62,52,91920,240
58,44,91920,240
63,46,92160,720
60,46,92160,720
54,39,92160,720
57,39,92160,720
55,36,92880,720
60,38,93600,720
72,33,93840,240
72,33,94080,480
62,38,94320,720
70,36,94560,240
69,34,94800,240
55,26,95040,960
69,26,95040,720
67,27,95760,240
58,24,96720,240
62,24,96720,240
63,27,97440,240
57,27,97440,240
55,27,98160,240
58,27,98160,240
50,45,98880,240
38,45,98880,240
58,45,99120,240
62,55,99120,240
63,50,99360,480
60,42,99360,480
62,55,99840,240
58,45,99840,240
60,41,100080,480
63,49,100080,480
62,52,100560,240
58,44,100560,240
63,46,100800,720
60,46,100800,720
54,39,100800,720
57,39,100800,720
55,36,101520,720
60,38,102240,720
72,33,102480,240
72,33,102720,480
62,38,102960,720
70,36,103200,240
69,34,103440,240
55,26,103680,960
69,26,103680,720
67,27,104400,240
59,38,104880,240
55,38,104880,240
55,40,105120,480
59,40,105120,480
55,38,105600,240
60,38,105600,240
55,40,105840,480
60,40,105840,480
55,38,106320,240
60,38,106320,240
55,34,106560,1200
59,34,106560,130
58,30,106680,120
59,33,106800,130
58,30,106920,120
59,32,107040,130
58,31,107160,120
59,36,107280,480
54,36,107760,180
57,41,107940,60
55,39,108000,120
54,36,108120,120
55,39,108240,120
54,36,108360,120
55,39,108480,120
59,36,108600,120
57,38,108720,480
55,36,109200,240
50,38,109440,120
61,32,109560,120
62,37,109680,120
61,33,109800,120
62,37,109920,120
61,33,110040,120
62,38,110160,120
64,36,110280,120
60,38,110400,120
62,36,110520,120
59,39,110640,120
60,36,110760,120
57,40,110880,120
64,37,111000,120
60,37,111120,120
59,36,111240,120
57,36,111360,120
55,36,111480,120
54,36,111600,120
57,35,111720,120
60,36,111840,120
62,37,111960,120
64,39,112080,120
66,40,112200,120
67,46,112320,480
65,45,112800,240
64,45,113040,120
67,42,113160,120
62,44,113280,120
65,40,113400,120
60,43,113520,120
64,38,113640,120
59,42,113760,120
62,39,113880,120
55,42,114000,120
59,39,114120,120
54,42,114240,120
57,39,114360,120
52,43,114480,120
55,42,114600,120
57,41,114720,120
61,41,114840,120
64,40,114960,120
67,39,115080,360
62,40,115200,480
62,34,115440,240
66,34,115440,240
62,34,115680,240
66,34,115680,240
62,32,115920,480
66,32,115920,480
55,40,116640,480
59,40,116640,480
55,38,117120,240
60,38,117120,240
55,40,117360,480
60,40,117360,480
55,38,117840,240
60,38,117840,240
55,37,118080,1200
59,37,118080,130
58,32,118200,120
59,36,118320,130
58,33,118440,120
59,35,118560,130
58,32,118680,120
59,36,118800,480
54,36,119280,180
57,41,119460,60
55,39,119520,120
54,36,119640,120
55,39,119760,120
54,36,119880,120
55,39,120000,120
59,36,120120,120
57,38,120240,480
55,36,120720,240
50,38,120960,120
61,36,121080,120
62,37,121200,120
61,36,121320,120
62,37,121440,120
61,36,121560,120
62,38,121680,120
64,36,121800,120
60,38,121920,120
62,36,122040,120
59,39,122160,120
60,36,122280,120
57,40,122400,120
64,37,122520,120
60,37,122640,120
59,36,122760,120
57,36,122880,120
55,36,123000,120
54,36,123120,120
57,35,123240,120
60,36,123360,120
62,37,123480,120
64,39,123600,120
66,40,123720,120
67,46,123840,480
65,45,124320,240
64,45,124560,120
67,42,124680,120
62,44,124800,120
65,40,124920,120
60,43,125040,120
64,38,125160,120
59,42,125280,120
62,39,125400,120
55,42,125520,120
59,39,125640,120
54,42,125760,120
57,39,125880,120
52,43,126000,120
55,42,126120,120
57,41,126240,120
61,41,126360,120
64,40,126480,120
67,39,126600,360
62,40,126720,480
62,34,126960,240
66,34,126960,240
62,34,127200,240
66,34,127200,240
62,32,127440,480
66,32,127440,480
71,34,127920,120
74,34,128040,120
71,34,128160,120
74,32,128280,120
71,34,128400,120
74,31,128520,120
72,34,128640,120
76,31,128760,120
71,34,128880,120
74,32,129000,120
69,34,129120,120
72,32,129240,120
67,34,129360,120
71,31,129480,120
66,33,129600,120
69,31,129720,120
66,33,129840,120
69,32,129960,120
66,33,130080,120
69,31,130200,120
66,33,130320,120
69,31,130440,120
66,33,130560,120
69,32,130680,120
66,33,130800,120
69,31,130920,120
67,36,131040,480
67,33,131760,480
64,33,131760,480
61,33,131760,480
57,33,131760,480
50,32,132600,120
54,33,132720,120
50,31,132840,120
52,32,132960,120
55,35,133080,120
54,35,133320,120
57,38,133440,120
54,33,133560,120
55,35,133680,120
59,37,133800,120
57,36,134040,120
60,39,134160,120
57,36,134280,120
59,38,134400,120
55,36,134520,120
54,33,134760,120
57,36,134880,120
54,33,135000,120
55,36,135120,120
52,33,135240,120
50,34,135360,240
50,32,135840,240
50,34,136080,240
38,50,136560,240
38,57,136800,1440
48,39,138360,120
57,42,138480,120
54,36,138600,120
60,37,138720,120
57,33,138840,120
66,36,138960,720
55,40,139680,480
59,40,139680,480
55,38,140160,240
60,38,140160,240
55,40,140400,480
60,40,140400,480
55,38,140880,240
60,38,140880,240
55,37,141120,1200
59,37,141120,130
58,33,141240,120
59,36,141360,130
58,33,141480,120
59,36,141600,130
58,33,141720,120
59,36,141840,480
54,36,142320,180
57,41,142500,60
55,39,142560,120
54,36,142680,120
55,39,142800,120
54,36,142920,120
55,39,143040,120
59,36,143160,120
57,38,143280,480
55,36,143760,240
50,38,144000,120
61,36,144120,120
62,37,144240,120
61,36,144360,120
62,37,144480,120
61,36,144600,120
62,38,144720,120
64,36,144840,120
60,38,144960,120
62,36,145080,120
59,39,145200,120
60,36,145320,120
57,40,145440,120
64,37,145560,120
60,37,145680,120
59,36,145800,120
57,36,145920,120
55,36,146040,120
54,36,146160,120
55,35,146280,120
57,36,146400,120
50,37,146520,120
52,39,146640,120
54,40,146760,120
55,39,146880,120
54,38,147000,120
52,37,147120,120
50,36,147240,120
48,35,147360,120
47,34,147480,120
52,38,147600,120
50,37,147720,120
48,36,147840,120
47,35,147960,120
45,33,148080,120
43,32,148200,120
48,39,148320,240
47,36,148560,240
45,36,148800,240
50,39,149040,720
43,32,149760,120
54,29,149880,120
55,32,150000,120
54,29,150120,120
55,30,150240,120
54,27,150360,120
55,26,150480,240
71,34,150960,120
74,34,151080,120
71,34,151200,120
74,32,151320,120
71,34,151440,120
74,31,151560,120
72,34,151680,120
76,31,151800,120
71,34,151920,120
74,32,152040,120
69,34,152160,120
72,32,152280,120
67,34,152400,120
71,31,152520,120
66,33,152640,120
69,31,152760,120
66,33,152880,120
69,32,153000,120
66,33,153120,120
69,31,153240,120
66,33,153360,120
69,31,153480,120
66,33,153600,120
69,32,153720,120
66,33,153840,120
69,31,153960,120
67,36,154080,480
67,33,154800,480
64,33,154800,480
61,33,154800,480
57,33,154800,480
50,32,155640,120
54,33,155760,120
50,31,155880,120
52,32,156000,120
55,35,156120,120
54,35,156360,120
57,38,156480,120
54,33,156600,120
55,35,156720,120
59,37,156840,120
57,36,157080,120
60,39,157200,120
57,36,157320,120
59,38,157440,120
55,36,157560,120
54,33,157800,120
57,36,157920,120
54,33,158040,120
55,36,158160,120
52,33,158280,120
50,34,158400,240
50,32,158880,240
50,34,159120,240
38,51,159600,240
38,62,159840,1440
48,39,161400,120
57,42,161520,120
54,36,161640,120
60,37,161760,120
57,33,161880,120
66,36,162000,720
55,40,162720,480
59,40,162720,480
55,38,163200,240
60,38,163200,240
55,40,163440,480
60,40,163440,480
55,38,163920,240
60,38,163920,240
55,37,164160,1200
59,37,164160,130
58,34,164280,120
59,36,164400,130
58,32,164520,120
59,36,164640,130
58,33,164760,120
59,36,164880,480
54,36,165360,180
57,41,165540,60
55,39,165600,120
54,36,165720,120
55,39,165840,120
54,36,165960,120
55,39,166080,120
59,36,166200,120
57,38,166320,480
55,36,166800,240
50,38,167040,120
61,36,167160,120
62,37,167280,120
61,36,167400,120
62,37,167520,120
61,36,167640,120
62,38,167760,120
64,36,167880,120
60,38,168000,120
62,36,168120,120
59,39,168240,120
60,36,168360,120
57,40,168480,120
64,37,168600,120
60,37,168720,120
59,36,168840,120
57,36,168960,120
55,36,169080,120
54,36,169200,120
55,35,169320,120
57,36,169440,120
50,37,169560,120
52,39,169680,120
54,40,169800,120
55,39,169920,120
54,38,170040,120
52,37,170160,120
50,36,170280,120
48,35,170400,120
47,34,170520,120
52,38,170640,120
50,37,170760,120
48,36,170880,120
47,35,171000,120
45,33,171120,120
43,32,171240,120
48,39,171360,240
47,36,171600,240
45,36,171840,240
50,39,172080,720
43,32,172800,120
54,29,172920,120
55,32,173040,120
54,29,173160,120
55,30,173280,120
54,27,173400,120
55,26,173520,240
55,19,174480,240
58,24,174480,240
60,26,175200,240
55,21,175200,240
55,24,175920,240
60,28,175920,240
55,38,176640,240
58,45,176640,240
67,59,177840,720
70,59,177840,720
73,59,177840,720
65,61,178560,480
69,61,178560,480
64,58,179040,240
67,58,179040,240
62,58,179280,240
65,58,179280,240
68,62,179520,480
71,62,179520,480
57,58,180000,720
62,58,180000,720
65,58,180000,720
57,49,180720,720
64,49,180720,720
67,49,180720,720
50,27,181920,180
62,27,181920,180
50,27,182160,240
62,27,182160,240
55,19,183120,240
58,24,183120,240
60,28,183840,240
55,24,183840,240
55,25,184560,240
60,30,184560,240
55,38,185280,240
58,45,185280,240
67,59,186480,720
70,59,186480,720
73,59,186480,720
65,61,187200,480
69,61,187200,480
64,58,187680,240
67,58,187680,240
62,58,187920,240
65,58,187920,240
68,62,188160,480
71,62,188160,480
57,57,188640,720
62,57,188640,720
65,57,188640,720
57,45,189360,720
64,45,189360,720
67,45,189360,720
50,27,190560,180
62,27,190560,180
50,27,190800,240
62,27,190800,240
58,22,191760,240
62,27,191760,240
63,29,192480,240
57,25,192480,240
55,25,193200,240
58,29,193200,240
50,45,193920,240
38,45,193920,240
58,55,194160,240
62,55,194160,240
63,50,194400,480
60,50,194400,480
62,55,194880,240
58,55,194880,240
60,49,195120,480
63,49,195120,480
62,52,195600,240
58,52,195600,240
60,55,195840,240
54,46,195840,720
62,44,196080,240
63,44,196320,240
55,45,196560,240
62,45,196560,720
57,36,196800,240
58,37,197040,240
63,38,197280,720
60,38,197280,720
58,35,198000,480
50,35,198000,720
57,29,198480,240
43,26,199200,120
55,26,199200,120
43,26,199440,120
55,26,199440,120
58,22,200400,240
62,27,200400,240
63,29,201120,240
57,25,201120,240
55,25,201840,240
58,29,201840,240
50,45,202560,240
38,45,202560,240
58,55,202800,240
62,55,202800,240
63,50,203040,480
60,50,203040,480
62,55,203520,240
58,55,203520,240
60,49,203760,480
63,49,203760,480
62,52,204240,240
58,52,204240,240
60,57,204480,240
54,48,204480,720
62,45,204720,240
63,45,204960,240
55,46,205200,240
62,46,205200,720
57,36,205440,240
58,36,205680,240
63,38,205920,720
60,38,205920,720
58,35,206640,480
50,35,206640,720
57,29,207120,240
43,26,207840,120
55,26,207840,120
43,26,208080,120
55,26,208080,120
55,34,208560,240
59,34,208560,240
55,36,208800,480
59,36,208800,480
55,32,209280,240
60,32,209280,240
55,34,209520,480
60,34,209520,480
55,36,210000,240
60,36,210000,240
55,37,210240,480
59,37,210240,480
55,30,210720,240
59,30,210720,240
55,33,210960,480
59,33,210960,480
54,44,211440,240
55,40,211680,120
56,44,211800,120
57,47,211920,120
58,50,212040,120
59,55,212160,240
57,50,212400,480
55,48,212880,240
50,51,213120,360
52,50,213480,60
54,51,213540,60
55,54,213600,60
57,54,213660,60
59,55,213720,60
61,56,213780,60
62,59,213840,240
60,52,214080,240
59,52,214320,240
57,48,214560,480
55,46,215040,240
54,48,215280,720
62,46,215760,720
55,48,216000,1440
65,44,216480,240
64,41,216720,240
62,41,216960,240
60,41,217200,240
55,41,217440,1200
59,41,217440,240
57,39,217680,240
60,39,217920,240
59,36,218160,240
67,35,218400,720
57,32,218640,240
62,34,218880,960
66,32,219120,240
66,32,219360,240
66,29,219600,240
55,34,220080,240
59,34,220080,240
55,36,220320,480
59,36,220320,480
55,32,220800,240
60,32,220800,240
55,34,221040,480
60,34,221040,480
55,36,221520,240
60,36,221520,240
55,37,221760,480
59,37,221760,480
55,30,222240,240
59,30,222240,240
55,33,222480,480
59,33,222480,480
54,44,222960,240
55,40,223200,120
56,44,223320,120
57,47,223440,120
58,50,223560,120
59,55,223680,240
57,50,223920,480
55,48,224400,240
50,51,224640,360
52,49,225000,60
54,50,225060,60
55,52,225120,60
57,54,225180,60
59,55,225240,60
61,55,225300,60
62,57,225360,240
60,52,225600,240
59,52,225840,240
57,48,226080,480
55,46,226560,240
54,48,226800,720
62,46,227280,720
55,48,227520,1440
65,44,228000,240
64,41,228240,240
62,41,228480,240
60,41,228720,240
55,41,228960,1200
59,41,228960,240
57,39,229200,240
60,39,229440,240
59,36,229680,240
67,35,229920,720
57,32,230160,240
62,34,230400,960
66,32,230640,240
66,32,230880,240
66,29,231120,240
71,36,231600,240
74,36,231600,240
71,39,231840,480
74,39,231840,480
72,36,232320,240
76,36,232320,240
71,40,232560,240
74,40,232560,240
69,36,232800,240
72,36,232800,240
67,36,233040,240
71,36,233040,240
66,41,233280,480
69,41,233280,480
66,36,233760,240
69,36,233760,240
66,45,234000,480
69,45,234000,480
66,43,234480,240
69,43,234480,240
67,49,234720,720
71,49,234720,720
57,44,235440,720
64,44,235440,720
67,44,235440,720
54,46,236400,240
50,46,236400,240
55,47,236640,120
52,47,236640,120
57,45,237120,240
54,45,237120,240
55,46,237360,120
59,46,237360,120
57,46,237840,240
60,46,237840,240
55,47,238080,120
59,47,238080,120
54,44,238560,240
57,44,238560,240
55,44,238800,120
52,44,238800,120
50,44,239040,240
54,44,239040,240
66,43,239280,240
62,43,239280,240
67,41,239520,240
64,41,239520,240
69,42,240000,240
66,42,240000,240
67,41,240240,240
70,41,240240,240
72,40,240720,240
69,40,240720,240
70,36,240960,240
67,36,240960,240
69,37,241440,240
66,37,241440,240
64,36,241680,240
67,36,241680,240
62,37,241920,480
66,37,241920,480
81,33,244080,180
81,31,244320,180
81,31,244560,180
78,26,244800,240
81,26,244800,240
78,25,245040,240
81,25,245040,240
78,23,245280,240
81,23,245280,240
78,21,245520,720
81,21,245520,720
66,21,246720,240
69,21,246720,240
66,21,246960,480
69,21,246960,480
55,38,247440,240
59,38,247440,240
55,40,247680,480
59,40,247680,480
55,38,248160,240
60,38,248160,240
55,40,248400,480
60,40,248400,480
55,38,248880,240
60,38,248880,240
55,37,249120,90
59,37,249120,90
55,36,249360,90
59,36,249360,90
55,36,249600,90
59,36,249600,90
55,36,249840,480
59,36,249840,480
50,52,250320,240
55,55,250560,240
59,55,250560,240
43,40,250970,240
47,43,250980,230
50,45,250990,220
55,49,251000,210
45,41,251210,550
48,44,251220,540
54,45,251230,530
57,49,251240,520
47,48,251760,240
50,48,251760,240
55,48,251760,240
62,54,252000,60
64,54,252060,60
66,54,252120,60
67,54,252180,60
38,45,252720,480
42,45,252720,480
45,45,252720,480
50,53,252720,480
64,26,253200,240
60,27,253440,240
59,27,253680,240
57,27,253920,120
57,25,254160,240
62,28,254640,240
59,29,254880,240
57,29,255120,240
55,26,255360,120
55,26,255600,240
52,31,256080,240
48,31,256320,120
50,27,257040,120
55,36,257760,120
50,33,258000,120
47,33,258240,120
43,39,258420,300
47,42,258430,290
50,45,258440,200
55,47,258450,270
71,36,258960,240
74,36,258960,240
71,39,259200,480
74,39,259200,480
72,36,259680,240
76,36,259680,240
71,40,259920,240
74,40,259920,240
69,36,260160,240
72,36,260160,240
67,36,260400,240
71,36,260400,240
66,41,260640,480
69,41,260640,480
66,36,261120,240
69,36,261120,240
66,45,261360,480
69,45,261360,480
66,43,261840,240
69,43,261840,240
67,49,262080,720
71,49,262080,720
57,44,262800,720
64,44,262800,720
67,44,262800,720
54,46,263760,240
50,46,263760,240
55,47,264000,120
52,47,264000,120
57,45,264480,240
54,45,264480,240
55,46,264720,120
59,46,264720,120
57,46,265200,240
60,46,265200,240
55,47,265440,120
59,47,265440,120
54,44,265920,240
57,44,265920,240
55,44,266160,120
52,44,266160,120
50,44,266400,240
54,44,266400,240
66,43,266640,240
62,43,266640,240
67,41,266880,240
64,41,266880,240
69,42,267360,240
66,42,267360,240
67,41,267600,240
70,41,267600,240
72,40,268080,240
69,40,268080,240
70,36,268320,240
67,36,268320,240
69,37,268800,240
66,37,268800,240
64,36,269040,240
67,36,269040,240
62,37,269280,480
66,37,269280,480
81,33,271440,180
81,31,271680,180
81,31,271920,180
78,26,272160,240
81,26,272160,240
78,25,272400,240
81,25,272400,240
78,23,272640,240
81,23,272640,240
78,21,272880,720
81,21,272880,720
66,21,274080,240
69,21,274080,240
66,21,274320,480
69,21,274320,480
55,38,274800,240
59,38,274800,240
55,40,275040,480
59,40,275040,480
55,38,275520,240
60,38,275520,240
55,40,275760,480
60,40,275760,480
55,38,276240,240
60,38,276240,240
55,37,276480,90
59,37,276480,90
55,36,276720,90
59,36,276720,90
55,36,276960,90
59,36,276960,90
55,36,277200,480
59,36,277200,480
50,52,277680,240
55,55,277920,240
59,55,277920,240
43,43,278330,240
47,45,278340,230
50,47,278350,220
55,51,278360,210
45,42,278570,550
48,45,278580,540
54,46,278590,530
57,51,278600,520
47,48,279120,240
50,48,279120,240
55,48,279120,240
62,54,279360,60
64,54,279420,60
66,54,279480,60
67,54,279540,60
38,45,280080,480
42,45,280080,480
45,45,280080,480
50,53,280080,480
64,26,280560,240
60,27,280800,240
59,27,281040,240
57,27,281280,120
57,25,281520,240
62,28,282000,240
59,29,282240,240
57,29,282480,240
55,26,282720,120
55,26,282960,240
52,31,283440,240
48,31,283680,120
50,27,284400,120
55,36,285120,120
50,33,285360,120
47,33,285600,120
43,39,285780,300
47,40,285790,290
50,45,285800,200
55,47,285810,270
