note,velocity,position,duration
57,83,720,60
62,66,780,60
66,66,840,60
69,66,900,60
66,86,960,240
62,77,1200,240
74,56,1440,60
69,52,1680,60
71,55,1920,60
73,49,1980,60
71,60,2040,120
69,56,2160,240
57,83,2640,60
62,66,2700,60
66,66,2760,60
69,66,2820,60
66,86,2880,240
62,77,3120,240
78,56,3360,60
81,64,3360,60
74,52,3600,60
78,60,3600,60
76,46,3840,240
79,55,3840,60
81,49,3900,60
79,60,3960,120
74,47,4080,240
78,56,4080,240
74,60,4560,60
78,51,4620,60
81,52,4680,60
86,52,4740,60
72,67,4800,720
84,60,5520,60
81,51,5580,60
78,52,5640,60
72,52,5700,60
71,67,5760,720
71,60,6480,60
74,51,6540,60
79,52,6600,60
83,52,6660,60
78,54,6720,60
81,64,6720,60
74,44,6960,60
78,53,6960,60
79,59,7200,60
76,49,7200,60
73,44,7440,60
76,44,7440,60
76,50,7680,480
73,42,7680,480
78,40,8160,240
74,33,8160,240
74,60,8400,60
78,51,8460,60
81,52,8520,60
86,52,8580,60
72,67,8640,720
84,60,9360,60
81,51,9420,60
78,52,9480,60
72,52,9540,60
71,67,9600,720
83,60,10320,80
85,56,10400,80
86,56,10480,80
85,60,10560,80
83,55,10640,80
81,51,10720,80
79,59,10800,80
78,51,10880,80
76,51,10960,80
74,55,11040,80
73,49,11120,80
71,49,11200,80
69,52,11280,60
67,49,11340,60
66,49,11400,60
64,48,11460,60
62,60,11520,480
57,53,12240,240
62,60,12480,120
61,52,12600,90
64,60,12720,120
62,54,12840,90
66,60,12960,120
64,54,13080,90
67,60,13200,120
66,49,13320,90
66,57,13440,480
62,48,13440,480
64,50,13920,180
61,42,13920,180
57,53,14160,240
64,60,14400,120
63,52,14520,90
66,60,14640,120
64,54,14760,90
67,60,14880,120
66,54,15000,90
69,60,15120,120
67,49,15240,90
67,57,15360,480
64,48,15360,480
66,50,15840,180
62,42,15840,180
62,58,16080,240
67,66,16320,120
66,57,16440,90
69,66,16560,120
67,59,16680,90
71,66,16800,120
69,59,16920,90
74,66,17040,120
73,53,17160,90
71,62,17280,120
71,62,17520,120
74,57,17640,120
69,62,17760,120
67,55,18240,30
66,48,18270,30
67,62,18300,60
67,62,18480,120
71,57,18600,120
66,62,18720,120
71,60,19200,30
69,52,19230,30
71,68,19260,60
71,68,19440,120
74,62,19560,120
69,68,19680,120
67,55,20160,30
66,48,20190,30
67,62,20220,60
67,62,20400,120
71,57,20520,120
66,62,20640,120
63,55,21120,120
64,55,21240,120
66,58,21360,120
67,58,21480,120
69,62,21600,120
71,55,21720,120
67,61,21840,120
64,51,21960,120
62,57,22080,960
61,50,23040,240
64,83,23760,60
69,66,23820,60
73,66,23880,60
76,66,23940,60
73,86,24000,240
69,83,24240,60
73,66,24300,60
76,66,24360,60
81,66,24420,60
76,86,24480,240
76,95,24720,60
81,75,24780,60
85,75,24840,60
88,75,24900,60
85,102,24960,240
69,61,25680,60
64,50,25740,60
61,50,25800,60
57,50,25860,60
55,62,25920,960
54,61,26880,120
59,55,27000,120
58,49,27120,120
59,54,27240,120
61,59,27360,120
59,55,27480,120
58,47,27600,120
59,56,27720,120
57,62,27840,960
56,61,28800,120
64,55,28920,120
63,49,29040,120
64,54,29160,120
66,59,29280,120
64,55,29400,120
63,47,29520,120
64,56,29640,120
63,62,29760,240
69,57,30000,120
63,62,30480,240
64,62,30720,120
64,62,30960,120
71,57,31080,120
64,62,31200,180
64,57,31440,240
63,62,31680,240
69,57,31920,120
63,62,32400,240
64,62,32640,120
64,62,32880,120
71,57,33000,120
64,62,33120,180
62,47,33360,30
64,44,33390,30
62,57,33420,180
61,62,33600,115
76,64,33840,120
69,62,34320,240
68,62,34560,120
68,62,34800,120
76,57,34920,120
68,62,35040,180
68,57,35280,240
69,62,35520,120
69,62,35760,120
76,57,35880,120
69,62,36000,180
69,57,36240,240
71,62,36480,120
71,62,36720,120
76,57,36840,120
71,62,36960,180
74,57,37200,240
73,64,37440,120
74,57,37560,120
76,57,37680,120
73,57,37800,120
71,62,37920,120
69,57,38040,120
68,57,38160,120
66,57,38280,120
64,64,38400,120
63,53,38520,120
64,57,38640,120
66,53,38760,120
64,57,38880,120
62,51,39000,120
61,51,39120,120
59,51,39240,120
61,56,39360,120
62,47,39480,120
64,47,39600,120
61,47,39720,120
59,55,39840,120
57,51,39960,120
56,51,40080,120
54,51,40200,120
73,64,41280,120
74,57,41400,120
76,57,41520,120
73,57,41640,120
71,62,41760,120
69,57,41880,120
68,57,42000,120
69,57,42120,120
78,64,42240,120
80,64,42360,120
81,68,42480,120
78,64,42600,120
76,62,42720,120
74,61,42840,120
73,58,42960,120
71,58,43080,120
70,64,43200,120
71,57,43320,120
73,57,43440,120
71,57,43560,120
74,62,43680,120
73,57,43800,120
76,61,43920,120
74,57,44040,120
78,63,44160,240
76,62,44640,120
74,57,44760,120
73,62,44880,120
71,57,45000,120
69,62,45120,480
71,62,45600,60
73,54,45660,60
71,62,45720,60
73,55,45780,60
71,62,45840,80
73,55,45920,80
71,62,46000,80
73,64,46080,120
74,57,46200,120
76,57,46320,120
73,57,46440,120
71,62,46560,120
69,57,46680,120
68,57,46800,120
69,57,46920,120
78,64,47040,120
80,64,47160,120
81,68,47280,120
78,64,47400,120
76,62,47520,120
74,61,47640,120
73,58,47760,120
71,58,47880,120
70,64,48000,120
71,57,48120,120
73,57,48240,120
71,57,48360,120
74,62,48480,120
73,57,48600,120
76,61,48720,120
74,57,48840,120
78,63,48960,240
74,43,49440,120
73,39,49560,120
76,42,49680,120
74,39,49800,120
78,44,49920,240
74,46,50400,120
73,39,50520,120
76,47,50640,120
74,39,50760,120
78,44,50880,600
65,64,51540,60
77,70,51600,180
66,65,51780,60
78,72,51840,180
70,68,52020,60
82,74,52080,180
71,69,52260,60
83,75,52320,180
73,71,52500,60
85,77,52560,180
74,71,52740,60
86,78,52800,360
83,68,53160,120
86,74,53280,120
83,68,53400,120
86,73,53520,120
83,70,53640,120
76,79,53760,360
81,72,54120,60
85,75,54180,60
88,79,54240,360
81,70,54600,60
83,56,54660,40
83,69,54720,60
85,49,54780,60
83,61,54840,60
85,55,54900,60
83,64,54960,60
85,58,55020,60
83,67,55080,60
85,62,55140,60
83,70,55200,60
85,61,55260,60
83,63,55320,60
85,55,55380,60
83,66,55440,60
85,57,55500,60
83,69,55560,60
85,59,55620,60
81,69,55680,480
76,69,56400,240
78,64,56640,60
80,59,56700,60
78,68,56760,120
76,62,56880,240
78,62,57120,60
80,62,57180,60
78,69,57240,120
76,63,57360,150
76,64,57510,570
80,69,57540,540
83,73,57570,510
86,77,57600,480
85,69,58320,240
83,64,58560,120
85,50,58680,30
83,55,58710,30
82,58,58740,30
83,60,58770,30
86,62,58800,240
76,62,59040,120
78,54,59160,30
76,55,59190,30
75,59,59220,30
76,59,59250,30
80,63,59280,240
74,60,59280,240
73,58,59520,480
81,69,59520,480
76,69,60240,240
78,64,60480,60
80,59,60540,60
78,68,60600,120
76,62,60720,240
78,62,60960,60
80,62,61020,60
78,69,61080,120
76,63,61200,150
76,64,61350,570
80,69,61380,540
83,73,61410,510
86,77,61440,480
85,69,62160,240
83,64,62400,120
85,50,62520,30
83,55,62550,30
82,58,62580,30
83,60,62610,30
86,62,62640,240
76,62,62880,120
78,54,63000,30
76,55,63030,30
75,59,63060,30
76,59,63090,30
80,63,63120,240
74,60,63120,240
73,58,63360,480
81,69,63360,480
64,57,63960,120
68,57,64080,120
76,50,64200,120
64,53,64440,120
69,57,64560,120
76,49,64680,120
59,39,64920,120
62,51,65040,120
68,42,65160,120
61,53,65280,480
69,53,65280,480
57,83,66000,60
62,66,66060,60
66,66,66120,60
69,66,66180,60
66,86,66240,240
62,77,66480,240
74,56,66720,60
69,52,66960,60
71,55,67200,60
73,49,67260,60
71,60,67320,120
69,56,67440,240
57,83,67920,60
62,66,67980,60
66,66,68040,60
69,66,68100,60
66,86,68160,240
62,77,68400,240
78,56,68640,60
81,64,68640,60
74,52,68880,60
78,60,68880,60
76,46,69120,240
79,55,69120,60
81,49,69180,60
79,60,69240,120
74,47,69360,240
78,56,69360,240
74,60,69840,60
78,51,69900,60
81,52,69960,60
86,52,70020,60
72,67,70080,720
84,60,70800,60
81,51,70860,60
78,52,70920,60
72,52,70980,60
71,67,71040,720
71,60,71760,60
74,51,71820,60
79,52,71880,60
83,52,71940,60
78,54,72000,60
81,64,72000,60
74,44,72240,60
78,53,72240,60
79,59,72480,60
76,49,72480,60
73,44,72720,60
76,44,72720,60
76,50,72960,480
73,42,72960,480
78,40,73440,240
74,33,73440,240
74,60,73680,60
78,51,73740,60
81,52,73800,60
86,52,73860,60
72,67,73920,720
84,60,74640,60
81,51,74700,60
78,52,74760,60
72,52,74820,60
71,67,74880,720
83,60,75600,80
85,56,75680,80
86,56,75760,80
85,60,75840,80
83,55,75920,80
81,51,76000,80
79,59,76080,80
78,51,76160,80
76,51,76240,80
74,55,76320,80
73,49,76400,80
71,49,76480,80
69,52,76560,60
67,49,76620,60
66,49,76680,60
64,48,76740,60
62,60,76800,480
57,53,77520,240
62,60,77760,120
61,52,77880,90
64,60,78000,120
62,54,78120,90
66,60,78240,120
64,54,78360,90
67,60,78480,120
66,49,78600,90
66,57,78720,480
62,48,78720,480
64,50,79200,180
61,42,79200,180
57,53,79440,240
64,60,79680,120
63,52,79800,90
66,60,79920,120
64,54,80040,90
67,60,80160,120
66,54,80280,90
69,60,80400,120
67,49,80520,90
67,57,80640,480
64,48,80640,480
66,50,81120,180
62,42,81120,180
62,58,81360,240
67,66,81600,120
66,57,81720,90
69,66,81840,120
67,59,81960,90
71,66,82080,120
69,59,82200,90
74,66,82320,120
73,53,82440,90
71,62,82560,120
71,62,82800,120
74,57,82920,120
69,62,83040,120
67,55,83520,30
66,48,83550,30
67,62,83580,60
67,62,83760,120
71,57,83880,120
66,62,84000,120
71,60,84480,30
69,52,84510,30
71,68,84540,60
71,68,84720,120
74,62,84840,120
69,68,84960,120
67,55,85440,30
66,48,85470,30
67,62,85500,60
67,62,85680,120
71,57,85800,120
66,62,85920,120
63,55,86400,120
64,55,86520,120
66,58,86640,120
67,58,86760,120
69,62,86880,120
71,55,87000,120
67,61,87120,120
64,51,87240,120
62,57,87360,960
61,50,88320,240
64,83,89040,60
69,66,89100,60
73,66,89160,60
76,66,89220,60
73,86,89280,240
69,83,89520,60
73,66,89580,60
76,66,89640,60
81,66,89700,60
76,86,89760,240
76,95,90000,60
81,75,90060,60
85,75,90120,60
88,75,90180,60
85,102,90240,240
69,61,90960,60
64,50,91020,60
61,50,91080,60
57,50,91140,60
55,62,91200,960
54,61,92160,120
59,55,92280,120
58,49,92400,120
59,54,92520,120
61,59,92640,120
59,55,92760,120
58,47,92880,120
59,56,93000,120
57,62,93120,960
56,61,94080,120
64,55,94200,120
63,49,94320,120
64,54,94440,120
66,59,94560,120
64,55,94680,120
63,47,94800,120
64,56,94920,120
63,62,95040,240
69,57,95280,120
63,62,95760,240
64,62,96000,120
64,62,96240,120
71,57,96360,120
64,62,96480,180
64,57,96720,240
63,62,96960,240
69,57,97200,120
63,62,97680,240
64,62,97920,120
64,62,98160,120
71,57,98280,120
64,62,98400,180
62,47,98640,30
64,44,98670,30
62,57,98700,180
61,62,98880,115
76,64,99120,120
69,62,99600,240
68,62,99840,120
68,62,100080,120
76,57,100200,120
68,62,100320,180
68,57,100560,240
69,62,100800,120
69,62,101040,120
76,57,101160,120
69,62,101280,180
69,57,101520,240
71,62,101760,120
71,62,102000,120
76,57,102120,120
71,62,102240,180
74,57,102480,240
73,64,102720,120
74,57,102840,120
76,57,102960,120
73,57,103080,120
71,62,103200,120
69,57,103320,120
68,57,103440,120
66,57,103560,120
64,64,103680,120
63,53,103800,120
64,57,103920,120
66,53,104040,120
64,57,104160,120
62,51,104280,120
61,51,104400,120
59,51,104520,120
61,56,104640,120
62,47,104760,120
64,47,104880,120
61,47,105000,120
59,55,105120,120
57,51,105240,120
56,51,105360,120
54,51,105480,120
73,64,106560,120
74,57,106680,120
76,57,106800,120
73,57,106920,120
71,62,107040,120
69,57,107160,120
68,57,107280,120
69,57,107400,120
78,64,107520,120
80,64,107640,120
81,68,107760,120
78,64,107880,120
76,62,108000,120
74,61,108120,120
73,58,108240,120
71,58,108360,120
70,64,108480,120
71,57,108600,120
73,57,108720,120
71,57,108840,120
74,62,108960,120
73,57,109080,120
76,61,109200,120
74,57,109320,120
78,63,109440,240
76,62,109920,120
74,57,110040,120
73,62,110160,120
71,57,110280,120
69,62,110400,480
71,62,110880,60
73,54,110940,60
71,62,111000,60
73,55,111060,60
71,62,111120,80
73,55,111200,80
71,62,111280,80
73,64,111360,120
74,57,111480,120
76,57,111600,120
73,57,111720,120
71,62,111840,120
69,57,111960,120
68,57,112080,120
69,57,112200,120
78,64,112320,120
80,64,112440,120
81,68,112560,120
78,64,112680,120
76,62,112800,120
74,61,112920,120
73,58,113040,120
71,58,113160,120
70,64,113280,120
71,57,113400,120
73,57,113520,120
71,57,113640,120
74,62,113760,120
73,57,113880,120
76,61,114000,120
74,57,114120,120
78,63,114240,240
74,43,114720,120
73,39,114840,120
76,42,114960,120
74,39,115080,120
78,44,115200,240
74,46,115680,120
73,39,115800,120
76,47,115920,120
74,39,116040,120
78,44,116160,600
65,64,116820,60
77,70,116880,180
66,65,117060,60
78,72,117120,180
70,68,117300,60
82,74,117360,180
71,69,117540,60
83,75,117600,180
73,71,117780,60
85,77,117840,180
74,71,118020,60
86,78,118080,360
83,68,118440,120
86,74,118560,120
83,68,118680,120
86,73,118800,120
83,70,118920,120
76,79,119040,360
81,72,119400,60
85,75,119460,60
88,79,119520,360
81,70,119880,60
83,56,119940,40
83,69,120000,60
85,49,120060,60
83,61,120120,60
85,55,120180,60
83,64,120240,60
85,58,120300,60
83,67,120360,60
85,62,120420,60
83,70,120480,60
85,61,120540,60
83,63,120600,60
85,55,120660,60
83,66,120720,60
85,57,120780,60
83,69,120840,60
85,59,120900,60
81,69,120960,480
76,69,121680,240
78,64,121920,60
80,59,121980,60
78,68,122040,120
76,62,122160,240
78,62,122400,60
80,62,122460,60
78,69,122520,120
76,63,122640,150
76,64,122790,570
80,69,122820,540
83,73,122850,510
86,77,122880,480
85,69,123600,240
83,64,123840,120
85,50,123960,30
83,55,123990,30
82,58,124020,30
83,60,124050,30
86,62,124080,240
76,62,124320,120
78,54,124440,30
76,55,124470,30
75,59,124500,30
76,59,124530,30
80,63,124560,240
74,60,124560,240
73,58,124800,480
81,69,124800,480
76,69,125520,240
78,64,125760,60
80,59,125820,60
78,68,125880,120
76,62,126000,240
78,62,126240,60
80,62,126300,60
78,69,126360,120
76,63,126480,150
76,64,126630,570
80,69,126660,540
83,73,126690,510
86,77,126720,480
85,69,127440,240
83,64,127680,120
85,50,127800,30
83,55,127830,30
82,58,127860,30
83,60,127890,30
86,62,127920,240
76,62,128160,120
78,54,128280,30
76,55,128310,30
75,59,128340,30
76,59,128370,30
80,63,128400,240
74,60,128400,240
73,58,128640,480
81,69,128640,480
64,57,129240,120
68,57,129360,120
76,50,129480,120
64,53,129720,120
69,57,129840,120
76,49,129960,120
59,39,130200,120
62,51,130320,120
68,42,130440,120
61,53,130560,480
69,53,130560,480
54,51,132960,120
55,40,133080,30
54,44,133110,30
53,42,133140,30
54,42,133170,30
58,49,133200,240
59,44,133440,60
58,40,133500,60
59,51,133560,120
62,44,133680,240
61,46,133920,60
59,42,133980,60
61,51,134040,120
64,48,134160,240
62,51,134400,120
64,42,134520,30
62,38,134550,30
61,43,134580,30
62,39,134610,30
66,49,134640,240
62,70,135120,60
66,56,135180,60
71,56,135240,60
74,56,135300,60
71,73,135360,240
66,65,135600,240
78,56,135840,60
71,52,136080,60
73,55,136320,60
74,49,136380,60
73,60,136440,120
71,56,136560,240
62,70,137040,60
66,56,137100,60
71,56,137160,60
74,56,137220,60
71,73,137280,240
66,65,137520,240
83,64,137760,60
78,60,138000,60
79,55,138240,60
81,49,138300,60
79,60,138360,120
78,56,138480,240
71,70,138960,60
74,56,139020,60
78,56,139080,60
83,56,139140,60
78,73,139200,240
74,65,139440,240
79,64,139680,60
78,60,139920,60
76,55,140160,60
78,49,140220,60
76,60,140280,120
74,56,140400,240
60,34,141240,120
59,41,141360,120
60,34,141480,120
62,40,141600,120
60,34,141720,120
64,41,141840,120
60,37,141960,120
67,39,142200,120
66,47,142320,120
67,39,142440,120
69,46,142560,120
67,39,142680,120
71,47,142800,120
67,42,142920,120
66,39,143040,960
59,52,144000,120
64,44,144120,120
63,53,144240,120
64,44,144360,120
66,52,144480,120
64,44,144600,120
67,53,144720,120
64,48,144840,120
76,66,144960,960
67,56,144960,960
76,57,146040,120
75,72,146160,120
76,59,146280,120
78,72,146400,120
76,60,146520,120
79,76,146640,120
76,68,146760,120
74,78,146880,120
83,72,147000,120
82,80,147120,120
83,76,147240,120
85,84,147360,120
83,78,147480,120
86,94,147600,120
83,86,147720,120
82,88,147840,120
85,72,147960,120
78,78,148080,120
82,64,148200,120
73,72,148320,120
78,55,148440,120
70,62,148560,120
73,50,148680,120
66,62,148800,480
66,53,149520,240
71,60,149760,120
70,52,149880,90
73,60,150000,120
71,54,150120,90
74,60,150240,120
73,54,150360,90
76,60,150480,120
74,49,150600,90
74,57,150720,480
71,48,150720,480
73,50,151200,180
70,42,151200,180
66,53,151440,240
73,60,151680,120
71,52,151800,90
74,60,151920,120
73,54,152040,90
76,60,152160,120
74,54,152280,90
78,60,152400,120
76,49,152520,90
76,57,152640,480
73,48,152640,480
74,50,153120,180
71,42,153120,180
71,53,153360,240
76,60,153600,120
75,52,153720,90
78,60,153840,120
76,54,153960,90
79,60,154080,120
78,54,154200,90
81,64,154320,120
79,58,154440,90
83,68,154560,120
81,65,154680,120
79,64,154800,120
78,63,154920,120
76,61,155040,120
74,59,155160,120
73,58,155280,120
71,55,155400,120
73,60,155520,120
71,52,155640,90
74,60,155760,120
73,54,155880,90
76,60,156000,120
74,54,156120,90
78,64,156240,120
76,58,156360,90
79,68,156480,120
78,65,156600,120
76,64,156720,120
74,63,156840,120
73,61,156960,120
71,59,157080,120
69,58,157200,120
67,55,157320,120
66,60,157440,120
64,52,157560,90
67,60,157680,120
66,54,157800,90
69,60,157920,120
67,54,158040,90
71,64,158160,120
69,58,158280,90
72,68,158400,120
71,65,158520,120
69,64,158640,120
67,63,158760,120
66,61,158880,120
64,59,159000,120
62,58,159120,120
60,55,159240,120
59,68,159360,120
71,62,159480,120
70,68,159600,120
71,62,159720,120
69,68,159840,120
67,65,159960,120
66,65,160080,120
64,65,160200,120
63,68,160320,120
64,61,160440,120
66,61,160560,120
64,61,160680,120
67,68,160800,120
66,66,160920,120
64,63,161040,120
62,62,161160,110
62,68,161280,960
61,64,162240,120
57,55,162360,120
64,64,162480,120
61,59,162600,120
67,66,162720,120
64,59,162840,120
73,66,162960,120
67,59,163080,120
76,69,163200,120
73,62,163320,120
79,70,163440,120
76,64,163560,120
83,74,163680,240
82,47,164760,120
83,50,164880,120
82,47,165000,120
83,51,165120,120
82,47,165720,120
83,50,165840,120
82,47,165960,120
83,51,166080,120
82,59,166680,120
83,63,166800,120
82,59,166920,120
83,66,167040,120
85,70,167160,120
86,71,167280,120
85,69,167400,120
83,70,167520,120
81,68,167640,120
79,66,167760,120
78,66,167880,120
79,69,168000,120
81,72,168120,120
83,75,168240,120
81,71,168360,120
79,70,168480,120
78,68,168600,120
76,66,168720,120
75,65,168840,120
76,69,168960,120
78,72,169080,120
79,75,169200,120
78,71,169320,120
76,70,169440,120
74,68,169560,120
73,66,169680,120
71,58,169800,120
69,64,169920,120
71,51,170040,120
68,57,170160,120
71,48,170280,120
69,57,170400,120
71,49,170520,120
68,56,170640,120
71,49,170760,120
69,66,170880,120
71,56,171000,120
68,62,171120,120
71,54,171240,120
69,63,171360,120
71,56,171480,120
66,63,171600,120
69,56,171720,120
67,64,171840,120
69,50,171960,120
66,57,172080,120
69,50,172200,120
67,56,172320,120
69,50,172440,120
66,57,172560,120
69,49,172680,120
67,66,172800,120
69,56,172920,120
66,62,173040,120
69,49,173160,120
67,58,173280,120
69,48,173400,120
66,57,173520,120
69,50,173640,120
67,59,173760,360
66,47,174120,120
67,49,174240,360
66,41,174600,120
67,46,174720,360
66,36,175080,132
67,40,175200,132
66,35,175320,132
67,37,175440,132
66,33,175560,132
67,35,175680,480
69,35,176880,60
73,38,176940,60
76,40,177000,60
79,45,177060,60
57,83,177360,60
62,66,177420,60
66,66,177480,60
69,66,177540,60
66,86,177600,240
62,77,177840,240
74,56,178080,60
69,52,178320,60
71,55,178560,60
73,49,178620,60
71,60,178680,120
69,56,178800,240
57,83,179280,60
62,66,179340,60
66,66,179400,60
69,66,179460,60
66,86,179520,240
62,77,179760,240
78,56,180000,60
81,64,180000,60
74,52,180240,60
78,60,180240,60
76,46,180480,240
79,55,180480,60
81,49,180540,60
79,60,180600,120
74,47,180720,240
78,56,180720,240
74,60,181200,60
78,51,181260,60
81,52,181320,60
86,52,181380,60
72,67,181440,720
84,60,182160,60
81,51,182220,60
78,52,182280,60
72,52,182340,60
71,67,182400,720
71,60,183120,60
74,51,183180,60
79,52,183240,60
83,52,183300,60
78,54,183360,60
81,64,183360,60
74,44,183600,60
78,53,183600,60
79,59,183840,60
76,49,183840,60
73,44,184080,60
76,44,184080,60
76,50,184320,480
73,42,184320,480
78,40,184800,240
74,33,184800,240
74,60,185040,60
78,51,185100,60
81,52,185160,60
86,52,185220,60
72,67,185280,720
84,60,186000,60
81,51,186060,60
78,52,186120,60
72,52,186180,60
71,67,186240,720
83,60,186960,80
85,56,187040,80
86,56,187120,80
85,60,187200,80
83,55,187280,80
81,51,187360,80
79,59,187440,80
78,51,187520,80
76,51,187600,80
74,55,187680,80
73,49,187760,80
71,49,187840,80
69,52,187920,60
67,49,187980,60
66,49,188040,60
64,48,188100,60
62,60,188160,480
57,53,188880,240
62,60,189120,120
61,52,189240,90
64,60,189360,120
62,54,189480,90
66,60,189600,120
64,54,189720,90
67,60,189840,120
66,49,189960,90
66,57,190080,480
62,48,190080,480
64,50,190560,180
61,42,190560,180
57,53,190800,240
64,60,191040,120
63,52,191160,90
66,60,191280,120
64,54,191400,90
67,60,191520,120
66,54,191640,90
69,60,191760,120
67,49,191880,90
67,57,192000,480
64,48,192000,480
66,50,192480,180
62,42,192480,180
62,58,192720,240
67,66,192960,120
66,57,193080,90
69,66,193200,120
67,59,193320,90
71,66,193440,120
69,59,193560,90
74,66,193680,120
73,53,193800,90
71,62,193920,120
71,62,194160,120
74,57,194280,120
69,62,194400,120
67,55,194880,30
66,48,194910,30
67,62,194940,60
67,62,195120,120
71,57,195240,120
66,62,195360,120
71,60,195840,30
69,52,195870,30
71,68,195900,60
71,68,196080,120
74,62,196200,120
69,68,196320,120
67,55,196800,30
66,48,196830,30
67,62,196860,60
67,62,197040,120
71,57,197160,120
66,62,197280,120
63,55,197760,120
64,55,197880,120
66,58,198000,120
67,58,198120,120
69,62,198240,120
71,55,198360,120
67,61,198480,120
64,51,198600,120
62,57,198720,960
61,50,199680,240
57,74,200400,60
61,59,200460,60
64,59,200520,60
67,59,200580,60
64,77,200640,240
64,79,200880,60
67,70,200940,60
73,70,201000,60
76,70,201060,60
73,84,201120,240
67,87,201360,60
73,78,201420,60
76,76,201480,60
79,78,201540,60
76,96,201600,240
67,61,202320,60
64,50,202380,60
61,50,202440,60
57,50,202500,60
55,62,202560,960
54,61,203520,120
62,55,203640,120
61,49,203760,120
62,54,203880,120
64,59,204000,120
62,55,204120,120
61,47,204240,120
62,56,204360,120
60,62,204480,960
59,61,205440,120
64,55,205560,120
63,49,205680,120
64,54,205800,120
66,59,205920,120
64,55,206040,120
63,47,206160,120
64,56,206280,120
62,62,206400,960
61,61,207360,120
69,55,207480,120
68,49,207600,120
69,54,207720,120
71,59,207840,120
69,55,207960,120
68,47,208080,120
69,56,208200,120
68,62,208320,240
74,57,208560,120
68,62,209040,240
69,62,209280,120
69,62,209520,120
76,57,209640,120
69,62,209760,180
69,57,210000,240
68,62,210240,240
74,57,210480,120
68,62,210960,240
69,62,211200,120
69,62,211440,120
76,57,211560,120
69,62,211680,180
67,47,211920,30
69,44,211950,30
67,57,211980,180
66,62,212160,115
81,64,212400,120
74,62,212880,240
73,62,213120,120
73,62,213360,120
81,57,213480,120
73,62,213600,180
73,57,213840,240
74,62,214080,120
74,62,214320,120
81,57,214440,120
74,62,214560,180
74,57,214800,240
76,62,215040,120
76,62,215280,120
81,57,215400,120
76,62,215520,180
79,57,215760,240
78,64,216000,120
79,57,216120,120
81,57,216240,120
78,57,216360,120
76,62,216480,120
74,57,216600,120
73,57,216720,120
71,57,216840,120
69,64,216960,120
68,53,217080,120
69,57,217200,120
71,53,217320,120
69,57,217440,120
67,51,217560,120
66,51,217680,120
64,51,217800,120
66,56,217920,120
67,47,218040,120
69,47,218160,120
66,47,218280,120
64,55,218400,120
62,51,218520,120
61,51,218640,120
59,51,218760,120
78,64,219840,120
79,57,219960,120
81,57,220080,120
78,57,220200,120
76,62,220320,120
74,57,220440,120
73,57,220560,120
74,57,220680,120
83,64,220800,120
85,64,220920,120
86,68,221040,120
83,64,221160,120
81,62,221280,120
79,61,221400,120
78,58,221520,120
76,58,221640,120
75,64,221760,120
76,57,221880,120
78,57,222000,120
76,57,222120,120
79,62,222240,120
78,57,222360,120
81,61,222480,120
79,57,222600,120
83,63,222720,240
81,62,223200,120
79,57,223320,120
78,62,223440,120
76,57,223560,120
74,62,223680,480
76,62,224160,60
78,54,224220,60
76,62,224280,60
78,55,224340,60
76,62,224400,80
78,55,224480,80
76,62,224560,80
78,64,224640,120
79,57,224760,120
81,57,224880,120
78,57,225000,120
76,62,225120,120
74,57,225240,120
73,57,225360,120
74,57,225480,120
83,64,225600,120
85,64,225720,120
86,68,225840,120
85,64,225960,120
83,62,226080,120
81,61,226200,120
79,58,226320,120
78,58,226440,120
76,64,226560,120
78,57,226680,120
79,57,226800,120
76,57,226920,120
74,65,227040,120
73,57,227160,120
71,59,227280,120
73,57,227400,120
81,64,227520,120
83,64,227640,120
85,68,227760,120
83,64,227880,120
81,62,228000,120
79,61,228120,120
78,58,228240,120
76,58,228360,120
74,64,228480,120
76,57,228600,120
78,57,228720,120
74,57,228840,120
73,62,228960,120
71,57,229080,120
70,57,229200,120
71,57,229320,120
79,64,229440,120
81,64,229560,120
83,68,229680,120
81,64,229800,120
79,62,229920,120
78,58,230040,120
76,63,230160,120
74,58,230280,120
73,64,230400,120
74,55,230520,120
76,57,230640,120
74,55,230760,120
73,62,230880,120
71,55,231000,120
69,57,231120,120
67,55,231240,120
66,64,231360,120
67,55,231480,120
69,57,231600,120
66,55,231720,120
64,62,231840,120
62,55,231960,120
61,57,232080,120
62,54,232200,120
71,64,232320,120
73,53,232440,120
74,57,232560,120
71,54,232680,120
69,62,232800,120
67,56,232920,120
66,57,233040,120
64,54,233160,120
63,64,233280,120
64,50,233400,120
66,57,233520,120
64,53,233640,120
67,62,233760,120
66,57,233880,120
69,61,234000,120
67,57,234120,120
71,63,234240,240
79,43,234720,120
78,39,234840,120
81,42,234960,120
79,39,235080,120
83,44,235200,240
55,33,235680,120
54,28,235800,120
57,33,235920,120
55,28,236040,120
59,31,236160,240
63,64,236820,60
75,70,236880,180
64,65,237060,60
76,72,237120,180
66,68,237300,60
78,74,237360,180
67,69,237540,60
79,75,237600,180
70,71,237780,60
82,77,237840,180
71,71,238020,60
83,72,238080,180
73,68,238260,60
85,74,238320,180
74,69,238500,60
86,75,238560,180
68,71,238740,60
80,77,238800,180
69,71,238980,60
81,79,239040,720
79,72,239760,60
78,72,239820,60
76,72,239880,60
74,72,239940,60
76,69,240000,60
78,49,240060,60
76,61,240120,60
78,55,240180,60
76,64,240240,60
78,58,240300,60
76,67,240360,60
78,62,240420,60
76,70,240480,60
78,61,240540,60
76,63,240600,60
78,55,240660,60
76,66,240720,60
78,57,240780,60
76,69,240840,60
78,59,240900,60
74,69,240960,480
69,69,241680,240
71,64,241920,60
73,59,241980,60
71,68,242040,120
69,62,242160,240
71,62,242400,60
73,62,242460,60
71,69,242520,120
69,63,242640,150
69,64,242790,570
73,69,242820,540
76,73,242850,510
79,77,242880,480
78,69,243600,240
76,64,243840,120
78,50,243960,30
76,55,243990,30
75,58,244020,30
76,60,244050,30
79,62,244080,240
69,62,244320,120
71,54,244440,30
69,55,244470,30
68,59,244500,30
69,59,244530,30
73,63,244560,240
67,60,244560,240
66,58,244800,480
74,69,244800,480
69,69,245520,240
71,64,245760,60
73,59,245820,60
71,68,245880,120
69,62,246000,240
71,62,246240,60
73,62,246300,60
71,69,246360,120
69,63,246480,150
69,64,246630,570
73,69,246660,540
76,73,246690,510
79,77,246720,480
78,69,247440,240
76,64,247680,120
78,50,247800,30
76,55,247830,30
75,58,247860,30
76,60,247890,30
79,62,247920,240
69,62,248160,120
71,54,248280,30
69,55,248310,30
68,59,248340,30
69,59,248370,30
67,60,248400,240
73,63,248400,240
66,58,248640,240
74,69,248640,240
57,57,249240,120
61,57,249360,120
69,50,249480,120
57,53,249720,120
62,57,249840,120
69,49,249960,120
52,39,250200,120
55,51,250320,120
61,42,250440,120
54,53,250560,480
62,53,250560,480
50,75,960,480
38,63,960,480
66,42,1680,60
62,36,1680,60
67,48,1920,240
62,40,1920,240
66,40,2160,240
62,34,2160,240
50,75,2880,480
38,63,2880,480
62,42,3600,60
57,48,3840,240
62,40,4080,240
62,40,5040,60
54,40,5040,60
62,45,5280,60
54,45,5280,60
62,40,6000,60
55,40,6000,60
62,45,6240,60
55,45,6240,60
57,46,6720,480
45,40,7200,480
50,36,7680,480
38,32,8160,240
62,40,8880,60
54,40,8880,60
62,45,9120,60
54,45,9120,60
62,40,9840,60
55,40,9840,60
62,45,10080,60
55,45,10080,60
57,48,10560,240
45,39,11040,240
38,48,11520,480
56,43,13680,240
57,48,13920,180
49,43,15600,240
50,48,15840,180
55,52,17280,120
62,45,17400,120
55,54,17520,120
62,39,17640,120
54,49,17760,120
62,38,17880,120
54,49,18000,120
62,43,18120,120
59,52,18240,120
62,45,18360,120
59,54,18480,120
62,39,18600,120
57,49,18720,120
62,38,18840,120
57,49,18960,120
62,43,19080,120
55,52,19200,120
62,45,19320,120
55,54,19440,120
62,39,19560,120
54,49,19680,120
62,38,19800,120
54,49,19920,120
62,43,20040,120
59,52,20160,120
62,45,20280,120
59,54,20400,120
62,39,20520,120
57,49,20640,120
62,38,20760,120
57,49,20880,120
62,43,21000,120
55,52,21120,480
55,40,21840,240
43,34,21840,240
54,48,22080,960
45,40,22080,1200
52,45,23040,240
45,63,24000,240
49,63,24000,240
57,75,24000,240
52,63,24000,240
45,63,24480,240
49,63,24480,240
57,75,24480,240
52,63,24480,240
45,63,24960,240
49,63,24960,240
57,75,24960,240
52,63,24960,240
45,46,25920,120
52,38,26040,120
50,46,26160,120
52,39,26280,120
49,47,26400,120
52,38,26520,120
45,49,26640,120
49,41,26760,120
50,46,26880,480
51,46,27840,120
54,38,27960,120
52,46,28080,120
54,39,28200,120
51,47,28320,120
54,38,28440,120
47,49,28560,120
51,41,28680,120
52,46,28800,480
54,52,29760,120
60,45,29880,120
54,54,30000,120
60,38,30120,120
54,45,30240,120
60,33,30360,120
54,42,30480,120
60,35,30600,120
56,52,30720,120
59,45,30840,120
56,54,30960,120
59,39,31080,120
56,49,31200,120
59,38,31320,120
56,49,31440,120
59,43,31560,120
54,52,31680,120
60,45,31800,120
54,54,31920,120
60,38,32040,120
54,46,32160,120
60,37,32280,120
54,46,32400,120
60,37,32520,120
56,52,32640,120
59,45,32760,120
56,54,32880,120
59,39,33000,120
56,49,33120,120
59,38,33240,120
56,49,33360,120
59,43,33480,120
57,52,33600,120
61,45,33720,120
57,54,33840,120
61,33,33960,120
57,43,34080,120
61,38,34200,120
57,43,34320,120
61,38,34440,120
59,52,34560,120
62,45,34680,120
59,54,34800,120
62,39,34920,120
59,49,35040,120
62,38,35160,120
59,49,35280,120
62,43,35400,120
61,52,35520,120
64,45,35640,120
61,54,35760,120
64,39,35880,120
61,49,36000,120
64,38,36120,120
61,49,36240,120
64,43,36360,120
56,52,36480,120
64,45,36600,120
56,54,36720,120
64,39,36840,120
56,49,36960,120
64,38,37080,120
56,49,37200,120
64,43,37320,120
57,52,37440,480
56,52,38400,480
59,52,38400,480
45,52,39360,480
57,52,39360,480
52,54,40320,120
51,50,40440,120
52,50,40560,120
54,50,40680,120
52,55,40800,120
50,49,40920,120
49,49,41040,120
47,49,41160,120
45,57,41280,480
62,57,42240,480
38,57,43200,480
57,39,45360,480
49,32,45360,240
50,39,45600,240
52,32,45840,240
56,39,45840,240
57,57,46080,240
45,48,46080,240
61,39,46560,240
62,57,47040,480
50,57,48000,480
62,42,52800,120
66,42,52800,120
71,50,52800,120
62,37,53040,120
66,37,53040,120
71,45,53040,120
62,37,53280,120
66,37,53280,120
71,45,53280,120
62,37,53520,120
66,37,53520,120
71,45,53520,120
64,42,53760,120
69,42,53760,120
73,50,53760,120
64,37,54000,120
69,37,54000,120
73,45,54000,120
64,37,54240,120
69,37,54240,120
73,45,54240,120
64,37,54480,120
69,37,54480,120
73,45,54480,120
64,50,54720,120
68,50,54720,120
64,45,54960,120
68,45,54960,120
64,45,55200,120
68,45,55200,120
64,45,55440,120
68,45,55440,120
57,57,55680,120
69,47,55800,120
68,50,55920,120
69,47,56040,120
61,57,56160,120
69,48,56280,120
68,50,56400,120
69,47,56520,120
62,57,56640,120
69,47,56760,120
61,50,56880,120
69,47,57000,120
62,57,57120,120
69,48,57240,120
61,50,57360,120
69,47,57480,120
59,48,57600,480
68,57,57600,480
62,57,58560,240
66,57,58560,240
52,48,59040,240
64,57,59040,240
57,57,59520,120
69,47,59640,120
68,50,59760,120
69,47,59880,120
61,57,60000,120
69,48,60120,120
68,50,60240,120
69,47,60360,120
62,57,60480,120
69,47,60600,120
61,50,60720,120
69,47,60840,120
62,57,60960,120
69,48,61080,120
61,50,61200,120
69,47,61320,120
59,48,61440,480
68,57,61440,480
57,49,62160,240
69,58,62160,240
62,48,62400,240
66,57,62400,240
64,39,62880,240
52,33,62880,240
45,38,63360,240
57,45,63360,240
62,41,63840,240
52,34,63840,240
52,38,64320,240
61,45,64320,240
59,39,64800,115
52,33,64800,240
45,36,65280,480
57,43,65280,480
50,75,66240,480
38,63,66240,480
66,42,66960,60
62,36,66960,60
67,48,67200,240
62,40,67200,240
66,40,67440,240
62,34,67440,240
50,75,68160,480
38,63,68160,480
62,42,68880,60
57,48,69120,240
62,40,69360,240
62,40,70320,60
54,40,70320,60
62,45,70560,60
54,45,70560,60
62,40,71280,60
55,40,71280,60
62,45,71520,60
55,45,71520,60
57,46,72000,480
45,40,72480,480
50,36,72960,480
38,32,73440,240
62,40,74160,60
54,40,74160,60
62,45,74400,60
54,45,74400,60
62,40,75120,60
55,40,75120,60
62,45,75360,60
55,45,75360,60
57,48,75840,240
45,39,76320,240
38,48,76800,480
56,43,78960,240
57,48,79200,180
49,43,80880,240
50,48,81120,180
55,52,82560,120
62,45,82680,120
55,54,82800,120
62,39,82920,120
54,49,83040,120
62,38,83160,120
54,49,83280,120
62,43,83400,120
59,52,83520,120
62,45,83640,120
59,54,83760,120
62,39,83880,120
57,49,84000,120
62,38,84120,120
57,49,84240,120
62,43,84360,120
55,52,84480,120
62,45,84600,120
55,54,84720,120
62,39,84840,120
54,49,84960,120
62,38,85080,120
54,49,85200,120
62,43,85320,120
59,52,85440,120
62,45,85560,120
59,54,85680,120
62,39,85800,120
57,49,85920,120
62,38,86040,120
57,49,86160,120
62,43,86280,120
55,52,86400,480
55,40,87120,240
43,34,87120,240
54,48,87360,960
45,40,87360,1200
52,45,88320,240
45,63,89280,240
49,63,89280,240
57,75,89280,240
52,63,89280,240
45,63,89760,240
49,63,89760,240
57,75,89760,240
52,63,89760,240
45,63,90240,240
49,63,90240,240
57,75,90240,240
52,63,90240,240
45,46,91200,120
52,38,91320,120
50,46,91440,120
52,39,91560,120
49,47,91680,120
52,38,91800,120
45,49,91920,120
49,41,92040,120
50,46,92160,480
51,46,93120,120
54,38,93240,120
52,46,93360,120
54,39,93480,120
51,47,93600,120
54,38,93720,120
47,49,93840,120
51,41,93960,120
52,46,94080,480
54,52,95040,120
60,45,95160,120
54,54,95280,120
60,39,95400,120
54,43,95520,120
60,36,95640,120
54,45,95760,120
60,37,95880,120
56,52,96000,120
59,45,96120,120
56,54,96240,120
59,39,96360,120
56,49,96480,120
59,38,96600,120
56,49,96720,120
59,43,96840,120
54,52,96960,120
60,45,97080,120
54,54,97200,120
60,39,97320,120
54,42,97440,120
60,37,97560,120
54,45,97680,120
60,38,97800,120
56,52,97920,120
59,45,98040,120
56,54,98160,120
59,39,98280,120
56,49,98400,120
59,38,98520,120
56,49,98640,120
59,43,98760,120
57,52,98880,120
61,45,99000,120
57,54,99120,120
61,39,99240,120
57,46,99360,120
61,38,99480,120
57,46,99600,120
61,39,99720,120
59,52,99840,120
62,45,99960,120
59,54,100080,120
62,39,100200,120
59,49,100320,120
62,38,100440,120
59,49,100560,120
62,43,100680,120
61,52,100800,120
64,45,100920,120
61,54,101040,120
64,39,101160,120
61,49,101280,120
64,38,101400,120
61,49,101520,120
64,43,101640,120
56,52,101760,120
64,45,101880,120
56,54,102000,120
64,39,102120,120
56,49,102240,120
64,38,102360,120
56,49,102480,120
64,43,102600,120
57,52,102720,480
56,52,103680,480
59,52,103680,480
45,52,104640,480
57,52,104640,480
52,54,105600,120
51,50,105720,120
52,50,105840,120
54,50,105960,120
52,55,106080,120
50,49,106200,120
49,49,106320,120
47,49,106440,120
45,57,106560,480
62,57,107520,480
38,57,108480,480
57,39,110640,480
49,32,110640,240
50,39,110880,240
52,32,111120,240
56,39,111120,240
45,48,111360,240
57,57,111372,240
61,39,111840,240
62,57,112320,480
50,57,113280,480
62,42,118080,120
66,42,118080,120
71,50,118080,120
62,37,118320,120
66,37,118320,120
71,45,118320,120
62,37,118560,120
66,37,118560,120
71,45,118560,120
62,37,118800,120
66,37,118800,120
71,45,118800,120
64,42,119040,120
69,42,119040,120
73,50,119040,120
64,37,119280,120
69,37,119280,120
73,45,119280,120
64,37,119520,120
69,37,119520,120
73,45,119520,120
64,37,119760,120
69,37,119760,120
73,45,119760,120
64,50,120000,120
68,50,120000,120
64,45,120240,120
68,45,120240,120
64,45,120480,120
68,45,120480,120
64,45,120720,120
68,45,120720,120
57,57,120960,120
69,47,121080,120
68,50,121200,120
69,47,121320,120
61,57,121440,120
69,48,121560,120
68,50,121680,120
69,47,121800,120
62,57,121920,120
69,47,122040,120
61,50,122160,120
69,47,122280,120
62,57,122400,120
69,48,122520,120
61,50,122640,120
69,47,122760,120
59,48,122880,480
68,57,122880,480
62,57,123840,240
66,57,123840,240
52,48,124320,240
64,57,124320,240
57,57,124800,120
69,47,124920,120
68,50,125040,120
69,47,125160,120
61,57,125280,120
69,48,125400,120
68,50,125520,120
69,47,125640,120
62,57,125760,120
69,47,125880,120
61,50,126000,120
69,47,126120,120
62,57,126240,120
69,48,126360,120
61,50,126480,120
69,47,126600,120
59,48,126720,480
68,57,126720,480
57,41,127440,240
69,49,127440,240
62,48,127680,240
66,57,127680,240
64,39,128160,240
52,33,128160,240
45,38,128640,240
57,45,128640,240
62,41,129120,240
52,34,129120,240
52,38,129600,240
61,45,129600,240
59,39,130080,115
52,33,130080,240
45,36,130560,480
57,43,130560,480
30,34,131520,2880
42,34,131520,2880
52,40,133200,240
50,46,133440,240
47,41,133680,240
46,46,133920,240
47,39,134160,240
47,46,134400,480
66,42,136080,60
62,36,136080,60
64,40,136320,240
67,48,136320,240
66,40,136560,240
62,34,136560,240
71,37,138000,60
74,42,138000,60
73,48,138240,240
70,40,138240,240
74,40,138480,240
71,34,138480,240
71,35,139680,60
74,42,139680,60
73,40,139920,60
69,34,139920,60
67,40,140160,240
71,48,140160,240
66,34,140400,240
69,40,140400,240
50,34,141120,1920
59,34,142080,1080
51,40,143040,960
57,40,143160,120
56,49,143280,120
57,40,143400,120
59,48,143520,120
57,40,143640,120
60,49,143760,120
57,44,143880,600
52,40,144000,960
55,40,144480,480
61,46,145080,120
59,56,145200,120
61,46,145320,120
62,55,145440,120
61,46,145560,120
64,56,145680,120
59,50,145800,120
58,49,145920,960
66,58,145920,1440
59,54,146880,480
65,57,147360,480
55,48,147360,480
66,54,147840,480
54,45,147840,480
42,44,148800,480
53,43,150960,240
54,48,151200,180
58,43,152880,240
59,48,153120,180
59,48,153840,120
64,51,154080,120
66,48,154320,120
67,56,154560,480
52,48,155280,120
57,51,155520,120
59,48,155760,120
61,51,156000,120
62,48,156240,120
64,56,156480,480
45,48,157200,120
50,51,157440,120
52,48,157680,120
54,51,157920,120
55,48,158160,120
57,56,158400,480
50,48,159120,240
55,56,159360,480
43,56,160320,480
45,62,161280,120
47,54,161400,120
49,54,161520,120
50,55,161640,120
52,57,161760,120
54,55,161880,120
55,55,162000,120
54,55,162120,120
55,63,162240,480
71,58,168000,120
73,61,168120,120
74,62,168240,120
73,58,168360,120
71,56,168480,120
69,55,168600,120
67,56,168720,120
66,53,168840,120
67,58,168960,120
69,61,169080,120
71,62,169200,120
69,58,169320,120
67,56,169440,120
66,55,169560,120
64,56,169680,120
62,53,169800,120
61,56,169920,720
62,50,170640,120
61,56,170880,120
62,51,171120,120
61,56,171360,120
63,52,171600,120
57,48,171840,1920
64,56,171840,720
63,50,172560,120
64,56,172800,120
63,51,173040,120
64,56,173280,120
63,52,173520,120
57,43,173760,2400
64,50,173760,360
63,39,174120,120
64,41,174240,360
63,35,174600,120
64,39,174720,360
63,31,175080,132
64,34,175200,132
63,30,175320,132
64,32,175440,132
63,28,175560,132
64,30,175680,480
57,32,176640,60
61,34,176700,60
64,37,176760,60
67,38,176820,60
50,75,177600,480
38,63,177600,480
66,42,178320,60
62,36,178320,60
67,48,178560,240
62,40,178560,240
66,40,178800,240
62,34,178800,240
50,75,179520,480
38,63,179520,480
62,42,180240,60
57,48,180480,240
62,40,180720,240
62,40,181680,60
54,40,181680,60
62,45,181920,60
54,45,181920,60
62,40,182640,60
55,40,182640,60
62,45,182880,60
55,45,182880,60
57,46,183360,480
45,40,183840,480
50,36,184320,480
38,32,184800,240
62,40,185520,60
54,40,185520,60
62,45,185760,60
54,45,185760,60
62,40,186480,60
55,40,186480,60
62,45,186720,60
55,45,186720,60
57,48,187200,240
45,39,187680,240
38,48,188160,480
56,43,190320,240
57,48,190560,180
58,43,192240,240
59,48,192480,180
55,52,193920,120
62,45,194040,120
55,54,194160,120
62,39,194280,120
54,49,194400,120
62,38,194520,120
54,49,194640,120
62,43,194760,120
59,52,194880,120
62,45,195000,120
59,54,195120,120
62,39,195240,120
57,49,195360,120
62,38,195480,120
57,49,195600,120
62,43,195720,120
55,52,195840,120
62,45,195960,120
55,54,196080,120
62,39,196200,120
54,49,196320,120
62,38,196440,120
54,49,196560,120
62,43,196680,120
59,52,196800,120
62,45,196920,120
59,54,197040,120
62,39,197160,120
57,49,197280,120
62,38,197400,120
57,49,197520,120
62,43,197640,120
55,52,197760,480
55,40,198480,240
43,34,198480,240
54,48,198720,960
45,40,198720,1200
52,45,199680,240
45,56,200640,240
49,56,200640,240
55,67,200640,240
52,56,200640,240
45,56,201120,240
49,56,201120,240
55,67,201120,240
52,56,201120,240
45,56,201600,240
49,56,201600,240
55,67,201600,240
52,56,201600,240
45,46,202560,120
52,38,202680,120
50,46,202800,120
52,39,202920,120
49,47,203040,120
52,38,203160,120
45,49,203280,120
49,41,203400,120
50,46,203520,480
50,46,204480,120
57,38,204600,120
55,46,204720,120
57,39,204840,120
54,47,204960,120
57,38,205080,120
50,49,205200,120
54,41,205320,120
55,46,205440,480
52,46,206400,120
59,38,206520,120
57,46,206640,120
59,39,206760,120
56,47,206880,120
59,38,207000,120
52,49,207120,120
56,41,207240,120
57,46,207360,480
59,52,208320,120
65,45,208440,120
59,54,208560,120
65,35,208680,120
59,45,208800,120
65,38,208920,120
59,46,209040,120
65,40,209160,120
61,52,209280,120
64,45,209400,120
61,54,209520,120
64,39,209640,120
61,49,209760,120
64,38,209880,120
61,49,210000,120
64,43,210120,120
59,52,210240,120
65,45,210360,120
59,54,210480,120
65,37,210600,120
59,47,210720,120
65,37,210840,120
59,46,210960,120
65,39,211080,120
61,52,211200,120
64,45,211320,120
61,54,211440,120
64,39,211560,120
61,49,211680,120
64,38,211800,120
61,49,211920,120
64,43,212040,120
62,52,212160,120
66,45,212280,120
62,54,212400,120
66,39,212520,120
62,49,212640,120
66,38,212760,120
62,49,212880,120
66,43,213000,120
64,52,213120,120
67,45,213240,120
64,54,213360,120
67,39,213480,120
64,49,213600,120
67,38,213720,120
64,49,213840,120
67,43,213960,120
66,52,214080,120
69,45,214200,120
66,54,214320,120
69,39,214440,120
66,49,214560,120
69,38,214680,120
66,49,214800,120
69,43,214920,120
61,52,215040,120
69,45,215160,120
61,54,215280,120
69,39,215400,120
61,49,215520,120
69,38,215640,120
61,49,215760,120
69,43,215880,120
62,52,216000,480
61,37,216960,480
64,44,216960,480
50,52,217920,480
57,54,218880,120
56,50,219000,120
57,50,219120,120
59,50,219240,120
57,55,219360,120
55,49,219480,120
54,49,219600,120
52,49,219720,120
50,57,219840,480
67,57,220800,480
55,57,221760,480
62,39,223920,480
54,32,223920,240
55,39,224160,240
57,32,224400,240
61,39,224400,240
62,57,224640,240
66,39,225120,240
67,54,225600,120
69,54,225720,120
71,57,225840,120
69,54,225960,120
67,52,226080,120
66,51,226200,120
64,49,226320,120
62,49,226440,120
61,57,226560,240
64,39,227040,240
66,54,227520,120
67,54,227640,120
69,57,227760,120
67,54,227880,120
66,52,228000,120
64,51,228120,120
62,49,228240,120
61,49,228360,120
59,57,228480,240
62,39,228960,240
64,54,229440,120
66,54,229560,120
67,57,229680,120
66,54,229800,120
64,52,229920,120
62,51,230040,120
61,49,230160,120
59,49,230280,120
57,57,230400,240
61,39,230880,240
62,57,231360,480
55,57,232320,480
43,57,233280,480
62,42,239040,120
57,42,239040,120
66,50,239040,120
57,37,239280,120
62,37,239280,120
66,45,239280,120
57,37,239520,120
62,37,239520,120
66,45,239520,120
57,37,239760,120
62,37,239760,120
66,45,239760,120
57,50,240000,120
61,50,240000,120
57,45,240240,120
61,45,240240,120
57,45,240480,120
61,45,240480,120
57,45,240720,120
61,45,240720,120
50,57,240960,120
62,47,241080,120
61,50,241200,120
62,47,241320,120
54,57,241440,120
62,48,241560,120
61,50,241680,120
62,47,241800,120
55,57,241920,120
62,47,242040,120
54,50,242160,120
62,47,242280,120
55,57,242400,120
62,48,242520,120
54,50,242640,120
62,47,242760,120
52,48,242880,480
61,57,242880,480
50,49,243600,240
62,58,243600,240
55,57,243840,240
59,57,243840,240
45,48,244320,240
57,57,244320,240
50,57,244800,120
62,47,244920,120
61,50,245040,120
62,47,245160,120
54,57,245280,120
62,48,245400,120
61,50,245520,120
62,47,245640,120
55,57,245760,120
62,47,245880,120
54,50,246000,120
62,47,246120,120
55,57,246240,120
62,48,246360,120
54,50,246480,120
62,47,246600,120
52,48,246720,480
61,57,246720,480
50,49,247440,240
62,58,247440,240
55,48,247680,240
59,57,247680,240
57,39,248160,240
45,33,248160,240
38,38,248640,240
50,45,248640,240
55,41,249120,240
45,34,249120,240
45,38,249600,240
54,45,249600,240
52,39,250080,115
45,33,250080,240
38,36,250560,480
50,43,250560,480
