note,velocity,position,duration
57,51,1920,120
65,60,1920,360
60,51,1920,120
60,56,2280,120
70,60,2400,120
69,54,2520,120
67,54,2640,120
65,54,2760,120
64,60,2880,120
65,57,3120,120
67,60,3360,120
69,55,3600,120
67,51,3840,120
64,51,3840,120
70,60,3840,360
67,56,4200,120
76,60,4320,120
74,54,4440,120
72,54,4560,120
70,54,4680,120
69,60,4800,120
70,57,5040,120
72,60,5280,120
73,61,5520,120
74,55,5760,360
76,48,6120,120
79,55,6240,120
77,51,6360,120
76,51,6480,120
74,51,6600,120
72,55,6720,180
72,49,6960,240
70,49,7200,30
72,44,7230,30
70,49,7260,30
72,42,7290,30
70,49,7320,40
72,45,7360,40
70,45,7400,40
69,49,7440,240
67,54,7680,180
69,49,7920,60
67,43,7980,60
66,44,8040,60
67,44,8100,60
70,49,8160,240
74,44,8400,240
65,44,8640,720
64,42,9360,60
65,38,9420,60
64,42,9480,120
65,60,9600,360
57,51,9600,120
60,51,9600,120
60,56,9960,120
70,60,10080,120
69,54,10200,120
67,54,10320,120
65,54,10440,120
64,60,10560,180
60,53,10740,60
65,57,10800,180
60,53,10980,60
67,60,11040,180
60,53,11220,60
69,55,11280,180
60,53,11460,60
70,60,11520,360
67,56,11880,120
76,60,12000,120
74,54,12120,120
72,54,12240,120
70,54,12360,120
69,60,12480,240
70,57,12720,240
72,60,12960,240
73,61,13200,240
73,55,13560,120
74,58,13680,120
76,55,13800,120
77,57,13920,120
78,59,14040,120
79,61,14160,120
81,63,14280,120
82,65,14400,120
83,68,14520,120
84,70,14640,120
85,68,14760,120
86,75,14880,120
81,63,15000,120
82,66,15120,120
79,61,15240,120
77,71,15360,720
79,41,16080,120
77,35,16200,120
76,39,16320,480
79,60,17280,480
77,55,17760,120
76,50,17880,120
74,55,18000,120
72,49,18120,90
72,55,18240,480
71,55,18720,60
72,51,18780,60
71,57,18840,240
71,51,19080,120
72,55,19200,120
74,52,19320,120
76,54,19440,120
77,55,19560,120
79,59,19680,120
81,61,19800,120
83,64,19920,120
84,66,20040,90
84,66,20160,120
83,64,20280,120
81,61,20400,60
79,59,20520,60
79,57,20640,120
77,55,20760,120
76,52,20880,60
74,50,21000,60
79,64,21120,360
81,59,21480,60
79,55,21540,60
77,62,21600,120
76,55,21720,120
74,57,21840,120
72,55,21960,90
72,61,22080,480
71,55,22560,60
72,51,22620,60
71,55,22680,240
77,52,22920,120
76,60,23040,60
77,55,23160,60
79,60,23280,60
81,61,23400,60
83,70,23520,60
84,65,23640,60
83,68,23760,60
84,66,23880,60
84,73,24000,120
83,66,24120,120
81,67,24240,120
79,64,24360,90
79,69,24480,120
77,64,24600,120
76,62,24720,120
74,61,24840,120
76,62,24960,120
77,62,25080,120
76,69,25200,120
77,68,25320,120
79,76,25440,120
81,74,25560,120
79,83,25680,120
81,78,25800,120
82,89,25920,960
70,75,25920,960
81,70,27000,120
80,75,27120,120
81,68,27240,120
79,67,27480,120
78,76,27600,120
79,67,27720,120
78,70,27960,120
78,69,28080,60
79,63,28140,60
78,68,28200,120
77,72,28440,120
77,72,28560,60
79,65,28620,60
77,75,28680,120
76,67,28920,120
77,70,29040,120
79,72,29160,90
79,72,29280,120
69,66,29400,120
77,72,29520,120
74,65,29640,120
72,72,29760,480
71,68,30240,40
72,60,30280,40
71,68,30320,40
72,61,30360,40
71,68,30400,40
72,61,30440,40
71,68,30480,240
84,72,30840,120
88,78,30960,120
84,72,31080,120
83,77,31200,120
81,69,31320,120
79,76,31440,120
77,67,31560,120
76,75,31680,480
74,68,32160,40
76,60,32200,40
74,68,32240,40
76,61,32280,40
74,68,32320,40
76,61,32360,40
74,68,32394,40
76,60,32435,40
74,68,32474,40
72,63,32517,60
74,62,32577,60
72,68,32640,120
76,48,32880,120
72,40,32880,120
76,48,33120,120
72,40,33120,120
76,48,33360,120
72,40,33360,120
77,52,33600,60
72,44,33600,240
76,47,33660,60
74,47,33720,60
76,48,33780,60
79,52,33840,240
76,44,33840,240
72,51,34080,240
76,60,34080,240
72,66,34320,240
69,55,34320,240
69,72,34560,600
65,60,34560,600
65,49,35160,120
69,58,35160,120
67,49,35280,120
71,58,35280,120
69,49,35400,108
72,58,35400,108
69,53,35520,120
72,63,35520,120
67,50,35640,120
71,59,35640,120
69,59,35760,120
65,50,35760,120
64,50,35880,108
67,59,35880,108
64,53,36000,120
67,63,36000,120
62,45,36120,120
65,53,36120,120
60,45,36240,120
64,53,36240,120
62,53,36360,108
59,45,36360,108
72,63,36720,80
76,57,36800,80
84,57,36880,80
72,63,36960,80
76,55,37040,80
84,55,37120,80
72,63,37200,80
76,55,37280,80
84,55,37360,80
72,69,37440,80
76,59,37520,80
84,61,37600,80
76,72,37680,80
79,64,37760,80
88,66,37840,80
72,75,37920,80
76,66,38000,80
84,69,38080,80
69,80,38160,80
72,69,38240,80
81,71,38320,80
65,81,38400,600
72,66,39000,120
69,56,39000,120
71,68,39120,120
67,57,39120,120
65,53,39240,108
69,63,39240,108
65,56,39360,120
69,67,39360,120
67,65,39480,120
64,55,39480,120
62,53,39600,120
65,63,39600,120
64,61,39720,108
60,51,39720,108
64,63,39840,120
62,56,39960,120
60,56,40080,120
53,47,40200,108
59,56,40200,108
53,59,40320,915
59,59,40320,915
55,52,41280,240
52,52,41280,240
60,52,41280,240
60,51,42240,120
65,60,42240,360
57,51,42240,120
60,56,42600,120
70,60,42720,120
69,54,42840,120
67,54,42960,120
65,54,43080,120
64,60,43200,120
65,57,43440,120
67,60,43680,120
69,55,43920,120
67,51,44160,120
64,51,44160,120
70,60,44160,360
67,56,44520,120
76,60,44640,120
74,54,44760,120
72,54,44880,120
70,54,45000,120
69,60,45120,120
70,57,45360,120
72,60,45600,120
73,61,45840,120
74,55,46080,360
76,48,46440,120
79,55,46560,120
77,51,46680,120
76,51,46800,120
74,51,46920,120
72,55,47040,180
72,49,47280,240
70,49,47520,30
72,44,47550,30
70,49,47580,30
72,42,47610,30
70,49,47640,40
72,45,47680,40
70,45,47720,40
69,49,47760,240
67,54,48000,180
69,49,48240,60
67,43,48300,60
66,44,48360,60
67,44,48420,60
70,49,48480,240
74,44,48720,240
65,44,48960,720
64,42,49680,60
65,38,49740,60
64,42,49800,120
60,51,49920,120
65,60,49920,360
57,51,49920,120
60,56,50280,120
70,60,50400,120
69,54,50520,120
67,54,50640,120
65,54,50760,120
64,60,50880,180
60,53,51060,60
65,57,51120,180
60,53,51300,60
67,60,51360,180
60,53,51540,60
69,55,51600,180
60,53,51780,60
70,60,51840,360
67,56,52200,120
76,60,52320,120
74,54,52440,120
72,54,52560,120
70,54,52680,120
69,60,52800,240
70,57,53040,240
72,60,53280,240
73,61,53520,240
73,55,53880,120
74,58,54000,120
76,55,54120,120
77,57,54240,120
78,59,54360,120
79,61,54480,120
81,63,54600,120
82,65,54720,120
83,68,54840,120
84,70,54960,120
85,68,55080,120
86,75,55200,120
81,63,55320,120
82,66,55440,120
79,61,55560,120
77,71,55680,720
79,41,56400,120
77,35,56520,120
76,39,56640,480
79,60,57600,480
77,55,58080,120
76,50,58200,120
74,55,58320,120
72,49,58440,90
72,55,58560,480
71,55,59040,60
72,51,59100,60
71,57,59160,240
71,51,59400,120
72,55,59520,120
74,52,59640,120
76,54,59760,120
77,55,59880,120
79,59,60000,120
81,61,60120,120
83,64,60240,120
84,66,60360,90
84,66,60480,120
83,64,60600,120
81,61,60720,60
79,59,60840,60
79,57,60960,120
77,55,61080,120
76,52,61200,60
74,50,61320,60
79,64,61440,360
81,59,61800,60
79,55,61860,60
77,62,61920,120
76,55,62040,120
74,57,62160,120
72,55,62280,90
72,61,62400,480
71,55,62880,60
72,51,62940,60
71,55,63000,240
77,52,63240,120
76,60,63360,60
77,55,63480,60
79,60,63600,60
81,61,63720,60
83,70,63840,60
84,65,63960,60
83,68,64080,60
84,66,64200,60
84,73,64320,120
83,66,64440,120
81,67,64560,120
79,64,64680,90
79,69,64800,120
77,64,64920,120
76,62,65040,120
74,61,65160,120
76,62,65280,120
77,62,65400,120
76,69,65520,120
77,68,65640,120
79,76,65760,120
81,74,65880,120
79,83,66000,120
81,78,66120,120
70,75,66240,960
82,89,66240,960
81,70,67320,120
80,75,67440,120
81,68,67560,120
79,67,67800,120
78,76,67920,120
79,67,68040,120
78,70,68280,120
78,69,68400,60
79,63,68460,60
78,68,68520,120
77,72,68760,120
77,72,68880,60
79,65,68940,60
77,75,69000,120
76,67,69240,120
77,70,69360,120
79,72,69480,90
79,72,69600,120
69,66,69720,120
77,72,69840,120
74,65,69960,120
72,72,70080,480
71,68,70560,40
72,60,70600,40
71,68,70640,40
72,61,70680,40
71,68,70720,40
72,61,70760,40
71,68,70800,240
84,72,71160,120
88,78,71280,120
84,72,71400,120
83,77,71520,120
81,69,71640,120
79,76,71760,120
77,67,71880,120
76,75,72000,480
74,68,72480,40
76,60,72520,40
74,68,72560,40
76,61,72600,40
74,68,72640,40
76,61,72680,40
74,68,72714,40
76,60,72755,40
74,68,72794,40
72,63,72837,60
74,62,72897,60
72,68,72960,120
76,48,73200,120
72,40,73200,120
76,48,73440,120
72,40,73440,120
76,48,73680,120
72,40,73680,120
77,52,73920,60
72,44,73920,240
76,47,73980,60
74,47,74040,60
76,48,74100,60
76,44,74160,240
79,52,74160,240
76,60,74400,240
72,51,74400,240
72,66,74640,240
69,55,74640,240
65,60,74880,600
69,72,74880,600
69,58,75480,120
65,49,75480,120
67,49,75600,120
71,58,75600,120
69,49,75720,108
72,58,75720,108
72,63,75840,120
69,53,75840,120
67,50,75960,120
71,59,75960,120
65,50,76080,120
69,59,76080,120
64,50,76200,108
67,59,76200,108
64,53,76320,120
67,63,76320,120
65,53,76440,120
62,45,76440,120
64,53,76560,120
60,45,76560,120
59,45,76680,108
62,53,76680,108
72,63,77040,80
76,57,77120,80
84,57,77200,80
72,63,77280,80
76,55,77360,80
84,55,77440,80
72,63,77520,80
76,55,77600,80
84,55,77680,80
72,69,77760,80
76,59,77840,80
84,61,77920,80
76,72,78000,80
79,64,78080,80
88,66,78160,80
72,75,78240,80
76,66,78320,80
84,69,78400,80
69,80,78480,80
72,69,78560,80
81,71,78640,80
65,81,78720,600
72,66,79320,120
69,56,79320,120
67,57,79440,120
71,68,79440,120
69,63,79560,108
65,53,79560,108
69,67,79680,120
65,56,79680,120
67,65,79800,120
64,55,79800,120
62,53,79920,120
65,63,79920,120
60,51,80040,108
64,61,80040,108
64,63,80160,120
62,56,80280,120
60,56,80400,120
59,56,80520,108
53,47,80520,108
59,59,80640,915
53,59,80640,915
55,52,81600,240
52,52,81600,240
60,52,81600,240
72,60,82560,360
67,51,82560,120
64,51,82560,120
67,56,82920,120
77,60,83040,120
76,54,83160,120
74,54,83280,120
72,54,83400,120
79,60,83520,120
77,60,84480,360
72,56,84840,120
82,60,84960,120
81,54,85080,120
79,54,85200,120
77,54,85320,120
84,60,85440,120
83,60,86280,40
84,62,86320,40
86,64,86361,40
84,67,86400,840
82,60,87240,40
81,60,87280,40
79,60,87321,40
78,68,87360,120
75,63,87480,120
74,63,87600,120
72,64,87720,120
70,68,87840,120
69,70,87960,120
67,71,88080,120
66,73,88200,120
67,74,88320,117
70,77,88560,120
74,82,88800,120
79,84,89040,120
82,86,89280,120
86,90,90240,120
86,90,90480,480
84,72,90960,60
82,73,91020,60
81,74,91080,60
79,74,91140,60
84,84,91200,120
84,84,91440,480
82,70,91920,60
81,72,91980,60
79,73,92040,60
77,75,92100,60
84,77,92160,120
82,68,92280,90
82,72,92400,120
81,67,92520,90
81,72,92640,240
84,61,93120,120
82,57,93240,90
82,61,93360,120
81,54,93480,90
81,60,93600,240
84,69,94080,30
86,63,94110,30
84,69,94140,30
86,61,94170,30
82,68,94200,90
82,68,94320,30
84,61,94350,30
82,68,94380,30
84,62,94410,30
81,67,94440,90
81,72,94560,240
82,62,95010,30
81,70,95040,120
79,65,95160,90
81,62,95250,30
79,70,95280,120
77,62,95400,120
77,69,95520,240
77,65,96000,120
76,57,96120,120
74,61,96240,120
72,54,96360,90
72,60,96480,240
72,54,96720,240
74,54,96960,60
72,54,97020,60
71,54,97080,60
72,60,97140,200
72,60,97920,480
70,55,98400,120
69,50,98520,120
67,55,98640,120
65,49,98760,90
65,55,98880,480
64,55,99360,60
65,51,99420,60
64,57,99480,240
64,51,99720,120
65,55,99840,120
67,52,99960,120
69,54,100080,120
70,55,100200,120
72,59,100320,120
74,61,100440,120
76,64,100560,120
77,66,100680,90
77,66,100800,120
76,64,100920,120
74,61,101040,60
72,59,101160,60
72,57,101280,120
70,55,101400,120
69,52,101520,60
67,50,101640,60
84,72,101760,360
86,64,102120,60
84,60,102180,60
82,68,102240,120
81,60,102360,120
79,62,102480,120
77,60,102600,90
77,70,102720,480
76,60,103200,60
77,56,103260,60
76,60,103320,240
82,57,103560,120
81,66,103680,60
82,60,103800,60
84,66,103920,60
86,67,104040,60
88,77,104160,60
89,71,104280,60
88,74,104400,60
89,72,104520,60
89,80,104640,120
88,72,104760,120
86,73,104880,120
84,70,105000,90
84,75,105120,120
82,70,105240,120
81,68,105360,120
79,67,105480,120
81,68,105600,120
82,68,105720,120
81,75,105840,120
82,74,105960,120
84,83,106080,120
86,81,106200,120
84,91,106320,120
86,85,106440,120
87,97,106560,960
75,82,106560,960
86,70,107640,120
85,75,107760,120
86,68,107880,120
84,67,108120,120
83,76,108240,120
84,67,108360,120
83,70,108600,120
83,69,108720,60
84,63,108780,60
83,68,108840,120
82,72,109080,120
82,72,109200,60
84,65,109260,60
82,75,109320,120
81,67,109560,120
82,70,109680,120
84,72,109800,90
84,72,109920,120
74,66,110040,120
82,72,110160,120
79,65,110280,120
77,72,110400,480
76,68,110880,40
77,60,110920,40
76,68,110960,40
77,61,111000,40
76,68,111040,40
77,61,111080,40
76,68,111120,240
84,72,111480,120
81,75,111600,120
77,67,111720,120
75,77,111840,120
74,69,111960,120
85,82,112080,120
86,76,112200,120
77,75,112320,480
79,68,112800,40
81,60,112840,40
79,68,112880,40
81,61,112920,40
79,68,112960,40
81,61,113000,40
79,68,113034,40
81,60,113075,40
79,68,113114,40
77,63,113157,60
79,62,113217,60
77,68,113280,120
65,40,113520,120
69,48,113520,120
69,48,113760,120
65,40,113760,120
65,40,114000,120
69,48,114000,120
70,52,114240,60
65,44,114240,240
69,47,114300,60
67,47,114360,60
69,48,114420,60
69,44,114480,240
72,52,114480,240
65,51,114720,240
69,60,114720,240
62,55,114960,240
65,66,114960,240
62,72,115200,600
58,60,115200,600
62,58,115800,120
58,49,115800,120
64,58,115920,120
60,49,115920,120
65,58,116040,108
62,49,116040,108
62,53,116160,120
65,63,116160,120
60,50,116280,120
64,59,116280,120
62,59,116400,120
58,50,116400,120
60,59,116520,108
57,50,116520,108
57,53,116640,120
60,63,116640,120
55,45,116760,120
58,53,116760,120
53,45,116880,120
57,53,116880,120
52,45,117000,120
55,53,117000,120
65,50,117360,80
69,46,117440,80
77,46,117520,80
65,52,117600,80
69,46,117680,80
77,46,117760,80
65,54,117840,80
69,47,117920,80
77,47,118000,80
65,60,118080,80
69,52,118160,80
77,54,118240,80
69,65,118320,80
72,58,118400,80
81,61,118480,80
65,69,118560,80
69,62,118640,80
77,65,118720,80
62,76,118800,80
65,66,118880,80
74,69,118960,80
58,80,119040,600
74,56,119640,120
77,66,119640,120
76,68,119760,120
72,57,119760,120
70,53,119880,108
74,63,119880,108
70,56,120000,120
74,67,120000,120
69,55,120120,120
72,65,120120,120
67,53,120240,120
70,63,120240,120
69,61,120360,108
65,51,120360,108
69,63,120480,120
67,56,120600,120
65,56,120720,120
58,47,120840,108
64,56,120840,108
58,59,120960,915
64,59,120960,915
57,52,121920,240
65,52,121920,240
60,52,121920,240
72,60,122880,360
67,51,122880,120
64,51,122880,120
67,56,123240,120
77,60,123360,120
76,54,123480,120
74,54,123600,120
72,54,123720,120
79,60,123840,120
77,60,124800,360
72,56,125160,120
82,60,125280,120
81,54,125400,120
79,54,125520,120
77,54,125640,120
84,60,125760,120
83,60,126600,40
84,62,126640,40
86,64,126681,40
84,67,126720,840
82,60,127560,40
81,60,127600,40
79,60,127641,40
78,68,127680,120
75,63,127800,120
74,63,127920,120
72,64,128040,120
70,68,128160,120
69,70,128280,120
67,71,128400,120
66,73,128520,120
67,74,128640,115
70,77,128880,120
74,82,129120,120
79,84,129360,120
82,86,129600,120
86,90,130560,120
86,90,130800,480
84,72,131280,60
82,73,131340,60
81,74,131400,60
79,74,131460,60
84,84,131520,120
84,84,131760,480
82,70,132240,60
81,72,132300,60
79,73,132360,60
77,75,132420,60
84,77,132480,120
82,68,132600,90
82,72,132720,120
81,67,132840,90
81,72,132960,240
84,61,133440,120
82,57,133560,90
82,61,133680,120
81,54,133800,90
81,60,133920,240
84,69,134400,30
86,63,134430,30
84,69,134460,30
86,61,134490,30
82,68,134520,90
82,68,134640,30
84,61,134670,30
82,68,134700,30
84,62,134730,30
81,67,134760,90
81,72,134880,240
82,62,135330,30
81,70,135360,120
79,65,135480,90
81,62,135570,30
79,70,135600,120
77,62,135720,90
77,69,135840,240
77,65,136320,120
76,57,136440,120
74,61,136560,120
72,54,136680,90
72,60,136800,240
72,54,137040,240
74,54,137280,60
72,54,137340,60
71,54,137400,60
72,60,137460,200
72,60,138240,480
70,55,138720,120
69,50,138840,120
67,55,138960,120
65,49,139080,90
65,55,139200,480
64,55,139680,60
65,51,139740,60
64,57,139800,240
64,51,140040,120
65,55,140160,120
67,52,140280,120
69,54,140400,120
70,55,140520,120
72,59,140640,120
74,61,140760,120
76,64,140880,120
77,66,141000,90
77,66,141120,120
76,64,141240,120
74,61,141360,60
72,59,141480,60
72,57,141600,120
70,55,141720,120
69,52,141840,60
67,50,141960,60
84,72,142080,360
86,64,142440,60
84,60,142500,60
82,68,142560,120
81,60,142680,120
79,62,142800,120
77,60,142920,90
77,70,143040,480
76,60,143520,60
77,56,143580,60
76,60,143640,240
82,57,143880,120
81,66,144000,60
82,60,144120,60
84,66,144240,60
86,67,144360,60
88,77,144480,60
89,71,144600,60
88,74,144720,60
89,72,144840,60
89,80,144960,120
88,72,145080,120
86,73,145200,120
84,70,145320,90
84,75,145440,120
82,70,145560,120
81,68,145680,120
79,67,145800,120
81,68,145920,120
82,68,146040,120
81,75,146160,120
82,74,146280,120
84,83,146400,120
86,81,146520,120
84,91,146640,120
86,85,146760,120
87,97,146880,960
75,82,146880,960
86,70,147960,120
85,75,148080,120
86,68,148200,120
84,67,148440,120
83,76,148560,120
84,67,148680,120
83,70,148920,120
83,69,149040,60
84,63,149100,60
83,68,149160,120
82,72,149400,120
82,72,149520,60
84,65,149580,60
82,75,149640,120
81,67,149880,120
82,70,150000,120
84,72,150120,90
84,72,150240,120
74,66,150360,120
82,72,150480,120
79,65,150600,120
77,72,150720,480
76,68,151200,40
77,60,151240,40
76,68,151280,40
77,61,151320,40
76,68,151360,40
77,61,151400,40
76,68,151440,240
84,72,151800,120
81,75,151920,120
77,67,152040,120
75,77,152160,120
74,69,152280,120
85,82,152400,120
86,76,152520,120
77,75,152640,480
79,68,153120,40
81,60,153160,40
79,68,153200,40
81,61,153240,40
79,68,153280,40
81,61,153320,40
79,68,153354,40
81,60,153395,40
79,68,153434,40
77,63,153477,60
79,62,153537,60
77,68,153600,120
69,48,153840,120
65,40,153840,120
69,48,154080,120
65,40,154080,120
65,40,154320,120
69,48,154320,120
65,44,154560,240
70,52,154560,60
69,47,154620,60
67,47,154680,60
69,48,154740,60
69,44,154800,240
72,52,154800,240
65,51,155040,240
69,60,155040,240
65,66,155280,240
62,55,155280,240
62,72,155520,600
58,60,155520,600
58,49,156120,120
62,58,156120,120
64,58,156240,120
60,49,156240,120
65,58,156360,108
62,49,156360,108
65,63,156480,120
62,53,156480,120
64,59,156600,120
60,50,156600,120
62,59,156720,120
58,50,156720,120
60,59,156840,108
57,50,156840,108
57,53,156960,120
60,63,156960,120
58,53,157080,120
55,45,157080,120
57,53,157200,120
53,45,157200,120
55,53,157320,120
52,45,157320,120
65,50,157680,80
69,46,157760,80
77,46,157840,80
65,52,157920,80
69,46,158000,80
77,46,158080,80
65,54,158160,80
69,47,158240,80
77,47,158320,80
65,60,158400,80
69,52,158480,80
77,54,158560,80
69,65,158640,80
72,58,158720,80
81,61,158800,80
65,69,158880,80
69,62,158960,80
77,65,159040,80
62,76,159120,80
65,66,159200,80
74,69,159280,80
58,80,159360,600
77,66,159960,120
74,56,159960,120
76,68,160080,120
72,57,160080,120
74,63,160200,108
70,53,160200,108
74,67,160320,120
70,56,160320,120
69,55,160440,120
72,65,160440,120
67,53,160560,120
70,63,160560,120
65,51,160680,108
69,61,160680,108
69,63,160800,120
67,56,160920,120
65,56,161040,120
58,47,161160,108
64,56,161160,108
58,59,161280,915
64,59,161280,915
60,52,162240,240
65,52,162240,240
57,52,162240,240
41,45,1875,165
45,48,1890,150
48,51,1905,135
53,53,1920,120
55,42,2880,120
48,42,2880,120
58,50,2880,120
52,45,3795,165
55,48,3810,150
58,51,3825,135
60,53,3840,120
60,50,4800,120
53,42,4800,120
65,44,5760,1200
58,44,5760,960
57,44,6720,240
58,43,7680,960
46,43,7680,960
48,37,8640,900
57,37,8640,480
55,33,9120,420
41,45,9555,165
45,48,9570,150
48,51,9585,135
53,53,9600,120
58,50,10560,240
48,42,10560,1920
57,50,10800,240
55,50,11040,240
53,50,11280,240
55,53,11520,960
52,48,11520,960
53,50,12480,120
41,42,12480,120
58,44,13440,480
46,44,13440,480
58,30,14880,480
70,36,14880,480
69,40,15360,960
60,34,15360,1440
67,32,16320,480
60,40,17280,120
67,32,17400,120
64,32,17520,120
67,32,17640,120
60,40,17760,120
67,31,17880,120
64,31,18000,120
67,31,18120,120
62,40,18240,120
67,30,18360,120
65,30,18480,120
67,30,18600,120
62,40,18720,120
67,33,18840,120
65,33,18960,120
67,33,19080,120
60,40,19200,120
67,32,19320,120
64,32,19440,120
67,32,19560,120
60,40,19680,120
67,33,19800,120
64,35,19920,120
67,37,20040,120
62,47,20160,120
67,35,20280,120
65,35,20400,60
67,35,20520,60
62,44,20640,120
67,33,20760,120
65,33,20880,60
67,33,21000,60
60,40,21120,120
67,32,21240,120
64,32,21360,120
67,32,21480,120
60,40,21600,120
67,31,21720,120
64,31,21840,120
67,31,21960,120
62,40,22080,120
67,30,22200,120
65,30,22320,120
67,30,22440,120
62,40,22560,120
67,33,22680,120
65,33,22800,120
67,33,22920,120
60,40,23040,60
67,32,23160,60
64,32,23280,60
67,32,23400,60
60,46,23520,60
67,35,23640,60
64,36,23760,60
67,38,23880,60
62,49,24000,120
67,39,24120,120
65,39,24240,120
67,39,24360,120
62,50,24480,120
67,40,24600,120
65,40,24720,120
67,40,24840,120
60,48,24960,120
67,32,25080,120
64,32,25200,120
67,32,25320,120
60,52,25440,120
67,39,25560,120
64,42,25680,120
67,45,25800,120
52,65,25920,120
60,55,26040,120
55,55,26160,120
60,55,26280,120
52,63,26400,120
60,51,26520,120
55,51,26640,120
60,51,26760,120
53,58,26880,120
60,45,27000,120
57,45,27120,120
60,45,27240,120
52,51,27360,120
61,44,27480,120
55,44,27600,120
61,44,27720,120
50,51,27840,120
60,43,27960,120
57,43,28080,120
60,43,28200,120
55,51,28320,120
62,43,28440,120
59,43,28560,120
62,43,28680,120
48,47,28800,120
60,41,28920,120
52,41,29040,120
60,41,29160,120
53,47,29280,120
62,41,29400,120
57,41,29520,120
62,41,29640,120
55,47,29760,120
64,40,29880,120
60,40,30000,120
64,40,30120,120
55,47,30240,120
65,42,30360,120
62,42,30480,120
65,42,30600,120
52,47,30720,120
60,41,30840,120
55,41,30960,120
60,41,31080,120
53,47,31200,120
60,41,31320,120
57,41,31440,120
60,41,31560,120
55,47,31680,120
64,40,31800,120
60,40,31920,120
64,40,32040,120
55,47,32160,120
65,42,32280,120
62,42,32400,120
65,42,32520,120
64,47,32640,480
60,39,32640,480
53,70,35040,120
41,59,35040,120
55,63,35520,120
43,53,35520,120
43,53,36000,120
55,63,36000,120
36,63,36480,480
48,63,36480,480
53,70,38880,120
41,59,38880,120
55,63,39360,120
43,53,39360,120
53,63,39840,240
43,53,39846,240
48,56,40320,915
36,49,41235,285
40,53,41250,250
43,56,41265,255
48,60,41280,240
41,45,42195,165
45,48,42210,150
48,51,42225,135
53,53,42240,120
55,42,43200,120
58,50,43200,120
48,42,43200,120
52,45,44115,165
55,48,44130,150
58,51,44145,135
60,53,44160,120
60,50,45120,120
53,42,45120,120
58,44,46080,960
65,44,46080,1200
57,44,47040,240
46,43,48000,960
58,43,48000,960
57,37,48960,480
48,37,48960,900
55,33,49440,420
41,45,49875,165
45,48,49890,150
48,51,49905,135
53,53,49920,120
58,50,50880,240
48,42,50880,1920
57,50,51120,240
55,50,51360,240
53,50,51600,240
55,53,51840,960
52,48,51840,960
53,50,52800,120
41,42,52800,120
58,44,53760,480
46,44,53760,480
70,36,55200,480
58,30,55200,480
69,40,55680,960
60,34,55680,1440
67,32,56640,480
60,40,57600,120
67,32,57720,120
64,32,57840,120
67,32,57960,120
60,40,58080,120
67,31,58200,120
64,31,58320,120
67,31,58440,120
62,40,58560,120
67,30,58680,120
65,30,58800,120
67,30,58920,120
62,40,59040,120
67,33,59160,120
65,33,59280,120
67,33,59400,120
60,40,59520,120
67,32,59640,120
64,32,59760,120
67,32,59880,120
60,40,60000,120
67,33,60120,120
64,35,60240,120
67,37,60360,120
62,47,60480,120
67,35,60600,120
65,35,60720,60
67,35,60840,60
62,44,60960,120
67,33,61080,120
65,33,61200,60
67,33,61320,60
60,40,61440,120
67,32,61560,120
64,32,61680,120
67,32,61800,120
60,40,61920,120
67,31,62040,120
64,31,62160,120
67,31,62280,120
62,40,62400,120
67,30,62520,120
65,30,62640,120
67,30,62760,120
62,40,62880,120
67,33,63000,120
65,33,63120,120
67,33,63240,120
60,40,63360,60
67,32,63480,60
64,32,63600,60
67,32,63720,60
60,46,63840,60
67,35,63960,60
64,36,64080,60
67,38,64200,60
62,49,64320,120
67,39,64440,120
65,39,64560,120
67,39,64680,120
62,50,64800,120
67,40,64920,120
65,40,65040,120
67,40,65160,120
60,48,65280,120
67,32,65400,120
64,32,65520,120
67,32,65640,120
60,52,65760,120
67,39,65880,120
64,42,66000,120
67,45,66120,120
52,65,66240,120
60,55,66360,120
55,55,66480,120
60,55,66600,120
52,63,66720,120
60,51,66840,120
55,51,66960,120
60,51,67080,120
53,58,67200,120
60,45,67320,120
57,45,67440,120
60,45,67560,120
52,51,67680,120
61,44,67800,120
55,44,67920,120
61,44,68040,120
50,51,68160,120
60,43,68280,120
57,43,68400,120
60,43,68520,120
55,51,68640,120
62,43,68760,120
59,43,68880,120
62,43,69000,120
48,47,69120,120
60,41,69240,120
52,41,69360,120
60,41,69480,120
53,47,69600,120
62,41,69720,120
57,41,69840,120
62,41,69960,120
55,47,70080,120
64,40,70200,120
60,40,70320,120
64,40,70440,120
55,47,70560,120
65,42,70680,120
62,42,70800,120
65,42,70920,120
52,47,71040,120
60,41,71160,120
55,41,71280,120
60,41,71400,120
53,47,71520,120
60,41,71640,120
57,41,71760,120
60,41,71880,120
55,47,72000,120
64,40,72120,120
60,40,72240,120
64,40,72360,120
55,47,72480,120
65,42,72600,120
62,42,72720,120
65,42,72840,120
60,39,72960,480
64,47,72960,480
41,59,75360,120
53,70,75360,120
55,63,75840,120
43,53,75840,120
43,53,76320,120
55,63,76320,120
36,63,76800,480
48,63,76800,480
41,59,79200,120
53,70,79200,120
55,63,79680,120
43,53,79680,120
53,63,80160,240
43,53,80166,240
48,56,80640,915
36,49,81555,285
40,53,81570,250
43,56,81585,255
48,60,81600,240
48,45,82515,165
52,48,82530,150
55,51,82545,135
60,53,82560,120
60,44,83520,120
70,37,83640,120
67,37,83760,120
70,37,83880,120
60,44,84000,120
70,39,84120,120
67,39,84240,120
70,39,84360,120
60,44,84480,120
69,37,84600,120
65,37,84720,120
69,37,84840,120
60,44,84960,120
69,39,85080,120
65,39,85200,120
69,39,85320,120
60,44,85440,120
67,37,85560,120
64,37,85680,120
67,37,85800,120
60,44,85920,120
67,39,86040,120
64,39,86160,120
67,39,86280,120
57,44,86400,120
63,39,86520,120
60,39,86640,120
63,39,86760,120
57,44,86880,120
63,39,87000,120
60,39,87120,120
63,39,87240,120
57,44,87360,120
63,40,87480,120
60,41,87600,120
63,42,87720,120
57,49,87840,120
63,45,87960,120
60,46,88080,120
63,47,88200,120
58,55,88320,120
67,48,88440,120
62,48,88560,120
67,48,88680,120
58,55,88800,120
67,48,88920,120
62,48,89040,120
67,48,89160,120
58,55,89280,120
67,48,89400,120
62,48,89520,120
67,48,89640,120
58,55,89760,120
67,48,89880,120
62,48,90000,120
67,48,90120,120
58,55,90240,120
67,45,90360,120
64,45,90480,120
67,45,90600,120
58,52,90720,120
67,42,90840,120
64,42,90960,120
67,42,91080,120
57,55,91200,120
65,46,91320,120
60,46,91440,120
65,46,91560,120
57,55,91680,120
65,48,91800,120
60,48,91920,120
65,43,92040,120
52,50,92160,120
60,38,92280,120
55,38,92400,120
60,38,92520,120
53,48,92640,120
60,40,92760,120
57,40,92880,120
60,34,93000,120
52,40,93120,120
60,31,93240,120
55,31,93360,120
60,31,93480,120
53,34,93600,120
60,27,93720,120
57,27,93840,120
60,27,93960,120
52,53,94080,120
60,40,94200,120
55,40,94320,120
60,40,94440,120
53,48,94560,120
60,40,94680,120
57,40,94800,120
60,34,94920,120
58,46,95040,120
67,35,95160,120
62,35,95280,120
67,35,95400,120
59,45,95520,120
67,36,95640,120
62,36,95760,120
67,36,95880,120
60,43,96000,120
67,34,96120,120
64,34,96240,120
67,34,96360,120
60,42,96480,120
67,32,96600,120
64,32,96720,120
67,32,96840,120
60,37,96960,120
62,29,97080,120
58,38,97200,120
60,32,97320,120
57,34,97440,120
58,27,97560,120
55,34,97680,120
57,28,97800,120
53,37,97920,120
60,31,98040,120
57,28,98160,120
60,28,98280,120
53,40,98400,120
60,31,98520,120
57,31,98640,120
60,31,98760,120
55,40,98880,120
60,30,99000,120
58,30,99120,120
60,30,99240,120
55,40,99360,120
60,33,99480,120
58,33,99600,120
60,33,99720,120
53,40,99840,120
60,32,99960,120
57,32,100080,120
60,32,100200,120
53,40,100320,120
60,33,100440,120
57,35,100560,120
60,37,100680,120
55,47,100800,120
60,35,100920,120
58,35,101040,60
60,35,101160,60
55,44,101280,120
60,33,101400,120
58,33,101520,60
60,33,101640,60
53,40,101760,120
60,32,101880,120
57,32,102000,120
60,32,102120,120
53,40,102240,120
60,31,102360,120
57,31,102480,120
60,31,102600,120
55,40,102720,120
60,30,102840,120
58,30,102960,120
60,30,103080,120
55,40,103200,120
60,33,103320,120
58,33,103440,120
60,33,103560,120
53,40,103680,60
60,32,103800,60
57,32,103920,60
60,32,104040,60
53,46,104160,60
60,35,104280,60
57,36,104400,60
60,38,104520,60
55,49,104640,120
60,39,104760,120
58,39,104880,120
60,39,105000,120
55,50,105120,120
60,40,105240,120
58,40,105360,120
60,40,105480,120
53,48,105600,120
60,32,105720,120
57,32,105840,120
60,32,105960,120
53,52,106080,120
60,39,106200,120
57,42,106320,120
60,45,106440,120
57,65,106560,120
65,55,106680,120
60,55,106800,120
65,55,106920,120
57,63,107040,120
65,51,107160,120
60,51,107280,120
65,51,107400,120
58,58,107520,120
65,45,107640,120
62,45,107760,120
65,45,107880,120
57,51,108000,120
66,44,108120,120
60,44,108240,120
66,44,108360,120
55,51,108480,120
65,43,108600,120
62,43,108720,120
65,43,108840,120
60,51,108960,120
67,43,109080,120
64,43,109200,120
67,43,109320,120
53,47,109440,120
65,41,109560,120
57,41,109680,120
65,41,109800,120
58,47,109920,120
67,41,110040,120
62,41,110160,120
67,41,110280,120
60,47,110400,120
69,40,110520,120
65,40,110640,120
69,40,110760,120
60,47,110880,120
67,42,111000,120
64,42,111120,120
67,42,111240,120
57,47,111360,120
65,41,111480,120
60,41,111600,120
65,41,111720,120
58,47,111840,120
65,41,111960,120
62,41,112080,120
65,41,112200,120
60,47,112320,120
69,38,112440,120
65,38,112560,120
69,38,112680,120
60,47,112800,120
64,42,112920,120
60,42,113040,120
64,42,113160,120
53,39,113280,480
65,47,113280,238
34,59,115680,120
46,70,115680,120
36,53,116160,120
48,63,116160,120
48,63,116640,120
36,53,116640,120
29,50,117120,480
41,50,117120,480
34,59,119520,120
46,70,119520,120
36,53,120000,120
48,63,120000,120
58,63,120480,240
48,53,120480,240
53,56,120960,915
41,49,121875,285
45,53,121890,250
48,56,121905,255
53,60,121920,240
48,45,122835,165
52,48,122850,150
55,51,122865,135
60,53,122880,120
60,44,123840,120
70,37,123960,120
67,37,124080,120
70,37,124200,120
60,44,124320,120
70,39,124440,120
67,39,124560,120
70,39,124680,120
60,44,124800,120
69,37,124920,120
65,37,125040,120
69,37,125160,120
60,44,125280,120
69,39,125400,120
65,39,125520,120
69,39,125640,120
60,44,125760,120
67,37,125880,120
64,37,126000,120
67,37,126120,120
60,44,126240,120
67,39,126360,120
64,39,126480,120
67,39,126600,120
57,44,126720,120
63,39,126840,120
60,39,126960,120
63,39,127080,120
57,44,127200,120
63,39,127320,120
60,39,127440,120
63,39,127560,120
57,44,127680,120
63,40,127800,120
60,41,127920,120
63,42,128040,120
57,49,128160,120
63,45,128280,120
60,46,128400,120
63,47,128520,120
58,55,128640,120
67,48,128760,120
62,48,128880,120
67,48,129000,120
58,55,129120,120
67,48,129240,120
62,48,129360,120
67,48,129480,120
58,55,129600,120
67,48,129720,120
62,48,129840,120
67,48,129960,120
58,55,130080,120
67,48,130200,120
62,48,130320,120
67,48,130440,120
58,55,130560,120
67,45,130680,120
64,45,130800,120
67,45,130920,120
58,52,131040,120
67,42,131160,120
64,42,131280,120
67,42,131400,120
57,55,131520,120
65,46,131640,120
60,46,131760,120
65,46,131880,120
57,55,132000,120
65,48,132120,120
60,48,132240,120
65,43,132360,120
52,50,132480,120
60,38,132600,120
55,38,132720,120
60,38,132840,120
53,48,132960,120
60,40,133080,120
57,40,133200,120
60,34,133320,120
52,40,133440,120
60,31,133560,120
55,31,133680,120
60,31,133800,120
53,34,133920,120
60,27,134040,120
57,27,134160,120
60,27,134280,120
52,53,134400,120
60,40,134520,120
55,40,134640,120
60,40,134760,120
53,48,134880,120
60,40,135000,120
57,40,135120,120
60,34,135240,120
58,46,135360,120
67,35,135480,120
62,35,135600,120
67,35,135720,120
59,45,135840,120
67,36,135960,120
62,36,136080,120
67,36,136200,120
60,43,136320,120
67,34,136440,120
64,34,136560,120
67,34,136680,120
60,42,136800,120
67,32,136920,120
64,32,137040,120
67,32,137160,120
60,37,137280,120
62,29,137400,120
58,38,137520,120
60,32,137640,120
57,34,137760,120
58,27,137880,120
55,34,138000,120
57,28,138120,120
53,37,138240,120
60,31,138360,120
57,28,138480,120
60,28,138600,120
53,40,138720,120
60,31,138840,120
57,31,138960,120
60,31,139080,120
55,40,139200,120
60,30,139320,120
58,30,139440,120
60,30,139560,120
55,40,139680,120
60,33,139800,120
58,33,139920,120
60,33,140040,120
53,40,140160,120
60,32,140280,120
57,32,140400,120
60,32,140520,120
53,40,140640,120
60,33,140760,120
57,35,140880,120
60,37,141000,120
55,47,141120,120
60,35,141240,120
58,35,141360,60
60,35,141480,60
55,44,141600,120
60,33,141720,120
58,33,141840,60
60,33,141960,60
53,40,142080,120
60,32,142200,120
57,32,142320,120
60,32,142440,120
53,40,142560,120
60,31,142680,120
57,31,142800,120
60,31,142920,120
55,40,143040,120
60,30,143160,120
58,30,143280,120
60,30,143400,120
55,40,143520,120
60,33,143640,120
58,33,143760,120
60,33,143880,120
53,40,144000,60
60,32,144120,60
57,32,144240,60
60,32,144360,60
53,46,144480,60
60,35,144600,60
57,36,144720,60
60,38,144840,60
55,49,144960,120
60,39,145080,120
58,39,145200,120
60,39,145320,120
55,50,145440,120
60,40,145560,120
58,40,145680,120
60,40,145800,120
53,48,145920,120
60,32,146040,120
57,32,146160,120
60,32,146280,120
53,52,146400,120
60,39,146520,120
57,42,146640,120
60,45,146760,120
57,65,146880,120
65,55,147000,120
60,55,147120,120
65,55,147240,120
57,63,147360,120
65,51,147480,120
60,51,147600,120
65,51,147720,120
58,58,147840,120
65,45,147960,120
62,45,148080,120
65,45,148200,120
57,51,148320,120
66,44,148440,120
60,44,148560,120
66,44,148680,120
55,51,148800,120
65,43,148920,120
62,43,149040,120
65,43,149160,120
60,51,149280,120
67,43,149400,120
64,43,149520,120
67,43,149640,120
53,47,149760,120
65,41,149880,120
57,41,150000,120
65,41,150120,120
58,47,150240,120
67,41,150360,120
62,41,150480,120
67,41,150600,120
60,47,150720,120
69,40,150840,120
65,40,150960,120
69,40,151080,120
60,47,151200,120
67,42,151320,120
64,42,151440,120
67,42,151560,120
57,47,151680,120
65,41,151800,120
60,41,151920,120
65,41,152040,120
58,47,152160,120
65,41,152280,120
62,41,152400,120
65,41,152520,120
60,47,152640,120
69,38,152760,120
65,38,152880,120
69,38,153000,120
60,47,153120,120
64,42,153240,120
60,42,153360,120
64,42,153480,120
65,47,153600,238
53,39,153600,480
46,70,156000,120
34,59,156000,120
36,53,156480,120
48,63,156480,120
48,63,156960,120
36,53,156960,120
29,50,157440,480
41,50,157440,480
46,70,159840,120
34,59,159840,120
36,53,160320,120
48,63,160320,120
48,53,160800,240
58,63,160800,240
53,56,161280,915
41,49,162195,285
45,53,162210,250
48,56,162225,255
53,60,162240,240
