note,velocity,position,duration
72,50,1440,360
76,50,1800,120
79,57,1920,120
79,50,2400,120
79,50,2880,120
83,60,3300,60
84,71,3360,120
79,50,3840,120
79,43,4320,120
79,43,4800,120
76,50,5280,360
72,50,5640,120
71,57,5760,120
71,53,6240,120
72,57,6720,120
72,52,7200,120
74,57,7680,480
67,50,9120,360
74,47,9480,120
77,58,9600,120
77,50,10080,360
79,48,10440,120
76,58,10560,120
76,50,11040,360
77,50,11400,120
74,59,11520,120
74,50,12000,360
76,47,12360,120
72,57,12480,120
72,52,12960,120
74,57,13440,120
74,52,13920,120
71,58,14400,120
71,52,14880,120
72,63,15360,480
72,69,16800,360
76,71,17160,120
79,83,17280,120
79,75,17760,120
79,76,18240,120
83,78,18660,60
84,92,18720,480
79,85,19200,120
79,74,19680,120
79,74,20160,120
77,69,20640,120
76,60,20760,120
74,60,20880,120
72,60,21000,120
71,74,21120,120
71,68,21600,120
72,74,22080,120
72,67,22560,120
74,74,23040,480
67,65,24480,360
74,61,24840,120
77,75,24960,120
77,65,25440,360
79,62,25800,120
76,75,25920,120
76,65,26400,360
77,65,26760,120
74,76,26880,120
74,65,27360,360
76,61,27720,120
72,74,27840,120
72,67,28320,120
74,74,28800,120
74,67,29280,120
71,75,29760,120
71,67,30240,120
72,81,30720,1440
76,50,32160,360
79,46,32520,120
77,50,32640,120
77,50,33120,360
81,45,33480,120
71,50,33600,120
71,50,34080,360
74,45,34440,120
72,50,34560,120
72,50,35040,360
76,50,35400,120
79,61,35520,120
84,57,36000,360
76,50,36360,120
77,60,36480,120
81,58,36960,360
72,49,37320,120
71,59,37440,120
77,60,37920,360
71,54,38280,120
72,66,38400,120
72,52,38880,120
72,51,39360,120
76,57,39840,120
74,50,39960,120
72,50,40080,120
74,50,40200,120
76,63,40320,120
72,52,40800,120
72,51,41280,120
76,57,41760,120
74,50,41880,120
72,50,42000,120
74,50,42120,120
76,63,42240,120
72,52,42720,120
72,51,43200,120
76,57,43680,120
74,50,43800,120
72,50,43920,120
74,50,44040,120
76,63,44160,120
76,53,44640,120
76,53,45120,120
79,60,45600,120
78,53,45720,120
76,53,45840,120
78,53,45960,120
79,68,46080,120
79,57,46560,120
79,57,47040,120
83,64,47520,120
81,57,47640,120
79,57,47760,120
81,57,47880,120
83,73,48000,120
79,64,48480,120
79,64,48960,120
83,69,49440,120
81,61,49560,120
79,61,49680,120
81,61,49800,120
83,78,49920,120
79,65,50400,120
79,65,50880,120
79,75,51360,160
83,69,51520,160
86,71,51680,160
84,75,51840,480
84,69,52320,360
86,65,52680,120
83,75,52800,120
83,75,53280,360
84,70,53640,120
81,75,53760,120
81,69,54240,360
83,65,54600,120
79,75,54720,120
79,57,55200,160
83,52,55360,160
86,53,55520,160
84,57,55680,240
86,57,55920,80
84,49,56000,80
83,49,56080,80
84,52,56160,360
86,49,56520,120
83,57,56640,240
84,57,56880,80
83,50,56960,80
81,50,57040,80
83,57,57120,360
84,53,57480,120
81,57,57600,240
83,57,57840,80
81,51,57920,80
79,51,58000,80
81,52,58080,360
83,49,58440,120
79,57,58560,480
86,66,59040,360
83,55,59400,120
81,74,59520,240
83,68,59760,80
81,59,59840,80
79,59,59920,80
81,62,60000,360
83,59,60360,120
79,68,60480,240
81,68,60720,80
79,60,60800,80
78,60,60880,80
79,68,60960,360
81,63,61320,120
78,74,61440,480
74,68,62280,120
78,79,62400,360
74,68,62760,120
81,74,62880,360
78,68,63240,120
86,86,63360,480
62,66,64200,120
66,77,64320,160
62,69,64480,160
66,69,64640,160
69,80,64800,160
66,70,64960,160
69,70,65120,160
74,84,65280,480
50,95,66240,720
50,89,66960,240
50,97,67200,480
76,57,70560,120
74,50,70680,120
73,50,70800,120
74,50,70920,120
79,63,71040,120
79,53,71520,120
76,60,72480,120
74,53,72600,120
73,53,72720,120
74,53,72840,120
79,68,72960,120
79,57,73440,120
76,64,74400,120
74,57,74520,120
73,57,74640,120
74,57,74760,120
79,73,74880,480
81,75,75360,120
79,63,75480,120
78,63,75600,120
79,63,75720,120
81,75,75840,480
83,75,76320,120
81,66,76440,120
79,66,76560,120
81,66,76680,120
83,78,76800,480
84,77,77280,120
83,70,77400,120
81,70,77520,120
83,71,77640,120
84,81,77760,480
86,87,78240,120
84,75,78360,120
83,78,78480,120
84,76,78600,120
86,105,78720,1440
75,86,80160,480
87,103,80160,480
76,92,80640,480
88,108,80640,480
68,64,81120,480
80,75,81120,480
69,69,81600,480
81,82,81600,480
83,89,82080,480
71,75,82080,480
72,80,82560,960
84,95,82560,960
74,76,83520,480
86,90,83520,480
76,72,84000,480
88,86,84000,480
79,70,84480,900
74,59,84480,900
83,58,85380,60
78,66,85440,960
81,66,85440,720
79,56,86160,240
79,66,86400,480
83,57,87840,160
87,61,88000,160
88,61,88160,160
86,58,88320,120
86,49,88800,120
86,49,89280,120
79,57,89760,160
83,44,89920,160
84,44,90080,160
83,58,90240,120
83,49,90720,120
83,49,91200,120
76,57,91680,160
80,44,91840,160
81,44,92000,160
79,58,92160,120
79,49,92640,120
79,49,93120,120
83,61,93600,360
79,54,93960,120
76,62,94080,120
84,61,94560,360
81,53,94920,120
78,61,95040,120
81,60,95520,360
78,54,95880,120
79,61,96000,120
83,88,97440,160
87,61,97600,160
88,61,97760,160
81,72,97920,160
85,47,98080,160
86,47,98240,160
81,66,98400,160
85,47,98560,160
86,47,98720,160
81,66,98880,160
85,51,99040,160
86,52,99200,160
83,88,99360,160
87,61,99520,160
88,61,99680,160
81,69,99840,160
85,54,100000,160
86,55,100160,160
81,70,100320,160
85,47,100480,160
86,47,100640,160
81,67,100800,160
85,46,100960,160
86,49,101120,160
79,64,101280,160
83,50,101440,160
84,50,101600,160
78,69,101760,160
82,50,101920,160
83,50,102080,160
78,66,102240,160
82,46,102400,160
83,46,102560,160
78,64,102720,160
82,46,102880,160
83,46,103040,160
79,75,103200,160
83,54,103360,160
84,54,103520,160
78,69,103680,160
82,50,103840,160
83,50,104000,160
78,66,104160,160
82,47,104320,160
83,47,104480,160
78,64,104640,160
82,47,104800,160
83,48,104960,160
76,70,105120,160
80,54,105280,160
81,54,105440,160
74,59,105600,160
78,48,105760,160
79,46,105920,160
74,61,106080,160
78,47,106240,160
79,50,106400,160
74,62,106560,160
78,49,106720,160
79,49,106880,160
76,70,107040,160
80,54,107200,160
81,54,107360,160
74,59,107520,160
78,48,107680,160
79,46,107840,160
74,61,108000,160
78,47,108160,160
79,50,108320,160
74,62,108480,160
78,49,108640,160
79,49,108800,160
76,70,108960,160
80,54,109120,160
81,54,109280,160
74,72,109440,160
78,56,109600,160
79,56,109760,160
74,73,109920,160
80,62,110080,160
81,62,110240,160
74,80,110400,160
82,69,110560,160
83,65,110720,160
74,83,110880,160
83,74,111040,160
84,74,111200,160
74,86,111360,160
85,93,111520,160
86,92,111680,160
84,89,111840,160
83,88,112000,160
81,86,112160,160
79,83,112320,160
78,82,112480,160
76,80,112640,160
74,78,112800,160
72,76,112960,160
71,74,113120,160
69,70,113280,160
76,78,113440,160
74,76,113600,160
72,73,113760,160
71,71,113920,160
69,69,114080,160
67,83,114240,480
66,75,114720,120
67,67,114840,120
66,75,114960,240
85,78,115360,160
86,78,115520,160
84,84,115680,160
83,83,115840,160
81,81,116000,160
79,80,116160,160
78,78,116320,160
76,77,116480,160
74,75,116640,160
72,73,116800,160
71,72,116960,160
69,70,117120,160
76,78,117280,160
74,76,117440,160
72,73,117600,160
71,71,117760,160
69,69,117920,160
67,83,118080,480
66,75,118560,120
67,67,118680,120
66,75,118800,240
67,63,119040,480
74,57,120480,360
78,57,120840,120
79,64,120960,120
79,57,121440,120
79,57,121920,120
83,54,122160,80
81,51,122240,80
79,51,122320,80
81,61,122400,360
86,57,122760,120
83,63,122880,120
79,57,123360,120
79,57,123840,120
74,81,124320,360
78,81,124680,120
79,91,124800,120
79,81,125280,120
79,81,125760,120
83,77,126000,80
81,72,126080,80
79,72,126160,80
81,86,126240,360
83,81,126600,120
79,91,126720,480
74,81,127680,480
71,81,127680,480
71,81,128640,480
67,81,128640,480
72,50,130080,360
76,50,130440,120
79,57,130560,120
79,50,131040,120
79,50,131520,120
83,60,131940,60
84,71,132000,120
79,50,132480,120
79,43,132960,120
79,43,133440,120
76,50,133920,360
72,50,134280,120
71,57,134400,120
71,53,134880,120
72,57,135360,120
72,52,135840,120
74,57,136320,480
67,50,137760,360
74,47,138120,120
77,58,138240,120
77,50,138720,360
79,48,139080,120
76,58,139200,120
76,50,139680,360
77,50,140040,120
74,59,140160,120
74,50,140640,360
76,47,141000,120
72,57,141120,120
72,52,141600,120
74,57,142080,120
74,52,142560,120
71,58,143040,120
71,52,143520,120
72,63,144000,480
72,69,145440,360
76,71,145800,120
79,83,145920,120
79,75,146400,120
79,76,146880,120
83,78,147300,60
84,92,147360,480
79,85,147840,120
79,74,148320,120
79,74,148800,120
77,69,149280,120
76,60,149400,120
74,60,149520,120
72,60,149640,120
71,74,149760,120
71,68,150240,120
72,74,150720,120
72,67,151200,120
74,74,151680,480
67,65,153120,360
74,61,153480,120
77,75,153600,120
77,65,154080,360
79,62,154440,120
76,75,154560,120
76,65,155040,360
77,65,155400,120
74,76,155520,120
74,65,156000,360
76,61,156360,120
72,74,156480,120
72,67,156960,120
74,74,157440,120
74,67,157920,120
71,75,158400,120
71,67,158880,120
72,81,159360,1440
76,50,160800,360
79,46,161160,120
77,50,161280,120
77,50,161760,360
81,45,162120,120
71,50,162240,120
71,50,162720,360
74,45,163080,120
72,50,163200,120
72,50,163680,360
76,50,164040,120
79,61,164160,120
84,57,164640,360
76,50,165000,120
77,60,165120,120
81,58,165600,360
72,49,165960,120
71,59,166080,120
77,60,166560,360
71,54,166920,120
72,66,167040,120
72,52,167520,120
72,51,168000,120
76,57,168480,120
74,50,168600,120
72,50,168720,120
74,50,168840,120
76,63,168960,120
72,52,169440,120
72,51,169920,120
76,57,170400,120
74,50,170520,120
72,50,170640,120
74,50,170760,120
76,63,170880,120
72,52,171360,120
72,51,171840,120
76,57,172320,120
74,50,172440,120
72,50,172560,120
74,50,172680,120
76,63,172800,120
76,55,173280,120
76,55,173760,120
79,60,174240,120
78,53,174360,120
76,53,174480,120
78,53,174600,120
79,68,174720,120
79,57,175200,120
79,57,175680,120
83,64,176160,120
81,57,176280,120
79,57,176400,120
81,57,176520,120
83,73,176640,120
79,61,177120,120
79,61,177600,120
83,69,178080,120
81,61,178200,120
79,61,178320,120
81,61,178440,120
83,78,178560,120
79,65,179040,120
79,65,179520,120
79,75,180000,160
83,69,180160,160
86,71,180320,160
84,75,180480,480
84,69,180960,360
86,65,181320,120
83,75,181440,120
83,75,181920,360
84,70,182280,120
81,75,182400,120
81,69,182880,360
83,65,183240,120
79,75,183360,120
79,57,183840,160
83,52,184000,160
86,53,184160,160
84,57,184320,240
86,57,184560,80
84,49,184640,80
83,49,184720,80
84,52,184800,360
86,49,185160,120
83,57,185280,240
84,57,185520,80
83,50,185600,80
81,50,185680,80
83,57,185760,360
84,53,186120,120
81,57,186240,240
83,57,186480,80
81,51,186560,80
79,51,186640,80
81,52,186720,360
83,49,187080,120
79,57,187200,480
86,66,187680,360
83,55,188040,120
81,74,188160,240
83,68,188400,80
81,59,188480,80
79,59,188560,80
81,62,188640,360
83,59,189000,120
79,68,189120,240
81,68,189360,80
79,60,189440,80
78,60,189520,80
79,68,189600,360
81,63,189960,120
78,74,190080,480
74,68,190920,120
78,79,191040,360
74,68,191400,120
81,74,191520,360
78,68,191880,120
86,86,192000,480
62,66,192840,120
66,77,192960,160
62,69,193120,160
66,69,193280,160
69,80,193440,160
66,70,193600,160
69,70,193760,160
74,84,193920,480
50,95,194880,720
50,89,195600,240
50,97,195840,480
76,57,199200,120
74,50,199320,120
73,50,199440,120
74,50,199560,120
79,63,199680,120
79,53,200160,120
76,60,201120,120
74,53,201240,120
73,53,201360,120
74,53,201480,120
79,68,201600,120
79,57,202080,120
76,64,203040,120
74,57,203160,120
73,57,203280,120
74,57,203400,120
79,73,203520,480
81,75,204000,120
79,63,204120,120
78,63,204240,120
79,63,204360,120
81,75,204480,480
83,75,204960,120
81,66,205080,120
79,66,205200,120
81,66,205320,120
83,78,205440,480
84,77,205920,120
83,70,206040,120
81,70,206160,120
83,71,206280,120
84,81,206400,480
86,87,206880,120
84,75,207000,120
83,78,207120,120
84,76,207240,120
86,105,207360,1440
75,86,208800,480
87,103,208800,480
88,108,209280,480
76,92,209280,480
80,75,209760,480
68,64,209760,480
81,82,210240,480
69,69,210240,480
83,89,210720,480
71,75,210720,480
84,95,211200,960
72,80,211200,960
86,95,212160,480
74,80,212160,480
76,76,212640,480
88,91,212640,480
74,59,213120,900
79,70,213120,900
83,58,214020,60
81,66,214080,720
78,66,214080,960
79,56,214800,240
79,66,215040,480
83,57,216480,160
87,61,216640,160
88,61,216800,160
86,58,216960,120
86,49,217440,120
86,49,217920,120
79,57,218400,160
83,44,218560,160
84,44,218720,160
83,58,218880,120
83,49,219360,120
83,49,219840,120
76,57,220320,160
80,44,220480,160
81,44,220640,160
79,58,220800,120
79,49,221280,120
79,49,221760,120
83,61,222240,360
79,54,222600,120
76,62,222720,120
84,61,223200,360
81,53,223560,120
78,61,223680,120
81,60,224160,360
78,54,224520,120
79,61,224640,120
83,88,226080,160
87,61,226240,160
88,61,226400,160
81,72,226560,160
85,47,226720,160
86,47,226880,160
81,66,227040,160
85,47,227200,160
86,47,227360,160
81,66,227520,160
85,51,227680,160
86,52,227840,160
83,88,228000,160
87,61,228160,160
88,61,228320,160
81,69,228480,160
85,54,228640,160
86,55,228800,160
81,70,228960,160
85,47,229120,160
86,47,229280,160
81,67,229440,160
85,46,229600,160
86,49,229760,160
79,64,229920,160
83,50,230080,160
84,50,230240,160
78,70,230400,160
82,50,230560,160
83,50,230720,160
78,66,230880,160
82,46,231040,160
83,46,231200,160
78,64,231360,160
82,46,231520,160
83,46,231680,160
79,75,231840,160
83,54,232000,160
84,54,232160,160
78,72,232320,160
82,50,232480,160
83,50,232640,160
78,66,232800,160
82,47,232960,160
83,47,233120,160
78,64,233280,160
82,47,233440,160
83,48,233600,160
76,70,233760,160
80,54,233920,160
81,54,234080,160
74,59,234240,160
78,48,234400,160
79,46,234560,160
74,61,234720,160
78,47,234880,160
79,50,235040,160
74,62,235200,160
78,49,235360,160
79,49,235520,160
76,70,235680,160
80,54,235840,160
81,54,236000,160
74,59,236160,160
78,48,236320,160
79,46,236480,160
74,61,236640,160
78,47,236800,160
79,50,236960,160
74,62,237120,160
78,49,237280,160
79,49,237440,160
76,70,237600,160
80,54,237760,160
81,54,237920,160
74,72,238080,160
78,56,238240,160
79,56,238400,160
74,73,238560,160
80,62,238720,160
81,62,238880,160
74,80,239040,160
82,69,239200,160
83,65,239360,160
74,83,239520,160
83,74,239680,160
84,74,239840,160
74,86,240000,160
85,93,240160,160
86,92,240320,160
84,89,240480,160
83,88,240640,160
81,86,240800,160
79,83,240960,160
78,82,241120,160
76,80,241280,160
74,78,241440,160
72,76,241600,160
71,74,241760,160
69,70,241920,160
76,78,242080,160
74,76,242240,160
72,73,242400,160
71,71,242560,160
69,69,242720,160
67,83,242880,480
66,75,243360,120
67,67,243480,120
66,75,243600,240
85,78,244000,160
86,78,244160,160
84,84,244320,160
83,83,244480,160
81,81,244640,160
79,80,244800,160
78,78,244960,160
76,77,245120,160
74,75,245280,160
72,73,245440,160
71,72,245600,160
69,70,245760,160
76,78,245920,160
74,76,246080,160
72,73,246240,160
71,71,246400,160
69,69,246560,160
67,83,246720,480
66,75,247200,120
67,67,247320,120
66,75,247440,240
67,63,247680,480
74,57,249120,360
78,57,249480,120
79,64,249600,120
79,57,250080,120
79,57,250560,120
83,54,250800,80
81,51,250880,80
79,51,250960,80
81,61,251040,360
86,57,251400,120
83,63,251520,120
79,57,252000,120
79,57,252480,120
74,81,252960,360
78,81,253320,120
79,91,253440,120
79,81,253920,120
79,81,254400,120
83,77,254640,80
81,72,254720,80
79,72,254800,80
81,86,254880,360
83,81,255240,120
79,91,255360,480
74,81,256320,480
71,81,256320,480
71,81,257280,480
67,81,257280,480
79,50,258720,360
81,47,259080,120
77,58,259200,120
77,50,259680,360
79,48,260040,120
76,58,260160,120
76,50,260640,360
77,50,261000,120
74,59,261120,120
74,50,261600,360
76,47,261960,120
72,57,262080,120
76,63,262560,360
72,53,262560,480
77,57,262920,120
71,56,263040,120
74,67,263040,120
71,53,263520,480
74,63,263520,360
76,60,263880,120
69,56,264000,120
72,67,264000,120
72,63,264480,360
69,53,264480,480
74,60,264840,120
71,67,264960,1440
68,56,264960,1440
77,71,266400,120
79,73,266520,120
81,75,266640,120
82,78,266760,120
84,83,266880,120
84,75,267360,120
84,76,267840,120
88,78,268260,60
89,92,268320,480
84,85,268800,120
84,76,269280,120
84,76,269760,120
82,66,270240,120
81,68,270360,120
79,71,270480,120
77,73,270600,120
76,81,270720,120
76,73,271200,120
77,81,271680,120
77,73,272160,120
79,79,272640,480
72,75,274080,360
79,67,274440,120
82,78,274560,120
82,71,275040,360
84,66,275400,120
81,78,275520,120
81,72,276000,360
82,65,276360,120
79,78,276480,120
79,65,276960,360
81,61,277320,120
77,74,277440,120
77,67,277920,120
79,74,278400,120
79,67,278880,120
76,75,279360,120
76,67,279840,120
77,66,280320,160
72,47,280480,160
69,47,280640,160
77,67,280800,160
72,48,280960,160
69,48,281120,160
77,65,281280,160
72,47,281440,160
69,47,281600,160
76,69,281760,160
72,56,281920,160
70,56,282080,160
77,66,282240,160
72,47,282400,160
69,47,282560,160
77,67,282720,160
72,48,282880,160
69,48,283040,160
77,65,283200,160
72,47,283360,160
69,47,283520,160
76,69,283680,160
72,56,283840,160
70,56,284000,160
77,66,284160,160
72,47,284320,160
69,47,284480,160
77,67,284640,160
72,48,284800,160
69,48,284960,160
77,65,285120,160
72,47,285280,160
69,47,285440,160
78,69,285600,160
74,56,285760,160
72,56,285920,160
79,66,286080,160
74,51,286240,160
71,51,286400,160
79,67,286560,160
74,51,286720,160
71,51,286880,160
79,65,287040,160
74,50,287200,160
71,50,287360,160
80,69,287520,160
76,56,287680,160
74,56,287840,160
81,67,288000,160
76,53,288160,160
72,53,288320,160
81,68,288480,160
76,54,288640,160
72,54,288800,160
81,68,288960,160
76,52,289120,160
72,52,289280,160
83,69,289440,160
80,56,289600,160
76,56,289760,160
84,68,289920,160
81,52,290080,160
76,54,290240,160
86,73,290400,160
83,54,290560,160
76,54,290720,160
88,74,290880,160
84,54,291040,160
76,54,291200,160
84,70,291360,160
81,53,291520,160
76,54,291680,160
83,62,291840,160
80,47,292000,160
76,47,292160,160
84,61,292320,160
81,46,292480,160
76,46,292640,160
83,61,292800,160
80,47,292960,160
76,48,293120,160
88,59,293280,160
83,45,293440,160
80,45,293600,160
88,57,293760,160
84,44,293920,160
81,45,294080,160
88,57,294240,160
84,41,294400,160
81,41,294560,160
86,56,294720,160
83,39,294880,160
81,39,295040,160
86,58,295200,160
83,39,295360,160
81,40,295520,160
86,62,295680,160
83,44,295840,160
80,46,296000,160
86,55,296160,160
83,42,296320,160
80,43,296480,160
85,58,296640,160
81,44,296800,160
79,45,296960,160
85,55,297120,160
81,46,297280,160
79,46,297440,160
84,66,297600,160
81,48,297760,160
78,51,297920,160
84,60,298080,160
81,47,298240,160
78,47,298400,160
83,67,298560,160
79,46,298720,160
77,46,298880,160
83,61,299040,160
79,47,299200,160
77,48,299360,160
82,67,299520,160
79,53,299680,160
76,55,299840,160
82,66,300000,160
79,51,300160,160
76,51,300320,160
81,67,300480,160
77,50,300640,160
72,50,300800,160
81,66,300960,160
77,51,301120,160
72,52,301280,160
82,73,301440,160
79,57,301600,160
72,60,301760,160
82,72,301920,160
79,55,302080,160
72,55,302240,160
81,73,302400,160
77,54,302560,160
72,54,302720,160
81,71,302880,160
77,55,303040,160
72,57,303200,160
81,82,303360,160
77,65,303520,160
72,67,303680,160
81,80,303840,160
77,61,304000,160
72,61,304160,160
81,80,304320,160
76,58,304480,160
72,58,304640,160
81,76,304800,160
76,58,304960,160
72,60,305120,160
81,82,305280,160
78,65,305440,160
72,67,305600,160
81,80,305760,160
78,61,305920,160
72,61,306080,160
81,80,306240,160
78,58,306400,160
72,58,306560,160
81,76,306720,160
78,58,306880,160
72,60,307040,160
81,82,307200,160
78,65,307360,160
72,67,307520,160
81,80,307680,160
78,61,307840,160
72,61,308000,160
81,80,308160,160
78,58,308320,160
72,58,308480,160
81,76,308640,160
78,58,308800,160
72,60,308960,160
81,89,309120,160
76,66,309280,160
72,65,309440,160
81,84,309600,160
76,66,309760,160
72,66,309920,160
80,86,310080,160
74,63,310235,160
71,63,310400,160
80,82,310560,160
74,60,310720,160
71,64,310880,160
77,75,311040,160
72,55,311200,160
69,54,311360,160
77,74,311520,160
72,53,311680,160
69,54,311840,160
76,72,312000,160
71,52,312160,160
68,52,312320,160
76,68,312480,160
71,52,312640,160
68,55,312800,160
75,71,312960,160
69,49,313120,160
66,49,313280,160
75,67,313440,160
69,47,313600,160
66,53,313760,160
74,69,313920,160
71,50,314080,160
68,50,314240,160
74,63,314400,160
71,47,314560,160
68,46,314720,160
72,58,314880,160
69,44,315040,160
64,47,315200,160
72,53,315360,160
69,43,315515,160
64,45,315680,160
69,58,315840,160
64,46,316000,160
60,46,316160,160
69,53,316320,160
64,44,316480,160
60,44,316640,160
70,58,316800,160
65,47,316960,160
62,47,317120,160
70,53,317280,160
65,45,317440,160
62,45,317600,160
68,54,317760,160
62,43,317920,160
59,43,318080,160
68,53,318240,160
62,38,318400,160
59,38,318560,160
67,43,318720,160
64,36,318880,160
61,36,319040,160
67,43,319200,160
64,37,319360,160
61,37,319520,160
67,48,319680,160
64,35,319840,160
61,36,320000,160
67,48,320160,160
64,36,320320,160
61,37,320480,160
61,53,320640,960
64,53,320640,960
67,53,320640,960
65,48,321600,480
64,45,322080,480
65,41,322560,160
62,32,322720,160
57,33,322880,160
65,41,323040,160
62,35,323200,160
57,35,323360,160
65,41,323520,160
62,35,323680,160
57,35,323840,160
65,41,324000,160
62,34,324160,160
57,34,324320,160
65,41,324480,160
62,32,324640,160
55,33,324800,160
65,41,324960,160
62,35,325120,160
55,35,325280,160
65,41,325440,160
62,35,325600,160
55,35,325760,160
65,41,325920,160
62,34,326080,160
55,34,326240,160
62,34,326400,1200
65,41,326400,1200
55,34,326400,1200
60,50,327840,360
64,50,328200,120
67,57,328320,120
67,50,328800,120
67,50,329280,120
71,60,329700,60
72,71,329760,120
67,50,330240,120
67,43,330720,120
67,43,331200,120
64,50,331680,360
60,50,332040,120
59,57,332160,120
59,53,332640,120
60,57,333120,120
60,52,333600,120
62,57,334080,480
55,50,335520,360
62,47,335880,120
65,58,336000,120
65,50,336480,360
67,48,336840,120
64,58,336960,120
64,50,337440,360
65,50,337800,120
62,59,337920,120
62,50,338400,360
64,47,338760,120
60,57,338880,120
60,52,339360,120
62,57,339840,120
62,52,340320,120
59,58,340800,120
59,52,341280,120
72,71,343200,120
74,73,343320,120
75,75,343440,120
77,78,343560,120
79,83,343680,120
79,75,344160,120
79,76,344640,120
83,78,345060,60
84,92,345120,480
79,85,345600,120
79,74,346080,120
79,74,346560,120
72,71,347040,120
74,73,347160,120
75,75,347280,120
77,78,347400,120
79,83,347520,120
79,75,348000,120
79,76,348480,120
83,78,348900,60
84,92,348960,480
79,85,349440,120
79,74,349920,120
79,74,350400,120
73,71,350880,120
74,73,351000,120
76,75,351120,120
77,78,351240,120
79,85,351360,120
79,76,351840,120
79,76,352320,120
79,80,352800,160
85,73,352960,160
88,73,353120,160
77,85,353280,120
77,74,353760,120
77,74,354240,120
77,80,354720,160
81,73,354880,160
86,73,355040,160
77,75,355200,480
77,69,355680,360
79,65,356040,120
76,75,356160,120
76,75,356640,360
77,70,357000,120
74,75,357120,120
74,69,357600,360
76,65,357960,120
72,75,358080,120
72,57,358560,160
76,52,358720,160
79,53,358880,160
77,57,359040,240
79,57,359280,80
77,49,359360,80
76,49,359440,80
77,52,359520,360
79,49,359880,120
76,57,360000,240
77,57,360240,80
76,50,360320,80
74,50,360400,80
76,57,360480,360
77,53,360840,120
74,57,360960,240
76,61,361200,80
74,53,361280,80
72,53,361360,80
74,53,361440,360
76,55,361800,120
72,65,361920,240
74,61,362160,80
72,55,362240,80
71,56,362320,80
72,57,362400,360
74,61,362760,120
71,74,362880,480
67,68,363720,120
71,79,363840,360
67,68,364200,120
74,74,364320,360
71,68,364680,120
79,86,364800,480
55,66,365640,120
59,77,365760,160
55,69,365920,160
59,69,366080,160
62,80,366240,160
59,70,366400,160
62,70,366560,160
67,84,366720,480
43,95,367680,720
43,89,368400,240
43,97,368640,480
69,57,372000,120
67,50,372120,120
66,50,372240,120
67,50,372360,120
72,63,372480,120
72,53,372960,120
69,60,373920,120
67,53,374040,120
66,53,374160,120
67,53,374280,120
72,68,374400,120
72,57,374880,120
69,64,375840,120
67,57,375960,120
66,57,376080,120
67,57,376200,120
72,73,376320,480
74,78,376800,120
72,65,376920,120
71,66,377040,120
72,66,377160,120
74,80,377280,480
76,82,377760,120
74,68,377880,120
72,68,378000,120
74,69,378120,120
76,85,378240,480
77,86,378720,120
76,75,378840,120
74,75,378960,120
76,76,379080,120
77,85,379200,480
79,87,379680,120
77,75,379800,120
76,78,379920,120
77,76,380040,120
79,98,380160,1440
68,77,381600,480
80,92,381600,480
69,82,382080,480
81,97,382080,480
71,71,382560,480
83,84,382560,480
84,88,383040,480
72,75,383040,480
85,90,383520,480
73,76,383520,480
74,81,384000,480
86,96,384000,480
76,81,384480,480
88,96,384480,480
77,80,384960,960
89,95,384960,480
86,93,385440,480
84,70,385920,900
79,59,385920,900
88,58,386820,60
86,66,386880,720
83,66,386880,960
84,56,387600,240
84,66,387840,480
76,57,389280,160
80,61,389440,160
81,61,389600,160
79,58,389760,120
79,49,390240,120
79,49,390720,120
72,57,391200,160
76,44,391360,160
77,44,391520,160
76,58,391680,120
76,49,392160,120
76,49,392640,120
69,57,393120,160
73,44,393280,160
74,44,393440,160
72,58,393600,120
72,49,394080,120
72,49,394560,120
76,61,395040,360
72,54,395400,120
69,62,395520,120
77,61,396000,360
74,53,396360,120
71,61,396480,120
74,60,396960,360
71,54,397320,120
72,61,397440,120
76,88,398880,160
80,61,399040,160
81,61,399200,160
74,72,399360,160
78,47,399520,160
79,47,399680,160
74,66,399840,160
78,47,400000,160
79,47,400160,160
74,66,400320,160
78,51,400480,160
79,52,400640,160
76,88,400800,160
80,61,400960,160
81,61,401120,160
74,69,401280,160
78,54,401440,160
79,55,401600,160
74,70,401760,160
78,47,401920,160
79,47,402080,160
74,67,402240,160
78,46,402400,160
79,49,402560,160
72,64,402720,160
76,50,402880,160
77,50,403040,160
71,65,403200,160
75,50,403360,160
76,50,403520,160
71,66,403680,160
75,46,403840,160
76,46,404000,160
71,64,404160,160
75,46,404320,160
76,46,404480,160
72,75,404640,160
76,54,404800,160
77,54,404960,160
71,69,405120,160
75,50,405280,160
76,50,405440,160
71,66,405600,160
75,47,405760,160
76,47,405920,160
71,64,406080,160
75,47,406240,160
76,48,406400,160
69,70,406560,160
73,54,406720,160
74,54,406880,160
67,59,407040,160
71,48,407200,160
72,46,407360,160
67,61,407520,160
71,47,407680,160
72,50,407840,160
67,62,408000,160
71,49,408160,160
72,49,408320,160
69,70,408480,160
73,54,408640,160
74,54,408800,160
67,59,408960,160
71,48,409120,160
72,46,409280,160
67,61,409440,160
71,47,409600,160
72,50,409760,160
67,62,409920,160
71,49,410080,160
72,49,410240,160
69,70,410400,160
73,54,410560,160
74,54,410720,160
67,72,410880,160
71,60,411040,160
72,61,411200,160
67,73,411360,160
73,65,411520,160
74,65,411680,160
67,80,411840,160
75,72,412000,160
76,72,412160,160
67,87,412320,160
76,77,412480,160
77,78,412640,160
67,86,412800,160
78,93,412960,160
79,92,413120,160
77,89,413280,160
76,88,413440,160
74,86,413600,160
72,83,413760,160
71,82,413920,160
69,80,414080,160
67,78,414240,160
65,76,414400,160
64,74,414560,160
62,70,414720,160
69,78,414880,160
67,76,415040,160
65,73,415200,160
64,71,415360,160
62,69,415520,160
60,83,415680,480
59,75,416160,120
60,67,416280,120
59,75,416400,240
78,78,416800,160
79,89,416960,160
77,84,417120,160
76,83,417280,160
74,81,417440,160
72,80,417600,160
71,78,417760,160
69,77,417920,160
67,79,418080,160
65,81,418240,160
64,83,418400,160
62,86,418560,960
81,82,419520,960
72,69,419520,960
75,69,419520,960
78,69,419520,960
72,57,421920,120
74,60,422040,120
76,62,422160,120
77,65,422280,120
79,75,422400,120
79,64,422880,120
79,64,423360,120
83,78,423780,60
84,92,423840,480
79,85,424320,120
79,67,424800,120
79,67,425280,120
77,67,425760,120
76,54,425880,120
74,54,426000,120
72,58,426120,120
71,70,426240,120
71,59,426720,120
72,66,427200,120
72,57,427680,120
74,70,428160,480
67,70,429600,360
74,54,429960,120
77,67,430080,120
77,58,430560,360
79,55,430920,120
76,67,431040,120
76,58,431520,360
77,58,431880,120
74,68,432000,120
74,58,432480,360
76,54,432840,120
72,66,432960,120
72,60,433440,120
74,66,433920,120
74,60,434400,120
71,67,434880,120
71,60,435360,120
72,87,435840,480
79,79,437280,360
83,78,437640,120
84,91,437760,120
84,80,438240,120
84,79,438720,120
88,87,439200,120
86,82,439320,120
84,82,439440,120
86,82,439560,120
88,91,439680,120
84,76,440160,120
84,76,440640,120
79,81,441120,360
83,81,441480,120
84,91,441600,120
84,81,442080,120
84,81,442560,120
88,77,442800,80
86,72,442880,80
84,72,442960,80
86,86,443040,360
88,81,443400,120
84,87,443520,480
79,63,444960,360
83,62,445320,120
84,72,445440,120
84,64,445920,120
84,63,446400,120
88,69,446880,120
86,65,447000,120
84,65,447120,120
86,65,447240,120
88,72,447360,120
84,60,447840,120
84,60,448320,120
79,64,448800,360
83,64,449160,120
84,72,449280,120
84,64,449760,120
84,64,450240,120
88,61,450480,80
86,57,450560,80
84,57,450640,80
86,68,450720,360
88,64,451080,120
84,70,451200,480
79,81,452160,480
76,68,452160,480
76,79,453120,480
72,67,453120,480
52,63,454080,480
55,75,454080,480
52,70,455040,480
48,59,455040,480
60,44,1920,120
64,52,1920,120
60,44,3840,120
64,52,3840,120
55,44,5760,120
65,52,5760,120
62,44,5760,120
65,45,6240,120
62,38,6240,120
55,38,6240,120
60,44,6720,120
64,52,6720,120
55,44,6720,120
60,39,7200,120
55,39,7200,120
64,47,7200,120
55,44,7680,480
59,44,7680,480
62,52,7680,480
67,48,9600,120
59,40,9600,120
67,48,10560,120
60,40,10560,120
65,40,11520,120
67,48,11520,120
67,45,12480,120
64,38,12480,120
65,56,13440,120
53,47,13440,120
53,44,13920,120
65,52,13920,120
55,49,14400,120
62,58,14400,120
55,44,14880,120
62,52,14880,120
60,48,15360,160
64,36,15520,160
67,36,15680,160
60,49,15840,160
64,38,16000,160
67,38,16160,160
60,53,16320,160
64,43,16480,160
67,43,16640,160
60,54,16800,160
64,44,16960,160
67,44,17120,160
60,56,17280,160
64,43,17440,160
67,43,17600,160
60,56,17760,160
64,45,17920,160
67,46,18080,160
60,55,18240,160
64,44,18400,160
67,45,18560,160
60,72,18720,160
64,57,18880,160
67,57,19040,160
60,56,19200,160
64,41,19360,160
67,41,19520,160
60,56,19680,160
64,44,19840,160
67,44,20000,160
60,56,20160,160
64,44,20320,160
67,45,20480,160
60,56,20640,160
64,44,20800,160
67,44,20960,160
62,56,21120,160
65,42,21280,160
67,45,21440,160
62,56,21600,160
65,45,21760,160
67,45,21920,160
60,56,22080,160
64,46,22240,160
67,50,22400,160
60,56,22560,160
64,46,22720,160
67,46,22880,160
59,63,23040,480
55,56,24960,160
59,43,25120,160
62,45,25280,160
55,56,25440,160
59,45,25600,160
62,45,25760,160
55,54,25920,160
60,43,26080,160
64,44,26240,160
55,56,26400,160
60,46,26560,160
64,46,26720,160
55,56,26880,160
62,47,27040,160
65,47,27200,160
55,56,27360,160
62,44,27520,160
65,44,27680,160
57,56,27840,160
60,46,28000,160
64,46,28160,160
57,56,28320,160
60,45,28480,160
64,45,28640,160
53,56,28800,160
57,45,28960,160
62,47,29120,160
53,56,29280,160
57,46,29440,160
62,46,29600,160
55,56,29760,160
62,43,29920,160
65,43,30080,160
55,56,30240,160
62,44,30400,160
65,45,30560,160
64,45,30720,960
60,60,30720,3840
70,43,31680,960
69,45,32640,960
65,42,33600,960
60,39,34560,3840
64,45,34560,960
70,43,35520,960
69,45,36480,960
65,42,37440,960
60,45,38400,160
64,36,38560,160
67,36,38720,160
60,45,38880,160
64,38,39040,160
67,38,39200,160
60,45,39360,160
64,36,39520,160
67,36,39680,160
59,45,39840,160
62,36,40000,160
67,37,40160,160
60,45,40320,160
64,36,40480,160
67,36,40640,160
60,45,40800,160
64,38,40960,160
67,38,41120,160
60,45,41280,160
64,36,41440,160
67,36,41600,160
59,45,41760,160
62,36,41920,160
67,37,42080,160
60,45,42240,160
64,36,42400,160
67,36,42560,160
60,45,42720,160
64,38,42880,160
67,38,43040,160
60,45,43200,160
64,36,43360,160
67,36,43520,160
59,45,43680,160
62,36,43840,160
67,37,44000,160
60,45,44160,160
64,36,44320,160
67,36,44480,160
60,45,44640,160
64,38,44800,160
67,39,44960,160
60,46,45120,160
64,37,45280,160
67,37,45440,160
60,47,45600,160
62,38,45760,160
66,39,45920,160
59,48,46080,160
62,38,46240,160
67,39,46400,160
59,49,46560,160
62,41,46720,160
67,42,46880,160
59,50,47040,160
62,40,47200,160
67,40,47360,160
54,51,47520,160
57,41,47680,160
62,42,47840,160
55,52,48000,160
59,41,48160,160
62,42,48320,160
55,53,48480,160
59,44,48640,160
62,45,48800,160
55,54,48960,160
59,43,49120,160
62,43,49280,160
54,54,49440,160
57,43,49600,160
62,45,49760,160
55,55,49920,160
59,44,50080,160
62,45,50240,160
55,56,50400,160
59,47,50560,160
62,48,50720,160
55,57,50880,160
59,46,51040,160
62,46,51200,160
55,57,51360,160
59,50,51520,160
62,50,51680,160
54,64,51840,160
57,53,52000,160
62,45,52160,160
54,56,52320,160
57,45,52480,160
62,45,52640,160
55,56,52800,160
59,43,52960,160
62,44,53120,160
55,56,53280,160
59,46,53440,160
62,46,53600,160
60,56,53760,160
62,43,53920,160
66,45,54080,160
60,56,54240,160
62,45,54400,160
66,45,54560,160
59,56,54720,160
62,43,54880,160
67,44,55040,160
59,39,55200,160
62,35,55360,160
67,35,55520,160
54,39,55680,160
57,30,55840,160
62,31,56000,160
54,39,56160,160
57,31,56320,160
62,31,56480,160
55,39,56640,160
59,30,56800,160
62,30,56960,160
55,39,57120,160
59,32,57280,160
62,32,57440,160
60,39,57600,160
62,30,57760,160
66,31,57920,160
60,39,58080,160
62,31,58240,160
66,31,58400,160
59,39,58560,160
62,30,58720,160
67,30,58880,160
59,54,59040,160
62,43,59200,160
67,44,59360,160
60,54,59520,160
64,40,59680,160
69,41,59840,160
60,55,60000,160
64,42,60160,160
69,42,60320,160
61,53,60480,160
64,41,60640,160
69,41,60800,160
61,51,60960,160
64,42,61120,160
69,43,61280,160
62,58,61440,480
62,62,62280,120
66,68,62400,360
62,62,62760,120
69,68,62880,360
66,64,63240,120
74,80,63360,480
50,62,64200,120
54,71,64320,160
50,62,64480,160
54,62,64640,160
57,68,64800,160
54,64,64960,160
57,64,65120,160
62,74,65280,480
38,84,66240,720
38,78,66960,240
38,84,67200,480
59,40,69120,160
62,32,69283,160
67,32,69440,160
59,40,69600,160
62,34,69763,160
67,34,69920,160
59,40,70080,160
62,32,70243,160
67,32,70400,160
60,40,70560,160
62,32,70720,160
66,33,70880,160
59,40,71040,160
62,32,71195,160
67,32,71360,160
59,41,71520,160
62,35,71675,160
67,36,71840,160
59,43,72000,160
62,35,72160,160
67,35,72320,160
60,45,72480,160
62,37,72640,160
66,38,72800,160
59,47,72960,160
62,38,73120,160
67,39,73280,160
59,49,73440,160
62,41,73600,160
67,42,73760,160
59,50,73920,160
62,40,74080,160
67,40,74240,160
60,51,74400,160
62,41,74560,160
66,42,74720,160
59,52,74880,160
62,41,75040,160
67,42,75200,160
59,54,75360,160
62,45,75520,160
67,46,75680,160
54,56,75840,160
57,45,76000,160
62,45,76160,160
54,57,76320,160
57,46,76480,160
62,48,76640,160
55,59,76800,160
59,48,76960,160
62,49,77120,160
55,62,77280,160
59,52,77440,160
62,54,77600,160
52,64,77760,160
55,52,77920,160
60,52,78080,160
52,66,78240,160
55,58,78400,160
60,59,78560,160
47,67,78720,160
50,60,78879,160
55,61,79038,160
47,68,79197,160
50,62,79356,160
55,62,79518,160
47,71,79680,480
48,72,80640,480
36,72,80640,480
71,42,84480,960
62,42,84480,1920
72,43,85440,960
67,40,86400,480
71,40,86400,480
79,36,87840,480
78,38,88320,120
81,38,88320,120
76,36,89760,480
78,38,90240,120
74,38,90240,120
72,36,91680,480
71,38,92160,120
74,38,92160,120
71,36,93600,480
67,36,93600,480
72,41,94080,120
60,41,94080,120
69,38,95040,120
62,38,95040,120
71,41,96000,120
67,41,96000,120
79,70,97440,480
78,44,97920,120
78,35,98400,120
78,35,98880,120
79,70,99360,480
78,44,99840,120
78,32,100320,120
78,32,100800,120
76,63,101280,480
74,39,101760,120
74,30,102240,120
74,30,102720,120
76,58,103200,480
74,39,103680,120
74,28,104160,120
74,28,104640,120
72,56,105120,480
71,39,105600,120
71,28,106080,120
71,29,106560,120
72,56,107040,480
71,39,107520,120
71,28,108000,120
71,29,108480,120
72,56,108960,480
71,39,109440,120
66,36,109920,120
67,41,110400,120
69,47,110880,120
71,60,111360,480
48,65,113280,960
60,55,113760,480
50,54,114240,960
59,54,114240,480
57,46,114720,480
55,56,115200,960
50,56,115200,960
47,56,115200,960
48,65,117120,960
60,55,117600,480
50,54,118080,960
59,54,118080,480
57,46,118560,480
55,40,119040,160
59,32,119200,160
62,32,119360,160
55,40,119520,160
59,34,119680,160
62,34,119840,160
55,40,120000,160
59,32,120160,160
62,32,120320,160
50,40,120480,160
54,32,120640,160
62,33,120800,160
55,39,120960,160
59,29,121120,160
62,29,121280,160
55,39,121440,160
59,30,121600,160
62,30,121760,160
55,39,121920,160
59,30,122080,160
62,30,122240,160
50,39,122400,160
54,33,122560,160
62,33,122720,160
55,40,122880,160
59,32,123040,160
62,32,123200,160
55,40,123360,160
59,34,123520,160
62,34,123680,160
55,40,123840,160
59,32,124000,160
62,32,124160,160
50,63,124320,160
54,50,124480,160
62,52,124640,160
55,62,124800,160
59,46,124960,160
62,46,125120,160
55,62,125280,160
59,48,125440,160
62,48,125600,160
55,62,125760,160
59,48,125920,160
62,48,126080,160
50,62,126240,160
54,52,126400,160
62,52,126560,160
55,62,126720,160
59,46,126880,160
62,46,127040,160
55,62,127200,160
59,48,127360,160
62,48,127520,160
55,62,127680,160
59,48,127840,160
62,48,128000,160
55,62,128160,160
59,52,128320,160
62,52,128480,160
55,62,128640,480
64,52,130560,120
60,44,130560,120
64,52,132480,120
60,44,132480,120
65,52,134400,120
55,44,134400,120
62,44,134400,120
55,38,134880,120
62,38,134880,120
65,45,134880,120
60,44,135360,120
55,44,135360,120
64,52,135360,120
60,39,135840,120
64,47,135840,120
55,39,135840,120
59,44,136320,480
55,44,136320,480
62,52,136320,480
59,40,138240,120
67,48,138240,120
67,48,139200,120
60,40,139200,120
65,40,140160,120
67,48,140160,120
67,45,141120,120
64,38,141120,120
53,47,142080,120
65,56,142080,120
65,52,142560,120
53,44,142560,120
55,49,143040,120
62,58,143040,120
62,52,143520,120
55,44,143520,120
60,49,144000,160
64,36,144160,160
67,36,144320,160
60,50,144480,160
64,38,144640,160
67,38,144800,160
60,52,144960,160
64,43,145120,160
67,43,145280,160
60,53,145440,160
64,44,145600,160
67,44,145760,160
60,56,145920,160
64,43,146080,160
67,43,146240,160
60,56,146400,160
64,45,146560,160
67,46,146720,160
60,55,146880,160
64,44,147040,160
67,45,147200,160
60,69,147360,160
64,60,147520,160
67,60,147680,160
60,56,147840,160
64,41,148000,160
67,41,148160,160
60,56,148320,160
64,44,148480,160
67,44,148640,160
60,56,148800,160
64,44,148960,160
67,45,149120,160
60,56,149280,160
64,44,149440,160
67,44,149600,160
62,56,149760,160
65,42,149920,160
67,45,150080,160
62,56,150240,160
65,45,150400,160
67,45,150560,160
60,56,150720,160
64,46,150880,160
67,50,151040,160
60,56,151200,160
64,46,151360,160
67,46,151520,160
59,63,151680,480
55,56,153600,160
59,43,153760,160
62,45,153920,160
55,56,154080,160
59,45,154240,160
62,45,154400,160
55,56,154560,160
60,43,154720,160
64,44,154880,160
55,56,155040,160
60,46,155200,160
64,46,155360,160
55,56,155520,160
62,47,155680,160
65,47,155840,160
55,56,156000,160
62,44,156160,160
65,44,156320,160
57,56,156480,160
60,46,156640,160
64,46,156800,160
57,56,156960,160
60,45,157120,160
64,45,157280,160
53,56,157440,160
57,45,157600,160
62,47,157760,160
53,56,157920,160
57,46,158080,160
62,46,158240,160
55,56,158400,160
62,43,158560,160
65,43,158720,160
55,56,158880,160
62,44,159040,160
65,45,159200,160
60,60,159360,3840
64,45,159360,960
70,43,160320,960
69,45,161280,960
65,42,162240,960
60,39,163200,3840
64,45,163200,960
70,43,164160,960
69,45,165120,960
65,42,166080,960
60,45,167040,160
64,35,167200,160
67,35,167360,160
60,45,167520,160
64,34,167680,160
67,34,167840,160
60,45,168000,160
64,36,168160,160
67,36,168320,160
59,45,168480,160
62,36,168640,160
67,37,168800,160
60,45,168960,160
64,36,169120,160
67,36,169280,160
60,45,169440,160
64,38,169600,160
67,38,169760,160
60,45,169920,160
64,36,170080,160
67,36,170240,160
59,45,170400,160
62,36,170560,160
67,37,170720,160
60,45,170880,160
64,36,171040,160
67,36,171200,160
60,45,171360,160
64,38,171520,160
67,38,171680,160
60,45,171840,160
64,36,172000,160
67,36,172160,160
59,45,172320,160
62,36,172480,160
67,37,172640,160
60,45,172800,160
64,36,172960,160
67,36,173120,160
60,45,173280,160
64,38,173440,160
67,39,173600,160
60,46,173760,160
64,37,173920,160
67,37,174080,160
60,47,174240,160
62,38,174400,160
66,39,174560,160
59,48,174720,160
62,38,174880,160
67,39,175040,160
59,49,175200,160
62,41,175360,160
67,42,175520,160
59,50,175680,160
62,40,175840,160
67,40,176000,160
54,51,176160,160
57,41,176320,160
62,42,176480,160
55,52,176640,160
59,41,176800,160
62,42,176960,160
55,53,177120,160
59,44,177280,160
62,45,177440,160
55,54,177600,160
59,43,177760,160
62,43,177920,160
54,54,178080,160
57,43,178240,160
62,45,178400,160
55,55,178560,160
59,44,178720,160
62,45,178880,160
55,56,179040,160
59,47,179200,160
62,48,179360,160
55,57,179520,160
59,46,179680,160
62,46,179840,160
55,57,180000,160
59,50,180160,160
62,50,180320,160
54,56,180480,160
57,43,180640,160
62,45,180800,160
54,56,180960,160
57,45,181120,160
62,45,181280,160
55,56,181440,160
59,43,181600,160
62,44,181760,160
55,56,181920,160
59,46,182080,160
62,46,182240,160
60,56,182400,160
62,43,182560,160
66,45,182720,160
60,56,182880,160
62,45,183040,160
66,45,183200,160
59,56,183360,160
62,43,183520,160
67,44,183680,160
59,39,183840,160
62,35,184000,160
67,35,184160,160
54,39,184320,160
57,30,184480,160
62,31,184640,160
54,39,184800,160
57,31,184960,160
62,31,185120,160
55,39,185280,160
59,30,185440,160
62,30,185600,160
55,39,185760,160
59,32,185920,160
62,32,186080,160
60,39,186240,160
62,30,186400,160
66,31,186560,160
60,39,186720,160
62,31,186880,160
66,31,187040,160
59,39,187200,160
62,30,187360,160
67,30,187520,160
59,54,187680,160
62,43,187840,160
67,44,188000,160
60,54,188160,160
64,40,188320,160
69,41,188480,160
60,55,188640,160
64,42,188800,160
69,42,188960,160
61,53,189120,160
64,41,189280,160
69,41,189440,160
61,51,189600,160
64,42,189760,160
69,43,189920,160
62,58,190080,480
62,62,190920,120
66,68,191040,360
62,62,191400,120
69,68,191520,360
66,64,191880,120
74,80,192000,480
50,62,192840,120
54,71,192960,160
50,62,193120,160
54,62,193280,160
57,68,193440,160
54,64,193600,160
57,64,193760,160
62,74,193920,480
38,84,194880,720
38,78,195600,240
38,84,195840,480
59,40,197760,160
62,32,197923,160
67,32,198080,160
59,40,198240,160
62,34,198403,160
67,34,198560,160
59,40,198720,160
62,32,198883,160
67,32,199040,160
60,40,199200,160
62,32,199360,160
66,33,199520,160
59,40,199680,160
62,32,199835,160
67,32,200000,160
59,41,200160,160
62,35,200315,160
67,36,200480,160
59,43,200640,160
62,35,200800,160
67,35,200960,160
60,45,201120,160
62,37,201280,160
66,38,201440,160
59,48,201600,160
62,38,201760,160
67,39,201920,160
59,49,202080,160
62,41,202240,160
67,42,202400,160
59,50,202560,160
62,40,202720,160
67,40,202880,160
60,51,203040,160
62,41,203200,160
66,42,203360,160
59,52,203520,160
62,41,203680,160
67,42,203840,160
59,54,204000,160
62,45,204160,160
67,46,204320,160
54,56,204480,160
57,45,204640,160
62,45,204800,160
54,57,204960,160
57,46,205120,160
62,48,205280,160
55,59,205440,160
59,48,205600,160
62,49,205760,160
55,62,205920,160
59,52,206080,160
62,54,206240,160
52,64,206400,160
55,52,206560,160
60,52,206720,160
52,66,206880,160
55,58,207040,160
60,59,207200,160
47,67,207360,160
50,60,207519,160
55,61,207678,160
47,68,207837,160
50,62,207996,160
55,62,208158,160
47,71,208320,480
48,72,209280,480
36,72,209280,480
71,42,213120,960
62,42,213120,1920
72,43,214080,960
67,40,215040,480
71,40,215040,480
79,36,216480,480
78,38,216960,120
81,38,216960,120
76,36,218400,480
78,38,218880,120
74,38,218880,120
72,36,220320,480
74,38,220800,120
71,38,220800,120
71,36,222240,480
67,36,222240,480
72,41,222720,120
60,41,222720,120
62,38,223680,120
69,38,223680,120
71,41,224640,120
67,41,224640,120
79,70,226080,480
78,44,226560,120
78,35,227040,120
78,35,227520,120
79,70,228000,480
78,44,228480,120
78,32,228960,120
78,32,229440,120
76,63,229920,480
74,39,230400,120
74,30,230880,120
74,30,231360,120
76,58,231840,480
74,39,232320,120
74,28,232800,120
74,28,233280,120
72,56,233760,480
71,39,234240,120
71,28,234720,120
71,29,235200,120
72,56,235680,480
71,39,236160,120
71,28,236640,120
71,29,237120,120
72,56,237600,480
71,39,238080,120
66,36,238560,120
67,41,239040,120
69,47,239520,120
71,60,240000,480
48,65,241920,960
60,55,242400,480
59,54,242880,480
50,54,242880,960
57,46,243360,480
55,56,243840,960
47,56,243840,960
50,56,243840,960
48,65,245760,960
60,55,246240,480
50,54,246720,960
59,54,246720,480
57,46,247200,480
55,40,247680,160
59,32,247840,160
62,32,248000,160
55,40,248160,160
59,34,248320,160
62,34,248480,160
55,40,248640,160
59,32,248800,160
62,32,248960,160
50,40,249120,160
54,32,249280,160
62,33,249440,160
55,39,249600,160
59,29,249760,160
62,29,249920,160
55,39,250080,160
59,30,250240,160
62,30,250400,160
55,39,250560,160
59,30,250720,160
62,30,250880,160
50,39,251040,160
54,33,251200,160
62,33,251360,160
55,40,251520,160
59,32,251680,160
62,32,251840,160
55,40,252000,160
59,34,252160,160
62,34,252320,160
55,40,252480,160
59,32,252640,160
62,32,252800,160
50,63,252960,160
54,50,253120,160
62,52,253280,160
55,62,253440,160
59,46,253600,160
62,46,253760,160
55,62,253920,160
59,48,254080,160
62,48,254240,160
55,62,254400,160
59,48,254560,160
62,48,254720,160
50,62,254880,160
54,52,255040,160
62,52,255200,160
55,62,255360,160
59,46,255520,160
62,46,255680,160
55,62,255840,160
59,48,256000,160
62,48,256160,160
55,62,256320,160
59,48,256480,160
62,48,256640,160
55,62,256800,160
59,52,256960,160
62,52,257120,160
55,62,257280,480
67,48,259200,120
59,40,259200,120
60,40,260160,120
67,48,260160,120
67,48,261120,120
65,40,261120,120
67,45,262080,120
64,38,262080,120
52,66,263040,480
40,56,263040,480
40,55,264000,480
52,65,264000,480
52,65,264960,1440
40,55,264960,1440
53,56,266880,160
57,43,267040,160
60,43,267200,160
53,56,267360,160
57,45,267520,160
60,46,267680,160
53,55,267840,160
57,44,268000,160
60,45,268160,160
53,56,268320,160
57,51,268480,160
60,51,268640,160
53,56,268800,160
57,41,268960,160
60,41,269120,160
53,56,269280,160
57,44,269440,160
60,44,269600,160
53,56,269760,160
57,44,269920,160
60,45,270080,160
53,56,270240,160
57,44,270400,160
60,44,270560,160
55,56,270720,160
58,42,270880,160
60,45,271040,160
55,56,271200,160
58,45,271360,160
60,45,271520,160
53,56,271680,160
57,46,271840,160
60,50,272000,160
53,56,272160,160
57,46,272320,160
60,46,272480,160
52,56,272640,160
55,42,272800,160
60,42,272960,160
52,51,273120,160
55,42,273280,160
60,43,273440,160
52,54,273600,160
55,44,273760,160
60,45,273920,160
52,56,274080,160
55,46,274240,160
60,46,274400,160
52,56,274560,160
55,43,274715,160
60,45,274880,160
52,56,275040,160
55,45,275195,160
60,45,275360,160
53,56,275520,160
57,43,275680,160
60,44,275840,160
53,56,276000,160
57,46,276160,160
60,46,276320,160
58,56,276480,160
60,47,276640,160
64,47,276800,160
58,56,276960,160
60,44,277120,160
64,44,277280,160
57,56,277440,160
60,46,277600,160
65,46,277760,160
57,56,277920,160
60,45,278080,160
65,45,278240,160
58,56,278400,160
62,45,278560,160
67,47,278720,160
58,56,278880,160
62,46,279040,160
67,46,279200,160
60,56,279360,160
64,43,279520,160
67,43,279680,160
60,56,279840,160
64,44,280000,160
67,45,280160,160
65,61,280320,120
60,57,281760,480
67,68,281760,480
65,61,282240,120
67,68,283680,480
60,57,283680,480
65,61,284160,120
62,57,285600,480
69,68,285600,480
67,61,286080,120
71,68,287520,480
64,57,287520,480
69,61,288000,120
68,68,289440,120
69,61,289920,120
71,64,290400,480
72,67,290880,480
69,60,291360,120
64,39,291840,1440
68,57,291840,480
69,51,292320,480
68,51,292800,480
64,33,293280,480
65,40,293760,120
69,33,294240,120
71,41,294720,120
74,33,295200,480
64,40,295680,120
68,33,296160,120
69,41,296640,120
73,35,297120,480
62,44,297600,120
66,37,298080,120
67,48,298560,120
71,39,299040,480
60,48,299520,120
64,40,300000,120
65,51,300480,120
69,42,300960,120
64,60,301440,120
60,51,301920,120
65,65,302400,120
69,57,302880,120
41,62,303360,120
53,73,303360,120
45,56,303840,120
57,67,303840,120
52,75,304320,120
40,63,304320,120
45,57,304800,120
57,68,304800,120
39,66,305280,120
51,78,305280,120
42,61,305760,120
54,72,305760,120
45,64,306240,120
57,76,306240,120
60,70,306720,120
48,59,306720,120
63,76,307200,120
51,64,307200,120
54,57,307680,120
66,68,307680,120
69,79,308160,120
57,67,308160,120
51,71,308640,480
39,60,308640,480
52,82,309120,5760
40,69,309120,5760
57,40,314880,960
45,40,314880,960
36,38,315840,960
48,38,315840,960
38,40,316800,960
50,40,316800,960
52,36,317760,960
40,36,317760,960
45,40,318720,3840
49,34,319200,3360
52,37,319680,2880
55,40,320160,480
58,43,320640,960
57,37,321600,480
55,32,322080,480
50,30,322560,1440
53,36,322560,1440
52,32,324000,480
48,27,324000,480
50,36,324480,1440
47,30,324480,1440
45,27,325920,480
48,32,325920,480
43,27,326400,1200
47,32,326400,1200
52,52,328320,120
48,44,328320,120
52,52,330240,120
48,44,330240,120
43,44,332160,120
50,44,332160,120
53,52,332160,120
50,38,332640,120
43,38,332640,120
53,45,332640,120
43,44,333120,120
48,44,333120,120
52,52,333120,120
52,47,333600,120
43,39,333600,120
48,39,333600,120
47,44,334080,480
50,52,334080,480
43,44,334080,480
55,48,336000,120
47,40,336000,120
55,48,336960,120
48,40,336960,120
55,48,337920,120
53,40,337920,120
52,38,338880,120
55,45,338880,120
41,47,339840,120
53,56,339840,120
53,52,340320,120
41,44,340320,120
43,49,340800,120
50,58,340800,120
43,44,341280,120
50,52,341280,120
60,55,341760,160
63,43,341920,160
67,43,342080,160
60,56,342240,160
63,42,342400,160
67,42,342560,160
60,55,342720,160
63,44,342880,160
67,45,343040,160
60,56,343200,160
63,51,343360,160
67,51,343520,160
60,56,343680,160
63,43,343840,160
67,43,344000,160
60,56,344160,160
63,45,344320,160
67,46,344480,160
60,55,344640,160
63,44,344800,160
67,45,344960,160
60,56,345120,160
63,51,345280,160
67,51,345440,160
60,56,345600,160
63,41,345760,160
67,41,345920,160
60,56,346080,160
63,44,346240,160
67,44,346400,160
60,56,346560,160
63,44,346720,160
67,45,346880,160
60,56,347040,160
63,44,347200,160
67,44,347360,160
58,56,347520,160
64,43,347680,160
67,43,347840,160
58,56,348000,160
64,45,348160,160
67,46,348320,160
58,55,348480,160
64,44,348640,160
67,45,348800,160
58,56,348960,160
64,51,349120,160
67,51,349280,160
58,56,349440,160
64,41,349600,160
67,41,349760,160
58,56,349920,160
64,44,350080,160
67,44,350240,160
58,56,350400,160
64,44,350560,160
67,45,350720,160
58,56,350880,160
64,44,351040,160
67,44,351200,160
57,50,351360,160
64,38,351520,160
67,38,351680,160
57,50,351840,160
64,39,352000,160
67,39,352160,160
57,50,352320,160
64,39,352480,160
67,40,352640,160
57,50,352800,160
64,39,352960,160
67,39,353120,160
57,50,353280,160
62,36,353440,160
65,36,353600,160
57,50,353760,160
62,39,353920,160
65,39,354080,160
57,50,354240,160
62,39,354400,160
65,40,354560,160
57,50,354720,160
62,39,354880,160
65,39,355040,160
55,50,355200,160
59,38,355360,160
62,40,355520,160
55,50,355680,160
59,40,355840,160
62,40,356000,160
55,50,356160,160
60,38,356320,160
64,39,356480,160
55,50,356640,160
60,41,356800,160
64,41,356960,160
55,50,357120,160
62,38,357280,160
65,40,357440,160
55,50,357600,160
62,40,357760,160
65,40,357920,160
55,50,358080,160
60,43,358240,160
64,44,358400,160
55,39,358560,160
60,35,358720,160
64,35,358880,160
55,39,359040,160
59,30,359200,160
62,31,359360,160
55,39,359520,160
59,31,359680,160
62,31,359840,160
55,39,360000,160
60,30,360160,160
64,30,360320,160
55,39,360480,160
60,32,360640,160
64,32,360800,160
55,39,360960,160
62,30,361120,160
65,31,361280,160
55,45,361440,160
62,36,361600,160
65,36,361760,160
55,50,361920,160
60,38,362080,160
64,38,362240,160
55,54,362400,160
60,43,362560,160
64,44,362720,160
55,58,362880,480
55,62,363720,120
59,68,363840,360
55,62,364200,120
62,68,364320,360
59,64,364680,120
67,80,364800,480
43,62,365640,120
47,71,365760,160
43,62,365920,160
47,62,366080,160
50,68,366240,160
47,64,366400,160
50,64,366560,160
55,74,366720,480
31,84,367680,720
31,78,368400,240
31,84,368640,480
52,45,370560,160
55,36,370723,160
60,36,370880,160
52,45,371040,160
55,38,371203,160
60,38,371360,160
52,45,371520,160
55,36,371683,160
60,36,371840,160
53,45,372000,160
55,36,372160,160
59,37,372320,160
52,45,372480,160
55,36,372635,160
60,36,372800,160
52,45,372960,160
55,38,373115,160
60,39,373280,160
52,46,373440,160
55,37,373600,160
60,37,373760,160
53,47,373920,160
55,38,374080,160
59,39,374240,160
52,48,374400,160
55,38,374560,160
60,39,374720,160
52,49,374880,160
55,41,375040,160
60,42,375200,160
52,50,375360,160
55,40,375520,160
60,40,375680,160
53,51,375840,160
55,41,376000,160
59,42,376160,160
52,52,376320,160
55,41,376480,160
60,42,376640,160
52,54,376800,160
55,45,376960,160
60,46,377120,160
47,61,377280,160
50,51,377440,160
55,52,377600,160
47,62,377760,160
50,52,377920,160
55,52,378080,160
48,65,378240,160
52,54,378400,160
55,52,378560,160
48,69,378720,160
52,52,378880,160
55,54,379040,160
50,66,379200,160
53,56,379360,160
59,56,379520,160
50,71,379680,160
53,58,379840,160
59,59,380000,160
52,74,380160,160
55,60,380319,160
60,61,380478,160
52,73,380637,160
55,62,380796,160
60,62,380958,160
52,76,381120,480
53,72,382080,480
41,72,382080,480
67,42,385920,1920
76,42,385920,960
77,43,386880,960
76,40,387840,480
72,40,387840,480
72,36,389280,480
74,38,389760,120
71,38,389760,120
69,36,391200,480
71,38,391680,120
67,38,391680,120
65,36,393120,480
67,38,393600,120
64,38,393600,120
60,36,395040,480
64,36,395040,480
65,41,395520,120
53,41,395520,120
55,38,396480,120
62,38,396480,120
64,41,397440,120
60,41,397440,120
72,70,398880,480
71,44,399360,120
71,35,399840,120
71,35,400320,120
72,70,400800,480
71,44,401280,120
71,32,401760,120
71,32,402240,120
69,63,402720,480
67,39,403200,120
67,30,403680,120
67,30,404160,120
69,58,404640,480
67,39,405120,120
67,28,405600,120
67,28,406080,120
65,56,406560,480
64,39,407040,120
64,28,407520,120
64,29,408000,120
65,56,408480,480
64,39,408960,120
64,28,409440,120
64,29,409920,120
65,56,410400,480
64,39,410880,120
59,36,411360,120
60,41,411840,120
62,47,412320,120
64,60,412800,480
41,65,414720,960
53,55,415200,480
52,54,415680,480
43,54,415680,960
50,46,416160,480
40,70,416640,960
43,70,416640,960
48,70,416640,960
53,73,418560,960
57,73,418560,960
63,73,419520,960
57,62,419520,960
60,62,419520,960
54,62,419520,960
55,42,420480,160
60,32,420640,160
64,32,420800,160
55,42,420960,160
60,34,421120,160
64,34,421280,160
55,42,421440,160
60,33,421600,160
64,33,421760,160
55,45,421920,160
60,34,422080,160
64,34,422240,160
55,47,422400,160
60,34,422560,160
64,34,422720,160
55,47,422880,160
60,36,423040,160
64,36,423200,160
55,50,423360,160
60,36,423520,160
64,36,423680,160
55,69,423840,160
60,56,424000,160
64,56,424160,160
55,47,424320,160
60,34,424480,160
64,34,424640,160
55,47,424800,160
60,37,424960,160
64,37,425120,160
55,47,425280,160
60,37,425440,160
64,38,425600,160
55,47,425760,160
60,37,425920,160
64,37,426080,160
55,47,426240,160
62,35,426400,160
65,38,426560,160
55,47,426720,160
62,38,426880,160
65,38,427040,160
55,47,427200,160
60,39,427360,160
64,42,427520,160
55,47,427680,160
60,39,427840,160
64,39,428000,160
55,47,428160,160
59,35,428320,160
62,38,428480,160
55,47,428640,160
59,38,428800,160
62,38,428960,160
55,47,429120,160
59,39,429280,160
62,42,429440,160
55,47,429600,160
59,39,429760,160
62,39,429920,160
55,47,430080,160
59,36,430240,160
62,38,430400,160
55,54,430560,160
59,41,430720,160
62,41,430880,160
55,51,431040,160
60,39,431200,160
64,40,431360,160
55,47,431520,160
60,39,431680,160
64,39,431840,160
55,47,432000,160
62,39,432160,160
65,39,432320,160
55,53,432480,160
62,40,432640,160
65,37,432800,160
57,51,432960,160
60,39,433120,160
64,39,433280,160
57,47,433440,160
60,38,433600,160
64,38,433760,160
53,47,433920,160
57,38,434080,160
62,39,434240,160
53,47,434400,160
57,39,434560,160
62,39,434720,160
55,47,434880,160
62,36,435040,160
65,36,435200,160
55,47,435360,160
62,37,435520,160
65,38,435680,160
60,70,435840,160
64,52,436000,160
67,51,436160,160
60,65,436320,160
64,51,436480,160
67,51,436640,160
60,68,436800,160
64,55,436960,160
67,55,437120,160
55,69,437280,160
59,57,437440,160
67,58,437600,160
60,79,437760,160
64,59,437920,160
67,59,438080,160
60,66,438240,160
64,55,438400,160
67,55,438560,160
60,67,438720,160
64,55,438880,160
67,54,439040,160
55,70,439200,160
59,58,439360,160
67,56,439520,160
60,79,439680,160
64,60,439840,160
67,58,440000,160
60,74,440160,160
64,59,440320,160
67,60,440480,160
60,71,440640,160
64,59,440800,160
67,59,440960,160
55,75,441120,160
59,60,441280,160
67,60,441440,160
60,74,441600,160
64,55,441760,160
67,55,441920,160
60,74,442080,160
64,57,442240,160
67,57,442400,160
60,74,442560,160
64,57,442720,160
67,57,442880,160
55,74,443040,160
59,62,443200,160
67,62,443360,160
60,70,443520,160
64,41,443680,160
67,41,443840,160
60,49,444000,160
64,37,444160,160
67,36,444320,160
60,45,444480,160
64,34,444640,160
67,34,444800,160
55,41,444960,160
59,34,445120,160
67,34,445280,160
60,47,445440,160
64,35,445600,160
67,35,445760,160
60,39,445920,160
64,33,446080,160
67,33,446240,160
60,40,446400,160
64,33,446560,160
67,33,446720,160
55,42,446880,160
59,34,447040,160
67,34,447200,160
60,47,447360,160
64,36,447520,160
67,34,447680,160
60,44,447840,160
64,35,448000,160
67,36,448160,160
60,42,448320,160
64,35,448480,160
67,35,448640,160
55,45,448800,160
59,36,448960,160
67,36,449120,160
60,44,449280,160
64,33,449440,160
67,33,449600,160
60,44,449760,160
64,34,449920,160
67,34,450080,160
60,44,450240,160
64,34,450400,160
67,34,450560,160
55,44,450720,160
59,37,450880,160
67,37,451040,160
60,62,451200,160
64,44,451360,160
67,47,451520,160
60,65,451680,160
64,50,451840,160
67,54,452000,160
60,69,452160,160
64,56,452320,160
67,56,452480,160
60,69,452640,160
64,58,452800,160
67,58,452960,160
60,70,453120,160
64,56,453280,160
67,56,453440,160
60,67,453600,160
64,52,453760,160
67,52,453920,160
60,68,454080,160
64,52,454240,160
67,52,454400,160
60,66,454560,160
64,52,454720,160
67,52,454880,160
60,82,455040,480
