note,velocity,position,duration
63,72,1440,360
60,66,1800,120
68,72,1920,360
68,65,2280,120
68,72,2400,60
70,62,2460,60
68,72,2520,60
70,58,2580,60
68,69,2640,40
70,59,2680,40
68,69,2720,40
67,65,2760,60
68,58,2820,60
70,72,2880,480
63,72,3360,360
75,68,3720,120
73,82,3840,960
72,72,4800,180
68,49,5280,360
77,44,5640,120
75,55,5760,960
73,49,6720,180
63,72,7200,360
75,68,7560,120
73,82,7680,960
72,72,8640,180
80,81,9120,360
72,68,9480,120
70,79,9600,360
70,65,9960,120
70,72,10080,60
72,62,10140,60
70,72,10200,60
72,58,10260,60
70,69,10320,40
72,59,10360,40
70,69,10400,40
69,65,10440,60
70,58,10500,60
73,78,10560,360
70,71,10920,120
67,79,11040,360
63,72,11400,120
68,81,11520,360
63,72,12960,360
60,66,13320,120
68,72,13440,360
68,65,13800,120
68,72,13920,60
70,62,13980,60
68,72,14040,60
70,58,14100,60
68,69,14160,40
70,59,14200,40
68,69,14240,40
67,65,14280,60
68,58,14340,60
70,72,14400,480
63,72,14880,360
75,68,15240,120
73,82,15360,960
72,72,16320,180
68,76,16800,360
80,69,17160,120
79,79,17280,480
77,68,17760,120
80,78,18120,120
77,73,18240,480
75,76,18720,120
80,69,19080,120
75,79,19200,480
73,68,19680,120
80,78,20040,120
73,73,20160,480
72,76,20640,120
80,69,21000,120
72,74,21120,360
70,66,21480,120
73,73,21600,360
77,66,21960,120
75,76,22080,480
67,69,22560,450
67,46,23010,30
68,73,23040,120
67,53,23490,30
68,73,23520,120
67,55,23970,30
68,73,24000,120
69,55,24450,30
70,79,24480,120
71,76,24960,480
72,69,25440,480
68,61,25920,960
71,46,26850,30
72,73,26880,120
71,53,27330,30
72,73,27360,120
71,55,27810,30
72,73,27840,120
75,79,28320,120
73,71,28440,120
72,76,28560,120
73,69,28680,120
75,79,28800,960
72,68,29760,960
80,92,30720,480
80,85,31200,160
84,72,31360,160
87,72,31520,160
78,82,31680,960
77,92,32640,480
77,85,33120,160
82,72,33280,160
85,72,33440,160
75,82,33600,720
77,75,34320,120
79,82,34440,120
80,94,34560,480
80,81,35040,160
82,72,35200,160
84,66,35360,160
73,84,35520,960
72,81,36480,160
75,71,36640,160
73,71,36800,160
72,66,36960,160
84,78,37120,160
82,71,37280,160
80,71,37440,160
79,78,37600,160
77,68,37760,160
75,79,37920,160
73,71,38080,160
72,71,38240,160
75,81,38400,360
72,58,38760,120
70,70,38880,360
70,72,39840,360
67,66,40200,120
75,72,40320,360
75,65,40680,120
75,72,40800,60
77,62,40860,60
75,72,40920,60
77,58,40980,60
75,69,41040,40
77,59,41080,40
75,69,41120,40
74,65,41160,60
75,58,41220,60
77,72,41280,240
74,72,41760,360
70,66,42120,120
77,72,42240,360
77,65,42600,120
77,72,42720,60
79,62,42780,60
77,72,42840,60
79,58,42900,60
77,69,42960,40
79,59,43000,40
77,69,43040,40
75,65,43080,60
77,58,43140,60
79,72,43200,360
79,65,43560,120
79,73,43680,60
80,63,43740,60
79,73,43800,60
80,59,43860,60
79,71,43920,40
80,60,43960,40
79,72,44000,40
77,68,44040,60
79,60,44100,60
80,76,44160,360
80,69,44520,120
80,78,44640,60
82,66,44700,60
80,78,44760,60
82,63,44820,60
80,75,44880,40
82,65,44920,40
80,76,44960,40
79,71,45000,60
80,63,45060,60
82,81,45120,360
82,73,45480,120
82,82,45600,60
84,71,45660,60
82,82,45720,60
84,66,45780,60
82,79,45840,40
84,68,45880,40
82,81,45920,40
80,75,45960,60
82,66,46020,60
84,85,46080,1440
76,79,47520,480
77,81,48000,160
80,71,48160,160
79,71,48320,160
77,66,48480,160
84,77,48640,160
82,69,48800,160
80,69,48960,160
79,65,49120,160
77,64,49280,160
75,73,49440,160
74,66,49600,160
72,65,49760,160
82,85,49920,1440
74,79,51360,480
75,81,51840,160
79,71,52000,160
77,71,52160,160
75,66,52320,160
82,78,52480,160
80,70,52640,160
79,70,52800,160
77,66,52960,160
75,66,53120,160
74,77,53280,160
72,70,53440,160
70,65,53600,160
80,85,53760,1440
79,76,55200,160
77,68,55360,160
75,58,55520,140
75,72,55680,240
74,58,55920,220
74,62,56160,960
75,72,57120,480
77,85,57600,160
79,72,57760,160
80,66,57920,140
80,85,58080,960
79,76,59040,160
77,68,59200,160
75,58,59360,140
75,72,59520,240
74,58,59760,220
74,62,60000,960
75,72,60960,480
77,85,61440,160
79,72,61600,160
80,66,61760,140
80,85,61920,960
79,76,62880,480
77,66,63360,160
84,81,63520,160
82,73,63680,160
80,73,63840,160
79,69,64000,160
77,64,64160,160
75,79,64320,480
74,60,64800,480
74,68,65280,960
75,50,66240,480
56,68,67200,1120
60,65,68320,160
58,56,68480,160
56,66,68640,80
56,58,68800,80
56,58,68960,80
56,68,69120,1120
65,65,70240,160
62,56,70400,160
56,66,70560,80
56,58,70720,80
56,58,70880,80
55,60,71040,160
58,49,71200,160
63,49,71360,80
63,56,71520,80
63,49,71680,80
63,49,71840,80
62,60,72000,160
65,49,72160,160
68,49,72320,80
68,56,72480,80
68,49,72640,80
68,49,72800,80
67,69,72960,160
70,56,73120,160
75,56,73280,80
75,63,73440,80
75,56,73600,80
75,56,73760,80
74,75,73920,160
77,61,74080,160
80,61,74240,80
80,68,74400,80
80,61,74560,80
80,61,74720,80
79,78,74880,160
80,70,75040,160
82,60,75200,160
80,69,75360,160
79,66,75520,160
77,66,75680,160
75,69,75840,160
74,62,76000,160
72,60,76160,160
70,69,76320,160
68,62,76480,160
67,62,76640,160
65,68,76800,720
72,52,77520,240
63,59,77760,480
62,52,78240,480
75,81,78720,1440
77,73,80160,480
74,62,80160,480
79,81,80640,1440
75,68,80640,1440
80,73,82080,480
77,62,82080,480
79,62,82560,160
82,73,82560,160
80,65,82720,160
77,55,82720,160
82,65,82880,160
79,55,82880,160
80,61,83040,160
84,72,83040,160
79,54,83200,160
82,64,83200,160
77,54,83360,160
80,64,83360,160
79,70,83520,480
75,59,83520,480
77,65,84000,480
74,55,84000,480
75,81,84480,1440
77,73,85920,480
74,62,85920,480
79,81,86400,1440
75,68,86400,1440
80,73,87840,480
77,62,87840,480
79,62,88320,160
82,73,88320,160
80,65,88480,160
77,55,88480,160
82,65,88640,160
79,55,88640,160
80,61,88800,160
84,72,88800,160
79,54,88960,160
82,64,88960,160
77,54,89120,160
80,64,89120,160
79,70,89280,480
75,59,89280,480
77,65,89760,480
74,55,89760,480
75,60,90240,1380
79,68,91620,60
77,54,91680,480
75,60,92160,480
75,54,92640,480
75,54,93120,480
80,58,93600,120
77,52,93720,360
82,58,94080,480
82,53,94560,480
82,52,95040,480
80,57,95520,120
77,51,95640,360
75,57,96000,1380
79,60,97380,60
77,50,97440,480
75,55,97920,480
75,50,98400,480
75,50,98880,480
80,54,99360,120
77,49,99480,360
82,54,99840,480
82,49,100320,480
82,48,100800,480
80,53,101280,120
77,48,101400,360
75,52,101760,1380
79,50,103140,60
77,41,103200,480
75,48,103680,480
79,36,104160,480
82,43,104160,480
79,36,104640,480
82,43,104640,480
63,72,107040,360
60,66,107400,120
68,72,107520,360
68,65,107880,120
68,72,108000,60
70,62,108060,60
68,72,108120,60
70,58,108180,60
68,69,108240,40
70,59,108280,40
68,69,108320,40
67,65,108360,60
68,58,108420,60
70,72,108480,480
63,72,108960,360
75,68,109320,120
73,82,109440,960
72,72,110400,180
68,49,110880,360
77,44,111240,120
75,55,111360,960
73,49,112320,180
63,72,112800,360
75,68,113160,120
73,82,113280,960
72,72,114240,180
80,81,114720,360
72,68,115080,120
70,79,115200,360
70,65,115560,120
70,72,115680,60
72,62,115740,60
70,72,115800,60
72,58,115860,60
70,69,115920,40
72,59,115960,40
70,69,116000,40
69,65,116040,60
70,58,116100,60
73,78,116160,360
70,71,116520,120
67,79,116640,360
63,72,117000,120
68,81,117120,360
63,72,118560,360
60,66,118920,120
68,72,119040,360
68,65,119400,120
68,72,119520,60
70,62,119580,60
68,72,119640,60
70,58,119700,60
68,69,119760,40
70,59,119800,40
68,69,119840,40
67,65,119880,60
68,58,119940,60
70,72,120000,480
63,72,120480,360
75,68,120840,120
73,82,120960,960
72,72,121920,180
68,76,122400,360
80,69,122760,120
79,79,122880,480
77,68,123360,120
80,78,123720,120
77,73,123840,480
75,76,124320,120
80,69,124680,120
75,79,124800,480
73,68,125280,120
80,78,125640,120
73,73,125760,480
72,76,126240,120
80,69,126600,120
72,74,126720,360
70,66,127080,120
73,73,127200,360
77,66,127560,120
75,76,127680,480
67,69,128160,450
67,46,128610,30
68,73,128640,120
67,53,129090,30
68,73,129120,120
67,55,129570,30
68,73,129600,120
69,55,130050,30
70,79,130080,120
71,76,130560,480
72,69,131040,480
68,61,131520,960
71,46,132450,30
72,73,132480,120
71,53,132930,30
72,73,132960,120
71,55,133410,30
72,73,133440,120
75,79,133920,120
73,71,134040,120
72,76,134160,120
73,69,134280,120
75,79,134400,960
72,68,135360,960
80,92,136320,480
80,85,136800,160
84,72,136960,160
87,72,137120,160
78,82,137280,960
77,92,138240,480
77,85,138720,160
82,72,138880,160
85,72,139040,160
75,82,139200,720
77,75,139920,120
79,82,140040,120
80,94,140160,480
80,81,140640,160
82,72,140800,160
84,66,140960,160
73,84,141120,960
72,81,142080,160
75,71,142240,160
73,71,142400,160
72,66,142560,160
84,78,142720,160
82,71,142880,160
80,71,143040,160
79,78,143200,160
77,68,143360,160
75,79,143520,160
73,71,143680,160
72,71,143840,160
75,81,144000,360
72,58,144360,120
70,70,144480,360
70,72,145440,360
67,66,145800,120
75,72,145920,360
75,65,146280,120
75,72,146400,60
77,62,146460,60
75,72,146520,60
77,58,146580,60
75,69,146640,40
77,59,146680,40
75,69,146720,40
74,65,146760,60
75,58,146820,60
77,72,146880,240
74,72,147360,360
70,66,147720,120
77,72,147840,360
77,65,148200,120
77,72,148320,60
79,62,148380,60
77,72,148440,60
79,58,148500,60
77,69,148560,40
79,59,148600,40
77,69,148640,40
75,65,148680,60
77,58,148740,60
79,72,148800,360
79,65,149160,120
79,73,149280,60
80,63,149340,60
79,73,149400,60
80,59,149460,60
79,71,149520,40
80,60,149560,40
79,72,149600,40
77,68,149640,60
79,60,149700,60
80,76,149760,360
80,69,150120,120
80,78,150240,60
82,66,150300,60
80,78,150360,60
82,63,150420,60
80,75,150480,40
82,65,150520,40
80,76,150560,40
79,71,150600,60
80,63,150660,60
82,81,150720,360
82,73,151080,120
82,82,151200,60
84,71,151260,60
82,82,151320,60
84,66,151380,60
82,79,151440,40
84,68,151480,40
82,81,151520,40
80,75,151560,60
82,66,151620,60
84,85,151680,1440
76,79,153120,480
77,81,153600,160
80,71,153760,160
79,71,153920,160
77,66,154080,160
84,77,154240,160
82,69,154400,160
80,69,154560,160
79,65,154720,160
77,64,154880,160
75,73,155040,160
74,66,155200,160
72,65,155360,160
82,85,155520,1440
74,79,156960,480
75,81,157440,160
79,71,157600,160
77,71,157760,160
75,66,157920,160
82,78,158080,160
80,70,158240,160
79,70,158400,160
77,66,158560,160
75,66,158720,160
74,77,158880,160
72,70,159040,160
70,65,159200,160
80,85,159360,1440
79,76,160800,160
77,68,160960,160
75,58,161120,140
75,72,161280,240
74,58,161520,220
74,62,161760,960
75,72,162720,480
77,85,163200,160
79,72,163360,160
80,66,163520,140
80,85,163680,960
79,76,164640,160
77,68,164800,160
75,58,164960,140
75,72,165120,240
74,58,165360,220
74,62,165600,960
75,72,166560,480
77,85,167040,160
79,72,167200,160
80,66,167360,140
80,85,167520,960
79,76,168480,480
77,66,168960,160
84,81,169120,160
82,73,169280,160
80,73,169440,160
79,69,169600,160
77,64,169760,160
75,79,169920,480
74,60,170400,480
74,68,170880,960
75,50,171840,480
56,68,172800,1120
60,65,173920,160
58,56,174080,160
56,66,174240,80
56,58,174400,80
56,58,174560,80
56,68,174720,1120
65,65,175840,160
62,56,176000,160
56,66,176160,80
56,58,176320,80
56,58,176480,80
55,60,176640,160
58,49,176800,160
63,49,176960,80
63,56,177120,80
63,49,177280,80
63,49,177440,80
62,60,177600,160
65,49,177760,160
68,49,177920,80
68,56,178080,80
68,49,178240,80
68,49,178400,80
67,69,178560,160
70,56,178720,160
75,56,178880,80
75,63,179040,80
75,56,179200,80
75,56,179360,80
74,69,179520,160
77,56,179680,160
80,56,179840,80
80,69,180000,80
80,56,180160,80
80,56,180320,80
79,79,180480,160
80,70,180640,160
82,60,180800,160
80,69,180960,160
79,66,181120,160
77,66,181280,160
75,69,181440,160
74,62,181600,160
72,60,181760,160
70,69,181920,160
68,62,182080,160
67,62,182240,160
65,68,182400,720
72,52,183120,240
63,59,183360,480
62,52,183840,480
75,81,184320,1440
77,73,185760,480
74,62,185760,480
79,81,186240,1440
75,68,186240,1440
80,73,187680,480
77,62,187680,480
79,62,188160,160
82,73,188160,160
80,65,188320,160
77,55,188320,160
82,65,188480,160
79,55,188480,160
80,61,188640,160
84,72,188640,160
79,54,188800,160
82,64,188800,160
77,54,188960,160
80,64,188960,160
79,70,189120,480
75,59,189120,480
77,65,189600,480
74,55,189600,480
75,81,190080,1440
77,73,191520,480
74,62,191520,480
79,81,192000,1440
75,68,192000,1440
80,73,193440,480
77,62,193440,480
79,62,193920,160
82,73,193920,160
80,65,194080,160
77,55,194080,160
82,65,194240,160
79,55,194240,160
80,61,194400,160
84,72,194400,160
79,54,194560,160
82,64,194560,160
77,54,194720,160
80,64,194720,160
79,70,194880,480
75,59,194880,480
77,65,195360,480
74,55,195360,480
75,60,195840,1380
79,68,197220,60
77,54,197280,480
75,60,197760,480
75,54,198240,480
75,54,198720,480
80,58,199200,120
77,52,199320,360
82,58,199680,480
82,53,200160,480
82,52,200640,480
80,57,201120,120
77,51,201240,360
75,57,201600,1380
79,60,202980,60
77,50,203040,480
75,55,203520,480
75,50,204000,480
75,50,204480,480
80,54,204960,120
77,49,205080,360
82,54,205440,480
82,49,205920,480
82,48,206400,480
80,53,206880,120
77,48,207000,360
75,52,207360,1380
79,50,208740,60
77,41,208800,480
75,48,209280,480
79,36,209760,480
82,43,209760,480
79,36,210240,480
82,43,210240,480
58,72,212640,360
55,66,213000,120
63,72,213120,360
63,65,213480,120
63,72,213600,60
65,62,213660,60
63,72,213720,60
65,58,213780,60
63,69,213840,40
65,59,213880,40
63,69,213920,40
62,65,213960,60
63,58,214020,60
65,72,214080,480
58,72,214560,360
70,68,214920,120
68,82,215040,960
67,72,216000,180
63,49,216480,360
72,44,216840,120
70,55,216960,960
68,49,217920,180
58,72,218400,360
70,68,218760,120
68,82,218880,960
67,72,219840,180
75,81,220320,360
67,68,220680,120
65,79,220800,360
65,65,221160,110
65,72,221280,60
67,62,221340,60
65,72,221400,60
67,58,221460,60
65,69,221520,40
67,59,221560,40
65,69,221600,40
64,65,221640,60
65,58,221700,60
68,78,221760,360
65,71,222120,120
62,79,222240,360
58,72,222600,120
63,81,222720,360
67,56,224040,120
70,69,224160,360
75,62,224520,120
79,70,224640,360
70,56,225000,120
75,69,225120,360
79,62,225480,120
82,70,225600,360
75,63,225960,120
79,72,226080,360
82,69,226440,120
85,79,226560,960
84,63,227520,60
85,56,227580,60
84,64,227640,60
85,57,227700,60
84,60,227760,60
85,60,227820,60
84,65,227880,60
85,62,227940,60
84,66,228000,80
85,62,228080,80
84,62,228160,80
82,71,228240,240
80,73,228480,480
77,65,228960,480
77,65,229440,480
79,72,229920,480
79,76,230400,480
80,69,230880,480
77,61,231360,960
80,76,232320,480
80,70,232800,480
80,75,233280,360
84,65,233640,110
84,72,233760,60
85,62,233820,60
84,72,233880,60
85,58,233940,60
84,69,234000,40
85,59,234040,40
84,69,234080,40
82,65,234120,60
84,58,234180,60
85,72,234240,960
73,61,235200,960
82,76,236160,480
82,70,236640,480
82,75,237120,480
80,72,237600,60
82,62,237660,60
80,72,237720,60
82,58,237780,60
80,69,237840,40
82,59,237880,40
80,69,237920,40
79,65,237960,60
80,58,238020,60
79,69,238080,960
75,61,239040,960
74,64,240000,480
74,60,240480,480
74,66,240960,360
74,59,241320,110
74,64,241440,60
75,55,241500,60
74,64,241560,60
75,52,241620,60
74,62,241680,40
75,53,241720,40
74,62,241760,40
72,58,241800,60
74,52,241860,60
75,69,241920,480
75,64,242400,480
75,70,242880,360
75,63,243240,110
75,68,243360,60
77,59,243420,60
75,69,243480,60
77,55,243540,60
75,66,243600,40
77,56,243640,40
75,66,243680,40
74,63,243720,60
75,56,243780,60
77,73,243840,480
77,69,244317,3
77,75,244800,360
77,67,245157,3
77,73,245280,60
79,63,245340,60
77,73,245400,60
79,59,245460,60
77,70,245520,40
79,60,245560,40
77,71,245600,40
75,66,245640,60
77,59,245700,60
78,78,245760,480
78,73,246240,480
78,79,246720,360
78,72,247080,110
78,77,247200,60
80,66,247260,60
78,77,247320,60
80,63,247380,60
78,75,247440,40
80,64,247480,40
78,75,247520,40
77,70,247560,60
78,63,247620,60
83,83,247680,480
83,77,248160,480
83,82,248640,360
83,68,249000,110
85,72,249120,120
83,64,249240,120
82,64,249360,120
83,61,249480,120
82,76,249600,480
82,70,250080,480
82,75,250560,480
82,72,251040,120
80,64,251160,120
79,64,251280,120
80,61,251400,120
79,69,251520,960
75,61,252480,960
84,76,253440,480
84,70,253920,480
84,75,254400,480
84,72,254880,120
82,64,255000,120
80,64,255120,120
82,61,255240,120
80,72,255360,160
84,63,255520,160
82,63,255680,160
80,59,255840,160
79,69,256000,160
77,62,256160,160
75,62,256320,160
73,58,256480,160
72,57,256640,160
70,65,256800,160
68,59,256960,160
67,58,257120,160
65,72,257280,160
72,63,257440,160
70,63,257600,160
68,59,257760,160
67,67,257920,160
65,62,258080,160
63,62,258240,160
61,58,258400,160
60,57,258560,160
58,65,258720,160
56,59,258880,160
55,58,259040,160
53,73,259200,480
53,65,259680,480
53,65,260160,480
63,72,260640,480
61,62,261120,60
63,52,261180,60
61,60,261240,60
63,53,261300,60
61,61,261360,60
63,55,261420,60
61,64,261480,60
63,58,261540,60
61,69,261600,80
63,60,261680,80
61,55,261760,80
60,60,261840,240
58,62,262075,480
55,73,263040,480
55,65,263520,480
55,65,264000,480
65,72,264480,480
64,60,264960,160
62,49,265120,160
60,49,265280,80
60,56,265440,80
60,49,265600,80
60,49,265760,80
67,60,265920,160
65,49,266080,160
64,49,266240,80
64,56,266400,80
64,49,266560,80
64,49,266720,80
70,65,266880,160
68,50,267040,160
67,50,267200,80
67,61,267360,80
67,54,267520,80
67,54,267680,80
79,66,267840,160
77,63,268000,160
76,56,268160,160
73,66,268320,160
72,60,268480,160
70,57,268640,160
68,71,268800,160
72,55,268960,160
77,55,269120,80
77,71,269280,80
77,57,269440,80
77,57,269600,80
76,78,269760,160
79,67,269920,160
82,67,270080,80
82,76,270240,80
82,62,270400,80
82,63,270560,80
80,78,270720,160
84,65,270880,160
89,65,271040,80
89,72,271200,80
89,64,271360,80
89,64,271520,80
79,78,271680,160
82,66,271840,160
85,65,272000,80
85,71,272160,80
85,62,272320,80
85,61,272480,80
80,64,273120,180
84,76,273120,180
70,60,274080,480
76,60,274080,480
75,60,274560,480
75,54,275040,480
75,60,275520,480
75,55,276000,480
74,57,276480,960
70,58,277440,960
73,78,278400,480
73,73,278880,480
73,73,279360,60
75,62,279420,60
73,73,279480,60
75,59,279540,60
73,71,279600,40
75,60,279640,40
73,71,279680,40
72,66,279720,60
73,59,279780,60
82,79,279840,240
73,72,280080,240
72,78,280320,480
72,73,280800,480
72,73,281280,60
73,62,281340,60
72,73,281400,60
73,59,281460,60
72,71,281520,40
73,60,281560,40
72,71,281600,40
70,66,281640,60
72,59,281700,60
75,79,281760,240
72,72,282000,240
70,78,282240,480
70,73,282720,480
70,73,283200,60
72,62,283260,60
70,73,283320,60
72,59,283380,60
70,71,283440,40
72,60,283480,40
70,71,283520,40
69,66,283560,60
70,59,283620,60
77,79,283680,240
68,72,283920,240
67,77,284160,160
70,68,284320,160
68,68,284480,160
67,66,284640,160
79,76,284800,160
77,69,284960,160
75,64,285120,160
82,74,285280,160
80,69,285440,160
79,68,285600,160
77,66,285760,160
75,65,285920,160
74,77,286080,160
77,68,286240,160
75,68,286400,160
74,66,286560,160
80,76,286720,160
79,69,286880,160
77,64,287040,160
84,74,287200,160
82,69,287360,160
80,68,287520,160
79,66,287680,160
77,65,287840,160
75,77,288000,240
74,68,288240,240
77,74,288480,240
75,70,288720,240
79,73,288960,240
77,66,289200,240
80,72,289440,240
79,63,289680,240
82,77,289920,240
80,74,290160,240
84,77,290400,480
82,73,290880,480
80,69,291360,480
79,69,291840,480
77,66,292320,480
75,62,292800,480
74,59,293280,480
80,66,293760,960
79,63,294720,240
80,56,294960,240
82,62,295200,240
80,58,295440,220
80,65,295680,1440
74,56,297120,480
74,42,297600,30
75,50,297630,30
77,46,297660,30
75,50,297690,30
77,46,297720,30
75,50,297750,30
77,45,297780,30
75,50,297810,30
77,46,297840,30
75,50,297870,30
77,50,297900,30
75,45,297930,30
74,55,297960,60
75,55,298020,60
63,72,299040,360
60,66,299400,120
68,72,299520,360
68,65,299880,120
68,72,300000,60
70,62,300060,60
68,72,300120,60
70,58,300180,60
68,69,300240,40
70,59,300280,40
68,69,300320,40
67,65,300360,60
68,58,300420,60
70,72,300480,480
63,72,300960,360
75,68,301320,120
73,82,301440,960
72,72,302400,180
68,49,302880,360
77,44,303240,120
75,55,303360,960
73,49,304320,180
63,72,304800,360
75,68,305160,120
73,82,305280,960
72,72,306240,180
80,81,306720,360
72,68,307080,120
70,79,307200,360
70,65,307560,120
70,72,307680,60
72,62,307740,60
70,72,307800,60
72,58,307860,60
70,69,307920,40
72,59,307960,40
70,69,308000,40
69,65,308040,60
70,58,308100,60
73,78,308160,360
70,71,308520,120
67,79,308640,360
63,72,309000,120
68,81,309120,360
63,72,310560,360
60,66,310920,120
68,72,311040,360
68,65,311400,120
68,72,311520,60
70,62,311580,60
68,72,311640,60
70,58,311700,60
68,69,311760,40
70,59,311800,40
68,69,311840,40
67,65,311880,60
68,58,311940,60
70,72,312000,480
63,72,312480,360
75,68,312840,120
73,82,312960,960
72,72,313920,180
68,76,314400,360
80,69,314760,120
79,79,314880,480
77,68,315360,120
80,78,315720,120
77,73,315840,480
75,76,316320,120
80,69,316680,120
75,79,316800,480
73,68,317280,120
80,78,317640,120
73,73,317760,480
72,76,318240,120
80,69,318600,120
72,74,318720,360
70,66,319080,120
73,73,319200,360
77,66,319560,120
75,76,319680,480
67,69,320160,450
67,46,320610,30
68,73,320640,120
67,53,321090,30
68,73,321120,120
67,55,321570,30
68,73,321600,120
69,55,322050,30
70,79,322080,120
71,76,322560,480
72,69,323040,480
68,61,323520,960
71,46,324450,30
72,73,324480,120
71,53,324930,30
72,73,324960,120
71,55,325410,30
72,73,325440,120
75,79,325920,120
73,71,326040,120
72,76,326160,120
73,69,326280,120
75,79,326400,960
72,68,327360,960
80,92,328320,470
80,85,328800,160
84,72,328960,160
87,72,329120,160
78,82,329280,960
77,92,330240,470
77,85,330720,160
82,72,330880,160
85,72,331040,160
75,82,331200,720
77,75,331920,120
79,82,332040,120
80,94,332160,470
80,81,332640,160
82,72,332800,160
84,66,332960,160
73,84,333120,960
72,81,334080,160
75,71,334240,160
73,71,334400,160
72,66,334560,160
84,78,334720,160
82,71,334880,160
80,71,335040,160
79,78,335200,160
77,68,335360,160
75,79,335520,160
73,71,335680,160
72,71,335840,160
75,81,336000,360
72,58,336360,120
70,70,336480,720
73,55,337200,240
72,60,337440,240
75,54,337680,240
75,63,337920,240
73,53,338160,220
73,59,338400,960
72,57,339360,160
70,52,339520,160
68,52,339680,140
68,61,339840,240
67,50,340080,220
67,60,340320,960
68,57,341280,480
70,63,341760,160
72,61,341920,160
73,63,342080,140
73,59,342240,960
72,57,343200,160
70,52,343360,160
68,52,343520,140
68,61,343680,240
67,50,343920,220
67,60,344160,960
68,57,345120,480
70,63,345600,160
72,63,345760,160
73,63,345920,140
73,59,346080,960
72,57,347040,480
70,53,347520,160
77,67,347680,160
75,60,347840,160
73,67,348000,160
72,61,348160,160
70,57,348320,160
68,69,348480,480
67,57,348960,480
60,83,349440,160
63,67,349600,160
68,67,349760,80
68,72,349920,80
68,63,350080,80
68,63,350240,80
67,82,350400,160
70,67,350560,160
73,67,350720,80
73,72,350880,80
73,65,351040,80
73,65,351200,80
72,86,351360,160
75,70,351520,160
80,70,351680,80
80,70,351840,80
80,68,352000,80
80,69,352160,80
79,74,352320,160
82,70,352480,160
85,70,352640,80
85,74,352800,80
85,70,352960,80
85,66,353120,80
84,86,353280,160
87,84,353440,160
85,75,353600,160
84,86,353760,160
82,78,353920,160
80,78,354080,160
79,86,354240,160
77,77,354400,160
75,75,354560,160
73,86,354720,160
72,77,354880,160
70,77,355040,160
68,86,355200,160
84,87,355360,160
82,75,355520,160
80,86,355680,160
79,82,355840,160
77,82,356000,160
75,86,356160,160
73,77,356320,160
72,75,356480,160
70,86,356640,160
68,77,356800,160
67,77,356960,160
65,86,357120,360
77,78,357480,120
73,86,357600,360
70,74,357960,120
68,85,358080,480
67,62,358560,60
68,56,358620,60
67,62,358680,60
68,57,358740,60
67,62,358800,60
68,55,358860,60
67,62,358920,60
68,58,358980,60
84,86,359040,160
87,84,359200,160
85,75,359360,160
84,86,359520,160
82,78,359680,160
80,78,359840,160
79,86,360000,160
77,77,360160,160
75,75,360320,160
73,86,360480,160
72,77,360640,160
70,77,360800,160
68,86,360960,160
84,87,361120,160
82,75,361280,160
80,86,361440,160
79,82,361600,160
77,82,361760,160
75,86,361920,160
73,77,362080,160
72,75,362240,160
70,86,362400,160
68,77,362560,160
67,77,362720,160
65,86,362880,360
77,78,363240,120
73,86,363360,360
70,74,363720,120
68,85,363840,480
67,62,364320,60
68,56,364380,60
67,62,364440,60
68,57,364500,60
67,62,364560,60
68,55,364620,60
67,62,364680,60
68,58,364740,50
68,73,364800,160
72,70,364960,160
70,63,365120,160
68,72,365280,160
67,64,365440,160
65,64,365600,160
63,72,365760,160
61,64,365920,160
60,64,366080,160
61,72,366240,120
63,69,366360,120
65,65,366480,120
67,62,366600,120
68,73,366720,160
72,70,366880,160
70,63,367040,160
68,72,367200,160
67,64,367360,160
65,64,367520,160
63,72,367680,160
61,64,367840,160
60,64,368000,160
61,72,368160,120
63,69,368280,120
65,65,368400,120
67,62,368520,120
68,73,368640,160
72,70,368800,160
70,63,368960,160
68,72,369120,160
67,64,369280,160
65,64,369440,160
63,72,369600,160
61,64,369760,160
60,64,369920,160
68,72,370080,160
67,64,370240,160
65,64,370400,160
63,72,370560,160
61,64,370720,160
60,64,370880,160
68,72,371040,160
67,64,371200,160
65,64,371360,160
63,72,371520,160
61,64,371680,160
60,64,371840,160
68,72,372000,360
60,51,372360,110
60,51,372480,80
61,46,372560,80
60,51,372640,80
61,45,372720,80
60,51,372800,80
61,45,372880,80
60,51,372960,60
61,46,373020,60
60,51,373080,60
61,45,373140,60
60,58,373200,120
61,51,373320,120
63,59,373440,480
63,59,373920,480
68,51,374400,1380
72,57,375780,60
70,45,375840,480
68,51,376320,480
68,45,376800,480
68,45,377280,480
73,49,377760,120
70,44,377880,360
75,49,378240,480
75,45,378720,480
75,44,379200,480
73,48,379680,120
70,43,379800,360
68,48,380160,1380
72,51,381540,60
70,42,381600,480
68,46,382080,480
68,42,382560,480
68,42,383040,480
73,45,383520,120
70,41,383640,360
75,45,384000,480
75,41,384480,480
75,40,384960,480
73,45,385440,120
70,40,385560,360
68,44,385920,1380
72,42,387300,60
70,34,387360,480
68,40,387840,480
75,36,388320,480
72,30,388320,480
72,30,388800,480
75,36,388800,480
44,49,1920,480
56,58,1920,480
43,49,2880,480
55,58,2880,480
44,47,4320,480
56,58,4800,180
58,31,6240,480
55,39,6720,180
56,47,8160,480
44,58,8640,180
48,52,9120,480
49,58,9600,960
51,52,11040,480
44,47,11880,120
48,58,12000,360
51,52,12360,120
56,59,12480,360
56,49,13440,480
60,58,13440,480
55,49,14400,480
58,58,14400,480
44,47,15840,480
56,58,16320,480
60,58,16800,480
61,58,17760,120
60,58,18720,120
58,58,19680,120
56,58,20640,120
61,49,21600,480
49,49,21600,480
51,58,22080,960
60,58,22080,480
58,55,22560,480
56,55,23040,160
60,47,23200,160
63,47,23360,160
56,55,23520,160
60,47,23680,160
63,49,23840,160
56,55,24000,160
60,50,24160,160
63,50,24320,160
55,55,24480,160
58,52,24640,160
63,52,24800,160
56,55,24960,160
60,47,25120,160
63,47,25280,160
56,55,25440,160
60,47,25600,160
63,37,25760,160
56,50,25920,160
60,41,26080,160
63,41,26240,160
56,50,26400,160
60,46,26560,160
63,46,26720,160
56,55,26880,160
60,47,27040,160
63,47,27200,160
56,55,27360,160
60,47,27520,160
63,49,27680,160
56,55,27840,160
60,50,28000,160
63,50,28160,160
58,55,28320,160
61,52,28480,160
67,52,28640,160
60,55,28800,160
63,47,28960,160
68,47,29120,160
60,55,29280,160
63,47,29440,160
68,39,29600,160
60,52,29760,160
63,43,29920,160
68,43,30080,160
60,53,30240,160
63,44,30400,160
68,44,30560,160
60,55,30720,160
63,47,30880,160
68,47,31040,160
60,55,31200,160
63,47,31360,160
68,39,31520,160
60,46,31680,160
63,36,31840,160
68,36,32000,160
60,47,32160,160
63,40,32320,160
68,40,32480,160
61,55,32640,160
65,47,32800,160
68,47,32960,160
61,55,33120,160
65,47,33280,160
68,39,33440,160
61,49,33600,160
63,39,33760,160
67,39,33920,160
61,50,34080,160
63,44,34240,160
67,44,34400,160
60,55,34560,160
63,47,34720,160
68,47,34880,160
60,55,35040,160
63,47,35200,160
68,39,35360,160
58,52,35520,160
61,43,35680,160
67,43,35840,160
58,53,36000,160
61,44,36160,160
67,44,36320,160
56,55,36480,480
63,39,38880,480
67,46,38880,480
51,58,40320,360
55,58,40800,240
50,58,41280,240
50,58,42240,360
58,44,42720,240
51,53,43200,360
58,47,43680,240
53,55,44160,360
62,37,44640,240
55,56,45120,360
63,44,45600,240
56,55,46080,160
60,47,46240,160
63,47,46400,160
56,55,46560,160
60,47,46720,160
63,39,46880,160
56,52,47040,160
60,43,47200,160
63,43,47360,160
55,53,47520,160
58,44,47680,160
61,44,47840,160
56,55,48000,480
55,55,49920,160
58,47,50080,160
63,47,50240,160
55,55,50400,160
58,47,50560,160
63,39,50720,160
55,52,50880,160
58,43,51040,160
63,43,51200,160
53,53,51360,160
56,44,51520,160
59,44,51680,160
55,55,51840,480
58,55,53760,160
62,47,53920,160
65,47,54080,160
58,55,54240,160
62,47,54400,160
65,39,54560,160
58,52,54720,160
62,43,54880,160
65,43,55040,160
58,53,55200,160
63,44,55360,160
67,44,55520,160
58,53,55680,160
65,44,55840,160
68,44,56000,160
58,50,56160,160
65,39,56320,160
68,39,56480,160
58,47,56640,160
65,42,56800,160
68,42,56960,160
58,53,57120,160
63,44,57280,160
67,44,57440,160
58,55,57600,160
62,47,57760,160
65,47,57920,160
58,55,58080,160
62,47,58240,160
65,39,58400,160
58,52,58560,160
62,43,58720,160
65,43,58880,160
58,53,59040,160
63,44,59200,160
67,44,59360,160
58,53,59520,160
65,44,59680,160
68,44,59840,160
58,50,60000,160
65,39,60160,160
68,39,60320,160
58,47,60480,160
65,42,60640,160
68,42,60800,160
58,53,60960,160
63,44,61120,160
67,44,61280,160
58,55,61440,160
62,47,61600,160
65,47,61760,160
58,55,61920,160
62,47,62080,160
65,39,62240,160
59,61,62400,160
62,43,62560,160
65,43,62720,160
60,53,62880,160
62,44,63040,160
63,44,63200,160
56,55,63360,480
58,40,64320,960
67,62,64320,480
68,47,64800,480
60,30,65280,1440
68,55,65280,960
67,37,66240,480
51,56,67680,240
48,47,67680,240
51,58,68160,240
48,49,68160,240
51,58,68640,240
48,49,68640,240
46,47,69600,240
53,56,69600,240
50,47,69600,240
46,49,70080,240
53,58,70080,240
50,49,70080,240
46,49,70560,240
53,58,70560,240
50,49,70560,240
51,56,71040,480
46,47,72000,480
53,56,72000,480
51,52,72960,480
55,56,72960,480
46,51,73920,480
53,61,73920,480
51,57,74880,480
55,61,74880,480
56,49,77280,480
44,40,77280,480
46,43,77760,480
55,52,77760,480
53,49,78240,480
46,40,78240,480
63,58,78720,160
67,62,78880,160
65,51,79040,160
63,58,79200,160
62,56,79360,160
60,56,79520,160
58,58,79680,160
56,52,79840,160
55,51,80000,160
53,58,80160,160
51,52,80320,160
50,52,80480,160
48,58,80640,160
63,62,80800,160
62,51,80960,160
60,58,81120,160
58,56,81280,160
56,56,81440,160
55,58,81600,160
53,52,81760,160
51,51,81920,160
50,58,82080,160
48,52,82240,160
46,52,82400,160
44,58,82560,960
46,51,83520,480
46,50,84000,480
63,50,84480,160
67,53,84640,160
65,47,84800,160
63,54,84960,160
62,51,85120,160
60,51,85280,160
58,58,85440,160
56,52,85600,160
55,51,85760,160
53,58,85920,160
51,52,86080,160
50,52,86240,160
48,58,86400,160
63,62,86560,160
62,51,86720,160
60,58,86880,160
58,56,87040,160
56,56,87200,160
55,58,87360,160
53,52,87520,160
51,51,87680,160
50,58,87840,160
48,52,88000,160
46,52,88160,160
44,58,88320,960
46,51,89280,480
46,50,89760,480
63,36,90240,160
67,31,90400,160
70,31,90560,160
63,36,90720,160
67,32,90880,160
70,32,91040,160
63,36,91200,160
67,31,91360,160
70,31,91520,160
63,37,91680,160
68,32,91840,160
74,32,92000,160
63,36,92160,160
67,31,92320,160
70,30,92480,160
63,35,92640,160
67,31,92800,160
70,31,92960,160
63,35,93120,160
67,30,93280,160
70,30,93440,160
63,36,93600,160
68,31,93760,160
74,31,93920,160
63,34,94080,160
67,30,94240,160
70,30,94400,160
63,34,94560,160
67,31,94720,160
70,30,94880,160
63,34,95040,160
67,29,95200,160
70,29,95360,160
63,35,95520,160
68,30,95680,160
74,30,95840,160
63,34,96000,160
67,29,96160,160
70,29,96320,160
63,34,96480,160
67,30,96640,160
70,30,96800,160
63,33,96960,160
67,29,97120,160
70,29,97280,160
63,34,97440,160
68,29,97600,160
74,29,97760,160
63,33,97920,160
67,28,98080,160
70,28,98240,160
63,33,98400,160
67,29,98560,160
70,29,98720,160
63,33,98880,160
67,28,99040,160
70,28,99200,160
63,33,99360,160
68,29,99520,160
74,29,99680,160
63,32,99840,160
67,27,100000,160
70,27,100160,160
63,32,100320,160
67,28,100480,160
70,28,100640,160
63,32,100800,160
67,27,100960,160
70,27,101120,160
63,32,101280,160
68,28,101440,160
74,28,101600,160
63,31,101760,160
67,26,101920,160
70,26,102080,160
63,29,102240,160
67,26,102400,160
70,25,102560,160
63,27,102720,160
67,23,102880,160
70,22,103040,160
63,26,103200,160
68,22,103360,160
74,22,103520,160
67,30,103680,480
63,30,103680,480
39,24,105120,480
43,29,105120,480
39,24,105600,480
43,29,105600,480
44,49,107520,480
56,58,107520,480
43,49,108480,480
55,58,108480,480
44,47,109920,480
56,58,110400,180
58,31,111840,480
55,39,112320,180
56,47,113760,480
44,58,114240,180
48,52,114720,480
49,58,115200,960
51,52,116640,480
44,47,117480,120
48,58,117600,360
51,52,117960,120
56,59,118080,360
56,49,119040,480
60,58,119040,480
55,49,120000,480
58,58,120000,480
44,47,121440,480
56,58,121920,480
60,58,122400,480
61,58,123360,120
60,58,124320,120
58,58,125280,120
56,58,126240,120
61,49,127200,480
49,49,127200,480
51,58,127680,960
60,58,127680,480
58,55,128160,480
56,55,128640,160
60,47,128800,160
63,47,128960,160
56,55,129120,160
60,47,129280,160
63,49,129440,160
56,55,129600,160
60,50,129760,160
63,50,129920,160
55,55,130080,160
58,52,130240,160
63,52,130400,160
56,55,130560,160
60,47,130720,160
63,47,130880,160
56,55,131040,160
60,47,131200,160
63,37,131360,160
56,50,131520,160
60,41,131680,160
63,41,131840,160
56,50,132000,160
60,46,132160,160
63,46,132320,160
56,55,132480,160
60,47,132640,160
63,47,132800,160
56,55,132960,160
60,47,133120,160
63,49,133280,160
56,55,133440,160
60,50,133600,160
63,50,133760,160
58,55,133920,160
61,52,134080,160
67,52,134240,160
60,55,134400,160
63,47,134560,160
68,47,134720,160
60,55,134880,160
63,47,135040,160
68,39,135200,160
60,52,135360,160
63,43,135520,160
68,43,135680,160
60,53,135840,160
63,44,136000,160
68,44,136160,160
60,55,136320,160
63,47,136480,160
68,47,136640,160
60,55,136800,160
63,47,136960,160
68,39,137120,160
60,46,137280,160
63,36,137440,160
68,36,137600,160
60,47,137760,160
63,40,137920,160
68,40,138080,160
61,55,138240,160
65,47,138400,160
68,47,138560,160
61,55,138720,160
65,47,138880,160
68,39,139040,160
61,49,139200,160
63,39,139360,160
67,39,139520,160
61,50,139680,160
63,44,139840,160
67,44,140000,160
60,55,140160,160
63,47,140320,160
68,47,140480,160
60,55,140640,160
63,47,140800,160
68,39,140960,160
58,52,141120,160
61,43,141280,160
67,43,141440,160
58,53,141600,160
61,44,141760,160
67,44,141920,160
56,55,142080,480
63,39,144480,480
67,46,144480,480
51,58,145920,360
55,58,146400,240
50,58,146880,240
50,58,147840,360
58,44,148320,240
51,53,148800,360
58,47,149280,240
53,55,149760,360
62,37,150240,240
55,56,150720,360
63,44,151200,240
56,55,151680,160
60,47,151840,160
63,47,152000,160
56,55,152160,160
60,47,152320,160
63,39,152480,160
56,52,152640,160
60,43,152800,160
63,43,152960,160
55,53,153120,160
58,44,153280,160
61,44,153440,160
56,55,153600,480
55,55,155520,160
58,47,155680,160
63,47,155840,160
55,55,156000,160
58,47,156160,160
63,39,156320,160
55,52,156480,160
58,43,156640,160
63,43,156800,160
53,53,156960,160
56,44,157120,160
59,44,157280,160
55,55,157440,480
58,55,159360,160
62,47,159520,160
65,47,159680,160
58,55,159840,160
62,47,160000,160
65,39,160160,160
58,52,160320,160
62,43,160480,160
65,43,160640,160
58,53,160800,160
63,44,160960,160
67,44,161120,160
58,53,161280,160
65,44,161440,160
68,44,161600,160
58,50,161760,160
65,39,161920,160
68,39,162080,160
58,47,162240,160
65,42,162400,160
68,42,162560,160
58,53,162720,160
63,44,162880,160
67,44,163040,160
58,55,163200,160
62,47,163360,160
65,47,163520,160
58,55,163680,160
62,47,163840,160
65,39,164000,160
58,52,164160,160
62,43,164320,160
65,43,164480,160
58,53,164640,160
63,44,164800,160
67,44,164960,160
58,53,165120,160
65,44,165280,160
68,44,165440,160
58,50,165600,160
65,39,165760,160
68,39,165920,160
58,47,166080,160
65,42,166240,160
68,42,166400,160
58,53,166560,160
63,44,166720,160
67,44,166880,160
58,55,167040,160
62,47,167200,160
65,47,167360,160
58,55,167520,160
62,47,167680,160
65,39,167840,160
59,61,168000,160
62,43,168160,160
65,43,168320,160
60,53,168480,160
62,44,168640,160
63,44,168800,160
56,55,168960,480
58,40,169920,960
67,62,169920,480
68,47,170400,480
60,30,170880,1440
68,55,170880,960
67,37,171840,480
51,56,173280,240
48,47,173280,240
51,58,173760,240
48,49,173760,240
51,58,174240,240
48,49,174240,240
46,47,175200,240
53,56,175200,240
50,47,175200,240
46,49,175680,240
53,58,175680,240
50,49,175680,240
46,49,176160,240
53,58,176160,240
50,49,176160,240
51,56,176640,480
46,47,177600,480
53,56,177600,480
51,52,178560,480
55,56,178560,480
46,47,179520,480
53,56,179520,480
51,57,180480,480
55,61,180480,480
56,49,182880,480
44,40,182880,480
46,43,183360,480
55,52,183360,480
53,49,183840,480
46,40,183840,480
63,58,184320,160
67,62,184480,160
65,51,184640,160
63,58,184800,160
62,56,184960,160
60,56,185120,160
58,58,185280,160
56,52,185440,160
55,51,185600,160
53,58,185760,160
51,52,185920,160
50,52,186080,160
48,58,186240,160
63,62,186400,160
62,51,186560,160
60,58,186720,160
58,56,186880,160
56,56,187040,160
55,58,187200,160
53,52,187360,160
51,51,187520,160
50,58,187680,160
48,52,187840,160
46,52,188000,160
44,58,188160,960
46,51,189120,480
46,50,189600,480
63,50,190080,160
67,53,190240,160
65,47,190400,160
63,54,190560,160
62,51,190720,160
60,51,190880,160
58,58,191040,160
56,52,191200,160
55,51,191360,160
53,58,191520,160
51,52,191680,160
50,52,191840,160
48,58,192000,160
63,62,192160,160
62,51,192320,160
60,58,192480,160
58,56,192640,160
56,56,192800,160
55,58,192960,160
53,52,193120,160
51,51,193280,160
50,58,193440,160
48,52,193600,160
46,52,193760,160
44,58,193920,960
46,51,194880,480
46,50,195360,480
63,36,195840,160
67,31,196000,160
70,31,196160,160
63,36,196320,160
67,32,196480,160
70,32,196640,160
63,36,196800,160
67,31,196960,160
70,31,197120,160
63,37,197280,160
68,32,197440,160
74,32,197600,160
63,36,197760,160
67,31,197920,160
70,30,198080,160
63,35,198240,160
67,31,198400,160
70,31,198560,160
63,35,198720,160
67,30,198880,160
70,30,199040,160
63,36,199200,160
68,31,199360,160
74,31,199520,160
63,34,199680,160
67,30,199840,160
70,30,200000,160
63,34,200160,160
67,31,200320,160
70,30,200480,160
63,34,200640,160
67,29,200800,160
70,29,200960,160
63,35,201120,160
68,30,201280,160
74,30,201440,160
63,34,201600,160
67,29,201760,160
70,29,201920,160
63,34,202080,160
67,30,202240,160
70,30,202400,160
63,33,202560,160
67,29,202720,160
70,29,202880,160
63,34,203040,160
68,29,203200,160
74,29,203360,160
63,33,203520,160
67,28,203680,160
70,28,203840,160
63,33,204000,160
67,29,204160,160
70,29,204320,160
63,33,204480,160
67,28,204640,160
70,28,204800,160
63,33,204960,160
68,29,205120,160
74,29,205280,160
63,32,205440,160
67,27,205600,160
70,27,205760,160
63,32,205920,160
67,28,206080,160
70,28,206240,160
63,32,206400,160
67,27,206560,160
70,27,206720,160
63,32,206880,160
68,28,207040,160
74,28,207200,160
63,31,207360,160
67,26,207520,160
70,26,207680,160
63,29,207840,160
67,26,208000,160
70,25,208160,160
63,27,208320,160
67,23,208480,160
70,22,208640,160
63,26,208800,160
68,22,208960,160
74,22,209120,160
67,30,209280,480
63,30,209280,480
39,24,210720,480
43,29,210720,480
39,24,211200,480
43,29,211200,480
39,49,213120,480
51,58,213120,480
38,49,214080,480
50,58,214080,480
39,47,215520,480
51,58,216000,180
53,31,217440,480
50,39,217920,180
51,47,219360,480
39,58,219840,180
43,52,220320,480
44,58,220800,480
46,52,222240,480
51,47,223080,120
55,58,223200,360
58,52,223560,120
63,59,223680,480
68,47,226920,120
67,58,227040,360
65,52,227400,120
64,59,227520,360
67,50,227880,120
60,57,228000,360
64,52,228360,120
65,46,228480,160
68,39,228640,160
72,39,228800,160
65,46,228960,160
68,39,229120,160
72,41,229280,160
65,46,229440,160
68,42,229600,160
72,42,229760,160
64,46,229920,160
67,44,230080,160
72,44,230240,160
65,46,230400,160
68,39,230560,160
72,39,230720,160
65,46,230880,160
68,39,231040,160
72,31,231200,160
65,42,231360,160
68,34,231520,160
72,34,231680,160
65,42,231840,160
68,39,232000,160
72,39,232160,160
63,46,232320,160
66,39,232480,160
72,39,232640,160
63,46,232800,160
66,39,232960,160
72,35,233120,160
63,42,233280,160
66,38,233440,160
72,38,233600,160
63,42,233760,160
66,39,233920,160
72,39,234080,160
61,46,234240,160
65,39,234400,160
68,39,234560,160
61,46,234720,160
65,39,234880,160
68,31,235040,160
61,42,235200,160
65,34,235360,160
68,34,235520,160
61,42,235680,160
65,39,235840,160
68,39,236000,160
62,46,236160,160
65,39,236320,160
70,39,236480,160
62,46,236640,160
65,39,236800,160
70,35,236960,160
62,42,237120,160
65,38,237280,160
70,38,237440,160
62,42,237600,160
65,39,237760,160
70,39,237920,160
63,46,238080,160
67,39,238240,160
70,39,238400,160
63,46,238560,160
67,39,238720,160
70,31,238880,160
63,42,239040,160
67,34,239200,160
70,34,239360,160
63,42,239520,160
67,39,239680,160
70,39,239840,160
65,39,240000,160
68,33,240160,160
71,33,240320,160
65,39,240480,160
68,33,240640,160
71,30,240800,160
65,37,240960,160
68,33,241120,160
71,34,241280,160
65,38,241440,160
68,36,241600,160
71,36,241760,160
63,43,241920,160
68,37,242080,160
71,37,242240,160
63,44,242400,160
68,38,242560,160
71,34,242720,160
63,42,242880,160
68,38,243040,160
71,39,243200,160
63,42,243360,160
68,41,243520,160
71,41,243680,160
61,49,243840,160
68,42,244000,160
71,42,244160,160
61,50,244320,160
68,43,244480,160
71,39,244640,160
61,48,244800,160
68,43,244960,160
71,44,245120,160
61,48,245280,160
68,45,245440,160
71,46,245600,160
61,55,245760,160
66,47,245920,160
70,47,246079,160
61,57,246240,160
66,48,246400,160
70,44,246559,160
61,53,246720,160
66,48,246880,160
70,48,247039,160
61,54,247200,160
66,51,247360,160
70,51,247519,160
61,62,247680,160
65,52,247840,160
68,47,248000,160
61,57,248160,160
65,47,248320,160
68,41,248480,160
61,46,248640,160
65,41,248800,160
68,41,248960,160
61,42,249120,160
65,39,249280,160
68,39,249440,160
62,46,249600,160
65,39,249760,160
70,39,249920,160
62,46,250080,160
65,39,250240,160
70,35,250400,160
62,42,250560,160
65,38,250720,160
70,38,250880,160
62,42,251040,160
65,39,251200,160
70,39,251360,160
63,46,251520,160
70,39,251680,160
73,39,251840,160
63,46,252000,160
70,39,252160,160
73,31,252320,160
63,42,252480,160
70,34,252640,160
73,34,252800,160
63,42,252960,160
67,39,253120,160
70,39,253280,160
64,50,253440,160
67,42,253600,160
72,42,253760,160
64,50,253920,160
67,42,254080,160
72,38,254240,160
64,46,254400,160
67,41,254560,160
72,41,254720,160
64,46,254880,160
67,42,255040,160
72,42,255200,160
65,50,255360,480
45,46,259200,160
48,39,259360,160
51,39,259520,160
45,46,259680,160
48,39,259840,160
51,41,260000,160
45,46,260160,160
48,42,260320,160
51,42,260480,160
45,46,260640,160
48,44,260800,160
53,44,260960,160
46,46,261120,160
49,39,261286,160
53,39,261435,160
46,46,261600,160
49,39,261760,160
53,41,261920,160
46,46,262075,160
49,42,262235,160
53,42,262400,160
46,46,262560,160
49,44,262720,160
53,44,262880,160
47,46,263040,160
50,39,263200,160
53,39,263360,160
47,46,263520,160
50,39,263680,160
53,41,263840,160
47,46,264000,160
50,42,264160,160
53,42,264320,160
47,46,264480,160
50,44,264640,160
55,44,264800,160
48,56,264960,480
48,47,265920,480
52,56,265920,480
48,47,266880,480
52,56,266880,480
48,48,267840,480
52,58,267840,480
53,50,268800,480
56,59,268800,480
48,52,269760,480
55,62,269760,480
53,53,270720,480
56,63,270720,480
46,54,271680,480
58,65,271680,480
60,66,272640,480
48,56,273600,480
57,40,274560,160
60,32,274720,160
66,32,274880,160
57,39,275040,160
60,33,275200,160
66,33,275360,160
57,38,275520,160
60,33,275680,160
66,33,275840,160
57,40,276000,160
60,32,276160,160
66,32,276320,160
58,38,276480,160
65,33,276640,160
68,33,276800,160
58,38,276960,160
65,33,277120,160
68,33,277280,160
58,38,277440,160
65,32,277600,160
68,32,277760,160
58,40,277920,160
65,34,278080,160
68,34,278240,160
55,47,278400,160
58,40,278560,160
63,40,278720,160
55,48,278880,160
58,40,279040,160
63,37,279200,160
55,44,279360,160
58,40,279520,160
63,40,279680,160
55,45,279840,160
58,42,280000,160
63,42,280160,160
56,47,280320,160
60,40,280480,160
63,40,280640,160
56,48,280800,160
60,40,280960,160
63,37,281120,160
48,44,281280,160
51,40,281440,160
56,40,281600,160
48,45,281760,160
51,42,281920,160
56,42,282080,160
49,47,282240,160
53,40,282400,160
56,40,282560,160
49,48,282720,160
53,40,282880,160
56,37,283040,160
50,44,283200,160
53,40,283360,160
58,40,283520,160
50,45,283680,160
53,42,283840,160
58,42,284000,160
51,55,284160,960
53,47,286080,960
56,55,286080,960
53,24,293280,480
56,24,293280,480
58,29,293280,480
39,36,298080,480
44,49,299520,480
56,58,299520,480
43,49,300480,480
55,58,300480,480
44,47,301920,480
56,58,302400,180
58,31,303840,480
55,39,304320,180
56,47,305760,480
44,58,306240,180
48,52,306720,480
49,58,307200,960
51,52,308640,480
44,47,309480,120
48,58,309600,360
51,52,309960,120
56,59,310080,360
56,49,311040,480
60,58,311040,480
55,49,312000,480
58,58,312000,480
44,47,313440,480
56,58,313920,480
60,58,314400,480
61,58,315360,120
60,58,316320,120
58,58,317280,120
56,58,318240,120
61,49,319200,480
49,49,319200,480
51,58,319680,960
60,58,319680,480
58,55,320160,480
56,55,320640,160
60,47,320800,160
63,47,320960,160
56,55,321120,160
60,47,321280,160
63,49,321440,160
56,55,321600,160
60,50,321760,160
63,50,321920,160
55,55,322080,160
58,52,322240,160
63,52,322400,160
56,55,322560,160
60,47,322720,160
63,47,322880,160
56,55,323040,160
60,47,323200,160
63,37,323360,160
56,50,323520,160
60,41,323680,160
63,41,323840,160
56,50,324000,160
60,46,324160,160
63,46,324320,160
56,55,324480,160
60,47,324640,160
63,47,324800,160
56,55,324960,160
60,47,325120,160
63,49,325280,160
56,55,325440,160
60,50,325600,160
63,50,325760,160
58,55,325920,160
61,52,326080,160
67,52,326240,160
60,55,326400,160
63,47,326560,160
68,47,326720,160
60,55,326880,160
63,47,327040,160
68,39,327200,160
60,52,327360,160
63,43,327520,160
68,43,327680,160
60,53,327840,160
63,44,328000,160
68,44,328160,160
60,55,328320,160
63,47,328480,160
68,47,328640,160
60,55,328800,160
63,47,328960,160
68,39,329120,160
60,46,329280,160
63,36,329440,160
68,36,329600,160
60,47,329760,160
63,40,329920,160
68,40,330080,160
61,55,330240,160
65,47,330400,160
68,47,330560,160
61,55,330720,160
65,47,330880,160
68,39,331040,160
61,49,331200,160
63,39,331360,160
67,39,331520,160
61,50,331680,160
63,44,331840,160
67,44,332000,160
60,55,332160,160
63,47,332320,160
68,47,332480,160
60,55,332640,160
63,47,332800,160
68,39,332960,160
58,52,333120,160
61,43,333280,160
67,43,333440,160
58,53,333600,160
61,44,333760,160
67,44,333920,160
56,55,334080,480
63,39,336480,480
67,46,336480,480
51,42,337920,160
55,35,338080,160
58,35,338240,160
51,40,338400,160
55,31,338560,160
58,31,338720,160
51,37,338880,160
55,33,339040,160
58,33,339200,160
51,42,339360,160
56,35,339520,160
60,35,339680,160
51,42,339840,160
58,35,340000,160
61,35,340160,160
51,40,340320,160
58,31,340480,160
61,31,340640,160
51,37,340800,160
58,33,340960,160
61,33,341120,160
51,42,341280,160
56,35,341440,160
60,35,341600,160
51,42,341760,160
55,35,341920,160
58,35,342080,160
51,40,342240,160
55,31,342400,160
58,31,342560,160
51,37,342720,160
55,33,342880,160
58,33,343040,160
51,42,343200,160
56,35,343360,160
60,35,343520,160
51,42,343680,160
58,35,343840,160
61,35,344000,160
51,40,344160,160
58,31,344320,160
61,31,344480,160
51,37,344640,160
58,33,344800,160
61,33,344960,160
51,42,345120,160
56,35,345280,160
60,35,345440,160
51,42,345600,160
55,35,345760,160
58,35,345920,160
51,40,346080,160
55,31,346240,160
58,31,346400,160
52,41,346560,160
55,33,346720,160
58,33,346880,160
53,42,347040,160
55,35,347200,160
56,35,347360,160
49,52,347520,960
61,38,348000,480
60,50,348480,480
51,50,348480,960
58,39,348960,480
56,70,349440,480
51,58,350400,480
58,70,350400,480
56,65,351360,480
60,70,351360,480
58,68,352320,480
51,68,352320,480
56,65,353280,1440
60,70,353280,1440
61,54,354720,480
58,54,354720,480
60,65,355200,480
63,70,355200,480
49,65,357120,960
61,58,357600,480
60,65,358080,480
51,55,358080,960
58,61,358560,480
56,65,359040,1440
60,70,359040,1440
61,54,360480,480
58,54,360480,480
60,65,360960,480
63,70,360960,480
49,65,362880,960
61,58,363360,480
60,65,363840,480
51,55,363840,960
58,61,364320,480
56,58,364800,160
60,56,364960,160
58,50,365120,160
56,57,365280,160
55,51,365440,160
53,51,365600,160
51,57,365760,160
49,51,365920,160
48,51,366080,160
49,57,366240,120
51,55,366360,120
53,52,366480,120
55,49,366600,120
56,58,366720,160
60,56,366880,160
58,50,367040,160
56,57,367200,160
55,51,367360,160
53,51,367520,160
51,57,367680,160
49,51,367840,160
48,51,368000,160
49,57,368160,120
51,55,368280,120
53,52,368400,120
55,49,368520,120
56,58,368640,160
60,56,368800,160
58,50,368960,160
56,57,369120,160
55,51,369280,160
53,51,369440,160
51,57,369600,160
49,51,369760,160
48,51,369920,160
56,57,370080,160
55,51,370240,160
53,51,370400,160
51,57,370560,160
49,51,370720,160
48,51,370880,160
56,57,371040,160
55,51,371200,160
53,51,371360,160
51,57,371520,160
49,51,371680,160
48,51,371840,160
56,57,372000,360
48,40,372360,110
48,40,372480,80
49,36,372560,80
48,40,372640,80
49,36,372720,80
48,40,372800,80
49,36,372880,80
48,40,372960,60
49,36,373020,60
48,40,373080,60
49,36,373140,60
48,46,373200,120
49,40,373320,120
51,47,373440,480
51,47,373920,480
56,30,374400,160
60,26,374560,160
63,26,374720,160
56,30,374880,160
60,27,375040,160
63,27,375200,160
56,30,375360,160
60,26,375520,160
63,26,375680,160
56,31,375840,160
61,27,376000,160
67,27,376160,160
56,30,376320,160
60,26,376480,160
63,25,376640,160
56,29,376800,160
60,26,376960,160
63,26,377120,160
56,29,377280,160
60,25,377440,160
63,25,377600,160
56,30,377760,160
61,26,377920,160
67,26,378080,160
56,28,378240,160
60,25,378400,160
63,25,378560,160
56,28,378720,160
60,26,378880,160
63,25,379040,160
56,28,379200,160
60,24,379360,160
63,24,379520,160
56,29,379680,160
61,25,379840,160
67,25,380000,160
56,28,380160,160
60,24,380320,160
63,24,380480,160
56,28,380640,160
60,25,380800,160
63,25,380960,160
56,28,381120,160
60,24,381280,160
63,24,381440,160
56,28,381600,160
61,24,381760,160
67,24,381920,160
56,28,382080,160
60,23,382240,160
63,23,382400,160
56,28,382560,160
60,24,382720,160
63,24,382880,160
56,28,383040,160
60,23,383200,160
63,23,383360,160
56,28,383520,160
61,24,383680,160
67,24,383840,160
56,27,384000,160
60,22,384160,160
63,22,384320,160
56,27,384480,160
60,23,384640,160
63,23,384800,160
56,27,384960,160
60,22,385120,160
63,22,385280,160
56,27,385440,160
61,23,385600,160
67,23,385760,160
56,26,385920,160
60,22,386080,160
63,22,386240,160
56,24,386400,160
60,22,386560,160
63,21,386720,160
56,22,386880,160
60,19,387040,160
63,18,387200,160
56,22,387360,160
61,18,387520,160
67,18,387680,160
60,25,387840,480
56,25,387840,480
44,20,389280,480
48,24,389280,480
48,24,389760,480
44,20,389760,480
