note,velocity,position,duration
59,46,1722,1047
66,46,1762,1007
70,60,1802,967
73,61,1842,808
78,61,1882,768
82,75,1922,728
83,64,2650,110
73,56,2767,1073
80,66,2767,1073
59,44,2890,950
65,44,2890,950
68,58,2890,950
66,54,3842,492
73,61,3842,728
80,71,3842,728
65,50,4334,475
82,64,4570,110
78,64,4687,598
61,52,4809,476
59,50,5285,475
73,65,5285,150
71,64,5445,145
70,64,5600,150
56,49,5762,1918
71,69,5762,253
71,64,6015,110
78,64,6133,596
80,67,6729,476
82,65,7205,475
71,61,7580,830
75,61,7633,777
78,61,7652,758
49,52,7682,967
83,75,7682,728
66,74,8410,110
78,88,8410,117
68,74,8527,115
80,88,8527,122
38,77,8649,476
50,92,8649,476
69,77,8649,225
81,91,8649,239
71,74,8888,110
83,88,8888,117
69,74,9005,227
81,88,9005,241
40,75,9125,475
52,90,9125,475
68,74,9246,109
80,88,9246,116
66,74,9362,223
78,88,9362,238
42,78,9602,130
78,85,9602,130
49,73,9739,109
73,80,9739,109
54,73,9856,109
66,80,9856,109
49,73,9973,114
78,80,9973,114
54,74,10094,114
73,81,10094,114
49,73,10215,108
66,80,10215,108
54,73,10331,109
78,80,10331,109
49,73,10447,115
73,80,10447,115
42,76,10570,116
78,83,10570,116
49,73,10693,108
73,80,10693,108
54,73,10809,109
66,80,10809,109
49,73,10925,113
78,80,10925,113
54,74,11046,113
73,81,11046,113
49,73,11166,109
66,80,11166,109
54,73,11282,109
68,72,11282,223
80,86,11282,238
49,73,11399,114
47,78,11522,130
70,77,11522,130
82,91,11522,137
54,73,11659,109
75,80,11659,109
59,73,11776,109
70,80,11776,109
54,73,11893,114
82,80,11893,114
59,74,12014,114
75,81,12014,114
54,73,12135,108
70,80,12135,108
59,73,12251,109
82,80,12251,109
54,73,12367,115
75,80,12367,115
47,76,12490,116
82,83,12490,116
54,73,12613,108
75,80,12613,108
59,73,12729,109
70,80,12729,109
54,73,12845,113
82,80,12845,113
59,74,12966,113
75,81,12966,113
54,73,13086,109
70,80,13086,116
59,73,13202,109
70,72,13202,223
82,86,13202,238
54,73,13319,114
49,78,13442,130
68,77,13442,130
80,91,13442,137
56,73,13579,109
73,80,13579,109
61,73,13696,109
68,80,13696,109
56,73,13813,114
80,80,13813,114
61,74,13934,114
73,81,13934,114
56,73,14055,108
68,80,14055,108
61,73,14171,109
80,80,14171,109
56,73,14287,115
73,80,14287,115
49,76,14410,116
80,83,14410,116
56,73,14533,108
73,80,14533,108
61,73,14649,109
68,80,14649,109
56,73,14765,113
80,80,14765,113
61,74,14886,113
73,81,14886,113
56,73,15006,109
68,80,15006,116
61,73,15122,109
68,72,15122,238
80,82,15122,238
56,73,15239,114
51,78,15362,130
68,77,15362,253
80,87,15362,253
58,73,15499,109
63,73,15615,110
68,72,15615,239
80,82,15615,239
58,73,15733,114
63,74,15854,114
68,73,15854,114
80,87,15854,121
58,73,15975,108
70,72,15975,108
82,86,15975,115
63,73,16090,110
68,72,16090,225
80,86,16090,239
58,73,16207,115
63,76,16329,476
87,83,16329,80
85,80,16414,73
84,80,16492,72
82,80,16569,72
80,80,16646,73
79,80,16724,76
51,81,16805,475
77,81,16805,77
75,80,16887,73
73,80,16965,72
72,80,17042,73
70,80,17120,72
68,80,17198,77
32,83,17282,370
51,74,17282,239
55,74,17282,239
58,94,17282,253
58,87,17535,239
44,67,17652,243
58,88,17774,236
44,67,17895,232
58,87,18010,239
44,67,18127,115
34,89,18249,356
58,97,18249,239
58,87,18488,237
46,67,18605,241
58,88,18725,237
46,67,18846,232
58,87,18962,223
46,67,19078,115
36,84,19202,130
63,92,19202,370
43,67,19339,109
48,67,19456,109
51,67,19572,115
63,87,19572,115
55,68,19694,114
58,88,19694,353
51,67,19815,108
48,67,19931,224
58,87,20047,115
34,82,20170,116
56,89,20170,355
41,67,20293,108
46,67,20409,109
36,79,20525,357
55,86,20525,120
55,87,20645,475
46,81,20882,109
34,79,20999,114
32,83,21122,370
51,82,21122,239
55,96,21122,253
58,87,21375,239
44,64,21492,243
58,88,21614,236
44,64,21735,232
58,87,21850,239
44,64,21967,115
34,82,22089,356
58,90,22089,239
58,87,22328,237
46,64,22445,241
58,88,22565,237
46,64,22686,232
58,87,22802,223
46,64,22918,115
36,84,23042,130
63,92,23042,370
43,64,23179,109
48,64,23296,109
51,64,23412,115
63,87,23412,115
55,73,23534,114
58,88,23534,353
51,64,23655,108
48,64,23771,224
56,81,23887,115
34,82,24010,116
55,84,24010,355
41,67,24133,108
46,67,24249,109
36,65,24365,357
56,81,24365,113
58,88,24486,474
46,67,24722,109
34,79,24839,114
32,91,24962,370
51,86,24962,239
55,100,24962,253
63,87,25215,117
44,68,25332,243
63,87,25332,122
63,88,25454,236
44,68,25575,232
63,87,25690,239
44,68,25807,115
34,82,25929,356
63,90,25929,239
63,87,26168,223
46,68,26285,241
58,88,26406,236
46,68,26526,232
58,87,26642,238
46,68,26758,115
36,84,26882,130
58,78,26882,370
65,92,26882,370
43,68,27019,109
48,68,27136,109
51,68,27252,115
63,90,27252,115
55,66,27374,114
58,74,27374,353
65,88,27374,353
51,68,27495,108
48,68,27611,224
63,90,27727,115
34,82,27850,116
58,76,27850,355
65,90,27850,355
41,81,27973,108
46,81,28089,109
36,79,28205,357
67,86,28205,113
63,91,28326,474
46,81,28562,109
34,79,28679,114
32,94,28802,130
55,82,28802,370
58,96,28802,370
44,68,28939,109
51,68,29056,109
56,65,29172,115
63,90,29172,122
60,66,29294,114
63,91,29294,353
56,65,29415,108
51,65,29531,109
44,65,29647,115
63,90,29647,115
34,82,29770,116
65,91,29770,355
46,65,29893,108
53,65,30009,109
58,65,30125,113
63,90,30125,120
62,55,30245,114
63,91,30245,353
58,65,30366,109
53,65,30482,109
46,68,30598,115
58,81,30598,122
36,84,30722,130
55,78,30722,370
58,92,30722,370
43,70,30859,109
48,70,30976,109
51,70,31092,115
63,90,31092,122
55,69,31214,114
63,91,31214,353
60,68,31335,108
55,68,31451,109
51,70,31567,115
58,68,31567,115
34,82,31690,116
65,91,31690,355
46,70,31813,108
53,70,31929,109
58,68,32045,113
67,93,32045,113
62,69,32166,113
63,91,32166,474
58,68,32286,109
53,70,32402,109
46,70,32519,114
44,84,32642,130
67,78,32642,728
72,78,32642,728
79,92,32642,728
51,62,32779,109
56,62,32896,109
51,62,33013,114
60,63,33134,114
51,62,33255,108
56,62,33370,110
68,73,33370,110
80,87,33370,117
51,62,33487,115
65,73,33487,1073
70,73,33487,1073
77,87,33487,1073
44,73,33610,116
51,62,33733,108
56,62,33849,109
51,62,33965,113
44,72,34086,113
51,62,34206,109
56,62,34322,109
51,62,34439,114
43,76,34562,130
67,78,34562,728
71,78,34562,728
77,92,34562,728
50,62,34699,109
55,62,34816,109
50,62,34933,114
47,82,35054,114
54,62,35175,108
59,62,35290,110
67,73,35290,117
79,87,35290,117
54,62,35407,115
67,73,35407,951
72,73,35407,951
75,87,35407,951
48,84,35530,116
55,62,35653,108
60,62,35769,109
55,62,35885,113
46,82,36006,113
53,62,36126,109
58,62,36242,223
70,81,36358,122
41,79,36482,130
60,78,36482,239
65,78,36482,239
70,92,36482,253
48,69,36619,109
53,69,36735,110
68,81,36735,110
56,69,36853,114
67,81,36853,235
53,70,36974,114
48,69,37095,108
68,81,37095,218
41,69,37211,224
61,81,37327,951
66,81,37327,951
73,91,37327,951
35,77,37450,116
42,69,37573,108
47,69,37689,109
51,69,37805,113
54,70,37926,113
59,81,38046,109
63,81,38162,223
62,73,38278,115
74,87,38278,122
36,76,38402,130
43,92,38402,137
65,78,38402,239
77,92,38402,253
48,81,38539,109
51,81,38655,110
63,73,38655,110
75,87,38655,117
55,81,38772,115
62,73,38772,228
74,87,38772,243
60,82,38894,475
63,73,39015,218
75,87,39015,232
70,89,39247,478
75,89,39247,478
82,103,39247,478
34,88,39369,117
46,81,39493,108
53,81,39609,109
58,81,39725,595
70,86,39725,473
72,86,39725,473
74,100,39725,473
75,81,40198,122
47,73,40322,130
70,86,40322,728
75,86,40322,728
82,100,40322,728
54,68,40459,109
59,68,40576,109
54,68,40693,114
63,69,40814,114
54,68,40935,108
59,68,41050,110
71,81,41050,110
83,95,41050,117
54,68,41167,115
68,81,41167,1073
73,81,41167,1073
80,95,41167,1073
47,71,41290,116
54,68,41413,108
59,68,41529,109
54,68,41645,113
47,69,41766,113
54,68,41886,109
59,68,42002,109
54,68,42119,114
46,73,42242,130
68,86,42242,728
73,86,42242,728
80,100,42242,728
53,68,42379,109
58,68,42496,109
53,68,42613,114
61,69,42734,114
53,68,42855,108
58,68,42970,110
70,81,42970,117
82,95,42970,117
53,68,43087,115
70,87,43087,598
73,101,43087,598
46,71,43210,116
53,68,43333,108
58,68,43449,109
53,66,43565,113
46,67,43685,114
73,88,43685,150
53,66,43806,109
71,87,43845,145
58,66,43922,109
70,87,44000,150
53,66,44039,114
44,71,44162,130
66,84,44162,239
71,98,44162,253
51,66,44299,109
56,66,44415,110
71,87,44415,110
51,66,44533,114
66,79,44533,596
78,89,44533,596
59,67,44654,114
51,66,44775,108
56,66,44891,109
51,66,45007,115
44,69,45129,117
78,86,45129,476
90,100,45129,476
51,66,45253,108
56,66,45369,109
51,66,45485,113
44,72,45605,114
80,84,45605,475
92,98,45605,475
51,71,45726,109
56,71,45842,109
51,71,45959,114
38,85,46082,130
81,88,46082,728
85,88,46082,728
93,102,46082,728
45,70,46219,109
50,70,46336,109
54,70,46453,114
57,71,46574,114
61,70,46695,354
66,83,46810,239
78,98,46810,239
38,83,47049,117
66,81,47049,225
71,81,47049,225
78,95,47049,239
45,81,47173,108
50,81,47288,110
64,75,47288,223
76,89,47288,237
54,81,47405,113
57,82,47525,114
66,76,47525,223
78,90,47525,237
61,81,47646,354
68,75,47762,223
80,89,47762,238
34,71,48002,1918
46,87,48002,1918
70,80,48002,728
75,80,48002,728
82,94,48002,728
60,88,48730,73
62,88,48808,73
63,88,48886,79
65,91,48970,79
67,88,49054,73
68,88,49132,72
70,88,49209,72
72,88,49286,73
74,88,49364,76
75,89,49446,76
77,88,49527,73
79,88,49605,72
80,88,49682,73
82,88,49760,72
84,88,49838,77
37,88,49922,137
49,103,49922,137
73,89,49922,137
78,89,49922,137
85,99,49922,137
37,83,50059,116
49,94,50059,116
73,84,50059,116
78,84,50059,116
85,94,50059,116
37,83,50175,117
49,94,50175,117
73,84,50175,117
78,84,50175,117
85,94,50175,117
37,83,50292,115
49,98,50292,122
73,84,50292,115
78,95,50292,115
85,90,50292,122
25,79,50651,116
37,97,50651,116
73,84,50651,116
77,95,50651,116
80,95,50651,116
85,90,50651,116
25,79,50767,122
37,93,50767,122
73,84,50767,122
77,84,50767,122
80,84,50767,122
85,94,50767,122
25,82,50889,124
37,96,50889,124
73,87,50889,124
77,87,50889,124
80,87,50889,124
85,97,50889,124
25,79,51013,108
37,93,51013,108
73,84,51013,108
77,95,51013,108
80,95,51013,108
85,90,51013,115
73,88,51366,352
85,102,51366,352
71,87,51718,115
83,101,51718,122
47,86,51842,130
70,92,51842,728
75,92,51842,728
82,106,51842,728
54,81,51979,109
59,81,52096,109
54,81,52213,114
63,82,52334,114
54,81,52455,108
59,81,52570,110
68,87,52570,110
80,101,52570,117
54,81,52687,115
70,87,52687,835
75,87,52687,835
82,101,52687,835
47,84,52810,116
54,81,52933,108
59,81,53049,109
54,81,53165,113
47,82,53286,113
54,81,53406,109
59,81,53522,109
83,95,53522,109
54,81,53639,114
82,95,53639,55
83,95,53698,58
46,86,53762,130
82,100,53762,845
53,81,53899,109
58,81,54016,109
53,81,54133,114
61,82,54254,114
53,81,54375,108
58,81,54491,109
53,81,54607,115
73,95,54607,122
46,84,54729,117
73,90,54729,713
85,104,54729,713
53,81,54853,108
58,81,54969,109
53,81,55085,113
46,82,55206,113
53,81,55326,109
58,81,55442,109
80,95,55442,109
53,81,55559,114
78,95,55559,55
80,95,55618,58
44,86,55682,130
71,103,55682,728
78,98,55682,728
51,81,55819,109
56,81,55936,109
51,81,56053,114
61,82,56174,114
51,81,56295,108
56,81,56410,110
66,98,56410,117
78,93,56410,117
51,81,56527,115
66,87,56527,122
78,97,56527,122
37,90,56649,356
49,105,56649,356
66,90,56649,225
78,104,56649,239
63,73,56888,110
75,101,56888,117
38,87,57005,241
50,102,57005,241
65,87,57005,241
77,101,57005,241
38,87,57246,218
50,102,57246,232
65,87,57246,218
77,101,57246,232
39,87,57478,494
51,102,57478,494
66,87,57478,852
78,101,57478,852
51,82,57972,115
58,83,58094,114
63,82,58215,108
65,82,58330,225
78,86,58330,110
90,100,58330,117
80,86,58447,115
92,100,58447,122
39,80,58569,951
51,95,58569,951
82,89,58569,225
94,103,58569,239
83,86,58808,110
95,100,58808,117
82,86,58925,227
94,100,58925,241
80,86,59166,218
92,100,59166,232
70,94,59398,122
47,86,59522,130
70,91,59522,728
75,91,59522,728
82,105,59522,728
54,81,59659,109
59,81,59776,109
54,81,59893,114
63,82,60014,114
54,81,60135,108
59,81,60250,110
71,86,60250,110
83,100,60250,117
54,81,60367,115
68,86,60367,1073
80,100,60367,1073
47,84,60490,116
54,81,60613,108
59,81,60729,109
54,81,60845,113
47,82,60966,113
54,81,61086,109
59,81,61202,109
54,81,61319,114
46,86,61442,130
68,91,61442,728
73,91,61442,728
80,105,61442,728
53,81,61579,109
58,81,61696,109
53,81,61813,114
50,82,61934,114
57,81,62055,108
62,81,62170,110
70,86,62170,110
82,100,62170,117
57,81,62287,115
66,82,62287,598
78,96,62287,598
51,84,62410,116
58,81,62533,108
63,81,62649,109
58,81,62765,113
49,82,62885,114
73,101,62885,150
56,81,63006,109
71,100,63045,145
61,76,63122,223
70,100,63200,150
42,86,63362,130
66,97,63362,239
71,111,63362,253
49,81,63499,109
54,81,63615,110
71,100,63615,110
61,100,63733,828
66,92,63733,596
78,102,63733,596
58,87,64329,117
61,92,64453,108
65,92,64569,109
68,92,64685,113
70,93,64806,113
73,92,64926,109
77,92,65042,109
80,92,65159,114
38,94,65282,967
50,109,65282,967
69,97,65282,728
73,97,65282,728
81,111,65282,728
78,90,66010,110
90,104,66010,117
80,90,66127,115
92,104,66127,122
26,88,66249,476
38,106,66249,476
81,93,66249,225
93,107,66249,239
83,90,66488,110
95,104,66488,117
81,90,66605,227
93,104,66605,241
28,87,66725,475
40,104,66725,475
80,90,66846,109
92,104,66846,116
78,90,66962,223
82,90,66962,223
90,104,66962,238
30,86,67202,1918
42,104,67202,1918
54,90,67202,1918
61,90,67202,1918
66,104,67202,1918
