note,velocity,position,duration
63,80,0,227
67,80,0,227
63,80,240,227
67,80,240,227
70,80,480,455
75,80,960,455
63,80,1200,683
67,80,1200,683
77,80,1440,455
79,80,1920,455
67,80,1920,227
71,80,1920,227
67,80,2160,227
71,80,2160,227
77,80,2400,455
75,80,2880,455
67,80,3120,683
71,80,3120,683
77,80,3360,455
68,80,3840,227
72,80,3840,227
79,80,4080,227
68,80,4080,227
72,80,4080,227
80,80,4320,227
79,80,4560,227
80,80,4800,227
79,80,5040,227
68,80,5040,683
72,80,5040,683
80,80,5280,227
79,80,5520,227
80,80,5760,227
82,80,6000,455
77,80,6480,455
75,80,6960,227
77,80,7200,227
75,80,7440,227
63,80,7680,227
67,80,7680,227
63,80,7920,227
67,80,7920,227
70,80,8160,455
75,80,8640,455
58,80,8880,227
77,80,9120,455
63,80,9120,455
67,80,9120,455
79,80,9600,455
67,80,9600,227
71,80,9600,227
67,80,9840,227
71,80,9840,227
77,80,10080,455
75,80,10560,455
62,80,10800,227
77,80,11040,455
67,80,11040,455
71,80,11040,455
68,80,11520,227
72,80,11520,227
79,80,11760,227
68,80,11760,227
72,80,11760,227
80,80,12000,227
79,80,12240,227
80,80,12480,227
79,80,12720,227
80,80,12960,227
79,80,13200,227
80,80,13440,227
82,80,13680,455
77,80,14160,455
75,80,14640,227
77,80,14880,227
75,80,15120,227
70,80,15840,455
67,80,16320,227
68,80,16560,227
70,80,16800,227
74,80,17040,227
74,80,17520,227
72,80,18000,227
74,80,18480,683
75,80,19680,455
72,80,20160,227
74,80,20400,227
75,80,20640,227
78,80,20880,227
78,80,21360,227
77,80,21840,227
75,80,22320,455
71,80,22800,227
70,80,23520,455
67,80,24000,227
68,80,24240,227
70,80,24480,227
74,80,24720,227
74,80,25200,227
72,80,25680,227
74,80,26160,683
75,80,27360,455
72,80,27840,227
74,80,28080,227
75,80,28320,227
78,80,28560,227
78,80,29040,227
77,80,29520,227
75,80,30000,455
71,80,30480,227
70,64,31200,455
75,64,31680,455
77,64,32160,455
79,64,32640,455
77,64,33120,455
75,64,33600,455
77,64,34080,455
79,64,34800,227
80,64,35040,227
79,64,35280,227
80,64,35520,227
79,64,35760,227
80,64,36000,227
79,64,36240,227
80,64,36480,227
82,64,36720,455
77,64,37200,455
75,64,37680,227
77,64,37920,227
75,64,38160,227
70,64,38880,455
75,64,39360,455
77,64,39840,455
79,64,40320,455
77,64,40800,455
75,64,41280,455
77,64,41760,455
79,64,42480,227
80,64,42720,227
79,64,42960,227
80,64,43200,227
79,64,43440,227
80,64,43680,227
79,64,43920,227
80,64,44160,227
82,64,44400,455
77,64,44880,455
75,64,45360,227
77,64,45600,227
75,64,45840,227
70,80,46560,455
75,80,46560,455
79,80,46560,455
82,80,46560,455
67,80,47040,455
79,80,47040,455
70,80,47520,455
82,80,47520,455
67,80,48000,683
71,80,48000,683
74,80,48000,683
79,80,48000,683
70,80,48720,683
82,80,48720,683
70,80,49440,227
82,80,49440,227
72,80,49680,683
75,80,49680,683
79,80,49680,683
84,80,49680,683
70,80,50400,455
82,80,50400,455
67,80,50880,455
79,80,50880,455
65,80,51360,455
77,80,51360,455
65,80,51840,683
69,80,51840,683
75,80,51840,683
65,80,52560,1139
69,80,52560,1139
72,80,52560,1139
63,64,54240,227
60,64,54480,227
63,64,54720,455
63,64,55200,227
60,64,55440,227
63,64,55680,455
63,64,56160,227
60,64,56400,227
63,64,56640,227
65,64,56880,455
67,64,57360,683
63,64,58080,227
60,64,58320,227
63,64,58560,455
63,64,59040,227
60,64,59280,227
63,64,59520,455
63,64,60000,227
60,64,60240,227
63,64,60480,227
65,64,60720,455
67,64,61200,683
63,64,61920,227
60,64,62160,227
63,64,62400,455
63,64,62880,227
60,64,63120,227
63,64,63360,455
63,64,63840,227
60,64,64080,227
63,64,64320,227
65,64,64560,455
58,64,65040,480
62,64,65040,911
67,64,65040,911
62,71,66000,227
65,71,66000,227
58,73,66240,240
62,73,66240,683
65,73,66240,683
58,79,66960,227
70,79,66960,227
68,80,67200,455
80,80,67200,455
67,84,67680,455
79,84,67680,455
63,88,68160,455
75,88,68160,455
65,92,68640,455
77,92,68640,455
72,96,69120,119
77,96,69120,119
82,96,69120,119
72,96,69360,119
77,96,69360,119
82,96,69360,119
72,96,69840,455
77,96,69840,455
81,96,69840,455
93,96,70320,19
91,96,70341,19
89,96,70363,19
88,96,70385,19
86,96,70407,19
84,96,70429,19
83,96,70452,19
81,96,70473,19
79,96,70495,19
77,96,70517,19
76,96,70539,19
74,96,70561,19
72,96,70584,19
71,96,70605,19
69,96,70627,19
67,96,70649,19
65,96,70671,19
64,96,70693,19
62,96,70716,19
60,96,70737,19
59,96,70759,36
57,96,70800,227
65,96,71280,227
70,96,71280,227
74,96,71280,227
77,96,71280,227
65,96,71520,227
77,96,71520,227
65,96,71760,227
77,96,71760,227
65,96,72000,227
70,96,72000,227
74,96,72000,227
77,96,72000,227
63,96,72240,227
75,96,72240,227
62,96,72480,227
74,96,72480,227
63,96,72720,227
75,96,72720,227
65,96,72960,227
69,96,72960,227
72,96,72960,227
77,96,72960,227
65,96,73200,227
77,96,73200,227
65,96,73440,227
77,96,73440,227
65,96,73680,227
69,96,73680,227
72,96,73680,227
77,96,73680,227
70,96,74160,227
82,96,74160,227
69,96,74400,227
81,96,74400,227
70,96,74640,227
82,96,74640,227
65,96,75120,227
70,96,75120,227
74,96,75120,227
77,96,75120,227
65,96,75360,227
77,96,75360,227
65,96,75600,227
77,96,75600,227
65,96,75840,227
70,96,75840,227
74,96,75840,227
77,96,75840,227
63,96,76080,227
75,96,76080,227
62,96,76320,227
74,96,76320,227
63,96,76560,227
75,96,76560,227
65,96,76800,227
68,96,76800,227
72,96,76800,227
77,96,76800,227
65,96,77040,227
77,96,77040,227
65,96,77280,227
77,96,77280,227
65,96,77520,227
68,96,77520,227
72,96,77520,227
77,96,77520,227
74,96,78000,227
86,96,78000,227
72,96,78240,227
84,96,78240,227
70,96,78480,227
82,96,78480,227
67,80,78960,119
67,80,79200,119
67,80,79440,119
67,80,79680,119
67,80,79920,119
69,80,80160,119
70,80,80400,455
65,80,80880,119
65,80,81120,119
65,80,81360,119
62,80,81600,240
65,80,82080,455
63,96,82560,455
67,96,82560,455
72,96,82560,455
75,96,82560,455
62,96,83040,455
74,96,83040,455
63,96,83520,455
75,96,83520,455
65,96,84000,455
77,96,84000,455
62,96,84480,227
74,96,84480,227
60,96,84720,227
72,96,84720,227
62,96,84960,227
74,96,84960,227
60,96,85200,480
72,96,85200,1139
65,96,86400,227
65,96,86640,227
70,96,86640,227
74,96,86640,227
77,96,86640,227
65,96,86880,227
77,96,86880,227
65,96,87120,227
77,96,87120,227
65,96,87360,227
70,96,87360,227
74,96,87360,227
77,96,87360,227
63,96,87600,227
75,96,87600,227
62,96,87840,227
74,96,87840,227
63,96,88080,227
75,96,88080,227
65,96,88320,227
69,96,88320,227
72,96,88320,227
77,96,88320,227
65,96,88560,227
77,96,88560,227
65,96,88800,227
77,96,88800,227
65,96,89040,227
69,96,89040,227
72,96,89040,227
77,96,89040,227
70,96,89520,227
82,96,89520,227
69,96,89760,227
81,96,89760,227
70,96,90000,227
82,96,90000,227
65,96,90480,227
70,96,90480,227
74,96,90480,227
77,96,90480,227
65,96,90720,227
77,96,90720,227
65,96,90960,227
77,96,90960,227
65,96,91200,227
70,96,91200,227
74,96,91200,227
77,96,91200,227
63,96,91440,227
75,96,91440,227
62,96,91680,227
74,96,91680,227
63,96,91920,227
75,96,91920,227
65,96,92160,227
68,96,92160,227
72,96,92160,227
77,96,92160,227
65,96,92400,227
77,96,92400,227
65,96,92640,227
77,96,92640,227
65,96,92880,227
68,96,92880,227
72,96,92880,227
77,96,92880,227
74,96,93360,227
86,96,93360,227
72,96,93600,227
84,96,93600,227
70,96,93840,227
82,96,93840,227
67,80,94320,455
67,80,94800,119
67,80,95040,119
67,80,95280,119
69,80,95520,119
70,80,95760,455
65,80,96240,119
65,80,96480,119
65,80,96720,119
62,80,96960,240
65,80,97440,455
63,96,97920,911
67,96,97920,911
72,96,97920,911
75,96,97920,911
65,96,98880,455
77,96,98880,455
65,96,99600,227
77,96,99600,227
70,96,99840,455
72,96,99840,455
77,96,99840,455
82,96,99840,455
69,96,100320,455
81,96,100320,455
67,96,100800,455
79,96,100800,455
69,96,101280,227
81,96,101280,227
69,96,101520,227
81,96,101520,227
69,96,101760,683
75,96,101760,683
81,96,101760,683
70,96,102480,227
82,96,102480,227
70,96,102720,683
75,96,102720,683
79,96,102720,683
82,96,102720,683
65,96,103440,227
77,96,103440,227
70,96,103680,455
72,96,103680,455
77,96,103680,455
82,96,103680,455
69,96,104160,455
81,96,104160,455
67,96,104640,455
79,96,104640,455
69,96,105120,227
81,96,105120,227
69,96,105360,227
81,96,105360,227
69,96,105600,683
74,96,105600,683
77,96,105600,683
81,96,105600,683
70,96,106320,227
82,96,106320,227
70,96,106560,455
74,96,106560,455
77,96,106560,455
82,96,106560,455
72,96,107040,227
84,96,107040,227
69,96,107280,227
81,96,107280,227
70,96,107520,1367
74,96,107520,1367
79,96,107520,1367
82,96,107520,1367
65,96,108960,455
77,96,108960,455
69,96,109440,683
75,96,109440,683
81,96,109440,683
70,96,110160,227
82,96,110160,227
70,96,110400,683
75,96,110400,683
79,96,110400,683
82,96,110400,683
65,96,111120,227
77,96,111120,227
70,96,111360,455
72,96,111360,455
77,96,111360,455
82,96,111360,455
69,96,111840,455
81,96,111840,455
67,96,112320,455
79,96,112320,455
69,96,112800,455
81,96,112800,455
69,96,113280,683
74,96,113280,683
77,96,113280,683
81,96,113280,683
70,96,114000,227
82,96,114000,227
70,96,114240,455
74,96,114240,455
77,96,114240,455
82,96,114240,455
82,96,114960,119
86,96,114960,119
89,96,114960,119
94,96,114960,119
51,80,0,227
58,80,0,227
51,80,240,227
58,80,240,227
55,80,1920,227
62,80,1920,227
55,80,2160,227
62,80,2160,227
56,80,3840,227
63,80,3840,227
56,80,4080,227
63,80,4080,227
53,80,5760,911
58,80,5760,911
63,80,5760,911
62,80,6720,303
53,80,6720,911
58,80,6720,640
65,80,7040,303
58,80,7360,303
39,80,7680,227
51,80,7680,227
39,80,7920,227
51,80,7920,227
43,80,9600,227
55,80,9600,227
43,80,9840,227
55,80,9840,227
44,80,11520,227
56,80,11520,227
44,80,11760,227
56,80,11760,227
39,64,15360,119
51,64,15600,119
55,64,15600,119
39,64,15840,119
51,64,16080,119
55,64,16080,119
39,64,16320,119
51,64,16560,119
55,64,16560,119
39,64,16800,119
51,64,17040,119
55,64,17040,119
43,64,17280,119
55,64,17520,119
59,64,17520,119
43,64,17760,119
55,64,18000,119
59,64,18000,119
43,64,18240,119
55,64,18480,119
59,64,18480,119
43,64,18720,119
55,64,18960,119
59,64,18960,119
44,64,19200,119
56,64,19440,119
60,64,19440,119
44,64,19680,119
56,64,19920,119
60,64,19920,119
44,64,20160,119
56,64,20400,119
60,64,20400,119
44,64,20640,119
56,64,20880,119
60,64,20880,119
44,64,21120,119
56,64,21360,119
59,64,21360,119
44,64,21600,119
56,64,21840,119
59,64,21840,119
44,64,22080,119
56,64,22320,119
59,64,22320,119
44,64,22560,119
56,64,22800,119
59,64,22800,119
39,64,23040,119
51,64,23280,119
55,64,23280,119
39,64,23520,119
51,64,23760,119
55,64,23760,119
39,64,24000,119
51,64,24240,119
55,64,24240,119
39,64,24480,119
51,64,24720,119
55,64,24720,119
43,64,24960,119
55,64,25200,119
59,64,25200,119
43,64,25440,119
55,64,25680,119
59,64,25680,119
43,64,25920,119
55,64,26160,119
59,64,26160,119
43,64,26400,119
55,64,26640,119
59,64,26640,119
44,64,26880,119
56,64,27120,119
60,64,27120,119
44,64,27360,119
56,64,27600,119
60,64,27600,119
44,64,27840,119
56,64,28080,119
60,64,28080,119
44,64,28320,119
56,64,28560,119
60,64,28560,119
44,64,28800,119
56,64,29040,119
59,64,29040,119
44,64,29280,119
56,64,29520,119
59,64,29520,119
44,64,29760,119
56,64,30000,119
59,64,30000,119
44,64,30240,119
56,64,30480,119
59,64,30480,119
51,49,30720,119
58,49,30960,119
63,49,30960,119
51,49,31200,119
58,49,31440,119
63,49,31440,119
51,49,31680,119
58,49,31920,119
63,49,31920,119
51,49,32160,119
58,49,32400,119
63,49,32400,119
55,49,32640,119
62,49,32880,119
67,49,32880,119
55,49,33120,119
62,49,33360,119
67,49,33360,119
55,49,33600,119
62,49,33840,119
67,49,33840,119
55,49,34080,119
62,49,34320,119
67,49,34320,119
56,49,34560,119
63,49,34800,119
68,49,34800,119
56,49,35040,119
63,49,35280,119
68,49,35280,119
56,49,35520,119
63,49,35760,119
68,49,35760,119
56,49,36000,119
63,49,36240,119
68,49,36240,119
58,49,36480,119
65,49,36720,119
70,49,36720,119
58,49,36960,119
65,49,37200,119
70,49,37200,119
58,49,37440,119
65,49,37680,119
70,49,37680,119
58,49,37920,119
65,49,38160,119
70,49,38160,119
51,49,38400,119
58,49,38640,119
63,49,38640,119
51,49,38880,119
58,49,39120,119
63,49,39120,119
51,49,39360,119
58,49,39600,119
63,49,39600,119
51,49,39840,119
58,49,40080,119
63,49,40080,119
55,49,40320,119
62,49,40560,119
67,49,40560,119
55,49,40800,119
62,49,41040,119
67,49,41040,119
55,49,41280,119
62,49,41520,119
67,49,41520,119
55,49,41760,119
62,49,42000,119
67,49,42000,119
56,49,42240,119
63,49,42480,119
68,49,42480,119
56,49,42720,119
63,49,42960,119
68,49,42960,119
56,49,43200,119
63,49,43440,119
68,49,43440,119
56,49,43680,119
63,49,43920,119
68,49,43920,119
58,49,44160,119
65,49,44400,119
70,49,44400,119
58,49,44640,119
65,49,44880,119
70,49,44880,119
58,49,45120,119
65,49,45360,119
70,49,45360,119
58,49,45600,119
65,49,45840,119
70,49,45840,119
48,80,46080,227
55,80,46320,227
58,80,46560,227
60,80,46800,227
63,80,47040,455
58,80,47520,227
51,80,47760,227
47,80,48000,227
55,80,48240,227
59,80,48480,227
62,80,48720,227
67,80,48960,455
62,80,49440,227
55,80,49680,227
46,80,49920,227
55,80,50160,227
58,80,50400,227
63,80,50640,455
55,80,51120,227
58,80,51360,227
51,80,51600,227
41,80,51840,227
48,80,52080,227
53,80,52320,227
57,80,52560,455
60,80,53040,227
57,80,53280,113
53,80,53400,113
48,80,53520,113
45,80,53640,113
41,49,53760,119
48,49,54000,119
53,49,54000,119
41,49,54240,119
48,49,54480,119
53,49,54480,119
41,49,54720,119
48,49,54960,119
53,49,54960,119
41,49,55200,119
48,49,55440,119
53,49,55440,119
41,49,55680,119
48,49,55920,119
53,49,55920,119
41,49,56160,119
48,49,56400,119
53,49,56400,119
41,49,56640,119
48,49,56880,119
53,49,56880,119
41,49,57120,119
48,49,57360,119
53,49,57360,119
43,49,57600,119
51,49,57840,119
55,49,57840,119
43,49,58080,119
51,49,58320,119
55,49,58320,119
43,49,58560,119
51,49,58800,119
55,49,58800,119
43,49,59040,119
51,49,59280,119
55,49,59280,119
43,49,59520,119
51,49,59760,119
55,49,59760,119
43,49,60000,119
51,49,60240,119
55,49,60240,119
43,49,60480,119
51,49,60720,119
55,49,60720,119
43,49,60960,119
51,49,61200,119
55,49,61200,119
44,49,61440,119
51,49,61680,119
56,49,61680,119
44,49,61920,119
51,49,62160,119
56,49,62160,119
44,49,62400,119
51,49,62640,119
56,49,62640,119
44,49,62880,119
51,49,63120,119
56,49,63120,119
45,49,63360,119
53,49,63600,119
57,49,63600,119
45,49,63840,119
53,49,64080,119
57,49,64080,119
45,49,64320,119
53,49,64560,119
57,49,64560,119
45,49,64800,119
34,64,65040,455
46,64,65040,455
53,67,65520,227
58,67,65520,431
46,69,65760,227
53,71,66000,227
58,71,66000,227
46,73,66240,227
53,75,66480,227
58,75,66480,443
46,77,66720,227
53,79,66960,227
34,80,67200,455
46,80,67200,455
46,84,67680,227
53,86,67920,455
58,86,67920,455
46,90,68400,227
34,92,68640,227
46,94,68880,227
41,96,69120,227
53,96,69120,227
41,96,69360,227
53,96,69360,227
29,96,69840,683
41,96,69840,683
34,80,71040,227
46,80,71040,227
53,80,71280,119
58,80,71280,119
46,80,71520,119
53,80,71760,119
58,80,71760,119
46,80,72000,119
53,80,72240,119
58,80,72240,119
46,80,72480,119
53,80,72720,119
58,80,72720,119
33,80,72960,227
45,80,72960,227
57,80,73200,119
60,80,73200,119
53,80,73440,119
57,80,73680,119
60,80,73680,119
38,80,73920,227
50,80,73920,227
57,80,74160,119
62,80,74160,119
50,80,74400,119
57,80,74640,119
62,80,74640,119
43,80,74880,227
55,80,74880,227
58,80,75120,119
62,80,75120,119
55,80,75360,119
58,80,75600,119
62,80,75600,119
55,80,75840,119
58,80,76080,119
62,80,76080,119
55,80,76320,119
58,80,76560,119
62,80,76560,119
41,80,76800,227
53,80,76800,227
56,80,77040,119
60,80,77040,119
53,80,77280,227
56,80,77520,119
60,80,77520,119
34,80,77760,227
46,80,77760,227
53,80,78000,119
58,80,78000,119
46,80,78240,119
53,80,78480,119
58,80,78480,119
51,64,78720,119
58,64,78960,119
63,64,78960,119
51,64,79200,119
58,64,79440,119
63,64,79440,119
51,64,79680,119
58,64,79920,119
63,64,79920,119
51,64,80160,119
58,64,80400,119
63,64,80400,119
50,64,80640,119
58,64,80880,119
62,64,80880,119
50,64,81120,119
58,64,81360,119
62,64,81360,119
50,64,81600,119
58,64,81840,119
62,64,81840,215
50,64,82080,119
58,64,82320,119
62,64,82320,119
36,80,82560,227
48,80,82560,227
55,80,82800,119
60,80,82800,119
48,80,83040,119
55,80,83280,119
60,80,83280,119
48,80,83520,119
55,80,83760,119
60,80,83760,119
48,80,84000,119
55,80,84240,119
60,80,84240,119
41,80,84480,1823
53,80,84480,240
53,80,84720,1583
55,80,84960,227
57,80,85200,227
58,80,85440,227
60,80,85680,659
62,80,85920,227
63,80,86160,227
34,80,86400,227
46,80,86400,227
53,80,86640,119
58,80,86640,119
46,80,86880,119
53,80,87120,119
58,80,87120,119
46,80,87360,119
53,80,87600,119
58,80,87600,119
46,80,87840,119
53,80,88080,119
58,80,88080,119
33,80,88320,227
45,80,88320,227
57,80,88560,119
60,80,88560,119
53,80,88800,119
57,80,89040,119
60,80,89040,119
38,80,89280,227
50,80,89280,227
57,80,89520,119
62,80,89520,119
50,80,89760,119
57,80,90000,119
62,80,90000,119
43,80,90240,227
55,80,90240,227
58,80,90480,119
62,80,90480,119
55,80,90720,119
58,80,90960,119
62,80,90960,119
55,80,91200,119
58,80,91440,119
62,80,91440,119
55,80,91680,119
58,80,91920,119
62,80,91920,119
41,80,92160,227
53,80,92160,227
56,80,92400,119
60,80,92400,119
53,80,92640,227
56,80,92880,119
60,80,92880,119
34,80,93120,227
46,80,93120,227
53,80,93360,119
58,80,93360,119
46,80,93600,119
53,80,93840,119
58,80,93840,119
51,64,94080,119
58,64,94320,119
63,64,94320,119
51,64,94560,119
58,64,94800,119
63,64,94800,119
51,64,95040,119
58,64,95280,119
63,64,95280,119
51,64,95520,119
58,64,95760,119
63,64,95760,119
50,64,96000,119
58,64,96240,119
62,64,96240,119
50,64,96480,119
58,64,96720,119
62,64,96720,119
50,64,96960,119
58,64,97200,119
62,64,97200,215
50,64,97440,119
58,64,97680,119
62,64,97680,119
36,80,97920,227
48,80,97920,227
55,80,98160,119
60,80,98160,119
48,80,98400,119
55,80,98640,119
60,80,98640,119
48,80,98880,119
55,80,99120,119
60,80,99120,119
48,80,99360,119
55,80,99600,119
60,80,99600,119
41,80,99840,227
53,80,99840,227
60,80,100080,119
65,80,100080,119
53,80,100320,119
60,80,100560,119
65,80,100560,119
53,80,100800,119
60,80,101040,119
65,80,101040,119
53,80,101280,119
60,80,101520,119
65,80,101520,119
39,80,101760,227
51,80,101760,227
58,80,102000,119
63,80,102000,119
51,80,102240,119
58,80,102480,119
63,80,102480,119
51,80,102720,119
58,80,102960,119
63,80,102960,119
51,80,103200,119
58,80,103440,119
63,80,103440,119
41,80,103680,227
53,80,103680,227
60,80,103920,119
65,80,103920,119
53,80,104160,119
60,80,104400,119
65,80,104400,119
53,80,104640,119
60,80,104880,119
65,80,104880,119
53,80,105120,119
60,80,105360,119
65,80,105360,119
34,80,105600,227
46,80,105600,227
53,80,105840,119
58,80,105840,119
46,80,106080,119
53,80,106320,119
58,80,106320,119
46,80,106560,119
53,80,106800,119
58,80,106800,119
46,80,107040,119
53,80,107280,119
58,80,107280,119
43,80,107520,227
55,80,107520,227
58,80,107760,119
62,80,107760,119
55,80,108000,119
58,80,108240,119
62,80,108240,119
55,80,108480,119
58,80,108720,119
62,80,108720,119
55,80,108960,119
58,80,109200,119
62,80,109200,119
39,80,109440,227
51,80,109440,227
58,80,109680,119
63,80,109680,119
51,80,109920,119
58,80,110160,119
63,80,110160,119
51,80,110400,119
58,80,110640,119
63,80,110640,119
51,80,110880,119
58,80,111120,119
63,80,111120,119
41,80,111360,227
53,80,111360,227
60,80,111600,119
65,80,111600,119
53,80,111840,119
60,80,112080,119
65,80,112080,119
53,80,112320,119
60,80,112560,119
65,80,112560,119
53,80,112800,119
60,80,113040,119
65,80,113040,119
34,80,113280,455
46,80,113280,455
46,80,113760,227
53,80,114000,683
58,80,114000,683
34,80,114720,227
46,80,114720,227
34,80,114960,119
46,80,114960,119
