note,velocity,position,duration
58,81,120,90
58,77,240,90
57,77,480,90
58,73,600,90
54,84,840,90
57,77,960,90
61,87,1200,90
60,87,1320,90
56,75,1560,90
56,73,1680,90
53,74,1920,90
54,71,2040,90
58,72,2280,90
56,67,2400,90
58,49,3000,90
58,47,3120,90
57,45,3360,90
58,45,3480,90
54,46,3720,90
57,45,3840,90
61,47,4080,90
60,47,4200,90
56,46,4440,90
56,45,4560,90
53,45,4800,90
54,45,4920,90
58,43,5160,90
56,43,5280,90
54,72,5880,90
57,71,6000,90
58,80,6240,90
60,80,6360,90
63,85,6600,90
61,80,6720,90
60,77,6960,90
58,71,7080,90
56,81,7320,90
56,79,7440,90
61,79,7680,90
60,84,7800,90
56,79,8040,90
58,79,8160,90
54,43,8760,90
57,43,8880,90
58,45,9120,90
60,45,9240,90
63,47,9480,90
61,47,9600,90
60,45,9840,90
58,45,9960,90
56,49,10200,90
56,49,10320,90
61,46,10560,90
60,46,10680,90
56,46,10920,90
58,46,11040,90
66,62,11520,90
70,70,11520,90
66,55,11640,90
70,62,11640,90
66,57,11760,90
70,63,11760,90
70,71,11880,90
66,63,11880,90
65,64,12000,90
70,70,12120,90
66,62,12120,90
62,63,12240,90
63,57,12360,90
66,63,12360,90
65,64,12480,90
66,62,12600,240
70,70,12600,90
73,69,12720,90
68,59,12840,90
72,65,12840,90
68,65,12960,90
65,59,12960,90
65,57,13080,90
68,63,13080,90
65,63,13200,90
68,63,13200,90
68,73,13320,90
65,65,13320,90
61,67,13440,90
66,65,13560,90
63,65,13560,90
65,72,13680,90
66,57,13800,90
70,64,13800,90
65,65,13920,90
61,74,14040,360
65,82,14040,360
66,41,14400,90
70,45,14400,90
66,29,14520,90
70,33,14520,90
66,31,14640,90
70,35,14640,90
70,40,14760,90
66,35,14760,90
65,35,14880,90
70,36,15000,90
66,32,15000,90
62,36,15120,90
66,33,15240,90
63,29,15240,90
65,42,15360,90
66,33,15480,240
70,37,15480,90
73,45,15600,90
68,39,15720,90
72,39,15720,90
65,36,15840,90
68,41,15840,90
68,33,15960,90
65,29,15960,90
65,29,16080,90
68,33,16080,90
68,36,16200,90
65,32,16200,90
61,36,16320,90
66,36,16440,90
63,36,16440,90
65,42,16560,90
70,41,16680,90
66,36,16680,90
65,36,16800,90
61,41,16920,360
65,45,16920,360
62,72,17280,90
66,69,17400,90
63,69,17400,90
65,69,17520,90
70,80,17640,90
66,80,17640,90
69,74,17760,90
70,75,17880,90
73,75,17880,90
71,84,18000,90
75,74,18120,90
72,74,18120,90
73,75,18240,90
70,75,18240,90
72,74,18360,240
68,74,18360,90
67,72,18480,90
70,70,18600,240
66,70,18600,90
64,74,18720,90
65,71,18840,90
67,70,18960,90
73,81,19080,240
68,81,19080,90
69,66,19200,240
72,72,19320,90
70,69,19440,90
68,65,19560,90
70,63,19680,90
62,57,19800,360
65,64,19800,360
62,40,20160,90
66,41,20280,90
63,36,20280,90
65,37,20400,90
70,44,20520,90
66,44,20520,90
69,41,20640,90
73,47,20760,90
70,47,20760,90
71,49,20880,90
75,46,21000,90
72,46,21000,90
73,44,21120,90
70,44,21120,90
68,41,21240,90
72,41,21240,240
67,45,21360,90
70,42,21480,240
66,42,21480,90
64,44,21600,90
65,41,21720,90
67,39,21840,90
73,42,21960,240
68,42,21960,90
69,36,22080,240
72,43,22200,90
70,40,22320,90
68,36,22440,90
70,37,22560,90
61,37,22680,360
65,43,22680,360
60,32,23040,120
65,32,23040,120
65,32,23280,120
60,32,23280,120
58,31,23400,120
65,31,23400,120
60,36,23640,120
65,36,23640,120
65,39,23760,120
61,39,23760,120
65,33,24000,120
63,33,24000,120
60,32,24120,120
65,32,24120,120
61,32,24360,120
65,32,24360,120
58,31,24480,120
63,31,24480,120
56,41,24720,120
63,33,24720,120
61,46,24840,120
63,37,24840,120
63,34,25080,120
60,34,25080,120
63,33,25200,120
58,33,25200,120
60,31,25440,120
63,31,25440,120
61,32,25560,120
63,32,25560,120
58,32,25800,120
63,32,25800,120
65,32,25920,120
60,32,25920,120
60,32,26160,120
65,32,26160,120
58,34,26280,120
65,34,26280,120
60,35,26520,120
65,35,26520,120
61,40,26640,120
65,40,26640,120
63,34,26880,120
65,34,26880,120
65,32,27000,120
60,32,27000,120
61,36,27240,120
65,36,27240,120
58,33,27360,120
63,33,27360,120
56,42,27600,120
63,33,27600,120
63,39,27720,120
61,49,27720,120
60,32,27960,120
63,32,27960,120
58,32,28080,120
63,32,28080,120
60,32,28320,120
63,32,28320,120
61,32,28440,120
63,32,28440,120
58,32,28680,120
63,32,28680,120
60,27,28920,120
72,32,29040,120
65,32,29040,120
58,31,29280,120
65,31,29280,240
70,31,29280,120
60,36,29400,120
72,36,29400,120
73,35,29640,120
65,35,29640,240
61,35,29640,120
75,32,29760,120
63,32,29760,120
60,32,30000,120
72,32,30000,120
65,32,30000,240
61,32,30120,120
73,32,30120,120
58,33,30360,120
63,33,30360,240
70,33,30360,120
56,43,30480,120
68,34,30480,120
61,37,30720,120
63,37,30720,240
73,29,30720,120
60,34,30840,120
72,34,30840,120
63,34,31080,240
70,34,31080,120
58,34,31080,120
60,32,31200,120
72,32,31200,120
61,32,31440,120
63,32,31440,240
73,32,31440,120
70,32,31560,120
58,32,31560,120
60,34,31800,120
72,37,31920,120
65,37,31920,120
70,37,32160,120
65,37,32160,240
58,37,32160,120
60,44,32280,120
72,44,32280,120
61,45,32520,120
65,45,32520,240
73,45,32520,120
75,43,32640,120
63,43,32640,120
60,45,32880,120
72,45,32880,120
65,45,32880,240
73,45,33000,120
61,45,33000,120
58,49,33240,120
70,49,33240,120
63,49,33240,240
68,52,33360,120
56,65,33360,120
73,42,33600,120
63,53,33600,240
61,53,33600,120
60,49,33720,120
72,49,33720,120
70,49,33960,120
58,49,33960,120
63,49,33960,240
60,50,34080,120
72,50,34080,120
61,52,34320,120
73,52,34440,120
63,52,34440,120
66,52,34440,120
66,62,34560,90
70,70,34560,90
66,55,34680,90
70,62,34680,90
66,57,34800,90
70,63,34800,90
70,80,34920,90
66,71,34920,90
65,64,35040,90
70,70,35160,90
66,70,35160,90
62,63,35280,90
63,57,35400,90
66,63,35400,90
65,64,35520,90
66,70,35640,360
70,70,35640,90
73,69,35760,90
72,65,35880,90
65,59,36000,90
68,65,36000,90
65,57,36120,90
68,63,36120,90
68,63,36240,90
65,63,36240,90
68,73,36360,90
65,65,36360,90
61,67,36480,90
66,65,36600,90
63,59,36600,90
65,77,36720,90
66,59,36840,90
70,70,36840,90
65,71,36960,90
61,89,37080,360
78,43,37440,90
81,43,37440,90
78,37,37560,90
81,37,37560,90
78,39,37680,90
81,39,37680,90
81,45,37800,90
78,45,37800,90
77,40,37920,90
81,43,38040,90
78,43,38040,90
74,39,38160,90
78,39,38280,90
75,39,38280,90
77,40,38400,90
81,43,38520,90
78,43,38520,360
85,42,38640,90
84,40,38760,90
76,40,38880,90
80,40,38880,90
76,39,39000,90
80,39,39000,90
76,39,39120,90
80,39,39120,90
80,44,39240,90
76,44,39240,90
73,41,39360,90
78,40,39480,90
75,40,39480,90
76,46,39600,90
81,43,39720,90
78,43,39720,90
76,44,39840,90
73,53,39960,360
62,72,40320,90
63,69,40440,90
66,69,40440,90
65,69,40560,90
70,80,40680,90
66,80,40680,90
69,74,40800,90
73,75,40920,90
70,75,40920,90
71,84,41040,90
75,74,41160,90
72,65,41160,90
73,75,41280,90
70,66,41280,90
72,74,41400,240
68,74,41400,90
67,72,41520,90
70,70,41640,240
66,70,41640,90
64,74,41760,90
65,71,41880,90
67,70,42000,90
73,81,42120,240
68,81,42120,90
69,66,42240,240
72,72,42360,90
70,69,42480,90
68,65,42600,90
70,63,42720,90
62,62,42840,360
65,70,42840,360
74,44,43200,90
78,43,43320,90
75,43,43320,90
77,43,43440,90
82,49,43560,90
78,49,43560,90
81,45,43680,90
85,45,43800,90
82,45,43800,90
83,52,43920,90
87,45,44040,90
84,45,44040,90
85,45,44160,90
81,45,44160,90
84,45,44280,240
80,45,44280,90
79,44,44400,90
78,44,44520,90
81,44,44520,240
75,45,44640,90
76,44,44760,90
78,44,44880,90
76,50,45000,360
85,50,45000,240
79,50,45000,90
80,41,45120,240
83,44,45240,90
81,46,45360,90
76,46,45360,360
80,41,45480,90
81,39,45600,90
69,42,45720,360
76,46,45720,360
57,59,46200,90
62,65,46200,90
69,61,46320,90
66,53,46320,90
65,54,46560,90
61,49,46560,90
62,44,46680,90
66,50,46680,90
59,51,46920,90
62,57,46920,90
62,62,47160,240
66,69,47160,90
69,65,47280,90
64,54,47400,90
68,62,47400,90
63,62,47640,90
60,54,47640,90
72,55,47760,90
66,49,47760,90
60,52,48000,90
63,59,48000,90
61,46,48120,90
64,53,48120,90
64,46,48360,90
68,53,48360,90
63,44,48480,90
66,50,48480,90
69,36,49080,90
74,41,49080,90
81,36,49200,90
78,36,49200,90
77,33,49440,90
73,29,49440,90
74,26,49560,90
78,30,49560,90
74,35,49800,90
71,31,49800,90
74,43,50040,240
78,43,50040,90
81,41,50160,90
76,37,50280,90
80,37,50280,90
72,33,50520,90
75,37,50520,90
84,34,50640,90
78,30,50640,90
75,36,50880,90
72,32,50880,90
73,27,51000,90
76,32,51000,90
76,27,51240,90
80,32,51240,90
75,26,51360,90
78,30,51360,90
62,72,51960,90
57,64,51960,90
64,67,52080,90
61,61,52080,90
66,59,52320,90
62,52,52320,90
64,49,52440,90
68,54,52440,90
66,50,52680,90
69,56,52680,90
64,49,52800,90
68,54,52800,90
62,59,53040,90
66,65,53040,90
61,54,53160,90
64,62,53160,90
60,57,53400,90
68,63,53400,90
70,61,53520,90
63,53,53520,90
72,61,53760,90
68,53,53760,90
70,49,53880,90
73,55,53880,90
72,64,54120,90
75,72,54120,90
73,59,54240,90
76,65,54240,90
74,59,54840,90
69,52,54840,90
76,54,54960,90
73,49,54960,90
78,46,55200,90
74,42,55200,90
76,40,55320,90
80,44,55320,90
78,41,55560,90
81,45,55560,90
76,40,55680,90
80,44,55680,90
78,53,55920,90
74,47,55920,90
73,44,56040,90
76,50,56040,90
72,46,56280,90
80,53,56280,90
82,47,56400,90
75,43,56400,90
84,47,56640,90
80,43,56640,90
85,44,56760,90
82,40,56760,90
84,52,57000,90
87,59,57000,90
85,47,57120,90
88,53,57120,90
81,43,57720,90
86,47,57720,90
85,40,57840,90
88,44,57840,90
90,42,58080,90
86,36,58080,90
88,35,58200,90
92,40,58200,90
90,36,58440,120
93,41,58440,120
88,35,58560,120
92,40,58560,120
86,35,58680,120
90,40,58680,120
88,45,58800,120
85,41,58800,120
83,36,58920,240
86,42,58920,240
82,44,59160,120
85,49,59160,120
86,50,59280,240
83,44,59280,240
87,51,59520,120
84,45,59520,120
88,52,59640,240
85,45,59640,240
89,53,59880,120
86,46,59880,120
87,47,60000,240
90,53,60000,240
91,55,60240,120
88,49,60240,120
92,56,60360,240
89,50,60360,240
93,57,60600,120
90,51,60600,120
94,59,60720,240
91,52,60720,240
95,60,60960,120
92,53,60960,120
96,61,61080,120
93,53,61080,120
94,54,61200,120
97,62,61200,120
98,62,61320,120
95,55,61320,120
99,62,61440,120
96,55,61440,120
100,73,61560,240
97,65,61560,240
60,45,63360,240
60,42,63600,120
58,45,63720,240
60,42,63960,120
61,47,64080,240
63,44,64320,120
60,47,64440,240
61,44,64680,120
58,45,64800,240
61,47,65160,240
60,44,65400,120
56,47,65520,360
58,47,65520,240
60,44,65760,120
55,47,65880,360
61,47,65880,240
61,45,66120,120
54,47,66240,720
60,45,66240,240
60,42,66480,120
58,45,66600,240
60,42,66840,120
54,36,66960,240
61,47,66960,240
63,44,67200,120
54,36,67320,240
60,47,67320,240
61,44,67560,120
53,47,67680,720
58,47,67680,240
61,47,68040,240
60,44,68280,120
53,47,68400,360
58,47,68400,240
60,44,68640,120
53,47,68760,360
61,47,68760,240
63,45,69000,120
59,50,69120,720
65,50,69120,240
65,45,69360,120
63,50,69480,240
65,45,69720,120
56,50,69840,720
66,53,69840,240
68,46,70080,120
65,53,70200,240
66,47,70440,120
54,50,70560,720
63,50,70560,240
61,45,70800,120
66,53,70920,240
65,47,71160,120
54,53,71280,360
63,53,71280,240
65,47,71520,120
63,53,71640,360
66,53,71640,240
66,50,71880,120
61,54,72000,720
67,54,72000,240
67,50,72240,120
65,54,72360,240
67,50,72600,120
61,54,72720,720
68,57,72720,240
70,52,72960,120
67,57,73080,240
68,53,73320,120
61,54,73440,720
65,54,73440,240
64,52,73680,120
68,59,73800,240
67,54,74040,120
61,61,74160,360
65,61,74160,240
67,55,74400,120
65,62,74520,240
61,62,74520,360
68,62,74520,240
67,59,74760,120
70,59,74760,120
60,44,75000,90
63,44,75000,90
66,50,75000,90
72,50,75000,90
60,44,75240,90
63,44,75240,90
66,50,75240,90
72,50,75240,90
60,51,75480,90
63,51,75480,90
66,57,75480,90
72,57,75480,90
75,62,75720,90
66,55,75720,90
63,55,75720,90
60,47,75960,90
63,47,75960,90
66,53,75960,90
72,53,75960,90
60,41,76200,90
63,41,76200,90
66,45,76200,90
72,45,76200,90
58,44,76440,90
61,44,76440,90
65,50,76440,90
70,50,76440,90
61,44,76680,90
65,44,76680,90
68,50,76680,90
73,50,76680,90
61,44,76920,90
65,44,76920,90
68,50,76920,90
73,50,76920,90
67,53,77160,90
70,53,77160,90
64,53,77160,90
58,46,77160,90
61,55,77400,90
64,55,77400,90
67,62,77400,90
73,62,77400,90
58,47,77640,90
64,47,77640,90
67,53,77640,90
70,53,77640,90
60,44,77880,90
63,44,77880,90
66,49,77880,90
72,54,77880,90
60,43,78120,90
63,43,78120,90
66,47,78120,90
72,53,78120,90
60,47,78360,90
63,47,78360,90
66,53,78360,90
72,61,78360,90
75,62,78600,90
66,49,78600,90
63,49,78600,90
60,42,78840,90
63,42,78840,90
66,46,78840,90
72,53,78840,90
60,40,79080,90
63,40,79080,90
66,44,79080,90
72,50,79080,90
58,44,79320,90
61,44,79320,90
65,49,79320,90
70,54,79320,90
61,43,79560,90
65,43,79560,90
68,53,79560,90
73,53,79560,90
61,43,79800,90
65,43,79800,90
68,47,79800,90
73,53,79800,90
64,44,80040,90
67,49,80040,90
70,54,80040,90
58,44,80040,90
61,52,80280,90
65,52,80280,90
73,65,80280,90
58,44,80520,90
66,49,80520,90
70,54,80520,90
65,49,80760,90
68,49,80760,90
71,56,80760,90
77,63,80760,90
77,63,81000,90
65,47,81000,90
68,47,81000,90
71,54,81000,90
65,53,81240,90
68,53,81240,90
71,61,81240,90
77,67,81240,90
80,74,81480,90
71,65,81480,90
68,60,81480,90
65,52,81720,90
68,52,81720,90
71,57,81720,90
77,64,81720,90
65,45,81960,90
68,45,81960,90
71,51,81960,90
77,57,81960,90
63,49,82200,90
66,49,82200,90
70,56,82200,90
75,63,82200,90
66,47,82440,90
70,47,82440,90
73,54,82440,90
78,62,82440,90
66,47,82680,90
70,47,82680,90
73,54,82680,90
78,62,82680,90
66,49,82920,90
70,56,82920,90
75,63,82920,90
63,49,82920,90
66,62,83160,90
70,62,83160,90
78,79,83160,90
66,49,83400,90
63,49,83400,90
70,56,83400,90
75,63,83400,90
67,54,83640,90
70,54,83640,90
73,62,83640,90
79,69,83640,90
79,70,83880,90
67,53,83880,90
70,53,83880,90
73,60,83880,90
67,61,84120,90
70,61,84120,90
73,66,84120,90
79,75,84120,90
82,81,84360,90
73,72,84360,90
70,63,84360,90
67,62,84600,90
70,62,84600,90
73,69,84600,90
79,77,84600,90
67,53,84840,90
70,53,84840,90
73,60,84840,90
79,66,84840,90
65,60,85080,90
70,60,85080,90
73,66,85080,90
77,75,85080,90
68,56,85320,90
70,56,85320,90
73,63,85320,90
80,71,85320,90
68,56,85560,90
70,56,85560,90
73,63,85560,90
80,71,85560,90
70,60,85800,90
73,66,85800,90
77,75,85800,90
66,60,85800,90
73,63,86040,90
67,63,86040,90
77,79,86040,90
79,79,86040,90
73,65,86280,90
69,65,86280,90
77,74,86280,90
81,83,86280,90
58,80,86520,90
61,86,86520,90
70,80,86640,90
66,72,86640,90
69,71,86880,90
65,71,86880,90
70,65,87000,90
66,61,87000,90
66,75,87240,90
63,69,87240,90
66,75,87480,240
70,84,87480,90
73,82,87600,90
68,71,87720,90
72,80,87720,90
56,73,87960,90
61,81,87960,90
68,73,88080,90
65,66,88080,90
61,71,88320,90
65,77,88320,90
63,63,88440,90
66,69,88440,90
66,63,88680,90
70,69,88680,90
65,61,88800,90
68,65,88800,90
70,71,89400,90
73,79,89400,90
82,71,89520,90
78,63,89520,90
81,63,89760,90
77,59,89760,90
82,59,89880,90
78,53,89880,90
78,67,90120,90
75,62,90120,90
78,70,90360,240
82,79,90360,90
85,74,90480,90
80,63,90600,90
84,71,90600,90
68,64,90840,90
73,71,90840,90
80,65,90960,90
77,61,90960,90
73,63,91200,90
77,69,91200,90
75,55,91320,90
78,62,91320,90
78,55,91560,90
82,62,91560,90
77,53,91680,90
80,59,91680,90
66,77,92280,90
70,77,92280,90
78,86,92280,90
75,86,92280,90
80,81,92400,240
68,81,92400,240
81,94,92640,90
78,94,92640,90
75,83,92640,90
69,83,92640,90
82,86,92760,90
70,77,92760,90
87,103,92880,90
78,92,92880,90
75,92,92880,90
86,87,93000,90
74,79,93000,90
85,95,93120,90
73,84,93120,90
72,76,93240,90
84,85,93240,90
71,79,93360,90
83,87,93360,90
82,87,93480,90
70,79,93480,90
81,86,93600,90
77,86,93600,90
69,77,93600,90
80,79,93720,90
68,71,93720,90
73,79,93840,240
85,87,93840,240
84,73,94080,240
78,73,94080,240
72,66,94080,240
83,77,94200,90
71,69,94200,90
82,72,94320,90
77,72,94320,90
70,64,94320,90
80,70,94440,90
68,62,94440,90
82,64,94560,90
70,59,94560,90
77,70,94680,360
74,70,94680,360
68,63,94680,360
65,63,94680,360
78,73,95160,90
82,73,95160,90
90,81,95160,90
87,81,95160,90
92,76,95280,240
80,67,95280,240
93,89,95520,90
90,89,95520,90
87,89,95520,90
81,89,95520,90
94,81,95640,90
82,73,95640,90
99,94,95760,90
90,90,95760,90
87,90,95760,90
98,82,95880,90
86,74,95880,90
97,90,96000,90
85,80,96000,90
84,74,96120,90
96,83,96120,90
83,76,96240,90
95,85,96240,90
94,82,96360,90
82,74,96360,90
93,85,96480,90
89,85,96480,90
81,76,96480,90
92,75,96600,90
80,67,96600,90
85,74,96720,240
97,82,96720,240
96,65,96960,240
90,59,96960,240
84,57,96960,240
95,74,97080,90
83,65,97080,90
94,70,97200,90
89,70,97200,90
82,63,97200,90
92,66,97320,90
80,59,97320,90
94,63,97440,90
82,55,97440,90
89,63,97560,360
86,63,97560,360
80,56,97560,360
77,56,97560,360
50,51,97920,90
54,47,98040,90
51,47,98040,90
53,47,98160,90
58,54,98280,90
54,54,98280,90
57,52,98400,90
58,52,98520,90
61,52,98520,90
59,52,98640,90
60,46,98760,90
63,60,98760,90
58,41,98880,90
61,52,98880,90
56,41,99000,90
60,52,99000,90
55,52,99120,90
54,51,99240,90
58,51,99240,90
52,51,99360,90
53,47,99480,90
56,47,99480,90
55,47,99600,90
56,56,99720,90
60,56,99720,90
59,53,99840,90
60,53,99960,90
63,53,99960,90
60,52,100080,90
61,46,100200,90
65,60,100200,90
60,44,100320,90
63,55,100320,90
58,45,100440,90
61,57,100440,90
57,53,100560,90
56,53,100680,90
60,53,100680,90
53,51,100800,90
54,47,100920,90
58,47,100920,90
57,47,101040,90
58,54,101160,90
61,54,101160,90
60,52,101280,90
65,52,101400,90
61,52,101400,90
62,52,101520,90
66,60,101640,90
63,46,101640,90
65,52,101760,90
61,41,101760,90
63,52,101880,90
60,41,101880,90
59,52,102000,90
61,51,102120,90
58,51,102120,90
64,52,102240,90
68,60,102360,90
65,46,102360,90
66,52,102480,90
63,41,102480,90
65,52,102600,90
61,41,102600,90
59,52,102720,90
63,51,102840,90
60,51,102840,90
65,52,102960,90
70,60,103080,90
66,46,103080,90
68,52,103200,90
65,41,103200,90
66,52,103320,90
63,41,103320,90
62,52,103440,90
65,51,103560,90
61,51,103560,90
62,53,103680,90
66,50,103800,90
63,50,103800,90
65,50,103920,90
70,57,104040,90
66,57,104040,90
69,53,104160,90
70,54,104280,90
73,54,104280,90
71,54,104400,90
72,50,104520,90
75,63,104520,90
70,44,104640,90
73,54,104640,90
68,44,104760,90
72,54,104760,90
67,55,104880,90
66,54,105000,90
70,54,105000,90
64,59,105120,90
65,54,105240,90
68,54,105240,90
67,54,105360,90
68,65,105480,90
72,65,105480,90
71,62,105600,90
72,62,105720,90
75,62,105720,90
72,61,105840,90
73,54,105960,90
77,69,105960,90
72,52,106080,90
75,65,106080,90
70,53,106200,90
73,67,106200,90
69,63,106320,90
68,62,106440,90
72,62,106440,90
65,63,106560,90
66,61,106680,90
70,61,106680,90
69,61,106800,90
70,70,106920,90
73,70,106920,90
72,66,107040,90
77,66,107160,90
73,66,107160,90
74,66,107280,90
78,79,107400,90
75,62,107400,90
77,69,107520,90
73,54,107520,90
75,69,107640,90
72,54,107640,90
71,70,107760,90
73,69,107880,90
70,69,107880,90
76,74,108000,90
80,85,108120,90
77,67,108120,90
78,74,108240,90
75,59,108240,90
77,75,108360,90
73,60,108360,90
71,75,108480,90
75,74,108600,90
72,74,108600,90
77,80,108720,90
82,90,108840,90
78,72,108840,90
80,80,108960,90
77,63,108960,90
78,80,109080,90
75,63,109080,90
74,81,109200,90
77,79,109320,90
73,79,109320,90
66,103,109440,90
74,87,109560,90
78,100,109560,90
78,79,109680,240
90,91,109800,90
86,79,109800,90
85,68,109920,90
89,78,109920,90
77,68,109920,90
86,66,110040,90
90,77,110040,90
78,66,110040,90
85,96,110160,90
82,82,110160,90
73,82,110160,90
74,72,110280,90
86,83,110280,90
83,72,110280,90
89,79,110400,90
77,68,110400,90
90,91,110520,90
86,79,110520,90
78,79,110520,90
93,87,110640,90
90,77,110640,90
81,77,110640,90
88,77,110760,90
92,87,110760,90
80,77,110760,90
64,98,110880,90
73,81,111000,90
76,94,111000,90
76,74,111120,240
88,101,111240,90
85,87,111240,90
73,68,111360,90
81,68,111360,90
85,78,111360,90
74,64,111480,90
83,64,111480,90
86,74,111480,90
88,96,111600,90
85,83,111600,90
76,83,111600,90
78,68,111720,90
90,79,111720,90
76,66,111840,90
88,77,111840,90
73,74,111960,360
85,86,111960,360
81,74,111960,360
61,55,112320,90
66,51,112440,90
62,51,112440,90
64,46,112560,90
69,60,112680,90
66,60,112680,90
68,56,112800,90
74,60,112920,90
69,60,112920,90
71,63,113040,90
75,60,113160,90
73,60,113160,90
73,62,113280,90
70,62,113280,90
73,56,113400,240
68,56,113400,90
67,53,113520,90
71,51,113640,240
66,51,113640,90
64,53,113760,90
68,53,113880,90
65,53,113880,90
67,52,114000,90
73,60,114120,240
68,60,114120,90
69,50,114240,240
73,51,114360,90
70,49,114480,90
68,46,114600,90
70,45,114720,90
62,54,114840,360
65,54,114840,360
78,93,115200,90
86,72,115320,90
90,81,115320,90
90,74,115440,240
102,77,115560,90
98,74,115560,90
97,64,115680,90
101,66,115680,90
89,57,115680,90
98,62,115800,90
102,64,115800,90
90,55,115800,90
97,78,115920,90
94,78,115920,90
85,70,115920,90
86,61,116040,90
98,69,116040,90
95,69,116040,90
101,66,116160,90
89,58,116160,90
102,77,116280,90
98,74,116280,90
90,67,116280,90
105,74,116400,90
102,74,116400,90
93,63,116400,90
100,74,116520,90
104,74,116520,90
92,63,116520,90
76,93,116640,90
85,69,116760,90
88,77,116760,90
88,70,116880,240
100,85,117000,90
97,77,117000,90
85,57,117120,90
93,64,117120,90
97,64,117120,90
86,54,117240,90
95,61,117240,90
98,61,117240,90
100,81,117360,90
97,78,117360,90
88,71,117360,90
90,58,117480,90
102,66,117480,90
88,55,117600,90
100,64,117600,90
85,62,117720,360
97,70,117720,360
93,70,117720,360
73,53,118080,90
78,49,118200,90
74,49,118200,90
76,46,118320,90
81,61,118440,90
78,61,118440,90
80,53,118560,90
86,55,118680,90
81,55,118680,90
83,62,118800,90
87,53,118920,90
84,53,118920,90
85,60,119040,90
82,60,119040,90
84,53,119160,240
80,53,119160,90
79,52,119280,90
83,50,119400,240
78,50,119400,90
76,52,119520,90
80,49,119640,90
77,44,119640,90
79,47,119760,90
85,61,119880,240
80,61,119880,90
81,55,120000,240
85,53,120120,90
82,50,120240,90
80,49,120360,90
82,46,120480,90
73,54,120600,360
77,54,120600,360
94,67,120960,120
85,61,120960,360
92,56,121080,120
94,56,121200,120
89,66,121320,360
85,60,121320,360
61,60,121680,360
70,66,121680,120
68,59,121800,120
70,57,121920,120
65,64,122040,360
61,57,122040,360
53,75,123120,1920
56,75,123120,1920
61,75,123120,1920
65,75,123120,1920
85,90,123120,1920
80,90,123120,1920
73,90,123120,1920
61,45,125280,2160
59,44,126000,720
58,45,126720,720
57,44,127440,720
62,44,127440,720
59,41,128160,720
56,41,128160,1440
64,41,128160,2160
58,48,128880,1440
55,45,129600,720
65,44,130320,720
66,47,131520,240
57,36,131760,2880
64,52,131760,240
66,44,132000,240
62,44,132240,720
69,51,132960,240
69,53,133200,480
71,47,133680,120
69,36,133800,60
71,36,133860,60
69,53,133920,360
67,47,134280,120
66,47,134400,240
57,36,134640,1440
69,36,134640,1440
64,52,134640,240
66,45,134880,240
62,44,135120,720
66,47,135840,240
70,36,136080,1440
66,53,136080,480
64,47,136560,240
64,52,136800,480
61,47,137280,240
59,36,137520,720
71,36,137520,720
62,52,137520,360
61,47,137880,120
59,47,138000,240
66,47,138720,240
70,36,138960,1440
66,53,138960,480
64,47,139440,240
64,52,139680,480
61,47,140160,240
59,36,140400,720
71,36,140400,960
62,52,140400,360
61,47,140760,120
59,47,140880,240
57,45,141600,240
59,47,141840,720
57,45,143040,240
61,47,143280,360
62,45,143640,120
64,45,143760,240
61,50,144000,480
57,44,144480,240
59,45,144720,1200
69,36,145200,720
67,36,145200,720
62,36,145200,720
57,45,145920,240
61,47,146160,360
62,45,146520,120
64,45,146640,120
61,43,146760,60
62,36,146820,60
61,49,146880,90
59,44,147120,90
57,44,147360,120
59,44,147600,1200
62,36,148080,720
67,36,148080,720
69,36,148080,720
57,45,148800,240
61,47,149040,360
62,45,149400,120
64,45,149520,240
61,49,149760,240
59,44,150000,240
57,44,150240,240
59,47,150480,1200
66,49,151680,240
71,49,151680,240
64,53,151920,1200
68,53,151920,1200
74,53,151920,1200
64,52,153120,540
67,52,153120,540
76,52,153120,540
61,45,153750,330
67,45,153780,300
69,46,153810,270
77,52,153840,240
90,57,154560,240
78,53,154560,240
88,62,154800,360
81,40,154800,720
76,56,154800,360
78,47,155160,120
90,53,155160,120
86,53,155280,720
74,47,155280,720
81,67,155520,480
93,62,156000,240
81,55,156000,150
74,47,156090,30
81,47,156120,30
86,47,156150,30
81,47,156180,30
86,47,156210,690
93,63,156240,480
81,57,156240,480
95,57,156720,240
83,53,156720,240
81,49,156870,30
86,49,156900,780
95,50,156930,30
93,63,156960,360
81,57,156960,360
91,57,157320,120
79,53,157320,120
90,57,157440,240
78,53,157440,240
88,62,157680,240
81,40,157680,720
76,56,157680,240
90,54,157920,240
78,50,157920,240
86,52,158160,240
74,46,158160,240
90,57,158880,240
78,53,158880,240
90,63,159120,480
82,40,159120,960
78,57,159120,480
88,57,159600,240
76,53,159600,240
88,62,159840,480
76,56,159840,480
85,57,160320,240
73,53,160320,240
86,62,160560,360
71,40,160560,720
83,40,160560,720
74,56,160560,360
85,57,160920,120
73,53,160920,120
83,57,161040,240
71,53,161040,240
90,57,161760,240
78,53,161760,240
90,63,162000,480
82,40,162000,960
78,57,162000,480
88,57,162480,240
76,53,162480,240
88,62,162720,480
76,56,162720,480
85,57,163200,240
73,53,163200,240
74,49,163350,450
78,49,163380,780
88,50,163410,30
86,62,163440,360
71,40,163440,720
85,57,163800,120
73,53,163800,120
83,57,163920,240
71,53,163920,240
78,61,164640,240
81,61,164640,240
69,61,164640,240
78,64,164880,960
83,64,164880,720
71,64,164880,720
73,66,165600,240
85,66,165600,240
70,30,166080,720
73,30,166080,720
61,45,166080,240
65,47,166320,360
66,45,166680,120
73,26,166800,720
68,45,166800,240
65,50,167040,480
71,30,167520,720
73,30,167520,720
61,44,167520,240
63,45,167760,1200
71,30,168240,240
73,30,168240,240
68,30,168240,240
70,30,168960,720
73,30,168960,720
61,45,168960,240
65,47,169200,360
66,45,169560,120
73,30,169680,120
68,45,169680,120
65,43,169800,60
66,36,169860,60
65,49,169920,90
63,44,170160,90
71,30,170400,240
73,30,170400,240
65,30,170400,240
61,44,170400,90
63,43,170640,1200
66,33,171120,720
71,33,171120,720
73,33,171120,720
68,39,171840,240
71,39,171840,240
73,39,171840,240
61,45,171840,240
65,47,172080,360
66,45,172440,120
68,45,172560,240
65,49,172800,240
63,44,173040,240
56,36,173280,240
61,44,173280,240
59,41,173520,1200
63,47,173520,1200
56,47,174720,90
59,47,174720,90
63,47,174720,90
54,36,174900,535
58,39,174930,505
66,41,174960,475
59,44,176820,300
66,44,176850,270
71,44,176880,240
67,40,177600,720
71,40,177600,720
79,57,177600,240
78,62,177840,240
79,53,178080,240
64,40,178320,720
71,40,178320,720
76,53,178320,720
83,57,179040,240
67,40,179040,720
76,40,179040,720
83,63,179280,480
85,61,179760,120
83,61,179880,60
85,62,179940,60
83,67,180000,360
81,63,180360,120
79,63,180480,240
78,66,180720,240
79,63,180960,240
71,40,181200,720
76,62,181200,720
67,40,181920,720
71,40,181920,720
79,64,181920,240
79,67,182160,480
67,40,182640,240
71,40,182640,240
78,59,182640,240
67,33,182880,720
71,33,182880,720
78,62,182880,480
74,63,183360,240
69,40,183600,720
67,40,183600,720
76,67,183600,360
74,62,183960,120
73,59,184080,240
67,40,184800,720
71,40,184800,720
79,64,184800,240
79,67,185040,480
67,40,185520,240
71,40,185520,240
78,59,185520,240
67,40,185760,720
71,40,185760,720
78,62,185760,480
74,63,186240,240
69,40,186480,720
67,40,186480,720
73,67,186480,360
71,62,186840,120
69,59,186960,240
69,41,187680,120
67,41,187680,120
71,41,187920,720
67,41,187920,720
69,46,190320,80
76,49,190400,80
81,51,190480,80
79,51,190480,80
81,53,190560,80
85,54,190640,80
93,56,190720,80
91,45,190720,80
91,45,190800,120
93,56,190800,80
86,57,190880,80
83,56,190960,80
81,55,191040,80
79,45,191040,80
74,54,191120,80
71,53,191200,80
69,53,191280,120
67,44,191280,80
62,52,191360,80
59,51,191440,80
69,46,193200,80
76,49,193280,80
81,51,193360,80
79,51,193360,80
81,53,193440,80
85,54,193520,80
93,56,193600,80
91,45,193600,80
91,45,193680,120
93,56,193680,80
86,57,193760,80
83,56,193840,80
81,55,193920,80
79,44,193920,80
74,54,194000,80
71,53,194080,80
69,53,194160,120
67,43,194160,80
62,52,194240,80
59,51,194320,80
57,44,194400,240
69,59,194880,240
67,43,194880,720
73,62,195120,360
69,43,195120,480
74,59,195480,120
67,36,195600,120
76,59,195600,120
69,36,195600,120
73,53,195720,60
74,53,195780,60
73,63,195840,480
69,46,196080,80
76,49,196160,80
81,52,196240,80
79,52,196240,80
81,53,196320,80
85,55,196400,80
91,57,196480,80
93,57,196480,80
95,57,196560,80
91,57,196560,120
86,59,196640,80
83,57,196720,80
83,55,196800,80
79,55,196800,80
74,55,196880,80
71,54,196960,80
71,53,197040,120
67,53,197040,80
62,53,197120,80
59,52,197200,80
59,57,197520,80
62,59,197600,80
71,61,197680,80
67,61,197680,80
71,62,197760,80
74,62,197840,80
83,63,197920,80
79,63,197920,80
62,61,198240,80
66,62,198320,80
74,63,198400,80
71,63,198400,80
74,63,198480,80
78,64,198560,80
83,65,198640,80
86,65,198640,80
64,63,198960,80
68,63,199040,80
76,65,199120,80
74,65,199120,80
76,66,199200,80
80,67,199280,80
88,69,199360,80
86,69,199360,80
65,65,199680,80
69,66,199760,80
77,69,199840,80
73,69,199840,80
77,70,199920,80
81,71,200000,80
89,71,200080,80
85,71,200080,80
66,65,200400,80
69,69,200480,80
78,71,200560,80
78,74,200640,80
81,77,200720,80
90,77,200800,80
88,81,200880,360
86,77,200880,120
81,76,200960,80
76,72,201040,80
76,79,201120,80
81,77,201200,80
90,76,201240,120
76,75,201280,80
86,73,201360,120
81,72,201440,80
78,72,201440,80
74,71,201520,80
69,65,201840,80
74,69,201920,80
81,71,202000,80
78,71,202000,80
81,74,202080,80
86,77,202160,80
93,80,202240,80
90,80,202240,80
93,89,202320,80
90,89,202320,120
86,77,202400,80
81,74,202480,80
81,79,202560,80
86,77,202640,80
90,75,202720,80
95,84,202800,120
86,72,202880,80
83,71,202960,80
93,84,203040,240
86,64,203120,80
81,64,203200,80
91,83,203280,240
86,65,203360,80
79,71,203440,80
90,81,203520,240
86,66,203600,80
78,70,203680,80
88,86,203760,240
86,69,203840,80
76,69,203920,80
90,81,204000,240
81,63,204080,80
78,64,204160,80
86,84,204240,240
78,65,204320,80
74,66,204400,80
66,65,204720,80
69,69,204800,80
78,71,204880,80
78,74,204960,80
81,77,205040,80
90,80,205120,80
90,89,205200,120
81,77,205280,80
78,72,205360,80
78,79,205440,80
81,77,205520,80
90,75,205600,80
90,82,205680,120
94,72,205760,80
102,71,205840,80
102,86,205920,80
94,66,206000,80
90,67,206080,80
90,82,206160,80
78,66,206240,80
90,71,206320,80
78,83,206400,80
85,67,206480,80
90,67,206560,80
78,87,206640,80
86,69,206720,80
90,69,206800,80
78,83,206880,80
85,66,206960,80
90,66,207040,80
78,81,207120,80
83,69,207200,80
90,70,207280,80
66,65,207600,80
69,69,207680,80
78,71,207760,80
78,74,207840,80
81,77,207920,80
90,80,208000,80
90,89,208080,120
81,77,208160,80
78,73,208240,80
78,79,208320,80
81,77,208400,80
90,75,208480,80
90,83,208560,120
94,72,208640,80
102,71,208720,80
102,84,208800,80
94,67,208880,80
90,67,208960,80
90,81,209040,80
78,66,209120,80
90,66,209200,80
85,86,209280,240
90,70,209360,80
97,69,209440,80
86,90,209520,240
90,70,209600,80
98,71,209680,80
85,89,209760,240
90,66,209840,80
97,66,209920,80
83,87,210000,240
90,66,210080,80
95,66,210160,80
86,63,210480,120
90,83,210480,120
78,63,210480,120
92,89,210720,120
90,66,210720,120
80,66,210720,120
95,83,210900,60
93,92,210960,240
90,72,210960,240
81,72,210960,240
80,62,211200,240
92,80,211200,240
78,56,211440,120
90,74,211440,120
66,55,211920,60
67,55,211980,60
70,55,212040,60
71,55,212100,60
73,56,212160,60
74,56,212220,60
76,57,212280,60
78,59,212340,60
79,59,212400,60
82,61,212460,60
83,61,212520,60
85,61,212580,60
86,62,212640,60
88,62,212700,60
90,62,212760,60
91,62,212820,60
94,63,212880,48
95,63,212928,48
97,63,212976,48
98,63,213024,48
100,60,213076,48
102,75,213120,240
86,63,213360,120
90,83,213360,120
78,63,213360,120
92,89,213600,120
90,66,213600,120
80,66,213600,120
95,83,213780,60
93,92,213840,240
90,72,213840,240
81,72,213840,240
80,62,214080,240
92,80,214080,240
78,56,214320,120
90,74,214320,120
66,55,214800,60
67,55,214860,60
70,55,214920,60
71,55,214980,60
73,56,215040,60
74,56,215100,60
76,57,215160,60
78,59,215220,60
79,59,215280,60
82,61,215340,60
83,61,215400,60
85,61,215460,60
86,62,215520,48
88,62,215568,48
90,62,215616,48
91,62,215664,48
94,62,215716,48
95,63,215760,48
97,63,215808,48
98,63,215856,48
100,63,215904,48
102,63,215956,48
78,67,216240,120
82,89,216240,120
70,67,216240,120
84,93,216480,120
82,71,216480,120
72,71,216480,120
87,89,216660,60
85,97,216720,240
82,75,216720,240
73,75,216720,240
72,65,216960,240
84,84,216960,240
70,61,217200,120
82,80,217200,120
70,55,217680,60
71,55,217740,60
74,55,217800,60
75,55,217860,60
77,56,217920,60
78,56,217980,60
80,57,218040,60
81,59,218100,60
82,59,218160,60
83,61,218220,60
84,61,218280,60
85,61,218340,60
86,62,218400,60
87,62,218460,60
88,62,218520,60
89,62,218580,60
90,63,218640,48
91,63,218700,48
92,63,218760,48
93,63,218820,48
87,81,218880,240
82,80,218880,240
94,89,218880,240
82,76,219240,120
78,76,219240,120
70,67,219240,120
84,81,219480,120
78,81,219480,120
72,72,219480,120
73,75,219720,120
78,84,219720,120
85,84,219720,120
72,73,219960,120
78,81,219960,120
84,81,219960,120
82,79,220200,120
78,79,220200,120
70,69,220200,120
94,81,220320,240
96,89,220320,240
88,80,220320,240
84,80,220320,240
80,82,220680,120
68,82,220680,120
83,84,220920,120
71,84,220920,120
85,85,221160,120
73,85,221160,120
87,87,221400,120
75,87,221400,120
101,89,221760,90
93,89,221760,90
89,89,221760,90
89,64,222240,90
101,62,222360,90
77,71,222600,90
89,64,222720,90
65,73,222960,90
77,73,223080,90
53,63,223320,90
65,62,223440,90
41,62,223680,90
53,61,223800,90
53,62,224040,90
65,56,224160,90
65,62,224400,90
66,62,224520,90
63,62,224640,90
67,70,224640,90
63,55,224760,90
67,62,224760,90
63,57,224880,90
67,63,224880,90
67,71,225000,90
63,63,225000,90
62,64,225120,90
67,70,225240,90
63,62,225240,90
59,63,225360,90
63,63,225480,90
60,57,225480,90
62,64,225600,90
63,62,225720,240
67,70,225720,90
70,69,225840,90
65,59,225960,90
69,65,225960,90
62,59,226080,90
65,65,226080,90
62,57,226200,90
65,63,226200,90
62,63,226320,90
65,63,226320,90
65,73,226440,90
62,65,226440,90
58,67,226560,90
63,65,226680,90
60,65,226680,90
62,72,226800,90
67,64,226920,90
63,57,226920,90
65,65,227040,90
62,65,227040,90
87,49,227520,90
90,54,227520,90
87,44,227640,90
90,49,227640,90
87,45,227760,90
90,51,227760,90
90,55,227880,90
87,50,227880,90
86,51,228000,90
90,54,228120,90
87,49,228120,90
83,51,228240,90
87,51,228360,90
84,45,228360,90
86,51,228480,90
87,49,228600,240
90,54,228600,90
94,54,228720,90
89,45,228840,90
93,52,228840,90
85,45,228960,90
89,52,228960,90
85,45,229080,90
89,51,229080,90
85,51,229200,90
89,51,229200,90
89,59,229320,90
85,52,229320,90
82,53,229440,90
87,52,229560,90
84,52,229560,90
85,57,229680,90
90,51,229800,90
87,45,229800,90
89,52,229920,90
85,52,229920,90
71,72,230400,90
75,69,230520,90
72,69,230520,90
74,69,230640,90
79,80,230760,90
75,80,230760,90
78,74,230880,90
82,75,231000,90
79,75,231000,90
80,84,231120,90
84,74,231240,90
81,65,231240,90
82,75,231360,90
79,66,231360,90
81,74,231480,240
77,74,231480,90
76,72,231600,90
79,70,231720,90
75,70,231720,90
73,74,231840,90
77,71,231960,90
74,71,231960,90
75,70,232080,90
71,61,232200,360
82,86,232200,240
76,61,232200,90
77,62,232320,240
80,61,232440,90
73,59,232560,90
78,69,232560,90
77,65,232680,90
78,63,232800,90
66,62,232920,360
73,70,232920,360
79,45,233280,90
83,44,233400,90
80,44,233400,90
82,44,233520,90
87,49,233640,90
83,49,233640,90
86,45,233760,90
90,46,233880,90
87,46,233880,90
88,53,234000,90
92,45,234120,90
89,41,234120,90
90,46,234240,90
87,42,234240,90
89,45,234360,240
85,45,234360,90
84,45,234480,90
87,44,234600,90
83,44,234600,90
81,45,234720,90
85,44,234840,90
82,44,234840,90
83,44,234960,90
79,36,235080,360
90,46,235080,240
84,36,235080,90
85,37,235200,240
88,36,235320,90
81,36,235440,90
86,44,235440,90
85,41,235560,90
86,40,235680,90
59,59,236280,90
62,65,236280,90
71,61,236400,90
67,53,236400,90
70,54,236640,90
66,49,236640,90
67,44,236760,90
71,50,236760,90
64,51,237000,90
67,57,237000,90
67,62,237240,240
71,69,237240,90
74,65,237360,90
69,54,237480,90
73,62,237480,90
57,54,237720,90
62,62,237720,90
69,55,237840,90
66,49,237840,90
62,52,238080,90
66,59,238080,90
64,46,238200,90
67,53,238200,90
67,46,238440,90
71,53,238440,90
66,44,238560,90
69,50,238560,90
71,36,239160,90
74,41,239160,90
83,36,239280,90
79,36,239280,90
82,33,239520,90
78,29,239520,90
79,26,239640,90
83,30,239640,90
76,31,239880,90
79,35,239880,90
79,43,240120,240
83,43,240120,90
86,41,240240,90
81,37,240360,90
85,37,240360,90
69,33,240600,90
74,37,240600,90
81,34,240720,90
78,30,240720,90
74,32,240960,90
78,36,240960,90
76,27,241080,90
79,32,241080,90
79,27,241320,90
83,32,241320,90
78,26,241440,90
81,30,241440,90
66,66,241920,90
63,60,241920,90
67,63,242040,90
64,57,242040,90
70,63,242160,90
66,63,242160,90
71,72,242280,90
67,72,242280,90
73,69,242400,90
70,61,242400,90
74,70,242520,90
71,70,242520,90
72,69,242640,90
75,79,242640,90
76,69,242760,90
73,69,242760,90
74,70,242880,90
71,70,242880,90
73,69,243000,240
69,69,243000,90
68,66,243120,90
71,63,243240,240
67,63,243240,90
65,69,243360,90
69,65,243480,90
66,59,243480,90
68,63,243600,90
74,74,243720,240
69,74,243720,90
70,62,243840,240
73,66,243960,90
71,63,244080,90
69,61,244200,90
71,59,244320,90
62,53,244440,360
66,61,244440,360
78,60,244800,90
75,53,244800,90
79,56,244920,90
76,51,244920,90
82,56,245040,90
78,56,245040,90
83,64,245160,90
79,64,245160,90
85,62,245280,90
82,53,245280,90
86,62,245400,90
83,62,245400,90
81,70,245520,90
86,62,245640,90
82,62,245640,90
85,62,245760,90
91,65,245880,240
86,59,245880,90
90,65,246000,90
94,65,246120,90
91,65,246120,90
85,72,246240,120
94,45,246360,120
91,56,246360,120
90,56,246480,120
94,45,246600,120
91,54,246600,120
85,60,246720,120
94,44,246840,120
91,53,246840,120
90,53,246960,120
94,44,247080,120
91,53,247080,120
85,57,247200,120
94,42,247320,120
91,50,247320,120
90,50,247440,120
94,43,247560,120
91,51,247560,120
85,49,247680,120
94,36,247800,120
91,44,247800,120
90,44,247920,120
94,36,248040,120
91,43,248040,120
85,45,248160,120
94,35,248280,120
91,42,248280,120
90,42,248400,120
94,35,248520,120
91,42,248520,120
85,44,248640,120
94,32,248760,120
91,39,248760,120
90,39,248880,120
94,31,249000,120
91,37,249000,120
84,44,249120,120
94,31,249240,120
91,37,249240,120
90,37,249360,120
94,32,249480,120
91,39,249480,120
84,44,249600,120
94,30,249720,120
91,36,249720,120
90,36,249840,120
94,31,249960,120
91,37,249960,120
84,44,250080,120
94,31,250200,120
91,37,250200,120
90,37,250320,120
94,32,250440,120
91,39,250440,120
84,44,250560,120
94,30,250680,120
91,36,250680,120
90,36,250800,120
94,29,250920,120
91,36,250920,120
84,42,251040,120
94,29,251160,120
91,36,251160,120
90,35,251280,120
94,27,251400,120
91,35,251400,120
84,41,251520,120
94,29,251640,120
91,35,251640,120
90,35,251760,120
94,27,251880,120
91,33,251880,120
84,37,252000,120
94,27,252120,120
90,33,252120,120
89,33,252240,120
94,27,252360,120
90,35,252360,120
84,37,252480,120
94,27,252600,120
90,32,252600,120
89,32,252720,120
94,27,252840,120
90,33,252840,120
84,37,252960,120
94,27,253080,120
90,33,253080,120
89,33,253200,120
94,27,253320,120
90,35,253320,120
84,37,253440,120
94,27,253560,120
90,32,253560,120
89,32,253680,120
94,27,253800,120
90,32,253800,120
84,37,253920,120
94,27,254040,120
90,33,254040,120
89,33,254160,120
94,27,254280,120
90,33,254280,120
84,39,254400,120
94,27,254520,120
90,35,254520,120
89,35,254640,120
94,27,254760,120
90,33,254760,120
89,45,254880,120
93,51,255000,120
90,43,255000,120
86,51,255120,120
90,51,255240,120
87,43,255240,120
83,51,255360,120
87,51,255480,120
84,43,255480,120
80,51,255600,120
84,51,255720,120
81,43,255720,120
77,51,255840,120
81,51,255960,120
78,43,255960,120
74,51,256080,120
78,51,256200,120
75,43,256200,120
71,51,256320,120
75,51,256440,120
72,43,256440,120
68,51,256560,120
72,51,256680,120
69,43,256680,120
65,51,256800,120
70,51,256920,120
66,43,256920,120
62,51,257040,120
66,51,257160,120
63,43,257160,120
59,51,257280,120
60,51,257400,120
56,43,257400,120
56,51,257520,120
60,51,257640,120
57,43,257640,120
53,51,257760,120
57,51,257880,120
54,43,257880,120
50,51,258000,120
54,51,258120,120
51,43,258120,120
47,51,258240,120
51,51,258360,120
48,43,258360,120
44,51,258480,120
48,51,258600,120
45,43,258600,120
41,51,258720,120
46,51,258840,120
42,43,258840,120
38,51,258960,120
42,50,259080,120
39,42,259080,120
60,56,262080,240
51,46,262080,720
54,46,262080,720
60,51,262320,120
58,56,262440,90
60,51,262560,90
56,51,262680,60
63,49,263040,120
54,44,263160,720
57,44,263160,720
63,53,263160,240
65,49,263400,120
63,54,263520,120
61,46,263640,120
60,46,263760,120
54,44,263880,90
58,53,263880,90
60,50,264000,90
56,50,264120,60
60,49,264480,120
51,44,264600,360
54,44,264600,360
60,53,264600,240
58,49,264840,120
52,44,264960,360
55,44,264960,240
58,52,264960,240
55,46,265200,120
53,44,265320,90
56,52,265320,90
55,49,265440,90
53,49,265560,60
60,46,265920,120
51,43,266040,360
54,43,266040,360
60,51,266040,240
58,46,266280,120
55,44,266400,240
52,44,266400,360
58,52,266400,240
55,45,266640,120
56,53,266760,90
55,45,266880,90
53,45,267000,90
65,62,267120,240
56,52,267120,720
59,52,267120,720
65,55,267360,120
63,62,267480,90
65,55,267600,90
61,55,267720,60
53,39,267720,60
68,53,268080,120
59,47,268200,720
62,47,268200,720
68,57,268200,240
70,54,268440,120
68,62,268560,120
66,53,268680,120
65,54,268800,120
59,51,268920,90
63,62,268920,90
65,59,269040,90
53,52,269160,60
61,55,269160,60
65,59,269520,120
56,53,269640,360
59,53,269640,360
65,63,269640,240
63,59,269880,120
57,52,270000,360
60,52,270000,240
63,62,270000,240
60,56,270240,120
58,52,270360,90
61,62,270360,90
60,59,270480,90
58,59,270600,60
65,56,270960,120
56,51,271080,360
59,51,271080,360
65,62,271080,240
63,56,271320,120
60,52,271440,240
57,52,271440,360
63,62,271440,240
60,55,271680,120
61,63,271800,90
60,55,271920,90
58,55,272040,60
62,65,272160,240
66,65,272160,240
71,65,272160,240
74,79,272160,240
62,59,272400,120
74,70,272400,120
66,65,272520,360
61,65,272520,90
73,79,272520,90
62,59,272640,90
74,70,272640,90
59,59,272760,90
71,70,272760,90
66,56,273120,120
78,66,273120,120
66,61,273240,240
71,51,273240,720
78,71,273240,240
68,57,273480,120
80,69,273480,120
66,65,273600,120
78,79,273600,120
64,56,273720,120
76,66,273720,120
62,56,273840,120
74,69,273840,120
61,56,273960,90
73,76,273960,90
62,56,274080,90
74,73,274080,90
59,62,274200,90
71,74,274200,90
62,62,274560,120
74,73,274560,120
66,66,274680,360
71,66,274680,360
62,66,274680,240
74,80,274680,240
61,62,274920,120
73,73,274920,120
60,65,275040,120
63,65,275040,120
68,65,275040,120
66,65,275040,120
72,79,275040,120
54,65,275400,120
58,65,275400,120
60,65,275400,120
56,65,275760,120
60,65,275760,120
66,65,275760,120
68,79,275760,120
68,65,276120,120
72,65,276120,120
80,65,276120,120
78,65,276120,120
92,65,276480,120
90,65,276480,120
84,65,276480,120
80,65,276480,120
102,75,276840,120
104,75,276840,120
99,75,276840,120
92,75,276840,120
66,65,277200,360
58,65,277200,90
70,79,277200,90
60,56,277320,90
72,66,277320,90
56,56,277440,90
68,69,277440,90
74,80,277920,240
78,80,277920,240
83,80,277920,240
86,94,277920,240
74,71,278160,120
86,85,278160,120
78,80,278280,360
73,80,278280,90
85,94,278280,90
74,70,278400,90
86,83,278400,90
71,70,278520,90
83,83,278520,90
78,67,278880,120
90,80,278880,120
78,72,279000,240
83,62,279000,720
90,85,279000,240
80,69,279240,120
92,82,279240,120
78,80,279360,120
90,94,279360,120
76,67,279480,120
88,80,279480,120
74,67,279600,120
86,82,279600,120
78,80,279720,360
73,67,279720,90
85,90,279720,90
74,67,279840,90
86,89,279840,90
71,74,279960,90
83,89,279960,90
74,74,280320,120
86,89,280320,120
78,80,280440,360
83,80,280440,360
74,80,280440,240
86,95,280440,240
73,74,280680,120
85,89,280680,120
84,89,280800,120
80,74,280800,120
78,74,280800,120
72,74,280800,120
75,74,280800,120
60,71,281040,120
72,85,281040,120
63,73,281160,360
66,73,281160,360
58,71,281160,90
70,85,281160,90
60,71,281280,90
72,85,281280,90
56,71,281400,90
68,85,281400,90
80,80,281520,120
78,66,281520,120
75,66,281520,120
68,66,281520,120
92,80,281880,120
90,66,281880,120
84,66,281880,120
80,66,281880,120
102,66,282240,120
104,80,282240,120
96,66,282240,120
92,66,282240,120
90,66,282600,120
92,80,282600,120
87,66,282600,120
80,66,282600,120
78,71,282960,360
70,71,282960,90
82,80,282960,90
72,65,283080,90
84,73,283080,90
68,65,283200,90
80,73,283200,90
57,75,283320,90
59,67,283440,90
56,70,283560,90
60,44,283800,90
63,44,283800,90
66,50,283800,90
72,50,283800,90
60,44,284040,90
63,44,284040,90
66,50,284040,90
72,50,284040,90
60,51,284280,90
63,51,284280,90
66,57,284280,90
72,57,284280,90
75,62,284520,90
66,55,284520,90
63,55,284520,90
60,47,284760,90
63,47,284760,90
66,53,284760,90
72,53,284760,90
60,41,285000,90
63,41,285000,90
66,45,285000,90
72,45,285000,90
58,44,285240,90
61,44,285240,90
65,50,285240,90
70,50,285240,90
61,44,285480,90
65,44,285480,90
68,50,285480,90
73,50,285480,90
61,44,285720,90
65,44,285720,90
68,50,285720,90
73,50,285720,90
67,53,285960,90
70,53,285960,90
64,53,285960,90
58,46,285960,90
61,55,286200,90
64,55,286200,90
67,62,286200,90
73,62,286200,90
58,47,286440,90
64,47,286440,90
67,53,286440,90
70,53,286440,90
60,44,286680,90
63,44,286680,90
66,49,286680,90
72,54,286680,90
60,43,286920,90
63,43,286920,90
66,47,286920,90
72,53,286920,90
60,47,287160,90
63,47,287160,90
66,53,287160,90
72,61,287160,90
75,62,287400,90
66,49,287400,90
63,49,287400,90
60,42,287640,90
63,42,287640,90
66,46,287640,90
72,53,287640,90
60,40,287880,90
63,40,287880,90
66,44,287880,90
72,50,287880,90
58,44,288120,90
61,44,288120,90
65,49,288120,90
70,54,288120,90
61,43,288360,90
65,43,288360,90
68,53,288360,90
73,53,288360,90
61,43,288600,90
65,43,288600,90
68,47,288600,90
73,53,288600,90
64,44,288840,90
67,49,288840,90
70,54,288840,90
58,44,288840,90
61,52,289080,90
65,52,289080,90
73,65,289080,90
58,44,289320,90
66,49,289320,90
70,54,289320,90
65,49,289560,90
68,49,289560,90
71,56,289560,90
77,63,289560,90
77,63,289800,90
65,47,289800,90
68,47,289800,90
71,54,289800,90
65,53,290040,90
68,53,290040,90
71,61,290040,90
77,67,290040,90
80,74,290280,90
71,65,290280,90
68,60,290280,90
65,52,290520,90
68,52,290520,90
71,57,290520,90
77,64,290520,90
65,45,290760,90
68,45,290760,90
71,51,290760,90
77,57,290760,90
63,49,291000,90
66,49,291000,90
70,56,291000,90
75,63,291000,90
66,47,291240,90
70,47,291240,90
73,54,291240,90
78,62,291240,90
66,47,291480,90
70,47,291480,90
73,54,291480,90
78,62,291480,90
66,49,291720,90
70,56,291720,90
75,63,291720,90
63,49,291720,90
66,62,291960,90
70,62,291960,90
78,79,291960,90
66,49,292200,90
63,49,292200,90
70,56,292200,90
75,63,292200,90
67,54,292440,90
70,54,292440,90
73,62,292440,90
79,69,292440,90
79,70,292680,90
67,53,292680,90
70,53,292680,90
73,60,292680,90
67,61,292920,90
70,61,292920,90
73,66,292920,90
79,75,292920,90
82,81,293160,90
73,72,293160,90
70,63,293160,90
67,62,293400,90
70,62,293400,90
73,69,293400,90
79,77,293400,90
67,53,293640,90
70,53,293640,90
73,60,293640,90
79,66,293640,90
65,60,293880,90
70,60,293880,90
73,66,293880,90
77,75,293880,90
68,56,294120,90
70,56,294120,90
73,63,294120,90
80,71,294120,90
68,56,294360,90
70,56,294360,90
73,63,294360,90
80,71,294360,90
70,60,294600,90
73,66,294600,90
77,75,294600,90
66,60,294600,90
70,63,294840,90
68,63,294840,90
73,79,294840,90
80,79,294840,90
70,65,295080,90
65,65,295080,90
73,74,295080,90
77,83,295080,90
75,59,295320,90
79,59,295320,90
82,65,295320,90
87,73,295320,90
75,59,295560,90
79,59,295560,90
82,65,295560,90
87,73,295560,90
75,66,295800,90
79,66,295800,90
82,75,295800,90
87,84,295800,90
85,64,296040,90
90,81,296040,90
82,64,296040,90
78,64,296040,90
75,63,296280,90
79,63,296280,90
82,70,296280,90
87,80,296280,90
75,53,296520,90
79,53,296520,90
82,61,296520,90
87,66,296520,90
73,59,296760,90
78,59,296760,90
82,65,296760,90
85,73,296760,90
76,59,297000,90
82,59,297000,90
85,65,297000,90
88,73,297000,90
76,59,297240,90
82,59,297240,90
85,65,297240,90
88,73,297240,90
82,69,297480,90
85,79,297480,90
78,69,297480,90
73,62,297480,90
76,66,297720,90
82,66,297720,90
85,74,297720,90
88,83,297720,90
73,63,297960,90
78,63,297960,90
82,70,297960,90
85,80,297960,90
75,59,298200,90
79,59,298200,90
82,65,298200,90
87,73,298200,90
75,59,298440,90
79,59,298440,90
82,65,298440,90
87,73,298440,90
75,66,298680,90
79,66,298680,90
82,75,298680,90
87,84,298680,90
85,64,298920,90
90,81,298920,90
82,64,298920,90
78,64,298920,90
75,63,299160,90
79,63,299160,90
82,70,299160,90
87,80,299160,90
75,53,299400,90
79,53,299400,90
82,61,299400,90
87,66,299400,90
73,59,299640,90
78,59,299640,90
82,65,299640,90
85,73,299640,90
76,59,299880,90
82,59,299880,90
85,65,299880,90
88,73,299880,90
76,59,300120,90
82,59,300120,90
85,65,300120,90
88,73,300120,90
82,69,300360,90
85,79,300360,90
78,69,300360,90
73,62,300360,90
76,66,300600,90
82,66,300600,90
85,74,300600,90
88,83,300600,90
73,63,300840,90
78,63,300840,90
82,70,300840,90
85,80,300840,90
83,57,301080,90
90,57,301080,90
93,65,301080,90
95,73,301080,90
83,57,301320,90
90,57,301320,90
93,65,301320,90
95,73,301320,90
83,66,301560,90
90,66,301560,90
93,76,301560,90
95,84,301560,90
93,63,301800,90
98,80,301800,90
90,63,301800,90
86,63,301800,90
83,61,302040,90
90,61,302040,90
93,70,302040,90
95,77,302040,90
83,53,302280,90
90,53,302280,90
93,59,302280,90
95,67,302280,90
69,80,302520,90
72,86,302520,90
81,80,302640,90
77,72,302640,90
81,63,302880,90
93,71,302880,90
84,63,302880,90
77,69,303120,90
81,69,303120,90
89,75,303120,90
72,62,303360,90
77,62,303360,90
84,69,303360,90
69,57,303600,90
72,57,303600,240
81,64,303600,90
77,61,303720,90
71,61,303960,90
78,61,303960,90
81,69,303960,90
83,77,303960,90
71,61,304200,90
78,61,304200,90
81,69,304200,90
83,77,304200,90
71,70,304440,90
78,70,304440,90
81,80,304440,90
83,89,304440,90
81,67,304680,90
86,85,304680,90
78,67,304680,90
74,67,304680,90
71,65,304920,90
78,65,304920,90
81,74,304920,90
83,82,304920,90
71,56,305160,90
78,56,305160,90
81,63,305160,90
83,71,305160,90
69,80,305400,90
72,86,305400,90
81,80,305520,90
77,72,305520,90
69,57,305760,90
81,63,305760,90
72,57,305760,90
65,62,306000,90
69,62,306000,90
77,66,306000,90
60,54,306240,90
65,54,306240,90
72,62,306240,90
57,51,306480,90
60,51,306480,240
69,57,306480,90
65,53,306600,90
59,53,306840,90
66,53,306840,90
69,62,306840,90
71,69,306840,90
59,53,307080,90
66,53,307080,90
69,62,307080,90
71,69,307080,90
59,52,307320,90
66,52,307320,90
69,60,307320,90
71,68,307320,90
69,61,307560,90
74,76,307560,90
66,61,307560,90
62,61,307560,90
59,50,307800,90
66,50,307800,90
69,55,307800,90
71,62,307800,90
59,50,308040,90
66,50,308040,90
69,56,308040,90
71,63,308040,90
69,59,308280,90
68,54,308520,90
69,62,308520,90
69,64,308760,90
67,59,308760,90
66,62,309000,90
69,69,309000,90
65,63,309240,90
66,63,309240,90
69,71,309240,90
64,67,309480,90
66,67,309480,90
69,75,309480,90
63,69,309720,90
66,69,309720,90
69,77,309720,90
64,65,309960,90
66,65,309960,90
69,73,309960,90
63,63,310200,90
66,63,310200,90
69,71,310200,90
62,63,310440,90
66,63,310440,90
69,71,310440,90
61,62,310680,90
66,62,310680,90
69,69,310680,90
60,61,310920,90
66,61,310920,90
69,67,310920,90
59,57,311160,90
63,57,311160,90
66,57,311160,90
69,63,311160,90
59,60,311400,90
63,60,311400,90
66,60,311400,90
69,67,311400,90
59,63,311640,90
63,63,311640,90
66,63,311640,90
69,72,311640,90
59,67,311880,90
63,67,311880,90
66,67,311880,90
69,75,311880,90
59,72,312120,90
63,72,312120,90
66,72,312120,90
69,80,312120,90
59,75,312360,90
63,75,312360,90
66,75,312360,90
69,84,312360,90
60,95,312600,90
63,86,312720,90
70,86,312720,90
66,80,312720,90
72,77,312840,90
75,77,312840,90
78,86,312840,90
82,97,312840,90
70,69,313080,90
66,62,313080,90
66,79,313320,90
63,71,313320,90
66,79,313560,240
70,87,313560,90
73,86,313680,90
68,72,313800,90
72,81,313800,90
61,81,314040,90
65,89,314040,90
73,81,314160,90
68,73,314160,90
68,80,314280,90
72,80,314280,90
77,89,314280,90
80,99,314280,90
63,69,314520,90
66,75,314520,90
66,62,314760,90
70,66,314760,90
65,59,314880,90
68,64,314880,90
73,86,315360,90
73,69,315480,90
78,69,315480,90
82,75,315480,90
82,96,315600,240
85,70,315720,90
90,77,315720,90
94,87,315720,90
70,62,315960,90
82,69,315960,90
73,62,315960,90
66,71,316200,90
78,79,316200,90
70,71,316200,90
73,64,316560,90
82,64,316560,90
85,77,316560,90
72,64,316680,90
80,64,316680,90
84,72,316680,90
68,86,316800,90
73,63,316920,90
77,63,316920,90
80,70,316920,90
80,95,317040,240
89,80,317160,90
85,80,317160,90
92,89,317160,90
66,62,317400,90
75,62,317400,90
78,66,317400,90
78,69,317640,90
82,75,317640,90
77,65,317760,90
80,72,317760,90
66,77,318360,90
70,77,318360,90
78,86,318360,90
75,86,318360,90
80,81,318480,240
68,81,318480,240
81,94,318720,90
78,94,318720,90
75,83,318720,90
69,83,318720,90
82,86,318840,90
70,77,318840,90
87,103,318960,90
78,92,318960,90
75,92,318960,90
86,87,319080,90
74,79,319080,90
85,95,319200,90
73,84,319200,90
72,76,319320,90
84,85,319320,90
71,79,319440,90
83,87,319440,90
82,87,319560,90
70,79,319560,90
81,86,319680,90
77,86,319680,90
69,77,319680,90
80,79,319800,90
68,71,319800,90
73,79,319920,240
85,87,319920,240
84,73,320160,240
78,73,320160,240
72,66,320160,240
83,77,320280,90
71,69,320280,90
82,72,320400,90
77,72,320400,90
70,64,320400,90
80,70,320520,90
68,62,320520,90
82,64,320640,90
70,59,320640,90
77,70,320760,360
74,70,320760,360
68,63,320760,360
65,63,320760,360
78,77,321240,90
82,77,321240,90
90,86,321240,90
87,86,321240,90
92,81,321360,240
80,72,321360,240
93,93,321600,90
90,93,321600,90
87,79,321600,90
81,79,321600,90
94,86,321720,90
82,77,321720,90
99,94,321840,90
91,84,321840,90
87,84,321840,90
98,87,321960,90
86,79,321960,90
97,95,322080,90
85,84,322080,90
84,80,322200,90
96,89,322200,90
83,81,322320,90
95,90,322320,90
94,87,322440,90
82,79,322440,90
93,90,322560,90
88,90,322560,90
81,81,322560,90
92,81,322680,90
80,72,322680,90
85,79,322800,240
97,87,322800,240
95,70,323040,240
87,70,323040,240
83,62,323040,240
93,79,323160,90
81,70,323160,90
92,73,323280,90
88,73,323280,90
80,66,323280,90
90,71,323400,90
78,63,323400,90
92,67,323520,90
80,60,323520,90
88,67,323640,360
80,61,323640,360
76,61,323640,360
61,63,324120,90
64,72,324120,90
73,65,324240,90
69,59,324240,90
72,61,324480,90
68,53,324480,90
69,47,324600,90
73,54,324600,90
66,55,324840,90
69,63,324840,90
69,66,325080,240
73,75,325080,90
76,72,325200,90
71,61,325320,90
75,66,325320,90
59,61,325560,90
68,66,325560,90
71,62,325680,90
68,53,325680,90
64,56,325920,90
68,63,325920,90
66,52,326040,90
69,57,326040,90
69,52,326280,90
73,57,326280,90
71,54,326400,90
68,47,326400,90
73,40,327000,90
76,44,327000,90
85,41,327120,90
81,41,327120,90
84,36,327360,90
80,32,327360,90
81,29,327480,90
85,33,327480,90
78,34,327720,90
81,37,327720,90
81,45,327960,240
85,45,327960,90
88,44,328080,90
83,42,328200,90
87,42,328200,90
71,36,328440,90
76,42,328440,90
83,36,328560,90
80,33,328560,90
76,35,328800,90
80,40,328800,90
78,31,328920,90
81,35,328920,90
81,31,329160,90
85,35,329160,90
80,29,329280,90
83,33,329280,90
69,69,329880,90
73,69,329880,90
81,77,329880,90
78,77,329880,90
83,81,330000,240
71,81,330000,240
84,89,330240,90
81,89,330240,90
78,80,330240,90
72,80,330240,90
85,86,330360,90
73,77,330360,90
90,97,330480,90
81,87,330480,90
78,87,330480,90
89,87,330600,90
77,79,330600,90
88,95,330720,90
76,84,330720,90
75,76,330840,90
87,85,330840,90
74,79,330960,90
86,87,330960,90
85,87,331080,90
73,79,331080,90
84,86,331200,90
80,86,331200,90
72,77,331200,90
83,79,331320,90
71,71,331320,90
76,79,331440,240
88,87,331440,240
87,73,331680,240
81,73,331680,240
75,66,331680,240
74,77,331800,90
86,77,331800,90
85,72,331920,90
80,72,331920,90
73,64,331920,90
83,70,332040,90
71,62,332040,90
85,64,332160,90
73,59,332160,90
80,70,332280,360
77,70,332280,360
71,63,332280,360
68,63,332280,360
81,64,332760,90
85,64,332760,90
93,73,332760,90
90,73,332760,90
95,76,332880,240
83,76,332880,240
96,83,333120,90
93,83,333120,90
90,74,333120,90
84,74,333120,90
97,76,333240,90
85,67,333240,90
102,84,333360,90
93,77,333360,90
90,77,333360,90
101,80,333480,90
89,74,333480,90
88,80,333600,90
100,87,333600,90
87,72,333720,90
99,81,333720,90
86,74,333840,90
98,82,333840,90
97,82,333960,90
85,74,333960,90
96,81,334080,90
92,81,334080,90
84,73,334080,90
95,74,334200,90
83,66,334200,90
88,74,334320,240
100,82,334320,240
99,70,334560,240
93,70,334560,240
87,63,334560,240
86,73,334680,90
98,73,334680,90
97,67,334800,90
92,67,334800,90
85,61,334800,90
95,65,334920,90
83,57,334920,90
97,61,335040,90
85,55,335040,90
92,57,335160,360
89,57,335160,360
83,54,335160,360
80,54,335160,360
44,47,335520,90
54,47,335640,90
49,47,335640,90
53,47,335760,90
57,54,335880,90
54,54,335880,90
56,52,336000,90
57,52,336120,90
61,52,336120,90
59,52,336240,90
60,46,336360,90
63,60,336360,90
58,41,336480,90
61,52,336480,90
56,41,336600,90
60,52,336600,90
55,52,336720,90
54,51,336840,90
58,51,336840,90
52,51,336960,90
53,47,337080,90
56,47,337080,90
55,47,337200,90
56,56,337320,90
60,56,337320,90
59,53,337440,90
60,53,337560,90
63,53,337560,90
60,52,337680,90
61,46,337800,90
65,60,337800,90
60,44,337920,90
63,55,337920,90
58,45,338040,90
61,57,338040,90
57,53,338160,90
56,53,338280,90
60,53,338280,90
53,51,338400,90
54,47,338520,90
58,47,338520,90
57,47,338640,90
58,54,338760,90
61,54,338760,90
60,52,338880,90
65,52,339000,90
61,52,339000,90
62,52,339120,90
66,60,339240,90
63,46,339240,90
65,52,339360,90
61,41,339360,90
63,52,339480,90
60,41,339480,90
59,52,339600,90
61,51,339720,90
58,51,339720,90
64,52,339840,90
68,60,339960,90
65,46,339960,90
66,52,340080,90
63,41,340080,90
65,52,340200,90
61,41,340200,90
59,52,340320,90
63,51,340440,90
60,51,340440,90
65,52,340560,90
70,60,340680,90
66,46,340680,90
68,52,340800,90
65,41,340800,90
66,52,340920,90
63,41,340920,90
62,52,341040,90
65,51,341160,90
61,51,341160,90
62,53,341280,90
66,50,341400,90
62,50,341400,90
65,50,341520,90
69,57,341640,90
66,57,341640,90
68,53,341760,90
70,54,341880,90
74,54,341880,90
73,54,342000,90
74,50,342120,90
78,63,342120,90
73,44,342240,90
76,54,342240,90
71,44,342360,90
74,54,342360,90
70,55,342480,90
69,54,342600,90
73,54,342600,90
67,59,342720,90
68,54,342840,90
71,54,342840,90
70,54,342960,90
71,65,343080,90
74,65,343080,90
73,62,343200,90
74,62,343320,90
78,62,343320,90
76,61,343440,90
77,54,343560,90
80,69,343560,90
74,52,343680,90
78,65,343680,90
73,53,343800,90
77,67,343800,240
72,63,343920,90
71,62,344040,90
74,62,344040,90
68,59,344160,90
69,61,344280,90
73,61,344280,90
72,61,344400,90
73,72,344520,90
78,72,344520,90
77,66,344640,90
78,67,344760,90
81,67,344760,90
73,63,344880,90
74,61,345000,90
78,61,345000,90
77,61,345120,90
78,72,345240,90
83,72,345240,90
82,66,345360,90
83,67,345480,90
86,67,345480,90
79,62,345600,90
80,63,345720,90
83,63,345720,90
82,63,345840,90
83,75,345960,90
86,75,345960,90
85,70,346080,90
86,71,346200,90
90,71,346200,90
83,71,346320,90
87,65,346440,90
84,65,346440,90
92,65,346440,90
86,65,346560,90
90,74,346680,90
87,74,346680,90
96,74,346680,90
89,70,346800,90
96,71,346920,90
90,71,346920,90
99,74,346920,90
101,101,347040,240
97,93,347040,240
89,93,347040,240
65,82,347280,480
68,82,347280,480
77,104,347280,240
75,99,347520,90
77,93,347640,90
65,69,347760,240
68,69,347760,240
73,93,347760,240
61,93,348000,240
68,90,348240,480
73,90,348240,480
80,101,348240,480
70,85,348720,240
73,85,348720,240
82,95,348720,240
73,83,348960,480
80,83,348960,90
68,74,348960,90
79,73,349080,90
67,65,349080,90
77,72,349320,90
65,72,349320,90
75,73,349560,90
63,66,349560,90
73,71,349800,90
61,63,349800,90
65,83,350160,480
77,93,350160,480
66,79,350640,240
75,87,350640,240
66,80,350880,480
75,89,350880,90
74,79,351000,90
73,79,351120,90
72,74,351240,90
65,70,351360,240
73,80,351360,90
72,70,351480,90
70,71,351600,240
65,65,352080,480
68,79,352080,480
69,76,352560,240
65,62,352800,480
69,80,352800,120
70,74,352920,120
71,74,353040,120
72,74,353160,120
65,70,353280,240
70,81,353280,120
72,74,353400,120
73,74,353520,120
77,74,353640,120
82,82,353760,120
84,76,353880,120
85,76,354000,120
89,76,354120,120
94,82,354240,120
96,79,354360,120
97,79,354480,120
101,79,354600,120
60,62,354900,300
65,65,354930,270
72,69,354960,240
75,65,355320,120
72,65,355320,120
69,59,355320,120
65,59,355320,120
79,64,355560,120
67,57,355560,120
64,56,355680,120
67,56,355680,120
70,63,355680,120
76,63,355680,120
62,52,355920,120
67,52,355920,120
70,59,355920,120
74,59,355920,120
70,62,356160,80
74,71,356160,480
67,62,356240,80
62,62,356320,80
60,65,356880,80
65,59,356960,80
72,59,357040,80
69,59,357040,80
89,57,357240,120
84,57,357240,120
81,57,357240,120
77,57,357240,120
91,62,357480,120
79,62,357480,120
88,69,357600,120
82,69,357600,120
79,62,357600,120
76,62,357600,120
86,57,357840,120
82,51,357840,120
79,57,357840,120
74,51,357840,120
82,64,358080,80
86,72,358080,480
79,57,358160,80
74,57,358240,80
72,54,358530,270
81,57,358545,255
84,63,358560,240
93,93,358800,120
89,93,358800,120
84,82,358800,120
81,82,358800,120
91,87,359040,120
79,79,359040,120
89,86,359280,120
77,77,359280,120
86,85,359520,120
74,76,359520,120
84,85,359760,120
72,76,359760,120
81,84,360000,120
69,75,360000,120
79,83,360240,120
67,74,360240,120
65,74,360480,120
77,83,360480,120
62,74,360720,120
74,82,360720,120
60,73,360960,120
72,81,360960,120
57,72,361200,120
69,81,361200,120
55,77,361440,120
67,86,361440,120
53,55,361620,60
65,63,361620,60
55,56,361680,60
67,63,361680,60
57,56,361740,60
69,63,361740,60
59,57,361800,60
71,63,361800,60
60,59,361860,60
72,65,361860,60
62,59,361920,60
74,66,361920,60
64,59,361980,60
76,66,361980,60
65,60,362040,60
77,67,362040,60
67,61,362100,60
79,69,362100,60
69,62,362160,60
81,70,362160,60
71,62,362220,60
83,71,362220,60
72,62,362280,60
84,71,362280,60
74,63,362340,60
86,71,362340,60
88,71,362400,60
76,63,362400,60
89,72,362460,60
77,63,362460,60
91,72,362520,60
79,65,362520,60
93,72,362580,60
81,65,362580,60
95,73,362640,60
83,66,362640,60
96,74,362700,60
84,66,362700,60
98,75,362760,60
86,67,362760,60
100,76,362820,60
88,69,362820,60
101,93,362880,240
89,87,362880,240
80,89,363120,240
85,89,363120,240
89,99,363120,240
77,89,363120,240
87,94,363360,90
75,83,363360,90
89,89,363480,90
77,79,363480,90
85,89,363600,240
73,79,363600,240
61,89,363840,240
80,88,364080,480
85,88,364080,480
89,88,364080,480
92,97,364080,480
82,80,364560,240
85,80,364560,240
89,80,364560,240
94,91,364560,240
85,77,364800,120
89,84,364800,120
80,77,364800,120
92,84,364800,120
79,77,364920,120
91,84,364920,120
78,75,365040,120
90,83,365040,120
77,73,365160,120
89,82,365160,120
76,72,365280,120
88,81,365280,120
75,72,365400,120
87,80,365400,120
74,71,365520,120
86,79,365520,120
73,69,365640,120
85,79,365640,120
89,97,366000,480
77,88,366000,480
80,88,366000,480
75,89,366480,240
78,89,366480,240
87,100,366480,240
75,80,366720,120
87,91,366720,120
74,75,366840,120
86,83,366840,120
73,77,366960,120
85,84,366960,120
72,69,367080,120
84,78,367080,120
73,75,367200,120
85,83,367200,120
72,69,367320,120
84,78,367320,120
71,69,367440,120
83,78,367440,120
70,69,367560,120
82,78,367560,120
77,83,367920,480
80,93,367920,480
68,83,367920,480
73,83,367920,480
78,78,368400,240
69,78,368400,240
72,78,368400,240
81,88,368400,240
78,80,368640,120
72,80,368640,120
69,80,368640,120
81,91,368640,120
70,75,368760,120
82,83,368760,120
71,77,368880,120
83,84,368880,120
72,69,369000,120
84,78,369000,120
77,75,369120,120
70,75,369120,120
82,83,369120,120
72,69,369240,120
84,78,369240,120
73,69,369360,120
85,78,369360,120
77,69,369480,120
89,78,369480,120
80,92,369840,240
89,92,369840,240
92,92,369840,240
82,100,370080,480
88,100,370080,480
94,100,370080,480
83,95,370560,120
88,95,370560,120
95,95,370560,120
59,61,370740,300
64,63,370770,270
71,72,370800,240
75,65,371160,120
71,65,371160,120
68,59,371160,120
64,59,371160,120
78,64,371400,120
66,57,371400,120
63,56,371520,120
66,56,371520,120
69,63,371520,120
75,63,371520,120
61,52,371760,120
66,52,371760,120
69,59,371760,120
73,59,371760,120
69,62,372000,80
73,71,372000,480
66,62,372080,80
61,62,372160,80
59,65,372720,80
64,59,372800,80
71,59,372880,80
68,59,372880,80
88,57,373080,120
83,57,373080,120
80,57,373080,120
76,57,373080,120
90,62,373320,120
78,62,373320,120
87,69,373440,120
81,69,373440,120
78,62,373440,120
75,62,373440,120
85,57,373680,120
81,51,373680,120
78,57,373680,120
73,51,373680,120
82,64,373920,60
85,72,373920,480
76,61,373980,60
73,63,374040,60
44,76,374640,120
49,59,374760,120
56,67,374760,120
61,59,375000,120
56,52,375000,120
53,52,375000,120
49,52,375000,120
63,56,375240,120
51,56,375240,120
60,75,375360,120
54,56,375360,120
51,56,375360,120
48,56,375360,120
58,70,375600,120
46,47,375600,120
52,63,375840,120
58,85,375840,480
46,59,375960,120
50,76,376560,120
58,59,376680,120
65,67,376680,120
70,63,376920,120
65,52,376920,120
62,52,376920,120
58,52,376920,120
72,59,377160,120
60,56,377160,120
69,75,377280,120
63,56,377280,120
60,56,377280,120
57,56,377280,120
67,70,377520,120
55,47,377520,120
61,63,377760,120
67,76,377760,480
52,59,377880,120
53,76,378480,120
61,59,378600,120
68,67,378600,120
73,63,378840,120
68,52,378840,120
65,52,378840,120
61,52,378840,120
75,59,379080,120
63,56,379080,120
72,75,379200,120
66,56,379200,120
63,56,379200,120
60,56,379200,120
70,70,379440,120
58,47,379440,120
64,63,379680,120
70,85,379680,480
58,59,379800,120
62,80,380400,120
70,62,380520,120
77,70,380520,120
70,57,380760,120
77,57,380760,120
74,57,380760,120
82,67,380760,120
84,61,381000,120
72,58,381000,120
81,81,381120,120
75,60,381120,120
72,60,381120,120
69,60,381120,120
79,75,381360,120
67,49,381360,120
73,67,381600,120
79,90,381600,480
64,61,381720,120
65,89,382320,120
73,69,382440,120
80,77,382440,120
73,62,382680,120
85,69,382680,120
87,65,382920,120
75,65,382920,120
84,85,383040,120
78,67,383040,120
75,67,383040,120
72,67,383040,120
82,76,383280,120
70,54,383280,120
86,85,383520,120
80,67,383520,120
77,67,383520,120
74,67,383520,120
85,77,383760,120
73,56,383760,120
88,87,384000,120
82,69,384000,120
79,69,384000,120
76,69,384000,120
87,79,384240,120
75,57,384240,120
89,89,384480,120
83,70,384480,120
80,70,384480,120
77,70,384480,120
87,80,384720,120
75,57,384720,120
81,71,384960,120
85,71,384960,120
87,71,384960,120
93,90,384960,120
80,58,385200,120
92,81,385200,120
78,58,385320,120
90,66,385320,120
84,73,385440,120
87,73,385440,120
90,73,385440,120
96,92,385440,120
82,59,385680,120
94,84,385680,120
80,59,385800,120
92,84,385800,120
85,70,385920,240
89,70,385920,240
97,100,385920,240
56,61,386160,90
61,61,386160,90
56,54,386280,90
61,54,386280,90
56,61,386640,90
61,61,386640,90
56,56,386760,90
61,56,386760,90
59,61,387120,90
61,61,387120,90
59,56,387240,90
61,56,387240,90
57,61,387600,90
61,61,387600,90
57,56,387720,90
61,56,387720,90
54,61,387960,90
59,61,387960,90
52,56,388080,90
59,56,388080,90
57,56,388440,90
59,56,388440,90
56,62,388560,90
59,62,388560,90
54,56,388920,90
59,56,388920,90
56,61,389040,90
59,61,389040,90
57,61,389400,90
59,61,389400,90
69,84,389640,90
81,95,389640,90
75,84,389640,90
73,84,389760,240
77,84,389760,240
85,95,389760,240
56,61,390000,90
61,61,390000,90
56,54,390120,90
61,54,390120,90
56,61,390480,90
61,61,390480,90
56,56,390600,90
61,56,390600,90
59,61,390960,90
61,61,390960,90
59,56,391080,90
61,56,391080,90
57,61,391440,90
61,61,391440,90
57,56,391560,90
61,56,391560,90
54,61,391800,90
57,61,391800,90
52,56,391920,90
57,56,391920,90
55,56,392280,90
57,56,392280,90
54,62,392400,90
57,62,392400,90
52,56,392760,90
57,56,392760,90
54,61,392880,90
57,61,392880,90
55,61,393240,90
57,61,393240,90
57,84,393480,90
69,95,393480,90
66,84,393600,240
69,84,393600,240
74,84,393600,240
78,95,393600,240
62,61,393840,90
69,61,393840,90
62,54,393960,90
69,54,393960,90
62,61,394320,90
69,61,394320,90
62,56,394440,90
69,56,394440,90
66,61,394800,90
69,61,394800,90
66,56,394920,90
69,56,394920,90
66,61,395280,90
61,61,395280,90
69,61,395280,90
66,56,395400,90
61,56,395400,90
69,56,395400,90
71,84,395520,240
74,84,395520,240
79,84,395520,240
83,95,395520,240
67,61,395760,90
74,61,395760,90
67,54,395880,90
74,54,395880,90
67,61,396240,90
74,61,396240,90
67,56,396360,90
74,56,396360,90
71,61,396720,90
74,61,396720,90
71,56,396840,90
74,56,396840,90
71,61,397200,240
66,61,397200,240
74,61,397200,240
53,65,397440,360
65,65,397440,360
59,62,397560,120
61,62,397560,120
54,63,397800,120
66,63,397800,120
67,67,397920,360
55,67,397920,360
61,63,398040,120
65,63,398040,120
56,66,398280,120
68,66,398280,120
57,72,398400,360
69,72,398400,360
61,66,398520,120
66,66,398520,120
59,71,398760,120
71,71,398760,120
60,76,398880,360
72,76,398880,360
66,67,399000,120
70,67,399000,120
61,74,399240,120
73,74,399240,120
62,80,399360,360
74,80,399360,360
69,72,399480,120
66,72,399480,120
64,76,399720,120
76,76,399720,120
65,84,399840,360
77,84,399840,360
69,75,399960,120
72,75,399960,120
66,81,400200,120
78,81,400200,120
68,87,400320,360
80,87,400320,360
75,80,400440,120
78,80,400440,120
70,85,400680,120
82,85,400680,120
71,92,400800,360
83,92,400800,360
75,84,400920,120
78,84,400920,120
72,90,401160,120
84,90,401160,120
73,96,401280,240
77,96,401280,240
85,106,401280,240
73,50,401640,120
68,50,401640,120
61,50,401640,120
71,51,401880,120
68,51,401880,120
59,51,401880,120
73,52,402120,120
68,52,402120,120
61,52,402120,120
74,55,402360,120
66,55,402360,120
62,55,402360,120
76,53,402600,120
64,53,402600,120
66,53,402600,120
73,53,402840,120
66,53,402840,120
61,53,402840,120
74,51,403080,120
66,51,403080,120
62,51,403080,120
71,55,403320,120
64,55,403320,120
59,55,403320,120
69,51,403440,120
64,51,403440,120
57,51,403440,120
62,55,403800,120
64,55,403800,120
74,55,403800,120
73,51,403920,120
64,51,403920,120
61,51,403920,120
59,52,404280,120
64,52,404280,120
71,52,404280,120
61,49,404400,120
64,49,404400,120
73,49,404400,120
62,55,404760,120
64,55,404760,120
74,55,404760,120
68,73,405000,120
78,73,405000,120
80,73,405000,120
73,84,405120,240
77,84,405120,240
85,95,405120,240
73,50,405480,120
68,50,405480,120
61,50,405480,120
71,51,405720,120
68,51,405720,120
59,51,405720,120
73,52,405960,120
68,52,405960,120
61,52,405960,120
74,55,406200,120
66,55,406200,120
62,55,406200,120
76,53,406440,120
64,53,406440,120
66,53,406440,120
73,53,406680,120
66,53,406680,120
61,53,406680,120
74,51,406920,120
66,51,406920,120
62,51,406920,120
71,55,407160,120
64,55,407160,120
59,55,407160,120
69,51,407280,120
64,51,407280,120
57,51,407280,120
60,55,407640,120
64,55,407640,120
72,55,407640,120
71,51,407760,120
64,51,407760,120
59,51,407760,120
57,52,408120,120
64,52,408120,120
69,52,408120,120
59,49,408240,120
64,49,408240,120
71,49,408240,120
60,55,408600,120
62,55,408600,120
72,55,408600,120
66,73,408840,120
62,73,408840,120
72,73,408840,120
74,73,408840,120
71,84,408960,240
74,84,408960,240
79,84,408960,240
83,95,408960,240
67,61,409200,90
74,61,409200,90
67,54,409320,90
74,54,409320,90
67,61,409680,90
74,61,409680,90
67,56,409800,90
74,56,409800,90
71,61,410160,90
74,61,410160,90
71,56,410280,90
74,56,410280,90
71,61,410640,90
66,61,410640,90
74,61,410640,90
71,56,410760,90
66,56,410760,90
74,56,410760,90
76,84,410880,240
79,84,410880,240
84,84,410880,240
88,95,410880,240
72,61,411120,90
79,61,411120,90
72,54,411240,90
79,54,411240,90
72,61,411600,90
79,61,411600,90
72,56,411720,90
79,56,411720,90
76,61,412080,90
79,61,412080,90
76,56,412200,90
79,56,412200,90
76,61,412560,240
71,61,412560,240
79,61,412560,240
58,65,412800,360
70,65,412800,360
64,62,412920,120
66,62,412920,120
59,64,413160,120
71,64,413160,120
72,70,413280,360
60,70,413280,360
66,65,413400,120
70,65,413400,120
61,70,413640,120
73,70,413640,120
62,74,413760,360
74,74,413760,360
66,70,413880,120
71,70,413880,120
64,73,414120,120
76,73,414120,120
65,80,414240,360
77,80,414240,360
71,73,414360,120
74,73,414360,120
66,78,414600,120
78,78,414600,120
68,84,414720,360
80,84,414720,360
76,78,414840,120
74,78,414840,120
69,81,415080,120
81,81,415080,120
70,89,415200,360
82,89,415200,360
74,79,415320,120
80,79,415320,120
71,87,415560,120
83,87,415560,120
72,94,415680,360
84,94,415680,360
78,86,415800,120
80,86,415800,120
73,93,416040,120
85,93,416040,120
75,100,416160,360
87,100,416160,360
80,92,416280,120
84,92,416280,120
76,99,416520,120
88,99,416520,120
80,93,416880,240
85,106,416880,240
89,106,416880,240
77,93,416880,240
87,99,417120,90
75,90,417120,90
89,93,417240,90
77,83,417240,90
85,93,417360,240
73,83,417360,240
82,78,417840,480
88,78,417840,480
94,94,417840,480
84,71,418320,240
88,71,418320,240
96,82,418320,240
85,73,418560,120
89,84,418560,120
80,73,418560,120
92,84,418560,120
79,73,418680,120
91,84,418680,120
78,72,418800,120
90,82,418800,120
77,72,418920,120
89,80,418920,120
76,71,419040,120
88,80,419040,120
77,71,419160,120
89,78,419160,120
75,70,419280,120
87,77,419280,120
73,69,419400,120
85,76,419400,120
77,81,419760,480
81,81,419760,480
89,92,419760,480
75,76,420240,240
87,85,420240,240
78,72,420480,120
75,72,420480,120
87,90,420480,120
74,76,420600,120
86,85,420600,120
73,74,420720,120
85,83,420720,120
72,72,420840,120
84,81,420840,120
73,65,420960,120
85,74,420960,120
72,63,421080,120
84,72,421080,120
78,70,421200,240
70,62,421200,240
82,70,421200,240
82,83,421680,480
88,83,421680,480
94,93,421680,480
84,75,422160,240
88,75,422160,240
96,83,422160,240
85,74,422400,120
89,82,422400,120
80,74,422400,120
92,82,422400,120
79,74,422520,120
91,82,422520,120
78,73,422640,120
90,82,422640,120
77,73,422760,120
89,81,422760,120
76,72,422880,120
88,81,422880,120
77,72,423000,120
89,80,423000,120
75,71,423120,120
87,79,423120,120
73,69,423240,120
85,77,423240,120
67,70,423360,120
79,79,423360,120
68,63,423480,120
80,71,423480,120
66,70,423600,120
78,79,423600,120
65,63,423720,120
77,71,423720,120
64,70,423840,120
76,79,423840,120
65,64,423960,120
77,72,423960,120
63,70,424080,120
75,79,424080,120
61,63,424200,120
73,71,424200,120
67,73,424320,120
68,63,424440,120
66,71,424560,120
65,64,424680,120
64,71,424800,120
65,60,424920,120
63,65,425040,120
61,60,425160,120
54,51,425520,720
58,51,425520,720
65,62,425520,480
63,52,426000,240
54,52,426240,240
63,52,426240,120
62,51,426360,120
61,51,426480,120
60,50,426600,120
54,53,426720,240
61,53,426720,120
60,52,426840,120
59,51,426960,120
58,50,427080,120
54,51,427440,720
58,51,427440,720
65,60,427440,480
63,52,427920,240
53,52,428160,240
63,52,428160,120
62,51,428280,120
61,51,428400,120
60,50,428520,120
52,53,428640,240
61,53,428640,120
59,52,428760,120
58,51,428880,120
57,50,429000,120
56,53,429360,480
61,53,429360,720
68,67,429360,480
54,49,429840,240
66,55,429840,240
66,61,430080,240
62,61,430080,120
63,54,430200,120
61,54,430320,120
60,53,430440,120
69,64,430560,240
65,64,430560,120
66,60,430680,120
64,61,430800,120
63,59,430920,120
72,70,431040,240
69,70,431040,120
70,63,431160,120
68,64,431280,120
66,63,431400,120
75,75,431520,240
71,75,431520,120
72,69,431640,120
70,70,431760,120
68,69,431880,120
78,81,432000,240
74,81,432000,120
75,75,432120,120
73,75,432240,120
72,73,432360,120
84,85,432480,240
81,85,432480,120
82,80,432600,120
80,81,432720,120
78,79,432840,120
89,96,432960,240
85,96,432960,240
77,96,432960,240
101,96,433200,120
97,81,433200,120
92,81,433200,120
97,90,433440,120
92,76,433440,120
89,76,433440,120
85,72,433680,120
89,72,433680,120
92,86,433680,120
89,89,433920,120
85,74,433920,120
80,74,433920,120
85,87,434160,120
80,73,434160,120
77,73,434160,120
73,72,434400,120
77,72,434400,120
80,86,434400,120
68,71,434640,120
73,71,434640,120
77,84,434640,120
65,71,434880,120
68,71,434880,120
73,84,434880,120
77,85,435120,120
73,72,435120,120
68,72,435120,120
73,81,435360,120
68,67,435360,120
65,67,435360,120
61,64,435600,120
65,64,435600,120
68,77,435600,120
65,80,435840,120
61,65,435840,120
56,65,435840,120
61,79,436080,120
56,65,436080,120
53,65,436080,120
49,64,436320,120
53,64,436320,120
56,77,436320,120
44,63,436560,120
49,63,436560,120
53,75,436560,120
41,63,436800,120
44,63,436800,120
49,75,436800,120
41,48,437040,120
49,46,437040,120
53,56,437040,120
41,48,437280,120
49,48,437280,120
53,58,437280,120
41,50,437520,120
49,50,437520,120
53,59,437520,120
41,52,437760,120
49,52,437760,120
53,61,437760,120
41,53,438000,120
49,53,438000,120
53,63,438000,120
41,56,438240,120
49,56,438240,120
53,66,438240,120
41,58,438480,120
49,58,438480,120
53,68,438480,120
41,58,438720,120
49,58,438720,120
53,69,438720,120
41,58,438960,120
49,58,438960,120
53,68,438960,120
41,57,439200,120
49,57,439200,120
53,67,439200,120
41,54,439440,120
49,54,439440,120
53,65,439440,120
41,53,439680,120
49,53,439680,120
53,63,439680,120
41,52,439920,120
49,52,439920,120
53,61,439920,120
41,51,440160,120
49,51,440160,120
53,59,440160,120
41,49,440400,120
49,49,440400,120
53,58,440400,120
41,48,440640,180
49,48,440640,180
53,58,440640,180
65,67,441060,300
72,71,441090,270
77,80,441120,240
85,79,441600,240
81,79,441600,240
73,67,441600,240
76,67,441600,240
81,67,442080,240
85,67,442080,240
87,79,442080,240
93,79,442080,240
101,84,442560,240
97,84,442560,240
92,70,442560,240
89,70,442560,240
97,90,443520,240
92,76,443520,240
85,76,443520,240
80,81,444300,60
81,82,444360,60
84,82,444420,60
73,82,444480,120
85,92,444480,120
49,85,444720,240
58,89,0,90
58,84,360,90
54,82,720,90
58,86,1080,90
56,81,1440,90
56,81,1800,90
56,80,2160,90
53,90,2520,360
58,53,2880,90
58,50,3240,90
54,49,3600,90
58,49,3960,90
56,51,4320,90
56,49,4680,90
56,49,5040,90
53,54,5400,360
54,80,5760,90
58,82,6120,90
63,85,6480,90
60,81,6840,90
56,83,7200,90
61,80,7560,90
58,80,7920,90
53,89,8280,360
54,47,8640,90
58,49,9000,90
63,50,9360,90
60,47,9720,90
56,50,10080,90
61,47,10440,90
58,47,10800,90
53,57,11160,360
56,67,11520,90
61,76,11520,90
56,87,11880,720
49,76,11880,720
49,70,12600,90
37,62,12600,90
61,65,12960,90
56,59,12960,90
49,77,13320,720
56,86,13320,720
37,62,14040,90
49,70,14040,90
56,36,14400,90
61,42,14400,90
49,44,14760,720
56,49,14760,720
49,35,15480,90
37,31,15480,90
61,34,15840,90
56,30,15840,90
56,46,16200,720
49,42,16200,720
37,29,16920,90
49,33,16920,90
54,62,17280,360
58,62,17280,360
49,55,17280,360
37,46,17640,360
49,53,17640,360
63,63,18000,360
56,57,18000,360
66,63,18000,360
49,53,18360,360
37,46,18360,360
56,44,18720,90
61,44,18720,90
49,39,18720,90
66,61,19080,360
63,61,19080,360
61,53,19080,480
65,50,19440,90
59,53,19800,360
49,47,19800,360
56,53,19800,360
49,29,20160,360
58,33,20160,360
54,33,20160,360
37,25,20520,360
49,27,20520,360
66,35,20880,360
56,31,20880,360
63,35,20880,360
49,27,21240,360
37,25,21240,360
56,23,21600,90
49,20,21600,90
61,23,21600,90
66,30,21960,360
61,26,21960,480
63,30,21960,360
65,26,22320,90
55,22,22680,360
46,19,22680,360
41,27,23040,120
53,27,23040,120
60,27,23160,120
53,27,23160,120
53,29,23520,120
58,29,23520,120
53,30,23880,120
61,30,23880,120
60,27,24240,120
53,27,24240,120
58,31,24600,120
51,31,24600,120
51,27,24960,120
61,27,24960,120
58,27,25320,120
51,27,25320,120
51,27,25680,120
61,27,25680,120
60,27,26040,120
53,27,26040,120
58,31,26400,120
53,31,26400,120
61,33,26760,120
53,33,26760,120
60,29,27120,120
53,29,27120,120
51,32,27480,120
58,32,27480,120
61,29,27840,120
51,29,27840,120
51,29,28200,120
58,29,28200,120
61,29,28560,120
51,29,28560,120
53,27,28800,120
60,32,28800,120
53,29,29160,120
58,29,29160,120
53,36,29520,120
61,36,29520,120
60,27,29880,120
53,27,29880,120
58,32,30240,120
51,32,30240,120
51,48,30600,120
61,48,30600,120
51,32,30960,120
58,32,30960,120
51,31,31320,120
61,31,31320,120
60,37,31680,120
53,34,31680,240
53,27,31920,120
41,27,31920,120
58,35,32040,120
53,35,32040,240
41,27,32280,120
53,27,32280,120
61,44,32400,120
53,44,32400,240
41,35,32640,120
53,35,32640,120
53,40,32760,240
60,40,32760,120
53,35,33000,120
41,35,33000,120
51,50,33120,240
58,50,33120,120
51,29,33360,120
39,29,33360,120
61,56,33480,120
51,56,33480,240
51,37,33720,120
39,37,33720,120
51,51,33840,240
58,51,33840,120
39,42,34080,120
51,42,34080,120
61,50,34200,120
57,50,34200,360
51,50,34200,360
61,64,34560,90
54,61,34680,90
51,61,34800,90
44,72,34920,360
37,64,34920,360
62,60,35040,90
63,53,35160,90
59,62,35280,90
56,55,35280,90
58,56,35400,90
54,50,35400,90
56,56,35520,90
53,50,35520,90
51,57,35640,240
54,64,35640,90
58,61,35760,90
56,61,35880,90
61,64,36000,90
56,61,36120,90
53,61,36240,90
37,69,36360,360
44,77,36360,360
53,60,36480,90
56,53,36600,90
61,62,36720,90
49,56,36840,90
56,56,36960,90
65,72,37080,360
73,40,37440,90
66,36,37560,90
63,36,37680,90
56,41,37800,360
49,36,37800,360
74,36,37920,90
75,32,38040,90
71,37,38160,90
68,37,38160,90
69,34,38280,90
66,34,38280,90
68,34,38400,90
65,34,38400,90
63,40,38520,240
66,40,38520,90
69,36,38640,90
68,36,38760,90
73,40,38880,90
68,36,39000,90
64,36,39120,90
49,36,39240,720
56,41,39240,720
64,36,39360,90
68,32,39480,90
73,37,39600,90
61,34,39720,90
68,34,39840,90
76,46,39960,360
56,54,40320,90
59,62,40320,90
54,50,40440,90
58,56,40440,90
53,50,40560,90
56,56,40560,90
51,46,40680,360
54,53,40680,360
49,53,40920,840
37,46,40920,840
55,59,41040,90
56,57,41160,90
57,55,41280,90
58,54,41400,90
59,53,41520,90
60,51,41640,90
61,53,41760,360
56,52,41880,90
49,52,42000,90
63,61,42120,360
54,52,42240,90
49,53,42360,90
65,50,42480,360
53,45,42600,90
49,40,42720,480
56,42,42840,360
59,46,42840,360
68,33,43200,90
71,37,43200,90
69,35,43320,90
66,31,43320,90
65,31,43440,90
68,35,43440,90
63,27,43560,360
66,32,43560,360
61,32,43800,840
49,27,43800,840
67,36,43920,90
68,35,44040,90
69,34,44160,90
70,33,44280,90
71,32,44400,90
72,31,44520,90
73,32,44640,360
68,32,44760,90
61,32,44880,90
74,41,45000,360
68,32,45120,90
64,32,45240,90
73,30,45360,360
64,27,45480,90
57,24,45600,480
64,32,45720,360
73,36,45720,360
45,65,46080,90
50,74,46080,90
54,74,46080,90
42,65,46080,90
78,90,46440,90
74,81,46440,90
61,65,46800,90
58,59,46800,90
61,49,47040,90
65,55,47040,90
44,56,47520,90
56,63,47520,90
51,63,47520,90
75,81,47880,90
78,90,47880,90
66,62,48240,90
63,54,48240,90
60,62,48600,360
63,69,48600,360
54,44,48960,90
62,50,48960,90
66,50,48960,90
57,44,48960,90
86,44,49320,90
90,50,49320,90
70,36,49680,90
73,41,49680,90
73,30,49920,90
77,34,49920,90
63,34,50400,90
68,39,50400,90
56,34,50400,90
90,55,50760,90
87,49,50760,90
78,37,51120,90
75,33,51120,90
75,42,51480,300
72,36,51480,300
42,65,51780,150
50,65,51810,120
57,74,51840,90
50,64,52140,150
57,64,52170,120
62,72,52200,90
62,59,52560,90
66,65,52560,90
57,49,52920,90
62,55,52920,90
44,56,53220,150
51,56,53250,120
60,63,53280,90
56,54,53580,150
63,54,53610,120
68,62,53640,90
68,62,54000,90
72,69,54000,90
78,72,54360,300
75,64,54360,300
54,49,54660,150
62,49,54690,120
69,62,54720,90
62,46,55020,150
69,46,55050,120
74,59,55080,90
74,47,55440,90
78,53,55440,90
74,44,55800,90
69,40,55800,90
56,41,56100,150
63,42,56130,120
72,52,56160,90
68,41,56460,150
75,41,56490,120
80,50,56520,90
84,55,56880,90
80,49,56880,90
90,59,57240,300
87,52,57240,300
66,37,57540,150
74,39,57570,120
81,47,57600,90
74,37,57900,150
81,37,57930,120
86,46,57960,90
90,46,58320,90
86,42,58320,90
79,52,59040,180
76,45,59040,180
80,52,59220,180
77,45,59220,180
81,53,59400,180
78,46,59400,180
82,54,59580,180
79,49,59580,180
80,49,59760,180
83,54,59760,180
84,55,59940,180
81,49,59940,180
82,50,60120,180
85,56,60120,180
83,51,60300,180
86,57,60300,180
84,51,60480,180
87,57,60480,180
85,52,60660,180
88,59,60660,180
86,53,60840,180
89,61,60840,180
87,54,61020,180
90,62,61020,180
91,62,61200,120
88,54,61200,120
89,55,61320,120
92,62,61320,120
93,62,61440,120
90,55,61440,120
91,77,61560,240
94,77,61560,240
42,40,63360,120
44,31,63480,120
56,36,63600,240
44,32,63840,120
42,36,63960,240
44,30,64200,120
56,36,64320,240
44,33,64560,120
42,33,64680,240
44,36,64920,120
56,43,65040,240
44,36,65280,120
41,32,65400,240
44,36,65640,120
56,31,65760,240
44,36,66000,120
40,36,66120,120
39,40,66240,120
44,31,66360,120
56,36,66480,240
44,32,66720,120
39,36,66840,240
44,30,67080,120
56,36,67200,240
44,33,67440,120
39,33,67560,120
37,41,67680,120
44,36,67800,120
56,43,67920,240
57,36,68160,120
45,32,68280,120
37,41,68400,120
46,36,68520,120
58,31,68640,240
46,36,68880,120
37,36,69000,240
49,34,69240,120
61,40,69360,240
49,35,69600,120
47,40,69720,240
49,33,69960,120
59,40,70080,240
49,36,70320,120
47,36,70440,120
46,41,70560,120
49,40,70680,120
58,35,70800,240
50,40,71040,120
46,35,71160,240
51,40,71400,120
58,34,71520,240
51,40,71760,120
46,40,71880,240
52,36,72120,120
58,44,72240,240
52,37,72480,120
46,44,72600,240
52,36,72840,120
58,44,72960,240
52,40,73200,120
46,40,73320,240
53,44,73560,120
58,37,73680,240
53,44,73920,120
46,41,74040,240
53,45,74280,120
58,40,74400,240
52,45,74640,120
46,45,74760,120
51,45,74760,120
37,49,74880,1440
44,59,74880,1440
61,53,75120,90
58,53,75360,90
61,53,75600,90
61,55,75840,90
61,47,76080,90
37,49,76320,1440
44,59,76320,1440
56,53,76560,90
60,53,76800,90
57,53,77040,90
60,62,77280,90
60,52,77520,90
37,53,77760,1440
44,63,77760,1440
61,59,78000,90
58,57,78240,90
61,59,78480,90
61,62,78720,90
61,53,78960,90
37,53,79200,1440
44,63,79200,1440
56,59,79440,90
60,57,79680,90
57,59,79920,90
60,61,80160,90
60,56,80400,90
56,62,80640,1440
49,62,80640,1440
59,73,80640,1440
66,66,80880,90
63,66,81120,90
66,67,81360,90
66,70,81600,90
66,62,81840,90
49,62,82080,1440
54,62,82080,1440
58,73,82080,1440
61,66,82320,90
65,65,82560,90
62,66,82800,90
65,74,83040,90
65,64,83280,90
52,67,83520,1440
49,67,83520,1440
58,81,83520,1440
68,73,83760,90
65,73,84000,90
68,74,84240,90
68,77,84480,90
68,66,84720,90
49,71,84960,1440
53,71,84960,1440
58,84,84960,1440
64,79,85200,90
67,73,85440,90
64,81,85680,90
66,81,85920,90
68,75,86160,90
44,71,86400,90
49,71,86400,90
54,89,86400,90
82,99,86760,90
78,89,86760,90
62,64,87120,90
65,72,87120,90
65,60,87360,90
69,66,87360,90
44,60,87840,90
49,60,87840,90
53,75,87840,90
77,90,88200,90
80,101,88200,90
65,65,88560,90
68,73,88560,90
61,74,88920,360
65,82,88920,360
56,72,89280,90
61,72,89280,90
66,81,89280,90
94,85,89640,90
90,76,89640,90
74,63,90000,90
77,71,90000,90
77,53,90240,90
81,61,90240,90
56,60,90720,90
61,60,90720,90
65,66,90720,90
89,79,91080,90
92,87,91080,90
77,57,91440,90
80,64,91440,90
73,65,91800,360
77,73,91800,360
66,79,92160,180
63,71,92160,180
58,71,92160,180
49,71,92340,180
66,79,92520,180
63,71,92520,180
58,71,92520,180
37,69,92700,180
56,75,92880,180
63,75,92880,180
66,84,92880,180
49,61,93060,180
56,63,93240,180
63,63,93240,180
66,72,93240,180
37,63,93420,180
65,64,93600,180
61,57,93600,180
56,57,93600,180
49,54,93780,180
66,55,93960,180
63,50,93960,180
57,50,93960,180
37,44,94140,180
65,52,94320,180
61,45,94320,180
58,45,94320,180
49,45,94500,540
62,57,94680,360
59,57,94680,360
56,51,94680,360
66,79,95040,180
63,71,95040,180
58,71,95040,180
49,71,95220,180
66,79,95400,180
63,71,95400,180
58,71,95400,180
37,69,95580,180
56,75,95760,180
63,75,95760,180
66,84,95760,180
49,64,95940,180
56,63,96120,180
63,63,96120,180
66,72,96120,180
37,63,96300,180
65,64,96480,180
61,57,96480,180
56,57,96480,180
49,54,96660,180
66,55,96840,180
63,50,96840,180
57,50,96840,180
37,44,97020,180
65,52,97200,180
61,45,97200,180
58,45,97200,180
49,45,97380,180
62,51,97560,360
71,57,97560,360
68,57,97560,360
59,51,97560,360
37,41,97920,90
44,36,98040,90
37,41,98160,90
44,36,98280,90
37,43,98400,90
44,40,98520,90
37,45,98640,90
44,41,98760,90
49,41,98880,90
56,44,99000,90
49,41,99120,90
44,41,99240,90
37,41,99360,90
44,36,99480,90
37,41,99600,90
44,36,99720,90
37,43,99840,90
44,40,99960,90
37,45,100080,90
44,41,100200,90
49,41,100320,90
56,44,100440,90
49,41,100560,90
44,41,100680,90
37,41,100800,90
44,36,100920,90
37,41,101040,90
44,36,101160,90
37,43,101280,90
44,40,101400,90
37,45,101520,90
44,41,101640,90
49,41,101760,90
56,44,101880,90
49,41,102000,90
44,41,102120,90
37,45,102240,90
44,41,102360,90
49,41,102480,90
56,44,102600,90
49,41,102720,90
44,41,102840,90
37,45,102960,90
44,41,103080,90
49,41,103200,90
56,44,103320,90
49,41,103440,90
44,41,103560,90
37,43,103680,240
49,37,103800,90
54,64,103920,240
42,39,104040,90
51,62,104160,240
39,42,104280,90
37,47,104400,240
49,43,104520,90
56,72,104640,240
44,45,104760,90
60,67,104880,240
48,46,105000,90
37,45,105120,240
49,42,105240,90
56,73,105360,240
44,43,105480,90
53,67,105600,240
41,45,105720,90
37,53,105840,240
49,46,105960,90
58,80,106080,240
46,51,106200,90
61,72,106320,240
49,47,106440,90
37,51,106560,240
49,45,106680,90
58,83,106800,240
46,46,106920,90
54,81,107040,240
42,52,107160,90
37,59,107280,240
49,53,107400,90
63,89,107520,240
51,57,107640,90
66,84,107760,240
54,57,107880,90
37,59,108000,240
49,52,108120,90
58,97,108240,240
46,53,108360,90
60,89,108480,240
48,59,108600,90
37,70,108720,240
49,62,108840,90
60,97,108960,240
48,66,109080,90
61,92,109200,240
49,63,109320,480
50,66,109440,360
62,74,109440,360
57,74,109440,360
54,66,109440,360
37,69,109800,360
49,69,109800,360
66,71,110160,360
62,71,110160,360
56,63,110160,360
37,62,110520,360
49,69,110520,360
64,79,110880,360
61,79,110880,360
57,69,110880,360
37,62,111240,360
49,69,111240,360
68,71,111600,360
64,71,111600,360
61,63,111600,360
56,63,111600,360
67,69,111960,360
64,69,111960,360
61,62,111960,360
57,62,111960,360
55,36,112320,90
58,42,112320,90
54,34,112440,90
57,39,112440,90
52,34,112560,90
55,39,112560,90
50,32,112680,360
54,36,112680,360
37,53,112920,840
49,53,112920,840
55,55,113040,90
56,57,113160,90
57,60,113280,90
58,54,113400,90
59,53,113520,90
61,50,113640,90
61,47,113760,360
56,40,113880,90
49,40,114000,90
63,46,114120,360
54,40,114240,90
49,41,114360,90
65,39,114480,360
53,36,114600,90
49,32,114720,480
59,42,114840,360
56,42,114840,360
66,74,115200,360
62,74,115200,360
57,66,115200,360
54,66,115200,360
37,62,115560,360
49,69,115560,360
68,71,115920,360
66,71,115920,360
62,63,115920,360
56,63,115920,360
37,62,116280,360
49,69,116280,360
69,79,116640,360
64,79,116640,360
61,69,116640,360
57,69,116640,360
37,62,117000,360
49,69,117000,360
68,71,117360,360
64,71,117360,360
61,63,117360,360
56,63,117360,360
67,69,117720,360
64,69,117720,360
61,62,117720,360
57,62,117720,360
67,36,118080,90
70,42,118080,90
66,34,118200,90
69,39,118200,90
64,39,118320,90
67,39,118320,90
62,32,118440,360
66,36,118440,360
49,54,118680,840
61,54,118680,840
67,56,118800,90
68,60,118920,90
69,59,119040,90
70,56,119160,90
71,54,119280,90
73,52,119400,90
73,50,119520,360
68,39,119640,90
61,39,119760,90
75,45,119880,360
66,39,120000,90
61,39,120120,90
77,34,120240,360
65,33,120360,90
61,29,120480,480
69,37,120600,360
82,52,120960,360
78,45,120960,360
73,53,121320,360
80,60,121320,360
65,52,121680,360
58,45,121680,360
55,52,122040,360
58,59,122040,360
29,72,122400,120
41,72,122400,120
53,86,122400,120
27,69,122520,120
39,69,122520,120
51,81,122520,120
29,71,122640,120
41,71,122640,120
53,84,122640,120
25,74,122760,2280
37,74,122760,2280
49,89,122760,2280
49,42,125280,2160
32,41,126000,720
44,41,126000,720
30,36,126720,720
42,36,126720,720
29,43,127440,720
41,43,127440,720
50,43,127440,720
28,31,128160,2160
40,31,128160,2160
50,31,128160,2160
33,36,129720,120
45,34,129840,120
49,36,129960,120
55,36,130080,120
57,36,130200,120
26,41,131040,240
38,32,131760,2880
54,36,131760,2880
38,26,134640,1440
54,30,134640,1440
26,30,135360,240
38,26,136080,1440
54,30,136080,1440
38,26,137520,720
54,30,137520,720
26,31,138240,240
38,26,138960,1440
54,30,138960,1440
38,26,140400,960
54,30,140400,960
45,44,141600,240
47,46,141840,720
38,32,142560,240
45,32,142560,240
69,36,143040,720
67,36,143040,720
61,30,143040,240
67,31,143760,720
69,31,143760,720
61,26,144480,240
67,31,144480,240
69,31,144480,240
38,26,145200,240
45,31,145200,240
26,24,145440,240
38,27,145440,240
69,36,145920,720
67,36,145920,720
61,30,145920,240
67,31,146640,720
69,31,146640,720
61,26,147360,240
67,31,147360,240
69,31,147360,240
38,25,148080,240
45,30,148080,240
26,24,148320,240
38,27,148320,240
69,36,148800,240
67,36,148800,240
61,30,148800,240
49,26,150240,240
52,31,150240,240
47,29,150480,1200
50,29,150480,1200
54,35,150480,1200
62,41,151680,240
59,34,151680,240
62,44,151920,1200
59,36,151920,1200
62,47,153120,540
58,47,153120,540
45,42,153660,420
55,42,153690,390
57,42,153720,360
38,41,154080,240
45,47,154080,240
66,44,154320,240
62,40,154400,80
57,40,154480,80
54,36,154560,240
66,44,154560,240
62,44,154800,240
57,36,154800,240
66,44,154800,240
54,34,155040,240
66,41,155040,240
62,44,155280,240
57,36,155280,240
66,44,155280,240
38,41,155520,240
45,47,155520,240
66,44,155760,240
62,36,155840,80
57,36,155920,80
54,36,156000,240
66,44,156000,240
62,44,156240,240
57,36,156240,240
66,44,156240,240
54,40,156480,240
66,40,156480,240
57,36,156720,240
62,44,156720,240
66,44,156720,240
38,41,156960,240
45,47,156960,240
66,46,157200,240
62,40,157280,80
57,40,157360,80
54,36,157440,240
66,44,157440,240
62,44,157680,240
57,36,157680,240
66,44,157680,240
54,31,157920,240
66,37,157920,240
62,36,158160,240
57,30,158160,240
66,36,158160,240
38,47,158400,240
66,44,158640,240
62,36,158720,80
58,36,158800,80
54,36,158880,240
66,44,158880,240
62,44,159120,240
58,36,159120,240
66,44,159120,240
54,34,159360,240
66,41,159360,240
62,44,159600,480
58,36,159600,480
66,44,159600,480
66,44,160080,240
62,36,160160,80
58,36,160240,80
54,36,160320,240
66,44,160320,240
62,44,160560,240
59,36,160560,240
66,44,160560,240
54,34,160800,240
66,41,160800,240
62,44,161040,240
59,36,161040,240
66,44,161040,240
38,47,161280,240
66,52,161520,240
62,47,161600,80
58,45,161680,80
54,36,161760,240
66,44,161760,240
62,44,162000,240
58,36,162000,240
66,44,162000,240
54,34,162240,240
66,41,162240,240
62,44,162480,480
58,36,162480,480
66,44,162480,480
66,44,162960,240
62,36,163040,80
58,36,163120,80
54,36,163200,240
66,44,163200,240
62,44,163440,240
59,36,163440,240
66,44,163440,240
54,34,163680,240
66,41,163680,240
62,44,163920,240
59,36,163920,240
66,44,163920,240
50,47,164160,240
38,41,164160,240
66,46,164400,240
62,41,164480,80
57,41,164560,80
54,36,164640,240
66,44,164640,240
62,50,164880,240
56,42,164880,240
66,50,164880,240
54,40,165120,240
66,46,165120,240
62,45,165360,240
56,37,165360,240
66,45,165360,240
37,51,165600,240
49,51,165600,240
58,30,166080,720
49,30,166080,720
49,26,166800,720
59,26,166800,720
56,26,167520,720
49,26,167520,720
59,26,167520,720
41,29,168240,240
49,29,168240,720
42,35,168480,480
49,26,168960,720
58,26,168960,720
49,26,169680,120
59,26,169680,120
59,22,170400,240
49,22,170400,240
56,22,170400,240
49,23,171120,480
54,23,171120,480
59,23,171120,480
49,25,171840,240
53,25,171840,240
59,25,171840,240
53,31,173280,240
49,26,173280,240
47,29,173520,1200
54,35,173520,1200
44,35,174720,90
51,35,174720,90
39,25,174810,625
46,27,174840,595
51,29,174870,565
66,36,175440,715
54,36,175440,715
54,32,176160,600
66,32,176160,600
51,40,176760,360
57,40,176790,330
40,53,177120,480
52,33,177600,720
59,33,177600,720
64,33,177600,720
59,40,178320,720
52,40,178320,720
67,53,178320,240
66,56,178560,240
67,47,178800,240
52,34,179040,720
59,34,179040,720
64,47,179040,720
47,34,179760,240
40,53,180000,480
52,36,180480,720
59,36,180480,720
71,56,180720,360
69,53,181080,120
67,53,181200,240
66,55,181440,240
67,53,181680,240
52,36,181920,720
59,36,181920,720
64,51,181920,720
52,36,182640,240
62,41,182640,240
59,36,182640,240
45,32,182850,750
62,45,182880,480
59,44,183360,240
57,51,183600,720
61,51,183600,360
59,47,183960,120
57,45,184080,240
40,53,184320,240
52,36,184560,960
59,36,184560,960
64,47,184800,720
52,30,185520,240
62,36,185520,240
59,30,185520,240
45,44,185730,750
62,44,185760,480
59,42,186240,240
57,40,186480,720
64,52,186480,360
62,47,186840,120
61,45,186960,240
45,53,187200,480
64,35,187680,120
61,35,187680,120
64,35,187920,720
62,35,187920,720
40,37,188400,240
33,29,188640,240
45,39,188640,240
67,42,189120,720
69,42,189120,720
57,53,189120,240
61,54,189360,360
62,53,189720,120
67,36,189840,720
64,53,189840,240
69,36,189840,720
61,57,190080,480
61,42,190560,240
69,42,190560,240
67,42,190560,240
57,51,190560,240
62,42,190800,480
69,42,190800,480
67,42,190800,480
59,53,190800,480
40,40,191280,240
45,44,191520,240
33,44,191520,240
67,42,192000,720
69,42,192000,720
57,53,192000,240
61,54,192240,360
62,53,192600,120
67,36,192720,720
64,53,192720,240
69,36,192720,720
61,57,192960,480
61,42,193440,240
69,42,193440,240
67,42,193440,240
57,51,193440,240
62,42,193680,480
69,42,193680,480
67,42,193680,480
59,53,193680,480
40,40,194160,240
45,44,194400,240
33,44,194400,240
45,43,194880,240
52,43,194880,240
57,53,194880,240
57,36,195120,480
61,49,195120,360
62,46,195480,120
64,46,195600,240
57,32,195600,480
61,52,195840,240
59,43,196080,240
71,45,196080,240
61,43,196320,150
69,45,196320,150
67,43,196320,150
57,52,196320,150
55,43,196470,330
62,43,196500,300
67,47,196530,270
71,53,196560,240
43,55,197280,80
50,55,197360,80
55,55,197440,80
47,59,198000,80
54,59,198080,80
59,59,198160,80
46,62,198720,80
56,62,198800,80
62,62,198880,80
45,63,199440,80
55,63,199520,80
61,63,199600,80
50,77,200160,240
38,69,200160,240
54,65,200640,240
57,65,200640,240
66,74,200640,240
52,69,200880,360
57,69,200880,360
64,77,200880,360
54,65,201240,120
66,74,201240,120
50,65,201360,240
62,74,201360,240
26,70,201600,240
38,83,201600,240
69,75,202080,240
66,66,202080,240
62,66,202080,240
57,66,202080,240
69,74,202320,480
66,65,202320,480
62,65,202320,480
57,65,202320,480
38,71,202560,720
50,71,202560,720
71,74,202800,240
66,65,202800,240
62,65,202800,240
59,65,202800,240
69,79,203040,240
66,79,203040,240
62,79,203040,240
57,79,203040,240
67,72,203280,240
55,64,203280,240
66,64,203520,240
54,57,203520,240
64,74,203760,240
57,65,203760,240
52,65,203760,240
66,66,204000,240
54,60,204000,240
50,63,204240,240
57,63,204240,240
62,71,204240,240
38,62,204480,240
50,83,204480,240
66,75,204960,240
57,66,204960,240
54,66,204960,240
66,74,205200,480
57,65,205200,480
54,65,205200,480
38,71,205440,720
50,71,205440,720
64,74,205680,240
58,65,205680,240
54,65,205680,240
52,65,205680,240
64,79,205920,240
58,79,205920,240
54,79,205920,240
52,79,205920,240
50,72,206160,240
38,64,206160,240
54,57,206400,240
61,64,206400,240
49,57,206400,240
62,74,206640,240
54,65,206640,240
50,65,206640,240
54,60,206880,240
61,66,206880,240
49,60,206880,240
47,63,207120,240
54,63,207120,240
59,71,207120,240
26,62,207360,240
38,83,207360,240
66,75,207840,240
57,66,207840,240
54,66,207840,240
66,74,208080,480
57,65,208080,480
54,65,208080,480
38,71,208320,720
50,71,208320,720
64,65,208560,240
58,59,208560,240
54,59,208560,240
52,59,208560,240
64,79,208800,240
58,79,208800,240
54,79,208800,240
52,79,208800,240
50,72,209040,240
38,54,209040,240
54,49,209280,240
61,64,209280,240
49,49,209280,240
62,74,209520,240
54,55,209520,240
50,55,209520,240
54,50,209760,240
61,66,209760,240
49,50,209760,240
47,53,210000,240
54,53,210000,240
59,71,210000,240
45,46,210240,80
38,89,210240,240
46,52,210320,80
49,52,210400,80
50,53,210480,80
52,53,210560,80
53,53,210640,80
54,54,210720,80
55,55,210800,80
56,55,210880,80
57,55,210960,80
58,56,211040,80
61,57,211120,80
62,57,211200,80
64,59,211280,80
65,61,211360,80
66,66,211440,120
38,74,211680,240
50,89,211680,240
64,83,211920,120
54,63,211920,120
52,63,211920,120
61,79,212160,120
49,61,212160,120
54,63,212400,480
50,63,212400,240
62,82,212400,240
49,62,212640,240
61,80,212640,240
47,62,212880,120
54,72,212880,120
59,80,212880,120
45,46,213120,80
38,89,213120,240
46,52,213200,80
49,52,213280,80
50,53,213360,80
52,53,213440,80
53,53,213520,80
54,54,213600,80
55,55,213680,80
56,55,213760,80
57,55,213840,80
58,56,213920,80
61,57,214000,80
62,57,214080,80
64,59,214160,80
65,61,214240,80
66,66,214320,120
38,74,214560,240
50,89,214560,240
64,83,214800,120
54,63,214800,120
52,63,214800,120
61,79,215040,120
49,61,215040,120
54,63,215280,480
50,63,215280,240
62,82,215280,240
49,62,215520,240
61,80,215520,240
47,62,215760,120
54,72,215760,120
59,80,215760,120
49,46,216000,80
42,89,216000,240
50,52,216080,80
53,52,216160,80
54,53,216240,80
56,53,216320,80
57,53,216400,80
58,54,216480,80
59,55,216560,80
60,55,216640,80
61,55,216720,80
62,56,216800,80
65,57,216880,80
66,57,216960,80
68,59,217040,80
69,61,217120,80
70,66,217200,120
42,74,217440,240
54,89,217440,240
68,83,217680,120
58,63,217680,120
56,63,217680,120
58,61,217920,120
65,79,217920,120
53,61,217920,120
58,63,218160,480
51,63,218160,240
66,82,218160,240
53,62,218400,240
65,80,218400,240
51,62,218640,120
58,72,218640,120
63,80,218640,120
37,72,218880,240
42,81,218880,240
30,72,218880,240
66,61,219120,120
61,66,219120,120
54,61,219120,120
66,65,219360,120
60,74,219360,120
54,65,219360,120
66,72,219600,120
58,81,219600,120
54,72,219600,120
66,67,219840,120
60,76,219840,120
54,67,219840,120
66,63,220080,120
61,73,220080,120
54,63,220080,120
36,79,220320,240
42,89,220320,240
30,79,220320,240
54,77,220560,120
66,77,220560,120
58,79,220800,120
70,79,220800,120
60,80,221040,120
72,80,221040,120
62,81,221280,120
74,81,221280,120
64,81,221520,120
76,81,221520,120
29,89,221760,90
36,89,221760,90
41,89,221760,90
89,71,222120,90
77,70,222480,90
65,72,222840,90
53,69,223200,90
41,69,223560,90
29,66,223920,90
41,66,223920,90
65,69,224280,90
56,42,224610,30
57,53,224640,90
60,61,224640,90
52,46,224970,30
53,55,225000,90
57,62,225000,90
44,45,225330,30
45,53,225360,90
40,45,225690,30
41,53,225720,90
45,45,226050,30
46,51,226080,240
49,47,226410,30
50,55,226440,90
52,50,226770,30
53,54,226800,90
57,56,227130,30
62,74,227160,300
58,65,227160,300
80,31,227490,30
81,37,227520,90
84,43,227520,90
76,32,227850,30
77,39,227880,90
81,44,227880,90
68,32,228210,30
69,36,228240,90
64,32,228570,30
65,36,228600,90
69,32,228930,30
70,36,228960,90
72,32,229290,30
73,39,229320,90
76,35,229650,30
77,39,229680,90
81,35,230010,30
85,45,230040,300
82,41,230040,300
65,54,230400,90
68,62,230400,90
63,50,230520,90
67,56,230520,90
62,50,230640,90
65,56,230640,90
60,46,230760,360
63,53,230760,360
52,46,231000,90
61,53,231000,90
60,53,231120,360
53,59,231120,240
54,55,231360,90
60,54,231480,90
55,54,231480,90
56,53,231600,90
57,51,231720,90
64,54,231840,90
58,53,231840,240
65,54,231960,90
66,54,232080,90
67,54,232200,90
61,54,232200,360
68,54,232320,240
70,50,232560,120
66,50,232560,360
54,40,232860,420
61,42,232890,390
70,46,232920,360
73,34,233280,90
76,37,233280,90
71,31,233400,90
75,35,233400,90
70,31,233520,90
73,35,233520,90
68,27,233640,360
71,32,233640,360
60,27,233880,90
69,32,233880,90
68,32,234000,360
61,36,234000,240
62,34,234240,90
68,34,234360,90
63,34,234360,90
64,32,234480,90
65,31,234600,90
72,34,234720,90
66,32,234720,240
73,34,234840,90
74,34,234960,90
75,34,235080,90
69,34,235080,360
76,34,235200,240
78,31,235440,120
74,31,235440,360
81,44,235800,360
78,39,235800,360
45,65,236160,90
50,74,236160,90
55,74,236160,90
83,81,236520,90
79,90,236520,90
66,65,236880,90
63,59,236880,90
70,55,237120,90
66,49,237120,90
45,56,237600,90
50,63,237600,90
54,63,237600,90
78,81,237960,90
81,90,237960,90
66,54,238320,90
69,62,238320,90
62,62,238680,360
66,69,238680,360
57,44,239040,90
62,50,239040,90
67,50,239040,90
91,44,239400,90
95,50,239400,90
78,41,239760,90
75,36,239760,90
82,34,240000,90
78,30,240000,90
57,34,240480,90
62,34,240480,90
66,39,240480,90
90,49,240840,90
93,55,240840,90
78,33,241200,90
81,37,241200,90
74,36,241560,300
78,42,241560,300
50,51,241920,360
55,57,241920,360
59,57,241920,360
38,44,242280,360
50,47,242280,360
67,60,242640,360
64,60,242640,360
57,53,242640,360
38,44,243000,360
50,47,243000,360
50,35,243360,90
57,40,243360,90
62,40,243360,90
62,49,243720,570
67,55,243720,360
64,55,243720,360
66,45,244080,90
50,44,244440,270
59,49,244440,270
52,46,244710,450
55,47,244740,420
62,47,244770,390
67,51,244800,360
35,39,245160,360
47,43,245160,360
52,44,245430,450
55,44,245460,420
62,44,245490,390
67,53,245520,360
34,39,245880,360
46,43,245880,360
52,42,246150,450
57,43,246180,420
61,43,246210,390
67,65,246240,360
33,54,246600,480
45,53,246780,180
49,52,246960,180
52,52,247140,180
55,51,247320,180
57,50,247500,180
61,49,247680,180
64,45,247860,180
67,45,248040,180
73,44,248220,180
76,44,248400,180
79,44,248580,180
82,43,248760,360
52,40,249120,360
58,40,249120,360
60,40,249120,360
67,40,249120,360
36,40,249480,480
48,40,249660,180
52,40,249840,180
55,40,250020,180
58,40,250200,180
60,40,250380,180
64,40,250560,180
67,40,250740,180
70,40,250920,180
72,40,251100,180
76,40,251280,180
79,40,251460,180
82,40,251640,270
51,36,251910,450
56,36,251940,420
60,36,251970,390
66,36,252000,360
32,36,252360,480
44,36,252540,180
48,36,252720,180
51,36,252900,180
54,39,253080,180
56,43,253260,180
60,44,253440,180
63,42,253620,180
66,39,253800,180
68,36,253980,180
72,36,254160,180
75,36,254340,180
78,36,254520,180
80,36,254700,180
81,33,254880,120
84,41,255000,120
78,34,255120,120
81,41,255240,120
75,33,255360,120
78,41,255480,120
72,34,255600,120
75,41,255720,120
69,34,255840,120
72,41,255960,120
66,34,256080,120
69,41,256200,120
63,34,256320,120
66,41,256440,120
60,34,256560,120
63,42,256680,120
57,35,256800,120
60,42,256920,120
54,33,257040,120
57,42,257160,120
51,33,257280,120
54,42,257400,120
48,35,257520,120
51,43,257640,120
45,36,257760,120
48,44,257880,120
42,36,258000,120
45,44,258120,120
39,35,258240,120
42,44,258360,120
36,34,258480,120
39,44,258600,120
33,35,258720,120
36,44,258840,120
30,34,258960,120
33,44,259080,120
32,30,259200,120
31,30,259320,120
32,30,259440,120
44,45,259560,720
32,31,259680,120
31,31,259800,120
32,31,259920,120
31,30,260040,120
32,30,260160,120
44,45,260280,720
32,30,260400,120
31,30,260520,120
32,30,260640,120
31,30,260760,120
32,30,260880,120
44,45,261000,720
32,30,261120,120
31,30,261240,120
32,30,261360,120
31,30,261480,120
32,30,261600,120
44,45,261720,720
32,30,261840,120
31,30,261960,120
32,30,262080,120
31,30,262200,120
32,30,262320,120
44,45,262440,720
32,31,262560,120
31,31,262680,120
32,31,262800,120
31,30,262920,120
32,30,263040,120
44,46,263160,720
32,30,263280,120
31,30,263400,120
32,30,263520,120
31,30,263640,120
32,30,263760,120
44,45,263880,720
32,30,264000,120
31,30,264120,120
32,30,264240,120
31,30,264360,120
32,30,264480,120
44,45,264600,720
32,30,264720,120
31,30,264840,120
32,30,264960,120
31,30,265080,120
32,30,265200,120
44,45,265320,720
32,31,265440,120
31,31,265560,120
32,31,265680,120
31,30,265800,120
32,30,265920,120
44,44,266040,720
32,30,266160,120
31,30,266280,120
32,30,266400,120
31,30,266520,120
32,30,266640,120
44,44,266760,720
32,30,266880,120
31,30,267000,120
32,33,267120,120
31,33,267240,120
32,33,267360,120
44,50,267480,240
43,34,267600,120
44,34,267720,120
51,34,267840,120
53,33,267960,120
49,33,268080,120
44,52,268200,120
43,33,268320,120
44,34,268440,120
32,34,268560,120
31,34,268680,120
32,35,268800,120
44,53,268920,120
43,35,269040,120
44,36,269160,120
51,36,269280,120
53,36,269400,120
49,36,269520,120
44,55,269640,120
43,36,269760,120
44,36,269880,120
32,36,270000,120
31,36,270120,120
32,36,270240,120
44,55,270360,120
43,36,270480,120
44,36,270600,120
49,36,270720,120
48,36,270840,120
46,36,270960,120
44,53,271080,120
43,36,271200,120
44,36,271320,120
32,36,271440,120
31,36,271560,120
32,36,271680,120
44,53,271800,120
43,36,271920,120
44,36,272040,120
32,54,272160,120
44,51,272280,120
44,51,272400,120
50,49,272520,120
54,49,272520,120
59,55,272520,120
44,52,272640,120
44,52,272760,120
32,57,272880,120
44,53,273000,120
50,53,273120,120
62,59,273240,120
59,59,273240,120
54,59,273240,120
50,51,273360,120
44,51,273480,120
32,54,273600,120
44,51,273720,120
44,51,273840,120
50,49,273960,120
59,55,273960,120
54,49,273960,120
44,52,274080,120
44,52,274200,120
32,54,274310,120
44,51,274430,120
44,51,274560,120
50,55,274680,120
54,55,274680,120
59,55,274680,120
44,52,274800,120
44,52,274920,360
32,52,275040,240
48,71,275280,120
36,60,275280,120
34,65,275400,90
46,79,275400,90
36,62,275520,90
48,73,275520,90
32,62,275640,90
44,73,275640,90
39,56,276000,120
51,66,276000,120
39,61,276120,240
51,71,276120,240
41,57,276360,120
53,69,276360,120
39,65,276480,90
51,79,276480,90
37,56,276600,90
49,66,276600,90
36,56,276720,90
48,69,276720,90
34,56,276840,90
46,76,276840,90
36,56,276960,90
48,73,276960,90
32,62,277080,90
44,74,277080,90
54,65,277560,360
45,56,277560,90
57,76,277560,90
47,56,277680,90
59,73,277680,90
44,62,277800,90
56,74,277800,90
32,65,277920,120
44,62,278040,120
50,63,278160,360
66,66,278280,240
54,66,278280,240
59,66,278280,240
62,62,278520,120
50,62,278520,120
54,70,278640,360
49,70,278640,120
61,78,278640,120
50,63,278760,120
62,71,278760,120
47,63,278880,120
59,71,278880,120
59,70,279000,120
54,70,279000,120
50,70,279000,120
44,62,279120,120
44,62,279240,120
32,65,279360,120
44,62,279480,120
50,62,279600,360
66,66,279720,240
54,66,279720,240
59,66,279720,240
62,62,279960,120
50,62,279960,120
54,70,280080,360
49,70,280080,90
61,78,280080,90
50,63,280200,90
62,71,280200,90
47,63,280320,90
59,71,280320,90
59,70,280440,120
54,70,280440,120
50,70,280440,120
44,62,280560,120
44,62,280680,240
32,71,280800,120
39,69,280920,120
51,69,280920,120
41,69,281040,120
53,69,281040,120
42,76,281160,240
54,76,281160,240
48,71,281400,120
60,71,281400,120
51,69,281520,240
54,69,281520,240
46,72,281520,90
58,72,281520,90
48,66,281640,90
60,66,281640,90
44,66,281760,90
56,66,281760,90
51,79,281880,240
63,79,281880,240
53,73,282120,120
65,73,282120,120
51,80,282240,90
63,80,282240,90
49,74,282360,90
61,74,282360,90
48,74,282480,90
60,74,282480,90
51,80,282600,90
54,80,282600,90
46,80,282600,90
58,80,282600,90
48,72,282720,90
60,72,282720,90
44,72,282840,90
56,72,282840,90
58,71,282960,90
60,65,283080,90
56,65,283200,90
33,66,283320,90
45,66,283320,90
54,75,283320,360
35,61,283440,90
47,61,283440,90
32,62,283560,90
44,62,283560,90
37,49,283680,1440
44,59,283680,1440
61,53,283920,90
58,53,284160,90
61,53,284400,90
61,55,284640,90
61,47,284880,90
37,49,285120,1440
44,59,285120,1440
56,53,285360,90
60,53,285600,90
57,53,285840,90
60,62,286080,90
60,52,286320,90
37,53,286560,1440
44,63,286560,1440
61,59,286800,90
58,57,287040,90
61,59,287280,90
61,62,287520,90
61,53,287760,90
37,53,288000,1440
44,63,288000,1440
56,59,288240,90
60,57,288480,90
57,59,288720,90
60,61,288960,90
60,56,289200,90
56,62,289440,1440
49,62,289440,1440
59,73,289440,1440
66,66,289680,90
63,66,289920,90
66,67,290160,90
66,70,290400,90
66,62,290640,90
49,62,290880,1440
54,62,290880,1440
58,73,290880,1440
61,66,291120,90
65,65,291360,90
62,66,291600,90
65,74,291840,90
65,64,292080,90
52,67,292320,1440
49,67,292320,1440
58,81,292320,1440
68,73,292560,90
65,73,292800,90
68,74,293040,90
68,77,293280,90
68,66,293520,90
49,71,293760,1440
53,71,293760,1440
58,84,293760,1440
64,79,294000,90
67,73,294240,90
64,81,294480,90
67,81,294720,90
68,75,294960,90
49,70,295200,1440
55,70,295200,1440
58,70,295200,1440
63,84,295200,1440
67,60,295440,90
70,60,295440,90
76,69,295440,90
67,60,295680,90
70,60,295680,90
73,67,295680,90
67,60,295920,90
70,60,295920,90
76,69,295920,90
67,60,296160,90
70,60,296160,90
76,71,296160,90
67,60,296400,90
70,60,296400,90
76,62,296400,90
49,70,296640,1440
54,70,296640,1440
58,70,296640,1440
64,84,296640,1440
66,60,296880,90
70,60,296880,90
72,69,296880,90
66,57,297120,90
70,57,297120,90
75,67,297120,90
66,60,297360,90
70,60,297360,90
72,69,297360,90
66,66,297600,90
70,66,297600,90
75,73,297600,90
66,55,297840,90
70,55,297840,90
75,66,297840,90
49,70,298080,1440
55,70,298080,1440
58,70,298080,1440
63,84,298080,1440
67,60,298320,90
70,60,298320,90
76,69,298320,90
67,60,298560,90
70,60,298560,90
73,67,298560,90
67,60,298800,90
70,60,298800,90
76,69,298800,90
67,60,299040,90
70,60,299040,90
76,71,299040,90
67,60,299280,90
70,60,299280,90
76,62,299280,90
49,70,299520,1440
54,70,299520,1440
58,70,299520,1440
64,84,299520,1440
66,60,299760,90
70,60,299760,90
72,69,299760,90
66,57,300000,90
70,57,300000,90
75,67,300000,90
66,60,300240,90
70,60,300240,90
72,69,300240,90
66,66,300480,90
70,66,300480,90
75,73,300480,90
66,55,300720,90
70,55,300720,90
75,66,300720,90
47,73,300960,1440
54,73,300960,1440
57,73,300960,1440
63,89,300960,1440
75,58,301200,90
78,58,301200,90
84,68,301200,90
75,58,301440,90
78,58,301440,90
82,67,301440,90
75,58,301680,90
78,58,301680,90
84,68,301680,90
75,58,301920,90
78,58,301920,90
84,70,301920,90
75,58,302160,90
78,58,302160,90
84,59,302160,90
45,80,302400,90
53,80,302400,90
57,80,302400,90
65,89,302400,90
83,95,302760,90
80,95,302760,90
80,75,303000,90
76,75,303000,90
71,70,303240,90
74,70,303240,90
68,60,303480,90
71,66,303480,90
47,73,303840,1440
54,73,303840,1440
57,73,303840,1440
63,89,303840,237
63,55,304080,90
66,55,304080,90
72,64,304080,90
63,55,304320,90
66,55,304320,90
70,63,304320,90
63,55,304560,90
66,55,304560,90
72,64,304560,90
63,55,304800,90
66,55,304800,90
72,65,304800,90
63,55,305040,90
66,55,305040,90
72,57,305040,90
45,80,305280,90
53,80,305280,90
57,80,305280,90
65,89,305280,90
71,84,305640,90
68,84,305640,90
68,66,305880,90
64,66,305880,90
59,62,306120,90
62,62,306120,90
56,53,306360,90
59,60,306360,90
47,73,306720,90
54,73,306720,90
57,73,306720,90
63,89,306720,90
51,49,306960,90
54,49,306960,90
60,57,306960,90
51,49,307200,90
54,49,307200,90
58,57,307200,90
51,49,307440,90
54,49,307440,90
60,57,307440,90
51,49,307680,90
54,49,307680,90
60,59,307680,90
51,49,307920,90
54,49,307920,90
60,51,307920,90
57,62,308160,90
56,57,308400,90
57,63,308400,90
57,65,308640,90
55,60,308640,90
54,62,308880,90
57,69,308880,90
53,63,309120,90
54,63,309120,90
57,71,309120,90
52,65,309360,90
54,65,309360,90
57,73,309360,90
51,66,309600,90
54,66,309600,90
57,74,309600,90
52,65,309840,90
54,65,309840,90
57,73,309840,90
51,64,310080,90
54,64,310080,90
57,72,310080,90
50,63,310320,90
54,63,310320,90
57,71,310320,90
49,62,310560,90
54,62,310560,90
57,70,310560,90
48,61,310800,90
54,61,310800,90
57,67,310800,90
47,61,311040,90
51,61,311040,90
54,61,311040,90
57,66,311040,90
47,61,311280,90
51,61,311280,90
54,61,311280,90
57,67,311280,90
47,63,311520,90
51,63,311520,90
54,63,311520,90
57,70,311520,90
47,66,311760,90
51,66,311760,90
54,66,311760,90
57,75,311760,90
47,67,312000,90
51,67,312000,90
54,67,312000,90
57,76,312000,90
47,74,312240,90
51,74,312240,90
54,74,312240,90
57,82,312240,90
48,70,312480,90
51,77,312480,90
54,77,312480,90
58,87,312480,90
32,77,312840,90
44,86,312840,90
69,79,312960,90
65,79,312960,90
62,67,313200,90
65,74,313200,90
65,62,313440,90
69,70,313440,90
49,65,313920,90
53,73,313920,90
56,82,313920,90
32,77,314280,90
44,86,314280,90
65,75,314400,90
61,69,314400,90
65,64,314640,90
68,72,314640,90
61,73,315000,360
65,81,315000,360
54,79,315360,90
58,79,315360,90
63,87,315360,90
54,70,315480,90
44,89,315600,240
32,70,315720,90
72,79,315840,90
69,79,315840,90
65,67,316080,90
69,74,316080,90
69,62,316320,90
72,70,316320,90
73,87,316440,90
70,79,316440,90
56,65,316800,90
61,73,316800,90
65,82,316800,90
53,70,316920,90
44,89,317040,240
32,70,317160,90
65,84,317280,90
61,77,317280,90
65,72,317520,90
68,81,317520,90
61,69,317880,360
65,77,317880,360
66,79,318240,180
63,71,318240,180
58,71,318240,180
49,71,318420,180
66,79,318600,180
63,71,318600,180
58,71,318600,180
37,69,318780,180
56,75,318960,180
63,75,318960,180
66,84,318960,180
49,61,319140,180
56,63,319320,180
63,63,319320,180
66,72,319320,180
37,63,319500,180
65,64,319680,180
61,57,319680,180
56,57,319680,180
49,54,319860,180
66,55,320040,180
63,50,320040,180
57,50,320040,180
37,44,320220,180
65,52,320400,180
61,45,320400,180
58,45,320400,180
49,45,320580,540
62,57,320760,360
59,57,320760,360
56,51,320760,360
63,79,321120,180
58,71,321120,180
54,71,321120,180
49,71,321300,180
63,79,321480,180
58,71,321480,180
54,71,321480,180
37,69,321660,180
55,67,321840,180
58,67,321840,180
64,75,321840,180
49,64,322020,180
55,63,322200,180
58,63,322200,180
64,72,322200,180
37,63,322380,180
64,64,322560,180
59,57,322560,180
56,57,322560,180
35,54,322740,180
63,55,322920,180
59,50,322920,180
57,50,322920,180
47,44,323100,180
64,52,323280,180
59,45,323280,180
56,45,323280,180
49,45,323460,180
64,51,323640,360
71,57,323640,360
68,57,323640,360
59,51,323640,360
47,72,324000,90
52,81,324000,90
57,81,324000,90
85,94,324360,90
81,84,324360,90
68,72,324720,90
65,63,324720,90
72,62,324960,90
68,53,324960,90
47,62,325440,90
52,69,325440,90
56,69,325440,90
80,84,325800,90
83,94,325800,90
68,61,326160,90
71,66,326160,90
64,66,326520,360
68,75,326520,360
59,47,326880,90
64,54,326880,90
69,54,326880,90
93,47,327240,90
97,54,327240,90
80,44,327600,90
77,40,327600,90
84,36,327840,90
80,33,327840,90
59,36,328320,90
64,36,328320,90
68,43,328320,90
92,53,328680,90
95,62,328680,90
80,36,329040,90
83,42,329040,90
76,41,329400,300
80,45,329400,300
66,79,329760,180
61,71,329760,180
57,71,329760,180
52,71,329940,180
66,79,330120,180
61,71,330120,180
57,71,330120,180
40,69,330300,180
56,71,330480,180
59,71,330480,180
66,80,330480,180
52,61,330660,180
56,63,330840,180
59,63,330840,180
66,72,330840,180
40,63,331020,180
68,64,331200,180
64,57,331200,180
59,57,331200,180
52,54,331380,180
69,55,331560,180
66,50,331560,180
60,50,331560,180
40,44,331740,180
68,52,331920,180
64,45,331920,180
61,45,331920,180
52,45,332100,540
65,57,332280,360
62,57,332280,360
59,51,332280,360
66,79,332640,180
61,71,332640,180
57,71,332640,180
52,71,332820,180
66,79,333000,180
61,71,333000,180
57,71,333000,180
40,69,333180,180
59,66,333360,180
63,66,333360,180
69,75,333360,180
52,61,333540,180
59,63,333720,180
63,63,333720,180
69,72,333720,180
40,63,333900,180
68,64,334080,180
64,57,334080,180
59,57,334080,180
52,54,334260,180
69,55,334440,180
66,50,334440,180
60,50,334440,180
40,44,334620,180
68,52,334800,180
64,45,334800,180
61,45,334800,180
52,45,334980,180
62,45,335160,360
74,51,335160,360
71,51,335160,360
65,45,335160,360
37,41,335520,90
45,36,335640,90
37,41,335760,90
45,36,335880,90
37,43,336000,90
45,40,336120,90
37,45,336240,90
44,41,336360,90
49,41,336480,90
56,44,336600,90
49,41,336720,90
44,41,336840,90
37,41,336960,90
44,36,337080,90
37,41,337200,90
44,36,337320,90
37,43,337440,90
44,40,337560,90
37,45,337680,90
44,41,337800,90
49,41,337920,90
56,44,338040,90
49,41,338160,90
44,41,338280,90
37,41,338400,90
44,36,338520,90
37,41,338640,90
44,36,338760,90
37,43,338880,90
44,40,339000,90
37,45,339120,90
44,41,339240,90
49,41,339360,90
56,44,339480,90
49,41,339600,90
44,41,339720,90
37,45,339840,90
44,41,339960,90
49,41,340080,90
56,44,340200,90
49,41,340320,90
44,41,340440,90
37,45,340560,90
44,41,340680,90
49,41,340800,90
56,44,340920,90
49,41,341040,90
44,41,341160,90
37,43,341280,90
49,37,341400,90
57,64,341520,240
45,39,341640,90
54,62,341760,240
42,42,341880,90
37,47,342000,90
49,43,342120,90
62,71,342240,240
50,45,342360,90
66,66,342480,240
54,46,342600,90
37,45,342720,90
49,42,342840,90
59,76,342960,240
47,43,343080,90
56,71,343200,240
44,45,343320,90
37,53,343440,90
49,46,343560,90
61,80,343680,240
49,51,343800,90
65,71,343920,240
53,47,344040,90
66,79,344160,360
57,79,344160,90
61,71,344280,90
54,71,344400,90
37,81,344520,360
49,81,344520,360
59,81,344880,90
66,81,344880,360
62,75,345000,90
54,75,345120,90
37,81,345240,360
49,81,345240,360
71,81,345600,360
62,81,345600,90
66,74,345720,90
56,74,345840,90
37,84,345960,360
49,84,345960,360
63,89,346320,90
72,89,346320,360
66,82,346440,90
56,82,346560,90
37,89,346680,360
49,89,346680,360
25,73,347040,240
32,73,347040,240
37,82,347040,240
49,82,347280,480
56,82,347280,480
61,90,347280,240
63,85,347520,90
65,79,347640,90
49,69,347760,240
56,69,347760,240
61,79,347760,240
37,70,348000,240
49,80,348000,240
53,80,348240,480
61,89,348240,480
65,89,348240,480
61,77,348720,240
54,67,348720,240
66,77,348720,240
65,82,348960,240
61,82,348960,240
53,73,348960,240
66,81,349200,90
64,75,349440,90
62,73,349680,90
37,77,349920,240
49,86,349920,240
49,70,350160,480
56,79,350160,480
61,79,350160,480
57,62,350640,240
49,54,350640,240
60,62,350640,240
49,61,350880,240
60,67,350880,240
57,61,350880,240
37,53,351120,240
49,61,351120,240
49,36,351360,240
58,45,351360,240
61,52,351360,240
37,46,351600,150
49,53,351600,150
49,57,351750,330
56,57,351780,300
61,62,351810,270
65,67,351840,240
63,63,352560,180
49,52,352740,60
63,65,352800,120
62,59,352920,120
61,53,353040,120
60,53,353160,120
61,56,353280,120
60,52,353400,120
58,70,353520,480
68,59,354000,240
65,59,354000,240
56,59,354000,240
70,59,354240,240
67,59,354240,240
65,59,354240,240
58,59,354240,240
37,66,354480,240
49,66,354480,240
36,71,354720,120
48,71,354720,120
48,54,354840,360
57,62,354870,330
64,71,355200,120
65,66,355440,120
62,56,355800,120
60,53,356040,120
58,57,356400,80
48,51,356480,80
40,50,356560,80
41,63,356640,80
48,52,356720,80
57,52,356800,80
76,81,357120,120
77,76,357360,120
74,65,357720,120
72,56,357960,120
70,56,358320,60
60,50,358380,60
52,50,358440,60
53,49,358485,315
60,52,358500,300
69,53,358515,285
67,62,358920,120
79,69,358920,120
65,62,359160,120
77,69,359160,120
62,62,359400,120
74,69,359400,120
60,62,359640,120
72,69,359640,120
69,67,359880,120
57,61,359880,120
67,67,360120,120
55,61,360120,120
65,67,360360,120
53,61,360360,120
50,60,360600,120
62,66,360600,120
48,59,360840,120
60,65,360840,120
45,57,361080,120
57,64,361080,120
43,57,361320,120
55,64,361320,120
41,63,361560,120
53,71,361560,120
25,67,362880,240
37,75,362880,240
56,79,363120,240
53,79,363120,240
61,79,363120,240
65,88,363120,240
51,72,363360,90
63,81,363360,90
53,67,363480,90
65,75,363480,90
49,59,363600,240
61,75,363600,240
37,68,363840,240
49,77,363840,240
61,74,364080,480
56,74,364080,480
65,81,364080,480
68,81,364080,480
61,62,364560,240
65,69,364560,240
58,62,364560,240
70,69,364560,240
61,59,364800,120
65,59,364800,120
68,68,364800,120
56,59,364800,120
55,59,364920,120
67,68,364920,120
54,59,365040,120
66,68,365040,120
53,59,365160,120
65,67,365160,120
52,58,365280,120
64,66,365280,120
51,58,365400,120
63,64,365400,120
50,57,365520,120
62,62,365520,120
49,57,365640,120
61,61,365640,120
37,88,365760,240
49,88,365760,240
61,78,366000,480
56,78,366000,480
65,86,366000,480
68,86,366000,480
60,71,366480,240
63,80,366480,240
57,71,366480,240
66,80,366480,240
63,67,366720,240
66,75,366720,240
57,67,366720,240
37,57,366960,240
49,62,366960,240
58,69,367200,240
61,69,367200,240
65,69,367200,240
37,53,367440,240
49,59,367440,240
29,86,367680,240
41,86,367680,240
56,73,367920,480
53,73,367920,480
61,82,367920,480
65,82,367920,480
54,61,368400,240
60,69,368400,240
51,61,368400,240
63,69,368400,240
60,60,368640,120
54,60,368640,120
51,60,368640,120
63,69,368640,120
50,57,368760,120
62,62,368760,120
49,57,368880,120
61,62,368880,120
48,57,369000,120
60,62,369000,120
49,60,369120,120
61,69,369120,120
48,59,369240,120
60,66,369240,120
46,59,369360,240
58,67,369360,240
34,59,369600,120
46,59,369600,120
36,60,369720,120
48,60,369720,120
37,64,369840,120
49,64,369840,120
41,68,369960,120
53,68,369960,120
43,69,370080,120
55,69,370080,120
40,69,370200,120
52,69,370200,120
39,68,370320,120
51,68,370320,120
37,67,370440,120
49,67,370440,120
35,67,370560,120
47,67,370560,120
47,62,370680,360
56,63,370710,330
63,71,371040,120
64,66,371280,120
61,56,371640,120
59,53,371880,120
57,57,372240,80
47,51,372320,80
39,50,372400,80
40,63,372480,80
47,52,372560,80
56,52,372640,80
75,81,372960,120
76,76,373200,120
73,65,373560,120
71,56,373800,120
70,62,374100,60
64,64,374160,60
61,66,374220,60
55,70,374280,60
32,70,374400,120
41,63,374520,120
48,85,374880,120
49,79,375120,120
46,62,375480,120
44,58,375720,120
42,58,376080,120
30,51,376200,120
29,70,376320,120
46,63,376440,120
57,85,376800,120
58,79,377040,120
55,62,377400,120
53,58,377640,120
49,58,378000,120
33,51,378120,120
32,70,378240,120
49,63,378360,120
60,85,378720,120
61,79,378960,120
58,62,379320,120
56,58,379560,120
54,58,379920,120
42,51,380040,120
41,73,380160,120
58,67,380280,120
69,89,380640,120
70,84,380880,120
67,66,381240,120
65,60,381480,120
52,58,381840,120
61,60,381840,120
45,52,381960,120
49,81,382080,120
44,73,382080,120
61,75,382200,120
72,94,382560,120
73,87,382800,120
44,59,383040,120
51,59,383040,120
54,59,383040,120
60,67,383040,120
70,59,383160,120
58,59,383160,120
68,57,383400,120
56,57,383400,120
73,59,383640,120
61,59,383640,120
71,57,383880,120
59,57,383880,120
75,59,384120,120
63,59,384120,120
73,58,384360,120
61,58,384360,120
75,61,384600,120
63,61,384600,120
74,59,384840,120
62,59,384840,120
56,61,384960,120
63,61,384960,120
66,61,384960,120
73,70,384960,120
80,67,385080,120
56,63,385440,120
63,63,385440,120
66,63,385440,120
72,71,385440,120
82,67,385560,120
65,70,385920,240
70,70,385920,240
58,70,385927,240
49,55,386400,90
54,55,386400,90
49,55,386520,90
54,55,386520,90
49,65,386880,90
57,65,386880,90
49,61,387000,90
57,61,387000,90
49,63,387360,90
56,63,387360,90
49,61,387480,90
56,61,387480,90
47,63,387840,90
54,63,387840,90
47,61,388200,90
52,61,388200,90
47,63,388320,90
57,63,388320,90
47,61,388680,90
56,61,388680,90
47,62,388800,90
54,62,388800,90
47,61,389160,90
56,61,389160,90
47,61,389280,90
57,61,389280,90
42,61,389520,90
54,61,389520,90
37,70,389760,240
44,70,389760,240
49,79,389760,240
49,55,390240,90
54,55,390240,90
49,55,390360,90
54,55,390360,90
49,65,390720,90
57,65,390720,90
49,61,390840,90
57,61,390840,90
49,63,391200,90
56,63,391200,90
49,61,391320,90
56,61,391320,90
49,63,391680,90
54,63,391680,90
49,61,392040,90
52,61,392040,90
49,63,392160,90
55,63,392160,90
49,61,392520,90
54,61,392520,90
49,62,392640,90
52,62,392640,90
49,61,393000,90
54,61,393000,90
49,61,393120,90
55,61,393120,90
37,61,393360,480
49,61,393360,90
49,70,393600,240
54,70,393600,240
57,70,393600,240
62,79,393600,240
54,55,394080,90
61,55,394080,90
54,55,394200,90
61,55,394200,90
54,65,394560,90
64,65,394560,90
54,61,394680,90
64,61,394680,90
54,63,395040,90
62,63,395040,90
54,61,395160,90
62,61,395160,90
49,70,395520,240
55,70,395520,240
59,70,395520,240
62,79,395520,240
59,55,396000,90
66,55,396000,90
59,55,396120,90
66,55,396120,90
59,65,396480,90
69,65,396480,90
59,61,396600,90
69,61,396600,90
59,63,396960,90
67,63,396960,90
59,61,397080,90
67,61,397080,90
37,51,397680,120
44,51,397680,120
49,55,397680,120
71,52,398160,120
73,56,398160,120
77,56,398160,120
49,51,398640,120
54,56,398640,120
81,62,399120,120
78,55,399120,120
60,59,399600,120
57,59,399600,120
54,52,399600,120
49,52,399600,120
86,69,400080,120
84,60,400080,120
81,60,400080,120
60,63,400560,120
56,63,400560,120
54,55,400560,120
49,55,400560,120
92,74,401040,120
90,74,401040,120
87,63,401040,120
37,79,401280,240
44,79,401280,240
49,87,401280,240
56,55,401520,120
61,55,401520,120
59,53,401760,120
56,53,401760,120
56,55,402000,120
61,55,402000,120
54,61,402240,120
62,61,402240,120
64,55,402480,120
54,55,402480,120
61,61,402720,120
54,61,402720,120
62,55,402960,120
54,55,402960,120
52,63,403200,120
59,63,403200,120
52,52,403560,120
57,52,403560,120
52,63,403680,120
62,63,403680,120
52,51,404040,120
61,51,404040,120
52,62,404160,120
59,62,404160,120
52,55,404520,120
61,55,404520,120
52,63,404640,120
62,63,404640,120
38,62,404880,120
44,62,404880,120
50,62,404880,120
37,70,405120,240
44,70,405120,240
49,79,405120,240
56,55,405360,120
61,55,405360,120
59,53,405600,120
56,53,405600,120
56,55,405840,120
61,55,405840,120
54,61,406080,120
62,61,406080,120
64,55,406320,120
54,55,406320,120
61,61,406560,120
54,61,406560,120
62,55,406800,120
54,55,406800,120
52,63,407040,120
59,63,407040,120
52,52,407400,120
57,52,407400,120
52,63,407520,120
60,63,407520,120
52,51,407880,120
59,51,407880,120
52,62,408000,120
57,62,408000,120
52,55,408360,120
59,55,408360,120
50,63,408480,120
60,63,408480,120
38,62,408720,120
50,62,408720,120
31,70,408960,240
38,70,408960,240
43,79,408960,240
59,55,409440,90
66,55,409440,90
59,55,409560,90
66,55,409560,90
59,65,409920,90
69,65,409920,90
59,61,410040,90
69,61,410040,90
59,63,410400,90
67,63,410400,90
59,61,410520,90
67,61,410520,90
40,70,410880,240
43,70,410880,240
48,70,410880,240
52,79,410880,240
64,55,411360,90
71,55,411360,90
64,55,411480,90
71,55,411480,90
64,65,411840,90
74,65,411840,90
64,61,411960,90
74,61,411960,90
64,63,412320,90
72,63,412320,90
64,61,412440,90
72,61,412440,90
49,51,413040,120
54,56,413040,120
76,53,413520,120
78,60,413520,120
82,60,413520,120
49,53,414000,120
54,53,414000,120
59,61,414000,120
86,65,414480,120
83,61,414480,120
64,64,414960,120
59,64,414960,120
56,57,414960,120
49,57,414960,120
88,75,415440,120
86,66,415440,120
63,72,415920,120
56,63,415920,120
49,63,415920,120
92,83,416400,120
90,83,416400,120
25,75,416640,240
37,102,416640,240
49,74,416880,240
44,74,416880,240
56,83,416880,240
49,55,417120,240
56,55,417120,240
61,79,417120,240
56,55,417360,240
61,62,417360,240
53,55,417360,240
65,79,417360,240
37,61,417600,120
49,77,417600,120
40,61,417720,120
52,70,417720,120
43,62,417840,120
55,71,417840,120
46,63,417960,120
58,72,417960,120
49,63,418080,120
61,72,418080,120
52,66,418200,120
64,74,418200,120
55,66,418320,240
67,74,418320,240
25,77,418560,240
37,93,418560,240
61,73,418800,480
65,81,418800,480
68,81,418800,480
56,73,418800,480
56,60,419280,240
61,60,419280,240
53,60,419280,240
65,76,419280,240
37,55,419520,120
49,72,419520,120
42,55,419640,120
54,63,419640,120
45,56,419760,120
57,63,419760,120
48,57,419880,120
60,64,419880,120
51,57,420000,120
63,65,420000,120
54,60,420120,120
66,66,420120,120
57,61,420240,240
69,67,420240,240
25,87,420480,240
37,87,420480,240
63,71,420720,480
66,79,420720,480
57,63,420720,480
61,63,421200,240
58,63,421200,240
66,71,421200,240
37,61,421440,120
49,77,421440,120
40,61,421560,120
52,70,421560,120
43,62,421680,120
55,71,421680,120
46,63,421800,120
58,72,421800,120
49,63,421920,120
61,72,421920,120
52,66,422040,120
64,74,422040,120
55,66,422160,240
67,74,422160,240
56,74,422400,240
61,74,422400,240
65,74,422400,240
68,89,422400,240
44,86,422640,240
32,77,422640,240
64,66,422880,120
65,61,423000,120
63,66,423120,120
61,62,423240,120
55,67,423360,120
56,61,423480,120
54,65,423600,120
53,60,423720,120
52,66,423840,120
53,62,423960,120
51,64,424080,120
49,62,424200,120
43,54,424320,120
55,62,424320,120
44,45,424440,120
56,51,424440,120
42,49,424560,120
54,54,424560,120
41,44,424680,120
53,50,424680,120
40,47,424800,120
52,53,424800,120
41,39,424920,120
53,44,424920,120
39,45,425040,120
51,51,425040,120
37,39,425160,120
49,44,425160,120
37,45,425280,240
46,45,425280,120
47,47,425400,120
48,51,425520,120
49,53,425640,110
49,54,425760,120
48,53,425880,120
47,52,426000,120
46,50,426120,120
37,47,426240,240
45,47,426240,120
46,46,426360,120
47,46,426480,120
48,45,426600,120
37,47,426720,240
46,47,426720,120
47,47,426840,120
48,46,426960,120
49,46,427080,120
37,45,427200,240
46,45,427200,120
47,47,427320,120
48,51,427440,120
49,53,427560,110
49,54,427680,120
48,53,427800,120
47,52,427920,120
46,50,428040,120
37,47,428160,240
45,47,428160,120
46,46,428280,120
47,46,428400,120
48,45,428520,120
37,47,428640,240
45,47,428640,120
47,47,428760,120
48,46,428880,120
49,46,429000,120
37,47,429120,240
45,47,429120,120
46,50,429240,120
47,53,429360,120
48,55,429480,120
49,57,429600,120
48,55,429720,120
47,53,429840,120
46,52,429960,120
45,50,430080,120
54,45,430200,120
45,49,430320,120
37,46,430440,120
45,53,430560,120
51,50,430680,120
45,53,430800,120
37,50,430920,120
44,57,431040,120
54,53,431160,120
44,57,431280,120
37,55,431400,120
44,63,431520,120
51,57,431640,120
44,62,431760,120
37,59,431880,120
44,67,432000,120
54,63,432120,120
44,67,432240,120
37,63,432360,120
44,71,432480,120
51,66,432600,120
44,72,432720,120
37,67,432840,600
44,80,432960,240
49,80,432960,240
88,70,433320,120
91,82,433320,120
84,66,433560,120
88,80,433560,120
79,63,433800,120
82,76,433800,120
76,64,434040,120
79,77,434040,120
72,62,434280,120
76,73,434280,120
67,62,434520,120
70,74,434520,120
64,60,434760,120
67,71,434760,120
49,63,435000,120
61,76,435000,120
64,62,435240,120
67,74,435240,120
60,60,435480,120
64,71,435480,120
55,57,435720,120
58,67,435720,120
52,57,435960,120
55,69,435960,120
48,55,436200,120
52,65,436200,120
43,55,436440,120
46,65,436440,120
40,53,436680,120
43,63,436680,120
25,61,436920,120
37,75,436920,120
36,61,437160,120
48,75,437160,120
35,63,437400,120
47,76,437400,120
34,67,437640,120
46,79,437640,120
33,69,437880,120
45,81,437880,120
32,71,438120,120
44,85,438120,120
33,75,438360,120
45,87,438360,120
34,76,438600,120
46,91,438600,120
33,77,438840,120
45,92,438840,120
32,76,439080,120
44,92,439080,120
31,76,439320,120
43,90,439320,120
30,76,439560,120
42,89,439560,120
29,73,439800,120
41,85,439800,120
28,70,440040,120
40,84,440040,120
27,70,440280,120
39,84,440280,120
26,68,440520,120
38,80,440520,120
25,67,440640,180
37,79,440640,180
45,50,440940,420
53,52,440970,390
57,58,441000,360
63,61,441030,330
64,76,441600,240
57,63,441600,240
52,63,441600,240
45,63,441600,240
42,63,442050,270
66,76,442080,240
61,76,442080,240
54,63,442080,240
37,67,442530,270
49,67,442530,270
68,80,442560,240
65,80,442560,240
61,80,442560,240
56,67,442560,240
65,70,443520,240
68,70,443520,240
73,84,443520,240
77,84,443520,240
56,76,444300,60
57,76,444360,60
60,76,444420,60
49,75,444480,120
61,82,444480,120
25,69,444720,240
37,76,444720,240
