note,velocity,position,duration
86,80,0,455
89,80,0,455
93,80,480,455
84,80,960,911
88,80,960,911
82,80,1920,1823
86,80,1920,1823
58,64,3840,1823
77,74,5760,455
81,74,6240,455
76,74,6720,911
74,74,7680,1823
86,80,9600,1823
98,80,9600,1823
89,64,13200,113
88,64,13320,113
89,64,13440,455
81,52,13440,911
93,64,13920,455
88,64,14400,455
81,52,14400,911
86,64,15120,113
84,64,15240,113
86,64,15360,455
81,52,15360,911
89,64,15840,455
93,64,16320,455
81,52,16320,911
94,64,17040,113
93,64,17160,113
94,64,17280,455
79,52,17280,911
98,64,17760,455
93,64,18240,455
77,52,18240,911
91,64,18960,113
89,64,19080,113
91,64,19200,455
76,52,19200,911
86,64,19680,455
76,64,20160,455
81,64,20160,455
74,52,20160,455
73,52,20640,455
77,64,20880,113
76,64,21000,113
77,64,21120,455
81,64,21600,455
69,54,22080,455
76,64,22080,455
74,64,22800,113
72,64,22920,113
74,64,23040,455
77,64,23520,455
72,54,24000,455
77,54,24000,455
81,64,24000,455
82,64,24720,113
81,64,24840,113
82,64,24960,455
86,66,25440,455
69,58,25920,455
77,58,25920,455
81,69,25920,455
79,73,26640,113
77,74,26760,113
71,63,26880,455
79,74,26880,455
67,65,27360,360
74,77,27360,455
69,68,27840,455
74,68,27840,455
81,80,27840,455
89,64,28680,56
88,64,28740,56
89,64,28800,455
93,64,29280,455
88,64,29760,797
89,64,30600,56
88,64,30660,56
86,64,30720,1367
89,64,32520,56
88,64,32580,56
89,64,32640,455
93,64,33120,455
96,64,33600,797
98,64,34440,56
96,64,34500,56
98,64,34560,1823
93,44,36480,227
89,44,36720,227
88,44,36960,227
81,44,37200,227
93,44,37440,227
89,44,37680,227
88,44,37920,227
81,44,38160,227
77,79,38400,455
65,64,38400,455
81,79,38880,455
57,64,38880,455
76,79,39360,1823
62,64,39360,455
57,64,39840,455
65,64,40320,455
62,64,40800,455
74,79,41280,911
65,64,41280,455
67,64,41760,455
69,64,42240,455
60,64,42720,455
65,64,43200,455
60,64,43680,455
60,64,44160,455
57,64,44640,360
60,64,45120,455
77,79,45600,227
64,64,45600,455
76,79,45840,227
77,79,46080,455
65,64,46080,455
81,79,46560,455
57,64,46560,455
76,79,47040,683
62,64,47040,455
57,64,47520,455
76,79,47760,227
77,79,48000,911
65,64,48000,455
62,64,48480,455
86,79,48960,911
65,64,48960,455
67,64,49440,455
81,79,49920,1823
69,64,49920,455
60,64,50400,455
65,64,50880,455
60,64,51360,455
72,79,51840,1823
64,64,51840,455
57,64,52320,360
60,64,52800,455
64,64,53280,455
57,64,53760,683
62,64,53760,683
65,64,53760,683
57,64,54480,480
62,64,54480,683
65,64,55200,113
67,64,55320,113
69,64,55440,227
62,64,55680,341
69,64,55680,341
62,64,56040,341
65,64,56040,341
62,64,56400,341
65,64,56400,341
57,64,56760,341
62,64,56760,341
57,64,57120,227
62,64,57120,227
57,52,57360,227
72,64,57600,1919
76,64,57638,1880
79,64,57678,1840
84,80,59520,911
96,80,59520,911
67,80,60960,37
69,80,61000,37
70,80,61040,37
72,80,61080,37
74,80,61120,37
76,80,61160,37
77,80,61200,113
76,80,61320,113
69,80,61440,455
74,80,61440,455
77,80,61440,455
69,80,61920,455
74,80,61920,455
81,80,61920,455
64,80,62400,455
67,80,62400,455
76,80,62400,455
74,80,63120,113
72,80,63240,113
65,80,63360,455
70,80,63360,455
74,80,63360,455
70,80,63840,455
74,80,63840,455
77,80,63840,455
69,80,64320,455
72,80,64320,455
81,80,64320,455
69,80,64800,56
70,80,64860,56
72,80,64920,56
74,80,64980,56
76,80,65040,56
77,80,65100,56
79,80,65160,56
81,80,65220,56
70,80,65280,455
74,80,65280,455
82,80,65280,455
74,80,65760,455
79,80,65760,455
86,80,65760,455
69,80,66240,455
72,80,66240,455
81,80,66240,455
70,80,66960,113
79,80,66960,113
77,80,67080,113
67,80,67200,455
70,80,67200,455
79,80,67200,455
67,80,67680,455
70,80,67680,455
74,80,67680,455
69,80,68160,227
73,80,68160,227
77,80,68160,227
81,80,68160,227
69,62,68400,56
70,62,68460,56
73,62,68520,56
74,62,68580,56
76,62,68640,56
77,62,68700,56
79,62,68760,56
81,62,68820,56
82,62,68880,56
85,62,68940,56
86,62,69000,56
88,62,69060,56
89,62,69120,75
81,62,69200,75
77,62,69280,75
89,62,69360,75
81,62,69440,75
77,62,69520,75
89,62,69600,75
81,62,69680,75
77,62,69760,75
89,62,69840,75
81,62,69920,75
77,62,70000,75
89,62,70080,75
81,62,70160,75
77,62,70240,75
89,62,70320,75
81,62,70400,75
77,62,70480,75
89,62,70560,75
81,62,70640,75
77,62,70720,75
89,62,70800,75
81,62,70880,75
77,62,70960,75
84,62,71040,75
81,62,71120,75
76,62,71200,75
84,62,71280,75
81,62,71360,75
76,62,71440,75
88,62,71520,75
81,62,71600,75
76,62,71680,75
88,62,71760,75
81,62,71840,75
76,62,71920,75
89,62,72000,75
81,62,72080,75
77,62,72160,75
89,62,72240,75
81,62,72320,75
77,62,72400,75
89,62,72480,75
81,62,72560,75
77,62,72640,75
89,62,72720,75
81,62,72800,75
77,62,72880,75
86,62,72960,75
81,62,73040,75
77,62,73120,75
86,62,73200,75
81,62,73280,75
77,62,73360,75
86,62,73440,75
81,62,73520,75
77,62,73600,75
86,62,73680,75
81,62,73760,75
77,62,73840,75
85,62,73920,75
81,62,74000,75
76,62,74080,75
86,62,74160,75
81,62,74240,75
76,62,74320,75
88,62,74400,75
85,62,74480,75
81,62,74560,75
93,62,74640,75
89,62,74720,75
85,62,74800,75
89,62,74880,75
86,62,74960,75
81,62,75040,75
86,62,75120,75
81,62,75200,75
77,62,75280,75
81,62,75360,75
77,62,75440,75
74,62,75520,75
77,62,75600,113
79,62,75720,113
69,62,75840,455
72,62,75840,455
81,62,75840,455
69,62,76320,113
72,62,76320,113
75,62,76320,113
63,62,76440,56
65,62,76500,56
67,62,76560,56
69,62,76620,56
70,62,76680,56
72,62,76740,56
65,62,76800,113
74,62,76800,113
70,62,76920,113
74,62,77040,113
77,62,77160,113
81,62,77280,113
77,62,77400,113
74,62,77520,113
77,62,77640,113
86,62,77760,113
77,62,77880,113
74,62,78000,113
77,62,78120,113
82,62,78240,113
77,62,78360,113
74,62,78480,113
77,62,78600,113
76,62,78720,113
72,62,78840,113
76,62,78960,113
79,62,79080,113
84,62,79200,113
79,62,79320,113
84,62,79440,113
88,62,79560,113
91,62,79680,113
89,62,79800,113
88,62,79920,113
84,62,80040,113
88,62,80160,113
84,62,80280,113
81,62,80400,113
65,80,80400,113
77,62,80520,113
67,80,80520,113
74,62,80640,227
65,80,80640,455
69,80,80640,455
77,62,80880,113
79,62,81000,113
74,62,81120,455
77,62,81120,455
81,62,81120,455
65,80,81360,113
67,80,81480,113
65,80,81600,455
69,80,81600,455
77,62,81840,113
79,62,81960,113
72,62,82080,455
77,62,82080,455
81,62,82080,455
65,80,82320,113
67,80,82440,113
65,80,82560,455
69,80,82560,455
77,62,82800,113
79,62,82920,113
74,62,83040,455
77,62,83040,455
81,62,83040,455
62,80,83760,227
64,80,84000,227
65,80,84240,227
62,80,84480,240
65,80,84480,455
69,80,84480,455
70,62,84720,113
74,62,84840,113
77,62,84960,113
74,62,85080,113
70,62,85200,113
74,62,85320,113
81,62,85440,113
74,62,85560,113
70,62,85680,113
74,62,85800,113
77,62,85920,455
70,80,86160,113
82,80,86160,113
67,81,86280,227
72,81,86280,227
79,81,86280,227
72,85,86520,113
84,85,86520,113
77,87,86640,113
89,87,86640,113
79,88,86760,113
91,88,86760,113
84,90,86880,455
96,90,86880,455
86,101,87600,113
98,101,87600,113
84,103,87720,113
96,103,87720,113
60,108,88080,227
72,108,88080,227
69,112,88320,227
72,112,88320,227
81,112,88320,227
69,112,88560,227
72,112,88560,227
81,112,88560,227
70,112,89040,113
82,112,89040,113
69,112,89160,569
72,112,89160,569
81,112,89160,569
60,112,90000,227
72,112,90000,227
67,112,90240,227
70,112,90240,227
79,112,90240,227
67,112,90480,227
70,112,90480,227
79,112,90480,227
69,112,90960,113
81,112,90960,113
67,112,91080,569
73,112,91080,569
79,112,91080,569
65,112,91680,227
77,112,91680,227
64,112,91920,227
76,112,91920,227
65,112,92160,455
69,112,92160,455
77,112,92160,455
65,112,92880,227
77,112,92880,227
67,112,93120,227
72,112,93120,227
79,112,93120,227
65,112,93360,227
77,112,93360,227
64,112,93600,227
76,112,93600,227
65,112,93840,113
77,112,93840,113
69,112,93960,569
72,112,93960,569
81,112,93960,569
69,101,94560,227
76,101,94560,227
72,101,94800,227
69,101,95040,227
72,101,95040,227
77,101,95040,227
76,101,95280,227
69,101,95520,227
74,101,95520,227
72,101,95760,227
62,101,96000,455
65,101,96000,455
70,101,96000,455
81,101,96840,113
72,101,96960,341
76,101,96960,341
79,101,96960,341
72,101,97320,227
76,101,97320,227
79,101,97320,227
84,101,97320,227
72,101,97560,341
76,101,97560,341
79,101,97560,341
72,101,97920,227
76,101,97920,227
81,101,97920,227
84,101,97920,227
72,101,98160,227
73,101,98400,75
74,101,98480,75
76,101,98560,75
77,101,98640,113
79,101,98760,113
72,101,98880,113
76,101,98880,113
74,101,99000,113
77,101,99000,113
72,101,99120,113
76,101,99120,113
74,101,99240,59
77,101,99240,59
67,101,99480,341
72,101,99480,341
76,101,99480,341
67,101,100080,56
69,101,100140,56
70,101,100200,56
72,101,100260,56
67,101,100320,455
74,101,100320,455
72,101,100800,455
77,101,100800,455
72,101,101280,455
79,101,101280,455
60,101,101760,455
65,101,101760,455
70,101,101760,455
60,92,102240,59
65,92,102240,59
70,92,102240,59
60,87,102480,683
65,87,102480,683
69,87,102480,683
89,64,103440,113
88,64,103560,113
77,64,103680,455
89,64,103680,455
93,64,104160,455
88,64,104640,455
86,64,105360,113
84,64,105480,113
77,64,105600,455
86,64,105600,455
89,64,106080,455
81,64,106560,455
86,64,106560,455
93,64,106560,455
94,64,107280,113
93,64,107400,113
86,64,107520,455
94,64,107520,455
91,64,108000,455
98,64,108000,455
84,64,108480,455
93,64,108480,455
91,64,109200,113
89,64,109320,113
79,64,109440,455
84,64,109440,455
91,64,109440,455
79,66,109920,455
84,66,109920,455
86,66,109920,455
81,69,110400,455
93,69,110400,455
73,71,110940,56
74,72,111000,56
76,72,111060,56
77,72,111120,113
76,73,111240,113
69,74,111360,455
77,74,111360,455
74,74,111840,455
81,74,111840,455
69,74,112320,455
76,74,112320,455
74,74,113040,113
72,74,113160,113
65,74,113280,455
74,74,113280,455
70,74,113760,455
77,74,113760,455
69,74,114240,455
74,74,114240,455
81,74,114240,455
82,74,114960,113
81,74,115080,113
82,74,115200,455
86,74,115680,455
81,74,116160,455
81,74,116880,113
79,74,117000,113
70,74,117120,1367
74,74,117120,1367
77,74,117120,1367
74,83,118680,113
77,84,118800,113
81,85,118920,113
70,86,119040,455
72,86,119040,455
77,86,119040,455
82,86,119040,455
81,86,119520,113
79,88,119640,113
77,90,119760,56
79,91,119820,56
81,92,119880,56
82,93,119940,56
72,94,120000,455
76,94,120000,455
84,94,120000,455
67,103,120480,75
69,104,120560,75
70,106,120640,75
72,115,120720,44
74,108,120768,44
76,109,120816,44
77,110,120864,44
79,111,120912,44
69,112,120960,227
72,112,120960,227
81,112,120960,227
69,112,121200,227
72,112,121200,227
81,112,121200,227
70,112,121680,113
82,112,121680,113
69,112,121800,569
72,112,121800,569
81,112,121800,569
60,112,122640,227
72,112,122640,227
67,112,122880,227
70,112,122880,227
79,112,122880,227
67,112,123120,227
70,112,123120,227
79,112,123120,227
69,112,123600,113
81,112,123600,113
67,112,123720,569
73,112,123720,569
79,112,123720,569
65,112,124320,227
77,112,124320,227
64,112,124560,227
76,112,124560,227
65,112,124800,455
69,112,124800,455
77,112,124800,455
65,112,125520,227
77,112,125520,227
67,112,125760,227
72,112,125760,227
79,112,125760,227
65,112,126000,227
77,112,126000,227
64,112,126240,227
76,112,126240,227
65,112,126480,113
77,112,126480,113
69,112,126600,569
74,112,126600,569
81,112,126600,569
81,101,127440,56
79,101,127500,56
77,101,127560,56
76,101,127620,56
71,101,127680,455
74,101,127680,455
67,101,128280,113
71,101,128400,113
74,101,128520,113
70,101,128640,56
74,101,128640,56
77,101,128640,56
76,101,128700,56
74,101,128760,56
72,101,128820,56
70,101,128880,113
74,101,128880,113
76,101,129000,113
74,101,129120,455
77,101,129120,455
76,101,129600,911
79,101,129600,911
72,101,130800,227
69,101,131040,227
73,101,131040,227
79,101,131280,227
77,101,131520,113
81,101,131520,113
76,101,131640,113
79,101,131640,113
74,101,131760,113
77,101,131760,113
72,101,131880,59
76,101,131880,59
74,101,132120,341
77,101,132120,341
67,101,132720,56
69,101,132780,56
70,101,132840,56
72,101,132900,56
74,101,132960,455
72,101,133440,455
77,101,133440,455
72,101,133920,455
76,101,133920,455
79,101,133920,455
60,101,134400,455
65,101,134400,455
70,101,134400,455
60,92,134880,59
65,92,134880,59
70,92,134880,59
60,87,135120,227
65,87,135120,227
69,87,135120,227
65,64,135480,113
69,64,135600,113
72,64,135720,113
77,64,135840,113
79,64,135960,113
81,64,136080,113
84,64,136200,113
86,64,136320,59
81,64,136440,59
86,64,136560,59
81,64,136680,59
93,64,136800,59
81,64,136920,59
86,64,137040,59
81,64,137160,59
88,64,137280,59
81,64,137400,59
86,64,137520,59
81,64,137640,59
93,64,137760,59
81,64,137880,59
86,64,138000,59
81,64,138120,59
86,64,138240,59
81,64,138360,59
93,64,138480,59
81,64,138600,59
89,64,138720,59
81,64,138840,59
86,64,138960,59
81,64,139080,59
93,64,139200,59
81,64,139320,59
89,64,139440,59
81,64,139560,59
77,64,139680,59
81,64,139800,59
77,64,139920,56
79,64,139980,56
81,64,140040,56
82,64,140100,56
86,64,140160,59
89,64,140160,59
77,64,140280,59
81,64,140280,59
81,64,140400,59
86,64,140400,59
77,64,140520,59
81,64,140520,59
89,64,140640,59
93,64,140640,59
77,64,140760,59
81,64,140760,59
81,64,140880,59
86,64,140880,59
77,64,141000,59
81,64,141000,59
84,64,141120,59
88,64,141120,59
76,64,141240,59
81,64,141240,59
81,64,141360,59
86,64,141360,59
76,64,141480,59
81,64,141480,59
88,64,141600,59
93,64,141600,59
76,64,141720,59
81,64,141720,59
81,64,141840,59
86,64,141840,59
76,64,141960,59
81,64,141960,59
82,64,142080,59
86,64,142080,59
77,64,142200,59
81,64,142200,59
82,64,142320,59
89,64,142320,59
93,64,142320,59
77,64,142440,59
81,64,142440,59
86,64,142560,59
89,64,142560,59
77,64,142680,59
81,64,142680,59
82,64,142800,59
86,64,142800,59
77,64,142920,59
81,64,142920,59
89,64,143040,59
93,64,143040,59
77,62,143160,59
81,62,143160,59
81,59,143280,59
86,59,143280,59
77,57,143400,59
81,57,143400,59
74,54,143520,59
77,54,143520,59
77,52,143640,59
81,52,143640,59
81,49,143760,59
86,49,143760,59
77,49,143880,59
89,49,143880,59
89,49,144000,59
93,49,144000,59
77,49,144120,59
81,49,144120,59
81,49,144240,59
86,49,144240,59
77,49,144360,59
81,49,144360,59
89,49,144480,59
93,49,144480,59
77,49,144600,59
81,49,144600,59
81,49,144720,59
86,49,144720,59
77,49,144840,59
81,49,144840,59
84,49,144960,59
88,49,144960,59
76,49,145080,59
81,49,145080,59
81,49,145200,59
86,49,145200,59
76,49,145320,59
81,49,145320,59
88,49,145440,59
93,49,145440,59
76,49,145560,59
81,49,145560,59
81,49,145680,59
86,49,145680,59
76,49,145800,59
81,49,145800,59
81,49,145920,59
86,49,145920,59
77,49,146040,59
81,49,146040,59
89,49,146160,59
93,49,146160,59
77,49,146280,59
81,49,146280,59
86,49,146400,59
89,49,146400,59
77,49,146520,59
81,49,146520,59
81,49,146640,59
86,49,146640,59
77,49,146760,59
81,49,146760,59
89,49,146880,59
93,49,146880,59
77,49,147000,59
81,49,147000,59
81,49,147120,59
86,49,147120,59
77,49,147240,59
81,49,147240,59
74,49,147360,59
77,49,147360,59
77,49,147480,59
81,49,147480,59
74,49,147600,113
86,49,147600,113
77,49,147720,113
89,49,147720,113
86,49,147840,59
91,49,147840,59
79,49,147960,59
82,49,147960,59
82,49,148080,59
86,49,148080,59
79,49,148200,59
82,49,148200,59
89,49,148320,59
93,49,148320,59
79,49,148440,59
82,49,148440,59
82,49,148560,59
86,49,148560,59
79,49,148680,59
82,49,148680,59
81,49,148800,59
84,49,148800,59
76,49,148920,59
81,49,148920,59
81,49,149040,59
84,49,149040,59
76,49,149160,59
81,49,149160,59
88,49,149280,59
93,49,149280,59
76,49,149400,59
81,49,149400,59
81,49,149520,59
84,49,149520,59
76,49,149640,59
81,49,149640,59
83,49,149760,59
86,49,149760,59
71,49,149880,59
74,49,149880,59
86,49,150000,59
91,49,150000,59
71,49,150120,59
74,49,150120,59
89,49,150240,59
93,49,150240,59
71,49,150360,59
74,49,150360,59
83,49,150480,59
86,49,150480,59
71,49,150600,59
74,49,150600,59
73,49,150720,56
74,49,150780,56
73,50,150840,56
74,51,150900,56
76,52,150960,56
77,53,151020,56
79,54,151080,56
81,55,151140,56
76,56,151200,113
82,56,151200,113
73,58,151320,113
81,60,151440,113
76,62,151560,113
74,64,151680,119
69,64,151800,113
74,64,151920,113
76,64,152040,113
77,64,152160,113
74,64,152280,113
81,64,152400,119
74,64,152520,113
88,64,152640,119
81,64,152760,113
76,64,152880,113
81,64,153000,113
84,64,153120,113
88,64,153240,113
89,64,153360,119
88,64,153480,113
86,64,153600,119
77,64,153720,113
82,64,153840,113
77,64,153960,113
82,64,154080,113
86,64,154200,113
88,64,154320,119
89,64,154440,113
84,64,154560,119
82,64,154680,113
81,64,154800,113
84,64,154920,113
82,64,155040,113
81,64,155160,113
77,64,155280,113
76,64,155400,113
74,64,155520,151
77,64,155520,151
74,64,155680,151
77,64,155680,151
74,64,155840,151
77,64,155840,151
93,64,156000,455
82,64,156000,151
86,64,156000,151
77,64,156160,151
82,64,156160,151
77,64,156320,151
82,64,156320,151
91,64,156480,455
79,64,156480,151
84,64,156480,151
88,64,156480,151
76,64,156640,151
79,64,156640,151
76,64,156800,151
79,64,156800,151
84,64,156960,455
76,64,156960,151
79,64,156960,151
76,64,157120,151
79,64,157120,151
76,64,157280,151
79,64,157280,151
77,64,157440,455
82,64,157440,455
88,64,157440,455
70,64,157600,151
74,64,157600,151
72,64,157760,151
76,64,157760,151
89,64,157920,227
74,64,157920,151
77,64,157920,151
74,64,158080,151
77,64,158080,151
91,64,158160,227
74,64,158240,151
77,64,158240,151
81,64,158400,227
85,64,158400,227
88,64,158400,227
93,64,158400,227
82,64,158640,227
86,64,158640,227
76,64,158880,455
81,64,158880,455
85,64,158880,455
62,64,159360,479
65,64,159360,479
74,79,159840,455
74,79,160320,227
74,79,160560,227
76,79,160800,227
77,79,161040,227
72,79,161280,683
60,64,161280,479
65,64,161280,479
79,79,162000,113
77,79,162120,1025
62,64,163200,479
65,64,163200,479
74,79,163680,455
73,79,164160,227
64,64,164160,479
67,64,164160,479
70,79,164400,227
74,79,164400,227
69,79,164640,227
76,79,164640,227
64,79,164880,227
69,79,164880,227
69,79,165120,911
74,79,165120,911
81,79,165120,911
69,64,166080,151
70,64,166240,151
71,64,166400,151
63,64,166560,455
65,64,166560,455
72,64,166560,455
65,80,167520,455
74,80,167520,455
65,80,168000,227
74,80,168000,227
65,80,168240,227
74,80,168240,227
67,80,168480,227
76,80,168480,227
69,80,168720,227
77,80,168720,227
64,80,168960,455
72,80,168960,455
64,80,169440,227
72,80,169440,227
79,80,169680,113
69,80,169800,569
77,80,169800,569
77,80,170640,113
79,80,170760,113
70,80,170880,227
74,80,170880,227
81,80,170880,227
77,80,171120,113
89,80,171120,113
79,80,171240,113
91,80,171240,113
81,80,171360,227
93,80,171360,227
77,80,171600,113
79,80,171720,113
72,80,171840,227
77,80,171840,227
81,80,171840,227
77,80,172080,113
89,80,172080,113
79,80,172200,113
91,80,172200,113
81,80,172320,227
93,80,172320,227
77,80,172560,113
79,80,172680,113
71,80,172800,227
74,80,172800,227
81,80,172800,227
77,80,173040,113
89,80,173040,113
79,80,173160,113
91,80,173160,113
81,80,173280,455
93,80,173280,455
71,80,174000,227
74,80,174000,227
72,80,174240,227
76,80,174240,227
74,80,174480,227
77,80,174480,227
70,80,174720,455
74,80,174720,455
81,80,174720,455
82,69,175200,683
86,69,175200,683
81,69,175920,75
85,69,175920,75
80,69,176000,75
84,69,176000,75
79,69,176080,75
83,69,176080,75
77,69,176160,227
82,69,176160,227
70,80,176400,113
82,80,176400,113
67,81,176520,227
72,81,176520,227
79,81,176520,227
60,79,176760,113
72,79,176760,113
65,81,176880,113
77,81,176880,113
67,81,177000,113
79,81,177000,113
72,83,177120,113
84,83,177120,113
79,85,177240,113
77,87,177360,113
72,89,177480,113
76,90,177600,113
79,92,177720,113
74,93,177840,113
86,93,177840,113
72,95,177960,113
84,95,177960,113
79,96,178080,113
76,98,178200,113
60,108,178320,227
72,108,178320,227
69,112,178560,227
72,112,178560,227
81,112,178560,227
69,112,178800,227
72,112,178800,227
81,112,178800,227
70,112,179280,113
82,112,179280,113
69,112,179400,569
72,112,179400,569
81,112,179400,569
60,112,180240,227
72,112,180240,227
67,112,180480,227
70,112,180480,227
79,112,180480,227
67,112,180720,227
70,112,180720,227
79,112,180720,227
69,112,181200,113
81,112,181200,113
67,112,181320,569
73,112,181320,569
79,112,181320,569
65,112,181920,227
77,112,181920,227
64,112,182160,227
76,112,182160,227
65,112,182400,455
69,112,182400,455
77,112,182400,455
65,112,183120,227
77,112,183120,227
67,112,183360,227
72,112,183360,227
79,112,183360,227
65,112,183600,227
77,112,183600,227
64,112,183840,227
76,112,183840,227
65,112,184080,113
77,112,184080,113
69,112,184200,569
72,112,184200,569
81,112,184200,569
69,101,184800,227
76,101,184800,227
72,101,185040,227
69,101,185280,227
72,101,185280,227
77,101,185280,227
76,101,185520,227
69,101,185760,227
74,101,185760,227
72,101,186000,227
62,101,186240,455
65,101,186240,455
70,101,186240,455
81,101,187080,113
72,101,187200,341
76,101,187200,341
79,101,187200,341
72,101,187560,227
76,101,187560,227
79,101,187560,227
84,101,187560,227
72,101,187800,341
76,101,187800,341
79,101,187800,341
72,101,188160,227
76,101,188160,227
81,101,188160,227
84,101,188160,227
72,101,188400,227
73,101,188640,75
74,101,188720,75
76,101,188800,75
77,101,188880,113
79,101,189000,113
72,101,189120,113
76,101,189120,113
74,101,189240,113
77,101,189240,113
72,101,189360,113
76,101,189360,113
74,101,189480,59
77,101,189480,59
67,101,189720,341
72,101,189720,341
76,101,189720,341
69,61,190080,227
77,61,190080,227
76,61,190320,227
74,61,190560,227
72,61,190800,227
69,98,191580,56
70,100,191640,56
73,102,191700,56
74,104,191760,56
76,106,191820,56
77,108,191880,56
79,110,191940,56
69,112,192000,113
74,112,192000,113
81,112,192000,113
69,99,192120,113
74,99,192120,113
69,99,192240,113
74,99,192240,113
69,112,192360,113
73,112,192360,113
76,112,192360,113
81,112,192360,113
73,99,192480,113
76,99,192480,113
73,99,192600,113
76,99,192600,113
69,112,192720,113
72,112,192720,113
76,112,192720,113
79,112,192720,113
81,112,192720,113
72,99,192840,113
76,99,192840,113
69,112,192960,227
71,112,192960,227
74,112,192960,227
81,112,192960,227
71,96,193200,56
72,96,193260,56
74,96,193320,56
76,96,193380,56
77,96,193440,56
79,96,193500,56
81,96,193560,56
83,96,193620,56
84,96,193680,56
86,96,193740,56
88,96,193800,56
89,96,193860,56
79,96,193920,455
82,96,193920,455
91,96,193920,455
62,111,194400,113
74,111,194400,113
64,111,194520,113
76,111,194520,113
65,111,194640,227
77,111,194640,227
67,111,194880,227
72,111,194880,227
79,111,194880,227
65,111,195120,227
77,111,195120,227
64,111,195360,227
67,111,195360,227
76,111,195360,227
65,111,195600,113
77,111,195600,113
65,111,195720,113
77,111,195720,113
60,96,195840,455
65,96,195840,455
70,96,195840,455
60,85,196320,59
65,85,196320,59
70,85,196320,59
60,79,196560,227
65,79,196560,227
69,79,196560,227
65,70,196920,113
67,67,197040,113
69,64,197160,113
72,61,197280,113
77,58,197400,113
79,55,197520,113
81,52,197640,113
82,49,197760,455
74,60,198240,113
76,60,198360,113
77,60,198480,227
79,60,198720,227
77,60,198960,227
76,60,199200,227
77,60,199440,113
77,60,199560,569
82,49,199680,455
82,49,200160,59
81,49,200400,1139
62,64,5760,911
69,64,5760,911
60,64,6720,911
69,64,6720,911
58,64,7680,1823
65,64,7680,1823
62,52,13440,911
69,52,13440,911
77,52,13440,911
60,52,14400,911
69,52,14400,911
76,52,14400,911
58,52,15360,911
65,52,15360,911
74,52,15360,911
57,52,16320,911
65,52,16320,911
72,52,16320,911
55,52,17280,911
62,52,17280,911
70,52,17280,911
53,52,18240,911
60,52,18240,911
69,52,18240,911
52,52,19200,911
58,52,19200,911
67,52,19200,911
57,52,20160,911
69,52,20160,911
50,52,21120,455
57,52,21120,455
65,52,21120,455
57,52,21720,113
62,52,21840,113
65,52,21960,113
45,52,22080,341
60,52,22080,341
60,52,22440,569
64,52,22440,569
46,52,23040,455
53,52,23040,455
62,52,23040,455
65,52,23640,113
70,52,23760,113
74,52,23880,113
53,52,24000,341
60,52,24000,341
69,52,24000,341
65,52,24360,227
70,52,24360,227
65,52,24600,341
69,52,24600,341
55,52,24960,455
62,52,24960,455
70,52,24960,455
62,54,25560,113
67,55,25680,113
70,55,25800,113
50,56,25920,113
57,56,26040,113
62,56,26160,113
64,57,26280,113
65,58,26400,227
57,59,26640,227
43,60,26880,113
50,60,27000,113
55,61,27120,113
57,61,27240,113
59,62,27360,113
57,63,27480,113
59,63,27600,113
67,64,27720,113
45,64,27840,113
57,64,27960,113
62,64,28080,113
64,64,28080,113
57,64,28200,113
61,64,28320,455
64,64,28320,455
77,44,28800,227
62,44,28800,911
69,44,28800,720
76,44,29040,227
74,44,29280,227
69,44,29520,227
77,44,29760,227
60,44,29760,911
76,44,30000,227
74,44,30240,227
69,44,30480,227
77,44,30720,227
58,44,30720,1823
76,44,30960,227
74,44,31200,227
69,44,31440,227
77,44,31680,227
76,44,31920,227
74,44,32160,227
69,44,32400,227
77,44,32640,227
62,44,32640,911
69,44,32640,911
88,44,32880,227
86,44,33120,227
81,44,33360,227
89,44,33600,227
60,44,33600,911
88,44,33840,227
86,44,34080,227
81,44,34320,227
89,44,34560,227
58,44,34560,911
88,44,34800,227
86,44,35040,227
81,44,35280,227
89,44,35520,227
69,44,35520,911
88,44,35760,227
86,44,36000,227
81,44,36240,227
46,44,36480,911
65,44,37440,911
38,52,38400,113
45,52,38520,113
50,52,38640,113
53,52,38760,227
45,52,39000,113
50,52,39120,113
53,52,39240,227
45,52,39480,113
50,52,39600,113
53,52,39720,227
45,52,39960,113
50,52,40080,113
53,52,40200,113
46,52,40320,113
50,52,40440,113
53,52,40560,113
58,52,40680,227
50,52,40920,113
53,52,41040,113
58,52,41160,227
50,52,41400,113
53,52,41520,113
58,52,41640,227
50,52,41880,113
53,52,42000,113
58,52,42120,113
41,52,42240,113
48,52,42360,113
53,52,42480,113
57,52,42600,227
48,52,42840,113
53,52,42960,113
57,52,43080,227
48,52,43320,113
53,52,43440,113
57,52,43560,227
48,52,43800,113
53,52,43920,113
57,52,44040,113
33,52,44160,113
45,52,44280,113
48,52,44400,113
52,52,44520,227
48,52,44760,113
52,52,44880,113
57,52,45000,227
48,52,45240,113
52,52,45360,113
57,52,45480,227
48,52,45720,113
52,52,45840,113
57,52,45960,113
38,52,46080,113
45,52,46200,113
50,52,46320,113
53,52,46440,227
45,52,46680,113
50,52,46800,113
53,52,46920,227
45,52,47160,113
50,52,47280,113
53,52,47400,227
45,52,47640,113
50,52,47760,113
53,52,47880,113
46,52,48000,113
50,52,48120,113
53,52,48240,113
58,52,48360,227
50,52,48600,113
53,52,48720,113
58,52,48840,227
50,52,49080,113
53,52,49200,113
58,52,49320,227
50,52,49560,113
53,52,49680,113
58,52,49800,113
41,52,49920,113
48,52,50040,113
53,52,50160,113
57,52,50280,227
48,52,50520,113
53,52,50640,113
57,52,50760,227
48,52,51000,113
53,52,51120,113
57,52,51240,227
48,52,51480,113
53,52,51600,113
57,52,51720,113
33,52,51840,113
45,52,51960,113
48,52,52080,113
52,52,52200,227
48,52,52440,113
52,52,52560,113
57,52,52680,227
48,52,52920,113
52,52,53040,113
57,52,53160,227
48,52,53400,113
52,52,53520,113
57,52,53640,113
50,52,53760,1139
57,52,54960,203
50,52,55080,455
53,52,55560,113
46,52,55680,227
53,52,55920,341
53,52,56280,341
53,52,56640,341
53,52,57000,569
48,64,57600,2735
36,80,60480,911
48,80,60480,911
38,68,61440,341
50,68,61440,341
50,68,61800,113
53,68,61920,455
57,68,61920,455
62,68,61920,455
36,68,62400,341
48,68,62400,341
48,68,62760,113
52,68,62880,341
55,68,62880,341
60,68,62880,341
46,68,63240,56
41,68,63300,56
34,68,63360,341
46,68,63360,341
46,68,63720,113
50,68,63840,455
53,68,63840,455
58,68,63840,455
33,68,64320,341
45,68,64320,341
45,68,64680,113
53,68,64800,227
57,68,64800,227
33,68,65040,227
45,68,65040,227
31,68,65280,227
43,68,65280,227
55,68,65520,56
57,68,65580,56
58,68,65640,56
60,68,65700,56
55,68,65760,227
58,68,65760,227
62,68,65760,227
43,68,66000,227
29,68,66240,227
41,68,66240,227
57,68,66480,56
58,68,66540,56
60,68,66600,56
62,68,66660,56
57,68,66720,227
60,68,66720,227
64,68,66720,227
41,68,66960,227
28,68,67200,227
40,68,67200,227
57,68,67440,56
58,68,67500,56
60,68,67560,56
62,68,67620,56
55,68,67680,227
58,68,67680,227
64,68,67680,227
40,68,67920,227
33,68,68160,227
45,68,68160,227
45,68,68400,113
57,68,68520,113
61,68,68640,113
64,68,68640,113
67,68,68640,113
57,68,68760,113
52,68,68880,113
45,68,69000,113
34,68,69120,455
46,68,69120,455
62,80,69600,455
53,68,69600,455
58,68,69600,455
62,80,70080,227
53,68,70080,455
58,68,70080,455
62,80,70320,227
64,80,70560,227
53,68,70560,455
58,68,70560,455
65,80,70800,227
60,80,71040,683
45,68,71040,455
52,68,71040,455
52,68,71520,455
57,68,71520,455
67,80,71760,113
65,80,71880,1025
50,68,72000,455
57,68,72000,455
57,68,72480,455
62,68,72480,455
43,68,72960,455
50,68,72960,455
58,68,72960,455
62,80,73440,455
55,68,73440,455
58,68,73440,455
61,80,73920,227
45,68,73920,455
52,68,73920,455
62,80,74160,227
64,80,74400,227
57,68,74400,227
61,68,74400,227
57,80,74640,227
50,68,74800,531
62,80,74880,480
65,80,74880,911
69,80,74880,911
57,68,75360,455
62,68,75360,455
64,68,75360,455
53,68,75840,227
63,68,75840,227
60,68,76080,227
41,68,76320,227
53,68,76320,227
48,68,76560,113
41,68,76680,113
34,68,76800,455
46,68,76800,455
62,80,77280,455
53,68,77280,455
58,68,77280,455
62,80,77760,227
53,68,77760,455
58,68,77760,455
62,80,78000,227
64,80,78240,227
53,68,78240,455
58,68,78240,455
65,80,78480,227
60,80,78720,683
45,68,78720,455
52,68,78720,455
52,68,79200,455
57,68,79200,455
67,80,79440,113
65,80,79560,569
50,68,79680,455
57,68,79680,455
57,68,80160,455
62,68,80160,455
43,68,80640,227
55,68,80640,227
55,68,80880,227
58,68,80880,227
62,68,80880,227
55,68,81120,227
58,68,81120,227
62,68,81120,227
55,68,81360,227
58,68,81360,227
62,68,81360,227
45,68,81600,227
57,68,81600,227
53,68,81840,227
57,68,81840,227
60,68,81840,227
53,68,82080,227
57,68,82080,227
60,68,82080,227
53,68,82320,227
57,68,82320,227
60,68,82320,227
47,68,82560,227
59,68,82560,227
55,68,82800,227
59,68,82800,227
62,68,82800,227
55,68,83040,227
59,68,83040,227
62,68,83040,227
55,68,83280,227
59,68,83280,227
62,68,83280,227
43,68,83520,227
55,68,83520,227
55,68,83760,227
59,68,83760,227
55,68,84000,227
59,68,84000,227
55,68,84240,227
59,68,84240,227
43,68,84480,227
55,68,84480,227
55,68,84720,227
58,68,84720,227
62,68,84720,227
55,68,84960,227
58,68,84960,227
62,68,84960,227
55,68,85200,227
58,68,85200,227
62,68,85200,227
43,68,85440,227
55,68,85440,227
55,68,85680,227
58,68,85680,227
62,68,85680,227
55,68,85920,227
58,68,85920,227
62,68,85920,227
55,68,86160,227
58,68,86160,227
62,68,86160,227
36,83,86400,227
48,83,86400,227
48,87,86640,227
55,90,86880,113
60,90,86880,113
65,90,86880,113
48,92,87000,227
55,96,87240,113
60,96,87240,113
64,96,87240,113
48,97,87360,227
55,101,87600,113
60,101,87600,113
65,101,87600,113
48,103,87720,227
52,106,87960,227
55,106,87960,227
36,97,88200,113
29,99,88320,341
41,99,88320,341
41,99,88680,113
48,99,88800,227
57,99,88800,227
41,99,89040,56
48,99,89100,56
53,99,89160,56
55,99,89220,56
53,99,89280,341
57,99,89280,341
41,99,89640,113
48,99,89760,227
53,99,89760,227
41,99,90000,227
40,99,90240,341
52,99,90240,341
40,99,90600,113
46,99,90720,227
52,99,90720,227
50,99,90960,227
52,99,90960,227
55,99,90960,227
45,99,91200,227
52,99,91200,227
60,99,91200,227
57,99,91440,113
61,99,91440,113
45,99,91560,113
53,99,91680,227
57,99,91680,227
52,99,91920,113
55,99,91920,113
45,99,92040,113
38,99,92160,341
50,99,92160,341
50,99,92520,113
57,99,92640,341
62,99,92640,341
64,99,92640,341
50,99,93000,113
36,99,93120,341
48,99,93120,341
53,99,93480,113
48,99,93600,227
55,99,93600,227
36,99,93840,227
33,99,94080,341
45,99,94080,341
45,99,94440,113
57,99,94560,341
60,99,94560,341
52,99,94920,113
45,99,95040,113
52,99,95160,113
60,99,95280,113
64,99,95280,113
57,99,95400,113
60,99,95520,113
57,99,95640,113
52,99,95760,113
45,99,95880,113
34,97,96000,227
46,97,96000,227
46,97,96240,113
53,97,96360,113
62,112,96480,113
58,97,96480,227
64,112,96600,113
65,112,96720,227
62,97,96720,227
67,112,96960,227
46,97,96960,341
58,97,96960,341
60,112,97200,227
53,97,97320,227
58,112,97440,227
60,112,97440,227
46,97,97560,227
58,112,97680,227
60,112,97680,227
46,97,97800,113
64,112,97920,227
69,112,97920,227
57,97,97920,341
64,112,98160,227
69,112,98160,227
57,97,98280,113
64,112,98400,227
67,112,98400,227
49,97,98400,455
61,97,98400,455
67,112,98640,113
65,112,98760,569
50,97,98880,227
62,97,98880,227
50,97,99120,113
38,97,99240,59
36,97,99480,341
48,97,99480,341
43,97,99840,227
55,97,99840,227
50,97,100080,113
55,97,100200,113
62,112,100320,113
58,97,100320,227
64,112,100440,113
65,112,100560,227
62,97,100560,227
67,112,100800,227
48,97,100800,341
60,97,100800,341
65,112,101040,227
55,97,101160,113
64,112,101280,227
60,97,101280,455
65,112,101520,113
65,112,101640,113
41,99,101760,227
48,95,102000,227
53,90,102240,59
41,85,102480,341
53,85,102480,341
48,64,102840,113
53,64,102960,113
55,64,103080,113
57,64,103200,113
60,64,103320,113
65,64,103440,113
69,64,103560,113
55,52,103680,455
62,52,103680,455
70,52,103680,455
70,52,104160,113
77,52,104160,113
76,52,104280,113
74,52,104400,113
57,52,104520,569
69,52,104640,455
72,52,104640,455
77,52,104640,455
72,52,105120,113
77,52,105120,113
76,52,105240,113
74,52,105360,113
72,52,105480,113
58,52,105600,227
65,52,105600,227
74,52,105600,227
72,52,105840,227
70,52,106080,227
74,52,106080,227
77,52,106320,227
50,52,106560,227
62,52,106560,227
62,52,106800,227
67,52,106800,227
57,52,107040,227
64,52,107040,227
69,52,107040,227
72,52,107280,227
55,52,107520,455
62,52,107520,455
70,52,107520,455
70,52,108000,113
74,52,108000,113
72,52,108120,341
77,52,108120,341
57,52,108480,455
67,52,108480,455
72,52,108480,455
72,52,108960,227
77,52,108960,227
76,52,109200,227
59,52,109440,227
67,52,109440,227
62,52,109680,227
67,53,109920,227
62,54,110160,227
57,56,110400,227
64,56,110400,227
73,56,110400,227
76,56,110640,227
69,57,110880,455
50,60,111360,227
62,60,111360,227
57,60,111600,227
65,60,111840,113
64,60,111960,113
62,60,112080,113
57,60,112200,113
48,60,112320,227
60,60,112320,227
57,60,112560,227
69,60,112800,113
67,60,112920,113
65,60,113040,113
64,60,113160,113
46,60,113280,227
53,60,113280,227
62,60,113280,227
60,60,113520,227
58,60,113760,227
62,60,113760,227
65,60,114000,227
50,60,114240,227
62,60,114240,227
67,60,114480,227
57,60,114720,227
65,60,114720,227
60,60,114960,227
55,60,115200,227
62,60,115200,227
70,60,115200,227
67,60,115440,227
70,60,115680,113
74,60,115680,113
72,60,115800,227
77,60,115800,227
70,60,116040,113
57,60,116160,227
67,60,116160,227
72,60,116160,227
69,60,116400,227
72,60,116640,227
77,60,116640,227
76,60,116880,227
45,60,116880,227
46,74,117120,227
53,74,117120,227
58,74,117120,227
60,75,117360,227
58,77,117600,227
62,77,117600,227
64,78,117840,227
58,80,118080,227
65,80,118080,227
67,81,118320,227
58,83,118560,227
62,83,118560,227
69,83,118560,227
46,84,118800,227
36,86,119040,227
48,86,119040,227
48,86,119280,227
60,86,119520,227
65,86,119520,227
55,90,119760,227
60,94,120000,227
64,94,120000,227
55,99,120240,227
48,103,120480,227
36,107,120720,227
48,107,120720,227
29,99,120960,227
41,99,120960,227
41,99,121200,227
48,99,121440,227
57,99,121440,227
41,99,121680,227
41,99,121920,227
48,99,121920,227
57,99,121920,227
53,99,122160,227
57,99,122160,227
60,99,122160,227
57,99,122400,227
60,99,122400,227
67,99,122400,227
53,99,122640,227
40,99,122880,227
52,99,122880,227
46,99,123120,227
52,99,123360,227
55,99,123600,227
58,99,123600,227
62,99,123600,227
45,99,123840,227
52,99,123840,227
61,99,123840,227
55,99,124080,227
58,99,124080,227
53,99,124320,227
57,99,124320,227
52,99,124560,227
55,99,124560,227
38,99,124800,227
50,99,124800,227
50,99,125040,227
57,99,125280,227
65,99,125280,227
50,99,125520,227
36,99,125760,227
48,99,125760,227
48,99,126000,227
57,99,126240,227
48,99,126480,227
35,99,126720,227
47,99,126720,227
47,99,126960,227
62,99,127200,227
65,99,127200,227
69,99,127200,227
47,99,127440,227
43,99,127680,227
55,99,127680,227
50,99,127920,227
55,99,128160,227
59,99,128160,227
43,99,128400,227
34,97,128640,227
46,97,128640,227
46,97,128880,227
62,112,129120,113
53,97,129120,227
64,112,129240,113
65,112,129360,227
62,97,129360,227
67,112,129600,227
36,97,129600,455
48,97,129600,455
55,112,129840,227
60,112,129840,227
55,112,130080,227
60,112,130080,227
48,97,130080,227
55,112,130320,227
60,112,130320,227
31,97,130320,227
43,97,130320,227
60,112,130560,227
64,112,130560,227
69,112,130560,227
33,97,130560,455
45,97,130560,455
64,112,130800,227
69,112,130800,227
67,112,131040,227
37,97,131040,227
49,97,131040,227
67,112,131280,113
61,97,131280,227
64,97,131280,227
65,112,131400,569
38,97,131520,227
50,97,131520,227
57,97,131760,113
62,97,131760,113
50,97,131880,59
38,97,132120,227
50,97,132120,227
50,97,132360,113
43,97,132480,227
55,97,132480,227
50,97,132720,227
62,112,132960,113
55,97,132960,227
58,97,132960,227
64,112,133080,113
65,112,133200,227
62,97,133200,227
67,112,133440,227
36,97,133440,911
48,97,133440,911
65,112,133680,227
60,112,133920,227
64,112,133920,227
65,112,134160,113
65,112,134280,113
29,97,134400,227
41,97,134400,227
41,93,134640,227
48,88,134880,59
53,88,134880,59
29,83,135120,1139
41,83,135120,1139
62,64,136320,59
62,64,136800,59
60,64,137280,59
60,64,137760,59
58,64,138240,59
58,64,138720,59
58,64,139200,59
58,64,139680,59
62,64,140160,59
62,64,140280,59
62,64,140520,59
62,64,140640,59
62,64,140760,59
62,64,141000,59
60,64,141120,59
60,64,141240,59
60,64,141480,59
60,64,141600,59
60,64,141720,59
60,64,141960,59
58,64,142080,59
58,64,142200,59
58,64,142440,59
58,64,142560,59
58,64,142680,59
58,64,142920,59
58,64,143040,59
58,62,143160,59
58,57,143400,59
58,54,143520,59
58,52,143640,59
65,70,143760,113
64,70,143880,113
58,49,143880,59
65,70,144000,455
62,49,144000,59
62,49,144120,59
62,49,144360,59
69,70,144480,455
62,49,144480,59
62,49,144600,59
62,49,144840,59
64,70,144960,455
60,49,144960,59
60,49,145080,59
60,49,145320,59
60,49,145440,59
60,49,145560,59
62,70,145680,113
60,70,145800,113
62,70,145920,455
58,49,145920,59
58,49,146040,59
58,49,146280,59
65,70,146400,455
58,49,146400,59
58,49,146520,59
58,49,146760,59
69,70,146880,455
58,49,146880,59
58,49,147000,59
58,49,147240,59
58,49,147360,59
58,49,147480,59
70,70,147600,113
69,70,147720,113
58,49,147720,59
70,70,147840,455
67,49,147840,59
67,49,147960,59
67,49,148200,59
74,70,148320,455
67,49,148320,59
67,49,148440,59
67,49,148680,59
69,70,148800,455
57,49,148800,59
57,49,148920,59
57,49,149160,59
57,49,149280,59
57,49,149400,59
67,70,149520,113
65,70,149640,113
57,49,149640,59
67,70,149760,455
59,49,149760,59
59,49,149880,59
59,49,150120,59
62,70,150240,455
59,49,150240,59
59,49,150360,59
59,49,150600,59
69,70,150720,455
61,49,150720,227
64,49,150720,227
57,52,150960,455
62,79,151440,113
65,79,151440,113
57,60,151440,227
64,81,151560,113
65,84,151680,455
50,64,151680,911
57,64,151680,911
69,84,152160,455
64,84,152640,455
60,64,152640,840
62,84,153360,113
60,84,153480,113
62,84,153600,455
58,64,153600,911
65,84,154080,455
69,84,154560,455
57,64,154560,911
65,64,154560,911
70,84,155280,113
69,84,155400,113
70,84,155520,455
55,64,155520,911
62,64,155520,911
74,84,156000,455
69,84,156480,455
57,64,156480,911
64,64,156480,911
67,84,157200,113
65,84,157320,113
67,84,157440,455
58,64,157440,911
62,64,157440,480
62,84,157920,455
69,84,158400,455
57,64,158400,455
61,64,158400,455
45,64,159120,227
46,64,159360,227
53,64,159600,227
62,64,159840,239
65,64,159840,239
58,64,160080,227
62,64,160320,239
65,64,160320,239
58,64,160560,227
62,64,160800,239
65,64,160800,239
58,64,161040,227
45,64,161280,227
53,64,161520,227
60,64,161760,239
65,64,161760,239
57,64,162000,227
60,64,162240,239
65,64,162240,239
57,64,162480,227
60,64,162720,239
65,64,162720,239
57,64,162960,227
43,64,163200,227
50,64,163440,227
62,64,163680,239
65,64,163680,239
55,64,163920,227
45,64,164160,227
52,64,164400,227
64,64,164640,239
67,64,164640,239
57,64,164880,227
50,64,165120,479
57,64,165120,479
65,64,165120,479
64,64,165600,479
67,64,165600,479
53,64,166080,479
60,64,166080,479
63,64,166080,479
48,64,166560,227
41,64,166800,227
34,64,167040,227
46,64,167040,227
46,64,167280,227
58,64,167520,227
62,64,167520,227
46,64,167760,227
53,64,168000,227
58,64,168000,227
57,64,168240,227
58,64,168480,227
57,64,168720,227
45,64,168960,227
55,64,168960,227
52,64,169200,227
55,64,169440,227
60,64,169440,227
52,64,169680,227
50,64,169920,227
57,64,169920,227
64,64,169920,227
60,64,170160,227
62,64,170400,227
65,64,170400,227
57,64,170640,227
43,64,170880,227
55,64,170880,227
58,64,171120,59
62,64,171120,59
65,64,171120,59
58,64,171360,59
62,64,171360,59
65,64,171360,59
58,64,171600,59
62,64,171600,59
65,64,171600,59
45,64,171840,227
57,64,171840,227
57,64,172080,59
60,64,172080,59
65,64,172080,59
57,64,172320,59
60,64,172320,59
65,64,172320,59
57,64,172560,59
60,64,172560,59
65,64,172560,59
47,64,172800,227
59,64,172800,227
59,64,173040,59
62,64,173040,59
65,64,173040,59
59,64,173280,59
62,64,173280,59
65,64,173280,59
59,64,173520,59
62,64,173520,59
65,64,173520,59
43,64,173760,227
55,64,173760,227
59,64,174000,59
62,64,174000,59
65,64,174000,59
59,64,174240,59
62,64,174240,59
65,64,174240,59
59,64,174480,59
62,64,174480,59
65,64,174480,59
43,64,174720,227
55,64,174720,227
58,64,174960,59
62,64,174960,59
65,64,174960,59
58,64,175200,59
62,64,175200,59
65,64,175200,59
58,64,175440,59
62,64,175440,59
65,64,175440,59
58,64,175680,59
62,64,175680,59
65,64,175680,59
58,64,175920,59
62,64,175920,59
65,64,175920,59
58,64,176160,59
62,64,176160,59
65,64,176160,59
43,64,176400,227
55,64,176400,227
36,83,176640,227
48,83,176640,227
48,87,176880,227
55,90,177120,227
60,90,177120,227
65,90,177120,227
48,94,177360,227
55,97,177600,227
60,97,177600,227
64,97,177600,227
48,101,177840,227
55,104,178080,341
60,104,178080,240
36,110,178440,113
29,99,178560,341
41,99,178560,341
41,99,178920,113
48,99,179040,227
57,99,179040,227
41,99,179280,56
48,99,179340,56
53,99,179400,56
55,99,179460,56
53,99,179520,341
57,99,179520,341
41,99,179880,113
48,99,180000,227
53,99,180000,227
41,99,180240,227
40,99,180480,341
52,99,180480,341
40,99,180840,113
46,99,180960,227
52,99,180960,227
50,99,181200,227
52,99,181200,227
55,99,181200,227
45,99,181440,227
52,99,181440,227
60,99,181440,227
57,99,181680,113
61,99,181680,113
45,99,181800,113
53,99,181920,227
57,99,181920,227
52,99,182160,113
55,99,182160,113
45,99,182280,113
38,99,182400,341
50,99,182400,341
50,99,182760,113
57,99,182880,341
62,99,182880,341
64,99,182880,341
50,99,183240,113
36,99,183360,341
48,99,183360,341
53,99,183720,113
48,99,183840,227
55,99,183840,227
36,99,184080,227
33,99,184320,341
45,99,184320,341
45,99,184680,113
57,99,184800,341
60,99,184800,341
52,99,185160,113
45,99,185280,75
52,99,185360,75
57,99,185440,75
60,99,185520,113
64,99,185520,113
57,99,185640,113
60,99,185760,113
57,99,185880,113
52,99,186000,113
45,99,186120,113
34,97,186240,227
46,97,186240,227
46,97,186480,113
53,97,186600,113
62,112,186720,113
58,97,186720,227
64,112,186840,113
65,112,186960,227
62,97,186960,227
67,112,187200,227
46,97,187200,341
58,97,187200,341
60,112,187440,227
53,97,187560,227
58,112,187680,227
60,112,187680,227
46,97,187800,227
58,112,187920,227
60,112,187920,227
46,97,188040,113
64,112,188160,227
69,112,188160,227
57,97,188160,341
64,112,188400,227
69,112,188400,227
57,97,188520,113
64,112,188640,227
67,112,188640,227
49,97,188640,455
61,97,188640,455
67,112,188880,113
65,112,189000,569
50,97,189120,227
62,97,189120,227
50,97,189360,113
38,97,189480,59
36,97,189720,341
48,97,189720,341
46,65,190080,911
53,65,190080,911
62,65,190080,480
62,80,190560,431
64,80,190680,113
65,80,190800,227
60,80,191040,227
64,80,191040,227
67,80,191040,227
48,65,191040,455
65,88,191280,227
61,96,191520,227
64,96,191520,227
49,78,191520,455
65,104,191760,113
65,108,191880,113
38,101,192000,113
50,101,192000,113
50,99,192120,113
50,99,192240,113
37,101,192360,113
49,101,192360,113
49,99,192480,113
49,99,192600,113
36,101,192720,113
48,101,192720,113
48,99,192840,113
35,101,192960,113
47,101,192960,113
47,96,193080,113
53,96,193200,113
57,96,193320,113
62,96,193440,113
57,96,193560,113
53,96,193680,113
50,96,193800,113
31,96,193920,227
43,96,193920,227
43,96,194160,227
50,96,194400,341
55,96,194400,341
58,96,194400,341
43,96,194760,113
36,96,194880,341
48,96,194880,341
53,96,195240,113
48,96,195360,227
55,96,195360,227
36,96,195600,227
48,96,195600,227
29,96,195840,227
41,96,195840,227
41,91,196080,227
48,85,196320,59
53,85,196320,59
29,79,196560,1139
41,79,196560,1139
55,49,197760,911
62,49,197760,911
70,49,197760,911
60,49,198720,455
65,49,198720,455
60,49,199200,455
67,49,199200,455
65,49,199680,227
72,49,199920,227
77,49,200160,59
65,49,200400,1139
72,49,200400,1139
