note,velocity,position,duration
59,49,240,227
59,49,480,227
61,49,480,227
66,49,480,227
59,49,720,227
54,49,1200,480
58,49,1440,227
61,49,1440,227
66,49,1440,227
54,49,1680,227
65,49,1920,227
63,49,2160,227
65,49,2400,227
66,49,2640,455
58,49,3120,659
65,49,3360,75
66,49,3440,75
65,49,3520,75
61,49,3600,227
59,49,4080,227
63,49,4320,227
59,49,4560,455
63,49,4560,455
71,49,4560,455
66,49,5040,227
63,49,5280,227
59,49,5520,227
65,49,5760,1367
68,49,5760,1367
73,49,5760,1367
73,64,7200,113
73,64,7320,113
73,64,7440,113
78,64,7560,341
73,64,7920,113
78,64,8040,341
73,64,8400,113
78,64,8520,341
73,64,8880,113
78,64,9000,227
78,64,9360,113
78,64,9480,113
77,64,9600,227
75,64,9840,113
75,64,9960,227
73,64,10200,113
73,64,10320,227
66,64,11040,113
78,64,11040,113
66,64,11160,113
78,64,11160,113
68,64,11280,113
80,64,11280,113
68,64,11400,113
80,64,11400,113
70,64,11520,227
82,64,11520,227
71,64,11760,113
83,64,11760,113
70,64,11880,341
82,64,11880,341
71,64,12240,113
83,64,12240,113
73,64,12360,341
85,64,12360,341
66,64,12720,227
78,64,12720,227
66,64,13200,113
66,64,13320,113
68,64,13440,227
66,64,13680,113
66,64,13800,113
66,64,14160,455
73,64,14880,227
73,64,15120,113
78,64,15240,341
73,64,15600,113
78,64,15720,341
73,64,16080,113
78,64,16200,341
80,64,16560,113
82,64,16680,227
83,64,17040,113
82,64,17160,341
80,64,17520,113
78,64,17640,227
77,64,17880,113
78,64,18000,227
78,64,18720,227
78,64,18960,227
82,64,19680,227
78,64,19920,227
73,64,20880,227
73,64,21120,227
78,64,21360,227
80,64,21600,227
78,64,21840,227
66,80,22560,227
73,55,22800,2051
68,80,22800,113
78,55,22920,1937
68,80,22920,113
85,55,23040,1823
70,80,23040,683
66,80,23760,113
66,80,23880,683
61,80,24600,113
68,80,24720,113
66,80,24840,113
66,55,24960,683
70,55,24960,683
78,55,24960,683
78,55,25680,683
85,55,25680,683
73,55,26400,455
66,80,26400,455
68,55,26880,840
73,55,26880,911
77,55,26880,911
65,80,26880,480
66,80,27600,113
68,80,27720,683
70,55,27840,911
74,55,27840,911
66,80,28440,113
65,80,28560,113
66,80,28680,341
75,55,28800,455
78,55,28800,455
85,55,29280,227
78,55,29520,1139
61,80,30240,170
61,80,30420,170
61,80,30600,113
61,80,30720,227
71,55,30960,227
59,80,30960,113
58,80,31080,227
73,55,31200,227
59,80,31320,113
78,55,31440,1139
66,80,31440,683
61,80,32160,170
61,80,32340,170
61,80,32520,113
61,80,32640,227
70,55,32880,227
58,80,32880,113
68,80,33000,227
73,55,33120,227
66,80,33240,113
78,55,33360,1139
66,80,33360,227
66,80,33840,227
68,80,34080,227
70,80,34320,911
59,55,34560,227
61,55,34560,227
66,55,34560,227
71,55,34800,227
73,55,35040,227
78,55,35280,1139
66,80,35280,113
66,80,35400,1025
73,55,36480,226
77,55,36510,198
80,55,36540,170
73,96,36720,227
70,96,36960,227
73,96,37440,227
82,96,37440,227
85,96,37440,227
70,96,37680,227
78,96,37680,227
82,96,37680,227
68,96,37920,227
77,96,37920,227
80,96,37920,227
66,96,38160,227
75,96,38160,227
78,96,38160,227
68,96,38400,227
77,96,38400,227
80,96,38400,227
70,96,38640,227
78,96,38640,227
82,96,38640,227
66,96,39120,227
73,96,39120,227
78,96,39120,227
73,96,39360,227
82,96,39360,227
85,96,39360,227
70,96,39600,227
78,96,39600,227
82,96,39600,227
68,96,39840,227
77,96,39840,227
80,96,39840,227
66,96,40080,227
75,96,40080,227
78,96,40080,227
68,96,40320,227
77,96,40320,227
80,96,40320,227
70,96,40560,227
77,96,40560,227
82,96,40560,227
66,96,41040,227
75,96,41040,227
78,96,41040,227
73,96,41280,455
82,96,41280,455
85,96,41280,455
65,96,41760,455
73,96,41760,455
77,96,41760,455
66,96,42240,720
75,96,42240,1367
78,96,42240,480
78,81,42720,887
90,81,42720,683
77,81,43440,227
89,81,43440,227
73,81,43680,227
85,81,43680,227
58,96,43920,227
66,96,43920,227
61,96,44160,227
68,96,44160,227
66,96,44400,113
61,96,44520,227
68,96,44520,227
71,96,44760,113
65,96,44880,227
70,96,44880,227
66,96,45600,113
70,96,45600,113
70,96,45720,113
71,96,45840,227
63,96,46080,227
66,96,46080,227
73,96,46080,227
66,96,46320,113
63,96,46440,227
65,96,46440,227
66,96,46680,113
66,96,46800,113
63,96,46920,341
66,96,46920,341
61,96,47640,113
66,96,47760,227
70,96,47760,227
61,96,48000,455
65,96,48000,455
68,96,48000,455
66,96,48720,227
78,96,48720,227
73,96,48960,227
85,96,48960,227
70,96,49200,227
82,96,49200,227
68,96,49440,227
80,96,49440,227
66,96,49680,227
78,96,49680,227
68,96,49920,227
77,96,49920,227
80,96,49920,227
70,96,50160,227
78,96,50160,227
82,96,50160,227
66,96,50640,227
73,96,50640,227
78,96,50640,227
73,96,50880,227
82,96,50880,227
85,96,50880,227
70,96,51120,227
78,96,51120,227
82,96,51120,227
68,96,51360,227
77,96,51360,227
80,96,51360,227
66,96,51600,227
75,96,51600,227
78,96,51600,227
68,96,51840,227
77,96,51840,227
80,96,51840,227
70,96,52080,227
77,96,52080,227
82,96,52080,227
66,96,52560,227
75,96,52560,227
78,96,52560,227
73,96,52800,455
82,96,52800,455
85,96,52800,455
65,96,53280,455
73,96,53280,455
77,96,53280,455
66,96,53760,455
75,96,53760,455
78,96,53760,455
63,96,54360,113
66,96,54360,113
68,96,54480,113
63,96,54600,240
66,96,54600,569
63,96,55320,113
66,96,55320,113
68,96,55440,113
66,96,55560,113
61,96,55680,227
66,96,55680,227
65,96,55920,113
61,96,56040,227
66,96,56040,227
65,96,56280,113
61,96,56400,227
66,96,57120,227
75,96,57120,227
78,96,57120,227
68,96,57360,113
77,96,57360,113
80,96,57360,113
66,96,57480,113
75,96,57480,113
78,96,57480,113
73,96,57600,227
82,96,57600,227
85,96,57600,227
70,96,57840,227
78,96,57840,227
82,96,57840,227
66,96,58320,227
73,96,58320,227
78,96,58320,227
73,96,58560,227
82,96,58560,227
85,96,58560,227
70,96,58800,227
78,96,58800,227
82,96,58800,227
66,96,59280,227
73,96,59280,227
78,96,59280,227
71,96,59520,227
78,96,59520,227
83,96,59520,227
70,96,59760,113
82,96,59760,113
68,96,59880,227
80,96,59880,227
66,96,60120,113
78,96,60120,113
70,96,60240,227
73,96,60240,227
82,96,60240,227
66,96,60960,113
66,96,61080,113
66,96,61200,113
66,96,61320,113
59,96,61440,455
63,96,61440,455
66,96,61440,455
68,96,61920,455
61,96,62400,455
65,96,62400,455
70,96,62400,455
65,96,63120,113
66,96,63240,569
71,80,63360,341
78,80,63360,341
71,80,63720,113
78,80,63720,113
66,80,64080,455
70,80,64080,455
73,80,64080,455
65,80,64560,227
77,80,64560,227
66,80,64800,227
78,80,64800,227
68,80,65040,227
80,80,65040,227
73,80,65280,227
77,80,65280,227
80,80,65280,227
78,80,65520,113
73,80,65640,113
80,80,65640,113
70,80,65880,569
75,80,65880,569
82,80,65880,569
71,80,66480,227
83,80,66480,227
70,80,66720,227
82,80,66720,227
68,80,66960,227
80,80,66960,227
71,80,67200,341
75,80,67200,341
78,80,67200,341
73,80,67560,113
78,80,67560,113
85,80,67560,113
70,80,67920,455
75,80,67920,455
82,80,67920,455
68,80,68400,227
80,80,68400,227
66,80,68640,455
70,80,68640,455
78,80,68640,455
68,80,69120,683
73,80,69120,683
80,80,69120,683
82,80,69840,113
83,80,69960,113
73,80,70080,455
77,80,70080,455
85,80,70080,455
71,49,71040,455
73,49,71040,455
78,49,71040,455
71,49,71520,455
73,49,71520,455
78,49,71520,455
70,49,72000,455
73,49,72000,455
78,49,72000,455
70,49,72480,455
73,49,72480,455
78,49,72480,455
68,49,72960,455
73,49,72960,455
77,49,72960,455
68,49,73440,455
73,49,73440,455
77,49,73440,455
70,49,73920,455
73,49,73920,455
75,49,73920,455
78,49,73920,455
70,49,74400,455
73,49,74400,455
75,49,74400,455
78,49,74400,455
71,49,74880,455
73,49,74880,455
78,49,74880,455
71,49,75360,455
73,49,75360,455
78,49,75360,455
70,49,75840,455
73,49,75840,455
78,49,75840,455
70,49,76320,455
73,49,76320,455
78,49,76320,455
68,49,76800,227
73,49,76800,227
77,49,76800,227
68,49,77040,227
73,49,77280,227
70,49,77520,455
73,49,77520,455
78,49,77520,455
58,64,78000,227
73,80,78240,113
73,80,78360,113
73,80,78480,113
73,80,78600,341
78,80,78600,341
73,80,78960,113
73,80,79080,341
78,80,79080,341
73,80,79440,113
73,80,79560,341
78,80,79560,341
80,80,79920,113
78,80,80040,227
82,80,80040,227
83,80,80400,113
73,80,80520,341
82,80,80520,341
80,80,80880,113
73,80,81000,227
78,80,81000,227
77,80,81240,113
73,80,81360,227
78,80,81360,227
73,80,82080,113
78,80,82080,113
78,80,82200,113
78,80,82320,113
78,80,82440,113
73,80,83040,227
82,80,83040,227
73,80,83280,227
78,80,83280,227
73,80,84240,227
68,80,84480,227
73,80,84480,227
78,80,84720,227
80,80,84960,227
70,80,85200,683
73,80,85200,683
78,80,85200,683
66,64,85920,113
66,64,86040,113
68,64,86160,113
68,64,86280,113
61,64,86400,683
63,64,86400,683
70,64,86400,683
61,64,87120,113
66,64,87120,113
66,64,87240,683
61,64,87960,113
68,64,88080,227
61,64,88320,683
66,64,88320,683
68,49,89040,683
70,49,89040,683
73,49,89040,683
66,64,89760,455
61,64,90240,480
65,64,90240,683
66,64,90960,113
62,64,91080,569
65,64,91080,569
68,64,91080,569
66,64,91800,113
65,64,91920,113
66,64,92040,341
82,49,92400,227
85,49,92640,227
73,49,92880,683
75,49,92880,683
78,49,92880,683
61,64,93600,170
61,64,93780,170
61,64,93960,113
54,64,94080,227
61,64,94080,227
59,64,94320,113
54,64,94440,227
58,64,94440,227
59,64,94680,113
59,64,94800,683
66,64,94800,683
61,64,95520,170
61,64,95700,170
61,64,95880,113
58,64,96000,227
61,64,96000,227
58,66,96240,113
61,67,96360,227
68,67,96360,227
66,69,96600,113
58,70,96720,227
61,70,96720,227
66,70,96720,227
66,74,97200,227
68,76,97440,227
59,78,97680,911
63,78,97680,911
70,78,97680,911
66,86,98640,113
59,87,98760,341
66,87,98760,341
71,76,99120,227
73,78,99360,227
78,79,99600,227
68,81,99840,227
73,81,99840,227
80,81,99840,227
73,96,100080,227
70,96,100320,227
73,96,100800,227
82,96,100800,227
85,96,100800,227
70,96,101040,227
78,96,101040,227
82,96,101040,227
68,96,101280,227
77,96,101280,227
80,96,101280,227
66,96,101520,80
75,96,101520,227
78,96,101520,227
68,96,101760,227
77,96,101760,227
80,96,101760,227
70,96,102000,227
78,96,102000,227
82,96,102000,227
66,96,102480,227
73,96,102480,227
78,96,102480,227
73,96,102720,227
82,96,102720,227
85,96,102720,227
70,96,102960,227
78,96,102960,227
82,96,102960,227
68,96,103200,227
77,96,103200,227
80,96,103200,227
66,96,103440,227
75,96,103440,227
78,96,103440,227
68,96,103680,227
77,96,103680,227
80,96,103680,227
70,96,103920,227
77,96,103920,227
82,96,103920,227
66,96,104400,227
75,96,104400,227
78,96,104400,227
73,96,104640,455
82,96,104640,455
85,96,104640,455
65,96,105120,455
73,96,105120,455
77,96,105120,455
66,96,105600,720
75,96,105600,1367
78,96,105600,480
78,81,106080,887
90,81,106080,683
77,81,106800,227
89,81,106800,227
73,81,107040,455
85,81,107040,455
58,96,107280,113
66,96,107280,113
66,96,107400,113
61,96,107520,227
68,96,107520,227
66,96,107760,113
61,96,107880,227
68,96,107880,227
71,96,108120,113
65,96,108240,227
70,96,108240,227
66,96,108960,113
70,96,108960,113
70,96,109080,113
71,96,109200,113
71,96,109320,113
63,96,109440,227
66,96,109440,227
73,96,109440,227
66,96,109680,113
63,96,109800,227
65,96,109800,227
66,96,110040,113
63,96,110160,455
66,96,110160,455
61,96,111000,113
66,96,111120,227
70,96,111120,227
61,96,111360,455
65,96,111360,455
68,96,111360,455
66,96,112080,227
78,96,112080,227
73,96,112320,227
85,96,112320,227
70,96,112560,227
82,96,112560,227
68,96,112800,227
80,96,112800,227
66,96,113040,227
78,96,113040,227
68,96,113280,227
77,96,113280,227
80,96,113280,227
70,96,113520,227
78,96,113520,227
82,96,113520,227
66,96,114000,227
73,96,114000,227
78,96,114000,227
73,96,114240,227
82,96,114240,227
85,96,114240,227
70,96,114480,227
78,96,114480,227
82,96,114480,227
68,96,114720,227
77,96,114720,227
80,96,114720,227
66,96,114960,227
75,96,114960,227
78,96,114960,227
68,96,115200,227
77,96,115200,227
80,96,115200,227
70,96,115440,227
77,96,115440,227
82,96,115440,227
66,96,115920,227
75,96,115920,227
78,96,115920,227
73,96,116160,455
82,96,116160,455
85,96,116160,455
65,96,116640,455
73,96,116640,455
77,96,116640,455
66,96,117120,455
75,96,117120,455
78,96,117120,455
63,96,117720,113
66,96,117720,113
68,96,117840,113
63,96,117960,240
66,96,117960,569
63,96,118680,113
66,96,118680,113
68,96,118800,113
66,96,118920,113
61,96,119040,227
66,96,119040,227
65,96,119280,113
61,96,119400,227
66,96,119400,227
65,96,119640,113
61,96,119760,227
66,96,120480,227
75,96,120480,227
78,96,120480,227
68,96,120720,113
77,96,120720,113
80,96,120720,113
66,96,120840,113
75,96,120840,113
78,96,120840,113
73,96,120960,227
82,96,120960,227
85,96,120960,227
70,96,121200,227
78,96,121200,227
82,96,121200,227
66,96,121680,227
73,96,121680,227
78,96,121680,227
73,96,121920,227
82,96,121920,227
85,96,121920,227
70,96,122160,227
78,96,122160,227
82,96,122160,227
66,96,122640,227
73,96,122640,227
78,96,122640,227
71,96,122880,227
78,96,122880,227
83,96,122880,227
70,96,123120,113
82,96,123120,113
68,96,123240,227
80,96,123240,227
66,96,123480,113
78,96,123480,113
70,96,123600,227
73,96,123600,227
82,96,123600,227
66,96,124320,113
78,96,124320,113
66,96,124440,113
78,96,124440,113
66,96,124560,113
78,96,124560,113
66,96,124680,113
78,96,124680,113
66,96,124800,455
71,96,124800,455
75,96,124800,455
78,96,124800,455
68,96,125280,455
80,96,125280,455
70,96,125760,455
73,96,125760,455
77,96,125760,455
82,96,125760,455
65,96,126480,113
77,96,126480,113
66,96,126600,341
78,96,126600,341
73,80,126960,113
80,80,126960,113
73,80,127080,113
80,80,127080,113
73,80,127200,227
80,80,127200,227
73,80,127440,113
78,80,127440,113
73,80,127560,113
78,80,127560,113
73,80,127680,227
78,80,127680,227
73,80,127920,113
77,80,127920,113
73,80,128040,113
77,80,128040,113
73,80,128160,227
77,80,128160,227
75,80,128400,113
75,80,128520,113
68,80,128640,227
75,80,128640,227
68,80,128880,113
73,80,128880,113
68,80,129000,113
73,80,129000,113
68,80,129120,227
73,80,129120,227
68,80,129360,113
71,80,129360,113
68,80,129480,113
71,80,129480,113
68,80,129600,227
71,80,129600,227
70,80,129840,113
70,80,129960,113
65,80,130080,113
70,80,130080,113
71,80,130200,113
70,80,130320,113
63,80,130440,341
66,80,130440,341
61,80,130800,113
63,80,130920,113
66,80,131040,113
68,80,131160,113
71,80,131280,113
70,80,131400,113
70,80,131520,113
71,80,131640,113
73,80,131760,113
70,80,131880,227
78,80,131880,227
73,80,132120,113
70,80,132240,227
78,80,132240,227
73,80,132480,227
80,80,132480,227
73,80,132720,113
78,80,132720,113
73,80,132840,113
80,80,132840,113
80,80,133080,41
73,80,133122,72
77,80,133122,72
82,80,133122,72
73,80,133320,569
77,80,133320,569
82,80,133320,569
73,80,133920,113
82,80,133920,113
83,80,134040,113
82,80,134160,113
71,80,134280,341
80,80,134280,341
71,80,134640,113
78,80,134640,113
71,80,134760,227
78,80,134760,227
71,80,135000,113
77,80,135000,113
71,80,135240,569
78,80,135240,569
85,80,135840,41
78,80,135882,186
87,80,135882,186
78,80,136080,683
85,80,136080,683
73,80,136800,227
78,80,136800,227
83,80,136800,227
73,80,137040,341
82,80,137040,341
80,80,137400,113
73,80,137520,455
78,80,137520,455
77,80,138000,113
68,80,138120,341
71,80,138120,341
78,80,138120,341
68,80,138480,227
73,80,138480,227
68,80,138720,227
73,80,138720,227
71,80,138960,113
70,80,139080,227
71,80,139320,113
68,80,139440,683
71,80,139440,683
78,80,139440,683
68,80,140160,683
73,80,140160,683
78,80,140160,683
77,88,140880,113
78,89,141000,113
68,90,141120,455
73,90,141120,455
80,90,141120,455
66,96,141600,227
78,96,141600,227
66,96,141840,227
78,96,141840,227
66,96,142080,341
71,96,142080,341
78,96,142080,341
73,96,142440,113
78,96,142440,113
85,96,142440,113
66,96,142680,113
78,96,142680,113
70,96,142800,455
73,96,142800,455
82,96,142800,455
66,96,143520,227
78,96,143520,227
66,96,143760,227
78,96,143760,227
66,96,144000,341
73,96,144000,341
78,96,144000,341
73,96,144360,113
77,96,144360,113
85,96,144360,113
66,96,144600,113
78,96,144600,113
66,96,144720,455
70,96,144720,455
78,96,144720,455
61,96,145440,227
61,96,145680,227
59,96,145920,227
63,96,145920,227
70,96,146160,113
63,96,146280,227
68,96,146280,227
66,96,146520,113
61,96,146640,455
70,96,146640,455
71,96,147120,227
61,96,147360,227
70,96,147360,227
66,96,147600,113
66,96,147720,113
61,96,147840,227
65,96,147840,227
63,96,148080,227
65,96,148320,227
63,96,148560,455
66,96,148560,455
78,96,149280,227
82,96,149280,227
90,96,149280,227
78,96,149520,227
90,96,149520,227
78,96,149760,341
83,96,149760,341
90,96,149760,341
85,96,150120,113
90,96,150120,113
97,96,150120,113
78,96,150360,113
90,96,150360,113
82,96,150480,455
85,96,150480,455
94,96,150480,455
78,96,151200,227
90,96,151200,227
78,96,151440,227
90,96,151440,227
78,96,151680,341
85,96,151680,341
90,96,151680,341
85,96,152040,113
89,96,152040,113
97,96,152040,113
78,96,152280,113
90,96,152280,113
78,96,152400,455
82,96,152400,455
90,96,152400,455
61,96,153120,113
73,96,153120,113
61,96,153240,113
73,96,153240,113
61,96,153360,113
73,96,153360,113
63,96,153480,341
68,96,153480,341
75,96,153480,341
70,96,153840,113
82,96,153840,113
68,96,153960,227
71,96,153960,227
80,96,153960,227
70,96,154200,341
82,96,154200,341
73,96,154560,227
77,96,154560,227
85,96,154560,227
70,96,154800,113
82,96,154800,113
68,96,154920,227
73,96,154920,227
80,96,154920,227
66,96,155160,113
70,96,155160,113
78,96,155160,113
66,96,155400,113
78,96,155400,113
73,96,155520,227
78,96,155520,227
85,96,155520,227
70,96,155760,113
82,96,155760,113
68,96,155880,227
71,96,155880,227
80,96,155880,227
66,96,156120,113
78,96,156120,113
70,96,156240,227
75,96,156240,227
82,96,156240,227
73,96,156480,227
68,96,156480,240
80,96,156480,1823
68,96,156720,720
70,96,156960,227
65,96,157200,227
71,96,157200,227
65,96,157440,227
68,96,157440,863
73,96,157440,227
78,96,157680,227
90,96,157680,227
77,96,157920,227
89,96,157920,227
75,96,158160,227
87,96,158160,227
73,96,158400,1823
77,96,158400,1823
80,96,158400,1823
85,96,158400,1823
85,64,160560,227
82,64,160800,227
85,64,161280,227
82,64,161520,227
80,64,161760,227
78,64,162000,227
80,64,162240,227
82,64,162480,227
78,64,162960,227
85,64,163200,227
82,64,163440,227
80,64,163680,227
78,64,163920,227
80,64,164160,227
82,64,164400,227
78,64,164880,227
85,64,165120,455
77,64,165600,455
78,64,166080,1367
78,64,167760,113
78,64,167880,113
80,64,168000,227
78,64,168240,113
80,64,168360,227
83,64,168600,113
82,64,168720,227
82,64,169440,113
82,64,169560,113
83,64,169680,113
83,64,169800,113
85,64,169920,227
78,66,170160,113
77,67,170280,227
78,69,170520,113
78,70,170640,455
73,77,171480,113
82,78,171600,227
68,81,171840,455
73,81,171840,455
80,81,171840,455
66,87,172560,227
78,87,172560,227
73,89,172800,227
85,89,172800,227
70,91,173040,227
82,91,173040,227
68,93,173280,227
80,93,173280,227
66,96,173520,227
78,96,173520,227
68,96,173760,227
77,96,173760,227
80,96,173760,227
70,96,174000,227
78,96,174000,227
82,96,174000,227
66,96,174480,227
73,96,174480,227
78,96,174480,227
73,96,174720,227
82,96,174720,227
85,96,174720,227
70,96,174960,227
78,96,174960,227
82,96,174960,227
68,96,175200,227
77,96,175200,227
80,96,175200,227
66,96,175440,227
75,96,175440,227
78,96,175440,227
68,96,175680,227
77,96,175680,227
80,96,175680,227
70,96,175920,227
77,96,175920,227
82,96,175920,227
66,96,176400,227
75,96,176400,227
78,96,176400,227
73,96,176640,455
82,96,176640,455
85,96,176640,455
65,96,177120,455
73,96,177120,455
77,96,177120,455
66,96,177600,455
75,96,177600,455
78,96,177600,455
66,96,178200,113
78,96,178200,113
68,96,178320,113
80,96,178320,113
66,96,178440,569
75,96,178440,569
78,96,178440,569
66,96,179160,113
78,96,179160,113
68,96,179280,113
80,96,179280,113
66,96,179400,113
78,96,179400,113
66,96,179520,227
73,96,179520,227
78,96,179520,227
65,96,179760,113
77,96,179760,113
66,96,179880,227
73,96,179880,227
78,96,179880,227
65,96,180120,113
77,96,180120,113
61,96,180240,227
73,96,180240,227
66,96,180960,227
75,96,180960,227
78,96,180960,227
68,96,181200,113
77,96,181200,113
80,96,181200,113
66,96,181320,113
75,96,181320,113
78,96,181320,113
73,96,181440,227
82,96,181440,227
85,96,181440,227
70,96,181680,227
78,96,181680,227
82,96,181680,227
66,96,182160,227
73,96,182160,227
78,96,182160,227
73,96,182400,227
82,96,182400,227
85,96,182400,227
70,96,182640,227
78,96,182640,227
82,96,182640,227
66,96,183120,227
73,96,183120,227
78,96,183120,227
71,96,183360,227
78,96,183360,227
83,96,183360,227
70,96,183600,113
82,96,183600,113
68,96,183720,227
80,96,183720,227
66,96,183960,113
78,96,183960,113
70,96,184080,227
73,96,184080,227
82,96,184080,227
66,96,184800,113
66,96,184920,113
66,96,185040,113
66,96,185160,113
59,96,185280,455
63,96,185280,455
66,96,185280,455
68,96,185760,455
61,96,186240,455
65,96,186240,455
70,96,186240,455
65,64,186960,113
66,64,187080,2849
78,49,190080,227
80,49,190320,227
82,49,190560,227
85,49,190800,227
78,49,191040,909
85,49,191070,881
89,49,191100,853
92,49,191130,825
58,33,192000,1823
47,49,0,911
42,49,960,911
54,49,960,240
49,49,1920,683
56,49,1920,683
61,49,1920,683
51,49,2640,1139
58,49,2640,480
61,49,2640,960
47,49,3840,683
47,49,4560,1139
54,49,4560,1139
49,49,5760,1823
56,49,5760,1823
47,49,7680,227
59,49,7680,227
54,49,7920,227
59,49,8160,227
61,49,8160,227
66,49,8160,227
54,49,8400,227
42,49,8640,227
54,49,8640,227
54,49,8880,227
58,49,9120,227
61,49,9120,227
66,49,9120,227
54,49,9360,227
49,49,9600,227
56,49,9600,227
61,49,9600,227
65,49,9600,227
56,49,9840,227
61,49,10080,227
65,49,10080,227
56,49,10320,227
51,49,10560,227
58,49,10560,227
61,49,10560,227
66,49,10560,227
58,49,10800,227
61,49,11040,227
58,49,11280,227
47,49,11520,227
54,49,11520,227
61,49,11520,227
54,49,11760,227
59,49,12000,227
61,49,12000,227
54,49,12240,227
42,49,12480,227
54,49,12480,227
54,49,12720,227
58,49,12960,227
61,49,12960,227
54,49,13200,227
49,49,13440,227
56,49,13440,227
61,49,13440,227
65,49,13440,227
56,49,13680,227
61,49,13920,227
65,49,13920,227
51,49,14160,455
58,49,14160,455
61,49,14160,455
51,49,14640,227
58,49,14880,227
66,49,14880,227
58,49,15120,227
61,49,15120,227
47,49,15360,227
54,49,15360,227
59,49,15360,227
61,49,15360,227
66,49,15360,227
54,49,15600,227
59,49,15840,227
61,49,15840,227
54,49,16080,227
42,49,16320,227
54,49,16320,227
54,49,16560,227
58,49,16800,227
61,49,16800,227
54,49,17040,227
49,49,17280,227
56,49,17280,227
61,49,17280,227
65,49,17280,227
56,49,17520,227
61,49,17760,227
65,49,17760,227
56,49,18000,227
51,49,18240,227
58,49,18240,227
61,49,18240,227
66,49,18240,227
58,49,18480,227
66,49,18720,227
70,49,18720,227
58,49,18960,227
47,49,19200,227
54,49,19200,227
59,49,19200,227
61,49,19200,227
54,49,19440,227
59,49,19680,227
61,49,19680,227
54,49,19920,227
42,49,20160,227
54,49,20160,227
54,49,20400,227
58,49,20640,227
61,49,20640,227
54,49,20880,227
49,49,21120,227
56,49,21120,227
61,49,21120,227
65,49,21120,227
56,49,21360,227
61,49,21600,227
65,49,21600,227
51,49,21840,455
58,49,21840,455
61,49,21840,455
66,49,21840,455
58,49,22320,227
58,49,22560,341
61,49,22560,341
61,49,22920,113
47,49,23040,455
54,49,23040,455
61,49,23040,455
47,49,23520,227
59,49,23760,455
61,49,23760,455
47,49,24240,227
54,49,24480,227
59,49,24480,227
54,49,24720,113
47,49,24840,113
42,49,24960,455
54,49,24960,455
54,49,25440,227
58,49,25680,683
61,49,25680,683
66,49,25680,683
58,49,26400,227
61,49,26400,227
54,49,26640,113
53,49,26760,113
49,49,26880,455
56,49,26880,455
61,49,26880,455
61,49,27360,227
65,49,27360,227
56,49,27600,113
49,49,27720,113
50,49,27840,455
58,49,27840,455
62,49,28320,227
65,49,28320,227
53,49,28560,113
50,49,28680,113
51,49,28800,455
58,49,28800,455
63,49,28800,455
73,49,29280,227
70,49,29520,455
66,49,30000,227
51,49,30240,227
58,49,30240,227
51,49,30480,113
46,49,30600,113
35,49,30720,683
47,49,30720,683
59,49,31440,455
61,49,31440,455
47,49,31920,227
54,49,32160,227
59,49,32160,227
54,49,32400,113
47,49,32520,113
42,49,32640,455
54,49,32640,455
54,49,33120,227
58,49,33360,455
61,49,33360,455
42,49,33840,227
58,49,34080,227
61,49,34080,227
66,49,34080,227
54,49,34320,113
42,49,34440,113
35,49,34560,683
47,49,34560,683
59,49,35280,455
61,49,35280,455
47,49,35760,227
54,49,36000,227
59,49,36000,227
54,49,36240,113
59,49,36240,113
61,49,36240,113
47,49,36360,113
37,49,36480,911
49,49,36480,911
30,80,38400,455
42,80,38400,455
54,80,38880,227
58,80,39120,455
61,80,39120,455
42,80,39600,227
58,80,39840,227
61,80,39840,227
54,80,40080,113
42,80,40200,113
29,80,40320,455
41,80,40320,455
56,80,40800,227
61,80,40800,227
65,80,40800,227
41,80,41040,227
34,80,41280,455
46,80,41280,455
53,80,41760,227
58,80,41760,227
61,80,41760,227
58,80,42000,113
46,80,42120,113
39,80,42240,455
51,80,42240,455
51,80,42720,227
58,80,42960,455
63,80,42960,455
66,80,42960,647
51,80,43440,227
58,80,43680,227
63,80,43680,227
51,80,43920,113
39,80,44040,113
37,80,44160,455
49,80,44160,455
49,80,44640,227
56,80,44880,455
61,80,44880,455
49,80,45360,227
56,80,45600,227
61,80,45600,227
49,80,45840,113
37,80,45960,113
35,80,46080,455
47,80,46080,455
47,80,46560,227
54,80,46800,455
59,80,46800,455
47,80,47280,227
54,80,47520,227
59,80,47520,227
47,80,47760,113
35,80,47880,113
37,80,48000,455
49,80,48000,455
49,80,48480,227
56,80,48720,227
61,80,48720,227
37,80,48960,227
49,80,48960,227
54,80,49200,75
56,80,49280,75
58,80,49360,75
56,80,49440,75
58,80,49520,75
59,80,49600,75
61,80,49680,75
63,80,49760,75
65,80,49840,75
30,80,49920,227
42,80,49920,227
42,80,50160,113
49,80,50280,113
54,80,50400,227
58,80,50640,341
61,80,50640,341
54,80,51000,113
42,80,51120,227
58,80,51360,227
61,80,51360,227
54,80,51600,113
42,80,51720,113
29,80,51840,227
41,80,51840,227
41,80,52080,113
49,80,52200,113
56,80,52320,227
61,80,52320,227
65,80,52320,227
41,80,52560,227
34,80,52800,227
46,80,52800,227
46,80,53040,113
53,80,53160,113
58,80,53280,227
61,80,53280,227
58,80,53520,113
46,80,53640,113
39,80,53760,227
51,80,53760,227
39,80,54000,113
46,80,54120,113
51,80,54240,227
58,80,54480,341
63,80,54480,120
63,80,54840,329
51,80,54960,227
58,80,55200,227
63,80,55200,120
51,80,55440,113
39,80,55560,113
37,80,55680,227
49,80,55680,227
37,80,55920,113
44,80,56040,113
49,80,56160,227
53,80,56400,341
56,80,56400,341
49,80,56760,113
37,80,56880,227
56,80,57120,227
61,80,57120,227
49,80,57360,113
37,80,57480,113
35,80,57600,227
47,80,57600,227
35,80,57840,113
42,80,57960,113
47,80,58080,227
54,80,58320,341
59,80,58320,341
61,80,58320,341
59,80,58680,113
47,80,58800,227
54,80,59040,227
59,80,59040,227
63,80,59040,227
47,80,59280,113
35,80,59400,113
30,80,59520,227
42,80,59520,227
42,80,59760,113
49,80,59880,113
54,80,60000,227
58,80,60240,341
61,80,60240,341
54,80,60600,113
42,80,60720,227
58,80,60960,227
61,80,60960,227
54,80,61200,113
42,80,61320,113
35,80,61440,227
47,80,61440,227
47,80,61680,227
54,80,61920,227
59,80,61920,227
61,80,61920,227
47,80,62160,113
35,80,62280,113
37,80,62400,455
49,80,62400,455
35,64,63360,227
47,64,63360,227
47,64,63600,113
54,64,63720,113
59,64,63720,113
42,64,64080,227
54,64,64080,227
49,64,64320,227
54,64,64560,227
58,64,64560,227
49,64,64800,227
54,64,65040,113
42,64,65160,113
37,64,65280,227
49,64,65280,227
49,64,65520,113
56,64,65640,113
61,64,65640,113
39,64,66000,227
51,64,66000,227
46,64,66240,227
51,64,66480,227
54,64,66480,227
46,64,66720,227
51,64,66960,113
39,64,67080,113
35,64,67200,227
47,64,67200,227
47,64,67440,113
54,64,67560,113
59,64,67560,113
35,64,67920,227
47,64,67920,227
47,64,68160,227
59,64,68400,113
54,64,68520,113
51,64,68640,113
47,64,68760,113
42,64,68880,113
35,64,69000,113
37,64,69120,683
49,64,69120,683
44,64,69840,227
37,64,70080,455
49,64,70080,455
61,70,70560,113
61,70,70680,113
61,70,70800,113
66,70,70920,341
47,64,71040,455
59,64,71040,455
61,70,71280,113
66,70,71400,341
59,64,71520,455
61,70,71760,113
66,70,71880,341
42,64,72000,455
54,64,72000,455
61,70,72240,113
66,70,72360,227
54,64,72480,455
61,70,72720,227
66,70,72720,227
65,70,72960,227
49,64,72960,455
61,64,72960,455
63,70,73200,113
63,70,73320,227
49,64,73440,455
61,70,73560,113
61,70,73680,227
39,64,73920,455
51,64,73920,455
54,70,74400,113
51,64,74400,455
54,70,74520,113
56,70,74640,113
56,70,74760,113
58,70,74880,227
47,64,74880,455
59,70,75120,113
58,70,75240,341
47,64,75360,455
59,70,75600,113
61,70,75720,341
42,64,75840,455
54,70,76080,113
54,70,76200,113
42,64,76320,455
54,70,76560,113
54,70,76680,113
56,70,76800,227
49,64,76800,683
54,70,77040,227
54,70,77280,227
54,70,77520,1139
51,64,77520,455
39,64,78000,227
51,64,78000,227
58,64,78240,227
66,64,78240,227
58,64,78480,227
65,64,78480,227
35,64,78720,227
47,64,78720,227
47,64,78960,227
59,64,79200,227
61,64,79200,227
66,64,79200,227
59,64,79440,113
47,64,79560,113
42,64,79680,227
54,64,79680,227
54,64,79920,227
58,64,80160,227
61,64,80160,227
66,64,80160,227
54,64,80400,113
42,64,80520,113
37,64,80640,227
49,64,80640,227
49,64,80880,227
56,64,81120,227
61,64,81120,227
65,64,81120,227
49,64,81360,113
37,64,81480,113
39,64,81600,227
51,64,81600,227
51,64,81840,227
58,64,82080,227
63,64,82080,227
66,64,82080,227
51,64,82320,113
39,64,82440,113
35,64,82560,227
47,64,82560,227
47,64,82800,227
59,64,83040,227
61,64,83040,227
66,64,83040,227
59,64,83280,113
47,64,83400,113
42,64,83520,227
54,64,83520,227
54,64,83760,227
58,64,84000,227
61,64,84000,227
66,64,84000,227
54,64,84240,113
42,64,84360,113
37,64,84480,227
49,64,84480,227
49,64,84720,227
56,64,84960,227
61,64,84960,227
65,64,84960,227
39,64,85200,455
51,64,85200,455
63,49,85680,227
58,49,85920,227
51,49,86160,227
47,49,86400,683
54,49,86400,683
47,49,87120,455
54,49,87120,455
59,49,87600,227
58,49,87840,227
54,49,88080,227
42,49,88320,683
49,49,88320,683
56,49,88320,683
49,49,89040,455
54,49,89040,455
58,49,89040,455
56,49,89520,227
54,49,89760,227
49,49,90000,227
49,49,90240,455
56,49,90240,455
56,49,90720,227
61,49,90720,227
49,49,90960,227
50,49,91200,455
56,49,91200,455
56,49,91680,227
58,49,91680,227
62,49,91680,227
50,49,91920,227
51,49,92160,683
58,49,92160,683
61,49,92160,683
46,49,92880,455
51,49,93360,227
46,49,93600,227
39,49,93840,227
35,49,94080,683
47,49,94080,683
35,49,94800,455
47,49,94800,455
47,49,95280,227
54,49,95520,227
47,49,95760,227
42,54,96000,455
54,54,96000,455
49,58,96480,227
42,59,96720,455
54,59,96720,455
49,63,97200,227
54,64,97440,227
42,66,97680,227
35,68,97920,455
47,68,97920,455
42,71,98400,227
35,73,98640,455
47,73,98640,455
54,76,99120,227
47,78,99360,227
42,79,99600,227
37,81,99840,911
49,81,99840,911
37,80,100800,75
49,80,100800,75
51,80,100880,75
53,80,100960,75
54,80,101040,75
56,80,101120,75
58,80,101200,75
59,80,101280,75
61,80,101360,75
63,80,101440,75
65,80,101520,75
66,80,101600,147
68,80,101680,75
30,80,101760,455
42,80,101760,455
54,80,102240,227
58,80,102480,455
61,80,102480,455
42,80,102960,227
58,80,103200,227
61,80,103200,227
54,80,103440,113
42,80,103560,113
29,80,103680,455
41,80,103680,455
56,80,104160,227
61,80,104160,227
65,80,104160,227
41,80,104400,227
34,80,104640,455
46,80,104640,455
53,80,105120,227
58,80,105120,227
61,80,105120,227
58,80,105360,113
46,80,105480,113
39,80,105600,455
51,80,105600,455
51,80,106080,227
58,80,106320,455
63,80,106320,455
66,80,106320,647
51,80,106800,227
58,80,107040,227
63,80,107040,227
51,80,107280,113
39,80,107400,113
37,80,107520,455
49,80,107520,455
49,80,108000,227
56,80,108240,455
61,80,108240,455
49,80,108720,227
56,80,108960,227
61,80,108960,227
49,80,109200,113
37,80,109320,113
35,80,109440,455
47,80,109440,455
47,80,109920,227
54,80,110160,455
59,80,110160,455
47,80,110640,227
54,80,110880,227
59,80,110880,227
47,80,111120,113
35,80,111240,113
37,80,111360,455
49,80,111360,455
49,80,111840,227
56,80,112080,227
61,80,112080,227
37,80,112320,158
49,80,112320,164
51,80,112400,75
53,80,112480,75
54,80,112560,75
56,80,112640,75
58,80,112720,75
56,80,112800,75
58,80,112880,75
59,80,112960,75
61,80,113040,75
63,80,113120,75
65,80,113200,75
30,80,113280,227
42,80,113280,227
42,80,113520,113
49,80,113640,113
54,80,113760,227
58,80,114000,341
61,80,114000,341
54,80,114360,113
42,80,114480,227
58,80,114720,227
61,80,114720,227
54,80,114960,113
42,80,115080,113
29,80,115200,227
41,80,115200,227
41,80,115440,113
49,80,115560,113
56,80,115680,227
61,80,115680,227
65,80,115680,227
41,80,115920,227
34,80,116160,227
46,80,116160,227
46,80,116400,113
53,80,116520,113
58,80,116640,227
61,80,116640,227
58,80,116880,113
46,80,117000,113
39,80,117120,227
51,80,117120,227
39,80,117360,113
46,80,117480,113
51,80,117600,227
58,80,117840,341
63,80,117840,120
63,80,118200,329
51,80,118320,227
58,80,118560,227
63,80,118560,120
51,80,118800,113
39,80,118920,113
37,80,119040,227
49,80,119040,227
37,80,119280,113
44,80,119400,113
49,80,119520,227
53,80,119760,341
56,80,119760,341
49,80,120120,113
37,80,120240,227
56,80,120480,227
61,80,120480,227
49,80,120720,113
37,80,120840,113
35,80,120960,227
47,80,120960,227
35,80,121200,113
42,80,121320,113
47,80,121440,227
54,80,121680,341
59,80,121680,341
61,80,121680,341
59,80,122040,113
47,80,122160,227
54,80,122400,227
59,80,122400,227
63,80,122400,227
47,80,122640,113
35,80,122760,113
30,80,122880,227
42,80,122880,227
42,80,123120,113
49,80,123240,113
54,80,123360,227
58,80,123600,341
61,80,123600,341
54,80,123960,113
42,80,124080,227
58,80,124320,227
61,80,124320,227
54,80,124560,113
42,80,124680,113
35,80,124800,227
47,80,124800,227
47,80,125040,227
54,80,125280,227
59,80,125280,227
61,80,125280,227
47,80,125520,113
35,80,125640,113
37,80,125760,227
49,80,125760,227
49,80,126000,227
56,80,126240,75
61,80,126240,75
53,80,126320,75
49,80,126400,75
49,80,126480,75
44,80,126560,75
37,80,126640,75
30,64,126720,227
42,64,126720,227
42,64,126960,227
54,64,127200,227
58,64,127200,227
61,64,127200,227
54,64,127440,113
49,64,127560,113
42,64,127680,113
49,64,127800,113
54,64,127920,227
58,64,128160,227
61,64,128160,227
54,64,128400,113
42,64,128520,113
29,64,128640,227
41,64,128640,227
41,64,128880,227
53,64,129120,227
56,64,129120,227
61,64,129120,227
56,64,129360,113
49,64,129480,113
41,64,129600,113
49,64,129720,113
53,64,129840,227
56,64,130080,227
61,64,130080,227
53,64,130320,113
41,64,130440,113
27,64,130560,227
39,64,130560,227
39,64,130800,227
51,64,131040,227
54,64,131040,227
51,64,131280,113
46,64,131400,113
39,64,131520,113
46,64,131640,113
51,64,131760,227
54,64,132000,227
58,64,132000,227
51,64,132240,113
39,64,132360,113
37,64,132480,227
49,64,132480,227
49,64,132720,227
53,64,132960,227
56,64,132960,227
49,64,133200,113
44,64,133320,113
37,64,133440,113
44,64,133560,113
49,64,133680,227
53,64,133920,227
56,64,133920,227
49,64,134160,113
37,64,134280,113
35,64,134400,227
47,64,134400,227
47,64,134640,227
51,64,134880,227
54,64,134880,227
47,64,135120,113
42,64,135240,113
35,64,135360,113
42,64,135480,113
47,64,135600,227
51,64,135840,227
54,64,135840,227
47,64,136080,113
35,64,136200,113
34,64,136320,227
46,64,136320,227
46,64,136560,227
54,64,136800,227
58,64,136800,227
61,64,136800,227
54,64,137040,113
49,64,137160,113
46,64,137280,113
49,64,137400,113
54,64,137520,227
58,64,137760,227
61,64,137760,227
54,64,138000,113
42,64,138120,113
32,64,138240,227
44,64,138240,227
44,64,138480,227
56,64,138720,227
59,64,138720,227
56,64,138960,113
51,64,139080,113
44,64,139200,113
51,64,139320,113
56,64,139440,227
59,64,139680,227
63,64,139680,227
56,64,139920,113
44,64,140040,113
37,68,140160,227
49,68,140160,227
53,69,140400,227
56,69,140400,227
61,69,140400,227
53,72,140640,227
56,72,140640,227
61,72,140640,227
53,74,140880,227
56,74,140880,227
61,74,140880,227
37,76,141120,227
49,76,141120,227
56,79,141360,227
61,79,141360,227
65,79,141360,227
56,81,141600,227
61,81,141600,227
56,81,141840,227
61,81,141840,227
35,80,142080,227
47,80,142080,227
47,80,142320,113
54,80,142440,113
59,80,142440,113
35,80,142680,113
30,80,142800,227
42,80,142800,227
42,80,143040,113
49,80,143160,113
54,80,143280,227
58,80,143280,227
42,80,143520,227
54,80,143760,113
42,80,143880,113
37,80,144000,227
49,80,144000,227
49,80,144240,113
56,80,144360,113
61,80,144360,113
37,80,144600,113
39,80,144720,227
51,80,144720,227
46,80,144960,113
51,80,145080,113
54,80,145200,227
58,80,145200,227
51,80,145440,113
46,80,145560,113
39,80,145680,113
34,80,145800,113
35,80,145920,227
47,80,145920,227
47,80,146160,113
54,80,146280,113
59,80,146280,113
35,80,146520,113
30,80,146640,227
42,80,146640,227
42,80,146880,113
49,80,147000,113
54,80,147120,227
58,80,147120,227
42,80,147360,227
54,80,147600,113
42,80,147720,113
37,80,147840,227
49,80,147840,227
49,80,148080,113
53,80,148200,113
56,80,148200,113
37,80,148440,113
39,80,148560,227
51,80,148560,227
46,80,148800,113
51,80,148920,113
54,80,149040,227
58,80,149040,227
51,80,149280,113
46,80,149400,113
39,80,149520,113
34,80,149640,113
35,80,149760,227
47,80,149760,227
47,80,150000,113
54,80,150120,113
59,80,150120,113
35,80,150360,113
30,80,150480,227
42,80,150480,227
42,80,150720,113
49,80,150840,113
54,80,150960,227
58,80,150960,227
42,80,151200,227
54,80,151440,113
42,80,151560,113
37,80,151680,227
49,80,151680,227
49,80,151920,113
38,80,152040,113
50,80,152040,113
46,80,152280,113
39,80,152400,227
51,80,152400,227
46,80,152640,113
51,80,152760,113
54,80,152880,227
58,80,152880,227
51,80,153120,113
46,80,153240,113
39,80,153360,113
34,80,153480,113
32,80,153600,227
44,80,153600,227
51,80,153840,227
56,80,153840,227
59,80,153840,227
51,80,154080,227
56,80,154080,227
59,80,154080,227
44,80,154320,113
39,80,154440,113
34,80,154560,113
41,80,154680,113
46,80,154800,227
53,80,155040,227
58,80,155040,227
46,80,155280,113
34,80,155400,113
35,80,155520,227
47,80,155520,227
54,80,155760,227
59,80,155760,227
63,80,155760,227
54,80,156000,227
59,80,156000,227
63,80,156000,227
47,80,156240,113
35,80,156360,113
37,80,156480,227
49,80,156480,227
56,80,156720,227
61,80,156720,227
65,80,156720,227
56,80,156960,227
61,80,156960,227
65,80,156960,227
61,80,157200,113
49,80,157320,113
37,80,157440,227
49,80,157440,227
61,80,157680,113
56,80,157800,113
53,80,157920,113
49,80,158040,113
44,80,158160,113
37,80,158280,113
37,80,158400,1823
49,80,158400,1823
54,49,162240,1823
58,49,162240,1823
61,49,162240,1823
66,49,162240,1823
53,49,164160,911
56,49,164160,911
61,49,164160,911
65,49,164160,911
58,49,165120,911
61,49,165120,911
65,49,165120,911
70,49,165120,911
51,49,166080,227
58,49,166080,227
61,49,166080,227
66,49,166080,227
58,49,166320,227
61,49,166560,227
70,49,166800,455
66,49,167280,227
61,49,167520,227
58,49,167760,227
49,49,168000,227
56,49,168000,227
61,49,168000,227
65,49,168000,227
56,49,168240,227
61,49,168480,227
65,49,168720,455
61,49,169200,227
53,49,169200,113
54,49,169320,113
56,49,169440,227
53,49,169440,227
49,49,169680,0
49,49,169680,227
47,54,169920,227
54,54,169920,227
59,54,169920,227
59,56,170160,227
66,58,170400,227
71,59,170640,455
66,63,171120,227
59,64,171360,227
54,66,171600,227
37,69,171840,227
49,69,171840,227
53,70,172080,227
56,70,172080,227
61,70,172080,227
53,72,172320,227
56,72,172320,227
61,72,172320,227
53,74,172560,227
56,74,172560,227
61,74,172560,227
37,75,172800,227
49,75,172800,227
53,77,173040,227
56,77,173040,227
61,77,173040,227
61,79,173280,75
56,79,173360,75
53,80,173440,75
49,81,173520,75
44,81,173600,75
37,81,173680,75
30,80,173760,227
42,80,173760,227
42,80,174000,113
49,80,174120,113
54,80,174240,227
58,80,174480,341
61,80,174480,341
54,80,174840,113
42,80,174960,227
58,80,175200,227
61,80,175200,227
54,80,175440,113
42,80,175560,113
29,80,175680,227
41,80,175680,227
41,80,175920,113
49,80,176040,113
56,80,176160,227
61,80,176160,227
65,80,176160,227
41,80,176400,227
34,80,176640,227
46,80,176640,227
46,80,176880,113
53,80,177000,113
58,80,177120,227
61,80,177120,227
58,80,177360,113
46,80,177480,113
39,80,177600,227
51,80,177600,227
39,80,177840,113
46,80,177960,113
51,80,178080,227
58,80,178320,341
63,80,178320,341
63,80,178680,113
51,80,178800,227
58,80,179040,227
63,80,179040,227
51,80,179280,113
39,80,179400,113
37,80,179520,227
49,80,179520,227
37,80,179760,113
44,80,179880,113
49,80,180000,227
53,80,180240,341
56,80,180240,341
49,80,180600,113
37,80,180720,227
56,80,180960,227
61,80,180960,227
49,80,181200,113
37,80,181320,113
35,80,181440,227
47,80,181440,227
35,80,181680,113
42,80,181800,113
47,80,181920,227
54,80,182160,341
59,80,182160,341
61,80,182160,341
59,80,182520,113
47,80,182640,227
54,80,182880,227
59,80,182880,227
63,80,182880,227
47,80,183120,113
35,80,183240,113
30,80,183360,227
42,80,183360,227
42,80,183600,113
49,80,183720,113
54,80,183840,227
58,80,184080,341
61,80,184080,341
54,80,184440,113
42,80,184560,227
58,80,184800,227
61,80,184800,227
54,80,185040,113
42,80,185160,113
35,80,185280,227
47,80,185280,227
47,80,185520,227
54,80,185760,227
59,80,185760,227
61,80,185760,227
47,80,186000,113
35,80,186120,113
37,80,186240,455
49,80,186240,455
42,49,188160,227
49,49,188400,227
56,49,188640,227
58,49,188880,227
61,49,189120,227
63,49,189360,227
68,49,189600,227
73,49,189840,227
42,33,192000,1823
49,33,192000,1823
