note,velocity,position,duration
65,64,20280,120
77,64,20280,120
68,65,20520,120
80,65,20520,120
81,66,20760,120
69,66,20760,120
82,67,21000,120
70,67,21000,120
85,68,21240,120
73,68,21240,120
74,69,21480,120
86,69,21480,120
87,71,21720,120
75,71,21720,120
88,72,21960,120
76,72,21960,120
89,73,22200,120
77,73,22200,120
92,74,22440,120
80,74,22440,120
93,75,22680,120
81,75,22680,120
94,76,22920,120
82,76,22920,120
97,77,23160,120
85,77,23160,120
86,78,23400,120
98,78,23400,120
87,80,23640,120
99,80,23640,120
88,81,23880,120
100,81,23880,120
89,82,24120,120
101,82,24120,120
68,82,26400,240
56,69,26400,240
59,69,26400,240
62,69,26400,240
69,90,26880,240
57,76,26880,240
60,76,26880,240
68,83,27360,120
56,70,27360,120
71,76,27600,120
59,64,27600,120
69,84,27840,240
57,71,27840,240
61,71,27840,240
68,81,28320,240
56,68,28320,240
71,75,28560,120
59,63,28560,120
63,71,28800,120
69,84,28800,120
57,71,28800,120
68,75,29280,120
56,63,29280,120
63,70,29760,960
69,83,29760,960
57,70,29760,960
66,70,30720,240
69,70,30720,240
57,59,30720,240
61,59,30720,240
68,65,30960,240
56,55,30960,240
69,71,31200,240
57,60,31200,240
71,77,31440,240
59,65,31440,240
72,81,31680,960
60,68,31680,960
63,68,31680,960
66,68,31680,960
72,75,32640,240
60,63,32640,240
63,63,32640,240
71,72,32880,240
59,61,32880,240
69,73,33120,240
57,62,33120,240
68,75,33360,240
56,63,33360,240
69,83,33600,720
63,70,33600,720
57,70,33600,720
72,71,34320,120
60,59,34320,120
71,85,34560,240
59,71,34560,240
69,71,34800,192
57,59,34800,192
67,71,35040,120
55,59,35040,120
71,71,35280,120
59,59,35280,120
69,85,35520,240
57,71,35520,240
67,72,35760,192
55,60,35760,192
65,72,36000,120
53,60,36000,120
69,73,36240,120
57,61,36240,120
67,89,36480,240
55,75,36480,240
65,73,36720,192
53,61,36720,192
64,73,36960,120
52,61,36960,120
67,73,37200,120
55,61,37200,120
65,90,37440,240
53,76,37440,240
64,73,37680,192
52,61,37680,192
63,73,37920,120
51,61,37920,120
65,73,38160,120
53,61,38160,120
65,89,38400,240
53,75,38400,240
64,73,38640,192
52,61,38640,192
64,73,38880,120
52,61,38880,120
63,73,39120,120
51,61,39120,120
65,92,39360,240
53,77,39360,240
64,73,39600,192
52,61,39600,192
64,73,39840,120
52,61,39840,120
63,73,40080,120
51,61,40080,120
64,89,40320,960
52,75,40320,960
76,86,41280,240
71,72,41280,240
68,72,41280,240
64,72,41280,240
76,78,41760,160
78,81,41920,160
80,84,42080,160
81,94,42240,240
69,79,42240,240
71,66,42720,120
80,77,42720,120
68,66,42720,120
74,59,42960,120
83,71,42960,120
71,59,42960,120
81,88,43200,240
69,74,43200,240
72,74,43200,240
71,64,43680,120
80,75,43680,120
68,64,43680,120
74,58,43920,120
83,70,43920,120
71,58,43920,120
72,74,44160,120
81,88,44160,120
69,74,44160,120
71,60,44640,120
80,73,44640,120
68,60,44640,120
72,73,45120,960
81,87,45120,960
69,73,45120,960
89,70,46080,240
93,70,46080,240
81,59,46080,240
84,59,46080,240
92,65,46320,240
80,55,46320,240
93,72,46560,240
81,60,46560,240
95,77,46800,240
83,65,46800,240
96,82,47040,960
84,69,47040,960
88,69,47040,960
96,75,48000,240
84,63,48000,240
89,63,48000,240
95,72,48240,240
83,61,48240,240
93,74,48480,240
81,63,48480,240
92,75,48720,240
80,64,48720,240
84,71,48960,720
93,84,48960,720
88,71,48960,720
81,71,48960,720
96,71,49680,240
84,59,49680,240
95,77,49920,240
83,65,49920,240
93,71,50160,192
81,59,50160,192
92,71,50400,120
80,59,50400,120
95,71,50640,120
83,59,50640,120
93,77,50880,240
81,65,50880,240
85,72,51120,192
73,60,51120,192
90,72,51360,120
78,60,51360,120
93,73,51600,120
81,61,51600,120
92,81,51840,240
80,69,51840,240
90,73,52080,192
78,61,52080,192
88,73,52320,120
76,61,52320,120
92,73,52560,120
80,61,52560,120
90,82,52800,240
78,70,52800,240
88,73,53040,192
76,61,53040,192
87,73,53280,120
75,61,53280,120
90,73,53520,120
78,61,53520,120
90,81,53760,240
78,69,53760,240
88,73,54000,192
76,61,54000,192
88,73,54240,120
76,61,54240,120
87,73,54480,120
75,61,54480,120
90,84,54720,240
78,71,54720,240
88,73,54960,192
76,61,54960,192
88,73,55200,120
76,61,55200,120
87,73,55440,120
75,61,55440,120
83,75,55680,960
80,75,55680,960
88,89,55680,960
76,75,55680,960
100,86,56640,240
95,72,56640,240
92,72,56640,240
88,72,56640,240
64,81,57480,120
64,88,57600,240
68,81,58560,240
64,68,58560,240
71,88,59520,1800
63,74,59520,1800
68,74,59520,1800
76,81,61320,120
64,68,61320,120
68,68,61320,120
68,74,61440,840
71,88,61440,840
63,74,61440,840
76,82,62280,120
64,69,62280,120
68,69,62280,120
71,88,62400,840
63,74,62400,840
68,74,62400,840
76,81,63240,120
64,68,63240,120
68,68,63240,120
71,88,63360,1920
63,74,63360,1920
68,74,63360,1920
76,90,65280,180
62,74,65280,180
64,74,65280,180
68,74,65280,180
71,74,65280,180
76,50,66720,480
84,57,67200,240
88,50,67440,240
84,55,67680,240
76,40,67680,240
77,40,67920,120
83,55,68160,240
76,40,68160,480
86,50,68400,240
83,53,68640,240
74,40,68640,240
76,40,68880,120
81,54,69120,240
74,40,69120,480
84,50,69360,240
81,57,69600,240
72,40,69600,240
74,40,69840,120
80,55,70080,240
72,40,70080,480
83,50,70320,240
80,55,70560,240
71,40,70560,240
72,40,70800,120
77,54,71040,240
71,40,71040,480
81,50,71280,240
77,54,71520,240
69,40,71520,240
71,40,71760,120
76,63,72000,720
68,48,72000,240
71,45,72240,240
68,50,72480,240
71,45,72720,240
80,60,72720,240
76,66,72960,720
68,48,72960,240
71,45,73200,240
68,50,73440,240
71,45,73680,240
80,57,73680,240
76,67,73920,240
68,56,73920,240
71,60,74160,120
80,60,74160,120
76,68,74400,240
68,57,74400,240
80,62,74640,120
71,52,74640,120
76,71,74880,120
68,60,74880,480
71,62,75120,120
68,63,75360,480
71,64,75600,120
76,67,75840,120
64,63,75840,480
71,72,76080,120
76,79,76320,120
64,67,76320,120
80,80,76560,120
68,68,76560,120
71,79,76800,960
76,79,76800,960
83,93,76800,960
80,79,76800,960
88,99,77760,240
76,82,77760,240
80,82,77760,240
83,82,77760,240
76,75,78240,160
78,78,78400,160
80,80,78560,160
72,76,78720,240
69,76,78720,240
81,90,78720,240
71,63,79200,120
68,63,79200,120
80,74,79200,120
71,57,79440,120
83,68,79440,120
74,57,79440,120
69,71,79680,240
81,84,79680,240
72,71,79680,240
71,61,80160,120
68,61,80160,120
80,72,80160,120
74,56,80400,120
83,67,80400,120
71,56,80400,120
69,71,80640,120
81,84,80640,120
72,71,80640,120
71,61,81120,120
68,61,81120,120
80,73,81120,120
69,70,81600,960
72,70,81600,960
81,83,81600,960
93,75,82560,120
81,63,82560,120
95,79,82800,120
83,67,82800,120
96,86,83040,720
84,72,83040,720
95,74,83760,120
83,62,83760,120
93,87,84000,720
81,73,84000,720
91,75,84720,120
79,63,84720,120
89,88,84960,720
77,74,84960,720
88,81,85680,120
76,68,85680,120
86,81,85920,120
74,68,85920,120
85,81,86160,120
73,68,86160,120
77,76,86400,240
74,76,86400,240
86,90,86400,240
76,63,86880,120
73,63,86880,120
85,74,86880,120
76,57,87120,120
88,68,87120,120
79,57,87120,120
74,71,87360,240
86,84,87360,240
77,71,87360,240
76,61,87840,120
73,61,87840,120
85,72,87840,120
79,56,88080,120
88,67,88080,120
76,56,88080,120
74,71,88320,120
86,84,88320,120
77,71,88320,120
76,61,88800,120
73,61,88800,120
85,73,88800,120
74,73,89280,960
77,73,89280,960
86,87,89280,960
98,75,90240,120
86,63,90240,120
100,79,90480,120
88,67,90480,120
101,82,90720,720
89,69,90720,720
100,74,91440,120
88,62,91440,120
98,83,91680,720
86,70,91680,720
96,75,92400,120
84,63,92400,120
95,84,92640,720
83,71,92640,720
93,77,93360,120
81,65,93360,120
92,77,93600,120
80,65,93600,120
93,77,93840,120
81,65,93840,120
92,79,94080,120
80,67,94080,120
95,84,94320,120
83,71,94320,120
100,88,94560,240
88,74,94560,240
64,86,95040,960
56,73,95040,960
59,73,95040,960
93,82,96000,120
81,70,96000,120
96,88,96240,120
84,74,96240,120
100,92,96480,240
88,77,96480,240
64,86,96960,960
57,73,96960,960
60,73,96960,960
80,73,97920,120
71,62,97920,120
83,65,98160,120
74,55,98160,120
80,73,98400,120
71,62,98400,120
83,67,98640,120
74,56,98640,120
53,84,98880,480
52,74,99360,120
81,73,99840,120
72,62,99840,120
84,65,100080,120
76,55,100080,120
81,73,100320,120
72,62,100320,120
84,67,100560,120
76,56,100560,120
53,84,100800,480
52,74,101280,120
95,87,101760,264
101,87,101760,264
89,73,101760,264
92,73,101760,264
100,86,102000,264
88,73,102000,264
98,84,102240,264
86,71,102240,264
96,83,102480,264
84,70,102480,264
95,81,102720,264
83,68,102720,264
93,80,102960,264
81,68,102960,264
92,79,103200,264
80,67,103200,264
88,77,103440,264
76,65,103440,264
89,80,103680,264
77,68,103680,264
80,68,103680,264
83,68,103680,264
88,77,103920,264
76,65,103920,264
86,75,104160,264
74,63,104160,264
84,73,104400,264
72,62,104400,264
83,72,104640,264
71,61,104640,264
81,70,104880,264
69,59,104880,264
80,68,105120,264
68,57,105120,264
76,67,105360,240
64,56,105360,240
64,67,105600,240
76,67,105600,240
69,72,105600,240
72,66,105840,120
64,67,106080,240
76,67,106080,240
68,73,106080,240
71,72,106320,120
81,72,106560,240
69,61,106560,240
72,61,106560,240
84,66,106800,120
72,56,106800,120
76,56,106800,120
80,73,107040,240
68,62,107040,240
71,62,107040,240
83,72,107280,120
71,61,107280,120
74,61,107280,120
81,85,107520,240
69,71,107520,240
72,71,107520,240
89,91,108480,240
77,76,108480,240
81,76,108480,240
86,76,108480,240
93,98,109440,960
81,82,109440,960
84,82,109440,960
88,82,109440,960
64,80,111240,120
64,88,111360,240
68,80,112320,240
64,68,112320,240
71,88,113280,1800
63,74,113280,1800
68,74,113280,1800
76,80,115080,120
64,68,115080,120
68,68,115080,120
68,74,115200,840
71,88,115200,840
63,74,115200,840
76,82,116040,120
64,69,116040,120
68,69,116040,120
71,88,116160,840
63,74,116160,840
68,74,116160,840
76,81,117000,120
64,68,117000,120
68,68,117000,120
71,88,117120,1920
63,74,117120,1920
68,74,117120,1920
76,89,119040,180
62,74,119040,180
64,74,119040,180
68,74,119040,180
71,74,119040,180
76,50,120480,480
84,57,120960,240
88,50,121200,240
84,55,121440,240
76,40,121440,240
77,40,121680,120
83,55,121920,240
76,40,121920,480
86,50,122160,240
83,53,122400,240
74,40,122400,240
76,40,122640,120
81,54,122880,240
74,40,122880,480
84,50,123120,240
81,57,123360,240
72,40,123360,240
74,40,123600,120
80,55,123840,240
72,40,123840,480
83,50,124080,240
80,55,124320,240
71,40,124320,240
72,40,124560,120
77,54,124800,240
71,40,124800,480
81,50,125040,240
77,54,125280,240
69,40,125280,240
71,40,125520,120
76,63,125760,720
68,48,125760,240
71,45,126000,240
68,50,126240,240
71,45,126480,240
80,60,126480,240
76,66,126720,720
68,48,126720,240
71,45,126960,240
68,50,127200,240
71,45,127440,240
80,57,127440,240
76,67,127680,240
68,56,127680,240
71,60,127920,120
80,60,127920,120
76,68,128160,240
68,57,128160,240
80,62,128400,120
71,52,128400,120
76,71,128640,120
68,60,128640,480
71,62,128880,120
68,63,129120,480
71,64,129360,120
76,67,129600,120
64,63,129600,480
71,72,129840,120
76,79,130080,120
64,67,130080,120
80,80,130320,120
68,68,130320,120
71,79,130560,960
76,79,130560,960
83,93,130560,960
80,79,130560,960
88,99,131520,240
76,82,131520,240
80,82,131520,240
83,82,131520,240
76,75,132000,160
78,78,132160,160
80,80,132320,160
69,76,132480,240
81,90,132480,240
72,76,132486,240
71,63,132960,120
68,63,132960,120
80,74,132960,120
71,57,133200,120
83,68,133200,120
74,57,133200,120
69,71,133440,240
81,84,133440,240
72,71,133440,240
71,61,133920,120
68,61,133920,120
80,72,133920,120
74,56,134160,120
83,67,134160,120
71,56,134160,120
69,71,134400,120
81,84,134400,120
72,71,134400,120
71,61,134880,120
68,61,134880,120
80,73,134880,120
69,70,135360,960
72,70,135360,960
81,83,135360,960
93,75,136320,120
81,63,136320,120
95,79,136560,120
83,67,136560,120
96,86,136800,720
84,72,136800,720
95,74,137520,120
83,62,137520,120
93,87,137760,720
81,73,137760,720
91,75,138480,120
79,63,138480,120
89,88,138720,720
77,74,138720,720
88,81,139440,120
76,68,139440,120
86,81,139680,120
74,68,139680,120
85,81,139920,120
73,68,139920,120
77,76,140160,240
74,76,140160,240
86,90,140160,240
76,63,140640,120
73,63,140640,120
85,74,140640,120
76,57,140880,120
88,68,140880,120
79,57,140880,120
74,71,141120,240
86,84,141120,240
77,71,141120,240
76,61,141600,120
73,61,141600,120
85,72,141600,120
79,56,141840,120
88,67,141840,120
76,56,141840,120
74,71,142080,120
86,84,142080,120
77,71,142080,120
76,56,142560,120
73,56,142560,120
85,67,142560,120
74,73,143040,960
77,73,143040,960
86,87,143040,960
98,75,144000,120
86,63,144000,120
100,79,144240,120
88,67,144240,120
101,82,144480,720
89,69,144480,720
100,74,145200,120
88,62,145200,120
98,83,145440,720
86,70,145440,720
96,75,146160,120
84,63,146160,120
95,84,146400,720
83,71,146400,720
93,77,147120,120
81,65,147120,120
92,77,147360,120
80,65,147360,120
93,77,147600,120
81,65,147600,120
92,79,147840,120
80,67,147840,120
95,84,148080,120
83,71,148080,120
100,88,148320,240
88,74,148320,240
64,86,148800,960
56,73,148800,960
59,73,148800,960
93,79,149760,120
81,67,149760,120
96,84,150000,120
84,71,150000,120
100,88,150240,240
88,74,150240,240
64,86,150720,960
57,73,150720,960
60,73,150720,960
80,73,151680,120
71,62,151680,120
83,65,151920,120
74,55,151920,120
80,73,152160,120
71,62,152160,120
83,67,152400,120
74,56,152400,120
53,84,152640,480
52,74,153120,120
81,73,153600,120
72,62,153600,120
84,65,153840,120
76,55,153840,120
81,73,154080,120
72,62,154080,120
84,67,154320,120
76,56,154320,120
53,84,154560,480
52,74,155040,120
95,87,155520,264
101,87,155520,264
89,73,155520,264
92,73,155520,264
100,86,155760,264
88,73,155760,264
98,84,156000,264
86,71,156000,264
96,83,156240,264
84,70,156240,264
95,81,156480,264
83,68,156480,264
93,80,156720,264
81,68,156720,264
92,79,156960,264
80,67,156960,264
88,77,157200,264
76,65,157200,264
89,80,157440,264
77,68,157440,264
80,68,157440,264
83,68,157440,264
88,77,157680,264
76,65,157680,264
86,75,157920,264
74,63,157920,264
84,73,158160,264
72,62,158160,264
83,72,158400,264
71,61,158400,264
81,70,158640,264
69,59,158640,264
80,68,158880,264
68,57,158880,264
76,67,159120,240
64,56,159120,240
64,67,159360,240
76,67,159360,240
69,72,159360,240
72,66,159600,120
64,67,159840,240
76,67,159840,240
68,73,159840,240
71,72,160080,120
81,72,160320,240
69,61,160320,240
72,61,160320,240
84,66,160560,120
72,56,160560,120
76,56,160560,120
80,73,160800,240
68,62,160800,240
71,62,160800,240
83,72,161040,120
71,61,161040,120
74,61,161040,120
81,85,161280,240
69,71,161280,240
72,71,161280,240
89,91,162240,240
77,76,162240,240
81,76,162240,240
86,76,162240,240
93,98,163200,960
81,82,163200,960
84,82,163200,960
88,82,163200,960
73,42,164640,240
76,41,164880,240
69,47,165120,960
73,50,166560,240
76,49,166800,240
69,56,167040,960
81,50,168480,240
73,42,168480,480
80,45,168720,120
80,50,168960,240
73,42,168960,480
78,45,169200,120
78,50,169440,240
73,42,169440,480
77,47,169680,120
80,50,169920,240
73,42,169920,480
78,46,170160,120
78,50,170400,240
73,42,170400,480
77,46,170640,120
78,50,170880,240
73,42,170880,240
90,50,172320,240
81,42,172320,480
88,45,172560,120
88,50,172800,240
81,42,172800,480
86,45,173040,120
86,50,173280,240
81,42,173280,480
85,47,173520,120
88,50,173760,240
81,42,173760,480
86,46,174000,120
86,50,174240,240
81,42,174240,480
85,46,174480,120
86,50,174720,240
81,42,174720,240
74,42,176160,240
78,41,176400,240
71,47,176640,960
74,50,178080,240
78,49,178320,240
71,56,178560,960
95,54,180000,120
86,45,180000,120
98,50,180240,120
90,42,180240,120
97,55,180480,120
88,46,180480,120
95,52,180720,120
86,44,180720,120
93,56,180960,120
85,47,180960,120
97,50,181200,120
88,42,181200,120
95,58,181440,120
86,49,181440,120
93,50,181680,120
85,42,181680,120
92,54,181920,120
83,45,181920,120
95,50,182160,120
86,42,182160,120
93,60,182400,120
85,51,182400,120
97,50,182640,120
88,42,182640,120
92,55,182880,120
83,46,182880,120
95,50,183120,120
86,42,183120,120
93,56,183360,120
85,47,183360,120
73,49,184800,120
64,35,184800,240
76,42,184920,120
69,49,185040,120
76,35,185280,240
85,49,185280,120
88,43,185400,120
81,49,185520,120
76,35,186720,240
85,49,186720,120
88,42,186840,120
81,49,186960,120
88,35,187200,240
97,49,187200,120
100,43,187320,120
93,49,187440,120
93,54,187680,160
85,34,187680,480
92,47,187840,160
80,47,188000,80
92,52,188160,160
85,32,188160,480
90,46,188320,160
78,46,188480,80
90,50,188640,160
85,26,188640,480
89,46,188800,160
77,46,188960,80
92,50,189120,160
85,26,189120,480
90,46,189280,160
78,46,189440,80
90,50,189600,160
85,26,189600,480
89,48,189760,160
77,48,189920,80
92,56,190080,120
85,44,190080,240
90,55,190200,120
85,53,190320,120
81,52,190440,120
80,51,190560,120
78,49,190680,120
73,48,190800,120
69,46,190920,120
66,45,191040,120
90,54,191520,160
93,43,191520,480
88,47,191680,160
81,47,191840,80
88,52,192000,160
93,41,192000,480
86,46,192160,160
81,46,192320,80
86,50,192480,160
93,33,192480,480
85,46,192640,160
81,46,192800,80
88,50,192960,160
93,33,192960,480
86,46,193120,160
81,46,193280,80
86,50,193440,160
93,33,193440,480
85,48,193600,160
81,48,193760,80
88,56,193920,160
93,50,193920,240
86,55,194080,160
81,53,194240,160
78,51,194400,120
74,49,194520,120
69,48,194640,120
66,46,194760,120
62,45,194880,120
66,36,196320,240
74,49,196320,120
78,42,196440,120
71,49,196560,120
78,35,196800,240
86,49,196800,120
90,43,196920,120
83,49,197040,120
78,34,198240,240
86,49,198240,120
90,42,198360,120
83,49,198480,120
90,36,198720,240
98,49,198720,120
102,43,198840,120
95,49,198960,120
83,45,199200,120
95,54,199200,120
86,45,199200,120
86,42,199440,120
98,50,199440,120
90,42,199440,120
85,46,199680,120
97,55,199680,120
88,46,199680,120
83,44,199920,120
95,52,199920,120
86,44,199920,120
81,47,200160,120
93,56,200160,120
85,47,200160,120
85,42,200400,120
97,50,200400,120
88,42,200400,120
83,49,200640,120
95,58,200640,120
86,49,200640,120
81,42,200880,120
93,50,200880,120
85,42,200880,120
80,45,201120,120
92,54,201120,120
83,45,201120,120
83,42,201360,120
95,50,201360,120
86,42,201360,120
81,51,201600,120
93,60,201600,120
85,51,201600,120
85,42,201840,120
97,50,201840,120
88,42,201840,120
80,46,202080,120
92,55,202080,120
83,46,202080,120
83,42,202320,120
95,50,202320,120
86,42,202320,120
81,47,202560,120
93,56,202560,120
85,47,202560,120
69,102,203040,180
57,85,203040,180
68,108,203520,180
56,90,203520,180
65,102,204000,180
53,85,204000,180
64,108,204480,180
52,90,204480,180
62,102,204960,180
50,85,204960,180
61,113,205440,720
49,96,205440,720
62,101,206160,240
50,85,206160,240
64,115,206400,240
52,97,206400,240
69,105,207120,120
57,88,207120,120
64,115,207360,720
52,97,207360,720
69,100,208080,120
57,83,208080,120
64,111,208320,720
52,94,208320,720
69,81,209040,120
57,69,209040,120
64,87,209280,120
52,73,209280,120
61,76,209520,120
49,65,209520,120
45,65,209760,120
57,65,209760,120
61,76,210000,120
49,65,210000,120
64,72,210240,120
52,60,210240,120
61,76,210480,120
49,65,210480,120
64,81,210720,120
52,69,210720,120
69,86,210960,120
57,72,210960,120
64,90,211200,960
52,76,211200,960
69,84,212160,120
57,71,212160,120
81,75,212640,240
69,59,212640,240
72,64,212640,240
79,70,213120,240
67,59,213120,480
72,59,213120,480
76,65,213360,240
77,70,213600,240
65,59,213600,480
69,59,213600,480
74,64,213840,240
76,70,214080,240
64,59,214080,480
67,59,214080,480
72,62,214320,240
74,66,214560,240
62,56,214560,480
65,56,214560,480
71,60,214800,240
64,40,215040,240
72,57,215040,120
74,53,215160,120
72,57,215280,120
71,53,215400,120
72,54,215520,120
76,55,215640,120
79,56,215760,120
83,58,215880,80
86,53,215960,40
84,61,216000,120
83,57,216120,120
84,57,216240,120
86,61,216360,120
77,40,216480,240
88,63,216480,120
86,60,216840,120
76,40,216960,240
84,57,216960,120
86,53,217080,120
84,57,217200,120
83,53,217320,120
84,54,217440,120
88,55,217560,120
91,56,217680,120
95,58,217800,80
98,53,217880,40
96,61,217920,120
95,57,218040,120
96,57,218160,120
98,61,218280,120
89,40,218400,240
100,63,218400,120
98,60,218760,120
96,61,218880,120
88,58,219000,120
96,58,219120,120
100,58,219240,120
103,64,219360,120
91,58,219480,120
95,58,219600,120
91,58,219720,120
96,65,219840,120
88,59,219960,120
96,59,220080,120
100,59,220200,120
103,65,220320,120
91,60,220440,120
95,60,220560,120
91,60,220680,120
96,61,220800,120
88,58,220920,120
96,58,221040,120
100,58,221160,120
103,64,221280,120
91,58,221400,120
95,58,221520,120
91,58,221640,120
96,65,221760,120
88,59,221880,120
96,59,222000,120
100,59,222120,120
103,65,222240,120
91,60,222360,120
95,60,222480,120
91,60,222600,120
96,64,222720,120
72,46,223200,120
73,46,223320,120
74,47,223440,120
75,48,223560,120
76,49,223680,120
77,49,223800,120
78,50,223920,120
79,51,224040,120
80,52,224160,120
81,52,224280,120
82,53,224400,120
83,54,224520,120
84,55,224640,120
85,55,224760,120
86,56,224880,120
87,57,225000,120
88,57,225120,120
89,58,225240,120
90,59,225360,120
91,60,225480,120
92,60,225600,96
93,61,225696,96
94,62,225792,96
95,62,225888,96
96,66,225984,96
97,57,226080,120
100,40,226200,120
97,45,226320,120
88,39,226440,120
81,41,226560,120
85,38,226680,120
81,41,226800,120
85,39,226920,120
81,41,227040,120
85,39,227160,120
81,41,227280,120
85,38,227400,120
81,36,227520,120
85,38,227640,120
88,39,227760,120
93,43,227880,120
97,45,228000,120
100,51,228120,120
97,49,228240,120
88,41,228360,120
81,41,228480,120
85,38,228600,120
81,41,228720,120
85,39,228840,120
81,41,228960,120
85,39,229080,120
81,41,229200,120
85,38,229320,120
81,36,229440,120
85,38,229560,120
88,40,229680,120
93,44,229800,120
97,48,229920,120
93,52,230040,120
92,49,230160,120
85,41,230280,120
97,46,230400,120
92,40,230520,120
90,40,230640,120
85,40,230760,120
97,45,230880,120
90,39,231000,120
89,39,231120,120
85,39,231240,120
97,45,231360,120
92,39,231480,120
90,39,231600,120
85,39,231720,120
97,42,231840,120
90,38,231960,120
89,38,232080,120
85,38,232200,120
97,52,232320,120
92,49,232440,120
90,48,232560,120
85,46,232680,120
81,44,232800,120
78,44,232920,120
73,42,233040,120
69,40,233160,120
66,37,233280,120
102,43,233760,120
93,45,233880,120
88,44,234000,120
97,41,234120,120
100,46,234240,120
93,40,234360,120
86,40,234480,120
98,40,234600,120
93,45,234720,120
85,39,234840,120
93,39,234960,120
97,39,235080,120
100,45,235200,120
93,39,235320,120
86,39,235440,120
98,39,235560,120
93,42,235680,120
85,38,235800,120
93,38,235920,120
97,38,236040,120
100,52,236160,120
98,50,236280,120
93,48,236400,120
86,45,236520,120
81,44,236640,120
78,44,236760,120
74,42,236880,120
69,40,237000,120
62,37,237120,120
98,51,237600,120
102,45,237720,120
98,51,237840,120
90,41,237960,120
83,49,238080,120
86,43,238200,120
83,41,238320,120
86,39,238440,120
83,41,238560,120
86,39,238680,120
83,41,238800,120
86,38,238920,120
83,36,239040,120
86,38,239160,120
90,41,239280,120
95,44,239400,120
98,47,239520,120
102,50,239640,120
98,49,239760,120
90,45,239880,120
83,41,240000,120
86,38,240120,120
83,41,240240,120
86,39,240360,120
83,41,240480,120
86,39,240600,120
83,41,240720,120
86,38,240840,120
83,36,240960,120
86,38,241080,120
90,41,241200,120
95,44,241320,120
98,47,241440,120
90,50,241560,120
95,48,241680,120
98,45,241800,120
97,46,241920,120
88,40,242040,120
95,40,242160,120
100,40,242280,120
93,45,242400,120
88,39,242520,120
97,39,242640,120
100,39,242760,120
95,45,242880,120
88,39,243000,120
93,39,243120,120
100,39,243240,120
92,42,243360,120
88,38,243480,120
95,38,243600,120
100,38,243720,120
93,44,243840,120
88,42,243960,120
97,42,244080,120
100,42,244200,120
92,44,244320,120
88,44,244440,120
95,42,244560,120
100,40,244680,120
93,37,244800,120
69,102,245280,180
57,85,245280,180
68,108,245760,180
56,90,245760,180
65,102,246240,180
53,85,246240,180
64,108,246720,180
52,90,246720,180
62,102,247200,180
50,85,247200,180
61,113,247680,720
49,96,247680,720
62,101,248400,240
50,85,248400,240
64,115,248640,240
52,97,248640,240
69,105,249360,120
57,88,249360,120
64,115,249600,720
52,97,249600,720
69,100,250320,120
57,83,250320,120
64,111,250560,720
52,94,250560,720
69,81,251280,120
57,69,251280,120
64,87,251520,120
52,73,251520,120
61,76,251760,120
49,65,251760,120
45,65,252000,120
57,65,252000,120
61,76,252240,120
49,65,252240,120
64,72,252480,120
52,60,252480,120
61,76,252720,120
49,65,252720,120
64,81,252960,120
52,69,252960,120
69,86,253200,120
57,72,253200,120
64,90,253440,960
52,76,253440,960
69,84,254400,120
57,71,254400,120
81,75,254880,240
69,59,254880,240
72,64,254880,240
79,70,255360,240
67,59,255360,480
72,59,255360,480
76,65,255600,240
77,70,255840,240
65,59,255840,480
69,59,255840,480
74,64,256080,240
76,70,256320,240
64,59,256320,480
67,59,256320,480
72,62,256560,240
74,66,256800,240
62,56,256800,480
65,56,256800,480
71,60,257040,240
64,40,257280,240
72,57,257280,120
74,53,257400,120
72,57,257520,120
71,53,257640,120
72,54,257760,120
76,55,257880,120
79,56,258000,120
83,58,258120,80
86,53,258200,40
84,61,258240,120
83,57,258360,120
84,57,258480,120
86,61,258600,120
77,40,258720,240
88,63,258720,120
86,60,259080,120
76,40,259200,240
84,57,259200,120
86,53,259320,120
84,57,259440,120
83,53,259560,120
84,54,259680,120
88,55,259800,120
91,56,259920,120
95,58,260040,80
98,53,260120,40
96,61,260160,120
95,57,260280,120
96,57,260400,120
98,61,260520,120
89,40,260640,240
100,63,260640,120
98,60,261000,120
96,61,261120,120
88,58,261240,120
96,58,261360,120
100,58,261480,120
103,64,261600,120
91,58,261720,120
95,58,261840,120
91,58,261960,120
96,65,262080,120
88,59,262200,120
96,59,262320,120
100,59,262440,120
103,65,262560,120
91,60,262680,120
95,60,262800,120
91,60,262920,120
96,61,263040,120
88,58,263160,120
96,58,263280,120
100,58,263400,120
103,64,263520,120
91,58,263640,120
95,58,263760,120
91,58,263880,120
96,65,264000,120
88,59,264120,120
96,59,264240,120
100,59,264360,120
103,65,264480,120
91,60,264600,120
95,60,264720,120
91,60,264840,120
96,64,264960,120
72,46,265440,120
73,46,265560,120
74,47,265680,120
75,48,265800,120
76,49,265920,120
77,49,266040,120
78,50,266160,120
79,51,266280,120
80,52,266400,120
81,52,266520,120
82,53,266640,120
83,54,266760,120
84,55,266880,120
85,55,267000,120
86,56,267120,120
87,57,267240,120
88,57,267360,120
89,58,267480,120
90,59,267600,120
91,60,267720,120
92,60,267840,96
93,61,267936,96
94,62,268032,96
95,62,268128,96
96,66,268224,96
97,57,268320,120
100,40,268440,120
97,45,268560,120
88,39,268680,120
81,41,268800,120
85,38,268920,120
81,41,269040,120
85,39,269160,120
81,41,269280,120
85,39,269400,120
81,41,269520,120
85,38,269640,120
81,36,269760,120
85,38,269880,120
88,39,270000,120
93,43,270120,120
97,45,270240,120
100,51,270360,120
97,49,270480,120
88,41,270600,120
81,41,270720,120
85,38,270840,120
81,41,270960,120
85,39,271080,120
81,41,271200,120
85,39,271320,120
81,41,271440,120
85,38,271560,120
81,36,271680,120
85,38,271800,120
88,40,271920,120
93,44,272040,120
93,45,272160,120
97,48,272160,120
98,52,272280,120
92,39,272400,120
97,49,272400,120
98,41,272520,120
92,45,272640,120
97,46,272640,120
98,40,272760,120
90,39,272880,120
97,40,272880,120
98,40,273000,120
90,44,273120,120
97,45,273120,120
98,39,273240,120
89,39,273360,120
97,39,273360,120
98,39,273480,120
92,44,273600,120
97,45,273600,120
98,39,273720,120
90,39,273840,120
97,39,273840,120
98,39,273960,120
90,44,274080,120
97,42,274080,120
98,38,274200,120
89,40,274320,120
97,38,274320,120
98,38,274440,120
97,52,274560,120
92,49,274680,120
90,48,274800,120
85,46,274920,120
81,44,275040,120
78,44,275160,120
73,42,275280,120
69,40,275400,120
66,37,275520,120
102,43,276000,120
93,45,276120,120
100,44,276240,120
93,41,276360,120
100,46,276480,120
93,40,276600,120
98,40,276720,120
93,40,276840,120
98,45,276960,120
93,39,277080,120
97,39,277200,120
93,39,277320,120
100,45,277440,120
93,39,277560,120
98,39,277680,120
93,39,277800,120
98,42,277920,120
93,38,278040,120
97,38,278160,120
93,38,278280,120
100,52,278400,120
98,50,278520,120
93,48,278640,120
86,45,278760,120
81,44,278880,120
78,44,279000,120
74,42,279120,120
69,40,279240,120
62,37,279360,120
98,51,279840,120
102,45,279960,120
98,51,280080,120
90,41,280200,120
83,49,280320,120
86,43,280440,120
83,41,280560,120
86,39,280680,120
83,41,280800,120
86,39,280920,120
83,41,281040,120
86,38,281160,120
83,36,281280,120
86,38,281400,120
90,41,281520,120
95,44,281640,120
98,47,281760,120
102,50,281880,120
98,49,282000,120
90,45,282120,120
83,41,282240,120
86,38,282360,120
83,41,282480,120
86,39,282600,120
83,41,282720,120
86,39,282840,120
83,41,282960,120
86,38,283080,120
83,36,283200,120
98,47,283680,120
101,50,283800,120
98,49,283920,120
89,45,284040,120
82,41,284160,120
86,38,284280,120
82,41,284400,120
86,39,284520,120
82,41,284640,120
86,39,284760,120
82,41,284880,120
86,38,285000,120
82,39,285120,120
86,42,285240,120
89,45,285360,120
94,46,285480,120
98,47,285600,120
101,50,285720,120
98,49,285840,120
89,45,285960,120
82,41,286080,120
86,38,286200,120
82,41,286320,120
86,39,286440,120
82,41,286560,120
86,39,286680,120
82,41,286800,120
86,38,286920,120
82,36,287040,120
82,36,287520,90
82,35,287640,90
94,41,287760,90
82,35,287880,90
81,36,288000,90
81,34,288120,90
93,41,288240,90
81,33,288360,90
78,36,288480,90
78,34,288600,90
90,42,288720,90
78,34,288840,90
77,36,288960,90
77,32,289080,90
89,41,289200,90
77,36,289320,90
75,36,289440,90
75,34,289560,90
87,39,289680,90
75,36,289800,90
74,36,289920,90
74,32,290040,90
86,42,290160,90
74,35,290280,90
86,43,290400,160
75,37,290560,160
87,41,290720,160
77,41,290880,120
77,36,291000,120
89,45,291120,120
77,36,291240,120
89,44,291360,160
82,36,291520,160
94,44,291680,160
89,36,291840,160
77,32,292000,160
82,32,292160,160
89,36,292320,160
82,36,292480,160
94,39,292640,160
89,36,292800,160
77,33,292960,160
82,36,293120,160
89,38,293280,160
82,36,293440,160
94,40,293600,160
89,40,293760,160
82,36,293920,160
94,36,294080,160
89,39,294240,160
82,36,294400,160
94,36,294560,160
89,39,294720,160
82,36,294880,160
94,36,295040,160
89,39,295200,160
82,37,295360,160
94,37,295520,160
89,42,295680,120
86,38,296160,120
82,32,296160,120
87,38,296280,120
83,32,296280,120
88,39,296400,120
84,33,296400,120
89,40,296520,120
85,34,296520,120
90,41,296640,120
86,35,296640,120
91,42,296760,120
87,36,296760,120
92,43,296880,120
88,37,296880,120
89,44,297000,120
93,44,297000,120
94,45,297120,120
90,38,297120,120
95,46,297240,120
91,38,297240,120
96,47,297360,120
92,39,297360,120
97,48,297480,120
93,40,297480,120
98,49,297600,120
94,41,297600,120
97,49,297720,120
93,41,297720,120
96,48,297840,120
92,40,297840,120
95,47,297960,120
91,39,297960,120
94,46,298080,120
90,38,298080,120
93,46,298200,120
89,38,298200,120
92,45,298320,120
88,38,298320,120
91,44,298440,120
87,37,298440,120
90,43,298560,120
86,37,298560,120
89,43,298680,120
85,37,298680,120
88,42,298800,120
84,36,298800,120
87,41,298920,120
83,35,298920,120
86,40,299040,120
82,34,299040,120
85,40,299160,120
81,34,299160,120
84,41,299280,120
80,35,299280,120
83,41,299400,120
79,35,299400,120
82,42,299520,120
78,36,299520,120
81,42,299640,120
77,36,299640,120
80,43,299760,120
76,37,299760,120
79,43,299880,120
75,37,299880,120
78,44,300000,120
74,37,300000,120
77,44,300120,120
73,37,300120,120
76,45,300240,120
72,38,300240,120
75,45,300360,120
71,38,300360,120
74,46,300480,120
70,38,300480,120
73,46,300600,120
69,38,300600,120
72,47,300720,120
68,39,300720,120
71,47,300840,120
67,39,300840,120
70,48,300960,120
66,48,300960,120
69,48,301080,120
65,48,301080,120
68,49,301200,120
64,41,301200,120
67,49,301320,120
63,41,301320,120
66,50,301440,120
62,42,301440,120
65,50,301560,120
61,42,301560,120
64,51,301680,120
60,42,301680,120
63,51,301800,120
59,42,301800,120
53,44,305280,159
47,36,305280,159
50,36,305280,159
52,36,305760,240
47,30,305760,480
49,30,305760,240
55,36,306000,240
53,42,306240,159
47,35,306240,159
50,35,306240,159
52,40,306720,240
47,34,306720,480
49,34,306720,240
55,36,306960,240
53,36,307200,159
47,30,307200,159
50,30,307200,159
52,34,307680,159
47,28,307680,159
49,28,307680,158
53,36,308160,960
47,30,308160,960
50,30,308160,960
54,49,311040,158
48,41,311040,158
51,41,311040,158
53,40,311520,240
50,34,311520,480
48,34,311520,240
56,40,311760,240
54,47,312000,158
48,39,312000,158
51,39,312000,158
53,45,312480,240
50,38,312480,480
48,38,312480,240
56,40,312720,240
54,40,312960,158
48,34,312960,158
51,34,312960,158
53,38,313440,158
50,32,313440,158
48,32,313440,158
54,40,313920,960
48,34,313920,960
51,34,313920,960
55,58,316800,158
49,49,316800,158
52,49,316800,158
54,48,317280,240
49,40,317280,480
51,40,317280,240
57,48,317520,240
55,56,317760,158
49,46,317760,158
52,46,317760,158
56,61,318720,158
50,51,318720,158
53,51,318720,158
55,50,319200,240
50,42,319200,480
52,42,319200,240
58,50,319440,240
56,58,319680,158
50,48,319680,158
53,48,319680,158
44,53,320640,120
43,55,320760,120
44,56,320880,120
45,58,321000,120
46,60,321120,120
47,61,321240,120
48,63,321360,120
49,65,321480,120
50,66,321600,120
51,68,321720,120
52,70,321840,120
53,71,321960,120
52,73,322080,120
51,71,322200,120
50,69,322320,120
49,66,322440,120
48,64,322560,120
47,62,322680,120
48,59,322800,120
49,58,322920,120
50,60,323040,120
51,63,323160,120
52,65,323280,120
53,68,323400,120
54,70,323520,120
55,73,323640,120
56,76,323760,120
55,73,323880,120
54,70,324000,120
53,67,324120,120
52,64,324240,120
51,60,324360,120
63,64,324600,120
51,64,324600,120
65,67,324840,120
53,67,324840,120
67,70,325080,120
55,70,325080,120
69,74,325320,120
57,74,325320,120
71,77,325560,120
59,77,325560,116
70,73,325800,120
58,73,325800,120
68,68,326040,120
56,68,326040,120
66,64,326280,120
54,64,326280,120
66,60,326520,120
54,48,326520,120
68,65,326760,120
56,65,326760,120
70,69,327000,120
58,69,327000,120
72,73,327240,120
60,73,327240,120
74,78,327480,120
62,78,327480,116
73,74,327720,120
61,74,327720,120
71,70,327960,120
59,70,327960,120
69,65,328200,120
57,65,328200,120
69,66,328440,120
57,66,328440,120
71,70,328680,120
59,70,328680,120
73,74,328920,120
61,74,328920,120
75,79,329160,120
63,79,329160,120
77,83,329400,120
65,83,329400,120
75,77,329640,120
63,77,329640,120
73,72,329880,120
61,72,329880,120
71,63,330120,120
59,50,330120,120
69,69,330360,120
57,69,330360,120
69,73,330600,120
57,73,330600,120
71,76,330840,120
59,76,330840,120
73,79,331080,120
61,79,331080,120
75,83,331320,120
63,83,331320,120
77,84,331560,120
65,84,331560,120
75,79,331800,120
63,79,331800,120
73,74,332040,120
61,74,332040,120
71,67,332280,120
59,67,332280,120
69,69,332520,120
57,69,332520,120
69,71,332760,120
57,71,332760,120
71,73,333000,120
59,73,333000,120
73,75,333240,120
61,75,333240,120
75,77,333480,120
63,77,333480,120
77,79,333720,120
65,79,333720,116
80,81,333960,120
68,81,333960,120
83,69,334200,120
71,69,334200,120
86,75,334440,120
74,75,334440,120
89,78,334680,120
77,78,334680,120
92,80,334920,120
80,80,334920,120
95,83,335160,120
83,83,335160,120
98,86,335400,120
86,86,335400,120
101,89,335640,120
89,89,335640,120
68,97,336000,240
59,84,336000,240
62,84,336000,240
69,103,336480,240
57,87,336480,240
60,86,336480,240
80,95,336960,120
68,80,336960,120
83,87,337200,120
71,73,337200,120
81,96,337440,240
69,81,337440,240
73,81,337440,240
92,93,337920,120
80,77,337920,120
95,86,338160,120
83,72,338160,120
87,81,338400,240
93,96,338400,240
81,81,338400,240
80,86,338880,240
68,72,338880,240
75,80,339360,960
81,95,339360,960
69,80,339360,960
66,80,340320,240
69,80,340320,240
57,67,340320,240
61,67,340320,240
68,73,340560,240
56,61,340560,240
69,78,340800,240
57,66,340800,240
71,82,341040,240
59,70,341040,240
72,86,341280,960
60,72,341280,960
63,72,341280,960
66,72,341280,960
96,90,342240,240
84,75,342240,240
87,75,342240,240
95,85,342480,240
83,72,342480,240
93,85,342720,240
81,72,342720,240
92,85,342960,240
80,72,342960,240
93,92,343200,720
87,77,343200,720
81,77,343200,720
72,77,343920,120
60,65,343920,120
71,85,344160,240
59,71,344160,240
69,77,344400,192
57,65,344400,192
67,77,344640,120
55,65,344640,120
71,77,344880,120
59,65,344880,120
69,85,345120,240
57,71,345120,240
67,78,345360,192
55,66,345360,192
65,78,345600,120
53,66,345600,120
69,80,345840,120
57,67,345840,120
67,89,346080,240
55,75,346080,240
65,80,346320,192
53,67,346320,192
64,80,346560,120
52,67,346560,120
67,80,346800,120
55,67,346800,120
65,90,347040,240
53,76,347040,240
64,80,347280,192
52,67,347280,192
63,80,347520,120
51,67,347520,120
65,80,347760,120
53,67,347760,120
65,89,348000,240
53,75,348000,240
64,80,348240,192
52,67,348240,192
64,80,348480,120
52,67,348480,120
63,80,348720,120
51,67,348720,120
65,92,348960,240
53,77,348960,240
64,80,349200,192
52,67,349200,192
64,80,349440,120
52,67,349440,120
63,80,349680,120
51,67,349680,120
64,97,349920,960
52,82,349920,960
76,94,350880,240
71,78,350880,240
68,78,350880,240
64,78,350880,240
76,77,351360,160
78,80,351520,160
80,82,351680,160
81,92,351840,240
69,78,351840,240
71,64,352320,120
80,76,352320,120
68,64,352320,120
74,58,352560,120
83,69,352560,120
71,58,352560,120
81,86,352800,240
69,72,352800,240
72,72,352800,240
71,63,353280,120
80,73,353280,120
68,63,353280,120
74,57,353520,120
83,68,353520,120
71,57,353520,120
72,72,353760,120
81,86,353760,120
69,72,353760,120
71,57,354240,120
80,68,354240,120
68,57,354240,120
72,72,354720,960
81,85,354720,960
69,72,354720,960
89,72,355680,240
93,77,355680,240
81,60,355680,240
84,60,355680,240
92,65,355920,240
80,54,355920,240
93,70,356160,240
81,59,356160,240
95,73,356400,240
83,63,356400,240
96,81,356640,960
84,64,356640,960
88,64,356640,960
96,81,357600,240
84,64,357600,240
89,64,357600,240
95,72,357840,240
83,62,357840,240
93,72,358080,240
81,62,358080,240
92,72,358320,240
80,62,358320,240
84,66,358560,720
93,83,358560,720
88,66,358560,720
81,66,358560,720
96,69,359280,120
84,58,359280,120
95,76,359520,240
83,63,359520,240
93,69,359760,192
81,58,359760,192
92,69,360000,120
80,58,360000,120
95,69,360240,120
83,58,360240,120
93,76,360480,240
81,63,360480,240
85,70,360720,192
73,59,360720,192
90,70,360960,120
78,59,360960,120
93,72,361200,120
81,60,361200,120
92,80,361440,240
80,67,361440,240
90,72,361680,192
78,60,361680,192
88,72,361920,120
76,60,361920,120
92,72,362160,120
80,60,362160,120
90,81,362400,240
78,68,362400,240
88,72,362640,192
76,60,362640,192
87,72,362880,120
75,60,362880,120
90,72,363120,120
78,60,363120,120
90,80,363360,240
78,67,363360,240
88,72,363600,192
76,60,363600,192
88,72,363840,120
76,60,363840,120
87,72,364080,120
75,60,364080,120
90,82,364320,240
78,69,364320,240
88,72,364560,192
76,60,364560,192
88,72,364800,120
76,60,364800,120
87,72,365040,120
75,60,365040,120
83,73,365280,960
80,73,365280,960
88,87,365280,960
76,73,365280,960
100,84,366240,240
95,70,366240,240
92,70,366240,240
88,70,366240,240
76,87,367080,120
64,73,367080,120
68,73,367080,120
71,73,367080,120
76,95,367200,240
64,79,367200,240
68,79,367200,240
71,79,367200,240
68,73,368160,240
73,73,368160,240
80,87,368160,240
76,73,368160,240
71,79,369120,1440
83,95,369120,1440
75,79,369120,1440
80,79,369120,1440
71,79,370560,360
76,79,370560,360
80,79,370560,360
83,95,370560,360
88,87,370920,120
76,73,370920,120
71,79,371040,240
80,95,371040,240
83,95,371040,240
75,79,371040,240
80,79,371520,360
71,79,371520,360
76,79,371520,360
83,95,371520,360
76,73,371880,120
88,87,371880,120
71,79,372000,240
75,79,372000,240
80,95,372000,240
83,95,372000,240
76,79,372480,360
80,79,372480,360
71,79,372480,360
83,95,372480,360
88,87,372840,120
76,73,372840,120
71,79,372960,1920
83,95,372960,1920
75,79,372960,1920
80,79,372960,1920
88,99,374880,180
74,84,374880,180
83,84,374880,180
76,84,374880,180
80,84,374880,180
96,79,376800,180
93,79,376800,180
91,60,376980,60
95,60,376980,60
93,59,377040,120
89,59,377040,120
91,58,377160,120
88,58,377160,120
89,57,377280,120
86,57,377280,120
88,56,377400,120
84,56,377400,120
86,54,377520,120
83,54,377520,120
84,53,377640,120
81,53,377640,120
83,51,377760,69
79,51,377760,69
81,51,377829,68
77,51,377829,68
79,50,377897,69
76,50,377897,69
77,50,377965,69
74,50,377965,69
72,49,378034,68
76,49,378034,68
71,48,378102,69
74,48,378102,69
69,47,378171,68
72,47,378171,68
71,47,378240,240
67,47,378240,240
93,79,378720,180
89,79,378720,180
88,60,378900,60
91,60,378900,60
89,59,378960,120
86,59,378960,120
88,58,379080,120
84,58,379080,120
86,57,379200,120
83,57,379200,120
84,55,379320,120
81,55,379320,120
83,54,379440,120
79,54,379440,120
81,52,379560,120
77,52,379560,120
79,50,379680,69
76,50,379680,69
77,49,379749,68
74,49,379749,68
76,48,379817,69
72,48,379817,69
74,47,379885,69
71,47,379885,69
69,46,379954,68
72,46,379954,68
67,45,380022,69
71,45,380022,69
65,43,380091,68
69,43,380091,68
67,42,380160,240
64,42,380160,240
89,79,380640,180
86,79,380640,180
84,61,380820,60
88,61,380820,60
86,60,380880,120
83,60,380880,120
84,59,381000,120
81,59,381000,120
83,58,381120,120
79,58,381120,120
81,57,381240,120
77,57,381240,120
79,55,381360,120
76,55,381360,120
77,54,381480,120
74,54,381480,120
76,53,381600,69
72,53,381600,69
74,52,381669,68
71,52,381669,68
72,51,381737,69
69,51,381737,69
71,50,381805,69
67,50,381805,69
65,49,381874,68
69,49,381874,68
64,47,381942,69
67,47,381942,69
62,46,382011,68
65,46,382011,68
64,45,382080,240
60,45,382080,240
86,79,382560,180
83,79,382560,180
81,59,382740,60
84,59,382740,60
83,58,382800,120
79,58,382800,120
81,57,382920,120
77,57,382920,120
79,56,383040,120
76,56,383040,120
77,54,383160,120
74,54,383160,120
76,53,383280,120
72,53,383280,120
74,52,383400,120
71,52,383400,120
72,51,383520,69
69,51,383520,69
71,50,383589,68
67,50,383589,68
69,49,383657,69
65,49,383657,69
67,49,383725,69
64,49,383725,69
62,48,383794,68
65,48,383794,68
60,47,383862,69
64,47,383862,69
59,45,383931,68
62,45,383931,68
60,44,384000,240
57,44,384000,240
83,79,384480,180
79,79,384480,180
77,62,384660,60
81,62,384660,60
79,61,384720,120
76,61,384720,120
77,59,384840,120
74,59,384840,120
76,57,384960,120
72,57,384960,120
74,56,385080,120
71,56,385080,120
72,54,385200,120
69,54,385200,120
71,53,385320,120
67,53,385320,120
69,50,385440,69
65,50,385440,69
67,49,385509,68
64,49,385509,68
65,48,385577,69
62,48,385577,69
64,47,385645,69
60,47,385645,69
59,46,385714,68
62,46,385714,68
57,45,385782,69
60,45,385782,69
55,44,385851,68
59,44,385851,68
57,43,385920,240
53,43,385920,240
52,73,386560,160
56,75,386720,160
64,77,386880,144
64,72,387040,160
68,72,387200,160
64,77,387360,144
64,74,387520,160
68,74,387680,160
76,77,387840,144
76,74,388000,160
80,74,388160,160
76,77,388320,144
76,73,388480,160
80,75,388640,160
88,77,388800,144
88,72,388960,160
92,72,389120,160
88,77,389280,144
88,74,389440,160
92,74,389600,160
100,77,389760,160
92,74,389920,160
104,74,390080,160
88,77,390240,160
100,73,390400,160
92,75,390560,160
104,78,390720,160
88,74,390880,160
100,74,391040,160
92,84,391200,160
104,79,391360,160
88,79,391520,160
100,87,391680,160
92,83,391840,160
104,83,392000,160
88,91,392160,480
100,98,392640,120
92,83,392640,120
95,83,392640,120
76,81,393360,240
64,68,393360,240
78,86,393600,240
66,73,393600,240
80,90,393840,240
68,76,393840,240
72,79,394080,240
81,93,394080,240
69,79,394080,240
71,63,394560,120
80,74,394560,120
68,63,394560,120
74,57,394800,120
83,68,394800,120
71,57,394800,120
81,84,395040,240
69,71,395040,240
72,71,395040,240
71,61,395520,120
80,72,395520,120
68,61,395520,120
74,56,395760,120
83,67,395760,120
71,56,395760,120
72,71,396000,120
81,84,396000,120
69,71,396000,120
71,56,396480,120
80,67,396480,120
68,56,396480,120
72,70,396960,960
81,83,396960,960
69,70,396960,960
93,75,397920,120
81,63,397920,120
95,79,398160,120
83,67,398160,120
96,82,398400,720
84,69,398400,720
95,74,399120,120
83,62,399120,120
93,83,399360,720
81,70,399360,720
91,75,400080,120
79,63,400080,120
89,84,400320,720
77,71,400320,720
88,81,401040,120
76,68,401040,120
86,81,401280,120
74,68,401280,120
85,81,401520,120
73,68,401520,120
77,76,401760,240
74,76,401760,240
86,90,401760,240
76,63,402240,120
73,63,402240,120
85,74,402240,120
76,57,402480,120
88,68,402480,120
79,57,402480,120
74,71,402720,240
86,84,402720,240
77,71,402720,240
76,61,403200,120
73,61,403200,120
85,72,403200,120
79,56,403440,120
88,67,403440,120
76,56,403440,120
74,71,403680,120
86,84,403680,120
77,71,403680,120
76,56,404160,120
73,56,404160,120
85,67,404160,120
74,70,404640,960
77,70,404640,960
86,83,404640,960
98,75,405600,120
86,63,405600,120
100,79,405840,120
88,67,405840,120
101,82,406080,720
89,69,406080,720
100,74,406800,120
88,62,406800,120
98,83,407040,720
86,70,407040,720
96,75,407760,120
84,63,407760,120
95,84,408000,720
83,71,408000,720
93,77,408720,120
81,65,408720,120
92,77,408960,120
80,65,408960,120
93,77,409200,120
81,65,409200,120
92,79,409440,120
80,67,409440,120
95,84,409680,120
83,71,409680,120
100,88,409920,240
88,74,409920,240
64,86,410400,960
56,73,410400,960
59,73,410400,960
93,79,411360,120
81,67,411360,120
96,84,411600,120
84,71,411600,120
100,88,411840,240
88,74,411840,240
64,86,412320,960
57,73,412320,960
60,73,412320,960
80,73,413280,120
71,62,413280,120
83,65,413520,120
74,55,413520,120
80,73,413760,120
71,62,413760,120
83,67,414000,120
74,56,414000,120
53,84,414240,480
52,74,414720,120
81,73,415200,120
72,62,415200,120
84,65,415440,120
76,55,415440,120
81,73,415680,120
72,62,415680,120
84,67,415920,120
76,56,415920,120
53,84,416160,480
52,74,416640,120
95,87,417120,264
101,87,417120,264
89,73,417120,264
92,73,417120,264
100,86,417360,264
88,73,417360,264
98,84,417600,264
86,71,417600,264
96,83,417840,264
84,70,417840,264
95,81,418080,264
83,68,418080,264
93,80,418320,264
81,68,418320,264
92,79,418560,264
80,67,418560,264
88,77,418800,264
76,65,418800,264
89,80,419040,264
77,68,419040,264
80,68,419040,264
83,68,419040,264
88,77,419280,264
76,65,419280,264
86,75,419520,264
74,63,419520,264
84,73,419760,264
72,62,419760,264
83,72,420000,264
71,61,420000,264
81,70,420240,264
69,59,420240,264
80,68,420480,264
68,57,420480,264
76,67,420720,264
64,56,420720,264
77,71,420960,264
65,60,420960,264
75,64,421200,264
63,54,421200,264
76,69,421440,264
64,58,421440,264
74,65,421680,264
62,55,421680,264
75,69,421920,264
63,58,421920,264
73,66,422160,264
61,56,422160,264
74,73,422400,264
62,62,422400,264
72,69,422640,240
60,58,422640,240
73,77,422880,240
61,64,422880,240
71,72,423120,240
59,60,423120,240
72,83,423360,240
60,71,423360,240
70,78,423600,240
58,67,423600,240
71,89,423840,240
59,74,423840,240
69,86,424080,240
57,73,424080,240
70,96,424320,240
58,81,424320,240
68,94,424560,240
56,79,424560,240
93,108,424800,960
81,91,424800,960
85,91,424800,960
69,88,425280,240
61,74,425280,240
64,74,425280,240
69,88,425520,240
61,74,425520,240
64,74,425520,240
69,97,425760,240
61,82,425760,240
64,82,425760,240
92,101,426240,240
80,84,426240,240
83,84,426240,240
95,101,426480,240
83,84,426480,240
86,84,426480,240
93,108,426720,240
81,92,426720,240
85,92,426720,240
92,101,427200,240
80,84,427200,240
83,84,427200,240
95,101,427440,240
83,84,427440,240
86,84,427440,240
93,108,427680,240
81,92,427680,240
85,92,427680,240
93,103,428160,240
81,86,428160,240
85,86,428160,240
97,105,428640,960
85,89,428640,960
89,89,428640,960
73,88,429120,240
65,74,429120,240
68,74,429120,240
73,88,429360,240
65,74,429360,240
68,74,429360,240
73,97,429600,240
65,82,429600,240
68,82,429600,240
96,101,430080,240
84,84,430080,240
87,84,430080,240
99,101,430320,240
87,84,430320,240
90,84,430320,240
97,108,430560,240
85,92,430560,240
89,92,430560,240
96,101,431040,240
84,84,431040,240
87,84,431040,240
99,101,431280,240
87,84,431280,240
90,84,431280,240
97,108,431520,240
85,92,431520,240
89,92,431520,240
97,103,432000,240
85,86,432000,240
89,86,432000,240
101,105,432480,960
89,89,432480,960
93,89,432480,960
77,88,432960,240
69,74,432960,240
72,74,432960,240
77,88,433200,240
69,74,433200,240
72,74,433200,240
77,97,433440,240
69,82,433440,240
72,82,433440,240
100,92,433920,240
88,77,433920,240
91,77,433920,240
103,92,434160,240
91,77,434160,240
94,77,434160,240
101,99,434400,240
89,84,434400,240
93,84,434400,240
100,92,434880,240
88,77,434880,240
91,77,434880,240
103,92,435120,240
91,77,435120,240
94,77,435120,240
101,99,435360,240
89,84,435360,240
93,84,435360,240
89,94,435840,240
77,79,435840,240
81,79,435840,240
93,82,436320,240
81,70,436320,240
85,70,436320,240
92,76,436560,240
80,65,436560,240
93,82,436800,240
81,70,436800,240
95,76,437040,240
83,65,437040,240
97,82,437280,720
85,70,437280,720
97,80,438000,240
85,68,438000,240
97,82,438240,240
85,70,438240,240
95,76,438480,240
83,65,438480,240
93,82,438720,240
81,70,438720,240
92,76,438960,240
80,65,438960,240
93,82,439200,720
81,70,439200,720
102,80,439920,240
90,68,439920,240
100,82,440160,240
88,70,440160,240
98,76,440400,240
86,65,440400,240
97,82,440640,240
85,70,440640,240
100,76,440880,240
88,65,440880,240
98,82,441120,240
86,70,441120,240
97,76,441360,240
85,65,441360,240
95,82,441600,240
83,70,441600,240
98,76,441840,240
86,65,441840,240
97,82,442080,240
85,70,442080,240
95,76,442320,240
83,65,442320,240
93,82,442560,240
81,70,442560,240
97,76,442800,240
85,65,442800,240
95,82,443040,240
83,70,443040,240
93,76,443280,240
81,65,443280,240
92,82,443520,480
80,70,443520,480
93,82,444000,240
81,70,444000,240
92,76,444240,240
80,65,444240,240
93,82,444480,240
81,70,444480,240
95,76,444720,240
83,65,444720,240
97,82,444960,720
85,70,444960,720
97,80,445680,240
85,68,445680,240
97,82,445920,240
85,70,445920,240
95,76,446160,240
83,65,446160,240
93,82,446400,240
81,70,446400,240
92,76,446640,240
80,65,446640,240
93,82,446880,720
81,70,446880,720
102,80,447600,240
90,68,447600,240
100,82,447840,240
88,70,447840,240
98,76,448080,240
86,65,448080,240
97,82,448320,240
85,70,448320,240
100,76,448560,240
88,65,448560,240
98,82,448800,240
86,70,448800,240
97,76,449040,240
85,65,449040,240
95,82,449280,240
83,70,449280,240
98,76,449520,240
86,65,449520,240
97,82,449760,240
85,70,449760,240
95,76,450000,240
83,65,450000,240
93,82,450240,240
81,70,450240,240
97,76,450480,240
85,65,450480,240
95,82,450720,240
83,70,450720,240
93,76,450960,240
81,65,450960,240
92,82,451200,480
80,70,451200,480
81,69,451680,240
69,58,451680,240
80,60,451920,240
68,51,451920,240
77,71,452160,240
65,60,452160,240
81,64,452400,240
69,54,452400,240
80,75,452640,240
68,63,452640,240
77,71,452880,240
65,60,452880,240
76,77,453120,240
64,65,453120,240
80,73,453360,240
68,62,453360,240
77,81,453600,240
65,69,453600,240
76,72,453840,240
64,61,453840,240
74,84,454080,240
62,71,454080,240
77,75,454320,240
65,63,454320,240
74,88,454560,240
62,74,454560,240
73,83,454800,240
61,70,454800,240
58,76,455040,240
70,90,455040,240
81,69,455520,240
69,58,455520,240
80,60,455760,240
68,51,455760,240
77,71,456000,240
65,60,456000,240
81,64,456240,240
69,54,456240,240
80,75,456480,240
68,63,456480,240
77,71,456720,240
65,60,456720,240
76,77,456960,240
64,65,456960,240
80,73,457200,240
68,62,457200,240
77,81,457440,240
65,69,457440,240
76,72,457680,240
64,61,457680,240
74,84,457920,240
62,71,457920,240
77,75,458160,240
65,63,458160,240
74,88,458400,240
62,74,458400,240
73,83,458640,240
61,70,458640,240
58,76,458880,240
70,90,458880,240
69,64,459360,240
57,54,459360,240
70,64,459600,240
58,54,459600,240
73,65,459840,240
61,55,459840,240
74,66,460080,240
62,56,460080,240
76,67,460320,240
64,56,460320,240
77,68,460560,240
65,57,460560,240
80,69,460800,240
68,58,460800,240
81,70,461040,240
69,59,461040,240
82,71,461280,240
70,60,461280,240
85,72,461520,240
73,61,461520,240
86,73,461760,240
74,62,461760,240
88,74,462000,240
76,62,462000,240
89,74,462240,240
77,62,462240,240
92,75,462480,240
80,63,462480,240
93,76,462720,240
81,64,462720,240
94,77,462960,240
82,65,462960,240
97,78,463200,240
85,66,463200,240
94,77,463440,240
82,65,463440,240
93,75,463680,240
81,63,463680,240
92,74,463920,240
80,62,463920,240
89,72,464160,240
77,61,464160,240
88,70,464400,240
76,59,464400,240
86,69,464640,240
74,58,464640,240
85,67,464880,240
73,56,464880,240
82,67,465120,240
70,56,465120,240
81,69,465360,240
69,58,465360,240
80,71,465600,240
68,60,465600,240
77,73,465840,240
65,62,465840,240
76,75,466080,240
64,63,466080,240
74,77,466320,240
62,65,466320,240
73,79,466560,240
61,67,466560,240
70,81,466800,240
58,68,466800,240
69,64,467040,240
57,54,467040,240
70,64,467280,240
58,54,467280,240
73,65,467520,240
61,55,467520,240
74,66,467760,240
62,56,467760,240
76,67,468000,240
64,56,468000,240
77,68,468240,240
65,57,468240,240
80,69,468480,240
68,58,468480,240
81,70,468720,240
69,59,468720,240
82,73,468960,240
70,61,468960,240
85,74,469200,240
73,63,469200,240
86,76,469440,240
74,65,469440,240
88,79,469680,240
76,66,469680,240
89,79,469920,240
77,66,469920,240
92,81,470160,240
80,68,470160,240
93,84,470400,240
81,71,470400,240
94,86,470640,240
82,72,470640,240
97,97,470880,240
85,97,470880,240
98,98,471840,240
86,83,471840,240
89,83,471840,240
94,83,471840,240
100,102,472800,240
97,86,472800,240
93,86,472800,240
88,86,472800,240
101,116,473760,240
94,97,473760,240
89,97,473760,240
57,37,474720,120
61,44,474727,120
52,37,474727,120
64,45,474840,120
61,47,474960,120
52,39,474960,120
57,39,474960,120
64,48,475080,120
61,49,475200,120
52,41,475200,120
57,41,475200,120
64,50,475320,120
61,52,475440,120
52,44,475440,120
57,44,475440,120
64,53,475560,120
57,45,475680,120
61,54,475687,120
52,45,475687,120
64,56,475800,120
61,55,475920,120
52,46,475920,120
57,46,475920,120
64,53,476040,120
61,52,476160,120
52,44,476160,120
57,44,476160,120
64,50,476280,120
61,49,476400,120
52,41,476400,120
57,41,476400,120
64,47,476520,120
52,85,476685,195
57,85,476685,195
61,85,476685,195
81,93,477480,108
69,79,477480,108
73,79,477480,108
76,79,477480,108
81,111,477600,240
76,93,477600,240
73,93,477600,240
69,93,477600,240
93,93,478440,108
81,79,478440,108
85,79,478440,108
88,79,478440,108
93,111,478560,240
88,93,478560,240
85,93,478560,240
81,93,478560,240
28,27,360,120
39,27,480,120
40,27,600,120
52,35,720,60
28,28,840,120
39,28,960,120
40,28,1080,120
52,35,1200,60
28,27,1320,120
39,27,1440,120
40,27,1560,120
52,35,1680,60
28,27,1800,120
39,27,1920,120
40,27,2040,120
52,35,2160,60
28,28,2280,120
39,28,2400,120
40,28,2520,120
52,35,2640,60
28,27,2760,120
39,27,2880,120
40,27,3000,120
52,35,3120,60
28,28,3240,120
39,28,3360,120
40,28,3480,120
52,35,3600,60
28,27,3720,120
39,27,3840,120
40,27,3960,120
52,35,4080,60
29,28,4200,120
40,28,4320,120
41,28,4440,120
53,35,4560,60
29,27,4680,120
40,27,4800,120
41,27,4920,120
53,35,5040,60
29,28,5160,120
40,28,5280,120
41,28,5400,120
53,35,5520,60
29,27,5640,120
40,28,5760,120
41,28,5880,120
53,35,6000,60
29,27,6120,120
40,27,6240,120
41,27,6360,120
53,36,6480,60
29,29,6600,120
40,29,6720,120
41,29,6840,120
53,38,6960,60
29,29,7080,120
40,30,7200,120
41,31,7320,120
53,39,7440,60
29,30,7560,120
40,32,7680,120
41,32,7800,120
53,41,7920,60
32,32,8040,120
43,32,8160,120
44,32,8280,120
56,43,8400,60
32,34,8520,120
43,34,8640,120
44,34,8760,120
56,44,8880,60
32,34,9000,120
43,35,9120,120
44,36,9240,120
56,46,9360,60
32,35,9480,120
43,37,9600,120
44,37,9720,120
56,48,9840,60
33,37,9960,120
44,37,10080,120
45,37,10200,120
57,49,10320,60
33,39,10440,120
44,39,10560,120
45,40,10680,120
57,51,10800,60
33,39,10920,120
44,41,11040,120
45,41,11160,120
57,53,11280,60
33,40,11400,120
44,42,11520,120
45,42,11640,120
57,55,11760,60
34,42,11880,120
45,42,12000,120
46,43,12120,120
58,57,12240,60
34,45,12360,120
45,45,12480,120
46,45,12600,120
58,58,12720,60
37,45,12840,120
48,46,12960,120
49,47,13080,120
61,60,13200,60
37,46,13320,120
48,48,13440,120
49,48,13560,120
61,62,13680,60
38,47,13800,120
49,48,13920,120
50,48,14040,120
62,63,14160,60
38,50,14280,120
49,50,14400,120
50,51,14520,120
62,65,14640,60
39,50,14760,120
50,52,14880,120
51,52,15000,120
63,67,15120,60
39,51,15240,120
50,53,15360,120
51,53,15480,120
63,68,15600,60
40,52,15720,120
51,53,15840,120
52,53,15960,120
64,70,16080,60
41,55,16200,120
52,56,16320,120
53,56,16440,120
65,72,16560,60
44,55,16680,120
55,57,16800,120
56,57,16920,120
68,73,17040,60
45,56,17160,120
56,58,17280,120
57,59,17400,120
69,75,17520,60
46,58,17640,120
57,58,17760,120
58,58,17880,120
70,77,18000,60
49,61,18120,120
60,61,18240,120
61,62,18360,120
73,79,18480,60
50,60,18600,120
61,63,18720,120
62,63,18840,120
74,81,18960,60
51,62,19080,120
62,64,19200,120
63,64,19320,120
75,82,19440,60
52,63,19560,120
63,65,19680,120
64,66,19800,120
76,84,19920,60
41,56,20160,120
53,56,20160,120
44,58,20400,120
56,58,20400,120
45,59,20640,120
57,59,20640,120
46,61,20880,120
58,61,20880,120
49,63,21120,120
61,63,21120,120
50,64,21360,120
62,64,21360,120
51,66,21600,120
63,66,21600,120
52,68,21840,120
64,68,21840,120
53,69,22080,120
65,69,22080,120
68,71,22320,120
56,71,22320,120
57,73,22560,120
69,73,22560,120
70,74,22800,120
58,74,22800,120
61,76,23040,120
73,76,23040,120
62,78,23280,120
74,78,23280,120
63,79,23520,120
75,79,23520,120
64,81,23760,120
76,81,23760,120
65,83,24000,120
77,83,24000,120
53,65,26400,240
41,55,26400,240
47,55,26400,240
50,55,26400,240
51,70,26880,240
39,59,26880,240
45,59,26880,240
48,59,26880,240
49,69,27840,240
37,58,27840,240
42,58,27840,240
45,58,27840,240
48,69,28800,120
36,58,28800,120
42,58,28800,120
45,58,28800,120
42,69,29760,240
47,69,29760,240
35,58,29760,240
39,58,29760,240
45,59,30720,240
33,50,30720,240
37,50,30720,240
42,50,30720,240
44,64,31680,240
32,54,31680,240
36,54,31680,240
39,54,31680,240
43,62,32640,240
31,52,32640,240
36,52,32640,240
39,52,32640,240
42,66,33600,720
30,55,33600,720
36,55,33600,720
39,55,33600,720
48,51,34320,120
36,46,34320,120
47,58,34560,240
35,48,34560,240
45,49,34800,192
33,40,34800,192
43,49,35040,120
31,40,35040,120
47,49,35280,120
35,40,35280,120
45,58,35520,240
33,48,35520,240
43,50,35760,192
31,42,35760,192
41,50,36000,120
29,42,36000,120
45,50,36240,120
33,42,36240,120
43,60,36480,240
31,52,36480,240
41,50,36720,192
29,42,36720,192
40,50,36960,120
28,42,36960,120
43,50,37200,120
31,42,37200,120
41,63,37440,240
29,52,37440,240
40,50,37680,192
28,42,37680,192
39,50,37920,120
27,42,37920,120
41,50,38160,120
29,42,38160,120
41,60,38400,240
29,52,38400,240
40,50,38640,192
28,42,38640,192
40,50,38880,120
28,42,38880,120
39,50,39120,120
27,42,39120,120
41,64,39360,240
29,53,39360,240
40,50,39600,192
28,42,39600,192
40,50,39840,120
28,42,39840,120
39,50,40080,120
27,42,40080,120
40,61,40320,960
28,52,40320,960
52,59,41280,240
47,50,41280,240
44,50,41280,240
40,50,41280,240
52,70,41760,160
54,74,41920,160
56,78,42080,160
57,73,42240,240
45,61,42240,240
53,58,42720,120
41,49,42720,120
57,73,43200,240
45,61,43200,240
52,58,43680,120
40,49,43680,120
57,73,44160,120
45,61,44160,120
50,60,44640,120
38,51,44640,120
41,51,44640,120
57,73,45120,960
45,61,45120,960
52,61,45120,960
36,55,45960,60
48,65,46020,60
69,65,46080,840
57,55,46080,840
60,55,46080,840
65,55,46080,840
36,60,46920,60
48,61,46980,60
72,75,47040,840
60,63,47040,840
64,63,47040,840
67,63,47040,840
33,58,47880,60
45,58,47940,60
65,62,48000,840
53,52,48000,840
62,52,48000,840
57,52,48000,840
33,60,48840,60
45,61,48900,60
69,68,48960,960
57,57,48960,960
60,57,48960,960
64,57,48960,960
47,69,49920,240
35,58,49920,240
68,59,50400,120
59,50,50400,120
64,50,50400,120
47,66,50880,240
69,61,51360,120
66,52,51360,120
61,52,51360,120
47,66,51840,240
68,58,52320,120
64,49,52320,120
59,49,52320,120
47,66,52800,240
66,56,53280,120
63,47,53280,120
57,47,53280,120
64,66,53760,240
59,55,53760,240
56,55,53760,240
52,55,53760,240
66,56,54240,120
60,47,54240,120
57,47,54240,120
64,65,54720,240
59,54,54720,240
56,54,54720,240
52,54,54720,240
66,58,55200,120
60,49,55200,120
57,49,55200,120
64,69,55680,960
59,58,55680,960
56,58,55680,960
52,58,55680,960
52,67,56640,240
40,56,56640,240
44,56,56640,240
47,56,56640,240
61,69,58560,240
56,69,59520,1800
61,60,61320,120
49,49,61320,120
56,67,61440,840
61,61,62280,120
49,50,62280,120
56,68,62400,840
61,61,63240,120
49,51,63240,120
56,85,63360,240
44,70,63360,240
55,85,63840,240
43,70,63840,240
54,85,64320,240
42,70,64320,240
53,85,64800,240
41,70,64800,240
52,89,65280,180
40,73,65280,180
57,40,67200,240
69,29,67360,160
71,31,67520,160
72,32,67680,160
71,33,67840,160
69,32,68000,160
55,40,68160,240
67,32,68320,160
69,33,68480,160
71,34,68640,160
69,34,68800,160
67,31,68960,160
53,40,69120,240
65,31,69280,160
67,33,69440,160
69,34,69600,160
67,34,69760,160
65,32,69920,160
52,40,70080,240
64,31,70240,160
65,32,70400,160
68,33,70560,160
65,32,70720,160
64,30,70880,160
50,40,71040,240
62,30,71200,160
64,31,71360,160
65,32,71520,160
62,32,71680,160
60,30,71840,160
52,43,72000,480
59,43,72000,240
64,40,72240,240
59,45,72480,240
64,40,72720,240
52,43,72960,480
59,43,72960,240
64,40,73200,240
59,45,73440,240
64,40,73680,240
52,43,73920,480
59,43,73920,240
64,40,74160,120
52,43,74400,480
59,45,74400,240
64,40,74640,120
59,56,74880,120
52,47,74880,120
64,60,75360,120
52,51,75360,120
56,51,75360,120
59,51,75360,120
56,68,75840,120
59,68,75840,120
47,57,75840,120
52,57,75840,120
56,75,76320,120
44,63,76320,120
47,63,76320,120
52,63,76320,120
47,60,76800,960
44,60,76800,960
52,70,76800,960
40,60,76800,960
64,74,77760,240
59,62,77760,240
56,62,77760,240
52,62,77760,240
52,67,78240,160
54,71,78400,160
56,75,78560,160
57,70,78720,240
45,59,78720,240
53,56,79200,120
41,47,79200,120
57,70,79680,240
45,59,79680,240
52,56,80160,120
40,47,80160,120
57,70,80640,120
45,59,80640,120
50,61,81120,120
38,51,81120,120
41,51,81120,120
57,70,81600,960
45,59,81600,960
52,59,81600,960
69,75,83040,120
57,63,83040,120
71,79,83280,120
59,67,83280,120
72,86,83520,720
60,72,83520,720
71,74,84240,120
59,62,84240,120
69,87,84480,720
57,73,84480,720
67,75,85200,120
55,63,85200,120
65,88,85440,720
53,74,85440,720
52,75,86160,120
64,75,86160,120
62,70,86400,240
50,59,86400,240
58,56,86880,120
46,47,86880,120
62,70,87360,240
50,59,87360,240
57,56,87840,120
45,47,87840,120
62,70,88320,120
50,59,88320,120
55,61,88800,120
43,51,88800,120
46,51,88800,120
62,73,89280,960
50,61,89280,960
57,61,89280,960
74,75,90720,120
62,63,90720,120
76,79,90960,120
64,67,90960,120
77,82,91200,720
65,69,91200,720
76,74,91920,120
64,62,91920,120
74,83,92160,720
62,70,92160,720
72,75,92880,120
60,63,92880,120
71,84,93120,720
59,71,93120,720
69,70,93840,120
57,59,93840,120
68,72,94080,120
56,61,94080,120
71,77,94320,120
59,65,94320,120
76,81,94560,240
64,68,94560,240
52,70,95040,960
40,59,95040,960
44,59,95040,960
47,59,95040,960
69,75,96000,120
57,64,96000,120
72,80,96240,120
60,68,96240,120
76,85,96480,240
64,71,96480,240
52,70,96960,960
40,59,96960,960
45,59,96960,960
48,59,96960,960
65,85,97920,480
64,73,98400,120
47,73,98880,120
44,62,98880,120
50,66,99120,120
47,73,99360,120
44,62,99360,120
50,64,99600,120
65,85,99840,480
64,73,100320,120
45,73,100800,120
48,66,101040,120
45,73,101280,120
48,64,101520,120
77,60,101760,264
65,51,101760,264
68,51,101760,264
71,51,101760,264
76,60,102000,264
64,51,102000,264
74,58,102240,264
62,49,102240,264
72,58,102480,264
60,49,102480,264
71,56,102720,264
59,47,102720,264
69,56,102960,264
57,47,102960,264
68,55,103200,264
56,46,103200,264
64,53,103440,264
52,45,103440,264
65,59,103680,264
53,50,103680,264
56,50,103680,264
59,50,103680,264
64,58,103920,264
52,49,103920,264
62,56,104160,264
50,47,104160,264
60,55,104400,264
48,46,104400,264
59,53,104640,264
47,45,104640,264
57,51,104880,264
45,43,104880,264
56,50,105120,264
44,42,105120,264
52,48,105360,240
40,40,105360,240
57,65,105600,240
45,55,105600,240
60,59,105840,120
48,50,105840,120
56,66,106080,240
44,56,106080,240
59,60,106320,120
47,51,106320,120
57,65,106560,240
45,55,106560,240
48,55,106560,240
52,55,106560,240
52,65,107040,240
40,55,107040,240
44,55,107040,240
47,55,107040,240
57,73,107520,240
45,61,107520,240
48,61,107520,240
52,61,107520,240
50,74,108480,240
38,61,108480,240
41,61,108480,240
45,61,108480,240
45,76,109440,960
33,64,109440,960
36,64,109440,960
40,64,109440,960
61,69,112320,240
56,69,113280,1800
61,59,115080,120
49,49,115080,120
56,66,115200,840
61,60,116040,120
49,50,116040,120
56,68,116160,840
61,61,117000,120
49,51,117000,120
56,83,117120,240
44,70,117120,240
55,83,117600,240
43,70,117600,240
54,83,118080,240
42,70,118080,240
53,83,118560,240
41,70,118560,240
52,77,119040,180
40,64,119040,180
57,40,120960,240
69,29,121120,160
71,31,121280,160
72,32,121440,160
71,33,121600,160
69,32,121760,160
55,40,121920,240
67,32,122080,160
69,33,122240,160
71,34,122400,160
69,34,122560,160
67,31,122720,160
53,40,122880,240
65,31,123040,160
67,33,123200,160
69,34,123360,160
67,34,123520,160
65,32,123680,160
52,40,123840,240
64,31,124000,160
65,32,124160,160
68,33,124320,160
65,32,124480,160
64,30,124640,160
50,40,124800,240
62,30,124960,160
64,31,125120,160
65,32,125280,160
62,32,125440,160
60,30,125600,160
52,43,125760,480
59,43,125760,240
64,40,126000,240
59,45,126240,240
64,40,126480,240
52,43,126720,480
59,43,126720,240
64,40,126960,240
59,45,127200,240
64,40,127440,240
52,43,127680,480
59,43,127680,240
64,40,127920,120
52,43,128160,480
59,45,128160,240
64,40,128400,120
59,56,128640,120
52,47,128640,120
64,60,129120,120
52,51,129120,120
56,51,129120,120
59,51,129120,120
56,68,129600,120
59,68,129600,120
47,57,129600,120
52,57,129600,120
56,75,130080,120
44,63,130080,120
47,63,130080,120
52,63,130080,120
47,60,130560,960
44,60,130560,960
52,70,130560,960
40,60,130560,960
64,74,131520,240
59,62,131520,240
56,62,131520,240
52,62,131520,240
52,67,132000,160
54,71,132160,160
56,75,132320,160
57,70,132480,240
45,59,132480,240
53,56,132960,120
41,47,132960,120
57,70,133440,240
45,59,133440,240
52,56,133920,120
40,47,133920,120
57,70,134400,120
45,59,134400,120
50,61,134880,120
38,51,134880,120
41,51,134880,120
57,70,135360,960
45,59,135360,960
52,59,135360,960
69,75,136800,120
57,63,136800,120
71,79,137040,120
59,67,137040,120
72,86,137280,720
60,72,137280,720
71,74,138000,120
59,62,138000,120
69,87,138240,720
57,73,138240,720
67,75,138960,120
55,63,138960,120
65,88,139200,720
53,74,139200,720
52,75,139920,120
64,75,139920,120
62,70,140160,240
50,59,140160,240
58,56,140640,120
46,47,140640,120
62,70,141120,240
50,59,141120,240
57,56,141600,120
45,47,141600,120
62,70,142080,120
50,59,142080,120
55,56,142560,120
43,47,142560,120
46,47,142560,120
62,73,143040,960
50,61,143040,960
57,61,143040,960
74,75,144480,120
62,63,144480,120
76,79,144720,120
64,67,144720,120
77,82,144960,720
65,69,144960,720
76,74,145680,120
64,62,145680,120
74,83,145920,720
62,70,145920,720
72,75,146640,120
60,63,146640,120
71,84,146880,720
59,71,146880,720
69,70,147600,120
57,59,147600,120
68,72,147840,120
56,61,147840,120
71,77,148080,120
59,65,148080,120
76,81,148320,240
64,68,148320,240
52,70,148800,960
40,59,148800,960
44,59,148800,960
47,59,148800,960
69,72,149760,120
57,61,149760,120
72,77,150000,120
60,65,150000,120
76,81,150240,240
64,68,150240,240
52,70,150720,960
40,59,150720,960
45,59,150720,960
48,59,150720,960
65,85,151680,480
64,73,152160,120
47,73,152640,120
44,62,152640,120
50,66,152880,120
47,73,153120,120
44,62,153120,120
50,64,153360,120
65,85,153600,480
64,73,154080,120
45,73,154560,120
48,66,154800,120
45,73,155040,120
48,64,155280,120
77,60,155520,264
65,51,155520,264
68,51,155520,264
71,51,155520,264
76,60,155760,264
64,51,155760,264
74,58,156000,264
62,49,156000,264
72,58,156240,264
60,49,156240,264
71,56,156480,264
59,47,156480,264
69,56,156720,264
57,47,156720,264
68,55,156960,264
56,46,156960,264
64,53,157200,264
52,45,157200,264
65,59,157440,264
53,50,157440,264
56,50,157440,264
59,50,157440,264
64,58,157680,264
52,49,157680,264
62,56,157920,264
50,47,157920,264
60,55,158160,264
48,46,158160,264
59,53,158400,264
47,45,158400,264
57,51,158640,264
45,43,158640,264
56,50,158880,264
44,42,158880,264
52,48,159120,240
40,40,159120,240
57,65,159360,240
45,55,159360,240
60,59,159600,120
48,50,159600,120
56,66,159840,240
44,56,159840,240
59,60,160080,120
47,51,160080,120
57,65,160320,240
45,55,160320,240
48,55,160320,240
52,55,160320,240
52,65,160800,240
40,55,160800,240
44,55,160800,240
47,55,160800,240
57,73,161280,240
45,61,161280,240
48,61,161280,240
52,61,161280,240
50,74,162240,240
38,61,162240,240
41,61,162240,240
45,61,162240,240
45,76,163200,960
33,64,163200,960
36,64,163200,960
40,64,163200,960
61,34,165600,240
52,34,165600,480
64,34,165840,240
45,41,166080,120
61,41,167520,240
52,41,167520,480
64,41,167760,240
45,49,168000,120
71,34,168480,240
61,28,168480,240
65,28,168480,240
69,39,168960,240
66,33,168960,240
71,36,169440,240
61,30,169440,240
68,30,169440,240
69,41,169920,240
66,34,169920,240
71,37,170400,240
61,31,170400,240
68,31,170400,240
69,40,170880,240
66,34,170880,240
57,41,171360,240
61,41,171600,240
54,49,171840,120
79,34,172320,240
69,28,172320,240
73,28,172320,240
78,39,172800,240
74,33,172800,240
79,36,173280,240
69,30,173280,240
76,30,173280,240
78,41,173760,240
74,34,173760,240
79,37,174240,240
69,31,174240,240
76,31,174240,240
78,40,174720,240
74,34,174720,240
66,41,175200,240
69,41,175440,240
62,49,175680,120
62,34,177120,240
54,34,177120,480
66,34,177360,240
47,41,177600,120
62,41,179040,240
54,41,179040,480
66,41,179280,240
47,49,179520,120
52,41,180480,480
69,36,180960,120
64,30,180960,120
61,30,180960,120
64,41,181440,480
80,36,181920,120
76,30,181920,120
71,30,181920,120
81,41,182400,120
69,34,182400,120
76,34,182400,120
80,37,182880,120
76,31,182880,120
81,41,183360,120
69,34,183360,120
76,34,183360,120
61,41,183840,180
64,41,184080,180
57,41,184320,960
45,22,184800,240
52,30,184800,240
45,22,185280,240
52,30,185280,240
61,41,185760,180
64,41,186000,180
57,41,186240,960
45,22,186720,240
52,30,186720,240
45,22,187200,240
52,30,187200,240
71,34,187680,240
61,28,187680,240
65,28,187680,240
69,39,188160,240
66,33,188160,240
71,36,188640,240
61,30,188640,240
68,30,188640,240
69,41,189120,240
66,34,189120,240
71,37,189600,240
61,31,189600,240
68,31,189600,240
69,40,190080,120
66,34,190080,120
79,34,191520,240
69,28,191520,240
73,28,191520,240
78,39,192000,240
74,33,192000,240
79,36,192480,240
69,30,192480,240
76,30,192480,240
78,41,192960,240
74,34,192960,240
79,37,193440,240
69,31,193440,240
76,31,193440,240
78,40,193920,120
74,34,193920,120
62,41,195360,180
66,41,195600,180
59,41,195840,960
47,22,196320,240
54,30,196320,240
47,22,196800,240
54,30,196800,240
62,41,197280,180
66,41,197520,180
59,41,197760,960
47,22,198240,240
54,30,198240,240
47,22,198720,240
54,30,198720,240
40,36,199680,120
52,41,199680,120
64,36,200160,120
61,30,200160,120
57,30,200160,120
52,41,200640,120
68,36,201120,120
64,30,201120,120
59,30,201120,120
61,34,201600,120
69,41,201600,120
57,34,201600,120
64,34,201600,120
68,37,202080,120
64,31,202080,120
61,34,202560,120
69,41,202560,120
57,34,202560,120
64,34,202560,120
45,69,203040,180
33,58,203040,180
44,74,203520,180
32,62,203520,180
41,69,204000,180
29,58,204000,180
40,74,204480,180
28,62,204480,180
38,69,204960,180
26,58,204960,180
37,79,205440,720
25,65,205440,720
38,69,206160,240
26,58,206160,240
40,80,206400,240
28,66,206400,240
45,73,207120,120
33,60,207120,120
40,80,207360,720
28,66,207360,720
45,69,208080,120
33,58,208080,120
40,78,208320,720
28,65,208320,720
45,56,209040,120
33,47,209040,120
40,60,209280,120
28,51,209280,120
37,53,209520,120
25,45,209520,120
21,45,209760,120
33,45,209760,120
37,53,210000,120
25,45,210000,120
40,50,210240,120
28,42,210240,120
37,53,210480,120
25,45,210480,120
40,56,210720,120
28,47,210720,120
45,59,210960,120
33,50,210960,120
40,63,211200,960
28,53,211200,960
45,58,212160,120
33,49,212160,120
41,47,212580,300
48,51,212610,270
57,58,212640,240
40,46,213060,300
48,48,213090,270
55,58,213120,240
41,47,213540,300
48,51,213570,270
57,54,213600,240
43,52,214020,300
52,55,214050,270
60,56,214080,240
43,45,214500,300
53,47,214530,270
59,51,214560,240
48,45,214980,300
55,1,215010,270
60,59,215040,240
64,45,215520,120
67,46,215640,120
72,47,215760,120
74,49,215880,120
76,49,216000,120
55,47,216420,300
65,51,216450,270
71,59,216480,240
60,45,216960,240
67,1,216960,240
72,59,216960,240
76,45,217440,120
79,46,217560,120
84,47,217680,120
86,49,217800,120
88,49,217920,120
67,47,218340,300
77,51,218370,270
83,59,218400,240
84,50,218880,120
72,42,218880,120
76,42,218880,120
67,50,219360,120
83,46,219600,120
77,39,219600,120
74,39,219600,120
72,50,219840,120
84,46,220080,120
79,39,220080,120
76,39,220080,120
67,50,220320,120
83,46,220560,120
77,39,220560,120
74,39,220560,120
72,50,220800,120
84,46,221040,120
76,39,221040,120
79,39,221040,120
67,50,221280,120
83,46,221520,120
77,39,221520,120
74,39,221520,120
72,50,221760,120
84,46,222000,120
79,39,222000,120
76,39,222000,120
67,50,222240,120
83,46,222480,120
77,39,222480,120
74,39,222480,120
72,45,222675,165
76,46,222690,150
79,48,222705,135
84,50,222720,120
64,27,223200,120
65,28,223320,120
66,29,223440,120
67,30,223560,120
68,31,223680,120
69,32,223800,120
70,33,223920,120
71,34,224040,120
72,35,224160,120
73,36,224280,120
74,37,224400,120
75,38,224520,120
76,40,224640,120
77,41,224760,120
78,42,224880,120
79,43,225000,120
80,44,225120,120
81,45,225240,120
82,46,225360,120
83,47,225480,120
84,48,225600,96
85,49,225696,96
86,50,225792,96
87,51,225888,96
88,52,225984,96
73,44,227040,120
76,39,227280,120
69,44,227520,120
57,36,227520,120
64,36,227520,120
73,44,228960,120
76,39,229200,120
69,44,229440,120
57,36,229440,120
64,36,229440,120
73,45,229920,120
83,40,230160,120
77,34,230160,120
78,45,230400,120
81,39,230640,120
73,44,230880,120
83,39,231120,120
80,39,231120,120
78,44,231360,120
81,39,231600,120
73,44,231840,120
83,40,232080,120
80,40,232080,120
81,44,232320,120
78,44,232320,120
69,45,233760,120
79,40,234000,120
76,34,234000,120
74,45,234240,120
78,39,234480,120
81,39,234480,120
69,44,234720,120
79,39,234960,120
76,39,234960,120
74,44,235200,120
78,39,235440,120
81,39,235440,120
69,44,235680,120
79,40,235920,120
76,40,235920,120
78,44,236160,120
74,44,236160,120
74,44,238560,120
78,39,238800,120
71,44,239040,120
59,36,239040,120
66,36,239040,120
74,44,240480,120
78,39,240720,120
71,44,240960,120
59,36,240960,120
66,36,240960,120
78,52,241440,480
86,52,241440,480
76,50,241920,120
85,50,241920,120
74,41,242160,120
83,41,242160,120
73,51,242400,480
81,51,242400,480
74,52,242880,120
83,52,242880,120
73,41,243120,120
81,41,243120,120
71,49,243360,480
80,49,243360,480
69,47,243840,120
81,47,243840,120
73,47,243840,120
64,45,244320,120
68,45,244320,120
71,45,244320,120
76,45,244320,120
57,46,244800,120
61,46,244800,120
64,46,244800,120
69,46,244800,120
45,69,245280,180
33,58,245280,180
44,74,245760,180
32,62,245760,180
41,69,246240,180
29,58,246240,180
40,74,246720,180
28,62,246720,180
38,69,247200,180
26,58,247200,180
37,79,247680,720
25,65,247680,720
38,69,248400,240
26,58,248400,240
40,80,248640,240
28,66,248640,240
45,73,249360,120
33,60,249360,120
40,80,249600,720
28,66,249600,720
45,69,250320,120
33,58,250320,120
40,78,250560,720
28,65,250560,720
45,56,251280,120
33,47,251280,120
40,60,251520,120
28,51,251520,120
37,53,251760,120
25,45,251760,120
21,45,252000,120
33,45,252000,120
37,53,252240,120
25,45,252240,120
40,50,252480,120
28,42,252480,120
37,53,252720,120
25,45,252720,120
40,56,252960,120
28,47,252960,120
45,59,253200,120
33,50,253200,120
40,63,253440,960
28,53,253440,960
45,58,254400,120
33,49,254400,120
41,47,254820,300
48,51,254850,270
57,58,254880,240
40,46,255300,300
48,48,255330,270
55,58,255360,240
41,47,255780,300
48,51,255810,270
57,54,255840,240
43,52,256260,300
52,55,256290,270
60,56,256320,240
43,45,256740,300
53,47,256770,270
59,51,256800,240
48,45,257220,300
55,1,257250,270
60,59,257280,240
64,45,257760,120
67,46,257880,120
72,47,258000,120
74,49,258120,120
76,49,258240,120
55,47,258660,300
65,51,258690,270
71,59,258720,240
60,45,259200,240
67,1,259200,240
72,59,259200,240
76,45,259680,120
79,46,259800,120
84,47,259920,120
86,49,260040,120
88,49,260160,120
67,47,260580,300
77,51,260610,270
83,59,260640,240
84,50,261120,120
72,42,261120,120
76,42,261120,120
67,50,261600,120
83,46,261840,120
77,39,261840,120
74,39,261840,120
72,50,262080,120
84,46,262320,120
79,39,262320,120
76,39,262320,120
67,50,262560,120
83,46,262800,120
77,39,262800,120
74,39,262800,120
72,50,263040,120
84,46,263280,120
79,39,263280,120
76,39,263280,120
67,50,263520,120
83,46,263760,120
77,39,263760,120
74,39,263760,120
72,50,264000,120
84,46,264240,120
79,39,264240,120
76,39,264240,120
67,50,264480,120
83,46,264720,120
77,39,264720,120
74,39,264720,120
72,45,264915,165
76,46,264930,150
79,48,264945,135
84,50,264960,120
64,27,265440,120
65,28,265560,120
66,29,265680,120
67,30,265800,120
68,31,265920,120
69,32,266040,120
70,33,266160,120
71,34,266280,120
72,35,266400,120
73,36,266520,120
74,37,266640,120
75,38,266760,120
76,40,266880,120
77,41,267000,120
78,42,267120,120
79,43,267240,120
80,44,267360,120
81,45,267480,120
82,46,267600,120
83,47,267720,120
84,48,267840,96
85,49,267936,96
86,50,268032,96
87,51,268128,96
88,52,268224,96
73,44,269280,120
76,39,269520,120
69,44,269760,120
57,36,269760,120
64,36,269760,120
73,44,271200,120
76,39,271440,120
69,44,271680,120
57,36,271680,120
64,36,271680,120
73,45,272160,120
83,40,272400,120
77,34,272400,120
78,45,272640,120
81,39,272880,120
73,44,273120,120
83,39,273360,120
80,39,273360,120
78,44,273600,120
81,39,273840,120
73,44,274080,120
83,40,274320,120
80,40,274320,120
81,44,274560,120
78,44,274560,120
69,45,276000,120
79,40,276240,120
73,34,276240,120
74,45,276480,120
78,39,276720,120
81,39,276720,120
69,44,276960,120
79,39,277200,120
76,39,277200,120
74,44,277440,120
78,39,277680,120
81,39,277680,120
69,44,277920,120
79,40,278160,120
76,40,278160,120
78,44,278400,120
74,44,278400,120
74,44,280800,120
78,39,281040,120
71,44,281280,120
62,36,281280,120
66,36,281280,120
74,44,282720,120
78,39,282960,120
71,44,283200,120
62,36,283200,120
66,36,283200,120
74,44,284640,120
77,39,284880,120
70,44,285120,120
62,36,285120,120
65,36,285120,120
74,44,286560,120
77,39,286800,120
70,44,287040,120
62,36,287040,120
65,36,287040,120
70,34,291600,240
65,36,291840,720
77,36,291840,720
70,34,292560,240
65,36,292800,720
77,36,292800,720
70,35,293520,240
65,36,293760,240
77,36,293760,240
70,33,294000,240
65,36,294240,240
77,36,294240,240
70,32,294480,240
65,36,294720,240
77,36,294720,240
70,33,294960,240
65,36,295200,240
77,36,295200,240
70,33,295440,240
65,36,295680,120
77,36,295680,120
62,49,301920,120
58,35,301920,120
61,52,302040,120
57,43,302040,120
60,52,302160,120
56,43,302160,120
59,53,302280,120
55,44,302280,120
58,53,302400,120
54,44,302400,120
57,53,302520,120
53,44,302520,120
56,54,302640,120
52,45,302640,120
55,54,302760,120
51,45,302760,120
54,54,302880,120
50,45,302880,120
53,55,303000,120
49,46,303000,120
52,55,303120,120
48,46,303120,120
51,55,303240,120
47,46,303240,120
50,56,303360,120
46,47,303360,120
49,56,303480,120
45,47,303480,120
48,57,303600,120
44,48,303600,120
47,57,303720,120
43,48,303720,120
46,55,303840,120
42,46,303840,120
45,52,303960,120
41,43,303960,120
44,49,304080,120
40,41,304080,120
45,45,304200,120
39,38,304200,120
46,43,304320,120
38,37,304320,240
47,43,304440,120
48,42,304560,120
37,36,304560,120
49,41,304680,120
36,35,304680,120
50,41,304800,160
35,35,304800,160
51,40,304960,160
34,34,304960,160
52,39,305120,160
33,33,305120,160
32,31,305280,160
38,27,305440,160
41,27,305600,160
31,31,305760,160
37,28,305920,160
40,28,306080,160
32,31,306240,160
38,27,306400,160
41,27,306560,160
32,31,306720,160
37,28,306880,160
40,28,307040,160
32,31,307200,160
38,27,307360,160
41,27,307520,160
32,31,307680,160
37,28,307840,160
40,28,308000,160
32,31,308160,160
38,27,308320,160
41,27,308480,160
38,31,308640,160
35,28,308800,160
32,28,308960,160
29,21,309120,85
28,25,309177,85
29,27,309233,85
30,30,309289,85
31,32,309346,85
32,34,309402,85
33,38,309459,85
34,40,309515,85
35,42,309571,85
36,46,309628,85
37,48,309684,85
38,50,309741,85
37,49,309797,85
36,47,309853,85
35,44,309910,85
34,42,309966,85
33,40,310023,85
32,38,310079,85
33,35,310135,85
34,33,310192,85
35,35,310248,85
36,37,310305,85
37,40,310361,85
38,42,310417,85
39,44,310474,85
40,47,310530,85
41,47,310587,85
40,45,310643,85
39,43,310699,85
38,42,310756,85
37,40,310812,85
36,38,310869,85
35,36,310925,85
34,35,310981,84
33,35,311040,160
39,31,311200,160
42,31,311360,160
33,35,311520,160
38,32,311680,160
41,32,311840,160
33,35,312000,160
39,31,312160,160
42,31,312320,160
33,35,312480,160
38,32,312640,160
41,32,312800,160
33,35,312960,160
39,31,313120,160
42,31,313280,160
33,35,313440,160
38,32,313600,160
41,32,313760,160
33,35,313920,160
39,31,314080,160
42,31,314240,160
39,35,314400,160
36,32,314560,160
33,32,314720,160
30,30,314880,85
29,35,314937,85
30,37,314993,85
31,38,315049,85
32,40,315106,85
33,42,315162,85
34,44,315219,85
35,45,315275,85
36,47,315331,85
37,48,315388,85
38,50,315444,85
39,52,315501,85
38,54,315557,85
37,52,315613,85
36,50,315670,85
35,48,315726,85
34,47,315783,85
33,45,315839,85
34,42,315895,85
35,44,315952,85
36,46,316008,85
37,48,316065,85
38,50,316121,85
39,52,316177,85
40,55,316234,85
41,57,316290,85
42,59,316347,85
41,58,316403,85
40,56,316459,85
39,53,316516,85
38,51,316572,85
37,48,316629,85
36,46,316685,85
35,43,316741,84
34,42,316800,160
40,37,316960,160
43,37,317120,160
34,42,317280,160
39,38,317440,160
42,38,317600,160
34,42,317760,160
40,37,317920,160
43,37,318080,160
40,42,318240,160
37,38,318400,160
34,38,318560,160
35,43,318720,160
41,38,318880,160
44,38,319040,160
35,43,319200,160
40,40,319360,160
43,40,319520,160
35,43,319680,160
41,38,319840,160
44,38,320000,160
41,43,320160,160
38,40,320320,160
35,40,320480,160
32,44,320640,120
31,45,320760,120
32,46,320880,120
33,47,321000,120
34,48,321120,120
35,49,321240,120
36,51,321360,120
37,52,321480,120
38,53,321600,120
39,54,321720,120
40,55,321840,120
41,56,321960,120
40,58,322080,120
39,57,322200,120
38,56,322320,120
37,55,322440,120
36,54,322560,120
35,52,322680,120
36,50,322800,120
37,48,322920,120
38,51,323040,120
39,53,323160,120
40,55,323280,120
41,57,323400,120
42,59,323520,120
43,60,323640,120
44,62,323760,120
43,61,323880,120
42,57,324000,120
41,54,324120,120
40,51,324240,120
39,47,324360,120
50,59,324480,120
38,59,324480,120
52,61,324720,120
40,61,324720,120
54,64,324960,120
42,64,324960,120
56,67,325200,120
44,67,325200,120
58,70,325440,120
46,70,325440,120
59,72,325680,120
47,72,325680,120
57,71,325920,120
45,71,325920,120
55,67,326160,120
43,67,326160,120
53,64,326400,120
41,64,326400,120
55,63,326640,120
43,63,326640,120
57,66,326880,120
45,66,326880,120
59,69,327120,120
47,69,327120,120
61,76,327360,120
49,76,327360,120
62,72,327600,120
50,72,327600,120
60,68,327840,120
48,68,327840,120
58,63,328080,120
46,63,328080,120
56,63,328320,120
44,63,328320,120
58,67,328560,120
46,67,328560,120
60,70,328800,120
48,70,328800,120
62,74,329040,120
50,74,329040,120
64,78,329280,120
52,78,329280,120
64,74,329520,120
52,74,329520,120
62,70,329760,120
50,70,329760,120
60,66,330000,120
48,66,330000,120
58,64,330240,120
46,51,330240,120
56,69,330480,120
44,69,330480,120
58,72,330720,120
46,72,330720,120
60,76,330960,120
48,76,330960,120
62,79,331200,120
50,79,331200,120
64,80,331440,120
52,80,331440,120
64,75,331680,120
52,75,331680,120
62,70,331920,120
50,70,331920,120
60,72,332160,120
48,57,332160,120
58,68,332400,120
46,68,332400,120
56,68,332640,120
44,68,332640,120
58,69,332880,120
46,69,332880,120
60,70,333120,120
48,70,333120,120
62,71,333360,120
50,71,333360,120
64,72,333600,120
52,72,333600,120
65,72,333840,120
53,72,333840,120
62,74,334080,120
50,74,334080,120
59,76,334320,120
47,76,334320,120
56,79,334560,120
44,79,334560,120
53,82,334800,120
41,82,334800,120
50,85,335040,120
38,85,335040,120
47,88,335280,120
35,88,335280,120
44,91,335520,120
32,91,335520,120
53,74,336000,240
41,63,336000,240
51,80,336480,240
39,67,336480,240
54,75,336720,240
42,64,336720,240
57,75,336960,240
45,64,336960,240
49,78,337440,240
37,66,337440,240
54,73,337680,240
42,61,337680,240
57,73,337920,240
45,61,337920,240
48,78,338400,240
36,66,338400,240
54,73,338640,240
42,61,338640,240
57,73,338880,240
45,61,338880,240
47,78,339360,240
35,66,339360,240
51,76,339600,240
39,65,339600,240
54,76,339840,240
42,65,339840,240
45,67,340320,240
33,57,340320,240
49,64,340560,240
37,53,340560,240
54,64,340800,240
42,53,340800,240
44,67,341280,240
32,57,341280,240
48,64,341520,240
36,53,341520,240
51,63,341760,240
39,53,341760,240
43,71,342240,240
31,59,342240,240
48,69,342480,240
36,58,342480,240
51,68,342720,240
39,57,342720,240
42,70,343200,240
30,58,343200,240
45,61,343440,240
33,52,343440,240
36,50,343680,480
48,55,343680,480
47,58,344160,240
35,48,344160,240
45,53,344400,192
33,44,344400,192
43,53,344640,120
31,44,344640,120
47,53,344880,120
35,44,344880,120
45,58,345120,240
33,48,345120,240
43,54,345360,192
31,46,345360,192
41,54,345600,120
29,46,345600,120
45,54,345840,120
33,46,345840,120
43,60,346080,240
31,52,346080,240
41,54,346320,192
29,46,346320,192
40,54,346560,120
28,46,346560,120
43,54,346800,120
31,46,346800,120
41,63,347040,240
29,52,347040,240
40,54,347280,192
28,46,347280,192
39,54,347520,120
27,46,347520,120
41,54,347760,120
29,46,347760,120
41,60,348000,240
29,52,348000,240
40,54,348240,192
28,46,348240,192
40,54,348480,120
28,46,348480,120
39,54,348720,120
27,46,348720,120
41,64,348960,240
29,53,348960,240
40,54,349200,192
28,46,349200,192
40,54,349440,120
28,46,349440,120
39,54,349680,120
27,46,349680,120
40,67,349920,960
28,57,349920,960
52,65,350880,240
47,54,350880,240
44,54,350880,240
40,54,350880,240
52,68,351360,160
54,72,351520,160
56,77,351680,160
57,72,351840,240
45,60,351840,240
53,57,352320,240
41,47,352320,240
57,72,352800,240
45,60,352800,240
52,57,353280,240
40,47,353280,240
57,72,353760,120
45,60,353760,120
50,57,354240,120
38,47,354240,120
41,47,354240,120
57,72,354720,960
45,60,354720,960
52,60,354720,960
36,56,355560,60
48,66,355620,60
69,66,355680,840
57,56,355680,840
60,56,355680,840
65,56,355680,840
36,57,356520,60
48,57,356580,60
72,70,356640,840
60,59,356640,840
64,59,356640,840
67,59,356640,840
33,59,357480,60
45,59,357540,60
65,63,357600,840
53,53,357600,840
62,53,357600,840
57,53,357600,840
33,57,358440,60
45,57,358500,60
69,63,358560,960
57,53,358560,960
60,53,358560,960
64,53,358560,960
47,67,359520,240
35,57,359520,240
68,58,360000,240
59,48,360000,240
64,48,360000,240
47,64,360480,240
69,60,360960,240
66,51,360960,240
61,51,360960,240
47,64,361440,240
68,57,361920,240
64,47,361920,240
59,47,361920,240
47,64,362400,240
66,54,362880,240
63,45,362880,240
57,45,362880,240
64,64,363360,240
59,54,363360,240
56,54,363360,240
52,54,363360,240
66,54,363840,240
60,45,363840,240
57,45,363840,240
64,63,364320,240
59,53,364320,240
56,53,364320,240
52,53,364320,240
66,57,364800,240
60,47,364800,240
57,47,364800,240
64,67,365280,960
59,57,365280,960
56,57,365280,960
52,57,365280,960
52,65,366240,240
40,54,366240,240
44,54,366240,240
47,54,366240,240
52,50,367080,120
56,50,367080,120
59,59,367080,120
52,55,367200,240
56,55,367200,240
59,66,367200,240
49,74,368160,240
52,74,368160,240
56,74,368160,240
61,74,368160,240
56,74,369120,1440
44,61,369120,1440
51,61,369120,1440
49,63,370560,120
37,52,370560,120
44,71,371040,240
56,71,371040,240
61,63,371520,120
49,52,371520,120
56,71,372000,240
68,71,372000,240
61,63,372480,120
49,52,372480,120
56,89,372960,240
44,73,372960,240
55,89,373440,240
43,73,373440,240
54,89,373920,240
42,73,373920,240
53,89,374400,240
41,73,374400,240
47,76,374880,180
44,76,374880,180
52,93,374880,180
40,76,374880,180
76,58,376320,480
64,58,376320,480
69,70,376800,240
72,70,376800,240
76,61,377040,240
69,65,377280,240
72,65,377280,240
59,65,377760,240
62,65,377760,240
67,59,378000,240
59,55,378240,240
62,55,378240,240
69,70,378720,240
65,70,378720,240
72,61,378960,240
69,65,379200,240
65,65,379200,240
59,65,379680,240
55,65,379680,240
64,59,379920,240
59,55,380160,240
55,55,380160,240
62,70,380640,240
65,70,380640,240
69,61,380880,240
62,65,381120,240
65,65,381120,240
55,65,381600,240
52,65,381600,240
60,59,381840,240
55,55,382080,240
52,55,382080,240
59,70,382560,240
62,70,382560,240
65,61,382800,240
62,65,383040,240
59,65,383040,240
48,65,383520,240
52,65,383520,240
57,59,383760,240
48,55,384000,240
52,55,384000,240
59,70,384480,240
55,70,384480,240
62,61,384720,240
59,65,384960,240
55,65,384960,240
45,65,385440,240
48,65,385440,240
53,59,385680,240
48,55,385920,240
45,55,385920,240
52,77,386400,480
44,65,386400,480
40,65,386400,480
47,65,386400,480
50,56,387120,240
52,56,387120,240
59,67,387120,240
58,71,387360,120
52,60,387360,120
49,60,387360,120
48,56,387840,120
57,67,387840,120
52,56,387840,120
52,65,388320,480
47,65,388320,480
56,77,388320,480
64,56,389040,240
62,56,389040,240
71,67,389040,240
61,60,389280,120
64,60,389280,120
70,71,389280,120
60,56,389760,120
64,56,389760,120
69,67,389760,120
59,65,390240,480
64,65,390240,480
68,77,390240,480
76,69,390720,120
71,58,390720,120
74,58,390720,120
64,58,390720,120
76,74,391200,120
64,62,391200,120
73,62,391200,120
70,62,391200,120
69,61,391680,120
76,72,391680,120
72,61,391680,120
64,61,391680,120
64,62,392160,480
76,73,392160,480
71,62,392160,480
68,62,392160,480
80,73,392640,120
71,62,392640,120
83,73,392640,120
76,62,392640,120
52,70,393360,240
40,59,393360,240
54,74,393600,240
42,62,393600,240
56,79,393840,240
44,67,393840,240
57,83,394080,240
45,70,394080,240
53,56,394560,240
41,47,394560,240
57,70,395040,240
45,59,395040,240
40,47,395520,240
52,56,395520,240
45,59,396000,120
57,70,396000,120
38,47,396480,120
50,56,396480,120
41,47,396480,120
57,70,396960,960
52,59,396960,960
45,59,396960,960
57,63,398400,120
69,75,398400,120
71,79,398640,120
59,67,398640,120
72,82,398880,720
60,69,398880,720
71,74,399600,120
59,62,399600,120
69,83,399840,720
57,70,399840,720
55,63,400560,120
67,75,400560,120
53,71,400800,720
65,84,400800,720
64,75,401520,120
52,75,401520,120
50,59,401760,240
62,70,401760,240
46,47,402240,120
58,56,402240,120
50,59,402720,240
62,70,402720,240
45,47,403200,120
57,56,403200,120
50,59,403680,120
62,70,403680,120
46,47,404160,120
55,56,404160,120
43,47,404160,120
50,59,404640,960
57,59,404640,960
62,70,404640,960
62,63,406080,120
74,75,406080,120
64,67,406320,120
76,79,406320,120
65,69,406560,720
77,82,406560,720
64,62,407280,120
76,74,407280,120
74,83,407520,720
62,70,407520,720
72,75,408240,120
60,63,408240,120
71,84,408480,720
59,71,408480,720
69,70,409200,120
57,59,409200,120
56,61,409440,120
68,72,409440,120
59,65,409680,120
71,77,409680,120
64,68,409920,240
76,81,409920,240
40,59,410400,960
52,70,410400,960
44,59,410400,960
47,59,410400,960
69,72,411360,120
57,61,411360,120
72,77,411600,120
60,65,411600,120
76,81,411840,240
64,68,411840,240
52,70,412320,960
45,59,412320,960
48,59,412320,960
40,59,412320,960
65,85,413280,480
64,73,413760,120
47,73,414240,120
44,62,414240,120
50,66,414480,120
44,62,414720,120
47,73,414720,120
50,64,414960,120
65,85,415200,480
64,73,415680,120
45,73,416160,120
48,66,416400,120
45,73,416640,120
48,64,416880,120
65,51,417120,264
77,60,417120,264
71,51,417120,264
68,51,417120,264
76,60,417360,264
64,51,417360,264
74,58,417600,264
62,49,417600,264
72,58,417840,264
60,49,417840,264
71,56,418080,264
59,47,418080,264
69,56,418320,264
57,47,418320,264
68,55,418560,264
56,46,418560,264
64,53,418800,264
52,45,418800,264
59,50,419040,264
65,59,419040,264
53,50,419040,264
56,50,419040,264
52,49,419280,264
64,58,419280,264
62,56,419520,264
50,47,419520,264
60,55,419760,264
48,46,419760,264
59,53,420000,264
47,45,420000,264
57,51,420240,264
45,43,420240,264
44,42,420480,264
56,50,420480,264
40,40,420720,264
52,48,420720,264
41,45,420960,264
53,53,420960,264
39,40,421200,264
51,48,421200,264
40,43,421440,264
52,51,421440,264
50,48,421680,264
38,41,421680,264
51,51,421920,264
39,43,421920,264
49,49,422160,264
37,42,422160,264
50,55,422400,264
38,45,422400,264
48,52,422640,240
36,42,422640,240
49,57,422880,240
37,48,422880,240
47,53,423120,240
35,45,423120,240
48,61,423360,240
36,52,423360,240
34,49,423600,240
46,58,423600,240
35,56,423840,240
47,65,423840,240
33,54,424080,240
45,63,424080,240
34,60,424320,240
46,72,424320,240
32,59,424560,240
44,70,424560,240
33,66,424800,960
40,66,424800,960
45,80,424800,960
49,57,425280,240
57,67,425280,240
52,57,425280,240
57,67,425520,240
52,57,425520,240
49,57,425520,240
49,61,425760,240
52,61,425760,240
57,73,425760,240
50,56,426240,240
62,66,426240,240
53,56,426240,240
57,80,426720,240
49,67,426720,240
45,67,426720,240
52,67,426720,240
41,58,427200,240
50,69,427200,240
38,58,427200,240
40,58,427680,240
45,69,427680,240
33,58,427680,240
37,58,427680,240
42,59,428160,240
54,71,428160,240
37,64,428640,960
44,64,428640,960
49,78,428640,960
61,67,429120,240
56,57,429120,240
53,57,429120,240
53,57,429360,240
56,57,429360,240
61,67,429360,240
61,73,429600,240
56,61,429600,240
53,61,429600,240
66,66,430080,240
57,56,430080,240
54,56,430080,240
49,67,430560,240
53,67,430560,240
56,67,430560,240
61,80,430560,240
42,58,431040,240
45,58,431040,240
54,69,431040,240
37,58,431520,240
49,69,431520,240
44,58,431520,240
41,58,431520,240
46,59,432000,240
58,71,432000,240
45,64,432480,960
53,78,432480,960
41,64,432480,960
48,64,432480,960
65,67,432960,240
57,57,432960,240
60,57,432960,240
65,67,433200,240
57,57,433200,240
60,57,433200,240
57,61,433440,240
60,61,433440,240
65,73,433440,240
70,60,433920,240
61,51,433920,240
58,51,433920,240
53,61,434400,240
57,61,434400,240
60,61,434400,240
65,73,434400,240
46,53,434880,240
49,53,434880,240
58,63,434880,240
41,53,435360,240
53,63,435360,240
48,53,435360,240
45,53,435360,240
38,54,435840,240
50,65,435840,240
33,65,436320,480
45,76,436320,480
64,71,436800,480
57,61,436800,480
61,61,436800,480
52,61,436800,480
45,78,437280,480
33,66,437280,480
65,74,437760,480
53,62,437760,480
57,62,437760,480
61,62,437760,480
45,76,438240,480
33,65,438240,480
66,71,438720,480
54,61,438720,480
62,61,438720,480
45,78,439200,480
33,66,439200,480
60,62,439680,480
54,62,439680,480
63,74,439680,480
33,65,440160,480
45,76,440160,480
56,61,440640,480
64,71,440640,480
52,61,440640,480
45,76,441120,480
33,65,441120,480
59,61,441600,480
56,61,441600,480
52,61,441600,480
64,71,441600,480
33,65,442080,480
45,76,442080,480
64,71,442560,480
57,61,442560,480
52,61,442560,480
61,61,442560,480
33,65,443040,480
45,76,443040,480
59,61,443520,480
52,61,443520,480
64,71,443520,480
33,65,444000,480
45,76,444000,480
61,61,444480,480
64,71,444480,480
57,61,444480,480
52,61,444480,480
45,78,444960,480
33,66,444960,480
65,74,445440,480
61,62,445440,480
57,62,445440,480
53,62,445440,480
45,76,445920,480
33,65,445920,480
62,61,446400,480
54,61,446400,480
66,71,446400,480
33,66,446880,480
45,78,446880,480
60,62,447360,480
54,62,447360,480
63,74,447360,480
45,76,447840,480
33,65,447840,480
56,61,448320,480
52,61,448320,480
64,71,448320,480
45,76,448800,480
33,65,448800,480
59,61,449280,480
56,61,449280,480
64,71,449280,480
52,61,449280,480
33,65,449760,480
45,76,449760,480
64,71,450240,480
61,61,450240,480
52,61,450240,480
57,61,450240,480
33,65,450720,480
45,76,450720,480
64,71,451200,480
59,61,451200,480
52,61,451200,480
57,48,451680,240
45,40,451680,240
56,42,451920,240
44,35,451920,240
41,42,452160,240
53,49,452160,240
45,37,452400,240
57,44,452400,240
44,44,452640,240
56,52,452640,240
53,49,452880,240
41,42,452880,240
52,53,453120,240
40,45,453120,240
56,51,453360,240
44,43,453360,240
53,56,453600,240
41,48,453600,240
40,42,453840,240
52,50,453840,240
38,49,454080,240
50,58,454080,240
41,44,454320,240
53,52,454320,240
38,51,454560,240
50,61,454560,240
37,49,454800,240
49,58,454800,240
46,62,455040,240
34,52,455040,240
57,48,455520,240
45,40,455520,240
56,42,455760,240
44,35,455760,240
53,49,456000,240
41,42,456000,240
57,44,456240,240
45,37,456240,240
56,52,456480,240
44,44,456480,240
53,49,456720,240
41,42,456720,240
52,53,456960,240
40,45,456960,240
44,43,457200,240
56,51,457200,240
41,48,457440,240
53,56,457440,240
40,42,457680,240
52,50,457680,240
38,49,457920,240
50,58,457920,240
41,44,458160,240
53,52,458160,240
38,51,458400,240
50,61,458400,240
49,58,458640,240
37,49,458640,240
46,62,458880,240
34,52,458880,240
45,48,459360,240
33,40,459360,240
46,48,459600,240
34,40,459600,240
37,41,459840,240
49,48,459840,240
38,42,460080,240
50,49,460080,240
40,42,460320,240
52,50,460320,240
41,42,460560,240
53,51,460560,240
44,43,460800,240
56,51,460800,240
45,44,461040,240
57,52,461040,240
46,45,461280,240
58,53,461280,240
49,45,461520,240
61,54,461520,240
50,46,461760,240
62,54,461760,240
52,46,462000,240
64,55,462000,240
53,46,462240,240
65,55,462240,240
56,47,462480,240
68,56,462480,240
57,48,462720,240
69,57,462720,240
58,48,462960,240
70,57,462960,240
61,49,463200,240
73,58,463200,240
70,57,463440,240
58,48,463440,240
69,56,463680,240
57,47,463680,240
68,55,463920,240
56,46,463920,240
65,54,464160,240
53,45,464160,240
52,44,464400,240
64,52,464400,240
50,43,464640,240
62,51,464640,240
49,42,464880,240
61,50,464880,240
46,42,465120,240
58,50,465120,240
57,51,465360,240
45,43,465360,240
56,53,465600,240
44,45,465600,240
53,54,465840,240
41,46,465840,240
52,56,466080,240
40,47,466080,240
50,57,466320,240
38,48,466320,240
37,50,466560,240
49,59,466560,240
46,60,466800,240
34,51,466800,240
45,48,467040,240
33,40,467040,240
46,48,467280,240
34,40,467280,240
49,48,467520,240
37,41,467520,240
38,42,467760,240
50,49,467760,240
40,42,468000,240
52,50,468000,240
41,42,468240,240
53,51,468240,240
44,43,468480,240
56,51,468480,240
45,44,468720,240
57,52,468720,240
58,54,468960,240
46,46,468960,240
61,56,469200,240
49,46,469200,240
62,56,469440,240
50,48,469440,240
64,58,469680,240
52,49,469680,240
65,59,469920,240
53,49,469920,240
68,61,470160,240
56,51,470160,240
69,63,470400,240
57,53,470400,240
58,53,470640,240
70,63,470640,240
61,73,470880,240
73,73,470880,240
50,58,471840,240
53,58,471840,240
58,58,471840,240
62,70,471840,240
57,71,472800,240
49,59,472800,240
45,59,472800,240
52,59,472800,240
50,81,473760,240
41,69,473760,240
46,69,473760,240
38,69,473760,240
33,30,474720,120
40,36,474720,120
37,30,474720,120
45,37,474840,120
33,32,474960,120
40,38,474960,120
37,32,474960,120
45,39,475080,120
40,41,475200,120
37,34,475200,120
33,34,475200,120
45,42,475320,120
40,43,475440,120
37,36,475440,120
33,36,475440,120
45,44,475560,120
40,45,475680,120
33,38,475680,120
37,38,475680,120
45,46,475800,120
40,44,475920,120
33,37,475920,120
37,37,475920,120
45,43,476040,120
33,35,476160,120
37,35,476160,120
40,42,476160,120
45,40,476280,120
33,33,476400,120
40,39,476400,120
37,33,476400,120
45,38,476520,120
33,55,476640,240
37,58,476655,225
40,61,476670,210
45,66,476685,195
57,74,477480,108
49,62,477480,108
45,62,477480,108
52,62,477480,108
57,81,477600,240
49,68,477600,240
45,68,477600,240
52,68,477600,240
33,62,478440,108
37,62,478440,108
40,62,478440,108
45,74,478440,108
33,68,478560,240
37,68,478560,240
40,68,478560,240
45,81,478560,240
