note,velocity,position,duration
46,44,4080,40
49,38,4120,40
46,45,4160,40
49,39,4200,40
46,46,4240,60
49,42,4280,40
46,47,4320,40
49,42,4360,40
46,48,4400,40
49,44,4440,40
46,50,4480,60
49,45,4520,40
46,51,4560,40
49,46,4600,40
46,52,4640,40
49,47,4680,40
46,53,4720,60
49,48,4760,40
46,55,4800,40
49,49,4840,40
46,56,4880,40
49,50,4920,40
46,57,4960,60
49,51,5000,40
46,58,5040,40
49,55,5080,40
46,60,5120,40
49,53,5160,40
46,61,5200,60
49,54,5240,40
46,62,5280,40
49,58,5320,40
46,63,5360,40
49,59,5400,40
46,67,5440,60
49,70,5480,40
46,73,5520,40
49,76,5560,40
46,79,5600,40
49,82,5640,40
46,85,5680,60
49,88,5720,40
45,84,5780,40
48,94,5780,40
46,90,5820,120
49,100,5820,120
68,74,7640,30
56,65,7640,30
56,72,7680,420
68,82,7680,420
61,63,8120,30
73,72,8120,30
61,71,8160,420
73,81,8160,420
59,64,8600,30
71,73,8600,30
59,70,8640,180
71,80,8640,180
58,65,8840,30
70,74,8840,30
58,70,8880,180
70,80,8880,180
56,65,9080,30
68,74,9080,30
56,71,9120,180
68,81,9120,180
67,73,9320,30
55,64,9320,30
55,70,9360,180
67,80,9360,180
56,63,9560,30
68,72,9560,30
56,71,9600,120
68,81,9600,120
50,44,9840,40
47,44,9840,40
56,38,9880,40
50,45,9920,40
47,45,9920,40
56,39,9960,40
50,46,10000,60
47,46,10000,60
56,42,10040,40
50,47,10080,40
47,47,10080,40
56,42,10120,40
50,48,10160,40
47,48,10160,40
56,44,10200,40
50,50,10240,60
47,50,10240,60
56,45,10280,40
50,51,10320,40
47,51,10320,40
56,46,10360,40
50,52,10400,40
47,52,10400,40
56,47,10440,40
50,53,10480,60
47,53,10480,60
56,48,10520,40
50,55,10560,40
47,55,10560,40
56,49,10600,40
50,56,10640,40
47,56,10640,40
56,50,10680,40
50,57,10720,60
47,57,10720,60
56,51,10760,40
50,58,10800,40
47,58,10800,40
56,55,10840,40
50,60,10880,40
47,60,10880,40
56,53,10920,40
50,61,10960,60
47,61,10960,60
56,54,11000,40
50,62,11040,40
47,62,11040,40
56,58,11080,40
50,63,11120,40
47,63,11120,40
56,59,11160,40
50,67,11200,60
47,67,11200,60
56,70,11240,40
50,73,11280,40
47,73,11280,40
56,77,11320,40
50,80,11360,40
47,80,11360,40
56,83,11400,40
50,86,11440,60
47,86,11440,60
56,89,11480,40
49,83,11520,60
55,93,11520,40
46,74,11540,40
47,78,11580,120
50,90,11580,120
56,98,11580,120
62,57,13875,285
68,59,13890,270
71,63,13905,255
76,66,13920,240
62,57,14835,285
68,59,14850,270
71,63,14865,255
76,66,14880,240
62,57,15795,285
66,59,15810,270
69,63,15825,255
76,66,15840,240
62,57,16755,285
68,59,16770,270
71,63,16785,255
76,66,16800,240
64,60,17715,285
69,64,17730,270
73,67,17745,255
81,70,17760,240
64,60,18675,285
69,64,18690,270
73,67,18705,255
81,70,18720,240
66,60,19635,285
72,64,19650,270
75,67,19665,255
81,70,19680,240
64,60,20595,285
69,64,20610,270
73,67,20625,255
81,70,20640,240
61,69,20970,60
57,59,21075,994
61,63,21090,1000
66,64,21105,975
69,77,21120,720
71,69,21840,120
73,69,21960,120
73,73,22080,120
66,68,22200,360
66,63,22980,40
66,78,23040,720
68,65,23760,140
69,65,23880,140
61,70,24000,360
63,64,24360,80
64,64,24420,80
85,73,32040,90
88,73,32040,90
76,61,32040,90
88,83,32160,1320
85,83,32160,1320
76,70,32160,1320
87,73,33480,90
83,73,33480,90
75,61,33480,90
87,83,33600,360
83,83,33600,360
75,70,33600,360
85,73,33960,90
81,73,33960,90
73,61,33960,90
81,80,34080,360
85,80,34080,360
73,68,34080,360
81,73,34440,90
78,73,34440,90
69,61,34440,90
81,80,34560,360
78,80,34560,360
69,68,34560,360
80,75,34920,90
76,75,34920,90
68,63,34920,90
80,83,35040,360
76,83,35040,360
68,70,35040,360
76,73,35400,90
73,73,35400,90
64,61,35400,90
73,80,35520,360
76,80,35520,360
64,68,35520,360
75,73,35880,90
71,73,35880,90
63,61,35880,90
75,81,36000,360
71,81,36000,360
63,69,36000,360
73,78,36360,90
69,78,36360,90
61,66,36360,90
73,82,36480,360
69,82,36480,360
61,70,36480,360
69,80,36840,90
66,80,36840,90
57,67,36840,90
69,85,36960,360
66,85,36960,360
57,72,36960,360
68,81,37320,90
64,81,37320,90
56,68,37320,90
68,86,37440,360
64,86,37440,360
56,73,37440,360
64,83,37800,90
61,83,37800,90
52,70,37800,90
64,89,37920,360
61,89,37920,360
52,74,37920,360
63,84,38280,90
59,84,38280,90
51,71,38280,90
63,91,38400,360
59,91,38400,360
51,77,38400,360
61,86,38760,90
57,86,38760,90
49,72,38760,90
61,91,38880,960
49,78,38880,960
57,78,38880,960
62,86,39840,960
50,72,39840,960
53,72,39840,960
57,72,39840,960
66,95,40800,960
54,80,40800,960
57,80,40800,960
62,80,40800,960
68,98,41760,900
54,63,41760,900
56,70,41760,900
60,70,41760,900
63,78,41760,900
61,65,42680,30
61,72,42720,420
56,61,42720,420
52,61,42720,420
66,70,43160,30
66,71,43200,420
57,60,43200,420
54,60,43200,420
64,69,43640,30
64,70,43680,180
56,59,43680,180
52,59,43680,180
63,67,43880,30
63,70,43920,180
54,59,43920,180
51,59,43920,180
61,68,44120,30
61,71,44160,180
52,60,44160,180
49,60,44160,180
60,68,44360,30
60,70,44400,180
51,59,44400,180
48,59,44400,180
61,70,44600,30
61,71,44640,120
52,60,44640,120
49,60,44640,120
49,70,44820,60
45,66,44880,720
51,66,44880,60
49,61,44940,60
51,66,45000,60
49,61,45060,60
51,66,45120,60
49,60,45180,60
51,66,45240,60
49,61,45300,60
51,66,45360,60
49,61,45420,60
48,66,45480,60
49,61,45540,60
52,71,45600,80
51,65,45680,80
49,65,45760,80
44,70,45840,60
49,70,45840,60
68,65,46520,40
68,72,46560,420
63,61,46560,420
59,61,46560,420
73,70,47000,30
73,71,47040,420
64,60,47040,420
61,60,47040,420
71,69,47480,40
71,70,47520,180
63,59,47520,180
59,59,47520,180
69,67,47720,30
69,70,47760,180
61,59,47760,180
57,59,47760,180
56,68,47960,30
68,68,47960,30
68,71,48000,180
59,60,48000,180
56,60,48000,180
67,68,48200,30
67,70,48240,180
58,59,48240,180
55,59,48240,180
68,70,48440,30
68,71,48480,120
59,60,48480,120
56,60,48480,120
56,63,48660,60
52,59,48720,720
58,59,48720,60
56,54,48780,60
58,59,48840,60
56,54,48900,60
58,59,48960,60
56,54,49020,60
58,59,49080,60
56,54,49140,60
58,59,49200,60
56,54,49260,60
55,59,49320,60
56,54,49380,60
59,63,49440,80
58,58,49520,80
56,58,49600,80
47,56,49680,60
51,56,49680,60
56,56,49680,60
68,52,50280,60
59,48,50370,1950
64,50,50385,1815
68,55,50400,720
69,52,51120,120
71,52,51240,100
71,52,51360,60
64,56,51420,780
63,56,52200,100
63,56,52320,120
57,47,52380,900
66,54,52380,660
64,44,52800,120
66,43,52920,120
68,46,53040,80
66,44,53120,80
64,44,53200,80
56,39,53280,880
64,44,53280,880
68,52,54180,54
56,33,54180,54
64,33,54180,54
68,55,54240,720
56,35,54240,720
64,35,54240,720
69,52,54960,120
66,44,54960,120
57,44,54967,120
71,55,55080,120
59,46,55080,120
68,46,55080,120
73,59,55200,320
61,49,55200,320
69,49,55200,320
73,54,55520,160
61,45,55520,160
69,45,55520,160
73,57,55680,128
61,48,55680,128
69,48,55680,128
71,55,55840,128
59,46,55840,128
68,46,55840,128
70,52,56000,128
58,44,56000,128
67,44,56000,128
71,57,56160,480
59,48,56160,480
68,48,56160,480
64,52,56640,300
56,44,56640,480
61,44,56640,480
63,44,56820,60
64,45,56880,60
66,44,56940,60
64,46,57000,60
63,48,57060,60
63,52,57120,360
57,44,57120,480
64,49,57480,40
68,55,57520,80
66,52,57600,360
57,44,57600,480
64,52,57960,100
64,52,58080,480
56,44,58080,480
76,52,59895,60
64,48,59955,240
68,48,59970,990
73,50,59985,975
76,55,60000,720
78,52,60720,120
80,52,60840,100
80,52,60960,60
73,56,61020,780
72,56,61800,120
72,56,61920,120
60,47,61935,240
66,47,61950,930
68,47,61965,915
75,54,61980,580
73,46,62400,80
75,46,62480,80
76,46,62560,80
75,46,62640,40
75,46,62690,30
73,48,62720,80
72,44,62800,80
64,39,62880,240
68,39,62895,705
73,44,62910,690
65,82,63720,120
59,69,63720,120
61,69,63720,120
66,90,63840,720
57,76,63840,720
61,76,63840,720
81,80,64560,220
69,68,64560,220
78,68,64560,220
78,85,64800,180
81,85,64800,180
69,72,64800,180
80,79,64980,45
68,67,64980,45
76,67,64980,45
80,85,65040,180
68,72,65040,180
76,72,65040,180
78,81,65220,45
66,68,65220,45
75,68,65220,45
78,81,65280,240
66,68,65280,240
75,68,65280,240
75,53,65640,90
66,45,65640,90
69,45,65640,90
76,58,65760,240
64,49,65760,240
68,49,65760,240
75,48,66000,60
76,50,66060,60
78,51,66120,60
76,50,66180,60
75,54,66240,240
68,45,66240,240
73,48,66600,120
75,53,66720,240
66,45,66720,480
68,45,66720,240
68,50,66960,240
80,54,67200,360
66,45,67200,360
72,45,67200,360
72,44,67560,120
73,51,67680,240
64,43,67680,240
68,43,67680,240
72,51,67920,80
73,51,68000,80
75,51,68080,80
73,55,68160,360
63,46,68160,480
68,46,68160,480
72,51,68520,120
73,55,68640,240
61,46,68640,240
68,46,68640,240
61,65,69560,30
61,72,69600,420
56,61,69600,420
52,61,69600,420
66,70,70040,30
66,71,70080,420
57,60,70080,420
54,60,70080,420
64,69,70520,30
64,70,70560,180
56,59,70560,180
52,59,70560,180
62,69,70760,40
54,61,70800,180
62,72,70800,180
57,61,70800,180
61,72,71000,40
61,76,71040,180
56,64,71040,180
52,64,71040,180
60,75,71240,30
60,78,71280,180
54,66,71280,180
51,66,71280,180
61,80,71480,30
61,81,71520,120
52,69,71520,120
49,69,71520,120
45,66,71760,720
49,66,71760,48
51,61,71808,48
49,66,71856,48
51,61,71904,48
49,61,71952,48
48,66,72000,40
49,60,72040,40
51,66,72081,40
52,61,72121,40
54,66,72161,40
56,61,72201,40
57,66,72241,40
56,60,72282,40
54,59,72322,40
52,60,72362,40
51,62,72402,40
49,63,72442,40
48,65,72482,40
49,66,72523,40
51,68,72563,40
52,70,72603,40
51,72,72643,40
49,74,72683,36
44,88,72720,60
49,88,72720,60
68,65,73400,30
68,72,73440,420
63,61,73440,420
59,61,73440,420
73,70,73880,30
73,71,73920,420
64,60,73920,420
61,60,73920,420
71,69,74360,30
71,70,74400,180
63,59,74400,180
59,59,74400,180
69,68,74600,30
69,71,74640,180
64,60,74640,180
61,60,74640,180
68,71,74840,40
68,74,74880,180
63,63,74880,180
59,63,74880,180
67,72,75080,30
67,75,75120,180
58,63,75120,180
61,63,75120,180
68,77,75320,30
68,78,75360,120
59,66,75360,120
56,66,75360,120
52,66,75600,720
56,66,75600,48
57,61,75648,48
56,66,75696,48
57,61,75744,48
56,61,75792,48
55,66,75840,40
56,60,75880,40
58,66,75921,40
59,61,75961,40
61,66,76001,40
63,61,76041,40
64,66,76081,40
63,60,76122,40
61,59,76162,40
59,60,76202,40
58,62,76242,40
56,63,76282,40
55,65,76322,40
56,66,76363,40
58,68,76403,40
59,70,76443,40
58,72,76483,40
56,74,76523,36
47,88,76560,60
51,88,76560,60
56,88,76560,60
80,54,77280,60
83,54,77280,60
92,70,77280,60
80,51,77760,60
83,51,77760,60
92,66,77760,60
80,53,78240,960
83,53,78240,960
92,69,78240,720
90,63,78960,120
88,63,79080,120
81,55,79200,480
83,55,79200,480
87,71,79200,60
88,66,79440,60
81,55,79680,480
83,55,79680,480
90,72,79680,480
80,53,80160,960
83,53,80160,960
92,69,80160,720
90,63,80880,120
88,63,81000,120
81,55,81120,480
83,55,81120,480
87,71,81120,60
88,66,81360,60
81,55,81600,480
83,55,81600,480
90,72,81600,480
80,53,82080,960
83,53,82080,960
92,69,82080,720
90,63,82800,120
88,63,82920,120
81,55,83040,480
83,55,83040,480
87,71,83040,60
88,66,83280,60
81,55,83520,480
83,55,83520,480
90,72,83520,480
80,53,84000,480
83,53,84000,480
92,69,84000,720
90,63,84720,120
88,63,84840,120
83,55,84960,480
87,71,84960,120
88,66,85080,120
90,66,85200,120
92,66,85320,120
80,55,85440,480
90,72,85440,60
88,70,85680,60
80,55,85920,480
87,74,85920,60
88,77,86160,60
90,78,86400,360
88,73,86760,120
80,55,86880,480
87,71,86880,120
88,66,87000,120
90,66,87120,120
92,60,87240,120
80,55,87360,480
90,72,87360,60
88,70,87600,60
80,55,87840,480
87,74,87840,60
88,77,88080,60
90,78,88320,360
88,73,88680,120
80,55,88800,480
87,71,88800,120
88,66,88920,120
90,66,89040,120
92,66,89160,120
80,55,89280,480
90,72,89280,60
88,70,89520,60
80,55,89760,480
87,74,89760,60
85,69,90000,60
84,69,90240,480
80,55,90720,480
87,71,90720,120
88,66,90840,120
90,66,90960,120
92,66,91080,120
85,55,91200,480
81,55,91200,480
90,72,91200,60
88,70,91440,60
81,55,91680,480
85,55,91680,480
87,74,91680,60
88,77,91920,60
81,62,92160,480
85,62,92160,480
90,81,92160,480
88,71,92640,120
80,60,92640,480
87,63,92760,120
85,63,92880,120
88,63,93000,120
87,72,93120,120
80,61,93120,480
85,64,93240,120
84,64,93360,120
87,63,93480,120
80,60,93600,480
85,54,93600,60
87,49,93660,60
85,54,93720,60
87,49,93780,60
85,54,93840,60
87,49,93900,60
85,54,93960,60
87,46,94020,60
85,53,94080,60
87,48,94140,60
85,53,94200,60
87,47,94260,60
85,53,94320,80
87,46,94400,80
85,52,94480,80
84,48,94572,60
85,49,94632,60
86,51,94692,60
87,53,94752,60
88,55,94812,60
89,56,94872,60
90,58,94932,60
91,60,94992,60
92,70,95040,480
80,48,95280,60
83,48,95280,60
92,66,95520,480
80,48,95760,60
83,50,95760,60
92,69,96000,720
80,54,96240,60
83,54,96240,60
80,51,96720,60
83,51,96720,60
90,63,96720,120
88,63,96840,120
87,71,96960,60
81,51,97200,60
83,54,97200,60
88,66,97200,60
90,72,97440,480
81,51,97680,60
83,54,97680,60
92,69,97920,720
80,54,98160,60
83,54,98160,60
80,51,98640,60
83,51,98640,60
90,63,98640,120
88,63,98760,120
87,71,98880,60
81,51,99120,60
83,54,99120,60
88,66,99120,60
90,72,99360,480
81,51,99600,60
83,54,99600,60
92,69,99840,720
80,54,100080,60
83,54,100080,60
80,51,100560,60
83,51,100560,60
90,63,100560,120
88,63,100680,120
87,71,100800,120
88,66,100920,120
80,54,101040,60
90,66,101040,120
92,66,101160,120
90,72,101280,60
80,54,101520,60
88,70,101520,60
87,74,101760,60
80,51,102000,60
88,77,102000,60
90,78,102240,360
80,51,102480,60
88,73,102600,120
87,71,102720,120
88,66,102840,120
80,51,102960,60
90,66,102960,120
92,66,103080,120
90,72,103200,60
80,51,103440,60
88,70,103440,60
87,74,103680,60
80,51,103920,60
85,69,103920,60
84,69,104160,480
80,51,104400,60
87,71,104640,120
88,66,104760,120
80,51,104880,60
90,66,104880,120
92,66,105000,120
90,72,105120,60
85,51,105360,60
80,51,105360,60
88,70,105360,60
87,74,105600,60
81,51,105840,60
85,51,105840,60
88,77,105840,60
90,81,106080,480
81,51,106320,60
85,51,106320,60
88,71,106560,120
87,63,106680,120
79,51,106800,60
82,51,106800,60
85,63,106800,120
88,63,106920,120
87,72,107040,120
85,64,107160,120
80,51,107280,60
84,64,107280,120
87,63,107400,120
85,65,107520,120
80,56,107640,120
92,64,107760,120
80,57,107880,120
85,71,108000,120
80,63,108120,120
92,71,108240,120
80,63,108360,120
85,72,108480,120
80,62,108600,120
92,71,108720,120
80,63,108840,120
85,74,108960,120
80,64,109080,120
92,72,109200,120
80,66,109320,120
85,78,109440,120
80,66,109560,120
92,73,109680,120
80,62,109800,120
85,71,109920,120
80,60,110040,120
92,65,110160,120
80,58,110280,120
85,67,110400,120
80,57,110520,120
92,63,110640,120
80,53,110760,120
85,61,110880,120
80,51,111000,120
92,56,111120,120
80,45,111240,120
92,70,111360,240
83,54,111480,60
95,54,111600,60
83,54,111720,60
92,66,111840,240
83,54,111960,60
95,54,112080,60
83,51,112200,60
92,69,112320,720
83,54,112440,60
95,54,112560,60
83,54,112680,60
90,63,112800,60
83,51,112920,60
88,63,113040,60
83,51,113160,60
87,71,113280,60
83,51,113400,60
95,54,113520,60
88,66,113520,60
83,51,113640,60
90,72,113760,480
83,51,113880,60
95,54,114000,60
83,51,114120,60
92,69,114240,720
83,54,114360,60
95,54,114480,60
83,54,114600,60
90,63,114720,60
83,51,114840,60
95,54,114960,60
88,63,114960,60
83,51,115080,60
87,71,115200,60
83,51,115320,60
95,54,115440,60
88,66,115440,60
83,54,115560,60
90,72,115680,480
83,51,115800,60
95,54,115920,60
83,51,116040,60
92,69,116160,720
83,54,116280,60
95,54,116400,60
83,54,116520,60
90,63,116640,60
83,51,116760,60
88,63,116880,60
95,51,116880,60
83,51,117000,60
87,71,117120,120
88,66,117240,120
90,66,117360,120
92,66,117480,120
90,72,117600,60
83,54,117720,60
92,51,117840,60
88,70,117840,60
83,54,117960,60
87,74,118080,60
80,54,118200,60
92,51,118320,60
88,77,118320,60
80,54,118440,60
90,78,118560,60
80,54,118680,60
92,51,118800,60
88,73,118800,60
80,51,118920,60
87,71,119040,120
88,66,119160,120
90,66,119280,120
92,66,119400,120
90,72,119520,60
80,51,119640,60
92,51,119760,60
88,70,119760,60
80,51,119880,60
87,74,120000,60
80,51,120120,60
92,51,120240,60
85,69,120240,60
80,51,120360,60
84,69,120480,480
80,51,120600,60
92,51,120720,60
80,51,120840,60
87,71,120960,120
88,66,121080,120
90,66,121200,120
92,66,121320,120
90,72,121440,60
80,51,121560,60
92,51,121680,60
88,70,121680,60
80,51,121800,60
87,74,121920,60
80,51,122040,60
92,51,122160,60
85,69,122160,60
80,51,122280,60
84,69,122400,480
80,51,122520,60
92,51,122640,60
80,51,122760,60
88,71,122880,120
87,63,123000,120
80,51,123120,60
92,51,123120,60
85,63,123120,120
88,63,123240,120
87,72,123360,120
85,64,123480,120
92,51,123600,60
84,64,123600,120
80,51,123600,60
87,63,123720,120
85,65,123840,120
80,56,123960,120
92,64,124080,120
80,57,124200,120
85,67,124320,120
80,58,124440,120
92,65,124560,120
80,59,124680,120
85,72,124800,120
80,62,124920,120
92,71,125040,120
80,63,125160,120
85,74,125280,120
80,64,125400,120
92,72,125520,120
80,66,125640,120
92,78,125760,120
85,66,125880,120
97,73,126000,120
85,62,126120,120
92,71,126240,120
85,60,126360,120
97,65,126480,120
85,58,126600,120
92,67,126720,120
85,57,126840,120
97,63,126960,120
85,53,127080,120
92,61,127200,120
85,51,127320,120
97,56,127440,120
85,45,127560,120
92,67,127680,120
85,55,127800,120
97,60,127920,120
85,49,128040,120
92,56,128160,120
85,45,128280,120
97,49,128400,120
85,38,128520,120
92,56,128640,120
85,46,128760,120
97,50,128880,120
85,41,129000,120
92,46,129120,120
85,37,129240,120
97,40,129360,120
85,36,129480,120
92,46,129600,120
85,39,129720,120
97,44,129840,120
85,37,129960,120
92,42,130080,120
85,35,130200,120
97,39,130320,120
85,31,130440,120
92,39,130560,120
85,31,130680,120
97,31,130800,240
73,47,132420,40
73,57,132480,120
85,50,132600,90
85,58,132720,120
83,51,132840,90
83,56,132960,120
81,45,133080,90
81,49,133200,120
80,45,133320,120
83,56,133440,120
81,48,133680,120
80,56,133920,480
73,60,134400,120
83,60,134400,120
81,45,134520,100
81,55,134640,30
83,55,134670,30
81,60,134700,120
80,45,134760,100
80,55,134880,30
81,55,134910,30
80,61,134940,60
78,45,135000,100
78,52,135120,30
80,52,135150,30
78,58,135180,60
77,45,135240,120
80,58,135360,120
68,39,135570,150
73,43,135585,135
77,49,135600,120
73,53,135840,460
73,47,136260,40
73,57,136320,120
85,50,136440,90
85,58,136560,120
83,51,136680,90
83,56,136800,120
81,45,136920,90
81,49,137040,120
80,45,137160,120
83,56,137280,120
81,48,137520,120
80,56,137760,480
81,52,138180,30
83,52,138210,30
81,60,138240,120
80,45,138360,90
73,49,138480,240
78,60,138480,120
81,45,138600,90
80,53,138660,30
81,53,138690,30
80,61,138720,120
78,45,138840,120
77,58,138960,120
73,49,138960,240
80,45,139080,120
78,58,139200,210
78,43,139380,30
80,44,139410,30
73,49,139440,480
78,49,139440,180
77,49,139620,60
78,53,139680,480
73,39,140100,40
85,54,140100,40
85,61,140160,120
73,51,140160,120
97,52,140280,90
85,44,140280,90
85,51,140400,120
97,61,140400,120
95,53,140520,90
83,45,140520,90
95,61,140640,120
83,51,140640,120
81,45,140760,90
93,53,140760,90
81,51,140880,120
93,60,140880,120
80,46,141000,120
92,55,141000,120
95,69,141120,120
83,58,141120,120
81,47,141330,150
85,49,141345,135
93,60,141360,120
80,51,141570,510
85,54,141585,495
92,66,141600,480
95,69,142080,120
83,58,142080,120
81,46,142200,90
93,55,142200,90
81,56,142320,90
93,67,142320,90
80,52,142440,120
92,55,142440,120
93,57,142530,30
92,66,142560,90
80,56,142560,60
90,50,142680,90
78,42,142680,90
90,63,142800,120
78,53,142800,120
89,47,142920,120
77,39,142920,120
92,63,143040,120
80,53,143040,120
77,46,143235,165
80,50,143250,150
85,52,143265,135
89,59,143280,120
73,42,143475,465
77,44,143490,450
80,46,143505,435
85,53,143520,420
73,47,143940,40
85,54,143940,40
85,65,144000,120
73,57,144000,120
85,50,144120,90
97,57,144120,90
85,58,144240,120
97,66,144240,120
95,58,144360,90
83,51,144360,90
95,64,144480,120
83,56,144480,120
93,51,144600,90
81,45,144600,90
81,49,144720,120
93,56,144720,120
92,51,144840,120
80,45,144840,120
83,56,144960,120
95,64,144960,120
81,48,145170,150
85,48,145185,135
93,49,145200,120
80,50,145410,510
85,50,145425,495
92,57,145440,480
93,51,145920,120
81,45,145920,120
80,33,146040,60
92,38,146040,90
90,51,146160,120
85,36,146160,240
78,45,146160,120
81,33,146280,120
93,38,146280,100
80,45,146400,120
92,52,146400,120
78,33,146520,120
90,38,146520,120
89,49,146640,120
85,36,146640,240
77,43,146640,120
92,38,146760,100
80,33,146760,120
78,43,146880,240
90,49,146880,240
85,36,147120,240
90,42,147120,180
78,36,147120,180
77,36,147300,60
89,42,147300,60
85,39,147360,480
90,45,147360,480
78,39,147360,480
56,51,147840,60
52,42,147840,60
61,42,147900,60
52,38,147960,60
56,45,147960,60
61,43,148020,60
56,45,148080,60
52,38,148080,60
61,43,148140,60
52,38,148200,60
56,45,148200,60
61,42,148260,60
56,49,148320,60
52,42,148320,60
61,42,148380,60
52,38,148440,60
56,45,148440,60
61,41,148500,60
52,38,148560,60
56,45,148560,60
61,41,148620,60
56,45,148680,60
52,38,148680,60
61,40,148740,60
54,41,148800,60
57,48,148800,60
66,42,148860,60
57,45,148920,60
54,38,148920,60
66,42,148980,60
54,39,149040,60
57,46,149040,60
66,41,149100,60
54,38,149160,60
57,45,149160,60
66,42,149220,60
57,45,149280,60
54,38,149280,60
66,42,149340,60
54,38,149400,60
57,45,149400,60
66,42,149460,60
57,45,149520,60
54,38,149520,60
66,41,149580,60
54,38,149640,60
57,45,149640,60
66,42,149700,60
52,42,149760,60
56,51,149760,60
64,42,149820,60
56,45,149880,60
52,38,149880,60
64,44,149940,60
52,39,150000,60
56,46,150000,60
64,45,150060,60
52,40,150120,60
56,48,150120,60
64,45,150180,60
50,46,150240,60
54,55,150240,60
62,46,150300,60
50,42,150360,60
54,49,150360,60
62,48,150420,60
54,51,150480,60
50,43,150480,60
62,49,150540,60
50,43,150600,60
54,51,150600,60
62,49,150660,60
52,59,150720,60
49,50,150720,60
61,50,150780,60
52,54,150840,60
49,45,150840,60
61,52,150900,60
49,46,150960,60
52,54,150960,60
61,53,151020,60
52,55,151080,60
49,47,151080,60
61,53,151140,60
51,53,151200,60
54,62,151200,60
60,54,151260,60
54,57,151320,60
51,48,151320,60
60,56,151380,60
54,58,151440,60
51,49,151440,60
60,57,151500,60
51,51,151560,60
54,60,151560,60
60,57,151620,60
61,92,151680,120
49,75,151680,120
52,75,151680,120
61,78,152160,53
57,78,152160,53
66,67,152213,53
69,69,152266,53
73,71,152319,53
78,73,152371,53
81,75,152424,53
85,77,152477,53
90,79,152530,53
93,81,152582,58
92,92,152640,120
85,92,152640,120
97,96,152640,120
63,51,153600,60
59,42,153600,60
68,42,153660,60
59,38,153720,60
63,45,153720,60
68,43,153780,60
59,38,153840,60
63,45,153840,60
68,43,153900,60
59,38,153960,60
63,45,153960,60
68,42,154020,60
59,42,154080,60
63,49,154080,60
68,42,154140,60
63,45,154200,60
59,38,154200,60
68,41,154260,60
59,38,154320,60
63,45,154320,60
68,41,154380,60
63,45,154440,60
59,38,154440,60
68,40,154500,60
64,48,154560,60
61,41,154560,60
73,42,154620,60
61,38,154680,60
64,45,154680,60
73,42,154740,60
64,46,154800,60
61,39,154800,60
73,41,154860,60
61,38,154920,60
64,45,154920,60
73,42,154980,60
64,45,155040,60
61,38,155040,60
73,42,155100,60
64,45,155160,60
61,38,155160,60
73,42,155220,60
61,38,155280,60
64,45,155280,60
73,41,155340,60
64,45,155400,60
61,38,155400,60
73,42,155460,60
59,42,155520,60
63,51,155520,60
71,42,155580,60
63,45,155640,60
59,38,155640,60
71,44,155700,60
63,46,155760,60
59,39,155760,60
71,45,155820,60
59,40,155880,60
63,48,155880,60
71,45,155940,60
61,55,156000,60
57,46,156000,60
69,46,156060,60
57,42,156120,60
61,49,156120,60
69,48,156180,60
57,43,156240,60
61,51,156240,60
69,49,156300,60
57,43,156360,60
61,51,156360,60
69,49,156420,60
56,50,156480,60
59,59,156480,60
68,50,156540,60
56,45,156600,60
59,54,156600,60
68,52,156660,60
59,54,156720,60
56,46,156720,60
68,53,156780,60
56,47,156840,60
59,55,156840,60
68,53,156900,60
61,62,156960,60
58,53,156960,60
67,54,157020,60
58,48,157080,60
61,57,157080,60
67,56,157140,60
58,49,157200,60
61,58,157200,60
67,57,157260,60
61,60,157320,60
58,51,157320,60
67,57,157380,60
56,75,157440,120
68,92,157440,120
59,75,157440,120
64,78,157920,53
68,78,157920,53
73,67,157973,53
76,69,158026,53
80,71,158079,53
85,73,158131,53
88,75,158184,53
92,77,158237,53
97,79,158290,53
100,81,158342,58
92,92,158400,120
104,96,158400,120
99,92,158400,120
80,99,159360,840
68,83,159360,840
81,77,160200,60
69,64,160200,60
83,77,160260,60
71,64,160260,60
64,78,160320,720
76,92,160320,720
63,64,161160,120
75,77,161160,120
66,72,161280,560
78,88,161280,560
64,64,161840,80
76,77,161840,80
66,70,161920,80
78,83,161920,80
80,82,162000,80
68,69,162000,80
78,78,162080,60
66,66,162080,60
64,66,162200,30
76,78,162200,30
64,77,162240,720
76,92,162240,720
68,70,163080,90
76,70,163080,90
80,83,163080,90
80,92,163200,480
76,78,163200,480
68,78,163200,480
68,68,163680,160
80,80,163680,160
81,82,163840,160
69,69,163840,160
83,88,164000,160
71,74,164000,160
73,66,164160,480
85,92,164160,480
61,75,164640,160
64,75,164640,160
73,90,164640,160
71,84,164800,160
59,71,164800,160
64,71,164800,160
64,67,164960,160
70,79,164960,160
58,67,164960,160
59,78,165120,480
64,78,165120,480
71,92,165120,480
64,77,165600,360
56,77,165600,480
52,77,165600,360
63,77,165960,120
51,77,165960,120
63,88,166080,560
51,72,166080,560
57,72,166080,560
64,77,166633,80
52,64,166633,80
54,70,166713,80
66,83,166713,80
68,82,166793,80
56,69,166793,80
66,78,166873,60
54,66,166873,60
52,66,166993,40
64,78,166993,40
64,71,167040,80
52,71,167040,80
56,72,167120,80
59,73,167200,80
64,74,167280,80
68,75,167360,80
71,75,167440,80
76,77,167520,80
80,78,167600,80
83,79,167680,80
88,80,167760,80
92,81,167840,80
95,82,167920,80
92,93,168000,120
88,93,168000,120
100,93,168000,120
80,86,168960,840
88,103,168960,840
76,86,168960,840
85,86,168960,840
90,80,169800,60
78,67,169800,60
80,67,169860,60
92,80,169860,60
85,96,169920,840
73,81,169920,840
84,80,170760,120
72,67,170760,120
75,75,170880,560
87,92,170880,560
73,67,171440,80
85,80,171440,80
75,73,171520,80
87,86,171520,80
88,85,171600,80
76,72,171600,80
87,81,171680,60
75,69,171680,60
73,69,171800,30
85,81,171800,30
73,80,171840,720
85,96,171840,720
85,80,173700,60
73,68,173700,60
81,68,173700,60
81,74,173760,180
85,89,173760,180
73,74,173760,180
71,67,173940,60
80,67,173940,60
83,79,173940,60
80,73,174000,180
83,86,174000,180
71,73,174000,180
81,79,174180,60
69,67,174180,60
78,67,174180,60
81,86,174240,240
69,73,174240,240
78,73,174240,240
61,82,174660,60
62,92,174720,720
78,68,175620,45
81,68,175620,45
90,80,175620,45
90,89,175680,180
81,74,175680,180
78,74,175680,180
76,67,175860,45
88,79,175860,45
80,67,175860,45
76,73,175920,180
88,86,175920,180
80,73,175920,180
78,67,176100,45
74,67,176100,45
86,79,176100,45
74,73,176160,240
78,73,176160,240
86,86,176160,240
58,82,176580,60
59,92,176640,480
90,68,177060,45
93,80,177060,45
85,68,177060,45
93,89,177120,180
85,74,177120,180
90,74,177120,180
92,79,177300,45
80,67,177300,45
88,67,177300,45
88,73,177360,180
92,86,177360,180
80,73,177360,180
78,67,177540,60
87,67,177540,60
90,79,177540,60
60,92,177600,480
90,68,178020,45
93,80,178020,45
85,68,178020,45
93,89,178080,180
85,74,178080,180
90,74,178080,180
88,67,178260,45
92,79,178260,45
80,67,178260,45
80,73,178320,180
88,73,178320,180
92,86,178320,180
90,79,178500,60
78,67,178500,60
87,67,178500,60
55,101,178560,480
88,57,178980,45
100,80,178980,45
91,57,178980,45
100,89,179040,180
88,74,179040,180
91,74,179040,180
90,56,179220,45
99,79,179220,45
87,56,179220,45
87,74,179280,180
90,74,179280,180
99,89,179280,180
97,83,179460,45
88,70,179460,45
85,70,179460,45
97,90,179520,180
85,75,179520,180
88,75,179520,180
94,79,179700,45
82,67,179700,45
85,67,179700,45
82,74,179760,180
85,74,179760,180
94,88,179760,180
84,67,179940,45
81,67,179940,45
93,79,179940,45
81,74,180000,180
84,74,180000,180
93,88,180000,180
82,67,180180,45
91,79,180180,45
79,67,180180,45
91,86,180240,180
79,73,180240,180
82,73,180240,180
88,81,180420,45
79,68,180420,45
76,68,180420,45
79,74,180480,180
88,88,180480,180
76,74,180480,180
75,68,180660,45
78,68,180660,45
87,80,180660,45
78,74,180720,180
87,88,180720,180
75,74,180720,180
85,79,180900,45
73,56,180900,45
76,56,180900,45
85,88,180960,180
73,74,180960,180
76,74,180960,180
73,68,181140,45
82,81,181140,45
70,68,181140,45
70,75,181200,180
73,75,181200,180
82,90,181200,180
72,68,181380,45
81,81,181380,45
69,68,181380,45
81,89,181440,180
69,74,181440,180
72,74,181440,180
79,79,181620,45
67,67,181620,45
70,67,181620,45
70,74,181680,180
79,88,181680,180
67,74,181680,180
67,68,181860,45
64,68,181860,45
76,80,181860,45
67,74,181920,180
76,88,181920,180
64,74,181920,180
75,79,182100,45
63,56,182100,45
66,56,182100,45
75,94,182160,180
66,80,182160,180
63,80,182160,180
61,56,182340,45
64,56,182340,45
73,79,182340,45
61,81,182400,180
64,81,182400,180
73,96,182400,180
64,83,182820,60
52,70,182820,60
58,70,182820,60
52,79,182880,120
64,93,182880,120
56,79,182880,120
63,84,183240,120
56,71,183240,120
51,71,183240,120
56,79,183360,120
63,93,183360,120
51,79,183360,120
49,72,183720,120
56,72,183720,120
61,85,183720,120
68,96,183840,480
56,81,183840,480
60,81,183840,480
48,77,184320,360
60,91,184320,360
56,77,184320,360
64,62,184780,500
68,62,184790,490
76,83,184800,360
75,75,185160,40
75,67,185220,30
76,72,185250,30
68,61,185280,480
64,61,185280,480
75,80,185280,120
73,77,185520,60
66,63,185755,485
72,67,185765,475
80,82,185775,465
72,77,186240,240
88,76,186720,360
76,54,186720,480
80,54,186720,480
87,69,187080,60
85,63,187140,20
87,59,187160,20
88,63,187180,20
76,51,187200,480
80,51,187200,480
87,73,187200,120
85,66,187440,120
80,54,187680,240
87,75,187680,240
75,54,187680,240
80,63,188040,120
92,75,188160,240
80,54,188160,240
80,68,188520,120
80,54,188640,480
88,76,188640,360
76,54,188640,480
87,69,189000,60
85,59,189060,20
87,59,189080,20
88,63,189100,20
87,73,189120,120
76,51,189120,480
80,51,189120,480
85,66,189360,120
75,54,189600,240
87,75,189600,240
80,54,189600,240
80,63,189960,120
92,75,190080,240
80,64,190440,120
87,68,190560,120
80,61,190680,120
92,66,190800,120
80,60,190920,120
87,65,191040,120
80,57,191160,120
92,63,191280,120
80,57,191400,120
87,62,191520,80
80,57,191600,80
92,61,191680,80
80,56,191760,81
87,59,191840,80
80,53,191920,80
92,58,192000,80
80,50,192080,80
87,57,192160,80
80,48,192240,80
92,59,192320,80
80,50,192400,80
87,57,192480,60
80,51,192540,60
92,57,192600,60
80,51,192660,60
87,55,192720,60
80,51,192780,60
92,54,192840,60
80,49,192900,60
87,53,192960,60
80,47,193020,60
92,52,193080,60
80,47,193140,60
87,51,193200,60
80,47,193260,60
92,50,193320,60
80,45,193380,60
87,48,193440,60
80,43,193500,60
92,47,193560,60
80,43,193620,60
87,46,193680,60
80,42,193740,60
92,45,193800,60
80,40,193860,60
87,44,193920,60
80,39,193980,60
92,43,194040,60
80,39,194100,60
87,42,194160,60
80,38,194220,60
92,40,194280,60
80,35,194340,60
89,58,196320,360
87,53,196680,120
90,57,196800,360
84,52,197160,120
87,59,197280,240
85,52,197520,240
91,49,198120,60
92,52,198160,40
93,54,198200,40
92,60,198720,480
90,56,199200,120
90,60,199440,480
93,54,199980,45
94,56,200025,45
95,58,200070,45
96,60,200115,45
96,64,200640,360
94,55,201000,120
92,65,201120,480
96,45,201840,80
97,48,201920,80
98,51,202000,80
101,54,202080,52
99,48,202132,51
97,47,202183,52
96,46,202235,52
94,45,202287,51
92,45,202338,52
90,44,202390,51
89,43,202441,52
87,42,202493,52
85,42,202545,51
84,41,202596,52
82,40,202648,51
80,39,202699,52
78,39,202751,52
77,38,202803,51
75,37,202854,52
73,36,202906,51
72,36,202957,52
70,35,203009,52
68,34,203061,51
66,33,203112,52
65,33,203164,51
63,32,203215,52
61,31,203267,52
60,30,203319,51
68,42,204480,60
73,44,204540,60
77,46,204600,60
80,48,204660,60
85,48,204720,240
89,50,204750,210
92,52,204780,180
97,54,204810,150
68,50,205800,120
77,58,205920,360
65,40,206160,60
68,40,206160,60
75,53,206280,120
78,57,206400,300
66,40,206640,60
68,40,206640,60
72,52,206760,60
75,59,206820,60
73,59,206880,60
65,40,207120,60
68,40,207120,60
73,52,207120,480
65,40,207600,60
68,40,207600,60
73,50,207600,240
82,59,207840,60
70,40,208080,60
82,55,208080,120
66,40,208080,60
80,60,208320,480
70,40,208560,60
68,40,208560,60
78,56,208800,60
70,40,209040,60
66,40,209040,60
78,60,209040,480
66,40,209520,60
70,40,209520,60
78,53,209520,240
85,61,209760,120
85,60,210000,240
73,40,210000,240
82,60,210000,240
80,64,210240,360
84,64,210240,360
72,40,210240,360
82,55,210600,60
70,40,210600,60
78,55,210600,60
78,52,210660,60
82,52,210660,60
77,65,210720,60
80,65,210720,60
80,56,210960,480
68,56,210960,480
77,56,210960,480
81,50,211560,120
77,50,211560,120
78,56,211680,60
82,56,211680,60
82,56,211920,480
78,56,211920,480
66,40,212400,240
72,51,212400,240
73,54,212640,60
65,43,212640,60
73,56,212880,480
65,44,212880,480
80,55,213480,120
68,42,213480,120
77,49,213600,360
89,63,213600,360
87,58,213960,120
75,45,213960,120
78,48,214080,360
90,62,214080,360
72,44,214440,120
84,57,214440,120
87,64,214560,60
75,50,214560,60
73,44,214800,480
85,57,214800,480
73,42,215280,240
85,55,215280,240
82,55,215520,60
94,64,215520,60
82,50,215760,120
94,60,215760,120
92,66,216000,480
80,51,216000,480
78,47,216480,60
90,61,216480,60
90,66,216720,480
82,60,216720,480
78,51,216720,480
87,45,217200,240
78,45,217200,240
90,58,217200,240
97,67,217440,240
94,61,217440,240
85,61,217440,240
94,60,217680,240
97,66,217680,240
85,40,217680,240
84,40,217920,360
92,64,217920,360
96,70,217920,360
94,60,218280,60
82,40,218280,60
90,55,218280,60
89,65,218400,60
80,55,218400,60
92,71,218400,60
92,61,218640,480
89,56,218640,480
80,47,218640,480
81,42,219240,120
93,55,219240,120
82,47,219360,60
94,61,219360,60
72,51,219840,480
66,40,219840,480
60,40,219840,480
65,43,220320,60
61,43,220320,60
73,54,220320,60
65,44,220560,360
61,44,220560,360
73,56,220560,360
89,40,220920,120
85,40,220920,120
90,45,221040,120
87,45,221040,120
88,51,221160,120
91,51,221160,120
94,57,221280,120
90,57,221280,120
89,47,221400,108
92,47,221400,108
92,47,221520,120
89,47,221520,120
91,47,221640,108
88,47,221640,108
90,53,221760,120
94,53,221760,120
89,46,221880,108
92,46,221880,108
92,47,222000,120
89,47,222000,120
91,49,222120,108
88,49,222120,108
90,58,222240,120
94,58,222240,120
92,50,222360,108
89,50,222360,108
92,50,222480,120
89,50,222480,120
91,50,222600,108
88,50,222600,108
90,60,222720,120
94,60,222720,120
89,53,222840,108
92,53,222840,108
89,54,222960,120
92,54,222960,120
91,56,223080,108
88,56,223080,108
90,65,223200,120
94,65,223200,120
92,57,223320,108
89,57,223320,108
92,57,223440,120
89,57,223440,120
88,57,223560,108
91,57,223560,108
90,66,223680,120
94,66,223680,120
89,60,223800,108
92,60,223800,108
89,60,223920,120
92,60,223920,120
88,60,224040,108
91,60,224040,108
90,74,224160,120
94,74,224160,120
92,68,224280,108
89,68,224280,108
89,57,224400,240
92,71,224400,120
101,75,224520,108
101,82,224640,120
89,60,224640,240
100,79,224760,108
89,57,224880,240
100,82,224880,120
99,75,225000,113
99,81,225120,120
89,60,225120,240
98,77,225240,108
98,81,225360,120
89,57,225360,240
97,75,225480,108
97,78,225600,120
89,57,225600,240
96,69,225720,108
89,55,225840,240
96,77,225840,120
95,69,225960,60
97,58,226020,60
96,72,226080,120
89,72,226080,240
94,68,226200,60
96,57,226260,60
89,70,226320,240
94,70,226320,120
93,68,226440,60
97,58,226500,60
96,68,226560,120
89,68,226560,240
94,68,226680,60
96,57,226740,60
89,66,226800,240
94,66,226800,120
93,59,226920,60
97,53,226980,60
96,66,227040,120
89,66,227040,240
94,62,227160,60
96,52,227220,60
94,64,227280,120
89,64,227280,240
93,63,227400,60
97,52,227460,60
96,62,227520,120
89,62,227520,240
94,62,227640,60
96,51,227700,60
89,61,227760,240
94,61,227760,120
93,54,227880,120
89,62,228000,120
96,56,230880,720
94,55,231600,240
92,61,231840,240
92,56,232320,480
101,50,233760,42
100,50,233802,42
99,50,233844,42
98,49,233886,42
97,49,233928,42
96,49,233969,42
95,49,234011,42
94,48,234053,42
93,48,234095,42
92,48,234137,42
91,47,234178,42
90,47,234220,42
89,47,234262,42
88,46,234304,42
87,46,234346,42
86,46,234387,42
85,46,234429,42
84,45,234471,42
83,45,234513,42
82,45,234555,42
81,44,234597,42
80,44,234638,42
79,44,234680,40
78,41,234720,42
77,41,234762,42
76,40,234804,42
75,40,234846,42
74,39,234888,42
73,39,234930,42
72,38,234972,42
71,37,235014,42
70,37,235056,42
69,36,235098,42
68,36,235140,42
67,35,235182,42
66,35,235224,42
65,34,235266,42
64,33,235308,42
63,33,235350,42
62,32,235392,42
61,32,235434,42
60,31,235476,42
59,31,235518,42
58,30,235560,42
57,30,235602,42
56,29,235644,36
61,37,235860,60
65,39,235920,60
68,41,235980,60
73,43,236040,60
77,44,236100,60
80,46,236160,60
85,48,236220,60
89,49,236280,60
92,51,236340,60
97,53,236400,120
77,36,237240,120
73,36,237240,120
75,40,237360,120
78,40,237360,120
76,45,237480,120
79,45,237480,120
82,51,237600,120
78,51,237600,120
80,42,237720,108
77,42,237720,108
80,42,237840,120
77,42,237840,120
79,42,237960,108
76,42,237960,108
82,47,238080,120
78,47,238080,120
80,41,238200,108
77,41,238200,108
77,42,238320,120
80,42,238320,120
79,44,238440,108
76,44,238440,108
82,52,238560,120
78,52,238560,120
80,45,238680,108
77,45,238680,108
80,45,238800,120
77,45,238800,120
79,45,238920,108
76,45,238920,108
82,54,239040,120
78,54,239040,120
80,47,239160,108
77,47,239160,108
77,48,239280,120
80,48,239280,120
79,50,239400,108
76,50,239400,108
82,58,239520,120
78,58,239520,120
80,51,239640,108
77,51,239640,108
80,51,239760,120
77,51,239760,120
79,51,239880,108
76,51,239880,108
82,59,240000,120
78,59,240000,120
80,54,240120,108
77,54,240120,108
77,54,240240,120
80,54,240240,120
79,54,240360,108
76,54,240360,108
78,66,240480,120
82,66,240480,120
77,61,240600,108
80,61,240600,108
80,63,240720,120
77,51,240720,240
89,67,240840,108
89,73,240960,120
77,54,240960,240
88,71,241080,108
88,73,241200,120
77,51,241200,240
87,67,241320,113
87,72,241440,120
77,54,241440,240
86,69,241560,108
86,72,241680,120
77,51,241680,240
85,67,241800,108
85,70,241920,120
77,51,241920,240
84,62,242040,108
84,69,242160,120
77,49,242160,240
83,62,242280,60
85,52,242340,60
84,64,242400,120
77,64,242400,240
82,61,242520,60
84,51,242580,60
82,63,242640,120
77,63,242640,240
81,61,242760,60
85,52,242820,60
84,61,242880,120
77,61,242880,240
82,61,243000,60
84,51,243060,60
82,59,243120,120
77,59,243120,240
81,53,243240,60
85,47,243300,60
84,59,243360,120
77,59,243360,240
82,55,243480,60
84,46,243540,60
82,57,243600,120
77,57,243600,240
81,56,243720,60
85,46,243780,60
84,55,243840,120
77,55,243840,240
82,55,243960,60
84,45,244020,60
82,54,244080,120
77,54,244080,240
81,48,244200,120
77,55,244320,960
81,42,245280,80
82,43,245360,80
83,44,245440,60
84,45,245520,80
85,46,245600,80
86,47,245680,80
87,48,245760,80
88,49,245840,80
89,50,245920,80
90,51,246000,80
91,52,246080,80
92,53,246160,80
93,54,246240,80
94,55,246320,80
95,56,246400,80
96,57,246480,80
97,58,246560,80
99,59,246640,80
97,63,246720,48
99,45,246768,48
97,45,246816,48
96,45,246864,48
97,45,246912,48
99,51,246960,60
97,46,247020,60
94,46,247080,60
92,46,247140,60
97,51,247200,60
94,46,247260,60
92,46,247320,60
90,46,247380,60
94,51,247440,60
92,46,247500,60
90,46,247560,60
87,46,247620,60
92,51,247680,60
90,45,247740,60
87,45,247800,60
85,45,247860,60
90,51,247920,60
87,45,247980,60
85,45,248040,60
82,45,248100,60
87,51,248160,60
85,45,248220,60
82,45,248280,60
80,45,248340,60
85,51,248400,60
82,47,248460,60
80,47,248520,60
78,47,248580,60
82,51,248640,52
80,46,248692,52
78,46,248745,52
75,46,248797,52
80,51,248849,52
78,45,248901,52
75,45,248953,52
73,45,249006,52
78,51,249058,52
75,45,249110,52
73,45,249162,52
70,45,249214,52
75,51,249267,52
73,47,249319,52
70,47,249371,52
68,47,249423,52
70,63,249540,60
58,54,249540,60
61,54,249540,60
68,71,249600,120
56,60,249600,120
61,60,249600,120
92,51,250080,48
94,46,250128,48
92,45,250176,48
91,45,250224,48
92,45,250272,48
101,51,250320,60
99,47,250380,60
97,47,250440,60
94,47,250500,60
99,51,250560,60
97,46,250620,60
94,46,250680,60
92,46,250740,60
97,51,250800,60
94,46,250860,60
92,46,250920,60
89,46,250980,60
94,51,251040,60
92,46,251100,60
89,46,251160,60
87,46,251220,60
92,51,251280,60
89,45,251340,60
87,45,251400,60
85,45,251460,60
89,51,251520,60
87,45,251580,60
85,45,251640,60
82,45,251700,60
87,51,251760,60
85,45,251820,60
82,45,251880,60
80,45,251940,60
85,51,252000,60
82,47,252060,60
80,47,252120,60
77,47,252180,60
82,51,252240,60
80,44,252300,60
77,44,252360,60
75,44,252420,60
80,47,252480,60
77,40,252540,60
75,40,252600,60
73,40,252660,60
77,43,252720,60
75,37,252780,60
73,37,252840,60
70,37,252900,60
75,43,252960,52
73,35,253012,52
70,35,253065,52
68,35,253117,52
73,42,253169,52
70,36,253221,52
68,36,253273,52
65,36,253326,52
70,42,253378,52
68,37,253430,52
65,37,253482,52
63,37,253534,52
68,42,253587,52
65,38,253639,52
63,38,253691,52
61,38,253743,52
81,75,253860,60
69,64,253860,60
82,85,253920,120
70,72,253920,120
54,72,254400,480
60,85,254400,480
68,46,257520,360
65,39,257520,360
66,41,257880,60
63,34,257880,60
65,41,258000,60
61,34,258000,60
66,41,258120,60
63,34,258120,60
68,48,258240,60
65,40,258240,60
70,41,258420,60
66,34,258420,60
68,46,258480,360
65,39,258480,360
66,41,258840,60
63,34,258840,60
65,41,258960,60
61,34,258960,60
66,41,259080,60
63,34,259080,60
68,48,259200,60
65,40,259200,60
70,41,259380,60
66,34,259380,60
68,46,259440,120
65,39,259440,120
76,50,260400,360
73,47,260400,360
64,42,260400,360
74,44,260760,60
71,42,260760,60
73,44,260880,60
69,42,260880,60
74,44,261000,60
71,42,261000,60
76,52,261120,60
73,49,261120,60
78,45,261300,60
74,43,261300,60
76,51,261360,360
73,48,261360,360
64,43,261360,360
74,44,261720,60
71,42,261720,60
73,44,261840,60
69,42,261840,60
74,42,261960,60
71,40,261960,60
76,50,262080,60
73,47,262080,60
78,44,262260,60
74,42,262260,60
76,49,262320,120
73,46,262320,120
64,41,262320,120
81,58,263280,360
78,54,263280,360
69,49,263280,360
80,48,263640,60
76,45,263640,60
78,48,263760,60
74,45,263760,60
80,49,263880,60
76,46,263880,60
81,61,264000,60
78,57,264000,60
83,52,264180,60
80,49,264180,60
78,56,264240,360
81,59,264240,360
69,50,264240,360
80,48,264600,60
76,45,264600,60
78,48,264720,60
74,45,264720,60
80,48,264840,60
76,45,264840,60
81,57,264960,60
78,48,264960,60
83,49,265140,60
80,41,265140,60
81,57,265200,60
78,48,265200,60
81,51,265380,60
78,43,265380,60
83,57,265440,60
80,48,265440,60
81,51,265620,60
78,43,265620,60
83,57,265680,60
80,48,265680,60
85,53,265860,60
77,45,265860,60
86,58,265920,60
78,49,265920,60
81,51,266100,60
78,43,266100,60
80,59,266160,60
77,50,266160,60
81,54,266340,60
78,45,266340,60
83,59,266400,60
80,50,266400,60
81,55,266580,60
78,46,266580,60
83,60,266640,60
80,51,266640,60
85,55,266820,60
77,46,266820,60
86,60,266880,60
78,51,266880,60
92,65,267120,60
93,58,267180,60
95,58,267240,60
93,58,267300,60
87,64,267360,120
90,64,267360,120
85,59,267480,120
89,59,267480,120
84,59,267600,120
87,59,267600,120
80,60,267720,120
92,60,267720,120
90,66,267840,60
87,66,267840,60
85,59,267960,60
89,59,267960,60
84,59,268080,60
87,59,268080,60
68,59,268200,60
80,59,268200,60
75,64,268320,60
78,64,268320,60
73,57,268440,60
77,57,268440,60
72,57,268560,60
75,57,268560,60
68,58,268680,60
80,58,268680,60
73,64,268800,60
77,64,268800,60
68,50,269040,360
80,59,269040,360
77,50,269040,360
66,44,269400,60
78,53,269400,60
75,44,269400,60
65,44,269520,60
77,53,269520,60
73,44,269520,60
66,44,269640,60
78,53,269640,60
75,44,269640,60
68,52,269760,60
80,62,269760,60
77,52,269760,60
70,44,269940,60
82,53,269940,60
78,44,269940,60
68,50,270000,360
80,59,270000,360
77,50,270000,360
66,44,270360,60
78,53,270360,60
75,44,270360,60
65,44,270480,60
77,53,270480,60
73,44,270480,60
66,44,270600,60
78,53,270600,60
75,44,270600,60
68,52,270720,60
80,62,270720,60
77,52,270720,60
70,44,270900,60
82,53,270900,60
78,44,270900,60
68,50,270960,120
80,59,270960,120
77,50,270960,120
88,71,271440,360
85,67,271440,360
76,59,271440,360
74,59,271800,60
86,62,271800,60
83,59,271800,60
73,59,271920,60
85,62,271920,60
81,59,271920,60
74,59,272040,60
86,62,272040,60
83,59,272040,60
76,69,272160,60
88,73,272160,60
85,69,272160,60
78,60,272340,60
90,63,272340,60
86,60,272340,60
88,72,272400,360
85,68,272400,360
76,60,272400,360
74,59,272760,60
86,62,272760,60
83,59,272760,60
73,59,272880,60
85,62,272880,60
81,59,272880,60
74,57,273000,60
86,59,273000,60
83,57,273000,60
76,67,273120,60
88,71,273120,60
85,67,273120,60
78,59,273300,60
90,62,273300,60
86,59,273300,60
88,69,273360,120
85,64,273360,120
76,58,273360,120
93,82,273840,360
90,77,273840,360
81,69,273840,360
80,63,274200,60
92,68,274200,60
88,63,274200,60
78,63,274320,60
90,68,274320,60
86,63,274320,60
80,64,274440,60
92,69,274440,60
88,64,274440,60
81,70,274560,60
93,82,274560,60
90,74,274560,60
83,69,274740,60
95,73,274740,60
92,69,274740,60
90,79,274800,360
93,83,274800,360
81,71,274800,360
80,63,275160,60
92,68,275160,60
88,63,275160,60
78,63,275280,60
90,68,275280,60
86,63,275280,60
80,63,275400,60
92,68,275400,60
88,63,275400,60
81,68,275520,60
93,81,275520,60
90,68,275520,60
83,58,275700,60
95,69,275700,60
92,58,275700,60
81,68,275760,60
93,81,275760,60
90,68,275760,60
81,66,275940,60
78,55,275940,60
83,74,276000,60
80,62,276000,60
81,66,276180,60
78,55,276180,60
83,74,276240,60
80,62,276240,60
85,68,276420,60
77,58,276420,60
86,75,276480,60
78,63,276480,60
81,66,276660,60
78,55,276660,60
80,76,276720,60
77,65,276720,60
81,70,276900,60
78,58,276900,60
83,76,276960,60
80,65,276960,60
81,71,277140,60
78,59,277140,60
83,78,277200,60
80,66,277200,60
85,71,277380,60
77,59,277380,60
86,78,277440,60
78,66,277440,60
92,79,277680,60
93,72,277740,60
95,72,277800,60
93,72,277860,60
87,78,277920,120
90,78,277920,120
85,72,278040,120
89,72,278040,120
84,72,278160,120
87,72,278160,120
80,74,278280,120
92,74,278280,120
90,80,278400,60
87,80,278400,60
85,72,278520,60
89,72,278520,60
84,72,278640,60
87,72,278640,60
68,72,278760,60
80,72,278760,60
75,78,278880,60
78,78,278880,60
73,64,279000,60
77,64,279000,60
72,64,279120,60
75,64,279120,60
68,64,279240,60
80,64,279240,60
73,45,279360,60
77,50,279360,60
89,55,279600,360
92,55,279600,360
94,57,279960,60
97,57,279960,60
92,54,280080,60
96,54,280080,60
94,54,280200,60
90,54,280200,60
89,47,280320,60
92,52,280320,60
77,53,280560,360
80,53,280560,360
75,55,280920,60
78,55,280920,60
73,55,281040,60
77,55,281040,60
75,55,281160,60
68,55,281160,60
73,45,281280,60
77,50,281280,60
89,55,281520,360
92,55,281520,360
94,57,281880,60
97,57,281880,60
92,54,282000,60
96,54,282000,60
94,54,282120,60
90,54,282120,60
89,47,282240,60
92,52,282240,60
78,64,282480,240
82,64,282480,240
77,58,282720,60
80,58,282720,60
75,54,282840,60
78,54,282840,60
73,54,282960,60
77,54,282960,60
75,53,283080,60
68,53,283080,60
73,45,283200,60
77,50,283200,60
89,55,283440,360
92,55,283440,360
94,57,283800,60
97,57,283800,60
92,54,283920,60
96,54,283920,60
94,54,284040,60
90,54,284040,60
89,47,284160,60
92,52,284160,60
77,53,284400,360
80,53,284400,360
75,55,284760,60
78,55,284760,60
73,53,284880,60
77,53,284880,60
75,53,285000,60
68,53,285000,60
73,45,285120,60
77,50,285120,60
89,55,285360,360
92,55,285360,360
94,57,285720,60
97,57,285720,60
92,54,285840,60
96,54,285840,60
94,54,285960,60
90,54,285960,60
89,47,286080,60
92,52,286080,60
78,60,286320,240
82,60,286320,240
77,59,286560,60
80,59,286560,60
75,53,286680,60
78,53,286680,60
73,53,286800,60
77,53,286800,60
75,53,286920,60
68,53,286920,60
73,55,287040,60
77,55,287040,60
68,50,287280,240
73,50,287280,120
74,51,287400,120
68,55,287520,360
75,55,287520,360
75,50,287880,60
78,50,287880,60
73,55,288000,240
77,55,288000,120
80,51,288120,120
68,51,288240,120
73,51,288240,120
80,57,288480,360
87,57,288480,360
87,52,288840,60
90,52,288840,60
85,57,288960,240
89,57,288960,120
92,53,289080,120
80,53,289200,120
85,53,289200,120
68,55,289440,360
75,55,289440,360
75,50,289800,60
78,50,289800,40
80,50,289840,40
78,50,289880,40
73,55,289920,240
77,55,289920,120
80,51,290040,120
68,51,290160,120
73,51,290160,120
80,57,290400,360
87,57,290400,360
87,52,290760,60
90,52,290760,40
92,52,290800,40
90,52,290840,40
85,57,290880,240
89,57,290880,120
92,53,291000,120
80,53,291120,120
85,53,291120,120
72,48,291360,60
73,49,291420,60
75,50,291480,60
77,51,291540,60
78,52,291600,60
80,52,291660,60
82,53,291720,60
84,54,291780,60
85,56,291840,60
87,56,291900,60
89,56,291960,60
90,57,292020,60
91,57,292080,60
94,58,292140,60
92,58,292200,60
94,59,292260,60
92,58,292320,60
87,61,292320,360
94,52,292380,60
92,52,292440,60
94,52,292500,60
92,52,292560,60
94,52,292620,60
92,52,292680,60
90,52,292680,120
94,52,292740,60
92,58,292800,60
89,57,292800,120
94,52,292860,60
92,53,292920,120
94,52,292980,60
92,58,293040,120
85,53,293040,120
72,48,293281,60
73,49,293341,60
75,50,293401,60
77,51,293461,60
78,52,293521,60
80,52,293581,60
82,53,293641,60
84,54,293701,60
85,56,293761,60
87,56,293821,60
89,56,293881,60
90,57,293941,60
91,57,294001,60
94,58,294061,60
92,58,294121,60
94,59,294181,60
92,58,294241,60
87,61,294241,360
94,52,294301,60
92,52,294361,60
94,52,294421,60
92,52,294481,60
94,52,294541,60
92,52,294601,60
90,52,294601,120
94,52,294661,60
92,58,294721,60
89,57,294721,120
94,52,294781,60
92,53,294841,120
94,52,294900,60
92,58,294960,1
85,53,294961,120
94,52,295020,60
92,52,295080,60
94,52,295140,60
92,60,295201,60
87,64,295201,360
94,54,295261,60
92,54,295321,60
94,54,295381,60
92,54,295441,60
94,54,295501,60
92,54,295561,60
90,54,295561,120
94,54,295621,60
89,63,295680,120
92,64,295800,120
85,55,295920,120
84,57,296160,60
85,58,296280,60
87,60,296400,60
88,61,296520,60
89,63,296640,60
90,65,296760,60
91,64,296880,60
92,67,297000,60
90,64,297120,60
89,65,297240,60
87,64,297360,60
90,65,297480,60
89,63,297600,120
92,63,297720,120
85,55,297840,120
84,57,298080,60
85,58,298200,60
87,60,298320,60
88,62,298440,60
89,64,298560,60
90,67,298680,60
91,67,298800,60
92,71,298920,60
90,68,299040,60
89,70,299160,60
87,69,299280,60
92,71,299400,60
85,58,299520,240
92,61,299520,60
94,56,299580,60
92,62,299640,60
94,56,299700,60
92,63,299760,60
94,57,299820,60
92,60,299880,60
94,52,299940,60
92,59,300000,60
94,51,300060,60
92,59,300120,60
94,51,300180,60
92,59,300240,60
94,51,300300,60
92,56,300360,60
94,52,300420,60
92,61,300480,60
94,56,300540,60
92,62,300600,60
94,56,300660,60
92,59,300720,60
94,53,300780,60
92,58,300840,60
94,52,300900,60
92,59,300960,60
94,53,301020,60
92,60,301080,60
94,53,301140,60
92,60,301200,60
94,53,301260,60
92,60,301320,60
94,53,301380,60
92,61,301440,60
94,56,301500,60
92,62,301560,60
94,56,301620,60
92,63,301680,60
94,57,301740,60
92,60,301800,60
94,52,301860,60
92,67,301920,60
89,51,301980,60
90,65,302040,60
87,51,302100,60
89,65,302160,60
85,51,302220,60
90,64,302280,60
87,52,302340,60
92,61,302400,60
89,56,302460,60
94,62,302520,60
90,56,302580,60
92,59,302640,60
89,53,302700,60
92,58,302764,60
89,52,302820,60
92,59,302880,60
89,53,302940,60
90,60,303000,60
87,53,303060,60
89,60,303120,60
85,53,303180,60
90,60,303240,60
87,53,303300,60
92,61,303360,60
89,56,303420,60
88,58,303480,60
91,51,303540,60
89,54,303600,60
92,46,303660,60
89,54,303720,60
93,48,303780,60
90,55,303840,60
94,50,303900,60
89,56,303960,60
93,50,304020,60
90,56,304080,60
94,49,304140,60
87,56,304200,60
96,49,304260,60
85,59,304320,60
97,53,304380,60
89,58,304440,60
92,48,304500,60
88,55,304560,60
91,51,304620,60
89,57,304680,60
92,51,304740,60
87,55,304800,60
90,50,304860,60
85,56,304920,60
89,50,304980,60
84,56,305040,60
87,49,305100,60
80,56,305160,60
92,49,305220,60
85,59,305280,60
89,53,305340,60
80,58,305400,60
87,48,305460,60
77,55,305520,60
85,51,305580,60
89,57,305640,60
92,51,305700,60
90,55,305760,60
94,50,305820,60
89,56,305880,60
93,50,305940,60
90,56,306000,60
94,49,306060,60
87,56,306120,60
96,49,306180,60
85,59,306240,60
97,53,306300,60
89,58,306360,60
92,48,306420,60
88,55,306480,60
91,51,306540,60
89,57,306600,60
92,51,306660,60
87,60,306720,60
90,55,306780,60
85,60,306840,60
89,56,306900,60
84,61,306960,60
87,56,307020,60
80,61,307080,60
92,58,307140,60
85,62,307200,60
89,58,307260,60
80,62,307320,60
87,59,307380,60
77,59,307440,60
85,62,307500,60
89,64,307560,60
92,67,307620,60
87,64,307680,60
90,58,307740,60
85,64,307800,60
89,60,307860,60
84,61,307920,60
87,64,307980,60
80,67,308040,60
92,67,308100,60
85,66,308160,60
89,61,308220,60
84,66,308280,60
87,63,308340,60
85,67,308400,60
89,62,308460,60
80,67,308520,60
92,63,308580,60
92,68,308640,60
95,64,308700,60
90,68,308760,60
94,64,308820,60
89,69,308880,60
92,65,308940,60
85,69,309000,60
97,73,309060,60
90,70,309120,60
94,67,309180,60
85,71,309240,60
92,67,309300,60
82,67,309360,60
90,70,309420,60
94,72,309480,60
97,75,309540,60
92,72,309600,60
95,67,309660,60
90,73,309720,60
94,67,309780,60
89,73,309840,60
92,70,309900,60
85,74,309960,60
97,70,310020,60
90,74,310080,60
92,70,310140,60
89,75,310200,60
92,70,310260,60
90,75,310320,60
94,72,310380,60
85,76,310440,60
97,72,310500,60
49,67,310620,60
51,68,310680,60
53,70,310740,60
54,71,310800,60
56,72,310860,60
58,74,310920,60
60,75,310980,60
61,75,311040,60
65,76,311100,60
68,78,311160,60
73,79,311220,60
77,80,311280,60
80,82,311340,60
85,83,311400,60
89,85,311460,60
54,75,311580,60
56,76,311640,60
58,78,311700,60
59,79,311760,60
61,80,311820,60
63,81,311880,60
65,82,311940,60
66,83,312000,60
70,84,312060,60
73,86,312120,60
78,88,312180,60
82,90,312240,60
85,92,312300,60
90,94,312360,60
92,95,312420,60
82,97,312480,60
94,97,312480,60
90,91,312600,60
92,94,312660,60
94,97,312720,60
82,97,312720,60
90,88,312840,60
82,88,312840,60
94,94,312960,60
82,94,312960,60
92,89,313020,60
90,89,313080,60
66,88,313200,60
61,74,313200,60
65,81,313320,60
61,69,313320,60
65,89,313440,360
61,75,313440,360
87,90,313800,60
89,91,313860,60
78,93,313920,60
90,93,313920,60
87,87,314040,60
89,90,314100,60
90,93,314160,60
78,93,314160,60
87,84,314280,60
78,84,314280,60
90,90,314400,60
78,90,314400,60
89,83,314460,60
87,83,314520,60
86,83,314580,60
87,90,314640,60
66,63,314760,60
70,63,314760,60
58,53,314760,60
71,66,314880,60
66,66,314880,60
59,56,314880,60
72,68,315000,60
68,68,315000,60
60,57,315000,60
68,71,315120,120
73,71,315120,120
61,60,315120,120
72,80,315360,240
60,68,315360,240
68,62,315480,120
66,62,315480,120
75,75,315600,240
63,64,315600,240
68,62,315720,120
66,62,315720,120
75,82,315840,240
63,70,315840,240
68,64,315960,120
65,64,315960,120
73,77,316080,240
61,65,316080,240
68,64,316200,120
65,64,316200,120
77,82,316320,240
65,70,316320,240
71,63,316440,120
73,63,316440,120
80,76,316560,240
68,65,316560,240
71,65,316680,120
73,65,316680,120
80,85,316800,240
68,71,316800,240
70,64,316920,120
73,64,316920,120
78,80,317040,240
66,68,317040,240
70,62,317160,120
73,62,317160,120
70,97,317280,60
82,97,317280,60
78,91,317400,60
80,94,317460,60
82,97,317520,60
70,97,317520,60
78,88,317640,60
70,88,317640,60
82,94,317760,60
70,94,317760,60
80,89,317820,60
78,89,317880,60
58,74,318000,60
66,88,318000,60
61,74,318000,60
57,69,318120,60
65,81,318120,60
60,69,318120,60
57,75,318240,360
65,89,318240,360
60,75,318240,360
75,90,318600,60
77,91,318660,60
66,93,318720,60
78,93,318720,60
75,87,318840,60
77,90,318900,60
78,93,318960,60
66,93,318960,60
75,84,319080,60
66,84,319080,60
78,90,319200,60
66,90,319200,60
77,83,319260,60
75,83,319320,60
74,83,319380,60
75,90,319440,60
66,55,319800,60
54,46,319800,60
58,46,319800,60
66,58,319920,60
54,49,319920,60
59,49,319920,60
68,60,320040,60
56,51,320040,60
60,51,320040,60
68,65,320160,60
56,55,320160,60
61,55,320160,60
66,59,320280,60
70,59,320280,60
58,50,320280,60
71,63,320400,60
59,53,320400,60
66,53,320400,60
72,67,320520,60
60,56,320520,60
68,56,320520,60
73,70,320640,60
61,59,320640,60
68,59,320640,60
78,63,320760,60
66,52,320760,60
70,52,320760,60
78,66,320880,60
66,55,320880,60
71,55,320880,60
80,69,321000,60
68,58,321000,60
72,58,321000,60
80,74,321120,60
68,63,321120,60
73,63,321120,60
78,67,321240,60
82,67,321240,60
70,57,321240,60
83,72,321360,60
71,60,321360,60
78,60,321360,60
84,76,321480,60
72,64,321480,60
80,64,321480,60
85,80,321600,60
73,67,321600,60
80,67,321600,60
90,73,321720,60
78,62,321720,60
82,62,321720,60
90,75,321840,60
78,63,321840,60
83,63,321840,60
92,77,321960,60
80,65,321960,60
84,65,321960,60
92,78,322080,60
80,66,322080,60
85,66,322080,60
92,80,322200,60
80,68,322200,60
84,68,322200,60
92,82,322320,60
80,69,322320,60
85,69,322320,60
92,84,322440,60
80,71,322440,60
84,71,322440,60
92,88,322560,60
80,74,322560,60
85,74,322560,60
92,81,322680,60
80,68,322680,60
84,68,322680,60
92,83,322800,60
80,70,322800,60
85,70,322800,60
92,85,322920,60
80,71,322920,60
84,71,322920,60
92,95,323040,60
80,80,323040,60
85,80,323040,60
92,90,323160,60
80,76,323160,60
84,76,323160,60
92,92,323280,60
80,77,323280,60
85,77,323280,60
92,94,323400,60
80,80,323400,60
84,80,323400,60
92,106,323520,60
80,90,323520,60
85,90,323520,60
80,72,323640,60
68,60,323640,60
73,60,323640,60
67,63,323700,60
65,53,323700,60
82,78,323760,60
70,66,323760,60
73,66,323760,60
65,63,323820,60
61,53,323820,60
80,71,323880,60
68,59,323880,60
73,59,323880,60
67,64,323940,60
65,54,323940,60
82,77,324000,60
70,66,324000,60
73,66,324000,60
65,65,324060,60
61,54,324060,60
80,74,324120,60
68,61,324120,60
73,61,324120,60
67,65,324180,60
65,55,324180,60
82,80,324240,60
70,67,324240,60
73,67,324240,60
65,67,324300,60
61,56,324300,60
80,73,324360,60
68,61,324360,60
73,61,324360,60
67,67,324420,60
65,56,324420,60
82,81,324480,60
70,68,324480,60
73,68,324480,60
65,68,324540,60
61,57,324540,60
80,75,324600,60
68,62,324600,60
73,62,324600,60
67,69,324660,60
65,57,324660,60
82,80,324720,60
70,67,324720,60
73,67,324720,60
65,69,324780,60
61,57,324780,60
68,79,324840,60
73,79,324840,60
80,79,324840,60
65,70,324900,60
67,70,324900,60
82,84,324960,60
70,72,324960,60
73,72,324960,60
65,71,325020,60
61,58,325020,60
80,79,325080,60
68,67,325080,60
73,67,325080,60
67,72,325140,60
65,60,325140,60
82,83,325200,60
70,71,325200,60
73,71,325200,60
65,68,325260,60
61,57,325260,60
80,77,325320,60
68,66,325320,60
73,66,325320,60
89,64,325440,60
85,64,325440,60
87,63,325500,60
85,62,325560,60
79,60,325620,60
73,59,325680,60
77,59,325680,60
75,58,325740,60
73,56,325800,60
67,55,325860,60
89,64,325920,60
85,64,325920,60
87,63,325980,60
85,62,326040,60
79,60,326100,60
73,59,326160,60
77,59,326160,60
75,58,326220,60
73,56,326280,60
67,55,326340,60
94,64,326400,60
90,64,326400,60
92,63,326460,60
90,62,326520,60
84,60,326580,60
78,59,326640,60
82,59,326640,60
80,58,326700,60
78,56,326760,60
72,55,326820,60
94,64,326880,60
90,64,326880,60
92,63,326940,60
90,62,327000,60
84,60,327060,60
78,59,327120,60
82,59,327120,60
80,58,327180,60
78,56,327240,60
72,55,327300,60
73,64,327360,60
92,72,327480,60
80,60,327480,60
85,60,327480,60
79,63,327540,60
77,53,327540,60
94,78,327600,60
82,66,327600,60
85,66,327600,60
77,63,327660,60
73,53,327660,60
92,71,327720,60
80,59,327720,60
85,59,327720,60
79,64,327780,60
77,54,327780,60
94,77,327840,60
82,66,327840,60
85,66,327840,60
77,65,327900,60
73,54,327900,60
92,74,327960,60
80,61,327960,60
85,61,327960,60
79,65,328020,60
77,55,328020,60
94,80,328080,60
82,67,328080,60
85,67,328080,60
77,67,328140,60
73,56,328140,60
92,73,328200,60
80,61,328200,60
85,61,328200,60
79,67,328260,60
77,56,328260,60
94,81,328320,60
82,68,328320,60
85,68,328320,60
77,68,328380,60
73,57,328380,60
92,75,328440,60
80,62,328440,60
85,62,328440,60
79,69,328500,60
77,57,328500,60
94,80,328560,60
82,67,328560,60
85,67,328560,60
77,69,328620,60
73,57,328620,60
80,79,328680,60
85,79,328680,60
92,79,328680,60
77,70,328740,60
79,70,328740,60
94,84,328800,60
82,72,328800,60
85,72,328800,60
77,71,328860,60
73,58,328860,60
92,79,328920,60
80,67,328920,60
85,67,328920,60
79,72,328980,60
77,60,328980,60
94,83,329040,60
82,71,329040,60
85,71,329040,60
77,68,329100,60
73,57,329100,60
92,77,329160,60
80,66,329160,60
85,66,329160,60
101,64,329280,60
97,64,329280,60
99,63,329340,60
97,62,329400,60
91,60,329460,60
85,59,329520,60
89,59,329520,60
87,58,329580,60
85,56,329640,60
79,55,329700,60
89,64,329760,60
85,64,329760,60
87,63,329820,60
85,62,329880,60
79,60,329940,60
73,59,330000,60
77,59,330000,60
75,58,330060,60
73,56,330120,60
67,55,330180,60
94,64,330240,60
90,64,330240,60
92,63,330300,60
90,62,330360,60
84,60,330420,60
78,59,330480,60
82,59,330480,60
80,58,330540,60
78,56,330600,60
72,55,330660,60
82,64,330720,60
78,64,330720,60
80,63,330780,60
78,62,330840,60
72,60,330900,60
66,59,330960,60
70,59,330960,60
68,58,331020,60
66,56,331080,60
60,55,331140,60
73,58,331320,60
65,49,331320,60
68,49,331320,60
85,60,331560,60
80,51,331560,60
77,51,331560,60
73,51,331560,60
73,62,331800,60
76,62,331800,60
64,52,331800,60
69,52,331800,60
88,64,332040,60
85,54,332040,60
81,54,332040,60
76,54,332040,60
77,66,332280,60
65,56,332280,60
69,56,332280,60
72,56,332280,60
89,68,332520,60
84,57,332520,60
81,57,332520,60
77,57,332520,60
78,70,332760,60
74,59,332760,60
66,59,332760,60
90,72,333000,60
86,72,333000,60
78,61,333000,60
68,58,333240,60
77,69,333240,60
65,58,333240,60
73,58,333240,60
89,72,333480,60
85,61,333480,60
80,61,333480,60
77,61,333480,60
73,74,333720,60
81,74,333720,60
76,62,333720,60
69,62,333720,60
90,76,333960,60
85,64,333960,60
81,64,333960,60
88,64,333960,60
81,79,334200,60
77,67,334200,60
69,67,334200,60
72,67,334200,60
93,81,334440,60
84,68,334440,60
81,68,334440,60
89,68,334440,60
69,70,334680,60
81,84,334680,60
74,70,334680,60
78,70,334680,60
81,86,334920,60
93,86,334920,60
86,86,334920,60
90,73,334920,60
77,58,335160,60
85,69,335160,60
73,58,335160,60
80,58,335160,60
97,72,335400,60
92,61,335400,60
89,61,335400,60
85,61,335400,60
81,74,335640,60
88,74,335640,60
85,62,335640,60
76,62,335640,60
100,76,335880,60
93,64,335880,60
88,64,335880,60
97,64,335880,60
89,79,336120,60
84,67,336120,60
77,67,336120,60
81,67,336120,60
101,81,336360,60
93,68,336360,60
89,68,336360,60
96,68,336360,60
78,70,336600,60
90,84,336600,60
86,70,336600,60
90,73,336840,60
102,73,336840,60
98,73,336840,60
90,89,337080,60
78,75,337080,60
83,75,337080,60
87,75,337080,60
102,92,337320,60
99,78,337320,60
95,78,337320,60
90,78,337320,60
91,94,337560,60
86,94,337560,60
83,79,337560,60
79,79,337560,60
103,97,337800,60
95,82,337800,60
91,82,337800,60
98,82,337800,60
92,100,337920,120
80,85,337920,120
88,85,337920,120
92,100,338160,120
80,85,338160,120
88,85,338160,120
92,107,338400,240
88,90,338400,240
80,90,338400,240
90,100,338640,60
87,85,338640,60
78,85,338640,60
88,100,338760,60
76,85,338760,60
85,85,338760,60
87,85,338880,60
75,85,338880,60
83,85,338880,60
88,102,339000,60
76,86,339000,60
85,86,339000,60
90,105,339120,60
78,89,339120,60
87,89,339120,60
92,107,339360,240
88,90,339360,240
80,90,339360,240
90,100,339600,60
78,85,339600,60
87,85,339600,60
88,100,339720,60
76,85,339720,60
85,85,339720,60
87,104,339840,60
75,88,339840,60
83,88,339840,60
88,98,339960,60
76,83,339960,60
85,83,339960,60
90,100,340080,60
78,85,340080,60
87,85,340080,60
92,105,340320,240
88,89,340320,240
80,89,340320,240
90,101,340560,60
78,85,340560,60
87,85,340560,60
88,101,340680,60
76,85,340680,60
85,85,340680,60
87,99,340800,60
75,84,340800,60
83,84,340800,60
88,101,340920,60
76,85,340920,60
85,85,340920,60
90,104,341040,60
78,88,341040,60
87,88,341040,60
92,107,341160,60
80,90,341160,60
90,107,341280,60
85,90,341280,60
78,90,341280,60
88,106,341400,60
76,90,341400,60
87,104,341520,60
75,88,341520,60
85,102,341640,60
73,86,341640,60
89,103,341760,420
77,87,341760,420
80,87,341760,420
85,87,341760,420
87,101,342180,60
75,85,342180,60
84,92,342240,360
90,109,342240,360
78,92,342240,360
84,101,342600,120
72,85,342600,120
87,107,342720,60
75,90,342720,60
85,98,342960,480
73,83,342960,480
77,83,342960,480
80,83,342960,480
85,98,343440,120
73,83,343440,120
77,83,343440,120
94,108,343680,120
82,91,343680,120
85,91,343680,120
94,105,343920,120
82,89,343920,120
85,89,343920,120
92,108,344160,480
80,91,344160,480
83,91,344160,480
86,91,344160,480
90,100,344640,120
78,85,344640,120
82,85,344640,120
90,105,344880,480
78,89,344880,480
82,89,344880,480
90,102,345360,240
78,86,345360,240
82,86,345360,240
97,111,345600,240
85,94,345600,240
94,94,345600,240
97,104,345840,240
85,88,345840,240
94,88,345840,240
96,110,346080,240
84,93,346080,240
92,93,346080,240
94,102,346320,240
82,86,346320,240
90,86,346320,240
92,103,346560,120
80,87,346560,120
89,87,346560,120
92,106,346800,480
80,90,346800,480
85,90,346800,480
89,90,346800,480
93,102,347400,120
81,86,347400,120
94,109,347520,120
82,92,347520,120
89,96,347880,120
77,81,347880,120
90,102,348000,120
78,86,348000,120
86,93,348120,120
74,79,348120,120
87,100,348240,120
75,85,348240,120
83,93,348360,120
71,79,348360,120
84,101,348480,120
72,85,348480,120
81,91,348600,120
69,77,348600,120
82,97,348720,120
70,82,348720,120
77,90,348840,120
65,76,348840,120
78,98,348960,120
66,83,348960,120
74,88,349080,120
62,74,349080,120
75,96,349200,120
63,81,349200,120
71,91,349320,120
59,76,349320,120
72,96,349440,120
60,81,349440,120
69,93,349560,120
57,79,349560,120
70,100,349680,120
58,84,349680,120
65,95,349800,120
53,80,349800,120
66,103,349920,120
54,87,349920,120
62,99,350040,120
50,84,350040,120
63,107,350160,120
51,90,350160,120
60,102,350280,120
48,86,350280,120
54,86,350280,120
61,106,350400,420
54,90,350400,360
49,90,350400,420
66,94,350840,40
54,79,350840,40
66,104,350880,420
54,88,350880,420
64,89,351320,40
52,75,351320,40
64,98,351360,180
57,83,351360,180
52,83,351360,180
62,92,351560,40
50,78,351560,40
57,84,351600,180
62,99,351600,180
50,84,351600,180
61,87,351800,40
49,73,351800,40
57,97,351840,180
61,97,351840,180
49,82,351840,180
60,90,352040,40
48,76,352040,40
60,97,352080,180
57,82,352080,180
48,82,352080,180
61,90,352280,40
49,76,352280,40
61,97,352320,240
49,82,352320,240
81,96,352800,240
78,81,352800,240
73,81,352800,240
69,81,352800,240
85,96,353280,240
73,81,353280,240
77,81,353280,240
80,81,353280,240
87,96,353520,240
75,81,353520,240
80,81,353520,240
84,81,353520,240
89,96,353760,240
77,81,353760,240
80,81,353760,240
85,81,353760,240
92,96,354000,240
80,81,354000,240
84,81,354000,240
87,81,354000,240
97,96,354240,240
85,81,354240,240
89,81,354240,240
92,81,354240,240
85,100,355200,240
73,85,355200,240
78,85,355200,240
82,85,355200,240
61,107,356160,240
53,89,356160,240
56,92,356160,240
49,65,1880,30
61,74,1880,30
49,72,1920,420
61,82,1920,420
54,72,2360,30
66,72,2360,30
66,81,2400,420
54,81,2400,420
52,64,2840,30
64,73,2840,30
52,70,2880,180
64,80,2880,180
51,65,3080,30
63,65,3080,30
51,70,3120,180
63,80,3120,180
49,65,3320,30
61,74,3320,30
49,71,3360,180
61,81,3360,180
48,64,3560,30
60,73,3560,30
48,70,3600,180
60,80,3600,180
49,63,3800,30
61,72,3800,30
49,71,3840,120
61,81,3840,120
31,40,4080,40
40,29,4120,40
31,40,4160,40
40,31,4200,40
31,39,4240,40
40,30,4280,40
31,39,4320,40
40,34,4360,40
31,41,4400,40
40,37,4440,40
31,43,4480,40
40,38,4520,40
31,44,4560,40
40,41,4600,40
31,46,4640,40
40,42,4680,40
31,48,4720,40
40,43,4760,40
31,49,4800,40
40,45,4840,40
31,51,4880,40
40,45,4920,40
31,53,4960,40
40,47,5000,40
31,54,5040,40
40,49,5080,40
31,56,5120,40
40,52,5160,40
31,57,5200,40
40,58,5240,40
31,59,5280,40
40,60,5320,40
31,61,5360,40
40,62,5400,40
31,62,5440,40
40,63,5480,40
31,64,5520,40
40,65,5560,40
31,67,5600,40
40,68,5640,40
31,69,5680,40
40,70,5720,40
30,67,5780,40
39,72,5780,40
31,78,5820,120
40,82,5820,120
29,40,9840,40
38,29,9880,40
29,40,9920,40
38,31,9960,40
29,39,10000,40
38,30,10040,40
29,39,10080,40
38,34,10120,40
29,41,10160,40
38,37,10200,40
29,43,10240,40
38,38,10280,40
29,44,10320,40
38,41,10360,40
29,46,10400,40
38,42,10440,40
29,48,10480,40
38,43,10520,40
29,49,10560,40
38,45,10600,40
29,51,10640,40
38,45,10680,40
29,53,10720,40
38,47,10760,40
29,54,10800,40
38,49,10840,40
29,56,10880,40
38,52,10920,40
29,57,10960,40
38,58,11000,40
29,59,11040,40
38,60,11080,40
29,61,11120,40
38,63,11160,40
29,64,11200,40
38,65,11240,40
29,66,11280,40
38,67,11320,40
29,68,11360,40
38,69,11400,40
29,70,11440,40
38,71,11480,40
37,72,11520,40
28,65,11520,40
29,75,11580,120
38,81,11580,120
56,73,13380,60
56,73,13440,840
57,73,14280,60
59,73,14340,60
52,73,14400,480
52,73,15240,120
54,73,15360,660
57,73,16020,60
56,73,16080,60
54,73,16140,60
56,73,16200,60
57,73,16260,60
56,73,16320,480
52,73,17160,120
61,73,17280,840
62,73,18120,60
64,73,18180,60
57,73,18240,480
57,75,19080,120
60,77,19200,660
63,73,19860,60
61,73,19920,60
60,73,19980,60
61,73,20040,60
63,73,20100,60
61,73,20160,480
57,70,24480,360
59,63,24840,80
61,63,24900,80
54,70,24960,360
56,65,25320,80
57,66,25380,80
49,70,25440,360
51,63,25800,80
52,63,25860,80
45,70,25920,360
47,66,26280,80
49,66,26340,80
42,70,26400,360
44,62,26760,80
45,62,26820,80
39,68,26880,240
40,55,27120,60
39,49,27180,60
40,55,27240,60
39,48,27300,60
40,55,27360,60
39,50,27420,60
40,55,27480,60
39,51,27540,60
40,55,27600,60
39,50,27660,60
40,55,27720,60
39,52,27780,60
40,55,27840,60
39,50,27900,60
40,55,27960,60
39,51,28020,60
40,55,28080,60
39,50,28140,60
40,55,28200,60
39,52,28260,60
40,55,28320,60
39,50,28380,60
40,55,28440,60
39,51,28500,60
40,55,28560,60
39,50,28620,60
40,55,28680,60
39,52,28740,60
38,55,28800,72
39,52,28860,72
40,55,28920,72
39,50,28980,72
37,51,29040,72
35,53,29100,72
33,54,29160,72
32,56,29220,72
33,57,29280,72
29,59,29340,180
30,51,29520,81
32,51,29587,81
33,51,29655,80
35,52,29722,80
37,52,29789,67
39,54,29856,81
40,54,29923,81
42,54,29991,80
44,55,30058,80
45,55,30125,81
47,56,30192,81
49,56,30259,81
51,57,30327,80
52,57,30394,80
48,64,30461,81
51,60,30528,81
49,65,30595,81
47,67,30663,80
45,72,30730,80
44,75,30797,81
45,78,30864,81
41,81,30931,80
42,84,30999,80
43,87,31065,80
44,89,31133,64
44,93,31200,240
32,92,31680,240
64,50,32040,90
73,50,32040,90
61,42,32040,90
73,58,32160,1320
61,49,32160,1320
64,49,32160,1320
71,50,33480,90
59,42,33480,90
63,42,33480,90
71,58,33600,360
59,49,33600,360
63,49,33600,360
69,50,33960,90
57,42,33960,90
61,42,33960,90
69,56,34080,360
57,47,34080,360
61,47,34080,360
66,50,34440,90
54,42,34440,90
57,42,34440,90
66,56,34560,360
54,47,34560,360
57,47,34560,360
64,52,34920,90
52,44,34920,90
56,44,34920,90
64,58,35040,360
52,49,35040,360
56,49,35040,360
61,50,35400,90
49,42,35400,90
52,42,35400,90
61,56,35520,360
49,47,35520,360
52,47,35520,360
59,50,35880,90
47,42,35880,90
51,42,35880,90
59,57,36000,360
47,47,36000,360
51,47,36000,360
57,53,36360,90
45,45,36360,90
49,45,36360,90
57,58,36480,360
45,48,36480,360
49,48,36480,360
54,55,36840,90
42,46,36840,90
45,46,36840,90
54,59,36960,360
42,50,36960,360
45,50,36960,360
52,56,37320,90
40,47,37320,90
44,47,37320,90
52,60,37440,360
40,50,37440,360
44,50,37440,360
49,58,37800,90
37,48,37800,90
40,48,37800,90
49,61,37920,360
37,51,37920,360
40,51,37920,360
47,59,38280,90
35,49,38280,90
39,49,38280,90
47,63,38400,360
35,53,38400,360
39,53,38400,360
45,60,38760,90
33,50,38760,90
40,50,38760,90
45,81,38880,480
33,68,38880,480
40,68,38880,480
43,80,39360,480
31,68,39360,480
41,84,39840,480
29,71,39840,480
40,84,40320,480
28,71,40320,480
38,83,40800,480
26,70,40800,480
37,80,41280,480
25,68,41280,480
36,85,41760,240
24,72,41760,240
45,81,42000,480
33,69,42000,480
44,79,42480,120
32,67,42480,120
49,63,42720,480
37,53,42720,480
44,53,42720,480
51,62,43200,480
36,52,43200,480
45,52,43200,480
49,59,43680,240
37,50,43680,240
44,50,43680,240
45,52,43920,240
30,44,43920,240
42,44,43920,240
44,60,44160,240
32,51,44160,240
40,51,44160,240
44,57,44400,240
42,48,44400,240
39,48,44400,240
32,48,44400,240
37,52,44640,120
40,52,44640,120
44,57,44640,120
30,52,44880,120
37,52,44880,120
42,57,44880,120
37,52,45840,60
40,57,45840,60
56,63,46560,480
44,53,46560,480
51,53,46560,480
58,62,47040,480
43,52,47040,480
52,52,47040,480
56,59,47520,240
44,50,47520,240
51,50,47520,240
52,52,47760,240
37,44,47760,240
49,44,47760,240
51,60,48000,240
39,51,48000,240
47,51,48000,240
51,57,48240,240
49,48,48240,240
46,48,48240,240
39,48,48240,240
44,52,48480,120
47,52,48480,120
51,57,48480,120
37,46,48720,720
46,50,48720,60
44,45,48780,60
46,50,48840,60
44,45,48900,60
46,50,48960,60
44,45,49020,60
46,50,49080,60
44,45,49140,60
46,50,49200,60
44,45,49260,60
43,50,49320,60
44,45,49380,60
47,54,49440,80
46,49,49520,80
44,49,49600,80
32,41,49680,120
39,41,49680,120
44,45,49680,120
40,44,50325,1995
47,46,50340,1980
56,48,50355,1965
51,46,52320,960
35,39,52320,960
47,39,53280,880
40,32,53280,880
52,52,54180,54
40,37,54240,960
47,40,54240,960
52,44,54240,720
54,35,54960,120
56,38,55080,120
45,37,55200,960
52,40,55200,960
57,41,55200,320
57,40,55520,160
57,44,55680,128
56,43,55840,128
55,41,56000,128
56,44,56160,477
44,36,56160,480
52,36,56160,480
52,38,56640,480
37,32,56640,480
54,40,57120,480
35,33,57120,480
51,37,57600,480
47,31,57600,480
52,42,58080,480
40,36,58080,480
47,36,58080,480
37,48,60000,240
64,43,60240,720
61,36,60240,720
56,36,60240,720
52,36,60240,720
37,48,60960,240
68,43,61200,720
64,36,61200,720
61,36,61200,720
56,36,61200,720
32,48,61980,180
44,48,61980,180
54,36,62160,720
56,36,62160,720
60,36,62160,720
63,43,62160,720
37,48,62910,210
49,48,62910,210
52,36,63120,480
56,36,63120,480
61,36,63120,480
64,43,63120,480
56,61,63720,120
49,51,63720,120
54,67,63840,720
42,56,63840,720
49,56,63840,720
66,66,64560,220
66,70,64800,180
64,67,64980,45
64,70,65040,180
63,67,65220,45
63,67,65280,240
63,45,65640,90
54,38,65640,90
57,38,65640,90
44,58,65730,510
61,52,65760,480
64,50,66240,240
56,42,66240,240
44,43,66690,270
60,51,66720,240
63,44,67200,240
56,37,67200,240
61,51,67680,480
49,43,67680,480
56,43,67680,480
54,50,68160,480
44,42,68160,480
52,50,68640,240
37,42,68640,240
49,61,69600,60
37,55,69600,480
48,61,69660,60
47,60,69720,60
46,59,69780,60
45,58,69840,60
44,57,69900,60
43,56,69960,60
44,55,70020,60
45,60,70080,60
36,55,70080,480
44,53,70140,60
43,53,70200,60
42,53,70260,60
41,53,70320,60
40,53,70380,60
39,53,70440,60
36,53,70500,60
37,52,70560,240
38,52,70620,60
39,53,70680,60
40,54,70740,60
41,54,70800,60
30,51,70800,240
42,55,70860,60
41,56,70920,60
42,56,70980,60
32,51,71040,240
43,57,71040,60
44,58,71100,60
43,59,71160,60
44,59,71220,60
45,60,71280,60
44,61,71340,60
45,61,71400,60
44,62,71460,60
37,68,71520,120
44,68,71520,120
30,52,71760,120
37,56,71760,48
39,51,71808,48
37,56,71856,48
39,51,71904,48
37,51,71952,48
36,56,72000,40
37,51,72040,40
39,56,72081,40
40,51,72121,40
42,56,72161,40
44,51,72201,40
45,56,72241,40
44,51,72282,40
42,50,72322,40
40,51,72362,40
39,52,72402,40
37,53,72442,40
36,55,72482,40
37,56,72523,40
39,57,72563,40
40,59,72603,40
39,61,72643,40
37,62,72683,36
25,52,72690,150
40,62,72720,120
56,61,73440,60
44,55,73440,480
55,61,73500,60
54,60,73560,60
53,59,73620,60
52,58,73680,60
51,57,73740,60
50,56,73800,60
51,55,73860,60
43,55,73920,400
52,60,73920,60
51,53,73980,60
50,53,74040,60
49,53,74100,60
48,53,74160,60
47,53,74220,60
46,53,74280,60
43,53,74340,60
44,52,74400,240
45,52,74460,60
46,53,74520,60
47,54,74580,60
37,51,74640,240
48,54,74640,60
49,55,74700,60
48,56,74760,60
49,56,74820,60
50,57,74880,60
51,58,74940,60
50,59,75000,60
51,59,75060,60
52,60,75120,60
51,61,75180,60
52,61,75240,60
51,62,75300,60
44,55,75360,120
51,63,75360,120
37,52,75600,120
44,56,75600,48
45,51,75648,48
44,56,75696,48
45,51,75744,48
44,51,75792,48
43,56,75840,40
44,51,75880,40
46,56,75921,40
47,51,75961,40
49,56,76001,40
51,51,76041,40
52,56,76081,40
51,51,76122,40
49,50,76162,40
47,51,76202,40
46,52,76242,40
44,53,76282,40
43,55,76322,40
44,56,76363,40
46,57,76403,40
47,59,76443,40
46,61,76483,40
44,62,76523,36
39,52,76560,120
32,52,76560,120
44,62,76560,120
64,50,77220,60
76,59,77280,60
71,50,77280,60
59,49,77700,60
76,58,77760,60
71,49,77760,60
64,55,78180,60
76,63,78240,480
71,53,78240,480
59,44,78720,420
63,57,79140,60
78,64,79200,480
71,54,79200,480
59,47,79680,480
64,55,80100,60
76,63,80160,480
71,53,80160,480
59,46,80640,420
63,57,81060,60
78,64,81120,480
71,54,81120,480
59,49,81600,480
64,55,82020,60
76,63,82080,480
71,53,82080,480
59,47,82560,420
63,57,82980,60
78,64,83040,480
71,54,83040,480
59,48,83520,480
68,57,83940,60
76,63,84000,420
71,53,84000,420
64,47,84420,480
71,51,84450,450
80,59,84480,420
63,53,84900,480
71,58,84930,450
78,64,84960,420
61,51,85380,480
68,54,85410,450
76,59,85440,420
60,52,85860,540
68,54,85890,510
75,64,85920,480
56,50,86400,480
61,53,86820,480
68,58,86850,450
76,64,86880,420
56,50,87360,480
60,52,87780,540
68,54,87810,510
75,64,87840,480
56,50,88320,480
61,53,88740,480
68,58,88770,450
76,64,88800,420
56,50,89280,480
60,52,89700,540
68,54,89730,510
75,64,89760,480
56,50,90240,480
61,53,90660,480
68,58,90690,450
76,64,90720,420
76,50,91200,480
69,42,91200,480
73,42,91200,480
66,52,91680,480
73,54,91680,480
75,64,91680,480
78,50,92160,480
63,42,92160,480
69,42,92160,480
73,42,92160,480
68,54,92640,480
73,54,92640,480
76,64,92640,480
68,54,93120,390
75,54,93120,390
78,64,93120,390
61,54,93510,570
68,54,93540,540
73,54,93570,510
76,64,93600,480
64,49,95040,480
71,45,95280,60
76,53,95280,60
59,49,95520,480
71,44,95760,60
76,52,95760,60
64,49,96000,480
71,50,96240,60
76,59,96240,60
59,49,96480,480
76,58,96720,60
71,49,96720,60
63,49,96960,480
78,59,97200,60
71,50,97200,60
59,49,97440,480
75,58,97680,60
71,49,97680,60
64,49,97920,480
71,50,98160,60
76,59,98160,60
59,49,98400,480
76,58,98640,60
71,49,98640,60
63,49,98880,480
78,59,99120,60
71,50,99120,60
59,49,99360,480
75,58,99600,60
71,49,99600,60
64,49,99840,480
71,50,100080,60
76,59,100080,60
64,49,100320,480
80,58,100560,60
71,49,100560,60
63,49,100800,480
78,59,101040,60
71,50,101040,60
61,49,101280,480
68,49,101520,60
76,58,101520,60
73,49,101520,60
60,49,101760,480
75,59,102000,60
68,50,102000,60
56,49,102240,480
63,49,102480,60
72,58,102480,60
61,49,102720,480
76,59,102960,60
68,50,102960,60
56,49,103200,480
73,58,103440,60
68,49,103440,60
64,49,103440,60
60,49,103680,480
66,50,103920,60
75,59,103920,60
68,50,103920,60
56,49,104160,480
66,49,104400,60
63,49,104400,60
72,58,104400,60
61,49,104640,480
76,59,104880,60
68,50,104880,60
64,49,105120,300
64,49,105360,60
73,58,105360,60
66,49,105600,480
73,50,105840,60
75,59,105840,60
69,50,105840,60
63,49,106080,480
69,49,106320,60
78,58,106320,60
73,49,106323,60
67,49,106560,480
76,59,106800,60
73,50,106800,60
70,50,106800,60
68,49,107040,480
75,49,107280,60
72,49,107280,60
78,58,107280,60
61,49,107520,480
68,50,107760,60
73,50,107760,60
76,59,107760,60
64,39,111360,240
71,40,111480,60
68,47,111600,60
71,47,111720,60
59,39,111840,240
71,39,111960,60
68,46,112080,60
71,39,112200,60
64,39,112320,240
71,40,112440,60
68,47,112560,60
71,47,112680,60
59,39,112800,240
71,39,112920,60
68,46,113040,60
71,39,113160,60
66,39,113280,240
71,40,113400,60
69,47,113520,60
71,47,113640,60
59,39,113760,240
71,39,113880,60
69,46,114000,60
71,39,114120,60
64,39,114240,240
71,40,114360,60
68,47,114480,60
71,47,114600,60
59,39,114720,240
71,39,114840,60
68,46,114960,60
71,39,115080,60
66,39,115200,240
71,40,115320,60
69,47,115440,60
71,47,115560,60
59,39,115680,240
71,39,115800,60
69,46,115920,60
71,39,116040,60
64,39,116160,240
71,40,116280,60
68,47,116400,60
71,47,116520,60
64,39,116640,240
71,39,116760,60
68,46,116880,60
71,39,117000,60
63,39,117120,240
71,40,117240,60
66,47,117360,60
71,47,117480,60
61,39,117600,240
68,39,117720,60
64,46,117840,60
68,39,117960,60
60,39,118080,240
68,40,118200,60
63,47,118320,60
68,47,118440,60
56,39,118560,240
68,39,118680,60
63,46,118800,60
68,39,118920,60
61,39,119040,240
68,40,119160,60
64,47,119280,60
68,47,119400,60
56,39,119520,240
68,39,119640,60
64,46,119760,60
68,39,119880,60
60,39,120000,240
68,40,120120,60
63,47,120240,60
68,47,120360,60
56,39,120480,240
68,39,120600,60
63,46,120720,60
68,39,120840,60
61,39,120960,240
68,40,121080,60
64,47,121200,60
68,47,121320,60
56,39,121440,240
68,39,121560,60
64,46,121680,60
68,39,121800,60
60,39,121920,240
68,40,122040,60
63,47,122160,60
68,47,122280,60
56,39,122400,240
68,39,122520,60
63,46,122640,60
68,39,122760,60
61,39,122880,240
68,40,123000,60
64,47,123120,60
68,47,123240,60
56,39,123360,240
68,39,123480,60
63,36,123600,60
66,46,123600,60
68,39,123720,60
61,46,123840,240
77,37,123960,120
68,48,124080,120
77,39,124200,120
73,47,124320,120
77,39,124440,120
68,48,124560,120
77,42,124680,120
61,50,124800,240
77,43,124920,120
68,50,125040,120
77,45,125160,120
73,52,125280,120
77,46,125400,120
68,53,125520,120
77,48,125640,120
61,52,125760,240
77,44,125880,120
68,51,126000,120
77,45,126120,120
73,53,126240,120
77,46,126360,120
68,52,126480,120
77,47,126600,120
61,48,126720,240
77,36,126840,120
68,49,126960,120
77,43,127080,120
73,51,127200,120
77,44,127320,120
68,50,127440,120
77,43,127560,120
61,48,127680,120
77,35,127800,120
68,47,127920,120
77,40,128040,120
61,46,128160,120
77,39,128280,120
68,44,128400,120
77,36,128520,120
61,40,128640,120
77,29,128760,120
68,39,128880,120
77,33,129000,120
61,38,129120,120
77,32,129240,120
68,36,129360,120
77,1,129480,120
61,33,129600,120
77,25,129720,120
68,34,129840,120
77,30,129960,120
61,35,130080,120
77,30,130200,120
68,35,130320,120
77,30,130440,120
61,33,130560,240
77,30,130800,240
68,30,130800,240
45,44,132480,96
52,34,132600,96
57,35,132720,96
61,36,132840,96
64,37,132960,96
69,38,133080,96
73,36,133200,96
44,44,133440,96
53,34,133560,96
59,35,133680,96
61,36,133800,96
65,37,133920,96
71,38,134040,96
73,36,134160,96
42,44,134400,96
49,34,134520,96
54,35,134640,96
57,36,134760,96
61,37,134880,96
66,38,135000,96
69,36,135120,96
37,44,135360,96
49,34,135480,96
53,35,135600,96
56,36,135720,96
61,37,135840,96
65,38,135960,96
68,36,136080,96
45,44,136320,96
52,34,136440,96
57,35,136560,96
61,36,136680,96
64,37,136800,96
69,38,136920,96
73,36,137040,96
44,44,137280,96
53,34,137400,96
59,35,137520,96
61,36,137640,96
65,37,137760,96
71,38,137880,96
73,36,138000,96
42,44,138240,240
66,35,138480,240
61,35,138480,240
69,35,138480,240
37,37,138720,240
65,36,138960,240
59,36,138960,240
68,36,138960,240
42,44,139200,240
58,36,139440,720
70,36,139440,720
66,36,139440,720
45,44,140160,96
52,34,140280,96
57,36,140400,96
61,38,140520,96
64,40,140640,96
69,42,140760,96
73,44,140880,96
44,44,141120,96
53,34,141240,96
59,35,141360,96
61,36,141480,96
65,37,141600,96
71,38,141720,96
73,36,141840,96
42,44,142080,96
49,42,142200,96
54,41,142320,96
57,41,142440,96
61,40,142560,96
66,39,142680,96
69,38,142800,96
37,44,143040,96
49,34,143160,96
53,35,143280,96
56,36,143400,96
61,37,143520,96
65,38,143640,96
68,36,143760,96
45,44,144000,96
52,34,144120,96
57,35,144240,96
61,36,144360,96
64,37,144480,96
69,38,144600,96
73,36,144720,96
44,44,144960,96
53,34,145080,96
59,31,145200,96
61,32,145320,96
65,33,145440,96
71,34,145560,96
73,32,145680,96
42,33,145920,240
61,26,146160,240
69,26,146160,240
66,26,146160,240
37,27,146400,240
65,27,146640,240
59,27,146640,240
68,27,146640,240
42,33,146880,240
58,27,147075,765
61,27,147090,750
66,27,147105,735
70,27,147120,720
49,54,147840,96
37,46,147840,96
48,48,147960,96
36,40,147960,96
35,40,148080,96
47,48,148080,96
46,48,148200,96
34,40,148200,96
45,48,148320,96
33,40,148320,96
32,41,148440,96
44,48,148440,96
43,51,148560,96
31,43,148560,96
44,55,148680,96
32,46,148680,96
33,48,148800,96
45,57,148800,96
44,54,148920,96
32,45,148920,96
43,48,149040,96
31,41,149040,96
42,48,149160,96
30,41,149160,96
29,41,149280,96
41,48,149280,96
40,48,149400,96
28,41,149400,96
39,48,149520,96
27,40,149520,96
24,40,149640,96
36,48,149640,96
25,46,149760,96
37,54,149760,96
38,47,149880,96
26,39,149880,96
39,49,150000,96
27,42,150000,96
28,44,150120,96
40,52,150120,96
41,58,150240,96
29,49,150240,96
42,54,150360,96
30,46,150360,96
29,50,150480,96
41,59,150480,96
42,56,150600,96
30,48,150600,96
43,64,150720,96
31,54,150720,96
32,51,150840,96
44,61,150840,96
43,65,150960,96
31,55,150960,96
44,59,151080,96
32,50,151080,96
33,62,151200,96
45,74,151200,96
44,64,151320,96
32,53,151320,96
45,74,151440,96
33,62,151440,96
32,57,151560,96
44,68,151560,96
37,89,151680,120
25,75,151680,120
54,89,152160,120
42,75,152160,120
49,75,152160,120
52,89,152640,120
37,75,152640,120
44,75,152640,120
56,54,153600,96
44,46,153600,96
43,40,153720,96
55,48,153720,96
54,48,153840,96
42,40,153840,96
53,48,153960,96
41,40,153960,96
40,40,154080,96
52,48,154080,96
51,48,154200,96
39,41,154200,96
50,51,154320,96
38,43,154320,96
39,46,154440,96
51,55,154440,96
52,57,154560,96
40,48,154560,96
51,54,154680,96
39,45,154680,96
38,41,154800,96
50,48,154800,96
49,48,154920,96
37,41,154920,96
48,48,155040,96
36,41,155040,96
35,41,155160,96
47,48,155160,96
46,48,155280,96
34,40,155280,96
43,48,155400,96
31,40,155400,96
32,46,155520,96
44,54,155520,96
45,47,155640,96
33,39,155640,96
46,49,155760,96
34,42,155760,96
35,44,155880,96
47,52,155880,96
48,58,156000,96
36,49,156000,96
49,54,156120,96
37,46,156120,96
36,50,156240,96
48,59,156240,96
49,56,156360,96
37,48,156360,96
50,64,156480,96
38,54,156480,96
51,61,156600,96
39,51,156600,96
50,65,156720,96
38,55,156720,96
51,59,156840,96
39,50,156840,96
52,74,156960,96
40,62,156960,96
39,53,157080,96
51,64,157080,96
52,74,157200,96
40,62,157200,96
51,68,157320,96
39,57,157320,96
32,75,157440,120
44,89,157440,120
56,75,157920,120
61,89,157920,120
49,75,157920,120
51,75,158400,120
59,89,158400,120
44,75,158400,120
47,69,159240,120
35,58,159240,120
52,78,159360,120
40,66,159360,120
56,55,159720,120
64,78,159720,120
59,55,159720,120
56,60,159840,240
64,84,159840,240
59,60,159840,240
35,56,160200,120
47,67,160200,120
52,70,160320,120
40,60,160320,120
59,73,160680,120
56,61,160680,120
56,64,160800,240
59,78,160800,240
47,82,161160,120
35,69,161160,120
51,92,161280,120
39,78,161280,120
59,66,161640,120
57,66,161640,120
57,70,161760,240
59,70,161760,240
35,67,162180,69
47,79,162180,60
40,70,162240,120
52,84,162240,120
59,77,162600,120
56,64,162600,120
59,82,162720,240
56,68,162720,240
47,82,163080,120
35,69,163080,120
52,92,163200,120
40,78,163200,120
64,63,163680,160
52,53,163680,160
54,56,163840,160
66,66,163840,160
56,59,164000,160
68,70,164000,160
57,51,164160,480
69,73,164160,480
45,60,164640,160
57,71,164640,160
52,60,164640,160
44,56,164800,160
56,67,164800,160
52,56,164800,160
52,52,164960,160
43,52,164960,160
55,62,164960,160
52,71,165120,480
44,71,165120,480
56,84,165120,480
44,71,165600,480
37,71,165600,480
49,84,165600,480
42,71,166080,720
35,71,166080,720
45,71,166080,720
47,84,166080,720
28,61,166980,40
40,72,166980,40
40,77,167040,80
28,77,167040,80
44,68,167120,80
47,70,167200,80
52,71,167280,80
56,73,167360,80
59,75,167440,80
64,78,167520,80
59,79,167600,80
56,81,167680,80
52,82,167760,80
47,84,167840,80
44,86,167920,80
40,84,168000,120
52,84,168000,120
47,84,168000,120
32,58,168840,120
44,69,168840,120
49,78,168960,120
37,66,168960,120
61,55,169320,90
64,55,169320,90
68,78,169320,90
56,55,169320,90
56,60,169440,240
64,60,169440,240
68,84,169440,240
61,60,169440,240
32,56,169800,120
44,67,169800,120
49,70,169920,120
37,60,169920,120
64,61,170280,90
56,61,170280,90
61,61,170280,90
68,73,170280,90
68,78,170400,240
56,64,170400,240
61,64,170400,240
64,64,170400,240
32,69,170760,120
44,82,170760,120
48,92,170880,120
36,78,170880,120
68,66,171240,90
66,66,171240,90
63,66,171240,90
56,66,171240,90
56,70,171360,240
66,70,171360,240
63,70,171360,240
68,70,171360,240
32,67,171780,60
44,79,171780,60
49,84,171840,120
37,70,171840,120
56,64,172200,90
64,64,172200,90
61,64,172200,90
68,77,172200,90
68,82,172320,240
64,68,172320,240
61,68,172320,240
56,68,172320,240
29,69,172740,60
53,82,172740,60
41,69,172740,60
42,78,172800,720
54,92,172800,720
30,78,172800,720
57,53,173700,60
69,63,173700,60
61,53,173700,60
57,59,173760,180
69,70,173760,180
61,59,173760,180
56,52,173940,60
68,62,173940,60
59,52,173940,60
56,58,174000,180
68,69,174000,180
59,58,174000,180
54,52,174180,60
66,62,174180,60
57,52,174180,60
54,58,174240,240
66,69,174240,240
57,58,174240,240
49,69,174660,60
37,69,174660,60
50,78,174720,720
38,78,174720,720
69,63,175620,45
66,53,175620,45
66,59,175680,180
69,70,175680,180
68,62,175860,45
64,52,175860,45
68,69,175920,180
64,58,175920,180
62,52,176100,45
66,62,176100,45
66,69,176160,240
62,58,176160,240
34,69,176580,60
46,69,176580,60
47,78,176640,480
35,78,176640,480
57,53,177060,45
69,63,177060,45
66,53,177060,45
66,59,177120,180
69,70,177120,180
57,59,177120,180
68,62,177300,45
56,52,177300,45
64,52,177300,45
68,69,177360,180
56,58,177360,180
64,58,177360,180
66,62,177540,60
54,52,177540,60
63,52,177540,60
36,78,177600,480
48,78,177600,480
66,53,178020,45
57,53,178020,45
69,63,178020,45
66,59,178080,180
57,59,178080,180
69,70,178080,180
64,52,178260,45
56,52,178260,45
68,62,178260,45
64,58,178320,180
56,58,178320,180
68,69,178320,180
63,52,178500,60
54,52,178500,60
66,62,178500,60
43,78,178560,480
31,78,178560,480
82,63,178980,45
79,53,178980,45
70,45,178980,45
82,70,179040,180
79,59,179040,180
70,49,179040,180
81,62,179220,45
78,52,179220,45
69,44,179220,45
81,69,179280,180
78,58,179280,180
69,49,179280,180
79,62,179460,45
76,52,179460,45
67,44,179460,45
76,69,179520,180
79,69,179520,180
67,58,179520,180
73,62,179700,45
76,62,179700,45
64,52,179700,45
73,69,179760,180
76,69,179760,180
64,58,179760,180
72,62,179940,45
75,62,179940,45
63,52,179940,45
72,69,180000,180
75,69,180000,180
63,58,180000,180
70,62,180180,45
73,62,180180,45
61,52,180180,45
70,69,180240,180
73,69,180240,180
61,58,180240,180
67,62,180420,45
70,62,180420,45
58,52,180420,45
70,70,180480,180
67,59,180480,180
58,49,180480,180
69,62,180660,45
66,52,180660,45
57,44,180660,45
69,69,180720,180
66,58,180720,180
57,49,180720,180
67,62,180900,45
64,52,180900,45
55,44,180900,45
64,69,180960,180
67,69,180960,180
55,58,180960,180
61,62,181140,45
64,62,181140,45
52,52,181140,45
61,69,181200,180
52,58,181200,180
64,69,181200,180
60,62,181380,45
51,52,181380,45
63,62,181380,45
60,69,181440,180
51,58,181440,180
63,69,181440,180
58,62,181620,45
49,52,181620,45
61,62,181620,45
61,69,181680,180
58,69,181680,180
49,58,181680,180
58,62,181860,45
55,62,181860,45
46,52,181860,45
55,59,181920,180
58,70,181920,180
46,49,181920,180
54,52,182100,45
57,62,182100,45
45,44,182100,45
54,58,182160,180
57,69,182160,180
45,49,182160,180
52,52,182340,45
55,62,182340,45
43,44,182340,45
55,69,182400,180
52,69,182400,180
43,58,182400,180
31,55,182820,60
43,64,182820,60
37,55,182820,60
40,55,182820,60
44,64,182880,120
40,55,182880,120
32,55,182880,120
37,55,182880,120
37,56,183240,120
44,67,183240,120
32,56,183240,120
40,56,183240,120
32,61,183360,120
44,72,183360,120
37,61,183360,120
40,61,183360,120
44,64,183720,120
40,55,183720,120
32,55,183720,120
37,55,183720,120
39,61,183840,480
44,72,183840,480
32,61,183840,480
42,61,183840,480
32,57,184320,360
44,68,184320,360
39,57,184320,360
42,57,184320,360
44,40,184740,495
52,42,184750,485
56,45,184760,465
61,51,184770,465
44,45,185235,480
52,48,185250,465
56,53,185265,450
61,58,185280,435
44,47,185715,525
51,49,185725,515
56,52,185735,505
60,55,185745,495
56,48,186675,480
64,51,186690,465
68,53,186705,450
73,57,186720,435
56,37,187155,480
64,39,187170,465
68,41,187185,450
73,44,187200,435
56,51,187650,465
66,54,187665,450
72,57,187680,435
56,51,188130,465
66,54,188145,450
72,57,188160,435
56,41,188595,480
64,44,188610,465
68,47,188625,450
73,51,188640,435
56,36,189075,480
64,38,189090,465
68,40,189105,450
73,43,189120,435
56,50,189570,465
66,52,189585,450
72,55,189600,435
68,50,196080,210
61,44,196290,150
68,46,196305,135
77,48,196320,120
68,47,196770,150
75,49,196785,135
78,51,196800,120
61,42,197250,150
68,46,197265,135
77,49,197280,120
73,50,198000,240
82,44,198240,120
66,44,198240,240
73,44,198240,240
82,44,198480,120
80,54,198720,480
65,44,198720,240
74,44,198720,240
63,48,199200,240
70,48,199200,240
78,50,199200,120
78,54,199440,480
75,53,199920,240
78,53,199920,240
82,61,200160,240
85,61,200160,240
82,53,200400,240
85,53,200400,240
80,60,200640,360
84,60,200640,360
78,48,201000,120
82,57,201000,120
77,56,201120,120
80,65,201120,120
68,56,201360,480
77,56,201360,480
80,56,201360,480
77,50,201840,195
81,50,201840,195
68,45,202035,165
72,49,202050,150
78,53,202065,135
82,58,202080,120
58,34,203370,52
56,35,203422,51
54,35,203473,52
53,35,203525,52
51,35,203577,51
49,35,203628,52
48,35,203680,51
46,35,203731,52
44,35,203783,52
42,35,203835,51
41,35,203886,52
39,35,203937,63
37,35,204000,60
41,35,204060,60
44,36,204120,60
49,37,204180,60
53,38,204240,60
56,39,204300,60
61,39,204360,60
65,40,204420,60
49,41,205920,120
56,34,206160,60
61,34,206160,60
44,42,206400,120
56,34,206640,60
63,34,206640,60
49,44,206880,60
56,34,207120,60
61,34,207120,60
49,45,207360,60
56,34,207600,60
61,34,207600,60
54,47,207840,60
66,34,208080,60
61,34,208080,60
53,47,208320,60
65,34,208560,60
62,34,208560,60
51,43,208800,120
63,34,209040,60
58,34,209040,60
51,46,209280,120
63,34,209520,60
58,34,209520,60
42,50,209760,120
61,33,210000,240
70,40,210000,240
61,33,210240,480
68,40,210240,360
66,40,210600,120
44,50,210720,120
65,40,210960,120
61,40,210960,120
56,40,211200,120
65,46,211560,120
69,46,211560,120
66,50,211680,60
70,50,211680,60
66,50,211920,480
70,50,211920,480
63,47,212400,240
56,37,212400,240
61,51,212640,60
61,53,212880,480
49,42,212880,480
56,42,212880,480
49,47,213600,120
37,37,213600,120
61,34,213840,60
65,34,213840,60
68,34,213840,60
56,47,214080,120
44,37,214080,120
63,34,214320,60
66,34,214320,60
68,34,214320,60
49,45,214560,60
37,36,214560,60
61,34,214800,60
65,34,214800,60
68,34,214800,60
56,46,215040,60
44,36,215040,60
65,34,215280,60
61,34,215280,60
68,34,215280,60
54,43,215520,60
42,34,215520,60
61,34,215760,60
70,34,215760,60
66,34,215760,60
53,44,216000,60
41,35,216000,60
58,34,216240,60
68,34,216240,60
62,34,216240,60
51,50,216480,120
39,40,216480,120
66,34,216720,60
63,34,216720,60
58,47,216960,120
46,37,216960,120
66,34,217200,60
63,34,217200,60
54,48,217440,240
42,38,217440,240
73,40,217680,240
61,34,217680,240
70,34,217680,240
72,40,217920,360
61,34,217920,480
68,34,217920,360
70,40,218280,120
66,34,218280,120
44,55,218400,60
65,40,218640,120
68,40,218640,120
61,40,218640,120
56,40,218880,120
65,46,219240,120
77,46,219240,120
66,50,219360,60
78,50,219360,60
44,37,219840,480
56,47,219840,480
51,37,219840,480
49,45,220320,60
56,51,220320,60
56,53,220560,360
49,42,220560,360
61,38,221520,90
77,34,221640,90
68,39,221760,90
77,36,221880,90
73,40,222000,90
77,37,222120,90
68,42,222240,90
77,38,222360,90
61,44,222480,90
77,40,222600,90
68,46,222720,90
77,42,222840,90
73,47,222960,90
77,45,223080,90
68,48,223200,90
77,42,223320,90
61,50,223440,90
77,46,223560,90
68,52,223680,90
77,46,223800,90
73,53,223920,90
77,48,224040,90
68,52,224160,90
77,46,224280,120
61,50,224400,120
69,46,224640,120
72,42,224880,120
77,42,224880,120
70,46,225120,120
82,42,225360,120
77,35,225360,120
65,46,225600,120
87,41,225840,120
81,34,225840,120
77,34,225840,120
85,47,226080,120
82,39,226080,120
87,41,226320,120
84,34,226320,120
77,34,226320,120
85,45,226560,120
82,37,226560,120
87,39,226800,120
84,32,226800,120
77,32,226800,120
85,43,227040,120
82,35,227040,120
87,37,227280,120
84,31,227280,120
77,31,227280,120
85,41,227520,120
82,34,227520,120
87,36,227760,120
84,30,227760,120
77,30,227760,120
82,35,228000,120
85,43,228000,120
70,44,229890,480
85,44,229920,450
70,49,230370,480
85,49,230400,450
68,48,230850,720
84,50,230880,690
66,51,231570,240
82,51,231600,210
65,58,231810,270
80,58,231840,240
68,52,232320,1200
77,52,232320,1200
80,52,232320,1200
81,47,233520,240
77,39,233520,240
82,55,233760,120
68,46,233760,120
72,46,233760,120
78,46,233760,120
56,39,234675,165
63,41,234690,130
66,44,234705,135
72,46,234720,120
37,33,235650,270
44,36,235665,255
49,39,235680,240
53,39,235740,60
56,40,235800,60
49,34,237840,90
65,30,237960,90
56,35,238080,90
65,32,238200,90
61,36,238320,90
65,33,238440,90
56,37,238560,90
65,34,238680,90
49,39,238800,90
65,36,238920,90
56,41,239040,90
65,37,239160,90
61,42,239280,90
65,40,239400,90
56,43,239520,90
65,37,239640,90
49,45,239760,90
65,41,239880,90
56,46,240000,90
65,41,240120,90
61,47,240240,90
65,43,240360,90
56,46,240480,90
65,41,240600,120
49,45,240720,120
57,41,240960,120
60,37,241200,120
65,37,241200,120
58,41,241440,120
70,37,241680,120
65,31,241680,120
53,41,241920,120
75,36,242160,120
69,30,242160,120
65,30,242160,120
73,42,242400,120
70,35,242400,120
75,36,242640,120
72,30,242640,120
65,30,242640,120
73,40,242880,120
70,33,242880,120
75,35,243120,120
72,28,243120,120
65,28,243120,120
73,38,243360,120
70,31,243360,120
75,33,243600,120
72,27,243600,120
65,27,243600,120
73,36,243840,120
70,30,243840,120
75,32,244080,120
72,27,244080,120
65,27,244080,120
70,31,244320,960
73,38,244320,960
54,56,246600,120
70,56,246720,120
73,56,246720,120
70,54,247440,480
73,54,247440,480
68,53,247920,480
72,53,247920,480
54,54,249540,60
42,45,249540,60
53,63,249600,120
44,53,249600,120
56,45,250320,2160
65,45,250320,2160
68,45,250320,2160
65,64,253860,60
53,54,253860,60
66,75,253920,120
54,63,253920,120
48,63,254400,480
32,63,254400,480
39,63,254400,480
44,75,254400,480
37,37,256320,60
44,37,256440,60
56,40,256560,240
49,34,256560,240
37,38,256800,60
44,38,256920,60
56,40,257040,240
49,34,257040,240
37,37,257280,60
44,37,257400,60
56,40,257520,240
49,34,257520,240
37,38,257760,60
44,38,257880,60
56,40,258000,240
49,34,258000,240
37,37,258240,60
44,37,258360,60
56,40,258480,240
49,34,258480,240
37,38,258720,60
44,38,258840,60
56,40,258960,240
49,34,258960,240
37,37,259200,60
44,37,259320,60
56,40,259440,240
49,34,259440,240
37,38,259680,60
44,38,259800,60
56,40,259920,240
49,34,259920,240
37,37,260160,60
45,37,260280,60
57,40,260400,240
49,34,260400,240
37,38,260640,60
45,38,260760,60
57,40,260880,240
49,34,260880,240
37,37,261120,60
45,37,261240,60
57,40,261360,240
49,34,261360,240
37,38,261600,60
45,38,261720,60
57,40,261840,240
49,34,261840,240
37,37,262080,60
45,37,262200,60
57,40,262320,240
49,34,262320,240
37,38,262560,60
45,38,262680,60
57,40,262800,240
49,34,262800,240
37,37,263040,60
49,37,263160,60
62,40,263280,240
54,34,263280,240
37,38,263520,60
49,38,263640,60
62,40,263760,240
54,34,263760,240
37,37,264000,60
49,37,264120,60
62,40,264240,240
54,34,264240,240
37,38,264480,60
49,38,264600,60
62,40,264720,240
54,34,264720,240
37,37,264960,60
49,37,265080,60
62,40,265200,240
54,34,265200,240
65,45,265440,60
71,41,265560,60
74,47,265680,240
61,45,265920,60
66,42,266040,60
69,46,266160,60
65,46,266400,60
71,41,266520,60
74,48,266640,60
61,47,266880,60
66,41,267000,60
69,46,267120,60
68,44,267360,60
75,38,267480,60
78,45,267600,60
61,46,267840,60
68,42,267960,60
72,45,268080,60
56,45,268320,60
63,42,268440,60
66,46,268560,60
37,48,268800,60
44,48,268920,60
56,52,269040,240
49,44,269040,240
49,49,269280,60
56,49,269400,60
61,52,269520,240
37,48,269760,60
44,48,269880,60
56,52,270000,240
49,44,270000,240
49,49,270240,60
56,49,270360,60
61,52,270480,240
37,48,270720,60
44,48,270840,60
56,52,270960,240
49,44,270960,240
37,48,271200,60
45,48,271320,60
57,52,271440,240
49,44,271440,240
49,49,271680,60
57,49,271800,60
64,52,271920,240
37,48,272160,60
45,48,272280,60
57,52,272400,240
49,44,272400,240
49,49,272640,60
57,49,272760,60
64,52,272880,240
37,48,273120,60
45,48,273240,60
57,52,273360,240
49,44,273360,240
37,48,273600,60
45,48,273720,60
57,52,273840,240
49,44,273840,240
49,49,274080,60
54,49,274200,60
62,52,274320,240
57,44,274320,240
37,48,274560,60
45,48,274680,60
57,52,274800,240
49,44,274800,240
49,49,275040,60
54,49,275160,60
62,52,275280,240
57,44,275280,240
37,48,275520,60
45,48,275640,60
57,52,275760,240
49,44,275760,240
65,58,276000,60
71,53,276120,60
74,61,276240,240
61,58,276480,60
66,54,276600,60
69,59,276720,60
65,59,276960,60
71,53,277080,60
74,62,277200,60
61,61,277440,60
66,53,277560,60
69,59,277680,60
68,57,277920,60
75,49,278040,60
78,58,278160,60
61,59,278400,60
68,54,278520,60
72,58,278640,60
56,58,278880,60
63,54,279000,60
66,59,279120,60
49,40,279360,60
56,35,279480,60
68,35,279600,60
61,35,279600,60
56,35,279720,60
49,40,279840,60
56,36,279960,60
68,36,280080,60
61,36,280080,60
56,37,280200,60
49,40,280320,60
56,35,280440,60
68,35,280560,60
61,35,280560,60
56,35,280680,60
49,40,280800,60
56,36,280920,60
68,36,281040,60
60,36,281040,60
56,37,281160,60
49,40,281280,60
56,35,281400,60
68,35,281520,60
61,35,281520,60
56,35,281640,60
49,40,281760,60
56,36,281880,60
68,36,282000,60
61,36,282000,60
56,37,282120,60
49,45,282240,60
56,40,282360,60
68,40,282480,60
61,40,282480,60
56,40,282600,60
49,46,282720,60
56,39,282840,60
68,39,282960,60
60,39,282960,60
56,37,283080,60
49,40,283200,60
56,35,283320,60
68,35,283440,60
61,35,283440,60
56,35,283560,60
49,40,283680,60
56,36,283800,60
68,36,283920,60
61,36,283920,60
56,37,284040,60
49,40,284160,60
56,35,284280,60
68,35,284400,60
61,35,284400,60
56,35,284520,60
49,40,284640,60
56,36,284760,60
68,36,284880,60
60,36,284880,60
56,37,285000,60
49,40,285120,60
56,35,285240,60
68,35,285360,60
61,35,285360,60
56,35,285480,60
49,40,285600,60
56,36,285720,60
68,36,285840,60
61,36,285840,60
56,37,285960,60
49,44,286080,60
56,39,286200,60
68,39,286320,60
61,39,286320,60
56,39,286440,60
49,44,286560,60
56,36,286680,60
68,36,286800,60
60,36,286800,60
56,37,286920,60
49,40,287040,60
56,35,287160,60
65,35,287280,60
61,35,287280,60
56,35,287400,60
49,40,287520,60
56,36,287640,60
66,36,287760,60
60,36,287760,60
56,37,287880,60
49,40,288000,60
56,35,288120,60
65,35,288240,60
61,35,288240,60
56,35,288360,60
49,40,288480,60
56,36,288600,60
66,36,288720,60
60,36,288720,60
56,37,288840,60
49,40,288960,60
56,35,289080,60
65,35,289200,60
61,35,289200,60
56,35,289320,60
49,40,289440,60
56,36,289560,60
66,36,289680,60
60,36,289680,60
56,37,289800,60
49,40,289920,60
56,35,290040,60
65,35,290160,60
61,35,290160,60
56,35,290280,60
49,40,290400,60
56,36,290520,60
66,36,290640,60
60,36,290640,60
56,37,290760,60
49,40,290880,60
56,35,291000,60
65,35,291120,60
61,35,291120,60
56,35,291240,60
49,40,291360,60
56,36,291480,60
66,36,291600,60
60,36,291600,60
56,37,291720,60
49,40,291840,60
56,35,291960,60
65,35,292080,60
61,35,292080,60
56,35,292200,60
49,40,292320,60
56,36,292440,60
66,36,292560,60
60,36,292560,60
56,37,292680,60
49,40,292800,60
56,35,292920,60
65,35,293040,60
61,35,293040,60
56,35,293160,60
49,40,293281,60
56,36,293400,60
66,36,293520,60
60,36,293520,60
56,37,293640,60
49,40,293761,60
56,35,293881,60
65,35,294001,60
61,35,294001,60
56,35,294121,60
49,40,294241,60
56,36,294361,60
66,36,294481,60
60,36,294481,60
56,37,294601,60
49,40,294721,60
56,35,294841,60
65,35,294961,60
61,35,294961,60
56,35,295080,60
49,42,295201,60
56,37,295321,60
66,37,295441,60
60,37,295441,60
56,38,295561,60
49,42,295681,60
56,36,295801,60
65,36,295921,60
61,36,295921,60
56,36,296041,60
49,42,296160,60
56,37,296280,60
66,37,296400,60
60,37,296400,60
56,38,296520,60
49,42,296641,60
56,36,296761,60
65,36,296881,60
61,36,296881,60
56,36,297001,60
49,42,297120,60
56,37,297240,60
66,37,297360,60
60,37,297360,60
56,38,297480,60
49,42,297601,60
56,36,297721,60
65,36,297841,60
61,36,297841,60
56,36,297961,60
49,42,298080,60
56,37,298200,60
66,37,298320,60
60,37,298320,60
56,38,298440,60
49,43,298561,60
56,37,298681,60
65,37,298801,60
61,37,298801,60
56,38,298921,60
49,44,299040,60
56,39,299160,60
66,40,299280,60
60,40,299280,60
56,41,299400,60
49,41,299490,270
65,54,299520,240
80,60,299760,300
77,60,299760,300
85,55,300120,60
82,55,300120,60
84,55,300240,60
80,55,300240,60
82,55,300360,60
78,55,300360,60
77,60,300480,120
80,60,300480,120
82,51,300840,40
78,51,300840,120
84,51,300880,40
82,51,300920,40
80,60,300960,60
77,60,300960,60
78,54,301080,60
75,54,301080,60
77,54,301200,60
73,54,301200,60
68,54,301320,60
75,54,301320,60
65,54,301440,120
73,54,301440,120
68,60,301680,300
65,60,301680,300
73,55,302040,60
70,55,302040,60
72,55,302160,60
68,55,302160,60
70,55,302280,60
66,55,302280,60
65,60,302400,120
68,60,302400,120
65,60,302640,300
68,60,302640,300
66,54,303000,60
63,54,303000,60
65,54,303120,60
61,54,303120,60
56,54,303240,60
63,54,303240,60
53,62,303360,60
61,62,303360,60
56,58,303840,480
63,58,303840,360
66,53,304200,60
61,58,304320,240
65,61,304320,60
68,55,304440,60
61,55,304560,120
56,58,304800,480
63,58,304800,360
66,53,305160,60
61,58,305280,240
65,61,305280,60
68,55,305400,60
61,55,305520,120
56,63,305760,480
63,63,305760,360
66,58,306120,60
61,63,306240,240
65,67,306240,60
68,60,306360,60
61,60,306480,120
48,50,306720,60
49,51,306780,60
51,52,306840,60
53,53,306900,60
54,54,306960,60
56,55,307020,60
58,57,307080,60
60,58,307140,60
61,59,307200,60
63,60,307260,60
65,61,307320,60
66,62,307380,60
68,63,307440,120
60,56,307680,60
61,57,307740,60
63,59,307800,60
65,60,307860,60
66,61,307920,60
68,63,307980,60
70,64,308040,60
72,65,308100,60
73,67,308160,60
75,68,308220,60
77,69,308280,60
78,71,308340,60
80,72,308400,120
53,61,308640,60
54,62,308700,60
56,64,308760,60
58,65,308820,60
59,66,308880,60
61,67,308940,60
63,69,309000,60
65,70,309060,60
66,72,309120,60
68,73,309180,60
70,74,309240,60
71,76,309300,60
73,77,309360,120
65,67,309600,60
66,69,309660,60
68,70,309720,60
70,72,309780,60
71,73,309840,60
73,75,309900,60
75,77,309960,60
77,78,310020,60
78,80,310080,60
80,81,310140,60
82,83,310200,60
84,85,310260,60
85,86,310320,120
48,88,310560,240
36,64,310560,240
44,64,310560,240
42,64,310560,240
51,78,310800,240
39,57,310800,240
44,57,310800,240
42,57,310800,240
51,85,311040,240
39,63,311040,240
41,63,311040,240
44,63,311040,240
49,78,311280,240
37,57,311280,240
41,57,311280,240
44,57,311280,240
53,86,311520,240
41,64,311520,240
47,64,311520,240
49,64,311520,240
56,78,311760,240
44,57,311760,240
47,57,311760,240
49,57,311760,240
56,86,312000,240
44,64,312000,240
46,64,312000,240
49,64,312000,240
54,81,312240,240
42,59,312240,240
46,59,312240,240
49,59,312240,240
30,71,312480,240
42,98,312480,240
70,93,312720,60
58,69,312720,60
61,69,312720,60
66,69,312720,60
70,88,312840,60
58,66,312840,60
61,66,312840,60
66,66,312840,60
70,95,312960,120
58,71,312960,120
61,71,312960,120
66,71,312960,120
54,81,313200,60
42,69,313200,60
49,69,313200,60
53,73,313320,60
41,61,313320,60
49,61,313320,60
53,80,313440,360
41,67,313440,360
49,67,313440,360
39,68,313920,240
51,94,313920,240
66,89,314160,60
54,66,314160,60
58,66,314160,60
63,66,314160,60
66,84,314280,60
54,63,314280,60
58,63,314280,60
63,63,314280,60
66,91,314400,120
54,68,314400,120
58,68,314400,120
63,68,314400,120
54,56,314760,120
42,47,314760,120
54,56,314880,60
47,47,314880,60
56,59,315000,60
44,50,315000,60
56,63,315120,120
49,53,315120,120
36,51,315360,60
37,53,315420,60
39,54,315480,60
41,55,315540,60
42,57,315600,60
44,58,315660,60
46,59,315720,60
47,60,315780,60
49,62,315840,60
51,63,315900,60
53,65,315960,60
54,66,316020,60
56,67,316080,120
41,58,316320,60
42,60,316380,60
44,61,316440,60
46,62,316500,60
47,63,316560,60
49,65,316620,60
51,66,316680,60
53,67,316740,60
54,68,316800,60
56,70,316860,60
58,71,316920,60
59,72,316980,60
61,73,317040,120
30,71,317280,240
42,98,317280,240
61,93,317520,60
49,69,317520,60
54,69,317520,60
58,69,317520,60
61,88,317640,60
49,66,317640,60
54,66,317640,60
58,66,317640,60
61,95,317760,120
49,71,317760,120
54,71,317760,120
58,71,317760,120
54,81,318000,60
46,69,318000,60
49,69,318000,60
53,73,318120,60
45,61,318120,60
48,61,318120,60
53,80,318240,360
45,67,318240,360
48,67,318240,360
27,76,318720,240
39,94,318720,240
58,89,318960,60
46,66,318960,60
51,66,318960,60
54,66,318960,60
58,84,319080,60
46,63,319080,60
51,63,319080,60
54,63,319080,60
58,91,319200,120
46,68,319200,120
51,68,319200,120
54,68,319200,120
42,48,319800,60
30,40,319800,60
47,51,319920,60
35,43,319920,60
44,54,320040,60
32,45,320040,60
49,56,320160,60
37,47,320160,60
42,52,320280,60
30,44,320280,60
47,55,320400,60
35,46,320400,60
44,58,320520,60
32,49,320520,60
49,61,320640,60
37,51,320640,60
42,52,320760,60
30,44,320760,60
47,56,320880,60
35,47,320880,60
44,59,321000,60
32,49,321000,60
49,61,321120,60
37,51,321120,60
42,57,321240,60
30,48,321240,60
47,60,321360,60
35,50,321360,60
44,63,321480,60
32,53,321480,60
49,69,321600,60
37,69,321600,60
42,65,321720,60
30,55,321720,60
47,65,321840,60
35,55,321840,60
44,65,321960,60
32,55,321960,60
49,70,322080,60
37,59,322080,60
44,63,322200,60
32,53,322200,60
49,63,322320,60
37,53,322320,60
44,63,322440,60
32,53,322440,60
49,72,322560,60
37,61,322560,60
44,69,322680,60
32,58,322680,60
49,71,322800,60
37,59,322800,60
44,72,322920,60
32,60,322920,60
49,78,323040,60
37,66,323040,60
44,76,323160,60
32,64,323160,60
49,77,323280,60
37,65,323280,60
44,79,323400,60
32,66,323400,60
49,85,323520,60
37,71,323520,60
46,63,325440,80
51,55,325520,80
55,55,325600,80
61,62,325680,120
46,63,325920,80
51,55,326000,80
55,55,326080,80
61,62,326160,120
44,63,326400,80
51,59,326460,60
54,59,326520,60
60,59,326580,60
66,62,326640,120
44,62,326880,60
51,58,326940,60
54,58,327000,60
60,58,327060,60
66,62,327120,120
49,62,327360,60
65,62,327360,60
46,63,329280,60
51,58,329340,60
55,58,329400,60
61,58,329460,60
67,62,329520,120
46,63,329760,80
51,55,329840,80
55,55,329920,80
61,62,330000,120
44,63,330240,80
51,59,330300,60
54,59,330360,60
60,59,330420,60
66,62,330480,120
44,62,330720,80
51,57,330800,80
54,57,330880,80
60,62,330960,120
61,60,331200,60
49,51,331200,60
60,60,331320,60
48,51,331320,60
59,61,331440,60
47,51,331440,60
58,62,331560,60
46,52,331560,60
57,63,331680,60
45,53,331680,60
56,64,331800,60
44,54,331800,60
55,64,331920,60
43,54,331920,60
54,65,332040,60
42,55,332040,60
53,70,332160,120
41,64,332160,120
52,67,332280,120
40,56,332280,120
51,69,332400,240
39,58,332400,240
50,76,332640,120
38,67,332640,120
49,73,332760,120
37,62,332760,120
48,74,332880,240
36,62,332880,240
61,72,333120,60
49,61,333120,60
60,72,333240,60
48,61,333240,60
59,73,333360,60
47,61,333360,60
58,74,333480,60
46,62,333480,60
57,75,333600,60
45,63,333600,60
56,76,333720,60
44,64,333720,60
55,76,333840,60
43,64,333840,60
54,78,333960,60
42,66,333960,60
53,83,334080,60
41,77,334080,60
52,80,334200,60
40,67,334200,60
51,82,334320,240
39,69,334320,240
50,90,334560,60
38,81,334560,60
49,87,334680,60
37,74,334680,60
48,88,334800,240
36,74,334800,240
61,72,335040,60
49,61,335040,60
60,72,335160,60
48,61,335160,60
59,73,335280,60
47,61,335280,60
58,74,335400,60
46,62,335400,60
57,75,335520,60
45,63,335520,60
56,76,335640,60
44,64,335640,60
55,76,335760,60
43,64,335760,60
54,78,335880,60
42,66,335880,60
53,83,336000,60
41,78,336000,60
52,80,336120,60
40,67,336120,60
51,82,336240,240
39,69,336240,240
50,88,336480,60
38,82,336480,60
49,87,336600,60
37,74,336600,60
48,88,336720,240
36,74,336720,240
47,87,336960,60
35,73,336960,60
46,88,337080,60
34,74,337080,60
45,90,337200,60
33,76,337200,60
44,91,337320,60
32,77,337320,60
43,93,337440,60
31,79,337440,60
42,94,337560,60
30,79,337560,60
41,96,337680,240
29,81,337680,240
40,102,337920,120
28,86,337920,120
59,96,338160,120
47,81,338160,120
52,97,338400,120
40,82,338400,120
71,94,338640,120
59,79,338640,120
40,102,338880,120
28,86,338880,120
59,96,339120,120
47,81,339120,120
52,97,339360,120
40,82,339360,120
71,94,339600,120
59,79,339600,120
40,102,339840,120
28,86,339840,120
59,96,340080,120
47,81,340080,120
52,97,340320,120
40,82,340320,120
71,94,340560,120
59,79,340560,120
47,102,340800,120
35,86,340800,120
66,96,341040,120
54,81,341040,120
45,97,341280,120
33,82,341280,120
66,94,341520,120
54,79,341520,120
44,104,341760,120
32,88,341760,120
55,88,341880,120
43,74,341880,120
56,94,342000,120
44,79,342000,120
67,94,342120,120
55,79,342120,120
68,99,342240,120
56,84,342240,120
55,89,342360,120
43,75,342360,120
56,93,342480,240
44,79,342480,240
44,101,342720,120
32,85,342720,120
55,88,342840,120
43,74,342840,120
56,94,342960,120
44,79,342960,120
67,94,343080,120
55,79,343080,120
68,99,343200,120
56,84,343200,120
55,89,343320,120
43,75,343320,120
56,93,343440,240
44,79,343440,240
42,107,343680,120
30,90,343680,120
57,88,343800,120
45,74,343800,120
58,94,343920,240
46,79,343920,240
41,106,344160,120
29,90,344160,120
61,89,344280,120
49,75,344280,120
62,93,344400,240
50,79,344400,240
39,115,344640,120
27,97,344640,120
57,88,344760,120
45,74,344760,120
58,94,344880,120
46,79,344880,120
69,94,345000,120
57,79,345000,120
70,99,345120,120
58,84,345120,120
57,89,345240,120
45,75,345240,120
58,93,345360,240
46,79,345360,240
42,108,345600,120
30,91,345600,120
60,88,345720,120
48,74,345720,120
61,94,345840,120
49,79,345840,120
72,94,345960,120
60,79,345960,120
73,99,346080,120
61,84,346080,120
60,89,346200,120
48,75,346200,120
61,93,346320,240
49,79,346320,240
44,105,346560,120
32,89,346560,120
55,88,346680,120
43,74,346680,120
56,94,346800,120
44,79,346800,120
67,94,346920,120
55,79,346920,120
68,99,347040,120
56,84,347040,120
65,79,347400,120
77,79,347400,120
78,100,347520,120
66,85,347520,120
74,72,347880,120
62,60,347880,120
75,76,348000,120
63,64,348000,120
71,69,348120,120
59,59,348120,120
72,75,348240,120
60,63,348240,120
67,69,348360,120
55,59,348360,120
68,75,348480,120
56,63,348480,120
65,68,348600,120
53,57,348600,120
66,72,348720,120
54,61,348720,120
62,67,348840,120
50,57,348840,120
63,73,348960,120
51,62,348960,120
59,66,349080,120
47,55,349080,120
60,72,349200,120
48,60,349200,120
55,68,349320,120
43,56,349320,120
56,71,349440,120
44,60,349440,120
53,69,349560,120
41,58,349560,120
54,74,349680,120
42,62,349680,120
50,70,349800,120
38,60,349800,120
51,77,349920,120
39,64,349920,120
47,74,350040,120
35,62,350040,120
48,80,350160,120
36,67,350160,120
44,75,350280,120
32,64,350280,120
39,64,350280,120
42,80,350400,60
33,68,350400,60
45,75,350460,60
42,80,350520,60
33,68,350520,60
45,74,350580,60
42,74,350640,60
33,62,350640,60
45,80,350700,60
42,74,350760,60
33,62,350760,60
45,80,350820,30
33,73,350850,270
42,73,350865,255
45,73,350880,240
37,80,351360,60
30,68,351360,60
42,75,351420,60
37,80,351480,60
30,68,351480,60
42,74,351540,60
37,74,351600,60
30,62,351600,60
42,80,351660,60
37,74,351720,60
30,62,351720,60
42,80,351780,30
30,73,351810,270
37,73,351825,255
42,73,351840,240
25,68,352320,240
37,73,352320,240
66,79,352800,240
61,67,352800,240
57,67,352800,240
54,67,352800,240
61,79,353280,240
49,67,353280,240
53,67,353280,240
56,67,353280,240
56,79,353520,240
44,67,353520,240
48,67,353520,240
51,67,353520,240
49,79,353760,240
37,67,353760,240
41,67,353760,240
44,67,353760,240
44,79,354000,240
32,67,354000,240
36,67,354000,240
39,67,354000,240
49,79,354240,240
37,67,354240,240
41,67,354240,240
44,67,354240,240
66,82,355200,240
61,70,355200,240
58,70,355200,240
54,70,355200,240
49,86,356160,240
37,73,356160,240
41,73,356160,240
44,77,356160,240
40,39,13815,345
47,44,13830,330
50,47,13845,315
56,51,13860,300
40,39,14775,345
47,44,14790,330
50,47,14805,315
56,51,14820,300
40,39,15735,345
47,44,15750,330
50,47,15765,315
54,51,15780,300
40,39,16695,345
47,44,16710,330
50,47,16725,315
56,51,16740,300
40,43,17655,345
49,47,17670,330
52,50,17685,315
57,54,17700,300
40,43,18615,345
49,47,18630,330
52,50,18645,315
57,54,18660,300
40,43,19575,345
48,47,19590,330
51,50,19605,315
57,54,19620,300
40,43,20535,345
49,47,20550,330
52,50,20565,315
57,54,20580,300
39,48,21030,2010
49,49,21045,1995
54,51,21060,1980
91,47,194400,58
92,47,194458,58
94,47,194516,58
92,47,194573,43
94,42,194616,43
92,47,194659,43
94,40,194703,43
92,47,194746,43
94,41,194789,43
92,47,194832,43
94,41,194875,43
92,47,194919,43
94,41,194962,43
92,47,195005,43
94,42,195048,43
92,47,195091,43
94,41,195135,43
92,47,195178,43
94,41,195221,43
92,47,195264,43
94,42,195307,43
92,47,195360,43
94,41,195403,43
92,47,195447,43
94,41,195490,43
92,47,195533,43
94,42,195576,43
92,47,195619,43
94,40,195663,43
92,47,195706,43
94,41,195749,43
92,47,195792,43
94,41,195835,43
92,47,195879,43
94,41,195922,43
92,47,195965,43
94,42,196008,43
92,47,196051,43
94,41,196095,43
92,47,196138,43
94,41,196181,43
92,47,196224,43
94,42,196267,43
92,47,196320,43
94,41,196363,43
92,47,196407,43
94,41,196450,43
92,47,196493,43
94,42,196536,43
92,47,196579,43
94,40,196623,43
92,47,196666,43
94,41,196709,43
92,47,196752,43
94,41,196795,43
92,47,196839,43
94,41,196882,43
92,47,196925,43
94,42,196968,43
92,47,197011,43
94,41,197055,43
92,47,197098,43
94,41,197141,43
92,47,197184,43
94,42,197227,43
92,47,197280,43
94,41,197323,43
92,47,197367,43
94,41,197410,43
92,47,197453,43
94,42,197496,43
92,47,197539,43
94,40,197583,43
92,47,197626,43
94,41,197669,43
92,47,197712,43
94,41,197755,43
92,47,197799,43
94,41,197842,43
92,47,197885,55
94,42,197940,60
92,47,198000,60
94,42,198060,60
94,64,198240,43
96,41,198283,43
94,47,198327,43
96,41,198370,43
94,47,198413,43
96,42,198456,43
94,61,198499,43
96,40,198543,43
94,47,198586,43
96,41,198629,43
94,47,198672,43
96,41,198715,43
94,47,198759,43
96,41,198802,43
94,47,198845,43
96,42,198888,43
94,47,198931,43
96,41,198975,43
94,47,199018,43
96,41,199061,43
94,47,199104,43
96,42,199147,43
94,47,199200,43
96,41,199243,43
94,47,199287,43
96,41,199330,43
94,47,199373,43
96,42,199416,43
94,47,199459,43
96,40,199503,43
94,47,199546,43
96,41,199589,43
94,47,199632,43
96,41,199675,43
94,47,199719,43
96,41,199762,43
94,47,199805,43
96,42,199848,43
94,47,199891,43
96,41,199935,43
97,70,200160,43
99,41,200203,43
97,47,200247,43
99,41,200290,43
97,47,200333,43
99,42,200376,43
97,66,200419,43
99,40,200463,43
97,47,200506,43
99,41,200549,43
97,47,200592,43
99,41,200635,43
97,47,200679,43
99,41,200722,43
97,47,200765,43
99,42,200808,43
97,47,200851,43
99,41,200895,43
97,47,200938,43
99,41,200981,43
97,47,201024,43
99,42,201067,43
97,47,201120,43
99,41,201163,43
97,47,201207,43
99,41,201250,43
97,47,201293,43
99,42,201336,43
97,47,201379,43
99,40,201423,43
97,47,201466,43
99,41,201509,43
97,47,201552,43
99,41,201595,43
97,47,201639,43
99,41,201682,43
97,47,201725,43
99,42,201768,43
97,47,201811,43
99,41,201854,36
94,47,228000,60
96,41,228060,72
94,47,228120,72
96,41,228180,72
94,47,228240,60
96,41,228300,72
94,47,228360,72
96,41,228420,72
94,47,228480,60
96,41,228540,72
94,47,228600,72
96,41,228660,72
94,47,228720,60
96,41,228780,72
94,47,228840,72
96,41,228900,72
94,47,228960,60
96,41,229020,72
94,47,229080,72
96,41,229140,72
94,47,229200,60
96,41,229260,72
94,47,229320,72
96,41,229380,72
94,47,229440,60
96,41,229500,72
94,47,229560,72
96,41,229620,72
93,48,229680,60
94,49,229740,72
95,51,229800,71
96,52,229860,72
97,66,229920,60
99,47,229980,72
97,54,230040,72
99,48,230100,72
97,54,230160,60
99,47,230220,72
97,52,230280,72
99,47,230340,72
97,59,230400,60
99,47,230460,72
97,54,230520,72
99,48,230580,72
97,52,230640,60
99,47,230700,72
97,51,230760,72
99,48,230820,72
97,54,230880,60
99,46,230940,72
97,52,231000,72
99,46,231060,72
97,52,231120,60
99,44,231180,72
97,52,231240,72
99,46,231300,72
97,52,231360,60
99,44,231420,72
97,51,231480,72
99,44,231540,72
97,50,231600,60
99,46,231660,72
97,51,231720,72
99,46,231780,72
97,52,231840,60
99,44,231900,72
97,51,231960,72
99,43,232020,72
97,50,232080,60
99,43,232140,72
97,50,232200,72
99,43,232260,72
97,49,232320,60
99,43,232380,72
97,50,232440,72
99,43,232500,72
97,50,232560,60
99,44,232620,72
97,49,232680,72
99,42,232740,72
97,50,232800,60
99,46,232860,72
97,50,232920,72
99,44,232980,72
97,47,233040,60
99,41,233100,72
97,47,233160,72
99,41,233220,72
97,47,233280,80
99,41,233360,80
97,49,233440,80
96,53,233520,80
97,58,233600,80
98,62,233680,80
82,36,244320,60
84,32,244380,72
82,36,244440,72
84,32,244500,72
82,36,244560,60
84,32,244620,72
82,36,244680,72
84,32,244740,72
82,36,244800,60
84,32,244860,72
82,36,244920,72
84,32,244980,72
82,36,245040,60
84,32,245100,72
82,36,245160,72
84,32,245220,72
92,60,295680,60
94,54,295740,60
92,60,295800,60
94,54,295860,60
92,60,295920,60
94,54,295980,60
92,54,296040,60
94,54,296100,60
92,60,296160,60
94,54,296220,60
92,60,296280,60
94,54,296340,60
92,60,296401,60
94,54,296460,60
92,54,296520,60
94,54,296580,60
92,60,296640,60
94,54,296700,60
92,60,296760,60
94,54,296820,60
92,60,296880,60
94,54,296940,60
92,54,297000,60
94,54,297060,60
92,60,297120,60
94,54,297180,60
92,60,297240,60
94,54,297300,60
92,60,297360,60
94,54,297420,60
92,54,297480,60
94,54,297540,60
92,60,297600,60
94,54,297660,60
92,60,297720,60
94,54,297780,60
92,60,297840,60
94,54,297900,60
92,54,297960,60
94,54,298020,60
92,60,298080,60
94,54,298140,60
92,60,298200,60
94,54,298260,60
92,60,298320,60
94,55,298380,60
92,55,298440,60
94,55,298500,60
92,61,298560,60
94,56,298620,60
92,62,298680,60
94,56,298740,60
92,63,298800,60
94,57,298860,60
92,57,298920,60
94,57,298980,60
92,64,299040,60
94,58,299100,60
92,64,299160,60
94,58,299220,60
92,65,299280,60
94,59,299340,60
92,59,299400,60
94,59,299460,60
