note,velocity,position,duration
46,77,1800,120
51,89,1920,840
55,77,2760,120
56,83,2880,120
57,81,3360,120
58,89,3840,960
87,84,4800,120
82,70,4800,120
79,70,4800,120
75,70,4800,120
46,77,5640,120
51,89,5760,840
55,77,6600,120
58,83,6720,120
60,81,7200,120
61,89,7680,960
91,85,8640,120
87,70,8640,120
82,70,8640,120
79,70,8640,120
48,77,9480,120
51,89,9600,840
56,64,10440,120
60,72,10560,320
61,75,10880,320
62,79,11200,320
63,89,11520,960
92,84,12480,120
87,70,12480,120
84,70,12480,120
80,70,12480,120
48,77,13320,120
51,89,13440,840
56,70,14280,120
60,68,14400,240
63,70,14640,240
64,74,14880,240
65,79,15120,240
66,89,15360,960
93,84,16320,120
90,70,16320,120
84,70,16320,120
81,70,16320,120
63,36,17440,48
68,36,17440,48
65,36,17600,48
71,36,17600,48
66,40,17760,48
72,40,17760,48
68,37,17920,48
74,37,17920,48
69,37,18080,48
75,37,18080,48
71,41,18240,48
77,41,18240,48
72,37,18400,48
78,37,18400,48
74,38,18560,48
80,38,18560,48
75,42,18720,48
81,42,18720,48
77,40,18880,48
83,40,18880,48
78,40,19040,48
84,40,19040,48
80,42,19200,48
86,42,19200,48
81,44,19360,48
87,44,19360,48
83,45,19520,48
89,45,19520,48
84,46,19680,48
90,46,19680,48
86,47,19840,48
92,47,19840,48
87,48,20000,48
93,48,20000,48
89,51,20160,48
95,51,20160,48
90,53,20320,48
96,53,20320,48
91,55,20480,48
97,55,20480,48
92,58,20640,36
98,58,20640,36
93,61,20760,36
99,61,20760,36
94,62,20880,36
100,62,20880,36
95,64,21000,36
101,64,21000,36
102,67,21120,36
96,67,21120,36
75,50,22800,600
69,40,23040,960
77,46,23400,60
75,47,23460,60
74,50,23520,240
72,41,23760,150
72,30,23970,270
77,47,24000,240
69,37,24240,240
70,37,24480,240
70,50,25440,840
64,40,25920,960
72,46,26280,60
70,47,26340,60
68,50,26400,240
67,41,26640,150
67,30,26850,270
72,47,26880,240
64,37,27120,240
65,37,27360,240
65,50,28320,840
63,40,28800,960
67,46,29160,60
65,47,29220,60
64,50,29280,240
65,41,29520,150
58,36,29700,540
65,41,29730,270
70,45,29760,240
62,37,30000,240
63,37,30240,240
58,36,30660,540
63,35,30690,270
71,45,30720,240
62,37,30960,240
63,37,31200,240
63,31,31620,50
53,37,31680,960
56,37,31680,960
63,37,31680,240
59,31,31920,240
63,37,32160,240
60,31,32400,240
63,39,32640,320
61,33,32960,320
63,33,33280,320
62,35,33600,240
63,28,33840,60
62,28,33900,60
61,28,33960,60
62,28,34020,60
58,32,34080,360
62,35,34110,330
67,38,34140,300
56,35,34440,120
65,35,34440,120
58,60,38280,120
63,68,38400,840
67,57,39240,120
68,57,39360,60
69,66,39840,60
70,71,40320,960
75,68,41280,60
67,49,41760,360
70,63,41760,360
65,46,42120,60
68,59,42120,60
67,47,42180,60
70,59,42180,60
65,54,42240,240
68,69,42240,240
67,60,42960,240
64,50,42960,240
68,66,43200,60
65,51,43200,60
67,50,43680,60
70,64,43680,60
67,68,44160,960
63,54,44160,960
58,58,45280,160
59,50,45440,160
60,51,45600,160
61,55,45760,160
62,58,45920,160
63,68,46080,840
67,57,46920,120
68,57,47040,60
69,66,47520,60
69,49,47880,40
70,44,47920,40
72,47,47960,40
70,54,48000,48
72,49,48048,48
70,50,48096,48
72,47,48144,48
70,50,48192,48
72,47,48240,48
70,50,48288,48
72,47,48336,48
70,50,48384,48
72,45,48432,48
70,50,48480,48
72,46,48528,48
70,50,48576,48
72,45,48624,48
70,50,48672,48
72,47,48720,60
70,53,48780,60
69,50,48840,60
70,50,48900,60
79,68,48960,60
75,58,48960,60
67,49,49680,120
70,63,49680,120
65,46,49800,60
68,59,49800,60
67,47,49860,60
70,59,49860,60
65,54,49920,240
68,69,49920,240
64,50,50640,240
67,60,50640,240
68,66,50880,60
65,51,50880,60
62,50,51360,60
70,64,51360,60
63,68,51840,960
70,60,55560,120
63,62,55680,840
75,74,55680,840
67,52,56520,120
79,62,56520,120
68,52,56640,60
80,62,56640,60
69,56,57120,60
81,67,57120,60
70,44,57480,60
75,46,57540,60
82,53,57600,69
84,41,57669,68
82,41,57737,69
81,41,57805,69
82,41,57874,68
84,48,57942,69
82,41,58011,68
75,48,58080,80
70,42,58160,80
63,46,58240,80
70,52,58320,80
75,63,58400,80
82,73,58480,80
87,81,58560,60
67,54,59280,110
70,54,59280,110
67,33,59400,60
70,40,59400,60
66,33,59460,60
69,40,59460,60
65,39,59520,60
68,49,59520,60
82,42,59880,60
79,36,59880,60
81,43,59940,60
78,37,59940,60
77,44,60000,60
80,50,60000,60
94,41,60360,60
91,36,60360,60
90,37,60420,60
93,41,60420,60
92,48,60480,60
89,44,60480,60
64,36,60840,120
67,42,60840,120
65,43,60960,60
68,49,60960,60
67,38,61200,60
70,44,61200,60
67,52,61440,960
63,44,61440,960
70,52,62560,180
58,52,62560,160
71,52,62720,180
59,52,62720,160
72,50,62880,180
60,50,62880,160
73,56,63040,180
61,56,63040,160
74,60,63200,180
62,60,63200,160
75,84,63360,840
63,71,63360,840
79,66,64200,120
67,56,64200,120
80,73,64320,60
68,61,64320,60
81,78,64800,60
69,66,64800,60
70,44,65160,60
75,46,65220,60
82,60,65280,69
84,45,65349,68
82,45,65417,69
81,45,65485,69
82,45,65554,68
84,52,65622,69
82,45,65691,68
75,52,65760,70
70,47,65830,69
63,51,65899,70
70,58,65969,70
75,62,66039,69
82,68,66108,60
82,74,66177,63
91,85,66240,60
87,75,66240,60
67,54,66960,110
70,54,66960,110
67,33,67080,60
70,40,67080,60
66,33,67140,60
69,40,67140,60
65,39,67200,60
68,49,67200,60
82,42,67560,60
79,36,67560,60
81,43,67620,60
78,37,67620,60
77,44,67680,60
80,50,67680,60
94,41,68040,60
91,36,68040,60
90,37,68100,60
93,41,68100,60
92,48,68160,60
89,44,68160,60
64,36,68520,120
67,42,68520,120
65,41,68640,160
68,49,68640,160
68,38,68800,240
72,44,68800,240
67,38,69040,80
70,44,69040,80
67,52,69120,480
63,44,69120,480
85,69,70560,480
82,55,70560,480
84,58,71040,360
80,48,71040,360
86,43,71400,60
84,49,71460,60
82,54,71520,60
79,46,71520,60
80,49,71760,60
77,40,71760,60
79,51,72000,60
75,43,72000,60
77,46,72240,60
70,38,72240,60
75,54,72480,60
67,46,72480,60
67,48,72840,120
63,40,72840,120
68,61,72960,240
65,52,72960,240
70,45,73200,60
68,45,73260,60
67,51,73320,120
64,43,73320,120
68,56,73440,60
65,47,73440,60
69,54,73680,60
66,46,73680,60
70,59,73920,240
67,50,73920,240
85,69,74400,480
82,55,74400,480
84,58,74880,360
80,48,74880,360
86,43,75240,60
84,49,75300,60
82,54,75360,60
79,46,75360,60
80,49,75600,60
77,40,75600,60
79,51,75840,60
75,43,75840,60
77,46,76080,60
70,38,76080,60
75,54,76320,60
67,46,76320,60
67,48,76680,120
63,40,76680,120
68,61,76800,240
65,52,76800,240
70,45,77040,60
68,45,77100,60
67,51,77160,120
64,43,77160,120
68,56,77280,60
65,47,77280,60
70,54,77520,60
62,46,77520,60
63,59,77760,240
82,63,78240,420
87,67,78270,390
97,71,78300,360
80,64,78660,420
87,66,78690,390
96,69,78720,360
94,40,79080,60
98,48,79080,60
92,42,79140,60
96,55,79140,60
94,61,79200,120
91,61,79200,120
92,51,79440,60
89,51,79440,60
91,56,79680,60
87,56,79680,60
89,49,79920,60
82,49,79920,60
87,55,80160,60
79,55,80160,60
63,40,80580,60
67,48,80580,60
68,61,80640,240
65,52,80640,240
70,45,80880,60
68,45,80940,60
67,51,81000,120
64,43,81000,120
68,56,81120,60
65,47,81120,60
69,54,81360,60
66,46,81360,60
70,59,81600,240
67,50,81600,240
82,61,82080,360
87,65,82110,390
97,68,82140,360
80,61,82500,420
87,64,82530,390
96,67,82560,360
94,31,82920,60
98,51,82920,60
92,42,82980,60
96,55,82980,60
94,60,83040,120
91,60,83040,120
92,54,83280,60
89,54,83280,60
91,58,83520,60
87,58,83520,60
89,54,83760,60
82,54,83760,60
87,63,84000,60
79,63,84000,60
67,48,84360,120
63,40,84360,120
68,61,84480,720
65,52,84480,720
64,43,85200,240
67,51,85200,249
65,47,85440,60
68,56,85440,60
62,46,85920,60
70,54,85920,60
58,40,86790,150
63,42,86820,120
67,44,86850,90
70,46,86880,60
67,40,87750,150
70,42,87780,120
75,44,87810,90
79,46,87840,60
79,42,88710,150
82,44,88740,120
87,45,88770,90
91,47,88800,60
70,40,90120,120
67,34,90120,120
68,45,90240,120
65,38,90240,120
75,40,90360,120
72,34,90360,120
74,45,90480,120
70,38,90480,120
79,41,90600,120
75,34,90600,120
77,48,90720,120
74,40,90720,120
84,43,90840,120
80,36,90840,120
82,43,90960,120
79,36,90960,120
80,43,91080,120
77,36,91080,120
79,49,91200,120
75,49,91200,120
77,44,91320,120
74,37,91320,120
75,44,91440,120
72,37,91440,120
74,44,91560,120
70,37,91560,120
72,47,91680,120
68,39,91680,120
70,45,91800,120
67,38,91800,120
69,43,91920,60
66,36,91920,60
68,40,92100,60
65,34,92100,60
67,45,92160,480
63,38,92160,480
58,40,94470,150
63,42,94500,120
67,44,94530,90
70,46,94560,60
67,40,95430,150
70,42,95460,120
75,44,95490,90
79,46,95520,60
79,42,96390,150
82,44,96420,120
87,45,96450,90
91,47,96480,60
70,40,97800,120
67,34,97800,120
67,40,97920,80
70,45,97920,80
66,36,98000,80
69,41,98000,80
65,36,98080,80
68,41,98080,80
72,40,98160,80
75,45,98160,160
71,40,98240,80
70,34,98320,80
74,40,98320,80
75,44,98400,160
79,51,98400,80
78,49,98480,80
74,42,98560,80
77,49,98560,80
84,60,98640,60
80,53,98640,60
79,45,98940,60
76,45,98940,60
80,45,99000,60
77,45,99000,60
76,45,99060,60
73,45,99060,60
74,45,99120,60
77,45,99120,60
73,45,99180,60
69,45,99180,60
70,45,99240,60
74,45,99240,60
67,45,99300,60
71,45,99300,60
68,45,99360,60
72,45,99360,60
64,45,99480,60
67,45,99480,60
67,45,99600,60
70,45,99600,60
65,45,99720,60
68,45,99720,60
67,45,99840,480
63,38,99840,480
58,38,101700,60
63,52,101760,360
67,39,102120,45
67,36,102180,45
68,39,102240,45
68,36,102300,45
69,39,102360,45
69,36,102420,45
70,39,102480,45
70,36,102540,45
75,39,102600,45
75,36,102660,45
79,39,102720,45
79,35,102780,45
80,39,102840,45
80,35,102900,45
81,39,102960,45
81,34,103020,45
82,39,103080,45
82,34,103140,45
87,39,103200,45
87,34,103260,45
91,39,103320,45
91,35,103380,45
92,41,103440,45
92,36,103500,45
93,42,103560,45
93,37,103620,45
93,43,103680,60
94,38,103740,60
96,38,103800,60
94,34,103860,60
91,42,103920,60
87,35,103980,60
84,41,104040,60
82,34,104100,60
79,40,104160,60
75,33,104220,60
72,38,104280,60
70,32,104340,60
67,38,104400,60
63,33,104460,60
62,37,104520,60
63,34,104580,60
67,33,104640,60
70,34,104700,60
75,35,104760,60
79,36,104820,60
82,38,104880,60
87,39,104940,60
91,40,105000,60
94,41,105060,60
99,47,105120,240
70,39,105480,60
67,33,105480,60
68,47,105600,80
65,39,105600,80
82,39,105760,80
67,39,105920,80
64,33,105920,80
68,46,106080,80
65,39,106080,80
94,41,106240,80
70,41,106400,80
67,34,106400,80
72,47,106560,80
68,39,106560,80
82,41,106720,80
74,41,106880,80
70,34,106880,80
75,45,107040,80
72,38,107040,80
94,40,107200,80
77,40,107360,80
74,34,107360,80
79,46,107520,80
75,39,107520,80
77,40,107600,80
70,34,107600,80
75,40,107680,80
67,34,107680,80
77,40,107760,80
70,34,107760,80
79,40,107840,80
75,34,107840,80
77,34,107919,80
82,41,107920,80
87,43,108000,80
79,36,108000,80
89,44,108080,80
82,37,108080,80
91,45,108160,80
87,38,108160,80
94,45,108240,80
89,38,108240,80
99,46,108320,80
91,39,108320,80
101,47,108400,80
94,39,108400,80
99,57,108480,120
103,57,108480,120
58,38,109320,120
63,52,109440,360
67,39,109800,45
67,36,109860,45
68,39,109920,45
68,36,109980,45
69,39,110040,45
69,36,110100,45
70,39,110160,45
70,36,110220,45
75,39,110280,45
75,36,110340,45
79,39,110400,45
79,35,110460,45
80,39,110520,45
80,35,110580,45
81,39,110640,45
81,34,110700,45
82,39,110760,45
82,34,110820,45
87,39,110880,45
87,34,110940,45
91,39,111000,45
91,35,111060,45
92,41,111120,45
92,36,111180,45
93,42,111240,45
93,37,111300,45
93,43,111360,60
94,38,111420,60
96,38,111480,60
94,34,111540,60
91,42,111600,60
87,35,111660,60
84,41,111720,60
82,34,111780,60
79,40,111840,60
75,33,111900,60
72,38,111960,60
70,32,112020,60
67,38,112080,60
63,33,112140,60
62,37,112200,60
63,34,112260,60
67,33,112320,60
70,34,112380,60
75,36,112440,60
79,38,112500,60
82,41,112560,60
87,43,112620,60
91,45,112680,60
94,47,112740,60
99,46,112800,240
103,54,112800,240
67,33,113220,45
70,39,113220,45
68,47,113280,80
65,39,113280,80
82,39,113440,80
67,39,113600,80
64,33,113600,80
68,46,113760,80
65,39,113760,80
94,41,113920,80
70,41,114080,80
67,34,114080,80
72,47,114240,80
68,39,114240,80
82,41,114400,80
67,34,114560,80
70,41,114560,80
68,45,114720,80
65,38,114720,80
94,40,114880,80
58,34,115040,80
65,40,115040,80
55,40,115200,480
63,40,115200,480
82,46,116640,80
87,45,116720,80
97,60,116800,80
87,45,116880,80
89,45,116960,80
87,45,117040,80
80,53,117120,80
87,46,117200,80
96,46,117280,80
87,57,117360,80
89,46,117440,80
87,46,117520,80
79,48,117600,90
94,52,117720,90
77,44,117840,90
92,52,117960,90
75,44,118080,90
91,47,118200,90
74,41,118320,90
90,45,118440,90
75,40,118560,90
91,45,118680,90
76,41,118800,90
91,45,118920,90
77,42,119040,90
92,47,119160,90
76,43,119280,90
91,49,119400,90
77,46,119520,90
92,52,119640,90
78,43,119760,90
93,46,119880,90
79,47,120000,90
94,55,120120,90
70,45,120480,80
75,38,120560,80
85,58,120640,80
75,42,120720,80
77,38,120800,80
75,40,120880,80
68,45,120960,80
75,35,121040,80
84,51,121120,80
75,35,121200,80
77,35,121280,80
75,35,121360,80
67,42,121440,90
82,48,121560,90
65,44,121680,90
80,48,121800,90
63,40,121920,90
79,47,122040,90
62,39,122160,90
78,46,122280,90
63,38,122400,90
79,45,122520,90
64,38,122640,90
79,47,122760,90
65,41,122880,90
80,44,123000,90
64,38,123120,90
79,46,123240,90
65,40,123360,90
80,45,123480,90
61,38,123600,90
76,44,123720,90
62,40,123840,90
77,46,123960,90
82,50,124320,80
87,45,124400,80
97,54,124480,80
87,45,124560,80
89,45,124640,80
87,45,124720,80
80,50,124800,80
87,46,124880,80
96,54,124960,80
87,46,125040,80
89,46,125120,80
87,46,125200,80
79,42,125280,90
94,49,125400,90
77,44,125520,90
92,47,125640,90
75,41,125760,90
91,48,125880,90
74,41,126000,90
90,46,126120,90
75,41,126240,90
91,46,126360,90
76,40,126480,90
91,45,126600,90
77,39,126720,90
92,47,126840,90
76,40,126960,90
91,46,127080,90
77,43,127200,90
92,48,127320,90
78,45,127440,90
93,51,127560,90
79,47,127680,90
94,52,127800,90
70,45,128160,80
75,38,128240,80
85,50,128320,80
75,38,128400,80
77,38,128480,80
75,40,128560,80
68,45,128640,80
75,38,128720,80
84,48,128800,80
75,38,128880,80
77,38,128960,80
75,38,129040,80
67,40,129120,90
82,46,129240,90
65,39,129360,90
80,47,129480,90
63,39,129600,90
79,45,129720,90
62,40,129840,90
78,45,129960,90
63,39,130080,90
79,43,130200,90
64,38,130320,90
79,37,130440,90
65,44,130560,120
80,37,130680,120
67,47,130800,120
82,38,130920,120
68,47,131040,120
83,38,131160,120
71,45,131280,120
88,33,131400,120
74,47,131520,120
89,37,131640,120
76,45,131760,120
91,33,131880,120
77,45,132000,120
92,33,132120,120
79,47,132240,120
94,34,132360,120
80,52,132480,120
95,37,132600,120
83,50,132720,120
100,37,132840,120
86,57,132960,120
101,43,133080,120
85,53,133200,120
100,44,133320,120
86,58,133440,120
101,44,133560,120
85,53,133680,120
100,44,133800,120
86,62,133920,120
101,51,134040,120
85,60,134160,120
100,57,134280,120
86,46,134400,60
92,50,134460,60
95,54,134520,60
98,59,134580,60
103,66,134640,60
102,49,134700,60
98,49,134760,60
95,48,134820,60
102,59,134880,60
101,46,134940,60
98,45,135000,60
95,45,135060,60
101,57,135120,60
100,41,135180,60
95,41,135240,60
92,41,135300,60
100,55,135360,60
99,40,135420,60
95,40,135480,60
92,40,135540,60
99,53,135600,60
98,40,135660,60
92,40,135720,60
89,40,135780,60
98,52,135840,60
97,38,135900,60
92,38,135960,60
89,38,136020,60
97,50,136080,60
96,38,136140,60
92,38,136200,60
89,38,136260,60
96,53,136320,60
95,35,136380,60
92,35,136440,60
89,35,136500,60
95,52,136560,60
94,35,136620,60
89,35,136680,60
86,35,136740,60
94,51,136800,60
93,35,136860,60
89,35,136920,60
86,35,136980,60
93,52,137040,60
92,35,137100,60
89,35,137160,60
86,35,137220,60
92,54,137280,60
91,38,137340,60
86,35,137400,60
83,35,137460,60
91,53,137520,60
90,35,137580,60
86,35,137640,60
83,35,137700,60
90,54,137760,60
89,35,137820,60
86,35,137880,60
83,35,137940,60
89,53,138000,60
88,35,138060,60
83,35,138120,60
80,35,138180,60
88,55,138240,60
87,35,138300,60
83,35,138360,60
80,35,138420,60
87,55,138480,60
86,35,138540,60
80,35,138600,60
77,35,138660,60
86,56,138720,60
85,35,138780,60
80,35,138840,60
77,35,138900,60
85,51,138960,60
84,35,139020,60
80,35,139080,60
77,35,139140,60
84,55,139200,60
83,35,139260,60
80,35,139320,60
77,35,139380,60
83,53,139440,60
82,35,139500,60
77,35,139560,60
74,35,139620,60
82,55,139680,60
81,35,139740,60
77,35,139800,60
74,35,139860,60
81,53,139920,60
80,35,139980,60
77,35,140040,60
74,35,140100,60
80,56,140160,60
79,37,140220,60
74,34,140280,60
71,35,140340,60
79,56,140400,60
78,38,140460,60
74,36,140520,60
71,36,140580,60
78,57,140640,60
77,40,140700,60
74,35,140760,60
71,35,140820,60
77,55,140880,60
76,40,140940,60
71,36,141000,60
68,36,141060,60
76,58,141120,60
75,39,141180,60
71,35,141240,60
68,36,141300,60
75,58,141360,60
74,39,141420,60
68,37,141480,60
65,37,141540,60
74,61,141600,60
73,45,141660,60
68,40,141720,60
65,40,141780,60
73,61,141840,60
72,45,141900,60
68,39,141960,60
65,39,142020,60
72,63,142080,60
71,47,142140,60
68,43,142200,60
65,44,142260,60
71,63,142320,60
70,49,142380,60
65,46,142440,60
62,39,142500,60
61,66,142560,80
62,39,142640,80
65,39,142720,80
68,40,142800,80
69,41,142880,80
70,42,142960,80
71,43,143040,80
74,43,143120,80
77,44,143200,80
80,45,143280,80
81,46,143360,80
82,47,143440,80
83,49,143520,80
86,50,143600,80
89,51,143680,80
92,53,143760,80
93,54,143840,80
94,56,143920,80
95,63,144000,80
98,51,144080,80
96,51,144160,80
93,57,144240,80
96,45,144320,80
94,45,144400,80
91,53,144480,80
94,43,144560,80
92,43,144640,80
88,47,144720,80
91,41,144800,80
89,41,144880,80
85,48,144960,80
87,38,145040,80
86,38,145120,80
83,48,145200,80
86,35,145280,80
84,35,145360,80
81,47,145440,80
84,35,145520,80
82,35,145600,80
79,44,145680,80
82,35,145760,80
80,35,145840,80
76,44,145920,80
79,35,146000,80
77,35,146080,80
73,41,146160,80
75,35,146240,80
74,35,146320,80
71,41,146400,80
74,34,146480,80
72,34,146560,80
68,41,146640,80
72,33,146720,80
70,33,146800,80
67,40,146880,80
70,31,146960,80
68,31,147040,80
64,40,147120,80
67,29,147200,80
65,29,147280,80
61,39,147360,80
63,30,147440,80
62,30,147520,80
59,39,147600,80
62,30,147680,80
60,30,147760,80
57,38,147840,80
58,31,147920,80
60,31,148000,80
58,39,148080,80
57,32,148160,80
58,47,148240,80
62,49,148320,30
62,56,148560,240
60,52,148800,60
60,56,149040,240
55,52,149280,60
58,46,149520,90
60,48,149730,30
58,49,149760,90
57,46,149940,60
58,52,150000,60
53,52,150240,60
55,49,150360,60
56,50,150480,60
60,50,150600,60
58,52,150720,60
56,48,150840,60
55,49,150960,60
53,49,151080,45
57,46,151170,30
58,52,151200,60
58,46,151440,90
58,48,151560,60
60,48,151620,60
58,49,151680,45
57,46,151860,60
58,52,151920,240
62,49,152160,30
62,55,152400,240
60,52,152640,60
60,56,152880,240
55,49,153120,60
58,56,153360,90
60,48,153570,30
58,49,153600,90
57,46,153780,60
58,52,153840,60
53,52,154080,60
55,49,154200,60
56,50,154320,60
60,50,154440,60
58,52,154560,60
56,48,154680,60
55,49,154800,60
53,49,154920,60
55,53,155040,60
51,56,155280,480
54,45,155760,60
55,47,155820,60
57,49,155880,60
58,51,155940,60
62,49,156000,30
62,55,156240,240
60,51,156480,60
60,56,156720,240
55,52,156960,60
58,46,157200,90
60,48,157410,30
58,49,157440,90
57,46,157620,60
58,52,157680,60
53,52,157920,60
55,49,158040,60
56,50,158160,60
60,50,158280,60
58,52,158400,60
56,48,158520,60
55,49,158640,60
53,49,158760,45
57,46,158850,30
58,52,158880,60
58,46,159120,90
58,48,159240,60
60,48,159300,60
58,49,159360,90
57,46,159540,60
58,52,159600,240
62,49,159840,30
62,54,160080,240
60,49,160320,60
60,55,160560,240
55,52,160800,60
58,46,161040,90
60,48,161250,30
58,49,161280,90
57,46,161460,60
58,52,161520,120
53,52,161760,60
55,49,161880,60
56,50,162000,60
60,50,162120,60
58,52,162240,60
56,48,162360,60
55,49,162480,60
53,49,162600,60
55,56,162720,60
51,58,162960,480
66,41,163380,60
69,49,163410,30
70,49,163440,240
67,41,163440,240
74,49,163680,60
65,41,163680,60
70,41,163680,60
74,49,163920,240
65,41,163920,240
70,41,163920,240
72,52,164160,90
68,44,164160,90
72,47,164400,240
62,39,164400,240
68,39,164400,240
67,52,164640,90
63,44,164640,90
67,46,164880,90
70,46,164880,90
58,39,164880,90
72,48,165060,60
70,49,165120,90
67,41,165120,90
69,46,165300,60
66,39,165300,60
70,52,165360,120
67,44,165360,120
65,52,165600,60
58,44,165600,480
67,49,165720,60
68,50,165840,60
72,50,165960,60
70,52,166080,60
68,48,166200,60
67,49,166320,60
65,49,166440,60
67,52,166560,90
70,52,166560,90
67,46,166800,90
70,46,166800,90
58,39,166800,90
72,48,167010,30
70,49,167040,90
67,41,167040,90
69,46,167220,60
66,39,167220,60
70,52,167280,120
67,44,167280,120
86,49,167520,60
77,41,167520,60
82,41,167520,60
86,49,167760,240
77,41,167760,240
82,41,167760,240
84,52,168000,90
80,44,168000,90
84,47,168240,240
74,39,168240,240
80,39,168240,240
79,52,168480,90
75,44,168480,90
79,46,168720,90
82,46,168720,90
70,39,168720,90
84,48,168930,30
82,49,168960,90
79,41,168960,90
81,46,169140,60
78,39,169140,60
82,52,169200,120
79,44,169200,120
77,52,169440,60
70,44,169440,480
79,49,169560,60
80,50,169680,60
84,50,169800,60
70,44,169920,480
82,52,169920,60
80,48,170040,60
79,49,170160,60
77,49,170280,60
70,52,170400,90
79,52,170400,90
70,46,170640,420
75,46,170640,420
67,39,170640,420
74,46,171090,30
67,36,171120,120
70,37,171120,120
75,43,171120,120
89,52,171360,60
82,44,171360,480
91,49,171480,60
92,50,171600,60
96,50,171720,60
82,44,171840,480
94,52,171840,60
92,48,171960,60
91,49,172080,60
89,49,172200,60
82,44,172320,90
94,52,172320,90
91,44,172320,90
82,44,172560,240
94,49,172560,180
91,41,172560,180
93,46,172740,60
90,39,172740,60
82,44,172800,480
94,52,172800,480
91,44,172800,480
77,52,173280,60
70,44,173280,480
79,49,173400,60
80,50,173520,60
84,50,173640,60
70,44,173760,480
82,52,173760,60
80,48,173880,60
79,49,174000,60
77,49,174120,60
70,52,174240,90
79,52,174240,90
70,46,174480,420
75,46,174480,420
67,39,174480,420
74,46,174930,30
67,36,174960,120
70,37,174960,120
75,43,174960,120
89,52,175200,60
82,44,175200,480
91,49,175320,60
92,50,175440,60
96,50,175560,60
82,44,175680,480
94,52,175680,60
92,48,175800,60
91,49,175920,60
89,49,176040,60
82,44,176160,90
94,52,176160,90
91,44,176160,90
82,44,176400,240
94,49,176400,180
91,41,176400,180
93,46,176580,60
90,39,176580,60
82,44,176640,480
94,52,176640,480
91,44,176640,480
77,52,177120,60
70,44,177120,480
79,49,177240,60
80,50,177360,60
84,50,177480,60
70,44,177600,480
82,52,177600,60
80,48,177720,60
79,49,177840,60
77,49,177960,60
78,49,178050,30
79,49,178080,60
70,44,178320,120
67,37,178320,240
75,49,178440,60
74,42,178560,120
68,35,178560,240
77,49,178680,60
65,42,178800,120
62,35,178800,240
71,49,178920,60
72,46,179040,480
67,39,179040,480
71,47,179520,80
72,41,179600,80
74,41,179680,80
72,45,179760,80
71,40,179840,80
72,45,179920,80
65,47,180090,630
72,49,180120,600
77,51,180150,570
75,49,180720,180
75,42,180900,60
62,47,181050,630
68,49,181080,600
74,51,181110,570
62,46,181680,90
68,50,181710,60
77,58,181740,30
75,56,181920,60
67,47,181920,60
77,49,182040,60
70,41,182040,60
79,50,182160,60
75,42,182160,60
80,44,182280,60
77,37,182280,60
84,56,182370,30
82,50,182400,60
79,42,182400,60
81,45,182580,60
78,38,182580,60
82,50,182640,60
79,50,182640,60
56,97,182880,180
84,56,183120,60
72,47,183120,60
75,47,183120,60
84,66,183360,60
80,56,183360,60
72,56,183360,60
83,51,183540,60
71,42,183540,60
79,42,183540,60
84,51,183600,60
80,42,183600,60
72,42,183600,60
55,96,183840,180
82,56,184080,60
70,47,184080,60
75,47,184080,60
82,66,184320,60
79,56,184320,60
70,56,184320,60
81,51,184500,60
69,42,184500,60
78,42,184500,60
82,51,184560,60
79,42,184560,60
70,42,184560,60
53,95,184800,180
80,56,185040,60
68,47,185040,60
74,47,185040,60
80,66,185280,60
77,56,185280,60
68,56,185280,60
79,51,185460,60
67,42,185460,60
76,42,185460,60
80,51,185520,60
77,42,185520,60
68,42,185520,60
51,99,185760,180
79,56,186000,60
67,47,186000,60
70,47,186000,60
79,66,186240,60
75,56,186240,60
67,56,186240,60
78,51,186420,60
66,42,186420,60
74,42,186420,60
79,51,186480,60
75,42,186480,60
67,42,186480,60
80,52,186720,60
72,44,186720,60
79,47,186840,60
70,39,186840,60
77,47,186960,60
68,39,186960,60
75,47,187080,60
67,39,187080,60
74,52,187200,60
65,44,187200,60
70,45,187320,60
62,38,187320,60
72,45,187440,60
63,38,187440,60
74,45,187560,60
65,38,187560,60
75,56,187680,60
67,47,187680,60
77,49,187800,60
70,41,187800,60
79,50,187920,60
75,42,187920,60
80,44,188040,60
77,37,188040,60
84,56,188130,30
82,50,188160,60
79,42,188160,60
81,45,188340,60
78,38,188340,60
82,50,188400,60
79,50,188400,60
92,52,188640,60
84,44,188640,60
91,47,188760,60
82,39,188760,60
89,47,188880,60
80,39,188880,60
87,47,189000,60
79,39,189000,60
86,52,189120,60
77,44,189120,60
82,45,189240,60
74,38,189240,60
84,45,189360,60
75,38,189360,60
86,45,189480,60
77,38,189480,60
87,56,189600,60
79,47,189600,60
89,49,189720,60
82,41,189720,60
91,50,189840,60
87,42,189840,60
92,44,189960,60
89,37,189960,60
96,56,190050,30
94,50,190080,60
91,42,190080,60
93,45,190260,60
90,38,190260,60
94,50,190320,60
91,50,190320,60
56,93,190560,180
84,56,190800,60
72,47,190800,60
75,47,190800,60
84,66,191040,60
80,56,191040,60
72,56,191040,60
83,51,191220,60
71,42,191220,60
79,42,191220,60
84,51,191280,60
80,42,191280,60
72,42,191280,60
55,101,191520,180
82,56,191760,60
70,47,191760,60
75,47,191760,60
82,66,192000,60
79,56,192000,60
70,56,192000,60
81,51,192180,60
69,42,192180,60
78,42,192180,60
82,51,192240,60
79,42,192240,60
70,42,192240,60
53,96,192480,180
80,56,192720,60
68,47,192720,60
74,47,192720,60
80,66,192960,60
77,56,192960,60
68,56,192960,60
79,51,193140,60
67,42,193140,60
76,42,193140,60
80,51,193200,60
77,42,193200,60
68,42,193200,60
51,92,193440,180
79,56,193680,60
67,47,193680,60
70,47,193680,60
79,66,193920,60
75,56,193920,60
67,56,193920,60
78,51,194100,60
66,42,194100,60
74,42,194100,60
79,51,194160,60
75,42,194160,60
67,42,194160,60
92,52,194400,60
84,44,194400,60
91,47,194520,60
82,39,194520,60
89,47,194640,60
80,39,194640,60
87,47,194760,60
79,39,194760,60
86,52,194880,60
77,44,194880,60
82,45,195000,60
74,38,195000,60
84,45,195120,60
75,38,195120,60
86,45,195240,60
77,38,195240,60
87,56,195360,60
79,47,195360,60
89,49,195480,60
82,41,195480,60
91,50,195600,60
87,42,195600,60
92,44,195720,60
89,37,195720,60
96,56,195810,30
94,50,195840,60
91,42,195840,60
90,38,195960,60
93,45,195960,60
96,50,196080,60
92,50,196080,60
94,50,196200,60
91,50,196200,60
80,52,196320,60
72,44,196320,60
79,47,196440,60
70,39,196440,60
77,47,196560,60
68,39,196560,60
75,47,196680,60
67,39,196680,60
74,52,196800,60
65,44,196800,60
70,45,196920,60
62,38,196920,60
72,45,197040,60
63,38,197040,60
74,45,197160,60
65,38,197160,60
75,56,197280,60
67,47,197280,60
77,49,197400,60
70,41,197400,60
79,50,197520,60
75,42,197520,60
80,44,197640,60
77,37,197640,60
82,50,197760,60
79,42,197760,60
78,38,197880,60
81,45,197880,60
84,50,198000,60
80,50,198000,60
82,50,198120,60
79,50,198120,60
92,52,198240,60
84,44,198240,60
91,47,198360,60
82,39,198360,60
89,47,198480,60
80,39,198480,60
87,47,198600,60
79,39,198600,60
86,52,198720,60
77,44,198720,60
82,45,198840,60
74,38,198840,60
84,45,198960,60
75,38,198960,60
86,45,199080,60
77,38,199080,60
87,56,199200,60
79,47,199200,60
89,49,199320,60
82,41,199320,60
91,50,199440,60
87,42,199440,60
92,44,199560,60
89,37,199560,60
94,50,199680,60
91,42,199680,60
90,38,199800,60
93,45,199800,60
96,50,199920,60
92,42,199920,60
94,50,200040,60
91,42,200040,60
92,56,200160,60
84,47,200160,60
91,53,200280,60
82,45,200280,60
89,53,200400,60
80,45,200400,60
87,53,200520,60
79,45,200520,60
86,56,200640,60
77,47,200640,60
82,50,200760,60
74,42,200760,60
81,50,200880,60
73,42,200880,60
82,50,201000,60
74,42,201000,60
83,51,201120,60
75,43,201120,60
84,43,201240,60
76,36,201240,60
85,45,201360,60
77,38,201360,60
86,46,201480,60
78,39,201480,60
87,48,201600,60
79,40,201600,60
88,50,201720,60
80,42,201720,60
89,51,201840,60
81,43,201840,60
90,53,201960,60
82,45,201960,60
91,55,202080,60
83,46,202080,60
92,56,202200,60
84,47,202200,60
93,58,202320,60
85,49,202320,60
94,60,202440,60
86,51,202440,60
93,68,202560,60
85,57,202560,60
94,69,202680,60
86,58,202680,60
93,73,202800,60
81,62,202800,60
94,71,202920,60
82,60,202920,60
98,85,203040,120
86,72,203040,120
94,72,203040,120
98,78,203280,240
86,66,203280,240
94,66,203280,240
96,85,203520,120
84,72,203520,120
92,72,203520,120
96,80,203760,240
84,68,203760,240
92,68,203760,240
91,84,204000,120
79,71,204000,120
87,71,204000,120
94,76,204240,120
82,64,204240,120
91,64,204240,120
94,81,204480,60
82,68,204480,60
91,68,204480,60
93,72,204660,60
81,61,204660,60
90,61,204660,60
94,80,204720,120
82,68,204720,120
91,68,204720,120
89,75,204960,60
77,63,204960,60
80,63,204960,60
91,74,205080,60
79,62,205080,60
82,62,205080,60
92,74,205200,60
80,62,205200,60
84,62,205200,60
87,74,205320,60
96,74,205320,60
84,62,205320,60
86,76,205440,60
94,76,205440,60
82,64,205440,60
92,73,205560,60
80,62,205560,60
84,62,205560,60
91,74,205680,60
79,62,205680,60
82,62,205680,60
89,74,205800,60
77,62,205800,60
80,62,205800,60
94,84,205920,120
91,84,205920,120
82,71,205920,120
91,76,206160,120
94,76,206160,120
82,64,206160,120
81,61,206340,60
90,72,206340,60
93,72,206340,60
94,81,206400,480
91,81,206400,480
82,68,206400,480
98,85,206880,120
86,72,206880,120
94,72,206880,120
98,78,207120,240
86,66,207120,240
94,66,207120,240
96,85,207360,120
84,72,207360,120
92,72,207360,120
96,80,207600,240
84,68,207600,240
92,68,207600,240
91,84,207840,120
79,71,207840,120
87,71,207840,120
94,76,208080,120
82,64,208080,120
91,64,208080,120
94,81,208320,60
82,68,208320,60
91,68,208320,60
93,72,208500,60
81,61,208500,60
90,61,208500,60
94,80,208560,120
82,68,208560,120
91,68,208560,120
89,66,208800,60
77,56,208800,60
80,56,208800,60
91,68,208920,60
79,57,208920,60
82,57,208920,60
92,70,209040,60
80,59,209040,60
83,59,209040,60
84,61,209160,60
93,72,209160,60
81,61,209160,60
94,74,209280,60
85,62,209280,60
82,62,209280,60
95,76,209400,60
83,64,209400,60
86,64,209400,60
96,78,209520,60
84,66,209520,60
87,66,209520,60
98,79,209640,60
86,67,209640,60
89,67,209640,60
99,81,209760,60
87,68,209760,60
91,68,209760,60
75,68,210240,60
79,68,210240,60
82,68,210240,60
87,81,210240,60
58,57,211440,48
60,54,211488,48
58,55,211536,48
57,55,211584,48
58,55,211632,48
62,60,211680,45
61,53,211800,60
60,53,211920,60
59,53,212040,60
58,57,212160,60
57,54,212280,60
56,54,212400,60
60,54,212520,60
55,57,212640,60
56,54,212760,60
57,54,212880,60
58,54,213000,30
57,49,213060,20
58,49,213080,20
60,49,213100,20
58,57,213120,60
57,53,213240,60
58,57,213360,60
55,54,213480,60
53,57,213600,60
55,51,213720,60
56,51,213840,60
60,51,213960,60
58,54,214080,60
56,51,214200,60
55,51,214320,60
53,51,214440,60
57,54,214560,60
58,45,214680,60
58,47,214800,60
59,48,214920,60
59,50,215040,60
60,52,215160,60
60,54,215280,60
61,55,215400,60
62,58,215520,60
61,53,215640,60
60,53,215760,60
59,53,215880,60
58,57,216000,60
57,54,216120,60
56,54,216240,60
60,54,216360,60
55,57,216480,60
56,54,216600,60
57,54,216720,60
58,54,216840,30
57,49,216900,20
58,49,216920,20
60,49,216940,20
58,57,216960,60
57,53,217080,60
58,57,217200,60
55,54,217320,60
53,57,217440,60
55,51,217560,60
56,51,217680,60
60,51,217800,60
58,54,217920,60
56,51,218040,60
55,51,218160,60
53,51,218280,60
55,54,218400,60
51,51,218520,60
55,53,218640,60
58,55,218760,60
63,57,218880,60
66,52,219000,60
67,53,219120,60
70,55,219240,60
74,63,219360,50
65,55,219480,60
74,76,219600,240
82,55,219720,120
72,59,219840,60
65,55,219960,60
72,76,220080,240
80,55,220200,120
67,63,220320,60
58,55,220440,60
67,75,220560,240
75,55,220680,120
70,59,220800,60
63,55,220920,60
70,72,221040,240
79,55,221160,60
73,59,221250,30
74,63,221280,60
65,55,221400,60
74,77,221520,240
82,55,221670,30
76,56,221730,30
77,59,221760,60
70,55,221880,60
77,79,222000,240
86,61,222120,60
78,60,222210,30
79,64,222240,60
70,56,222360,60
79,79,222480,240
87,58,222600,60
81,57,222690,30
82,61,222720,60
75,57,222840,60
82,78,222960,240
91,57,223080,120
85,62,223170,30
86,66,223200,60
77,57,223320,60
86,81,223440,240
94,58,223560,60
83,58,223650,30
84,62,223680,60
77,58,223800,60
84,83,223920,240
92,58,224040,120
78,63,224130,30
79,68,224160,60
70,59,224280,60
79,81,224400,240
87,59,224520,60
81,60,224610,30
82,64,224640,60
75,59,224760,60
82,81,224880,240
91,60,225000,120
85,68,225090,30
86,69,225120,60
77,61,225240,60
86,87,225360,240
94,61,225480,60
88,70,225540,30
89,66,225600,60
82,61,225720,60
89,84,225840,240
98,62,225960,120
90,64,226050,30
91,83,226080,60
82,62,226200,60
91,70,226320,240
99,62,226440,60
63,79,226560,420
64,48,226980,60
65,48,227040,80
67,50,227120,80
68,52,227200,80
72,54,227280,80
70,53,227360,80
68,52,227440,80
67,51,227520,80
65,50,227600,80
63,49,227680,80
62,48,227760,80
60,48,227840,80
58,47,227920,80
57,49,228000,80
58,50,228080,80
60,51,228160,80
62,51,228240,80
63,52,228320,80
66,53,228400,80
67,54,228480,80
68,54,228560,80
70,55,228640,80
72,56,228720,80
74,57,228800,80
75,58,228880,50
74,56,228930,110
77,63,228960,80
79,58,229040,80
80,59,229120,80
84,64,229200,80
82,63,229280,80
80,62,229360,80
79,60,229440,80
77,59,229520,80
75,58,229600,80
74,57,229680,80
72,55,229760,80
70,54,229840,80
69,55,229920,80
70,55,230000,80
72,56,230080,80
74,56,230160,80
75,57,230240,80
78,58,230320,80
79,58,230400,80
80,59,230480,80
82,60,230560,80
84,60,230640,80
86,61,230720,80
87,63,230800,50
86,52,230850,110
89,63,230880,80
91,58,230960,80
92,59,231040,80
96,64,231120,80
94,63,231200,80
92,62,231280,80
91,60,231360,80
89,59,231440,80
87,58,231520,80
86,57,231600,80
84,55,231680,80
82,54,231760,80
81,55,231840,80
82,55,231920,80
84,56,232000,80
86,56,232080,80
87,57,232160,80
90,58,232240,80
91,58,232320,80
92,58,232400,80
94,57,232480,80
96,56,232560,80
98,56,232640,80
99,55,232720,80
100,55,232800,80
101,50,232880,80
94,54,232960,80
97,50,233040,80
98,54,233120,80
89,50,233200,80
100,54,233280,80
101,50,233360,80
94,54,233440,80
97,50,233520,80
98,55,233600,80
89,50,233680,80
102,55,233760,80
103,50,233840,80
94,54,233920,80
98,50,234000,80
99,54,234080,80
91,50,234160,80
102,54,234240,80
103,50,234320,80
94,54,234400,80
98,50,234480,80
99,55,234560,80
91,50,234640,80
100,55,234720,80
101,50,234800,80
94,54,234880,80
97,50,234960,80
98,54,235040,80
89,50,235120,80
100,54,235200,80
101,50,235280,80
94,54,235360,80
97,50,235440,80
98,55,235520,80
89,50,235600,80
102,55,235680,80
103,50,235760,80
94,54,235840,80
98,50,235920,80
99,54,236000,80
91,50,236080,80
102,54,236160,80
103,50,236240,80
94,54,236320,80
98,50,236400,80
99,55,236480,80
91,50,236560,80
100,55,236640,80
101,50,236720,80
94,54,236800,80
97,50,236880,80
98,54,236960,80
89,50,237040,80
100,54,237120,80
101,50,237200,80
94,54,237280,80
97,50,237360,80
98,55,237440,80
89,50,237520,80
102,55,237600,80
103,50,237680,80
94,54,237760,80
98,50,237840,80
99,54,237920,80
91,50,238000,80
102,54,238080,80
103,50,238160,80
94,54,238240,80
98,50,238320,80
99,55,238400,80
91,50,238480,80
100,55,238560,80
101,50,238640,80
94,54,238720,80
97,50,238800,80
98,54,238880,80
89,50,238960,80
100,54,239040,80
101,50,239120,80
94,54,239200,80
97,50,239280,80
98,55,239360,80
89,50,239440,80
102,50,239520,60
93,50,239520,60
94,55,239580,120
103,55,239580,120
74,47,240000,60
66,47,240000,60
67,52,240060,120
75,52,240060,120
86,45,240480,60
77,45,240480,60
89,51,240540,120
80,51,240540,120
62,46,240960,60
71,46,240960,60
65,52,241020,120
74,52,241020,120
72,36,241440,60
74,33,241500,60
72,37,241560,60
74,33,241620,60
72,37,241680,60
74,33,241740,60
72,37,241800,60
74,33,241860,60
72,37,241920,60
74,33,241980,60
72,37,242040,60
74,33,242100,60
72,37,242160,60
74,33,242220,60
72,37,242280,60
74,33,242340,60
71,38,242400,60
72,33,242460,60
74,34,242520,60
75,34,242580,60
74,41,242640,60
75,36,242700,60
78,37,242760,60
79,44,242820,60
78,38,242880,60
79,39,242940,60
83,39,243000,60
84,40,243060,60
83,47,243120,60
84,42,243180,60
86,42,243240,60
87,43,243300,60
86,51,243360,60
87,45,243420,60
90,45,243480,60
91,54,243540,60
90,47,243600,60
91,47,243660,60
95,48,243720,60
96,49,243780,60
95,57,243840,60
96,50,243900,60
98,51,243960,60
99,52,244020,60
98,61,244080,60
99,53,244140,60
102,54,244200,60
103,65,244260,60
95,61,244320,60
96,53,244380,60
98,53,244440,60
99,53,244500,60
90,54,244560,60
91,48,244620,60
95,49,244680,60
96,49,244740,60
86,51,244800,60
87,45,244860,60
90,45,244920,60
91,45,244980,60
83,47,245040,60
84,42,245100,60
86,42,245160,60
87,43,245220,60
78,44,245280,60
79,39,245340,60
83,40,245400,60
84,40,245460,60
74,40,245520,60
75,36,245580,60
78,37,245640,60
79,36,245700,60
71,41,245760,60
72,38,245820,60
74,40,245880,60
75,41,245940,60
66,43,246000,60
67,44,246060,60
71,46,246120,60
72,47,246180,60
71,49,246240,60
72,49,246300,60
74,51,246360,60
75,53,246420,60
74,55,246480,60
75,57,246540,60
78,59,246600,60
79,61,246660,60
71,41,246720,60
72,38,246780,60
74,40,246840,60
75,41,246900,60
66,43,246960,60
67,44,247020,60
71,46,247080,60
72,47,247140,60
71,49,247200,60
72,49,247260,60
74,51,247320,60
75,53,247380,60
74,55,247440,60
75,57,247500,60
78,59,247560,60
79,61,247620,60
71,54,247680,60
72,49,247740,60
74,47,247800,60
75,47,247860,60
66,47,247920,60
67,53,247980,60
71,45,248040,60
72,45,248100,60
62,50,248160,60
63,41,248220,60
66,41,248280,60
67,41,248340,60
66,46,248400,60
67,43,248460,60
71,43,248520,60
72,43,248580,60
65,43,248730,390
72,43,248760,360
77,43,248790,90
76,43,248880,80
77,42,248960,80
79,43,249040,80
77,48,249120,60
79,43,249180,60
77,47,249240,60
79,43,249300,60
77,47,249360,60
79,43,249420,60
77,50,249480,60
79,43,249540,60
77,49,249600,60
79,43,249660,60
77,48,249720,60
79,43,249780,60
77,46,249840,60
79,43,249900,60
77,49,249960,60
79,43,250020,60
76,47,250080,240
77,47,250320,240
86,58,250560,81
85,56,250641,80
84,55,250720,81
83,54,250800,80
82,53,250880,80
81,52,250960,80
80,51,251042,80
79,50,251120,81
78,49,251203,80
77,49,251280,80
71,48,251360,80
72,46,251440,80
77,45,251520,80
76,44,251600,80
75,43,251680,30
75,43,251720,40
62,47,251850,630
68,49,251880,600
74,51,251910,570
62,46,252480,90
68,50,252510,60
77,58,252540,30
75,56,252720,60
67,47,252720,60
77,49,252840,60
70,41,252840,60
79,50,252960,60
75,42,252960,60
80,44,253080,60
77,37,253080,60
84,56,253170,30
82,50,253200,60
79,42,253200,60
81,45,253380,60
78,38,253380,60
82,59,253440,60
79,50,253440,60
63,51,253800,60
72,51,253800,60
75,43,254040,60
84,51,254040,60
84,60,254160,60
75,51,254160,60
63,51,254760,60
70,51,254760,60
75,43,255000,60
82,51,255000,60
82,60,255120,60
75,51,255120,60
62,51,255720,60
68,51,255720,60
74,43,255960,60
80,51,255960,60
80,60,256080,60
74,51,256080,60
63,51,256680,60
67,51,256680,60
75,43,256920,60
79,51,256920,60
79,60,257040,60
75,51,257040,60
80,52,257520,60
72,44,257520,60
79,47,257640,60
70,39,257640,60
77,47,257760,60
68,39,257760,60
75,47,257880,60
67,39,257880,60
74,52,258000,60
65,44,258000,60
70,45,258120,60
62,38,258120,60
72,45,258240,60
63,38,258240,60
74,45,258360,60
65,38,258360,60
75,56,258480,60
67,47,258480,60
77,49,258600,60
70,41,258600,60
79,50,258720,60
75,42,258720,60
80,44,258840,60
77,37,258840,60
84,56,258930,30
82,50,258960,60
79,42,258960,60
78,38,259080,60
81,45,259080,60
82,59,259200,60
79,50,259200,60
75,51,259560,60
84,51,259560,60
87,43,259800,60
96,51,259800,60
96,60,259920,60
87,51,259920,60
75,51,260520,60
82,51,260520,60
87,43,260760,60
94,51,260760,60
94,60,260880,60
87,51,260880,60
74,51,261480,60
80,51,261480,60
86,43,261720,60
92,51,261720,60
92,60,261840,60
86,51,261840,60
75,51,262440,60
79,51,262440,60
87,43,262680,60
91,51,262680,60
91,60,262800,60
87,51,262800,60
92,52,263280,60
84,44,263280,60
91,47,263400,60
82,39,263400,60
89,47,263520,60
80,39,263520,60
87,47,263640,60
79,39,263640,60
86,52,263760,60
77,44,263760,60
82,45,263880,60
74,38,263880,60
84,45,264000,60
75,38,264000,60
86,45,264120,60
77,38,264120,60
87,56,264240,60
79,47,264240,60
89,49,264360,60
82,41,264360,60
91,50,264480,60
87,42,264480,60
92,44,264600,60
89,37,264600,60
94,50,264720,60
91,42,264720,60
90,38,264840,60
93,45,264840,60
96,50,264960,60
92,50,264960,60
91,38,265080,60
94,45,265080,60
92,52,265200,60
84,44,265200,60
91,47,265320,60
82,39,265320,60
89,47,265440,60
80,39,265440,60
87,48,265560,60
79,40,265560,60
86,54,265680,60
77,45,265680,60
82,47,265800,60
74,39,265800,60
84,48,265920,60
75,40,265920,60
86,48,266040,60
77,41,266040,60
87,61,266160,60
79,51,266160,60
89,53,266280,60
82,45,266280,60
91,55,266400,60
87,46,266400,60
92,49,266520,60
89,41,266520,60
94,57,266640,60
91,47,266640,60
90,43,266760,60
93,51,266760,60
96,58,266880,60
92,58,266880,60
91,44,267000,60
94,52,267000,60
92,61,267120,60
84,52,267120,60
91,56,267240,60
82,46,267240,60
89,56,267360,60
80,47,267360,60
87,57,267480,60
79,47,267480,60
86,63,267600,60
77,54,267600,60
70,51,267840,120
82,60,267840,120
71,51,267960,120
83,60,267960,120
72,53,268080,120
84,63,268080,120
73,49,268200,120
85,58,268200,120
74,49,268320,120
86,58,268320,120
75,49,268440,120
87,58,268440,120
86,63,268560,120
74,53,268560,120
87,59,268680,120
75,50,268680,120
88,59,268800,120
76,50,268800,120
77,50,268920,120
89,59,268920,120
76,58,269040,120
88,69,269040,120
77,52,269160,120
89,62,269160,120
78,52,269280,120
90,62,269280,120
79,52,269400,120
91,62,269400,120
78,59,269520,120
90,70,269520,120
79,54,269640,120
91,64,269640,120
80,54,269760,120
92,64,269760,120
81,54,269880,120
93,64,269880,120
80,62,270000,120
92,74,270000,120
81,53,270120,120
93,63,270120,120
82,54,270240,120
94,64,270240,120
83,54,270360,120
95,64,270360,120
82,64,270480,120
94,75,270480,120
83,59,270600,120
95,71,270600,120
84,64,270720,120
96,77,270720,120
85,69,270840,120
97,82,270840,120
98,93,270960,240
86,79,270960,240
94,79,270960,240
98,85,271200,240
86,72,271200,240
94,72,271200,240
96,93,271440,240
84,79,271440,240
92,79,271440,240
96,88,271680,240
84,74,271680,240
92,74,271680,240
91,92,271920,240
79,78,271920,240
87,78,271920,240
94,83,272160,240
82,70,272160,240
91,70,272160,240
94,89,272400,120
82,74,272400,120
91,74,272400,120
81,67,272520,120
90,67,272520,120
93,79,272520,120
94,88,272640,240
82,74,272640,240
91,74,272640,240
89,82,272880,120
77,69,272880,120
91,81,273000,120
79,68,273000,120
92,81,273120,120
80,68,273120,120
96,81,273240,120
84,68,273240,120
94,83,273360,120
82,70,273360,120
92,80,273480,120
80,68,273480,120
91,81,273600,120
79,68,273600,120
89,81,273720,120
77,68,273720,120
94,92,273840,240
91,92,273840,240
82,78,273840,240
91,83,274080,180
94,83,274080,180
82,70,274080,180
81,67,274260,60
90,79,274260,60
93,79,274260,60
94,89,274320,480
91,89,274320,480
82,74,274320,480
98,93,274800,240
86,79,274800,240
94,79,274800,240
98,85,275040,240
86,72,275040,240
94,72,275040,240
96,93,275280,240
84,79,275280,240
92,79,275280,240
96,88,275520,240
84,74,275520,240
92,74,275520,240
91,92,275760,240
79,78,275760,240
87,78,275760,240
94,83,276000,240
82,70,276000,240
91,70,276000,240
94,89,276240,120
82,74,276240,120
91,74,276240,120
81,67,276360,120
90,67,276360,120
93,79,276360,120
94,88,276480,240
82,74,276480,240
91,74,276480,240
89,72,276720,120
77,61,276720,120
80,61,276720,120
91,74,276840,120
79,62,276840,120
82,62,276840,120
92,77,276960,120
80,64,276960,120
83,64,276960,120
84,67,277080,120
93,79,277080,120
81,67,277080,120
94,81,277200,120
85,68,277200,120
82,68,277200,120
95,83,277320,120
83,70,277320,120
86,70,277320,120
96,85,277440,120
84,72,277440,120
87,72,277440,120
98,86,277560,120
86,73,277560,120
89,73,277560,120
99,89,277680,60
87,74,277680,60
91,74,277680,60
75,68,277920,480
79,68,277920,480
87,81,277920,480
75,61,278400,120
79,61,278400,120
87,72,278400,120
62,51,278640,120
65,63,278640,60
67,59,278760,60
62,52,278880,480
68,59,278880,60
72,59,279000,60
70,64,279120,60
68,55,279240,60
62,50,279360,120
67,56,279360,60
65,57,279480,60
70,63,279600,60
67,53,279600,60
72,57,279810,30
67,53,279840,60
70,63,279840,60
66,47,280020,60
69,56,280020,60
67,52,280080,480
70,62,280080,480
60,51,280560,120
65,63,280560,60
67,59,280680,60
60,52,280800,480
68,59,280800,60
72,59,280920,60
70,64,281040,60
68,55,281160,60
62,50,281280,120
67,56,281280,60
65,57,281400,60
67,63,281520,60
63,53,281520,60
58,46,281760,480
63,52,281760,480
62,46,282210,30
58,53,282240,120
63,63,282240,120
65,53,282480,60
77,63,282480,60
67,50,282600,60
79,59,282600,60
68,50,282720,60
80,59,282720,60
72,50,282840,60
84,59,282840,60
70,54,282960,60
82,64,282960,60
68,46,283080,60
80,55,283080,60
67,47,283200,60
79,56,283200,60
65,48,283320,60
77,57,283320,60
82,63,283440,60
70,53,283440,60
84,57,283650,30
70,53,283680,60
82,63,283680,60
69,47,283860,60
81,56,283860,60
70,52,283920,480
82,62,283920,480
65,53,284400,60
77,63,284400,60
67,50,284520,60
79,59,284520,60
68,50,284640,60
80,59,284640,60
72,50,284760,60
84,59,284760,60
70,54,284880,60
82,64,284880,60
68,46,285000,60
80,55,285000,60
67,47,285120,60
79,56,285120,60
65,48,285240,60
77,57,285240,60
79,63,285360,60
67,53,285360,60
63,46,285600,480
75,52,285600,480
74,46,286050,30
63,53,286080,120
75,63,286080,120
66,36,286290,30
67,50,286320,60
59,42,286320,60
60,36,286560,480
63,41,286560,480
62,36,287010,30
59,42,287040,120
63,50,287040,120
91,50,287280,60
79,42,287280,60
75,36,287520,480
87,41,287520,480
86,36,287970,30
75,42,288000,120
87,50,288000,120
66,36,288210,30
67,50,288240,60
59,42,288240,60
60,36,288480,480
63,41,288480,480
62,36,288930,30
59,42,288960,120
63,50,288960,120
55,42,289200,60
67,50,289200,60
58,42,289200,60
55,36,289440,480
60,36,289440,480
63,41,289440,480
62,36,289890,30
56,42,289920,120
59,42,289920,120
63,50,289920,120
55,42,290160,60
67,50,290160,60
58,42,290160,60
55,36,290400,480
60,36,290400,480
63,41,290400,480
62,36,290850,30
56,42,290880,120
59,42,290880,120
63,50,290880,120
55,39,291120,480
67,46,291120,480
58,39,291120,480
55,33,291600,480
60,33,291600,480
63,39,291600,480
62,36,292530,30
56,33,292560,420
59,33,292560,420
63,39,292560,420
55,37,292980,1020
63,39,293010,990
70,40,293040,960
63,28,294360,120
67,28,294480,120
68,27,294600,120
69,26,294720,120
70,25,294840,120
75,27,294960,120
79,27,295080,120
80,27,295200,120
81,27,295320,120
82,27,295440,120
87,27,295560,120
91,27,295680,120
92,27,295800,120
93,27,295920,120
94,27,296040,120
99,33,296160,120
70,81,297840,360
82,96,297840,360
70,77,298320,90
82,91,298320,90
70,77,298560,90
82,91,298560,90
75,85,298800,720
87,101,298800,720
75,74,299520,90
87,89,299520,90
73,79,299760,90
85,93,299760,90
71,79,300000,90
83,93,300000,90
70,78,300240,90
82,92,300240,90
68,81,300480,90
80,96,300480,90
70,80,300720,90
82,94,300720,90
63,75,300960,90
75,90,300960,90
63,75,301200,480
75,90,301200,480
67,57,301680,360
70,68,301680,360
67,54,302160,90
70,64,302160,90
70,64,302400,90
67,54,302400,90
66,60,302640,720
75,71,302640,720
75,62,303360,90
66,52,303360,90
67,56,303600,240
73,66,303600,90
70,66,303840,90
63,55,304080,240
71,65,304080,90
68,68,304320,90
63,56,304560,238
70,67,304560,90
63,63,304800,90
67,57,305520,360
70,68,305520,360
67,54,306000,90
70,64,306000,90
70,64,306240,90
67,54,306240,90
66,60,306480,480
75,71,306480,720
67,60,306953,240
75,62,307200,90
68,52,307200,90
64,56,307440,240
68,56,307440,240
73,66,307440,90
71,66,307680,90
61,55,307920,240
67,55,307920,240
70,65,307920,90
63,68,308160,90
63,58,308400,90
68,70,308400,90
63,66,308640,90
63,60,308880,360
68,70,308880,360
70,81,309360,360
82,96,309360,360
70,77,309840,90
82,91,309840,90
70,77,310080,90
82,91,310080,90
75,85,310320,720
87,101,310320,720
75,74,311040,90
87,89,311040,90
73,79,311280,90
85,93,311280,90
71,79,311520,90
83,93,311520,90
70,78,311760,90
82,92,311760,90
68,81,312000,90
80,96,312000,90
70,80,312240,90
82,94,312240,90
63,75,312480,90
75,90,312480,90
63,75,312720,480
75,90,312720,480
67,57,313200,360
70,68,313200,360
67,54,313680,90
70,64,313680,90
70,64,313920,90
67,54,313920,90
66,60,314160,720
75,71,314160,720
75,62,314880,90
66,52,314880,90
67,56,315120,240
73,66,315120,90
70,66,315360,90
63,55,315600,240
71,65,315600,90
68,68,315840,90
63,56,316080,238
70,67,316080,90
63,63,316320,90
67,57,317040,360
70,68,317040,360
67,54,317520,90
70,64,317520,90
70,64,317760,90
67,54,317760,90
66,60,318000,480
75,71,318000,720
67,60,318473,240
75,62,318720,90
68,52,318720,90
64,56,318960,240
68,56,318960,240
73,66,318960,90
71,66,319200,90
61,55,319440,240
67,55,319440,240
70,65,319440,90
63,68,319680,90
63,58,319920,238
68,70,319920,90
63,66,320160,90
63,60,320400,360
68,70,320400,360
63,55,320880,120
65,49,321120,120
67,48,321360,120
68,47,321600,120
61,51,321840,240
63,51,321840,240
70,60,321840,240
61,44,322320,120
70,52,322320,120
63,44,322560,120
72,52,322560,120
60,49,322800,240
63,49,322800,240
68,58,322800,240
61,51,323760,240
63,51,323760,240
70,60,323760,240
61,44,324240,120
70,52,324240,120
63,44,324480,120
72,52,324480,120
60,49,324720,240
63,49,324720,240
68,58,324720,240
63,51,325680,480
67,51,325680,480
70,60,325680,480
67,44,326160,120
63,44,326160,120
70,52,326160,120
67,44,326400,120
63,44,326400,120
70,52,326400,120
63,51,326640,480
66,51,326640,480
75,60,326640,480
71,44,327120,120
63,44,327120,120
75,52,327120,120
71,44,327360,120
63,44,327360,120
75,52,327360,120
64,50,327600,120
73,59,327600,120
63,43,327840,120
71,51,327840,120
61,43,328080,120
70,51,328080,120
59,43,328320,120
68,51,328320,120
58,51,328560,480
63,51,328560,480
70,60,328560,480
63,44,329040,120
58,44,329040,120
70,52,329040,120
63,44,329280,120
58,44,329280,120
70,52,329280,120
55,50,329520,120
61,50,329520,120
63,59,329520,120
56,43,329760,120
65,51,329760,120
58,43,330000,120
61,43,330000,120
67,51,330000,120
55,43,330240,120
63,51,330240,120
56,51,330480,240
60,51,330480,240
68,60,330480,240
63,52,331440,120
75,63,331440,120
65,47,331680,120
77,56,331680,120
67,46,331920,120
79,55,331920,120
68,44,332160,120
80,54,332160,120
70,58,332400,240
73,58,332400,240
82,69,332400,240
70,50,332880,120
73,50,332880,120
82,59,332880,120
72,50,333120,120
75,50,333120,120
84,59,333120,120
68,56,333360,240
72,56,333360,240
80,66,333360,240
70,58,334320,240
73,58,334320,240
82,69,334320,240
70,50,334800,120
73,50,334800,120
82,59,334800,120
72,50,335040,120
75,50,335040,120
84,59,335040,120
68,56,335280,240
72,56,335280,240
80,66,335280,240
70,58,336240,480
75,58,336240,480
79,58,336240,480
82,69,336240,480
70,50,336720,120
79,50,336720,120
75,50,336720,120
82,59,336720,120
70,50,336960,120
79,50,336960,120
75,50,336960,120
82,59,336960,120
75,58,337200,480
78,58,337200,480
87,69,337200,480
83,50,337680,120
75,50,337680,120
87,59,337680,120
83,50,337920,120
75,50,337920,120
87,59,337920,120
73,57,338160,120
76,57,338160,120
85,67,338160,120
71,49,338400,120
75,49,338400,120
83,58,338400,120
70,49,338640,120
73,49,338640,120
82,58,338640,120
68,49,338880,120
71,49,338880,120
80,58,338880,120
70,58,339120,480
75,58,339120,480
82,69,339120,480
75,50,339600,120
70,50,339600,120
82,59,339600,120
75,50,339840,120
70,50,339840,120
82,59,339840,120
67,57,340080,120
73,57,340080,120
75,67,340080,120
68,49,340320,120
77,58,340320,120
70,49,340560,120
73,49,340560,120
79,58,340560,120
67,49,340800,120
75,58,340800,120
68,58,341040,240
75,58,341040,240
80,69,341040,240
70,66,342000,480
75,66,342000,480
79,66,342000,480
82,79,342000,480
70,57,342480,120
79,57,342480,120
75,57,342480,120
82,67,342480,120
70,57,342720,120
79,57,342720,120
75,57,342720,120
82,67,342720,120
75,66,342960,480
78,66,342960,480
87,79,342960,480
78,57,343440,120
75,57,343440,120
87,67,343440,120
78,57,343680,120
75,57,343680,120
87,67,343680,120
73,65,343920,120
76,65,343920,120
85,77,343920,120
71,56,344160,120
75,56,344160,120
83,66,344160,120
70,56,344400,120
73,56,344400,120
82,66,344400,120
68,56,344640,120
71,56,344640,120
80,66,344640,120
70,66,344880,480
75,66,344880,480
82,79,344880,480
75,57,345360,120
70,57,345360,120
82,67,345360,120
75,57,345600,120
70,57,345600,120
82,67,345600,120
67,65,345840,120
73,65,345840,120
75,77,345840,120
68,56,346080,120
77,66,346080,120
70,56,346320,120
73,56,346320,120
79,66,346320,120
67,56,346560,120
75,66,346560,120
68,66,346800,240
75,66,346800,240
80,79,346800,240
71,35,347760,960
81,50,347760,360
83,36,348120,60
81,36,348180,60
80,50,348240,240
78,41,348480,240
71,29,348720,960
83,43,348720,240
75,45,348960,180
78,35,349140,60
76,43,349200,480
71,35,349680,960
81,50,349680,360
83,36,350040,60
81,36,350100,60
80,50,350160,240
78,41,350400,240
71,29,350640,960
83,44,350640,240
75,45,350880,180
78,35,351060,60
76,43,351120,480
54,36,351720,120
58,41,351840,120
66,36,351960,120
64,28,351960,120
54,24,352200,120
59,27,352320,120
66,24,352440,120
63,19,352440,120
71,35,352560,960
81,50,352560,360
83,36,352920,60
81,36,352980,60
80,50,353040,240
78,41,353280,240
71,29,353520,960
83,43,353520,240
75,45,353760,180
78,35,353940,60
76,43,354000,480
71,35,354480,960
81,50,354480,360
83,36,354840,60
81,36,354900,60
80,50,354960,240
78,41,355200,240
71,29,355440,960
83,44,355440,240
75,45,355680,180
78,35,355860,60
76,43,355920,480
54,36,356520,120
58,41,356640,120
66,36,356760,120
64,28,356760,120
54,24,357000,120
59,27,357120,120
66,24,357240,120
63,19,357240,120
71,35,357360,960
78,50,357360,360
80,36,357720,60
78,36,357780,60
77,50,357840,240
78,41,358080,180
81,35,358260,60
71,29,358320,480
80,43,358320,420
80,35,358740,60
71,29,358800,480
78,43,358800,480
54,36,359400,120
58,41,359520,120
66,36,359640,120
64,28,359640,120
54,24,359880,120
59,27,360000,120
66,24,360120,60
63,19,360120,60
81,37,360180,60
80,50,360240,120
80,37,360420,60
78,50,360480,120
78,37,360660,60
77,50,360720,120
77,37,360900,60
74,50,360960,120
73,50,361200,120
85,50,361440,120
85,50,361680,120
97,50,361920,120
54,32,362280,120
58,36,362400,120
66,32,362520,120
64,25,362520,120
54,21,362760,120
59,24,362880,120
66,21,363000,120
63,17,363000,120
71,35,363120,960
78,50,363120,360
80,36,363480,60
78,36,363540,60
77,50,363600,240
78,41,363840,180
81,35,364020,60
71,29,364080,480
80,43,364080,420
80,35,364500,60
71,29,364560,480
78,43,364560,480
54,32,365160,120
58,36,365280,120
66,32,365400,120
64,25,365400,120
54,21,365640,120
59,24,365760,120
66,24,365880,60
63,19,365880,60
81,37,365940,60
80,50,366000,120
80,37,366180,60
78,50,366240,120
78,37,366420,60
77,50,366480,120
77,37,366660,60
74,50,366720,120
73,50,366960,120
85,50,367200,120
85,50,367440,120
97,50,367680,120
54,30,368040,120
58,34,368160,120
66,30,368280,120
64,23,368280,120
54,20,368520,120
59,22,368640,120
66,20,368760,120
63,16,368760,120
81,42,368880,480
93,50,368880,360
95,36,369240,60
93,36,369300,60
80,42,369360,240
92,50,369360,240
78,34,369600,240
90,41,369600,240
83,36,369840,240
95,43,369840,240
75,38,370080,240
87,45,370080,180
90,35,370260,60
76,36,370320,480
88,43,370320,480
81,42,370800,480
93,50,370800,360
95,36,371160,60
93,36,371220,60
80,42,371280,240
92,50,371280,240
78,34,371520,240
90,41,371520,240
83,37,371760,240
95,44,371760,240
75,38,372000,240
87,45,372000,180
90,35,372180,60
76,36,372240,480
88,43,372240,480
54,34,372840,120
58,38,372960,120
66,34,373080,120
64,26,373080,120
54,22,373320,120
59,25,373440,120
66,22,373560,120
63,18,373560,120
81,42,373680,480
93,50,373680,360
95,36,374040,60
93,36,374100,60
80,42,374160,240
92,50,374160,240
78,34,374400,240
90,41,374400,240
83,36,374640,240
95,43,374640,240
75,38,374880,240
87,45,374880,180
90,35,375060,60
76,36,375120,480
88,43,375120,480
81,42,375600,480
93,50,375600,360
95,36,375960,60
93,36,376020,60
80,42,376080,240
92,50,376080,240
78,34,376320,240
90,41,376320,240
83,37,376560,240
95,44,376560,240
75,38,376800,240
87,45,376800,180
90,35,376980,60
76,36,377040,480
88,43,377040,480
54,34,377640,120
58,38,377760,120
66,34,377880,120
64,26,377880,120
54,22,378120,120
59,25,378240,120
66,22,378360,120
63,18,378360,120
78,42,378480,480
90,50,378480,360
92,36,378840,60
90,36,378900,60
77,42,378960,240
89,50,378960,240
78,34,379200,240
90,41,379200,180
93,35,379380,60
80,36,379440,480
92,43,379440,420
92,35,379860,60
78,24,379920,480
90,43,379920,480
54,36,380520,120
58,41,380640,120
66,36,380760,120
64,28,380760,120
54,24,381000,120
59,27,381120,120
66,24,381240,60
63,19,381240,60
93,37,381300,60
80,42,381360,120
92,50,381360,120
92,37,381540,60
78,42,381600,120
90,50,381600,120
90,37,381780,60
76,42,381840,120
88,50,381840,120
88,37,382020,60
74,42,382080,120
86,50,382080,120
73,50,382320,120
85,50,382560,120
85,50,382800,120
97,50,383040,120
54,30,383400,120
58,34,383520,120
66,30,383640,120
64,23,383640,120
54,20,383880,120
59,22,384000,120
66,20,384120,120
63,16,384120,120
78,42,384240,480
90,50,384240,360
92,36,384600,60
90,36,384660,60
77,42,384720,240
89,50,384720,240
78,34,384960,240
90,41,384960,180
93,35,385140,60
80,36,385200,480
92,43,385200,420
92,35,385620,60
78,24,385680,480
90,43,385680,480
54,36,386280,120
58,41,386400,120
66,36,386520,120
64,28,386520,120
54,24,386760,120
59,27,386880,120
63,19,387000,120
66,24,387000,120
93,45,387120,81
92,44,387201,80
90,44,387280,80
88,43,387360,80
86,43,387440,80
85,42,387520,80
83,42,387600,80
81,41,387680,80
80,41,387760,80
78,40,387840,80
76,39,387920,80
74,39,388000,80
73,40,388080,60
85,36,388200,60
85,36,388320,60
97,38,388440,60
97,39,388560,60
85,36,388680,60
85,36,388800,60
73,37,388920,60
73,44,389040,60
85,36,389160,60
85,36,389280,60
97,41,389400,60
97,41,389520,60
85,36,389640,60
85,36,389760,60
73,36,389880,60
73,42,390000,60
85,37,390120,60
85,37,390240,60
97,40,390360,60
97,40,390480,60
85,37,390600,60
85,37,390720,60
97,37,390840,60
97,42,390960,60
85,37,391080,60
85,37,391200,60
97,39,391320,60
97,39,391440,60
85,37,391560,60
85,37,391680,60
97,37,391800,60
98,39,391920,80
100,38,392000,80
98,37,392080,80
97,36,392160,80
95,36,392240,80
93,36,392320,80
92,35,392400,80
90,34,392480,80
88,33,392560,80
86,32,392640,80
85,31,392720,80
83,30,392800,80
81,29,392880,80
80,28,392960,80
81,29,393040,80
83,31,393120,80
85,32,393200,80
86,33,393280,80
88,34,393360,80
90,35,393440,80
92,36,393520,80
93,36,393600,80
95,37,393680,80
97,38,393760,80
98,39,393840,80
100,38,393920,80
98,37,394000,80
97,36,394080,80
95,36,394160,80
93,36,394240,80
92,35,394320,80
90,34,394400,80
88,33,394480,80
86,32,394560,80
85,31,394640,80
83,30,394720,80
81,29,394800,80
80,28,394880,80
81,29,394960,80
83,31,395040,80
85,32,395120,80
86,33,395200,80
88,34,395280,80
90,35,395360,80
92,36,395440,80
93,36,395520,80
95,37,395600,80
97,38,395680,80
98,39,395760,80
100,38,395840,80
98,37,395920,80
97,36,396000,80
95,36,396080,80
93,36,396160,80
92,35,396240,80
90,34,396320,80
88,33,396400,80
86,32,396480,80
85,31,396560,80
83,30,396640,80
81,29,396720,80
80,28,396800,80
81,29,396880,80
83,31,396960,80
85,32,397040,80
86,33,397120,80
88,34,397200,80
90,35,397280,80
92,36,397360,80
93,36,397440,80
95,37,397520,80
97,38,397600,80
98,41,397680,80
99,44,397760,80
100,46,397840,80
101,49,397920,80
100,49,398000,80
99,47,398080,80
98,46,398160,80
97,45,398240,80
96,44,398320,80
95,43,398400,80
94,41,398480,80
93,40,398560,80
92,39,398640,80
93,44,398720,80
94,46,398800,80
95,48,398880,80
94,49,398960,80
93,48,399040,80
92,47,399120,80
91,46,399200,80
90,45,399280,80
89,45,399360,80
88,44,399440,80
87,43,399520,80
86,41,399600,80
87,44,399680,80
88,46,399760,80
89,49,399840,80
88,49,399920,80
87,47,400000,80
86,46,400080,80
85,45,400160,80
84,44,400240,80
83,43,400320,80
82,41,400400,80
81,40,400480,80
80,39,400560,80
81,44,400640,80
82,46,400720,80
83,48,400800,80
82,49,400880,80
81,48,400960,80
80,47,401040,80
79,46,401120,80
78,45,401200,80
77,45,401280,80
76,44,401360,80
75,43,401440,80
74,41,401520,80
75,44,401600,80
76,46,401680,80
77,49,401760,80
76,49,401840,80
75,47,401920,80
74,46,402000,80
73,45,402080,80
72,44,402160,80
71,43,402240,80
70,41,402320,80
69,40,402400,80
68,39,402480,80
69,44,402560,80
70,46,402640,80
71,48,402720,80
70,49,402800,80
69,48,402880,80
68,45,402960,60
67,45,403020,60
66,47,403080,60
65,49,403140,60
64,50,403200,120
67,45,403440,360
70,54,403440,360
67,43,403920,90
70,51,403920,90
67,43,404160,90
70,51,404164,90
66,48,404400,720
75,56,404400,720
75,49,405120,90
66,41,405120,90
64,44,405360,240
73,52,405360,90
70,52,405600,90
63,44,405840,240
71,52,405840,90
68,54,406080,90
67,44,406320,238
70,53,406320,90
63,50,406560,90
67,49,407280,360
70,59,407280,360
67,47,407760,90
70,56,407760,90
70,56,408000,90
67,47,408000,90
66,52,408240,720
75,61,408240,720
75,53,408960,90
66,45,408960,90
64,48,409200,240
73,57,409200,90
71,57,409440,90
67,48,409680,240
70,58,409680,90
63,61,409920,90
68,60,410160,90
63,58,410400,90
63,55,410640,90
68,62,410640,90
70,58,411120,360
75,58,411120,360
79,58,411120,360
82,70,411120,360
70,55,411600,90
75,55,411600,90
79,55,411600,90
82,66,411600,90
82,66,411840,90
70,55,411840,90
75,55,411840,90
79,55,411840,90
75,62,412080,720
78,62,412080,720
87,72,412080,720
75,53,412800,90
87,63,412800,90
78,53,412800,90
73,57,413040,90
76,57,413040,90
85,67,413040,90
70,67,413280,90
82,67,413280,90
71,57,413520,90
75,57,413520,90
83,67,413520,90
68,70,413760,90
80,70,413760,90
70,57,414000,90
75,57,414000,90
82,68,414000,90
63,57,414240,90
75,65,414240,90
63,57,414480,90
75,68,414480,90
70,60,414960,360
75,60,414960,360
79,60,414960,360
82,73,414960,360
70,57,415440,90
75,57,415440,90
79,57,415440,90
82,69,415440,90
82,69,415680,90
70,57,415680,90
75,57,415680,90
79,57,415680,90
75,65,415920,960
78,65,415920,960
87,75,415920,960
74,63,416880,360
79,63,416880,360
83,63,416880,360
86,76,416880,360
74,59,417360,90
79,59,417360,90
83,59,417360,90
86,72,417360,90
86,72,417600,90
74,59,417600,90
79,59,417600,90
83,59,417600,90
79,68,417840,960
82,68,417840,960
87,68,417840,960
91,78,417840,960
79,66,418800,360
84,66,418800,360
88,66,418800,360
91,79,418800,360
79,61,419280,90
84,61,419280,90
88,61,419280,90
91,75,419280,90
91,75,419520,90
79,61,419520,90
84,61,419520,90
88,61,419520,90
84,71,419760,960
88,71,419760,960
91,71,419760,960
96,81,419760,960
67,67,420720,360
72,67,420720,360
76,67,420720,360
79,80,420720,360
67,62,421200,90
72,62,421200,90
76,62,421200,90
79,77,421200,90
79,77,421440,90
67,62,421440,90
72,62,421440,90
76,62,421440,90
72,73,421680,960
76,73,421680,960
79,73,421680,960
84,83,421680,960
79,69,422640,360
84,69,422640,360
88,69,422640,360
91,82,422640,360
79,64,423120,90
84,64,423120,90
88,64,423120,90
91,78,423120,90
91,78,423360,90
79,64,423360,90
84,64,423360,90
88,64,423360,90
84,75,423600,960
88,75,423600,960
91,75,423600,960
96,85,423600,960
67,70,424560,360
72,70,424560,360
76,70,424560,360
79,84,424560,360
67,65,425040,90
72,65,425040,90
76,65,425040,90
79,81,425040,90
79,81,425280,90
67,65,425280,90
72,65,425280,90
76,65,425280,90
72,76,425520,960
76,76,425520,960
79,76,425520,960
84,87,425520,960
85,72,426480,360
93,72,426480,360
97,86,426480,360
85,67,426960,90
93,67,426960,90
97,82,426960,90
97,82,427200,90
85,67,427200,90
93,67,427200,90
97,78,427440,960
88,78,427440,960
93,78,427440,960
100,89,427440,960
73,72,428400,360
81,72,428400,360
85,86,428400,360
73,67,428880,90
81,67,428880,90
85,82,428880,90
85,82,429120,90
73,67,429120,90
81,67,429120,90
85,78,429360,960
76,78,429360,960
81,78,429360,960
88,89,429360,960
85,72,430320,360
93,72,430320,360
97,86,430320,360
85,67,430800,90
93,67,430800,90
97,82,430800,90
97,82,431040,90
85,67,431040,90
93,67,431040,90
97,78,431280,960
88,78,431280,960
93,78,431280,960
100,89,431280,960
73,72,432240,360
81,72,432240,360
85,86,432240,360
73,67,432720,90
81,67,432720,90
85,82,432720,90
85,82,432960,90
73,67,432960,90
81,67,432960,90
85,78,433200,960
76,78,433200,960
81,78,433200,960
88,89,433200,960
54,73,434160,480
58,73,434160,480
61,73,434160,480
66,87,434160,480
58,68,434640,480
61,68,434640,480
65,80,434640,480
53,68,434640,480
51,72,435120,480
54,72,435120,480
58,72,435120,480
63,85,435120,480
54,68,435600,480
58,68,435600,480
61,80,435600,480
49,68,435600,480
54,73,436080,216
58,73,436080,216
61,73,436080,216
66,86,436080,216
54,68,436320,216
58,68,436320,216
61,68,436320,216
66,80,436320,216
56,73,436560,480
61,73,436560,480
68,86,436560,480
58,75,437040,480
61,75,437040,480
66,75,437040,480
70,89,437040,480
54,73,438000,480
58,73,438000,480
61,73,438000,480
66,87,438000,480
58,68,438480,480
61,68,438480,480
65,80,438480,480
53,68,438480,480
51,72,438960,480
54,72,438960,480
58,72,438960,480
63,85,438960,480
54,68,439440,480
58,68,439440,480
61,80,439440,480
49,68,439440,480
54,73,439920,216
58,73,439920,216
61,73,439920,216
66,86,439920,216
54,68,440160,216
58,68,440160,216
61,68,440160,216
66,80,440160,216
56,73,440400,480
61,73,440400,480
68,86,440400,480
58,75,440880,480
61,75,440880,480
66,75,440880,480
70,89,440880,480
61,77,441840,720
66,77,441840,720
70,77,441840,720
73,91,441840,720
61,72,442560,240
66,72,442560,240
70,72,442560,240
73,85,442560,240
63,78,442800,480
66,78,442800,480
71,78,442800,480
75,92,442800,480
61,73,443280,480
66,73,443280,480
70,73,443280,480
73,86,443280,480
58,79,443760,720
70,93,443760,720
58,73,444480,240
68,87,444480,240
58,77,444720,120
66,91,444720,120
58,72,444960,120
65,85,444960,120
58,71,445200,240
63,84,445200,240
66,66,445680,480
70,78,445680,96
71,73,445776,96
70,73,445872,96
69,73,445968,96
70,73,446064,96
68,62,446160,120
71,73,446160,120
66,59,446400,120
70,70,446400,120
65,68,446640,120
68,80,446640,120
63,62,446880,120
66,73,446880,120
58,62,447120,240
65,73,447120,240
54,75,447600,240
58,75,447600,240
63,89,447600,240
73,77,448560,720
78,77,448560,720
82,77,448560,720
85,91,448560,720
73,72,449280,240
78,72,449280,240
82,72,449280,240
85,85,449280,240
75,78,449520,480
78,78,449520,480
83,78,449520,480
87,92,449520,480
73,73,450000,480
78,73,450000,480
82,73,450000,480
85,86,450000,480
70,79,450480,720
82,93,450480,720
68,73,451200,240
80,87,451200,240
66,77,451440,120
78,91,451440,120
65,72,451680,120
77,85,451680,120
63,71,451920,240
75,84,451920,240
78,66,452400,480
82,78,452400,96
83,73,452496,96
82,73,452592,96
81,73,452688,96
82,73,452784,96
71,62,452880,120
83,73,452880,120
70,59,453120,120
82,70,453120,120
68,68,453360,120
80,80,453360,120
66,62,453600,120
78,73,453600,120
65,62,453840,240
77,73,453840,240
63,75,454320,240
70,75,454320,240
75,89,454320,240
54,65,455280,180
58,65,455280,180
61,65,455280,180
66,78,455280,180
54,55,455520,180
58,55,455520,180
61,55,455520,180
66,65,455520,180
58,54,456000,180
61,54,456000,180
65,64,456000,180
53,54,456000,180
51,57,456480,180
54,57,456480,180
58,57,456480,180
63,68,456480,180
54,54,456960,180
58,54,456960,180
61,64,456960,180
49,54,456960,180
54,54,457440,162
58,54,457440,162
61,54,457440,162
66,64,457440,162
56,58,457920,180
61,58,457920,180
68,69,457920,180
58,60,458400,180
61,60,458400,180
66,60,458400,180
70,72,458400,180
54,65,459120,180
58,65,459120,180
61,65,459120,180
66,78,459120,180
54,55,459360,180
58,55,459360,180
61,55,459360,180
66,65,459360,180
58,54,459840,180
61,54,459840,180
65,64,459840,180
53,54,459840,180
51,57,460320,180
54,57,460320,180
58,57,460320,180
63,68,460320,180
54,54,460800,180
58,54,460800,180
61,64,460800,180
49,54,460800,180
54,54,461280,162
58,54,461280,162
61,54,461280,162
66,64,461280,162
56,58,461760,180
61,58,461760,180
68,69,461760,180
58,60,462240,180
61,60,462240,180
66,60,462240,180
70,72,462240,180
61,77,462960,720
66,77,462960,720
70,77,462960,720
73,91,462960,720
61,72,463680,240
66,72,463680,240
70,72,463680,240
73,85,463680,240
63,78,463920,480
66,78,463920,480
71,78,463920,480
75,92,463920,480
61,73,464400,480
66,73,464400,480
70,73,464400,480
73,86,464400,480
58,79,464880,720
70,93,464880,720
58,73,465600,240
68,87,465600,240
58,77,465840,120
66,91,465840,120
58,72,466080,120
65,85,466080,120
58,71,466320,240
63,84,466320,240
66,66,466800,480
70,78,466800,96
71,73,466896,96
70,73,466992,96
69,73,467088,96
70,73,467184,96
68,62,467280,120
71,73,467280,120
66,59,467520,120
70,70,467520,120
65,68,467760,120
68,80,467760,120
63,62,468000,120
66,73,468000,120
58,62,468240,240
65,73,468240,240
54,75,468720,240
58,75,468720,240
63,89,468720,240
73,77,469680,720
78,77,469680,720
82,77,469680,720
85,91,469680,720
73,72,470400,240
78,72,470400,240
82,72,470400,240
85,85,470400,240
75,78,470640,480
78,78,470640,480
83,78,470640,480
87,92,470640,480
73,73,471120,480
78,73,471120,480
82,73,471120,480
85,86,471120,480
70,79,471600,720
82,93,471600,720
68,73,472320,240
80,87,472320,240
66,77,472560,120
78,91,472560,120
65,72,472800,120
77,85,472800,120
63,71,473040,240
75,84,473040,240
78,66,473520,480
82,78,473520,96
83,73,473616,96
82,73,473712,96
81,73,473808,96
82,73,473904,96
71,62,474000,120
83,73,474000,120
70,59,474240,120
82,70,474240,120
68,68,474480,120
80,80,474480,120
66,62,474720,120
78,73,474720,120
65,62,474960,240
77,73,474960,240
66,66,475440,480
70,78,475440,96
71,73,475536,96
70,73,475632,96
69,73,475728,96
70,73,475824,96
68,62,475920,120
71,73,475920,120
66,59,476160,120
70,70,476160,120
65,68,476400,120
68,80,476400,120
63,62,476640,120
66,73,476640,120
58,62,476880,240
65,73,476880,240
54,66,477360,480
58,78,477360,96
59,73,477456,96
58,73,477552,96
57,73,477648,96
58,73,477744,96
56,62,477840,120
59,73,477840,120
54,59,478080,120
58,70,478080,120
53,68,478320,120
56,80,478320,120
51,62,478560,120
54,73,478560,120
46,62,478800,240
53,73,478800,240
51,86,479280,480
55,56,479760,240
58,56,479760,240
63,56,479760,240
67,66,479760,240
79,66,480000,240
75,56,480000,240
70,56,480000,240
67,56,480000,240
91,71,480240,240
87,71,480240,240
82,60,480240,240
79,60,480240,240
103,78,480480,240
99,78,480480,240
94,66,480480,240
91,66,480480,240
46,82,481200,235
58,86,481200,480
55,56,481680,240
58,56,481680,240
63,56,481680,240
67,66,481680,240
79,66,481920,240
75,56,481920,240
70,56,481920,240
67,56,481920,240
91,72,482160,240
87,72,482160,240
82,61,482160,240
79,61,482160,240
103,77,482400,240
99,77,482400,240
94,65,482400,240
91,65,482400,240
43,79,483000,120
55,79,483000,120
44,75,483120,480
56,86,483120,480
53,56,483600,240
58,56,483600,240
62,56,483600,240
65,66,483600,240
77,66,483840,240
74,56,483840,240
70,56,483840,240
65,56,483840,240
89,72,484080,240
86,61,484080,240
82,61,484080,240
77,61,484080,240
101,81,484320,240
98,81,484320,240
94,68,484320,240
89,68,484320,240
46,86,485040,480
58,86,485040,480
55,56,485520,240
58,56,485520,240
63,56,485520,240
67,66,485520,240
79,66,485760,240
75,56,485760,240
70,56,485760,240
67,56,485760,240
91,73,486000,240
87,73,486000,240
82,62,486000,240
79,62,486000,240
103,81,486240,240
99,81,486240,240
94,68,486240,240
91,68,486240,240
46,71,486720,80
48,73,486800,80
50,75,486880,50
51,86,486960,480
63,56,487440,240
58,56,487440,240
55,56,487440,240
67,66,487440,240
67,56,487680,240
70,56,487680,240
79,66,487680,240
75,56,487680,240
82,60,487920,240
79,60,487920,240
91,71,487920,240
87,71,487920,240
91,66,488160,240
99,78,488160,240
103,78,488160,240
94,66,488160,240
58,86,488880,480
46,86,488880,235
67,66,489360,240
55,56,489360,240
58,56,489360,240
63,56,489360,240
67,56,489600,240
79,66,489600,240
75,56,489600,240
70,56,489600,240
91,72,489840,240
82,61,489840,240
87,72,489840,240
79,61,489840,240
103,77,490080,240
94,65,490080,240
99,77,490080,240
91,65,490080,240
55,79,490680,120
43,79,490680,120
44,75,490800,480
56,86,490800,480
53,56,491280,240
58,56,491280,240
62,56,491280,240
65,66,491280,240
77,66,491520,240
74,56,491520,240
70,56,491520,240
65,56,491520,240
89,72,491760,240
86,61,491760,240
82,61,491760,240
77,61,491760,240
101,81,492000,240
98,81,492000,240
94,68,492000,240
89,68,492000,240
51,86,492720,960
55,56,493200,240
58,56,493200,240
63,66,493200,240
75,66,493440,240
70,56,493440,240
67,56,493440,240
87,73,493680,240
82,73,493680,240
79,62,493680,240
99,81,493920,240
94,81,493920,240
91,68,493920,240
63,82,494640,480
51,75,494640,235
55,62,495000,120
58,53,495120,120
63,53,495120,120
67,62,495120,120
67,57,495240,120
79,62,495360,120
75,53,495360,120
70,53,495360,120
79,56,495480,120
91,67,495600,120
87,67,495600,120
82,57,495600,120
79,60,495720,120
91,70,495840,120
87,58,495840,120
82,58,495840,120
91,62,495960,120
103,81,496080,240
99,78,496080,240
94,62,496080,240
70,82,496560,718
58,73,496560,600
55,62,496920,120
58,53,497040,120
63,53,497040,120
67,62,497040,120
67,57,497160,120
79,62,497280,120
75,53,497280,120
70,53,497280,120
79,56,497400,120
91,67,497520,120
87,67,497520,120
82,57,497520,120
79,60,497640,120
91,70,497760,120
87,58,497760,120
82,58,497760,120
91,62,497880,120
103,81,498000,240
99,78,498000,240
94,62,498000,240
55,76,498360,120
67,76,498360,120
68,82,498480,480
56,73,498480,480
53,62,498840,120
58,53,498960,120
62,53,498960,120
65,62,498960,120
65,57,499080,120
77,62,499200,120
74,53,499200,120
70,53,499200,120
77,56,499320,120
89,67,499440,120
86,67,499440,120
82,57,499440,120
77,60,499560,120
89,70,499680,120
86,58,499680,120
82,58,499680,120
89,62,499800,120
101,81,499920,240
98,74,499920,240
94,62,499920,240
70,82,500400,718
58,73,500400,600
55,62,500760,120
58,53,500880,120
63,53,500880,120
67,62,500880,120
67,57,501000,120
79,62,501120,120
75,53,501120,120
70,53,501120,120
79,56,501240,120
91,67,501360,120
87,67,501360,120
82,57,501360,120
79,60,501480,120
91,70,501600,120
87,58,501600,120
82,58,501600,120
91,62,501720,120
103,81,501840,240
99,78,501840,240
94,62,501840,240
46,76,502200,120
58,76,502200,120
63,82,502320,480
51,75,502320,235
55,62,502680,120
58,53,502800,120
63,53,502800,120
67,62,502800,120
67,57,502920,120
79,62,503040,120
75,53,503040,120
70,53,503040,120
79,56,503160,120
91,67,503280,120
87,67,503280,120
82,57,503280,120
79,60,503400,120
91,70,503520,120
87,58,503520,120
82,58,503520,120
91,62,503640,120
103,81,503760,240
99,78,503760,240
94,62,503760,240
70,82,504240,718
58,73,504240,600
55,62,504600,120
58,53,504720,120
63,53,504720,120
67,62,504720,120
67,57,504840,120
79,62,504960,120
75,53,504960,120
70,53,504960,120
79,56,505080,120
91,67,505200,120
87,67,505200,120
82,57,505200,120
79,60,505320,120
91,70,505440,120
87,58,505440,120
82,58,505440,120
91,62,505560,120
103,81,505680,240
99,78,505680,240
94,62,505680,240
55,76,506040,120
67,76,506040,120
68,82,506160,480
56,73,506160,480
53,62,506520,120
58,53,506640,120
62,53,506640,120
65,62,506640,120
65,57,506760,120
77,62,506880,120
74,53,506880,120
70,53,506880,120
77,56,507000,120
89,67,507120,120
86,67,507120,120
82,57,507120,120
77,60,507240,120
89,70,507360,120
86,58,507360,120
82,58,507360,120
89,62,507480,120
101,81,507600,240
98,74,507600,240
94,62,507600,240
63,82,508080,480
51,73,508080,235
55,62,508440,120
58,53,508560,120
63,62,508560,120
67,57,508680,120
75,62,508800,120
70,53,508800,120
79,56,508920,120
87,70,509040,120
82,58,509040,120
79,60,509160,120
87,76,509280,120
82,64,509280,120
91,62,509400,120
99,86,509520,240
94,69,509520,240
75,60,510120,120
87,62,510240,120
80,52,510240,120
87,64,510360,120
99,65,510480,120
92,55,510480,120
87,60,510600,120
99,64,510720,120
92,54,510720,120
87,60,510840,120
70,60,511080,120
82,63,511200,120
75,53,511200,120
82,60,511320,120
94,64,511440,120
87,54,511440,120
82,60,511560,120
94,64,511680,120
87,54,511680,120
82,60,511800,120
70,60,512040,120
82,63,512160,120
74,53,512160,120
82,60,512280,120
94,64,512400,120
86,54,512400,120
82,60,512520,120
94,64,512640,120
86,54,512640,120
82,60,512760,120
70,60,513000,120
82,63,513120,120
75,53,513120,120
82,60,513240,120
94,64,513360,120
87,54,513360,120
82,60,513480,120
94,64,513600,120
87,54,513600,120
82,60,513720,120
75,60,513960,120
87,62,514080,120
80,52,514080,120
87,64,514200,120
99,65,514320,120
92,55,514320,120
87,60,514440,120
99,64,514560,120
92,54,514560,120
87,60,514680,120
70,60,514920,120
82,63,515040,120
75,53,515040,120
82,60,515160,120
94,64,515280,120
87,54,515280,120
82,60,515400,120
94,64,515520,120
87,54,515520,120
82,60,515640,120
70,60,515880,120
82,63,516000,120
74,53,516000,120
82,60,516120,120
94,64,516240,120
86,54,516240,120
82,60,516360,120
94,64,516480,120
86,54,516480,120
82,60,516600,120
87,53,516720,120
94,63,516720,120
82,75,517200,120
97,60,517320,120
87,67,517440,120
97,60,517560,120
80,72,517680,120
96,57,517800,120
87,57,517920,120
96,57,518040,120
79,69,518160,120
94,56,518280,120
77,67,518400,120
92,56,518520,120
75,67,518640,120
91,56,518760,120
74,66,518880,120
90,56,519000,120
75,67,519120,120
91,56,519240,120
76,68,519360,120
91,57,519480,120
77,67,519600,120
92,60,519720,120
76,66,519840,120
91,60,519960,120
77,67,520080,120
92,57,520200,120
78,65,520320,120
93,57,520440,120
79,70,520560,120
94,58,520680,120
87,58,520800,120
94,58,520920,120
82,75,521040,120
97,60,521160,120
87,67,521280,120
97,60,521400,120
80,72,521520,120
96,57,521640,120
87,57,521760,120
96,57,521880,120
79,69,522000,120
94,56,522120,120
77,67,522240,120
92,56,522360,120
75,67,522480,120
91,56,522600,120
74,66,522720,120
90,56,522840,120
75,67,522960,120
91,56,523080,120
76,68,523200,120
91,57,523320,120
77,67,523440,120
92,60,523560,120
76,66,523680,120
91,60,523800,120
77,67,523920,120
92,57,524040,120
78,65,524160,120
93,57,524280,120
79,70,524400,120
94,58,524520,120
87,58,524640,120
94,58,524760,120
82,75,524880,120
97,60,525000,120
87,67,525120,120
97,60,525240,120
80,72,525360,120
96,57,525480,120
87,57,525600,120
96,57,525720,120
79,69,525840,120
94,56,525960,120
77,67,526080,120
92,56,526200,120
75,67,526320,120
91,56,526440,120
74,66,526560,120
90,56,526680,120
75,67,526800,120
91,56,526920,120
79,48,527160,120
91,57,527160,120
80,51,527400,120
92,61,527400,120
79,49,527640,120
91,58,527640,120
80,50,527880,120
92,59,527880,120
79,46,528120,120
91,55,528120,120
80,50,528360,120
92,59,528360,120
79,47,528600,120
91,56,528600,120
80,49,528840,120
92,58,528840,120
82,47,529080,120
79,47,529080,120
91,56,529080,120
83,50,529320,120
80,50,529320,120
92,59,529320,120
82,45,529560,120
79,45,529560,120
91,54,529560,120
83,60,529800,120
80,51,529800,120
92,60,529800,120
82,48,530040,120
79,48,530040,120
91,57,530040,120
83,63,530280,120
80,53,530280,120
92,63,530280,120
82,51,530520,120
79,51,530520,120
91,60,530520,120
83,54,530760,120
80,54,530760,120
92,63,530760,120
88,52,531000,120
79,52,531000,120
91,62,531000,120
89,65,531240,120
80,55,531240,120
92,65,531240,120
88,53,531480,120
79,53,531480,120
91,63,531480,120
89,56,531720,120
80,56,531720,120
92,66,531720,120
88,54,531960,120
79,54,531960,120
91,64,531960,120
89,68,532200,120
80,57,532200,120
92,68,532200,120
88,55,532440,120
79,55,532440,120
91,65,532440,120
89,58,532680,120
80,58,532680,120
92,68,532680,120
88,56,532920,120
79,56,532920,120
91,66,532920,120
89,70,533160,120
80,59,533160,120
92,70,533160,120
88,57,533400,120
79,57,533400,120
91,67,533400,120
89,61,533640,120
80,61,533640,120
92,72,533640,120
88,60,533880,120
79,60,533880,120
91,71,533880,120
89,76,534120,120
80,64,534120,120
92,76,534120,120
88,62,534360,120
79,62,534360,120
91,74,534360,120
89,66,534600,120
80,66,534600,120
92,78,534600,120
87,65,534840,120
79,65,534840,120
91,77,534840,120
80,77,534960,360
86,77,534960,360
92,91,534960,360
94,78,535320,60
92,78,535380,60
79,74,535440,120
91,88,535440,120
77,69,535680,120
89,82,535680,120
82,75,535920,120
94,90,535920,120
74,68,536160,120
86,81,536160,120
75,74,536400,480
87,88,536400,480
80,77,536880,360
86,77,536880,360
92,91,536880,360
94,78,537240,60
92,78,537300,60
79,74,537360,120
91,88,537360,120
77,69,537600,120
89,82,537600,120
82,75,537840,120
94,90,537840,120
74,68,538080,120
86,81,538080,120
75,74,538320,480
87,88,538320,480
53,61,539040,120
57,61,539040,120
63,72,539040,120
65,72,539040,120
58,63,539280,120
53,63,539280,120
62,75,539280,120
65,75,539280,120
86,77,540000,240
82,77,540000,240
74,64,540000,240
77,64,540000,240
98,77,540480,120
94,77,540480,120
89,64,540480,120
86,64,540480,120
91,77,540960,120
87,77,540960,120
79,64,540960,120
82,64,540960,120
103,77,541440,240
99,77,541440,240
94,64,541440,240
91,64,541440,240
74,77,541920,240
70,77,541920,240
62,64,541920,240
65,64,541920,240
86,77,542400,120
82,77,542400,120
77,64,542400,120
74,64,542400,120
79,77,542880,120
75,77,542880,120
67,64,542880,120
70,64,542880,120
91,77,543360,240
87,77,543360,240
82,64,543360,240
79,64,543360,240
53,61,543840,120
57,61,543840,120
63,72,543840,120
65,72,543840,120
53,63,544080,120
62,75,544080,120
65,75,544080,120
58,63,544084,120
85,77,544560,480
77,77,544560,480
82,77,544560,480
89,91,544563,480
76,74,545040,120
88,88,545040,120
77,69,545280,120
89,82,545280,120
91,91,545520,480
79,77,545520,480
82,77,545520,480
82,74,546000,480
77,74,546000,480
89,88,546000,480
53,61,546720,120
57,61,546720,120
63,72,546720,120
65,72,546720,120
53,63,546960,120
62,75,546960,120
65,75,546960,120
58,63,546964,120
82,68,547440,160
79,68,547440,160
91,81,547440,160
77,57,547600,160
89,68,547600,160
76,57,547760,160
88,68,547760,160
75,63,547920,160
87,75,547920,160
74,59,548080,160
86,70,548080,160
73,59,548240,160
85,70,548240,160
72,71,548400,120
84,84,548400,120
84,64,548640,120
96,77,548640,120
72,70,548880,120
84,83,548880,120
84,64,549120,120
96,77,549120,120
53,61,549600,120
57,61,549600,120
63,72,549600,120
65,72,549600,120
53,63,549840,120
62,75,549840,120
65,75,549840,120
58,63,549844,120
82,82,550560,120
73,69,550560,120
70,69,550560,120
94,81,551040,120
85,68,551040,120
82,68,551040,120
82,82,551520,120
75,69,551520,120
70,69,551520,120
94,81,552000,120
85,68,552000,120
82,68,552000,120
53,61,552480,120
57,61,552480,120
63,72,552480,120
65,72,552480,120
53,63,552720,120
62,75,552720,120
65,75,552720,120
58,63,552724,120
73,69,553440,120
70,69,553440,120
77,69,553440,120
82,82,553440,120
82,68,553920,120
89,68,553920,120
85,68,553920,120
94,81,553920,120
79,69,554400,120
84,82,554400,120
76,69,554400,120
72,69,554400,120
96,68,554880,120
101,81,554880,120
93,68,554880,120
89,68,554880,120
53,61,555360,120
57,61,555360,120
63,72,555360,120
65,72,555360,120
53,63,555600,120
62,75,555600,120
65,75,555600,120
58,63,555604,120
74,52,556320,80
77,54,556400,80
82,55,556480,80
86,57,556560,80
89,59,556640,80
94,60,556720,80
98,62,556800,120
79,53,557280,80
82,55,557360,80
87,57,557440,80
91,59,557520,80
94,61,557600,80
99,64,557680,80
103,66,557760,120
70,52,558240,80
73,54,558320,80
78,56,558400,80
82,58,558480,80
85,60,558560,80
90,61,558640,80
94,63,558720,120
71,54,559200,80
75,55,559280,80
78,57,559360,80
83,58,559440,80
87,60,559520,80
90,61,559600,80
95,63,559680,120
66,54,560160,80
69,56,560240,80
74,57,560320,80
78,58,560400,80
81,59,560480,80
86,60,560560,80
90,62,560640,120
67,54,561120,80
71,55,561200,80
74,57,561280,80
79,58,561360,80
83,59,561440,80
86,60,561520,80
91,62,561600,120
59,45,561960,120
71,54,561960,120
77,55,562200,120
65,46,562200,120
72,56,562440,120
60,47,562440,120
78,56,562680,120
66,47,562680,120
75,60,562920,120
63,51,562920,120
82,60,563160,120
70,51,563160,120
79,61,563400,120
67,51,563400,120
87,61,563640,120
75,51,563640,120
82,62,563880,120
70,52,563880,120
89,62,564120,120
77,52,564120,120
86,63,564360,120
74,53,564360,120
94,63,564600,120
82,53,564600,120
74,52,564960,80
77,54,565040,80
82,55,565120,80
86,57,565200,80
89,59,565280,80
94,60,565360,80
98,62,565440,120
79,53,565920,80
82,55,566000,80
87,57,566080,80
91,59,566160,80
94,61,566240,80
99,64,566320,80
103,66,566400,120
70,52,566880,80
73,54,566960,80
78,56,567040,80
82,58,567120,80
85,60,567200,80
90,61,567280,80
94,63,567360,120
71,54,567840,80
75,55,567920,80
78,57,568000,80
83,58,568080,80
87,60,568160,80
90,61,568240,80
95,63,568320,120
66,54,568800,80
68,56,568880,80
74,57,568960,80
78,58,569040,80
80,59,569120,80
86,60,569200,80
90,62,569280,120
67,54,569760,80
71,55,569840,80
74,57,569920,80
79,58,570000,80
83,59,570080,80
86,60,570160,80
91,62,570240,120
59,45,570600,120
71,54,570600,120
77,55,570840,120
65,46,570840,120
72,56,571080,120
60,47,571080,120
78,56,571320,120
66,47,571320,120
75,57,571560,120
63,48,571560,120
82,57,571800,120
70,48,571800,120
79,57,572040,120
67,48,572040,120
87,58,572280,120
75,49,572280,120
82,59,572520,120
70,50,572520,120
91,59,572760,120
79,50,572760,120
87,55,573000,120
75,55,573000,120
94,55,573240,120
82,55,573240,120
92,50,573480,120
80,50,573480,120
89,50,573720,120
77,50,573720,120
86,50,573960,120
74,50,573960,120
82,50,574200,120
70,50,574200,120
80,50,574440,120
68,50,574440,120
77,50,574680,120
65,50,574680,120
74,51,574920,120
62,51,574920,120
65,53,575160,120
77,53,575160,120
80,56,575400,120
68,56,575400,120
82,58,575640,120
70,58,575640,120
86,61,575880,120
74,61,575880,120
77,64,576120,120
89,64,576120,120
92,67,576360,120
80,67,576360,120
94,70,576600,120
82,70,576600,120
96,73,576840,120
84,73,576840,120
86,75,577080,120
98,75,577080,120
99,82,577320,120
87,70,577320,120
101,73,577560,120
98,73,577560,120
94,62,577560,120
89,62,577560,120
103,77,577800,120
99,77,577800,120
94,66,577800,120
91,66,577800,120
101,77,578040,120
98,77,578040,120
94,66,578040,120
89,66,578040,120
103,77,578280,120
99,77,578280,120
94,66,578280,120
91,66,578280,120
101,77,578520,120
98,77,578520,120
94,66,578520,120
89,66,578520,120
103,77,578760,120
99,77,578760,120
91,66,578760,120
94,66,578760,120
101,77,579000,120
98,77,579000,120
94,66,579000,120
89,66,579000,120
103,77,579240,120
99,77,579240,120
94,66,579240,120
91,66,579240,120
101,77,579480,120
98,77,579480,120
94,66,579480,120
89,66,579480,120
103,77,579720,120
99,77,579720,120
91,66,579720,120
94,66,579720,120
101,77,579960,120
98,77,579960,120
94,66,579960,120
89,66,579960,120
103,77,580200,120
99,77,580200,120
94,66,580200,120
91,66,580200,120
101,77,580440,120
98,77,580440,120
94,66,580440,120
89,66,580440,120
103,77,580680,120
99,77,580680,120
91,66,580680,120
94,66,580680,120
101,77,580920,120
98,77,580920,120
94,66,580920,120
89,66,580920,120
91,77,581040,240
94,77,581040,240
99,77,581040,240
103,93,581040,240
70,68,581400,120
67,68,581400,120
75,68,581400,120
79,80,581400,120
67,75,581520,120
70,75,581520,120
75,75,581520,120
79,89,581520,120
55,70,581880,120
58,70,581880,120
63,82,581880,120
55,76,582000,120
58,76,582000,120
63,91,582000,120
70,68,582360,120
75,68,582360,120
82,80,582360,120
70,75,582480,120
75,75,582480,120
82,89,582480,120
55,70,582840,120
58,70,582840,120
63,82,582840,120
55,76,582960,120
58,76,582960,120
63,91,582960,120
75,84,583920,120
79,84,583920,120
87,99,583920,120
87,84,584880,120
91,84,584880,120
99,99,584880,120
34,61,1800,120
39,70,1920,840
27,59,1920,840
43,61,2760,120
31,51,2760,120
44,66,2880,120
32,56,2880,120
45,64,3360,120
33,55,3360,120
46,70,3840,960
34,59,3840,960
67,67,4800,120
63,56,4800,120
58,56,4800,120
55,56,4800,120
34,61,5640,120
39,70,5760,840
27,59,5760,840
43,61,6600,120
31,50,6600,120
46,67,6720,120
34,56,6720,120
48,66,7200,120
36,55,7200,120
49,70,7680,960
37,59,7680,960
70,67,8640,120
67,56,8640,120
63,56,8640,120
58,56,8640,120
24,49,9480,120
36,61,9480,120
39,70,9600,840
27,59,9600,840
44,52,10440,120
32,44,10440,120
48,56,10560,320
36,47,10560,320
49,59,10880,320
37,49,10880,320
50,63,11200,320
38,53,11200,320
51,70,11520,960
39,59,11520,960
72,67,12480,120
68,56,12480,120
63,56,12480,120
60,56,12480,120
24,49,13320,120
36,61,13320,120
39,70,13440,840
27,59,13440,840
44,56,14280,120
32,56,14280,120
48,53,14400,240
36,45,14400,240
51,58,14640,240
39,49,14640,240
52,62,14880,240
40,52,14880,240
53,68,15120,240
41,57,15120,240
54,70,15360,960
42,59,15360,960
75,67,16320,120
72,56,16320,120
66,56,16320,120
63,56,16320,120
54,28,17440,48
60,28,17440,48
56,29,17600,48
62,29,17600,48
57,33,17760,48
63,33,17760,48
59,30,17920,48
65,30,17920,48
60,30,18080,48
66,30,18080,48
62,34,18240,48
68,34,18240,48
63,29,18400,48
69,29,18400,48
65,30,18560,48
71,30,18560,48
66,35,18720,48
72,35,18720,48
68,33,18880,48
74,33,18880,48
69,33,19040,48
75,33,19040,48
71,38,19200,48
77,38,19200,48
72,38,19360,48
78,38,19360,48
74,39,19520,48
80,39,19520,48
75,39,19680,48
81,39,19680,48
77,40,19840,48
83,40,19840,48
78,41,20000,48
84,41,20000,48
80,42,20160,48
86,42,20160,48
81,43,20320,48
87,43,20320,48
82,47,20480,48
88,47,20480,48
83,48,20640,36
89,48,20640,36
84,49,20760,36
90,49,20760,36
85,51,20880,36
91,51,20880,36
86,52,21000,36
92,52,21000,36
93,57,21120,36
87,57,21120,36
66,33,23040,480
65,38,23520,240
63,38,23760,150
62,26,23910,330
65,31,23940,300
61,36,25920,480
60,38,26400,240
58,38,26640,150
57,26,26790,330
60,31,26820,1020
56,30,27360,240
59,36,28800,960
44,30,28800,960
55,31,29760,960
46,26,29760,960
54,31,30720,960
46,26,30720,960
47,31,31680,480
34,26,31680,960
46,31,32160,480
39,35,34560,120
46,33,34980,120
55,34,35010,90
63,35,35040,60
46,33,35940,120
55,34,35970,90
63,36,36000,60
39,35,36480,120
46,33,36900,120
55,34,36930,90
63,36,36960,60
46,35,37860,120
55,37,37890,90
63,38,37920,60
39,38,38400,120
46,37,38820,120
55,38,38850,90
63,39,38880,60
46,37,39780,120
55,38,39810,90
63,39,39840,60
39,38,40320,120
46,36,40740,120
55,38,40770,90
63,40,40800,60
46,38,41700,120
55,39,41730,90
63,41,41760,60
39,38,42240,120
46,35,42630,150
53,37,42660,120
56,39,42690,90
62,40,42720,60
53,38,43620,120
46,38,43620,120
56,39,43650,90
62,40,43680,60
39,38,44160,120
46,39,44580,120
55,41,44610,90
63,42,44640,60
46,37,45540,120
55,39,45570,90
63,40,45600,60
39,38,46080,120
46,38,46500,120
55,39,46530,90
63,41,46560,60
46,38,47460,120
55,40,47490,90
63,41,47520,60
39,38,48000,120
46,38,48420,120
55,39,48450,90
63,41,48480,60
46,38,49380,120
55,40,49410,90
63,42,49440,60
39,38,49920,120
46,37,50310,150
53,38,50340,120
56,39,50370,90
62,41,50400,60
46,36,51300,120
53,38,51330,90
56,39,51360,60
39,38,51840,120
46,35,52260,120
55,38,52290,90
63,41,52320,60
46,34,53220,120
55,37,53250,90
63,39,53280,60
39,38,53760,120
46,36,54180,120
55,39,54210,90
63,42,54240,60
46,36,55140,120
55,38,55170,90
63,41,55200,60
39,48,55680,120
46,42,56100,120
55,46,56130,90
63,48,56160,60
46,39,57060,120
55,41,57090,90
63,44,57120,60
39,38,57600,120
46,39,58020,120
55,42,58050,90
63,46,58080,60
46,35,58980,120
55,37,59010,90
63,38,59040,60
39,35,59520,120
46,31,59910,150
53,33,59940,120
56,34,59970,90
62,36,60000,60
46,32,60900,120
53,32,60900,120
56,34,60930,90
62,36,60960,60
39,35,61440,120
46,35,61860,120
55,37,61890,90
63,39,61920,60
46,37,62820,120
55,39,62850,90
63,41,62880,60
39,53,63360,120
46,42,63780,120
55,45,63810,90
63,48,63840,60
46,44,64740,120
55,46,64770,90
63,47,64800,60
39,48,65280,120
46,36,65700,120
55,38,65730,90
63,40,65760,60
46,35,66660,120
55,37,66690,90
63,38,66720,60
39,35,67200,120
46,31,67590,150
53,33,67620,120
56,34,67650,90
62,36,67680,60
46,32,68580,120
53,32,68580,120
56,34,68610,90
62,36,68640,60
39,35,69120,120
46,35,69540,120
55,37,69570,90
63,39,69600,60
46,35,70500,120
55,37,70530,90
63,39,70560,60
39,36,71040,120
48,36,71460,120
56,38,71490,90
63,40,71520,60
51,35,72420,120
58,37,72450,90
63,39,72480,60
39,36,72960,120
46,36,73350,150
53,38,73380,120
56,38,73410,90
62,40,73440,60
51,35,74340,120
55,37,74370,90
63,39,74400,60
39,36,74880,120
48,36,75300,120
56,38,75330,90
63,40,75360,60
51,35,76260,120
58,37,76290,90
63,39,76320,60
39,36,76800,120
46,36,77190,150
53,38,77220,120
56,38,77250,90
62,40,77280,60
51,35,78180,120
55,37,78210,90
63,39,78240,60
39,36,78720,120
48,36,79140,120
56,38,79170,90
63,40,79200,60
51,35,80100,120
58,37,80130,90
63,39,80160,60
39,36,80640,120
46,36,81030,150
53,38,81060,120
56,38,81090,90
62,40,81120,60
51,35,82020,120
55,37,82050,90
63,39,82080,60
39,36,82560,120
48,36,82980,120
56,38,83010,90
63,40,83040,60
51,35,83940,120
58,37,83970,90
63,39,84000,60
39,36,84480,120
46,36,84870,150
53,38,84900,120
56,38,84930,90
62,40,84960,60
34,61,86340,60
39,68,86400,640
43,64,87040,80
44,64,87200,80
45,68,87360,80
46,64,87520,80
51,64,87680,80
55,68,87840,80
56,64,88000,80
57,64,88160,30
57,56,88200,40
58,50,88240,40
60,46,88280,40
58,58,88320,48
60,50,88368,48
58,57,88416,48
60,50,88464,48
58,56,88512,48
60,49,88560,48
58,55,88608,48
60,50,88656,48
58,56,88704,48
60,48,88752,48
58,55,88800,48
60,50,88848,48
58,58,88896,48
60,51,88944,48
58,60,88992,48
60,56,89040,60
58,63,89100,60
57,60,89160,60
58,60,89220,60
63,74,89280,120
46,52,89700,120
55,56,89730,90
63,58,89760,60
39,35,90240,120
46,31,90630,150
53,33,90660,120
56,34,90690,90
62,36,90720,60
46,32,91620,120
53,32,91620,120
56,34,91650,90
62,36,91680,60
39,35,92160,120
46,32,92580,120
55,35,92610,90
63,38,92640,60
46,31,93540,120
55,34,93570,90
63,36,93600,60
34,61,94020,60
39,68,94080,640
43,64,94720,80
44,64,94880,80
45,68,95040,80
46,64,95200,80
51,64,95360,80
55,68,95520,80
56,64,95680,80
57,64,95840,30
57,56,95880,40
58,50,95920,40
60,46,95960,40
58,58,96000,48
60,50,96048,48
58,57,96096,48
60,50,96144,48
58,56,96192,48
60,49,96240,48
58,55,96288,48
60,50,96336,48
58,56,96384,48
60,48,96432,48
58,55,96480,48
60,50,96528,48
58,58,96576,48
60,51,96624,48
58,60,96672,48
60,56,96720,60
58,63,96780,60
57,60,96840,60
58,60,96900,60
67,74,96960,120
63,68,96960,120
46,57,97380,120
55,61,97410,90
63,63,97440,60
39,35,97920,120
46,31,98310,150
53,33,98340,120
56,34,98370,90
62,36,98400,60
46,25,99315,105
53,28,99330,90
56,34,99345,75
62,36,99360,60
39,35,99840,120
46,32,100260,120
55,35,100290,90
63,38,100320,60
46,31,101220,120
55,34,101250,90
63,36,101280,60
39,35,101760,120
46,34,102180,120
55,35,102210,90
63,36,102240,60
46,34,103140,120
55,35,103170,90
63,36,103200,60
39,35,103680,120
46,33,104100,120
55,37,104130,90
63,35,104160,90
46,35,105060,120
55,36,105090,90
63,38,105120,60
39,35,105600,120
46,31,105990,150
53,33,106020,120
56,34,106050,90
62,36,106080,60
46,25,106995,105
53,28,107010,90
56,34,107025,75
62,36,107040,60
39,35,107520,120
46,33,107940,120
55,37,107970,90
63,35,108000,90
46,35,108900,120
55,36,108930,90
63,38,108960,60
39,35,109440,120
46,34,109860,120
55,35,109890,90
63,36,109920,60
46,34,110820,120
55,35,110850,90
63,36,110880,60
39,35,111360,120
46,33,111780,120
55,37,111810,90
63,35,111840,90
46,35,112740,120
55,36,112770,90
63,38,112800,60
39,35,113280,120
46,31,113670,150
53,33,113700,120
56,34,113730,90
62,36,113760,60
46,25,114675,105
53,28,114690,90
56,34,114705,75
62,36,114720,60
39,35,115200,120
46,36,115620,120
55,38,115650,90
63,39,115680,90
51,35,116580,120
58,36,116610,90
67,38,116640,60
39,35,117120,120
48,34,117540,120
56,36,117570,90
63,38,117600,90
51,35,118500,120
58,36,118530,90
67,38,118560,60
39,35,119040,120
46,33,119460,120
56,35,119490,90
62,36,119520,90
51,31,120420,120
58,34,120450,90
67,37,120480,60
39,35,120960,120
48,32,121380,120
56,34,121410,90
63,35,121440,90
51,32,122340,120
58,34,122370,90
67,35,122400,45
39,33,122880,120
46,27,123300,120
56,28,123330,90
62,29,123360,90
51,31,124260,120
58,33,124290,90
67,35,124320,60
39,35,124800,120
48,34,125220,120
56,36,125250,90
63,38,125280,90
51,35,126180,120
58,36,126210,90
67,38,126240,60
39,35,126720,120
46,34,127140,120
56,35,127170,90
62,38,127200,90
51,30,128100,120
58,33,128130,90
67,37,128160,60
39,35,128640,120
48,31,129060,120
56,34,129090,90
63,36,129120,90
51,32,130020,120
58,34,130050,90
67,36,130080,60
39,35,130560,120
59,30,131040,960
56,25,131040,960
47,25,131040,960
51,25,131040,960
59,30,132000,960
47,25,132000,960
51,25,132000,960
56,25,132000,960
59,30,132960,480
47,25,132960,480
51,25,132960,480
56,25,132960,480
59,30,133440,480
47,25,133440,480
51,25,133440,480
56,25,133440,480
59,30,133920,1440
47,25,133920,1440
51,25,133920,1440
56,25,133920,1440
53,39,148440,120
46,41,148560,120
39,34,148680,240
53,40,148920,120
46,41,149040,120
39,35,149160,240
51,37,149400,120
46,41,149520,120
39,34,149640,240
51,40,149880,120
46,41,150000,120
39,37,150120,240
50,39,150360,120
46,41,150480,120
39,36,150600,240
50,39,150840,120
46,41,150960,120
39,36,151080,240
55,39,151320,120
46,41,151440,120
39,35,151560,240
55,39,151800,120
46,41,151920,120
39,36,152040,240
53,39,152280,120
46,41,152400,120
39,34,152520,240
53,40,152760,120
46,41,152880,120
39,35,153000,240
51,37,153240,120
46,41,153360,120
39,34,153480,240
51,40,153720,120
46,41,153840,120
39,37,153960,240
50,39,154200,120
46,41,154320,120
39,36,154440,240
50,39,154680,120
46,41,154800,120
39,36,154920,240
46,39,155160,120
39,41,155280,120
46,36,155400,240
46,39,155640,120
39,41,155760,120
46,36,155880,120
53,39,156120,120
46,41,156240,120
39,34,156360,240
53,40,156600,120
46,41,156720,120
39,35,156840,240
51,37,157080,120
46,41,157200,120
39,34,157320,240
51,40,157560,120
46,41,157680,120
39,37,157800,240
50,39,158040,120
46,41,158160,120
39,36,158280,240
50,39,158520,120
46,41,158640,120
39,36,158760,240
55,39,159000,120
46,41,159120,120
39,35,159240,240
55,39,159480,120
46,41,159600,120
39,36,159720,240
53,39,159960,120
46,41,160080,120
39,34,160200,240
53,40,160440,120
46,41,160560,120
39,35,160680,240
51,37,160920,120
46,41,161040,120
39,34,161160,240
51,40,161400,120
46,41,161520,120
39,37,161640,240
50,39,161880,120
46,41,162000,120
39,36,162120,240
50,39,162360,120
46,41,162480,120
39,36,162600,240
46,39,162840,120
39,41,162960,120
46,36,163080,240
51,39,163320,120
46,41,163440,120
39,36,163560,240
53,39,163800,120
46,41,163920,120
39,34,164040,240
53,40,164280,120
46,41,164400,120
39,35,164520,240
55,37,164760,120
46,41,164880,120
39,34,165000,240
55,40,165240,120
46,41,165360,120
39,37,165480,240
50,39,165720,120
46,41,165840,120
39,36,165960,240
50,39,166200,120
46,41,166320,120
39,36,166440,240
51,39,166680,120
46,41,166800,120
39,36,166920,240
51,39,167160,120
46,41,167280,120
39,36,167400,240
53,39,167640,120
46,41,167760,120
39,34,167880,240
53,40,168120,120
46,41,168240,120
39,35,168360,240
55,37,168600,120
46,41,168720,120
39,34,168840,240
55,40,169080,120
46,41,169200,120
39,37,169320,240
50,39,169560,120
46,41,169680,120
39,36,169800,240
50,39,170040,120
46,41,170160,120
39,36,170280,240
51,39,170520,120
46,41,170640,120
39,36,170760,240
51,39,171000,120
46,41,171120,120
39,36,171240,120
68,39,171480,120
62,41,171600,120
58,36,171720,120
50,39,171960,120
46,41,172080,120
39,36,172200,120
67,37,172440,120
63,41,172560,120
58,34,172680,120
51,40,172920,120
46,41,173040,120
39,37,173160,120
68,39,173400,120
62,41,173520,120
58,36,173640,120
50,39,173880,120
46,41,174000,120
39,36,174120,120
63,39,174360,120
58,41,174480,120
51,36,174600,120
51,39,174840,120
46,41,174960,120
39,36,175080,120
68,39,175320,120
62,41,175440,120
58,36,175560,120
50,39,175800,120
46,41,175920,120
39,36,176040,120
67,37,176280,120
63,41,176400,120
58,34,176520,120
51,40,176760,120
46,41,176880,120
39,37,177000,120
68,39,177240,120
62,41,177360,120
58,36,177480,120
50,39,177720,120
46,41,177840,120
39,36,177960,120
55,38,178320,240
39,32,178320,240
56,38,178560,240
41,32,178560,240
59,38,178800,240
43,32,178800,240
63,47,179040,960
48,39,179040,960
55,39,179040,960
44,37,180000,720
53,38,180030,690
60,39,180060,660
46,37,180960,720
53,38,180990,690
58,39,181020,660
34,35,181680,90
39,43,181920,60
67,37,182160,60
63,31,182160,60
55,31,182160,60
67,35,182640,60
63,29,182640,60
58,29,182640,60
44,74,182880,180
32,63,182880,180
68,48,183120,60
56,40,183120,60
63,40,183120,60
67,41,183300,60
55,35,183300,60
68,55,183360,60
56,46,183360,60
63,46,183360,60
43,74,183840,180
31,63,183840,180
67,48,184080,60
55,40,184080,60
63,40,184080,60
66,41,184260,60
54,35,184260,60
67,55,184320,60
55,46,184320,60
63,46,184320,60
41,74,184800,180
29,63,184800,180
65,48,185040,60
53,40,185040,60
62,40,185040,60
64,41,185220,60
52,35,185220,60
65,55,185280,60
53,46,185280,60
62,46,185280,60
39,74,185760,180
27,63,185760,180
63,48,186000,60
51,40,186000,60
58,40,186000,60
62,41,186180,60
50,35,186180,60
63,55,186240,60
51,46,186240,60
58,46,186240,60
34,48,186720,60
62,42,186960,60
56,35,186960,60
53,35,186960,60
46,47,187200,60
58,40,187440,60
53,34,187440,60
56,34,187440,60
39,43,187680,60
63,37,187920,60
58,31,187920,60
55,31,187920,60
46,43,188160,60
63,35,188400,60
58,29,188400,60
55,29,188400,60
34,48,188640,60
62,42,188880,60
56,35,188880,60
53,35,188880,60
46,47,189120,60
58,40,189360,60
53,34,189360,60
56,34,189360,60
39,43,189600,60
63,37,189840,60
58,31,189840,60
55,31,189840,60
46,43,190080,60
63,35,190320,60
58,29,190320,60
55,29,190320,60
44,74,190560,180
32,63,190560,180
68,48,190800,60
56,40,190800,60
63,40,190800,60
67,41,190980,60
55,35,190980,60
68,55,191040,60
56,46,191040,60
63,46,191040,60
43,74,191520,180
31,63,191520,180
67,48,191760,60
55,40,191760,60
63,40,191760,60
66,41,191940,60
54,35,191940,60
67,55,192000,60
55,46,192000,60
63,46,192000,60
41,74,192480,180
29,63,192480,180
65,48,192720,60
53,40,192720,60
62,40,192720,60
64,41,192900,60
52,35,192900,60
65,55,192960,60
53,46,192960,60
62,46,192960,60
39,74,193440,180
27,63,193440,180
63,48,193680,60
51,40,193680,60
58,40,193680,60
62,41,193860,60
50,35,193860,60
63,55,193920,60
51,46,193920,60
58,46,193920,60
34,48,194400,60
62,42,194640,60
56,35,194640,60
53,35,194640,60
46,47,194880,60
58,40,195120,60
53,34,195120,60
56,34,195120,60
39,43,195360,60
63,37,195600,60
58,31,195600,60
55,31,195600,60
46,43,195840,60
63,35,196080,60
58,29,196080,60
55,29,196080,60
34,48,196320,60
62,42,196560,60
56,35,196560,60
53,35,196560,60
46,47,196800,60
58,40,197040,60
53,34,197040,60
56,34,197040,60
39,43,197280,60
63,37,197520,60
58,31,197520,60
55,31,197520,60
46,43,197760,60
63,35,198000,60
58,29,198000,60
55,29,198000,60
34,48,198240,60
62,42,198480,60
56,35,198480,60
53,35,198480,60
46,47,198720,60
62,40,198960,60
53,34,198960,60
56,34,198960,60
39,43,199200,60
63,37,199440,60
58,31,199440,60
55,31,199440,60
46,43,199680,60
63,35,199920,60
58,29,199920,60
55,29,199920,60
34,59,200160,60
53,29,200400,60
56,29,200400,60
62,35,200400,60
67,44,200880,60
64,37,200880,60
68,44,201000,60
65,37,201000,60
69,42,201120,60
66,35,201120,60
70,43,201240,60
67,36,201240,60
71,44,201360,60
68,37,201360,60
72,45,201480,60
69,38,201480,60
73,46,201600,60
70,39,201600,60
74,47,201720,60
71,39,201720,60
75,48,201840,60
72,40,201840,60
76,49,201960,60
73,41,201960,60
77,50,202080,60
74,42,202080,60
78,51,202200,60
75,43,202200,60
79,53,202320,60
76,45,202320,60
80,54,202440,60
77,45,202440,60
79,55,202560,60
76,46,202560,60
80,56,202680,60
77,47,202680,60
44,71,203040,120
32,60,203040,120
65,64,203280,240
60,54,203280,240
53,54,203280,240
46,71,203520,120
34,60,203520,120
65,65,203760,240
62,55,203760,240
53,55,203760,240
51,71,204000,120
39,60,204000,120
67,65,204240,120
63,55,204240,120
55,55,204240,120
51,71,204480,120
39,60,204480,120
67,65,204720,120
63,55,204720,120
55,55,204720,120
53,71,204960,120
41,60,204960,120
65,65,205200,120
60,55,205200,120
56,55,205200,120
46,71,205440,120
34,60,205440,120
65,65,205680,120
62,55,205680,120
56,55,205680,120
51,71,205920,120
39,60,205920,120
67,65,206160,120
63,55,206160,120
55,55,206160,120
51,71,206400,120
39,60,206400,120
67,65,206640,120
63,55,206640,120
55,55,206640,120
44,71,206880,120
32,60,206880,120
65,64,207120,240
60,54,207120,240
53,54,207120,240
46,71,207360,120
34,60,207360,120
65,65,207600,240
62,55,207600,240
53,55,207600,240
51,71,207840,120
39,60,207840,120
67,65,208080,120
63,55,208080,120
55,55,208080,120
51,71,208320,120
39,60,208320,120
67,65,208560,120
63,55,208560,120
55,55,208560,120
53,71,208800,120
41,60,208800,120
65,65,209040,120
60,55,209040,120
56,55,209040,120
46,71,209280,120
34,60,209280,120
65,65,209520,120
62,55,209520,120
56,55,209520,120
39,60,209760,120
51,71,209760,120
63,60,210240,120
67,71,210240,120
55,60,210240,120
58,60,210244,120
46,34,211920,60
53,41,211920,60
39,45,212160,60
46,37,212400,60
53,44,212400,60
46,34,212880,60
51,40,212880,60
39,45,213120,60
46,36,213360,60
51,43,213360,60
46,35,213840,60
50,42,213840,60
39,45,214080,60
46,36,214320,60
50,43,214320,60
46,34,214800,60
55,41,214800,60
39,45,215040,60
46,41,215280,60
55,49,215280,60
46,34,215760,60
53,41,215760,60
39,45,216000,60
46,37,216240,60
53,44,216240,60
46,34,216720,60
51,40,216720,60
39,45,216960,60
46,36,217200,60
51,43,217200,60
46,35,217680,60
50,42,217680,60
39,45,217920,60
46,36,218160,60
50,43,218160,60
46,34,218640,60
51,41,218640,60
39,45,218880,60
46,54,219600,240
56,63,219600,240
39,47,219840,240
46,46,220080,240
56,56,220080,240
46,54,220560,240
55,63,220560,240
39,47,220800,240
46,46,221040,240
55,56,221040,240
46,54,221520,240
56,63,221520,240
39,47,221760,240
46,46,222000,240
56,56,222000,240
46,55,222480,240
55,64,222480,240
39,48,222720,240
46,48,222960,240
55,57,222960,240
46,56,223440,240
56,67,223440,240
39,49,223680,240
46,49,223920,240
56,60,223920,240
46,57,224400,240
55,68,224400,240
39,51,224640,240
46,50,224880,240
55,61,224880,240
46,58,225360,240
56,69,225360,240
39,52,225600,240
46,51,225840,240
56,62,225840,240
46,51,226320,240
55,60,226320,240
39,47,226560,240
46,39,226800,240
55,47,226800,240
46,42,227280,240
56,42,227280,240
39,44,227520,240
46,40,227760,240
56,40,227760,240
46,40,228240,240
55,40,228240,240
39,44,228480,240
46,41,228720,240
55,41,228720,240
53,40,229200,240
56,40,229200,240
62,40,229200,240
39,44,229440,240
62,40,229680,240
56,40,229680,240
53,40,229680,240
55,41,230160,240
58,41,230160,240
63,41,230160,240
39,44,230400,240
63,42,230640,240
58,42,230640,240
55,42,230640,240
56,40,231120,240
62,40,231120,240
65,40,231120,240
39,44,231360,240
65,40,231600,240
62,40,231600,240
56,40,231600,240
58,41,232080,240
63,41,232080,240
67,41,232080,240
39,44,232320,240
67,42,232560,240
63,42,232560,240
58,42,232560,240
68,32,233040,240
58,32,233040,240
62,32,233040,240
39,35,233280,240
68,33,233520,240
62,33,233520,240
58,33,233520,240
58,32,234000,240
63,32,234000,240
67,32,234000,240
39,35,234240,240
67,33,234480,240
63,33,234480,240
58,33,234480,240
68,32,234960,240
58,32,234960,240
62,32,234960,240
39,35,235200,240
68,33,235440,240
62,33,235440,240
58,33,235440,240
58,32,235920,240
63,32,235920,240
67,32,235920,240
39,35,236160,240
67,33,236400,240
63,33,236400,240
58,33,236400,240
68,32,236880,240
58,32,236880,240
62,32,236880,240
39,35,237120,240
68,33,237360,240
62,33,237360,240
58,33,237360,240
58,32,237840,240
63,32,237840,240
67,32,237840,240
39,35,238080,240
67,33,238320,240
63,33,238320,240
58,33,238320,240
68,32,238800,240
58,32,238800,240
62,32,238800,240
39,35,239040,240
68,33,239280,240
62,33,239280,240
58,33,239280,240
58,32,239970,510
39,33,240000,480
41,30,240450,510
56,33,240480,480
43,30,240930,450
59,33,240960,420
48,33,241380,1020
55,33,241410,990
63,33,241440,960
44,43,248640,480
53,43,248670,450
60,43,248700,420
46,37,251760,720
53,38,251790,690
58,39,251820,660
34,35,252480,90
39,43,252720,60
46,46,252960,60
55,51,253200,60
63,68,253440,60
56,68,253680,60
72,44,253920,60
68,37,253920,60
79,55,254280,60
83,55,254280,60
80,54,254400,60
84,64,254400,60
55,68,254640,60
70,44,254880,60
67,37,254880,60
78,55,255240,60
81,55,255240,60
79,54,255360,60
82,64,255360,60
53,68,255600,60
68,44,255840,60
65,37,255840,60
76,55,256200,60
79,55,256200,60
77,54,256320,60
80,64,256320,60
51,68,256560,60
67,44,256800,60
63,37,256800,60
74,55,257160,60
78,55,257160,60
75,54,257280,60
79,64,257280,60
46,48,257520,60
62,42,257760,60
46,47,258000,60
56,40,258240,60
39,43,258480,60
46,46,258720,60
55,51,258960,60
63,68,259200,60
68,68,259440,60
84,44,259680,60
80,37,259680,60
91,55,260040,60
95,55,260040,60
92,54,260160,60
96,64,260160,60
67,68,260400,60
82,44,260640,60
79,37,260640,60
90,55,261000,60
93,55,261000,60
91,54,261120,60
94,64,261120,60
65,68,261360,60
80,44,261600,60
77,37,261600,60
88,55,261960,60
91,55,261960,60
89,54,262080,60
92,64,262080,60
63,68,262320,60
79,44,262560,60
75,37,262560,60
86,55,262920,60
90,55,262920,60
87,54,263040,60
91,64,263040,60
58,48,263280,60
74,42,263520,60
58,47,263760,60
68,40,264000,60
51,43,264240,60
58,41,264480,60
67,48,264720,60
75,51,264960,60
58,48,265200,60
74,42,265440,60
58,48,265680,60
68,42,265920,60
51,46,266160,60
58,46,266400,60
67,51,266640,60
75,57,266880,60
58,57,267120,60
65,43,267360,60
74,50,267360,60
56,41,267840,120
68,49,267840,120
67,49,267960,120
55,41,267960,120
66,57,268080,120
54,48,268080,120
65,52,268200,120
53,44,268200,120
64,52,268320,120
52,44,268320,120
63,52,268440,120
51,44,268440,120
62,58,268560,120
50,49,268560,120
61,53,268680,120
49,45,268680,120
60,53,268800,120
48,45,268800,120
47,45,268920,120
59,53,268920,120
58,59,269040,120
46,50,269040,120
57,54,269160,120
45,45,269160,120
44,46,269280,120
56,55,269280,120
55,55,269400,120
43,46,269400,120
42,46,269520,120
54,55,269520,120
41,53,269640,120
53,63,269640,120
40,48,269760,120
52,57,269760,120
39,48,269880,120
51,57,269880,120
38,56,270000,120
50,66,270000,120
37,50,270120,120
49,59,270120,120
36,51,270240,120
48,60,270240,120
35,51,270360,120
47,60,270360,120
34,59,270480,240
46,71,270480,240
33,60,270720,240
45,72,270720,240
44,78,270960,240
32,66,270960,240
65,70,271200,240
60,59,271200,240
53,59,271200,240
46,78,271440,240
34,66,271440,240
65,71,271680,240
62,60,271680,240
53,60,271680,240
51,78,271920,240
39,66,271920,240
67,71,272160,240
63,60,272160,240
55,60,272160,240
51,78,272400,240
39,66,272400,240
67,71,272640,240
63,60,272640,240
55,60,272640,240
53,78,272880,240
41,66,272880,240
65,71,273120,240
60,60,273120,240
56,60,273120,240
46,78,273360,240
34,66,273360,240
65,71,273600,240
62,60,273600,240
56,60,273600,240
51,78,273840,240
39,66,273840,240
67,71,274080,240
63,60,274080,240
55,60,274080,240
51,78,274320,240
39,66,274320,240
67,71,274560,240
63,60,274560,240
55,60,274560,240
44,78,274800,240
32,66,274800,240
65,70,275040,240
60,59,275040,240
53,59,275040,240
46,78,275280,240
34,66,275280,240
65,71,275520,240
62,60,275520,240
53,60,275520,240
51,78,275760,240
39,66,275760,240
67,71,276000,240
63,60,276000,240
55,60,276000,240
51,78,276240,240
39,66,276240,240
67,71,276480,240
63,60,276480,240
55,60,276480,240
53,78,276720,240
41,66,276720,240
65,71,276960,240
60,60,276960,240
56,60,276960,240
46,78,277200,240
34,66,277200,240
65,71,277440,240
62,60,277440,240
56,60,277440,240
39,66,277680,120
51,78,277680,120
55,60,277920,480
58,60,277920,480
63,60,277920,480
67,71,277920,480
55,54,278400,60
58,54,278400,60
63,54,278400,60
67,63,278400,60
56,36,278640,120
58,43,278640,120
51,36,278640,120
58,39,278880,480
56,33,278880,480
51,33,278880,480
58,39,279360,120
56,33,279360,120
51,33,279360,120
61,51,279600,60
51,51,279600,60
61,39,279840,480
51,33,279840,480
61,43,280320,120
51,40,280320,120
56,43,280560,120
51,36,280560,120
56,39,280800,480
51,33,280800,480
59,43,281280,120
51,33,281280,120
58,51,281520,60
51,51,281520,60
55,39,281760,420
51,33,281760,420
54,37,282210,30
55,43,282240,120
51,40,282240,120
39,43,282480,120
56,39,282720,480
50,33,282720,480
46,33,282720,480
56,39,283200,120
50,33,283200,120
46,33,283200,120
39,51,283440,60
55,33,283680,480
58,39,283680,480
49,33,283680,480
55,40,284160,120
58,43,284160,120
49,40,284160,120
39,43,284400,120
48,33,284640,480
56,39,284640,480
51,33,284640,480
47,33,285120,120
56,43,285120,120
51,33,285120,120
39,51,285360,60
55,39,285600,480
46,33,285600,480
55,43,286080,120
46,40,286080,120
43,32,286320,60
50,40,286320,60
55,31,286560,480
48,26,286560,480
51,34,287040,120
44,32,287040,120
39,40,287280,60
55,31,287520,480
46,26,287520,480
55,34,288000,120
46,32,288000,120
43,32,288240,60
50,40,288240,60
55,31,288480,480
48,26,288480,480
51,34,288960,120
44,32,288960,120
39,32,289200,60
51,40,289200,60
48,31,289440,480
36,26,289440,480
44,34,289920,120
32,32,289920,120
39,32,290160,60
51,40,290160,60
48,31,290400,480
36,26,290400,480
44,34,290880,120
32,32,290880,120
39,33,291120,480
51,39,291120,480
36,22,291600,480
48,31,291600,480
32,22,292560,480
44,31,292560,480
27,22,293040,480
39,31,293040,240
43,31,293280,120
44,30,293400,120
45,30,293520,120
46,30,293640,120
51,30,293760,120
55,30,293880,120
56,30,294000,120
57,30,294120,120
58,30,294240,120
46,61,297840,360
58,72,297840,360
46,57,298320,90
58,68,298320,90
46,57,298560,90
58,68,298560,90
51,63,298800,720
63,75,298800,720
51,55,299520,90
63,66,299520,90
49,58,299760,90
61,69,299760,90
47,58,300000,90
59,69,300000,90
46,57,300240,90
58,68,300240,90
44,61,300480,90
56,72,300480,90
46,60,300720,90
58,70,300720,90
39,56,300960,90
51,67,300960,90
39,56,301200,480
51,67,301200,480
63,51,301680,360
61,40,302160,90
63,48,302164,90
61,40,302400,90
63,48,302400,90
59,45,302640,720
63,53,302640,720
59,39,303360,90
63,46,303360,90
63,55,303600,240
58,49,303600,90
61,49,303840,90
56,48,304080,90
59,51,304320,90
55,50,304560,90
58,47,304800,90
63,57,305040,480
63,51,305520,360
61,40,306000,90
63,48,306004,90
61,40,306240,90
63,48,306240,90
59,45,306480,720
63,53,306480,720
59,39,307200,90
63,46,307200,90
58,49,307440,90
61,49,307680,90
51,48,307920,90
55,51,308160,90
56,43,308400,60
59,52,308400,90
59,49,308640,90
56,47,308880,360
59,56,308880,360
46,61,309360,360
58,72,309360,360
46,57,309840,90
58,68,309840,90
46,57,310080,90
58,68,310080,90
51,63,310320,720
63,75,310320,720
51,55,311040,90
63,66,311040,90
49,58,311280,90
61,69,311280,90
47,58,311520,90
59,69,311520,90
46,57,311760,90
58,68,311760,90
44,61,312000,90
56,72,312000,90
46,60,312240,90
58,70,312240,90
39,56,312480,90
51,67,312480,90
39,56,312720,480
51,67,312720,480
63,51,313200,360
61,40,313680,90
63,48,313684,90
61,40,313920,90
63,48,313920,90
59,45,314160,720
63,53,314160,720
59,39,314880,90
63,46,314880,90
63,55,315120,240
58,49,315120,90
61,49,315360,90
56,48,315600,90
59,51,315840,90
55,50,316080,90
58,47,316320,90
63,57,316560,480
63,51,317040,360
61,40,317520,90
63,48,317524,90
61,40,317760,90
63,48,317760,90
59,45,318000,720
63,53,318000,720
59,39,318720,90
63,46,318720,90
58,49,318960,90
61,49,319200,90
51,48,319440,90
55,51,319680,90
56,43,319920,60
59,52,319920,90
59,49,320160,90
56,47,320400,360
59,56,320400,360
39,33,321810,510
55,41,321840,120
51,37,322080,120
44,32,322770,510
56,43,322800,120
51,35,323040,120
63,42,323280,120
56,36,323520,120
39,33,323730,510
55,41,323760,120
51,37,324000,120
44,32,324690,510
56,43,324720,120
51,35,324960,120
63,42,325200,120
56,36,325440,120
51,43,325680,120
63,33,325920,120
49,43,326160,120
61,37,326400,120
47,43,326640,120
59,33,326880,120
42,43,327120,120
54,37,327360,120
43,43,327600,120
51,38,327840,120
44,43,328080,120
51,40,328320,120
39,43,328560,120
46,33,328800,120
51,43,329040,120
46,37,329280,120
39,43,329520,120
46,38,329760,120
51,43,330000,120
46,40,330240,120
44,47,330480,120
51,47,330480,120
39,38,330720,120
32,43,330960,120
39,37,332160,120
55,47,332400,120
51,42,332640,120
63,47,332880,120
44,36,333120,120
56,49,333360,120
51,40,333600,120
63,48,333840,120
39,41,334080,120
55,47,334320,120
51,42,334560,120
63,47,334800,120
44,36,335040,120
56,49,335280,120
51,40,335520,120
63,48,335760,120
56,41,336000,120
51,49,336240,120
63,37,336480,120
49,49,336720,120
61,42,336960,120
47,49,337200,120
59,37,337440,120
42,49,337680,120
54,42,337920,120
43,49,338160,120
51,36,338400,120
55,43,338400,120
44,49,338640,120
51,39,338880,120
56,46,338880,120
39,49,339120,120
46,37,339360,120
51,49,339600,120
58,42,339840,120
63,49,340080,120
58,43,340320,120
51,49,340560,120
61,46,340800,120
60,54,341040,120
51,43,341280,120
44,49,341520,120
39,54,342000,120
51,64,342000,120
40,46,342240,120
52,55,342240,120
37,56,342480,120
49,67,342480,120
39,50,342720,120
51,59,342720,120
35,58,342960,120
47,69,342960,120
37,51,343200,120
49,60,343200,120
33,56,343440,120
45,66,343440,120
35,50,343680,120
47,59,343680,120
31,59,343920,480
43,70,343920,480
32,60,344400,480
44,71,344400,480
39,67,344880,120
46,59,345120,120
51,67,345360,120
58,61,345600,120
63,69,345840,120
58,57,346080,120
51,67,346320,120
61,61,346560,120
60,76,346800,120
51,64,347040,120
44,71,347280,120
63,34,347760,120
73,25,347880,120
66,25,348000,120
73,25,348120,120
59,31,348240,120
73,25,348360,120
66,25,348480,120
73,25,348600,120
64,34,348720,120
73,25,348840,120
68,25,348960,120
73,25,349080,120
59,31,349200,120
73,25,349320,120
68,25,349440,120
73,25,349560,120
63,34,349680,120
73,25,349800,120
66,25,349920,120
73,25,350040,120
59,31,350160,120
73,25,350280,120
66,25,350400,120
73,25,350520,120
64,34,350640,120
73,25,350760,120
68,25,350880,120
73,25,351000,120
59,31,351120,120
73,25,351240,120
68,25,351360,120
64,25,351480,120
37,44,351600,480
49,52,351600,120
42,47,351720,360
35,32,352080,480
47,38,352080,120
42,35,352200,360
63,34,352560,120
73,25,352680,120
66,25,352800,120
73,25,352920,120
59,31,353040,120
73,25,353160,120
66,25,353280,120
73,25,353400,120
64,34,353520,120
73,25,353640,120
68,25,353760,120
73,25,353880,120
59,31,354000,120
73,25,354120,120
68,25,354240,120
73,25,354360,120
63,34,354480,120
73,25,354600,120
66,25,354720,120
73,25,354840,120
59,31,354960,120
73,25,355080,120
66,25,355200,120
73,25,355320,120
64,34,355440,120
73,25,355560,120
68,25,355680,120
73,25,355800,120
59,31,355920,120
73,25,356040,120
68,25,356160,120
64,25,356280,120
37,44,356400,480
49,52,356400,120
42,47,356520,360
35,32,356880,480
47,38,356880,120
42,35,357000,360
62,34,357360,120
73,25,357480,120
66,25,357600,120
73,25,357720,120
62,31,357840,120
73,25,357960,120
66,25,358080,120
73,25,358200,120
64,34,358320,120
73,25,358440,120
68,25,358560,120
73,25,358680,120
62,31,358800,120
73,25,358920,120
66,25,359040,120
73,25,359160,120
37,44,359280,480
49,52,359280,120
42,47,359400,360
35,32,359760,480
47,38,359760,120
42,35,359880,360
62,34,360240,120
73,25,360360,120
66,25,360480,120
73,25,360600,120
62,31,360720,120
71,25,360840,120
66,25,360960,120
71,25,361080,120
65,34,361200,120
71,25,361320,120
68,25,361440,120
71,25,361560,120
66,31,361680,120
76,25,361800,120
70,25,361920,120
76,25,362040,120
42,46,362160,480
49,42,362280,360
35,34,362640,480
47,31,362760,360
62,34,363120,120
73,25,363240,120
66,25,363360,120
73,25,363480,120
62,31,363600,120
73,25,363720,120
66,25,363840,120
73,25,363960,120
64,34,364080,120
73,25,364200,120
68,25,364320,120
73,25,364440,120
62,31,364560,120
73,25,364680,120
66,25,364800,120
73,25,364920,120
37,39,365040,480
49,46,365040,120
42,42,365160,360
35,28,365520,480
47,34,365520,120
42,31,365640,360
62,34,366000,120
73,25,366120,120
66,25,366240,120
73,25,366360,120
62,31,366480,120
71,25,366600,120
66,25,366720,120
71,25,366840,120
65,34,366960,120
71,25,367080,120
68,25,367200,120
71,25,367320,120
66,31,367440,120
76,25,367560,120
70,25,367680,120
76,25,367800,120
42,44,367920,480
49,39,368040,360
35,32,368400,480
47,29,368520,360
51,34,368880,160
61,25,369040,160
59,25,369200,160
69,31,369360,120
66,25,369480,120
61,25,369600,120
59,25,369720,120
52,34,369840,160
61,25,370000,160
59,25,370160,160
68,31,370320,120
64,25,370440,120
61,25,370560,120
59,25,370680,120
51,34,370800,160
61,25,370960,160
59,25,371120,160
69,31,371280,120
66,25,371400,120
61,25,371520,120
59,25,371640,120
52,34,371760,160
61,25,371920,160
59,25,372080,160
68,31,372240,120
64,25,372360,120
61,25,372480,120
59,25,372600,120
37,41,372720,480
49,49,372720,120
42,44,372840,360
35,30,373200,480
47,36,373200,120
42,33,373320,360
51,34,373680,160
61,25,373840,160
59,25,374000,160
69,31,374160,120
66,25,374280,120
61,25,374400,120
59,25,374520,120
52,34,374640,160
61,25,374800,160
59,25,374960,160
68,31,375120,120
64,25,375240,120
61,25,375360,120
59,25,375480,120
51,34,375600,160
61,25,375760,160
59,25,375920,160
69,31,376080,120
66,25,376200,120
61,25,376320,120
59,25,376440,120
52,34,376560,160
61,25,376720,160
59,25,376880,160
68,31,377040,120
64,25,377160,120
61,25,377280,120
59,25,377400,120
37,41,377520,480
49,49,377520,120
42,44,377640,360
35,30,378000,480
47,36,378000,120
42,33,378120,360
50,34,378480,160
61,25,378640,160
59,25,378800,160
66,34,378960,160
61,25,379120,160
59,25,379280,160
52,34,379440,160
59,29,379600,160
68,28,379760,160
50,34,379920,160
59,27,380080,160
66,27,380240,160
37,44,380400,480
49,52,380400,120
42,47,380520,360
35,32,380880,480
47,38,380880,120
42,35,381000,360
50,34,381360,160
61,25,381520,160
59,25,381680,160
66,34,381840,160
61,25,382000,160
59,25,382160,160
53,34,382320,160
59,29,382480,160
68,28,382640,160
54,34,382800,160
64,27,382960,160
70,27,383120,160
42,44,383280,480
49,39,383400,360
35,32,383760,480
47,29,383880,360
50,34,384240,160
61,25,384400,160
59,25,384560,160
66,34,384720,160
61,25,384880,160
59,25,385040,160
52,34,385200,160
59,29,385360,160
68,28,385520,160
50,34,385680,160
59,27,385840,160
66,27,386000,160
37,44,386160,480
49,52,386160,120
42,47,386280,360
35,32,386640,480
47,38,386640,120
42,35,386760,360
50,34,387120,160
61,25,387280,160
59,25,387440,160
66,34,387600,160
61,25,387760,160
59,25,387920,160
53,34,388080,160
59,29,388240,160
68,28,388400,160
64,37,391860,1020
68,42,391890,990
74,49,391920,480
73,47,392400,240
71,41,392640,240
64,38,392880,960
73,38,392880,960
76,45,392880,240
68,39,393120,240
69,45,393360,420
64,37,393780,60
68,42,393810,990
74,49,393840,480
73,47,394320,240
71,41,394560,240
64,38,394800,960
73,38,394800,960
76,45,394800,240
68,39,395040,240
69,45,395280,420
64,37,395700,60
68,42,395730,990
74,49,395760,480
73,47,396240,240
71,41,396480,240
64,38,396720,960
73,38,396720,960
76,45,396720,240
68,39,396960,240
69,45,397200,480
64,39,397680,2400
68,39,397680,2400
71,39,397680,2400
74,49,397680,2400
63,40,403440,90
64,38,403680,90
61,38,403920,90
63,38,404160,90
59,40,404400,90
61,38,404640,90
57,38,404880,90
59,38,405120,90
55,44,405360,90
61,39,405600,90
56,38,405840,90
59,40,406080,90
51,40,406320,90
58,37,406560,90
63,45,406800,480
63,44,407280,90
64,41,407520,90
61,41,407760,90
63,41,408000,90
59,44,408240,90
61,41,408480,90
57,41,408720,90
59,41,408960,90
56,48,409200,90
61,39,409440,90
51,41,409680,90
55,39,409920,90
61,45,409920,90
56,46,410160,90
59,42,410400,90
56,48,410640,90
59,52,410640,90
51,44,411120,90
63,52,411120,90
52,41,411360,90
64,49,411360,90
49,41,411600,90
61,49,411600,90
51,41,411840,90
63,49,411840,90
47,44,412080,90
59,52,412080,90
49,41,412320,90
61,49,412320,90
45,41,412560,90
57,49,412560,90
47,41,412800,90
59,49,412800,90
43,48,413040,480
55,57,413040,480
44,41,413520,480
56,49,413520,480
39,44,414000,90
51,52,414000,90
43,40,414240,90
55,48,414240,90
46,40,414480,90
58,48,414480,90
50,40,414720,90
62,48,414720,90
51,46,414960,90
63,54,414960,90
52,43,415200,90
64,51,415200,90
49,43,415440,90
61,51,415440,90
51,43,415680,90
63,51,415680,90
47,46,415920,90
59,54,415920,90
49,43,416160,90
61,51,416160,90
45,43,416400,90
57,51,416400,90
47,43,416640,90
59,51,416640,90
43,48,416880,90
55,56,416880,90
45,45,417120,90
57,53,417120,90
41,45,417360,90
53,53,417360,90
43,45,417600,90
55,53,417600,90
39,48,417840,90
51,56,417840,90
41,45,418080,90
53,53,418080,90
37,45,418320,90
49,53,418320,90
39,45,418560,90
51,53,418560,90
36,67,418800,480
48,55,419040,90
35,64,419280,480
47,55,419520,90
33,70,419760,480
45,55,420000,90
31,67,420240,480
43,56,420480,90
36,68,420720,480
48,56,420960,90
38,65,421200,480
50,56,421440,90
40,72,421680,960
52,75,421920,720
36,58,422640,90
48,70,422640,90
48,48,422880,90
60,57,422880,90
35,56,423120,90
47,67,423120,90
59,57,423360,90
47,48,423360,90
45,74,423600,90
33,62,423600,90
57,58,423840,90
45,48,423840,90
43,71,424080,90
31,59,424080,90
55,58,424320,90
43,49,424320,90
36,59,424560,90
48,71,424560,90
48,49,424800,90
60,58,424800,90
38,58,425040,90
50,69,425040,90
62,59,425280,90
50,49,425280,90
52,75,425520,90
40,63,425520,90
64,80,425760,720
52,65,425760,720
33,61,426480,90
45,73,426480,90
45,50,426720,90
57,60,426720,90
32,59,426960,90
44,70,426960,90
56,60,427200,90
44,50,427200,90
42,77,427440,90
30,64,427440,90
54,60,427680,90
42,50,427680,90
40,73,427920,90
28,61,427920,90
52,60,428160,90
40,50,428160,90
33,61,428400,90
45,73,428400,90
45,50,428640,90
57,60,428640,90
35,59,428880,90
47,70,428880,90
59,60,429120,90
47,50,429120,90
49,77,429360,90
37,64,429360,90
61,81,429600,720
49,66,429600,720
33,61,430320,90
45,73,430320,90
45,50,430560,90
57,60,430560,90
32,59,430800,90
44,70,430800,90
56,60,431040,90
44,50,431040,90
42,77,431280,90
30,64,431280,90
54,60,431520,90
42,50,431520,90
40,73,431760,90
28,61,431760,90
52,60,432000,90
40,50,432000,90
33,61,432240,90
45,73,432240,90
45,50,432480,90
57,60,432480,90
35,59,432720,90
47,70,432720,90
59,60,432960,90
47,50,432960,90
49,77,433200,90
37,64,433200,90
61,81,433440,660
49,66,433440,660
30,55,434160,480
34,55,434160,480
37,55,434160,480
42,65,434160,480
29,51,434640,480
34,51,434640,480
37,51,434640,480
41,60,434640,480
27,55,435120,480
30,55,435120,480
34,55,435120,480
39,65,435120,480
25,51,435600,480
30,51,435600,480
34,51,435600,480
37,51,435600,480
30,55,436080,216
34,55,436080,216
37,55,436080,216
42,65,436080,216
30,51,436320,216
34,51,436320,216
37,51,436320,216
42,60,436320,216
32,55,436560,480
37,55,436560,480
44,65,436560,480
34,57,437040,480
37,57,437040,480
42,57,437040,480
46,68,437040,480
30,55,438000,480
34,55,438000,480
37,55,438000,480
42,65,438000,480
29,51,438480,480
34,51,438480,480
37,51,438480,480
41,60,438480,480
27,55,438960,480
30,55,438960,480
34,55,438960,480
39,65,438960,480
25,51,439440,480
30,51,439440,480
34,51,439440,480
37,51,439440,480
30,55,439920,216
34,55,439920,216
37,55,439920,216
42,65,439920,216
30,51,440160,216
34,51,440160,216
37,51,440160,216
42,60,440160,216
32,55,440400,480
37,55,440400,480
44,65,440400,480
34,57,440880,480
37,57,440880,480
42,57,440880,480
46,68,440880,480
42,62,441840,720
46,62,441840,720
49,62,441840,720
54,73,441840,720
42,57,442560,240
46,57,442560,240
49,57,442560,240
54,68,442560,240
47,62,442800,480
51,62,442800,480
54,62,442800,480
59,73,442800,480
42,59,443280,480
46,59,443280,480
49,59,443280,480
54,70,443280,480
34,62,443760,720
46,74,443760,720
38,56,444480,240
46,67,444480,240
39,61,444720,120
46,72,444720,120
41,58,444960,120
46,69,444960,120
42,58,445200,240
46,69,445200,240
54,66,445680,480
58,78,445680,480
56,58,446160,120
59,69,446160,120
54,58,446400,120
58,69,446400,120
53,62,446640,120
56,74,446640,120
51,58,446880,120
54,69,446880,120
46,58,447120,240
53,69,447120,240
39,64,447600,240
46,64,447600,240
51,76,447600,240
42,62,448560,720
46,62,448560,720
49,62,448560,720
54,73,448560,720
42,57,449280,240
46,57,449280,240
49,57,449280,240
54,68,449280,240
47,62,449520,480
51,62,449520,480
54,62,449520,480
59,73,449520,480
42,59,450000,480
46,59,450000,480
49,59,450000,480
54,70,450000,480
34,62,450480,720
46,74,450480,720
46,56,451200,240
38,56,451200,240
50,67,451200,240
46,61,451440,120
39,61,451440,120
51,72,451440,120
46,58,451680,120
41,58,451680,120
53,69,451680,120
46,58,451920,240
42,58,451920,240
54,69,451920,240
58,66,452400,480
54,66,452400,480
66,78,452400,480
56,58,452880,120
68,69,452880,120
54,58,453120,120
66,69,453120,120
53,62,453360,120
65,74,453360,120
51,58,453600,120
63,69,453600,120
46,58,453840,240
58,69,453840,240
51,64,454320,240
54,64,454320,240
58,76,454320,240
30,66,455280,480
34,66,455280,480
37,66,455280,480
42,78,455280,480
29,61,455760,480
34,61,455760,480
37,61,455760,480
41,72,455760,480
27,66,456240,480
30,66,456240,480
34,66,456240,480
39,78,456240,480
25,61,456720,480
30,61,456720,480
34,61,456720,480
37,61,456720,480
30,66,457200,480
34,66,457200,480
37,66,457200,480
42,78,457200,480
32,66,457680,480
37,66,457680,480
44,78,457680,480
34,68,458160,480
37,68,458160,480
42,68,458160,480
46,81,458160,480
30,66,459120,480
34,66,459120,480
37,66,459120,480
42,78,459120,480
29,61,459600,480
34,61,459600,480
37,61,459600,480
41,72,459600,480
27,66,460080,480
30,66,460080,480
34,66,460080,480
39,78,460080,480
25,61,460560,480
30,61,460560,480
34,61,460560,480
37,61,460560,480
30,66,461040,480
34,66,461040,480
37,66,461040,480
42,78,461040,480
32,66,461520,480
37,66,461520,480
44,78,461520,480
34,68,462000,480
37,68,462000,480
42,68,462000,480
46,81,462000,480
42,62,462960,720
46,62,462960,720
49,62,462960,720
54,73,462960,720
42,57,463680,240
46,57,463680,240
49,57,463680,240
54,68,463680,240
47,62,463920,480
51,62,463920,480
54,62,463920,480
59,73,463920,480
42,59,464400,480
46,59,464400,480
49,59,464400,480
54,70,464400,480
34,62,464880,720
46,74,464880,720
38,56,465600,240
46,67,465600,240
39,61,465840,120
46,72,465840,120
41,58,466080,120
46,69,466080,120
42,58,466320,240
46,69,466320,240
54,66,466800,480
58,78,466800,480
56,58,467280,120
59,69,467280,120
54,58,467520,120
58,69,467520,120
53,62,467760,120
56,74,467760,120
51,58,468000,120
54,69,468000,120
46,58,468240,240
53,69,468240,240
39,64,468720,240
46,64,468720,240
51,76,468720,240
42,62,469680,720
46,62,469680,720
49,62,469680,720
54,73,469680,720
42,57,470400,240
46,57,470400,240
49,57,470400,240
54,68,470400,240
47,62,470640,480
51,62,470640,480
54,62,470640,480
59,73,470640,480
42,59,471120,480
46,59,471120,480
49,59,471120,480
54,70,471120,480
34,62,471600,720
46,74,471600,720
46,56,472320,240
38,56,472320,240
50,67,472320,240
46,61,472560,120
39,61,472560,120
51,72,472560,120
46,58,472800,120
41,58,472800,120
53,69,472800,120
46,58,473040,240
42,58,473040,240
54,69,473040,240
58,66,473520,480
54,66,473520,480
66,78,473520,480
56,58,474000,120
68,69,474000,120
54,58,474240,120
66,69,474240,120
53,62,474480,120
65,74,474480,120
51,58,474720,120
63,69,474720,120
46,58,474960,240
58,69,474960,240
54,66,475440,480
58,78,475440,480
56,58,475920,120
59,69,475920,120
54,58,476160,120
58,69,476160,120
53,62,476400,120
56,74,476400,120
51,58,476640,120
54,69,476640,120
46,58,476880,240
53,69,476880,240
42,66,477360,480
46,78,477360,480
44,58,477840,120
47,69,477840,120
42,58,478080,120
46,69,478080,120
41,62,478320,120
44,74,478320,120
39,58,478560,120
42,69,478560,120
34,58,478800,240
41,69,478800,240
27,58,479220,300
31,58,479240,280
34,58,479260,260
39,69,479280,240
39,58,479520,240
46,58,479520,240
51,69,479520,240
43,79,480120,120
55,79,480120,120
44,85,480240,480
56,85,480240,480
45,84,480720,420
57,84,480720,420
27,58,481140,300
31,58,481160,280
34,58,481180,260
39,69,481200,240
39,58,481440,240
46,58,481440,240
51,69,481440,240
51,68,482160,480
63,85,482160,480
27,58,483060,300
34,58,483090,270
38,69,483120,240
41,58,483360,240
46,58,483360,240
50,69,483360,240
44,72,483600,360
56,82,483600,360
43,79,483960,120
55,79,483960,120
44,85,484080,480
56,85,484080,480
45,84,484560,420
57,84,484560,420
27,58,484980,300
34,58,485010,270
39,69,485040,240
39,58,485280,240
46,58,485280,240
51,69,485280,240
34,62,486720,80
36,65,486800,80
38,68,486880,50
27,58,486930,270
31,58,486940,260
34,58,486950,250
39,69,486960,240
39,58,487200,240
46,58,487200,240
51,69,487200,240
43,79,487800,120
55,79,487800,120
44,85,487920,480
56,85,487920,480
45,84,488400,420
57,84,488400,420
27,58,488820,300
31,58,488840,280
34,58,488860,260
39,69,488880,240
39,58,489120,240
46,58,489120,240
51,69,489120,240
51,71,489840,480
63,85,489840,480
27,58,490740,300
34,58,490770,270
38,69,490800,240
41,58,491040,240
46,58,491040,240
50,69,491040,240
44,72,491280,360
56,82,491280,360
43,79,491640,120
55,79,491640,120
44,85,491760,480
56,85,491760,480
41,84,492240,420
53,84,492240,420
27,58,492660,300
31,58,492680,280
34,58,492700,260
39,69,492720,240
39,58,492960,240
46,58,492960,240
51,69,492960,240
46,80,494160,360
58,80,494160,360
27,58,494580,300
31,58,494600,280
34,58,494620,260
39,69,494640,240
39,58,494880,240
46,58,494880,240
51,69,494880,240
55,76,495480,120
67,76,495480,120
56,81,495600,480
68,81,495600,480
57,80,496080,420
69,80,496080,420
27,58,496500,300
31,58,496520,280
34,58,496540,260
39,69,496560,240
39,58,496800,240
46,58,496800,240
51,69,496800,240
63,81,497520,480
75,84,497520,480
27,58,498420,300
34,58,498450,270
38,69,498480,240
41,58,498720,240
46,58,498720,240
50,69,498720,240
55,76,499320,120
67,76,499320,120
56,81,499440,480
68,81,499440,480
57,80,499920,420
69,80,499920,420
27,58,500340,300
31,58,500360,280
34,58,500380,260
39,69,500400,240
39,58,500640,240
46,58,500640,240
51,69,500640,240
55,81,501360,240
67,84,501360,240
27,58,502260,300
31,58,502280,280
34,58,502300,260
39,69,502320,240
39,58,502560,240
46,58,502560,240
51,69,502560,240
55,76,503160,120
67,72,503160,120
56,81,503280,480
68,76,503280,480
57,80,503760,420
69,80,503760,420
27,58,504180,300
31,58,504200,280
34,58,504220,260
39,69,504240,240
39,58,504480,240
46,58,504480,240
51,69,504480,240
63,81,505200,480
75,84,505200,480
27,58,506100,300
34,58,506130,270
38,69,506160,240
41,58,506400,240
46,58,506400,240
50,69,506400,240
55,76,507000,120
67,76,507000,120
56,81,507120,480
68,81,507120,480
53,80,507600,420
65,80,507600,420
27,58,508020,300
31,58,508040,280
34,58,508060,260
39,69,508080,240
39,58,508320,240
46,58,508320,240
51,69,508320,240
63,68,509520,480
67,68,509520,480
73,80,509520,480
68,65,510000,480
72,77,510000,480
67,63,510480,120
70,75,510480,120
65,63,510720,120
68,75,510720,120
63,67,510960,120
67,79,510960,120
58,63,511200,120
65,75,511200,120
55,63,511440,120
63,75,511440,120
63,64,511680,120
67,76,511680,120
65,68,511920,360
68,80,511920,360
64,63,512280,120
67,75,512280,120
65,63,512400,120
68,75,512400,120
66,66,512640,120
69,78,512640,120
67,68,512880,120
70,80,512880,120
63,68,513360,480
67,68,513360,480
73,80,513360,480
68,65,513840,480
72,77,513840,480
67,63,514320,120
70,75,514320,120
65,63,514560,120
68,75,514560,120
63,67,514800,120
67,79,514800,120
58,63,515040,120
65,75,515040,120
55,63,515280,120
63,75,515280,120
63,64,515520,120
67,76,515520,120
65,68,515760,360
68,80,515760,360
64,63,516120,120
67,75,516120,120
65,63,516240,120
68,75,516240,120
58,66,516480,120
65,78,516480,120
55,68,516720,120
63,80,516720,120
39,65,517200,240
51,77,517200,240
43,61,517440,240
55,72,517440,240
44,68,517680,240
56,80,517680,240
48,62,517920,240
60,73,517920,240
51,62,518160,240
63,73,518160,240
56,62,518400,240
68,73,518400,240
58,62,518640,480
70,73,518640,480
39,65,519120,240
51,77,519120,240
43,61,519360,240
55,72,519360,240
46,68,519600,240
58,80,519600,240
50,58,519840,240
62,69,519840,240
53,62,520080,240
65,73,520080,240
66,65,520320,240
57,65,520320,240
69,77,520320,240
67,69,520560,480
58,69,520560,480
70,82,520560,480
39,65,521040,240
51,77,521040,240
43,61,521280,240
55,72,521280,240
44,68,521520,240
56,80,521520,240
48,62,521760,240
60,73,521760,240
51,62,522000,240
63,73,522000,240
56,62,522240,240
68,73,522240,240
58,62,522480,480
70,73,522480,480
39,65,522960,240
51,77,522960,240
43,61,523200,240
55,72,523200,240
46,68,523440,240
58,80,523440,240
50,58,523680,240
62,69,523680,240
53,62,523920,240
65,73,523920,240
66,65,524160,240
57,65,524160,240
69,77,524160,240
67,69,524400,480
58,69,524400,480
70,82,524400,480
39,65,524880,240
51,77,524880,240
43,61,525120,240
55,72,525120,240
44,68,525360,240
56,80,525360,240
48,62,525600,240
60,73,525600,240
51,62,525840,240
63,73,525840,240
56,62,526080,240
68,73,526080,240
58,62,526320,480
70,73,526320,480
63,54,527040,240
75,64,527040,240
62,51,527280,120
74,72,527280,120
65,44,527520,120
77,62,527520,120
61,59,527760,120
73,70,527760,120
65,55,528000,120
77,65,528000,120
60,51,528240,120
72,72,528240,120
65,44,528480,120
77,62,528480,120
59,59,528720,120
71,70,528720,120
62,55,528960,120
74,65,528960,120
56,61,529200,120
68,72,529200,120
59,52,529440,120
71,62,529440,120
54,71,529680,120
66,71,529680,120
59,66,529920,120
71,66,529920,120
52,63,530160,120
64,74,530160,120
56,54,530400,120
68,65,530400,120
51,74,530640,120
63,74,530640,120
56,69,530880,120
68,69,530880,120
52,65,531120,120
64,77,531120,120
56,56,531360,120
68,67,531360,120
48,77,531600,120
60,77,531600,120
56,72,531840,120
68,72,531840,120
47,68,532080,120
59,80,532080,120
50,58,532320,120
62,70,532320,120
44,79,532560,120
56,79,532560,120
47,74,532800,120
59,74,532800,120
41,70,533040,120
53,83,533040,120
44,60,533280,120
56,72,533280,120
38,83,533520,120
50,83,533520,120
41,79,533760,120
53,79,533760,120
37,76,534000,120
49,90,534000,120
41,65,534240,120
53,79,534240,120
35,90,534480,120
47,90,534480,120
41,85,534720,120
53,85,534720,120
34,72,534960,240
46,85,534960,240
65,72,535200,240
62,61,535200,240
56,61,535200,240
46,66,535440,120
58,78,535440,120
65,73,535680,120
62,61,535680,120
56,61,535680,120
34,69,535920,120
46,82,535920,120
67,72,536160,120
63,61,536160,120
55,61,536160,120
46,68,536400,240
58,80,536400,240
67,74,536640,240
63,62,536640,240
55,62,536640,240
34,72,536880,240
46,85,536880,240
65,72,537120,240
62,61,537120,240
56,61,537120,240
46,66,537360,120
58,78,537360,120
65,73,537600,120
62,61,537600,120
56,61,537600,120
34,69,537840,120
46,82,537840,120
67,72,538080,120
63,61,538080,120
55,61,538080,120
46,68,538320,240
58,80,538320,240
67,74,538560,240
63,62,538560,240
55,62,538560,240
36,71,538800,120
48,84,538800,120
35,66,539040,120
47,78,539040,120
34,70,539280,120
46,83,539280,120
56,77,539760,480
68,91,539760,480
55,74,540240,120
67,88,540240,120
53,69,540480,120
65,82,540480,120
58,75,540720,120
70,90,540720,120
50,68,540960,120
62,81,540960,120
51,74,541200,480
63,88,541200,480
44,77,541680,480
56,91,541680,480
43,74,542160,120
55,88,542160,120
41,69,542400,120
53,82,542400,120
46,75,542640,120
58,90,542640,120
38,68,542880,120
50,81,542880,120
39,74,543120,480
51,88,543120,480
36,71,543600,120
48,84,543600,120
35,66,543840,120
47,78,543840,120
34,70,544080,120
46,83,544080,120
37,72,544560,240
49,85,544560,240
65,72,544800,240
61,61,544800,240
58,61,544800,240
46,66,545040,120
58,78,545040,120
65,73,545280,120
61,61,545280,120
58,61,545280,120
39,72,545520,240
51,85,545520,240
67,72,545760,180
63,61,545760,180
58,61,545760,180
37,72,546000,240
49,85,546000,240
58,61,546240,180
65,72,546240,180
61,61,546240,180
36,71,546480,120
48,84,546480,120
35,66,546720,120
47,78,546720,120
34,70,546960,120
46,83,546960,120
37,72,547440,240
49,85,547440,240
65,72,547680,240
61,61,547680,240
58,61,547680,240
37,66,547920,120
49,78,547920,120
65,73,548160,120
61,61,548160,120
58,61,548160,120
36,72,548400,120
48,85,548400,120
64,72,548640,120
58,61,548640,120
55,61,548640,120
53,78,548880,120
41,66,548880,120
65,73,549120,120
63,61,549120,120
57,61,549120,120
36,71,549360,120
48,84,549360,120
35,66,549600,120
47,78,549600,120
34,70,549840,120
46,83,549840,120
65,91,550320,480
61,77,550320,480
53,77,550320,480
58,77,550320,480
52,74,550800,120
64,88,550800,120
53,69,551040,120
65,82,551040,120
63,77,551280,480
67,91,551280,480
55,77,551280,480
58,77,551280,480
61,74,551760,480
53,74,551760,480
58,74,551760,480
65,88,551760,480
36,71,552240,120
48,84,552240,120
35,66,552480,120
47,78,552480,120
34,70,552720,120
46,83,552720,120
55,68,553200,160
67,81,553200,160
53,57,553360,160
65,68,553360,160
52,57,553520,160
64,68,553520,160
51,63,553680,160
63,75,553680,160
50,59,553840,160
62,70,553840,160
49,59,554000,160
61,70,554000,160
55,77,554160,480
60,91,554160,480
48,77,554160,480
52,77,554160,480
48,74,554640,480
41,74,554640,480
45,74,554640,480
53,88,554640,480
36,71,555120,120
48,84,555120,120
35,66,555360,120
47,78,555360,120
34,70,555600,120
46,83,555600,120
68,64,555960,60
70,64,556020,60
68,73,556080,480
67,69,556560,120
65,62,556800,120
70,70,557040,120
62,63,557280,120
63,71,557520,360
64,64,557880,60
66,64,557940,60
64,73,558000,480
63,69,558480,120
61,62,558720,120
66,70,558960,120
58,63,559200,120
59,71,559440,480
60,64,559800,60
62,64,559860,60
60,73,559920,480
59,69,560400,120
57,62,560640,120
62,70,560880,120
54,63,561120,120
55,71,561360,360
44,55,561840,120
56,65,561840,120
50,46,562080,120
62,55,562080,120
45,55,562320,120
57,65,562320,120
63,56,562560,120
51,47,562560,120
46,59,562800,120
58,70,562800,120
67,60,563040,120
55,51,563040,120
63,72,563280,120
51,61,563280,120
70,61,563520,120
58,51,563520,120
53,61,563760,120
65,72,563760,120
74,62,564000,120
62,52,564000,120
70,75,564240,120
58,63,564240,120
77,63,564480,120
65,53,564480,120
56,62,564720,480
68,73,564720,480
55,58,565200,120
67,69,565200,120
53,52,565440,120
65,62,565440,120
58,59,565680,120
70,70,565680,120
50,53,565920,120
62,63,565920,120
51,60,566160,360
63,71,566160,360
52,62,566640,480
64,73,566640,480
51,58,567120,120
63,69,567120,120
49,52,567360,120
61,62,567360,120
54,59,567600,120
66,70,567600,120
46,53,567840,120
58,63,567840,120
47,60,568080,360
59,71,568080,360
48,62,568560,480
60,73,568560,480
47,58,569040,120
59,69,569040,120
45,52,569280,120
57,62,569280,120
50,59,569520,120
62,70,569520,120
42,53,569760,120
54,63,569760,120
43,60,570000,360
55,71,570000,360
44,55,570480,120
56,65,570480,120
50,46,570720,120
62,55,570720,120
45,55,570960,120
57,65,570960,120
63,56,571200,120
51,47,571200,120
46,58,571440,120
58,69,571440,120
67,57,571680,120
55,48,571680,120
63,69,571920,120
51,58,571920,120
70,57,572160,120
58,48,572160,120
55,60,572400,120
67,71,572400,120
75,59,572640,120
63,50,572640,120
70,72,572880,120
58,61,572880,120
79,55,573120,120
67,55,573120,120
65,64,573360,120
77,64,573360,120
62,58,573600,120
74,58,573600,120
58,57,573840,120
70,57,573840,120
56,57,574080,120
68,57,574080,120
53,64,574320,120
65,64,574320,120
50,58,574560,120
62,58,574560,120
46,57,574800,120
58,57,574800,120
44,59,575040,120
56,59,575040,120
41,70,575280,120
53,70,575280,120
38,66,575520,120
50,66,575520,120
34,68,575760,120
46,68,575760,120
33,71,576000,120
45,71,576000,120
32,84,576240,120
44,84,576240,120
31,80,576480,120
43,80,576480,120
29,81,576720,120
41,81,576720,120
34,85,576960,120
46,85,576960,120
27,79,577200,120
39,94,577200,120
34,73,577440,120
46,87,577440,120
39,78,577680,120
51,93,577680,120
46,73,577920,120
58,87,577920,120
51,78,578160,120
63,93,578160,120
46,69,578400,120
58,81,578400,120
39,74,578640,120
51,88,578640,120
34,71,578880,120
46,84,578880,120
39,78,579120,120
51,93,579120,120
46,69,579360,120
58,81,579360,120
51,74,579600,120
63,88,579600,120
46,71,579840,120
58,84,579840,120
39,78,580080,120
51,93,580080,120
34,69,580320,120
46,81,580320,120
39,74,580560,120
51,88,580560,120
46,71,580800,120
58,84,580800,120
51,78,581040,120
63,93,581040,120
55,64,581400,120
51,64,581400,120
58,64,581400,120
63,75,581400,120
51,68,581520,120
55,68,581520,120
58,68,581520,120
63,80,581520,120
39,65,581880,120
46,65,581880,120
51,76,581880,120
39,68,582000,120
46,68,582000,120
51,80,582000,120
55,64,582360,120
58,64,582360,120
63,64,582360,120
67,75,582360,120
58,68,582480,120
55,68,582480,120
63,68,582480,120
67,80,582480,120
39,65,582840,120
46,65,582840,120
51,76,582840,120
39,68,582960,120
46,68,582960,120
51,80,582960,120
55,74,583920,120
58,74,583920,120
63,74,583920,120
67,88,583920,120
67,74,584880,120
70,74,584880,120
75,74,584880,120
79,88,584880,120
