note,velocity,position,duration
69,65,1440,390
57,55,1440,390
62,55,1440,390
69,72,1920,720
57,61,1920,720
61,61,1920,960
69,63,2640,240
57,54,2640,240
57,70,2880,480
69,70,2880,480
62,59,2880,480
57,68,3360,480
69,68,3360,480
60,57,3360,480
64,57,3360,480
69,75,3840,960
60,47,3840,480
66,59,3840,480
57,48,3840,960
66,62,4320,480
60,52,4320,480
69,73,4800,480
60,48,4800,480
66,55,4800,480
57,51,4800,480
66,48,5280,480
69,71,5280,360
60,45,5280,480
57,54,5280,360
69,66,5640,120
57,55,5640,120
64,72,5760,1920
60,61,5760,960
57,61,5760,960
52,61,5760,1920
59,72,6720,960
56,61,6720,960
52,61,7770,870
57,61,7770,870
61,61,7770,870
64,72,7770,870
67,76,9480,120
55,63,9480,120
62,63,9480,120
65,63,9480,120
67,82,9600,240
60,70,9600,240
64,70,9600,240
55,59,9600,240
67,79,10080,240
60,64,10080,240
63,64,10080,240
55,54,10080,240
67,78,10800,240
59,65,10800,240
62,65,10800,240
55,55,10800,240
67,82,11040,240
58,70,11040,240
61,70,11040,240
55,59,11040,240
67,78,11520,240
58,65,11520,240
61,65,11520,240
55,55,11520,240
67,42,12480,360
55,32,12480,360
60,36,12480,480
55,37,12840,120
67,45,12840,120
67,54,12960,480
62,44,12960,480
59,43,12968,480
55,37,12969,480
58,42,13440,480
64,47,13440,480
55,47,13440,9
67,62,13440,240
55,54,13680,240
67,63,13680,240
55,61,13920,480
57,61,13920,480
50,61,13920,1440
62,72,13920,1440
57,72,14400,960
54,61,14400,960
50,65,15480,840
55,69,15510,810
59,72,15540,780
62,76,15570,750
62,66,16800,119
50,62,16800,60
56,48,16860,60
53,40,16860,60
62,50,16920,60
62,51,16980,60
68,53,17040,60
65,45,17040,60
74,54,17100,60
74,55,17160,60
80,57,17220,60
77,48,17220,60
86,58,17280,60
86,60,17340,60
92,63,17400,60
89,54,17400,60
98,68,17460,60
92,68,17520,60
89,57,17520,60
86,66,17580,60
86,64,17640,60
80,63,17700,60
77,53,17700,60
74,61,17760,60
74,60,17820,60
68,58,17880,60
65,49,17880,60
62,56,17940,60
62,54,18000,60
56,57,18060,60
53,48,18060,60
50,62,18120,60
56,55,18180,60
53,46,18180,60
62,56,18240,60
62,57,18300,60
68,59,18360,60
65,50,18360,60
74,60,18420,60
74,61,18480,60
80,62,18540,60
77,52,18540,60
86,63,18600,60
86,64,18660,60
92,66,18720,60
89,55,18720,60
98,68,18780,60
92,67,18840,60
89,56,18840,60
86,65,18900,60
86,64,18960,60
80,63,19020,60
77,54,19020,60
74,63,19080,60
74,61,19140,60
68,60,19200,60
65,50,19200,60
62,59,19260,60
62,57,19320,60
56,56,19380,60
53,47,19380,60
50,87,19440,240
57,74,22080,118
45,74,22080,60
52,50,22140,60
49,45,22140,60
57,52,22200,60
57,54,22260,60
64,55,22320,60
61,51,22320,60
69,56,22380,60
69,58,22440,60
76,60,22500,60
73,55,22500,60
81,61,22560,60
81,63,22620,60
88,64,22680,60
85,60,22680,60
93,71,22740,60
88,67,22800,60
85,63,22800,60
81,66,22860,60
81,64,22920,60
76,63,22980,60
73,58,22980,60
69,61,23040,60
69,59,23100,60
64,57,23160,60
61,53,23160,60
57,55,23220,60
57,54,23280,60
52,53,23340,60
49,48,23340,60
45,53,23400,60
52,55,23460,60
49,39,23460,60
57,51,23520,60
57,53,23580,60
64,54,23640,60
61,50,23640,60
69,56,23700,60
69,58,23760,60
76,60,23820,60
73,55,23820,60
81,62,23880,60
81,63,23940,60
88,66,24000,60
85,62,24000,60
93,71,24060,60
88,70,24120,60
85,65,24120,60
81,68,24180,60
81,66,24240,60
76,64,24300,60
73,60,24300,60
69,63,24360,60
69,61,24420,60
64,60,24480,60
61,55,24480,60
57,58,24540,60
57,56,24600,60
52,54,24660,60
49,50,24660,60
45,87,24720,240
57,49,26160,120
69,49,26160,480
62,41,26160,480
58,45,26280,120
57,48,26400,120
58,45,26520,120
57,52,26640,120
69,52,26640,720
61,44,26640,720
58,45,26760,120
57,48,26880,120
58,45,27000,120
57,48,27120,100
62,46,27240,120
61,48,27360,120
69,51,27360,240
58,48,27480,120
57,39,27580,140
62,43,27590,490
69,48,27600,480
58,45,27720,120
57,49,27840,120
58,45,27960,120
57,40,28060,130
64,43,28070,127
69,51,28080,480
64,51,28200,120
60,52,28320,120
59,48,28440,120
57,59,28560,120
69,59,28560,960
66,50,28560,590
59,49,28680,120
57,54,28800,120
59,49,28920,120
57,56,29040,110
66,54,29160,120
60,57,29280,120
59,54,29400,120
57,62,29520,120
69,62,29520,480
66,52,29520,480
59,54,29640,120
57,60,29760,120
59,55,29880,120
57,65,30000,120
69,65,30000,480
66,54,30000,480
60,59,30120,120
59,63,30240,120
57,59,30360,120
52,59,30480,130
60,67,30480,960
64,67,30480,960
53,52,30600,130
52,59,30720,130
53,52,30840,130
52,59,30960,120
57,54,31080,130
55,59,31200,130
53,54,31320,120
52,59,31440,130
59,67,31440,730
64,67,31440,960
53,56,31560,130
52,56,31680,130
53,50,31800,130
52,54,31920,120
59,49,32040,130
56,59,32160,130
53,54,32280,120
64,59,32440,920
61,59,32440,560
52,59,32440,80
53,44,32520,120
52,51,32640,120
53,45,32760,120
52,49,32880,90
61,54,33000,360
57,51,33120,120
53,49,33240,120
52,54,33360,90
57,51,33480,120
53,53,33600,120
52,50,33720,120
49,52,33840,90
53,54,33960,120
52,51,34080,120
49,47,34200,120
45,56,34320,120
46,53,34440,120
47,56,34560,120
48,56,34680,120
49,54,34800,120
50,54,34920,120
51,56,35040,120
52,57,35160,120
53,58,35280,120
54,60,35400,120
55,61,35520,120
56,63,35640,120
55,69,35760,120
56,66,35880,120
67,68,36000,240
55,63,36000,120
65,57,36000,240
56,59,36120,120
67,73,36240,240
55,62,36240,120
64,62,36240,240
56,56,36360,120
55,59,36480,120
56,56,36600,120
67,71,36720,240
55,56,36720,110
63,60,36720,240
60,62,36840,120
58,58,36960,120
56,58,37080,120
55,62,37200,120
56,56,37320,120
67,70,37440,240
55,62,37440,120
62,59,37440,240
56,56,37560,120
67,73,37680,240
55,62,37680,120
61,62,37680,240
57,56,37800,120
55,62,37920,120
57,56,38040,120
67,70,38160,240
55,58,38160,110
61,59,38160,240
60,60,38280,120
58,59,38400,120
57,59,38520,120
55,62,38640,120
57,56,38760,120
55,62,38880,120
57,56,39000,120
67,50,39120,360
55,62,39120,110
60,42,39120,120
60,53,39240,360
58,53,39360,120
57,53,39480,120
67,51,39600,480
55,51,39600,110
59,51,39600,480
62,54,39720,120
58,54,39840,120
55,54,39960,120
67,54,40080,240
55,54,40080,110
58,54,40080,238
64,60,40200,120
58,58,40320,120
55,58,40440,120
62,72,40560,960
50,58,40560,130
57,61,40560,730
51,53,40680,130
50,58,40800,130
51,53,40920,130
50,54,41040,110
57,58,41160,130
54,54,41280,130
51,54,41400,130
50,56,41520,130
51,54,41640,130
50,58,41760,130
51,54,41880,130
50,61,42030,90
62,61,42030,350
59,61,42030,90
59,49,42120,120
55,44,42240,120
51,44,42360,120
50,49,42480,90
55,45,42600,120
50,45,42720,120
48,44,42840,120
47,49,42960,90
51,47,43080,120
50,47,43200,120
47,46,43320,120
43,54,43440,120
42,49,43560,120
43,56,43680,120
42,54,43800,120
43,59,43920,120
42,54,44040,120
43,59,44160,120
42,54,44280,120
43,58,44400,120
44,62,44520,120
45,67,44640,120
46,72,44760,80
86,89,44880,480
80,77,44880,480
77,69,44880,480
74,69,44880,480
86,89,45360,960
80,77,45360,960
77,69,45360,960
74,69,45360,960
86,89,46320,480
80,76,46320,480
77,70,46320,480
74,70,46320,480
86,89,46800,480
80,74,46800,480
77,69,46800,480
74,69,46800,480
81,89,48720,480
79,77,48720,480
76,69,48720,480
69,69,48720,480
81,89,49200,960
79,77,49200,960
76,69,49200,960
69,69,49200,960
81,89,50160,480
79,76,50160,480
76,70,50160,480
69,70,50160,480
79,43,50640,720
81,43,50640,720
76,43,50640,720
69,43,50640,720
57,39,51360,240
64,39,51360,240
67,39,51360,240
69,39,51360,240
57,40,51600,720
64,40,51600,720
67,40,51600,720
69,40,51600,480
69,49,52020,60
81,54,52020,60
69,54,52080,240
81,54,52080,480
57,45,52320,240
64,45,52320,240
67,45,52320,240
69,45,52320,240
70,60,52560,720
69,47,52560,720
65,47,52560,720
58,47,52560,720
81,60,52980,60
93,66,52980,60
81,66,53040,480
93,66,53040,480
69,51,53280,240
58,51,53280,240
65,51,53280,240
70,51,53280,240
69,51,53520,480
59,51,53520,720
66,51,53520,720
71,51,53520,720
69,57,53940,60
81,63,53940,60
69,63,54000,240
81,63,54000,480
59,51,54240,240
66,51,54240,240
69,51,54240,240
71,51,54240,240
72,65,54480,720
69,52,54480,720
60,52,54480,720
81,66,54900,60
93,73,54900,60
81,73,54960,480
93,73,54960,480
69,56,55200,240
60,56,55200,240
72,56,55200,240
67,56,55440,720
69,56,55440,480
61,56,55440,720
73,56,55440,720
69,63,55860,60
81,71,55860,60
69,71,55920,240
81,71,55920,480
61,56,56160,240
67,56,56160,240
69,56,56160,240
73,56,56160,240
74,36,56400,120
62,31,56400,120
70,31,56400,120
75,38,56520,120
63,32,56520,120
72,32,56520,120
77,40,56640,120
65,34,56640,120
74,34,56640,120
75,44,56760,120
79,44,56760,120
67,36,56760,120
81,45,56880,120
69,38,56880,120
77,38,56880,120
82,48,57000,120
70,41,57000,120
79,41,57000,120
84,51,57120,120
72,43,57120,120
81,43,57120,120
86,54,57240,120
74,45,57240,120
82,45,57240,120
86,56,57360,120
74,40,57360,120
82,40,57360,120
84,58,57480,120
72,49,57480,120
81,49,57480,120
82,58,57600,120
70,49,57600,120
79,49,57600,120
81,58,57720,120
69,49,57720,120
77,49,57720,120
79,59,57840,120
67,50,57840,120
75,50,57840,120
77,59,57960,120
65,50,57960,120
74,50,57960,120
75,60,58080,120
63,50,58080,120
72,50,58080,120
74,60,58200,120
62,50,58200,120
70,50,58200,120
75,56,58320,120
63,47,58320,120
72,47,58320,120
77,57,58440,120
65,48,58440,120
74,48,58440,120
79,58,58560,120
67,49,58560,120
75,49,58560,120
81,60,58680,120
77,50,58680,120
69,50,58680,120
82,61,58800,120
70,51,58800,120
79,51,58800,120
84,62,58920,120
72,52,58920,120
81,52,58920,120
86,63,59040,120
74,54,59040,120
82,54,59040,120
87,64,59160,120
75,54,59160,120
84,54,59160,120
87,68,59280,120
75,57,59280,120
84,57,59280,120
86,66,59400,120
74,55,59400,120
82,55,59400,120
84,67,59520,120
72,56,59520,120
81,56,59520,120
82,69,59640,120
70,58,59640,120
79,58,59640,120
81,70,59760,120
69,59,59760,120
77,59,59760,120
79,72,59880,120
67,61,59880,120
75,61,59880,120
77,72,60000,120
65,61,60000,120
74,61,60000,120
75,73,60120,120
63,62,60120,120
72,62,60120,120
75,36,60240,120
63,31,60240,120
71,31,60240,120
76,38,60360,120
64,32,60360,120
73,32,60360,120
78,40,60480,120
66,34,60480,120
75,34,60480,120
76,44,60600,120
80,44,60600,120
68,36,60600,120
82,45,60720,120
70,38,60720,120
78,38,60720,120
83,48,60840,120
71,41,60840,120
80,41,60840,120
85,51,60960,120
73,43,60960,120
82,43,60960,120
87,54,61080,120
75,45,61080,120
83,45,61080,120
87,56,61200,120
75,40,61200,120
83,40,61200,120
85,58,61320,120
73,49,61320,120
82,49,61320,120
83,58,61440,120
71,49,61440,120
80,49,61440,120
82,58,61560,120
70,49,61560,120
78,49,61560,120
80,59,61680,120
68,50,61680,120
76,50,61680,120
78,59,61800,120
66,50,61800,120
75,50,61800,120
76,60,61920,120
64,50,61920,120
73,50,61920,120
75,60,62040,120
63,50,62040,120
71,50,62040,120
76,56,62160,120
64,47,62160,120
73,47,62160,120
78,57,62280,120
66,48,62280,120
75,48,62280,120
80,58,62400,120
68,49,62400,120
76,49,62400,120
82,60,62520,120
78,50,62520,120
70,50,62520,120
83,61,62640,120
71,51,62640,120
80,51,62640,120
85,62,62760,120
73,52,62760,120
82,52,62760,120
87,63,62880,120
75,54,62880,120
83,54,62880,120
88,64,63000,120
76,54,63000,120
85,54,63000,120
88,68,63120,120
76,57,63120,120
85,57,63120,120
87,66,63240,120
75,55,63240,120
83,55,63240,120
85,67,63360,120
73,56,63360,120
82,56,63360,120
83,69,63480,120
71,58,63480,120
80,58,63480,120
82,70,63600,120
70,59,63600,120
78,59,63600,120
80,72,63720,120
68,61,63720,120
76,61,63720,120
78,72,63840,120
66,61,63840,120
75,61,63840,120
76,73,63960,120
64,62,63960,120
73,62,63960,120
76,69,64080,120
73,58,64080,120
64,58,64080,120
70,58,64080,120
77,70,64200,120
65,59,64200,120
79,71,64320,120
67,60,64320,120
80,72,64440,120
68,61,64440,120
82,72,64560,120
70,61,64560,120
84,73,64680,120
72,62,64680,120
85,74,64800,120
73,63,64800,120
88,75,64920,120
76,63,64920,120
89,76,65040,120
80,64,65040,120
77,64,65040,120
84,64,65040,120
87,76,65160,120
75,64,65160,120
85,75,65280,120
73,63,65280,120
84,75,65400,120
72,63,65400,120
82,74,65520,120
70,63,65520,120
80,73,65640,120
68,62,65640,120
79,72,65760,120
67,61,65760,120
77,72,65880,120
65,61,65880,120
78,72,66000,120
75,61,66000,120
66,61,66000,120
72,61,66000,120
79,71,66120,120
67,60,66120,120
81,72,66240,120
69,61,66240,120
82,72,66360,120
70,61,66360,120
84,74,66480,120
72,63,66480,120
86,75,66600,120
74,63,66600,120
87,76,66720,120
75,64,66720,120
90,77,66840,120
78,65,66840,120
91,79,66960,120
82,66,66960,120
79,66,66960,120
86,66,66960,120
89,78,67080,120
77,65,67080,120
87,79,67200,120
75,66,67200,120
86,79,67320,120
74,66,67320,120
84,80,67440,120
72,67,67440,120
82,81,67560,120
70,68,67560,120
81,81,67680,120
69,69,67680,120
79,82,67800,120
67,70,67800,120
77,86,67920,120
80,86,67920,120
68,72,67920,120
74,72,67920,120
81,82,68040,120
69,70,68040,120
82,82,68160,120
70,70,68160,120
83,82,68280,120
71,70,68280,120
84,83,68400,120
72,72,68400,120
85,84,68520,120
73,71,68520,120
86,86,68640,120
74,72,68640,120
87,86,68760,120
75,72,68760,120
88,86,68880,120
76,72,68880,120
89,84,69000,120
77,71,69000,120
90,84,69120,120
78,71,69120,120
91,84,69240,120
79,71,69240,120
92,86,69360,120
80,72,69360,120
93,84,69480,120
81,71,69480,120
94,84,69600,120
82,71,69600,120
95,84,69720,120
83,71,69720,120
96,85,69840,120
84,72,69840,120
97,86,69960,120
85,72,69960,120
98,87,70080,120
86,73,70080,120
99,87,70200,120
87,73,70200,120
100,88,70320,120
88,74,70320,120
98,89,70440,120
101,89,70440,120
89,75,70440,120
98,75,70560,120
101,90,70560,120
90,75,70560,120
98,76,70680,120
101,90,70680,120
91,76,70680,120
98,91,70800,240
101,91,70800,240
92,77,70800,240
81,86,71760,120
69,72,71760,120
76,72,71760,120
82,82,71880,120
70,70,71880,120
83,81,72000,120
71,70,72000,120
84,81,72120,120
72,69,72120,120
85,84,72240,120
73,60,72240,120
86,84,72360,120
74,72,72360,120
87,86,72480,120
75,72,72480,120
88,86,72600,120
76,72,72600,120
89,86,72720,120
77,61,72720,120
90,85,72840,120
78,72,72840,120
91,85,72960,120
79,72,72960,120
92,85,73080,120
80,72,73080,120
93,86,73200,120
81,72,73200,120
93,84,73320,120
82,71,73320,120
93,84,73440,120
83,71,73440,120
81,71,73440,120
93,84,73560,120
84,71,73560,120
81,71,73560,120
81,72,73680,120
93,85,73680,120
85,72,73680,120
81,72,73800,120
93,86,73800,120
86,72,73800,120
81,73,73920,120
93,87,73920,120
87,73,73920,120
81,73,74040,120
93,87,74040,120
88,73,74040,120
81,74,74160,120
93,88,74160,120
89,74,74160,120
90,75,74280,120
93,89,74280,120
81,75,74280,120
81,76,74400,120
93,90,74400,120
91,76,74400,120
81,77,74520,120
93,90,74520,120
92,77,74520,120
93,91,74640,240
81,77,74640,240
69,63,75600,960
66,63,76560,960
62,65,77520,960
70,63,78480,720
70,58,79200,240
63,63,79440,960
63,63,80400,480
63,60,80880,480
62,64,81360,960
50,57,82800,120
55,57,82800,120
58,57,82800,120
63,63,83280,960
70,63,84240,720
70,58,84960,240
61,65,85200,960
65,63,86160,960
59,63,87120,960
64,63,88080,900
50,58,88980,60
62,60,88980,60
60,64,89040,960
57,57,90000,480
57,35,90960,80
58,36,91040,80
59,36,91120,80
60,38,91200,80
61,39,91280,80
62,40,91360,80
63,42,91440,80
64,43,91520,80
65,44,91600,80
66,45,91680,60
67,46,91740,60
68,47,91800,60
69,51,91860,60
81,51,91860,60
69,51,91920,80
81,62,91920,480
68,51,92000,80
67,50,92080,80
66,49,92160,80
65,48,92240,80
64,47,92320,80
63,46,92400,80
62,45,92480,80
61,44,92560,80
60,43,92640,60
59,43,92700,60
58,42,92760,60
52,58,92820,60
57,58,92820,60
53,45,92880,480
58,48,92880,80
57,60,92881,480
59,45,92960,80
60,45,93040,80
61,45,93120,80
62,47,93200,80
63,48,93280,80
64,49,93360,80
65,51,93440,80
66,52,93520,80
67,53,93600,60
68,54,93660,60
69,54,93720,60
70,55,93780,60
81,69,93780,60
71,55,93840,80
81,71,93840,480
70,57,93920,80
69,56,94000,80
68,54,94080,80
67,54,94160,80
66,53,94240,80
65,51,94320,80
64,50,94403,80
63,49,94480,80
62,47,94560,60
61,46,94620,60
60,46,94680,60
58,48,94740,60
53,33,94740,60
59,66,94740,60
57,54,94800,480
60,66,94800,80
61,50,94880,80
62,51,94960,80
63,52,95040,80
64,53,95120,80
65,53,95200,80
66,54,95280,80
67,54,95360,80
68,55,95440,80
69,56,95520,60
70,56,95580,60
71,57,95640,60
69,53,95700,60
72,57,95700,60
81,77,95700,60
69,70,95760,240
73,57,95760,80
81,77,95760,480
72,61,95840,80
71,59,95920,80
70,58,96000,80
69,56,96080,80
68,55,96160,80
67,54,96240,80
66,52,96323,80
65,51,96400,80
64,49,96480,60
63,48,96540,60
62,47,96600,60
57,46,96660,60
61,46,96660,60
57,46,96720,480
62,46,96720,60
63,47,96780,60
64,48,96840,60
65,49,96900,60
66,50,96960,60
67,51,97020,60
68,52,97080,60
69,53,97140,60
70,54,97200,60
71,54,97260,60
72,54,97320,60
73,55,97380,60
74,57,97440,60
75,57,97500,60
76,58,97560,60
77,59,97620,60
78,60,97680,60
79,61,97740,60
80,62,97800,60
81,63,97860,60
82,63,97920,60
83,64,97980,60
84,65,98040,60
85,66,98100,60
86,77,98160,60
85,66,98220,60
84,65,98280,60
83,63,98340,60
82,63,98400,60
81,62,98460,60
80,60,98520,60
79,59,98580,60
78,58,98640,60
77,57,98700,60
76,55,98760,60
75,54,98820,60
74,53,98880,60
73,52,98940,60
72,51,99000,60
71,49,99060,60
70,48,99120,60
69,47,99180,60
68,46,99240,60
67,45,99300,60
66,44,99360,60
65,43,99420,60
64,41,99480,60
63,40,99540,60
62,39,99600,60
60,39,99660,60
63,39,99660,60
61,40,99720,60
64,40,99720,60
62,41,99780,60
65,41,99780,60
63,42,99840,60
66,42,99840,60
64,43,99900,60
67,43,99900,60
65,44,99960,60
68,44,99960,60
66,45,100020,60
69,45,100020,60
67,45,100080,60
70,45,100080,60
68,45,100140,60
71,45,100140,60
69,46,100200,60
72,46,100200,60
70,47,100260,60
73,47,100260,60
71,48,100320,60
74,48,100320,60
72,49,100380,60
75,49,100380,60
73,50,100440,60
76,50,100440,60
74,51,100500,60
77,51,100500,60
75,52,100560,60
78,52,100560,60
76,53,100620,60
79,53,100620,60
77,53,100680,60
80,53,100680,60
78,54,100740,60
81,54,100740,60
79,54,100800,60
82,54,100800,60
80,55,100860,60
83,55,100860,60
81,56,100920,60
84,56,100920,60
82,57,100980,60
85,57,100980,60
83,58,101040,60
86,58,101040,60
84,59,101100,60
87,59,101100,60
85,60,101160,60
88,60,101160,60
86,60,101220,60
89,60,101220,60
87,61,101280,60
90,61,101280,60
88,62,101340,60
91,62,101340,60
89,63,101400,60
92,63,101400,60
90,63,101460,60
93,63,101460,60
91,64,101520,60
94,64,101520,60
92,65,101580,60
95,65,101580,60
93,66,101640,60
96,66,101640,60
94,67,101700,60
97,67,101700,60
95,72,101760,60
98,72,101760,60
96,66,101820,60
99,66,101820,60
95,66,101880,60
98,66,101880,60
94,65,101940,60
97,65,101940,60
93,64,102000,60
96,64,102000,60
92,64,102060,60
95,64,102060,60
91,63,102120,60
94,63,102120,60
90,63,102180,60
93,63,102180,60
89,62,102240,60
92,62,102240,60
88,62,102300,60
91,62,102300,60
87,61,102360,60
90,61,102360,60
86,60,102420,60
89,60,102420,60
85,59,102480,60
88,59,102480,60
84,59,102540,60
87,59,102540,60
83,58,102600,60
86,58,102600,60
82,57,102660,60
85,57,102660,60
81,57,102720,60
84,57,102720,60
80,56,102780,60
83,56,102780,60
79,55,102840,60
82,55,102840,60
78,54,102900,60
81,54,102900,60
77,54,102960,60
80,54,102960,60
76,54,103020,60
79,54,103020,60
75,53,103080,60
78,53,103080,60
74,53,103140,60
77,53,103140,60
73,52,103200,60
76,52,103200,60
72,51,103260,60
75,51,103260,60
71,50,103320,60
74,50,103320,60
70,50,103380,60
73,50,103380,60
69,49,103440,60
72,49,103440,60
68,48,103500,60
71,48,103500,60
67,48,103560,60
70,48,103560,60
66,47,103620,60
69,47,103620,60
65,46,103680,60
68,46,103680,60
64,45,103740,60
67,45,103740,60
63,45,103800,60
66,45,103800,60
62,45,103860,60
65,45,103860,60
61,44,103920,60
64,44,103920,60
60,43,103980,60
63,43,103980,60
64,57,104040,60
57,45,104040,60
60,45,104040,60
65,44,104100,60
66,45,104160,60
67,45,104220,60
68,46,104280,60
69,47,104340,60
70,49,104400,60
71,49,104460,60
72,51,104520,60
73,52,104580,60
74,53,104640,60
75,54,104700,60
76,54,104760,60
77,55,104820,60
78,56,104880,60
79,57,104940,60
80,58,105000,60
81,59,105060,60
82,61,105120,60
83,61,105180,60
84,63,105240,60
85,63,105300,60
86,64,105360,60
87,65,105420,60
88,66,105480,60
89,67,105540,60
90,68,105600,60
91,69,105660,60
92,70,105720,60
93,71,105780,60
94,72,105840,60
95,72,105900,60
96,74,105960,60
97,75,106020,60
98,76,106080,60
99,77,106140,60
100,89,106200,120
96,75,106200,120
93,75,106200,120
88,75,106200,120
101,84,106680,120
89,71,106680,120
93,71,106680,120
96,71,106680,120
48,56,108240,120
47,59,108360,120
48,56,108480,120
47,56,108600,110
52,62,108720,120
50,58,108840,120
48,58,108960,120
48,56,109200,120
47,62,109320,120
48,56,109440,120
47,56,109560,120
52,62,109680,120
50,58,109800,120
48,58,109920,120
48,52,110160,120
47,54,110280,120
48,51,110400,120
47,51,110520,110
52,57,110640,120
50,54,110760,120
48,54,110880,120
47,45,111000,120
52,54,111120,120
50,51,111240,120
48,45,111360,120
48,49,111600,120
47,45,111720,120
48,45,111840,120
71,39,112440,240
68,33,112440,240
68,38,112680,120
64,32,112680,120
74,38,112920,360
71,32,112920,360
76,38,113280,40
73,32,113280,40
74,35,113320,40
71,29,113320,40
73,35,113360,40
69,29,113360,40
68,27,113400,240
71,33,113400,240
74,43,114360,240
71,36,114360,240
71,38,114600,120
68,32,114600,120
78,38,114840,360
74,32,114840,360
80,36,115200,40
76,30,115200,40
78,33,115240,40
74,27,115240,40
76,35,115280,40
73,29,115280,40
83,42,115320,360
78,35,115320,360
85,42,115680,40
80,35,115680,40
83,36,115720,40
78,30,115720,40
81,36,115760,40
76,30,115760,40
86,45,115800,360
80,38,115800,360
88,47,116160,40
86,40,116200,40
85,40,116240,40
90,49,116280,600
83,41,116280,600
89,38,116880,90
83,38,116880,90
89,43,117000,90
83,43,117000,90
88,38,117120,90
83,38,117120,90
83,43,117240,90
88,43,117240,90
82,38,117360,90
88,38,117360,90
82,42,117480,90
88,42,117480,90
81,38,117600,90
88,38,117600,90
81,42,117700,580
88,47,117720,560
81,46,118280,80
87,46,118280,80
80,39,118360,80
86,43,118360,160
79,45,118440,80
79,36,118520,80
85,41,118520,160
78,44,118600,80
77,36,118680,80
83,42,118680,160
76,46,118760,80
76,35,118840,80
81,41,118840,160
74,44,118920,80
74,33,119000,80
79,37,119000,160
72,38,119080,50
71,38,119130,90
79,38,119160,60
77,42,119280,108
71,35,119280,108
76,41,119400,108
71,35,119400,108
74,39,119520,108
71,33,119520,108
80,42,120120,108
71,35,120120,108
78,41,120240,108
71,35,120240,108
76,40,120360,108
71,34,120360,108
74,39,120480,54
71,33,120480,54
68,34,120540,540
71,35,120570,510
66,38,120600,320
74,38,120600,480
65,34,120920,160
64,33,121080,160
68,36,121080,160
73,38,121080,160
63,30,121240,160
68,33,121240,160
72,38,121240,160
62,32,121480,50
68,35,121480,50
71,38,121480,50
69,28,121800,120
64,24,121800,120
61,24,121800,120
69,28,122280,120
61,24,122280,120
64,24,122280,120
71,34,122760,120
62,28,122760,120
66,28,122760,120
66,31,123240,120
59,26,123240,120
56,24,123675,165
59,24,123690,150
64,24,123705,135
68,28,123720,120
66,29,124200,120
63,25,124200,120
64,29,124440,240
56,25,124440,240
76,30,124680,480
64,25,124680,478
74,33,124680,240
71,27,124680,240
73,32,124920,240
69,27,124920,240
76,29,125160,240
68,30,125160,240
62,25,125160,240
69,28,125640,120
64,24,125640,120
61,24,125640,120
69,28,126120,120
61,24,126120,120
64,24,126120,120
71,34,126600,120
62,28,126600,120
66,28,126600,120
71,34,127080,120
66,31,127080,120
62,26,127080,120
59,24,127560,120
62,24,127560,120
68,28,127560,120
59,25,128040,120
64,29,128040,120
62,25,128040,120
64,29,128280,240
61,25,128280,240
88,39,128520,240
76,32,128520,240
78,32,128760,240
86,38,128760,240
74,32,128760,240
71,29,129000,240
83,36,129000,240
74,29,129000,240
64,40,129180,60
69,50,129240,360
61,30,129480,120
64,34,129480,120
71,43,129600,90
73,51,129720,360
61,30,129960,120
64,34,129960,120
69,47,130080,120
66,47,130200,240
62,37,130410,150
71,50,130440,480
66,37,130920,120
69,49,130920,240
68,50,131160,360
59,32,131400,120
64,34,131400,120
68,45,131520,120
69,49,131640,360
57,36,131880,120
63,36,131880,120
71,50,131880,240
56,25,132090,270
64,29,132105,135
71,45,132120,120
64,42,132240,120
76,30,132360,480
64,25,132360,480
74,33,132360,240
71,27,132360,240
73,32,132600,150
69,27,132600,150
62,25,132795,285
68,25,132810,270
71,30,132825,255
74,25,132840,240
64,40,133020,60
69,50,133080,360
61,30,133320,120
64,34,133320,120
71,43,133440,90
73,51,133560,360
61,30,133800,120
64,34,133800,120
69,47,133920,120
66,47,134040,240
62,37,134280,120
71,50,134280,480
66,37,134760,120
69,49,134760,240
69,47,135000,120
68,47,135120,120
59,32,135240,120
62,34,135240,120
66,47,135240,90
64,44,135360,90
64,46,135480,48
66,46,135528,48
64,46,135576,48
63,46,135624,48
64,46,135672,48
62,36,135720,120
66,47,135720,90
68,47,135840,90
69,47,135960,90
73,49,136080,90
64,37,136200,120
76,54,136200,480
62,37,136680,120
64,37,136680,120
71,49,136680,240
74,47,136920,120
73,47,137040,120
61,32,137160,120
64,34,137160,120
71,47,137160,90
69,44,137280,90
69,46,137400,35
69,43,137440,40
71,43,137480,48
69,43,137520,40
68,43,137560,40
69,43,137600,40
62,36,137640,120
73,47,137640,90
71,45,137820,60
69,47,137880,120
61,40,137880,120
97,44,138120,120
85,36,138120,120
88,36,138120,120
93,44,138360,120
81,36,138360,120
85,36,138360,120
59,53,138840,240
56,45,138840,240
56,50,139080,120
52,47,139200,90
61,53,139320,240
57,45,139320,240
64,51,139560,120
61,43,139560,120
61,47,139680,90
57,40,139680,90
59,54,139800,360
56,45,139800,360
56,47,140160,120
52,40,140160,120
59,50,140280,120
56,42,140280,120
71,44,140640,120
66,33,140760,830
70,51,140760,120
71,45,140880,120
73,49,141000,120
71,45,141120,120
70,48,141240,120
71,45,141360,120
69,48,141480,120
66,45,141600,120
64,48,141720,240
68,48,141720,240
92,38,141960,60
88,30,141960,60
93,39,142020,60
90,31,142020,60
95,43,142080,60
92,34,142080,60
93,41,142140,60
90,32,142140,60
92,39,142200,120
88,31,142200,120
59,53,142680,240
56,45,142680,240
56,50,142920,120
52,47,143040,90
57,38,143160,35
61,38,143160,35
57,33,143200,40
61,33,143200,40
59,36,143240,40
63,36,143240,40
57,33,143280,40
61,33,143280,40
56,38,143320,40
60,38,143320,40
57,33,143360,30
61,33,143360,30
61,43,143390,130
64,51,143400,120
61,47,143520,90
57,40,143520,90
59,54,143640,360
56,45,143640,360
56,47,144000,120
52,40,144000,120
59,50,144120,120
56,42,144120,120
71,44,144480,360
66,33,144600,960
71,49,144840,120
71,45,144960,120
70,48,145080,120
71,45,145200,120
69,48,145320,120
71,45,145440,120
64,33,145560,480
68,51,145560,120
71,45,145680,120
71,45,145800,60
71,45,145920,60
66,33,146040,480
70,48,146040,120
71,45,146160,120
69,48,146280,120
71,45,146400,120
64,33,146520,480
68,51,146520,120
71,45,146640,120
71,45,146760,60
71,45,146880,60
70,48,147000,80
66,33,147000,480
73,45,147080,80
71,45,147160,80
69,48,147240,80
73,44,147320,80
71,44,147400,80
64,54,147480,240
68,54,147480,240
64,46,147720,120
56,53,147960,240
59,53,147960,240
52,48,148200,120
56,48,148200,120
59,55,148440,480
62,55,148440,480
52,48,148920,120
59,48,148920,120
57,47,149400,240
57,46,149640,90
59,42,149760,90
61,47,149880,240
57,43,150120,210
54,43,150360,240
59,48,150600,480
59,42,151080,120
66,42,151080,120
69,42,151080,240
68,48,151320,360
59,33,151560,120
64,33,151560,120
68,42,151680,120
69,44,151800,240
57,46,152010,150
63,46,152025,135
71,46,152040,240
56,25,152250,270
64,29,152265,135
71,45,152280,120
64,42,152400,120
86,37,152520,240
74,31,152520,240
83,31,152520,240
73,31,152760,240
85,36,152760,240
81,31,152760,240
71,34,153000,240
83,27,153000,240
80,27,153000,240
69,28,153480,120
64,24,153480,120
61,24,153480,120
69,28,153960,120
61,24,153960,120
64,24,153960,120
62,41,154200,720
69,47,154320,600
74,49,154440,480
74,47,155040,120
62,32,155160,960
64,34,155160,960
74,47,155160,120
68,47,155280,120
68,47,155400,90
68,44,155520,90
68,46,155640,35
68,43,155680,35
69,43,155720,35
68,43,155760,35
66,43,155800,35
68,43,155840,35
69,47,155880,90
71,45,156000,90
69,47,156120,240
61,40,156120,240
69,28,156360,240
64,24,156360,240
61,24,156360,237
69,28,156840,240
61,24,156840,240
64,24,156840,240
62,38,157080,478
69,41,157140,60
74,44,157200,60
78,45,157260,380
90,48,157320,320
78,40,157640,80
90,40,157640,80
78,42,157720,80
90,42,157720,80
78,45,157800,80
90,45,157800,80
78,46,157880,80
90,46,157880,80
78,49,157960,80
90,49,157960,80
78,54,158040,240
90,54,158040,60
80,48,158100,60
90,44,158160,60
92,44,158220,60
102,54,158280,60
92,45,158340,60
90,41,158400,60
80,41,158460,60
90,50,158520,60
80,41,158580,60
78,41,158640,60
68,36,158700,50
68,36,158760,70
68,35,158840,70
68,36,158920,70
62,43,159000,240
64,43,159000,240
68,50,159000,50
68,37,159060,60
69,41,159120,60
68,37,159180,60
67,36,159240,60
68,36,159300,60
69,36,159360,60
70,36,159420,60
71,36,159480,60
72,37,159540,60
73,38,159600,60
74,39,159660,60
75,40,159720,60
76,41,159780,60
77,42,159840,60
78,43,159900,60
79,44,159960,60
80,44,160020,60
81,45,160080,60
82,45,160140,60
83,46,160200,60
84,47,160260,60
85,48,160320,60
86,49,160380,60
87,50,160440,60
88,50,160500,60
89,51,160560,60
90,52,160620,60
91,53,160680,60
92,54,160740,60
93,54,160800,60
94,55,160860,60
95,56,160920,60
96,57,160980,60
97,58,161040,60
98,58,161100,60
99,59,161160,80
100,60,161240,80
101,62,161320,80
102,72,161400,60
68,43,161760,120
62,49,161760,120
69,43,161880,240
62,45,162720,120
64,45,162720,120
71,45,162720,120
76,50,162720,120
61,33,162840,240
69,33,162840,240
75,55,162840,120
76,50,162960,120
69,33,163080,240
78,54,163080,120
76,50,163200,120
75,53,163320,120
76,50,163440,120
64,33,163560,240
74,53,163560,120
71,50,163680,120
64,34,163800,240
69,34,163800,240
73,43,163800,240
62,45,164640,120
64,45,164640,120
71,45,164640,120
76,50,164640,240
61,33,164760,120
69,33,164760,120
76,38,164880,90
88,50,164880,90
76,41,165000,90
88,54,165000,90
76,38,165120,90
88,50,165120,90
75,40,165240,120
87,53,165240,120
76,38,165360,120
88,50,165360,120
74,40,165480,120
86,53,165480,120
76,38,165600,90
88,50,165600,90
76,42,165720,120
88,54,165720,120
73,38,165840,90
85,50,165840,90
73,38,165960,90
85,50,165960,90
73,38,166080,90
85,50,166080,90
72,41,166200,120
84,54,166200,120
73,38,166320,120
85,50,166320,120
71,41,166440,120
83,54,166440,120
73,38,166560,90
85,50,166560,90
73,42,166680,120
85,54,166680,120
69,38,166800,90
81,50,166800,90
69,38,166920,90
81,50,166920,90
69,38,167040,90
81,50,167040,90
68,43,167160,80
80,55,167160,80
71,39,167240,80
83,51,167240,80
69,39,167320,80
81,51,167320,80
67,42,167400,80
79,54,167400,80
71,38,167480,120
83,50,167480,120
69,38,167600,30
81,50,167600,30
69,41,167640,120
81,54,167640,120
66,39,167760,90
78,51,167760,90
66,39,167880,240
74,43,167880,240
78,51,167880,240
62,55,168360,240
62,60,168600,120
56,56,168720,360
64,55,169320,240
64,60,169560,120
57,56,169680,360
90,55,170280,240
78,55,170280,240
88,55,170520,90
76,55,170520,90
87,51,170640,90
75,51,170640,90
74,46,170760,240
86,50,170760,60
86,42,170820,60
88,45,170880,60
86,42,170940,60
85,46,171000,60
86,42,171060,60
97,49,171120,60
95,44,171180,60
92,44,171240,60
86,44,171300,60
87,45,171360,60
88,46,171420,60
89,48,171480,60
92,52,171540,60
90,45,171600,60
86,45,171660,60
80,45,171720,60
81,44,171780,60
82,46,171840,60
85,49,171900,60
83,45,171960,60
80,45,172020,60
74,44,172080,60
75,42,172140,60
76,45,172200,60
77,48,172260,60
80,50,172320,60
78,42,172380,60
74,42,172440,60
68,42,172500,60
69,45,172560,60
70,39,172620,60
73,44,172680,60
71,39,172740,60
74,46,172800,60
78,42,172860,60
75,47,172920,60
76,45,172980,60
80,48,173040,60
85,44,173100,60
82,48,173160,60
83,44,173220,60
86,48,173280,60
90,45,173340,60
87,48,173400,60
88,45,173460,60
92,48,173520,60
97,45,173580,60
94,45,173640,60
95,43,173700,60
98,43,173760,60
101,43,173820,60
94,45,173880,60
95,43,173940,60
98,45,174000,60
100,45,174060,60
94,49,174120,60
95,46,174180,60
98,46,174240,60
101,47,174300,60
94,53,174360,60
95,50,174420,60
98,51,174480,60
100,52,174540,60
94,55,174600,60
95,54,174660,60
98,54,174720,60
101,54,174780,60
94,59,174840,60
95,55,174900,60
98,55,174960,60
100,55,175020,60
94,62,175080,60
95,57,175140,60
98,49,175200,60
101,49,175260,60
99,54,175320,60
100,49,175380,60
98,54,175440,60
99,49,175500,60
97,54,175560,60
98,49,175620,60
96,54,175680,60
97,49,175740,60
95,54,175800,60
96,49,175860,60
94,54,175920,60
95,49,175980,60
93,54,176040,60
94,45,176100,60
92,50,176160,60
93,46,176220,60
91,50,176280,60
92,46,176340,60
90,50,176400,60
91,46,176460,60
89,50,176520,60
90,46,176580,60
88,50,176640,60
89,45,176700,60
87,51,176760,60
88,44,176820,60
86,45,176880,60
87,43,176940,60
85,47,177000,60
86,43,177060,60
84,48,177120,60
85,43,177180,60
83,48,177240,60
84,43,177300,60
82,49,177360,60
83,42,177420,60
81,49,177480,60
82,45,177540,60
80,49,177600,60
81,44,177660,60
79,50,177720,60
80,43,177780,60
78,49,177840,60
79,44,177900,60
77,48,177960,60
78,42,178020,60
76,49,178080,60
77,44,178140,60
75,49,178200,60
76,44,178260,60
74,49,178320,60
76,43,178380,60
73,48,178440,60
76,45,178500,60
74,45,178560,60
76,42,178620,60
70,39,178680,60
76,36,178740,60
71,43,178800,60
76,41,178860,60
73,46,178920,60
76,42,178980,60
74,49,179040,60
76,42,179100,60
70,39,179160,60
76,37,179220,60
71,44,179280,60
76,41,179340,60
73,48,179400,60
76,45,179460,60
74,48,179520,120
76,43,179640,120
70,40,179760,120
76,38,179880,120
71,43,180000,120
76,39,180120,120
72,45,180240,120
76,43,180360,120
73,47,180480,120
76,45,180600,120
74,50,180720,120
76,45,180840,120
70,46,180960,120
76,39,181080,120
71,45,181200,240
76,43,181440,240
64,37,181680,360
72,45,181680,360
73,50,182040,480
64,42,182040,240
61,39,182280,240
71,45,182520,240
64,37,182520,240
73,48,182760,480
64,40,182760,240
61,37,183000,240
74,45,183240,240
64,37,183240,240
71,48,183480,240
64,40,183480,240
76,51,183720,960
64,43,183720,960
71,45,184680,240
64,37,184680,240
73,50,184920,480
64,42,184920,240
61,39,185160,240
71,45,185400,240
64,37,185400,240
73,48,185640,480
64,40,185640,240
61,37,185880,240
74,45,186120,240
64,37,186120,240
71,48,186360,240
64,40,186360,240
76,51,186600,960
64,43,186600,960
71,44,187560,240
64,44,187560,240
73,54,187800,240
64,45,187800,240
69,45,187800,240
76,48,188040,240
73,40,188040,240
73,48,188280,240
69,40,188280,240
74,52,188520,240
71,44,188520,240
78,47,188760,240
74,40,188760,240
74,47,189000,240
71,40,189000,240
73,53,189240,720
69,45,189240,720
71,46,189960,240
62,39,189960,240
64,39,189960,240
68,39,189960,240
74,46,190200,240
71,38,190200,240
71,43,190440,240
68,36,190440,240
69,42,190680,120
61,35,190680,120
81,50,190920,480
73,42,190920,240
75,47,191160,240
80,48,191400,240
76,39,191400,240
76,48,191640,240
71,40,191640,240
79,50,191880,240
73,42,191880,240
78,52,192120,240
74,44,192120,240
74,52,192360,240
70,44,192360,240
77,53,192600,240
69,44,192600,240
76,55,192840,240
68,46,192840,240
71,48,193080,240
64,40,193080,240
68,37,193290,180
83,45,193320,180
69,42,193545,495
85,50,193560,480
68,37,194010,270
83,45,194040,240
69,40,194250,510
85,48,194280,480
68,37,194730,180
86,45,194760,180
68,40,194985,255
83,48,195000,240
88,51,195240,960
76,43,195240,960
68,37,196170,210
76,37,196185,15
83,45,196200,180
69,42,196420,500
76,42,196430,510
85,50,196440,480
68,37,196890,270
76,37,196905,35
83,45,196920,240
69,40,197130,510
76,40,197145,15
85,48,197160,480
68,37,197610,210
76,37,197625,15
86,45,197640,180
68,40,197860,260
76,40,197870,250
83,48,197880,240
88,51,198120,960
76,43,198120,960
68,37,199050,210
76,37,199065,15
83,45,199080,210
69,42,199290,750
76,42,199305,730
85,50,199320,720
71,40,200025,255
86,48,200040,240
74,45,200265,255
90,48,200280,240
71,37,200490,240
86,45,200520,210
69,42,200730,750
85,50,200760,720
68,40,201450,270
76,40,201465,255
83,48,201480,240
71,45,201705,255
86,48,201720,240
68,37,201930,170
83,45,201960,170
64,39,202170,150
69,42,202180,140
73,45,202190,130
81,47,202200,120
76,43,202840,40
85,51,202840,40
78,40,202880,20
86,47,202880,20
85,49,202920,60
76,41,202920,60
83,49,203280,30
71,41,203280,30
85,46,203400,60
76,39,203400,60
86,51,203640,60
78,43,203640,60
88,45,204000,30
79,38,204000,30
86,48,204120,45
78,40,204120,45
76,43,204280,40
85,51,204280,40
78,40,204320,20
86,47,204320,20
85,49,204360,60
76,41,204360,60
83,49,204720,30
74,41,204720,30
85,46,204840,60
76,39,204840,60
86,51,205080,120
78,43,205080,120
98,50,205560,60
97,50,205620,60
95,49,205680,60
93,48,205740,60
92,48,205800,40
90,47,205840,40
88,47,205880,40
86,46,205920,40
85,46,205960,40
83,45,206000,40
81,45,206040,720
73,43,206760,60
81,51,206760,60
74,38,207120,30
83,45,207120,30
73,40,207240,45
81,48,207240,45
80,51,207400,40
71,43,207400,40
81,47,207440,40
73,40,207440,40
71,41,207480,60
80,49,207480,60
69,41,207840,30
78,49,207840,30
80,46,207960,60
71,39,207960,60
81,51,208200,60
73,43,208200,60
86,48,208680,60
90,48,208680,60
85,48,208740,60
83,47,208800,60
81,46,208860,60
80,45,208920,40
78,45,208960,40
76,44,209000,40
74,44,209040,40
73,51,209080,40
64,43,209080,40
74,47,209120,40
66,40,209120,40
64,41,209160,60
73,49,209160,60
62,41,209520,30
71,49,209520,30
64,39,209640,60
73,46,209640,60
66,43,209880,60
74,51,209880,60
67,38,210240,30
76,45,210240,30
66,40,210360,45
74,48,210360,45
73,51,210520,40
64,43,210520,40
74,47,210560,40
66,40,210560,40
64,41,210600,60
73,49,210600,60
71,49,210960,30
62,41,210960,30
73,46,211080,60
64,39,211080,60
74,51,211320,60
66,43,211320,60
93,50,211800,48
90,50,211800,48
86,50,211848,48
85,49,211896,48
83,48,211944,48
81,48,211992,48
80,47,212040,40
78,46,212080,40
76,46,212120,40
74,45,212160,40
73,45,212200,40
71,45,212240,40
69,47,212280,720
61,43,213000,60
69,51,213000,60
62,38,213360,30
71,45,213360,30
61,40,213480,45
69,48,213480,45
68,51,213640,40
59,43,213640,40
69,47,213680,40
61,40,213680,40
59,41,213720,60
68,49,213720,60
57,41,214080,30
66,49,214080,30
68,46,214200,60
59,39,214200,60
69,51,214440,60
61,43,214440,60
93,51,214920,60
97,51,214920,60
92,51,214980,60
90,50,215040,60
88,50,215100,60
86,50,215160,60
85,49,215220,60
83,49,215280,60
81,48,215340,60
80,48,215400,48
78,47,215448,48
76,47,215496,48
74,47,215544,48
73,46,215592,48
71,46,215640,60
69,46,215700,60
68,45,215760,60
66,45,215820,60
64,43,215880,60
76,55,215880,60
73,47,215880,60
69,46,216120,60
73,55,216120,60
61,46,216120,60
71,42,216480,30
74,50,216480,30
62,42,216480,30
69,44,216600,60
61,44,216600,60
73,53,216600,60
68,45,216840,60
59,45,216840,60
71,54,216840,60
66,45,217200,30
69,54,217200,30
57,45,217200,30
68,43,217320,60
71,51,217320,60
59,43,217320,60
69,46,217560,60
61,46,217560,60
73,55,217560,60
97,53,218040,48
100,53,218040,48
93,53,218088,48
92,53,218136,48
90,52,218184,48
88,52,218232,48
86,51,218280,60
85,50,218340,60
83,50,218400,60
81,49,218460,60
80,49,218520,48
78,48,218568,48
76,48,218616,48
74,47,218664,48
73,47,218712,48
71,46,218760,60
69,46,218820,60
68,45,218880,60
66,45,218940,60
64,51,219000,60
76,66,219000,60
73,56,219000,60
69,58,219240,60
73,69,219240,60
61,58,219240,60
71,51,219600,30
74,62,219600,30
62,51,219600,30
69,54,219720,60
61,54,219720,60
73,65,219720,60
68,54,219960,60
59,54,219960,60
71,66,219960,60
66,54,220320,30
69,66,220320,30
57,54,220320,30
68,53,220440,60
71,63,220440,60
59,53,220440,60
69,58,220680,60
61,58,220680,60
73,69,220680,60
75,54,221220,60
76,56,221280,60
78,58,221340,60
80,60,221400,60
81,62,221460,60
83,63,221520,60
85,65,221580,60
86,67,221640,60
88,69,221700,60
90,71,221760,60
92,72,221820,60
93,73,221880,60
95,75,221940,60
97,77,222000,60
98,79,222060,60
97,84,222120,120
100,84,222120,120
88,71,222120,120
100,87,222360,120
93,73,222360,120
88,73,222360,120
97,73,222360,120
98,81,222720,60
100,81,222720,60
95,68,222720,60
88,68,222720,60
100,82,222840,120
88,69,222840,120
97,69,222840,120
93,69,222840,120
100,86,223080,120
88,72,223080,120
92,72,223080,120
95,72,223080,120
100,81,223440,60
88,68,223440,60
90,68,223440,60
93,68,223440,60
100,81,223560,120
88,68,223560,120
92,68,223560,120
95,68,223560,120
105,85,223800,480
93,72,223800,480
97,72,223800,480
71,45,224520,60
68,37,224520,60
69,41,224880,30
66,35,224880,30
71,41,225000,60
68,35,225000,60
73,45,225240,60
69,37,225240,60
74,43,225600,30
71,36,225600,30
73,43,225720,60
69,36,225720,60
71,45,225960,60
68,37,225960,60
69,40,226320,30
66,34,226320,30
71,40,226440,60
68,34,226440,60
69,45,226680,240
64,37,226680,240
88,86,227400,360
76,72,227400,360
80,72,227400,360
83,72,227400,360
88,81,227760,120
76,68,227760,120
78,68,227760,120
81,68,227760,120
88,81,227880,240
76,68,227880,240
80,68,227880,240
83,68,227880,240
88,87,228120,360
81,73,228120,360
76,73,228120,360
85,73,228120,360
86,81,228480,120
88,81,228480,120
83,68,228480,120
76,68,228480,120
88,82,228600,240
76,69,228600,240
85,69,228600,240
81,69,228600,240
88,86,228840,360
76,72,228840,360
80,72,228840,360
83,72,228840,360
88,81,229200,120
76,68,229200,120
78,68,229200,120
81,68,229200,120
88,81,229320,240
76,68,229320,240
80,68,229320,240
83,68,229320,240
93,95,229560,480
81,72,229560,480
85,81,229560,480
61,36,230760,120
64,36,230760,120
69,36,230760,120
64,36,231240,120
69,36,231240,120
62,36,231720,120
66,36,231720,120
71,36,231720,120
66,36,232200,120
69,36,232200,120
71,36,232200,120
71,36,232680,120
68,36,232680,120
63,36,233160,120
71,36,233160,120
69,36,233160,120
66,36,233160,120
68,44,233720,160
78,44,233720,80
76,45,233800,80
75,48,233880,80
69,40,233880,160
74,50,233960,240
65,47,234040,80
64,45,234120,80
71,45,234200,80
68,37,234200,160
73,45,234280,80
61,36,234600,120
64,36,234600,120
69,36,234600,120
64,36,235080,120
69,36,235080,120
62,36,235560,120
66,36,235560,120
71,36,235560,120
62,36,236040,120
66,36,236040,120
71,36,236040,120
62,36,236520,120
64,36,236520,120
71,36,236520,120
68,36,236520,120
62,36,237000,240
76,36,237000,320
71,36,237000,240
64,36,237000,240
61,40,237240,80
69,40,237240,80
69,46,237320,60
76,46,237320,60
69,46,237400,60
76,46,237400,60
69,45,237480,60
76,45,237480,60
69,45,237560,60
75,45,237560,60
69,45,237640,60
75,45,237640,60
69,45,237720,60
75,45,237720,60
69,44,237800,60
74,44,237800,60
69,44,237880,60
74,44,237880,60
69,43,237960,60
74,43,237960,60
68,42,238040,30
71,42,238040,30
68,42,238120,30
73,42,238120,30
61,36,238200,237
69,51,238200,80
71,45,238280,80
69,45,238360,80
68,47,238440,80
69,43,238520,80
71,43,238600,50
73,36,238650,15
74,36,238665,15
64,36,238680,240
69,36,238680,240
73,49,238680,80
72,45,238760,80
74,45,238840,80
73,49,238920,80
71,45,239000,80
69,45,239080,80
68,51,239160,80
66,45,239240,80
80,52,239320,80
78,54,239400,80
92,51,239480,80
90,54,239560,80
97,58,239640,80
95,55,239720,80
90,55,239800,80
85,58,239880,80
83,50,239960,80
78,50,240040,80
81,50,240040,80
80,56,240120,80
78,56,240120,80
76,48,240200,80
73,48,240280,80
71,49,240360,80
68,47,240440,80
68,54,240520,80
64,47,240520,80
64,40,240600,80
69,55,240600,80
66,49,240600,80
60,46,240680,80
59,46,240760,80
57,50,240840,80
54,50,240920,80
51,50,241000,80
68,44,241400,160
78,44,241400,80
76,45,241480,80
75,48,241560,80
69,40,241560,160
74,50,241640,240
65,47,241720,80
64,45,241800,80
71,45,241880,80
68,37,241880,80
68,33,241960,80
73,45,241960,80
61,36,242040,236
69,51,242040,80
71,45,242120,80
69,45,242200,80
68,47,242280,80
69,43,242360,80
71,43,242440,50
73,36,242490,15
74,36,242505,15
64,36,242520,240
69,36,242520,240
73,49,242520,80
72,45,242600,80
74,45,242680,80
73,49,242760,80
71,45,242840,80
69,45,242920,80
68,51,243000,80
66,45,243080,80
80,52,243160,80
78,54,243240,80
92,51,243320,80
90,54,243400,80
97,58,243480,80
95,55,243560,80
90,55,243640,80
85,58,243720,80
83,50,243800,80
78,50,243880,80
81,50,243880,80
71,45,243960,160
74,45,243960,160
81,51,243960,80
80,45,244040,80
90,52,244120,80
80,38,244120,160
83,38,244120,160
88,54,244200,80
85,51,244280,80
74,38,244280,160
80,38,244280,160
83,54,244360,80
71,45,244440,160
74,45,244440,160
81,58,244440,80
80,55,244520,80
78,55,244600,80
68,38,244600,160
71,38,244600,160
76,58,244680,80
78,50,244760,80
71,38,244760,160
74,38,244760,160
80,50,244840,80
73,52,244920,120
81,52,244920,80
76,54,245000,80
85,54,245000,80
81,56,245080,80
88,56,245080,80
85,59,245160,80
93,59,245160,80
88,62,245240,80
97,62,245240,80
93,63,245320,80
100,63,245320,80
100,66,245400,160
95,66,245400,80
88,65,245480,80
95,64,245560,160
88,64,245560,80
83,63,245640,80
88,63,245720,160
83,63,245720,80
76,62,245800,80
76,54,245880,160
88,61,245880,160
86,61,245880,80
85,61,245960,80
76,53,246040,160
88,60,246040,160
84,60,246040,80
83,60,246120,80
76,53,246200,160
88,59,246200,160
82,59,246200,80
81,58,246280,80
76,49,246360,160
88,54,246360,160
81,54,246360,80
80,54,246440,80
76,48,246520,160
88,53,246520,160
81,53,246520,80
85,53,246600,80
76,38,246680,160
88,49,246680,160
84,45,246680,80
83,50,246760,55
73,49,246830,90
81,54,246835,85
88,56,246840,80
69,55,246920,60
85,55,247000,60
73,61,247080,60
88,53,247140,60
76,61,247200,60
97,53,247260,60
93,61,247320,120
81,61,247320,120
51,57,247560,80
52,53,247640,80
61,53,247720,80
57,45,247720,80
59,58,247800,80
56,49,247800,80
56,50,247880,80
52,42,247880,80
57,50,247960,80
54,42,247960,80
59,52,248040,80
56,44,248040,80
61,52,248120,80
57,44,248120,80
63,54,248200,80
59,45,248200,80
64,58,248280,80
61,49,248280,80
63,54,248360,80
60,45,248360,80
66,54,248440,80
63,45,248440,80
64,54,248520,80
61,45,248520,80
63,54,248600,80
59,45,248600,80
61,54,248680,80
57,45,248680,80
58,59,248760,80
55,50,248760,80
59,51,248840,80
56,43,248840,80
56,51,248920,80
52,43,248920,80
59,53,249000,80
56,45,249000,80
64,50,249080,80
59,42,249080,80
68,50,249160,80
71,53,249240,80
76,54,249320,80
71,45,249320,80
80,55,249400,80
76,46,249400,80
83,58,249480,40
80,49,249480,40
83,54,249560,40
80,45,249560,40
83,54,249640,40
80,45,249640,40
83,58,249720,40
80,49,249720,40
83,54,249800,40
80,45,249800,40
83,54,249880,40
80,45,249880,40
83,56,249960,80
80,47,249960,80
85,54,250040,80
81,45,250040,80
83,54,250120,40
80,45,250120,40
82,58,250200,80
79,49,250200,80
83,54,250280,80
80,45,250280,80
82,54,250360,40
79,45,250360,40
81,57,250440,80
78,48,250440,80
83,54,250520,80
80,45,250520,80
81,54,250600,80
78,45,250600,80
80,57,250680,80
76,48,250680,80
95,58,250760,80
92,49,250760,80
93,55,250840,80
90,46,250840,80
92,54,250920,80
88,45,250920,80
83,54,251000,80
80,45,251000,80
81,52,251080,80
78,44,251080,80
71,53,251240,80
68,45,251240,80
69,53,251320,80
66,45,251320,80
68,53,251400,80
64,45,251400,80
56,54,251480,60
52,45,251480,60
57,54,251560,60
54,45,251560,60
59,58,251640,80
56,49,251640,80
56,50,251720,80
52,42,251720,80
57,50,251800,80
54,42,251800,80
59,52,251880,80
56,44,251880,80
61,52,251960,80
57,44,251960,80
63,54,252040,80
59,45,252040,80
64,58,252120,80
61,49,252120,80
63,54,252200,80
60,45,252200,80
66,54,252280,80
63,45,252280,80
64,54,252360,80
61,45,252360,80
63,54,252440,80
59,45,252440,80
61,54,252520,80
57,45,252520,80
58,59,252600,80
55,50,252600,80
59,51,252680,80
56,43,252680,80
56,51,252760,80
52,43,252760,80
59,53,252840,80
56,45,252840,80
64,50,252920,80
59,42,252920,80
68,50,253000,80
71,53,253080,80
76,54,253160,80
71,45,253160,80
80,55,253240,80
76,46,253240,80
83,58,253320,40
80,49,253320,40
83,54,253400,40
80,45,253400,40
83,54,253480,40
80,45,253480,40
83,58,253560,40
80,49,253560,40
83,54,253640,40
80,45,253640,40
83,54,253720,40
80,45,253720,40
83,56,253800,80
80,47,253800,80
85,54,253880,80
81,45,253880,80
83,54,253960,40
80,45,253960,40
82,58,254040,80
79,49,254040,80
83,54,254120,80
80,45,254120,80
82,54,254200,40
79,45,254200,40
81,57,254280,80
78,48,254280,80
83,54,254360,80
80,45,254360,80
81,54,254440,40
78,45,254440,40
80,52,254520,40
76,44,254520,40
83,41,254600,80
95,49,254600,40
92,41,254600,40
83,42,254680,80
95,50,254680,40
92,42,254680,40
83,45,254760,80
95,54,254760,80
92,45,254760,80
85,44,254840,80
97,52,254840,80
93,44,254840,80
83,45,254920,40
95,54,254920,40
92,45,254920,40
82,49,255000,80
94,58,255000,80
91,49,255000,80
83,44,255080,80
95,52,255080,80
92,44,255080,80
82,46,255160,40
94,51,255160,40
91,43,255160,40
81,45,255240,80
93,54,255240,80
90,45,255240,80
83,41,255320,80
95,49,255320,80
92,41,255320,80
93,49,255400,40
81,41,255400,40
90,41,255400,40
80,44,255480,40
92,52,255480,40
88,44,255480,40
83,41,255560,80
95,49,255560,40
92,41,255560,40
83,42,255640,80
95,50,255640,40
92,42,255640,40
83,45,255720,80
95,54,255720,80
92,45,255720,80
85,44,255800,80
97,52,255800,80
93,44,255800,80
83,45,255880,40
95,54,255880,40
92,45,255880,40
82,49,255960,80
94,58,255960,80
91,49,255960,80
83,44,256040,80
95,52,256040,80
92,44,256040,80
82,46,256120,40
94,51,256120,40
91,43,256120,40
81,45,256200,80
93,54,256200,80
90,45,256200,80
83,41,256280,80
95,49,256280,80
92,41,256280,80
93,49,256360,40
81,41,256360,40
90,41,256360,40
92,52,256440,80
80,44,256440,80
88,44,256440,80
56,48,256600,80
56,54,256680,80
55,48,256760,80
54,46,256840,80
53,52,256920,80
52,49,257000,80
56,43,257080,80
59,49,257080,80
55,45,257160,80
58,52,257160,80
54,44,257240,80
57,50,257240,80
52,44,257320,80
56,50,257320,80
62,58,257400,80
59,58,257400,80
61,57,257480,80
58,50,257480,80
60,55,257560,80
57,48,257560,80
56,46,257640,80
59,54,257640,80
68,50,258040,80
71,57,258040,80
67,47,258120,80
70,54,258120,80
66,45,258200,80
69,53,258200,80
64,43,258280,80
68,50,258280,80
78,57,258680,80
74,50,258680,80
76,55,258760,80
73,55,258760,80
75,54,258840,80
72,46,258840,80
74,52,258920,80
71,45,258920,80
86,61,259320,80
83,54,259320,80
85,59,259400,80
82,52,259400,80
84,57,259480,80
81,50,259480,80
83,55,259560,80
80,48,259560,80
95,64,259960,80
92,57,259960,80
94,62,260040,80
91,54,260040,80
93,59,260120,80
90,52,260120,80
92,57,260200,80
88,50,260200,80
98,65,260280,80
93,65,260280,80
90,51,260280,80
97,65,260360,80
92,51,260360,80
89,51,260360,80
96,64,260440,80
91,51,260440,80
88,51,260440,80
95,64,260520,80
90,51,260520,80
87,51,260520,80
94,63,260600,80
89,51,260600,80
86,51,260600,80
93,63,260680,80
88,50,260680,80
85,50,260680,80
87,63,260760,80
92,63,260760,80
84,50,260760,80
91,62,260840,80
83,49,260840,80
86,49,260840,80
90,62,260920,80
82,49,260920,80
85,49,260920,80
89,61,261000,80
81,48,261000,80
84,48,261000,80
88,60,261080,80
80,47,261080,80
83,47,261080,80
87,60,261160,80
79,47,261160,80
82,47,261160,80
86,59,261240,80
81,59,261240,80
78,47,261240,80
85,59,261320,80
80,47,261320,80
77,47,261320,80
84,58,261400,80
79,46,261400,80
76,46,261400,80
83,57,261480,80
78,45,261480,80
75,45,261480,80
82,57,261560,80
77,45,261560,80
74,45,261560,80
81,56,261640,80
76,45,261640,80
73,45,261640,80
80,56,261720,80
72,45,261720,80
75,45,261720,80
79,55,261800,80
71,44,261800,80
74,44,261800,80
78,55,261880,80
70,44,261880,80
73,44,261880,80
77,54,261960,80
69,44,261960,80
72,44,261960,80
76,54,262040,80
68,43,262040,80
71,43,262040,80
75,54,262120,80
67,43,262120,80
70,43,262120,80
74,63,262200,60
66,53,262200,60
69,53,262200,60
74,58,262280,60
65,48,262280,60
69,48,262280,60
74,58,262360,60
65,49,262360,60
69,49,262360,60
74,63,262440,60
65,54,262440,60
69,54,262440,60
73,60,262520,60
64,50,262520,60
69,50,262520,60
73,61,262600,60
64,51,262600,60
69,51,262600,60
73,66,262680,60
64,55,262680,60
69,55,262680,60
78,61,262760,60
63,51,262760,60
69,51,262760,60
72,51,262760,60
78,61,262840,60
63,51,262840,60
69,51,262840,60
72,51,262840,60
78,66,262920,60
63,55,262920,60
69,55,262920,60
72,55,262920,60
78,61,263000,60
62,51,263000,60
68,51,263000,60
71,51,263000,60
78,61,263080,60
62,51,263080,60
68,51,263080,60
71,51,263080,60
78,65,263160,120
62,55,263160,120
68,55,263160,120
71,55,263160,120
77,63,263280,240
61,54,263280,240
68,54,263280,240
71,54,263280,240
76,62,263520,240
58,52,263520,240
67,52,263520,240
73,52,263520,240
75,59,263760,240
59,50,263760,240
66,50,263760,240
71,50,263760,240
74,55,264000,240
57,46,264000,240
62,46,264000,240
66,46,264000,240
72,46,264000,240
74,52,264240,240
67,44,264240,240
72,44,264240,240
74,41,264480,120
67,35,264480,120
71,35,264480,120
74,36,264720,120
67,30,264720,120
79,36,264840,120
67,30,264840,120
74,36,264960,120
67,30,264960,120
79,40,265080,120
67,34,265080,120
64,35,265560,480
62,33,265560,480
68,37,265560,40
68,37,265600,40
69,40,265640,40
68,36,265680,40
66,36,265720,40
68,36,265760,40
71,40,265800,80
71,38,265880,120
72,37,266000,40
73,45,266280,130
61,38,266280,130
64,38,266280,120
68,43,266400,120
62,36,266400,120
64,36,266400,120
69,46,266760,120
64,39,266760,240
73,44,266880,120
69,36,266880,120
78,57,267120,250
70,55,267120,250
64,58,267120,250
71,45,267360,120
62,37,267360,120
71,38,267720,120
63,32,267720,120
66,32,267720,120
71,38,267840,120
63,32,267840,120
66,32,267840,120
76,58,267960,370
64,47,267960,360
71,47,267960,370
68,46,268320,120
64,39,268320,120
72,52,268560,250
64,44,268560,250
57,44,268560,240
71,43,268800,120
57,36,268800,120
63,36,268800,120
88,63,269480,30
80,53,269480,30
76,53,269480,30
87,54,269560,30
81,45,269560,30
75,45,269560,30
86,62,269640,30
81,51,269640,30
74,51,269640,30
86,54,269720,30
77,45,269720,30
74,45,269720,30
83,54,269800,30
76,45,269800,30
71,45,269800,30
73,45,270120,130
61,38,270120,130
64,38,270120,120
68,43,270240,120
62,36,270240,120
64,36,270240,120
69,46,270600,120
64,39,270600,120
73,44,270720,120
64,36,270720,120
69,36,270720,120
62,48,271080,120
69,48,271080,120
74,54,271080,120
86,54,271400,40
74,45,271400,40
86,54,271480,40
74,45,271480,40
86,56,271560,40
74,47,271560,40
86,53,271640,40
74,45,271640,40
86,54,271720,40
74,45,271720,40
86,56,271800,80
74,47,271800,80
80,53,271880,40
68,45,271880,40
80,53,271960,40
68,45,271960,40
80,53,272040,40
68,45,272040,40
80,53,272120,40
68,45,272120,40
80,52,272200,40
68,44,272200,40
80,51,272280,40
68,43,272280,40
80,51,272360,40
68,43,272360,40
80,50,272440,40
68,42,272440,40
80,49,272520,80
68,41,272520,80
81,48,272600,80
69,40,272600,80
83,47,272680,80
71,40,272680,80
73,45,273000,130
61,38,273000,130
64,38,273000,120
68,43,273120,120
62,36,273120,120
64,36,273120,120
69,46,273480,120
64,39,273480,240
73,44,273600,120
69,36,273600,120
62,48,273930,150
69,48,273945,135
78,54,273960,120
90,45,274260,40
78,37,274260,40
90,46,274320,40
78,39,274320,40
90,47,274380,40
78,40,274380,40
90,49,274440,40
78,41,274440,40
90,51,274500,40
78,43,274500,40
90,52,274560,40
78,44,274560,40
90,54,274620,40
78,45,274620,40
90,55,274680,60
78,55,274680,60
80,47,274740,40
68,40,274740,40
80,47,274800,40
68,40,274800,40
80,47,274860,40
68,40,274860,40
80,47,274920,36
68,40,274920,36
80,47,274968,36
68,40,274968,36
80,47,275016,36
68,40,275016,36
80,48,275064,36
68,40,275064,36
80,48,275112,36
68,40,275112,36
80,47,275160,48
68,40,275160,48
81,48,275208,48
69,40,275208,48
82,49,275256,48
70,41,275256,48
83,50,275304,48
71,42,275304,48
84,51,275352,48
72,43,275352,48
85,53,275400,48
73,45,275400,48
86,54,275448,48
74,45,275448,48
75,45,275496,48
87,54,275496,48
88,55,275544,48
76,46,275544,48
89,57,275592,48
77,48,275592,48
90,61,275640,60
78,51,275640,60
78,52,275800,160
66,44,275800,160
80,52,276040,50
68,44,276040,50
81,59,276120,80
69,49,276120,80
75,56,276200,80
63,47,276200,80
76,57,276280,80
64,48,276280,80
78,62,276360,80
69,43,276360,240
73,49,276360,240
66,47,276360,80
75,59,276440,80
63,49,276440,80
76,57,276520,80
64,48,276520,80
87,62,276680,80
75,52,276680,80
88,63,276760,80
76,53,276760,80
90,65,276840,80
83,55,276840,240
78,47,276840,80
87,63,276920,80
75,54,276920,80
88,61,277000,80
76,51,277000,80
100,54,277160,60
97,54,277160,60
88,45,277160,60
100,56,277240,60
97,56,277240,60
88,47,277240,60
100,58,277320,60
97,58,277320,60
88,49,277320,60
100,61,277400,60
97,61,277400,60
88,51,277400,60
100,60,277480,60
97,60,277480,60
88,50,277480,60
99,63,277560,80
96,63,277560,80
87,54,277560,80
100,63,277640,80
97,63,277640,80
88,53,277640,80
99,62,277720,80
96,62,277720,80
87,52,277720,80
100,60,277800,80
97,60,277800,80
88,50,277800,80
98,59,277880,80
95,59,277880,80
86,49,277880,80
100,58,277960,80
97,58,277960,80
88,49,277960,80
75,56,278120,80
63,47,278120,80
76,57,278200,80
64,48,278200,80
78,62,278280,80
69,42,278280,240
73,49,278280,240
66,47,278280,80
75,59,278360,80
63,49,278360,80
76,57,278440,80
64,48,278440,80
87,55,278600,80
75,46,278600,80
88,56,278680,80
76,47,278680,80
90,58,278760,80
83,49,278760,240
78,49,278760,80
87,56,278840,80
75,48,278840,80
88,54,278920,80
76,45,278920,80
100,54,279080,60
97,54,279080,60
88,45,279080,60
100,56,279160,60
97,56,279160,60
88,47,279160,60
100,58,279240,60
97,58,279240,60
88,49,279240,60
100,61,279320,60
97,61,279320,60
88,51,279320,60
100,60,279400,60
97,60,279400,60
88,50,279400,60
99,63,279480,80
96,63,279480,80
87,54,279480,80
100,63,279560,80
97,63,279560,80
88,53,279560,80
99,62,279640,80
96,62,279640,80
87,52,279640,80
100,60,279720,80
97,60,279720,80
88,50,279720,80
98,59,279800,80
95,59,279800,80
86,49,279800,80
100,58,279880,60
97,58,279880,60
88,49,279880,60
100,61,279960,80
97,53,279960,80
88,45,279960,80
97,54,280040,60
85,45,280040,60
93,54,280040,60
85,47,280120,60
93,47,280120,60
97,56,280120,60
85,49,280200,60
97,58,280200,60
93,49,280200,60
97,61,280280,60
93,51,280280,60
85,51,280280,60
85,50,280360,60
97,60,280360,60
93,50,280360,60
92,54,280440,80
96,63,280440,80
84,54,280440,80
93,53,280520,80
85,53,280520,80
97,63,280520,80
84,52,280600,80
96,62,280600,80
92,52,280600,80
85,50,280680,80
97,60,280680,80
93,60,280680,80
83,49,280760,80
95,59,280760,80
92,49,280760,80
97,58,280840,60
93,49,280840,60
85,49,280840,60
85,45,280920,80
93,53,280920,80
97,61,280920,80
93,54,281000,60
81,45,281000,60
90,45,281000,60
93,56,281080,60
90,47,281080,60
81,47,281080,60
93,58,281160,60
81,49,281160,60
90,49,281160,60
93,61,281240,60
90,51,281240,60
81,51,281240,60
81,50,281320,60
93,60,281320,60
90,50,281320,60
92,63,281400,80
80,54,281400,80
89,54,281400,80
93,63,281480,80
81,53,281480,80
90,53,281480,80
92,62,281560,80
80,52,281560,80
89,52,281560,80
93,60,281640,80
81,50,281640,80
90,50,281640,80
91,59,281720,80
79,49,281720,80
88,49,281720,80
93,58,281800,60
90,49,281800,60
81,49,281800,60
93,68,281880,80
81,57,281880,80
90,57,281880,80
90,51,281960,30
86,51,281960,30
90,54,282040,30
86,54,282040,30
78,47,282120,30
81,47,282120,30
86,54,282200,30
90,54,282200,30
74,49,282280,30
78,49,282280,30
98,73,282360,30
95,68,282360,30
90,51,282440,30
86,51,282440,30
98,54,282520,30
95,54,282520,30
83,47,282600,30
86,47,282600,30
95,54,282680,30
98,54,282680,30
78,49,282760,30
83,49,282760,30
83,52,282840,80
86,65,282840,80
74,57,282840,80
80,51,282920,30
76,51,282920,30
92,54,283000,30
88,54,283000,30
80,47,283080,30
83,47,283080,30
88,54,283160,30
92,54,283160,30
76,49,283240,30
80,49,283240,30
100,73,283320,30
97,68,283320,30
92,51,283400,30
88,51,283400,30
100,54,283480,30
97,54,283480,30
85,47,283560,30
88,47,283560,30
97,54,283640,30
100,54,283640,30
80,49,283720,30
85,49,283720,30
88,65,283800,80
76,57,283800,80
85,52,283800,80
81,51,283880,30
78,51,283880,30
93,54,283960,30
90,54,283960,30
81,47,284040,30
85,47,284040,30
90,54,284120,30
93,54,284120,30
78,49,284200,30
81,49,284200,30
101,73,284280,30
98,68,284280,30
93,51,284360,30
89,51,284360,30
101,54,284440,30
98,54,284440,30
86,47,284520,30
89,47,284520,30
98,54,284600,30
101,54,284600,30
81,49,284680,30
86,49,284680,30
100,74,284760,80
88,63,284760,80
95,63,284760,80
99,62,284840,80
100,75,284920,80
98,61,285000,60
100,77,285080,60
95,56,285160,60
100,77,285240,60
92,52,285320,60
100,77,285400,60
88,52,285480,60
100,79,285560,60
86,50,285640,60
100,79,285720,60
83,50,285800,60
100,79,285880,60
80,50,285960,60
100,79,286040,60
76,51,286120,60
100,79,286200,60
74,51,286280,60
100,79,286360,60
71,51,286440,60
100,79,286520,60
68,51,286600,60
100,79,286680,120
65,59,287160,155
64,43,287240,80
65,40,287320,80
64,40,287400,80
65,40,287480,80
64,40,287560,80
66,43,287640,110
64,40,287700,60
66,40,287760,60
64,40,287820,60
67,52,287880,110
64,40,287940,60
67,40,288000,60
64,40,288060,60
68,58,288120,110
64,37,288180,60
68,40,288240,60
64,38,288300,60
68,40,288360,60
64,36,288420,60
68,40,288480,60
64,37,288540,60
68,54,288600,110
64,37,288660,60
68,39,288720,60
64,37,288780,60
66,54,288840,110
69,54,288840,60
64,36,288900,60
66,39,288960,60
69,39,288960,60
64,36,289020,60
66,39,289080,60
69,39,289080,60
64,36,289140,60
66,39,289200,60
69,39,289200,60
64,37,289260,60
67,54,289320,60
70,54,289320,110
64,39,289380,60
67,41,289440,60
70,41,289440,60
64,39,289500,60
70,61,289560,110
65,42,289620,60
70,45,289680,60
65,41,289740,60
70,45,289800,60
65,41,289860,60
70,45,289920,60
65,42,289980,60
70,45,290040,60
65,42,290100,60
70,45,290160,60
65,42,290220,60
68,45,290280,60
70,45,290280,110
65,42,290340,60
68,52,290400,60
70,52,290400,60
65,41,290460,60
68,44,290520,60
70,44,290520,60
65,41,290580,60
68,44,290640,60
70,44,290640,60
65,41,290700,60
68,44,290760,60
70,44,290760,60
65,40,290820,60
68,44,290880,60
70,44,290880,60
65,41,290940,60
70,52,291000,110
66,42,291060,60
70,45,291120,60
66,41,291180,60
70,45,291240,60
66,41,291300,60
70,45,291360,60
66,41,291420,60
70,45,291480,60
66,40,291540,60
70,45,291600,60
66,41,291660,60
70,62,291720,60
71,62,291720,110
66,44,291780,60
70,47,291840,60
71,47,291840,60
66,44,291900,60
70,47,291960,60
71,47,291960,60
66,43,292020,60
70,47,292080,60
71,47,292080,60
66,44,292140,60
70,47,292200,60
71,47,292200,60
66,44,292260,60
70,47,292320,60
71,47,292320,60
66,44,292380,60
71,62,292440,60
69,52,292440,60
65,48,292500,60
71,48,292560,60
69,40,292560,60
65,48,292620,60
71,48,292680,60
69,40,292680,60
65,48,292740,60
71,48,292800,60
69,40,292800,60
65,48,292860,60
71,48,292920,60
69,40,292920,60
65,48,292980,60
71,48,293040,60
69,40,293040,60
65,48,293100,60
71,54,293160,60
69,45,293160,60
65,48,293220,60
71,48,293280,60
69,40,293280,60
65,48,293340,60
71,48,293400,60
69,40,293400,60
65,48,293460,60
71,48,293520,60
69,40,293520,60
65,48,293580,60
71,48,293640,60
69,40,293640,60
65,48,293700,60
71,48,293760,60
69,40,293760,60
65,48,293820,60
71,54,293880,60
69,45,293880,60
65,50,293940,60
71,50,294000,60
69,42,294000,60
65,50,294060,60
71,50,294120,60
69,42,294120,60
65,50,294180,60
71,50,294240,60
69,42,294240,60
65,50,294300,60
71,50,294360,60
69,42,294360,60
65,50,294420,60
71,50,294480,60
69,42,294480,60
65,50,294540,60
71,57,294600,60
69,45,294600,60
65,50,294660,60
71,50,294720,60
69,42,294720,60
65,50,294780,60
71,50,294840,60
69,42,294840,60
65,50,294900,60
71,50,294960,60
69,42,294960,60
65,50,295020,60
71,50,295080,60
69,42,295080,60
65,50,295140,60
71,50,295200,60
69,42,295200,60
65,50,295260,60
76,48,295320,240
74,45,295320,240
68,47,295320,120
69,48,295440,120
70,49,295560,120
71,51,295680,120
72,52,295800,120
73,54,295920,120
74,54,296040,120
75,55,296160,120
76,57,296280,120
77,58,296400,120
78,60,296520,120
79,61,296640,120
80,62,296760,120
88,62,296760,240
86,62,296760,240
81,54,296880,120
82,55,297000,120
83,56,297120,120
84,57,297240,120
85,59,297360,120
86,60,297480,120
87,61,297600,120
88,62,297720,120
89,63,297840,120
90,64,297960,120
91,65,298080,120
100,69,298200,240
98,69,298200,240
92,69,298200,120
93,59,298320,120
94,61,298440,120
95,63,298560,120
96,65,298680,120
97,67,298800,120
100,71,298920,240
98,71,298920,240
97,69,299040,120
96,66,299160,120
95,63,299280,120
94,62,299400,120
93,59,299520,120
100,69,299640,240
98,69,299640,240
92,69,299640,120
93,59,299760,120
94,61,299880,120
95,63,300000,120
96,65,300120,120
97,67,300240,120
100,71,300360,240
98,71,300360,240
97,69,300480,120
96,66,300600,120
95,63,300720,120
94,62,300840,120
93,59,300960,120
100,69,301080,240
98,69,301080,240
92,69,301080,120
93,57,301200,120
94,59,301320,120
95,61,301440,120
96,63,301560,120
97,65,301680,120
98,67,301800,120
99,69,301920,120
100,72,302040,120
101,75,302160,120
100,73,302280,120
99,73,302400,120
98,70,302520,120
95,68,302640,120
92,65,302760,120
89,63,302880,120
88,60,303000,120
87,57,303120,120
86,55,303240,120
87,53,303360,120
88,54,303480,120
89,53,303600,120
88,51,303720,120
87,49,303840,120
86,51,303960,120
83,49,304080,120
80,48,304200,120
77,47,304320,120
76,46,304440,120
75,46,304560,120
74,47,304680,120
75,48,304800,120
76,49,304920,120
77,49,305040,120
76,48,305160,120
74,46,305280,120
71,48,305400,120
74,45,305520,120
76,47,305640,120
77,48,305760,120
76,47,305880,120
74,46,306000,120
68,50,306120,120
74,44,306240,120
76,45,306360,120
77,46,306480,120
76,45,306600,120
74,45,306720,120
69,50,306840,120
74,44,306960,120
76,45,307080,120
78,45,307200,120
76,45,307320,120
74,43,307440,120
70,49,307560,120
74,40,307680,120
76,41,307800,120
78,43,307920,120
76,43,308040,120
74,40,308160,120
71,49,308280,120
74,40,308400,120
78,44,308520,120
76,40,308640,120
77,44,308760,120
76,40,308880,120
78,44,309000,120
76,40,309120,120
77,45,309240,120
76,40,309360,120
78,45,309480,120
76,41,309600,120
77,45,309720,120
76,42,309840,120
78,45,309960,120
76,40,310080,120
77,45,310200,120
76,40,310320,120
78,44,310440,120
76,40,310560,120
77,43,310680,120
76,38,310800,120
78,42,310920,120
76,38,311040,120
77,41,311160,120
76,37,311280,120
78,40,311400,120
76,37,311520,120
78,39,311640,120
76,36,311760,120
78,38,311880,120
76,36,312000,120
78,37,312120,120
76,33,312240,120
78,36,312360,120
76,33,312480,120
78,36,312600,120
76,32,312720,120
78,35,312840,120
76,32,312960,120
78,34,313080,120
76,31,313200,120
78,33,313320,120
76,30,313440,120
78,32,313560,120
76,29,313680,120
83,45,313800,240
71,36,313800,120
76,36,313920,120
85,47,314040,480
73,36,314040,120
76,36,314160,120
78,39,314280,120
76,36,314400,120
83,43,314520,240
71,36,314520,120
76,36,314640,120
85,47,314760,480
73,36,314760,120
76,36,314880,120
78,39,315000,120
76,36,315120,120
86,44,315240,240
74,36,315240,120
76,36,315360,120
83,48,315480,240
74,36,315480,120
76,36,315600,120
88,49,315720,480
80,36,315720,120
76,36,315840,120
81,40,315960,120
76,36,316080,120
82,42,316200,120
76,36,316320,120
83,42,316440,120
76,36,316560,120
84,45,316680,120
76,36,316800,120
85,47,316920,480
73,36,316920,120
76,36,317040,120
78,39,317160,120
76,36,317280,120
83,43,317400,240
71,36,317400,120
76,36,317520,120
85,47,317640,480
73,36,317640,120
76,36,317760,120
78,39,317880,120
76,36,318000,120
86,44,318120,240
74,36,318120,120
76,36,318240,120
83,48,318360,240
71,36,318360,120
76,36,318480,120
88,49,318600,480
80,36,318600,120
76,36,318720,120
81,40,318840,120
76,36,318960,120
82,42,319080,120
76,36,319200,120
83,42,319320,120
76,36,319440,120
84,42,319560,120
76,36,319680,120
85,48,319800,480
81,40,319800,480
73,36,319800,120
76,36,319920,120
78,39,320040,120
76,36,320160,120
73,36,320280,120
76,36,320400,120
74,36,320520,120
83,41,320520,240
86,49,320520,240
78,36,320640,120
90,45,320760,240
86,38,320760,240
80,39,320760,120
78,36,320880,120
74,36,321000,120
83,38,321000,240
86,45,321000,240
78,36,321120,120
81,44,321240,240
85,52,321240,240
73,36,321240,120
76,36,321360,120
88,47,321480,240
78,39,321480,120
85,40,321480,240
76,36,321600,120
81,40,321720,240
73,36,321720,120
85,47,321720,240
76,36,321840,120
83,53,321960,240
80,45,321960,240
71,36,321960,120
76,36,322080,120
83,40,322200,240
86,48,322200,240
77,39,322200,120
76,36,322320,120
80,40,322440,240
71,36,322440,120
83,48,322440,240
76,36,322560,120
69,41,322680,120
81,51,322680,480
73,41,322800,120
76,41,322920,120
81,41,323040,120
85,42,323160,120
93,51,323160,240
87,44,323280,120
88,45,323400,120
92,51,323400,240
83,44,323520,120
80,45,323640,120
88,54,323640,240
81,45,323760,120
83,46,323880,120
91,54,323880,240
85,45,324000,120
86,47,324120,120
90,58,324120,240
81,47,324240,120
77,46,324360,120
86,56,324360,240
74,49,324480,120
82,48,324600,120
89,57,324600,240
81,50,324720,120
80,49,324840,120
88,59,324840,240
76,49,324960,120
71,44,325080,120
83,51,325080,240
76,45,325200,120
72,37,325320,120
84,47,325320,240
76,42,325440,120
85,47,325560,480
73,36,325560,120
76,36,325680,120
78,39,325800,120
76,36,325920,120
83,43,326040,240
71,36,326040,120
76,36,326160,120
85,47,326280,480
73,36,326280,120
76,36,326400,120
78,39,326520,120
76,36,326640,120
86,44,326760,240
74,36,326760,120
76,36,326880,120
83,48,327000,240
71,36,327000,120
76,36,327120,120
88,49,327240,480
80,36,327240,120
76,36,327360,120
81,40,327480,120
76,36,327600,120
82,42,327720,120
76,36,327840,120
83,42,327960,120
76,36,328080,120
84,45,328200,120
76,36,328320,120
85,47,328440,480
73,36,328440,120
76,36,328560,120
78,39,328680,120
76,36,328800,120
83,43,328920,240
71,36,328920,120
76,36,329040,120
85,47,329160,480
73,36,329160,120
76,36,329280,120
78,39,329400,120
76,36,329520,120
86,44,329640,240
74,36,329640,120
76,36,329760,120
83,48,329880,240
71,36,329880,120
76,36,330000,120
88,49,330120,480
80,36,330120,120
76,36,330240,120
81,40,330360,120
76,36,330480,120
82,42,330600,120
76,36,330720,120
83,42,330840,120
76,36,330960,120
84,42,331080,120
76,36,331200,120
81,40,331320,480
73,36,331320,120
85,48,331320,480
76,36,331440,120
78,39,331560,120
76,36,331680,120
73,36,331800,120
76,36,331920,120
83,41,332040,240
86,49,332040,240
74,36,332040,120
78,36,332160,120
90,45,332280,240
86,38,332280,240
80,39,332280,120
78,36,332400,120
74,36,332520,120
83,38,332520,240
86,45,332520,240
78,36,332640,120
85,52,332760,240
73,36,332760,120
81,44,332760,240
76,36,332880,120
88,47,333000,240
78,39,333000,120
85,40,333000,240
76,36,333120,120
81,40,333240,240
73,36,333240,120
85,47,333240,240
76,36,333360,120
83,53,333480,240
80,45,333480,240
71,36,333480,120
76,36,333600,120
77,39,333720,120
83,40,333720,240
86,48,333720,240
76,36,333840,120
71,36,333960,120
83,48,333960,240
80,40,333960,240
76,36,334080,120
73,49,334200,120
69,41,334200,120
81,56,334200,120
81,43,335010,60
85,44,335100,60
93,45,335190,60
93,46,335280,60
85,45,335370,60
81,44,335460,60
73,44,335550,60
81,43,335730,60
86,44,335820,60
93,45,335910,60
93,46,336000,60
86,45,336090,60
81,44,336180,60
74,44,336270,60
81,43,336450,60
85,44,336540,60
93,45,336630,60
93,46,336720,60
85,45,336810,60
81,44,336900,60
73,44,336990,60
69,34,337560,60
66,28,337560,60
71,35,337620,60
67,29,337620,60
73,36,337680,60
69,31,337680,60
74,37,337740,60
71,31,337740,60
76,39,337800,60
73,32,337800,60
78,40,337860,60
74,34,337860,60
79,41,337920,60
76,35,337920,60
81,43,337980,60
78,36,337980,60
83,44,338040,60
79,36,338040,60
85,45,338100,60
81,38,338100,60
86,47,338160,60
83,40,338160,60
88,48,338220,60
85,40,338220,60
90,49,338280,60
86,41,338280,60
76,43,339090,60
81,44,339180,60
88,45,339270,60
88,46,339360,60
81,45,339450,60
76,44,339540,60
69,44,339630,60
76,43,339810,60
80,44,339900,60
88,45,339990,60
88,46,340080,60
80,45,340170,60
76,44,340260,60
68,44,340350,60
98,34,340920,60
90,28,340920,60
97,35,340980,60
88,29,340980,60
95,36,341040,60
86,31,341040,60
93,37,341100,60
85,31,341100,60
92,39,341160,60
83,32,341160,60
90,40,341220,60
81,34,341220,60
88,41,341280,60
80,35,341280,60
86,43,341340,60
78,36,341340,60
85,44,341400,60
76,36,341400,60
83,45,341460,60
74,38,341460,60
81,47,341520,60
73,40,341520,60
80,48,341580,60
71,40,341580,60
78,49,341640,80
69,41,341640,60
68,41,341700,60
76,49,341700,60
66,41,341760,60
74,41,341760,60
69,43,341970,60
73,44,342060,60
81,45,342150,60
81,46,342240,60
73,45,342330,60
69,44,342420,60
61,44,342510,60
69,43,342690,60
74,44,342780,60
81,45,342870,60
81,46,342960,60
74,45,343050,60
69,44,343140,60
62,44,343230,60
69,43,343410,60
73,44,343500,60
81,45,343590,60
81,46,343680,60
73,45,343770,60
69,44,343860,60
61,44,343950,60
69,33,344520,60
66,27,344520,60
70,34,344580,60
67,28,344580,60
71,36,344640,60
68,30,344640,60
72,36,344700,60
69,30,344700,60
73,38,344760,60
70,32,344760,60
74,39,344820,60
71,33,344820,60
75,41,344880,60
72,35,344880,60
76,42,344940,60
73,35,344940,60
77,44,345000,60
74,36,345000,60
78,45,345060,60
75,37,345060,60
79,46,345120,60
76,39,345120,60
80,47,345180,60
77,40,345180,60
81,49,345240,60
78,41,345240,60
82,50,345300,60
79,42,345300,60
83,52,345360,60
80,44,345360,60
84,53,345420,60
81,45,345420,60
85,54,345480,60
82,45,345480,60
86,55,345540,60
83,46,345540,60
87,57,345600,60
84,48,345600,60
88,58,345660,60
85,49,345660,60
90,60,345720,60
86,50,345720,60
64,43,346050,60
69,44,346140,60
76,45,346230,60
76,46,346320,60
69,45,346410,60
64,44,346500,60
57,44,346590,60
64,43,346770,60
68,44,346860,60
76,45,346950,60
76,46,347040,60
68,45,347130,60
64,44,347220,60
56,44,347310,60
98,33,347880,60
90,27,347880,60
97,34,347940,60
89,28,347940,60
96,36,348000,60
88,30,348000,60
95,36,348060,60
87,30,348060,60
94,38,348120,60
86,32,348120,60
93,39,348180,60
85,33,348180,60
92,41,348240,60
84,35,348240,60
91,42,348300,60
83,35,348300,60
90,44,348360,60
82,36,348360,60
89,45,348420,60
81,37,348420,60
88,46,348480,60
80,39,348480,60
87,47,348540,60
79,40,348540,60
86,49,348600,60
78,41,348600,60
85,50,348660,60
77,42,348660,60
84,52,348720,60
76,44,348720,60
83,53,348780,60
75,45,348780,60
74,45,348840,60
82,54,348840,60
73,45,348900,60
81,54,348900,60
72,46,348960,60
80,55,348960,60
71,48,349020,60
79,57,349020,60
70,49,349080,48
78,58,349080,48
69,49,349128,48
77,58,349128,48
68,48,349176,48
76,57,349176,48
66,50,349224,48
75,59,349224,48
65,51,349272,48
74,61,349272,48
76,72,349320,60
64,58,349320,60
73,59,349320,60
73,65,349560,240
69,55,349560,240
61,55,349560,120
64,47,349680,120
73,52,349800,120
69,44,349800,120
76,55,349920,120
85,59,350040,120
81,50,350040,120
83,64,350280,240
80,54,350280,240
71,54,350280,120
76,52,350400,120
83,54,350520,120
80,45,350520,120
76,57,350640,120
95,61,350760,120
92,51,350760,120
97,73,351000,120
93,63,351000,120
85,60,351000,120
100,33,351480,60
97,27,351480,60
95,34,351540,60
93,36,351600,60
92,36,351660,60
90,38,351720,60
88,39,351780,60
86,41,351840,60
85,42,351900,60
83,44,351960,60
81,45,352020,60
80,46,352080,60
78,47,352140,60
76,49,352200,60
74,50,352260,60
73,52,352320,60
71,53,352380,60
69,54,352440,80
68,55,352520,80
66,57,352600,80
64,55,352680,60
73,57,352680,60
76,70,352680,60
73,65,352920,240
69,55,352920,240
61,55,352920,120
64,47,353040,120
73,52,353160,120
69,44,353160,120
76,55,353280,120
85,59,353400,120
81,50,353400,120
83,64,353640,240
80,54,353640,240
71,54,353640,120
76,52,353760,120
83,54,353880,120
80,45,353880,120
76,57,354000,120
95,61,354120,120
92,51,354120,120
97,73,354360,120
93,63,354360,120
85,60,354360,120
75,43,354840,60
76,45,354900,60
78,46,354960,60
80,48,355020,60
81,50,355080,60
83,51,355140,60
85,53,355200,60
86,54,355260,60
88,56,355320,60
90,58,355380,60
92,60,355440,60
93,62,355500,60
95,63,355560,80
97,65,355640,8
98,68,355720,80
97,84,355800,60
100,84,355800,60
88,71,355800,60
88,73,356040,120
100,87,356040,120
93,73,356040,120
97,73,356040,120
100,81,356400,60
95,68,356400,60
98,81,356400,60
88,68,356400,60
88,69,356520,120
97,69,356520,120
100,82,356520,120
93,69,356520,120
88,72,356760,120
92,72,356760,120
100,86,356760,120
95,72,356760,120
90,68,357120,60
88,68,357120,60
93,68,357120,60
100,81,357120,60
100,81,357240,120
88,68,357240,120
92,68,357240,120
95,68,357240,120
97,72,357480,480
93,72,357480,480
100,85,357480,480
88,72,357480,480
71,45,358200,60
68,37,358200,60
69,41,358560,30
66,35,358560,30
71,41,358680,60
68,35,358680,60
73,45,358920,60
69,37,358920,60
74,43,359280,30
71,36,359280,30
73,43,359400,60
69,36,359400,60
71,45,359640,60
68,37,359640,60
69,40,360000,30
66,34,360000,30
71,40,360120,60
68,34,360120,60
69,45,360360,240
64,37,360360,240
80,72,361080,360
83,72,361080,360
88,86,361080,360
76,72,361080,360
88,81,361440,120
76,68,361440,120
78,68,361440,120
81,68,361440,120
88,81,361560,240
76,68,361560,240
80,68,361560,240
83,68,361560,240
88,87,361800,360
81,73,361800,360
76,73,361800,360
85,73,361800,360
86,81,362160,120
88,81,362160,120
83,68,362160,120
76,68,362160,120
88,82,362280,240
76,69,362280,240
85,69,362280,240
81,69,362280,240
80,72,362520,360
88,86,362520,360
76,72,362520,360
83,72,362520,360
76,68,362880,120
78,68,362880,120
88,81,362880,120
81,68,362880,120
76,68,363000,240
80,68,363000,240
88,81,363000,240
83,68,363000,240
81,72,363240,180
85,81,363240,180
93,95,363240,180
69,49,363600,60
71,49,363720,60
73,56,363960,180
69,50,364320,60
68,50,364468,60
66,55,364680,180
71,58,365160,720
69,52,365880,60
68,58,366120,180
66,49,366120,180
68,51,366600,60
64,43,366600,60
64,55,366840,180
69,55,366840,180
71,53,367320,60
57,45,367320,60
63,45,367320,60
64,56,367560,180
56,47,367560,180
76,49,367920,60
68,41,367920,60
75,49,368040,60
69,41,368040,60
74,54,368280,180
69,45,368280,180
74,50,368640,60
65,42,368640,60
71,52,368760,60
64,44,368760,60
69,58,369000,180
64,49,369000,180
81,54,369360,60
69,45,369360,60
83,57,369480,60
71,48,369480,60
85,63,369720,180
73,53,369720,180
81,54,370080,60
69,45,370080,60
80,54,370200,60
68,45,370200,60
78,60,370440,180
66,50,370440,180
83,62,370920,720
71,52,370920,720
81,52,371640,60
71,44,371640,60
78,44,371640,60
69,44,371640,60
81,55,371880,180
69,46,371880,180
74,46,371880,180
80,51,372240,60
74,43,372240,60
68,43,372240,60
78,51,372360,60
74,43,372360,60
66,43,372360,60
76,56,372600,180
74,47,372600,180
64,47,372600,180
78,52,372960,60
66,44,372960,60
80,52,373080,60
74,44,373080,60
68,44,373080,60
81,55,373320,180
69,46,373320,180
73,46,373320,180
85,60,373560,120
76,51,373560,120
73,51,373560,120
88,67,373800,480
81,57,373800,480
76,57,373800,480
83,54,374280,60
88,65,374280,60
76,54,374280,60
88,65,374520,60
84,54,374520,60
76,54,374520,60
88,71,374760,180
76,60,374760,180
86,60,374760,180
88,66,375120,60
85,56,375120,60
76,56,375120,60
88,66,375240,60
83,56,375240,60
76,56,375240,60
88,72,375480,240
81,62,375480,240
76,62,375480,240
88,68,375840,60
85,58,375840,60
76,58,375840,60
88,68,375960,60
83,58,375960,60
76,58,375960,60
88,73,376200,120
76,63,376200,120
81,63,376200,120
83,61,377640,180
71,51,377640,180
80,51,377640,180
68,46,378000,40
64,39,378000,40
69,46,378040,40
66,39,378040,40
71,46,378080,40
68,59,378120,120
64,50,378120,120
88,63,378360,180
85,54,378360,180
76,54,378360,180
73,45,378720,40
69,37,378720,40
75,45,378760,40
71,37,378760,40
76,45,378800,40
73,56,378840,120
69,47,378840,120
83,61,379080,240
71,51,379080,240
80,51,379080,240
68,46,379440,40
64,39,379440,40
69,46,379480,40
66,39,379480,40
71,46,379520,40
68,59,379560,120
64,50,379560,120
80,46,379800,80
76,39,379800,80
81,46,379880,80
78,39,379880,80
83,46,379960,80
80,59,380040,120
76,50,380040,120
92,47,380280,80
88,40,380280,80
93,51,380360,80
90,43,380360,80
94,54,380440,80
91,45,380440,80
95,63,380520,120
90,54,380520,120
95,54,380880,60
83,45,380880,60
87,45,380880,60
95,54,381000,120
83,45,381000,120
88,45,381000,120
94,63,381240,120
83,53,381240,120
88,53,381240,120
95,60,381480,120
83,50,381480,120
89,50,381480,120
93,60,381720,120
83,50,381720,120
90,50,381720,120
92,66,381960,120
83,55,381960,120
88,55,381960,120
68,54,382200,60
69,54,382260,60
71,54,382320,60
69,55,382380,60
68,54,382440,60
69,51,382500,60
71,49,382560,60
73,50,382620,60
75,51,382680,60
76,52,382740,60
78,53,382800,60
80,54,382860,60
81,55,382920,60
83,56,382980,60
85,57,383040,60
87,58,383100,60
88,59,383160,60
90,60,383220,60
92,61,383280,60
93,62,383340,60
92,70,383400,180
80,70,383400,180
83,70,383400,180
68,41,383760,40
64,35,383760,40
69,41,383800,40
66,35,383800,40
71,41,383840,40
68,53,383880,120
64,45,383880,120
88,56,384120,240
85,48,384120,240
76,48,384120,240
73,40,384480,40
69,33,384480,40
75,40,384520,40
71,33,384520,40
76,40,384560,40
73,50,384600,120
69,42,384600,120
83,54,384840,240
71,45,384840,240
80,45,384840,240
68,41,385200,40
64,35,385200,40
69,41,385240,40
66,35,385240,40
71,41,385280,40
68,53,385320,120
64,45,385320,120
80,41,385560,80
76,35,385560,80
81,41,385640,80
78,35,385640,80
83,41,385720,80
80,53,385800,120
76,45,385800,120
92,42,386040,80
88,36,386040,80
93,45,386120,80
90,38,386120,80
94,48,386200,80
91,40,386200,80
95,56,386280,120
90,48,386280,120
95,48,386640,60
83,40,386640,60
87,40,386640,60
95,48,386760,120
83,40,386760,120
88,40,386760,120
94,56,387000,120
83,47,387000,120
88,47,387000,120
95,54,387240,120
83,45,387240,120
89,45,387240,120
93,54,387480,120
83,45,387480,120
90,45,387480,120
83,48,387720,120
92,56,387720,120
88,48,387720,120
83,54,388080,60
71,45,388080,60
75,45,388080,60
83,54,388200,120
71,45,388200,120
76,45,388200,120
82,63,388440,120
71,53,388440,120
76,53,388440,120
83,60,388680,120
71,50,388680,120
77,50,388680,120
81,60,388920,120
71,50,388920,120
78,50,388920,120
71,54,389160,120
76,54,389160,120
80,63,389160,120
71,61,389520,120
59,51,389520,120
63,51,389520,120
71,62,389760,120
59,52,389760,120
61,52,389760,120
64,52,389760,120
70,63,390000,120
59,52,390000,120
61,52,390000,120
64,52,390000,120
71,63,390240,120
59,53,390240,120
61,53,390240,120
64,53,390240,120
71,66,390480,120
59,56,390480,120
63,56,390480,120
69,56,390480,120
80,82,390600,120
68,66,390600,120
76,73,390600,120
56,66,390840,120
52,62,390960,120
80,71,391320,120
76,65,391440,120
68,76,391800,120
64,72,391920,120
83,82,392040,120
71,66,392040,120
80,73,392040,120
59,66,392280,120
56,60,392280,120
52,62,392400,120
83,71,392760,120
80,63,392760,120
76,65,392880,120
71,76,393240,120
68,70,393240,120
64,72,393360,120
86,83,393525,135
83,80,393525,135
74,78,393525,135
100,47,393840,120
97,47,393840,120
98,49,394080,120
95,49,394080,120
97,50,394320,120
93,50,394320,120
95,52,394560,120
92,52,394560,120
98,53,394800,120
90,53,394800,120
86,53,394800,120
97,53,395040,120
88,53,395040,120
85,45,395040,120
95,53,395280,120
83,45,395280,120
86,45,395280,120
93,54,395520,120
85,45,395520,120
81,45,395520,120
92,54,395760,120
83,45,395760,120
80,45,395760,120
90,56,396000,120
81,47,396000,120
78,47,396000,120
88,56,396240,120
80,47,396240,120
76,47,396240,120
86,58,396480,120
78,48,396480,120
74,48,396480,120
85,60,396720,120
73,50,396720,120
76,50,396720,120
83,62,396960,120
74,51,396960,120
71,51,396960,120
81,63,397200,120
73,52,397200,120
69,52,397200,120
80,63,397440,120
71,54,397440,120
68,54,397440,120
78,65,397680,120
69,54,397680,120
66,54,397680,120
76,66,397920,120
68,54,397920,120
64,54,397920,120
75,67,398160,120
63,56,398160,120
66,56,398160,120
74,68,398400,120
65,57,398400,120
62,57,398400,120
73,70,398640,120
64,59,398640,120
61,59,398640,120
72,72,398880,120
66,60,398880,120
60,60,398880,120
71,72,399120,120
64,60,399120,120
59,60,399120,120
69,77,399240,120
57,54,399240,120
61,54,399240,120
81,72,399600,60
69,60,399600,60
83,72,399720,60
71,62,399720,60
85,74,399960,180
73,63,399960,180
81,67,400320,60
69,57,400320,60
68,57,400440,60
80,67,400440,60
78,76,400680,180
66,63,400680,180
71,65,401160,720
83,78,401160,720
81,72,401880,60
78,62,401880,60
69,62,401880,60
80,80,402120,180
78,67,402120,180
68,67,402120,180
80,72,402600,60
68,62,402600,60
76,62,402600,60
81,80,402840,240
69,67,402840,240
76,67,402840,240
83,72,403320,60
69,52,403320,60
75,52,403320,60
76,77,403560,180
64,54,403560,180
68,54,403560,180
88,73,403920,60
76,63,403920,60
80,63,403920,60
83,63,403920,60
89,73,404040,60
85,73,404040,60
77,63,404040,60
81,63,404040,60
89,81,404280,240
77,69,404280,240
82,69,404280,240
86,69,404280,240
91,74,404640,60
79,63,404640,60
83,63,404640,60
86,63,404640,60
92,74,404760,60
80,63,404760,60
83,63,404760,60
86,63,404760,60
93,82,405000,180
81,70,405000,180
85,70,405000,180
81,80,405720,180
69,67,405720,180
73,67,405720,180
76,67,405720,180
95,79,406800,60
83,66,406800,60
97,81,406920,60
85,69,406920,60
98,84,407160,240
86,71,407160,240
95,76,407520,60
83,63,407520,60
93,76,407640,60
81,63,407640,60
90,63,407640,60
93,81,407880,180
81,69,407880,180
86,69,407880,180
92,74,408240,60
86,63,408240,60
80,63,408240,60
90,78,408360,60
86,65,408360,60
78,65,408360,60
88,80,408600,180
86,67,408600,180
76,67,408600,180
86,64,408960,60
90,77,408960,60
78,64,408960,60
92,77,409080,60
86,64,409080,60
80,64,409080,60
93,80,409320,180
81,67,409320,180
85,67,409320,180
97,84,409560,120
88,71,409560,120
85,71,409560,120
100,88,409800,480
93,74,409800,480
88,74,409800,480
100,85,410280,60
88,72,410280,60
95,72,410280,60
100,85,410520,60
96,72,410520,60
88,72,410520,60
100,92,410760,180
98,92,410760,180
88,78,410760,180
100,87,411120,60
97,73,411120,60
88,73,411120,60
100,87,411240,60
96,73,411240,60
88,73,411240,60
100,95,411480,180
95,81,411480,180
88,81,411480,180
100,90,411720,120
88,74,411720,120
94,74,411720,120
100,90,411960,60
93,74,411960,60
88,74,411960,60
100,93,412200,180
88,79,412200,180
93,79,412200,180
100,87,412440,120
88,73,412440,120
92,73,412440,120
100,87,412680,60
93,73,412680,60
88,73,412680,60
100,94,412920,480
97,80,412920,480
88,80,412920,480
100,90,413400,60
95,76,413400,60
88,76,413400,60
93,80,414000,120
81,67,414000,120
93,80,414120,120
81,67,414120,120
93,83,414360,120
81,71,414360,120
57,77,415440,120
45,65,415440,120
57,77,415560,120
45,65,415560,120
57,85,415800,120
45,72,415800,120
69,83,416520,720
57,71,416520,720
60,66,416880,120
63,66,416880,120
66,66,416880,120
60,66,417000,240
63,66,417000,240
66,66,417000,240
69,81,417240,480
57,69,417240,480
60,64,417600,120
63,64,417600,120
66,64,417600,120
60,64,417720,240
63,64,417720,240
66,64,417720,240
57,63,417900,60
69,72,417900,60
69,83,417960,720
57,71,417960,720
60,66,418320,120
63,66,418320,120
66,66,418320,120
60,66,418440,240
63,66,418440,240
66,66,418440,240
69,81,418680,480
57,69,418680,480
60,64,419040,120
63,64,419040,120
66,64,419040,120
60,64,419160,240
63,64,419160,240
66,64,419160,240
70,83,419400,1440
58,71,419400,1440
63,66,419760,60
66,66,419760,60
63,66,419880,120
66,66,419880,120
63,66,420120,360
66,66,420120,360
61,64,420480,60
64,64,420480,60
61,64,420600,120
64,64,420600,120
58,66,420840,480
61,66,420840,360
64,66,420840,360
62,64,421200,60
65,64,421200,60
62,64,421320,120
65,64,421320,120
62,66,421560,360
65,66,421560,360
58,64,421920,60
63,64,421920,60
66,64,421920,60
58,64,422040,120
64,64,422040,120
67,64,422040,120
59,66,422280,120
65,66,422280,120
68,66,422280,120
95,80,422640,120
83,67,422640,120
95,80,422760,120
83,67,422760,120
95,83,423000,120
83,71,423000,120
71,77,424080,120
59,65,424080,120
71,77,424200,120
59,65,424200,120
71,85,424440,120
59,72,424440,120
62,64,424800,120
65,64,424800,120
68,64,424800,120
61,64,424920,240
65,64,424920,240
68,64,424920,240
59,63,425100,60
71,72,425100,60
72,83,425160,1440
60,71,425160,1440
65,66,425520,60
68,66,425520,60
65,66,425640,120
68,66,425640,120
65,66,425880,360
68,66,425880,360
63,64,426240,60
66,64,426240,60
63,64,426360,120
66,64,426360,120
60,66,426600,960
63,66,426600,360
66,66,426600,360
64,64,426960,60
67,64,426960,60
64,64,427080,120
67,64,427080,120
64,66,427320,360
67,66,427320,360
65,64,427680,60
68,64,427680,60
66,64,427800,120
69,64,427800,120
61,66,428040,120
67,66,428040,120
70,66,428040,120
97,80,428400,120
85,67,428400,120
97,80,428520,120
85,67,428520,120
97,83,428760,120
85,71,428760,120
64,63,429840,120
70,63,429840,120
73,63,429840,120
61,63,429840,120
64,63,429960,120
70,63,429960,120
73,63,429960,120
61,63,429960,120
64,69,430200,120
70,69,430200,120
73,69,430200,120
61,69,430200,120
70,64,430560,120
62,64,430560,120
67,64,430560,120
74,64,430560,120
70,64,430680,120
62,64,430680,120
67,64,430680,120
74,64,430680,120
67,66,430920,120
73,66,430920,120
75,66,430920,120
63,66,430920,120
70,66,430920,120
99,80,431280,120
87,67,431280,120
99,80,431400,120
87,67,431400,120
99,83,431640,120
87,71,431640,120
67,63,432720,120
73,63,432720,120
75,63,432720,120
63,63,432720,120
67,63,432840,120
73,63,432840,120
75,63,432840,120
63,63,432840,120
67,69,433080,120
73,69,433080,120
75,69,433080,120
63,69,433080,120
76,54,433440,120
73,32,433440,120
64,32,433440,120
67,32,433440,120
76,54,433560,120
73,32,433560,120
64,32,433560,120
67,32,433560,120
77,61,433800,120
70,36,433800,120
65,36,433800,120
73,36,433800,120
101,53,434160,120
89,31,434160,120
101,53,434280,120
89,31,434280,120
101,62,434520,120
89,36,434520,120
89,50,434880,120
77,29,434880,120
89,50,435000,120
77,29,435000,120
89,59,435240,120
77,35,435240,120
65,56,435480,480
53,53,435480,120
52,54,435600,120
51,55,435720,120
50,57,435840,120
49,58,435960,120
48,60,436080,120
47,62,436200,120
46,63,436320,120
45,64,436440,120
93,53,437040,120
81,31,437040,120
93,53,437160,120
81,31,437160,120
93,62,437400,120
81,36,437400,120
81,50,437760,120
69,29,437760,120
81,50,437880,120
69,29,437880,120
81,59,438120,120
69,35,438120,120
69,56,438360,480
57,53,438360,120
56,54,438480,120
55,55,438600,120
54,57,438720,120
53,58,438840,120
52,60,438960,120
51,62,439080,120
50,63,439200,120
49,64,439320,120
97,53,439920,120
85,31,439920,120
97,53,440040,120
85,31,440040,120
97,62,440280,120
85,36,440280,120
85,50,440640,120
73,29,440640,120
85,50,440760,120
73,29,440760,120
73,56,441240,480
61,53,441240,120
60,54,441360,120
59,55,441480,120
58,57,441600,120
57,58,441720,120
56,60,441840,120
53,62,441960,120
50,63,442080,120
49,64,442200,120
85,53,442800,120
73,31,442800,120
85,53,442920,120
73,31,442920,120
85,62,443160,120
73,36,443160,120
73,50,443520,120
61,29,443520,120
73,50,443640,120
61,29,443640,120
49,36,444120,120
48,33,444240,120
47,32,444360,120
46,31,444480,120
45,30,444600,102
44,30,444702,102
43,29,444804,102
42,29,444906,102
41,28,445008,102
40,27,445110,102
39,27,445212,108
84,36,445320,120
78,36,445320,120
90,36,445320,120
89,38,445440,120
88,39,445560,120
87,39,445680,120
86,40,445800,120
85,40,445920,120
84,41,446040,120
83,41,446160,120
82,42,446280,120
81,42,446400,120
80,43,446520,120
79,43,446640,120
78,44,446760,120
77,46,446880,120
76,47,447000,120
75,49,447120,120
74,50,447240,120
73,51,447360,120
72,53,447480,120
71,54,447600,120
70,55,447720,120
69,56,447840,120
68,57,447960,120
66,59,448080,120
61,58,448200,120
65,58,448200,120
73,69,448200,120
97,64,448560,120
89,54,448560,120
85,54,448560,120
97,64,448680,120
89,54,448680,120
85,54,448680,120
97,70,448920,120
89,59,448920,120
85,59,448920,120
85,65,449280,120
77,55,449280,120
73,55,449280,120
85,65,449400,120
77,55,449400,120
73,55,449400,120
73,58,449640,120
77,58,449640,120
85,69,449640,120
73,64,450000,120
65,54,450000,120
61,54,450000,120
73,64,450120,120
65,54,450120,120
61,54,450120,120
73,70,450360,120
65,59,450360,120
61,59,450360,120
61,65,450720,120
53,55,450720,120
49,55,450720,120
61,65,450840,120
53,55,450840,120
49,55,450840,120
84,36,451080,120
78,36,451080,120
90,36,451080,120
89,38,451200,120
88,39,451320,120
87,39,451440,120
86,40,451560,120
85,40,451680,120
84,41,451800,120
83,41,451920,120
82,42,452040,120
81,42,452160,120
80,43,452280,120
79,43,452400,120
78,44,452520,102
77,46,452622,102
76,47,452724,102
75,49,452826,102
74,50,452928,102
73,51,453030,102
72,51,453132,108
69,62,453240,120
71,72,453240,120
66,49,453240,120
65,45,453360,120
64,45,453480,120
63,45,453600,120
60,45,453720,120
59,45,453840,120
86,36,453960,120
80,36,453960,120
92,36,453960,120
91,38,454080,120
90,39,454200,120
89,39,454320,120
88,40,454440,120
87,40,454560,120
86,41,454680,120
85,41,454800,120
84,42,454920,120
83,42,455040,120
82,43,455160,120
81,43,455280,120
80,44,455400,102
79,46,455502,102
78,47,455604,102
77,49,455706,102
76,50,455808,102
75,51,455910,102
74,51,456012,108
71,61,456120,120
73,74,456120,120
68,49,456120,120
67,50,456240,120
66,52,456360,120
65,54,456480,120
62,56,456600,120
61,58,456720,120
69,67,456840,120
72,69,456840,120
75,70,456840,120
81,78,456840,120
93,84,457080,120
81,71,457080,120
91,86,457320,120
79,73,457320,120
89,88,457560,120
77,74,457560,120
87,90,457800,120
75,75,457800,120
85,91,458040,120
73,77,458040,120
83,93,458280,120
71,79,458280,120
81,95,458520,120
69,80,458520,120
79,96,458760,120
67,81,458760,120
77,99,459000,120
65,83,459000,120
75,101,459240,80
63,85,459240,80
73,102,459400,80
61,85,459400,80
72,102,459480,120
60,86,459480,120
63,86,459480,120
73,104,459720,120
61,88,459720,120
65,88,459720,120
97,79,460080,120
89,67,460080,120
85,67,460080,120
97,79,460200,120
89,67,460200,120
85,67,460200,120
97,85,460440,120
89,72,460440,120
85,72,460440,120
85,80,460800,120
77,68,460800,120
73,68,460800,120
85,80,460920,120
77,68,460920,120
73,68,460920,120
73,71,461160,120
77,71,461160,120
85,84,461160,120
73,79,461520,120
65,67,461520,120
61,67,461520,120
73,79,461640,120
65,67,461640,120
61,67,461640,120
73,85,461880,120
65,72,461880,120
61,72,461880,120
61,80,462240,120
53,68,462240,120
49,68,462240,120
61,80,462360,120
53,68,462360,120
49,68,462360,120
69,75,462600,120
72,77,462600,120
75,78,462600,120
81,87,462600,120
93,84,462840,120
81,71,462840,120
91,86,463080,120
79,73,463080,120
89,88,463320,120
77,74,463320,120
87,90,463560,120
75,75,463560,120
85,91,463800,120
73,77,463800,120
83,93,464040,120
71,79,464040,120
81,95,464280,120
69,80,464280,120
79,96,464520,120
67,81,464520,120
77,99,464760,120
65,83,464760,120
75,101,465000,80
63,85,465000,80
73,102,465160,80
61,85,465160,80
72,102,465240,120
60,86,465240,120
63,86,465240,120
73,104,465480,120
61,88,465480,120
65,88,465480,120
97,79,465840,120
89,67,465840,120
85,67,465840,120
97,79,465960,120
89,67,465960,120
85,67,465960,120
97,85,466200,120
89,72,466200,120
85,72,466200,120
85,80,466560,120
77,68,466560,120
73,68,466560,120
85,80,466680,120
77,68,466680,120
73,68,466680,120
73,71,466920,120
77,71,466920,120
85,84,466920,120
73,79,467280,120
65,67,467280,120
61,67,467280,120
73,79,467400,120
65,67,467400,120
61,67,467400,120
73,85,467640,120
65,72,467640,120
61,72,467640,120
61,80,468000,120
53,68,468000,120
49,68,468000,120
61,80,468120,120
53,68,468120,120
49,68,468120,120
66,64,468360,101
54,54,468360,101
68,66,468600,101
56,56,468600,101
70,68,468840,101
58,57,468840,101
72,70,469080,101
60,59,469080,100
74,73,469320,101
62,62,469320,101
76,75,469560,101
64,63,469560,101
78,84,469800,101
66,71,469800,101
70,71,469800,101
73,71,469800,101
76,76,470040,101
64,64,470040,101
74,73,470280,101
62,62,470280,101
72,71,470520,101
60,60,470520,101
70,69,470760,101
58,58,470760,101
68,67,471000,101
56,56,471000,101
66,65,471240,120
54,55,471240,120
62,54,471360,120
59,54,471360,120
67,64,471360,120
55,54,471360,120
69,66,471600,120
57,56,471600,120
71,68,471840,120
59,57,471840,120
73,70,472080,120
61,59,472080,120
75,73,472320,120
63,62,472320,120
77,75,472560,120
65,63,472560,120
67,63,472800,120
79,76,472800,120
80,84,472920,120
68,71,472920,120
72,71,472920,120
75,71,472920,120
78,76,473160,120
66,64,473160,120
76,73,473400,120
64,62,473400,120
74,71,473640,120
62,60,473640,120
72,69,473880,120
60,58,473880,120
70,67,474120,120
58,56,474120,120
68,65,474360,120
56,55,474360,120
66,54,474480,120
61,54,474480,120
69,64,474480,120
57,54,474480,120
71,66,474720,120
59,56,474720,120
73,68,474960,120
61,57,474960,120
75,70,475200,120
63,59,475200,120
77,73,475440,120
65,62,475440,120
79,75,475680,120
67,63,475680,120
69,63,475920,120
81,76,475920,120
82,84,476040,120
70,71,476040,120
79,71,476040,119
76,71,476040,119
80,76,476280,120
68,64,476280,120
78,73,476520,120
66,62,476520,120
76,71,476760,120
64,60,476760,120
74,69,477000,120
62,58,477000,120
72,67,477240,120
60,56,477240,120
70,65,477480,120
58,55,477480,120
59,43,477600,80
67,43,477600,80
71,57,477600,80
60,46,477680,80
61,46,477760,80
62,46,477840,80
63,46,477920,80
64,47,478000,80
65,47,478080,80
66,47,478160,80
67,47,478240,80
68,47,478320,80
69,48,478400,80
70,48,478480,80
71,48,478560,80
72,48,478640,80
73,48,478720,80
74,49,478800,80
75,49,478880,80
76,49,478960,80
77,49,479040,80
78,49,479120,80
79,50,479200,80
80,51,479280,80
81,52,479360,80
82,53,479440,80
83,54,479520,80
84,55,479600,80
85,56,479680,80
86,57,479760,80
87,57,479840,80
88,58,479920,80
89,59,480000,80
90,60,480080,80
91,61,480160,80
92,62,480240,60
93,62,480300,60
94,63,480360,60
95,64,480420,60
96,97,480480,96
93,64,480480,96
95,64,480576,96
92,54,480576,96
94,63,480672,96
91,53,480672,96
93,62,480768,96
90,52,480768,96
92,61,480864,96
89,51,480864,96
91,60,480960,96
88,51,480960,96
90,59,481056,96
87,50,481056,96
89,58,481152,96
86,49,481152,96
88,57,481248,96
85,48,481248,96
87,56,481344,96
84,47,481344,96
86,55,481440,96
83,46,481440,96
85,55,481536,96
82,46,481536,96
84,54,481632,96
81,45,481632,96
83,53,481728,96
80,45,481728,96
82,52,481824,96
79,44,481824,96
81,52,481920,80
78,44,481920,80
80,52,482000,80
77,44,482000,80
79,51,482080,80
76,43,482080,80
78,51,482160,80
75,43,482160,80
77,50,482240,80
74,42,482240,80
76,50,482320,80
73,42,482320,80
75,49,482400,80
72,41,482400,80
74,49,482480,80
71,41,482480,80
73,48,482560,80
70,40,482560,80
72,48,482640,80
69,40,482640,80
71,47,482720,80
68,39,482720,80
70,47,482800,80
67,39,482800,80
69,46,482880,80
66,39,482880,80
68,46,482960,80
65,39,482960,80
67,45,483040,80
64,38,483040,80
66,45,483120,80
63,38,483120,80
65,44,483200,80
62,37,483200,80
64,44,483280,80
61,37,483280,80
63,57,483360,103
60,48,483360,103
64,46,483463,102
61,39,483463,102
65,46,483565,103
62,39,483565,102
63,39,483667,103
66,46,483667,103
64,39,483770,102
67,46,483770,102
68,47,483872,103
65,39,483872,103
69,47,483975,102
66,39,483975,102
70,47,484077,103
67,39,484077,103
68,39,484179,102
71,47,484179,103
69,40,484282,102
72,48,484282,102
73,48,484384,103
70,40,484384,103
74,48,484487,102
71,40,484487,102
75,48,484589,103
72,40,484589,103
76,48,484691,109
73,40,484691,103
77,49,484800,72
74,41,484800,72
78,49,484872,72
75,41,484872,72
79,50,484944,72
76,42,484944,72
80,51,485016,72
77,43,485016,72
81,52,485088,72
78,44,485088,72
82,53,485160,72
79,45,485160,72
83,54,485232,72
80,45,485232,72
84,55,485304,72
81,46,485304,72
85,56,485376,72
82,47,485376,72
86,57,485448,72
83,48,485448,72
87,57,485520,72
84,48,485520,72
88,58,485592,72
85,49,485592,72
89,59,485664,72
86,50,485664,72
90,60,485736,72
87,51,485736,72
91,61,485808,72
88,51,485808,72
92,62,485880,72
89,52,485880,72
93,63,485952,72
90,53,485952,72
94,65,486024,72
91,55,486024,72
95,66,486096,72
92,56,486096,72
96,71,486168,72
93,60,486168,72
97,97,486240,103
94,64,486240,103
96,64,486343,102
93,54,486343,102
95,63,486446,102
92,53,486446,102
94,62,486548,103
91,52,486548,103
93,61,486651,103
90,51,486651,103
92,60,486754,102
89,51,486754,102
91,59,486857,102
88,50,486857,102
90,58,486959,103
87,49,486959,103
89,57,487062,103
86,48,487062,103
88,56,487165,102
85,47,487165,102
87,55,487267,103
84,46,487267,103
86,55,487370,103
83,46,487370,103
85,54,487473,102
82,45,487473,102
81,45,487575,105
84,53,487575,105
85,70,487680,103
82,59,487680,103
81,51,487783,102
84,60,487783,102
80,50,487885,102
83,59,487885,102
79,50,487988,103
82,59,487988,103
81,58,488091,103
78,49,488091,103
80,57,488193,102
77,48,488194,102
79,56,488297,102
76,47,488297,102
78,56,488399,102
75,47,488399,103
77,55,488502,103
74,46,488502,103
76,54,488605,102
73,45,488605,102
72,45,488707,103
75,53,488707,103
74,52,488810,103
71,44,488810,103
70,44,488913,102
73,52,488913,102
72,51,489015,105
69,43,489015,105
73,61,489120,103
70,51,489120,103
69,46,489223,102
72,55,489223,102
68,45,489325,102
71,54,489326,102
67,45,489428,103
70,53,489428,103
69,53,489531,103
66,45,489531,102
68,52,489633,102
65,44,489634,102
67,51,489737,102
64,43,489737,102
66,50,489839,102
63,42,489839,103
65,49,489942,103
62,41,489942,103
64,48,490045,102
61,40,490045,102
60,39,490147,103
63,47,490147,103
62,46,490250,103
59,39,490250,103
58,38,490353,102
61,45,490353,102
60,45,490455,105
57,38,490455,105
61,71,490560,240
58,71,490560,120
57,53,490680,120
61,53,490800,240
58,53,490800,120
57,53,490920,120
61,53,491040,240
58,53,491040,120
57,53,491160,120
61,53,491280,240
58,53,491280,120
57,53,491400,120
61,53,491520,240
58,53,491520,120
57,53,491640,120
61,53,491760,240
58,53,491760,120
57,53,491880,120
61,71,492000,240
58,71,492000,120
57,53,492120,120
61,53,492240,240
58,53,492240,120
57,53,492360,120
61,53,492480,240
58,53,492480,120
57,53,492600,120
63,70,492720,240
58,53,492720,120
57,53,492840,120
63,53,492960,240
58,53,492960,120
57,53,493080,120
63,53,493200,240
58,53,493200,120
60,53,493320,120
65,77,493440,240
53,77,493440,240
57,77,493440,240
52,75,493680,240
64,75,493680,240
53,70,493920,240
65,70,493920,240
64,84,494160,240
76,84,494160,240
65,80,494400,240
77,80,494400,240
88,99,494640,240
76,99,494640,240
77,97,494880,240
89,97,494880,240
76,82,495120,240
64,82,495120,240
65,79,495360,240
77,79,495360,240
52,76,495600,240
64,76,495600,240
53,74,495840,240
65,74,495840,240
53,76,496080,240
97,82,496320,120
94,69,496320,120
96,64,496440,120
93,54,496440,120
95,64,496560,120
92,54,496560,120
94,63,496680,120
91,53,496680,120
93,62,496800,120
90,52,496800,120
92,62,496920,120
89,52,496920,120
91,61,497040,120
88,52,497040,120
90,60,497160,120
87,51,497160,120
89,60,497280,120
86,51,497280,120
88,59,497400,120
85,51,497400,120
87,59,497520,120
84,50,497520,120
86,59,497640,120
83,50,497640,120
85,58,497760,120
82,49,497760,120
84,57,497880,120
81,48,497880,120
83,57,498000,120
80,48,498000,120
82,57,498120,120
79,47,498120,120
81,56,498240,120
78,47,498240,120
80,56,498360,120
77,47,498360,120
73,46,498480,120
79,55,498480,120
76,46,498480,120
75,54,498600,120
72,45,498600,120
74,54,498720,120
70,45,498720,120
72,53,498840,120
69,44,498840,120
71,52,498960,120
68,43,498960,120
70,52,499080,70
67,43,499080,70
65,77,499180,260
72,81,499190,250
81,94,499200,240
64,75,499440,240
76,75,499440,240
65,71,499680,240
77,71,499680,240
76,88,499920,240
88,88,499920,240
77,83,500160,240
89,83,500160,240
100,101,500400,240
88,101,500400,240
89,98,500640,240
101,98,500640,240
88,82,500880,240
76,82,500880,240
77,79,501120,240
89,79,501120,240
64,76,501360,240
76,76,501360,240
65,74,501600,240
77,74,501600,240
53,76,501840,240
97,82,502080,120
94,69,502080,120
96,64,502200,120
93,54,502200,120
95,64,502320,120
92,54,502320,120
94,63,502440,120
91,53,502440,120
93,62,502560,120
90,52,502560,120
92,62,502680,120
89,52,502680,120
91,61,502800,120
88,52,502800,120
90,60,502920,120
87,51,502920,120
89,60,503040,120
86,51,503040,120
88,59,503160,120
85,51,503160,120
87,59,503280,120
84,50,503280,120
86,59,503400,120
83,50,503400,120
85,58,503520,120
82,49,503520,120
84,57,503640,120
81,48,503640,120
83,57,503760,120
80,48,503760,120
82,57,503880,120
79,47,503880,120
81,56,504000,120
78,47,504000,120
80,56,504120,120
77,47,504120,120
73,46,504240,120
79,55,504240,120
76,46,504240,120
75,54,504360,120
72,45,504360,120
74,54,504480,120
70,45,504480,120
72,53,504600,120
69,44,504600,120
71,52,504720,120
68,43,504720,120
70,52,504840,70
67,43,504840,70
65,77,504940,260
72,81,504950,250
81,94,504960,240
64,75,505200,240
76,75,505200,240
65,71,505440,240
77,71,505440,240
76,88,505680,240
88,88,505680,240
77,83,505920,240
89,83,505920,240
100,102,506160,240
88,102,506160,240
89,98,506400,480
101,98,506400,480
53,58,506880,73
54,59,506953,73
55,59,507027,73
56,60,507100,73
57,61,507173,73
58,61,507246,73
59,62,507319,73
60,63,507393,73
61,64,507466,73
62,64,507539,73
63,65,507612,73
64,66,507685,73
65,66,507758,82
66,99,507840,1920
57,99,509760,1920
61,99,511680,1920
52,96,513600,1920
53,40,515520,240
54,33,515760,240
53,40,516000,240
54,33,516240,240
53,40,516480,240
58,34,516720,240
57,34,516960,240
54,34,517200,240
53,40,517440,240
54,36,517680,240
53,40,517920,240
54,36,518160,240
53,40,518400,240
58,35,518640,240
57,35,518880,240
54,35,519120,240
53,40,519360,240
54,35,519600,240
53,40,519840,240
54,35,520080,240
53,40,520320,240
58,34,520560,240
57,34,520800,240
54,34,521040,240
53,40,521280,240
54,36,521520,240
53,40,521760,240
54,36,522000,240
53,40,522240,240
58,35,522480,240
57,35,522720,240
54,35,522960,240
53,40,523200,240
54,36,523440,240
53,40,523680,240
54,36,523920,240
53,43,524160,240
61,45,524400,240
58,42,524640,240
54,42,524880,240
53,45,525120,240
54,37,525360,240
53,44,525600,240
54,38,525840,240
53,42,526080,240
61,47,526320,240
58,43,526560,240
54,43,526800,240
53,43,527040,240
54,45,527280,240
57,47,527520,240
58,49,527760,240
60,53,528000,240
61,55,528240,240
64,57,528480,240
65,59,528720,230
65,61,528960,240
64,61,529200,240
61,59,529440,240
60,58,529680,240
58,56,529920,240
57,54,530160,240
65,67,530400,480
63,53,530400,480
54,53,530400,240
53,52,530640,240
61,53,530880,960
65,64,530880,1440
53,43,530880,240
54,45,531120,240
57,47,531360,240
58,49,531600,240
60,53,531840,240
61,55,532080,240
64,57,532320,240
65,67,532560,230
65,68,532800,960
64,61,533040,240
61,59,533280,240
60,58,533520,240
63,62,533760,960
65,68,533760,960
58,56,533760,240
57,54,534000,240
54,53,534240,240
53,52,534480,240
61,53,534720,960
65,64,534720,1440
53,43,534720,240
54,45,534960,240
57,47,535200,240
58,49,535440,240
60,53,535680,240
61,55,535920,240
64,57,536160,240
65,67,536400,240
65,68,536640,960
64,61,536880,240
61,59,537120,240
60,58,537360,240
53,62,537600,960
65,68,537600,960
59,56,537600,960
56,54,537840,240
55,54,538080,240
54,54,538320,240
53,65,538560,960
65,72,538560,960
59,59,538560,960
56,58,538800,240
55,57,539040,240
54,57,539280,240
53,70,539520,960
65,76,539520,960
60,63,539520,960
56,61,539760,240
55,61,540000,240
54,60,540240,240
53,73,540480,960
65,80,540480,1440
62,66,540480,1440
56,65,540720,240
55,64,540960,240
54,64,541200,240
53,78,541440,240
56,78,541680,240
62,77,541920,480
64,87,541920,480
52,79,541920,240
56,80,542160,240
57,40,542400,240
58,33,542640,240
57,40,542880,240
58,33,543120,240
57,40,543360,240
62,34,543600,240
61,34,543840,240
58,34,544080,240
57,40,544320,240
58,36,544560,240
57,40,544800,240
58,36,545040,240
57,40,545280,240
62,35,545520,240
61,35,545760,240
58,35,546000,240
57,40,546240,240
58,35,546480,240
57,40,546720,240
58,35,546960,240
57,40,547200,240
62,34,547440,240
61,34,547680,240
58,34,547920,240
57,40,548160,240
58,36,548400,240
57,40,548640,240
58,36,548880,240
57,40,549120,240
62,35,549360,240
61,35,549600,240
58,35,549840,240
57,40,550080,240
58,36,550320,240
57,40,550560,240
58,36,550800,240
57,43,551040,240
65,45,551280,240
62,42,551520,240
58,42,551760,240
57,45,552000,240
58,37,552240,240
57,44,552480,240
58,38,552720,240
57,42,552960,240
65,47,553200,240
62,43,553440,240
58,43,553680,240
57,43,553920,240
58,45,554160,240
61,47,554400,240
62,49,554640,240
64,53,554880,240
65,55,555120,240
68,57,555360,240
69,59,555600,240
69,61,555840,240
68,61,556080,240
65,59,556320,240
64,58,556560,240
62,56,556800,240
61,54,557040,240
69,67,557280,480
67,53,557280,480
58,53,557280,240
57,52,557520,240
65,53,557760,960
69,64,557760,1440
57,43,557760,240
58,45,558000,240
61,47,558240,240
62,49,558480,240
64,53,558720,240
65,55,558960,240
68,57,559200,240
69,67,559440,220
69,68,559680,960
68,61,559920,240
65,59,560160,240
64,58,560400,240
67,62,560640,960
69,68,560640,960
62,56,560640,240
61,54,560880,240
58,53,561120,240
57,52,561360,220
65,53,561600,960
69,64,561600,960
57,43,561600,240
58,45,561840,240
61,47,562080,240
62,49,562320,240
64,53,562560,240
65,55,562800,240
68,57,563040,240
69,67,563280,220
69,68,563520,960
68,61,563760,240
65,59,564000,240
64,58,564240,240
57,62,564480,960
69,68,564480,960
63,56,564480,960
60,54,564720,240
59,54,564960,240
58,54,565200,240
57,65,565440,960
69,72,565440,960
63,59,565440,960
60,58,565680,240
59,57,565920,240
58,57,566160,240
57,70,566400,960
69,76,566400,960
64,63,566400,960
60,61,566640,240
59,61,566880,240
58,60,567120,240
57,73,567360,960
69,80,567360,1440
66,66,567360,1440
60,65,567600,240
59,64,567840,240
58,64,568080,240
58,78,568320,240
60,78,568560,240
66,65,568800,480
68,77,568800,480
56,70,568800,240
60,77,569040,240
53,77,569280,480
61,77,569280,480
73,64,570240,480
61,54,570240,480
65,54,570240,480
73,58,570720,120
61,49,570720,120
65,49,570720,120
73,58,570960,120
61,49,570960,120
65,49,570960,120
78,64,571200,120
66,54,571200,120
69,54,571200,120
78,58,571680,120
66,49,571680,120
69,49,571680,120
78,63,572160,480
66,54,572160,480
69,54,572160,480
81,58,572640,120
69,49,572640,120
73,49,572640,120
78,58,572880,120
66,49,572880,120
69,49,572880,120
77,63,573120,120
65,54,573120,120
68,54,573120,120
73,58,573600,120
61,49,573600,120
65,49,573600,120
85,70,574080,480
73,59,574080,480
77,59,574080,480
85,63,574560,120
73,53,574560,120
77,53,574560,120
85,63,574800,120
73,53,574800,120
77,53,574800,120
90,70,575040,120
78,59,575040,120
81,59,575040,120
90,63,575520,120
78,53,575520,120
81,53,575520,120
90,69,576000,480
78,59,576000,480
81,59,576000,480
93,63,576480,120
81,53,576480,120
85,53,576480,120
90,63,576720,120
78,53,576720,120
81,53,576720,120
89,69,576960,120
77,59,576960,120
81,59,576960,120
77,64,577920,480
65,54,577920,480
69,54,577920,480
77,58,578400,120
65,49,578400,120
69,49,578400,120
77,58,578640,120
65,49,578640,120
69,49,578640,120
82,64,578880,120
70,54,578880,120
73,54,578880,120
82,68,579360,60
70,53,579360,60
73,55,579360,60
70,51,579600,60
73,51,579600,60
82,68,579600,60
82,63,579840,480
70,54,579840,480
73,54,579840,480
85,58,580320,120
73,49,580320,120
77,49,580320,120
82,58,580560,120
70,49,580560,120
73,49,580560,120
81,63,580800,120
69,54,580800,120
72,54,580800,120
77,58,581280,120
65,49,581280,120
69,49,581280,120
89,70,581760,480
77,59,581760,480
81,59,581760,480
89,63,582240,120
77,53,582240,120
81,53,582240,120
89,63,582480,120
77,53,582480,120
81,53,582480,120
94,70,582720,120
82,59,582720,120
85,59,582720,120
94,70,583200,60
82,58,583200,60
85,59,583200,60
82,56,583440,60
85,57,583440,60
94,70,583440,60
94,69,583680,480
82,59,583680,480
85,59,583680,480
97,63,584160,120
85,53,584160,120
89,53,584160,120
94,63,584400,120
82,53,584400,120
85,53,584400,120
93,74,584640,480
81,62,584640,480
84,62,584640,480
96,79,585120,480
93,67,585120,480
89,67,585120,480
84,67,585120,480
97,81,585600,480
94,68,585600,480
89,68,585600,480
85,68,585600,480
94,79,586080,480
82,67,586080,480
85,67,586080,480
89,67,586080,480
93,80,586560,480
81,68,586560,480
84,68,586560,480
89,68,586560,480
96,79,587040,480
93,67,587040,480
89,67,587040,480
84,67,587040,480
97,84,587520,480
94,71,587520,480
89,71,587520,480
85,71,587520,480
94,79,588000,480
89,67,588000,480
85,67,588000,480
82,67,588000,480
89,62,588480,480
93,74,588480,480
81,62,588480,480
84,62,588480,480
101,79,588960,480
96,67,588960,480
93,67,588960,480
89,67,588960,480
101,81,589440,420
97,68,589440,420
94,68,589440,420
89,68,589440,420
85,75,589860,480
94,78,589890,450
101,82,589920,420
84,77,590340,540
93,81,590370,510
101,84,590400,480
101,79,590880,480
96,67,590880,480
93,67,590880,480
89,67,590880,480
101,84,591360,420
97,71,591360,420
94,71,591360,420
89,71,591360,420
85,81,591780,480
94,84,591810,450
101,87,591840,420
84,80,592260,540
93,83,592290,510
101,85,592320,480
65,68,594480,240
57,57,594480,240
63,67,594720,240
54,56,594720,240
61,65,594960,240
53,55,594960,240
67,68,598320,240
59,57,598320,240
65,67,598560,240
56,56,598560,240
63,65,598800,240
55,55,598800,240
63,70,600960,240
58,56,600960,240
65,72,601200,240
60,57,601200,240
67,74,601440,240
62,59,601440,240
69,76,601680,240
63,60,601680,240
72,81,601920,240
67,64,601920,240
70,76,602160,240
65,60,602160,240
69,74,602400,240
63,59,602400,240
67,72,602640,240
62,57,602640,240
65,70,602880,240
60,56,602880,240
63,68,603120,240
58,54,603120,240
62,66,603360,240
57,52,603360,240
60,64,603600,240
55,51,603600,240
58,50,603840,240
63,72,603840,240
60,52,604080,240
65,65,604080,240
62,53,604320,240
67,67,604320,240
63,55,604560,240
69,69,604560,240
70,70,604800,240
65,56,604800,240
72,72,605040,240
67,57,605040,240
74,74,605280,240
69,59,605280,240
75,76,605520,240
70,60,605520,240
79,81,605760,240
74,64,605760,240
77,76,606000,240
72,60,606000,240
75,74,606240,240
70,59,606240,240
74,72,606480,240
69,57,606480,240
72,64,606720,240
84,81,606720,240
75,64,606720,240
74,60,606960,240
82,76,606960,240
70,60,606960,240
69,59,607200,240
81,74,607200,240
72,59,607200,240
67,57,607440,240
79,72,607440,240
70,57,607440,240
75,64,607680,240
87,81,607680,240
79,64,607680,240
77,60,607920,240
86,76,607920,240
74,60,607920,240
72,59,608160,240
84,74,608160,240
75,59,608160,240
70,57,608400,240
82,72,608400,240
74,57,608400,240
79,64,608640,240
91,81,608640,240
82,64,608640,240
81,60,608880,240
89,76,608880,240
77,60,608880,240
75,59,609120,240
87,74,609120,240
79,59,609120,240
74,57,609360,240
86,72,609360,240
77,57,609360,240
84,64,609600,240
96,81,609600,240
87,64,609600,240
86,60,609840,240
94,76,609840,240
82,60,609840,240
81,59,610080,240
93,74,610080,240
84,59,610080,240
79,57,610320,240
91,72,610320,240
82,57,610320,240
99,75,610560,60
91,63,610560,60
87,63,610560,60
98,75,610620,60
86,63,610620,60
89,63,610620,60
96,75,610680,60
87,63,610680,60
84,63,610680,60
94,75,610740,60
86,63,610740,60
82,63,610740,60
93,74,610800,60
81,62,610800,60
84,62,610800,60
91,74,610860,60
79,62,610860,60
82,62,610860,60
89,74,610920,60
77,62,610920,60
81,62,610920,60
87,74,610980,60
75,62,610980,60
79,62,610980,60
86,74,611040,60
77,62,611040,60
74,62,611040,60
84,73,611100,60
72,62,611100,60
75,62,611100,60
82,73,611160,60
70,62,611160,60
74,62,611160,60
81,73,611220,60
69,62,611220,60
72,62,611220,60
79,76,611280,60
67,64,611280,60
70,64,611280,60
77,67,611340,60
65,56,611340,60
69,56,611340,60
76,77,611400,60
64,65,611400,60
68,65,611400,60
77,70,611460,60
65,59,611460,60
69,59,611460,60
76,77,611520,60
64,56,611520,60
68,56,611520,60
77,67,611580,60
65,56,611580,60
69,56,611580,60
78,68,611640,60
66,57,611640,60
70,57,611640,60
79,69,611700,60
67,58,611700,60
71,58,611700,60
80,69,611760,60
68,58,611760,60
72,58,611760,60
81,70,611820,60
69,59,611820,60
73,59,611820,60
82,71,611880,60
70,60,611880,60
74,60,611880,60
83,71,611940,60
71,60,611940,60
75,60,611940,60
72,60,612000,60
76,60,612000,60
84,72,612000,60
85,72,612060,60
73,61,612060,60
77,61,612060,60
86,72,612120,60
74,61,612120,60
78,61,612120,60
87,73,612180,60
75,62,612180,60
79,62,612180,60
88,74,612240,60
76,62,612240,60
80,62,612240,60
89,74,612300,60
77,62,612300,60
81,62,612300,60
90,75,612360,60
78,63,612360,60
82,63,612360,60
91,76,612420,60
79,64,612420,60
83,64,612420,60
92,76,612480,60
80,64,612480,60
84,64,612480,60
93,77,612540,60
81,65,612540,60
85,65,612540,60
94,78,612600,60
82,66,612600,60
86,66,612600,60
95,78,612660,60
83,66,612660,60
87,66,612660,60
96,79,612720,60
84,67,612720,60
88,67,612720,60
97,80,612780,60
85,68,612780,60
89,68,612780,60
98,80,612840,60
86,68,612840,60
90,68,612840,60
99,92,612900,120
87,68,612900,120
91,75,612900,120
75,85,613920,960
87,85,613920,960
67,76,614880,780
79,76,614880,780
65,37,615660,480
72,49,615720,180
75,56,615780,120
81,72,615840,60
82,35,615900,60
74,28,615900,60
77,28,615900,60
81,36,615960,60
72,28,615960,60
75,28,615960,60
82,36,616020,60
74,28,616020,60
77,28,616020,60
81,37,616080,60
72,29,616080,60
75,29,616080,60
82,38,616140,60
74,30,616140,60
77,30,616140,60
81,38,616200,60
72,30,616200,60
75,30,616200,60
82,39,616260,60
74,31,616260,60
77,31,616260,60
81,39,616320,60
72,31,616320,60
75,31,616320,60
82,40,616380,60
74,32,616380,60
77,32,616380,60
81,40,616440,60
72,32,616440,60
75,32,616440,60
82,41,616500,60
74,32,616500,60
77,32,616500,60
81,41,616560,60
72,32,616560,60
75,32,616560,60
82,42,616620,60
74,33,616620,60
77,33,616620,60
81,42,616680,60
72,33,616680,60
75,33,616680,60
82,43,616740,60
74,34,616740,60
77,34,616740,60
81,45,616800,60
72,36,616800,60
75,36,616800,60
82,45,616860,60
74,36,616860,60
77,36,616860,60
81,46,616920,60
72,36,616920,60
75,36,616920,60
82,47,616980,60
74,37,616980,60
77,37,616980,60
81,47,617040,60
72,37,617040,60
75,37,617040,60
82,48,617100,60
74,38,617100,60
77,38,617100,60
81,49,617160,60
72,39,617160,60
75,39,617160,60
82,49,617220,60
74,39,617220,60
77,39,617220,60
81,50,617280,60
72,40,617280,60
75,40,617280,60
82,51,617340,60
74,40,617340,60
77,40,617340,60
81,51,617400,60
72,40,617400,60
75,40,617400,60
82,52,617460,60
74,41,617460,60
77,41,617460,60
81,52,617520,60
72,41,617520,60
75,41,617520,60
82,53,617580,60
74,42,617580,60
77,42,617580,60
81,54,617640,60
72,43,617640,60
75,43,617640,60
82,54,617700,60
74,43,617700,60
77,43,617700,60
81,55,617760,60
75,44,617760,60
72,44,617760,60
82,56,617820,60
77,44,617820,60
74,44,617820,60
81,56,617880,60
72,44,617880,60
75,44,617880,60
82,57,617940,60
77,45,617940,60
74,45,617940,60
81,58,618000,60
72,46,618000,60
75,46,618000,60
82,58,618060,60
74,46,618060,60
77,46,618060,60
81,59,618120,60
72,47,618120,60
75,47,618120,60
82,60,618180,60
77,48,618180,60
74,48,618180,60
81,61,618240,60
75,48,618240,60
72,48,618240,60
82,60,618300,60
74,48,618300,60
77,48,618300,60
81,59,618360,60
72,47,618360,60
75,47,618360,60
82,58,618420,60
77,46,618420,60
74,46,618420,60
81,57,618480,60
72,45,618480,60
75,45,618480,60
82,56,618540,60
77,44,618540,60
74,44,618540,60
81,55,618600,60
72,44,618600,60
75,44,618600,60
82,54,618660,60
77,43,618660,60
74,43,618660,60
81,53,618720,60
75,42,618720,60
72,42,618720,60
82,51,618780,60
77,40,618780,60
74,40,618780,60
81,50,618840,60
72,40,618840,60
75,40,618840,60
82,49,618900,60
74,39,618900,60
77,39,618900,60
81,48,618960,60
72,38,618960,60
75,38,618960,60
82,47,619020,60
74,37,619020,60
77,37,619020,60
81,45,619080,60
72,36,619080,60
75,36,619080,60
82,44,619140,60
74,35,619140,60
77,35,619140,60
81,43,619200,60
75,34,619200,60
72,34,619200,60
82,42,619260,60
74,33,619260,60
77,33,619260,60
81,41,619320,60
72,32,619320,60
75,32,619320,60
82,40,619380,60
74,32,619380,60
77,32,619380,60
81,39,619440,60
75,31,619440,60
72,31,619440,60
82,38,619500,60
74,30,619500,60
77,30,619500,60
81,37,619560,60
72,29,619560,60
75,29,619560,60
82,36,619620,60
74,28,619620,60
77,28,619620,60
81,40,619680,240
75,32,619680,240
72,32,619680,240
82,42,619920,240
74,33,619920,240
77,33,619920,240
81,35,620160,240
75,28,620160,240
72,28,620160,240
80,40,620400,240
74,32,620400,240
71,32,620400,240
81,35,620640,240
72,28,620640,240
75,28,620640,240
82,76,620880,480
70,56,620880,120
77,44,621120,120
74,38,621120,120
82,66,621360,120
70,53,621360,120
82,68,621600,120
77,48,621600,120
74,41,621600,120
86,76,621840,120
74,53,621840,120
82,60,622080,120
77,48,622080,120
82,60,622320,480
70,53,622320,120
74,36,622560,120
77,48,622560,120
77,73,622800,480
65,53,622800,120
70,38,623040,120
74,44,623040,120
77,63,623280,120
65,53,623280,120
77,64,623520,120
74,48,623520,120
70,41,623520,120
82,72,623760,120
70,53,623760,120
77,60,624000,120
74,48,624000,120
77,60,624240,480
65,53,624240,120
70,36,624480,120
74,48,624480,120
74,77,624720,480
62,56,624720,120
65,39,624960,120
70,46,624960,120
74,62,625200,120
62,61,625200,120
75,62,625440,120
63,55,625440,120
79,69,625680,480
67,51,625680,120
70,34,625920,120
74,46,625920,120
77,57,626160,480
65,51,626160,120
70,34,626400,120
74,46,626400,120
77,75,626640,480
65,53,626640,120
69,39,626880,120
72,46,626880,120
79,57,627120,120
67,56,627120,120
81,57,627360,120
69,50,627360,120
82,69,627600,480
70,51,627600,120
74,34,627840,120
77,46,627840,120
70,51,628080,120
74,34,628320,120
77,46,628320,120
82,78,628560,480
70,53,628560,120
77,44,628800,120
74,38,628800,120
82,64,629040,120
70,53,629040,120
82,64,629280,120
77,48,629280,120
74,41,629280,120
86,78,629520,120
74,53,629520,120
82,62,629760,120
77,48,629760,120
82,62,630000,480
70,53,630000,120
74,36,630240,120
77,48,630240,120
77,77,630480,480
65,53,630480,120
70,38,630720,120
74,44,630720,120
77,63,630960,120
65,53,630960,120
77,63,631200,120
74,48,631200,120
70,41,631200,120
82,75,631440,120
70,53,631440,120
77,62,631680,120
74,48,631680,120
77,62,631920,480
65,53,631920,120
70,36,632160,120
74,48,632160,120
74,77,632400,480
62,56,632400,120
70,44,632640,120
65,39,632640,120
74,62,632880,120
62,61,632880,120
75,62,633120,120
63,55,633120,120
79,69,633360,480
67,51,633360,120
70,34,633600,120
74,46,633600,120
77,57,633840,480
65,51,633840,120
70,34,634080,120
74,46,634080,120
77,77,634320,480
65,56,634320,120
69,39,634560,120
72,46,634560,120
79,57,634800,120
67,56,634800,120
81,57,635040,120
69,50,635040,120
82,69,635280,480
70,51,635280,120
74,34,635520,120
77,46,635520,120
70,51,635760,120
74,34,636000,120
77,46,636000,120
82,78,636240,480
70,53,636240,120
77,44,636480,120
74,38,636480,120
84,61,636720,120
72,53,636720,120
86,61,636960,120
74,48,636960,120
84,71,637200,480
72,49,637200,120
77,38,637440,120
81,44,637440,120
81,57,637680,480
69,49,637680,120
77,44,637920,120
72,33,637920,120
79,76,638160,480
67,53,638160,120
76,44,638400,120
72,38,638400,120
81,60,638640,120
69,53,638640,120
82,60,638880,120
70,48,638880,120
81,67,639120,480
69,49,639120,120
72,38,639360,120
77,44,639360,120
77,57,639600,480
65,49,639600,120
72,44,639840,120
69,33,639840,120
84,74,640080,480
72,52,640080,120
81,44,640320,120
77,38,640320,120
84,61,640560,120
72,53,640560,120
77,44,640800,120
84,61,640800,120
81,48,640800,120
83,69,641040,480
71,53,641040,120
74,41,641280,120
77,48,641280,120
82,62,641520,480
70,53,641520,120
76,48,641760,120
72,36,641760,120
81,58,642000,480
69,45,642000,120
72,34,642240,120
77,40,642240,120
80,52,642480,480
68,45,642480,120
77,40,642720,120
72,29,642720,120
79,58,642960,960
67,45,642960,120
72,34,643200,120
76,40,643200,120
67,45,643440,120
76,40,643680,120
72,29,643680,120
79,78,643920,480
67,53,643920,120
76,44,644160,120
72,38,644160,120
79,70,644400,120
67,53,644400,120
76,44,644640,120
79,70,644640,120
72,41,644640,120
79,71,644880,480
67,49,644880,120
74,38,645120,120
77,44,645120,120
79,63,645360,480
67,49,645360,120
77,44,645600,120
74,33,645600,120
79,71,645840,96
67,49,645840,120
81,58,645936,96
79,58,646032,96
74,44,646080,120
78,59,646128,96
79,59,646224,96
81,64,646320,120
69,49,646320,120
83,64,646560,120
71,44,646560,120
84,71,646800,480
72,49,646800,120
76,38,647040,120
79,44,647040,120
79,63,647280,480
67,49,647280,120
76,44,647520,120
72,33,647520,120
79,71,647760,96
67,49,647760,120
81,58,647856,96
79,58,647952,96
74,44,648000,120
78,59,648048,96
79,59,648144,96
81,64,648240,120
69,49,648240,120
83,64,648480,120
71,44,648480,120
84,71,648720,480
72,49,648720,120
76,38,648960,120
79,44,648960,120
79,63,649200,480
67,49,649200,120
76,44,649440,120
72,33,649440,120
79,71,649680,96
67,49,649680,120
81,58,649776,96
79,58,649872,96
74,44,649920,120
78,59,649968,96
79,59,650064,96
81,64,650160,120
69,49,650160,120
83,64,650400,120
71,44,650400,120
84,71,650640,960
72,38,650640,960
76,65,650880,120
79,65,650880,120
76,72,651120,120
79,72,651120,120
76,78,651360,120
79,78,651360,120
84,83,651600,480
72,70,651600,120
79,74,651840,120
76,62,651840,120
84,76,652080,120
72,64,652080,120
84,76,652320,120
72,64,652320,120
81,84,652560,360
69,70,652560,360
72,70,652560,360
79,81,652920,120
67,69,652920,120
70,69,652920,120
77,84,653040,480
65,70,653040,480
69,70,653040,480
84,83,653520,480
72,70,653520,120
79,74,653760,120
76,62,653760,120
84,76,654000,120
72,64,654000,120
84,76,654240,120
72,64,654240,120
81,84,654480,120
69,70,654480,120
72,70,654480,120
65,69,654720,120
69,69,654720,120
77,81,654720,120
88,84,654900,60
89,84,654960,120
77,70,654960,120
81,70,655440,480
84,83,655440,480
72,70,655440,480
77,64,655920,120
81,76,655920,120
69,64,655920,120
82,64,656160,120
86,76,656160,120
74,64,656160,120
84,84,656400,120
72,70,656400,120
81,70,656400,120
69,69,656640,120
77,69,656640,120
81,81,656640,120
88,84,656820,60
89,84,656880,120
77,70,656880,120
81,70,657360,480
84,83,657360,480
72,70,657360,480
77,64,657840,120
81,76,657840,120
69,64,657840,120
82,64,658080,120
86,76,658080,120
74,64,658080,120
84,84,658320,120
72,70,658320,120
81,70,658320,120
69,69,658560,120
77,69,658560,120
81,81,658560,120
100,88,658740,60
101,88,658800,120
89,74,658800,120
81,70,659280,480
84,83,659280,480
72,70,659280,480
77,64,659760,120
81,76,659760,120
69,64,659760,120
82,64,660000,120
86,76,660000,120
74,64,660000,120
84,84,660240,120
72,70,660240,120
81,70,660240,120
69,69,660480,120
77,69,660480,120
81,81,660480,120
100,88,660660,60
101,88,660720,120
89,74,660720,120
81,70,661200,480
84,83,661200,480
72,70,661200,480
77,64,661680,120
81,76,661680,120
69,64,661680,120
82,64,661920,120
86,76,661920,120
74,64,661920,120
84,84,662160,120
72,70,662160,120
81,70,662160,120
84,61,662640,960
72,49,662640,120
77,40,662880,120
81,44,662880,120
72,53,663120,120
77,41,663360,120
81,48,663360,120
71,53,663600,120
83,68,663600,480
77,48,663840,120
74,36,663840,120
70,45,664080,120
82,63,664080,480
72,34,664320,120
79,40,664320,120
69,45,664560,120
81,57,664560,480
77,40,664800,120
72,29,664800,120
79,61,665040,120
67,51,665040,120
81,58,665280,120
69,49,665280,120
82,58,665520,120
70,49,665520,120
84,58,665760,120
72,49,665760,120
81,64,666000,480
69,56,666000,120
72,41,666240,120
77,48,666240,120
84,61,666480,960
72,49,666480,120
77,40,666720,120
81,44,666720,120
72,53,666960,120
77,41,667200,120
80,48,667200,120
71,53,667440,120
83,68,667440,480
77,48,667680,120
74,36,667680,120
70,45,667920,120
82,63,667920,480
73,34,668160,120
76,40,668160,120
69,45,668400,120
81,57,668400,480
77,40,668640,120
72,29,668640,120
79,61,668880,120
67,51,668880,120
81,58,669120,120
69,49,669120,120
82,58,669360,120
70,49,669360,120
84,58,669600,120
72,49,669600,120
81,64,669840,480
69,56,669840,120
72,41,670080,120
77,48,670080,120
84,61,670320,960
72,49,670320,120
77,40,670560,120
81,44,670560,120
72,53,670800,120
74,41,671040,120
78,48,671040,120
71,53,671280,120
83,68,671280,480
79,48,671520,120
74,36,671520,120
70,45,671760,120
82,63,671760,480
72,34,672000,120
76,40,672000,120
69,45,672240,120
81,57,672240,480
77,40,672480,120
72,29,672480,120
79,61,672720,120
67,51,672720,120
81,58,672960,120
69,49,672960,120
82,58,673200,120
70,49,673200,120
84,58,673440,120
72,49,673440,120
65,51,673680,480
77,61,673680,480
65,68,674640,480
53,49,674640,120
60,44,674880,120
57,38,674880,120
65,55,675120,120
65,55,675360,120
60,44,675360,120
57,38,675360,120
70,68,675600,480
58,49,675600,120
61,38,675840,120
65,44,675840,120
70,55,676080,480
58,49,676080,120
61,33,676320,120
65,44,676320,120
70,67,676560,480
58,49,676560,120
65,38,676800,120
61,44,676800,120
73,55,677040,120
61,49,677040,120
70,55,677280,120
58,44,677280,120
69,63,677520,480
57,49,677520,120
65,44,677760,120
60,38,677760,120
53,49,678000,120
65,55,678000,480
57,33,678240,120
60,44,678240,120
65,68,678480,480
53,49,678480,120
60,44,678720,120
57,38,678720,120
65,55,678960,120
65,55,679200,120
60,44,679200,120
57,38,679200,120
70,68,679440,480
58,49,679440,120
61,38,679680,120
65,44,679680,120
70,55,679920,480
58,49,679920,120
61,33,680160,120
65,44,680160,120
70,67,680400,480
58,49,680400,120
65,38,680640,120
61,44,680640,120
73,55,680880,120
61,49,680880,120
70,55,681120,120
58,44,681120,120
69,63,681360,960
57,49,681360,120
64,44,681600,120
61,38,681600,120
57,49,681840,120
61,33,682080,120
64,44,682080,120
69,68,682320,480
57,49,682320,120
64,44,682560,120
61,38,682560,120
69,55,682800,120
69,55,683040,120
64,44,683040,120
61,38,683040,120
74,68,683280,480
62,49,683280,120
65,38,683520,120
69,44,683520,120
74,55,683760,480
62,49,683760,120
65,33,684000,120
69,44,684000,120
74,67,684240,480
62,49,684240,120
69,38,684480,120
65,44,684480,120
77,55,684720,120
65,49,684720,120
74,55,684960,120
62,44,684960,120
73,63,685200,960
61,49,685200,120
68,44,685440,120
65,38,685440,120
61,49,685680,120
65,33,685920,120
68,44,685920,120
73,70,686160,480
61,49,686160,120
68,44,686400,120
65,38,686400,120
73,57,686640,120
73,57,686880,120
68,44,686880,120
65,38,686880,120
78,70,687120,480
66,49,687120,120
69,38,687360,120
73,44,687360,120
78,57,687600,480
66,49,687600,120
69,33,687840,120
73,44,687840,120
78,69,688080,480
66,49,688080,120
73,38,688320,120
69,44,688320,120
81,57,688560,120
69,49,688560,120
78,57,688800,120
66,44,688800,120
77,65,689040,480
65,49,689040,120
72,44,689280,120
69,38,689280,120
77,57,689520,480
65,49,689520,120
69,33,689760,120
72,44,689760,120
82,75,690000,480
70,53,690000,120
77,40,690240,120
73,48,690240,120
85,61,690480,120
73,53,690480,120
82,61,690720,120
70,48,690720,120
81,71,690960,480
69,53,690960,120
76,48,691200,120
73,40,691200,120
81,69,691440,480
69,53,691440,120
73,35,691680,120
76,48,691680,120
86,86,691920,480
74,62,691920,120
81,44,692160,120
77,52,692160,120
89,69,692400,120
77,59,692400,120
86,69,692640,120
74,52,692640,120
85,79,692880,480
73,59,692880,120
80,52,693120,120
77,44,693120,120
85,77,693360,480
73,59,693360,120
77,39,693600,120
80,52,693600,120
90,86,693840,480
78,62,693840,120
85,44,694080,120
81,52,694080,120
93,69,694320,120
81,59,694320,120
90,69,694560,120
78,52,694560,120
89,79,694800,480
77,59,694800,120
85,52,695040,120
80,44,695040,120
85,77,695280,480
73,59,695280,120
77,39,695520,120
80,52,695520,120
90,86,695760,480
78,62,695760,120
85,44,696000,120
81,52,696000,120
93,69,696240,120
81,59,696240,120
90,69,696480,120
78,52,696480,120
89,79,696720,480
77,59,696720,240
85,52,696960,240
80,44,696960,240
92,77,697200,480
80,59,697200,240
85,39,697440,240
89,52,697440,240
93,79,697680,480
81,59,697680,240
87,52,697920,240
84,44,697920,240
90,77,698160,480
78,59,698160,240
81,39,698400,240
84,52,698400,240
89,80,698640,480
77,60,698640,240
85,52,698880,240
80,44,698880,240
92,79,699120,480
80,60,699120,240
85,40,699360,240
89,54,699360,240
95,81,699600,480
83,62,699600,240
89,54,699840,240
86,46,699840,240
92,80,700080,480
80,62,700080,240
83,40,700320,240
89,55,700320,240
91,82,700560,480
79,62,700560,240
87,55,700800,240
82,47,700800,240
94,81,701040,480
82,63,701040,240
87,41,701280,240
91,56,701280,240
95,83,701520,480
83,63,701520,240
89,56,701760,240
86,47,701760,240
92,82,702000,480
80,64,702000,240
83,41,702240,240
89,56,702240,240
91,86,702480,480
79,64,702480,240
87,57,702720,240
82,48,702720,240
94,83,702960,480
82,65,702960,240
87,42,703200,240
91,57,703200,240
97,86,703440,480
85,65,703440,240
91,58,703680,240
88,49,703680,240
94,85,703920,480
82,65,703920,240
85,43,704160,240
91,58,704160,240
93,88,704400,480
81,66,704400,240
89,58,704640,240
84,49,704640,240
96,86,704880,480
84,66,704880,240
89,43,705120,240
93,58,705120,240
97,89,705360,480
85,67,705360,240
91,59,705600,240
88,50,705600,240
94,88,705840,480
82,67,705840,240
85,44,706080,240
91,59,706080,240
93,90,706320,480
81,67,706320,240
89,60,706560,240
84,51,706560,240
96,88,706800,480
84,69,706800,240
89,44,707040,240
93,60,707040,240
97,92,707280,480
85,69,707280,240
91,60,707520,240
88,51,707520,240
94,90,707760,480
82,70,707760,240
85,46,708000,240
91,62,708000,240
93,94,708240,480
81,70,708240,240
89,62,708480,240
84,52,708480,240
96,92,708720,480
84,71,708720,240
89,46,708960,240
93,63,708960,240
99,101,709200,960
87,101,709200,960
67,76,710160,960
79,83,710160,960
69,83,711120,60
82,55,711180,60
69,63,711240,60
82,46,711300,60
69,64,711360,60
82,46,711420,60
69,61,711480,60
82,46,711540,60
69,59,711600,60
82,45,711660,60
69,58,711720,60
82,48,711780,60
69,59,711840,60
82,46,711900,60
69,64,711960,60
82,50,712020,60
69,65,712080,60
82,52,712140,60
69,65,712200,60
82,52,712260,60
69,65,712320,60
82,51,712380,60
69,73,712440,120
79,74,712560,60
67,74,712560,60
81,74,712680,60
69,74,712680,60
82,88,712800,480
70,63,712800,120
77,57,713040,120
74,49,713040,120
82,71,713280,120
70,63,713280,120
82,71,713520,120
77,57,713520,120
74,49,713520,120
86,88,713760,120
74,63,713760,120
82,71,714000,120
77,57,714000,120
82,71,714240,480
70,63,714240,120
74,42,714480,120
77,57,714480,120
77,87,714720,480
65,63,714720,120
70,49,714960,120
74,57,714960,120
77,71,715200,120
65,63,715200,120
77,71,715440,120
74,57,715440,120
70,49,715440,120
82,85,715680,120
70,63,715680,120
77,71,715920,120
74,57,715920,120
77,71,716160,480
65,63,716160,120
70,42,716400,120
74,57,716400,120
74,91,716640,480
62,66,716640,120
65,50,716880,120
70,59,716880,120
74,73,717120,120
62,72,717120,120
75,73,717360,120
63,64,717360,120
79,89,717600,480
67,66,717600,120
70,44,717840,120
74,59,717840,120
77,74,718080,480
65,66,718080,120
70,44,718320,120
74,59,718320,120
77,91,718560,480
65,66,718560,120
69,50,718800,120
72,59,718800,120
79,73,719040,120
67,72,719040,120
81,73,719280,120
69,64,719280,120
82,89,719520,480
70,66,719520,120
74,44,719760,120
77,59,719760,120
70,63,720000,120
74,39,720240,120
77,53,720240,120
94,63,720480,480
82,44,720480,120
89,39,720720,120
86,34,720720,120
94,49,720960,120
82,44,720960,120
94,49,721200,120
89,39,721200,120
86,34,721200,120
98,63,721440,120
86,44,721440,120
94,51,721680,120
89,39,721680,120
94,51,721920,480
82,44,721920,120
86,29,722160,120
89,39,722160,120
89,63,722400,480
77,44,722400,120
82,34,722640,120
86,39,722640,120
89,49,722880,120
77,44,722880,120
89,49,723120,120
86,39,723120,120
82,34,723120,120
94,62,723360,120
82,44,723360,120
89,51,723600,120
86,39,723600,120
89,51,723840,480
77,44,723840,120
82,29,724080,120
86,39,724080,120
86,63,724320,480
74,45,724320,120
82,39,724560,120
77,35,724560,120
86,46,724800,120
74,45,724800,120
87,46,725040,120
75,41,725040,120
91,62,725280,480
79,45,725280,120
82,30,725520,120
86,41,725520,120
89,51,725760,480
77,45,725760,120
82,30,726000,120
86,41,726000,120
89,63,726240,480
77,45,726240,120
81,35,726480,120
84,41,726480,120
91,46,726720,120
79,45,726720,120
93,46,726960,120
81,41,726960,120
94,62,727200,120
82,45,727200,120
70,30,727440,120
74,41,727440,120
74,30,727680,120
77,45,727680,120
77,30,727920,120
82,41,727920,120
86,88,728160,480
74,69,728160,480
77,69,728160,480
82,78,728640,120
70,69,728640,120
77,78,728880,120
65,53,728880,120
87,88,729120,480
75,69,729120,480
81,69,729120,480
81,71,729600,480
69,63,729600,480
86,88,730080,480
74,69,730080,480
77,69,730080,480
82,78,730560,120
70,69,730560,120
77,78,730800,120
65,53,730800,120
87,88,731040,480
75,69,731040,480
81,69,731040,480
81,71,731520,480
69,63,731520,480
86,88,732000,480
74,69,732000,480
77,69,732000,480
82,78,732480,120
70,69,732480,120
77,78,732720,120
65,53,732720,120
87,88,732960,480
75,69,732960,480
81,69,732960,480
81,71,733440,480
69,63,733440,480
86,88,733920,480
74,69,733920,480
77,69,733920,480
82,78,734400,120
70,69,734400,120
77,78,734640,120
65,53,734640,120
87,88,734880,480
75,69,734880,480
81,69,734880,480
63,40,735360,240
51,28,735360,240
57,28,735360,240
63,51,735600,480
51,43,735600,480
57,43,735600,480
63,41,736080,480
51,34,736080,480
58,34,736080,480
63,42,736560,480
51,35,736560,480
59,35,736560,480
63,44,737040,480
51,37,737040,480
60,37,737040,480
66,52,737520,480
54,44,737520,480
60,44,737520,480
66,41,738000,480
54,34,738000,480
61,34,738000,480
66,42,738480,480
54,35,738480,480
62,35,738480,480
66,43,738960,480
63,36,738960,480
54,36,738960,480
69,52,739440,480
57,44,739440,480
63,44,739440,480
69,40,739920,480
57,34,739920,480
64,34,739920,480
69,41,740400,480
57,34,740400,480
65,34,740400,480
69,43,740880,480
57,36,740880,480
66,36,740880,480
72,52,741360,480
66,52,741360,480
60,44,741360,480
72,41,741840,480
67,41,741840,480
60,34,741840,480
72,43,742320,240
60,36,742320,240
68,36,742320,240
72,51,742560,320
60,44,742560,320
69,43,742560,320
75,48,742880,160
63,40,742880,160
69,40,742880,160
75,47,743200,160
63,39,743200,160
70,39,743200,160
75,56,743520,160
63,47,743520,160
71,47,743520,160
78,51,743840,160
66,42,743840,160
72,42,743840,160
78,51,744160,160
66,42,744160,160
73,42,744160,160
78,60,744480,160
66,50,744480,160
74,50,744480,160
81,56,744800,160
69,47,744800,160
75,47,744800,160
81,56,745120,160
69,47,745120,160
76,47,745120,160
81,66,745440,160
69,56,745440,160
77,56,745440,160
84,60,745760,160
72,50,745760,160
78,50,745760,160
84,60,746080,160
72,50,746080,160
79,50,746080,160
84,70,746400,180
72,59,746400,180
80,59,746400,180
87,63,746640,180
81,53,746640,180
75,53,746640,180
87,63,746880,180
82,53,746880,180
75,53,746880,180
87,63,747120,180
83,53,747120,180
75,53,747120,180
87,73,747360,180
75,61,747360,180
84,61,747360,180
90,64,747600,180
78,55,747600,180
84,55,747600,180
90,64,747840,180
78,55,747840,180
85,55,747840,180
90,64,748080,180
78,55,748080,180
86,55,748080,180
90,77,748320,180
78,64,748320,180
87,64,748320,180
93,69,748560,180
81,58,748560,180
87,58,748560,180
93,69,748800,180
81,58,748800,180
88,58,748800,180
93,69,749040,180
81,58,749040,180
89,58,749040,180
81,68,749280,180
90,68,749280,180
93,68,749280,180
96,71,749520,180
84,60,749520,180
90,60,749520,180
96,71,749760,180
84,60,749760,180
91,60,749760,180
96,71,750000,180
84,60,750000,180
92,60,750000,180
96,81,750240,180
84,68,750240,180
93,68,750240,180
99,80,750480,180
93,68,750480,180
87,68,750480,180
99,84,750720,180
94,71,750720,180
87,71,750720,180
95,89,750960,180
99,89,750960,180
87,74,750960,180
99,92,751200,180
96,78,751200,180
87,78,751200,180
99,81,751440,180
96,68,751440,180
87,68,751440,180
99,81,751680,180
95,68,751680,180
87,68,751680,180
99,81,751920,180
94,68,751920,180
87,68,751920,180
99,92,752160,180
93,78,752160,180
87,78,752160,180
99,81,752400,180
93,68,752400,180
87,68,752400,180
99,84,752640,180
94,71,752640,180
87,71,752640,180
95,89,752880,180
99,89,752880,180
87,74,752880,180
99,93,753120,180
96,79,753120,180
87,79,753120,180
99,81,753360,180
96,68,753360,180
87,68,753360,180
99,81,753600,180
95,68,753600,180
87,68,753600,180
99,81,753840,180
94,68,753840,180
87,68,753840,180
93,93,754080,480
87,79,754080,480
93,82,754560,480
87,69,754560,480
94,83,755040,480
87,70,755040,480
95,85,755520,480
87,72,755520,480
96,93,756000,480
87,79,756000,480
96,93,756960,480
87,79,756960,480
103,59,757920,120
101,60,758040,120
99,61,758160,120
96,62,758280,120
93,62,758400,120
89,63,758520,120
87,64,758640,120
84,65,758760,120
81,66,758880,120
77,67,759000,120
75,68,759120,120
72,69,759240,120
69,70,759360,120
65,71,759480,120
63,72,759600,120
60,72,759720,120
60,68,761160,120
63,67,761280,120
65,66,761400,120
69,65,761520,120
72,64,761640,120
75,63,761760,120
77,62,761880,120
81,61,762000,120
84,60,762120,120
87,59,762240,120
89,58,762360,120
93,62,762480,120
96,65,762600,120
99,73,762720,120
103,86,762840,120
99,89,763200,120
87,75,763200,120
84,88,763320,120
93,87,763440,120
81,73,763440,120
78,86,763560,120
89,85,763680,120
77,72,763680,120
76,85,763800,120
87,84,763920,120
75,71,763920,120
72,83,764040,120
81,82,764160,120
69,69,764160,120
66,81,764280,120
77,80,764400,120
65,68,764400,120
64,79,764520,120
75,78,764640,120
63,66,764640,120
60,77,764760,120
69,76,766275,285
75,79,766290,270
81,83,766305,255
87,87,766320,240
70,77,766755,285
75,81,766770,270
82,86,766785,255
87,91,766800,240
71,74,767235,285
75,78,767250,270
83,82,767265,255
87,87,767280,240
72,79,767715,285
75,83,767730,270
84,88,767745,255
87,93,767760,240
86,72,768880,160
74,61,768880,160
87,76,769040,160
75,64,769040,160
88,80,769200,160
76,68,769200,160
89,85,769360,160
77,72,769360,160
90,89,769520,160
78,75,769520,160
93,93,769680,160
81,79,769680,160
91,87,769840,160
79,73,769840,160
86,83,770000,160
74,70,770000,160
89,94,770160,160
77,79,770160,160
87,85,770320,160
75,72,770320,160
84,85,770480,160
72,72,770480,160
82,96,770640,480
70,69,770640,120
77,62,770880,120
74,53,770880,120
82,78,771120,120
70,69,771120,120
82,78,771360,120
77,62,771360,120
74,53,771360,120
86,96,771600,120
74,69,771600,120
82,78,771840,120
77,62,771840,120
82,78,772080,480
70,69,772080,120
74,46,772320,120
77,62,772320,120
77,95,772560,480
65,69,772560,120
70,53,772800,120
74,62,772800,120
77,78,773040,120
65,69,773040,120
77,78,773280,120
74,62,773280,120
70,53,773280,120
82,93,773520,120
70,69,773520,120
77,78,773760,120
74,62,773760,120
77,78,774000,480
65,69,774000,120
70,46,774240,120
74,62,774240,120
74,100,774480,480
62,72,774480,120
65,55,774720,120
70,64,774720,120
74,73,774960,120
62,72,774960,120
75,73,775200,120
63,64,775200,120
79,97,775440,180
67,72,775440,120
65,48,775680,120
77,74,775680,120
77,81,775920,120
65,72,775920,120
74,48,776160,120
70,48,776160,120
77,77,776160,120
77,100,776400,480
65,72,776400,120
69,55,776640,120
72,64,776640,120
79,73,776880,120
67,72,776880,120
81,73,777120,120
69,64,777120,120
82,97,777360,480
70,72,777360,120
74,48,777600,120
77,64,777600,120
70,69,777840,120
74,42,778080,120
77,58,778080,120
94,96,778320,480
82,69,778320,120
89,62,778560,120
86,53,778560,120
94,78,778800,120
82,69,778800,120
94,78,779040,120
89,62,779040,120
86,53,779040,120
98,96,779280,120
86,69,779280,120
94,78,779520,120
89,62,779520,120
94,78,779760,480
82,69,779760,120
86,46,780000,120
89,62,780000,120
89,95,780240,480
77,69,780240,120
82,53,780480,120
86,62,780480,120
89,78,780720,120
77,69,780720,120
89,78,780960,120
86,62,780960,120
82,53,780960,120
94,93,781200,120
82,69,781200,120
89,78,781440,120
86,62,781440,120
89,78,781680,480
77,69,781680,120
82,46,781920,120
86,62,781920,120
86,100,782160,480
74,72,782160,120
77,55,782400,120
82,64,782400,120
86,73,782640,120
74,72,782640,120
87,73,782880,120
75,64,782880,120
91,97,783120,180
79,72,783120,120
77,48,783360,120
89,73,783360,120
89,81,783600,120
77,72,783600,120
86,48,783840,120
82,48,783840,120
89,77,783840,120
89,100,784080,480
77,72,784080,120
81,55,784320,120
84,64,784320,120
91,73,784560,120
79,72,784560,120
93,73,784800,120
81,64,784800,120
94,97,785040,480
82,72,785040,480
86,97,785520,960
74,76,785520,960
77,82,785520,960
82,89,786480,120
70,75,786480,120
77,81,786720,120
65,69,786720,120
87,89,786960,120
84,75,786960,120
75,75,786960,120
87,81,787200,120
84,69,787200,120
75,69,787200,120
86,81,787680,120
77,69,787680,120
74,69,787680,120
86,89,787920,120
74,75,787920,120
77,75,787920,120
84,82,788160,120
72,70,788160,120
75,70,788160,120
82,82,788400,120
70,70,788400,120
74,70,788400,120
81,82,788640,120
69,70,788640,120
72,70,788640,120
82,91,788880,480
70,67,788880,480
86,97,789360,960
74,76,789360,960
77,81,789360,960
82,89,790320,120
70,75,790320,120
77,81,790560,120
65,69,790560,120
87,89,790800,120
84,75,790800,120
75,75,790800,120
87,81,791040,120
84,69,791040,120
75,69,791040,120
86,81,791520,120
77,69,791520,120
74,69,791520,120
86,89,791760,120
74,75,791760,120
77,75,791760,120
84,82,792000,120
72,70,792000,120
75,70,792000,120
82,82,792240,120
70,70,792240,120
74,70,792240,120
81,82,792480,120
69,70,792480,120
72,70,792480,120
82,89,792720,120
70,75,792720,120
74,75,792720,120
77,82,792960,120
74,70,792960,120
82,82,793200,120
70,70,793200,120
74,70,793200,120
86,82,793440,120
74,70,793440,120
77,70,793440,120
86,89,793680,120
74,75,793680,120
77,75,793680,120
84,82,793920,120
72,70,793920,120
75,70,793920,120
82,82,794160,120
70,70,794160,120
74,70,794160,120
81,82,794400,120
69,70,794400,120
72,70,794400,120
82,89,794640,120
70,75,794640,120
74,75,794640,120
77,82,794880,120
74,70,794880,120
82,82,795120,120
70,70,795120,120
74,70,795120,120
86,82,795360,120
74,70,795360,120
77,70,795360,120
86,89,795600,120
74,75,795600,120
77,75,795600,120
84,82,795840,120
72,70,795840,120
75,70,795840,120
82,82,796080,120
70,70,796080,120
74,70,796080,120
81,82,796320,120
69,70,796320,120
72,70,796320,120
86,92,796560,720
74,79,796560,720
77,75,796560,720
82,86,797280,240
70,74,797280,240
87,93,797520,720
75,75,797520,720
81,79,797520,720
75,70,798240,240
84,82,798240,240
72,70,798240,240
82,89,798480,180
70,75,798480,180
74,75,798480,180
77,70,798720,60
89,82,798720,60
86,70,798720,60
94,82,798960,60
82,70,798960,60
86,70,798960,60
98,82,799200,60
86,70,799200,60
89,70,799200,60
98,89,799440,60
86,75,799440,60
89,75,799440,60
96,82,799680,60
84,70,799680,60
87,70,799680,60
94,82,799920,60
82,70,799920,60
86,70,799920,60
93,82,800160,60
81,70,800160,60
84,70,800160,60
94,89,800400,120
82,75,800400,120
86,75,800400,120
70,48,801360,480
58,40,801360,480
62,40,801360,480
65,40,801360,480
70,45,801840,120
58,37,801840,120
62,37,801840,120
65,37,801840,120
70,44,802080,120
58,37,802080,120
62,37,802080,120
65,37,802080,120
75,48,802320,480
63,40,802320,480
66,40,802320,480
70,40,802320,480
75,45,802800,480
63,38,802800,480
66,38,802800,480
70,38,802800,480
75,51,803280,480
63,42,803280,480
66,42,803280,480
70,42,803280,480
78,49,803760,120
66,41,803760,120
70,41,803760,120
75,44,804000,120
63,37,804000,120
66,37,804000,120
74,49,804240,480
62,40,804240,480
65,40,804240,480
70,46,804720,480
58,38,804720,480
62,38,804720,480
82,55,805200,480
70,45,805200,480
74,45,805200,480
77,45,805200,480
82,52,805680,120
70,42,805680,120
74,42,805680,120
77,42,805680,120
82,51,805920,120
70,42,805920,120
74,42,805920,120
77,42,805920,120
87,56,806160,480
75,46,806160,480
78,46,806160,480
82,46,806160,480
87,51,806640,480
75,42,806640,480
78,42,806640,480
82,42,806640,480
87,59,807120,480
75,49,807120,480
78,49,807120,480
82,49,807120,480
90,57,807600,120
78,47,807600,120
82,47,807600,120
87,50,807840,120
75,41,807840,120
78,41,807840,120
86,56,808080,480
74,46,808080,480
77,46,808080,480
77,58,808560,480
89,58,808560,480
82,58,808560,480
86,58,808560,480
90,66,809040,480
78,56,809040,480
82,56,809040,480
87,56,809040,480
87,57,809520,480
75,48,809520,480
78,48,809520,480
82,48,809520,480
86,62,810000,480
82,52,810000,480
77,52,810000,480
74,52,810000,480
89,60,810480,480
86,50,810480,480
82,50,810480,480
77,50,810480,480
90,64,810960,480
87,55,810960,480
82,55,810960,480
78,55,810960,480
87,58,811440,480
82,49,811440,480
78,49,811440,480
75,49,811440,480
86,64,811920,480
82,55,811920,480
77,55,811920,480
74,55,811920,480
94,78,812400,480
89,66,812400,480
86,66,812400,480
82,66,812400,480
94,82,812880,420
82,69,812880,420
87,69,812880,420
90,69,812880,420
78,66,813300,480
87,66,813330,450
94,78,813360,420
77,73,813780,540
86,73,813810,510
94,86,813840,480
94,78,814320,480
82,66,814320,480
86,66,814320,480
89,66,814320,480
94,86,814800,420
90,73,814800,420
87,73,814800,420
82,73,814800,420
78,67,815220,480
87,67,815250,450
94,79,815280,420
77,73,815700,300
86,73,815730,270
94,86,815760,240
53,71,816000,104
55,73,816060,104
57,75,816120,104
58,79,816180,60
71,81,816240,240
59,81,816240,104
57,75,816300,104
56,74,816360,104
54,72,816420,104
52,71,816480,104
51,69,816540,104
49,68,816600,104
47,67,816660,60
48,62,816720,87
49,64,816780,87
51,67,816840,87
52,69,816900,87
54,71,816960,87
56,73,817020,87
58,75,817080,87
60,78,817140,60
73,84,817200,240
61,84,817200,87
59,78,817260,87
57,75,817320,87
55,73,817380,87
54,71,817440,87
52,69,817500,87
50,66,817560,87
49,63,817620,60
50,62,817680,72
52,66,817740,72
54,68,817800,72
55,71,817860,72
57,74,817920,72
59,77,817980,72
61,79,818040,72
62,82,818100,60
75,84,818160,240
63,84,818160,72
62,78,818220,72
60,75,818280,72
58,73,818340,72
57,71,818400,72
55,69,818463,72
53,66,818520,72
51,63,818580,60
50,60,818640,72
51,60,818700,72
53,61,818760,72
55,62,818820,72
57,63,818880,58
58,64,818928,58
60,64,818976,58
62,66,819024,58
63,67,819072,58
65,68,819120,58
67,68,819168,58
69,69,819216,58
70,70,819264,58
72,71,819312,58
74,71,819360,58
75,72,819408,58
77,73,819456,58
79,73,819504,58
81,74,819552,48
82,84,819600,240
70,62,819600,60
72,64,819660,60
74,67,819720,60
75,69,819780,60
77,71,819840,60
79,73,819900,60
81,75,819960,60
82,78,820020,60
95,84,820080,240
83,84,820080,60
81,78,820140,60
80,75,820200,60
78,73,820260,60
76,71,820320,60
75,69,820380,60
73,66,820440,60
71,63,820500,60
72,62,820560,60
73,64,820620,60
75,67,820680,60
76,69,820740,60
78,71,820800,60
80,73,820860,60
82,75,820920,60
84,78,820980,60
97,84,821040,240
85,84,821040,60
83,78,821100,60
81,75,821160,60
79,73,821220,60
78,71,821280,60
76,69,821340,60
74,66,821400,60
73,63,821460,60
74,62,821520,60
76,64,821580,60
78,67,821640,60
79,69,821700,60
81,71,821760,60
83,73,821820,60
85,75,821880,60
86,78,821940,60
99,84,822000,240
87,84,822000,60
86,78,822060,60
84,75,822120,60
82,73,822180,60
81,71,822240,60
79,69,822300,60
77,66,822360,60
75,63,822420,60
74,60,822480,60
75,60,822540,60
77,61,822600,60
79,62,822660,60
81,63,822720,48
82,64,822768,48
84,64,822816,48
86,66,822864,48
87,67,822912,48
89,70,822960,60
91,72,823020,60
93,73,823080,60
94,75,823140,60
96,77,823200,60
98,79,823260,60
99,80,823320,60
100,82,823380,60
101,85,823440,80
89,72,823440,80
98,72,823440,80
94,75,823520,80
89,75,823600,70
89,80,823680,80
86,68,823680,80
82,73,823760,80
77,73,823840,80
89,72,823920,80
86,61,823920,80
82,63,824000,80
77,63,824080,70
77,68,824160,80
74,57,824160,80
70,61,824240,80
65,61,824320,80
75,82,824400,80
77,82,824400,80
65,69,824400,80
69,69,824400,80
63,64,824560,80
65,64,824560,80
53,55,824560,80
57,55,824560,80
63,64,824720,80
65,64,824720,80
53,55,824720,80
57,55,824720,80
63,67,824880,80
65,67,824880,80
53,56,824880,80
58,56,824880,80
63,73,825040,80
65,73,825040,80
53,61,825040,80
59,61,825040,80
63,79,825200,80
65,79,825200,80
53,67,825200,80
60,67,825200,80
101,85,825360,80
89,72,825360,80
98,72,825360,80
94,75,825440,80
89,75,825520,70
89,80,825600,80
86,68,825600,80
82,73,825680,80
77,73,825760,80
89,72,825840,80
86,61,825840,80
82,63,825920,80
77,63,826000,70
77,68,826080,80
74,57,826080,80
70,61,826160,80
65,61,826240,80
75,82,826320,80
77,82,826320,80
65,69,826320,80
69,69,826320,80
63,64,826480,80
65,64,826480,80
53,55,826480,80
57,55,826480,80
63,64,826640,80
65,64,826640,80
53,55,826640,80
57,55,826640,80
63,67,826800,80
65,67,826800,80
53,56,826800,80
58,56,826800,80
63,73,826960,80
65,73,826960,80
53,61,826960,80
59,61,826960,80
63,79,827120,80
65,79,827120,80
53,67,827120,80
60,67,827120,80
63,82,827280,80
65,82,827280,80
57,69,827280,80
75,70,827440,80
77,70,827440,80
65,59,827440,80
69,59,827440,80
75,70,827600,80
77,70,827600,80
65,59,827600,80
69,59,827600,80
75,73,827760,80
77,73,827760,80
65,61,827760,80
70,61,827760,80
75,80,827920,80
77,80,827920,80
65,68,827920,80
71,68,827920,80
75,86,828080,80
77,86,828080,80
65,73,828080,80
72,73,828080,80
75,82,828240,80
77,82,828240,80
65,69,828240,80
69,69,828240,80
87,77,828400,80
89,77,828400,80
77,64,828400,80
81,64,828400,80
87,77,828560,80
89,77,828560,80
77,64,828560,80
81,64,828560,80
87,80,828720,80
89,80,828720,80
77,67,828720,80
82,67,828720,80
87,88,828880,80
89,88,828880,80
77,74,828880,80
83,74,828880,80
87,94,829040,80
89,94,829040,80
77,80,829040,80
84,80,829040,80
87,90,829200,80
89,90,829200,80
77,75,829200,80
81,75,829200,80
99,84,829360,80
101,84,829360,80
89,70,829360,80
93,70,829360,80
99,84,829520,80
101,84,829520,80
89,70,829520,80
93,70,829520,80
99,88,829680,80
101,88,829680,80
89,73,829680,80
94,73,829680,80
99,96,829840,80
101,96,829840,80
89,81,829840,80
95,81,829840,80
99,103,830000,80
101,103,830000,80
89,88,830000,80
96,88,830000,80
99,90,830160,80
101,90,830160,80
89,75,830160,80
93,75,830160,80
77,70,830320,80
89,84,830320,80
78,70,830480,80
90,84,830480,80
91,88,830640,80
79,73,830640,80
80,81,830800,80
92,96,830800,80
81,88,830960,80
93,103,830960,80
86,96,831120,240
82,96,831120,240
94,113,831120,240
82,92,831360,60
70,78,831360,60
82,91,831480,60
70,77,831480,60
86,97,831600,60
74,82,831600,60
82,92,831720,60
70,78,831720,60
82,92,831840,120
70,78,831840,120
77,97,832080,60
65,82,832080,60
74,92,832200,60
62,78,832200,60
74,92,832320,120
62,78,832320,120
70,97,832560,60
58,82,832560,60
65,92,832680,60
53,78,832680,60
65,92,832800,120
53,78,832800,120
94,96,833040,240
86,96,833040,240
98,113,833040,240
86,92,833280,60
74,78,833280,60
86,91,833400,60
74,77,833400,60
89,97,833520,60
77,82,833520,60
86,92,833640,60
74,78,833640,60
86,92,833760,120
74,78,833760,120
82,97,834000,60
70,82,834000,60
77,92,834120,60
65,78,834120,60
77,92,834240,120
65,78,834240,120
74,97,834480,60
62,82,834480,60
70,92,834600,60
58,78,834600,60
70,92,834720,120
58,78,834720,120
98,96,834960,240
94,96,834960,240
89,96,834960,240
101,113,834960,240
89,92,835200,60
77,78,835200,60
89,91,835320,60
77,77,835320,60
94,97,835440,60
82,82,835440,60
89,92,835560,60
77,78,835560,60
89,92,835680,120
77,78,835680,120
86,97,835920,60
74,82,835920,60
82,92,836040,60
70,78,836040,60
82,92,836160,120
70,78,836160,120
77,102,836400,60
65,85,836400,60
74,96,836520,60
62,81,836520,60
74,96,836640,120
62,81,836640,120
70,97,836880,160
58,82,836880,160
65,89,837040,120
53,74,837040,120
82,97,837200,160
70,82,837200,160
77,84,837360,120
65,71,837360,120
94,97,837520,160
82,82,837520,160
89,85,837680,120
77,72,837680,120
82,97,837840,160
70,82,837840,160
77,88,838000,120
65,74,838000,120
70,97,838160,160
58,82,838160,160
65,89,838320,120
53,74,838320,120
82,97,838480,160
70,82,838480,160
77,89,838640,120
65,74,838640,120
94,97,838800,160
82,82,838800,160
89,90,838960,80
77,75,838960,80
82,97,839120,160
70,82,839120,160
77,89,839280,80
65,74,839280,80
70,97,839440,160
58,82,839440,160
65,89,839600,80
53,74,839600,80
70,97,841200,480
65,82,841200,480
68,82,841200,480
70,103,841680,720
66,86,841680,960
70,100,842400,240
70,105,842640,480
70,102,843120,480
65,91,843120,480
70,106,843600,720
63,96,843600,1440
70,92,844320,240
70,99,844560,480
70,96,845040,480
62,81,845040,480
70,103,845520,480
63,86,845520,480
63,86,846000,480
70,92,846000,480
62,86,846480,480
65,86,846480,480
70,99,846480,480
63,81,846960,480
70,96,846960,480
66,81,846960,480
70,57,847440,72
65,47,847440,72
58,47,847440,72
62,47,847440,72
70,49,847520,72
58,40,847520,72
62,40,847520,72
65,40,847520,72
70,49,847600,72
58,40,847600,72
62,40,847600,72
65,40,847600,72
70,51,847680,36
65,41,847680,36
58,41,847680,36
62,41,847680,36
70,52,847760,36
58,43,847760,36
62,43,847760,36
65,43,847760,36
70,53,847840,36
58,43,847840,36
62,43,847840,36
65,43,847840,36
70,53,847920,36
65,45,847920,36
58,45,847920,36
62,45,847920,36
70,55,848000,36
58,46,848000,36
62,46,848000,36
65,46,848000,36
70,55,848080,36
58,48,848080,36
62,48,848080,36
65,48,848080,36
70,58,848160,36
65,48,848160,36
58,48,848160,36
62,48,848160,36
70,59,848240,36
58,50,848240,36
62,50,848240,36
65,50,848240,36
70,60,848320,36
58,50,848320,36
62,50,848320,36
65,50,848320,36
70,81,848400,80
58,68,848400,80
62,68,848400,80
65,68,848400,80
74,78,848480,80
62,66,848480,80
77,81,848560,80
65,68,848560,80
82,85,848640,80
70,72,848640,80
86,89,848720,80
74,74,848720,80
89,92,848800,80
77,78,848800,80
94,97,848880,80
82,81,848880,80
89,94,848960,80
77,80,848960,80
86,91,849040,80
74,77,849040,80
82,89,849120,80
70,74,849120,80
77,86,849200,80
65,73,849200,80
74,82,849280,80
62,69,849280,80
70,88,849360,120
58,69,849360,120
62,69,849360,120
65,73,849360,120
72,86,849600,120
60,72,849600,120
65,72,849600,120
69,72,849600,120
74,89,849840,120
62,75,849840,120
65,75,849840,120
70,75,849840,120
77,92,850080,120
65,78,850080,120
69,78,850080,120
72,78,850080,120
82,94,850320,120
70,80,850320,120
74,80,850320,120
77,80,850320,120
84,99,850560,120
81,84,850560,120
77,84,850560,120
72,84,850560,120
86,102,850800,120
82,85,850800,120
77,85,850800,120
74,85,850800,120
89,104,851040,120
84,88,851040,120
81,88,851040,120
77,88,851040,120
86,108,851280,240
82,91,851280,240
77,91,851280,240
74,91,851280,240
94,115,851760,240
89,97,851760,240
86,97,851760,240
82,97,851760,240
58,114,852240,240
50,96,852240,240
53,96,852240,240
38,46,1350,480
45,51,1380,450
50,55,1410,420
53,63,1440,390
40,44,1830,1050
45,48,1860,1020
49,53,1890,990
55,48,1920,960
50,59,2880,480
53,59,2880,480
41,50,2880,480
45,50,2880,480
52,60,3360,480
40,51,3360,480
45,51,3360,480
48,51,3360,480
51,59,3840,480
39,40,3840,480
45,45,3840,480
48,54,3840,480
51,56,4320,480
39,47,4320,480
48,47,4320,480
51,53,4800,480
39,39,4800,480
48,44,4800,480
51,62,5280,480
39,45,5280,480
48,44,5280,480
48,69,5760,960
45,58,5760,960
47,61,6720,960
44,51,6720,960
33,64,7680,960
40,56,7710,930
45,59,7740,900
49,64,7770,870
50,72,9480,120
43,60,9480,120
35,50,9480,120
52,79,9600,240
43,66,9600,240
36,55,9600,240
51,71,10080,240
43,59,10080,240
36,50,10080,240
47,73,10800,240
50,73,10800,240
38,53,10800,240
49,79,11040,240
46,66,11040,240
40,55,11040,240
49,74,11520,240
46,63,11520,240
40,54,11520,240
48,33,12480,480
39,27,12480,480
50,41,12960,480
47,32,12960,480
38,30,12960,480
52,54,13440,480
46,44,13440,480
37,39,13440,480
43,56,13920,480
45,56,13920,480
45,61,14400,960
42,51,14400,960
31,77,15360,960
38,56,15390,930
43,59,15420,900
47,64,15450,870
44,77,16800,240
35,69,16800,240
41,69,16800,240
62,74,17460,960
50,66,17460,960
53,66,17460,960
56,66,17460,960
44,74,18120,240
35,66,18120,240
41,66,18120,240
50,74,18780,480
53,74,18780,480
56,74,18780,480
62,74,18780,480
35,70,19440,240
41,75,19440,240
44,81,19440,240
43,81,22080,240
37,72,22080,240
40,72,22080,240
57,78,22740,960
49,69,22740,960
52,69,22740,960
55,69,22740,960
40,69,23400,240
37,69,23400,240
43,78,23400,240
49,78,24060,480
52,78,24060,480
55,78,24060,480
57,78,24060,480
37,70,24720,240
40,75,24720,240
43,82,24720,240
38,33,26070,480
45,39,26100,450
50,45,26130,420
53,44,26160,390
40,32,26550,990
45,32,26580,960
49,32,26610,930
55,39,26640,900
41,26,27540,480
45,29,27550,470
50,32,27560,460
53,35,27570,450
40,32,28020,540
45,35,28030,530
48,37,28040,520
52,40,28050,510
51,49,28560,480
39,41,28560,480
48,38,28560,480
51,42,29040,480
39,36,29040,480
48,36,29040,480
51,44,29520,480
39,37,29520,480
48,37,29520,480
51,46,30000,480
39,39,30000,480
48,39,30000,480
45,61,30480,960
48,61,30480,960
44,57,31440,960
47,57,31440,960
33,46,32400,960
40,46,32410,950
45,46,32420,940
49,46,32430,930
35,36,36000,240
43,43,36000,240
50,51,36000,240
52,56,36240,240
43,46,36240,240
36,39,36240,240
51,50,36720,240
43,42,36720,240
36,36,36720,240
47,52,37440,240
50,52,37440,240
38,37,37440,240
49,56,37680,240
46,46,37680,240
40,39,37680,240
49,53,38160,240
46,45,38160,240
40,38,38160,240
48,40,39120,480
39,33,39120,480
50,44,39600,480
47,35,39600,480
38,32,39600,480
52,53,40080,480
46,42,40080,480
37,38,40080,480
43,54,40560,480
45,57,40560,480
45,61,41040,960
42,51,41040,960
31,45,42000,240
38,45,42010,230
43,46,42020,220
47,46,42030,210
31,53,43920,120
30,46,44040,120
31,53,44160,120
30,47,44280,120
31,46,44400,120
32,51,44520,120
33,54,44640,120
34,58,44760,80
35,52,44840,160
38,54,44850,150
41,58,44860,140
44,62,44870,130
47,65,44880,120
48,58,45000,120
36,49,45000,120
47,58,45120,120
35,49,45120,120
48,54,45240,120
36,45,45240,120
38,58,45360,90
41,58,45360,60
44,58,45360,90
35,58,45360,90
47,58,45360,90
51,59,45480,130
39,50,45480,130
50,58,45600,130
38,49,45600,130
48,56,45720,120
36,47,45720,120
47,61,45840,120
35,51,45840,120
48,55,45960,120
36,46,45960,120
47,59,46080,120
35,50,46080,120
36,55,46200,80
48,55,46200,80
35,53,46280,160
38,54,46290,150
41,55,46300,140
44,57,46310,130
47,59,46320,120
52,56,46440,130
40,47,46440,130
50,58,46560,130
38,49,46560,130
48,57,46680,80
36,48,46680,80
35,52,46760,160
38,54,46770,150
41,58,46780,140
44,62,46790,130
47,65,46800,120
48,58,46920,120
36,49,46920,120
50,61,47040,120
38,51,47040,120
52,58,47160,120
40,49,47160,120
53,58,47280,120
41,49,47280,120
56,61,47400,120
44,51,47400,120
57,63,47520,120
45,54,47520,120
47,66,47640,120
59,66,47640,120
59,68,47760,120
47,57,47760,120
57,67,47880,120
45,56,47880,120
56,66,48000,120
44,55,48000,120
53,64,48120,120
41,54,48120,120
52,63,48240,120
40,54,48240,120
50,63,48360,120
38,53,48360,120
48,61,48480,120
36,51,48480,120
47,60,48600,80
35,50,48600,80
37,52,48680,160
40,54,48690,150
43,58,48700,140
45,62,48710,130
49,65,48720,120
50,58,48840,120
38,49,48840,120
49,58,48960,120
37,49,48960,120
50,54,49080,120
38,45,49080,120
40,58,49200,90
43,58,49200,60
45,58,49200,90
37,58,49200,90
49,58,49200,90
53,59,49320,130
41,50,49320,130
52,58,49440,130
40,49,49440,130
50,56,49560,120
38,47,49560,120
49,61,49680,120
37,51,49680,120
50,55,49800,120
38,46,49800,120
49,59,49920,120
37,50,49920,120
38,55,50040,80
50,55,50040,80
37,53,50120,160
40,54,50130,150
43,55,50140,140
45,57,50150,130
49,59,50160,120
53,56,50280,130
41,47,50280,130
52,58,50400,130
40,49,50400,130
50,57,50520,120
38,48,50520,120
37,36,50640,120
49,36,50640,120
50,35,50760,120
38,35,50760,120
52,37,50880,120
40,37,50880,120
53,35,51000,120
41,35,51000,120
55,37,51120,120
43,37,51120,120
57,39,51240,118
45,39,51240,120
58,42,51360,120
46,42,51360,120
49,45,51480,120
61,45,51480,120
61,46,51600,120
49,46,51600,120
58,47,51720,120
46,47,51720,120
57,47,51840,120
45,47,51840,120
55,47,51960,120
43,47,51960,120
53,46,52080,120
41,46,52080,120
52,46,52200,120
40,46,52200,120
50,46,52320,120
38,46,52320,120
49,45,52440,120
37,45,52440,120
38,53,52560,120
50,53,52560,120
52,51,52680,120
40,51,52680,120
53,53,52800,120
41,53,52800,120
55,47,52920,120
43,47,52920,120
57,51,53040,120
45,51,53040,120
58,53,53160,118
46,53,53160,120
61,54,53280,120
49,54,53280,120
50,56,53400,120
62,56,53400,120
63,59,53520,120
51,59,53520,120
60,57,53640,120
48,57,53640,120
59,56,53760,120
47,56,53760,120
57,55,53880,120
45,55,53880,120
55,54,54000,120
43,54,54000,120
54,53,54120,120
42,53,54120,120
52,52,54240,120
40,52,54240,120
51,50,54360,120
39,50,54360,120
40,58,54480,120
52,58,54480,120
54,56,54600,120
42,56,54600,120
56,58,54720,120
44,58,54720,120
57,53,54840,120
45,53,54840,120
59,56,54960,120
47,56,54960,120
60,58,55080,118
48,58,55080,120
62,61,55200,120
50,61,55200,120
52,63,55320,120
64,63,55320,120
64,65,55440,120
52,65,55440,120
62,63,55560,120
50,63,55560,120
61,63,55680,120
49,63,55680,120
58,62,55800,120
46,62,55800,120
57,60,55920,120
45,60,55920,120
55,58,56040,120
43,58,56040,120
53,57,56160,120
41,57,56160,120
52,55,56280,120
40,55,56280,120
53,38,56400,930
41,32,56400,238
46,32,56400,930
50,32,56400,930
41,51,57330,266
46,53,57340,980
50,54,57350,970
58,54,57360,960
41,54,58290,268
48,54,58300,950
51,54,58310,940
56,64,58320,930
54,38,60240,930
42,32,60240,238
47,32,60240,930
51,32,60240,930
42,51,61170,266
47,53,61180,980
51,54,61190,970
59,54,61200,960
42,54,62130,268
49,54,62140,950
52,54,62150,940
57,64,62160,930
43,58,64050,268
49,60,64060,950
52,61,64070,940
58,63,64080,930
44,59,65010,266
48,61,65020,950
53,62,65030,940
56,63,65040,930
45,62,65970,268
51,63,65980,950
54,66,65990,940
60,70,66000,930
46,65,66930,266
50,67,66940,950
55,69,66950,940
58,71,66960,930
47,63,67890,480
53,64,67900,470
56,66,67910,460
62,69,67920,450
44,62,68160,120
35,52,68160,120
41,52,68160,120
47,61,68370,960
53,63,68380,950
56,64,68390,940
62,67,68400,930
44,61,68640,120
35,51,68640,120
41,51,68640,120
50,61,68880,120
41,51,68880,120
44,51,68880,120
44,61,69120,120
35,51,69120,120
41,51,69120,120
47,63,69330,480
53,65,69340,470
56,66,69350,460
62,68,69360,450
44,63,69600,120
35,54,69600,120
41,54,69600,120
47,63,69810,710
53,65,69820,710
56,67,69830,710
62,69,69840,710
44,58,70080,120
35,49,70080,120
41,49,70080,120
50,64,70320,120
41,54,70320,120
44,54,70320,120
56,70,70560,120
47,59,70560,120
53,59,70560,120
62,76,70800,120
53,64,70800,120
56,64,70800,120
49,64,71760,480
55,66,71760,480
57,69,71760,480
45,62,72000,120
37,52,72000,120
43,52,72000,120
49,63,72240,960
55,64,72240,960
57,67,72240,960
45,61,72480,120
37,51,72480,120
43,51,72480,120
52,61,72720,120
43,51,72720,120
45,51,72720,120
45,61,72960,120
37,51,72960,120
43,51,72960,120
49,65,73200,480
55,66,73200,480
57,68,73200,480
45,63,73440,120
37,54,73440,120
43,54,73440,120
49,65,73680,480
55,67,73680,480
57,69,73680,450
45,58,73920,120
37,49,73920,120
43,49,73920,120
52,64,74160,120
43,54,74160,120
45,54,74160,120
57,70,74400,120
49,59,74400,120
55,59,74400,120
61,64,74640,120
69,76,74640,120
64,64,74640,120
67,64,74640,120
57,60,75600,960
54,56,76560,960
50,60,77520,960
58,57,78480,720
58,55,79200,240
30,40,79440,120
31,41,79560,120
32,43,79680,120
33,44,79800,120
34,45,79920,120
35,46,80040,120
36,49,80160,120
37,53,80280,120
38,55,80400,120
39,59,80520,120
40,62,80640,120
41,65,80760,120
42,68,80880,480
48,68,80880,480
48,68,81360,960
43,68,81360,120
42,65,81480,120
41,63,81600,120
40,61,81720,120
39,59,81840,120
38,56,81960,120
37,54,82080,120
36,48,82200,120
47,47,82320,480
35,47,82320,120
34,46,82440,120
33,45,82560,120
32,45,82680,90
31,38,82770,150
38,44,82785,135
46,48,82800,120
51,60,83280,960
58,56,84240,720
58,55,84960,240
49,60,85200,960
53,57,86160,960
35,37,87120,120
32,27,87120,120
36,37,87240,120
33,32,87240,120
37,39,87360,120
34,34,87360,120
38,41,87480,120
35,35,87480,120
39,42,87600,120
36,36,87600,120
40,44,87720,120
37,38,87720,120
41,45,87840,120
38,40,87840,120
42,47,87960,120
39,42,87960,120
43,48,88080,120
40,43,88080,120
44,50,88200,120
41,45,88200,120
45,52,88320,120
42,46,88320,120
46,53,88440,120
43,47,88440,120
44,49,88560,480
47,54,88560,480
45,54,89040,80
44,48,89120,80
47,54,89120,80
43,46,89200,80
46,52,89200,80
42,45,89280,80
45,51,89280,80
41,45,89360,80
44,50,89360,80
40,43,89440,80
43,48,89440,80
39,42,89520,80
42,47,89520,80
38,41,89600,80
41,46,89600,80
37,39,89680,80
40,45,89680,80
36,38,89760,80
39,44,89760,80
35,37,89840,80
38,43,89840,80
34,36,89920,80
37,41,89920,80
33,31,90000,240
36,48,90000,240
69,48,90420,60
57,43,90420,60
69,54,90480,240
57,49,90480,240
45,46,90900,40
57,54,90900,40
48,47,90940,340
52,47,90950,490
45,45,90960,80
36,47,90960,480
40,47,90960,480
46,25,91040,80
47,26,91120,80
48,27,91200,80
49,28,91280,80
50,30,91360,80
51,31,91440,80
52,32,91520,80
53,34,91600,80
54,35,91680,60
55,36,91740,60
56,36,91800,60
48,53,91860,60
52,53,91860,60
57,53,91860,60
48,52,91920,480
52,52,91920,480
57,52,91920,80
56,38,92000,80
55,38,92080,80
54,37,92160,80
53,36,92240,80
52,36,92320,80
51,36,92400,80
50,35,92480,80
49,34,92560,80
48,34,92640,60
47,33,92700,60
46,33,92760,60
36,50,92820,60
45,50,92820,60
38,47,92880,480
46,45,92880,80
47,34,92960,80
48,35,93040,80
49,36,93120,80
50,36,93200,80
51,37,93280,80
52,38,93360,80
53,39,93440,80
54,40,93520,80
55,41,93600,60
56,42,93660,60
57,43,93720,60
50,54,93780,60
53,54,93780,60
58,54,93780,60
51,52,93840,480
54,52,93840,480
59,52,93840,80
58,45,93920,80
57,45,94000,80
56,44,94080,80
55,44,94160,80
54,43,94240,80
53,42,94320,80
52,41,94403,80
51,40,94480,80
50,39,94560,60
49,39,94620,60
48,39,94680,60
39,35,94740,60
47,50,94740,60
40,54,94800,480
48,45,94800,80
49,40,94880,80
50,41,94960,80
51,42,95040,80
52,43,95120,80
53,44,95200,80
54,44,95280,80
55,45,95360,80
56,45,95440,80
57,46,95520,60
58,47,95580,60
59,45,95640,60
52,45,95700,60
57,45,95700,60
60,45,95700,60
52,55,95760,480
55,55,95760,480
61,55,95760,80
60,51,95840,80
59,49,95920,80
58,47,96000,80
57,46,96080,80
56,45,96160,80
55,45,96240,80
54,44,96323,80
53,43,96400,80
52,41,96480,60
51,41,96540,60
50,40,96600,60
40,50,96660,60
43,50,96660,60
49,50,96660,60
41,49,96720,480
50,42,96720,60
51,41,96780,60
52,42,96840,60
53,42,96900,60
54,43,96960,60
55,44,97020,60
56,45,97080,60
57,45,97140,60
58,45,97200,60
59,46,97260,60
60,47,97320,60
61,48,97380,60
62,49,97440,60
63,49,97500,60
64,50,97560,60
65,51,97620,60
66,52,97680,60
67,52,97740,60
68,53,97800,60
69,54,97860,60
70,54,97920,60
71,55,97980,60
72,55,98040,60
73,56,98100,60
74,65,98160,60
73,57,98220,60
72,58,98280,60
71,56,98340,60
70,55,98400,60
69,54,98460,60
68,54,98520,60
67,53,98580,60
66,52,98640,60
65,51,98700,60
64,50,98760,60
63,49,98820,60
62,48,98880,60
61,47,98940,60
60,46,99000,60
59,45,99060,60
58,44,99120,60
57,44,99180,60
56,42,99240,60
55,41,99300,60
54,40,99360,60
53,39,99420,60
52,38,99480,60
51,50,99540,40
41,63,99580,260
50,63,99590,250
58,82,99600,1440
58,74,101160,600
41,69,101790,270
51,72,101800,260
57,74,101810,250
60,82,101820,960
51,79,103080,960
52,56,104040,60
40,45,104040,60
45,45,104040,60
48,45,104040,60
53,41,104100,60
54,42,104160,60
55,42,104220,60
56,43,104280,60
57,44,104340,60
58,45,104400,60
59,45,104460,60
60,45,104520,60
61,46,104580,60
62,47,104640,60
63,48,104700,60
64,49,104760,60
63,50,104820,60
62,51,104880,60
61,51,104940,60
60,52,105000,60
59,53,105060,60
58,54,105120,60
57,54,105180,60
56,54,105240,60
55,55,105300,60
54,56,105360,60
53,57,105420,60
52,58,105480,60
51,59,105540,60
50,59,105600,60
49,60,105660,60
48,61,105720,60
47,62,105780,60
46,63,105840,60
45,63,105900,60
44,63,105960,60
43,64,106020,60
42,65,106080,60
41,66,106140,60
52,80,106200,120
48,67,106200,120
45,67,106200,120
40,67,106200,120
53,79,106680,120
38,66,106680,120
45,66,106680,120
48,66,106680,120
39,42,108030,330
47,45,108060,300
54,47,108090,270
57,49,108105,915
59,49,108120,900
40,42,108990,330
47,45,109020,300
52,47,109050,270
57,49,109065,915
59,49,109080,900
57,56,109980,40
59,56,109980,40
41,42,110020,260
47,45,110030,250
50,47,110040,240
57,49,110040,900
59,49,110040,900
41,34,111390,300
47,36,111420,300
51,40,111450,270
57,42,111480,480
59,42,111480,480
40,33,111960,240
47,35,111975,225
52,36,111990,210
56,37,112005,180
59,40,112020,180
74,34,115320,360
76,32,115680,40
74,28,115720,40
73,28,115760,40
71,36,115800,360
73,36,116160,40
71,32,116200,40
69,32,116240,40
62,35,116280,600
68,42,116280,600
61,34,116880,90
68,34,116880,90
61,38,117000,90
68,38,117000,90
67,35,117120,90
73,35,117120,90
67,38,117240,90
73,38,117240,90
66,34,117360,90
73,34,117360,90
66,38,117480,90
73,38,117480,90
72,36,117600,60
78,36,117600,60
72,38,117660,620
78,38,117680,600
71,33,118280,80
78,38,118280,80
71,29,118360,80
77,35,118360,80
72,33,118440,80
76,38,118440,80
70,28,118520,80
76,34,118520,80
71,33,118600,80
75,38,118600,80
68,30,118680,80
74,36,118680,80
69,33,118760,80
73,38,118760,80
66,29,118840,80
72,35,118840,80
67,33,118920,80
71,38,118920,80
64,29,119000,80
70,35,119000,80
65,33,119080,50
69,38,119080,50
62,30,119160,60
69,36,119160,60
69,38,119280,108
62,32,119280,108
69,38,119400,108
64,32,119400,108
69,37,119520,108
65,31,119520,108
69,37,120120,108
62,31,120120,108
69,36,120240,108
62,30,120240,108
69,36,120360,108
64,30,120360,108
69,34,120480,54
66,28,120480,54
52,35,121480,50
45,35,121530,270
49,35,121545,255
57,44,121560,240
57,42,121800,120
59,37,121920,90
45,35,122010,270
52,35,122025,255
61,45,122040,240
57,42,122280,210
38,31,122490,270
54,42,122520,240
59,44,122760,477
39,31,123000,240
57,43,123240,210
40,31,123450,270
56,44,123480,180
56,40,123840,120
47,31,123960,240
57,43,123960,360
59,44,124200,240
40,31,124440,240
52,45,124440,960
59,27,124680,240
56,22,124680,240
61,25,124920,240
57,20,124920,240
64,23,125160,240
59,19,125160,240
45,35,125370,270
49,35,125385,255
57,44,125400,240
57,42,125640,120
59,35,125760,90
45,35,125850,270
52,35,125865,255
61,45,125880,238
57,42,126120,210
38,31,126330,270
54,42,126360,240
59,40,126600,480
38,31,126840,240
57,43,127080,210
40,31,127320,240
57,44,127320,120
56,44,127440,120
54,44,127560,90
52,40,127680,90
40,31,127800,240
52,43,127800,48
54,43,127848,48
52,43,127896,48
51,43,127944,48
52,43,127992,48
54,44,128040,90
56,44,128160,90
45,31,128280,240
57,45,128280,240
64,29,128520,240
61,24,128520,240
66,27,128760,240
59,22,128760,240
68,25,129000,240
52,21,129000,240
45,33,129240,120
57,28,129480,120
52,24,129480,120
33,34,129720,120
57,28,129960,120
52,24,129960,120
38,33,130200,120
59,28,130440,120
54,24,130440,120
39,34,130680,120
59,28,130920,120
51,24,130920,120
40,33,131160,120
56,28,131400,120
52,24,131400,120
35,34,131640,120
54,28,131880,120
47,24,131880,120
40,31,132045,315
47,31,132060,300
52,41,132075,285
52,22,132360,480
59,27,132360,240
56,22,132360,240
61,25,132600,150
57,20,132600,150
52,19,132750,90
59,19,132765,315
64,23,132780,300
45,33,133080,120
57,28,133320,120
52,24,133320,120
33,34,133560,120
57,28,133800,120
52,24,133800,120
38,33,134040,120
59,28,134280,120
54,24,134280,120
38,34,134520,120
50,24,134760,120
59,28,134760,120
40,33,135000,120
56,28,135240,120
52,24,135240,120
40,34,135480,120
59,28,135720,120
52,24,135720,120
37,33,135960,120
52,24,136200,120
61,28,136200,120
57,24,136200,120
32,44,136440,120
52,24,136680,120
59,28,136680,120
33,33,136920,120
57,28,137160,120
52,24,137160,120
40,34,137400,120
57,24,137640,120
64,28,137640,120
52,24,137640,120
57,36,137880,120
45,30,137880,120
52,30,137880,120
73,28,138120,120
57,24,138120,120
64,24,138120,120
69,28,138360,120
57,24,138360,120
61,24,138360,120
40,33,138840,120
71,33,139080,120
64,27,139080,120
68,27,139080,120
40,33,139320,120
73,33,139560,120
69,27,139560,120
40,33,139800,120
59,27,140010,150
68,27,140025,135
76,33,140040,120
64,27,140250,150
71,27,140265,135
80,33,140280,120
68,27,140490,150
76,27,140505,135
83,33,140520,120
51,27,140760,960
59,33,140760,960
52,28,141720,120
59,33,141720,120
64,30,141960,120
71,30,141960,120
80,30,141960,120
64,31,142200,120
68,31,142200,120
76,31,142200,120
40,33,142680,120
71,33,142920,120
64,27,142920,120
68,27,142920,120
40,33,143160,120
73,33,143400,120
69,27,143400,120
40,33,143640,120
59,27,143850,150
68,27,143865,135
76,33,143880,120
64,27,144090,150
71,27,144105,135
80,33,144120,120
68,27,144330,150
76,27,144345,135
83,33,144360,120
51,27,144600,960
59,33,144600,960
52,27,145560,240
59,33,145560,240
51,27,146040,480
59,33,146040,720
52,27,146520,240
51,27,147000,480
59,33,147000,480
52,33,147480,240
59,33,147480,240
56,30,147720,120
40,35,147960,120
68,33,148200,240
71,33,148200,240
40,37,148440,120
74,51,148560,240
71,43,148560,240
73,44,148800,40
76,44,148800,40
71,41,148840,40
74,41,148840,40
73,41,148880,40
69,41,148880,40
68,44,148920,60
71,44,148920,60
66,40,149040,60
74,40,149040,60
64,44,149160,60
73,44,149160,60
62,40,149280,60
71,40,149280,60
61,33,149400,120
69,33,149400,120
64,28,149640,120
61,28,149640,120
69,28,149640,120
45,34,149880,120
61,28,150120,120
64,28,150120,120
69,28,150120,120
38,36,150360,120
62,31,150600,240
66,31,150600,240
71,31,150600,240
39,42,150840,120
51,31,151080,120
54,31,151080,120
40,36,151320,120
52,31,151560,120
56,31,151560,120
35,36,151800,120
47,31,152040,120
54,31,152040,120
40,31,152280,240
59,30,152520,240
56,25,152520,480
61,28,152760,240
57,23,152760,240
52,22,153000,240
59,22,153000,240
62,26,153000,240
45,35,153210,270
49,35,153225,255
57,44,153240,240
57,42,153480,120
59,37,153600,90
45,35,153720,240
52,35,153720,240
61,45,153720,237
57,42,153960,210
42,38,154170,750
57,45,154200,720
52,29,155160,960
59,33,155160,960
45,33,156120,240
57,44,156240,120
57,45,156360,120
59,48,156480,90
45,41,156600,240
52,44,156600,240
61,54,156600,237
57,42,156840,210
42,38,157050,510
57,45,157080,480
62,41,157560,240
71,41,157560,240
61,41,157800,240
69,41,157800,240
52,37,158040,240
62,37,158040,240
59,37,158040,240
68,37,158040,240
40,26,158970,270
52,30,158985,255
59,35,159000,240
52,43,161760,90
45,37,161850,150
52,37,161865,135
61,58,161880,240
40,37,162000,120
49,37,162120,120
52,37,162120,120
57,52,162120,120
40,37,162240,75
52,53,162240,75
47,37,162315,165
52,37,162330,150
56,37,162345,135
62,57,162360,360
40,37,162480,120
50,37,162600,120
40,37,162720,120
56,41,162720,120
49,41,162840,240
57,41,162840,240
61,33,163080,240
64,33,163080,240
56,33,163560,210
59,33,163560,210
45,37,163770,150
52,37,163785,135
61,58,163800,240
40,37,163920,120
49,37,164040,120
52,37,164040,120
57,52,164040,120
40,37,164160,75
52,53,164160,75
47,37,164235,165
52,37,164250,150
56,37,164265,135
62,57,164280,360
40,37,164400,120
50,37,164520,120
40,37,164640,120
56,41,164640,120
49,41,164760,240
57,41,164760,240
56,33,165240,480
64,33,165240,480
71,33,165240,480
57,30,165690,150
64,33,165705,15
73,43,165720,120
53,28,166200,450
61,29,166200,450
68,33,166200,450
54,30,166650,150
61,33,166665,135
69,43,166680,120
49,28,167160,480
57,29,167160,480
64,33,167160,480
50,40,167610,150
57,43,167625,15
66,46,167640,120
57,43,167880,180
50,36,167880,180
47,36,168000,40
54,37,168040,40
62,41,168080,40
74,43,168120,120
66,36,168120,120
59,36,168840,180
68,43,168840,180
52,36,168840,180
49,36,168960,40
56,37,169000,40
64,41,169040,40
76,43,169080,120
68,36,169080,120
61,36,169800,180
69,43,169800,180
54,36,169800,180
50,36,169920,40
57,37,169960,40
66,41,170000,40
78,43,170040,120
69,36,170040,120
44,37,170520,480
52,37,170520,480
59,43,170520,480
56,35,181680,360
57,42,182040,480
45,35,182040,2880
52,35,182040,1680
56,37,182520,240
57,44,182760,480
59,40,183240,240
56,44,183480,240
56,36,183720,240
52,30,183720,1200
57,39,183960,240
54,33,183960,240
59,43,184200,240
56,36,184200,240
61,45,184440,240
57,38,184440,240
62,48,184680,240
56,40,184680,240
57,42,184920,480
45,35,184920,2880
52,35,184920,1680
56,37,185400,240
57,44,185640,480
59,40,186120,240
56,44,186360,240
56,36,186600,240
52,30,186600,1200
57,39,186840,240
54,33,186840,240
59,43,187080,240
56,36,187080,240
61,45,187320,240
57,38,187320,240
62,48,187560,240
56,40,187560,240
61,43,187800,690
57,36,187800,690
50,34,188490,750
62,34,188505,255
66,40,188520,240
62,37,188760,240
59,31,188760,240
66,37,189000,240
62,31,189000,240
64,42,189240,240
52,42,189240,720
61,35,189240,240
61,39,189480,240
57,33,189480,240
64,39,189720,240
61,33,189720,240
40,37,189960,240
59,40,190200,240
52,34,190200,240
62,37,190440,240
59,31,190440,240
57,43,190680,120
45,36,190680,120
52,36,190680,120
64,43,190920,240
66,45,191160,240
68,47,191400,240
67,49,191640,240
64,51,191880,240
62,53,192120,240
65,53,192360,240
60,54,192600,240
59,50,192840,240
56,46,193080,240
56,37,193320,180
62,41,193320,180
45,35,193500,1440
52,35,193515,285
61,42,193530,300
52,37,193800,720
56,32,194040,240
59,37,194040,240
57,36,194280,480
61,44,194280,480
52,40,194520,480
59,36,194760,180
62,40,194760,180
45,35,194940,1440
52,35,194955,45
59,44,194970,270
64,45,195240,960
56,36,195240,240
52,30,195240,960
57,39,195480,240
54,33,195480,240
59,43,195720,240
56,36,195720,240
61,45,195960,240
57,38,195960,240
52,37,196200,180
62,41,196200,180
59,37,196200,180
45,35,196380,1440
52,35,196395,285
61,42,196410,300
52,37,196680,720
56,32,196920,240
59,37,196920,240
57,36,197160,480
61,44,197160,480
52,40,197400,480
59,36,197640,180
62,40,197640,180
45,35,197820,1470
52,35,197835,45
59,44,197850,270
56,36,198120,240
64,45,198120,960
52,30,198120,960
54,33,198360,240
57,39,198360,240
56,36,198600,240
59,43,198600,240
57,38,198840,240
61,45,198840,240
52,37,199080,210
59,37,199080,210
62,41,199080,210
61,42,199320,240
45,42,199320,720
61,32,199560,240
64,37,199560,240
57,32,199800,180
61,37,199800,180
50,42,199980,780
62,36,199995,285
66,44,200010,270
59,32,200280,240
62,37,200280,240
62,36,200520,210
66,40,200520,210
61,35,200760,240
64,42,200760,240
52,42,200760,720
57,32,201000,240
61,37,201000,240
61,32,201240,180
64,37,201240,180
40,42,201420,60
59,36,201480,240
62,44,201480,240
52,32,201720,240
59,37,201720,240
59,36,201960,170
62,40,201960,170
45,32,202130,190
52,35,202140,180
57,37,202150,150
61,40,202160,160
69,44,202920,60
57,36,202920,60
67,36,202920,60
69,37,203400,60
57,31,203400,60
67,31,203400,60
62,40,203640,60
66,40,203640,60
69,40,203640,60
69,41,204120,45
62,35,204120,45
66,35,204120,45
69,44,204360,60
57,36,204360,60
67,36,204360,60
69,37,204840,60
57,31,204840,60
67,31,204840,60
62,40,205080,120
66,40,205080,120
69,40,205080,120
52,40,206760,60
61,40,206760,60
64,40,206760,60
64,41,207240,45
52,35,207240,45
61,35,207240,45
64,44,207480,60
52,36,207480,60
62,36,207480,60
64,37,207960,60
52,31,207960,60
62,31,207960,60
57,40,208200,60
61,40,208200,60
64,40,208200,60
57,44,209160,60
45,36,209160,60
55,36,209160,60
57,37,209640,60
45,31,209640,60
55,31,209640,60
50,40,209880,60
54,40,209880,60
57,40,209880,60
57,41,210360,45
50,35,210360,45
54,35,210360,45
57,44,210600,60
45,36,210600,60
55,36,210600,60
57,37,211080,60
45,31,211080,60
55,31,211080,60
50,40,211320,60
54,40,211320,60
57,40,211320,60
40,40,213000,60
49,40,213000,60
52,40,213000,60
52,41,213480,45
40,35,213480,45
49,35,213480,45
52,44,213720,60
40,36,213720,60
50,36,213720,60
52,37,214200,60
40,31,214200,60
50,31,214200,60
45,40,214440,60
49,40,214440,60
52,40,214440,60
40,44,216120,60
49,44,216120,60
52,44,216120,60
52,45,216600,45
40,37,216600,45
49,37,216600,45
50,40,216840,60
52,47,216840,60
40,40,216840,60
47,40,216840,60
50,34,217320,60
52,41,217320,60
40,34,217320,60
47,34,217320,60
52,44,217560,60
45,44,217560,60
49,44,217560,60
57,44,217560,60
40,54,219240,60
49,54,219240,60
52,54,219240,60
52,54,219720,45
40,46,219720,45
49,46,219720,45
50,49,219960,60
52,59,219960,60
40,49,219960,60
47,49,219960,60
50,42,220440,60
52,50,220440,60
40,42,220440,60
47,42,220440,60
52,54,220680,60
45,54,220680,60
49,54,220680,60
57,54,220680,60
66,42,221220,60
64,44,221280,60
62,45,221340,60
61,45,221400,60
59,47,221460,60
57,48,221520,60
56,49,221580,60
54,51,221640,60
52,52,221700,60
50,53,221760,60
49,54,221820,60
47,55,221880,60
45,56,221940,60
44,58,222000,60
42,59,222060,60
52,63,222120,120
40,53,222120,120
49,53,222120,120
40,58,222356,120
49,58,222360,120
52,69,222360,120
45,58,222360,120
52,66,222720,60
40,56,222720,60
47,56,222720,60
50,56,222720,60
52,66,222840,90
40,56,222840,90
45,56,222840,60
49,56,222840,90
40,60,223076,120
52,71,223080,120
47,60,223080,120
44,60,223080,120
52,63,223440,60
40,52,223440,60
42,52,223440,60
45,52,223440,60
40,52,223556,120
52,63,223560,120
47,52,223560,120
44,52,223560,120
45,66,223800,470
40,56,223800,480
37,56,223800,480
33,56,223800,480
64,36,224520,60
52,30,224520,60
64,32,224880,30
52,27,224880,30
64,32,225000,60
52,27,225000,60
64,36,225240,60
57,30,225240,60
64,35,225600,30
57,29,225600,30
64,35,225720,60
57,29,225720,60
64,36,225960,60
52,30,225960,60
62,30,225960,60
64,34,226320,30
52,28,226320,30
62,28,226320,30
64,34,226440,60
52,28,226440,60
62,28,226440,60
61,36,226680,240
57,30,226680,240
40,60,227400,360
52,71,227400,360
47,60,227400,360
44,60,227400,360
52,63,227760,120
40,52,227760,120
42,52,227760,120
45,52,227760,120
40,52,227876,4
52,63,227880,240
47,52,227880,240
44,52,227880,240
45,52,228120,360
49,52,228120,360
52,58,228120,360
52,66,228480,120
47,56,228480,120
50,56,228480,120
52,66,228600,240
45,56,228600,240
49,56,228600,240
40,60,228836,360
52,71,228840,360
47,60,228840,360
44,60,228840,360
52,63,229200,120
40,52,229200,120
42,52,229200,120
45,52,229200,120
40,52,229316,4
52,63,229320,240
47,52,229320,240
44,52,229320,240
45,66,229560,470
40,56,229560,480
37,56,229560,480
33,56,229560,480
52,45,230280,210
45,36,230490,270
49,36,230505,255
57,49,230520,80
59,42,230600,80
57,42,230680,80
56,47,230760,80
57,43,230840,80
59,43,230920,50
45,36,230970,150
52,36,230985,135
61,49,231000,80
60,45,231080,80
62,45,231160,80
61,49,231240,80
59,45,231320,80
57,45,231400,80
50,36,231480,120
54,49,231480,80
56,43,231560,80
54,43,231640,80
53,45,231720,80
54,43,231800,80
58,43,231880,80
51,36,231960,120
59,48,231960,80
61,42,232040,80
59,42,232120,80
58,45,232200,80
59,43,232280,80
57,43,232360,80
52,36,232440,120
56,54,232440,80
66,45,232520,80
64,45,232600,80
63,50,232680,80
64,45,232760,80
56,45,232840,80
47,36,232920,120
51,36,232920,120
57,48,232920,80
60,44,233000,80
59,44,233080,80
58,48,233160,80
59,44,233240,80
51,44,233320,80
40,36,233400,120
52,49,233400,80
56,45,233480,80
59,45,233560,80
52,41,233640,240
56,41,233640,240
64,49,233640,240
60,45,233880,160
53,38,233880,80
54,42,233960,80
59,37,234040,160
55,30,234040,80
56,39,234120,80
62,38,234200,80
52,32,234200,160
64,39,234280,80
45,36,234360,240
49,36,234360,240
57,49,234360,80
59,42,234440,80
57,42,234520,80
56,47,234600,80
57,43,234680,80
59,43,234760,50
45,36,234810,150
52,36,234825,135
61,49,234840,80
60,45,234920,80
62,45,235000,80
61,49,235080,80
59,45,235160,80
57,45,235240,80
50,36,235320,120
54,49,235320,80
56,43,235400,80
54,43,235480,80
53,45,235560,80
54,43,235640,80
58,43,235720,80
50,36,235800,120
59,48,235800,80
61,42,235880,80
59,42,235960,80
58,45,236040,80
59,43,236120,80
57,43,236200,50
40,36,236250,150
57,54,236280,70
56,45,236360,80
54,45,236440,80
54,50,236520,80
52,45,236600,80
51,45,236680,70
40,36,236760,120
51,48,236760,80
52,44,236840,80
53,44,236920,80
54,48,237000,80
55,44,237080,80
56,44,237160,80
45,40,237240,80
52,40,237240,80
57,40,237240,80
64,50,237320,60
61,50,237320,60
64,49,237400,60
61,49,237400,60
61,49,237480,60
64,49,237480,60
60,48,237560,60
66,48,237560,60
60,47,237640,60
66,47,237640,60
60,46,237720,60
66,46,237720,60
59,45,237800,60
65,45,237800,60
59,45,237880,60
65,45,237880,60
59,45,237960,60
65,45,237960,60
52,44,238040,30
62,44,238040,30
52,43,238120,30
64,43,238120,30
57,36,238200,120
45,30,238200,120
52,30,238200,120
64,35,238440,120
61,29,238440,120
45,36,238680,120
61,33,238920,120
57,27,238920,120
52,27,238920,120
38,41,239160,120
50,34,239355,525
57,36,239370,510
59,37,239385,495
66,39,239400,480
66,45,239880,240
59,39,239880,240
51,39,239880,240
52,43,240120,240
59,43,240120,240
68,48,240120,240
56,36,240360,120
59,36,240360,120
47,36,240600,120
63,39,240840,240
66,39,240840,240
71,52,240840,240
40,36,241050,270
44,36,241065,255
52,57,241080,80
56,45,241160,80
59,45,241240,80
52,36,241320,240
56,36,241320,240
64,49,241320,240
60,45,241560,160
53,38,241560,80
54,42,241640,80
59,37,241720,160
55,30,241720,80
56,39,241800,80
62,38,241880,80
52,32,241880,80
52,32,241960,80
64,39,241960,80
57,36,242040,120
45,30,242040,120
52,30,242040,120
64,35,242280,120
61,29,242280,120
45,36,242520,120
61,33,242760,120
57,27,242760,120
52,27,242760,120
38,41,243000,120
50,34,243210,480
59,37,243225,465
66,39,243240,450
50,39,243690,270
59,39,243705,255
66,45,243720,240
40,47,243960,120
52,34,244155,165
59,36,244170,150
62,37,244185,135
68,39,244200,120
40,45,244440,120
52,34,244635,165
59,36,244650,150
62,37,244665,135
64,39,244680,120
49,40,244890,270
57,40,244905,255
64,47,244920,120
73,46,245040,120
64,39,245040,120
69,39,245040,120
76,54,245160,240
61,45,245160,240
69,45,245160,240
56,47,245400,240
44,40,245400,240
52,40,245400,240
76,58,245520,240
64,49,245520,240
71,49,245520,240
71,47,245760,120
59,40,245760,120
68,40,245760,120
57,54,245880,240
45,45,245880,240
52,45,245880,240
72,45,246040,80
64,41,246040,80
71,45,246120,80
63,41,246120,80
70,45,246200,80
62,40,246200,80
69,45,246280,80
61,40,246280,80
52,45,246330,510
61,36,246345,15
69,41,246360,80
60,36,246440,80
68,41,246440,80
61,36,246520,80
69,40,246520,80
64,31,246600,80
73,38,246600,80
68,32,246680,160
63,30,246680,80
72,36,246680,80
62,32,246760,55
71,36,246760,55
57,36,246815,145
64,36,246820,140
69,36,246825,135
45,38,247050,150
52,38,247065,135
61,38,247080,120
45,38,247320,120
49,38,247320,120
57,38,247320,120
40,54,247800,120
71,54,248040,120
68,45,248040,120
68,45,248160,120
64,38,248160,120
52,51,248280,120
76,54,248520,120
73,45,248520,120
73,47,248640,120
69,40,248640,120
40,53,248760,120
71,54,249000,160
68,45,249000,160
64,47,249160,80
68,53,249240,80
51,54,249720,960
71,49,249840,90
59,41,249840,90
66,41,249840,90
71,49,249960,90
59,41,249960,90
66,41,249960,90
71,49,250080,90
59,41,250080,90
66,41,250080,90
70,52,250200,120
59,44,250200,120
66,44,250200,120
71,51,250320,90
59,43,250320,90
66,43,250320,90
69,54,250440,120
59,45,250440,120
66,45,250440,120
71,51,250560,90
59,43,250560,90
66,43,250560,90
52,43,250650,270
59,45,250665,255
68,54,250680,240
71,54,250920,120
64,45,250920,120
68,45,250920,120
80,54,251160,120
76,45,251160,120
40,54,251640,120
71,54,251880,120
68,45,251880,120
68,45,252000,120
64,38,252000,120
52,51,252120,120
76,54,252360,120
73,45,252360,120
73,47,252480,120
69,40,252480,120
40,53,252600,120
71,54,252840,160
68,45,252840,160
64,47,253000,80
68,53,253080,80
51,54,253560,960
71,49,253680,90
59,41,253680,90
66,41,253680,90
71,49,253800,90
59,41,253800,90
66,41,253800,90
71,49,253920,90
59,41,253920,90
66,41,253920,90
70,52,254040,120
59,44,254040,120
66,44,254040,120
71,51,254160,120
59,43,254160,90
66,43,254160,90
69,54,254280,120
59,45,254280,120
66,45,254280,120
71,51,254400,120
59,43,254400,90
66,43,254400,90
52,48,254520,480
71,45,254640,90
59,37,254640,90
68,37,254640,90
71,46,254760,90
59,39,254760,90
68,39,254760,90
71,48,254880,90
59,40,254880,90
68,40,254880,90
51,54,255000,480
70,49,255120,90
59,41,255120,90
66,41,255120,90
71,51,255240,120
59,42,255240,120
66,42,255240,120
69,45,255360,120
59,38,255360,90
66,38,255360,90
52,48,255480,480
71,45,255600,90
59,37,255600,90
68,37,255600,90
71,46,255720,90
59,39,255720,90
68,39,255720,90
71,48,255840,90
59,40,255840,90
68,40,255840,90
51,54,255960,480
70,49,256080,90
59,41,256080,90
66,41,256080,90
71,51,256200,120
59,42,256200,120
66,42,256200,120
69,45,256320,75
59,38,256320,75
66,38,256320,75
52,48,256395,165
59,48,256410,150
64,48,256425,135
68,52,256440,120
47,48,256680,120
40,48,256685,120
59,47,256920,240
68,49,256920,240
71,54,256920,240
40,43,257158,240
47,49,257159,240
64,49,257400,240
71,49,257400,240
74,54,257400,240
62,49,257720,80
66,56,257720,80
61,47,257800,80
64,54,257800,80
63,53,257880,80
60,45,257880,80
62,51,257960,80
59,44,257960,80
71,48,258360,80
74,55,258360,80
70,46,258440,80
73,54,258440,80
69,45,258520,80
72,52,258520,80
68,42,258600,80
71,49,258600,80
83,59,259000,80
80,52,259000,80
82,57,259080,80
79,50,259080,80
81,55,259160,80
78,48,259160,80
80,54,259240,80
76,46,259240,80
86,58,259640,80
90,65,259640,80
85,56,259720,80
88,63,259720,80
84,54,259800,80
87,62,259800,80
83,53,259880,80
86,60,259880,80
62,42,264240,240
55,35,264240,240
62,33,264480,120
55,27,264480,120
59,34,264720,120
53,28,264720,120
60,34,264840,120
52,28,264840,120
59,34,264960,120
53,28,264960,120
60,40,265080,120
52,34,265080,120
40,40,265560,480
56,40,265800,240
57,61,266040,40
45,46,266040,40
47,39,266120,40
59,48,266120,40
45,39,266200,40
57,48,266200,40
56,54,266280,40
44,45,266280,40
45,41,266360,40
57,49,266360,40
47,41,266440,25
59,49,266440,25
61,61,266520,40
49,46,266520,40
48,43,266600,40
60,51,266600,40
50,43,266680,40
62,51,266680,40
61,56,266760,40
49,46,266760,40
47,43,266840,40
59,51,266840,40
45,43,266920,40
57,51,266920,40
54,56,267000,40
42,58,267000,40
44,41,267080,40
56,49,267080,40
42,41,267160,40
54,49,267160,40
53,52,267240,40
41,44,267240,40
42,41,267320,40
54,49,267320,40
46,41,267400,40
58,49,267400,40
59,61,267480,40
47,45,267480,40
49,39,267560,40
61,48,267560,40
47,39,267640,40
59,48,267640,40
58,52,267720,40
46,44,267720,40
47,41,267800,40
59,49,267800,40
45,41,267880,40
57,49,267880,40
56,62,267960,40
44,52,267960,40
66,51,268040,40
54,43,268040,40
52,43,268120,40
64,51,268120,40
51,48,268200,40
63,57,268200,40
64,52,268280,40
52,44,268280,40
44,44,268360,40
56,52,268360,40
42,45,268440,40
54,55,268440,40
56,50,268520,40
44,42,268520,40
42,42,268600,40
54,50,268600,40
41,45,268680,40
53,55,268680,40
54,50,268760,40
42,42,268760,40
35,42,268840,40
47,50,268840,40
52,54,268920,80
40,45,268920,80
56,48,269000,80
44,40,269000,80
59,49,269080,80
47,41,269080,80
64,54,269160,60
52,45,269160,60
56,45,269160,60
68,49,269240,80
56,42,269240,80
71,54,269320,80
59,45,269320,80
76,63,269400,40
64,54,269400,40
64,59,269480,30
59,50,269480,30
52,50,269480,30
63,54,269560,30
59,45,269560,30
53,45,269560,30
62,62,269640,30
60,51,269640,30
54,51,269640,30
59,54,269720,30
55,45,269720,30
62,54,269800,30
56,45,269800,30
57,61,269880,40
45,46,269880,40
47,39,269960,40
59,48,269960,40
45,39,270040,40
57,48,270040,40
56,54,270120,40
44,45,270120,40
45,41,270200,40
57,49,270200,40
47,41,270280,25
59,49,270280,25
61,61,270360,40
49,46,270360,40
48,43,270440,40
60,51,270440,40
50,43,270520,40
62,51,270520,40
61,56,270600,40
49,46,270600,40
47,43,270680,40
59,51,270680,40
45,43,270760,40
57,51,270760,40
54,54,270840,80
42,45,270840,80
45,40,270920,80
57,48,270920,80
50,40,271000,80
62,48,271000,80
66,52,271080,60
54,44,271080,60
69,54,271160,80
57,45,271160,80
73,58,271241,80
61,49,271241,80
74,61,271320,80
62,51,271320,80
62,42,271920,90
52,35,271920,90
59,35,271920,90
62,42,272040,90
52,35,272040,90
59,35,272040,90
62,42,272160,90
52,35,272160,90
59,35,272160,90
62,46,272280,240
52,39,272280,240
59,39,272280,240
40,36,272475,165
47,36,272490,150
50,36,272505,135
56,43,272520,120
57,61,272760,40
45,46,272760,40
47,39,272840,40
59,48,272840,40
45,39,272920,40
57,48,272920,40
56,54,273000,40
44,45,273000,40
45,41,273080,40
57,49,273080,40
47,41,273160,25
59,49,273160,25
61,61,273240,40
49,46,273240,40
48,43,273320,40
60,51,273320,40
50,43,273400,40
62,51,273400,40
61,56,273480,40
49,46,273480,40
47,43,273560,40
59,51,273560,40
45,43,273640,40
57,51,273640,40
54,54,273720,80
42,45,273720,80
45,40,273800,80
57,48,273800,80
50,40,273880,80
62,48,273880,80
66,52,273960,60
54,44,273960,60
69,54,274040,80
57,45,274040,80
62,49,274121,80
74,58,274121,80
78,61,274200,80
66,51,274200,80
71,56,274440,120
62,47,274440,120
69,52,274560,120
61,44,274560,120
59,44,274680,120
62,45,274680,120
68,54,274680,120
40,45,274875,165
47,47,274890,150
50,50,274905,135
56,52,274920,120
45,42,276090,150
52,46,276105,255
61,62,276120,240
40,54,276240,120
57,60,276360,120
52,50,276360,120
49,42,276360,120
52,55,276480,75
40,55,276480,75
47,50,276555,165
52,50,276570,270
56,50,276585,255
62,62,276600,240
40,53,276720,120
56,59,276840,240
50,50,276840,120
40,54,276960,120
57,59,277080,120
49,50,277080,120
52,50,277080,120
76,54,277200,90
64,45,277200,90
73,45,277200,90
76,56,277320,90
64,47,277320,90
73,47,277320,90
76,59,277440,90
64,50,277440,90
73,50,277440,90
56,62,277560,240
75,59,277680,120
64,38,277680,240
72,48,277680,120
76,59,277800,120
73,50,277800,120
74,59,277920,90
64,50,277920,90
71,50,277920,90
45,47,278010,150
52,54,278025,255
61,72,278040,240
40,54,278160,120
57,61,278280,120
52,50,278280,120
49,40,278280,120
52,55,278400,75
40,55,278400,75
47,50,278475,165
52,50,278490,270
56,50,278505,255
62,70,278520,240
40,53,278640,120
56,64,278760,240
50,50,278760,120
40,54,278880,120
57,59,279000,120
49,50,279000,120
52,50,279000,120
76,51,279120,90
64,43,279120,90
73,43,279120,90
76,53,279240,90
64,45,279240,90
73,45,279240,90
76,55,279360,90
64,47,279360,90
73,47,279360,90
56,62,279480,240
75,55,279600,120
64,40,279600,240
72,47,279600,120
76,55,279720,120
73,47,279720,120
74,55,279840,120
64,47,279840,120
71,47,279840,120
57,59,279960,120
73,51,280080,90
64,43,280080,90
69,43,280080,90
73,53,280200,90
64,45,280200,90
69,45,280200,90
73,55,280320,90
64,47,280320,90
69,47,280320,90
53,62,280440,240
72,55,280560,120
61,41,280560,240
68,47,280560,120
73,55,280680,120
69,47,280680,120
71,55,280800,120
61,47,280800,120
68,47,280800,120
54,59,280920,120
69,51,281040,90
61,43,281040,90
66,43,281040,90
69,53,281160,90
61,45,281160,90
66,45,281160,90
69,55,281280,90
61,47,281280,90
66,47,281280,90
49,62,281400,240
68,55,281520,120
57,47,281520,240
65,47,281520,120
69,55,281640,120
66,47,281640,120
67,55,281760,90
57,47,281760,90
64,47,281760,90
50,52,281850,150
57,52,281865,135
66,62,281880,120
38,54,282000,45
45,55,282120,45
54,55,282240,34
47,52,282330,113
54,52,282345,102
62,62,282360,90
35,54,282480,45
42,55,282600,45
50,55,282720,34
52,62,282810,150
59,52,282825,135
68,62,282840,120
40,54,282960,45
47,55,283080,45
56,55,283200,34
49,52,283290,113
56,52,283305,102
64,62,283320,90
37,54,283440,45
44,55,283560,45
52,55,283680,34
54,62,283770,150
61,52,283785,135
69,62,283800,120
42,54,283920,45
49,55,284040,45
57,55,284160,34
50,52,284250,113
57,52,284265,102
65,62,284280,90
38,54,284400,45
45,55,284520,45
53,55,284640,34
44,51,284730,150
52,51,284745,135
59,61,284760,120
32,57,284920,80
35,49,285000,60
32,57,285080,60
38,50,285160,60
32,57,285240,60
40,50,285320,60
32,57,285400,60
44,48,285480,60
32,56,285560,60
47,49,285640,60
32,56,285720,60
50,48,285800,60
32,56,285880,60
52,49,285960,60
32,56,286040,60
56,49,286120,60
32,56,286200,60
59,48,286280,60
32,56,286360,60
62,48,286440,60
32,56,286520,60
64,51,286600,60
32,61,286680,120
56,62,287130,240
71,70,287160,210
57,62,287370,240
72,70,287400,210
58,62,287850,240
73,69,287880,210
59,62,288090,240
74,70,288120,210
59,60,288570,240
74,66,288600,210
60,58,288810,240
75,66,288840,210
61,58,289290,270
76,62,289320,240
77,69,289560,240
62,58,289560,240
77,68,290280,240
62,57,290280,240
78,68,291000,240
63,57,291000,240
78,69,291720,240
63,58,291720,240
64,36,295320,120
65,37,295440,120
66,39,295560,120
67,40,295680,120
68,42,295800,120
69,43,295920,120
70,45,296040,120
71,46,296160,120
72,47,296280,120
73,49,296400,120
74,50,296520,120
75,52,296640,120
76,55,296760,120
77,42,296880,120
78,44,297000,120
79,45,297120,120
80,46,297240,120
81,48,297360,120
82,50,297480,120
83,52,297600,120
84,53,297720,120
85,54,297840,120
86,56,297960,120
87,58,298080,120
88,55,298200,120
90,52,298320,120
91,54,298440,120
92,56,298560,120
93,58,298680,120
94,60,298800,120
95,63,298920,120
94,59,299040,120
93,58,299160,120
92,57,299280,120
91,56,299400,120
90,55,299520,120
88,55,299640,120
90,52,299760,120
91,54,299880,120
92,56,300000,120
93,58,300120,120
94,60,300240,120
95,63,300360,120
94,59,300480,120
93,58,300600,120
92,57,300720,120
91,56,300840,120
90,55,300960,120
88,55,301080,120
90,52,301200,120
91,54,301320,120
92,55,301440,120
93,57,301560,120
94,59,301680,120
95,61,301800,120
96,63,301920,120
97,64,302040,120
98,66,302160,120
97,63,302280,120
96,63,302400,120
95,62,302520,120
92,62,302640,120
89,60,302760,120
86,57,302880,120
85,55,303000,120
84,53,303120,120
83,51,303240,120
84,48,303360,120
85,53,303480,120
86,51,303600,120
85,50,303720,120
84,48,303840,120
83,47,303960,120
80,45,304080,120
77,45,304200,120
74,45,304320,120
73,45,304440,120
72,45,304560,120
71,46,304680,120
72,48,304800,120
73,48,304920,120
74,46,305040,120
73,45,305160,120
71,44,305280,120
68,36,305400,120
71,37,305520,120
73,40,305640,120
74,40,305760,120
73,40,305880,120
71,39,306000,120
64,37,306120,120
71,36,306240,120
73,37,306360,120
74,39,306480,120
73,37,306600,120
71,37,306720,120
66,36,306840,120
71,36,306960,120
73,37,307080,120
74,38,307200,120
73,37,307320,120
71,36,307440,120
67,35,307560,120
71,34,307680,120
73,35,307800,120
74,36,307920,120
73,36,308040,120
71,34,308160,120
68,34,308280,120
71,34,308400,120
74,34,308520,240
56,35,313800,120
64,31,313920,120
45,38,314040,120
52,31,314160,120
57,34,314280,120
64,31,314400,120
56,36,314520,120
64,31,314640,120
45,35,314760,120
52,31,314880,120
57,34,315000,120
64,31,315120,120
59,31,315240,120
64,31,315360,120
56,36,315480,120
64,31,315600,120
52,35,315720,120
68,31,315840,120
53,35,315960,120
69,31,316080,120
54,35,316200,120
70,31,316320,120
55,36,316440,120
71,31,316560,120
56,36,316680,120
72,31,316800,120
45,38,316920,120
52,31,317040,120
57,34,317160,120
64,31,317280,120
56,36,317400,120
64,31,317520,120
45,35,317640,120
52,31,317760,120
57,34,317880,120
64,31,318000,120
59,31,318120,120
64,31,318240,120
56,36,318360,120
64,31,318480,120
52,35,318600,120
68,31,318720,120
53,35,318840,120
69,31,318960,120
54,35,319080,120
70,31,319200,120
55,36,319320,120
71,31,319440,120
56,36,319560,120
72,31,319680,120
45,38,319800,120
52,31,319920,120
61,34,320040,120
64,31,320160,120
57,36,320280,120
61,31,320400,120
50,35,320520,120
59,31,320640,120
62,34,320760,120
66,31,320880,120
59,31,321000,120
62,31,321120,120
52,38,321240,120
61,31,321360,120
69,34,321480,120
73,31,321600,120
64,36,321720,120
69,31,321840,120
52,35,321960,120
62,31,322080,120
68,34,322200,120
71,31,322320,120
62,31,322440,120
68,31,322560,120
61,32,322680,120
64,32,322680,120
64,33,322800,120
69,34,322920,120
73,34,323040,120
76,35,323160,120
78,36,323280,120
80,36,323400,120
76,36,323520,120
71,31,323640,120
73,31,323760,120
74,33,323880,120
76,31,324000,120
78,36,324120,120
74,36,324240,120
70,36,324360,120
65,37,324480,120
62,38,324600,120
60,38,324720,120
59,41,324840,120
64,38,324960,120
56,38,325080,120
64,36,325200,120
52,36,325320,120
56,36,325320,120
64,34,325440,120
45,38,325560,120
52,31,325680,120
57,34,325800,120
64,31,325920,120
56,36,326040,120
64,31,326160,120
45,35,326280,120
52,31,326400,120
57,34,326520,120
64,31,326640,120
59,31,326760,120
64,31,326880,120
56,36,327000,120
64,31,327120,120
52,35,327240,120
68,31,327360,120
53,35,327480,120
69,31,327600,120
54,35,327720,120
70,31,327840,120
55,36,327960,120
71,31,328080,120
56,36,328200,120
72,31,328320,120
45,38,328440,120
52,31,328560,120
57,34,328680,120
64,31,328800,120
56,36,328920,120
64,31,329040,120
45,35,329160,120
52,31,329280,120
57,34,329400,120
64,31,329520,120
59,31,329640,120
64,31,329760,120
56,36,329880,120
64,31,330000,120
52,35,330120,120
68,31,330240,120
53,35,330360,120
69,31,330480,120
54,35,330600,120
70,31,330720,120
55,36,330840,120
71,31,330960,120
56,36,331080,120
72,31,331200,120
45,38,331320,120
52,31,331440,120
61,34,331560,120
64,31,331680,120
57,36,331800,120
61,31,331920,120
50,35,332040,120
59,31,332160,120
62,34,332280,120
66,31,332400,120
59,31,332520,120
62,31,332640,120
52,38,332760,120
61,31,332880,120
69,34,333000,120
73,31,333120,120
64,36,333240,120
69,31,333360,120
52,35,333480,120
62,31,333600,120
68,34,333720,120
71,31,333840,120
62,31,333960,120
68,31,334080,120
45,32,334200,120
52,39,334200,120
57,45,334200,120
73,49,334680,120
57,41,334875,165
64,41,334890,150
67,41,334905,135
73,52,334920,120
71,49,335280,60
73,46,335400,120
62,43,335610,150
66,43,335625,135
74,54,335640,120
76,45,336000,60
74,48,336120,90
57,41,336315,165
64,41,336330,150
67,41,336345,135
73,52,336360,120
71,49,336720,60
73,46,336840,120
62,43,337080,120
74,54,337080,120
66,43,337080,120
52,43,338970,150
61,43,338985,135
69,54,339000,120
71,45,339360,60
69,48,339480,90
52,41,339675,165
59,41,339690,150
62,41,339705,135
68,52,339720,120
66,49,340080,60
68,46,340200,120
57,43,340440,120
69,54,340440,120
61,43,340440,120
45,41,341835,165
52,41,341850,150
55,41,341865,135
61,57,341880,120
59,54,342240,60
61,51,342360,120
50,43,342600,120
54,43,342600,120
62,59,342600,120
64,50,342960,60
62,53,343080,90
45,41,343320,120
52,41,343320,120
55,41,343320,120
61,56,343320,120
59,54,343680,60
61,51,343800,120
50,43,344040,120
54,43,344040,120
62,59,344040,120
40,43,345930,150
49,43,345945,135
57,55,345960,120
59,50,346320,60
57,53,346440,90
40,41,346635,165
47,41,346650,150
50,41,346665,135
56,54,346680,120
54,54,347040,60
56,51,347160,120
45,43,347400,120
49,43,347400,120
57,55,347400,120
57,58,349560,120
40,49,349560,120
49,49,349560,120
62,47,349920,60
59,40,349920,60
61,51,350040,90
57,43,350040,90
59,54,350280,120
52,45,350280,120
56,45,350280,120
57,50,350640,60
54,42,350640,60
59,52,350760,120
56,44,350760,120
45,55,350955,165
52,55,350970,150
57,55,350985,135
61,55,351000,120
33,31,351480,60
35,32,351540,60
37,33,351600,60
38,34,351660,60
40,35,351720,60
42,36,351780,60
44,37,351840,60
45,38,351900,60
47,39,351960,60
49,40,352020,60
50,41,352080,60
52,43,352140,60
54,44,352200,60
56,45,352260,60
57,45,352320,60
59,46,352380,60
61,47,352440,80
62,49,352520,80
63,51,352600,80
57,58,352920,120
40,49,352920,120
49,49,352920,120
62,47,353280,60
59,40,353280,60
61,51,353400,90
57,43,353400,90
59,54,353640,120
52,45,353640,120
56,45,353640,120
57,50,354000,60
54,42,354000,60
59,52,354120,120
56,44,354120,120
45,55,354315,165
52,55,354330,150
57,55,354345,135
61,55,354360,120
66,36,354840,60
64,36,354900,60
62,37,354960,60
61,38,355020,60
59,40,355080,60
57,41,355140,60
56,42,355200,60
54,43,355260,60
52,44,355320,60
50,45,355380,60
49,45,355440,60
47,46,355500,60
45,47,355560,80
44,49,355640,80
42,50,355720,80
52,63,355800,60
40,53,355800,60
49,53,355800,60
40,58,356040,120
49,58,356040,120
52,69,356040,120
45,58,356040,120
52,66,356400,60
40,56,356400,60
47,56,356400,60
50,56,356400,60
52,66,356520,90
40,56,356520,90
45,56,356520,60
49,56,356520,90
40,60,356760,120
52,71,356760,120
47,60,356760,120
44,60,356760,120
52,63,357120,60
40,52,357120,60
42,52,357120,60
45,52,357120,60
40,52,357240,120
52,63,357240,120
47,52,357240,120
44,52,357240,120
45,66,357480,470
40,56,357480,480
37,56,357480,480
33,56,357480,480
64,36,358200,60
52,30,358200,60
64,32,358560,30
52,27,358560,30
64,32,358680,60
52,27,358680,60
64,36,358920,60
57,30,358920,60
64,35,359280,30
57,29,359280,30
64,35,359400,60
57,29,359400,60
64,36,359640,60
52,30,359640,60
64,34,360000,30
52,28,360000,30
64,34,360120,60
52,28,360120,60
61,36,360360,240
57,30,360360,240
40,60,361080,360
52,71,361080,360
47,60,361080,360
44,60,361080,360
52,63,361440,120
40,52,361440,120
42,52,361440,120
45,52,361440,120
40,52,361560,240
52,63,361560,240
47,52,361560,240
44,52,361560,240
45,52,361800,360
49,52,361800,360
52,58,361800,360
52,66,362160,120
47,56,362160,120
50,56,362160,120
52,66,362280,240
45,56,362280,240
49,56,362280,240
40,60,362520,360
52,71,362520,360
47,60,362520,360
44,60,362520,360
52,63,362880,120
40,52,362880,120
42,52,362880,120
45,52,362880,120
40,52,363000,240
52,63,363000,240
47,52,363000,240
44,52,363000,240
45,66,363240,180
40,56,363240,180
37,56,363240,180
33,56,363240,180
62,45,365040,60
64,45,365160,60
66,54,365400,180
61,46,365760,60
63,46,365880,60
59,51,366120,180
56,47,366480,60
61,47,366600,60
60,52,366840,180
54,46,367200,60
47,46,367320,60
40,53,367560,180
59,48,367920,60
52,40,367920,60
59,48,368040,60
53,40,368040,60
60,51,368280,180
54,43,368280,180
59,48,368640,60
55,40,368640,60
62,48,368760,60
56,40,368760,60
61,54,369000,180
57,45,369000,180
45,37,369720,180
61,46,369720,180
52,39,369720,180
62,48,370800,60
50,40,370800,60
64,52,370920,60
52,44,370920,60
66,58,371160,180
54,49,371160,180
61,51,371520,60
49,43,371520,60
62,52,371640,60
50,44,371640,60
59,55,371880,180
52,46,371880,180
52,51,372240,60
47,43,372240,60
40,43,372240,60
54,51,372360,60
47,43,372360,60
42,43,372360,60
56,56,372600,180
47,47,372600,180
44,47,372600,180
51,49,372960,60
39,41,372960,60
52,49,373080,60
47,41,373080,60
40,41,373080,60
49,55,373320,180
37,46,373320,180
40,46,373320,180
45,46,373320,180
61,56,373560,120
57,47,373560,120
52,47,373560,120
64,61,373800,480
61,51,373800,480
57,51,373800,480
59,58,374280,60
44,48,374280,60
52,48,374280,60
60,58,374520,60
52,48,374520,60
44,48,374520,60
62,63,374760,180
52,52,374760,180
45,52,374760,180
61,56,375120,60
52,47,375120,60
45,47,375120,60
59,56,375240,60
50,47,375240,60
45,47,375240,60
57,64,375480,240
49,54,375480,240
40,54,375480,240
61,56,375840,60
52,47,375840,60
56,47,375840,60
59,56,375960,60
56,47,375960,60
50,47,375960,60
57,62,376200,120
45,52,376200,120
49,52,376200,120
45,59,376560,60
33,49,376560,60
47,60,376680,60
35,50,376680,60
49,65,376920,180
37,54,376920,180
45,59,377280,60
33,49,377280,60
41,59,377400,60
29,49,377400,60
40,63,377640,180
28,63,377640,180
59,50,378000,60
56,42,378000,60
56,50,378120,60
52,42,378120,60
52,59,378360,180
40,50,378360,180
45,50,378360,180
64,51,378720,60
61,43,378720,60
61,51,378840,60
57,43,378840,60
52,62,379080,240
40,52,379080,240
47,52,379080,240
59,50,379440,60
56,42,379440,60
56,50,379560,60
52,42,379560,60
71,53,379800,120
68,44,379800,120
68,53,380040,120
64,44,380040,120
83,53,380280,120
76,44,380280,120
83,59,380520,120
75,50,380520,120
71,47,380760,80
72,47,380840,80
73,47,380920,80
72,53,381000,120
61,50,381240,80
62,50,381320,80
63,50,381400,80
62,55,381480,120
49,47,381720,80
50,47,381800,80
51,47,381880,80
52,54,381960,120
64,38,382200,68
66,39,382264,67
68,39,382327,68
66,41,382402,68
64,41,382455,67
63,39,382518,68
61,37,382582,67
59,35,382645,68
57,36,382709,64
56,36,382773,67
54,38,382836,68
52,39,382900,67
51,40,382963,68
49,41,383027,68
47,42,383091,67
45,43,383154,68
44,45,383218,67
42,45,383280,60
40,55,383400,180
47,55,383400,180
52,63,383400,180
59,45,383760,60
56,37,383760,60
56,45,383880,60
52,37,383880,60
45,45,384120,240
40,45,384120,240
52,53,384120,240
64,45,384480,60
61,38,384480,60
57,38,384600,60
61,45,384600,60
52,55,384840,240
40,46,384840,240
47,46,384840,240
56,37,385200,60
59,45,385200,60
56,45,385320,60
52,37,385320,60
71,47,385560,120
68,39,385560,120
68,47,385800,120
64,39,385800,120
76,39,386040,120
83,47,386040,120
83,53,386280,120
75,45,386280,120
71,42,386520,80
72,42,386600,80
73,42,386680,80
72,47,386760,120
61,45,387000,80
62,45,387080,80
63,45,387160,80
62,49,387240,120
49,42,387480,80
50,42,387560,80
51,42,387640,80
52,53,387720,120
59,47,387960,80
60,47,388040,80
61,47,388120,80
60,53,388200,120
49,50,388440,80
50,50,388520,80
51,50,388600,80
50,55,388680,120
37,47,388920,80
38,47,389000,80
39,47,389080,80
40,59,389160,120
58,67,389400,180
46,53,389400,180
57,68,389640,180
45,54,389640,180
56,70,389880,180
44,56,389880,180
55,72,390120,180
43,58,390120,180
54,72,390360,180
42,58,390360,180
52,71,390600,120
40,58,390600,120
47,58,390600,120
68,67,391080,120
64,62,391200,120
92,72,391560,120
88,66,391680,120
52,71,392040,120
40,58,392040,120
47,58,392040,120
71,67,392520,120
68,61,392520,120
64,62,392640,120
92,72,393000,120
88,66,393120,120
40,50,393480,180
47,58,393495,165
50,64,393510,150
56,72,393525,135
88,56,393720,120
85,56,393720,120
83,58,393960,120
86,58,393960,120
85,59,394200,120
81,59,394200,120
83,61,394440,120
80,61,394440,120
81,62,394680,120
78,62,394680,120
80,63,394920,120
76,52,394920,120
78,63,395160,120
74,52,395160,120
76,63,395400,120
73,53,395400,120
74,64,395640,120
71,54,395640,120
73,66,395880,120
69,56,395880,120
71,68,396120,120
68,57,396120,120
69,68,396360,120
66,57,396360,120
68,69,396600,120
64,59,396600,120
66,70,396840,120
62,60,396840,120
64,72,397080,120
61,61,397080,120
62,75,397320,120
59,63,397320,120
61,76,397560,120
57,63,397560,120
59,76,397800,180
56,63,397800,180
57,77,398040,180
54,64,398040,180
57,79,398280,180
53,66,398280,180
57,81,398520,180
52,69,398520,180
57,82,398760,180
51,69,398760,180
52,84,399000,180
50,70,399000,180
40,70,399000,180
44,70,399000,180
45,89,399240,120
33,75,399240,120
40,75,399240,120
45,51,399960,180
52,51,399960,180
61,59,399960,180
62,69,401040,60
50,57,401040,60
64,69,401160,60
52,57,401160,60
66,78,401400,180
54,65,401400,180
61,67,401760,60
49,57,401760,60
63,67,401880,60
51,57,401880,60
59,77,402120,180
47,64,402120,180
56,69,402480,60
44,57,402480,60
61,69,402600,60
49,57,402600,60
60,77,402840,240
48,64,402840,240
54,66,403200,60
42,56,403200,60
47,66,403320,60
35,56,403320,60
52,72,403560,180
40,60,403560,180
47,60,403560,180
52,66,403920,60
40,56,403920,60
51,66,404040,60
39,56,404040,60
50,72,404280,240
38,60,404280,240
53,69,404640,60
41,57,404640,60
52,69,404760,60
40,57,404760,60
45,76,405000,180
40,76,405000,180
33,63,405000,180
57,80,405360,60
45,67,405360,60
59,82,405480,60
47,70,405480,60
61,86,405720,180
49,72,405720,180
57,80,406080,60
45,67,406080,60
56,80,406200,60
44,67,406200,60
54,86,406440,180
42,72,406440,180
47,70,406890,750
54,70,406905,735
62,83,406920,720
50,72,407640,60
38,60,407640,60
47,60,407640,60
52,77,407880,180
40,64,407880,180
47,64,407880,180
52,72,408240,60
47,62,408240,60
40,62,408240,60
54,72,408360,60
47,62,408360,60
42,62,408360,60
56,79,408600,180
47,66,408600,180
44,66,408600,180
47,58,408960,60
51,70,408960,60
39,58,408960,60
47,70,409080,60
52,58,409080,60
40,58,409080,60
49,76,409320,180
37,63,409320,180
40,63,409320,180
45,63,409320,180
61,77,409560,120
57,64,409560,120
52,64,409560,120
64,80,409800,480
61,67,409800,480
57,67,409800,480
59,77,410280,60
44,64,410280,60
52,64,410280,60
60,77,410520,60
52,64,410520,60
44,64,410520,60
62,80,410760,180
52,67,410760,180
45,67,410760,180
61,72,411120,60
52,62,411120,60
45,62,411120,60
60,72,411240,60
52,62,411240,60
45,62,411240,60
59,80,411480,180
51,67,411480,180
45,67,411480,180
58,72,411720,120
45,62,411720,120
50,62,411720,120
57,72,411960,60
49,62,411960,60
45,62,411960,60
57,81,412200,180
49,69,412200,180
40,69,412200,180
56,72,412440,120
48,62,412440,120
40,62,412440,120
57,72,412680,60
49,62,412680,60
40,62,412680,60
61,81,412920,480
56,69,412920,480
52,69,412920,480
59,73,413400,60
56,63,413400,60
50,63,413400,60
57,84,413640,240
45,71,413640,240
49,71,413640,240
69,75,414720,120
57,63,414720,120
69,75,414840,120
57,63,414840,120
69,81,415080,120
57,68,415080,120
45,72,416160,120
33,61,416160,120
45,72,416280,120
33,61,416280,120
45,80,416520,720
33,67,416520,720
48,49,416880,120
51,49,416880,120
54,49,416880,120
48,49,417000,240
51,49,417000,240
54,49,417000,240
45,64,417240,480
33,54,417240,480
48,50,417600,120
51,50,417600,120
54,50,417600,120
48,50,417720,240
51,50,417720,240
54,50,417720,240
33,49,417900,60
45,57,417900,60
45,80,417960,720
33,67,417960,720
48,49,418320,120
51,49,418320,120
54,49,418320,120
48,49,418440,240
51,49,418440,240
54,49,418440,240
45,64,418680,480
33,54,418680,480
48,50,419040,120
51,50,419040,120
54,50,419040,120
48,50,419160,240
51,50,419160,240
54,50,419160,240
46,80,419400,1440
34,67,419400,1440
51,49,419760,60
54,49,419760,60
51,49,419880,120
54,49,419880,120
51,49,420120,360
54,49,420120,360
49,50,420480,60
52,50,420480,60
49,50,420600,120
52,50,420600,120
46,49,420840,480
49,49,420840,360
52,49,420840,360
50,50,421200,60
53,50,421200,60
50,50,421320,120
53,50,421320,120
50,49,421560,360
53,49,421560,360
46,50,421920,60
51,50,421920,60
54,50,421920,60
46,50,422040,120
52,50,422040,120
55,50,422040,120
47,49,422280,120
53,49,422280,120
56,49,422280,120
71,75,423360,120
59,63,423360,120
71,75,423480,120
59,63,423480,120
71,81,423720,120
59,68,423720,120
35,61,424080,120
47,72,424080,120
35,61,424200,120
47,72,424200,120
35,61,424440,120
47,72,424440,120
50,50,424800,120
53,50,424800,120
56,50,424800,120
49,50,424920,240
53,50,424920,240
56,50,424920,240
35,49,425100,60
47,57,425100,60
48,80,425160,1440
36,67,425160,1440
53,49,425520,60
56,49,425520,60
53,49,425640,120
56,49,425640,120
53,49,425880,360
56,49,425880,360
51,50,426240,60
54,50,426240,60
51,50,426360,120
54,50,426360,120
48,49,426600,960
51,49,426600,360
54,49,426600,360
52,50,426960,60
55,50,426960,60
52,50,427080,120
55,50,427080,120
52,49,427320,360
55,49,427320,360
48,50,427680,60
53,50,427680,60
56,50,427680,60
48,50,427800,120
54,50,427800,120
57,50,427800,120
49,49,428040,120
55,49,428040,120
58,49,428040,120
73,75,429120,120
61,63,429120,120
73,75,429240,120
61,63,429240,120
73,81,429480,120
61,68,429480,120
43,51,429840,120
46,51,429840,120
37,51,429840,120
49,51,429840,120
42,51,429960,120
46,51,429960,120
37,51,429960,120
49,51,429960,120
43,57,430200,120
37,57,430200,120
49,57,430200,120
46,57,430211,120
38,50,430560,120
43,50,430560,120
46,50,430560,120
50,50,430560,120
46,50,430680,120
38,50,430680,120
43,50,430680,120
50,50,430680,120
43,49,430920,120
49,49,430920,120
39,49,430920,120
46,49,430920,120
51,49,430920,120
75,75,432000,120
63,63,432000,120
75,75,432120,120
63,63,432120,120
75,81,432360,120
63,68,432360,120
49,51,432720,120
46,51,432720,120
39,51,432720,120
51,51,432720,120
46,51,432840,120
49,51,432840,120
39,51,432840,120
51,51,432840,120
46,57,433080,120
39,57,433080,120
51,57,433080,120
49,57,433091,120
52,41,433440,120
40,24,433440,120
46,24,433440,120
49,24,433440,120
52,41,433560,120
49,24,433560,120
40,24,433560,120
46,24,433560,120
41,49,433680,60
53,49,433740,60
61,51,433800,490
58,42,433800,490
60,45,434280,240
57,35,434280,240
61,45,434520,490
58,35,434520,490
63,52,435000,240
60,42,435000,240
57,42,435240,240
60,52,435240,240
41,45,435480,120
40,48,435600,120
39,50,435720,120
38,51,435840,120
37,52,435960,120
36,54,436080,120
35,54,436200,120
34,56,436320,120
33,57,436440,120
53,42,436680,490
65,51,436680,490
62,42,436680,490
52,35,437160,240
64,45,437160,240
61,35,437160,240
53,35,437400,490
65,45,437400,490
62,35,437400,490
55,42,437880,240
67,52,437880,240
64,42,437880,240
52,42,438120,240
61,42,438120,240
64,52,438120,240
45,45,438360,120
44,48,438480,120
43,50,438600,120
42,51,438720,120
41,52,438840,120
40,54,438960,120
39,54,439080,120
38,56,439200,120
37,57,439320,120
57,42,439560,490
69,51,439560,490
66,42,439560,490
56,35,440040,240
68,45,440040,240
65,35,440040,240
57,35,440280,490
69,45,440280,490
66,35,440280,490
59,42,440760,240
71,52,440760,240
68,42,440760,240
56,42,441000,240
65,42,441000,240
68,52,441000,240
49,45,441240,120
48,48,441360,120
47,50,441480,120
46,51,441600,120
45,52,441720,120
44,54,441840,120
41,54,441960,120
38,56,442080,120
37,57,442200,120
57,51,442440,490
54,42,442440,490
56,45,442920,240
53,35,442920,240
57,45,443160,490
54,35,443160,490
59,52,443640,240
56,42,443640,240
53,42,443880,240
56,52,443880,240
61,42,444240,120
49,24,444240,120
61,42,444360,120
49,24,444360,120
61,49,444600,120
49,28,444600,120
61,40,444960,120
49,23,444960,120
61,40,445080,120
49,23,445080,120
38,36,445320,120
39,37,445560,120
40,38,445800,120
41,38,446040,120
42,39,446280,120
43,40,446520,120
44,40,446760,120
45,42,447000,120
46,45,447240,120
47,48,447480,120
38,65,447720,480
48,71,447720,480
37,58,448200,240
49,72,448200,240
61,60,448440,120
60,59,448560,120
59,59,448680,120
58,59,448800,120
57,59,448920,120
56,58,449040,120
55,58,449160,120
54,58,449280,120
53,58,449400,120
51,57,449520,120
50,57,449640,120
49,57,449760,120
48,57,449880,120
47,57,450000,120
46,56,450120,120
45,56,450240,120
44,56,450360,120
43,56,450480,120
42,55,450600,120
41,55,450720,120
40,55,450840,120
38,55,450960,120
38,36,451080,120
39,44,451320,120
40,45,451560,120
41,45,451800,120
42,45,452040,120
43,46,452280,120
44,46,452520,120
45,50,452760,120
46,53,453000,120
39,60,453240,720
47,74,453240,720
40,36,453960,120
41,44,454200,120
42,45,454440,120
43,45,454680,120
44,45,454920,120
45,46,455160,120
46,46,455400,120
47,50,455640,120
48,53,455880,120
41,64,456120,720
49,73,456120,720
42,63,456840,120
48,63,456840,120
51,63,456840,120
57,72,456840,120
80,73,457200,120
78,74,457440,120
76,77,457680,120
74,78,457920,120
72,80,458160,120
70,81,458400,120
68,83,458640,120
66,84,458880,120
64,86,459120,120
62,88,459320,80
54,89,459480,120
57,89,459480,120
49,90,459720,120
41,75,459720,120
44,75,459720,120
29,70,459960,120
37,81,459960,120
30,70,460200,120
38,81,460200,120
31,70,460440,120
39,81,460440,120
32,70,460680,120
40,81,460680,120
33,70,460920,120
41,81,460920,120
34,79,461160,120
42,90,461160,120
35,72,461340,120
43,83,461340,120
36,72,461520,120
44,83,461520,120
37,72,461700,120
45,83,461700,120
38,72,461880,120
46,83,461880,120
39,72,462060,120
47,83,462060,120
40,72,462240,120
48,83,462240,120
41,72,462420,120
49,83,462420,120
42,74,462600,120
48,74,462600,120
51,74,462600,120
57,85,462600,120
80,73,462960,120
78,74,463200,120
76,77,463440,120
74,78,463680,120
72,80,463920,120
70,81,464160,120
68,83,464400,120
66,84,464640,120
64,86,464880,120
62,88,465080,80
54,89,465240,120
57,89,465240,120
49,90,465480,120
41,75,465480,120
44,75,465480,120
29,70,465720,120
37,81,465720,120
30,70,465960,120
38,81,465960,120
31,70,466200,120
39,81,466200,120
32,70,466380,120
40,81,466380,120
33,70,466560,120
41,81,466560,120
34,70,466740,120
42,81,466740,120
35,79,466920,120
43,90,466920,120
36,72,467100,120
44,83,467100,120
37,72,467280,120
45,83,467280,120
38,72,467460,120
46,83,467460,120
39,72,467640,120
47,83,467640,120
40,72,467820,120
48,83,467820,120
37,72,468000,120
41,72,468000,120
49,83,468000,120
35,72,468180,120
47,83,468180,120
45,83,468360,144
33,70,468360,144
37,70,468360,144
42,70,468360,144
55,61,468480,144
57,63,468720,144
59,66,468960,144
61,68,469200,144
63,71,469440,144
65,74,469680,144
54,83,469800,144
46,70,469800,144
49,70,469800,144
65,72,469920,144
63,70,470160,144
61,67,470400,144
59,65,470640,144
57,62,470880,144
55,58,471120,144
47,76,471360,144
35,64,471360,144
38,64,471360,144
43,64,471360,144
56,62,471480,144
58,65,471720,144
60,67,471960,144
62,70,472200,144
64,72,472440,144
66,75,472680,144
56,83,472920,144
48,70,472920,144
51,70,472920,144
67,76,473040,144
65,72,473280,144
63,68,473520,144
61,65,473760,144
59,61,474000,144
57,57,474240,144
49,76,474480,144
37,64,474480,144
42,64,474480,144
45,64,474480,144
58,79,474600,144
60,65,474840,144
62,67,475080,144
64,71,475320,144
66,75,475560,144
68,78,475800,144
58,83,476040,144
49,70,476040,144
52,70,476040,144
55,70,476046,120
69,81,476160,144
67,78,476400,144
65,74,476640,144
63,70,476880,144
61,66,477120,144
59,62,477360,144
38,76,477600,120
50,90,477600,120
43,76,477600,120
47,76,477600,120
59,75,477960,120
55,63,477960,120
50,63,477960,120
59,75,478080,120
55,63,478080,120
50,63,478080,120
59,80,478320,120
55,68,478320,120
50,68,478320,120
47,76,478680,120
43,64,478680,120
38,64,478680,120
47,76,478800,120
43,64,478800,120
38,64,478800,120
38,67,479040,120
43,67,479040,120
47,79,479040,120
71,75,479400,120
67,63,479400,120
62,63,479400,120
71,75,479520,120
67,63,479520,120
62,63,479520,120
71,80,479760,120
67,68,479760,120
62,68,479760,120
54,63,480840,120
60,75,480840,120
57,63,480840,120
50,63,480840,120
54,63,480960,120
60,75,480960,120
57,63,480960,120
50,63,480960,120
54,68,481200,120
60,80,481200,120
57,68,481200,120
50,68,481200,120
42,64,481560,120
48,76,481560,120
45,64,481560,120
38,64,481560,120
42,64,481680,120
48,76,481680,120
45,64,481680,120
38,64,481680,120
42,67,481920,120
38,67,481920,120
45,67,481920,120
48,79,481920,120
66,56,482280,120
72,67,482280,120
69,56,482280,120
62,56,482280,120
66,56,482400,120
72,67,482400,120
69,56,482400,120
62,56,482400,120
60,75,483720,120
56,63,483720,120
51,63,483720,120
60,75,483840,120
56,63,483840,120
51,63,483840,120
60,80,484080,120
56,68,484080,120
51,68,484080,120
48,76,484440,120
44,64,484440,120
39,64,484440,120
48,76,484560,120
44,64,484560,120
39,64,484560,120
39,67,484800,120
44,67,484800,120
48,79,484800,120
72,75,485160,120
68,63,485160,120
63,63,485160,120
72,75,485280,120
68,63,485280,120
63,63,485280,120
72,80,485520,120
68,68,485520,120
63,68,485520,120
55,63,486600,120
61,75,486600,120
58,63,486600,120
51,63,486600,120
55,63,486720,120
61,75,486720,120
58,63,486720,120
51,63,486720,120
55,68,486960,120
61,80,486960,120
58,68,486960,120
51,68,486960,120
43,64,487320,120
49,76,487320,120
46,64,487320,120
39,64,487320,120
43,64,487440,120
49,76,487440,120
46,64,487440,120
39,64,487440,120
55,63,488040,120
61,75,488040,120
58,63,488040,120
52,63,488040,120
55,63,488160,120
61,75,488160,120
58,63,488160,120
52,63,488160,120
55,68,488400,120
61,80,488400,120
58,68,488400,120
52,68,488400,120
43,64,488760,120
49,76,488760,120
46,64,488760,120
40,64,488760,120
43,64,488880,120
49,76,488880,120
46,64,488880,120
40,64,488880,120
53,63,489480,120
61,75,489480,120
58,63,489480,120
53,63,489600,120
61,75,489600,120
58,63,489600,120
53,68,489840,120
61,80,489840,120
58,68,489840,120
41,64,490200,120
49,76,490200,120
46,64,490200,120
41,64,490320,120
49,76,490320,120
46,64,490320,120
42,61,490560,120
54,61,490560,120
53,60,490680,120
52,59,490800,120
51,59,490920,120
50,58,491040,120
49,57,491160,120
48,56,491280,120
47,55,491400,120
46,54,491520,120
45,53,491640,120
44,53,491760,120
43,52,491880,120
42,61,492000,111
41,60,492111,110
40,59,492221,111
39,59,492331,111
38,58,492442,110
37,57,492552,111
36,56,492663,110
35,55,492773,111
34,54,492883,111
33,53,492994,110
32,53,493104,111
31,52,493215,110
30,52,493325,115
29,67,493440,240
36,67,493440,240
41,67,493440,240
40,70,493680,240
41,66,493920,240
40,73,494160,240
52,73,494160,240
41,73,494400,240
53,73,494400,240
64,82,494640,240
52,82,494640,240
53,82,494880,240
65,82,494880,240
40,70,495120,240
52,70,495120,240
41,68,495360,240
53,68,495360,240
28,69,495600,240
40,69,495600,240
29,65,495840,240
41,65,495840,240
29,71,496080,240
41,71,496080,240
49,89,496320,120
34,75,496320,120
40,75,496320,120
43,75,496320,120
50,84,496560,120
35,71,496560,120
51,89,496800,120
36,75,496800,120
52,84,497040,120
37,71,497040,120
53,89,497280,120
38,75,497280,120
54,85,497520,120
39,72,497520,120
55,89,497760,120
40,75,497760,120
56,84,498000,120
41,71,498000,120
57,89,498240,120
42,75,498240,120
58,86,498480,120
42,73,498480,120
61,102,498720,480
46,86,498720,480
52,86,498720,480
55,86,498720,480
41,67,499150,290
48,67,499160,280
57,72,499170,270
52,73,499440,240
40,70,499440,240
53,72,499680,240
41,67,499680,240
52,76,499920,240
64,76,499920,240
53,76,500160,240
65,76,500160,240
76,83,500400,240
64,83,500400,240
65,83,500640,240
77,83,500640,240
52,70,500880,240
64,70,500880,240
53,68,501120,240
65,68,501120,240
40,69,501360,240
52,69,501360,240
41,65,501600,240
53,65,501600,240
29,71,501840,240
41,71,501840,240
49,89,502080,120
34,75,502080,120
40,75,502080,120
43,75,502080,120
50,84,502320,120
35,71,502320,120
51,89,502560,120
36,75,502560,120
52,84,502800,120
37,71,502800,120
53,89,503040,120
38,75,503040,120
54,85,503280,120
39,72,503280,120
55,89,503520,120
40,75,503520,120
56,84,503760,120
41,71,503760,120
57,89,504000,120
42,75,504000,120
58,86,504240,120
42,73,504240,120
61,102,504480,480
46,86,504480,480
52,86,504480,480
55,86,504480,480
41,67,504910,290
48,67,504920,280
57,72,504930,270
52,70,505200,240
53,67,505440,240
64,76,505680,240
65,76,505920,240
76,84,506160,240
77,83,506400,480
41,51,506880,73
42,52,506953,73
43,53,507027,73
44,54,507100,73
45,55,507173,73
46,56,507246,73
47,57,507319,73
48,57,507393,73
49,58,507466,73
50,59,507539,73
51,60,507612,73
52,61,507685,73
53,62,507758,82
54,89,507840,1920
42,74,507840,1920
45,81,509760,1920
33,69,509760,1920
49,81,511680,1920
37,69,511680,1920
40,80,513600,1920
28,68,513600,1920
41,74,515520,480
29,62,515520,480
65,54,516480,480
57,45,516480,480
60,45,516480,480
65,49,516960,90
57,41,516960,90
60,41,516960,90
65,49,517200,90
57,41,517200,90
60,41,517200,90
70,54,517440,90
61,45,517440,90
65,45,517440,90
70,49,517920,90
61,41,517920,90
65,41,517920,90
70,53,518400,480
61,45,518400,480
65,45,518400,480
73,49,518880,90
61,41,518880,90
65,41,518880,90
70,49,519120,90
61,41,519120,90
65,41,519120,90
69,53,519360,90
60,45,519360,90
65,45,519360,90
65,49,519840,90
57,41,519840,90
60,41,519840,90
77,54,520320,480
69,45,520320,480
72,45,520320,480
77,49,520800,90
69,41,520800,90
72,41,520800,90
77,49,521040,90
69,41,521040,90
72,41,521040,90
82,54,521280,90
73,45,521280,90
77,45,521280,90
82,49,521760,90
73,41,521760,90
77,41,521760,90
82,53,522240,480
73,45,522240,480
77,45,522240,480
85,49,522720,90
73,41,522720,90
77,41,522720,90
82,49,522960,90
73,41,522960,90
77,41,522960,90
81,54,523200,480
72,45,523200,480
77,45,523200,480
84,57,523680,480
69,48,523680,480
77,48,523680,480
85,60,524160,480
70,51,524160,480
77,51,524160,480
82,55,524640,480
73,46,524640,480
77,46,524640,480
81,59,525120,480
72,50,525120,480
77,50,525120,480
84,63,525600,480
69,53,525600,480
77,53,525600,480
85,67,526080,480
70,56,526080,480
77,56,526080,480
82,63,526560,480
73,53,526560,480
77,53,526560,480
72,53,527040,960
77,53,527040,960
81,63,527040,960
33,48,530400,480
36,53,530400,480
42,45,530400,240
41,44,530640,240
34,46,530880,960
37,53,530880,960
41,36,530880,240
42,38,531120,240
45,39,531360,240
46,41,531600,240
48,45,531840,240
49,46,532080,240
52,48,532320,240
53,56,532560,230
53,57,532800,960
52,51,533040,240
49,50,533280,240
48,49,533520,240
36,45,533760,960
39,53,533760,960
46,47,533760,240
45,45,534000,240
42,45,534240,240
41,44,534480,240
37,53,534720,960
41,36,534720,240
42,38,534960,240
45,39,535200,240
46,41,535440,240
48,45,535680,240
49,46,535920,240
52,48,536160,240
53,56,536400,240
53,57,536640,960
52,51,536880,240
49,50,537120,240
48,49,537360,240
38,45,537600,960
44,53,537600,960
47,58,537600,960
41,45,537840,240
42,46,538080,240
43,45,538320,240
37,47,538560,960
44,56,538560,960
47,58,538560,960
41,48,538800,240
42,49,539040,240
43,48,539280,240
36,50,539520,960
44,59,539520,960
48,63,539520,960
41,51,539760,240
42,52,540000,240
43,51,540240,240
38,53,540480,960
44,52,540480,960
50,67,540480,960
41,54,540720,240
42,54,540960,240
43,54,541200,240
34,59,541440,960
44,59,541440,478
50,70,541440,720
41,57,541680,240
50,58,541920,240
44,58,541920,480
40,58,542160,195
33,60,542355,525
40,64,542370,510
45,69,542385,495
49,74,542400,480
69,54,543360,480
61,45,543360,480
64,45,543360,480
69,49,543840,90
61,41,543840,90
64,41,543840,90
69,49,544080,90
61,41,544080,90
64,41,544080,90
74,54,544320,90
65,45,544320,90
69,45,544320,90
74,49,544800,90
65,41,544800,90
69,41,544800,90
74,53,545280,480
65,45,545280,480
69,45,545280,480
77,49,545760,90
69,41,545760,90
74,41,545760,90
74,49,546000,90
65,41,546000,90
69,41,546000,90
73,53,546240,90
64,45,546240,90
69,45,546240,90
69,49,546720,90
61,41,546720,90
64,41,546720,90
81,54,547200,480
73,45,547200,480
76,45,547200,480
81,49,547680,90
73,41,547680,90
76,41,547680,90
81,49,547920,90
73,41,547920,90
76,41,547920,90
86,54,548160,90
77,45,548160,90
81,45,548160,90
86,49,548640,90
77,41,548640,90
81,41,548640,90
86,53,549120,480
77,45,549120,480
81,45,549120,480
89,49,549600,120
81,41,549600,120
86,41,549600,120
86,49,549840,120
77,41,549840,120
81,41,549840,120
85,54,550080,420
76,45,550080,420
81,45,550080,420
73,48,550500,480
81,48,550530,450
88,57,550560,420
74,51,550980,540
81,51,551010,480
89,60,551040,480
86,55,551520,480
77,46,551520,480
81,46,551520,480
85,59,552000,420
76,50,552000,420
81,50,552000,420
73,53,552420,480
81,53,552450,450
88,63,552480,420
74,56,552900,540
81,56,552930,480
89,67,552960,480
86,63,553440,480
77,53,553440,480
81,53,553440,480
76,53,553920,960
81,53,553920,960
85,63,553920,960
37,48,557280,480
40,53,557280,480
46,45,557280,240
45,44,557520,240
38,46,557760,960
41,53,557760,960
45,36,557760,240
46,38,558000,240
49,39,558240,240
50,41,558480,240
52,45,558720,240
53,46,558960,240
56,48,559200,240
57,56,559440,220
57,57,559680,960
56,51,559920,240
53,50,560160,240
52,49,560400,240
40,45,560640,960
43,53,560640,960
50,47,560640,240
49,45,560880,240
46,45,561120,240
45,44,561360,220
41,53,561600,960
45,36,561600,960
46,38,561840,240
49,39,562080,240
50,41,562320,240
52,45,562560,240
53,46,562800,240
56,48,563040,240
57,56,563280,220
57,57,563520,960
56,51,563760,240
53,50,564000,240
52,49,564240,240
42,45,564480,960
48,53,564480,960
51,58,564480,960
45,45,564720,240
46,46,564960,240
47,45,565200,240
41,47,565440,960
48,56,565440,960
51,58,565440,960
45,48,565680,240
46,49,565920,240
47,48,566160,240
40,50,566400,960
48,59,566400,960
52,63,566400,960
45,51,566640,240
46,52,566880,240
47,51,567120,240
42,53,567360,960
48,52,567360,960
54,67,567360,960
45,54,567600,240
46,54,567840,240
47,54,568080,240
38,59,568320,960
48,59,568320,960
54,70,568320,240
45,57,568560,240
54,58,568800,240
47,58,568800,240
44,58,569040,240
49,64,569280,120
37,54,569280,120
44,54,569280,120
50,54,569520,120
38,45,569520,120
49,59,569760,120
37,50,569760,120
44,50,569760,120
50,52,570000,120
38,44,570000,120
49,61,570240,120
37,51,570240,120
54,54,570480,120
42,45,570480,120
53,62,570720,120
41,52,570720,120
50,54,570960,120
38,45,570960,120
49,60,571200,120
37,51,571200,120
50,55,571440,120
38,46,571440,120
49,60,571680,120
37,51,571680,120
50,54,571920,120
38,45,571920,120
49,61,572160,120
37,51,572160,120
54,54,572400,120
42,45,572400,120
53,62,572640,120
41,52,572640,120
50,54,572880,120
38,45,572880,120
49,60,573120,120
37,51,573120,120
50,55,573360,120
38,46,573360,120
49,60,573600,120
37,51,573600,120
50,54,573840,120
38,45,573840,120
49,64,574080,120
37,53,574080,120
56,56,574320,120
44,47,574320,120
53,65,574560,120
41,54,574560,120
50,56,574800,120
38,47,574800,120
49,63,575040,120
37,53,575040,120
50,57,575280,120
38,48,575280,120
49,63,575520,120
37,53,575520,120
50,56,575760,120
38,47,575760,120
49,64,576000,120
37,53,576000,120
50,56,576240,120
38,47,576240,120
51,65,576480,120
39,54,576480,120
52,56,576720,120
40,47,576720,120
53,69,576960,120
41,58,576960,120
54,62,577200,120
42,52,577200,120
53,69,577440,120
41,58,577440,120
54,61,577680,120
42,51,577680,120
53,61,577920,120
41,51,577920,120
58,54,578160,120
46,45,578160,120
57,62,578400,120
45,52,578400,120
54,54,578640,120
42,45,578640,120
53,60,578880,120
41,51,578880,120
54,55,579120,120
42,46,579120,120
53,60,579360,60
41,51,579360,60
54,54,579600,60
42,45,579600,60
53,61,579840,120
41,51,579840,120
58,54,580080,120
46,45,580080,120
57,62,580320,120
45,52,580320,120
54,54,580560,120
42,45,580560,120
53,60,580800,120
41,51,580800,120
54,55,581040,120
42,46,581040,120
53,60,581280,120
41,51,581280,120
54,54,581520,120
42,45,581520,120
53,64,581760,120
41,53,581760,120
60,56,582000,120
48,47,582000,120
57,65,582240,120
45,54,582240,120
54,56,582480,120
42,47,582480,120
53,63,582720,120
41,53,582720,120
54,57,582960,120
42,48,582960,120
53,63,583200,60
41,53,583200,60
54,56,583440,60
42,47,583440,60
53,64,583680,120
41,53,583680,120
61,56,583920,120
49,47,583920,120
58,65,584160,120
46,54,584160,120
54,56,584400,120
42,47,584400,120
53,61,584640,120
41,51,584640,120
54,63,584880,120
42,53,584880,120
57,64,585120,120
45,54,585120,120
58,66,585360,120
46,56,585360,120
60,69,585600,120
48,58,585600,120
61,70,585840,120
49,59,585840,120
64,71,586080,120
52,60,586080,120
65,73,586320,120
53,62,586320,120
65,74,586560,120
53,62,586560,120
64,76,586800,120
52,64,586800,120
61,75,587040,120
49,63,587040,120
60,74,587280,120
48,62,587280,120
58,72,587520,120
46,61,587520,120
57,71,587760,120
45,60,587760,120
54,70,588000,120
42,59,588000,120
53,69,588240,120
41,58,588240,120
53,61,588480,120
41,51,588480,120
54,63,588720,120
42,53,588720,120
57,64,588960,120
45,54,588960,120
58,66,589200,120
46,56,589200,120
60,69,589440,120
48,58,589440,120
61,70,589680,120
49,59,589680,120
64,71,589920,120
52,60,589920,120
65,73,590160,120
53,62,590160,120
65,74,590400,120
53,62,590400,120
64,76,590640,120
52,64,590640,120
61,75,590880,120
49,63,590880,120
60,74,591120,120
48,62,591120,120
58,72,591360,120
46,61,591360,120
57,71,591600,120
45,60,591600,120
54,70,591840,120
42,59,591840,120
53,69,592080,120
41,58,592080,120
53,69,592320,240
41,51,592320,480
45,51,592320,240
54,53,592560,240
46,45,592560,240
57,55,592800,240
48,46,592800,240
58,58,593040,240
49,49,593040,240
60,60,593280,240
51,51,593280,240
61,62,593520,240
53,52,593520,240
63,64,593760,240
54,54,593760,240
65,66,594000,240
57,56,594000,240
66,68,594240,240
58,57,594240,240
60,64,595200,240
51,54,595200,240
58,63,595440,240
49,53,595440,240
57,61,595680,240
48,51,595680,240
54,60,595920,240
46,51,595920,240
55,69,596160,240
41,51,596160,480
47,51,596160,240
56,53,596400,240
48,45,596400,240
59,55,596640,240
50,46,596640,240
60,58,596880,240
51,49,596880,240
62,60,597120,240
53,51,597120,240
63,62,597360,240
55,52,597360,240
65,64,597600,240
56,54,597600,240
67,66,597840,240
59,56,597840,240
68,68,598080,240
60,57,598080,240
62,64,599040,240
53,54,599040,240
60,63,599280,240
51,53,599280,240
59,61,599520,240
50,51,599520,240
56,60,599760,240
48,51,599760,240
57,72,600000,240
41,50,600000,240
48,50,600000,240
51,50,600000,240
58,65,600240,240
50,52,600240,240
53,52,600240,240
60,67,600480,240
51,53,600480,240
55,53,600480,240
62,69,600720,240
53,55,600720,240
57,55,600720,240
55,56,600960,240
57,57,601200,240
58,59,601440,240
60,60,601680,240
53,64,601920,240
63,64,601920,240
62,60,602160,240
60,59,602400,240
58,57,602640,240
57,56,602880,240
55,54,603120,240
53,52,603360,240
51,51,603600,240
41,50,603840,240
55,50,603840,240
57,52,604080,240
58,53,604320,240
60,55,604560,240
62,56,604800,240
63,57,605040,240
65,59,605280,240
67,60,605520,240
70,64,605760,240
69,60,606000,240
67,59,606240,240
65,57,606480,240
63,64,606720,240
67,64,606720,240
65,64,606960,240
62,60,606960,240
60,59,607200,240
63,59,607200,240
58,57,607440,240
62,57,607440,240
67,64,607680,240
70,64,607680,240
65,60,607920,240
69,60,607920,240
63,59,608160,240
67,59,608160,240
62,57,608400,240
65,57,608400,240
70,64,608640,240
74,64,608640,240
69,60,608880,240
72,60,608880,240
67,59,609120,240
70,59,609120,240
65,57,609360,240
69,57,609360,240
75,64,609600,240
79,64,609600,240
74,60,609840,240
77,60,609840,240
72,59,610080,240
75,59,610080,240
70,57,610320,240
74,57,610320,240
82,70,610560,60
79,59,610560,60
81,70,610620,60
77,59,610620,60
79,69,610680,60
75,58,610680,60
77,69,610740,60
74,58,610740,60
75,68,610800,60
72,57,610800,60
74,68,610860,60
70,57,610860,60
72,67,610920,60
69,56,610920,60
70,67,610980,60
67,56,610980,60
69,66,611040,60
65,56,611040,60
67,66,611100,60
63,56,611100,60
65,65,611160,60
62,55,611160,60
63,65,611220,60
60,55,611220,60
62,64,611280,60
58,54,611280,60
60,64,611340,60
57,54,611340,60
59,63,611400,60
56,53,611400,60
60,63,611460,60
57,53,611460,60
56,53,611520,60
59,64,611520,60
57,53,611580,60
60,63,611580,60
58,57,611640,60
61,57,611640,60
59,58,611700,60
62,58,611700,60
60,58,611760,60
63,58,611760,60
61,59,611820,60
64,59,611820,60
62,60,611880,60
65,60,611880,60
63,60,611940,60
66,60,611940,60
64,60,612000,60
67,60,612000,60
65,61,612060,60
68,61,612060,60
66,61,612120,60
69,61,612120,60
67,62,612180,60
70,62,612180,60
68,62,612240,60
71,62,612240,60
69,62,612300,60
72,62,612300,60
70,63,612360,60
73,63,612360,60
71,64,612420,60
74,64,612420,60
72,64,612480,60
75,64,612480,60
73,65,612540,60
76,65,612540,60
74,66,612600,60
77,66,612600,60
75,66,612660,60
78,66,612660,60
76,67,612720,60
79,67,612720,60
77,68,612780,60
80,68,612780,60
78,68,612840,60
81,68,612840,60
79,71,612900,120
82,73,612900,120
46,75,620880,120
65,34,621120,120
62,28,621120,120
62,44,621360,120
58,37,621360,120
58,34,621600,120
53,28,621600,120
46,56,621840,120
65,34,622080,120
62,28,622080,120
62,44,622320,120
58,37,622320,120
58,34,622560,120
53,28,622560,120
46,74,622800,120
65,34,623040,120
62,28,623040,120
62,44,623280,120
58,37,623280,120
58,34,623520,120
53,28,623520,120
46,53,623760,120
65,34,624000,120
62,28,624000,120
62,44,624240,120
58,37,624240,120
58,34,624480,120
53,28,624480,120
46,73,624720,120
62,35,624960,120
58,29,624960,120
58,46,625200,120
53,38,625200,120
62,35,625440,120
58,29,625440,120
46,51,625680,120
62,35,625920,120
58,29,625920,120
58,46,626160,120
53,38,626160,120
62,35,626400,120
58,29,626400,120
41,84,626640,120
63,35,626880,120
60,29,626880,120
60,46,627120,120
53,38,627120,120
63,35,627360,120
60,29,627360,120
46,61,627600,120
62,35,627840,120
58,29,627840,120
58,46,628080,120
53,38,628080,120
53,35,628320,120
50,29,628320,120
46,72,628560,120
65,34,628800,120
62,28,628800,120
62,44,629040,120
58,37,629040,120
58,34,629280,120
53,28,629280,120
46,56,629520,120
65,34,629760,120
62,28,629760,120
62,44,630000,120
58,37,630000,120
58,34,630240,120
53,28,630240,120
46,74,630480,120
65,34,630720,120
62,28,630720,120
62,44,630960,120
58,37,630960,120
58,34,631200,120
53,28,631200,120
46,53,631440,120
65,34,631680,120
62,28,631680,120
62,44,631920,120
58,37,631920,120
58,34,632160,120
53,28,632160,120
46,73,632400,120
62,35,632640,120
58,29,632640,120
58,46,632880,120
53,38,632880,120
62,35,633120,120
58,29,633120,120
46,51,633360,120
62,35,633600,120
58,29,633600,120
58,46,633840,120
53,38,633840,120
62,35,634080,120
58,29,634080,120
41,85,634320,120
63,35,634560,120
60,29,634560,120
60,46,634800,120
53,38,634800,120
63,35,635040,120
60,29,635040,120
46,61,635280,120
62,35,635520,120
58,29,635520,120
58,46,635760,120
53,38,635760,120
62,72,636240,120
65,34,636480,120
58,44,636720,120
62,28,636960,120
65,34,636960,120
57,51,637200,120
60,28,637440,120
65,34,637440,120
53,44,637680,120
57,28,637920,120
60,34,637920,120
52,72,638160,120
55,28,638400,120
60,34,638400,120
48,44,638640,120
60,28,638880,120
64,34,638880,120
53,51,639120,120
60,28,639360,120
65,34,639360,120
57,44,639600,120
60,28,639840,120
65,34,639840,120
57,72,640080,120
69,34,640320,120
60,30,640320,120
65,30,640320,120
57,44,640560,120
60,28,640800,120
69,34,640800,120
65,28,640800,120
56,56,641040,120
59,30,641280,120
65,30,641280,120
68,37,641280,120
55,48,641520,120
58,30,641760,120
64,30,641760,120
67,37,641760,120
53,46,642000,120
65,30,642240,120
57,26,642240,120
60,26,642240,120
53,40,642480,120
56,26,642720,120
60,26,642720,120
65,30,642720,120
48,46,642960,120
64,30,643200,120
60,26,643200,120
55,40,643440,120
60,26,643680,120
64,30,643680,120
48,72,643920,120
60,26,644160,120
64,34,644160,120
55,44,644400,120
60,28,644640,120
64,34,644640,120
47,80,644880,120
62,28,645120,120
65,34,645120,120
55,44,645360,120
62,28,645600,120
65,34,645600,120
43,89,645840,120
59,26,646080,120
65,34,646080,120
55,44,646320,120
62,28,646560,120
65,34,646560,120
48,77,646800,120
60,28,647040,120
64,34,647040,120
55,44,647280,120
60,28,647520,120
64,34,647520,120
43,77,647760,120
59,26,648000,120
65,34,648000,120
55,44,648240,120
62,28,648480,120
65,34,648480,120
48,51,648720,120
60,28,648960,120
64,34,648960,120
55,44,649200,120
60,28,649440,120
64,34,649440,120
43,86,649680,120
59,26,649920,120
65,34,649920,120
55,44,650160,120
62,28,650400,120
65,34,650400,120
64,56,650640,120
60,47,650640,120
60,49,650880,120
48,40,650880,120
55,55,651120,120
43,46,651120,120
53,60,651360,120
41,50,651360,120
52,91,651600,120
40,73,651600,120
60,56,651840,120
55,46,651840,120
48,63,652080,120
36,53,652080,120
60,55,652320,120
55,46,652320,120
52,46,652320,120
53,78,652560,120
41,66,652560,120
57,55,652800,120
53,46,652800,120
60,64,653040,120
57,54,653040,120
57,55,653280,120
53,46,653280,120
52,77,653520,120
40,65,653520,120
60,56,653760,120
55,46,653760,120
48,63,654000,120
36,53,654000,120
60,55,654240,120
55,46,654240,120
52,46,654240,120
53,78,654480,120
41,66,654480,120
60,55,654720,120
57,46,654720,120
64,59,654900,60
65,64,654960,120
60,65,655440,480
57,55,655440,480
57,63,655920,120
53,53,655920,120
62,55,656160,120
58,46,656160,120
60,66,656400,120
57,56,656400,120
57,55,656640,120
53,46,656640,120
41,57,656880,120
53,64,656880,120
60,65,657360,480
57,55,657360,480
57,63,657840,120
53,53,657840,120
62,55,658080,120
58,46,658080,120
60,66,658320,120
57,56,658320,120
57,55,658560,120
53,46,658560,120
41,57,658800,120
53,64,658800,120
60,65,659280,480
57,55,659280,480
57,63,659760,120
53,53,659760,120
62,55,660000,120
58,46,660000,120
60,66,660240,120
57,56,660240,120
57,55,660480,120
53,46,660480,120
41,57,660720,120
53,64,660720,120
60,65,661200,480
57,55,661200,480
57,63,661680,120
53,53,661680,120
62,55,661920,120
58,46,661920,120
60,66,662160,120
57,56,662160,120
57,44,662640,120
60,28,662880,120
69,34,662880,120
65,28,662880,120
57,56,663120,120
60,30,663360,120
65,37,663360,120
55,48,663600,120
59,30,663840,120
62,37,663840,120
52,46,664080,120
67,30,664320,120
58,26,664320,120
60,26,664320,120
53,40,664560,120
57,26,664800,120
60,26,664800,120
65,30,664800,120
48,46,665040,120
65,30,665280,120
60,26,665280,120
55,40,665520,120
60,26,665760,120
64,30,665760,120
53,61,666000,120
65,34,666240,120
60,28,666240,120
57,28,666240,120
57,44,666480,120
60,28,666720,120
69,34,666720,120
65,28,666720,120
56,56,666960,120
65,30,667200,120
60,30,667200,120
68,37,667200,120
55,48,667440,120
62,30,667680,120
59,30,667680,120
65,37,667680,120
52,46,667920,120
64,30,668160,120
58,26,668160,120
61,26,668160,120
53,40,668400,120
57,26,668640,120
60,26,668640,120
65,30,668640,120
48,46,668880,120
65,30,669120,120
60,26,669120,120
55,40,669360,120
60,26,669600,120
64,30,669600,120
53,61,669840,120
65,34,670080,120
60,28,670080,120
57,28,670080,120
57,44,670320,120
60,28,670560,120
69,34,670560,120
65,28,670560,120
56,56,670800,120
62,30,671040,120
60,30,671040,120
66,37,671040,120
55,48,671280,120
62,30,671520,120
59,30,671520,120
67,37,671520,120
54,46,671760,120
64,30,672000,120
58,26,672000,120
60,26,672000,120
53,40,672240,120
57,26,672480,120
60,26,672480,120
65,30,672480,120
49,46,672720,120
55,26,672960,120
65,30,672960,120
58,26,672960,120
48,40,673200,120
55,26,673440,120
58,26,673440,120
64,30,673440,120
53,46,673680,120
60,30,673920,120
57,26,673920,120
60,26,674160,120
65,40,674160,120
57,26,674400,120
60,30,674400,120
41,38,675030,210
45,41,675060,180
48,45,675090,150
53,48,675120,120
37,41,675990,210
41,44,676020,180
46,47,676050,150
49,50,676080,120
34,39,676950,210
37,42,676980,180
41,45,677010,150
46,48,677040,120
29,38,677910,210
33,41,677940,180
36,45,677970,150
41,48,678000,120
41,38,678870,210
45,41,678900,180
48,45,678930,150
53,48,678960,120
37,41,679830,210
41,44,679860,180
46,47,679890,150
49,50,679920,120
34,39,680790,210
37,42,680820,180
41,45,680850,150
46,48,680880,120
33,38,681750,210
37,41,681780,180
40,45,681810,150
45,48,681840,120
45,38,682710,210
49,41,682740,180
52,45,682770,150
57,48,682800,120
41,41,683670,210
45,44,683700,180
50,47,683730,150
53,50,683760,120
38,39,684630,210
41,42,684660,180
45,45,684690,150
50,48,684720,120
37,38,685590,210
41,41,685620,180
44,45,685650,150
49,48,685680,120
49,38,686550,210
53,41,686580,180
56,45,686610,150
61,48,686640,120
45,41,687510,210
49,44,687540,180
54,47,687570,150
57,50,687600,120
42,39,688470,210
45,42,688500,180
49,45,688530,150
54,48,688560,120
41,38,689430,210
45,41,689460,180
48,45,689490,150
53,48,689520,120
49,57,690000,480
37,48,690000,480
41,48,690000,480
46,48,690000,480
46,53,690480,480
34,45,690480,480
37,45,690480,480
41,45,690480,480
57,54,691440,480
45,46,691440,480
49,46,691440,480
52,46,691440,480
53,64,691920,480
41,52,691920,480
45,52,691920,480
50,52,691920,480
50,59,692400,480
38,49,692400,480
41,49,692400,480
45,49,692400,480
61,60,693360,480
49,50,693360,480
53,50,693360,480
56,50,693360,480
57,64,693840,480
45,52,693840,480
49,52,693840,480
54,52,693840,480
54,59,694320,480
42,49,694320,480
45,49,694320,480
49,49,694320,480
37,52,694800,480
41,52,694800,480
44,52,694800,480
49,64,694800,480
61,60,695280,480
49,50,695280,480
53,50,695280,480
56,50,695280,480
57,64,695760,480
45,52,695760,480
49,52,695760,480
54,52,695760,480
54,59,696240,480
42,49,696240,480
45,49,696240,480
49,49,696240,480
37,52,696720,480
41,52,696720,480
44,52,696720,480
49,64,696720,480
68,60,697200,480
61,50,697200,480
65,50,697200,480
60,52,697680,480
66,52,697680,480
69,64,697680,480
48,60,698160,480
37,50,698160,960
45,50,698160,480
44,52,698640,480
49,65,698640,480
68,62,699120,480
61,51,699120,480
65,51,699120,480
62,54,699600,480
68,54,699600,480
71,66,699600,480
50,63,700080,480
38,52,700080,480
47,52,700080,480
39,55,700560,480
46,55,700560,480
51,66,700560,480
70,64,701040,480
63,52,701040,480
67,52,701040,480
62,56,701520,480
68,56,701520,480
71,67,701520,480
50,65,702000,480
39,54,702000,960
47,54,702000,480
46,57,702480,480
51,70,702480,480
70,66,702960,480
63,55,702960,480
67,55,702960,480
64,57,703440,480
70,57,703440,480
73,70,703440,480
52,66,703920,480
40,55,703920,480
49,55,703920,480
41,58,704400,480
48,58,704400,480
53,71,704400,480
60,67,704880,480
53,56,704880,480
57,56,704880,480
52,59,705360,435
58,59,705360,435
61,72,705360,435
41,57,705795,480
49,57,705810,465
52,57,705825,450
58,69,705840,435
41,59,706275,525
48,59,706290,510
53,59,706305,495
57,73,706320,480
60,70,706800,480
53,58,706800,480
57,58,706800,480
52,60,707280,435
58,60,707280,435
61,74,707280,435
41,58,707715,480
49,58,707730,465
52,58,707745,450
58,71,707760,435
41,62,708195,525
48,62,708210,510
53,62,708225,495
57,75,708240,480
60,72,708720,480
63,79,709200,960
55,73,710160,960
57,72,711120,60
70,60,711180,60
57,64,711240,60
70,54,711300,60
57,64,711360,60
70,54,711420,60
57,64,711480,60
70,54,711540,60
57,64,711600,60
70,53,711660,60
57,64,711720,60
70,53,711780,60
57,64,711840,60
70,53,711900,60
57,64,711960,60
70,51,712020,60
57,64,712080,60
70,51,712140,60
57,64,712200,60
70,52,712260,60
57,64,712320,60
70,53,712380,60
57,72,712440,120
55,74,712560,60
57,74,712680,60
34,79,712800,120
46,85,712800,120
65,48,713040,120
62,39,713040,120
62,62,713280,120
58,52,713280,120
58,48,713520,120
53,39,713520,120
46,66,713760,120
65,48,714000,120
62,39,714000,120
62,62,714240,120
58,52,714240,120
58,48,714480,120
53,39,714480,120
46,88,714720,120
65,48,714960,120
62,39,714960,120
62,62,715200,120
58,52,715200,120
58,48,715440,120
53,39,715440,120
46,63,715680,120
65,48,715920,120
62,39,715920,120
62,62,716160,120
58,52,716160,120
58,48,716400,120
53,39,716400,120
46,87,716640,120
62,49,716880,120
58,40,716880,120
58,64,717120,120
53,53,717120,120
62,49,717360,120
58,40,717360,120
46,66,717600,120
62,49,717840,120
58,40,717840,120
58,64,718080,120
53,53,718080,120
62,49,718320,120
58,40,718320,120
41,103,718560,120
63,49,718800,120
60,40,718800,120
60,64,719040,120
53,53,719040,120
63,49,719280,120
60,40,719280,120
46,79,719520,120
62,49,719760,120
58,40,719760,120
58,61,720000,120
53,50,720000,120
62,42,720240,120
58,34,720240,120
46,59,720480,120
65,30,720720,120
62,25,720720,120
62,39,720960,120
58,33,720960,120
58,30,721200,120
53,25,721200,120
46,45,721440,120
65,30,721680,120
62,25,721680,120
62,39,721920,120
58,33,721920,120
58,30,722160,120
53,25,722160,120
46,61,722400,120
65,30,722640,120
62,25,722640,120
62,39,722880,120
58,33,722880,120
58,30,723120,120
53,25,723120,120
46,44,723360,120
65,30,723600,120
62,25,723600,120
62,39,723840,120
58,33,723840,120
58,30,724080,120
53,25,724080,120
46,60,724320,120
65,31,724560,120
62,26,724560,120
62,41,724800,120
58,34,724800,120
58,31,725040,120
53,26,725040,120
46,45,725280,120
65,31,725520,120
62,26,725520,120
62,41,725760,120
58,34,725760,120
58,31,726000,120
53,26,726000,120
41,76,726240,120
65,31,726480,120
63,26,726480,120
63,41,726720,120
60,34,726720,120
60,31,726960,120
53,26,726960,120
46,54,727200,120
65,31,727440,120
62,26,727440,120
62,41,727680,120
58,34,727680,120
58,31,727920,120
53,26,727920,120
46,85,728160,120
53,39,728400,120
62,48,728400,120
58,39,728400,120
41,62,728640,120
50,39,728880,120
58,48,728880,120
53,39,728880,120
48,66,729120,120
53,39,729360,120
63,48,729360,120
57,39,729360,120
41,62,729600,120
51,39,729840,120
57,48,729840,120
53,39,729840,120
46,85,730080,120
53,39,730320,120
62,48,730320,120
58,39,730320,120
41,62,730560,120
50,39,730800,120
58,48,730800,120
53,39,730800,120
48,66,731040,120
53,39,731280,120
63,48,731280,120
57,39,731280,120
41,62,731520,120
51,39,731760,120
57,48,731760,120
53,39,731760,120
46,85,732000,120
53,39,732240,120
62,48,732240,120
58,39,732240,120
41,62,732480,120
50,39,732720,120
58,48,732720,120
53,39,732720,120
48,66,732960,120
53,39,733200,120
63,48,733200,120
57,39,733200,120
41,62,733440,120
51,39,733680,120
57,48,733680,120
53,39,733680,120
46,85,733920,120
53,39,734160,120
62,48,734160,120
58,39,734160,120
41,62,734400,120
50,39,734640,120
58,48,734640,120
53,39,734640,120
48,56,734880,480
53,56,734880,480
57,56,734880,480
63,66,734880,480
41,53,735360,480
29,45,735360,480
42,43,735840,480
30,36,735840,480
43,46,736320,480
31,39,736320,480
44,49,736800,470
32,41,736800,470
44,53,737280,480
32,38,737280,480
45,42,737760,480
33,35,737760,480
46,45,738240,480
34,38,738240,480
47,49,738720,480
35,41,738720,480
47,54,739200,480
35,45,739200,480
48,41,739680,480
36,34,739680,480
49,44,740160,480
37,37,740160,480
50,47,740640,470
38,39,740640,470
50,55,741120,480
38,46,741120,480
51,40,741600,480
39,34,741600,480
52,44,742080,480
40,37,742080,480
53,53,742560,320
41,52,742560,320
53,41,742880,160
41,41,742880,160
42,38,743200,160
54,38,743200,160
43,38,743520,160
55,38,743520,160
56,41,743840,160
44,35,743840,160
57,41,744160,160
45,35,744160,160
58,49,744480,160
46,41,744480,160
59,46,744800,160
47,38,744800,160
60,46,745120,160
48,38,745120,160
61,53,745440,160
49,45,745440,160
62,46,745760,160
50,38,745760,160
63,46,746080,160
51,38,746080,160
64,61,746400,180
52,51,746400,180
65,55,746640,180
53,46,746640,180
66,55,746880,180
54,46,746880,180
67,55,747120,180
55,46,747120,180
68,62,747360,180
56,52,747360,180
68,55,747600,180
56,46,747600,180
69,55,747840,180
57,46,747840,180
70,55,748080,180
58,46,748080,180
71,63,748320,180
59,53,748320,180
71,56,748560,180
59,47,748560,180
72,56,748800,180
60,47,748800,180
73,56,749040,180
61,47,749040,180
74,66,749280,180
62,56,749280,180
74,56,749520,180
62,47,749520,180
75,56,749760,180
63,47,749760,180
76,56,750000,180
64,47,750000,180
77,74,750240,180
65,62,750240,180
77,64,750480,180
69,55,750480,180
65,55,750480,180
77,68,750720,180
70,57,750720,180
66,57,750720,180
77,71,750960,180
71,60,750960,180
67,60,750960,180
77,75,751200,180
72,63,751200,180
68,63,751200,180
77,63,751440,180
72,53,751440,180
68,53,751440,180
77,63,751680,180
71,53,751680,180
67,53,751680,180
77,63,751920,180
70,53,751920,180
66,53,751920,180
77,75,752160,180
69,63,752160,180
65,63,752160,180
77,62,752400,180
69,52,752400,180
65,52,752400,180
77,67,752640,180
70,56,752640,180
66,56,752640,180
77,71,752880,180
71,60,752880,180
67,60,752880,180
77,75,753120,180
72,63,753120,180
68,63,753120,180
77,63,753360,180
72,53,753360,180
68,53,753360,180
77,63,753600,180
71,53,753600,180
67,53,753600,180
77,63,753840,180
70,53,753840,180
66,53,753840,180
77,80,754080,480
65,68,754080,480
69,68,754080,480
77,72,754560,480
65,61,754560,480
69,61,754560,480
78,72,755040,480
66,61,755040,480
70,61,755040,480
79,72,755520,480
67,61,755520,480
71,61,755520,480
80,79,756000,480
68,67,756000,480
72,67,756000,480
81,79,756960,480
69,67,756960,480
72,67,756960,480
77,67,756960,480
57,75,759840,120
53,76,759960,120
51,79,760080,120
48,81,760200,120
45,84,760320,120
44,104,760440,120
45,80,760560,120
48,79,760680,120
51,77,760800,120
53,76,760920,120
57,75,761040,120
69,76,764880,120
57,64,764880,120
54,76,765000,120
65,75,765120,120
53,63,765120,120
52,74,765240,120
63,73,765360,120
51,62,765360,120
48,73,765480,120
57,72,765600,120
45,61,765600,120
42,71,765720,120
41,72,765840,240
53,72,765840,240
41,55,766215,345
45,57,766230,330
51,59,766245,315
57,62,766260,300
42,57,766695,345
46,59,766710,330
51,60,766725,315
58,62,766740,300
43,56,767175,345
47,58,767190,330
51,59,767205,315
59,61,767220,300
44,59,767655,345
48,60,767670,330
51,62,767685,315
60,63,767700,300
33,77,770040,600
45,59,770070,570
51,63,770100,540
60,68,770130,510
65,78,770160,480
34,94,770640,120
46,102,770640,120
58,46,770880,120
65,57,770880,120
62,46,770880,120
53,74,771120,120
58,46,771360,120
65,57,771360,120
62,46,771360,120
46,72,771600,120
58,46,771840,120
65,57,771840,120
62,46,771840,120
53,74,772080,120
62,46,772320,120
65,57,772320,120
58,46,772320,120
46,98,772560,120
58,46,772800,120
65,57,772800,120
62,46,772800,120
53,74,773040,120
58,46,773280,120
65,57,773280,120
62,46,773280,120
46,69,773520,120
58,46,773760,120
65,57,773760,120
62,46,773760,120
53,74,774000,120
58,46,774240,120
65,57,774240,120
62,46,774240,120
46,98,774480,120
62,58,774720,120
58,48,774720,120
53,77,774960,120
62,58,775200,120
58,48,775200,120
46,72,775440,120
62,58,775680,120
58,48,775680,120
53,77,775920,120
62,58,776160,120
58,48,776160,120
41,100,776400,120
63,48,776640,120
65,58,776640,120
60,48,776640,120
53,77,776880,120
63,48,777120,120
65,58,777120,120
60,48,777120,120
46,86,777360,120
62,48,777600,120
65,58,777600,120
58,48,777600,120
53,73,777840,120
58,40,778080,120
65,50,778080,120
62,40,778080,120
46,100,778320,120
58,46,778560,120
65,57,778560,120
62,46,778560,120
53,74,778800,120
58,46,779040,120
65,57,779040,120
62,46,779040,120
46,72,779280,120
58,46,779520,120
65,57,779520,120
62,46,779520,120
53,74,779760,120
62,46,780000,120
65,57,780000,120
58,46,780000,120
46,99,780240,120
58,46,780480,120
65,57,780480,120
62,46,780480,120
53,74,780720,120
58,46,780960,120
65,57,780960,120
62,46,780960,120
46,69,781200,120
58,46,781440,120
65,57,781440,120
62,46,781440,120
53,74,781680,120
58,46,781920,120
65,57,781920,120
62,46,781920,120
46,95,782160,120
58,48,782400,120
65,58,782400,120
62,48,782400,120
53,77,782640,120
58,48,782880,120
65,58,782880,120
62,48,782880,120
46,78,783120,120
62,48,783360,120
65,58,783360,120
58,48,783360,120
53,77,783600,120
62,48,783840,120
65,58,783840,120
58,48,783840,120
41,100,784080,120
63,48,784320,120
65,58,784320,120
60,48,784320,120
53,77,784560,120
63,48,784800,120
65,58,784800,120
60,48,784800,120
46,70,785040,480
50,70,785040,480
58,86,785040,480
46,73,785520,120
34,61,785520,120
41,65,785760,120
29,54,785760,120
46,73,786000,120
34,61,786000,120
53,64,786240,120
41,53,786240,120
62,67,786480,120
50,56,786480,120
58,70,786720,120
46,58,786720,120
57,73,786960,480
45,61,786960,480
48,61,786960,480
53,61,786960,480
58,69,787440,480
46,58,787440,480
50,58,787440,480
53,58,787440,480
51,72,787920,480
39,60,787920,480
43,60,787920,480
48,60,787920,480
53,67,788400,480
41,56,788400,480
48,56,788400,480
51,56,788400,480
46,73,788880,480
50,73,788880,480
58,90,788880,480
46,73,789360,120
34,61,789360,120
41,65,789600,120
29,54,789600,120
46,73,789840,120
34,61,789840,120
53,64,790080,120
41,53,790080,120
62,67,790320,120
50,56,790320,120
58,70,790560,120
46,58,790560,120
57,73,790800,480
45,61,790800,480
48,61,790800,480
53,61,790800,480
58,69,791280,480
46,58,791280,480
50,58,791280,480
53,58,791280,480
51,72,791760,480
39,60,791760,480
43,60,791760,480
48,60,791760,480
53,67,792240,480
41,56,792240,480
48,56,792240,480
51,56,792240,480
46,73,792720,120
50,73,792720,120
58,84,792720,120
62,50,792960,120
65,61,792960,120
58,50,792960,120
53,80,793200,120
62,50,793440,120
65,61,793440,120
58,50,793440,120
41,73,793680,120
53,84,793680,120
63,50,793920,120
65,61,793920,120
60,50,793920,120
53,80,794160,120
63,50,794400,120
65,61,794400,120
60,50,794400,120
46,73,794640,120
50,73,794640,120
58,84,794640,120
62,50,794880,120
65,61,794880,120
58,50,794880,120
53,80,795120,120
62,50,795360,120
65,61,795360,120
58,50,795360,120
41,73,795600,120
53,84,795600,120
63,50,795840,120
65,61,795840,120
60,50,795840,120
53,80,796080,120
63,50,796320,120
65,61,796320,120
60,50,796320,120
41,73,796560,120
53,84,796560,120
53,46,796800,120
62,46,796800,120
65,56,796800,120
58,46,796800,120
53,46,797040,120
58,46,797040,120
62,46,797040,120
65,56,797040,120
41,73,797520,120
53,84,797520,120
53,46,797760,120
63,46,797760,120
65,56,797760,120
57,46,797760,120
53,46,798000,120
57,46,798000,120
63,46,798000,120
65,56,798000,120
41,73,798480,180
53,84,798480,180
53,46,798720,60
62,46,798720,60
65,56,798720,60
58,46,798720,60
53,46,798960,60
58,46,798960,60
65,56,798960,60
62,46,798960,60
53,46,799200,60
62,46,799200,60
65,56,799200,60
58,46,799200,60
53,69,799440,60
57,69,799440,60
63,70,799440,60
65,82,799440,60
51,44,799680,60
48,44,799680,60
53,53,799680,60
41,44,799680,60
41,44,799920,60
48,44,799920,60
51,44,799920,60
53,53,799920,60
51,44,800160,60
48,44,800160,60
53,53,800160,60
41,44,800160,60
46,73,800400,120
50,73,800400,120
58,84,800400,120
47,40,800640,120
35,34,800640,120
46,40,800880,120
34,34,800880,120
47,40,801120,120
35,34,801120,120
46,48,801360,120
34,40,801360,120
51,39,801600,120
39,33,801600,120
50,39,801840,120
38,33,801840,120
47,39,802080,120
35,33,802080,120
46,45,802320,120
34,37,802320,120
47,39,802560,120
35,31,802560,120
46,39,802800,120
34,33,802800,120
47,39,803040,120
35,33,803040,120
46,51,803280,120
34,42,803280,120
51,42,803520,120
39,35,803520,120
50,42,803760,120
38,35,803760,120
47,42,804000,120
35,36,804000,120
46,48,804240,120
34,39,804240,120
47,42,804480,120
35,36,804480,120
46,44,804720,120
34,36,804720,120
47,44,804960,120
35,37,804960,120
46,52,805200,120
34,44,805200,120
51,42,805440,120
39,36,805440,120
50,44,805680,120
38,36,805680,120
47,44,805920,120
35,36,805920,120
46,50,806160,120
34,41,806160,120
47,42,806400,120
35,36,806400,120
46,42,806640,120
34,36,806640,120
47,44,806880,120
35,36,806880,120
46,57,807120,120
34,48,807120,120
51,46,807360,120
39,38,807360,120
50,47,807600,120
38,39,807600,120
47,47,807840,120
35,39,807840,120
46,52,808080,120
34,44,808080,120
47,48,808320,120
35,39,808320,120
46,48,808560,120
34,40,808560,120
47,48,808800,120
35,40,808800,120
46,59,809040,120
34,49,809040,120
54,51,809280,120
42,42,809280,120
51,59,809520,120
39,49,809520,120
47,52,809760,120
35,44,809760,120
46,62,810000,120
34,52,810000,120
47,55,810240,120
35,46,810240,120
46,61,810480,120
34,51,810480,120
47,56,810720,120
35,47,810720,120
46,61,810960,120
34,51,810960,120
54,53,811200,120
42,44,811200,120
51,61,811440,120
39,51,811440,120
47,55,811680,120
35,46,811680,120
46,64,811920,120
34,55,811920,120
47,57,812160,120
35,48,812160,120
46,63,812400,120
34,53,812400,120
47,58,812640,120
35,49,812640,120
46,67,812880,120
34,56,812880,120
58,59,813120,120
46,48,813120,120
54,69,813360,120
42,58,813360,120
51,62,813600,120
39,52,813600,120
46,77,813840,120
34,64,813840,120
47,68,814080,120
35,58,814080,120
46,78,814320,120
34,66,814320,120
47,72,814560,120
35,61,814560,120
46,73,814800,120
34,61,814800,120
58,64,815040,120
46,52,815040,120
54,75,815280,120
42,63,815280,120
51,68,815520,120
39,57,815520,120
46,80,815760,104
34,80,815760,240
48,63,815820,104
50,66,815880,104
51,69,815940,104
33,74,816240,480
39,74,816240,480
42,74,816240,480
45,85,816240,480
32,72,816720,480
36,72,816720,480
39,74,816720,480
44,83,816720,480
31,70,817200,480
33,70,817200,480
37,70,817200,480
40,70,817200,480
43,81,817200,480
30,71,817680,240
33,71,817680,240
38,69,817680,240
42,82,817680,240
27,70,818160,480
31,70,818160,480
36,70,818160,480
39,81,818160,480
36,62,818880,120
39,62,818880,120
43,62,818880,120
48,62,818880,120
53,84,819120,120
41,71,819120,120
45,71,819120,120
48,71,819120,120
41,75,819360,120
29,63,819360,120
33,63,819360,120
36,63,819360,120
46,81,819600,240
34,68,819600,240
38,68,819600,240
41,68,819600,240
45,70,820080,480
51,70,820080,480
54,70,820080,480
57,81,820080,480
44,70,820560,480
48,70,820560,480
51,70,820560,480
56,81,820560,480
45,70,821040,480
43,70,821040,480
49,70,821040,480
52,70,821040,480
55,81,821040,480
42,70,821520,240
45,70,821520,240
50,70,821520,240
54,81,821520,240
43,70,822000,480
39,70,822000,480
48,70,822000,480
51,81,822000,480
48,74,822720,240
36,62,822720,240
39,62,822720,240
43,62,822720,240
53,84,822960,240
41,71,822960,240
45,71,822960,240
48,71,822960,240
65,75,823200,240
53,63,823200,240
57,63,823200,240
60,63,823200,240
58,89,823440,240
46,74,823440,240
50,74,823440,240
58,79,823680,90
50,67,823680,90
58,79,823800,90
50,67,823800,90
62,89,823920,90
58,74,823920,90
58,83,824040,90
50,70,824040,90
58,83,824160,240
50,70,824160,240
63,66,824400,80
53,56,824400,80
60,56,824400,80
41,52,824560,80
29,44,824560,80
42,52,824720,80
30,44,824720,80
43,71,824880,80
31,60,824880,80
44,60,825040,80
32,50,825040,80
45,60,825200,80
33,50,825200,80
46,89,825360,240
34,74,825360,240
38,74,825360,240
58,79,825600,90
50,67,825600,90
58,79,825720,90
50,67,825720,90
62,89,825840,90
58,74,825840,90
58,83,825960,90
50,70,825960,90
58,83,826080,240
50,70,826080,240
63,66,826320,80
53,56,826320,80
60,56,826320,80
41,52,826480,80
29,44,826480,80
42,52,826640,80
30,44,826640,80
43,71,826800,80
31,60,826800,80
44,60,826960,80
32,50,826960,80
45,60,827120,80
33,50,827120,80
53,66,827280,80
41,56,827280,80
41,52,827440,80
29,44,827440,80
42,52,827600,80
30,44,827600,80
43,71,827760,80
31,60,827760,80
44,60,827920,80
32,50,827920,80
45,60,828080,80
33,50,828080,80
53,66,828240,80
41,56,828240,80
41,52,828400,80
29,44,828400,80
42,52,828560,80
30,44,828560,80
43,71,828720,80
31,60,828720,80
44,60,828880,80
32,50,828880,80
45,60,829040,80
33,50,829040,80
53,69,829200,80
41,58,829200,80
41,55,829360,80
29,46,829360,80
42,55,829520,80
30,46,829520,80
43,74,829680,80
31,62,829680,80
44,62,829840,80
32,52,829840,80
45,62,830000,80
33,52,830000,80
53,69,830160,80
41,49,830160,80
52,67,830320,80
40,56,830320,80
51,71,830480,80
39,60,830480,80
50,75,830640,80
38,63,830640,80
49,80,830800,80
37,68,830800,80
48,83,830960,80
36,70,830960,80
46,88,831120,240
34,74,831120,240
41,74,831120,240
58,70,831360,60
58,71,831480,60
62,80,831600,60
58,73,831720,60
58,73,831840,120
53,80,832080,60
50,73,832200,60
50,73,832320,120
46,80,832560,60
41,73,832680,60
41,73,832800,120
46,88,833040,240
34,74,833040,240
41,74,833040,240
70,70,833280,60
58,59,833280,60
70,71,833400,60
58,60,833400,60
74,80,833520,60
62,68,833520,60
70,73,833640,60
58,61,833640,60
70,73,833760,120
58,61,833760,120
65,80,834000,60
53,68,834000,60
62,73,834120,60
50,61,834120,60
62,73,834240,120
50,61,834240,120
58,80,834480,60
46,68,834480,60
53,73,834600,60
41,61,834600,60
53,73,834720,120
41,61,834720,120
38,74,834960,240
46,88,834960,240
34,74,834960,240
41,74,834960,240
65,70,835200,60
53,59,835200,60
65,71,835320,60
53,60,835320,60
70,80,835440,60
58,68,835440,60
65,73,835560,60
53,61,835560,60
65,73,835680,120
53,61,835680,120
62,80,835920,60
50,68,835920,60
58,73,836040,60
46,61,836040,60
58,73,836160,120
46,61,836160,120
53,83,836400,60
41,71,836400,60
50,77,836520,60
38,63,836520,60
50,77,836640,120
38,63,836640,120
46,68,836880,160
34,57,836880,160
41,61,837040,120
29,51,837040,120
58,68,837200,160
46,57,837200,160
53,58,837360,120
41,49,837360,120
70,68,837520,160
58,57,837520,160
65,59,837680,120
53,50,837680,120
58,68,837840,160
46,57,837840,160
53,61,838000,120
41,51,838000,120
46,68,838160,160
34,57,838160,160
41,61,838320,120
29,51,838320,120
58,68,838480,160
46,57,838480,160
53,61,838640,120
41,51,838640,120
70,68,838800,160
58,57,838800,160
65,62,838960,80
53,52,838960,80
58,68,839120,160
46,57,839120,160
53,61,839280,80
41,51,839280,80
46,68,839440,160
34,57,839440,160
41,61,839600,80
29,51,839600,80
34,102,839760,480
53,79,841200,480
38,67,841200,480
54,85,841680,960
39,72,841680,960
53,79,843120,480
41,67,843120,480
51,85,843600,1440
42,72,843600,1440
50,79,845040,480
44,67,845040,480
51,85,845520,480
42,72,845520,480
42,67,846000,480
51,79,846000,480
41,67,846480,480
44,67,846480,480
53,79,846480,480
39,67,846960,480
54,79,846960,480
42,67,846960,480
46,44,847440,72
34,37,847440,72
38,37,847440,72
41,37,847440,72
46,40,847520,72
34,34,847520,72
38,34,847520,72
41,34,847520,72
46,40,847600,72
34,35,847600,72
38,35,847600,72
41,35,847600,72
46,41,847680,36
34,34,847680,36
38,34,847680,36
41,34,847680,36
46,43,847760,36
34,37,847760,36
38,37,847760,36
41,37,847760,36
46,43,847840,36
34,37,847840,36
38,37,847840,36
41,37,847840,36
46,45,847920,36
34,38,847920,36
38,38,847920,36
41,38,847920,36
46,46,848000,36
34,39,848000,36
38,39,848000,36
41,39,848000,36
46,48,848080,36
34,39,848080,36
38,39,848080,36
41,39,848080,36
46,48,848160,36
34,42,848160,36
38,42,848160,36
41,42,848160,36
46,50,848240,36
34,41,848240,36
38,41,848240,36
41,41,848240,36
46,50,848320,36
34,42,848320,36
38,42,848320,36
41,42,848320,36
46,56,848400,80
34,46,848400,80
38,46,848400,80
41,46,848400,80
50,53,848480,80
38,45,848480,80
53,56,848560,80
41,46,848560,80
58,58,848640,80
46,50,848640,80
62,61,848720,80
50,51,848720,80
65,63,848800,80
53,53,848800,80
70,67,848880,80
58,56,848880,80
65,66,848960,80
53,55,848960,80
62,63,849040,80
50,52,849040,80
58,61,849120,80
46,51,849120,80
53,60,849200,80
41,50,849200,80
50,57,849280,80
38,48,849280,80
46,57,849360,120
34,48,849360,120
38,48,849360,120
41,48,849360,120
53,60,849600,120
41,50,849600,120
45,50,849600,120
48,50,849600,120
58,61,849840,120
46,52,849840,120
50,52,849840,120
53,52,849840,120
53,63,850080,120
41,53,850080,120
45,53,850080,120
48,53,850080,120
46,66,850320,120
34,55,850320,120
38,55,850320,120
41,55,850320,120
53,68,850560,120
48,57,850560,120
45,57,850560,120
41,57,850560,120
58,69,850800,120
53,58,850800,120
50,58,850800,120
46,58,850800,120
53,72,851040,120
48,61,851040,120
45,61,851040,120
41,61,851040,120
46,75,851280,240
41,63,851280,240
38,63,851280,240
34,63,851280,240
62,80,851760,240
58,67,851760,240
53,67,851760,240
46,67,851760,240
34,66,852240,240
46,87,852240,240
41,71,852240,240
45,35,4320,60
44,36,4380,60
45,39,4440,60
44,42,4500,60
45,44,4560,60
44,46,4620,60
45,47,4680,60
44,47,4740,60
45,49,4800,40
44,44,4840,40
45,49,4880,40
44,43,4920,40
45,49,4960,40
44,44,5000,40
45,49,5040,40
44,44,5080,40
45,49,5120,40
44,43,5160,40
45,49,5200,40
44,44,5240,40
45,49,5274,40
44,44,5314,40
45,49,5354,40
44,44,5394,40
45,49,5434,40
44,44,5474,40
45,49,5520,60
43,45,5580,60
42,50,5640,60
41,45,5700,60
40,53,5760,50
39,48,5800,50
40,53,5840,50
39,47,5880,50
40,53,5920,50
39,48,5960,50
40,53,6000,50
39,46,6040,50
40,52,6080,50
39,48,6120,50
40,52,6160,50
39,46,6200,50
40,51,6240,50
39,46,6280,50
40,51,6320,50
39,45,6360,50
40,52,6400,50
39,45,6440,50
40,51,6480,50
39,45,6520,50
40,51,6560,50
39,46,6600,50
40,51,6640,50
39,46,6680,50
40,53,6720,50
39,45,6760,50
40,51,6800,50
39,45,6840,50
40,51,6880,50
39,45,6920,50
40,51,6960,50
39,45,7000,50
40,51,7040,50
39,45,7080,50
40,51,7120,50
39,46,7160,50
40,48,7200,70
39,48,7260,70
40,60,7320,60
38,63,7380,40
37,67,7440,40
36,70,7500,40
35,73,7560,60
34,77,7620,40
43,26,12481,60
42,27,12541,60
43,29,12601,60
42,32,12661,60
43,34,12721,60
42,36,12781,60
43,37,12841,60
42,38,12901,60
43,41,12961,40
42,36,13001,40
43,41,13041,40
42,36,13081,40
43,42,13121,40
42,37,13161,40
43,43,13201,40
42,38,13241,40
43,44,13281,40
42,38,13321,40
43,45,13361,40
42,40,13401,40
43,45,13435,40
42,40,13475,40
43,45,13515,40
42,41,13555,40
43,46,13595,40
42,42,13635,40
43,47,13681,60
41,44,13741,60
40,49,13801,60
39,45,13861,60
38,51,13920,50
37,46,13960,50
38,51,14000,50
37,45,14040,50
38,52,14080,50
37,45,14120,50
38,51,14160,50
37,45,14200,50
38,51,14240,50
37,46,14280,50
38,51,14320,50
37,46,14360,50
38,56,14400,50
39,51,14440,50
38,56,14480,50
39,52,14520,50
38,55,14560,50
39,51,14600,50
38,55,14640,50
39,53,14680,50
38,54,14720,40
39,52,14760,50
38,55,14800,50
39,53,14840,50
38,56,14880,70
39,54,14940,60
38,60,15000,40
36,63,15060,40
35,67,15120,40
34,70,15180,40
33,73,15240,60
32,77,15300,40
45,36,29040,60
44,38,29100,60
45,42,29160,60
44,45,29220,60
45,46,29280,60
44,50,29340,60
45,52,29400,60
44,52,29460,60
45,54,29520,40
44,48,29560,40
45,54,29600,40
44,47,29640,40
45,55,29680,40
44,49,29720,40
45,55,29760,40
44,49,29800,40
45,55,29840,40
44,49,29880,40
45,56,29920,40
44,50,29960,40
45,56,29994,40
44,50,30034,40
45,57,30074,40
44,51,30114,40
45,57,30154,40
44,51,30194,40
45,56,30240,60
43,53,30300,60
42,56,30360,60
41,54,30420,60
40,53,30480,50
39,48,30520,50
40,53,30560,50
39,47,30600,50
40,53,30640,50
39,48,30680,50
40,53,30720,50
39,46,30760,50
40,52,30800,50
39,48,30840,50
40,52,30880,50
39,46,30920,50
40,51,30960,50
39,46,31000,50
40,51,31040,50
39,45,31080,50
40,52,31120,50
39,45,31160,50
40,51,31200,50
39,45,31240,50
40,51,31280,50
39,46,31320,50
40,51,31360,50
39,46,31400,50
40,53,31440,50
39,45,31480,50
40,51,31520,50
39,45,31560,50
40,51,31600,50
39,45,31640,50
40,51,31680,50
39,45,31720,50
40,51,31760,50
39,45,31800,50
40,51,31840,50
39,46,31880,50
40,48,31920,70
39,48,31980,70
40,49,32040,60
38,53,32100,40
37,55,32160,40
36,58,32220,40
35,62,32280,60
34,64,32340,40
43,35,39121,60
42,36,39181,60
43,39,39241,60
42,42,39301,60
43,44,39361,60
42,46,39421,60
43,47,39481,60
42,47,39541,60
43,49,39601,40
42,44,39641,40
43,49,39681,40
42,43,39721,40
43,49,39761,40
42,44,39801,40
43,49,39841,40
42,44,39881,40
43,49,39921,40
42,43,39961,40
43,49,40001,40
42,44,40041,40
43,49,40075,40
42,44,40115,40
43,49,40155,40
42,44,40195,40
43,49,40235,40
42,44,40275,40
43,49,40321,60
41,45,40381,60
40,50,40441,60
39,45,40501,60
38,51,40560,75
37,46,40620,75
38,51,40680,75
37,45,40740,75
38,52,40800,75
37,45,40860,75
38,51,40920,75
37,45,40980,75
38,56,41040,75
39,51,41100,75
38,56,41160,75
39,52,41220,75
38,55,41280,75
39,51,41340,75
38,55,41400,75
39,53,41460,75
38,56,41520,70
39,54,41580,60
38,60,41640,40
36,63,41700,40
35,67,41760,40
34,70,41820,40
33,73,41880,60
32,77,41940,40
38,28,56640,30
29,24,56640,30
34,24,56640,30
41,28,56670,30
38,29,56700,30
29,24,56700,30
34,24,56700,30
41,29,56730,30
38,29,56760,30
29,25,56760,30
34,25,56760,30
41,29,56790,30
38,30,56820,30
29,25,56820,30
34,25,56820,30
41,30,56850,30
38,30,56880,30
29,26,56880,30
34,26,56880,30
41,30,56910,30
38,31,56940,30
29,26,56940,30
34,26,56940,30
41,32,56970,30
38,32,57000,30
29,27,57000,30
34,27,57000,30
41,33,57030,30
38,33,57060,30
29,27,57060,30
34,27,57060,30
41,33,57090,30
38,33,57120,30
29,28,57120,30
34,28,57120,30
41,34,57150,30
38,34,57180,30
29,28,57180,30
34,28,57180,30
41,34,57210,30
38,35,57240,30
29,29,57240,30
34,29,57240,30
41,36,57270,30
38,36,57300,30
29,29,57300,30
34,29,57300,30
41,36,57330,28
38,36,57600,30
29,30,57600,30
34,30,57600,30
41,36,57630,30
38,36,57660,30
29,31,57660,30
34,31,57660,30
41,36,57690,30
38,36,57720,30
29,31,57720,30
34,31,57720,30
41,36,57750,30
38,37,57780,30
29,31,57780,30
34,31,57780,30
41,37,57810,30
38,37,57840,30
29,31,57840,30
34,31,57840,30
41,37,57870,30
38,37,57900,30
29,31,57900,30
34,31,57900,30
41,37,57930,30
38,37,57960,30
29,32,57960,30
34,32,57960,30
41,37,57990,30
38,37,58020,30
29,32,58020,30
34,32,58020,30
41,37,58050,30
38,38,58080,30
29,32,58080,30
34,32,58080,30
41,38,58110,30
38,38,58140,30
29,32,58140,30
34,32,58140,30
41,38,58170,30
38,38,58200,30
29,32,58200,30
34,32,58200,30
41,38,58230,30
38,38,58260,30
29,32,58260,30
34,32,58260,30
41,34,58290,28
39,34,58560,30
29,28,58560,30
33,28,58560,30
41,34,58590,30
39,34,58620,30
29,28,58620,30
33,28,58620,30
41,34,58650,30
39,34,58680,30
29,28,58680,30
33,28,58680,30
41,34,58710,30
39,34,58740,30
29,28,58740,30
33,28,58740,30
41,34,58770,30
39,38,58800,30
29,32,58800,30
33,32,58800,30
41,38,58830,30
39,38,58860,30
29,32,58860,30
33,32,58860,30
41,38,58890,30
39,38,58920,30
29,32,58920,30
33,32,58920,30
41,39,58950,30
39,39,58980,30
29,33,58980,30
33,33,58980,30
41,39,59010,30
39,39,59040,30
29,33,59040,30
33,33,59040,30
41,39,59070,30
39,39,59100,30
29,33,59100,30
33,33,59100,30
41,39,59130,30
39,39,59160,30
29,33,59160,30
33,33,59160,30
41,39,59190,30
39,39,59220,30
29,33,59220,30
33,33,59220,30
41,39,59250,30
29,36,59280,60
33,36,59280,60
39,39,59280,60
41,40,59340,60
30,40,59400,60
41,40,59460,60
31,40,59520,60
41,40,59580,60
32,40,59640,60
41,41,59700,60
33,41,59760,60
41,41,59820,60
34,41,59880,60
41,42,59940,60
35,42,60000,60
41,42,60060,60
36,42,60120,60
41,42,60180,58
39,28,60480,30
30,24,60480,30
35,24,60480,30
42,28,60510,30
39,29,60540,30
30,24,60540,30
35,24,60540,30
42,29,60570,30
39,29,60600,30
30,25,60600,30
35,25,60600,30
42,29,60630,30
39,30,60660,30
30,25,60660,30
35,25,60660,30
42,30,60690,30
39,30,60720,30
30,26,60720,30
35,26,60720,30
42,30,60750,30
39,31,60780,30
30,26,60780,30
35,26,60780,30
42,32,60810,30
39,32,60840,30
30,27,60840,30
35,27,60840,30
42,33,60870,30
39,33,60900,30
30,27,60900,30
35,27,60900,30
42,33,60930,30
39,33,60960,30
30,28,60960,30
35,28,60960,30
42,34,60990,30
39,34,61020,30
30,28,61020,30
35,28,61020,30
42,34,61050,30
39,35,61080,30
30,29,61080,30
35,29,61080,30
42,36,61110,30
39,36,61140,30
30,29,61140,30
35,29,61140,30
42,36,61170,28
39,36,61440,30
30,30,61440,30
35,30,61440,30
42,36,61470,30
39,36,61500,30
30,31,61500,30
35,31,61500,30
42,36,61530,30
39,36,61560,30
30,31,61560,30
35,31,61560,30
42,36,61590,30
39,37,61620,30
30,31,61620,30
35,31,61620,30
42,37,61650,30
39,37,61680,30
30,31,61680,30
35,31,61680,30
42,37,61710,30
39,37,61740,30
30,31,61740,30
35,31,61740,30
42,37,61770,30
39,37,61800,30
30,32,61800,30
35,32,61800,30
42,37,61830,30
39,37,61860,30
30,32,61860,30
35,32,61860,30
42,37,61890,30
39,38,61920,30
30,32,61920,30
35,32,61920,30
42,38,61950,30
39,38,61980,30
30,32,61980,30
35,32,61980,30
42,38,62010,30
39,38,62040,30
30,32,62040,30
35,32,62040,30
42,38,62070,30
39,38,62100,30
30,32,62100,30
35,32,62100,30
42,34,62130,28
40,34,62400,30
30,28,62400,30
34,28,62400,30
42,34,62430,30
40,34,62460,30
30,28,62460,30
34,28,62460,30
42,34,62490,30
40,34,62520,30
30,28,62520,30
34,28,62520,30
42,34,62550,30
40,34,62580,30
30,28,62580,30
34,28,62580,30
42,34,62610,30
40,38,62640,30
30,32,62640,30
34,32,62640,30
42,38,62670,30
40,38,62700,30
30,32,62700,30
34,32,62700,30
42,38,62730,30
40,38,62760,30
30,32,62760,30
34,32,62760,30
42,39,62790,30
40,39,62820,30
30,33,62820,30
34,33,62820,30
42,39,62850,30
40,39,62880,30
30,33,62880,30
34,33,62880,30
42,39,62910,30
40,39,62940,30
30,33,62940,30
34,33,62940,30
42,39,62970,30
40,39,63000,30
30,33,63000,30
34,33,63000,30
42,39,63030,30
40,39,63060,30
30,33,63060,30
34,33,63060,30
42,39,63090,30
30,36,63120,60
34,36,63120,60
40,39,63120,60
42,40,63180,60
31,40,63240,60
42,40,63300,60
32,40,63360,60
42,40,63420,60
33,40,63480,60
42,41,63540,60
34,41,63600,60
42,41,63660,60
35,41,63720,60
42,42,63780,60
36,42,63840,60
42,42,63900,60
37,42,63960,60
42,42,64020,60
40,41,64320,60
37,36,64320,30
31,35,64320,30
34,35,64320,30
43,41,64350,30
40,42,64380,60
37,36,64380,30
31,35,64380,30
34,35,64380,30
43,42,64410,30
40,43,64440,60
37,36,64440,30
31,36,64440,30
34,36,64440,30
43,43,64470,30
40,44,64500,60
37,36,64500,30
31,36,64500,30
34,36,64500,30
43,44,64530,30
40,45,64560,60
37,36,64560,30
31,37,64560,30
34,37,64560,30
43,45,64590,30
40,45,64620,60
37,36,64620,30
31,38,64620,30
34,38,64620,30
43,46,64650,30
40,46,64680,60
37,36,64680,30
31,39,64680,30
34,39,64680,30
43,47,64710,30
40,47,64740,60
37,36,64740,30
31,40,64740,30
34,40,64740,30
43,48,64770,30
40,49,64800,60
37,36,64800,30
31,41,64800,30
34,41,64800,30
43,49,64830,30
40,50,64860,60
37,36,64860,30
31,42,64860,30
34,42,64860,30
43,50,64890,30
40,51,64920,60
37,36,64920,30
31,43,64920,30
34,43,64920,30
43,51,64950,30
40,52,64980,60
37,36,64980,30
31,44,64980,30
34,44,64980,30
43,52,65010,30
41,45,65280,30
32,38,65280,30
36,38,65280,30
44,45,65310,30
41,45,65340,30
32,38,65340,30
36,38,65340,30
44,46,65370,30
41,46,65400,30
32,39,65400,30
36,39,65400,30
44,47,65430,30
41,47,65460,30
32,40,65460,30
36,40,65460,30
44,48,65490,30
41,48,65520,30
32,40,65520,30
36,40,65520,30
44,49,65550,30
41,49,65580,30
32,41,65580,30
36,41,65580,30
44,50,65610,30
41,50,65640,30
32,42,65640,30
36,42,65640,30
44,50,65670,30
41,51,65700,30
32,43,65700,30
36,43,65700,30
44,51,65730,30
41,52,65760,30
32,44,65760,30
36,44,65760,30
44,52,65790,30
41,53,65820,30
32,45,65820,30
36,45,65820,30
44,53,65850,30
41,54,65880,30
32,45,65880,30
36,45,65880,30
44,54,65910,30
41,54,65940,30
32,45,65940,30
36,45,65940,30
44,54,65970,28
42,40,66240,60
39,40,66240,30
33,34,66240,30
36,34,66240,30
45,41,66270,30
42,42,66300,60
39,42,66300,30
33,35,66300,30
36,35,66300,30
45,43,66330,30
42,44,66360,60
39,44,66360,30
33,36,66360,30
36,36,66360,30
45,45,66390,30
42,45,66420,60
39,45,66420,30
33,38,66420,30
36,38,66420,30
45,46,66450,30
42,47,66480,60
39,47,66480,30
33,40,66480,30
36,40,66480,30
45,48,66510,30
42,48,66540,60
39,48,66540,30
33,40,66540,30
36,40,66540,30
45,49,66570,30
42,50,66600,60
39,50,66600,30
33,42,66600,30
36,42,66600,30
45,51,66630,30
42,52,66660,60
39,52,66660,30
33,44,66660,30
36,44,66660,30
45,53,66690,30
42,54,66720,60
39,54,66720,30
33,45,66720,30
36,45,66720,30
45,54,66750,30
42,55,66780,60
39,55,66780,30
33,46,66780,30
36,46,66780,30
45,56,66810,30
42,57,66840,60
39,57,66840,30
33,48,66840,30
36,48,66840,30
45,58,66870,30
42,59,66900,60
39,59,66900,30
33,50,66900,30
36,50,66900,30
45,59,66930,30
43,41,67200,30
34,35,67200,30
38,35,67200,30
46,42,67230,30
43,42,67260,30
34,35,67260,30
38,35,67260,30
46,43,67290,30
43,44,67320,30
34,36,67320,30
38,36,67320,30
46,45,67350,30
43,45,67380,30
34,37,67380,30
38,37,67380,30
46,45,67410,30
43,46,67440,30
34,39,67440,30
38,39,67440,30
46,47,67470,30
43,47,67500,30
34,40,67500,30
38,40,67500,30
46,48,67530,30
43,49,67560,30
34,41,67560,30
38,41,67560,30
46,50,67590,30
43,50,67620,30
34,42,67620,30
38,42,67620,30
46,51,67650,30
43,52,67680,30
34,44,67680,30
38,44,67680,30
46,53,67710,30
43,53,67740,30
34,45,67740,30
38,45,67740,30
46,54,67770,30
43,54,67800,30
34,45,67800,30
38,45,67800,30
46,55,67830,30
43,55,67860,30
34,46,67860,30
38,46,67860,30
46,56,67890,30
51,18,79440,30
60,18,79470,30
57,15,79470,30
51,18,79500,30
60,19,79530,30
57,16,79530,30
51,19,79560,30
60,19,79590,30
57,16,79590,30
51,20,79620,30
60,20,79650,30
57,17,79650,30
51,20,79680,30
60,21,79710,30
57,18,79710,30
51,21,79740,30
60,21,79770,30
57,18,79770,30
51,22,79800,30
60,22,79830,30
57,18,79830,30
51,22,79860,30
60,22,79890,30
57,18,79890,30
51,23,79920,30
60,23,79950,30
57,19,79950,30
51,23,79980,30
60,24,80010,30
57,19,80010,30
51,24,80040,30
60,24,80070,30
57,19,80070,30
51,25,80100,30
60,25,80130,30
57,20,80130,30
51,25,80160,30
60,26,80190,30
57,21,80190,30
51,26,80220,30
60,26,80250,30
57,21,80250,30
51,27,80280,30
60,27,80310,30
57,22,80310,30
51,27,80340,30
60,27,80370,30
57,22,80370,30
51,27,80400,30
60,27,80430,30
57,23,80430,30
51,27,80460,30
60,28,80490,30
57,24,80490,30
51,28,80520,30
60,28,80550,30
57,24,80550,30
51,29,80580,30
60,29,80610,30
57,25,80610,30
51,29,80640,30
60,30,80670,30
57,25,80670,30
51,30,80700,30
60,30,80730,30
57,25,80730,30
51,31,80760,30
60,31,80790,30
57,26,80790,30
51,31,80820,30
60,32,80850,30
57,27,80850,30
51,32,80880,30
60,32,80910,30
57,27,80910,30
51,32,80940,30
60,33,80970,30
57,27,80970,30
51,33,81000,30
60,33,81030,30
57,27,81030,30
51,34,81060,30
60,34,81090,30
57,28,81090,30
51,34,81120,30
60,35,81150,30
57,29,81150,30
51,35,81180,30
60,35,81210,30
57,29,81210,30
51,36,81240,30
60,36,81270,30
57,30,81270,30
51,36,81300,30
60,36,81330,30
57,30,81330,30
50,37,81360,30
60,37,81390,30
55,31,81390,30
50,37,81420,30
60,37,81450,30
55,31,81450,30
50,37,81480,30
60,36,81510,30
55,30,81510,30
50,36,81540,30
60,36,81570,30
55,30,81570,30
50,36,81600,30
60,36,81630,30
55,30,81630,30
50,36,81660,30
60,36,81690,30
55,30,81690,30
50,36,81720,30
60,35,81750,30
55,29,81750,30
50,35,81780,30
60,35,81810,30
55,29,81810,30
50,35,81840,30
60,34,81870,30
55,28,81870,30
50,34,81900,30
60,34,81930,30
55,28,81930,30
50,34,81960,30
60,33,81990,30
55,27,81990,30
50,33,82020,30
60,33,82050,30
55,27,82050,30
50,33,82080,30
60,32,82110,30
55,27,82110,30
50,32,82140,30
60,32,82170,30
55,27,82170,30
50,32,82200,30
60,31,82230,30
55,26,82230,30
50,31,82260,30
60,31,82290,30
55,26,82290,30
50,31,82320,30
59,30,82350,30
55,25,82350,30
50,30,82380,30
59,30,82410,30
55,25,82410,30
50,30,82440,30
59,29,82470,30
55,25,82470,30
50,29,82500,30
59,29,82530,30
55,25,82530,30
50,29,82560,30
59,28,82590,30
55,24,82590,30
50,28,82620,30
59,28,82650,30
55,24,82650,30
50,28,82680,30
55,27,82710,30
59,27,82710,30
50,27,82740,30
59,27,82770,30
55,23,82770,30
47,18,87120,30
53,18,87150,30
50,15,87150,30
47,18,87180,30
53,19,87210,30
50,16,87210,30
47,19,87240,30
53,19,87270,30
50,16,87270,30
47,20,87300,30
53,20,87330,30
50,17,87330,30
47,20,87360,30
53,21,87390,30
50,18,87390,30
47,21,87420,30
53,21,87450,30
50,18,87450,30
47,22,87480,30
53,22,87510,30
50,18,87510,30
47,22,87540,30
53,22,87570,30
50,18,87570,30
47,23,87600,30
53,23,87630,30
50,19,87630,30
47,23,87660,30
53,24,87690,30
50,19,87690,30
47,24,87720,30
53,24,87750,30
50,19,87750,30
47,25,87780,30
53,25,87810,30
50,20,87810,30
47,25,87840,30
53,26,87870,30
50,21,87870,30
47,26,87900,30
53,26,87930,30
50,21,87930,30
47,27,87960,30
53,27,87990,30
50,22,87990,30
47,27,88020,30
53,27,88050,30
50,22,88050,30
52,27,88080,30
59,27,88110,30
56,23,88110,30
52,27,88140,30
59,28,88170,30
56,24,88170,30
52,28,88200,30
59,28,88230,30
56,24,88230,30
52,29,88260,30
59,29,88290,30
56,25,88290,30
52,29,88320,30
59,30,88350,30
56,25,88350,30
52,30,88380,30
59,30,88410,30
56,25,88410,30
52,31,88440,30
59,31,88470,30
56,26,88470,30
52,31,88500,30
59,32,88530,30
56,27,88530,30
52,32,88560,30
59,32,88590,30
56,27,88590,30
52,32,88620,30
59,33,88650,30
56,27,88650,30
52,33,88680,30
59,33,88710,30
56,27,88710,30
52,34,88740,30
59,34,88770,30
56,28,88770,30
52,34,88800,30
59,35,88830,30
56,29,88830,30
52,35,88860,30
59,35,88890,30
56,29,88890,30
52,36,88920,30
59,36,88950,30
56,30,88950,30
52,36,88980,30
59,36,89010,30
56,30,89010,30
48,37,89040,30
52,37,89070,30
48,37,89100,30
52,37,89130,30
48,37,89160,30
52,36,89190,30
48,36,89220,30
52,36,89250,30
48,36,89280,30
52,36,89310,30
48,36,89340,30
52,36,89370,30
48,36,89400,30
52,35,89430,30
48,35,89460,30
52,35,89490,30
48,35,89520,30
52,34,89550,30
48,34,89580,30
52,34,89610,30
48,34,89640,30
52,33,89670,30
48,33,89700,30
52,33,89730,30
48,33,89760,30
52,32,89790,30
48,32,89820,30
52,32,89850,30
48,32,89880,30
52,31,89910,30
48,31,89940,30
52,31,89970,30
48,31,90000,30
52,30,90030,30
48,30,90060,30
52,30,90090,30
48,30,90120,30
52,29,90150,30
48,29,90180,30
52,29,90210,30
48,29,90240,30
52,28,90270,30
48,28,90300,30
52,28,90330,30
48,28,90360,30
52,27,90390,30
48,27,90420,30
52,27,90450,30
48,31,90480,30
52,30,90510,30
48,30,90540,30
52,30,90570,30
48,30,90600,30
52,29,90630,30
48,29,90660,30
52,29,90690,30
48,29,90720,30
52,28,90750,30
48,28,90780,30
52,28,90810,30
48,28,90840,30
52,27,90870,30
48,27,90900,30
52,27,90930,30
99,66,754080,80
101,58,754160,80
99,66,754240,80
101,58,754320,80
99,66,754400,80
101,57,754480,80
99,66,754560,80
101,58,754640,80
99,66,754720,80
101,58,754800,80
99,66,754880,80
101,58,754960,80
99,66,755040,80
101,58,755120,80
99,66,755200,80
101,58,755280,80
99,66,755360,80
101,59,755440,80
99,66,755520,80
101,59,755600,80
99,66,755680,80
101,59,755760,80
99,66,755840,80
101,59,755920,80
99,66,756000,80
101,58,756080,80
99,66,756160,80
101,59,756240,80
99,66,756320,80
101,59,756400,80
99,66,756480,80
101,59,756560,80
99,66,756640,80
101,59,756720,80
99,66,756800,80
101,59,756880,80
99,65,756960,80
101,68,757040,80
99,70,757120,80
101,73,757200,80
99,75,757280,80
101,78,757360,80
99,76,757440,80
101,75,757520,80
99,79,757600,80
98,76,757680,120
99,76,757800,120
58,80,839760,144
58,67,839920,144
58,67,840080,144
58,74,840240,144
58,70,840400,144
58,70,840560,144
58,75,840720,144
58,70,840880,144
58,70,841040,144
58,74,841200,144
58,70,841360,144
58,70,841520,144
58,74,841680,144
58,67,841840,144
58,67,842000,144
58,74,842160,144
58,70,842320,144
58,70,842480,144
58,75,842640,144
58,70,842800,144
58,70,842960,144
58,74,843120,144
58,70,843280,144
58,70,843440,144
58,74,843600,144
58,67,843760,144
58,67,843920,144
58,74,844080,144
58,70,844240,144
58,70,844400,144
58,75,844560,144
58,70,844720,144
58,70,844880,144
58,74,845040,144
58,70,845200,144
58,70,845360,144
58,74,845520,144
58,67,845680,144
58,67,845840,144
58,74,846000,144
58,70,846160,144
58,70,846320,144
58,75,846480,144
58,70,846640,144
58,70,846800,144
58,74,846960,144
58,70,847120,144
58,70,847280,144
46,79,839760,144
46,66,839920,144
46,64,840080,144
46,70,840240,144
46,66,840400,144
46,66,840560,144
46,71,840720,144
46,66,840880,144
46,66,841040,144
46,71,841200,144
46,67,841360,144
46,67,841520,144
46,71,841680,144
46,66,841840,144
46,64,842000,144
46,70,842160,144
46,66,842320,144
46,66,842480,144
46,71,842640,144
46,66,842800,144
46,66,842960,144
46,71,843120,144
46,67,843280,144
46,67,843440,144
46,71,843600,144
46,66,843760,144
46,64,843920,144
46,70,844080,144
46,66,844240,144
46,66,844400,144
46,71,844560,144
46,66,844720,144
46,66,844880,144
46,71,845040,144
46,67,845200,144
46,67,845360,144
46,71,845520,144
46,66,845680,144
46,64,845840,144
46,70,846000,144
46,66,846160,144
46,66,846320,144
46,71,846480,144
46,66,846640,144
46,66,846800,144
46,71,846960,144
46,67,847120,144
46,67,847280,144
