note,velocity,position,duration
46,79,2700,740
50,60,3440,80
55,62,3520,80
58,63,3600,80
62,64,3680,80
67,65,3760,80
70,67,3840,80
74,68,3920,80
79,70,4000,80
82,71,4080,80
86,72,4160,80
91,77,4240,80
94,80,4320,540
93,58,4860,60
91,59,4920,60
90,59,4980,60
87,60,5040,60
86,60,5100,60
84,61,5160,60
82,62,5220,60
81,62,5280,60
79,63,5340,60
78,63,5400,60
75,63,5460,60
74,63,5520,60
72,64,5580,60
70,64,5640,60
69,65,5700,60
67,65,5760,60
66,66,5820,60
63,66,5880,60
62,67,5940,60
60,68,6000,60
58,68,6060,60
57,69,6120,60
55,69,6180,60
54,70,6240,60
51,70,6300,60
50,71,6360,60
48,71,6420,60
46,72,6480,60
45,72,6540,60
43,80,6600,660
46,60,7260,60
50,62,7320,60
55,63,7380,60
58,64,7440,60
62,65,7500,60
67,67,7560,60
70,68,7620,60
74,70,7680,60
79,71,7740,60
82,72,7800,60
86,73,7860,60
91,75,7920,60
94,78,7980,720
98,80,8040,660
96,58,8700,60
94,58,8760,60
93,58,8820,60
91,59,8880,60
90,59,8940,60
87,60,9000,60
86,60,9060,60
84,61,9120,60
82,62,9180,60
81,62,9240,60
79,63,9300,60
78,63,9360,60
75,63,9420,60
74,63,9480,60
72,64,9540,60
70,64,9600,60
69,65,9660,60
67,65,9720,60
66,66,9780,60
63,66,9840,60
62,67,9900,60
60,68,9960,60
58,68,10020,60
57,69,10080,60
55,69,10140,60
54,70,10200,60
51,69,10260,60
50,70,10320,60
48,72,10380,60
46,73,10440,60
45,74,10500,60
43,80,10560,540
44,61,11100,60
45,61,11160,60
46,62,11220,60
47,63,11280,60
48,63,11340,60
49,63,11400,60
50,64,11460,60
51,64,11520,60
52,65,11580,60
53,66,11640,60
54,66,11700,60
55,67,11760,60
56,68,11820,60
57,68,11880,60
58,69,11940,60
59,69,12000,60
60,70,12060,60
61,71,12120,60
62,72,12180,60
63,72,12240,60
64,72,12300,60
65,72,12360,60
66,73,12420,60
67,76,12480,60
66,75,12540,60
65,74,12600,60
64,72,12660,60
63,72,12720,60
62,71,12780,60
61,70,12840,60
60,68,12900,60
59,66,12960,60
58,67,13020,60
57,68,13080,60
56,69,13140,60
55,70,13200,60
54,71,13260,60
53,72,13320,60
52,73,13380,60
51,74,13440,60
50,75,13500,60
49,77,13560,60
48,79,13620,60
47,80,13680,60
46,81,13740,60
45,83,13800,60
44,85,13860,60
43,97,13920,120
103,96,14400,120
98,81,14400,120
94,69,14400,120
91,69,14400,120
70,75,42240,480
73,78,42720,480
74,81,43200,480
70,74,43680,480
60,53,55200,480
62,66,55200,480
65,69,56160,480
63,54,56160,480
65,57,57120,480
69,72,57120,480
70,72,58080,480
73,75,59040,480
82,79,60000,480
74,72,60960,480
65,70,61920,480
66,64,62400,480
50,66,68160,720
62,66,68160,720
50,67,68880,240
62,67,68880,240
67,71,70560,480
79,71,70560,480
66,69,71040,480
78,69,71040,480
65,67,71520,480
77,67,71520,480
63,66,72000,480
75,66,72000,480
68,59,72480,480
71,65,72480,480
74,65,72480,480
67,63,72960,480
72,63,72960,480
59,54,76560,480
62,54,76560,480
71,65,76560,480
60,59,77040,480
63,59,77040,480
72,71,77040,480
62,60,77520,480
65,60,77520,480
74,72,77520,480
63,63,78000,480
67,63,78000,480
75,74,78000,480
65,64,78480,480
74,64,78480,480
77,76,78480,480
67,67,78960,480
75,67,78960,480
79,79,78960,480
67,70,79440,480
77,70,79440,480
79,82,79440,480
87,90,79920,480
79,76,79920,480
75,76,79920,480
86,91,80400,240
80,76,80400,240
74,76,80400,240
85,95,80640,240
81,80,80640,240
73,80,80640,240
69,71,82080,480
81,71,82080,480
68,69,82560,480
80,69,82560,480
67,67,83040,480
79,67,83040,480
65,66,83520,480
77,66,83520,480
70,59,84000,480
73,65,84000,480
76,65,84000,480
69,63,84480,480
74,63,84480,480
61,54,88080,480
64,54,88080,480
73,65,88080,480
62,59,88560,480
65,59,88560,480
74,71,88560,480
64,60,89040,480
67,60,89040,480
76,72,89040,480
65,63,89520,480
69,63,89520,480
77,74,89520,480
67,65,90000,480
76,65,90000,480
79,77,90000,480
69,69,90480,480
77,69,90480,480
81,81,90480,480
69,72,90960,480
79,72,90960,480
81,84,90960,480
89,94,91440,480
81,79,91440,480
77,77,91440,480
88,94,91920,240
81,78,91920,240
76,74,91920,240
81,83,93600,158
83,88,94080,158
84,91,94560,158
84,91,95520,158
83,90,96000,158
82,90,96480,158
81,88,96960,158
80,87,97440,158
82,83,99360,158
84,88,99840,158
85,91,100320,158
85,91,101280,158
84,90,101760,158
83,90,102240,158
82,88,102720,158
81,87,103200,158
84,83,105120,158
86,88,105600,158
87,91,106080,158
91,91,106640,158
89,90,107120,158
87,90,107600,158
84,88,108080,158
87,87,108560,158
84,87,109040,158
89,91,109520,158
87,90,110000,158
86,90,110480,158
82,88,110960,158
86,87,111440,158
82,87,111920,158
87,91,112400,158
86,90,112880,158
84,90,113360,158
81,88,113840,158
84,87,114320,158
81,87,114800,158
86,91,115280,158
84,90,115760,158
82,90,116240,158
86,88,116720,158
86,87,117200,158
85,87,117680,158
65,55,138240,960
64,50,139200,480
63,60,139680,480
62,56,140160,480
63,58,140640,480
63,55,141120,960
63,50,142080,480
63,56,142560,480
62,53,143040,480
62,54,143520,480
62,53,144000,480
61,50,144480,480
62,50,144960,480
58,50,145440,480
60,45,145920,480
57,45,146400,480
58,45,146880,478
62,47,147360,480
58,50,147840,478
62,54,148320,480
62,55,148800,478
65,61,149280,480
67,62,149760,480
63,63,150240,480
62,58,150720,480
58,56,151200,480
60,52,151680,480
57,50,152160,480
58,45,152640,478
62,48,153120,480
58,50,153600,478
62,54,154080,480
62,55,154560,478
65,61,155040,480
67,62,155520,480
63,63,156000,480
62,58,156480,480
58,56,156960,480
60,52,157440,480
57,50,157920,480
91,72,159840,480
79,62,159840,480
78,59,160320,720
90,70,160320,720
75,57,161040,240
87,67,161040,240
74,50,161280,480
86,60,161280,480
67,59,162720,480
79,70,162720,480
66,56,163200,720
78,67,163200,720
63,54,163920,240
75,64,163920,240
74,60,164160,480
62,50,164160,480
74,70,164640,480
67,59,164640,480
62,59,164640,480
67,56,165120,1440
74,67,165120,1440
62,56,165120,1440
67,63,166560,480
72,73,166560,480
60,63,166560,480
67,74,167520,158
66,66,168000,480
64,64,168480,480
62,65,168960,480
59,68,169440,158
55,65,169920,158
54,66,170400,480
52,68,170880,480
51,69,171360,480
50,71,171840,480
47,72,172320,480
47,79,175500,740
50,60,176240,80
55,62,176320,80
59,63,176400,80
62,64,176480,80
67,65,176560,80
71,67,176640,80
74,68,176720,80
79,70,176800,80
83,71,176880,80
86,72,176960,80
91,77,177040,80
95,80,177120,540
93,58,177660,60
91,59,177720,60
90,59,177780,60
88,60,177840,60
86,60,177900,60
84,61,177960,60
83,62,178020,60
81,62,178080,60
79,63,178140,60
78,63,178200,60
76,63,178260,60
74,63,178320,60
72,64,178380,60
71,64,178440,60
69,65,178500,60
67,65,178560,60
66,66,178620,60
64,66,178680,60
62,67,178740,60
60,68,178800,60
59,68,178860,60
57,69,178920,60
55,69,178980,60
54,70,179040,60
52,70,179100,60
50,71,179160,60
48,71,179220,60
47,72,179280,60
45,72,179340,60
43,80,179400,660
47,60,180060,60
50,62,180120,60
55,63,180180,60
59,64,180240,60
62,65,180300,60
67,67,180360,60
71,68,180420,60
74,70,180480,60
79,71,180540,60
83,72,180600,60
86,73,180660,60
91,75,180720,60
95,78,180780,720
98,80,180840,660
96,58,181500,60
95,58,181560,60
93,58,181620,60
91,59,181680,60
90,59,181740,60
88,60,181800,60
86,60,181860,60
84,61,181920,60
83,62,181980,60
81,62,182040,60
79,63,182100,60
78,63,182160,60
76,63,182220,60
74,63,182280,60
72,64,182340,60
71,64,182400,60
69,65,182460,60
67,65,182520,60
66,66,182580,60
64,66,182640,60
62,67,182700,60
60,68,182760,60
59,68,182820,60
57,69,182880,60
55,69,182940,60
54,70,183000,60
52,69,183060,60
50,70,183120,60
48,72,183180,60
47,73,183240,60
45,74,183300,60
43,80,183360,540
44,61,183900,60
45,61,183960,60
46,62,184020,60
47,63,184080,60
48,63,184140,60
49,63,184200,60
50,64,184260,60
51,64,184320,60
52,65,184380,60
53,66,184440,60
54,66,184500,60
55,67,184560,60
56,68,184620,60
57,68,184680,60
58,69,184740,60
59,69,184800,60
60,70,184860,60
61,71,184920,60
62,72,184980,60
63,72,185040,60
64,72,185100,60
65,72,185160,60
66,73,185220,60
67,76,185280,60
66,75,185340,60
65,74,185400,60
64,72,185460,60
63,72,185520,60
62,71,185580,60
61,70,185640,60
60,68,185700,60
59,66,185760,60
58,67,185820,60
57,68,185880,60
56,69,185940,60
55,70,186000,60
54,71,186060,60
53,72,186120,60
52,73,186180,60
51,74,186240,60
50,75,186300,60
49,77,186360,60
48,79,186420,60
47,80,186480,60
46,81,186540,60
45,83,186600,60
44,85,186660,60
43,97,186720,120
103,101,187200,120
98,86,187200,120
95,72,187200,120
91,72,187200,120
61,59,42240,60
64,59,42240,60
55,50,42300,60
61,59,42360,60
64,59,42360,60
55,50,42420,60
61,60,42480,60
64,60,42480,60
55,51,42540,60
61,60,42600,60
64,60,42600,60
55,51,42660,60
64,60,42720,60
67,60,42720,60
58,52,42780,60
64,61,42840,60
67,61,42840,60
58,51,42900,60
64,62,42960,60
67,62,42960,60
58,56,43020,60
64,64,43080,60
67,64,43080,60
58,51,43140,60
65,64,43200,60
58,52,43260,60
65,63,43320,60
58,52,43380,60
65,63,43440,60
58,53,43500,60
65,63,43560,60
58,52,43620,60
62,63,43680,60
53,52,43740,60
62,62,43800,60
53,51,43860,60
62,61,43920,60
53,50,43980,60
62,60,44040,60
53,50,44100,60
57,50,55200,80
54,41,55280,80
57,50,55360,80
54,43,55440,80
57,50,55520,80
54,43,55600,80
60,53,56160,80
57,43,56240,80
60,53,56320,80
57,45,56400,80
60,53,56480,80
57,45,56560,80
63,55,57120,80
60,46,57200,80
63,55,57280,80
60,48,57360,80
63,55,57440,80
60,48,57520,80
66,56,58080,80
63,46,58160,80
66,56,58240,80
63,49,58320,80
66,56,58400,80
63,49,58480,80
67,46,59040,80
70,59,59040,80
64,47,59120,80
67,46,59200,80
70,59,59200,80
64,49,59280,80
67,46,59360,80
70,59,59360,80
64,50,59440,80
73,48,60000,80
76,61,60000,80
67,49,60080,80
73,48,60160,80
76,61,60160,80
67,52,60240,80
73,48,60320,80
76,61,60320,80
67,52,60400,80
65,45,60960,80
70,57,60960,80
62,47,61040,80
65,45,61120,80
70,57,61120,80
62,49,61200,80
65,45,61280,80
70,56,61280,80
62,49,61360,80
58,44,61920,80
62,54,61920,80
53,45,62000,80
58,43,62080,80
62,54,62080,80
53,47,62160,80
58,43,62240,80
62,54,62240,80
53,46,62320,40
57,43,62360,120
60,51,62380,100
51,45,62480,80
57,52,62560,80
60,52,62560,80
51,46,62640,80
57,50,62720,80
60,50,62720,80
51,45,62800,80
50,53,69120,60
59,53,69120,60
62,45,69180,60
50,53,69240,60
59,53,69240,60
62,46,69300,60
50,52,69360,60
59,52,69360,60
62,45,69420,60
50,51,69480,60
59,51,69480,60
62,46,69540,60
50,51,69600,60
59,51,69600,60
62,44,69660,60
50,50,69720,60
59,50,69720,60
62,45,69780,60
50,50,69840,60
59,50,69840,60
62,44,69900,60
50,49,69960,60
59,49,69960,60
62,45,70020,60
50,49,70080,60
59,49,70080,60
62,42,70140,60
50,48,70200,60
59,48,70200,60
62,43,70260,60
50,48,70320,60
59,48,70320,60
62,42,70380,60
50,47,70440,60
59,47,70440,60
62,43,70500,60
63,63,73440,80
55,63,73440,80
67,51,73520,80
63,58,73600,80
55,58,73600,80
67,52,73680,80
55,60,73760,80
63,60,73760,80
67,54,73840,80
62,66,73920,80
53,66,73920,80
65,55,74000,80
62,62,74080,80
53,62,74080,80
65,56,74160,80
53,63,74240,80
62,63,74240,80
65,57,74320,80
60,70,74400,80
51,70,74400,80
63,58,74480,80
60,65,74560,80
51,65,74560,80
63,60,74640,80
51,67,74720,80
60,67,74720,80
63,62,74800,80
50,53,74880,60
59,53,74880,60
62,45,74940,60
50,53,75000,60
59,53,75000,60
62,48,75060,60
50,54,75120,60
59,54,75120,60
62,47,75180,60
50,54,75240,60
59,54,75240,60
62,50,75300,60
50,54,75360,60
59,54,75360,60
62,47,75420,60
50,55,75480,60
59,55,75480,60
62,50,75540,60
50,56,75600,60
59,56,75600,60
62,50,75660,60
50,56,75720,60
59,56,75720,60
62,52,75780,60
50,57,75840,60
59,57,75840,60
62,49,75900,60
50,56,75960,60
59,56,75960,60
62,50,76020,60
50,54,76080,60
59,54,76080,60
62,48,76140,60
50,54,76200,60
59,54,76200,60
62,48,76260,60
52,55,81120,60
61,55,81120,60
64,47,81180,60
52,54,81240,60
61,54,81240,60
64,49,81300,60
52,54,81360,60
61,54,81360,60
64,47,81420,60
52,54,81480,60
61,54,81480,60
64,49,81540,60
52,54,81600,60
61,54,81600,60
64,45,81660,60
52,53,81720,60
61,53,81720,60
64,46,81780,60
52,53,81840,60
61,53,81840,60
64,45,81900,60
52,52,81960,60
61,52,81960,60
64,46,82020,60
65,63,84960,80
57,63,84960,80
69,51,85040,80
65,58,85120,80
57,58,85120,80
69,52,85200,80
57,60,85280,80
65,60,85280,80
69,54,85360,80
64,66,85440,80
55,66,85440,80
67,55,85520,80
64,62,85600,80
55,62,85600,80
67,56,85680,80
55,63,85760,80
64,63,85760,80
67,57,85840,80
62,70,85920,80
53,70,85920,80
65,58,86000,80
62,65,86080,80
53,65,86080,80
65,60,86160,80
53,67,86240,80
62,67,86240,80
65,62,86320,80
52,53,86400,60
61,53,86400,60
64,45,86460,60
52,53,86520,60
61,53,86520,60
64,48,86580,60
52,54,86640,60
61,54,86640,60
64,47,86700,60
52,54,86760,60
61,54,86760,60
64,50,86820,60
52,54,86880,60
61,54,86880,60
64,47,86940,60
52,55,87000,60
61,55,87000,60
64,50,87060,60
52,56,87120,60
61,56,87120,60
64,50,87180,60
52,56,87240,60
61,56,87240,60
64,52,87300,60
52,57,87360,60
61,57,87360,60
64,49,87420,60
52,56,87480,60
61,56,87480,60
64,50,87540,60
52,54,87600,60
61,54,87600,60
64,48,87660,60
52,54,87720,60
61,54,87720,60
64,49,87780,60
75,65,92160,60
77,65,92160,60
81,78,92160,60
87,65,92220,60
75,55,92280,60
77,55,92280,60
81,65,92280,60
87,63,92340,60
75,54,92400,60
77,54,92400,60
81,64,92400,60
87,63,92460,60
75,54,92520,60
77,54,92520,60
81,64,92520,60
87,63,92580,60
75,56,92640,60
77,56,92640,60
81,68,92640,60
87,61,92700,60
75,49,92760,60
77,49,92760,60
81,58,92760,60
87,58,92820,60
75,48,92880,60
77,48,92880,60
81,57,92880,60
87,58,92940,60
75,47,93000,60
77,47,93000,60
81,57,93000,60
87,59,93060,60
75,61,93120,60
77,61,93120,60
81,72,93120,60
87,62,93180,60
75,50,93240,60
77,50,93240,60
81,60,93240,60
87,62,93300,60
75,50,93360,60
77,50,93360,60
81,60,93360,60
87,62,93420,60
75,50,93480,60
77,50,93480,60
81,60,93480,60
87,62,93540,60
75,55,93600,80
77,66,93600,80
87,61,93680,80
75,55,93760,80
77,55,93760,80
81,66,93760,80
87,61,93840,80
75,56,93920,80
77,56,93920,80
81,67,93920,80
87,62,94000,80
75,57,94080,80
77,68,94080,80
87,63,94160,80
75,58,94240,80
77,58,94240,80
83,69,94240,80
87,63,94320,80
75,58,94400,80
77,58,94400,80
83,69,94400,80
87,63,94480,80
75,59,94560,80
77,70,94560,80
87,64,94640,80
75,60,94720,80
77,60,94720,80
84,71,94720,80
87,64,94800,80
75,61,94880,80
77,61,94880,80
84,72,94880,80
87,65,94960,80
76,62,95040,80
80,72,95040,80
88,67,95120,80
76,63,95200,80
80,63,95200,80
88,67,95280,80
76,63,95360,80
80,63,95360,80
88,68,95440,80
75,62,95520,80
87,67,95600,80
75,63,95680,80
84,63,95680,80
87,67,95760,80
75,63,95840,80
84,63,95840,80
87,68,95920,80
74,62,96000,80
86,67,96080,80
74,63,96160,80
83,63,96160,80
86,67,96240,80
74,63,96320,80
83,63,96320,80
86,68,96400,80
73,62,96480,80
85,67,96560,80
73,63,96640,80
82,63,96640,80
85,67,96720,80
73,63,96800,80
82,63,96800,80
85,68,96880,80
72,62,96960,80
84,67,97040,80
72,63,97120,80
81,63,97120,80
84,67,97200,80
72,63,97280,80
81,63,97280,80
84,68,97360,80
71,62,97440,80
83,67,97520,80
71,63,97600,80
80,63,97600,80
83,67,97680,80
71,63,97760,80
80,63,97760,80
83,68,97840,80
76,65,97920,60
79,65,97920,60
82,78,97920,60
88,65,97980,60
76,55,98040,60
79,55,98040,60
82,65,98040,60
88,63,98100,60
76,54,98160,60
79,54,98160,60
82,64,98160,60
88,63,98220,60
76,54,98280,60
79,54,98280,60
82,64,98280,60
88,63,98340,60
76,56,98400,60
79,56,98400,60
82,68,98400,60
88,61,98460,60
76,49,98520,60
79,49,98520,60
82,58,98520,60
88,58,98580,60
76,48,98640,60
79,48,98640,60
82,57,98640,60
88,58,98700,60
76,47,98760,60
79,47,98760,60
82,57,98760,60
88,59,98820,60
76,61,98880,60
79,61,98880,60
82,72,98880,60
88,62,98940,60
76,50,99000,60
79,50,99000,60
82,60,99000,60
88,62,99060,60
76,50,99120,60
79,50,99120,60
82,60,99120,60
88,62,99180,60
76,50,99240,60
79,50,99240,60
82,60,99240,60
88,62,99300,60
76,55,99360,80
79,66,99360,80
88,61,99440,80
76,55,99520,80
79,55,99520,80
82,66,99520,80
88,61,99600,80
76,56,99680,80
79,56,99680,80
82,67,99680,80
88,62,99760,80
76,57,99840,80
79,68,99840,80
88,63,99920,80
76,58,100000,80
79,58,100000,80
84,69,100000,80
88,63,100080,80
76,58,100160,80
79,58,100160,80
84,69,100160,80
88,63,100240,80
76,59,100320,80
79,70,100320,80
88,64,100400,80
76,60,100480,80
79,60,100480,80
85,71,100480,80
88,64,100560,80
76,61,100640,80
79,61,100640,80
85,72,100640,80
88,65,100720,80
77,62,100800,80
81,72,100800,80
89,67,100880,80
77,63,100960,80
81,63,100960,80
89,67,101040,80
77,63,101120,80
81,63,101120,80
89,68,101200,80
76,62,101280,80
88,67,101360,80
76,63,101440,80
85,63,101440,80
88,67,101520,80
76,63,101600,80
85,63,101600,80
88,68,101680,80
75,62,101760,80
87,67,101840,80
75,63,101920,80
84,63,101920,80
87,67,102000,80
75,63,102080,80
84,63,102080,80
87,68,102160,80
74,62,102240,80
86,67,102320,80
74,63,102400,80
83,63,102400,80
86,67,102480,80
74,63,102560,80
83,63,102560,80
86,68,102640,80
73,62,102720,80
85,67,102800,80
73,63,102880,80
82,63,102880,80
85,67,102960,80
73,63,103040,80
82,63,103040,80
85,68,103120,80
72,62,103200,80
84,67,103280,80
72,63,103360,80
81,63,103360,80
84,67,103440,80
72,63,103520,80
81,63,103520,80
84,68,103600,80
78,65,103680,60
81,65,103680,60
84,78,103680,60
90,65,103740,60
78,55,103800,60
81,55,103800,60
84,65,103800,60
90,63,103860,60
78,55,103920,60
81,55,103920,60
84,65,103920,60
90,64,103980,60
78,55,104040,60
81,55,104040,60
84,65,104040,60
90,64,104100,60
78,58,104160,60
81,58,104160,60
84,70,104160,60
90,63,104220,60
78,51,104280,60
81,51,104280,60
84,61,104280,60
90,61,104340,60
78,50,104400,60
81,50,104400,60
84,60,104400,60
90,61,104460,60
78,50,104520,60
81,50,104520,60
84,60,104520,60
90,62,104580,60
78,61,104640,60
81,61,104640,60
84,72,104640,60
90,62,104700,60
78,50,104760,60
81,50,104760,60
84,60,104760,60
90,62,104820,60
78,50,104880,60
81,50,104880,60
84,60,104880,60
90,62,104940,60
78,50,105000,60
81,50,105000,60
84,60,105000,60
90,62,105060,60
78,55,105120,80
81,66,105120,80
90,61,105200,80
78,55,105280,80
81,55,105280,80
84,66,105280,80
90,61,105360,80
78,56,105440,80
81,56,105440,80
84,67,105440,80
90,62,105520,80
78,57,105600,80
81,68,105600,80
90,63,105680,80
78,58,105760,80
81,58,105760,80
86,69,105760,80
90,63,105840,80
78,58,105920,80
81,58,105920,80
86,69,105920,80
90,63,106000,80
78,59,106080,80
81,70,106080,80
90,64,106160,80
78,60,106240,80
81,60,106240,80
87,71,106240,80
90,64,106320,80
78,61,106400,80
81,61,106400,80
87,72,106400,80
90,65,106480,80
79,62,106560,80
83,72,106560,80
79,63,106720,80
83,63,106720,80
91,67,106800,160
79,63,106880,80
83,63,106880,80
91,68,106960,80
86,62,107040,60
79,62,107040,80
77,62,107040,80
79,62,107200,80
77,63,107200,80
86,63,107200,80
89,67,107280,160
79,63,107360,80
77,63,107360,80
86,63,107360,80
89,68,107440,80
75,62,107520,80
79,62,107520,80
75,63,107680,80
79,63,107680,80
87,67,107760,160
75,63,107840,80
79,63,107840,80
87,68,107920,80
72,62,108000,80
75,62,108000,80
72,63,108160,80
75,63,108160,80
84,67,108240,160
72,63,108320,80
75,63,108320,80
84,68,108400,80
75,62,108480,80
79,62,108480,80
75,63,108640,80
79,63,108640,80
87,67,108720,160
75,63,108800,80
79,63,108800,80
87,68,108880,80
72,62,108960,80
75,62,108960,80
72,63,109120,80
75,63,109120,80
84,67,109200,160
72,63,109280,80
75,63,109280,80
84,68,109360,80
77,62,109440,80
81,72,109440,80
77,63,109600,80
81,63,109600,80
89,67,109680,160
77,63,109760,80
81,63,109760,80
89,68,109840,80
84,62,109920,80
75,62,109920,80
75,63,110080,80
84,63,110080,80
87,67,110160,160
75,63,110240,80
84,63,110240,80
87,68,110320,80
74,62,110400,80
77,62,110400,80
74,63,110560,80
77,63,110560,80
86,67,110640,160
74,63,110720,80
77,63,110720,80
86,68,110800,80
70,62,110880,80
74,62,110880,80
70,63,111040,80
74,63,111040,80
82,67,111120,160
70,63,111200,80
74,63,111200,80
82,68,111280,80
74,62,111360,80
77,62,111360,80
74,63,111520,80
77,63,111520,80
86,67,111600,160
74,63,111680,80
77,63,111680,80
86,68,111760,80
70,62,111840,80
74,62,111840,80
70,63,112000,80
74,63,112000,80
82,67,112080,160
70,63,112160,80
74,63,112160,80
82,68,112240,80
75,62,112320,80
79,72,112320,80
75,63,112480,80
79,63,112480,80
87,67,112560,160
75,63,112640,80
79,63,112640,80
87,68,112720,80
82,62,112800,80
74,62,112800,80
74,63,112960,80
82,63,112960,80
86,67,113040,160
74,63,113120,80
82,63,113120,80
86,68,113200,80
72,62,113280,80
75,62,113280,80
72,63,113440,80
75,63,113440,80
84,67,113520,160
72,63,113600,80
75,63,113600,80
84,68,113680,80
69,62,113760,80
72,62,113760,80
69,63,113920,80
72,63,113920,80
81,67,114000,160
69,63,114080,80
72,63,114080,80
81,68,114160,80
72,62,114240,80
75,62,114240,80
72,63,114400,80
75,63,114400,80
84,67,114480,160
72,63,114560,80
75,63,114560,80
84,68,114640,80
69,62,114720,80
72,62,114720,80
69,63,114880,80
72,63,114880,80
81,67,114960,160
69,63,115040,80
72,63,115040,80
81,68,115120,80
74,62,115200,80
78,72,115200,80
74,63,115360,80
78,63,115360,80
86,67,115440,160
74,63,115520,80
78,63,115520,80
86,68,115600,80
81,62,115680,80
72,62,115680,80
72,63,115840,80
81,63,115840,80
84,67,115920,160
72,63,116000,80
81,63,116000,80
84,68,116080,80
70,62,116160,80
79,62,116160,80
70,63,116320,80
79,63,116320,80
82,67,116400,160
70,63,116480,80
79,63,116480,80
82,68,116560,80
74,62,116640,80
81,62,116640,80
74,63,116800,80
81,63,116800,80
86,67,116880,160
74,63,116960,80
81,63,116960,80
86,68,117040,80
74,62,117120,80
79,62,117120,80
74,63,117280,80
79,63,117280,80
86,67,117360,160
74,63,117440,80
79,63,117440,80
86,68,117520,80
73,62,117600,80
79,62,117600,80
73,63,117760,80
79,63,117760,80
85,67,117840,160
73,63,117920,80
79,63,117920,80
85,68,118000,80
74,62,118080,80
78,72,118080,80
86,67,118160,80
74,63,118240,80
86,67,118320,80
74,63,118400,80
86,67,118480,80
74,61,118560,80
86,62,118640,80
74,61,118720,80
86,65,118800,60
74,62,118880,80
86,65,118960,80
74,69,119040,80
82,69,119040,80
86,61,119120,80
74,59,119200,80
86,63,119280,80
74,59,119360,80
86,63,119440,80
86,57,119600,80
74,56,119680,80
86,60,119760,80
74,55,119840,80
86,60,119920,80
84,58,120080,80
72,54,120160,80
84,57,120240,80
72,54,120320,80
84,57,120400,80
82,55,120560,80
70,51,120640,80
82,55,120720,80
70,51,120800,80
82,54,120880,80
81,58,121040,80
69,54,121120,80
81,56,121200,80
69,53,121280,80
81,55,121360,80
79,54,121520,80
67,50,121600,80
79,54,121680,80
67,49,121760,80
79,52,121840,80
78,54,122000,80
66,51,122080,80
78,53,122160,80
66,51,122240,80
78,53,122320,80
75,51,122480,80
63,47,122560,80
75,51,122640,80
63,47,122720,80
75,50,122800,80
74,52,122960,80
62,48,123040,80
74,51,123120,80
62,47,123200,80
74,51,123280,80
62,49,123440,80
70,49,123440,80
58,45,123520,80
62,47,123600,80
70,48,123600,80
58,45,123680,80
62,46,123760,80
70,46,123760,80
62,45,123920,80
69,49,123920,80
57,45,124000,80
62,44,124080,80
69,47,124080,80
57,44,124160,80
62,43,124240,80
69,45,124240,80
62,38,124400,80
67,44,124400,80
55,40,124480,80
62,38,124560,80
67,44,124560,80
55,38,124640,80
62,37,124720,80
67,42,124720,80
62,36,124880,80
66,44,124880,80
54,40,124960,80
62,36,125040,80
66,41,125040,80
54,39,125120,80
62,34,125200,80
66,41,125200,80
54,33,125360,80
57,34,125360,80
63,39,125360,80
51,36,125440,80
54,33,125520,80
57,33,125520,80
63,38,125520,80
51,35,125600,80
54,33,125680,80
57,33,125680,80
63,36,125680,80
55,33,125840,80
58,33,125840,80
62,38,125840,80
50,35,125920,80
55,32,126000,80
58,32,126000,80
62,37,126000,80
50,34,126080,80
55,32,126160,80
58,32,126160,80
62,36,126160,80
60,34,126320,80
54,35,126320,80
62,35,126320,80
50,32,126400,80
60,27,126480,80
54,28,126480,80
62,34,126480,80
50,32,126560,80
60,27,126640,80
54,27,126640,80
62,33,126640,80
50,40,126740,460
55,43,126760,440
58,44,126780,420
62,46,126800,400
70,45,127200,80
86,37,127280,80
74,40,127360,80
86,38,127440,80
79,41,127520,80
86,39,127600,80
82,47,127680,80
86,39,127760,80
79,43,127840,80
86,43,127920,80
74,44,128000,80
86,41,128080,80
75,50,128160,80
91,43,128240,80
79,45,128320,80
91,42,128400,80
87,45,128480,80
91,42,128560,80
74,50,128640,80
90,42,128720,80
78,45,128800,80
90,42,128880,80
86,45,128960,80
90,42,129040,80
72,50,129120,80
87,42,129200,80
75,45,129280,80
87,43,129360,80
79,45,129440,80
87,41,129520,80
70,50,129600,80
86,42,129680,80
74,45,129760,80
86,43,129840,80
79,45,129920,80
86,41,130000,80
82,50,130080,80
86,42,130160,80
79,45,130240,80
86,42,130320,80
74,45,130400,80
86,42,130480,80
70,50,130560,80
86,42,130640,80
74,45,130720,80
86,45,130800,80
79,45,130880,80
86,42,130960,80
69,50,131040,80
86,43,131120,80
74,45,131200,80
86,42,131280,80
77,45,131360,80
86,42,131440,80
67,50,131520,80
84,42,131600,80
72,45,131680,80
84,42,131760,80
75,45,131840,80
84,42,131920,80
65,50,132000,80
82,42,132080,80
70,45,132160,80
82,43,132240,80
74,45,132320,80
82,41,132400,80
63,50,132480,80
81,42,132560,80
69,45,132640,80
81,43,132720,80
72,45,132800,80
81,41,132880,80
75,50,132960,80
81,42,133040,80
72,45,133120,80
81,42,133200,80
69,45,133280,80
81,42,133360,80
63,50,133440,80
81,42,133520,80
69,45,133600,80
81,45,133680,80
72,45,133760,80
81,42,133840,80
69,59,133920,80
84,43,134000,80
72,50,134080,80
84,42,134160,80
75,47,134240,80
84,42,134320,80
63,50,134400,80
81,42,134480,80
69,45,134560,80
81,42,134640,80
72,45,134720,80
81,42,134800,80
64,50,134880,80
79,42,134960,80
70,45,135040,80
79,43,135120,80
76,45,135200,80
79,41,135280,80
67,58,135360,80
82,46,135440,80
70,50,135520,80
82,43,135600,80
74,45,135680,80
82,41,135760,80
79,50,135840,80
82,42,135920,80
74,45,136000,80
82,42,136080,80
70,45,136160,80
82,42,136240,80
66,50,136320,80
81,42,136400,80
69,45,136480,80
81,45,136560,80
74,45,136640,80
81,42,136720,80
66,50,136800,80
81,43,136880,80
69,45,136960,80
81,42,137040,80
75,45,137120,80
81,42,137200,80
67,50,137280,80
79,42,137360,80
70,45,137440,80
79,42,137520,80
74,45,137600,80
79,42,137680,80
66,50,137760,80
78,42,137840,80
69,45,137920,80
78,43,138000,80
74,45,138080,80
78,41,138160,80
77,46,138320,80
68,50,138400,80
77,43,138480,80
71,45,138560,80
77,41,138640,80
74,50,138720,80
77,42,138800,80
71,45,138880,80
77,42,138960,80
68,45,139040,80
77,42,139120,80
76,42,139280,80
67,45,139360,80
76,45,139440,80
72,45,139520,80
76,42,139600,80
75,43,139760,80
67,45,139840,80
75,42,139920,80
72,45,140000,80
75,42,140080,80
74,42,140240,80
67,45,140320,80
74,42,140400,80
71,45,140480,80
74,42,140560,80
75,42,140720,80
67,45,140800,80
75,43,140880,80
72,45,140960,80
75,41,141040,80
75,46,141200,80
67,50,141280,80
75,43,141360,80
68,45,141440,80
75,41,141520,80
72,50,141600,80
75,42,141680,80
67,45,141760,80
75,42,141840,80
68,45,141920,80
75,42,142000,80
75,42,142160,80
68,45,142240,80
75,45,142320,80
69,45,142400,80
75,42,142480,80
72,42,142560,80
75,43,142640,80
68,45,142720,80
75,42,142800,80
69,45,142880,80
75,42,142960,80
74,42,143120,80
69,45,143200,80
74,42,143280,80
70,45,143360,80
74,42,143440,80
71,42,143520,80
74,42,143600,80
67,45,143680,80
74,43,143760,80
68,45,143840,80
74,41,143920,80
74,42,144080,80
67,45,144160,80
74,42,144240,80
69,45,144320,80
74,42,144400,80
70,42,144480,80
73,42,144560,80
66,45,144640,80
73,43,144720,80
67,45,144800,80
73,41,144880,80
74,39,145040,80
66,42,145120,80
74,39,145200,80
67,41,145280,80
74,38,145360,80
70,37,145520,80
61,40,145600,80
70,38,145680,80
62,39,145760,80
70,36,145840,80
72,36,146000,80
63,38,146080,80
72,36,146160,80
62,37,146240,80
72,35,146320,80
69,35,146480,80
63,36,146560,80
69,35,146640,80
62,36,146720,80
69,33,146800,80
67,30,146960,80
70,36,146960,80
61,38,147040,80
67,29,147120,80
70,36,147120,80
62,37,147200,80
67,29,147280,80
70,36,147280,80
70,30,147440,80
74,36,147440,80
66,43,147520,80
70,28,147600,80
74,36,147600,80
67,43,147680,80
70,31,147760,80
74,36,147760,80
67,34,147920,80
70,39,147920,80
61,42,148000,80
67,33,148080,80
70,40,148080,80
62,42,148160,80
67,33,148240,80
70,39,148240,80
70,34,148400,80
74,41,148400,80
66,47,148480,80
70,32,148560,80
74,41,148560,80
67,49,148640,80
70,34,148720,80
74,40,148720,80
71,36,148880,80
74,43,148880,80
66,47,148960,80
71,36,149040,80
74,45,149040,80
67,46,149120,80
71,37,149200,80
74,44,149200,80
74,37,149360,80
77,45,149360,80
68,50,149440,80
74,36,149520,80
77,45,149520,80
67,51,149600,80
74,37,149680,80
77,45,149680,80
75,41,149840,80
79,49,149840,80
71,52,149920,80
75,40,150000,80
79,49,150000,80
72,50,150080,80
75,39,150160,80
79,46,150160,80
72,39,150320,80
75,46,150320,80
66,51,150400,80
72,36,150480,80
75,45,150480,80
67,51,150560,80
72,37,150640,80
75,45,150640,80
70,37,150800,80
74,45,150800,80
66,48,150880,80
70,36,150960,80
74,44,150960,80
67,45,151040,80
70,36,151120,80
74,42,151120,80
67,34,151280,80
70,41,151280,80
61,46,151360,80
67,32,151440,80
70,41,151440,80
62,45,151520,80
67,32,151600,80
70,38,151600,80
69,34,151760,80
72,40,151760,80
63,42,151840,80
69,32,151920,80
72,39,151920,80
62,40,152000,80
69,30,152080,80
72,36,152080,80
66,30,152240,80
69,36,152240,80
63,42,152320,80
66,27,152400,80
69,36,152400,80
62,41,152480,80
66,28,152560,80
69,34,152560,80
67,30,152720,80
70,36,152720,80
61,38,152800,80
67,29,152880,80
70,36,152880,80
62,37,152960,80
67,29,153040,80
70,36,153040,80
70,30,153200,80
74,36,153200,80
66,43,153280,80
70,28,153360,80
74,36,153360,80
67,43,153440,80
70,31,153520,80
74,36,153520,80
67,34,153680,80
70,39,153680,80
61,42,153760,80
67,33,153840,80
70,40,153840,80
62,42,153920,80
67,33,154000,80
70,39,154000,80
70,34,154160,80
74,41,154160,80
66,46,154240,80
70,32,154320,80
74,41,154320,80
67,47,154400,80
70,34,154480,80
74,40,154480,80
71,36,154640,80
74,43,154640,80
66,47,154720,80
71,36,154800,80
74,45,154800,80
67,46,154880,80
71,37,154960,80
74,44,154960,80
74,37,155120,80
77,45,155120,80
68,50,155200,80
74,36,155280,80
77,45,155280,80
67,52,155360,80
74,37,155440,80
77,45,155440,80
75,41,155600,80
79,49,155600,80
71,52,155680,80
75,40,155760,80
79,49,155760,80
72,50,155840,80
75,39,155920,80
79,46,155920,80
72,39,156080,80
75,46,156080,80
66,52,156160,80
72,36,156240,80
75,45,156240,80
67,50,156320,80
72,37,156400,80
75,45,156400,80
70,37,156560,80
74,45,156560,80
66,48,156640,80
70,36,156720,80
74,44,156720,80
67,45,156800,80
70,36,156880,80
74,42,156880,80
67,34,157040,80
70,41,157040,80
61,47,157120,80
67,32,157200,80
70,41,157200,80
62,47,157280,80
67,32,157360,80
70,38,157360,80
69,34,157520,80
72,40,157520,80
63,42,157600,80
69,32,157680,80
72,39,157680,80
62,40,157760,80
69,30,157840,80
72,36,157840,80
66,30,158000,80
69,36,158000,80
63,42,158080,80
66,27,158160,80
69,36,158160,80
62,41,158240,80
66,28,158320,80
69,34,158320,80
59,63,167040,80
67,63,167040,80
71,51,167120,80
59,54,167200,80
67,54,167200,80
71,49,167280,80
59,54,167360,80
67,54,167360,80
71,50,167440,80
59,62,167520,80
71,50,167600,80
59,54,167680,80
67,54,167680,80
71,50,167760,80
59,54,167840,80
67,54,167840,80
71,50,167920,80
59,63,168000,80
67,63,168000,80
71,50,168080,80
59,54,168160,80
67,54,168160,80
71,52,168240,80
59,55,168320,80
67,55,168320,80
71,51,168400,80
59,64,168480,80
67,64,168480,80
71,52,168560,80
59,56,168640,80
67,56,168640,80
71,51,168720,80
59,56,168800,80
67,56,168800,80
71,53,168880,80
59,65,168960,80
67,65,168960,80
71,53,169040,80
59,56,169120,80
67,56,169120,80
71,52,169200,80
59,57,169280,80
67,57,169280,80
71,53,169360,80
67,64,169440,80
71,53,169520,80
59,57,169600,80
67,57,169600,80
71,54,169680,80
59,57,169760,80
67,57,169760,80
71,54,169840,80
59,54,170000,80
55,59,170080,80
59,54,170160,80
55,59,170240,80
59,54,170320,80
55,66,170400,80
59,55,170480,80
55,59,170560,80
59,55,170640,80
55,60,170720,80
59,54,170800,80
55,68,170880,80
59,55,170960,80
55,60,171040,80
59,54,171120,80
55,60,171200,80
59,55,171280,80
55,70,171360,80
59,55,171440,80
55,61,171520,80
59,56,171600,80
55,62,171680,80
59,56,171760,80
55,70,171840,80
59,56,171920,80
55,62,172000,80
59,56,172080,80
55,62,172160,80
59,57,172240,80
55,72,172320,80
59,58,172400,80
55,63,172480,80
59,57,172560,80
55,63,172640,80
59,59,172720,80
31,80,0,480
34,55,480,60
38,58,540,60
43,61,600,60
46,63,660,60
50,66,720,60
55,68,780,60
58,68,840,60
62,71,900,60
67,77,960,540
66,60,1500,60
63,61,1560,60
62,62,1620,60
60,62,1680,60
58,63,1740,60
57,63,1800,60
55,63,1860,60
54,64,1920,60
51,63,1980,60
50,63,2040,60
48,64,2100,60
46,64,2160,60
45,65,2220,60
43,66,2280,60
42,67,2340,60
39,68,2400,60
38,69,2460,60
36,70,2520,60
34,70,2580,60
33,71,2640,60
31,74,2700,740
34,54,3440,80
38,55,3520,80
43,56,3600,80
46,58,3680,80
50,59,3760,80
55,60,3840,80
58,62,3920,80
62,63,4000,80
67,64,4080,80
70,65,4160,80
74,67,4240,80
79,75,4320,540
78,50,4860,60
75,51,4920,60
74,51,4980,60
72,52,5040,60
70,52,5100,60
69,53,5160,60
67,54,5220,60
66,54,5280,60
63,54,5340,60
62,54,5400,60
60,55,5460,60
58,56,5520,60
57,56,5580,60
55,57,5640,60
54,57,5700,60
51,58,5760,60
50,58,5820,60
48,59,5880,60
46,60,5940,60
45,60,6000,60
43,61,6060,60
42,61,6120,60
39,62,6180,60
38,63,6240,60
36,63,6300,60
34,63,6360,60
33,63,6420,60
38,64,6480,60
36,64,6540,60
31,73,6600,660
34,73,6600,660
38,54,7260,60
43,55,7320,60
46,56,7380,60
50,58,7440,60
55,59,7500,60
58,60,7560,60
62,62,7620,60
67,63,7680,60
70,64,7740,60
74,65,7800,60
79,64,7860,60
82,66,7920,60
86,68,7980,60
91,75,8040,660
87,50,8700,60
86,50,8760,60
84,50,8820,60
82,51,8880,60
81,51,8940,60
79,52,9000,60
78,52,9060,60
75,53,9120,60
74,54,9180,60
72,54,9240,60
70,54,9300,60
69,54,9360,60
67,55,9420,60
66,56,9480,60
63,56,9540,60
62,57,9600,60
60,57,9660,60
58,58,9720,60
57,58,9780,60
55,59,9840,60
54,60,9900,60
51,60,9960,60
50,61,10020,60
48,61,10080,60
46,62,10140,60
45,61,10200,60
43,62,10260,60
42,63,10320,60
39,63,10380,60
38,65,10440,60
36,66,10500,60
31,73,10560,540
34,73,10560,540
35,43,11100,60
36,44,11160,60
37,44,11220,60
38,45,11280,60
39,45,11340,60
40,46,11400,60
41,46,11460,60
42,47,11520,60
43,48,11580,60
44,49,11640,60
45,49,11700,60
46,50,11760,60
47,51,11820,60
48,52,11880,60
49,52,11940,60
50,53,12000,60
51,54,12060,60
52,54,12120,60
53,54,12180,60
54,55,12240,60
55,56,12300,60
56,57,12360,60
57,57,12420,60
58,53,12480,60
57,53,12540,60
56,52,12600,60
55,51,12660,60
54,51,12720,60
53,50,12780,60
52,49,12840,60
51,49,12900,60
50,46,12960,60
49,47,13020,60
48,48,13080,60
47,50,13140,60
46,51,13200,60
45,53,13260,60
44,54,13320,60
43,55,13380,60
42,59,13440,60
41,60,13500,60
40,62,13560,60
39,63,13620,60
38,64,13680,60
37,66,13740,60
36,67,13800,60
35,69,13860,60
31,79,13920,120
34,79,13920,120
67,76,14400,120
62,63,14400,120
58,63,14400,120
55,54,14400,120
62,50,17280,1440
67,56,18720,480
66,54,19200,480
63,54,19680,480
62,50,20160,1440
62,56,21600,480
60,54,22080,480
58,54,22560,480
57,50,23040,1440
60,72,24480,480
57,67,24960,480
55,61,25440,480
58,60,25920,960
57,48,26880,480
57,56,27360,480
55,54,27840,480
54,54,28320,480
62,50,28800,1440
62,68,30240,480
63,72,30720,480
60,66,31200,480
63,66,31200,480
60,61,31680,1440
63,61,31680,1440
60,56,33120,480
63,56,33120,480
62,54,33600,480
62,54,34080,480
60,50,34560,1440
61,72,36000,480
60,67,36480,480
58,61,36960,480
60,61,37440,480
65,64,37920,480
65,63,38400,480
60,66,38880,480
62,67,39360,480
65,67,39840,480
65,69,40320,480
66,74,40800,480
67,72,41280,480
67,75,41760,480
65,70,44160,960
65,63,45120,960
46,50,46080,1400
58,50,46080,1400
46,45,47480,480
53,43,47500,460
62,51,47520,440
46,47,47960,480
63,56,48000,440
46,50,48440,480
63,61,48480,440
45,54,48920,960
63,63,48960,920
46,51,49880,480
62,61,49920,440
46,44,50360,480
53,44,50380,460
62,48,50400,440
46,46,50840,480
63,55,50880,440
46,54,51320,480
63,62,51360,440
45,54,51800,960
63,63,51840,920
46,51,52760,520
62,61,52800,480
56,52,53280,480
58,61,53280,480
58,61,53760,480
58,50,54240,480
60,63,54240,480
60,63,54720,478
62,66,55680,480
65,69,56640,478
70,72,57600,478
70,61,58560,480
72,76,58560,480
79,78,59520,480
77,76,60480,480
70,70,61440,480
57,61,62880,480
58,60,63360,480
57,58,63840,480
56,57,64320,480
55,55,64800,480
54,54,65280,480
53,53,65760,480
53,53,66240,960
53,50,67200,960
54,50,68160,960
31,50,69120,960
35,50,69120,960
38,50,69120,960
43,60,69120,960
27,55,73440,480
39,66,73440,480
29,56,73920,480
41,67,73920,480
30,57,74400,240
42,69,74400,240
31,58,74760,30
35,62,74790,30
38,66,74820,30
43,70,74850,30
71,80,74880,1440
74,80,74880,1440
53,74,76320,120
51,75,76800,120
44,76,77280,120
43,77,77760,120
41,77,78240,120
39,79,78720,120
38,80,79200,120
36,81,79680,480
34,81,80160,160
33,79,80640,240
40,79,80640,240
45,79,80640,240
29,55,84960,480
41,66,84960,480
31,56,85440,480
43,67,85440,480
32,57,85920,240
44,69,85920,240
33,58,86280,30
37,62,86310,30
40,66,86340,30
45,70,86370,30
73,80,86400,1440
76,80,86400,1440
55,74,87840,120
53,75,88320,120
46,76,88800,120
45,77,89280,120
43,78,89760,120
41,80,90240,120
40,81,90720,120
38,82,91200,159
37,84,91680,160
36,79,92100,30
48,79,92130,30
60,92,92160,960
35,79,93060,30
47,79,93090,30
59,92,93120,480
60,75,93600,480
72,75,93600,480
59,79,94080,480
71,79,94080,480
57,82,94560,480
69,82,94560,480
64,82,95040,480
63,84,95520,480
62,83,96000,480
61,82,96480,480
60,81,96960,480
59,81,97440,420
37,79,97860,30
49,79,97890,30
61,92,97920,960
36,79,98820,30
48,79,98850,30
60,92,98880,480
61,75,99360,480
73,75,99360,480
60,79,99840,480
72,79,99840,480
58,82,100320,480
70,82,100320,480
65,82,100800,480
64,84,101280,480
63,83,101760,480
62,82,102240,480
61,81,102720,480
60,81,103200,480
39,79,103620,30
51,79,103650,30
63,92,103680,960
38,79,104580,30
50,79,104610,30
62,92,104640,480
63,75,105120,480
75,75,105120,480
62,79,105600,480
74,79,105600,480
60,82,106080,480
72,82,106080,480
59,75,106560,480
67,82,106560,480
65,84,107040,480
63,83,107520,480
60,82,108000,480
63,81,108480,480
60,81,108960,480
57,75,109440,480
65,82,109440,480
63,84,109920,480
62,83,110400,480
58,82,110880,480
62,81,111360,480
58,81,111840,480
55,75,112320,480
63,82,112320,480
62,84,112800,480
60,83,113280,480
57,82,113760,480
60,81,114240,480
57,81,114720,480
54,75,115200,480
62,82,115200,480
60,84,115680,480
58,83,116160,480
62,82,116640,480
62,81,117120,480
61,81,117600,480
38,79,118080,480
45,79,118080,480
50,79,118080,480
50,71,118560,420
62,71,118560,420
55,61,118980,480
62,68,119010,450
70,72,119040,420
58,62,119460,480
67,67,119490,450
74,73,119520,158
57,48,119940,480
62,54,119960,460
66,61,119980,440
72,66,120000,158
55,55,120420,480
62,62,120450,450
70,68,120480,158
54,56,120900,480
62,60,120930,450
69,66,120960,158
51,54,121380,480
62,59,121410,450
67,65,121440,158
50,54,121860,480
57,57,121890,450
66,63,121920,158
48,42,122340,480
54,46,122360,460
57,51,122380,440
63,62,122400,158
46,48,122820,480
55,53,122850,450
62,58,122880,158
43,50,123300,480
50,52,123330,450
58,59,123360,158
42,47,123780,480
50,50,123810,450
57,55,123840,158
39,44,124260,480
50,48,124290,450
55,54,124320,158
38,43,124740,480
45,45,124770,450
54,50,124800,158
36,32,125220,480
42,36,125240,460
45,39,125260,440
51,47,125280,158
34,31,125700,480
43,34,125730,450
50,44,125760,158
33,28,126180,480
38,31,126200,460
42,36,126220,440
48,43,126240,420
31,34,126660,540
38,37,126690,510
46,44,126720,480
55,40,128130,510
67,54,128160,480
55,41,128610,30
66,58,128640,480
55,43,129090,30
63,59,129120,480
62,53,129600,1440
55,45,129600,480
65,54,131040,480
63,57,131520,480
62,57,132000,480
60,53,132480,1440
48,49,133920,480
63,59,133920,478
48,48,134400,480
60,57,134400,480
49,48,134880,480
58,57,134880,480
50,48,135360,960
58,48,135360,960
62,57,135360,1440
50,48,136320,480
57,48,136320,480
60,45,136800,480
63,54,136800,480
58,48,137280,480
62,57,137280,480
57,40,137760,480
60,40,137760,480
62,57,137760,480
56,48,138240,960
59,48,138240,960
62,57,138240,960
55,48,139200,480
67,58,139680,480
65,54,140160,480
55,48,140640,480
60,54,140640,480
54,48,141120,960
60,57,141120,1440
53,48,142080,480
54,48,142560,480
60,54,142560,480
55,45,143040,480
58,51,143040,480
53,45,143520,480
56,51,143520,480
52,45,144000,480
55,51,144000,480
51,40,144480,480
55,45,144480,480
50,43,144960,960
58,48,144960,478
55,46,145440,480
50,39,145920,960
57,45,145920,478
54,42,146400,480
31,36,146880,480
43,44,146880,480
50,34,147360,480
55,34,147360,480
58,40,147360,478
31,40,147840,480
43,47,147840,480
50,38,148320,480
55,38,148320,480
58,45,148320,480
31,44,148800,480
43,53,148800,480
55,42,149280,480
53,42,149280,480
59,42,149280,480
62,50,149280,480
31,50,149760,480
43,60,149760,480
51,45,150240,480
55,45,150240,480
60,53,150240,480
38,55,150720,480
50,39,151200,480
55,46,151200,480
50,36,151680,480
57,47,151680,478
50,34,152160,480
54,41,152160,480
31,36,152640,480
43,44,152640,480
50,34,153120,480
55,34,153120,480
58,40,153120,478
31,40,153600,480
43,47,153600,480
50,38,154080,480
55,38,154080,480
58,45,154080,480
31,44,154560,480
43,53,154560,480
55,42,155040,480
53,42,155040,480
59,42,155040,480
62,50,155040,480
31,50,155520,480
43,60,155520,480
51,45,156000,480
55,45,156000,480
60,53,156000,480
38,55,156480,480
50,39,156960,480
55,46,156960,480
50,36,157440,480
57,47,157440,478
50,34,157920,480
54,41,157920,480
62,51,158400,480
67,51,158400,480
62,56,158880,480
65,56,158880,480
64,62,159360,480
63,58,159840,480
66,58,160320,960
62,51,161280,480
67,51,161280,480
62,56,161760,480
65,56,161760,480
64,62,162240,480
63,58,162720,480
55,51,164160,480
53,56,164640,480
55,62,165120,960
55,63,166080,960
43,44,167000,280
50,45,167020,260
55,49,167040,240
43,42,167520,480
47,42,167520,480
55,50,167520,480
42,43,168000,480
47,43,168000,480
54,51,168000,480
40,44,168480,480
47,44,168480,480
52,52,168480,480
38,45,168960,480
47,45,168960,480
50,53,168960,480
35,45,169440,480
47,54,169440,480
31,45,169920,480
35,45,169920,480
43,53,169920,480
31,45,170400,480
35,45,170400,480
42,54,170400,480
31,47,170880,480
35,47,170880,480
40,56,170880,480
31,49,171360,480
35,49,171360,480
39,58,171360,480
31,51,171840,480
35,51,171840,480
38,61,171840,480
31,53,172320,480
35,63,172320,480
31,80,172800,480
35,55,173280,60
38,58,173340,60
43,61,173400,60
47,63,173460,60
50,66,173520,60
55,68,173580,60
59,68,173640,60
62,71,173700,60
67,77,173760,540
66,60,174300,60
64,61,174360,60
62,62,174420,60
60,62,174480,60
59,63,174540,60
57,63,174600,60
55,63,174660,60
54,64,174720,60
52,63,174780,60
50,63,174840,60
48,64,174900,60
47,64,174960,60
45,65,175020,60
43,66,175080,60
42,67,175140,60
40,68,175200,60
38,69,175260,60
36,70,175320,60
35,70,175380,60
33,71,175440,60
31,74,175500,740
35,54,176240,80
38,55,176320,80
43,56,176400,80
47,58,176480,80
50,59,176560,80
55,60,176640,80
59,62,176720,80
62,63,176800,80
67,64,176880,80
71,65,176960,80
74,67,177040,80
79,75,177120,540
78,50,177660,60
76,51,177720,60
74,51,177780,60
72,52,177840,60
71,52,177900,60
69,53,177960,60
67,54,178020,60
66,54,178080,60
64,54,178140,60
62,54,178200,60
60,55,178260,60
59,56,178320,60
57,56,178380,60
55,57,178440,60
54,57,178500,60
52,58,178560,60
50,58,178620,60
48,59,178680,60
47,60,178740,60
45,60,178800,60
43,61,178860,60
42,61,178920,60
40,62,178980,60
38,63,179040,60
36,63,179100,60
35,63,179160,60
33,63,179220,60
38,64,179280,60
36,64,179340,60
31,73,179400,660
35,73,179400,660
38,54,180060,60
43,55,180120,60
47,56,180180,60
50,58,180240,60
55,59,180300,60
59,60,180360,60
62,62,180420,60
67,63,180480,60
71,64,180540,60
74,65,180600,60
79,64,180660,60
83,66,180720,60
86,68,180780,60
91,75,180840,660
88,50,181500,60
86,50,181560,60
84,50,181620,60
83,51,181680,60
81,51,181740,60
79,52,181800,60
78,52,181860,60
76,53,181920,60
74,54,181980,60
72,54,182040,60
71,54,182100,60
69,54,182160,60
67,55,182220,60
66,56,182280,60
64,56,182340,60
62,57,182400,60
60,57,182460,60
59,58,182520,60
57,58,182580,60
55,59,182640,60
54,60,182700,60
52,60,182760,60
50,61,182820,60
48,61,182880,60
47,62,182940,60
45,61,183000,60
43,62,183060,60
42,63,183120,60
40,63,183180,60
38,65,183240,60
36,66,183300,60
31,73,183360,540
35,73,183360,540
36,43,183900,60
37,44,183960,60
38,44,184020,60
39,45,184080,60
40,45,184140,60
41,46,184200,60
42,46,184260,60
43,47,184320,60
44,48,184380,60
45,49,184440,60
46,49,184500,60
47,50,184560,60
48,51,184620,60
49,52,184680,60
50,52,184740,60
51,53,184800,60
52,54,184860,60
53,54,184920,60
54,54,184980,60
55,55,185040,60
56,56,185100,60
57,57,185160,60
58,57,185220,60
59,53,185280,60
58,53,185340,60
57,52,185400,60
56,51,185460,60
55,51,185520,60
54,50,185580,60
53,49,185640,60
52,49,185700,60
51,46,185760,60
50,47,185820,60
49,48,185880,60
48,50,185940,60
47,51,186000,60
46,53,186060,60
45,54,186120,60
44,55,186180,60
43,59,186240,60
42,60,186300,60
41,62,186360,60
40,63,186420,60
39,64,186480,60
38,66,186540,60
37,67,186600,60
36,69,186660,60
31,79,186720,120
35,79,186720,120
67,81,187200,120
62,67,187200,120
59,67,187200,120
55,56,187200,120
43,37,17100,1080
50,42,17160,1020
58,47,17220,120
55,32,17340,60
58,40,17400,60
55,31,17460,60
58,40,17520,60
55,31,17580,60
58,40,17640,60
55,32,17700,60
58,41,17760,60
55,33,17820,60
58,41,17880,60
55,33,17940,60
58,42,18000,60
55,33,18060,60
58,42,18120,60
55,34,18180,60
58,42,18240,60
55,34,18300,60
58,43,18360,60
55,34,18420,60
58,43,18480,60
55,34,18540,60
58,44,18600,60
55,35,18660,60
63,48,18720,60
55,36,18780,60
63,44,18840,60
55,33,18900,60
63,40,18960,60
55,45,19020,60
63,34,19080,60
55,40,19140,60
62,47,19200,60
55,34,19260,60
62,43,19320,60
55,35,19380,60
62,40,19440,60
55,35,19500,60
62,44,19560,60
55,40,19620,60
60,47,19680,60
55,33,19740,60
60,43,19800,60
55,34,19860,60
60,42,19920,60
55,33,19980,60
60,42,20040,60
55,34,20100,60
58,44,20160,60
55,32,20220,60
58,40,20280,60
55,31,20340,60
58,40,20400,60
55,31,20460,60
58,40,20520,60
55,31,20580,60
58,40,20640,60
55,31,20700,60
58,39,20760,60
55,30,20820,60
58,37,20880,60
55,29,20940,60
58,36,21000,60
55,29,21060,60
58,32,21120,60
55,28,21180,60
58,36,21240,60
55,29,21300,60
58,37,21360,60
55,30,21420,60
58,39,21480,60
55,31,21540,20
53,35,21560,100
57,48,21580,80
53,36,21660,60
57,44,21720,60
53,33,21780,60
57,40,21840,60
53,45,21900,60
57,34,21960,60
53,40,22020,20
51,39,22040,100
55,47,22060,80
51,34,22140,60
55,43,22200,60
51,35,22260,60
55,40,22320,60
51,35,22380,60
55,44,22440,60
51,40,22500,20
50,39,22520,100
53,47,22540,80
50,33,22620,60
53,43,22680,60
50,34,22740,60
53,42,22800,60
50,33,22860,60
53,42,22920,60
50,34,22980,20
48,32,23000,100
51,44,23020,80
48,32,23100,60
51,40,23160,60
48,32,23220,60
51,42,23280,60
48,33,23340,60
51,43,23400,60
48,33,23460,60
51,44,23520,60
48,35,23580,60
51,45,23640,60
48,36,23700,60
51,45,23760,60
48,36,23820,60
51,46,23880,60
48,37,23940,60
51,48,24000,60
48,38,24060,60
51,48,24120,60
48,39,24180,60
51,50,24240,60
48,40,24300,60
51,51,24360,60
48,41,24420,60
51,57,24480,60
48,39,24540,60
51,51,24600,60
48,36,24660,60
51,44,24720,60
48,48,24780,60
51,36,24840,60
48,43,24900,20
49,42,24920,100
52,52,24940,80
49,36,25020,60
52,45,25080,60
49,36,25140,60
52,44,25200,60
49,38,25260,60
52,45,25320,60
49,41,25380,60
52,52,25440,60
49,34,25500,60
52,44,25560,60
49,35,25620,60
52,42,25680,60
49,33,25740,60
52,42,25800,60
49,34,25860,20
50,44,25880,100
55,44,25900,80
50,32,25980,60
55,40,26040,60
50,32,26100,60
55,42,26160,60
50,33,26220,60
55,43,26280,60
50,33,26340,60
55,44,26400,60
50,35,26460,60
55,43,26520,60
50,34,26580,60
55,42,26640,60
50,33,26700,60
55,41,26760,60
50,32,26820,60
54,40,26880,60
50,32,26940,60
54,40,27000,60
50,32,27060,60
54,40,27120,60
50,32,27180,60
54,40,27240,60
50,32,27300,20
48,35,27320,100
51,48,27340,80
48,36,27420,60
51,44,27480,60
48,33,27540,60
51,40,27600,60
48,45,27660,60
51,34,27720,60
48,40,27780,20
46,39,27800,100
50,47,27820,80
46,34,27900,60
50,43,27960,60
46,35,28020,60
50,40,28080,60
46,35,28140,60
50,44,28200,60
46,40,28260,20
45,39,28280,100
50,47,28300,80
45,33,28380,60
50,43,28440,60
45,34,28500,60
50,42,28560,60
45,33,28620,60
50,42,28680,60
45,32,28740,15
43,40,28755,1020
50,40,28770,990
58,40,28785,75
55,32,28860,60
58,40,28920,60
55,31,28980,60
58,40,29040,60
55,31,29100,60
58,40,29160,60
55,31,29220,60
58,41,29280,60
55,33,29340,60
58,41,29400,60
55,33,29460,60
58,42,29520,60
55,33,29580,60
58,42,29640,60
55,34,29700,60
58,42,29760,60
55,34,29820,60
58,43,29880,60
55,34,29940,60
58,43,30000,60
55,34,30060,60
58,44,30120,60
55,35,30180,60
59,53,30240,60
55,39,30300,60
59,47,30360,60
55,36,30420,60
59,44,30480,60
55,50,30540,60
59,37,30600,60
55,45,30660,60
60,59,30720,60
55,44,30780,60
60,53,30840,60
55,42,30900,60
60,50,30960,60
55,44,31020,60
60,50,31080,60
55,46,31140,60
58,61,31200,60
54,44,31260,60
58,55,31320,60
54,44,31380,60
58,52,31440,60
54,38,31500,60
58,49,31560,60
54,40,31620,60
57,44,31680,60
53,32,31740,60
57,40,31800,60
53,31,31860,60
57,40,31920,60
53,31,31980,60
57,40,32040,60
53,31,32100,60
57,40,32160,60
53,32,32220,60
57,40,32280,60
53,32,32340,60
57,40,32400,60
53,32,32460,60
57,40,32520,60
53,32,32580,60
57,40,32640,60
53,32,32700,60
57,40,32760,60
53,33,32820,60
57,42,32880,60
53,34,32940,60
57,43,33000,60
53,35,33060,60
57,48,33120,60
54,36,33180,60
57,44,33240,60
54,33,33300,60
57,40,33360,60
54,45,33420,60
57,34,33480,60
54,40,33540,60
58,47,33600,60
55,34,33660,60
58,43,33720,60
55,35,33780,60
58,40,33840,60
55,35,33900,60
58,44,33960,60
55,40,34020,60
56,47,34080,80
53,33,34140,60
56,43,34200,60
53,34,34260,60
56,42,34320,60
53,33,34380,60
56,42,34440,60
53,34,34500,20
51,32,34520,100
55,44,34540,80
51,32,34620,60
55,40,34680,60
51,32,34740,60
55,42,34800,60
51,33,34860,60
55,43,34920,60
51,33,34980,60
55,44,35040,60
51,35,35100,60
55,45,35160,60
51,36,35220,60
55,45,35280,60
51,36,35340,60
55,46,35400,60
51,37,35460,60
55,48,35520,60
51,38,35580,60
55,48,35640,60
51,39,35700,60
55,50,35760,60
51,40,35820,60
55,51,35880,60
51,41,35940,60
55,57,36000,60
52,39,36060,60
55,51,36120,60
52,36,36180,60
55,44,36240,60
52,48,36300,60
55,36,36360,60
52,43,36420,60
55,52,36480,80
52,36,36540,60
55,45,36600,60
52,36,36660,60
55,44,36720,60
52,38,36780,60
55,45,36840,60
52,41,36900,60
55,52,36960,60
52,34,37020,60
55,44,37080,60
52,35,37140,60
55,42,37200,60
52,33,37260,60
55,42,37320,60
52,33,37380,60
57,46,37440,60
53,37,37500,60
57,46,37560,60
53,36,37620,60
57,45,37680,60
53,34,37740,60
57,45,37800,60
53,36,37860,20
51,36,37880,100
57,45,37900,80
51,38,37980,60
57,47,38040,60
51,44,38100,60
57,48,38160,60
51,38,38220,60
57,45,38280,60
51,37,38340,20
50,40,38360,100
58,46,38380,80
50,38,38460,60
58,46,38520,60
50,38,38580,60
58,47,38640,60
50,39,38700,60
58,47,38760,60
50,39,38820,20
54,42,38840,100
57,47,38860,80
54,39,38940,60
57,48,39000,60
54,39,39060,60
57,48,39120,60
54,40,39180,60
57,49,39240,60
54,40,39300,20
53,43,39320,100
58,49,39340,80
53,40,39420,60
58,50,39480,60
53,40,39540,60
58,50,39600,60
53,41,39660,60
58,51,39720,60
53,42,39780,20
51,44,39800,100
57,51,39820,80
51,44,39900,60
57,52,39960,60
51,43,40020,60
57,52,40080,60
51,43,40140,60
57,53,40200,60
51,43,40260,20
50,46,40280,100
58,53,40300,80
50,44,40380,60
58,52,40440,60
50,43,40500,60
58,52,40560,60
50,44,40620,60
58,52,40680,60
50,44,40740,60
58,52,40800,60
50,44,40860,60
58,52,40920,60
50,44,40980,60
58,52,41040,60
50,45,41100,60
58,52,41160,60
50,45,41220,20
51,48,41240,100
58,53,41260,80
51,45,41340,60
58,53,41400,60
51,45,41460,60
58,52,41520,60
51,45,41580,60
58,54,41640,60
51,46,41700,60
61,54,41760,60
58,54,41760,60
52,47,41820,60
61,55,41880,60
58,55,41880,60
52,47,41940,60
61,56,42000,60
58,56,42000,60
52,47,42060,60
61,57,42120,60
58,57,42120,60
52,48,42180,60
58,56,44160,60
50,46,44220,60
58,55,44280,60
50,45,44340,60
58,55,44400,60
50,45,44460,60
58,54,44520,60
50,45,44580,60
59,54,44640,60
50,44,44700,60
59,54,44760,60
50,44,44820,60
59,53,44880,60
50,44,44940,60
59,52,45000,60
50,43,45060,60
60,52,45120,60
51,43,45180,60
60,51,45240,60
51,42,45300,60
60,50,45360,60
51,41,45420,60
60,50,45480,60
51,41,45540,60
57,50,45600,60
48,40,45660,60
57,49,45720,60
48,40,45780,60
57,48,45840,60
48,39,45900,60
57,47,45960,60
48,39,46020,60
50,40,46080,60
53,32,46140,60
50,40,46200,60
53,32,46260,60
50,42,46320,60
53,34,46380,60
50,44,46440,60
53,34,46500,60
50,44,46560,60
53,32,46620,60
50,43,46680,60
53,35,46740,60
50,45,46800,60
53,35,46860,60
50,46,46920,60
53,35,46980,60
50,47,47040,60
53,36,47100,60
50,45,47160,60
53,34,47220,60
50,45,47280,60
53,34,47340,60
50,45,47400,60
53,34,47460,60
56,45,47520,60
53,36,47580,60
56,44,47640,60
53,32,47700,60
56,44,47760,60
53,36,47820,60
56,44,47880,60
53,35,47940,60
55,46,48000,60
51,38,48060,60
55,48,48120,60
51,36,48180,60
55,48,48240,60
51,40,48300,60
55,49,48360,60
51,41,48420,60
54,49,48480,60
49,34,48540,60
54,50,48600,60
49,35,48660,60
54,49,48720,60
49,38,48780,60
54,48,48840,60
49,34,48900,60
54,51,48960,120
48,32,49020,60
54,40,49080,120
48,32,49140,60
54,42,49200,120
48,33,49260,60
54,43,49320,120
48,34,49380,60
53,46,49440,120
48,37,49500,60
53,42,49560,120
48,32,49620,60
53,40,49680,120
48,32,49740,60
53,40,49800,120
48,32,49860,60
53,40,49920,60
50,32,49980,60
53,40,50040,60
50,32,50100,60
53,40,50160,60
50,32,50220,60
53,40,50280,60
56,41,50400,60
53,31,50460,60
56,40,50520,60
53,33,50580,60
56,40,50640,60
53,34,50700,60
56,41,50760,60
53,34,50820,60
55,45,50880,80
51,38,50940,60
55,45,51000,60
51,35,51060,60
55,45,51120,60
51,35,51180,60
55,47,51240,60
51,35,51300,60
54,47,51360,80
49,33,51420,60
54,43,51480,60
49,34,51540,60
54,42,51600,60
49,33,51660,60
54,42,51720,60
49,33,51780,60
54,51,51840,120
48,32,51900,60
54,40,51960,120
48,31,52020,60
54,44,52080,120
48,34,52140,60
54,43,52200,120
48,36,52260,60
53,46,52320,120
48,36,52380,60
53,41,52440,120
48,32,52500,60
53,40,52560,120
48,32,52620,60
53,40,52680,120
48,32,52740,60
53,40,52800,80
50,32,52880,80
53,40,52960,80
50,32,53040,80
53,40,53120,80
50,32,53200,80
53,45,53280,80
50,38,53360,80
53,45,53440,80
50,38,53520,80
53,45,53600,80
50,38,53680,80
55,45,53760,80
51,38,53840,80
55,45,53920,80
51,38,54000,80
55,45,54080,80
51,37,54160,80
55,48,54240,80
52,39,54320,80
55,48,54400,80
52,41,54480,80
55,48,54560,80
52,41,54640,80
57,48,54720,80
53,39,54800,80
57,48,54880,80
53,41,54960,80
57,48,55040,80
53,41,55120,80
58,50,55680,80
55,41,55760,80
58,50,55840,80
55,43,55920,80
58,51,56000,80
55,43,56080,80
62,53,56640,80
58,44,56720,80
62,53,56800,80
58,45,56880,80
62,53,56960,80
58,46,57040,80
65,56,57600,80
62,46,57680,80
65,56,57760,80
62,48,57840,80
65,56,57920,80
62,48,58000,80
67,56,58560,80
64,47,58640,80
67,57,58720,80
64,49,58800,80
67,57,58880,80
64,49,58960,80
70,46,59520,80
73,59,59520,80
64,49,59600,80
70,46,59680,80
73,59,59680,80
64,52,59760,80
70,46,59840,80
73,59,59840,80
64,52,59920,80
70,46,60480,80
74,59,60480,80
65,49,60560,80
70,46,60640,80
74,58,60640,80
65,50,60720,80
70,45,60800,80
74,57,60800,80
65,50,60880,80
62,44,61440,80
65,55,61440,80
58,46,61520,80
62,44,61600,80
65,54,61600,80
58,47,61680,80
62,43,61760,80
65,54,61760,80
58,47,61840,80
48,38,62880,80
51,48,62880,80
41,40,62960,80
48,38,63040,80
51,48,63040,80
41,41,63120,80
48,38,63200,80
51,48,63200,80
41,41,63280,80
50,45,63360,80
46,37,63440,80
50,45,63520,80
46,36,63600,80
50,44,63680,80
46,35,63760,80
50,44,63840,80
46,35,63920,80
50,43,64000,80
46,35,64080,80
50,43,64160,80
46,34,64240,80
50,42,64320,80
46,34,64400,80
50,42,64480,80
46,34,64560,80
50,41,64640,80
46,30,64720,80
51,41,64800,80
46,32,64880,80
51,40,64960,80
46,30,65040,80
51,40,65120,80
46,30,65200,80
51,39,65280,80
45,31,65360,80
51,39,65440,80
45,29,65520,80
51,38,65600,80
45,29,65680,80
51,38,65760,80
45,29,65840,80
51,37,65920,80
45,29,66000,80
51,37,66080,80
45,29,66160,80
51,39,66240,80
46,32,66320,80
51,39,66400,80
46,32,66480,80
51,38,66560,80
46,28,66640,80
51,38,66720,80
46,30,66800,80
51,37,66880,80
46,28,66960,80
51,37,67040,80
46,28,67120,80
50,36,67200,80
46,29,67280,80
50,36,67360,80
46,27,67440,80
50,36,67520,80
46,27,67600,80
50,36,67680,80
46,27,67760,80
50,35,67840,80
46,27,67920,80
50,35,68000,80
46,27,68080,80
48,50,68160,80
45,42,68240,80
48,50,68320,80
45,44,68400,80
48,51,68480,80
45,45,68560,80
48,52,68640,80
45,46,68720,80
48,53,68800,80
45,46,68880,80
48,54,68960,80
45,47,69040,80
47,64,70560,80
55,55,70640,80
47,63,70720,80
55,53,70800,80
47,63,70880,80
55,55,70960,80
48,63,71040,80
57,55,71120,80
48,63,71200,80
57,53,71280,80
48,62,71360,80
57,53,71440,80
50,62,71520,80
59,54,71600,80
50,63,71680,80
59,57,71760,80
50,64,71840,80
59,59,71920,80
51,67,72000,80
60,54,72080,80
51,60,72160,80
60,52,72240,80
51,60,72320,80
60,52,72400,80
53,59,72480,80
62,53,72560,80
53,58,72640,80
62,51,72720,80
53,58,72800,80
62,51,72880,80
55,57,72960,80
63,51,73040,80
55,56,73120,80
63,50,73200,80
55,57,73280,80
63,51,73360,80
56,54,76400,80
53,60,76480,80
56,54,76560,80
53,60,76640,80
56,54,76720,80
55,52,76880,80
51,57,76960,80
55,53,77040,80
51,57,77120,80
55,54,77200,80
53,56,77360,80
44,61,77440,80
53,55,77520,80
44,61,77600,80
53,61,77680,80
51,54,77840,80
43,60,77920,80
51,56,78000,80
43,61,78080,80
51,55,78160,80
50,58,78320,80
41,63,78400,80
50,57,78480,80
41,63,78560,80
50,56,78640,80
48,59,78800,80
39,63,78880,80
48,60,78960,80
39,64,79040,80
48,59,79120,80
47,60,79280,80
38,65,79360,80
47,59,79440,80
38,64,79520,80
47,62,79600,80
39,75,79680,80
48,62,79760,80
39,66,79840,80
48,61,79920,80
39,65,80000,80
48,61,80080,80
40,77,80160,80
46,63,80240,80
34,67,80320,160
40,67,80320,80
46,63,80400,80
34,67,80480,160
40,66,80480,80
46,63,80560,80
49,64,82080,80
57,55,82160,80
49,63,82240,80
57,53,82320,80
49,63,82400,80
57,55,82480,80
50,63,82560,80
59,55,82640,80
50,63,82720,80
59,53,82800,80
50,62,82880,80
59,53,82960,80
52,62,83040,80
61,54,83120,80
52,61,83200,80
61,53,83280,80
52,62,83360,80
61,54,83440,80
53,65,83520,80
62,55,83600,80
53,60,83680,80
62,52,83760,80
53,60,83840,80
62,52,83920,80
55,59,84000,80
64,53,84080,80
55,58,84160,80
64,51,84240,80
55,58,84320,80
64,51,84400,80
57,57,84480,80
65,51,84560,80
57,56,84640,80
65,50,84720,80
57,57,84800,80
65,51,84880,80
58,54,87920,80
55,60,88000,80
58,53,88080,80
55,60,88160,80
58,54,88240,80
57,52,88400,80
53,57,88480,80
57,51,88560,80
53,57,88640,80
57,53,88720,80
55,55,88880,80
46,61,88960,80
55,54,89040,80
46,61,89120,80
55,54,89200,80
53,54,89360,80
45,60,89440,80
53,54,89520,80
45,61,89600,80
53,55,89680,80
52,57,89840,80
43,63,89920,80
52,56,90000,80
43,63,90080,80
52,57,90160,80
50,58,90320,80
41,63,90400,80
50,58,90480,80
41,64,90560,80
50,60,90640,80
49,61,90800,80
40,65,90880,80
49,59,90960,80
40,64,91040,80
49,60,91120,80
45,75,91200,80
41,64,91200,80
50,63,91280,80
45,57,91360,80
38,57,91360,80
41,66,91360,80
50,62,91440,80
45,63,91520,80
38,63,91520,80
41,65,91520,80
50,62,91600,80
45,77,91680,80
40,77,91680,80
49,63,91760,80
45,67,91840,80
37,67,91840,80
40,67,91840,80
49,62,91920,80
40,66,92000,80
37,67,92000,80
45,66,92000,80
49,63,92080,80
56,76,95040,120
40,63,95280,120
60,74,95520,120
52,63,95760,120
59,75,96000,120
40,64,96240,120
58,75,96480,120
52,64,96720,120
51,77,96960,120
57,77,96960,120
40,64,97200,120
52,67,97440,120
56,80,97440,120
57,73,100800,120
41,63,101040,120
61,76,101280,120
53,63,101520,120
60,72,101760,120
41,64,102000,120
59,72,102240,120
53,64,102480,120
52,62,102720,120
58,72,102720,120
41,64,102960,120
53,62,103200,120
57,72,103200,120
55,72,106560,120
43,63,106800,120
59,63,107040,120
62,72,107040,120
47,63,107280,120
60,72,107520,120
48,64,107760,120
58,72,108000,120
46,64,108240,120
57,62,108480,120
60,72,108480,120
45,64,108720,120
55,62,108960,120
57,72,108960,120
43,64,109200,120
53,72,109440,120
41,63,109680,120
57,63,109920,120
60,72,109920,120
45,63,110160,120
58,72,110400,120
46,64,110640,120
57,72,110880,120
45,64,111120,120
55,62,111360,120
58,72,111360,120
43,64,111600,120
53,62,111840,120
57,72,111840,120
41,64,112080,120
51,72,112320,120
39,63,112560,120
55,63,112800,120
58,72,112800,120
43,63,113040,120
57,72,113280,120
45,64,113520,120
55,72,113760,120
43,64,114000,120
54,62,114240,120
57,72,114240,120
42,64,114480,120
51,62,114720,120
55,72,114720,120
39,64,114960,120
50,72,115200,120
38,63,115440,120
54,63,115680,120
57,72,115680,120
42,63,115920,120
55,72,116160,120
43,64,116400,120
53,70,116640,120
57,72,116640,120
41,64,116880,120
51,62,117120,120
55,72,117120,120
39,64,117360,120
51,62,117600,120
55,72,117600,120
58,45,158400,80
55,39,158480,80
58,44,158560,80
55,41,158640,80
58,49,158720,80
55,46,158800,80
59,53,158880,80
55,47,158960,80
59,53,159040,80
55,50,159120,80
59,54,159200,80
55,50,159280,80
60,59,159360,80
55,52,159440,80
60,54,159520,80
55,45,159600,80
60,51,159680,80
55,44,159760,80
60,64,159840,80
55,50,159920,80
60,60,160000,80
55,50,160080,80
60,56,160160,80
55,46,160240,1040
57,51,160320,960
63,63,160320,80
60,48,160400,80
63,56,160480,80
60,48,160560,80
63,54,160640,80
60,45,160720,80
63,52,160800,80
60,39,160880,80
63,47,160960,80
60,38,161040,80
63,45,161120,80
60,37,161200,80
58,45,161280,80
55,39,161360,80
58,44,161440,80
55,41,161520,80
58,49,161600,80
55,46,161680,80
59,53,161760,80
55,47,161840,80
59,53,161920,80
55,50,162000,80
59,54,162080,80
55,50,162160,80
60,59,162240,80
55,52,162320,80
60,54,162400,80
55,45,162480,80
60,51,162560,80
55,44,162640,80
60,64,162720,80
55,50,162800,80
60,60,162880,80
55,50,162960,80
60,56,163040,80
55,46,163120,1040
57,63,163200,80
60,48,163280,80
57,56,163360,80
60,48,163440,80
57,54,163520,80
60,45,163600,80
57,52,163680,80
60,39,163760,80
57,47,163840,80
60,38,163920,80
57,45,164000,80
60,37,164080,80
46,45,164160,80
43,39,164240,80
46,44,164320,80
43,41,164400,80
46,49,164480,80
43,46,164560,80
47,53,164640,80
43,47,164720,80
47,53,164800,80
43,50,164880,80
47,54,164960,80
43,50,165040,80
52,59,165120,80
43,52,165200,80
52,54,165280,80
43,46,165360,80
52,52,165440,80
43,45,165520,80
52,52,165600,80
43,41,165680,80
52,50,165760,80
43,43,165840,80
52,50,165920,80
43,41,166000,80
51,57,166080,80
43,45,166160,80
51,53,166240,80
43,46,166320,80
51,54,166400,80
43,45,166480,80
51,54,166560,80
43,42,166640,80
51,52,166720,80
43,42,166800,80
51,51,166880,80
43,44,166960,80
