note,velocity,position,duration
64,44,870,210
69,48,900,180
72,53,930,150
81,61,960,120
69,48,1380,55
69,57,1440,120
72,54,1560,120
71,57,1680,120
69,54,1800,120
71,45,2070,210
76,49,2100,180
80,53,2130,150
88,59,2160,120
64,48,2580,55
64,57,2640,120
68,54,2760,120
66,57,2880,120
64,54,3000,120
64,44,3270,210
69,47,3300,180
72,51,3330,150
81,59,3360,120
69,48,3780,55
69,57,3840,120
72,54,3960,120
71,57,4080,120
69,54,4200,120
71,48,4470,210
80,51,4500,180
88,54,4530,150
76,63,4560,480
64,62,5040,120
64,36,5670,210
69,40,5700,180
72,42,5730,150
81,45,5760,120
69,36,6180,55
69,43,6240,120
72,40,6360,120
71,43,6480,120
69,40,6600,120
71,36,6870,210
76,39,6900,180
80,41,6930,150
88,44,6960,120
64,36,7380,55
64,43,7440,120
68,40,7560,120
66,43,7680,120
64,40,7800,120
64,36,8070,210
69,39,8100,180
72,41,8130,150
81,44,8160,120
69,36,8580,55
69,43,8640,120
72,40,8760,120
71,43,8880,120
69,40,9000,120
71,36,9270,210
80,41,9300,180
88,43,9330,150
76,53,9360,480
64,53,9840,120
76,46,10470,210
81,50,10500,180
85,53,10530,150
93,61,10560,120
81,48,10980,55
81,57,11040,120
82,54,11160,120
81,57,11280,120
79,54,11400,120
69,45,11670,210
77,49,11700,180
81,52,11730,150
89,61,11760,120
74,48,12180,55
74,57,12240,120
77,54,12360,120
76,57,12480,120
74,54,12600,120
74,45,12870,210
79,48,12900,180
83,52,12930,150
91,61,12960,120
79,48,13380,55
79,57,13440,120
81,54,13560,120
79,57,13680,120
77,54,13800,120
67,45,14070,210
76,48,14100,180
79,52,14130,150
88,61,14160,120
72,48,14580,55
72,51,14640,120
76,48,14760,120
74,50,14880,120
72,47,15000,120
71,39,15270,210
77,42,15300,180
83,45,15330,150
89,53,15360,120
71,40,15780,55
71,47,15840,120
74,45,15960,120
72,47,16080,120
71,44,16200,120
69,36,16470,210
76,39,16500,180
81,42,16530,150
88,48,16560,120
69,40,16980,55
69,48,17040,120
72,45,17160,120
71,48,17280,120
69,45,17400,120
65,52,17520,480
75,40,17880,120
64,46,18000,480
76,40,18120,120
74,46,18240,120
71,40,18360,120
64,45,18480,480
69,45,18480,480
81,40,18960,120
72,40,18960,120
76,36,19590,210
81,40,19620,180
85,42,19650,150
93,45,19680,120
81,36,20100,55
81,43,20160,120
82,40,20280,120
81,43,20400,120
79,40,20520,120
69,36,20790,210
77,40,20820,180
81,42,20850,150
89,45,20880,120
74,36,21300,55
74,43,21360,120
77,40,21480,120
76,43,21600,120
74,40,21720,120
74,36,21990,210
79,40,22020,180
83,42,22050,150
91,45,22080,120
79,36,22500,55
79,43,22560,120
81,40,22680,120
79,43,22800,120
77,40,22920,120
67,36,23190,210
76,40,23220,180
79,42,23250,150
88,45,23280,120
72,36,23700,55
72,46,23760,120
76,44,23880,120
74,46,24000,120
72,44,24120,120
70,40,24420,180
77,44,24450,150
89,50,24480,120
70,39,24900,55
70,46,24960,120
74,44,25080,120
72,46,25200,120
70,44,25320,120
69,40,25620,180
76,44,25650,150
88,50,25680,120
69,37,26100,55
69,45,26160,120
72,42,26280,120
71,45,26400,120
69,42,26520,120
65,45,26640,480
75,37,27000,120
64,44,27120,480
76,37,27240,120
74,44,27360,120
71,37,27480,120
64,43,27600,480
69,43,27600,480
81,37,28080,120
72,37,28080,120
72,41,28480,40
81,45,28520,40
88,58,28560,90
84,49,28720,120
81,49,28880,120
76,52,29040,120
72,48,29200,120
69,48,29360,80
68,41,29440,40
76,45,29480,40
83,61,29520,90
80,54,29680,120
76,53,29840,120
71,52,30000,120
68,45,30160,120
64,45,30320,80
72,41,30400,40
81,45,30440,40
88,58,30480,90
84,49,30640,120
81,49,30800,120
76,52,30960,120
72,48,31120,120
69,48,31280,120
68,49,31600,120
76,49,31600,120
71,46,31760,120
80,46,31760,120
88,44,31920,120
76,44,31920,120
72,32,32320,40
81,36,32360,40
88,46,32400,90
84,39,32560,120
81,39,32720,120
76,41,32880,120
72,38,33040,120
69,38,33200,80
68,32,33280,40
76,36,33320,40
83,48,33360,90
80,43,33520,120
76,42,33680,120
71,41,33840,120
68,36,34000,120
64,36,34160,80
72,32,34240,40
81,36,34280,40
88,46,34320,90
84,39,34480,120
81,39,34640,120
76,41,34800,120
72,38,34960,120
69,38,35120,120
68,39,35440,120
76,39,35440,120
71,36,35600,120
80,36,35600,120
88,35,35760,120
76,35,35760,120
81,41,36180,150
85,45,36210,120
93,58,36240,90
88,49,36400,120
85,49,36560,120
81,52,36720,120
76,48,36880,120
73,48,37040,120
69,45,37360,120
74,54,37360,120
74,45,37520,120
77,53,37520,120
77,44,37680,120
81,52,37680,120
81,40,37840,120
86,48,37840,120
86,41,38000,120
89,49,38000,120
79,47,38304,186
83,50,38352,138
91,58,38400,90
86,49,38560,120
83,49,38720,120
79,52,38880,120
74,48,39040,120
71,48,39200,120
67,45,39520,120
72,54,39520,120
72,45,39680,120
76,53,39680,120
76,44,39840,120
79,52,39840,120
79,40,40000,120
84,48,40000,120
84,41,40160,120
88,49,40160,120
83,39,40320,90
89,46,40320,90
80,33,40480,120
86,39,40480,120
77,33,40640,120
83,39,40640,120
74,35,40800,120
80,41,40800,120
71,32,40960,120
77,38,40960,120
74,38,41120,80
76,32,41200,40
81,36,41240,40
88,48,41280,90
84,43,41440,120
81,42,41600,120
76,41,41760,120
72,38,41920,120
69,39,42080,120
63,33,42400,120
71,39,42400,120
75,36,42560,120
69,36,42560,120
76,39,42880,120
68,33,42880,120
80,36,43040,120
71,30,43040,120
81,39,43360,120
72,33,43360,120
76,30,43520,120
84,36,43520,120
81,38,43680,120
93,45,43680,120
46,54,44580,70
45,58,44640,130
47,48,44760,130
48,51,44880,130
50,47,45000,120
53,52,45540,70
52,56,45600,130
50,48,45720,130
48,51,45840,130
47,47,45960,120
46,48,46500,70
45,50,46560,130
47,41,46680,130
48,44,46800,130
50,40,46920,120
53,40,47460,70
52,36,47520,180
58,53,48420,70
57,56,48480,130
59,48,48600,130
60,51,48720,130
62,47,48840,120
65,50,49380,70
64,54,49440,130
62,48,49560,130
60,51,49680,130
59,47,49800,120
58,48,50340,70
57,53,50400,130
59,41,50520,130
60,44,50640,130
62,40,50760,120
65,40,51300,60
64,36,51360,180
70,50,52260,70
69,54,52320,130
67,48,52440,130
65,51,52560,130
64,47,52680,120
63,47,53220,70
62,54,53280,130
64,48,53400,130
65,51,53520,130
62,47,53640,120
68,51,54180,70
67,54,54240,130
65,45,54360,130
64,48,54480,130
62,44,54600,120
61,47,55140,70
60,52,55200,130
62,48,55320,130
64,51,55440,130
60,47,55560,120
67,48,56100,70
65,52,56160,130
62,48,56280,130
60,51,56400,130
59,47,56520,120
65,51,57060,70
64,54,57120,130
60,48,57240,130
59,51,57360,130
57,47,57480,120
60,47,58020,70
59,51,58080,130
65,41,58200,130
64,44,58320,130
56,40,58440,120
50,41,58800,60
53,41,58800,60
48,41,59040,60
52,41,59040,60
61,43,60000,480
52,36,60000,480
55,36,60000,480
65,43,60960,480
53,36,60960,480
57,36,60960,480
59,43,61920,480
50,36,61920,480
53,36,61920,480
64,43,62880,480
52,36,62880,480
55,36,62880,480
59,43,63840,480
50,36,63840,480
56,36,63840,480
60,43,64800,480
52,36,64800,480
57,36,64800,480
62,43,65280,240
53,36,65280,480
57,36,65280,480
63,43,65520,240
64,43,65760,240
52,36,65760,240
56,36,65760,240
62,36,66720,240
53,30,66720,240
57,30,66720,240
52,30,67200,240
57,30,67200,240
60,36,67200,240
50,26,67680,240
53,26,67680,240
57,32,67680,240
48,24,68160,240
52,24,68160,240
57,29,68160,240
50,20,68640,240
53,25,68640,240
48,15,69120,240
52,15,69120,240
57,18,69120,240
69,70,70080,120
57,61,70080,120
63,43,70200,60
66,52,70200,60
57,47,70440,120
69,54,70440,120
69,66,70560,120
57,58,70560,120
72,62,70680,120
60,54,70680,120
71,66,70800,120
59,58,70800,120
69,62,70920,120
57,54,70920,120
76,70,71040,120
64,61,71040,120
68,43,71160,60
71,52,71160,60
64,47,71400,120
76,54,71400,120
76,66,71520,120
64,58,71520,120
79,62,71640,120
67,54,71640,120
77,66,71760,120
65,58,71760,120
76,62,71880,120
64,54,71880,120
69,72,72000,120
57,63,72000,120
63,46,72120,60
66,54,72120,60
57,50,72360,120
69,58,72360,120
69,68,72480,120
57,60,72480,120
72,64,72600,120
60,56,72600,120
71,68,72720,120
59,60,72720,120
69,64,72840,120
57,56,72840,120
68,72,72960,120
56,63,72960,120
59,68,73080,60
63,64,73320,120
56,63,73440,240
65,73,73440,240
59,63,73440,240
64,70,73680,120
81,77,73920,120
69,66,73920,120
75,48,74040,60
78,57,74040,60
69,52,74280,120
81,61,74280,120
81,72,74400,120
69,63,74400,120
84,67,74520,120
72,60,74520,120
83,72,74640,120
71,63,74640,120
81,67,74760,120
69,60,74760,120
88,77,74880,120
76,66,74880,120
80,48,75000,60
83,57,75000,60
76,52,75240,120
88,61,75240,120
88,72,75360,120
76,63,75360,120
91,67,75480,120
79,60,75480,120
89,72,75600,120
77,63,75600,120
88,67,75720,120
76,60,75720,120
81,80,75840,120
69,69,75840,120
75,50,75960,60
78,60,75960,60
69,54,76200,120
81,63,76200,120
81,72,76320,120
69,63,76320,120
84,67,76440,120
72,60,76440,120
83,72,76560,120
71,63,76560,120
81,67,76680,120
69,60,76680,120
80,77,76800,120
68,66,76800,120
83,72,76920,60
71,67,76920,60
87,67,77160,120
75,57,77160,120
89,78,77280,240
77,56,77280,240
88,73,77520,120
76,62,77520,120
81,69,77760,120
93,81,77760,120
79,69,77760,120
85,50,77880,60
88,60,77880,60
81,54,78120,120
93,63,78120,120
93,76,78240,120
81,66,78240,120
94,70,78360,120
82,62,78360,120
93,76,78480,120
81,66,78480,120
91,70,78600,120
79,62,78600,120
89,81,78720,120
77,69,78720,120
81,50,78840,60
86,60,78840,60
73,54,79080,120
85,63,79080,120
86,76,79200,120
74,66,79200,120
89,70,79320,120
77,62,79320,120
87,76,79440,120
75,66,79440,120
86,70,79560,120
74,62,79560,120
79,69,79680,120
91,81,79680,120
77,69,79680,120
83,50,79800,60
86,60,79800,60
79,54,80040,120
91,63,80040,120
91,76,80160,120
79,66,80160,120
92,70,80280,120
80,62,80280,120
91,76,80400,120
79,66,80400,120
89,70,80520,120
77,62,80520,120
88,81,80640,120
76,69,80640,120
79,50,80760,60
84,60,80760,60
71,54,81000,120
83,63,81000,120
84,76,81120,120
72,66,81120,120
87,70,81240,120
75,62,81240,120
85,76,81360,120
73,66,81360,120
84,70,81480,120
72,62,81480,120
89,81,81600,120
77,69,81600,120
80,50,81720,60
83,60,81720,60
68,47,81960,120
71,54,81960,120
71,66,82080,120
68,58,82080,480
74,62,82200,120
72,66,82320,120
71,62,82440,120
88,81,82560,120
76,69,82560,120
81,50,82680,60
84,60,82680,60
64,49,82920,120
69,54,82920,120
69,61,83040,120
64,54,83040,480
72,56,83160,120
71,61,83280,120
69,57,83400,120
62,52,83520,120
74,62,83520,120
65,51,83640,120
77,60,83640,120
64,51,83760,120
76,60,83760,120
63,47,83880,120
75,56,83880,120
64,51,84000,120
76,60,84000,120
59,41,84120,120
71,50,84120,120
62,44,84240,120
74,52,84240,120
60,41,84360,120
72,50,84360,120
64,54,84480,120
59,30,84480,480
71,40,84480,480
67,45,84600,120
65,45,84720,120
64,42,84840,240
57,29,84960,120
69,35,84960,120
81,45,85440,240
93,51,85560,140
92,51,85680,140
80,43,85680,140
91,50,85800,140
79,42,85800,140
90,50,85920,140
78,42,85920,140
89,49,86040,140
77,41,86040,140
88,49,86160,140
76,41,86160,140
87,48,86280,120
75,40,86280,120
77,43,86400,140
89,51,86400,140
76,37,86520,140
88,45,86520,140
75,40,86640,140
87,48,86640,140
89,45,86760,120
77,37,86760,120
76,40,86880,240
88,47,86880,140
83,46,87000,140
71,38,87120,240
80,45,87120,140
76,45,87240,120
81,45,87360,240
93,51,87480,140
92,51,87600,140
80,43,87600,140
91,50,87720,140
79,42,87720,140
90,50,87840,140
78,42,87840,140
89,49,87960,140
77,41,87960,140
88,49,88080,140
76,41,88080,140
87,48,88200,120
75,40,88200,120
77,43,88320,140
89,51,88320,140
76,37,88440,140
88,45,88440,140
75,40,88560,140
87,48,88560,140
89,45,88680,140
77,37,88680,140
76,40,88800,120
88,47,88800,120
76,47,89040,120
81,45,89280,240
93,51,89400,140
92,51,89520,140
80,43,89520,140
91,50,89640,140
79,42,89640,140
90,50,89760,140
78,42,89760,140
89,49,89880,140
77,41,89880,140
88,49,90000,140
76,41,90000,140
87,48,90120,120
75,40,90120,120
77,43,90240,140
89,51,90240,140
76,37,90360,140
88,45,90360,140
75,40,90480,140
87,48,90480,140
89,45,90600,120
77,37,90600,120
76,40,90720,240
88,47,90720,140
83,46,90840,140
71,38,90960,240
80,45,90960,140
76,45,91080,120
81,45,91200,240
93,51,91320,140
92,51,91440,140
80,43,91440,140
91,50,91560,140
79,42,91560,140
90,50,91680,140
78,42,91680,140
89,49,91800,140
77,41,91800,140
88,49,91920,140
76,41,91920,140
87,48,92040,120
75,40,92040,120
77,43,92160,140
89,51,92160,140
76,37,92280,140
88,45,92280,140
75,40,92400,140
87,48,92400,140
89,45,92520,140
77,37,92520,140
76,40,92640,120
88,47,92640,120
76,47,92880,120
81,53,93120,240
93,60,93240,140
92,60,93360,140
80,50,93360,140
91,59,93480,140
79,49,93480,140
90,59,93600,140
78,49,93600,140
89,59,93720,140
77,49,93720,140
88,59,93840,140
76,49,93840,140
86,58,93960,120
74,48,93960,120
73,50,94080,240
85,60,94080,140
88,53,94200,140
73,48,94320,240
81,58,94320,140
85,53,94440,120
74,48,94560,240
86,57,94560,140
81,56,94680,140
69,46,94800,240
77,55,94800,140
74,53,94920,120
79,56,95040,240
91,63,95160,140
90,63,95280,140
78,52,95280,140
89,62,95400,140
77,51,95400,140
88,62,95520,140
76,51,95520,140
87,61,95640,140
75,50,95640,140
86,61,95760,140
74,50,95760,140
84,59,95880,120
72,49,95880,120
71,52,96000,240
83,63,96000,140
86,56,96120,140
71,49,96240,240
79,59,96240,140
83,56,96360,120
72,49,96480,240
84,59,96480,140
79,58,96600,140
67,48,96720,240
76,57,96720,140
72,56,96840,120
77,50,96960,120
93,63,97020,60
88,51,97200,140
76,43,97200,140
87,50,97320,140
75,42,97320,140
85,49,97560,140
73,41,97560,140
84,49,97680,140
72,41,97680,140
83,48,97800,120
71,40,97800,120
76,54,97920,120
91,66,97980,60
87,51,98160,140
75,43,98160,140
86,50,98280,140
74,42,98280,140
83,49,98520,140
71,41,98520,140
82,49,98640,140
70,41,98640,140
81,48,98760,120
69,40,98760,120
76,49,99000,140
64,41,99000,140
75,49,99120,140
63,41,99120,140
74,48,99240,120
62,40,99240,120
72,49,99480,140
60,41,99480,140
71,49,99600,140
59,41,99600,140
70,48,99720,120
58,40,99720,120
65,50,99960,140
64,49,100080,140
63,48,100200,140
62,46,100320,140
60,45,100440,140
59,45,100560,140
58,44,100680,120
57,45,100800,120
89,51,101040,140
81,43,101040,140
84,50,101160,140
77,42,101160,140
60,47,101520,80
59,46,101600,80
57,45,101680,80
56,45,101760,120
87,51,102000,140
80,43,102000,140
83,50,102120,140
75,42,102120,140
52,39,102480,80
54,41,102560,80
56,43,102640,80
57,45,102720,120
89,51,102960,140
81,43,102960,140
84,50,103080,140
77,42,103080,140
60,47,103440,80
59,46,103520,80
57,45,103600,80
56,45,103680,120
87,51,103920,140
80,43,103920,140
83,50,104040,140
75,42,104040,140
52,75,104460,60
54,79,104520,60
56,81,104580,60
57,83,104640,120
89,80,104880,140
81,67,104880,140
84,79,105000,140
77,65,105000,140
60,81,105360,80
59,80,105440,80
57,77,105520,80
56,81,105600,120
87,80,105840,140
80,67,105840,140
83,79,105960,140
75,65,105960,140
52,66,106320,80
54,72,106400,80
56,77,106480,80
57,83,106560,120
89,80,106800,140
81,67,106800,140
84,79,106920,140
77,65,106920,140
60,77,107280,80
59,76,107360,80
57,74,107440,80
56,73,107520,120
87,80,107760,140
80,67,107760,140
83,79,107880,140
75,65,107880,140
57,42,108300,60
59,44,108360,60
60,45,108420,60
61,47,108480,120
94,51,108720,140
88,43,108720,140
91,50,108840,140
82,42,108840,140
57,46,109200,80
59,50,109280,80
61,52,109360,80
62,55,109440,120
88,59,109680,140
81,50,109680,140
86,58,109800,140
76,49,109800,140
64,51,110160,80
62,53,110240,80
60,54,110320,80
59,57,110400,120
92,63,110640,140
86,52,110640,140
89,62,110760,140
80,51,110760,140
55,66,111120,80
57,70,111200,80
59,73,111280,80
60,76,111360,120
87,72,111600,140
79,61,111600,140
84,71,111720,140
75,60,111720,140
59,70,112080,80
60,72,112160,80
61,74,112240,80
62,77,112320,120
95,77,112560,140
86,64,112560,140
89,76,112680,140
83,63,112680,140
58,74,113040,80
60,78,113120,80
62,81,113200,80
64,84,113280,120
92,84,113520,140
83,71,113520,140
86,83,113640,140
80,70,113640,140
65,78,114000,80
64,81,114080,80
63,84,114160,80
62,87,114240,120
89,84,114480,140
81,84,114480,140
83,81,114600,140
77,81,114600,140
68,79,114720,140
76,79,114720,140
64,76,114840,140
71,76,114840,140
62,73,114960,80
60,77,115040,80
59,81,115120,80
57,87,115200,120
96,95,115440,140
88,80,115440,140
84,92,115560,140
88,80,115680,140
93,95,115680,140
81,92,115800,140
100,94,116160,720
96,80,116160,720
88,80,116160,720
98,71,116880,90
95,59,116880,90
86,59,116880,90
84,59,117000,90
93,59,117000,90
96,71,117000,90
95,78,117120,90
92,78,117120,90
83,65,117120,90
81,59,117240,90
89,59,117240,90
93,71,117240,90
80,63,117360,90
88,63,117360,90
92,73,117360,90
77,59,117480,90
86,59,117480,90
89,71,117480,90
88,73,117600,90
84,63,117600,90
76,63,117600,90
86,72,117720,90
83,60,117720,90
74,60,117720,90
84,72,117840,90
81,62,117840,90
72,62,117840,90
71,62,117960,90
83,72,117960,90
80,62,117960,90
84,76,118080,720
81,64,118080,720
72,64,118080,720
86,71,118800,120
83,59,118800,120
74,59,118800,120
88,71,118920,120
84,59,118920,120
76,59,118920,120
74,64,119040,120
83,76,119040,120
86,76,119040,120
84,74,119160,120
81,63,119160,120
72,63,119160,120
83,72,119280,120
80,60,119280,120
71,60,119280,120
69,59,119400,120
77,59,119400,120
81,71,119400,120
68,57,119520,480
76,57,119520,480
80,68,119520,480
100,94,120000,720
96,80,120000,720
88,80,120000,720
98,71,120720,90
95,59,120720,90
86,59,120720,90
84,59,120840,90
93,59,120840,90
96,71,120840,90
95,78,120960,90
92,78,120960,90
83,65,120960,90
81,59,121080,90
89,59,121080,90
93,71,121080,90
80,63,121200,90
88,63,121200,90
92,73,121200,90
77,59,121320,90
86,59,121320,90
89,71,121320,90
88,73,121440,90
84,63,121440,90
76,63,121440,90
86,72,121560,90
83,62,121560,90
74,62,121560,90
84,74,121680,90
81,63,121680,90
72,63,121680,90
83,73,121800,90
80,63,121800,90
84,72,121920,720
81,62,121920,720
72,62,121920,720
86,71,122640,120
83,59,122640,120
74,59,122640,120
88,71,122760,120
84,59,122760,120
76,59,122760,120
74,64,122880,120
86,76,122880,120
84,74,123000,120
72,63,123000,120
83,72,123120,120
71,60,123120,120
69,59,123240,120
81,71,123240,120
68,57,123360,480
80,68,123360,480
85,94,123840,600
76,80,123840,480
73,80,123840,600
81,90,124320,120
86,79,124560,90
83,55,124560,90
74,55,124560,90
76,66,124680,90
85,66,124680,90
88,79,124680,90
89,81,124800,90
86,67,124800,90
77,67,124800,90
79,71,124920,90
88,71,124920,90
91,83,124920,90
81,73,125040,90
89,73,125040,90
93,86,125040,90
83,75,125160,90
91,75,125160,90
95,87,125160,90
97,91,125280,90
93,76,125280,90
85,76,125280,90
98,93,125400,90
95,78,125400,90
86,78,125400,90
100,97,125520,90
97,81,125520,90
88,81,125520,90
98,83,125640,90
101,99,125640,90
89,83,125640,90
83,94,125760,600
74,80,125760,480
71,80,125760,600
79,90,126240,120
84,79,126480,90
81,55,126480,90
72,55,126480,90
74,66,126600,90
83,66,126600,90
86,79,126600,90
88,81,126720,90
84,67,126720,90
76,67,126720,90
77,71,126840,90
86,71,126840,90
89,83,126840,90
79,73,126960,90
88,73,126960,90
91,86,126960,90
81,75,127080,90
89,75,127080,90
93,87,127080,90
95,91,127200,90
91,76,127200,90
83,76,127200,90
96,93,127320,90
93,78,127320,90
84,78,127320,90
98,97,127440,90
95,81,127440,90
86,81,127440,90
96,83,127560,90
100,99,127560,90
88,83,127560,90
89,79,127680,90
95,79,127680,90
92,79,127680,90
101,93,127680,90
86,75,127800,90
98,90,127800,90
83,72,127920,90
95,86,127920,90
80,72,128040,90
92,86,128040,90
77,71,128160,90
80,71,128160,90
83,71,128160,90
89,83,128160,90
75,65,128280,90
87,77,128280,90
76,70,128400,90
88,82,128400,90
74,74,128520,90
86,89,128520,90
84,79,128640,90
90,79,128640,90
87,79,128640,90
96,93,128640,90
81,75,128760,90
93,90,128760,90
78,72,128880,90
90,86,128880,90
75,72,129000,90
87,86,129000,90
72,71,129120,90
75,71,129120,90
78,71,129120,90
84,83,129120,90
70,65,129240,90
82,77,129240,90
71,70,129360,90
83,82,129360,90
69,74,129480,90
81,89,129480,90
65,66,129600,90
71,66,129600,90
69,66,129600,90
77,79,129600,90
63,63,129720,90
75,75,129720,90
64,61,129840,90
76,72,129840,90
62,61,129960,90
74,72,129960,90
61,60,130080,90
73,71,130080,90
59,54,130200,90
71,65,130200,90
60,59,130320,90
72,70,130320,90
59,63,130440,90
71,74,130440,90
62,63,130560,480
65,63,130560,480
57,63,130560,720
69,75,130560,720
60,44,131040,240
64,52,131040,240
88,52,131520,80
89,45,131600,80
88,45,131680,80
84,49,131760,480
72,33,132000,120
76,33,132000,120
81,48,132240,90
83,45,132320,90
81,45,132400,90
83,47,132480,90
84,45,132560,90
83,45,132640,90
80,47,132720,90
81,44,132800,90
80,44,132880,90
76,46,132960,90
77,41,133040,90
76,42,133120,90
62,30,133200,120
64,30,133200,120
71,30,133200,120
88,52,133440,80
89,45,133520,80
88,45,133600,80
84,49,133680,480
72,37,133920,120
76,37,133920,120
64,45,134160,240
60,54,134160,80
62,53,134240,80
60,56,134320,80
64,51,134400,240
59,63,134400,80
60,63,134480,80
59,67,134560,80
63,56,134640,240
69,72,134640,80
71,67,134720,80
69,68,134800,80
64,56,134880,240
68,74,134880,80
69,66,134960,80
68,69,135040,80
88,52,135360,80
89,45,135440,80
88,45,135520,80
84,49,135600,480
72,33,135840,120
76,33,135840,120
81,48,136080,90
83,45,136160,90
81,45,136240,90
83,47,136320,90
84,45,136400,90
83,45,136480,90
80,47,136560,90
81,44,136640,90
80,44,136720,90
76,46,136800,90
77,41,136880,90
76,42,136960,90
62,30,137040,120
64,30,137040,120
71,30,137040,120
88,52,137280,80
89,45,137360,80
88,45,137440,80
84,49,137520,480
72,37,137760,120
76,37,137760,120
64,45,138000,240
60,54,138000,80
62,53,138080,80
60,56,138160,80
64,51,138240,240
59,63,138240,80
60,63,138320,80
59,67,138400,80
63,56,138480,240
69,72,138480,80
71,67,138560,80
69,68,138640,80
64,56,138720,240
68,74,138720,80
69,66,138800,80
68,69,138880,80
88,52,139200,80
89,45,139280,80
88,45,139360,80
85,49,139440,480
73,33,139680,120
76,33,139680,120
81,48,139920,90
82,45,140000,90
81,45,140080,90
86,47,140160,90
88,45,140240,90
86,45,140320,90
64,53,140480,90
70,62,140480,90
69,62,140560,90
62,52,140720,90
67,61,140720,90
65,61,140800,90
86,52,141120,80
88,45,141200,80
86,45,141280,80
83,49,141360,480
71,33,141600,120
74,33,141600,120
79,48,141840,90
81,45,141920,90
79,45,142000,90
84,47,142080,90
86,45,142160,90
84,45,142240,90
62,53,142400,90
69,62,142400,90
67,62,142480,90
60,52,142640,90
65,61,142640,90
64,61,142720,90
86,52,143040,80
88,45,143120,80
86,45,143200,80
89,49,143280,480
77,33,143520,120
80,33,143520,120
62,36,143760,40
65,36,143760,40
68,43,143760,40
64,33,143800,40
62,33,143840,20
84,52,144000,80
86,45,144080,80
84,45,144160,80
88,49,144240,480
76,33,144480,120
81,33,144480,120
60,36,144720,40
64,43,144720,40
62,33,144760,40
60,33,144800,20
65,45,144960,40
71,45,144960,40
69,31,145000,40
72,31,145000,40
65,27,145040,20
71,27,145040,20
69,47,145200,40
77,47,145200,40
71,32,145240,40
79,32,145240,40
69,28,145280,20
77,28,145280,20
68,49,145440,40
76,49,145440,40
77,34,145480,40
71,34,145480,40
68,30,145520,20
76,30,145520,20
74,51,145680,40
83,51,145680,40
76,35,145720,40
84,35,145720,40
74,31,145760,20
83,31,145760,20
72,53,145920,40
81,53,145920,40
76,36,145960,40
83,36,145960,40
72,32,146000,20
81,32,146000,20
81,45,146160,40
89,45,146160,40
86,31,146200,40
91,31,146200,40
81,27,146240,20
89,27,146240,20
96,40,146400,120
88,34,146400,120
84,34,146400,120
64,83,146880,120
57,67,146880,120
60,67,146880,120
64,61,147240,120
64,61,147480,120
62,51,147480,120
64,58,147720,90
60,46,147720,90
64,68,147960,120
59,50,147960,120
71,60,148200,120
59,45,148200,120
64,45,148200,120
64,53,148440,120
57,56,148440,120
64,52,148680,90
59,54,148680,90
64,83,148800,120
57,67,148800,120
60,67,148800,120
64,61,149160,120
64,61,149400,120
62,51,149400,120
64,58,149640,90
60,46,149640,90
64,63,149880,120
59,50,149880,120
69,61,150120,120
59,49,150120,120
63,49,150120,120
68,61,150360,120
64,49,150360,120
59,49,150360,120
64,56,150600,90
64,71,150720,120
76,88,150720,120
69,71,150720,120
72,71,150720,120
64,53,151080,120
76,66,151080,120
74,66,151320,120
64,53,151320,120
76,53,151324,120
64,50,151560,90
76,64,151560,90
72,50,151560,90
64,55,151800,120
76,69,151800,120
71,55,151800,120
83,62,152040,120
71,48,152040,120
64,48,152280,120
76,62,152280,120
69,53,152280,120
64,48,152520,90
76,62,152520,90
71,52,152520,90
64,71,152640,120
76,88,152640,120
69,71,152640,120
72,71,152640,120
76,68,153000,120
64,57,153000,120
74,70,153240,120
76,59,153240,120
64,59,153240,120
64,54,153480,90
76,69,153480,90
72,54,153480,90
64,63,153720,120
76,78,153720,120
71,63,153720,120
81,77,153960,120
69,60,153960,120
75,60,153960,120
80,79,154200,120
76,61,154200,120
68,61,154200,120
76,82,154440,90
68,70,154440,90
71,70,154440,90
76,94,154560,120
69,73,154560,120
73,77,154560,120
64,73,154560,120
64,55,154920,120
74,55,154920,120
69,55,154920,120
76,70,154920,120
76,65,155160,120
69,55,155160,120
64,55,155160,120
64,53,155400,90
76,67,155400,90
73,53,155400,90
74,63,155640,240
86,78,155640,240
77,63,155640,240
76,59,155880,240
88,75,155880,240
79,59,155880,240
77,61,156120,240
89,78,156120,240
81,61,156120,240
74,63,156360,90
86,80,156360,90
77,63,156360,90
62,73,156480,120
74,93,156480,120
67,73,156480,120
71,73,156480,120
72,58,156840,120
67,58,156840,120
74,70,156840,120
62,58,156840,120
67,58,157080,120
74,70,157080,120
62,58,157080,120
62,53,157320,90
74,67,157320,90
71,53,157320,90
76,63,157560,240
88,79,157560,240
84,63,157560,240
89,76,157800,240
77,60,157800,240
84,60,157800,240
91,78,158040,240
84,62,158040,240
79,62,158040,240
88,80,158280,90
76,65,158280,90
84,65,158280,90
89,90,158400,120
80,70,158400,120
83,75,158400,120
77,70,158400,120
83,58,158760,180
80,58,158760,180
86,70,158760,180
74,58,158760,180
76,58,159000,180
83,58,159000,180
88,70,159000,180
80,58,159000,180
77,53,159240,120
80,53,159240,120
89,67,159240,120
83,53,159240,120
76,60,159480,180
88,75,159480,180
81,60,159480,180
80,54,159720,180
86,67,159720,180
74,54,159720,180
77,54,159720,180
76,54,159960,180
84,67,159960,180
81,54,159960,180
72,54,159960,180
76,56,160200,120
85,67,160200,120
73,56,160200,120
82,56,160200,120
82,66,160440,180
74,66,160440,180
86,83,160440,180
77,66,160440,180
89,62,160680,180
93,78,160680,180
81,62,160680,180
84,62,160680,180
84,65,160920,180
93,83,160920,180
88,65,160920,180
81,65,160920,180
83,71,161160,120
92,87,161160,120
80,71,161160,120
88,71,161160,120
81,75,161280,480
84,76,161280,480
88,78,161280,480
93,92,161280,480
72,76,161760,120
76,76,161760,120
81,83,161760,120
76,38,162180,300
84,56,162240,60
81,40,162360,60
76,41,162480,60
72,36,162600,60
69,36,162720,60
76,38,162840,60
72,38,162960,60
69,38,163080,45
76,38,163140,300
83,64,163200,60
80,40,163320,60
76,41,163440,60
86,41,163560,60
83,45,163680,60
76,41,163800,60
80,38,163920,60
76,38,164040,47
76,38,164100,300
84,61,164160,60
81,40,164280,60
76,41,164400,60
72,41,164520,60
69,39,164640,60
76,45,164760,60
72,40,164880,60
69,38,165000,44
76,38,165060,300
83,59,165120,60
80,40,165240,60
76,37,165360,60
76,31,165480,60
71,38,165600,60
68,34,165720,60
84,38,166020,300
88,38,166050,266
96,59,166080,60
93,40,166200,60
88,41,166320,60
84,36,166440,60
81,36,166560,60
88,38,166680,60
84,38,166800,60
81,38,166920,51
83,38,166980,300
88,38,167010,264
95,59,167040,60
92,40,167160,60
88,41,167280,60
98,41,167400,60
95,45,167520,60
88,41,167640,60
92,38,167760,60
88,38,167880,52
84,38,167940,300
88,38,167970,266
96,62,168000,60
93,40,168120,60
88,41,168240,60
84,41,168360,60
81,39,168480,60
88,45,168600,60
84,40,168720,60
81,38,168840,48
83,38,168900,300
88,38,168930,265
95,62,168960,60
92,40,169080,60
88,37,169200,60
83,31,169320,60
80,37,169440,60
71,31,169560,60
76,37,169680,170
76,49,169860,300
88,70,169920,120
85,52,170040,120
81,53,170160,120
76,46,170280,120
69,51,170520,120
67,54,170640,120
64,56,170760,120
65,63,170880,60
62,57,171000,60
86,61,171120,60
81,57,171240,60
65,53,171600,60
62,53,171720,54
79,46,171780,300
86,70,171840,120
83,49,171960,120
79,50,172080,120
77,44,172200,120
71,48,172440,120
65,51,172560,120
62,53,172680,120
64,60,172800,60
60,54,172920,60
84,57,173040,60
79,54,173160,60
64,50,173520,60
60,45,173640,60
83,54,173760,60
81,53,173880,60
89,40,173880,60
80,53,174000,60
77,52,174120,60
86,40,174120,60
76,53,174240,60
74,51,174360,60
83,38,174360,60
72,52,174480,60
71,51,174600,60
80,37,174600,60
69,51,174720,60
67,50,174840,60
76,40,174840,60
64,45,175080,60
72,39,175080,60
60,45,175320,60
69,38,175320,60
57,44,175560,60
64,36,175560,60
81,50,175920,60
71,42,175920,60
77,45,176040,60
74,37,176040,60
83,50,176400,60
71,42,176400,60
80,44,176520,60
74,36,176520,60
81,45,176640,60
72,37,176640,60
60,42,176880,60
57,37,177000,60
93,55,177600,1440
81,38,177600,1920
84,38,177600,1920
88,52,179040,240
96,54,179280,240
95,54,179520,240
83,37,179520,1920
88,37,179520,1200
93,52,179760,240
92,51,180000,240
90,49,180240,240
88,51,180480,240
90,49,180720,240
92,52,180960,240
88,54,181200,240
93,57,181440,920
84,39,181440,1920
88,39,181440,1920
95,47,182280,40
93,42,182320,40
92,42,182360,40
93,58,182400,240
95,54,182640,240
96,55,182880,240
98,58,183120,240
86,41,183360,1920
99,62,183360,720
92,41,183360,1920
100,54,184080,240
88,55,184320,960
84,38,185280,1920
93,55,185280,1440
81,38,185280,1920
88,56,186720,240
96,55,186960,240
95,54,187200,240
83,37,187200,1920
88,37,187200,1200
93,51,187440,240
92,51,187680,240
90,51,187920,240
88,52,188160,240
90,51,188400,240
92,52,188640,240
88,54,188880,240
84,39,189120,1920
88,39,189120,1920
93,57,189120,920
95,47,189960,40
93,42,190000,40
92,42,190040,40
93,58,190080,240
95,54,190320,240
96,55,190560,240
98,57,190800,240
86,41,191040,1920
99,59,191040,720
92,41,191040,1920
100,54,191760,240
88,55,192000,960
93,55,192960,1200
79,38,192960,1920
85,38,192960,1920
100,49,194160,240
97,49,194400,240
93,53,194640,240
91,54,194880,240
88,52,195120,240
85,51,195360,240
89,53,196320,240
86,45,196320,240
81,45,196320,240
91,55,196800,1200
79,38,196800,1920
86,38,196800,1920
98,49,198000,240
95,49,198240,240
91,53,198480,240
89,54,198720,240
86,52,198960,240
83,51,199200,240
88,53,200160,240
84,45,200160,240
79,45,200160,240
89,55,200640,1200
83,38,200640,1200
86,49,201840,240
83,49,202080,240
81,53,202320,240
80,49,202560,240
76,49,202800,240
74,45,203040,240
71,45,203280,240
72,47,203520,240
76,49,203760,240
81,49,204000,240
79,49,204240,240
77,49,204480,240
86,47,204720,240
83,47,204960,240
81,47,205200,240
80,49,205440,240
95,49,205680,240
92,45,205920,240
88,39,206160,180
92,38,206340,60
93,38,206400,960
81,27,207360,240
52,69,208400,80
57,69,208480,80
64,78,208560,80
60,66,208560,80
64,67,208640,80
69,67,208720,80
76,79,208800,72
72,67,208800,72
76,69,208880,80
81,68,208960,80
88,79,209040,72
84,67,209040,72
88,71,209120,80
93,71,209200,80
100,79,209280,80
98,67,209280,80
92,70,209360,80
88,70,209440,72
88,79,209520,80
86,67,209520,80
80,70,209600,80
76,67,209680,72
76,73,209760,80
72,61,209760,80
69,69,209840,80
64,64,209920,72
64,63,210000,240
60,53,210000,240
64,71,210240,120
56,60,210240,120
59,60,210240,120
88,84,210480,480
83,71,210480,480
80,71,210480,480
76,71,210480,480
91,84,210960,480
86,71,210960,480
83,71,210960,480
79,71,210960,480
89,84,211440,480
86,71,211440,480
83,71,211440,480
77,71,211440,480
88,79,211920,240
86,67,211920,240
83,67,211920,240
76,67,211920,240
52,69,212240,80
57,69,212320,80
64,78,212400,72
60,66,212400,72
64,67,212480,80
69,67,212560,80
76,79,212640,72
72,67,212640,72
76,69,212720,80
81,68,212800,80
88,79,212880,80
84,67,212880,80
88,71,212960,80
93,71,213040,80
100,79,213120,80
98,67,213120,80
92,70,213200,80
88,70,213280,72
88,79,213360,80
86,67,213360,80
80,70,213440,80
76,67,213520,72
76,73,213600,80
72,61,213600,80
69,69,213680,80
64,64,213760,72
64,63,213840,240
60,53,213840,240
64,71,214080,120
56,50,214080,120
76,59,214200,120
64,49,214200,120
77,61,214320,120
65,50,214320,120
78,63,214440,120
66,52,214440,120
79,66,214560,120
67,56,214560,120
80,68,214680,120
68,58,214680,120
81,71,214800,120
69,60,214800,120
82,73,214920,120
70,61,214920,120
83,75,215040,120
71,64,215040,120
84,78,215160,120
72,66,215160,120
85,81,215280,120
73,68,215280,120
86,84,215400,120
74,70,215400,120
87,88,215520,120
75,73,215520,120
88,92,215640,120
76,78,215640,120
89,96,215760,120
77,81,215760,120
88,82,215880,90
76,69,215880,90
52,69,216320,80
57,69,216400,80
64,78,216480,72
60,66,216480,72
64,67,216560,80
69,67,216640,80
76,79,216720,72
72,67,216720,72
76,69,216800,80
81,68,216880,80
88,79,216960,72
84,67,216960,72
88,71,217040,80
93,71,217120,80
100,79,217200,80
98,67,217200,80
92,70,217280,80
88,70,217360,80
88,79,217440,80
86,67,217440,80
80,70,217520,80
76,67,217600,72
76,73,217680,80
72,61,217680,80
69,69,217760,80
64,64,217840,72
64,63,217920,240
60,53,217920,240
64,71,218160,120
56,60,218160,120
59,60,218160,120
88,84,218400,480
83,71,218400,480
80,71,218400,480
76,71,218400,480
91,84,218880,480
86,71,218880,480
83,71,218880,480
79,71,218880,480
89,84,219360,480
86,71,219360,480
83,71,219360,480
77,71,219360,480
88,79,219840,240
86,67,219840,240
83,67,219840,240
76,67,219840,240
52,69,220160,80
57,69,220240,80
64,78,220320,72
60,66,220320,72
64,67,220400,80
69,67,220480,80
76,79,220560,72
72,67,220560,72
76,69,220640,80
81,68,220720,80
88,79,220800,72
84,67,220800,72
88,71,220880,80
93,71,220960,80
100,79,221040,80
98,67,221040,80
92,70,221120,80
88,70,221200,72
88,79,221280,80
86,67,221280,80
80,70,221360,80
76,67,221440,72
76,73,221520,80
72,61,221520,80
69,69,221600,80
64,64,221680,72
64,63,221760,240
60,53,221760,240
64,71,222000,120
56,50,222000,120
76,59,222120,120
64,49,222120,120
77,61,222240,120
65,50,222240,120
78,63,222360,120
66,52,222360,120
79,66,222480,120
67,56,222480,120
80,68,222600,120
68,58,222600,120
81,71,222720,120
69,60,222720,120
82,73,222840,120
70,61,222840,120
83,75,222960,120
71,64,222960,120
84,78,223080,120
72,66,223080,120
85,81,223200,120
73,68,223200,120
86,84,223320,120
74,70,223320,120
87,88,223440,120
75,73,223440,120
88,92,223560,120
76,78,223560,120
89,96,223680,120
77,81,223680,120
88,82,223800,120
76,69,223800,120
61,59,224000,80
64,59,224080,80
69,69,224160,72
69,59,224240,80
73,59,224320,80
82,71,224400,72
79,60,224400,72
82,62,224480,80
85,62,224560,80
94,74,224640,80
91,62,224640,80
85,66,224720,80
82,66,224800,80
93,72,224880,80
89,60,224880,80
85,64,224960,80
81,64,225040,80
81,70,225120,80
77,59,225120,80
73,70,225200,80
69,62,225280,80
79,61,225360,80
76,44,225360,80
70,68,225440,80
69,63,225520,80
67,62,225600,80
64,52,225600,80
58,61,225680,80
57,59,225760,80
62,66,225840,120
65,75,225840,120
73,53,226080,90
67,53,226080,240
74,52,226160,90
76,53,226240,90
77,55,226320,90
74,55,226320,240
79,56,226400,90
81,57,226480,90
85,58,226560,90
79,58,226560,240
86,59,226640,90
88,59,226720,90
89,60,226800,90
86,60,226800,240
91,61,226880,90
93,62,226960,90
97,62,227040,90
91,62,227040,240
98,63,227120,90
100,64,227200,90
101,66,227280,120
98,66,227280,120
93,66,227280,120
59,59,227840,80
62,59,227920,80
67,69,228000,72
67,59,228080,80
71,59,228160,80
80,71,228240,72
77,60,228240,72
80,62,228320,80
83,62,228400,80
92,74,228480,80
89,62,228480,80
83,66,228560,80
80,66,228640,80
91,72,228720,80
88,60,228720,80
83,64,228800,80
79,64,228880,80
79,70,228960,80
76,59,228960,80
71,68,229040,80
67,62,229120,80
77,61,229200,80
74,44,229200,80
68,68,229280,80
67,63,229360,80
65,62,229440,80
62,52,229440,80
56,61,229520,80
55,59,229600,80
60,63,229680,120
64,75,229680,120
71,53,229920,90
65,53,229920,240
72,52,230000,90
74,53,230080,90
76,55,230160,90
72,55,230160,240
77,56,230240,90
79,57,230320,90
83,58,230400,90
77,58,230400,240
84,59,230480,90
86,59,230560,90
88,60,230640,90
84,60,230640,240
89,61,230720,90
91,62,230800,90
95,62,230880,90
89,62,230880,240
96,63,230960,90
98,64,231040,90
100,66,231120,120
96,66,231120,120
91,66,231120,120
60,67,231360,80
62,70,231440,80
64,71,231520,80
65,85,231600,240
89,74,231840,240
77,62,231840,240
83,77,232080,240
71,64,232080,240
59,68,232320,80
60,71,232400,80
62,73,232480,80
63,85,232560,240
87,77,232800,240
75,64,232800,240
81,78,233040,240
69,66,233040,240
57,69,233280,80
59,72,233360,80
60,75,233440,80
61,89,233520,240
85,78,233760,240
73,66,233760,240
79,79,234000,240
67,68,234000,240
55,70,234240,80
56,74,234320,80
58,77,234400,80
59,88,234480,240
83,79,234720,240
71,68,234720,240
77,81,234960,240
65,69,234960,240
53,71,235200,80
56,75,235280,80
58,78,235360,80
59,91,235440,240
83,81,235680,240
71,69,235680,240
77,83,235920,240
65,70,235920,240
53,73,236160,80
57,78,236240,80
58,79,236320,80
59,94,236400,240
83,83,236640,240
71,70,236640,240
77,84,236880,240
65,71,236880,240
57,92,237120,80
55,95,237200,80
53,99,237280,80
52,106,237360,240
83,90,237840,240
81,90,237840,240
76,77,237840,240
71,77,237840,240
64,96,238320,240
88,89,238800,240
83,89,238800,240
80,75,238800,240
76,75,238800,240
52,59,239360,80
57,59,239440,80
64,69,239520,72
60,69,239520,72
64,59,239600,80
69,59,239680,80
76,71,239760,72
72,60,239760,72
76,62,239840,80
81,62,239920,80
88,74,240000,72
84,62,240000,72
88,66,240080,80
93,66,240160,80
100,72,240240,80
96,60,240240,80
93,64,240320,80
88,64,240400,72
88,70,240480,80
84,59,240480,80
81,66,240560,80
76,62,240640,72
76,61,240720,80
72,44,240720,80
69,68,240800,80
64,63,240880,72
64,62,240960,80
60,52,240960,80
57,61,241040,80
52,59,241120,80
52,59,241280,80
57,59,241360,80
64,69,241440,72
61,69,241440,72
64,59,241520,80
69,59,241600,80
76,71,241680,72
73,60,241680,72
76,62,241760,80
81,62,241840,80
88,74,241920,72
85,62,241920,72
88,66,242000,80
93,66,242080,80
100,72,242160,80
97,60,242160,80
93,64,242240,80
88,64,242320,72
88,70,242400,80
85,59,242400,80
81,66,242480,80
76,62,242560,72
76,61,242640,80
73,44,242640,80
69,68,242720,80
64,63,242800,72
64,62,242880,80
61,52,242880,80
57,61,242960,80
52,59,243040,80
53,59,243200,80
57,59,243280,80
65,69,243360,72
62,69,243360,72
65,59,243440,80
69,59,243520,80
77,71,243600,72
74,60,243600,72
77,62,243680,80
81,62,243760,80
89,74,243840,72
86,62,243840,72
89,66,243920,80
93,66,244000,80
101,72,244080,80
98,60,244080,80
93,64,244160,80
89,64,244240,72
89,70,244320,80
86,59,244320,80
81,66,244400,80
77,62,244480,72
77,61,244560,80
74,44,244560,80
69,68,244640,80
65,63,244720,72
65,64,244800,80
62,64,244800,80
57,64,244880,80
53,67,244960,80
83,85,245280,240
71,71,245280,240
74,71,245280,240
86,85,245760,240
74,71,245760,240
77,71,245760,240
89,85,246240,240
77,71,246240,240
80,71,246240,240
88,85,246720,240
76,71,246720,240
80,71,246720,240
52,59,247040,80
57,59,247120,80
64,69,247200,72
60,69,247200,72
64,59,247280,80
69,59,247360,80
76,71,247440,72
72,60,247440,72
76,62,247520,80
81,62,247600,80
88,74,247680,72
84,62,247680,72
88,66,247760,80
93,66,247840,80
100,72,247920,80
96,60,247920,80
93,64,248000,80
88,64,248080,72
88,70,248160,80
84,59,248160,80
81,66,248240,80
76,62,248320,72
76,61,248400,80
72,44,248400,80
69,68,248480,80
64,63,248560,72
64,62,248640,80
60,52,248640,80
57,61,248720,80
52,59,248800,80
52,59,248960,80
57,59,249040,80
64,69,249120,72
61,69,249120,72
64,59,249200,80
69,59,249280,80
76,71,249360,72
73,60,249360,72
76,62,249440,80
81,62,249520,80
88,74,249600,72
85,62,249600,72
88,66,249680,80
93,66,249760,80
100,72,249840,80
97,60,249840,80
93,64,249920,80
88,64,250000,72
88,70,250080,80
85,59,250080,80
81,66,250160,80
76,62,250240,72
76,61,250320,80
73,44,250320,80
69,68,250400,80
64,63,250480,72
64,62,250560,80
61,52,250560,80
57,61,250640,80
52,59,250720,80
53,59,250880,80
57,59,250960,80
65,69,251040,72
62,69,251040,72
65,59,251120,80
69,59,251200,80
77,71,251280,72
74,60,251280,72
77,62,251360,80
81,62,251440,80
89,74,251520,72
86,62,251520,72
89,66,251600,80
93,66,251680,80
101,72,251760,80
98,60,251760,80
93,64,251840,80
89,64,251920,72
89,70,252000,80
86,59,252000,80
81,66,252080,80
77,62,252160,72
77,61,252240,80
74,44,252240,80
69,68,252320,80
65,63,252400,72
65,64,252480,80
62,64,252480,80
57,64,252560,80
53,67,252640,80
83,85,252960,240
71,71,252960,240
74,71,252960,240
86,85,253440,240
74,71,253440,240
77,71,253440,240
89,85,253920,240
77,71,253920,240
80,71,253920,240
88,85,254400,240
76,71,254400,240
80,71,254400,240
45,97,254640,960
49,67,254720,80
52,69,254800,80
57,69,254880,80
61,71,254960,80
64,72,255040,80
69,74,255120,80
73,77,255200,80
76,78,255280,80
81,79,255360,80
85,80,255440,80
88,82,255520,80
93,95,255600,80
88,84,255680,80
85,84,255760,80
81,83,255840,80
76,81,255920,80
73,80,256000,80
69,79,256080,80
64,78,256160,80
61,75,256240,80
57,74,256320,80
52,72,256400,80
49,71,256480,80
45,99,256560,960
49,68,256640,80
52,69,256720,80
57,71,256800,80
61,72,256880,80
64,74,256960,80
69,77,257040,80
73,79,257120,80
76,80,257200,80
81,82,257280,60
85,83,257340,60
88,85,257400,60
93,86,257460,60
97,88,257520,60
93,86,257580,60
88,86,257640,60
85,84,257700,60
81,82,257760,80
76,81,257840,80
73,79,257920,80
69,79,258000,80
64,77,258080,80
61,74,258160,80
57,73,258240,80
52,71,258320,80
49,70,258400,80
45,97,258480,960
49,71,258560,80
52,69,258640,80
57,70,258720,80
61,71,258800,80
64,73,258880,80
69,75,258960,80
73,77,259040,80
76,79,259120,80
81,80,259200,80
85,81,259280,80
88,86,259360,80
93,89,259440,96
97,89,259536,96
101,92,259632,96
100,91,259728,96
97,89,259824,96
93,88,259924,80
88,84,260004,80
85,83,260084,80
81,82,260164,80
76,81,260244,80
73,79,260324,80
69,79,260404,80
64,78,260484,80
61,77,260564,80
57,75,260644,80
52,74,260724,80
49,73,260804,80
45,77,260880,78
46,69,260940,78
45,77,261000,78
46,70,261060,78
45,79,261120,78
46,69,261180,78
45,77,261240,78
46,70,261300,78
45,78,261360,78
46,69,261420,78
45,73,261480,78
46,70,261540,78
45,75,261600,78
46,70,261660,78
45,77,261720,78
46,74,261780,78
45,79,261840,60
46,79,261900,60
47,80,261960,60
48,83,262020,60
49,85,262080,60
50,88,262140,60
51,89,262200,60
52,91,262260,60
53,94,262320,60
52,96,262380,60
51,97,262440,60
50,96,262500,60
49,94,262560,60
48,93,262620,60
47,92,262680,60
46,90,262740,60
45,105,262800,240
81,99,263280,240
76,99,263280,240
73,83,263280,240
69,83,263280,240
93,99,263760,240
88,99,263760,240
85,83,263760,240
81,83,263760,240
45,34,720,350
52,37,760,320
57,41,800,280
60,44,840,240
52,36,1920,350
59,38,1960,320
64,42,2000,280
68,45,2040,240
45,33,3120,350
52,36,3160,320
57,39,3200,280
60,42,3240,240
52,38,4320,350
59,36,4360,320
64,41,4400,280
68,45,4440,240
45,29,5520,350
52,32,5560,320
57,33,5600,280
60,36,5640,240
52,28,6720,350
59,31,6760,320
64,33,6800,280
68,36,6840,240
45,28,7920,350
52,31,7960,320
57,33,8000,280
60,36,8040,240
52,28,9120,350
59,31,9160,320
64,33,9200,280
68,36,9240,240
45,34,10320,350
52,36,10360,320
57,40,10400,280
61,43,10440,240
50,36,11520,350
57,37,11560,320
62,40,11600,280
65,43,11640,240
43,35,12720,350
50,37,12760,320
55,41,12800,280
59,45,12840,240
48,39,13920,350
55,39,13960,320
60,42,14000,280
64,45,14040,240
50,33,15120,350
53,35,15160,320
59,37,15200,280
65,39,15240,240
48,32,16320,350
60,36,16400,280
64,38,16440,240
53,44,17520,480
63,36,17880,120
57,36,17880,120
52,40,18000,480
62,33,18360,120
56,33,18360,120
60,40,18480,480
57,40,18480,480
69,33,18960,120
64,33,18960,120
45,29,19440,350
52,32,19480,320
57,33,19520,280
61,36,19560,240
61,27,20160,240
64,27,20160,240
69,32,20160,240
50,29,20640,350
57,32,20700,300
65,36,20760,240
62,27,21360,240
65,27,21360,240
69,32,21360,240
43,29,21840,350
50,32,21900,300
59,36,21960,240
59,27,22560,240
62,27,22560,240
67,32,22560,240
48,29,23040,350
55,32,23100,300
64,36,23160,240
64,29,23760,240
67,35,23760,240
50,32,24240,350
58,36,24300,200
65,39,24360,240
65,35,24960,240
62,29,24960,240
48,32,25440,350
60,36,25500,200
64,39,25560,240
64,34,26160,240
60,28,26160,240
53,37,26640,480
63,34,27000,120
57,34,27000,120
52,37,27120,480
62,31,27480,120
56,31,27480,120
60,37,27600,480
57,37,27600,480
69,31,28080,120
64,31,28080,120
57,61,28560,90
57,48,28920,60
57,57,29040,120
60,54,29160,120
59,57,29280,120
57,54,29400,120
64,59,29520,90
52,48,29880,60
52,57,30000,120
55,54,30120,120
53,57,30240,120
52,54,30360,120
57,61,30480,90
57,48,30840,60
57,57,30960,120
60,54,31080,120
59,57,31200,120
57,54,31320,120
64,61,31440,480
52,46,31920,120
57,48,32400,90
57,38,32760,60
57,45,32880,120
60,43,33000,120
59,45,33120,120
57,43,33240,120
64,46,33360,90
52,38,33720,60
52,45,33840,120
55,43,33960,120
53,45,34080,120
52,43,34200,120
57,48,34320,90
57,38,34680,60
57,45,34800,120
60,43,34920,120
59,45,35040,120
57,43,35160,120
64,48,35280,480
52,36,35760,120
57,39,36090,240
64,41,36120,210
69,43,36150,180
69,48,36600,60
69,57,36720,120
70,54,36840,120
69,57,36960,120
67,54,37080,80
50,53,37160,160
65,59,37200,120
62,48,37560,60
62,57,37680,120
65,54,37800,120
64,57,37920,120
62,54,38040,120
55,37,38160,330
62,40,38208,282
67,44,38256,234
67,48,38760,60
67,57,38880,120
69,54,39000,120
67,57,39120,120
65,54,39240,80
48,53,39320,160
64,59,39360,120
60,48,39720,60
60,57,39840,120
64,54,39960,120
62,57,40080,120
60,54,40200,60
50,32,40260,150
56,36,40290,120
65,48,40320,90
59,38,40680,60
59,45,40800,120
62,43,40920,120
60,45,41040,120
59,43,41160,60
48,42,41220,60
64,46,41280,90
57,38,41640,60
57,45,41760,120
60,43,41880,120
59,45,42000,120
57,43,42120,120
53,48,42240,480
59,38,42600,120
52,45,42720,480
64,43,42840,120
62,45,42960,120
59,43,43080,120
57,48,43200,480
64,27,43680,120
72,36,43680,120
41,43,44160,480
45,51,44160,130
44,48,44280,130
45,51,44400,130
44,48,44520,120
52,51,45120,130
40,43,45120,480
44,43,45120,480
51,48,45240,130
52,51,45360,130
51,48,45480,120
41,38,46080,480
45,45,46080,130
44,43,46200,130
45,45,46320,130
44,41,46440,120
40,36,47040,480
44,36,47040,480
52,43,47040,130
51,40,47160,130
52,42,47280,130
51,39,47400,120
53,43,48000,480
57,51,48000,130
56,48,48120,130
57,51,48240,130
56,48,48360,120
52,43,48960,480
56,43,48960,480
64,51,48960,130
63,48,49080,130
64,51,49200,130
63,48,49320,120
53,38,49920,480
57,45,49920,130
56,43,50040,130
57,45,50160,130
56,41,50280,120
52,36,50880,480
56,36,50880,480
64,43,50880,130
63,40,51000,130
64,42,51120,130
63,39,51240,120
61,40,51840,480
64,43,51840,480
69,51,51840,130
68,48,51960,130
69,51,52080,130
68,48,52200,120
53,43,52800,480
57,43,52800,480
62,51,52800,130
61,48,52920,130
62,51,53040,130
61,48,53160,120
59,39,53760,480
62,41,53760,480
67,49,53760,130
66,47,53880,130
67,48,54000,130
66,45,54120,120
52,43,54720,480
55,43,54720,480
60,51,54720,130
59,48,54840,130
60,51,54960,130
59,48,55080,120
50,39,55680,480
56,43,55680,480
65,51,55680,130
64,48,55800,130
65,51,55920,130
64,48,56040,120
48,43,56640,480
57,43,56640,480
64,51,56640,130
63,48,56760,130
64,51,56880,130
63,48,57000,120
50,36,57600,480
53,38,57600,480
58,45,57600,130
57,43,57720,130
58,45,57840,130
57,41,57960,120
52,36,58080,240
56,43,58080,240
57,44,58560,130
56,40,58680,130
57,45,58800,130
56,39,58920,120
57,43,59040,60
45,51,59520,130
44,48,59640,130
45,51,59760,130
44,48,59880,60
46,46,59940,70
45,51,60000,130
43,48,60120,130
41,51,60240,130
40,47,60360,120
38,51,60480,130
37,48,60600,130
38,51,60720,130
37,48,60840,60
39,48,60900,70
38,53,60960,130
40,48,61080,130
41,51,61200,130
38,47,61320,130
43,51,61440,130
42,48,61560,130
43,51,61680,130
42,48,61800,60
44,49,61860,70
43,51,61920,130
41,48,62040,130
40,51,62160,130
38,47,62280,120
36,51,62400,130
35,48,62520,130
36,51,62640,130
35,48,62760,60
37,47,62820,70
36,52,62880,130
38,48,63000,130
40,51,63120,130
36,47,63240,130
41,51,63360,130
40,48,63480,130
41,51,63600,130
40,48,63720,60
43,46,63780,70
41,50,63840,130
38,48,63960,130
36,51,64080,130
35,47,64200,130
40,51,64320,130
39,48,64440,130
40,51,64560,130
39,48,64680,60
41,45,64740,70
40,50,64800,130
36,48,64920,130
35,51,65040,130
33,47,65160,120
35,51,65280,130
34,48,65400,130
35,51,65520,130
34,48,65640,120
36,51,65760,130
35,48,65880,130
41,51,66000,130
40,47,66120,120
33,43,66240,120
32,40,66360,120
33,43,66480,120
32,40,66600,60
34,36,66660,70
33,43,66720,120
32,40,66840,120
33,43,66960,120
32,40,67080,120
33,43,67200,120
32,39,67320,120
33,42,67440,120
32,38,67560,60
34,40,67620,70
33,38,67680,120
32,35,67800,120
33,37,67920,120
32,33,68040,120
33,35,68160,120
32,31,68280,120
33,32,68400,120
32,28,68520,60
34,29,68580,70
33,29,68640,120
32,27,68760,120
33,27,68880,120
32,24,69000,120
33,23,69120,240
36,57,70080,480
48,69,70080,480
51,41,70440,120
54,41,70440,120
60,48,70440,120
51,45,70560,120
54,45,70560,120
60,54,70560,120
33,46,70800,240
45,55,70800,240
32,55,71040,240
44,66,71040,240
35,53,71280,240
47,64,71280,240
40,60,71520,480
44,60,71520,480
52,72,71520,480
36,64,72000,480
48,77,72000,480
51,43,72360,120
54,43,72360,120
60,51,72360,120
51,47,72480,120
54,47,72480,120
60,56,72480,120
33,49,72720,240
45,57,72720,240
35,53,72960,240
47,63,72960,240
39,59,73200,240
51,71,73200,240
41,65,73440,240
53,77,73440,240
40,63,73680,120
52,73,73680,120
36,62,73920,480
48,74,73920,480
51,41,74280,120
54,41,74280,120
60,48,74280,120
51,45,74400,120
54,45,74400,120
60,54,74400,120
33,46,74640,240
45,55,74640,240
32,55,74880,240
44,66,74880,240
35,53,75120,240
47,64,75120,240
40,60,75360,480
44,60,75360,480
52,72,75360,480
36,64,75840,480
48,77,75840,480
51,43,76200,120
54,43,76200,120
60,51,76200,120
51,47,76320,120
54,47,76320,120
60,56,76320,120
33,49,76560,240
45,57,76560,240
35,53,76800,240
47,63,76800,240
39,59,77040,240
51,71,77040,240
41,65,77280,240
53,77,77280,240
40,63,77520,120
52,73,77520,120
45,54,77760,480
52,54,77760,480
61,65,77760,480
61,41,78120,120
64,41,78120,120
69,48,78120,120
61,45,78240,120
64,45,78240,120
69,54,78240,120
37,46,78480,240
52,55,78480,240
38,55,78720,240
53,66,78720,240
40,53,78960,240
55,64,78960,240
41,60,79200,240
56,72,79200,240
42,64,79440,240
57,76,79440,240
43,54,79680,480
50,54,79680,480
59,65,79680,480
59,41,80040,120
62,41,80040,120
67,48,80040,120
59,45,80160,120
62,45,80160,120
67,54,80160,120
35,46,80400,240
50,55,80400,240
36,55,80640,240
52,66,80640,240
38,53,80880,240
53,64,80880,240
39,63,81120,240
54,75,81120,240
40,70,81360,240
55,83,81360,240
50,62,81600,120
41,62,81600,120
47,62,81600,120
56,74,81600,120
62,41,81960,120
65,48,81960,120
62,45,82080,120
65,54,82080,480
59,45,82200,120
60,45,82320,120
62,45,82440,120
40,50,82560,120
48,50,82560,120
57,60,82560,120
60,45,82920,120
60,49,83040,120
57,42,83160,120
59,42,83280,120
60,42,83400,120
47,39,83520,480
53,39,83520,480
57,46,83520,480
40,37,84000,480
56,45,84000,480
52,41,84480,120
45,21,84480,480
50,41,84480,480
56,26,84480,480
55,38,84600,120
53,36,84720,120
52,35,84840,240
48,31,84960,120
45,31,84960,120
57,36,85440,60
60,36,85440,60
69,43,85440,60
64,36,85680,60
72,43,85680,60
62,35,85920,60
71,42,85920,60
60,34,86160,60
69,40,86160,60
52,36,86400,60
56,36,86400,60
64,43,86400,60
59,33,86640,60
67,39,86640,60
57,37,86880,60
65,45,86880,60
56,35,87120,60
64,42,87120,60
57,36,87360,60
60,36,87360,60
69,43,87360,60
64,36,87600,60
72,43,87600,60
62,35,87840,60
71,42,87840,60
60,34,88080,60
69,40,88080,60
57,36,88320,120
60,36,88320,120
65,43,88320,120
52,37,88800,120
56,37,88800,120
64,45,88800,120
57,36,89280,60
60,36,89280,60
69,43,89280,60
64,36,89520,60
72,43,89520,60
62,35,89760,60
71,42,89760,60
60,34,90000,60
69,40,90000,60
52,36,90240,60
56,36,90240,60
64,43,90240,60
59,33,90480,60
67,39,90480,60
57,37,90720,60
65,45,90720,60
56,35,90960,60
64,42,90960,60
57,36,91200,60
60,36,91200,60
69,43,91200,60
64,36,91440,60
72,43,91440,60
62,35,91680,60
71,42,91680,60
60,34,91920,60
69,40,91920,60
57,36,92160,120
60,36,92160,120
65,43,92160,120
52,37,92640,120
56,37,92640,120
64,45,92640,120
57,42,93120,60
61,42,93120,60
69,50,93120,60
62,42,93360,60
70,50,93360,60
61,40,93600,60
69,49,93600,60
58,39,93840,60
67,48,93840,60
57,42,94080,60
65,50,94080,60
55,39,94320,60
64,47,94320,60
53,45,94560,60
62,53,94560,60
50,40,94800,60
65,49,94800,60
55,45,95040,60
59,45,95040,60
67,52,95040,60
60,45,95280,60
68,52,95280,60
59,42,95520,60
67,51,95520,60
56,41,95760,60
65,49,95760,60
55,45,96000,60
64,52,96000,60
53,40,96240,60
62,49,96240,60
52,47,96480,60
60,56,96480,60
48,42,96720,60
64,51,96720,60
59,36,96960,120
50,36,96960,120
56,36,96960,120
65,43,96960,120
74,50,97440,140
57,36,97920,120
48,36,97920,120
64,43,97920,120
72,50,98400,140
57,43,98880,60
65,50,98880,60
56,43,99360,60
64,50,99360,60
57,52,99840,140
53,44,99960,140
52,44,100080,140
51,43,100200,140
50,42,100320,140
48,41,100440,140
47,41,100560,140
46,40,100680,120
45,43,100800,120
76,45,101280,140
69,37,101280,140
72,44,101400,140
64,36,101400,140
48,45,101520,80
47,44,101600,80
45,42,101680,80
44,43,101760,120
76,45,102240,140
68,37,102240,140
71,44,102360,140
64,36,102360,140
40,36,102480,80
42,39,102560,80
44,42,102640,80
45,43,102720,120
76,45,103200,140
69,37,103200,140
72,44,103320,140
64,36,103320,140
48,45,103440,80
47,44,103520,80
45,42,103600,80
44,43,103680,120
76,45,104160,140
68,37,104160,140
71,44,104280,140
64,36,104280,140
40,63,104460,60
42,66,104520,60
44,70,104580,60
33,72,104640,120
45,72,104640,120
76,70,105120,140
69,59,105120,140
72,68,105240,140
64,57,105240,140
48,74,105360,80
47,72,105440,80
45,69,105520,80
44,74,105600,120
32,74,105603,120
76,70,106080,140
68,59,106080,140
71,68,106200,140
64,57,106200,140
40,64,106320,80
42,69,106400,80
44,72,106480,80
33,75,106560,120
45,75,106560,120
76,70,107040,140
69,59,107040,140
72,68,107160,140
64,57,107160,140
48,77,107280,80
47,75,107360,80
45,72,107440,80
44,73,107520,120
32,73,107524,120
76,70,108000,140
68,59,108000,140
71,68,108120,140
64,57,108120,140
45,37,108300,60
47,40,108360,60
48,43,108420,60
37,38,108480,120
49,45,108480,120
81,45,108960,140
76,37,108960,140
79,44,109080,140
69,36,109080,140
45,48,109200,80
47,50,109280,80
49,52,109360,80
38,47,109440,120
50,54,109440,120
77,52,109920,140
69,43,109920,140
74,51,110040,140
65,42,110040,140
52,45,110160,80
50,48,110240,80
48,52,110320,80
35,51,110400,120
47,54,110400,120
79,54,110880,140
74,46,110880,140
77,54,111000,140
67,45,111000,140
43,63,111120,80
45,65,111200,80
47,67,111280,80
36,58,111360,120
48,69,111360,120
76,63,111840,140
67,53,111840,140
72,62,111960,140
64,52,111960,140
47,67,112080,80
48,70,112160,80
49,73,112240,80
38,64,112320,120
50,76,112320,120
82,66,112800,140
74,56,112800,140
77,65,112920,140
70,54,112920,140
46,71,113040,80
48,74,113120,80
50,78,113200,80
40,69,113280,120
52,81,113280,120
81,73,113760,140
72,63,113760,140
76,72,113880,140
69,61,113880,140
53,76,114000,80
52,79,114080,80
51,81,114160,80
38,71,114240,120
50,83,114240,120
47,69,114480,80
48,71,114560,80
50,73,114640,80
52,72,114720,120
40,69,114720,120
50,69,114960,80
48,77,115040,80
47,81,115120,80
33,83,115200,120
45,83,115200,120
64,70,115440,120
72,79,115440,120
60,68,115680,120
69,79,115680,120
33,54,116160,90
36,63,116160,90
35,47,116280,90
38,56,116280,90
36,54,116400,90
40,64,116400,90
38,50,116520,90
41,59,116520,90
40,55,116640,90
44,66,116640,90
41,52,116760,90
45,61,116760,90
44,50,116880,90
47,60,116880,90
45,47,117000,90
48,55,117000,90
47,53,117120,90
50,63,117120,90
48,48,117240,90
52,56,117240,90
50,53,117360,90
53,63,117360,90
52,48,117480,90
56,56,117480,90
53,53,117600,90
57,63,117600,90
56,53,117720,90
59,63,117720,90
57,53,117840,90
60,63,117840,90
59,48,117960,90
62,57,117960,90
60,63,118080,90
57,53,118080,90
59,49,118200,90
62,60,118200,90
60,53,118320,90
64,65,118320,90
62,58,118440,90
65,68,118440,90
62,60,118560,90
65,71,118560,90
60,58,118680,90
64,69,118680,90
59,55,118800,120
62,66,118800,120
57,52,118920,120
60,63,118920,120
59,48,119040,120
62,56,119040,120
60,56,119160,120
57,46,119160,120
59,54,119280,120
56,45,119280,120
53,44,119400,120
57,51,119400,120
52,40,119520,480
56,49,119520,480
33,54,120000,90
45,63,120000,90
35,47,120120,90
47,56,120120,90
36,54,120240,90
48,64,120240,90
38,50,120360,90
50,59,120360,90
40,55,120480,90
52,66,120480,90
41,52,120600,90
53,61,120600,90
44,50,120720,90
56,60,120720,90
45,47,120840,90
57,55,120840,90
47,53,120960,90
59,63,120960,90
48,48,121080,90
60,56,121080,90
50,53,121200,90
62,63,121200,90
52,48,121320,90
64,56,121320,90
53,53,121440,90
65,63,121440,90
56,53,121560,90
68,63,121560,90
57,53,121680,90
69,63,121680,90
59,48,121800,90
71,57,121800,90
69,63,121920,90
57,53,121920,90
56,49,122040,90
68,59,122040,90
53,51,122160,90
65,62,122160,90
52,54,122280,90
64,63,122280,90
53,55,122400,90
65,65,122400,90
52,54,122520,90
64,64,122520,90
50,53,122640,120
62,63,122640,120
60,62,122760,120
48,51,122760,120
59,56,122880,120
47,48,122880,120
45,46,123000,120
57,56,123000,120
44,45,123120,120
56,54,123120,120
65,51,123240,120
53,44,123240,120
64,49,123360,480
52,40,123360,480
70,73,123840,90
58,62,123840,90
69,67,123960,90
57,56,123960,90
55,55,124080,90
67,66,124080,90
52,55,124200,90
64,66,124200,90
49,54,124320,90
61,65,124320,90
46,54,124440,90
58,64,124440,90
45,54,124560,240
57,63,124560,90
55,63,124680,90
50,53,124800,90
53,63,124800,90
49,54,124920,90
52,64,124920,90
47,56,125040,90
50,65,125040,90
45,56,125160,90
49,68,125160,90
43,58,125280,90
47,69,125280,90
41,59,125400,90
45,71,125400,90
40,63,125520,90
43,75,125520,90
38,65,125640,90
41,77,125640,90
56,62,125760,90
68,73,125760,90
55,56,125880,90
67,67,125880,90
53,55,126000,90
65,66,126000,90
50,55,126120,90
62,66,126120,90
47,54,126240,90
59,65,126240,90
44,54,126360,90
56,64,126360,90
43,54,126480,240
55,63,126480,90
53,63,126600,90
48,53,126720,90
52,63,126720,90
47,54,126840,90
50,64,126840,90
45,56,126960,90
48,65,126960,90
43,56,127080,90
47,68,127080,90
45,69,127200,90
41,58,127200,90
43,71,127320,90
40,59,127320,90
41,75,127440,90
38,63,127440,90
40,77,127560,90
36,65,127560,90
44,63,127680,90
47,63,127680,90
50,74,127680,90
38,63,127680,90
53,66,127800,90
41,55,127800,90
44,55,127920,90
56,66,127920,90
47,55,128040,90
59,66,128040,90
59,60,128160,90
62,71,128160,90
50,60,128160,90
56,60,128160,90
63,62,128280,90
51,52,128280,90
52,54,128400,90
64,65,128400,90
65,70,128520,90
53,59,128520,90
33,63,128640,90
45,74,128640,90
42,63,128640,90
39,63,128640,90
36,55,128760,90
48,66,128760,90
39,55,128880,90
51,66,128880,90
42,55,129000,90
54,66,129000,90
54,60,129120,90
57,71,129120,90
45,60,129120,90
51,60,129120,90
58,62,129240,90
46,52,129240,90
47,54,129360,90
59,65,129360,90
60,70,129480,90
48,59,129480,90
50,55,129600,90
57,55,129600,90
59,66,129600,90
51,60,129720,90
52,60,129840,90
53,60,129960,90
52,60,130080,240
56,60,130080,240
64,71,130080,240
62,65,130320,240
56,54,130320,240
52,54,130320,240
45,54,130560,720
50,54,130560,480
53,65,130560,480
48,37,131040,240
52,44,131040,240
64,44,131520,80
65,37,131600,80
64,37,131680,80
60,41,131760,480
45,27,132000,120
52,27,132000,120
57,40,132240,90
59,37,132320,90
57,37,132400,90
59,40,132480,90
60,37,132560,90
59,37,132640,90
56,40,132720,90
57,36,132800,90
56,36,132880,90
52,39,132960,90
53,35,133040,90
52,35,133120,90
45,25,133200,120
56,25,133200,120
64,44,133440,80
65,37,133520,80
64,37,133600,80
60,41,133680,480
45,31,133920,120
52,31,133920,120
57,45,134160,80
59,44,134240,80
57,46,134320,80
56,53,134400,80
57,53,134480,80
55,56,134560,80
54,61,134640,80
55,56,134720,80
53,57,134800,80
52,63,134880,80
53,56,134960,80
52,56,135040,80
40,72,135120,120
64,44,135360,80
65,37,135440,80
64,37,135520,80
60,41,135600,480
45,27,135840,120
52,27,135840,120
57,40,136080,90
59,37,136160,90
57,37,136240,90
59,40,136320,90
60,37,136400,90
59,37,136480,90
56,40,136560,90
57,36,136640,90
56,36,136720,90
52,39,136800,90
53,35,136880,90
52,35,136960,90
45,25,137040,120
56,25,137040,120
64,44,137280,80
65,37,137360,80
64,37,137440,80
60,41,137520,480
45,31,137760,120
52,31,137760,120
57,45,138000,80
59,44,138080,80
57,46,138160,80
56,53,138240,80
57,53,138320,80
55,56,138400,80
54,61,138480,80
55,56,138560,80
53,57,138640,80
52,63,138720,80
53,56,138800,80
52,56,138880,80
40,72,138960,120
64,44,139200,80
65,37,139280,80
64,37,139360,80
61,41,139440,480
55,27,139680,120
45,27,139680,120
58,27,139680,120
57,40,139920,90
58,37,140000,90
57,37,140080,90
62,40,140160,90
64,37,140240,90
62,37,140320,90
61,57,140400,240
69,67,140400,240
57,56,140640,180
65,65,140640,180
53,69,140820,180
57,72,140850,150
62,73,140880,120
62,44,141120,80
64,37,141200,80
62,37,141280,80
59,41,141360,480
53,27,141600,120
43,27,141600,120
56,27,141600,120
55,40,141840,90
57,37,141920,90
55,37,142000,90
60,40,142080,90
62,37,142160,90
60,37,142240,90
59,57,142320,240
67,67,142320,240
55,56,142560,180
64,65,142560,180
52,69,142740,180
55,72,142770,150
60,73,142800,120
62,44,143040,80
64,37,143120,80
62,37,143200,80
65,41,143280,480
50,27,143520,120
59,27,143520,120
71,44,143760,40
72,33,143800,40
71,33,143840,20
60,44,144000,80
62,37,144080,80
60,37,144160,80
64,41,144240,480
48,27,144480,120
57,27,144480,120
69,44,144720,40
70,33,144760,40
69,33,144800,20
50,27,144960,240
65,28,145200,240
62,28,145200,240
52,29,145440,240
68,31,145680,240
64,31,145680,240
64,32,145920,240
69,32,145920,240
57,32,145920,240
38,27,146160,120
45,27,146160,120
33,27,146400,120
45,27,146400,120
52,86,146880,120
45,72,146880,120
48,45,147120,120
52,54,147120,120
52,54,147360,120
47,45,147360,120
52,54,147600,120
45,45,147600,120
52,63,147840,120
44,54,147840,120
52,57,148080,120
40,48,148080,120
42,47,148320,120
52,56,148320,120
52,56,148560,120
44,47,148560,120
52,86,148800,120
45,72,148800,120
52,54,149040,120
48,45,149040,120
52,54,149280,120
47,45,149280,120
52,54,149520,120
45,45,149520,120
52,63,149760,120
44,54,149760,120
51,57,150000,120
41,48,150000,120
52,61,150240,120
40,51,150240,120
56,56,150480,120
52,47,150480,120
57,90,150720,120
45,75,150720,120
60,59,150960,120
48,49,150960,120
59,59,151200,120
47,49,151200,120
57,59,151440,120
45,49,151440,120
56,69,151680,120
44,58,151680,120
52,63,151920,120
40,54,151920,120
54,62,152160,120
42,51,152160,120
56,62,152400,120
44,51,152400,120
57,90,152640,120
45,75,152640,120
60,60,152880,120
48,50,152880,120
59,61,153120,120
47,51,153120,120
57,63,153360,120
45,53,153360,120
56,74,153600,120
44,63,153600,120
53,76,153840,120
41,65,153840,120
52,78,154080,120
40,64,154080,120
56,67,154320,120
64,80,154320,120
59,67,154320,120
57,94,154560,120
45,79,154560,120
59,62,154800,120
47,52,154800,120
49,52,155040,120
61,62,155040,120
57,62,155280,120
45,52,155280,120
62,72,155520,120
50,61,155520,120
61,64,155760,240
70,76,155760,240
69,77,156000,240
62,63,156000,240
69,79,156240,240
65,64,156240,240
55,94,156480,120
43,79,156480,120
57,62,156720,120
45,52,156720,120
59,62,156960,120
47,52,156960,120
55,62,157200,120
43,52,157200,120
60,75,157440,120
48,64,157440,120
67,77,157680,240
62,65,157680,240
67,78,157920,240
64,63,157920,240
67,79,158160,240
60,64,158160,240
62,90,158400,120
50,75,158400,120
65,52,158640,180
68,52,158640,180
71,62,158640,180
64,52,158880,180
68,52,158880,180
71,62,158880,180
62,52,159120,180
68,52,159120,180
71,62,159120,180
60,61,159360,180
72,72,159360,180
69,61,159360,180
65,58,159600,180
68,69,159600,180
59,58,159600,180
57,56,159840,180
69,67,159840,180
64,56,159840,180
61,56,160080,180
64,67,160080,180
55,56,160080,180
53,67,160320,180
65,79,160320,180
62,67,160320,180
51,65,160560,180
63,77,160560,180
60,65,160560,180
57,65,160560,180
60,66,160800,180
52,66,160800,180
64,80,160800,180
57,66,160800,180
56,70,161040,180
59,70,161040,180
64,85,161040,180
52,70,161040,180
45,80,161280,480
52,80,161280,480
57,93,161280,480
64,67,161760,120
69,77,161760,120
60,67,161760,120
57,38,162240,60
64,32,162360,60
52,32,162480,60
64,32,162600,60
60,34,162720,60
64,31,162840,60
57,29,162960,60
64,30,163080,60
56,38,163200,60
64,32,163320,60
52,32,163440,60
64,32,163560,60
56,38,163680,60
64,32,163800,60
59,29,163920,60
64,30,164040,60
57,38,164160,60
64,32,164280,60
52,32,164400,60
64,32,164520,60
60,36,164640,60
64,32,164760,60
57,29,164880,60
64,30,165000,60
56,38,165120,60
64,32,165240,60
52,32,165360,60
64,32,165480,60
56,35,165600,60
59,29,165720,60
64,39,165840,240
57,38,166080,60
64,32,166200,60
52,32,166320,60
64,32,166440,60
60,34,166560,60
64,31,166680,60
57,29,166800,60
64,30,166920,60
56,38,167040,60
64,32,167160,60
52,32,167280,60
64,32,167400,60
56,38,167520,60
64,32,167640,60
59,29,167760,60
64,30,167880,60
57,38,168000,60
64,32,168120,60
52,32,168240,60
64,32,168360,60
60,36,168480,60
64,32,168600,60
57,29,168720,60
64,30,168840,60
56,38,168960,60
64,32,169080,60
52,32,169200,60
64,32,169320,60
59,33,169440,60
68,26,169560,60
64,32,169680,240
61,49,169920,120
69,41,170040,120
57,41,170160,120
69,41,170280,120
73,44,170400,60
50,54,170880,240
57,54,170880,240
77,56,171360,60
74,49,171480,60
59,46,171840,120
67,38,171960,120
55,38,172080,120
67,38,172200,120
74,41,172320,60
48,51,172800,240
55,51,172800,240
76,53,173280,60
72,46,173400,60
65,38,173760,240
56,32,173760,240
62,32,173760,240
64,38,174720,240
60,32,174720,240
65,45,174960,60
62,45,175200,60
59,45,175440,60
65,45,175680,60
50,45,175800,60
68,45,176160,60
52,45,176280,60
69,42,176760,60
64,35,176760,60
45,38,177120,240
69,38,177600,1920
69,38,179520,1920
74,38,179520,1920
72,38,181440,1920
69,38,181440,1920
71,38,183360,1920
69,38,183360,1920
69,38,185280,1920
69,38,187200,1920
74,38,187200,1920
69,38,189120,1920
72,38,189120,1920
71,38,191040,1920
69,38,191040,1920
69,38,192960,960
81,50,195600,240
79,50,195840,240
77,49,196080,240
76,48,196320,240
74,46,196560,240
71,38,196800,960
79,50,199440,240
77,50,199680,240
76,49,199920,240
74,48,200160,240
72,46,200400,240
68,36,200640,960
74,38,200640,960
88,49,203040,240
80,41,203040,240
88,47,203520,240
81,40,203520,240
88,47,204000,240
85,40,204000,240
89,49,204480,240
86,41,204480,240
76,36,205440,240
86,44,205440,240
84,40,206400,1920
81,34,206400,1920
40,69,208080,80
42,74,208160,80
44,79,208240,80
45,81,208320,480
33,69,208320,480
57,79,208560,240
48,82,208800,480
36,69,208800,480
60,79,209040,240
47,82,209280,480
35,69,209280,480
59,77,209520,240
45,81,209760,480
33,69,209760,480
57,77,210000,240
32,58,210320,80
35,59,210400,80
40,60,210480,80
44,61,210560,80
47,62,210640,80
52,64,210720,80
56,63,210800,80
59,66,210880,80
64,67,210960,80
68,68,211040,80
71,69,211120,80
76,73,211200,80
71,70,211280,80
68,70,211360,80
64,69,211440,80
59,69,211520,80
56,68,211600,80
52,67,211680,80
47,66,211760,80
44,64,211840,80
40,63,211920,80
35,62,212000,80
32,61,212080,80
33,69,212160,480
45,81,212160,480
57,79,212400,240
48,82,212640,480
36,69,212640,480
60,79,212880,240
47,82,213120,480
35,69,213120,480
59,77,213360,240
45,81,213600,480
33,69,213600,480
57,77,213840,240
52,70,214080,120
40,59,214080,120
47,59,214080,120
52,51,214200,120
53,52,214320,120
54,55,214440,120
55,57,214560,120
56,59,214680,120
57,61,214800,120
58,62,214920,120
59,64,215040,120
60,67,215160,120
61,69,215280,120
62,71,215400,120
63,73,215520,120
64,75,215640,120
65,73,215760,120
64,67,215880,90
40,69,216000,80
42,74,216080,80
44,79,216160,80
45,81,216240,480
33,69,216240,480
57,79,216480,240
48,82,216720,480
36,69,216720,480
60,79,216960,240
47,82,217200,480
35,69,217200,480
59,77,217440,240
45,81,217680,480
33,69,217680,480
57,77,217920,240
32,58,218240,80
35,59,218320,80
40,60,218400,80
44,61,218480,80
47,62,218560,80
52,64,218640,80
56,63,218720,80
59,66,218800,80
64,67,218880,80
68,68,218960,80
71,69,219040,80
76,73,219120,80
71,70,219200,80
68,70,219280,80
64,69,219360,80
59,69,219440,80
56,68,219520,80
52,67,219600,80
47,66,219680,80
44,64,219760,80
40,63,219840,80
35,62,219920,80
32,61,220000,80
33,69,220080,480
45,81,220080,480
57,79,220320,240
48,82,220560,480
36,69,220560,480
60,79,220800,240
47,82,221040,480
35,69,221040,480
59,77,221280,240
45,81,221520,480
33,69,221520,480
57,77,221760,240
52,70,222000,120
40,59,222000,120
47,59,222000,120
52,51,222120,120
53,52,222240,120
54,55,222360,120
55,57,222480,120
56,59,222600,120
57,61,222720,120
58,62,222840,120
59,64,222960,120
60,67,223080,120
61,69,223200,120
62,71,223320,120
63,73,223440,120
64,75,223560,120
65,73,223680,120
64,67,223800,120
57,70,223920,240
49,59,223920,240
52,59,223920,240
37,67,224160,240
58,72,224400,240
49,60,224400,240
55,60,224400,240
45,67,224640,240
57,74,224880,240
49,62,224880,240
53,62,224880,240
37,67,225120,240
55,77,225360,240
49,59,225360,240
52,64,225360,240
45,69,225600,240
53,75,225840,120
38,63,225840,120
64,45,226080,120
55,38,226080,120
58,38,226080,120
65,47,226320,120
57,39,226320,120
62,39,226320,120
76,48,226560,120
67,40,226560,120
70,40,226560,120
77,49,226800,120
69,41,226800,120
74,41,226800,120
88,51,227040,120
82,42,227040,120
79,42,227040,120
89,53,227280,120
81,45,227280,120
86,45,227280,120
55,70,227760,240
47,59,227760,240
50,59,227760,240
35,67,228000,240
56,72,228240,240
47,60,228240,240
53,60,228240,240
43,67,228480,240
55,74,228720,240
47,62,228720,240
52,62,228720,240
35,67,228960,240
53,77,229200,240
47,59,229200,240
50,64,229200,240
43,69,229440,240
52,71,229680,120
36,63,229680,120
62,45,229920,120
53,38,229920,120
56,38,229920,120
64,47,230160,120
55,39,230160,120
60,39,230160,120
68,40,230400,120
74,48,230400,120
65,40,230400,120
76,49,230640,120
67,41,230640,120
72,41,230640,120
86,51,230880,120
80,42,230880,120
77,42,230880,120
88,53,231120,120
79,45,231120,120
84,45,231120,120
48,61,231360,80
50,66,231440,80
52,69,231520,80
53,74,231600,240
41,74,231600,240
68,69,231840,240
62,58,231840,240
59,58,231840,240
68,69,232080,240
62,59,232080,240
59,59,232080,240
35,60,232320,240
47,72,232320,240
51,79,232560,240
39,79,232560,240
66,69,232800,240
60,59,232800,240
57,59,232800,240
66,68,233040,240
60,58,233040,240
57,55,233040,240
33,62,233280,240
45,74,233280,240
49,79,233520,240
37,79,233520,240
64,71,233760,240
58,60,233760,240
55,60,233760,240
64,72,234000,240
58,60,234000,240
55,60,234000,240
31,63,234240,240
43,75,234240,240
47,83,234480,240
35,83,234480,240
62,72,234720,240
56,61,234720,240
53,61,234720,240
62,73,234960,240
56,62,234960,240
53,62,234960,240
29,64,235200,240
41,78,235200,240
47,85,235440,240
35,85,235440,240
62,74,235680,240
57,62,235680,240
53,62,235680,240
62,75,235920,240
57,63,235920,240
53,63,235920,240
29,67,236160,240
41,79,236160,240
47,86,236400,240
35,86,236400,240
63,77,236640,240
57,64,236640,240
53,64,236640,240
63,77,236880,240
57,64,236880,240
53,64,236880,240
45,79,237120,80
43,82,237200,80
41,85,237280,80
40,89,237360,240
64,80,237840,240
59,80,237840,240
57,68,237840,240
52,68,237840,240
52,89,238320,240
40,74,238320,240
64,80,238800,240
59,80,238800,240
56,68,238800,240
52,68,238800,240
45,88,239280,240
33,73,239280,240
36,73,239280,240
40,73,239283,240
57,78,239640,120
57,82,239760,120
60,79,239880,120
59,83,240000,120
57,79,240120,120
64,85,240240,240
40,80,240600,120
40,85,240720,120
43,80,240840,120
41,86,240960,120
40,80,241080,120
45,88,241200,240
33,73,241200,240
37,73,241200,240
40,73,241203,240
57,79,241560,120
57,83,241680,120
60,78,241800,120
58,82,241920,120
57,79,242040,120
67,83,242160,240
45,81,242520,120
45,86,242640,120
48,81,242760,120
46,86,242880,120
45,79,243000,120
45,73,243120,240
50,88,243120,240
38,73,243120,240
41,73,243120,240
57,79,243480,120
57,83,243600,120
60,77,243720,120
58,82,243840,120
57,73,243960,120
65,85,244080,240
38,81,244440,120
38,89,244560,120
37,82,244680,120
38,88,244800,120
40,80,244920,120
53,89,245040,480
41,74,245040,480
65,80,245280,240
56,68,245280,240
62,68,245280,240
56,89,245520,480
44,75,245520,480
68,81,245760,240
65,69,245760,240
59,69,245760,240
59,89,246000,480
47,74,246000,480
71,80,246240,240
68,68,246240,240
62,68,246240,240
52,90,246480,480
40,77,246480,480
64,83,246720,240
59,70,246720,240
56,70,246720,240
45,88,246960,240
33,73,246960,240
36,73,246960,240
40,73,246963,240
57,79,247320,120
57,84,247440,120
60,79,247560,120
59,86,247680,120
57,79,247800,120
64,88,247920,240
40,80,248280,120
40,85,248400,120
43,80,248520,120
41,86,248640,120
40,80,248760,120
45,88,248880,240
33,73,248880,240
37,73,248880,240
40,73,248883,240
57,79,249240,120
57,83,249360,120
60,79,249480,120
58,82,249600,120
57,78,249720,120
67,84,249840,240
45,81,250200,120
45,86,250320,120
48,81,250440,120
46,86,250560,120
45,79,250680,120
45,73,250800,240
50,88,250800,240
38,73,250800,240
41,73,250800,240
57,80,251160,120
57,83,251280,120
60,79,251400,120
58,83,251520,120
57,77,251640,120
65,82,251760,240
38,81,252120,120
38,89,252240,120
37,82,252360,120
38,88,252480,120
40,80,252600,120
53,89,252720,480
41,74,252720,480
65,80,252960,240
56,68,252960,237
62,68,252960,240
56,89,253200,480
44,75,253200,480
68,81,253440,240
65,69,253440,240
59,69,253440,237
59,89,253680,480
47,74,253680,480
71,80,253920,240
68,68,253920,240
62,68,253920,240
52,90,254160,480
40,77,254160,480
64,83,254400,240
59,70,254400,240
56,70,254400,240
33,88,254640,960
37,61,254720,80
40,62,254800,80
45,63,254880,80
49,63,254960,80
52,64,255040,80
57,66,255120,80
61,67,255200,80
64,68,255280,80
69,69,255360,80
73,69,255440,80
76,69,255520,80
81,80,255600,80
76,70,255680,80
73,70,255760,80
69,69,255840,80
64,69,255920,80
61,68,256000,80
57,67,256080,80
52,66,256160,80
49,64,256240,80
45,63,256320,80
40,63,256400,80
37,61,256480,80
33,85,256560,960
37,56,256640,80
40,58,256720,80
45,59,256800,80
49,60,256880,80
52,62,256960,80
57,64,257040,80
61,67,257120,80
64,69,257200,80
69,70,257280,60
73,71,257340,60
76,72,257400,60
81,74,257460,60
85,75,257520,60
81,74,257580,60
76,73,257640,60
73,72,257700,60
69,70,257760,80
64,69,257840,80
61,69,257920,80
57,67,258000,80
52,64,258080,80
49,63,258160,80
45,61,258240,80
40,60,258320,80
37,59,258400,80
33,88,258480,960
37,59,258560,80
40,59,258640,80
45,61,258720,80
49,62,258800,80
52,63,258880,80
57,66,258960,80
61,67,259040,80
64,69,259120,80
69,69,259200,80
73,71,259280,80
76,72,259360,80
81,74,259440,96
85,75,259536,96
89,78,259632,96
88,77,259728,96
85,77,259824,96
81,74,259924,80
76,72,260004,80
73,71,260084,80
69,69,260164,80
64,69,260244,80
61,67,260324,80
57,66,260404,80
52,63,260484,80
49,62,260564,80
45,60,260644,80
40,59,260724,80
37,58,260804,80
33,67,260880,78
34,59,260940,78
33,64,261000,78
34,58,261060,78
33,64,261120,78
34,58,261180,78
33,64,261240,78
34,58,261300,78
33,64,261360,78
34,58,261420,78
33,66,261480,78
34,59,261540,78
33,66,261600,78
34,60,261660,78
33,66,261720,78
34,59,261780,78
33,62,261840,60
34,64,261900,60
35,67,261960,60
36,69,262020,60
37,71,262080,60
38,73,262140,60
39,75,262200,60
40,78,262260,60
41,80,262320,60
40,81,262380,60
39,80,262440,60
38,80,262500,60
37,79,262560,60
36,79,262620,60
35,79,262680,60
34,78,262740,60
33,89,262800,240
57,84,263280,240
52,77,263280,240
49,70,263280,240
45,70,263280,240
69,84,263760,240
64,77,263760,240
61,70,263760,240
57,70,263760,240
76,17,177600,80
77,17,177680,80
76,18,177760,80
77,18,177840,80
76,18,177920,80
77,18,178000,80
76,18,178080,80
77,20,178160,80
76,20,178240,80
77,22,178320,80
76,23,178400,80
77,23,178480,80
76,22,178560,80
77,22,178640,80
76,22,178720,80
77,22,178800,80
76,22,178880,80
77,22,178960,80
76,22,179040,80
77,22,179120,80
76,22,179200,80
77,22,179280,80
76,22,179360,80
77,22,179440,80
76,21,179520,80
77,21,179600,80
76,21,179680,80
77,22,179760,80
76,22,179840,80
77,22,179920,80
76,23,180000,80
77,24,180080,80
76,24,180160,80
77,25,180240,80
76,26,180320,80
77,29,180400,80
76,31,180480,80
77,30,180560,80
76,29,180640,80
77,29,180720,80
76,29,180800,80
77,27,180880,80
76,25,180960,80
77,25,181040,80
76,25,181120,80
77,25,181200,80
76,25,181280,80
77,23,181360,80
76,19,181440,80
77,23,181520,80
76,24,181600,80
77,24,181680,80
76,25,181760,80
77,25,181840,80
76,25,181920,80
77,26,182000,80
76,26,182080,80
77,26,182160,80
76,28,182240,80
77,28,182320,80
76,28,182400,80
77,29,182480,80
76,29,182560,80
77,29,182640,80
76,29,182720,80
77,29,182800,80
76,29,182880,80
77,29,182960,80
76,27,183040,80
77,25,183120,80
76,25,183200,80
77,25,183280,80
76,26,183360,80
77,22,183440,80
76,23,183520,80
77,24,183600,80
76,24,183680,80
77,24,183760,80
76,26,183840,80
77,28,183920,80
76,28,184000,80
77,30,184080,80
76,31,184160,80
77,31,184240,80
76,30,184320,80
77,30,184400,80
76,30,184480,80
77,30,184560,80
76,29,184640,80
77,26,184720,80
76,26,184800,80
77,25,184880,80
76,24,184960,80
77,24,185040,80
76,23,185120,80
77,21,185200,80
76,21,185280,80
77,21,185360,80
76,21,185440,80
77,22,185520,80
76,24,185600,80
77,24,185680,80
76,25,185760,80
77,26,185840,80
76,26,185920,80
77,28,186000,80
76,28,186080,80
77,28,186160,80
76,27,186240,80
77,27,186320,80
76,27,186400,80
77,27,186480,80
76,25,186560,80
77,23,186640,80
76,23,186720,80
77,23,186800,80
76,23,186880,80
77,23,186960,80
76,23,187040,80
77,23,187120,80
76,23,187200,80
77,23,187280,80
76,23,187360,80
77,23,187440,80
76,25,187520,80
77,22,187600,80
76,22,187680,80
77,22,187760,80
76,22,187840,80
77,23,187920,80
76,25,188000,80
77,26,188080,80
76,27,188160,80
77,27,188240,80
76,27,188320,80
77,27,188400,80
76,27,188480,80
77,27,188560,80
76,26,188640,80
77,25,188720,80
76,25,188800,80
77,25,188880,80
76,24,188960,80
77,19,189040,80
76,17,189120,80
77,18,189200,80
76,18,189280,80
77,20,189360,80
76,20,189440,80
77,22,189520,80
76,24,189600,80
77,25,189680,80
76,26,189760,80
77,29,189840,80
76,29,189920,80
77,30,190000,80
76,25,190080,80
77,25,190160,80
76,25,190240,80
77,25,190320,80
76,25,190400,80
77,25,190480,80
76,25,190560,80
77,25,190640,80
76,25,190720,80
77,25,190800,80
76,25,190880,80
77,24,190960,80
76,26,191040,80
77,23,191120,80
76,24,191200,80
77,26,191280,80
76,28,191360,80
77,29,191440,80
76,29,191520,80
77,29,191600,80
76,29,191680,80
77,29,191760,80
76,29,191840,80
77,26,191920,80
76,27,192000,80
77,26,192080,80
76,26,192160,80
77,26,192240,80
76,26,192320,80
77,26,192400,80
76,26,192480,80
77,23,192560,80
76,21,192640,80
77,18,192720,80
76,18,192800,80
77,18,192880,80
76,23,192960,120
77,16,193080,120
76,16,193200,120
77,16,193320,120
76,17,193440,120
77,17,193560,120
76,18,193680,120
77,18,193800,120
76,30,193920,480
77,24,196800,120
76,16,196920,120
77,16,197040,120
76,16,197160,120
77,17,197280,120
76,17,197400,120
77,18,197520,120
76,18,197640,120
77,30,197760,480
77,23,200640,120
76,19,200760,120
77,16,200880,120
76,16,201000,120
77,17,201120,120
76,17,201240,120
77,18,201360,120
76,18,201480,120
77,30,201600,480
45,38,30480,350
52,41,30520,320
57,45,30560,180
60,48,30600,240
