note,velocity,position,duration
84,90,1440,120
75,76,1440,120
72,76,1440,120
79,84,1800,120
75,71,1800,120
72,71,1800,120
67,71,1800,120
67,76,1920,120
72,76,1920,120
75,76,1920,120
79,90,1920,120
63,70,2520,120
67,70,2520,120
75,82,2520,120
63,74,2640,120
67,74,2640,120
75,90,2640,120
63,65,3240,120
67,65,3240,120
72,78,3240,120
63,72,3360,120
67,72,3360,120
72,85,3360,120
63,67,3600,120
67,67,3600,120
71,80,3600,120
63,72,3840,120
67,72,3840,120
72,85,3840,120
86,90,5760,120
77,76,5760,120
74,76,5760,120
80,84,6120,120
74,71,6120,120
68,71,6120,120
68,76,6240,120
74,76,6240,120
80,90,6240,120
65,70,6840,120
68,70,6840,120
77,82,6840,120
65,74,6960,120
68,74,6960,120
77,90,6960,120
62,65,7560,120
68,65,7560,120
74,78,7560,120
62,72,7680,120
68,72,7680,120
74,85,7680,120
61,67,7920,120
68,67,7920,120
73,80,7920,120
62,72,8160,120
68,72,8160,120
74,85,8160,120
63,45,8880,120
67,45,8880,120
75,53,8880,120
60,40,9120,60
62,41,9180,60
63,44,9240,60
65,45,9300,60
67,47,9360,120
65,47,9600,90
72,47,9600,90
77,57,9600,90
84,59,9840,90
72,49,9840,90
75,49,9840,90
74,51,10080,120
72,51,10080,120
84,60,10080,120
65,42,10320,60
63,43,10380,60
62,45,10440,60
60,46,10500,60
58,49,10560,120
70,54,10800,90
74,54,10800,90
82,64,10800,90
87,66,11040,90
74,55,11040,90
82,55,11040,90
80,57,11280,120
72,57,11280,120
87,68,11280,120
56,47,11520,60
58,48,11580,60
60,51,11640,60
62,52,11700,60
63,56,11760,120
80,61,12000,90
74,61,12000,90
84,61,12000,90
86,72,12000,90
92,75,12240,90
80,63,12240,90
84,63,12240,90
83,65,12480,120
80,65,12480,120
92,77,12480,120
62,51,12720,60
60,52,12780,60
59,54,12840,60
56,56,12900,60
55,61,12960,120
79,65,13200,90
82,65,13200,90
85,65,13200,90
91,79,13200,90
94,67,13440,90
96,81,13440,90
84,67,13440,90
91,67,13440,90
92,70,13680,120
84,70,13680,120
96,83,13680,120
59,52,13920,60
60,54,13980,60
62,56,14040,60
64,59,14100,60
65,63,14160,120
92,72,14400,120
89,72,14400,120
101,85,14400,120
61,50,14640,60
63,51,14700,60
65,54,14760,60
66,55,14820,60
68,67,14880,120
73,54,15120,60
75,55,15180,60
77,58,15240,60
78,60,15300,60
80,71,15360,120
85,58,15600,60
87,59,15660,60
89,62,15720,60
90,63,15780,60
92,75,15840,120
85,77,16200,120
89,77,16200,120
97,90,16200,120
97,86,16320,120
89,72,16320,120
85,72,16320,120
80,78,16560,120
85,78,16560,120
92,91,16560,120
77,69,16920,120
80,69,16920,120
89,82,16920,120
77,69,17040,120
80,69,17040,120
89,82,17040,120
73,68,17640,120
77,68,17640,120
80,68,17640,120
85,81,17640,120
73,75,17760,120
77,75,17760,120
80,75,17760,120
85,89,17760,120
72,70,18000,120
76,70,18000,120
80,70,18000,120
84,83,18000,120
73,75,18240,120
77,75,18240,120
80,75,18240,120
85,89,18240,120
77,70,18720,120
80,70,18720,120
86,70,18720,120
89,79,18720,120
73,73,19080,120
85,87,19080,120
86,82,19200,120
74,70,19200,120
75,74,19440,120
78,74,19440,120
81,74,19440,120
87,88,19440,120
71,66,19800,120
83,79,19800,120
72,66,19920,120
84,79,19920,120
79,75,20160,120
83,81,20160,120
91,94,20160,120
87,79,21600,120
78,66,21600,120
75,66,21600,120
84,73,21960,120
75,62,21960,120
72,62,21960,120
72,66,22080,120
75,66,22080,120
84,79,22080,120
69,61,22680,120
72,61,22680,120
81,72,22680,120
69,64,22800,120
72,64,22800,120
81,79,22800,120
66,61,23280,60
78,72,23280,60
63,57,23400,60
75,68,23400,60
62,57,23520,60
74,68,23520,60
60,57,23640,60
72,68,23640,60
67,64,23760,120
71,64,23760,120
79,76,23760,120
87,79,25200,120
78,66,25200,120
75,66,25200,120
84,73,25560,120
75,62,25560,120
72,62,25560,120
72,66,25680,120
75,66,25680,120
84,79,25680,120
69,61,26280,120
72,61,26280,120
81,72,26280,120
69,64,26400,120
72,64,26400,120
81,79,26400,120
66,61,26880,60
78,72,26880,60
63,57,27000,60
75,68,27000,60
62,57,27120,60
74,68,27120,60
60,57,27240,60
72,68,27240,60
67,64,27360,120
71,64,27360,120
79,76,27360,120
62,55,27720,120
60,56,27960,120
59,58,28200,120
57,59,28440,120
55,61,28680,120
68,62,28920,120
66,63,29160,120
65,65,29400,120
63,66,29640,120
61,68,29875,120
80,68,30000,120
77,68,30000,120
85,68,30000,120
89,81,30000,120
86,70,30240,120
83,70,30240,120
79,70,30240,120
91,82,30240,120
62,61,30600,120
60,62,30840,120
59,63,31080,120
57,64,31320,120
55,66,31560,120
68,67,31800,120
66,70,32040,120
65,72,32280,120
63,72,32520,120
61,74,32760,120
80,57,32880,120
77,57,32880,120
85,57,32880,120
89,68,32880,120
91,66,33120,720
86,66,33120,720
83,66,33120,720
95,80,33120,720
84,67,33840,720
89,67,33840,720
92,67,33840,720
96,81,33840,720
85,72,34560,720
89,72,34560,720
92,72,34560,720
97,86,34560,720
86,77,35280,720
89,77,35280,720
92,77,35280,720
98,91,35280,720
101,86,36000,360
98,86,36000,360
96,72,36000,360
89,72,36000,360
89,72,36360,360
96,72,36360,360
98,86,36360,360
101,86,36360,360
89,72,36720,360
96,72,36720,360
98,86,36720,360
101,86,36720,360
89,72,37080,360
96,72,37080,360
98,86,37080,360
101,86,37080,360
50,72,37440,120
53,72,37440,120
59,79,37440,120
92,74,37680,54
91,73,37734,53
90,72,37787,54
89,71,37840,54
88,70,37894,53
87,69,37947,54
86,67,38001,53
85,66,38054,54
84,65,38107,54
83,79,38160,120
80,63,38400,54
79,62,38454,53
78,61,38507,53
77,60,38560,54
76,59,38613,53
75,58,38667,54
74,56,38721,53
73,55,38774,53
72,55,38827,54
71,66,38880,120
68,53,39120,54
67,52,39174,53
66,51,39227,53
65,50,39280,54
64,50,39333,53
63,49,39387,54
62,47,39441,53
61,46,39494,53
60,46,39547,54
59,55,39600,120
56,53,39840,53
55,52,39893,53
54,51,39947,53
53,50,40000,53
52,50,40053,53
51,49,40107,53
50,47,40160,53
49,46,40214,53
48,46,40267,53
47,43,40320,54
48,45,40374,53
49,46,40427,53
50,48,40480,53
51,50,40533,53
52,51,40587,53
53,54,40640,53
54,54,40694,53
55,56,40747,53
56,58,40800,53
55,57,40854,53
54,55,40907,53
53,54,40961,53
52,54,41014,53
51,52,41067,53
50,51,41121,53
49,50,41174,53
48,49,41228,53
47,58,41280,240
55,50,42000,240
84,90,45600,120
75,76,45600,120
72,76,45600,120
79,84,45960,120
75,71,45960,120
72,71,45960,120
67,71,45960,120
67,76,46080,120
72,76,46080,120
75,76,46080,120
79,90,46080,120
63,70,46680,120
67,70,46680,120
75,82,46680,120
63,74,46800,120
67,74,46800,120
75,90,46800,120
63,65,47400,120
67,65,47400,120
72,78,47400,120
63,72,47520,120
67,72,47520,120
72,85,47520,120
63,67,47760,120
67,67,47760,120
71,80,47760,120
63,72,48000,120
67,72,48000,120
72,85,48000,120
85,90,49920,120
77,76,49920,120
73,76,49920,120
80,84,50280,120
73,71,50280,120
68,71,50280,120
68,76,50400,120
73,76,50400,120
80,90,50400,120
65,70,51000,120
68,70,51000,120
77,82,51000,120
65,74,51120,120
68,74,51120,120
77,90,51120,120
61,65,51720,120
68,65,51720,120
73,78,51720,120
61,72,51840,120
68,72,51840,120
73,85,51840,120
60,67,52080,120
68,67,52080,120
72,80,52080,120
61,72,52320,120
68,72,52320,120
73,85,52320,120
62,45,53040,120
67,45,53040,120
74,53,53040,120
58,40,53280,60
60,41,53340,60
62,44,53400,60
63,45,53460,60
65,47,53520,120
63,47,53760,120
66,47,53760,120
75,57,53760,120
78,59,54000,120
66,49,54000,120
70,49,54000,120
74,51,54240,120
70,51,54240,120
82,60,54240,120
65,42,54480,60
63,43,54540,60
62,45,54600,60
60,46,54660,60
58,49,54720,120
71,54,54960,120
75,54,54960,120
83,64,54960,120
87,66,55200,120
75,55,55200,120
83,55,55200,120
83,57,55440,120
76,57,55440,120
88,68,55440,120
64,47,55680,60
66,48,55740,60
68,51,55800,60
69,52,55860,60
71,56,55920,120
75,61,56160,120
84,61,56160,120
87,72,56160,120
96,75,56400,120
84,63,56400,120
87,63,56400,120
88,65,56640,120
83,65,56640,120
95,77,56640,120
71,51,56880,60
69,52,56940,60
68,54,57000,60
66,56,57060,60
64,61,57120,120
82,65,57360,120
85,65,57360,120
94,79,57360,120
97,81,57600,120
85,67,57600,120
94,67,57600,120
93,70,57840,120
86,70,57840,120
98,83,57840,120
62,52,58080,60
64,54,58140,60
66,56,58200,60
67,59,58260,60
69,63,58320,120
95,72,58560,120
92,72,58560,120
86,72,58560,120
98,85,58560,120
62,50,58800,60
65,51,58860,60
68,54,58920,60
70,55,58980,60
71,67,59040,120
74,54,59280,60
77,55,59340,60
80,58,59400,60
82,60,59460,60
83,71,59520,120
86,58,59760,60
89,59,59820,60
92,62,59880,60
94,63,59940,60
95,75,60000,120
87,77,60360,120
95,77,60360,120
99,90,60360,120
99,86,60480,120
95,72,60480,120
87,72,60480,120
83,78,60720,120
87,78,60720,120
95,91,60720,120
78,69,61080,120
83,69,61080,120
90,82,61080,120
78,69,61200,120
83,69,61200,120
90,82,61200,120
75,68,61800,120
83,68,61800,120
87,81,61800,120
75,75,61920,120
83,75,61920,120
87,89,61920,120
74,70,62160,120
83,70,62160,120
86,83,62160,120
75,75,62400,120
83,75,62400,120
87,89,62400,120
78,70,62880,120
83,70,62880,120
90,79,62880,120
74,73,63240,120
86,87,63240,120
87,82,63360,120
75,70,63360,120
78,74,63600,120
84,74,63600,120
90,88,63600,120
74,66,63960,120
86,79,63960,120
75,66,64080,120
87,79,64080,120
82,75,64320,120
86,81,64320,120
94,94,64320,120
90,79,65760,120
81,66,65760,120
78,66,65760,120
87,73,66120,120
78,62,66120,120
75,62,66120,120
75,66,66240,120
78,66,66240,120
87,79,66240,120
72,61,66840,120
75,61,66840,120
84,72,66840,120
72,64,66960,120
75,64,66960,120
84,79,66960,120
72,61,67440,60
69,61,67440,60
81,72,67440,60
66,57,67560,60
78,68,67560,60
65,57,67680,60
77,68,67680,60
63,57,67800,60
75,68,67800,60
70,64,67920,120
74,64,67920,120
82,76,67920,120
65,75,68280,120
63,72,68520,120
62,70,68760,120
59,66,69000,120
58,63,69240,120
99,90,69360,120
90,76,69360,120
87,76,69360,120
96,84,69720,120
87,71,69720,120
84,71,69720,120
84,76,69840,120
87,76,69840,120
96,90,69840,120
81,70,70440,120
84,70,70440,120
93,82,70440,120
81,73,70560,120
84,73,70560,120
93,90,70560,120
78,70,71040,60
81,70,71040,60
90,82,71040,60
77,65,71160,60
89,78,71160,60
76,65,71280,60
88,78,71280,60
75,65,71400,60
87,78,71400,60
82,73,71520,120
86,73,71520,120
94,87,71520,120
68,45,71880,120
70,54,71880,120
68,47,72120,120
70,56,72120,120
68,50,72360,120
70,59,72360,120
68,52,72600,120
70,62,72600,120
68,54,72840,120
70,64,72840,120
59,68,72960,120
71,68,72960,120
64,56,73080,120
68,58,73200,120
71,61,73320,120
76,63,73440,120
80,64,73560,120
83,66,73680,120
88,68,73800,120
92,70,73920,120
94,72,74040,120
95,74,74160,120
88,63,74160,120
83,63,74160,120
86,81,74400,120
89,81,74400,120
98,92,74400,120
68,47,74760,120
70,56,74760,120
68,49,75000,120
70,59,75000,120
68,52,75240,120
70,62,75240,120
68,54,75480,120
70,64,75480,120
68,57,75720,120
70,67,75720,120
59,71,75840,120
71,71,75840,120
64,59,75960,120
68,61,76080,120
71,63,76200,120
76,65,76320,120
80,67,76440,120
83,69,76560,120
88,71,76680,120
92,72,76800,120
94,76,76920,120
95,78,77040,120
88,65,77040,120
83,65,77040,120
86,84,77280,120
89,84,77280,120
98,97,77280,120
82,79,77640,120
74,66,77640,120
70,66,77640,120
70,63,77760,240
74,63,77760,240
82,74,77760,240
70,67,78000,120
74,67,78000,120
82,80,78000,120
71,71,78360,120
75,71,78360,120
83,83,78360,120
71,65,78480,240
75,65,78480,240
83,77,78480,240
71,71,78720,120
75,71,78720,120
83,83,78720,120
84,86,79080,120
76,72,79080,120
72,72,79080,120
72,67,79200,240
76,67,79200,240
84,80,79200,240
72,71,79440,120
76,71,79440,120
84,84,79440,120
73,72,79800,120
77,72,79800,120
85,86,79800,120
73,68,79920,240
77,68,79920,240
85,81,79920,240
73,72,80160,120
77,72,80160,120
85,85,80160,120
77,72,80520,120
89,85,80520,120
85,85,80520,120
80,72,80520,120
77,69,80640,240
80,69,80640,240
85,81,80640,240
89,81,80640,240
77,74,80880,120
80,74,80880,120
85,88,80880,120
89,88,80880,120
80,78,81240,120
86,78,81240,120
94,92,81240,120
80,72,81360,240
86,72,81360,240
94,86,81360,240
80,80,81600,120
86,80,81600,120
94,94,81600,120
70,53,81960,60
70,48,82080,120
70,51,82320,120
70,43,82680,60
70,46,82800,120
67,37,83040,240
70,37,83040,240
79,53,83040,240
70,33,83400,60
75,43,83400,60
70,33,83520,120
75,43,83520,120
70,37,83760,120
75,49,83760,120
67,34,84120,60
70,44,84120,60
67,34,84240,120
70,44,84240,120
63,39,84480,120
67,51,84480,120
60,36,84840,60
63,45,84840,60
60,36,84960,120
63,45,84960,120
60,39,85200,720
63,51,85200,720
58,37,85920,240
62,37,85920,240
70,49,85920,240
58,34,86280,60
65,44,86280,60
58,34,86400,120
65,44,86400,120
58,37,86640,120
64,49,86640,120
58,39,86880,120
65,51,86880,120
58,39,87120,120
66,39,87120,120
70,51,87120,120
58,42,87360,720
67,42,87360,720
70,54,87360,720
63,37,88080,240
67,49,88080,240
70,37,88800,240
75,37,88800,240
79,53,88800,240
67,33,89160,60
70,33,89160,60
75,43,89160,60
67,33,89280,120
70,33,89280,120
75,43,89280,120
67,37,89520,120
70,37,89520,120
75,49,89520,120
63,34,89880,60
67,34,89880,60
70,44,89880,60
63,34,90000,120
67,34,90000,120
70,44,90000,120
63,39,90240,120
67,51,90240,120
60,36,90600,60
63,45,90600,60
60,36,90720,120
63,45,90720,120
60,39,90960,720
63,51,90960,720
59,37,91680,240
62,37,91680,240
71,49,91680,240
59,34,92040,60
62,44,92040,60
59,34,92160,120
62,44,92160,120
59,37,92400,120
61,49,92400,120
59,39,92640,120
62,51,92640,120
59,39,92880,120
62,39,92880,120
67,51,92880,120
59,42,93120,720
67,42,93120,720
71,54,93120,720
58,37,93840,720
62,37,93840,720
70,49,93840,720
79,60,94560,240
82,60,94560,240
91,78,94560,240
75,54,94920,60
79,54,94920,60
87,64,94920,60
75,54,95040,120
79,54,95040,120
87,64,95040,120
75,60,95280,120
79,60,95280,120
87,72,95280,120
70,53,95640,60
75,53,95640,60
82,63,95640,60
70,53,95760,120
75,53,95760,120
82,63,95760,120
67,61,96000,120
75,61,96000,120
79,72,96000,120
67,54,96360,60
72,54,96360,60
75,64,96360,60
67,54,96480,120
72,54,96480,120
75,64,96480,120
67,60,96720,720
72,60,96720,720
75,71,96720,720
68,50,97440,240
70,50,97440,240
74,50,97440,240
82,60,97440,240
68,45,97800,60
70,45,97800,60
77,54,97800,60
68,45,97920,120
70,45,97920,120
77,54,97920,120
68,50,98160,120
70,50,98160,120
76,60,98160,120
68,54,98400,120
70,54,98400,120
77,63,98400,120
68,54,98640,120
70,54,98640,120
78,54,98640,120
82,63,98640,120
70,56,98880,720
79,56,98880,720
82,67,98880,720
67,50,99600,240
70,50,99600,240
79,60,99600,240
87,67,100320,240
91,67,100320,240
99,87,100320,240
82,60,100680,60
87,60,100680,60
94,72,100680,60
82,61,100800,120
87,61,100800,120
94,72,100800,120
82,69,101040,120
87,69,101040,120
94,82,101040,120
79,62,101400,60
87,62,101400,60
91,72,101400,60
79,62,101520,120
87,62,101520,120
91,73,101520,120
79,72,101760,120
87,72,101760,120
91,86,101760,120
75,66,102120,60
84,66,102120,60
87,78,102120,60
75,66,102240,120
84,66,102240,120
87,79,102240,120
75,74,102480,720
84,74,102480,720
87,87,102480,720
83,72,103200,240
86,72,103200,240
95,87,103200,240
74,64,103560,60
83,64,103560,60
86,78,103560,60
74,64,103680,120
83,64,103680,120
86,78,103680,120
73,68,103920,120
82,68,103920,120
85,82,103920,120
74,77,104160,120
83,77,104160,120
86,90,104160,120
79,77,104400,120
83,77,104400,120
91,90,104400,120
86,72,104640,240
95,87,104640,240
83,72,104640,240
78,64,105000,60
90,78,105000,60
86,64,105000,60
86,64,105120,120
78,64,105120,120
90,78,105120,120
78,72,105360,720
90,87,105360,720
86,72,105360,720
82,64,106080,240
85,64,106080,240
94,78,106080,240
73,57,106440,60
82,57,106440,60
85,70,106440,60
73,57,106560,120
82,57,106560,120
85,70,106560,120
72,64,106800,120
81,64,106800,120
84,78,106800,120
73,69,107040,120
82,69,107040,120
85,81,107040,120
78,69,107280,120
82,69,107280,120
90,81,107280,120
85,64,107520,240
94,78,107520,240
82,64,107520,240
77,57,107880,60
89,70,107880,60
85,57,107880,60
85,57,108000,120
77,57,108000,120
89,70,108000,120
77,64,108240,720
89,78,108240,720
85,64,108240,720
81,59,108960,240
84,59,108960,240
93,70,108960,240
72,51,109320,60
81,61,109320,60
84,61,109320,60
72,51,109440,120
81,61,109440,120
84,61,109440,120
76,61,109680,120
84,61,109680,120
88,72,109680,120
75,54,110040,60
83,54,110040,60
87,64,110040,60
76,54,110160,120
84,54,110160,120
88,64,110160,120
80,59,110400,240
83,59,110400,240
92,70,110400,240
71,51,110760,60
80,61,110760,60
83,61,110760,60
71,51,110880,120
80,61,110880,120
83,61,110880,120
75,61,111120,120
83,61,111120,120
87,72,111120,120
74,54,111480,60
83,54,111480,60
86,64,111480,60
75,54,111600,120
83,54,111600,120
87,64,111600,120
79,59,111840,240
82,59,111840,240
91,70,111840,240
70,50,112200,60
75,60,112200,60
79,60,112200,60
70,50,112320,120
75,60,112320,120
79,60,112320,120
78,59,112560,120
82,59,112560,120
90,71,112560,120
70,53,112920,60
75,53,112920,60
78,62,112920,60
70,52,113040,120
75,52,113040,120
78,62,113040,120
76,55,113280,240
80,55,113280,240
88,66,113280,240
68,47,113640,60
71,56,113640,60
76,56,113640,60
68,47,113760,120
71,56,113760,120
76,56,113760,120
75,56,114000,120
78,56,114000,120
87,67,114000,120
66,50,114360,60
69,50,114360,60
75,59,114360,60
66,49,114480,120
69,49,114480,120
75,58,114480,120
87,76,114660,60
73,70,114720,240
85,82,114720,240
66,47,115080,60
70,56,115080,60
73,56,115080,60
67,47,115200,120
70,56,115200,120
73,56,115200,120
67,56,115440,120
70,56,115440,120
73,67,115440,120
68,50,115800,60
71,50,115800,60
73,59,115800,60
65,49,115920,120
68,49,115920,120
73,58,115920,120
87,76,116100,60
73,70,116160,240
85,82,116160,240
66,47,116520,60
70,56,116520,60
73,56,116520,60
67,47,116640,120
70,56,116640,120
73,56,116640,120
67,56,116880,120
70,56,116880,120
73,67,116880,120
68,50,117240,60
71,50,117240,60
73,59,117240,60
65,49,117360,120
68,49,117360,120
73,58,117360,120
83,76,117540,60
70,70,117600,240
82,82,117600,240
63,47,117960,60
66,56,117960,60
70,56,117960,60
64,47,118080,120
67,56,118080,120
70,56,118080,120
64,56,118320,120
67,56,118320,120
70,67,118320,120
65,50,118680,60
68,50,118680,60
70,59,118680,60
62,49,118800,120
65,49,118800,120
70,58,118800,120
83,76,118980,60
70,66,119040,240
82,78,119040,240
63,42,119400,60
66,50,119400,60
70,50,119400,60
64,41,119520,120
67,48,119520,120
70,48,119520,120
64,46,119760,120
67,46,119760,120
70,55,119760,120
65,38,120120,60
68,38,120120,60
70,45,120120,60
62,36,120240,120
65,36,120240,120
70,43,120240,120
67,49,120480,1440
55,28,120600,120
58,28,120720,120
65,45,120840,360
55,26,120960,120
58,26,121080,120
63,45,121200,360
55,25,121320,120
58,26,121440,120
62,45,121560,360
55,26,121680,120
58,26,121800,120
67,53,121920,720
55,28,122040,120
58,28,122160,120
60,46,122280,360
55,25,122400,120
57,25,122520,120
67,49,122640,720
55,27,122760,120
58,27,122880,120
63,37,123000,120
55,25,123120,120
58,25,123240,120
67,49,123360,360
56,28,123480,120
59,28,123600,120
64,45,123720,360
56,27,123840,120
59,27,123960,120
65,52,124080,360
56,27,124200,120
59,27,124320,120
67,58,124440,360
56,29,124560,120
59,30,124680,120
68,61,124800,360
56,33,124920,120
62,33,125040,120
69,61,125160,360
56,32,125280,120
62,36,125400,120
72,65,125520,360
56,35,125640,120
62,33,125760,120
70,52,125880,360
56,27,126000,120
62,27,126120,120
67,49,126240,1440
55,28,126360,120
58,28,126480,120
65,45,126600,360
55,26,126720,120
58,26,126840,120
63,45,126960,360
55,25,127080,120
58,26,127200,120
62,45,127320,360
55,26,127440,120
58,26,127560,120
67,53,127680,720
55,28,127800,120
58,28,127920,120
60,44,128040,360
55,25,128160,120
57,25,128280,120
67,49,128400,720
55,27,128520,120
58,27,128640,120
63,37,128760,120
55,25,128880,120
58,25,129000,120
67,56,129120,360
57,28,129240,120
60,28,129360,120
66,56,129480,360
57,32,129600,120
60,32,129720,120
70,63,129840,360
60,30,129960,120
62,33,130080,120
69,62,130200,360
60,35,130320,120
62,35,130440,120
72,68,130560,360
58,39,130680,120
62,40,130800,120
70,67,130920,360
58,36,131040,120
62,40,131160,120
74,72,131280,360
62,41,131400,120
65,38,131520,120
72,60,131640,360
62,33,131760,120
70,33,131880,120
79,63,132000,1440
67,47,132120,120
70,47,132240,120
77,58,132360,360
67,44,132480,120
70,44,132600,120
75,57,132720,360
67,42,132840,120
70,44,132960,120
74,57,133080,360
67,44,133200,120
70,44,133320,120
79,67,133440,720
67,47,133560,120
70,47,133680,120
72,56,133800,360
67,42,133920,120
69,42,134040,120
79,63,134160,720
67,45,134280,120
70,45,134400,120
75,57,134520,120
67,42,134640,120
70,42,134760,120
67,47,134880,120
79,63,134880,360
68,47,135000,120
71,47,135120,120
64,45,135240,120
76,58,135240,360
68,45,135360,120
71,45,135480,120
65,45,135600,120
77,66,135600,360
68,45,135720,120
71,45,135840,120
67,48,135960,120
79,71,135960,360
71,48,136080,120
74,50,136200,120
68,54,136320,120
80,75,136320,360
74,54,136440,120
77,54,136560,120
69,54,136680,120
81,75,136680,360
74,54,136800,120
77,60,136920,120
72,57,137040,120
84,80,137040,360
74,57,137160,120
77,54,137280,120
70,45,137400,120
82,63,137400,360
74,45,137520,120
77,45,137640,120
79,63,137760,1440
67,47,137880,120
70,47,138000,120
77,58,138120,360
67,44,138240,120
70,44,138360,120
75,57,138480,360
67,42,138600,120
70,44,138720,120
74,57,138840,360
67,44,138960,120
70,44,139080,120
79,67,139200,720
67,47,139320,120
70,47,139440,120
72,56,139560,360
67,42,139680,120
69,42,139800,120
79,63,139920,720
67,45,140040,120
70,45,140160,120
75,57,140280,120
67,42,140400,120
70,42,140520,120
67,47,140640,120
79,72,140640,360
69,47,140760,120
72,47,140880,120
66,54,141000,120
78,71,141000,360
69,54,141120,120
72,54,141240,120
75,52,141360,120
87,82,141360,360
78,51,141480,120
81,54,141600,120
74,50,141720,120
86,81,141720,360
78,57,141840,120
81,58,141960,120
74,50,142080,120
86,83,142080,360
79,63,142200,120
83,62,142320,120
71,48,142440,120
83,70,142440,360
74,60,142560,120
79,61,142680,120
67,47,142800,120
79,66,142800,360
71,54,142920,120
74,54,143040,120
67,46,143160,120
79,66,143160,360
71,54,143280,120
74,50,143400,120
79,63,143520,1440
67,47,143640,120
71,47,143760,120
78,58,143880,360
67,44,144000,120
71,44,144120,120
76,57,144240,360
67,42,144360,120
71,44,144480,120
74,57,144600,360
67,44,144720,120
71,44,144840,120
79,67,144960,720
67,47,145080,120
71,47,145200,120
72,56,145320,360
67,42,145440,120
71,42,145560,120
79,63,145680,720
67,45,145800,120
71,45,145920,120
76,57,146040,120
67,42,146160,120
71,42,146280,120
67,47,146400,120
79,63,146400,360
69,47,146520,120
75,47,146640,120
65,45,146760,120
77,58,146760,360
69,45,146880,120
75,45,147000,120
66,45,147120,120
78,66,147120,360
69,45,147240,120
75,45,147360,120
67,48,147480,120
79,72,147480,360
69,48,147600,120
75,50,147720,120
68,54,147840,120
80,75,147840,360
75,54,147960,120
78,54,148080,120
69,54,148200,120
81,75,148200,360
75,54,148320,120
78,60,148440,120
72,57,148560,120
84,80,148560,360
75,57,148680,120
78,54,148800,120
71,45,148920,120
83,63,148920,360
75,45,149040,120
78,45,149160,120
79,63,149280,1440
67,47,149400,120
71,47,149520,120
78,58,149640,360
67,44,149760,120
71,44,149880,120
76,57,150000,360
67,42,150120,120
71,44,150240,120
74,57,150360,360
67,44,150480,120
71,44,150600,120
79,67,150720,720
67,47,150840,120
71,47,150960,120
72,56,151080,360
67,42,151200,120
71,42,151320,120
79,63,151440,720
67,45,151560,120
71,45,151680,120
76,57,151800,120
67,42,151920,120
71,42,152040,120
67,47,152160,120
79,72,152160,360
69,47,152280,120
72,47,152400,120
65,64,152520,120
77,64,152520,360
69,54,152640,120
72,54,152760,120
66,68,152880,120
78,68,152880,360
69,51,153000,120
72,54,153120,120
67,72,153240,120
79,72,153240,360
69,57,153360,120
72,58,153480,120
68,77,153600,120
80,77,153600,360
72,60,153720,120
78,60,153840,120
69,72,153960,120
81,72,153960,360
72,60,154080,120
78,57,154200,120
75,79,154320,120
87,79,154320,360
78,54,154440,120
81,54,154560,120
74,46,154680,120
86,66,154680,360
78,54,154800,120
81,50,154920,120
82,63,155040,1440
70,47,155160,120
74,47,155280,120
81,60,155400,360
70,50,155520,120
74,50,155640,120
79,62,155760,360
70,51,155880,120
74,54,156000,120
77,63,156120,360
70,53,156240,120
75,55,156360,120
84,72,156480,720
72,54,156600,120
75,56,156720,120
82,66,156840,360
72,52,156960,120
75,53,157080,120
81,50,157200,120
84,65,157200,720
72,48,157320,120
75,48,157440,120
78,63,157560,360
72,46,157680,120
75,46,157800,120
85,72,157920,1440
73,54,158040,120
77,54,158160,120
84,69,158280,360
73,57,158400,120
77,57,158520,120
82,71,158640,360
73,58,158760,120
77,62,158880,120
80,72,159000,360
73,60,159120,120
78,63,159240,120
87,82,159360,720
75,62,159480,120
78,64,159600,120
85,76,159720,360
75,59,159840,120
78,60,159960,120
84,57,160080,120
87,74,160080,720
75,55,160200,120
78,55,160320,120
81,72,160440,360
75,53,160560,120
80,53,160680,120
89,79,160800,1440
77,59,160920,120
80,59,161040,120
87,75,161160,360
77,63,161280,120
80,63,161400,120
85,77,161520,360
77,63,161640,120
80,67,161760,120
84,79,161880,360
77,65,162000,120
80,70,162120,120
89,90,162240,720
75,67,162360,120
80,71,162480,120
83,83,162600,360
75,64,162720,120
80,65,162840,120
89,81,162960,720
75,61,163080,120
80,61,163200,120
83,80,163320,360
75,57,163440,120
80,57,163560,120
89,90,163680,360
74,67,163800,120
82,71,163920,120
80,54,163920,120
89,84,164040,360
74,66,164160,120
82,67,164280,120
80,54,164280,120
90,85,164400,360
74,63,164520,120
82,64,164640,120
80,54,164640,120
90,85,164760,120
74,62,164880,120
82,62,165000,120
80,54,165000,120
79,75,165120,360
91,90,165120,120
82,59,165240,120
87,59,165360,120
77,67,165480,360
89,81,165480,120
79,54,165600,120
82,54,165720,120
75,66,165840,360
87,80,165840,120
79,53,165960,120
82,54,166080,120
74,67,166200,360
86,81,166200,120
79,54,166320,120
82,54,166440,120
72,66,166560,360
84,84,166560,120
75,59,166680,120
79,59,166800,120
69,66,166920,360
81,79,166920,120
75,53,167040,120
79,53,167160,120
70,70,167280,360
82,82,167280,120
75,56,167400,120
79,56,167520,120
79,73,167640,120
91,87,167640,360
82,53,167760,120
87,53,167880,120
79,73,168000,120
91,87,168000,360
83,59,168120,120
86,59,168240,120
76,69,168360,120
88,81,168360,360
83,55,168480,120
86,55,168600,120
77,75,168720,120
89,90,168720,360
83,55,168840,120
86,55,168960,120
79,80,169080,120
91,94,169080,360
83,61,169200,120
86,63,169320,120
80,81,169440,120
92,96,169440,360
86,69,169560,120
89,69,169680,120
81,82,169800,120
93,94,169800,360
86,67,169920,120
89,75,170040,120
84,89,170160,120
96,99,170160,360
86,72,170280,120
89,69,170400,120
82,76,170520,120
94,90,170520,360
86,56,170640,120
89,56,170760,120
79,75,170880,360
91,90,170880,120
82,59,171000,120
87,59,171120,120
77,67,171240,360
89,81,171240,120
79,54,171360,120
82,54,171480,120
75,66,171600,360
87,80,171600,120
79,53,171720,120
82,54,171840,120
74,67,171960,360
86,81,171960,120
79,54,172080,120
82,54,172200,120
72,66,172320,360
84,84,172320,120
75,59,172440,120
79,59,172560,120
69,66,172680,360
81,79,172680,120
75,53,172800,120
79,53,172920,120
70,70,173040,360
82,82,173040,120
75,56,173160,120
79,56,173280,120
79,73,173400,120
91,87,173400,120
82,53,173520,120
87,53,173640,120
79,73,173760,120
91,87,173760,360
81,59,173880,120
84,59,174000,120
78,69,174120,120
90,81,174120,360
81,63,174240,120
84,64,174360,120
87,89,174480,120
99,100,174480,360
90,67,174600,120
93,67,174720,120
86,82,174840,120
98,96,174840,360
90,67,174960,120
93,67,175080,120
86,81,175200,120
98,95,175200,360
91,69,175320,120
95,69,175440,120
83,79,175560,120
95,91,175560,360
86,67,175680,120
91,65,175800,120
79,70,175920,120
91,83,175920,360
83,63,176040,120
86,63,176160,120
79,64,176280,120
91,90,176280,360
83,58,176400,120
86,59,176520,120
80,74,176640,120
92,88,176640,360
84,63,176760,120
87,63,176880,120
79,72,177000,120
91,85,177000,360
84,62,177120,120
87,60,177240,120
77,67,177360,120
89,80,177360,360
79,60,177480,120
84,58,177600,120
75,59,177720,120
87,82,177720,360
79,52,177840,120
84,52,177960,120
75,66,178080,120
87,79,178080,360
80,56,178200,120
84,56,178320,120
74,64,178440,120
86,76,178440,360
80,55,178560,120
84,54,178680,120
74,60,178800,120
86,72,178800,360
80,54,178920,120
84,52,179040,120
74,53,179160,120
86,73,179160,360
80,46,179280,120
84,46,179400,120
75,59,179520,120
87,71,179520,360
79,50,179640,120
83,50,179760,120
74,57,179880,120
86,68,179880,360
79,49,180000,120
83,48,180120,120
72,54,180240,120
84,64,180240,360
74,48,180360,120
79,46,180480,120
71,47,180600,120
83,65,180600,360
74,41,180720,120
79,41,180840,120
68,55,180960,120
80,67,180960,360
71,47,181080,120
74,47,181200,120
67,54,181320,120
79,64,181320,360
71,46,181440,120
74,45,181560,120
67,51,181680,120
79,61,181680,360
71,45,181800,120
74,44,181920,120
67,45,182040,120
79,62,182040,360
71,38,182160,120
74,38,182280,120
70,52,182400,120
82,63,182400,360
72,45,182520,120
75,45,182640,120
68,51,182760,120
80,61,182760,360
72,44,182880,120
75,43,183000,120
67,48,183120,120
79,57,183120,360
72,43,183240,120
75,41,183360,120
65,42,183480,120
77,58,183480,360
67,36,183600,120
72,36,183720,120
63,49,183840,120
75,60,183840,360
68,42,183960,120
72,42,184080,120
62,48,184200,120
74,57,184200,360
68,41,184320,120
72,40,184440,120
62,45,184560,120
74,54,184560,360
68,40,184680,120
72,38,184800,120
62,39,184920,120
74,54,184920,360
68,34,185040,120
72,34,185160,120
63,49,185280,120
75,60,185280,360
67,42,185400,120
71,42,185520,120
62,48,185640,120
74,57,185640,360
67,41,185760,120
71,40,185880,120
60,45,186000,120
72,54,186000,360
63,40,186120,120
67,38,186240,120
59,39,186360,120
71,54,186360,360
62,34,186480,120
67,34,186600,120
58,44,186720,120
70,54,186720,360
61,37,186840,120
65,37,186960,120
56,43,187080,120
68,51,187080,360
61,36,187200,120
65,36,187320,120
55,40,187440,120
67,48,187440,360
56,36,187560,120
61,34,187680,120
53,35,187800,120
65,48,187800,360
56,30,187920,120
61,30,188040,120
63,35,188160,120
75,42,188160,360
67,29,188280,120
71,29,188400,120
62,34,188520,120
74,40,188520,360
67,29,188640,120
71,28,188760,120
60,32,188880,120
72,38,188880,360
63,28,189000,120
67,27,189120,120
59,27,189240,120
71,38,189240,360
62,24,189360,120
67,24,189480,120
58,30,189600,120
70,38,189600,360
61,26,189720,120
65,26,189840,120
56,30,189960,120
68,36,189960,360
61,25,190080,120
65,25,190200,120
55,28,190320,120
67,34,190320,360
56,25,190440,120
61,24,190560,120
53,25,190680,120
65,34,190680,360
56,20,190800,120
61,20,190920,120
59,40,191040,120
62,47,191040,120
50,34,191400,120
48,35,191640,120
47,36,191880,120
44,36,192120,120
43,37,192360,120
56,38,192600,120
55,39,192840,120
53,40,193080,120
51,40,193320,120
49,42,193560,120
56,42,193680,120
61,42,193680,120
65,50,193680,120
59,43,193920,120
55,43,193920,120
67,51,193920,120
50,34,194280,120
48,35,194520,120
47,36,194760,120
44,36,195000,120
43,37,195240,120
56,38,195480,120
55,39,195720,120
53,40,195960,120
51,40,196200,120
49,42,196440,120
56,42,196560,120
61,42,196560,120
65,50,196560,120
60,43,196800,120
56,43,196800,120
68,51,196800,120
51,34,197160,120
49,35,197400,120
48,36,197640,120
46,36,197880,120
44,37,198120,118
56,38,198360,120
54,39,198600,120
52,40,198840,120
51,40,199080,120
49,42,199320,120
56,42,199440,120
61,42,199440,120
64,50,199440,120
61,43,199680,120
57,43,199680,120
69,51,199680,120
52,34,200040,120
50,35,200280,120
49,36,200520,120
46,36,200760,120
45,37,201000,118
57,38,201240,120
55,39,201480,120
53,40,201720,120
52,40,201960,120
50,42,202200,120
57,42,202320,120
62,42,202320,120
65,50,202320,120
62,43,202560,120
58,43,202560,120
70,51,202560,120
53,34,202920,120
51,35,203160,120
50,36,203400,120
47,36,203640,120
46,37,203880,120
63,43,204000,120
58,43,204000,120
70,52,204000,120
54,35,204360,120
53,36,204600,120
51,36,204840,120
47,37,205080,120
46,38,205320,120
65,45,205440,120
62,45,205440,120
74,53,205440,120
56,35,205800,120
53,36,206040,120
50,37,206280,120
49,38,206520,120
47,39,206760,120
69,45,206880,120
66,45,206880,120
78,54,206880,120
57,36,207240,120
56,37,207480,120
54,38,207720,120
51,39,207960,120
48,40,208200,120
73,37,208320,240
78,37,208320,240
81,53,208320,240
69,33,208680,60
78,43,208680,60
73,33,208680,60
69,33,208800,120
73,33,208800,120
78,43,208800,120
66,37,209040,120
69,37,209040,120
73,49,209040,120
61,34,209400,60
69,44,209400,60
66,34,209400,60
61,34,209520,120
69,44,209520,120
66,34,209520,120
50,38,209880,120
57,43,210120,120
55,45,210360,120
54,42,210600,120
52,39,210840,120
50,36,211080,120
74,37,211200,240
79,37,211200,240
82,53,211200,240
70,33,211560,60
79,43,211560,60
74,33,211560,60
70,33,211680,120
74,33,211680,120
79,43,211680,120
67,37,211920,120
70,37,211920,120
74,49,211920,120
62,34,212280,60
70,44,212280,60
67,34,212280,60
62,34,212400,120
70,44,212400,120
67,34,212400,120
51,38,212760,120
58,43,213000,120
56,45,213240,120
55,42,213480,120
53,39,213720,120
51,36,213960,120
75,41,214080,240
80,41,214080,240
83,57,214080,240
71,36,214440,60
80,46,214440,60
75,36,214440,60
71,36,214560,120
75,36,214560,120
80,46,214560,120
68,41,214800,120
71,41,214800,120
75,54,214800,120
63,36,215160,60
71,47,215160,60
68,36,215160,60
63,36,215280,120
71,47,215280,120
68,36,215280,120
76,45,215520,240
80,45,215520,240
88,63,215520,240
71,39,215880,60
83,52,215880,60
76,39,215880,60
71,39,216000,120
76,39,216000,120
83,52,216000,120
68,45,216240,120
71,45,216240,120
80,60,216240,120
64,40,216600,60
76,53,216600,60
68,40,216600,60
64,41,216720,120
76,53,216720,120
68,41,216720,120
76,47,216960,240
81,47,216960,240
88,67,216960,240
72,42,217320,60
84,54,217320,60
76,42,217320,60
72,42,217440,120
76,42,217440,120
84,54,217440,120
69,48,217680,120
72,48,217680,120
81,63,217680,120
64,43,218040,60
76,55,218040,60
69,43,218040,60
64,43,218160,120
76,55,218160,120
69,43,218160,120
77,51,218400,240
81,51,218400,240
89,72,218400,240
72,45,218760,60
84,58,218760,60
77,45,218760,60
72,45,218880,120
77,45,218880,120
84,58,218880,120
69,51,219120,120
72,51,219120,120
81,67,219120,120
65,45,219480,60
77,59,219480,60
69,45,219480,60
65,45,219600,120
77,59,219600,120
69,45,219600,120
77,52,219840,240
80,52,219840,240
89,72,219840,240
73,45,220200,60
85,59,220200,60
73,45,220320,120
85,59,220320,120
82,52,220560,120
77,52,220560,120
85,52,220560,120
89,69,220560,120
85,60,220920,60
73,46,220920,60
85,61,221040,120
73,46,221040,120
85,53,221280,240
78,53,221280,240
82,53,221280,240
90,74,221280,240
73,45,221640,60
85,59,221640,60
73,45,221760,120
85,59,221760,120
82,53,222000,120
78,53,222000,120
87,53,222000,120
90,70,222000,120
87,61,222360,60
75,47,222360,60
87,61,222480,120
75,47,222480,120
78,47,222720,120
87,56,222720,120
90,50,222840,120
78,47,222960,120
87,56,222960,120
90,50,223080,120
78,48,223200,120
87,57,223200,120
90,51,223320,120
78,48,223440,120
87,57,223440,120
90,51,223560,120
78,49,223680,120
87,58,223680,120
90,53,223800,120
78,49,223920,120
87,59,223920,120
90,53,224040,120
80,50,224160,120
87,59,224160,120
92,53,224280,120
80,50,224400,120
87,60,224400,120
92,53,224520,120
80,51,224640,120
87,61,224640,120
92,52,224760,120
80,51,224880,120
87,61,224880,120
92,53,225000,120
80,52,225120,120
87,62,225120,120
92,54,225240,120
80,52,225360,120
87,62,225360,120
92,54,225480,120
83,53,225600,120
87,63,225600,120
95,56,225720,120
83,53,225840,120
87,63,225840,120
95,56,225960,120
83,54,226080,120
87,63,226080,120
95,57,226200,120
83,54,226320,120
87,64,226320,120
95,57,226440,120
83,54,226560,120
87,65,226560,120
95,59,226680,120
83,55,226800,120
87,65,226800,120
95,60,226920,120
83,55,227040,120
86,66,227040,120
95,59,227160,120
83,56,227280,120
86,66,227280,120
95,60,227400,120
83,56,227520,120
86,67,227520,120
95,58,227640,120
83,57,227760,120
86,68,227760,120
95,60,227880,120
83,57,228000,120
86,68,228000,120
95,60,228120,120
83,58,228240,120
86,69,228240,120
95,61,228360,120
84,59,228480,120
87,70,228480,120
96,63,228600,120
84,59,228720,120
87,71,228720,120
96,63,228840,120
84,60,228960,120
87,72,228960,120
96,61,229080,120
85,60,229200,120
88,72,229200,120
97,63,229320,120
85,62,229440,120
88,73,229440,120
97,63,229560,120
85,63,229680,120
88,74,229680,120
97,65,229800,120
86,63,229920,120
89,75,229920,120
98,67,230040,120
86,63,230160,120
89,77,230160,120
98,67,230280,120
86,64,230400,120
89,77,230400,120
98,66,230520,120
86,66,230640,120
89,79,230640,120
98,68,230760,120
86,67,230880,120
89,81,230880,120
98,70,231000,120
86,68,231120,120
89,81,231120,120
98,71,231240,120
86,69,231360,120
89,82,231360,120
98,73,231480,120
86,70,231600,120
89,82,231600,120
98,74,231720,120
86,70,231840,120
89,83,231840,120
98,72,231960,120
86,72,232080,120
89,85,232080,120
98,74,232200,120
86,72,232320,120
89,85,232320,120
98,76,232440,120
86,73,232560,120
89,87,232560,120
98,76,232680,120
86,73,232800,120
89,89,232800,120
98,79,232920,120
86,75,233040,120
89,89,233040,120
98,80,233160,120
86,76,233280,120
89,90,233280,120
98,78,233400,120
87,77,233520,120
90,90,233520,120
99,81,233640,120
87,78,233760,120
90,92,233760,120
99,81,233880,120
87,79,234000,120
90,94,234000,120
99,82,234120,120
96,75,234240,240
88,75,234240,240
91,75,234240,240
100,106,234240,240
84,66,234600,60
88,66,234600,60
91,66,234600,60
96,86,234600,60
88,66,234720,120
84,66,234720,120
91,66,234720,120
96,86,234720,120
96,99,234960,120
88,75,234960,120
84,75,234960,120
91,75,234960,120
79,68,235320,60
84,68,235320,60
88,68,235320,60
91,88,235320,60
79,68,235440,120
84,68,235440,120
88,68,235440,120
91,88,235440,120
84,79,235680,120
81,79,235680,120
76,79,235680,120
88,102,235680,120
72,72,236040,60
76,72,236040,60
81,72,236040,60
84,91,236040,60
72,72,236160,120
76,72,236160,120
81,72,236160,120
84,91,236160,120
72,79,236400,720
76,79,236400,720
81,79,236400,720
84,102,236400,720
77,75,237120,240
79,75,237120,240
83,75,237120,240
91,99,237120,240
74,68,237480,60
79,68,237480,60
86,88,237480,60
74,68,237600,120
79,68,237600,120
86,88,237600,120
79,75,237840,120
73,75,237840,120
85,99,237840,120
79,79,238080,120
74,79,238080,120
86,102,238080,120
75,79,238320,120
79,79,238320,120
87,102,238320,120
76,84,238560,720
79,84,238560,720
88,109,238560,720
72,75,239280,240
79,75,239280,240
84,99,239280,240
96,75,240000,240
88,75,240000,240
91,75,240000,240
100,106,240000,240
84,66,240360,60
88,66,240360,60
91,66,240360,60
96,86,240360,60
88,66,240480,120
84,66,240480,120
91,66,240480,120
96,86,240480,120
96,99,240720,120
88,75,240720,120
84,75,240720,120
91,75,240720,120
79,68,241080,60
84,68,241080,60
88,68,241080,60
91,88,241080,60
79,68,241200,120
84,68,241200,120
88,68,241200,120
91,88,241200,120
84,79,241440,120
81,79,241440,120
76,79,241440,120
88,102,241440,120
72,72,241800,60
76,72,241800,60
81,72,241800,60
84,91,241800,60
72,72,241920,120
76,72,241920,120
81,72,241920,120
84,91,241920,120
72,79,242160,720
76,79,242160,720
81,79,242160,720
84,102,242160,720
75,75,242880,240
78,75,242880,240
87,99,242880,240
71,68,243240,60
75,68,243240,60
78,88,243240,60
71,68,243360,120
75,68,243360,120
78,88,243360,120
75,67,243600,120
71,67,243600,120
77,89,243600,120
75,71,243840,120
71,71,243840,120
78,91,243840,120
71,71,244080,120
75,71,244080,120
83,91,244080,120
75,84,244320,720
78,84,244320,720
87,109,244320,720
77,75,245040,240
74,75,245040,240
79,75,245040,240
86,99,245040,240
88,72,245760,120
84,72,245760,120
79,61,245760,120
76,61,245760,120
84,72,246000,180
79,61,246000,180
76,61,246000,180
72,61,246000,180
79,63,246180,54
76,53,246180,54
72,53,246180,54
67,53,246180,54
67,61,246240,60
72,61,246240,60
76,61,246240,60
79,72,246240,60
64,61,246480,180
67,61,246480,180
72,61,246480,180
76,72,246480,180
60,54,246660,54
64,54,246660,54
69,54,246660,54
72,63,246660,54
72,72,246720,60
69,72,246720,60
64,61,246720,60
60,61,246720,60
69,72,246960,180
64,61,246960,180
60,61,246960,180
57,61,246960,180
64,63,247140,54
60,53,247140,54
57,53,247140,54
52,53,247140,54
52,61,247200,60
57,61,247200,60
60,61,247200,60
64,72,247200,60
48,61,247440,180
52,61,247440,180
57,61,247440,180
60,72,247440,180
52,54,247620,60
64,63,247620,60
53,60,247680,240
59,60,247680,240
67,79,247680,240
53,54,248040,60
59,54,248040,60
62,70,248040,60
53,54,248160,120
59,54,248160,120
62,70,248160,120
58,60,248400,120
53,60,248400,120
61,79,248400,120
59,63,248640,120
53,63,248640,120
62,81,248640,120
53,63,248880,120
59,63,248880,120
63,81,248880,120
64,83,249120,102
60,83,249120,102
55,70,249222,102
52,71,249324,102
55,72,249426,102
60,73,249528,102
64,74,249630,102
67,75,249732,108
72,76,249840,102
76,78,249942,102
79,79,250044,102
84,80,250146,102
88,81,250248,102
91,82,250350,102
96,83,250452,108
100,79,250560,240
96,79,250560,240
91,66,250560,240
88,66,250560,240
96,79,250800,180
91,66,250800,180
88,66,250800,180
84,66,250800,180
91,69,250980,54
88,57,250980,54
84,57,250980,54
79,57,250980,54
79,66,251040,120
84,66,251040,120
88,66,251040,120
91,79,251040,120
76,66,251280,180
79,66,251280,180
84,66,251280,180
88,79,251280,180
72,59,251460,54
76,59,251460,54
81,59,251460,54
84,70,251460,54
84,79,251520,120
81,79,251520,120
76,66,251520,120
72,66,251520,120
81,79,251760,180
76,66,251760,180
72,66,251760,180
69,66,251760,180
76,69,251940,54
72,57,251940,54
69,57,251940,54
64,57,251940,54
64,66,252000,120
69,66,252000,120
72,66,252000,120
76,79,252000,120
60,66,252240,120
64,66,252240,120
69,66,252240,120
72,79,252240,120
80,72,252480,120
83,73,252480,120
92,90,252480,120
71,54,252840,60
83,70,252840,60
71,54,252960,120
83,70,252960,120
70,60,253200,120
82,79,253200,120
71,63,253440,120
83,81,253440,120
76,68,253680,120
88,88,253680,120
80,72,253920,120
84,73,253920,120
92,90,253920,120
75,54,254280,60
87,70,254280,60
75,54,254400,120
87,70,254400,120
74,60,254640,120
86,79,254640,120
75,63,254880,120
87,81,254880,120
75,68,255120,120
87,88,255120,120
79,72,255360,120
82,73,255360,120
91,90,255360,120
70,54,255720,60
82,70,255720,60
70,54,255840,120
82,70,255840,120
69,60,256080,120
81,79,256080,120
70,63,256320,120
82,81,256320,120
75,68,256560,120
87,88,256560,120
79,72,256800,120
82,73,256800,120
91,90,256800,120
74,54,257160,60
86,70,257160,60
74,54,257280,120
86,70,257280,120
73,60,257520,120
85,79,257520,120
74,63,257760,120
86,81,257760,120
74,68,258000,120
86,88,258000,120
78,72,258240,120
81,73,258240,120
90,90,258240,120
78,54,258480,120
69,54,258480,120
81,70,258480,120
78,54,258720,120
71,54,258720,120
83,70,258720,120
81,65,258960,120
73,65,258960,120
85,86,258960,120
80,63,259200,120
72,63,259200,120
84,81,259200,120
81,68,259440,120
73,68,259440,120
85,88,259440,120
77,72,259680,120
80,73,259680,120
89,90,259680,120
77,54,259920,120
68,54,259920,120
80,70,259920,120
77,54,260160,120
70,54,260160,120
82,70,260160,120
80,65,260400,120
72,65,260400,120
84,86,260400,120
79,63,260640,120
71,63,260640,120
83,81,260640,120
80,68,260880,120
72,68,260880,120
84,88,260880,120
88,71,261120,240
79,59,261120,240
76,59,261120,234
67,51,261300,54
72,51,261300,54
76,62,261300,54
76,71,261360,240
72,59,261360,240
67,59,261360,240
87,71,261600,240
79,59,261600,240
75,59,261600,234
67,51,261780,54
72,51,261780,54
75,62,261780,54
75,71,261840,240
72,59,261840,240
67,59,261840,240
85,71,262080,240
77,59,262080,240
73,59,262080,234
65,51,262260,54
68,51,262260,54
73,62,262260,54
73,71,262320,240
68,59,262320,240
65,59,262320,240
84,71,262560,240
75,59,262560,240
72,59,262560,234
63,51,262740,54
66,51,262740,54
72,62,262740,54
72,71,262800,240
66,59,262800,240
63,59,262800,240
70,54,263040,120
82,65,263040,120
58,45,263280,120
70,53,263280,120
82,56,263520,120
70,47,263520,120
94,69,263760,120
82,57,263760,120
70,46,264000,120
82,55,264000,120
58,46,264240,120
70,55,264240,120
70,54,264480,120
82,65,264480,120
58,45,264720,120
70,53,264720,120
82,56,264960,120
70,47,264960,120
94,69,265200,120
82,57,265200,120
70,46,265440,120
82,55,265440,120
58,46,265680,120
70,55,265680,120
73,60,265920,120
85,72,265920,120
61,49,266160,120
73,57,266160,120
85,62,266400,120
73,52,266400,120
97,75,266640,120
85,63,266640,120
73,51,266880,120
85,61,266880,120
61,51,267120,120
73,61,267120,120
73,60,267360,120
85,72,267360,120
61,49,267600,120
73,57,267600,120
85,62,267840,120
73,52,267840,120
97,75,268080,120
85,63,268080,120
73,51,268320,120
85,61,268320,120
61,51,268560,120
73,61,268560,120
76,60,268800,120
88,72,268800,120
64,49,269040,120
76,57,269040,120
88,62,269280,120
76,52,269280,120
100,77,269520,120
88,63,269520,120
76,52,269760,120
88,63,269760,120
64,53,270000,120
76,63,270000,120
79,63,270240,120
91,74,270240,120
67,51,270480,120
79,60,270480,120
91,65,270720,120
79,54,270720,120
103,81,270960,120
91,66,270960,120
79,54,271200,120
91,65,271200,120
67,54,271440,120
79,65,271440,120
82,65,271680,120
94,78,271680,120
70,54,271920,120
82,63,271920,120
94,68,272160,120
82,57,272160,120
106,83,272400,120
94,70,272400,120
82,56,272640,120
94,68,272640,120
70,57,272880,120
82,68,272880,120
83,68,273120,120
95,81,273120,120
71,55,273360,120
83,65,273360,120
95,71,273600,120
83,59,273600,120
107,87,273840,120
95,72,273840,120
83,59,274080,120
95,71,274080,120
71,60,274320,120
83,71,274320,120
76,52,274560,360
88,69,274560,360
79,41,274680,120
84,41,274800,120
74,46,274920,360
86,62,274920,360
76,37,275040,120
79,37,275160,120
72,45,275280,360
84,61,275280,360
76,36,275400,120
79,37,275520,120
71,46,275640,360
83,62,275640,360
76,37,275760,120
79,37,275880,120
69,45,276000,360
81,63,276000,360
72,41,276120,120
76,41,276240,120
66,45,276360,360
78,60,276360,360
72,36,276480,120
76,36,276600,120
67,48,276720,360
79,63,276720,360
72,39,276840,120
76,39,276960,120
76,51,277080,360
88,65,277080,360
79,36,277200,120
84,36,277320,120
76,52,277440,360
88,69,277440,360
78,41,277560,120
81,41,277680,120
73,61,277800,360
85,66,277800,360
78,37,277920,120
81,37,278040,120
74,50,278160,360
86,65,278160,360
78,36,278280,120
81,37,278400,120
76,54,278520,360
88,70,278520,360
78,37,278640,120
81,37,278760,120
77,56,278880,360
89,73,278880,360
83,44,279000,120
86,45,279120,120
78,53,279240,360
90,69,279240,360
83,45,279360,120
86,45,279480,120
81,58,279600,360
93,75,279600,360
83,48,279720,120
86,49,279840,120
79,54,279960,360
91,70,279960,360
83,47,280080,120
86,46,280200,120
76,52,280320,120
88,69,280320,120
79,41,280440,120
84,41,280560,120
74,46,280680,120
86,62,280680,120
76,37,280800,120
79,37,280920,120
72,45,281040,120
84,61,281040,120
76,36,281160,120
79,37,281280,120
71,46,281400,120
83,62,281400,120
76,37,281520,120
79,37,281640,120
69,45,281760,120
81,63,281760,120
72,41,281880,120
76,41,282000,120
66,45,282120,120
78,60,282120,120
72,36,282240,120
76,36,282360,120
67,48,282480,120
79,63,282480,120
72,39,282600,120
76,39,282720,120
76,51,282840,120
88,65,282840,120
79,36,282960,120
84,36,283080,120
76,45,283200,120
88,65,283200,120
78,43,283320,120
81,43,283440,120
75,53,283560,120
87,63,283560,120
78,48,283680,120
81,49,283800,120
79,59,283920,120
91,70,283920,120
81,49,284040,120
87,51,284160,120
78,64,284280,120
90,76,284280,120
81,52,284400,120
87,54,284520,120
81,69,284640,120
93,81,284640,120
83,58,284760,120
88,59,284880,120
79,69,285000,120
91,82,285000,120
83,60,285120,120
88,63,285240,120
83,80,285360,120
95,94,285360,120
86,63,285480,120
89,64,285600,120
81,73,285720,120
93,87,285720,120
86,49,285840,120
89,59,285840,120
79,59,285960,120
91,59,285960,120
91,79,286080,360
88,79,286080,360
100,94,286080,360
91,70,286440,360
88,70,286440,360
86,70,286440,360
98,84,286440,360
91,69,286800,360
88,69,286800,360
84,69,286800,360
96,83,286800,360
91,70,287160,360
88,70,287160,360
83,70,287160,360
95,84,287160,360
88,69,287520,360
84,69,287520,360
81,69,287520,360
93,88,287520,360
88,69,287880,360
84,69,287880,360
78,69,287880,360
90,82,287880,360
88,72,288240,360
84,72,288240,360
79,72,288240,360
91,86,288240,360
96,77,288600,360
91,77,288600,360
88,77,288600,360
100,90,288600,360
93,77,288960,360
90,77,288960,360
88,77,288960,360
100,90,288960,360
93,72,289320,360
90,72,289320,360
85,72,289320,360
97,85,289320,360
93,79,289680,360
90,79,289680,360
86,79,289680,360
98,94,289680,360
93,83,290040,360
90,83,290040,360
88,83,290040,360
100,99,290040,360
95,85,290400,360
92,85,290400,360
89,85,290400,360
101,99,290400,360
92,86,290760,360
89,86,290760,360
86,86,290760,360
98,98,290760,360
86,79,291120,360
83,79,291120,360
80,79,291120,360
92,91,291120,360
86,67,291480,360
83,67,291480,360
79,67,291480,360
91,80,291480,360
79,59,291840,360
76,59,291840,360
88,70,291840,360
79,52,292200,360
76,52,292200,360
74,52,292200,360
86,63,292200,360
79,51,292560,360
76,51,292560,360
72,51,292560,360
84,62,292560,360
79,52,292920,360
76,52,292920,360
71,52,292920,360
83,63,292920,360
76,51,293280,360
72,51,293280,360
69,51,293280,360
81,65,293280,360
76,51,293640,360
72,51,293640,360
66,51,293640,360
78,62,293640,360
76,54,294000,360
72,54,294000,360
67,54,294000,360
79,64,294000,360
84,57,294360,180
79,57,294360,180
76,57,294360,180
88,67,294360,180
80,64,294720,360
77,64,294720,360
89,77,294720,360
80,57,295080,360
75,57,295080,360
87,68,295080,360
80,56,295440,360
73,56,295440,360
85,67,295440,360
80,57,295800,360
72,57,295800,360
84,68,295800,360
77,56,296160,360
73,56,296160,360
70,56,296160,360
82,72,296160,360
77,56,296520,360
73,56,296520,360
67,56,296520,360
79,67,296520,360
77,59,296880,360
73,59,296880,360
68,59,296880,360
80,70,296880,360
85,63,297240,180
80,63,297240,180
77,63,297240,180
89,73,297240,180
81,68,297600,360
78,68,297600,360
90,81,297600,360
81,64,297960,360
76,64,297960,360
88,77,297960,360
78,63,298320,360
81,63,298320,360
74,63,298320,360
86,75,298320,360
74,62,298680,360
78,62,298680,360
69,62,298680,360
81,72,298680,360
82,73,299040,360
79,73,299040,360
91,87,299040,360
82,68,299400,360
77,68,299400,360
89,81,299400,360
82,66,299760,360
76,66,299760,360
88,79,299760,360
76,64,300120,360
70,64,300120,360
82,77,300120,360
86,78,300480,360
83,78,300480,360
80,78,300480,360
92,91,300480,360
86,72,300840,360
83,72,300840,360
79,72,300840,360
91,86,300840,360
80,69,301200,360
83,69,301200,360
77,69,301200,360
89,82,301200,360
77,67,301560,360
80,67,301560,360
74,67,301560,360
86,80,301560,360
77,67,301920,360
74,67,301920,360
71,67,301920,360
83,80,301920,360
74,63,302280,360
71,63,302280,360
68,63,302280,360
80,75,302280,360
71,63,302640,360
74,63,302640,360
67,63,302640,360
79,75,302640,360
68,64,303000,360
71,64,303000,360
65,64,303000,360
77,77,303000,360
68,68,303360,360
65,68,303360,360
62,68,303360,360
74,81,303360,360
65,63,303720,360
62,63,303720,360
59,63,303720,360
71,75,303720,360
59,65,304080,360
62,65,304080,360
56,65,304080,360
68,78,304080,360
59,68,304440,360
62,68,304440,360
55,68,304440,360
67,81,304440,360
62,73,304800,360
59,73,304800,360
53,73,304800,360
65,88,304800,360
62,73,305160,360
59,73,305160,360
56,73,305160,360
68,88,305160,360
59,76,305520,360
62,76,305520,360
55,76,305520,360
67,91,305520,360
56,79,305880,360
62,79,305880,360
53,79,305880,360
65,94,305880,360
48,70,306240,720
60,82,306240,120
55,71,306360,120
52,60,306364,120
60,72,306480,90
60,73,306600,120
67,75,306720,120
64,63,306720,120
72,77,306840,90
72,78,306960,120
79,80,307080,120
76,67,307080,120
84,81,307200,90
84,82,307320,80
88,88,307400,160
91,91,307420,140
96,95,307440,120
49,70,307680,720
61,82,307680,120
53,71,307800,120
58,67,307920,90
61,72,307920,90
61,73,308040,120
65,75,308160,120
70,71,308280,90
73,77,308280,90
73,78,308400,120
77,80,308520,120
82,77,308640,90
85,81,308640,90
85,82,308760,80
89,88,308840,160
94,91,308860,140
97,95,308880,120
48,70,309120,720
60,82,309120,120
55,71,309230,120
52,60,309233,120
60,72,309360,90
60,73,309480,120
67,75,309600,120
64,63,309600,120
72,77,309720,90
72,78,309840,120
79,80,309960,120
76,67,309960,120
84,81,310080,90
84,82,310200,80
88,88,310280,160
91,91,310300,140
96,95,310320,120
53,70,310560,720
65,82,310560,120
56,64,310680,120
59,71,310680,120
65,72,310800,90
65,73,310920,120
68,66,311040,120
71,75,311040,120
77,77,311160,90
77,78,311280,120
80,71,311400,120
83,80,311400,120
89,81,311520,90
89,82,311640,80
92,88,311720,160
95,91,311740,140
101,95,311760,120
52,70,312000,120
64,82,312000,120
55,71,312110,120
60,72,312240,120
64,73,312360,120
76,77,312480,120
72,75,312480,120
67,63,312480,120
73,85,312720,120
61,72,312720,120
65,74,312840,120
70,64,312960,90
73,76,312960,90
73,78,313080,120
77,67,313200,120
82,67,313200,120
85,80,313200,120
60,70,313440,120
72,82,313440,120
67,71,313560,120
64,63,313560,120
72,72,313680,90
72,73,313800,120
84,77,313920,120
79,75,313920,120
76,63,313920,120
89,85,314160,120
77,72,314160,120
80,69,314280,120
83,74,314280,120
89,78,314400,90
89,81,314520,120
92,72,314640,120
95,72,314640,120
101,85,314640,120
100,75,314880,120
96,63,314880,120
91,63,314880,120
94,54,315120,120
97,65,315120,120
89,54,315120,120
96,73,315360,120
91,62,315360,120
88,62,315360,120
94,65,315600,120
89,54,315600,120
85,54,315600,120
91,75,315840,120
88,63,315840,120
84,63,315840,120
80,53,316080,120
83,53,316080,120
86,53,316080,120
89,63,316080,120
88,69,316320,120
84,58,316320,120
79,58,316320,120
82,50,316560,120
85,60,316560,120
77,50,316560,120
84,67,316800,120
79,56,316800,120
76,56,316800,120
82,60,317040,120
77,50,317040,120
73,50,317040,120
79,69,317280,120
76,58,317280,120
72,58,317280,120
68,48,317520,120
71,48,317520,120
74,48,317520,120
77,57,317520,120
76,69,317760,120
72,58,317760,120
67,58,317760,120
70,52,318000,120
73,61,318000,120
65,52,318000,120
72,71,318240,120
67,59,318240,120
64,59,318240,120
70,64,318480,120
65,54,318480,120
61,54,318480,120
67,76,318720,120
64,64,318720,120
60,64,318720,120
56,54,318960,120
59,54,318960,120
62,54,318960,120
65,64,318960,120
64,81,319200,120
60,68,319200,120
55,68,319200,120
58,60,319440,120
61,71,319440,120
53,60,319440,120
60,82,319680,120
55,70,319680,120
52,70,319680,120
58,74,319920,120
53,63,319920,120
49,63,319920,120
55,88,320160,120
52,74,320160,120
44,74,320400,120
47,74,320400,120
53,90,320400,120
44,74,321120,120
47,74,321120,120
50,90,321120,120
44,74,321840,120
47,90,321840,120
44,81,322080,120
47,81,322080,120
56,99,322080,120
44,74,322320,120
47,74,322320,120
53,90,322320,120
44,79,323040,90
43,81,323160,90
42,83,323280,90
41,86,323400,90
40,74,323520,1440
43,74,323520,1440
48,89,323520,1440
24,55,0,240
36,65,0,240
48,66,120,120
31,57,240,240
43,68,240,240
55,71,360,120
29,61,480,240
41,72,480,240
53,73,600,120
27,64,720,240
39,76,720,240
51,78,840,120
26,68,960,240
38,81,960,240
50,82,1080,120
24,84,1200,240
36,102,1200,240
48,76,1320,120
60,91,1440,120
55,77,1440,120
51,77,1440,120
48,77,1440,120
60,72,1800,120
55,60,1800,120
51,60,1800,120
48,60,1800,120
60,80,1920,120
55,67,1920,120
51,67,1920,120
48,67,1920,120
48,54,2520,120
51,54,2520,120
60,64,2520,120
55,54,2520,120
60,73,2640,120
55,63,2640,120
51,63,2640,120
48,63,2640,120
48,53,3240,120
51,53,3240,120
55,53,3240,120
60,63,3240,120
60,72,3360,120
55,60,3360,120
51,60,3360,120
48,60,3360,120
48,53,3600,120
51,53,3600,120
55,53,3600,120
59,63,3600,120
60,72,3840,120
55,60,3840,120
51,60,3840,120
48,60,3840,120
35,55,4320,240
38,65,4320,240
47,63,4440,120
50,66,4440,120
44,68,4560,240
56,71,4680,120
43,72,4800,240
55,73,4920,120
41,76,5040,240
53,78,5160,120
39,81,5280,240
51,82,5400,120
38,102,5520,210
50,76,5640,90
47,77,5730,150
53,77,5740,140
56,77,5750,130
62,91,5760,120
56,72,6120,120
53,60,6120,120
47,60,6120,120
56,80,6240,120
53,67,6240,120
47,67,6240,120
53,54,6840,120
62,64,6840,120
56,54,6840,120
62,73,6960,120
56,63,6960,120
53,63,6960,120
47,53,7560,120
53,53,7560,120
56,63,7560,120
56,72,7680,120
53,60,7680,120
47,60,7680,120
47,53,7920,120
52,53,7920,120
56,63,7920,120
56,72,8160,120
53,60,8160,120
47,60,8160,120
36,45,8880,120
43,45,8880,120
48,53,8880,120
48,34,9120,60
50,36,9180,60
51,37,9240,60
53,39,9300,60
55,41,9360,120
32,40,9600,90
41,40,9600,90
44,47,9600,90
32,42,9840,90
41,42,9840,90
44,50,9840,90
34,45,10080,120
41,45,10080,120
46,54,10080,120
53,36,10320,60
51,36,10380,60
50,38,10440,60
48,41,10500,60
46,43,10560,120
31,45,10800,90
39,45,10800,90
43,54,10800,90
31,47,11040,90
39,47,11040,90
43,56,11040,90
32,52,11280,120
39,52,11280,120
44,63,11280,120
44,40,11520,60
46,41,11580,60
48,43,11640,60
50,46,11700,60
51,48,11760,120
29,51,12000,90
38,51,12000,90
41,61,12000,90
29,54,12240,90
38,54,12240,90
41,63,12240,90
31,58,12480,120
38,58,12480,120
43,70,12480,120
50,43,12720,60
48,45,12780,60
47,47,12840,60
44,50,12900,60
43,53,12960,120
40,55,13200,90
49,55,13200,90
52,65,13200,90
40,57,13440,90
48,57,13440,90
52,69,13440,90
41,63,13680,120
48,63,13680,120
53,75,13680,120
47,44,13920,60
48,46,13980,60
50,48,14040,60
52,52,14100,60
53,54,14160,120
37,64,14400,120
44,64,14400,120
49,77,14400,120
49,47,14640,60
51,49,14700,60
53,51,14760,60
54,53,14820,60
56,60,14880,120
61,49,15120,60
63,51,15180,60
65,53,15240,60
66,54,15300,60
68,63,15360,120
73,51,15600,60
75,53,15660,60
77,54,15720,60
78,57,15780,60
80,64,15840,120
41,68,16200,120
49,68,16200,120
53,81,16200,120
41,61,16320,120
49,61,16320,120
53,72,16320,120
44,67,16560,120
53,67,16560,120
56,81,16560,120
49,62,16920,120
56,62,16920,120
61,73,16920,120
49,62,17040,120
56,62,17040,120
61,73,17040,120
53,54,17640,120
56,54,17640,120
61,54,17640,120
65,66,17640,120
65,75,17760,120
61,63,17760,120
56,63,17760,120
53,63,17760,120
52,54,18000,120
56,54,18000,120
60,54,18000,120
64,66,18000,120
65,75,18240,120
61,63,18240,120
56,63,18240,120
53,63,18240,120
47,60,18720,120
53,60,18720,120
56,60,18720,120
59,67,18720,120
49,65,19080,120
61,78,19080,120
50,58,19200,120
62,70,19200,120
51,64,19440,120
54,64,19440,120
60,64,19440,120
63,77,19440,120
47,59,19800,120
59,71,19800,120
48,59,19920,120
60,71,19920,120
55,57,20160,120
59,57,20160,120
62,57,20160,120
67,64,20160,120
38,77,20400,240
50,75,20520,120
36,73,20640,240
48,72,20760,120
35,71,20880,240
47,70,21000,120
32,68,21120,240
44,66,21240,120
31,79,21360,240
43,63,21480,120
48,54,21600,120
54,64,21600,120
51,54,21600,120
45,54,21600,120
43,54,21600,120
48,42,21960,120
54,51,21960,120
51,42,21960,120
45,42,21960,120
43,42,21960,120
48,48,22080,120
54,56,22080,120
51,48,22080,120
45,48,22080,120
43,48,22080,120
48,38,22680,120
43,38,22680,120
45,38,22680,120
54,45,22680,120
51,38,22680,120
48,45,22800,120
54,52,22800,120
51,45,22800,120
45,45,22800,120
43,45,22800,120
43,38,23280,60
45,38,23280,60
48,38,23280,60
51,38,23280,60
54,45,23280,60
43,34,23400,60
45,34,23400,60
48,34,23400,60
51,34,23400,60
54,40,23400,60
43,34,23520,60
45,34,23520,60
48,34,23520,60
51,34,23520,60
54,40,23520,60
43,34,23640,60
45,34,23640,60
48,34,23640,60
51,34,23640,60
54,40,23640,60
43,40,23760,120
47,40,23760,120
50,40,23760,120
55,48,23760,120
38,77,24000,240
50,75,24120,120
36,73,24240,240
48,72,24360,120
35,71,24480,240
47,70,24600,120
32,68,24720,240
44,66,24840,120
31,79,24960,240
43,63,25080,120
48,54,25200,120
54,64,25200,120
51,54,25200,120
45,54,25200,120
43,54,25200,120
48,42,25560,120
54,51,25560,120
51,42,25560,120
45,42,25560,120
43,42,25560,120
48,48,25680,120
54,56,25680,120
51,48,25680,120
45,48,25680,120
43,48,25680,120
48,38,26280,120
43,38,26280,120
45,38,26280,120
54,45,26280,120
51,38,26280,120
48,45,26400,120
54,52,26400,120
51,45,26400,120
45,45,26400,120
43,45,26400,120
43,38,26880,60
45,38,26880,60
48,38,26880,60
51,38,26880,60
54,45,26880,60
43,34,27000,60
45,34,27000,60
48,34,27000,60
51,34,27000,60
54,40,27000,60
43,34,27120,60
45,34,27120,60
48,34,27120,60
51,34,27120,60
54,40,27120,60
43,34,27240,60
45,34,27240,60
48,34,27240,60
51,34,27240,60
54,40,27240,60
43,40,27360,120
47,40,27360,120
50,40,27360,120
55,48,27360,120
50,55,27600,240
38,46,27600,240
48,57,27840,240
36,48,27840,240
47,60,28080,240
35,50,28080,240
45,62,28320,240
33,52,28320,240
43,70,28560,240
31,59,28560,240
56,73,28800,240
44,62,28800,240
54,65,29040,240
42,55,29040,240
53,68,29280,240
41,57,29280,240
51,72,29520,240
39,61,29520,240
49,75,29760,240
37,54,29760,240
49,54,30000,120
53,54,30000,120
56,54,30000,120
61,63,30000,120
43,59,30240,120
47,59,30240,120
50,59,30240,120
55,70,30240,120
50,61,30480,240
38,51,30480,240
48,63,30720,240
36,53,30720,240
47,65,30960,240
35,54,30960,240
45,67,31200,240
33,56,31200,240
43,76,31440,240
31,64,31440,240
56,81,31680,240
44,67,31680,240
54,72,31920,240
42,61,31920,240
53,74,32160,240
41,63,32160,240
51,79,32400,240
39,66,32400,240
49,82,32640,240
37,59,32640,240
49,36,32880,120
53,36,32880,120
56,36,32880,120
61,50,32880,120
43,39,33120,720
47,39,33120,720
50,39,33120,720
55,55,33120,720
41,46,33840,720
44,46,33840,720
48,46,33840,720
53,55,33840,720
37,50,34560,720
41,50,34560,720
44,50,34560,720
49,60,34560,720
36,54,35280,720
41,54,35280,720
44,54,35280,720
48,64,35280,720
32,55,36000,360
36,55,36000,360
38,55,36000,360
44,65,36000,360
32,55,36360,360
36,55,36360,360
38,55,36360,360
44,65,36360,360
32,55,36720,360
36,55,36720,360
38,55,36720,360
44,65,36720,360
32,55,37080,360
36,55,37080,360
38,55,37080,360
44,65,37080,360
31,51,37440,120
35,51,37440,120
38,51,37440,120
43,61,37440,120
80,62,37680,54
79,61,37734,53
78,59,37787,54
77,58,37840,54
76,56,37894,53
75,55,37947,54
74,54,38001,53
73,53,38054,54
72,52,38107,54
71,60,38160,120
68,52,38400,54
67,51,38454,53
66,50,38507,53
65,49,38560,54
64,47,38613,53
63,46,38667,54
62,45,38721,53
61,45,38774,53
60,44,38827,54
59,50,38880,120
56,44,39120,54
55,43,39174,53
54,42,39227,53
53,41,39280,54
52,40,39333,53
51,39,39387,54
50,38,39441,53
49,37,39494,53
48,36,39547,54
47,42,39600,120
44,44,39840,53
43,43,39893,53
42,42,39947,53
41,41,40000,53
40,40,40053,53
39,39,40107,53
38,38,40160,53
37,37,40214,53
36,36,40267,53
35,35,40320,54
36,36,40374,53
37,36,40427,53
38,38,40480,53
39,39,40533,53
40,40,40587,53
41,41,40640,53
42,43,40694,53
43,44,40747,53
44,45,40800,53
43,44,40854,53
42,43,40907,53
41,41,40961,53
40,40,41014,53
39,39,41067,53
38,38,41121,53
37,37,41174,53
36,36,41228,53
35,50,41280,240
43,50,42000,240
36,65,44160,240
48,66,44280,120
43,68,44400,240
55,71,44520,120
41,72,44640,240
53,73,44760,120
39,76,44880,240
51,78,45000,120
38,81,45120,240
50,82,45240,120
36,102,45360,240
48,76,45480,120
60,91,45600,120
55,77,45600,120
51,77,45600,120
48,77,45600,120
60,72,45960,120
55,60,45960,120
51,60,45960,120
48,60,45960,120
60,80,46080,120
55,67,46080,120
51,67,46080,120
48,67,46080,120
48,54,46680,120
51,54,46680,120
60,64,46680,120
55,54,46680,120
60,73,46800,120
55,63,46800,120
51,63,46800,120
48,63,46800,120
48,53,47400,120
51,53,47400,120
55,53,47400,120
60,63,47400,120
60,72,47520,120
55,60,47520,120
51,60,47520,120
48,60,47520,120
48,53,47760,120
51,53,47760,120
55,53,47760,120
59,63,47760,120
60,72,48000,120
55,60,48000,120
51,60,48000,120
48,60,48000,120
35,55,48480,240
37,65,48480,240
49,66,48600,120
44,68,48720,240
56,71,48840,120
42,72,48960,240
54,73,49080,120
41,76,49200,240
53,78,49320,120
39,81,49440,240
51,82,49560,120
37,102,49680,210
49,76,49800,90
47,77,49920,120
53,77,49920,120
56,77,49920,120
61,91,49920,120
56,72,50280,120
53,60,50280,120
47,60,50280,120
56,80,50400,120
53,67,50400,120
47,67,50400,120
53,54,51000,120
61,64,51000,120
56,54,51000,120
61,73,51120,120
56,63,51120,120
53,63,51120,120
47,53,51720,120
53,53,51720,120
56,63,51720,120
56,72,51840,120
53,60,51840,120
47,60,51840,120
47,53,52080,120
52,53,52080,120
56,63,52080,120
56,72,52320,120
53,60,52320,120
47,60,52320,120
34,45,53040,120
41,45,53040,120
46,53,53040,120
46,34,53280,60
48,36,53340,60
50,37,53400,60
51,39,53460,60
53,41,53520,120
34,40,53760,120
42,40,53760,120
46,47,53760,120
34,42,54000,120
39,42,54000,120
46,50,54000,120
34,45,54240,120
41,45,54240,120
46,54,54240,120
53,36,54480,60
51,36,54540,60
50,38,54600,60
48,41,54660,60
46,43,54720,120
33,45,54960,120
42,45,54960,120
45,54,54960,120
33,47,55200,120
42,47,55200,120
45,56,55200,120
32,52,55440,120
40,52,55440,120
44,63,55440,120
52,40,55680,60
54,41,55740,60
56,43,55800,60
57,46,55860,60
59,48,55920,120
33,51,56160,120
42,51,56160,120
45,61,56160,120
33,54,56400,120
42,54,56400,120
45,63,56400,120
32,58,56640,120
40,58,56640,120
44,70,56640,120
59,43,56880,60
57,45,56940,60
56,47,57000,60
54,50,57060,60
52,53,57120,120
31,55,57360,120
40,55,57360,120
43,65,57360,120
31,57,57600,120
40,57,57600,120
43,69,57600,120
30,63,57840,120
38,63,57840,120
42,75,57840,120
50,44,58080,60
52,46,58140,60
54,48,58200,60
55,52,58260,60
57,54,58320,120
29,64,58560,120
38,64,58560,120
41,77,58560,120
50,47,58800,60
53,49,58860,60
56,51,58920,60
58,53,58980,60
59,60,59040,120
62,49,59280,60
65,51,59340,60
68,53,59400,60
70,54,59460,60
71,63,59520,120
74,51,59760,60
77,53,59820,60
80,54,59880,60
82,57,59940,60
83,64,60000,120
30,68,60360,120
39,68,60360,120
42,81,60360,120
30,61,60480,120
39,61,60480,120
42,72,60480,120
35,67,60720,120
42,67,60720,120
47,81,60720,120
39,62,61080,120
47,62,61080,120
51,73,61080,120
39,62,61200,120
47,62,61200,120
51,73,61200,120
42,54,61800,120
47,54,61800,120
54,66,61800,120
54,75,61920,120
47,63,61920,120
42,63,61920,120
41,54,62160,120
47,54,62160,120
53,66,62160,120
54,75,62400,120
47,63,62400,120
42,63,62400,120
44,60,62880,120
51,60,62880,120
56,67,62880,120
50,65,63240,120
62,78,63240,120
51,58,63360,120
63,70,63360,120
45,64,63600,120
51,64,63600,120
54,64,63600,120
57,77,63600,120
50,59,63960,120
62,71,63960,120
51,59,64080,120
63,71,64080,120
46,57,64320,120
53,57,64320,120
58,64,64320,120
41,77,64560,240
53,75,64680,120
39,73,64800,240
51,72,64920,120
38,71,65040,240
50,70,65160,120
35,68,65280,240
47,66,65400,120
34,79,65520,240
46,63,65640,120
51,54,65760,120
57,64,65760,120
54,54,65760,120
48,54,65760,120
46,54,65760,120
51,42,66120,120
57,51,66120,120
54,42,66120,120
48,42,66120,120
46,42,66120,120
51,48,66240,120
57,56,66240,120
54,48,66240,120
48,48,66240,120
46,48,66240,120
51,38,66840,120
46,38,66840,120
48,38,66840,120
57,45,66840,120
54,38,66840,120
51,45,66960,120
57,52,66960,120
54,45,66960,120
48,45,66960,120
46,45,66960,120
46,38,67440,60
48,38,67440,60
51,38,67440,60
54,38,67440,60
57,45,67440,60
46,34,67560,60
48,34,67560,60
51,34,67560,60
54,34,67560,60
57,40,67560,60
46,34,67680,60
48,34,67680,60
51,34,67680,60
54,34,67680,60
57,40,67680,60
46,34,67800,60
48,34,67800,60
51,34,67800,60
54,34,67800,60
57,40,67800,60
46,40,67920,120
50,40,67920,120
53,40,67920,120
58,48,67920,120
41,61,68160,240
53,77,68160,240
39,58,68400,240
51,73,68400,240
38,56,68640,240
50,71,68640,240
35,54,68880,240
47,68,68880,240
34,63,69120,240
46,79,69120,240
51,54,69360,120
57,64,69360,120
54,54,69360,120
48,54,69360,120
46,54,69360,120
51,42,69720,120
57,51,69720,120
54,42,69720,120
48,42,69720,120
46,42,69720,120
51,48,69840,120
57,56,69840,120
54,48,69840,120
48,48,69840,120
46,48,69840,120
51,38,70440,120
46,38,70440,120
48,38,70440,120
57,45,70440,120
54,38,70440,120
51,45,70560,120
57,52,70560,120
54,45,70560,120
48,45,70560,120
46,45,70560,120
46,38,71040,60
48,38,71040,60
51,38,71040,60
54,38,71040,60
57,45,71040,60
46,30,71160,60
48,30,71160,60
51,30,71160,60
54,30,71160,60
57,36,71160,60
46,30,71280,60
48,30,71280,60
51,30,71280,60
54,30,71280,60
57,36,71280,60
46,30,71400,60
48,30,71400,60
51,30,71400,60
54,30,71400,60
57,36,71400,60
46,40,71520,120
50,40,71520,120
53,40,71520,120
58,48,71520,120
65,54,71760,240
63,57,72000,240
62,60,72240,240
60,62,72480,240
58,54,72720,240
44,47,72960,120
52,56,72960,120
56,56,72960,120
42,49,73200,120
54,58,73200,120
40,51,73440,120
52,61,73440,120
37,53,73680,120
49,63,73680,120
35,55,73920,120
47,65,73920,120
32,57,74160,120
44,68,74160,120
34,57,74400,120
41,57,74400,120
46,68,74400,120
65,57,74640,240
63,60,74880,240
62,63,75120,240
60,64,75360,240
58,56,75600,240
44,49,75840,120
52,59,75840,120
56,59,75840,120
42,51,76080,120
54,61,76080,120
40,53,76320,120
52,63,76320,120
37,54,76560,120
49,65,76560,120
35,58,76800,120
47,68,76800,120
32,60,77040,120
44,71,77040,120
34,60,77280,120
41,60,77280,120
46,71,77280,120
58,49,77640,120
68,58,77640,120
65,49,77640,120
58,43,77760,240
68,51,77760,240
65,43,77760,240
58,49,78000,120
65,49,78000,120
68,58,78000,120
57,49,78360,120
66,58,78360,120
63,49,78360,120
57,44,78480,240
66,52,78480,240
63,44,78480,240
57,48,78720,120
63,48,78720,120
66,57,78720,120
55,50,79080,120
64,60,79080,120
58,50,79080,120
55,46,79200,240
64,55,79200,240
58,46,79200,240
55,51,79440,120
58,51,79440,120
64,61,79440,120
53,50,79800,120
61,59,79800,120
56,50,79800,120
53,45,79920,240
61,54,79920,240
56,45,79920,240
53,50,80160,120
56,50,80160,120
61,59,80160,120
47,52,80520,120
59,62,80520,120
53,52,80520,120
47,45,80640,240
59,54,80640,240
53,45,80640,240
47,52,80880,120
53,52,80880,120
59,62,80880,120
46,53,81240,120
58,63,81240,120
53,53,81240,120
46,48,81360,240
58,57,81360,240
53,48,81360,240
46,54,81600,120
53,54,81600,120
58,64,81600,120
58,48,81960,60
58,44,82080,120
58,43,82320,120
58,35,82680,60
58,39,82800,120
51,25,83040,240
58,25,83040,240
63,30,83040,240
67,25,83400,60
63,20,83400,60
63,20,83520,120
67,25,83520,120
63,26,83760,120
67,31,83760,120
63,26,84120,60
58,21,84120,60
58,22,84240,120
63,27,84240,120
60,31,84480,120
48,21,84840,60
55,26,84840,60
48,21,84960,120
55,26,84960,120
48,25,85200,720
55,30,85200,720
46,25,85920,240
53,25,85920,240
56,29,85920,240
46,21,86280,60
50,21,86280,60
56,26,86280,60
46,21,86400,120
50,21,86400,120
56,26,86400,120
49,25,86640,120
46,25,86640,120
56,30,86640,120
46,27,86880,120
50,27,86880,120
56,32,86880,120
46,28,87120,120
50,28,87120,120
56,35,87120,120
51,31,87360,720
55,36,87360,720
51,27,88080,240
58,32,88080,240
63,25,88800,240
67,30,88800,240
63,25,89160,60
58,20,89160,60
58,20,89280,120
63,25,89280,120
58,26,89520,120
63,31,89520,120
58,26,89880,60
55,21,89880,60
55,22,90000,120
58,27,90000,120
55,22,90240,120
60,31,90240,120
48,21,90600,60
55,26,90600,60
48,21,90720,120
55,26,90720,120
48,25,90960,720
55,30,90960,720
43,25,91680,240
50,25,91680,240
55,29,91680,240
43,21,92040,60
50,21,92040,60
55,26,92040,60
43,21,92160,120
50,21,92160,120
55,26,92160,120
50,25,92400,120
43,25,92400,120
55,30,92400,120
43,27,92640,120
50,27,92640,120
55,32,92640,120
43,28,92880,120
50,28,92880,120
55,35,92880,120
43,31,93120,720
50,31,93120,720
55,36,93120,720
46,27,93840,720
53,27,93840,720
56,32,93840,720
39,34,94560,240
46,34,94560,240
51,40,94560,240
43,27,94920,60
55,33,94920,60
51,27,94920,60
43,27,95040,120
51,27,95040,120
55,33,95040,120
43,35,95280,120
51,35,95280,120
55,41,95280,120
46,29,95640,60
58,35,95640,60
55,29,95640,60
46,30,95760,120
55,30,95760,120
58,36,95760,120
48,29,96000,120
55,29,96000,120
60,41,96000,120
60,29,96360,60
55,29,96360,60
63,35,96360,60
60,29,96480,120
55,29,96480,120
63,35,96480,120
60,34,96720,720
55,34,96720,720
63,40,96720,720
46,33,97440,240
53,33,97440,240
58,40,97440,240
58,29,97800,60
62,29,97800,60
65,35,97800,60
58,29,97920,120
62,29,97920,120
65,35,97920,120
61,34,98160,120
58,34,98160,120
64,40,98160,120
58,36,98400,120
62,36,98400,120
65,44,98400,120
58,39,98640,120
62,39,98640,120
66,46,98640,120
58,41,98880,720
51,41,98880,720
67,49,98880,720
58,36,99600,240
51,36,99600,240
63,43,99600,240
39,45,100320,240
46,45,100320,240
51,54,100320,240
43,36,100680,60
55,45,100680,60
51,36,100680,60
43,36,100800,120
51,36,100800,120
55,45,100800,120
43,47,101040,120
51,47,101040,120
55,56,101040,120
46,41,101400,60
58,48,101400,60
55,41,101400,60
46,42,101520,120
55,42,101520,120
58,51,101520,120
48,42,101760,120
55,42,101760,120
60,59,101760,120
60,42,102120,60
55,42,102120,60
63,50,102120,60
60,43,102240,120
55,43,102240,120
63,51,102240,120
60,50,102480,720
55,50,102480,720
63,60,102480,720
43,48,103200,240
50,48,103200,240
55,57,103200,240
55,41,103560,60
59,41,103560,60
62,49,103560,60
55,41,103680,120
59,41,103680,120
62,49,103680,120
58,45,103920,120
55,45,103920,120
61,54,103920,120
55,53,104160,120
59,53,104160,120
62,63,104160,120
55,55,104400,120
62,55,104400,120
67,65,104400,120
54,48,104640,240
59,57,104640,240
47,48,104640,240
59,41,105000,60
66,49,105000,60
62,41,105000,60
66,49,105120,120
62,41,105120,120
59,41,105120,120
62,51,105360,720
59,51,105360,720
66,61,105360,720
42,43,106080,240
49,43,106080,240
54,51,106080,240
54,36,106440,60
58,36,106440,60
61,44,106440,60
54,36,106560,120
58,36,106560,120
61,44,106560,120
57,43,106800,120
54,43,106800,120
60,52,106800,120
54,47,107040,120
58,47,107040,120
61,56,107040,120
54,49,107280,120
61,49,107280,120
66,58,107280,120
53,43,107520,240
58,51,107520,240
46,43,107520,240
58,36,107880,60
65,44,107880,60
61,36,107880,60
65,44,108000,120
61,36,108000,120
58,36,108000,120
61,45,108240,720
58,45,108240,720
65,54,108240,720
41,41,108960,240
48,41,108960,240
53,49,108960,240
57,36,109320,60
60,43,109320,60
57,36,109440,120
60,43,109440,120
45,42,109680,120
52,42,109680,120
57,50,109680,120
57,37,110040,60
59,37,110040,60
63,45,110040,60
57,38,110160,120
60,38,110160,120
64,45,110160,120
40,41,110400,240
47,41,110400,240
52,49,110400,240
56,36,110760,60
59,43,110760,60
56,36,110880,120
59,43,110880,120
44,42,111120,120
51,42,111120,120
56,50,111120,120
56,37,111480,60
59,37,111480,60
62,45,111480,60
56,38,111600,120
59,38,111600,120
63,45,111600,120
39,41,111840,240
51,49,111840,240
58,35,112200,60
63,35,112200,60
67,42,112200,60
58,35,112320,120
63,35,112320,120
67,42,112320,120
39,41,112560,120
51,48,112560,120
58,36,112920,60
63,36,112920,60
66,43,112920,60
58,36,113040,120
63,36,113040,120
66,43,113040,120
35,38,113280,240
47,46,113280,240
56,33,113640,60
59,33,113640,60
64,40,113640,60
56,33,113760,120
59,33,113760,120
64,40,113760,120
36,38,114000,120
48,46,114000,120
54,34,114360,60
57,34,114360,60
63,41,114360,60
54,35,114480,120
57,35,114480,120
63,41,114480,120
37,45,114720,240
49,55,114720,240
54,33,115080,60
58,33,115080,60
61,40,115080,60
55,33,115200,120
58,33,115200,120
61,40,115200,120
55,38,115440,120
58,38,115440,120
61,46,115440,120
56,34,115800,60
59,34,115800,60
61,41,115800,60
53,35,115920,120
56,35,115920,120
61,41,115920,120
37,45,116160,240
49,55,116160,240
54,33,116520,60
58,33,116520,60
61,40,116520,60
55,33,116640,120
58,33,116640,120
61,40,116640,120
55,38,116880,120
58,38,116880,120
61,46,116880,120
56,34,117240,60
59,34,117240,60
61,41,117240,60
53,35,117360,120
56,35,117360,120
61,41,117360,120
34,45,117600,240
46,55,117600,240
51,33,117960,60
54,33,117960,60
58,40,117960,60
52,33,118080,120
55,33,118080,120
58,40,118080,120
52,38,118320,120
55,38,118320,120
58,46,118320,120
53,34,118680,60
56,34,118680,60
58,41,118680,60
50,35,118800,120
53,35,118800,120
58,41,118800,120
34,43,119040,240
46,52,119040,240
51,28,119400,60
54,28,119400,60
58,36,119400,60
52,28,119520,120
55,28,119520,120
58,35,119520,120
52,31,119760,120
55,31,119760,120
58,38,119760,120
53,26,120120,60
56,26,120120,60
58,31,120120,60
50,26,120240,120
53,26,120240,120
58,30,120240,120
39,26,120480,120
46,26,120480,120
51,31,120480,120
39,18,120840,60
46,18,120840,60
51,22,120840,60
39,26,120960,120
46,26,120960,120
51,31,120960,120
39,26,121920,120
46,26,121920,120
51,31,121920,120
39,18,122280,60
46,18,122280,60
51,22,122280,60
39,26,122400,120
46,26,122400,120
51,31,122400,120
39,26,123360,120
47,26,123360,120
50,31,123360,120
39,18,123720,60
47,18,123720,60
50,22,123720,60
39,26,123840,120
47,26,123840,120
50,31,123840,120
39,27,124800,120
46,27,124800,120
50,34,124800,120
39,20,125160,60
46,20,125160,60
50,24,125160,60
39,27,125280,120
46,27,125280,120
50,34,125280,120
39,26,126240,120
46,26,126240,120
51,31,126240,120
39,18,126600,60
46,18,126600,60
51,22,126600,60
39,26,126720,120
46,26,126720,120
51,31,126720,120
39,26,127680,120
46,26,127680,120
51,31,127680,120
39,18,128040,60
46,18,128040,60
51,22,128040,60
39,26,128160,120
46,26,128160,120
51,31,128160,120
38,26,129120,120
48,26,129120,120
50,31,129120,120
38,18,129480,60
48,18,129480,60
50,22,129480,60
38,26,129600,120
48,26,129600,120
50,31,129600,120
50,18,130200,120
54,22,130200,120
50,26,130320,240
54,31,130320,240
43,22,130920,60
50,22,130920,60
55,26,130920,60
43,30,131040,120
50,30,131040,120
55,36,131040,120
46,27,131520,240
56,27,131520,240
58,34,131520,240
46,27,131760,240
56,27,131760,240
58,34,131760,240
39,38,132000,240
55,22,132240,240
58,22,132240,240
65,28,132240,240
43,32,132480,240
63,38,132720,240
58,30,132720,240
55,30,132720,240
46,34,132960,240
62,34,133200,240
58,27,133200,240
55,27,133200,240
51,38,133440,240
60,28,133680,240
55,24,133680,240
46,35,133920,240
58,33,134160,240
55,27,134160,240
43,33,134400,240
58,33,134640,240
55,27,134640,240
39,38,134880,240
62,35,135120,240
59,27,135120,240
56,27,135120,240
44,36,135360,240
59,29,135600,240
62,37,135600,240
56,29,135600,240
47,38,135840,240
62,39,136080,240
59,31,136080,240
56,31,136080,240
39,40,136320,240
65,34,136560,240
58,27,136560,240
56,27,136560,240
46,42,136800,240
65,49,137040,240
58,39,137040,240
56,39,137040,240
50,32,137280,240
65,33,137520,240
58,26,137520,240
56,26,137520,240
39,38,137760,240
65,29,138000,240
58,23,138000,240
55,23,138000,240
43,34,138240,240
63,34,138480,240
58,27,138480,240
55,27,138480,240
46,34,138720,240
62,34,138960,240
58,27,138960,240
55,27,138960,240
51,38,139200,240
60,30,139440,240
55,25,139440,240
46,36,139680,240
58,36,139920,240
55,30,139920,240
43,36,140160,240
58,36,140400,240
55,30,140400,240
38,38,140640,240
62,35,140880,240
60,27,140880,240
57,27,140880,240
45,36,141120,240
63,38,141360,240
60,30,141360,240
54,30,141360,240
50,42,141600,240
62,45,141840,240
60,36,141840,240
57,36,141840,240
43,38,142080,240
59,29,142320,240
62,35,142320,240
50,38,142560,240
62,29,142800,240
59,25,142800,240
55,34,143040,240
62,34,143280,240
59,28,143280,240
40,38,143520,240
55,17,143760,240
59,22,143760,240
66,28,143760,240
43,32,144000,240
64,38,144240,240
59,30,144240,240
55,30,144240,240
47,34,144480,240
62,34,144720,240
59,27,144720,240
55,27,144720,240
52,38,144960,240
60,28,145200,240
55,24,145200,240
47,35,145440,240
59,33,145680,240
55,27,145680,240
40,33,145920,240
59,33,146160,240
55,27,146160,240
36,38,146400,240
63,35,146640,240
57,27,146640,240
55,27,146640,240
45,36,146880,240
57,29,147120,240
63,37,147120,240
54,29,147120,240
48,38,147360,240
63,39,147600,240
57,31,147600,240
54,31,147600,240
35,40,147840,240
63,34,148080,240
57,27,148080,240
54,27,148080,240
47,42,148320,240
66,49,148560,240
60,39,148560,240
57,39,148560,240
51,32,148800,240
66,33,149040,240
59,26,149040,240
57,26,149040,240
40,38,149280,240
66,29,149520,240
59,23,149520,240
55,19,149520,240
43,34,149760,240
64,34,150000,240
59,27,150000,240
55,27,150000,240
47,34,150240,240
62,34,150480,240
59,27,150480,240
55,27,150480,240
52,38,150720,240
60,30,150960,240
55,25,150960,240
47,36,151200,240
59,36,151440,240
55,30,151440,240
40,36,151680,240
59,36,151920,240
55,30,151920,240
39,38,152160,240
60,35,152400,240
57,27,152400,240
55,27,152400,240
45,36,152640,240
60,38,152880,240
57,30,152880,240
54,30,152880,240
48,42,153120,240
63,45,153360,240
57,36,153360,240
54,36,153360,240
38,42,153600,240
54,33,153840,240
60,33,153840,240
63,42,153840,240
45,47,154080,240
54,30,154320,240
63,38,154320,240
60,30,154320,240
50,34,154560,240
57,28,154800,240
62,34,154800,240
60,28,154800,240
43,38,155040,240
69,28,155280,240
58,22,155280,240
62,22,155280,240
46,32,155520,240
67,38,155760,240
62,30,155760,240
58,30,155760,240
50,34,156000,240
63,34,156240,240
58,27,156240,240
55,27,156240,240
42,38,156480,240
63,24,156720,240
70,28,156720,240
60,24,156720,240
41,35,156960,240
63,27,157200,240
69,33,157200,240
60,27,157200,240
45,33,157440,240
60,27,157680,240
66,33,157680,240
63,27,157680,240
46,44,157920,240
72,32,158160,240
61,25,158160,240
65,25,158160,240
49,36,158400,240
70,44,158640,240
65,35,158640,240
61,35,158640,240
53,38,158880,240
66,38,159120,240
61,30,159120,240
58,30,159120,240
45,44,159360,240
66,27,159600,240
73,32,159600,240
63,27,159600,240
44,39,159840,240
66,31,160080,240
72,37,160080,240
63,31,160080,240
48,37,160320,240
63,31,160560,240
68,37,160560,240
66,31,160560,240
49,47,160800,240
75,35,161040,240
65,27,161040,240
68,27,161040,240
53,40,161280,240
73,47,161520,240
68,37,161520,240
65,37,161520,240
56,42,161760,240
72,42,162000,240
68,33,162000,240
65,33,162000,240
47,47,162240,240
65,30,162480,240
68,30,162480,240
71,35,162480,240
63,30,162480,240
53,43,162720,240
65,34,162960,240
68,34,162960,240
71,41,162960,240
63,34,162960,240
39,41,163200,240
65,34,163440,240
63,34,163440,240
71,41,163440,240
68,34,163440,240
46,47,163680,240
65,30,163920,240
68,30,163920,240
70,35,163920,240
62,30,163920,240
46,44,164160,240
66,35,164400,240
68,35,164400,240
70,43,164400,240
62,35,164400,240
46,43,164640,240
66,36,164880,240
62,36,164880,240
70,44,164880,240
68,36,164880,240
51,47,165120,360
39,47,165120,360
55,31,165300,360
58,31,165300,360
67,45,165300,360
55,43,165660,360
58,43,165660,360
65,63,165660,360
55,37,166020,360
58,37,166020,369
63,54,166020,360
55,37,166380,180
58,37,166380,9
62,54,166380,180
39,47,166560,360
51,47,166560,360
51,34,166740,180
55,34,166740,360
60,45,166740,360
51,39,167100,360
55,39,167100,360
57,54,167100,360
51,39,167460,360
55,39,167460,360
58,54,167460,360
55,43,167820,180
58,43,167820,180
63,43,167820,180
67,54,167820,180
51,47,168000,360
39,47,168000,360
62,31,168180,360
56,31,168180,360
59,31,168180,360
67,45,168180,360
62,43,168540,360
56,43,168540,360
59,43,168540,360
64,63,168540,360
62,37,168900,360
56,37,168900,360
59,37,168900,369
65,54,168900,360
62,37,169260,180
56,37,169260,180
59,37,169260,9
67,54,169260,180
39,47,169440,360
51,47,169440,360
59,34,169620,360
62,34,169620,360
65,34,169620,360
68,45,169620,360
59,39,169980,360
62,39,169980,360
65,39,169980,360
69,54,169980,360
58,39,170340,360
62,39,170340,360
65,39,170340,360
68,39,170340,360
72,54,170340,360
62,43,170700,180
58,43,170700,180
65,43,170700,180
68,43,170700,180
70,54,170700,180
51,47,170880,360
39,47,170880,360
55,31,171060,360
58,31,171060,360
67,45,171060,360
55,43,171420,360
58,43,171420,360
65,63,171420,360
55,37,171780,360
58,37,171780,369
63,54,171780,360
55,37,172140,180
58,37,172140,9
62,54,172140,180
39,47,172320,360
51,47,172320,360
51,34,172500,180
55,34,172500,360
60,45,172500,360
51,39,172860,360
55,39,172860,360
57,54,172860,360
51,39,173220,360
55,39,173220,360
58,54,173220,360
55,43,173580,180
58,43,173580,180
63,43,173580,180
67,54,173580,180
50,47,173760,360
38,47,173760,360
57,31,173940,360
60,31,173940,360
67,45,173940,360
57,43,174300,360
60,43,174300,360
66,63,174300,360
66,37,174660,360
69,37,174660,369
75,54,174660,360
66,37,175020,180
69,37,175020,9
74,54,175020,180
43,47,175200,360
55,47,175200,360
67,34,175380,360
71,34,175380,360
74,45,175380,360
62,39,175740,360
67,39,175740,360
71,54,175740,360
59,37,176100,360
62,37,176100,360
67,51,176100,360
55,41,176460,180
59,41,176460,180
62,41,176460,180
67,52,176460,180
43,44,176640,360
60,31,176820,360
63,31,176820,360
68,42,176820,360
60,36,177180,360
63,36,177180,360
67,49,177180,360
55,36,177540,360
60,36,177540,360
65,49,177540,360
55,39,177900,180
60,39,177900,180
63,50,177900,180
41,39,178080,360
53,27,178260,360
56,27,178260,360
60,27,178260,360
63,37,178260,360
60,32,178620,360
53,32,178620,360
56,32,178620,360
62,44,178620,360
56,32,178980,360
60,32,178980,360
62,44,178980,360
56,35,179340,180
53,35,179340,180
60,35,179340,180
62,45,179340,180
43,35,179520,360
55,24,179700,360
59,24,179700,360
63,33,179700,360
59,28,180060,360
55,28,180060,360
62,39,180060,360
50,28,180420,360
55,28,180420,360
60,39,180420,360
55,31,180780,180
50,31,180780,180
59,40,180780,180
47,22,181140,360
50,22,181140,360
56,31,181140,360
50,26,181500,360
47,26,181500,360
55,36,181500,360
47,25,181860,360
50,25,181860,360
55,35,181860,360
50,27,182220,180
47,27,182220,180
55,35,182220,180
31,31,182400,360
48,20,182580,360
51,20,182580,360
58,29,182580,360
51,24,182940,360
48,24,182940,360
56,34,182940,360
43,23,183300,360
48,23,183300,360
51,23,183300,360
55,33,183300,360
48,25,183660,180
43,25,183660,180
53,33,183660,180
29,29,183840,360
41,18,184020,360
44,18,184020,360
48,18,184020,360
51,27,184020,360
44,22,184380,360
48,22,184380,360
41,22,184380,360
50,32,184380,360
44,21,184740,360
48,21,184740,360
50,31,184740,360
44,23,185100,180
48,23,185100,180
41,23,185100,180
50,31,185100,180
31,29,185280,360
43,18,185460,360
47,18,185460,360
51,27,185460,360
43,22,185820,360
47,22,185820,360
50,32,185820,360
51,21,186180,360
55,31,186180,360
50,23,186540,180
55,31,186540,180
37,26,186720,360
49,16,186900,360
53,24,186900,360
49,19,187260,180
53,28,187260,180
44,18,187620,360
40,18,187620,360
49,27,187620,360
41,20,187980,180
44,20,187980,180
49,27,187980,180
31,20,188160,360
43,12,188340,360
47,12,188340,360
51,19,188340,360
43,15,188700,360
47,15,188700,360
50,22,188700,360
51,15,189060,360
55,21,189060,360
50,16,189420,180
55,21,189420,180
37,18,189600,360
49,10,189780,360
53,16,189780,360
49,13,190140,180
53,19,190140,180
44,12,190500,360
40,12,190500,360
49,19,190500,360
41,14,190860,180
44,14,190860,180
49,19,190860,180
43,24,191040,120
50,29,191040,120
38,34,191280,240
36,35,191520,240
35,36,191760,240
32,38,192000,240
31,43,192240,240
44,45,192480,240
43,40,192720,240
41,42,192960,240
39,45,193200,240
37,46,193440,240
49,33,193680,120
53,39,193680,120
43,36,193920,120
50,43,193920,120
38,34,194160,240
36,35,194400,240
35,36,194640,240
32,38,194880,240
31,43,195120,240
44,45,195360,240
43,40,195600,240
41,42,195840,240
39,45,196080,240
37,46,196320,240
49,33,196560,120
53,39,196560,120
44,36,196800,120
51,43,196800,120
39,34,197040,240
37,35,197280,240
36,36,197520,240
34,38,197760,240
32,43,198000,240
44,45,198240,240
42,40,198480,240
40,42,198720,240
39,45,198960,240
37,46,199200,240
49,33,199440,120
52,39,199440,120
45,36,199680,120
52,43,199680,120
40,34,199920,240
38,35,200160,240
37,36,200400,240
34,38,200640,240
33,43,200880,240
45,45,201120,240
43,40,201360,240
41,42,201600,240
40,45,201840,240
38,46,202080,240
50,33,202320,120
53,39,202320,120
46,36,202560,120
53,43,202560,120
41,34,202800,240
39,35,203040,240
38,36,203280,240
35,38,203520,240
34,43,203760,240
46,36,204000,120
54,43,204000,120
42,34,204240,240
41,36,204480,240
39,37,204720,240
35,39,204960,240
34,44,205200,240
56,38,205440,120
47,38,205440,120
59,45,205440,120
44,35,205680,240
41,36,205920,240
38,38,206160,240
37,40,206400,240
35,45,206640,240
60,38,206880,120
51,38,206880,120
63,45,206880,120
45,36,207120,240
44,37,207360,240
42,39,207600,240
39,41,207840,240
36,46,208080,240
61,25,208320,240
69,30,208320,240
66,25,208320,240
57,20,208680,60
61,20,208680,60
66,25,208680,60
57,20,208800,120
61,20,208800,120
66,25,208800,120
57,26,209040,120
54,26,209040,120
61,31,209040,120
49,21,209400,60
54,21,209400,60
57,26,209400,60
49,22,209520,120
57,27,209520,120
54,22,209520,120
38,43,209760,240
45,39,210000,240
43,45,210240,240
42,42,210480,240
40,38,210720,240
38,36,210960,240
62,25,211200,240
70,30,211200,240
67,25,211200,240
58,20,211560,60
62,20,211560,60
67,25,211560,60
58,20,211680,120
62,20,211680,120
67,25,211680,120
58,26,211920,120
55,26,211920,120
62,31,211920,120
50,21,212280,60
55,21,212280,60
58,26,212280,60
50,22,212400,120
58,27,212400,120
55,22,212400,120
39,43,212640,240
46,39,212880,240
44,45,213120,240
43,42,213360,240
41,38,213600,240
39,36,213840,240
63,27,214080,240
71,33,214080,240
68,27,214080,240
59,22,214440,60
63,22,214440,60
68,27,214440,60
59,22,214560,120
63,22,214560,120
68,27,214560,120
59,27,214800,120
56,27,214800,120
63,34,214800,120
51,23,215160,60
56,23,215160,60
59,27,215160,60
51,24,215280,120
59,29,215280,120
56,24,215280,120
52,29,215520,240
64,36,215520,240
59,29,215520,240
56,24,215880,60
59,29,215880,60
56,24,216000,120
59,29,216000,120
59,30,216240,120
64,36,216240,120
56,25,216600,60
59,30,216600,60
59,33,216720,120
56,26,216720,120
45,31,216960,240
60,38,216960,240
52,31,216960,240
60,31,217320,60
57,25,217320,60
57,25,217440,120
60,31,217440,120
60,32,217680,120
64,39,217680,120
57,27,218040,60
60,32,218040,60
60,34,218160,120
57,27,218160,120
41,33,218400,240
57,41,218400,240
48,33,218400,240
53,27,218760,60
60,33,218760,60
57,27,218760,60
53,27,218880,120
57,27,218880,120
60,33,218880,120
57,34,219120,120
60,34,219120,120
65,42,219120,120
53,27,219480,60
57,27,219480,60
60,35,219480,60
53,28,219600,120
60,36,219600,120
57,28,219600,120
49,34,219840,240
61,41,219840,240
56,34,219840,240
53,27,220200,60
65,34,220200,60
53,27,220320,120
65,34,220320,120
46,35,220560,120
58,43,220560,120
49,28,220920,60
61,35,220920,60
49,29,221040,120
61,37,221040,120
42,34,221280,240
54,42,221280,240
46,27,221640,60
58,34,221640,60
46,27,221760,120
58,34,221760,120
39,36,222000,120
51,44,222000,120
42,28,222360,60
54,36,222360,60
42,29,222480,120
54,37,222480,120
35,33,222720,240
47,33,222720,240
54,43,222960,240
52,40,223200,240
51,40,223440,240
49,38,223680,240
47,38,223920,240
63,34,224160,240
71,41,224160,240
59,27,224520,60
68,34,224520,60
59,27,224640,120
68,34,224640,120
56,36,224880,120
63,44,224880,120
51,29,225240,60
59,36,225240,60
51,30,225360,120
59,38,225360,120
32,36,225600,240
44,36,225600,240
51,48,225840,240
49,45,226080,240
47,45,226320,240
46,43,226560,240
44,42,226800,240
62,37,227040,240
71,45,227040,240
59,30,227400,60
65,38,227400,60
59,30,227520,120
65,38,227520,120
53,39,227760,120
62,48,227760,120
50,32,228120,60
59,40,228120,60
50,34,228240,120
59,42,228240,120
44,44,228480,240
56,54,228480,240
39,35,228840,60
51,44,228840,60
39,36,228960,120
51,45,228960,120
44,47,229200,120
56,57,229200,120
37,38,229560,60
49,47,229560,60
37,41,229680,120
49,51,229680,120
44,48,229920,240
56,59,229920,240
35,39,230280,60
47,48,230280,60
35,39,230400,120
47,49,230400,120
44,52,230640,120
56,63,230640,120
34,43,231000,60
46,52,231000,60
34,45,231120,120
46,57,231120,120
45,53,231360,240
57,65,231360,240
33,44,231720,60
45,54,231720,60
33,44,231840,120
45,55,231840,120
46,56,232080,120
58,70,232080,120
32,46,232440,60
44,58,232440,60
32,49,232560,120
44,62,232560,120
47,58,232800,240
59,71,232800,240
32,48,233160,60
44,60,233160,60
32,48,233280,120
44,60,233280,120
47,63,233520,120
59,76,233520,120
31,52,233880,60
43,63,233880,60
31,53,234000,120
43,67,234000,120
36,50,234240,240
40,50,234240,240
43,50,234240,240
48,61,234240,240
40,41,234600,60
43,41,234600,60
52,50,234600,60
48,41,234600,60
40,41,234720,120
43,41,234720,120
48,41,234720,120
52,50,234720,120
40,52,234960,120
43,52,234960,120
48,52,234960,120
52,63,234960,120
43,43,235320,60
48,43,235320,60
55,52,235320,60
52,43,235320,60
43,45,235440,120
48,45,235440,120
52,45,235440,120
55,54,235440,120
45,52,235680,120
48,52,235680,120
52,52,235680,120
57,63,235680,120
48,43,236040,60
52,43,236040,60
57,43,236040,60
60,52,236040,60
48,43,236160,120
52,43,236160,120
57,43,236160,120
60,52,236160,120
48,50,236400,720
52,50,236400,720
57,50,236400,720
60,61,236400,720
43,50,237120,240
50,50,237120,240
55,59,237120,240
55,43,237480,60
59,43,237480,60
65,52,237480,60
55,43,237600,120
59,43,237600,120
65,52,237600,120
58,50,237840,120
55,50,237840,120
65,61,237840,120
55,55,238080,120
59,55,238080,120
65,64,238080,120
55,57,238320,120
59,57,238320,120
65,70,238320,120
60,63,238560,720
64,73,238560,720
64,54,239280,240
67,64,239280,240
36,50,240000,240
40,50,240000,240
43,50,240000,240
48,61,240000,240
40,41,240360,60
43,41,240360,60
52,50,240360,60
48,41,240360,60
40,41,240480,120
43,41,240480,120
48,41,240480,120
52,50,240480,120
40,52,240720,120
43,52,240720,120
48,52,240720,120
52,63,240720,120
43,43,241080,60
48,43,241080,60
55,52,241080,60
52,43,241080,60
43,45,241200,120
48,45,241200,120
52,45,241200,120
55,54,241200,120
45,52,241440,120
48,52,241440,120
52,52,241440,120
57,63,241440,120
48,43,241800,60
52,43,241800,60
57,43,241800,60
60,52,241800,60
48,43,241920,120
52,43,241920,120
57,43,241920,120
60,52,241920,120
48,50,242160,720
52,50,242160,720
57,50,242160,720
60,61,242160,720
54,50,242880,240
47,50,242880,240
51,50,242880,240
59,59,242880,240
59,43,243240,60
63,43,243240,60
66,52,243240,60
59,43,243360,120
63,43,243360,120
66,52,243360,120
63,45,243600,120
59,45,243600,120
65,54,243600,120
59,49,243840,120
63,49,243840,120
66,57,243840,120
59,51,244080,120
63,51,244080,120
66,63,244080,120
59,63,244320,720
63,63,244320,720
66,63,244320,720
71,73,244320,720
55,54,245040,240
62,54,245040,240
65,54,245040,240
71,64,245040,240
60,48,245760,180
64,48,245760,180
67,48,245760,180
72,57,245760,180
55,41,245940,54
60,41,245940,54
64,41,245940,54
67,49,245940,54
55,49,246000,60
60,49,246000,60
64,49,246000,60
67,58,246000,60
64,58,246240,180
60,49,246240,180
55,49,246240,180
52,49,246240,180
48,43,246420,54
52,43,246420,54
55,43,246420,54
60,51,246420,54
48,50,246480,60
52,50,246480,60
55,50,246480,60
60,59,246480,60
45,48,246720,180
48,48,246720,180
52,48,246720,180
57,57,246720,180
40,41,246900,54
45,41,246900,54
48,41,246900,54
52,49,246900,54
40,49,246960,60
45,49,246960,60
48,49,246960,60
52,58,246960,60
48,58,247200,180
45,49,247200,180
40,49,247200,180
36,49,247200,180
33,43,247380,54
36,43,247380,54
40,43,247380,54
45,51,247380,54
33,50,247440,60
36,50,247440,60
40,50,247440,60
45,59,247440,60
31,50,247680,240
38,50,247680,240
43,59,247680,240
43,43,248040,60
47,43,248040,60
50,52,248040,60
43,43,248160,120
47,43,248160,120
50,52,248160,120
46,50,248400,120
43,50,248400,120
49,61,248400,120
43,55,248640,120
47,55,248640,120
50,64,248640,120
43,57,248880,120
47,57,248880,120
51,70,248880,120
48,63,249120,720
52,73,249120,720
43,54,249840,240
40,54,249840,240
36,54,249840,240
48,64,249840,240
72,53,250560,180
76,53,250560,180
79,53,250560,180
84,63,250560,180
67,45,250740,54
72,45,250740,54
76,45,250740,54
79,54,250740,54
67,54,250800,120
72,54,250800,120
76,54,250800,120
79,63,250800,120
76,63,251040,180
72,54,251040,180
67,54,251040,180
64,54,251040,180
60,46,251220,54
64,46,251220,54
67,46,251220,54
72,55,251220,54
60,54,251280,240
64,54,251280,240
67,54,251280,240
72,64,251280,240
57,53,251520,180
60,53,251520,180
64,53,251520,180
69,63,251520,180
52,45,251700,54
57,45,251700,54
60,45,251700,54
64,54,251700,54
52,54,251760,120
57,54,251760,120
60,54,251760,120
64,63,251760,120
60,63,252000,180
57,54,252000,180
52,54,252000,180
48,54,252000,180
45,46,252180,54
48,46,252180,54
52,46,252180,54
57,55,252180,54
45,54,252240,120
48,54,252240,120
52,54,252240,120
57,64,252240,120
40,50,252390,165
44,50,252420,150
47,50,252450,135
52,59,252480,120
47,43,252840,60
59,52,252840,60
47,43,252960,120
59,52,252960,120
46,50,253200,120
58,61,253200,120
47,55,253440,120
59,64,253440,120
52,57,253680,120
64,70,253680,120
44,50,253860,150
51,50,253890,130
56,59,253920,120
51,43,254280,60
63,52,254280,60
51,43,254400,120
63,52,254400,120
50,50,254640,120
62,61,254640,120
51,55,254880,120
63,64,254880,120
51,57,255120,120
63,70,255120,120
39,50,255270,165
43,50,255300,150
46,50,255330,135
51,59,255360,120
46,43,255720,60
58,52,255720,60
46,43,255840,120
58,52,255840,120
45,50,256080,120
57,61,256080,120
46,55,256320,120
58,64,256320,120
51,57,256560,120
63,70,256560,120
43,50,256740,150
50,50,256770,135
55,59,256800,120
50,43,257160,60
62,52,257160,60
50,43,257280,120
62,52,257280,120
49,50,257520,120
61,61,257520,120
50,55,257760,120
62,64,257760,120
50,57,258000,120
62,70,258000,120
38,50,258240,120
50,59,258240,120
54,43,258480,120
50,43,258480,120
57,52,258480,120
54,43,258720,120
50,43,258720,120
59,52,258720,120
42,54,258960,120
54,66,258960,120
56,55,259200,120
54,55,259200,120
60,64,259200,120
57,57,259440,120
54,57,259440,120
61,70,259440,120
37,50,259680,120
49,59,259680,120
53,43,259920,120
49,43,259920,120
56,52,259920,120
53,43,260160,120
49,43,260160,120
58,52,260160,120
41,54,260400,120
53,66,260400,120
55,55,260640,120
53,55,260640,120
59,64,260640,120
56,57,260880,120
53,57,260880,120
60,70,260880,120
36,47,261120,120
48,56,261120,120
55,40,261300,54
60,40,261300,54
64,48,261300,54
55,48,261360,240
60,48,261360,240
64,56,261360,240
36,47,261600,120
48,56,261600,120
55,40,261780,54
60,40,261780,54
63,48,261780,54
55,48,261840,240
60,48,261840,240
63,56,261840,240
32,47,262080,120
44,56,262080,120
53,40,262260,54
56,40,262260,54
61,48,262260,54
53,48,262320,240
56,48,262320,240
61,56,262320,240
33,47,262560,120
45,56,262560,120
51,40,262740,54
54,40,262740,54
60,48,262740,54
51,48,262800,240
54,48,262800,240
60,56,262800,240
34,43,263040,120
46,51,263040,120
51,36,263400,60
54,43,263400,60
52,36,263520,120
55,44,263520,120
52,45,263760,120
55,54,263760,120
56,43,264120,60
53,36,264120,60
50,37,264240,120
53,45,264240,120
34,43,264480,120
46,51,264480,120
51,36,264840,60
54,43,264840,60
52,36,264960,120
55,44,264960,120
52,45,265200,120
55,54,265200,120
56,43,265560,60
53,36,265560,60
50,37,265680,120
53,45,265680,120
37,46,265920,120
49,55,265920,120
54,39,266280,60
57,46,266280,60
55,40,266400,120
58,47,266400,120
55,50,266640,120
58,59,266640,120
59,46,267000,60
56,39,267000,60
53,41,267120,120
56,49,267120,120
37,46,267360,120
49,55,267360,120
54,39,267720,60
57,46,267720,60
55,40,267840,120
58,47,267840,120
55,50,268080,120
58,59,268080,120
59,46,268440,60
56,39,268440,60
53,41,268560,120
56,49,268560,120
40,46,268800,120
52,55,268800,120
57,39,269160,60
60,47,269160,60
58,40,269280,120
61,48,269280,120
58,51,269520,120
61,60,269520,120
62,48,269880,60
59,40,269880,60
56,42,270000,120
59,51,270000,120
43,49,270240,120
55,58,270240,120
60,41,270600,60
63,49,270600,60
61,42,270720,120
64,50,270720,120
61,53,270960,120
64,63,270960,120
65,50,271320,60
62,42,271320,60
59,44,271440,120
62,53,271440,120
43,51,271680,120
55,61,271680,120
63,43,272040,60
60,43,272040,60
67,52,272040,60
64,44,272160,120
61,44,272160,120
67,53,272160,120
61,55,272400,120
64,55,272400,120
67,65,272400,120
62,44,272760,60
67,53,272760,60
65,44,272760,60
55,46,272880,120
62,46,272880,120
67,55,272880,120
43,54,273120,120
55,63,273120,120
64,45,273480,60
61,45,273480,60
67,54,273480,60
65,45,273600,120
62,45,273600,120
67,54,273600,120
62,57,273840,120
65,57,273840,120
67,68,273840,120
56,45,274200,60
62,45,274200,60
68,54,274200,60
65,45,274200,60
65,48,274320,120
55,48,274320,120
62,48,274320,120
67,57,274320,120
48,33,274560,120
36,33,274560,120
52,21,274800,120
55,21,274800,120
62,31,274800,120
48,33,275040,120
52,29,275280,120
55,29,275280,120
60,44,275280,120
48,33,275520,120
52,26,275760,120
55,26,275760,120
59,37,275760,120
36,33,276000,120
52,21,276240,120
54,21,276240,120
57,31,276240,120
48,33,276480,120
52,29,276720,120
55,44,276720,120
48,33,276960,120
55,26,277200,120
60,26,277200,120
64,37,277200,120
48,33,277440,120
36,33,277440,120
54,21,277680,120
57,21,277680,120
64,31,277680,120
48,33,277920,120
54,29,278160,120
57,29,278160,120
62,44,278160,120
48,33,278400,120
54,26,278640,120
57,26,278640,120
64,37,278640,120
48,41,278880,120
55,28,279120,120
59,28,279120,120
65,34,279120,120
48,43,279360,120
59,28,279600,120
65,28,279600,120
69,34,279600,120
48,45,279840,120
59,33,280080,120
65,33,280080,120
67,39,280080,120
48,33,280320,120
36,33,280320,120
52,21,280560,240
55,21,280560,240
62,31,280560,240
48,33,280800,240
52,29,281040,240
55,29,281040,240
60,44,281040,240
48,33,281280,240
52,26,281520,240
55,26,281520,240
59,37,281520,240
48,33,281760,240
52,21,282000,240
54,21,282000,240
57,31,282000,240
48,33,282240,240
52,29,282480,240
55,44,282480,240
48,33,282720,240
55,26,282960,240
60,26,282960,240
64,37,282960,240
35,41,283200,240
54,28,283440,240
57,28,283440,240
63,35,283440,240
47,48,283680,240
57,36,283920,240
63,36,283920,240
67,43,283920,240
47,54,284160,240
57,39,284400,240
63,47,284400,240
66,47,284400,240
40,57,284640,240
52,57,284640,240
59,37,284880,240
64,37,284880,240
69,45,284880,240
59,45,285120,240
64,45,285120,240
67,55,285120,240
43,44,285360,240
55,44,285360,240
59,40,285600,240
62,40,285600,240
65,40,285600,240
69,47,285600,240
62,36,285840,240
59,36,285840,240
65,36,285840,240
67,42,285840,240
48,49,286080,360
36,49,286080,360
64,32,286260,360
67,32,286260,360
76,47,286260,360
62,45,286620,360
64,45,286620,360
67,45,286620,360
74,65,286620,360
60,39,286980,360
64,39,286980,360
67,39,286980,369
72,57,286980,360
59,39,287340,180
64,39,287340,180
67,39,287340,9
71,57,287340,180
57,35,287700,360
60,35,287700,360
64,35,287700,360
69,47,287700,360
54,41,288060,360
60,41,288060,360
64,41,288060,360
66,56,288060,360
55,41,288420,180
60,41,288420,180
64,41,288420,180
67,56,288420,180
36,49,288780,540
48,49,288960,360
69,32,289140,360
64,32,289140,360
66,32,289140,360
76,47,289140,360
69,45,289500,360
61,45,289500,360
66,45,289500,360
73,65,289500,360
69,39,289860,360
62,39,289860,360
66,39,289860,369
74,57,289860,360
69,39,290220,180
64,39,290220,180
66,39,290220,9
76,57,290220,180
65,35,290580,360
68,35,290580,360
71,35,290580,360
77,47,290580,360
62,41,290940,360
65,41,290940,360
68,41,290940,360
74,56,290940,360
59,36,291300,180
62,36,291300,180
65,36,291300,180
71,50,291300,180
36,36,291660,540
48,36,291840,360
52,24,292020,360
55,24,292020,360
64,35,292020,360
52,33,292380,360
55,33,292380,360
62,48,292380,360
52,28,292740,360
55,28,292740,369
60,42,292740,360
52,28,293100,180
55,28,293100,9
59,42,293100,180
48,26,293460,360
52,26,293460,360
57,35,293460,360
48,30,293820,360
52,30,293820,360
54,42,293820,360
48,30,294180,180
52,30,294180,180
55,42,294180,180
36,36,294540,540
48,39,294720,360
53,26,294900,360
56,26,294900,360
65,38,294900,360
53,36,295260,360
56,36,295260,360
63,53,295260,360
53,31,295620,360
56,31,295620,369
61,45,295620,360
53,31,295980,180
56,31,295980,9
60,45,295980,180
48,27,296340,360
53,27,296340,360
58,38,296340,360
48,33,296700,360
53,33,296700,360
55,45,296700,360
48,33,297060,180
53,33,297060,180
56,45,297060,180
36,36,297420,540
48,47,297600,360
54,44,297780,360
57,44,297780,360
66,52,297780,360
54,41,298140,360
57,41,298140,360
64,48,298140,360
54,37,298500,360
57,37,298500,369
62,45,298500,360
36,40,298860,540
48,48,299040,360
55,47,299220,360
58,47,299220,360
67,56,299220,360
55,43,299580,360
58,43,299580,360
65,51,299580,360
55,39,299940,360
58,39,299940,369
64,46,299940,360
36,43,300300,540
48,54,300480,360
59,49,300660,360
62,49,300660,360
68,59,300660,360
59,46,301020,360
62,46,301020,360
67,54,301020,360
56,42,301380,360
59,42,301380,369
65,50,301380,360
53,39,301740,180
56,39,301740,180
62,46,301740,180
50,51,302100,360
53,51,302100,360
59,61,302100,360
47,47,302460,360
50,47,302460,360
56,57,302460,360
47,45,302820,360
50,45,302820,369
55,53,302820,360
44,42,303180,180
47,42,303180,180
53,49,303180,180
41,52,303540,360
44,52,303540,360
50,62,303540,360
38,49,303900,360
41,49,303900,360
47,59,303900,360
35,48,304260,360
38,48,304260,369
44,57,304260,360
35,46,304620,180
38,46,304620,9
43,54,304620,180
35,60,304980,360
38,60,304980,360
41,60,304980,360
38,57,305340,360
32,57,305340,360
35,57,305340,360
44,69,305340,360
38,56,305700,360
31,56,305700,360
35,56,305700,369
43,68,305700,360
38,55,306060,180
29,55,306060,180
35,55,306060,9
41,66,306060,180
28,55,306240,720
31,55,306240,720
24,55,306240,720
36,65,306240,720
60,67,306960,120
52,56,306960,120
55,56,306960,120
48,49,307320,60
55,58,307320,60
52,49,307320,60
48,55,307440,120
52,55,307440,120
55,66,307440,120
34,55,307680,720
37,55,307680,720
31,55,307680,720
43,65,307680,720
61,67,308400,120
53,56,308400,120
58,56,308400,120
49,49,308760,60
58,58,308760,60
53,49,308760,60
49,55,308880,120
53,55,308880,120
58,66,308880,120
28,55,309120,720
31,55,309120,720
24,55,309120,720
36,65,309120,720
60,67,309840,120
52,56,309840,120
55,56,309840,120
48,49,310200,60
55,58,310200,60
52,49,310200,60
48,55,310320,120
52,55,310320,120
55,66,310320,120
32,55,310560,720
35,55,310560,720
38,55,310560,720
29,55,310560,720
41,65,310560,720
68,67,311280,120
59,56,311280,120
62,56,311280,120
56,49,311640,60
65,58,311640,60
59,49,311640,60
56,55,311760,120
59,55,311760,120
65,66,311760,120
40,55,312000,480
43,55,312000,480
36,55,312000,480
48,65,312000,480
55,55,312480,120
60,66,312480,120
31,55,312720,480
34,55,312720,480
37,55,312720,480
43,65,312720,480
53,55,313200,120
58,55,313200,120
61,66,313200,120
40,55,313440,480
43,55,313440,480
36,55,313440,480
48,65,313440,480
55,55,313920,120
60,66,313920,120
35,55,314160,480
29,55,314160,480
32,55,314160,480
38,55,314160,480
41,65,314160,480
56,55,314640,120
59,55,314640,120
62,55,314640,120
65,66,314640,120
36,51,314880,120
48,61,314880,120
31,45,315120,120
43,53,315120,120
36,51,315360,120
48,61,315360,120
31,44,315600,120
43,52,315600,120
36,51,315840,120
48,61,315840,120
29,43,316080,120
41,51,316080,120
36,51,316320,120
48,61,316320,120
31,45,316560,120
43,53,316560,120
36,51,316800,120
48,61,316800,120
31,44,317040,120
43,52,317040,120
36,51,317280,120
48,61,317280,120
29,43,317520,120
41,51,317520,120
36,51,317760,120
48,61,317760,120
31,45,318000,120
43,54,318000,120
36,54,318240,120
48,63,318240,120
31,47,318480,120
43,56,318480,120
36,56,318720,120
48,67,318720,120
29,48,318960,120
41,58,318960,120
36,60,319200,120
48,71,319200,120
31,53,319440,120
43,63,319440,120
36,63,319680,120
48,74,319680,120
31,54,319920,120
43,65,319920,120
36,65,320160,120
48,77,320160,120
35,55,320400,120
38,66,320400,120
29,55,320400,120
41,80,320400,120
29,55,321120,120
35,55,321120,120
38,66,321120,120
41,80,321120,120
29,55,321840,120
35,55,321840,120
38,66,321840,120
41,80,321840,120
29,61,322080,120
35,61,322080,120
38,72,322080,120
41,87,322080,120
29,55,322320,120
35,55,322320,120
38,66,322320,120
41,80,322320,120
32,81,323040,90
31,83,323160,90
30,85,323280,90
29,87,323400,90
24,63,323520,1440
28,63,323520,1440
31,75,323520,1440
36,90,323520,1440
