note,velocity,position,duration
87,28,960,180
99,34,960,180
87,28,1200,180
99,34,1200,180
99,34,1440,180
87,28,1440,180
87,28,2400,180
99,34,2400,180
99,34,2640,180
87,28,2640,180
87,28,2880,180
99,34,2880,180
99,33,3360,180
87,27,3360,180
99,33,3600,180
87,27,3600,180
99,27,4080,180
87,22,4080,180
99,25,4320,180
87,21,4320,180
75,43,4800,180
87,40,4920,60
87,50,5040,180
99,40,5160,60
87,46,5280,180
99,39,5400,60
85,46,5520,180
99,39,5640,60
83,46,5760,180
99,40,5880,60
83,45,6000,180
99,40,6120,60
82,43,6240,180
99,40,6360,60
80,46,6480,180
99,40,6600,60
79,45,6720,180
99,37,6840,60
80,45,6960,180
99,40,7080,60
82,46,7200,180
99,40,7320,60
75,43,7440,180
99,37,7560,60
75,43,7680,180
87,37,7800,60
76,50,7920,180
87,43,8040,60
75,46,8160,180
87,40,8280,60
73,46,8400,180
87,39,8520,60
71,46,8640,180
87,40,8760,60
71,45,8880,180
87,40,9000,60
70,43,9120,180
87,37,9240,60
68,46,9360,180
87,40,9480,60
67,45,9600,180
87,37,9720,60
68,45,9840,180
87,37,9960,60
70,46,10080,180
87,40,10200,60
63,43,10320,180
75,37,10440,60
75,43,10560,180
87,37,10680,60
87,50,10800,180
99,43,10920,60
87,46,11040,180
99,41,11160,60
85,46,11280,180
99,40,11400,60
83,46,11520,180
99,41,11640,60
83,45,11760,180
99,39,11880,60
82,43,12000,180
99,39,12120,60
80,46,12240,180
99,40,12360,60
79,45,12480,180
99,39,12600,60
80,45,12720,180
99,40,12840,60
82,46,12960,180
99,40,13080,60
75,43,13200,180
99,39,13320,60
75,43,13440,180
87,40,13560,60
76,50,13680,180
87,45,13800,60
75,46,13920,180
87,43,14040,60
73,46,14160,180
75,39,14160,180
87,40,14280,60
75,46,14400,90
87,39,14520,60
80,39,14640,60
83,39,14760,60
87,46,14880,90
99,41,15000,60
75,46,15120,90
87,39,15240,60
79,39,15360,60
82,39,15480,60
87,46,15600,90
99,45,15720,60
75,41,16320,180
87,37,16440,60
99,50,16560,180
87,40,16680,60
99,46,16800,180
87,39,16920,60
99,46,17040,180
85,39,17160,50
85,39,17220,60
83,54,17280,180
99,43,17400,60
83,45,17520,180
99,40,17640,60
82,43,17760,180
99,40,17880,60
82,49,17940,60
80,49,18000,180
99,41,18120,60
79,45,18240,180
99,40,18360,60
80,45,18480,180
99,40,18600,60
79,47,18660,30
80,49,18690,30
82,50,18720,180
99,39,18840,60
75,43,18960,180
99,39,19080,60
75,43,19200,180
87,40,19320,60
78,46,19380,60
76,47,19440,180
87,41,19560,60
75,46,19680,180
87,40,19800,60
73,46,19920,180
87,39,20040,60
73,50,20100,60
71,50,20160,180
87,40,20280,60
71,45,20400,180
87,40,20520,60
70,43,20640,180
87,40,20760,60
70,50,20820,60
68,50,20880,180
87,40,21000,60
67,45,21120,180
87,40,21240,60
68,45,21360,180
87,40,21480,60
70,46,21600,180
87,39,21720,60
63,43,21840,180
75,39,21960,60
75,43,22080,180
87,40,22200,60
87,50,22320,180
99,45,22440,60
87,46,22560,180
99,43,22680,60
85,46,22800,180
99,39,22920,60
85,54,22980,60
83,54,23040,180
99,45,23160,60
83,45,23280,180
99,40,23400,60
82,45,23520,180
99,40,23640,60
82,46,23700,60
80,51,23760,180
99,40,23880,60
79,45,24000,180
99,40,24120,60
80,45,24240,180
99,40,24360,60
79,52,24420,30
80,54,24450,30
82,55,24480,180
99,39,24600,60
75,43,24720,180
99,39,24840,60
75,43,24960,180
87,40,25080,60
78,46,25140,60
76,50,25200,180
92,44,25320,60
75,46,25440,180
92,44,25560,60
73,46,25680,180
92,44,25800,60
75,46,25920,90
87,39,26040,60
80,39,26160,60
83,39,26280,60
87,46,26400,90
99,41,26520,60
75,46,26640,90
87,39,26760,60
79,39,26880,60
82,39,27000,60
87,46,27120,90
99,45,27240,60
63,40,27600,90
68,37,27720,90
75,37,27840,90
80,36,27960,90
67,36,29400,90
70,41,29400,90
66,39,29640,90
69,44,29640,90
65,41,29880,90
68,45,29880,90
64,43,30120,90
67,47,30120,90
73,54,30240,60
71,54,30300,60
70,54,30360,60
71,54,30420,60
66,61,30480,90
90,54,30600,90
71,62,30720,90
90,54,30840,90
75,56,30960,60
73,56,31020,60
72,56,31080,60
73,56,31140,60
66,63,31200,90
90,61,31320,90
73,63,31440,90
90,61,31560,90
76,54,31680,60
75,54,31740,60
74,54,31800,60
75,54,31860,60
71,61,31920,90
90,59,32040,90
71,36,32280,90
74,41,32280,90
70,39,32520,90
73,44,32520,90
69,41,32760,90
72,45,32760,90
68,43,33000,90
71,47,33000,90
77,54,33120,60
75,54,33180,60
74,54,33240,60
75,54,33300,60
70,61,33360,90
94,59,33480,90
75,62,33600,90
94,59,33720,90
78,56,33840,60
77,56,33900,60
76,56,33960,60
77,56,34020,60
70,63,34080,90
94,60,34200,90
77,62,34320,90
94,60,34440,90
80,54,34560,60
78,54,34620,60
77,54,34680,60
78,54,34740,60
75,61,34800,90
94,59,34920,90
74,36,35160,90
77,41,35160,90
73,39,35400,90
76,44,35400,90
75,45,35640,90
72,41,35640,90
74,47,35880,90
71,43,35880,90
80,54,36000,60
78,54,36060,60
77,54,36120,60
78,54,36180,60
73,61,36240,90
97,64,36360,90
78,62,36480,90
97,64,36600,90
82,56,36720,60
80,56,36780,60
79,56,36840,60
80,56,36900,60
73,63,36960,90
97,64,37080,90
80,62,37200,90
97,64,37320,90
82,47,37440,90
83,47,37560,90
85,50,37680,240
97,55,37800,120
94,55,37800,120
83,47,37920,90
82,47,38040,90
80,47,38160,90
82,47,38280,90
83,50,38400,240
95,55,38520,120
87,50,38520,120
82,47,38640,90
80,47,38760,90
78,47,38880,90
80,47,39000,90
82,50,39120,240
85,47,39240,120
94,54,39240,120
80,47,39360,90
78,47,39480,90
77,47,39600,90
78,47,39720,90
80,50,39840,240
92,51,39960,120
83,45,39960,120
75,47,40080,90
77,47,40200,90
78,50,40320,180
90,45,40440,120
82,40,40440,120
68,61,41040,90
80,61,41160,90
92,65,41280,180
80,56,41400,120
92,65,41520,180
78,55,41640,120
92,67,41760,180
76,54,41880,120
102,70,42000,180
80,55,42120,120
100,70,42240,180
80,55,42360,120
99,70,42480,180
80,55,42600,120
97,70,42720,180
80,55,42840,120
99,70,42960,180
80,54,43080,120
100,73,43200,180
80,54,43320,120
97,69,43440,180
80,55,43560,120
66,61,43920,90
78,61,44040,90
90,65,44160,180
78,56,44280,120
90,65,44400,180
76,55,44520,120
90,67,44640,180
75,54,44760,120
100,70,44880,180
78,55,45000,120
99,70,45120,180
78,55,45240,120
97,70,45360,180
78,55,45480,120
95,70,45600,180
78,55,45720,120
97,70,45840,180
78,54,45960,120
99,73,46080,180
78,54,46200,120
95,69,46320,180
78,55,46440,120
63,66,46800,90
75,61,46920,90
87,61,47040,90
75,52,47160,90
87,60,47280,90
74,54,47400,90
87,61,47520,90
73,55,47640,90
87,60,47760,90
73,57,47880,120
87,61,48000,90
71,64,48120,90
76,54,48240,90
88,73,48240,90
82,54,48360,90
87,72,48360,90
73,52,48480,90
85,71,48480,90
76,51,48600,90
83,70,48600,90
71,51,48720,90
82,70,48720,90
77,51,48840,90
80,69,48840,90
70,51,48960,90
79,69,48960,90
75,47,49080,90
82,65,49080,90
79,45,49200,90
83,62,49200,90
75,43,49320,90
82,57,49320,90
75,66,49680,90
87,61,49800,90
99,60,49920,90
87,50,50040,90
99,56,50160,90
86,52,50280,90
99,57,50400,90
85,54,50520,90
99,61,50640,90
85,55,50760,120
99,61,50880,90
83,63,51000,90
88,47,51120,90
100,66,51120,90
93,47,51240,90
99,64,51240,90
85,46,51360,90
97,63,51360,90
88,45,51480,90
95,62,51480,90
83,45,51600,90
93,62,51600,90
89,45,51720,90
92,61,51720,90
91,63,51840,90
82,45,51840,90
87,45,51960,90
94,57,51960,90
99,60,52560,90
87,55,52680,90
99,61,53280,90
87,56,53400,90
99,64,54000,90
87,57,54120,90
99,67,54480,90
87,62,54600,90
99,70,54960,90
87,62,55080,90
99,71,55440,90
81,71,55560,90
99,72,55680,90
82,72,55800,90
99,72,55920,90
83,73,56040,90
99,75,56160,90
84,75,56280,90
99,76,56400,90
85,77,56520,90
99,79,56640,90
86,79,56760,90
99,80,56880,90
87,81,57000,90
99,81,57120,90
87,81,57240,90
99,82,57360,90
87,81,57480,90
99,81,57600,90
87,79,57720,90
99,81,57840,90
87,76,57960,90
99,72,58080,90
87,61,58200,90
99,62,58320,90
87,61,58440,90
75,59,58560,240
87,61,58680,90
99,61,58800,90
87,61,58920,90
75,59,59040,240
87,55,59160,90
99,55,59280,90
87,55,59400,90
75,61,59520,90
87,55,59640,90
99,47,59760,90
87,47,59880,90
75,55,60000,240
87,47,60120,90
99,47,60240,90
87,47,60360,90
75,47,60480,90
87,47,60600,90
99,47,60720,90
87,49,60840,90
75,51,60960,90
87,51,61080,90
99,54,61200,90
87,54,61320,90
75,54,61440,90
87,55,61560,90
99,57,61680,90
87,57,61800,90
75,60,61920,90
87,60,62040,90
99,60,62160,90
87,59,62280,90
75,59,62400,90
87,57,62520,90
99,57,62640,90
87,57,62760,90
75,56,62880,90
87,56,63000,90
99,54,63120,90
87,54,63240,90
75,54,63360,90
87,54,63480,90
99,54,63600,90
87,52,63720,90
75,52,63840,90
87,51,63960,90
99,47,64080,90
87,47,64200,90
75,46,64320,90
87,45,64440,90
99,45,64560,90
87,44,64680,90
75,47,64800,90
87,47,64920,90
99,47,65040,90
87,47,65160,90
75,47,65280,90
87,47,65400,90
99,47,65531,90
87,47,65651,90
75,55,65771,240
87,47,65891,90
99,47,66011,90
87,47,66131,90
75,47,66240,90
87,47,66360,90
99,47,66480,90
87,49,66600,90
75,51,66720,90
87,51,66851,90
99,54,66960,90
87,54,67080,90
75,54,67200,90
87,55,67320,90
99,57,67440,90
87,57,67560,90
75,60,67680,90
87,60,67800,90
99,60,67920,90
87,59,68040,90
75,59,68160,240
87,57,68280,90
76,54,68400,240
87,54,68520,120
75,50,68640,240
87,50,68760,120
73,50,68880,240
87,50,69000,120
75,59,69120,240
87,54,69240,120
80,54,69360,90
83,54,69480,90
87,60,69600,240
99,54,69720,120
75,59,69840,240
87,54,69960,120
79,54,70080,90
82,54,70200,90
87,60,70320,240
99,54,70440,120
75,49,71040,40
87,49,71120,40
87,49,71200,40
87,52,71280,40
87,52,71360,40
99,52,71440,40
87,52,71520,40
87,52,71600,40
99,52,71680,40
85,52,71760,40
85,52,71840,40
97,52,71920,40
83,54,72000,40
83,54,72080,40
95,54,72160,40
83,54,72240,40
83,54,72320,40
95,54,72400,40
82,52,72480,40
82,52,72560,40
94,52,72640,40
80,54,72720,40
80,54,72800,40
92,54,72880,40
79,52,72960,40
79,52,73040,40
91,52,73120,40
80,52,73200,40
80,52,73280,40
92,52,73360,40
82,54,73440,40
82,54,73520,40
94,54,73600,40
75,50,73680,40
75,50,73760,40
87,47,73840,40
75,47,73920,40
75,47,74000,40
87,47,74080,40
76,50,74160,40
76,50,74240,40
88,50,74320,40
75,47,74400,40
75,47,74480,40
87,47,74560,40
73,47,74640,40
73,47,74720,40
85,47,74800,40
71,50,74880,40
71,50,74960,40
83,50,75040,40
71,47,75120,40
71,47,75200,40
83,47,75280,40
70,47,75360,40
70,47,75440,40
82,47,75520,40
68,49,75600,40
68,49,75680,40
80,49,75760,40
67,47,75840,40
67,47,75920,40
79,47,76000,40
68,47,76080,40
68,47,76160,40
80,47,76240,40
70,50,76320,40
70,50,76400,40
82,50,76480,40
63,47,76560,40
63,47,76640,40
75,43,76720,40
75,45,76800,40
75,45,76880,40
75,45,76960,40
87,52,77040,40
87,52,77120,40
99,52,77200,40
87,52,77280,40
87,52,77360,40
99,52,77440,40
85,52,77520,40
85,52,77600,40
97,52,77680,40
83,54,77760,40
83,54,77840,40
95,54,77920,40
83,54,78000,40
83,54,78080,40
95,54,78160,40
82,52,78240,40
82,52,78320,40
94,52,78400,40
80,54,78480,40
80,54,78560,40
92,54,78640,40
79,52,78720,40
79,52,78800,40
91,52,78880,40
80,52,78960,40
80,52,79040,40
92,52,79120,40
82,54,79200,40
82,54,79280,40
94,54,79360,40
75,50,79440,40
75,50,79520,40
87,47,79600,40
75,49,79680,40
75,49,79760,40
87,49,79840,40
76,52,79920,40
76,52,80000,40
88,52,80080,40
75,50,80160,40
75,50,80240,40
87,50,80320,40
73,47,80400,40
73,47,80480,40
85,47,80560,40
75,46,80640,40
75,46,80720,40
87,47,80800,40
76,47,80880,40
76,49,80960,40
87,49,81040,40
77,50,81120,40
77,50,81200,40
87,51,81280,40
78,51,81360,40
78,52,81440,40
87,52,81520,40
79,54,81600,40
79,54,81680,40
87,54,81760,40
80,55,81840,40
80,55,81920,40
87,56,82000,40
81,56,82080,40
81,55,82160,40
87,55,82240,40
82,55,82320,40
82,55,82400,40
87,55,82480,40
83,55,82560,40
83,55,82640,40
87,55,82720,40
84,54,82800,40
84,54,82880,40
87,54,82960,40
85,52,83040,40
85,52,83120,40
87,51,83200,40
86,50,83280,40
86,50,83360,40
87,49,83440,40
87,47,83520,40
87,47,83600,40
99,46,83680,40
88,45,83760,40
88,45,83840,40
99,45,83920,40
89,44,84000,40
89,44,84080,40
99,43,84160,40
90,41,84240,40
90,41,84320,40
99,40,84400,40
91,39,84480,40
91,39,84560,40
99,37,84640,40
92,36,84720,40
92,36,84800,40
99,36,84880,40
71,41,85440,240
70,43,85560,120
71,37,85680,90
69,44,85680,90
71,39,85800,90
68,45,85800,90
71,40,85920,90
67,45,85920,90
71,41,86040,90
66,46,86040,90
71,43,86160,90
65,47,86160,90
71,44,86280,90
64,49,86280,90
73,57,86400,60
71,50,86460,60
70,50,86520,60
71,50,86580,60
66,54,86640,240
78,50,86700,54
78,50,86760,54
78,50,86820,54
71,54,86880,240
83,50,86940,54
83,50,87000,54
83,50,87060,54
73,54,87120,240
85,51,87180,54
85,51,87240,54
85,51,87300,54
78,54,87360,240
90,51,87420,54
90,51,87480,54
90,51,87540,54
85,54,87600,240
97,52,87680,72
90,52,87680,72
97,54,87760,72
90,54,87760,72
87,56,87840,240
99,54,87920,72
90,54,87920,72
99,54,88000,72
90,54,88000,72
83,54,88080,120
75,41,88320,240
74,43,88440,120
75,37,88560,90
73,44,88560,90
75,39,88680,90
72,45,88680,90
75,40,88800,90
71,45,88800,90
75,41,88920,90
70,46,88920,90
75,43,89040,90
69,47,89040,90
75,44,89160,90
68,49,89160,90
77,56,89280,60
75,50,89340,60
74,50,89400,60
75,50,89460,60
70,54,89520,240
82,50,89580,54
82,50,89640,54
82,50,89700,54
75,54,89760,240
87,50,89820,54
87,50,89880,54
87,50,89940,54
77,54,90000,240
89,51,90060,54
89,51,90120,54
89,51,90180,54
82,54,90240,240
94,51,90300,54
94,51,90360,54
94,51,90420,54
89,54,90480,240
101,52,90560,72
94,52,90560,72
101,54,90640,72
94,54,90640,72
90,56,90720,240
102,54,90800,72
94,54,90800,72
102,54,90880,72
94,54,90880,72
87,54,90960,120
78,41,91200,240
77,43,91320,120
78,37,91440,90
76,44,91440,90
78,39,91560,90
75,45,91560,90
78,40,91680,90
74,45,91680,90
78,41,91800,90
73,46,91800,90
78,43,91920,90
72,47,91920,90
78,44,92040,90
71,49,92040,90
80,56,92160,60
78,50,92220,60
77,50,92280,60
78,50,92340,60
73,54,92400,240
85,50,92460,54
85,50,92520,54
85,50,92580,54
78,54,92640,240
90,50,92700,54
90,50,92760,54
90,50,92820,54
80,54,92880,240
92,51,92940,54
92,51,93000,54
92,51,93060,54
85,54,93120,240
97,54,93200,72
92,54,93200,72
97,54,93280,72
92,54,93280,72
97,54,93360,72
92,54,93360,72
92,52,93440,72
97,52,93440,72
92,54,93520,72
97,54,93520,72
97,40,93600,60
94,40,93600,120
99,40,93660,60
97,39,93720,60
93,39,93720,120
99,37,93780,60
97,37,93840,60
92,37,93840,120
99,36,93900,60
97,36,93960,60
91,36,93960,120
99,36,94020,60
97,35,94080,60
90,35,94080,240
99,35,94140,60
97,34,94200,60
99,34,94260,60
95,37,94320,60
92,37,94320,120
97,37,94380,60
95,36,94440,60
91,36,94440,120
97,36,94500,60
95,36,94560,60
90,36,94560,120
97,36,94620,60
95,35,94680,60
89,35,94680,120
97,35,94740,60
95,34,94800,60
87,34,94800,240
97,34,94860,60
95,33,94920,60
97,33,94980,60
94,37,95040,60
90,37,95040,120
95,37,95100,60
94,36,95160,60
89,36,95160,120
95,36,95220,60
94,36,95280,60
87,36,95280,120
95,36,95340,60
94,36,95400,60
86,36,95400,120
95,35,95460,60
94,35,95520,60
85,35,95520,240
95,34,95580,60
94,34,95640,60
95,32,95700,60
92,37,95760,60
89,37,95760,120
94,37,95820,60
92,36,95880,60
87,36,95880,120
94,36,95940,60
92,35,96000,60
86,35,96000,120
94,34,96060,60
92,33,96120,60
85,33,96120,120
94,32,96180,60
92,32,96240,60
83,32,96240,240
87,36,96300,60
88,39,96360,60
89,41,96420,60
90,43,96480,60
92,43,96540,60
90,43,96600,60
92,43,96660,60
78,59,96720,240
90,45,96780,60
92,45,96840,60
90,45,96900,60
79,60,96960,240
91,47,97020,60
92,47,97080,60
91,47,97140,60
80,63,97200,240
92,51,97260,60
93,51,97320,60
92,50,97380,60
93,50,97440,60
92,49,97500,60
93,49,97560,60
92,47,97620,60
93,47,97680,48
92,46,97728,48
93,46,97776,48
92,45,97824,48
93,45,97872,48
92,45,97920,60
93,45,97980,60
92,45,98040,60
93,45,98100,60
92,51,98160,60
102,61,98160,180
93,51,98220,60
92,51,98280,60
93,51,98340,60
92,47,98400,60
100,60,98400,180
93,47,98460,60
92,47,98520,60
93,47,98580,60
92,51,98640,60
99,61,98640,180
93,51,98700,60
92,51,98760,60
93,51,98820,60
92,47,98880,60
97,57,98880,180
93,47,98940,60
92,47,99000,60
93,46,99060,60
92,46,99120,60
99,55,99120,180
93,46,99180,60
92,45,99240,60
93,45,99300,60
92,46,99360,60
100,56,99360,180
93,46,99420,60
92,45,99480,60
93,45,99540,60
92,51,99600,120
97,51,99600,120
79,60,99840,240
91,47,99900,60
93,47,99960,60
91,47,100020,60
78,63,100080,240
90,51,100140,60
92,51,100200,60
90,50,100260,60
92,50,100320,60
90,49,100380,60
92,49,100440,60
90,47,100500,60
92,47,100560,48
90,46,100608,48
92,46,100656,48
90,45,100704,48
92,45,100752,48
90,45,100800,60
92,45,100860,60
90,45,100920,60
92,45,100980,60
90,51,101040,60
100,61,101040,180
92,51,101100,60
90,51,101160,60
92,51,101220,60
90,47,101280,60
99,60,101280,180
92,47,101340,60
90,47,101400,60
92,47,101460,60
90,51,101520,60
97,61,101520,180
92,51,101580,60
90,51,101640,60
92,51,101700,60
90,47,101760,60
95,57,101760,180
92,47,101820,60
90,47,101880,60
92,46,101940,60
90,46,102000,60
97,55,102000,180
92,46,102060,60
90,45,102120,60
92,45,102180,60
90,46,102240,60
99,56,102240,180
92,46,102300,60
90,46,102360,60
92,46,102420,60
90,51,102480,120
95,51,102480,120
74,57,102720,240
86,47,102780,60
87,47,102840,60
86,47,102900,60
75,57,102960,240
87,51,103020,60
88,50,103080,60
87,50,103140,60
88,49,103200,60
87,49,103260,60
88,47,103320,60
87,47,103380,60
88,46,103440,60
87,46,103500,60
88,45,103560,60
87,45,103620,60
88,43,103680,45
87,44,103725,45
86,45,103770,45
87,45,103815,45
88,46,103860,45
89,47,103905,45
90,49,103950,45
91,49,103995,45
92,51,104040,45
93,52,104085,45
94,54,104130,45
95,55,104175,45
96,56,104220,45
97,57,104265,45
98,59,104310,45
99,60,104355,45
100,61,104400,48
102,60,104448,48
100,60,104496,48
99,59,104544,48
98,57,104592,48
97,56,104640,48
96,55,104688,48
95,54,104736,48
94,54,104784,48
93,52,104832,48
92,51,104880,48
91,50,104928,48
90,49,104976,48
89,47,105024,48
88,46,105072,48
87,46,105120,240
70,57,105360,240
82,47,105420,60
83,47,105480,60
82,47,105540,60
74,57,105600,240
86,47,105660,60
87,47,105720,60
86,47,105780,60
75,57,105840,240
87,51,105900,60
88,50,105960,60
87,50,106020,60
88,49,106080,60
87,49,106140,60
88,47,106200,60
87,47,106260,60
88,46,106320,60
87,46,106380,60
88,45,106440,60
87,45,106500,60
88,43,106560,45
87,44,106605,45
86,45,106650,45
87,45,106695,45
88,46,106740,45
89,47,106785,45
90,49,106830,45
91,49,106875,45
92,51,106920,45
93,52,106965,45
94,54,107010,45
95,55,107055,45
96,56,107100,45
97,57,107145,45
98,59,107190,45
99,60,107235,45
100,61,107280,48
102,60,107328,48
100,60,107376,48
99,59,107424,48
98,57,107472,48
97,56,107520,48
96,55,107568,48
95,54,107616,48
94,54,107664,48
93,52,107712,48
92,51,107760,48
91,50,107808,48
90,49,107856,48
89,47,107904,48
88,46,107952,48
87,43,108000,45
88,43,108045,45
87,44,108090,42
86,45,108132,42
87,45,108174,42
88,46,108216,42
89,47,108258,42
90,49,108300,42
91,50,108342,42
92,51,108384,42
93,52,108426,42
94,54,108468,42
95,55,108510,42
96,56,108552,42
97,57,108594,42
98,59,108636,42
99,60,108678,42
100,61,108719,48
102,60,108767,48
100,60,108815,48
99,59,108863,48
98,57,108911,48
97,56,108959,48
96,55,109007,48
95,54,109055,48
94,54,109103,48
93,52,109151,48
92,51,109199,48
91,50,109247,48
90,49,109295,48
89,47,109343,48
88,46,109391,48
87,43,109440,45
88,43,109485,45
87,44,109530,42
86,45,109572,42
87,45,109614,42
88,46,109656,42
89,47,109698,42
90,49,109740,42
91,50,109782,42
92,51,109824,42
93,52,109866,42
94,54,109908,42
95,55,109950,42
96,56,109992,42
97,57,110034,42
98,59,110076,42
99,60,110118,42
100,67,110160,60
102,63,110220,60
100,63,110280,60
99,63,110340,60
98,67,110400,60
99,63,110460,60
98,63,110520,60
97,63,110580,60
96,67,110640,60
97,63,110700,60
96,63,110760,60
95,63,110820,60
94,67,110880,60
95,63,110944,60
94,63,110995,60
93,63,111065,60
92,67,111121,60
93,63,111175,60
92,63,111240,60
91,63,111297,60
90,62,111364,60
91,61,111421,60
90,61,111482,60
89,61,111537,60
88,61,111604,60
90,59,111656,60
88,59,111716,60
87,59,111783,60
86,60,111838,60
87,56,111905,60
86,56,111958,60
85,56,112018,60
84,59,112076,60
85,56,112143,60
84,56,112204,60
83,56,112262,60
82,57,112321,60
83,54,112383,60
82,54,112437,60
81,54,112496,60
80,56,112555,60
81,54,112615,60
80,54,112683,60
79,54,112744,60
78,55,112797,60
79,52,112856,60
78,52,112921,60
77,52,112975,60
76,55,113036,60
78,52,113099,60
76,52,113163,60
75,52,113222,60
74,54,113280,60
75,51,113335,60
74,51,113399,60
73,51,113457,60
72,54,113522,60
73,50,113578,60
72,50,113639,60
71,50,113697,60
70,52,113761,60
71,49,113820,60
70,49,113881,60
69,49,113936,60
68,51,114000,60
69,47,114065,60
68,47,114122,60
67,47,114185,60
66,50,114237,60
67,46,114298,60
66,46,114356,60
65,46,114425,60
64,46,114480,60
62,46,114545,60
64,46,114596,60
63,46,114661,60
65,46,114716,60
64,46,114779,60
66,46,114845,60
65,46,114895,60
67,46,114964,60
66,46,115018,60
68,46,115077,60
67,46,115143,60
69,46,115199,60
68,46,115257,60
70,46,115321,60
69,46,115381,60
71,46,115439,60
70,46,115500,60
72,46,115561,60
71,46,115621,60
73,46,115684,60
72,46,115744,60
74,46,115801,60
73,46,115862,60
75,46,115921,60
74,46,115979,60
76,46,116037,60
75,46,116103,60
77,45,116161,60
76,45,116224,60
78,45,116277,60
77,46,116337,60
79,47,116401,60
78,49,116462,60
80,49,116521,60
79,50,116578,60
81,51,116640,60
80,52,116695,60
82,54,116763,60
81,54,116821,60
83,54,116881,60
82,55,116942,60
84,56,117003,60
83,57,117056,60
85,57,117121,60
84,59,117184,60
86,60,117245,60
85,61,117301,60
87,62,117363,60
86,63,117415,60
88,63,117482,60
87,64,117545,60
89,65,117598,60
88,66,117661,60
90,67,117718,60
89,67,117776,60
91,69,117836,60
90,70,117904,60
92,71,117964,60
91,72,118023,60
93,72,118076,60
92,72,118138,60
94,73,118195,60
93,75,118255,60
95,76,118322,60
94,77,118384,60
96,77,118440,60
95,79,118499,60
97,80,118559,60
96,81,118618,60
98,81,118680,60
97,81,118740,60
99,83,118796,60
98,77,118858,60
100,83,118923,60
98,77,118978,60
99,83,119044,60
98,79,119105,60
100,83,119164,60
98,79,119222,60
99,83,119278,60
98,79,119345,60
100,83,119396,60
98,79,119455,60
99,81,119523,60
98,75,119580,60
100,76,119641,60
98,72,119705,60
99,72,119755,60
98,73,119824,60
100,73,119882,60
98,73,119938,60
99,71,119996,60
98,70,120060,60
100,67,120117,60
98,65,120178,60
99,61,120245,60
100,61,120301,60
99,61,120362,60
100,61,120416,60
99,61,120480,60
100,62,120539,60
99,65,120600,60
100,67,120663,60
99,71,120720,60
100,72,120779,60
99,75,120842,60
100,79,120900,60
99,81,120961,60
100,82,121019,60
99,84,121075,60
100,89,121142,60
99,90,121196,60
100,90,121261,60
99,93,121324,60
100,92,121380,60
99,96,121443,60
100,93,121500,60
99,99,121559,60
100,94,121623,60
99,99,121681,60
100,92,121738,60
99,99,121805,60
100,92,121861,60
99,99,121916,60
100,99,121979,60
99,99,122036,60
100,94,122103,60
99,99,122165,60
100,93,122221,60
99,99,122275,60
100,93,122338,60
99,99,122395,60
100,92,122462,60
99,95,122516,60
100,92,122584,60
99,90,122644,60
100,86,122701,60
99,82,122762,60
100,79,122824,60
99,75,122875,60
100,72,122936,60
99,69,123002,60
100,65,123061,60
99,59,123117,60
100,54,123175,60
99,57,123236,60
100,56,123301,60
99,56,123358,60
100,53,123418,60
99,55,123479,60
100,52,123542,60
99,47,123603,60
100,44,123663,60
99,46,123720,60
100,44,123781,60
99,46,123843,60
100,45,123904,60
99,46,123956,60
100,43,124021,60
99,46,124077,60
87,57,124080,240
100,44,124136,60
99,46,124204,60
100,45,124255,60
87,46,124319,1
99,46,124321,60
100,46,124378,60
99,46,124441,60
100,44,124497,60
99,46,124556,60
87,29,124558,120
100,44,124623,60
99,46,124676,60
100,44,124738,60
87,29,124803,120
99,46,124804,60
100,44,124863,60
99,46,124923,60
100,46,124981,60
87,29,125038,120
99,46,125044,60
100,44,125097,60
99,46,125164,60
100,45,125217,60
87,29,125277,120
99,46,125280,60
100,44,125345,60
99,46,125395,60
100,45,125455,60
99,46,125519,60
87,29,125520,120
100,44,125576,60
99,46,125637,60
100,44,125704,60
99,46,125756,60
87,29,125757,120
100,44,125816,60
99,47,125885,60
100,44,125935,60
99,47,125995,60
87,30,125995,120
100,43,126058,60
99,47,126125,60
100,44,126179,60
87,30,126239,120
99,47,126245,60
100,45,126304,60
99,47,126360,60
100,43,126424,60
99,47,126479,60
87,29,126482,120
100,45,126537,60
99,47,126595,60
100,45,126660,60
99,47,126719,60
87,29,126725,120
100,47,126777,60
99,47,126841,60
100,45,126897,60
87,29,126962,120
99,46,126965,60
100,44,127019,60
99,46,127084,60
100,44,127135,60
99,46,127201,60
87,29,127205,120
100,43,127263,60
99,46,127321,60
100,45,127376,60
87,29,127437,120
99,46,127439,60
100,44,127495,60
99,46,127559,60
100,43,127615,60
87,29,127682,120
99,45,127684,60
100,43,127735,60
99,45,127803,60
100,43,127862,60
87,27,127922,120
99,45,127923,60
100,42,127980,60
99,45,128042,60
100,41,128096,60
87,27,128162,120
99,44,128163,60
100,40,128223,60
99,44,128275,60
100,41,128344,60
87,27,128402,120
99,44,128402,60
100,40,128455,60
99,43,128521,60
100,39,128585,60
87,27,128635,120
99,43,128638,60
100,39,128696,60
99,41,128765,60
100,36,128821,60
87,25,128878,120
99,44,128885,60
100,40,128939,60
99,45,129002,60
100,40,129057,60
87,25,129116,120
99,45,129117,60
100,42,129180,60
99,45,129244,60
100,41,129296,60
99,46,129359,60
87,25,129364,120
100,43,129415,60
99,46,129483,60
100,44,129536,60
99,46,129603,60
87,29,129605,120
100,43,129664,60
99,46,129717,60
100,43,129780,60
87,29,129835,120
99,46,129843,60
100,43,129896,60
99,46,129959,60
100,43,130018,60
99,46,130075,60
87,29,130085,120
100,43,130137,60
99,46,130197,60
100,43,130257,60
99,44,130320,60
100,49,130380,60
99,49,130440,60
87,49,130500,54
87,40,130560,60
88,40,130620,60
87,40,130680,60
75,40,130740,60
87,40,130800,80
88,40,130880,80
87,40,130960,80
99,47,131040,60
100,47,131100,60
99,47,131160,60
87,47,131220,54
87,41,131280,60
88,40,131340,60
87,40,131400,60
75,40,131460,60
87,40,131520,80
88,40,131600,80
87,40,131680,80
99,49,131760,60
100,49,131820,60
99,49,131880,60
87,49,131940,54
87,40,132000,60
88,40,132060,60
87,40,132120,60
75,40,132180,60
87,40,132240,80
88,40,132320,80
87,40,132400,80
99,47,132480,60
100,47,132540,60
99,47,132600,60
87,47,132660,54
87,41,132720,60
88,41,132780,60
87,41,132840,60
75,41,132900,60
87,41,132960,80
88,41,133040,80
87,41,133120,80
99,45,133200,60
100,45,133260,60
99,45,133320,60
87,45,133380,60
80,45,133440,120
71,45,133440,120
75,41,133560,120
83,41,133560,120
87,46,133680,180
80,46,133680,180
99,45,133920,60
100,44,133980,60
99,44,134040,60
87,44,134100,60
79,40,134160,120
70,40,134160,120
73,36,134280,120
82,36,134280,120
87,40,134400,180
79,40,134400,180
75,54,135120,240
87,43,135180,60
88,43,135240,60
87,43,135300,60
87,60,135360,120
99,46,135420,60
100,46,135480,60
99,46,135540,60
87,60,135600,120
99,44,135660,60
100,44,135720,60
99,44,135780,60
85,55,135840,120
97,44,135900,60
99,44,135960,60
97,45,136020,60
83,59,136080,120
95,45,136140,60
97,45,136200,60
95,46,136260,60
83,54,136320,120
95,40,136380,60
97,41,136440,60
95,41,136500,60
82,55,136560,120
94,40,136620,60
95,40,136680,60
94,41,136740,60
80,59,136800,120
92,41,136860,60
94,41,136920,60
92,41,136980,60
79,59,137040,120
91,41,137100,60
92,41,137160,60
91,41,137220,60
80,63,137280,120
92,43,137340,60
94,43,137400,60
92,44,137460,60
82,67,137520,240
94,51,137580,60
95,51,137640,60
94,51,137700,60
75,59,137760,180
87,44,137820,60
88,44,137880,60
87,44,137940,60
75,59,138000,240
87,44,138060,60
88,44,138120,60
87,45,138180,60
76,62,138240,180
88,45,138300,60
90,45,138360,60
88,45,138420,60
75,56,138480,180
87,43,138540,60
88,43,138600,60
87,43,138660,60
73,56,138720,180
85,43,138780,60
87,43,138840,60
85,43,138900,60
71,60,138960,210
83,43,139020,60
85,43,139080,60
83,43,139140,60
71,54,139200,180
83,39,139260,60
85,39,139320,60
83,39,139380,60
70,54,139440,180
82,41,139500,60
83,41,139560,60
82,43,139620,60
68,60,139680,180
80,45,139740,60
82,46,139800,60
80,46,139860,60
67,54,139920,180
79,43,139980,60
80,43,140040,60
79,43,140100,60
68,52,140160,180
80,41,140220,60
82,41,140280,60
80,41,140340,60
70,54,140400,240
82,43,140460,60
83,43,140520,60
82,43,140580,60
63,49,140640,120
75,37,140700,60
76,37,140760,60
75,37,140820,60
75,59,140880,240
87,43,140940,60
88,43,141000,60
87,43,141060,60
87,64,141120,180
99,52,141180,60
100,52,141240,60
99,52,141300,60
87,63,141360,180
99,49,141420,60
100,49,141480,60
99,49,141540,60
85,63,141600,180
97,49,141660,60
99,49,141720,60
97,49,141780,60
84,62,141840,180
96,50,141900,60
97,50,141960,60
96,50,142020,60
84,60,142080,180
96,47,142140,60
97,47,142200,60
96,47,142260,60
81,59,142320,180
93,46,142380,60
95,46,142440,60
93,46,142500,60
80,62,142560,180
92,46,142620,60
93,46,142680,60
92,46,142740,60
80,59,142800,180
92,45,142860,60
93,45,142920,60
92,45,142980,60
78,57,143040,180
90,41,143100,60
92,41,143160,60
90,41,143220,60
76,55,143280,240
88,44,143340,60
90,44,143400,60
88,44,143460,60
73,51,143520,240
85,40,143580,60
87,40,143640,60
85,40,143700,60
75,54,143760,240
87,41,143820,60
88,41,143880,60
87,41,143940,60
76,55,144000,240
88,45,144060,60
90,45,144120,60
88,45,144180,60
75,52,144240,240
87,40,144300,60
88,40,144360,60
87,40,144420,60
73,49,144480,240
85,37,144540,60
87,37,144600,60
85,37,144660,60
75,43,144716,60
87,43,144781,60
76,44,144844,60
77,44,144905,60
78,45,144957,60
79,45,145023,60
80,45,145082,60
81,45,145142,60
82,46,145205,60
83,47,145260,60
84,47,145325,60
85,49,145382,60
86,49,145436,60
87,50,145501,60
88,50,145561,60
89,51,145619,60
90,52,145685,60
91,52,145740,60
92,54,145801,60
93,54,145860,60
94,54,145917,60
95,54,145979,60
96,55,146038,60
97,56,146095,60
98,57,146163,70
99,59,146227,70
102,63,146295,65
100,62,146364,65
97,61,146431,65
94,60,146490,65
91,57,146557,65
86,56,146621,65
87,55,146692,65
90,61,146754,65
88,60,146821,65
85,59,146887,65
82,57,146949,65
79,60,147017,65
76,55,147079,65
73,54,147149,65
70,51,147211,65
67,49,147272,65
64,47,147345,65
61,45,147409,65
58,44,147469,65
55,41,147540,65
59,41,147840,80
63,41,147920,80
68,41,148000,80
71,41,148320,80
75,41,148400,80
83,45,148480,80
80,40,148560,240
83,37,148920,90
71,37,148920,90
83,41,149040,90
71,41,149040,90
83,45,149160,90
71,45,149160,90
71,47,149280,90
83,47,149280,90
83,51,149400,90
71,51,149400,90
83,66,149520,90
66,49,149640,90
71,50,149760,90
78,60,149760,90
66,49,149880,90
83,64,150000,90
66,49,150120,90
85,71,150240,90
66,49,150360,90
73,54,150480,90
78,64,150480,90
66,49,150600,90
85,70,150720,90
66,50,150840,90
87,73,150960,120
66,60,151080,90
75,60,151200,90
83,59,151320,90
87,57,151440,90
95,62,151560,90
87,37,151800,90
75,37,151800,90
87,41,151920,90
75,41,151920,90
87,45,152040,90
75,45,152040,90
87,47,152160,90
75,47,152160,90
87,51,152280,90
75,51,152280,90
87,70,152400,90
70,49,152520,90
75,50,152640,90
82,60,152640,90
70,49,152760,90
87,70,152880,90
70,49,153000,90
89,76,153120,90
70,49,153240,90
77,54,153360,90
82,64,153360,90
70,49,153480,90
89,72,153600,90
70,50,153720,90
90,79,153840,120
70,60,153960,90
78,60,154080,90
87,59,154200,90
90,59,154320,90
99,62,154440,90
90,37,154680,90
78,37,154680,90
90,41,154800,90
78,41,154800,90
90,45,154920,90
78,45,154920,90
90,47,155040,90
78,47,155040,90
90,51,155160,90
78,51,155160,90
90,70,155280,90
73,49,155400,90
78,50,155520,90
85,60,155520,90
73,49,155640,90
90,70,155760,90
73,49,155880,90
92,76,156000,90
73,49,156120,90
80,54,156240,90
85,64,156240,90
73,49,156360,90
92,72,156480,90
73,50,156600,90
94,44,156720,90
90,44,156720,90
85,44,156720,90
95,47,156840,90
92,47,156840,90
85,47,156840,90
97,52,156960,90
94,52,156960,90
85,52,156960,90
97,52,157080,90
94,52,157080,90
85,52,157080,90
95,50,157200,90
92,50,157200,90
85,50,157200,90
94,47,157320,90
90,47,157320,90
85,47,157320,90
92,46,157440,90
87,46,157440,90
83,46,157440,90
94,50,157560,90
87,50,157560,90
85,50,157560,90
87,54,157680,90
95,54,157680,90
95,54,157800,90
87,54,157800,90
94,47,157920,90
87,47,157920,90
85,47,157920,90
92,45,158040,90
87,45,158040,90
83,45,158040,90
90,45,158160,90
85,45,158160,90
82,45,158160,90
83,47,158280,90
85,47,158280,90
92,47,158280,90
94,52,158400,90
85,52,158400,90
85,52,158520,90
94,52,158520,90
85,49,158640,90
83,49,158640,90
92,49,158640,90
90,46,158760,90
85,46,158760,90
82,46,158760,90
80,45,158880,90
85,45,158880,90
89,45,158880,90
90,46,159000,90
85,46,159000,90
82,46,159000,90
83,50,159120,90
85,50,159120,90
92,50,159120,90
83,50,159240,90
85,50,159240,90
92,50,159240,90
78,47,159360,90
87,47,159360,90
85,47,159360,90
89,45,159480,90
85,45,159480,90
80,45,159480,90
90,50,159600,240
85,50,159600,240
78,50,159600,240
56,64,160560,90
68,64,160560,90
56,64,160680,90
68,64,160680,90
80,71,161040,240
92,71,161040,240
90,45,161280,90
102,45,161280,90
102,45,161400,90
90,45,161400,90
88,45,161520,90
100,45,161520,90
100,45,161640,90
88,45,161640,90
99,45,161760,90
87,45,161760,90
87,45,161880,90
99,45,161880,90
85,45,162000,90
97,45,162000,90
97,45,162120,90
85,45,162120,90
99,45,162240,90
87,45,162240,90
99,45,162360,90
87,45,162360,90
100,47,162480,240
88,47,162480,240
54,64,163440,90
66,64,163440,90
54,64,163560,90
66,64,163560,90
78,71,163920,240
90,71,163920,240
88,45,164160,90
100,45,164160,90
100,45,164280,90
88,45,164280,90
87,45,164400,90
99,45,164400,90
99,45,164520,90
87,45,164520,90
97,45,164640,90
85,45,164640,90
85,45,164760,90
97,45,164760,90
83,45,164880,90
95,45,164880,90
95,45,165000,90
83,45,165000,90
97,45,165120,90
85,45,165120,90
97,45,165240,90
85,45,165240,90
99,47,165360,240
87,47,165360,240
51,64,166320,90
63,64,166320,90
51,64,166440,90
63,64,166440,90
75,71,166800,240
87,71,166800,240
87,59,167040,90
75,59,167040,90
87,60,167160,90
75,60,167160,90
87,62,167280,90
75,62,167280,90
87,64,167400,90
75,64,167400,90
76,64,167520,120
88,64,167520,120
75,64,167640,120
87,64,167640,120
73,63,167760,120
85,63,167760,120
71,62,167880,120
83,62,167880,120
70,61,168000,120
82,61,168000,120
68,61,168120,120
80,61,168120,120
67,60,168240,240
79,60,168240,240
51,69,169200,90
63,69,169200,90
51,69,169320,90
63,69,169320,90
75,76,169680,240
87,76,169680,240
99,69,169920,90
87,69,169920,90
99,71,170040,90
87,71,170040,90
99,72,170160,90
87,72,170160,90
87,73,170280,90
99,73,170280,90
88,73,170400,90
100,73,170400,90
87,73,170520,90
99,73,170520,90
85,73,170640,90
97,73,170640,90
95,72,170760,90
83,72,170760,90
82,72,170880,90
94,72,170880,90
92,72,171000,90
80,72,171000,90
91,72,171120,90
79,72,171120,90
78,72,171240,90
90,72,171240,90
89,72,171360,90
77,72,171360,90
76,71,171480,90
88,71,171480,90
86,71,171600,90
74,71,171600,90
75,72,171720,90
87,72,171720,90
88,75,171840,90
76,75,171840,90
75,75,171960,90
87,75,171960,90
85,73,172080,90
73,73,172080,90
71,72,172200,90
83,72,172200,90
82,72,172320,90
70,72,172320,90
68,72,172440,90
80,72,172440,90
67,72,172560,90
79,72,172560,90
78,71,172680,90
66,71,172680,90
65,70,172800,90
77,70,172800,90
76,70,172920,90
64,70,172920,90
62,72,173040,90
74,72,173040,90
63,73,173160,90
75,73,173160,90
64,73,173280,90
76,73,173280,90
63,73,173400,90
75,73,173400,90
73,73,173520,90
61,73,173520,90
59,72,173640,90
71,72,173640,90
70,72,173760,90
58,72,173760,90
56,72,173880,90
68,72,173880,90
67,72,174000,90
55,72,174000,90
54,72,174120,90
66,72,174120,90
65,72,174240,90
53,72,174240,90
52,72,174360,90
64,72,174360,90
50,72,174480,90
62,72,174480,90
51,72,174600,90
63,72,174600,90
52,73,174720,90
64,73,174720,90
63,75,174840,90
52,75,174840,90
61,76,174960,90
52,76,174960,90
59,77,175080,90
52,77,175080,90
53,80,175200,90
58,80,175200,90
53,81,175320,90
56,81,175320,90
55,81,175440,240
62,81,175680,120
50,81,175680,108
63,81,175920,120
51,81,175920,108
57,81,176160,108
69,81,176160,120
58,81,176400,108
70,81,176400,120
62,81,176640,108
74,81,176640,120
63,81,176880,108
75,81,176880,120
69,81,177120,108
81,81,177120,120
82,81,177360,120
70,81,177360,108
86,82,177600,120
74,82,177600,108
87,83,177840,120
75,83,177840,108
93,84,178080,120
81,84,178080,108
94,84,178320,120
82,84,178320,108
86,92,178560,108
98,92,178560,120
99,89,178800,120
87,89,178800,108
98,93,179040,120
86,93,179040,108
99,86,179280,120
87,86,179280,108
98,87,179520,120
86,87,179520,108
99,84,179760,120
87,84,179760,120
99,84,180000,120
87,84,180000,120
99,86,180240,120
87,86,180240,120
99,87,180480,120
87,87,180480,120
99,89,180720,120
87,89,180720,120
99,89,180960,120
87,89,180960,120
99,90,181200,120
87,90,181200,120
99,90,181440,120
87,90,181440,120
99,91,181680,120
87,91,181680,120
99,92,181920,120
87,92,181920,120
99,92,182160,120
87,92,182160,120
99,93,182400,120
87,93,182400,120
87,81,182640,90
99,81,182640,90
87,77,182760,90
99,77,182760,90
87,81,182880,90
99,81,182880,90
87,76,183000,90
99,76,183000,90
87,79,183120,90
99,79,183120,90
87,76,183240,90
99,76,183240,90
87,77,183360,90
99,77,183360,90
87,76,183480,90
99,76,183480,90
87,75,183600,90
99,75,183600,90
87,73,183720,90
99,73,183720,90
87,73,183840,90
99,73,183840,90
87,72,183960,90
99,72,183960,90
87,72,184080,90
99,72,184080,90
87,70,184200,90
99,70,184200,90
87,71,184320,90
99,71,184320,90
87,69,184440,90
99,69,184440,90
87,76,184560,90
99,76,184560,90
87,70,184680,90
99,70,184680,90
87,70,184800,90
99,70,184800,90
87,70,184920,90
99,70,184920,90
87,66,185040,90
99,66,185040,90
87,66,185160,90
99,66,185160,90
85,63,185280,90
97,63,185280,90
85,62,185400,90
97,62,185400,90
95,66,185520,90
83,66,185520,90
95,66,185640,90
83,66,185640,90
95,66,185760,90
83,66,185760,90
95,66,185880,90
83,66,185880,90
94,62,186000,90
82,62,186000,90
94,62,186120,90
82,62,186120,90
92,63,186240,90
80,63,186240,90
92,63,186360,90
80,63,186360,90
91,62,186480,90
79,62,186480,90
91,62,186600,90
79,62,186600,90
92,62,186720,90
80,62,186720,90
92,62,186840,90
80,62,186840,90
94,66,186960,90
82,66,186960,90
94,66,187080,90
82,66,187080,90
87,62,187200,90
75,62,187200,90
87,62,187320,90
75,62,187320,90
87,62,187440,90
75,62,187440,90
87,62,187560,90
75,62,187560,90
88,64,187680,90
76,64,187680,90
88,64,187800,90
76,64,187800,90
87,64,187920,90
75,64,187920,90
87,62,188040,90
75,62,188040,90
85,62,188160,90
73,62,188160,90
85,62,188280,90
73,62,188280,90
83,63,188400,90
71,63,188400,90
83,63,188520,90
71,63,188520,90
83,63,188640,90
71,63,188640,90
83,62,188760,90
71,62,188760,90
82,63,188880,90
70,63,188880,90
82,63,189000,90
70,63,189000,90
80,65,189120,90
68,65,189120,90
80,65,189240,90
68,65,189240,90
79,62,189360,90
67,62,189360,90
79,62,189480,90
67,62,189480,90
80,63,189600,90
68,63,189600,90
80,63,189720,90
68,63,189720,90
82,65,189840,90
70,65,189840,90
82,64,189960,90
70,64,189960,90
63,59,190080,90
75,59,190080,90
75,59,190200,90
63,59,190200,90
87,63,190320,90
75,63,190320,90
87,63,190440,90
75,63,190440,90
99,77,190560,90
87,77,190560,90
87,77,190680,90
99,77,190680,90
99,77,190800,90
87,77,190800,90
99,77,190920,90
87,77,190920,90
97,75,191040,90
85,75,191040,90
85,75,191160,90
97,75,191160,90
96,75,191280,90
84,75,191280,90
84,75,191400,90
96,75,191400,90
84,72,191520,90
96,72,191520,90
84,72,191640,90
96,72,191640,90
93,71,191760,90
81,71,191760,90
81,71,191880,90
93,71,191880,90
92,73,192000,90
80,73,192000,90
80,73,192120,90
92,73,192120,90
92,73,192240,90
80,73,192240,90
80,73,192360,90
92,73,192360,90
90,76,192480,90
78,76,192480,90
78,76,192600,90
90,76,192600,90
88,81,192720,240
76,81,192720,240
64,49,192960,90
69,49,192960,90
73,54,192960,90
64,49,193080,90
69,49,193080,90
73,54,193080,90
64,51,193200,90
69,51,193200,90
75,56,193200,90
64,51,193320,90
69,51,193320,90
75,56,193320,90
64,54,193440,90
69,54,193440,90
76,62,193440,90
64,54,193560,90
69,54,193560,90
76,62,193560,90
64,53,193680,90
69,53,193680,90
75,60,193680,90
64,53,193800,90
69,53,193800,90
75,60,193800,90
64,50,193920,90
69,50,193920,90
73,55,193920,90
64,50,194040,90
69,50,194040,90
73,55,194040,90
63,45,194160,120
68,45,194160,120
71,45,194160,120
75,52,194160,120
64,54,194280,120
76,54,194280,120
65,54,194400,120
77,54,194400,120
66,55,194520,120
78,55,194520,120
67,57,194640,120
79,57,194640,120
68,59,194760,120
80,59,194760,120
69,60,194880,120
81,60,194880,120
70,62,195000,120
82,62,195000,120
71,63,195120,120
83,63,195120,120
72,64,195240,120
84,64,195240,120
73,66,195360,120
85,66,195360,120
74,67,195480,120
86,67,195480,120
75,62,195600,120
79,62,195600,120
82,62,195600,120
87,62,195600,120
76,71,195720,120
88,71,195720,120
77,72,195840,120
89,72,195840,120
78,72,195960,120
90,72,195960,120
79,75,196080,120
91,75,196080,120
80,76,196200,120
92,76,196200,120
81,77,196320,120
93,77,196320,120
82,79,196440,120
94,79,196440,120
83,81,196560,120
95,81,196560,120
85,83,196680,120
97,83,196680,120
86,86,196800,120
98,86,196800,120
87,90,196920,110
99,90,196920,110
59,89,197040,240
63,89,197040,240
68,99,197040,240
83,89,197520,180
75,74,197520,180
71,74,197520,180
82,80,197760,120
75,68,197760,120
70,68,197760,120
71,68,197880,120
83,80,197880,120
85,90,198000,180
73,75,198000,180
75,68,198240,120
83,80,198240,120
71,68,198240,120
82,80,198360,120
70,68,198360,120
83,81,198480,120
75,68,198480,120
71,68,198480,120
85,84,198600,120
73,71,198600,120
75,77,198720,180
87,91,198720,180
85,83,198960,120
73,70,198960,120
71,69,199080,120
83,82,199080,120
82,81,199200,120
75,68,199200,120
70,68,199200,120
83,81,199320,120
71,68,199320,120
73,74,199440,180
85,89,199440,180
75,68,199680,120
83,81,199680,120
71,68,199680,120
70,68,199800,120
82,81,199800,120
71,62,199920,120
75,62,199920,120
83,89,199920,120
82,83,200040,120
70,59,200040,120
80,83,200160,240
68,59,200160,240
95,89,200400,180
87,62,200400,180
83,62,200400,180
94,81,200640,120
87,57,200640,120
82,57,200640,120
83,57,200760,120
95,81,200760,120
97,91,200880,180
85,64,200880,180
87,56,201120,120
95,79,201120,120
83,56,201120,120
94,79,201240,120
82,56,201240,120
95,81,201360,120
87,68,201360,120
83,68,201360,120
97,84,201480,120
85,71,201480,120
87,77,201600,180
99,91,201600,180
97,80,201840,120
85,68,201840,120
83,68,201960,120
95,80,201960,120
94,80,202080,120
87,68,202080,120
82,68,202080,120
95,80,202200,120
83,68,202200,120
85,77,202320,180
97,91,202320,180
87,69,202560,120
95,82,202560,120
83,69,202560,120
82,70,202680,120
94,83,202680,120
83,77,202800,120
87,91,202800,120
95,91,202800,120
94,83,202920,120
82,70,202920,120
92,83,203040,240
80,70,203040,240
63,68,203280,240
71,68,203280,240
75,81,203280,240
63,60,203520,120
70,60,203520,120
75,71,203520,120
63,60,203640,120
71,60,203640,120
75,71,203640,120
63,66,203760,240
73,78,203760,240
75,78,203760,240
63,61,204000,120
71,61,204000,120
75,73,204000,120
63,61,204120,120
70,61,204120,120
75,73,204120,120
63,67,204240,120
71,79,204240,120
75,79,204240,120
63,61,204360,120
70,61,204360,120
75,73,204360,120
63,61,204480,216
68,61,204480,216
75,73,204480,216
87,108,204720,180
80,92,204720,180
75,92,204720,180
63,60,204960,120
70,60,204960,120
75,71,204960,120
63,60,205080,120
71,71,205080,120
75,71,205080,120
63,66,205200,240
73,66,205200,240
75,78,205200,240
63,61,205440,120
71,61,205440,120
75,73,205440,120
63,61,205560,120
70,61,205560,120
75,73,205560,120
63,67,205680,120
71,67,205680,120
75,79,205680,120
63,61,205800,120
70,61,205800,120
75,73,205800,120
63,61,205920,216
68,61,205920,216
75,73,205920,216
87,108,206160,180
80,92,206160,180
75,92,206160,180
63,67,206400,120
71,67,206400,120
75,79,206400,120
63,61,206520,120
70,61,206520,120
75,73,206520,120
63,61,206640,216
68,61,206640,216
75,73,206640,216
87,95,206880,180
80,95,206880,180
92,113,206880,180
63,67,207120,120
71,79,207120,120
75,79,207120,120
63,61,207240,120
70,61,207240,120
75,73,207240,120
63,61,207360,216
68,61,207360,216
75,73,207360,216
87,97,207600,180
83,97,207600,180
95,115,207600,180
63,67,207840,120
71,67,207840,120
75,79,207840,120
63,61,207960,120
70,61,207960,120
75,73,207960,120
63,61,208080,216
68,61,208080,216
75,73,208080,216
99,117,208320,480
92,99,208320,480
87,99,208320,480
87,84,208800,216
92,84,208800,216
99,100,208800,216
87,86,209040,216
92,86,209040,216
99,102,209040,216
87,84,209280,216
92,84,209280,216
99,100,209280,216
87,86,209520,216
92,86,209520,216
99,102,209520,216
87,93,209760,216
92,93,209760,216
99,110,209760,216
87,97,210000,240
92,97,210000,240
99,115,210000,240
59,86,210720,240
63,86,210720,240
68,102,210720,240
92,104,211440,1440
87,99,211440,1440
83,83,211440,1440
80,83,211440,1440
63,24,240,180
75,28,240,180
63,24,480,180
75,28,480,180
75,28,720,180
63,24,720,180
63,24,1680,180
75,29,1680,180
63,24,1920,180
75,29,1920,180
75,29,2160,180
63,24,2160,180
75,27,3120,180
63,22,3120,180
75,25,3840,180
63,21,3840,180
56,37,5640,300
63,39,5700,240
71,40,5760,180
59,35,6360,300
68,36,6420,240
75,37,6480,180
63,36,7080,300
70,39,7140,240
79,41,7200,180
67,36,7860,240
70,39,7920,180
68,43,8640,180
59,36,9240,300
62,36,9300,240
65,39,9360,180
63,33,10020,240
67,35,10080,180
56,36,11400,300
63,37,11460,240
71,40,11520,180
59,36,12120,300
68,37,12180,240
75,41,12240,180
63,36,12840,300
70,39,12900,240
79,41,12960,180
67,37,13620,240
70,39,13680,180
68,35,14400,180
71,39,14400,180
63,30,15120,180
73,34,15120,180
67,30,15120,180
56,40,15840,90
63,35,15960,90
71,35,16080,90
80,35,16200,90
44,39,17280,180
59,37,17520,180
51,34,17520,180
47,39,18000,180
56,34,18240,180
63,37,18240,180
51,39,18720,180
58,34,18960,180
67,37,18960,180
67,33,19440,180
70,36,19440,180
70,36,19680,180
67,33,19680,180
68,40,20160,180
68,40,20400,180
59,32,20880,180
65,36,20880,180
62,32,20880,180
59,32,21120,180
65,36,21120,180
62,32,21120,180
67,35,21600,180
51,31,21600,180
44,39,23040,180
59,36,23280,180
51,33,23280,180
47,39,23760,180
56,33,24000,180
63,36,24000,180
51,39,24480,180
58,33,24720,180
67,36,24720,180
68,31,25200,180
70,35,25200,180
61,31,25200,180
68,31,25440,180
70,35,25440,180
63,31,25440,180
70,35,25680,180
64,31,25680,180
68,31,25680,180
63,35,25920,180
71,39,25920,180
68,35,25920,180
61,30,26640,180
67,34,26640,180
51,30,26640,180
44,45,27360,90
59,40,27480,90
83,35,28080,90
87,35,28200,90
92,34,28320,90
71,45,29280,180
71,47,29520,180
71,50,29760,180
71,54,30000,180
63,35,30480,180
59,31,30480,180
66,35,30720,180
63,31,30720,180
54,31,30720,180
64,36,31200,180
58,32,31200,180
66,36,31440,180
64,32,31440,180
54,32,31440,180
63,35,31920,240
59,35,31920,240
75,45,32160,180
75,47,32400,180
75,50,32640,180
75,54,32880,180
63,31,33360,180
66,35,33360,180
70,35,33600,180
66,31,33600,180
58,31,33600,180
68,36,34080,180
62,32,34080,180
70,36,34320,180
68,32,34320,180
58,32,34320,180
63,31,34800,240
66,35,34800,240
78,45,35040,180
78,47,35280,180
78,50,35520,180
78,54,35760,180
70,35,36240,180
66,31,36240,180
70,31,36480,180
73,35,36480,180
61,35,36480,180
71,36,36960,180
65,32,36960,180
73,36,37200,180
71,32,37200,180
61,32,37200,180
78,46,37440,90
80,46,37560,90
66,47,37620,300
82,47,37680,240
80,46,37920,90
78,46,38040,90
71,46,38160,90
73,46,38280,90
59,49,38340,300
75,49,38400,240
73,46,38640,90
71,46,38760,90
70,46,38880,90
71,46,39000,90
61,49,39060,300
73,49,39120,240
71,46,39360,90
70,46,39480,90
68,46,39600,90
70,46,39720,90
61,47,39780,300
71,47,39840,240
66,47,40080,90
68,47,40200,90
54,44,40320,180
70,49,40320,180
66,51,40560,90
78,51,40680,90
67,57,40800,90
79,57,40920,90
64,43,41280,180
68,47,41280,180
63,43,41520,180
68,47,41520,180
61,45,41760,180
68,52,41760,180
75,47,42000,180
73,47,42240,180
56,45,42480,240
72,51,42480,180
70,47,42720,180
72,47,42960,180
61,45,43200,240
73,51,43200,180
76,47,43440,180
67,57,43680,90
79,57,43800,90
63,43,44160,180
66,47,44160,180
61,43,44400,180
66,47,44400,180
59,45,44640,180
66,52,44640,180
73,47,44880,180
71,47,45120,180
54,45,45360,240
70,51,45360,180
68,47,45600,180
70,47,45840,180
59,45,46080,240
71,51,46080,180
75,47,46320,180
62,57,46560,90
74,52,46680,90
63,52,47040,180
55,45,47040,180
56,45,47280,180
65,52,47280,180
58,52,47520,180
67,57,47520,180
58,53,47760,180
67,59,47760,180
59,53,48000,180
68,59,48000,180
61,52,48240,180
70,57,48240,180
62,45,48720,180
65,52,48720,180
63,50,48960,180
67,55,48960,180
74,57,49440,90
86,52,49560,90
75,45,49920,180
67,41,49920,180
68,41,50160,180
77,45,50160,180
70,45,50400,180
79,51,50400,180
70,45,50640,180
79,52,50640,180
71,45,50880,180
80,52,50880,180
73,45,51120,180
81,51,51120,180
74,42,51600,180
77,46,51600,180
75,42,51840,180
79,46,51840,180
74,57,52080,90
86,52,52200,90
75,52,52320,90
87,52,52440,90
75,56,52800,90
87,51,52920,90
76,57,53040,90
88,54,53160,90
76,59,53520,90
88,54,53640,90
77,62,53760,90
89,57,53880,90
78,61,54240,90
90,56,54360,90
79,64,54720,90
91,60,54840,90
80,70,55200,90
92,65,55320,90
63,49,59520,180
75,54,59760,180
73,51,60240,180
56,42,60480,240
71,54,60480,180
71,50,60720,180
70,51,60960,180
59,37,61200,240
68,54,61200,180
67,54,61440,180
68,57,61680,180
67,45,61860,300
70,62,61920,240
63,54,62160,180
63,54,62400,180
55,44,62640,240
64,56,62640,180
63,52,62880,180
61,52,63120,180
56,44,63360,240
59,54,63360,158
59,50,63600,180
58,49,63840,180
52,45,64020,300
56,54,64080,180
55,50,64320,180
56,47,64560,180
55,40,64800,240
58,50,64800,240
51,45,65040,120
63,57,65460,60
75,56,65531,180
73,51,66011,180
56,42,66240,240
71,54,66240,180
71,50,66480,180
70,51,66720,180
59,37,66960,240
68,54,66960,180
67,54,67200,180
68,57,67440,180
70,62,67680,240
67,40,67680,240
63,54,67920,180
61,45,68400,240
70,45,68400,240
68,40,68400,240
63,44,68640,240
70,43,68640,240
68,37,68640,240
64,44,68880,240
70,43,68880,240
68,37,68880,240
63,44,69120,240
68,44,69120,240
71,50,69120,240
63,42,69840,240
67,42,69840,240
73,46,69840,240
56,52,70560,90
63,47,70680,90
71,47,70800,90
80,47,70920,90
44,54,72000,240
59,50,72240,120
51,44,72240,120
51,44,72480,120
59,50,72480,120
47,54,72720,240
63,50,72960,120
56,44,72960,120
56,44,73200,120
63,50,73200,120
51,54,73440,240
67,47,73680,120
58,43,73680,120
67,47,73920,120
58,43,73920,120
55,50,74160,240
70,45,74400,120
63,40,74400,120
63,40,74640,120
70,45,74640,120
56,47,74880,240
68,44,75120,120
63,39,75120,120
63,39,75360,120
68,44,75360,120
59,49,75600,240
62,36,75840,120
65,41,75840,120
62,36,76080,120
65,41,76080,120
51,46,76320,240
67,37,76560,240
58,34,76560,240
44,54,77760,240
59,50,78000,120
51,44,78000,120
51,44,78240,120
59,50,78240,120
47,54,78480,240
63,50,78720,120
56,44,78720,120
56,44,78960,120
63,50,78960,120
51,54,79200,240
67,39,79440,180
58,35,79440,180
67,36,79680,180
70,41,79680,180
68,37,79920,180
71,43,79920,180
66,35,80160,180
70,40,80160,180
64,35,80400,180
68,39,80400,180
68,41,80640,240
63,41,80640,240
71,45,80640,240
67,50,82080,240
61,44,82080,240
51,44,82080,240
68,37,83520,240
59,34,83520,240
51,34,83520,240
44,34,83520,240
68,41,85440,120
67,43,85560,120
66,44,85680,90
65,45,85800,90
64,45,85920,90
63,46,86040,90
62,47,86160,90
61,49,86280,90
63,49,86640,180
59,44,86640,180
66,49,86880,180
63,44,86880,180
54,44,86880,180
64,46,87360,180
58,42,87360,180
66,46,87600,180
54,42,87600,180
58,42,87600,180
47,50,87840,180
63,45,88080,120
54,41,88080,120
71,41,88320,240
70,44,88560,90
69,45,88680,90
68,45,88800,90
67,46,88920,90
66,47,89040,90
65,49,89160,90
66,49,89520,180
63,44,89520,180
70,49,89760,180
66,44,89760,180
58,44,89760,180
68,46,90240,180
62,42,90240,180
70,46,90480,180
58,42,90480,180
62,42,90480,180
51,50,90720,180
66,45,90960,120
58,41,90960,120
75,41,91200,120
74,41,91320,120
73,44,91440,90
72,45,91560,90
71,45,91680,90
70,46,91800,90
69,47,91920,90
68,49,92040,90
70,49,92400,180
66,44,92400,180
73,49,92640,180
70,44,92640,180
61,44,92640,180
71,46,93120,180
65,42,93120,180
73,46,93360,180
61,42,93360,180
65,42,93360,180
66,55,93600,240
78,44,93840,90
82,49,93840,90
80,44,93960,90
83,49,93960,90
82,45,94080,180
85,52,94080,180
59,55,94320,240
80,49,94560,90
71,44,94560,90
82,49,94680,90
73,44,94680,90
75,45,94800,180
83,51,94800,180
61,55,95040,240
70,44,95280,90
78,49,95280,90
71,44,95400,90
80,49,95400,90
73,45,95520,180
82,52,95520,180
61,55,95760,240
77,49,96000,90
68,44,96000,90
70,44,96120,90
78,49,96120,90
71,45,96240,180
80,51,96240,180
82,59,96480,240
73,53,96480,240
66,53,96480,240
64,41,97420,240
80,57,97440,220
63,45,97660,260
78,56,97680,240
61,44,97920,240
76,54,97920,240
87,55,98160,180
85,55,98400,180
68,37,98640,240
84,59,98640,180
82,55,98880,180
84,54,99120,180
73,39,99360,240
85,51,99360,180
88,47,99600,120
63,41,100320,240
78,57,100320,240
61,41,100560,240
76,56,100560,240
59,44,100800,240
75,54,100800,240
85,55,101040,180
83,55,101280,180
66,37,101520,240
82,59,101520,180
80,55,101760,180
82,54,102000,180
71,39,102240,240
83,51,102240,180
87,47,102480,120
63,40,103200,240
67,40,103200,240
75,45,103200,240
65,37,103440,240
68,37,103440,240
74,43,103440,240
67,35,103680,240
70,35,103680,240
73,39,103680,240
68,43,104400,240
71,43,104400,240
76,47,104400,240
63,39,105060,300
79,49,105120,240
63,40,106080,240
67,40,106080,240
75,45,106080,240
65,37,106320,240
68,37,106320,240
74,43,106320,240
67,35,106560,240
70,35,106560,240
73,39,106560,240
68,43,107280,240
71,43,107280,240
76,47,107280,240
79,39,108000,240
63,35,108000,240
70,35,108000,240
56,43,108720,240
71,47,108720,240
51,39,109440,240
67,39,109440,240
44,63,110160,240
59,63,110160,240
43,41,114360,360
58,41,114420,300
61,51,114480,240
75,48,123600,180
87,51,123840,240
85,48,124320,180
68,30,124560,240
83,50,124560,180
83,35,124800,180
82,43,125040,180
80,40,125280,180
71,40,125280,240
79,26,125520,180
80,41,125760,180
79,40,126000,240
82,50,126000,240
75,28,126240,180
75,37,126480,180
76,42,126720,180
70,42,126720,240
67,42,126720,240
75,35,126960,180
73,29,127200,180
68,29,127440,180
71,44,127440,180
71,35,127680,180
68,35,127680,180
66,27,127920,180
70,41,127920,180
68,37,128160,180
64,37,128160,180
67,28,128400,180
68,29,128640,180
67,26,128880,240
70,38,128880,240
63,36,129120,240
63,40,129540,60
75,50,129600,180
75,46,129840,180
73,45,130080,180
56,42,130320,240
71,54,130320,180
71,50,130560,180
70,51,130800,180
59,37,131040,240
68,54,131040,180
67,50,131280,180
68,51,131520,180
67,44,131760,240
70,59,131760,240
63,54,132000,180
63,54,132240,180
68,45,132480,180
59,45,132480,180
66,43,132720,180
60,44,132720,180
64,49,132960,180
61,37,132960,180
63,59,133200,240
63,52,133920,240
56,52,134640,240
63,40,134760,60
71,40,134820,60
80,46,134880,120
32,44,136080,240
44,50,136080,240
51,39,136320,120
63,44,136320,120
59,39,136320,120
63,44,136560,120
59,39,136560,120
56,39,136560,120
35,43,136800,240
47,47,136800,240
63,44,137040,120
59,39,137040,120
51,39,137040,120
63,44,137280,120
59,39,137280,120
56,39,137280,120
39,44,137520,240
51,49,137520,240
67,44,137760,180
63,39,137760,180
55,39,137760,180
67,44,138000,180
63,39,138000,180
58,39,138000,180
43,51,138240,240
61,37,138480,180
63,37,138480,180
70,43,138480,180
58,37,138720,180
63,37,138720,180
70,43,138720,180
44,47,138960,240
68,40,139200,180
63,35,139200,180
63,40,139440,180
59,35,139440,180
40,46,139680,240
62,37,139920,180
59,34,139920,180
62,37,140160,180
58,34,140160,180
39,43,140400,240
55,34,140640,240
58,37,140640,240
70,36,140880,240
67,33,140880,240
82,43,141120,240
79,37,141120,240
44,43,141840,240
66,40,142080,180
63,35,142080,180
57,35,142080,180
60,35,142320,180
63,35,142320,180
66,40,142320,180
48,43,142560,240
66,40,142800,180
63,35,142800,180
57,35,142800,180
60,35,143040,180
63,35,143040,180
66,40,143040,180
52,43,143280,240
64,32,143520,240
69,36,143520,240
60,35,143760,240
69,40,143760,240
61,39,144000,240
69,44,144000,240
66,34,144240,240
69,37,144240,240
64,32,144480,240
69,36,144480,240
71,44,144720,240
68,39,144720,240
63,39,144720,240
67,46,146160,240
61,42,146160,240
51,42,146160,240
44,41,147600,80
51,41,147680,80
56,41,147760,80
71,41,148080,80
75,41,148160,80
80,41,148240,80
68,33,148920,90
67,36,149040,90
70,36,149040,90
66,37,149160,90
69,37,149160,90
65,41,149280,90
68,41,149280,90
64,45,149400,90
67,45,149400,90
47,47,149520,90
63,34,149640,90
54,32,149760,90
59,44,149760,90
63,34,149880,90
47,44,150000,90
63,34,150120,90
42,45,150240,90
64,33,150360,90
54,34,150480,90
58,45,150480,90
64,36,150600,90
42,46,150720,90
64,36,150840,90
47,47,150960,120
63,39,151080,90
54,39,151200,90
47,37,151320,90
42,36,151440,90
35,36,151560,90
71,33,151800,90
71,36,151920,90
74,36,151920,90
70,37,152040,90
73,37,152040,90
69,41,152160,90
72,41,152160,90
68,45,152280,90
71,45,152280,90
51,47,152400,90
66,34,152520,90
58,32,152640,90
63,44,152640,90
66,34,152760,90
51,44,152880,90
66,34,153000,90
46,45,153120,90
68,33,153240,90
58,34,153360,90
62,45,153360,90
68,36,153480,90
46,46,153600,90
68,36,153720,90
51,47,153840,120
66,39,153960,90
58,39,154080,90
51,37,154200,90
46,37,154320,90
39,36,154440,90
75,33,154680,90
74,36,154800,90
77,36,154800,90
73,37,154920,90
76,37,154920,90
72,41,155040,90
75,41,155040,90
71,45,155160,90
74,45,155160,90
54,47,155280,90
70,34,155400,90
61,32,155520,90
66,44,155520,90
70,34,155640,90
54,44,155760,90
70,34,155880,90
49,45,156000,90
71,33,156120,90
61,34,156240,90
65,45,156240,90
71,36,156360,90
49,46,156480,90
71,36,156600,90
54,46,156720,240
61,45,156960,90
70,45,157080,90
78,43,157200,90
82,41,157320,90
47,40,157440,240
59,43,157680,90
68,41,157800,90
75,41,157920,90
80,40,158040,90
49,45,158160,240
58,43,158400,90
66,41,158520,90
73,40,158640,90
78,37,158760,90
61,47,158880,240
77,43,159120,90
68,41,159240,90
61,40,159360,90
71,39,159480,90
66,46,159600,240
70,46,159600,240
42,61,159840,90
54,61,159840,90
42,64,159960,90
54,64,159960,90
43,66,160080,90
55,66,160080,90
43,70,160200,90
55,70,160200,90
44,71,160320,90
56,71,160320,90
44,71,160440,90
56,71,160440,90
68,64,160800,90
80,64,160800,90
68,64,160920,90
80,64,160920,90
75,54,161280,240
80,54,161280,90
80,43,161400,90
73,43,161520,240
80,43,161520,90
80,43,161640,90
72,43,161760,240
80,43,161760,90
80,43,161880,90
70,43,162000,240
80,43,162000,90
80,43,162120,90
72,43,162240,240
80,43,162240,90
80,43,162360,90
73,46,162480,240
80,46,162480,240
44,61,162720,90
56,61,162720,90
44,64,162840,90
56,64,162840,90
43,66,162960,90
55,66,162960,90
43,70,163080,90
55,70,163080,90
42,71,163200,90
54,71,163200,90
42,71,163320,90
54,71,163320,90
66,64,163680,90
78,64,163680,90
66,64,163800,90
78,64,163800,90
73,54,164160,240
78,54,164160,90
78,43,164280,90
71,43,164400,240
78,43,164400,90
78,43,164520,90
70,43,164640,240
78,43,164640,90
78,43,164760,90
68,43,164880,240
78,43,164880,90
78,43,165000,90
70,43,165120,240
78,43,165120,90
78,43,165240,90
71,46,165360,240
78,46,165360,240
41,63,165600,90
53,63,165600,90
41,65,165720,90
53,65,165720,90
40,67,165840,90
52,67,165840,90
40,70,165960,90
52,70,165960,90
39,71,166080,90
51,71,166080,90
39,71,166200,90
51,71,166200,90
63,64,166560,90
75,64,166560,90
63,64,166680,90
75,64,166680,90
63,49,167040,120
67,49,167040,120
63,50,167160,120
67,50,167160,120
65,52,167280,120
68,52,167280,120
65,54,167400,120
68,54,167400,120
66,55,167520,120
69,55,167520,120
66,55,167640,120
69,55,167640,120
64,54,167760,120
67,54,167760,120
64,54,167880,120
67,54,167880,120
62,52,168000,120
65,52,168000,120
62,52,168120,120
65,52,168120,120
63,51,168240,240
34,70,168480,90
46,70,168480,90
34,70,168600,90
46,70,168600,90
38,71,168720,90
50,71,168720,90
38,73,168840,90
50,73,168840,90
39,77,168960,90
51,77,168960,90
39,77,169080,90
51,77,169080,90
63,71,169440,90
75,71,169440,90
63,71,169560,90
75,71,169560,90
67,57,169920,90
75,57,169920,90
67,59,170040,90
75,59,170040,90
68,61,170160,90
77,61,170160,90
68,62,170280,90
77,62,170280,90
69,63,170400,90
78,63,170400,90
69,64,170520,90
78,64,170520,90
70,64,170640,90
79,64,170640,90
70,63,170760,90
79,63,170760,90
74,63,170880,90
77,63,170880,90
74,62,171000,90
77,62,171000,90
70,62,171120,90
75,62,171120,90
70,62,171240,90
75,62,171240,90
68,61,171360,90
71,61,171360,90
68,61,171480,90
71,61,171480,90
66,61,171600,90
69,61,171600,90
66,62,171720,90
69,62,171720,90
67,62,171840,90
70,62,171840,90
67,62,171960,90
70,62,171960,90
64,62,172080,90
67,62,172080,90
64,61,172200,90
67,61,172200,90
62,61,172320,90
65,61,172320,90
62,60,172440,90
65,60,172440,90
58,60,172560,90
63,60,172560,90
58,59,172680,90
63,59,172680,90
56,59,172800,90
59,59,172800,90
56,59,172920,90
59,59,172920,90
54,57,173040,90
57,57,173040,90
54,63,173160,90
57,63,173160,90
55,66,173280,90
58,66,173280,90
55,66,173400,90
58,66,173400,90
52,65,173520,90
55,65,173520,90
52,64,173640,90
55,64,173640,90
50,64,173760,90
53,64,173760,90
50,63,173880,90
53,63,173880,90
46,63,174000,90
51,63,174000,90
46,62,174120,90
51,62,174120,90
44,61,174240,90
47,61,174240,90
44,61,174360,90
47,61,174360,90
42,57,174480,90
45,57,174480,90
42,59,174600,90
45,59,174600,90
43,61,174720,90
46,61,174720,90
43,62,174840,90
46,62,174840,90
43,64,174960,90
46,64,174960,90
43,65,175080,90
46,65,175080,90
38,67,175200,90
47,67,175200,90
38,69,175320,90
47,69,175320,90
39,71,175440,240
46,71,175440,240
50,81,175800,120
51,81,176040,120
57,81,176280,120
58,81,176520,120
50,57,176760,120
62,69,176760,120
51,56,177000,120
63,67,177000,120
57,69,177240,120
69,69,177240,120
58,70,177480,120
70,70,177480,120
62,71,177720,120
74,71,177720,120
63,72,177960,120
75,72,177960,120
69,72,178200,120
81,72,178200,120
70,72,178440,120
82,72,178440,120
74,76,178680,120
86,76,178680,120
75,72,178920,120
87,72,178920,120
74,76,179160,120
86,76,179160,120
75,72,179400,120
87,72,179400,120
74,72,179640,120
86,72,179640,120
73,72,179880,120
85,72,179880,120
70,72,180120,120
82,72,180120,120
67,73,180360,120
79,73,180360,120
63,73,180600,120
75,73,180600,120
61,75,180840,120
73,75,180840,120
58,76,181080,120
70,76,181080,120
67,77,181320,120
55,77,181320,120
63,79,181560,120
51,79,181560,120
61,79,181800,120
49,79,181800,120
58,80,182040,120
46,80,182040,120
55,81,182280,120
43,81,182280,120
39,81,182520,120
51,81,182520,120
63,72,184560,120
75,80,184800,120
32,57,185520,240
44,64,185520,240
51,53,185760,90
63,59,185760,90
59,53,185760,90
51,53,185880,90
59,53,185880,90
63,59,185880,90
56,53,186000,240
59,53,186000,240
63,59,186000,240
35,64,186240,240
47,64,186240,240
51,53,186480,90
59,53,186480,90
63,59,186480,90
63,59,186600,90
59,53,186600,90
51,53,186600,90
56,53,186720,240
59,53,186720,240
63,59,186720,240
39,55,186960,240
51,63,186960,240
55,53,187200,90
63,53,187200,90
67,59,187200,90
55,53,187320,90
63,53,187320,90
67,59,187320,90
58,53,187440,240
63,53,187440,240
67,59,187440,240
43,60,187680,240
55,60,187680,240
61,47,187920,90
63,47,187920,90
70,54,187920,90
61,47,188040,90
63,47,188040,90
70,54,188040,90
61,47,188160,240
63,47,188160,240
70,54,188160,240
56,62,188400,240
44,54,188400,240
59,49,188640,90
63,49,188640,90
68,54,188640,90
59,49,188760,90
63,49,188760,90
68,54,188760,90
59,49,188880,240
63,54,188880,240
40,59,189120,240
62,56,189360,90
58,51,189360,90
62,56,189480,90
58,51,189480,90
58,51,189600,240
62,56,189600,240
39,60,189840,240
55,50,190080,90
58,55,190080,90
55,50,190200,90
58,55,190200,90
63,57,190320,240
58,52,190320,240
55,52,190320,240
67,52,190560,240
70,52,190560,240
75,57,190560,240
32,69,191280,240
44,76,191280,240
63,55,191520,90
57,50,191520,90
54,50,191520,90
54,50,191640,90
57,50,191640,90
63,55,191640,90
54,50,191760,240
57,50,191760,240
63,55,191760,240
36,71,192000,240
48,80,192000,240
57,53,192240,90
63,53,192240,90
69,60,192240,90
57,53,192360,90
63,53,192360,90
69,60,192360,90
57,53,192480,240
63,53,192480,240
69,60,192480,240
37,82,192720,240
49,82,192720,240
52,44,192960,90
57,44,192960,90
61,50,192960,90
52,44,193080,90
57,44,193080,90
61,50,193080,90
51,47,193200,90
57,47,193200,90
61,54,193200,90
51,47,193320,90
57,47,193320,90
61,54,193320,90
49,50,193440,90
57,50,193440,90
61,55,193440,90
49,50,193560,90
57,50,193560,90
61,55,193560,90
51,47,193680,90
57,47,193680,90
61,54,193680,90
51,47,193800,90
57,47,193800,90
61,54,193800,90
52,45,193920,90
57,45,193920,90
61,51,193920,90
52,45,194040,90
57,45,194040,90
61,51,194040,90
51,41,194160,120
56,41,194160,120
59,45,194160,120
50,46,194280,120
62,46,194280,120
49,47,194400,120
61,47,194400,120
48,49,194520,120
60,49,194520,120
47,50,194640,120
59,50,194640,120
46,51,194760,120
58,51,194760,120
45,54,194880,120
57,54,194880,120
44,54,195000,120
56,54,195000,120
43,55,195120,120
55,55,195120,120
42,56,195240,120
54,56,195240,120
41,57,195360,120
53,57,195360,120
40,59,195480,120
52,59,195480,120
51,56,195600,120
39,56,195600,120
43,56,195600,120
46,56,195600,120
38,62,195720,120
50,62,195720,120
37,63,195840,120
49,63,195840,120
36,64,195960,120
48,64,195960,120
35,65,196080,120
47,65,196080,120
34,66,196200,120
46,66,196200,120
33,69,196320,120
45,69,196320,120
32,70,196440,120
44,70,196440,120
31,67,196560,120
43,67,196560,120
30,67,196680,120
42,67,196680,120
28,69,196800,120
40,69,196800,120
27,71,196920,110
39,71,196920,110
32,61,197040,240
44,81,197040,240
39,67,197280,120
51,79,197280,120
44,67,197400,120
56,79,197400,120
63,75,197520,180
51,63,197520,180
32,74,197760,240
44,89,197760,240
39,68,198000,120
51,80,198000,120
44,68,198120,120
56,80,198120,120
63,77,198240,180
51,64,198240,180
32,74,198480,240
44,89,198480,240
39,67,198720,120
51,79,198720,120
44,67,198840,120
56,79,198840,120
63,73,198960,180
51,61,198960,180
32,74,199200,240
44,89,199200,240
39,68,199440,120
51,80,199440,120
44,68,199560,120
56,80,199560,120
63,78,199680,180
51,66,199680,180
32,62,199920,240
44,89,199920,240
39,56,200160,120
51,79,200160,120
44,56,200280,120
56,79,200280,120
63,77,200400,180
51,55,200400,180
32,62,200640,240
44,89,200640,240
39,57,200880,120
51,80,200880,120
44,57,201000,120
56,80,201000,120
63,77,201120,180
51,55,201120,180
32,74,201360,240
44,89,201360,240
39,67,201600,120
51,79,201600,120
44,67,201720,120
56,79,201720,120
63,78,201840,180
51,66,201840,180
32,74,202080,240
44,89,202080,240
39,68,202320,120
51,81,202320,120
44,68,202440,120
56,81,202440,120
63,78,202560,180
51,66,202560,180
32,74,202800,240
44,89,202800,240
39,68,203040,120
51,81,203040,120
44,68,203160,120
56,81,203160,120
47,74,203280,240
59,88,203280,240
51,74,203280,240
46,69,203520,120
51,69,203520,120
58,82,203520,120
47,69,203640,120
51,69,203640,120
59,82,203640,120
49,74,203760,240
51,74,203760,240
61,88,203760,240
51,68,204000,120
47,68,204000,120
59,81,204000,120
46,68,204120,120
58,81,204120,120
51,68,204120,120
47,74,204240,120
51,74,204240,120
59,88,204240,120
46,70,204360,120
51,70,204360,120
58,83,204360,120
44,70,204480,216
51,70,204480,216
56,83,204480,216
32,88,204720,180
39,88,204720,180
44,104,204720,180
46,69,204960,120
51,69,204960,120
58,82,204960,120
47,69,205080,120
51,69,205080,120
59,82,205080,120
49,74,205200,240
51,74,205200,240
61,88,205200,240
51,68,205440,120
47,68,205440,120
59,81,205440,120
46,68,205560,120
58,81,205560,120
51,68,205560,120
47,74,205680,120
51,74,205680,120
59,88,205680,120
46,70,205800,120
51,70,205800,120
58,83,205800,120
44,70,205920,216
51,70,205920,216
56,83,205920,216
32,88,206160,180
39,88,206160,180
44,104,206160,180
47,74,206400,120
51,74,206400,120
59,88,206400,120
46,70,206520,120
51,70,206520,120
58,83,206520,120
44,70,206640,216
51,70,206640,216
56,70,206640,216
32,88,206880,180
39,88,206880,180
44,104,206880,180
47,74,207120,120
51,74,207120,120
59,88,207120,120
46,70,207240,120
51,70,207240,120
58,83,207240,120
44,70,207360,216
51,70,207360,216
56,83,207360,216
32,90,207600,180
39,90,207600,180
44,106,207600,180
47,74,207840,120
51,74,207840,120
59,88,207840,120
46,70,207960,120
51,70,207960,120
58,83,207960,120
44,70,208080,216
51,70,208080,216
56,83,208080,216
32,90,208320,480
39,90,208320,480
44,106,208320,480
44,61,208800,216
51,61,208800,216
56,73,208800,216
68,77,209040,216
63,64,209040,216
56,64,209040,216
80,80,209280,216
75,80,209280,216
68,68,209280,216
68,83,209520,216
63,70,209520,216
56,70,209520,216
44,69,209760,216
51,69,209760,216
56,82,209760,216
32,73,210000,240
39,73,210000,240
44,86,210000,240
44,80,210720,240
51,80,210720,240
56,94,210720,240
59,83,211440,1440
63,83,211440,1440
68,83,211440,1440
71,99,211440,1440
