note,velocity,position,duration
79,72,390,240
85,72,420,240
88,77,450,240
94,79,480,240
74,68,1350,240
80,69,1380,240
83,71,1410,240
89,73,1440,240
69,59,2355,240
75,61,2370,240
78,64,2385,240
84,66,2400,240
64,59,2835,240
70,60,2850,240
73,63,2865,240
79,64,2880,240
59,59,3315,240
65,62,3330,240
68,65,3345,240
74,68,3360,240
54,62,3795,240
60,65,3810,240
63,68,3825,240
69,71,3840,240
55,65,4275,240
61,67,4290,240
64,69,4305,240
70,71,4320,240
56,69,4770,240
59,73,4785,240
65,77,4800,240
53,70,5250,240
56,73,5265,240
62,76,5280,240
57,70,5715,240
62,74,5730,240
65,77,5745,240
69,78,5760,240
81,84,6720,240
69,71,6720,240
77,71,6720,240
74,71,6720,240
79,71,7680,240
93,84,7680,240
85,71,7680,240
88,71,7680,240
81,71,7680,240
45,39,9720,180
46,42,9840,180
49,43,9960,180
53,46,10080,144
52,45,10176,144
50,44,10272,144
49,43,10368,144
46,41,10464,144
45,43,10560,121
46,43,10640,120
49,44,10720,120
50,45,10800,120
52,47,10880,120
53,48,10960,120
58,50,11040,120
57,49,11120,120
55,48,11200,120
53,47,11280,120
52,45,11360,120
50,44,11440,120
49,45,11520,90
50,44,11580,90
52,45,11640,90
53,46,11700,90
55,48,11760,90
57,48,11820,90
58,49,11880,90
61,49,11940,90
65,51,12000,144
64,51,12096,144
62,50,12192,144
61,50,12288,144
58,50,12384,144
57,50,12480,120
58,51,12560,120
61,52,12640,120
62,53,12720,120
64,54,12800,120
65,56,12880,120
70,57,12960,120
69,57,13040,120
67,56,13120,120
65,54,13200,120
64,53,13280,120
62,52,13360,120
61,53,13440,90
62,54,13500,90
64,56,13560,90
65,56,13620,90
67,57,13680,90
69,57,13740,90
70,59,13800,90
73,60,13860,90
77,61,13920,144
76,61,14016,144
74,60,14112,144
73,59,14208,144
70,58,14304,144
69,58,14400,120
70,58,14480,120
73,60,14560,120
74,61,14640,120
76,62,14720,120
77,63,14800,120
82,63,14880,120
81,63,14960,120
79,62,15040,120
77,61,15120,120
76,60,15200,120
74,59,15280,120
73,58,15360,90
74,58,15420,90
76,59,15480,90
77,60,15540,90
79,62,15600,90
81,63,15660,90
82,64,15720,90
85,65,15780,90
89,66,15840,144
88,66,15936,144
86,65,16032,144
85,65,16128,144
82,64,16224,144
81,65,16320,144
82,68,16416,144
85,70,16512,144
86,71,16608,144
88,72,16704,144
89,74,16800,144
91,76,16896,144
93,78,16992,144
94,80,17088,144
97,81,17184,144
101,85,17280,60
100,85,17340,60
98,84,17400,60
97,84,17460,60
94,83,17520,60
93,83,17580,60
91,83,17640,60
89,82,17700,60
88,82,17760,60
86,81,17820,60
85,81,17880,60
82,80,17940,60
81,80,18000,60
79,80,18060,60
77,79,18120,60
76,79,18180,60
74,79,18240,60
73,79,18300,60
70,78,18360,60
69,78,18420,60
67,78,18480,60
65,77,18540,60
64,77,18600,60
62,77,18660,60
61,78,18720,60
58,78,18780,60
57,79,18840,60
55,80,18900,60
53,81,18960,60
52,82,19020,60
50,82,19080,60
49,82,19140,60
46,80,19200,48
45,80,19248,48
43,82,19296,48
41,83,19344,48
40,84,19392,48
86,97,19440,960
77,76,19440,960
74,76,19440,960
52,48,19680,120
56,60,19680,120
57,63,19800,120
53,50,19800,120
64,65,19920,120
61,51,19920,120
62,54,20040,120
65,67,20040,120
64,55,20160,120
68,69,20160,120
65,56,20280,120
69,71,20280,120
77,79,20400,480
74,75,20400,480
86,101,20400,480
52,48,20640,120
56,60,20640,120
53,50,20760,120
57,63,20760,120
61,51,20880,120
64,65,20880,120
62,54,21000,120
65,67,21000,120
64,69,21120,120
68,69,21120,120
65,56,21240,120
69,71,21240,120
84,89,21300,60
72,70,21300,60
70,75,21360,960
76,77,21360,960
82,100,21360,960
54,48,21600,120
57,60,21600,120
58,63,21720,120
55,50,21720,120
63,51,21840,120
66,65,21840,120
64,54,21960,120
67,67,21960,120
69,69,22080,120
66,55,22080,120
70,71,22200,120
67,56,22200,120
76,72,22320,480
82,92,22320,480
70,72,22320,480
57,60,22560,120
54,48,22560,120
58,63,22680,120
55,50,22680,120
63,51,22800,120
66,65,22800,120
67,67,22920,120
64,54,22920,120
69,69,23040,120
66,69,23040,120
70,71,23160,60
67,56,23160,60
70,70,23220,60
82,89,23220,60
81,95,23280,480
76,75,23280,480
69,75,23280,480
51,48,23520,120
54,60,23520,120
52,50,23640,120
55,63,23640,120
60,51,23760,120
63,65,23760,120
61,54,23880,120
64,67,23880,120
66,69,24000,120
63,69,24000,120
64,56,24120,120
67,71,24120,120
69,70,24180,60
81,89,24180,60
79,75,24240,480
88,95,24240,480
76,75,24240,480
51,48,24480,120
54,60,24480,120
52,50,24600,120
55,63,24600,120
60,51,24720,120
63,65,24720,120
64,67,24840,120
61,54,24840,120
66,69,24960,120
63,69,24960,120
67,71,25080,60
64,56,25080,60
79,80,25140,60
67,62,25140,60
65,67,25200,480
69,67,25200,480
77,85,25200,480
56,50,25440,120
52,38,25440,120
53,41,25560,120
57,51,25560,120
64,53,25680,120
61,41,25680,120
62,43,25800,120
65,54,25800,120
68,55,25920,120
64,55,25920,120
69,56,26040,60
65,44,26040,60
69,64,26100,60
81,82,26100,60
62,70,26160,480
74,88,26160,480
65,70,26160,480
56,49,26400,120
52,38,26400,120
57,50,26520,120
53,39,26520,120
61,41,26640,120
64,51,26640,120
65,52,26760,120
62,42,26760,120
68,53,26880,120
64,53,26880,120
69,54,27000,120
65,43,27000,120
72,65,27120,720
76,65,27120,720
84,83,27120,720
59,51,27360,120
54,40,27360,120
55,42,27480,120
60,52,27480,120
63,55,27600,120
59,43,27600,120
64,57,27720,120
60,44,27720,120
66,46,27840,120
71,58,27840,120
67,47,27960,120
72,59,27960,120
79,58,28080,480
72,58,28080,480
84,73,28080,480
54,40,28320,120
59,51,28320,120
60,52,28440,120
55,42,28440,120
59,43,28560,120
63,55,28560,120
60,44,28680,120
64,57,28680,120
66,58,28800,120
63,58,28800,120
64,47,28920,120
67,59,28920,120
70,54,28980,60
82,69,28980,60
77,58,29040,480
81,73,29040,480
69,58,29040,480
56,40,29280,120
59,51,29280,120
60,52,29400,120
57,42,29400,120
59,43,29520,120
64,55,29520,120
60,44,29640,120
65,57,29640,120
71,58,29760,120
68,58,29760,120
69,47,29880,120
72,59,29880,120
72,54,29940,60
84,69,29940,60
77,73,30000,480
69,58,30000,480
65,58,30000,480
59,51,30240,120
56,40,30240,120
60,52,30360,120
57,42,30360,120
64,55,30480,120
59,43,30480,120
60,44,30600,120
65,57,30600,120
68,58,30720,120
64,58,30720,120
69,59,30840,120
65,47,30840,120
76,65,30960,960
88,90,30960,960
80,69,30960,960
58,48,31200,120
55,37,31200,120
59,50,31320,120
56,40,31320,120
63,41,31440,120
67,52,31440,120
68,55,31560,120
64,43,31560,120
67,43,31680,120
70,56,31680,120
71,58,31800,120
68,46,31800,120
83,65,31920,480
76,65,31920,480
88,82,31920,480
55,40,32160,120
58,50,32160,120
59,52,32280,120
56,42,32280,120
67,55,32400,120
63,43,32400,120
68,57,32520,120
64,44,32520,120
67,58,32640,120
70,58,32640,120
68,51,32760,120
71,65,32760,120
86,74,32820,60
74,58,32820,60
73,63,32880,480
81,63,32880,480
85,79,32880,480
60,42,33120,120
63,52,33120,120
64,55,33240,120
61,43,33240,120
68,44,33360,120
72,57,33360,120
69,47,33480,120
73,59,33480,120
72,62,33600,120
75,62,33600,120
73,52,33720,60
76,66,33720,60
88,78,33780,60
76,60,33780,60
73,65,33840,480
69,65,33840,480
81,82,33840,480
60,46,34080,120
63,58,34080,120
61,48,34200,120
64,60,34200,120
68,50,34320,120
72,63,34320,120
69,52,34440,120
73,65,34440,120
72,67,34560,120
75,67,34560,120
76,70,34680,120
73,55,34680,120
69,63,34740,60
81,80,34740,60
85,78,34800,720
79,78,34800,720
91,98,34800,720
63,48,35040,120
66,60,35040,120
67,63,35160,120
64,50,35160,120
72,51,35280,120
75,65,35280,120
73,54,35400,120
76,67,35400,120
78,69,35520,120
75,55,35520,120
76,56,35640,120
79,71,35640,120
69,69,35760,480
81,87,35760,480
63,48,36000,120
66,60,36000,120
64,50,36120,120
67,63,36120,120
75,65,36240,120
72,51,36240,120
73,54,36360,120
76,67,36360,120
78,69,36480,120
75,69,36480,120
76,56,36600,120
79,71,36600,120
81,81,36660,60
69,64,36660,60
78,78,36720,720
84,78,36720,720
90,98,36720,720
62,48,36960,120
65,60,36960,120
63,50,37080,120
66,63,37080,120
71,51,37200,120
74,65,37200,120
72,54,37320,120
75,67,37320,120
77,69,37440,120
74,55,37440,120
78,71,37560,120
75,56,37560,120
69,69,37680,480
81,87,37680,480
62,48,37920,120
65,60,37920,120
63,50,38040,120
66,63,38040,120
74,65,38160,120
71,51,38160,120
72,54,38280,120
75,67,38280,120
77,69,38400,120
74,69,38400,120
75,56,38520,120
78,71,38520,120
69,64,38580,60
81,81,38580,60
80,69,38640,480
77,69,38640,480
89,87,38640,480
64,60,38880,120
61,48,38880,120
65,63,39000,120
62,50,39000,120
70,65,39120,120
67,51,39120,120
68,54,39240,120
71,67,39240,120
76,69,39360,120
73,69,39360,120
74,56,39480,120
77,71,39480,120
89,81,39540,60
77,64,39540,60
76,69,39600,480
80,69,39600,480
88,87,39600,480
58,60,39840,120
55,48,39840,120
56,50,39960,120
59,63,39960,120
63,51,40080,120
67,65,40080,120
68,54,40200,120
64,67,40200,120
70,69,40320,120
67,69,40320,120
68,56,40440,120
71,71,40440,120
74,64,40500,60
86,81,40500,60
81,69,40560,480
85,87,40560,480
73,69,40560,480
60,48,40800,120
63,60,40800,120
64,63,40920,120
61,50,40920,120
72,65,41040,120
68,51,41040,120
69,54,41160,120
73,67,41160,120
75,69,41280,120
72,69,41280,120
73,56,41400,60
76,71,41400,60
88,81,41460,60
76,64,41460,60
73,69,41520,480
81,87,41520,480
69,69,41520,480
56,48,41760,120
60,60,41760,120
61,63,41880,120
57,50,41880,120
60,51,42000,120
63,65,42000,120
61,54,42120,120
64,67,42120,120
68,69,42240,120
63,69,42240,120
64,56,42360,120
69,71,42360,120
79,88,42480,720
73,70,42480,720
67,70,42480,720
51,42,42720,120
54,54,42720,120
52,44,42840,120
55,56,42840,120
60,46,42960,120
63,58,42960,120
61,48,43080,120
64,60,43080,120
63,49,43200,120
66,62,43200,120
67,63,43320,120
64,50,43320,120
69,78,43440,480
57,62,43440,480
51,42,43680,120
54,54,43680,120
52,44,43800,120
55,56,43800,120
63,58,43920,120
60,46,43920,120
64,60,44040,120
61,48,44040,120
63,62,44160,120
66,62,44160,120
64,50,44280,120
67,63,44280,120
69,72,44340,60
57,57,44340,60
78,88,44400,720
72,70,44400,720
66,70,44400,720
53,54,44640,120
50,42,44640,120
51,44,44760,120
54,56,44760,120
62,58,44880,120
59,46,44880,120
63,60,45000,120
60,48,45000,120
65,62,45120,120
62,49,45120,120
63,50,45240,120
66,63,45240,120
57,62,45360,480
69,78,45360,480
53,54,45600,120
50,42,45600,120
51,44,45720,120
54,56,45720,120
59,46,45840,120
62,58,45840,120
63,60,45960,120
60,48,45960,120
62,62,46080,120
65,62,46080,120
66,63,46200,120
63,50,46200,120
57,57,46260,60
69,72,46260,60
65,62,46320,480
68,62,46320,480
77,78,46320,480
52,54,46560,120
49,42,46560,120
53,56,46680,120
50,44,46680,120
55,46,46800,120
58,58,46800,120
59,60,46920,120
56,48,46920,120
64,62,47040,120
61,62,47040,120
65,63,47160,60
62,50,47160,60
77,72,47220,60
65,57,47220,60
76,78,47280,480
68,62,47280,480
64,62,47280,480
49,42,47520,120
52,54,47520,120
53,56,47640,120
50,44,47640,120
57,46,47760,120
61,58,47760,120
58,60,47880,120
62,48,47880,120
55,62,48000,120
63,62,48000,120
64,63,48120,120
56,50,48120,120
74,72,48180,60
62,57,48180,60
69,78,48240,240
61,62,48240,240
57,62,48240,240
64,46,48720,160
73,70,48720,480
65,46,48880,160
66,47,49040,160
76,73,49200,480
67,48,49200,160
68,48,49360,160
69,49,49520,160
79,77,49680,480
70,50,49680,160
71,50,49840,160
72,51,50000,160
82,80,50160,480
73,51,50160,160
74,52,50320,160
76,52,50480,160
71,43,50640,160
83,77,50640,480
77,55,50800,160
80,55,50960,160
76,62,51120,240
85,62,51120,240
81,62,51120,240
88,78,51120,240
85,70,51600,480
76,46,51600,160
77,46,51760,160
78,47,51920,160
79,48,52080,160
88,73,52080,480
80,48,52240,160
81,49,52400,160
82,50,52560,160
91,77,52560,480
83,50,52720,160
84,51,52880,160
94,80,53040,480
85,51,53040,160
86,52,53200,160
88,52,53360,160
95,77,53520,480
83,50,53520,160
89,55,53680,160
92,55,53840,160
93,67,54000,240
97,67,54000,240
88,67,54000,240
100,85,54000,240
83,55,54480,160
95,67,54480,480
89,55,54640,160
92,55,54800,160
100,85,54960,240
93,67,54960,240
88,67,54960,240
97,67,54960,240
83,55,55440,160
95,67,55440,480
89,55,55600,160
92,55,55760,160
97,67,55920,240
88,67,55920,240
100,85,55920,240
93,67,55920,240
95,67,56400,480
83,55,56400,160
89,55,56560,160
92,55,56720,160
93,67,56880,240
88,67,56880,240
100,85,56880,240
97,67,56880,240
82,73,57360,320
70,62,57360,320
69,56,57680,160
81,67,57680,160
67,62,57840,160
79,74,57840,160
77,70,58000,160
65,59,58000,160
76,70,58160,160
64,59,58160,160
74,64,58320,160
62,54,58320,160
61,60,58480,160
73,71,58480,160
64,56,58640,160
76,67,58640,160
60,62,58800,160
72,73,58800,160
76,69,58960,160
64,58,58960,160
71,73,59120,160
59,62,59120,160
76,67,59280,160
64,56,59280,160
70,76,59440,160
58,64,59440,160
76,70,59600,160
64,59,59600,160
69,81,59760,240
57,68,59760,240
85,76,60240,320
73,76,60240,320
70,57,60560,160
82,68,60560,160
81,73,60720,160
69,62,60720,160
67,59,60880,160
79,70,60880,160
77,68,61040,160
65,57,61040,160
76,72,61200,160
64,61,61200,160
79,64,61360,160
67,54,61360,160
75,72,61520,160
63,61,61520,160
79,66,61680,160
67,56,61680,160
62,62,61840,160
74,73,61840,160
79,66,62000,160
67,56,62000,160
73,74,62160,160
61,62,62160,160
79,67,62320,160
67,56,62320,160
58,63,62480,160
70,75,62480,160
67,69,62640,120
79,86,62640,120
57,63,62880,120
69,74,62880,120
88,74,63120,320
76,63,63120,320
74,54,63440,160
86,64,63440,160
85,71,63600,160
73,60,63600,160
82,60,63760,160
70,50,63760,160
81,60,63920,160
69,50,63920,160
91,71,64080,160
79,60,64080,160
89,70,64240,160
77,59,64240,160
88,68,64400,160
76,57,64400,160
86,66,64560,160
74,55,64560,160
85,65,64720,160
73,55,64720,160
82,57,64880,160
94,67,64880,160
81,64,65040,160
93,76,65040,160
79,62,65200,160
91,74,65200,160
77,58,65360,160
89,69,65360,160
76,55,65520,160
88,65,65520,160
88,69,65680,160
100,82,65680,160
98,81,65840,160
86,68,65840,160
97,79,66000,160
85,67,66000,160
82,62,66160,160
94,74,66160,160
93,80,66320,160
81,68,66320,160
94,72,66480,160
82,61,66480,160
91,81,66640,160
79,68,66640,160
82,60,66800,160
94,71,66800,160
89,80,66960,160
77,68,66960,160
91,72,67120,160
79,61,67120,160
88,81,67280,160
76,68,67280,160
79,61,67440,160
91,72,67440,160
74,69,67600,160
86,82,67600,160
76,62,67760,160
88,74,67760,160
73,68,67920,160
85,81,67920,160
76,61,68080,160
88,72,68080,160
82,79,68240,160
70,67,68240,160
85,70,68400,160
73,59,68400,160
69,65,68560,160
81,77,68560,160
70,57,68720,160
82,68,68720,160
79,74,68880,160
67,62,68880,160
70,56,69040,160
82,67,69040,160
77,78,69200,160
65,66,69200,160
67,58,69360,160
79,69,69360,160
64,63,69520,160
76,75,69520,160
67,58,69680,160
79,69,69680,160
74,76,69840,160
62,64,69840,160
76,70,70000,160
64,59,70000,160
73,76,70160,160
61,64,70160,160
64,58,70320,160
76,69,70320,160
70,77,70480,160
58,65,70480,160
73,71,70640,160
61,60,70640,160
69,78,70800,160
57,66,70800,160
70,72,70960,160
58,61,70960,160
56,67,71120,160
68,79,71120,160
57,60,71280,160
69,71,71280,160
55,67,71440,160
67,79,71440,160
69,72,71600,160
57,61,71600,160
54,67,71760,160
66,79,71760,160
57,62,71920,160
69,73,71920,160
65,80,72080,160
53,68,72080,160
57,61,72240,160
69,72,72240,160
64,81,72400,160
52,68,72400,160
69,74,72560,160
57,62,72560,160
63,81,72720,240
51,68,72720,240
57,60,72960,240
69,71,72960,240
60,82,73200,240
48,69,73200,240
57,63,73440,240
69,75,73440,240
49,70,73680,240
61,83,73680,240
57,65,73920,240
69,77,73920,240
86,97,74160,960
74,76,74160,960
77,76,74160,960
64,65,74640,160
61,51,74640,160
62,54,74800,160
65,67,74800,160
86,101,75120,480
77,79,75120,480
74,75,75120,480
64,65,75600,160
61,51,75600,160
62,54,75760,160
65,67,75760,160
72,70,75960,120
84,89,75960,120
82,100,76080,480
76,77,76080,480
70,75,76080,480
63,51,76560,160
66,65,76560,160
64,54,76720,160
67,67,76720,160
70,72,77040,480
76,72,77040,480
82,92,77040,480
63,51,77520,160
66,65,77520,160
64,54,77680,160
67,67,77680,160
70,70,77880,120
82,89,77880,120
69,75,78000,480
76,75,78000,480
81,95,78000,480
63,65,78480,160
60,51,78480,160
61,54,78640,160
64,67,78640,160
69,70,78840,120
81,89,78840,120
88,95,78960,480
79,75,78960,480
76,75,78960,480
60,48,79440,160
63,62,79440,160
61,51,79600,160
64,63,79600,160
67,57,79800,120
79,74,79800,120
65,61,79920,480
69,61,79920,480
77,78,79920,480
64,51,80400,160
61,40,80400,160
62,41,80560,160
65,52,80560,160
69,53,80760,120
81,69,80760,120
65,58,80880,480
74,73,80880,480
62,58,80880,480
64,45,81360,160
61,36,81360,160
62,36,81520,160
65,45,81520,160
76,57,81840,480
84,73,81840,480
72,57,81840,480
63,50,82320,160
59,39,82320,160
60,42,82480,160
64,51,82480,160
79,57,82800,480
72,57,82800,480
84,73,82800,480
66,50,83280,160
63,39,83280,160
64,42,83440,160
67,51,83440,160
70,48,83640,120
82,62,83640,120
68,51,83760,480
80,66,83760,480
72,51,83760,480
64,34,84240,160
67,45,84240,160
68,46,84400,160
65,37,84400,160
72,49,84600,120
84,63,84600,120
65,54,84720,480
68,54,84720,480
77,68,84720,480
67,44,85200,160
64,34,85200,160
68,44,85360,160
65,36,85360,160
87,79,85680,480
79,60,85680,480
75,60,85680,480
66,48,86160,160
62,37,86160,160
67,49,86320,160
63,39,86320,160
75,61,86640,480
87,79,86640,480
82,61,86640,480
66,38,87120,160
69,48,87120,160
70,49,87280,160
67,39,87280,160
73,52,87480,120
85,68,87480,120
80,55,87600,480
72,55,87600,480
84,72,87600,480
71,49,88080,160
67,36,88080,160
68,39,88240,160
72,51,88240,160
75,53,88440,120
87,71,88440,120
80,75,88560,480
68,59,88560,480
72,59,88560,480
71,48,89040,160
67,37,89040,160
68,39,89200,160
72,49,89200,160
77,59,89520,480
89,76,89520,480
83,59,89520,480
73,52,90000,160
70,40,90000,160
74,53,90160,160
71,44,90160,160
89,76,90480,480
77,59,90480,480
83,59,90480,480
73,53,90960,160
70,41,90960,160
74,54,91120,160
71,44,91120,160
77,50,91320,120
89,65,91320,120
92,79,91440,480
80,67,91440,480
84,67,91440,480
67,46,91920,160
71,55,91920,160
72,55,92080,160
68,46,92080,160
80,62,92400,480
87,72,92400,480
75,56,92400,480
71,53,92880,160
67,45,92880,160
68,45,93040,160
72,53,93040,160
89,78,93360,480
83,61,93360,480
77,61,93360,480
70,42,93840,160
73,54,93840,160
74,55,94000,160
71,45,94000,160
77,62,94320,480
83,62,94320,480
89,79,94320,480
70,42,94800,160
73,55,94800,160
71,46,94960,160
74,56,94960,160
77,52,95160,120
89,68,95160,120
92,80,95280,480
80,62,95280,480
84,62,95280,480
71,55,95760,160
67,43,95760,160
72,56,95920,160
68,46,95920,160
92,81,96240,480
80,63,96240,480
70,43,96720,160
73,56,96720,160
74,57,96880,160
71,47,96880,160
80,53,97080,120
92,69,97080,120
81,73,97200,480
93,87,97200,480
73,43,97680,160
76,56,97680,160
74,47,97840,160
77,57,97840,160
89,82,98160,480
77,69,98160,480
73,56,98640,160
68,44,98640,160
69,47,98800,160
74,58,98800,160
74,72,99120,480
86,85,99120,480
64,44,99600,160
68,57,99600,160
69,58,99760,160
65,48,99760,160
81,83,100080,480
69,55,100080,480
64,57,100560,160
61,44,100560,160
65,58,100720,160
62,48,100720,160
70,74,101040,480
82,88,101040,480
66,58,101520,160
62,45,101520,160
63,48,101680,160
67,59,101680,160
79,85,102000,480
67,72,102000,480
57,45,102480,160
62,58,102480,160
58,49,102640,160
63,59,102640,160
76,86,102960,480
64,73,102960,480
57,59,103440,160
54,46,103440,160
55,49,103600,160
58,60,103600,160
69,72,103920,480
81,85,103920,480
63,59,104400,160
60,46,104400,160
61,49,104560,160
64,60,104560,160
57,52,104760,120
69,73,104760,120
62,62,104880,480
74,86,104880,480
57,54,105360,160
54,45,105360,160
64,51,105520,160
68,61,105520,160
69,64,105680,160
65,54,105680,160
80,67,105840,160
76,56,105840,160
81,70,106000,160
77,59,106000,160
92,73,106160,160
88,62,106160,160
93,83,106320,240
89,70,106320,240
62,66,106680,120
74,78,106680,120
72,62,106800,960
84,86,106800,960
78,62,106800,960
57,45,107280,160
60,54,107280,160
68,51,107440,160
71,61,107440,160
69,54,107600,160
72,64,107600,160
83,67,107760,160
80,56,107760,160
81,59,107920,160
84,70,107920,160
92,62,108080,160
95,73,108080,160
93,70,108240,240
96,83,108240,240
74,78,108600,120
62,66,108600,120
83,86,108720,960
71,62,108720,960
77,62,108720,960
59,54,109200,160
56,45,109200,160
67,51,109360,160
70,61,109360,160
71,64,109520,160
68,54,109520,160
82,67,109680,160
79,56,109680,160
80,59,109840,160
83,70,109840,160
94,73,110000,160
91,62,110000,160
92,70,110160,240
95,83,110160,240
62,66,110520,120
74,78,110520,120
82,86,110640,480
70,73,110640,480
60,46,111120,160
63,59,111120,160
64,60,111280,160
61,49,111280,160
70,73,111480,120
82,73,111480,120
69,72,111600,480
81,85,111600,480
60,46,112080,160
63,59,112080,160
61,49,112240,160
64,60,112240,160
67,52,112440,120
79,73,112440,120
74,86,112560,480
66,62,112560,480
62,62,112560,480
54,45,113040,160
57,54,113040,160
65,51,113200,160
68,61,113200,160
69,64,113360,160
66,54,113360,160
80,67,113520,160
77,56,113520,160
78,59,113680,160
81,70,113680,160
89,62,113840,160
92,73,113840,160
90,70,114000,240
93,83,114000,240
74,78,114360,120
62,66,114360,120
72,62,114480,960
78,62,114480,960
84,86,114480,960
57,45,114960,160
60,54,114960,160
68,51,115120,160
71,61,115120,160
72,64,115280,160
69,54,115280,160
80,56,115440,160
83,67,115440,160
81,59,115600,160
84,70,115600,160
95,73,115760,160
92,62,115760,160
96,83,115920,240
93,70,115920,240
74,78,116280,120
62,66,116280,120
71,62,116400,960
77,62,116400,960
83,86,116400,960
56,45,116880,160
59,54,116880,160
67,51,117040,160
70,61,117040,160
68,54,117200,160
71,64,117200,160
79,56,117360,160
82,67,117360,160
80,59,117520,160
83,70,117520,160
91,62,117680,160
94,73,117680,160
95,83,117840,240
92,70,117840,240
74,78,118200,120
62,66,118200,120
82,86,118320,480
70,73,118320,480
63,59,118800,160
60,46,118800,160
64,60,118960,160
61,49,118960,160
70,73,119160,120
82,73,119160,120
69,72,119280,480
81,85,119280,480
60,46,119760,160
63,59,119760,160
61,49,119920,160
64,60,119920,160
67,52,120120,120
79,73,120120,120
66,62,120240,240
74,78,120240,240
62,62,120240,240
94,70,120720,480
85,46,120720,160
84,46,120880,160
83,47,121040,160
82,48,121200,160
91,73,121200,480
81,48,121360,160
80,49,121520,160
79,50,121680,160
88,77,121680,480
78,50,121840,160
77,51,122000,160
85,80,122160,240
76,51,122160,240
70,47,122640,160
82,84,122640,480
73,60,122800,160
76,60,122960,160
74,68,123120,240
86,85,123120,240
78,68,123120,240
82,70,123600,480
73,46,123600,160
72,46,123760,160
71,47,123920,160
79,73,124080,480
70,48,124080,160
69,48,124240,160
68,49,124400,160
76,77,124560,480
67,50,124560,160
66,50,124720,160
65,51,124880,160
64,51,125040,240
73,80,125040,240
70,84,125520,480
58,47,125520,160
61,60,125680,160
64,60,125840,160
66,73,126000,240
74,93,126000,240
62,73,126000,240
76,70,126480,480
64,57,126480,160
70,57,126640,160
73,57,126800,160
69,71,126960,240
78,90,126960,240
66,71,126960,240
82,71,127440,480
70,58,127440,160
73,58,127600,160
76,59,127760,160
78,72,127920,240
74,72,127920,240
86,91,127920,240
88,73,128400,480
76,60,128400,160
82,60,128560,160
85,60,128720,160
90,94,128880,240
81,74,128880,240
78,74,128880,240
82,61,129360,160
94,75,129360,480
85,61,129520,160
88,62,129680,160
90,75,129840,240
86,75,129840,240
98,96,129840,240
94,77,130320,480
82,63,130320,160
85,63,130480,160
88,63,130640,160
86,77,130800,240
90,77,130800,240
98,98,130800,240
94,78,131280,480
82,64,131280,160
85,64,131440,160
88,64,131600,160
98,78,131760,240
86,66,131760,240
90,78,131760,240
94,75,132000,240
82,63,132000,240
74,62,132720,240
86,74,132720,240
70,62,132960,240
82,74,132960,240
74,73,133680,240
62,62,133680,240
58,62,133920,240
70,73,133920,240
50,61,134640,240
62,72,134640,240
62,71,135120,240
50,60,135120,240
62,70,135600,240
50,59,135600,240
62,69,136080,240
50,58,136080,240
62,68,136560,240
50,57,136560,240
62,67,137040,240
50,56,137040,240
39,50,137640,120
51,61,137640,120
53,61,137880,120
41,50,137880,120
55,61,138120,120
43,50,138120,120
45,50,138360,120
57,61,138360,120
47,50,138600,120
59,61,138600,120
49,50,138840,120
61,61,138840,120
63,61,139080,120
51,50,139080,120
53,50,139320,120
65,61,139320,120
55,52,139560,120
67,62,139560,120
69,63,139800,120
57,54,139800,120
71,66,140040,120
59,55,140040,120
73,67,140280,120
61,56,140280,120
75,68,140520,120
63,57,140520,120
77,69,140760,120
65,58,140760,120
79,70,141000,120
67,58,141000,120
81,72,141240,120
69,60,141240,120
71,61,141480,120
83,73,141480,120
73,74,141720,120
85,74,141720,120
85,75,141960,120
73,63,141960,120
71,62,142200,120
83,74,142200,120
69,61,142440,120
81,73,142440,120
79,72,142680,120
67,60,142680,120
77,70,142920,120
65,58,142920,120
63,58,143160,120
75,69,143160,120
73,68,143400,120
61,57,143400,120
59,56,143640,120
71,67,143640,120
69,66,143880,120
57,55,143880,120
67,62,144120,120
55,52,144120,120
65,61,144360,120
53,50,144360,120
63,61,144600,120
51,50,144600,120
49,50,144840,120
61,60,144840,120
59,57,145080,120
47,48,145080,120
57,56,145320,120
45,46,145320,120
43,45,145560,120
55,55,145560,120
41,44,145800,120
53,54,145800,120
39,44,146040,120
51,52,146040,120
65,24,147760,160
62,20,147760,480
70,20,147920,160
74,24,147920,160
74,21,148080,160
77,25,148080,160
86,26,148240,160
82,22,148240,160
86,22,148400,160
89,27,148400,160
94,23,148560,160
98,28,148560,160
86,24,148720,160
89,29,148720,160
86,28,148880,160
82,23,148880,160
77,27,149040,160
74,22,149040,160
74,25,149200,160
70,21,149200,160
65,24,149360,60
62,20,149360,60
62,20,149680,480
65,24,149680,160
74,24,149840,160
70,20,149840,160
77,25,150000,160
74,21,150000,160
86,26,150160,160
82,22,150160,160
86,22,150320,160
89,27,150320,160
94,23,150480,160
98,28,150480,160
89,29,150640,160
86,24,150640,160
86,28,150800,160
82,23,150800,160
74,22,150960,160
77,27,150960,160
74,25,151120,160
70,21,151120,160
65,24,151280,60
62,20,151280,60
63,20,151600,160
66,24,151600,160
75,24,151760,160
72,20,151760,160
78,25,151920,160
75,21,151920,160
84,22,152080,160
87,26,152080,160
87,22,152240,160
90,27,152240,160
99,28,152400,160
96,23,152400,160
87,24,152560,160
90,29,152560,160
87,28,152720,160
84,23,152720,160
75,22,152880,160
78,27,152880,160
75,25,153040,160
72,21,153040,160
66,24,153200,60
63,20,153200,60
65,24,153520,160
62,20,153520,160
70,20,153680,160
74,24,153680,160
77,25,153840,160
74,21,153840,160
86,26,154000,160
82,22,154000,160
86,22,154160,160
89,27,154160,160
98,28,154320,160
94,23,154320,160
86,24,154480,160
89,29,154480,160
82,23,154640,160
86,28,154640,160
74,22,154800,160
77,27,154800,160
74,25,154960,160
70,21,154960,160
62,20,155120,60
65,24,155120,60
62,20,155440,480
67,24,155440,160
74,24,155600,160
70,20,155600,160
74,21,155760,160
79,25,155760,160
82,22,155920,160
86,26,155920,160
91,27,156080,160
86,22,156080,160
94,23,156240,160
98,28,156240,160
86,24,156400,160
91,29,156400,160
82,23,156560,160
86,28,156560,160
79,27,156720,160
74,22,156720,160
74,25,156880,160
70,21,156880,160
67,24,157040,160
62,20,157040,160
62,20,157360,160
67,24,157360,160
70,20,157520,160
74,24,157520,160
74,21,157680,160
79,25,157680,160
86,26,157840,160
82,22,157840,160
86,22,158000,160
91,27,158000,160
94,23,158160,160
98,28,158160,160
91,29,158320,160
86,24,158320,160
82,23,158480,160
86,28,158480,160
79,27,158640,160
74,22,158640,160
74,25,158800,160
70,21,158800,160
67,24,158960,160
62,20,158960,160
67,24,159280,160
64,20,159280,160
76,24,159440,160
70,20,159440,160
76,21,159600,160
79,25,159600,160
88,26,159760,160
82,22,159760,160
91,27,159920,160
88,22,159920,160
94,23,160080,160
100,28,160080,160
88,24,160240,160
91,29,160240,160
82,23,160400,160
88,28,160400,160
79,27,160560,160
76,22,160560,160
76,25,160720,160
70,21,160720,160
67,24,160880,160
65,20,161200,960
69,24,161200,160
72,20,161360,160
77,24,161360,160
81,25,161520,160
77,21,161520,160
89,26,161680,160
84,22,161680,160
89,22,161840,160
93,27,161840,160
96,23,162000,160
101,28,162000,160
89,24,162160,160
93,29,162160,160
84,23,162320,160
89,28,162320,160
81,27,162480,160
77,22,162480,160
77,25,162640,160
72,21,162640,160
65,21,162800,160
69,24,162800,160
65,20,163120,480
68,24,163120,160
73,20,163280,160
77,24,163280,160
80,25,163440,160
77,21,163440,160
85,22,163600,160
89,26,163600,160
89,22,163760,160
92,27,163760,160
97,23,163920,160
101,28,163920,160
92,29,164080,160
89,24,164080,160
89,28,164240,160
85,23,164240,160
80,27,164400,160
77,22,164400,160
77,25,164560,160
73,21,164560,160
68,24,164720,60
68,24,165040,480
63,20,165040,160
73,20,165200,160
75,24,165200,160
75,21,165360,160
80,25,165360,160
85,22,165520,160
87,26,165520,160
87,22,165680,160
92,27,165680,160
96,23,165840,160
99,28,165840,160
92,29,166000,160
87,24,166000,160
87,28,166160,160
84,23,166160,160
75,22,166320,160
80,27,166320,160
72,21,166480,160
75,25,166480,160
63,22,166640,60
68,24,166640,60
63,20,166960,480
67,24,166960,160
75,24,167120,160
72,20,167120,160
75,21,167280,160
79,25,167280,160
87,26,167440,160
84,22,167440,160
87,22,167600,160
91,27,167600,160
96,23,167760,160
99,28,167760,160
91,29,167920,160
87,24,167920,160
87,28,168080,160
84,23,168080,160
79,27,168240,160
75,22,168240,160
75,25,168400,160
72,21,168400,160
67,24,168560,80
67,24,168880,480
62,20,168880,160
74,24,169040,160
72,20,169040,160
79,25,169200,160
74,21,169200,160
84,22,169360,160
86,26,169360,160
91,27,169520,160
86,22,169520,160
95,23,169680,160
98,28,169680,160
91,29,169840,160
86,24,169840,160
83,23,170000,160
86,28,170000,160
74,22,170160,160
79,27,170160,160
74,25,170320,160
71,21,170320,160
62,20,170480,60
67,24,170480,60
62,20,170800,480
65,24,170800,160
70,20,170960,160
74,24,170960,160
77,25,171120,160
74,21,171120,160
82,22,171280,160
86,26,171280,160
86,22,171440,160
89,27,171440,160
94,23,171600,160
98,28,171600,160
86,24,171760,160
89,29,171760,160
82,23,171920,160
86,28,171920,160
77,27,172080,160
74,22,172080,160
74,25,172240,160
70,21,172240,160
62,21,172400,60
65,24,172400,80
62,20,172720,160
67,24,172720,160
70,20,172880,160
74,24,172880,160
79,25,173040,160
74,21,173040,160
82,22,173200,160
86,26,173200,160
86,22,173360,160
91,27,173360,160
98,28,173520,160
94,23,173520,160
86,24,173680,160
91,29,173680,160
82,23,173840,160
86,28,173840,160
74,22,174000,160
79,27,174000,160
74,25,174160,160
70,21,174160,160
67,24,174320,160
62,20,174320,160
67,25,174640,160
63,25,174640,160
74,25,174800,160
72,27,175120,160
75,27,175120,160
84,27,175280,160
79,27,175280,160
87,27,175600,160
82,27,175600,160
94,27,175760,160
91,27,175760,160
84,25,176080,160
87,25,176080,160
96,25,176240,160
91,25,176240,160
62,20,176560,1680
66,24,176560,160
74,24,176720,160
69,20,176720,160
74,21,176880,160
78,25,176880,160
81,22,177040,160
86,26,177040,160
90,27,177200,160
86,22,177200,160
98,28,177360,160
93,23,177360,160
90,29,177520,160
86,24,177520,160
81,23,177680,160
86,28,177680,160
74,22,177840,160
78,27,177840,160
86,25,178000,160
81,21,178000,160
74,20,178160,160
78,24,178160,160
69,22,178320,160
74,26,178320,160
62,20,178480,160
66,24,178480,160
74,27,178640,160
69,22,178640,160
74,33,180480,240
86,30,180720,240
98,37,180960,240
74,24,181360,144
86,29,181360,144
74,26,181520,144
86,31,181520,144
74,28,181680,144
86,34,181680,144
86,36,181840,144
74,29,181840,144
86,39,182000,144
74,32,182000,144
86,52,182160,960
74,44,182160,960
86,49,183120,720
74,41,183120,720
72,35,183920,160
84,41,183920,160
82,55,184080,960
70,46,184080,960
70,45,185040,720
82,54,185040,720
70,48,185840,160
82,57,185840,160
81,62,186000,720
69,52,186000,720
81,63,186800,160
69,63,186800,160
90,69,186960,720
78,69,186960,720
69,49,187760,160
81,58,187760,160
72,55,187920,960
84,66,187920,960
82,60,188880,480
70,50,188880,480
74,57,189840,960
86,68,189840,960
74,53,190800,720
86,63,190800,720
72,50,191600,160
84,60,191600,160
70,57,191760,960
82,68,191760,960
70,53,193520,160
82,63,193520,160
85,68,193680,720
73,57,193680,720
72,61,194480,160
84,73,194480,160
82,66,194640,720
94,79,194640,720
76,53,195440,160
88,63,195440,160
89,72,195600,960
77,60,195600,960
77,64,197520,960
89,78,197520,960
77,62,198480,720
89,74,198480,720
77,60,199280,160
89,72,199280,160
80,69,199440,960
92,83,199440,960
75,67,200400,480
87,80,200400,480
92,89,201360,960
80,74,201360,960
80,71,202320,720
92,84,202320,720
80,69,203120,160
92,82,203120,160
95,94,203280,960
83,79,203280,960
90,90,204240,480
78,75,204240,480
61,34,205520,144
71,40,205520,144
71,40,205680,144
62,34,205680,144
71,40,205840,144
63,34,205840,144
71,40,206000,144
64,34,206000,144
65,34,206160,144
71,40,206160,144
71,40,206320,144
66,34,206320,144
71,40,206480,144
67,34,206480,144
71,40,206640,144
68,34,206640,144
71,40,206800,144
69,34,206800,144
71,40,206960,144
70,34,206960,144
71,40,207120,144
71,35,207280,144
72,41,207280,144
71,36,207440,144
73,42,207440,144
74,44,207600,144
71,37,207600,144
75,45,207760,144
71,37,207760,144
71,38,207920,144
76,46,207920,144
77,47,208080,144
71,39,208080,144
78,48,208240,144
71,40,208240,144
79,50,208400,144
71,42,208400,144
71,42,208560,144
80,51,208560,144
81,52,208720,144
71,44,208720,144
82,53,208880,144
71,45,208880,144
83,51,209040,144
83,44,209200,144
72,52,209200,144
83,44,209360,144
73,52,209360,144
83,45,209520,144
74,53,209520,144
83,46,209680,144
75,55,209680,144
76,56,209840,144
83,47,209840,144
77,57,210000,144
83,48,210000,144
83,49,210160,144
78,58,210160,144
79,59,210320,144
83,49,210320,144
80,60,210480,144
83,50,210480,144
81,60,210640,144
83,50,210640,144
83,51,210800,144
82,61,210800,144
83,62,210960,144
84,63,211120,144
83,53,211120,144
83,55,211280,144
85,64,211280,144
83,55,211440,144
86,64,211440,144
83,56,211600,144
87,66,211600,144
88,67,211760,144
83,56,211760,144
89,68,211920,144
83,57,211920,144
83,58,212080,144
90,69,212080,144
91,70,212240,144
83,59,212240,144
83,59,212400,144
92,70,212400,144
83,60,212560,144
93,71,212560,144
83,61,212720,144
94,72,212720,144
83,72,212880,144
95,61,212880,144
95,61,213040,144
84,73,213040,144
85,74,213200,144
95,62,213200,144
95,62,213360,144
86,74,213360,144
95,63,213520,144
87,75,213520,144
88,77,213680,144
95,64,213680,144
88,79,214000,144
95,67,214000,144
86,79,214000,144
89,80,214160,144
86,68,214160,144
95,68,214160,144
86,68,214320,144
90,81,214320,144
95,68,214320,144
91,82,214480,144
95,69,214480,144
86,69,214480,144
95,70,214640,90
86,70,214640,90
92,83,214640,90
91,73,214960,160
100,86,214960,160
96,73,214960,160
99,86,215120,160
90,73,215120,160
95,73,215120,160
89,72,215280,160
94,72,215280,160
98,85,215280,160
97,84,215440,160
93,71,215440,160
88,71,215440,160
96,84,215600,160
87,71,215600,160
92,71,215600,160
95,83,215760,160
86,70,215760,160
91,70,215760,160
94,83,215920,160
85,70,215920,160
90,83,215920,160
89,69,216080,160
84,69,216080,160
93,82,216080,160
83,68,216240,160
88,68,216240,160
92,81,216240,160
87,68,216400,160
91,81,216400,160
82,68,216400,160
90,80,216560,160
86,68,216560,160
81,68,216560,160
85,56,216720,160
80,56,216720,160
89,79,216720,160
79,56,216880,160
88,79,216880,160
84,56,216880,160
78,56,217040,160
87,78,217040,160
83,78,217040,160
77,55,217200,160
82,55,217200,160
86,77,217200,160
85,77,217360,160
76,55,217360,160
81,55,217360,160
75,53,217520,160
84,75,217520,160
80,53,217520,160
79,62,217840,160
83,74,217840,160
74,62,217840,160
82,74,218000,160
78,62,218000,160
73,62,218000,160
72,61,218160,160
77,73,218160,160
81,73,218160,160
80,72,218320,160
74,61,218320,160
71,61,218320,160
74,61,218480,160
79,72,218480,160
71,61,218480,160
88,73,218800,160
79,61,218800,160
84,61,218800,160
83,61,218960,160
78,61,218960,160
87,73,218960,160
86,71,219120,160
82,61,219120,160
77,61,219120,160
81,59,219280,160
85,70,219280,160
76,59,219280,160
80,59,219440,160
75,59,219440,160
84,70,219440,160
83,69,219600,160
74,58,219600,160
79,58,219600,160
82,69,219760,160
73,58,219760,160
78,58,219760,160
81,67,219920,160
72,56,219920,160
77,56,219920,160
76,55,220080,160
71,55,220080,160
80,66,220080,160
79,65,220240,160
70,55,220240,160
75,55,220240,160
74,55,220400,160
78,65,220400,160
69,55,220400,160
68,53,220560,160
73,53,220560,160
77,64,220560,160
76,65,220720,160
72,54,220720,160
75,64,220880,160
71,53,220880,160
70,52,221040,160
74,62,221040,160
64,50,221200,160
69,50,221200,160
73,61,221200,160
63,50,221360,160
72,60,221360,160
68,50,221360,160
67,50,221520,160
71,59,221520,160
62,50,221520,160
70,59,221680,160
66,50,221680,160
61,50,221680,160
60,48,221840,160
69,58,221840,160
65,48,221840,160
64,47,222000,160
59,47,222000,160
68,57,222000,160
58,47,222160,160
63,47,222160,160
67,56,222160,160
57,46,222320,160
66,54,222320,160
62,46,222320,160
61,54,222480,160
65,54,222480,160
56,46,222480,160
64,53,222640,160
60,45,222640,160
55,45,222640,160
54,43,222800,160
59,43,222800,160
63,52,222800,160
62,50,222960,160
53,43,222960,160
58,43,222960,160
52,42,223120,160
57,42,223120,160
61,50,223120,160
51,40,223280,160
60,48,223280,160
56,40,223280,160
50,39,223440,160
55,39,223440,160
59,47,223440,160
54,38,223600,160
58,46,223600,160
49,38,223600,160
53,37,223760,160
57,45,223760,160
48,37,223760,160
56,44,223920,160
52,37,223920,160
47,37,223920,160
55,43,224080,160
51,35,224080,160
46,35,224080,160
50,35,224240,160
45,35,224240,160
54,42,224240,160
60,48,230640,480
61,49,231120,480
62,52,231600,480
63,53,232080,480
64,57,232560,480
65,58,233040,480
66,61,233520,480
67,65,234000,480
68,66,234480,480
69,69,234960,480
70,71,235440,480
71,75,235920,480
72,78,236400,480
61,70,236880,240
73,80,236880,240
70,75,237360,960
82,90,237360,960
69,55,238160,160
81,66,238160,160
67,53,238320,160
79,63,238320,160
65,53,238479,160
77,63,238480,160
76,70,238640,160
64,59,238640,160
62,55,238797,160
74,65,238800,160
73,73,238960,160
61,62,238960,160
76,65,239120,160
64,55,239120,160
72,72,239280,160
60,60,239280,160
76,65,239440,160
64,55,239440,160
59,60,239600,160
71,72,239600,160
76,65,239760,160
64,55,239760,160
58,60,239920,160
70,72,239920,160
76,66,240080,160
64,55,240080,160
57,60,240240,240
69,72,240240,240
73,75,240720,320
85,90,240720,320
82,66,241040,160
70,55,241040,160
81,63,241200,160
69,53,241200,160
79,63,241360,160
67,53,241360,160
65,59,241520,160
77,70,241520,160
76,72,241680,160
64,60,241680,160
79,65,241840,160
67,55,241840,160
63,60,242000,160
75,72,242000,160
67,52,242160,160
79,62,242160,160
74,73,242320,160
62,62,242320,160
67,52,242480,160
79,62,242480,160
61,60,242640,160
73,72,242640,160
67,53,242800,160
79,63,242800,160
70,64,242960,160
58,48,242960,160
79,73,243120,120
67,58,243120,120
57,63,243360,120
69,75,243360,120
76,75,243600,320
88,90,243600,320
74,55,243920,160
86,66,243920,160
85,63,244080,160
73,53,244080,160
82,63,244240,160
70,53,244240,160
81,70,244400,160
69,59,244400,160
79,64,244560,160
91,77,244560,160
89,72,244720,160
77,61,244720,160
88,71,244880,160
76,60,244880,160
86,68,245040,160
74,57,245040,160
73,57,245200,160
85,68,245200,160
94,75,245360,160
82,63,245360,160
93,77,245520,160
81,64,245520,160
91,75,245680,160
79,63,245680,160
77,62,245840,160
89,73,245840,160
88,72,246000,160
76,61,246000,160
100,84,246160,160
88,71,246160,160
86,69,246320,160
98,82,246320,160
97,78,246480,160
85,65,246480,160
82,67,246640,160
94,79,246640,160
93,78,246800,160
81,66,246800,160
82,61,246960,160
94,72,246960,160
79,63,247120,160
91,76,247120,160
94,70,247280,160
82,59,247280,160
77,63,247440,160
89,76,247440,160
91,70,247600,160
79,70,247600,160
76,63,247760,160
88,76,247760,160
91,70,247920,160
79,70,247920,160
86,76,248080,160
74,63,248080,160
76,60,248240,160
88,71,248240,160
85,77,248400,160
73,64,248400,160
88,73,248560,160
76,61,248560,160
70,64,248720,160
82,78,248720,160
73,59,248880,160
85,69,248880,160
81,79,249040,160
69,66,249040,160
70,61,249200,160
82,72,249200,160
79,79,249360,160
67,67,249360,160
82,73,249520,160
70,61,249520,160
77,81,249680,160
65,67,249680,160
79,74,249840,160
67,62,249840,160
76,82,250000,160
64,69,250000,160
67,63,250160,160
79,74,250160,160
74,84,250320,160
62,70,250320,160
64,64,250480,160
76,75,250480,160
73,82,250640,160
61,68,250640,160
76,73,250800,160
64,63,250800,160
58,69,250960,160
70,83,250960,160
61,64,251120,160
73,75,251120,160
57,71,251280,160
69,85,251280,160
58,65,251440,160
70,76,251440,160
68,86,251600,160
56,71,251600,160
69,79,251760,160
57,66,251760,160
55,73,251920,160
67,86,251920,160
57,66,252080,160
69,79,252080,160
66,86,252240,160
54,74,252240,160
69,77,252400,160
57,65,252400,160
65,88,252560,160
53,74,252560,160
57,67,252720,160
69,80,252720,160
64,88,252880,160
52,75,252880,160
69,80,253040,160
57,68,253040,160
63,90,253200,240
51,76,253200,240
69,83,253440,240
57,71,253440,240
48,77,253680,240
60,91,253680,240
69,83,253920,240
57,71,253920,240
49,77,254160,240
61,91,254160,240
57,70,254400,180
69,83,254400,180
86,59,254640,480
77,50,254640,480
74,50,254640,480
74,50,255360,480
77,50,255360,480
86,59,255360,480
72,45,255960,120
84,54,255960,120
82,59,256080,480
76,50,256080,480
70,50,256080,480
70,50,256800,480
82,59,256800,480
76,50,256800,480
82,56,257400,120
70,47,257400,120
69,52,257520,480
81,62,257520,480
76,52,257520,480
81,61,258120,120
69,51,258120,120
79,54,258240,480
88,64,258240,480
76,54,258240,480
79,62,258840,120
67,52,258840,120
77,65,258960,480
65,55,258960,480
69,55,258960,480
69,49,259560,120
81,58,259560,120
62,52,259680,480
74,62,259680,480
65,52,259680,480
72,50,260400,480
84,59,260400,480
76,50,260400,480
79,51,261120,480
72,51,261120,480
84,60,261120,480
70,47,261720,120
82,56,261720,120
77,53,261840,480
81,62,261840,480
69,53,261840,480
72,50,262440,120
84,60,262440,120
77,64,262560,480
69,54,262560,480
65,54,262560,480
88,66,263280,480
80,56,263280,480
76,56,263280,480
76,57,264000,480
83,57,264000,480
88,67,264000,480
74,53,264600,120
86,63,264600,120
81,59,264720,480
73,59,264720,480
85,69,264720,480
76,56,265320,120
88,67,265320,120
81,71,265440,480
69,60,265440,480
73,60,265440,480
81,69,266040,120
69,58,266040,120
91,73,266160,480
85,62,266160,480
79,62,266160,480
81,73,266880,480
69,62,266880,480
81,67,267480,120
69,56,267480,120
84,62,267600,480
78,62,267600,480
90,73,267600,480
69,62,268320,480
81,73,268320,480
81,70,268920,120
69,58,268920,120
77,65,269040,480
89,77,269040,480
80,65,269040,480
89,76,269640,120
77,63,269640,120
76,67,269760,480
80,67,269760,480
88,80,269760,480
74,65,270360,120
86,77,270360,120
85,81,270480,480
73,68,270480,480
81,68,270480,480
88,72,271080,120
76,61,271080,120
81,77,271200,480
73,65,271200,480
69,65,271200,480
57,61,271800,120
69,72,271800,120
73,57,271920,480
79,67,271920,480
67,57,271920,480
57,57,272640,480
69,67,272640,480
57,51,273240,120
69,62,273240,120
72,57,273360,480
66,57,273360,480
78,67,273360,480
57,57,274080,480
69,67,274080,480
69,64,274680,120
57,54,274680,120
65,59,274800,480
68,59,274800,480
77,71,274800,480
65,58,275400,120
77,70,275400,120
68,62,275520,480
76,73,275520,480
64,62,275520,480
74,71,276120,120
62,59,276120,120
69,63,276240,240
61,63,276240,240
73,74,276240,240
64,49,276600,120
73,58,276600,120
67,51,276840,120
76,60,276840,120
70,63,277080,120
79,63,277080,120
82,65,277320,120
73,54,277320,120
83,80,277440,120
80,67,277440,120
71,67,277440,120
77,67,277440,120
76,71,277680,120
88,84,277680,120
85,71,277680,120
81,71,277680,120
85,64,278040,120
76,53,278040,120
79,55,278280,120
88,66,278280,120
91,69,278520,120
82,69,278520,120
94,71,278760,120
85,59,278760,120
89,64,278880,120
83,64,278880,120
92,64,278880,120
95,77,278880,120
97,67,279120,120
88,67,279120,120
93,67,279120,120
100,79,279120,120
92,57,279480,120
95,69,279480,120
83,57,279480,120
89,57,279480,120
97,59,279600,120
100,71,279600,120
93,59,279600,120
88,59,279600,120
92,57,279840,120
83,57,279840,120
95,70,279840,120
89,57,279840,120
93,61,280080,120
97,61,280080,120
100,73,280080,120
88,61,280080,120
83,59,280320,120
92,59,280320,120
89,59,280320,120
95,71,280320,120
93,61,280560,120
97,61,280560,120
100,74,280560,120
88,61,280560,120
89,60,280920,120
95,73,280920,120
92,60,280920,120
83,60,280920,120
88,64,281040,120
93,64,281040,120
100,75,281040,120
97,64,281040,120
89,61,281280,120
92,61,281280,120
95,73,281280,120
83,61,281280,120
88,64,281520,120
97,64,281520,120
93,64,281520,120
100,76,281520,120
92,61,281760,120
89,61,281760,120
95,74,281760,120
83,61,281760,120
97,66,282000,120
88,66,282000,120
100,78,282000,120
93,66,282000,120
80,55,282240,120
68,47,282240,120
69,47,282360,120
81,55,282360,120
82,59,282480,120
70,50,282480,120
81,57,282720,120
69,49,282720,120
82,58,282840,120
70,49,282840,120
83,63,282960,120
71,53,282960,120
82,60,283200,120
70,51,283200,120
71,52,283320,120
83,61,283320,120
84,67,283440,120
72,55,283440,120
81,60,283680,120
69,51,283680,120
82,60,283800,120
70,51,283800,120
71,54,283920,120
83,64,283920,120
70,52,284160,120
82,61,284160,120
83,63,284280,120
71,53,284280,120
84,68,284400,120
72,57,284400,120
83,66,284640,120
71,55,284640,120
72,56,284760,120
84,67,284760,120
85,72,284880,120
73,60,284880,120
70,57,285120,120
82,69,285120,120
83,69,285240,120
71,57,285240,120
84,74,285360,120
72,61,285360,120
71,59,285600,120
83,71,285600,120
84,72,285720,120
72,60,285720,120
85,77,285840,120
73,64,285840,120
72,61,286080,120
84,74,286080,120
73,61,286200,120
85,74,286200,120
86,83,286320,180
74,70,286320,180
68,50,286500,60
65,42,286500,60
69,60,286560,180
66,51,286560,180
86,83,286800,180
74,70,286800,180
68,50,286980,60
65,42,286980,60
69,60,287040,180
66,51,287040,180
84,68,287160,120
72,57,287160,120
82,83,287280,180
70,70,287280,180
66,50,287460,60
63,42,287460,60
64,51,287520,180
67,60,287520,180
82,84,287760,180
70,71,287760,180
63,42,287940,60
66,50,287940,60
67,60,288000,180
64,51,288000,180
82,68,288120,120
70,57,288120,120
81,82,288240,180
69,69,288240,180
63,50,288420,60
60,42,288420,60
61,51,288480,180
64,60,288480,180
81,75,288600,120
69,63,288600,120
76,68,288720,180
88,83,288720,180
63,50,288900,60
60,42,288900,60
61,51,288960,180
64,60,288960,180
67,57,289080,120
79,68,289080,120
66,69,289200,180
78,82,289200,180
65,42,289380,60
68,50,289380,60
66,51,289440,180
69,60,289440,180
69,55,289560,60
81,65,289560,120
74,79,289680,180
62,67,289680,180
65,50,289860,60
61,42,289860,60
66,60,289920,180
62,51,289920,180
73,70,290160,180
85,83,290160,180
64,42,290340,60
67,50,290340,60
68,60,290400,180
65,51,290400,180
73,70,290640,180
85,83,290640,180
64,42,290820,60
67,50,290820,60
68,60,290880,180
65,51,290880,180
71,57,291000,120
83,68,291000,120
69,70,291120,180
81,83,291120,180
65,42,291300,60
68,50,291300,60
66,51,291360,180
69,60,291360,180
66,71,291600,180
78,84,291600,180
65,42,291780,60
68,50,291780,60
66,51,291840,180
69,60,291840,180
81,68,291960,120
69,57,291960,60
76,70,292080,180
88,83,292080,180
70,50,292260,60
67,42,292260,60
71,60,292320,180
68,51,292320,180
88,83,292560,180
76,70,292560,180
70,50,292740,60
67,42,292740,60
68,51,292800,180
71,60,292800,180
86,68,292920,120
74,57,292920,120
85,83,293040,180
73,70,293040,180
72,50,293220,60
68,42,293220,60
73,60,293280,180
69,51,293280,180
69,71,293520,180
81,84,293520,180
72,50,293700,60
68,42,293700,60
73,60,293760,180
69,51,293760,180
69,57,293880,60
81,68,293880,120
84,56,294000,180
90,66,294000,180
78,56,294000,180
74,40,294180,60
71,33,294180,60
72,40,294240,180
75,48,294240,180
90,66,294480,180
78,56,294480,180
84,56,294480,180
71,33,294660,60
74,40,294660,60
72,40,294720,180
75,48,294720,180
84,45,294840,120
78,45,294840,120
90,54,294840,120
81,56,294960,180
85,56,294960,180
93,66,294960,180
75,40,295140,60
72,33,295140,60
73,40,295200,180
76,48,295200,180
88,67,295440,180
76,56,295440,180
81,56,295440,180
72,40,295620,60
68,33,295620,60
69,40,295680,180
73,48,295680,180
84,58,295920,180
78,58,295920,180
90,69,295920,180
71,34,296100,60
74,42,296100,60
72,42,296160,180
75,50,296160,180
78,58,296400,180
84,58,296400,180
90,69,296400,180
71,34,296580,60
74,42,296580,60
72,42,296640,180
75,50,296640,180
84,47,296760,120
78,47,296760,120
90,56,296760,120
86,58,296880,180
94,69,296880,180
82,58,296880,180
76,42,297060,60
73,34,297060,60
77,50,297120,180
74,42,297120,180
77,58,297360,180
89,70,297360,180
82,58,297360,180
73,42,297540,60
69,34,297540,60
70,42,297600,180
74,50,297600,180
91,72,297840,180
79,60,297840,180
85,60,297840,180
75,44,298020,60
72,36,298020,60
76,53,298080,180
73,44,298080,180
91,74,298320,180
85,62,298320,180
79,62,298320,180
75,45,298500,60
72,37,298500,60
76,55,298560,180
73,46,298560,180
91,61,298680,120
85,51,298680,120
79,51,298680,120
95,76,298800,180
87,64,298800,180
83,64,298800,180
74,47,298980,60
70,38,298980,60
75,56,299040,180
71,47,299040,180
83,66,299280,180
95,79,299280,180
73,39,299460,60
76,48,299460,60
74,48,299520,180
77,58,299520,180
83,54,299640,120
95,65,299640,120
84,68,299760,180
96,81,299760,180
71,40,299940,60
75,49,299940,60
76,60,300000,180
72,50,300000,180
85,70,300240,180
97,83,300240,180
78,51,300420,60
75,41,300420,60
79,61,300480,180
76,51,300480,180
85,58,300600,120
97,69,300600,120
86,72,300720,180
98,85,300720,180
76,45,300900,60
80,53,300900,60
81,62,300960,180
77,52,300960,180
81,66,301200,180
93,78,301200,180
73,45,301380,60
76,53,301380,60
77,60,301440,180
74,51,301440,180
77,72,301680,180
89,85,301680,180
68,45,301860,60
73,53,301860,60
74,62,301920,180
69,52,301920,180
86,78,302160,180
74,66,302160,180
64,45,302340,60
68,53,302340,60
65,51,302400,180
69,60,302400,180
82,72,302640,180
94,85,302640,180
73,45,302820,60
76,53,302820,60
74,52,302880,180
77,62,302880,180
77,66,303120,180
89,78,303120,180
69,45,303300,60
73,53,303300,60
70,51,303360,180
74,60,303360,180
74,72,303600,180
86,85,303600,180
69,53,303780,60
64,45,303780,60
70,62,303840,180
65,52,303840,180
82,78,304080,180
70,66,304080,180
64,53,304260,60
61,45,304260,60
62,51,304320,180
65,60,304320,180
87,85,304560,180
75,72,304560,180
66,47,304740,60
62,40,304740,60
63,46,304800,180
67,55,304800,180
82,78,305040,180
70,66,305040,180
66,47,305220,60
62,40,305220,60
67,54,305280,180
63,45,305280,180
75,72,305520,180
87,85,305520,180
66,47,305700,60
62,40,305700,60
67,55,305760,180
63,46,305760,180
82,78,306000,180
70,66,306000,180
66,47,306180,60
62,40,306180,60
63,45,306240,180
67,54,306240,180
69,72,306480,180
81,85,306480,180
64,53,306660,60
61,45,306660,60
62,52,306720,180
65,62,306720,180
77,78,306960,180
65,66,306960,180
56,45,307140,60
61,53,307140,60
57,51,307200,180
62,60,307200,180
64,72,307440,180
76,85,307440,180
55,52,307680,180
58,52,307680,180
62,62,307680,180
69,66,307920,180
81,78,307920,180
69,60,308160,180
61,51,308160,180
57,51,308160,180
64,51,308160,180
62,70,308400,68
62,53,308480,68
74,54,308560,68
74,54,308640,68
86,54,308720,68
86,58,308800,68
98,62,308880,68
86,54,308960,68
86,58,309040,68
74,54,309120,68
74,58,309200,68
62,54,309280,68
62,45,309440,68
66,54,309440,68
72,45,309520,68
74,54,309520,68
74,46,309600,68
78,55,309600,68
84,49,309680,68
86,58,309680,68
90,55,309760,68
86,46,309760,68
96,53,309840,68
98,63,309840,68
90,55,309920,68
86,46,309920,68
86,60,310000,68
84,51,310000,68
78,55,310080,68
74,46,310080,68
72,49,310160,68
74,58,310160,68
66,54,310240,68
62,45,310240,68
65,53,310400,68
62,45,310400,68
74,53,310480,68
71,45,310480,68
77,53,310560,68
74,45,310560,68
86,56,310640,68
83,47,310640,68
89,53,310720,68
86,45,310720,68
98,60,310800,68
95,51,310800,68
86,45,310880,68
89,53,310880,68
83,47,310960,68
86,56,310960,68
77,53,311040,68
74,45,311040,68
71,48,311120,68
74,57,311120,68
62,45,311200,68
65,53,311200,68
62,45,311360,68
64,53,311360,68
70,45,311440,68
74,53,311440,68
76,53,311520,68
74,45,311520,68
82,47,311600,68
86,56,311600,68
86,45,311680,68
88,53,311680,68
98,60,311760,68
94,51,311760,68
86,45,311840,68
88,53,311840,68
82,47,311920,68
86,56,311920,68
74,45,312000,68
76,53,312000,68
70,48,312080,68
74,57,312080,68
62,45,312160,68
64,53,312160,68
66,54,312320,68
62,45,312320,68
69,45,312400,68
74,54,312400,68
74,46,312480,68
78,55,312480,68
81,49,312560,68
86,58,312560,68
86,46,312640,68
90,55,312640,68
93,53,312720,68
98,63,312720,68
90,55,312800,68
86,46,312800,68
86,60,312880,68
81,51,312880,68
78,55,312960,68
74,46,312960,68
69,49,313040,68
74,58,313040,68
66,54,313120,68
62,45,313120,68
63,54,313280,68
60,45,313280,68
66,45,313360,68
72,54,313360,68
75,55,313440,68
72,46,313440,68
78,49,313520,68
84,58,313520,68
84,46,313600,68
87,55,313600,68
96,63,313680,68
90,53,313680,68
87,55,313760,68
84,46,313760,68
84,60,313840,68
78,51,313840,68
72,46,313920,68
75,55,313920,68
72,58,314000,68
66,49,314000,68
60,45,314080,68
63,54,314080,68
62,53,314240,68
59,45,314240,68
71,53,314320,68
65,45,314320,68
74,53,314400,68
71,45,314400,68
83,56,314480,68
77,47,314480,68
86,53,314560,68
83,45,314560,68
95,60,314640,68
89,51,314640,68
83,45,314720,68
86,53,314720,68
77,47,314800,68
83,56,314800,68
74,53,314880,68
71,45,314880,68
71,57,314960,68
65,48,314960,68
59,45,315040,68
62,53,315040,68
58,45,315120,68
61,53,315120,68
64,45,315200,68
70,53,315200,68
70,45,315280,68
73,53,315280,68
82,56,315360,68
76,47,315360,68
82,45,315440,68
85,53,315440,68
94,60,315520,68
88,51,315520,68
58,53,315600,68
55,45,315600,68
67,53,315680,68
61,45,315680,68
67,45,315760,68
70,53,315760,68
79,56,315840,68
73,47,315840,68
82,53,315920,68
79,45,315920,68
91,60,316000,68
85,51,316000,68
62,70,316080,120
85,60,316320,80
94,70,316320,240
84,60,316400,80
83,60,316480,80
82,60,316560,80
91,76,316560,240
81,60,316640,80
80,60,316720,80
88,70,316800,240
79,60,316800,80
78,60,316880,80
77,60,316960,80
85,76,317040,120
76,64,317040,120
70,59,317280,120
82,70,317280,120
73,52,317400,120
76,62,317400,120
69,59,317520,120
81,70,317520,120
76,62,317640,120
73,52,317640,120
67,59,317760,120
79,70,317760,120
70,53,317880,120
73,63,317880,120
74,60,318000,120
86,72,318000,120
78,60,318000,120
82,63,318240,240
73,54,318240,80
72,54,318320,80
71,54,318400,80
79,68,318480,240
70,54,318480,80
69,54,318560,80
68,54,318640,80
76,63,318720,240
67,54,318720,80
66,54,318800,80
65,54,318880,80
64,57,318960,120
73,68,318960,120
58,58,319200,120
70,69,319200,120
64,60,319320,120
61,50,319320,120
69,69,319440,120
57,58,319440,120
61,50,319560,120
64,60,319560,120
67,69,319680,120
55,58,319680,120
58,51,319800,120
61,61,319800,120
62,59,319920,120
66,59,319920,120
74,70,319920,120
64,58,320160,90
70,58,320160,90
73,58,320160,90
76,69,320160,90
73,58,320280,90
64,58,320280,90
70,58,320280,90
76,69,320280,90
74,65,320400,120
78,77,320400,120
66,65,320400,120
69,65,320400,120
82,73,320640,90
76,61,320640,90
73,61,320640,90
70,61,320640,90
70,61,320760,90
82,73,320760,90
76,61,320760,90
73,61,320760,90
78,58,320880,120
74,58,320880,120
86,85,320880,120
81,65,320880,120
76,61,321120,90
88,72,321120,90
82,61,321120,90
85,61,321120,90
76,61,321240,90
88,72,321240,90
82,61,321240,90
85,61,321240,90
78,69,321360,120
81,69,321360,120
86,69,321360,120
90,82,321360,120
82,65,321600,90
85,65,321600,90
88,65,321600,90
94,77,321600,90
82,65,321720,90
85,65,321720,90
88,65,321720,90
94,77,321720,90
98,87,321840,120
90,73,321840,120
86,73,321840,120
88,66,322080,90
94,78,322080,90
85,66,322080,90
82,66,322080,90
85,66,322200,90
82,66,322200,90
88,66,322200,90
94,78,322200,90
86,76,322320,120
98,91,322320,120
90,76,322320,120
85,72,322560,90
88,72,322560,90
94,85,322560,90
82,72,322560,90
85,72,322680,90
82,72,322680,90
88,72,322680,90
94,85,322680,90
86,79,322800,240
98,93,322800,240
90,79,322800,240
94,86,323040,240
82,73,323040,240
88,73,323040,240
85,73,323040,240
94,86,323520,240
82,73,323520,240
88,73,323520,240
85,73,323520,240
82,70,324000,240
94,83,324000,240
85,70,324000,240
88,70,324000,240
77,70,324240,240
83,83,324240,240
89,83,324240,240
80,70,324240,240
72,70,324480,240
75,70,324480,240
78,70,324480,240
84,83,324480,240
67,70,324720,240
70,70,324720,240
79,83,324720,240
73,70,324720,240
74,83,324960,240
62,70,324960,240
65,70,324960,240
68,70,324960,240
60,70,325200,240
69,83,325200,240
63,70,325200,240
57,70,325200,240
70,83,325440,240
58,70,325440,240
61,70,325440,240
64,70,325440,240
53,68,326160,480
59,68,326160,480
65,81,326160,720
61,72,326880,240
62,72,327120,360
64,72,327480,45
64,72,327540,45
67,81,327600,720
65,77,328320,240
64,79,328560,320
62,75,328880,320
61,75,329200,320
60,80,329520,320
59,76,329840,320
53,57,330160,320
56,57,330160,320
58,68,330160,320
58,69,330480,960
54,58,330480,960
53,58,331440,960
58,69,331440,960
58,58,332400,960
63,69,332400,960
51,58,332400,960
63,75,333360,840
51,63,333360,840
56,63,333360,840
53,62,334200,90
62,62,334200,90
65,74,334200,90
56,62,334200,90
56,68,334320,240
53,68,334320,240
62,68,334320,240
65,80,334320,240
61,54,337200,240
65,54,337200,240
65,49,338040,90
62,49,338040,90
65,54,338160,120
62,54,338160,120
61,54,341040,240
65,54,341040,240
62,49,341880,90
65,49,341880,90
65,54,342000,120
62,54,342000,120
62,48,342720,240
71,54,342960,720
62,51,343680,240
56,43,344640,240
65,51,344880,720
56,46,345600,240
65,55,350760,132
64,57,350880,132
62,59,351000,132
61,61,351120,132
60,63,351240,132
59,65,351360,132
58,67,351480,132
57,76,351600,720
69,54,352440,45
74,54,352440,45
78,54,352440,45
81,64,352440,45
69,54,352500,45
74,54,352500,45
78,54,352500,45
81,64,352500,45
69,61,352560,720
74,61,352560,720
78,61,352560,720
81,72,352560,720
57,74,353400,120
59,78,353520,720
86,64,354360,45
83,54,354360,45
78,54,354360,45
74,54,354360,45
86,64,354420,45
83,54,354420,45
78,54,354420,45
74,54,354420,45
86,69,354480,720
83,58,354480,720
78,58,354480,720
74,58,354480,720
59,75,355320,120
54,67,355440,720
66,79,355440,720
90,64,355800,45
85,54,355800,45
82,54,355800,45
78,54,355800,45
90,64,355860,45
85,54,355860,45
82,54,355860,45
78,54,355860,45
90,68,355920,240
85,57,355920,240
82,57,355920,240
78,57,355920,240
57,65,356400,720
69,77,356400,720
93,64,356760,45
88,54,356760,45
85,54,356760,45
81,54,356760,45
93,64,356820,45
88,54,356820,45
85,54,356820,45
81,54,356820,45
93,69,356880,240
88,58,356880,240
85,58,356880,240
81,58,356880,240
57,68,357240,90
62,68,357240,90
66,68,357240,90
69,81,357240,90
57,57,357360,720
62,57,357360,720
66,57,357360,720
69,80,357360,720
81,56,358200,90
86,56,358200,90
90,56,358200,90
93,67,358200,90
81,66,358320,240
86,66,358320,240
90,66,358320,240
93,78,358320,240
98,70,358680,90
93,59,358680,90
90,59,358680,90
86,59,358680,90
98,79,358800,240
93,67,358800,240
90,67,358800,240
86,67,358800,240
90,71,359160,90
86,60,359160,90
78,60,359160,90
90,80,359280,240
86,68,359280,240
78,68,359280,240
93,70,359640,90
90,59,359640,90
86,59,359640,90
81,59,359640,90
93,80,359760,240
90,68,359760,240
86,68,359760,240
81,68,359760,240
86,72,360120,90
81,61,360120,90
78,61,360120,90
74,61,360120,90
86,79,360240,240
81,67,360240,240
78,67,360240,240
74,67,360240,240
90,74,360600,90
86,62,360600,90
78,62,360600,90
78,68,360720,240
86,68,360720,240
90,81,360720,240
69,56,361080,90
74,56,361080,90
78,56,361080,90
81,67,361080,90
69,66,361200,240
74,66,361200,240
78,66,361200,240
81,78,361200,240
86,70,361560,90
81,59,361560,90
78,59,361560,90
74,59,361560,90
86,79,361680,240
81,67,361680,240
78,67,361680,240
74,67,361680,240
78,71,362040,90
74,60,362040,90
66,60,362040,90
78,80,362160,240
74,68,362160,240
66,68,362160,240
81,70,362520,90
78,59,362520,90
74,59,362520,90
69,59,362520,90
81,80,362640,240
78,68,362640,240
74,68,362640,240
69,68,362640,240
74,72,363000,90
69,61,363000,90
66,61,363000,90
62,61,363000,90
74,79,363120,240
69,67,363120,240
66,67,363120,240
62,67,363120,240
78,74,363480,90
74,62,363480,90
66,62,363480,90
66,68,363600,240
74,68,363600,240
78,81,363600,240
57,56,363960,90
62,56,363960,90
66,56,363960,90
69,67,363960,90
57,66,364080,240
62,66,364080,240
66,66,364080,240
69,78,364080,240
74,70,364440,90
69,59,364440,90
66,59,364440,90
62,59,364440,90
74,79,364560,240
69,67,364560,240
66,67,364560,240
62,67,364560,240
66,71,364920,90
62,60,364920,90
54,60,364920,90
66,80,365040,240
62,68,365040,240
54,68,365040,240
69,70,365400,90
66,59,365400,90
62,59,365400,90
57,59,365400,90
69,80,365520,240
66,68,365520,240
62,68,365520,240
57,68,365520,240
62,70,365880,90
57,59,365880,90
54,59,365880,90
50,59,365880,90
50,65,366000,216
54,65,366000,216
57,65,366000,216
62,77,366000,216
62,70,366240,216
58,59,366240,216
55,59,366240,216
50,59,366240,216
50,65,366480,216
54,65,366480,216
57,65,366480,216
62,77,366480,216
50,59,366720,216
55,59,366720,216
58,59,366720,216
62,70,366720,216
50,65,366960,216
54,65,366960,216
57,65,366960,216
62,77,366960,216
62,70,367200,216
58,59,367200,216
55,59,367200,216
50,59,367200,216
50,65,367440,216
54,65,367440,216
57,65,367440,216
62,77,367440,216
50,59,367680,216
55,59,367680,216
58,59,367680,216
62,70,367680,216
50,65,367920,180
54,65,367920,180
57,65,367920,180
62,77,367920,180
62,70,368160,180
58,59,368160,180
55,59,368160,180
50,59,368160,180
50,65,368400,180
54,65,368400,180
57,65,368400,180
62,77,368400,180
50,59,368640,180
55,59,368640,180
58,59,368640,180
62,70,368640,180
50,67,368880,480
54,67,368880,480
57,67,368880,480
62,79,368880,480
62,73,369360,480
66,73,369360,480
69,73,369360,480
74,86,369360,480
74,78,369840,480
78,78,369840,480
81,78,369840,480
86,92,369840,480
86,82,370320,480
90,82,370320,480
93,82,370320,480
98,97,370320,480
62,113,370800,1920
61,56,270,240
67,58,300,240
70,60,330,240
76,62,360,240
56,54,1230,240
62,55,1260,240
65,58,1290,240
71,61,1320,240
51,44,2295,240
57,45,2310,240
60,47,2325,240
66,48,2340,240
46,42,2775,240
52,43,2790,240
55,45,2805,240
61,47,2820,240
41,44,3255,240
47,46,3270,240
50,49,3285,240
56,51,3300,240
36,46,3735,240
42,48,3750,240
45,51,3765,240
51,53,3780,240
37,47,4215,240
43,49,4230,240
46,51,4245,240
52,53,4260,240
38,49,4710,240
44,51,4725,240
47,54,4740,240
53,56,4755,240
34,50,5190,240
41,52,5205,240
44,54,5220,240
50,56,5235,240
33,53,5655,240
38,54,5670,240
41,57,5685,240
45,59,5700,240
45,53,6720,240
50,53,6720,240
57,63,6720,240
53,53,6720,240
61,53,7680,240
69,63,7680,240
57,53,7680,240
64,53,7680,240
33,29,9723,180
34,31,9842,180
37,32,9962,180
41,34,10079,144
40,34,10177,144
38,33,10272,144
37,32,10366,144
34,30,10462,144
33,32,10563,121
34,32,10639,120
37,32,10718,120
38,34,10800,120
40,35,10880,120
41,36,10958,120
46,37,11041,120
45,36,11121,120
43,36,11201,120
41,34,11282,120
40,34,11362,120
38,32,11441,120
37,33,11523,90
38,33,11582,90
40,33,11638,90
41,34,11702,90
43,35,11758,90
45,35,11819,90
46,36,11882,90
49,37,11941,90
53,38,12002,144
52,37,12094,144
50,37,12191,144
49,37,12290,144
46,37,12387,144
45,38,12480,120
46,39,12562,120
49,40,12641,120
50,41,12718,120
52,41,12800,120
53,42,12882,120
58,43,12958,120
57,43,13041,120
55,43,13122,120
53,42,13198,120
52,42,13283,120
50,40,13363,120
49,40,13442,90
50,40,13503,90
52,41,13558,90
53,42,13623,90
55,43,13678,90
57,43,13738,90
58,43,13801,90
61,44,13862,90
65,45,13919,144
64,45,14014,144
62,45,14115,144
61,44,14209,144
58,44,14306,144
57,44,14402,120
58,44,14482,120
61,46,14559,120
62,47,14640,120
64,48,14723,120
65,48,14800,120
70,48,14879,120
69,47,14960,120
67,46,15042,120
65,46,15123,120
64,44,15202,120
62,43,15279,120
61,43,15360,90
62,44,15422,90
64,45,15478,90
65,46,15539,90
67,47,15600,90
69,48,15658,90
70,49,15721,90
73,51,15780,90
77,52,15841,144
76,52,15937,144
74,50,16031,144
73,51,16128,144
70,49,16223,144
69,48,16321,144
70,50,16417,144
73,51,16512,144
74,53,16611,144
76,54,16703,144
77,55,16802,144
79,56,16895,144
81,58,16994,144
82,59,17090,144
85,60,17182,144
89,63,17278,60
88,63,17337,60
86,63,17401,60
85,63,17457,60
82,62,17520,60
81,62,17575,60
79,62,17641,60
77,61,17702,60
76,61,17756,60
74,60,17825,60
73,60,17879,60
70,60,17936,60
69,60,18005,60
67,60,18064,60
65,59,18124,60
64,59,18180,60
62,59,18242,60
61,59,18303,60
58,58,18361,60
57,58,18423,60
55,58,18476,60
53,58,18544,60
52,58,18604,60
50,57,18657,60
49,58,18718,60
46,58,18780,60
45,58,18839,60
43,59,18899,60
41,60,18962,60
40,61,19017,60
38,61,19075,60
37,62,19142,60
34,63,19196,48
33,63,19248,192
50,74,19440,960
45,59,19440,960
38,59,19440,960
45,62,20400,480
50,78,20400,480
38,62,20400,480
50,79,21360,960
38,63,21360,960
43,63,21360,960
38,59,22320,480
50,75,22320,480
43,59,22320,480
37,59,23280,480
49,75,23280,480
33,59,24240,480
45,75,24240,480
50,75,25200,480
38,59,25200,480
38,55,26160,480
45,55,26160,480
50,70,26160,480
48,66,27120,960
36,52,27120,960
40,50,28080,480
52,64,28080,480
41,50,29040,480
53,64,29040,480
41,50,30000,480
53,64,30000,480
52,66,30960,960
40,52,30960,960
44,51,31920,480
56,66,31920,480
57,69,32880,480
52,54,32880,480
45,54,32880,480
45,56,33840,480
52,56,33840,480
57,72,33840,480
58,82,34800,960
46,65,34800,960
52,65,34800,960
45,62,35760,480
57,78,35760,480
51,63,36720,960
46,63,36720,960
58,79,36720,960
57,75,37680,480
45,59,37680,480
50,59,38640,480
47,59,38640,480
59,75,38640,480
52,75,39600,480
40,59,39600,480
47,59,39600,480
57,75,40560,480
45,59,40560,480
52,59,40560,480
57,75,41520,480
45,59,41520,480
52,59,41520,480
34,58,42480,960
40,58,42480,960
46,73,42480,960
33,55,43440,480
45,70,43440,480
34,56,44400,960
39,56,44400,960
46,71,44400,960
45,67,45360,480
33,52,45360,480
38,52,46320,480
35,52,46320,480
47,67,46320,480
46,67,47280,480
38,52,47280,480
34,52,47280,480
45,67,48240,240
33,52,48240,240
40,52,48240,240
55,39,48720,160
46,56,48720,480
56,39,48880,160
57,39,49040,160
49,59,49200,480
58,40,49200,160
59,41,49360,160
60,41,49520,160
61,41,49680,160
52,62,49680,480
62,42,49840,160
63,43,50000,160
55,65,50160,480
64,43,50160,160
62,43,50320,160
61,44,50480,160
59,36,50640,480
65,36,50640,480
50,31,50640,480
56,51,50640,480
45,52,51120,240
57,67,51120,240
52,52,51120,240
58,56,51600,480
67,39,51600,160
68,39,51760,160
69,39,51920,160
61,59,52080,480
70,40,52080,160
71,41,52240,160
72,41,52400,160
64,62,52560,480
73,41,52560,160
74,42,52720,160
75,43,52880,160
76,43,53040,160
67,65,53040,480
74,43,53200,160
73,44,53360,160
71,36,53520,240
62,31,53520,240
68,51,53520,240
77,36,53520,240
69,67,54000,240
57,52,54000,240
64,52,54000,240
61,52,54000,240
50,51,54480,240
62,51,54480,240
56,51,54480,240
53,51,54480,240
45,51,54960,240
52,51,54960,240
57,51,54960,240
49,51,54960,240
50,51,55440,240
41,51,55440,240
38,51,55440,240
44,51,55440,240
33,51,55920,240
40,51,55920,240
37,51,55920,240
45,51,55920,240
50,51,56400,240
44,51,56400,240
41,51,56400,240
38,51,56400,240
37,52,56880,240
33,52,56880,240
45,67,56880,240
40,52,56880,240
46,46,57358,320
58,54,57361,320
45,42,57679,160
57,50,57679,160
55,55,57838,160
43,46,57840,160
53,52,57999,160
41,44,58000,160
52,52,58161,160
40,44,58162,160
50,48,58320,160
38,40,58323,160
49,53,58479,160
37,45,58480,160
40,42,58639,160
52,50,58641,160
48,54,58798,160
36,46,58799,160
52,51,58962,160
40,43,58962,160
47,54,59121,160
35,46,59123,160
40,42,59278,160
52,50,59283,160
46,57,59439,160
34,48,59440,160
40,44,59600,160
52,52,59603,160
33,51,59760,240
45,60,59760,240
61,56,60241,320
49,47,60243,320
46,45,60558,160
58,53,60559,160
45,48,60722,160
57,57,60723,160
43,43,60879,160
55,51,60879,160
53,51,61040,160
41,43,61041,160
52,56,61199,160
40,47,61201,160
55,50,61359,160
43,42,61361,160
51,56,61521,160
39,47,61522,160
55,49,61678,160
43,41,61681,160
38,48,61841,160
50,57,61841,160
43,42,62000,160
55,50,62001,160
37,48,62158,160
49,57,62161,160
43,42,62319,160
55,50,62322,160
34,51,62480,160
46,60,62481,160
55,61,62639,120
43,49,62640,120
33,45,62880,120
45,54,62880,120
52,44,63118,320
64,52,63119,320
62,45,63439,160
50,37,63442,160
61,49,63598,160
49,41,63598,160
58,41,63758,160
46,35,63760,160
57,41,63918,160
45,35,63922,160
55,41,64078,160
67,49,64078,160
53,41,64240,160
65,48,64243,160
52,39,64401,160
64,47,64401,160
50,38,64559,160
62,45,64562,160
49,38,64720,160
61,45,64722,160
70,46,64880,160
58,39,64883,160
69,53,65039,160
57,44,65040,160
55,43,65199,160
67,51,65202,160
65,48,65359,160
53,40,65359,160
52,38,65520,160
64,45,65521,160
76,57,65681,160
64,48,65683,160
62,47,65839,160
74,56,65840,160
61,46,66001,160
73,55,66001,160
70,51,66159,160
58,43,66162,160
69,56,66318,160
57,47,66323,160
70,50,66478,160
58,42,66479,160
67,56,66640,160
55,47,66641,160
58,42,66799,160
70,49,66800,160
53,47,66958,160
65,56,66961,160
67,50,67120,160
55,42,67120,160
64,56,67278,160
52,47,67280,160
67,50,67438,160
55,42,67438,160
50,48,67599,160
62,57,67602,160
52,43,67763,160
64,51,67763,160
49,47,67920,160
61,56,67923,160
52,42,68080,160
64,50,68080,160
46,46,68239,160
58,55,68240,160
49,41,68399,160
61,49,68400,160
45,45,68560,160
57,53,68560,160
46,39,68719,160
58,47,68722,160
55,51,68878,160
43,43,68883,160
46,39,69038,160
58,46,69038,160
53,54,69199,160
41,46,69201,160
43,40,69359,160
55,48,69359,160
52,52,69522,160
40,44,69522,160
43,40,69679,160
55,48,69683,160
38,44,69840,160
50,53,69841,160
52,49,69998,160
40,41,69999,160
37,44,70160,160
49,53,70162,160
52,48,70318,160
40,40,70321,160
34,45,70478,160
46,53,70480,160
37,42,70638,160
49,49,70640,160
33,46,70800,160
45,54,70802,160
34,42,70959,160
46,50,70963,160
44,55,71119,160
32,46,71120,160
33,42,71280,160
45,49,71282,160
43,55,71439,160
31,46,71440,160
45,50,71602,160
33,42,71603,160
30,46,71758,160
42,55,71763,160
33,43,71920,160
45,51,71920,160
29,47,72080,160
41,56,72080,160
45,50,72238,160
33,42,72239,160
28,47,72399,160
40,56,72402,160
45,51,72558,160
33,43,72560,160
27,47,72722,240
39,56,72723,240
45,49,72958,240
33,42,72960,240
24,48,73198,240
36,57,73199,240
45,52,73440,240
33,44,73442,240
25,49,73679,240
37,58,73682,240
33,45,73921,240
45,53,73922,240
45,59,74160,2
50,74,74160,160
38,59,74160,160
52,48,74320,160
56,60,74320,160
57,63,74480,160
53,50,74480,160
38,75,74960,320
45,62,75120,160
50,78,75120,160
56,60,75280,160
52,48,75280,160
57,63,75440,160
53,50,75440,160
38,75,75920,320
43,63,76080,160
50,79,76080,160
54,48,76240,160
57,60,76240,160
55,50,76400,160
58,63,76400,160
38,75,76880,320
50,75,77040,160
43,59,77040,160
54,48,77200,160
57,60,77200,160
58,63,77360,160
55,50,77360,160
37,75,77840,320
45,59,78000,160
49,75,78000,160
54,60,78160,160
51,48,78160,160
55,63,78320,160
52,50,78320,160
33,75,78800,160
37,68,78960,160
45,75,78960,160
51,47,79120,160
54,59,79120,160
55,61,79280,160
52,49,79280,160
38,70,79760,320
50,69,79920,160
45,59,79924,160
56,50,80080,160
52,39,80080,160
57,50,80240,160
53,40,80240,160
38,63,80720,320
50,58,80880,160
45,46,80880,160
52,35,81040,160
56,45,81040,160
53,35,81200,160
57,45,81200,160
36,57,81680,320
48,57,81840,160
43,45,81840,160
51,37,82000,160
54,46,82000,160
55,48,82160,160
52,38,82160,160
40,57,82640,320
52,57,82800,160
48,55,82800,160
59,46,82960,160
54,37,82960,160
60,48,83120,160
55,38,83120,160
41,57,83600,320
53,57,83760,160
48,55,83760,160
59,43,83920,160
55,32,83920,160
56,34,84080,160
60,44,84080,160
41,57,84560,320
53,54,84720,160
48,42,84720,160
59,42,84880,160
55,32,84880,160
60,43,85040,160
56,33,85040,160
39,57,85520,320
51,60,85680,160
46,48,85680,160
54,35,85840,160
57,44,85840,160
58,45,86000,160
55,36,86000,160
43,61,86480,320
51,59,86640,160
55,61,86640,160
62,44,86800,160
57,34,86800,160
63,46,86960,160
58,37,86960,160
44,61,87440,320
51,59,87600,160
56,64,87600,160
59,35,87760,160
62,47,87760,160
63,48,87920,160
60,37,87920,160
44,64,88400,320
56,59,88560,160
51,46,88560,160
59,35,88720,160
62,46,88720,160
63,47,88880,160
60,36,88880,160
44,64,89360,320
50,47,89520,160
56,59,89520,160
64,48,89680,160
61,38,89680,160
65,50,89840,160
62,39,89840,160
44,59,90320,320
56,59,90480,160
50,57,90480,160
61,39,90640,160
64,48,90640,160
65,50,90800,160
62,40,90800,160
44,60,91280,320
56,60,91440,160
51,58,91440,160
62,46,91600,160
59,34,91600,160
63,47,91760,160
60,36,91760,160
44,60,92240,320
48,44,92400,160
56,57,92400,160
59,34,92560,160
62,44,92560,160
63,46,92720,160
60,35,92720,160
44,61,93200,320
56,61,93360,160
50,48,93360,160
64,49,93520,160
61,39,93520,160
65,52,93680,160
62,41,93680,160
44,62,94160,320
56,62,94320,160
50,59,94320,160
61,40,94480,160
64,50,94480,160
62,41,94640,160
65,52,94640,160
44,62,95120,320
56,62,95280,160
51,49,95280,160
59,40,95440,160
62,50,95440,160
60,41,95600,160
63,52,95600,160
44,63,96080,320
56,63,96240,160
61,41,96400,160
64,51,96400,160
65,53,96560,160
62,42,96560,160
44,63,97080,120
56,63,97080,120
57,63,97200,480
45,63,97200,480
64,41,97360,160
68,51,97360,160
65,42,97520,160
69,53,97520,160
41,64,98000,320
53,64,98160,160
61,41,98320,160
64,51,98320,160
62,42,98480,160
65,54,98480,160
38,64,98960,320
50,64,99120,160
61,52,99280,160
56,42,99280,160
62,54,99440,160
57,43,99440,160
33,65,99920,320
45,65,100080,160
56,52,100240,160
52,42,100240,160
53,43,100400,160
57,55,100400,160
34,66,100880,320
46,66,101040,160
57,53,101200,160
54,42,101200,160
58,55,101360,160
55,44,101360,160
31,66,101840,320
43,66,102000,160
50,43,102160,160
54,53,102160,160
55,56,102320,160
51,44,102320,160
28,66,102800,320
40,67,102960,160
45,43,103120,160
49,54,103120,160
46,44,103280,160
50,56,103280,160
33,67,103760,320
45,67,103920,160
54,54,104080,160
51,44,104080,160
52,45,104240,160
55,57,104240,160
33,64,104760,120
45,64,104760,120
38,62,104880,480
50,74,104880,480
56,56,105200,160
52,37,105200,160
50,71,106680,120
38,60,106680,120
45,62,106800,960
38,62,106800,960
50,74,106800,960
56,37,107120,160
59,56,107120,160
38,60,108600,120
50,71,108600,120
38,62,108720,960
50,74,108720,960
44,62,108720,960
55,37,109040,160
58,56,109040,160
50,71,110520,120
38,60,110520,120
34,67,110640,480
46,67,110640,480
51,43,110800,160
54,54,110800,160
55,56,110960,160
52,44,110960,160
34,67,111480,120
46,67,111480,120
45,67,111600,480
33,67,111600,480
54,54,111760,160
51,44,111760,160
55,57,111920,160
52,45,111920,160
31,64,112440,120
43,64,112440,120
45,62,112560,480
38,62,112560,480
50,74,112560,480
56,56,112880,160
52,37,112880,160
50,71,114360,120
38,60,114360,120
45,62,114480,960
39,62,114480,960
51,74,114480,960
59,56,114800,160
56,37,114800,160
38,60,116280,120
50,71,116280,120
44,62,116400,960
39,62,116400,960
51,74,116400,960
58,56,116720,160
55,37,116720,160
38,60,118200,120
50,71,118200,120
34,67,118320,480
46,67,118320,480
51,43,118480,160
54,54,118480,160
52,44,118640,160
55,56,118640,160
34,67,119160,120
46,67,119160,120
33,67,119280,480
45,67,119280,480
54,54,119440,160
51,44,119440,160
55,57,119600,160
52,45,119600,160
31,64,120120,120
43,64,120120,120
38,52,120240,240
45,52,120240,240
50,67,120240,240
76,39,120720,160
67,56,120720,480
75,39,120880,160
74,39,121040,160
73,40,121200,160
64,59,121200,480
72,41,121360,160
71,41,121520,160
61,62,121680,480
70,41,121680,160
69,42,121840,160
68,43,122000,160
58,65,122160,240
67,43,122160,240
49,56,122640,240
55,39,122640,240
43,34,122640,240
52,39,122640,240
62,73,123120,240
54,57,123120,240
50,57,123120,240
57,57,123120,240
64,39,123600,160
55,56,123600,480
63,39,123760,160
62,39,123920,160
61,40,124080,160
52,59,124080,480
60,41,124240,160
59,41,124400,160
58,41,124560,160
49,62,124560,480
57,42,124720,160
56,43,124880,160
55,43,125040,240
46,65,125040,240
49,56,125520,240
52,39,125520,240
55,39,125520,240
43,34,125520,240
50,73,126000,240
42,57,126000,240
38,57,126000,240
45,57,126000,240
46,53,126480,240
49,53,126480,240
43,53,126480,240
55,53,126480,240
62,54,126960,240
57,54,126960,240
54,54,126960,240
50,54,126960,240
43,54,127440,240
49,54,127440,240
46,54,127440,240
55,54,127440,240
42,55,127920,240
38,55,127920,240
45,55,127920,240
50,55,127920,240
34,56,128400,240
31,56,128400,240
37,56,128400,240
43,56,128400,240
50,74,128880,240
42,57,128880,240
38,57,128880,240
45,57,128880,240
34,57,129360,240
43,57,129360,240
31,57,129360,240
37,57,129360,240
38,57,129840,240
45,57,129840,240
50,57,129840,240
42,57,129840,240
37,58,130320,240
34,58,130320,240
31,58,130320,240
43,58,130320,240
38,59,130800,240
50,59,130800,240
42,59,130800,240
45,59,130800,240
43,59,131280,240
31,59,131280,240
34,59,131280,240
37,59,131280,240
38,59,131760,240
42,59,131760,240
45,59,131760,240
50,59,131760,240
81,66,132240,240
69,56,132240,240
66,56,132480,240
78,66,132480,240
57,51,133200,240
69,61,133200,240
66,61,133440,240
54,51,133440,240
57,62,134160,240
45,52,134160,240
54,62,134400,240
42,52,134400,240
48,56,134880,240
36,47,134880,240
35,45,135360,240
47,54,135360,240
34,45,135840,240
46,53,135840,240
31,43,136320,240
43,51,136320,240
44,49,136800,240
32,41,136800,240
33,39,137280,240
45,47,137280,240
26,46,137520,120
38,56,137520,120
28,46,137760,120
40,56,137760,120
42,56,138000,120
30,46,138000,120
44,56,138240,120
32,46,138240,120
46,56,138480,120
34,46,138480,120
36,46,138720,120
48,56,138720,120
38,46,138960,120
50,56,138960,120
52,56,139200,120
40,46,139200,120
54,56,139440,120
42,46,139440,120
56,57,139680,120
44,48,139680,120
58,58,139920,120
46,49,139920,120
48,51,140160,120
60,61,140160,120
62,62,140400,120
50,52,140400,120
52,54,140640,120
64,63,140640,120
54,54,140880,120
66,64,140880,120
56,55,141120,120
68,66,141120,120
70,67,141360,120
58,56,141360,120
60,57,141600,120
72,68,141600,120
74,69,141840,120
62,58,141840,120
72,68,142080,120
60,57,142080,120
58,56,142320,120
70,67,142320,120
56,55,142560,120
68,66,142560,120
54,54,142800,120
66,64,142800,120
64,63,143040,120
52,54,143040,120
50,52,143280,120
62,62,143280,120
60,61,143520,120
48,51,143520,120
46,50,143760,120
58,60,143760,120
56,58,144000,120
44,49,144000,120
42,48,144240,120
54,57,144240,120
52,56,144480,120
40,46,144480,120
38,46,144720,120
50,55,144720,120
48,54,144960,120
36,45,144960,120
34,44,145200,120
46,52,145200,120
32,43,145440,120
44,51,145440,120
30,42,145680,120
42,50,145680,120
28,40,145920,120
40,49,145920,120
26,49,146160,480
38,49,146160,480
50,42,146640,480
38,42,146640,480
62,43,147120,240
50,43,147120,240
46,23,147420,240
53,28,147480,240
58,32,147540,240
62,41,147600,150
34,23,148320,240
46,25,148380,240
53,28,148440,240
58,30,148500,240
62,39,148560,720
60,36,149280,150
46,28,149430,240
50,30,149460,240
53,33,149490,240
58,41,149520,150
34,26,150240,240
46,28,150300,240
50,32,150360,240
53,35,150420,240
58,38,150480,720
58,39,151200,150
46,28,151350,240
51,31,151380,240
54,33,151410,240
57,41,151440,720
57,44,152160,150
54,35,152340,240
57,42,152370,240
66,55,152400,720
57,39,153120,180
46,29,153300,240
53,35,153330,240
60,44,153360,960
58,40,154320,240
50,23,155190,240
55,28,155220,240
58,32,155250,240
62,45,155280,150
31,23,156000,240
43,23,156030,240
50,25,156060,240
55,28,156120,240
58,30,156180,240
62,39,156240,720
60,36,156960,150
43,28,157140,240
50,30,157170,240
58,41,157200,720
31,26,157920,240
43,28,157980,240
50,32,158040,240
55,35,158100,240
58,38,158160,720
58,39,158880,150
48,28,159030,240
52,31,159060,240
58,33,159090,240
61,41,159120,720
60,44,159840,150
55,32,160020,240
60,34,160050,240
70,48,160080,720
64,39,160800,180
41,29,160950,240
48,29,160980,240
57,35,161010,240
65,44,161040,150
49,23,162870,240
56,28,162900,240
61,32,162930,240
65,41,162960,150
37,23,163680,240
49,25,163740,240
56,28,163800,240
61,30,163860,240
65,39,163920,720
65,36,164640,150
56,28,164790,240
61,30,164820,240
63,33,164850,180
68,48,164880,150
44,26,165600,240
51,28,165660,240
56,32,165720,240
60,35,165780,240
63,38,165840,720
48,23,166710,240
55,28,166740,240
60,32,166770,240
63,41,166800,150
36,23,167520,240
48,25,167580,240
55,28,167640,240
60,30,167700,240
63,39,167760,720
63,36,168480,150
55,28,168630,240
60,30,168660,240
62,33,168690,180
67,41,168720,150
43,26,169440,240
50,28,169500,240
55,32,169560,240
59,35,169620,240
62,38,169680,720
46,23,170550,240
53,28,170580,240
58,32,170610,240
62,41,170640,150
34,23,171360,240
46,25,171420,240
53,28,171480,240
58,30,171540,240
62,39,171600,720
60,36,172320,150
43,30,172500,240
50,33,172530,240
58,41,172560,720
31,26,173280,240
43,28,173340,240
50,32,173400,240
55,35,173460,240
58,38,173520,720
58,36,174240,240
51,32,174480,240
62,40,174480,480
55,32,174480,240
60,38,174960,480
39,30,174960,240
58,38,175440,480
51,30,175440,240
55,30,175440,240
39,29,175920,240
60,37,175920,480
38,29,176310,240
45,32,176340,240
54,35,176370,240
62,37,176400,150
66,24,178800,160
62,20,178800,160
57,22,178960,160
62,27,178960,160
54,23,179120,160
50,19,179120,160
57,22,179280,160
62,26,179280,160
50,20,179440,160
54,24,179440,160
26,29,179600,160
38,24,179760,240
50,29,180000,240
62,28,180240,240
46,41,182160,160
53,18,182320,144
62,22,182320,144
65,22,182320,144
82,26,182320,144
77,26,182320,144
62,23,182480,144
54,19,182480,144
65,23,182480,144
82,28,182480,144
77,28,182480,144
65,24,182640,144
62,24,182640,144
82,29,182640,144
77,29,182640,144
55,20,182640,144
77,31,182800,144
82,31,182800,144
62,26,182800,144
65,26,182800,144
56,22,182800,144
62,27,182960,144
65,27,182960,144
77,32,182960,144
82,32,182960,144
57,22,182960,144
65,28,183120,144
62,28,183120,144
58,23,183120,144
77,35,183280,144
82,35,183280,144
59,24,183280,144
62,29,183280,144
65,29,183280,144
77,36,183440,144
62,30,183440,144
65,30,183440,144
82,36,183440,144
60,25,183440,144
77,38,183600,144
65,32,183600,144
61,27,183600,144
82,38,183600,144
62,32,183600,144
82,39,183760,144
62,33,183760,144
65,33,183760,144
77,39,183760,144
46,41,184080,160
53,18,184240,144
62,22,184240,144
65,22,184240,144
77,26,184240,144
74,26,184240,144
77,28,184400,144
65,23,184400,144
74,28,184400,144
62,23,184400,144
54,19,184400,144
65,24,184560,144
62,24,184560,144
77,29,184560,144
55,20,184560,144
74,29,184560,144
62,26,184720,144
56,22,184720,144
77,31,184720,144
74,31,184720,144
65,26,184720,144
74,32,184880,144
77,32,184880,144
57,22,184880,144
65,27,184880,144
62,27,184880,144
58,23,185040,144
62,28,185040,144
65,28,185040,144
65,29,185200,144
77,35,185200,144
74,35,185200,144
59,24,185200,144
62,29,185200,144
77,36,185360,144
60,25,185360,144
74,36,185360,144
62,30,185360,144
65,30,185360,144
74,38,185520,144
62,32,185520,144
61,27,185520,144
65,32,185520,144
77,38,185520,144
77,39,185680,144
74,39,185680,144
62,33,185680,144
65,33,185680,144
46,41,186000,160
72,28,186160,144
75,28,186160,144
63,24,186160,144
66,24,186160,144
54,19,186160,144
75,30,186320,144
66,25,186320,144
63,25,186320,144
72,30,186320,144
55,20,186320,144
75,31,186480,144
72,31,186480,144
66,26,186480,144
63,26,186480,144
56,22,186480,144
72,34,186640,144
63,28,186640,144
66,28,186640,144
75,34,186640,144
57,24,186640,144
63,29,186800,144
58,24,186800,144
66,29,186800,144
63,30,186960,144
59,25,186960,144
66,30,186960,144
81,38,187120,144
66,31,187120,144
84,38,187120,144
60,26,187120,144
63,31,187120,144
61,27,187280,144
63,33,187280,144
66,33,187280,144
81,39,187280,144
84,39,187280,144
63,35,187440,144
66,35,187440,144
84,41,187440,144
81,41,187440,144
62,29,187440,144
84,42,187600,144
66,36,187600,144
81,42,187600,144
63,36,187600,144
46,41,187920,160
77,28,188080,144
53,19,188080,144
65,24,188080,144
62,24,188080,144
74,28,188080,144
74,30,188240,144
62,25,188240,144
65,25,188240,144
77,30,188240,144
54,20,188240,144
74,31,188400,144
55,22,188400,144
65,26,188400,144
77,31,188400,144
62,26,188400,144
56,24,188560,144
74,34,188560,144
62,28,188560,144
77,34,188560,144
65,28,188560,144
65,29,188720,144
74,35,188720,144
57,24,188720,144
62,29,188720,144
77,35,188720,144
62,30,188880,144
58,25,188880,144
65,30,188880,144
59,26,189040,144
74,38,189040,144
62,31,189040,144
65,31,189040,144
77,38,189040,144
65,33,189200,144
60,27,189200,144
74,39,189200,144
77,39,189200,144
62,33,189200,144
61,29,189360,144
77,41,189360,144
74,41,189360,144
65,35,189360,144
62,35,189360,144
62,36,189520,144
65,36,189520,144
74,43,189520,144
77,43,189520,144
74,44,189680,144
77,44,189680,144
43,45,189840,160
58,19,190000,144
67,24,190000,144
79,28,190000,144
70,24,190000,144
82,28,190000,144
67,25,190160,144
79,30,190160,144
59,20,190160,144
82,30,190160,144
70,25,190160,144
60,22,190320,144
82,31,190320,144
70,26,190320,144
67,26,190320,144
79,31,190320,144
82,34,190480,144
61,24,190480,144
79,34,190480,144
67,28,190480,144
70,28,190480,144
82,35,190640,144
62,24,190640,144
79,35,190640,144
67,29,190640,144
70,29,190640,144
67,30,190800,144
70,30,190800,144
63,25,190800,144
70,31,190960,144
67,31,190960,144
64,26,190960,144
82,38,190960,144
79,38,190960,144
82,39,191120,144
67,33,191120,144
65,27,191120,144
70,33,191120,144
79,39,191120,144
70,35,191280,144
67,35,191280,144
66,29,191280,144
82,41,191280,144
79,41,191280,144
70,36,191440,144
67,36,191440,144
79,42,191440,144
82,42,191440,144
43,45,191760,160
62,24,191920,144
74,28,191920,144
79,28,191920,144
55,19,191920,144
67,24,191920,144
79,30,192080,144
56,20,192080,144
62,25,192080,144
74,30,192080,144
67,25,192080,144
79,31,192240,144
74,31,192240,144
57,22,192240,144
67,26,192240,144
62,26,192240,144
79,34,192400,144
74,34,192400,144
62,28,192400,144
58,24,192400,144
67,28,192400,144
59,24,192560,144
74,35,192560,144
67,29,192560,144
79,35,192560,144
62,29,192560,144
74,34,192720,144
79,34,192720,144
67,30,192720,144
62,30,192720,144
60,25,192720,144
79,38,192880,144
67,31,192880,144
74,38,192880,144
61,31,192880,144
62,33,193040,144
79,39,193040,144
67,33,193040,144
74,39,193040,144
74,41,193200,144
67,35,193200,144
79,41,193200,144
58,29,193200,144
74,41,193360,144
79,41,193360,144
48,45,193680,160
36,45,193680,160
76,28,193840,144
67,24,193840,144
82,28,193840,144
70,24,193840,144
58,19,193840,144
67,25,194000,144
76,30,194000,144
70,25,194000,144
59,20,194000,144
82,30,194000,144
60,22,194160,144
70,26,194160,144
82,31,194160,144
67,26,194160,144
76,31,194160,144
61,24,194320,144
76,34,194320,144
67,28,194320,144
82,34,194320,144
70,28,194320,144
70,29,194480,144
62,24,194480,144
67,29,194480,144
70,30,194640,144
67,30,194640,144
63,25,194640,144
64,26,194800,144
88,38,194800,144
85,38,194800,144
70,31,194800,144
67,31,194800,144
85,39,194960,144
67,33,194960,144
65,27,194960,144
88,39,194960,144
70,33,194960,144
66,29,195120,144
67,35,195120,144
70,35,195120,144
88,41,195120,144
85,41,195120,144
67,36,195280,144
88,42,195280,144
85,42,195280,144
70,36,195280,144
41,45,195600,160
81,32,195760,144
84,32,195760,144
65,27,195760,144
57,21,195760,144
69,27,195760,144
65,28,195920,144
81,34,195920,144
58,23,195920,144
84,34,195920,144
69,28,195920,144
69,29,196080,144
81,35,196080,144
65,29,196080,144
59,25,196080,144
84,35,196080,144
65,32,196240,144
60,27,196240,144
84,39,196240,144
81,39,196240,144
69,32,196240,144
81,41,196400,144
65,33,196400,144
84,41,196400,144
61,27,196400,144
69,33,196400,144
81,36,196560,144
62,29,196560,144
84,36,196560,144
69,35,196560,144
65,35,196560,144
84,45,196720,144
81,45,196720,144
69,36,196720,144
65,36,196720,144
63,31,196720,144
64,32,196880,144
84,49,196880,144
81,49,196880,144
65,39,196880,144
69,39,196880,144
69,42,197040,144
65,42,197040,144
81,53,197040,144
84,53,197040,144
81,57,197200,144
84,57,197200,144
84,59,197355,162
81,59,197355,144
37,51,197520,160
49,51,197520,160
53,23,197680,144
80,36,197680,144
65,30,197680,144
61,30,197680,144
85,36,197680,144
61,31,197840,144
80,38,197840,144
65,31,197840,144
54,26,197840,144
85,38,197840,144
80,39,198000,144
85,39,198000,144
65,34,198000,144
55,28,198000,144
61,34,198000,144
65,36,198160,144
80,45,198160,144
85,45,198160,144
56,30,198160,144
61,36,198160,144
57,30,198320,144
80,46,198320,144
85,46,198320,144
61,38,198320,144
65,38,198320,144
58,34,198480,144
65,39,198480,144
61,39,198480,144
80,51,198640,144
61,40,198640,144
59,35,198640,144
65,40,198640,144
85,51,198640,144
60,36,198800,144
65,45,198800,144
80,52,198800,144
85,52,198800,144
61,45,198800,144
61,47,198960,144
65,47,198960,144
85,56,198960,144
80,56,198960,144
80,57,199120,144
85,57,199120,144
32,55,199440,160
44,55,199440,160
87,38,199600,144
56,26,199600,144
68,34,199600,144
85,38,199600,144
63,34,199600,144
85,40,199760,144
87,40,199760,144
57,27,199760,144
68,35,199760,144
63,35,199760,144
85,44,199920,144
63,36,199920,144
58,30,199920,144
87,44,199920,144
68,36,199920,144
68,39,200080,144
85,48,200080,144
87,48,200080,144
59,34,200080,144
63,39,200080,144
87,50,200240,144
60,34,200240,144
85,50,200240,144
63,40,200240,144
68,40,200240,144
80,55,200560,144
84,55,200560,144
59,44,200560,144
63,44,200560,144
68,44,200560,144
80,56,200720,144
60,45,200720,144
68,47,200720,144
84,56,200720,144
63,47,200720,144
63,42,200880,144
68,51,200880,144
84,60,200880,144
61,45,200880,144
80,60,200880,144
68,51,201040,144
62,42,201040,144
84,60,201040,144
80,60,201040,144
63,42,201200,144
68,51,201200,144
80,60,201200,144
84,60,201200,144
52,59,201360,160
40,59,201360,160
56,27,201520,144
83,40,201520,144
64,35,201520,144
68,35,201520,144
88,40,201520,144
83,45,201680,144
88,45,201680,144
68,37,201680,144
57,29,201680,144
64,37,201680,144
83,46,201840,144
64,38,201840,144
88,46,201840,144
58,31,201840,144
68,38,201840,144
88,51,202000,144
68,42,202000,144
59,36,202000,144
64,42,202000,144
83,51,202000,144
83,53,202160,144
60,36,202160,144
68,44,202160,144
88,53,202160,144
64,44,202160,144
68,45,202320,144
61,37,202320,144
64,45,202320,144
62,39,202480,144
68,47,202480,144
88,59,202480,144
83,59,202480,144
64,47,202480,144
64,51,202640,144
63,40,202640,144
88,60,202640,144
83,60,202640,144
68,51,202640,144
64,53,202800,144
88,63,202800,144
68,53,202800,144
83,63,202800,144
88,64,202960,144
83,64,202960,144
47,62,203280,160
35,62,203280,160
90,44,203440,144
88,44,203440,144
59,29,203440,144
71,37,203440,144
66,37,203440,144
60,30,203600,144
71,39,203600,144
90,47,203600,144
88,47,203600,144
66,39,203600,144
90,48,203760,144
61,35,203760,144
66,40,203760,144
71,40,203760,144
88,48,203760,144
62,38,203920,144
90,55,203920,144
88,55,203920,144
71,45,203920,144
66,45,203920,144
88,56,204080,144
63,38,204080,144
90,56,204080,144
66,46,204080,144
71,46,204080,144
62,50,204400,144
66,50,204400,144
87,61,204400,144
83,61,204400,144
71,50,204400,144
66,53,204560,144
71,53,204560,144
83,63,204560,144
87,63,204560,144
63,50,204560,144
64,51,204720,144
87,68,204720,144
71,57,204720,144
83,68,204720,144
66,47,204720,144
65,47,204880,144
87,68,204880,144
71,57,204880,144
83,68,204880,144
87,68,205040,108
83,68,205040,108
71,57,205040,108
66,47,205040,108
56,46,205155,240
62,52,205170,240
65,59,205185,240
71,79,205200,960
44,45,206070,240
50,49,206100,240
53,53,206130,240
59,73,206160,720
59,71,206880,240
44,40,207060,240
51,40,207090,240
59,75,207120,480
32,52,207960,120
39,52,207960,120
39,61,208080,240
32,61,208080,240
56,46,208995,240
62,52,209010,240
65,59,209025,240
71,79,209040,960
44,45,209910,240
50,49,209940,240
53,53,209970,240
59,73,210000,720
59,71,210720,240
44,40,210900,240
51,40,210930,240
59,75,210960,480
39,52,211800,120
32,52,211800,120
39,62,211920,240
32,62,211920,240
56,48,212835,240
62,55,212850,240
65,62,212865,240
71,84,212880,960
44,49,213750,240
50,53,213780,240
53,58,213810,240
59,80,213840,720
59,80,214560,240
43,51,214680,240
52,64,214740,240
55,69,214770,240
60,85,214800,960
64,85,214800,960
43,78,215760,240
31,78,215760,240
60,69,216240,480
55,69,216240,480
64,82,216240,480
56,72,216720,870
65,85,216720,870
61,72,216720,870
43,49,217590,240
50,53,217620,240
53,58,217650,240
59,80,217680,720
53,62,218400,240
50,62,218400,240
59,80,218400,240
60,72,218640,960
55,72,218640,960
64,85,218640,960
43,76,219600,240
31,64,219600,240
55,67,220080,480
60,67,220080,480
64,80,220080,480
65,81,220560,1440
61,69,220560,480
56,69,220560,480
44,35,224400,160
53,41,224400,160
49,35,224400,160
48,35,224560,160
43,35,224560,160
52,41,224560,160
51,40,224720,160
42,33,224720,160
47,33,224720,160
41,32,224880,160
50,38,224880,160
46,38,224880,160
45,32,225040,160
40,32,225040,160
49,38,225040,160
48,36,225200,160
39,30,225200,160
44,30,225200,160
38,30,225360,160
47,35,225360,160
43,30,225360,160
46,35,225520,160
37,29,225520,160
42,29,225520,160
36,28,225680,160
45,34,225680,160
41,28,225680,160
35,28,225840,160
40,28,225840,160
44,34,225840,160
43,33,226000,160
39,27,226000,160
34,27,226000,160
42,31,226160,160
33,26,226160,160
38,26,226160,160
37,24,226320,160
41,28,226320,160
32,24,226320,160
33,25,226480,160
42,30,226480,160
38,25,226480,160
39,28,226640,160
43,34,226640,160
34,28,226640,160
40,29,226800,160
35,29,226800,160
44,35,226800,160
39,28,226960,160
43,33,226960,160
34,28,226960,160
38,28,227120,160
33,28,227120,160
42,32,227120,160
32,26,227280,160
37,26,227280,160
41,32,227280,160
42,33,227440,160
38,28,227440,160
33,28,227440,160
39,28,227600,160
43,35,227600,160
34,28,227600,160
44,36,227760,160
35,31,227760,160
40,31,227760,160
34,29,227920,160
43,35,227920,160
39,29,227920,160
33,28,228080,160
38,28,228080,160
42,34,228080,160
41,37,228240,160
37,32,228240,160
32,32,228240,160
38,30,228400,160
33,30,228400,160
42,36,228400,160
39,32,228560,160
34,32,228560,160
43,37,228560,160
40,32,228720,160
44,38,228720,160
35,32,228720,160
34,33,228880,160
39,33,228880,160
43,40,228880,160
33,35,229040,160
38,35,229040,160
42,41,229040,160
37,32,229200,160
32,32,229200,160
41,38,229200,160
42,38,229360,160
38,32,229360,160
33,32,229360,160
34,31,229520,160
43,36,229520,160
39,31,229520,160
40,38,229680,160
35,32,229680,320
44,38,229680,320
41,37,229840,160
25,31,229840,320
43,37,230000,640
36,38,230160,480
24,38,230160,480
40,38,230160,480
48,38,230640,300
55,32,230800,160
52,27,230800,160
36,27,230960,160
48,32,230960,160
49,40,231120,480
53,29,231280,160
56,35,231280,160
35,29,231440,160
47,35,231440,160
50,41,231600,480
56,34,231760,160
53,29,231760,160
46,34,231920,160
34,29,231920,160
51,45,232080,480
58,38,232240,160
55,32,232240,160
39,39,232400,160
27,32,232400,160
52,46,232560,480
59,39,232720,160
56,32,232720,160
38,32,232880,160
50,39,232880,160
53,46,233040,480
59,41,233200,160
56,34,233200,160
49,43,233360,160
37,36,233360,160
54,49,233520,480
61,43,233680,160
58,36,233680,160
30,36,233840,160
42,44,233840,160
55,52,234000,480
62,46,234160,160
59,39,234160,160
29,39,234320,160
41,46,234320,160
56,53,234480,480
59,38,234640,160
62,46,234640,160
28,39,234800,160
40,46,234800,160
57,55,234960,480
61,39,235120,160
64,47,235120,160
33,40,235280,160
45,48,235280,160
58,56,235440,480
65,51,235600,160
62,43,235600,160
33,44,235760,160
45,52,235760,160
59,59,235920,480
63,44,236080,160
66,53,236080,160
45,53,236240,160
33,45,236240,160
60,61,236400,480
67,54,236560,160
64,46,236560,160
45,55,236720,160
33,46,236720,160
45,54,236880,240
55,64,236880,240
52,54,236880,240
58,68,237357,960
46,57,237361,960
57,50,238161,160
45,40,238162,160
43,40,238316,160
55,48,238316,160
41,40,238478,160
53,48,238485,160
40,44,238636,160
52,52,238645,160
38,40,238800,160
50,50,238801,160
37,46,238957,160
49,55,238963,160
40,40,239123,160
52,50,239123,160
48,52,239277,160
36,44,239279,160
52,50,239440,160
40,40,239441,160
47,52,239598,160
35,44,239600,160
52,50,239759,160
40,40,239762,160
34,44,239919,160
46,52,239925,160
40,40,240085,160
52,50,240085,160
45,52,240238,240
33,44,240243,240
49,57,240722,320
61,68,240725,320
46,40,241037,160
58,50,241042,160
57,48,241196,160
45,40,241200,160
55,48,241356,160
43,40,241365,160
41,44,241520,160
53,52,241524,160
40,46,241684,160
52,55,241684,160
43,38,241839,160
55,46,241840,160
39,48,241996,160
51,57,242005,160
55,52,242155,160
43,36,242159,160
50,58,242315,160
38,50,242322,160
43,38,242478,160
55,48,242479,160
37,50,242643,160
49,58,242644,160
55,48,242802,160
43,38,242804,160
34,50,242956,160
46,58,242965,160
43,36,243122,120
55,45,243124,120
45,55,243361,120
33,46,243364,120
52,57,243597,320
64,68,243605,320
50,40,243915,160
62,50,243924,160
49,40,244083,160
61,48,244085,160
46,40,244237,160
58,48,244238,160
45,44,244400,160
57,52,244405,160
55,49,244556,160
67,58,244558,160
65,53,244719,160
53,46,244722,160
64,53,244875,160
52,45,244880,160
50,44,245037,160
62,51,245039,160
61,51,245196,160
49,44,245199,160
70,57,245359,160
58,48,245365,160
69,58,245522,160
57,49,245523,160
67,57,245676,160
55,48,245685,160
65,55,245839,160
53,47,245841,160
64,53,246000,160
52,46,246000,160
64,53,246161,160
76,64,246161,160
74,62,246319,160
62,51,246323,160
73,59,246477,160
61,50,246480,160
70,60,246644,160
58,51,246645,160
69,59,246796,160
57,50,246805,160
70,53,246959,160
58,46,246964,160
55,48,247121,160
67,57,247122,160
70,52,247280,160
58,45,247281,160
53,48,247435,160
65,57,247442,160
55,52,247603,160
67,52,247604,160
64,57,247756,160
52,48,247764,160
55,52,247917,160
67,52,247918,160
50,48,248079,160
62,57,248079,160
52,45,248237,160
64,52,248244,160
49,48,248401,160
61,58,248405,160
52,46,248558,160
64,55,248560,160
46,49,248717,160
58,58,248725,160
61,51,248876,160
49,42,248877,160
45,49,249036,160
57,60,249043,160
46,45,249199,160
58,52,249199,160
43,50,249362,160
55,60,249365,160
46,46,249518,160
58,53,249519,160
41,51,249675,160
53,61,249678,160
43,47,249836,160
55,55,249845,160
52,61,250000,160
40,52,250005,160
55,56,250159,160
43,47,250159,160
50,63,250322,160
38,52,250323,160
40,48,250480,160
52,57,250484,160
37,51,250641,160
49,62,250643,160
52,57,250795,160
40,47,250799,160
34,51,250955,160
46,62,250964,160
37,48,251116,160
49,57,251120,160
33,53,251278,160
45,63,251280,160
46,58,251437,160
34,49,251439,160
32,53,251595,160
44,63,251598,160
45,60,251764,160
33,49,251765,160
31,55,251915,160
43,66,251916,160
45,60,252081,160
33,49,252083,160
42,64,252239,160
30,55,252243,160
45,59,252399,160
33,48,252402,160
29,57,252559,160
41,66,252562,160
45,60,252716,160
33,51,252722,160
40,66,252877,160
28,57,252885,160
33,51,253036,160
45,60,253040,160
27,57,253200,240
39,68,253200,240
45,63,253440,240
33,52,253440,240
36,68,253680,240
24,59,253680,240
33,55,253920,240
45,63,253920,240
37,68,254160,240
25,58,254160,240
33,53,254400,180
45,63,254400,180
45,35,254640,480
38,35,254640,480
50,42,254640,480
52,27,254820,60
56,32,254820,60
57,40,254880,30
53,34,254880,30
64,26,255060,60
61,31,255060,60
62,35,255120,30
65,35,255120,30
50,42,255360,480
45,35,255360,480
38,35,255360,480
61,32,255540,60
56,27,255540,60
62,40,255600,30
57,34,255600,30
64,26,255780,60
68,31,255780,60
65,29,255840,30
69,35,255840,30
43,35,256080,480
50,42,256080,480
38,35,256080,480
57,32,256260,60
54,27,256260,60
58,42,256320,30
55,35,256320,30
66,32,256500,60
63,27,256500,60
67,35,256560,30
64,29,256560,30
43,35,256800,480
38,35,256800,480
50,42,256800,480
57,32,256980,60
54,27,256980,60
55,34,257040,30
58,41,257040,30
66,31,257220,60
63,26,257220,60
64,29,257280,30
67,35,257280,30
37,34,257520,480
49,41,257520,480
51,28,257700,60
54,33,257700,60
55,42,257760,30
52,35,257760,30
63,33,257940,60
60,28,257940,60
61,35,258000,30
64,42,258000,30
33,34,258240,480
45,41,258240,480
54,32,258420,60
51,27,258420,60
55,41,258480,30
52,34,258480,30
60,27,258660,60
63,32,258660,60
64,35,258720,30
61,42,258720,30
38,41,258960,480
50,41,258960,480
56,31,259140,60
52,26,259140,60
53,29,259200,30
57,35,259200,30
64,32,259380,60
61,27,259380,60
62,29,259440,30
65,35,259440,30
50,41,259680,480
45,34,259680,480
38,34,259680,480
52,27,259860,60
56,32,259860,60
53,29,259920,30
57,35,259920,30
64,33,260100,60
61,28,260100,60
65,35,260160,30
62,29,260160,30
48,42,260400,480
36,35,260400,480
51,27,260580,60
54,32,260580,60
55,40,260640,30
52,34,260640,30
59,31,260820,60
63,26,260820,60
60,35,260880,30
64,35,260880,30
40,36,261120,480
52,43,261120,480
54,27,261300,60
59,32,261300,60
60,41,261360,30
55,35,261360,30
66,32,261540,60
63,27,261540,60
67,36,261600,30
64,30,261600,30
48,37,261840,480
53,44,261840,480
41,37,261840,480
59,34,262020,60
56,28,262020,60
57,37,262080,30
60,44,262080,30
68,34,262260,60
64,29,262260,60
65,31,262320,30
69,37,262320,30
53,45,262560,480
41,38,262560,480
56,29,262740,60
59,35,262740,60
60,45,262800,30
57,37,262800,30
64,28,262980,60
68,34,262980,60
65,32,263040,30
69,38,263040,30
52,47,263280,480
40,39,263280,480
55,30,263460,60
58,36,263460,60
59,45,263520,30
56,38,263520,30
67,29,263700,60
63,35,263700,60
64,39,263760,30
68,39,263760,30
44,40,264000,480
56,48,264000,480
58,31,264180,60
63,37,264180,60
59,39,264240,30
64,46,264240,30
67,30,264420,60
70,36,264420,60
71,40,264480,30
68,33,264480,30
45,41,264720,480
57,49,264720,480
52,41,264720,480
63,38,264900,60
60,32,264900,60
64,49,264960,30
61,41,264960,30
72,38,265140,60
68,32,265140,60
73,42,265200,30
69,34,265200,30
52,42,265440,480
45,42,265440,480
57,50,265440,480
63,39,265620,60
60,32,265620,60
64,50,265680,30
61,41,265680,30
72,38,265860,60
68,31,265860,60
69,35,265920,30
73,43,265920,30
45,47,266040,120
57,54,266040,120
58,52,266160,480
52,43,266160,480
46,43,266160,480
66,40,266340,60
63,33,266340,60
64,42,266400,30
67,50,266400,30
75,32,266580,60
72,38,266580,60
73,43,266640,30
76,43,266640,30
57,52,266880,480
45,43,266880,480
66,40,267060,60
63,33,267060,60
64,42,267120,30
67,50,267120,30
75,38,267300,60
72,32,267300,60
76,43,267360,30
73,36,267360,30
45,38,267480,120
57,47,267480,120
46,43,267600,480
58,52,267600,480
51,43,267600,480
62,33,267780,60
65,40,267780,60
63,43,267840,30
66,52,267840,30
74,40,268020,60
71,33,268020,60
75,43,268080,30
72,36,268080,30
45,43,268320,480
57,52,268320,480
65,40,268500,60
62,33,268500,60
63,42,268560,30
66,51,268560,30
74,38,268740,60
71,32,268740,60
75,43,268800,30
72,36,268800,30
45,33,268920,120
57,47,268920,120
59,51,269040,480
50,42,269040,480
47,42,269040,480
64,41,269220,60
61,35,269220,60
62,43,269280,30
65,52,269280,30
70,41,269460,60
67,35,269460,60
68,43,269520,30
71,52,269520,30
40,42,269760,480
52,51,269760,480
47,42,269760,480
58,40,269940,60
55,33,269940,60
56,42,270000,30
59,51,270000,30
67,40,270180,60
63,33,270180,60
64,52,270240,30
68,43,270240,30
45,51,270480,480
52,51,270480,480
57,51,270480,480
63,38,270660,60
60,32,270660,60
61,36,270720,30
64,43,270720,30
72,40,270900,60
68,33,270900,60
69,36,270960,30
73,43,270960,30
45,42,271200,480
57,51,271200,480
52,42,271200,480
63,40,271380,60
60,33,271380,60
61,36,271440,30
64,43,271440,30
68,35,271620,60
72,41,271620,60
73,43,271680,30
69,36,271680,30
45,47,271800,120
33,41,271800,120
46,48,271920,480
34,40,271920,480
40,40,271920,480
51,31,272100,60
54,36,272100,60
55,46,272160,30
52,39,272160,30
63,29,272340,60
60,35,272340,60
64,40,272400,30
61,40,272400,30
45,48,272640,480
33,40,272640,480
51,31,272820,60
54,36,272820,60
52,39,272880,30
55,46,272880,30
60,29,273060,60
63,35,273060,60
61,33,273120,30
64,40,273120,30
33,35,273240,120
45,43,273240,120
46,48,273360,480
34,40,273360,480
39,40,273360,480
50,31,273540,60
53,36,273540,60
51,40,273600,30
54,48,273600,30
62,36,273780,60
59,31,273780,60
63,40,273840,30
60,33,273840,30
45,48,274080,480
33,40,274080,480
53,36,274260,60
50,31,274260,60
54,47,274320,30
51,39,274320,30
62,35,274500,60
59,29,274500,60
60,33,274560,30
63,40,274560,30
33,31,274680,120
45,43,274680,120
47,47,274800,480
35,39,274800,480
38,39,274800,480
55,37,274980,60
52,32,274980,60
56,48,275040,30
53,40,275040,30
61,32,275220,60
64,37,275220,60
65,48,275280,30
62,40,275280,30
34,39,275520,480
38,39,275520,480
46,47,275520,480
51,36,275700,60
52,47,275760,30
55,36,275940,60
56,40,276000,30
33,47,276240,240
45,47,276240,240
40,47,276240,240
46,43,276480,120
55,51,276480,120
49,44,276720,120
58,53,276720,120
61,55,276960,120
52,47,276960,120
64,58,277200,120
55,49,277200,120
50,59,277440,120
62,72,277440,120
57,75,277680,120
45,63,277680,120
67,66,277920,120
58,55,277920,120
61,57,278160,120
70,69,278160,120
73,69,278400,120
64,60,278400,120
67,64,278640,120
76,75,278640,120
62,72,278880,120
74,86,278880,120
69,71,279120,120
57,59,279120,120
62,86,279480,120
50,72,279480,120
57,64,279600,120
45,53,279600,120
38,72,279840,120
50,86,279840,120
45,65,280080,120
33,55,280080,120
50,86,280320,120
38,72,280320,120
45,66,280560,120
33,55,280560,120
62,86,280920,120
50,72,280920,120
45,56,281040,120
57,67,281040,120
50,86,281280,120
38,72,281280,120
45,68,281520,120
33,57,281520,120
50,86,281760,120
38,72,281760,120
33,58,282000,120
45,69,282000,120
56,40,282240,120
44,34,282240,120
45,34,282360,120
57,40,282360,120
46,36,282480,120
58,45,282480,120
45,35,282720,120
57,42,282720,120
46,35,282840,120
58,44,282840,120
59,47,282960,120
47,38,282960,120
46,37,283200,120
58,46,283200,120
47,38,283320,120
59,46,283320,120
48,40,283440,120
60,49,283440,120
45,37,283680,120
57,46,283680,120
58,46,283800,120
46,37,283800,120
59,48,283920,120
47,39,283920,120
46,38,284160,120
58,46,284160,120
59,47,284280,120
47,38,284280,120
60,50,284400,120
48,42,284400,120
47,40,284640,120
59,49,284640,120
48,42,284760,120
60,49,284760,120
49,46,284880,120
61,53,284880,120
58,51,285120,120
46,42,285120,120
59,51,285240,120
47,42,285240,120
48,46,285360,120
60,55,285360,120
59,52,285600,120
47,45,285600,120
48,46,285720,120
60,53,285720,120
61,57,285840,120
49,48,285840,120
48,46,286080,120
60,55,286080,120
49,46,286200,120
61,55,286200,120
38,49,286320,180
50,58,286320,180
62,29,286500,60
53,29,286500,60
56,35,286500,60
57,42,286560,180
54,35,286560,180
50,49,286800,180
38,49,286800,180
56,35,286980,60
62,29,286980,60
53,29,286980,60
54,35,287040,180
57,42,287040,180
38,49,287280,180
50,58,287280,180
57,35,287460,60
54,29,287460,60
55,35,287520,180
58,42,287520,180
50,58,287760,180
38,49,287760,180
57,35,287940,60
54,29,287940,60
55,35,288000,180
58,42,288000,180
49,57,288240,180
37,48,288240,180
51,29,288420,60
54,35,288420,60
55,42,288480,180
52,35,288480,180
33,47,288720,180
45,56,288720,180
54,35,288900,60
51,29,288900,60
52,35,288960,180
55,42,288960,180
50,57,289200,180
38,48,289200,180
53,29,289380,60
62,29,289380,60
56,35,289380,60
57,42,289440,180
54,35,289440,180
38,46,289680,180
50,55,289680,180
56,35,289860,60
53,29,289860,60
57,42,289920,180
54,35,289920,180
37,49,290160,180
49,58,290160,180
61,29,290340,60
55,35,290340,60
52,29,290340,60
53,35,290400,180
56,42,290400,180
41,49,290640,180
53,49,290640,180
61,29,290820,60
55,35,290820,60
56,42,290880,180
54,58,291120,180
42,49,291120,180
56,29,291300,60
61,35,291300,60
57,42,291360,180
57,58,291600,180
45,49,291600,180
61,35,291780,60
56,29,291780,60
57,42,291840,180
40,49,292080,180
52,58,292080,180
64,29,292260,60
55,29,292260,60
58,35,292260,60
59,42,292320,180
56,35,292320,180
44,49,292560,180
56,49,292560,180
58,35,292740,60
64,29,292740,60
59,42,292800,180
57,58,293040,180
45,49,293040,180
64,35,293220,60
60,29,293220,60
61,42,293280,180
61,58,293520,180
49,49,293520,180
64,35,293700,60
60,29,293700,60
61,42,293760,180
57,54,293880,120
45,42,293880,120
57,46,294000,180
51,39,294000,180
45,39,294000,180
65,28,294180,60
62,23,294180,60
66,33,294240,180
63,28,294240,180
51,39,294480,180
57,39,294480,180
45,39,294480,180
65,23,294660,60
62,28,294660,60
66,33,294720,180
63,28,294720,180
57,40,294840,120
51,35,294840,120
45,35,294840,120
45,39,294960,180
52,39,294960,180
57,46,294960,180
63,28,295140,60
60,23,295140,60
64,33,295200,180
61,28,295200,180
45,39,295440,180
49,39,295440,180
57,46,295440,180
63,28,295620,60
60,23,295620,60
64,33,295680,180
61,28,295680,180
45,40,295920,180
51,40,295920,180
57,48,295920,180
62,24,296100,60
65,29,296100,60
66,34,296160,180
63,29,296160,180
45,40,296400,180
51,40,296400,180
57,40,296400,180
65,24,296580,60
62,29,296580,60
66,34,296640,180
63,29,296640,180
45,36,296760,120
51,36,296760,120
57,42,296760,120
46,40,296880,180
53,40,296880,180
58,48,296880,180
61,24,297060,60
64,29,297060,60
65,34,297120,180
62,29,297120,180
58,48,297360,180
50,40,297360,180
46,40,297360,180
61,24,297540,60
64,29,297540,60
62,29,297600,180
65,34,297600,180
52,42,297840,180
58,50,297840,180
46,42,297840,180
63,25,298020,60
66,30,298020,60
67,36,298080,180
64,30,298080,180
52,43,298320,180
58,43,298320,180
46,43,298320,180
66,26,298500,60
63,31,298500,60
64,31,298560,180
67,37,298560,180
46,39,298680,120
58,46,298680,120
52,39,298680,120
59,53,298800,180
47,44,298800,180
54,44,298800,180
62,26,298980,60
65,32,298980,60
63,32,299040,180
66,38,299040,180
59,46,299280,180
47,46,299280,180
64,33,299460,60
67,27,299460,60
65,33,299520,180
68,39,299520,180
59,49,299640,120
47,42,299640,120
48,47,299760,180
60,56,299760,180
63,28,299940,60
66,34,299940,60
67,40,300000,180
64,34,300000,180
61,48,300240,180
49,48,300240,180
69,29,300420,60
66,35,300420,60
70,41,300480,180
67,35,300480,180
49,44,300600,120
61,52,300600,120
62,59,300720,180
50,50,300720,180
68,38,300900,60
64,32,300900,60
69,45,300960,180
65,38,300960,180
57,53,301200,180
45,45,301200,180
61,33,301380,60
64,39,301380,60
62,39,301440,180
65,47,301440,180
53,59,301680,180
41,50,301680,180
61,38,301860,60
56,32,301860,60
57,38,301920,180
62,45,301920,180
38,45,302160,180
50,53,302160,180
52,33,302340,60
56,39,302340,60
53,39,302400,180
57,47,302400,180
46,50,302640,180
58,59,302640,180
64,38,302820,60
61,32,302820,60
65,45,302880,180
62,38,302880,180
53,53,303120,180
41,45,303120,180
57,33,303300,60
61,39,303300,60
62,47,303360,180
58,39,303360,180
50,59,303600,180
38,50,303600,180
57,38,303780,60
52,32,303780,60
53,38,303840,180
58,45,303840,180
34,45,304080,180
46,53,304080,180
49,33,304260,60
52,39,304260,60
50,39,304320,180
53,47,304320,180
51,59,304560,180
39,50,304560,180
54,28,304740,60
57,34,304740,60
55,34,304800,180
58,40,304800,180
46,53,305040,180
34,45,305040,180
57,35,305220,60
54,29,305220,60
58,42,305280,180
55,35,305280,180
39,50,305520,180
51,59,305520,180
57,34,305700,60
54,28,305700,60
58,40,305760,180
55,34,305760,180
46,53,306000,180
34,45,306000,180
57,35,306180,60
54,29,306180,60
58,42,306240,180
55,35,306240,180
45,59,306480,180
33,50,306480,180
56,38,306660,60
52,32,306660,60
53,38,306720,180
57,45,306720,180
29,45,306960,180
41,53,306960,180
52,39,307140,60
53,47,307200,180
28,50,307440,180
40,59,307440,180
52,45,307680,180
50,38,307680,180
46,38,307680,180
33,45,307920,180
45,53,307920,180
55,47,308160,180
45,38,308160,180
49,38,308160,180
52,38,308160,180
53,67,308400,120
50,56,308400,240
38,56,308400,240
45,56,308400,240
57,67,308400,120
38,58,309240,90
50,69,309240,90
39,66,309330,840
42,66,309340,840
45,66,309350,840
51,78,309360,840
50,68,310200,90
38,57,310200,90
41,65,310290,840
44,65,310300,840
47,65,310310,840
53,77,310320,840
50,67,311160,90
38,56,311160,90
46,65,311250,240
50,65,311260,240
55,65,311270,240
58,77,311280,240
58,67,311640,120
46,56,311640,120
57,77,311760,240
45,65,311760,240
55,67,312120,90
43,56,312120,90
38,66,312210,720
42,66,312220,720
45,66,312230,720
50,78,312240,720
50,68,313080,90
38,57,313080,90
39,66,313170,840
42,66,313180,840
45,66,313190,840
51,78,313200,840
50,68,314040,90
38,57,314040,90
35,65,314130,840
41,65,314140,840
44,65,314150,840
47,77,314160,840
38,56,315000,120
50,67,315000,120
40,65,315120,240
34,65,315120,240
46,77,315120,240
37,65,315120,240
46,67,315480,120
34,56,315480,120
31,65,315600,240
43,77,315600,240
40,65,315600,240
37,65,315600,240
43,67,315960,120
31,56,315960,120
57,67,316080,120
53,67,316080,120
38,56,316080,120
45,56,316080,120
50,56,316080,120
76,60,316320,80
67,59,316320,240
75,60,316400,80
74,60,316480,80
73,60,316560,80
64,63,316560,240
72,60,316640,80
71,60,316720,80
70,60,316800,80
61,58,316800,240
69,60,316880,80
68,60,316960,80
67,63,317040,120
58,53,317040,120
55,63,317280,120
43,53,317280,120
52,57,317400,120
49,48,317400,120
57,63,317520,120
45,53,317520,120
49,49,317640,120
52,58,317640,120
46,53,317760,120
58,63,317760,120
52,48,317880,120
55,57,317880,120
57,64,318000,120
54,64,318000,120
62,64,318000,120
50,64,318000,120
64,54,318240,80
55,53,318240,240
63,54,318320,80
62,54,318400,80
52,56,318480,240
61,54,318480,80
60,54,318560,80
59,54,318640,80
49,52,318720,240
58,54,318720,80
57,54,318800,80
56,54,318880,80
55,56,318960,120
46,47,318960,120
43,61,319200,120
31,51,319200,120
40,56,319320,120
37,47,319320,120
33,51,319440,120
45,61,319440,120
37,48,319560,120
40,57,319560,120
46,61,319680,120
34,51,319680,120
40,47,319800,120
43,56,319800,120
38,62,319920,120
50,62,319920,120
42,62,319920,120
45,62,319920,120
49,46,320160,90
55,55,320160,90
46,46,320160,90
43,46,320160,90
46,46,320280,90
43,46,320280,90
49,46,320280,90
55,55,320280,90
50,54,320400,120
62,64,320400,120
54,54,320400,120
57,54,320400,120
49,49,320640,90
55,58,320640,90
46,49,320640,90
43,49,320640,90
46,49,320760,90
43,49,320760,90
49,49,320760,90
55,58,320760,90
38,57,320880,120
50,68,320880,120
42,57,320880,120
45,57,320880,120
55,60,321120,90
43,51,321120,90
49,51,321120,90
46,51,321120,90
43,49,321240,90
55,58,321240,90
46,49,321240,90
49,49,321240,90
50,56,321360,120
54,56,321360,120
62,66,321360,120
57,56,321360,120
46,50,321600,90
49,50,321600,90
55,59,321600,90
43,50,321600,90
49,50,321720,90
55,59,321720,90
46,50,321720,90
43,50,321720,90
38,57,321840,120
50,68,321840,120
42,57,321840,120
45,57,321840,120
40,60,322080,90
31,51,322080,90
37,51,322080,90
43,60,322080,90
40,60,322200,90
43,60,322200,90
37,51,322200,90
31,51,322200,90
38,59,322320,120
42,59,322320,120
45,59,322320,120
50,71,322320,120
31,52,322560,90
37,52,322560,90
40,52,322560,90
43,62,322560,90
31,52,322680,90
43,62,322680,90
40,52,322680,90
37,52,322680,90
45,62,322800,240
38,62,322800,240
50,74,322800,240
42,62,322800,240
40,53,323040,240
37,53,323040,240
43,63,323040,240
31,53,323040,240
31,53,323520,240
40,53,323520,240
37,53,323520,240
43,63,323520,240
31,53,324000,240
43,63,324000,240
37,53,324000,240
40,53,324000,240
41,52,324240,240
38,52,324240,240
50,62,324240,240
44,52,324240,240
42,52,324480,240
38,52,324480,240
51,62,324480,240
45,52,324480,240
46,51,324720,240
38,51,324720,240
52,61,324720,240
43,51,324720,240
47,51,324960,240
38,51,324960,240
44,51,324960,240
53,61,324960,240
54,61,325200,240
48,51,325200,240
38,51,325200,240
45,51,325200,240
38,51,325440,240
46,51,325440,240
55,61,325440,240
49,51,325440,240
38,47,326160,480
47,47,326160,480
56,56,326160,480
38,42,330160,320
46,48,330160,320
39,54,330480,960
46,64,330480,960
46,64,331440,840
37,54,331440,960
46,67,332280,120
35,58,332400,960
46,69,332400,960
44,65,333360,840
35,55,333360,840
44,59,334200,90
35,50,334200,90
35,57,334320,240
44,68,334320,240
53,48,335040,240
62,54,335280,720
53,51,336000,240
53,44,337200,240
34,44,337200,240
44,44,337200,240
56,44,337200,240
53,39,338040,90
44,39,338040,90
56,39,338040,90
35,39,338040,90
56,44,338160,120
35,44,338160,120
44,44,338160,120
53,44,338160,120
53,48,338880,240
62,54,339120,720
53,51,339840,240
34,44,341040,240
56,44,341040,240
53,44,341040,240
44,44,341040,240
35,39,341880,90
44,39,341880,90
56,39,341880,90
53,39,341880,90
53,44,342000,120
44,44,342000,120
56,44,342000,120
35,44,342000,120
50,38,346560,240
59,44,346800,720
44,37,347520,240
53,37,347760,1920
41,39,350760,132
53,46,350760,132
52,49,350880,132
40,41,350880,132
38,43,351000,132
50,51,351000,132
37,45,351120,132
49,54,351120,132
48,56,351240,132
36,47,351240,132
35,50,351360,132
47,59,351360,132
34,51,351480,132
46,61,351480,132
33,56,351600,1440
45,66,351600,1440
66,56,352440,45
62,47,352440,45
57,47,352440,45
66,56,352500,45
62,47,352500,45
57,47,352500,45
66,63,352560,720
62,53,352560,720
57,53,352560,720
33,59,353400,120
45,59,353400,120
35,54,353520,1440
47,64,353520,1440
66,54,354360,45
62,45,354360,45
59,45,354360,45
54,45,354360,45
66,54,354420,45
62,45,354420,45
59,45,354420,45
54,45,354420,45
66,61,354480,720
62,51,354480,720
59,51,354480,720
54,51,354480,720
35,62,355320,120
47,62,355320,120
30,51,355440,960
42,60,355440,960
66,56,355800,45
61,47,355800,45
58,47,355800,45
54,47,355800,45
66,57,355860,45
61,48,355860,45
58,48,355860,45
54,48,355860,45
66,63,355920,240
61,53,355920,240
58,53,355920,240
54,53,355920,240
33,55,356400,720
45,66,356400,720
69,59,356760,45
64,50,356760,45
61,50,356760,45
57,50,356760,45
69,59,356820,45
64,50,356820,45
61,50,356820,45
57,50,356820,45
69,65,356880,240
64,55,356880,240
61,55,356880,240
57,55,356880,240
26,56,357240,90
33,56,357240,90
38,66,357240,90
26,51,357360,1920
33,51,357360,1920
38,73,357360,1920
57,56,358200,90
62,56,358200,90
66,56,358200,90
69,67,358200,90
57,66,358320,240
62,66,358320,240
66,66,358320,240
69,78,358320,240
74,70,358680,90
69,59,358680,90
66,59,358680,90
62,59,358680,90
74,79,358800,240
69,67,358800,240
66,67,358800,240
62,67,358800,240
66,71,359160,90
62,60,359160,90
54,60,359160,90
66,80,359280,240
62,68,359280,240
54,68,359280,240
69,70,359640,90
66,59,359640,90
62,59,359640,90
57,59,359640,90
69,80,359760,240
66,68,359760,240
62,68,359760,240
57,68,359760,240
62,72,360120,90
57,61,360120,90
54,61,360120,90
50,61,360120,90
62,79,360240,240
57,67,360240,240
54,67,360240,240
50,67,360240,240
66,62,360600,90
62,62,360600,90
54,62,360600,90
54,68,360720,240
62,68,360720,240
66,68,360720,240
45,56,361080,90
50,56,361080,90
54,56,361080,90
57,67,361080,90
45,66,361200,240
50,66,361200,240
54,66,361200,240
57,78,361200,240
62,70,361560,90
57,59,361560,90
54,59,361560,90
50,59,361560,90
62,79,361680,240
57,67,361680,240
54,67,361680,240
50,67,361680,240
54,71,362040,90
50,60,362040,90
42,60,362040,90
54,80,362160,240
50,68,362160,240
42,68,362160,240
57,70,362520,90
54,59,362520,90
50,59,362520,90
45,59,362520,90
57,80,362640,240
54,68,362640,240
50,68,362640,240
45,68,362640,240
50,72,363000,90
45,61,363000,90
42,61,363000,90
38,61,363000,90
50,79,363120,240
45,67,363120,240
42,67,363120,240
38,67,363120,240
54,74,363480,90
50,62,363480,90
42,62,363480,90
42,68,363600,240
50,68,363600,240
54,81,363600,240
33,56,363960,90
38,56,363960,90
42,56,363960,90
45,67,363960,90
33,66,364080,240
38,66,364080,240
42,66,364080,240
45,78,364080,240
50,70,364440,90
45,59,364440,90
42,59,364440,90
38,59,364440,90
50,79,364560,240
45,67,364560,240
42,67,364560,240
38,67,364560,240
42,71,364920,90
38,60,364920,90
30,60,364920,90
42,80,365040,240
38,68,365040,240
30,68,365040,240
45,70,365400,90
42,59,365400,90
38,59,365400,90
33,59,365400,90
45,80,365520,240
42,68,365520,240
38,68,365520,240
33,68,365520,240
26,51,365880,90
33,51,365880,90
38,61,365880,90
26,56,366000,216
33,56,366000,216
38,67,366000,216
26,51,366240,216
34,51,366240,216
38,61,366240,216
26,56,366480,216
33,56,366480,216
38,67,366480,216
26,51,366720,216
34,51,366720,216
38,61,366720,216
26,56,366960,216
33,56,366960,216
38,67,366960,216
26,51,367200,216
34,51,367200,216
38,61,367200,216
26,56,367440,216
33,56,367440,216
38,67,367440,216
26,51,367680,216
34,51,367680,216
38,61,367680,216
26,56,367920,180
33,56,367920,180
38,67,367920,180
26,51,368160,180
34,51,368160,180
38,61,368160,180
26,56,368400,180
33,56,368400,180
38,67,368400,180
26,51,368640,180
34,51,368640,180
38,61,368640,180
26,53,368880,480
33,53,368880,480
38,63,368880,480
42,60,369360,480
38,60,369360,480
45,60,369360,480
50,71,369360,480
54,62,369840,480
50,62,369840,480
57,62,369840,480
62,74,369840,480
66,64,370320,480
62,64,370320,480
69,64,370320,480
74,77,370320,480
26,81,370800,1920
38,81,370800,1920
50,96,370800,1920
