note,velocity,position,duration
64,70,720,960
61,69,1680,120
64,72,1800,120
69,75,1920,120
73,77,2040,120
76,85,2160,960
73,73,3120,120
76,77,3240,120
81,80,3360,120
85,81,3480,120
88,87,3600,720
83,79,3840,60
76,67,3840,60
83,70,4080,60
76,59,4080,60
88,81,4320,720
85,81,4320,240
81,68,4320,240
76,59,4560,60
83,70,4560,60
76,59,4800,60
83,70,4800,60
88,76,5040,720
85,76,5040,240
81,64,5040,240
76,59,5280,60
83,70,5280,60
76,59,5520,60
83,70,5520,60
88,83,5760,480
81,71,5760,480
64,59,6840,108
69,70,6840,108
69,68,6960,180
64,57,6960,180
64,59,7200,240
69,70,7200,240
71,69,7440,240
68,58,7440,240
73,69,7680,120
69,69,7680,120
64,58,7680,120
73,73,7920,480
69,73,7920,480
64,62,7920,480
73,65,8400,180
69,55,8400,180
69,59,8640,240
73,70,8640,240
74,66,8880,240
71,56,8880,240
76,64,9120,120
73,54,9120,120
69,54,9120,120
76,78,9360,360
73,66,9360,360
69,66,9360,360
74,59,9720,108
78,70,9720,108
74,62,9840,180
78,73,9840,180
81,80,10080,360
78,68,10080,360
69,68,10080,360
78,61,10440,108
81,72,10440,108
81,72,10560,180
78,61,10560,180
69,66,10800,240
78,66,10800,240
81,78,10800,240
80,66,11040,240
76,56,11040,240
78,66,11280,120
74,56,11280,120
78,76,11520,720
74,64,11520,720
69,64,11520,720
76,66,12240,240
73,56,12240,240
64,59,12600,108
69,70,12600,108
69,68,12720,180
64,57,12720,180
64,59,12960,240
69,70,12960,240
71,69,13200,240
68,58,13200,240
73,69,13440,120
69,69,13440,120
64,58,13440,120
73,73,13680,480
69,73,13680,480
64,62,13680,480
73,65,14160,180
69,55,14160,180
69,59,14400,240
73,70,14400,240
74,66,14640,240
71,56,14640,240
76,64,14880,120
73,54,14880,120
69,54,14880,120
76,78,15120,360
73,66,15120,360
69,66,15120,360
73,44,15480,108
78,52,15480,108
73,46,15600,180
78,54,15600,180
81,60,15840,360
73,51,15840,360
73,45,16200,108
81,54,16200,108
81,54,16320,180
73,45,16320,180
73,51,16560,1800
81,60,16560,240
80,60,16800,240
78,60,17040,240
85,60,17280,240
81,60,17520,240
80,55,17760,240
78,55,18000,360
73,45,18360,108
78,54,18360,108
78,54,18480,180
73,45,18480,180
73,51,18720,2400
81,60,18720,360
81,54,19080,108
81,54,19200,180
81,60,19440,240
80,60,19680,240
78,60,19920,240
85,60,20160,240
81,60,20400,240
80,55,20640,240
78,55,20880,240
83,83,21120,120
71,70,21120,120
71,66,21360,120
83,78,21360,120
71,74,21600,720
83,88,21600,720
71,71,22320,720
83,84,22320,720
71,86,23040,360
83,86,23040,960
71,71,23400,108
71,71,23520,120
71,85,23760,240
76,58,24000,120
71,49,24000,120
71,45,24240,120
76,53,24240,120
76,62,24480,240
71,52,24480,240
75,45,24720,240
78,53,24720,240
80,49,24960,120
76,41,24960,120
80,53,25200,480
76,45,25200,480
80,55,25680,120
76,46,25680,120
80,78,25920,240
76,66,25920,240
85,68,26160,240
88,71,26400,120
88,79,26640,360
76,72,27000,108
73,61,27000,108
76,75,27120,120
73,63,27120,120
76,81,27360,240
71,69,27360,240
75,59,27600,240
78,70,27600,240
80,66,27840,120
76,55,27840,120
80,72,28080,480
76,61,28080,480
80,77,28560,120
76,63,28560,120
80,96,28800,240
76,82,28800,240
85,85,29040,240
88,91,29280,120
88,102,29520,360
76,83,29880,108
73,70,29880,108
76,86,30000,120
73,73,30000,120
76,83,30240,360
71,70,30240,360
78,88,30600,120
80,81,30720,120
80,97,30960,240
76,82,30960,240
83,85,31200,240
88,90,31440,120
81,95,31680,960
76,95,31680,960
88,112,31680,960
87,78,32640,120
85,72,32880,120
83,80,33120,120
81,68,33360,120
80,61,33600,120
81,72,33840,120
78,62,34080,120
75,62,34320,120
95,81,34560,960
83,68,34560,960
81,59,35520,120
93,70,35520,120
80,59,35760,120
92,70,35760,120
90,79,36000,120
78,67,36000,120
76,59,36240,120
88,70,36240,120
75,59,36480,120
87,70,36480,120
85,76,36720,120
73,64,36720,120
71,59,36960,120
83,70,36960,120
70,59,37200,120
82,70,37200,120
80,78,37440,120
68,66,37440,120
78,64,37680,120
66,54,37680,120
76,64,37920,120
64,54,37920,120
75,70,38160,120
63,59,38160,120
76,61,38400,120
64,51,38400,120
73,61,38640,120
61,51,38640,120
71,69,38880,120
59,58,38880,120
76,53,39120,120
64,45,39120,120
68,53,39360,120
64,45,39360,120
71,62,39600,120
63,52,39600,120
69,45,39840,120
63,38,39840,120
66,45,40080,120
63,38,40080,120
64,57,40320,240
64,59,41400,108
69,70,41400,108
69,68,41520,180
64,57,41520,180
64,59,41760,240
69,70,41760,240
71,69,42000,240
68,58,42000,240
73,69,42240,120
69,69,42240,120
64,58,42240,120
73,73,42480,480
69,73,42480,480
64,62,42480,480
73,65,42960,180
69,55,42960,180
69,59,43200,240
73,70,43200,240
74,66,43440,240
71,56,43440,240
76,64,43680,120
73,54,43680,120
69,54,43680,120
76,78,43920,360
73,66,43920,360
69,66,43920,360
74,59,44280,108
78,70,44280,108
74,62,44400,180
78,73,44400,180
81,80,44640,360
78,68,44640,360
69,68,44640,360
78,61,45000,108
81,72,45000,108
81,72,45120,180
78,61,45120,180
69,66,45360,240
78,66,45360,240
81,78,45360,240
80,66,45600,240
76,56,45600,240
78,66,45840,120
74,56,45840,120
78,76,46080,720
74,64,46080,720
69,64,46080,720
76,66,46800,240
73,56,46800,240
64,59,47160,108
69,70,47160,108
69,68,47280,180
64,57,47280,180
64,59,47520,240
69,70,47520,240
71,69,47760,240
68,58,47760,240
73,69,48000,120
69,69,48000,120
64,58,48000,120
73,73,48240,480
69,73,48240,480
64,62,48240,480
73,65,48720,180
69,55,48720,180
69,59,48960,240
73,70,48960,240
74,66,49200,240
71,56,49200,240
76,64,49440,120
73,54,49440,120
69,54,49440,120
76,78,49680,360
73,66,49680,360
69,66,49680,360
73,44,50040,108
78,52,50040,108
73,46,50160,180
78,54,50160,180
81,60,50400,360
73,51,50400,360
73,45,50760,108
81,54,50760,108
81,54,50880,180
73,45,50880,180
73,51,51120,1800
81,60,51120,240
80,60,51360,240
78,60,51600,240
85,60,51840,240
81,60,52080,240
80,55,52320,240
78,55,52560,360
73,45,52920,108
78,54,52920,108
78,54,53040,180
73,45,53040,180
73,51,53280,2400
81,60,53280,360
81,54,53640,108
81,54,53760,180
81,60,54000,240
80,60,54240,240
78,60,54480,240
85,60,54720,240
81,60,54960,240
80,55,55200,240
78,55,55440,240
83,83,55680,120
71,70,55680,120
71,66,55920,120
83,78,55920,120
71,74,56160,720
83,88,56160,720
71,71,56880,720
83,84,56880,720
71,86,57600,360
83,86,57600,960
71,71,57960,108
71,71,58080,120
71,85,58320,240
76,58,58560,120
71,49,58560,120
71,45,58800,120
76,53,58800,120
76,62,59040,240
71,52,59040,240
75,45,59280,240
78,53,59280,240
80,49,59520,120
76,41,59520,120
80,53,59760,480
76,45,59760,480
80,55,60240,120
76,46,60240,120
80,78,60480,240
76,66,60480,240
85,68,60720,240
88,71,60960,120
88,79,61200,360
76,72,61560,108
73,61,61560,108
76,75,61680,120
73,63,61680,120
76,81,61920,240
71,69,61920,240
75,59,62160,240
78,70,62160,240
80,66,62400,120
76,55,62400,120
80,72,62640,480
76,61,62640,480
80,77,63120,120
76,63,63120,120
80,96,63360,240
76,82,63360,240
85,85,63600,240
88,91,63840,120
88,102,64080,360
76,83,64440,108
73,70,64440,108
76,86,64560,120
73,73,64560,120
76,83,64800,360
71,70,64800,360
78,88,65160,120
80,81,65280,120
80,97,65520,240
76,82,65520,240
83,85,65760,240
88,90,66000,120
81,95,66240,960
76,95,66240,960
88,112,66240,960
87,78,67200,120
85,72,67440,120
83,80,67680,120
81,68,67920,120
80,61,68160,120
81,72,68400,120
78,62,68640,120
75,62,68880,120
95,81,69120,960
83,68,69120,960
81,59,70080,120
93,70,70080,120
80,59,70320,120
92,70,70320,120
90,79,70560,120
78,67,70560,120
76,59,70800,120
88,70,70800,120
75,59,71040,120
87,70,71040,120
85,76,71280,120
73,64,71280,120
71,59,71520,120
83,70,71520,120
70,59,71760,120
82,70,71760,120
80,78,72000,120
68,66,72000,120
78,64,72240,120
66,54,72240,120
76,64,72480,120
64,54,72480,120
75,70,72720,120
63,59,72720,120
76,61,72960,120
64,51,72960,120
73,61,73200,120
61,51,73200,120
71,69,73440,120
59,58,73440,120
76,53,73680,120
64,45,73680,120
68,53,73920,120
64,45,73920,120
71,62,74160,120
63,52,74160,120
69,45,74400,120
63,38,74400,120
66,45,74640,120
63,38,74640,120
64,57,74880,240
68,70,75600,713
80,83,75600,713
68,74,76320,713
80,88,76320,713
68,71,77040,230
80,84,77040,713
80,78,77760,240
68,66,77760,240
69,63,78000,240
81,75,78000,240
68,61,78240,120
80,72,78240,120
68,66,78480,120
80,78,78480,120
68,59,78720,120
80,70,78720,120
68,59,78960,120
80,70,78960,120
68,74,79200,713
80,88,79200,713
68,71,79920,230
80,84,79920,713
68,74,80640,713
80,88,80640,713
80,85,81600,120
73,72,81600,120
73,64,81840,120
80,77,81840,120
80,85,82080,240
73,72,82080,240
69,69,82320,240
78,82,82320,240
73,67,82560,120
80,79,82560,120
81,85,82800,240
78,72,82800,240
85,81,83040,240
73,68,83280,120
80,81,83280,120
73,72,83520,480
80,85,83520,480
80,85,84480,120
73,72,84480,120
73,64,84720,120
80,77,84720,120
80,85,84960,240
73,72,84960,240
69,69,85200,240
78,82,85200,240
73,67,85440,120
80,79,85440,120
81,85,85680,240
78,72,85680,240
85,81,85920,240
73,68,86160,120
80,81,86160,120
80,85,86400,713
73,72,86400,713
69,72,87120,713
81,85,87120,713
69,72,87840,713
81,85,87840,713
68,72,88560,713
80,85,88560,713
66,72,89280,713
78,85,89280,713
64,72,90000,713
76,85,90000,713
57,72,90720,713
69,85,90720,713
56,72,91440,713
68,85,91440,713
54,72,92160,713
66,85,92160,713
64,90,92880,240
73,80,93120,120
61,68,93120,120
73,80,93360,120
61,68,93360,120
63,72,93600,120
75,85,93600,120
76,80,93840,120
64,68,93840,120
78,80,94080,120
66,68,94080,120
63,72,94320,120
75,85,94320,120
76,81,94560,120
64,68,94560,120
78,81,94800,120
66,68,94800,120
68,72,95040,120
80,85,95040,120
81,79,95280,120
69,66,95280,120
83,76,95520,120
71,64,95520,120
69,66,95760,120
81,79,95760,120
83,72,96000,120
71,61,96000,120
85,70,96240,120
73,59,96240,120
76,72,96480,240
80,72,96480,720
75,67,96720,240
73,67,96960,240
75,72,97200,240
80,72,97200,720
72,68,97440,240
68,68,97680,240
73,80,97920,120
80,80,98160,120
77,68,98160,120
73,68,98160,120
80,88,98400,120
77,74,98400,120
73,74,98400,120
81,95,98640,720
78,80,98640,720
73,80,99360,120
80,80,99600,120
77,68,99600,120
73,68,99600,120
80,88,99840,120
77,74,99840,120
73,74,99840,120
81,95,100080,720
78,80,100080,720
85,105,100800,480
80,89,100800,480
77,89,100800,480
73,89,100800,480
73,76,101280,180
85,90,101280,180
73,80,101520,180
85,95,101520,180
85,88,101760,180
73,74,101760,180
85,89,102000,180
73,75,102000,180
85,105,102240,480
73,89,102240,480
73,76,102720,180
85,90,102720,180
73,80,102960,180
85,95,102960,180
85,88,103200,180
73,74,103200,180
85,89,103440,180
73,75,103440,180
88,105,103680,480
85,89,103680,480
80,89,103680,480
76,89,103680,480
76,76,104160,180
88,90,104160,180
76,80,104400,180
88,95,104400,180
88,88,104640,180
76,74,104640,180
88,89,104880,180
76,75,104880,180
88,105,105120,480
76,89,105120,480
76,72,105600,180
88,85,105600,180
76,76,105840,180
88,90,105840,180
88,70,106080,180
76,59,106080,180
88,71,106320,180
76,60,106320,180
88,76,106560,180
76,64,106560,180
88,70,106800,180
76,59,106800,180
76,60,107040,180
88,71,107040,180
88,76,107280,180
76,64,107280,180
88,70,107520,180
76,59,107520,180
88,71,107760,180
76,60,107760,180
88,76,108000,180
76,64,108000,180
88,70,108240,180
76,59,108240,180
76,60,108480,180
88,71,108480,180
88,76,108720,180
76,64,108720,180
90,66,108960,180
78,56,108960,180
90,64,109200,180
78,53,109200,180
93,68,109440,180
81,57,109440,180
81,52,109680,180
93,62,109680,180
81,53,109920,180
93,63,109920,180
93,67,110160,180
81,47,110160,180
93,63,110400,180
81,54,110400,180
81,52,110640,180
93,62,110640,180
93,61,110880,240
81,51,110880,240
64,59,111960,108
69,70,111960,108
69,68,112080,180
64,57,112080,180
64,59,112320,240
69,70,112320,240
71,69,112560,240
68,58,112560,240
73,69,112800,120
69,69,112800,120
64,58,112800,120
73,73,113040,480
69,73,113040,480
64,62,113040,480
73,65,113520,180
69,55,113520,180
69,59,113760,240
73,70,113760,240
74,66,114000,240
71,56,114000,240
76,64,114240,120
73,54,114240,120
76,54,114480,240
73,54,114480,240
74,50,114720,240
73,43,114960,240
69,49,115200,360
71,55,115200,360
71,45,115560,108
69,45,115560,108
71,45,115680,180
69,45,115680,180
69,49,115920,1800
74,54,115920,240
73,50,116160,240
71,43,116400,240
78,54,116640,240
74,50,116880,240
73,50,117120,240
71,55,117360,360
71,45,117720,108
69,45,117720,108
71,45,117840,180
69,45,117840,180
69,49,118080,2400
71,55,118080,360
71,45,118440,108
71,45,118560,180
74,54,118800,240
73,50,119040,240
71,43,119280,240
78,54,119520,240
74,50,119760,240
73,50,120000,240
71,55,120240,233
71,45,120480,220
69,45,120480,228
71,45,120720,180
69,45,120720,180
78,90,120960,960
75,78,121920,120
73,72,122160,120
71,78,122400,960
83,90,122400,960
80,97,123360,120
78,90,123600,120
88,101,123840,960
76,85,123840,960
74,70,124800,120
86,84,124800,120
73,70,125040,120
85,83,125040,120
83,94,125280,120
71,79,125280,120
69,69,125520,120
81,82,125520,120
68,69,125760,120
80,81,125760,120
78,88,126000,120
66,74,126000,120
64,67,126240,120
76,80,126240,120
62,67,126480,120
74,79,126480,120
73,88,126720,120
61,74,126720,120
71,71,126960,120
59,60,126960,120
69,71,127200,120
57,59,127200,120
68,77,127440,120
56,65,127440,120
69,67,127680,120
57,56,127680,120
66,66,127920,120
54,55,127920,120
64,74,128160,120
52,62,128160,120
69,56,128400,120
57,48,128400,120
61,56,128640,120
57,47,128640,120
64,65,128880,120
56,54,128880,120
62,46,129120,120
56,39,129120,120
59,46,129360,120
56,39,129360,120
57,49,129600,180
57,45,129840,120
57,43,130080,120
57,49,130320,950
52,40,130560,120
52,46,130800,120
54,53,131040,480
50,53,131040,480
57,45,131280,120
57,43,131520,120
57,49,131760,950
52,40,132000,120
52,46,132240,120
54,63,132480,480
50,63,132480,480
57,53,132720,120
57,61,132960,120
61,67,133200,950
61,59,134160,120
61,68,134400,120
64,75,134640,960
61,70,135600,120
64,73,135720,120
69,76,135840,120
73,84,135960,120
76,88,136080,960
61,74,137040,120
64,77,137160,120
67,81,137280,120
73,88,137400,120
76,93,137520,960
66,78,138480,120
69,82,138600,120
74,85,138720,120
78,93,138840,120
81,98,138960,960
66,82,139920,120
69,86,140040,120
75,90,140160,120
78,98,140280,120
81,103,140400,960
73,86,141360,120
76,90,141480,120
81,94,141600,120
85,98,141720,120
88,101,141840,120
85,94,141960,120
81,77,142080,120
76,63,142200,120
81,69,142320,120
76,67,142440,120
88,76,142560,120
85,67,142680,120
81,70,142800,120
76,63,142920,120
81,69,143040,120
76,67,143160,120
88,76,143280,120
85,67,143400,120
81,70,143520,120
76,63,143640,120
81,69,143760,120
76,67,143880,120
88,76,144000,120
85,67,144120,120
81,70,144240,120
76,63,144360,120
81,69,144480,120
76,67,144600,120
88,76,144720,120
85,67,144840,120
81,70,144960,120
76,63,145080,120
81,69,145200,120
76,67,145320,120
88,76,145440,120
86,67,145560,120
83,70,145680,120
76,63,145800,120
83,69,145920,120
76,67,146040,120
88,76,146160,120
86,67,146280,120
83,70,146400,120
76,63,146520,120
83,69,146640,120
76,67,146760,120
88,76,146880,120
86,67,147000,120
83,70,147120,120
76,63,147240,120
83,69,147360,120
76,67,147480,120
88,76,147600,120
85,67,147720,120
81,70,147840,120
76,63,147960,120
81,69,148080,120
76,67,148200,120
88,76,148320,120
85,67,148440,120
81,70,148560,120
76,63,148680,120
81,69,148800,120
76,67,148920,120
88,76,149040,120
85,67,149160,120
81,70,149280,120
76,63,149400,120
81,69,149520,120
76,67,149640,120
88,76,149760,120
85,67,149880,120
81,70,150000,120
76,63,150120,120
81,69,150240,120
76,67,150360,120
88,76,150480,120
85,67,150600,120
81,70,150720,120
76,63,150840,120
81,69,150960,120
76,67,151080,120
88,76,151200,120
86,67,151320,120
83,70,151440,120
76,63,151560,120
83,69,151680,120
76,67,151800,120
88,76,151920,120
86,67,152040,120
83,70,152160,120
76,63,152280,120
83,69,152400,120
76,67,152520,120
88,76,152640,120
86,67,152760,120
83,70,152880,120
76,63,153000,120
83,69,153120,120
76,67,153240,120
88,76,153360,120
85,67,153480,120
83,70,153600,120
81,63,153720,120
83,69,153840,120
81,67,153960,120
88,76,154080,120
85,67,154200,120
83,70,154320,120
81,63,154440,120
83,69,154560,120
81,67,154680,120
88,76,154800,120
85,67,154920,120
83,70,155040,120
81,63,155160,120
83,69,155280,120
81,67,155400,120
88,76,155520,120
85,67,155640,120
83,70,155760,120
81,63,155880,120
83,69,156000,120
81,67,156120,120
88,76,156240,120
85,67,156360,120
83,56,156480,120
81,53,156600,120
83,58,156720,120
81,56,156840,120
93,71,156960,120
90,56,157080,120
83,59,157200,120
81,53,157320,120
83,58,157440,120
81,56,157560,120
93,64,157680,120
90,56,157800,120
83,59,157920,120
81,53,158040,120
83,58,158160,120
81,56,158280,120
93,71,158400,120
90,56,158520,120
83,59,158640,120
81,53,158760,120
83,58,158880,120
81,56,159000,120
93,64,159120,120
90,56,159240,120
83,59,159360,120
81,53,159480,120
83,58,159600,120
81,56,159720,120
93,71,159840,120
90,56,159960,120
86,58,160080,120
81,51,160200,120
86,56,160320,120
81,53,160440,120
93,60,160560,120
90,53,160680,120
86,55,160800,120
81,49,160920,120
86,53,161040,120
81,50,161160,120
93,63,161280,120
90,50,161400,120
86,52,161520,120
81,46,161640,120
86,50,161760,120
81,48,161880,120
93,54,162000,120
90,47,162120,120
86,49,162240,120
81,43,162360,120
86,47,162480,120
81,45,162600,120
93,56,162720,120
88,44,162840,120
85,47,162960,120
81,42,163080,120
85,46,163200,120
81,44,163320,120
90,56,163440,120
88,44,163560,120
90,47,163680,120
88,42,163800,120
90,46,163920,120
88,44,164040,120
93,56,164160,120
88,44,164280,120
85,47,164400,120
81,42,164520,120
85,46,164640,120
81,44,164760,120
90,56,164880,120
88,44,165000,120
90,47,165120,120
88,42,165240,120
90,46,165360,120
88,44,165480,120
93,56,165600,120
88,44,165720,120
85,47,165840,120
81,42,165960,120
85,45,166080,120
81,43,166200,120
90,55,166320,120
88,43,166440,120
90,46,166560,120
88,41,166680,120
90,45,166800,120
88,42,166920,120
93,54,167040,120
88,42,167160,120
85,45,167280,120
81,40,167400,120
85,44,167520,120
81,42,167640,120
90,53,167760,120
88,41,167880,120
90,44,168000,120
88,39,168120,120
90,43,168240,120
88,41,168360,120
93,52,168480,120
88,41,168600,120
85,43,168720,120
81,39,168840,120
85,42,168960,120
81,40,169080,120
88,51,169200,120
85,40,169320,120
83,43,169440,120
81,38,169560,120
83,41,169680,120
81,40,169800,120
88,50,169920,120
85,39,170040,120
83,42,170160,120
81,37,170280,120
83,40,170400,120
81,39,170520,120
88,49,170640,120
85,39,170760,120
83,41,170880,120
81,36,171000,120
83,40,171120,120
81,38,171240,120
88,48,171360,120
85,38,171480,120
83,40,171600,120
81,36,171720,120
83,39,171840,120
81,37,171960,120
88,47,172080,120
85,37,172200,120
83,39,172320,120
81,35,172440,120
83,39,172560,120
81,45,172680,120
88,49,172800,120
85,46,172920,120
83,49,173040,120
81,53,173160,120
83,55,173280,120
85,57,173400,120
86,61,173520,120
88,65,173640,120
90,68,173760,120
92,70,173880,120
93,73,174000,120
95,77,174120,120
97,78,174240,240
76,41,175560,360
81,41,175620,300
88,49,175680,240
57,34,177120,120
33,59,0,480
45,70,0,480
49,61,240,120
52,63,360,120
57,67,480,120
61,70,600,120
59,63,960,60
52,53,960,60
59,63,1200,60
52,53,1200,60
61,70,1440,480
57,70,1440,480
71,66,2400,60
64,56,2400,60
71,62,2640,60
64,52,2640,60
69,59,2880,480
73,70,2880,480
71,66,3840,60
64,56,3840,60
71,66,4080,60
64,56,4080,60
69,59,4320,240
73,70,4320,240
71,64,4560,60
64,54,4560,60
71,64,4800,60
64,54,4800,60
69,59,5040,240
73,70,5040,240
71,64,5280,60
64,54,5280,60
71,64,5520,60
64,54,5520,60
69,59,5760,480
73,70,5760,480
45,79,6480,360
33,67,6480,360
49,50,6840,108
57,59,6840,108
57,54,6960,180
49,45,6960,180
49,50,7200,240
57,59,7200,240
59,55,7440,240
52,46,7440,240
57,46,7680,120
61,55,7680,120
57,51,7920,480
61,60,7920,480
57,50,8400,180
61,59,8400,180
57,53,8640,240
61,63,8640,240
62,59,8880,240
59,50,8880,240
61,50,9120,120
64,59,9120,120
64,66,9360,360
61,56,9360,360
62,50,9720,108
66,59,9720,108
66,62,9840,180
62,52,9840,180
66,70,10080,360
62,59,10080,360
57,59,10080,360
62,50,10440,108
66,59,10440,108
62,50,10560,180
66,59,10560,180
66,67,10800,240
62,56,10800,240
64,50,11040,240
68,59,11040,240
62,50,11280,120
66,59,11280,120
66,67,11520,720
62,56,11520,720
57,56,11520,720
64,58,12240,240
61,49,12240,240
49,50,12600,108
57,59,12600,108
57,54,12720,180
49,45,12720,180
49,50,12960,240
57,59,12960,240
59,55,13200,240
52,46,13200,240
57,46,13440,120
61,55,13440,120
57,51,13680,480
61,60,13680,480
57,50,14160,180
61,59,14160,180
57,53,14400,240
61,63,14400,240
62,59,14640,240
59,50,14640,240
61,50,14880,120
64,59,14880,120
64,66,15120,480
61,56,15120,480
45,52,15840,240
33,44,15840,240
54,37,16080,230
61,37,16080,230
64,44,16080,230
54,37,16320,180
61,37,16320,180
64,44,16320,180
54,29,16560,240
61,29,16560,240
64,35,16560,240
54,29,16800,240
61,29,16800,240
64,35,16800,240
54,29,17040,240
61,29,17040,240
64,35,17040,240
54,37,17280,1440
61,37,17280,1440
64,37,17280,1440
45,52,18720,240
33,44,18720,240
54,37,18960,230
61,37,18960,230
64,44,18960,230
54,37,19200,180
61,37,19200,180
64,44,19200,180
54,29,19440,240
61,29,19440,240
64,35,19440,240
54,29,19680,240
61,29,19680,240
64,35,19680,240
54,29,19920,240
61,29,19920,240
64,35,19920,240
54,37,20160,960
61,37,20160,960
64,37,20160,960
66,78,21120,120
59,66,21120,120
59,59,21360,120
66,70,21360,120
66,78,21600,240
59,66,21600,240
56,63,21840,240
64,75,21840,240
59,61,22080,120
66,72,22080,120
68,78,22320,240
64,66,22320,240
71,74,22560,240
68,62,22560,240
59,62,22800,120
66,74,22800,120
66,84,23040,960
59,71,23040,960
32,41,24480,240
44,49,24480,240
52,30,24720,120
56,30,24720,120
64,37,24720,120
59,30,24720,120
52,30,24960,120
56,30,24960,120
59,30,24960,120
64,37,24960,120
52,30,25200,480
56,30,25200,480
59,30,25200,480
64,37,25200,480
33,41,25920,240
45,49,25920,240
52,37,26160,120
56,37,26160,120
64,45,26160,120
61,37,26160,120
52,37,26400,120
56,37,26400,120
61,37,26400,120
64,45,26400,120
52,37,26640,480
56,37,26640,480
61,37,26640,480
64,45,26640,480
35,53,27360,240
47,63,27360,240
52,39,27600,120
56,39,27600,120
64,48,27600,120
59,39,27600,120
52,40,27840,120
56,40,27840,120
59,40,27840,120
64,50,27840,120
52,40,28080,480
56,40,28080,480
59,40,28080,480
64,50,28080,480
37,51,28800,240
49,61,28800,240
52,46,29040,120
56,46,29040,120
64,56,29040,120
61,46,29040,120
52,47,29280,120
56,47,29280,120
61,47,29280,120
64,57,29280,120
52,48,29520,480
56,48,29520,480
61,48,29520,480
64,58,29520,480
38,56,30240,240
50,66,30240,240
52,41,30480,120
56,41,30480,120
64,50,30480,120
59,41,30480,120
52,41,30720,120
56,41,30720,120
59,41,30720,120
64,50,30720,120
52,42,30960,480
56,42,30960,480
59,42,30960,480
64,51,30960,480
37,60,31680,240
49,71,31680,240
52,53,31920,120
57,53,31920,120
64,64,31920,120
61,53,31920,120
52,53,32160,120
57,53,32160,120
61,53,32160,120
64,64,32160,120
52,53,32400,480
57,53,32400,480
61,53,32400,480
64,64,32400,480
39,46,33120,120
51,55,33120,120
51,41,33360,120
54,41,33360,120
59,50,33360,120
57,41,33360,120
51,41,33600,120
54,41,33600,120
57,41,33600,120
59,50,33600,120
51,41,33840,240
54,41,33840,240
57,41,33840,240
59,50,33840,240
52,46,34560,120
47,46,34560,120
44,46,34560,120
56,55,34560,120
44,41,34800,120
47,41,34800,120
56,50,34800,120
52,41,34800,120
44,41,35040,120
47,41,35040,120
52,41,35040,120
56,50,35040,120
44,41,35280,240
47,41,35280,240
52,41,35280,240
56,50,35280,240
52,39,36000,120
46,39,36000,120
54,46,36000,120
46,34,36240,120
54,42,36240,120
52,34,36240,120
46,34,36480,120
52,34,36480,120
54,42,36480,120
52,39,36720,120
46,39,36720,120
54,46,36720,120
46,34,36960,120
54,42,36960,120
52,34,36960,120
46,34,37200,120
52,34,37200,120
54,42,37200,120
52,39,37440,120
46,39,37440,120
54,46,37440,120
46,33,37680,120
54,41,37680,120
52,33,37680,120
46,32,37920,120
52,32,37920,120
54,40,37920,120
52,37,38160,120
46,37,38160,120
54,43,38160,120
46,31,38400,120
54,39,38400,120
52,31,38400,120
46,31,38640,120
52,31,38640,120
54,38,38640,120
47,35,38880,120
56,41,38880,120
52,35,38886,120
47,29,39120,120
56,36,39120,120
52,29,39126,120
47,29,39360,120
56,36,39360,120
52,29,39366,120
47,33,39600,120
54,33,39600,120
57,39,39600,120
47,28,39840,120
54,28,39840,120
57,34,39840,120
47,27,40080,120
54,27,40080,120
57,34,40080,120
52,33,40320,240
56,33,40320,240
45,79,41040,360
33,67,41040,360
49,50,41400,108
57,59,41400,108
57,54,41520,180
49,45,41520,180
49,50,41760,240
57,59,41760,240
59,55,42000,240
52,46,42000,240
57,46,42240,120
61,55,42240,120
57,51,42480,480
61,60,42480,480
57,50,42960,180
61,59,42960,180
57,53,43200,240
61,63,43200,240
62,59,43440,240
59,50,43440,240
61,50,43680,120
64,59,43680,120
64,66,43920,360
61,56,43920,360
62,50,44280,108
66,59,44280,108
66,62,44400,180
62,52,44400,180
66,70,44640,360
62,59,44640,360
57,59,44640,360
62,50,45000,108
66,59,45000,108
62,50,45120,180
66,59,45120,180
66,67,45360,240
62,56,45360,240
64,50,45600,240
68,59,45600,240
62,50,45840,120
66,59,45840,120
66,67,46080,720
62,56,46080,720
57,56,46080,720
64,58,46800,240
61,49,46800,240
49,50,47160,108
57,59,47160,108
57,54,47280,180
49,45,47280,180
49,50,47520,240
57,59,47520,240
59,55,47760,240
52,46,47760,240
57,46,48000,120
61,55,48000,120
57,51,48240,480
61,60,48240,480
57,50,48720,180
61,59,48720,180
57,53,48960,240
61,63,48960,240
62,59,49200,240
59,50,49200,240
61,50,49440,120
64,59,49440,120
64,66,49680,480
61,56,49680,480
45,52,50400,240
33,44,50400,240
54,37,50640,230
61,37,50640,230
64,44,50640,230
54,37,50880,180
61,37,50880,180
64,44,50880,180
54,29,51120,240
61,29,51120,240
64,35,51120,240
54,29,51360,240
61,29,51360,240
64,35,51360,240
54,29,51600,240
61,29,51600,240
64,35,51600,240
54,37,51840,1440
61,37,51840,1440
64,37,51840,1440
45,52,53280,240
33,44,53280,240
54,37,53520,230
61,37,53520,230
64,44,53520,230
54,37,53760,180
61,37,53760,180
64,44,53760,180
54,29,54000,240
61,29,54000,240
64,35,54000,240
54,29,54240,240
61,29,54240,240
64,35,54240,240
54,29,54480,240
61,29,54480,240
64,35,54480,240
54,37,54720,960
61,37,54720,960
64,37,54720,960
66,78,55680,120
59,66,55680,120
59,59,55920,120
66,70,55920,120
66,78,56160,240
59,66,56160,240
56,63,56400,240
64,75,56400,240
59,61,56640,120
66,72,56640,120
68,78,56880,240
64,66,56880,240
71,74,57120,240
68,62,57120,240
59,62,57360,120
66,74,57360,120
66,84,57600,960
59,71,57600,960
32,41,59040,240
44,49,59040,240
52,30,59280,120
56,30,59280,120
64,37,59280,120
59,30,59280,120
52,30,59520,120
56,30,59520,120
59,30,59520,120
64,37,59520,120
52,30,59760,480
56,30,59760,480
59,30,59760,480
64,37,59760,480
33,41,60480,240
45,49,60480,240
52,37,60720,120
56,37,60720,120
64,45,60720,120
61,37,60720,120
52,37,60960,120
56,37,60960,120
61,37,60960,120
64,45,60960,120
52,37,61200,480
56,37,61200,480
61,37,61200,480
64,45,61200,480
35,53,61920,240
47,63,61920,240
52,39,62160,120
56,39,62160,120
64,48,62160,120
59,39,62160,120
52,40,62400,120
56,40,62400,120
59,40,62400,120
64,50,62400,120
52,40,62640,480
56,40,62640,480
59,40,62640,480
64,50,62640,480
37,51,63360,240
49,61,63360,240
52,46,63600,120
56,46,63600,120
64,56,63600,120
61,46,63600,120
52,47,63840,120
56,47,63840,120
61,47,63840,120
64,57,63840,120
52,48,64080,480
56,48,64080,480
61,48,64080,480
64,58,64080,480
38,56,64800,240
50,66,64800,240
52,41,65040,120
56,41,65040,120
64,50,65040,120
59,41,65040,120
52,41,65280,120
56,41,65280,120
59,41,65280,120
64,50,65280,120
52,42,65520,480
56,42,65520,480
59,42,65520,480
64,51,65520,480
37,60,66240,240
49,71,66240,240
52,53,66480,120
57,53,66480,120
64,64,66480,120
61,53,66480,120
52,53,66720,120
57,53,66720,120
61,53,66720,120
64,64,66720,120
52,53,66960,480
57,53,66960,480
61,53,66960,480
64,64,66960,480
39,46,67680,120
51,55,67680,120
51,41,67920,120
54,41,67920,120
59,50,67920,120
57,41,67920,120
51,41,68160,120
54,41,68160,120
57,41,68160,120
59,50,68160,120
51,41,68400,240
54,41,68400,240
57,41,68400,240
59,50,68400,240
52,46,69120,120
47,46,69120,120
44,46,69120,120
56,55,69120,120
44,41,69360,120
47,41,69360,120
56,50,69360,120
52,41,69360,120
44,41,69600,120
47,41,69600,120
52,41,69600,120
56,50,69600,120
44,41,69840,240
47,41,69840,240
52,41,69840,240
56,50,69840,240
52,39,70560,120
46,39,70560,120
54,46,70560,120
46,34,70800,120
54,42,70800,120
52,34,70800,120
46,34,71040,120
52,34,71040,120
54,42,71040,120
52,39,71280,120
46,39,71280,120
54,46,71280,120
46,34,71520,120
54,42,71520,120
52,34,71520,120
46,34,71760,120
52,34,71760,120
54,42,71760,120
52,39,72000,120
46,39,72000,120
54,46,72000,120
46,33,72240,120
54,41,72240,120
52,33,72240,120
46,32,72480,120
52,32,72480,120
54,40,72480,120
52,37,72720,120
46,37,72720,120
54,43,72720,120
46,31,72960,120
54,39,72960,120
52,31,72960,120
46,31,73200,120
52,31,73200,120
54,38,73200,120
47,35,73440,120
56,41,73440,120
52,35,73446,120
47,29,73680,120
56,36,73680,120
52,29,73686,120
47,29,73920,120
56,36,73920,120
52,29,73926,120
47,33,74160,120
54,33,74160,120
57,39,74160,120
47,28,74400,120
54,28,74400,120
57,34,74400,120
47,27,74640,120
54,27,74640,120
57,34,74640,120
52,33,74880,240
56,33,74880,240
63,78,75840,120
56,66,75840,120
56,59,76080,120
63,70,76080,120
63,78,76320,240
56,66,76320,240
52,63,76560,240
61,75,76560,240
56,61,76800,120
63,72,76800,120
64,78,77040,240
61,66,77040,240
68,74,77280,470
56,62,77520,120
63,74,77520,120
56,66,77760,480
63,78,77760,480
63,78,78720,120
56,66,78720,120
56,59,78960,120
63,70,78960,120
63,78,79200,240
56,66,79200,240
52,63,79440,240
61,75,79440,240
56,61,79680,120
63,72,79680,120
64,78,79920,240
61,66,79920,240
68,74,80160,470
56,62,80400,120
63,74,80400,120
63,78,80640,720
56,66,80640,720
49,63,81360,713
61,74,81360,713
49,66,82080,713
61,79,82080,713
49,63,82800,713
61,75,82800,713
61,70,83520,240
49,59,83520,240
50,56,83760,240
62,67,83760,240
49,54,84000,120
61,64,84000,120
49,59,84240,120
61,70,84240,120
49,53,84480,120
61,63,84480,120
49,53,84720,120
61,63,84720,120
49,66,84960,713
61,79,84960,713
49,63,85680,713
61,75,85680,713
49,66,86400,713
61,79,86400,713
66,66,87360,120
66,66,87600,120
66,70,87840,120
64,66,88080,120
63,66,88320,120
64,70,88560,120
63,66,88800,120
61,65,89040,120
63,70,89280,120
60,65,89520,120
56,65,89760,120
61,70,90000,180
54,64,90240,120
42,64,90240,120
54,64,90480,120
42,64,90480,120
42,70,90720,180
54,70,90720,180
52,66,90960,180
40,66,90960,180
51,66,91200,180
39,66,91200,180
40,70,91440,180
52,70,91440,180
51,65,91680,180
39,65,91680,180
49,65,91920,180
37,65,91920,180
39,70,92160,180
51,70,92160,180
48,66,92400,180
36,66,92400,180
44,66,92640,180
32,66,92640,180
37,58,92880,240
49,76,92880,240
51,68,93120,120
39,57,93120,120
52,68,93360,120
40,57,93360,120
42,61,93600,120
54,72,93600,120
54,57,93840,120
61,68,93840,120
57,57,93840,120
54,57,94080,120
61,68,94080,120
57,57,94080,120
54,61,94320,120
57,61,94320,120
60,72,94320,120
54,57,94560,120
60,68,94560,120
57,57,94560,120
54,57,94800,120
60,68,94800,120
57,57,94800,120
52,61,95040,120
61,72,95040,120
61,66,95280,120
54,55,95280,120
61,64,95520,120
56,54,95520,120
54,56,95760,120
61,66,95760,120
61,61,96000,120
56,51,96000,120
61,59,96240,120
57,50,96240,120
56,58,96480,717
64,61,96480,240
63,57,96720,240
61,57,96960,240
56,58,97200,470
63,61,97200,240
60,57,97440,240
56,57,97680,240
49,60,97920,480
61,71,97920,480
49,65,98880,120
37,55,98880,120
37,52,99120,120
49,62,99120,120
49,60,99360,480
61,71,99360,480
49,65,100320,120
37,55,100320,120
37,52,100560,120
49,62,100560,120
61,79,100800,480
49,67,100800,480
61,68,101280,180
49,57,101280,180
49,60,101520,180
61,71,101520,180
61,70,101760,180
49,59,101760,180
61,70,102000,180
49,59,102000,180
61,79,102240,480
49,67,102240,480
61,68,102720,180
49,57,102720,180
49,60,102960,180
61,71,102960,180
61,70,103200,180
49,59,103200,180
61,70,103440,180
49,59,103440,180
61,67,103680,480
56,67,103680,480
64,79,103680,480
52,67,103680,480
64,68,104160,180
52,57,104160,180
52,60,104400,180
64,71,104400,180
64,70,104640,180
52,59,104640,180
64,70,104880,180
52,59,104880,180
64,79,105120,480
52,67,105120,480
33,60,105840,180
45,71,105840,180
49,61,106200,90
57,73,106200,90
57,73,106320,180
49,61,106320,180
49,63,106560,240
57,73,106560,240
59,69,106800,240
52,57,106800,240
57,57,107040,120
61,69,107040,120
57,64,107280,480
61,75,107280,480
57,63,107760,180
61,73,107760,180
57,66,108000,240
61,78,108000,240
62,73,108240,240
59,63,108240,240
61,63,108480,120
64,73,108480,120
64,82,108720,360
61,70,108720,360
62,55,109080,108
66,65,109080,108
66,66,109200,180
62,55,109200,180
57,59,109440,360
69,71,109440,360
66,59,109440,360
69,59,109800,108
66,51,109800,108
69,59,109920,180
66,51,109920,180
69,67,110160,240
66,47,110160,240
68,63,110400,240
64,53,110400,240
62,42,110640,120
66,50,110640,120
57,46,110880,720
62,46,110880,720
66,55,110880,720
61,45,111600,240
64,54,111600,240
49,50,111960,108
57,59,111960,108
57,54,112080,180
49,45,112080,180
49,50,112320,240
57,59,112320,240
59,55,112560,240
52,46,112560,240
57,46,112800,120
61,55,112800,120
57,51,113040,480
61,60,113040,480
57,50,113520,180
61,59,113520,180
57,53,113760,240
61,63,113760,240
62,59,114000,240
59,50,114000,240
61,50,114240,120
64,59,114240,120
64,66,114480,240
61,56,114480,240
38,45,115200,240
50,45,115200,240
59,34,115440,228
57,27,115440,228
54,27,115440,228
50,27,115440,228
59,34,115680,228
57,27,115680,228
54,27,115680,228
50,27,115680,228
59,40,115920,228
57,32,115920,228
54,32,115920,228
50,32,115920,228
59,34,116160,228
57,27,116160,228
54,27,116160,228
50,27,116160,228
59,34,116400,228
57,27,116400,228
54,27,116400,228
50,27,116400,228
59,40,116640,1440
57,32,116640,1440
54,32,116640,1440
50,32,116640,1440
38,45,118080,240
50,45,118080,240
59,34,118320,228
57,27,118320,228
54,27,118320,228
50,27,118320,228
59,34,118560,228
57,27,118560,228
54,27,118560,228
50,27,118560,228
59,40,118800,228
57,32,118800,228
54,32,118800,228
50,32,118800,228
59,34,119040,228
57,27,119040,228
54,27,119040,228
50,27,119040,228
59,34,119280,228
57,27,119280,228
54,27,119280,228
50,27,119280,228
59,40,119520,1440
57,32,119520,1440
54,32,119520,1440
50,32,119520,1440
39,60,120960,456
51,71,120960,456
57,46,121440,180
59,55,121440,180
54,46,121440,180
51,46,121440,180
51,45,121680,456
57,45,121680,456
54,45,121680,456
59,64,121680,456
59,56,122160,120
57,47,122160,120
54,47,122160,120
51,47,122160,120
56,60,122400,480
52,60,122400,480
50,60,122400,456
59,71,122400,456
56,46,122880,180
59,55,122880,180
52,46,122880,180
50,46,122880,180
50,45,123120,456
56,45,123120,456
52,45,123120,456
59,64,123120,456
59,70,123600,120
56,58,123600,120
52,58,123600,120
50,58,123600,120
57,57,123840,456
52,57,123840,456
49,57,123840,456
61,68,123840,456
49,51,124320,120
52,51,124320,120
57,51,124320,120
61,62,124320,120
49,51,124560,480
52,51,124560,480
57,51,124560,480
61,62,124560,480
45,46,125280,120
38,46,125280,120
47,54,125280,120
38,40,125520,120
47,49,125520,120
45,40,125520,120
38,39,125760,120
45,39,125760,120
47,49,125760,120
45,45,126000,120
38,45,126000,120
47,53,126000,120
38,39,126240,120
47,48,126240,120
45,39,126240,120
38,38,126480,120
45,38,126480,120
47,47,126480,120
45,44,126720,120
38,44,126720,120
47,51,126720,120
38,36,126960,120
47,45,126960,120
45,36,126960,120
38,35,127200,120
45,35,127200,120
47,44,127200,120
45,41,127440,120
38,41,127440,120
47,47,127440,120
38,34,127680,120
47,42,127680,120
45,34,127680,120
38,33,127920,120
45,33,127920,120
47,41,127920,120
45,37,128160,120
40,37,128160,120
49,44,128160,120
45,31,128400,120
40,31,128400,120
49,38,128400,120
45,30,128640,120
40,30,128640,120
49,38,128640,120
40,34,128880,120
47,40,128880,120
40,29,129120,120
47,35,129120,120
38,28,129360,120
40,35,129360,120
37,28,129600,480
40,28,129600,480
45,28,129600,480
45,31,130560,120
33,26,130560,120
45,27,130800,120
33,22,130800,120
45,34,131040,480
38,28,131040,480
45,34,132000,120
33,28,132000,120
45,32,132240,120
33,27,132240,120
45,45,132480,480
38,38,132480,480
56,45,133440,120
49,38,133440,120
49,39,133680,120
56,47,133680,120
54,49,133920,480
57,59,133920,480
59,50,134880,120
52,42,134880,120
52,44,135120,120
59,52,135120,120
57,55,135360,480
61,66,135360,480
49,45,136320,120
57,52,136320,120
52,45,136320,120
49,46,136560,120
52,46,136560,120
57,55,136560,120
49,58,136800,480
52,58,136800,480
58,70,136800,480
49,47,137760,120
58,56,137760,120
52,47,137760,120
49,49,138000,120
52,49,138000,120
58,58,138000,120
50,60,138240,480
54,60,138240,480
59,73,138240,480
57,50,139200,120
50,50,139200,120
59,58,139200,120
54,50,139200,120
57,51,139440,120
50,51,139440,120
54,51,139440,120
59,61,139440,120
57,64,139680,480
51,64,139680,480
54,64,139680,480
60,77,139680,480
57,52,140640,120
51,52,140640,120
60,62,140640,120
54,52,140640,120
57,54,140880,120
51,54,140880,120
54,54,140880,120
60,64,140880,120
57,67,141120,480
52,67,141120,480
61,81,141120,480
49,61,142200,90
57,73,142200,90
57,73,142320,180
49,61,142320,180
49,63,142560,240
57,73,142560,240
59,69,142800,240
52,57,142800,240
57,57,143040,120
61,69,143040,120
57,64,143280,480
61,75,143280,480
57,63,143760,180
61,73,143760,180
57,66,144000,240
61,78,144000,240
62,73,144240,240
59,63,144240,240
61,63,144480,120
64,73,144480,120
61,66,144720,240
64,78,144720,240
62,73,144960,240
59,63,144960,240
57,63,145200,120
61,73,145200,120
52,66,145440,960
56,66,145440,960
59,78,145440,960
52,63,146400,120
59,73,146400,120
56,63,146400,120
52,63,146640,120
56,63,146640,120
59,73,146640,120
52,66,146880,480
56,66,146880,480
59,78,146880,480
28,75,147600,240
40,78,147600,240
49,61,147960,90
57,73,147960,90
57,73,148080,180
49,61,148080,180
49,63,148320,240
57,73,148320,240
59,69,148560,240
52,57,148560,240
57,57,148800,120
61,69,148800,120
57,64,149040,480
61,75,149040,480
57,63,149520,180
61,73,149520,180
57,66,149760,240
61,78,149760,240
62,73,150000,240
59,63,150000,240
61,63,150240,120
64,73,150240,120
61,66,150480,240
64,78,150480,240
62,73,150720,240
59,63,150720,240
57,63,150960,120
61,73,150960,120
52,66,151200,960
56,66,151200,960
59,78,151200,960
52,63,152160,120
59,73,152160,120
56,63,152160,120
52,63,152400,120
56,63,152400,120
59,73,152400,120
52,66,152640,480
56,66,152640,480
59,78,152640,480
33,75,153360,240
45,78,153360,240
49,61,153720,90
57,73,153720,90
57,73,153840,180
49,61,153840,180
49,63,154080,240
57,73,154080,240
59,69,154320,240
52,57,154320,240
57,57,154560,120
61,69,154560,120
57,64,154800,480
61,75,154800,480
57,63,155280,180
61,73,155280,180
57,66,155520,240
61,78,155520,240
62,73,155760,240
59,63,155760,240
61,63,156000,120
64,73,156000,120
61,78,156240,360
64,78,156240,360
62,68,156600,120
66,68,156600,120
62,64,156720,240
66,64,156720,240
69,61,156960,1440
66,51,156960,1440
57,51,156960,1440
66,56,158400,480
62,47,158400,480
57,47,158400,480
66,49,159360,228
62,41,159360,228
66,49,159600,228
62,41,159600,228
57,51,159840,1200
66,51,159840,1200
69,61,159840,1200
66,46,161040,240
62,39,161040,240
57,45,161280,720
66,45,161280,960
69,54,161280,960
64,39,162240,240
68,42,162240,240
66,41,162480,240
62,35,162480,240
57,31,162720,480
61,31,162720,480
64,37,162720,480
68,29,163440,720
74,40,163440,720
69,31,164160,480
73,37,164160,480
68,31,164880,720
62,31,164880,720
71,44,164880,720
61,31,165600,720
64,31,165600,720
69,37,165600,720
56,30,166320,720
62,42,166320,720
57,30,167040,720
61,35,167040,720
52,27,167760,240
62,38,167760,240
56,27,167767,240
45,29,168360,360
52,29,168420,300
61,34,168480,240
69,26,169440,180
73,36,169440,180
69,26,169680,180
73,26,169680,180
69,27,169920,480
73,33,169920,480
61,25,170880,180
69,35,170880,180
61,25,171120,180
69,25,171120,180
61,26,171360,480
69,32,171360,480
57,24,172320,180
61,34,172320,180
57,24,172560,180
61,24,172560,180
57,26,172800,480
61,31,172800,480
52,41,173520,480
59,48,173520,480
57,56,174240,240
49,51,174240,240
61,25,175500,420
64,25,175560,360
69,25,175560,300
73,39,175680,240
45,33,177120,120
33,28,177120,120
