note,velocity,position,duration
61,50,2400,456
57,40,2640,240
61,56,2880,960
56,37,3120,240
57,42,3360,240
54,34,3600,240
66,54,3840,456
61,39,4080,240
66,55,4320,960
60,45,4560,240
61,55,4800,240
57,46,5040,240
69,66,5280,480
66,55,5520,240
74,73,5760,960
68,56,6000,240
69,61,6240,240
66,56,6480,240
73,68,6720,480
69,49,6960,240
72,68,7200,950
68,50,7440,240
69,55,7680,240
66,45,7920,240
72,51,8160,480
69,33,8400,240
73,56,8640,960
68,43,8880,240
61,46,9120,240
63,42,9360,240
65,40,9600,240
71,50,9600,410
61,38,9840,240
71,43,10020,60
66,44,10080,240
69,55,10080,240
61,46,10320,240
65,50,10560,240
68,63,10560,240
61,54,10800,240
66,55,11040,240
69,69,11040,240
61,57,11280,240
66,55,11520,240
69,69,11520,480
73,76,11520,480
62,54,11760,240
68,48,12000,240
71,61,12000,480
62,49,12240,240
66,40,12480,240
69,50,12480,240
62,41,12720,240
66,44,12960,240
69,56,12960,480
61,45,13200,240
65,40,13440,240
68,50,13440,480
59,43,13680,240
61,50,13920,456
57,40,14160,240
61,56,14400,960
56,37,14640,240
57,42,14880,240
54,34,15120,240
66,54,15360,456
61,39,15600,240
66,55,15840,960
60,45,16080,240
61,55,16320,240
57,46,16560,240
69,66,16800,480
66,55,17040,240
74,73,17280,960
68,56,17520,240
69,61,17760,240
66,56,18000,240
73,68,18240,480
69,49,18480,240
72,68,18720,950
68,50,18960,240
69,55,19200,240
66,45,19440,240
72,51,19680,480
69,33,19920,240
73,56,20160,960
68,43,20400,240
61,46,20640,240
62,42,20880,240
64,40,21120,240
70,50,21120,240
61,38,21360,240
62,46,21600,240
71,56,21600,480
66,43,21840,240
64,46,22080,240
62,42,22320,240
61,40,22560,240
70,50,22560,480
64,38,22800,240
62,46,23040,240
71,56,23040,480
66,43,23280,240
69,50,23520,240
61,46,23520,240
64,42,23760,240
59,40,24000,240
68,50,24000,240
62,38,24240,240
57,46,24480,240
66,56,24480,480
61,43,24720,240
65,56,24960,480
56,46,24960,240
59,42,25200,240
61,40,25440,240
70,50,25440,480
64,38,25680,240
62,43,25920,240
71,56,25920,480
66,43,26160,240
64,46,26400,240
62,42,26640,240
61,40,26880,240
70,50,26880,480
64,38,27120,240
62,46,27360,240
71,56,27360,480
66,43,27600,240
64,46,27840,240
62,42,28080,240
61,40,28320,240
70,50,28320,480
64,38,28560,240
62,46,28800,240
71,56,28800,480
66,43,29040,240
69,50,29280,240
61,46,29280,240
64,42,29520,240
59,40,29760,240
68,50,29760,240
62,38,30000,240
57,46,30240,240
66,56,30240,480
61,43,30480,240
65,56,30720,480
56,46,30720,240
59,42,30960,240
61,40,31200,240
70,50,31200,480
64,38,31440,240
62,43,31680,240
71,56,31680,480
66,43,31920,240
64,46,32160,240
62,42,32400,240
70,40,32640,240
73,50,32640,480
66,38,32880,240
71,45,33120,240
74,56,33120,480
66,43,33360,240
72,48,33600,240
75,61,33600,480
66,48,33840,240
71,53,34080,240
76,66,34080,480
68,52,34320,240
75,58,34560,240
78,72,34560,480
69,57,34800,240
76,62,35040,240
79,78,35040,480
71,62,35280,240
76,67,35520,240
80,84,35520,480
71,66,35760,240
76,73,36000,240
81,91,36000,480
73,70,36240,240
76,75,36480,240
85,93,36480,480
73,71,36720,240
76,75,36960,240
83,93,36960,450
73,71,37200,240
76,75,37440,240
83,93,37440,480
73,71,37680,240
76,75,37920,240
82,93,37920,480
73,71,38160,240
74,75,38400,240
79,93,38400,450
71,63,38640,240
73,75,38880,240
79,93,38880,480
70,68,39120,240
73,71,39360,240
78,90,39360,480
70,65,39600,240
73,66,39840,240
76,83,39840,450
67,60,40080,240
73,61,40320,240
76,77,40320,480
66,56,40560,240
72,57,40800,240
75,71,40800,480
70,51,41040,240
71,52,41280,240
74,66,41280,450
65,47,41520,240
71,48,41760,240
74,60,41760,480
64,44,42000,240
69,44,42240,240
73,55,42240,480
68,39,42480,240
69,40,42720,240
72,50,42720,480
65,38,42960,240
68,40,43200,240
71,50,43200,480
64,38,43440,240
74,74,43680,480
71,62,43680,240
64,56,43920,240
72,62,44160,480
69,62,44160,240
64,38,44400,240
68,40,44640,240
71,50,44640,480
64,38,44880,240
76,74,45120,480
71,62,45120,240
64,56,45360,240
72,62,45600,480
69,62,45600,240
64,38,45840,240
68,40,46080,240
71,50,46080,480
64,38,46320,240
74,74,46560,480
71,62,46560,240
64,56,46800,240
72,62,47040,480
69,62,47040,240
64,38,47280,240
68,40,47520,240
71,50,47520,480
64,38,47760,240
76,74,48000,480
71,62,48000,240
64,56,48240,240
72,62,48480,480
69,62,48480,240
64,38,48720,240
68,40,48960,240
71,50,48960,240
64,38,49200,240
63,42,49440,240
64,38,49680,240
68,42,49920,240
64,38,50160,240
71,45,50400,240
68,45,50640,240
67,46,50880,240
68,49,51120,240
71,50,51360,240
68,52,51600,240
74,54,51840,240
71,54,52080,240
77,55,52320,240
74,56,52560,240
80,59,52800,240
77,63,53040,240
83,70,53280,240
80,62,53520,240
86,70,53760,240
83,59,54000,240
81,65,54240,240
80,61,54480,240
88,69,54720,240
86,63,54960,240
85,59,55200,240
83,58,55440,240
81,56,55680,240
80,49,55920,240
81,55,56160,240
78,53,56400,240
75,51,56640,240
71,51,56880,240
69,48,57120,240
66,46,57360,240
74,61,57600,240
68,61,57600,240
71,51,57840,240
68,48,58080,240
64,47,58320,240
62,46,58560,240
59,43,58800,240
67,49,59040,240
64,42,59280,240
61,45,59520,240
57,46,59760,240
56,48,60000,240
55,52,60240,240
54,54,60480,240
58,38,60720,240
59,45,60960,240
54,38,61200,240
61,43,61440,240
54,38,61680,240
62,50,61920,240
56,38,62160,240
52,43,62400,240
56,38,62640,240
50,45,62880,240
56,37,63120,240
49,45,63360,240
52,33,63600,240
57,33,63840,240
59,33,64080,240
61,33,64320,240
64,33,64560,240
61,36,64800,240
59,31,65040,240
57,33,65280,240
52,33,65520,720
64,50,65760,480
69,65,66240,1920
57,55,66240,1920
68,69,68160,480
56,58,68160,480
57,62,68640,480
69,74,68640,480
71,84,69120,1440
59,71,69120,1440
73,77,70560,1440
61,65,70560,1440
76,89,72000,480
73,89,72000,480
64,75,72000,480
74,76,72480,480
71,76,72480,480
62,63,72480,480
73,70,72960,480
69,70,72960,480
61,59,72960,480
71,82,73440,480
68,82,73440,480
59,70,73440,480
73,75,73920,480
61,62,73920,480
71,68,74400,480
59,57,74400,480
69,90,74880,960
57,77,74880,960
81,86,75840,480
69,73,75840,480
83,91,76320,960
71,77,76320,960
85,95,77280,480
73,80,77280,480
76,82,77760,480
85,97,77760,480
88,97,77760,480
74,75,78240,480
83,89,78240,480
86,89,78240,480
73,69,78720,480
81,82,78720,480
85,82,78720,480
71,80,79200,480
80,95,79200,480
83,95,79200,480
73,75,79680,480
85,89,79680,480
71,68,80160,480
83,80,80160,480
69,79,80640,480
81,93,80640,480
76,80,81120,480
80,80,81120,480
74,77,81600,480
78,77,81600,480
73,72,82080,480
76,72,82080,480
72,70,82560,480
75,70,82560,480
71,70,83040,480
74,70,83040,480
73,74,83520,240
69,65,83520,240
74,57,84000,180
69,50,84000,180
73,51,84480,180
69,45,84480,180
69,50,84960,180
66,50,84960,180
71,57,84960,180
68,65,85920,240
76,74,85920,240
69,67,86400,480
81,79,86400,480
76,57,86880,480
80,68,86880,480
74,55,87360,480
78,65,87360,480
73,51,87840,480
76,61,87840,480
72,50,88320,480
75,59,88320,480
71,50,88800,480
74,59,88800,480
73,47,89520,240
74,47,89760,240
76,47,90000,240
78,51,90240,240
74,47,90480,240
76,50,90720,240
78,47,90960,240
80,49,91200,240
76,47,91440,240
78,50,91680,240
80,47,91920,240
81,50,92160,240
85,51,92400,240
86,51,92640,240
88,50,92880,240
90,54,93120,240
86,48,93360,240
88,50,93600,240
90,47,93840,240
92,47,94080,240
88,45,94320,240
90,47,94560,240
92,44,94800,240
93,52,95040,240
88,52,95280,240
85,48,95520,240
81,48,95760,240
76,48,96000,240
73,48,96240,240
69,46,96480,240
64,45,96720,240
61,43,96960,240
57,42,97200,240
61,50,97440,456
57,40,97680,240
61,50,97920,960
56,37,98160,240
57,42,98400,240
54,34,98640,240
66,54,98880,456
61,39,99120,240
66,55,99360,960
60,45,99600,240
61,55,99840,240
57,46,100080,240
69,66,100320,480
66,55,100560,240
74,73,100800,960
68,56,101040,240
69,61,101280,240
66,56,101520,240
73,68,101760,480
69,49,102000,240
72,68,102240,950
68,50,102480,240
69,55,102720,240
66,45,102960,240
72,51,103200,480
69,33,103440,240
73,56,103680,960
68,43,103920,240
61,46,104160,240
63,42,104400,240
65,40,104640,240
71,50,104640,410
61,38,104880,240
71,43,105060,60
66,44,105120,240
69,55,105120,240
61,46,105360,240
65,50,105600,240
68,63,105600,240
61,54,105840,240
66,55,106080,240
69,69,106080,240
61,57,106320,240
66,55,106560,240
69,69,106560,480
73,76,106560,480
62,54,106800,240
68,48,107040,240
71,61,107040,480
62,49,107280,240
66,40,107520,240
69,50,107520,240
62,41,107760,240
66,44,108000,240
69,56,108000,480
61,45,108240,240
65,40,108480,240
68,50,108480,480
59,43,108720,240
61,50,108960,456
57,40,109200,240
61,56,109440,960
56,37,109680,240
57,42,109920,240
54,34,110160,240
66,54,110400,456
61,39,110640,240
66,55,110880,960
60,45,111120,240
61,55,111360,240
57,46,111600,240
69,66,111840,480
66,55,112080,240
74,73,112320,960
68,56,112560,240
69,61,112800,240
66,56,113040,240
73,68,113280,480
69,49,113520,240
72,68,113760,950
68,50,114000,240
69,55,114240,240
66,45,114480,240
72,51,114720,480
69,33,114960,240
73,56,115200,960
68,43,115440,240
61,46,115680,240
62,42,115920,240
64,40,116160,240
70,50,116160,240
61,38,116400,240
62,46,116640,240
71,56,116640,480
66,43,116880,240
64,46,117120,240
62,42,117360,240
61,40,117600,240
70,50,117600,480
64,38,117840,240
62,46,118080,240
71,56,118080,480
66,43,118320,240
69,50,118560,240
61,46,118560,240
64,42,118800,240
59,40,119040,240
68,50,119040,240
62,38,119280,240
57,46,119520,240
66,56,119520,480
61,43,119760,240
65,56,120000,480
56,46,120000,240
59,42,120240,240
61,40,120480,240
70,50,120480,480
64,38,120720,240
62,43,120960,240
71,56,120960,480
66,43,121200,240
64,46,121440,240
62,42,121680,240
61,40,121920,240
70,50,121920,480
64,38,122160,240
62,46,122400,240
71,56,122400,480
66,43,122640,240
64,46,122880,240
62,42,123120,240
61,40,123360,240
70,50,123360,480
64,38,123600,240
62,46,123840,240
71,56,123840,480
66,43,124080,240
69,50,124320,240
61,46,124320,240
64,42,124560,240
59,40,124800,240
68,50,124800,240
62,38,125040,240
57,46,125280,240
66,56,125280,480
61,43,125520,240
65,56,125760,480
56,46,125760,240
59,42,126000,240
61,40,126240,240
70,50,126240,480
64,38,126480,240
62,43,126720,240
71,56,126720,480
66,43,126960,240
64,46,127200,240
62,42,127440,240
70,40,127680,240
73,50,127680,480
66,38,127920,240
71,45,128160,240
74,56,128160,480
66,43,128400,240
72,48,128640,240
75,61,128640,480
66,48,128880,240
71,53,129120,240
76,66,129120,480
68,52,129360,240
75,58,129600,240
78,72,129600,480
69,57,129840,240
76,62,130080,240
79,78,130080,480
71,62,130320,240
76,67,130560,240
80,84,130560,480
71,66,130800,240
76,73,131040,240
81,91,131040,480
73,70,131280,240
76,75,131520,240
85,93,131520,480
73,71,131760,240
76,75,132000,240
83,93,132000,450
73,71,132240,240
76,75,132480,240
83,93,132480,480
73,71,132720,240
76,75,132960,240
82,93,132960,480
73,71,133200,240
74,75,133440,240
79,93,133440,450
71,63,133680,240
73,75,133920,240
79,93,133920,480
70,68,134160,240
73,71,134400,240
78,90,134400,480
70,65,134640,240
73,66,134880,240
76,83,134880,450
67,60,135120,240
73,61,135360,240
76,77,135360,480
66,56,135600,240
72,57,135840,240
75,71,135840,480
70,51,136080,240
71,52,136320,240
74,66,136320,450
65,47,136560,240
71,48,136800,240
74,60,136800,480
64,44,137040,240
69,44,137280,240
73,55,137280,480
68,39,137520,240
69,40,137760,240
72,50,137760,480
65,38,138000,240
68,40,138240,240
71,50,138240,480
64,38,138480,240
74,74,138720,480
71,62,138720,240
64,56,138960,240
72,62,139200,480
69,62,139200,240
64,38,139440,240
68,40,139680,240
71,50,139680,480
64,38,139920,240
76,74,140160,480
71,62,140160,240
64,56,140400,240
72,62,140640,480
69,62,140640,240
64,38,140880,240
68,40,141120,240
71,50,141120,480
64,38,141360,240
74,74,141600,480
71,62,141600,240
64,56,141840,240
72,62,142080,480
69,62,142080,240
64,38,142320,240
68,40,142560,240
71,50,142560,480
64,38,142800,240
76,74,143040,480
71,62,143040,240
64,56,143280,240
72,62,143520,480
69,62,143520,240
64,38,143760,240
68,40,144000,240
71,50,144000,240
64,38,144240,240
63,42,144480,240
64,38,144720,240
68,42,144960,240
64,38,145200,240
71,45,145440,240
68,45,145680,240
67,46,145920,240
68,49,146160,240
71,50,146400,240
68,52,146640,240
74,54,146880,240
71,54,147120,240
77,55,147360,240
74,56,147600,240
80,59,147840,240
77,63,148080,240
83,70,148320,240
80,62,148560,240
86,70,148800,240
83,59,149040,240
81,65,149280,240
80,61,149520,240
88,69,149760,240
86,63,150000,240
85,59,150240,240
83,58,150480,240
81,56,150720,240
80,49,150960,240
81,55,151200,240
78,53,151440,240
75,51,151680,240
71,51,151920,240
69,48,152160,240
66,46,152400,240
74,61,152640,240
68,61,152640,240
71,51,152880,240
68,48,153120,240
64,47,153360,240
62,46,153600,240
59,43,153840,240
67,49,154080,240
64,42,154320,240
61,45,154560,240
57,46,154800,240
56,48,155040,240
55,52,155280,240
54,54,155520,240
58,38,155760,240
59,45,156000,240
54,38,156240,240
61,43,156480,240
54,38,156720,240
62,50,156960,240
56,38,157200,240
52,43,157440,240
56,38,157680,240
50,45,157920,240
56,37,158160,240
49,45,158400,240
52,33,158640,240
57,33,158880,240
59,33,159120,240
61,33,159360,240
64,33,159600,240
61,36,159840,240
59,31,160080,240
57,33,160320,240
52,33,160560,720
64,50,160800,480
69,65,161280,1920
57,55,161280,1920
68,69,163200,480
56,58,163200,480
57,62,163680,480
69,74,163680,480
71,84,164160,1440
59,71,164160,1440
73,77,165600,1440
61,65,165600,1440
76,89,167040,480
73,89,167040,480
64,75,167040,480
74,76,167520,480
71,76,167520,480
62,63,167520,480
73,70,168000,480
69,70,168000,480
61,59,168000,480
71,82,168480,480
68,82,168480,480
59,70,168480,480
73,75,168960,480
61,62,168960,480
71,68,169440,480
59,57,169440,480
69,90,169920,960
57,77,169920,960
81,86,170880,480
69,73,170880,480
83,91,171360,960
71,77,171360,960
85,95,172320,480
73,80,172320,480
76,82,172800,480
85,97,172800,480
88,97,172800,480
74,75,173280,480
83,89,173280,480
86,89,173280,480
73,69,173760,480
81,82,173760,480
85,82,173760,480
71,80,174240,480
80,95,174240,480
83,95,174240,480
73,75,174720,480
85,89,174720,480
71,68,175200,480
83,80,175200,480
69,79,175680,480
81,93,175680,480
76,80,176160,480
80,80,176160,480
74,77,176640,480
78,77,176640,480
73,72,177120,480
76,72,177120,480
72,70,177600,480
75,70,177600,480
71,70,178080,480
74,70,178080,480
73,74,178560,240
69,65,178560,240
74,57,179040,180
69,50,179040,180
73,51,179520,180
69,45,179520,180
69,50,180000,180
66,50,180000,180
71,57,180000,180
68,65,180960,240
76,74,180960,240
69,67,181440,480
81,79,181440,480
76,57,181920,480
80,68,181920,480
74,55,182400,480
78,65,182400,480
73,51,182880,480
76,61,182880,480
72,50,183360,480
75,59,183360,480
71,50,183840,480
74,59,183840,480
73,47,184560,240
74,47,184800,240
76,47,185040,240
78,51,185280,240
74,47,185520,240
76,50,185760,240
78,47,186000,240
80,49,186240,240
76,47,186480,240
78,50,186720,240
80,47,186960,240
81,50,187200,240
85,51,187440,240
86,51,187680,240
88,50,187920,240
90,54,188160,240
86,48,188400,240
88,50,188640,240
90,47,188880,240
92,47,189120,240
88,45,189360,240
90,47,189600,240
92,44,189840,240
93,52,190080,240
88,52,190320,240
85,48,190560,240
81,48,190800,240
76,48,191040,240
73,48,191280,240
69,46,191520,240
64,45,191760,240
61,43,192000,240
57,42,192240,240
52,56,192960,960
47,37,193200,240
48,42,193440,240
45,34,193680,240
57,54,193920,456
52,39,194160,240
57,55,194400,960
51,45,194640,240
52,55,194880,240
48,46,195120,240
60,66,195360,480
57,55,195600,240
65,73,195840,960
59,56,196080,240
60,61,196320,240
57,56,196560,240
64,68,196800,480
60,49,197040,240
63,68,197280,950
59,50,197520,240
60,55,197760,240
57,45,198000,240
63,51,198240,480
60,33,198480,240
64,45,198720,480
52,39,199440,240
59,40,199680,240
63,42,199920,240
64,44,200160,480
64,43,200880,240
71,48,201120,240
75,50,201360,240
76,52,201600,480
88,58,202320,240
85,57,202560,240
82,55,202800,240
79,54,203040,240
76,54,203280,240
73,54,203520,240
70,53,203760,240
66,50,204000,240
62,46,204240,240
66,56,204480,960
61,37,204720,240
62,42,204960,240
59,34,205200,240
71,54,205440,456
66,39,205680,240
71,55,205920,960
65,45,206160,240
66,55,206400,240
62,46,206640,240
74,66,206880,480
71,55,207120,240
79,73,207360,960
73,56,207600,240
74,61,207840,240
71,56,208080,240
78,68,208320,480
74,49,208560,240
77,68,208800,950
73,50,209040,240
74,55,209280,240
71,45,209520,240
77,51,209760,480
74,33,210000,240
73,45,210240,480
78,45,210240,480
66,39,210960,240
73,40,211200,240
77,42,211440,240
78,44,211680,480
78,43,212400,240
85,48,212640,240
89,50,212880,240
90,52,213120,480
87,58,213840,240
84,57,214080,240
81,55,214320,240
78,54,214560,240
75,54,214800,240
72,54,215040,240
69,53,215280,240
66,50,215520,240
63,46,215760,240
61,45,216000,480
61,42,216720,240
68,44,216960,240
71,46,217200,240
70,49,217440,480
73,49,218160,240
78,55,218400,240
82,57,218640,240
85,67,218880,240
83,58,219120,240
59,46,219600,240
66,47,219840,240
69,50,220080,240
68,52,220320,480
71,52,221040,240
76,59,221280,240
80,62,221520,240
83,70,221760,240
81,62,222000,240
57,49,222480,240
64,51,222720,240
68,53,222960,240
67,56,223200,480
70,56,223920,240
75,63,224160,240
79,66,224400,240
81,73,224640,240
80,67,224880,240
56,53,225360,240
63,54,225600,240
66,57,225840,240
65,60,226080,480
71,60,226800,240
73,67,227040,240
77,70,227280,240
80,77,227520,240
78,71,227760,240
66,56,228240,240
71,58,228480,240
76,61,228720,240
74,64,228960,480
69,64,229680,240
68,71,229920,240
73,75,230160,240
80,79,230400,240
78,76,230640,240
66,59,231120,240
71,61,231360,240
76,64,231600,240
74,68,231840,480
69,67,232560,240
68,75,232800,240
73,79,233040,240
71,90,233280,480
59,62,234000,240
64,64,234240,240
70,67,234480,240
71,70,234720,480
59,68,235440,240
64,76,235680,240
70,80,235920,240
71,90,236160,240
59,62,236400,240
64,66,236640,240
70,72,236880,240
71,84,237120,240
59,72,237360,240
64,75,237600,240
70,82,237840,240
71,89,238080,240
59,77,238320,240
64,81,238560,240
70,88,238800,240
66,81,239040,240
72,103,239040,1440
65,67,239280,240
66,71,239520,240
68,72,239760,240
69,78,240000,240
68,72,240240,240
66,81,240480,240
73,103,240480,480
65,70,240720,240
66,72,240960,240
68,74,241200,240
69,76,241440,240
68,72,241680,240
66,81,241920,240
72,103,241920,1440
65,67,242160,240
66,71,242400,240
68,72,242640,240
69,78,242880,240
68,72,243120,240
66,81,243360,240
73,103,243360,480
65,70,243600,240
66,72,243840,240
68,74,244080,240
69,76,244320,240
68,72,244560,240
66,81,244800,240
72,103,244800,2880
65,67,245040,240
66,71,245280,240
68,72,245520,240
69,78,245760,240
68,72,246000,240
66,52,246240,240
65,53,246480,240
66,54,246720,240
67,55,246960,240
69,61,247200,240
66,54,247440,240
71,62,247680,1440
69,58,247680,240
67,47,247920,240
66,47,248160,240
67,47,248400,240
69,54,248640,240
67,47,248880,240
74,60,249120,1440
68,56,249120,240
66,45,249360,240
68,45,249600,240
69,45,249840,240
71,52,250080,240
68,45,250320,240
73,57,250560,1440
71,53,250560,240
69,43,250800,240
68,44,251040,240
69,44,251280,240
71,49,251520,240
69,44,251760,240
76,55,252000,1440
70,51,252000,240
68,42,252240,240
70,42,252480,240
71,41,252720,240
73,47,252960,240
70,42,253200,240
74,52,253440,1440
73,49,253440,240
71,40,253680,240
70,40,253920,240
71,40,254160,240
73,46,254400,240
71,41,254640,240
73,52,254880,1440
71,49,254880,240
69,40,255120,240
68,40,255360,240
69,40,255600,240
71,46,255840,240
69,41,256080,240
72,52,256320,1440
69,49,256320,240
68,40,256560,240
67,40,256800,240
68,40,257040,240
69,46,257280,240
68,41,257520,240
71,52,257760,1440
69,49,257760,240
68,40,258000,240
66,40,258240,240
68,40,258480,240
69,46,258720,240
68,41,258960,240
70,52,259200,1440
68,49,259200,240
66,40,259440,240
65,40,259680,240
66,40,259920,240
68,46,260160,240
66,41,260400,240
69,52,260640,1440
68,49,260640,240
66,40,260880,240
65,40,261120,240
66,40,261360,240
68,46,261600,240
66,41,261840,240
65,55,262080,240
61,45,262320,240
56,49,262560,240
61,47,262800,240
65,49,263040,240
68,49,263280,240
65,57,263520,240
61,45,263760,240
56,49,264000,240
61,47,264240,240
65,46,264480,240
68,43,264720,240
66,55,264960,240
61,45,265200,240
57,49,265440,240
61,47,265680,240
66,49,265920,240
69,49,266160,240
66,57,266400,240
63,45,266640,240
60,49,266880,240
63,47,267120,240
66,46,267360,240
69,43,267600,240
68,55,267840,240
65,45,268080,240
61,49,268320,240
65,47,268560,240
68,49,268800,240
73,49,269040,240
68,57,269280,240
65,45,269520,240
61,49,269760,240
65,47,270000,240
68,46,270240,240
73,43,270480,240
69,55,270720,240
66,45,270960,240
61,49,271200,240
66,47,271440,240
69,49,271680,240
73,49,271920,240
69,57,272160,240
66,45,272400,240
63,49,272640,240
66,47,272880,240
69,46,273120,240
72,43,273360,240
73,55,273600,240
68,45,273840,240
65,49,274080,240
68,47,274320,240
73,49,274560,240
77,49,274800,240
80,55,275040,240
77,45,275280,240
83,55,275520,240
80,53,275760,240
78,49,276000,240
77,49,276240,240
85,69,276480,240
83,63,276720,240
82,59,276960,240
80,58,277200,240
78,56,277440,240
77,49,277680,240
78,55,277920,240
75,53,278160,240
72,51,278400,240
68,51,278640,240
66,48,278880,240
63,46,279120,240
71,61,279360,240
65,61,279360,240
68,51,279600,240
65,48,279840,240
61,47,280080,240
60,46,280320,240
59,43,280560,240
58,49,280800,240
61,42,281040,240
64,45,281280,240
76,46,281520,240
73,48,281760,240
70,52,282000,240
67,54,282240,240
63,38,282457,240
68,45,282720,240
63,38,282960,240
70,43,283200,240
63,38,283440,240
71,50,283680,240
65,38,283920,240
61,43,284160,240
65,38,284400,240
59,45,284640,240
65,37,284880,240
58,45,285120,240
61,33,285360,240
66,33,285600,240
70,33,285854,240
66,33,286080,240
61,33,286320,240
58,36,286560,240
56,31,286800,240
61,59,287520,960
66,64,288000,1920
63,55,288480,480
61,55,288960,480
60,58,289440,1440
65,62,289920,480
66,70,290400,480
59,58,290880,1440
68,72,290880,1440
65,60,290880,1440
58,54,292320,1440
64,54,292320,1440
70,54,292320,1440
70,62,293760,480
63,62,293760,1440
73,73,293760,480
68,52,294240,480
71,62,294240,480
66,45,294720,480
70,54,294720,480
65,66,295200,1440
68,66,295200,480
70,49,295680,480
68,41,296160,480
66,50,296640,480
78,58,297600,480
66,49,297600,480
68,58,298080,960
77,58,298080,960
80,69,298080,960
70,62,299040,470
76,62,299040,470
82,73,299040,470
85,89,299520,480
82,75,299520,480
73,75,299520,480
83,76,300000,480
80,64,300000,480
71,63,300000,480
82,70,300480,480
78,70,300480,480
77,82,300960,1440
80,82,300960,480
82,75,301440,480
80,68,301920,480
78,90,302400,480
66,73,303360,480
78,86,303360,480
70,73,303360,480
68,77,303840,960
80,91,303840,960
71,77,303840,960
70,80,304800,480
82,95,304800,480
73,80,304800,480
73,82,305280,480
78,97,305280,480
85,97,305280,480
71,75,305760,480
83,89,305760,480
70,69,306240,470
82,82,306240,470
70,76,306720,480
75,90,306720,480
82,90,306720,480
68,69,307200,480
80,81,307200,480
78,71,307680,470
66,60,307680,470
66,69,308160,480
78,82,308160,480
77,72,308640,480
65,61,308640,480
63,54,309120,470
75,64,309120,470
73,71,309600,432
61,60,309600,432
61,56,310080,432
73,66,310080,432
73,60,310560,470
61,51,310560,470
73,62,311040,480
61,52,311040,480
70,52,311040,480
68,48,311520,480
71,57,311520,480
66,39,312000,480
70,46,312000,480
73,56,312480,480
63,47,312480,1440
71,49,312960,480
68,41,313440,480
66,51,313920,1440
61,43,314160,240
60,43,314400,240
61,40,314640,240
63,43,314880,240
61,40,315120,240
65,49,315360,1440
66,67,316800,480
78,79,316800,480
73,68,317280,480
77,68,317280,480
71,65,317760,480
75,65,317760,480
70,61,318240,480
73,61,318240,480
69,59,318720,480
72,59,318720,480
68,59,319200,480
71,59,319200,480
70,62,319680,240
66,55,319680,240
71,57,320160,180
66,50,320160,180
70,51,320640,180
66,45,320640,180
66,50,321120,180
63,50,321120,180
68,57,321120,180
65,66,322080,240
66,60,322560,480
78,71,322560,480
73,51,323040,480
77,61,323040,480
71,49,323520,480
75,58,323520,480
70,45,324000,480
73,54,324000,480
69,45,324480,480
72,53,324480,480
68,45,324960,480
71,53,324960,480
70,50,325440,240
65,47,325680,240
66,47,325920,240
68,47,326160,240
70,51,326400,240
71,47,326640,240
73,50,326880,240
72,47,327120,240
73,49,327360,240
75,47,327600,240
76,50,327840,240
77,47,328080,240
78,50,328320,240
77,50,328560,240
78,49,328800,240
80,48,329040,240
82,51,329280,240
83,45,329520,240
85,46,329760,240
84,43,330000,240
85,42,330240,240
87,40,330480,240
88,41,330720,240
89,38,330960,240
90,44,331200,240
85,44,331440,240
82,40,331680,240
80,37,331920,240
82,40,332160,240
78,36,332400,240
85,45,332640,240
82,36,332880,240
78,40,333120,240
77,36,333360,240
78,40,333600,240
73,36,333840,240
82,45,334080,240
78,36,334320,240
73,40,334560,240
71,36,334800,240
73,40,335040,240
70,36,335280,240
78,45,335520,240
73,36,335760,240
70,40,336000,240
68,36,336240,240
70,40,336480,240
66,36,336720,240
73,45,336960,240
70,37,337200,240
66,37,337440,240
61,37,337680,240
70,39,338640,240
73,42,338880,240
78,40,339120,240
82,43,339360,240
85,39,339600,240
90,45,339840,240
58,26,341280,480
66,26,341280,480
70,31,341280,480
78,38,342720,480
70,32,342720,480
30,40,2880,960
42,48,2880,960
42,40,4320,960
54,48,4320,960
62,60,5760,960
57,50,5760,2160
54,50,5760,2160
61,48,6720,480
60,54,7200,960
57,39,8160,480
54,33,8160,480
53,40,8640,480
56,48,8640,480
49,38,9600,480
37,32,9600,480
42,40,10080,480
54,48,10080,480
35,40,11520,480
47,48,11520,480
49,41,12960,480
37,34,12960,480
30,40,14400,960
42,48,14400,960
42,40,15840,960
54,48,15840,960
62,55,17280,960
57,46,17280,2160
54,46,17280,2160
61,48,18240,480
60,54,18720,960
57,39,19680,480
54,33,19680,480
53,40,20160,480
56,48,20160,480
54,38,21120,960
42,32,21120,480
47,40,21600,480
54,38,22560,480
42,32,22560,480
47,48,23040,1440
49,40,24480,960
54,38,25440,960
42,32,25440,480
47,40,25920,480
54,38,26880,960
42,32,26880,480
47,40,27360,480
54,38,28320,480
42,32,28320,480
47,48,28800,1440
49,40,30240,960
54,38,31200,960
42,32,31200,480
47,40,31680,480
61,38,32640,480
59,42,33120,480
57,46,33600,480
56,50,34080,480
54,54,34560,480
52,63,35040,480
50,72,35520,480
49,84,36000,480
45,82,36480,480
43,82,36960,480
42,86,37440,2400
46,72,39840,480
47,70,40320,960
44,57,41280,480
45,55,41760,960
39,44,42720,480
40,47,43200,480
52,69,43680,480
44,58,43680,480
45,53,44160,480
40,54,44640,480
52,69,45120,480
44,58,45120,480
45,53,45600,480
40,54,46080,480
52,69,46560,480
44,58,46560,480
45,53,47040,480
40,54,47520,480
52,69,48000,480
44,58,48000,480
45,53,48480,480
40,54,48960,480
40,54,54240,480
45,64,54720,1920
37,64,54720,960
42,58,56160,960
44,62,56640,480
45,70,57120,480
47,72,57600,1440
40,72,57600,960
45,54,59040,960
49,54,59040,1440
38,73,60480,960
52,73,60480,480
50,62,60960,480
49,54,61440,480
40,66,61920,960
47,66,61920,480
49,49,62400,480
47,41,62880,480
45,50,63360,2400
49,36,65760,240
45,36,66000,240
42,48,66240,240
45,36,66480,240
47,36,66720,240
49,36,66960,240
47,37,67200,240
45,37,67440,240
51,47,67680,240
42,37,67920,240
44,51,68160,240
45,45,68400,240
44,56,68640,240
42,50,68880,240
40,65,69120,240
50,38,69360,240
52,52,69600,240
54,39,69840,240
52,51,70080,240
50,47,70320,240
55,67,70560,240
45,67,70560,240
52,49,70800,240
49,54,71040,240
47,47,71280,240
43,57,71520,240
40,53,71760,240
38,72,72000,240
42,51,72240,240
44,58,72480,240
45,48,72720,240
47,55,72960,240
49,47,73200,240
50,64,73440,240
40,64,73440,240
49,49,73680,240
50,55,73920,240
47,48,74160,240
52,54,74400,240
50,41,74640,240
49,60,74880,240
45,60,74880,240
52,54,75120,240
50,54,75360,240
49,54,75600,240
47,54,75840,240
45,51,76080,240
44,55,76320,240
45,55,76560,240
43,57,76800,240
45,60,77040,240
42,61,77280,240
46,65,77520,240
38,75,77760,240
42,53,78000,240
44,62,78240,240
45,50,78480,240
47,65,78720,240
49,49,78960,240
50,73,79200,240
40,51,79440,240
52,64,79680,240
40,50,79920,240
50,56,80160,240
40,43,80400,240
45,63,80640,1680
49,48,80880,240
50,50,81120,240
52,46,81360,240
54,47,81600,240
50,45,81840,240
52,45,82080,240
54,41,82320,240
56,43,82560,240
52,41,82800,240
54,42,83040,240
56,37,83280,240
57,42,83520,240
66,38,84000,180
64,32,84480,180
63,38,84960,180
62,38,85920,240
57,63,86400,1680
61,48,86640,240
62,50,86880,240
64,46,87120,240
66,47,87360,240
62,45,87600,240
64,45,87840,240
66,41,88080,240
68,43,88320,240
64,41,88560,240
66,42,88800,240
68,37,89040,240
69,56,89280,1680
64,54,89760,480
68,64,89760,480
62,51,90240,480
66,61,90240,480
61,48,90720,480
64,57,90720,480
60,47,91200,480
63,56,91200,480
59,47,91680,480
62,56,91680,480
57,47,92160,480
61,56,92160,480
52,48,92640,480
56,57,92640,480
50,44,93120,480
54,53,93120,480
49,40,93600,480
52,48,93600,480
48,39,94080,480
51,46,94080,480
47,37,94560,480
50,44,94560,480
45,39,95040,1440
49,43,95040,1440
30,40,97920,960
42,48,97920,960
42,40,99360,960
54,48,99360,960
62,60,100800,960
57,50,100800,2160
54,50,100800,2160
61,48,101760,480
60,54,102240,960
57,39,103200,480
54,33,103200,480
53,40,103680,480
56,48,103680,480
49,38,104640,480
37,32,104640,480
42,40,105120,480
54,48,105120,480
35,40,106560,480
47,48,106560,480
49,41,108000,480
37,34,108000,480
30,40,109440,960
42,48,109440,960
42,40,110880,960
54,48,110880,960
62,55,112320,960
57,46,112320,2160
54,46,112320,2160
61,48,113280,480
60,54,113760,960
57,39,114720,480
54,33,114720,480
53,40,115200,480
56,48,115200,480
54,38,116160,960
42,32,116160,480
47,40,116640,480
54,38,117600,480
42,32,117600,480
47,48,118080,1440
49,40,119520,960
54,38,120480,960
42,32,120480,480
47,40,120960,480
54,38,121920,960
42,32,121920,480
47,40,122400,480
54,38,123360,480
42,32,123360,480
47,48,123840,1440
49,40,125280,960
54,38,126240,960
42,32,126240,480
47,40,126720,480
61,38,127680,480
59,42,128160,480
57,46,128640,480
56,50,129120,480
54,54,129600,480
52,63,130080,480
50,72,130560,480
49,84,131040,480
45,82,131520,480
43,82,132000,480
42,86,132480,2400
46,72,134880,480
47,70,135360,960
44,57,136320,480
45,55,136800,960
39,44,137760,480
40,47,138240,480
52,69,138720,480
44,58,138720,480
45,53,139200,480
40,54,139680,480
52,69,140160,480
44,58,140160,480
45,53,140640,480
40,54,141120,480
52,69,141600,480
44,58,141600,480
45,53,142080,480
40,54,142560,480
52,69,143040,480
44,58,143040,480
45,53,143520,480
40,54,144000,480
40,54,149280,480
37,64,149760,960
45,64,149760,1920
42,58,151200,960
44,62,151680,480
45,70,152160,480
47,72,152640,1440
40,72,152640,960
45,54,154080,960
49,54,154080,1440
52,73,155520,480
38,73,155520,960
50,62,156000,480
49,54,156480,480
47,66,156960,480
40,66,156960,960
49,49,157440,480
47,41,157920,480
45,50,158400,2400
49,36,160800,240
45,36,161040,240
42,48,161280,240
45,36,161520,240
47,36,161760,240
49,36,162000,240
47,37,162240,240
45,37,162480,240
51,47,162720,240
42,37,162960,240
44,51,163200,240
45,45,163440,240
44,56,163680,240
42,50,163920,240
40,65,164160,240
50,38,164400,240
52,52,164640,240
54,39,164880,240
52,51,165120,240
50,47,165360,240
55,67,165600,240
45,67,165600,240
52,49,165840,240
49,62,166080,240
47,56,166320,240
43,65,166560,240
40,62,166800,240
38,72,167040,240
42,51,167280,240
44,58,167520,240
45,48,167760,240
47,55,168000,240
49,47,168240,240
50,64,168480,240
40,64,168480,240
49,49,168720,240
50,55,168960,240
47,48,169200,240
52,54,169440,240
50,41,169680,240
49,60,169920,240
45,60,169920,240
52,54,170160,240
50,54,170400,240
49,54,170640,240
47,54,170880,240
45,51,171120,240
44,55,171360,240
45,55,171600,240
43,57,171840,240
45,60,172080,240
42,61,172320,240
46,65,172560,240
38,75,172800,240
42,53,173040,240
44,66,173280,240
45,50,173520,240
47,63,173760,240
49,49,174000,240
50,67,174240,240
40,51,174480,240
52,57,174720,240
40,50,174960,240
50,56,175200,240
40,43,175440,240
45,63,175680,1680
49,48,175920,240
50,50,176160,240
52,46,176400,240
54,47,176640,240
50,45,176880,240
52,45,177120,240
54,41,177360,240
56,43,177600,240
52,41,177840,240
54,42,178080,240
56,37,178320,240
57,42,178560,240
66,38,179040,180
64,32,179520,180
63,38,180000,180
62,38,180960,240
57,63,181440,1680
61,48,181680,240
62,50,181920,240
64,46,182160,240
66,47,182400,240
62,45,182640,240
64,45,182880,240
66,41,183120,240
68,43,183360,240
64,41,183600,240
66,42,183840,240
68,37,184080,240
69,56,184320,1680
64,54,184800,480
68,64,184800,480
66,61,185280,480
62,51,185280,480
61,48,185760,480
64,57,185760,480
60,47,186240,480
63,56,186240,480
59,47,186720,480
62,56,186720,480
57,47,187200,480
61,56,187200,480
56,57,187680,480
52,48,187680,480
50,44,188160,480
54,53,188160,480
52,48,188640,480
49,40,188640,480
48,39,189120,480
51,46,189120,480
47,37,189600,480
50,44,189600,480
45,39,190080,1440
49,43,190080,1440
52,50,192480,240
48,42,192720,240
33,48,192960,960
33,40,194400,960
45,48,194400,960
53,60,195840,960
48,50,195840,2160
45,50,195840,2160
52,48,196800,480
51,54,197280,960
48,39,198240,480
45,33,198240,480
32,35,198960,240
47,42,199200,240
43,36,200400,240
59,39,200640,240
54,36,201840,240
67,39,202080,240
35,44,204480,960
47,48,204480,960
47,40,205920,960
59,48,205920,960
67,60,207360,960
62,50,207360,2160
59,50,207360,2160
66,48,208320,480
65,54,208800,960
62,39,209760,480
59,33,209760,480
46,35,210480,240
61,42,210720,240
57,36,211920,240
73,39,212160,240
68,36,213360,240
81,39,213600,240
41,35,216240,240
56,42,216480,240
52,40,217680,240
66,44,217920,240
39,40,219120,240
54,49,219360,240
50,43,220560,240
64,47,220800,240
37,43,222000,240
52,52,222240,240
49,46,223440,240
63,51,223680,240
36,46,224880,240
51,56,225120,240
47,49,226320,240
61,54,226560,240
57,50,227760,240
61,60,228000,240
56,59,228480,480
54,52,229200,240
61,57,229440,240
53,61,229920,480
57,53,230640,240
61,63,230880,240
56,63,231360,480
54,56,232080,240
61,61,232320,240
53,64,232800,480
50,56,233520,240
54,67,233760,240
49,65,234240,480
55,65,234240,480
50,57,234960,240
54,62,235200,240
49,65,235680,480
55,65,235680,480
54,56,236160,240
50,56,236160,240
49,66,236640,480
55,66,236640,480
50,58,237120,240
54,58,237120,240
49,69,237600,480
55,69,237600,480
50,61,238080,240
54,61,238080,240
49,72,238560,480
55,72,238560,480
50,74,239040,1440
54,74,239040,1920
49,74,240480,480
57,74,240480,480
50,74,241920,1440
54,74,241920,1920
49,74,243360,480
57,74,243360,480
62,74,244800,2880
55,40,247680,1440
52,38,249120,1440
45,37,250560,1440
42,35,252000,1440
35,34,253440,1440
37,34,254880,1440
39,34,256320,1440
41,34,257760,1440
42,34,259200,1440
36,34,260640,1440
37,63,262080,1440
41,60,263520,480
44,56,264000,480
47,51,264480,410
47,56,264900,60
37,69,264960,1440
45,69,264960,480
44,64,265440,480
42,54,265920,480
45,64,266400,480
44,59,266880,480
42,59,267360,480
37,59,267840,960
49,63,267840,1440
50,60,269280,480
49,56,269760,480
47,51,270240,410
47,56,270660,60
45,69,270720,480
44,64,271200,480
42,54,271680,480
45,64,272160,480
44,59,272640,480
42,59,273120,480
37,59,273600,1920
44,63,273600,1920
49,59,276000,480
54,64,276480,1920
46,64,276480,960
51,58,277920,960
53,62,278400,480
54,70,278880,480
56,72,279360,1440
49,72,279360,960
54,54,280800,960
58,54,280800,1440
47,73,282240,960
61,73,282240,480
59,62,282720,480
58,54,283200,480
49,66,283680,960
56,66,283680,480
58,49,284160,480
56,41,284640,480
54,50,285120,2160
54,34,287040,240
49,31,287280,240
46,31,287520,240
42,26,287760,240
39,42,288000,240
51,31,288240,240
54,37,288480,240
58,31,288720,240
54,37,288960,240
51,31,289200,240
39,40,289440,240
51,31,289680,240
54,49,289920,240
56,39,290160,240
54,50,290400,240
51,47,290640,240
37,61,290880,240
51,45,291120,240
49,44,291360,240
47,38,291600,240
46,50,291840,240
44,31,292080,240
42,49,292320,240
49,31,292560,240
52,39,292800,240
54,31,293040,240
52,38,293280,240
49,31,293520,240
47,52,293760,240
51,31,294000,240
56,45,294240,240
51,31,294480,240
58,46,294720,240
51,33,294960,240
59,55,295200,240
49,48,295440,240
61,43,295680,240
49,37,295920,240
59,45,296160,240
49,40,296400,240
42,46,296640,240
54,39,296880,240
58,43,297120,240
54,37,297360,240
58,48,297600,240
54,40,297840,240
59,56,298080,240
54,46,298320,240
59,58,298560,240
54,48,298800,240
61,67,299040,240
54,56,299280,240
47,65,299520,1440
55,72,299520,240
51,51,299760,240
56,58,300000,240
51,48,300240,240
58,55,300480,240
51,47,300720,240
59,64,300960,240
49,49,301200,240
61,55,301440,240
49,48,301680,240
59,54,301920,240
49,41,302160,240
54,54,302640,240
53,54,302880,240
54,54,303120,240
58,54,303360,240
54,51,303600,240
53,55,303840,240
54,55,304080,240
53,57,304320,240
54,60,304560,240
52,61,304800,240
54,65,305040,240
51,75,305280,240
54,53,305520,240
59,60,305760,240
54,50,306000,240
49,57,306240,240
54,49,306480,240
48,63,306720,240
54,47,306960,240
56,52,307200,240
54,45,307440,240
48,49,307680,240
54,37,307920,240
49,63,308160,240
56,44,308400,240
59,49,308640,240
56,40,308880,240
51,45,309120,240
59,45,309120,240
56,37,309360,240
53,42,309600,240
59,50,309600,240
56,38,309840,240
51,42,310080,240
59,42,310080,240
56,37,310320,240
53,42,310560,240
59,42,310560,240
56,32,310800,240
58,50,311040,240
54,38,311280,240
59,42,311520,240
54,37,311760,240
61,42,312000,240
54,32,312240,240
47,45,312480,240
51,33,312720,240
56,43,312960,240
59,32,313200,240
56,41,313440,240
51,32,313680,240
49,50,313920,1440
58,50,313920,240
59,41,315360,240
56,35,315600,240
53,41,315840,240
49,38,316080,240
47,41,316320,240
44,37,316560,240
42,53,316800,240
41,40,317040,240
42,42,317280,240
44,39,317520,240
46,39,317760,240
47,38,318000,240
49,38,318240,240
48,34,318480,240
49,36,318720,240
51,34,318960,240
52,35,319200,240
53,31,319440,240
54,35,319680,1440
63,38,320160,180
61,32,320640,180
49,35,321120,1440
60,38,321120,180
59,38,322080,240
54,51,322560,240
58,51,322560,240
53,43,322800,240
54,45,323040,240
56,41,323280,240
58,42,323520,240
59,40,323760,240
61,40,324000,240
60,36,324240,240
61,38,324480,240
63,36,324720,240
64,37,324960,240
65,33,325200,240
66,44,325440,480
61,43,325920,480
65,51,325920,480
59,40,326400,480
63,48,326400,480
58,38,326880,480
61,45,326880,480
57,37,327360,480
60,44,327360,480
56,37,327840,480
59,44,327840,480
54,37,328320,480
58,44,328320,480
49,37,328800,480
53,44,328800,480
47,33,329280,480
51,39,329280,480
46,29,329760,480
49,35,329760,480
45,27,330240,480
48,32,330240,480
44,25,330720,480
47,30,330720,480
42,26,331200,6240
46,28,331200,6240
49,26,334080,3360
58,33,337920,240
54,29,338160,240
49,33,338400,240
42,21,341280,480
49,25,341280,480
54,21,342720,480
61,25,342720,480
