note,velocity,position,duration
76,65,480,240
74,72,720,240
72,60,960,240
71,60,1200,110
71,54,1320,40
72,49,1360,40
74,51,1400,40
72,68,1440,240
71,60,1680,240
69,66,1920,480
77,77,2160,240
77,63,2400,120
69,63,2400,120
77,58,2640,120
71,49,2640,120
71,51,2880,480
77,61,2880,480
72,39,3360,210
76,46,3360,210
76,47,3600,480
81,56,3600,480
80,46,4080,210
74,39,4080,210
72,47,4320,480
77,56,4320,480
71,38,4800,210
76,45,4800,210
71,50,5040,240
68,42,5040,240
74,50,5280,240
71,42,5280,240
72,43,5520,240
69,36,5520,240
71,46,5760,480
68,39,5760,480
76,65,6240,240
74,72,6480,240
72,60,6720,240
71,60,6960,110
71,54,7080,40
72,49,7120,40
74,51,7160,40
72,68,7200,240
71,60,7440,240
69,66,7680,240
77,77,7920,240
77,63,8160,120
72,53,8160,120
77,58,8400,120
71,49,8400,120
71,51,8640,480
77,61,8640,480
72,39,9120,210
76,46,9120,210
69,47,9360,480
76,61,9360,230
76,61,9600,230
71,48,9840,240
76,60,9840,240
72,48,10080,480
79,70,10080,120
78,54,10200,120
76,56,10320,480
71,46,10560,240
69,47,10800,480
76,61,10800,230
76,61,11040,230
71,48,11280,240
76,60,11280,240
72,48,11520,480
79,70,11520,120
78,55,11640,120
76,56,11760,480
71,46,12000,240
69,42,12240,120
76,61,12240,230
64,33,12360,120
72,39,12480,120
76,61,12480,230
64,33,12600,120
71,38,12720,120
74,60,12720,240
64,42,12840,120
69,42,12960,120
72,61,12960,230
64,33,13080,120
68,39,13200,120
71,61,13200,230
64,33,13320,120
67,38,13440,120
70,60,13440,240
64,42,13560,120
78,70,13680,240
69,70,13680,960
72,62,13920,720
71,62,14640,240
66,54,14880,240
69,62,14880,240
67,62,15120,480
59,41,15240,120
64,45,15360,120
59,41,15480,120
66,45,15600,120
69,62,15600,240
59,41,15720,120
67,62,15840,240
71,62,15840,240
79,55,16080,240
78,42,16320,240
69,35,16320,240
76,54,16560,1200
74,48,17760,230
67,37,18000,120
74,54,18000,230
64,29,18120,120
67,35,18240,120
72,54,18240,230
64,29,18360,120
67,34,18480,120
71,54,18480,240
64,37,18600,120
66,37,18720,120
69,54,18720,230
64,29,18840,120
67,35,18960,120
71,54,18960,230
62,29,19080,120
69,34,19200,120
72,54,19200,240
60,37,19320,120
64,55,19440,360
66,49,19800,60
64,46,19860,60
63,55,19920,120
64,62,20040,120
67,68,20160,480
66,55,20640,240
64,55,20880,705
64,52,21600,475
64,46,22080,235
65,52,22320,465
65,48,22800,225
65,55,23040,465
65,51,23520,225
69,59,23760,240
68,52,24000,240
68,62,24480,475
68,56,24960,235
69,65,25200,465
69,58,25680,225
69,67,25920,465
69,61,26400,225
72,70,26640,240
71,62,26880,240
74,71,27360,465
72,64,27840,90
71,61,27960,90
69,70,28080,240
68,62,28320,240
76,65,29280,240
74,72,29520,240
72,60,29760,240
71,60,30000,110
71,54,30120,40
72,49,30160,40
74,51,30200,40
72,68,30240,240
71,60,30480,240
69,66,30720,480
77,77,30960,240
72,50,31200,120
77,63,31200,120
69,50,31200,120
77,58,31440,120
71,49,31440,120
71,51,31680,480
77,61,31680,480
72,39,32160,210
76,46,32160,210
76,47,32400,480
81,56,32400,480
80,46,32880,210
74,39,32880,210
72,47,33120,480
77,56,33120,480
71,38,33600,210
76,45,33600,210
71,50,33840,240
68,42,33840,240
74,50,34080,240
71,42,34080,240
72,43,34320,240
69,36,34320,240
71,46,34560,480
68,39,34560,480
71,40,35040,240
76,46,35280,240
72,42,35520,240
69,42,35760,240
72,50,36000,240
70,46,36240,210
70,51,36480,240
79,65,36720,240
77,57,36960,120
76,50,37080,120
74,56,37200,120
72,49,37320,120
70,54,37440,240
69,47,37680,240
68,40,37920,240
69,46,38160,240
72,42,38400,240
74,42,38640,240
69,39,38880,720
76,46,38880,480
74,40,39360,120
72,40,39480,120
74,45,39600,480
68,38,39600,720
72,40,40080,120
71,40,40200,120
69,46,40320,480
81,47,40800,240
79,54,41040,240
77,46,41280,240
76,43,41520,240
67,43,41520,240
76,54,41760,240
66,45,41760,480
74,49,42000,210
67,47,42240,240
79,47,42240,240
67,51,42480,960
77,51,42480,240
76,46,42720,240
74,43,42960,210
74,58,43200,240
72,49,43440,120
71,41,43560,120
69,49,43680,120
68,45,43800,120
69,49,43920,120
71,49,44040,120
72,46,44160,240
74,42,44400,240
69,35,44640,720
76,42,44640,480
74,37,45120,120
72,37,45240,120
68,35,45360,720
74,42,45360,480
72,37,45840,120
71,37,45960,120
72,42,46080,480
64,35,46320,710
71,37,46560,120
69,37,46680,120
71,42,46800,480
64,35,47040,1200
69,37,47280,120
68,37,47400,120
69,42,47520,1200
58,35,48240,720
67,35,48720,480
57,34,48960,720
65,33,49200,240
64,33,49440,240
62,32,49680,240
64,31,49920,240
60,31,49920,240
62,29,50160,240
65,29,50160,240
57,30,50400,360
59,27,50760,60
57,27,50820,60
56,29,50880,120
57,26,51000,120
60,28,51120,480
56,26,51600,240
59,26,51600,240
57,30,51840,240
57,22,52080,120
56,20,52200,120
57,22,52320,120
52,20,52440,120
53,26,52560,120
50,20,52680,120
57,22,52800,120
56,20,52920,120
57,22,53040,120
53,20,53160,120
52,26,53280,120
48,20,53400,120
57,22,53520,120
56,20,53640,120
57,22,53760,120
52,20,53880,120
47,20,54000,120
53,20,54000,120
56,26,54000,120
50,20,54120,120
47,17,54240,120
53,17,54240,120
56,22,54240,120
50,20,54360,120
47,17,54480,120
53,17,54480,120
56,22,54480,120
50,20,54600,120
48,24,54720,480
57,28,54720,480
81,51,55920,240
79,57,56160,240
77,49,56400,240
76,45,56640,120
76,37,56760,40
77,37,56800,40
79,37,56840,40
77,54,56880,240
76,64,57120,240
74,72,57360,240
82,79,57600,240
82,70,57840,180
82,70,58080,180
82,65,58320,480
81,52,58800,1680
76,40,58800,240
74,46,59040,240
72,40,59280,240
71,37,59520,120
71,37,59640,40
72,37,59680,40
74,37,59720,40
72,49,59760,240
71,53,60000,240
69,56,60240,240
77,65,60480,240
68,48,60720,180
74,48,60720,180
77,61,60720,180
68,48,60960,180
74,48,60960,180
77,61,60960,180
68,52,61200,2880
74,52,61200,2880
77,65,61200,2880
72,27,64080,240
76,34,64080,240
69,27,64084,240
57,29,64560,60
57,34,64800,60
57,31,65280,60
57,34,65520,60
60,40,480,120
64,32,600,120
59,40,720,120
64,29,840,120
57,32,960,120
64,31,1080,120
56,38,1200,120
64,32,1320,120
57,40,1440,120
64,33,1560,120
59,38,1680,120
64,31,1800,120
60,39,1920,120
64,42,2040,120
50,47,2160,120
62,46,2280,120
53,47,2400,120
62,40,2520,120
56,31,2640,120
62,26,2760,120
48,33,2880,120
62,24,3000,120
56,28,3120,120
62,23,3240,120
57,27,3360,120
59,26,3480,120
60,25,3600,120
64,20,3720,120
60,24,3840,120
64,21,3960,120
59,22,4080,120
64,21,4200,120
57,24,4320,120
64,21,4440,120
57,23,4560,120
64,22,4680,120
56,24,4800,120
64,22,4920,120
52,40,5040,120
64,32,5160,120
57,37,5280,120
64,31,5400,120
51,37,5520,120
66,31,5640,120
52,40,5760,120
65,42,5880,120
64,39,6000,120
62,37,6120,120
60,40,6240,120
64,32,6360,120
59,40,6480,120
64,29,6600,120
57,32,6720,120
64,31,6840,120
56,38,6960,120
64,32,7080,120
57,40,7200,120
64,33,7320,120
59,38,7440,120
64,31,7560,120
60,39,7680,120
64,42,7800,120
50,47,7920,120
62,46,8040,120
53,47,8160,120
62,40,8280,120
56,31,8400,120
62,26,8520,120
48,33,8640,120
62,24,8760,120
56,28,8880,120
62,23,9000,120
57,27,9120,120
59,26,9240,120
60,42,9360,120
64,33,9480,120
60,39,9600,120
64,33,9720,120
59,38,9840,120
64,42,9960,120
57,53,10080,120
64,41,10200,120
57,30,10320,120
64,24,10440,120
59,28,10560,120
64,26,10680,120
60,42,10800,120
64,33,10920,120
60,39,11040,120
64,33,11160,120
59,38,11280,120
64,42,11400,120
57,53,11520,120
64,33,11640,120
57,31,11760,120
64,28,11880,120
59,33,12000,120
64,26,12120,120
60,56,12240,480
56,50,12720,240
57,56,12960,240
59,49,13200,240
61,55,13440,240
51,62,13680,120
60,45,13800,120
66,54,13920,120
60,42,14040,120
51,54,14160,120
60,41,14280,120
51,62,14400,120
60,45,14520,120
66,54,14640,120
60,42,14760,120
51,54,14880,120
60,41,15000,120
52,56,15120,240
47,56,15360,240
45,61,15600,240
43,69,15840,120
59,45,15960,120
55,33,16080,120
59,30,16200,120
57,37,16320,120
60,29,16440,120
59,46,16560,120
64,30,16680,120
67,35,16800,120
71,31,16920,120
67,34,17040,120
64,34,17160,120
59,45,17280,720
64,27,17400,120
67,34,17520,120
65,27,17640,120
67,34,17760,120
65,28,17880,120
60,50,18000,720
48,50,18720,240
47,44,18960,240
45,49,19200,240
47,50,19440,1440
59,29,19560,120
55,35,19680,120
59,29,19800,120
55,35,19920,120
59,40,20040,120
55,47,20160,120
59,34,20280,120
64,37,20400,120
59,29,20520,120
51,35,20640,240
59,29,20760,120
40,45,20880,720
56,35,20880,120
59,29,21000,120
56,32,21120,120
52,29,21240,120
51,34,21360,120
52,29,21480,120
47,45,21600,720
56,35,21600,120
59,29,21720,120
56,32,21840,120
52,29,21960,120
51,34,22080,120
52,29,22200,120
45,45,22320,720
57,35,22320,120
60,29,22440,120
57,32,22560,120
52,29,22680,120
51,35,22800,120
52,30,22920,120
45,48,23040,720
57,37,23040,120
60,31,23160,120
57,35,23280,120
52,32,23400,120
51,38,23520,120
52,32,23640,120
40,51,23760,720
59,40,23760,120
62,33,23880,120
59,36,24000,120
52,33,24120,120
51,39,24240,120
52,33,24360,120
47,54,24480,720
59,42,24480,120
62,34,24600,120
59,38,24720,120
52,35,24840,120
51,41,24960,120
52,35,25080,120
40,56,25200,720
60,43,25200,120
64,36,25320,120
60,40,25440,120
52,36,25560,120
51,43,25680,120
52,37,25800,120
48,58,25920,720
60,45,25920,120
64,37,26040,120
60,41,26160,120
52,38,26280,120
51,45,26400,120
52,38,26520,120
40,60,26640,720
62,47,26640,120
68,39,26760,120
62,43,26880,120
52,39,27000,120
51,45,27120,120
52,39,27240,120
47,58,27360,720
62,45,27360,120
65,37,27480,120
62,41,27600,120
53,38,27720,120
52,45,27840,120
53,38,27960,120
40,60,28080,720
62,47,28080,120
65,39,28200,120
62,43,28320,120
52,39,28440,120
51,45,28560,120
52,39,28680,120
59,40,28800,120
65,42,28920,120
64,39,29040,120
62,37,29160,120
60,40,29280,120
64,32,29400,120
59,40,29520,120
64,29,29640,120
57,32,29760,120
64,31,29880,120
56,38,30000,120
64,32,30120,120
57,40,30240,120
64,33,30360,120
59,38,30480,120
64,31,30600,120
60,39,30720,120
64,42,30840,120
50,47,30960,120
62,46,31080,120
53,47,31200,120
62,40,31320,120
56,31,31440,120
62,26,31560,120
48,33,31680,120
62,24,31800,120
56,28,31920,120
62,23,32040,120
57,27,32160,120
59,26,32280,120
60,25,32400,120
64,20,32520,120
62,24,32640,120
60,21,32760,120
59,22,32880,120
64,21,33000,120
57,24,33120,120
64,21,33240,120
57,23,33360,120
64,22,33480,120
56,24,33600,120
64,22,33720,120
52,40,33840,120
64,32,33960,120
57,37,34080,120
53,31,34200,120
52,37,34320,120
51,31,34440,120
52,40,34560,120
62,42,34680,120
59,39,34800,120
56,37,34920,120
52,37,35040,120
50,37,35160,120
48,34,35280,120
57,26,35400,120
64,34,35520,120
57,30,35640,120
48,34,35760,120
57,30,35880,120
50,34,36000,120
57,30,36120,120
65,38,36240,120
57,31,36360,120
50,37,36480,120
57,44,36600,120
52,48,36720,120
55,37,36840,120
67,43,36960,120
55,31,37080,120
52,38,37200,120
55,32,37320,120
53,37,37440,120
60,31,37560,120
65,37,37680,120
60,29,37800,120
59,33,37920,120
53,29,38040,120
60,34,38160,120
53,26,38280,120
57,34,38400,120
53,30,38520,120
59,34,38640,120
53,30,38760,120
60,34,38880,120
52,34,38880,720
64,30,39000,120
60,31,39120,120
64,27,39240,120
57,31,39360,120
64,29,39480,120
59,34,39600,120
52,34,39600,720
64,27,39720,120
59,34,39840,120
64,31,39960,120
62,34,40080,120
64,27,40200,120
60,34,40320,120
64,29,40440,120
69,34,40560,120
67,30,40680,120
65,37,40800,120
57,37,40920,120
64,45,41040,120
57,31,41160,120
62,34,41280,120
57,30,41400,120
61,34,41520,120
57,30,41640,120
60,43,41760,120
50,43,41760,120
57,30,41880,120
62,38,42000,120
60,31,42120,120
59,37,42240,120
55,37,42360,120
59,45,42480,120
55,31,42600,120
60,34,42720,120
55,30,42840,120
59,34,42960,120
53,30,43080,120
52,43,43200,120
55,30,43320,120
60,38,43440,120
64,31,43560,120
60,31,43680,120
59,29,43800,120
57,35,43920,120
56,31,44040,120
57,31,44160,120
53,26,44280,120
59,31,44400,120
53,27,44520,120
52,28,44640,720
60,33,44640,120
64,26,44760,120
60,29,44880,120
64,26,45000,120
57,29,45120,120
64,27,45240,120
52,28,45360,720
59,33,45360,120
64,26,45480,120
59,29,45600,120
64,26,45720,120
62,29,45840,120
64,27,45960,120
60,33,46080,120
52,26,46200,120
60,29,46320,120
52,26,46440,120
62,29,46560,120
60,27,46680,120
62,33,46800,120
52,26,46920,120
62,29,47040,120
52,26,47160,120
60,29,47280,120
59,27,47400,120
60,33,47520,120
52,26,47640,120
60,29,47760,120
52,26,47880,120
60,29,48000,120
52,27,48120,120
60,33,48240,120
52,26,48360,120
60,29,48480,120
52,26,48600,120
60,29,48720,120
52,27,48840,120
60,32,48960,120
53,25,49080,120
60,28,49200,120
53,24,49320,120
60,27,49440,120
53,25,49560,120
59,30,49680,120
53,23,49800,120
52,26,49920,120
57,23,50040,120
50,25,50160,120
53,23,50280,120
40,27,50400,1440
52,22,50520,120
48,24,50640,120
52,21,50760,120
48,24,50880,120
52,22,51000,120
48,26,51120,120
52,20,51240,120
57,22,51360,120
52,20,51480,120
50,22,51600,120
52,20,51720,120
45,25,51840,480
48,26,51840,120
52,20,51960,120
33,25,52560,480
45,25,52560,480
33,25,53280,480
45,25,53280,480
33,20,54000,180
45,25,54000,180
33,20,54240,180
45,25,54240,180
33,20,54480,180
45,25,54480,180
33,26,54720,120
40,20,54840,120
45,22,54960,120
44,20,55080,120
45,22,55200,120
40,20,55320,120
41,26,55440,120
38,20,55560,120
45,22,55680,120
44,20,55800,120
45,22,55920,120
41,20,56040,120
40,26,56160,120
37,20,56280,120
45,22,56400,120
44,20,56513,120
45,22,56640,120
40,20,56760,120
38,28,56880,120
45,23,57000,120
40,26,57120,120
45,25,57240,120
41,33,57360,120
45,42,57480,120
43,47,57600,120
33,41,57720,120
43,43,57840,120
33,38,57960,120
43,43,58080,120
33,38,58200,120
43,48,58320,120
33,30,58440,120
43,38,58560,120
33,26,58680,120
43,33,58800,120
33,26,58920,120
41,26,59040,120
33,20,59160,120
40,22,59280,120
33,20,59400,120
38,22,59520,120
33,20,59640,120
40,28,59760,120
33,23,59880,120
38,26,60000,120
33,25,60120,120
36,33,60240,120
33,42,60360,120
35,47,60480,120
33,41,60600,120
35,43,60720,120
33,38,60840,120
35,43,60960,120
33,38,61080,120
35,48,61200,120
33,30,61320,120
35,38,61440,120
38,41,61560,120
41,47,61680,120
38,26,61800,120
35,48,61920,120
33,30,62040,120
35,38,62160,120
38,43,62280,120
41,50,62400,120
38,26,62520,120
33,30,62640,180
33,21,62880,180
33,21,63120,180
33,27,63360,180
33,21,63600,180
33,20,63840,180
33,21,64080,240
45,18,64560,60
33,18,64560,60
33,21,64800,60
45,21,64800,60
45,17,65280,60
33,17,65280,60
33,21,65520,60
45,21,65520,60
