note,velocity,position,duration
44,46,120,115
49,48,240,140
52,50,360,140
56,51,480,140
49,46,600,140
52,47,720,140
56,49,840,140
61,51,960,140
52,46,1080,140
56,47,1200,140
61,49,1320,140
64,51,1440,140
56,47,1560,140
61,48,1680,140
64,49,1800,140
68,50,1920,140
61,47,2040,140
64,47,2160,140
68,49,2280,140
73,50,2400,140
64,51,2520,140
68,47,2640,140
73,51,2760,140
76,52,2880,140
68,50,3000,140
73,51,3120,140
76,54,3240,120
68,79,3360,120
76,94,3360,120
80,94,3360,120
73,79,3360,120
68,67,3600,120
73,67,3600,120
80,79,3600,120
76,79,3600,120
44,47,3960,115
48,48,4080,140
51,50,4200,140
56,51,4320,140
48,47,4440,140
51,48,4560,140
56,51,4680,140
60,52,4800,140
51,47,4920,140
56,48,5040,140
60,50,5160,140
63,51,5280,140
56,46,5400,140
60,47,5520,140
63,49,5640,140
68,51,5760,140
60,47,5880,140
63,48,6000,140
68,50,6120,140
72,51,6240,140
63,47,6360,140
68,48,6480,140
72,51,6600,140
75,52,6720,140
68,51,6840,140
72,51,6960,140
75,52,7080,120
68,79,7200,120
72,79,7200,120
75,94,7200,120
80,94,7200,120
72,66,7440,120
80,78,7440,120
68,66,7440,120
75,78,7440,120
49,66,7800,140
53,62,7920,140
56,66,8040,140
61,68,8160,140
53,62,8280,140
56,62,8400,140
61,65,8520,140
65,68,8640,140
56,62,8760,140
61,65,8880,140
65,67,9000,140
68,68,9120,140
61,62,9240,140
65,63,9360,140
68,66,9480,140
73,67,9600,140
65,62,9720,140
68,62,9840,140
73,66,9960,140
77,68,10080,140
68,62,10200,140
73,66,10320,140
77,68,10440,140
80,66,10560,140
73,68,10680,140
77,69,10800,140
80,71,10920,120
77,87,11040,120
85,103,11040,120
80,103,11040,120
73,87,11040,120
80,90,11280,120
85,90,11280,120
73,77,11280,120
77,77,11280,120
49,61,11640,140
54,63,11760,140
57,62,11880,140
61,69,12000,60
61,72,12120,140
66,76,12240,140
69,73,12360,140
73,79,12480,60
73,77,12600,140
78,81,12720,140
81,76,12840,120
73,90,12960,120
85,108,12960,120
78,90,12960,120
73,88,13200,120
78,88,13200,120
85,104,13200,120
49,75,13560,140
52,77,13680,140
55,79,13800,140
61,76,13920,60
61,77,14040,140
64,79,14160,140
67,79,14280,140
73,80,14400,60
73,77,14520,140
76,79,14640,140
79,80,14760,120
85,105,14880,120
73,89,14880,120
79,105,14880,120
73,89,15120,120
79,105,15120,120
85,105,15120,120
72,88,15360,240
84,104,15360,240
80,104,15360,240
68,74,15600,120
80,58,15720,120
68,75,15840,120
80,60,15960,120
70,76,16080,120
80,60,16200,120
72,76,16320,120
80,61,16440,120
73,78,16560,120
80,62,16680,120
75,79,16800,120
80,62,16920,120
72,79,17040,120
80,62,17160,120
75,80,17280,120
80,62,17400,120
73,80,17520,120
80,62,17640,120
78,84,17760,120
80,62,17880,120
76,80,18000,120
80,62,18120,120
75,80,18240,120
80,62,18360,120
73,79,18480,120
80,62,18600,120
72,79,18720,120
80,62,18840,120
69,77,18960,120
79,61,19080,120
68,76,19200,120
80,60,19320,120
68,75,19440,120
80,59,19560,120
68,74,19680,120
80,59,19800,120
70,74,19920,120
80,61,20040,120
72,76,20160,120
80,59,20280,120
73,76,20400,120
80,62,20520,120
75,77,20640,120
80,61,20760,120
72,79,20880,120
80,62,21000,120
75,79,21120,120
80,62,21240,120
73,80,21360,120
80,65,21480,120
78,84,21600,120
80,68,21720,120
76,84,21840,120
80,67,21960,120
75,84,22080,120
80,67,22200,120
73,84,22320,120
80,66,22440,120
72,84,22560,120
80,67,22680,120
69,84,22800,120
79,66,22920,120
68,84,23040,120
80,66,23160,120
69,79,23280,120
79,67,23400,120
68,84,23520,120
80,66,23640,120
69,79,23760,120
79,67,23880,120
68,84,24000,120
80,66,24120,120
69,79,24240,120
79,65,24360,120
68,84,24480,120
80,66,24600,120
69,79,24720,120
79,65,24840,120
68,84,24960,240
80,84,24960,240
56,113,25440,1440
44,45,27000,115
49,47,27120,140
52,49,27240,140
56,51,27360,140
49,47,27480,140
52,49,27600,140
56,51,27720,140
61,51,27840,140
52,47,27960,140
56,48,28080,140
61,50,28200,140
64,51,28320,140
56,47,28440,140
61,48,28560,140
64,50,28680,140
68,51,28800,140
61,47,28920,140
64,48,29040,140
68,50,29160,140
73,51,29280,140
64,47,29400,140
68,49,29520,140
73,51,29640,140
76,51,29760,110
76,51,29880,140
80,51,30000,140
85,53,30120,140
76,96,30240,120
88,113,30240,120
76,74,30480,120
88,88,30480,120
52,47,30840,140
55,49,30960,140
61,51,31080,140
64,51,31200,140
55,47,31320,140
61,48,31440,140
64,50,31560,140
67,51,31680,140
61,47,31800,140
64,48,31920,140
67,51,32040,140
73,52,32160,140
64,47,32280,140
67,49,32400,140
73,51,32520,140
76,53,32640,140
67,47,32760,140
73,50,32880,140
76,51,33000,140
79,53,33120,140
73,47,33240,140
76,49,33360,140
79,51,33480,140
85,52,33600,140
76,49,33720,140
79,51,33840,140
85,54,33960,140
76,93,34080,120
88,110,34080,120
76,73,34320,120
88,87,34320,120
51,50,34680,115
58,51,34800,140
61,49,34920,140
63,51,35040,140
58,52,35160,140
61,53,35280,140
63,51,35400,140
70,56,35520,140
61,56,35640,140
63,57,35760,140
70,52,35880,140
73,58,36000,140
63,59,36120,140
70,60,36240,140
73,56,36360,140
75,62,36480,140
70,62,36600,140
73,62,36720,140
75,59,36840,140
82,63,36960,140
73,65,37080,140
75,66,37200,140
82,62,37320,140
85,67,37440,140
82,65,37560,140
75,62,37680,140
73,61,37800,140
82,59,37920,140
75,57,38040,140
73,56,38160,140
70,52,38280,140
71,49,38400,240
75,61,38880,980
71,50,39840,380
68,50,40200,60
67,40,40260,20
68,40,40280,20
70,40,40300,20
68,58,40320,500
67,50,40800,720
67,50,41520,260
75,61,41760,360
67,52,42120,120
70,47,42240,500
68,51,42720,720
68,49,43440,260
75,61,43680,360
68,50,44040,140
71,52,44160,500
70,50,44640,720
70,52,45360,260
75,49,45600,360
70,52,45960,120
71,56,46080,120
87,56,46320,480
75,47,46320,480
87,58,46800,480
75,49,46800,480
75,47,47280,120
87,56,47280,120
71,49,47520,120
83,58,47520,120
80,59,47760,120
68,49,47760,120
80,61,48000,120
68,51,48000,120
79,62,48240,480
67,52,48240,480
79,68,48720,480
67,57,48720,480
67,58,49200,120
79,69,49200,120
87,71,49440,120
75,60,49440,120
67,61,49680,120
79,73,49680,120
70,62,49920,120
82,74,49920,120
68,63,50160,480
80,75,50160,480
68,68,50640,480
80,80,50640,480
68,69,51120,120
80,82,51120,120
75,72,51360,120
87,85,51360,120
80,86,51600,120
68,73,51600,120
71,73,51840,120
83,86,51840,120
82,89,52080,480
70,74,52080,480
70,79,52560,480
82,93,52560,480
82,93,53040,120
70,79,53040,120
87,93,53280,120
75,79,53280,120
82,93,53520,120
70,79,53520,120
72,80,53760,960
84,95,53760,960
85,95,54720,960
73,80,54720,960
82,80,55680,65
70,68,55680,480
83,75,55745,64
82,80,55809,65
83,80,55874,64
82,80,55955,78
80,75,56027,77
82,75,56093,67
83,95,56160,1440
71,80,56160,1440
80,95,57600,960
68,80,57600,960
69,80,58560,960
81,94,58560,960
67,68,59520,480
79,80,59520,65
80,75,59585,65
79,80,59649,65
80,80,59714,65
79,80,59795,78
77,75,59867,78
79,75,59933,67
68,80,60000,1440
80,95,60000,1440
76,100,61440,1080
69,83,61440,1080
73,83,61440,1080
81,100,61440,1080
76,47,62520,120
78,47,62640,120
80,48,62760,120
81,49,62880,120
83,50,63000,120
85,51,63120,120
83,51,63240,120
81,49,63360,120
76,47,63480,120
78,47,63600,120
80,47,63720,120
81,48,63840,120
83,49,63960,120
85,50,64080,120
83,48,64200,120
81,48,64320,120
76,47,64440,120
78,48,64560,120
80,49,64680,120
81,50,64800,120
83,51,64920,120
85,51,65040,120
83,49,65160,120
81,47,65280,120
76,48,65400,120
78,51,65520,120
80,51,65640,120
81,54,65760,120
83,56,65880,120
85,57,66000,120
86,60,66120,120
88,61,66240,120
87,59,66360,120
88,57,66480,120
87,56,66600,120
88,54,66720,120
85,52,66840,120
83,51,66960,120
81,50,67080,120
80,48,67200,960
82,50,68160,80
83,50,68240,80
82,50,68320,75
83,50,68395,75
82,50,68470,75
83,50,68545,75
82,48,68620,70
83,48,68690,70
82,49,68760,60
83,50,68820,60
82,51,68880,60
83,51,68940,60
82,51,69000,60
83,52,69060,60
80,56,69120,240
64,87,69600,600
57,73,69600,600
61,87,69600,600
69,87,69600,600
64,50,70200,120
66,50,70320,120
68,50,70440,120
69,48,70560,120
71,47,70680,120
73,49,70800,120
71,48,70920,120
69,47,71040,120
64,47,71160,120
66,48,71280,120
68,49,71400,120
69,51,71520,120
71,51,71640,120
73,49,71760,120
71,48,71880,120
69,48,72000,120
64,48,72120,120
66,48,72240,120
68,50,72360,120
69,50,72480,120
71,50,72600,120
73,50,72720,120
71,50,72840,120
69,49,72960,120
64,50,73080,120
66,51,73200,120
68,51,73320,120
69,52,73440,120
71,53,73560,120
73,56,73680,120
71,56,73800,120
69,57,73920,120
64,58,74040,120
66,59,74160,120
68,60,74280,120
69,62,74400,120
71,62,74520,120
73,62,74640,120
71,63,74760,120
69,66,74880,120
64,67,75000,120
66,68,75120,120
68,68,75240,120
69,70,75360,120
71,71,75480,120
73,72,75600,120
74,73,75720,120
76,74,75840,120
78,75,75960,120
80,76,76080,120
81,77,76200,120
83,79,76320,120
85,79,76440,120
86,79,76560,120
87,80,76680,120
76,84,76800,960
88,84,76800,960
68,84,77760,960
80,84,77760,960
71,84,78720,960
83,84,78720,960
55,71,79680,960
61,71,79680,960
67,84,79680,960
63,84,80640,240
68,84,80640,240
59,84,80640,240
63,51,80880,120
71,51,80880,120
63,51,81120,120
71,51,81120,120
63,51,81360,120
71,51,81360,120
63,51,81600,120
71,51,81600,120
63,51,81840,120
71,51,81840,120
70,49,82080,120
63,49,82080,120
63,48,82320,120
68,48,82320,120
63,59,82560,240
67,59,82560,240
75,49,82800,120
67,49,82800,120
67,49,83040,120
75,49,83040,120
67,50,83280,120
75,50,83280,120
67,51,83520,120
75,51,83520,120
75,51,83760,120
67,51,83760,120
75,51,84000,120
68,51,84000,120
70,50,84240,120
75,50,84240,120
71,58,84480,240
75,58,84480,240
71,50,84720,120
63,50,84720,120
71,50,84960,120
63,50,84960,120
63,50,85200,120
71,50,85200,120
71,50,85440,120
63,50,85440,120
71,50,85680,120
63,50,85680,120
70,50,85920,120
63,50,85920,120
63,48,86160,120
68,48,86160,120
63,58,86400,240
67,58,86400,240
75,49,86640,120
67,49,86640,120
67,49,86880,120
75,49,86880,120
67,51,87120,120
75,51,87120,120
67,49,87360,120
75,49,87360,120
75,49,87600,120
67,49,87600,120
68,50,87840,120
75,50,87840,120
70,51,88080,120
75,51,88080,120
71,56,88320,120
75,56,88320,120
75,50,88560,120
71,50,88560,120
75,50,88800,240
71,50,88800,240
68,47,89040,240
71,47,89040,240
76,50,89520,120
73,50,89520,120
73,50,89760,240
76,50,89760,240
73,48,90000,240
68,48,90000,240
75,47,90480,120
71,47,90480,120
71,47,90720,240
75,47,90720,240
71,44,90960,240
68,44,90960,240
70,49,91440,120
75,49,91440,120
70,47,91680,240
75,47,91680,240
70,45,91920,240
67,45,91920,240
71,49,92160,240
68,49,92160,240
71,43,92400,120
75,51,92400,120
83,51,92400,120
75,56,92640,120
71,47,92640,120
83,56,92640,120
83,58,92880,120
75,58,92880,120
71,49,92880,120
71,52,93120,120
75,62,93120,120
83,62,93120,120
71,56,93360,120
75,66,93360,120
83,66,93360,120
82,68,93600,120
70,57,93600,120
73,68,93600,120
68,61,93840,120
71,72,93840,120
80,72,93840,120
67,63,94080,240
70,75,94080,240
79,75,94080,240
79,76,94320,120
76,64,94320,120
88,76,94320,120
79,82,94560,120
88,82,94560,120
76,69,94560,120
76,67,94800,120
88,79,94800,120
79,79,94800,120
88,82,95040,120
79,82,95040,120
76,69,95040,120
88,78,95280,120
79,78,95280,120
76,66,95280,120
79,80,95520,120
75,68,95520,120
87,80,95520,120
79,78,95760,120
73,66,95760,120
85,78,95760,120
71,69,96000,240
80,82,96000,240
83,82,96000,240
71,41,96240,120
75,49,96240,120
83,49,96240,120
75,52,96480,120
83,52,96480,120
71,44,96480,120
71,48,96720,120
75,57,96720,120
83,57,96720,120
75,61,96960,120
83,61,96960,120
71,51,96960,120
83,66,97200,120
71,56,97200,120
75,66,97200,120
70,58,97440,120
82,69,97440,120
73,69,97440,120
68,62,97680,120
71,73,97680,120
80,73,97680,120
67,66,97920,240
70,78,97920,240
79,78,97920,240
79,79,98160,120
88,79,98160,120
76,67,98160,120
79,81,98400,120
76,68,98400,120
88,81,98400,120
76,66,98640,120
88,78,98640,120
79,78,98640,120
79,82,98880,120
76,69,98880,120
88,82,98880,120
76,66,99120,120
88,78,99120,120
79,78,99120,120
87,79,99360,120
79,79,99360,120
75,67,99360,120
85,79,99600,120
73,67,99600,120
79,79,99600,120
80,82,99840,240
83,82,99840,240
71,69,99840,240
83,50,100080,120
80,50,100080,120
83,50,100320,240
80,50,100320,240
87,48,100560,240
83,48,100560,240
85,49,101040,120
80,49,101040,120
85,49,101280,240
80,49,101280,240
88,48,101520,240
85,48,101520,240
80,49,102000,120
83,49,102000,120
83,49,102240,240
80,49,102240,240
87,48,102480,240
83,48,102480,240
82,51,102960,120
79,51,102960,120
82,51,103200,240
79,51,103200,240
87,48,103440,240
82,48,103440,240
75,56,103920,120
83,56,103920,120
83,51,104160,240
75,51,104160,240
80,51,104400,240
87,51,104400,240
81,62,104880,120
73,62,104880,120
81,56,105120,240
73,56,105120,240
76,56,105360,240
85,56,105360,240
80,57,105840,120
71,57,105840,120
80,57,106080,240
71,57,106080,240
75,51,106320,240
83,51,106320,240
79,52,106800,120
70,52,106800,120
70,51,107040,240
79,51,107040,240
73,42,107280,240
82,42,107280,240
80,50,107520,480
71,50,107520,480
71,50,108960,360
68,50,109320,120
67,57,109440,480
75,47,109920,360
61,39,109920,360
67,47,109920,360
67,47,110400,360
75,47,110400,360
61,39,110400,360
67,50,110880,360
75,50,110880,360
61,42,110880,360
59,50,111240,80
68,50,111300,80
75,57,111360,1440
83,58,112800,360
80,58,113160,120
79,67,113280,480
87,57,113760,360
73,48,113760,360
79,57,113760,360
73,48,114240,360
87,57,114240,360
79,57,114240,360
79,57,114720,360
73,48,114720,360
87,57,114720,360
71,47,115080,80
80,53,115140,80
87,73,115200,840
73,43,116040,80
79,53,116100,80
87,72,116160,840
71,40,117000,80
80,53,117060,80
87,72,117120,840
73,45,117960,80
79,52,118020,80
87,71,118080,960
59,49,119040,119
68,50,119160,119
63,51,119280,119
68,48,119400,119
59,52,119520,119
68,53,119640,119
63,54,119760,119
68,51,119880,119
59,57,120000,119
68,57,120120,119
63,58,120240,119
68,52,120360,119
59,61,120480,119
68,62,120600,119
63,62,120720,119
68,57,120840,119
60,66,120960,119
66,67,121080,119
63,68,121200,119
66,62,121320,119
60,69,121440,119
66,70,121560,119
63,71,121680,119
66,68,121800,119
60,73,121920,119
66,74,122040,119
63,75,122160,119
66,76,122280,119
60,78,122400,119
66,79,122520,119
63,79,122640,119
66,73,122760,119
52,69,122880,120
56,69,122880,120
61,82,122880,120
64,82,122880,120
44,54,123000,115
49,56,123120,140
52,57,123240,140
56,59,123360,140
49,54,123480,140
52,56,123600,140
56,56,123720,140
61,57,123840,140
52,51,123960,140
56,53,124080,140
61,54,124200,140
64,56,124320,140
56,52,124440,140
61,53,124560,140
64,56,124680,140
68,57,124800,140
61,52,124920,140
64,53,125040,140
68,56,125160,140
73,57,125280,140
64,52,125400,140
68,53,125520,140
73,56,125640,140
76,56,125760,140
68,52,125880,140
73,56,126000,140
76,57,126120,120
76,94,126240,120
80,94,126240,120
73,79,126240,120
68,79,126240,120
68,67,126480,120
80,79,126480,120
73,67,126480,120
76,79,126480,120
44,48,126840,115
48,50,126960,140
51,51,127080,140
56,52,127200,140
48,48,127320,140
51,49,127440,140
56,51,127560,140
60,53,127680,140
51,47,127800,140
56,49,127920,140
60,51,128040,140
63,51,128160,140
56,48,128280,140
60,51,128400,140
63,52,128520,140
68,53,128640,140
60,48,128760,140
63,49,128880,140
68,51,129000,140
72,51,129120,140
63,48,129240,140
68,50,129360,140
72,51,129480,140
75,52,129600,140
68,51,129720,140
72,52,129840,140
75,56,129960,120
68,79,130080,120
72,79,130080,120
75,94,130080,120
80,94,130080,120
68,66,130320,120
72,66,130320,120
75,78,130320,120
80,78,130320,120
49,63,130680,140
53,66,130800,140
56,63,130920,140
61,68,131040,140
53,62,131160,140
56,63,131280,140
61,62,131400,140
65,68,131520,140
56,62,131640,140
61,63,131760,140
65,65,131880,140
68,68,132000,140
61,62,132120,140
65,65,132240,140
68,62,132360,140
73,68,132480,140
65,61,132600,140
68,62,132720,140
73,62,132840,140
77,68,132960,140
68,63,133080,140
73,66,133200,140
77,65,133320,140
80,69,133440,140
73,63,133560,140
77,68,133680,140
80,68,133800,120
77,87,133920,120
80,103,133920,120
73,87,133920,120
85,103,133920,120
77,77,134160,120
73,77,134160,120
80,90,134160,120
85,90,134160,120
49,61,134520,140
54,63,134640,140
57,62,134760,140
61,69,134880,60
61,72,135000,140
66,76,135120,140
69,76,135240,140
73,79,135360,60
73,83,135480,140
78,84,135600,140
81,80,135720,140
78,102,135840,120
73,86,135840,120
85,102,135840,120
73,85,136080,120
78,101,136080,120
85,101,136080,120
49,75,136440,140
52,77,136560,140
55,75,136680,140
61,80,136800,60
61,76,136920,140
64,79,137040,140
67,77,137160,140
73,81,137280,60
73,79,137400,140
76,80,137520,140
79,80,137640,120
79,108,137760,120
73,90,137760,120
85,108,137760,120
85,108,138000,120
73,90,138000,120
79,108,138000,120
84,108,138240,240
80,108,138240,240
72,90,138240,240
68,74,138480,120
80,58,138600,120
68,75,138720,120
80,60,138840,120
70,76,138960,120
80,60,139080,120
72,76,139200,120
80,61,139320,120
73,78,139440,120
80,62,139560,120
75,79,139680,120
80,62,139800,120
72,79,139920,120
80,62,140040,120
75,80,140160,120
80,62,140280,120
73,80,140400,120
80,62,140520,120
78,84,140640,120
80,62,140760,120
76,80,140880,120
80,62,141000,120
75,80,141120,120
80,62,141240,120
73,79,141360,120
80,62,141480,120
72,79,141600,120
80,62,141720,120
69,77,141840,120
79,61,141960,120
68,76,142080,120
80,60,142200,120
68,75,142320,120
80,59,142440,120
68,74,142560,120
80,59,142680,120
70,74,142800,120
80,61,142920,120
72,76,143040,120
80,59,143160,120
73,76,143280,120
80,62,143400,120
75,77,143520,120
80,61,143640,120
72,79,143760,120
80,62,143880,120
75,79,144000,120
80,62,144120,120
73,80,144240,120
80,65,144360,120
78,84,144480,120
80,68,144600,120
76,84,144720,120
80,67,144840,120
75,84,144960,120
80,67,145080,120
73,84,145200,120
80,66,145320,120
72,84,145440,120
80,67,145560,120
69,84,145680,120
79,66,145800,120
68,84,145920,120
80,66,146040,120
69,79,146160,120
79,67,146280,120
68,84,146400,120
80,66,146520,120
69,79,146640,120
79,67,146760,120
68,84,146880,120
80,66,147000,120
69,79,147120,120
79,65,147240,120
68,84,147360,120
80,66,147480,120
69,79,147600,120
79,65,147720,120
68,84,147840,240
80,84,147840,240
56,113,148320,1440
44,47,149880,115
49,49,150000,140
52,51,150120,140
56,52,150240,140
49,47,150360,140
52,49,150480,140
56,51,150600,140
61,52,150720,140
52,47,150840,140
56,49,150960,140
61,51,151080,140
64,52,151200,140
56,48,151320,140
61,50,151440,140
64,51,151560,140
68,52,151680,140
61,47,151800,140
64,47,151920,140
68,50,152040,140
73,52,152160,140
64,47,152280,140
68,50,152400,140
73,51,152520,140
76,54,152640,115
76,51,152760,140
80,51,152880,140
85,53,153000,120
76,95,153120,120
88,112,153120,120
76,74,153360,120
88,88,153360,120
52,46,153720,140
55,48,153840,140
61,50,153960,140
64,51,154080,140
55,47,154200,140
61,49,154320,140
64,51,154440,140
67,51,154560,140
61,50,154680,140
64,49,154800,140
67,51,154920,140
73,52,155040,140
64,47,155160,140
67,49,155280,140
73,51,155400,140
76,52,155520,140
67,48,155640,140
73,48,155760,140
76,50,155880,140
79,52,156000,140
73,47,156120,140
76,50,156240,140
79,51,156360,140
85,54,156480,140
76,51,156600,140
79,54,156720,140
85,57,156840,120
88,110,156960,120
76,93,156960,120
76,73,157200,120
88,87,157200,120
51,50,157560,115
58,51,157680,140
61,51,157800,140
63,51,157920,140
58,52,158040,140
61,53,158160,140
63,54,158280,140
70,56,158400,140
61,56,158520,140
63,57,158640,140
70,57,158760,140
73,58,158880,140
63,59,159000,140
70,60,159120,140
73,61,159240,140
75,62,159360,140
70,62,159480,140
73,62,159600,140
75,62,159720,140
82,63,159840,140
73,65,159960,140
75,66,160080,140
82,67,160200,140
85,67,160320,140
82,65,160440,140
75,62,160560,140
73,61,160680,140
82,59,160800,140
75,57,160920,140
73,56,161040,140
70,52,161160,140
71,49,161280,240
75,61,161760,980
71,56,162720,360
68,56,163080,60
67,44,163140,20
68,44,163160,20
70,44,163180,20
68,63,163200,500
67,56,163680,720
67,56,164400,260
75,68,164640,360
67,57,165000,120
70,51,165120,500
68,56,165600,720
68,53,166320,260
75,68,166560,360
68,56,166920,120
71,57,167040,500
70,56,167520,720
70,57,168240,260
75,53,168480,360
70,57,168840,120
71,59,168960,240
87,59,169200,480
75,49,169200,480
75,49,169680,480
87,58,169680,480
75,47,170160,120
87,56,170160,120
71,49,170400,120
83,58,170400,120
80,59,170640,120
68,49,170640,120
68,51,170880,120
80,61,170880,120
67,52,171120,480
79,62,171120,480
79,68,171600,480
67,57,171600,480
79,69,172080,120
67,58,172080,120
75,60,172320,120
87,71,172320,120
67,61,172560,120
79,73,172560,120
82,74,172800,120
70,62,172800,120
68,63,173040,480
80,75,173040,480
68,68,173520,480
80,80,173520,480
80,82,174000,120
68,69,174000,120
87,85,174240,120
75,72,174240,120
68,73,174480,120
80,86,174480,120
71,73,174720,120
83,86,174720,120
70,74,174960,480
82,89,174960,480
70,79,175440,480
82,93,175440,480
70,79,175920,120
82,93,175920,120
87,93,176160,120
75,93,176160,120
82,93,176400,120
70,79,176400,120
72,80,176640,960
84,95,176640,960
73,80,177600,960
85,95,177600,960
70,68,178560,480
82,80,178560,65
83,75,178625,64
82,80,178689,65
83,80,178754,64
82,80,178835,78
80,75,178907,77
82,75,178973,67
71,80,179040,1440
83,95,179040,1440
80,95,180480,960
68,80,180480,960
69,80,181440,960
81,94,181440,960
67,68,182400,480
79,80,182400,65
80,75,182465,65
79,80,182529,65
80,80,182594,65
79,80,182675,78
77,75,182747,78
79,75,182813,67
80,95,182880,1440
68,80,182880,1440
76,100,184320,1080
69,83,184320,1080
73,100,184320,1080
81,100,184320,1080
76,48,185400,120
78,49,185520,120
80,51,185640,120
81,51,185760,120
83,52,185880,120
85,53,186000,120
83,51,186120,120
81,49,186240,120
76,47,186360,120
78,48,186480,120
80,48,186600,120
81,49,186720,120
83,50,186840,120
85,51,186960,120
83,50,187080,120
81,48,187200,120
76,49,187320,120
78,50,187440,120
80,50,187560,120
81,51,187680,120
83,51,187800,120
85,51,187920,120
83,49,188040,120
81,47,188160,120
76,48,188280,120
78,51,188400,120
80,51,188520,120
81,54,188640,120
83,56,188760,120
85,57,188880,120
86,60,189000,120
88,61,189120,120
87,59,189240,120
88,57,189360,120
87,56,189480,120
88,54,189600,120
85,52,189720,120
83,51,189840,120
81,50,189960,120
80,48,190080,960
82,50,191040,80
83,50,191120,80
82,50,191200,75
83,50,191275,75
82,50,191350,75
83,50,191425,75
82,50,191500,70
83,48,191570,70
82,49,191640,60
83,50,191700,60
82,51,191760,60
83,51,191820,60
82,51,191880,60
83,52,191940,60
80,56,192000,240
57,73,192480,600
61,73,192480,600
69,87,192480,600
64,87,192480,600
64,48,193080,120
66,49,193200,120
68,50,193320,120
69,51,193440,120
71,51,193560,120
73,52,193680,120
71,51,193800,120
69,48,193920,120
64,48,194040,120
66,48,194160,120
68,49,194280,120
69,50,194400,120
71,50,194520,120
73,51,194640,120
71,51,194760,120
69,48,194880,120
64,48,195000,120
66,48,195120,120
68,50,195240,120
69,51,195360,120
71,51,195480,120
73,51,195600,120
71,50,195720,120
69,49,195840,120
64,50,195960,120
66,51,196080,120
68,51,196200,120
69,52,196320,120
71,53,196440,120
73,56,196560,120
71,56,196680,120
69,57,196800,120
64,58,196920,120
66,59,197040,120
68,60,197160,120
69,62,197280,120
71,62,197400,120
73,62,197520,120
71,63,197640,120
69,66,197760,120
64,67,197880,120
66,68,198000,120
68,68,198120,120
69,70,198240,120
71,71,198360,120
73,72,198480,120
74,73,198600,120
76,74,198720,120
78,75,198840,120
80,76,198960,120
81,77,199080,120
83,79,199200,120
85,79,199320,120
86,79,199440,120
87,80,199560,120
88,84,199680,960
76,71,199680,960
68,71,200640,960
80,84,200640,960
71,71,201600,960
83,84,201600,960
61,71,202560,960
55,60,202560,960
67,84,202560,960
63,71,203520,240
59,71,203520,240
68,84,203520,240
71,51,203760,120
63,51,203760,120
71,51,204000,120
63,51,204000,120
63,51,204240,120
71,51,204240,120
71,51,204480,120
63,51,204480,120
71,51,204720,120
63,51,204720,120
63,49,204960,120
70,49,204960,120
68,47,205200,120
63,47,205200,120
63,59,205440,240
67,59,205440,240
67,49,205680,120
75,49,205680,120
67,49,205920,120
75,49,205920,120
75,50,206160,120
67,50,206160,120
67,51,206400,120
75,51,206400,120
67,51,206640,120
75,51,206640,120
75,51,206880,120
68,51,206880,120
70,53,207120,120
75,53,207120,120
71,58,207360,240
75,58,207360,240
71,50,207600,120
63,50,207600,120
63,50,207840,120
71,50,207840,120
71,50,208080,120
63,50,208080,120
71,50,208320,120
63,50,208320,120
63,50,208560,120
71,50,208560,120
63,48,208800,120
70,48,208800,120
68,47,209040,120
63,47,209040,120
63,58,209280,240
67,58,209280,240
75,49,209520,120
67,49,209520,120
75,49,209760,120
67,49,209760,120
67,51,210000,120
75,51,210000,120
67,49,210240,120
75,49,210240,120
67,49,210480,120
75,49,210480,120
68,51,210720,120
75,51,210720,120
75,51,210960,120
70,51,210960,120
75,56,211200,120
71,56,211200,120
71,50,211440,120
75,50,211440,120
71,50,211680,240
75,50,211680,240
71,49,211920,240
68,49,211920,240
73,50,212400,120
76,50,212400,120
76,50,212640,240
73,50,212640,240
73,49,212880,240
68,49,212880,240
75,47,213360,120
71,47,213360,120
75,47,213600,240
71,47,213600,240
68,49,213840,240
71,49,213840,240
75,49,214320,120
70,49,214320,120
75,47,214560,240
70,47,214560,240
67,47,214800,240
70,47,214800,240
68,49,215040,240
71,49,215040,240
75,51,215280,120
83,51,215280,120
71,43,215280,120
83,56,215520,120
75,56,215520,120
71,47,215520,120
83,58,215760,120
71,49,215760,120
75,58,215760,120
71,52,216000,120
75,62,216000,120
83,62,216000,120
83,66,216240,120
75,66,216240,120
71,56,216240,120
73,68,216480,120
70,57,216480,120
82,68,216480,120
80,72,216720,120
68,61,216720,120
71,72,216720,120
79,75,216960,240
67,63,216960,240
70,75,216960,240
76,64,217200,120
88,76,217200,120
79,76,217200,120
79,82,217440,120
76,69,217440,120
88,82,217440,120
79,79,217680,120
88,79,217680,120
76,67,217680,120
88,82,217920,120
76,69,217920,120
79,82,217920,120
79,79,218160,120
76,67,218160,120
88,79,218160,120
79,81,218400,120
75,68,218400,120
87,81,218400,120
79,79,218640,120
85,79,218640,120
73,67,218640,120
83,82,218880,249
80,82,218880,240
71,69,218880,240
71,41,219120,120
83,49,219120,9
75,49,219120,120
83,52,219360,120
71,44,219360,120
75,52,219360,120
71,48,219600,120
83,57,219600,120
75,57,219600,120
71,51,219840,120
75,61,219840,120
83,61,219840,120
75,66,220080,120
83,66,220080,120
71,56,220080,120
82,69,220320,120
70,58,220320,120
73,69,220320,120
80,73,220560,120
68,62,220560,120
71,73,220560,120
70,78,220800,240
67,66,220800,240
79,78,220800,240
88,78,221040,120
79,78,221040,120
76,66,221040,120
88,82,221280,120
76,69,221280,120
79,82,221280,120
76,66,221520,120
88,78,221520,120
79,78,221520,120
79,82,221760,120
76,69,221760,120
88,82,221760,120
79,79,222000,120
76,67,222000,120
88,79,222000,120
75,68,222240,120
79,80,222240,120
87,80,222240,120
79,79,222480,120
73,67,222480,120
85,79,222480,120
83,82,222720,240
80,82,222720,240
71,69,222720,240
83,50,222960,120
80,50,222960,120
83,50,223200,240
80,50,223200,240
83,48,223440,240
87,48,223440,240
85,49,223920,120
80,49,223920,120
85,49,224160,240
80,49,224160,240
88,47,224400,240
85,47,224400,240
83,49,224880,120
80,49,224880,120
80,49,225120,240
83,49,225120,240
87,47,225360,240
83,47,225360,240
82,51,225840,120
79,51,225840,120
82,51,226080,240
79,51,226080,240
87,47,226320,240
82,47,226320,240
83,56,226800,120
75,56,226800,120
75,51,227040,240
83,51,227040,240
87,51,227280,240
80,51,227280,240
81,62,227760,120
73,62,227760,120
81,56,228000,240
73,56,228000,240
76,56,228240,240
85,56,228240,240
80,57,228720,120
71,57,228720,120
71,57,228960,240
80,57,228960,240
75,51,229200,240
83,51,229200,240
70,52,229680,120
79,52,229680,120
70,51,229920,240
79,51,229920,240
73,42,230160,240
82,42,230160,240
80,50,230400,480
71,50,230400,480
71,50,231840,360
68,50,232200,120
67,57,232320,480
61,39,232800,360
67,47,232800,360
75,47,232800,360
75,47,233280,360
61,39,233280,360
67,47,233280,360
67,50,233760,360
75,50,233760,360
61,42,233760,360
59,50,234120,80
68,50,234180,80
75,57,234240,1440
83,58,235680,360
80,58,236040,120
79,67,236160,480
79,57,236640,360
87,57,236640,360
73,48,236640,360
73,48,237120,360
87,57,237120,360
79,57,237120,360
87,57,237600,360
79,57,237600,360
73,48,237600,360
71,47,237960,80
80,52,238020,80
87,73,238080,840
73,43,238920,80
79,51,238980,80
87,72,239040,840
71,40,239880,80
80,50,239940,80
87,72,240000,840
73,45,240840,80
79,52,240900,80
87,71,240960,960
59,49,241920,119
68,50,242040,119
63,51,242160,119
68,47,242280,119
59,52,242400,119
68,53,242520,119
63,54,242640,119
68,52,242760,119
59,57,242880,119
68,57,243000,119
63,58,243120,119
68,54,243240,119
59,61,243360,119
68,62,243480,119
63,62,243600,119
68,57,243720,119
60,66,243840,119
66,67,243960,119
63,68,244080,119
66,63,244200,119
60,69,244320,119
66,70,244440,119
63,71,244560,119
66,68,244680,119
60,73,244800,119
66,74,244920,119
63,75,245040,119
66,70,245160,119
60,78,245280,119
66,79,245400,119
63,79,245520,119
66,73,245640,119
61,80,245760,120
65,80,245760,120
49,51,245880,140
53,51,246000,140
56,52,246120,140
61,54,246240,140
53,49,246360,140
56,50,246480,140
61,51,246600,140
65,51,246720,140
56,48,246840,140
61,50,246960,140
65,51,247080,140
68,52,247200,140
61,49,247320,140
65,50,247440,140
68,51,247560,140
73,51,247680,140
65,49,247800,140
68,51,247920,140
73,51,248040,140
77,54,248160,140
68,49,248280,140
73,51,248400,140
77,51,248520,140
80,53,248640,140
73,50,248760,140
77,51,248880,140
80,52,249000,120
73,78,249120,120
77,78,249120,120
80,93,249120,120
85,93,249120,120
80,78,249360,120
73,65,249360,120
85,78,249360,120
77,65,249360,120
49,51,249720,140
53,52,249840,140
56,54,249960,140
61,56,250080,140
53,51,250200,140
56,53,250320,140
61,54,250440,140
65,56,250560,140
56,51,250680,140
61,53,250800,140
65,56,250920,140
68,57,251040,140
61,51,251160,140
65,53,251280,140
68,56,251400,140
73,57,251520,140
65,53,251640,140
68,56,251760,140
73,57,251880,140
77,57,252000,140
68,52,252120,140
73,54,252240,140
77,56,252360,140
80,58,252480,140
73,52,252600,140
77,56,252720,140
80,59,252840,120
73,78,252960,120
77,78,252960,120
85,93,252960,120
80,93,252960,120
77,67,253200,120
80,81,253200,120
73,67,253200,120
85,81,253200,120
49,62,253560,140
54,62,253680,140
57,65,253800,140
61,67,253920,60
61,62,254040,140
66,65,254160,140
69,67,254280,140
73,68,254400,60
73,62,254520,140
78,65,254640,140
81,68,254760,120
78,85,254880,120
73,85,254880,120
81,101,254880,120
85,101,254880,120
78,72,255120,120
85,86,255120,120
81,86,255120,120
73,72,255120,120
49,62,255480,140
56,62,255600,140
59,66,255720,140
61,68,255840,60
61,62,255960,140
68,63,256080,140
71,67,256200,140
73,68,256320,60
73,62,256440,140
80,63,256560,140
83,67,256680,120
73,88,256800,120
80,88,256800,120
85,104,256800,120
83,104,256800,120
85,90,257040,120
83,90,257040,120
80,77,257040,120
73,77,257040,120
73,81,257280,240
85,96,257280,240
81,96,257280,240
78,81,257280,240
73,68,257760,980
69,51,258720,380
66,51,259080,60
65,41,259140,20
66,41,259160,20
68,41,259180,20
66,62,259200,500
65,51,259680,720
65,51,260400,260
73,56,260640,360
65,51,261000,120
68,51,261120,500
66,51,261600,720
66,52,262320,260
73,56,262560,380
66,51,262920,120
69,49,263040,500
68,52,263520,720
68,52,264240,260
73,58,264480,360
68,51,264840,120
69,39,264960,140
73,31,265080,140
69,34,265200,140
73,30,265320,140
66,39,265440,140
73,31,265560,140
69,34,265680,140
73,31,265800,140
66,39,265920,140
73,32,266040,140
69,34,266160,140
73,30,266280,140
66,39,266400,140
73,32,266520,140
69,34,266640,140
73,31,266760,140
68,39,266880,140
73,32,267000,140
71,34,267120,140
73,32,267240,140
68,47,267360,140
73,41,267480,140
71,47,267600,140
73,44,267720,140
68,58,267840,140
73,47,267960,140
71,54,268080,140
73,50,268200,140
68,64,268320,140
73,49,268440,140
71,51,268560,140
73,44,268680,140
66,39,268800,140
73,31,268920,140
69,34,269040,140
73,39,269160,140
66,48,269280,140
73,42,269400,140
69,48,269520,140
73,45,269640,140
66,58,269760,140
73,48,269880,140
69,54,270000,140
73,50,270120,140
66,64,270240,140
73,51,270360,140
69,51,270480,140
73,45,270600,140
66,39,270720,140
74,31,270840,140
69,34,270960,140
74,32,271080,140
66,45,271200,140
74,31,271320,140
69,34,271440,140
74,34,271560,140
69,48,271680,140
74,34,271800,140
72,38,271920,140
74,34,272040,140
69,53,272160,140
74,34,272280,140
72,39,272400,140
74,34,272520,140
67,53,272640,140
74,32,272760,140
71,34,272880,140
74,32,273000,140
67,39,273120,140
74,33,273240,140
71,35,273360,140
74,31,273480,140
67,39,273600,140
74,32,273720,140
71,34,273840,140
74,31,273960,140
67,39,274080,140
74,32,274200,140
71,34,274320,140
74,32,274440,140
69,39,274560,140
74,32,274680,140
72,35,274800,140
74,32,274920,140
69,50,275040,140
74,41,275160,140
72,47,275280,140
74,44,275400,140
69,58,275520,140
74,46,275640,140
72,54,275760,140
74,49,275880,140
69,63,276000,140
74,49,276120,140
72,51,276240,140
74,44,276360,140
67,39,276480,140
74,32,276600,140
71,34,276720,140
74,31,276840,140
67,50,276960,140
74,42,277080,140
71,48,277200,140
74,46,277320,140
67,61,277440,140
74,49,277560,140
71,55,277680,140
74,52,277800,140
67,69,277920,140
74,54,278040,140
71,55,278160,140
74,45,278280,140
68,43,278400,140
74,34,278520,140
71,38,278640,140
74,34,278760,140
68,56,278880,140
73,45,279000,140
71,54,279120,140
73,48,279240,140
68,67,279360,140
73,52,279480,140
71,65,279600,140
73,55,279720,140
68,78,279840,140
73,59,279960,140
71,61,280080,140
73,49,280200,140
66,57,280320,140
73,44,280440,140
69,47,280560,140
73,43,280680,140
66,56,280800,140
73,44,280920,140
69,47,281040,140
73,44,281160,140
66,56,281280,140
78,43,281400,140
69,46,281520,140
78,42,281640,140
66,54,281760,140
78,45,281880,140
69,47,282000,140
78,43,282120,140
66,62,282240,140
78,41,282360,140
75,47,282480,140
68,47,282480,140
78,42,282600,140
66,59,282720,140
78,43,282840,140
75,47,282960,140
68,47,282960,140
78,44,283080,140
66,58,283200,140
78,45,283320,140
68,47,283440,140
75,47,283440,140
78,42,283560,140
66,58,283680,140
78,43,283800,140
75,47,283920,140
68,47,283920,140
78,42,284040,140
64,65,284160,140
76,52,284280,140
73,56,284400,140
76,52,284520,140
64,65,284640,140
76,52,284760,140
73,56,284880,140
76,51,285000,140
64,65,285120,140
76,53,285240,140
73,57,285360,140
76,51,285480,140
64,65,285600,140
76,53,285720,140
73,57,285840,140
76,52,285960,140
63,65,286080,140
75,53,286200,140
73,58,286320,140
75,52,286440,140
63,65,286560,140
75,51,286680,140
73,57,286800,140
75,52,286920,140
63,65,287040,140
75,51,287160,140
73,56,287280,140
75,51,287400,140
63,65,287520,140
75,51,287640,140
73,56,287760,140
75,51,287880,120
63,68,288000,240
72,78,288000,240
75,80,288000,240
68,54,288480,960
69,51,289440,240
68,51,289680,240
57,50,289920,960
61,50,289920,960
66,59,289920,480
68,49,290400,240
66,49,290640,240
59,50,290880,960
56,50,290880,960
64,59,290880,480
66,48,291360,240
64,48,291600,240
54,49,291840,960
63,58,291840,480
57,49,291840,960
64,47,292320,240
63,47,292560,240
52,49,292800,960
56,49,292800,960
61,58,292800,480
63,51,293280,240
61,51,293520,240
60,58,293760,960
54,49,293760,960
51,49,293760,960
49,48,294720,840
61,57,294720,840
52,48,294720,840
48,48,295560,60
56,48,295620,60
63,58,295680,360
80,63,296160,720
80,67,296880,120
81,68,297120,120
80,66,297360,120
78,68,297600,120
73,56,297840,120
69,47,297840,120
78,56,297840,120
71,48,298080,120
80,57,298080,120
75,57,298080,120
69,48,298320,120
73,57,298320,120
78,57,298320,120
71,59,298560,120
76,59,298560,120
68,50,298560,120
68,51,298800,120
71,60,298800,120
76,60,298800,120
69,51,299040,120
73,61,299040,120
78,61,299040,120
76,62,299280,120
68,52,299280,120
71,62,299280,120
69,62,299520,120
75,62,299520,120
66,52,299520,120
69,63,299760,120
75,63,299760,120
66,53,299760,120
68,56,300000,120
71,66,300000,120
76,66,300000,120
66,56,300240,120
69,67,300240,120
75,67,300240,120
73,68,300480,120
68,68,300480,120
64,57,300480,120
64,57,300720,120
73,68,300720,120
68,68,300720,120
66,51,300960,120
75,60,300960,120
69,60,300960,120
68,54,301200,120
64,45,301200,120
73,54,301200,120
72,48,301440,960
63,40,301440,960
66,48,301440,960
64,56,302400,840
73,56,302400,840
61,47,302400,840
60,49,303240,60
66,59,303300,1500
75,80,303360,1440
73,58,304800,480
64,58,304800,480
61,49,304800,480
63,39,305280,240
72,47,305280,240
66,47,305280,240
66,53,305760,240
72,53,305760,240
63,45,305760,240
73,62,306240,240
64,62,306240,240
61,52,306240,240
64,68,306720,240
61,57,306720,240
73,68,306720,240
60,51,307080,60
66,59,307140,1500
75,80,307200,1440
64,48,308640,240
61,40,308640,240
73,43,308880,240
66,51,309120,240
63,43,309120,240
72,47,309360,240
63,48,309600,240
66,57,309600,240
72,53,309840,240
61,57,310080,240
64,68,310080,240
73,57,310320,240
61,60,310560,240
64,71,310560,240
73,65,310800,240
60,68,311040,240
66,80,311040,240
75,69,311280,240
60,62,311520,240
66,73,311520,240
75,58,311760,240
64,63,312000,240
61,53,312000,240
73,51,312240,240
64,57,312480,240
61,48,312480,240
73,53,312720,240
63,47,312960,1920
57,39,312960,1920
61,39,312960,1920
69,47,312960,1920
63,31,314880,1920
68,31,314880,1920
56,26,314880,1920
60,26,314880,1920
44,47,316920,115
49,48,317040,140
52,50,317160,140
56,51,317280,140
49,51,317400,140
52,49,317520,140
56,51,317640,140
61,51,317760,140
52,47,317880,140
56,48,318000,140
61,50,318120,140
64,51,318240,140
56,48,318360,140
61,49,318480,140
64,51,318600,140
68,53,318720,140
61,47,318840,140
64,49,318960,140
68,51,319080,140
73,52,319200,140
64,51,319320,140
68,50,319440,140
73,51,319560,140
76,53,319680,140
68,51,319800,140
73,51,319920,140
76,56,320040,120
73,79,320160,120
80,94,320160,120
68,79,320160,120
76,94,320160,120
80,79,320400,120
76,79,320400,120
73,67,320400,120
68,67,320400,120
44,47,320760,115
48,49,320880,140
51,51,321000,140
56,51,321120,140
48,48,321240,140
51,50,321360,140
56,51,321480,140
60,52,321600,140
51,51,321720,140
56,51,321840,140
60,51,321960,140
63,52,322080,140
56,47,322200,140
60,50,322320,140
63,51,322440,140
68,53,322560,140
60,49,322680,140
63,50,322800,140
68,51,322920,140
72,52,323040,140
63,51,323160,140
68,50,323280,140
72,51,323400,140
75,52,323520,140
68,49,323640,140
72,51,323760,140
75,53,323880,120
72,79,324000,120
75,94,324000,120
80,94,324000,120
68,79,324000,120
75,78,324240,120
68,66,324240,120
80,78,324240,120
72,66,324240,120
49,62,324600,140
53,65,324720,140
56,67,324840,140
61,68,324960,140
53,65,325080,140
56,67,325200,140
61,68,325320,140
65,69,325440,140
56,66,325560,140
61,68,325680,140
65,69,325800,140
68,71,325920,140
61,66,326040,140
65,68,326160,140
68,68,326280,140
73,69,326400,140
65,66,326520,140
68,68,326640,140
73,68,326760,140
77,70,326880,140
68,63,327000,140
73,66,327120,140
77,68,327240,140
80,68,327360,140
73,66,327480,140
77,68,327600,140
80,70,327720,120
73,87,327840,120
77,87,327840,120
80,103,327840,120
85,103,327840,120
77,77,328080,120
80,90,328080,120
85,90,328080,120
73,77,328080,120
49,61,328440,140
54,63,328560,140
57,62,328680,140
61,69,328800,60
61,72,328920,140
66,76,329040,140
69,76,329160,140
73,82,329280,60
73,85,329400,140
78,87,329520,140
81,84,329640,140
78,102,329760,120
85,102,329760,120
73,86,329760,120
73,85,330000,120
78,101,330000,120
85,101,330000,120
49,75,330360,140
52,77,330480,140
55,75,330600,140
61,80,330720,60
61,77,330840,140
64,79,330960,140
67,77,331080,140
73,81,331200,60
73,80,331320,140
76,81,331440,140
79,79,331560,120
79,108,331680,120
85,108,331680,120
73,90,331680,120
85,108,331920,120
79,108,331920,120
73,90,331920,120
80,108,332160,240
72,90,332160,240
84,108,332160,240
68,74,332400,120
80,58,332520,120
68,75,332640,120
80,60,332760,120
70,76,332880,120
80,60,333000,120
72,76,333120,120
80,61,333240,120
73,78,333360,120
80,62,333480,120
75,79,333600,120
80,62,333720,120
72,79,333840,120
80,62,333960,120
75,80,334080,120
80,62,334200,120
73,80,334320,120
80,62,334440,120
78,84,334560,120
80,62,334680,120
76,80,334800,120
80,62,334920,120
75,80,335040,120
80,62,335160,120
73,79,335280,120
80,62,335400,120
72,79,335520,120
80,62,335640,120
69,77,335760,120
79,61,335880,120
68,76,336000,120
80,60,336120,120
68,75,336240,120
80,59,336360,120
68,74,336480,120
80,59,336600,120
70,74,336720,120
80,61,336840,120
72,76,336960,120
80,59,337080,120
73,76,337200,120
80,62,337320,120
75,77,337440,120
80,61,337560,120
72,79,337680,120
80,62,337800,120
75,79,337920,120
80,62,338040,120
73,80,338160,120
80,65,338280,120
78,84,338400,120
80,68,338520,120
76,84,338640,120
80,67,338760,120
75,84,338880,120
80,67,339000,120
73,84,339120,120
80,66,339240,120
72,84,339360,120
80,67,339480,120
69,84,339600,120
79,66,339720,120
68,84,339840,120
80,66,339960,120
69,79,340080,120
79,67,340200,120
68,84,340320,120
80,66,340440,120
69,79,340560,120
79,67,340680,120
68,84,340800,120
80,66,340920,120
69,79,341040,120
79,65,341160,120
68,84,341280,120
80,66,341400,120
69,79,341520,120
79,65,341640,120
80,84,341760,240
68,84,341760,240
56,113,342240,1440
68,56,344160,980
64,47,345120,380
61,47,345480,60
60,37,345540,20
61,37,345560,20
63,37,345580,20
61,53,345600,500
60,47,346080,720
60,47,346800,260
68,56,347040,360
60,48,347400,120
63,43,347520,500
61,47,348000,720
61,45,348720,260
68,57,348960,360
61,47,349320,120
64,48,349440,500
63,47,349920,720
63,48,350640,260
68,54,350880,380
63,48,351240,120
64,51,351360,120
80,58,351600,480
68,48,351600,480
68,45,352080,480
80,53,352080,480
80,56,352560,120
68,47,352560,120
64,49,352800,120
76,58,352800,120
73,56,353040,120
61,47,353040,120
61,51,353280,120
73,61,353280,120
60,52,353520,480
72,62,353520,480
72,68,354000,480
60,57,354000,480
60,58,354480,120
72,69,354480,120
80,71,354720,120
68,60,354720,120
72,69,354960,120
60,58,354960,120
75,74,355200,120
63,62,355200,120
61,63,355440,480
73,75,355440,480
61,68,355920,480
73,80,355920,480
73,75,356400,120
61,63,356400,120
80,85,356640,120
68,72,356640,120
73,86,356880,120
61,73,356880,120
64,73,357120,120
76,86,357120,120
63,72,357360,480
75,85,357360,480
75,93,357840,480
63,79,357840,480
63,75,358320,120
75,90,358320,120
68,79,358560,120
80,93,358560,120
75,90,358800,120
63,75,358800,120
65,80,359040,960
77,95,359040,960
66,80,360000,960
78,95,360000,960
63,67,360960,480
75,80,360960,65
76,75,361025,65
75,80,361089,65
76,80,361154,65
75,80,361235,78
73,75,361307,78
75,75,361373,67
76,95,361440,1440
64,80,361440,1440
73,95,362880,960
61,80,362880,960
62,80,363840,960
74,94,363840,960
60,67,364800,480
72,80,364800,65
73,75,364865,65
72,80,364929,65
73,80,364994,65
72,80,365075,78
70,75,365147,78
72,75,365213,67
61,80,365280,1440
73,95,365280,1440
66,83,366720,1080
69,100,366720,1080
74,100,366720,1080
62,83,366720,1080
69,48,367800,120
71,48,367920,120
73,49,368040,120
74,50,368160,120
76,51,368280,120
78,51,368400,120
76,49,368520,120
74,49,368640,120
69,47,368760,120
71,48,368880,120
73,49,369000,120
74,50,369120,120
76,51,369240,120
78,51,369360,120
76,50,369480,120
74,48,369600,120
69,48,369720,120
71,50,369840,120
73,51,369960,120
74,51,370080,120
76,52,370200,120
78,52,370320,120
76,51,370440,120
74,47,370560,120
69,48,370680,120
71,51,370800,120
73,51,370920,120
74,54,371040,120
76,56,371160,120
78,57,371280,120
79,60,371400,120
81,61,371520,120
80,59,371640,120
83,57,371760,120
81,56,371880,120
79,54,372000,120
78,52,372120,120
76,51,372240,120
74,50,372360,120
73,48,372480,960
75,50,373440,80
76,50,373520,80
75,50,373600,75
76,50,373675,75
75,50,373750,75
76,50,373825,75
75,49,373900,70
76,49,373970,70
75,50,374040,60
76,51,374100,60
75,51,374160,80
73,51,374240,80
75,52,374320,80
73,56,374400,240
62,87,374880,600
54,73,374880,600
57,87,374880,600
50,73,374880,600
57,48,375480,120
59,48,375600,120
61,49,375720,120
62,50,375840,120
64,51,375960,120
66,51,376080,120
64,51,376200,120
62,48,376320,120
57,47,376440,120
59,48,376560,120
61,48,376680,120
62,49,376800,120
64,50,376920,120
66,51,377040,120
64,48,377160,120
62,48,377280,120
57,48,377400,120
59,48,377520,120
61,50,377640,120
62,50,377760,120
64,50,377880,120
66,50,378000,120
64,50,378120,120
62,49,378240,120
57,51,378360,120
59,51,378480,120
61,53,378600,120
62,56,378720,120
64,56,378840,120
66,57,378960,120
67,59,379080,120
69,61,379200,120
71,62,379320,120
73,63,379440,120
74,66,379560,120
76,68,379680,120
78,68,379800,120
79,70,379920,120
80,72,380040,120
81,79,380160,960
69,67,380160,960
73,77,381120,960
61,65,381120,960
64,65,382080,960
76,77,382080,960
48,65,383040,960
54,65,383040,960
60,77,383040,960
64,48,384240,120
56,48,384240,120
64,48,384480,120
56,48,384480,120
64,48,384720,120
56,48,384720,120
64,48,384960,120
56,48,384960,120
64,48,385200,120
56,48,385200,120
63,46,385440,120
56,46,385440,120
56,45,385680,120
61,45,385680,120
60,53,385920,240
56,53,385920,240
60,48,386160,120
68,48,386160,120
68,48,386400,120
60,48,386400,120
60,48,386640,120
68,48,386640,120
60,48,386880,120
68,48,386880,120
68,48,387120,120
60,48,387120,120
68,48,387360,120
61,48,387360,120
68,51,387600,120
63,51,387600,120
64,59,387840,240
68,59,387840,240
56,48,388080,120
64,48,388080,120
64,48,388320,120
56,48,388320,120
56,49,388560,120
64,49,388560,120
56,49,388800,120
64,49,388800,120
64,49,389040,120
56,49,389040,120
56,47,389280,120
63,47,389280,120
61,48,389520,120
56,48,389520,120
56,59,389760,240
60,59,389760,240
68,47,390000,120
60,47,390000,120
68,47,390240,120
60,47,390240,120
60,47,390480,120
68,47,390480,120
60,47,390720,120
68,47,390720,120
60,47,390960,120
68,47,390960,120
61,47,391200,120
68,47,391200,120
68,51,391440,120
63,51,391440,120
68,61,391680,120
64,61,391680,120
68,47,391920,120
64,47,391920,120
64,48,392160,240
68,48,392160,240
61,45,392400,240
64,45,392400,240
66,48,392880,120
69,48,392880,120
69,48,393120,240
66,48,393120,240
61,46,393360,240
66,46,393360,240
68,47,393840,120
64,47,393840,120
68,47,394080,240
64,47,394080,240
64,46,394320,240
61,46,394320,240
63,47,394800,120
68,47,394800,120
63,47,395040,240
68,47,395040,240
60,45,395280,240
63,45,395280,240
61,59,395520,240
64,59,395520,240
64,39,395760,120
76,47,395760,120
68,47,395760,120
76,47,396000,120
64,39,396000,120
68,47,396000,120
64,39,396240,120
68,47,396240,120
76,47,396240,120
68,47,396480,120
64,39,396480,120
76,47,396480,120
68,47,396720,120
64,39,396720,120
76,47,396720,120
66,50,396960,120
63,42,396960,120
75,50,396960,120
61,44,397200,120
73,52,397200,120
64,52,397200,120
63,58,397440,240
72,58,397440,240
60,49,397440,240
72,68,397680,120
75,81,397680,120
84,81,397680,120
75,86,397920,120
72,73,397920,120
84,86,397920,120
72,68,398160,120
84,80,398160,120
75,80,398160,120
72,73,398400,120
75,86,398400,120
84,86,398400,120
72,68,398640,120
84,81,398640,120
75,81,398640,120
76,89,398880,120
73,74,398880,120
85,89,398880,120
87,84,399120,120
75,71,399120,120
78,84,399120,120
88,96,399360,240
80,96,399360,240
76,81,399360,240
68,47,399600,120
64,39,399600,120
76,47,399600,120
64,39,399840,120
68,47,399840,120
76,47,399840,120
68,47,400080,120
64,39,400080,120
76,47,400080,120
76,48,400320,120
64,40,400320,120
68,48,400320,120
68,48,400560,120
64,40,400560,120
76,48,400560,120
63,40,400800,120
66,48,400800,120
75,48,400800,120
64,50,401040,120
73,50,401040,120
61,42,401040,120
72,56,401280,240
63,56,401280,240
60,47,401280,240
75,78,401520,120
84,78,401520,120
72,66,401520,120
75,86,401760,120
72,73,401760,120
84,86,401760,120
75,80,402000,120
72,68,402000,120
84,80,402000,120
84,86,402240,120
72,73,402240,120
75,86,402240,120
75,86,402480,120
84,86,402480,120
72,73,402480,120
73,73,402720,120
85,86,402720,120
76,86,402720,120
87,80,402960,120
75,68,402960,120
78,80,402960,120
76,82,403200,240
80,97,403200,240
88,97,403200,240
80,50,403440,120
85,50,403440,120
85,50,403680,240
80,50,403680,240
80,48,403920,240
76,48,403920,240
81,49,404400,120
85,49,404400,120
85,49,404640,240
81,49,404640,240
78,48,404880,240
81,48,404880,240
80,49,405360,120
76,49,405360,120
76,49,405600,240
80,49,405600,240
73,47,405840,240
76,47,405840,240
80,51,406320,120
75,51,406320,120
75,51,406560,240
80,51,406560,240
72,49,406800,240
75,49,406800,240
76,56,407280,120
80,56,407280,120
76,56,407520,240
80,56,407520,240
68,54,407760,240
76,54,407760,240
78,65,408240,120
69,65,408240,120
78,63,408480,240
69,63,408480,240
66,62,408720,240
74,62,408720,240
76,57,409200,120
68,57,409200,120
68,57,409440,240
76,57,409440,240
64,57,409680,240
73,57,409680,240
75,49,410160,120
66,49,410160,120
75,49,410400,240
66,49,410400,240
72,47,410640,240
63,47,410640,240
73,50,410880,480
64,50,410880,480
64,50,412320,360
61,50,412680,120
60,57,412800,480
60,47,413280,360
54,39,413280,360
68,47,413280,360
60,47,413760,360
68,47,413760,360
54,39,413760,360
54,42,414240,360
60,50,414240,360
68,50,414240,360
52,50,414600,60
61,50,414660,60
68,57,414720,1440
76,58,416160,360
73,58,416520,120
72,67,416640,480
80,57,417120,360
66,48,417120,360
72,57,417120,360
72,57,417600,360
66,48,417600,360
80,57,417600,360
72,57,418080,360
80,57,418080,360
66,48,418080,360
64,47,418440,60
73,53,418500,60
80,73,418560,840
66,45,419400,60
72,52,419460,60
80,72,419520,840
64,43,420360,60
73,53,420420,60
80,72,420480,840
66,45,421320,60
72,53,421380,60
80,71,421440,960
52,51,422400,119
61,48,422520,119
56,51,422640,119
61,49,422760,119
52,53,422880,119
61,51,423000,119
56,56,423120,119
61,52,423240,119
52,57,423360,119
61,53,423480,119
56,59,423600,119
61,56,423720,119
52,61,423840,119
61,57,423960,119
56,62,424080,119
61,57,424200,119
53,65,424320,119
49,65,424320,119
61,58,424440,119
56,67,424560,119
61,60,424680,119
53,68,424800,119
49,68,424800,119
61,61,424920,119
56,69,425040,119
61,65,425160,119
53,72,425280,119
49,72,425280,119
61,67,425400,119
56,73,425520,119
61,68,425640,119
49,74,425760,119
53,74,425760,119
61,70,425880,119
56,76,426000,119
61,71,426120,102
54,67,426240,120
61,79,426240,120
49,67,426240,120
57,67,426240,120
49,53,426360,140
54,56,426480,140
57,57,426600,140
61,59,426720,140
54,54,426840,140
57,54,426960,140
61,56,427080,140
66,57,427200,140
57,53,427320,140
61,56,427440,140
66,57,427560,140
69,58,427680,140
61,53,427800,140
66,53,427920,140
69,54,428040,140
73,57,428160,140
66,58,428280,140
69,51,428400,140
73,52,428520,140
78,56,428640,140
69,51,428760,140
73,51,428880,140
78,53,429000,140
81,56,429120,140
73,51,429240,140
78,54,429360,140
81,57,429480,120
85,98,429600,120
73,83,429600,120
81,98,429600,120
78,83,429600,120
81,81,429840,120
78,69,429840,120
85,81,429840,120
73,69,429840,120
49,58,430200,140
52,60,430320,140
56,62,430440,140
61,65,430560,140
52,60,430680,140
56,62,430800,140
61,63,430920,140
64,66,431040,140
56,61,431160,140
61,62,431280,140
64,63,431400,140
68,67,431520,140
61,61,431640,140
64,62,431760,140
68,63,431880,140
73,66,432000,140
64,63,432120,140
68,63,432240,140
73,62,432360,140
76,66,432480,140
68,62,432600,140
73,62,432720,140
76,67,432840,140
80,68,432960,140
73,62,433080,140
76,66,433200,140
80,68,433320,120
85,109,433440,120
76,92,433440,120
73,92,433440,120
80,109,433440,120
73,81,433680,120
76,81,433680,120
80,96,433680,120
85,96,433680,120
49,31,434160,960
52,33,434220,900
55,35,434280,840
58,39,434340,780
61,45,434400,720
61,53,435120,960
64,56,435180,900
67,58,435240,840
70,61,435300,780
73,62,435360,480
73,66,436080,1680
76,68,436140,1620
79,73,436200,1560
82,76,436260,1500
85,79,436320,1440
45,29,438000,960
48,32,438060,900
51,35,438120,840
54,38,438180,780
57,41,438240,720
57,56,438960,960
60,57,439020,900
63,58,439080,840
66,59,439140,780
69,62,439200,480
69,73,439800,1800
72,77,439920,1680
75,79,440040,1560
81,91,440160,1440
68,31,441720,140
64,34,441840,140
68,30,441960,140
61,39,442080,119
68,30,442200,119
64,34,442320,119
68,30,442440,119
61,39,442560,119
68,31,442680,119
64,34,442800,119
68,30,442920,119
61,39,443040,119
68,31,443160,119
64,34,443280,119
68,31,443400,119
63,39,443520,140
68,31,443640,140
66,34,443760,140
68,30,443880,140
63,50,444000,119
68,43,444120,119
66,47,444240,119
68,44,444360,119
63,58,444480,119
68,46,444600,119
66,54,444720,119
68,51,444840,119
63,66,444960,119
68,49,445080,119
66,51,445200,119
68,43,445320,119
61,39,445440,140
68,30,445560,140
64,34,445680,140
68,31,445800,140
61,50,445920,119
68,40,446040,119
64,47,446160,119
68,43,446280,119
61,58,446400,119
68,48,446520,119
64,54,446640,119
68,49,446760,119
61,66,446880,119
68,49,447000,119
64,51,447120,119
68,42,447240,119
60,39,447360,140
68,29,447480,140
66,34,447600,140
68,30,447720,140
60,50,447840,119
68,40,447960,119
66,47,448080,119
68,43,448200,119
60,58,448320,119
68,49,448440,119
66,54,448560,119
68,49,448680,119
60,66,448800,119
68,48,448920,119
66,51,449040,119
68,43,449160,102
64,41,449280,240
68,41,449280,240
61,41,449280,240
80,57,449760,960
68,57,449760,960
64,47,450720,360
76,47,450720,360
61,47,451080,115
73,47,451080,115
73,54,451200,480
61,54,451200,480
72,46,451680,720
60,46,451680,720
72,47,452400,240
60,47,452400,240
80,56,452640,360
68,56,452640,360
60,47,453000,120
72,47,453000,120
63,46,453120,480
75,46,453120,480
61,47,453600,720
73,47,453600,720
73,46,454320,240
61,46,454320,240
80,56,454560,360
68,56,454560,360
61,46,454920,120
73,46,454920,120
76,49,455040,480
64,49,455040,480
75,48,455520,720
63,48,455520,720
63,47,456240,240
75,47,456240,240
80,54,456480,360
68,54,456480,360
75,47,456840,120
63,47,456840,120
66,50,456960,240
78,50,456960,240
64,48,457200,240
76,48,457200,240
85,54,457440,120
73,54,457440,120
64,51,457680,120
76,51,457680,120
66,57,457920,240
78,57,457920,240
77,56,458160,240
65,56,458160,240
73,60,458400,120
85,60,458400,120
65,60,458640,120
77,60,458640,120
80,66,458880,240
68,66,458880,240
66,63,459120,240
78,63,459120,240
73,68,459360,120
85,68,459360,120
66,68,459600,120
78,68,459600,120
81,73,459840,240
69,73,459840,240
80,72,460080,240
68,72,460080,240
73,78,460320,120
85,78,460320,120
68,76,460560,120
80,76,460560,120
81,84,460800,160
78,67,460960,160
73,66,461120,160
69,73,461280,160
66,62,461440,160
61,63,461600,160
69,71,461760,160
66,63,461920,160
61,63,462080,160
57,71,462240,160
54,61,462400,160
49,62,462560,160
57,78,462720,120
54,61,462840,120
49,67,462960,120
45,62,463080,120
49,71,463200,120
52,62,463320,120
56,67,463440,120
61,62,463560,120
66,71,463680,120
69,61,463800,120
73,67,463920,120
78,60,464040,120
81,72,464160,120
78,63,464280,120
73,68,464400,120
69,65,464520,120
81,84,464640,160
78,65,464800,160
74,66,464960,160
69,71,465120,160
66,62,465280,160
62,65,465440,160
69,70,465600,160
66,62,465760,160
62,63,465920,160
57,72,466080,160
54,62,466240,160
50,62,466400,160
57,77,466560,120
54,65,466680,120
50,70,466800,120
45,66,466920,120
50,73,467040,120
54,62,467160,120
57,68,467280,120
62,63,467400,120
66,72,467520,120
69,62,467640,120
74,68,467760,120
78,65,467880,120
81,78,468000,120
78,66,468120,120
74,70,468240,120
69,67,468360,120
85,85,468480,160
82,68,468640,160
79,67,468800,160
76,78,468960,160
73,65,469120,160
70,67,469280,160
76,78,469440,160
73,68,469600,160
70,68,469760,160
67,74,469920,120
64,62,470040,120
61,67,470160,120
58,62,470280,120
64,72,470400,120
61,63,470520,120
58,68,470640,120
55,63,470760,120
52,73,470880,120
49,65,471000,120
52,68,471120,120
55,63,471240,120
58,79,471360,80
61,64,471440,80
64,69,471520,80
67,66,471600,80
70,70,471680,80
73,65,471760,80
76,71,471840,80
79,67,471920,80
82,72,472000,80
85,67,472080,80
82,73,472160,80
76,68,472240,80
88,87,472320,160
85,67,472480,160
80,67,472640,160
76,78,472800,160
73,66,472960,160
68,67,473120,160
76,78,473280,160
73,66,473440,160
68,66,473600,160
64,78,473760,120
73,67,473880,120
68,70,474000,120
64,68,474120,120
61,79,474240,120
68,65,474360,120
64,68,474480,120
61,65,474600,120
56,78,474720,120
64,63,474840,120
61,67,474960,120
56,62,475080,120
52,79,475200,120
61,65,475320,120
56,68,475440,120
52,65,475560,120
49,78,475680,120
56,63,475800,120
52,68,475920,120
49,62,476040,120
44,47,476160,120
45,47,476280,120
46,48,476400,120
47,49,476520,120
48,51,476640,120
49,51,476760,120
50,51,476880,120
51,52,477000,120
52,54,477120,120
53,56,477240,120
54,56,477360,120
55,57,477480,120
56,58,477600,120
57,59,477720,120
58,60,477840,120
59,61,477960,120
60,62,478080,120
61,62,478200,120
62,63,478320,120
63,65,478440,120
64,67,478560,96
65,68,478656,96
66,68,478752,96
67,68,478848,96
68,69,478944,96
69,70,479040,96
70,71,479136,96
71,72,479232,96
72,73,479328,96
73,73,479424,96
74,74,479520,80
75,74,479600,80
76,75,479680,80
77,76,479760,60
78,77,479820,60
79,77,479880,60
80,77,479940,60
81,81,480000,90
83,72,480090,90
81,77,480180,80
83,71,480260,80
81,79,480340,80
83,71,480420,80
81,81,480500,80
83,74,480580,80
81,81,480660,80
83,73,480740,80
81,81,480820,80
83,79,480900,80
81,79,480980,75
83,76,481055,75
81,79,481130,75
83,76,481205,75
81,78,481280,70
83,74,481350,75
81,77,481425,75
83,70,481500,80
81,74,481580,80
83,68,481660,80
81,74,481740,90
83,68,481830,90
80,75,481920,160
78,62,482080,160
76,62,482240,160
75,62,482400,160
78,65,482560,160
73,62,482720,160
72,62,482880,160
75,65,483040,160
69,62,483200,160
68,62,483360,160
66,62,483520,160
69,65,483680,160
64,62,483840,160
63,62,484000,160
66,66,484160,160
61,62,484320,160
60,62,484480,160
63,62,484640,160
57,62,484800,160
56,62,484960,160
54,62,485120,160
57,63,485280,160
52,62,485440,160
51,62,485600,160
54,65,485760,160
49,62,485920,160
48,62,486080,160
51,61,486240,120
45,58,486400,120
44,52,486560,120
64,41,492000,360
61,41,492360,120
60,49,492480,480
60,42,492960,480
68,42,492960,480
54,35,492960,480
60,41,493440,480
54,34,493440,480
68,41,493440,480
54,34,493920,360
68,41,493920,360
60,41,493920,360
52,33,494280,60
61,39,494340,60
68,49,494400,1440
76,47,495840,360
73,47,496200,120
72,56,496320,480
66,39,496800,480
72,47,496800,480
80,47,496800,480
80,47,497280,480
72,47,497280,480
66,39,497280,480
72,47,497760,360
66,39,497760,360
80,47,497760,360
64,41,498120,60
73,46,498180,60
80,58,498240,840
66,49,499080,60
72,53,499140,60
80,63,499200,840
64,56,500040,60
73,62,500100,60
80,70,500160,840
66,60,501000,60
72,68,501060,60
80,80,501120,840
64,68,501960,60
73,68,502020,60
80,74,502080,140
64,68,502200,140
68,71,502320,140
73,68,502440,140
76,74,502560,140
68,69,502680,140
73,72,502800,140
76,68,502920,140
80,74,503040,140
73,68,503160,140
76,71,503280,140
80,69,503400,140
85,75,503520,140
76,72,503640,140
80,74,503760,140
85,72,503880,140
88,80,504000,140
85,80,504120,140
80,79,504240,140
76,74,504360,140
85,81,504480,140
80,80,504600,140
76,79,504720,140
73,73,504840,140
80,80,504960,140
76,79,505080,140
73,78,505200,140
68,74,505320,140
76,80,505440,140
73,80,505560,140
68,78,505680,140
64,73,505800,140
73,78,505920,140
68,75,506040,140
64,74,506160,140
61,69,506280,140
68,78,506400,140
64,75,506520,140
61,74,506640,140
56,71,506760,140
64,78,506880,140
61,75,507000,140
56,74,507120,140
52,71,507240,140
61,78,507360,140
56,75,507480,140
52,74,507600,140
56,71,507720,140
49,74,507840,480
73,83,508800,360
80,98,508800,360
76,83,508800,360
85,98,508800,360
61,83,509760,360
64,83,509760,360
68,97,509760,360
73,97,509760,360
37,42,1,120
44,39,240,120
37,43,480,120
44,39,720,120
37,41,960,120
44,39,1200,120
37,42,1440,120
44,39,1680,120
37,43,1920,120
44,41,2160,120
37,43,2400,120
44,40,2640,120
37,41,2880,120
44,39,3120,120
49,78,3360,120
37,65,3360,120
44,67,3600,120
36,41,3840,120
44,37,4080,120
36,41,4320,120
44,37,4560,120
36,40,4800,120
44,37,5040,120
36,40,5280,120
44,38,5520,120
36,40,5760,120
44,36,6000,120
36,40,6240,120
44,37,6480,120
36,40,6720,120
44,37,6960,120
48,78,7200,120
36,65,7200,120
44,65,7440,120
35,55,7680,120
44,50,7920,120
35,56,8160,120
44,51,8400,120
35,56,8640,120
44,52,8880,120
35,56,9120,120
44,52,9360,120
35,56,9600,120
44,52,9840,120
35,56,10080,120
44,51,10320,120
35,56,10560,120
44,51,10800,120
35,82,11040,120
47,82,11040,120
44,73,11280,120
33,50,11520,120
45,51,11760,120
33,57,12000,120
45,60,12240,120
33,57,12480,120
45,57,12720,120
33,77,12960,120
45,77,13200,120
33,67,13440,120
45,63,13680,120
33,67,13920,120
45,63,14160,120
33,67,14400,120
45,63,14640,120
33,83,14880,120
45,83,15120,120
44,77,15360,240
32,64,15360,240
60,62,15600,240
56,62,15600,3600
60,62,15840,240
61,62,16080,240
63,64,16320,240
64,66,16560,240
66,67,16800,240
63,68,17040,240
66,69,17280,240
64,71,17520,240
69,72,17760,240
68,71,18000,240
66,69,18240,240
64,68,18480,240
63,67,18720,240
61,66,18960,240
60,64,19200,240
56,64,19200,3840
60,63,19440,240
60,62,19680,240
61,60,19920,240
63,62,20160,240
64,62,20400,240
66,65,20640,240
63,67,20880,240
66,68,21120,240
64,68,21360,240
69,68,21600,240
68,67,21840,240
66,67,22080,240
64,67,22320,240
63,67,22560,240
61,67,22800,240
56,60,23040,120
60,71,23040,120
61,62,23280,120
56,52,23280,120
56,56,23520,120
60,67,23520,120
61,62,23760,120
56,52,23760,120
56,60,24000,120
60,71,24000,120
56,52,24240,120
61,62,24240,120
56,56,24480,120
60,67,24480,120
61,61,24720,120
56,51,24720,120
56,60,24960,240
60,71,24960,240
32,77,25440,1440
44,90,25440,1440
37,43,26880,120
44,39,27120,120
37,43,27360,120
44,39,27600,120
37,43,27840,120
44,39,28080,120
37,43,28320,120
44,39,28560,120
37,43,28800,120
44,39,29040,120
37,43,29280,120
44,39,29520,120
37,43,29760,120
44,39,30000,120
37,73,30240,120
49,87,30240,120
44,74,30480,120
34,40,30720,120
49,36,30960,120
46,40,31200,120
49,37,31440,120
46,40,31680,120
49,37,31920,120
46,40,32160,120
49,37,32400,120
46,40,32640,120
49,37,32880,120
46,40,33120,120
49,36,33360,120
46,40,33600,120
49,37,33840,120
46,87,34080,120
34,73,34080,120
49,72,34320,120
31,39,34560,120
51,36,34800,120
43,40,35040,120
51,39,35280,120
43,43,35520,120
51,40,35760,120
43,45,36000,120
51,43,36240,120
43,47,36480,120
51,44,36720,120
43,49,36960,120
51,45,37200,120
43,51,37440,120
51,48,37680,120
43,47,37920,120
51,45,38160,120
44,33,38400,140
51,26,38520,140
47,28,38640,140
51,25,38760,140
44,33,38880,119
51,25,39000,119
47,28,39120,119
51,24,39240,119
44,33,39360,119
51,26,39480,119
47,29,39600,119
51,25,39720,119
44,33,39840,119
51,26,39960,119
47,29,40080,119
51,25,40200,119
46,33,40320,140
51,26,40440,140
49,29,40560,140
51,26,40680,140
46,41,40800,119
51,35,40920,119
49,40,41040,119
51,37,41160,119
46,49,41280,119
51,40,41400,119
49,46,41520,119
51,42,41640,119
46,56,41760,119
51,41,41880,119
49,43,42000,119
51,36,42120,119
47,33,42240,119
51,28,42360,119
47,30,42480,119
51,26,42600,119
47,41,42720,119
51,37,42840,119
47,39,42960,119
51,36,43080,119
47,49,43200,119
51,43,43320,119
47,48,43440,119
51,42,43560,119
47,54,43680,119
51,41,43800,119
47,43,43920,119
51,36,44040,119
43,32,44160,119
51,25,44280,119
43,29,44400,119
51,26,44520,119
43,41,44640,119
51,37,44760,119
43,42,44880,119
51,43,45000,119
43,48,45120,119
51,43,45240,119
43,49,45360,119
51,46,45480,119
43,54,45600,119
51,38,45720,119
43,42,45840,119
51,36,45960,119
44,39,46080,140
51,32,46200,140
47,35,46320,119
51,31,46440,119
44,40,46560,119
51,31,46680,119
47,34,46800,119
51,31,46920,119
44,41,47040,119
51,32,47160,119
47,35,47280,119
51,32,47400,119
44,43,47520,140
51,37,47640,140
47,37,47760,140
51,34,47880,140
46,46,48000,140
51,34,48120,140
49,39,48240,119
51,34,48360,119
46,47,48480,119
51,35,48600,119
49,40,48720,119
51,35,48840,119
46,49,48960,119
51,35,49080,119
49,41,49200,119
51,37,49320,119
46,50,49440,140
51,40,49560,140
49,45,49680,140
51,41,49800,140
47,51,49920,140
51,44,50040,140
47,47,50160,119
51,43,50280,119
47,52,50400,119
51,44,50520,119
47,48,50640,119
51,48,50760,119
47,56,50880,119
51,47,51000,119
47,50,51120,119
51,45,51240,140
47,57,51360,140
51,49,51480,140
47,51,51600,140
51,47,51720,140
43,59,51840,140
51,53,51960,140
43,56,52080,119
51,56,52200,119
43,60,52320,119
51,52,52440,119
43,57,52560,119
51,52,52680,119
43,62,52800,119
51,53,52920,119
43,59,53040,140
51,53,53160,140
43,62,53280,140
51,54,53400,140
43,60,53520,140
51,54,53640,140
42,66,53760,137
51,54,53880,137
44,61,54000,137
51,54,54120,137
42,66,54240,137
51,56,54360,137
44,61,54480,137
51,56,54600,137
40,66,54720,137
49,56,54840,137
44,62,54960,137
49,56,55080,137
40,66,55200,137
49,56,55320,137
44,61,55440,137
49,56,55560,137
40,66,55680,119
49,56,55800,119
42,61,55920,119
49,56,56040,119
39,66,56160,137
47,57,56280,137
42,62,56400,137
47,57,56520,137
39,66,56640,137
47,56,56760,137
42,61,56880,137
47,56,57000,137
39,66,57120,137
47,56,57240,137
42,60,57360,137
47,56,57480,137
38,66,57600,140
47,58,57720,140
40,62,57840,140
47,58,57960,140
38,66,58080,140
47,58,58200,140
40,62,58320,140
47,57,58440,140
37,66,58560,119
45,57,58680,119
40,62,58800,119
45,56,58920,119
37,66,59040,119
45,57,59160,119
40,62,59280,119
45,57,59400,119
37,66,59520,119
46,56,59640,119
39,60,59760,119
46,56,59880,119
35,66,60000,137
44,57,60120,137
39,61,60240,137
44,57,60360,137
35,66,60480,137
44,56,60600,137
39,61,60720,137
44,57,60840,137
35,66,60960,137
44,56,61080,137
39,61,61200,137
44,58,61320,137
45,75,61440,1440
40,64,61440,1440
49,75,61440,1440
37,64,61440,1440
64,42,63360,480
61,42,63360,480
69,50,63360,476
64,41,64320,480
61,41,64320,480
69,49,64320,480
64,41,65280,480
61,41,65280,480
69,49,65280,480
64,44,65760,480
61,44,65760,480
69,52,65760,480
69,60,66240,480
64,51,66240,480
61,51,66240,480
69,56,66720,480
64,47,66720,480
61,47,66720,480
63,49,67200,119
71,44,67320,119
68,47,67440,119
71,44,67560,119
63,51,67680,119
71,43,67800,119
68,47,67920,119
71,43,68040,119
63,51,68160,119
73,45,68280,119
67,47,68400,119
73,43,68520,119
63,51,68640,119
73,43,68760,119
67,47,68880,119
73,43,69000,119
68,56,69120,240
64,56,69120,240
71,56,69120,240
40,62,69600,960
45,73,69600,960
49,73,69600,960
37,62,69600,960
52,41,71520,480
49,41,71520,480
57,49,71520,480
52,41,72480,480
49,41,72480,480
57,49,72480,480
57,51,73200,240
49,43,73200,240
52,43,73200,240
57,61,73680,240
49,51,73680,240
52,51,73680,240
57,68,74160,240
52,57,74160,240
49,57,74160,240
57,68,74640,240
52,57,74640,240
49,57,74640,240
52,56,74880,480
57,67,74880,480
49,56,74880,480
49,70,76800,119
57,61,76920,119
52,66,77040,119
57,62,77160,119
49,70,77280,119
57,61,77400,119
52,65,77520,119
57,61,77640,119
50,70,77760,119
59,61,77880,119
53,66,78000,119
59,62,78120,119
50,70,78240,119
59,61,78360,119
53,63,78480,119
59,61,78600,119
51,70,78720,119
59,61,78840,119
56,66,78960,119
59,66,79080,119
51,70,79200,119
59,62,79320,119
56,66,79440,119
59,62,79560,119
39,70,79680,119
51,62,79800,119
50,67,79920,119
51,62,80040,119
50,70,80160,119
51,62,80280,119
50,67,80400,119
51,61,80520,102
44,71,80640,240
56,43,81120,120
56,43,81360,120
56,43,81600,120
56,43,81840,120
58,42,82080,120
59,42,82320,120
51,47,82560,240
61,47,82560,240
63,42,82800,120
61,42,82800,120
61,41,83040,120
63,41,83040,120
61,41,83280,120
63,41,83280,120
63,41,83520,120
61,41,83520,120
61,41,83760,120
63,41,83760,120
63,41,84000,120
59,41,84000,120
58,40,84240,120
63,40,84240,120
56,47,84480,240
44,47,84480,240
56,42,84720,120
56,42,84960,120
56,42,85200,120
56,43,85440,120
56,42,85680,120
58,43,85920,120
59,43,86160,120
61,47,86400,240
51,47,86400,240
61,41,86640,120
63,41,86640,120
61,43,86880,120
63,43,86880,120
63,42,87120,120
61,42,87120,120
61,42,87360,120
63,42,87360,120
63,42,87600,120
61,42,87600,120
59,42,87840,120
63,42,87840,120
63,42,88080,120
58,42,88080,120
44,48,88320,120
59,39,88560,120
56,39,88560,120
56,39,88800,240
59,39,88800,240
63,39,89040,240
59,39,89040,240
49,47,89280,120
61,43,89520,120
56,43,89520,120
61,43,89760,240
56,43,89760,240
64,40,90000,240
61,40,90000,240
51,47,90240,120
56,41,90480,120
59,41,90480,120
59,42,90720,240
56,42,90720,240
63,39,90960,240
59,39,90960,240
51,47,91200,120
58,39,91440,120
55,39,91440,120
58,39,91680,240
55,39,91680,240
58,39,91920,240
63,39,91920,240
32,42,92160,240
44,42,92160,240
51,41,92400,120
44,41,92400,120
44,43,92640,120
51,43,92640,120
51,47,92880,120
44,47,92880,120
44,50,93120,120
51,50,93120,120
51,52,93360,120
44,52,93360,120
51,57,93600,120
46,57,93600,120
51,59,93840,120
47,59,93840,120
51,62,94080,240
49,62,94080,240
39,52,94080,240
51,62,94320,120
61,62,94320,120
51,67,94560,120
61,67,94560,120
61,63,94800,120
51,63,94800,120
51,66,95040,120
61,66,95040,120
61,62,95280,120
51,62,95280,120
59,67,95520,120
51,67,95520,120
58,63,95760,120
51,63,95760,120
32,69,96000,240
44,69,96000,240
51,41,96240,120
44,41,96240,120
51,44,96480,120
44,44,96480,120
44,48,96720,120
51,48,96720,120
51,51,96960,120
44,51,96960,120
51,56,97200,120
44,56,97200,120
46,58,97440,120
51,58,97440,120
51,62,97680,120
47,62,97680,120
39,66,97920,240
49,66,97920,240
51,66,97920,240
51,63,98160,120
61,63,98160,120
51,67,98400,120
61,67,98400,120
61,62,98640,120
51,62,98640,120
51,67,98880,120
61,67,98880,120
61,63,99120,120
51,63,99120,120
59,67,99360,120
51,67,99360,120
58,67,99600,120
51,67,99600,120
44,69,99840,240
56,69,99840,240
59,43,100080,120
63,43,100080,120
59,41,100320,240
63,41,100320,240
56,39,100560,240
59,39,100560,240
49,48,100800,120
64,42,101040,120
61,42,101040,120
64,42,101280,240
61,42,101280,240
61,39,101520,240
56,39,101520,240
51,48,101760,120
59,42,102000,120
63,42,102000,120
59,42,102240,240
63,42,102240,240
56,39,102480,240
59,39,102480,240
49,49,102720,120
63,42,102960,120
58,42,102960,120
63,42,103200,240
58,42,103200,240
58,40,103440,240
55,40,103440,240
47,45,103680,240
68,39,103920,120
63,39,103920,120
63,41,104160,240
68,41,104160,240
63,41,104400,240
59,41,104400,240
49,50,104640,240
64,47,104880,120
69,47,104880,120
69,45,105120,240
64,45,105120,240
64,45,105360,240
61,45,105360,240
51,52,105600,240
68,48,105840,120
63,48,105840,120
63,48,106080,240
68,48,106080,240
63,45,106320,240
59,45,106320,240
51,51,106560,240
67,43,106800,120
61,43,106800,120
61,43,107040,240
67,43,107040,240
61,35,107280,240
58,35,107280,240
44,41,107520,119
56,33,107640,119
51,36,107760,119
56,32,107880,119
44,41,108000,119
56,33,108120,119
51,36,108240,119
56,33,108360,119
44,41,108480,119
56,33,108600,119
51,37,108720,119
56,33,108840,119
44,41,108960,119
56,33,109080,119
51,37,109200,119
56,33,109320,119
44,41,109440,119
58,33,109560,119
51,38,109680,119
58,33,109800,119
44,41,109920,119
58,33,110040,119
51,37,110160,119
58,33,110280,119
44,41,110400,119
58,34,110520,119
51,38,110640,119
58,34,110760,119
44,41,110880,119
58,34,111000,119
51,36,111120,119
58,33,111240,119
44,41,111360,119
56,33,111480,119
51,37,111600,119
56,33,111720,119
44,41,111840,119
56,34,111960,119
51,38,112080,119
56,34,112200,119
44,41,112320,119
56,34,112440,119
51,38,112560,119
56,34,112680,119
44,41,112800,119
56,33,112920,119
51,36,113040,119
56,33,113160,119
44,41,113280,119
58,36,113400,119
51,36,113520,119
58,34,113640,119
44,41,113760,119
58,34,113880,119
51,36,114000,119
58,33,114120,119
44,41,114240,119
58,34,114360,119
51,36,114480,119
58,33,114600,119
44,41,114720,119
58,34,114840,119
51,39,114960,119
58,34,115080,119
44,41,115200,119
56,33,115320,119
51,36,115440,119
56,33,115560,119
44,42,115680,119
56,33,115800,119
51,35,115920,119
56,33,116040,119
44,41,116160,119
58,34,116280,119
51,37,116400,119
58,37,116520,119
44,41,116640,119
58,34,116760,119
51,38,116880,119
58,34,117000,119
44,41,117120,119
56,33,117240,119
51,36,117360,119
56,33,117480,119
44,41,117600,119
56,33,117720,119
51,36,117840,119
56,33,117960,119
44,41,118080,119
58,34,118200,119
51,37,118320,119
58,33,118440,119
44,41,118560,119
58,34,118680,119
51,37,118800,119
58,34,118920,119
44,42,119040,119
56,41,119160,119
51,42,119280,119
56,40,119400,119
44,43,119520,119
56,44,119640,119
51,45,119760,119
56,43,119880,119
44,47,120000,119
56,48,120120,119
51,48,120240,119
56,49,120360,119
44,51,120480,119
56,51,120600,119
51,52,120720,119
56,47,120840,119
44,53,120960,119
54,56,121080,119
51,56,121200,119
54,51,121320,119
44,57,121440,119
54,58,121560,119
51,60,121680,119
54,56,121800,119
44,62,121920,119
54,62,122040,119
51,63,122160,119
54,57,122280,119
44,65,122400,119
54,67,122520,119
51,67,122640,119
54,62,122760,119
37,69,122880,120
44,39,123120,120
37,43,123360,120
44,40,123600,120
37,42,123840,120
44,39,124080,120
37,39,124320,120
44,39,124560,120
37,43,124800,120
44,40,125040,120
37,43,125280,120
44,40,125520,120
37,41,125760,120
44,38,126000,120
49,77,126240,120
37,64,126240,120
44,67,126480,120
36,41,126720,120
44,39,126960,120
36,41,127200,120
44,38,127440,120
36,40,127680,120
44,37,127920,120
36,40,128160,120
44,38,128400,120
36,40,128640,120
44,38,128880,120
36,40,129120,120
44,37,129360,120
36,40,129600,120
44,37,129840,120
48,77,130080,120
36,64,130080,120
44,58,130320,120
35,55,130560,120
44,51,130800,120
35,56,131040,120
44,52,131280,120
35,56,131520,120
44,52,131760,120
35,56,132000,120
44,52,132240,120
35,56,132480,120
44,52,132720,120
35,56,132960,120
44,52,133200,120
35,56,133440,120
44,52,133680,120
47,80,133920,120
35,67,133920,120
44,73,134160,120
33,50,134400,120
45,51,134640,120
33,57,134880,120
45,62,135120,120
33,67,135360,120
45,68,135600,120
33,86,135840,120
45,85,136080,120
33,67,136320,120
45,63,136560,120
33,67,136800,120
45,63,137040,120
33,67,137280,120
45,63,137520,120
33,90,137760,120
45,90,138000,120
44,77,138240,240
32,77,138240,240
60,62,138480,240
56,62,138480,3600
60,62,138720,240
61,62,138960,240
63,64,139200,240
64,66,139440,240
66,67,139680,240
63,68,139920,240
66,69,140160,240
64,71,140400,240
69,72,140640,240
68,71,140880,240
66,69,141120,240
64,68,141360,240
63,67,141600,240
61,66,141840,240
60,64,142080,240
56,64,142080,3840
60,63,142320,240
60,62,142560,240
61,60,142800,240
63,62,143040,240
64,62,143280,240
66,65,143520,240
63,67,143760,240
66,68,144000,240
64,68,144240,240
69,68,144480,240
68,67,144720,240
66,67,144960,240
64,67,145200,240
63,67,145440,240
61,67,145680,240
56,71,145920,120
60,71,145920,120
61,62,146160,120
56,62,146160,120
60,67,146400,120
56,67,146400,120
61,62,146640,120
56,62,146640,120
60,71,146880,120
56,71,146880,120
61,62,147120,120
56,62,147120,120
60,67,147360,120
56,67,147360,120
61,61,147600,120
56,61,147600,120
56,71,147840,240
60,71,147840,240
32,96,148320,1440
44,96,148320,1440
37,43,149760,120
44,39,150000,120
37,43,150240,120
44,39,150480,120
37,43,150720,120
44,39,150960,120
37,43,151200,120
44,39,151440,120
37,43,151680,120
44,39,151920,120
37,43,152160,120
44,39,152400,120
37,43,152640,120
44,43,152880,120
49,89,153120,120
37,75,153120,120
44,74,153360,120
34,40,153600,120
49,37,153840,120
46,40,154080,120
49,40,154320,120
46,40,154560,120
49,37,154800,120
46,40,155040,120
49,40,155280,120
46,40,155520,120
49,37,155760,120
46,40,156000,120
49,37,156240,120
46,40,156480,120
49,38,156720,120
46,83,156960,120
34,71,156960,120
49,72,157200,120
31,39,157440,120
51,39,157680,120
43,40,157920,120
51,42,158160,120
43,43,158400,120
51,43,158640,120
43,45,158880,120
51,45,159120,120
43,47,159360,120
51,48,159600,120
43,49,159840,120
51,51,160080,120
43,51,160320,120
51,48,160560,120
43,47,160800,120
51,45,161040,120
44,33,161280,140
51,25,161400,140
47,28,161520,140
51,25,161640,140
44,35,161760,119
51,27,161880,119
47,35,162000,119
51,30,162120,119
44,37,162240,119
51,27,162360,119
47,39,162480,119
51,30,162600,119
44,39,162720,119
51,31,162840,119
47,40,162960,119
51,33,163080,119
46,33,163200,140
51,26,163320,140
49,29,163440,140
51,26,163560,140
46,42,163680,119
51,32,163800,119
49,40,163920,119
51,40,164040,119
46,49,164160,119
51,40,164280,119
49,46,164400,119
51,41,164520,119
46,56,164640,119
51,41,164760,119
49,43,164880,119
51,36,165000,119
47,33,165120,119
51,29,165240,119
47,30,165360,119
51,26,165480,119
47,41,165600,119
51,32,165720,119
47,39,165840,119
51,36,165960,119
47,49,166080,119
51,38,166200,119
47,48,166320,119
51,42,166440,119
47,54,166560,119
51,41,166680,119
47,43,166800,119
51,35,166920,119
43,32,167040,119
51,29,167160,119
43,29,167280,119
51,26,167400,119
43,41,167520,119
51,40,167640,119
43,42,167760,119
51,40,167880,119
43,48,168000,119
51,43,168120,119
43,49,168240,119
51,42,168360,119
43,54,168480,119
51,38,168600,119
43,42,168720,119
51,35,168840,119
44,39,168960,140
51,33,169080,140
47,35,169200,119
51,31,169320,119
44,40,169440,119
51,31,169560,119
47,34,169680,119
51,31,169800,119
44,41,169920,119
51,32,170040,119
47,35,170160,119
51,32,170280,119
44,43,170400,140
51,33,170520,140
47,37,170640,140
51,33,170760,140
46,46,170880,140
51,34,171000,140
49,39,171120,119
51,34,171240,119
46,47,171360,119
51,35,171480,119
49,40,171600,119
51,40,171720,119
46,49,171840,119
51,35,171960,119
49,41,172080,119
51,35,172200,119
46,50,172320,140
51,42,172440,140
49,45,172560,140
51,42,172680,140
47,51,172800,140
51,43,172920,140
47,47,173040,119
51,43,173160,119
47,52,173280,119
51,44,173400,119
47,48,173520,119
51,44,173640,119
47,56,173760,119
51,46,173880,119
47,50,174000,140
51,45,174120,140
47,57,174240,140
51,47,174360,140
47,51,174480,140
51,47,174600,140
43,59,174720,140
51,52,174840,140
43,56,174960,119
51,51,175080,119
43,60,175200,119
51,53,175320,119
43,57,175440,119
51,52,175560,119
43,62,175680,119
51,54,175800,119
43,59,175920,140
51,53,176040,140
43,62,176160,140
51,54,176280,140
43,60,176400,140
51,53,176520,140
42,66,176640,140
51,57,176760,140
44,61,176880,140
51,56,177000,140
42,66,177120,140
51,56,177240,140
44,61,177360,140
51,56,177480,140
40,66,177600,140
49,58,177720,140
44,62,177840,140
49,56,177960,140
40,66,178080,140
49,56,178200,140
44,61,178320,140
49,61,178440,140
40,66,178560,119
49,56,178680,119
42,61,178800,119
49,54,178920,119
39,66,179040,140
47,56,179160,140
42,62,179280,140
47,56,179400,140
39,66,179520,140
47,56,179640,140
42,61,179760,140
47,56,179880,140
39,66,180000,140
47,54,180120,140
42,60,180240,140
47,60,180360,140
38,66,180480,140
47,56,180600,140
40,62,180720,140
47,54,180840,140
38,66,180960,140
47,56,181080,140
40,62,181200,140
47,56,181320,140
37,66,181440,140
45,56,181560,140
40,62,181680,140
45,56,181800,140
37,66,181920,140
45,56,182040,140
40,62,182160,140
45,56,182280,140
37,66,182400,119
46,56,182520,119
39,60,182640,119
46,56,182760,119
35,66,182880,140
44,56,183000,140
39,61,183120,140
44,56,183240,140
35,66,183360,140
44,56,183480,140
39,61,183600,140
44,54,183720,140
35,66,183840,140
44,56,183960,140
39,61,184080,140
44,54,184200,120
45,75,184320,1440
49,75,184320,1440
40,64,184320,1440
37,64,184320,1440
64,42,186240,480
61,42,186240,480
69,50,186240,476
69,49,187200,480
64,41,187200,480
61,41,187200,480
69,49,188160,480
64,41,188160,480
61,41,188160,480
69,52,188640,480
64,44,188640,480
61,44,188640,480
69,60,189120,480
64,51,189120,480
61,51,189120,480
61,47,189600,480
69,56,189600,480
64,47,189600,480
63,49,190080,120
71,43,190200,120
68,49,190320,120
71,49,190440,120
63,51,190560,120
71,44,190680,120
68,47,190800,120
71,43,190920,120
63,51,191040,120
73,44,191160,120
67,48,191280,120
73,44,191400,120
63,51,191520,120
73,45,191640,120
67,48,191760,120
73,45,191880,120
71,56,192000,240
64,47,192000,240
68,56,192000,240
49,73,192480,960
45,73,192480,960
40,62,192480,960
37,62,192480,960
52,41,194400,480
49,41,194400,480
57,49,194400,480
52,41,195360,480
57,49,195360,480
49,41,195360,480
49,43,196080,240
57,51,196080,240
52,43,196080,240
49,51,196560,240
57,61,196560,240
52,51,196560,240
49,57,197040,240
57,68,197040,240
52,57,197040,240
57,68,197520,240
52,57,197520,240
49,57,197520,240
52,56,197760,480
49,56,197760,480
57,67,197760,480
49,70,199680,119
57,61,199800,119
52,66,199920,119
57,62,200040,119
49,70,200160,119
57,61,200280,119
52,65,200400,119
57,62,200520,119
50,70,200640,119
59,61,200760,119
53,66,200880,119
59,62,201000,119
50,70,201120,119
59,59,201240,119
53,63,201360,119
59,61,201480,119
51,70,201600,119
59,61,201720,119
56,66,201840,119
59,62,201960,119
51,70,202080,119
59,62,202200,119
56,66,202320,119
59,61,202440,119
39,70,202560,119
51,62,202680,119
50,67,202800,119
51,62,202920,119
50,70,203040,119
51,62,203160,119
50,67,203280,119
51,62,203400,102
44,71,203520,240
56,43,204000,120
56,43,204240,120
56,43,204480,120
56,43,204720,120
58,40,204960,120
59,39,205200,120
51,47,205440,240
61,47,205440,240
61,42,205680,120
63,42,205680,120
61,41,205920,120
63,41,205920,120
61,41,206160,120
63,41,206160,120
63,41,206400,120
61,41,206400,120
63,41,206640,120
61,41,206640,120
63,41,206880,120
59,41,206880,120
58,43,207120,120
63,43,207120,120
56,47,207360,240
44,47,207360,240
56,42,207600,120
56,42,207840,120
56,42,208080,120
56,43,208320,120
56,42,208560,120
58,41,208800,120
59,39,209040,120
51,47,209280,240
61,47,209280,240
61,41,209520,120
63,41,209520,120
63,43,209760,120
61,43,209760,120
61,42,210000,120
63,42,210000,120
61,42,210240,120
63,42,210240,120
63,42,210480,120
61,42,210480,120
63,43,210720,120
59,43,210720,120
63,45,210960,120
58,45,210960,120
44,48,211200,120
59,39,211440,120
56,39,211440,120
56,39,211680,240
59,39,211680,240
59,39,211920,240
63,39,211920,240
49,47,212160,120
56,43,212400,120
61,43,212400,120
61,43,212640,240
56,43,212640,240
61,41,212880,240
64,41,212880,240
51,47,213120,120
59,41,213360,120
56,41,213360,120
56,42,213600,240
59,42,213600,240
63,42,213840,240
59,42,213840,240
51,47,214080,120
55,39,214320,120
58,39,214320,120
58,39,214560,240
55,39,214560,240
58,39,214800,240
63,39,214800,240
32,42,215040,240
44,42,215040,240
44,41,215280,120
51,41,215280,120
44,43,215520,120
51,43,215520,120
51,47,215760,120
44,47,215760,120
51,50,216000,120
44,50,216000,120
51,52,216240,120
44,52,216240,120
51,57,216480,120
46,57,216480,120
51,59,216720,120
47,59,216720,120
51,62,216960,240
49,62,216960,240
39,62,216960,240
61,62,217200,120
51,62,217200,120
51,66,217440,120
61,66,217440,120
61,62,217680,120
51,62,217680,120
61,66,217920,120
51,66,217920,120
61,62,218160,120
51,62,218160,120
51,66,218400,120
59,66,218400,120
51,62,218640,120
58,62,218640,120
44,67,218880,240
32,67,218880,240
51,41,219120,120
44,41,219120,120
51,44,219360,120
44,44,219360,120
44,48,219600,120
51,48,219600,120
44,51,219840,120
51,51,219840,120
44,56,220080,120
51,56,220080,120
51,58,220320,120
46,58,220320,120
47,62,220560,120
51,62,220560,120
49,66,220800,240
39,66,220800,240
51,66,220800,240
51,62,221040,120
61,62,221040,120
51,67,221280,120
61,67,221280,120
51,62,221520,120
61,62,221520,120
61,67,221760,120
51,67,221760,120
51,62,222000,120
61,62,222000,120
59,67,222240,120
51,67,222240,120
51,62,222480,120
58,62,222480,120
44,68,222720,240
56,68,222720,240
59,43,222960,120
63,43,222960,120
63,41,223200,240
59,41,223200,240
56,39,223440,240
59,39,223440,240
49,48,223680,120
64,42,223920,120
61,42,223920,120
61,42,224160,240
64,42,224160,240
56,39,224400,240
61,39,224400,240
51,48,224640,120
63,42,224880,120
59,42,224880,120
63,42,225120,240
59,42,225120,240
59,39,225360,240
56,39,225360,240
49,49,225600,120
63,42,225840,120
58,42,225840,120
58,42,226080,240
63,42,226080,240
58,39,226320,240
55,39,226320,240
47,45,226560,240
63,39,226800,120
68,39,226800,120
68,41,227040,240
63,41,227040,240
63,41,227280,240
59,41,227280,240
49,50,227520,240
64,47,227760,120
69,47,227760,120
69,45,228000,240
64,45,228000,240
64,45,228240,240
61,45,228240,240
51,52,228480,240
68,48,228720,120
63,48,228720,120
68,48,228960,240
63,48,228960,240
63,45,229200,240
59,45,229200,240
51,51,229440,240
67,43,229680,120
61,43,229680,120
67,43,229920,240
61,43,229920,240
58,35,230160,240
61,35,230160,240
44,41,230400,119
56,32,230520,119
51,36,230640,119
56,33,230760,119
44,41,230880,119
56,33,231000,119
51,36,231120,119
56,33,231240,119
44,41,231360,119
56,33,231480,119
51,37,231600,119
56,33,231720,119
44,41,231840,119
56,33,231960,119
51,37,232080,119
56,33,232200,119
44,41,232320,119
58,33,232440,119
51,38,232560,119
58,33,232680,119
44,41,232800,119
58,33,232920,119
51,37,233040,119
58,34,233160,119
44,41,233280,119
58,34,233400,119
51,38,233520,119
58,33,233640,119
44,41,233760,119
58,33,233880,119
51,36,234000,119
58,33,234120,119
44,41,234240,119
56,32,234360,119
51,37,234480,119
56,32,234600,119
44,41,234720,119
56,33,234840,119
51,38,234960,119
56,34,235080,119
44,41,235200,119
56,34,235320,119
51,38,235440,119
56,33,235560,119
44,41,235680,119
56,33,235800,119
51,36,235920,119
56,34,236040,119
44,41,236160,119
58,33,236280,119
51,36,236400,119
58,33,236520,119
44,41,236640,119
58,33,236760,119
51,36,236880,119
58,33,237000,119
44,41,237120,119
58,33,237240,119
51,36,237360,119
58,33,237480,119
44,41,237600,119
58,34,237720,119
51,39,237840,119
58,34,237960,119
44,41,238080,119
56,33,238200,119
51,36,238320,119
56,33,238440,119
44,42,238560,119
56,33,238680,119
51,35,238800,119
56,33,238920,119
44,41,239040,119
58,34,239160,119
51,37,239280,119
58,34,239400,119
44,41,239520,119
58,33,239640,119
51,38,239760,119
58,33,239880,119
44,41,240000,119
56,33,240120,119
51,36,240240,119
56,33,240360,119
44,41,240480,119
56,34,240600,119
51,36,240720,119
56,33,240840,119
44,41,240960,119
58,34,241080,119
51,37,241200,119
58,34,241320,119
44,41,241440,119
58,34,241560,119
51,37,241680,119
58,34,241800,119
44,42,241920,119
56,41,242040,119
51,42,242160,119
56,39,242280,119
44,43,242400,119
56,44,242520,119
51,45,242640,119
56,42,242760,119
44,47,242880,119
56,48,243000,119
51,48,243120,119
56,44,243240,119
44,51,243360,119
56,51,243480,119
51,52,243600,119
56,47,243720,119
44,53,243840,119
54,56,243960,119
51,56,244080,119
54,52,244200,119
44,57,244320,119
54,58,244440,119
51,60,244560,119
54,57,244680,119
44,62,244800,119
54,62,244920,119
51,63,245040,119
54,59,245160,119
44,65,245280,119
54,67,245400,119
51,67,245520,119
54,60,245640,119
37,48,245760,120
53,57,245760,120
56,57,245760,120
44,34,246000,120
37,36,246240,120
44,34,246480,120
37,36,246720,120
44,34,246960,120
37,35,247200,120
44,33,247440,120
37,42,247680,120
44,39,247920,120
37,43,248160,120
44,39,248400,120
37,43,248640,120
44,39,248880,120
49,77,249120,120
37,64,249120,120
44,64,249360,120
35,68,249600,120
44,43,249840,120
35,47,250080,120
44,44,250320,120
35,48,250560,120
44,43,250800,120
35,48,251040,120
44,44,251280,120
35,48,251520,120
44,44,251760,120
35,48,252000,120
44,44,252240,120
35,48,252480,120
44,44,252720,120
35,64,252960,120
47,77,252960,120
44,64,253200,120
33,68,253440,120
45,51,253680,120
33,55,253920,120
45,51,254160,120
33,55,254400,120
45,51,254640,120
33,83,254880,120
45,71,255120,120
29,56,255360,120
41,52,255600,120
29,53,255840,120
41,51,256080,120
29,53,256320,120
41,50,256560,120
29,83,256800,120
41,77,257040,120
30,78,257280,120
42,78,257280,120
61,29,257400,140
57,34,257520,140
61,29,257640,140
54,41,257760,119
61,28,257880,119
57,31,258000,119
61,28,258120,119
54,38,258240,119
61,28,258360,119
57,32,258480,119
61,29,258600,119
54,38,258720,119
61,29,258840,119
57,32,258960,119
61,28,259080,119
56,37,259200,140
61,28,259320,140
59,31,259440,140
61,26,259560,140
56,43,259680,119
61,39,259800,119
59,47,259920,119
61,43,260040,119
56,55,260160,119
61,44,260280,119
59,51,260400,119
61,47,260520,119
56,62,260640,119
61,49,260760,119
59,51,260880,119
61,43,261000,119
57,37,261120,119
61,30,261240,119
57,34,261360,119
61,29,261480,119
57,43,261600,119
61,37,261720,119
57,47,261840,119
61,43,261960,119
57,55,262080,119
61,44,262200,119
57,52,262320,119
61,47,262440,119
57,64,262560,119
61,48,262680,119
57,49,262800,119
61,40,262920,119
53,39,263040,119
61,29,263160,119
53,32,263280,119
61,29,263400,119
53,39,263520,119
61,34,263640,119
53,46,263760,119
61,42,263880,119
53,55,264000,119
61,44,264120,119
53,54,264240,119
61,51,264360,119
53,62,264480,119
61,46,264600,119
53,48,264720,119
61,39,264840,119
54,41,264960,240
61,56,265440,960
57,48,266400,360
54,48,266760,115
54,54,266880,480
53,47,267360,720
53,47,268080,240
61,56,268320,360
53,47,268680,115
56,43,268800,480
54,47,269280,720
54,48,270000,240
61,53,270240,360
54,47,270600,115
54,54,270720,120
54,49,270960,240
62,53,271200,360
54,58,271560,120
54,58,271680,120
54,61,271920,240
62,62,272160,360
54,62,272520,120
55,66,272640,240
50,48,273120,960
47,48,274080,360
43,48,274440,120
43,57,274560,480
42,48,275040,720
42,48,275760,240
50,60,276000,360
42,47,276360,120
45,66,276480,480
43,57,276960,720
43,59,277680,240
50,66,277920,360
42,57,278280,115
42,73,278400,480
41,62,278880,720
41,62,279600,240
49,71,279840,360
41,62,280200,120
42,75,280320,120
42,67,280560,240
45,67,280800,240
42,61,281040,240
38,75,281280,120
38,68,281520,240
42,67,281760,240
38,62,282000,240
36,76,282240,1080
36,68,283440,240
39,68,283680,240
36,65,283920,240
37,73,284160,120
37,68,284400,240
40,68,284640,240
37,65,284880,240
33,76,285120,120
33,68,285360,240
37,68,285600,240
33,67,285840,240
30,75,286080,120
30,68,286320,240
33,68,286560,240
30,67,286800,240
31,77,287040,120
31,67,287280,240
34,67,287520,240
31,67,287760,240
32,39,288000,140
44,33,288120,140
32,39,288240,140
44,31,288360,140
32,39,288480,119
44,32,288600,119
32,39,288720,119
44,32,288840,119
32,39,288960,119
44,34,289080,119
32,39,289200,119
44,34,289320,119
32,39,289440,119
44,32,289560,119
32,39,289680,119
44,34,289800,119
32,39,289920,119
44,33,290040,119
32,39,290160,119
44,32,290280,119
32,39,290400,119
44,33,290520,119
32,39,290640,119
44,33,290760,119
32,39,290880,119
44,33,291000,119
32,39,291120,119
44,34,291240,119
32,39,291360,119
44,33,291480,119
32,39,291600,119
44,32,291720,119
32,39,291840,119
44,33,291960,119
32,39,292080,119
44,33,292200,119
32,39,292320,119
44,33,292440,119
32,39,292560,119
44,33,292680,119
32,39,292800,119
44,33,292920,119
32,39,293040,119
44,33,293160,119
32,39,293280,119
44,33,293400,119
32,39,293520,119
44,34,293640,119
32,39,293760,119
44,34,293880,119
32,39,294000,119
44,33,294120,119
32,39,294240,119
44,34,294360,119
32,39,294480,119
44,34,294600,119
32,39,294720,140
44,34,294840,140
32,39,294960,140
44,32,295080,140
32,37,295200,140
44,33,295320,140
32,37,295440,140
44,31,295560,140
32,37,295680,119
44,33,295800,119
32,37,295920,119
44,32,296040,119
32,37,296160,119
44,32,296280,119
32,37,296400,119
44,33,296520,119
32,39,296640,119
44,34,296760,119
32,40,296880,119
44,34,297000,119
32,41,297120,140
44,37,297240,140
32,41,297360,140
44,38,297480,140
32,43,297600,140
44,38,297720,140
32,44,297840,140
44,39,297960,140
32,45,298080,140
44,40,298200,140
32,46,298320,140
44,41,298440,140
32,47,298560,140
44,41,298680,140
32,48,298800,140
44,43,298920,140
32,49,299040,140
44,44,299160,140
32,50,299280,140
44,45,299400,140
32,51,299520,140
44,46,299640,140
32,51,299760,140
44,47,299880,140
32,53,300000,140
44,50,300120,140
32,54,300240,140
44,51,300360,140
32,54,300480,140
44,51,300600,140
32,49,300720,140
44,47,300840,140
32,44,300960,140
44,35,301080,140
32,39,301200,140
44,34,301320,140
32,39,301440,119
44,33,301560,119
32,37,301680,119
44,35,301800,119
32,37,301920,119
44,32,302040,119
32,37,302160,119
44,33,302280,119
32,39,302400,119
44,34,302520,119
32,39,302640,119
44,35,302760,119
32,41,302880,119
44,39,303000,119
32,45,303120,119
44,41,303240,119
32,46,303360,119
44,42,303480,119
32,49,303600,119
44,44,303720,119
32,51,303840,119
44,45,303960,119
32,51,304080,119
44,44,304200,119
32,45,304320,119
44,41,304440,119
32,41,304560,119
44,37,304680,119
32,41,304800,140
44,35,304920,140
32,39,305040,140
44,33,305160,140
32,37,305280,140
44,34,305400,140
32,37,305520,140
44,32,305640,140
32,37,305760,140
44,33,305880,140
32,37,306000,140
44,35,306120,140
32,35,306240,140
44,34,306360,140
32,41,306480,140
44,37,306600,140
32,43,306720,140
44,39,306840,140
32,47,306960,140
44,42,307080,140
32,47,307200,119
44,43,307320,119
32,51,307440,119
44,47,307560,119
32,56,307680,119
44,48,307800,119
32,54,307920,119
44,47,308040,119
32,49,308160,119
44,45,308280,119
32,49,308400,119
44,41,308520,119
32,45,308640,119
44,39,308760,119
32,41,308880,119
44,35,309000,119
32,40,309120,119
44,34,309240,119
32,39,309360,119
44,34,309480,119
32,39,309600,119
44,34,309720,119
32,41,309840,119
44,39,309960,119
32,45,310080,119
44,39,310200,119
32,45,310320,119
44,40,310440,119
32,47,310560,119
44,43,310680,119
32,51,310800,119
44,45,310920,119
32,56,311040,119
44,51,311160,119
32,56,311280,119
44,49,311400,119
32,51,311520,119
44,43,311640,119
32,47,311760,119
44,40,311880,119
33,44,312000,119
45,38,312120,119
33,41,312240,119
45,35,312360,119
33,39,312480,119
45,34,312600,119
33,39,312720,119
45,34,312840,119
30,33,312960,1920
42,39,312960,1920
32,27,314880,1920
44,32,314880,1920
37,62,316800,120
44,40,317040,120
37,43,317280,120
44,39,317520,120
37,41,317760,120
44,39,318000,120
37,42,318240,120
44,39,318480,120
37,43,318720,120
44,40,318960,120
37,43,319200,120
44,40,319440,120
37,41,319680,120
44,38,319920,120
37,66,320160,120
49,79,320160,120
44,67,320400,120
36,41,320640,120
44,38,320880,120
36,41,321120,120
44,38,321360,120
36,40,321600,120
44,37,321840,120
36,40,322080,120
44,36,322320,120
36,40,322560,120
44,36,322800,120
36,40,323040,120
44,36,323280,120
36,40,323520,120
44,36,323760,120
48,79,324000,120
36,66,324000,120
44,65,324240,120
35,55,324480,120
44,51,324720,120
35,56,324960,120
44,52,325200,120
35,56,325440,120
44,52,325680,120
35,56,325920,120
44,51,326160,120
35,56,326400,120
44,51,326640,120
35,56,326880,120
44,52,327120,120
35,56,327360,120
44,52,327600,120
47,85,327840,120
35,71,327840,120
44,73,328080,120
33,50,328320,120
45,51,328560,120
33,57,328800,120
45,62,329040,120
33,67,329280,120
45,67,329520,120
33,86,329760,120
45,85,330000,120
33,67,330240,120
45,62,330480,120
33,67,330720,120
45,63,330960,120
33,67,331200,120
45,64,331440,120
33,90,331680,120
45,90,331920,120
44,77,332160,240
32,77,332160,240
60,62,332400,240
56,62,332400,3600
60,62,332640,240
61,62,332880,240
63,64,333120,240
64,66,333360,240
66,67,333600,240
63,68,333840,240
66,69,334080,240
64,71,334320,240
69,72,334560,240
68,71,334800,240
66,69,335040,240
64,68,335280,240
63,67,335520,240
61,66,335760,240
56,64,336000,3840
60,64,336000,240
60,63,336240,240
60,62,336480,240
61,60,336720,240
63,62,336960,240
64,62,337200,240
66,65,337440,240
63,67,337680,240
66,68,337920,240
64,68,338160,240
69,68,338400,240
68,67,338640,240
66,67,338880,240
64,67,339120,240
63,67,339360,240
61,67,339600,240
60,71,339840,120
56,71,339840,120
61,62,340080,120
56,62,340080,120
56,68,340320,120
60,68,340320,120
61,62,340560,120
56,62,340560,120
60,71,340800,120
56,71,340800,120
56,62,341040,120
61,62,341040,120
60,67,341280,120
56,67,341280,120
61,61,341520,120
56,61,341520,120
60,71,341760,240
56,71,341760,240
32,77,342240,1440
44,90,342240,1440
49,39,343680,140
56,29,343800,140
52,34,343920,140
56,29,344040,140
49,39,344160,119
56,29,344280,119
52,34,344400,119
56,30,344520,119
49,39,344640,119
56,30,344760,119
52,34,344880,119
56,30,345000,119
49,39,345120,119
56,30,345240,119
52,34,345360,119
56,30,345480,119
51,39,345600,140
56,30,345720,140
54,34,345840,140
56,30,345960,140
51,48,346080,119
56,43,346200,119
54,47,346320,119
56,49,346440,119
51,58,346560,119
56,46,346680,119
54,54,346800,119
56,47,346920,119
51,66,347040,119
56,46,347160,119
54,51,347280,119
56,40,347400,119
52,39,347520,119
56,32,347640,119
52,35,347760,119
56,31,347880,119
52,50,348000,119
56,41,348120,119
52,47,348240,119
56,42,348360,119
52,58,348480,119
56,48,348600,119
52,56,348720,119
56,51,348840,119
52,66,348960,119
56,49,349080,119
52,51,349200,119
56,47,349320,119
48,39,349440,119
56,31,349560,119
48,34,349680,119
56,32,349800,119
48,50,349920,119
56,43,350040,119
48,49,350160,119
56,44,350280,119
48,58,350400,119
56,51,350520,119
48,59,350640,119
56,54,350760,119
48,66,350880,119
56,48,351000,119
48,51,351120,119
56,39,351240,119
49,39,351360,140
56,32,351480,140
52,35,351600,119
56,31,351720,119
49,40,351840,119
56,31,351960,119
52,34,352080,119
56,31,352200,119
49,41,352320,119
56,31,352440,119
52,35,352560,119
56,31,352680,119
49,43,352800,140
56,34,352920,140
52,37,353040,140
56,33,353160,140
51,46,353280,140
56,33,353400,140
54,39,353520,119
56,33,353640,119
51,47,353760,119
56,35,353880,119
54,40,354000,119
56,34,354120,119
51,49,354240,119
56,35,354360,119
54,41,354480,119
56,35,354600,119
51,50,354720,140
56,40,354840,140
54,45,354960,140
56,42,355080,140
52,51,355200,140
56,43,355320,140
52,47,355440,119
56,43,355560,119
52,52,355680,119
56,43,355800,119
52,48,355920,119
56,44,356040,119
52,56,356160,119
56,46,356280,119
52,50,356400,119
56,47,356520,119
52,57,356640,140
56,49,356760,140
52,51,356880,140
56,48,357000,140
48,59,357120,140
56,53,357240,140
48,56,357360,119
56,52,357480,119
48,60,357600,119
56,52,357720,119
48,57,357840,119
56,52,357960,119
48,62,358080,119
56,52,358200,119
48,59,358320,119
56,53,358440,119
48,62,358560,140
56,53,358680,140
48,60,358800,140
56,54,358920,140
47,66,359040,140
56,56,359160,140
49,61,359280,140
56,56,359400,140
47,66,359520,140
56,56,359640,140
49,61,359760,140
56,56,359880,140
45,66,360000,140
54,56,360120,140
49,62,360240,140
54,57,360360,140
45,66,360480,140
54,56,360600,140
49,61,360720,140
54,56,360840,140
45,66,360960,119
54,56,361080,119
47,61,361200,119
54,56,361320,119
44,66,361440,140
52,56,361560,140
47,62,361680,140
52,56,361800,140
44,66,361920,140
52,56,362040,140
47,61,362160,140
52,56,362280,140
44,66,362400,140
52,54,362520,140
47,60,362640,140
52,56,362760,140
43,66,362880,140
52,58,363000,140
45,62,363120,140
52,58,363240,140
43,66,363360,140
52,57,363480,140
45,62,363600,140
52,58,363720,140
42,66,363840,140
50,54,363960,140
45,62,364080,140
50,56,364200,140
42,66,364320,140
50,54,364440,140
45,62,364560,140
50,54,364680,140
42,66,364800,119
51,56,364920,119
44,60,365040,119
51,60,365160,119
40,66,365280,140
49,56,365400,140
44,61,365520,140
49,57,365640,140
40,66,365760,140
49,56,365880,140
44,61,366000,140
49,56,366120,140
40,66,366240,140
49,56,366360,140
44,61,366480,140
49,61,366600,140
45,64,366720,1440
54,75,366720,1440
50,75,366720,1440
42,64,366720,1440
54,42,368640,480
62,50,368640,476
57,42,368640,480
57,41,369600,480
62,49,369600,480
54,41,369600,480
54,41,370560,480
57,41,370560,480
62,49,370560,480
62,52,371040,480
57,44,371040,480
54,44,371040,480
54,51,371520,480
62,60,371520,480
57,51,371520,480
54,47,372000,480
62,56,372000,480
57,47,372000,480
56,49,372480,140
64,44,372600,140
61,47,372720,140
64,43,372840,140
56,51,372960,140
64,43,373080,140
61,47,373200,140
64,42,373320,140
56,51,373440,119
66,43,373560,119
60,47,373680,119
66,43,373800,119
56,51,373920,119
66,44,374040,119
60,47,374160,119
66,42,374280,119
64,56,374400,240
61,56,374400,240
57,56,374400,240
30,67,374880,960
33,67,374880,960
38,80,374880,960
42,80,374880,960
50,49,376800,480
45,41,376800,480
42,41,376800,480
50,49,377760,480
42,41,377760,480
45,41,377760,480
50,51,378480,240
45,43,378480,240
42,43,378480,240
50,61,378960,240
45,51,378960,240
42,51,378960,240
45,57,379440,240
50,68,379440,240
42,57,379440,240
42,57,379920,240
50,68,379920,240
45,57,379920,240
42,66,380160,119
50,56,380280,119
45,62,380400,119
50,56,380520,119
42,66,380640,119
50,56,380760,119
45,61,380880,119
50,54,381000,119
43,66,381120,119
52,56,381240,119
46,62,381360,119
52,56,381480,119
43,66,381600,119
52,54,381720,119
46,60,381840,119
52,54,381960,119
44,66,382080,119
52,58,382200,119
49,62,382320,119
52,56,382440,119
44,66,382560,119
52,56,382680,119
49,62,382800,119
52,57,382920,119
32,66,383040,119
44,57,383160,119
43,62,383280,119
44,57,383400,119
43,66,383520,119
44,57,383640,119
43,62,383760,119
44,58,383880,119
37,59,384000,240
49,59,384000,240
52,59,384000,240
61,59,384000,240
49,40,384240,120
49,40,384480,120
49,40,384720,120
49,40,384960,120
49,40,385200,120
51,39,385440,120
52,39,385680,120
44,45,385920,240
54,45,385920,240
56,39,386160,120
54,39,386160,120
56,39,386400,120
54,39,386400,120
56,39,386640,120
54,39,386640,120
54,39,386880,120
56,39,386880,120
54,39,387120,120
56,39,387120,120
56,39,387360,120
52,39,387360,120
51,42,387600,120
56,42,387600,120
49,45,387840,240
37,45,387840,240
49,39,388080,120
49,39,388320,120
49,39,388560,120
49,39,388800,120
49,40,389040,120
51,39,389280,120
52,39,389520,120
54,47,389760,240
44,47,389760,240
56,39,390000,120
54,39,390000,120
54,39,390240,120
56,39,390240,120
54,39,390480,120
56,39,390480,120
54,39,390720,120
56,39,390720,120
54,39,390960,120
56,39,390960,120
52,41,391200,120
56,41,391200,120
51,43,391440,120
56,43,391440,120
49,47,391680,120
37,42,391680,120
49,40,391920,120
52,40,391920,120
52,40,392160,240
49,40,392160,240
56,39,392400,240
52,39,392400,240
42,48,392640,120
49,40,392880,120
54,40,392880,120
54,40,393120,240
49,40,393120,240
57,39,393360,240
54,39,393360,240
44,48,393600,120
52,39,393840,120
49,39,393840,120
49,39,394080,240
52,39,394080,240
52,39,394320,240
56,39,394320,240
44,48,394560,120
51,39,394800,120
48,39,394800,120
48,39,395040,240
51,39,395040,240
56,38,395280,240
51,38,395280,240
49,49,395520,240
37,49,395520,240
49,39,395760,120
56,39,395760,120
56,42,396000,120
49,42,396000,120
56,41,396240,120
49,41,396240,120
49,39,396480,120
56,39,396480,120
49,39,396720,120
56,39,396720,120
56,41,396960,120
51,41,396960,120
56,44,397200,120
52,44,397200,120
44,47,397440,240
56,47,397440,240
54,47,397440,240
66,58,397680,120
56,58,397680,120
66,68,397920,120
56,68,397920,120
56,62,398160,120
66,62,398160,120
56,68,398400,120
66,68,398400,120
66,62,398640,120
56,62,398640,120
56,68,398880,120
64,68,398880,120
63,62,399120,120
56,62,399120,120
37,68,399360,240
49,68,399360,240
56,39,399600,120
49,39,399600,120
56,39,399840,120
49,39,399840,120
56,39,400080,120
49,39,400080,120
49,39,400320,120
56,39,400320,120
49,39,400560,120
56,39,400560,120
51,39,400800,120
56,39,400800,120
56,41,401040,120
52,41,401040,120
44,45,401280,240
56,45,401280,240
54,45,401280,240
66,57,401520,120
56,57,401520,120
56,68,401760,120
66,68,401760,120
66,60,402000,120
56,60,402000,120
56,68,402240,120
66,68,402240,120
66,60,402480,120
56,60,402480,120
64,68,402720,120
56,68,402720,120
56,59,402960,120
63,59,402960,120
61,69,403200,240
49,69,403200,240
61,42,403440,120
64,42,403440,120
64,43,403680,240
61,43,403680,240
68,39,403920,240
64,39,403920,240
54,48,404160,120
66,40,404400,120
61,40,404400,120
66,42,404640,240
61,42,404640,240
66,39,404880,240
69,39,404880,240
56,47,405120,120
61,42,405360,120
64,42,405360,120
64,42,405600,240
61,42,405600,240
68,39,405840,240
64,39,405840,240
54,47,406080,120
63,42,406320,120
60,42,406320,120
63,42,406560,240
60,42,406560,240
63,40,406800,240
68,40,406800,240
52,47,407040,240
61,42,407280,120
56,42,407280,120
61,42,407520,240
56,42,407520,240
64,39,407760,240
61,39,407760,240
42,47,408000,240
57,43,408240,120
54,43,408240,120
54,43,408480,240
57,43,408480,240
62,41,408720,240
57,41,408720,240
44,45,408960,240
56,39,409200,120
52,39,409200,120
52,40,409440,240
56,40,409440,240
56,42,409680,240
61,42,409680,240
44,48,409920,240
51,39,410160,120
54,39,410160,120
54,39,410400,240
51,39,410400,240
54,39,410640,240
60,39,410640,240
37,49,410880,119
49,31,411000,119
44,36,411120,119
49,32,411240,119
37,41,411360,119
49,32,411480,119
44,36,411600,119
49,32,411720,119
37,41,411840,119
49,32,411960,119
44,37,412080,119
49,37,412200,119
37,41,412320,119
49,32,412440,119
44,37,412560,119
49,33,412680,119
37,41,412800,119
51,33,412920,119
44,38,413040,119
51,33,413160,119
37,41,413280,119
51,32,413400,119
44,37,413520,119
51,32,413640,119
37,41,413760,119
51,33,413880,119
44,38,414000,119
51,33,414120,119
37,41,414240,119
51,32,414360,119
44,36,414480,119
51,33,414600,119
37,41,414720,119
49,33,414840,119
44,37,414960,119
49,33,415080,119
37,41,415200,119
49,34,415320,119
44,38,415440,119
49,34,415560,119
37,41,415680,119
49,34,415800,119
44,38,415920,119
49,33,416040,119
37,41,416160,119
49,33,416280,119
44,36,416400,119
49,32,416520,119
37,41,416640,119
51,33,416760,119
44,36,416880,119
51,33,417000,119
37,41,417120,119
51,33,417240,119
44,36,417360,119
51,33,417480,119
37,41,417600,119
51,32,417720,119
44,36,417840,119
51,33,417960,119
37,41,418080,119
51,35,418200,119
44,39,418320,119
51,34,418440,119
37,41,418560,119
49,33,418680,119
44,36,418800,119
49,33,418920,119
37,42,419040,119
49,31,419160,119
44,35,419280,119
49,32,419400,119
37,41,419520,119
51,33,419640,119
44,37,419760,119
51,33,419880,119
37,41,420000,119
51,33,420120,119
44,38,420240,119
51,34,420360,119
37,41,420480,119
49,33,420600,119
44,36,420720,119
49,32,420840,119
37,41,420960,119
49,33,421080,119
44,36,421200,119
49,33,421320,119
37,41,421440,119
51,33,421560,119
44,37,421680,119
51,33,421800,119
37,41,421920,119
51,33,422040,119
44,37,422160,119
51,34,422280,119
37,41,422400,119
49,39,422520,119
44,43,422640,119
49,42,422760,119
37,45,422880,119
49,43,423000,119
44,47,423120,119
49,43,423240,119
37,48,423360,119
49,45,423480,119
44,50,423600,119
49,45,423720,119
37,51,423840,119
49,47,423960,119
44,52,424080,119
49,49,424200,119
35,55,424320,119
47,50,424440,119
37,56,424560,119
47,51,424680,119
35,57,424800,119
47,52,424920,119
37,58,425040,119
47,53,425160,119
35,61,425280,119
47,57,425400,119
37,62,425520,119
47,57,425640,119
35,62,425760,119
47,58,425880,119
37,64,426000,119
47,60,426120,102
33,56,426240,120
45,67,426240,120
42,39,426480,120
33,39,426720,120
42,36,426960,120
33,39,427200,120
42,35,427440,120
33,39,427680,120
42,35,427920,120
33,39,428160,120
42,40,428400,120
33,40,428640,120
42,40,428880,120
33,40,429120,120
42,36,429360,120
45,81,429600,120
33,69,429600,120
42,69,429840,120
32,52,430080,120
40,47,430320,120
32,52,430560,120
40,48,430800,120
32,52,431040,120
40,48,431280,120
32,52,431520,120
40,52,431760,120
32,52,432000,120
40,52,432240,120
32,52,432480,120
40,48,432720,120
32,52,432960,120
40,48,433200,120
32,72,433440,120
44,86,433440,120
40,77,433680,120
31,39,433920,720
31,45,434640,960
34,47,434700,900
37,50,434760,840
40,51,434820,780
43,53,434880,720
43,51,435600,720
46,56,435660,660
49,58,435720,600
52,61,435780,540
55,63,435840,240
64,79,436320,1440
61,79,436320,1440
55,67,436320,1440
58,67,436320,1440
30,47,437760,720
30,41,438480,960
33,43,438540,900
36,47,438600,840
39,49,438660,780
42,52,438720,720
42,54,439440,720
45,56,439500,660
48,58,439560,600
51,61,439620,540
54,62,439680,240
63,79,440160,1440
57,67,440160,1440
54,67,440160,1440
60,79,440160,1440
49,41,441600,240
56,56,442080,960
52,48,443040,360
49,48,443400,115
49,54,443520,480
48,47,444000,720
48,47,444720,240
56,56,444960,360
48,47,445320,120
51,43,445440,480
49,47,445920,720
49,48,446640,240
56,53,446880,360
49,47,447240,120
52,43,447360,480
51,47,447840,720
51,48,448560,240
56,53,448800,360
51,47,449160,120
52,40,449280,140
56,35,449400,140
52,40,449520,140
56,34,449640,140
52,47,449760,119
56,34,449880,119
52,40,450000,119
56,34,450120,119
52,47,450240,119
56,34,450360,119
52,39,450480,119
56,34,450600,119
52,47,450720,119
56,35,450840,119
52,40,450960,119
56,34,451080,119
54,47,451200,119
56,33,451320,119
54,39,451440,119
56,34,451560,119
54,55,451680,119
56,45,451800,119
54,57,451920,119
56,53,452040,119
54,67,452160,119
56,52,452280,119
54,62,452400,119
56,56,452520,119
54,71,452640,119
56,56,452760,119
54,58,452880,119
56,49,453000,119
52,47,453120,119
56,34,453240,119
52,40,453360,119
56,34,453480,119
52,56,453600,119
56,47,453720,119
52,57,453840,119
56,50,453960,119
52,68,454080,119
56,52,454200,119
52,64,454320,119
56,57,454440,119
52,75,454560,119
56,56,454680,119
52,61,454800,119
56,49,454920,119
48,47,455040,119
56,37,455160,119
48,41,455280,119
56,35,455400,119
48,59,455520,119
56,47,455640,119
48,56,455760,119
56,49,455880,119
48,69,456000,119
56,52,456120,119
48,62,456240,119
56,56,456360,119
48,77,456480,119
56,54,456600,119
48,58,456720,119
56,47,456840,119
49,47,456960,140
56,43,457080,140
49,47,457200,140
56,43,457320,140
49,49,457440,140
56,46,457560,140
49,51,457680,140
56,48,457800,140
47,53,457920,140
49,51,458040,140
47,56,458160,140
49,51,458280,140
47,57,458400,140
49,53,458520,140
47,59,458640,140
49,53,458760,140
45,62,458880,140
49,56,459000,140
45,62,459120,140
49,58,459240,140
45,66,459360,140
49,61,459480,140
45,68,459600,140
49,62,459720,140
41,69,459840,140
49,66,459960,140
41,72,460080,140
49,68,460200,140
41,73,460320,140
49,68,460440,140
41,76,460560,140
49,70,460680,140
37,67,460800,3840
42,79,460800,3840
30,67,460800,3840
38,53,464640,3840
42,63,464640,3840
30,53,464640,3840
37,53,468480,3840
31,53,468480,3840
43,63,468480,3840
37,52,472320,3840
44,62,472320,3840
32,52,472320,3840
60,62,480000,1920
66,62,480000,1920
56,62,480000,1920
31,33,486720,1920
43,39,486720,1920
32,28,488640,1920
44,34,488640,1920
37,37,490560,120
49,37,490560,115
49,31,490680,120
44,35,490800,120
49,31,490920,120
37,37,491040,120
49,31,491160,119
44,35,491280,119
49,30,491400,119
37,37,491520,119
49,32,491640,119
44,35,491760,119
49,32,491880,119
37,37,492000,119
49,32,492120,119
44,35,492240,119
49,30,492360,119
37,37,492480,119
51,31,492600,119
44,35,492720,119
51,31,492840,119
37,37,492960,119
51,30,493080,119
44,35,493200,119
51,31,493320,119
37,37,493440,119
51,32,493560,119
44,35,493680,119
51,35,493800,119
37,37,493920,119
51,30,494040,119
44,35,494160,119
51,31,494280,119
37,37,494400,119
49,30,494520,119
44,35,494640,119
49,31,494760,119
37,37,494880,119
49,32,495000,119
44,35,495120,119
49,30,495240,119
37,37,495360,119
49,31,495480,119
44,35,495600,119
49,31,495720,119
37,37,495840,119
49,31,495960,119
44,35,496080,119
49,30,496200,119
37,37,496320,119
51,31,496440,119
44,35,496560,119
51,31,496680,119
37,37,496800,119
51,33,496920,119
44,35,497040,119
51,30,497160,119
37,37,497280,119
51,31,497400,119
44,35,497520,119
51,31,497640,119
37,37,497760,119
51,32,497880,119
44,35,498000,119
51,32,498120,119
37,37,498240,119
49,33,498360,119
44,38,498480,119
49,34,498600,119
37,39,498720,119
49,34,498840,119
44,40,498960,119
49,35,499080,119
37,41,499200,119
51,39,499320,119
44,43,499440,119
51,39,499560,119
37,45,499680,119
51,40,499800,119
44,47,499920,119
51,41,500040,119
37,47,500160,119
49,42,500280,119
44,50,500400,119
49,44,500520,119
37,51,500640,119
49,47,500760,119
44,51,500880,119
49,46,501000,119
37,52,501120,119
51,50,501240,119
44,54,501360,119
51,50,501480,119
37,56,501600,119
51,51,501720,119
44,57,501840,119
51,51,501960,119
44,68,502080,140
49,68,502080,140
37,57,502080,140
52,57,502200,140
56,60,502320,140
61,56,502440,140
64,62,502560,140
56,57,502680,140
61,58,502800,140
64,57,502920,140
68,62,503040,140
61,58,503160,140
64,58,503280,140
68,57,503400,140
73,63,503520,140
64,60,503640,140
68,62,503760,140
73,60,503880,140
76,68,504000,140
73,64,504120,140
68,63,504240,140
64,61,504360,140
73,67,504480,140
68,64,504600,140
64,62,504720,140
61,62,504840,140
68,67,504960,140
64,64,505080,140
61,62,505200,140
56,62,505320,140
64,67,505440,140
61,64,505560,140
56,62,505680,140
52,62,505800,140
61,63,505920,140
56,62,506040,140
52,62,506160,140
49,60,506280,140
56,64,506400,140
52,63,506520,140
49,62,506640,140
44,60,506760,140
52,66,506880,140
49,66,507000,140
44,63,507120,140
40,61,507240,140
49,66,507360,140
44,64,507480,140
40,63,507600,140
44,62,507720,140
37,62,507840,480
37,67,508800,360
40,67,508800,360
44,79,508800,360
49,79,508800,360
44,79,509760,360
37,67,509760,360
40,67,509760,360
49,79,509760,360
