note,velocity,position,duration
54,76,1,239
66,90,1,239
55,96,480,480
66,86,1920,120
54,73,1920,120
54,69,2160,120
66,82,2160,120
55,91,2400,480
53,76,3840,240
65,90,3840,240
56,93,4320,240
55,87,4560,240
65,86,5760,120
53,73,5760,120
53,69,6000,120
65,82,6000,120
56,90,6240,240
55,85,6480,180
56,90,6720,240
55,87,6960,180
55,86,7680,480
55,82,8160,480
55,95,8640,480
56,85,8880,120
55,83,9120,480
65,77,9360,120
55,85,9600,480
55,83,10080,480
55,94,10560,480
56,84,10800,240
55,83,11040,480
61,77,11280,120
55,88,11520,480
56,82,11760,240
55,84,12000,480
65,75,12240,120
55,83,12480,480
56,76,12720,240
55,82,12960,480
61,77,13200,240
55,84,13440,480
55,82,13920,480
55,85,14400,480
55,84,14880,480
55,71,15360,120
60,65,15600,120
56,84,15840,120
61,73,16080,120
57,72,16320,120
62,71,16560,120
58,81,16800,120
63,70,17040,120
55,73,17280,120
60,68,17520,120
56,88,17760,120
61,77,18000,120
57,75,18240,120
62,74,18480,120
58,87,18720,120
63,74,18960,120
55,76,19200,120
60,70,19440,120
56,90,19680,120
61,80,19920,120
57,78,20160,120
62,77,20400,120
58,89,20640,120
63,76,20880,120
55,81,21120,120
60,75,21360,120
56,99,21600,120
61,86,21840,120
57,88,22080,120
62,83,22320,120
58,99,22560,120
63,84,22800,120
89,62,22980,60
76,64,23040,120
84,76,23040,120
88,76,23040,120
87,60,23460,60
80,72,23520,120
85,72,23520,120
77,61,23520,120
86,58,23940,60
74,61,24000,120
78,72,24000,120
84,72,24000,120
84,55,24420,60
70,58,24480,120
82,69,24480,120
79,69,24480,120
77,58,24900,60
76,72,24960,120
72,72,24960,120
64,61,24960,120
75,56,25380,60
73,68,25440,120
65,57,25440,120
68,68,25440,120
74,54,25860,60
66,68,25920,120
62,57,25920,120
72,68,25920,120
72,52,26340,60
70,65,26400,120
67,65,26400,120
58,55,26400,120
65,55,26820,60
55,57,26880,120
60,68,26880,120
64,68,26880,120
63,54,27300,60
56,64,27360,120
61,64,27360,120
53,54,27360,120
62,52,27780,60
50,54,27840,120
54,64,27840,120
60,64,27840,120
60,49,28260,60
51,52,28320,120
58,62,28320,120
55,62,28320,120
55,88,28800,120
60,73,29040,120
56,85,29280,120
61,71,29520,120
57,87,29760,120
62,72,30000,120
58,87,30240,120
63,72,30480,120
64,67,30720,240
72,79,30720,240
67,67,30720,240
60,67,30720,240
67,61,31200,480
79,72,31200,480
72,61,31200,480
76,61,31200,480
76,63,31680,480
67,63,31680,480
72,63,31680,480
79,75,31680,480
72,61,32160,420
79,72,32160,420
76,61,32160,420
67,61,32160,420
68,54,32580,60
80,64,32580,60
79,72,32640,240
67,61,32640,240
60,58,33120,480
72,69,33120,480
64,58,33120,480
67,58,33120,480
68,62,33600,720
74,73,33600,720
65,62,33600,720
62,62,33600,720
64,67,34560,240
60,67,34560,240
67,67,34560,240
72,79,34560,240
67,61,35040,480
79,72,35040,480
72,61,35040,480
76,61,35040,480
76,63,35520,480
79,75,35520,480
72,63,35520,480
67,63,35520,480
72,61,36000,420
67,61,36000,420
79,72,36000,420
76,61,36000,420
81,64,36420,60
69,54,36420,60
67,61,36480,240
79,72,36480,240
60,58,36960,480
72,69,36960,480
64,58,36960,480
67,58,36960,480
69,62,37440,720
62,62,37440,720
66,62,37440,720
74,73,37440,720
75,83,38400,240
69,70,38400,240
78,83,38400,240
75,61,38880,480
69,61,38880,480
78,72,38880,480
81,72,38880,480
69,63,39360,480
81,75,39360,480
75,63,39360,480
78,75,39360,480
78,72,39840,480
81,72,39840,480
75,61,39840,480
69,61,39840,480
87,82,40320,240
79,69,40320,240
82,69,40320,240
91,82,40320,240
74,61,40560,240
86,72,40560,240
75,65,40800,240
87,77,40800,240
70,61,41040,240
82,72,41040,240
91,80,41280,240
79,68,41280,240
87,80,41280,240
82,68,41280,240
74,61,41520,240
86,72,41520,240
87,77,41760,240
75,65,41760,240
82,72,42000,240
70,61,42000,240
78,83,42240,240
69,70,42240,240
75,83,42240,240
78,72,42720,480
81,72,42720,480
69,61,42720,480
75,61,42720,480
78,75,43200,480
69,63,43200,480
75,63,43200,480
81,75,43200,480
75,61,43680,480
81,72,43680,480
78,72,43680,480
69,61,43680,480
91,82,44160,240
94,82,44160,240
87,69,44160,240
82,69,44160,240
94,80,44640,240
82,68,44640,240
77,61,44880,240
89,72,44880,240
87,73,45120,240
79,62,45120,240
82,62,45120,240
91,73,45120,240
75,58,45360,240
87,69,45360,240
74,65,45600,240
86,77,45600,240
70,61,45840,240
82,72,45840,240
75,70,46080,240
71,70,46080,240
81,83,46080,240
83,83,46080,240
75,61,46560,480
87,72,46560,480
78,72,46560,480
83,72,46560,480
83,75,47040,480
87,75,47040,480
78,75,47040,480
75,63,47040,480
78,72,47520,480
75,61,47520,480
83,72,47520,480
87,72,47520,480
91,78,48000,240
79,66,48000,240
88,78,48000,240
84,66,48000,240
86,72,48240,240
74,61,48240,240
76,64,48480,240
88,76,48480,240
72,56,48720,240
84,67,48720,240
91,78,48960,240
79,66,48960,240
88,78,48960,240
84,66,48960,240
74,57,49200,240
86,68,49200,240
88,73,49440,240
76,62,49440,240
84,66,49680,240
72,56,49680,240
81,83,49920,240
71,70,49920,240
75,70,49920,240
83,83,49920,240
78,61,50400,480
87,72,50400,480
83,72,50400,480
75,61,50400,480
75,63,50880,480
87,75,50880,480
83,75,50880,480
78,63,50880,480
78,61,51360,480
87,72,51360,480
83,72,51360,480
75,61,51360,480
91,78,51840,240
96,78,51840,240
88,66,51840,240
84,66,51840,240
96,76,52320,240
84,64,52320,240
79,56,52560,240
91,67,52560,240
88,68,52800,240
81,57,52800,240
84,57,52800,240
93,68,52800,240
77,54,53040,240
89,64,53040,240
76,62,53280,240
88,73,53280,240
72,56,53520,240
84,66,53520,240
55,66,53760,240
67,78,53760,240
91,62,54240,240
103,73,54240,240
98,67,54480,240
86,56,54480,240
87,59,54720,240
99,70,54720,240
98,65,54960,240
86,55,54960,240
82,59,55200,240
94,70,55200,240
91,67,55440,240
79,56,55440,240
80,59,55680,240
92,70,55680,240
99,64,55920,240
87,54,55920,240
83,56,56160,240
95,67,56160,240
99,59,56400,240
87,50,56400,240
86,62,56640,240
98,74,56640,240
91,68,57120,240
79,57,57120,240
91,78,57600,480
79,66,57600,480
79,62,58080,240
91,73,58080,240
86,67,58320,240
74,56,58320,240
87,70,58560,240
75,59,58560,240
74,55,58800,240
86,65,58800,240
70,59,59040,240
82,70,59040,240
67,56,59280,240
79,67,59280,240
80,70,59520,240
68,59,59520,240
87,64,59760,240
75,54,59760,240
83,67,60000,240
71,56,60000,240
75,50,60240,240
87,59,60240,240
74,67,60480,240
86,79,60480,240
67,56,60960,240
79,67,60960,240
79,78,61440,480
67,66,61440,480
79,73,61920,240
67,62,61920,240
62,56,62160,240
74,67,62160,240
75,70,62400,240
63,59,62400,240
74,65,62640,240
62,55,62640,240
70,70,62880,240
58,59,62880,240
55,56,63120,240
67,67,63120,240
54,87,63360,720
79,73,63840,240
67,62,63840,240
74,67,64080,240
62,56,64080,240
63,59,64320,240
75,70,64320,240
74,65,64560,240
62,55,64560,240
58,59,64800,240
70,70,64800,240
55,56,65040,240
67,67,65040,240
53,87,65280,720
67,62,65760,240
79,73,65760,240
74,67,66000,240
62,56,66000,240
75,70,66240,240
63,59,66240,240
62,55,66480,240
74,65,66480,240
58,59,66720,240
70,70,66720,240
55,56,66960,240
67,67,66960,240
52,87,67200,720
79,73,67680,240
67,62,67680,240
62,56,67920,240
74,67,67920,240
75,70,68160,240
63,59,68160,240
74,65,68400,240
62,55,68400,240
70,70,68640,240
58,59,68640,240
67,67,68880,240
55,56,68880,240
51,87,69120,480
50,87,69600,240
59,73,70080,720
71,87,70080,720
92,83,70560,240
80,70,70560,240
103,72,71160,120
98,65,71400,120
99,69,71640,120
95,66,71880,120
96,69,72120,120
91,65,72360,120
92,69,72600,120
86,65,72840,120
87,72,73080,120
83,65,73320,120
84,69,73560,120
79,65,73800,120
80,68,74040,120
74,63,74280,120
75,69,74520,120
71,66,74760,120
72,72,75000,120
67,63,75240,120
68,69,75480,120
62,66,75720,120
63,69,75960,120
59,66,76200,120
60,75,76440,120
55,69,76680,120
56,78,76920,120
50,71,77160,120
51,81,77400,120
47,74,77640,120
48,82,77880,120
43,77,78120,120
44,82,78360,120
43,77,78600,120
44,82,78840,120
43,76,79080,120
47,82,79320,120
43,79,79560,120
56,82,79800,120
55,76,80040,120
59,82,80280,120
55,79,80520,120
56,85,80640,240
56,84,81120,240
67,73,81600,240
79,86,81600,240
79,83,82080,240
67,70,82080,240
56,85,82560,240
56,84,83040,240
79,86,83520,240
67,73,83520,240
79,83,84000,240
67,70,84000,240
56,85,84480,960
79,84,85440,960
67,71,85440,960
56,85,86400,960
79,83,87360,960
67,70,87360,960
67,61,88320,480
67,54,88800,480
67,51,89280,480
67,47,89760,480
67,36,90240,90
64,31,90320,90
67,36,90400,90
64,31,90480,90
67,36,90560,90
64,31,90640,90
67,36,90720,90
64,31,90800,90
67,36,90880,90
64,32,90960,90
67,36,91040,90
64,31,91120,90
67,36,91200,90
64,31,91280,90
67,36,91360,90
64,31,91440,90
67,36,91520,90
64,30,91600,90
67,36,91680,90
64,30,91760,90
67,36,91840,90
64,32,91920,90
67,36,92000,90
64,31,92080,80
67,37,92160,117
64,32,92240,117
67,36,92320,117
64,32,92400,117
67,37,92480,117
64,31,92560,90
67,36,92640,90
64,31,92720,90
67,36,92800,90
64,32,92880,90
67,36,92960,90
64,31,93040,90
67,36,93120,90
64,31,93200,90
67,36,93280,90
64,31,93360,90
67,36,93440,90
64,30,93520,90
67,36,93600,90
64,30,93680,90
67,36,93760,90
64,32,93840,90
67,36,93920,90
64,31,94000,80
67,39,94080,90
64,33,94160,90
67,38,94240,90
64,33,94320,90
67,38,94400,90
64,34,94480,90
67,36,94560,90
64,31,94640,90
67,36,94720,90
64,32,94800,90
67,36,94880,90
64,31,94960,90
67,36,95040,90
64,31,95120,90
67,36,95200,90
64,31,95280,90
67,36,95360,90
64,30,95440,90
67,36,95520,90
64,30,95600,90
67,36,95680,90
64,32,95760,90
67,36,95840,90
64,31,95920,80
67,36,96000,90
64,31,96080,90
67,36,96160,90
64,31,96240,90
67,36,96320,90
64,31,96400,90
67,36,96480,90
64,31,96560,90
67,36,96640,90
64,32,96720,90
67,36,96800,90
64,31,96880,90
67,36,96960,90
64,31,97040,90
67,36,97120,90
64,31,97200,90
67,36,97280,90
64,30,97360,80
67,38,97440,117
64,35,97520,117
67,38,97600,117
64,32,97680,117
67,36,97760,117
64,31,97840,120
67,40,97920,90
64,36,98000,90
67,39,98080,90
64,34,98160,90
67,39,98240,90
64,33,98320,90
67,38,98400,117
64,32,98480,117
67,36,98560,117
64,32,98640,117
67,36,98720,117
64,31,98800,104
66,37,98880,117
63,32,98960,117
66,36,99040,117
63,32,99120,117
66,37,99200,117
63,31,99280,90
66,34,99360,90
63,29,99440,90
66,34,99520,90
63,30,99600,90
66,33,99680,90
63,28,99760,90
66,33,99840,90
63,28,99920,90
66,33,100000,90
63,28,100080,90
66,33,100160,90
63,27,100240,90
66,32,100320,90
63,27,100400,90
66,32,100480,90
63,28,100560,90
66,32,100640,90
63,27,100720,80
66,39,100800,117
63,33,100880,117
66,38,100960,117
63,33,101040,117
66,38,101120,117
63,34,101200,90
66,34,101280,90
63,29,101360,90
66,34,101440,90
63,30,101520,90
66,33,101600,90
63,28,101680,90
66,33,101760,90
63,28,101840,90
66,33,101920,90
63,28,102000,90
66,33,102080,90
63,27,102160,90
66,32,102240,90
63,27,102320,90
66,32,102400,90
63,28,102480,90
66,32,102560,90
63,27,102640,80
65,36,102720,117
62,31,102800,117
65,36,102880,117
62,31,102960,117
65,36,103040,117
62,31,103120,117
65,36,103200,117
62,31,103280,117
65,36,103360,117
62,32,103440,117
65,36,103520,117
62,31,103600,90
65,36,103680,90
62,31,103760,90
65,36,103840,90
62,31,103920,90
65,36,104000,90
62,30,104080,80
65,38,104160,117
62,35,104240,117
65,38,104320,117
62,32,104400,117
65,36,104480,117
62,31,104560,90
65,40,104640,90
62,36,104720,90
65,39,104800,90
62,34,104880,90
65,39,104960,90
62,33,105040,80
65,38,105120,117
62,32,105200,117
65,36,105280,117
62,32,105360,117
65,36,105440,117
62,31,105520,90
64,37,105600,90
61,32,105680,90
64,36,105760,90
61,32,105840,90
64,37,105920,90
61,31,106000,80
63,36,106080,90
59,31,106160,90
63,36,106240,90
59,32,106320,90
63,36,106400,90
59,31,106480,80
81,54,106560,480
69,49,106560,480
76,53,107040,240
88,57,107040,240
59,37,107520,90
56,32,107600,90
59,36,107680,90
56,32,107760,90
59,37,107840,90
56,31,107920,80
58,36,108000,90
55,31,108080,90
58,36,108160,90
55,32,108240,90
58,36,108320,90
55,31,108400,80
69,49,108480,480
81,54,108480,480
88,57,108960,240
76,53,108960,240
55,37,109440,90
51,32,109520,90
55,36,109600,90
51,32,109680,90
55,37,109760,90
51,31,109840,80
54,36,109920,90
50,31,110000,90
54,36,110080,90
50,32,110160,90
54,36,110240,90
50,31,110320,80
69,49,110400,480
81,54,110400,480
88,57,110880,240
76,53,110880,240
67,32,111840,90
63,27,111920,90
67,32,112000,90
63,27,112080,90
67,33,112160,90
63,27,112240,80
67,36,112320,80
64,31,112380,80
67,36,112440,80
64,32,112500,80
67,36,112560,80
64,31,112620,80
67,36,112680,80
64,31,112740,60
67,34,112800,80
64,29,112860,80
67,34,112920,80
64,29,112980,80
67,33,113040,80
64,29,113100,80
67,34,113160,80
64,29,113220,60
67,33,113280,80
64,28,113340,80
67,33,113400,80
64,29,113460,80
79,60,113520,240
67,33,113520,80
76,60,113520,240
70,50,113520,240
64,31,113580,80
67,34,113640,80
64,30,113700,60
88,65,113760,240
67,65,113760,80
82,55,113760,240
91,65,113760,240
64,31,113820,80
67,34,113880,80
64,32,113940,80
67,35,114000,80
64,31,114060,80
67,34,114120,80
64,30,114180,60
67,36,114240,80
64,31,114300,80
67,36,114360,80
64,32,114420,80
67,36,114480,80
64,31,114540,80
67,36,114600,80
64,31,114660,80
67,34,114720,80
64,29,114780,80
67,34,114840,80
64,29,114900,80
67,33,114960,80
64,29,115020,80
67,34,115080,80
64,29,115140,60
67,33,115200,80
64,28,115260,80
67,33,115320,80
64,29,115380,80
76,62,115440,240
67,33,115440,80
79,62,115440,240
70,52,115440,240
64,31,115500,80
67,34,115560,80
64,30,115620,60
91,66,115680,240
88,66,115680,240
82,55,115680,240
67,66,115680,80
64,31,115740,80
67,36,115800,80
64,32,115860,80
67,38,115920,80
64,31,115980,80
67,38,116040,80
64,33,116100,60
67,40,116160,80
64,31,116220,80
67,36,116280,80
64,32,116340,80
67,38,116400,80
64,31,116460,80
67,36,116520,80
64,30,116580,80
67,34,116640,80
64,29,116700,80
67,34,116760,80
64,29,116820,80
67,33,116880,80
64,29,116940,80
67,34,117000,80
64,29,117060,80
67,36,117120,80
64,31,117180,80
67,36,117240,80
64,32,117300,80
67,36,117360,80
64,31,117420,80
67,36,117480,80
64,31,117540,60
67,34,117600,80
64,29,117660,80
67,34,117720,80
64,29,117780,80
67,33,117840,80
64,29,117900,80
67,34,117960,80
64,29,118020,80
67,37,118080,80
64,32,118140,80
67,37,118200,80
64,32,118260,80
67,37,118320,80
64,31,118380,80
67,38,118440,80
64,31,118500,60
67,39,118560,80
64,31,118620,80
67,37,118680,80
64,32,118740,80
67,36,118800,80
64,31,118860,80
67,34,118920,80
64,29,118980,80
66,38,119040,80
63,31,119100,80
66,38,119160,80
63,32,119220,80
66,38,119280,80
63,31,119340,80
66,38,119400,80
63,31,119460,60
66,34,119520,80
63,29,119580,80
66,34,119640,80
63,29,119700,80
66,33,119760,80
63,29,119820,80
66,34,119880,80
63,29,119940,80
66,33,120000,80
63,28,120060,80
66,33,120120,80
63,29,120180,60
79,63,120240,240
70,53,120240,240
76,63,120240,240
67,33,120240,80
64,31,120300,80
67,34,120360,80
64,30,120420,60
88,66,120480,240
91,66,120480,240
67,66,120480,80
82,55,120480,240
64,31,120540,80
67,34,120600,80
64,32,120660,80
67,35,120720,80
64,31,120780,80
67,34,120840,80
64,30,120900,80
66,36,120960,80
63,31,121020,80
66,36,121080,80
63,32,121140,80
66,36,121200,80
63,31,121260,80
66,36,121320,80
63,31,121380,80
66,34,121440,80
63,29,121500,80
66,34,121560,80
63,29,121620,80
66,33,121680,80
63,29,121740,80
66,34,121800,80
63,29,121860,80
66,33,121920,80
63,28,121980,80
66,33,122040,80
63,29,122100,60
79,64,122160,240
70,54,122160,240
76,64,122160,240
67,33,122160,80
64,31,122220,80
67,34,122280,80
64,30,122340,60
67,67,122400,80
88,67,122400,240
91,67,122400,240
82,56,122400,240
64,31,122460,80
67,34,122520,80
64,32,122580,80
67,35,122640,80
64,31,122700,80
67,34,122760,80
64,30,122820,60
65,40,122880,80
62,31,122940,80
65,36,123000,80
62,32,123060,80
65,38,123120,80
62,31,123180,80
65,36,123240,80
62,30,123300,80
65,34,123360,80
62,29,123420,80
65,34,123480,80
62,29,123540,80
65,33,123600,80
62,29,123660,80
65,34,123720,80
62,29,123780,80
65,36,123840,80
62,31,123900,80
65,36,123960,80
62,32,124020,80
65,36,124080,80
62,31,124140,80
65,36,124200,80
62,31,124260,60
65,34,124320,80
62,29,124380,80
65,34,124440,80
62,29,124500,80
65,33,124560,80
62,29,124620,80
65,34,124680,80
62,29,124740,80
65,36,124800,80
62,31,124860,80
65,36,124920,80
62,32,124980,80
65,36,125040,80
62,31,125100,80
65,36,125160,80
62,31,125220,60
65,34,125280,80
62,29,125340,80
65,34,125400,80
62,29,125460,80
65,33,125520,80
62,29,125580,80
65,34,125640,80
62,29,125700,80
64,36,125760,80
61,32,125820,80
64,37,125880,80
61,32,125940,80
64,36,126000,80
61,33,126060,80
64,38,126120,80
61,33,126180,60
63,39,126240,80
59,34,126300,80
63,39,126360,80
59,34,126420,80
63,39,126480,80
59,35,126540,80
63,40,126600,80
59,35,126660,60
62,41,126720,80
58,36,126780,80
62,41,126840,80
58,36,126900,80
62,41,126960,80
58,36,127020,80
62,42,127080,80
58,36,127140,60
60,43,127200,80
57,37,127260,80
60,44,127320,80
57,37,127380,80
60,43,127440,80
57,38,127500,80
60,45,127560,80
57,38,127620,60
59,45,127680,80
56,39,127740,80
59,45,127800,80
56,39,127860,80
59,45,127920,80
56,40,127980,80
59,46,128040,80
56,41,128100,60
58,47,128160,80
55,41,128220,80
58,47,128280,80
55,42,128340,80
58,46,128400,80
55,42,128460,80
58,49,128520,80
55,43,128580,60
57,49,128640,80
53,43,128700,80
57,50,128760,80
53,44,128820,80
57,49,128880,80
53,44,128940,80
57,51,129000,80
53,45,129060,60
56,52,129120,80
52,45,129180,80
56,52,129240,80
52,45,129300,80
56,51,129360,80
52,45,129420,80
56,53,129480,80
52,46,129540,60
55,51,129600,80
51,45,129660,80
55,49,129720,80
51,44,129780,80
55,47,129840,80
51,43,129900,80
55,46,129960,80
51,42,130020,60
54,47,130080,80
50,41,130140,80
54,45,130200,80
50,40,130260,80
54,43,130320,80
50,39,130380,80
54,42,130440,80
50,38,130500,60
53,43,130560,80
49,37,130620,80
53,41,130680,80
49,36,130740,80
53,39,130800,80
49,36,130860,80
53,38,130920,80
49,35,130980,60
52,38,131040,80
48,34,131100,80
52,37,131160,80
48,33,131220,80
52,36,131280,80
48,32,131340,80
52,35,131400,80
48,31,131460,60
76,65,133320,120
64,65,133320,120
88,72,133440,720
76,72,133440,720
76,65,135240,120
64,65,135240,120
88,72,135360,720
76,72,135360,720
55,86,139200,480
55,86,141120,480
55,82,141600,480
55,86,143040,480
55,82,143520,480
55,95,144000,480
56,85,144240,120
55,83,144480,480
65,77,144720,120
55,85,144960,480
55,83,145440,480
55,94,145920,480
56,84,146160,240
55,83,146400,480
61,77,146640,120
55,80,146880,480
55,78,147360,480
55,81,147840,480
55,85,148320,480
55,71,148800,120
60,65,149040,120
56,84,149280,120
61,73,149520,120
57,72,149760,120
62,71,150000,120
58,81,150240,120
63,70,150480,120
55,73,150720,120
60,68,150960,120
56,88,151200,120
61,77,151440,120
57,79,151680,120
62,74,151920,120
58,87,152160,120
63,74,152400,120
89,62,152580,60
76,64,152640,120
84,76,152640,120
88,76,152640,120
87,60,153060,60
80,72,153120,120
85,72,153120,120
77,61,153120,120
86,58,153540,60
78,72,153600,120
74,61,153600,120
84,72,153600,120
84,55,154020,60
82,69,154080,120
79,69,154080,120
70,58,154080,120
77,58,154500,60
64,61,154560,120
72,72,154560,120
76,72,154560,120
75,56,154980,60
68,68,155040,120
73,68,155040,120
65,57,155040,120
74,54,155460,60
62,57,155520,120
66,68,155520,120
72,68,155520,120
72,52,155940,60
58,55,156000,120
70,65,156000,120
67,65,156000,120
55,76,156480,120
60,70,156720,120
56,90,156960,120
61,80,157200,120
57,78,157440,120
62,77,157680,120
58,89,157920,120
63,76,158160,120
55,81,158400,120
60,75,158640,120
56,99,158880,120
61,86,159120,120
57,88,159360,120
62,83,159600,120
58,99,159840,120
63,84,160080,120
67,79,160320,240
60,67,160320,240
64,67,160320,240
72,79,160320,240
72,61,160800,480
79,72,160800,480
76,72,160800,480
67,61,160800,480
67,63,161280,480
79,75,161280,480
72,63,161280,480
76,75,161280,480
67,61,161760,420
79,72,161760,420
72,61,161760,420
76,72,161760,420
68,54,162180,60
80,64,162180,60
67,61,162240,240
79,72,162240,240
64,58,162720,480
60,58,162720,480
67,69,162720,480
72,69,162720,480
62,62,163200,720
74,73,163200,720
65,62,163200,720
68,73,163200,720
67,79,164160,240
72,79,164160,240
64,67,164160,240
60,67,164160,240
72,61,164640,480
67,61,164640,480
79,72,164640,480
76,72,164640,480
76,75,165120,480
79,75,165120,480
72,63,165120,480
67,63,165120,480
76,72,165600,420
67,61,165600,420
72,61,165600,420
79,72,165600,420
81,64,166020,60
69,54,166020,60
67,61,166080,240
79,72,166080,240
60,58,166560,480
72,69,166560,480
64,58,166560,480
67,69,166560,480
69,73,167040,720
62,62,167040,720
66,62,167040,720
74,73,167040,720
75,83,168000,240
69,70,168000,240
78,83,168000,240
75,61,168480,480
69,61,168480,480
81,72,168480,480
78,72,168480,480
75,63,168960,480
81,75,168960,480
78,75,168960,480
69,63,168960,480
69,61,169440,480
81,72,169440,480
75,61,169440,480
78,72,169440,480
82,69,169920,240
91,82,169920,240
87,82,169920,240
79,69,169920,240
86,72,170160,240
74,61,170160,240
87,77,170400,240
75,65,170400,240
70,61,170640,240
82,72,170640,240
87,80,170880,240
79,68,170880,240
82,68,170880,240
91,80,170880,240
74,61,171120,240
86,72,171120,240
75,65,171360,240
87,77,171360,240
70,61,171600,240
82,72,171600,240
75,83,171840,240
69,70,171840,240
78,83,171840,240
75,61,172320,480
81,72,172320,480
78,72,172320,480
69,61,172320,480
69,63,172800,480
81,75,172800,480
75,63,172800,480
78,75,172800,480
78,72,173280,480
69,61,173280,480
75,61,173280,480
81,72,173280,480
87,69,173760,240
94,82,173760,240
82,69,173760,240
91,82,173760,240
94,80,174240,240
82,68,174240,240
89,72,174480,240
77,61,174480,240
91,73,174720,240
79,62,174720,240
87,73,174720,240
82,62,174720,240
75,58,174960,240
87,69,174960,240
86,77,175200,240
74,65,175200,240
82,72,175440,240
70,61,175440,240
81,83,175680,240
83,83,175680,240
75,70,175680,240
71,70,175680,240
78,72,176160,480
75,61,176160,480
83,72,176160,480
87,72,176160,480
75,63,176640,480
87,75,176640,480
78,75,176640,480
83,75,176640,480
83,72,177120,480
87,72,177120,480
75,61,177120,480
78,72,177120,480
91,78,177600,240
79,66,177600,240
88,78,177600,240
84,66,177600,240
74,61,177840,240
86,72,177840,240
88,76,178080,240
76,64,178080,240
84,67,178320,240
72,56,178320,240
84,78,178560,240
79,66,178560,240
88,78,178560,240
91,78,178560,240
86,68,178800,240
74,57,178800,240
88,73,179040,240
76,62,179040,240
72,56,179280,240
84,66,179280,240
75,70,179520,240
71,70,179520,240
83,83,179520,240
81,83,179520,240
78,61,180000,480
87,72,180000,480
83,72,180000,480
75,61,180000,480
75,63,180480,480
87,75,180480,480
78,63,180480,480
83,75,180480,480
83,72,180960,480
75,61,180960,480
78,61,180960,480
87,72,180960,480
88,66,181440,240
96,78,181440,240
84,66,181440,240
91,78,181440,240
96,76,181920,240
84,64,181920,240
91,67,182160,240
79,56,182160,240
84,57,182400,240
93,68,182400,240
88,68,182400,240
81,57,182400,240
89,64,182640,240
77,54,182640,240
88,73,182880,240
76,62,182880,240
84,66,183120,240
72,56,183120,240
55,66,183360,240
67,78,183360,240
103,73,183840,240
91,73,183840,240
86,56,184080,240
98,67,184080,240
99,70,184320,240
87,59,184320,240
98,65,184560,240
86,55,184560,240
94,70,184800,240
82,59,184800,240
79,56,185040,240
91,67,185040,240
80,59,185280,240
92,70,185280,240
87,54,185520,240
99,64,185520,240
83,56,185760,240
95,67,185760,240
87,50,186000,240
99,59,186000,240
86,74,186240,240
98,74,186240,240
79,57,186720,240
91,68,186720,240
91,78,187200,480
79,66,187200,480
91,73,187680,240
79,62,187680,240
86,67,187920,240
74,56,187920,240
75,59,188160,240
87,70,188160,240
86,65,188400,240
74,55,188400,240
70,59,188640,240
82,70,188640,240
79,67,188880,240
67,56,188880,240
68,59,189120,240
80,70,189120,240
87,64,189360,240
75,54,189360,240
83,67,189600,240
71,56,189600,240
75,50,189840,240
87,59,189840,240
74,67,190080,240
86,79,190080,240
79,67,190560,240
67,56,190560,240
67,66,191040,480
79,78,191040,480
79,73,191520,240
67,62,191520,240
62,56,191760,240
74,67,191760,240
75,70,192000,240
63,59,192000,240
74,65,192240,240
62,55,192240,240
70,70,192480,240
58,59,192480,240
55,56,192720,240
67,67,192720,240
54,87,192960,720
79,73,193440,240
67,62,193440,240
74,67,193680,240
62,56,193680,240
63,59,193920,240
75,70,193920,240
74,65,194160,240
62,55,194160,240
70,70,194400,240
58,59,194400,240
55,56,194640,240
67,67,194640,240
53,87,194880,720
79,73,195360,240
67,62,195360,240
74,67,195600,240
62,56,195600,240
63,59,195840,240
75,70,195840,240
74,65,196080,240
62,55,196080,240
58,59,196320,240
70,70,196320,240
67,67,196560,240
55,56,196560,240
52,87,196800,720
67,62,197280,240
79,73,197280,240
62,56,197520,240
74,67,197520,240
63,59,197760,240
75,70,197760,240
74,65,198000,240
62,55,198000,240
58,59,198240,240
70,70,198240,240
67,67,198480,240
55,56,198480,240
51,87,198720,480
50,87,199200,240
59,73,199680,720
71,87,199680,720
80,70,200160,240
92,83,200160,240
103,72,200760,120
98,65,201000,120
99,69,201240,120
95,66,201480,120
96,69,201720,120
91,65,201960,120
92,69,202200,120
86,65,202440,120
87,72,202680,120
83,65,202920,120
84,69,203160,120
79,65,203400,120
80,68,203640,120
74,63,203880,120
75,69,204120,120
71,66,204360,120
72,72,204600,120
67,63,204840,120
68,69,205080,120
62,66,205320,120
63,69,205560,120
59,66,205800,120
60,75,206040,120
55,69,206280,120
56,77,206520,120
50,71,206760,120
51,76,207000,120
47,68,207240,120
48,72,207480,120
43,63,207720,120
44,72,207960,120
43,63,208200,120
44,70,208440,120
43,63,208680,120
47,75,208920,120
43,63,209160,120
44,69,209400,120
43,63,209640,120
47,73,209880,120
43,61,210120,120
44,68,210360,120
43,62,210600,120
44,67,210840,120
46,63,211080,120
47,64,211320,120
50,62,211560,120
51,64,211800,120
53,68,212040,120
55,68,212280,120
56,64,212520,120
58,65,212760,120
59,65,213000,120
62,76,213240,120
63,69,213480,120
65,69,213720,120
67,69,213960,120
68,76,214200,120
70,70,214440,120
71,70,214680,120
74,72,214920,120
75,78,215160,120
77,72,215400,120
79,72,215640,120
80,72,215880,120
83,80,216120,120
74,63,216360,120
86,71,216360,120
87,71,216600,120
75,63,216600,120
89,72,216840,120
77,64,216840,120
79,64,217080,120
91,72,217080,120
92,70,217320,120
80,63,217320,120
94,70,217560,120
82,63,217560,120
83,63,217800,120
95,71,217800,120
98,77,218040,120
86,69,218040,120
99,71,218280,120
87,63,218280,120
89,64,218520,120
101,72,218520,120
91,64,218760,120
103,72,218760,120
99,74,219000,120
87,66,219000,120
101,67,219240,120
89,60,219240,120
95,72,219480,120
83,64,219480,120
86,61,219720,120
98,68,219720,120
87,67,219960,120
99,75,219960,120
101,68,220200,120
89,61,220200,120
83,64,220440,120
95,72,220440,120
98,68,220680,120
86,61,220680,120
99,72,220920,120
87,64,220920,120
89,62,221160,120
101,69,221160,120
89,63,221400,120
77,56,221400,120
90,62,221640,120
78,55,221640,120
79,56,221880,120
91,63,221880,120
92,64,222120,120
80,57,222120,120
81,58,222360,120
93,65,222360,120
94,66,222600,120
82,59,222600,120
95,67,222840,120
83,60,222840,120
84,61,223080,120
96,68,223080,120
97,68,223320,120
85,61,223320,120
98,69,223560,120
86,62,223560,120
87,63,223800,120
99,70,223800,120
101,71,224040,120
89,63,224040,120
102,72,224280,120
90,64,224280,120
91,65,224520,120
103,73,224520,120
63,75,224760,1680
67,75,224760,1680
70,90,224760,1680
75,90,224760,1680
65,71,226560,1800
70,71,226560,1800
74,85,226560,1800
77,85,226560,1800
67,75,228480,840
70,75,228480,840
75,90,228480,840
79,90,228480,840
63,72,229440,480
67,72,229440,480
72,86,229440,480
75,86,229440,480
67,79,229920,360
79,79,229920,360
65,69,230400,960
70,69,230400,960
74,82,230400,960
77,82,230400,960
58,71,231360,840
70,71,231360,840
67,72,232320,480
70,72,232320,480
79,86,232320,480
75,86,232320,480
70,80,232800,480
82,80,232800,480
70,85,233280,960
65,71,233280,480
77,85,233280,480
63,69,233760,480
75,83,233760,480
62,69,234240,960
70,82,234240,960
74,82,234240,960
58,57,235200,840
67,68,235200,840
70,68,235200,840
67,72,236160,480
70,72,236160,480
79,86,236160,480
75,86,236160,480
70,67,236640,480
82,80,236640,480
70,69,237120,960
65,83,237120,480
77,83,237120,480
63,81,237600,480
75,81,237600,480
62,64,238080,960
70,76,238080,960
74,76,238080,960
58,57,239040,960
67,69,239040,960
70,69,239040,960
63,75,240120,1680
67,75,240120,1680
70,90,240120,1680
75,90,240120,1680
65,71,241920,1800
70,85,241920,1800
74,85,241920,1800
77,85,241920,1800
67,75,243840,840
70,75,243840,840
75,90,243840,840
79,90,243840,840
63,72,244800,480
67,72,244800,480
72,86,244800,480
75,86,244800,480
67,66,245280,360
79,79,245280,360
65,69,245760,960
70,69,245760,960
74,82,245760,960
77,82,245760,960
58,63,246720,960
70,75,246720,960
80,73,247680,960
87,73,247680,480
75,63,247680,480
87,70,248160,480
75,59,248160,480
80,73,248640,960
86,65,248640,480
74,54,248640,480
82,63,249120,480
70,52,249120,480
75,68,249600,1920
72,56,249600,480
84,68,249600,480
84,62,250080,480
72,51,250080,480
80,65,250560,480
68,53,250560,480
72,52,251040,480
84,63,251040,480
75,66,251520,1440
70,64,251520,960
82,76,251520,960
68,63,252480,480
80,72,252480,480
67,67,252960,480
79,80,252960,480
65,69,253440,1920
68,69,253440,1920
72,83,253440,1920
77,83,253440,1920
70,70,255360,960
74,70,255360,960
77,83,255360,960
82,83,255360,960
84,81,256320,960
79,81,256320,960
75,67,256320,960
72,67,256320,960
75,83,257280,480
63,69,257280,480
75,76,257760,480
63,64,257760,480
68,66,258240,960
74,76,258240,480
62,64,258240,480
72,75,258720,480
60,63,258720,480
63,69,259200,1440
58,69,259200,960
70,82,259200,960
56,69,260160,480
68,83,260160,480
55,67,260640,480
67,80,260640,480
53,70,261120,1920
60,70,261120,1920
65,84,261120,1920
63,84,261120,1920
58,72,263040,1920
62,72,263040,1920
67,87,263040,1920
70,87,263040,1920
51,100,264960,1800
63,80,265080,1680
67,80,265080,1680
70,94,265080,1680
75,94,265080,1680
51,90,266760,1920
65,73,266880,1800
70,73,266880,1800
74,89,266880,1800
77,89,266880,1800
51,90,268680,2040
67,80,268800,960
70,80,268800,960
75,94,268800,960
79,94,268800,960
63,75,269760,480
67,75,269760,480
72,90,269760,480
75,90,269760,480
67,69,270240,480
79,82,270240,480
65,71,270720,960
70,71,270720,960
74,85,270720,960
77,85,270720,960
58,67,271680,840
70,80,271680,840
51,90,272520,3840
67,75,272640,480
70,75,272640,480
79,90,272640,480
75,90,272640,480
70,69,273120,480
82,83,273120,480
70,89,273600,960
65,73,273600,480
77,89,273600,480
63,72,274080,480
75,87,274080,480
62,71,274560,960
70,85,274560,960
74,85,274560,960
58,63,275520,840
67,75,275520,840
70,75,275520,840
51,90,276360,3960
67,75,276480,480
70,90,276480,480
79,90,276480,480
75,90,276480,480
70,69,276960,480
82,83,276960,480
70,87,277440,960
65,72,277440,480
77,87,277440,480
63,70,277920,480
75,84,277920,480
62,81,278400,960
70,81,278400,960
74,81,278400,960
58,63,279360,960
67,73,279360,960
70,73,279360,960
59,50,280320,1920
63,50,280320,1920
68,50,280320,1920
59,49,282240,960
63,49,282240,960
59,47,283200,960
63,47,283200,960
61,50,284160,960
64,50,284160,960
63,50,285120,960
66,50,285120,960
64,53,286080,1920
68,53,286080,1920
63,50,288000,1920
66,50,288000,1920
64,51,289920,960
68,51,289920,960
66,52,290880,960
69,52,290880,960
68,53,291840,960
71,53,291840,960
68,50,292800,960
71,50,292800,960
66,53,293760,960
69,53,293760,960
68,54,294720,960
71,54,294720,960
69,56,295680,1920
73,56,295680,1920
66,63,297600,960
74,63,297600,960
69,56,298560,960
73,56,298560,960
68,53,299520,1920
71,53,299520,1920
64,54,301440,960
73,54,301440,960
71,52,302400,960
68,52,302400,960
61,51,303360,960
69,51,303360,960
64,49,304320,960
68,49,304320,960
63,52,305280,1920
66,52,305280,1920
61,50,307200,1920
64,50,307200,1920
56,46,309120,1920
63,46,309120,1920
56,37,311040,960
63,37,311040,960
56,35,312000,840
63,35,312000,840
91,71,312958,240
103,90,312960,240
101,83,313200,240
89,65,313201,240
87,71,313439,240
99,90,313440,240
98,82,313680,240
86,64,313682,240
96,88,313920,240
84,70,313921,240
82,64,314160,240
94,82,314160,240
92,88,314400,240
80,70,314400,240
91,82,314640,240
79,64,314643,240
89,87,314880,240
77,70,314882,240
87,81,315120,240
75,63,315122,240
74,68,315359,240
86,86,315360,240
84,80,315600,240
72,63,315603,240
82,86,315840,240
70,68,315842,240
80,80,316080,240
68,63,316081,240
67,68,316319,240
79,86,316320,240
65,63,316558,240
77,80,316560,240
63,66,316798,240
75,84,316800,240
62,63,317040,240
74,79,317040,240
60,66,317278,240
72,84,317280,240
58,62,317518,240
70,76,317520,240
68,83,317760,240
56,65,317763,240
55,61,318000,240
67,73,318000,240
53,64,318238,240
65,82,318240,240
51,61,318478,240
63,73,318480,240
50,63,318718,240
62,80,318720,240
48,59,318960,240
60,72,318960,240
58,80,319200,240
46,63,319201,240
56,71,319440,240
44,57,319441,240
55,79,319680,240
43,62,319681,240
53,69,319920,240
41,54,319921,240
39,62,320158,240
51,79,320160,240
50,68,320400,240
38,54,320401,240
51,76,320640,240
53,67,320880,240
55,76,321120,240
56,68,321360,240
58,79,321600,240
60,68,321840,240
62,80,322080,240
63,69,322320,240
53,65,322560,240
65,72,322560,240
55,60,322800,240
67,67,322800,240
56,70,323038,240
68,79,323040,240
70,70,323280,240
58,63,323281,240
72,83,323520,240
60,72,323522,240
74,73,323760,240
62,67,323762,240
75,85,324000,240
63,75,324001,240
65,68,324239,240
77,75,324240,240
79,88,324480,240
67,80,324483,240
80,80,324720,240
68,70,324722,240
82,90,324960,240
70,81,324963,240
84,81,325200,240
72,71,325203,240
86,91,325440,240
74,82,325441,240
75,70,325678,240
87,80,325680,240
89,92,325920,240
77,83,325920,240
79,73,326159,240
91,84,326160,240
89,92,326400,240
77,83,326403,240
75,80,326639,240
87,88,326640,240
86,92,326880,240
74,83,326882,240
84,87,327120,240
72,79,327123,240
82,91,327360,240
70,82,327363,240
80,84,327600,240
68,73,327603,240
79,90,327840,240
67,81,327841,240
77,84,328080,240
65,73,328080,240
63,85,328320,1920
67,85,328320,1920
70,85,328320,1920
75,96,328320,1920
65,81,330240,1920
70,90,330240,1920
74,90,330240,1920
77,90,330240,1920
67,85,332160,960
70,85,332160,960
75,85,332160,960
79,96,332160,960
63,82,333120,480
67,82,333120,480
72,82,333120,480
75,91,333120,480
70,73,333600,480
75,73,333600,480
67,73,333600,480
79,84,333600,480
65,79,334080,960
70,79,334080,960
74,79,334080,960
77,88,334080,960
58,72,335040,960
70,81,335040,960
84,72,336000,960
80,72,336000,960
87,81,336000,480
75,72,336000,480
87,81,336480,480
75,72,336480,480
79,72,336960,960
82,72,336960,960
86,81,336960,480
74,72,336960,480
82,76,337440,480
70,68,337440,480
80,79,337920,1440
77,70,337920,1920
72,70,337920,480
84,79,337920,480
84,75,338400,480
72,68,338400,480
80,73,338880,480
68,67,338880,480
72,63,339360,480
84,71,339360,480
74,82,339840,960
79,82,339840,960
70,72,339840,960
82,82,339840,960
72,70,340800,960
68,70,340800,480
80,79,340800,480
67,75,341280,480
79,84,341280,480
65,79,341760,1920
75,79,341760,1920
72,79,341760,1920
77,89,341760,1920
70,84,343680,720
74,84,343680,720
77,84,343680,720
82,95,343680,720
66,67,345600,1920
70,67,345600,1920
66,65,347520,960
70,65,347520,960
66,63,348480,960
70,63,348480,960
68,66,349440,960
71,66,349440,960
70,66,350400,960
73,66,350400,960
71,66,351360,1920
75,66,351360,1920
70,66,353280,1920
73,66,353280,1920
71,65,355200,960
75,65,355200,960
73,66,356160,960
76,66,356160,960
75,67,357120,960
78,67,357120,960
75,64,358080,960
78,64,358080,960
73,67,359040,960
76,67,359040,960
75,68,360000,960
78,68,360000,960
76,71,360960,1920
80,71,360960,1920
73,75,362880,960
81,75,362880,960
76,67,363840,960
80,67,363840,960
75,64,364800,1920
78,64,364800,1920
71,64,366720,960
80,64,366720,960
78,60,367680,960
75,60,367680,960
68,57,368640,960
76,57,368640,960
71,54,369600,960
75,54,369600,960
70,57,370560,1920
73,57,370560,1920
68,54,372480,1920
71,54,372480,1920
63,48,374400,1920
70,48,374400,1920
63,39,376320,960
70,39,376320,960
63,35,377280,960
70,35,377280,960
53,85,378240,1920
63,85,378240,1920
52,84,380160,1920
63,84,380160,1920
53,85,382080,1920
63,85,382080,1920
52,84,384000,1920
63,84,384000,1920
68,84,385920,320
75,84,385920,320
77,84,385920,320
65,60,386240,320
68,50,386560,320
75,50,386560,320
77,50,386560,320
65,62,386880,320
68,48,387200,320
75,48,387200,320
77,48,387200,320
65,54,387520,320
68,77,387840,320
75,77,387840,320
71,77,387840,320
64,60,388160,320
68,48,388480,320
75,48,388480,320
71,48,388480,320
64,62,388800,320
68,45,389120,320
75,45,389120,320
71,45,389120,320
64,50,389440,320
68,79,389760,320
75,79,389760,320
77,79,389760,320
65,60,390080,320
68,48,390400,320
75,48,390400,320
77,48,390400,320
65,63,390720,320
68,47,391040,320
75,47,391040,320
77,47,391040,320
65,54,391360,320
68,77,391680,320
75,77,391680,320
71,77,391680,320
64,60,392000,320
68,47,392320,320
75,47,392320,320
71,47,392320,320
64,62,392640,320
68,45,392960,320
75,45,392960,320
71,45,392960,320
64,51,393280,320
101,77,393600,240
99,77,393600,240
89,59,393840,240
87,63,394080,240
89,63,394080,240
77,57,394320,240
89,64,394560,240
87,64,394560,240
89,54,394800,240
99,69,395040,240
101,69,395040,240
89,64,395280,240
95,77,395520,240
99,77,395520,240
88,57,395760,240
87,63,396000,240
83,63,396000,240
76,57,396240,240
83,65,396480,240
87,65,396480,240
88,59,396720,240
99,71,396960,240
95,71,396960,240
88,63,397200,240
101,80,397440,240
99,80,397440,240
89,59,397680,240
87,66,397920,240
89,66,397920,240
77,59,398160,240
89,65,398400,240
87,65,398400,240
89,57,398640,240
99,70,398880,240
101,70,398880,240
89,63,399120,240
95,81,399360,240
99,81,399360,240
88,60,399600,240
87,65,399840,240
83,65,399840,240
76,59,400080,240
83,65,400320,240
87,65,400320,240
88,59,400560,240
99,72,400800,240
95,72,400800,240
88,64,401040,240
92,83,401280,240
96,83,401280,240
99,83,401280,240
89,63,401520,240
80,60,401760,240
87,60,401760,240
84,60,401760,240
77,62,402000,240
80,57,402240,240
84,57,402240,240
87,57,402240,240
89,60,402480,240
92,67,402720,240
99,67,402720,240
96,67,402720,240
89,64,402960,240
91,84,403200,240
94,84,403200,240
98,84,403200,240
87,63,403440,240
79,54,403680,240
86,54,403680,240
82,54,403680,240
75,62,403920,240
79,56,404160,240
82,56,404160,240
86,56,404160,240
87,62,404400,240
91,71,404640,240
98,71,404640,240
94,71,404640,240
87,65,404880,240
87,81,405120,240
94,81,405120,240
92,81,405120,240
83,64,405360,240
75,68,405600,240
80,68,405600,240
82,68,405600,240
71,63,405840,240
75,68,406080,240
82,68,406080,240
80,68,406080,240
83,61,406320,240
87,73,406560,240
92,73,406560,240
94,73,406560,240
83,64,406800,240
86,84,407040,240
91,84,407040,240
82,65,407280,240
74,69,407520,240
79,69,407520,240
70,63,407760,240
74,72,408000,240
79,72,408000,240
82,65,408240,240
86,80,408480,240
91,80,408480,240
82,69,408720,240
79,85,408960,240
84,92,408960,240
75,66,409200,240
67,64,409440,240
72,71,409440,240
63,64,409680,240
77,73,409920,240
82,73,409920,240
74,66,410160,240
65,63,410400,240
70,71,410400,240
62,70,410640,240
79,84,410880,240
84,91,410880,240
75,66,411120,240
67,71,411360,240
72,71,411360,240
63,64,411600,240
89,84,411840,240
82,62,411840,240
86,62,411840,240
77,66,412080,240
86,63,412320,240
89,63,412320,240
94,87,412320,240
82,70,412560,240
91,96,412800,240
87,66,412800,240
84,66,412800,240
82,66,413040,240
72,61,413280,240
75,63,413280,240
79,71,413280,240
70,64,413520,240
89,82,413760,240
82,59,413760,240
86,59,413760,240
77,66,414000,240
86,64,414240,240
89,64,414240,240
94,88,414240,240
82,70,414480,240
91,95,414720,240
87,45,414720,240
86,45,414720,240
84,66,414960,240
74,61,415200,240
75,61,415200,240
79,71,415200,240
72,64,415440,240
87,92,415680,240
84,44,415680,240
82,44,415680,240
79,62,415920,240
70,56,416160,240
72,56,416160,240
75,67,416160,240
67,64,416400,240
89,90,416640,240
87,65,416640,240
84,65,416640,240
80,66,416880,240
72,61,417120,240
75,61,417120,240
77,71,417120,240
68,64,417360,240
84,90,417600,240
80,64,417600,240
77,64,417600,240
75,66,417840,240
65,61,418080,240
68,61,418080,240
72,71,418080,240
63,64,418320,240
70,87,418560,240
68,49,418560,240
65,49,418560,240
62,66,418800,240
68,45,419040,240
70,45,419040,240
74,79,419040,240
65,64,419280,240
77,86,419520,240
74,48,419520,240
70,48,419520,240
68,66,419760,240
74,51,420000,240
77,51,420000,240
82,90,420000,240
70,72,420240,240
79,54,420480,240
84,95,420480,240
75,66,420720,240
67,62,420960,240
72,71,420960,240
63,64,421200,240
89,82,421440,240
82,46,421440,240
86,46,421440,240
77,66,421680,240
86,50,421920,240
89,50,421920,240
94,88,421920,240
82,70,422160,240
91,97,422400,240
87,54,422400,240
84,54,422400,240
82,66,422640,240
72,60,422880,240
75,64,422880,240
79,71,422880,240
70,64,423120,240
89,82,423360,240
82,46,423360,240
86,46,423360,240
77,66,423600,240
86,50,423840,240
89,50,423840,240
94,88,423840,240
82,70,424080,240
68,60,424320,240
72,83,424320,240
67,60,424320,240
65,65,424560,240
70,57,424800,240
74,57,424800,240
75,81,424800,240
67,64,425040,240
77,83,425280,240
75,60,425280,240
72,60,425280,240
68,66,425520,240
74,63,425760,240
77,63,425760,240
80,87,425760,240
72,71,426000,240
75,81,426240,240
79,88,426240,240
74,64,426240,240
71,66,426480,240
75,60,426720,240
79,60,426720,240
80,83,426720,240
72,64,426960,240
84,87,427200,240
80,63,427200,240
79,63,427200,240
77,66,427440,240
84,63,427680,240
86,63,427680,240
89,87,427680,240
80,72,427920,240
92,90,428160,240
87,59,428160,240
80,35,428400,240
94,66,428400,240
87,57,428640,240
92,89,428640,240
80,35,428880,240
94,66,428880,240
92,90,429120,240
87,59,429120,240
80,35,429360,240
94,66,429360,240
87,56,429600,240
92,87,429600,240
80,35,429840,240
94,66,429840,240
92,92,430080,240
87,60,430080,240
80,37,430320,240
94,70,430320,240
87,60,430560,240
92,91,430560,240
80,36,430800,240
94,69,430800,240
92,95,431040,240
87,63,431040,240
80,37,431280,240
94,70,431280,240
87,59,431520,240
92,90,431520,240
80,36,431760,240
94,69,431760,240
89,96,432000,240
87,64,432000,240
80,37,432240,240
94,72,432240,240
87,63,432480,240
89,95,432480,240
80,37,432720,240
94,71,432720,240
89,99,432960,240
87,65,432960,240
80,37,433200,240
94,72,433200,240
87,84,433440,240
89,94,433440,240
80,37,433680,240
94,71,433680,240
89,100,433920,240
87,66,433920,240
80,40,434160,240
94,75,434160,240
87,66,434400,240
89,99,434400,240
80,39,434640,240
94,73,434640,240
89,103,434880,240
87,67,434880,240
80,40,435120,240
94,75,435120,240
87,65,435360,240
89,97,435360,240
80,39,435600,240
94,73,435600,240
104,85,435840,120
103,80,435960,120
101,85,436080,120
99,78,436200,120
98,83,436320,120
96,77,436440,120
94,83,436560,120
92,76,436680,120
91,82,436800,120
89,79,436920,120
87,81,437040,120
86,76,437160,120
84,81,437280,120
82,76,437400,120
80,80,437520,120
79,75,437640,120
77,79,437760,120
75,73,437880,120
74,79,438000,120
72,75,438120,120
70,79,438240,120
68,73,438360,120
67,79,438480,120
65,72,438600,120
63,79,438720,120
62,73,438840,120
60,78,438960,120
58,73,439080,120
56,77,439200,120
55,72,439320,120
53,79,439440,120
51,73,439560,120
50,78,439680,120
48,73,439800,120
46,79,439920,120
44,75,440040,120
43,80,440160,120
41,76,440280,120
39,82,440400,120
38,76,440520,120
36,83,440640,120
34,78,440760,120
32,85,440880,120
31,78,441000,120
29,86,441120,120
27,81,441240,120
26,87,441360,120
24,83,441480,360
87,102,442080,317
82,100,442080,317
79,85,442080,317
75,85,442080,317
63,79,442400,317
58,66,442400,317
87,89,442720,317
82,89,442720,317
79,73,442720,317
75,73,442720,317
63,71,443040,317
58,59,443040,317
87,90,443360,317
82,90,443360,317
79,73,443360,317
75,73,443360,317
63,70,443680,317
58,57,443680,317
89,98,444000,317
86,98,444000,317
82,84,444000,317
77,84,444000,317
65,72,444320,317
62,62,444320,317
89,89,444640,317
86,89,444640,317
82,72,444640,317
77,72,444640,317
65,71,444960,317
62,59,444960,317
89,88,445280,317
86,88,445280,317
82,72,445280,317
77,72,445280,317
65,70,445600,317
62,58,445600,317
91,99,445920,317
87,99,445920,317
82,84,445920,317
79,84,445920,317
67,68,446240,317
75,80,446240,317
70,80,446240,317
91,92,446560,317
87,92,446560,317
82,77,446560,317
79,77,446560,317
87,91,446880,317
84,91,446880,317
79,76,446880,317
75,76,446880,317
72,80,447200,317
67,68,447200,317
63,68,447200,317
87,87,447520,317
84,72,447520,317
91,87,447520,317
79,72,447520,317
89,87,447840,317
86,87,447840,317
82,72,447840,317
77,72,447840,317
58,79,448160,314
62,79,448160,314
65,81,448480,314
62,81,448480,314
65,83,448800,314
70,83,448800,314
74,87,449120,314
70,87,449120,314
74,90,449440,314
77,90,449440,314
67,80,449760,475
75,95,449760,475
79,95,449760,475
70,75,450240,475
75,90,450240,475
82,90,450240,475
65,73,450720,475
70,89,450720,475
77,89,450720,475
63,72,451200,475
70,85,451200,475
75,85,451200,475
74,87,451680,317
70,87,451680,317
62,72,451680,317
58,79,452000,317
62,79,452000,317
65,81,452320,314
62,81,452320,314
65,83,452640,314
70,83,452640,314
74,87,452960,314
70,87,452960,314
74,90,453280,314
77,90,453280,314
67,80,453600,475
75,95,453600,475
79,95,453600,475
70,75,454080,475
75,90,454080,475
82,90,454080,475
65,73,454560,475
70,89,454560,475
77,89,454560,475
63,61,455040,475
70,85,455040,475
75,85,455040,475
74,87,455520,317
70,87,455520,317
62,72,455520,317
58,79,455840,314
62,79,455840,314
67,81,456160,314
62,81,456160,314
68,83,456480,314
65,70,456480,314
70,83,456480,314
68,83,456800,314
74,87,456800,314
70,87,456800,314
70,83,457120,314
74,90,457120,314
77,90,457120,314
87,91,457440,317
80,91,457440,317
75,76,457440,317
63,72,457760,317
56,72,457760,317
51,62,457760,317
87,86,458080,317
80,86,458080,317
75,72,458080,317
86,91,458400,475
80,91,458400,475
74,76,458400,475
70,72,458880,475
75,86,458880,475
82,86,458880,475
84,90,459360,317
75,90,459360,317
72,75,459360,317
63,72,459680,317
56,72,459680,317
51,62,459680,317
84,86,460000,317
75,86,460000,317
72,72,460000,317
80,90,460320,475
75,90,460320,475
68,75,460320,475
72,69,460800,475
75,82,460800,475
84,82,460800,475
70,75,461280,475
75,90,461280,475
82,90,461280,475
58,64,461760,475
63,76,461760,475
70,76,461760,475
68,73,462240,475
70,88,462240,475
80,88,462240,475
67,70,462720,475
70,70,462720,475
79,83,462720,475
65,47,463200,317
72,47,463200,317
75,53,463200,317
77,53,463200,317
65,44,463520,317
72,44,463520,317
75,49,463520,317
77,49,463520,317
65,44,463840,317
72,44,463840,317
75,49,463840,317
77,49,463840,317
65,43,464160,317
72,43,464160,317
75,48,464160,317
77,48,464160,317
65,43,464480,317
72,43,464480,317
75,48,464480,317
77,48,464480,317
65,43,464800,317
72,43,464800,317
75,48,464800,317
77,48,464800,317
67,53,465120,317
70,53,465120,317
74,53,465120,317
79,60,465120,317
67,48,465440,317
70,48,465440,317
74,48,465440,317
79,54,465440,317
67,49,465760,317
70,49,465760,317
74,49,465760,317
79,54,465760,317
67,49,466080,317
70,49,466080,317
75,54,466080,317
79,54,466080,317
67,49,466400,317
70,49,466400,317
75,55,466400,317
79,55,466400,317
67,49,466720,317
70,49,466720,317
75,55,466720,317
79,55,466720,317
82,61,467040,317
70,55,467040,317
73,55,467040,317
79,61,467040,317
82,56,467360,317
70,51,467360,317
73,51,467360,317
79,56,467360,317
82,57,467680,317
70,51,467680,317
73,51,467680,317
79,57,467680,317
68,56,468000,317
71,56,468000,317
75,56,468000,317
80,63,468000,317
68,52,468320,317
71,52,468320,317
75,52,468320,317
80,58,468320,317
68,52,468640,317
71,52,468640,317
75,52,468640,317
80,59,468640,317
68,58,468960,317
75,58,468960,317
80,67,468960,317
68,58,469280,317
75,58,469280,317
80,67,469280,317
68,59,469600,317
75,59,469600,317
80,67,469600,317
68,58,469920,317
74,58,469920,317
80,63,469920,317
68,58,470240,317
74,58,470240,317
80,64,470240,317
68,59,470560,317
74,59,470560,317
80,64,470560,317
68,64,470880,317
73,64,470880,317
80,64,470880,317
68,64,471200,317
73,64,471200,317
80,64,471200,317
68,61,471520,317
73,61,471520,317
80,61,471520,317
67,69,471840,317
73,69,471840,317
79,69,471840,317
67,65,472160,317
73,65,472160,317
79,65,472160,317
67,64,472480,317
73,64,472480,317
79,64,472480,317
66,68,472800,317
73,68,472800,317
78,76,472800,317
66,61,473120,317
73,61,473120,317
78,68,473120,317
66,62,473440,317
73,62,473440,317
78,69,473440,317
65,70,473760,317
72,80,473760,317
77,80,473760,317
65,65,474080,317
72,73,474080,317
77,73,474080,317
65,66,474400,317
75,74,474400,317
77,74,474400,317
89,83,474720,317
87,83,474720,317
82,73,474720,317
77,73,474720,317
77,72,475040,317
75,72,475040,317
70,65,475040,317
65,65,475040,317
89,77,475360,317
87,77,475360,317
82,69,475360,317
77,69,475360,317
65,65,475680,317
68,65,475680,317
75,72,475680,317
77,72,475680,317
77,69,476000,317
80,69,476000,317
87,77,476000,317
89,77,476000,317
65,65,476320,317
68,65,476320,317
75,72,476320,317
77,72,476320,317
89,83,476640,317
87,83,476640,317
82,73,476640,317
77,73,476640,317
77,72,476960,317
75,72,476960,317
70,65,476960,317
65,65,476960,317
89,77,477280,317
87,77,477280,317
82,69,477280,317
77,69,477280,317
65,65,477600,317
71,65,477600,317
75,72,477600,317
77,72,477600,317
77,69,477920,317
83,69,477920,317
87,77,477920,317
89,77,477920,317
65,65,478240,317
71,65,478240,317
75,72,478240,317
77,72,478240,317
89,83,478560,317
87,83,478560,317
82,73,478560,317
77,73,478560,317
77,72,478880,317
75,72,478880,317
70,65,478880,317
65,65,478880,317
89,77,479200,317
87,77,479200,317
82,69,479200,317
77,69,479200,317
65,67,479520,317
69,67,479520,317
75,73,479520,317
77,73,479520,317
77,72,479840,317
81,72,479840,317
87,82,479840,317
89,82,479840,317
65,69,480160,317
69,69,480160,317
75,76,480160,317
77,76,480160,317
89,90,480480,317
87,90,480480,317
82,80,480480,317
77,80,480480,317
77,80,480800,317
75,80,480800,317
70,70,480800,317
65,70,480800,317
89,86,481120,317
87,86,481120,317
82,77,481120,317
77,77,481120,317
65,72,481440,317
72,72,481440,317
75,82,481440,317
77,82,481440,317
77,80,481760,317
84,80,481760,317
87,89,481760,317
89,89,481760,317
65,75,482080,317
72,75,482080,317
75,84,482080,317
77,84,482080,317
91,106,482400,640
87,106,482400,640
79,95,482400,640
79,97,483040,640
75,97,483040,640
67,87,483040,640
55,80,483680,640
63,90,483680,640
67,90,483680,640
59,81,484320,480
63,81,484320,480
66,88,484320,480
71,88,484320,480
61,75,484800,480
66,75,484800,480
70,85,484800,480
73,85,484800,480
91,106,485280,640
87,106,485280,640
79,95,485280,640
79,97,485920,640
75,97,485920,640
67,87,485920,640
55,80,486560,640
63,90,486560,640
67,90,486560,640
60,81,487200,480
63,81,487200,480
67,88,487200,480
72,88,487200,480
62,75,487680,480
65,75,487680,480
70,85,487680,480
74,85,487680,480
51,105,488160,1800
63,83,488280,1680
67,83,488280,1680
70,99,488280,1680
75,99,488280,1680
51,95,489960,1920
65,77,490080,1800
70,77,490080,1800
74,92,490080,1800
77,92,490080,1800
51,95,491880,2040
67,83,492000,1920
70,83,492000,1920
75,99,492000,1920
79,99,492000,1920
63,79,493920,960
67,79,493920,960
72,94,493920,960
75,94,493920,960
72,72,494880,960
75,86,494880,960
67,72,494880,960
79,86,494880,960
65,73,495840,1920
70,73,495840,1920
74,89,495840,1920
77,89,495840,1920
58,81,497760,1800
70,95,497760,1800
63,99,499560,120
60,99,499560,120
68,81,499680,1800
72,81,499680,1800
75,97,499680,1800
80,97,499680,1800
67,92,501480,120
62,92,501480,120
70,81,501600,1800
74,81,501600,1800
79,97,501600,1800
82,97,501600,1800
63,92,503400,120
67,92,503400,120
79,89,503520,960
82,89,503520,960
87,108,503520,960
91,108,503520,960
63,84,504480,960
67,84,504480,960
70,99,504480,960
79,89,505440,960
82,89,505440,960
87,108,505440,960
91,108,505440,960
63,84,506400,960
67,85,506400,960
70,99,506400,960
51,95,507360,3840
63,108,507360,3840
51,110,511200,1440
42,74,1,239
43,77,480,480
31,65,480,480
42,69,1920,120
42,66,2160,120
31,63,2400,480
43,74,2400,480
41,72,3840,240
32,63,4320,240
44,75,4320,240
43,70,4560,240
31,59,4560,240
41,68,5760,120
41,65,6000,120
32,60,6240,240
44,71,6240,240
43,68,6480,180
31,57,6480,180
44,72,6720,240
32,61,6720,240
31,56,6960,180
43,67,6960,180
31,68,7680,480
43,68,7680,480
43,65,8160,480
31,65,8160,480
31,75,8640,120
43,75,8640,120
44,68,8880,120
43,66,9120,480
53,61,9360,120
43,68,9600,480
31,57,9600,480
43,66,10080,480
31,55,10080,480
31,63,10560,240
43,75,10560,240
44,66,10800,240
43,66,11040,480
49,61,11280,120
43,71,11520,240
31,60,11520,240
44,64,11760,240
43,67,12000,480
53,60,12240,120
31,55,12480,240
43,66,12480,240
44,61,12720,240
43,66,12960,480
49,61,13200,240
31,56,13440,480
43,67,13440,480
43,65,13920,480
31,55,13920,480
31,56,14400,480
43,67,14400,480
43,63,14880,480
31,54,14880,480
31,47,15360,120
43,56,15360,120
36,44,15600,120
48,52,15600,120
44,67,15840,120
32,56,15840,120
49,58,16080,120
37,49,16080,120
33,48,16320,120
45,57,16320,120
50,56,16560,120
38,47,16560,120
34,53,16800,120
46,63,16800,120
51,55,17040,120
39,46,17040,120
31,50,17280,120
43,59,17280,120
36,45,17520,120
48,54,17520,120
44,70,17760,120
32,59,17760,120
49,61,18000,120
37,51,18000,120
33,50,18240,120
45,60,18240,120
38,50,18480,120
50,59,18480,120
46,68,18720,120
34,58,18720,120
39,59,18960,120
51,59,18960,120
43,61,19200,120
31,51,19200,120
36,46,19440,120
48,55,19440,120
44,72,19680,120
32,61,19680,120
49,63,19920,120
37,53,19920,120
33,52,20160,120
45,62,20160,120
38,52,20400,120
50,62,20400,120
46,70,20640,120
34,59,20640,120
39,61,20880,120
51,61,20880,120
43,65,21120,120
31,55,21120,120
36,50,21360,120
48,59,21360,120
44,79,21600,120
32,66,21600,120
37,57,21840,120
49,68,21840,120
45,70,22080,120
33,59,22080,120
38,55,22320,120
50,66,22320,120
46,77,22560,120
34,64,22560,120
39,56,22800,120
51,67,22800,120
31,61,23040,120
43,72,23040,120
48,66,23280,120
36,55,23280,120
44,69,23520,120
32,58,23520,120
49,63,23760,120
37,54,23760,120
33,61,24000,120
45,72,24000,120
38,55,24240,120
50,65,24240,120
46,70,24480,120
34,59,24480,120
39,54,24720,120
51,63,24720,120
43,61,24960,120
31,61,24960,120
36,55,25200,120
48,66,25200,120
44,69,25440,120
32,58,25440,120
37,54,25680,120
49,63,25680,120
45,72,25920,120
33,61,25920,120
38,55,26160,120
50,65,26160,120
46,70,26400,120
34,59,26400,120
39,54,26640,120
51,63,26640,120
31,61,26880,120
43,72,26880,120
48,66,27120,120
36,55,27120,120
44,69,27360,120
32,58,27360,120
37,54,27600,120
49,63,27600,120
45,72,27840,120
33,61,27840,120
38,55,28080,120
50,65,28080,120
46,70,28320,120
34,59,28320,120
39,54,28560,120
51,63,28560,120
31,63,28800,120
43,76,28800,120
48,66,29040,120
36,55,29040,120
44,72,29280,120
32,61,29280,120
37,54,29520,120
49,63,29520,120
33,63,29760,120
45,75,29760,120
50,65,30000,120
38,55,30000,120
34,62,30240,120
46,72,30240,120
51,63,30480,120
39,54,30480,120
31,59,30720,240
43,70,30720,240
42,65,30960,240
31,59,31200,240
43,70,31200,240
42,65,31440,240
43,70,31680,240
31,59,31680,240
42,65,31920,240
31,59,32160,240
43,70,32160,240
42,65,32400,240
31,59,32640,240
43,70,32640,240
42,67,32880,240
43,70,33120,240
31,59,33120,240
42,67,33360,240
36,61,33600,240
48,72,33600,240
46,71,33840,240
34,60,33840,240
33,59,34080,240
45,70,34080,240
32,58,34320,240
44,69,34320,240
43,70,34560,240
31,59,34560,240
42,65,34800,240
31,59,35040,240
43,70,35040,240
42,65,35280,240
31,59,35520,240
43,70,35520,240
42,65,35760,240
43,70,36000,240
31,59,36000,240
42,65,36240,240
43,70,36480,240
31,59,36480,240
42,67,36720,240
43,70,36960,240
31,59,36960,240
42,67,37200,240
36,61,37440,240
48,72,37440,240
47,71,37680,240
35,60,37680,240
46,70,37920,240
34,59,37920,240
45,69,38160,240
33,58,38160,240
66,70,38400,1920
48,50,38880,480
60,59,38880,480
48,63,39360,480
36,54,39360,480
60,60,39840,480
48,50,39840,480
70,70,40320,1920
55,59,40800,480
43,50,40800,480
43,54,41280,480
31,54,41280,480
55,60,41760,480
43,50,41760,480
66,70,42240,1920
60,59,42720,480
48,50,42720,480
36,54,43200,480
48,63,43200,480
60,60,43680,480
48,50,43680,480
70,70,44160,1920
55,59,44640,480
43,50,44640,480
43,63,45120,480
31,54,45120,480
43,50,45600,480
55,60,45600,480
66,70,46080,1920
45,50,46560,480
57,59,46560,480
33,54,47040,480
45,63,47040,480
45,50,47520,480
57,60,47520,480
70,70,48000,1920
40,50,48480,480
52,59,48480,480
28,54,48960,480
40,63,48960,480
52,60,49440,480
40,50,49440,480
66,70,49920,1920
45,50,50400,480
57,59,50400,480
45,63,50880,480
33,54,50880,480
57,60,51360,480
45,50,51360,480
72,70,51840,1920
52,59,52320,480
40,50,52320,480
28,54,52800,480
40,63,52800,480
40,50,53280,480
52,60,53280,480
31,57,53760,240
43,68,53760,240
79,66,54240,240
74,60,54480,240
75,65,54720,240
74,60,54960,240
70,65,55200,240
67,60,55440,240
68,64,55680,240
75,58,55920,240
71,62,56160,240
75,58,56400,240
74,63,56640,240
67,61,57120,240
67,68,57600,480
55,57,57600,480
55,55,58080,240
67,66,58080,240
50,50,58320,240
62,60,58320,240
63,65,58560,240
51,55,58560,240
50,50,58800,240
62,60,58800,240
46,55,59040,240
58,65,59040,240
55,60,59280,240
43,50,59280,240
56,64,59520,240
44,54,59520,240
63,58,59760,240
51,49,59760,240
47,52,60000,240
59,62,60000,240
51,49,60240,240
63,58,60240,240
62,63,60480,240
50,54,60480,240
43,51,60960,240
55,61,60960,240
55,68,61440,480
43,57,61440,480
55,66,61920,240
43,55,61920,240
38,50,62160,240
50,60,62160,240
39,55,62400,240
51,65,62400,240
38,50,62640,240
50,60,62640,240
34,55,62880,240
46,65,62880,240
43,60,63120,240
31,50,63120,240
30,59,63360,720
42,70,63360,720
55,66,63840,240
43,55,63840,240
38,50,64080,240
50,60,64080,240
39,55,64320,240
51,65,64320,240
50,60,64560,240
38,50,64560,240
34,55,64800,240
46,65,64800,240
31,50,65040,240
43,60,65040,240
29,59,65280,720
41,70,65280,720
43,55,65760,240
55,66,65760,240
50,60,66000,240
38,50,66000,240
51,65,66240,240
39,55,66240,240
50,60,66480,240
38,50,66480,240
34,55,66720,240
46,65,66720,240
31,50,66960,240
43,60,66960,240
40,70,67200,720
28,59,67200,720
43,55,67680,240
55,66,67680,240
38,50,67920,240
50,60,67920,240
51,65,68160,240
39,55,68160,240
50,60,68400,240
38,50,68400,240
46,65,68640,240
34,55,68640,240
31,50,68880,240
43,60,68880,240
27,59,69120,480
39,70,69120,480
26,59,69600,480
38,70,69600,480
47,70,70080,720
35,59,70080,720
68,72,70560,240
56,72,70560,240
91,76,71040,120
86,69,71280,120
87,73,71520,120
83,70,71760,120
84,73,72000,120
79,69,72240,120
80,72,72480,120
74,70,72720,120
75,76,72960,120
71,66,73200,120
72,72,73440,120
67,66,73680,120
68,72,73920,120
62,67,74160,120
63,72,74400,120
59,67,74640,120
60,76,74880,120
55,67,75120,120
56,73,75360,120
50,67,75600,120
51,73,75840,120
47,70,76080,120
48,74,76320,120
43,72,76560,120
44,76,76800,120
38,71,77040,120
39,76,77280,120
35,72,77520,120
36,76,77760,120
31,71,78000,120
32,77,78240,120
31,72,78480,120
32,76,78720,120
31,71,78960,120
35,76,79200,120
31,69,79440,120
44,74,79680,120
32,63,79680,120
31,60,79920,120
43,71,79920,120
47,73,80160,120
35,62,80160,120
31,60,80400,120
43,71,80400,120
44,76,80640,240
32,64,80640,240
32,61,81120,240
44,72,81120,240
55,76,81600,240
43,64,81600,240
43,61,82080,240
55,72,82080,240
44,76,82560,240
32,64,82560,240
32,61,83040,240
44,72,83040,240
43,64,83520,240
55,76,83520,240
55,72,84000,240
43,61,84000,240
44,76,84480,960
55,70,85440,960
44,76,86400,960
55,71,87360,960
58,48,92160,240
46,40,92160,240
40,35,92640,960
52,42,92640,960
58,47,94080,120
46,40,94080,120
46,38,94320,120
58,45,94320,120
52,40,94560,960
40,34,94560,960
46,41,96000,120
58,49,96000,120
50,45,96240,120
62,45,96240,120
60,45,96480,120
48,38,96480,120
62,45,96720,120
50,45,96720,120
46,39,96960,480
58,46,96960,480
48,39,97440,120
60,46,97440,120
58,44,97680,120
46,36,97680,120
50,41,97920,480
62,49,97920,480
60,45,98400,120
48,37,98400,120
58,43,98640,120
46,36,98640,120
47,37,98880,240
59,45,98880,240
40,35,99360,960
52,42,99360,960
59,45,100800,120
47,37,100800,120
47,36,101040,120
59,43,101040,120
52,40,101280,960
40,34,101280,960
44,37,102720,120
56,45,102720,120
48,35,102960,120
60,42,102960,120
59,45,103200,120
47,38,103200,120
48,37,103440,120
60,45,103440,120
56,46,103680,480
44,39,103680,480
57,46,104160,120
45,39,104160,120
44,36,104400,120
56,43,104400,120
60,47,104640,480
48,40,104640,480
47,37,105120,120
59,45,105120,120
56,43,105360,120
44,36,105360,120
45,37,105600,240
57,45,105600,240
52,42,106080,240
40,35,106080,240
62,40,106560,90
58,32,106640,90
62,38,106720,90
58,31,106800,90
62,37,106880,90
58,32,106960,80
60,36,107040,90
57,30,107120,90
60,36,107200,90
57,31,107280,90
60,36,107360,90
57,31,107440,90
45,49,107520,240
40,45,108000,240
57,40,108480,90
53,32,108560,90
57,38,108640,90
53,31,108720,90
57,37,108800,90
53,32,108880,80
56,36,108960,90
52,30,109040,90
56,36,109120,90
52,31,109200,90
56,36,109280,90
52,31,109360,90
45,49,109440,240
40,42,109920,240
53,33,110400,90
49,26,110480,90
53,32,110560,90
49,27,110640,90
53,32,110720,90
49,26,110800,80
52,32,110880,90
48,27,110960,90
52,32,111040,90
48,27,111120,90
52,33,111200,90
48,27,111280,80
51,32,111360,90
47,26,111440,90
51,31,111520,90
47,27,111600,90
51,30,111680,90
47,26,111760,80
46,40,112320,240
58,47,112320,240
52,42,112800,960
40,35,112800,960
46,40,114240,120
58,48,114240,120
58,45,114480,120
46,38,114480,120
52,40,114720,960
40,34,114720,960
46,40,116160,120
58,48,116160,120
50,36,116400,120
62,44,116400,120
48,38,116640,120
60,45,116640,120
50,37,116880,120
62,45,116880,120
46,39,117120,480
58,46,117120,480
60,46,117600,120
48,39,117600,120
58,43,117840,120
46,36,117840,120
50,40,118080,480
62,47,118080,480
48,37,118560,120
60,45,118560,120
46,36,118800,120
58,43,118800,120
59,45,119040,240
47,37,119040,240
40,35,119520,960
52,42,119520,960
47,37,120960,120
59,45,120960,120
47,36,121200,120
59,43,121200,120
52,40,121440,960
40,34,121440,960
56,45,122880,120
44,37,122880,120
60,42,123120,120
48,35,123120,120
47,38,123360,120
59,45,123360,120
48,37,123600,120
60,45,123600,120
44,39,123840,480
56,46,123840,480
45,39,124320,120
57,46,124320,120
44,36,124560,120
56,43,124560,120
48,40,124800,480
60,47,124800,480
59,45,125280,120
47,37,125280,120
44,36,125520,120
56,43,125520,120
45,52,125760,960
40,61,126720,960
33,69,127680,1920
31,71,129600,1920
56,32,131520,80
52,27,131520,80
60,28,131580,80
52,27,131640,80
56,32,131640,80
60,28,131700,80
56,33,131760,80
52,27,131760,80
60,28,131820,80
56,34,131880,80
52,28,131880,80
60,29,131940,60
55,36,132000,80
51,30,132000,80
59,32,132060,80
51,30,132120,80
55,36,132120,80
59,32,132180,80
51,33,132240,80
55,39,132240,80
59,34,132300,80
55,40,132360,80
51,34,132360,80
59,34,132420,60
50,34,132480,80
53,40,132480,80
58,36,132540,80
53,39,132600,80
50,33,132600,80
58,34,132660,80
50,33,132720,80
53,39,132720,80
58,33,132780,80
50,30,132840,80
53,36,132840,80
58,32,132900,60
52,36,132960,80
48,30,132960,80
57,31,133020,80
52,36,133080,80
48,30,133080,80
57,31,133140,80
48,28,133200,80
52,34,133200,80
57,30,133260,80
48,27,133320,80
52,33,133320,80
57,28,133380,60
52,27,133440,80
56,32,133440,80
60,28,133500,80
52,27,133560,80
56,32,133560,80
60,28,133620,80
56,33,133680,80
52,27,133680,80
60,28,133740,80
52,28,133800,80
56,34,133800,80
60,29,133860,60
51,30,133920,80
55,36,133920,80
59,32,133980,80
51,30,134040,80
55,36,134040,80
59,32,134100,80
55,39,134160,80
51,33,134160,80
59,34,134220,80
51,34,134280,80
55,40,134280,80
59,34,134340,60
50,34,134400,80
53,40,134400,80
58,36,134460,80
53,39,134520,80
50,33,134520,80
58,34,134580,80
50,33,134640,80
53,39,134640,80
58,33,134700,80
53,36,134760,80
50,30,134760,80
58,32,134820,60
48,30,134880,80
52,36,134880,80
57,31,134940,80
48,30,135000,80
52,36,135000,80
57,31,135060,80
48,34,135120,80
52,34,135120,80
57,30,135180,80
52,33,135240,80
48,27,135240,80
57,28,135300,60
40,30,135360,80
44,36,135360,80
48,29,135420,80
40,30,135480,80
44,36,135480,80
48,30,135540,80
44,36,135600,80
40,30,135600,80
48,30,135660,80
40,30,135720,80
44,36,135720,80
48,30,135780,60
43,34,135840,80
39,28,135840,80
47,28,135900,80
39,28,135960,80
43,34,135960,80
47,28,136020,80
39,28,136080,80
43,34,136080,80
47,27,136140,80
39,28,136200,80
43,34,136200,80
47,27,136260,60
41,30,136320,80
38,25,136320,80
46,21,136380,80
41,30,136440,80
38,25,136440,80
46,19,136500,80
38,25,136560,80
41,29,136560,80
46,18,136620,80
41,29,136680,80
38,25,136680,80
46,17,136740,60
36,24,136800,80
40,28,136800,80
45,16,136860,80
40,27,136920,80
36,23,136920,80
45,16,136980,80
40,27,137040,80
36,23,137040,80
45,16,137100,80
36,22,137160,80
40,27,137160,80
45,16,137220,60
35,23,137280,80
39,27,137280,80
43,15,137340,80
35,22,137400,80
39,27,137400,80
43,15,137460,60
35,22,137520,80
39,27,137520,80
43,15,137580,80
39,27,137640,80
35,22,137640,80
43,14,137700,60
39,26,137760,80
35,21,137760,80
43,15,137820,80
35,21,137880,80
39,26,137880,80
43,15,137940,80
39,26,138000,80
35,21,138000,80
43,15,138060,80
39,26,138120,80
35,21,138120,80
43,14,138180,60
39,26,138240,80
35,21,138240,80
43,15,138300,80
35,20,138360,80
39,25,138360,80
43,15,138420,80
35,20,138480,80
39,25,138480,80
43,15,138540,80
35,19,138600,80
39,24,138600,80
43,14,138660,60
35,21,138720,480
39,26,138720,480
43,68,139200,480
31,57,139200,480
31,57,141120,480
43,68,141120,480
43,65,141600,480
31,55,141600,480
43,68,143040,480
31,57,143040,480
31,55,143520,480
43,65,143520,480
31,63,144000,480
43,75,144000,120
44,68,144240,120
43,66,144480,480
53,61,144720,120
31,57,144960,480
43,68,144960,480
31,55,145440,480
43,66,145440,480
31,63,145920,480
43,75,145920,240
44,66,146160,240
43,66,146400,480
49,61,146640,120
43,57,146880,480
31,48,146880,480
43,54,147360,480
31,45,147360,480
43,58,147840,480
31,49,147840,480
43,64,148320,480
31,54,148320,480
43,56,148800,120
31,47,148800,120
36,44,149040,120
48,52,149040,120
32,57,149280,120
44,67,149280,120
37,49,149520,120
49,58,149520,120
45,57,149760,120
33,48,149760,120
50,56,150000,120
38,47,150000,120
46,64,150240,120
34,54,150240,120
39,46,150480,120
51,55,150480,120
31,50,150720,120
43,59,150720,120
36,45,150960,120
48,54,150960,120
44,70,151200,120
32,59,151200,120
37,51,151440,120
49,61,151440,120
33,52,151680,120
45,63,151680,120
38,50,151920,120
50,59,151920,120
46,68,152160,120
34,58,152160,120
51,59,152400,120
39,50,152400,120
31,61,152640,120
43,72,152640,120
48,66,152880,120
36,55,152880,120
44,69,153120,120
32,58,153120,120
49,63,153360,120
37,54,153360,120
33,61,153600,120
45,72,153600,120
50,65,153840,120
38,55,153840,120
46,70,154080,120
34,59,154080,120
51,63,154320,120
39,54,154320,120
43,72,154560,120
31,61,154560,120
36,55,154800,120
48,66,154800,120
44,69,155040,120
32,58,155040,120
37,54,155280,120
49,63,155280,120
45,72,155520,120
33,61,155520,120
50,65,155760,120
38,55,155760,120
46,70,156000,120
34,59,156000,120
51,63,156240,120
39,54,156240,120
31,51,156480,120
43,61,156480,120
36,46,156720,120
48,55,156720,120
44,72,156960,120
32,61,156960,120
37,53,157200,120
49,63,157200,120
45,62,157440,120
33,52,157440,120
50,62,157680,120
38,52,157680,120
46,70,157920,120
34,59,157920,120
39,51,158160,120
51,61,158160,120
31,55,158400,120
43,65,158400,120
48,59,158640,120
36,50,158640,120
44,79,158880,120
32,66,158880,120
37,57,159120,120
49,68,159120,120
45,70,159360,120
33,59,159360,120
50,66,159600,120
38,55,159600,120
46,77,159840,120
34,64,159840,120
51,67,160080,120
39,56,160080,120
43,70,160320,240
31,59,160320,240
42,65,160560,240
31,59,160800,240
43,70,160800,240
42,65,161040,240
43,70,161280,240
31,59,161280,240
42,65,161520,240
31,59,161760,240
43,70,161760,240
42,65,162000,240
31,59,162240,240
43,70,162240,240
42,67,162480,240
43,70,162720,240
31,59,162720,240
42,67,162960,240
36,61,163200,240
48,72,163200,240
46,71,163440,240
34,60,163440,240
33,59,163680,240
45,70,163680,240
44,69,163920,240
32,58,163920,240
43,70,164160,240
31,59,164160,240
42,65,164400,240
31,59,164640,240
43,70,164640,240
42,65,164880,240
31,59,165120,240
43,70,165120,240
42,65,165360,240
43,70,165600,240
31,59,165600,240
42,65,165840,240
43,70,166080,240
31,59,166080,240
42,67,166320,240
43,70,166560,240
31,59,166560,240
42,67,166800,240
36,61,167040,240
48,72,167040,240
47,71,167280,240
35,60,167280,240
46,70,167520,240
34,59,167520,240
45,69,167760,240
33,58,167760,240
66,70,168000,1920
48,50,168480,480
60,59,168480,480
48,63,168960,480
36,54,168960,480
60,60,169440,480
48,50,169440,480
70,70,169920,1920
55,59,170400,480
43,50,170400,480
43,63,170880,480
31,54,170880,480
55,60,171360,480
43,50,171360,480
66,70,171840,1920
60,59,172320,480
48,50,172320,480
36,54,172800,480
48,63,172800,480
60,60,173280,480
48,50,173280,480
70,70,173760,1920
43,50,174240,480
55,59,174240,480
43,63,174720,480
31,54,174720,480
43,50,175200,480
55,60,175200,480
66,70,175680,1920
57,59,176160,480
45,50,176160,480
33,54,176640,480
45,63,176640,480
45,50,177120,480
57,60,177120,480
70,70,177600,1920
52,59,178080,480
40,50,178080,480
28,54,178560,480
40,63,178560,480
40,50,179040,480
52,60,179040,480
66,70,179520,1920
45,50,180000,480
57,59,180000,480
45,63,180480,480
33,54,180480,480
45,50,180960,480
57,60,180960,480
72,70,181440,1920
40,50,181920,480
52,59,181920,480
28,54,182400,480
40,63,182400,480
40,50,182880,480
52,60,182880,480
31,57,183360,240
43,68,183360,240
79,66,183840,240
74,60,184080,240
75,65,184320,240
74,60,184560,240
70,65,184800,240
67,60,185040,240
68,64,185280,240
75,58,185520,240
71,62,185760,240
75,58,186000,240
74,63,186240,240
67,61,186720,240
67,68,187200,480
55,57,187200,480
67,66,187680,240
55,55,187680,240
50,50,187920,240
62,60,187920,240
51,55,188160,240
63,65,188160,240
50,50,188400,240
62,60,188400,240
58,65,188640,240
46,55,188640,240
55,60,188880,240
43,50,188880,240
56,64,189120,240
44,54,189120,240
51,49,189360,240
63,58,189360,240
47,52,189600,240
59,62,189600,240
63,58,189840,240
51,58,189840,240
62,63,190080,240
50,54,190080,240
43,51,190560,240
55,61,190560,240
55,68,191040,480
43,57,191040,480
55,66,191520,240
43,55,191520,240
38,50,191760,240
50,60,191760,240
39,55,192000,240
51,65,192000,240
50,60,192240,240
38,50,192240,240
46,65,192480,240
34,55,192480,240
43,60,192720,240
31,50,192720,240
30,59,192960,720
42,70,192960,720
55,66,193440,240
43,55,193440,240
38,50,193680,240
50,60,193680,240
51,65,193920,240
39,55,193920,240
50,60,194160,240
38,50,194160,240
34,55,194400,240
46,65,194400,240
31,50,194640,240
43,60,194640,240
41,70,194880,720
29,59,194880,720
55,66,195360,240
43,55,195360,240
50,60,195600,240
38,50,195600,240
39,55,195840,240
51,65,195840,240
50,60,196080,240
38,50,196080,240
34,55,196320,240
46,65,196320,240
31,50,196560,240
43,60,196560,240
28,59,196800,720
40,70,196800,720
55,66,197280,240
43,55,197280,240
38,50,197520,240
50,60,197520,240
39,55,197760,240
51,65,197760,240
38,50,198000,240
50,60,198000,240
46,65,198240,240
34,55,198240,240
43,60,198480,240
31,50,198480,240
27,59,198720,480
39,70,198720,480
38,70,199200,240
26,59,199200,240
35,59,199680,720
47,70,199680,720
68,72,200160,240
56,61,200160,240
91,76,200640,120
86,69,200880,120
87,73,201120,120
83,70,201360,120
84,73,201600,120
79,69,201840,120
80,72,202080,120
74,70,202320,120
75,76,202560,120
71,66,202800,120
72,72,203040,120
67,66,203280,120
68,72,203520,120
62,67,203760,120
63,72,204000,120
59,67,204240,120
60,76,204480,120
55,67,204720,120
56,73,204960,120
50,67,205200,120
51,73,205440,120
47,70,205680,120
48,74,205920,120
43,68,206160,120
44,72,206400,120
38,66,206640,120
39,71,206880,120
35,64,207120,120
36,66,207360,120
31,60,207600,120
32,67,207840,120
31,61,208080,120
32,66,208320,120
31,63,208560,120
35,71,208800,120
31,60,209040,120
32,67,209280,120
31,61,209520,120
35,73,209760,120
31,63,210000,120
32,72,210240,120
31,67,210480,120
32,70,210720,120
34,66,210960,120
35,72,211200,120
38,66,211440,120
39,69,211680,120
41,73,211920,120
31,61,212160,120
43,72,212160,120
44,68,212400,120
32,57,212400,120
46,69,212640,120
34,58,212640,120
47,70,212880,120
35,59,212880,120
38,64,213120,120
50,76,213120,120
39,59,213360,120
51,70,213360,120
41,59,213600,120
53,70,213600,120
55,70,213840,120
43,59,213840,120
44,64,214080,120
56,76,214080,120
58,70,214320,120
46,59,214320,120
47,59,214560,120
59,70,214560,120
62,70,214800,120
50,59,214800,120
51,65,215040,120
63,78,215040,120
53,60,215280,120
65,71,215280,120
55,61,215520,120
67,72,215520,120
68,72,215760,120
56,61,215760,120
71,80,216000,120
59,67,216000,120
62,72,216240,120
63,72,216480,120
65,72,216720,120
67,81,216960,120
68,74,217200,120
70,74,217440,120
71,74,217680,120
74,81,217920,120
75,75,218160,120
77,76,218400,120
79,77,218640,120
75,85,218880,120
77,75,219120,120
71,81,219360,120
74,74,219600,120
75,83,219840,120
77,74,220080,120
71,79,220320,120
74,75,220560,120
63,74,220800,120
75,79,220800,120
77,73,221040,120
65,69,221040,120
65,67,221280,120
53,53,221280,120
54,52,221520,120
66,65,221520,120
55,54,221760,120
67,69,221760,120
56,63,222000,120
68,67,222000,120
57,64,222240,120
69,68,222240,120
70,69,222480,120
58,65,222480,120
59,65,222720,120
71,69,222720,120
60,66,222960,120
72,70,222960,120
73,71,223200,120
61,67,223200,120
74,71,223440,120
62,67,223440,120
63,68,223680,120
75,72,223680,120
77,72,223920,120
65,68,223920,120
66,69,224160,120
78,73,224160,120
67,69,224400,120
79,73,224400,120
43,96,224640,1800
46,62,224760,1680
51,62,224760,1680
55,72,224760,1680
41,87,226440,1920
46,57,226560,1800
50,57,226560,1800
53,68,226560,1800
39,87,228360,1080
43,62,228480,960
46,62,228480,960
51,72,228480,960
36,81,229320,960
39,57,229440,840
43,57,229440,840
48,68,229440,840
38,82,230280,1080
41,54,230400,960
46,54,230400,960
50,65,230400,960
46,66,231360,840
39,87,232200,1080
46,57,232320,960
51,68,232320,960
38,62,233280,480
50,72,233280,480
46,72,233280,960
36,62,233760,480
48,72,233760,480
34,54,234240,960
41,54,234240,960
46,65,234240,960
31,41,235200,840
39,48,235200,840
43,48,235200,840
39,87,236040,1080
46,57,236160,960
51,68,236160,960
38,62,237120,480
50,72,237120,480
46,72,237120,960
36,62,237600,480
48,72,237600,480
34,54,238080,960
41,54,238080,960
46,65,238080,960
31,42,239040,960
39,48,239040,960
43,48,239040,960
43,86,240000,1800
46,62,240120,1680
51,62,240120,1680
55,72,240120,1680
41,87,241800,1920
46,57,241920,1800
50,57,241920,1800
53,68,241920,1800
39,87,243720,1080
43,62,243840,960
46,62,243840,960
51,72,243840,960
36,81,244680,960
39,57,244800,840
43,57,244800,840
48,68,244800,840
38,82,245640,1080
41,54,245760,960
46,54,245760,960
50,54,245760,960
46,70,246720,960
56,63,247680,960
60,63,247680,480
48,51,247680,480
60,59,248160,480
48,49,248160,480
51,63,248640,960
58,54,248640,480
46,46,248640,480
55,51,249120,480
43,44,249120,480
51,51,249600,1920
44,52,249600,480
56,59,249600,480
56,51,250080,480
44,39,250080,480
53,53,250560,480
41,41,250560,480
44,39,251040,480
56,51,251040,480
51,56,251520,1440
43,54,251520,960
55,65,251520,960
41,50,252480,480
53,60,252480,480
39,51,252960,480
51,62,252960,480
53,51,253440,1920
56,51,253440,1920
60,62,253440,1920
50,53,255360,960
53,53,255360,960
62,64,255360,960
58,64,255360,960
63,59,256320,840
55,49,256320,840
48,49,256320,840
32,72,257160,120
60,67,257280,480
48,56,257280,480
60,63,257760,480
48,51,257760,480
51,45,258240,960
58,60,258240,480
46,50,258240,480
56,57,258720,480
44,48,258720,480
51,54,259200,1440
43,52,259200,960
55,63,259200,960
41,52,260160,480
53,63,260160,480
39,54,260640,480
51,65,260640,480
44,56,261120,1920
56,68,261120,1920
43,60,263040,1920
55,71,263040,1920
27,85,264960,1800
39,90,264960,1800
43,63,265080,1680
46,63,265080,1680
51,76,265080,1680
55,76,265080,1680
27,76,266760,1920
39,90,266760,1920
41,62,266880,1800
46,62,266880,1800
50,62,266880,1800
53,71,266880,1800
29,84,268680,1080
39,63,268800,960
43,63,268800,960
46,76,268800,960
51,76,268800,960
36,62,269760,960
39,62,269760,960
43,71,269760,960
48,71,269760,960
38,57,270720,960
41,57,270720,960
46,68,270720,960
50,68,270720,960
34,63,271680,840
46,72,271680,840
27,76,272520,3840
39,90,272520,3840
43,71,272640,960
55,71,272640,960
46,71,272640,960
38,63,273600,480
50,75,273600,480
46,75,273600,960
36,63,274080,480
48,75,274080,480
34,50,274560,960
43,62,274560,960
46,62,274560,960
38,45,275520,840
46,54,275520,840
50,54,275520,840
27,76,276360,3960
39,81,276360,3960
46,71,276480,960
51,71,276480,960
38,63,277440,480
50,75,277440,480
46,75,277440,960
36,63,277920,480
48,75,277920,480
34,56,278400,960
43,68,278400,960
46,68,278400,960
38,45,279360,960
46,52,279360,960
50,52,279360,960
51,50,280320,1920
44,50,280320,1920
44,42,282240,960
51,42,282240,960
47,41,283200,960
56,41,283200,960
49,43,284160,960
56,43,284160,960
47,43,285120,960
59,43,285120,960
52,45,286080,1920
59,45,286080,1920
59,43,288000,1920
59,43,289920,960
56,43,289920,960
61,44,290880,960
54,44,290880,960
52,46,291840,960
64,46,291840,960
52,43,292800,960
64,43,292800,960
57,45,293760,960
64,45,293760,960
52,46,294720,960
64,46,294720,960
64,47,295680,1920
57,47,295680,1920
62,52,297600,960
59,52,297600,960
64,49,298560,960
57,49,298560,960
52,47,299520,1920
64,47,299520,1920
57,48,301440,960
61,48,301440,960
52,47,302400,960
59,47,302400,960
57,45,303360,960
54,45,303360,960
49,41,304320,960
56,41,304320,960
51,47,305280,1920
54,47,305280,1920
52,43,307200,1920
56,43,307200,1920
51,39,309120,1920
44,39,309120,1920
44,36,311040,960
51,36,311040,960
44,34,312000,840
51,34,312000,840
39,81,312840,1920
43,72,312960,1800
46,72,312960,1800
51,88,312960,1800
41,75,314760,1920
46,70,314880,1800
50,70,314880,1800
53,86,314880,1800
43,80,316680,960
46,70,316800,840
51,70,316800,840
55,87,316800,840
39,66,317640,480
46,67,317760,360
51,82,317760,360
43,63,318120,480
46,64,318240,360
55,80,318240,360
41,63,318600,960
46,63,318720,840
53,79,318720,840
34,54,319560,1080
38,59,319680,960
46,71,319680,960
43,67,320640,480
46,67,320640,480
55,82,320640,480
51,63,321120,480
46,63,321120,480
58,76,321120,480
46,65,321600,840
41,65,321600,480
53,81,321600,480
39,63,322080,360
51,79,322080,360
38,63,322440,960
46,63,322560,840
50,79,322560,840
34,54,323400,1080
43,54,323520,960
46,68,323520,960
43,67,324480,480
55,82,324480,480
51,67,324480,960
46,63,324960,480
58,76,324960,480
46,65,325440,840
41,65,325440,480
53,81,325440,480
39,63,325920,360
51,79,325920,360
38,64,326280,960
46,63,326400,840
50,79,326400,840
34,54,327240,1080
43,54,327360,960
46,68,327360,960
63,72,328319,240
75,82,328320,240
62,68,328559,240
74,75,328560,240
72,82,328800,240
60,72,328803,240
58,67,329038,240
70,73,329040,240
56,72,329280,240
68,82,329280,240
55,67,329518,240
67,73,329520,240
65,82,329760,240
53,82,329762,240
51,66,329998,240
63,72,330000,240
50,72,330238,240
62,82,330240,240
60,72,330480,240
48,65,330483,240
46,72,330719,240
58,82,330720,240
44,68,330959,240
56,75,330960,240
55,82,331200,240
43,72,331201,240
53,73,331440,240
41,67,331442,240
51,82,331680,240
39,72,331683,240
50,72,331920,240
38,66,331922,240
36,82,332160,240
48,82,332160,240
34,65,332399,240
46,72,332400,240
44,76,332640,240
32,68,332642,240
31,60,332880,240
43,68,332880,240
29,67,333120,240
41,73,333120,240
39,65,333360,240
27,57,333363,240
38,72,333600,240
26,66,333602,240
24,56,333838,240
36,63,333840,240
38,66,334080,240
26,57,334081,240
27,51,334320,240
39,59,334320,240
41,67,334560,240
29,59,334562,240
43,62,334800,240
31,54,334801,240
45,68,335040,240
33,60,335041,240
34,56,335280,240
46,63,335280,240
36,62,335518,240
48,70,335520,240
38,57,335759,240
50,66,335760,240
39,62,336000,240
51,70,336000,240
53,67,336240,240
41,59,336242,240
55,72,336480,240
43,66,336481,240
56,67,336720,240
44,59,336723,240
58,76,336960,240
46,68,336962,240
48,70,337200,240
60,70,337200,240
50,72,337439,240
62,81,337440,240
58,76,337680,240
46,68,337681,240
44,71,337920,240
56,80,337920,240
43,68,338158,240
55,75,338160,240
53,75,338400,240
41,68,338402,240
51,72,338640,240
39,63,338641,240
38,67,338878,240
50,73,338880,240
48,68,339120,240
36,60,339123,240
34,66,339358,240
46,72,339360,240
44,59,339600,240
32,59,339603,240
43,72,339840,240
31,65,339842,240
29,57,340079,240
41,65,340080,240
27,65,340320,240
39,72,340320,240
26,57,340558,240
38,66,340560,240
39,72,340800,240
27,63,340803,240
40,66,341040,240
28,57,341042,240
29,62,341278,240
41,70,341280,240
43,65,341520,240
31,57,341523,240
44,67,341760,240
32,59,341762,240
46,63,342000,240
34,56,342001,240
36,70,342239,240
48,70,342240,240
38,65,342479,240
50,65,342480,240
51,72,342720,240
39,65,342722,240
41,57,342960,240
53,66,342960,240
43,68,343198,240
55,75,343200,240
56,68,343440,240
44,60,343441,240
58,79,343680,240
46,70,343682,240
48,63,343920,240
60,72,343920,240
50,72,344159,240
62,81,344160,240
63,72,344400,240
51,66,344401,240
65,84,344640,240
53,73,344642,240
67,75,344880,240
55,68,344882,240
68,88,345120,240
56,79,345122,240
58,72,345360,240
70,81,345360,240
58,59,345600,1920
51,59,345600,1920
51,54,347520,960
58,54,347520,960
54,52,348480,960
63,52,348480,960
56,54,349440,960
63,54,349440,960
54,54,350400,960
66,54,350400,960
59,54,351360,1920
66,54,351360,1920
66,54,353280,1920
66,52,355200,960
63,52,355200,960
68,54,356160,960
61,54,356160,960
59,57,357120,960
71,57,357120,960
59,52,358080,960
71,52,358080,960
64,54,359040,960
71,54,359040,960
59,57,360000,960
71,57,360000,960
71,59,360960,1920
64,59,360960,1920
69,63,362880,960
66,63,362880,960
71,59,363840,960
64,59,363840,960
59,56,364800,1920
71,56,364800,1920
64,54,366720,960
68,54,366720,960
59,53,367680,960
66,53,367680,960
64,50,368640,960
61,50,368640,960
56,45,369600,960
63,45,369600,960
58,51,370560,1920
61,51,370560,1920
59,45,372480,1920
63,45,372480,1920
58,41,374400,1920
51,41,374400,1920
51,37,376320,960
58,37,376320,960
51,34,377280,960
58,34,377280,960
59,71,378240,1920
44,79,379200,960
56,71,380160,1920
35,79,381120,960
59,71,382080,1920
44,77,383040,960
56,71,384000,1920
35,79,384960,960
63,71,385920,1920
59,71,385920,1920
53,71,385920,1920
44,80,386880,960
52,71,387840,1920
63,71,387840,1920
56,71,387840,1920
35,71,388800,960
53,71,389760,1920
59,71,389760,1920
63,71,389760,1920
44,84,390720,960
52,71,391680,1920
63,71,391680,1920
56,71,391680,1920
35,73,392640,960
53,71,393600,1920
59,71,393600,1920
63,71,393600,1920
44,82,394560,960
52,71,395520,1920
63,71,395520,1920
56,71,395520,1920
35,75,396480,960
53,72,397440,1920
59,72,397440,1920
63,72,397440,1920
44,82,398400,960
52,73,399360,1920
63,73,399360,1920
56,73,399360,1920
35,75,400320,960
63,80,401280,1920
34,77,402240,960
63,77,403200,1920
34,76,404160,960
63,79,405120,1920
34,77,406080,960
63,81,407040,1920
34,77,408000,960
63,82,408960,1920
34,80,409920,960
63,82,410880,1920
34,79,411840,960
63,82,412800,1920
34,80,413760,960
63,82,414720,1920
34,80,415680,960
63,82,416640,1920
34,85,418560,1920
63,89,420480,1920
34,83,421440,960
63,89,422400,1920
34,83,423360,960
63,87,424320,960
34,83,425280,960
63,90,426240,960
34,83,427200,960
58,59,428160,1680
65,59,428160,1680
63,59,428160,1680
70,82,428160,1680
27,65,429120,960
39,82,429120,960
58,60,430080,1680
63,60,430080,1680
65,60,430080,1680
70,84,430080,1680
27,68,431040,960
39,86,431040,960
58,62,432000,1680
63,62,432000,1680
65,62,432000,1680
70,87,432000,1680
27,70,432960,960
39,89,432960,960
58,64,433920,1680
63,64,433920,1680
65,64,433920,1680
70,90,433920,1680
27,72,434880,960
39,91,434880,960
92,68,435838,120
91,60,435960,120
89,64,436083,120
87,59,436198,120
86,63,436321,120
84,57,436441,120
82,63,436560,120
80,57,436678,120
79,63,436803,120
77,57,436923,120
75,63,437041,120
74,56,437160,120
72,62,437280,120
70,54,437400,120
68,62,437523,120
67,54,437639,120
65,61,437760,120
63,54,437879,120
62,61,438003,120
60,54,438119,120
58,61,438242,120
56,54,438361,120
55,61,438479,120
53,54,438602,120
51,61,438723,120
50,54,438840,120
48,61,438961,120
46,54,439083,120
44,57,439198,120
43,53,439323,120
41,59,439441,120
39,59,439558,120
38,61,439681,120
36,54,439801,120
34,62,439921,120
32,57,440039,120
31,63,440163,120
29,54,440278,120
27,63,440398,120
26,63,440522,120
24,57,440639,120
31,65,442080,317
34,65,442080,317
39,80,442080,317
43,80,442080,317
51,64,442400,317
55,73,442400,317
31,69,442720,317
43,82,442720,317
51,53,443040,317
55,65,443040,317
31,66,443360,317
34,66,443360,317
39,79,443360,317
43,79,443360,317
51,54,443680,317
55,67,443680,317
29,63,444000,317
34,63,444000,317
38,63,444000,317
41,78,444000,317
58,63,444320,317
50,50,444320,317
53,50,444320,317
29,61,444640,317
41,72,444640,317
58,65,444960,317
50,52,444960,317
53,65,444960,317
29,59,445280,317
34,59,445280,317
38,70,445280,317
41,70,445280,317
58,65,445600,317
50,54,445600,317
53,54,445600,317
27,63,445920,317
31,63,445920,317
34,77,445920,317
39,77,445920,317
63,69,446240,317
55,56,446240,317
58,56,446240,317
27,72,446560,317
39,86,446560,317
48,81,446880,317
43,81,446880,317
36,69,446880,317
39,69,446880,317
60,69,447200,317
51,56,447200,317
55,56,447200,317
39,56,447520,317
51,71,447520,317
50,76,447840,317
46,76,447840,317
38,65,447840,317
41,65,447840,317
50,63,448160,314
53,63,448160,314
53,64,448480,314
58,64,448480,314
58,67,448800,314
62,67,448800,314
65,68,449120,314
62,68,449120,314
65,70,449440,314
70,70,449440,314
39,65,449760,475
46,77,449760,475
51,77,449760,475
43,57,450240,475
51,70,450240,475
55,70,450240,475
38,54,450720,475
50,66,450720,475
43,66,450720,475
36,51,451200,475
43,72,451200,475
48,72,451200,475
46,75,451680,317
34,65,451680,317
43,75,451680,317
50,63,452000,317
53,63,452000,317
53,64,452320,314
58,64,452320,314
58,67,452640,314
62,67,452640,314
65,68,452960,314
62,68,452960,314
65,70,453280,314
70,70,453280,314
39,65,453600,475
46,77,453600,475
51,77,453600,475
43,57,454080,475
51,70,454080,475
55,70,454080,475
38,54,454560,475
50,66,454560,475
43,66,454560,475
36,51,455040,475
43,72,455040,475
48,72,455040,475
46,75,455520,317
34,65,455520,317
43,75,455520,317
50,63,455840,314
55,63,455840,314
55,64,456160,314
58,64,456160,314
56,54,456480,314
58,67,456480,314
62,67,456480,314
58,54,456800,314
65,68,456800,314
62,68,456800,314
62,54,457120,314
65,70,457120,314
68,70,457120,314
72,81,457440,317
68,81,457440,317
60,69,457440,317
48,57,457760,317
36,48,457760,317
44,57,457760,317
56,70,458080,317
48,57,458080,317
60,70,458080,317
46,65,458400,475
51,77,458400,475
58,77,458400,475
43,57,458880,475
51,70,458880,475
55,70,458880,475
56,72,459360,317
51,72,459360,317
44,62,459360,317
48,57,459680,317
36,48,459680,317
44,57,459680,317
51,70,460000,317
44,57,460000,317
56,70,460000,317
41,57,460320,475
48,70,460320,475
53,70,460320,475
44,54,460800,475
48,67,460800,475
56,67,460800,475
43,57,461280,475
51,70,461280,475
55,70,461280,475
31,46,461760,475
39,54,461760,475
43,54,461760,475
41,54,462240,475
46,68,462240,475
53,68,462240,475
39,53,462720,475
46,64,462720,475
51,64,462720,475
32,35,463200,317
44,39,463200,317
56,35,463520,317
44,32,463520,317
32,32,463840,317
44,36,463840,317
44,30,464160,317
56,34,464160,317
44,35,464480,317
32,30,464480,317
44,27,464800,317
56,33,464800,317
34,40,465120,317
46,46,465120,317
58,36,465440,317
46,33,465440,317
34,34,465760,317
46,38,465760,317
46,34,466080,317
58,38,466080,317
46,39,466400,317
34,35,466400,317
46,35,466720,317
58,39,466720,317
34,41,467040,317
46,47,467040,317
58,42,467360,317
46,37,467360,317
34,38,467680,317
46,42,467680,317
47,41,468000,317
59,46,468000,317
47,38,468320,317
35,34,468320,317
47,34,468640,317
59,38,468640,317
35,38,468960,317
47,38,468960,317
59,38,469280,317
47,38,469280,317
35,38,469600,317
47,38,469600,317
46,38,469920,317
58,41,469920,317
46,42,470240,317
34,38,470240,317
46,39,470560,317
58,42,470560,317
33,38,470880,317
45,42,470880,317
57,43,471200,317
45,39,471200,317
33,42,471520,317
45,42,471520,317
45,48,471840,317
57,48,471840,317
45,43,472160,317
33,43,472160,317
45,42,472480,317
57,42,472480,317
33,49,472800,317
45,56,472800,317
57,47,473120,317
45,42,473120,317
33,43,473440,317
45,48,473440,317
45,52,473760,317
57,60,473760,317
45,50,474080,317
33,46,474080,317
57,51,474400,317
45,46,474400,317
34,60,474720,317
46,68,474720,317
58,52,475040,317
46,47,475040,317
34,51,475360,317
46,57,475360,317
47,64,475680,317
59,71,475680,317
47,54,476000,317
35,48,476000,317
47,45,476320,317
59,50,476320,317
34,54,476640,317
46,62,476640,317
58,52,476960,317
46,47,476960,317
34,51,477280,317
46,57,477280,317
44,65,477600,317
56,72,477600,317
44,54,477920,317
32,48,477920,317
44,45,478240,317
56,50,478240,317
34,54,478560,317
46,62,478560,317
58,52,478880,317
46,47,478880,317
34,51,479200,317
46,57,479200,317
48,65,479520,317
60,72,479520,317
48,56,479840,317
36,50,479840,317
48,47,480160,317
60,53,480160,317
34,59,480480,317
46,67,480480,317
58,57,480800,317
46,50,480800,317
34,57,481120,317
46,64,481120,317
45,72,481440,317
57,82,481440,317
45,63,481760,317
33,56,481760,317
45,52,482080,317
57,59,482080,317
34,76,482400,320
46,86,482400,320
50,64,482720,320
62,72,482720,320
51,71,483040,320
63,80,483040,320
38,67,483360,320
50,73,483360,320
39,70,483680,320
51,79,483680,320
34,65,484000,320
46,72,484000,320
47,62,484320,480
51,67,484320,480
54,67,484320,480
42,54,484800,480
49,54,484800,480
54,63,484800,480
34,76,485280,320
46,86,485280,320
50,64,485600,320
62,72,485600,320
51,71,485920,320
63,80,485920,320
38,67,486240,320
50,73,486240,320
39,70,486560,320
51,79,486560,320
34,65,486880,320
46,72,486880,320
48,62,487200,480
51,67,487200,480
55,67,487200,480
46,54,487680,480
53,63,487680,480
58,63,487680,480
27,89,488160,1800
39,92,488160,1800
43,66,488280,1680
46,66,488280,1680
51,80,488280,1680
55,80,488280,1680
27,80,489960,1920
39,91,489960,1920
41,63,490080,1800
46,63,490080,1800
50,63,490080,1800
53,75,490080,1800
39,90,491880,2040
27,89,491880,2040
43,66,492000,1920
46,80,492000,1920
51,80,492000,1920
36,63,493920,960
39,63,493920,960
43,75,493920,960
48,75,493920,960
39,61,494880,960
43,61,494880,960
48,70,494880,960
51,70,494880,960
38,61,495840,1920
41,61,495840,1920
46,70,495840,1920
50,70,495840,1920
34,80,497760,1800
46,80,497760,1800
53,82,499560,120
56,82,499560,120
29,77,499680,1800
41,77,499680,1800
55,73,501480,120
58,73,501480,120
31,77,501600,1800
43,77,501600,1800
51,73,503400,120
58,73,503400,120
27,77,503520,960
39,86,503520,960
55,67,504480,960
58,67,504480,960
27,77,505440,960
39,86,505440,960
55,67,506400,960
58,67,506400,960
27,70,507360,120
39,62,507480,120
27,70,507600,120
39,59,507720,120
27,70,507840,120
39,63,507960,120
27,71,508080,120
39,62,508200,120
27,70,508320,120
39,62,508440,120
27,71,508560,120
39,64,508680,120
27,73,508800,120
39,65,508920,120
27,76,509040,120
39,66,509160,120
27,79,509280,120
39,70,509400,120
27,81,509520,120
39,72,509640,120
27,83,509760,120
39,77,509880,120
27,86,510000,120
39,80,510120,120
27,88,510240,120
39,80,510360,120
27,91,510480,120
39,84,510600,120
27,99,510720,120
39,89,510840,120
27,103,510960,120
39,92,511080,120
27,96,511200,1440
39,104,511200,1440
