note,velocity,position,duration
70,59,1,480
67,59,1,480
68,55,480,260
65,55,480,260
63,53,720,260
67,53,720,260
68,54,960,260
72,54,960,260
67,52,1200,220
70,52,1200,220
70,59,1440,480
67,59,1440,480
65,53,1920,480
68,53,1920,480
63,51,2400,480
67,51,2400,480
64,65,2880,480
65,55,3360,240
72,55,3600,240
70,53,3840,120
68,51,3960,120
67,53,4080,120
65,52,4200,120
55,59,4320,480
63,59,4320,480
53,53,4800,120
62,53,4800,120
58,47,4980,60
62,51,5040,60
60,49,5100,60
63,52,5160,60
62,51,5220,60
65,53,5280,60
63,51,5340,60
67,54,5400,60
65,54,5460,60
68,57,5520,60
67,54,5580,60
70,59,5640,60
68,56,5700,60
72,60,5760,60
67,61,5820,420
70,61,5820,300
72,53,6120,60
70,50,6180,60
68,53,6240,120
67,51,6360,120
65,53,6480,120
63,52,6600,120
79,62,6720,120
74,54,6840,120
75,58,6960,120
72,52,7080,120
70,56,7200,480
68,50,7680,52
70,48,7732,51
68,50,7783,52
70,48,7835,52
68,50,7887,51
70,49,7938,52
68,49,7990,51
67,57,8040,60
68,55,8100,60
67,60,8160,60
75,65,8280,120
74,62,8400,120
73,59,8520,120
71,57,8640,120
74,53,8730,30
72,61,8760,120
70,53,8850,30
68,57,8880,120
67,47,8970,30
65,55,9000,120
63,51,9120,720
67,50,9840,120
62,50,9840,240
65,47,9960,120
63,46,10080,480
67,49,10800,240
70,49,10800,240
67,52,11040,240
70,52,11040,240
67,46,11280,240
70,46,11280,240
68,57,11520,720
75,57,11520,240
74,50,11760,480
82,54,12240,144
80,51,12360,120
79,54,12480,144
77,52,12600,144
75,52,12720,144
74,49,12840,120
77,54,12960,40
75,52,13000,320
74,45,13320,60
72,44,13380,60
70,45,13440,240
67,45,13680,240
70,45,13680,240
67,50,13920,240
70,50,13920,240
70,45,14160,240
67,45,14160,240
68,56,14400,720
75,56,14400,240
74,46,14640,480
82,53,15120,144
80,50,15240,120
79,53,15360,144
77,50,15480,144
75,52,15600,144
74,50,15720,120
75,53,15840,120
77,43,15960,40
75,43,16000,40
74,43,16040,40
75,43,16080,60
77,44,16140,60
79,45,16200,60
75,44,16260,60
70,43,16320,120
70,48,16560,240
67,48,16560,240
65,45,16800,240
68,45,16800,240
63,49,17040,240
67,49,17040,240
63,53,17280,480
70,53,17280,360
67,39,17640,120
62,35,17760,480
65,35,17760,480
65,67,18660,60
77,72,18720,720
75,70,19440,60
74,62,19500,60
72,65,19560,60
70,63,19620,60
69,71,19680,240
70,70,19920,240
72,67,20160,240
69,67,20160,240
75,65,20400,60
70,65,20400,240
74,62,20460,60
72,65,20520,60
74,61,20580,60
72,65,20640,240
75,65,20640,240
65,49,20880,240
65,53,21120,240
65,50,21360,240
75,72,21600,720
77,69,22320,60
75,63,22380,60
74,69,22440,60
72,63,22500,60
70,73,22560,240
69,70,22800,240
72,70,22800,240
74,71,23040,240
70,71,23040,240
77,67,23280,60
72,67,23280,240
75,67,23340,60
74,67,23400,60
75,64,23460,60
74,72,23520,120
77,72,23520,120
80,76,24480,720
79,67,25200,60
77,63,25260,60
75,67,25320,60
74,64,25380,60
75,72,25440,240
77,74,25680,120
78,80,25920,720
80,72,26640,120
79,69,26760,120
77,70,26880,120
75,67,27000,120
74,67,27120,120
72,64,27240,120
77,75,27360,80
76,71,27440,80
77,73,27520,80
79,75,27600,80
67,67,27680,80
75,69,27760,80
70,75,27840,480
69,62,28320,480
74,68,28320,120
72,60,28440,120
70,66,28560,120
72,59,28680,120
70,60,28800,480
70,75,29520,240
77,75,29520,240
77,59,29760,240
72,80,29760,240
74,76,30000,240
77,76,30000,240
77,80,30240,300
75,63,30240,720
79,69,30540,60
77,67,30600,60
76,70,30660,60
77,76,30720,120
69,75,30960,240
77,75,30960,240
70,76,31200,240
79,76,31200,240
72,75,31440,240
81,75,31440,240
82,86,31680,300
70,86,31680,720
84,75,31980,60
86,76,32040,60
82,72,32100,60
77,78,32160,120
74,54,32400,240
77,54,32400,240
72,54,32640,240
75,54,32640,240
70,54,32880,240
74,54,32880,240
72,57,33120,300
74,52,33420,60
75,54,33480,60
72,52,33540,60
79,59,33600,120
67,49,33840,240
75,49,33840,240
65,52,34080,240
70,52,34080,240
69,49,34320,240
72,49,34320,240
72,54,34560,360
69,54,34560,480
73,50,34920,120
70,45,35040,240
74,45,35040,240
70,74,35280,240
77,74,35280,240
72,80,35520,240
77,59,35520,240
77,75,35760,240
74,75,35760,240
75,83,36000,720
77,83,36000,300
79,69,36300,60
77,71,36360,60
76,67,36420,60
77,77,36480,120
69,76,36720,240
77,76,36720,240
79,81,36960,240
70,81,36960,240
72,76,37200,240
81,76,37200,240
82,86,37440,300
70,86,37440,720
84,67,37740,60
86,70,37800,60
82,66,37860,60
77,63,37920,120
74,54,38160,240
77,54,38160,240
72,54,38400,240
75,54,38400,240
70,54,38640,240
74,54,38640,240
71,45,38880,60
72,45,38940,60
74,46,39000,60
72,45,39060,60
75,50,39120,60
74,47,39180,60
77,52,39240,60
75,50,39300,60
79,60,39360,480
77,54,39840,240
69,50,40260,60
70,51,40320,480
80,66,41040,240
79,70,41280,240
81,73,41520,240
84,76,41760,240
82,71,42000,240
68,69,42480,240
67,69,42720,240
63,63,42960,240
69,63,42960,240
72,54,43200,480
63,54,43200,480
70,42,43680,240
62,42,43680,240
62,47,43920,240
65,47,43920,240
63,52,44160,240
67,52,44160,240
65,55,44400,240
68,55,44400,240
70,59,44641,480
67,59,44641,480
68,55,45120,260
65,55,45120,260
63,53,45360,260
67,53,45360,260
68,54,45600,260
72,54,45600,260
67,52,45840,220
70,52,45840,220
70,59,46080,480
67,59,46080,480
65,53,46560,480
68,53,46560,480
63,51,47040,480
67,51,47040,480
64,65,47520,480
65,55,48000,240
72,55,48240,240
70,53,48480,120
68,51,48600,120
67,53,48720,120
65,52,48840,120
55,59,48960,480
63,59,48960,480
53,53,49440,120
62,53,49440,120
58,47,49620,60
62,51,49680,60
60,49,49740,60
63,52,49800,60
62,51,49860,60
65,53,49920,60
63,51,49980,60
67,54,50040,60
65,54,50100,60
68,57,50160,60
67,54,50220,60
70,59,50280,60
68,56,50340,60
72,60,50400,60
67,61,50460,420
70,61,50460,300
72,53,50760,60
70,50,50820,60
68,53,50880,120
67,51,51000,120
65,53,51120,120
63,52,51240,120
79,62,51360,120
74,54,51480,120
75,58,51600,120
72,52,51720,120
70,56,51840,480
68,50,52320,52
70,48,52372,51
68,50,52423,52
70,48,52475,52
68,50,52527,51
70,49,52578,52
68,49,52630,51
67,57,52680,60
68,55,52740,60
67,60,52800,60
75,65,52920,120
74,62,53040,120
73,59,53160,120
71,57,53280,120
74,53,53370,30
72,61,53400,120
70,53,53490,30
68,57,53520,120
67,47,53610,30
65,55,53640,120
63,51,53760,720
67,50,54480,120
62,50,54480,240
65,47,54600,120
63,46,54720,480
67,49,55440,240
70,49,55440,240
67,52,55680,240
70,52,55680,240
67,46,55920,240
70,46,55920,240
68,57,56160,720
75,57,56160,240
74,50,56400,480
82,54,56880,144
80,51,57000,120
79,54,57120,144
77,52,57240,144
75,52,57360,144
74,49,57480,120
77,54,57600,40
75,52,57640,320
74,45,57960,60
72,44,58020,60
70,45,58080,240
67,45,58320,240
70,45,58320,240
67,50,58560,240
70,50,58560,240
70,45,58800,240
67,45,58800,240
68,56,59040,720
75,56,59040,240
74,46,59280,480
82,53,59760,144
80,50,59880,120
79,53,60000,144
77,50,60120,144
75,52,60240,144
74,50,60360,120
75,53,60480,120
77,43,60600,40
75,43,60640,40
74,43,60680,40
75,43,60720,60
77,44,60780,60
79,45,60840,60
75,44,60900,60
70,43,60960,120
70,48,61200,240
67,48,61200,240
65,45,61440,240
68,45,61440,240
63,49,61680,240
67,49,61680,240
63,53,61920,480
70,53,61920,360
67,39,62280,120
62,35,62400,480
65,35,62400,480
65,67,63300,60
77,72,63360,720
75,70,64080,60
74,62,64140,60
72,65,64200,60
70,63,64260,60
69,71,64320,240
70,70,64560,240
72,67,64800,240
69,67,64800,240
75,65,65040,60
70,65,65040,240
74,62,65100,60
72,65,65160,60
74,61,65220,60
72,65,65280,240
75,65,65280,240
65,49,65520,240
65,53,65760,240
65,50,66000,240
75,72,66240,720
77,69,66960,60
75,63,67020,60
74,69,67080,60
72,63,67140,60
70,73,67200,240
69,70,67440,240
72,70,67440,240
74,71,67680,240
70,71,67680,240
77,67,67920,60
72,67,67920,240
75,67,67980,60
74,67,68040,60
75,64,68100,60
74,72,68160,120
77,72,68160,120
80,76,69120,720
79,67,69840,60
77,63,69900,60
75,67,69960,60
74,64,70020,60
75,72,70080,240
77,74,70320,120
78,80,70560,720
80,72,71280,120
79,69,71400,120
77,70,71520,120
75,67,71640,120
74,67,71760,120
72,64,71880,120
77,75,72000,80
76,71,72080,80
77,73,72160,80
79,75,72240,80
67,67,72320,80
75,69,72400,80
70,75,72480,480
69,62,72960,480
74,68,72960,120
72,60,73080,120
70,66,73200,120
72,59,73320,120
70,60,73440,480
70,75,74160,240
77,75,74160,240
77,59,74400,240
72,80,74400,240
74,76,74640,240
77,76,74640,240
77,80,74880,300
75,63,74880,720
79,69,75180,60
77,67,75240,60
76,70,75300,60
77,76,75360,120
69,75,75600,240
77,75,75600,240
70,76,75840,240
79,76,75840,240
72,75,76080,240
81,75,76080,240
82,86,76320,300
70,86,76320,720
84,75,76620,60
86,76,76680,60
82,72,76740,60
77,78,76800,120
74,54,77040,240
77,54,77040,240
72,54,77280,240
75,54,77280,240
70,54,77520,240
74,54,77520,240
72,57,77760,300
74,52,78060,60
75,54,78120,60
72,52,78180,60
79,59,78240,120
67,49,78480,240
75,49,78480,240
65,52,78720,240
70,52,78720,240
69,49,78960,240
72,49,78960,240
72,54,79200,360
69,54,79200,480
73,50,79560,120
70,45,79680,240
74,45,79680,240
70,74,79920,240
77,74,79920,240
72,80,80160,240
77,59,80160,240
77,75,80400,240
74,75,80400,240
75,83,80640,720
77,83,80640,300
79,69,80940,60
77,71,81000,60
76,67,81060,60
77,77,81120,120
69,76,81360,240
77,76,81360,240
79,81,81600,240
70,81,81600,240
72,76,81840,240
81,76,81840,240
82,86,82080,300
70,86,82080,720
84,67,82380,60
86,70,82440,60
82,66,82500,60
77,63,82560,120
74,54,82800,240
77,54,82800,240
72,54,83040,240
75,54,83040,240
70,54,83280,240
74,54,83280,240
71,45,83520,60
72,45,83580,60
74,46,83640,60
72,45,83700,60
75,50,83760,60
74,47,83820,60
77,52,83880,60
75,50,83940,60
79,60,84000,480
77,54,84480,240
69,50,84900,60
70,51,84960,480
80,66,85680,240
79,70,85920,240
81,73,86160,240
84,76,86400,240
82,71,86640,240
68,69,87120,240
67,69,87360,240
63,63,87600,240
69,63,87600,240
72,54,87840,480
63,54,87840,480
70,42,88320,240
62,42,88320,240
62,47,88560,240
65,47,88560,240
63,52,88800,240
67,52,88800,240
65,55,89040,240
68,55,89040,240
66,67,89280,480
69,67,89280,480
67,62,89760,240
70,62,89760,240
70,54,90000,240
73,54,90000,240
64,56,90240,240
67,56,90240,240
68,51,90480,240
72,51,90480,240
67,55,90720,480
70,55,90720,480
65,52,91200,240
68,52,91200,240
77,54,91440,216
77,54,91680,216
77,54,91920,216
78,62,92160,480
79,56,92640,240
82,63,92880,480
76,57,93360,240
79,64,93600,480
77,60,94080,240
80,59,95280,240
79,61,95520,120
77,59,95640,120
75,57,95760,120
73,57,95880,120
72,59,96000,120
73,62,96120,120
77,66,96240,120
73,60,96360,120
62,57,96480,1440
68,57,96480,1440
72,57,96480,480
71,47,96960,960
63,53,98160,480
72,53,98160,240
71,56,98400,120
72,58,98520,120
63,50,98640,480
74,59,98640,120
72,56,98760,120
71,56,98880,120
72,59,99000,120
63,61,99120,720
75,61,99120,120
74,60,99240,120
71,66,99360,480
63,60,99840,960
72,60,99840,960
63,62,101040,216
72,62,101040,216
63,64,101280,216
72,64,101280,216
63,67,101520,216
72,67,101520,216
63,70,101760,216
72,70,101760,216
63,72,102000,216
72,72,102000,216
73,74,102240,300
63,74,102240,720
72,62,102540,60
70,57,102600,60
68,54,102660,60
67,66,102720,240
79,67,102960,240
80,67,103200,240
72,65,103440,360
70,56,103800,120
73,60,103920,120
77,55,104040,120
68,63,104160,720
67,55,104880,240
72,55,104880,120
70,55,105000,120
68,46,105120,480
68,46,105840,240
72,46,105840,240
68,49,106080,240
72,49,106080,240
68,46,106320,240
72,46,106320,240
70,58,106560,720
72,58,106560,720
77,58,106560,240
76,46,106800,480
70,47,107280,240
72,47,107280,240
70,51,107520,240
72,51,107520,240
70,47,107760,240
72,47,107760,240
79,59,108000,240
68,59,108000,720
72,59,108000,720
77,51,108240,480
68,51,108720,240
72,51,108720,240
68,54,108960,240
72,54,108960,240
68,49,109200,240
72,49,109200,240
80,64,109440,240
68,64,109440,720
72,64,109440,720
78,60,109680,480
68,50,110160,216
72,50,110160,216
68,55,110400,216
72,55,110400,216
68,51,110640,216
72,51,110640,216
78,61,110880,240
68,61,110880,720
73,61,110880,720
76,56,111120,480
68,59,111600,240
76,59,111600,240
68,64,111840,240
76,64,111840,240
68,59,112080,240
75,59,112080,240
68,65,112320,720
75,65,112320,360
77,52,112680,60
75,49,112740,60
74,52,112800,240
62,45,113040,240
68,45,113040,240
62,47,113280,240
68,47,113280,240
62,45,113520,240
68,45,113520,240
62,47,113760,480
68,47,113760,480
74,39,114480,216
80,39,114480,216
74,39,114720,216
80,39,114720,216
74,39,114960,216
80,39,114960,216
74,43,115200,480
80,43,115200,240
82,34,115440,30
80,36,115470,30
79,39,115500,30
80,41,115530,30
82,40,115560,60
84,37,115620,60
82,43,115680,120
80,40,115800,120
79,44,115920,120
77,44,116040,120
75,46,116160,120
74,44,116280,120
72,44,116400,120
70,44,116520,110
70,46,116641,360
67,46,116641,480
72,46,117000,60
70,46,117060,60
65,44,117120,240
68,44,117120,240
63,42,117360,240
67,42,117360,240
68,43,117600,240
72,43,117600,240
67,41,117840,230
70,41,117840,230
70,45,118080,360
67,45,118080,480
72,42,118440,60
70,42,118500,60
68,47,118560,480
67,47,119040,600
64,44,119640,120
65,45,119760,120
67,46,119880,120
68,49,120000,120
69,51,120120,120
70,52,120240,120
71,54,120360,120
74,56,120480,60
72,54,120540,60
71,52,120600,60
72,54,120660,60
70,52,120720,60
68,49,120780,60
67,51,120840,60
65,50,120900,60
55,54,120960,480
63,54,120960,480
53,47,121440,60
62,47,121440,60
58,49,121500,60
57,50,121560,60
58,51,121620,60
59,52,121680,60
60,53,121740,60
61,54,121800,60
62,54,121860,60
63,55,121920,60
64,56,121980,60
65,57,122040,60
66,59,122100,60
67,60,122160,60
68,61,122220,60
69,62,122280,60
70,63,122340,50
67,63,122400,480
70,63,122400,360
72,57,122760,60
70,53,122820,60
68,55,122880,60
67,54,122940,60
72,56,123000,60
70,53,123060,60
75,57,123120,60
74,55,123180,60
77,61,123240,60
75,55,123300,60
80,63,123360,60
79,59,123420,60
78,61,123480,60
79,61,123540,60
77,61,123600,60
75,59,123660,60
74,57,123720,60
72,55,123780,60
70,60,123840,240
69,63,124080,480
68,63,124560,360
67,66,124920,120
75,68,125040,120
73,64,125160,120
71,67,125280,120
72,64,125400,120
74,69,125520,120
75,64,125640,110
75,70,125760,240
70,66,126000,360
72,54,126360,60
70,50,126420,50
70,53,126480,60
68,45,126540,60
67,51,126600,60
65,45,126660,60
63,46,126720,480
67,46,127440,240
70,46,127440,240
67,50,127680,240
70,50,127680,240
67,46,127920,240
70,46,127920,240
68,54,128160,720
75,54,128160,240
74,46,128400,480
82,50,128880,120
80,47,129000,120
79,52,129120,120
77,47,129240,120
75,49,129360,120
74,45,129480,120
77,54,129600,40
75,52,129640,300
74,49,129960,60
72,45,130020,60
70,50,130080,230
67,49,130320,216
70,49,130320,216
67,53,130560,216
70,53,130560,216
67,49,130800,216
70,49,130800,216
68,62,131040,240
75,62,131040,120
74,55,131160,120
84,60,131280,480
82,50,131760,60
80,49,131820,60
84,52,131880,60
80,49,131940,60
79,51,132000,60
77,49,132060,60
80,51,132120,60
77,49,132180,60
75,51,132240,60
74,49,132300,60
77,52,132360,60
74,49,132420,60
75,54,132480,60
77,52,132540,60
75,52,132600,60
74,52,132660,60
75,50,132720,40
76,47,132760,40
77,50,132800,40
78,53,132840,60
79,54,132900,60
70,50,132960,240
67,45,133200,240
70,45,133200,240
65,47,133440,240
68,47,133440,240
63,51,133680,230
67,51,133680,230
63,58,133920,480
70,58,133920,120
69,49,134040,120
70,53,134160,120
67,42,134280,120
62,38,134400,480
65,38,134400,480
70,67,135300,60
82,73,135360,720
80,70,136080,60
79,66,136140,60
77,70,136200,60
75,64,136260,60
74,74,136320,240
75,72,136560,240
74,67,136800,240
77,67,136800,240
80,69,137040,60
75,69,137040,240
79,65,137100,60
77,66,137160,60
79,65,137220,60
77,70,137280,240
80,70,137280,240
70,57,137520,216
70,59,137760,216
70,59,138000,216
80,72,138240,720
82,69,138960,60
80,65,139020,60
79,69,139080,60
77,64,139140,60
75,73,139200,240
74,70,139440,240
77,70,139440,240
75,71,139680,240
79,71,139680,240
82,67,139920,60
77,67,139920,240
80,63,139980,60
79,67,140040,60
80,64,140100,60
79,72,140160,120
82,72,140160,120
73,83,141120,600
75,62,141720,30
73,58,141750,30
72,62,141780,30
73,59,141810,30
75,67,141840,120
77,67,141960,120
75,67,142080,120
73,60,142200,120
72,67,142320,120
71,61,142440,110
71,70,142560,600
72,67,143160,120
75,69,143280,120
74,69,143400,120
77,69,143520,120
75,64,143640,120
74,68,143760,120
72,61,143880,120
70,59,144000,100
71,60,144080,100
72,62,144160,100
73,66,144240,100
74,68,144320,100
75,69,144400,80
75,60,144480,60
63,73,144540,420
67,59,144960,120
62,59,144960,480
65,64,145080,120
63,64,145200,120
65,59,145320,120
63,55,145440,480
63,75,146160,216
70,75,146160,216
65,80,146400,216
70,59,146400,216
67,75,146640,216
70,75,146640,216
70,80,146880,300
68,63,146880,720
72,76,147180,60
70,70,147240,60
69,69,147300,60
70,79,147360,120
62,74,147600,240
70,74,147600,240
63,76,147840,240
72,76,147840,240
65,72,148080,240
74,72,148080,240
75,81,148320,300
63,81,148320,720
77,70,148620,60
79,72,148680,60
75,66,148740,60
70,69,148800,120
67,52,149040,240
70,52,149040,240
65,54,149280,240
68,54,149280,240
63,52,149520,240
67,52,149520,240
65,57,149760,300
67,50,150060,60
68,52,150120,60
65,50,150180,60
72,56,150240,120
60,46,150480,240
65,46,150480,240
58,49,150720,240
63,49,150720,240
62,46,150960,230
65,46,150960,230
62,54,151200,480
65,54,151200,360
66,50,151560,120
63,45,151680,240
67,45,151680,240
75,76,151920,216
82,76,151920,216
77,77,152160,216
82,77,152160,216
79,76,152400,216
82,76,152400,216
82,81,152640,300
80,81,152640,720
84,73,152940,60
82,69,153000,60
81,70,153060,60
82,78,153120,120
74,76,153360,240
82,76,153360,240
75,80,153600,240
84,80,153600,240
77,75,153840,240
86,75,153840,240
87,86,154080,300
75,86,154080,720
86,68,154380,60
87,70,154440,60
82,66,154500,60
79,61,154560,120
79,54,154800,240
82,54,154800,240
77,54,155040,240
80,54,155040,240
75,54,155280,240
79,54,155280,240
76,51,155520,60
77,50,155580,60
79,56,155640,60
77,55,155700,60
80,59,155760,60
79,58,155820,60
82,62,155880,60
80,60,155940,60
84,66,156000,480
82,59,156480,240
74,53,156900,60
75,56,156960,480
85,69,157680,240
84,72,157920,240
86,75,158160,240
89,81,158400,240
87,78,158640,240
73,72,159120,240
72,74,159360,240
68,69,159600,240
74,69,159600,240
77,59,159840,480
68,59,159840,480
67,52,160320,240
75,52,160320,240
62,47,160560,240
65,47,160560,240
63,52,160800,240
67,52,160800,240
65,54,161040,240
68,54,161040,240
66,67,161280,480
69,67,161280,480
67,62,161760,240
70,62,161760,240
70,54,162000,240
73,54,162000,240
64,56,162240,240
67,56,162240,240
68,51,162480,240
72,51,162480,240
67,55,162720,480
70,55,162720,480
65,52,163200,240
68,52,163200,240
77,54,163440,216
77,54,163680,216
77,54,163920,216
78,62,164160,480
79,56,164640,240
82,63,164880,480
76,57,165360,240
79,64,165600,480
77,60,166080,240
80,59,167280,240
79,61,167520,120
77,59,167640,120
75,57,167760,120
73,57,167880,120
72,59,168000,120
73,62,168120,120
77,66,168240,120
73,60,168360,120
62,57,168480,1440
68,57,168480,1440
72,57,168480,480
71,47,168960,960
63,53,170160,480
72,53,170160,240
71,56,170400,120
72,58,170520,120
63,50,170640,480
74,59,170640,120
72,56,170760,120
71,56,170880,120
72,59,171000,120
63,61,171120,720
75,61,171120,120
74,60,171240,120
71,66,171360,480
63,60,171840,960
72,60,171840,960
63,62,173040,216
72,62,173040,216
63,64,173280,216
72,64,173280,216
63,67,173520,216
72,67,173520,216
63,70,173760,216
72,70,173760,216
63,72,174000,216
72,72,174000,216
73,74,174240,300
63,74,174240,720
72,62,174540,60
70,57,174600,60
68,54,174660,60
67,66,174720,240
79,67,174960,240
80,67,175200,240
72,65,175440,360
70,56,175800,120
73,60,175920,120
77,55,176040,120
68,63,176160,720
67,55,176880,240
72,55,176880,120
70,55,177000,120
68,46,177120,480
68,46,177840,240
72,46,177840,240
68,49,178080,240
72,49,178080,240
68,46,178320,240
72,46,178320,240
70,58,178560,720
72,58,178560,720
77,58,178560,240
76,46,178800,480
70,47,179280,240
72,47,179280,240
70,51,179520,240
72,51,179520,240
70,47,179760,240
72,47,179760,240
79,59,180000,240
68,59,180000,720
72,59,180000,720
77,51,180240,480
68,51,180720,240
72,51,180720,240
68,54,180960,240
72,54,180960,240
68,49,181200,240
72,49,181200,240
80,64,181440,240
68,64,181440,720
72,64,181440,720
78,60,181680,480
68,50,182160,216
72,50,182160,216
68,55,182400,216
72,55,182400,216
68,51,182640,216
72,51,182640,216
78,61,182880,240
68,61,182880,720
73,61,182880,720
76,56,183120,480
68,59,183600,240
76,59,183600,240
68,64,183840,240
76,64,183840,240
68,59,184080,240
75,59,184080,240
68,65,184320,720
75,65,184320,360
77,52,184680,60
75,49,184740,60
74,52,184800,240
62,45,185040,240
68,45,185040,240
62,47,185280,240
68,47,185280,240
62,45,185520,240
68,45,185520,240
62,47,185760,480
68,47,185760,480
74,39,186480,216
80,39,186480,216
74,39,186720,216
80,39,186720,216
74,39,186960,216
80,39,186960,216
74,43,187200,480
80,43,187200,240
82,34,187440,30
80,36,187470,30
79,39,187500,30
80,41,187530,30
82,40,187560,60
84,37,187620,60
82,43,187680,120
80,40,187800,120
79,44,187920,120
77,44,188040,120
75,46,188160,120
74,44,188280,120
72,44,188400,120
70,44,188520,110
70,46,188641,360
67,46,188641,480
72,46,189000,60
70,46,189060,60
65,44,189120,240
68,44,189120,240
63,42,189360,240
67,42,189360,240
68,43,189600,240
72,43,189600,240
67,41,189840,230
70,41,189840,230
70,45,190080,360
67,45,190080,480
72,42,190440,60
70,42,190500,60
68,47,190560,480
67,47,191040,600
64,44,191640,120
65,45,191760,120
67,46,191880,120
68,49,192000,120
69,51,192120,120
70,52,192240,120
71,54,192360,120
74,56,192480,60
72,54,192540,60
71,52,192600,60
72,54,192660,60
70,52,192720,60
68,49,192780,60
67,51,192840,60
65,50,192900,60
55,54,192960,480
63,54,192960,480
53,47,193440,60
62,47,193440,60
58,49,193500,60
57,50,193560,60
58,51,193620,60
59,52,193680,60
60,53,193740,60
61,54,193800,60
62,54,193860,60
63,55,193920,60
64,56,193980,60
65,57,194040,60
66,59,194100,60
67,60,194160,60
68,61,194220,60
69,62,194280,60
70,63,194340,50
67,63,194400,480
70,63,194400,360
72,57,194760,60
70,53,194820,60
68,55,194880,60
67,54,194940,60
72,56,195000,60
70,53,195060,60
75,57,195120,60
74,55,195180,60
77,61,195240,60
75,55,195300,60
80,63,195360,60
79,59,195420,60
78,61,195480,60
79,61,195540,60
77,61,195600,60
75,59,195660,60
74,57,195720,60
72,55,195780,60
70,60,195840,240
69,63,196080,480
68,63,196560,360
67,66,196920,120
75,68,197040,120
73,64,197160,120
71,67,197280,120
72,64,197400,120
74,69,197520,120
75,64,197640,110
75,70,197760,240
70,66,198000,360
72,54,198360,60
70,50,198420,50
70,53,198480,60
68,45,198540,60
67,51,198600,60
65,45,198660,60
63,46,198720,480
67,46,199440,240
70,46,199440,240
67,50,199680,240
70,50,199680,240
67,46,199920,240
70,46,199920,240
68,54,200160,720
75,54,200160,240
74,46,200400,480
82,50,200880,120
80,47,201000,120
79,52,201120,120
77,47,201240,120
75,49,201360,120
74,45,201480,120
77,54,201600,40
75,52,201640,300
74,49,201960,60
72,45,202020,60
70,50,202080,230
67,49,202320,216
70,49,202320,216
67,53,202560,216
70,53,202560,216
67,49,202800,216
70,49,202800,216
68,62,203040,240
75,62,203040,120
74,55,203160,120
84,60,203280,480
82,50,203760,60
80,49,203820,60
84,52,203880,60
80,49,203940,60
79,51,204000,60
77,49,204060,60
80,51,204120,60
77,49,204180,60
75,51,204240,60
74,49,204300,60
77,52,204360,60
74,49,204420,60
75,54,204480,60
77,52,204540,60
75,52,204600,60
74,52,204660,60
75,50,204720,40
76,47,204760,40
77,50,204800,40
78,53,204840,60
79,54,204900,60
70,50,204960,240
67,45,205200,240
70,45,205200,240
65,47,205440,240
68,47,205440,240
63,51,205680,230
67,51,205680,230
63,58,205920,480
70,58,205920,120
69,49,206040,120
70,53,206160,120
67,42,206280,120
62,38,206400,480
65,38,206400,480
70,67,207300,60
82,73,207360,720
80,70,208080,60
79,66,208140,60
77,70,208200,60
75,64,208260,60
74,74,208320,240
75,72,208560,240
74,67,208800,240
77,67,208800,240
80,69,209040,60
75,69,209040,240
79,65,209100,60
77,66,209160,60
79,65,209220,60
77,70,209280,240
80,70,209280,240
70,57,209520,216
70,59,209760,216
70,59,210000,216
80,72,210240,720
82,69,210960,60
80,65,211020,60
79,69,211080,60
77,64,211140,60
75,73,211200,240
74,70,211440,240
77,70,211440,240
75,71,211680,240
79,71,211680,240
82,67,211920,60
77,67,211920,240
80,63,211980,60
79,67,212040,60
80,64,212100,60
79,72,212160,120
82,72,212160,120
73,83,213120,600
75,62,213720,30
73,58,213750,30
72,62,213780,30
73,59,213810,30
75,67,213840,120
77,67,213960,120
75,67,214080,120
73,60,214200,120
72,67,214320,120
71,61,214440,110
71,70,214560,600
72,67,215160,120
75,69,215280,120
74,69,215400,120
77,69,215520,120
75,64,215640,120
74,68,215760,120
72,61,215880,120
70,59,216000,100
71,60,216080,100
72,62,216160,100
73,66,216240,100
74,68,216320,100
75,69,216400,80
75,60,216480,60
63,73,216540,420
67,59,216960,120
62,59,216960,480
65,64,217080,120
63,64,217200,120
65,59,217320,120
63,55,217440,480
63,75,218160,216
70,75,218160,216
65,80,218400,216
70,59,218400,216
67,75,218640,216
70,75,218640,216
70,80,218880,300
68,63,218880,720
72,76,219180,60
70,70,219240,60
69,69,219300,60
70,79,219360,120
62,74,219600,240
70,74,219600,240
63,76,219840,240
72,76,219840,240
65,72,220080,240
74,72,220080,240
75,81,220320,300
63,81,220320,720
77,70,220620,60
79,72,220680,60
75,66,220740,60
70,69,220800,120
67,52,221040,240
70,52,221040,240
65,54,221280,240
68,54,221280,240
63,52,221520,240
67,52,221520,240
65,57,221760,300
67,50,222060,60
68,52,222120,60
65,50,222180,60
72,56,222240,120
60,46,222480,240
65,46,222480,240
58,49,222720,240
63,49,222720,240
62,46,222960,230
65,46,222960,230
62,54,223200,480
65,54,223200,360
66,50,223560,120
63,45,223680,240
67,45,223680,240
75,76,223920,216
82,76,223920,216
77,77,224160,216
82,77,224160,216
79,76,224400,216
82,76,224400,216
82,81,224640,300
80,81,224640,720
84,73,224940,60
82,69,225000,60
81,70,225060,60
82,78,225120,120
74,76,225360,240
82,76,225360,240
75,80,225600,240
84,80,225600,240
77,75,225840,240
86,75,225840,240
87,86,226080,300
75,86,226080,720
86,68,226380,60
87,70,226440,60
82,66,226500,60
79,61,226560,120
79,54,226800,240
82,54,226800,240
77,54,227040,240
80,54,227040,240
75,54,227280,240
79,54,227280,240
76,51,227520,60
77,50,227580,60
79,56,227640,60
77,55,227700,60
80,59,227760,60
79,58,227820,60
82,62,227880,60
80,60,227940,60
84,66,228000,480
82,59,228480,240
74,53,228900,60
75,56,228960,480
85,69,229680,240
84,72,229920,240
86,75,230160,240
89,81,230400,240
87,78,230640,240
73,72,231120,240
72,74,231360,240
68,69,231600,240
74,69,231600,240
77,54,231840,480
68,54,231840,480
67,42,232320,240
75,42,232320,240
62,41,232560,240
65,41,232560,240
63,46,232800,240
67,46,232800,240
65,45,233040,240
68,45,233040,240
62,34,233280,960
65,37,233280,960
68,37,233280,960
63,36,234240,240
67,36,234240,240
51,51,1,960
51,50,1440,480
53,46,1920,480
55,45,2400,480
58,55,2880,480
61,55,2880,480
60,51,3360,480
56,51,3360,480
45,47,4320,120
46,50,4440,120
48,53,4560,120
46,51,4680,110
46,49,4800,480
39,53,5760,480
51,53,5760,480
51,49,6720,480
60,49,6720,480
60,53,7200,480
53,53,7200,480
58,50,7680,480
62,50,7680,480
60,49,8160,240
63,49,8160,240
44,54,8640,480
56,54,8640,480
46,50,9120,960
55,50,9120,480
56,40,9600,480
51,32,10080,120
55,32,10200,120
58,30,10320,120
55,27,10440,120
51,33,10560,120
55,29,10680,120
58,31,10800,120
55,29,10920,120
51,33,11040,120
55,29,11160,120
58,31,11280,120
55,29,11400,120
51,36,11520,120
53,27,11640,120
56,30,11760,120
53,27,11880,120
51,32,12000,120
53,27,12120,120
56,30,12240,120
53,27,12360,120
51,32,12480,120
53,27,12600,120
56,30,12720,120
53,27,12840,120
51,33,12960,120
55,27,13080,120
58,30,13200,120
55,27,13320,120
51,29,13440,120
55,27,13560,120
58,30,13680,120
55,27,13800,120
51,29,13920,120
55,27,14040,120
58,30,14160,120
55,27,14280,120
51,35,14400,120
53,29,14520,120
56,30,14640,120
53,29,14760,120
51,32,14880,120
53,27,15000,120
56,27,15120,120
53,27,15240,120
51,32,15360,120
53,27,15480,120
56,27,15600,120
53,27,15720,120
55,27,15840,480
51,27,15840,480
58,32,16560,240
55,32,16560,240
56,34,16800,240
60,34,16800,240
57,35,17040,240
60,35,17040,240
58,37,17280,480
58,46,18000,240
53,46,18240,240
50,46,18480,240
46,53,18720,240
50,45,18960,240
53,47,19200,240
58,45,19440,240
65,51,19680,480
63,51,19680,240
62,47,19920,240
63,51,20160,240
60,51,20160,240
62,47,20400,240
58,47,20400,240
60,47,20640,240
57,47,20640,240
53,45,21840,240
57,45,22080,240
60,45,22320,240
62,50,22560,240
63,45,22800,240
65,45,22800,480
62,51,23040,240
60,45,23280,240
63,45,23280,240
62,50,23520,240
58,50,23520,240
46,54,23760,216
46,57,24000,216
46,54,24240,216
50,54,24720,240
53,56,24960,240
56,52,25200,240
55,56,25440,240
50,53,25680,120
58,53,26160,240
51,53,26160,240
58,53,26400,240
51,53,26400,240
59,55,26640,240
51,55,26640,240
51,55,26880,240
60,55,26880,240
57,53,27120,240
51,53,27120,240
58,54,27360,240
50,54,27360,240
51,50,27600,240
58,50,27600,240
53,50,27840,240
62,50,27840,240
62,46,28080,240
53,46,28080,240
63,42,28320,240
53,42,28320,240
63,42,28560,240
53,42,28560,240
62,45,28800,120
58,45,28800,120
58,50,28920,120
62,54,29040,120
65,57,29160,120
63,63,29280,120
65,54,29400,120
62,63,29520,120
65,54,29640,120
60,63,29760,120
65,56,29880,120
58,63,30000,120
65,55,30120,120
57,63,30240,120
60,53,30360,120
63,56,30480,120
62,53,30600,120
60,61,30720,120
58,54,30840,120
57,56,30960,120
55,54,31080,120
53,56,31200,120
55,54,31320,120
51,56,31440,120
53,54,31560,120
50,61,31680,120
53,52,31800,120
58,54,31920,120
53,51,32040,120
62,57,32160,120
58,41,32400,240
62,41,32400,240
60,43,32640,240
63,43,32640,240
65,39,32880,240
62,39,32880,240
67,46,33120,480
63,46,33120,480
60,41,33840,240
51,41,33840,240
62,43,34080,240
53,43,34080,480
63,42,34320,240
63,45,34560,480
58,45,34560,600
62,35,35040,120
58,51,35160,120
62,54,35280,120
65,51,35400,120
63,57,35520,120
62,54,35640,120
60,55,35760,120
58,53,35880,120
57,63,36000,120
60,54,36120,120
63,56,36240,120
62,54,36360,120
60,61,36480,120
58,54,36600,120
57,56,36720,120
55,54,36840,120
53,56,36960,120
55,54,37080,120
51,56,37200,120
53,54,37320,120
50,61,37440,120
53,46,37560,120
58,51,37680,120
53,45,37800,120
62,50,37920,120
58,41,38160,240
62,41,38160,240
60,43,38400,240
63,43,38400,240
65,42,38640,240
62,42,38640,240
63,43,38880,480
67,43,38880,480
57,43,39840,240
63,43,39840,480
53,43,39840,480
60,43,40080,240
58,43,40320,120
62,39,40440,120
65,40,40560,120
62,42,40680,120
58,46,40800,120
62,44,40920,120
65,45,41040,120
62,46,41160,120
63,53,41280,120
60,50,41400,120
65,51,41520,120
63,53,41640,120
62,56,41760,120
65,51,41880,120
62,53,42000,120
60,50,42120,120
58,64,42240,120
56,56,42360,120
53,59,42480,120
50,56,42600,120
51,64,42720,120
48,59,42840,120
53,64,42960,120
41,54,43080,120
46,46,43200,720
56,42,43920,240
55,45,44160,240
53,49,44400,240
51,51,44641,960
51,50,46080,480
53,46,46560,480
55,45,47040,480
58,55,47520,480
61,55,47520,480
60,51,48000,480
56,51,48000,480
45,47,48960,120
46,50,49080,120
48,53,49200,120
46,51,49320,110
46,49,49440,480
39,53,50400,480
51,53,50400,480
51,49,51360,480
60,49,51360,480
60,53,51840,480
53,53,51840,480
58,50,52320,480
62,50,52320,480
60,49,52800,240
63,49,52800,240
44,54,53280,480
56,54,53280,480
46,50,53760,960
55,50,53760,480
56,40,54240,480
51,32,54720,120
55,32,54840,120
58,30,54960,120
55,27,55080,120
51,33,55200,120
55,29,55320,120
58,31,55440,120
55,29,55560,120
51,33,55680,120
55,29,55800,120
58,31,55920,120
55,29,56040,120
51,36,56160,120
53,27,56280,120
56,30,56400,120
53,27,56520,120
51,32,56640,120
53,27,56760,120
56,30,56880,120
53,27,57000,120
51,32,57120,120
53,27,57240,120
56,30,57360,120
53,27,57480,120
51,33,57600,120
55,27,57720,120
58,30,57840,120
55,27,57960,120
51,29,58080,120
55,27,58200,120
58,30,58320,120
55,27,58440,120
51,29,58560,120
55,27,58680,120
58,30,58800,120
55,27,58920,120
51,35,59040,120
53,29,59160,120
56,30,59280,120
53,29,59400,120
51,32,59520,120
53,27,59640,120
56,27,59760,120
53,27,59880,120
51,32,60000,120
53,27,60120,120
56,27,60240,120
53,27,60360,120
55,27,60480,480
51,27,60480,480
58,32,61200,240
55,32,61200,240
56,34,61440,240
60,34,61440,240
57,35,61680,240
60,35,61680,240
58,37,61920,480
58,46,62640,240
53,46,62880,240
50,46,63120,240
46,53,63360,240
50,45,63600,240
53,47,63840,240
58,45,64080,240
65,51,64320,480
63,51,64320,240
62,47,64560,240
63,51,64800,240
60,51,64800,240
62,47,65040,240
58,47,65040,240
60,47,65280,240
57,47,65280,240
53,45,66480,240
57,45,66720,240
60,45,66960,240
62,50,67200,240
63,45,67440,240
65,45,67440,480
62,51,67680,240
60,45,67920,240
63,45,67920,240
62,50,68160,240
58,50,68160,240
46,54,68400,216
46,57,68640,216
46,54,68880,216
50,54,69360,240
53,56,69600,240
56,52,69840,240
55,56,70080,240
50,53,70320,120
58,53,70800,240
51,53,70800,240
58,53,71040,240
51,53,71040,240
59,55,71280,240
51,55,71280,240
51,55,71520,240
60,55,71520,240
57,53,71760,240
51,53,71760,240
58,54,72000,240
50,54,72000,240
51,50,72240,240
58,50,72240,240
53,50,72480,240
62,50,72480,240
62,46,72720,240
53,46,72720,240
63,42,72960,240
53,42,72960,240
63,42,73200,240
53,42,73200,240
62,45,73440,120
58,45,73440,120
58,50,73560,120
62,54,73680,120
65,57,73800,120
63,63,73920,120
65,54,74040,120
62,63,74160,120
65,54,74280,120
60,63,74400,120
65,56,74520,120
58,63,74640,120
65,55,74760,120
57,63,74880,120
60,53,75000,120
63,56,75120,120
62,53,75240,120
60,61,75360,120
58,54,75480,120
57,56,75600,120
55,54,75720,120
53,56,75840,120
55,54,75960,120
51,56,76080,120
53,54,76200,120
50,61,76320,120
53,52,76440,120
58,54,76560,120
53,51,76680,120
62,57,76800,120
58,41,77040,240
62,41,77040,240
60,43,77280,240
63,43,77280,240
65,39,77520,240
62,39,77520,240
67,46,77760,480
63,46,77760,480
60,41,78480,240
51,41,78480,240
62,43,78720,240
53,43,78720,480
63,42,78960,240
63,45,79200,480
58,45,79200,600
62,35,79680,120
58,51,79800,120
62,54,79920,120
65,51,80040,120
63,57,80160,120
62,54,80280,120
60,55,80400,120
58,53,80520,120
57,63,80640,120
60,54,80760,120
63,56,80880,120
62,54,81000,120
60,61,81120,120
58,54,81240,120
57,56,81360,120
55,54,81480,120
53,56,81600,120
55,54,81720,120
51,56,81840,120
53,54,81960,120
50,61,82080,120
53,46,82200,120
58,51,82320,120
53,45,82440,120
62,50,82560,120
58,41,82800,240
62,41,82800,240
60,43,83040,240
63,43,83040,240
65,42,83280,240
62,42,83280,240
63,43,83520,480
67,43,83520,480
57,43,84480,240
63,43,84480,480
53,43,84480,480
60,43,84720,240
58,43,84960,120
62,39,85080,120
65,40,85200,120
62,42,85320,120
58,46,85440,120
62,44,85560,120
65,45,85680,120
62,46,85800,120
63,53,85920,120
60,50,86040,120
65,51,86160,120
63,53,86280,120
62,56,86400,120
65,51,86520,120
62,53,86640,120
60,50,86760,120
58,64,86880,120
56,56,87000,120
53,59,87120,120
50,56,87240,120
51,64,87360,120
48,59,87480,120
53,64,87600,120
41,54,87720,120
46,46,87840,720
56,42,88560,240
55,45,88800,240
53,49,89040,240
52,56,89280,960
48,46,90240,480
49,53,90720,960
60,43,91680,480
56,43,91680,480
58,43,92160,480
61,43,92160,480
60,43,93120,480
70,43,93120,480
65,43,93600,720
70,43,93600,480
68,36,94080,240
41,45,94320,216
41,46,94560,216
41,44,94800,216
41,52,95040,1440
41,42,96480,720
41,45,97200,216
41,46,97440,216
41,45,97680,216
42,54,97920,1440
43,49,99360,720
43,48,100080,216
43,50,100320,216
43,47,100560,216
44,55,100800,960
45,62,101760,480
46,62,102240,480
49,48,102720,480
48,54,103200,480
49,44,103680,480
51,43,104160,480
60,43,104160,480
51,36,104640,480
61,36,104640,480
56,33,105120,120
60,26,105240,120
63,27,105360,120
60,25,105480,120
56,30,105600,120
60,26,105720,120
63,29,105840,120
60,26,105960,120
56,33,106080,120
60,27,106200,120
63,29,106320,120
60,27,106440,120
55,36,106560,120
58,26,106680,120
60,27,106800,120
58,26,106920,120
55,32,107040,120
58,26,107160,120
60,27,107280,120
58,25,107400,120
55,32,107520,120
58,27,107640,120
60,27,107760,120
58,25,107880,120
53,36,108000,120
56,27,108120,120
60,30,108240,120
56,27,108360,120
53,32,108480,120
56,26,108600,120
60,27,108720,120
56,26,108840,120
53,32,108960,120
56,27,109080,120
60,29,109200,120
56,27,109320,120
51,36,109440,120
54,30,109560,120
56,32,109680,120
54,29,109800,120
51,36,109920,120
54,29,110040,120
56,32,110160,120
54,29,110280,120
51,35,110400,120
54,29,110520,120
56,31,110640,120
54,27,110760,120
49,40,110880,120
52,34,111000,120
56,36,111120,120
52,33,111240,120
49,40,111360,120
52,33,111480,120
56,36,111600,120
52,33,111720,120
47,39,111840,120
51,34,111960,120
56,36,112080,120
51,33,112200,120
46,36,112320,720
53,36,112320,720
46,29,113040,240
53,29,113040,240
46,32,113280,240
53,32,113280,240
46,29,113520,240
53,29,113520,240
46,32,113760,480
53,32,113760,480
65,27,114480,216
58,27,114480,216
65,27,114720,216
58,27,114720,216
65,27,114960,216
58,27,114960,216
58,31,115200,480
65,31,115200,480
51,39,116641,960
51,37,118080,120
55,33,118200,120
58,36,118320,120
51,33,118440,120
53,40,118560,120
56,32,118680,120
62,35,118800,120
53,33,118920,120
55,40,119040,120
58,32,119160,120
63,36,119280,120
55,33,119400,120
56,41,119520,1440
60,41,119520,1440
45,44,120960,120
46,46,121080,120
48,49,121200,120
46,45,121320,110
46,45,121440,480
39,45,122400,480
51,45,122400,480
51,53,123360,480
60,53,123360,480
53,51,123840,480
60,51,123840,480
58,46,124320,240
62,46,124320,480
59,40,124560,240
63,47,124800,720
60,47,124800,240
55,45,125040,240
56,50,125280,240
46,51,125760,960
55,51,125760,480
56,37,126240,480
51,30,126720,120
55,26,126840,120
58,27,126960,120
55,27,127080,120
51,30,127200,120
55,27,127320,120
58,29,127440,120
55,27,127560,120
51,33,127680,120
55,27,127800,120
58,29,127920,120
55,27,128040,120
51,36,128160,120
53,27,128280,120
56,30,128400,120
53,27,128520,120
51,32,128640,120
53,27,128760,120
56,27,128880,120
53,26,129000,120
51,32,129120,120
53,27,129240,120
56,27,129360,120
53,27,129480,120
51,33,129600,120
55,26,129720,120
58,27,129840,120
55,26,129960,120
51,31,130080,120
55,26,130200,120
58,27,130320,120
55,26,130440,120
51,33,130560,120
55,27,130680,120
58,30,130800,120
55,27,130920,120
51,36,131040,120
53,25,131160,120
56,27,131280,120
53,24,131400,120
51,29,131520,120
53,23,131640,120
56,27,131760,120
53,23,131880,120
51,30,132000,120
53,26,132120,120
56,26,132240,120
53,25,132360,120
51,27,132480,480
55,27,132480,480
55,32,133200,240
56,34,133440,240
57,35,133680,240
58,37,133920,600
59,41,134520,120
60,45,134640,120
58,43,134760,110
58,45,134880,120
56,44,135000,120
55,45,135120,120
53,45,135240,120
51,53,135360,240
55,45,135600,240
58,47,135840,240
63,45,136080,240
68,51,136320,240
67,47,136560,240
68,51,136800,240
65,51,136800,240
67,47,137040,240
63,47,137040,240
62,47,137280,240
65,47,137280,240
58,45,138480,240
62,45,138720,240
65,45,138960,240
67,50,139200,240
70,45,139440,480
68,45,139440,240
67,51,139680,240
65,45,139920,240
68,45,139920,240
63,50,140160,240
67,50,140160,240
39,54,140400,216
51,54,140400,216
39,56,140640,216
51,56,140640,216
39,54,140880,216
51,54,140880,216
63,47,141360,216
55,47,141360,216
55,49,141600,216
63,49,141600,216
55,48,141840,216
63,48,141840,216
55,51,142080,216
63,51,142080,216
55,45,142320,216
63,45,142320,216
55,47,142800,240
63,47,142800,480
56,50,143040,240
63,55,143280,216
56,55,143280,216
56,55,143520,216
63,55,143520,216
56,50,143760,216
63,50,143760,216
55,53,144000,240
63,53,144000,240
56,48,144240,240
63,48,144240,240
46,50,144480,216
55,50,144480,216
46,46,144720,216
55,46,144720,216
46,39,144960,216
56,39,144960,216
46,39,145200,216
56,39,145200,216
51,45,145440,120
55,45,145440,120
51,50,145560,120
55,54,145680,120
58,57,145800,120
56,63,145920,120
58,56,146040,120
55,63,146160,120
58,56,146280,120
53,63,146400,120
58,56,146520,120
51,63,146640,120
58,56,146760,120
50,63,146880,120
53,54,147000,120
56,56,147120,120
55,53,147240,120
53,61,147360,120
51,54,147480,120
50,56,147600,120
48,54,147720,120
46,56,147840,120
48,54,147960,120
44,56,148080,120
46,52,148200,120
43,61,148320,120
46,47,148440,120
51,52,148560,120
46,47,148680,120
55,52,148800,120
51,43,149040,240
55,43,149040,240
53,43,149280,240
56,43,149280,240
55,43,149520,240
58,43,149520,240
56,46,149760,480
60,46,149760,480
44,36,150480,240
53,36,150480,240
46,43,150720,480
55,43,150720,240
56,36,150960,230
51,45,151200,600
56,45,151200,480
55,35,151680,120
63,52,151800,120
67,54,151920,120
70,51,152040,120
68,57,152160,120
67,52,152280,120
65,54,152400,120
63,53,152520,120
62,63,152640,120
65,54,152760,120
68,56,152880,120
67,54,153000,120
65,61,153120,120
63,54,153240,120
62,56,153360,120
60,54,153480,120
58,56,153600,120
60,54,153720,120
56,56,153840,120
58,53,153960,120
55,61,154080,120
58,45,154200,120
60,49,154320,120
62,45,154440,120
63,46,154560,120
63,43,154800,240
67,43,154800,240
65,43,155040,240
68,43,155040,240
67,36,155280,240
70,36,155280,240
68,43,155520,240
72,43,155520,240
62,43,156480,240
58,43,156480,480
68,43,156480,480
65,43,156720,240
63,43,156960,120
67,39,157080,120
70,40,157200,120
67,42,157320,120
63,46,157440,120
67,44,157560,120
70,49,157680,120
67,50,157800,120
68,58,157920,120
65,55,158040,120
70,56,158160,120
68,58,158280,120
67,62,158400,120
70,56,158520,120
67,53,158640,120
65,55,158760,120
63,70,158880,120
61,61,159000,120
58,64,159120,120
55,61,159240,120
56,70,159360,120
53,64,159480,120
58,70,159600,120
46,59,159720,120
51,50,159840,720
56,42,160560,240
55,45,160800,240
53,47,161040,240
52,56,161280,960
48,46,162240,480
49,53,162720,960
60,43,163680,480
56,43,163680,480
58,43,164160,480
61,43,164160,480
60,43,165120,480
70,43,165120,480
65,43,165600,720
70,43,165600,480
68,36,166080,240
41,45,166320,216
41,46,166560,216
41,44,166800,216
41,52,167040,1440
41,42,168480,720
41,45,169200,216
41,46,169440,216
41,45,169680,216
42,54,169920,1440
43,49,171360,720
43,48,172080,216
43,50,172320,216
43,47,172560,216
44,55,172800,960
45,62,173760,480
46,62,174240,480
49,48,174720,480
48,54,175200,480
49,44,175680,480
51,43,176160,480
60,43,176160,480
51,36,176640,480
61,36,176640,480
56,33,177120,120
60,26,177240,120
63,27,177360,120
60,25,177480,120
56,30,177600,120
60,26,177720,120
63,29,177840,120
60,26,177960,120
56,33,178080,120
60,27,178200,120
63,29,178320,120
60,27,178440,120
55,36,178560,120
58,26,178680,120
60,27,178800,120
58,26,178920,120
55,32,179040,120
58,26,179160,120
60,27,179280,120
58,25,179400,120
55,32,179520,120
58,27,179640,120
60,27,179760,120
58,25,179880,120
53,36,180000,120
56,27,180120,120
60,30,180240,120
56,27,180360,120
53,32,180480,120
56,26,180600,120
60,27,180720,120
56,26,180840,120
53,32,180960,120
56,27,181080,120
60,29,181200,120
56,27,181320,120
51,36,181440,120
54,30,181560,120
56,32,181680,120
54,29,181800,120
51,36,181920,120
54,29,182040,120
56,32,182160,120
54,29,182280,120
51,35,182400,120
54,29,182520,120
56,31,182640,120
54,27,182760,120
49,40,182880,120
52,34,183000,120
56,36,183120,120
52,33,183240,120
49,40,183360,120
52,33,183480,120
56,36,183600,120
52,33,183720,120
47,39,183840,120
51,34,183960,120
56,36,184080,120
51,33,184200,120
46,36,184320,720
53,36,184320,720
46,29,185040,240
53,29,185040,240
46,32,185280,240
53,32,185280,240
46,29,185520,240
53,29,185520,240
46,32,185760,480
53,32,185760,480
65,27,186480,216
58,27,186480,216
65,27,186720,216
58,27,186720,216
65,27,186960,216
58,27,186960,216
58,31,187200,480
65,31,187200,480
51,39,188641,960
51,37,190080,120
55,33,190200,120
58,36,190320,120
51,33,190440,120
53,40,190560,120
56,32,190680,120
62,35,190800,120
53,33,190920,120
55,40,191040,120
58,32,191160,120
63,36,191280,120
55,33,191400,120
56,41,191520,1440
60,41,191520,1440
45,44,192960,120
46,46,193080,120
48,49,193200,120
46,45,193320,110
46,45,193440,480
39,45,194400,480
51,45,194400,480
51,53,195360,480
60,53,195360,480
53,51,195840,480
60,51,195840,480
58,46,196320,240
62,46,196320,480
59,40,196560,240
63,47,196800,720
60,47,196800,240
55,45,197040,240
56,50,197280,240
46,51,197760,960
55,51,197760,480
56,37,198240,480
51,30,198720,120
55,26,198840,120
58,27,198960,120
55,27,199080,120
51,30,199200,120
55,27,199320,120
58,29,199440,120
55,27,199560,120
51,33,199680,120
55,27,199800,120
58,29,199920,120
55,27,200040,120
51,36,200160,120
53,27,200280,120
56,30,200400,120
53,27,200520,120
51,32,200640,120
53,27,200760,120
56,27,200880,120
53,26,201000,120
51,32,201120,120
53,27,201240,120
56,27,201360,120
53,27,201480,120
51,33,201600,120
55,26,201720,120
58,27,201840,120
55,26,201960,120
51,31,202080,120
55,26,202200,120
58,27,202320,120
55,26,202440,120
51,33,202560,120
55,27,202680,120
58,30,202800,120
55,27,202920,120
51,36,203040,120
53,25,203160,120
56,27,203280,120
53,24,203400,120
51,29,203520,120
53,23,203640,120
56,27,203760,120
53,23,203880,120
51,30,204000,120
53,26,204120,120
56,26,204240,120
53,25,204360,120
51,27,204480,480
55,27,204480,480
55,32,205200,240
56,34,205440,240
57,35,205680,240
58,37,205920,600
59,41,206520,120
60,45,206640,120
58,43,206760,110
58,45,206880,120
56,44,207000,120
55,45,207120,120
53,45,207240,120
51,53,207360,240
55,45,207600,240
58,47,207840,240
63,45,208080,240
68,51,208320,240
67,47,208560,240
68,51,208800,240
65,51,208800,240
67,47,209040,240
63,47,209040,240
62,47,209280,240
65,47,209280,240
58,45,210480,240
62,45,210720,240
65,45,210960,240
67,50,211200,240
70,45,211440,480
68,45,211440,240
67,51,211680,240
65,45,211920,240
68,45,211920,240
63,50,212160,240
67,50,212160,240
39,54,212400,216
51,54,212400,216
39,56,212640,216
51,56,212640,216
39,54,212880,216
51,54,212880,216
63,47,213360,216
55,47,213360,216
55,49,213600,216
63,49,213600,216
55,48,213840,216
63,48,213840,216
55,51,214080,216
63,51,214080,216
55,45,214320,216
63,45,214320,216
55,47,214800,240
63,47,214800,480
56,50,215040,240
63,55,215280,216
56,55,215280,216
56,55,215520,216
63,55,215520,216
56,50,215760,216
63,50,215760,216
55,53,216000,240
63,53,216000,240
56,48,216240,240
63,48,216240,240
46,50,216480,216
55,50,216480,216
46,46,216720,216
55,46,216720,216
46,39,216960,216
56,39,216960,216
46,39,217200,216
56,39,217200,216
51,45,217440,120
55,45,217440,120
51,50,217560,120
55,54,217680,120
58,57,217800,120
56,63,217920,120
58,56,218040,120
55,63,218160,120
58,56,218280,120
53,63,218400,120
58,56,218520,120
51,63,218640,120
58,56,218760,120
50,63,218880,120
53,54,219000,120
56,56,219120,120
55,53,219240,120
53,61,219360,120
51,54,219480,120
50,56,219600,120
48,54,219720,120
46,56,219840,120
48,54,219960,120
44,56,220080,120
46,52,220200,120
43,61,220320,120
46,47,220440,120
51,52,220560,120
46,47,220680,120
55,52,220800,120
51,43,221040,240
55,43,221040,240
53,43,221280,240
56,43,221280,240
55,43,221520,240
58,43,221520,240
56,46,221760,480
60,46,221760,480
44,36,222480,240
53,36,222480,240
46,43,222720,480
55,43,222720,240
56,36,222960,230
51,45,223200,600
56,45,223200,480
55,35,223680,120
63,52,223800,120
67,54,223920,120
70,51,224040,120
68,57,224160,120
67,52,224280,120
65,54,224400,120
63,53,224520,120
62,63,224640,120
65,54,224760,120
68,56,224880,120
67,54,225000,120
65,61,225120,120
63,54,225240,120
62,56,225360,120
60,54,225480,120
58,56,225600,120
60,54,225720,120
56,56,225840,120
58,53,225960,120
55,61,226080,120
58,45,226200,120
60,49,226320,120
62,45,226440,120
63,46,226560,120
63,43,226800,240
67,43,226800,240
65,43,227040,240
68,43,227040,240
67,36,227280,240
70,36,227280,240
68,43,227520,240
72,43,227520,240
62,43,228480,240
58,43,228480,480
68,43,228480,480
65,43,228720,240
63,43,228960,120
67,39,229080,120
70,40,229200,120
67,42,229320,120
63,46,229440,120
67,44,229560,120
70,49,229680,120
67,50,229800,120
68,58,229920,120
65,55,230040,120
70,56,230160,120
68,58,230280,120
67,62,230400,120
70,56,230520,120
67,53,230640,120
65,55,230760,120
63,70,230880,120
61,61,231000,120
58,64,231120,120
55,61,231240,120
56,70,231360,120
53,64,231480,120
58,70,231600,120
46,59,231720,120
51,46,231840,720
46,36,233040,240
39,27,233280,1200
51,31,233280,1200
