note,velocity,position,duration
79,57,1440,120
77,56,1560,120
75,54,1680,120
74,52,1800,120
72,60,1920,240
70,54,2160,230
70,51,2400,720
74,57,3120,240
79,60,3360,240
74,55,3600,240
77,60,3840,480
75,56,4320,720
77,60,5040,120
79,56,5160,120
77,61,5280,120
75,54,5400,120
74,58,5520,120
72,53,5640,120
70,66,5760,480
69,57,6240,713
69,62,6960,240
70,65,7200,240
72,61,7440,230
69,52,7680,480
72,61,7680,480
70,49,8160,480
74,58,8160,480
77,64,8880,120
76,63,9000,120
79,66,9120,120
77,63,9240,120
75,63,9360,120
74,61,9480,110
74,68,9600,240
72,61,9840,480
70,61,10320,240
74,67,10560,240
72,62,10800,480
69,64,11280,240
70,68,11520,120
72,59,11640,120
70,62,11760,120
69,58,11880,120
70,66,12000,120
72,60,12120,120
74,63,12240,120
75,61,12360,120
76,69,12480,120
77,65,12600,120
76,69,12720,120
77,65,12840,120
79,69,12960,120
77,67,13080,120
75,66,13200,120
74,65,13320,110
74,72,13440,240
72,54,13680,230
72,56,13920,240
70,54,14160,240
74,65,14400,240
72,54,14640,230
72,57,14880,240
69,53,15120,240
70,66,15360,240
72,57,15600,120
74,58,15720,120
75,59,15840,120
77,60,15960,120
79,61,16080,120
81,64,16200,120
82,66,16320,120
84,67,16440,120
86,68,16560,120
87,69,16680,120
89,76,16800,120
89,75,17040,120
77,76,17280,1200
89,76,17280,240
87,74,17520,480
86,73,18000,240
86,75,18240,240
75,64,18480,120
84,64,18480,120
74,72,18720,120
82,72,18720,120
72,64,18960,120
81,64,18960,120
82,76,19200,240
74,76,19200,240
70,72,19680,240
67,52,20640,120
65,49,20760,120
63,52,20880,120
62,50,21000,120
60,56,21120,240
58,53,21360,230
58,53,21600,720
70,63,22320,240
69,58,22560,240
67,56,22800,240
65,64,23040,480
64,51,23520,600
67,52,24120,120
65,56,24240,120
69,52,24360,120
67,56,24480,120
70,53,24600,120
69,56,24720,120
72,53,24840,120
70,56,24960,120
67,58,25080,120
76,61,25200,120
72,62,25320,120
79,64,25440,120
76,67,25560,120
82,70,25680,120
81,69,25800,120
82,71,25920,120
81,67,26040,120
79,69,26160,120
77,65,26280,120
76,66,26400,120
74,65,26520,120
72,64,26640,120
70,63,26760,110
70,69,26880,120
69,56,27000,120
74,64,27120,120
72,54,27240,110
72,54,27360,480
86,69,28320,120
84,66,28440,120
82,69,28560,120
81,66,28680,120
79,72,28800,720
76,63,29520,240
77,66,29760,60
84,70,29880,144
83,70,30000,144
84,67,30120,144
86,73,30240,144
84,68,30360,144
82,71,30480,144
81,68,30600,144
79,81,30720,120
79,75,30960,480
76,64,31440,240
77,63,31680,60
84,70,31800,144
83,69,31920,144
84,68,32040,144
86,75,32160,144
84,69,32280,144
82,71,32400,132
81,67,32520,120
81,73,32640,240
79,70,32880,240
79,72,33360,230
79,78,33600,240
77,72,33840,240
77,72,34320,240
76,73,34560,120
77,66,34680,120
76,68,34800,120
72,65,34920,120
77,75,35040,120
79,68,35160,120
77,68,35280,120
72,65,35400,120
79,80,35520,120
81,68,35640,120
79,72,35760,120
72,67,35880,120
81,81,36000,120
82,74,36120,120
81,76,36240,120
72,69,36360,120
82,85,36480,120
82,83,36720,120
79,77,37200,120
82,81,37440,240
81,71,37680,120
79,76,37920,120
77,73,38160,120
76,78,38400,120
72,72,38520,120
83,72,38640,120
84,68,38760,120
77,80,38880,120
72,73,39000,120
83,73,39120,120
84,69,39240,120
79,81,39360,120
72,76,39480,120
83,76,39600,120
84,73,39720,120
81,84,39840,120
72,76,39960,120
83,76,40080,120
84,75,40200,120
82,89,40320,120
82,84,40560,120
79,69,41040,60
81,66,41100,60
79,69,41160,60
81,67,41220,60
82,79,41280,240
81,76,41520,120
79,76,41760,120
77,75,42000,120
76,79,42240,120
84,71,42360,120
79,72,42480,120
76,70,42600,120
72,76,42720,120
67,69,42840,120
64,71,42960,120
60,70,43080,120
69,70,44160,720
65,70,44160,720
60,70,44160,720
72,70,44160,720
74,48,44880,120
72,48,45000,120
70,52,45120,120
69,48,45360,120
67,48,45600,120
65,48,45840,120
65,54,46080,240
74,50,46310,240
65,72,46560,720
74,72,46560,720
72,53,47280,240
76,56,47520,240
77,53,47760,240
77,61,48000,240
67,53,48240,480
69,53,48720,240
77,61,48960,240
67,53,49200,480
69,53,49680,240
72,58,49920,480
70,52,50400,60
72,48,50460,60
70,52,50520,60
72,48,50580,60
70,52,50640,40
72,48,50680,40
70,48,50720,40
69,52,50760,60
70,49,50820,60
69,57,50880,120
69,53,51120,240
70,56,51360,240
72,53,51600,240
73,65,51840,240
74,54,52080,480
72,54,52560,120
70,50,52680,120
69,54,52800,240
67,53,53040,240
69,54,53280,240
70,52,53520,240
74,63,53760,240
72,53,54000,480
70,54,54480,120
69,52,54600,120
67,56,54720,240
65,54,54960,240
67,54,55200,240
69,54,55440,240
72,63,55680,240
70,51,55920,480
67,51,56400,240
70,62,56640,240
69,52,56880,480
65,52,57360,240
64,61,57600,120
65,53,57720,120
67,53,57840,120
69,50,57960,120
71,59,58080,120
72,54,58200,120
71,54,58320,120
72,51,58440,120
60,56,58560,480
72,71,59520,720
69,71,59520,720
74,51,60240,120
72,51,60360,120
70,57,60480,120
69,50,60720,120
67,50,60960,120
65,50,61200,120
65,54,61440,240
74,50,61680,230
74,71,61920,720
65,71,61920,720
72,53,62640,240
76,66,62880,240
77,63,63120,480
67,53,63600,240
69,53,63840,240
77,69,64080,480
67,53,64560,240
69,53,64800,240
77,69,65040,120
72,54,65280,480
71,53,65760,240
70,53,66000,240
69,48,66240,120
69,54,66480,240
70,60,66720,240
72,64,66960,240
73,75,67200,60
74,70,67260,660
76,70,67920,120
78,67,68040,120
79,70,68160,120
81,67,68280,120
82,70,68400,120
81,67,68520,120
79,70,68640,120
81,67,68760,120
77,70,68880,120
79,67,69000,120
76,71,69120,120
77,66,69240,120
74,71,69360,120
76,67,69480,120
72,70,69600,120
74,65,69720,120
70,68,69840,120
72,61,69960,120
69,66,70080,120
70,64,70200,120
72,68,70320,120
74,64,70440,120
76,71,70560,120
77,68,70680,120
76,71,70800,120
77,68,70920,120
79,72,71040,120
77,70,71160,120
76,69,71280,120
74,67,71400,120
76,72,71520,120
74,70,71640,120
72,69,71760,120
70,67,71880,120
69,71,72000,480
67,58,72480,60
64,58,72480,480
69,51,72540,60
67,58,72600,60
69,52,72660,60
67,58,72720,40
69,53,72760,40
67,53,72800,40
65,66,72840,60
67,62,72900,60
65,75,72960,480
82,96,74880,240
79,62,75120,120
76,66,75360,120
76,62,75600,120
82,96,75840,240
79,59,76080,120
76,63,76320,120
76,60,76560,120
77,62,76800,120
79,63,77040,120
81,64,77280,120
82,66,77520,120
83,93,77760,240
84,75,78000,240
83,93,78240,240
84,75,78480,240
82,95,78720,240
79,62,78960,120
76,67,79200,120
76,62,79440,120
82,97,79680,240
79,59,79920,120
76,65,80160,120
76,60,80400,120
77,62,80640,120
79,63,80880,120
81,64,81120,120
82,66,81360,120
83,93,81600,240
84,75,81840,240
83,93,82080,240
84,75,82320,240
74,78,82560,960
86,78,82560,960
76,64,83520,960
64,64,83520,960
70,71,84480,960
82,71,84480,960
69,66,85440,960
81,66,85440,960
81,75,86400,120
79,68,86520,120
82,72,86640,120
81,68,86760,120
84,72,86880,120
82,71,87000,120
81,71,87120,120
79,69,87240,120
77,72,87360,480
76,63,87840,480
77,45,88560,240
76,49,88800,240
77,45,89040,240
75,45,89520,240
74,50,89760,240
75,46,90000,240
74,54,90480,240
86,67,90720,240
86,63,90960,120
86,61,91440,240
74,51,91680,240
74,47,91920,120
72,49,92400,240
84,62,92640,240
84,57,92880,120
84,56,93360,240
72,48,93600,240
72,45,93840,120
73,46,94080,240
74,50,94320,240
76,54,94560,240
77,49,94800,240
65,45,95040,480
64,42,95520,480
69,42,95520,240
67,42,95760,240
65,45,96000,120
65,47,96240,120
69,45,96360,120
67,47,96480,120
70,45,96600,120
69,47,96720,120
72,45,96840,120
70,48,96960,120
65,52,97200,120
69,48,97320,120
67,52,97440,120
70,48,97560,120
69,52,97680,120
72,48,97800,120
70,52,97920,120
65,48,98160,120
69,50,98280,120
67,52,98400,120
70,53,98520,120
69,54,98640,120
72,57,98760,120
70,58,98880,120
74,60,99000,120
72,61,99120,120
75,63,99240,120
74,64,99360,120
77,65,99480,120
76,67,99600,120
79,69,99720,120
77,70,99840,120
79,72,99960,120
81,75,100080,120
79,75,100200,120
77,73,100320,120
75,72,100440,120
74,71,100560,120
73,70,100680,120
74,72,100800,120
72,69,100920,120
70,71,101040,120
69,68,101160,120
67,70,101280,120
65,67,101400,120
64,69,101520,120
62,65,101640,120
60,68,101760,120
65,65,101880,120
69,68,102000,120
72,65,102120,120
77,72,102240,120
65,59,102480,120
69,59,102480,120
69,64,102720,240
72,64,102720,240
70,60,102960,120
67,60,102960,120
69,61,103200,120
65,61,103200,120
64,58,103440,120
67,58,103440,120
65,61,103680,120
77,47,103920,120
81,45,104040,120
79,47,104160,120
82,45,104280,120
81,47,104400,120
84,45,104520,120
82,48,104640,120
77,54,104880,120
81,50,105000,120
79,54,105120,120
82,51,105240,120
81,54,105360,120
84,50,105480,120
82,54,105600,120
77,55,105840,120
81,56,105960,120
79,58,106080,120
82,59,106200,120
81,61,106320,120
84,63,106440,120
82,64,106560,120
77,67,106680,120
84,68,106800,120
77,69,106920,120
86,70,107040,120
77,72,107160,120
88,74,107280,120
77,75,107400,120
89,78,107520,120
88,78,107640,120
86,77,107760,120
84,75,107880,120
82,74,108000,120
81,73,108120,120
79,72,108240,120
77,71,108360,120
86,79,108480,120
84,75,108600,120
82,78,108720,120
81,77,108840,120
79,75,108960,120
77,71,109080,120
76,73,109200,120
74,70,109320,120
72,78,109440,240
84,75,109680,120
84,78,109920,120
84,77,110160,120
84,75,110400,120
81,72,110520,120
77,70,110640,120
72,70,110760,120
77,75,110880,120
72,73,111000,120
69,70,111120,120
65,70,111240,120
67,51,111360,80
69,46,111440,80
67,51,111520,80
69,46,111600,80
67,51,111680,80
69,46,111760,80
67,51,111840,80
69,46,111920,80
67,51,112000,80
69,46,112080,80
67,51,112160,80
69,46,112240,80
67,51,112320,80
69,46,112400,80
67,51,112480,80
69,48,112560,80
67,51,112640,80
69,47,112720,80
67,51,112800,60
69,48,112860,60
67,51,112920,60
69,47,112980,60
67,51,113040,40
69,48,113080,40
67,48,113120,40
65,62,113160,60
67,58,113220,60
65,71,113280,230
77,54,113520,240
77,53,114000,240
76,51,114240,240
77,58,114480,240
79,60,114720,240
81,66,114960,240
82,70,115200,120
84,68,115320,120
86,72,115440,120
84,67,115560,120
82,70,115680,120
80,67,115800,120
79,68,115920,120
77,65,116040,120
76,67,116160,120
77,68,116280,120
79,69,116400,120
77,68,116520,120
76,67,116640,120
74,65,116760,120
72,64,116880,120
70,63,117000,120
69,62,117120,120
69,49,117360,120
65,53,117840,240
64,49,118080,240
65,49,118320,240
67,49,118560,240
69,49,118800,240
70,52,119040,120
72,52,119280,60
70,49,119340,60
69,52,119400,60
70,49,119460,60
72,58,119520,240
74,59,119760,230
70,50,120000,240
74,50,120000,240
72,46,120240,240
69,46,120240,240
58,33,120720,240
64,33,120720,240
58,45,120960,960
67,45,120960,960
57,34,121920,360
65,34,121920,360
79,57,122400,120
77,56,122520,120
75,54,122640,120
74,52,122760,120
72,60,122880,240
70,54,123120,230
70,51,123360,720
74,57,124080,240
79,60,124320,240
74,55,124560,240
77,60,124800,480
75,56,125280,720
77,60,126000,120
79,56,126120,120
77,61,126240,120
75,54,126360,120
74,58,126480,120
72,53,126600,120
70,66,126720,480
69,57,127200,713
69,62,127920,240
70,65,128160,240
72,61,128400,230
69,52,128640,480
72,61,128640,480
70,49,129120,480
74,58,129120,480
77,64,129840,120
76,63,129960,120
79,66,130080,120
77,63,130200,120
75,63,130320,120
74,61,130440,110
74,68,130560,240
72,61,130800,480
70,61,131280,240
74,67,131520,240
72,62,131760,480
69,64,132240,240
70,68,132480,120
72,59,132600,120
70,62,132720,120
69,58,132840,120
70,66,132960,120
72,60,133080,120
74,63,133200,120
75,61,133320,120
76,69,133440,120
77,65,133560,120
76,69,133680,120
77,65,133800,120
79,69,133920,120
77,67,134040,120
75,66,134160,120
74,65,134280,110
74,72,134400,240
72,54,134640,230
72,56,134880,240
70,54,135120,240
74,65,135360,240
72,54,135600,230
72,57,135840,240
69,53,136080,240
70,66,136320,240
72,57,136560,120
74,58,136680,120
75,59,136800,120
77,60,136920,120
79,61,137040,120
81,64,137160,120
82,66,137280,120
84,67,137400,120
86,68,137520,120
87,69,137640,120
89,76,137760,120
89,75,138000,120
77,76,138240,1200
89,76,138240,240
87,74,138480,480
86,73,138960,240
86,75,139200,240
75,64,139440,120
84,64,139440,120
74,72,139680,120
82,72,139680,120
72,64,139920,120
81,64,139920,120
82,76,140160,240
74,76,140160,240
70,72,140640,240
67,52,141600,120
65,49,141720,120
63,52,141840,120
62,50,141960,120
60,56,142080,240
58,53,142320,230
58,53,142560,720
70,63,143280,240
69,58,143520,240
67,56,143760,240
65,64,144000,480
64,51,144480,600
67,52,145080,120
65,56,145200,120
69,52,145320,120
67,56,145440,120
70,53,145560,120
69,56,145680,120
72,53,145800,120
70,56,145920,120
67,58,146040,120
76,61,146160,120
72,62,146280,120
79,64,146400,120
76,67,146520,120
82,70,146640,120
81,69,146760,120
82,71,146880,120
81,67,147000,120
79,69,147120,120
77,65,147240,120
76,66,147360,120
74,65,147480,120
72,64,147600,120
70,63,147720,110
70,69,147840,120
69,56,147960,120
74,64,148080,120
72,54,148200,110
72,54,148320,480
86,69,149280,120
84,66,149400,120
82,69,149520,120
81,66,149640,120
79,72,149760,720
76,63,150480,240
77,66,150720,60
84,70,150840,144
83,70,150960,144
84,67,151080,144
86,73,151200,144
84,68,151320,144
82,71,151440,144
81,68,151560,144
79,81,151680,120
79,75,151920,480
76,64,152400,240
77,63,152640,60
84,70,152760,144
83,69,152880,144
84,68,153000,144
86,75,153120,144
84,69,153240,144
82,71,153360,132
81,67,153480,110
81,73,153600,240
79,70,153840,240
79,72,154320,230
79,78,154560,240
77,72,154800,240
77,72,155280,240
76,73,155520,120
77,66,155640,120
76,68,155760,120
72,65,155880,120
77,75,156000,120
79,68,156120,120
77,68,156240,120
72,65,156360,120
79,80,156480,120
81,68,156600,120
79,72,156720,120
72,67,156840,120
81,81,156960,120
82,74,157080,120
81,76,157200,120
72,69,157320,120
82,85,157440,120
82,83,157680,120
79,77,158160,120
82,81,158400,240
81,71,158640,120
79,76,158880,120
77,73,159120,120
76,78,159360,120
72,72,159480,120
83,72,159600,120
84,68,159720,120
77,80,159840,120
72,73,159960,120
83,73,160080,120
84,69,160200,120
79,81,160320,120
72,76,160440,120
83,76,160560,120
84,73,160680,120
81,84,160800,120
72,76,160920,120
83,76,161040,120
84,75,161160,120
82,89,161280,120
82,84,161520,120
79,69,162000,60
81,66,162060,60
79,69,162120,60
81,67,162180,60
82,79,162240,240
81,76,162480,120
79,76,162720,120
77,75,162960,120
76,79,163200,120
84,71,163320,120
79,72,163440,120
76,70,163560,120
72,76,163680,120
67,69,163800,120
64,71,163920,120
60,70,164040,120
69,70,165120,720
65,70,165120,720
60,70,165120,720
72,70,165120,720
74,48,165840,120
72,48,165960,120
70,52,166080,120
69,48,166320,120
67,48,166560,120
65,48,166800,120
65,54,167040,240
74,50,167270,240
65,72,167520,720
74,72,167520,720
72,53,168240,240
76,56,168480,240
77,53,168720,240
77,61,168960,240
67,53,169200,480
69,53,169680,240
77,61,169920,240
67,53,170160,480
69,53,170640,240
72,58,170880,480
70,52,171360,60
72,48,171420,60
70,52,171480,60
72,48,171540,60
70,52,171600,40
72,48,171640,40
70,48,171680,40
69,52,171720,60
70,49,171780,60
69,57,171840,120
69,53,172080,240
70,56,172320,240
72,53,172560,240
73,65,172800,240
74,54,173040,480
72,54,173520,120
70,50,173640,120
69,54,173760,240
67,53,174000,240
69,54,174240,240
70,52,174480,240
74,63,174720,240
72,53,174960,480
70,54,175440,120
69,52,175560,120
67,56,175680,240
65,54,175920,240
67,54,176160,240
69,54,176400,240
72,63,176640,240
70,51,176880,480
67,51,177360,240
70,62,177600,240
69,52,177840,480
65,52,178320,240
64,61,178560,120
65,53,178680,120
67,53,178800,120
69,50,178920,120
71,59,179040,120
72,54,179160,120
71,54,179280,120
72,51,179400,120
60,56,179520,480
72,71,180480,720
69,71,180480,720
74,51,181200,120
72,51,181320,120
70,57,181440,120
69,50,181680,120
67,50,181920,120
65,50,182160,120
65,54,182400,240
74,50,182640,230
74,71,182880,720
65,71,182880,720
72,53,183600,240
76,66,183840,240
77,63,184080,480
67,53,184560,240
69,53,184800,240
77,69,185040,480
67,53,185520,240
69,53,185760,240
77,69,186000,120
72,54,186240,480
71,53,186720,240
70,53,186960,240
69,48,187200,120
69,54,187440,240
70,60,187680,240
72,64,187920,240
73,75,188160,60
74,70,188220,660
76,70,188880,120
78,67,189000,120
79,70,189120,120
81,67,189240,120
82,70,189360,120
81,67,189480,120
79,70,189600,120
81,67,189720,120
77,70,189840,120
79,67,189960,120
76,71,190080,120
77,66,190200,120
74,71,190320,120
76,67,190440,120
72,70,190560,120
74,65,190680,120
70,68,190800,120
72,61,190920,120
69,66,191040,120
70,64,191160,120
72,68,191280,120
74,64,191400,120
76,71,191520,120
77,68,191640,120
76,71,191760,120
77,68,191880,120
79,72,192000,120
77,70,192120,120
76,69,192240,120
74,67,192360,120
76,72,192480,120
74,70,192600,120
72,69,192720,120
70,67,192840,120
69,71,192960,480
67,58,193440,60
64,58,193440,480
69,51,193500,60
67,58,193560,60
69,52,193620,60
67,58,193680,40
69,53,193720,40
67,53,193760,40
65,66,193800,60
67,62,193860,60
65,75,193920,480
82,96,195840,240
79,62,196080,120
76,66,196320,120
76,62,196560,120
82,96,196800,240
79,59,197040,120
76,63,197280,120
76,60,197520,120
77,62,197760,120
79,63,198000,120
81,64,198240,120
82,66,198480,120
83,93,198720,240
84,75,198960,240
83,93,199200,240
84,75,199440,240
82,95,199680,240
79,62,199920,120
76,67,200160,120
76,62,200400,120
82,97,200640,240
79,59,200880,120
76,65,201120,120
76,60,201360,120
77,62,201600,120
79,63,201840,120
81,64,202080,120
82,66,202320,120
83,93,202560,240
84,75,202800,240
83,93,203040,240
84,75,203280,240
74,78,203520,960
86,78,203520,960
76,64,204480,960
64,64,204480,960
70,71,205440,960
82,71,205440,960
69,66,206400,960
81,66,206400,960
81,75,207360,120
79,68,207480,120
82,72,207600,120
81,68,207720,120
84,72,207840,120
82,71,207960,120
81,71,208080,120
79,69,208200,120
77,72,208320,480
76,63,208800,480
77,45,209520,240
76,49,209760,240
77,45,210000,240
75,45,210480,240
74,50,210720,240
75,46,210960,240
74,54,211440,240
86,67,211680,240
86,63,211920,120
86,61,212400,240
74,51,212640,240
74,47,212880,120
72,49,213360,240
84,62,213600,240
84,57,213840,120
84,56,214320,240
72,48,214560,240
72,45,214800,120
73,46,215040,240
74,50,215280,240
76,54,215520,240
77,49,215760,240
65,45,216000,480
64,42,216480,480
69,42,216480,240
67,42,216720,240
65,45,216960,120
65,47,217200,120
69,45,217320,120
67,47,217440,120
70,45,217560,120
69,47,217680,120
72,45,217800,120
70,48,217920,120
65,52,218160,120
69,48,218280,120
67,52,218400,120
70,48,218520,120
69,52,218640,120
72,48,218760,120
70,52,218880,120
65,48,219120,120
69,50,219240,120
67,52,219360,120
70,53,219480,120
69,54,219600,120
72,57,219720,120
70,58,219840,120
74,60,219960,120
72,61,220080,120
75,63,220200,120
74,64,220320,120
77,65,220440,120
76,67,220560,120
79,69,220680,120
77,70,220800,120
79,72,220920,120
81,75,221040,120
79,75,221160,120
77,73,221280,120
75,72,221400,120
74,71,221520,120
73,70,221640,120
74,72,221760,120
72,69,221880,120
70,71,222000,120
69,68,222120,120
67,70,222240,120
65,67,222360,120
64,69,222480,120
62,65,222600,120
60,68,222720,120
65,65,222840,120
69,68,222960,120
72,65,223080,120
77,72,223200,120
65,59,223440,120
69,59,223440,120
69,64,223680,240
72,64,223680,240
70,60,223920,120
67,60,223920,120
69,61,224160,120
65,61,224160,120
64,58,224400,120
67,58,224400,120
65,61,224640,120
77,47,224880,120
81,45,225000,120
79,47,225120,120
82,45,225240,120
81,47,225360,120
84,45,225480,120
82,48,225600,120
77,54,225840,120
81,50,225960,120
79,54,226080,120
82,51,226200,120
81,54,226320,120
84,50,226440,120
82,54,226560,120
77,55,226800,120
81,56,226920,120
79,58,227040,120
82,59,227160,120
81,61,227280,120
84,63,227400,120
82,64,227520,120
77,67,227640,120
84,68,227760,120
77,69,227880,120
86,70,228000,120
77,72,228120,120
88,74,228240,120
77,75,228360,120
89,78,228480,120
88,78,228600,120
86,77,228720,120
84,75,228840,120
82,74,228960,120
81,73,229080,120
79,72,229200,120
77,71,229320,120
86,79,229440,120
84,75,229560,120
82,78,229680,120
81,77,229800,120
79,75,229920,120
77,71,230040,120
76,73,230160,120
74,70,230280,120
72,78,230400,240
84,75,230640,120
84,78,230880,120
84,77,231120,120
84,75,231360,120
81,72,231480,120
77,70,231600,120
72,70,231720,120
77,75,231840,120
72,73,231960,120
69,70,232080,120
65,70,232200,120
67,51,232320,80
69,46,232400,80
67,51,232480,80
69,46,232560,80
67,51,232640,80
69,46,232720,80
67,51,232800,80
69,46,232880,80
67,51,232960,80
69,46,233040,80
67,51,233120,80
69,46,233200,80
67,51,233280,80
69,46,233360,80
67,51,233440,80
69,48,233520,80
67,51,233600,80
69,47,233680,80
67,51,233760,60
69,48,233820,60
67,51,233880,60
69,47,233940,60
67,51,234000,40
69,48,234040,40
67,48,234080,40
65,62,234120,60
67,58,234180,60
65,71,234240,230
77,54,234480,240
77,53,234960,240
76,51,235200,240
77,58,235440,240
79,60,235680,240
81,66,235920,240
82,70,236160,120
84,68,236280,120
86,72,236400,120
84,67,236520,120
82,70,236640,120
80,67,236760,120
79,68,236880,120
77,65,237000,120
76,67,237120,120
77,68,237240,120
79,69,237360,120
77,68,237480,120
76,67,237600,120
74,65,237720,120
72,64,237840,120
70,63,237960,120
69,62,238080,120
69,49,238320,120
65,53,238800,240
64,49,239040,240
65,49,239280,240
67,49,239520,240
69,49,239760,240
70,52,240000,120
72,52,240240,60
70,49,240300,60
69,52,240360,60
70,49,240420,60
72,58,240480,240
74,59,240720,230
70,50,240960,240
74,50,240960,240
72,46,241200,240
69,46,241200,240
58,33,241680,240
64,33,241680,240
58,45,241920,960
67,45,241920,960
57,34,242880,360
65,34,242880,360
74,57,243360,120
72,56,243480,120
70,54,243600,120
69,52,243720,120
67,60,243840,240
65,47,244080,230
65,47,244320,720
77,52,245040,240
79,57,245280,240
81,61,245520,240
76,55,245700,60
82,69,245760,360
79,64,246120,120
76,56,246240,480
72,48,247200,120
70,48,247320,120
69,48,247440,120
67,46,247560,120
65,53,247680,240
64,47,247920,230
64,47,248160,720
79,53,248880,240
81,58,249120,240
82,63,249360,240
78,52,249540,60
84,68,249600,360
81,65,249960,120
78,57,250080,480
81,60,250800,240
82,64,251040,240
84,69,251280,240
79,66,251460,60
86,84,251520,360
82,77,251880,120
79,72,252000,240
76,71,252420,60
82,85,252480,360
79,76,252840,120
76,72,252960,240
71,68,253380,60
77,79,253440,360
74,73,253800,120
71,69,253920,480
71,68,254640,230
71,69,254880,230
71,67,255120,230
72,76,255360,120
81,69,255480,120
77,72,255600,120
72,70,255720,120
69,76,255840,120
77,70,255960,120
72,72,256080,120
69,67,256200,113
69,61,256320,240
72,72,256320,240
67,53,256560,240
70,63,256560,240
65,51,256800,120
69,61,256800,120
64,49,257040,120
67,58,257040,120
65,54,257280,480
65,54,258360,120
67,58,258480,120
68,61,258600,120
70,63,258720,120
72,65,258840,120
74,68,258960,120
76,71,259080,120
77,75,259200,120
72,71,259320,120
80,75,259440,120
79,72,259560,120
77,75,259680,120
72,71,259800,120
80,72,259920,120
79,70,260040,120
77,72,260160,144
79,67,260280,144
75,71,260400,144
77,64,260520,144
74,70,260640,144
75,63,260760,144
72,68,260880,144
74,64,261000,144
71,67,261120,240
89,90,261360,480
87,89,261840,480
86,88,262320,480
84,87,262800,480
83,84,263280,480
80,78,263760,480
79,83,264240,480
77,78,264720,230
77,80,264960,240
76,77,265200,240
75,67,265440,480
75,65,266040,144
74,68,266160,144
75,66,266280,144
77,68,266400,144
75,66,266520,144
74,68,266640,144
75,65,266760,144
78,77,266880,360
75,69,267240,110
75,65,267360,60
77,62,267420,60
75,65,267480,60
77,63,267540,60
75,66,267600,40
77,64,267640,40
75,64,267680,40
74,71,267720,60
75,69,267780,60
82,78,267840,360
75,68,268200,110
75,64,268320,60
77,62,268380,60
75,64,268440,60
77,62,268500,60
75,64,268560,40
77,63,268600,40
75,63,268640,40
74,71,268680,60
75,68,268740,60
81,81,268800,120
84,85,269040,120
87,89,269280,600
89,71,269880,144
86,77,270000,144
87,71,270120,144
84,77,270240,144
86,71,270360,144
82,77,270480,144
84,71,270600,144
81,72,270720,144
82,73,270840,144
84,77,270960,144
82,72,271080,144
81,71,271200,144
82,72,271320,144
84,73,271440,144
86,70,271560,144
87,75,271680,144
86,70,271800,144
84,72,271920,144
82,72,272040,144
81,71,272160,144
79,70,272280,144
77,69,272400,144
75,68,272520,109
75,68,272640,60
77,64,272700,60
75,65,272760,40
77,63,272800,40
75,63,272840,40
74,68,272880,240
74,68,273120,720
74,72,273840,240
86,81,274080,240
84,77,274320,480
82,78,274800,480
81,77,275280,360
79,70,275640,144
82,73,275760,144
81,70,275880,144
84,73,276000,144
82,69,276120,144
81,73,276240,144
79,67,276360,144
78,71,276480,60
74,58,276600,120
86,57,276720,120
85,57,276840,120
86,56,276960,120
85,56,277080,120
86,57,277200,120
85,58,277320,120
86,59,277440,120
87,59,277560,120
84,60,277680,120
86,58,277800,120
82,62,277920,120
84,60,278040,120
81,63,278160,120
82,61,278280,120
79,64,278400,144
81,63,278520,144
77,66,278640,144
79,63,278760,144
75,67,278880,144
77,62,279000,144
74,69,279120,144
75,64,279240,144
73,70,279360,120
82,69,279600,240
81,70,279840,240
79,68,280080,240
78,71,280320,60
73,52,280440,120
74,57,280560,120
73,52,280680,120
74,57,280800,120
73,53,280920,120
74,57,281040,120
73,53,281160,120
74,54,281280,120
75,51,281400,120
72,53,281520,120
74,49,281640,120
70,52,281760,120
72,49,281880,120
69,50,282000,120
70,46,282120,120
67,48,282240,144
69,46,282360,144
65,46,282480,144
67,45,282600,144
63,45,282720,144
65,44,282840,144
62,43,282960,144
63,42,283080,144
61,41,283200,120
67,41,283440,240
70,45,283680,240
61,42,283920,240
62,39,284160,120
74,46,284400,120
74,49,284880,240
74,46,285360,240
74,48,285840,240
74,43,286320,240
73,46,286560,240
74,49,286800,240
73,53,287040,240
74,56,287280,240
73,60,287520,240
74,63,287760,240
77,66,288000,480
75,64,288480,480
75,53,289080,120
74,56,289200,120
75,53,289320,120
77,56,289440,120
75,54,289560,120
74,56,289680,120
75,53,289800,120
82,70,289920,480
81,66,290400,480
81,61,291000,120
79,63,291120,120
81,61,291240,120
82,63,291360,120
81,61,291480,120
79,63,291600,120
81,61,291720,120
89,77,291840,480
87,75,292320,480
87,66,292920,120
86,68,293040,120
87,65,293160,120
89,68,293280,120
87,65,293400,120
85,68,293520,120
84,65,293640,120
82,77,293760,480
81,69,294240,480
87,67,294840,144
86,69,294960,144
87,66,295080,144
89,70,295200,144
87,67,295320,144
85,68,295440,144
84,67,295560,120
82,66,295680,144
81,65,295800,144
87,69,295920,144
86,66,296040,144
89,71,296160,144
87,68,296280,144
85,69,296400,144
84,67,296520,144
82,66,296640,144
81,65,296760,144
87,70,296880,144
86,67,297000,144
89,71,297120,144
87,68,297240,144
85,70,297360,144
84,69,297480,120
82,68,297600,144
81,67,297720,144
84,68,297840,144
83,64,297960,144
86,68,298080,144
84,67,298200,144
82,65,298320,144
81,63,298440,144
79,63,298560,144
77,61,298680,144
79,59,298800,144
78,58,298920,144
81,59,299040,144
79,57,299160,144
77,56,299280,144
75,54,299400,120
74,52,299520,240
72,52,299760,240
74,54,300000,120
75,56,300240,120
76,58,300480,120
77,61,300720,120
79,57,300960,120
77,56,301080,120
75,54,301200,120
74,52,301320,120
72,60,301440,240
70,54,301680,230
70,51,301920,720
74,57,302640,240
79,60,302880,240
74,55,303120,240
77,60,303360,480
75,56,303840,720
77,60,304560,120
79,56,304680,120
77,61,304800,120
75,54,304920,120
74,58,305040,120
72,53,305160,120
70,66,305280,480
69,57,305760,713
69,62,306480,240
70,65,306720,240
72,61,306960,230
69,52,307200,480
72,61,307200,480
70,49,307680,480
74,58,307680,480
77,64,308400,120
76,63,308520,120
79,66,308640,120
77,63,308760,120
75,63,308880,120
74,61,309000,110
74,68,309120,240
72,61,309360,480
70,61,309840,240
74,67,310080,240
72,62,310320,480
69,64,310800,240
70,68,311040,120
72,59,311160,120
70,62,311280,120
69,58,311400,120
70,66,311520,120
72,60,311640,120
74,63,311760,120
75,61,311880,120
76,69,312000,120
77,65,312120,120
76,69,312240,120
77,65,312360,120
79,69,312480,120
77,67,312600,120
75,66,312720,120
74,65,312840,110
74,72,312960,240
72,54,313200,230
72,56,313440,240
70,54,313680,240
74,65,313920,240
72,54,314160,230
72,57,314400,240
69,53,314640,240
70,66,314880,240
72,57,315120,120
74,58,315240,120
75,59,315360,120
77,60,315480,120
79,61,315600,120
81,64,315720,120
82,66,315840,120
84,67,315960,120
86,68,316080,120
87,69,316200,120
89,76,316320,120
89,75,316560,120
77,76,316800,1200
89,76,316800,240
87,74,317040,480
86,73,317520,240
86,75,317760,240
75,64,318000,120
84,64,318000,120
74,72,318240,120
82,72,318240,120
72,64,318480,120
81,64,318480,120
82,76,318720,240
74,76,318720,240
70,72,319200,240
67,52,320160,120
65,48,320280,120
63,52,320400,120
62,48,320520,120
60,56,320640,240
58,53,320880,240
58,53,321120,720
70,54,321840,120
70,54,322080,240
72,51,322320,240
70,61,322560,240
69,53,322800,240
68,51,323040,710
68,58,323760,230
68,65,324000,230
68,72,324240,240
80,78,324480,120
82,71,324600,120
79,78,324720,120
80,70,324840,120
77,79,324960,120
79,69,325080,120
75,77,325200,120
77,70,325320,120
74,79,325440,120
75,70,325560,120
72,75,325680,120
74,69,325800,120
70,76,325920,120
72,70,326040,120
68,72,326160,120
70,67,326280,120
68,72,326400,240
67,67,326640,230
67,59,326880,720
79,54,327600,120
79,60,327840,240
77,54,328080,230
77,63,328320,240
76,54,328560,230
76,54,328800,720
85,59,329520,120
85,61,329760,240
76,56,330000,240
79,61,330240,240
77,54,330480,230
77,54,330720,720
78,52,331440,240
79,54,331680,240
75,52,331920,240
73,57,332160,240
74,52,332400,230
74,52,332640,480
77,54,333360,240
79,61,333600,120
77,57,333720,120
75,61,333840,120
74,56,333960,120
72,61,334080,720
69,52,334800,240
70,52,335040,60
77,56,335160,144
76,56,335280,144
77,52,335400,144
79,63,335520,144
77,54,335640,144
75,59,335760,144
74,53,335880,144
72,63,336000,120
72,63,336240,480
69,54,336720,240
70,54,336960,60
77,51,337080,144
76,56,337200,144
77,53,337320,144
79,62,337440,144
77,53,337560,144
75,57,337680,144
74,54,337800,110
74,63,337920,240
72,60,338160,240
72,59,338640,240
72,63,338880,240
70,59,339120,240
70,52,339600,240
69,64,339840,120
70,58,339960,120
69,62,340080,120
65,58,340200,120
70,69,340320,120
72,62,340440,120
70,67,340560,120
65,59,340680,120
72,70,340800,120
74,64,340920,120
72,69,341040,120
65,63,341160,120
74,77,341280,120
75,67,341400,120
74,72,341520,120
65,67,341640,120
75,78,341760,120
75,78,342000,120
72,73,342480,120
75,79,342720,240
74,72,342960,120
72,74,343200,120
70,71,343440,120
69,67,343680,120
65,59,343800,120
76,61,343920,120
77,59,344040,120
70,70,344160,120
65,59,344280,120
76,66,344400,120
77,61,344520,120
72,74,344640,120
65,64,344760,120
76,69,344880,120
77,62,345000,120
74,79,345120,120
65,69,345240,120
76,73,345360,120
77,69,345480,120
75,79,345600,120
75,79,345840,120
72,57,346320,60
74,52,346377,60
72,57,346440,60
74,52,346500,60
75,72,346560,240
74,71,346800,120
72,71,347040,120
70,68,347280,120
69,78,347520,120
77,69,347640,120
72,73,347760,120
69,70,347880,120
65,77,348000,120
60,69,348120,120
57,70,348240,120
53,67,348360,120
53,72,349440,720
58,72,349440,720
62,72,349440,720
65,72,349440,720
67,48,350160,120
65,45,350280,120
63,52,350400,120
62,48,350640,120
60,52,350880,120
58,48,351120,120
58,54,351360,240
67,49,351600,230
58,72,351840,720
67,72,351840,720
65,53,352560,240
69,53,352800,240
70,52,353040,230
70,61,353280,240
60,53,353520,480
62,53,354000,240
70,61,354240,240
60,51,354480,480
62,53,354960,240
65,58,355200,480
63,52,355680,60
65,47,355740,60
63,52,355800,60
65,49,355860,60
63,52,355920,40
65,49,355960,40
63,49,356000,40
62,52,356040,60
63,48,356100,60
62,57,356160,120
62,51,356400,240
63,53,356640,240
65,51,356880,240
66,65,357120,240
67,54,357360,480
65,53,357840,120
63,50,357960,120
62,54,358080,240
60,51,358320,240
62,52,358560,240
63,51,358800,240
67,63,359040,240
65,53,359280,480
63,54,359760,120
62,49,359880,120
60,56,360000,240
58,52,360240,240
60,54,360480,240
62,50,360720,240
65,63,360960,240
63,51,361200,480
60,51,361680,240
63,62,361920,240
62,52,362160,480
58,52,362640,240
57,48,362880,144
58,49,363000,144
59,50,363120,144
60,51,363240,144
61,52,363360,144
62,53,363480,144
63,54,363600,144
64,54,363720,144
65,56,363840,480
65,73,364800,720
70,73,364800,720
74,73,364800,720
77,73,364800,720
79,51,365520,120
77,49,365640,120
75,57,365760,120
74,50,366000,120
72,50,366240,120
70,47,366480,120
70,53,366720,240
79,50,366960,230
70,64,367200,720
79,71,367200,720
77,53,367920,240
81,66,368160,240
82,63,368400,480
72,53,368880,240
74,53,369120,240
82,68,369360,480
72,53,369840,240
74,53,370080,240
82,67,370320,120
77,54,370560,480
76,53,371040,240
75,53,371280,240
74,48,371520,120
74,54,371760,240
75,60,372000,240
77,64,372240,240
79,70,372480,720
81,70,373200,120
83,67,373320,120
84,70,373440,120
86,67,373560,120
87,70,373680,120
86,66,373800,120
84,70,373920,120
86,67,374040,120
82,70,374160,120
84,67,374280,120
81,69,374400,120
82,66,374520,120
79,69,374640,120
81,64,374760,120
77,71,374880,120
79,67,375000,120
75,71,375120,120
77,67,375240,120
74,68,375360,120
75,64,375480,120
77,68,375600,120
79,65,375720,120
81,70,375840,120
82,66,375960,120
81,69,376080,120
82,65,376200,120
84,72,376320,120
82,70,376440,120
81,69,376560,120
79,67,376680,120
81,72,376800,120
79,70,376920,120
77,69,377040,120
75,67,377160,120
74,71,377280,480
72,58,377760,60
69,58,377760,480
74,54,377820,60
72,58,377880,60
74,53,377940,60
72,58,378000,40
74,54,378040,40
72,54,378080,40
70,66,378120,60
72,62,378180,60
70,75,378240,480
75,85,380160,240
72,56,380400,120
69,62,380640,120
69,56,380880,120
75,85,381120,240
72,54,381360,120
69,60,381600,120
69,54,381840,120
70,62,382080,120
72,63,382320,120
74,64,382560,120
75,66,382800,120
76,88,383040,240
77,75,383280,240
76,87,383520,240
77,75,383760,240
87,97,384000,240
75,82,384000,240
84,57,384240,120
72,48,384240,120
81,62,384480,120
69,52,384480,120
81,56,384720,120
69,47,384720,120
87,97,384960,240
75,82,384960,240
84,54,385200,120
72,45,385200,120
81,60,385440,120
69,51,385440,120
81,54,385680,120
69,45,385680,120
82,62,385920,120
70,52,385920,120
84,63,386160,120
72,53,386160,120
86,64,386400,120
74,54,386400,120
87,66,386640,120
75,56,386640,120
88,90,386880,240
76,76,386880,240
89,75,387120,240
77,63,387120,240
88,91,387360,240
76,77,387360,240
89,75,387600,240
77,63,387600,240
67,56,387840,960
79,66,387840,960
57,45,388800,960
69,54,388800,960
75,65,389760,960
87,77,389760,960
74,57,390720,960
86,68,390720,960
86,75,391680,144
84,68,391800,144
87,72,391920,144
86,67,392040,144
89,75,392160,144
87,71,392280,144
86,72,392400,144
84,68,392520,144
82,75,392640,480
81,63,393120,480
82,47,393840,240
81,50,394080,240
82,47,394320,240
80,46,394800,240
79,51,395040,240
80,46,395280,240
79,44,395760,240
78,48,396000,240
79,45,396240,240
79,44,396720,240
91,51,396960,240
91,48,397200,120
91,50,397680,240
77,44,397920,240
77,44,398160,120
77,46,398640,240
86,51,398880,240
86,48,399120,120
86,49,399600,240
75,45,399840,240
75,45,400080,120
75,44,400560,240
84,50,400800,240
84,47,401040,120
84,48,401520,240
74,44,401760,240
74,44,402000,120
74,44,402480,240
82,49,402720,240
82,46,402960,120
82,54,403200,240
72,44,403440,120
82,63,404160,240
74,52,404400,120
82,69,405120,240
75,54,405360,120
82,81,406080,240
76,67,406320,120
82,89,407040,240
77,83,407280,120
82,89,407520,240
78,83,407760,120
82,89,408000,240
79,85,408240,240
87,89,408480,240
81,85,408720,240
86,82,408960,48
87,81,409008,48
86,85,409056,48
87,78,409104,48
86,78,409152,48
89,94,409200,240
82,81,409440,48
84,76,409488,48
82,81,409536,48
84,75,409584,48
82,75,409632,48
86,92,409680,240
79,75,409920,48
81,69,409968,48
79,75,410016,48
81,71,410064,48
79,71,410116,44
82,88,410160,240
72,71,410400,48
74,66,410448,48
72,71,410496,48
74,67,410544,48
72,67,410592,48
75,79,410640,240
65,74,410880,60
77,76,411000,144
79,78,411120,144
77,76,411240,144
75,76,411360,144
74,71,411480,144
72,72,411600,144
70,70,411720,144
72,54,411840,60
74,50,411900,60
72,54,411960,60
74,49,412020,60
72,54,412080,60
74,49,412140,60
72,54,412200,60
74,49,412260,60
72,54,412320,60
74,49,412380,60
72,54,412440,60
74,51,412500,60
72,54,412560,40
74,50,412600,40
72,50,412640,40
70,66,412680,60
72,62,412740,60
70,70,412800,120
58,47,413040,120
62,45,413160,120
60,47,413280,120
63,45,413400,120
62,47,413520,120
65,45,413640,120
63,48,413760,120
58,52,414000,120
62,48,414120,120
60,52,414240,120
63,48,414360,120
62,52,414480,120
65,48,414600,120
63,52,414720,120
58,52,414960,120
62,55,415080,120
60,57,415200,120
63,58,415320,120
62,59,415440,120
65,62,415560,120
63,63,415680,120
67,66,415800,120
65,67,415920,120
68,69,416040,120
67,70,416160,120
70,71,416280,120
69,73,416400,120
72,75,416520,120
70,77,416640,120
72,79,416760,120
74,82,416880,120
72,82,417000,120
70,80,417120,120
68,79,417240,120
67,78,417360,120
66,77,417480,120
67,78,417600,120
72,79,417720,120
75,80,417840,120
74,79,417960,120
72,79,418080,120
70,78,418200,120
69,75,418320,120
67,74,418440,120
65,75,418560,120
70,79,418680,120
74,82,418800,120
77,88,418920,120
82,94,419040,120
70,64,419280,120
74,64,419280,120
74,70,419520,240
77,70,419520,240
72,66,419760,120
75,66,419760,120
70,67,420000,120
74,67,420000,120
69,67,420240,120
72,67,420240,120
70,67,420480,120
70,47,420720,120
74,45,420840,120
72,47,420960,120
75,45,421080,120
74,47,421200,120
77,45,421320,120
75,48,421440,120
82,62,421680,120
86,58,421800,120
84,62,421920,120
87,59,422040,120
86,62,422160,120
89,58,422280,120
87,68,422400,120
70,55,422640,120
74,56,422760,120
72,58,422880,120
75,59,423000,120
74,61,423120,120
77,63,423240,120
75,64,423360,120
70,67,423480,120
77,68,423600,120
70,69,423720,120
79,70,423840,120
70,72,423960,120
81,74,424080,120
70,75,424200,120
82,78,424320,120
84,78,424440,120
86,77,424560,120
84,75,424680,120
82,74,424800,120
80,73,424920,120
79,72,425040,120
78,71,425160,120
79,79,425280,120
77,79,425400,120
75,78,425520,120
74,77,425640,120
72,75,425760,120
70,74,425880,120
69,73,426000,120
67,73,426120,120
65,82,426240,240
89,82,426480,120
89,82,426720,120
89,82,426960,120
89,81,427200,120
86,76,427320,120
82,71,427440,120
77,69,427560,120
82,81,427680,120
77,75,427800,120
74,71,427920,120
70,69,428040,120
72,51,428160,80
74,46,428240,80
72,51,428320,80
74,46,428400,80
72,51,428480,80
74,46,428560,80
72,51,428640,80
74,46,428720,80
72,51,428800,80
74,46,428880,80
72,51,428960,80
74,46,429040,80
72,51,429120,80
74,46,429200,80
72,51,429280,80
74,48,429360,80
72,51,429440,80
74,47,429520,80
72,51,429600,60
74,48,429660,60
72,51,429720,60
74,47,429780,60
72,51,429840,40
74,48,429880,40
72,48,429920,40
70,62,429960,60
72,58,430020,60
70,69,430080,236
82,54,430320,240
82,58,430800,240
81,56,431040,240
82,61,431280,240
84,68,431520,240
86,72,431760,240
87,79,432000,120
86,73,432120,120
87,76,432240,120
86,70,432360,120
87,75,432480,120
85,67,432600,120
84,69,432720,120
82,65,432840,120
81,67,432960,120
82,70,433080,120
84,72,433200,120
82,67,433320,120
81,69,433440,120
79,66,433560,120
77,66,433680,120
75,65,433800,120
74,63,433920,120
74,49,434160,120
70,53,434640,240
69,49,434880,240
70,49,435120,240
72,49,435360,240
74,49,435600,240
75,52,435840,120
77,52,436080,60
75,49,436140,60
74,52,436200,60
75,48,436260,60
77,54,436320,240
79,61,436560,230
75,49,436800,240
79,49,436800,240
74,42,437040,240
77,42,437040,240
63,30,437520,240
69,30,437520,240
63,45,437760,960
72,45,437760,960
62,32,438720,360
70,32,438720,360
74,57,439200,120
72,56,439320,120
70,54,439440,120
69,52,439560,120
67,60,439680,240
65,47,439920,230
65,47,440160,720
77,52,440880,240
79,57,441120,240
81,61,441360,240
76,55,441540,60
82,69,441600,360
79,64,441960,120
76,56,442080,480
72,48,443040,120
70,48,443160,120
69,48,443280,120
67,46,443400,120
65,53,443520,240
64,47,443760,230
64,47,444000,720
79,53,444720,240
81,58,444960,240
82,63,445200,240
78,52,445380,60
84,68,445440,360
81,65,445800,120
78,57,445920,480
81,60,446640,240
82,64,446880,240
84,69,447120,240
79,66,447300,60
86,84,447360,360
82,77,447720,120
79,72,447840,240
76,71,448260,60
82,85,448320,360
79,76,448680,120
76,72,448800,240
71,68,449220,60
77,79,449280,360
74,73,449640,120
71,69,449760,480
71,68,450480,230
71,69,450720,230
71,67,450960,230
72,76,451200,120
81,69,451320,120
77,72,451440,120
72,70,451560,120
69,76,451680,120
77,70,451800,120
72,72,451920,120
69,67,452040,113
69,61,452160,240
72,72,452160,240
67,53,452400,240
70,63,452400,240
65,51,452640,120
69,61,452640,120
64,49,452880,120
67,58,452880,120
65,54,453120,480
65,54,454200,120
67,58,454320,120
68,61,454440,120
70,63,454560,120
72,65,454680,120
74,68,454800,120
76,71,454920,120
77,75,455040,120
72,71,455160,120
80,75,455280,120
79,72,455400,120
77,75,455520,120
72,71,455640,120
80,72,455760,120
79,70,455880,120
77,72,456000,144
79,67,456120,144
75,71,456240,144
77,64,456360,144
74,70,456480,144
75,63,456600,144
72,68,456720,144
74,64,456840,144
71,67,456960,240
89,90,457200,480
87,89,457680,480
86,88,458160,480
84,87,458640,480
83,84,459120,480
80,78,459600,480
79,83,460080,480
77,78,460560,230
77,80,460800,240
76,77,461040,240
75,67,461280,480
75,65,461880,144
74,68,462000,144
75,66,462120,144
77,68,462240,144
75,66,462360,144
74,68,462480,144
75,65,462600,144
78,77,462720,360
75,69,463080,110
75,65,463200,60
77,62,463260,60
75,65,463320,60
77,63,463380,60
75,66,463440,40
77,64,463480,40
75,64,463520,40
74,71,463560,60
75,69,463620,60
82,78,463680,360
75,68,464040,110
75,64,464160,60
77,62,464220,60
75,64,464280,60
77,62,464340,60
75,64,464400,40
77,63,464440,40
75,63,464480,40
74,71,464520,60
75,68,464580,60
81,81,464640,120
84,85,464880,120
87,89,465120,600
89,71,465720,144
86,77,465840,144
87,71,465960,144
84,77,466080,144
86,71,466200,144
82,77,466320,144
84,71,466440,144
81,72,466560,144
82,73,466680,144
84,77,466800,144
82,72,466920,144
81,71,467040,144
82,72,467160,144
84,73,467280,144
86,70,467400,144
87,75,467520,144
86,70,467640,144
84,72,467760,144
82,72,467880,144
81,71,468000,144
79,70,468120,144
77,69,468240,144
75,68,468360,109
75,68,468480,60
77,64,468540,60
75,65,468600,40
77,63,468640,40
75,63,468680,40
74,68,468720,240
74,68,468960,720
74,72,469680,240
86,81,469920,240
84,77,470160,480
82,78,470640,480
81,77,471120,360
79,70,471480,144
82,73,471600,144
81,70,471720,144
84,73,471840,144
82,69,471960,144
81,73,472080,144
79,67,472200,144
78,71,472320,60
74,58,472440,120
86,57,472560,120
85,57,472680,120
86,56,472800,120
85,56,472920,120
86,57,473040,120
85,58,473160,120
86,59,473280,120
87,59,473400,120
84,60,473520,120
86,58,473640,120
82,62,473760,120
84,60,473880,120
81,63,474000,120
82,61,474120,120
79,64,474240,144
81,63,474360,144
77,66,474480,144
79,63,474600,144
75,67,474720,144
77,62,474840,144
74,69,474960,144
75,64,475080,144
73,70,475200,120
82,69,475440,240
81,70,475680,240
79,68,475920,240
78,71,476160,60
73,52,476280,120
74,57,476400,120
73,52,476520,120
74,57,476640,120
73,53,476760,120
74,57,476880,120
73,53,477000,120
74,54,477120,120
75,51,477240,120
72,53,477360,120
74,49,477480,120
70,52,477600,120
72,49,477720,120
69,50,477840,120
70,46,477960,120
67,48,478080,144
69,46,478200,144
65,46,478320,144
67,45,478440,144
63,45,478560,144
65,44,478680,144
62,43,478800,144
63,42,478920,144
61,41,479040,120
67,41,479280,240
70,45,479520,240
61,42,479760,240
62,39,480000,120
74,46,480240,120
74,49,480720,240
74,46,481200,240
74,48,481680,240
74,43,482160,240
73,46,482400,240
74,49,482640,240
73,53,482880,240
74,56,483120,240
73,60,483360,240
74,63,483600,240
77,66,483840,480
75,64,484320,480
75,53,484920,120
74,56,485040,120
75,53,485160,120
77,56,485280,120
75,54,485400,120
74,56,485520,120
75,53,485640,120
82,70,485760,480
81,66,486240,480
81,61,486840,120
79,63,486960,120
81,61,487080,120
82,63,487200,120
81,61,487320,120
79,63,487440,120
81,61,487560,120
89,77,487680,480
87,75,488160,480
87,66,488760,120
86,68,488880,120
87,65,489000,120
89,68,489120,120
87,65,489240,120
85,68,489360,120
84,65,489480,120
82,77,489600,480
81,69,490080,480
87,67,490680,144
86,69,490800,144
87,66,490920,144
89,70,491040,144
87,67,491160,144
85,68,491280,144
84,67,491400,120
82,66,491520,144
81,65,491640,144
87,69,491760,144
86,66,491880,144
89,71,492000,144
87,68,492120,144
85,69,492240,144
84,67,492360,144
82,66,492480,144
81,65,492600,144
87,70,492720,144
86,67,492840,144
89,71,492960,144
87,68,493080,144
85,70,493200,144
84,69,493320,120
82,68,493440,144
81,67,493560,144
84,68,493680,144
83,64,493800,144
86,68,493920,144
84,67,494040,144
82,65,494160,144
81,63,494280,144
79,63,494400,144
77,61,494520,144
79,59,494640,144
78,58,494760,144
81,59,494880,144
79,57,495000,144
77,56,495120,144
75,54,495240,120
74,52,495360,240
72,52,495600,240
74,54,495840,120
75,56,496080,120
76,58,496320,120
77,61,496560,120
79,57,496800,120
77,56,496920,120
75,54,497040,120
74,52,497160,120
72,60,497280,240
70,54,497520,230
70,51,497760,720
74,57,498480,240
79,60,498720,240
74,55,498960,240
77,60,499200,480
75,56,499680,720
77,60,500400,120
79,56,500520,120
77,61,500640,120
75,54,500760,120
74,58,500880,120
72,53,501000,120
70,66,501120,480
69,57,501600,713
69,62,502320,240
70,65,502560,240
72,61,502800,230
69,52,503040,480
72,61,503040,480
70,49,503520,480
74,58,503520,480
77,64,504240,120
76,63,504360,120
79,66,504480,120
77,63,504600,120
75,63,504720,120
74,61,504840,110
74,68,504960,240
72,61,505200,480
70,61,505680,240
74,67,505920,240
72,62,506160,480
69,64,506640,240
70,68,506880,120
72,59,507000,120
70,62,507120,120
69,58,507240,120
70,66,507360,120
72,60,507480,120
74,63,507600,120
75,61,507720,120
76,69,507840,120
77,65,507960,120
76,69,508080,120
77,65,508200,120
79,69,508320,120
77,67,508440,120
75,66,508560,120
74,65,508680,110
74,72,508800,240
72,54,509040,230
72,56,509280,240
70,54,509520,240
74,65,509760,240
72,54,510000,230
72,57,510240,240
69,53,510480,240
70,66,510720,240
72,57,510960,120
74,58,511080,120
75,59,511200,120
77,60,511320,120
79,61,511440,120
81,64,511560,120
82,66,511680,120
84,67,511800,120
86,68,511920,120
87,69,512040,120
89,76,512160,120
89,75,512400,120
77,76,512640,1200
89,76,512640,240
87,74,512880,480
86,73,513360,240
86,75,513600,240
75,64,513840,120
84,64,513840,120
74,72,514080,120
82,72,514080,120
72,64,514320,120
81,64,514320,120
82,76,514560,240
74,76,514560,240
70,72,515040,240
67,52,516000,120
65,48,516120,120
63,52,516240,120
62,48,516360,120
60,56,516480,240
58,53,516720,240
58,53,516960,720
70,54,517680,120
70,54,517920,240
72,51,518160,240
70,61,518400,240
69,53,518640,240
68,51,518880,710
68,58,519600,230
68,65,519840,230
68,72,520080,240
80,78,520320,120
82,71,520440,120
79,78,520560,120
80,70,520680,120
77,79,520800,120
79,69,520920,120
75,77,521040,120
77,70,521160,120
74,79,521280,120
75,70,521400,120
72,75,521520,120
74,69,521640,120
70,76,521760,120
72,70,521880,120
68,72,522000,120
70,67,522120,120
68,72,522240,240
67,67,522480,230
67,59,522720,720
79,54,523440,120
79,60,523680,240
77,54,523920,230
77,63,524160,240
76,54,524400,230
76,54,524640,720
85,59,525360,120
85,61,525600,240
76,56,525840,240
79,61,526080,240
77,54,526320,230
77,54,526560,720
78,52,527280,240
79,54,527520,240
75,52,527760,240
73,57,528000,240
74,52,528240,230
74,52,528480,480
77,54,529200,240
79,61,529440,120
77,57,529560,120
75,61,529680,120
74,56,529800,120
72,61,529920,720
69,52,530640,240
70,52,530880,60
77,56,531000,144
76,56,531120,144
77,52,531240,144
79,63,531360,144
77,54,531480,144
75,59,531600,144
74,53,531720,144
72,63,531840,120
72,63,532080,480
69,54,532560,240
70,54,532800,60
77,51,532920,144
76,56,533040,144
77,53,533160,144
79,62,533280,144
77,53,533400,144
75,57,533520,144
74,54,533640,110
74,63,533760,240
72,60,534000,240
72,59,534480,240
72,63,534720,240
70,59,534960,240
70,52,535440,240
69,64,535680,120
70,58,535800,120
69,62,535920,120
65,58,536040,120
70,69,536160,120
72,62,536280,120
70,67,536400,120
65,59,536520,120
72,70,536640,120
74,64,536760,120
72,69,536880,120
65,63,537000,120
74,77,537120,120
75,67,537240,120
74,72,537360,120
65,67,537480,120
75,78,537600,120
75,78,537840,120
72,73,538320,120
75,79,538560,240
74,72,538800,120
72,74,539040,120
70,71,539280,120
69,67,539520,120
65,59,539640,120
76,61,539760,120
77,59,539880,120
70,70,540000,120
65,59,540120,120
76,66,540240,120
77,61,540360,120
72,74,540480,120
65,64,540600,120
76,69,540720,120
77,62,540840,120
74,79,540960,120
65,69,541080,120
76,73,541200,120
77,69,541320,120
75,79,541440,120
75,79,541680,120
72,57,542160,60
74,52,542217,60
72,57,542280,60
74,52,542340,60
75,72,542400,240
74,71,542640,120
72,71,542880,120
70,68,543120,120
69,78,543360,120
77,69,543480,120
72,73,543600,120
69,70,543720,120
65,77,543840,120
60,69,543960,120
57,70,544080,120
53,67,544200,120
53,72,545280,720
58,72,545280,720
62,72,545280,720
65,72,545280,720
67,48,546000,120
65,45,546120,120
63,52,546240,120
62,48,546480,120
60,52,546720,120
58,48,546960,120
58,54,547200,240
67,49,547440,230
58,72,547680,720
67,72,547680,720
65,53,548400,240
69,53,548640,240
70,52,548880,230
70,61,549120,240
60,53,549360,480
62,53,549840,240
70,61,550080,240
60,51,550320,480
62,53,550800,240
65,58,551040,480
63,52,551520,60
65,47,551580,60
63,52,551640,60
65,49,551700,60
63,52,551760,40
65,49,551800,40
63,49,551840,40
62,52,551880,60
63,48,551940,60
62,57,552000,120
62,51,552240,240
63,53,552480,240
65,51,552720,240
66,65,552960,240
67,54,553200,480
65,53,553680,120
63,50,553800,120
62,54,553920,240
60,51,554160,240
62,52,554400,240
63,51,554640,240
67,63,554880,240
65,53,555120,480
63,54,555600,120
62,49,555720,120
60,56,555840,240
58,52,556080,240
60,54,556320,240
62,50,556560,240
65,63,556800,240
63,51,557040,480
60,51,557520,240
63,62,557760,240
62,52,558000,480
58,52,558480,240
57,48,558720,144
58,49,558840,144
59,50,558960,144
60,51,559080,144
61,52,559200,144
62,53,559320,144
63,54,559440,144
64,54,559560,144
65,56,559680,480
65,73,560640,720
70,73,560640,720
74,73,560640,720
77,73,560640,720
79,51,561360,120
77,49,561480,120
75,57,561600,120
74,50,561840,120
72,50,562080,120
70,47,562320,120
70,53,562560,240
79,50,562800,230
70,64,563040,720
79,71,563040,720
77,53,563760,240
81,66,564000,240
82,63,564240,480
72,53,564720,240
74,53,564960,240
82,68,565200,480
72,53,565680,240
74,53,565920,240
82,67,566160,120
77,54,566400,480
76,53,566880,240
75,53,567120,240
74,48,567360,120
74,54,567600,240
75,60,567840,240
77,64,568080,240
79,70,568320,720
81,70,569040,120
83,67,569160,120
84,70,569280,120
86,67,569400,120
87,70,569520,120
86,66,569640,120
84,70,569760,120
86,67,569880,120
82,70,570000,120
84,67,570120,120
81,69,570240,120
82,66,570360,120
79,69,570480,120
81,64,570600,120
77,71,570720,120
79,67,570840,120
75,71,570960,120
77,67,571080,120
74,68,571200,120
75,64,571320,120
77,68,571440,120
79,65,571560,120
81,70,571680,120
82,66,571800,120
81,69,571920,120
82,65,572040,120
84,72,572160,120
82,70,572280,120
81,69,572400,120
79,67,572520,120
81,72,572640,120
79,70,572760,120
77,69,572880,120
75,67,573000,120
74,71,573120,480
72,58,573600,60
69,58,573600,480
74,54,573660,60
72,58,573720,60
74,53,573780,60
72,58,573840,40
74,54,573880,40
72,54,573920,40
70,66,573960,60
72,62,574020,60
70,75,574080,480
75,85,576000,240
72,56,576240,120
69,62,576480,120
69,56,576720,120
75,85,576960,240
72,54,577200,120
69,60,577440,120
69,54,577680,120
70,62,577920,120
72,63,578160,120
74,64,578400,120
75,66,578640,120
76,88,578880,240
77,75,579120,240
76,87,579360,240
77,75,579600,240
87,97,579840,240
75,82,579840,240
84,57,580080,120
72,48,580080,120
81,62,580320,120
69,52,580320,120
81,56,580560,120
69,47,580560,120
87,97,580800,240
75,82,580800,240
84,54,581040,120
72,45,581040,120
81,60,581280,120
69,51,581280,120
81,54,581520,120
69,45,581520,120
82,62,581760,120
70,52,581760,120
84,63,582000,120
72,53,582000,120
86,64,582240,120
74,54,582240,120
87,66,582480,120
75,56,582480,120
88,90,582720,240
76,76,582720,240
89,75,582960,240
77,63,582960,240
88,91,583200,240
76,77,583200,240
89,75,583440,240
77,63,583440,240
67,56,583680,960
79,66,583680,960
57,45,584640,960
69,54,584640,960
75,65,585600,960
87,77,585600,960
74,57,586560,960
86,68,586560,960
86,75,587520,144
84,68,587640,144
87,72,587760,144
86,67,587880,144
89,75,588000,144
87,71,588120,144
86,72,588240,144
84,68,588360,144
82,75,588480,480
81,63,588960,480
82,47,589680,240
81,50,589920,240
82,47,590160,240
80,46,590640,240
79,51,590880,240
80,46,591120,240
79,44,591600,240
78,48,591840,240
79,45,592080,240
79,44,592560,240
91,51,592800,240
91,48,593040,120
91,50,593520,240
77,44,593760,240
77,44,594000,120
77,46,594480,240
86,51,594720,240
86,48,594960,120
86,49,595440,240
75,45,595680,240
75,45,595920,120
75,44,596400,240
84,50,596640,240
84,47,596880,120
84,48,597360,240
74,44,597600,240
74,44,597840,120
74,44,598320,240
82,49,598560,240
82,46,598800,120
82,54,599040,240
72,44,599280,120
82,63,600000,240
74,52,600240,120
82,69,600960,240
75,54,601200,120
82,81,601920,240
76,67,602160,120
82,89,602880,240
77,83,603120,120
82,89,603360,240
78,83,603600,120
82,89,603840,240
79,85,604080,240
87,89,604320,240
81,85,604560,240
86,82,604800,48
87,81,604848,48
86,85,604896,48
87,78,604944,48
86,78,604992,48
89,94,605040,240
82,81,605280,48
84,76,605328,48
82,81,605376,48
84,75,605424,48
82,75,605472,48
86,92,605520,240
79,75,605760,48
81,69,605808,48
79,75,605856,48
81,71,605904,48
79,71,605956,44
82,88,606000,240
72,71,606240,48
74,66,606288,48
72,71,606336,48
74,67,606384,48
72,67,606432,48
75,79,606480,240
65,74,606720,60
77,76,606840,144
79,78,606960,144
77,76,607080,144
75,76,607200,144
74,71,607320,144
72,72,607440,144
70,70,607560,144
72,54,607680,60
74,50,607740,60
72,54,607800,60
74,49,607860,60
72,54,607920,60
74,49,607980,60
72,54,608040,60
74,49,608100,60
72,54,608160,60
74,49,608220,60
72,54,608280,60
74,51,608340,60
72,54,608400,40
74,50,608440,40
72,50,608480,40
70,66,608520,60
72,62,608580,60
70,70,608640,120
58,47,608880,120
62,45,609000,120
60,47,609120,120
63,45,609240,120
62,47,609360,120
65,45,609480,120
63,48,609600,120
58,52,609840,120
62,48,609960,120
60,52,610080,120
63,48,610200,120
62,52,610320,120
65,48,610440,120
63,52,610560,120
58,52,610800,120
62,55,610920,120
60,57,611040,120
63,58,611160,120
62,59,611280,120
65,62,611400,120
63,63,611520,120
67,66,611640,120
65,67,611760,120
68,69,611880,120
67,70,612000,120
70,71,612120,120
69,73,612240,120
72,75,612360,120
70,77,612480,120
72,79,612600,120
74,82,612720,120
72,82,612840,120
70,80,612960,120
68,79,613080,120
67,78,613200,120
66,77,613320,120
67,78,613440,120
72,79,613560,120
75,80,613680,120
74,79,613800,120
72,79,613920,120
70,78,614040,120
69,75,614160,120
67,74,614280,120
65,75,614400,120
70,79,614520,120
74,82,614640,120
77,88,614760,120
82,94,614880,120
70,64,615120,120
74,64,615120,120
74,70,615360,240
77,70,615360,240
72,66,615600,120
75,66,615600,120
70,67,615840,120
74,67,615840,120
69,67,616080,120
72,67,616080,120
70,67,616320,120
70,47,616560,120
74,45,616680,120
72,47,616800,120
75,45,616920,120
74,47,617040,120
77,45,617160,120
75,48,617280,120
82,62,617520,120
86,58,617640,120
84,62,617760,120
87,59,617880,120
86,62,618000,120
89,58,618120,120
87,68,618240,120
70,55,618480,120
74,56,618600,120
72,58,618720,120
75,59,618840,120
74,61,618960,120
77,63,619080,120
75,64,619200,120
70,67,619320,120
77,68,619440,120
70,69,619560,120
79,70,619680,120
70,72,619800,120
81,74,619920,120
70,75,620040,120
82,78,620160,120
84,78,620280,120
86,77,620400,120
84,75,620520,120
82,74,620640,120
80,73,620760,120
79,72,620880,120
78,71,621000,120
79,79,621120,120
77,79,621240,120
75,78,621360,120
74,77,621480,120
72,75,621600,120
70,74,621720,120
69,73,621840,120
67,73,621960,120
65,82,622080,240
89,82,622320,120
89,82,622560,120
89,82,622800,120
89,81,623040,120
86,76,623160,120
82,71,623280,120
77,69,623400,120
82,81,623520,120
77,75,623640,120
74,71,623760,120
70,69,623880,120
72,51,624000,80
74,46,624080,80
72,51,624160,80
74,46,624240,80
72,51,624320,80
74,46,624400,80
72,51,624480,80
74,46,624560,80
72,51,624640,80
74,46,624720,80
72,51,624800,80
74,46,624880,80
72,51,624960,80
74,46,625040,80
72,51,625120,80
74,48,625200,80
72,51,625280,80
74,47,625360,80
72,51,625440,60
74,48,625500,60
72,51,625560,60
74,47,625620,60
72,51,625680,40
74,48,625720,40
72,48,625760,40
70,62,625800,60
72,58,625860,60
70,69,625920,236
82,54,626160,240
82,58,626640,240
81,56,626880,240
82,61,627120,240
84,68,627360,240
86,72,627600,240
87,79,627840,120
86,73,627960,120
87,76,628080,120
86,70,628200,120
87,75,628320,120
85,67,628440,120
84,69,628560,120
82,65,628680,120
81,67,628800,120
82,70,628920,120
84,72,629040,120
82,67,629160,120
81,69,629280,120
79,66,629400,120
77,66,629520,120
75,65,629640,120
74,63,629760,120
74,49,630000,120
70,53,630480,240
69,49,630720,240
70,49,630960,240
72,49,631200,240
74,49,631440,240
75,52,631680,120
77,52,631920,60
75,49,631980,60
74,52,632040,60
75,48,632100,60
77,54,632160,240
79,61,632400,230
75,49,632640,240
79,49,632640,240
74,42,632880,240
77,42,632880,240
63,30,633360,240
69,30,633360,240
63,45,633600,960
72,45,633600,960
62,32,634560,360
70,32,634560,360
58,37,2160,240
62,37,2400,240
65,33,2640,240
62,36,2880,240
58,33,3120,240
62,41,3360,240
67,38,3600,240
60,34,4080,240
63,39,4320,240
67,36,4560,240
63,44,4800,240
60,37,5040,240
63,38,5280,240
67,34,5520,240
53,35,6000,240
60,35,6240,240
63,34,6480,240
60,47,6720,240
53,36,6960,240
60,43,7200,240
63,36,7440,240
58,42,7920,240
62,42,8160,240
65,36,8400,240
62,45,8640,240
58,42,8880,240
62,42,9120,240
65,39,9360,240
63,45,9600,240
67,37,9840,240
62,40,10080,240
65,35,10320,240
63,45,10560,240
67,35,10800,240
60,38,11040,240
63,32,11280,240
62,42,11520,480
65,42,11520,480
63,47,13440,240
67,36,13680,240
62,40,13920,240
65,33,14160,240
63,47,14400,240
67,37,14640,240
60,39,14880,240
63,32,15120,240
65,47,15360,480
62,47,15360,480
57,61,17280,480
58,55,17760,480
51,63,18240,480
53,57,18720,480
46,52,19440,120
50,55,19680,120
53,50,19920,120
58,61,20160,480
46,34,21360,240
50,37,21600,240
53,35,21840,240
50,43,22080,240
46,39,22320,240
50,39,22560,240
55,35,22800,240
48,36,23280,240
55,39,23520,240
58,35,23760,240
55,42,24000,240
48,34,24240,240
55,38,24480,240
58,34,24720,240
52,39,25200,240
55,43,25440,240
60,46,25680,240
55,49,25920,240
52,47,26160,240
55,50,26400,240
60,54,26640,240
53,42,27120,240
57,41,27360,240
60,34,27600,240
57,37,27840,240
53,34,28080,240
57,36,28320,240
60,32,28560,240
58,47,28800,240
60,32,29040,240
58,37,29280,240
60,31,29520,240
57,50,29760,240
60,41,30000,240
57,44,30240,240
60,41,30480,240
58,49,30720,240
60,36,30960,240
58,42,31200,240
60,36,31440,240
57,53,31680,240
60,45,31920,240
57,46,32160,240
60,44,32400,240
58,51,32640,240
62,46,32880,240
58,51,33120,240
62,46,33360,240
59,50,33600,240
62,46,33840,240
59,52,34080,240
62,48,34320,240
60,59,34560,480
62,61,35040,480
64,63,35520,480
65,65,36000,480
67,65,36480,240
72,53,36720,240
64,60,36960,240
72,53,37200,240
65,59,37440,240
72,50,37680,240
62,56,37920,240
72,52,38160,240
60,60,38400,480
62,62,38880,480
64,65,39360,480
65,68,39840,480
67,66,40320,120
72,44,40440,120
71,47,40560,120
72,44,40680,120
64,57,40800,120
72,45,40920,120
71,48,41040,120
72,44,41160,120
65,57,41280,120
72,44,41400,120
71,46,41520,120
72,44,41640,120
62,56,41760,120
71,45,41880,120
69,45,42000,120
71,43,42120,120
72,56,42240,475
60,56,42240,475
48,73,43200,240
36,73,43200,240
41,66,44160,960
53,66,44160,960
58,68,46560,960
46,68,46560,960
57,44,47520,480
59,38,48000,480
62,38,48000,480
60,38,48480,480
62,38,48960,480
59,38,48960,480
60,40,49440,480
62,39,49920,480
64,35,50400,480
65,35,50880,480
46,45,52080,240
50,46,52320,240
55,45,52560,240
58,52,52800,480
45,44,54000,240
48,44,54240,240
53,42,54480,240
57,52,54720,480
55,44,55680,480
52,41,56160,480
53,43,56640,480
50,42,57120,480
48,44,57600,480
48,53,58560,120
50,49,58680,120
46,54,58800,120
48,49,58920,120
45,54,59040,120
46,49,59160,120
43,56,59280,120
45,49,59400,120
41,66,59520,480
53,46,60000,480
46,59,61920,960
58,59,61920,960
57,43,62880,480
59,43,63360,480
62,43,63360,480
60,43,63840,480
62,43,64320,480
59,43,64320,480
60,43,64800,480
65,43,65280,480
62,43,65280,480
67,43,65760,480
64,43,65760,480
65,46,66240,480
50,54,67440,240
62,61,67680,120
60,53,67920,120
58,60,68160,120
46,53,68400,240
58,61,68640,120
57,53,68880,120
55,57,69120,240
53,53,69360,240
52,53,69600,240
48,53,69840,240
53,60,70080,480
45,56,70560,480
46,59,71040,480
58,53,71520,480
60,54,72000,480
48,53,72480,480
53,53,72960,120
60,46,73080,120
59,49,73200,120
60,46,73320,120
62,53,73440,120
60,46,73560,120
59,49,73680,120
60,46,73800,120
58,53,73920,120
60,50,74040,120
57,53,74160,120
60,49,74280,120
55,53,74400,120
60,50,74520,120
53,53,74640,120
60,50,74760,120
52,48,74880,120
60,42,75000,120
55,42,75120,120
60,40,75240,120
58,48,75360,120
60,42,75480,120
58,42,75600,120
60,41,75720,120
52,47,75840,120
60,43,75960,120
55,43,76080,120
60,42,76200,120
58,48,76320,120
60,42,76440,120
58,42,76560,120
60,42,76680,120
57,44,76800,120
60,45,76920,120
52,45,77040,120
60,45,77160,120
53,46,77280,120
60,47,77400,120
55,48,77520,120
60,49,77640,120
56,53,77760,120
60,48,77880,120
57,53,78000,120
60,46,78120,120
56,53,78240,120
60,46,78360,120
57,53,78480,120
60,47,78600,120
52,48,78720,120
60,38,78840,120
55,42,78960,120
60,39,79080,120
58,48,79200,120
60,39,79320,120
58,42,79440,120
60,40,79560,120
52,47,79680,120
60,41,79800,120
55,43,79920,120
60,40,80040,120
58,48,80160,120
60,38,80280,120
58,42,80400,120
60,40,80520,120
57,44,80640,120
60,43,80760,120
52,45,80880,120
60,45,81000,120
53,46,81120,120
60,45,81240,120
55,48,81360,120
60,47,81480,120
56,53,81600,120
60,48,81720,120
57,53,81840,120
60,46,81960,120
56,53,82080,120
60,46,82200,120
57,53,82320,120
60,47,82440,120
58,36,82800,240
57,38,83040,240
58,36,83280,240
60,34,83760,240
59,38,84000,240
60,33,84240,240
61,34,84720,240
59,36,84960,240
61,34,85200,240
62,38,85680,240
61,40,85920,240
62,38,86160,240
58,54,86880,480
67,54,86880,480
60,54,87360,960
69,54,87360,480
70,45,87840,480
69,40,88320,960
65,34,88320,960
69,36,89280,960
65,30,89280,960
54,30,90240,960
57,30,90240,960
60,36,90240,960
55,30,91200,960
58,36,91200,960
52,29,92160,960
58,35,92160,960
55,29,92160,960
57,35,93120,960
53,29,93120,960
55,32,94560,480
47,32,94560,480
57,36,95040,480
48,36,95040,960
58,35,95520,480
57,43,96000,120
53,43,96000,120
64,35,96480,240
63,35,96720,240
62,43,96960,120
53,43,96960,120
64,35,97440,240
63,35,97680,240
62,42,97920,120
53,42,97920,120
64,43,98400,240
63,43,98640,240
62,47,98880,240
57,44,99120,240
58,46,99360,240
55,44,99600,240
57,52,99840,480
58,49,100800,480
48,48,101760,240
53,44,102000,240
57,44,102240,120
53,41,102480,240
48,49,102720,240
55,43,102960,120
58,45,103200,120
55,43,103440,120
57,51,103680,120
53,51,103680,120
65,35,103920,240
64,35,104160,240
63,32,104400,240
53,43,104640,120
62,43,104640,120
65,32,104880,240
64,35,105120,240
63,33,105360,240
53,42,105600,120
62,42,105600,120
65,35,105840,240
64,43,106080,240
63,43,106320,240
62,47,106560,240
57,44,106800,240
58,46,107040,240
55,44,107280,240
57,62,107520,480
45,62,107520,480
46,63,108480,480
58,63,108480,480
48,48,109440,120
57,40,109560,120
53,44,109680,120
57,41,109800,120
48,48,109920,120
57,40,110040,120
53,44,110160,120
57,40,110280,120
48,48,110400,120
57,42,110520,120
53,46,110640,120
57,42,110760,120
48,48,110880,120
57,43,111000,120
53,46,111120,120
57,43,111240,120
48,48,111360,120
58,40,111480,120
52,43,111600,120
58,40,111720,120
48,48,111840,120
58,42,111960,120
52,43,112080,120
58,42,112200,120
48,48,112320,120
58,41,112440,120
52,43,112560,120
58,41,112680,120
48,48,112800,120
58,42,112920,120
52,45,113040,120
58,42,113160,120
53,51,113280,240
65,44,113520,240
64,44,113760,240
65,44,114000,240
67,45,114240,240
65,48,114480,240
64,51,114720,240
63,54,114960,240
62,59,115200,240
53,45,115440,240
61,53,115680,240
53,45,115920,240
60,52,116160,240
53,44,116400,240
64,50,116640,240
53,44,116880,240
65,53,117120,120
53,41,117360,240
52,41,117600,240
53,41,117840,240
55,45,118080,240
53,43,118320,240
52,43,118560,240
51,43,118800,240
50,45,119040,480
46,35,119520,480
48,35,120000,480
48,35,120480,480
53,37,120960,480
48,28,121440,480
41,28,121920,360
58,37,123120,240
62,37,123360,240
65,33,123600,240
62,36,123840,240
58,33,124080,240
62,41,124320,240
67,38,124560,240
60,34,125040,240
63,39,125280,240
67,36,125520,240
63,44,125760,240
60,37,126000,240
63,38,126240,240
67,34,126480,240
53,35,126960,240
60,35,127200,240
63,34,127440,240
60,47,127680,240
53,36,127920,240
60,43,128160,240
63,36,128400,240
58,42,128880,240
62,42,129120,240
65,36,129360,240
62,45,129600,240
58,42,129840,240
62,42,130080,240
65,39,130320,240
63,45,130560,240
67,37,130800,240
62,40,131040,240
65,35,131280,240
63,45,131520,240
67,35,131760,240
60,38,132000,240
63,32,132240,240
62,42,132480,480
65,42,132480,480
63,47,134400,240
67,36,134640,240
62,40,134880,240
65,33,135120,240
63,47,135360,240
67,37,135600,240
60,39,135840,240
63,32,136080,240
65,47,136320,480
62,47,136320,480
57,61,138240,480
58,55,138720,480
51,63,139200,480
53,57,139680,480
46,52,140400,120
50,55,140640,120
53,50,140880,120
58,61,141120,480
46,34,142320,240
50,37,142560,240
53,35,142800,240
50,43,143040,240
46,39,143280,240
50,39,143520,240
55,35,143760,240
48,36,144240,240
55,39,144480,240
58,35,144720,240
55,42,144960,240
48,34,145200,240
55,38,145440,240
58,34,145680,240
52,39,146160,240
55,43,146400,240
60,46,146640,240
55,49,146880,240
52,47,147120,240
55,50,147360,240
60,54,147600,240
53,42,148080,240
57,41,148320,240
60,34,148560,240
57,37,148800,240
53,34,149040,240
57,36,149280,240
60,32,149520,240
58,47,149760,240
60,32,150000,240
58,37,150240,240
60,31,150480,240
57,50,150720,240
60,41,150960,240
57,44,151200,240
60,41,151440,240
58,49,151680,240
60,36,151920,240
58,42,152160,240
60,36,152400,240
57,53,152640,240
60,45,152880,240
57,46,153120,240
60,44,153360,240
58,51,153600,240
62,46,153840,240
58,51,154080,240
62,46,154320,240
59,50,154560,240
62,46,154800,240
59,52,155040,240
62,48,155280,240
60,59,155520,480
62,61,156000,480
64,63,156480,480
65,65,156960,480
67,65,157440,240
72,53,157680,240
64,60,157920,240
72,53,158160,240
65,59,158400,240
72,50,158640,240
62,56,158880,240
72,52,159120,240
60,60,159360,480
62,62,159840,480
64,65,160320,480
65,68,160800,480
67,66,161280,120
72,44,161400,120
71,47,161520,120
72,44,161640,120
64,57,161760,120
72,45,161880,120
71,48,162000,120
72,44,162120,120
65,57,162240,120
72,44,162360,120
71,46,162480,120
72,44,162600,120
62,56,162720,120
71,45,162840,120
69,45,162960,120
71,43,163080,120
72,56,163200,475
60,56,163200,475
48,73,164160,240
36,73,164160,240
41,66,165120,960
53,66,165120,960
58,68,167520,960
46,68,167520,960
57,44,168480,480
59,38,168960,480
62,38,168960,480
60,38,169440,480
62,38,169920,480
59,38,169920,480
60,40,170400,480
62,39,170880,480
64,35,171360,480
65,35,171840,480
46,45,173040,240
50,46,173280,240
55,45,173520,240
58,52,173760,480
45,44,174960,240
48,44,175200,240
53,42,175440,240
57,52,175680,480
55,44,176640,480
52,41,177120,480
53,43,177600,480
50,42,178080,480
48,44,178560,480
48,53,179520,120
50,49,179640,120
46,54,179760,120
48,49,179880,120
45,54,180000,120
46,49,180120,120
43,56,180240,120
45,49,180360,120
41,66,180480,480
53,46,180960,480
46,59,182880,960
58,59,182880,960
57,43,183840,480
59,43,184320,480
62,43,184320,480
60,43,184800,480
62,43,185280,480
59,43,185280,480
60,43,185760,480
65,43,186240,480
62,43,186240,480
67,43,186720,480
64,43,186720,480
65,46,187200,480
50,54,188400,240
62,61,188640,120
60,53,188880,120
58,60,189120,120
46,53,189360,240
58,61,189600,120
57,53,189840,120
55,57,190080,240
53,53,190320,240
52,53,190560,240
48,53,190800,240
53,60,191040,480
45,56,191520,480
46,59,192000,480
58,53,192480,480
60,54,192960,480
48,53,193440,480
53,53,193920,120
60,46,194040,120
59,49,194160,120
60,46,194280,120
62,53,194400,120
60,46,194520,120
59,49,194640,120
60,46,194760,120
58,53,194880,120
60,50,195000,120
57,53,195120,120
60,49,195240,120
55,53,195360,120
60,50,195480,120
53,53,195600,120
60,50,195720,120
52,48,195840,120
60,42,195960,120
55,42,196080,120
60,40,196200,120
58,48,196320,120
60,42,196440,120
58,42,196560,120
60,41,196680,120
52,47,196800,120
60,43,196920,120
55,43,197040,120
60,42,197160,120
58,48,197280,120
60,42,197400,120
58,42,197520,120
60,42,197640,120
57,44,197760,120
60,45,197880,120
52,45,198000,120
60,45,198120,120
53,46,198240,120
60,47,198360,120
55,48,198480,120
60,49,198600,120
56,53,198720,120
60,48,198840,120
57,53,198960,120
60,46,199080,120
56,53,199200,120
60,46,199320,120
57,53,199440,120
60,47,199560,120
52,48,199680,120
60,38,199800,120
55,42,199920,120
60,39,200040,120
58,48,200160,120
60,39,200280,120
58,42,200400,120
60,40,200520,120
52,47,200640,120
60,41,200760,120
55,43,200880,120
60,40,201000,120
58,48,201120,120
60,38,201240,120
58,42,201360,120
60,40,201480,120
57,44,201600,120
60,43,201720,120
52,45,201840,120
60,45,201960,120
53,46,202080,120
60,45,202200,120
55,48,202320,120
60,47,202440,120
56,53,202560,120
60,48,202680,120
57,53,202800,120
60,46,202920,120
56,53,203040,120
60,46,203160,120
57,53,203280,120
60,47,203400,120
58,36,203760,240
57,38,204000,240
58,36,204240,240
60,34,204720,240
59,38,204960,240
60,33,205200,240
61,34,205680,240
59,36,205920,240
61,34,206160,240
62,38,206640,240
61,40,206880,240
62,38,207120,240
58,54,207840,480
67,54,207840,480
60,54,208320,960
69,54,208320,480
70,45,208800,480
69,40,209280,960
65,34,209280,960
69,36,210240,960
65,30,210240,960
54,30,211200,960
57,30,211200,960
60,36,211200,960
55,30,212160,960
58,36,212160,960
52,29,213120,960
58,35,213120,960
55,29,213120,960
57,35,214080,960
53,29,214080,960
55,32,215520,480
47,32,215520,480
57,36,216000,480
48,36,216000,960
58,35,216480,480
57,43,216960,120
53,43,216960,120
64,35,217440,240
63,35,217680,240
62,43,217920,120
53,43,217920,120
64,35,218400,240
63,35,218640,240
62,42,218880,120
53,42,218880,120
64,43,219360,240
63,43,219600,240
62,47,219840,240
57,44,220080,240
58,46,220320,240
55,44,220560,240
57,52,220800,480
58,49,221760,480
48,48,222720,240
53,44,222960,240
57,44,223200,120
53,41,223440,240
48,49,223680,240
55,43,223920,120
58,45,224160,120
55,43,224400,120
57,51,224640,120
53,51,224640,120
65,35,224880,240
64,35,225120,240
63,32,225360,240
53,43,225600,120
62,43,225600,120
65,32,225840,240
64,35,226080,240
63,33,226320,240
53,42,226560,120
62,42,226560,120
65,35,226800,240
64,43,227040,240
63,43,227280,240
62,47,227520,240
57,44,227760,240
58,46,228000,240
55,44,228240,240
57,62,228480,480
45,62,228480,480
46,63,229440,480
58,63,229440,480
48,48,230400,120
57,40,230520,120
53,44,230640,120
57,41,230760,120
48,48,230880,120
57,40,231000,120
53,44,231120,120
57,40,231240,120
48,48,231360,120
57,42,231480,120
53,46,231600,120
57,42,231720,120
48,48,231840,120
57,43,231960,120
53,46,232080,120
57,43,232200,120
48,48,232320,120
58,40,232440,120
52,43,232560,120
58,40,232680,120
48,48,232800,120
58,42,232920,120
52,43,233040,120
58,42,233160,120
48,48,233280,120
58,41,233400,120
52,43,233520,120
58,41,233640,120
48,48,233760,120
58,42,233880,120
52,45,234000,120
58,42,234120,120
53,51,234240,240
65,44,234480,240
64,44,234720,240
65,44,234960,240
67,45,235200,240
65,48,235440,240
64,51,235680,240
63,54,235920,240
62,59,236160,240
53,45,236400,240
61,53,236640,240
53,45,236880,240
60,52,237120,240
53,44,237360,240
64,50,237600,240
53,44,237840,240
65,53,238080,120
53,41,238320,240
52,41,238560,240
53,41,238800,240
55,45,239040,240
53,43,239280,240
52,43,239520,240
51,43,239760,240
50,45,240000,480
46,35,240480,480
48,35,240960,480
48,35,241440,480
53,37,241920,480
48,28,242400,480
41,28,242880,360
41,33,244080,240
45,35,244320,240
48,33,244560,240
45,38,244800,240
41,32,245040,240
45,34,245280,240
48,32,245520,240
55,32,246000,240
58,35,246240,240
64,33,246480,240
58,34,246720,240
55,30,246960,240
58,34,247200,240
64,30,247440,240
43,32,247920,240
46,35,248160,240
52,32,248400,240
46,39,248640,240
43,33,248880,240
46,35,249120,240
52,33,249360,240
57,33,249840,240
60,35,250080,240
63,34,250320,240
60,37,250560,240
57,32,250800,240
60,34,251040,240
63,34,251280,240
46,41,251760,240
50,47,252000,240
55,44,252240,240
48,46,252720,240
55,49,252960,240
58,46,253200,240
50,48,253680,240
53,50,253920,240
56,45,254160,240
53,52,254400,240
50,49,254640,240
53,53,254880,240
56,50,255120,240
48,63,255360,960
57,63,255360,960
60,48,256320,480
48,45,256800,480
53,41,257280,120
60,34,257400,120
56,37,257520,120
60,34,257640,120
53,41,257760,144
60,34,257880,144
56,37,258000,144
60,34,258120,144
53,46,258240,144
60,36,258360,144
56,41,258480,144
60,37,258600,144
53,49,258720,144
60,39,258840,144
56,44,258960,144
60,39,259080,144
53,49,259200,144
60,43,259320,144
56,45,259440,144
60,43,259560,144
53,49,259680,144
60,43,259800,144
56,45,259920,144
60,43,260040,144
53,48,260160,144
62,39,260280,144
56,45,260400,144
62,40,260520,144
53,47,260640,144
62,40,260760,144
56,45,260880,144
62,40,261000,144
55,54,261120,120
65,46,261240,120
62,48,261360,120
65,45,261480,120
55,54,261600,120
65,45,261720,120
62,48,261840,120
65,45,261960,120
55,54,262080,120
65,46,262200,120
62,48,262320,120
65,45,262440,120
55,52,262560,120
65,45,262680,120
62,48,262800,120
65,45,262920,120
55,53,263040,120
65,45,263160,120
62,48,263280,120
65,45,263400,120
55,53,263520,120
65,45,263640,120
62,48,263760,120
65,45,263880,120
55,53,264000,120
62,46,264120,120
59,48,264240,120
62,45,264360,120
55,53,264480,120
62,45,264600,120
59,48,264720,120
62,45,264840,120
55,48,264960,120
64,39,265080,120
60,44,265200,120
64,39,265320,120
55,48,265440,120
63,41,265560,120
60,44,265680,120
63,41,265800,120
55,48,265920,144
63,40,266040,144
60,44,266160,144
63,38,266280,144
55,48,266400,144
63,40,266520,144
60,45,266640,144
63,40,266760,144
54,54,266880,120
63,40,267000,120
58,44,267120,120
63,41,267240,120
54,49,267360,120
63,42,267480,120
58,45,267600,120
63,40,267720,120
54,54,267840,120
63,42,267960,120
58,45,268080,120
63,42,268200,120
54,48,268320,120
63,40,268440,120
58,45,268560,120
63,40,268680,120
53,49,268800,120
63,40,268920,120
60,45,269040,120
63,41,269160,120
53,50,269280,120
63,42,269400,120
60,45,269520,120
63,40,269640,120
53,50,269760,144
63,43,269880,144
60,48,270000,144
63,43,270120,144
53,54,270240,144
63,45,270360,144
60,48,270480,144
63,45,270600,144
53,54,270720,144
63,45,270840,144
60,48,270960,144
63,44,271080,144
53,54,271200,144
63,45,271320,144
60,48,271440,144
63,44,271560,144
53,52,271680,144
60,44,271800,144
57,48,271920,144
60,44,272040,144
53,53,272160,144
60,44,272280,144
57,47,272400,144
60,44,272520,144
54,44,272640,120
60,39,272760,120
57,40,272880,144
60,35,273000,144
54,44,273120,120
60,33,273240,120
57,39,273360,120
60,34,273480,120
54,44,273600,120
60,33,273720,120
57,39,273840,120
60,33,273960,120
54,44,274080,120
62,35,274200,120
57,39,274320,120
62,34,274440,120
55,48,274560,120
62,39,274680,120
58,44,274800,120
62,39,274920,120
53,48,275040,120
62,38,275160,120
57,44,275280,120
62,38,275400,120
52,48,275520,144
62,38,275640,144
55,44,275760,144
62,37,275880,144
51,48,276000,144
61,38,276120,144
55,44,276240,144
61,39,276360,144
50,38,276480,480
62,38,276480,480
62,45,277920,480
66,45,277920,480
63,45,278400,480
67,45,278400,480
51,54,279840,480
61,54,279840,480
50,49,280320,480
62,49,280320,480
50,45,281760,480
60,45,281760,480
51,42,282240,480
58,42,282240,480
51,32,283680,480
55,32,283680,480
50,24,284160,240
54,24,284160,240
50,27,284640,240
55,27,284640,240
58,27,284640,240
50,28,285120,240
54,28,285120,240
57,28,285120,240
50,32,285600,240
55,32,285600,240
58,32,285600,240
50,34,286080,480
54,34,286080,480
57,34,286080,480
60,30,288240,240
65,30,288240,240
69,34,288240,240
60,33,288480,240
65,33,288480,240
69,37,288480,240
60,36,288720,240
65,36,288720,240
69,40,288720,240
60,39,288960,480
65,39,288960,480
69,44,288960,480
65,32,290160,240
72,32,290160,240
75,36,290160,240
65,36,290400,240
72,36,290400,240
75,40,290400,240
65,39,290640,240
72,39,290640,240
75,44,290640,240
65,42,290880,480
72,42,290880,480
75,47,290880,480
65,47,292080,240
72,45,292320,240
75,45,292560,240
66,47,292800,960
65,38,294000,240
72,41,294240,240
75,37,294480,240
66,49,294720,960
65,46,295680,240
66,52,296160,480
72,52,296160,960
75,52,296160,960
65,49,296640,480
72,53,297120,960
75,53,297120,960
66,53,297120,480
65,50,297600,480
58,37,301680,240
62,37,301920,240
65,33,302160,240
62,36,302400,240
58,33,302640,240
62,41,302880,240
67,38,303120,240
60,34,303600,240
63,39,303840,240
67,36,304080,240
63,44,304320,240
60,37,304560,240
63,38,304800,240
67,34,305040,240
53,35,305520,240
60,35,305760,240
63,34,306000,240
60,47,306240,240
53,36,306480,240
60,43,306720,240
63,36,306960,240
58,42,307440,240
62,42,307680,240
65,36,307920,240
62,45,308160,240
58,42,308400,240
62,42,308640,240
65,39,308880,240
63,45,309120,240
67,37,309360,240
62,40,309600,240
65,35,309840,240
63,45,310080,240
67,35,310320,240
60,38,310560,240
63,32,310800,240
62,42,311040,480
65,42,311040,480
63,47,312960,240
67,36,313200,240
62,40,313440,240
65,33,313680,240
63,47,313920,240
67,37,314160,240
60,39,314400,240
63,32,314640,240
65,47,314880,480
62,47,314880,480
57,61,316800,480
58,55,317280,480
51,63,317760,480
53,57,318240,480
46,52,318960,120
50,55,319200,120
53,50,319440,120
58,61,319680,480
46,34,320880,240
50,37,321120,240
53,34,321360,240
50,43,321600,240
46,35,321840,240
50,39,322080,240
53,39,322320,240
46,37,322800,240
50,41,323040,240
53,37,323280,240
50,43,323520,240
46,38,323760,240
50,38,324000,240
53,34,324240,240
46,47,324720,240
50,47,324960,240
53,45,325200,240
56,53,325440,240
53,45,325680,240
50,48,325920,240
46,45,326160,240
47,36,326640,240
50,36,326880,240
53,36,327120,240
55,41,327360,240
53,33,327600,240
50,34,327840,240
47,32,328080,240
58,33,328560,240
61,36,328800,240
64,32,329040,240
67,40,329280,480
57,34,330480,240
60,34,330720,240
65,32,330960,240
69,39,331200,480
58,32,332400,240
62,34,332640,240
65,30,332880,240
70,38,333120,480
63,42,334080,240
67,38,334320,240
63,42,334560,240
65,38,334800,240
62,41,335040,240
65,38,335280,240
62,41,335520,240
65,38,335760,240
63,41,336000,240
65,38,336240,240
63,41,336480,240
65,38,336720,240
62,41,336960,240
65,38,337200,240
62,41,337440,240
65,38,337680,240
63,41,337920,240
67,38,338160,240
63,41,338400,240
67,38,338640,240
64,41,338880,240
67,38,339120,240
64,41,339360,240
67,38,339600,240
53,41,339840,480
55,47,340320,480
57,52,340800,480
58,58,341280,480
60,64,341760,240
65,45,342000,240
57,51,342240,240
65,46,342480,240
58,52,342720,240
65,46,342960,240
55,52,343200,240
65,46,343440,240
53,40,343680,480
55,46,344160,480
57,51,344640,480
58,58,345120,480
60,64,345600,120
65,45,345720,120
64,49,345840,120
65,45,345960,120
57,56,346080,120
65,46,346200,120
64,49,346320,120
65,46,346440,120
58,56,346560,120
65,46,346680,120
64,49,346800,120
65,47,346920,120
55,57,347040,120
64,45,347160,120
62,49,347280,120
64,46,347400,120
53,59,347520,475
65,59,347520,475
29,75,348480,240
41,75,348480,240
34,58,349440,960
46,58,349440,960
39,57,351840,960
51,57,351840,960
50,44,352800,480
52,38,353280,480
55,38,353280,480
53,38,353760,480
55,38,354240,480
52,38,354240,480
53,40,354720,480
55,39,355200,480
57,35,355680,480
58,35,356160,480
39,46,357360,240
43,46,357600,240
48,45,357840,240
51,52,358080,480
38,44,359280,240
41,44,359520,240
46,43,359760,240
50,52,360000,480
48,44,360960,480
45,41,361440,480
46,43,361920,480
43,42,362400,480
41,44,362880,480
53,53,363840,120
55,49,363960,120
51,54,364080,120
53,49,364200,120
50,54,364320,120
51,49,364440,120
48,56,364560,120
50,49,364680,120
46,69,364800,480
58,58,365280,480
51,59,367200,960
63,59,367200,960
62,43,368160,480
64,43,368640,480
67,43,368640,480
65,43,369120,480
64,43,369600,480
67,43,369600,480
65,41,370080,480
67,43,370560,480
70,43,370560,480
69,43,371040,480
72,43,371040,480
70,46,371520,480
55,54,372720,240
67,61,372960,120
65,53,373200,120
63,60,373440,120
51,53,373680,240
63,61,373920,120
62,53,374160,120
60,57,374400,240
58,53,374640,240
57,53,374880,240
53,53,375120,240
58,60,375360,480
50,54,375840,480
51,59,376320,480
63,53,376800,480
65,54,377280,480
53,53,377760,480
58,53,378240,120
65,46,378360,120
64,49,378480,120
65,46,378600,120
67,53,378720,120
65,47,378840,120
64,49,378960,120
65,46,379080,120
63,53,379200,120
65,51,379320,120
62,53,379440,120
65,49,379560,120
60,53,379680,120
65,50,379800,120
58,53,379920,120
65,50,380040,120
57,48,380160,120
65,40,380280,120
60,42,380400,120
65,38,380520,120
63,48,380640,120
65,40,380760,120
63,42,380880,120
65,39,381000,120
57,47,381120,120
65,40,381240,120
60,43,381360,120
65,40,381480,120
63,48,381600,120
65,42,381720,120
63,42,381840,120
65,42,381960,120
62,44,382080,120
65,45,382200,120
57,45,382320,120
65,45,382440,120
58,46,382560,120
65,47,382680,120
60,48,382800,120
65,49,382920,120
61,53,383040,120
65,48,383160,120
62,53,383280,120
65,46,383400,120
61,53,383520,120
65,46,383640,120
62,53,383760,120
65,47,383880,120
57,48,384000,120
65,39,384120,120
60,42,384240,120
65,39,384360,120
63,48,384480,120
65,40,384600,120
63,42,384720,120
65,39,384840,120
57,47,384960,120
65,39,385080,120
60,43,385200,120
65,39,385320,120
63,48,385440,120
65,42,385560,120
63,42,385680,120
65,42,385800,120
62,44,385920,120
65,45,386040,120
57,45,386160,120
65,45,386280,120
58,46,386400,120
65,47,386520,120
60,48,386640,120
65,49,386760,120
61,53,386880,120
65,48,387000,120
62,53,387120,120
65,46,387240,120
61,53,387360,120
65,46,387480,120
62,53,387600,120
65,47,387720,120
51,38,388080,240
50,40,388320,240
51,38,388560,240
53,38,389040,240
52,40,389280,240
53,38,389520,240
54,38,390000,240
52,42,390240,240
54,38,390480,240
55,40,390960,240
54,42,391200,240
55,39,391440,240
63,54,392160,480
72,54,392160,480
65,54,392640,960
74,54,392640,480
75,45,393120,480
70,34,393600,960
74,41,393600,960
70,28,394560,960
74,34,394560,960
71,29,395520,960
74,29,395520,960
77,35,395520,960
72,28,396480,960
75,34,396480,960
69,29,397440,960
72,29,397440,960
75,35,397440,960
70,28,398400,960
74,33,398400,960
67,29,399360,960
70,29,399360,960
74,35,399360,960
69,28,400320,960
72,33,400320,960
66,28,401280,960
69,28,401280,960
72,33,401280,960
67,28,402240,960
70,34,402240,960
64,30,403440,239
70,36,403440,239
64,35,403680,240
70,42,403680,239
64,32,403920,240
70,38,403920,240
65,34,404400,240
70,41,404400,240
65,39,404640,240
70,46,404640,240
65,37,404880,240
70,44,404880,240
67,39,405360,240
70,46,405360,240
67,45,405600,240
70,53,405600,240
67,42,405840,240
70,50,405840,240
66,53,406320,240
70,63,406320,240
66,58,406560,240
70,69,406560,240
66,54,406800,240
70,64,406800,240
65,53,407040,480
70,63,407040,480
62,53,407520,480
70,63,407520,480
63,53,408000,480
70,63,408000,480
60,53,408480,480
65,63,408480,480
58,51,408960,480
65,60,408960,480
50,43,409440,480
53,51,409440,480
51,42,409920,480
58,50,409920,480
51,39,410400,480
55,46,410400,480
58,46,411360,960
50,46,411360,480
51,46,411840,480
57,46,412320,480
53,46,412320,480
46,52,412800,120
58,52,412800,120
57,35,413280,240
56,33,413520,240
46,43,413760,120
55,43,413760,120
57,35,414240,240
56,33,414480,240
46,42,414720,120
55,42,414720,120
57,47,415200,240
56,47,415440,240
55,51,415680,240
50,50,415920,240
51,50,416160,240
48,50,416400,240
50,57,416640,480
51,53,417600,480
53,52,418560,240
58,48,418800,240
62,48,419040,240
58,48,419280,240
53,53,419520,240
60,49,419760,240
63,49,420000,240
60,48,420240,240
58,56,420480,120
62,56,420480,120
69,35,420960,240
68,35,421200,240
58,43,421440,120
67,43,421440,120
70,35,421680,240
69,35,421920,240
68,35,422160,240
58,46,422400,120
67,46,422400,120
70,38,422640,240
69,47,422880,240
68,47,423120,240
67,51,423360,240
62,49,423600,240
63,50,423840,240
60,50,424080,240
50,68,424320,480
62,68,424320,480
63,69,425280,480
51,69,425280,480
53,48,426240,120
62,41,426360,120
58,44,426480,120
62,39,426600,120
53,48,426720,120
62,40,426840,120
58,44,426960,120
62,41,427080,120
53,48,427200,120
62,42,427320,120
58,46,427440,120
62,42,427560,120
53,48,427680,120
62,44,427800,120
58,46,427920,120
62,43,428040,120
53,48,428160,120
63,40,428280,120
57,43,428400,120
63,40,428520,120
53,48,428640,120
63,39,428760,120
57,43,428880,120
63,39,429000,120
53,48,429120,120
63,39,429240,120
57,43,429360,120
63,38,429480,120
53,48,429600,120
63,42,429720,120
57,45,429840,120
63,40,429960,120
58,51,430080,240
70,44,430320,240
69,44,430560,240
70,48,430800,240
72,49,431040,240
70,52,431280,240
69,56,431520,240
68,59,431760,240
67,64,432000,240
58,49,432240,240
66,58,432480,240
58,49,432720,240
65,57,432960,240
58,48,433200,240
69,55,433440,240
58,48,433680,240
70,53,433920,120
58,41,434160,240
57,41,434400,240
58,37,434640,240
60,45,434880,240
58,43,435120,240
57,43,435360,240
56,38,435600,240
55,45,435840,480
51,35,436320,480
53,35,436800,480
53,35,437280,480
58,37,437760,480
53,28,438240,480
46,28,438720,360
41,33,439920,240
45,35,440160,240
48,33,440400,240
45,38,440640,240
41,32,440880,240
45,34,441120,240
48,32,441360,240
55,32,441840,240
58,35,442080,240
64,33,442320,240
58,34,442560,240
55,30,442800,240
58,34,443040,240
64,30,443280,240
43,32,443760,240
46,35,444000,240
52,32,444240,240
46,39,444480,240
43,33,444720,240
46,35,444960,240
52,33,445200,240
57,33,445680,240
60,35,445920,240
63,34,446160,240
60,37,446400,240
57,32,446640,240
60,34,446880,240
63,34,447120,240
46,41,447600,240
50,47,447840,240
55,44,448080,240
48,46,448560,240
55,49,448800,240
58,46,449040,240
50,48,449520,240
53,50,449760,240
56,45,450000,240
53,52,450240,240
50,49,450480,240
53,53,450720,240
56,50,450960,240
48,63,451200,960
57,63,451200,960
60,48,452160,480
48,45,452640,480
53,41,453120,120
60,34,453240,120
56,37,453360,120
60,34,453480,120
53,41,453600,144
60,34,453720,144
56,37,453840,144
60,34,453960,144
53,46,454080,144
60,36,454200,144
56,41,454320,144
60,37,454440,144
53,49,454560,144
60,39,454680,144
56,44,454800,144
60,39,454920,144
53,49,455040,144
60,43,455160,144
56,45,455280,144
60,43,455400,144
53,49,455520,144
60,43,455640,144
56,45,455760,144
60,43,455880,144
53,48,456000,144
62,39,456120,144
56,45,456240,144
62,40,456360,144
53,47,456480,144
62,40,456600,144
56,45,456720,144
62,40,456840,144
55,54,456960,120
65,46,457080,120
62,48,457200,120
65,45,457320,120
55,54,457440,120
65,45,457560,120
62,48,457680,120
65,45,457800,120
55,54,457920,120
65,46,458040,120
62,48,458160,120
65,45,458280,120
55,52,458400,120
65,45,458520,120
62,48,458640,120
65,45,458760,120
55,53,458880,120
65,45,459000,120
62,48,459120,120
65,45,459240,120
55,53,459360,120
65,45,459480,120
62,48,459600,120
65,45,459720,120
55,53,459840,120
62,46,459960,120
59,48,460080,120
62,45,460200,120
55,53,460320,120
62,45,460440,120
59,48,460560,120
62,45,460680,120
55,48,460800,120
64,39,460920,120
60,44,461040,120
64,39,461160,120
55,48,461280,120
63,41,461400,120
60,44,461520,120
63,41,461640,120
55,48,461760,144
63,40,461880,144
60,44,462000,144
63,38,462120,144
55,48,462240,144
63,40,462360,144
60,45,462480,144
63,40,462600,144
54,54,462720,120
63,40,462840,120
58,44,462960,120
63,41,463080,120
54,49,463200,120
63,42,463320,120
58,45,463440,120
63,40,463560,120
54,54,463680,120
63,42,463800,120
58,45,463920,120
63,42,464040,120
54,48,464160,120
63,40,464280,120
58,45,464400,120
63,40,464520,120
53,49,464640,120
63,40,464760,120
60,45,464880,120
63,41,465000,120
53,50,465120,120
63,42,465240,120
60,45,465360,120
63,40,465480,120
53,50,465600,144
63,43,465720,144
60,48,465840,144
63,43,465960,144
53,54,466080,144
63,45,466200,144
60,48,466320,144
63,45,466440,144
53,54,466560,144
63,45,466680,144
60,48,466800,144
63,44,466920,144
53,54,467040,144
63,45,467160,144
60,48,467280,144
63,44,467400,144
53,52,467520,144
60,44,467640,144
57,48,467760,144
60,44,467880,144
53,53,468000,144
60,44,468120,144
57,47,468240,144
60,44,468360,144
54,44,468480,120
60,39,468600,120
57,40,468720,144
60,35,468840,144
54,44,468960,120
60,33,469080,120
57,39,469200,120
60,34,469320,120
54,44,469440,120
60,33,469560,120
57,39,469680,120
60,33,469800,120
54,44,469920,120
62,35,470040,120
57,39,470160,120
62,34,470280,120
55,48,470400,120
62,39,470520,120
58,44,470640,120
62,39,470760,120
53,48,470880,120
62,38,471000,120
57,44,471120,120
62,38,471240,120
52,48,471360,144
62,38,471480,144
55,44,471600,144
62,37,471720,144
51,48,471840,144
61,38,471960,144
55,44,472080,144
61,39,472200,144
50,38,472320,480
62,38,472320,480
62,45,473760,480
66,45,473760,480
63,45,474240,480
67,45,474240,480
51,54,475680,480
61,54,475680,480
50,49,476160,480
62,49,476160,480
50,45,477600,480
60,45,477600,480
51,42,478080,480
58,42,478080,480
51,32,479520,480
55,32,479520,480
50,24,480000,240
54,24,480000,240
50,27,480480,240
55,27,480480,240
58,27,480480,240
50,28,480960,240
54,28,480960,240
57,28,480960,240
50,32,481440,240
55,32,481440,240
58,32,481440,240
50,34,481920,480
54,34,481920,480
57,34,481920,480
60,30,484080,240
65,30,484080,240
69,34,484080,240
60,33,484320,240
65,33,484320,240
69,37,484320,240
60,36,484560,240
65,36,484560,240
69,40,484560,240
60,39,484800,480
65,39,484800,480
69,44,484800,480
65,32,486000,240
72,32,486000,240
75,36,486000,240
65,36,486240,240
72,36,486240,240
75,40,486240,240
65,39,486480,240
72,39,486480,240
75,44,486480,240
65,42,486720,480
72,42,486720,480
75,47,486720,480
65,47,487920,240
72,45,488160,240
75,45,488400,240
66,47,488640,960
65,38,489840,240
72,41,490080,240
75,37,490320,240
66,49,490560,960
65,46,491520,240
66,52,492000,480
72,52,492000,960
75,52,492000,960
65,49,492480,480
72,53,492960,960
75,53,492960,960
66,53,492960,480
65,50,493440,480
58,37,497520,240
62,37,497760,240
65,33,498000,240
62,36,498240,240
58,33,498480,240
62,41,498720,240
67,38,498960,240
60,34,499440,240
63,39,499680,240
67,36,499920,240
63,44,500160,240
60,37,500400,240
63,38,500640,240
67,34,500880,240
53,35,501360,240
60,35,501600,240
63,34,501840,240
60,47,502080,240
53,36,502320,240
60,43,502560,240
63,36,502800,240
58,42,503280,240
62,42,503520,240
65,36,503760,240
62,45,504000,240
58,42,504240,240
62,42,504480,240
65,39,504720,240
63,45,504960,240
67,37,505200,240
62,40,505440,240
65,35,505680,240
63,45,505920,240
67,35,506160,240
60,38,506400,240
63,32,506640,240
62,42,506880,480
65,42,506880,480
63,47,508800,240
67,36,509040,240
62,40,509280,240
65,33,509520,240
63,47,509760,240
67,37,510000,240
60,39,510240,240
63,32,510480,240
65,47,510720,480
62,47,510720,480
57,61,512640,480
58,55,513120,480
51,63,513600,480
53,57,514080,480
46,52,514800,120
50,55,515040,120
53,50,515280,120
58,61,515520,480
46,34,516720,240
50,37,516960,240
53,34,517200,240
50,43,517440,240
46,35,517680,240
50,39,517920,240
53,39,518160,240
46,37,518640,240
50,41,518880,240
53,37,519120,240
50,43,519360,240
46,38,519600,240
50,38,519840,240
53,34,520080,240
46,47,520560,240
50,47,520800,240
53,45,521040,240
56,53,521280,240
53,45,521520,240
50,48,521760,240
46,45,522000,240
47,36,522480,240
50,36,522720,240
53,36,522960,240
55,41,523200,240
53,33,523440,240
50,34,523680,240
47,32,523920,240
58,33,524400,240
61,36,524640,240
64,32,524880,240
67,40,525120,480
57,34,526320,240
60,34,526560,240
65,32,526800,240
69,39,527040,480
58,32,528240,240
62,34,528480,240
65,30,528720,240
70,38,528960,480
63,42,529920,240
67,38,530160,240
63,42,530400,240
65,38,530640,240
62,41,530880,240
65,38,531120,240
62,41,531360,240
65,38,531600,240
63,41,531840,240
65,38,532080,240
63,41,532320,240
65,38,532560,240
62,41,532800,240
65,38,533040,240
62,41,533280,240
65,38,533520,240
63,41,533760,240
67,38,534000,240
63,41,534240,240
67,38,534480,240
64,41,534720,240
67,38,534960,240
64,41,535200,240
67,38,535440,240
53,41,535680,480
55,47,536160,480
57,52,536640,480
58,58,537120,480
60,64,537600,240
65,45,537840,240
57,51,538080,240
65,46,538320,240
58,52,538560,240
65,46,538800,240
55,52,539040,240
65,46,539280,240
53,40,539520,480
55,46,540000,480
57,51,540480,480
58,58,540960,480
60,64,541440,120
65,45,541560,120
64,49,541680,120
65,45,541800,120
57,56,541920,120
65,46,542040,120
64,49,542160,120
65,46,542280,120
58,56,542400,120
65,46,542520,120
64,49,542640,120
65,47,542760,120
55,57,542880,120
64,45,543000,120
62,49,543120,120
64,46,543240,120
53,59,543360,475
65,59,543360,475
29,75,544320,240
41,75,544320,240
34,58,545280,960
46,58,545280,960
39,57,547680,960
51,57,547680,960
50,44,548640,480
52,38,549120,480
55,38,549120,480
53,38,549600,480
55,38,550080,480
52,38,550080,480
53,40,550560,480
55,39,551040,480
57,35,551520,480
58,35,552000,480
39,46,553200,240
43,46,553440,240
48,45,553680,240
51,52,553920,480
38,44,555120,240
41,44,555360,240
46,43,555600,240
50,52,555840,480
48,44,556800,480
45,41,557280,480
46,43,557760,480
43,42,558240,480
41,44,558720,480
53,53,559680,120
55,49,559800,120
51,54,559920,120
53,49,560040,120
50,54,560160,120
51,49,560280,120
48,56,560400,120
50,49,560520,120
46,69,560640,480
58,58,561120,480
51,59,563040,960
63,59,563040,960
62,43,564000,480
64,43,564480,480
67,43,564480,480
65,43,564960,480
64,43,565440,480
67,43,565440,480
65,41,565920,480
67,43,566400,480
70,43,566400,480
69,43,566880,480
72,43,566880,480
70,46,567360,480
55,54,568560,240
67,61,568800,120
65,53,569040,120
63,60,569280,120
51,53,569520,240
63,61,569760,120
62,53,570000,120
60,57,570240,240
58,53,570480,240
57,53,570720,240
53,53,570960,240
58,60,571200,480
50,54,571680,480
51,59,572160,480
63,53,572640,480
65,54,573120,480
53,53,573600,480
58,53,574080,120
65,46,574200,120
64,49,574320,120
65,46,574440,120
67,53,574560,120
65,47,574680,120
64,49,574800,120
65,46,574920,120
63,53,575040,120
65,51,575160,120
62,53,575280,120
65,49,575400,120
60,53,575520,120
65,50,575640,120
58,53,575760,120
65,50,575880,120
57,48,576000,120
65,40,576120,120
60,42,576240,120
65,38,576360,120
63,48,576480,120
65,40,576600,120
63,42,576720,120
65,39,576840,120
57,47,576960,120
65,40,577080,120
60,43,577200,120
65,40,577320,120
63,48,577440,120
65,42,577560,120
63,42,577680,120
65,42,577800,120
62,44,577920,120
65,45,578040,120
57,45,578160,120
65,45,578280,120
58,46,578400,120
65,47,578520,120
60,48,578640,120
65,49,578760,120
61,53,578880,120
65,48,579000,120
62,53,579120,120
65,46,579240,120
61,53,579360,120
65,46,579480,120
62,53,579600,120
65,47,579720,120
57,48,579840,120
65,39,579960,120
60,42,580080,120
65,39,580200,120
63,48,580320,120
65,40,580440,120
63,42,580560,120
65,39,580680,120
57,47,580800,120
65,39,580920,120
60,43,581040,120
65,39,581160,120
63,48,581280,120
65,42,581400,120
63,42,581520,120
65,42,581640,120
62,44,581760,120
65,45,581880,120
57,45,582000,120
65,45,582120,120
58,46,582240,120
65,47,582360,120
60,48,582480,120
65,49,582600,120
61,53,582720,120
65,48,582840,120
62,53,582960,120
65,46,583080,120
61,53,583200,120
65,46,583320,120
62,53,583440,120
65,47,583560,120
51,38,583920,240
50,40,584160,240
51,38,584400,240
53,38,584880,240
52,40,585120,240
53,38,585360,240
54,38,585840,240
52,42,586080,240
54,38,586320,240
55,40,586800,240
54,42,587040,240
55,39,587280,240
63,54,588000,480
72,54,588000,480
65,54,588480,960
74,54,588480,480
75,45,588960,480
70,34,589440,960
74,41,589440,960
70,28,590400,960
74,34,590400,960
71,29,591360,960
74,29,591360,960
77,35,591360,960
72,28,592320,960
75,34,592320,960
69,29,593280,960
72,29,593280,960
75,35,593280,960
70,28,594240,960
74,33,594240,960
67,29,595200,960
70,29,595200,960
74,35,595200,960
69,28,596160,960
72,33,596160,960
66,28,597120,960
69,28,597120,960
72,33,597120,960
67,28,598080,960
70,34,598080,960
64,30,599280,239
70,36,599280,239
64,35,599520,240
70,42,599520,239
64,32,599760,240
70,38,599760,240
65,34,600240,240
70,41,600240,240
65,39,600480,240
70,46,600480,240
65,37,600720,240
70,44,600720,240
67,39,601200,240
70,46,601200,240
67,45,601440,240
70,53,601440,240
67,42,601680,240
70,50,601680,240
66,53,602160,240
70,63,602160,240
66,58,602400,240
70,69,602400,240
66,54,602640,240
70,64,602640,240
65,53,602880,480
70,63,602880,480
62,53,603360,480
70,63,603360,480
63,53,603840,480
70,63,603840,480
60,53,604320,480
65,63,604320,480
58,51,604800,480
65,60,604800,480
50,43,605280,480
53,51,605280,480
51,42,605760,480
58,50,605760,480
51,39,606240,480
55,46,606240,480
58,46,607200,960
50,46,607200,480
51,46,607680,480
57,46,608160,480
53,46,608160,480
46,52,608640,120
58,52,608640,120
57,35,609120,240
56,33,609360,240
46,43,609600,120
55,43,609600,120
57,35,610080,240
56,33,610320,240
46,42,610560,120
55,42,610560,120
57,47,611040,240
56,47,611280,240
55,51,611520,240
50,50,611760,240
51,50,612000,240
48,50,612240,240
50,57,612480,480
51,53,613440,480
53,52,614400,240
58,48,614640,240
62,48,614880,240
58,48,615120,240
53,53,615360,240
60,49,615600,240
63,49,615840,240
60,48,616080,240
58,56,616320,120
62,56,616320,120
69,35,616800,240
68,35,617040,240
58,43,617280,120
67,43,617280,120
70,35,617520,240
69,35,617760,240
68,35,618000,240
58,46,618240,120
67,46,618240,120
70,38,618480,240
69,47,618720,240
68,47,618960,240
67,51,619200,240
62,49,619440,240
63,50,619680,240
60,50,619920,240
50,68,620160,480
62,68,620160,480
63,69,621120,480
51,69,621120,480
53,48,622080,120
62,41,622200,120
58,44,622320,120
62,39,622440,120
53,48,622560,120
62,40,622680,120
58,44,622800,120
62,41,622920,120
53,48,623040,120
62,42,623160,120
58,46,623280,120
62,42,623400,120
53,48,623520,120
62,44,623640,120
58,46,623760,120
62,43,623880,120
53,48,624000,120
63,40,624120,120
57,43,624240,120
63,40,624360,120
53,48,624480,120
63,39,624600,120
57,43,624720,120
63,39,624840,120
53,48,624960,120
63,39,625080,120
57,43,625200,120
63,38,625320,120
53,48,625440,120
63,42,625560,120
57,45,625680,120
63,40,625800,120
58,51,625920,240
70,44,626160,240
69,44,626400,240
70,48,626640,240
72,49,626880,240
70,52,627120,240
69,56,627360,240
68,59,627600,240
67,64,627840,240
58,49,628080,240
66,58,628320,240
58,49,628560,240
65,57,628800,240
58,48,629040,240
69,55,629280,240
58,48,629520,240
70,53,629760,120
58,41,630000,240
57,41,630240,240
58,37,630480,240
60,45,630720,240
58,43,630960,240
57,43,631200,240
56,38,631440,240
55,45,631680,480
51,35,632160,480
53,35,632640,480
53,35,633120,480
58,37,633600,480
53,28,634080,480
46,28,634560,360
