note,velocity,position,duration
70,50,0,960
74,50,960,240
75,46,1200,80
74,41,1280,80
72,42,1360,80
74,50,1440,240
75,50,1680,240
76,55,1920,720
77,49,2640,240
72,42,2880,240
75,50,3840,240
77,46,4080,80
75,42,4160,80
74,44,4240,80
75,50,4320,240
77,50,4560,240
79,52,4800,240
81,49,5040,80
79,49,5120,80
77,49,5200,80
79,57,5280,240
81,59,5520,234
81,68,5760,720
82,54,6480,240
77,54,6720,240
79,59,7680,720
80,50,8400,120
79,50,8520,120
77,55,8640,240
75,52,8880,240
74,48,9120,240
72,48,9360,240
76,58,9600,240
77,51,9840,480
79,55,10320,120
77,52,10440,120
75,54,10560,240
74,55,10800,192
72,56,11040,192
70,59,11280,192
77,66,11520,240
75,54,11760,480
72,51,12240,240
75,65,12480,240
74,54,12720,480
70,54,13200,240
74,59,13440,720
75,43,14160,120
74,43,14280,120
72,50,14400,240
77,53,14640,240
75,49,14880,240
72,47,15120,240
70,50,15360,240
72,43,15600,80
70,38,15680,80
69,38,15760,80
70,45,15840,240
72,50,16080,240
73,50,16320,240
75,44,16560,80
73,40,16640,80
72,41,16720,80
73,50,16800,240
75,50,17040,240
76,55,17280,720
77,49,18000,240
72,49,18240,240
75,55,19200,240
77,49,19440,80
75,44,19520,80
74,44,19600,80
75,59,19680,240
77,53,19920,240
78,56,20160,240
80,55,20400,80
78,56,20480,80
77,56,20560,80
78,63,20640,240
80,61,20880,240
81,68,21120,720
82,64,21840,240
77,59,22080,240
76,69,22920,120
85,94,23040,1200
84,60,24240,120
82,55,24360,120
80,57,24480,120
79,51,24600,120
77,54,24720,120
76,50,24840,120
79,57,24960,480
77,62,25440,720
75,55,26160,480
73,56,26640,240
72,50,26880,240
73,43,27120,80
72,44,27200,80
70,44,27280,80
72,45,27360,240
73,50,27600,240
65,50,27840,480
68,50,28320,240
64,38,28320,480
67,46,28560,240
65,53,28800,960
70,45,30720,480
67,45,31680,240
64,42,32160,240
72,53,32640,360
69,49,33000,120
72,53,33120,240
70,45,34560,480
67,45,35520,240
64,42,36000,240
72,53,36480,360
69,50,36840,120
72,53,36960,240
77,59,37440,240
81,70,37440,240
79,64,37680,240
76,54,37680,240
74,48,37920,216
77,57,37920,216
73,48,38160,216
76,57,38160,216
77,70,38400,240
74,59,38400,240
72,54,38640,240
76,64,38640,240
70,50,38880,216
74,59,38880,216
73,59,39120,216
69,50,39120,216
70,59,39360,240
74,70,39360,240
69,53,39600,240
72,63,39600,240
67,50,39840,216
70,59,39840,216
69,58,40080,216
66,49,40080,216
62,49,40320,1200
66,58,40320,960
69,58,40320,960
70,49,41280,360
67,41,41280,240
72,45,41640,30
70,45,41670,30
69,45,41700,30
70,45,41730,30
72,50,41760,240
74,48,42000,240
72,49,42240,160
70,45,42400,160
69,45,42560,160
67,48,42720,160
70,45,42880,160
74,45,43040,160
65,50,43200,480
64,38,43680,480
67,45,43680,480
67,48,44160,360
64,40,44160,480
68,35,44520,120
69,44,44640,480
65,38,44640,480
70,45,46080,480
67,45,47040,240
64,42,47520,240
72,53,48000,360
69,49,48360,120
72,53,48480,240
70,45,49920,480
67,45,50880,240
64,42,51360,240
72,53,51840,360
77,50,52200,120
72,53,52320,240
81,70,52800,240
77,59,52800,240
76,54,53040,240
79,64,53040,240
74,48,53280,216
77,57,53280,216
73,48,53520,216
76,57,53520,216
74,59,53760,240
77,70,53760,240
72,54,54000,240
76,64,54000,240
70,50,54240,216
74,59,54240,216
73,59,54480,216
69,50,54480,216
70,59,54720,240
74,70,54720,240
72,63,54960,240
69,53,54960,240
70,59,55200,216
67,50,55200,216
66,49,55440,216
69,58,55440,216
69,58,55680,960
62,49,55680,1200
66,58,55680,960
67,41,56640,240
70,49,56640,360
72,45,57000,30
70,45,57030,30
69,45,57060,30
70,45,57090,30
72,50,57120,240
74,48,57360,240
72,49,57600,160
77,45,57760,160
69,42,57920,160
67,48,58080,160
70,45,58240,160
74,43,58400,160
65,50,58560,480
64,45,59040,450
69,56,59490,30
81,73,59520,660
77,49,60180,60
77,53,60240,48
79,50,60288,48
77,54,60336,48
76,52,60384,48
77,54,60432,48
70,60,60480,60
82,74,60510,630
79,56,61140,60
79,56,61200,48
81,52,61248,48
79,56,61296,48
78,54,61344,48
79,56,61392,48
84,74,61440,360
81,61,61800,120
77,69,61920,720
75,62,62640,240
74,67,62880,240
73,62,63120,240
74,69,63360,240
76,62,63600,60
78,63,63720,60
79,64,63840,60
81,65,63960,60
82,66,64080,60
85,67,64200,130
86,68,64320,60
84,66,64440,130
82,65,64560,60
81,64,64680,130
79,63,64800,60
77,62,64920,130
76,61,65040,60
74,60,65160,120
72,60,65280,480
84,64,65760,640
81,55,66400,160
77,51,66560,160
72,58,66720,120
69,51,66840,120
77,56,66960,120
65,44,67140,60
67,44,67200,51
69,41,67251,50
67,44,67301,51
69,39,67351,51
67,44,67402,50
69,39,67452,51
67,44,67503,50
69,39,67553,51
67,44,67603,51
69,39,67654,50
67,44,67704,51
69,38,67755,50
67,44,67805,51
69,38,67855,51
67,44,67906,50
69,38,67956,51
67,43,68007,50
69,38,68057,51
67,43,68107,51
69,36,68158,50
67,42,68208,51
69,36,68259,50
67,42,68309,51
69,36,68359,51
67,42,68400,60
69,36,68460,60
67,42,68520,60
69,37,68580,60
67,42,68640,60
69,36,68700,60
67,42,68760,60
69,37,68820,60
67,38,68880,80
65,48,68960,80
67,42,69040,80
65,53,69120,480
77,49,69780,60
77,50,69840,48
79,48,69888,48
77,51,69936,48
76,50,69984,48
77,54,70032,48
84,63,70080,240
82,58,70320,240
81,53,70560,240
79,53,70800,240
79,62,71040,240
77,51,71280,240
77,49,71700,60
77,50,71760,48
79,48,71808,48
77,51,71856,48
76,51,71904,48
77,54,71952,48
84,63,72000,240
82,58,72240,240
81,53,72480,240
79,53,72720,240
79,56,72960,240
77,50,73200,240
77,53,73440,240
77,53,73920,240
77,62,74400,240
77,65,74880,960
76,55,75840,130
77,53,75960,130
79,56,76080,130
77,51,76200,115
77,55,76320,130
75,49,76440,130
74,50,76560,130
72,47,76680,120
70,50,76800,240
72,46,77040,80
70,46,77120,80
69,46,77200,80
70,50,77280,240
72,50,77520,240
74,50,77760,240
75,46,78000,80
74,46,78080,80
72,46,78160,80
74,50,78240,240
75,50,78480,240
76,55,78720,720
77,49,79440,240
72,49,79680,240
75,50,80640,240
77,46,80880,80
75,44,80960,80
74,43,81040,80
75,50,81120,240
77,50,81360,240
79,52,81600,240
81,49,81840,80
79,46,81920,80
77,44,82000,80
79,57,82080,240
81,59,82320,230
81,68,82560,720
82,54,83280,240
77,52,83520,240
78,56,84480,240
79,59,84720,480
80,50,85200,120
79,50,85320,120
77,55,85440,240
75,52,85680,192
74,53,85920,192
72,53,86160,192
79,59,86400,240
77,54,86640,480
79,55,87120,120
77,52,87240,110
77,54,87360,120
75,51,87480,110
75,55,87600,120
74,50,87720,110
74,56,87840,120
72,53,87960,110
72,59,88080,120
70,59,88200,110
77,58,88320,60
76,56,88440,60
75,59,88560,480
72,51,89040,240
75,58,89280,60
73,55,89400,60
74,58,89520,480
70,54,90000,240
74,59,90240,720
75,43,90960,120
74,43,91080,120
72,50,91200,120
77,45,91360,120
75,42,91520,120
75,50,91680,120
74,43,91800,120
75,40,91920,120
72,41,92040,120
70,50,92160,240
72,43,92400,80
70,44,92480,80
69,41,92560,80
70,45,92640,240
72,50,92880,240
73,53,93120,240
75,44,93360,80
73,44,93440,80
72,41,93520,80
73,51,93600,240
75,52,93840,240
76,61,94080,720
77,56,94800,240
72,56,95040,240
63,73,96000,548
65,45,96549,68
63,46,96617,69
62,47,96685,69
63,47,96754,68
64,48,96822,69
65,49,96890,70
66,49,96960,60
67,51,97020,60
68,52,97080,60
69,53,97140,60
70,55,97200,60
71,56,97260,60
72,57,97320,60
73,58,97380,60
74,60,97440,60
75,61,97500,60
76,62,97560,60
77,64,97620,60
78,65,97680,60
79,66,97740,60
80,67,97800,60
81,69,97860,60
81,73,97920,240
82,63,98160,80
81,61,98240,80
79,61,98320,80
81,60,98400,240
82,64,98640,240
77,59,98880,240
76,69,99720,120
85,93,99840,1200
84,60,101040,120
82,58,101160,120
80,57,101280,120
79,56,101400,120
77,54,101520,120
76,50,101640,120
79,57,101760,480
77,62,102240,720
76,53,102960,240
75,55,103200,160
74,52,103360,160
73,52,103520,160
72,50,103680,240
73,43,103920,80
72,44,104000,80
70,44,104080,80
72,45,104160,240
73,50,104400,240
65,50,104640,480
68,50,105120,240
64,44,105120,480
67,50,105360,240
65,53,105600,238
75,45,107520,480
72,45,108480,240
69,42,108960,240
77,53,109440,360
74,49,109800,120
77,53,109920,240
77,49,111360,240
75,45,111600,240
74,45,112320,240
72,41,112560,120
70,42,112800,240
69,39,113040,120
77,53,113280,360
74,50,113640,120
77,53,113760,240
86,70,114240,240
82,59,114240,240
81,54,114480,240
84,64,114480,240
82,57,114720,216
79,48,114720,216
78,48,114960,216
81,57,114960,216
82,70,115200,240
79,59,115200,240
81,64,115440,240
77,54,115440,240
79,59,115680,216
75,50,115680,216
74,50,115920,216
78,59,115920,216
75,59,116160,240
79,70,116160,240
74,53,116400,240
77,63,116400,240
75,59,116640,216
72,50,116640,216
71,49,116880,216
74,58,116880,216
67,49,117120,1200
74,67,117120,960
71,49,117120,960
72,41,118080,240
75,49,118080,360
79,45,118440,40
77,45,118480,40
75,45,118520,40
77,50,118560,240
79,48,118800,240
79,49,119040,120
77,45,119160,120
75,45,119280,120
74,45,119400,120
71,49,119520,120
72,42,119640,120
75,42,119760,120
79,42,119880,120
70,50,120000,480
72,45,120480,480
69,38,120480,480
69,38,120960,480
72,48,120960,360
73,35,121320,120
74,44,121440,480
70,38,121440,480
77,45,122880,240
75,45,123120,240
74,45,123840,240
72,43,124080,240
70,42,124320,240
69,40,124560,240
77,53,124800,360
74,49,125160,120
77,53,125280,240
77,50,126720,60
76,48,126840,60
75,45,126960,240
74,49,127680,60
74,43,127800,120
75,45,127920,120
72,40,128040,120
70,47,128160,60
70,41,128280,120
72,46,128400,120
69,40,128520,120
77,53,128640,120
79,47,128760,40
77,47,128800,40
76,46,128840,40
77,53,128880,120
82,50,129000,120
77,53,129120,240
82,50,129720,240
86,59,129720,240
84,54,129960,240
81,45,129960,240
79,40,130200,240
82,48,130200,240
81,48,130440,240
78,40,130440,240
82,59,130680,240
79,50,130680,240
77,45,130920,240
81,54,130920,240
79,50,131160,240
75,42,131160,240
78,50,131400,240
74,42,131400,240
75,50,131640,240
79,59,131640,240
74,45,131880,240
77,53,131880,240
75,50,132120,240
72,42,132120,240
71,41,132360,110
74,49,132360,110
74,58,132480,960
71,49,132480,960
67,49,132480,1200
75,49,133440,360
72,41,133440,240
79,45,133800,40
77,41,133840,40
75,41,133880,40
77,50,133920,240
79,48,134160,240
77,49,134400,160
82,45,134560,160
74,45,134720,160
72,48,134880,160
75,45,135040,160
79,45,135200,160
70,50,135360,480
69,45,135840,450
62,56,136290,30
74,73,136320,660
70,49,136980,60
70,53,137040,48
72,50,137088,48
70,54,137136,48
69,51,137184,48
70,54,137232,48
63,60,137280,60
75,74,137310,630
72,53,137940,60
72,56,138000,48
74,54,138048,48
72,56,138096,48
71,53,138144,48
72,56,138192,48
77,74,138240,360
74,61,138600,120
82,69,138720,720
80,62,139440,240
79,67,139680,240
78,62,139920,360
79,69,140280,120
82,62,140400,120
79,63,140520,120
74,64,140640,120
75,60,140760,120
79,60,140880,120
75,60,141000,130
71,68,141120,120
72,60,141240,130
75,60,141360,120
74,60,141480,130
77,63,141600,120
75,62,141720,130
74,60,141840,120
72,58,141960,60
65,46,142020,60
77,60,142080,240
77,60,142320,480
77,64,142800,360
75,60,143160,120
74,60,143280,120
75,60,143400,120
77,60,143520,120
79,61,143640,120
81,62,143760,120
82,63,143880,60
70,44,143940,20
72,44,143960,20
74,44,143980,20
72,44,144000,51
74,41,144051,50
72,44,144101,51
74,39,144151,51
72,44,144202,50
74,39,144252,51
72,44,144303,50
74,39,144353,51
72,44,144403,51
74,39,144454,50
72,44,144504,51
74,38,144555,50
72,44,144605,51
74,38,144655,51
72,44,144706,50
74,38,144756,51
72,43,144807,50
74,38,144857,51
72,43,144907,51
74,36,144958,50
72,42,145008,51
74,36,145059,50
72,42,145109,51
74,36,145159,51
72,42,145200,60
74,40,145260,60
72,42,145320,60
74,39,145380,60
72,42,145440,60
74,36,145500,60
72,42,145560,60
74,37,145620,60
72,38,145680,80
70,48,145760,80
72,42,145840,80
70,53,145920,480
70,49,146580,60
70,50,146640,48
72,51,146688,48
70,51,146736,48
69,54,146784,48
70,54,146832,48
77,63,146880,240
75,58,147120,240
74,53,147360,240
72,53,147600,230
72,62,147840,240
70,51,148080,240
70,49,148500,60
70,50,148560,48
72,51,148608,48
70,51,148656,48
69,54,148704,48
70,54,148752,48
77,63,148800,240
75,58,149040,240
74,53,149280,240
72,53,149520,240
70,59,149760,240
75,48,150240,360
69,50,150600,120
70,56,150720,240
79,64,151200,360
69,45,151560,120
65,36,151680,1440
60,36,151680,960
69,45,151680,960
63,36,151680,960
62,24,152640,480
70,31,152640,480
58,36,0,240
65,27,240,240
62,27,480,240
65,27,720,240
58,36,960,240
65,28,1200,240
62,28,1440,240
65,28,1680,240
57,36,1920,240
65,25,2160,240
60,27,2400,240
65,24,2640,240
57,30,2880,240
65,22,3120,240
60,27,3360,240
65,23,3600,240
55,36,3840,240
63,32,4080,240
58,32,4320,240
63,32,4560,240
51,36,4800,240
58,33,5040,240
55,35,5280,240
58,36,5520,240
50,41,5760,240
58,30,6000,240
53,35,6240,240
58,28,6480,240
50,36,6720,240
58,26,6960,240
53,31,7200,240
58,27,7440,240
51,36,7680,240
55,27,7920,240
51,31,8160,240
59,27,8400,240
51,34,8640,240
60,27,8880,240
51,27,9120,240
63,27,9360,240
50,36,9600,240
53,29,9840,240
50,33,10080,240
57,33,10320,240
50,36,10560,240
58,30,10800,240
50,31,11040,240
62,33,11280,240
53,36,11520,240
65,30,11760,240
60,30,12000,240
65,25,12240,240
58,36,12480,240
65,28,12720,240
62,31,12960,240
65,30,13200,240
53,36,13440,240
62,25,13680,240
58,25,13920,240
62,25,14160,240
53,36,14400,480
60,36,14400,480
57,36,14400,480
58,36,15360,240
65,31,15600,240
61,31,15840,240
65,31,16080,240
58,36,16320,240
65,31,16560,240
61,31,16800,240
65,31,17040,240
56,36,17280,240
65,27,17520,240
60,29,17760,240
65,27,18000,240
56,36,18240,240
65,27,18480,240
60,30,18720,240
65,26,18960,240
54,36,19200,240
63,32,19440,240
58,32,19680,240
63,32,19920,240
51,39,20160,240
58,33,20400,240
54,36,20640,240
58,36,20880,240
50,44,21120,240
58,35,21360,240
53,42,21600,240
58,40,21840,240
49,46,22080,240
58,45,22320,240
53,50,22560,240
58,45,22800,240
48,54,23040,240
58,36,23280,240
55,36,23520,240
58,36,23760,240
48,37,24000,240
58,24,24240,240
55,27,24480,240
58,23,24720,240
49,34,24960,240
56,22,25200,240
53,27,25440,240
56,23,25680,240
46,29,25920,240
55,22,26160,240
49,23,26400,240
55,22,26640,240
48,30,26880,240
56,26,27120,240
53,26,27360,240
56,26,27600,240
48,30,27840,240
58,26,28080,240
55,26,28320,240
58,26,28560,240
53,27,28800,480
57,38,28800,240
60,30,29040,120
60,30,29280,120
60,30,29520,120
53,32,29760,480
57,38,29760,240
60,28,30000,240
58,28,30240,240
55,23,30240,480
60,28,30480,240
52,29,30720,480
55,35,30720,240
60,30,30960,120
60,30,31200,120
60,30,31440,120
48,28,31680,480
52,34,31680,240
60,31,31920,240
58,31,32160,240
55,26,32160,480
60,31,32400,240
53,32,32640,480
57,38,32640,240
60,30,32880,120
60,30,33120,120
60,30,33360,120
57,38,33600,240
53,32,33600,480
60,28,33840,240
55,23,34080,480
58,28,34080,240
60,28,34320,240
55,35,34560,240
52,29,34560,480
60,30,34800,120
60,30,35040,120
60,30,35280,120
48,28,35520,480
52,34,35520,240
60,31,35760,240
55,26,36000,480
58,31,36000,240
60,31,36240,240
57,38,36480,480
53,32,36480,480
54,27,40320,960
50,27,40320,960
60,32,40320,960
57,27,40320,960
55,35,41280,960
58,42,41280,480
64,44,41760,480
57,40,42240,480
65,48,42240,480
58,38,42720,480
62,45,42720,480
57,44,43200,480
48,37,43200,960
58,40,43680,480
57,38,44160,240
53,32,44160,480
60,30,44400,120
60,30,44640,120
60,30,44880,120
53,28,45120,480
57,33,45120,240
60,27,45360,240
58,27,45600,240
55,22,45600,480
60,27,45840,240
52,29,46080,480
55,35,46080,240
60,30,46320,120
60,30,46560,120
60,30,46800,120
48,28,47040,480
52,34,47040,240
60,31,47280,240
58,31,47520,240
55,26,47520,480
60,31,47760,240
53,32,48000,480
57,38,48000,240
60,30,48240,120
60,30,48480,120
60,30,48720,120
53,32,48960,480
57,38,48960,240
60,28,49200,240
58,28,49440,240
55,23,49440,480
60,28,49680,240
52,29,49920,480
55,35,49920,240
60,30,50160,120
60,30,50400,120
60,30,50640,120
48,28,50880,480
52,34,50880,240
60,31,51120,240
55,26,51360,480
58,31,51360,240
60,31,51600,240
53,32,51840,480
57,38,51840,480
60,34,55680,960
54,29,55680,960
57,29,55680,960
50,29,55680,960
55,35,56640,960
58,42,56640,480
64,44,57120,480
65,48,57600,480
57,40,57600,480
62,45,58080,480
58,38,58080,480
57,42,58560,480
48,33,58560,960
55,40,59040,480
53,50,59760,240
57,54,60000,240
62,50,60240,240
55,50,60720,240
58,54,60960,240
64,50,61200,240
57,50,61680,240
60,54,61920,240
65,45,62160,720
57,49,62400,960
63,47,62880,480
65,48,63360,480
62,40,63360,480
58,40,63360,480
62,40,64320,480
67,48,64320,480
58,40,64320,480
48,50,65280,240
57,43,65520,240
53,50,65760,240
57,38,66000,240
48,43,66240,240
57,31,66480,240
53,35,66720,240
57,33,66960,240
48,38,67200,240
58,31,67440,240
52,33,67680,240
58,31,67920,240
48,37,68160,240
58,32,68400,240
52,32,68640,240
58,32,68880,240
53,37,69120,1920
60,35,69360,240
65,39,69600,240
63,35,69840,240
62,37,70080,480
60,34,70560,480
57,35,71040,240
53,37,71040,1920
60,35,71280,240
65,39,71520,240
63,35,71760,240
62,37,72000,480
58,34,72480,480
53,41,72960,2880
57,41,72960,240
55,37,73200,240
58,37,73200,240
60,40,73440,240
57,40,73440,240
62,37,73680,240
58,37,73680,240
63,38,73920,240
60,38,73920,240
62,41,74160,240
59,41,74160,240
60,44,74400,240
63,44,74400,240
59,47,74640,240
62,47,74640,240
60,53,74880,960
63,53,74880,960
58,36,76800,240
65,27,77040,240
62,27,77280,240
65,27,77520,240
58,36,77760,240
65,28,78000,240
62,28,78240,240
65,28,78480,240
57,36,78720,240
65,25,78960,240
60,27,79200,240
65,24,79440,240
57,36,79680,240
65,23,79920,240
60,29,80160,240
65,23,80400,240
55,36,80640,240
63,32,80880,240
58,32,81120,240
63,32,81360,240
51,36,81600,240
58,33,81840,240
55,35,82080,240
58,36,82320,240
50,41,82560,240
58,30,82800,240
53,35,83040,240
58,28,83280,240
50,36,83520,240
58,25,83760,240
53,29,84000,240
58,26,84240,240
51,36,84480,240
55,27,84720,240
51,31,84960,240
59,27,85200,240
51,34,85440,240
60,27,85680,240
51,27,85920,240
63,27,86160,240
50,36,86400,240
53,31,86640,240
50,33,86880,240
57,33,87120,240
50,36,87360,240
58,30,87600,240
50,31,87840,240
62,33,88080,240
53,36,88320,240
65,30,88560,240
60,30,88800,240
65,30,89040,240
58,36,89280,240
65,30,89520,240
62,31,89760,240
65,30,90000,240
53,36,90240,240
62,25,90480,240
58,25,90720,240
62,25,90960,240
60,36,91200,480
57,36,91200,480
53,36,91200,480
58,36,92160,240
65,31,92400,240
61,35,92640,240
65,31,92880,240
58,40,93120,240
65,36,93360,240
61,38,93600,240
65,31,93840,240
56,46,94080,240
65,36,94320,240
60,41,94560,240
65,31,94800,240
56,41,95040,240
65,31,95280,240
60,40,95520,240
65,32,95760,240
54,36,96000,240
58,32,96240,240
54,39,96480,240
58,38,96720,240
51,53,96960,240
58,45,97200,240
54,57,97440,240
58,52,97680,240
50,63,97920,240
58,54,98160,240
53,60,98400,240
58,51,98640,240
49,63,98880,240
58,55,99120,240
53,62,99360,240
58,57,99600,240
48,69,99840,240
58,53,100080,240
55,62,100320,240
58,48,100560,240
48,44,100800,240
58,29,101040,240
55,32,101280,240
58,28,101520,240
49,41,101760,240
56,27,102000,240
53,32,102240,240
56,28,102480,240
46,36,102720,240
55,27,102960,240
49,28,103200,240
55,27,103440,240
48,36,103680,240
56,31,103920,240
53,31,104160,240
56,31,104400,240
48,36,104640,240
58,31,104880,240
55,31,105120,240
58,31,105360,240
57,38,105600,240
53,32,105600,480
65,30,105840,120
65,30,106080,120
65,30,106320,120
62,38,106560,240
58,32,106560,480
65,28,106800,240
63,28,107040,240
60,23,107040,480
65,28,107280,240
57,29,107520,480
60,35,107520,240
65,30,107760,120
65,28,108000,120
65,28,108240,120
57,34,108480,240
53,28,108480,480
65,31,108720,240
60,27,108960,480
63,27,108960,240
65,27,109200,240
58,32,109440,480
62,38,109440,240
65,30,109680,120
65,29,109920,120
65,30,110160,120
62,38,110400,240
58,32,110400,480
65,28,110640,240
63,28,110880,240
60,23,110880,480
65,28,111120,240
60,35,111360,240
57,29,111360,480
65,30,111600,120
65,27,111840,120
65,27,112080,120
53,28,112320,480
57,34,112320,240
65,31,112560,240
60,29,112800,480
63,29,112800,240
65,29,113040,240
62,38,113280,480
58,32,113280,480
70,47,114240,240
74,56,114240,240
69,43,114480,240
72,51,114480,240
70,45,114720,216
67,38,114720,216
66,38,114960,216
69,45,114960,216
67,47,115200,240
70,56,115200,240
65,43,115440,240
69,51,115440,240
63,40,115680,216
67,47,115680,216
66,47,115920,216
62,40,115920,216
63,47,116160,240
67,56,116160,240
62,42,116400,240
65,50,116400,240
60,40,116640,216
63,47,116640,216
62,46,116880,216
59,39,116880,216
62,33,117120,960
65,39,117120,960
55,30,117120,960
59,33,117120,960
60,35,118080,960
63,42,118080,480
69,44,118560,480
70,44,119040,480
62,33,119040,480
63,35,119520,480
67,43,119520,480
62,44,120000,480
53,37,120000,960
63,36,120480,480
62,38,120960,240
58,30,120960,480
65,30,121200,120
65,30,121440,120
65,30,121680,120
58,28,121920,480
62,33,121920,240
65,27,122160,240
63,27,122400,240
60,22,122400,480
65,27,122640,240
60,33,122880,240
57,33,122880,480
65,26,123120,120
65,30,123360,120
65,26,123600,120
53,28,123840,480
57,34,123840,240
65,31,124080,240
63,31,124320,240
60,26,124320,480
65,31,124560,240
62,38,124800,240
58,32,124800,480
65,30,125040,120
65,30,125280,120
65,30,125520,120
62,38,125760,240
58,32,125760,480
65,28,126000,240
63,28,126240,240
60,23,126240,480
65,28,126480,240
60,35,126720,240
57,29,126720,480
65,28,126960,120
65,30,127200,120
65,26,127440,120
57,34,127680,240
53,28,127680,480
65,25,127920,240
63,31,128160,240
60,26,128160,480
65,26,128400,240
62,38,128640,480
58,32,128640,480
74,56,129600,240
70,47,129600,240
72,51,129840,240
69,43,129840,240
67,38,130080,240
70,45,130080,240
69,45,130320,240
66,38,130320,240
67,47,130560,240
70,56,130560,240
65,43,130800,240
69,51,130800,240
63,40,131040,240
67,47,131040,240
66,47,131280,240
62,40,131280,240
63,47,131520,240
67,56,131520,240
65,50,131760,240
62,42,131760,240
60,40,132000,240
63,47,132000,240
62,46,132240,230
59,39,132240,230
65,46,132480,960
59,35,132480,960
62,36,132480,960
55,33,132480,960
60,35,133440,960
63,42,133440,480
69,44,133920,480
70,48,134400,480
62,40,134400,480
63,38,134880,480
67,45,134880,480
53,37,135360,960
62,44,135360,480
60,40,135840,480
46,50,136560,240
50,54,136800,240
55,50,137040,240
48,50,137520,240
51,54,137760,240
57,50,138000,240
50,50,138480,240
53,54,138720,240
58,45,138960,720
50,49,139200,960
56,47,139680,480
55,40,140160,480
51,40,140160,480
58,48,140160,480
51,40,141120,480
55,40,141120,480
60,48,141120,480
53,50,142080,240
62,43,142320,240
58,50,142560,240
62,38,142800,240
53,43,143040,240
62,35,143280,240
58,35,143520,240
62,35,143760,240
53,38,144000,240
63,33,144240,240
57,33,144480,240
63,33,144720,240
53,37,144960,240
63,32,145200,240
57,32,145440,240
63,32,145680,240
58,37,145920,1920
62,35,146160,240
65,39,146400,240
68,35,146640,240
67,37,146880,480
63,34,147360,480
62,35,147840,240
58,37,147840,1920
65,35,148080,240
68,39,148320,240
66,35,148560,240
67,37,148800,480
63,34,149280,480
58,32,149760,480
62,26,150000,240
65,35,150000,240
67,40,150240,240
63,32,150240,240
63,37,150480,240
60,29,150480,240
58,32,150720,480
62,38,150720,240
65,36,150960,240
62,28,150960,240
67,40,151200,240
63,32,151200,240
63,30,151440,240
60,24,151440,235
58,27,151680,1440
46,21,151680,1440
50,18,152640,480
53,20,152640,480
