note,velocity,position,duration
69,60,0,480
74,73,0,480
66,60,0,480
79,66,960,132
78,55,1080,132
76,54,1200,132
78,54,1320,132
81,65,1440,132
79,55,1560,132
78,55,1680,132
79,55,1800,132
81,62,1920,480
81,50,2880,60
83,45,3120,60
85,45,3360,60
86,45,3600,60
81,54,3840,480
78,45,4320,480
81,50,4800,120
79,44,4920,120
78,44,5040,120
79,44,5160,120
81,49,5280,60
79,46,5520,60
77,54,5760,240
78,45,6000,240
79,66,6720,132
78,55,6840,132
76,54,6960,132
78,54,7080,132
81,65,7200,132
79,55,7320,132
78,55,7440,132
79,55,7560,132
81,62,7680,480
81,50,8640,60
83,45,8880,60
85,45,9120,60
86,45,9360,60
81,54,9600,480
78,45,10080,480
81,50,10560,120
79,44,10680,120
78,44,10800,120
79,44,10920,120
81,50,11040,120
79,44,11160,120
78,44,11280,120
76,44,11400,120
74,50,11520,120
69,42,12000,120
78,47,12480,88
79,43,12560,88
78,48,12640,88
79,43,12720,88
78,48,12799,88
79,44,12879,88
78,48,12959,88
79,44,13039,88
78,44,13119,88
76,48,13200,132
74,44,13320,132
73,50,13440,120
69,42,13920,120
76,50,14400,120
76,50,15360,120
69,42,15840,120
79,47,16320,88
81,43,16400,88
79,48,16480,88
81,43,16560,88
79,48,16639,88
81,44,16719,88
79,48,16799,88
81,44,16879,88
79,44,16959,88
78,48,17040,132
76,44,17160,132
74,50,17280,120
69,42,17760,120
78,50,18240,120
78,54,19200,120
74,47,19320,132
76,48,19440,132
78,49,19560,132
79,50,19680,132
81,51,19800,132
83,52,19920,132
85,53,20040,132
86,55,20160,132
85,56,20280,132
83,56,20400,132
81,56,20520,132
79,56,20640,132
78,55,20760,132
76,50,20880,132
74,49,21000,132
76,51,21120,132
78,48,21240,132
76,45,21360,132
75,43,21480,132
76,45,21600,132
78,47,21720,132
79,49,21840,132
81,51,21960,132
83,53,22080,132
81,54,22200,132
79,53,22320,132
78,51,22440,132
76,49,22560,132
74,48,22680,132
73,46,22800,132
71,44,22920,132
73,50,23040,132
74,42,23160,132
73,42,23280,132
69,40,23400,132
74,47,23520,120
79,55,24000,132
81,46,24120,132
79,46,24240,132
76,46,24360,132
79,56,24480,132
78,47,24600,132
76,48,24720,132
74,48,24840,132
73,57,24960,132
74,44,25080,132
73,44,25200,132
69,44,25320,132
74,57,25440,120
79,65,25920,132
81,54,26040,132
79,54,26160,132
76,56,26280,132
79,69,26400,132
78,56,26520,132
76,56,26640,132
74,59,26760,132
73,79,26880,120
76,63,27000,120
73,63,27120,120
69,63,27240,120
78,74,27360,120
81,64,27480,120
78,64,27600,120
74,64,27720,120
73,77,27840,120
76,64,27960,120
73,64,28080,120
69,64,28200,120
78,77,28320,120
81,64,28440,120
78,64,28560,120
74,64,28680,120
73,69,28800,90
76,84,28800,90
81,74,29040,90
73,60,29040,90
76,60,29040,90
76,60,29280,90
73,60,29280,90
81,74,29280,90
76,60,29520,90
73,60,29520,90
81,74,29520,90
73,60,29760,420
81,74,29760,420
76,60,29760,420
74,41,30180,60
73,42,30240,120
71,40,30360,120
73,40,30480,120
74,40,30600,120
75,45,30720,240
76,42,30960,240
76,40,31440,240
81,46,31680,240
80,42,31920,240
78,44,32160,240
76,42,32400,240
73,48,32640,240
74,42,32880,240
74,40,33360,240
76,45,33600,240
74,42,33840,240
73,45,34080,240
71,42,34320,240
68,48,34560,240
69,44,34800,240
71,45,35280,240
72,50,35520,240
73,46,35760,240
76,42,36180,60
74,47,36240,240
73,51,36480,720
74,44,37200,120
73,42,37320,120
71,47,37440,240
73,42,37680,120
74,44,37920,120
75,47,38160,120
75,43,38400,240
76,42,38640,240
78,40,39120,60
76,37,39180,60
75,37,39240,60
76,37,39300,60
81,46,39360,120
80,42,39600,120
78,44,39840,120
76,42,40080,120
73,48,40320,240
74,42,40560,240
76,40,41040,60
74,37,41100,60
73,37,41160,60
74,37,41220,60
76,45,41280,120
74,42,41520,120
73,45,41760,120
71,42,42000,120
73,45,42240,360
76,42,42600,120
66,45,42720,360
71,41,43080,120
69,45,43200,480
68,43,43680,60
69,39,43740,60
68,43,43800,60
69,40,43860,60
68,43,43920,80
66,40,44000,80
68,40,44080,80
69,46,44160,120
76,44,44280,120
75,47,44400,120
76,43,44520,120
78,50,44640,120
76,47,44760,120
75,51,44880,120
76,51,45000,120
74,59,45120,120
76,50,45240,120
74,52,45360,120
76,50,45480,120
74,62,45600,120
76,49,45720,120
74,52,45840,120
76,49,45960,120
73,50,46080,120
76,44,46200,120
75,47,46320,120
76,43,46440,120
78,50,46560,120
76,47,46680,120
75,51,46800,120
76,51,46920,120
74,59,47040,120
76,50,47160,120
74,52,47280,120
76,50,47400,120
74,62,47520,120
76,49,47640,120
74,52,47760,120
76,49,47880,120
69,41,48000,480
81,57,48720,120
83,63,48960,120
81,58,49200,120
80,63,49440,120
76,58,49680,120
81,60,49920,480
45,57,50640,120
47,63,50880,120
45,58,51120,120
44,60,51360,120
40,58,51600,120
45,60,51840,480
76,50,52320,480
74,47,52800,480
73,46,53280,480
78,50,53760,360
80,45,54120,40
78,45,54160,40
76,45,54201,40
78,50,54240,120
80,47,54480,120
83,50,54720,240
81,45,54960,240
80,47,55200,240
78,45,55440,240
76,50,55680,240
76,60,56160,480
74,60,56640,480
73,59,57120,480
71,68,57600,360
78,53,57960,120
76,60,58080,120
74,58,58200,120
73,58,58320,120
71,58,58440,120
69,63,58560,480
71,55,59040,60
73,49,59100,60
71,56,59160,60
73,50,59220,60
71,56,59280,80
69,48,59360,80
71,48,59440,80
69,66,59520,240
76,50,60000,480
74,47,60480,480
73,46,60960,480
78,50,61440,360
80,45,61800,40
78,45,61840,40
76,45,61881,40
78,50,61920,120
80,47,62160,120
83,50,62400,240
81,45,62640,240
80,47,62880,240
78,45,63120,240
76,50,63360,240
76,60,63840,480
74,60,64320,480
73,59,64800,480
71,68,65280,360
78,53,65640,120
76,60,65760,120
74,58,65880,120
73,58,66000,120
71,58,66120,120
69,63,66240,480
71,55,66720,60
73,49,66780,60
71,56,66840,60
73,50,66900,60
71,56,66960,80
69,48,67040,80
71,48,67120,80
69,66,67200,120
64,59,67320,120
69,66,67440,120
73,58,67560,120
76,66,67680,120
73,60,67800,120
74,66,67920,120
71,59,68040,120
69,66,68160,120
64,59,68280,120
69,66,68400,120
73,58,68520,120
76,66,68640,120
73,60,68760,120
74,66,68880,120
71,59,69000,120
69,75,69120,240
80,75,69600,240
71,64,69600,240
74,64,69600,240
81,75,70080,240
73,64,70080,240
69,64,70080,240
66,39,71040,240
74,47,71040,240
64,36,71280,120
73,43,71280,120
73,47,71520,240
64,39,71520,240
62,35,71760,120
71,42,71760,120
71,47,72000,240
62,39,72000,240
61,34,72240,120
69,41,72240,120
61,39,72480,240
69,47,72480,240
68,41,72720,120
59,34,72720,120
62,45,72960,960
59,37,72960,960
68,54,72960,960
61,35,73920,480
69,42,73920,480
66,60,74880,480
69,60,74880,480
74,73,74880,480
79,66,75840,132
78,55,75960,132
76,54,76080,132
78,54,76200,132
81,65,76320,132
79,55,76440,132
78,55,76560,132
79,55,76680,132
81,62,76800,480
81,50,77760,60
83,45,78000,60
85,45,78240,60
86,45,78480,60
81,54,78720,480
78,45,79200,480
81,50,79680,120
79,44,79800,120
78,44,79920,120
79,44,80040,120
81,49,80160,60
79,46,80400,60
77,54,80640,240
78,45,80880,240
79,66,81600,132
78,55,81720,132
76,54,81840,132
78,54,81960,132
81,65,82080,132
79,55,82200,132
78,55,82320,132
79,55,82440,132
81,62,82560,480
81,50,83520,60
83,45,83760,60
85,45,84000,60
86,45,84240,60
81,54,84480,480
78,45,84960,480
81,50,85440,120
79,44,85560,120
78,44,85680,120
79,44,85800,120
81,50,85920,120
79,44,86040,120
78,44,86160,120
76,44,86280,120
74,50,86400,120
69,42,86880,120
78,47,87360,88
79,43,87440,88
78,48,87520,88
79,43,87600,88
78,48,87679,88
79,44,87759,88
78,48,87839,88
79,44,87919,88
78,44,87999,88
76,48,88080,132
74,44,88200,132
73,50,88320,120
69,42,88800,120
76,50,89280,120
76,50,90240,120
69,42,90720,120
79,47,91200,88
81,43,91280,88
79,48,91360,88
81,43,91440,88
79,48,91519,88
81,44,91599,88
79,48,91679,88
81,44,91759,88
79,44,91839,88
78,48,91920,132
76,44,92040,132
74,50,92160,120
69,42,92640,120
78,50,93120,120
78,54,94080,120
74,47,94200,132
76,48,94320,132
78,49,94440,132
79,50,94560,132
81,51,94680,132
83,52,94800,132
85,53,94920,132
86,55,95040,132
85,56,95160,132
83,56,95280,132
81,56,95400,132
79,56,95520,132
78,55,95640,132
76,50,95760,132
74,49,95880,132
76,51,96000,132
78,48,96120,132
76,45,96240,132
75,43,96360,132
76,45,96480,132
78,47,96600,132
79,49,96720,132
81,51,96840,132
83,53,96960,132
81,54,97080,132
79,53,97200,132
78,51,97320,132
76,49,97440,132
74,48,97560,132
73,46,97680,132
71,44,97800,132
73,50,97920,132
74,42,98040,132
73,42,98160,132
69,40,98280,132
74,47,98400,120
79,55,98880,132
81,46,99000,132
79,46,99120,132
76,46,99240,132
79,56,99360,132
78,47,99480,132
76,48,99600,132
74,48,99720,132
73,57,99840,132
74,47,99960,132
73,47,100080,132
69,47,100200,132
74,57,100320,120
79,65,100800,132
81,54,100920,132
79,54,101040,132
76,56,101160,132
79,70,101280,132
78,56,101400,132
76,56,101520,132
74,59,101640,132
73,79,101760,120
76,63,101880,120
73,63,102000,120
69,63,102120,120
78,74,102240,120
81,64,102360,120
78,64,102480,120
74,64,102600,120
73,77,102720,120
76,62,102840,120
73,62,102960,120
69,62,103080,120
78,77,103200,120
81,64,103320,120
78,64,103440,120
74,64,103560,120
73,69,103680,90
76,84,103680,90
73,60,103920,90
81,74,103920,90
76,60,103920,90
81,74,104160,90
73,60,104160,90
76,60,104160,90
76,60,104400,90
73,60,104400,90
81,74,104400,90
81,74,104640,420
73,60,104640,420
76,60,104640,420
74,41,105060,60
73,42,105120,120
71,40,105240,120
73,40,105360,120
74,40,105480,120
75,45,105600,240
76,42,105840,240
76,40,106320,240
81,46,106560,240
80,42,106800,240
78,44,107040,240
76,42,107280,240
73,48,107520,240
74,42,107760,240
74,40,108240,240
76,45,108480,240
74,42,108720,240
73,45,108960,240
71,42,109200,240
68,48,109440,240
69,44,109680,240
71,45,110160,240
72,50,110400,240
73,46,110640,240
76,42,111060,60
74,47,111120,240
73,51,111360,720
74,44,112080,120
73,42,112200,120
71,47,112320,240
73,42,112560,120
74,44,112800,120
75,47,113040,120
75,45,113280,240
76,42,113520,240
78,40,114000,60
76,37,114060,60
75,37,114120,60
76,37,114180,60
81,46,114240,120
80,42,114480,120
78,44,114720,120
76,42,114960,120
73,48,115200,240
74,42,115440,240
76,40,115920,60
74,37,115980,60
73,37,116040,60
74,37,116100,60
76,45,116160,120
74,42,116400,120
73,45,116640,120
71,42,116880,120
73,45,117120,360
76,42,117480,120
66,45,117600,360
71,41,117960,120
69,45,118080,480
68,43,118560,60
69,39,118620,60
68,43,118680,60
69,40,118740,60
68,43,118800,80
66,40,118880,80
68,40,118960,80
69,46,119040,120
76,44,119160,120
75,47,119280,120
76,43,119400,120
78,50,119520,120
76,47,119640,120
75,51,119760,120
76,51,119880,120
74,59,120000,120
76,50,120120,120
74,52,120240,120
76,50,120360,120
74,62,120480,120
76,49,120600,120
74,52,120720,120
76,49,120840,120
73,50,120960,120
76,44,121080,120
75,47,121200,120
76,43,121320,120
78,50,121440,120
76,47,121560,120
75,51,121680,120
76,51,121800,120
74,59,121920,120
76,50,122040,120
74,52,122160,120
76,50,122280,120
74,62,122400,120
76,49,122520,120
74,52,122640,120
76,49,122760,120
69,41,122880,480
81,57,123600,120
83,63,123840,120
81,58,124080,120
80,63,124320,120
76,58,124560,120
81,60,124800,480
45,57,125520,120
47,63,125760,120
45,58,126000,120
44,60,126240,120
40,58,126480,120
45,60,126720,480
76,50,127200,480
74,47,127680,480
73,46,128160,480
78,50,128640,360
80,45,129000,40
78,45,129040,40
76,45,129081,40
78,50,129120,120
80,47,129360,120
83,50,129600,240
81,45,129840,240
80,47,130080,240
78,45,130320,240
76,50,130560,240
76,60,131040,480
74,60,131520,480
73,59,132000,480
71,68,132480,360
78,53,132840,120
76,60,132960,120
74,58,133080,120
73,58,133200,120
71,58,133320,120
69,63,133440,480
71,55,133920,60
73,49,133980,60
71,56,134040,60
73,50,134100,60
71,56,134160,80
69,48,134240,80
71,48,134320,80
69,66,134400,240
76,50,134880,480
74,47,135360,480
73,46,135840,480
78,50,136320,360
80,45,136680,40
78,45,136720,40
76,45,136761,40
78,50,136800,120
80,47,137040,120
83,50,137280,240
81,45,137520,240
80,47,137760,240
78,45,138000,240
76,50,138240,240
76,60,138720,480
74,60,139200,480
73,59,139680,480
71,68,140160,360
78,53,140520,120
76,60,140640,120
74,58,140760,120
73,58,140880,120
71,58,141000,120
69,63,141120,480
71,55,141600,60
73,49,141660,60
71,56,141720,60
73,50,141780,60
71,56,141840,80
69,48,141920,80
71,48,142000,80
69,66,142080,120
64,59,142200,120
69,66,142320,120
73,58,142440,120
76,66,142560,120
73,60,142680,120
74,66,142800,120
71,59,142920,120
69,66,143040,120
64,59,143160,120
69,66,143280,120
73,58,143400,120
76,66,143520,120
73,60,143640,120
74,66,143760,120
71,59,143880,120
69,75,144000,240
71,64,144480,240
80,75,144480,240
74,64,144480,240
73,64,144960,240
69,64,144960,240
81,75,144960,240
66,39,145920,240
74,47,145920,240
73,43,146160,120
64,36,146160,120
73,47,146400,240
64,39,146400,240
71,42,146640,120
62,35,146640,120
62,39,146880,240
71,47,146880,240
61,34,147120,120
69,41,147120,120
61,39,147360,240
69,47,147360,240
59,34,147600,120
68,41,147600,120
59,37,147840,960
68,54,147840,960
62,45,147840,960
61,35,148800,480
69,42,148800,480
81,47,149760,240
79,43,150000,120
79,47,150240,240
78,42,150480,120
78,51,150720,240
76,45,150960,120
76,55,151200,240
75,50,151440,120
72,62,151680,240
75,62,151680,1920
71,55,151920,120
71,61,152160,240
69,53,152400,120
69,58,152640,240
67,49,152880,120
67,58,153120,240
66,44,153360,120
75,47,153600,240
76,43,153840,120
79,43,154320,240
77,47,154560,240
78,43,154800,120
81,43,155280,240
78,57,155520,960
75,57,155520,960
76,51,156480,480
79,51,156480,480
79,47,157440,240
78,43,157680,120
78,47,157920,240
76,42,158160,120
76,51,158400,240
74,45,158640,120
74,55,158880,240
73,50,159120,120
73,62,159360,1920
70,68,159360,240
69,60,159600,120
69,67,159840,240
67,58,160080,120
67,63,160320,240
66,53,160560,120
66,63,160800,240
64,48,161040,120
73,47,161280,240
74,43,161520,120
78,43,162000,240
75,47,162240,240
76,43,162480,120
79,43,162960,240
76,57,163200,960
73,57,163200,960
74,51,164160,480
78,51,164160,480
78,47,165120,120
86,44,165240,120
78,48,165360,120
86,44,165480,120
78,51,165600,120
86,47,165720,120
78,52,165840,120
86,47,165960,120
78,55,166080,120
86,50,166200,120
78,57,166320,120
86,51,166440,120
78,58,166560,120
86,55,166680,120
78,60,166800,120
86,55,166920,120
76,64,167040,120
86,57,167160,120
76,63,167280,120
86,57,167400,120
76,63,167520,120
86,57,167640,120
76,63,167760,120
86,57,167880,120
76,63,168000,120
85,57,168120,120
76,62,168240,120
85,57,168360,120
76,60,168480,120
85,55,168600,120
76,59,168720,120
85,52,168840,120
74,47,168960,120
85,44,169080,120
74,48,169200,120
85,44,169320,120
74,51,169440,120
85,47,169560,120
74,52,169680,120
85,47,169800,120
74,55,169920,120
83,50,170040,120
74,57,170160,120
83,51,170280,120
74,58,170400,120
83,55,170520,120
74,60,170640,120
83,55,170760,120
73,64,170880,120
83,57,171000,120
73,63,171120,120
83,57,171240,120
73,63,171360,120
83,57,171480,120
73,63,171600,120
83,57,171720,120
72,63,171840,120
81,57,171960,120
72,62,172080,120
81,57,172200,120
72,60,172320,120
81,55,172440,120
72,59,172560,120
81,52,172680,120
81,51,172800,240
71,41,172800,480
79,47,173040,180
79,51,173280,240
78,46,173520,180
86,51,173760,240
77,40,173760,480
85,47,174000,180
85,51,174240,240
83,46,174480,180
79,59,174720,240
82,59,174720,960
78,52,174960,180
78,59,175200,240
76,51,175440,180
74,61,175680,240
83,61,175680,960
73,51,175920,180
73,61,176160,240
71,55,176400,180
67,39,176640,240
76,47,176640,240
74,43,176880,120
66,36,176880,120
66,39,177120,240
74,47,177120,240
73,42,177360,120
64,35,177360,120
73,47,177600,240
64,39,177600,240
71,41,177840,120
62,34,177840,120
71,47,178080,240
62,39,178080,240
61,34,178320,120
70,41,178320,120
64,45,178560,960
70,54,178560,960
61,37,178560,960
62,35,179520,480
71,42,179520,480
71,68,180480,960
66,57,180480,960
62,57,180480,960
62,51,181440,480
66,51,181440,480
72,61,181440,480
71,39,182400,960
74,46,182400,720
75,40,183120,240
72,39,183360,480
76,46,183360,480
74,60,184800,480
72,56,185280,480
71,55,185760,480
76,60,186240,360
78,54,186600,40
76,54,186640,40
74,54,186681,40
76,60,186720,120
78,56,186960,120
81,60,187200,240
79,54,187440,120
78,56,187680,240
76,54,187920,120
74,60,188160,240
74,49,188640,480
72,49,189120,480
71,48,189600,480
69,56,190080,360
76,43,190440,120
74,49,190560,120
72,48,190680,120
71,48,190800,120
69,48,190920,120
67,52,191040,480
69,45,191520,60
71,40,191580,60
69,46,191640,60
71,41,191700,60
69,46,191760,80
67,39,191840,80
69,39,191920,80
67,54,192000,240
74,60,192480,480
72,56,192960,480
71,55,193440,480
76,60,193920,360
78,54,194280,40
76,54,194320,40
74,54,194361,40
76,60,194400,120
78,56,194640,120
81,60,194880,240
79,54,195120,120
78,56,195360,240
76,54,195600,120
74,60,195840,240
74,49,196320,480
72,49,196800,480
71,48,197280,480
69,56,197760,360
76,43,198120,120
74,49,198240,120
72,48,198360,120
71,48,198480,120
69,48,198600,120
67,52,198720,480
69,45,199200,60
71,40,199260,60
69,46,199320,60
71,41,199380,60
69,46,199440,80
67,39,199520,80
69,39,199600,80
67,59,199680,120
69,53,199800,120
67,59,199920,120
66,52,200040,120
67,59,200160,120
71,54,200280,120
69,59,200400,120
72,53,200520,120
71,59,200640,120
69,53,200760,120
67,59,200880,120
66,52,201000,120
67,59,201120,120
71,54,201240,120
69,59,201360,120
72,53,201480,120
71,59,201600,120
69,53,201720,120
67,59,201840,120
66,52,201960,120
67,59,202080,120
71,54,202200,120
69,59,202320,120
72,53,202440,120
71,59,202560,120
74,53,202680,120
72,59,202800,120
69,52,202920,120
71,59,203040,120
74,54,203160,120
73,59,203280,120
76,53,203400,120
74,59,203520,120
76,53,203640,120
74,59,203760,120
73,52,203880,120
74,59,204000,120
78,54,204120,120
76,59,204240,120
79,53,204360,120
78,59,204480,120
76,53,204600,120
74,59,204720,120
73,52,204840,120
74,59,204960,120
78,54,205080,120
76,59,205200,120
79,53,205320,120
78,59,205440,120
76,53,205560,120
74,59,205680,120
73,52,205800,120
74,59,205920,120
76,54,206040,120
78,64,206160,120
81,58,206280,120
79,64,206400,120
78,58,206520,120
76,64,206640,120
75,57,206760,120
76,64,206880,120
78,59,207000,120
79,64,207120,120
81,58,207240,120
79,69,207360,120
78,67,207480,120
76,65,207600,120
75,62,207720,120
76,64,207840,120
78,65,207960,120
79,67,208080,120
83,60,208200,120
81,67,208320,120
79,60,208440,120
78,67,208560,120
76,59,208680,120
78,67,208800,120
79,61,208920,120
81,67,209040,120
83,60,209160,120
81,67,209280,120
79,66,209400,120
78,65,209520,120
76,64,209640,120
78,67,209760,120
79,61,209880,120
81,67,210000,120
84,60,210120,120
83,67,210240,120
86,57,210360,120
81,62,210480,120
86,57,210600,120
83,67,210720,120
86,56,210840,120
78,62,210960,120
83,56,211080,120
79,67,211200,120
83,57,211320,120
78,62,211440,120
83,57,211560,120
79,67,211680,120
83,58,211800,120
76,62,211920,120
81,57,212040,120
78,67,212160,120
81,57,212280,120
76,62,212400,120
81,57,212520,120
78,67,212640,120
81,57,212760,120
73,62,212880,120
78,57,213000,120
74,67,213120,120
78,59,213240,120
73,61,213360,120
78,58,213480,120
74,67,213600,120
78,59,213720,120
75,62,213840,120
78,59,213960,120
76,67,214080,120
75,61,214200,120
76,65,214320,120
78,60,214440,120
79,70,214560,120
78,60,214680,120
79,65,214800,120
81,60,214920,120
83,59,215040,132
85,60,215160,132
86,61,215280,132
85,64,215400,132
83,65,215520,132
81,66,215640,132
79,66,215760,132
78,65,215880,132
76,63,216000,132
78,64,216120,132
79,67,216240,132
78,70,216360,132
76,68,216480,132
74,67,216600,132
73,65,216720,132
71,64,216840,132
73,67,216960,132
74,67,217080,132
73,57,217200,132
69,57,217320,132
74,66,217440,120
79,66,217920,132
81,56,218040,132
79,56,218160,132
76,56,218280,132
79,66,218400,132
78,57,218520,132
76,57,218640,132
74,57,218760,132
73,68,218880,132
74,56,219000,132
73,55,219120,132
69,55,219240,132
74,68,219360,120
79,68,219840,132
81,56,219960,132
79,56,220080,132
76,58,220200,132
79,70,220320,132
78,58,220440,132
76,58,220560,132
74,61,220680,132
73,79,220800,120
76,63,220920,120
73,63,221040,120
69,63,221160,120
78,74,221280,120
81,64,221400,120
78,64,221520,120
74,64,221640,120
73,77,221760,120
76,59,221880,120
73,60,222000,120
69,60,222120,120
78,77,222240,120
81,64,222360,120
78,64,222480,120
74,64,222600,120
76,84,222720,90
73,69,222720,90
76,60,222960,90
81,74,222960,90
73,60,222960,90
81,74,223200,90
73,60,223200,90
76,60,223200,90
73,60,223440,90
76,60,223440,90
81,74,223440,90
81,74,223680,420
73,60,223680,420
76,60,223680,420
79,41,224100,60
78,42,224160,120
76,40,224280,120
78,40,224400,120
79,40,224520,120
80,45,224640,240
81,42,224880,240
81,40,225360,240
86,46,225600,240
85,42,225840,240
83,44,226080,240
81,42,226320,240
78,48,226560,240
79,42,226800,240
79,40,227280,240
81,45,227520,240
79,42,227760,240
78,45,228000,240
76,42,228240,240
73,48,228480,240
74,44,228720,240
76,45,229200,240
77,50,229440,240
78,46,229680,240
81,42,230100,60
79,47,230160,240
78,51,230400,720
79,44,231120,120
78,42,231240,120
76,47,231360,240
78,42,231600,120
79,44,231840,120
80,47,232080,120
80,45,232320,240
81,42,232560,240
81,40,233040,240
86,46,233280,120
84,42,233520,120
82,44,233760,120
81,42,234000,120
78,48,234240,240
79,42,234480,240
81,40,234960,60
79,37,235020,60
78,37,235080,60
79,37,235140,60
81,45,235200,120
79,42,235440,120
77,45,235680,120
76,42,235920,120
79,45,236160,240
77,42,236400,240
76,40,236880,240
73,46,237120,240
74,42,237360,240
80,46,237840,240
80,49,238080,960
81,42,239040,240
78,46,240000,120
81,44,240120,120
80,47,240240,120
81,43,240360,120
83,50,240480,120
81,47,240600,120
80,53,240720,120
81,53,240840,120
79,62,240960,120
81,53,241080,120
79,55,241200,120
81,52,241320,120
79,64,241440,120
81,51,241560,120
79,55,241680,120
81,49,241800,120
78,56,241920,120
81,49,242040,120
80,51,242160,120
81,47,242280,120
83,54,242400,120
81,47,242520,120
80,51,242640,120
81,53,242760,120
79,59,242880,120
81,50,243000,120
79,55,243120,120
81,52,243240,120
79,62,243360,120
81,49,243480,120
79,55,243600,120
81,49,243720,120
78,41,243840,480
86,57,244560,120
88,63,244800,120
86,58,245040,120
85,63,245280,120
81,58,245520,120
86,60,245760,480
50,57,246480,120
52,63,246720,120
50,58,246960,120
49,60,247200,120
45,58,247440,120
50,60,247680,480
81,50,248160,480
79,47,248640,480
78,46,249120,480
83,50,249600,360
85,45,249960,40
83,45,250000,40
81,45,250041,40
83,50,250080,120
85,47,250320,120
88,50,250560,240
86,45,250800,120
85,47,251040,240
83,45,251280,120
81,50,251520,240
81,60,252000,480
79,60,252480,480
78,59,252960,480
76,68,253440,360
83,53,253800,120
81,60,253920,120
79,58,254040,120
78,58,254160,120
76,58,254280,120
74,63,254400,480
76,55,254880,60
78,49,254940,60
76,56,255000,60
78,50,255060,60
76,56,255120,80
74,48,255200,80
76,48,255280,80
74,66,255360,240
69,50,255840,480
67,47,256320,480
66,46,256800,480
71,50,257280,360
73,45,257640,40
71,45,257680,40
69,45,257721,40
71,50,257760,120
73,47,258000,120
76,50,258240,240
74,45,258480,240
73,47,258720,240
71,45,258960,240
69,50,259200,240
69,56,259680,480
81,66,259680,480
79,66,260160,480
67,56,260160,480
66,55,260640,480
78,64,260640,480
64,57,261120,360
76,70,261120,360
83,58,261480,120
81,66,261600,120
79,63,261720,120
78,63,261840,120
76,63,261960,120
74,69,262080,480
76,60,262560,60
78,53,262620,60
76,61,262680,60
78,55,262740,60
76,61,262800,80
74,52,262880,80
76,52,262960,80
69,62,263040,480
74,74,263040,480
66,62,263040,480
79,66,264000,132
78,55,264120,132
76,54,264240,132
78,54,264360,132
81,65,264480,132
79,55,264600,132
78,55,264720,132
79,55,264840,132
81,62,264960,480
81,50,265920,60
83,45,266160,60
85,45,266400,60
86,45,266640,60
81,54,266880,480
78,45,267360,480
81,50,267840,120
79,44,267960,120
78,44,268080,120
79,44,268200,120
81,49,268320,60
79,46,268560,60
77,54,268800,240
78,45,269040,240
79,66,269760,132
78,55,269880,132
76,54,270000,132
78,54,270120,132
81,65,270240,132
79,55,270360,132
78,55,270480,132
79,55,270600,132
81,62,270720,480
81,50,271680,60
83,45,271920,60
85,45,272160,60
86,45,272400,60
81,54,272640,480
78,45,273120,480
81,50,273600,120
79,44,273720,120
78,44,273840,120
79,44,273960,120
81,50,274080,120
79,44,274200,120
78,44,274320,120
76,44,274440,120
74,45,274560,120
76,46,274680,120
78,48,274800,120
79,49,274920,120
81,50,275040,120
83,51,275160,120
85,53,275280,120
86,54,275400,110
86,58,275520,480
83,49,276000,120
79,54,276360,120
78,59,276480,480
81,54,276960,240
74,54,277320,120
76,59,277440,480
79,54,277920,240
73,54,278280,120
74,53,278400,120
76,53,278520,120
78,54,278640,120
79,55,278760,120
81,56,278880,120
83,56,279000,120
85,57,279120,120
86,60,279240,120
88,63,279360,120
86,55,279480,120
85,55,279600,120
86,55,279720,120
85,63,279840,120
83,51,279960,120
81,54,280080,120
79,54,280200,120
78,61,280320,120
79,51,280440,120
80,54,280560,120
81,54,280680,120
79,58,280800,120
78,51,280920,120
76,54,281040,120
74,50,281160,120
75,59,281280,120
76,51,281400,120
78,54,281520,120
79,54,281640,120
78,57,281760,120
76,53,281880,120
74,56,282000,120
73,54,282120,120
74,66,282240,120
69,59,282360,120
74,66,282480,120
78,58,282600,120
81,66,282720,120
78,60,282840,120
79,66,282960,120
76,59,283080,120
74,66,283200,120
69,59,283320,120
74,66,283440,120
78,58,283560,120
81,66,283680,120
78,60,283800,120
79,66,283920,120
76,59,284040,120
74,75,284160,240
85,75,284640,240
79,64,284640,240
76,64,284640,240
78,64,285120,240
86,75,285120,240
74,64,285120,240
79,47,286080,240
71,39,286080,240
69,36,286320,120
78,43,286320,120
69,39,286560,240
78,47,286560,240
76,42,286800,120
67,35,286800,120
76,47,287040,240
67,39,287040,240
74,41,287280,120
66,34,287280,120
66,39,287520,240
74,47,287520,240
64,34,287760,120
73,41,287760,120
67,45,288000,960
73,54,288000,960
64,37,288000,960
66,35,288960,480
74,42,288960,480
45,57,0,480
38,57,0,480
50,69,0,480
66,45,960,480
62,37,960,480
64,37,1440,480
67,45,1440,480
69,45,1920,480
66,37,1920,480
54,38,3840,240
62,32,4080,240
50,38,4320,240
62,33,4560,240
52,37,4800,240
62,32,5040,240
57,37,5280,60
61,30,5520,60
50,42,5760,480
62,42,5760,480
62,37,6720,480
66,45,6720,480
64,37,7200,480
67,45,7200,480
66,37,7680,480
69,45,7680,480
54,38,9600,240
62,32,9840,240
50,38,10080,240
62,33,10320,240
52,37,10560,240
62,32,10800,240
57,37,11040,240
61,32,11280,240
62,37,11520,120
66,26,11760,120
62,35,12000,120
66,28,12240,120
62,36,12480,120
66,26,12720,120
62,35,12960,120
66,30,13200,120
64,37,13440,120
67,29,13680,120
64,37,13920,120
67,29,14160,120
64,43,14400,132
66,38,14520,132
67,38,14640,132
66,38,14760,132
64,38,14880,132
62,40,15000,132
61,40,15120,132
59,40,15240,132
57,37,15360,120
61,26,15600,120
57,35,15840,120
61,28,16080,120
57,36,16320,120
61,26,16560,120
55,35,16800,120
61,30,17040,120
54,37,17280,120
62,29,17520,120
54,37,17760,120
62,29,18000,120
54,43,18240,132
50,36,18360,132
52,37,18480,132
54,38,18600,132
55,39,18720,132
57,40,18840,132
59,41,18960,132
61,42,19080,132
62,44,19200,480
57,37,20400,120
54,31,20400,120
54,31,20640,120
57,37,20640,120
57,37,20880,120
54,31,20880,120
55,37,21120,480
59,44,21120,480
55,30,22320,120
59,36,22320,120
59,36,22560,120
55,30,22560,120
59,36,22800,120
56,30,22800,120
57,46,23040,240
55,40,23280,240
54,40,23520,120
50,40,23760,120
49,50,24000,240
45,44,24240,240
50,44,24480,120
54,44,24720,120
57,51,24960,240
55,44,25200,240
54,45,25440,120
50,45,25680,120
49,54,25920,240
45,47,26160,240
50,48,26400,120
54,48,26640,120
52,50,26880,240
57,60,26880,240
45,50,26880,240
50,51,27360,240
57,60,27360,240
54,51,27360,240
57,61,27840,240
52,51,27840,240
45,51,27840,240
50,52,28320,240
54,52,28320,240
57,62,28320,240
45,45,29040,90
57,55,29040,90
52,45,29040,90
49,45,29040,90
52,45,29280,90
49,45,29280,90
45,45,29280,90
57,55,29280,90
45,45,29520,90
52,45,29520,90
49,45,29520,90
57,55,29520,90
49,49,29760,420
57,58,29760,420
52,49,29760,420
45,49,29760,420
57,34,30720,240
61,27,30960,240
59,30,31200,240
62,27,31440,240
61,32,31680,240
64,26,31920,240
57,29,32160,240
61,26,32400,240
59,34,32640,240
66,28,32880,240
62,32,33120,240
59,28,33360,240
56,34,33600,240
59,29,33840,240
52,30,34080,240
62,28,34320,240
61,34,34560,240
64,28,34800,240
56,30,35040,240
64,28,35280,240
57,34,35520,240
64,26,35760,240
54,29,36000,240
57,26,36240,240
52,34,36480,240
57,27,36720,240
61,30,36960,240
57,27,37200,240
52,33,37440,480
56,33,37440,480
57,34,38400,240
61,27,38640,240
59,30,38880,240
62,27,39120,240
61,32,39360,240
64,26,39600,120
57,29,39840,240
61,26,40080,120
59,34,40320,240
66,28,40560,240
62,32,40800,240
59,28,41040,240
56,34,41280,240
59,29,41520,120
52,30,41760,240
56,28,42000,120
57,30,42240,480
62,30,42720,480
50,30,42720,480
61,30,43200,480
52,30,43200,960
59,30,43680,480
57,38,44160,480
69,49,44880,120
71,55,45120,120
69,49,45360,120
68,56,45600,120
64,48,45840,120
69,55,46080,480
57,50,46800,120
59,56,47040,120
57,50,47280,120
56,56,47520,120
52,51,47760,120
57,45,48000,120
64,35,48120,120
63,37,48240,120
64,34,48360,120
66,40,48480,120
64,37,48600,120
63,40,48720,120
64,40,48840,120
62,47,48960,120
64,39,49080,120
62,41,49200,120
64,39,49320,120
62,49,49440,120
64,39,49560,120
62,41,49680,120
64,39,49800,120
61,39,49920,120
64,35,50040,120
63,37,50160,120
64,34,50280,120
66,40,50400,120
64,37,50520,120
63,40,50640,120
64,40,50760,120
62,47,50880,120
64,39,51000,120
62,41,51120,120
64,39,51240,120
62,49,51360,120
64,39,51480,120
62,41,51600,120
64,39,51720,120
61,41,51840,480
61,35,52320,120
69,29,52440,120
61,29,52560,120
69,29,52680,120
59,35,52800,120
69,30,52920,120
59,30,53040,120
69,30,53160,120
57,35,53280,120
69,31,53400,120
57,31,53520,120
69,31,53640,120
62,35,53760,120
69,30,53880,120
68,30,54000,120
69,30,54120,120
62,35,54240,120
69,30,54360,120
68,30,54480,120
69,30,54600,120
62,30,54720,120
69,32,54840,120
68,32,54960,120
69,32,55080,120
62,34,55200,120
69,30,55320,120
68,30,55440,120
69,30,55560,120
61,37,55680,120
69,37,55800,120
68,28,55920,120
69,28,56040,120
61,45,56160,120
69,37,56280,120
61,37,56400,120
69,37,56520,120
59,45,56640,120
69,39,56760,120
59,39,56880,120
69,39,57000,120
57,45,57120,120
69,40,57240,120
57,40,57360,120
69,40,57480,120
50,45,57600,120
59,39,57720,120
54,39,57840,120
59,39,57960,120
50,45,58080,120
59,39,58200,120
54,39,58320,120
59,39,58440,120
52,39,58560,120
61,41,58680,120
57,41,58800,120
61,41,58920,120
52,44,59040,120
62,39,59160,120
56,39,59280,120
62,39,59400,120
57,48,59520,120
64,42,59640,120
61,36,59760,120
64,36,59880,120
61,35,60000,120
69,29,60120,120
61,29,60240,120
69,29,60360,120
59,35,60480,120
69,30,60600,120
59,30,60720,120
69,30,60840,120
57,35,60960,120
69,31,61080,120
57,31,61200,120
69,31,61320,120
62,35,61440,120
69,30,61560,120
68,30,61680,120
69,30,61800,120
62,35,61920,120
69,30,62040,120
68,30,62160,120
69,30,62280,120
62,30,62400,120
69,32,62520,120
68,32,62640,120
69,32,62760,120
62,34,62880,120
69,30,63000,120
68,30,63120,120
69,30,63240,120
61,37,63360,120
69,37,63480,120
68,28,63600,120
69,28,63720,120
61,45,63840,120
69,37,63960,120
61,37,64080,120
69,37,64200,120
59,45,64320,120
69,39,64440,120
59,39,64560,120
69,39,64680,120
57,45,64800,120
69,40,64920,120
57,40,65040,120
69,40,65160,120
50,45,65280,120
59,39,65400,120
54,39,65520,120
59,39,65640,120
50,45,65760,120
59,39,65880,120
54,39,66000,120
59,39,66120,120
52,39,66240,120
61,41,66360,120
57,41,66480,120
61,41,66600,120
52,44,66720,120
62,39,66840,120
56,39,66960,120
62,39,67080,120
61,54,67200,480
57,45,67200,480
52,46,67920,120
56,46,67920,120
59,55,67920,120
57,45,68160,480
61,54,68160,480
52,46,68880,120
59,55,68880,120
56,46,68880,120
61,63,69120,240
57,52,69120,240
41,52,69600,240
53,63,69600,240
42,52,70080,240
54,63,70080,240
50,40,71040,960
52,40,72000,960
57,39,72960,480
52,39,73440,480
45,35,73920,480
38,57,74880,480
50,69,74880,480
45,57,74880,480
66,45,75840,480
62,37,75840,480
67,45,76320,480
64,37,76320,480
66,37,76800,480
69,45,76800,480
54,38,78720,240
62,32,78960,240
50,38,79200,240
62,33,79440,240
52,37,79680,240
62,32,79920,240
57,37,80160,60
61,30,80400,60
62,42,80640,480
50,42,80640,480
62,37,81600,480
66,45,81600,480
67,45,82080,480
64,37,82080,480
69,45,82560,480
66,37,82560,480
54,38,84480,240
62,32,84720,240
50,38,84960,240
62,33,85200,240
52,37,85440,240
62,32,85680,240
57,37,85920,240
61,32,86160,240
62,37,86400,120
66,26,86640,120
62,35,86880,120
66,28,87120,120
62,36,87360,120
66,26,87600,120
62,35,87840,120
66,30,88080,120
64,37,88320,120
67,29,88560,120
64,37,88800,120
67,29,89040,120
64,43,89280,132
66,38,89400,132
67,38,89520,132
66,38,89640,132
64,38,89760,132
62,40,89880,132
61,40,90000,132
59,40,90120,132
57,37,90240,120
61,26,90480,120
57,35,90720,120
61,28,90960,120
57,36,91200,120
61,26,91440,120
55,35,91680,120
61,30,91920,120
54,37,92160,120
62,29,92400,120
54,37,92640,120
62,29,92880,120
54,43,93120,132
50,36,93240,132
52,37,93360,132
54,38,93480,132
55,39,93600,132
57,40,93720,132
59,41,93840,132
61,42,93960,132
62,44,94080,480
57,37,95280,120
54,31,95280,120
57,37,95520,120
54,31,95520,120
57,37,95760,120
54,31,95760,120
59,44,96000,480
55,37,96000,480
59,36,97200,120
55,30,97200,120
59,36,97440,120
55,30,97440,120
56,30,97680,120
59,36,97680,120
57,46,97920,240
55,40,98160,240
54,40,98400,120
50,40,98640,120
49,50,98880,240
45,44,99120,240
50,44,99360,120
54,44,99600,120
57,51,99840,240
55,44,100080,240
54,45,100320,120
50,45,100560,120
49,54,100800,240
45,47,101040,240
50,48,101280,120
54,48,101520,120
45,50,101760,240
57,60,101760,240
52,50,101760,240
54,51,102240,240
50,51,102240,240
57,60,102240,240
52,51,102720,240
45,51,102720,240
57,61,102720,240
50,52,103200,240
54,52,103200,240
57,62,103200,240
45,45,103920,90
49,45,103920,90
57,55,103920,90
52,45,103920,90
49,45,104160,90
57,55,104160,90
52,45,104160,90
45,45,104160,90
49,45,104400,90
52,45,104400,90
57,55,104400,90
45,45,104400,90
52,49,104640,420
57,58,104640,420
49,49,104640,420
45,49,104640,420
57,34,105600,240
61,27,105840,240
59,30,106080,240
62,27,106320,240
61,32,106560,240
64,26,106800,240
57,29,107040,240
61,26,107280,240
59,34,107520,240
66,28,107760,240
62,32,108000,240
59,28,108240,240
56,34,108480,240
59,29,108720,240
52,30,108960,240
62,28,109200,240
61,34,109440,240
64,28,109680,240
56,30,109920,240
64,28,110160,240
57,34,110400,240
64,26,110640,240
54,29,110880,240
57,26,111120,240
52,34,111360,240
57,27,111600,240
61,30,111840,240
57,27,112080,240
56,33,112320,480
52,33,112320,480
57,34,113280,240
61,27,113520,240
59,30,113760,240
62,27,114000,240
61,32,114240,240
64,26,114480,120
57,29,114720,240
61,26,114960,120
59,34,115200,240
66,28,115440,240
62,32,115680,240
59,28,115920,240
56,34,116160,240
59,29,116400,120
52,30,116640,240
56,28,116880,120
57,30,117120,480
62,30,117600,480
50,30,117600,480
52,30,118080,960
61,30,118080,480
59,30,118560,480
57,38,119040,480
69,51,119760,120
71,55,120000,120
69,51,120240,120
68,58,120480,120
64,53,120720,120
69,55,120960,480
57,52,121680,120
59,57,121920,120
57,51,122160,120
56,57,122400,120
52,53,122640,120
57,56,122880,120
64,35,123000,120
63,37,123120,120
64,34,123240,120
66,40,123360,120
64,37,123480,120
63,40,123600,120
64,40,123720,120
62,47,123840,120
64,39,123960,120
62,41,124080,120
64,39,124200,120
62,49,124320,120
64,39,124440,120
62,41,124560,120
64,39,124680,120
61,39,124800,120
64,35,124920,120
63,37,125040,120
64,34,125160,120
66,40,125280,120
64,37,125400,120
63,40,125520,120
64,40,125640,120
62,47,125760,120
64,39,125880,120
62,41,126000,120
64,39,126120,120
62,49,126240,120
64,39,126360,120
62,41,126480,120
64,39,126600,120
61,41,126720,480
61,35,127200,120
69,29,127320,120
61,29,127440,120
69,29,127560,120
59,35,127680,120
69,30,127800,120
59,30,127920,120
69,30,128040,120
57,35,128160,120
69,31,128280,120
57,31,128400,120
69,31,128520,120
62,35,128640,120
69,30,128760,120
68,30,128880,120
69,30,129000,120
62,35,129120,120
69,30,129240,120
68,30,129360,120
69,30,129480,120
62,30,129600,120
69,32,129720,120
68,32,129840,120
69,32,129960,120
62,34,130080,120
69,30,130200,120
68,30,130320,120
69,30,130440,120
61,37,130560,120
69,37,130680,120
68,28,130800,120
69,28,130920,120
61,45,131040,120
69,37,131160,120
61,37,131280,120
69,37,131400,120
59,45,131520,120
69,39,131640,120
59,39,131760,120
69,39,131880,120
57,45,132000,120
69,40,132120,120
57,40,132240,120
69,40,132360,120
50,45,132480,120
59,39,132600,120
54,39,132720,120
59,39,132840,120
50,45,132960,120
59,39,133080,120
54,39,133200,120
59,39,133320,120
52,39,133440,120
61,41,133560,120
57,41,133680,120
61,41,133800,120
52,44,133920,120
62,39,134040,120
56,39,134160,120
62,39,134280,120
57,48,134400,120
64,42,134520,120
61,36,134640,120
64,36,134760,120
61,35,134880,120
69,29,135000,120
61,29,135120,120
69,29,135240,120
59,35,135360,120
69,30,135480,120
59,30,135600,120
69,30,135720,120
57,35,135840,120
69,31,135960,120
57,31,136080,120
69,31,136200,120
62,35,136320,120
69,30,136440,120
68,30,136560,120
69,30,136680,120
62,35,136800,120
69,30,136920,120
68,30,137040,120
69,30,137160,120
62,30,137280,120
69,32,137400,120
68,32,137520,120
69,32,137640,120
62,34,137760,120
69,30,137880,120
68,30,138000,120
69,30,138120,120
61,37,138240,120
69,37,138360,120
68,28,138480,120
69,28,138600,120
61,45,138720,120
69,37,138840,120
61,37,138960,120
69,37,139080,120
59,45,139200,120
69,39,139320,120
59,39,139440,120
69,39,139560,120
57,45,139680,120
69,40,139800,120
57,40,139920,120
69,40,140040,120
50,45,140160,120
59,39,140280,120
54,39,140400,120
59,39,140520,120
50,45,140640,120
59,39,140760,120
54,39,140880,120
59,39,141000,120
52,39,141120,120
61,41,141240,120
57,41,141360,120
61,41,141480,120
52,44,141600,120
62,39,141720,120
56,39,141840,120
62,39,141960,120
57,45,142080,480
61,54,142080,480
56,46,142800,120
52,46,142800,120
59,55,142800,120
57,45,143040,480
61,54,143040,480
52,46,143760,120
59,55,143760,120
56,46,143760,120
57,52,144000,240
61,63,144000,240
41,52,144480,240
53,63,144480,240
42,52,144960,240
54,63,144960,240
50,40,145920,960
52,40,146880,960
57,39,147840,480
52,39,148320,480
45,35,148800,480
47,44,151680,1920
59,44,151680,1920
71,43,154080,240
67,36,154080,240
63,36,155040,240
71,43,155040,240
47,69,155520,240
45,62,155760,120
45,67,156000,240
43,59,156240,120
43,61,156480,240
42,52,156720,120
42,51,156960,240
40,45,157200,120
45,44,159360,1920
57,44,159360,1920
66,36,161760,240
69,43,161760,240
69,43,162720,240
61,36,162720,240
45,69,163200,240
43,62,163440,120
43,67,163680,240
42,59,163920,120
42,61,164160,240
40,52,164400,120
40,51,164640,240
38,45,164880,120
62,47,165120,240
61,42,165360,120
61,53,165600,240
59,46,165840,120
59,58,166080,240
57,50,166320,120
57,60,166560,240
56,52,166800,120
56,66,167040,960
44,56,167040,960
58,61,168000,960
46,51,168000,960
59,47,168960,240
57,42,169200,120
57,53,169440,240
55,46,169680,120
55,58,169920,240
54,50,170160,120
54,60,170400,240
53,52,170640,120
41,56,170880,960
53,66,170880,960
42,51,171840,960
54,61,171840,960
55,41,172800,120
62,36,172920,120
59,41,173040,120
62,35,173160,120
55,41,173280,120
62,36,173400,120
59,41,173520,120
62,35,173640,120
55,41,173760,120
62,36,173880,120
59,41,174000,120
62,35,174120,120
55,41,174240,120
62,36,174360,120
59,41,174480,120
62,35,174600,120
54,45,174720,120
61,39,174840,120
58,45,174960,120
61,38,175080,120
54,45,175200,120
61,39,175320,120
58,45,175440,120
61,38,175560,120
53,45,175680,120
62,39,175800,120
56,45,175920,120
62,38,176040,120
53,45,176160,120
62,39,176280,120
56,45,176400,120
62,38,176520,120
54,40,176640,960
42,40,177600,960
47,39,178560,480
42,39,179040,480
35,35,179520,480
47,54,180480,960
59,65,180480,960
45,49,181440,480
57,58,181440,480
55,38,182400,960
43,32,182400,960
54,38,183360,480
42,32,183360,480
59,42,184800,120
67,34,184920,120
59,34,185040,120
67,34,185160,120
57,42,185280,120
67,36,185400,120
57,36,185520,120
67,36,185640,120
55,42,185760,120
67,37,185880,120
55,37,186000,120
67,37,186120,120
60,42,186240,120
67,36,186360,120
66,36,186480,120
67,36,186600,120
60,42,186720,120
67,36,186840,120
66,36,186960,120
67,36,187080,120
60,36,187200,120
67,38,187320,120
66,38,187440,120
67,38,187560,120
60,40,187680,120
67,36,187800,120
66,36,187920,120
67,36,188040,120
59,44,188160,120
67,44,188280,120
66,33,188400,120
67,33,188520,120
59,37,188640,120
67,30,188760,120
59,30,188880,120
67,30,189000,120
57,37,189120,120
67,32,189240,120
57,32,189360,120
67,32,189480,120
55,37,189600,120
67,33,189720,120
55,33,189840,120
67,33,189960,120
48,37,190080,120
57,32,190200,120
52,32,190320,120
57,32,190440,120
48,37,190560,120
57,32,190680,120
52,32,190800,120
57,32,190920,120
50,32,191040,120
59,34,191160,120
55,34,191280,120
59,34,191400,120
50,36,191520,120
60,32,191640,120
54,32,191760,120
60,32,191880,120
55,39,192000,120
62,34,192120,120
59,29,192240,120
62,29,192360,120
59,42,192480,120
67,34,192600,120
59,34,192720,120
67,34,192840,120
57,42,192960,120
67,36,193080,120
57,36,193200,120
67,36,193320,120
55,42,193440,120
67,37,193560,120
55,37,193680,120
67,37,193800,120
60,42,193920,120
67,36,194040,120
66,36,194160,120
67,36,194280,120
60,42,194400,120
67,36,194520,120
66,36,194640,120
67,36,194760,120
60,36,194880,120
67,38,195000,120
66,38,195120,120
67,38,195240,120
60,40,195360,120
67,36,195480,120
66,36,195600,120
67,36,195720,120
59,44,195840,120
67,44,195960,120
66,33,196080,120
67,33,196200,120
59,37,196320,120
67,30,196440,120
59,30,196560,120
67,30,196680,120
57,37,196800,120
67,32,196920,120
57,32,197040,120
67,32,197160,120
55,37,197280,120
67,33,197400,120
55,33,197520,120
67,33,197640,120
48,37,197760,120
57,32,197880,120
52,32,198000,120
57,32,198120,120
48,37,198240,120
57,32,198360,120
52,32,198480,120
57,32,198600,120
50,32,198720,120
59,34,198840,120
55,34,198960,120
59,34,199080,120
50,36,199200,120
60,32,199320,120
54,32,199440,120
60,32,199560,120
59,52,199680,480
55,44,199680,480
54,40,200400,120
62,48,200400,120
62,52,200640,480
55,44,200640,480
54,39,201360,120
62,47,201360,120
55,43,201600,480
62,51,201600,480
62,46,202320,120
54,39,202320,120
62,50,202560,120
55,42,202560,120
62,46,202800,120
54,39,202800,120
62,46,203040,120
55,39,203040,120
55,46,203280,120
52,39,203280,120
57,50,203520,480
54,42,203520,480
49,42,204240,120
57,50,204240,120
57,52,204480,480
50,44,204480,480
57,50,205200,120
49,42,205200,120
50,45,205440,480
57,54,205440,480
51,45,206160,120
59,54,206160,120
59,56,206400,480
52,47,206400,480
59,53,207120,120
51,45,207120,120
52,51,207360,480
59,60,207360,480
61,55,208080,120
52,46,208080,120
62,62,208320,480
54,52,208320,480
52,48,209040,120
61,57,209040,120
54,52,209280,480
62,62,209280,480
66,54,210000,120
67,62,210240,120
66,56,210480,120
67,61,210720,120
63,53,210960,120
64,62,211200,120
63,56,211440,120
64,64,211680,120
61,56,211920,120
62,66,212160,120
61,57,212400,120
62,66,212640,120
58,57,212880,120
59,66,213120,120
58,57,213360,120
59,63,213600,120
60,57,213840,120
57,57,213840,120
59,64,214080,480
55,53,214080,480
64,50,215040,120
55,42,215040,120
55,34,215280,120
64,40,215280,120
64,40,215520,120
55,34,215520,120
55,34,215760,120
64,40,215760,120
64,50,216000,120
55,42,216000,120
64,40,216240,120
55,34,216240,120
56,34,216480,120
64,40,216480,120
64,40,216720,120
56,34,216720,120
57,48,216960,240
55,42,217200,240
54,42,217440,120
50,42,217680,120
49,52,217920,240
45,46,218160,240
50,46,218400,120
54,46,218640,120
57,53,218880,240
55,46,219120,240
54,47,219360,120
50,47,219600,120
49,56,219840,240
45,49,220080,240
50,50,220320,120
54,50,220560,120
57,60,220800,240
45,50,220800,240
52,50,220800,240
57,60,221280,240
50,51,221280,240
54,51,221280,240
57,61,221760,240
45,51,221760,240
52,51,221760,240
54,52,222240,240
50,52,222240,240
57,62,222240,240
52,45,222960,90
45,45,222960,90
49,45,222960,90
57,55,222960,90
52,45,223200,90
49,45,223200,90
45,45,223200,90
57,55,223200,90
52,45,223440,90
49,45,223440,90
45,45,223440,90
57,55,223440,90
49,49,223680,420
57,58,223680,420
45,49,223680,420
52,49,223680,420
62,30,224640,240
66,23,224880,240
64,30,225120,240
67,27,225360,240
66,32,225600,240
69,26,225840,240
62,29,226080,240
66,26,226320,240
64,34,226560,240
71,28,226800,240
67,32,227040,240
64,28,227280,240
61,34,227520,240
64,29,227760,240
57,30,228000,240
67,28,228240,240
66,34,228480,240
69,28,228720,240
61,30,228960,240
69,28,229200,240
62,34,229440,240
69,26,229680,240
59,29,229920,240
62,26,230160,240
57,34,230400,240
62,27,230640,240
66,30,230880,240
62,27,231120,240
61,33,231360,480
57,33,231360,480
62,34,232320,240
65,27,232560,240
64,30,232800,240
67,27,233040,240
65,32,233280,240
69,26,233520,120
62,29,233760,240
65,26,234000,120
64,34,234240,240
70,28,234480,240
67,32,234720,240
64,28,234960,240
61,34,235200,240
64,29,235440,120
57,30,235680,240
61,28,235920,120
62,34,236160,240
69,27,236400,240
60,30,236640,240
69,27,236880,240
58,32,237120,240
65,26,237360,240
64,29,237600,240
62,26,237840,240
57,33,238080,240
62,22,238320,240
65,28,238560,240
62,24,238800,240
61,31,239040,240
57,24,239040,240
43,45,239280,120
55,53,239280,120
42,48,239520,120
54,57,239520,120
52,61,239760,120
40,51,239760,120
50,65,240000,480
38,55,240000,480
74,49,240720,120
76,55,240960,120
74,49,241200,120
73,58,241440,120
69,48,241680,120
74,54,241920,480
62,49,242640,120
64,55,242880,120
62,48,243120,120
61,54,243360,120
57,47,243600,120
62,52,243840,120
69,35,243960,120
68,42,244080,120
69,38,244200,120
71,47,244320,120
69,39,244440,120
68,44,244560,120
69,40,244680,120
67,47,244800,120
69,39,244920,120
67,41,245040,120
69,39,245160,120
67,49,245280,120
69,39,245400,120
67,44,245520,120
69,39,245640,120
66,39,245760,120
69,38,245880,120
68,41,246000,120
69,37,246120,120
71,40,246240,120
69,37,246360,120
68,44,246480,120
69,40,246600,120
67,47,246720,120
69,42,246840,120
67,44,246960,120
69,39,247080,120
67,49,247200,120
69,43,247320,120
67,47,247440,120
69,39,247560,120
66,41,247680,480
66,35,248160,120
74,29,248280,120
66,29,248400,120
74,29,248520,120
64,35,248640,120
74,30,248760,120
64,30,248880,120
74,30,249000,120
62,35,249120,120
74,31,249240,120
62,31,249360,120
74,31,249480,120
67,35,249600,120
74,30,249720,120
73,30,249840,120
74,30,249960,120
67,35,250080,120
74,30,250200,120
73,30,250320,120
74,30,250440,120
67,30,250560,120
74,32,250680,120
73,32,250800,120
74,32,250920,120
67,34,251040,120
74,30,251160,120
73,30,251280,120
74,30,251400,120
66,37,251520,120
74,37,251640,120
73,28,251760,120
74,28,251880,120
66,45,252000,120
74,37,252120,120
66,37,252240,120
74,37,252360,120
64,45,252480,120
74,39,252600,120
64,39,252720,120
74,39,252840,120
62,45,252960,120
74,40,253080,120
62,40,253200,120
74,40,253320,120
55,45,253440,120
64,39,253560,120
59,39,253680,120
64,39,253800,120
55,45,253920,120
64,39,254040,120
59,39,254160,120
64,39,254280,120
57,39,254400,120
66,41,254520,120
62,41,254640,120
66,41,254760,120
57,44,254880,120
67,39,255000,120
61,39,255120,120
67,39,255240,120
62,48,255360,120
66,42,255480,120
62,36,255600,120
66,36,255720,120
54,35,255840,120
62,29,255960,120
54,29,256080,120
62,29,256200,120
52,35,256320,120
62,30,256440,120
52,30,256560,120
62,30,256680,120
50,35,256800,120
62,31,256920,120
50,31,257040,120
62,31,257160,120
55,35,257280,120
62,30,257400,120
61,30,257520,120
62,30,257640,120
55,35,257760,120
62,30,257880,120
61,30,258000,120
62,30,258120,120
55,30,258240,120
62,32,258360,120
61,32,258480,120
62,32,258600,120
55,34,258720,120
62,30,258840,120
61,30,258960,120
62,30,259080,120
54,37,259200,120
62,37,259320,120
61,28,259440,120
62,28,259560,120
42,49,259680,120
50,40,259800,120
42,40,259920,120
50,40,260040,120
40,49,260160,120
50,42,260280,120
40,42,260400,120
50,42,260520,120
38,49,260640,120
50,44,260760,120
38,44,260880,120
50,44,261000,120
43,49,261120,120
52,42,261240,120
47,42,261360,120
52,42,261480,120
43,49,261600,120
52,42,261720,120
47,42,261840,120
52,42,261960,120
45,42,262080,120
54,45,262200,120
50,45,262320,120
54,45,262440,120
45,48,262560,120
55,42,262680,120
49,42,262800,120
55,42,262920,120
38,59,263040,480
50,70,263040,480
45,59,263040,480
62,37,264000,480
66,45,264000,480
64,37,264480,480
67,45,264480,480
69,45,264960,480
66,37,264960,480
54,38,266880,240
62,32,267120,240
50,38,267360,240
62,33,267600,240
52,37,267840,240
62,32,268080,240
57,37,268320,60
61,30,268560,60
62,42,268800,480
50,42,268800,480
62,37,269760,120
66,45,269760,120
62,31,270000,120
66,38,270000,120
64,37,270240,120
67,45,270240,120
67,38,270480,120
64,31,270480,120
66,37,270720,480
69,45,270720,480
54,38,272640,240
62,32,272880,240
50,38,273120,240
62,33,273360,240
52,37,273600,240
62,32,273840,240
57,37,274080,240
61,32,274320,240
54,47,274560,120
62,39,274680,120
57,39,274800,120
62,39,274920,120
54,48,275040,120
62,40,275160,120
57,40,275280,120
62,40,275400,120
55,48,275520,120
62,40,275640,120
59,40,275760,120
62,40,275880,120
55,49,276000,120
62,40,276120,120
59,40,276240,120
62,40,276360,120
57,47,276480,120
66,38,276600,120
62,38,276720,120
66,38,276840,120
57,48,276960,120
66,40,277080,120
62,40,277200,120
66,40,277320,120
57,48,277440,120
67,39,277560,120
64,39,277680,120
67,39,277800,120
57,49,277920,120
67,40,278040,120
64,40,278160,120
67,40,278280,120
54,47,278400,120
62,39,278520,120
57,41,278640,120
62,42,278760,120
54,48,278880,120
62,41,279000,120
57,42,279120,120
62,44,279240,120
55,52,279360,120
62,43,279480,120
59,43,279600,120
62,43,279720,120
55,49,279840,120
62,40,279960,120
59,40,280080,120
62,40,280200,120
57,47,280320,120
66,37,280440,120
62,37,280560,120
66,37,280680,120
57,48,280800,120
66,39,280920,120
62,39,281040,120
66,39,281160,120
57,47,281280,120
67,37,281400,120
64,37,281520,120
67,37,281640,120
57,48,281760,120
67,38,281880,120
64,38,282000,120
67,38,282120,120
62,45,282240,480
66,54,282240,480
57,46,282960,120
64,55,282960,120
62,45,283200,480
66,54,283200,480
57,46,283920,120
64,55,283920,120
66,63,284160,240
62,52,284160,240
46,52,284640,240
58,63,284640,240
47,52,285120,240
59,63,285120,240
43,40,286080,960
55,40,286080,960
45,40,287040,960
57,40,287040,960
50,39,288000,480
45,39,288480,480
38,35,288960,480
