note,velocity,position,duration
73,50,0,360
74,43,360,120
73,43,480,240
76,48,720,480
76,42,1200,216
71,50,1440,360
73,45,1800,120
71,45,1920,240
74,49,2160,480
74,45,2640,216
69,53,2880,480
69,46,3360,240
71,50,3600,480
71,46,4080,240
73,53,4320,480
71,35,4800,240
76,49,4800,120
74,47,4920,120
73,53,5040,480
69,45,5040,480
71,49,5520,216
68,41,5520,216
73,50,5760,360
74,43,6120,120
73,43,6240,240
76,48,6480,480
76,42,6960,216
71,50,7200,360
73,45,7560,120
71,45,7680,240
74,49,7920,480
74,45,8400,216
69,55,8640,480
71,63,9120,240
73,68,9360,480
71,56,9840,240
74,67,9840,240
66,56,9840,240
64,47,10080,480
73,56,10080,480
69,47,10080,480
68,34,10560,240
62,34,10560,240
71,40,10560,240
64,34,10560,240
69,38,10800,480
64,32,10800,480
61,32,10800,480
73,42,11520,360
74,36,11880,120
73,36,12000,240
76,40,12240,480
76,35,12720,216
71,42,12960,360
73,38,13320,120
71,38,13440,240
74,41,13680,480
74,38,14160,216
69,45,14400,480
69,39,14880,240
71,42,15120,480
71,39,15600,240
73,45,15840,480
71,29,16320,240
76,41,16320,120
74,39,16440,120
73,45,16560,480
69,38,16560,480
71,41,17040,216
68,34,17040,216
73,50,17280,360
74,43,17640,120
73,43,17760,240
76,48,18000,480
76,42,18480,216
71,50,18720,360
73,45,19080,120
71,45,19200,240
74,49,19440,480
74,45,19920,216
69,55,20160,480
71,63,20640,240
73,68,20880,480
66,56,21360,240
74,67,21360,240
71,56,21360,240
73,56,21600,480
64,47,21600,480
69,47,21600,480
64,34,22080,240
68,34,22080,240
62,34,22080,240
71,40,22080,240
69,38,22320,480
64,32,22320,480
61,32,22320,480
76,50,23040,360
78,45,23400,120
76,46,23520,240
78,53,23760,480
78,42,24240,150
78,49,24420,30
80,53,24450,30
81,57,24480,360
80,47,24840,120
78,50,24960,240
78,53,25200,240
76,45,25440,240
76,42,25680,120
76,59,25920,240
73,50,26160,240
69,49,26400,60
76,61,26640,240
74,53,26880,240
71,48,27120,60
76,62,27360,240
73,51,27600,240
69,45,27840,220
69,44,28080,480
73,44,28080,480
68,37,28560,216
71,37,28560,216
73,50,28800,360
74,43,29160,120
73,43,29280,240
76,48,29520,480
76,42,30000,216
71,50,30240,360
73,45,30600,120
71,45,30720,240
74,49,30960,480
74,45,31440,216
69,55,31680,480
71,63,32160,240
73,68,32400,480
71,56,32880,240
66,56,32880,240
74,67,32880,240
64,47,33120,480
73,56,33120,480
69,47,33120,480
68,42,33600,240
71,50,33600,240
64,42,33600,240
71,47,33840,480
64,40,33840,720
68,40,33840,480
73,47,34320,240
69,47,34320,240
73,75,34560,480
69,63,34560,480
64,63,34560,480
74,75,35040,240
68,63,35040,240
64,63,35040,240
64,68,35280,480
76,80,35280,480
69,68,35280,480
78,56,35760,120
80,44,35880,60
81,46,35940,60
69,53,36000,480
68,34,36480,240
73,41,36480,120
71,39,36600,120
69,39,36720,480
76,50,37440,360
78,45,37800,120
76,46,37920,240
78,53,38160,480
78,42,38640,150
78,49,38820,30
80,53,38850,30
81,57,38880,360
80,47,39240,120
78,50,39360,240
78,53,39600,240
76,45,39840,240
76,42,40080,120
76,59,40320,240
73,50,40560,240
69,49,40800,60
76,61,41040,240
74,53,41280,240
71,48,41520,60
76,62,41760,240
73,51,42000,240
69,45,42240,220
69,44,42480,480
73,44,42480,480
71,37,42960,216
68,37,42960,216
73,42,43200,360
74,36,43560,120
73,36,43680,240
76,40,43920,480
76,35,44400,216
71,42,44640,360
73,38,45000,120
71,38,45120,240
74,41,45360,480
74,38,45840,216
69,55,46080,480
71,63,46560,240
73,68,46800,480
74,67,47280,240
71,56,47280,240
66,56,47280,240
69,54,47520,480
73,64,47520,480
64,54,47520,480
68,48,48000,240
64,48,48000,240
71,57,48000,240
71,61,48240,480
68,51,48240,480
64,46,48240,720
73,54,48720,240
69,54,48720,240
64,63,48960,480
73,75,48960,480
69,63,48960,480
74,75,49440,240
64,63,49440,240
68,63,49440,240
64,68,49680,480
69,68,49680,480
76,80,49680,480
78,56,50160,120
80,44,50280,60
81,46,50340,60
69,51,50400,480
68,30,50880,240
73,36,50880,120
71,35,51000,120
69,35,51120,480
72,50,53280,120
73,46,53400,96
73,45,53640,120
72,45,53760,120
73,46,53880,120
75,50,54000,120
76,46,54120,96
76,47,54360,120
78,50,54480,120
76,48,54600,120
76,50,54720,120
71,47,54840,96
71,48,55080,120
70,49,55200,120
71,50,55320,120
73,51,55440,120
74,48,55560,96
74,49,55800,120
76,52,55920,120
74,50,56040,90
74,53,56160,120
69,47,56280,96
69,51,56520,120
68,52,56640,120
69,52,56760,120
70,57,56880,120
71,50,57000,96
71,52,57240,120
70,52,57360,120
71,52,57480,120
72,61,57600,120
73,56,57720,120
72,62,57840,120
73,54,57960,120
76,62,58080,120
74,53,58200,120
73,56,58320,120
71,58,58440,120
69,61,58560,120
68,64,58680,120
66,66,58800,120
64,69,58920,120
73,77,59040,480
69,64,59040,480
64,64,59040,480
74,77,59520,240
71,64,59520,240
75,82,59760,240
72,69,59760,240
73,66,60000,240
76,78,60000,240
73,77,60360,120
69,64,60360,120
64,69,60480,240
71,82,60480,240
68,69,60480,240
71,77,60720,240
64,64,60720,240
68,64,60720,240
69,68,60960,240
73,80,60960,240
64,68,60960,240
70,69,61200,240
73,82,61200,240
64,69,61200,480
71,68,61440,240
74,80,61440,240
68,59,61800,120
71,70,61800,120
69,76,61920,120
69,70,62160,120
71,70,62400,40
73,68,62440,40
71,68,62480,40
69,70,62520,60
71,70,62580,60
73,77,62640,120
73,70,62880,120
71,62,63120,240
66,62,63120,240
74,73,63120,240
69,64,63360,240
64,64,63360,240
73,76,63360,240
69,62,63600,240
73,74,63600,240
64,62,63600,240
71,72,63840,240
62,61,63840,240
68,61,63840,240
64,61,63840,240
69,76,64080,240
61,64,64080,240
64,64,64080,240
72,50,64800,120
73,46,64920,96
73,45,65160,120
72,45,65280,120
73,46,65400,120
75,50,65520,120
76,46,65640,96
76,47,65880,120
78,50,66000,120
76,48,66120,120
76,50,66240,120
71,47,66360,96
71,48,66600,120
70,49,66720,120
71,50,66840,120
73,51,66960,120
74,48,67080,96
74,49,67320,120
76,52,67440,120
74,50,67560,90
74,53,67680,120
69,47,67800,96
69,51,68040,120
68,52,68160,120
69,52,68280,120
70,57,68400,120
71,50,68520,96
71,52,68760,120
70,52,68880,120
71,52,69000,120
72,61,69120,120
73,56,69240,120
72,62,69360,120
73,54,69480,120
76,62,69600,120
74,53,69720,120
73,56,69840,120
71,58,69960,120
69,61,70080,120
68,64,70200,120
66,66,70320,120
64,69,70440,120
64,64,70560,480
73,77,70560,480
69,64,70560,480
71,64,71040,240
74,77,71040,240
75,82,71280,240
72,69,71280,240
73,66,71520,240
76,78,71520,240
69,64,71880,120
73,77,71880,120
68,69,72000,240
71,82,72000,240
64,69,72000,240
71,77,72240,240
64,64,72240,240
68,64,72240,240
64,68,72480,240
69,68,72480,240
73,80,72480,240
64,69,72720,480
73,82,72720,240
70,69,72720,240
74,80,72960,240
71,68,72960,240
68,59,73320,120
71,70,73320,120
69,76,73440,120
69,70,73680,120
71,70,73920,40
73,68,73960,40
71,68,74000,40
69,70,74040,60
71,70,74100,60
73,77,74160,120
73,70,74400,120
74,73,74640,240
71,62,74640,240
66,62,74640,240
73,76,74880,240
69,64,74880,240
64,64,74880,240
64,62,75120,240
73,74,75120,240
69,62,75120,240
62,61,75360,240
64,61,75360,240
68,61,75360,240
71,72,75360,240
61,64,75600,240
64,64,75600,240
69,76,75600,240
75,50,76320,120
76,46,76440,96
76,45,76680,120
75,45,76800,120
76,46,76920,120
77,50,77040,120
78,46,77160,96
78,47,77400,120
77,50,77520,120
78,48,77640,120
80,55,77760,120
81,47,77880,96
79,55,78000,120
80,48,78120,96
77,55,78240,120
78,47,78360,96
75,55,78480,120
76,46,78600,96
76,55,78840,108
76,57,78960,108
76,58,79080,108
76,72,79200,120
73,64,79320,120
69,59,79440,120
76,57,79560,108
76,59,79680,108
76,61,79800,108
76,70,79920,120
74,62,80040,120
68,58,80160,120
76,59,80280,108
76,62,80400,108
76,64,80520,108
76,69,80640,120
73,63,80760,120
69,48,80880,120
76,52,81000,120
73,51,81120,120
69,49,81240,120
73,51,81360,480
69,43,81360,480
71,47,81840,240
68,39,81840,240
72,50,82080,120
73,46,82200,96
73,45,82440,120
72,45,82560,120
73,46,82680,120
75,50,82800,120
76,46,82920,96
76,47,83160,120
78,50,83280,120
76,48,83400,90
76,50,83520,120
71,47,83640,96
71,48,83880,120
70,49,84000,120
71,50,84120,120
73,51,84240,120
74,48,84360,96
74,49,84600,120
76,52,84720,120
74,50,84840,90
74,53,84960,120
69,47,85080,96
69,51,85320,120
73,52,85440,120
71,52,85560,120
74,57,85680,120
73,50,85800,96
73,52,86040,120
76,57,86160,120
74,54,86280,120
72,60,86400,120
73,54,86520,96
73,55,86760,120
74,59,86880,120
71,54,87000,120
71,60,87120,360
68,48,87120,480
72,59,87480,120
69,51,87600,240
73,64,87600,240
73,76,87840,180
69,64,87840,180
64,64,87840,180
73,76,88080,180
69,64,88080,180
64,64,88080,180
64,60,88320,180
74,71,88320,180
68,60,88320,180
64,63,88560,180
69,63,88560,180
76,75,88560,180
76,68,88800,180
69,57,88800,180
78,72,89040,120
69,61,89040,120
80,68,89160,60
81,68,89220,60
69,76,89280,240
61,64,89280,240
64,64,89280,240
64,62,89520,240
61,62,89520,240
69,74,89520,240
64,61,89760,240
68,61,89760,240
71,72,89760,240
62,61,89760,240
64,64,90000,240
69,76,90000,240
61,64,90000,240
75,50,90720,120
76,46,90840,96
76,45,91080,120
75,45,91200,120
76,46,91320,120
77,50,91440,120
78,46,91560,96
78,47,91800,120
77,50,91920,120
78,48,92040,120
80,55,92160,120
81,47,92280,96
79,55,92400,120
80,48,92520,96
77,55,92640,120
78,47,92760,96
75,55,92880,120
76,46,93000,96
76,55,93240,108
76,57,93360,108
76,58,93480,108
76,72,93600,120
73,64,93720,120
69,59,93840,120
76,57,93960,108
76,59,94080,108
76,61,94200,108
76,70,94320,120
74,62,94440,120
68,58,94560,120
76,59,94680,108
76,62,94800,108
76,64,94920,108
76,69,95040,120
73,63,95160,120
69,48,95280,120
76,52,95400,120
73,51,95520,120
69,49,95640,120
73,51,95760,480
69,43,95760,480
71,47,96240,240
68,39,96240,240
72,50,96480,120
73,46,96600,96
73,45,96840,120
72,45,96960,120
73,46,97080,120
75,50,97200,120
76,46,97320,96
76,47,97560,120
78,50,97680,120
76,48,97800,90
76,50,97920,120
71,47,98040,96
71,48,98280,120
70,49,98400,120
71,50,98520,120
73,51,98640,120
74,48,98760,96
74,49,99000,120
76,52,99120,120
74,50,99240,90
74,53,99360,120
69,47,99480,96
69,51,99720,120
73,52,99840,120
71,52,99960,120
74,57,100080,120
73,50,100200,96
73,52,100440,120
76,57,100560,120
74,54,100680,120
72,60,100800,120
73,54,100920,96
73,55,101160,120
74,59,101280,120
71,54,101400,120
71,60,101520,360
68,48,101520,480
72,59,101880,120
69,51,102000,240
73,64,102000,240
73,76,102240,180
64,64,102240,180
69,64,102240,180
69,64,102480,180
64,64,102480,180
73,76,102480,180
74,71,102720,180
64,60,102720,180
68,60,102720,180
69,63,102960,180
76,75,102960,180
64,63,102960,180
76,68,103200,180
69,57,103200,180
78,72,103440,120
69,61,103440,120
80,68,103560,60
81,68,103620,60
69,76,103680,240
64,64,103680,240
61,64,103680,240
64,62,103920,240
69,74,103920,240
61,62,103920,240
64,61,104160,240
71,72,104160,240
68,61,104160,240
62,61,104160,240
69,76,104400,240
64,64,104400,240
61,64,104400,240
73,53,106560,60
73,49,106800,60
74,49,107040,40
76,47,107080,40
74,47,107120,40
73,49,107160,60
74,49,107220,60
76,53,107280,240
78,53,107760,66
76,52,107820,66
74,51,107880,66
73,49,107940,66
71,53,108000,60
71,49,108240,60
73,49,108480,40
74,47,108520,40
73,47,108560,40
71,49,108600,60
73,49,108660,60
74,53,108720,240
76,53,109200,66
74,52,109260,66
73,51,109320,66
71,49,109380,66
69,53,109440,60
69,49,109680,60
69,49,109920,40
71,47,109960,40
69,47,110000,40
68,49,110040,60
69,49,110100,60
71,53,110160,60
71,49,110400,60
71,49,110640,40
73,47,110680,40
71,47,110720,40
69,49,110760,60
71,49,110820,60
73,58,110880,60
73,54,111120,60
71,61,111360,240
76,61,111360,60
74,51,111420,180
69,55,111600,480
73,55,111600,480
71,53,112080,240
68,53,112080,240
73,74,112320,96
69,53,112400,96
64,53,112480,80
73,72,112560,96
69,53,112640,96
64,53,112720,80
74,71,112800,96
71,53,112880,96
64,53,112960,80
76,70,113040,96
73,53,113120,96
64,53,113200,80
76,71,113280,96
73,53,113360,96
64,53,113440,80
78,68,113520,60
76,66,113580,60
74,64,113640,60
73,62,113700,60
71,74,113760,96
68,53,113840,96
64,53,113920,80
71,72,114000,96
68,53,114080,96
64,53,114160,80
73,71,114240,96
69,53,114320,96
64,53,114400,80
74,70,114480,96
71,53,114560,96
64,53,114640,80
74,71,114720,96
71,53,114800,96
64,53,114880,80
76,68,114960,60
74,66,115020,60
73,64,115080,60
71,62,115140,60
69,74,115200,96
64,53,115280,96
61,53,115360,80
69,72,115440,96
64,53,115520,96
61,53,115600,80
71,71,115680,96
64,53,115760,96
62,53,115840,80
73,74,115920,96
69,53,116000,96
64,53,116080,80
73,72,116160,96
69,53,116240,96
64,53,116320,80
74,71,116400,96
71,53,116480,96
66,53,116560,80
73,74,116640,96
69,53,116720,96
64,53,116800,80
73,72,116880,96
69,53,116960,96
64,53,117040,80
71,71,117120,96
68,53,117200,96
62,53,117280,80
69,74,117360,96
64,53,117440,96
61,53,117520,96
57,72,117600,120
73,53,118080,60
73,49,118320,60
74,49,118560,40
76,47,118600,40
74,47,118640,40
73,49,118680,60
74,49,118740,60
76,53,118800,240
78,53,119280,66
76,52,119340,66
74,51,119400,66
73,49,119460,66
71,53,119520,60
71,49,119760,60
73,49,120000,40
74,47,120040,40
73,47,120080,40
71,49,120120,60
73,49,120180,60
74,53,120240,240
76,53,120720,66
74,52,120780,66
73,51,120840,66
71,49,120900,66
69,53,120960,60
69,49,121200,60
69,49,121440,40
71,47,121480,40
69,47,121520,40
68,49,121560,60
69,49,121620,60
71,53,121680,60
71,49,121920,60
71,49,122160,40
73,47,122200,40
71,47,122240,40
69,49,122280,60
71,49,122340,60
73,58,122400,60
73,54,122640,60
71,61,122880,240
76,61,122880,60
74,51,122940,180
69,55,123120,480
73,55,123120,480
71,53,123600,240
68,53,123600,240
73,74,123840,96
69,53,123920,96
64,53,124000,80
73,72,124080,96
69,53,124160,96
64,53,124240,80
74,71,124320,96
71,53,124400,96
64,53,124479,80
76,70,124560,96
73,53,124640,96
64,53,124720,80
76,71,124800,96
73,53,124880,96
64,53,124960,80
78,68,125040,60
76,66,125100,60
74,64,125160,60
73,62,125220,60
71,74,125280,96
68,53,125360,96
64,53,125440,80
71,72,125520,96
68,53,125600,96
64,53,125680,80
73,71,125760,96
69,53,125840,96
64,53,125920,80
74,70,126000,96
71,53,126080,96
64,53,126160,80
74,71,126240,96
71,53,126320,96
64,53,126400,80
76,68,126480,60
74,66,126540,60
73,64,126600,60
71,62,126660,60
69,74,126720,96
64,53,126800,96
61,53,126880,80
69,72,126960,96
64,53,127040,96
61,53,127120,80
71,71,127200,96
64,53,127280,96
62,53,127360,80
73,74,127440,96
69,53,127520,96
64,53,127600,80
73,72,127680,96
69,53,127760,96
64,53,127840,80
74,71,127920,96
71,53,128000,96
66,53,128080,80
73,74,128160,96
69,53,128240,96
64,53,128320,80
73,72,128400,96
69,53,128480,96
64,53,128560,80
71,71,128640,96
68,53,128720,96
62,53,128800,80
69,74,128880,96
64,53,128960,96
61,53,129040,96
57,72,129120,120
76,50,129600,60
74,48,129840,60
76,50,130080,60
78,50,130320,120
78,50,130800,20
80,44,130820,20
78,44,130840,20
76,50,130860,60
78,49,130920,60
80,49,130980,60
81,56,131040,120
80,52,131280,60
78,50,131520,60
76,50,131760,120
73,50,132240,20
74,44,132260,20
73,44,132280,20
71,50,132300,60
73,51,132360,60
74,55,132420,60
76,60,132480,240
73,58,132720,60
69,58,133140,60
76,65,133200,240
74,59,133440,60
71,66,133860,60
76,73,133920,240
73,66,134160,240
69,50,134400,60
73,50,134640,480
69,50,134640,480
71,46,135120,240
68,46,135120,240
73,53,135360,60
73,49,135600,60
74,49,135840,40
76,47,135880,40
74,47,135920,40
73,49,135960,60
74,49,136020,60
76,53,136080,240
78,53,136560,66
76,52,136620,66
74,51,136680,66
73,49,136740,66
71,53,136800,60
71,49,137040,60
73,49,137280,40
74,47,137320,40
73,47,137360,40
71,49,137400,60
73,49,137460,60
74,53,137520,240
76,53,138000,66
74,52,138060,66
73,51,138120,66
71,49,138180,66
69,53,138240,60
69,49,138480,60
71,49,138720,40
73,47,138760,40
71,47,138800,40
69,49,138840,60
71,49,138900,60
73,53,138960,60
73,49,139200,60
74,49,139440,40
76,47,139480,40
74,47,139520,40
73,49,139560,60
74,49,139620,60
73,53,139680,60
73,49,139920,60
71,49,140160,40
73,47,140200,40
71,47,140240,40
69,49,140280,60
71,49,140340,60
71,53,140400,240
68,45,140400,480
72,55,140640,240
69,47,140880,240
73,56,140880,240
73,74,141120,96
69,53,141200,96
64,53,141280,80
73,72,141360,96
69,53,141440,96
64,53,141520,80
74,71,141600,96
68,53,141680,96
64,53,141760,80
76,74,141840,96
73,53,141920,96
69,53,142000,80
76,72,142080,96
73,53,142160,96
69,53,142240,80
78,71,142320,96
71,53,142400,96
69,53,142480,80
73,74,142560,96
69,53,142640,96
64,53,142720,80
73,72,142800,96
69,53,142880,96
64,53,142960,80
71,71,143040,96
68,53,143120,96
62,53,143200,80
69,74,143280,96
64,53,143360,96
61,53,143440,96
57,72,143520,120
76,50,144000,60
74,48,144240,60
76,50,144480,60
78,50,144720,120
78,50,145200,20
80,44,145220,20
78,44,145240,20
76,50,145260,60
78,49,145320,60
80,49,145380,60
81,56,145440,120
80,52,145680,60
78,50,145920,60
76,50,146160,120
73,50,146640,20
74,44,146660,20
73,44,146680,20
71,50,146700,60
73,51,146760,60
74,55,146820,60
76,60,146880,240
73,58,147120,60
69,58,147540,60
76,65,147600,240
74,59,147840,60
71,66,148260,60
76,73,148320,240
73,66,148560,240
69,50,148800,60
69,50,149040,480
73,50,149040,480
71,46,149520,240
68,46,149520,240
73,53,149760,60
73,49,150000,60
74,49,150240,40
76,47,150280,40
74,47,150320,40
73,49,150360,60
74,49,150420,60
76,53,150480,240
78,53,150960,66
76,52,151020,66
74,51,151080,66
73,49,151140,66
71,53,151200,60
71,49,151440,60
73,49,151680,40
74,47,151720,40
73,47,151760,40
71,49,151800,60
73,49,151860,60
74,53,151920,240
76,53,152400,66
74,52,152460,66
73,51,152520,66
71,49,152580,66
69,53,152640,60
69,49,152880,60
71,49,153120,40
73,47,153160,40
71,47,153200,40
69,49,153240,60
71,49,153300,60
73,53,153360,60
73,49,153600,60
74,49,153840,40
76,47,153880,40
74,47,153920,40
73,49,153960,60
74,49,154020,60
73,53,154080,60
73,49,154320,60
71,49,154560,40
73,47,154600,40
71,47,154640,40
69,49,154680,60
71,49,154740,60
71,53,154800,240
68,45,154800,480
72,55,155040,240
73,56,155280,240
69,47,155280,240
73,74,155520,96
69,53,155600,96
64,53,155680,80
73,72,155760,96
69,53,155840,96
64,53,155920,80
74,71,156000,96
68,53,156080,96
64,53,156160,80
76,74,156240,96
73,53,156320,96
69,53,156400,80
76,72,156480,96
73,53,156560,96
69,53,156640,80
78,71,156720,96
71,53,156800,96
69,53,156880,80
73,74,156960,96
69,53,157040,96
64,53,157120,80
73,72,157200,96
69,53,157280,96
64,53,157360,80
71,71,157440,96
68,53,157520,96
62,53,157600,80
69,74,157680,96
64,53,157760,96
61,53,157840,96
57,72,157920,120
72,50,159840,120
71,47,159960,120
69,50,160080,120
71,46,160200,120
72,47,160320,120
74,48,160440,120
76,50,160560,120
75,46,160680,120
77,55,160800,120
76,53,160920,120
74,51,161040,120
72,48,161160,120
71,50,161280,120
69,47,161400,120
68,50,161520,120
69,46,161640,120
71,47,161760,120
72,48,161880,120
74,50,162000,120
73,46,162120,120
76,54,162240,120
74,52,162360,120
72,51,162480,120
71,49,162600,120
69,50,162720,120
76,47,162840,120
75,50,162960,120
76,46,163080,120
72,47,163200,120
69,48,163320,120
68,50,163440,120
76,46,163560,120
77,55,163680,120
76,53,163800,120
74,51,163920,120
71,48,164040,115
71,50,164160,120
69,47,164280,120
68,50,164400,120
69,46,164520,120
71,47,164640,120
72,48,164760,111
72,41,164880,480
69,41,164880,480
68,41,165360,240
71,41,165360,240
84,53,165600,120
72,44,165600,120
71,40,165720,120
83,48,165720,120
69,46,165840,120
81,55,165840,120
71,44,165960,120
83,52,165960,120
72,47,166080,120
84,55,166080,120
86,52,166200,120
74,43,166200,120
76,53,166320,120
88,63,166320,120
87,58,166440,120
75,43,166440,120
77,53,166560,120
89,63,166560,120
88,60,166680,120
76,50,166680,120
86,64,166800,120
74,54,166800,120
72,48,166920,120
84,57,166920,120
83,66,167040,120
71,56,167040,120
81,58,167160,120
69,49,167160,120
68,54,167280,120
80,64,167280,120
81,58,167400,120
69,49,167400,120
83,64,167520,120
71,54,167520,120
84,60,167640,120
72,51,167640,120
74,49,167760,120
86,66,167760,120
85,60,167880,120
73,45,167880,120
76,60,168000,120
88,71,168000,120
86,68,168120,120
74,57,168120,120
84,65,168240,120
72,55,168240,120
83,62,168360,120
71,52,168360,120
69,55,168480,120
81,65,168480,120
68,51,168600,120
80,60,168600,120
81,66,168720,120
69,56,168720,120
84,60,168840,120
72,51,168840,120
71,53,168960,120
83,63,168960,120
86,63,169080,120
74,53,169080,120
72,56,169200,120
84,66,169200,120
83,60,169320,120
71,51,169320,120
72,60,169440,120
84,71,169440,120
88,67,169560,120
76,56,169560,120
74,55,169680,120
86,65,169680,120
89,65,169800,120
77,55,169800,120
88,67,169920,120
76,56,169920,120
87,59,170040,120
75,50,170040,120
76,56,170160,120
88,66,170160,120
76,60,170280,120
64,51,170280,120
66,53,170400,120
78,63,170400,120
80,63,170520,120
68,53,170520,120
69,53,170640,480
81,63,170640,480
72,50,171360,120
71,47,171480,120
69,50,171600,120
71,46,171720,120
72,47,171840,120
74,48,171960,120
76,50,172080,120
75,46,172200,120
77,55,172320,120
76,53,172440,120
74,51,172560,120
72,48,172680,120
71,50,172800,120
69,47,172920,120
68,50,173040,120
69,46,173160,120
71,47,173280,120
72,48,173400,120
74,50,173520,120
73,46,173640,120
76,54,173760,120
74,52,173880,120
72,51,174000,120
71,49,174120,120
69,50,174240,120
76,47,174360,120
75,50,174480,120
76,46,174600,120
72,47,174720,120
69,48,174840,120
68,50,174960,120
76,46,175080,120
77,55,175200,120
76,53,175320,120
74,51,175440,120
71,48,175560,109
71,50,175680,120
69,47,175800,120
68,50,175920,120
69,46,176040,120
71,47,176160,120
72,48,176280,110
72,41,176400,480
69,41,176400,480
68,41,176880,240
71,41,176880,240
84,53,177120,120
72,44,177120,120
83,48,177240,120
71,40,177240,120
69,46,177360,120
81,55,177360,120
71,44,177480,120
83,52,177480,120
72,47,177600,120
84,55,177600,120
86,52,177720,120
74,43,177720,120
88,63,177840,120
76,53,177840,120
75,43,177960,120
87,58,177960,120
89,63,178080,120
77,53,178080,120
88,60,178200,120
76,50,178200,120
86,64,178320,120
74,54,178320,120
72,48,178440,120
84,57,178440,120
83,66,178560,120
71,56,178560,120
69,49,178680,120
81,58,178680,120
68,54,178800,120
80,64,178800,120
69,49,178920,120
81,58,178920,120
71,54,179040,120
83,64,179040,120
84,60,179160,120
72,51,179160,120
74,49,179280,120
86,66,179280,120
85,60,179400,120
73,45,179400,120
88,71,179520,120
76,60,179520,120
74,57,179640,120
86,68,179640,120
84,65,179760,120
72,55,179760,120
71,52,179880,120
83,62,179880,120
81,65,180000,120
69,55,180000,120
68,51,180120,120
80,60,180120,120
81,66,180240,120
69,56,180240,120
72,51,180360,120
84,60,180360,120
71,53,180480,120
83,63,180480,120
86,63,180600,120
74,53,180600,120
72,56,180720,120
84,66,180720,120
71,51,180840,120
83,60,180840,120
72,60,180960,120
84,71,180960,120
88,67,181080,120
76,56,181080,120
86,65,181200,120
74,55,181200,120
77,55,181320,120
89,65,181320,120
88,67,181440,120
76,56,181440,120
87,59,181560,120
75,50,181560,120
88,66,181680,120
76,56,181680,120
76,60,181800,120
64,51,181800,120
66,53,181920,120
78,63,181920,120
80,63,182040,120
68,53,182040,120
69,53,182160,480
81,63,182160,480
69,50,182880,120
68,46,183000,120
69,50,183120,120
81,55,183240,120
80,54,183360,120
79,53,183480,108
79,50,183600,120
77,48,183720,120
76,48,183840,120
77,48,183960,120
76,50,184080,120
77,48,184200,120
81,50,184320,120
80,45,184440,120
81,50,184560,120
80,45,184680,120
81,50,184800,120
77,46,184920,108
77,50,185040,120
76,47,185160,120
75,47,185280,120
76,47,185400,120
75,50,185520,120
76,45,185640,108
76,50,185760,120
74,46,185880,120
72,46,186000,120
71,46,186120,120
69,44,186240,120
76,50,186360,120
77,47,186480,120
74,47,186600,120
71,47,186720,120
69,47,186840,120
68,50,186960,120
71,47,187080,108
71,50,187200,120
69,43,187320,120
72,55,187440,120
71,49,187560,120
74,58,187680,120
72,51,187800,120
71,54,187920,40
72,56,187960,40
74,58,188000,40
69,55,188040,360
72,65,188040,360
68,36,188400,180
71,51,188400,180
72,50,188640,120
71,47,188760,120
69,50,188880,120
71,46,189000,120
72,47,189120,120
74,48,189240,120
76,50,189360,120
75,46,189480,120
77,55,189600,120
76,53,189720,120
74,51,189840,120
72,48,189960,120
71,50,190080,120
69,47,190200,120
68,50,190320,120
69,46,190440,120
71,47,190560,120
72,48,190680,120
74,50,190800,120
73,46,190920,120
76,54,191040,120
74,52,191160,120
72,51,191280,120
71,49,191400,120
69,50,191520,120
68,47,191640,120
69,50,191760,120
72,46,191880,120
71,52,192000,120
74,48,192120,120
72,56,192240,120
71,50,192360,120
72,54,192480,120
76,50,192600,120
74,55,192720,120
77,48,192840,120
76,60,192960,120
75,54,193080,120
76,56,193200,120
64,43,193320,120
66,43,193440,120
68,46,193560,120
69,51,193680,120
68,44,193800,120
69,50,193920,120
64,45,194040,120
60,49,194160,120
64,46,194280,120
69,55,194400,120
81,65,194400,120
80,60,194520,120
68,51,194520,120
81,66,194640,120
69,56,194640,120
72,51,194760,120
84,60,194760,120
83,63,194880,120
71,53,194880,120
86,63,195000,120
74,53,195000,120
72,56,195120,120
84,66,195120,120
71,51,195240,120
83,60,195240,120
84,71,195360,120
72,60,195360,120
88,67,195480,120
76,56,195480,120
74,55,195600,120
86,65,195600,120
77,55,195720,120
89,65,195720,120
76,56,195840,120
88,67,195840,120
87,59,195960,120
75,50,195960,120
76,56,196080,120
88,66,196080,120
64,51,196200,120
76,60,196200,120
78,63,196320,120
66,53,196320,120
80,63,196440,120
68,53,196440,120
81,63,196560,480
69,53,196560,480
69,50,197280,120
68,46,197400,120
69,50,197520,120
81,55,197640,120
80,54,197760,120
79,53,197880,108
79,50,198000,120
77,48,198120,120
76,48,198240,120
77,48,198360,120
76,50,198480,120
77,48,198600,120
81,50,198720,120
80,45,198840,120
81,50,198960,120
80,45,199080,120
81,50,199200,120
77,46,199320,108
77,50,199440,120
76,47,199560,120
75,47,199680,120
76,47,199800,120
75,50,199920,120
76,45,200040,108
76,50,200160,120
74,46,200280,120
72,46,200400,120
71,46,200520,120
69,44,200640,120
76,50,200760,120
77,47,200880,120
74,47,201000,120
71,47,201120,120
69,47,201240,120
68,50,201360,120
71,47,201480,108
71,50,201600,120
69,43,201720,120
72,55,201840,120
71,49,201960,120
74,58,202080,120
72,51,202200,120
71,54,202320,40
72,56,202360,40
74,58,202400,40
72,65,202440,360
69,55,202440,360
68,36,202800,180
71,51,202800,180
72,50,203040,120
71,47,203160,120
69,50,203280,120
71,46,203400,120
72,47,203520,120
74,48,203640,120
76,50,203760,120
75,46,203880,120
77,55,204000,120
76,53,204120,120
74,51,204240,120
72,48,204360,120
71,50,204480,120
69,47,204600,120
68,50,204720,120
69,46,204840,120
71,47,204960,120
72,48,205080,120
74,50,205200,120
73,46,205320,120
76,54,205440,120
74,52,205560,120
72,51,205680,120
71,49,205800,120
69,50,205920,120
68,47,206040,120
69,50,206160,120
72,46,206280,120
71,52,206400,120
74,48,206520,120
72,56,206640,120
71,50,206760,120
72,54,206880,120
76,50,207000,120
74,55,207120,120
77,48,207240,120
76,60,207360,120
75,54,207480,120
76,56,207600,120
64,43,207720,120
66,43,207840,120
68,46,207960,120
69,51,208080,120
68,44,208200,120
69,50,208320,120
64,45,208440,120
60,49,208560,120
64,46,208680,120
69,55,208800,120
81,65,208800,120
80,60,208920,120
68,51,208920,120
81,66,209040,120
69,56,209040,120
84,60,209160,120
72,51,209160,120
71,53,209280,120
83,63,209280,120
86,63,209400,120
74,53,209400,120
84,66,209520,120
72,56,209520,120
83,60,209640,120
71,51,209640,120
84,71,209760,120
72,60,209760,120
76,56,209880,120
88,67,209880,120
74,55,210000,120
86,65,210000,120
77,55,210120,120
89,65,210120,120
88,67,210240,120
76,56,210240,120
87,59,210360,120
75,50,210360,120
88,66,210480,120
76,56,210480,120
64,51,210600,120
76,60,210600,120
66,53,210720,120
78,63,210720,120
80,63,210840,120
68,53,210840,120
81,63,210960,480
69,53,210960,480
73,50,213120,120
69,50,213120,120
64,50,213240,120
69,44,213360,120
73,44,213360,120
85,52,213360,240
81,52,213360,240
64,49,213480,120
74,45,213600,120
86,53,213600,240
83,53,213600,240
71,45,213600,120
64,50,213720,120
88,55,213840,240
85,55,213840,240
76,46,213840,120
73,46,213840,120
64,50,213960,120
74,45,214080,120
86,53,214080,240
83,53,214080,240
71,45,214080,120
64,49,214200,120
73,44,214320,120
81,52,214320,240
85,52,214320,240
69,44,214320,120
64,48,214440,120
68,50,214560,120
71,50,214560,120
64,50,214680,120
83,52,214800,240
68,44,214800,120
71,44,214800,120
80,52,214800,240
64,49,214920,120
81,53,215040,240
73,45,215040,120
69,45,215040,120
85,53,215040,240
64,50,215160,120
74,46,215280,120
71,46,215280,120
83,55,215280,240
86,55,215280,240
64,50,215400,120
81,53,215520,240
85,53,215520,240
69,45,215520,120
73,45,215520,120
64,49,215640,120
68,44,215760,120
83,52,215760,240
71,44,215760,120
80,52,215760,240
64,48,215880,120
64,54,216000,120
69,54,216000,120
61,50,216120,120
69,45,216240,120
81,54,216240,240
64,45,216240,120
61,50,216360,120
69,54,216480,120
64,54,216480,120
61,50,216600,120
68,55,216720,120
71,55,216720,120
64,51,216840,120
83,56,216960,240
71,47,216960,120
68,47,216960,120
64,51,217080,120
71,50,217200,120
68,50,217200,120
64,48,217320,120
69,46,217440,120
73,46,217440,120
85,55,217440,240
81,55,217440,240
64,50,217560,120
86,53,217680,240
83,53,217680,240
74,45,217680,120
71,45,217680,120
64,49,217800,120
85,52,217920,240
73,44,217920,120
69,44,217920,120
81,52,217920,240
64,48,218040,120
83,52,218160,240
68,44,218160,120
71,44,218160,120
80,52,218160,240
64,49,218280,120
75,56,218400,120
76,53,218520,120
75,56,218640,120
76,53,218760,120
69,60,218880,120
73,60,218880,120
64,60,219000,120
85,68,219120,240
69,52,219120,120
73,52,219120,120
81,57,219120,240
64,58,219240,120
86,69,219360,240
74,54,219360,120
71,54,219360,120
83,58,219360,240
64,60,219480,120
85,61,219600,240
88,72,219600,240
73,55,219600,120
76,55,219600,120
64,60,219720,120
71,54,219840,120
74,54,219840,120
83,58,219840,240
86,69,219840,240
64,58,219960,120
81,57,220080,240
85,68,220080,240
73,52,220080,120
69,52,220080,120
64,57,220200,120
68,60,220320,120
71,60,220320,120
64,60,220440,120
71,52,220560,120
80,57,220560,240
83,68,220560,240
68,52,220560,120
64,58,220680,120
85,69,220800,240
81,58,220800,240
73,54,220800,120
69,54,220800,120
64,60,220920,120
74,55,221040,120
71,55,221040,120
83,61,221040,240
86,72,221040,240
64,60,221160,120
69,54,221280,120
73,54,221280,120
85,69,221280,240
81,58,221280,240
64,58,221400,120
68,52,221520,120
83,68,221520,240
80,57,221520,240
71,52,221520,120
64,57,221640,120
69,64,221760,120
64,64,221760,120
61,60,221880,120
81,70,222000,240
64,54,222000,120
69,54,222000,120
73,59,222000,240
61,60,222120,120
83,70,222240,240
71,64,222240,120
68,64,222240,120
76,59,222240,240
64,60,222360,120
81,61,222480,240
85,73,222480,240
73,66,222480,120
69,66,222480,120
64,61,222600,120
73,56,222720,120
69,56,222720,120
66,61,222840,120
71,60,222960,120
74,60,222960,120
66,57,223080,120
73,60,223200,120
69,60,223200,120
64,66,223320,120
69,47,223440,120
81,50,223440,240
85,60,223440,240
73,47,223440,120
64,50,223560,120
83,59,223680,240
71,45,223680,120
68,45,223680,120
80,49,223680,240
64,49,223800,120
81,53,223920,240
69,53,223920,120
64,48,224040,120
61,50,224160,120
64,41,224280,120
69,48,224400,120
73,50,224640,120
69,50,224640,120
64,50,224760,120
73,44,224880,120
85,52,224880,240
81,52,224880,240
69,44,224880,120
64,49,225000,120
83,53,225120,240
86,53,225120,240
71,45,225120,120
74,45,225120,120
64,50,225240,120
76,46,225360,120
88,55,225360,240
73,46,225360,120
85,55,225360,240
64,50,225480,120
83,53,225600,240
74,45,225600,120
86,53,225600,240
71,45,225600,120
64,49,225720,120
69,44,225840,120
73,44,225840,120
81,52,225840,240
85,52,225840,240
64,48,225960,120
68,50,226080,120
71,50,226080,120
64,50,226200,120
80,52,226320,240
71,44,226320,120
83,52,226320,240
68,44,226320,120
64,49,226440,120
69,45,226560,120
81,53,226560,240
85,53,226560,240
73,45,226560,120
64,50,226680,120
74,46,226800,120
71,46,226800,120
86,55,226800,240
83,55,226800,240
64,50,226920,120
85,53,227040,240
69,45,227040,120
73,45,227040,120
81,53,227040,240
64,49,227160,120
83,52,227280,240
71,44,227280,120
80,52,227280,240
68,44,227280,120
64,48,227400,120
64,54,227520,120
69,54,227520,120
61,50,227640,120
64,45,227760,120
69,45,227760,120
81,54,227760,240
61,50,227880,120
64,54,228000,120
69,54,228000,120
61,50,228120,120
71,55,228240,120
68,55,228240,120
64,51,228360,120
68,47,228480,120
83,56,228480,240
71,47,228480,120
64,51,228600,120
71,50,228720,120
68,50,228720,120
64,48,228840,120
73,46,228960,120
69,46,228960,120
85,55,228960,240
81,55,228960,240
64,50,229080,120
86,53,229200,240
74,45,229200,120
83,53,229200,240
71,45,229200,120
64,49,229320,120
85,52,229440,240
69,44,229440,120
73,44,229440,120
81,52,229440,240
64,48,229560,120
68,44,229680,120
80,52,229680,240
83,52,229680,240
71,44,229680,120
64,49,229800,120
75,56,229920,120
76,53,230040,120
75,56,230160,120
76,53,230280,120
69,60,230400,120
73,60,230400,120
64,60,230520,120
81,57,230640,240
73,52,230640,120
85,68,230640,240
69,52,230640,120
64,58,230760,120
74,54,230880,120
86,69,230880,240
83,58,230880,240
71,54,230880,120
64,60,231000,120
73,55,231120,120
76,55,231120,120
85,61,231120,240
88,72,231120,240
64,60,231240,120
86,69,231360,240
71,54,231360,120
83,58,231360,240
74,54,231360,120
64,58,231480,120
81,57,231600,240
73,52,231600,120
85,68,231600,240
69,52,231600,120
64,57,231720,120
68,60,231840,120
71,60,231840,120
64,60,231960,120
71,52,232080,120
80,57,232080,240
68,52,232080,120
83,68,232080,240
64,58,232200,120
69,54,232320,120
73,54,232320,120
81,58,232320,240
85,69,232320,240
64,60,232440,120
71,55,232560,120
83,61,232560,240
86,72,232560,240
74,55,232560,120
64,60,232680,120
73,54,232800,120
85,69,232800,240
81,58,232800,240
69,54,232800,120
64,58,232920,120
71,52,233040,120
83,68,233040,240
80,57,233040,240
68,52,233040,120
64,57,233160,120
69,64,233280,120
64,64,233280,120
61,60,233400,120
81,70,233520,240
64,54,233520,120
69,54,233520,120
73,59,233520,240
61,60,233640,120
68,64,233760,120
76,59,233760,240
71,64,233760,120
83,70,233760,240
64,60,233880,120
69,66,234000,120
85,73,234000,240
73,66,234000,120
81,61,234000,240
64,61,234120,120
73,56,234240,120
69,56,234240,120
66,61,234360,120
71,60,234480,120
74,60,234480,120
66,57,234600,120
69,60,234720,120
73,60,234720,120
64,66,234840,120
85,60,234960,240
81,50,234960,240
69,47,234960,120
73,47,234960,120
64,50,235080,120
80,49,235200,240
71,45,235200,120
83,59,235200,240
68,45,235200,120
64,49,235320,120
69,53,235440,120
81,53,235440,240
64,48,235560,120
61,50,235680,120
64,41,235800,120
69,48,235920,120
76,54,236160,360
78,54,236520,60
76,50,236580,60
74,55,236640,60
73,54,236700,60
71,53,236760,60
69,52,236820,60
77,57,236880,120
78,54,237000,114
78,54,237120,120
81,58,237600,120
80,55,237720,120
83,58,237840,120
81,58,237960,120
80,59,238080,120
78,60,238200,120
75,62,238320,120
76,57,238440,112
76,57,238560,120
76,63,239040,360
78,55,239400,60
76,50,239460,60
74,58,239520,60
73,56,239580,60
71,54,239640,60
69,53,239700,60
76,63,239760,120
74,63,239880,240
78,55,240120,60
76,50,240180,60
74,58,240240,60
73,56,240300,60
71,54,240360,60
69,53,240420,60
69,62,240480,240
68,58,240720,240
63,50,240960,240
69,59,240960,240
64,53,241200,720
69,53,241200,480
73,63,241200,480
71,47,241680,240
68,39,241680,240
73,49,241920,120
69,49,241920,120
64,49,242040,120
85,56,242160,240
73,43,242160,120
69,43,242160,120
81,47,242160,240
64,48,242280,120
83,48,242400,240
71,44,242400,120
86,57,242400,240
74,44,242400,120
64,49,242520,120
76,45,242640,120
85,50,242640,240
88,59,242640,240
73,45,242640,120
64,49,242760,120
83,48,242880,240
86,57,242880,240
71,44,242880,120
74,44,242880,120
64,48,243000,120
81,47,243120,240
69,43,243120,120
85,56,243120,240
73,43,243120,120
64,47,243240,120
71,49,243360,120
68,49,243360,120
64,49,243480,120
83,56,243600,240
71,43,243600,120
80,47,243600,240
68,43,243600,120
64,48,243720,120
69,44,243840,120
85,57,243840,240
81,48,243840,240
73,44,243840,120
64,49,243960,120
86,59,244080,240
83,50,244080,240
71,45,244080,120
74,45,244080,120
64,49,244200,120
73,44,244320,120
81,48,244320,240
85,57,244320,240
69,44,244320,120
64,48,244440,120
68,43,244560,120
71,43,244560,120
80,47,244560,240
83,56,244560,240
64,47,244680,120
69,53,244800,120
64,53,244800,120
61,49,244920,120
81,58,245040,240
73,48,245040,240
69,44,245040,120
64,44,245040,120
61,49,245160,120
76,48,245280,240
71,53,245280,120
83,58,245280,240
68,53,245280,120
64,49,245400,120
73,54,245520,120
85,60,245520,240
81,50,245520,240
69,54,245520,120
64,50,245640,120
73,46,245760,120
69,46,245760,120
66,50,245880,120
71,49,246000,120
74,49,246000,120
66,47,246120,120
73,49,246240,120
69,49,246240,120
64,54,246360,120
85,49,246480,240
69,39,246480,120
81,41,246480,240
73,39,246480,120
64,44,246600,120
68,37,246720,120
80,40,246720,240
83,48,246720,240
71,37,246720,120
64,40,246840,120
83,49,246960,240
71,44,246960,120
80,49,246960,480
68,44,246960,120
64,46,247080,120
68,42,247200,120
72,43,247200,120
84,49,247200,240
64,45,247320,120
85,49,247440,240
81,49,247440,240
69,42,247440,120
73,42,247440,120
64,42,247549,120
73,60,247680,120
69,60,247680,120
64,56,247800,120
73,50,247920,120
85,66,247920,240
69,50,247920,120
81,55,247920,240
64,56,248040,120
71,60,248160,120
83,55,248160,240
86,66,248160,240
74,60,248160,120
64,56,248280,120
88,69,248400,240
73,62,248400,120
85,57,248400,240
76,62,248400,120
69,57,248520,120
76,52,248640,120
73,52,248640,120
69,57,248760,120
78,56,248880,120
74,56,248880,120
69,54,249000,120
73,56,249120,120
69,56,249120,120
64,62,249240,120
69,55,249360,120
85,71,249360,240
73,55,249360,120
81,59,249360,240
64,59,249480,120
68,54,249600,120
80,58,249600,240
83,70,249600,240
71,54,249600,120
64,58,249720,120
69,63,249840,120
81,63,249840,240
64,56,249960,120
61,59,250080,120
64,49,250200,120
69,57,250320,120
76,54,250560,360
78,54,250920,60
76,50,250980,60
74,55,251040,60
73,54,251100,60
71,53,251160,60
69,52,251220,60
77,57,251280,120
78,54,251400,111
78,54,251520,120
81,58,252000,120
80,55,252120,120
83,58,252240,120
81,58,252360,120
80,59,252480,120
78,60,252600,120
75,62,252720,120
76,57,252840,112
76,57,252960,120
76,63,253440,360
78,55,253800,60
76,50,253860,60
74,58,253920,60
73,56,253980,60
71,54,254040,60
69,53,254100,60
76,63,254160,120
74,63,254280,240
78,55,254520,60
76,50,254580,60
74,58,254640,60
73,56,254700,60
71,54,254760,60
69,53,254820,60
69,62,254880,240
68,58,255120,240
63,50,255360,240
69,59,255360,240
73,63,255600,480
64,53,255600,720
69,53,255600,480
71,47,256080,240
68,39,256080,240
73,49,256320,120
69,49,256320,120
64,49,256440,120
85,56,256560,240
73,43,256560,120
81,47,256560,240
69,43,256560,120
64,48,256680,120
86,57,256800,240
83,48,256800,240
74,44,256800,120
71,44,256800,120
64,49,256920,120
88,59,257040,240
85,50,257040,240
76,45,257040,120
73,45,257040,120
64,49,257160,120
74,44,257280,120
71,44,257280,120
83,48,257280,240
86,57,257280,240
64,48,257400,120
73,43,257520,120
85,56,257520,240
69,43,257520,120
81,47,257520,240
64,47,257640,120
68,49,257760,120
71,49,257760,120
64,49,257880,120
83,56,258000,240
68,43,258000,120
80,47,258000,240
71,43,258000,120
64,48,258120,120
69,44,258240,120
81,48,258240,240
85,57,258240,240
73,44,258240,120
64,49,258360,120
83,50,258480,240
74,45,258480,120
86,59,258480,240
71,45,258480,120
64,49,258600,120
85,57,258720,240
81,48,258720,240
69,44,258720,120
73,44,258720,120
64,48,258840,120
80,47,258960,240
71,43,258960,120
68,43,258960,120
83,56,258960,240
64,47,259080,120
64,53,259200,120
69,53,259200,120
61,49,259320,120
69,44,259440,120
81,58,259440,240
73,48,259440,240
64,44,259440,120
61,49,259560,120
68,53,259680,120
71,53,259680,120
76,48,259680,240
83,58,259680,240
64,49,259800,120
69,54,259920,120
85,60,259920,240
73,54,259920,120
81,50,259920,240
64,50,260040,120
69,46,260160,120
73,46,260160,120
66,50,260280,120
71,49,260400,120
74,49,260400,120
66,47,260520,120
73,49,260640,120
69,49,260640,120
64,54,260760,120
81,41,260880,240
69,39,260880,120
73,39,260880,120
85,49,260880,240
64,44,261000,120
80,40,261120,240
71,37,261120,120
68,37,261120,120
83,48,261120,240
64,40,261240,120
68,44,261360,120
71,44,261360,120
83,49,261360,240
80,49,261360,480
64,46,261480,120
84,49,261600,240
68,42,261600,120
72,43,261600,120
64,45,261720,120
73,42,261840,120
85,49,261840,240
69,42,261840,120
81,49,261840,240
64,42,261949,120
73,60,262080,120
69,60,262080,120
64,56,262200,120
85,66,262320,240
73,50,262320,120
69,50,262320,120
81,55,262320,240
64,56,262440,120
86,66,262560,240
74,60,262560,120
83,55,262560,240
71,60,262560,120
64,56,262680,120
88,69,262800,240
76,62,262800,120
85,57,262800,240
73,62,262800,120
69,57,262920,120
73,52,263040,120
76,52,263040,120
69,57,263160,120
74,56,263280,120
78,56,263280,120
69,54,263400,120
73,56,263520,120
69,56,263520,120
64,62,263640,120
85,71,263760,240
69,55,263760,120
81,59,263760,240
73,55,263760,120
64,59,263880,120
71,54,264000,120
80,58,264000,240
68,54,264000,120
83,70,264000,240
64,58,264120,120
69,63,264240,120
81,63,264240,240
64,56,264360,120
61,59,264480,120
64,49,264600,120
69,57,264720,120
73,50,266400,480
73,50,266880,720
74,53,267600,240
78,56,267840,240
76,50,268080,240
76,50,268560,240
78,54,268800,120
76,50,268920,120
74,50,269040,120
73,50,269160,111
73,54,269280,240
71,50,269520,234
71,50,269760,720
73,54,270480,240
76,57,270720,240
74,53,270960,240
74,50,271440,240
76,56,271680,120
74,50,271800,120
73,50,271920,120
71,50,272040,112
71,57,272160,240
69,53,272400,240
69,53,272760,120
68,56,272880,120
69,53,273000,120
71,58,273120,120
69,55,273240,120
74,62,273360,120
73,58,273480,120
70,63,273600,240
71,58,273840,240
71,49,274200,120
70,53,274320,120
71,49,274440,120
73,53,274560,120
71,49,274680,120
76,53,274800,120
74,49,274920,120
74,53,275040,120
73,45,275160,120
72,49,275280,120
73,46,275400,120
74,55,275520,120
73,46,275640,120
72,50,275760,120
73,47,275880,120
76,59,276000,120
74,51,276120,120
73,53,276240,120
74,51,276360,120
73,62,276480,120
71,52,276600,120
70,53,276720,120
71,49,276840,120
69,63,276960,120
68,50,277080,120
67,54,277200,120
68,51,277320,120
66,64,277440,120
64,54,277560,120
63,56,277680,120
64,54,277800,120
73,71,277920,240
69,71,277920,240
69,65,278160,480
73,65,278160,480
73,50,278640,240
70,50,278640,240
74,50,278880,240
71,50,278880,240
72,50,279120,240
75,50,279120,240
73,53,279360,120
76,53,279360,120
69,49,279480,63
71,50,279600,63
73,51,279720,63
74,52,279840,63
76,53,279960,63
78,54,280080,63
80,55,280200,63
81,56,280320,120
83,57,280440,120
85,58,280560,120
69,71,280800,120
73,71,280800,120
71,63,280920,108
68,62,280920,108
68,65,281040,480
71,65,281040,480
71,50,281520,240
68,50,281520,240
69,50,281760,240
72,50,281760,240
73,50,282000,240
70,50,282000,240
71,53,282240,120
74,53,282240,120
71,49,282360,63
73,50,282480,63
74,51,282600,63
76,52,282720,63
78,53,282840,63
80,54,282960,63
81,55,283080,63
83,56,283200,120
85,57,283320,120
86,58,283440,120
71,57,283680,120
69,53,283800,108
69,53,283920,360
69,53,284280,120
74,56,284400,120
73,53,284520,120
70,55,284640,120
71,52,284760,120
76,52,284880,120
74,53,285000,120
72,58,285120,120
73,53,285240,120
81,54,285360,90
81,55,285480,90
81,57,285600,90
81,55,285720,90
81,55,285840,90
81,55,285960,90
81,58,286080,120
78,52,286200,120
74,54,286320,120
71,52,286440,120
76,59,286560,120
78,54,286680,40
76,54,286720,40
75,54,286760,40
76,59,286800,120
78,56,286920,120
69,58,287040,720
68,53,287760,240
73,53,287760,120
71,50,287880,120
64,45,288000,960
71,53,288000,480
68,45,288000,480
69,44,288480,240
64,43,288900,60
66,46,288960,60
69,42,289020,60
68,46,289080,60
71,44,289140,60
69,44,289200,60
73,40,289260,60
71,44,289320,60
74,41,289380,60
73,50,289440,480
73,50,289920,720
74,53,290640,240
78,56,290880,240
76,50,291120,240
76,50,291600,240
78,54,291840,120
76,50,291960,120
74,50,292080,120
73,50,292200,108
73,54,292320,240
71,50,292560,232
71,50,292800,720
73,54,293520,240
76,57,293760,240
74,53,294000,240
74,50,294480,240
76,56,294720,120
74,50,294840,120
73,50,294960,120
71,50,295080,108
71,57,295200,240
69,53,295440,240
69,53,295800,120
68,56,295920,120
69,53,296040,120
71,58,296160,120
69,55,296280,120
74,62,296400,120
73,58,296520,120
70,63,296640,240
71,58,296880,240
71,49,297240,120
70,53,297360,120
71,49,297480,120
73,53,297600,120
71,49,297720,120
76,53,297840,120
74,49,297960,108
74,53,298080,120
73,49,298200,120
72,49,298320,120
73,49,298440,120
74,55,298560,120
73,50,298680,120
72,50,298800,120
73,50,298920,120
76,59,299040,120
74,53,299160,120
73,53,299280,120
74,53,299400,120
73,62,299520,120
71,53,299640,120
70,53,299760,120
71,53,299880,120
69,63,300000,120
68,54,300120,120
67,54,300240,120
68,54,300360,120
66,64,300480,120
64,56,300600,120
63,56,300720,120
64,56,300840,120
73,71,300960,240
69,71,300960,240
73,65,301200,480
69,65,301200,480
70,50,301680,240
73,50,301680,240
71,50,301920,240
74,50,301920,240
72,50,302160,240
75,50,302160,240
73,53,302400,120
76,53,302400,120
69,49,302520,63
71,50,302640,63
73,51,302760,63
74,52,302880,63
76,53,303000,63
78,54,303120,63
80,55,303240,63
81,56,303360,120
83,57,303480,120
85,58,303600,120
73,71,303840,120
69,71,303840,120
68,62,303960,108
71,63,303960,108
71,65,304080,480
68,65,304080,480
71,50,304560,240
68,50,304560,240
72,50,304800,240
69,50,304800,240
70,50,305040,240
73,50,305040,240
71,53,305280,120
74,53,305280,120
71,49,305400,63
73,50,305520,63
74,51,305640,63
76,52,305760,63
78,53,305880,63
80,54,306000,63
81,55,306120,63
83,56,306240,120
85,57,306360,120
86,58,306480,120
71,57,306720,120
69,53,306840,120
69,53,306960,360
69,53,307320,120
74,56,307440,120
73,53,307560,120
70,55,307680,120
71,52,307800,120
76,52,307920,120
74,53,308040,120
72,58,308160,120
73,53,308280,120
81,54,308400,90
81,55,308520,90
81,57,308640,90
81,55,308760,90
81,55,308880,90
81,55,309000,90
81,58,309120,120
78,56,309240,120
74,54,309360,120
71,49,309480,120
76,59,309600,120
78,54,309720,40
76,54,309760,40
75,54,309800,40
76,59,309840,120
78,56,309960,120
69,58,310080,720
73,53,310800,120
68,53,310800,240
71,50,310920,120
64,45,311040,960
68,45,311040,480
71,53,311040,480
69,46,311520,120
71,43,311640,40
69,45,311680,40
68,46,311720,40
69,52,311760,120
71,54,311880,120
73,55,312000,120
74,40,312120,40
73,40,312160,40
71,40,312200,40
73,51,312240,120
74,52,312360,120
76,57,312480,360
78,47,312840,60
76,47,312900,60
74,58,312960,240
73,53,313200,240
71,57,313440,240
69,52,313680,240
69,64,313920,360
78,57,314280,120
78,61,314400,480
62,68,314880,540
66,44,315420,60
64,45,315480,60
62,46,315540,60
64,47,315600,60
66,48,315660,60
67,49,315720,60
69,50,315780,60
71,51,315840,60
73,52,315900,60
74,53,315960,60
76,54,316020,60
78,55,316080,80
79,56,316160,60
81,57,316240,60
83,62,316320,90
85,68,316440,90
86,75,316560,180
78,61,316740,60
81,68,316800,360
78,60,317160,120
76,65,317280,216
76,57,317520,216
76,57,317760,216
76,57,318000,216
78,59,318240,120
76,47,318360,120
73,47,318480,120
71,47,318600,120
69,53,318720,240
76,47,318960,216
76,47,319200,216
76,47,319440,216
78,58,319680,120
76,48,319800,120
74,48,319920,120
71,48,320040,120
68,52,320160,240
76,49,320400,216
76,51,320640,216
76,53,320880,216
78,65,321120,120
76,55,321240,120
73,58,321360,120
69,55,321480,120
78,68,321600,120
76,57,321720,120
74,59,321840,120
71,57,321960,120
78,70,322080,120
76,57,322200,120
73,60,322320,120
69,57,322440,120
73,71,322560,480
71,61,323040,120
64,43,323160,120
76,53,323280,120
64,43,323400,120
75,51,323520,120
64,43,323640,120
74,52,323760,120
64,42,323880,120
73,55,324000,480
73,51,324480,600
74,48,325080,40
73,47,325120,40
71,47,325160,40
73,47,325200,120
74,51,325320,120
78,54,325440,240
76,51,325680,120
87,62,325920,240
88,57,326160,120
76,51,326340,60
78,57,326400,120
76,51,326520,120
74,51,326640,120
73,51,326760,120
73,55,326880,240
71,55,327120,480
71,51,327600,440
73,47,327960,40
71,47,328000,40
70,47,328040,40
71,51,328080,120
73,51,328200,120
76,54,328320,240
74,51,328560,120
85,60,328800,240
86,57,329040,120
74,51,329220,60
76,57,329280,120
74,51,329400,120
73,51,329520,120
71,51,329640,112
71,57,329760,240
69,54,330000,360
69,57,330360,120
74,61,330480,120
73,57,330600,120
70,61,330720,120
71,57,330840,120
76,57,330960,120
74,57,331080,120
72,60,331200,120
73,57,331320,120
81,60,331440,108
81,61,331560,108
81,62,331680,108
81,64,331800,108
81,66,331920,108
81,68,332040,108
81,69,332160,120
78,59,332280,120
74,62,332400,120
71,59,332520,120
76,64,332640,120
78,59,332760,40
76,59,332800,40
75,59,332840,40
76,64,332880,120
78,61,333000,120
69,66,333120,720
71,45,333840,228
68,45,333840,228
68,52,334080,960
71,52,334080,720
72,51,334800,240
73,51,335040,420
69,51,335040,420
64,61,335460,30
69,62,335490,30
73,68,335520,560
76,63,336080,80
74,63,336160,80
73,66,336240,80
74,62,336320,80
76,62,336400,80
74,66,336480,80
78,62,336560,80
76,62,336640,80
74,66,336720,80
76,63,336800,80
78,63,336880,80
76,62,336960,60
69,63,337020,60
71,64,337080,60
73,65,337140,60
74,65,337200,60
76,65,337260,60
78,66,337320,60
80,67,337380,60
81,68,337440,60
83,69,337500,60
85,70,337560,60
83,71,337620,60
81,71,337680,60
80,70,337740,60
78,70,337800,60
77,69,337860,60
78,68,337920,60
80,67,337980,60
81,65,338040,60
80,64,338100,60
83,62,338160,60
81,61,338220,60
80,59,338280,60
78,58,338340,60
76,62,338400,60
88,52,338520,120
85,52,338640,120
81,60,338760,120
76,52,338880,60
81,52,339000,120
76,51,339120,120
73,51,339240,120
76,57,339360,120
74,51,339480,120
73,51,339600,120
71,51,339720,113
68,51,339840,480
71,58,339840,480
69,52,340320,80
64,45,340400,60
66,45,340480,60
67,50,340560,60
68,47,340640,60
69,47,340720,60
70,49,340800,60
71,44,340880,60
72,44,340960,60
73,48,341040,60
74,44,341120,60
75,44,341200,60
76,57,341280,360
78,47,341640,60
76,47,341700,60
74,58,341760,240
73,53,342000,240
71,57,342240,240
69,52,342480,240
69,61,342720,360
78,55,343080,109
78,59,343200,480
62,68,343680,540
66,44,344220,60
64,45,344280,60
62,46,344340,60
64,47,344400,60
66,48,344460,60
67,49,344520,60
69,50,344580,60
71,51,344640,60
73,52,344700,60
74,53,344760,60
76,54,344820,60
78,55,344880,80
79,56,344960,80
81,57,345040,80
83,62,345120,120
85,68,345240,120
86,75,345360,180
78,61,345540,60
81,68,345600,360
78,60,345960,120
76,65,346080,228
76,57,346320,228
76,57,346560,228
76,57,346800,228
78,60,347040,120
76,50,347160,120
73,50,347280,120
71,50,347400,120
69,55,347520,240
76,46,347760,228
76,46,348000,228
76,46,348240,228
78,61,348480,120
76,51,348600,120
74,51,348720,120
71,51,348840,120
68,54,348960,240
76,52,349200,228
76,53,349440,228
76,55,349680,228
78,65,349920,120
76,55,350040,120
73,58,350160,120
69,54,350280,120
78,68,350400,120
76,56,350520,120
74,59,350640,120
71,54,350760,120
78,70,350880,120
76,56,351000,120
73,60,351120,120
69,55,351240,120
73,71,351360,480
71,61,351840,120
64,44,351960,120
76,53,352080,120
64,40,352200,120
75,51,352320,120
64,39,352440,120
74,52,352560,120
64,40,352680,120
73,55,352800,480
73,51,353280,600
74,48,353880,40
73,47,353920,40
71,47,353960,40
73,47,354000,120
74,51,354120,120
78,54,354240,240
76,51,354480,120
87,61,354720,240
88,57,354960,120
76,51,355140,60
78,57,355200,120
76,51,355320,120
74,51,355440,120
73,51,355560,112
73,55,355680,240
71,55,355920,480
71,51,356400,440
73,47,356760,40
71,47,356800,40
70,47,356840,40
71,51,356880,120
73,51,357000,120
76,54,357120,240
74,51,357360,120
85,60,357600,240
86,57,357840,120
74,51,358020,60
76,57,358080,120
74,51,358200,120
73,51,358320,120
71,51,358440,108
71,57,358560,240
69,54,358800,360
69,57,359160,120
74,61,359280,120
73,57,359400,120
70,61,359520,120
71,57,359640,120
76,57,359760,120
74,57,359880,120
72,60,360000,120
73,57,360120,120
81,60,360240,108
81,61,360360,108
81,62,360480,108
81,64,360600,108
81,66,360720,108
81,68,360840,108
81,69,360960,120
78,57,361080,120
74,62,361200,120
71,55,361320,120
76,64,361440,120
78,59,361560,40
76,59,361600,40
75,59,361640,40
76,64,361680,120
78,61,361800,120
69,66,361920,720
68,45,362640,228
71,45,362640,228
71,52,362880,720
68,52,362880,960
72,51,363600,240
69,51,363840,420
73,51,363840,420
64,61,364260,30
69,62,364290,30
73,68,364320,560
76,63,364880,80
74,63,364960,80
73,66,365040,80
74,62,365120,80
76,62,365200,80
74,66,365280,80
78,62,365360,80
76,62,365440,80
74,66,365520,80
76,63,365600,80
78,63,365680,80
76,62,365760,60
69,63,365820,60
71,64,365880,60
73,65,365940,60
74,65,366000,60
76,65,366060,60
78,66,366120,60
80,67,366180,60
81,68,366240,60
83,69,366300,60
85,70,366360,60
83,71,366420,60
81,71,366480,60
80,70,366540,60
78,70,366600,60
77,69,366660,60
78,68,366720,60
80,67,366780,60
81,65,366840,60
80,64,366900,60
83,62,366960,60
81,61,367020,60
80,59,367080,60
78,58,367140,60
76,62,367200,60
88,52,367320,120
85,52,367440,120
81,60,367560,120
76,52,367680,60
81,52,367800,120
76,51,367920,120
73,51,368040,120
76,57,368160,120
74,47,368280,120
73,51,368400,120
71,46,368520,114
64,32,368640,480
68,36,368640,480
71,41,368640,480
69,34,369120,480
73,50,372960,60
74,47,373170,30
73,47,373200,120
71,52,373320,120
73,47,373440,60
74,51,373680,60
78,53,373920,240
76,46,374160,240
74,51,374400,60
73,49,374640,60
71,50,374880,60
73,46,375090,30
71,46,375120,120
70,50,375240,120
71,46,375360,60
73,47,375600,60
76,50,375840,240
74,47,376080,240
73,47,376320,60
71,47,376560,60
68,53,376800,240
69,50,377040,60
70,50,377520,60
71,50,378000,60
72,50,378480,60
74,41,378690,30
73,54,378720,60
73,50,378960,60
76,41,379170,30
74,50,379200,60
74,50,379440,60
73,55,379680,480
71,50,380160,240
73,78,380640,120
69,63,380760,120
64,63,380880,120
69,63,381000,120
73,78,381120,120
69,64,381240,120
74,78,381360,120
71,64,381480,120
76,79,381600,120
73,66,381720,120
76,81,381840,120
73,68,381960,120
78,84,382080,120
76,82,382200,120
74,80,382320,120
73,79,382440,120
71,77,382560,120
68,64,382680,120
64,64,382800,120
68,64,382920,120
71,78,383040,120
68,63,383160,120
73,79,383280,120
69,63,383400,120
74,80,383520,120
71,64,383640,120
74,80,383760,120
71,69,383880,120
76,84,384000,120
74,84,384120,120
73,81,384240,120
71,79,384360,120
69,82,384480,120
73,66,384600,120
71,66,384720,120
69,66,384840,120
71,85,384960,120
74,66,385080,120
73,66,385200,120
71,66,385320,120
73,82,385440,120
76,69,385560,120
81,74,385680,120
76,69,385800,120
78,83,385920,120
81,71,386040,120
74,71,386160,120
78,71,386280,120
73,84,386400,120
76,69,386520,120
69,80,386640,120
73,69,386760,120
71,81,386880,120
74,69,387000,120
68,81,387120,120
71,69,387240,120
69,79,387360,120
64,69,387480,120
61,69,387600,120
64,69,387720,120
69,82,387840,420
73,50,388320,60
74,47,388530,30
73,47,388560,120
71,52,388680,120
73,47,388800,60
74,51,389040,60
78,53,389280,240
76,46,389520,240
74,51,389760,60
73,49,390000,60
71,50,390240,60
73,46,390450,30
71,46,390480,120
70,50,390600,120
71,46,390720,60
73,47,390960,60
76,50,391200,240
74,47,391440,240
73,47,391680,60
71,47,391920,60
68,53,392160,240
69,50,392400,60
70,50,392880,60
71,50,393360,60
72,50,393840,60
74,41,394050,30
73,54,394080,60
73,50,394320,60
76,41,394530,30
74,50,394560,60
74,50,394800,60
73,55,395040,480
71,50,395520,240
73,78,396000,120
69,63,396120,120
64,63,396240,120
69,63,396360,120
73,78,396480,120
69,64,396600,120
74,78,396720,120
71,64,396840,120
76,79,396960,120
73,66,397080,120
76,81,397200,120
73,68,397320,120
78,84,397440,120
76,82,397560,120
74,80,397680,120
73,79,397800,120
71,77,397920,120
68,64,398040,120
64,64,398160,120
68,64,398280,120
71,78,398400,120
68,63,398520,120
73,79,398640,120
69,63,398760,120
74,80,398880,120
71,64,399000,120
74,80,399120,120
71,69,399240,120
76,84,399360,120
74,84,399480,120
73,81,399600,120
71,79,399720,120
69,82,399840,120
73,66,399960,120
71,66,400080,120
69,66,400200,120
71,85,400320,120
74,66,400440,120
73,66,400560,120
71,66,400680,120
73,82,400800,120
76,69,400920,120
81,74,401040,120
76,69,401160,120
78,83,401280,120
81,71,401400,120
74,71,401520,120
78,71,401640,120
73,84,401760,120
76,69,401880,120
69,80,402000,120
73,69,402120,120
71,81,402240,120
74,69,402360,120
68,81,402480,120
71,69,402600,120
69,79,402720,120
64,69,402840,120
61,69,402960,120
64,69,403080,120
69,82,403200,480
69,55,403680,120
71,49,403800,120
73,50,403920,120
74,50,404040,120
76,51,404160,120
78,52,404280,120
80,53,404400,120
81,54,404520,120
80,56,404640,120
78,50,404760,120
77,52,404880,120
78,50,405000,120
77,52,405120,120
78,50,405240,120
77,52,405360,120
78,50,405480,120
81,55,405600,120
80,51,405720,120
81,55,405840,120
80,51,405960,120
83,54,406080,120
81,55,406200,120
80,56,406320,120
78,58,406440,120
78,59,406560,120
76,54,406680,120
75,58,406800,120
76,52,406920,120
75,54,407040,120
76,50,407160,120
75,55,407280,120
76,51,407400,120
76,74,407520,120
81,72,407640,120
85,75,407760,120
83,71,407880,120
81,74,408000,120
80,74,408120,120
78,73,408240,120
76,72,408360,120
74,74,408480,120
80,69,408600,120
83,77,408720,120
81,73,408840,120
80,76,408960,120
78,74,409080,120
76,73,409200,120
74,71,409320,120
73,73,409440,132
76,70,409560,132
81,73,409680,132
80,70,409800,132
78,73,409920,132
76,71,410040,132
74,73,410160,132
73,70,410280,132
71,72,410400,132
69,68,410520,132
68,66,410640,132
66,64,410760,132
64,61,410880,120
73,50,411360,60
74,47,411570,30
73,47,411600,120
71,52,411720,120
73,47,411840,60
74,51,412080,60
78,53,412320,240
76,46,412560,240
74,51,412800,60
73,49,413040,60
71,50,413280,60
73,46,413490,30
71,46,413520,120
70,50,413640,120
71,46,413760,60
73,47,414000,60
76,50,414240,240
74,47,414480,240
73,47,414720,60
71,47,414960,60
68,53,415200,240
69,50,415440,60
71,50,415920,60
72,40,416370,30
73,50,416400,60
76,40,416850,30
74,50,416880,60
74,40,417330,30
73,50,417360,60
73,40,417810,30
71,50,417840,60
71,51,418080,240
68,43,418080,480
72,51,418320,240
69,40,418560,240
73,48,418560,240
73,82,419040,120
69,66,419160,120
76,81,419280,120
73,66,419400,120
74,85,419520,120
71,66,419640,120
78,79,419760,120
74,66,419880,120
76,82,420000,120
73,69,420120,120
81,74,420240,120
76,69,420360,120
80,83,420480,120
78,71,420600,120
76,71,420720,120
74,71,420840,120
73,84,420960,120
76,69,421080,120
69,80,421200,120
73,69,421320,120
71,81,421440,120
74,69,421560,120
68,81,421680,120
71,69,421800,120
69,79,421920,120
64,69,422040,120
61,69,422160,120
64,69,422280,120
69,82,422400,420
69,55,422880,120
71,49,423000,120
73,50,423120,120
74,50,423240,120
76,51,423360,120
78,52,423480,120
80,53,423600,120
81,54,423720,120
80,56,423840,120
78,50,423960,120
77,52,424080,120
78,50,424200,120
77,52,424320,120
78,50,424440,120
77,52,424560,120
78,50,424680,120
81,55,424800,120
80,51,424920,120
81,55,425040,120
80,51,425160,120
83,54,425280,120
81,55,425400,120
80,56,425520,120
78,58,425640,120
78,59,425760,120
76,54,425880,120
75,58,426000,120
76,52,426120,120
75,54,426240,120
76,50,426360,120
75,55,426480,120
76,51,426600,120
76,74,426720,120
81,72,426840,120
85,75,426960,120
83,71,427080,120
81,74,427200,120
80,74,427320,120
78,73,427440,120
76,72,427560,120
74,74,427680,120
80,69,427800,120
83,77,427920,120
81,73,428040,120
80,76,428160,120
78,74,428280,120
76,73,428400,120
74,71,428520,120
73,73,428640,132
76,70,428760,132
81,73,428880,132
80,70,429000,132
78,73,429120,132
76,71,429240,132
74,73,429360,132
73,70,429480,132
71,72,429600,132
69,68,429720,132
68,66,429840,132
66,64,429960,132
64,61,430080,120
73,50,430560,60
74,47,430770,30
73,47,430800,120
71,52,430920,120
73,47,431040,60
74,51,431280,60
78,53,431520,240
76,46,431760,240
74,51,432000,60
73,49,432240,60
71,50,432480,60
73,46,432690,30
71,46,432720,120
70,50,432840,120
71,46,432960,60
73,47,433200,60
76,50,433440,240
74,47,433680,240
73,47,433920,60
71,47,434160,60
68,53,434400,240
69,50,434640,60
71,50,435120,60
72,40,435570,30
73,50,435600,60
76,40,436050,30
74,50,436080,60
74,40,436530,30
73,50,436560,60
73,40,437010,30
71,50,437040,60
71,51,437280,240
68,43,437280,480
72,51,437520,240
69,40,437760,240
73,48,437760,240
73,82,438240,120
69,66,438360,120
76,81,438480,120
73,66,438600,120
74,85,438720,120
71,66,438840,120
78,79,438960,120
74,66,439080,120
76,82,439200,120
73,69,439320,120
81,74,439440,120
76,69,439560,120
80,83,439680,120
78,71,439800,120
76,71,439920,120
74,71,440040,120
73,84,440160,120
76,69,440280,120
69,80,440400,120
73,69,440520,120
71,81,440640,120
74,69,440760,120
68,81,440880,120
71,69,441000,110
69,51,441120,120
71,49,441240,120
73,50,441360,120
74,51,441480,120
76,52,441600,120
78,53,441720,120
80,54,441840,120
81,55,441960,100
80,55,442080,120
78,51,442200,120
77,55,442320,120
78,51,442440,120
83,48,442560,120
81,50,442680,120
80,52,442800,60
78,54,442920,60
78,56,443040,120
76,47,443160,120
75,54,443280,120
76,47,443400,120
69,52,443520,120
73,46,443640,120
76,52,443760,120
81,46,443880,120
80,55,444000,120
78,51,444120,120
77,55,444240,120
78,51,444360,120
83,48,444480,120
81,50,444600,120
80,52,444720,60
78,54,444840,60
76,52,444960,356
76,52,445320,60
78,38,445380,20
76,37,445400,20
75,37,445420,20
76,52,445440,480
74,52,446280,60
76,35,446340,20
74,35,446360,20
73,35,446380,20
74,52,446400,480
73,52,447240,60
74,36,447300,20
73,36,447320,20
71,36,447340,20
73,52,447360,480
71,52,448200,60
73,35,448260,20
71,35,448280,20
69,35,448300,20
71,52,448320,480
76,60,448920,120
75,71,449040,120
76,64,449160,120
78,71,449280,120
76,64,449400,120
75,64,449520,120
76,64,449640,120
74,60,449880,120
73,71,450000,120
74,64,450120,120
76,71,450240,120
74,64,450360,120
73,64,450480,120
74,64,450600,120
73,60,450840,120
72,71,450960,120
73,64,451080,120
74,71,451200,120
73,64,451320,120
72,64,451440,120
73,64,451560,120
71,60,451800,120
70,71,451920,120
71,64,452040,120
73,71,452160,120
71,64,452280,120
70,64,452400,120
71,64,452520,120
69,73,452640,120
73,50,452880,120
69,49,453000,120
76,55,453120,120
74,48,453240,120
71,48,453360,60
68,47,453480,60
69,60,453600,480
68,67,454080,120
71,67,454080,120
76,80,454080,120
69,73,454560,120
73,73,454560,120
76,73,454560,120
81,86,454560,120
73,52,454800,130
69,50,454920,120
76,57,455040,120
74,50,455160,120
71,50,455280,60
68,50,455400,60
69,62,455520,120
68,70,456000,120
71,70,456000,120
76,82,456000,120
69,75,456480,120
73,75,456480,120
76,75,456480,120
81,89,456480,120
57,45,0,360
64,38,0,480
59,35,360,120
57,35,480,240
64,29,480,240
64,29,720,480
61,39,720,480
61,32,1200,216
64,23,1200,216
56,45,1440,360
64,38,1440,480
57,38,1800,120
56,38,1920,240
64,32,1920,240
64,36,2160,480
59,38,2160,480
64,28,2640,216
59,31,2640,216
54,43,2880,480
64,36,2880,480
64,32,3360,240
54,38,3360,240
56,46,3600,480
64,39,3600,480
56,41,4080,240
64,34,4080,240
64,38,4320,480
57,45,4320,480
50,38,4800,240
52,45,5040,720
64,38,5760,480
57,45,5760,360
59,35,6120,120
64,29,6240,240
57,35,6240,240
61,39,6480,480
64,29,6480,480
64,23,6960,216
61,32,6960,216
56,45,7200,360
64,38,7200,480
57,38,7560,120
64,32,7680,240
56,38,7680,240
59,40,7920,480
64,36,7920,480
64,28,8400,216
59,31,8400,216
64,37,8640,480
54,45,8640,480
56,49,9120,240
64,49,9120,240
57,55,9360,480
64,55,9360,480
50,55,9840,240
52,46,10080,480
40,36,10560,240
45,34,10800,480
57,38,11520,360
64,32,11520,480
59,29,11880,120
57,29,12000,240
64,24,12000,240
64,29,12240,480
61,33,12240,480
64,23,12720,216
61,26,12720,216
64,32,12960,480
56,38,12960,360
57,32,13320,120
64,27,13440,240
56,32,13440,240
59,32,13680,480
64,30,13680,480
64,23,14160,216
59,26,14160,216
64,30,14400,480
54,36,14400,480
54,32,14880,240
64,27,14880,240
64,33,15120,480
56,39,15120,480
64,28,15600,240
56,34,15600,240
57,38,15840,480
64,32,15840,480
50,32,16320,240
52,38,16560,720
57,45,17280,360
64,38,17280,480
59,35,17640,120
64,29,17760,240
57,35,17760,240
61,39,18000,480
64,35,18000,480
61,32,18480,216
64,28,18480,216
64,38,18720,480
56,45,18720,360
57,38,19080,120
64,32,19200,240
56,38,19200,240
59,40,19440,480
64,36,19440,480
59,31,19920,216
64,28,19920,216
64,37,20160,480
54,45,20160,480
64,49,20640,240
56,49,20640,240
57,55,20880,480
64,55,20880,480
50,55,21360,240
52,46,21600,480
40,36,22080,240
45,34,22320,480
57,39,23040,240
61,33,23280,240
64,34,23520,240
57,37,23760,240
62,32,24000,240
66,32,24240,240
57,39,24480,240
62,33,24720,240
66,34,24960,240
57,37,25200,240
61,32,25440,240
64,32,25680,120
61,51,25920,480
57,51,25920,480
56,43,26640,480
62,43,26640,480
61,50,27360,480
57,50,27360,480
54,48,27840,220
63,48,27840,220
64,40,28080,696
52,40,28080,696
57,45,28800,360
64,38,28800,480
59,35,29160,120
57,35,29280,240
64,29,29280,240
64,35,29520,480
61,39,29520,480
64,28,30000,216
61,32,30000,216
64,38,30240,480
56,45,30240,360
57,38,30600,120
56,38,30720,240
64,32,30720,240
59,40,30960,480
64,36,30960,480
64,28,31440,216
59,31,31440,216
64,37,31680,480
54,45,31680,480
56,49,32160,240
64,49,32160,240
57,55,32400,480
64,55,32400,480
50,55,32880,240
52,46,33120,480
40,45,33600,240
45,42,33840,720
57,57,34560,480
45,48,34560,480
47,53,35040,240
59,63,35040,240
49,57,35280,480
61,69,35280,480
62,38,35760,240
50,32,35760,240
52,34,36000,480
61,41,36000,480
62,40,36480,240
52,34,36480,240
61,40,36720,480
57,34,36720,480
57,39,37440,240
61,33,37680,240
64,34,37920,240
57,37,38160,240
62,32,38400,240
66,32,38640,240
57,39,38880,240
62,33,39120,240
66,34,39360,240
57,37,39600,240
61,32,39840,240
64,32,40080,120
57,51,40320,480
61,51,40320,480
62,43,41040,480
56,43,41040,480
57,50,41760,480
61,50,41760,480
63,48,42240,220
54,48,42240,220
52,40,42480,696
64,40,42480,696
64,32,43200,480
57,38,43200,360
59,29,43560,120
64,24,43680,240
57,29,43680,240
61,33,43920,480
64,29,43920,480
61,26,44400,216
64,23,44400,216
56,38,44640,360
64,32,44640,480
57,32,45000,120
56,32,45120,240
64,27,45120,240
59,34,45360,480
64,30,45360,480
59,26,45840,216
64,23,45840,216
64,37,46080,480
54,45,46080,480
64,49,46560,240
56,49,46560,240
64,55,46800,480
57,55,46800,480
50,55,47280,240
52,52,47520,480
40,51,48000,240
45,48,48240,720
57,57,48960,480
45,48,48960,480
47,53,49440,240
59,63,49440,240
49,57,49680,480
61,69,49680,480
62,38,50160,240
50,32,50160,240
52,32,50400,480
61,39,50400,480
52,30,50880,240
62,36,50880,240
61,36,51120,480
57,30,51120,480
64,39,53520,90
57,30,53520,90
61,30,54240,90
64,39,54240,90
56,30,54960,90
64,39,54960,90
59,30,55680,90
64,39,55680,90
54,34,56400,90
64,45,56400,90
64,46,57120,90
56,35,57120,90
64,42,57600,480
57,33,57600,480
54,39,58080,240
50,33,58080,240
52,33,58320,480
56,42,58320,480
45,65,59040,120
57,59,59160,90
57,59,59280,90
57,59,59400,90
57,59,59520,90
57,59,59640,90
45,65,59760,120
57,59,59880,90
57,59,60000,90
57,58,60120,90
57,58,60240,90
57,58,60360,90
40,65,60480,120
52,57,60600,90
52,57,60720,90
52,57,60840,90
52,57,60960,90
52,57,61080,90
40,65,61200,120
52,58,61320,90
52,58,61440,90
52,58,61560,90
52,58,61680,90
52,58,61800,90
42,65,61920,120
54,57,62040,90
54,57,62160,90
54,57,62280,90
44,65,62400,120
56,57,62520,120
45,65,62640,120
57,58,62760,90
57,58,62880,90
57,59,63000,90
38,65,63120,120
50,59,63240,120
40,65,63360,120
52,58,63480,90
52,58,63600,90
52,58,63720,90
40,65,63840,120
52,56,63960,120
33,75,64080,240
45,67,64320,240
57,30,65040,90
64,39,65040,90
61,30,65760,90
64,39,65760,90
56,30,66480,90
64,39,66480,90
59,30,67200,90
64,39,67200,90
54,34,67920,90
64,45,67920,90
64,46,68640,90
56,35,68640,90
64,42,69120,480
57,33,69120,480
54,39,69600,240
50,33,69600,240
56,42,69840,480
52,33,69840,480
45,65,70560,120
57,59,70680,90
57,59,70800,90
57,59,70920,90
57,59,71040,90
57,59,71160,90
45,65,71280,120
57,59,71400,90
57,59,71520,90
57,58,71640,90
57,58,71760,90
57,58,71880,90
40,65,72000,120
52,57,72120,90
52,57,72240,90
52,57,72360,90
52,57,72480,90
52,57,72600,90
40,65,72720,120
52,58,72840,90
52,58,72960,90
52,58,73080,90
52,58,73200,90
52,58,73320,90
42,65,73440,120
54,57,73560,90
54,57,73680,90
54,57,73800,90
44,65,73920,120
56,57,74040,120
45,65,74160,120
57,58,74280,90
57,58,74400,90
57,59,74520,90
38,65,74640,120
50,59,74760,120
40,65,74880,120
52,58,75000,90
52,58,75120,90
52,58,75240,90
40,65,75360,120
52,56,75480,120
33,75,75600,240
45,67,75840,240
61,39,76560,90
57,30,76560,90
57,30,77280,90
62,39,77280,90
66,31,77760,90
57,26,77760,90
57,24,78000,90
64,29,78000,90
57,24,78240,90
62,29,78240,90
61,37,78720,90
57,31,78720,90
57,46,79200,720
64,55,79200,720
61,46,79200,720
64,51,79920,720
59,43,79920,720
62,43,79920,720
64,59,80640,480
61,50,80640,480
57,26,81120,240
54,26,81120,240
63,31,81120,240
64,40,81360,720
52,34,81360,720
57,30,82320,90
64,39,82320,90
64,39,83040,90
61,30,83040,90
64,44,83760,90
56,34,83760,90
64,44,84480,90
59,34,84480,90
54,45,85200,240
64,53,85200,240
56,43,85440,240
64,51,85440,240
56,45,85920,240
64,53,85920,240
59,52,86160,240
50,44,86160,240
57,57,86640,240
52,48,86640,240
56,51,86880,240
52,43,86880,240
57,61,87120,240
52,55,87360,240
45,55,87600,240
33,71,87840,120
45,60,87960,90
45,60,88080,90
45,60,88200,90
35,67,88320,120
47,59,88440,120
37,66,88560,120
49,59,88680,90
49,57,88800,90
49,57,88920,90
38,68,89040,120
50,62,89160,120
40,69,89280,120
52,55,89400,90
52,55,89520,90
52,55,89640,90
40,64,89760,120
52,55,89880,120
33,73,90000,240
45,67,90240,240
57,30,90960,90
61,39,90960,90
62,39,91680,90
57,30,91680,90
57,26,92160,90
66,31,92160,90
57,24,92400,90
64,29,92400,90
62,29,92640,90
57,24,92640,90
61,37,93120,90
57,31,93120,90
64,55,93600,720
61,46,93600,720
57,46,93600,720
59,43,94320,720
64,51,94320,720
62,43,94320,720
61,50,95040,480
64,59,95040,480
54,26,95520,240
63,31,95520,240
57,26,95520,240
52,34,95760,720
64,40,95760,720
57,30,96720,90
64,39,96720,90
64,39,97440,90
61,30,97440,90
64,44,98160,90
56,34,98160,90
59,34,98880,90
64,44,98880,90
64,53,99600,240
54,45,99600,240
56,43,99840,240
64,51,99840,240
56,45,100320,240
64,53,100320,240
50,44,100560,240
59,52,100560,240
57,57,101040,240
52,48,101040,240
56,51,101280,240
52,43,101280,240
57,61,101520,240
52,55,101760,240
45,55,102000,240
33,71,102240,120
45,60,102360,90
45,60,102480,90
45,60,102600,90
35,67,102720,120
47,59,102840,120
37,66,102960,120
49,59,103080,90
49,57,103200,90
49,57,103320,90
38,68,103440,120
50,62,103560,120
40,69,103680,120
52,55,103800,90
52,55,103920,90
52,55,104040,90
40,64,104160,120
52,55,104280,120
33,73,104400,240
45,67,104640,240
57,44,106560,96
63,31,106640,96
64,31,106720,80
57,40,106800,96
63,30,106880,96
64,30,106960,80
59,40,107040,96
63,30,107120,96
64,30,107200,80
61,41,107280,96
63,29,107360,96
64,29,107440,80
61,40,107520,96
63,31,107600,96
64,31,107680,80
57,40,107760,96
63,36,107840,96
64,36,107920,80
56,44,108000,96
63,31,108080,96
64,31,108160,80
56,40,108240,96
63,33,108320,96
64,33,108400,80
57,40,108480,96
63,34,108560,96
64,34,108640,80
59,45,108720,96
63,34,108800,96
64,34,108880,80
59,38,108960,96
63,31,109040,96
64,31,109120,80
56,40,109200,96
63,36,109280,96
64,36,109360,80
54,44,109440,96
63,33,109520,96
64,33,109600,80
54,40,109680,96
63,35,109760,96
64,35,109840,80
54,40,109920,96
63,35,110000,96
64,36,110080,80
56,44,110160,96
62,35,110240,96
64,35,110320,80
56,40,110400,96
62,35,110480,96
64,35,110560,80
56,40,110640,96
62,34,110720,96
64,34,110800,80
57,44,110880,96
61,34,110960,96
64,34,111040,80
57,40,111120,96
61,33,111200,96
64,33,111280,80
50,42,111360,96
54,37,111440,96
59,37,111520,80
52,44,111600,96
57,40,111680,96
61,40,111760,80
52,44,111840,96
57,42,111920,96
61,44,112000,80
52,48,112080,96
56,41,112160,96
59,42,112240,80
45,74,112320,120
56,67,112530,30
57,74,112560,120
45,74,113040,120
56,67,113250,30
57,72,113280,120
40,74,113760,120
51,67,113940,30
52,74,114000,120
40,74,114480,120
51,67,114660,30
52,72,114720,120
40,74,115200,120
53,59,115380,30
54,68,115440,120
55,62,115620,60
56,70,115680,120
45,74,115920,120
56,63,116100,30
57,67,116160,120
49,63,116340,60
50,69,116400,120
40,74,116640,120
51,62,116820,30
52,67,116880,120
51,61,117060,60
52,68,117120,120
33,74,117360,120
44,61,117540,30
45,67,117600,120
57,44,118080,96
63,33,118160,96
64,33,118240,80
57,40,118320,96
63,32,118400,96
64,32,118480,80
59,40,118560,96
63,32,118640,96
64,32,118720,80
61,41,118800,96
63,30,118880,96
64,30,118960,80
61,40,119040,96
63,28,119120,96
64,28,119200,80
57,40,119280,96
63,34,119360,96
64,36,119440,80
56,44,119520,96
63,33,119600,96
64,33,119680,80
56,40,119760,96
63,33,119840,96
64,33,119920,80
57,40,120000,96
63,33,120080,96
64,33,120160,80
59,45,120240,96
63,34,120320,96
64,34,120400,80
59,38,120480,96
63,30,120560,96
64,31,120640,80
56,40,120720,96
63,36,120800,96
64,36,120880,80
54,44,120960,96
63,35,121040,96
64,35,121120,80
54,40,121200,96
63,32,121280,96
64,32,121360,80
54,40,121440,96
63,32,121520,96
64,32,121600,80
56,44,121680,96
62,34,121760,96
64,34,121840,80
56,40,121920,96
62,32,122000,96
64,32,122080,80
56,40,122160,96
62,32,122240,96
64,32,122320,80
57,44,122400,96
61,35,122480,96
64,33,122560,80
57,40,122640,96
61,35,122720,96
64,35,122800,80
50,42,122880,96
54,37,122960,96
59,37,123040,80
52,44,123120,96
57,40,123200,96
61,40,123280,80
52,44,123360,96
57,42,123440,96
61,44,123520,80
52,48,123600,96
56,41,123680,96
59,42,123759,80
45,74,123840,120
56,67,124050,30
57,74,124080,120
45,74,124560,120
56,67,124770,30
57,72,124800,120
40,74,125280,120
51,67,125460,30
52,74,125520,120
40,74,126000,120
51,67,126180,30
52,72,126240,120
40,74,126720,120
53,59,126900,30
54,68,126960,120
55,62,127140,60
56,70,127200,120
45,74,127440,120
56,63,127620,30
57,67,127680,120
49,63,127860,60
50,69,127920,120
40,74,128160,120
51,62,128340,30
52,67,128400,120
51,61,128580,60
52,68,128640,120
33,74,128880,120
44,61,129060,30
45,67,129120,120
57,37,129600,96
61,30,129680,96
64,29,129761,80
57,38,129840,96
59,30,129920,96
62,30,130000,80
57,38,130080,96
61,30,130160,96
64,30,130240,80
57,38,130320,96
62,28,130400,96
66,28,130480,80
57,35,130560,96
62,28,130640,96
66,28,130720,80
57,38,130800,96
62,32,130880,96
66,32,130960,80
57,37,131040,96
66,33,131120,96
69,33,131200,80
57,38,131280,96
64,33,131360,96
68,33,131440,80
57,38,131520,96
62,34,131600,96
66,31,131680,80
57,36,131760,96
61,27,131840,96
64,27,131920,80
57,35,132000,96
61,28,132080,96
64,28,132160,80
57,38,132240,96
61,33,132320,96
64,33,132400,80
57,42,132480,96
61,34,132560,96
64,34,132640,80
57,38,132720,96
61,33,132800,96
64,33,132880,80
57,38,132960,96
61,34,133040,96
64,35,133120,80
59,41,133200,96
62,36,133280,96
64,37,133360,80
59,44,133440,96
62,37,133520,96
64,39,133600,80
59,46,133680,96
62,41,133760,96
64,42,133840,80
57,47,133920,96
61,40,134000,96
64,40,134080,80
57,47,134160,96
61,38,134240,96
64,33,134320,80
54,38,134400,96
57,29,134480,96
63,29,134560,80
52,23,134640,720
64,29,134640,720
57,44,135360,96
63,34,135440,96
64,34,135520,80
57,40,135600,96
63,31,135680,96
64,31,135760,80
59,40,135840,96
63,32,135920,96
64,32,136000,80
61,41,136080,96
63,31,136160,96
64,31,136240,80
61,40,136320,96
63,30,136400,96
64,30,136480,80
57,40,136560,96
63,35,136640,96
64,35,136720,80
56,44,136800,96
63,31,136880,96
64,32,136960,80
56,40,137040,96
63,35,137120,96
64,35,137200,80
57,40,137280,96
63,33,137360,96
64,35,137440,80
59,45,137520,96
63,34,137600,96
64,34,137680,80
59,38,137760,96
63,28,137840,96
64,28,137920,80
56,40,138000,96
63,35,138080,96
64,35,138160,80
54,44,138240,96
63,35,138320,96
64,35,138400,80
54,40,138480,96
63,35,138560,96
64,34,138640,80
54,40,138720,96
62,35,138800,96
64,35,138880,80
57,44,138960,96
61,35,139040,96
64,33,139120,80
57,40,139200,96
61,33,139280,96
64,33,139360,80
50,40,139440,96
54,33,139520,96
59,33,139600,80
52,44,139680,96
57,35,139760,96
61,33,139840,80
52,40,139920,96
57,35,140000,96
61,35,140080,80
52,40,140160,96
56,35,140240,96
62,35,140320,80
62,40,140400,480
57,34,140400,720
64,34,140400,720
61,45,140880,240
45,74,141120,120
56,59,141300,30
57,68,141360,120
58,62,141540,60
59,70,141600,120
52,74,141840,120
60,63,142020,30
61,67,142080,120
61,63,142260,60
62,69,142320,120
40,74,142560,120
51,62,142740,30
52,67,142800,120
51,61,142980,60
52,68,143040,120
33,74,143280,120
44,61,143460,30
45,67,143520,120
57,37,144000,96
61,31,144080,96
64,32,144161,80
57,38,144240,96
59,30,144320,96
62,30,144400,80
57,38,144480,96
61,30,144560,96
64,30,144640,80
57,38,144720,96
62,27,144800,96
66,27,144880,80
57,35,144960,96
62,28,145040,96
66,26,145120,80
57,38,145200,96
62,32,145280,96
66,32,145360,80
57,37,145440,96
66,31,145520,96
69,32,145600,80
57,38,145680,96
64,30,145760,96
68,30,145840,80
57,38,145920,96
62,34,146000,96
66,31,146080,80
57,36,146160,96
61,27,146240,96
64,27,146320,80
57,35,146400,96
61,28,146480,96
64,28,146560,80
57,38,146640,96
61,32,146720,96
64,32,146800,80
57,42,146880,96
61,33,146960,96
64,33,147040,80
57,38,147120,96
61,33,147200,96
64,31,147280,80
57,38,147360,96
61,34,147440,96
64,35,147520,80
59,41,147600,96
62,36,147680,96
64,37,147760,80
59,44,147840,96
62,37,147920,96
64,39,148000,80
59,46,148080,96
62,41,148160,96
64,42,148240,80
57,47,148320,96
61,40,148400,96
64,40,148480,80
57,47,148560,96
61,38,148640,96
64,33,148720,80
54,38,148800,96
57,29,148880,96
63,29,148960,80
52,23,149040,720
64,29,149040,720
57,44,149760,96
63,32,149840,96
64,32,149920,80
57,40,150000,96
63,32,150080,96
64,32,150160,80
59,40,150240,96
63,34,150320,96
64,34,150400,80
61,41,150480,96
63,31,150560,96
64,31,150640,80
61,40,150720,96
63,30,150800,96
64,30,150880,80
57,40,150960,96
63,36,151040,96
64,36,151120,80
56,44,151200,96
63,33,151280,96
64,33,151360,80
56,40,151440,96
63,33,151520,96
64,33,151600,80
57,40,151680,96
63,33,151760,96
64,33,151840,80
59,45,151920,96
63,33,152000,96
64,33,152080,80
59,38,152160,96
63,29,152240,96
64,29,152320,80
56,40,152400,96
63,35,152480,96
64,36,152560,80
54,44,152640,96
63,34,152720,96
64,34,152800,80
54,40,152880,96
63,33,152960,96
64,33,153040,80
54,40,153120,96
62,33,153200,96
64,33,153280,80
57,44,153360,96
61,35,153440,96
64,33,153520,80
57,40,153600,96
61,33,153680,96
64,33,153760,80
50,40,153840,96
54,31,153920,96
59,31,154000,80
52,44,154080,96
57,33,154160,96
61,33,154240,80
52,40,154320,96
57,35,154400,96
61,35,154480,80
52,40,154560,96
56,35,154640,96
62,35,154720,80
62,40,154800,480
64,34,154800,720
57,34,154800,720
61,45,155280,240
45,74,155520,120
56,59,155700,30
57,68,155760,120
58,62,155940,60
59,70,156000,120
52,74,156240,120
60,63,156420,30
61,67,156480,120
61,63,156660,60
62,69,156720,120
40,74,156960,120
51,62,157140,30
52,67,157200,120
51,61,157380,60
52,68,157440,120
33,74,157680,120
44,61,157860,30
45,67,157920,120
57,43,159840,120
64,34,159960,120
60,40,160080,120
64,35,160200,120
57,41,160320,120
64,34,160440,120
57,42,160560,120
64,36,160680,120
60,41,160800,120
64,36,160920,120
57,41,161040,120
64,36,161160,120
52,43,161280,120
64,34,161400,120
59,40,161520,120
64,35,161640,120
52,41,161760,120
64,34,161880,120
52,42,162000,120
64,36,162120,120
59,41,162240,120
64,36,162360,120
52,41,162480,120
64,36,162600,120
57,43,162720,120
64,34,162840,120
60,40,162960,120
64,35,163080,120
57,41,163200,120
64,34,163320,120
59,42,163440,120
64,36,163560,120
62,41,163680,120
64,36,163800,120
59,41,163920,120
64,36,164040,120
60,43,164160,120
64,34,164280,120
59,40,164400,120
64,35,164520,120
57,41,164640,120
64,34,164760,120
52,42,164880,120
64,36,165000,120
63,41,165120,120
64,36,165240,120
52,41,165360,120
64,36,165480,120
57,41,165600,120
64,33,165720,120
60,39,165840,120
64,36,165960,120
57,43,166080,120
64,36,166200,120
57,46,166320,120
64,39,166440,120
60,46,166560,120
64,40,166680,120
57,46,166800,120
64,40,166920,120
52,49,167040,120
64,39,167160,120
59,46,167280,120
64,40,167400,120
52,47,167520,120
64,39,167640,120
52,48,167760,120
64,41,167880,120
59,47,168000,120
64,41,168120,120
52,47,168240,120
64,41,168360,120
57,49,168480,120
64,39,168600,120
60,46,168720,120
64,40,168840,120
56,47,168960,120
64,39,169080,120
57,48,169200,120
64,41,169320,120
60,47,169440,120
64,41,169560,120
53,47,169680,120
62,41,169800,120
52,49,169920,120
60,39,170040,120
57,46,170160,120
60,40,170280,120
52,47,170400,120
59,39,170520,120
45,54,170640,30
48,52,170760,30
52,57,170880,30
57,54,171000,30
45,60,171120,60
57,43,171360,120
64,34,171480,120
60,40,171600,120
64,35,171720,120
57,41,171840,120
64,34,171960,120
57,42,172080,120
64,36,172200,120
60,41,172320,120
64,36,172440,120
57,41,172560,120
64,36,172680,120
52,43,172800,120
64,34,172920,120
59,40,173040,120
64,35,173160,120
52,41,173280,120
64,34,173400,120
52,42,173520,120
64,36,173640,120
59,41,173760,120
64,36,173880,120
52,41,174000,120
64,36,174120,120
57,43,174240,120
64,34,174360,120
60,40,174480,120
64,35,174600,120
57,41,174720,120
64,34,174840,120
59,42,174960,120
64,36,175080,120
62,41,175200,120
64,36,175320,120
59,41,175440,120
64,36,175560,120
60,43,175680,120
64,34,175800,120
59,40,175920,120
64,35,176040,120
57,41,176160,120
64,34,176280,120
52,42,176400,120
64,36,176520,120
63,41,176640,120
64,36,176760,120
52,41,176880,120
64,36,177000,120
57,41,177120,120
64,33,177240,120
60,39,177360,120
64,36,177480,120
57,43,177600,120
64,36,177720,120
57,46,177840,120
64,39,177960,120
60,46,178080,120
64,40,178200,120
57,46,178320,120
64,40,178440,120
52,49,178560,120
64,39,178680,120
59,46,178800,120
64,40,178920,120
52,47,179040,120
64,39,179160,120
52,48,179280,120
64,41,179400,120
59,47,179520,120
64,41,179640,120
52,47,179760,120
64,41,179880,120
57,49,180000,120
64,39,180120,120
60,46,180240,120
64,40,180360,120
56,47,180480,120
64,39,180600,120
57,48,180720,120
64,41,180840,120
60,47,180960,120
64,41,181080,120
53,47,181200,120
62,41,181320,120
52,49,181440,120
60,39,181560,120
57,46,181680,120
60,40,181800,120
52,47,181920,120
59,39,182040,120
45,54,182160,30
48,52,182280,30
52,57,182400,30
57,54,182520,30
45,60,182640,60
57,37,182880,720
60,44,182880,480
61,44,183360,240
57,37,183600,720
62,44,183600,720
57,34,184320,720
65,41,184320,120
64,39,184440,120
65,41,184560,120
64,37,184680,120
65,41,184800,120
62,38,184920,108
57,34,185040,720
62,41,185040,120
60,37,185160,120
59,41,185280,120
60,38,185400,120
59,41,185520,120
60,38,185640,108
60,41,185760,120
57,34,185760,720
62,39,185880,120
64,39,186000,120
62,41,186120,120
60,39,186240,240
59,34,186480,120
56,28,186480,120
57,30,186600,120
60,36,186600,120
59,31,186720,120
62,37,186720,120
64,38,186840,120
60,32,186840,120
62,34,186960,240
65,40,186960,240
64,38,187200,240
60,32,187200,240
56,34,187440,240
64,41,187440,240
57,37,187680,240
64,44,187680,240
51,49,188040,360
52,33,188400,180
57,43,188640,120
64,34,188760,120
60,40,188880,120
64,35,189000,120
57,41,189120,120
64,34,189240,120
57,42,189360,120
64,36,189480,120
60,41,189600,120
64,36,189720,120
57,41,189840,120
64,36,189960,120
52,43,190080,120
64,34,190200,120
59,40,190320,120
64,35,190440,120
52,41,190560,120
64,34,190680,120
52,42,190800,120
64,36,190920,120
59,41,191040,120
64,36,191160,120
52,41,191280,120
64,36,191400,120
57,43,191520,120
64,34,191640,120
60,40,191760,120
64,35,191880,120
56,41,192000,120
64,34,192120,120
57,42,192240,120
64,36,192360,120
60,41,192480,120
64,36,192600,120
53,41,192720,120
62,36,192840,120
52,43,192960,120
60,34,193080,120
57,40,193200,120
60,35,193320,120
52,41,193440,120
59,34,193560,120
57,46,193680,480
45,43,193680,480
45,49,194400,120
52,39,194520,120
48,46,194640,120
52,40,194760,120
44,47,194880,120
52,39,195000,120
45,48,195120,120
52,41,195240,120
48,47,195360,120
52,41,195480,120
41,47,195600,120
50,41,195720,120
40,49,195840,120
48,39,195960,120
45,46,196080,120
48,40,196200,120
40,47,196320,120
47,39,196440,120
33,54,196560,30
36,52,196680,30
40,57,196800,30
45,54,196920,30
33,60,197040,60
57,37,197280,720
60,44,197280,480
61,44,197760,240
57,37,198000,720
62,44,198000,720
65,41,198720,120
57,34,198720,720
64,39,198840,120
65,41,198960,120
64,37,199080,120
65,41,199200,120
62,38,199320,108
62,41,199440,120
57,34,199440,720
60,37,199560,120
59,41,199680,120
60,38,199800,120
59,41,199920,120
60,38,200040,108
57,34,200160,720
60,41,200160,120
62,39,200280,120
64,39,200400,120
62,41,200520,120
60,39,200640,240
59,34,200880,120
56,28,200880,120
57,30,201000,120
60,36,201000,120
59,31,201120,120
62,37,201120,120
60,32,201240,120
64,38,201240,120
62,34,201360,240
65,40,201360,240
60,32,201600,240
64,38,201600,240
56,34,201840,240
64,41,201840,240
64,44,202080,240
57,37,202080,240
51,49,202440,360
52,33,202800,180
57,43,203040,120
64,34,203160,120
60,40,203280,120
64,35,203400,120
57,41,203520,120
64,34,203640,120
57,42,203760,120
64,36,203880,120
60,41,204000,120
64,36,204120,120
57,41,204240,120
64,36,204360,120
52,43,204480,120
64,34,204600,120
59,40,204720,120
64,35,204840,120
52,41,204960,120
64,34,205080,120
52,42,205200,120
64,36,205320,120
59,41,205440,120
64,36,205560,120
52,41,205680,120
64,36,205800,120
57,43,205920,120
64,34,206040,120
60,40,206160,120
64,35,206280,120
56,41,206400,120
64,34,206520,120
57,42,206640,120
64,36,206760,120
60,41,206880,120
64,36,207000,120
53,41,207120,120
62,36,207240,120
52,43,207360,120
60,34,207480,120
57,40,207600,120
60,35,207720,120
52,41,207840,120
59,34,207960,120
57,46,208080,480
45,43,208080,480
45,49,208800,120
52,39,208920,120
48,46,209040,120
52,40,209160,120
44,47,209280,120
52,39,209400,120
45,48,209520,120
52,41,209640,120
48,47,209760,120
52,41,209880,120
41,47,210000,120
50,41,210120,120
40,49,210240,120
48,39,210360,120
45,46,210480,120
48,40,210600,120
40,47,210720,120
47,39,210840,120
33,52,210960,30
36,49,211080,30
40,56,211200,30
45,51,211320,30
33,58,211440,60
45,39,213120,240
57,47,213120,240
40,39,214560,240
52,47,214560,240
45,44,216000,240
57,52,216000,240
57,47,216480,240
45,39,216480,240
40,43,216720,240
52,51,216720,240
40,39,217200,240
52,47,217200,240
64,48,218400,120
52,43,218640,120
45,65,218880,240
57,80,218880,240
40,65,220320,240
52,80,220320,240
45,65,221760,240
57,77,221760,240
42,63,222720,240
54,76,222720,240
50,70,222960,240
38,57,222960,240
52,84,223200,240
40,71,223200,240
57,49,224160,120
45,44,224400,120
45,39,224640,240
57,47,224640,240
40,39,226080,240
52,47,226080,240
57,52,227520,240
45,44,227520,240
57,47,228000,240
45,39,228000,240
52,51,228240,240
40,43,228240,240
40,39,228720,240
52,47,228720,240
64,48,229920,120
52,43,230160,120
45,65,230400,240
57,80,230400,240
52,80,231840,240
40,65,231840,240
57,77,233280,240
45,65,233280,240
42,63,234240,240
54,76,234240,240
38,57,234480,240
50,70,234480,240
52,84,234720,240
40,71,234720,240
57,49,235680,120
45,44,235920,120
57,42,236160,120
61,31,236280,120
64,34,236400,120
61,32,236520,120
64,34,236640,120
61,30,236760,120
57,40,236880,120
62,30,237000,120
66,33,237120,120
62,31,237240,120
66,33,237360,120
62,32,237480,120
57,40,237600,120
62,31,237720,120
66,34,237840,120
62,34,237960,120
66,39,238080,120
62,33,238200,120
57,43,238320,120
61,33,238440,120
64,33,238560,120
61,31,238680,120
64,33,238800,120
61,31,238920,120
45,52,239040,120
49,52,239040,120
61,45,239280,120
57,45,239280,120
47,52,239760,120
50,52,239760,120
59,45,240000,120
62,45,240000,120
61,37,240480,240
64,43,240480,240
62,42,240720,240
59,35,240720,240
57,36,240960,240
61,43,240960,240
52,42,241200,720
57,42,241200,480
61,50,241200,480
59,38,241680,240
56,32,241680,240
57,66,241920,240
45,53,241920,240
52,66,243360,240
40,53,243360,240
45,53,244800,240
57,63,244800,240
54,63,245760,240
42,52,245760,240
50,58,246000,240
38,47,246000,240
40,58,246240,240
52,69,246240,240
45,60,247680,240
57,72,247680,240
45,59,248640,240
57,72,248640,240
38,54,248880,240
50,66,248880,240
52,79,249120,240
40,66,249120,240
57,58,250080,120
45,52,250320,120
57,42,250560,120
61,31,250680,120
64,34,250800,120
61,32,250920,120
64,34,251040,120
61,30,251160,120
57,40,251280,120
62,30,251400,120
66,33,251520,120
62,31,251640,120
66,33,251760,120
62,32,251880,120
57,40,252000,120
62,31,252120,120
66,34,252240,120
62,34,252360,120
66,39,252480,120
62,33,252600,120
57,43,252720,120
61,33,252840,120
64,33,252960,120
61,31,253080,120
64,33,253200,120
61,31,253320,120
49,52,253440,120
45,52,253440,120
61,45,253680,120
57,45,253680,120
50,52,254160,120
47,52,254160,120
62,45,254400,120
59,45,254400,120
61,37,254880,240
64,43,254880,240
59,35,255120,240
62,42,255120,240
61,43,255360,240
57,36,255360,240
52,42,255600,720
61,50,255600,480
57,42,255600,480
59,38,256080,240
56,32,256080,240
57,66,256320,240
45,53,256320,240
40,53,257760,240
52,66,257760,240
57,63,259200,240
45,53,259200,240
42,52,260160,240
54,63,260160,240
38,47,260400,240
50,58,260400,240
52,69,260640,240
40,58,260640,240
45,60,262080,240
57,72,262080,240
45,59,263040,240
57,72,263040,240
50,66,263280,240
38,54,263280,240
52,79,263520,240
40,66,263520,240
57,58,264480,120
45,52,264720,120
57,43,266400,120
64,26,266520,120
61,30,266640,120
64,21,266760,120
57,36,266880,120
64,29,267000,120
61,30,267120,120
64,28,267240,120
57,38,267360,120
64,31,267480,120
59,33,267600,120
64,35,267720,120
61,41,267840,120
64,30,267960,120
57,30,268080,120
64,30,268200,120
61,36,268320,120
64,25,268440,120
57,29,268560,120
64,27,268680,120
61,36,268800,120
64,30,268920,120
57,30,269040,120
64,24,269160,120
56,38,269280,120
64,23,269400,120
63,25,269520,120
64,23,269640,120
56,36,269760,120
64,25,269880,120
63,28,270000,120
64,25,270120,120
56,41,270240,120
64,29,270360,120
57,32,270480,120
64,29,270600,120
58,40,270720,120
64,28,270840,120
63,31,270960,120
64,29,271080,120
59,36,271200,120
64,25,271320,120
63,29,271440,120
64,26,271560,120
56,36,271680,120
64,28,271800,120
52,30,271920,120
64,28,272040,120
54,38,272160,120
64,28,272280,120
63,30,272400,120
64,26,272520,120
54,40,272640,480
56,43,273600,120
64,34,273720,120
63,34,273840,120
64,34,273960,120
56,47,274080,480
64,47,275040,480
57,39,275040,480
54,40,275520,480
57,48,275520,480
50,43,276000,480
59,51,276000,480
56,52,276480,480
52,44,276480,480
45,64,277920,120
57,48,278040,90
57,51,278160,90
57,49,278280,90
57,50,278400,90
57,35,278520,90
57,38,278640,90
57,37,278760,90
57,42,278880,90
57,37,279000,90
57,40,279120,90
57,37,279240,90
57,47,279360,480
40,64,280800,120
52,46,280920,90
52,51,281040,90
52,47,281160,90
52,50,281280,90
52,36,281400,90
52,40,281520,90
52,36,281640,90
52,42,281760,90
52,35,281880,90
52,38,282000,90
52,38,282120,90
52,47,282240,480
64,40,284160,480
54,40,284160,480
56,40,284640,480
64,40,284640,480
57,40,285120,480
64,40,285120,480
59,47,286080,480
50,39,286080,480
54,39,286080,480
52,39,286560,1440
57,39,286560,960
61,47,286560,960
62,40,287520,480
59,30,287520,480
57,28,288000,960
62,34,288000,480
61,30,288480,480
57,43,289440,120
64,26,289560,120
61,30,289680,120
64,25,289800,120
57,42,289920,120
64,29,290040,120
61,32,290160,120
64,29,290280,120
57,43,290400,120
64,31,290520,120
59,33,290640,120
64,30,290760,120
61,42,290880,120
64,29,291000,120
57,31,291120,120
64,28,291240,120
61,36,291360,120
64,26,291480,120
57,29,291600,120
64,26,291720,120
61,36,291840,120
64,28,291960,120
57,30,292080,120
64,26,292200,120
56,38,292320,120
64,22,292440,120
63,27,292560,120
64,23,292680,120
56,36,292800,120
64,26,292920,120
63,30,293040,120
64,29,293160,120
56,39,293280,120
64,31,293400,120
57,33,293520,120
64,38,293640,120
58,42,293760,120
64,28,293880,120
63,31,294000,120
64,28,294120,120
59,36,294240,120
64,27,294360,120
63,29,294480,120
64,27,294600,120
56,36,294720,120
64,28,294840,120
52,30,294960,120
64,28,295080,120
54,38,295200,120
64,29,295320,120
63,30,295440,120
64,28,295560,120
54,40,295680,480
56,43,296640,120
64,32,296760,120
63,34,296880,120
64,30,297000,120
56,47,297120,480
57,35,298080,480
64,42,298080,480
57,43,298560,480
54,36,298560,480
59,45,299040,480
50,38,299040,480
52,39,299520,480
56,46,299520,480
45,64,300960,120
57,47,301080,90
57,51,301200,90
57,46,301320,90
57,50,301440,90
57,32,301560,90
57,37,301680,90
57,33,301800,90
57,42,301920,90
57,35,302040,90
57,39,302160,90
57,34,302280,90
57,47,302400,480
40,64,303840,120
52,46,303960,90
52,51,304080,90
52,46,304200,90
52,50,304320,90
52,34,304440,90
52,38,304560,90
52,34,304680,90
52,42,304800,90
52,34,304920,90
52,38,305040,90
52,35,305160,90
52,47,305280,480
64,43,307200,480
54,43,307200,480
64,43,307680,480
56,43,307680,480
64,43,308160,480
57,43,308160,480
50,39,309120,480
59,47,309120,480
54,39,309120,480
52,39,309600,1440
57,39,309600,960
61,47,309600,960
62,40,310560,480
59,30,310560,480
57,28,311040,960
62,34,311040,480
61,33,311520,480
57,43,312480,120
69,32,312600,120
61,37,312720,120
69,32,312840,120
57,45,312960,120
68,34,313080,120
59,37,313200,120
68,34,313320,120
57,47,313440,120
67,36,313560,120
61,42,313680,120
67,38,313800,120
57,50,313920,120
66,43,314040,120
62,46,314160,120
66,43,314280,120
54,54,314400,120
62,44,314520,120
57,47,314640,120
62,44,314760,118
50,51,314880,120
57,43,315000,120
54,46,315120,120
57,43,315240,120
45,56,315360,120
54,46,315480,120
50,49,315600,120
54,47,315720,120
45,60,315840,120
54,52,315960,120
50,55,316080,120
54,58,316200,120
45,70,316320,120
54,57,316440,120
50,61,316560,120
54,59,316680,120
45,70,316800,480
50,70,316800,480
45,53,317280,480
49,53,317280,480
61,43,318240,1440
57,43,318240,1440
64,51,318240,1440
59,43,319680,1440
64,51,319680,1440
62,43,319680,1440
64,54,321120,480
57,45,321120,480
61,45,321120,480
56,45,321600,480
59,45,321600,480
64,53,321600,480
57,45,322080,480
64,53,322080,480
61,45,322080,480
61,57,322560,480
52,43,322560,960
57,48,322560,480
56,43,323040,480
59,51,323040,480
57,37,324000,120
64,28,324120,120
61,33,324240,120
64,28,324360,120
57,42,324480,120
64,31,324600,120
61,37,324720,120
64,33,324840,120
57,42,324960,120
64,32,325080,120
59,37,325200,120
64,32,325320,120
61,44,325440,120
64,28,325560,120
57,31,325680,120
64,27,325800,120
61,34,325920,120
64,22,326040,120
57,28,326160,120
64,23,326280,120
61,37,326400,120
64,28,326520,120
57,32,326640,120
64,28,326760,120
56,37,326880,120
64,29,327000,120
63,33,327120,120
64,30,327240,120
56,37,327360,120
64,31,327480,120
63,33,327600,120
64,30,327720,120
56,37,327840,120
64,30,327960,120
57,33,328080,120
64,30,328200,120
59,37,328320,120
64,29,328440,120
63,31,328560,120
64,28,328680,120
56,34,328800,120
64,25,328920,120
59,28,329040,120
64,26,329160,120
52,40,329280,120
64,30,329400,120
56,33,329520,120
64,30,329640,120
54,39,329760,120
64,28,329880,120
63,31,330000,120
64,27,330120,120
54,42,330240,120
64,32,330360,120
63,36,330480,120
64,34,330600,120
56,42,330720,120
64,35,330840,120
63,36,330960,120
64,34,331080,120
57,42,331200,480
50,37,332160,480
54,43,332160,480
59,51,332160,480
52,44,332640,1440
57,44,332640,960
61,54,332640,960
62,46,333600,480
59,34,333600,480
62,33,334080,960
57,33,334080,1440
64,39,334080,1440
61,39,335040,480
45,61,335520,120
49,50,335640,120
52,54,335760,120
57,50,335880,120
45,61,336000,120
49,50,336120,120
52,54,336240,120
57,50,336360,120
47,61,336480,120
50,52,336600,120
56,56,336720,120
59,52,336840,120
49,51,336960,960
57,61,336960,960
50,56,337920,480
57,66,337920,480
52,35,338400,480
61,42,338400,480
52,35,338880,480
61,42,338880,480
52,31,339360,480
56,31,339360,480
62,37,339360,480
57,34,339840,960
62,41,339840,480
61,41,340320,480
57,39,341280,120
69,29,341400,120
61,36,341520,120
69,32,341640,120
57,45,341760,120
68,34,341880,120
59,37,342000,120
68,34,342120,120
57,47,342240,120
67,36,342360,120
61,42,342480,120
67,38,342600,120
57,48,342720,120
66,41,342840,120
62,44,342960,120
66,41,343080,120
54,52,343200,120
62,41,343320,120
57,45,343440,120
62,41,343560,118
50,51,343680,120
57,43,343800,120
54,46,343920,120
57,43,344040,120
45,56,344160,120
54,47,344280,120
50,49,344400,120
54,47,344520,120
45,60,344640,120
54,52,344760,120
50,55,344880,120
54,58,345000,120
45,70,345120,120
54,59,345240,120
50,61,345360,120
54,57,345480,120
45,70,345600,480
50,70,345600,480
45,53,346080,480
49,53,346080,480
61,43,347040,1440
57,43,347040,1440
64,51,347040,1440
59,43,348480,1440
64,51,348480,1440
62,43,348480,1440
64,54,349920,480
57,45,349920,480
61,45,349920,480
56,45,350400,480
59,45,350400,480
64,53,350400,480
57,45,350880,480
64,53,350880,480
61,45,350880,480
61,57,351360,480
52,43,351360,960
57,48,351360,480
56,43,351840,480
59,51,351840,480
57,37,352800,120
64,29,352920,120
61,33,353040,120
64,28,353160,120
57,42,353280,120
64,33,353400,120
61,37,353520,120
64,28,353640,120
57,42,353760,120
64,30,353880,120
59,37,354000,120
64,30,354120,120
61,44,354240,120
64,27,354360,120
57,31,354480,120
64,27,354600,120
61,34,354720,120
64,26,354840,120
57,28,354960,120
64,26,355080,120
61,37,355200,120
64,29,355320,120
57,32,355440,120
64,28,355560,120
56,37,355680,120
64,30,355800,120
63,33,355920,120
64,29,356040,120
56,37,356160,120
64,30,356280,120
63,33,356400,120
64,28,356520,120
56,37,356640,120
64,30,356760,120
57,33,356880,120
64,28,357000,120
59,37,357120,120
64,28,357240,120
63,31,357360,120
64,27,357480,120
56,34,357600,120
64,25,357720,120
59,28,357840,120
64,25,357960,120
52,40,358080,120
64,30,358200,120
56,33,358320,120
64,29,358440,120
54,39,358560,120
64,28,358680,120
63,31,358800,120
64,30,358920,120
54,42,359040,120
64,34,359160,120
63,36,359280,120
64,33,359400,120
56,42,359520,120
64,33,359640,120
63,36,359760,120
64,34,359880,120
57,42,360000,480
50,37,360960,480
54,43,360960,480
59,51,360960,480
52,44,361440,1440
57,44,361440,960
61,54,361440,960
62,46,362400,480
59,34,362400,480
62,33,362880,960
57,33,362880,1440
64,39,362880,1440
61,39,363840,480
45,61,364320,120
49,51,364440,120
52,54,364560,120
57,51,364680,120
45,61,364800,120
49,51,364920,120
52,54,365040,120
57,51,365160,120
47,61,365280,120
50,52,365400,120
56,56,365520,120
59,51,365640,120
49,51,365760,960
57,61,365760,960
50,56,366720,480
57,66,366720,480
52,35,367200,480
61,42,367200,480
52,35,367680,480
61,42,367680,480
52,31,368160,480
56,31,368160,480
62,37,368160,480
57,24,368640,960
62,28,368640,480
61,22,369120,480
57,41,372960,240
64,32,373200,240
59,37,373440,240
64,32,373680,240
61,42,373920,240
64,33,374160,240
57,36,374400,240
64,33,374640,240
56,42,374880,240
64,33,375120,240
57,36,375360,240
64,33,375600,240
59,42,375840,240
64,31,376080,240
62,35,376320,240
64,31,376560,240
61,40,376800,240
64,31,377040,240
61,34,377280,240
64,31,377520,240
56,39,377760,240
64,31,378000,240
56,33,378240,240
64,31,378480,240
57,40,378720,240
64,31,378960,240
59,34,379200,240
64,31,379440,240
57,38,379680,480
52,31,379680,720
56,41,380160,240
33,64,380550,330
37,70,380580,300
40,75,380610,270
45,80,380640,240
57,58,381510,330
61,62,381540,300
64,68,381570,270
69,71,381600,240
40,70,382470,330
44,72,382500,300
47,77,382530,270
52,80,382560,240
52,58,383430,330
56,68,383460,300
59,62,383490,270
64,71,383520,240
42,80,384480,60
54,73,384720,60
44,80,384960,60
56,73,385200,60
57,75,385440,60
61,77,385680,60
62,83,385920,60
56,78,386160,60
57,84,386400,60
54,77,386640,60
50,80,386880,60
52,79,387120,60
45,75,387360,480
33,61,387840,420
37,61,387840,420
40,78,387840,420
57,41,388320,240
64,32,388560,240
59,37,388800,240
64,32,389040,240
61,42,389280,240
64,33,389520,240
57,36,389760,240
64,33,390000,240
56,42,390240,240
64,33,390480,240
57,36,390720,240
64,33,390960,240
59,42,391200,240
64,31,391440,240
62,35,391680,240
64,31,391920,240
61,40,392160,240
64,31,392400,240
61,34,392640,240
64,31,392880,240
56,39,393120,240
64,31,393360,240
56,33,393600,240
64,31,393840,240
57,40,394080,240
64,31,394320,240
59,34,394560,240
64,31,394800,240
57,38,395040,480
52,31,395040,720
56,41,395520,240
33,59,395910,330
37,70,395940,300
40,75,395970,270
45,80,396000,240
57,58,396870,330
61,62,396900,300
64,68,396930,270
69,71,396960,240
40,70,397830,330
44,72,397860,300
47,77,397890,270
52,80,397920,240
52,58,398790,330
56,68,398820,300
59,62,398850,270
64,71,398880,240
42,80,399840,60
54,73,400080,60
44,80,400320,60
56,73,400560,60
57,75,400800,60
61,77,401040,60
62,83,401280,60
56,78,401520,60
57,84,401760,60
54,77,402000,60
50,80,402240,60
52,79,402480,60
45,75,402720,480
33,61,403200,480
37,61,403200,480
40,78,403200,480
57,40,403680,240
64,36,403920,240
61,36,404160,240
64,36,404400,240
57,43,404640,240
66,35,404880,240
62,35,405120,240
66,35,405360,240
57,43,405600,240
66,35,405840,240
62,37,406080,240
66,39,406320,240
57,44,406560,240
64,35,406800,240
61,35,407040,240
64,35,407280,240
45,55,407430,330
49,59,407460,300
52,65,407490,270
57,68,407520,240
47,55,408390,330
50,59,408420,300
56,65,408450,270
59,68,408480,240
49,59,409350,330
52,61,409380,300
57,66,409410,260
61,68,409440,240
50,59,409830,330
54,61,409860,300
59,66,409890,260
62,68,409920,240
52,55,410310,330
56,65,410340,300
59,59,410370,270
64,68,410400,240
62,47,411000,120
61,44,411120,120
59,41,411240,120
57,41,411360,240
64,32,411600,240
59,37,411840,240
64,32,412080,240
61,42,412320,240
64,33,412560,240
57,36,412800,240
64,33,413040,240
56,42,413280,240
64,33,413520,240
57,36,413760,240
64,33,414000,240
59,42,414240,240
64,31,414480,240
56,35,414720,240
64,31,414960,240
54,40,415200,240
64,31,415440,240
56,34,415680,240
64,31,415920,240
57,39,416160,240
64,31,416400,240
50,33,416640,240
59,31,416880,240
52,40,417120,240
57,31,417360,240
52,34,417600,240
56,31,417840,240
64,32,418080,720
62,38,418080,480
57,26,418080,720
61,31,418560,240
45,66,419040,120
49,56,419160,120
52,55,419280,120
57,55,419400,120
47,66,419520,120
50,56,419640,120
56,56,419760,120
59,56,419880,120
49,66,420000,120
52,55,420120,120
57,55,420240,120
61,55,420360,120
50,66,420480,120
54,53,420600,120
59,53,420720,120
62,53,420840,120
52,66,420960,120
57,56,421080,120
61,55,421200,120
64,55,421320,120
40,67,421440,120
44,56,421560,120
47,56,421680,120
52,56,421800,120
45,68,421920,120
49,57,422040,120
52,57,422160,120
57,57,422280,120
45,67,422400,420
57,40,422880,240
64,36,423120,240
61,36,423360,240
64,36,423600,240
57,43,423840,240
66,35,424080,240
62,35,424320,240
66,35,424560,240
57,43,424800,240
66,35,425040,240
62,37,425280,240
66,39,425520,240
57,44,425760,240
64,35,426000,240
61,35,426240,240
64,35,426480,240
45,55,426630,330
49,59,426660,300
52,65,426690,270
57,68,426720,240
47,55,427590,330
50,59,427620,300
56,65,427650,270
59,68,427680,240
49,53,428550,330
52,56,428580,300
57,59,428610,260
61,63,428640,240
50,55,429030,330
54,58,429060,300
59,60,429090,260
62,64,429120,240
52,56,429510,330
56,59,429540,300
59,63,429570,270
64,66,429600,240
62,47,430200,120
61,44,430320,120
59,41,430440,120
57,41,430560,240
64,32,430800,240
59,37,431040,240
64,32,431280,240
61,42,431520,240
64,33,431760,240
57,36,432000,240
64,33,432240,240
56,42,432480,240
64,33,432720,240
57,36,432960,240
64,33,433200,240
59,42,433440,240
64,31,433680,240
56,35,433920,240
64,31,434160,240
54,40,434400,240
64,31,434640,240
56,34,434880,240
64,31,435120,240
57,39,435360,240
64,31,435600,240
50,33,435840,240
59,31,436080,240
52,40,436320,240
57,31,436560,240
52,34,436800,240
56,31,437040,240
64,32,437280,720
62,38,437280,480
57,26,437280,720
61,31,437760,240
45,66,438240,120
49,56,438360,120
52,55,438480,120
57,55,438600,120
47,66,438720,120
50,56,438840,120
56,56,438960,120
59,56,439080,120
49,66,439200,120
52,55,439320,120
57,55,439440,120
61,55,439560,120
50,66,439680,120
54,53,439800,120
59,53,439920,120
62,53,440040,120
52,66,440160,120
57,56,440280,120
61,55,440400,120
64,55,440520,120
52,67,440640,120
56,56,440760,120
59,56,440880,120
62,56,441000,110
57,36,441120,240
61,43,441120,240
61,30,441360,228
64,36,441360,228
61,30,441600,228
64,36,441600,228
61,28,441840,220
64,34,441840,220
57,41,442080,240
62,28,442320,228
66,33,442320,228
62,28,442560,228
66,33,442560,228
62,28,442800,240
66,33,442800,240
57,37,443040,240
61,27,443280,228
64,32,443280,228
61,27,443520,228
64,32,443520,228
61,27,443760,240
64,32,443760,240
57,41,444000,240
62,28,444240,228
66,33,444240,228
62,28,444480,228
66,33,444480,228
62,28,444720,240
66,33,444720,240
57,41,444960,240
61,41,444960,240
64,41,444960,240
50,41,445920,240
59,41,445920,240
52,41,446880,240
57,41,446880,240
50,41,447840,240
56,41,447840,240
49,63,448800,240
57,63,448800,240
50,63,449760,240
59,63,449760,240
52,63,450720,240
57,63,450720,240
52,63,451680,240
56,63,451680,240
57,63,452640,480
52,61,454080,120
56,61,454080,120
59,61,454080,120
64,73,454080,120
45,67,454560,120
49,67,454560,120
52,67,454560,120
57,79,454560,120
52,63,456000,120
56,63,456000,120
59,63,456000,120
64,75,456000,120
45,70,456480,120
49,70,456480,120
52,70,456480,120
57,82,456480,120
