note,velocity,position,duration
79,79,1,119
79,71,240,360
77,71,600,60
76,69,660,57
76,70,720,60
74,64,780,60
72,67,840,60
71,66,900,60
72,47,960,45
74,49,1000,45
72,55,1040,45
74,52,1080,45
72,57,1120,45
74,51,1160,45
72,59,1200,45
74,56,1240,45
72,63,1280,60
74,62,1320,60
76,63,1380,60
67,69,1440,240
79,77,1920,60
79,73,2040,60
79,69,2160,360
77,64,2520,60
76,61,2580,57
76,64,2640,60
74,60,2700,60
72,61,2760,60
71,60,2820,60
72,47,2880,45
74,49,2920,45
72,55,2960,45
74,52,3000,45
72,57,3040,45
74,51,3080,45
72,59,3120,45
74,56,3160,45
72,63,3200,60
74,62,3240,60
76,63,3300,60
67,62,3360,240
69,54,3840,60
72,53,3960,60
77,54,4080,60
81,52,4200,60
84,58,4320,120
67,56,4800,60
72,54,4920,60
76,56,5040,60
79,53,5160,60
84,61,5280,120
67,63,5700,60
79,83,5760,720
77,60,6480,40
79,68,6520,40
77,68,6560,40
76,76,6600,60
77,71,6660,60
75,78,6720,240
76,76,6960,240
69,57,7680,120
72,57,7800,60
69,52,7860,60
77,57,7920,60
72,51,7980,60
81,55,8040,60
77,50,8100,60
84,63,8160,120
67,59,8640,120
72,59,8760,60
67,53,8820,60
76,59,8880,60
72,52,8940,60
79,57,9000,60
76,50,9060,60
84,63,9120,120
81,85,9600,120
79,74,9720,120
77,79,9840,60
76,73,9960,60
76,85,10080,120
74,73,10200,120
72,79,10320,60
71,73,10440,60
72,82,10560,72
67,69,10620,72
69,70,10680,72
71,68,10740,72
72,73,10800,72
74,72,10860,72
76,76,10920,72
77,74,10980,72
79,77,11040,72
81,72,11100,72
83,77,11160,72
84,71,11220,60
79,75,11280,60
79,72,11400,60
79,54,11580,60
81,54,11640,60
79,51,11700,60
77,54,11820,60
79,54,11880,60
77,51,11940,60
76,54,12060,60
77,54,12120,60
76,50,12180,60
74,54,12300,60
76,54,12360,60
74,53,12420,60
72,79,12480,72
67,72,12540,72
69,76,12600,72
71,73,12660,72
72,79,12720,72
74,75,12780,72
76,80,12840,72
77,74,12900,72
79,78,12960,72
81,74,13020,72
83,79,13080,72
84,72,13140,60
79,75,13200,60
79,72,13320,60
79,54,13500,60
81,54,13560,60
79,51,13620,60
77,54,13740,60
79,54,13800,60
77,50,13860,60
76,54,13980,60
77,54,14040,60
76,51,14100,60
74,54,14220,60
76,54,14280,60
74,51,14340,60
72,81,14400,360
74,73,14760,60
76,68,14820,60
77,82,14880,60
77,79,15000,240
79,76,15240,60
81,71,15300,60
79,83,15360,120
76,78,15480,120
84,81,15600,60
84,79,15720,60
86,78,15840,60
84,71,15900,60
83,74,15960,60
81,68,16020,57
81,69,16080,60
79,63,16140,60
77,67,16200,60
76,64,16260,60
79,68,16320,360
76,67,16680,120
74,61,16800,240
73,60,17280,120
74,56,17400,120
72,55,17520,60
71,52,17580,60
69,55,17640,60
67,53,17700,60
73,61,17760,120
74,59,17880,120
72,55,18000,60
71,52,18060,60
69,55,18120,60
67,53,18180,60
75,64,18240,120
76,60,18360,120
76,63,18480,60
76,57,18600,60
76,63,18720,240
69,64,19140,60
81,82,19200,360
79,72,19560,40
78,69,19600,40
76,66,19640,40
74,80,19680,120
86,75,19800,60
86,78,19920,60
86,74,20040,60
86,85,20160,300
83,70,20460,60
86,73,20520,60
83,70,20580,60
79,72,20640,240
73,60,21120,120
74,58,21240,120
72,54,21360,60
71,51,21420,60
69,54,21480,60
67,52,21540,60
73,54,21600,60
74,53,21660,60
76,55,21720,60
74,57,21780,60
72,56,21840,60
71,55,21900,60
69,54,21960,60
67,54,22020,60
75,64,22080,120
76,63,22200,117
76,63,22320,60
76,60,22440,60
76,63,22560,240
81,77,23040,72
83,71,23100,72
84,77,23160,72
83,72,23220,72
81,78,23280,72
79,74,23340,72
78,78,23400,72
76,73,23460,72
74,73,23520,72
78,75,23580,72
81,77,23640,72
79,72,23700,72
78,75,23760,72
76,72,23820,72
74,74,23880,72
72,67,23940,72
71,78,24000,120
72,67,24240,30
74,63,24270,30
72,67,24300,30
74,63,24330,30
72,67,24360,30
71,76,24400,40
72,72,24440,40
74,81,24480,120
76,53,24880,40
78,53,24920,40
79,61,24960,240
79,56,25200,180
79,54,25380,60
79,56,25440,240
78,55,25680,60
76,52,25740,60
74,53,25800,60
72,51,25860,60
71,77,25920,120
72,67,26160,30
74,63,26190,30
72,67,26220,30
74,63,26250,30
72,67,26280,30
71,76,26320,40
72,72,26360,40
74,82,26400,120
76,53,26800,40
78,51,26840,40
79,61,26880,240
79,55,27120,180
79,54,27300,60
79,55,27360,240
78,54,27600,60
76,53,27660,60
74,54,27720,60
72,50,27780,60
71,79,27840,60
79,70,27960,72
81,72,28020,72
83,76,28080,72
81,72,28140,72
79,77,28200,72
78,72,28260,72
76,77,28320,72
74,72,28380,72
72,77,28440,72
71,72,28500,72
69,74,28560,72
67,72,28620,72
66,75,28680,72
64,69,28740,72
62,81,28800,120
60,89,29040,480
59,72,29520,240
57,55,29880,60
60,55,30000,60
64,53,30120,60
68,55,30240,120
69,53,30360,120
72,55,30480,120
76,54,30600,120
76,63,30720,120
67,55,30840,110
67,55,30960,480
71,56,31440,120
66,56,31440,240
69,54,31560,120
67,54,31680,240
74,75,32160,120
71,67,32280,120
79,54,32400,120
78,53,32520,60
76,51,32640,60
74,49,32760,60
72,48,32880,60
71,50,33000,60
69,53,33120,120
71,54,33360,120
74,58,33600,120
73,54,33720,120
72,51,33840,120
71,51,34080,120
72,54,34200,120
74,57,34320,120
75,59,34440,60
76,49,34560,36
78,51,34596,36
76,54,34632,36
78,56,34668,36
76,58,34704,36
78,62,34740,60
79,68,34800,60
78,64,34920,60
76,63,35040,60
74,59,35160,60
72,60,35280,60
71,56,35400,60
74,64,35520,180
71,59,35700,60
69,55,35760,120
74,86,36000,180
76,81,36180,30
78,78,36210,30
79,86,36240,120
78,62,36360,60
76,62,36480,60
74,58,36600,60
72,62,36720,60
71,57,36840,60
69,63,36960,120
71,70,37200,120
72,72,37440,120
73,78,37680,120
74,83,37920,120
75,83,38160,120
76,87,38400,180
64,82,38580,60
72,72,38640,180
69,72,38820,60
67,69,38880,240
71,57,39090,30
69,63,39120,240
66,63,39120,240
67,71,39360,240
79,74,39660,60
81,77,39720,60
79,73,39780,60
76,78,39840,60
79,74,39900,60
81,77,39960,60
79,74,40020,60
84,81,40080,60
79,76,40140,60
76,78,40200,60
72,73,40260,60
79,83,40320,60
79,81,40440,60
79,73,40620,60
81,77,40680,60
79,73,40740,60
76,78,40800,60
79,74,40860,60
81,76,40920,60
79,74,40980,60
84,81,41040,60
79,75,41100,60
76,77,41160,60
72,73,41220,60
79,84,41280,60
79,82,41400,60
74,55,41580,60
78,55,41640,60
74,53,41700,60
79,59,41760,60
79,59,41880,60
74,54,42060,60
78,54,42120,60
74,52,42180,60
79,59,42240,60
79,59,42360,60
74,67,42540,60
81,71,42600,60
74,69,42660,60
83,75,42720,60
74,73,42780,60
83,79,42840,60
74,76,42900,60
84,83,42960,60
74,81,43020,60
84,88,43080,60
74,84,43140,60
86,91,43200,120
83,79,43320,120
79,84,43440,120
83,73,43560,120
74,78,43680,120
79,70,43800,120
71,72,43920,120
74,68,44040,120
69,60,44160,120
76,63,44280,120
74,63,44400,60
72,60,44460,60
71,63,44520,60
69,60,44580,60
67,63,44640,240
66,60,44880,32
67,63,44912,32
66,60,44944,32
67,63,44976,32
66,63,45008,32
64,63,45040,40
66,60,45080,40
67,77,45120,240
79,74,45420,60
81,77,45480,60
79,75,45540,60
76,81,45600,60
79,75,45660,60
81,79,45720,60
79,75,45780,60
84,81,45840,60
79,78,45900,60
76,79,45960,60
72,75,46020,60
79,84,46080,60
79,81,46200,60
79,75,46380,60
81,77,46440,60
79,73,46500,60
76,81,46560,60
79,75,46620,60
81,78,46680,60
79,77,46740,60
84,81,46800,60
79,76,46860,60
76,78,46920,60
72,75,46980,60
79,84,47040,60
79,82,47160,60
74,54,47340,60
78,54,47400,60
74,50,47460,60
79,56,47520,60
79,57,47640,60
74,54,47820,60
78,54,47880,60
74,50,47940,60
79,57,48000,60
79,57,48120,60
74,67,48300,60
81,71,48360,60
74,66,48420,60
83,75,48480,60
74,73,48540,60
83,81,48600,60
74,77,48660,60
84,84,48720,60
74,82,48780,60
84,90,48840,60
74,85,48900,60
86,94,48960,60
83,85,49020,60
86,89,49080,60
83,83,49140,60
79,87,49200,60
83,81,49260,60
79,85,49320,60
83,81,49380,60
74,86,49440,60
79,80,49500,60
74,81,49560,60
79,74,49620,60
71,73,49680,60
74,68,49740,60
71,68,49800,60
74,63,49860,60
69,54,49920,60
76,51,49980,60
75,54,50040,60
76,52,50100,60
74,54,50160,60
72,51,50220,60
71,54,50280,60
69,52,50340,60
67,63,50400,240
66,60,50640,32
67,63,50672,32
66,60,50704,32
67,63,50736,32
66,63,50768,32
64,63,50800,40
66,60,50840,40
67,86,50880,180
62,81,51060,60
71,86,51120,180
67,81,51300,60
74,87,51360,120
81,54,51600,72
79,51,51660,72
78,54,51720,72
76,52,51780,72
74,57,51840,120
76,54,52080,72
74,51,52140,72
72,54,52200,72
71,51,52260,72
69,57,52320,120
74,56,52560,72
72,56,52620,72
71,56,52680,72
69,53,52740,72
67,84,52800,60
62,80,52860,60
67,84,52920,60
62,80,52980,60
71,84,53040,60
67,80,53100,60
71,84,53160,60
67,80,53220,60
74,84,53280,120
81,55,53520,72
79,52,53580,72
78,55,53640,72
76,52,53700,72
74,58,53760,60
74,58,53880,60
76,54,54000,72
74,51,54060,72
72,54,54120,72
71,50,54180,72
69,57,54240,60
69,57,54360,60
74,55,54480,72
72,53,54540,72
71,55,54600,72
69,52,54660,72
67,58,54720,240
71,54,54960,120
62,54,54960,120
67,56,55200,120
59,56,55200,120
79,79,55681,119
79,71,55920,360
77,71,56280,60
76,69,56340,57
76,70,56400,60
74,64,56460,60
72,67,56520,60
71,66,56580,60
72,47,56640,45
74,49,56680,45
72,55,56720,45
74,52,56760,45
72,57,56800,45
74,51,56840,45
72,59,56880,45
74,56,56920,45
72,63,56960,60
74,62,57000,60
76,63,57060,60
67,69,57120,240
79,77,57600,60
79,73,57720,60
79,69,57840,360
77,64,58200,60
76,61,58260,57
76,64,58320,60
74,60,58380,60
72,61,58440,60
71,60,58500,60
72,47,58560,45
74,49,58600,45
72,55,58640,45
74,52,58680,45
72,57,58720,45
74,51,58760,45
72,59,58800,45
74,56,58840,45
72,63,58880,60
74,62,58920,60
76,63,58980,60
67,62,59040,240
69,54,59520,60
72,53,59640,60
77,54,59760,60
81,52,59880,60
84,58,60000,120
67,56,60480,60
72,54,60600,60
76,56,60720,60
79,53,60840,60
84,61,60960,120
67,63,61380,60
79,83,61440,720
77,60,62160,40
79,68,62200,40
77,68,62240,40
76,76,62280,60
77,71,62340,60
75,78,62400,240
76,76,62640,240
69,57,63360,120
72,57,63480,60
69,52,63540,60
77,57,63600,60
72,51,63660,60
81,55,63720,60
77,50,63780,60
84,63,63840,120
67,59,64320,120
72,59,64440,60
67,53,64500,60
76,59,64560,60
72,52,64620,60
79,57,64680,60
76,50,64740,60
84,63,64800,120
81,85,65280,120
79,74,65400,120
77,79,65520,60
76,73,65640,60
76,85,65760,120
74,73,65880,120
72,79,66000,60
71,73,66120,60
72,82,66240,72
67,69,66300,72
69,70,66360,72
71,68,66420,72
72,73,66480,72
74,72,66540,72
76,76,66600,72
77,74,66660,72
79,77,66720,72
81,72,66780,72
83,77,66840,72
84,71,66900,60
79,75,66960,60
79,72,67080,60
79,54,67260,60
81,54,67320,60
79,51,67380,60
77,54,67500,60
79,54,67560,60
77,51,67620,60
76,54,67740,60
77,54,67800,60
76,50,67860,60
74,54,67980,60
76,54,68040,60
74,53,68100,60
72,79,68160,72
67,72,68220,72
69,76,68280,72
71,73,68340,72
72,79,68400,72
74,75,68460,72
76,80,68520,72
77,74,68580,72
79,78,68640,72
81,74,68700,72
83,79,68760,72
84,72,68820,60
79,75,68880,60
79,72,69000,60
79,54,69180,60
81,54,69240,60
79,51,69300,60
77,54,69420,60
79,54,69480,60
77,50,69540,60
76,54,69660,60
77,54,69720,60
76,51,69780,60
74,54,69900,60
76,54,69960,60
74,51,70020,60
72,81,70080,360
74,73,70440,60
76,68,70500,60
77,82,70560,60
77,79,70680,240
79,76,70920,60
81,71,70980,60
79,83,71040,120
76,78,71160,120
84,81,71280,60
84,79,71400,60
86,78,71520,60
84,71,71580,60
83,74,71640,60
81,68,71700,57
81,69,71760,60
79,63,71820,60
77,67,71880,60
76,64,71940,60
79,68,72000,360
76,67,72360,120
74,61,72480,240
73,60,72960,120
74,56,73080,120
72,55,73200,60
71,52,73260,60
69,55,73320,60
67,53,73380,60
73,61,73440,120
74,59,73560,120
72,55,73680,60
71,52,73740,60
69,55,73800,60
67,53,73860,60
75,64,73920,120
76,60,74040,120
76,63,74160,60
76,57,74280,60
76,63,74400,240
69,64,74820,60
81,82,74880,360
79,72,75240,40
78,69,75280,40
76,66,75320,40
74,80,75360,120
86,75,75480,60
86,78,75600,60
86,74,75720,60
86,85,75840,300
83,70,76140,60
86,73,76200,60
83,70,76260,60
79,72,76320,240
73,60,76800,120
74,58,76920,120
72,54,77040,60
71,51,77100,60
69,54,77160,60
67,52,77220,60
73,54,77280,60
74,53,77340,60
76,55,77400,60
74,57,77460,60
72,56,77520,60
71,55,77580,60
69,54,77640,60
67,54,77700,60
75,64,77760,120
76,63,77880,117
76,63,78000,60
76,60,78120,60
76,63,78240,240
81,77,78720,72
83,71,78780,72
84,77,78840,72
83,72,78900,72
81,78,78960,72
79,74,79020,72
78,78,79080,72
76,73,79140,72
74,73,79200,72
78,75,79260,72
81,77,79320,72
79,72,79380,72
78,75,79440,72
76,72,79500,72
74,74,79560,72
72,67,79620,72
71,78,79680,120
72,67,79920,30
74,63,79950,30
72,67,79980,30
74,63,80010,30
72,67,80040,30
71,76,80080,40
72,72,80120,40
74,81,80160,120
76,53,80560,40
78,53,80600,40
79,61,80640,240
79,56,80880,180
79,54,81060,60
79,56,81120,240
78,55,81360,60
76,52,81420,60
74,53,81480,60
72,51,81540,60
71,77,81600,120
72,67,81840,30
74,63,81870,30
72,67,81900,30
74,63,81930,30
72,67,81960,30
71,76,82000,40
72,72,82040,40
74,82,82080,120
76,53,82480,40
78,51,82520,40
79,61,82560,240
79,55,82800,180
79,54,82980,60
79,55,83040,240
78,54,83280,60
76,53,83340,60
74,54,83400,60
72,50,83460,60
71,79,83520,60
79,70,83640,72
81,72,83700,72
83,76,83760,72
81,72,83820,72
79,77,83880,72
78,72,83940,72
76,77,84000,72
74,72,84060,72
72,77,84120,72
71,72,84180,72
69,74,84240,72
67,72,84300,72
66,75,84360,72
64,69,84420,72
62,81,84480,120
60,89,84720,480
59,72,85200,240
57,55,85560,60
60,55,85680,60
64,53,85800,60
68,55,85920,120
69,53,86040,120
72,55,86160,120
76,54,86280,120
76,63,86400,120
67,55,86520,110
67,55,86640,480
71,56,87120,120
66,56,87120,240
69,54,87240,120
67,54,87360,240
74,75,87840,120
71,67,87960,120
79,54,88080,120
78,53,88200,60
76,51,88320,60
74,49,88440,60
72,48,88560,60
71,50,88680,60
69,53,88800,120
71,54,89040,120
74,58,89280,120
73,54,89400,120
72,51,89520,120
71,51,89760,120
72,54,89880,120
74,57,90000,120
75,59,90120,60
76,49,90240,36
78,51,90276,36
76,54,90312,36
78,56,90348,36
76,58,90384,36
78,62,90420,60
79,68,90480,60
78,64,90600,60
76,63,90720,60
74,59,90840,60
72,60,90960,60
71,56,91080,60
74,64,91200,180
71,59,91380,60
69,55,91440,120
74,86,91680,180
76,81,91860,30
78,78,91890,30
79,86,91920,120
78,62,92040,60
76,62,92160,60
74,58,92280,60
72,62,92400,60
71,57,92520,60
69,63,92640,120
71,70,92880,120
72,72,93120,120
73,78,93360,120
74,83,93600,120
75,83,93840,120
76,87,94080,180
64,82,94260,60
72,72,94320,180
69,72,94500,60
67,69,94560,240
71,57,94770,30
69,63,94800,240
66,63,94800,240
67,71,95040,240
79,74,95340,60
81,77,95400,60
79,73,95460,60
76,78,95520,60
79,74,95580,60
81,77,95640,60
79,74,95700,60
84,81,95760,60
79,76,95820,60
76,78,95880,60
72,73,95940,60
79,83,96000,60
79,81,96120,60
79,73,96300,60
81,77,96360,60
79,73,96420,60
76,78,96480,60
79,74,96540,60
81,76,96600,60
79,74,96660,60
84,81,96720,60
79,75,96780,60
76,77,96840,60
72,73,96900,60
79,84,96960,60
79,82,97080,60
74,55,97260,60
78,55,97320,60
74,53,97380,60
79,59,97440,60
79,59,97560,60
74,54,97740,60
78,54,97800,60
74,52,97860,60
79,59,97920,60
79,59,98040,60
74,67,98220,60
81,71,98280,60
74,69,98340,60
83,75,98400,60
74,73,98460,60
83,79,98520,60
74,76,98580,60
84,83,98640,60
74,81,98700,60
84,88,98760,60
74,84,98820,60
86,91,98880,120
83,79,99000,120
79,84,99120,120
83,73,99240,120
74,78,99360,120
79,70,99480,120
71,72,99600,120
74,68,99720,120
69,60,99840,120
76,63,99960,120
74,63,100080,60
72,60,100140,60
71,63,100200,60
69,60,100260,60
67,63,100320,240
66,60,100560,32
67,63,100592,32
66,60,100624,32
67,63,100656,32
66,63,100688,32
64,63,100720,40
66,60,100760,40
67,77,100800,240
79,74,101100,60
81,77,101160,60
79,75,101220,60
76,81,101280,60
79,75,101340,60
81,79,101400,60
79,75,101460,60
84,81,101520,60
79,78,101580,60
76,79,101640,60
72,75,101700,60
79,84,101760,60
79,81,101880,60
79,75,102060,60
81,77,102120,60
79,73,102180,60
76,81,102240,60
79,75,102300,60
81,78,102360,60
79,77,102420,60
84,81,102480,60
79,76,102540,60
76,78,102600,60
72,75,102660,60
79,84,102720,60
79,82,102840,60
74,54,103020,60
78,54,103080,60
74,50,103140,60
79,56,103200,60
79,57,103320,60
74,54,103500,60
78,54,103560,60
74,50,103620,60
79,57,103680,60
79,57,103800,60
74,67,103980,60
81,71,104040,60
74,66,104100,60
83,75,104160,60
74,73,104220,60
83,81,104280,60
74,77,104340,60
84,84,104400,60
74,82,104460,60
84,90,104520,60
74,85,104580,60
86,94,104640,60
83,85,104700,60
86,89,104760,60
83,83,104820,60
79,87,104880,60
83,81,104940,60
79,85,105000,60
83,81,105060,60
74,86,105120,60
79,80,105180,60
74,81,105240,60
79,74,105300,60
71,73,105360,60
74,68,105420,60
71,68,105480,60
74,63,105540,60
69,54,105600,60
76,51,105660,60
75,54,105720,60
76,52,105780,60
74,54,105840,60
72,51,105900,60
71,54,105960,60
69,52,106020,60
67,63,106080,240
66,60,106320,32
67,63,106352,32
66,60,106384,32
67,63,106416,32
66,63,106448,32
64,63,106480,40
66,60,106520,40
67,86,106560,180
62,81,106740,60
71,86,106800,180
67,81,106980,60
74,87,107040,120
81,54,107280,72
79,51,107340,72
78,54,107400,72
76,52,107460,72
74,57,107520,120
76,54,107760,72
74,51,107820,72
72,54,107880,72
71,51,107940,72
69,57,108000,120
74,56,108240,72
72,56,108300,72
71,56,108360,72
69,53,108420,72
67,84,108480,60
62,80,108540,60
67,84,108600,60
62,80,108660,60
71,84,108720,60
67,80,108780,60
71,84,108840,60
67,80,108900,60
74,84,108960,120
81,55,109200,72
79,52,109260,72
78,55,109320,72
76,52,109380,72
74,58,109440,60
74,58,109560,60
76,54,109680,72
74,51,109740,72
72,54,109800,72
71,50,109860,72
69,57,109920,60
69,57,110040,60
74,55,110160,72
72,53,110220,72
71,55,110280,72
69,52,110340,72
67,58,110400,240
71,54,110640,120
62,54,110640,120
67,56,110880,120
59,56,110880,120
74,51,111360,360
75,53,111720,120
76,54,111840,120
78,55,111960,120
79,56,112080,120
71,53,112200,120
74,54,112320,120
72,53,112440,120
71,51,112680,120
72,54,112800,120
74,55,112920,120
76,56,113040,120
68,50,113160,120
71,54,113280,120
69,51,113400,120
68,51,113640,120
69,54,113760,120
71,54,113880,120
72,56,114000,120
66,50,114120,120
69,54,114240,120
67,51,114360,120
76,72,114480,120
66,54,114600,120
69,56,114720,120
67,51,114840,120
76,72,114960,120
66,51,115080,120
69,55,115200,120
67,50,115320,120
75,71,115440,120
66,51,115560,120
69,55,115680,120
67,51,115800,120
75,67,115920,120
66,49,116040,120
67,72,116160,120
69,64,116280,72
71,65,116340,72
72,67,116400,72
74,68,116460,72
76,69,116520,72
78,71,116580,72
79,72,116640,72
81,70,116700,72
83,74,116760,72
78,72,116820,72
79,73,116880,72
74,69,116940,72
76,71,117000,72
71,68,117060,72
74,81,117120,480
72,62,117600,45
74,56,117640,45
72,58,117680,45
74,56,117720,45
72,57,117760,45
74,53,117800,45
72,59,117840,45
74,56,117880,45
72,63,117920,60
71,61,117960,60
72,59,118020,60
71,66,118080,480
69,38,118650,30
67,48,118680,60
66,44,118740,60
67,51,118800,30
71,51,118920,30
76,55,119040,240
74,51,119280,240
72,37,119610,30
71,48,119640,60
69,45,119700,60
71,54,119760,30
74,54,119880,30
79,64,120000,240
77,56,120240,240
76,54,120570,30
74,67,120600,60
73,61,120660,60
74,71,120720,30
77,74,120840,30
84,75,120960,120
83,71,121080,240
86,81,121320,240
80,73,121560,240
83,81,121800,240
74,78,122040,240
77,84,122280,240
76,81,122520,240
74,72,122760,120
72,61,122880,570
74,46,123450,30
72,54,123480,60
71,48,123540,60
72,54,123600,120
74,53,123720,60
72,56,123840,480
70,62,124320,45
72,56,124360,45
70,58,124400,45
72,56,124440,45
70,57,124480,45
72,53,124520,45
70,59,124560,45
72,56,124600,45
70,63,124640,60
69,61,124680,60
70,59,124740,60
69,68,124800,120
72,71,124920,240
77,76,125160,240
81,77,125400,240
82,78,125640,120
81,83,125760,480
79,77,126240,240
79,70,126720,360
78,61,127080,120
77,57,127200,120
77,61,127680,360
76,55,128040,120
75,54,128160,120
75,63,128640,120
74,60,128760,120
74,57,128880,60
74,60,129000,60
74,60,129120,240
74,60,129360,240
74,62,129600,210
77,64,129810,30
75,72,129840,450
74,57,130290,30
72,63,130320,240
71,54,130560,120
79,54,130680,120
79,56,130920,120
78,57,131160,120
77,60,131400,120
77,64,131520,120
76,61,131640,120
75,59,131880,120
74,56,132120,120
72,54,132360,120
72,60,132480,120
71,54,132600,120
79,56,132780,60
81,60,132840,60
79,55,132900,60
78,61,133020,60
79,66,133080,60
78,60,133140,60
77,63,133260,60
79,70,133320,60
77,65,133380,60
76,73,133500,60
77,76,133560,60
76,71,133620,60
75,73,133740,60
77,80,133800,60
75,73,133860,60
74,79,133980,60
75,83,134040,60
74,79,134100,60
72,82,134220,60
74,87,134280,60
72,86,134340,60
71,88,134400,60
72,71,134490,30
71,75,134520,60
69,75,134580,60
71,79,134640,120
72,76,134760,60
74,79,134880,60
76,68,134970,30
74,72,135000,60
73,72,135060,60
74,79,135120,120
76,79,135240,60
77,73,135360,240
79,54,135660,60
76,56,135720,60
79,54,135780,60
77,54,135840,240
79,53,136140,60
76,56,136200,60
79,53,136260,60
77,53,136320,240
79,55,136620,60
76,57,136680,60
79,61,136740,60
77,63,136800,60
79,66,136860,60
76,70,136920,60
79,68,136980,60
77,75,137040,60
79,73,137100,60
76,81,137160,60
79,79,137220,60
77,86,137280,120
76,72,137400,60
74,77,137520,60
72,72,137640,60
71,60,137760,60
72,62,137880,60
74,59,138000,60
76,56,138120,60
77,62,138240,60
76,57,138360,60
74,61,138480,60
76,64,138600,60
77,67,138720,60
76,71,138840,60
77,73,138960,60
78,77,139080,60
79,86,139200,120
79,82,139440,360
77,71,139800,60
76,69,139860,60
76,70,139920,56
74,66,139980,60
72,67,140040,60
71,66,140100,60
72,47,140160,45
74,49,140200,45
72,55,140240,45
74,52,140280,45
72,57,140320,45
74,51,140360,45
72,59,140400,45
74,56,140440,45
72,63,140480,60
74,62,140520,60
76,63,140580,60
67,71,140640,240
79,86,141120,60
79,78,141240,60
79,76,141360,360
77,64,141720,60
76,61,141780,56
76,64,141840,60
74,61,141900,60
72,61,141960,60
71,60,142020,60
72,47,142080,45
74,49,142120,45
72,55,142160,45
74,52,142200,45
72,57,142240,45
74,51,142280,45
72,59,142320,45
74,56,142360,45
72,63,142400,60
74,62,142440,60
76,63,142500,60
67,65,142560,240
69,56,143040,60
72,54,143160,60
77,56,143280,60
81,54,143400,60
84,66,143520,60
89,70,143640,120
67,58,144000,60
72,56,144120,60
76,58,144240,60
79,55,144360,60
84,66,144480,60
88,74,144600,120
67,63,144900,60
79,84,144960,720
77,60,145680,40
79,68,145720,40
77,68,145760,40
76,76,145800,60
77,71,145860,60
75,78,145920,240
76,75,146160,240
69,61,146880,60
72,57,146940,60
74,61,147000,60
76,56,147060,60
77,61,147120,60
79,58,147180,60
81,61,147240,60
83,57,147300,60
84,72,147360,120
67,63,147840,60
72,58,147900,60
74,63,147960,60
76,56,148020,60
77,63,148080,60
79,58,148140,60
81,63,148200,60
83,58,148260,60
84,72,148320,120
81,85,148800,120
79,79,148920,120
77,82,149040,60
76,78,149160,60
76,85,149280,120
74,74,149400,120
72,77,149520,60
71,76,149640,60
72,77,149760,72
67,68,149820,72
69,72,149880,72
71,70,149940,72
72,75,150000,72
74,73,150060,72
76,78,150120,72
77,76,150180,72
79,80,150240,72
81,77,150300,72
83,78,150360,72
84,75,150420,72
79,81,150480,60
79,79,150600,60
79,54,150780,60
81,57,150840,60
79,54,150900,60
77,54,151020,60
79,57,151080,60
77,54,151140,60
76,54,151260,60
77,56,151320,60
76,54,151380,60
74,54,151500,60
76,56,151560,60
74,54,151620,60
72,83,151680,72
67,76,151740,72
69,79,151800,72
71,75,151860,72
72,81,151920,72
74,79,151980,72
76,82,152040,72
77,78,152100,72
79,81,152160,72
81,76,152220,72
83,80,152280,72
84,75,152340,72
79,82,152400,60
79,80,152520,60
79,54,152700,60
81,56,152760,60
79,54,152820,60
77,54,152940,60
79,56,153000,60
77,54,153060,60
76,54,153180,60
77,56,153240,60
76,54,153300,60
74,54,153420,60
76,54,153480,60
74,54,153540,60
72,81,153600,60
72,81,153720,240
74,73,153960,60
76,70,154020,60
77,82,154080,60
77,79,154200,240
79,76,154440,60
81,76,154500,60
79,83,154560,120
76,80,154680,120
84,83,154800,60
84,80,154920,60
86,84,155040,72
84,76,155100,72
83,78,155160,72
81,73,155220,56
81,73,155280,72
79,66,155340,72
77,68,155400,72
76,64,155460,60
79,68,155520,360
76,69,155880,120
74,67,156000,240
73,60,156480,120
74,56,156600,120
72,55,156720,60
71,52,156780,60
69,55,156840,60
67,53,156900,60
73,61,156960,120
74,59,157080,120
72,55,157200,60
71,54,157260,60
69,55,157320,60
67,53,157380,60
75,64,157440,120
76,61,157560,120
76,63,157680,60
76,59,157800,60
76,63,157920,240
69,60,158340,60
81,87,158400,360
79,76,158760,40
78,72,158800,40
76,76,158840,40
74,84,158880,120
86,82,159000,60
86,82,159120,60
86,79,159240,60
86,90,159360,300
83,74,159660,60
86,77,159720,60
83,76,159780,60
79,77,159840,120
71,54,159960,120
74,54,159960,120
76,54,160080,120
72,54,160080,120
77,50,160200,120
74,50,160200,120
78,60,160320,120
79,58,160440,120
77,54,160560,60
76,51,160620,60
74,54,160680,60
72,52,160740,60
78,54,160800,60
79,53,160860,60
81,55,160920,60
79,57,160980,60
77,56,161040,60
76,55,161100,60
74,54,161160,60
72,54,161220,60
80,62,161280,120
81,56,161400,120
81,60,161520,60
81,56,161640,60
81,63,161760,240
86,81,162240,72
88,77,162300,72
89,81,162360,72
88,77,162420,72
86,79,162480,72
84,73,162540,72
83,77,162600,72
81,75,162660,72
79,78,162720,72
83,73,162780,72
86,81,162840,72
84,74,162900,72
83,81,162960,72
81,75,163020,72
79,81,163080,72
77,76,163140,72
76,86,163200,120
79,71,163440,30
77,66,163470,30
79,71,163500,30
77,67,163530,30
76,81,163560,60
77,79,163620,60
79,89,163680,120
81,53,164080,40
83,49,164120,40
84,61,164160,237
84,56,164400,177
84,54,164580,57
84,56,164640,240
83,55,164880,60
81,50,164940,60
79,53,165000,60
77,51,165060,60
76,78,165120,120
77,67,165360,30
79,63,165390,30
77,67,165420,30
79,63,165450,30
77,67,165480,30
76,76,165520,40
77,72,165560,40
79,87,165600,120
81,53,166000,40
83,48,166040,40
84,61,166080,237
84,55,166320,177
84,52,166500,57
84,55,166560,240
83,54,166800,60
81,52,166860,60
79,54,166920,60
77,53,166980,60
76,83,167040,60
84,78,167160,72
86,78,167220,72
88,81,167280,72
86,78,167340,72
84,81,167400,72
83,78,167460,72
81,81,167520,72
79,78,167580,72
77,81,167640,72
76,76,167700,72
74,81,167760,72
72,76,167820,72
71,81,167880,72
69,73,167940,72
67,85,168000,120
65,90,168240,480
64,76,168720,240
62,55,169080,60
65,54,169200,60
69,53,169320,60
73,55,169440,120
74,54,169560,120
77,55,169680,120
81,53,169800,120
81,61,169920,120
72,55,170040,117
72,54,170160,480
71,56,170640,240
76,56,170640,120
74,54,170760,120
72,54,170880,240
79,76,171360,120
76,72,171480,120
84,57,171600,120
83,53,171720,60
81,51,171840,60
79,49,171960,60
77,54,172080,60
76,50,172200,60
74,53,172320,120
76,54,172560,120
79,58,172800,120
78,54,172920,120
77,54,173040,120
76,51,173280,120
77,54,173400,120
79,57,173520,120
80,59,173640,60
81,49,173760,36
83,51,173796,36
81,54,173832,36
83,56,173868,36
81,58,173904,36
83,62,173940,60
84,68,174000,60
83,61,174120,60
81,62,174240,60
79,57,174360,60
77,60,174480,60
76,57,174600,60
79,64,174720,180
76,61,174900,60
74,61,174960,120
79,86,175200,180
81,81,175380,30
83,76,175410,30
84,85,175440,120
83,62,175560,60
81,62,175680,60
79,60,175800,60
77,62,175920,60
76,59,176040,60
74,63,176160,120
76,70,176400,120
77,72,176640,120
78,78,176880,120
79,79,177120,120
80,82,177360,120
81,85,177600,180
69,79,177780,60
77,84,177840,180
74,81,178020,60
72,77,178080,240
76,64,178290,30
74,71,178320,240
71,71,178320,240
72,71,178560,240
72,64,178860,60
74,65,178920,60
76,66,178980,60
77,68,179040,30
79,68,179070,30
77,59,179100,30
76,70,179130,60
77,71,179160,60
79,72,179220,60
81,66,179280,25
83,65,179310,25
81,70,179340,60
79,75,179370,60
81,76,179400,60
83,78,179460,60
84,87,179520,60
84,84,179640,60
72,63,179820,60
74,65,179880,60
76,66,179940,60
77,68,180000,30
79,68,180030,30
77,59,180060,30
76,70,180090,60
77,71,180120,60
79,72,180180,60
81,66,180240,25
83,65,180270,25
81,70,180300,60
79,75,180330,60
81,76,180360,60
83,78,180420,60
84,88,180480,60
84,86,180600,60
79,55,180780,60
83,58,180840,60
79,55,180900,60
84,59,180960,60
84,59,181080,60
79,54,181260,60
83,57,181320,60
79,54,181380,60
84,59,181440,60
84,66,181560,60
79,67,181740,60
83,71,181800,60
79,68,181860,60
84,75,181920,60
79,72,181980,60
84,79,182040,60
79,75,182100,60
86,83,182160,60
79,81,182220,60
86,88,182280,60
79,83,182340,60
88,91,182400,120
84,80,182520,120
79,82,182640,120
84,79,182760,120
76,78,182880,120
79,71,183000,120
72,72,183120,120
76,69,183240,120
69,60,183360,120
81,60,183480,120
79,63,183600,60
77,58,183660,60
76,63,183720,60
74,58,183780,60
72,63,183840,240
71,60,184080,32
72,63,184112,32
71,60,184144,32
72,63,184176,32
71,63,184208,32
69,63,184240,40
71,60,184280,40
72,71,184320,240
72,64,184620,60
74,65,184680,60
76,66,184740,60
77,68,184800,30
79,68,184830,30
77,59,184860,30
76,70,184890,60
77,71,184920,60
79,72,184980,60
81,66,185040,25
83,65,185070,25
81,70,185100,60
79,75,185130,60
81,76,185160,60
83,78,185220,60
84,84,185280,60
84,81,185400,60
72,63,185580,60
74,65,185640,60
76,66,185700,60
77,68,185760,30
79,68,185790,30
77,59,185820,30
76,70,185850,60
77,71,185880,60
79,72,185940,60
81,66,186000,25
83,65,186030,25
81,70,186060,60
79,75,186090,60
81,76,186120,60
83,78,186180,60
84,84,186240,60
84,80,186360,60
79,55,186540,60
83,59,186600,60
79,55,186660,60
84,59,186720,60
84,59,186840,60
79,54,187020,60
83,56,187080,60
79,54,187140,60
84,59,187200,60
84,59,187320,60
79,67,187500,60
83,71,187560,60
79,68,187620,60
84,75,187680,60
79,73,187740,60
84,79,187800,60
79,77,187860,60
86,83,187920,60
79,81,187980,60
86,88,188040,60
79,82,188100,60
88,88,188160,60
84,78,188220,60
88,84,188280,60
84,80,188340,60
79,82,188400,60
84,74,188460,60
79,79,188520,60
84,71,188580,60
76,78,188640,60
79,71,188700,60
76,76,188760,60
79,71,188820,60
72,72,188880,60
76,67,188940,60
72,71,189000,60
76,63,189060,60
69,60,189120,120
81,63,189240,120
79,63,189360,60
77,58,189420,60
76,63,189480,60
74,60,189540,60
72,63,189600,240
71,60,189840,32
72,63,189872,32
71,60,189904,32
72,63,189936,32
71,63,189968,32
69,63,190000,40
71,60,190040,40
72,82,190080,180
67,78,190260,60
76,82,190320,180
72,76,190500,60
79,81,190560,120
86,54,190800,72
84,50,190860,72
83,54,190920,72
81,49,190980,72
79,57,191040,120
81,54,191280,72
79,50,191340,72
77,54,191400,72
76,50,191460,72
74,57,191520,120
79,56,191760,72
77,53,191820,72
76,56,191880,72
74,52,191940,72
72,81,192000,60
67,75,192060,60
72,82,192120,60
67,78,192180,60
76,82,192240,60
72,78,192300,60
76,82,192360,60
72,76,192420,60
79,82,192480,120
86,55,192720,72
84,53,192780,72
83,55,192840,72
81,53,192900,72
79,58,192960,60
79,58,193080,60
81,54,193200,72
79,50,193260,72
77,54,193320,72
76,50,193380,72
74,57,193440,60
74,57,193560,60
79,55,193680,72
77,51,193740,72
76,55,193800,72
74,51,193860,72
72,62,193920,240
80,57,194280,120
81,62,194400,120
83,64,194520,120
84,70,194640,120
76,62,194760,120
79,66,194880,120
77,62,195000,120
76,55,195240,120
77,60,195360,120
79,62,195480,120
81,65,195600,120
73,57,195720,120
76,63,195840,120
74,57,195960,120
73,49,196200,120
74,52,196320,120
76,54,196440,120
77,57,196560,120
71,49,196680,120
74,50,196800,120
72,49,196920,120
81,70,197040,120
71,49,197160,120
74,51,197280,120
72,49,197400,120
81,70,197520,120
71,49,197640,120
74,49,197880,60
72,43,197940,60
80,57,198120,60
71,43,198180,60
74,51,198360,60
72,43,198420,60
80,55,198600,60
71,41,198660,60
71,54,198720,480
74,54,198720,480
67,45,198720,480
65,45,198720,480
72,40,199200,240
64,34,199200,240
67,34,199200,240
74,51,199680,360
75,53,200040,120
76,54,200160,120
78,55,200280,120
79,56,200400,120
71,53,200520,120
74,54,200640,120
72,53,200760,120
71,51,201000,120
72,54,201120,120
74,55,201240,120
76,56,201360,120
68,50,201480,120
71,54,201600,120
69,51,201720,120
68,51,201960,120
69,54,202080,120
71,54,202200,120
72,56,202320,120
66,50,202440,120
69,54,202560,120
67,51,202680,120
76,72,202800,120
66,54,202920,120
69,56,203040,120
67,51,203160,120
76,72,203280,120
66,51,203400,120
69,55,203520,120
67,50,203640,120
75,71,203760,120
66,51,203880,120
69,55,204000,120
67,51,204120,120
75,67,204240,120
66,49,204360,120
67,72,204480,120
69,64,204600,72
71,65,204660,72
72,67,204720,72
74,68,204780,72
76,69,204840,72
78,71,204900,72
79,72,204960,72
81,70,205020,72
83,74,205080,72
78,72,205140,72
79,73,205200,72
74,69,205260,72
76,71,205320,72
71,68,205380,72
74,81,205440,480
72,62,205920,45
74,56,205960,45
72,58,206000,45
74,56,206040,45
72,57,206080,45
74,53,206120,45
72,59,206160,45
74,56,206200,45
72,63,206240,60
71,61,206280,60
72,59,206340,60
71,66,206400,480
69,38,206970,30
67,48,207000,60
66,44,207060,60
67,51,207120,30
71,51,207240,30
76,55,207360,240
74,51,207600,240
72,37,207930,30
71,48,207960,60
69,45,208020,60
71,54,208080,30
74,54,208200,30
79,64,208320,240
77,56,208560,240
76,54,208890,30
74,67,208920,60
73,61,208980,60
74,71,209040,30
77,74,209160,30
84,75,209280,120
83,71,209400,240
86,81,209640,240
80,73,209880,240
83,81,210120,240
74,78,210360,240
77,84,210600,240
76,81,210840,240
74,72,211080,120
72,61,211200,570
74,46,211770,30
72,54,211800,60
71,48,211860,60
72,54,211920,120
74,53,212040,60
72,56,212160,480
70,62,212640,45
72,56,212680,45
70,58,212720,45
72,56,212760,45
70,57,212800,45
72,53,212840,45
70,59,212880,45
72,56,212920,45
70,63,212960,60
69,61,213000,60
70,59,213060,60
69,68,213120,120
72,71,213240,240
77,76,213480,240
81,77,213720,240
82,78,213960,120
81,83,214080,480
79,77,214560,240
79,70,215040,360
78,61,215400,120
77,57,215520,120
77,61,216000,360
76,55,216360,120
75,54,216480,120
75,63,216960,120
74,60,217080,120
74,57,217200,60
74,60,217320,60
74,60,217440,240
74,60,217680,240
74,62,217920,210
77,64,218130,30
75,72,218160,450
74,57,218610,30
72,63,218640,240
71,54,218880,120
79,54,219000,120
79,56,219240,120
78,57,219480,120
77,60,219720,120
77,64,219840,120
76,61,219960,120
75,59,220200,120
74,56,220440,120
72,54,220680,120
72,60,220800,120
71,54,220920,120
79,56,221100,60
81,60,221160,60
79,55,221220,60
78,61,221340,60
79,66,221400,60
78,60,221460,60
77,63,221580,60
79,70,221640,60
77,65,221700,60
76,73,221820,60
77,76,221880,60
76,71,221940,60
75,73,222060,60
77,80,222120,60
75,73,222180,60
74,79,222300,60
75,83,222360,60
74,79,222420,60
72,82,222540,60
74,87,222600,60
72,86,222660,60
71,88,222720,60
72,71,222810,30
71,75,222840,60
69,75,222900,60
71,79,222960,120
72,76,223080,60
74,79,223200,60
76,68,223290,30
74,72,223320,60
73,72,223380,60
74,79,223440,120
76,79,223560,60
77,73,223680,240
79,54,223980,60
76,56,224040,60
79,54,224100,60
77,54,224160,240
79,53,224460,60
76,56,224520,60
79,53,224580,60
77,53,224640,240
79,55,224940,60
76,57,225000,60
79,61,225060,60
77,63,225120,60
79,66,225180,60
76,70,225240,60
79,68,225300,60
77,75,225360,60
79,73,225420,60
76,81,225480,60
79,79,225540,60
77,86,225600,120
76,72,225720,60
74,77,225840,60
72,72,225960,60
71,60,226080,60
72,62,226200,60
74,59,226320,60
76,56,226440,60
77,62,226560,60
76,57,226680,60
74,61,226800,60
76,64,226920,60
77,67,227040,60
76,71,227160,60
77,73,227280,60
78,77,227400,60
79,86,227520,120
79,82,227760,360
77,71,228120,60
76,69,228180,60
76,70,228240,56
74,66,228300,60
72,67,228360,60
71,66,228420,60
72,47,228480,45
74,49,228520,45
72,55,228560,45
74,52,228600,45
72,57,228640,45
74,51,228680,45
72,59,228720,45
74,56,228760,45
72,63,228800,60
74,62,228840,60
76,63,228900,60
67,71,228960,240
79,86,229440,60
79,78,229560,60
79,76,229680,360
77,64,230040,60
76,61,230100,56
76,64,230160,60
74,61,230220,60
72,61,230280,60
71,60,230340,60
72,47,230400,45
74,49,230440,45
72,55,230480,45
74,52,230520,45
72,57,230560,45
74,51,230600,45
72,59,230640,45
74,56,230680,45
72,63,230720,60
74,62,230760,60
76,63,230820,60
67,65,230880,240
69,56,231360,60
72,54,231480,60
77,56,231600,60
81,54,231720,60
84,66,231840,60
89,70,231960,60
67,58,232320,60
72,56,232440,60
76,58,232560,60
79,55,232680,60
84,66,232800,60
88,74,232920,60
67,63,233220,60
79,84,233280,720
77,60,234000,40
79,68,234040,40
77,68,234080,40
76,76,234120,60
77,71,234180,60
75,78,234240,240
76,75,234480,240
69,61,235200,60
72,57,235260,60
74,61,235320,60
76,56,235380,60
77,61,235440,60
79,58,235500,60
81,61,235560,60
83,57,235620,60
84,72,235680,120
67,63,236160,60
72,58,236220,60
74,63,236280,60
76,56,236340,60
77,63,236400,60
79,58,236460,60
81,63,236520,60
83,58,236580,60
84,72,236640,120
81,85,237120,120
79,79,237240,120
77,82,237360,60
76,78,237480,60
76,85,237600,120
74,74,237720,120
72,77,237840,60
71,76,237960,60
72,77,238080,72
67,68,238140,72
69,72,238200,72
71,70,238260,72
72,75,238320,72
74,73,238380,72
76,78,238440,72
77,76,238500,72
79,80,238560,72
81,77,238620,72
83,78,238680,72
84,75,238740,72
79,81,238800,60
79,79,238920,60
79,54,239100,60
81,57,239160,60
79,54,239220,60
77,54,239340,60
79,57,239400,60
77,54,239460,60
76,54,239580,60
77,56,239640,60
76,54,239700,60
74,54,239820,60
76,56,239880,60
74,54,239940,60
72,83,240000,72
67,76,240060,72
69,79,240120,72
71,75,240180,72
72,81,240240,72
74,79,240300,72
76,82,240360,72
77,78,240420,72
79,81,240480,72
81,76,240540,72
83,80,240600,72
84,75,240660,72
79,82,240720,60
79,80,240840,60
79,54,241020,60
81,56,241080,60
79,54,241140,60
77,54,241260,60
79,56,241320,60
77,54,241380,60
76,54,241500,60
77,56,241560,60
76,54,241620,60
74,54,241740,60
76,54,241800,60
74,54,241860,60
72,81,241920,60
72,81,242040,240
74,73,242280,60
76,70,242340,60
77,82,242400,60
77,79,242520,240
79,76,242760,60
81,76,242820,60
79,83,242880,120
76,80,243000,120
84,83,243120,60
84,80,243240,60
86,84,243360,72
84,76,243420,72
83,78,243480,72
81,73,243540,56
81,73,243600,72
79,66,243660,72
77,68,243720,72
76,64,243780,60
79,68,243840,360
76,69,244200,120
74,67,244320,240
73,60,244800,120
74,56,244920,120
72,55,245040,60
71,52,245100,60
69,55,245160,60
67,53,245220,60
73,61,245280,120
74,59,245400,120
72,55,245520,60
71,54,245580,60
69,55,245640,60
67,53,245700,60
75,64,245760,120
76,61,245880,120
76,63,246000,60
76,59,246120,60
76,63,246240,240
69,60,246660,60
81,87,246720,360
79,76,247080,40
78,72,247120,40
76,76,247160,40
74,84,247200,120
86,82,247320,60
86,82,247440,60
86,79,247560,60
86,90,247680,300
83,74,247980,60
86,77,248040,60
83,76,248100,60
79,77,248160,120
71,54,248280,120
74,54,248280,120
76,54,248400,120
72,54,248400,120
77,50,248520,120
74,50,248520,120
78,60,248640,120
79,58,248760,120
77,54,248880,60
76,51,248940,60
74,54,249000,60
72,52,249060,60
78,54,249120,60
79,53,249180,60
81,55,249240,60
79,57,249300,60
77,56,249360,60
76,55,249420,60
74,54,249480,60
72,54,249540,60
80,62,249600,120
81,56,249720,120
81,60,249840,60
81,56,249960,60
81,63,250080,240
86,81,250560,72
88,77,250620,72
89,81,250680,72
88,77,250740,72
86,79,250800,72
84,73,250860,72
83,77,250920,72
81,75,250980,72
79,78,251040,72
83,73,251100,72
86,81,251160,72
84,74,251220,72
83,81,251280,72
81,75,251340,72
79,81,251400,72
77,76,251460,72
76,86,251520,120
79,71,251760,30
77,66,251790,30
79,71,251820,30
77,67,251850,30
76,81,251880,60
77,79,251940,60
79,89,252000,120
81,53,252400,40
83,49,252440,40
84,61,252480,237
84,56,252720,177
84,54,252900,57
84,56,252960,240
83,55,253200,60
81,50,253260,60
79,53,253320,60
77,51,253380,60
76,78,253440,120
77,67,253680,30
79,63,253710,30
77,67,253740,30
79,63,253770,30
77,67,253800,30
76,76,253840,40
77,72,253880,40
79,87,253920,120
81,53,254320,40
83,48,254360,40
84,61,254400,237
84,55,254640,177
84,52,254820,57
84,55,254880,240
83,54,255120,60
81,52,255180,60
79,54,255240,60
77,53,255300,60
76,83,255360,60
84,78,255480,72
86,78,255540,72
88,81,255600,72
86,78,255660,72
84,81,255720,72
83,78,255780,72
81,81,255840,72
79,78,255900,72
77,81,255960,72
76,76,256020,72
74,81,256080,72
72,76,256140,72
71,81,256200,72
69,73,256260,72
67,85,256320,120
65,90,256560,480
64,76,257040,240
62,55,257400,60
65,54,257520,60
69,53,257640,60
73,55,257760,120
74,54,257880,120
77,55,258000,120
81,53,258120,120
81,61,258240,120
72,55,258360,117
72,54,258480,480
71,56,258960,240
76,56,258960,120
74,54,259080,120
72,54,259200,240
79,76,259680,120
76,72,259800,120
84,57,259920,120
83,53,260040,60
81,51,260160,60
79,49,260280,60
77,54,260400,60
76,50,260520,60
74,53,260640,120
76,54,260880,120
79,58,261120,120
78,54,261240,120
77,54,261360,120
76,51,261600,120
77,54,261720,120
79,57,261840,120
80,59,261960,60
81,49,262080,36
83,51,262116,36
81,54,262152,36
83,56,262188,36
81,58,262224,36
83,62,262260,60
84,68,262320,60
83,61,262440,60
81,62,262560,60
79,57,262680,60
77,60,262800,60
76,57,262920,60
79,64,263040,180
76,61,263220,60
74,61,263280,120
79,86,263520,180
81,81,263700,30
83,76,263730,30
84,85,263760,120
83,62,263880,60
81,62,264000,60
79,60,264120,60
77,62,264240,60
76,59,264360,60
74,63,264480,120
76,70,264720,120
77,72,264960,120
78,78,265200,120
79,79,265440,120
80,82,265680,120
81,85,265920,180
69,79,266100,60
77,84,266160,180
74,81,266340,60
72,77,266400,240
76,64,266610,30
74,71,266640,240
71,71,266640,240
72,71,266880,240
72,64,267180,60
74,65,267240,60
76,66,267300,60
77,68,267360,30
79,68,267390,30
77,59,267420,30
76,70,267450,60
77,71,267480,60
79,72,267540,60
81,66,267600,25
83,65,267630,25
81,70,267660,60
79,75,267690,60
81,76,267720,60
83,78,267780,60
84,87,267840,60
84,84,267960,60
72,63,268140,60
74,65,268200,60
76,66,268260,60
77,68,268320,30
79,68,268350,30
77,59,268380,30
76,70,268410,60
77,71,268440,60
79,72,268500,60
81,66,268560,25
83,65,268590,25
81,70,268620,60
79,75,268650,60
81,76,268680,60
83,78,268740,60
84,88,268800,60
84,86,268920,60
79,55,269100,60
83,58,269160,60
79,55,269220,60
84,59,269280,60
84,59,269400,60
79,54,269580,60
83,57,269640,60
79,54,269700,60
84,59,269760,60
84,66,269880,60
79,67,270060,60
83,71,270120,60
79,68,270180,60
84,75,270240,60
79,72,270300,60
84,79,270360,60
79,75,270420,60
86,83,270480,60
79,81,270540,60
86,88,270600,60
79,83,270660,60
88,91,270720,120
84,80,270840,120
79,82,270960,120
84,79,271080,120
76,78,271200,120
79,71,271320,120
72,72,271440,120
76,69,271560,120
69,60,271680,120
81,60,271800,120
79,63,271920,60
77,58,271980,60
76,63,272040,60
74,58,272100,60
72,63,272160,240
71,60,272400,32
72,63,272432,32
71,60,272464,32
72,63,272496,32
71,63,272528,32
69,63,272560,40
71,60,272600,40
72,71,272640,240
72,64,272940,60
74,65,273000,60
76,66,273060,60
77,68,273120,30
79,68,273150,30
77,59,273180,30
76,70,273210,60
77,71,273240,60
79,72,273300,60
81,66,273360,25
83,65,273390,25
81,70,273420,60
79,75,273450,60
81,76,273480,60
83,78,273540,60
84,84,273600,60
84,81,273720,60
72,63,273900,60
74,65,273960,60
76,66,274020,60
77,68,274080,30
79,68,274110,30
77,59,274140,30
76,70,274170,60
77,71,274200,60
79,72,274260,60
81,66,274320,25
83,65,274350,25
81,70,274380,60
79,75,274410,60
81,76,274440,60
83,78,274500,60
84,84,274560,60
84,80,274680,60
79,55,274860,60
83,59,274920,60
79,55,274980,60
84,59,275040,60
84,59,275160,60
79,54,275340,60
83,56,275400,60
79,54,275460,60
84,59,275520,60
84,59,275640,60
79,67,275820,60
83,71,275880,60
79,68,275940,60
84,75,276000,60
79,73,276060,60
84,79,276120,60
79,77,276180,60
86,83,276240,60
79,81,276300,60
86,88,276360,60
79,82,276420,60
88,88,276480,60
84,78,276540,60
88,84,276600,60
84,80,276660,60
79,82,276720,60
84,74,276780,60
79,79,276840,60
84,71,276900,60
76,78,276960,60
79,71,277020,60
76,76,277080,60
79,71,277140,60
72,72,277200,60
76,67,277260,60
72,71,277320,60
76,63,277380,60
69,60,277440,120
81,63,277560,120
79,63,277680,60
77,58,277740,60
76,63,277800,60
74,60,277860,60
72,63,277920,240
71,60,278160,32
72,63,278192,32
71,60,278224,32
72,63,278256,32
71,63,278288,32
69,63,278320,40
71,60,278360,40
72,82,278400,180
67,78,278580,60
76,82,278640,180
72,76,278820,60
79,81,278880,120
86,54,279120,72
84,50,279180,72
83,54,279240,72
81,49,279300,72
79,57,279360,120
81,54,279600,72
79,50,279660,72
77,54,279720,72
76,50,279780,72
74,57,279840,120
79,56,280080,72
77,53,280140,72
76,56,280200,72
74,52,280260,72
72,81,280320,60
67,75,280380,60
72,82,280440,60
67,78,280500,60
76,82,280560,60
72,78,280620,60
76,82,280680,60
72,76,280740,60
79,82,280800,120
86,55,281040,72
84,53,281100,72
83,55,281160,72
81,53,281220,72
79,58,281280,60
79,58,281400,60
81,54,281520,72
79,50,281580,72
77,54,281640,72
76,50,281700,72
74,57,281760,60
74,57,281880,60
79,55,282000,72
77,51,282060,72
76,55,282120,72
74,51,282180,72
72,62,282240,240
80,57,282600,120
81,62,282720,120
83,64,282840,120
84,70,282960,120
76,62,283080,120
79,66,283200,120
77,62,283320,120
76,55,283560,120
77,60,283680,120
79,62,283800,120
81,65,283920,120
73,57,284040,120
76,63,284160,120
74,57,284280,120
73,49,284520,120
74,52,284640,120
76,54,284760,120
77,57,284880,120
71,49,285000,120
74,50,285120,120
72,49,285240,120
81,70,285360,120
71,49,285480,120
74,51,285600,120
72,49,285720,120
81,70,285840,120
71,49,285960,120
74,49,286200,60
72,43,286260,60
80,57,286440,60
71,43,286500,60
74,51,286680,60
72,43,286740,60
80,55,286920,60
71,41,286980,60
71,54,287040,480
74,54,287040,480
67,45,287040,480
65,45,287040,480
72,40,287520,240
64,34,287520,240
67,34,287520,240
64,50,1,119
60,36,120,120
64,43,240,120
60,38,360,120
64,51,480,120
60,40,600,120
64,45,720,120
60,43,840,120
64,51,960,120
60,45,1080,120
64,51,1200,120
60,40,1320,120
64,42,1440,120
60,28,1560,120
64,33,1680,120
60,27,1800,120
64,51,1920,120
60,36,2040,120
64,43,2160,120
60,36,2280,120
64,43,2400,120
60,36,2520,120
65,40,2640,120
60,36,2760,120
64,38,2880,120
60,34,3000,120
64,39,3120,120
60,33,3240,120
64,34,3360,120
60,27,3480,120
64,31,3600,120
60,27,3720,120
65,34,3840,120
60,29,3960,120
65,34,4080,120
60,30,4200,120
65,34,4320,120
60,26,4440,120
65,31,4560,120
60,26,4680,120
64,36,4800,120
60,32,4920,120
64,36,5040,120
60,30,5160,120
64,36,5280,120
60,26,5400,120
64,32,5520,120
60,27,5640,120
60,57,5760,120
64,57,5760,240
55,50,5880,120
60,57,6000,120
64,57,6000,240
55,50,6120,120
62,54,6240,240
59,54,6240,120
55,46,6360,120
62,50,6480,240
59,50,6480,120
55,46,6600,120
60,48,6720,120
48,43,6840,120
52,48,6960,120
55,43,7080,120
60,57,7200,120
64,47,7320,120
67,52,7440,120
64,46,7560,120
65,37,7680,120
60,28,7800,120
65,37,7920,120
60,29,8040,120
65,37,8160,120
60,29,8280,120
65,33,8400,120
60,29,8520,120
64,37,8640,120
60,29,8760,120
64,37,8880,120
60,28,9000,120
64,37,9120,120
60,27,9240,120
64,32,9360,120
60,29,9480,120
64,48,9600,240
60,48,9600,120
55,42,9720,120
64,45,9840,240
60,45,9840,120
55,40,9960,120
62,48,10080,120
65,48,10080,240
55,42,10200,120
65,45,10320,240
62,45,10320,120
55,40,10440,120
60,56,10560,480
64,56,10560,480
55,45,11520,240
64,45,11520,240
55,41,11760,240
62,41,11760,240
60,46,12000,240
55,46,12000,240
59,41,12240,240
55,41,12240,240
60,58,12480,480
64,48,13440,240
55,48,13440,240
55,45,13680,240
62,45,13680,240
60,47,13920,240
55,47,13920,240
59,45,14160,240
55,45,14160,240
48,58,14400,60
60,64,14520,120
59,56,14640,120
58,56,14760,120
57,59,14880,60
57,57,15000,120
55,57,15120,120
53,54,15240,120
52,57,15360,120
48,57,15600,120
48,48,16080,240
60,48,16080,240
55,48,16320,480
64,48,16320,360
60,54,16680,120
59,48,16800,240
43,65,16920,120
47,72,17040,120
50,69,17160,120
55,45,17280,120
59,43,17400,120
62,41,17520,120
55,45,17760,120
59,43,17880,120
62,41,18000,120
55,44,18240,120
60,40,18360,120
64,43,18480,120
60,40,18600,120
55,44,18720,120
60,40,18840,120
64,43,18960,120
60,40,19080,120
54,57,19200,120
57,54,19320,120
60,49,19440,120
54,57,19680,120
57,54,19800,120
60,51,19920,120
55,57,20160,120
59,51,20280,120
62,53,20400,60
62,50,20520,60
55,57,20640,120
59,39,20760,120
62,42,20880,60
62,37,21000,60
55,44,21120,120
59,41,21240,120
62,41,21360,120
55,44,21600,120
59,41,21720,120
62,41,21840,120
55,43,22080,120
60,40,22200,120
64,40,22320,120
60,40,22440,120
55,45,22560,120
60,38,22680,120
64,42,22800,120
60,40,22920,120
54,52,23040,960
60,52,23040,960
62,62,23040,960
57,52,23040,960
55,61,24000,80
59,54,24080,80
67,51,24160,80
57,61,24240,80
60,53,24320,80
67,50,24400,80
59,61,24480,80
62,57,24560,80
67,49,24640,80
55,61,24720,80
59,48,24800,80
67,45,24880,80
60,43,24960,80
64,40,25040,80
67,37,25120,80
60,43,25200,80
64,40,25280,80
67,38,25360,80
60,43,25440,80
64,40,25520,80
67,38,25600,80
60,43,25680,80
64,41,25760,80
67,39,25840,80
55,57,25920,80
59,50,26000,80
67,50,26080,80
57,57,26160,80
60,51,26240,80
67,48,26320,80
59,57,26400,80
62,52,26480,80
67,46,26560,80
55,57,26640,80
59,50,26720,80
67,47,26800,80
60,38,26880,80
64,36,26960,80
67,36,27040,80
60,38,27120,80
64,36,27200,80
67,36,27280,80
60,45,27360,80
64,43,27440,80
67,40,27520,80
60,45,27600,80
64,44,27680,80
67,41,27760,80
55,61,27840,120
48,61,28320,120
50,63,28800,120
54,53,29040,480
51,53,29040,480
57,63,29040,480
52,40,29520,240
55,48,29520,240
48,36,29760,240
52,43,29760,240
50,44,30960,720
59,44,30960,240
60,44,31200,480
55,46,31680,120
59,46,31680,240
43,44,31920,120
54,40,33840,240
62,40,33840,480
55,43,34080,240
48,43,34560,480
55,43,34560,480
52,43,35280,240
49,43,35280,240
50,43,35520,480
55,43,35520,240
54,41,35760,240
62,77,36000,180
64,70,36180,30
66,66,36210,30
67,71,36240,120
66,56,36360,60
64,56,36480,60
62,52,36600,60
60,56,36720,60
59,52,36840,60
57,57,36960,120
59,62,37200,120
60,67,37440,120
61,65,37680,120
62,70,37920,120
63,66,38160,120
64,72,38400,170
48,43,38640,240
57,43,38640,240
50,43,38880,480
59,43,38880,240
60,43,39120,240
55,60,39360,120
59,50,39480,120
62,54,39600,120
59,48,39720,120
55,56,39840,120
60,45,39960,120
64,49,40080,120
60,47,40200,120
55,56,40320,120
59,50,40440,120
62,54,40560,120
59,47,40680,120
55,56,40800,120
60,50,40920,120
64,54,41040,120
60,49,41160,120
59,56,41280,240
62,56,41280,240
55,56,41280,240
72,41,41520,240
71,44,41760,240
72,43,42000,240
71,45,42240,240
66,52,42480,60
66,54,42600,60
67,57,42720,60
67,60,42840,60
69,62,42960,60
69,65,43080,60
71,67,43200,240
48,44,44400,240
57,44,44400,240
52,44,44400,240
50,44,44640,480
55,44,44640,240
59,44,44640,240
60,44,44880,240
57,44,44880,240
55,51,45120,120
59,46,45240,120
62,54,45360,120
59,49,45480,120
55,54,45600,120
60,50,45720,120
64,54,45840,120
60,50,45960,120
55,58,46080,120
59,50,46200,120
62,54,46320,120
59,54,46440,120
55,54,46560,120
60,50,46680,120
64,54,46800,120
60,50,46920,120
59,58,47040,240
62,58,47040,240
55,58,47040,240
72,43,47280,240
71,45,47520,240
72,43,47760,240
71,45,48000,240
66,48,48240,60
66,51,48360,60
67,54,48480,60
67,57,48600,60
69,61,48720,60
69,64,48840,60
71,67,48960,240
57,44,50160,240
48,44,50160,240
52,44,50160,240
50,44,50400,480
59,44,50400,240
55,44,50400,240
57,44,50640,240
60,44,50640,240
55,78,50880,180
50,72,51060,60
59,78,51120,180
55,72,51300,60
62,77,51360,120
55,41,51840,120
59,41,51840,120
50,41,51840,120
50,41,52320,120
54,41,52320,120
60,41,52320,120
55,72,52800,60
50,67,52860,60
55,72,52920,60
50,67,52980,60
59,72,53040,60
55,67,53100,60
59,72,53160,60
55,66,53220,60
62,72,53280,120
59,45,53760,120
50,45,53760,120
55,45,53760,120
54,45,54240,120
60,45,54240,120
50,45,54240,120
59,46,54720,240
55,46,54720,240
55,46,54960,120
43,46,55200,120
64,50,55681,119
60,36,55800,120
64,43,55920,120
60,38,56040,120
64,51,56160,120
60,40,56280,120
64,45,56400,120
60,43,56520,120
64,51,56640,120
60,45,56760,120
64,51,56880,120
60,40,57000,120
64,42,57120,120
60,28,57240,120
64,33,57360,120
60,27,57480,120
64,51,57600,120
60,36,57720,120
64,43,57840,120
60,36,57960,120
64,43,58080,120
60,36,58200,120
65,40,58320,120
60,36,58440,120
64,38,58560,120
60,34,58680,120
64,39,58800,120
60,33,58920,120
64,34,59040,120
60,27,59160,120
64,31,59280,120
60,27,59400,120
65,34,59520,120
60,29,59640,120
65,34,59760,120
60,30,59880,120
65,34,60000,120
60,26,60120,120
65,31,60240,120
60,26,60360,120
64,36,60480,120
60,32,60600,120
64,36,60720,120
60,30,60840,120
64,36,60960,120
60,26,61080,120
64,32,61200,120
60,27,61320,120
60,57,61440,120
64,57,61440,240
55,50,61560,120
60,57,61680,120
64,57,61680,240
55,50,61800,120
62,54,61920,240
59,54,61920,120
55,46,62040,120
62,50,62160,240
59,50,62160,120
55,46,62280,120
60,48,62400,120
48,43,62520,120
52,48,62640,120
55,43,62760,120
60,57,62880,120
64,47,63000,120
67,52,63120,120
64,46,63240,120
65,37,63360,120
60,28,63480,120
65,37,63600,120
60,29,63720,120
65,37,63840,120
60,29,63960,120
65,33,64080,120
60,29,64200,120
64,37,64320,120
60,29,64440,120
64,37,64560,120
60,28,64680,120
64,37,64800,120
60,27,64920,120
64,32,65040,120
60,29,65160,120
64,48,65280,240
60,48,65280,120
55,42,65400,120
64,45,65520,240
60,45,65520,120
55,40,65640,120
62,48,65760,120
65,48,65760,240
55,42,65880,120
65,45,66000,240
62,45,66000,120
55,40,66120,120
60,56,66240,480
64,56,66240,480
55,45,67200,240
64,45,67200,240
55,41,67440,240
62,41,67440,240
60,46,67680,240
55,46,67680,240
59,41,67920,240
55,41,67920,240
60,58,68160,480
64,48,69120,240
55,48,69120,240
55,45,69360,240
62,45,69360,240
60,47,69600,240
55,47,69600,240
59,45,69840,240
55,45,69840,240
48,58,70080,60
60,64,70200,120
59,56,70320,120
58,56,70440,120
57,59,70560,60
57,57,70680,120
55,57,70800,120
53,54,70920,120
52,57,71040,120
48,57,71280,120
48,48,71760,240
60,48,71760,240
55,48,72000,480
64,48,72000,360
60,54,72360,120
59,48,72480,240
43,65,72600,120
47,72,72720,120
50,69,72840,120
55,45,72960,120
59,43,73080,120
62,41,73200,120
55,45,73440,120
59,43,73560,120
62,41,73680,120
55,44,73920,120
60,40,74040,120
64,43,74160,120
60,40,74280,120
55,44,74400,120
60,40,74520,120
64,43,74640,120
60,40,74760,120
54,57,74880,120
57,54,75000,120
60,49,75120,120
54,57,75360,120
57,54,75480,120
60,51,75600,120
55,57,75840,120
59,51,75960,120
62,53,76080,60
62,50,76200,60
55,57,76320,120
59,39,76440,120
62,42,76560,60
62,37,76680,60
55,44,76800,120
59,41,76920,120
62,41,77040,120
55,44,77280,120
59,41,77400,120
62,41,77520,120
55,43,77760,120
60,40,77880,120
64,40,78000,120
60,40,78120,120
55,45,78240,120
60,38,78360,120
64,42,78480,120
60,40,78600,120
54,52,78720,960
60,52,78720,960
62,62,78720,960
57,52,78720,960
55,61,79680,80
59,54,79760,80
67,51,79840,80
57,61,79920,80
60,53,80000,80
67,50,80080,80
59,61,80160,80
62,57,80240,80
67,49,80320,80
55,61,80400,80
59,48,80480,80
67,45,80560,80
60,43,80640,80
64,40,80720,80
67,37,80800,80
60,43,80880,80
64,40,80960,80
67,38,81040,80
60,43,81120,80
64,40,81200,80
67,38,81280,80
60,43,81360,80
64,41,81440,80
67,39,81520,80
55,57,81600,80
59,50,81680,80
67,50,81760,80
57,57,81840,80
60,51,81920,80
67,48,82000,80
59,57,82080,80
62,52,82160,80
67,46,82240,80
55,57,82320,80
59,50,82400,80
67,47,82480,80
60,38,82560,80
64,36,82640,80
67,36,82720,80
60,38,82800,80
64,36,82880,80
67,36,82960,80
60,45,83040,80
64,43,83120,80
67,40,83200,80
60,45,83280,80
64,44,83360,80
67,41,83440,80
55,61,83520,120
48,61,84000,120
50,63,84480,120
54,53,84720,480
51,53,84720,480
57,63,84720,480
52,40,85200,240
55,48,85200,240
48,36,85440,240
52,43,85440,240
50,44,86640,720
59,44,86640,240
60,44,86880,480
55,46,87360,120
59,46,87360,240
43,44,87600,120
54,40,89520,240
62,40,89520,480
55,43,89760,240
48,43,90240,480
55,43,90240,480
52,43,90960,240
49,43,90960,240
50,43,91200,480
55,43,91200,240
54,41,91440,240
62,77,91680,180
64,70,91860,30
66,66,91890,30
67,71,91920,120
66,56,92040,60
64,56,92160,60
62,52,92280,60
60,56,92400,60
59,52,92520,60
57,57,92640,120
59,62,92880,120
60,67,93120,120
61,65,93360,120
62,70,93600,120
63,66,93840,120
64,72,94080,170
48,43,94320,240
57,43,94320,240
50,43,94560,480
59,43,94560,240
60,43,94800,240
55,60,95040,120
59,50,95160,120
62,54,95280,120
59,48,95400,120
55,56,95520,120
60,45,95640,120
64,49,95760,120
60,47,95880,120
55,56,96000,120
59,50,96120,120
62,54,96240,120
59,47,96360,120
55,56,96480,120
60,50,96600,120
64,54,96720,120
60,49,96840,120
59,56,96960,240
62,56,96960,240
55,56,96960,240
72,41,97200,240
71,44,97440,240
72,43,97680,240
71,45,97920,240
66,52,98160,60
66,54,98280,60
67,57,98400,60
67,60,98520,60
69,62,98640,60
69,65,98760,60
71,67,98880,240
48,44,100080,240
57,44,100080,240
52,44,100080,240
50,44,100320,480
55,44,100320,240
59,44,100320,240
60,44,100560,240
57,44,100560,240
55,51,100800,120
59,46,100920,120
62,54,101040,120
59,49,101160,120
55,54,101280,120
60,50,101400,120
64,54,101520,120
60,50,101640,120
55,58,101760,120
59,50,101880,120
62,54,102000,120
59,54,102120,120
55,54,102240,120
60,50,102360,120
64,54,102480,120
60,50,102600,120
59,58,102720,240
62,58,102720,240
55,58,102720,240
72,43,102960,240
71,45,103200,240
72,43,103440,240
71,45,103680,240
66,48,103920,60
66,51,104040,60
67,54,104160,60
67,57,104280,60
69,61,104400,60
69,64,104520,60
71,67,104640,240
57,44,105840,240
48,44,105840,240
52,44,105840,240
50,44,106080,480
59,44,106080,240
55,44,106080,240
57,44,106320,240
60,44,106320,240
55,78,106560,180
50,72,106740,60
59,78,106800,180
55,72,106980,60
62,77,107040,120
55,41,107520,120
59,41,107520,120
50,41,107520,120
50,41,108000,120
54,41,108000,120
60,41,108000,120
55,72,108480,60
50,67,108540,60
55,72,108600,60
50,67,108660,60
59,72,108720,60
55,67,108780,60
59,72,108840,60
55,66,108900,60
62,72,108960,120
59,45,109440,120
50,45,109440,120
55,45,109440,120
54,45,109920,120
60,45,109920,120
50,45,109920,120
59,46,110400,240
55,46,110400,240
55,46,110640,120
43,46,110880,120
67,40,111360,120
71,36,111480,120
67,36,111600,120
71,31,111720,120
67,40,111840,120
71,36,111960,120
65,40,112080,120
68,36,112200,120
64,40,112320,120
67,36,112440,120
64,38,112560,120
67,32,112680,120
64,40,112800,120
67,36,112920,120
62,40,113040,120
65,36,113160,120
60,40,113280,120
64,35,113400,120
60,40,113520,120
64,35,113640,120
60,40,113760,120
64,35,113880,120
60,40,114000,120
63,35,114120,120
59,38,114240,120
62,35,114360,120
60,38,114480,120
62,35,114600,120
59,38,114720,120
62,35,114840,120
60,38,114960,120
62,35,115080,120
59,38,115200,120
62,35,115320,120
60,38,115440,120
63,35,115560,120
59,38,115680,120
62,36,115800,120
60,38,115920,120
63,35,116040,120
59,43,116160,480
62,43,116160,480
50,54,117120,120
59,50,117240,120
55,54,117360,120
59,50,117480,120
50,54,117600,120
57,49,117720,120
54,54,117840,120
57,50,117960,120
55,46,118080,120
59,43,118200,120
62,45,118320,120
59,40,118440,120
55,50,118560,240
55,40,119040,120
59,32,119160,120
62,36,119280,120
59,31,119400,120
55,40,119520,240
55,40,120000,120
59,36,120120,120
62,40,120240,120
59,38,120360,120
55,44,120480,240
56,64,120960,240
59,64,121200,240
62,69,121440,240
65,65,121680,240
59,69,121920,240
57,63,122160,240
56,67,122400,240
64,63,122640,240
57,38,122880,120
60,35,123000,120
64,35,123120,120
60,35,123240,120
57,38,123360,120
60,35,123480,120
65,35,123600,120
60,35,123720,120
55,38,123840,120
62,35,123960,120
65,35,124080,120
62,35,124200,120
55,43,124320,120
60,39,124440,120
64,39,124560,120
60,39,124680,120
53,48,124800,120
60,39,124920,120
65,54,125040,120
60,43,125160,120
53,54,125280,120
57,48,125400,120
62,59,125520,120
57,51,125640,120
52,59,125760,120
57,46,125880,120
61,51,126000,120
57,45,126120,120
52,56,126240,120
57,45,126360,120
61,50,126480,120
57,45,126600,120
50,36,126720,120
57,32,126840,120
60,32,126960,120
57,32,127080,120
50,36,127200,120
55,33,127320,120
59,33,127440,120
55,33,127560,120
48,38,127680,120
55,36,127800,120
60,36,127920,120
55,36,128040,120
48,38,128160,120
55,34,128280,120
60,34,128400,120
55,34,128520,120
53,43,128640,120
56,38,128760,120
60,38,128880,120
56,38,129000,120
53,43,129120,120
56,38,129240,120
60,38,129360,120
56,38,129480,120
54,43,129600,120
57,45,129720,120
60,48,129840,120
57,45,129960,120
54,43,130080,120
57,39,130200,120
60,39,130320,120
57,39,130440,120
55,39,130560,228
55,41,130800,228
57,45,131040,228
55,45,131040,228
59,46,131280,228
55,46,131280,228
60,50,131520,228
55,50,131520,228
67,48,131760,228
55,48,131760,228
65,46,132000,228
55,46,132000,228
63,44,132240,228
55,44,132240,228
62,45,132480,228
55,45,132480,228
59,48,132720,228
55,48,132720,228
57,51,132960,228
55,51,132960,228
59,54,133200,228
55,54,133200,228
60,57,133440,228
55,57,133440,228
67,61,133680,228
55,61,133680,228
65,64,133920,228
55,64,133920,228
63,67,134160,228
54,67,134160,228
55,71,134400,240
62,71,134400,240
62,38,135360,240
55,38,135360,240
61,38,135720,120
62,38,135840,240
55,38,135840,240
61,38,136200,120
62,38,136320,240
55,38,136320,240
61,40,136680,120
55,45,136800,240
62,45,136800,120
61,49,136920,120
55,54,137040,240
62,54,137040,120
61,59,137160,120
62,63,137280,480
55,63,137280,480
57,54,137880,60
59,54,138000,60
60,54,138120,60
62,52,138240,60
60,55,138360,60
59,59,138480,60
60,62,138600,60
62,65,138720,60
61,67,138840,60
62,71,138960,60
63,73,139080,60
64,50,139200,120
60,45,139320,120
64,51,139440,120
60,45,139560,120
64,51,139680,120
60,40,139800,120
64,45,139920,120
60,43,140040,120
64,51,140160,120
60,45,140280,120
64,51,140400,120
60,40,140520,120
64,46,140640,120
60,31,140760,120
64,35,140880,120
60,31,141000,120
64,51,141120,120
60,36,141240,120
64,43,141360,120
60,36,141480,120
64,43,141600,120
60,36,141720,120
65,40,141840,120
60,36,141960,120
64,38,142080,120
60,34,142200,120
64,39,142320,120
60,33,142440,120
64,38,142560,120
60,30,142680,120
64,33,142800,120
60,29,142920,120
65,34,143040,120
60,29,143160,120
65,34,143280,120
60,30,143400,120
65,34,143520,120
60,30,143640,120
65,34,143760,120
60,30,143880,120
64,36,144000,120
60,32,144120,120
64,36,144240,120
60,30,144360,120
64,36,144480,120
60,30,144600,120
64,36,144720,120
60,30,144840,120
64,57,144960,240
60,57,144960,120
55,50,145080,120
64,57,145200,240
60,57,145200,120
55,50,145320,120
62,54,145440,240
59,54,145440,120
55,46,145560,120
62,51,145680,240
59,51,145680,120
55,44,145800,120
60,48,145920,120
48,45,146040,120
52,48,146160,120
55,45,146280,120
60,57,146400,120
64,48,146520,120
67,52,146640,120
64,48,146760,120
65,37,146880,120
60,28,147000,120
65,37,147120,120
60,29,147240,120
65,37,147360,120
60,27,147480,120
65,32,147600,120
60,29,147720,120
64,37,147840,120
60,29,147960,120
64,37,148080,120
60,28,148200,120
64,37,148320,120
60,27,148440,120
64,33,148560,120
60,29,148680,120
64,51,148800,240
60,51,148800,120
55,45,148920,120
64,51,149040,240
60,51,149040,120
55,45,149160,120
65,51,149280,240
62,51,149280,120
55,43,149400,120
65,48,149520,240
62,48,149520,120
55,45,149640,120
64,56,149760,480
60,56,149760,480
64,46,150720,240
55,46,150720,240
62,40,150960,240
55,40,150960,240
60,46,151200,240
55,46,151200,240
59,42,151440,240
55,42,151440,240
60,58,151680,480
64,46,152640,240
55,46,152640,240
62,42,152880,240
55,42,152880,240
60,45,153120,240
55,45,153120,240
59,45,153360,240
55,45,153360,240
48,62,153600,60
60,68,153720,120
59,59,153840,120
58,59,153960,120
57,63,154080,60
57,67,154200,120
55,61,154320,120
53,61,154440,120
52,60,154560,120
48,60,154800,120
60,51,155280,240
48,51,155280,240
64,51,155520,360
55,51,155520,480
60,54,155880,120
59,54,156000,240
43,71,156120,120
47,72,156240,120
50,69,156360,120
55,45,156480,120
59,42,156600,120
62,40,156720,120
55,45,156960,120
59,43,157080,120
62,41,157200,120
55,44,157440,120
60,40,157560,120
64,43,157680,120
60,41,157800,120
55,44,157920,120
60,40,158040,120
64,43,158160,120
60,40,158280,120
54,57,158400,120
57,51,158520,120
60,54,158640,120
54,57,158880,120
57,51,159000,120
60,54,159120,120
53,57,159360,120
57,52,159480,120
59,57,159600,120
62,52,159720,120
65,62,159840,240
64,43,160080,120
62,45,160200,120
60,44,160320,120
64,39,160440,120
67,41,160560,120
60,44,160800,120
64,39,160920,120
67,41,161040,120
60,43,161280,120
65,37,161400,120
69,40,161520,120
65,38,161640,120
60,45,161760,120
65,39,161880,120
69,41,162000,120
65,40,162120,120
59,62,162240,960
62,62,162240,960
65,62,162240,960
67,62,162240,960
60,61,163200,80
64,57,163280,80
72,53,163360,80
62,61,163440,80
65,57,163520,80
72,53,163600,80
64,61,163680,80
67,57,163760,80
72,53,163840,80
60,61,163920,80
64,48,164000,80
72,48,164080,80
65,43,164160,80
69,40,164240,80
72,38,164320,80
65,43,164400,80
69,40,164480,80
72,39,164560,80
65,43,164640,80
69,41,164720,80
72,40,164800,80
65,43,164880,80
69,41,164960,80
72,40,165040,80
60,57,165120,80
64,55,165200,80
72,50,165280,80
62,57,165360,80
65,54,165440,80
72,51,165520,80
64,57,165600,80
67,54,165680,80
72,51,165760,80
60,57,165840,80
64,54,165920,80
72,49,166000,80
65,38,166080,80
69,36,166160,80
72,36,166240,80
65,38,166320,80
69,36,166400,80
72,36,166480,80
65,43,166560,80
69,39,166640,80
72,39,166720,80
65,43,166800,80
69,40,166880,80
72,40,166960,80
60,64,167040,120
53,64,167520,120
55,60,168000,120
59,59,168240,480
62,59,168240,480
56,59,168240,480
57,51,168720,240
60,51,168720,240
53,43,168960,240
57,43,168960,240
55,44,170160,720
64,44,170160,240
65,44,170400,480
64,46,170880,240
60,46,170880,120
48,44,171120,120
67,43,173040,480
59,43,173040,240
60,43,173280,240
53,43,173760,480
60,43,173760,480
54,40,174480,240
57,40,174480,240
60,43,174720,240
55,43,174720,480
59,40,174960,240
67,77,175200,180
69,68,175380,30
71,63,175410,30
72,69,175440,120
71,56,175560,60
69,56,175680,60
67,52,175800,60
65,56,175920,60
64,52,176040,60
62,57,176160,120
64,62,176400,120
65,67,176640,120
66,69,176880,120
67,70,177120,120
68,72,177360,120
69,77,177600,240
53,48,177840,240
62,48,177840,240
55,48,178080,480
64,48,178080,240
65,48,178320,240
60,60,178560,120
64,52,178680,120
67,57,178800,120
64,53,178920,120
60,60,179040,120
65,53,179160,120
69,57,179280,120
65,51,179400,120
60,60,179520,120
64,47,179640,120
67,54,179760,120
64,49,179880,120
60,60,180000,120
65,53,180120,120
69,57,180240,120
65,52,180360,120
67,58,180480,240
64,58,180480,240
60,58,180480,240
67,46,180720,480
65,46,180720,240
64,44,180960,240
67,43,181200,480
65,43,181200,240
64,45,181440,240
65,52,181680,120
67,52,181680,120
65,52,181800,120
67,54,181800,120
64,52,181920,120
67,57,181920,120
64,52,182040,120
67,60,182040,120
59,52,182160,120
67,62,182160,120
59,52,182280,120
67,65,182280,120
60,67,182400,240
67,67,182400,240
53,44,183600,240
57,44,183600,240
62,44,183600,240
55,44,183840,480
64,44,183840,240
60,44,183840,240
62,43,184080,240
65,43,184080,240
60,60,184320,120
64,52,184440,120
67,57,184560,120
64,52,184680,120
60,60,184800,120
65,53,184920,120
69,57,185040,120
65,57,185160,120
60,60,185280,120
64,52,185400,120
67,57,185520,120
64,51,185640,120
60,60,185760,120
65,53,185880,120
69,57,186000,120
65,51,186120,120
67,60,186240,240
64,60,186240,240
60,60,186240,240
67,46,186480,480
65,46,186480,240
64,44,186720,240
67,42,186960,480
65,42,186960,240
64,45,187200,240
65,52,187440,114
67,52,187440,114
65,52,187560,114
67,54,187560,114
64,52,187680,114
67,57,187680,114
64,52,187800,114
67,60,187800,114
59,52,187920,114
67,62,187920,114
59,52,188040,114
67,65,188040,114
60,67,188160,240
67,67,188160,240
53,44,189360,240
57,44,189360,240
62,44,189360,240
55,44,189600,480
64,44,189600,240
60,44,189600,240
62,41,189840,240
65,41,189840,240
60,78,190080,180
55,71,190260,60
64,76,190320,180
60,68,190500,60
67,74,190560,120
55,41,191040,120
60,41,191040,120
64,41,191040,120
55,41,191520,120
65,41,191520,120
59,41,191520,120
60,70,192000,60
55,65,192060,60
60,70,192120,60
55,65,192180,60
64,70,192240,60
60,64,192300,60
64,71,192360,60
60,65,192420,60
67,71,192480,120
55,45,192960,120
64,45,192960,120
60,45,192960,120
59,45,193440,120
55,45,193440,120
65,45,193440,120
64,51,193920,120
60,41,194040,120
64,51,194160,120
60,41,194280,120
65,51,194400,120
60,41,194520,120
67,51,194640,120
60,41,194760,120
69,51,194880,120
60,43,195000,120
70,51,195120,120
60,43,195240,120
69,51,195360,120
60,43,195480,120
67,51,195600,120
60,43,195720,120
65,51,195840,120
60,43,195960,120
64,51,196080,120
60,35,196200,120
65,40,196320,120
60,37,196440,120
62,40,196560,120
60,36,196680,120
64,39,196800,120
60,36,196920,120
65,40,197040,120
60,34,197160,120
64,40,197280,120
60,38,197400,120
65,41,197520,120
60,34,197640,120
64,41,197760,120
60,37,197880,120
65,40,198000,120
60,33,198120,120
64,41,198240,120
60,37,198360,120
65,41,198480,120
60,35,198600,120
48,33,198720,720
60,39,198720,720
67,40,199680,120
71,36,199800,120
67,36,199920,120
71,31,200040,120
67,40,200160,120
71,36,200280,120
65,40,200400,120
68,36,200520,120
64,40,200640,120
67,36,200760,120
64,38,200880,120
67,32,201000,120
64,40,201120,120
67,36,201240,120
62,40,201360,120
65,36,201480,120
60,40,201600,120
64,35,201720,120
60,40,201840,120
64,35,201960,120
60,40,202080,120
64,35,202200,120
60,40,202320,120
63,35,202440,120
59,38,202560,120
62,35,202680,120
60,38,202800,120
62,35,202920,120
59,38,203040,120
62,35,203160,120
60,38,203280,120
62,35,203400,120
59,38,203520,120
62,35,203640,120
60,38,203760,120
63,35,203880,120
59,38,204000,120
62,36,204120,120
60,38,204240,120
63,35,204360,120
59,43,204480,480
62,43,204480,480
50,54,205440,120
59,50,205560,120
55,54,205680,120
59,50,205800,120
50,54,205920,120
57,49,206040,120
54,54,206160,120
57,50,206280,120
55,46,206400,120
59,43,206520,120
62,45,206640,120
59,40,206760,120
55,50,206880,240
55,40,207360,120
59,32,207480,120
62,36,207600,120
59,31,207720,120
55,40,207840,240
55,40,208320,120
59,36,208440,120
62,40,208560,120
59,38,208680,120
55,44,208800,240
56,64,209280,240
59,64,209520,240
62,69,209760,240
65,65,210000,240
59,69,210240,240
57,63,210480,240
56,67,210720,240
64,63,210960,240
57,38,211200,120
60,35,211320,120
64,35,211440,120
60,35,211560,120
57,38,211680,120
60,35,211800,120
65,35,211920,120
60,35,212040,120
55,38,212160,120
62,35,212280,120
65,35,212400,120
62,35,212520,120
55,43,212640,120
60,39,212760,120
64,39,212880,120
60,39,213000,120
53,48,213120,120
60,39,213240,120
65,54,213360,120
60,43,213480,120
53,54,213600,120
57,48,213720,120
62,59,213840,120
57,51,213960,120
52,59,214080,120
57,46,214200,120
61,51,214320,120
57,45,214440,120
52,56,214560,120
57,45,214680,120
61,50,214800,120
57,45,214920,120
50,36,215040,120
57,32,215160,120
60,32,215280,120
57,32,215400,120
50,36,215520,120
55,33,215640,120
59,33,215760,120
55,33,215880,120
48,38,216000,120
55,36,216120,120
60,36,216240,120
55,36,216360,120
48,38,216480,120
55,34,216600,120
60,34,216720,120
55,34,216840,120
53,43,216960,120
56,38,217080,120
60,38,217200,120
56,38,217320,120
53,43,217440,120
56,38,217560,120
60,38,217680,120
56,38,217800,120
54,43,217920,120
57,45,218040,120
60,48,218160,120
57,45,218280,120
54,43,218400,120
57,39,218520,120
60,39,218640,120
57,39,218760,120
55,39,218880,228
55,41,219120,228
57,45,219360,228
55,45,219360,228
59,46,219600,228
55,46,219600,228
60,50,219840,228
55,50,219840,228
67,48,220080,228
55,48,220080,228
65,46,220320,228
55,46,220320,228
63,44,220560,228
55,44,220560,228
62,45,220800,228
55,45,220800,228
59,48,221040,228
55,48,221040,228
57,51,221280,228
55,51,221280,228
59,54,221520,228
55,54,221520,228
60,57,221760,228
55,57,221760,228
67,61,222000,228
55,61,222000,228
65,64,222240,228
55,64,222240,228
63,67,222480,228
54,67,222480,228
55,71,222720,240
62,71,222720,240
62,38,223680,240
55,38,223680,240
61,38,224040,120
62,38,224160,240
55,38,224160,240
61,38,224520,120
62,38,224640,240
55,38,224640,240
61,40,225000,120
55,45,225120,240
62,45,225120,120
61,49,225240,120
55,54,225360,240
62,54,225360,120
61,59,225480,120
62,63,225600,480
55,63,225600,480
57,54,226200,60
59,54,226320,60
60,54,226440,60
62,52,226560,60
60,55,226680,60
59,59,226800,60
60,62,226920,60
62,65,227040,60
61,67,227160,60
62,71,227280,60
63,73,227400,60
64,50,227520,120
60,45,227640,120
64,51,227760,120
60,45,227880,120
64,51,228000,120
60,40,228120,120
64,45,228240,120
60,43,228360,120
64,51,228480,120
60,45,228600,120
64,51,228720,120
60,40,228840,120
64,46,228960,120
60,31,229080,120
64,35,229200,120
60,31,229320,120
64,51,229440,120
60,36,229560,120
64,43,229680,120
60,36,229800,120
64,43,229920,120
60,36,230040,120
65,40,230160,120
60,36,230280,120
64,38,230400,120
60,34,230520,120
64,39,230640,120
60,33,230760,120
64,38,230880,120
60,30,231000,120
64,33,231120,120
60,29,231240,120
65,34,231360,120
60,29,231480,120
65,34,231600,120
60,30,231720,120
65,34,231840,120
60,30,231960,120
65,34,232080,120
60,30,232200,120
64,36,232320,120
60,32,232440,120
64,36,232560,120
60,30,232680,120
64,36,232800,120
60,30,232920,120
64,36,233040,120
60,30,233160,120
64,57,233280,240
60,57,233280,120
55,50,233400,120
64,57,233520,240
60,57,233520,120
55,50,233640,120
62,54,233760,240
59,54,233760,120
55,46,233880,120
62,51,234000,240
59,51,234000,120
55,44,234120,120
60,48,234240,120
48,45,234360,120
52,48,234480,120
55,45,234600,120
60,57,234720,120
64,48,234840,120
67,52,234960,120
64,48,235080,120
65,37,235200,120
60,28,235320,120
65,37,235440,120
60,29,235560,120
65,37,235680,120
60,27,235800,120
65,32,235920,120
60,29,236040,120
64,37,236160,120
60,29,236280,120
64,37,236400,120
60,28,236520,120
64,37,236640,120
60,27,236760,120
64,33,236880,120
60,29,237000,120
64,51,237120,240
60,51,237120,120
55,45,237240,120
64,51,237360,240
60,51,237360,120
55,45,237480,120
65,51,237600,240
62,51,237600,120
55,43,237720,120
65,48,237840,240
62,48,237840,120
55,45,237960,120
64,56,238080,480
60,56,238080,480
64,46,239040,240
55,46,239040,240
62,40,239280,240
55,40,239280,240
60,46,239520,240
55,46,239520,240
59,42,239760,240
55,42,239760,240
60,58,240000,480
64,46,240960,240
55,46,240960,240
62,42,241200,240
55,42,241200,240
60,45,241440,240
55,45,241440,240
59,45,241680,240
55,45,241680,240
48,62,241920,60
60,68,242040,120
59,59,242160,120
58,59,242280,120
57,63,242400,60
57,67,242520,120
55,61,242640,120
53,61,242760,120
52,60,242880,120
48,60,243120,120
60,51,243600,240
48,51,243600,240
64,51,243840,360
55,51,243840,480
60,54,244200,120
59,54,244320,240
43,71,244440,120
47,72,244560,120
50,69,244680,120
55,45,244800,120
59,42,244920,120
62,40,245040,120
55,45,245280,120
59,43,245400,120
62,41,245520,120
55,44,245760,120
60,40,245880,120
64,43,246000,120
60,41,246120,120
55,44,246240,120
60,40,246360,120
64,43,246480,120
60,40,246600,120
54,57,246720,120
57,51,246840,120
60,54,246960,120
54,57,247200,120
57,51,247320,120
60,54,247440,120
53,57,247680,120
57,52,247800,120
59,57,247920,120
62,52,248040,120
65,62,248160,240
64,43,248400,120
62,45,248520,120
60,44,248640,120
64,39,248760,120
67,41,248880,120
60,44,249120,120
64,39,249240,120
67,41,249360,120
60,43,249600,120
65,37,249720,120
69,40,249840,120
65,38,249960,120
60,45,250080,120
65,39,250200,120
69,41,250320,120
65,40,250440,120
59,62,250560,960
62,62,250560,960
65,62,250560,960
67,62,250560,960
60,61,251520,80
64,57,251600,80
72,53,251680,80
62,61,251760,80
65,57,251840,80
72,53,251920,80
64,61,252000,80
67,57,252080,80
72,53,252160,80
60,61,252240,80
64,48,252320,80
72,48,252400,80
65,43,252480,80
69,40,252560,80
72,38,252640,80
65,43,252720,80
69,40,252800,80
72,39,252880,80
65,43,252960,80
69,41,253040,80
72,40,253120,80
65,43,253200,80
69,41,253280,80
72,40,253360,80
60,57,253440,80
64,55,253520,80
72,50,253600,80
62,57,253680,80
65,54,253760,80
72,51,253840,80
64,57,253920,80
67,54,254000,80
72,51,254080,80
60,57,254160,80
64,54,254240,80
72,49,254320,80
65,38,254400,80
69,36,254480,80
72,36,254560,80
65,38,254640,80
69,36,254720,80
72,36,254800,80
65,43,254880,80
69,39,254960,80
72,39,255040,80
65,43,255120,80
69,40,255200,80
72,40,255280,80
60,64,255360,120
53,64,255840,120
55,60,256320,120
59,59,256560,480
62,59,256560,480
56,59,256560,480
57,51,257040,240
60,51,257040,240
53,43,257280,240
57,43,257280,240
55,44,258480,720
64,44,258480,240
65,44,258720,480
64,46,259200,240
60,46,259200,120
48,44,259440,120
67,43,261360,480
59,43,261360,240
60,43,261600,240
53,43,262080,480
60,43,262080,480
54,40,262800,240
57,40,262800,240
60,43,263040,240
55,43,263040,480
59,40,263280,240
67,77,263520,180
69,68,263700,30
71,63,263730,30
72,69,263760,120
71,56,263880,60
69,56,264000,60
67,52,264120,60
65,56,264240,60
64,52,264360,60
62,57,264480,120
64,62,264720,120
65,67,264960,120
66,69,265200,120
67,70,265440,120
68,72,265680,120
69,77,265920,240
53,48,266160,240
62,48,266160,240
55,48,266400,480
64,48,266400,240
65,48,266640,240
60,60,266880,120
64,52,267000,120
67,57,267120,120
64,53,267240,120
60,60,267360,120
65,53,267480,120
69,57,267600,120
65,51,267720,120
60,60,267840,120
64,47,267960,120
67,54,268080,120
64,49,268200,120
60,60,268320,120
65,53,268440,120
69,57,268560,120
65,52,268680,120
67,58,268800,240
64,58,268800,240
60,58,268800,240
67,46,269040,480
65,46,269040,240
64,44,269280,240
67,43,269520,480
65,43,269520,240
64,45,269760,240
65,52,270000,120
67,52,270000,120
65,52,270120,120
67,54,270120,120
64,52,270240,120
67,57,270240,120
64,52,270360,120
67,60,270360,120
59,52,270480,120
67,62,270480,120
59,52,270600,120
67,65,270600,120
60,67,270720,240
67,67,270720,240
53,44,271920,240
57,44,271920,240
62,44,271920,240
55,44,272160,480
64,44,272160,240
60,44,272160,240
62,43,272400,240
65,43,272400,240
60,60,272640,120
64,52,272760,120
67,57,272880,120
64,52,273000,120
60,60,273120,120
65,53,273240,120
69,57,273360,120
65,57,273480,120
60,60,273600,120
64,52,273720,120
67,57,273840,120
64,51,273960,120
60,60,274080,120
65,53,274200,120
69,57,274320,120
65,51,274440,120
67,60,274560,240
64,60,274560,240
60,60,274560,240
67,46,274800,480
65,46,274800,240
64,44,275040,240
67,42,275280,480
65,42,275280,240
64,45,275520,240
65,52,275760,114
67,52,275760,114
65,52,275880,114
67,54,275880,114
64,52,276000,114
67,57,276000,114
64,52,276120,114
67,60,276120,114
59,52,276240,114
67,62,276240,114
59,52,276360,114
67,65,276360,114
60,67,276480,240
67,67,276480,240
53,44,277680,240
57,44,277680,240
62,44,277680,240
55,44,277920,480
64,44,277920,240
60,44,277920,240
62,41,278160,240
65,41,278160,240
60,78,278400,180
55,71,278580,60
64,76,278640,180
60,68,278820,60
67,74,278880,120
55,41,279360,120
60,41,279360,120
64,41,279360,120
55,41,279840,120
65,41,279840,120
59,41,279840,120
60,70,280320,60
55,65,280380,60
60,70,280440,60
55,65,280500,60
64,70,280560,60
60,64,280620,60
64,71,280680,60
60,65,280740,60
67,71,280800,120
55,45,281280,120
64,45,281280,120
60,45,281280,120
59,45,281760,120
55,45,281760,120
65,45,281760,120
64,51,282240,120
60,41,282360,120
64,51,282480,120
60,41,282600,120
65,51,282720,120
60,41,282840,120
67,51,282960,120
60,41,283080,120
69,51,283200,120
60,43,283320,120
70,51,283440,120
60,43,283560,120
69,51,283680,120
60,43,283800,120
67,51,283920,120
60,43,284040,120
65,51,284160,120
60,43,284280,120
64,51,284400,120
60,35,284520,120
65,40,284640,120
60,37,284760,120
62,40,284880,120
60,36,285000,120
64,39,285120,120
60,36,285240,120
65,40,285360,120
60,34,285480,120
64,40,285600,120
60,38,285720,120
65,41,285840,120
60,34,285960,120
64,41,286080,120
60,37,286200,120
65,40,286320,120
60,33,286440,120
64,41,286560,120
60,37,286680,120
65,41,286800,120
60,35,286920,120
48,33,287040,720
60,39,287040,720
