note,velocity,position,duration
69,42,600,120
81,47,720,480
78,44,1200,180
76,44,1380,60
74,49,1440,90
73,44,1680,90
74,44,1920,90
76,43,2100,60
74,47,2160,90
73,43,2400,90
74,42,2640,90
78,49,2880,480
74,41,2880,480
76,41,3360,120
73,35,3360,120
67,42,3480,120
79,47,3600,480
76,44,4080,180
74,44,4260,60
73,49,4320,90
71,44,4560,90
73,44,4800,90
69,47,5040,90
76,43,5280,90
81,42,5520,90
79,49,5760,480
76,41,5760,480
78,41,6240,180
74,35,6240,180
74,48,6420,60
78,52,6480,480
79,48,6960,240
83,59,7200,120
81,57,7320,120
79,55,7440,120
78,53,7560,120
76,51,7680,120
74,47,7800,58
74,46,7860,60
78,58,7920,480
79,49,8400,240
83,59,8640,120
81,57,8760,120
79,55,8880,120
78,53,9000,120
76,51,9120,120
74,51,9240,50
74,46,9300,60
83,58,9360,480
85,49,9840,240
86,59,10080,120
85,57,10200,120
83,55,10320,120
81,53,10440,120
79,51,10560,120
78,51,10680,120
83,59,10800,120
81,58,10920,120
79,56,11040,120
78,55,11160,120
76,58,11280,120
74,62,11400,120
73,50,11520,240
76,50,11520,240
81,59,11520,240
69,45,12120,120
81,47,12240,480
78,44,12720,180
76,44,12900,60
74,49,12960,90
73,44,13200,90
74,44,13440,90
76,43,13620,60
74,47,13680,90
73,43,13920,90
74,42,14160,90
78,49,14400,480
74,41,14400,480
76,41,14880,120
73,35,14880,120
67,42,15000,120
79,47,15120,480
76,44,15600,180
74,44,15780,60
73,49,15840,90
71,44,16080,90
73,44,16320,90
69,47,16560,90
76,43,16800,90
81,42,17040,90
76,41,17280,480
79,49,17280,480
74,35,17760,180
78,41,17760,180
74,48,17940,60
78,52,18000,480
79,48,18480,240
83,59,18720,120
81,57,18840,120
79,55,18960,120
78,53,19080,120
76,51,19200,120
74,47,19320,56
74,46,19380,60
83,58,19440,480
85,49,19920,240
88,59,20160,120
86,57,20280,120
85,55,20400,120
83,53,20520,120
81,51,20640,120
79,51,20760,120
85,59,20880,120
83,58,21000,120
81,56,21120,120
79,55,21240,120
78,54,21360,120
76,52,21480,120
83,63,21600,120
81,61,21720,120
79,59,21840,120
78,57,21960,120
76,56,22080,120
74,54,22200,120
81,59,22320,120
79,61,22440,120
78,60,22560,120
76,59,22680,120
74,58,22800,120
73,61,22920,120
74,63,23040,120
62,66,23520,120
66,66,23640,120
69,73,23760,120
66,70,24240,120
69,70,24360,120
74,75,24480,120
69,69,24960,120
74,69,25080,120
78,81,25200,120
74,70,25680,120
78,70,25800,120
81,82,25920,120
81,45,27360,600
83,42,27960,120
74,47,28080,480
73,47,28588,240
74,55,28800,180
86,54,29040,120
85,52,29280,120
83,50,29520,120
81,49,29760,120
80,47,30000,120
81,45,30240,300
83,35,30540,60
81,35,30600,60
80,35,30660,60
81,45,30720,120
83,42,30840,120
74,47,30960,480
73,47,31468,240
74,55,31680,180
86,54,31920,120
85,52,32160,120
83,50,32400,120
81,49,32640,120
80,47,32880,120
81,45,33120,300
83,35,33420,60
81,35,33480,60
80,35,33540,60
81,45,33600,120
83,42,33720,120
74,47,33840,480
73,47,34348,240
74,52,34560,240
62,35,35280,720
54,29,35280,720
59,29,35280,720
59,32,36000,720
64,38,36000,720
62,32,36000,720
64,33,36720,720
69,39,36720,720
61,33,36720,720
57,29,37440,240
62,29,37440,240
66,35,37440,240
62,61,38400,90
62,62,38640,90
64,40,38760,40
62,40,38800,40
61,40,38841,40
62,69,38880,480
62,60,39360,90
64,40,39480,40
62,40,39520,40
61,40,39561,40
62,64,39600,480
62,59,40080,90
61,66,40320,480
76,54,40920,120
81,63,41040,960
85,45,42000,90
83,43,42240,90
81,41,42480,90
80,39,42720,90
78,37,42960,90
76,35,43200,720
74,35,43920,240
59,61,44160,90
59,62,44400,90
61,40,44520,40
59,40,44560,40
58,40,44601,40
59,69,44640,480
59,60,45120,90
59,40,45240,40
57,40,45280,40
56,40,45321,40
57,64,45360,480
57,59,45840,90
56,66,46080,240
76,54,46680,120
86,63,46800,840
85,53,47640,120
83,53,47760,120
81,52,47880,120
80,51,48000,120
78,51,48120,120
76,54,48240,120
78,49,48360,120
76,50,48480,120
74,49,48600,120
73,48,48720,120
71,47,48840,120
73,47,48960,120
76,47,49080,120
78,48,49200,120
80,50,49320,120
81,52,49440,120
83,53,49560,120
85,55,49680,120
86,57,49800,120
88,61,49920,120
85,57,50040,120
83,57,50160,120
81,53,50280,120
86,62,50400,120
85,60,50520,120
83,58,50640,120
81,57,50760,120
80,55,50880,120
78,53,51000,120
76,59,51120,120
78,58,51240,120
76,56,51360,120
74,55,51480,120
73,53,51600,120
71,52,51720,120
73,48,51840,120
76,50,51960,120
78,51,52080,120
80,52,52200,120
81,54,52320,120
83,55,52440,120
85,56,52560,120
86,58,52680,120
88,60,52800,120
85,52,52920,120
83,51,53040,120
81,51,53160,120
86,63,53280,120
85,59,53400,120
83,59,53520,120
81,58,53640,120
80,56,53760,120
78,54,53880,120
76,60,54000,120
78,58,54120,120
76,56,54240,120
74,55,54360,120
73,54,54480,120
71,52,54600,120
73,56,54720,120
76,50,54840,120
78,52,54960,120
80,53,55080,120
81,55,55200,120
83,57,55320,120
85,62,55440,120
83,57,55560,120
81,56,55680,120
80,54,55800,120
78,53,55920,120
76,52,56040,120
78,60,56160,120
76,59,56280,120
74,57,56400,120
73,56,56520,120
71,55,56640,120
69,53,56760,120
74,52,56880,120
73,54,57000,120
71,57,57120,120
69,60,57240,120
68,64,57360,120
66,67,57480,120
64,70,57600,90
68,52,57840,90
76,62,57840,90
71,52,57840,90
71,52,58080,90
68,52,58080,90
76,62,58080,90
71,56,58320,90
76,67,58320,90
68,56,58320,90
73,50,59040,720
64,42,59040,720
62,39,59760,720
71,47,59760,240
73,44,60000,240
71,44,60240,240
61,42,60480,1920
69,50,60480,1920
73,50,62400,240
69,42,62640,720
74,50,62640,480
78,54,63120,240
68,45,63360,240
76,53,63360,480
69,50,63600,240
71,42,63840,240
74,50,63840,240
69,45,64080,480
73,54,64080,480
71,50,64800,960
73,44,65760,240
71,44,66000,240
71,50,66240,960
73,45,67200,240
74,46,67440,240
76,52,67680,240
81,49,67920,180
80,48,68160,180
78,49,68400,180
76,48,68640,180
74,46,68880,180
73,45,69120,480
74,42,69600,120
73,43,69720,120
71,37,69840,240
64,42,70560,720
73,50,70560,720
71,47,71280,240
62,39,71280,720
73,44,71520,240
71,44,71760,240
69,50,72000,1920
61,42,72000,720
67,42,72720,720
61,42,72720,720
66,42,73440,480
62,42,73440,480
64,50,73920,240
70,50,73920,240
62,42,74160,480
66,42,74160,480
71,50,74160,480
78,54,74640,240
73,54,74640,240
76,53,74880,480
71,45,74880,480
74,50,75360,240
68,42,75360,240
73,54,75600,480
69,45,75600,480
71,50,76320,240
83,55,76560,120
83,55,76800,120
83,59,77040,120
83,53,77280,120
83,53,77520,120
83,60,77760,240
76,53,78000,120
88,53,78240,120
88,62,78480,120
81,56,78720,120
81,56,78960,120
81,57,79200,120
74,45,79440,120
78,53,79440,120
76,54,79680,120
73,45,79680,120
71,47,79920,120
74,56,79920,120
69,49,80160,120
73,58,80160,120
71,59,80400,120
68,50,80400,120
69,65,80640,720
85,65,81360,720
86,67,82080,120
85,65,82200,120
83,64,82320,120
81,63,82440,120
80,61,82560,120
83,65,82800,120
81,64,82920,120
80,62,83040,120
78,61,83160,120
76,60,83280,120
74,58,83400,120
73,61,83520,120
76,49,83760,120
81,52,84000,120
85,55,84240,120
88,58,84480,120
86,67,84960,120
85,65,85080,120
83,64,85200,120
81,63,85320,120
80,61,85440,120
83,65,85680,120
81,64,85800,120
80,62,85920,120
78,61,86040,120
76,60,86160,120
74,58,86280,120
73,61,86400,120
76,49,86640,120
81,52,86880,120
85,55,87120,120
88,58,87360,120
77,45,88080,240
78,45,88320,240
81,45,88800,240
78,45,89040,240
75,45,89520,240
76,45,89760,240
78,45,90240,240
74,45,90480,240
72,45,90960,240
73,45,91200,240
74,45,91680,240
71,45,91920,240
69,65,92160,720
85,65,92880,720
86,67,93600,120
85,65,93720,120
83,64,93840,120
81,63,93960,120
80,61,94080,120
83,65,94320,120
81,64,94440,120
80,62,94560,120
78,61,94680,120
76,60,94800,120
74,58,94920,120
73,61,95040,120
76,49,95280,120
81,52,95520,120
85,55,95760,120
88,58,96000,120
86,67,96480,120
85,65,96600,120
83,64,96720,120
81,63,96840,120
80,61,96960,120
83,65,97200,120
81,64,97320,120
80,62,97440,120
78,61,97560,120
76,60,97680,120
74,58,97800,120
73,61,97920,120
76,49,98160,120
81,52,98400,120
85,55,98640,120
88,58,98880,120
77,45,99600,240
78,43,99840,240
81,45,100320,240
78,41,100560,240
75,45,101040,240
76,44,101280,240
78,45,101760,240
74,43,102000,240
72,45,102480,240
73,43,102720,240
74,45,103200,240
71,43,103440,240
77,69,103920,120
65,58,103920,120
66,56,104160,120
78,67,104160,120
81,69,104640,120
69,58,104640,120
66,56,104880,120
78,67,104880,120
75,69,105360,120
63,58,105360,120
64,56,105600,120
76,67,105600,120
66,58,106080,120
78,69,106080,120
62,56,106320,120
74,67,106320,120
72,69,106800,120
60,58,106800,120
73,67,107040,120
61,56,107040,120
62,58,107520,120
74,69,107520,120
71,67,107760,120
59,56,107760,120
69,72,108000,240
61,72,108000,240
73,62,108720,720
81,73,108720,720
74,63,109440,480
83,75,109440,480
78,60,109920,180
86,71,109920,180
71,65,110100,60
81,76,110160,480
80,69,110640,40
81,62,110680,40
80,63,110720,40
78,70,110760,60
80,64,110820,60
81,72,110880,240
73,62,111600,120
81,73,111600,120
73,62,111840,120
81,73,111840,120
73,62,112080,120
81,73,112080,120
74,63,112320,480
83,75,112320,480
78,60,112800,180
86,71,112800,180
71,65,112980,60
81,76,113040,480
80,69,113520,40
81,62,113560,40
80,63,113600,40
78,70,113640,60
80,64,113700,60
81,72,113760,120
73,45,114000,240
74,39,114240,240
76,45,114480,240
78,41,114720,240
80,42,114960,240
81,47,115200,240
73,40,115440,240
74,37,115680,240
76,45,115920,240
78,42,116160,240
80,44,116400,240
81,45,116640,240
71,38,117840,240
64,38,117840,240
74,45,117840,240
73,45,118080,120
64,38,118080,120
69,38,118080,120
74,45,119280,120
71,38,119280,120
64,38,119280,120
72,43,119760,240
73,40,120000,240
73,46,120480,240
74,45,120720,240
75,65,121200,240
76,61,121440,240
77,74,121920,240
78,70,122160,240
78,77,122640,240
79,75,122880,240
69,42,124440,120
81,47,124560,480
78,44,125040,180
76,44,125220,60
74,49,125280,90
73,44,125520,90
74,44,125760,90
76,43,125940,60
74,47,126000,90
73,43,126240,90
74,42,126480,90
74,41,126720,480
78,49,126720,480
73,35,127200,120
76,41,127200,120
67,42,127320,120
79,47,127440,480
76,44,127920,180
74,44,128100,60
73,49,128160,90
71,44,128400,90
73,44,128640,90
69,47,128880,90
76,43,129120,90
81,42,129360,90
76,41,129600,480
79,49,129600,480
74,35,130080,180
78,41,130080,180
74,48,130260,60
78,52,130320,480
79,48,130800,240
83,59,131040,120
81,57,131160,120
79,55,131280,120
78,53,131400,120
76,51,131520,120
74,47,131640,57
74,46,131700,60
78,58,131760,480
79,49,132240,240
83,59,132480,120
81,57,132600,120
79,55,132720,120
78,53,132840,120
76,51,132960,120
74,51,133080,50
74,46,133140,60
83,58,133200,480
85,49,133680,240
86,59,133920,120
85,57,134040,120
83,55,134160,120
81,53,134280,120
79,51,134400,120
78,51,134520,120
83,59,134640,120
81,58,134760,120
79,56,134880,120
78,55,135000,120
76,58,135120,120
74,62,135240,120
76,50,135360,240
81,59,135360,240
73,50,135360,240
69,42,135960,120
81,47,136080,480
78,44,136560,180
76,44,136740,60
74,49,136800,90
73,44,137040,90
74,44,137280,90
76,43,137460,60
74,47,137520,90
73,43,137760,90
74,42,138000,90
78,49,138240,480
74,41,138240,480
73,35,138720,120
76,41,138720,120
67,42,138840,120
79,47,138960,480
76,44,139440,180
74,44,139620,60
73,49,139680,90
71,44,139920,90
73,44,140160,90
69,47,140400,90
76,43,140640,90
81,42,140880,90
76,41,141120,480
79,49,141120,480
74,35,141600,180
78,41,141600,180
74,48,141780,60
78,52,141840,480
79,48,142320,240
83,59,142560,120
81,57,142680,120
79,55,142800,120
78,53,142920,120
76,51,143040,120
74,47,143160,56
74,46,143230,60
83,58,143280,480
85,49,143760,240
88,59,144000,120
86,57,144120,120
85,55,144240,120
83,53,144360,120
81,51,144480,120
79,51,144600,120
85,59,144720,120
83,58,144840,120
81,56,144960,120
79,55,145080,120
78,54,145200,120
76,52,145320,120
83,63,145440,120
81,61,145560,120
79,59,145680,120
78,57,145800,120
76,56,145920,120
74,54,146040,120
81,59,146160,120
79,61,146280,120
78,60,146400,120
76,59,146520,120
74,58,146640,120
73,61,146760,120
74,63,146880,120
66,66,147360,120
69,66,147480,120
74,73,147600,120
69,70,148080,120
74,70,148200,120
78,75,148320,120
74,69,148800,120
78,69,148920,120
81,81,149040,120
78,56,149520,120
81,56,149640,120
84,65,149760,120
74,45,151200,600
76,42,151800,120
67,47,151920,480
66,47,152428,240
67,55,152640,180
79,54,152880,120
78,52,153120,120
76,50,153360,120
74,49,153600,120
73,47,153840,120
74,45,154080,300
76,35,154380,60
74,35,154440,60
73,35,154500,60
74,45,154560,120
76,42,154680,120
67,47,154800,480
66,47,155308,240
67,55,155520,180
79,54,155760,120
78,52,156000,120
76,50,156240,120
74,49,156480,120
73,47,156720,120
74,45,156960,300
76,35,157260,60
74,35,157320,60
73,35,157380,60
74,45,157440,120
76,42,157560,120
67,47,157680,480
66,47,158160,240
67,52,158400,240
64,29,159120,720
59,29,159120,720
67,35,159120,720
64,32,159840,720
69,38,159840,720
67,32,159840,720
66,33,160560,720
69,33,160560,720
74,39,160560,720
62,29,161280,240
71,35,161280,240
67,29,161280,240
64,52,162000,720
55,43,162000,720
60,43,162000,720
66,57,162720,720
60,48,162720,720
64,48,162720,720
66,49,163440,720
63,49,163440,720
71,58,163440,720
64,43,164160,240
67,52,164160,240
59,43,164160,240
59,29,164880,720
54,29,164880,720
62,35,164880,720
64,38,165600,720
59,32,165600,720
62,32,165600,720
61,33,166320,720
64,33,166320,720
69,39,166320,720
66,35,167040,240
57,29,167040,240
62,29,167040,240
73,52,167760,720
64,43,167760,720
67,43,167760,720
62,48,168480,720
74,57,168480,720
66,48,168480,720
77,60,169200,720
71,51,169200,720
70,45,169920,240
78,54,169920,240
73,45,169920,240
78,52,171600,120
78,48,171840,120
79,44,172080,60
81,44,172140,60
79,53,172200,120
78,49,172320,120
78,46,172560,120
79,48,172800,60
81,48,172860,60
79,52,172920,120
78,52,173040,120
78,48,173280,120
78,52,173520,480
79,46,174000,120
81,49,174120,120
83,52,174240,240
76,48,174480,120
76,48,174720,120
78,48,174960,60
79,48,175020,60
78,52,175080,120
76,52,175200,120
76,48,175440,120
76,48,175680,60
78,48,175740,60
76,56,175800,120
74,48,175920,120
74,52,176160,120
74,52,176400,480
76,47,176880,120
78,50,177000,120
79,53,177120,240
72,50,177360,120
72,50,177600,120
74,53,177840,40
72,43,177880,40
71,43,177920,40
72,49,177960,360
79,53,178320,240
78,53,178560,240
71,50,178800,120
71,50,179040,120
73,49,179280,40
71,34,179320,40
70,34,179360,40
71,40,179400,360
78,46,179760,240
78,50,180000,240
76,46,180240,240
73,46,180480,120
76,53,180720,240
74,47,180960,240
71,46,181200,120
70,53,181440,132
71,48,181560,132
73,54,181680,132
74,50,181800,132
73,54,181920,132
74,47,182040,132
73,52,182160,240
74,56,182880,120
83,48,183000,120
74,48,183120,120
83,48,183240,120
74,56,183360,120
83,47,183480,120
74,47,183600,120
83,46,183720,120
74,56,183840,120
83,47,183960,120
74,47,184080,120
83,47,184200,120
73,56,184320,120
83,48,184440,120
73,48,184560,120
83,48,184680,120
73,56,184800,120
83,47,184920,120
73,47,185040,120
81,46,185160,120
73,56,185280,120
81,47,185400,120
73,47,185520,120
81,47,185640,120
75,56,185760,120
81,48,185880,120
76,48,186000,120
79,48,186120,120
76,56,186240,120
79,47,186360,120
71,47,186480,120
79,46,186600,120
71,56,186720,120
79,47,186840,120
73,47,186960,120
79,47,187080,120
69,56,187200,120
79,48,187320,120
69,48,187440,120
79,48,187560,120
69,56,187680,120
79,47,187800,120
69,47,187920,120
78,46,188040,120
69,56,188160,120
78,47,188280,120
69,47,188400,120
78,47,188520,120
71,56,188640,120
78,48,188760,120
71,48,188880,120
76,48,189000,120
71,56,189120,120
75,47,189240,120
76,47,189360,120
83,46,189480,120
76,56,189600,120
81,47,189720,120
76,47,189840,120
80,47,189960,120
76,56,190080,120
81,48,190200,120
74,48,190320,120
81,48,190440,120
73,56,190560,120
81,47,190680,120
79,47,190800,120
82,46,190920,120
78,56,191040,120
83,47,191160,120
76,47,191280,120
85,47,191400,120
74,56,191520,120
85,48,191640,120
74,48,191760,120
85,48,191880,120
74,56,192000,120
83,47,192120,120
73,47,192240,120
83,46,192360,120
73,56,192480,120
83,47,192600,120
73,47,192720,120
81,47,192840,120
71,56,192960,120
81,48,193080,120
71,48,193200,120
81,48,193320,120
71,56,193440,120
79,47,193560,120
69,47,193680,120
79,46,193800,120
69,56,193920,120
79,47,194040,120
69,47,194160,120
78,47,194280,120
67,56,194400,120
78,48,194520,120
67,48,194640,120
78,48,194760,120
67,56,194880,120
76,47,195000,120
66,47,195120,120
76,46,195240,120
66,56,195360,120
76,47,195480,120
66,47,195600,120
74,47,195720,120
64,56,195840,120
74,48,195960,120
64,48,196080,120
74,48,196200,120
64,56,196320,120
72,47,196440,120
62,47,196560,120
72,46,196680,120
62,56,196800,120
72,47,196920,120
62,47,197040,120
71,47,197160,120
64,53,197280,120
71,44,197400,120
69,45,197520,120
68,45,197640,120
69,46,197760,120
71,47,197880,120
72,49,198000,120
74,51,198120,120
76,51,198240,120
72,50,198360,120
71,49,198480,120
69,48,198600,120
59,55,198720,720
67,55,198720,720
66,47,199440,240
57,47,199440,240
74,48,200400,120
74,49,200640,120
74,51,200880,120
74,52,201120,120
74,54,201360,120
74,56,201600,720
66,52,202320,240
67,50,203280,120
71,51,203520,120
74,53,203760,120
79,54,204000,120
83,56,204240,120
86,57,204480,720
84,55,205200,240
83,52,206160,120
84,54,206280,120
86,55,206400,120
83,51,206520,120
79,55,206640,120
79,53,206880,120
81,55,207000,120
83,58,207120,120
79,52,207240,120
76,55,207360,120
76,51,207600,120
78,54,207720,120
79,56,207840,120
76,51,207960,120
73,55,208080,120
73,51,208320,120
74,53,208440,120
76,56,208560,120
73,52,208680,120
74,54,208800,240
76,56,209040,240
78,58,209280,240
79,61,209520,240
76,58,209760,120
72,54,210000,120
67,55,210240,720
71,55,210240,720
66,50,210960,240
69,50,210960,240
74,48,211920,120
74,49,212160,120
76,51,212400,60
78,51,212460,60
76,51,212520,120
74,52,212640,120
74,54,212880,120
74,56,213120,720
66,52,213840,240
67,50,214680,120
71,52,214800,120
67,52,214920,120
74,53,215040,120
71,54,215160,120
79,55,215280,120
74,56,215400,120
83,57,215520,120
79,58,215640,120
86,59,215760,120
83,60,215880,120
86,66,216000,600
85,57,216600,120
84,64,216720,240
83,52,217680,120
84,54,217800,120
86,55,217920,120
83,51,218040,120
79,55,218160,120
79,53,218400,120
81,55,218520,120
83,58,218640,120
79,52,218760,120
76,55,218880,120
76,51,219120,120
78,54,219240,120
79,56,219360,120
76,51,219480,120
73,55,219600,120
73,51,219840,120
74,53,219960,120
76,56,220080,120
73,52,220200,120
74,54,220320,240
73,56,220560,240
72,58,220800,240
71,61,221040,240
72,58,221280,240
69,55,221520,40
71,50,221560,40
69,51,221600,40
67,54,221640,60
69,49,221700,60
67,55,221760,120
59,66,222240,120
62,66,222360,120
67,73,222480,120
62,70,222960,120
67,70,223080,120
71,75,223200,120
67,69,223680,120
71,69,223800,120
74,81,223920,120
71,70,224400,120
74,70,224520,120
79,82,224640,120
83,45,226080,600
84,42,226680,120
76,47,226800,480
75,47,227280,240
76,55,227520,180
88,54,227760,120
86,52,228000,120
84,50,228240,120
83,49,228480,120
82,47,228720,120
83,45,228960,300
84,35,229260,60
83,35,229320,60
82,35,229380,60
83,45,229440,120
84,42,229560,120
76,47,229680,480
75,47,230188,240
76,55,230400,180
88,54,230640,120
86,52,230880,120
84,50,231120,120
83,49,231360,120
82,47,231600,120
81,45,231840,300
83,35,232140,60
81,35,232200,60
80,35,232260,60
81,45,232320,120
83,42,232440,120
74,47,232560,480
73,47,233068,240
74,55,233280,180
86,54,233520,120
85,52,233760,120
83,50,234000,120
81,49,234240,120
80,47,234480,120
81,45,234720,300
83,35,235020,60
81,35,235080,60
80,35,235140,60
81,45,235200,120
83,42,235320,120
74,47,235440,480
73,47,235948,240
74,55,236160,180
78,54,236400,120
76,52,236640,120
74,50,236880,120
73,49,237120,120
71,47,237360,120
76,45,237600,300
78,35,237900,60
76,35,237960,60
75,35,238020,60
76,45,238080,120
78,42,238200,120
69,47,238320,480
68,47,238800,240
69,55,239040,180
81,54,239280,120
80,52,239520,120
78,50,239760,120
76,49,240000,120
75,47,240240,120
76,45,240480,300
78,35,240780,60
76,35,240840,60
75,35,240900,60
76,45,240960,120
78,42,241080,120
69,47,241200,480
68,47,241680,240
69,36,241920,120
64,28,242040,120
61,28,242160,120
64,28,242280,120
69,28,242400,120
64,28,242520,120
69,36,242640,120
64,27,242760,120
61,27,242880,120
64,27,243000,120
69,28,243120,120
64,28,243240,120
71,38,243360,120
64,30,243480,120
62,31,243600,120
64,32,243720,120
71,33,243840,120
64,35,243960,120
71,46,244080,120
64,35,244200,120
62,36,244320,120
64,36,244440,120
71,38,244560,120
64,39,244680,120
73,52,244800,120
67,41,244920,120
64,42,245040,120
67,44,245160,120
73,45,245280,120
64,45,245400,120
74,60,245520,120
69,49,245640,120
66,50,245760,120
69,51,245880,120
74,53,246000,120
69,54,246120,120
76,69,246240,120
73,58,246360,120
69,59,246480,120
73,61,246600,120
76,63,246720,120
73,65,246840,120
78,77,246960,120
74,66,247080,120
69,68,247200,120
74,70,247320,120
78,72,247440,120
74,73,247560,120
79,75,247680,1440
76,63,247680,1440
69,63,247680,1440
73,63,247680,1440
79,74,249120,360
76,69,249480,120
85,76,249600,360
79,69,249960,120
88,77,250080,720
86,64,250800,240
85,66,251040,252
83,63,251280,252
81,63,251520,252
80,60,251760,252
81,57,252000,132
82,53,252120,132
83,53,252240,132
81,54,252360,132
79,54,252480,132
78,57,252600,132
81,60,252720,132
79,57,252840,132
83,60,252960,132
81,57,253080,132
79,58,253200,132
78,58,253320,132
76,62,253440,132
78,58,253560,132
79,58,253680,132
78,59,253800,132
81,64,253920,132
79,61,254040,132
78,63,254160,132
76,60,254280,132
74,63,254400,132
73,62,254520,132
71,62,254640,132
69,63,254760,132
67,62,254880,60
69,53,254940,60
67,62,255000,60
69,53,255060,60
67,63,255120,60
69,53,255180,60
67,61,255240,60
69,53,255300,60
67,62,255360,60
69,53,255420,60
67,65,255480,60
69,57,255540,60
67,68,255600,60
69,60,255660,60
67,66,255720,60
69,57,255780,60
67,66,255840,80
69,60,255920,80
67,68,256000,80
66,59,256080,120
67,63,256200,120
68,64,256320,60
69,64,256380,60
70,63,256440,60
71,62,256500,60
72,61,256560,60
73,60,256620,60
74,59,256680,60
75,58,256740,60
76,57,256800,60
77,56,256860,60
78,55,256920,60
79,54,256980,60
80,53,257040,80
81,53,257120,80
82,52,257200,80
83,50,257280,240
81,56,257760,60
79,51,257820,180
78,53,258240,60
76,47,258300,180
78,53,258720,120
79,43,258840,30
78,43,258870,30
76,43,258900,30
78,43,258930,30
81,55,258960,180
79,50,259140,57
79,54,259200,120
81,41,259320,30
79,41,259350,30
78,41,259380,30
79,41,259410,30
80,53,259440,240
83,50,259680,240
81,41,259920,120
69,40,260040,120
81,45,260160,480
78,42,260640,180
76,42,260820,60
74,46,260880,90
73,42,261120,90
74,42,261360,90
76,41,261540,60
74,45,261600,90
73,41,261840,90
74,40,262080,90
74,39,262320,480
78,46,262320,480
73,33,262800,120
76,39,262800,120
67,40,262920,120
79,45,263040,480
76,42,263520,180
74,42,263700,60
73,46,263760,90
71,42,264000,90
73,42,264240,90
69,45,264480,90
76,41,264720,90
81,40,264960,90
79,46,265200,480
76,39,265200,480
74,33,265680,177
78,39,265680,180
74,48,265860,60
78,52,265920,480
79,48,266400,240
83,59,266640,120
81,57,266760,120
79,55,266880,120
78,53,267000,120
76,51,267120,120
74,47,267240,57
74,46,267300,60
78,58,267360,480
79,49,267840,240
83,59,268080,120
81,57,268200,120
79,55,268320,120
78,53,268440,120
76,51,268560,120
74,51,268680,50
74,46,268740,60
83,58,268800,480
85,49,269280,240
86,59,269520,120
85,57,269640,120
83,55,269760,120
81,53,269880,120
79,51,270000,120
78,51,270120,120
83,59,270240,120
81,58,270360,120
79,56,270480,120
78,55,270600,120
76,58,270720,120
74,62,270840,120
81,59,270960,240
76,50,270960,240
73,50,270960,240
57,40,271560,120
69,45,271680,480
66,42,272160,180
64,42,272340,60
62,46,272400,90
61,42,272640,90
62,42,272880,90
64,41,273060,60
62,45,273120,90
61,41,273360,90
62,40,273600,90
62,39,273840,480
66,46,273840,480
61,33,274320,120
64,39,274320,120
55,40,274440,120
67,45,274560,480
64,42,275040,180
62,42,275220,60
61,46,275280,90
59,42,275520,90
61,42,275760,90
57,45,276000,90
64,41,276240,90
69,40,276480,90
67,46,276720,480
64,39,276720,480
62,33,277200,180
66,39,277200,180
74,48,277380,60
78,52,277440,480
79,48,277920,240
83,59,278160,120
81,57,278280,120
79,55,278400,120
78,53,278520,120
76,51,278640,120
74,47,278760,60
79,46,278820,60
83,58,278880,480
85,49,279360,240
88,59,279600,120
86,57,279720,120
85,55,279840,120
83,53,279960,120
81,51,280080,120
79,51,280200,120
85,59,280320,120
83,58,280440,120
81,56,280560,120
79,55,280680,120
78,54,280800,120
76,52,280920,120
83,63,281040,120
81,61,281160,120
79,59,281280,120
78,57,281400,120
76,56,281520,120
74,54,281640,120
81,59,281760,120
79,61,281880,120
78,60,282000,120
76,59,282120,120
74,58,282240,120
73,61,282360,120
74,63,282480,120
62,61,283440,90
62,62,283680,90
64,40,283800,40
62,40,283840,40
61,40,283881,40
62,69,283920,480
62,60,284400,90
64,40,284520,40
62,40,284560,40
61,40,284601,40
62,64,284640,480
62,59,285120,90
60,66,285360,480
69,54,285960,120
81,63,286080,960
84,45,287040,90
83,43,287280,90
81,41,287520,90
79,39,287760,90
78,37,288000,90
81,35,288240,720
79,35,288960,240
59,61,289200,90
59,62,289440,90
59,40,289560,40
57,40,289600,40
56,40,289640,40
57,69,289680,480
57,60,290160,90
57,40,290280,40
55,40,290320,40
54,40,290360,40
55,64,290400,480
55,59,290880,90
54,66,291120,480
74,54,291720,120
84,63,291840,840
83,53,292680,120
81,53,292800,120
79,52,292920,120
78,51,293040,120
76,51,293160,120
74,54,293280,120
76,49,293400,120
74,50,293520,120
72,49,293640,120
71,48,293760,120
69,47,293880,120
71,47,294000,120
74,47,294120,120
76,48,294240,120
78,50,294360,120
79,52,294480,120
81,53,294600,120
83,55,294720,120
84,57,294840,120
86,61,294960,120
83,57,295080,120
81,57,295200,120
79,53,295320,120
84,62,295440,120
83,60,295560,120
81,58,295680,120
79,57,295800,120
78,55,295920,120
76,53,296040,120
74,59,296160,120
76,58,296280,120
74,56,296400,120
72,55,296520,120
71,53,296640,120
69,52,296760,120
71,48,296880,120
74,50,297000,120
76,51,297120,120
78,52,297240,120
79,54,297360,120
81,55,297480,120
83,56,297600,120
84,58,297720,120
86,60,297840,120
83,52,297960,120
81,51,298080,120
79,47,298200,120
81,53,298320,120
79,51,298440,120
78,51,298560,120
76,50,298680,120
75,49,298800,120
72,48,298920,120
71,52,299040,120
72,52,299160,120
71,51,299280,120
69,51,299400,120
67,50,299520,120
66,50,299640,120
67,56,299760,120
71,50,299880,120
73,52,300000,120
75,53,300120,120
76,55,300240,120
78,57,300360,120
79,62,300480,120
81,57,300600,120
83,56,300720,120
79,54,300840,120
78,53,300960,120
76,52,301080,120
79,63,301200,120
78,61,301320,120
76,59,301440,120
74,58,301560,120
73,56,301680,120
71,54,301800,120
69,60,301920,120
71,58,302040,120
69,56,302160,120
67,55,302280,120
66,54,302400,120
64,52,302520,120
66,56,302640,120
69,50,302760,120
71,52,302880,120
73,53,303000,120
74,55,303120,120
76,57,303240,120
78,62,303360,120
79,57,303480,120
81,56,303600,120
83,54,303720,120
85,53,303840,120
86,52,303960,120
83,60,304080,120
81,59,304200,120
79,57,304320,120
78,56,304440,120
76,55,304560,120
74,53,304680,120
79,52,304800,120
78,54,304920,120
76,57,305040,120
74,60,305160,120
73,64,305280,120
71,67,305400,120
69,70,305520,90
76,52,305760,90
73,52,305760,90
81,62,305760,90
73,52,306000,90
76,52,306000,90
81,62,306000,90
76,56,306240,90
81,67,306240,90
73,56,306240,90
69,42,306960,720
78,50,306960,720
67,39,307680,720
76,47,307680,240
78,44,307920,240
76,44,308160,240
66,42,308400,1920
74,50,308400,1920
78,50,310320,240
79,50,310560,480
74,42,310560,720
83,54,311040,240
73,45,311280,240
81,53,311280,480
74,50,311520,240
79,50,311760,240
76,42,311760,240
78,54,312000,480
74,45,312000,480
76,50,312720,960
78,44,313680,240
76,44,313920,240
76,50,314160,960
78,45,315120,240
79,46,315360,240
81,52,315600,240
86,49,315840,180
85,48,316080,180
83,49,316320,180
81,48,316560,180
79,46,316800,180
78,45,317040,480
79,42,317520,120
78,43,317640,120
76,37,317760,240
69,42,318480,720
78,50,318480,720
76,47,319200,240
67,39,319200,720
78,44,319440,240
76,44,319680,240
66,42,319920,720
74,50,319920,1920
66,42,320640,720
72,42,320640,720
71,42,321360,480
67,42,321360,480
75,50,321840,240
69,50,321840,240
71,50,321840,240
76,50,322080,480
67,42,322080,480
71,42,322080,480
78,54,322560,240
83,54,322560,240
76,45,322800,480
81,53,322800,480
73,42,323280,240
79,50,323280,240
78,54,323520,480
74,45,323520,480
76,50,324240,240
88,55,324480,120
88,55,324720,120
88,59,324960,120
88,53,325200,120
88,53,325440,120
88,60,325680,240
81,53,325920,120
81,53,326160,120
81,62,326400,120
86,56,326640,120
86,56,326880,120
86,57,327120,120
83,53,327360,120
79,45,327360,120
78,45,327600,120
81,54,327600,120
76,47,327840,120
79,56,327840,120
74,49,328080,120
78,58,328080,120
73,50,328320,120
76,59,328320,120
74,65,328560,720
78,65,329280,720
79,67,330000,120
78,65,330120,120
76,64,330240,120
74,63,330360,120
73,61,330480,120
76,65,330720,120
74,64,330840,120
73,62,330960,120
71,61,331080,120
69,60,331200,120
67,58,331320,120
66,61,331440,120
69,49,331680,120
74,52,331920,120
78,55,332160,120
81,58,332400,120
79,67,332880,120
78,65,333000,120
76,64,333120,120
74,63,333240,120
73,61,333360,120
76,65,333600,120
74,64,333720,120
73,62,333840,120
71,61,333960,120
69,60,334080,120
67,58,334200,120
66,61,334320,120
69,49,334560,120
74,52,334800,120
78,55,335040,120
81,58,335280,120
82,45,336000,240
83,45,336240,240
86,45,336720,240
83,45,336960,240
80,45,337440,240
81,45,337680,240
83,45,338160,240
79,45,338400,240
77,45,338880,240
78,45,339120,240
79,45,339600,240
76,45,339840,240
74,65,340080,720
78,65,340800,720
79,67,341520,120
78,65,341640,120
76,64,341760,120
74,63,341880,120
73,61,342000,120
76,65,342240,120
74,64,342360,120
73,62,342480,120
71,61,342600,120
69,60,342720,120
67,58,342840,120
66,61,342960,120
69,49,343200,120
74,52,343440,120
78,55,343680,120
81,58,343920,120
79,67,344400,120
78,65,344520,120
76,64,344640,120
74,63,344760,120
73,61,344880,120
76,65,345120,120
74,64,345240,120
73,62,345360,120
71,61,345480,120
69,60,345600,120
67,58,345720,120
66,61,345840,120
69,49,346080,120
74,52,346320,120
78,55,346560,120
81,58,346800,120
82,45,347520,240
83,43,347760,240
86,45,348240,240
83,41,348480,240
80,45,348960,240
81,44,349200,240
83,45,349680,240
79,43,349920,240
77,45,350400,240
78,43,350640,240
79,45,351120,240
76,43,351360,240
70,58,351840,120
82,69,351840,120
83,67,352080,120
71,56,352080,120
74,58,352560,120
86,69,352560,120
71,56,352800,120
83,67,352800,120
68,58,353280,120
80,69,353280,120
69,56,353520,120
81,67,353520,120
71,58,354000,120
83,69,354000,120
79,67,354240,120
67,56,354240,120
77,69,354720,120
65,58,354720,120
78,67,354960,120
66,56,354960,120
67,58,355440,120
79,69,355440,120
64,56,355680,120
76,67,355680,120
74,72,355920,240
66,72,355920,240
74,73,356640,720
66,62,356640,720
67,63,357360,480
76,75,357360,480
71,60,357840,180
79,71,357840,180
64,65,358020,60
74,76,358080,480
73,69,358560,40
74,62,358600,40
73,63,358640,40
71,70,358680,60
73,64,358740,60
74,72,358800,240
74,73,359520,120
66,62,359520,120
74,73,359760,120
66,62,359760,120
66,62,360000,120
74,73,360000,120
76,75,360240,480
67,63,360240,480
79,71,360720,180
71,60,360720,180
64,65,360900,60
74,76,360960,480
73,69,361440,40
74,62,361480,40
73,63,361520,40
71,70,361560,60
73,64,361620,60
74,72,361680,240
66,45,361920,240
69,39,362160,240
71,45,362400,240
73,41,362640,240
74,42,362880,240
76,47,363120,240
69,40,363360,240
71,37,363600,240
73,46,363840,240
74,44,364080,240
76,47,364320,240
78,49,364560,240
66,37,364800,240
69,44,364800,240
73,41,365040,240
69,34,365040,240
74,52,365280,240
71,44,365280,240
76,50,365520,240
73,42,365520,240
78,54,365760,240
74,45,365760,240
76,48,366000,240
79,57,366000,240
69,45,366240,240
73,52,366240,240
74,50,366480,240
71,42,366480,240
76,62,366720,240
73,53,366720,240
78,59,366960,240
74,50,366960,240
79,65,367200,240
76,54,367200,240
78,58,367440,240
81,69,367440,240
69,45,368040,120
81,50,368160,480
78,47,368640,180
76,47,368820,60
74,52,368880,90
73,47,369120,90
74,47,369360,90
76,46,369540,60
74,50,369600,90
73,46,369840,90
74,45,370080,90
78,52,370320,480
74,44,370320,480
73,37,370800,120
76,44,370800,120
67,45,370920,120
79,50,371040,480
76,47,371520,180
74,47,371700,60
73,52,371760,90
71,47,372000,90
73,47,372240,90
69,50,372480,90
76,46,372720,90
81,45,372960,90
79,52,373200,480
76,44,373200,480
74,37,373680,180
78,44,373680,180
74,48,373860,60
78,52,373920,480
79,48,374400,240
83,59,374640,120
81,57,374760,120
79,55,374880,120
78,53,375000,120
76,51,375120,120
74,47,375240,60
79,46,375300,60
83,58,375360,480
85,49,375840,240
88,59,376080,120
86,57,376200,120
85,55,376320,120
83,53,376440,120
81,51,376560,120
79,51,376680,120
85,59,376800,120
83,58,376920,120
81,56,377040,120
79,55,377160,120
78,58,377280,120
76,62,377400,120
83,63,377520,120
81,61,377640,120
79,59,377760,120
78,57,377880,120
76,56,378000,120
74,54,378120,120
81,59,378240,120
79,61,378360,120
78,60,378480,120
76,59,378600,120
74,58,378720,120
73,61,378840,120
74,63,378960,120
62,66,379440,120
66,66,379560,120
69,73,379680,120
66,70,380160,120
69,70,380280,120
74,75,380400,120
69,69,380880,120
74,69,381000,120
78,81,381120,120
74,70,381600,120
78,70,381720,120
81,82,381840,120
81,45,383280,600
83,42,383880,120
74,47,384000,480
73,47,384508,240
74,55,384720,180
86,54,384960,120
85,52,385200,120
83,50,385440,120
81,49,385680,120
80,47,385920,120
81,45,386160,300
83,35,386460,60
81,35,386520,60
80,35,386580,60
81,45,386640,120
83,42,386760,120
74,47,386880,480
73,47,387388,240
74,55,387600,180
86,54,387840,120
85,52,388080,120
83,50,388320,120
81,49,388560,120
80,47,388800,120
81,45,389040,300
83,35,389340,60
81,35,389400,60
80,35,389460,60
81,45,389520,120
83,42,389640,120
74,47,389760,480
73,47,390268,240
74,52,390480,240
59,29,391200,720
62,35,391200,720
54,29,391200,720
59,32,391920,720
64,38,391920,720
62,32,391920,720
69,39,392640,720
64,33,392640,720
61,33,392640,720
66,35,393360,240
57,29,393360,240
62,29,393360,240
83,52,394080,120
78,44,394080,120
86,47,394200,120
83,52,394320,120
78,44,394320,120
86,47,394440,120
78,45,394560,120
83,53,394560,120
86,49,394680,120
83,59,394800,120
76,50,394800,120
86,53,394920,120
76,51,395040,120
83,62,395040,120
86,57,395160,120
83,64,395280,120
76,53,395280,120
86,59,395400,120
79,68,395520,120
76,57,395520,120
85,62,395640,120
76,60,395760,120
79,71,395760,120
85,64,395880,120
76,62,396000,120
79,73,396000,120
85,68,396120,120
86,88,396240,120
81,73,396240,120
78,73,396240,120
74,73,396240,120
78,72,396960,120
74,72,396960,120
69,72,396960,120
81,85,396960,120
78,85,397680,120
74,72,397680,120
69,72,397680,120
62,27,1440,720
66,33,1440,720
59,27,2160,720
68,33,2160,720
57,27,2880,720
69,33,2880,720
64,33,4320,720
57,27,4320,720
61,27,5040,720
64,33,5040,720
62,27,5760,720
69,33,5760,720
50,51,6480,240
62,45,6720,120
64,48,6960,120
66,52,7200,240
50,50,7920,240
62,44,8160,120
64,48,8400,120
66,53,8640,240
55,50,9360,240
67,44,9600,120
64,48,9840,120
54,45,10080,240
66,53,10080,240
67,53,10800,240
55,45,10800,240
69,53,11520,240
57,45,11520,240
66,33,12960,720
62,27,12960,720
59,27,13680,720
68,33,13680,720
69,33,14400,720
57,27,14400,720
64,33,15840,720
57,27,15840,720
64,33,16560,720
61,27,16560,720
62,27,17280,720
69,33,17280,720
50,51,18000,240
62,45,18240,120
64,48,18480,120
66,52,18720,240
43,50,19440,240
55,44,19680,120
59,48,19920,120
59,53,20160,240
64,53,20880,120
59,45,20880,120
55,45,20890,120
62,45,21600,120
57,45,21600,120
66,53,21610,120
64,45,22320,120
57,45,22320,120
67,53,22330,120
66,53,23040,120
62,45,23040,120
38,45,23520,120
42,45,23640,120
45,52,23760,120
42,48,24240,120
45,48,24360,120
50,57,24480,120
45,51,24960,120
50,51,25080,120
54,57,25200,120
50,48,25680,120
54,48,25800,120
57,57,25920,120
57,29,27360,1680
66,35,27360,720
62,29,27360,720
64,27,28080,720
67,32,28080,720
62,29,28800,240
66,35,28800,240
57,29,30240,1680
62,29,30240,720
66,35,30240,720
67,32,30960,720
64,27,30960,720
62,29,31680,240
66,35,31680,240
57,29,33120,1440
62,29,33120,720
66,35,33120,720
67,32,33840,720
64,27,33840,720
62,24,34560,240
66,32,34560,240
47,35,35280,720
43,37,36000,720
45,39,36720,720
38,35,37440,240
38,44,38400,90
50,44,38400,90
38,44,38640,90
50,44,38640,90
50,52,38880,480
38,52,38880,480
50,44,39360,90
38,44,39360,90
50,44,39600,480
38,44,39600,480
38,44,40080,90
50,44,40080,90
49,52,40320,480
37,52,40320,480
61,25,41760,90
69,30,41760,90
69,30,42000,90
61,25,42000,90
61,25,42240,90
69,30,42240,90
61,25,42480,90
69,30,42480,90
69,30,42720,90
61,25,42720,90
69,30,42960,90
61,25,42960,90
69,35,43200,960
59,29,43200,960
47,44,44160,90
35,44,44160,90
47,44,44400,90
35,44,44400,90
35,52,44640,480
47,52,44640,480
35,44,45120,90
47,44,45120,90
33,44,45360,480
45,44,45360,480
33,44,45840,90
45,44,45840,90
44,52,46080,240
32,52,46080,240
56,40,47520,720
59,30,47760,240
64,26,48000,240
56,40,48240,720
59,30,48480,240
64,27,48720,240
57,40,48960,720
61,33,49200,240
64,36,49440,240
57,40,49680,720
61,33,49920,240
64,33,50160,240
56,40,50400,720
59,34,50640,240
64,31,50880,240
56,40,51120,720
59,33,51360,240
64,28,51600,240
57,40,51840,720
61,34,52080,240
64,37,52320,240
57,40,52560,720
61,34,52800,240
64,34,53040,240
56,40,53280,720
59,33,53520,240
64,30,53760,240
56,40,54000,720
59,34,54240,240
64,32,54480,240
57,46,54720,480
49,42,55440,480
57,42,55440,480
57,46,56160,480
50,46,56160,480
62,45,56880,120
61,42,57000,120
59,43,57120,120
57,46,57240,120
56,48,57360,120
54,51,57480,120
52,54,57600,90
52,50,57840,90
52,50,58080,90
52,54,58320,90
57,41,60480,720
56,46,61200,240
57,44,61440,240
56,44,61680,240
54,51,61920,1200
50,36,63120,240
52,41,63360,240
54,37,63600,240
56,37,63840,240
57,42,64080,240
59,38,64320,240
61,38,64560,240
62,42,64800,720
66,35,64800,1440
69,35,64800,1440
63,42,65520,720
64,42,66240,720
68,35,66240,720
64,35,66960,720
62,42,66960,720
68,35,66960,720
64,29,67680,240
69,35,67680,240
61,29,67680,240
62,35,68400,480
57,31,68880,240
54,26,68880,240
57,36,69120,720
52,30,69120,960
56,32,69840,240
54,41,72000,720
52,46,72720,240
54,44,72960,240
52,44,73200,240
50,51,73440,480
49,36,73920,240
47,51,74160,480
45,36,74640,240
44,41,74880,480
40,37,75360,240
45,42,75600,240
47,38,75840,240
49,38,76080,240
57,35,76320,1440
50,42,76320,720
54,35,76320,1440
51,42,77040,720
56,35,77760,720
52,42,77760,720
50,42,77760,720
55,35,78480,720
49,42,78480,720
52,35,78480,720
50,35,79200,120
54,42,79200,120
52,47,79920,120
57,60,80640,120
64,44,80760,120
61,44,80880,120
64,44,81000,120
61,44,81120,120
64,44,81240,120
57,55,81360,120
64,48,81480,120
61,45,81600,120
64,43,81720,120
61,43,81840,120
64,43,81960,120
59,60,82080,120
64,44,82200,120
62,44,82320,120
64,44,82440,120
62,44,82560,120
64,44,82680,120
56,55,82800,120
64,42,82920,120
59,42,83040,120
64,42,83160,120
59,42,83280,120
64,42,83400,120
57,51,83520,120
64,39,83640,120
61,39,83760,120
64,39,83880,120
61,39,84000,120
64,39,84120,120
57,50,84240,120
64,40,84360,120
61,40,84480,120
64,40,84600,120
61,40,84720,120
64,40,84840,120
59,60,84960,120
64,44,85080,120
62,44,85200,120
64,44,85320,120
62,44,85440,120
64,44,85560,120
56,55,85680,120
64,42,85800,120
59,42,85920,120
64,42,86040,120
59,42,86160,120
64,42,86280,120
57,51,86400,120
64,39,86520,120
61,39,86640,120
64,39,86760,120
61,39,86880,120
64,39,87000,120
57,50,87120,120
64,40,87240,120
61,40,87360,120
64,40,87480,120
61,40,87600,120
64,40,87720,120
62,45,87840,120
62,34,88560,120
69,40,88560,120
69,40,89280,120
61,34,89280,120
69,40,90000,120
62,34,90000,120
69,40,90720,120
64,34,90720,120
68,40,91440,120
64,34,91440,120
57,60,92160,120
64,44,92280,120
61,44,92400,120
64,44,92520,120
61,44,92640,120
64,44,92760,120
57,55,92880,120
64,48,93000,120
61,45,93120,120
64,43,93240,120
61,43,93360,120
64,43,93480,120
59,60,93600,120
64,44,93720,120
62,44,93840,120
64,44,93960,120
62,44,94080,120
64,44,94200,120
56,55,94320,120
64,42,94440,120
59,42,94560,120
64,42,94680,120
59,42,94800,120
64,42,94920,120
57,51,95040,120
64,39,95160,120
61,39,95280,120
64,39,95400,120
61,39,95520,120
64,39,95640,120
57,50,95760,120
64,40,95880,120
61,40,96000,120
64,40,96120,120
61,40,96240,120
64,40,96360,120
59,60,96480,120
64,44,96600,120
62,44,96720,120
64,44,96840,120
62,44,96960,120
64,44,97080,120
56,55,97200,120
64,42,97320,120
59,42,97440,120
64,42,97560,120
59,42,97680,120
64,42,97800,120
57,51,97920,120
64,39,98040,120
61,39,98160,120
64,39,98280,120
61,39,98400,120
64,39,98520,120
57,50,98640,120
64,40,98760,120
61,40,98880,120
64,40,99000,120
61,40,99120,120
64,40,99240,120
62,45,99360,120
62,34,100080,120
69,40,100080,120
61,34,100800,120
69,40,100800,120
69,40,101520,120
62,34,101520,120
69,40,102240,120
64,34,102240,120
68,40,102960,120
64,34,102960,120
50,55,103680,120
57,63,103680,120
57,57,104400,120
50,48,104400,120
49,48,105120,120
57,57,105120,120
50,48,105840,120
57,57,105840,120
57,57,106560,120
52,48,106560,120
52,48,107280,120
56,57,107280,120
45,67,108000,120
57,44,108120,120
56,48,108240,120
57,44,108360,120
56,48,108480,120
57,44,108600,120
42,62,108720,120
54,43,108840,120
53,47,108960,120
54,43,109080,120
53,47,109200,120
54,43,109320,120
38,67,109440,120
50,46,109560,120
49,50,109680,120
50,46,109800,120
49,51,109920,120
50,46,110040,120
40,55,110160,120
52,46,110280,120
51,49,110400,120
52,46,110520,120
51,50,110640,120
52,46,110760,120
45,67,110880,120
57,44,111000,120
56,48,111120,120
57,44,111240,120
56,48,111360,120
57,44,111480,120
42,62,111600,120
54,43,111720,120
53,47,111840,120
54,43,111960,120
53,47,112080,120
54,43,112200,120
38,67,112320,120
50,46,112440,120
49,50,112560,120
50,46,112680,120
49,51,112800,120
50,46,112920,120
40,55,113040,120
52,46,113160,120
51,49,113280,120
52,46,113400,120
51,50,113520,120
52,46,113640,120
45,67,113760,120
62,38,114960,240
59,32,114960,240
52,32,114960,240
57,32,115200,120
61,38,115200,120
62,38,116400,240
52,32,116400,240
59,32,116400,240
57,32,116640,120
61,38,116640,120
49,39,116880,240
50,40,117120,240
52,42,117360,240
54,39,117600,240
56,43,117840,240
57,46,118080,240
49,41,118320,240
50,41,118560,240
52,45,118800,240
54,41,119040,240
56,45,119280,240
57,40,119520,120
57,35,120240,120
59,41,120240,120
57,41,120960,120
61,49,120960,120
62,53,121680,120
57,44,121680,120
57,50,122400,120
64,60,122400,120
66,33,125280,720
62,27,125280,720
59,27,126000,720
68,33,126000,720
69,33,126720,720
57,27,126720,720
64,33,128160,720
57,27,128160,720
64,33,128880,720
61,27,128880,720
69,33,129600,720
62,27,129600,720
50,51,130320,240
62,45,130560,120
64,48,130800,120
66,52,131040,240
50,50,131760,240
62,44,132000,120
64,48,132240,120
66,53,132480,240
55,50,133200,240
67,44,133440,120
64,48,133680,120
66,53,133920,240
54,45,133920,240
67,53,134640,240
55,45,134640,240
69,53,135360,240
57,45,135360,240
66,33,136800,720
62,27,136800,720
59,27,137520,720
68,33,137520,720
69,33,138240,720
57,27,138240,720
64,33,139680,720
57,27,139680,720
61,27,140400,720
64,33,140400,720
62,27,141120,720
69,33,141120,720
50,51,141840,240
62,45,142080,120
64,48,142320,120
66,52,142560,240
43,50,143280,240
55,44,143520,120
59,48,143760,120
59,53,144000,240
59,45,144720,120
64,53,144720,120
55,45,144730,120
57,45,145440,120
62,45,145440,120
66,53,145450,120
64,45,146160,120
57,45,146160,120
67,53,146170,120
66,53,146880,120
62,45,146880,120
42,45,147360,120
45,45,147480,120
50,52,147600,120
45,48,148080,120
50,48,148200,120
54,57,148320,120
50,51,148800,120
54,51,148920,120
57,57,149040,120
54,44,149520,120
57,44,149640,120
60,53,149760,120
59,35,151200,720
50,29,151200,1680
55,29,151200,720
57,27,151920,720
60,32,151920,720
55,29,152640,240
59,35,152640,240
59,35,154080,720
55,29,154080,720
50,29,154080,1680
57,27,154800,720
60,32,154800,720
55,29,155520,240
59,35,155520,240
50,29,156960,1440
59,35,156960,720
55,29,156960,720
60,32,157680,720
57,27,157680,720
55,24,158400,240
59,32,158400,240
52,35,159120,720
48,37,159840,720
50,39,160560,720
43,35,161280,240
36,43,162000,720
48,52,162000,720
33,46,162720,720
45,55,162720,720
47,58,163440,720
35,49,163440,720
40,52,164160,240
47,35,164880,720
43,37,165600,720
45,39,166320,720
38,35,167040,240
58,52,167760,720
46,43,167760,720
47,46,168480,720
59,55,168480,720
55,58,169200,720
43,49,169200,720
54,52,169920,120
42,48,169920,120
55,52,170160,120
54,52,170400,120
52,52,170640,120
50,52,170880,120
49,52,171120,120
47,52,171360,240
71,40,172080,120
74,30,172200,120
71,33,172320,120
74,30,172440,120
71,33,172560,120
74,30,172680,120
70,40,172800,120
73,30,172920,120
70,33,173040,120
73,30,173160,120
70,33,173280,120
73,31,173400,120
69,40,173520,120
73,29,173640,120
69,32,173760,120
73,30,173880,120
69,32,174000,120
73,30,174120,120
68,40,174240,120
71,31,174360,120
68,33,174480,120
71,29,174600,120
68,33,174720,120
71,31,174840,120
67,40,174960,120
71,31,175080,120
67,34,175200,120
71,31,175320,120
67,34,175440,120
71,30,175560,120
66,45,175680,120
71,32,175800,120
66,35,175920,120
71,32,176040,120
66,35,176160,120
71,33,176280,120
66,46,176400,120
69,33,176520,120
66,35,176640,120
69,33,176760,120
66,35,176880,120
69,32,177000,120
64,40,177120,120
67,33,177240,120
64,35,177360,120
67,33,177480,120
64,35,177600,120
67,33,177720,120
64,40,177840,120
67,32,177960,120
64,35,178080,120
67,32,178200,120
64,35,178320,120
67,33,178440,120
62,40,178560,120
66,33,178680,120
62,35,178800,120
66,33,178920,120
62,35,179040,120
66,33,179160,120
62,35,179280,120
66,29,179400,120
62,29,179520,120
66,27,179640,120
62,29,179760,120
66,28,179880,120
58,39,180000,120
66,30,180120,120
58,35,180240,120
66,29,180360,120
58,36,180480,120
66,33,180600,120
59,40,180720,120
66,33,180840,120
59,35,180960,120
66,33,181080,120
59,35,181200,120
66,33,181320,120
54,33,181440,240
54,44,182160,132
55,46,182280,132
54,47,182400,132
52,49,182520,132
50,51,182640,132
49,52,182760,132
47,58,182880,240
66,52,183120,120
66,48,183360,120
67,44,183600,60
69,44,183660,60
67,53,183720,120
66,49,183840,120
66,46,184080,120
67,48,184320,60
69,48,184380,60
67,52,184440,120
66,52,184560,120
66,48,184800,120
66,52,185040,480
67,46,185520,120
69,49,185640,120
71,52,185760,240
64,48,186000,120
64,48,186240,120
66,48,186480,60
67,48,186540,60
66,52,186600,120
64,52,186720,120
64,48,186960,120
64,48,187200,60
66,48,187260,60
64,56,187320,120
62,48,187440,120
62,52,187680,120
62,52,187920,480
64,47,188400,120
66,50,188520,120
67,53,188640,240
55,50,188880,120
55,50,189120,120
55,49,189360,480
57,47,189840,120
59,50,189960,120
61,53,190080,240
54,47,190320,120
54,47,190560,120
54,49,190800,480
56,47,191280,120
58,50,191400,120
59,58,191520,240
54,49,191760,240
55,49,192000,120
52,53,192240,120
49,49,192480,120
66,49,192720,120
63,53,192960,240
59,49,193200,240
64,49,193440,120
61,53,193680,120
57,49,193920,120
50,49,194160,120
47,54,194400,240
43,50,194640,120
49,50,194880,120
46,53,195120,120
42,49,195360,120
59,49,195600,120
56,53,195840,240
52,49,196080,120
57,49,196320,120
54,53,196560,240
50,50,196800,120
55,50,197040,120
36,59,197280,1440
48,59,197280,1440
50,47,198960,120
50,47,199200,120
50,53,199440,120
52,47,199560,120
50,53,199680,120
48,51,199800,120
47,50,199920,120
45,48,200040,120
43,47,200160,240
60,25,201840,120
57,25,201840,120
62,30,201840,120
57,25,202080,120
62,30,202080,120
60,25,202080,120
57,28,202320,120
60,28,202320,120
62,34,202320,120
57,25,202560,120
60,25,202560,120
62,30,202560,120
62,29,202800,120
57,25,202800,120
60,25,202800,120
59,34,203040,240
62,41,203040,240
62,33,204720,120
54,28,204720,120
57,28,204720,120
54,27,204960,120
57,27,204960,120
62,32,204960,120
57,30,205200,120
62,36,205200,120
54,30,205200,120
57,26,205440,120
62,31,205440,120
54,26,205440,120
62,31,205680,120
57,25,205680,120
54,25,205680,120
62,42,205920,120
55,35,205920,120
59,35,206640,120
62,42,206640,120
67,42,207360,120
60,35,207360,120
67,42,208080,120
64,35,208080,120
62,38,208800,240
61,40,209040,240
60,42,209280,240
59,44,209520,240
60,43,209760,240
64,39,210000,240
62,41,210480,120
62,41,210720,120
62,38,210960,120
64,40,211080,120
62,42,211200,120
60,44,211320,120
59,42,211440,120
57,40,211560,120
55,47,211680,240
60,25,213360,120
57,25,213360,120
62,30,213360,120
62,30,213600,120
60,25,213600,120
57,25,213600,120
60,28,213840,120
57,28,213840,120
62,34,213840,120
62,30,214080,120
60,25,214080,120
57,25,214080,120
62,29,214320,120
60,25,214320,120
57,25,214320,120
59,34,214560,240
62,41,214560,240
54,28,216240,120
57,28,216240,120
62,33,216240,120
54,27,216480,120
57,27,216480,120
62,32,216480,120
62,36,216720,120
57,30,216720,120
54,30,216720,120
62,31,216960,120
57,26,216960,120
54,26,216960,120
62,31,217200,120
54,25,217200,120
57,25,217200,120
55,35,217440,120
62,42,217440,120
59,35,218160,120
62,42,218160,120
60,35,218880,120
67,42,218880,120
64,35,219600,120
67,42,219600,120
50,38,220320,1440
62,38,220320,1440
55,46,221760,120
47,45,222240,120
50,45,222360,120
55,52,222480,120
50,48,222960,120
55,48,223080,120
59,57,223200,120
55,51,223680,120
59,51,223800,120
62,57,223920,120
59,48,224400,120
62,48,224520,120
67,57,224640,120
66,27,226800,720
69,32,226800,720
59,29,226800,720
67,35,227520,240
64,29,227520,240
69,32,229680,720
66,27,229680,720
59,29,229680,720
64,29,230400,240
67,35,230400,240
57,29,232560,720
64,27,232560,720
67,32,232560,720
66,35,233280,240
62,29,233280,240
64,27,235440,720
57,29,235440,720
67,32,235440,720
62,29,236160,240
66,35,236160,240
59,27,238320,720
52,29,238320,720
62,32,238320,720
57,29,239040,240
61,35,239040,240
62,32,241200,720
52,29,241200,720
59,27,241200,720
57,30,241920,228
45,25,241920,228
45,20,242160,228
57,24,242160,228
45,20,242400,228
57,24,242400,228
45,25,242640,228
57,30,242640,228
57,23,242880,228
45,19,242880,228
57,23,243120,228
45,19,243120,228
56,32,243360,228
45,27,243360,228
56,27,243600,228
45,23,243600,228
45,23,243840,228
56,28,243840,228
56,38,244080,228
45,32,244080,228
45,24,244320,228
56,30,244320,228
56,32,244560,228
45,27,244560,228
55,44,244800,228
45,37,244800,228
45,30,245040,228
55,36,245040,228
45,32,245280,228
55,38,245280,228
45,42,245520,228
54,50,245520,228
45,33,245760,228
54,40,245760,228
54,42,246000,228
45,35,246000,228
52,57,246240,228
45,48,246240,228
45,42,246480,228
52,50,246480,228
45,45,246720,228
52,54,246720,228
50,64,246960,228
45,53,246960,228
50,56,247200,228
45,47,247200,228
50,59,247440,228
45,49,247440,228
57,58,247680,1440
52,49,247680,1440
49,49,247680,1440
45,49,247680,1440
62,26,260880,720
66,31,260880,720
68,31,261600,720
59,26,261600,720
69,31,262320,720
57,26,262320,720
64,31,263760,720
57,26,263760,720
61,26,264480,720
64,31,264480,720
62,26,265200,720
69,31,265200,720
50,51,265920,240
62,45,266160,120
64,48,266400,120
66,52,266640,240
50,50,267360,240
62,44,267600,120
64,48,267840,120
66,53,268080,240
55,50,268800,240
67,44,269040,120
64,48,269280,120
54,45,269520,240
66,53,269520,240
67,53,270240,240
55,45,270240,240
57,45,270960,240
69,53,270960,240
50,26,272400,720
54,31,272400,720
56,31,273120,720
47,26,273120,720
45,26,273840,720
57,31,273840,720
52,31,275280,720
45,26,275280,720
52,31,276000,720
49,26,276000,720
57,31,276720,720
50,26,276720,720
50,51,277440,240
62,45,277680,120
64,48,277920,120
66,52,278160,240
43,50,278880,240
55,44,279120,120
57,48,279360,120
59,53,279600,240
64,53,280320,120
59,45,280320,120
55,45,280330,120
66,53,281040,120
62,45,281040,120
57,45,281040,120
67,53,281760,120
64,45,281760,120
57,45,281760,120
66,53,282480,120
62,45,282480,120
38,44,283440,90
50,44,283440,90
50,44,283680,90
38,44,283680,90
50,52,283920,480
38,52,283920,480
38,44,284400,90
50,44,284400,90
38,44,284640,480
50,44,284640,480
50,44,285120,90
38,44,285120,90
36,52,285360,480
48,52,285360,480
74,30,286800,90
72,25,286800,90
74,30,287040,90
72,25,287040,90
72,25,287280,90
74,30,287280,90
72,25,287520,90
74,30,287520,90
72,25,287760,90
74,30,287760,90
74,30,288000,90
72,25,288000,90
74,35,288240,960
71,29,288240,960
35,44,289200,90
47,44,289200,90
35,44,289440,90
47,44,289440,90
33,52,289680,480
45,52,289680,480
45,44,290160,90
33,44,290160,90
31,44,290400,480
43,44,290400,480
31,44,290880,90
43,44,290880,90
42,52,291120,480
30,52,291120,480
54,40,292560,720
57,30,292800,240
62,26,293040,240
54,40,293280,720
57,30,293520,240
62,27,293760,240
55,40,294000,720
59,33,294240,240
62,36,294480,240
55,40,294720,720
59,33,294960,240
62,33,295200,240
54,40,295440,720
57,34,295680,240
62,31,295920,240
54,40,296160,720
57,33,296400,240
62,28,296640,240
55,40,296880,720
59,34,297120,240
62,37,297360,240
55,40,297600,720
59,34,297840,240
62,34,298080,240
51,40,298320,720
54,33,298560,240
59,30,298800,240
51,40,299040,720
54,34,299280,240
59,32,299520,240
52,40,299760,720
55,33,300000,240
59,30,300240,240
52,40,300480,720
55,34,300720,240
59,32,300960,240
49,40,301200,720
52,33,301440,240
57,30,301680,240
49,40,301920,720
52,34,302160,240
57,32,302400,240
50,40,302640,720
54,33,302880,240
57,30,303120,240
50,40,303360,720
54,34,303600,240
57,32,303840,240
55,46,304080,480
67,45,304800,120
66,42,304920,120
64,43,305040,120
62,46,305160,120
61,48,305280,120
59,51,305400,120
57,54,305520,90
45,42,305760,90
57,50,305760,90
45,42,306000,90
57,50,306000,90
45,45,306240,90
57,54,306240,90
62,41,308400,720
61,46,309120,240
62,44,309360,240
61,44,309600,240
59,51,309840,1200
55,36,311040,240
57,41,311280,240
59,37,311520,240
61,37,311760,240
62,42,312000,240
64,38,312240,240
66,38,312480,240
67,42,312720,720
71,35,312720,1440
74,35,312720,1440
68,42,313440,720
73,35,314160,720
69,42,314160,720
69,35,314880,720
73,35,314880,720
67,42,314880,720
74,35,315600,240
69,29,315600,240
66,29,315600,240
67,35,316320,480
62,31,316800,240
59,26,316800,240
62,36,317040,720
57,30,317040,960
61,32,317760,240
59,41,319920,720
57,46,320640,240
59,44,320880,240
57,44,321120,240
55,51,321360,480
54,36,321840,240
52,51,322080,480
50,36,322560,240
49,41,322800,480
45,37,323280,240
50,42,323520,240
52,38,323760,240
54,38,324000,240
59,35,324240,1440
55,42,324240,720
62,35,324240,1440
56,42,324960,720
61,35,325680,720
55,42,325680,720
57,42,325680,720
60,35,326400,720
57,35,326400,720
54,42,326400,720
59,42,327120,120
55,35,327120,120
57,47,327840,120
50,60,328560,120
57,44,328680,120
54,44,328800,120
57,44,328920,120
54,44,329040,120
57,44,329160,120
50,55,329280,120
57,48,329400,120
54,45,329520,120
57,43,329640,120
54,43,329760,120
57,43,329880,120
52,60,330000,120
57,44,330120,120
55,44,330240,120
57,44,330360,120
55,44,330480,120
57,44,330600,120
49,55,330720,120
57,42,330840,120
52,42,330960,120
57,42,331080,120
52,42,331200,120
57,42,331320,120
50,51,331440,120
57,39,331560,120
54,39,331680,120
57,39,331800,120
54,39,331920,120
57,39,332040,120
50,50,332160,120
57,40,332280,120
54,40,332400,120
57,40,332520,120
54,40,332640,120
57,40,332760,120
52,60,332880,120
57,44,333000,120
55,44,333120,120
57,44,333240,120
55,44,333360,120
57,44,333480,120
49,55,333600,120
57,42,333720,120
52,42,333840,120
57,42,333960,120
52,42,334080,120
57,42,334200,120
50,51,334320,120
57,39,334440,120
54,39,334560,120
57,39,334680,120
54,39,334800,120
57,39,334920,120
50,50,335040,120
57,40,335160,120
54,40,335280,120
57,40,335400,120
54,40,335520,120
57,40,335640,120
55,45,335760,120
67,34,336480,120
74,40,336480,120
66,34,337200,120
74,40,337200,120
74,40,337920,120
67,34,337920,120
69,34,338640,120
74,40,338640,120
69,34,339360,120
73,40,339360,120
50,60,340080,120
57,44,340200,120
54,44,340320,120
57,44,340440,120
54,44,340560,120
57,44,340680,120
50,55,340800,120
57,48,340920,120
54,45,341040,120
57,43,341160,120
54,43,341280,120
57,43,341400,120
52,60,341520,120
57,44,341640,120
55,44,341760,120
57,44,341880,120
55,44,342000,120
57,44,342120,120
49,55,342240,120
57,42,342360,120
52,42,342480,120
57,42,342600,120
52,42,342720,120
57,42,342840,120
50,51,342960,120
57,39,343080,120
54,39,343200,120
57,39,343320,120
54,39,343440,120
57,39,343560,120
50,50,343680,120
57,40,343800,120
54,40,343920,120
57,40,344040,120
54,40,344160,120
57,40,344280,120
52,60,344400,120
57,44,344520,120
55,44,344640,120
57,44,344760,120
55,44,344880,120
57,44,345000,120
49,55,345120,120
57,42,345240,120
52,42,345360,120
57,42,345480,120
52,42,345600,120
57,42,345720,120
50,51,345840,120
57,39,345960,120
54,39,346080,120
57,39,346200,120
54,39,346320,120
57,39,346440,120
50,50,346560,120
57,40,346680,120
54,40,346800,120
57,40,346920,120
54,40,347040,120
57,40,347160,120
55,45,347280,120
74,40,348000,120
67,34,348000,120
74,40,348720,120
66,34,348720,120
74,40,349440,120
67,34,349440,120
74,40,350160,120
69,34,350160,120
73,40,350880,120
69,34,350880,120
55,55,351600,120
62,63,351600,120
62,57,352320,120
55,48,352320,120
62,57,353040,120
54,48,353040,120
55,48,353760,120
62,57,353760,120
62,57,354480,120
57,48,354480,120
57,48,355200,120
61,57,355200,120
50,67,355920,120
62,44,356040,120
61,48,356160,120
62,44,356280,120
61,48,356400,120
62,44,356520,120
47,62,356640,120
59,43,356760,120
58,47,356880,120
59,43,357000,120
58,47,357120,120
59,43,357240,120
43,67,357360,120
55,46,357480,120
54,50,357600,120
55,46,357720,120
54,51,357840,120
55,46,357960,120
45,55,358080,120
57,46,358200,120
56,49,358320,120
57,46,358440,120
56,50,358560,120
57,46,358680,120
50,67,358800,120
62,44,358920,120
61,48,359040,120
62,44,359160,120
61,48,359280,120
62,44,359400,120
47,62,359520,120
59,43,359640,120
58,47,359760,120
59,43,359880,120
58,47,360000,120
59,43,360120,120
43,67,360240,120
55,46,360360,120
54,50,360480,120
55,46,360600,120
54,51,360720,120
55,46,360840,120
45,55,360960,120
57,46,361080,120
56,49,361200,120
57,46,361320,120
56,50,361440,120
57,46,361560,120
61,38,363120,240
57,32,363120,240
62,41,364560,240
50,34,364560,240
57,41,366000,240
64,48,366000,240
61,41,366000,240
66,58,367440,240
62,48,367440,240
62,29,368880,720
66,35,368880,720
68,35,369600,720
59,29,369600,720
69,35,370320,720
57,29,370320,720
64,35,371760,720
57,29,371760,720
61,29,372480,720
64,35,372480,720
62,29,373200,720
69,35,373200,720
50,51,373920,240
62,45,374160,120
64,48,374400,120
66,52,374640,240
55,50,375360,240
67,44,375600,120
69,48,375840,120
71,53,376080,240
59,45,376800,240
64,53,376800,240
55,45,376800,240
62,45,377520,120
57,45,377520,120
66,53,377530,120
64,45,378240,120
57,45,378240,120
67,53,378250,120
66,53,378960,120
62,45,378960,120
38,45,379440,120
42,45,379560,120
45,52,379680,120
42,48,380160,120
45,48,380280,120
50,57,380400,120
45,51,380880,120
50,51,381000,120
54,57,381120,120
50,48,381600,120
54,48,381720,120
57,57,381840,120
57,29,383280,1680
66,35,383280,720
62,29,383280,720
64,27,384000,720
67,32,384000,720
62,29,384720,240
66,35,384720,240
57,29,386160,1680
62,29,386160,720
66,35,386160,720
67,32,386880,720
64,27,386880,720
62,29,387600,240
66,35,387600,240
57,29,389040,1440
62,29,389040,720
66,35,389040,720
67,32,389760,720
64,27,389760,720
62,24,390480,240
66,32,390480,240
47,35,391200,720
43,37,391920,720
45,39,392640,720
38,35,393360,240
47,50,394080,120
59,60,394080,120
47,45,394320,120
59,53,394320,120
47,46,394560,120
59,55,394560,120
43,59,394800,120
55,71,394800,120
43,52,395040,120
55,63,395040,120
43,55,395280,120
55,66,395280,120
45,67,395520,120
57,80,395520,120
45,61,395760,120
57,72,395760,120
45,62,396000,120
57,74,396000,120
38,78,396240,120
50,93,396240,120
38,72,396960,120
45,72,396960,120
42,72,396960,120
50,85,396960,120
38,72,397680,120
42,72,397680,120
45,72,397680,120
50,85,397680,120
