note,velocity,position,duration
65,50,0,960
69,47,960,480
72,52,1440,960
69,46,2400,480
70,50,2880,960
79,47,3840,480
77,47,4320,240
76,44,4560,240
76,44,4800,480
77,50,5760,480
69,46,6240,480
74,46,6720,480
67,50,7200,480
72,54,7680,720
69,45,8400,240
65,50,8640,1920
67,50,10080,1440
64,42,10560,60
65,37,10620,60
64,48,10680,120
62,48,10800,240
64,50,11040,480
69,48,11520,480
65,48,11520,1920
70,52,12000,480
74,55,12480,480
74,58,12960,240
72,57,13200,240
70,56,13440,240
69,54,13680,240
67,53,13920,240
65,51,14160,240
67,54,14400,480
70,50,14880,120
58,54,15360,480
64,54,15360,480
65,56,15840,480
57,56,15840,480
84,50,16800,360
82,44,17160,120
81,50,17280,120
81,50,17760,120
81,47,18240,360
79,42,18600,120
77,48,18720,120
77,44,19200,120
77,44,19680,480
76,46,20160,120
79,46,20160,120
76,44,20640,120
79,44,20640,120
79,44,21120,120
76,44,21120,120
76,50,21600,480
79,50,21600,480
81,44,22080,480
77,44,22080,480
84,50,22560,120
86,44,22680,120
84,44,22800,120
82,44,22920,120
81,50,23040,120
81,50,23520,120
81,47,24000,120
82,42,24120,120
81,42,24240,120
79,42,24360,120
77,48,24480,120
77,44,24960,120
77,44,25440,120
79,49,25920,480
82,44,26400,120
76,44,26880,480
70,35,26880,480
69,38,27360,480
77,48,27360,480
84,44,28320,480
77,48,28800,480
72,39,29760,480
65,43,30240,480
61,80,31200,480
62,85,31680,720
65,78,32400,120
69,81,32520,120
74,84,32640,120
69,79,32880,120
74,82,33000,120
77,86,33120,120
74,79,33360,120
77,82,33480,120
81,87,33600,120
81,80,33840,240
77,80,34080,240
74,80,34320,120
73,70,34440,40
76,70,34480,40
79,70,34520,40
82,90,34560,720
81,71,35280,132
79,68,35400,132
77,68,35520,132
76,68,35640,132
74,69,35760,132
73,72,35880,132
82,90,36000,720
81,71,36720,132
79,68,36840,132
77,68,36960,132
76,68,37080,132
74,69,37200,132
73,72,37320,132
74,88,37440,720
65,70,38160,120
69,72,38280,120
74,84,38400,120
69,71,38640,120
74,73,38760,120
77,86,38880,120
74,71,39120,120
77,73,39240,120
81,87,39360,120
81,80,39600,240
77,80,39840,240
74,80,40080,240
74,75,40320,720
80,90,40320,720
77,75,40320,720
71,75,40320,720
79,71,41040,132
77,68,41160,132
75,68,41280,132
74,68,41400,132
72,69,41520,132
71,72,41640,132
80,90,41760,720
79,71,42480,132
77,68,42600,132
75,68,42720,132
74,68,42840,132
72,69,42960,132
71,72,43080,132
72,88,43200,600
67,69,43800,120
72,74,43920,120
67,70,44040,120
75,74,44160,120
72,71,44280,120
75,75,44400,120
72,70,44520,120
79,74,44640,120
75,71,44760,120
79,74,44880,120
75,71,45000,120
84,91,45120,240
72,88,46080,600
68,69,46680,120
72,74,46800,120
68,70,46920,120
75,74,47040,120
72,71,47160,120
75,75,47280,120
72,70,47400,120
80,74,47520,120
75,71,47640,120
80,74,47760,120
75,71,47880,120
84,91,48000,240
72,88,48960,600
66,69,49560,120
72,74,49680,120
66,70,49800,120
75,74,49920,120
72,71,50040,120
75,75,50160,120
72,70,50280,120
78,74,50400,120
75,71,50520,120
78,74,50640,120
75,71,50760,120
84,91,50880,480
78,81,51360,360
67,70,51720,40
71,70,51760,40
74,70,51800,40
79,90,51840,960
77,72,52800,130
75,72,52920,130
74,73,53040,130
72,76,53160,120
79,90,53280,960
77,72,54240,130
75,72,54360,130
74,73,54480,130
72,76,54600,120
79,90,54720,720
80,79,55440,130
79,78,55560,130
77,76,55680,130
75,75,55800,130
74,74,55920,130
72,72,56040,130
79,79,56160,120
67,72,56640,120
67,41,57540,60
76,45,57600,120
76,43,58080,120
76,43,58560,120
71,42,58980,60
79,45,59040,720
77,41,59760,240
74,41,60000,480
64,45,60480,480
74,45,60480,240
72,41,60720,240
72,45,60960,720
67,45,60960,720
71,45,61680,240
74,45,61680,240
74,49,61920,960
71,49,61920,960
72,45,62880,480
76,45,62880,480
77,45,63360,720
79,46,64080,60
77,42,64140,60
76,42,64200,60
77,45,64260,40
79,49,64320,240
81,47,64560,236
81,55,64800,240
79,49,65040,240
78,52,65280,240
79,45,65520,240
77,50,65760,240
74,45,66000,240
75,49,66240,240
76,45,66480,240
77,50,66720,240
76,45,66960,240
79,49,67200,240
77,45,67440,240
76,52,67680,240
74,45,67920,240
72,48,68160,240
71,45,68400,240
69,46,68640,240
67,45,68880,240
75,49,69120,240
76,42,69360,240
75,49,69600,240
76,41,69840,240
75,52,70080,240
76,48,70320,240
78,58,70560,240
79,53,70800,240
78,58,71040,240
79,46,71280,240
77,46,71520,240
74,37,71760,240
74,45,72000,240
72,41,72240,240
74,45,72480,240
67,41,72480,480
72,41,72720,240
71,41,72960,480
76,45,72960,240
74,45,73200,240
71,49,73440,960
74,49,73440,720
75,49,74160,240
76,45,74400,480
72,45,74400,480
77,45,74880,720
79,46,75600,60
77,42,75660,60
76,42,75720,60
77,45,75780,40
79,49,75840,240
81,47,76080,240
81,55,76320,240
79,49,76560,240
78,52,76800,240
79,45,77040,240
77,50,77280,240
74,45,77520,240
75,49,77760,240
76,45,78000,240
79,50,78240,240
77,45,78480,240
74,49,78720,240
71,45,78960,240
72,52,79200,240
67,34,79440,240
67,34,79920,120
67,34,80400,120
65,34,80640,120
67,40,80640,120
67,33,80880,120
65,28,80880,120
65,28,81360,120
67,33,81360,120
67,33,81840,120
65,28,81840,120
63,34,82080,120
67,40,82080,120
63,28,82320,120
67,34,82320,120
63,28,82800,120
67,34,82800,120
67,34,83280,120
63,28,83280,120
67,40,83520,120
65,34,83520,120
67,33,83760,120
65,28,83760,120
67,33,84240,120
65,28,84240,120
65,28,84720,120
67,33,84720,120
67,63,84960,120
63,63,84960,120
63,50,85200,120
67,50,85200,120
67,33,85680,120
63,33,85680,120
67,33,86160,120
63,33,86160,120
68,63,86400,120
63,63,86400,120
63,50,86640,120
68,50,86640,120
63,33,87120,120
68,33,87120,120
68,33,87600,120
63,33,87600,120
62,63,87840,120
68,63,87840,120
68,50,88080,120
62,50,88080,120
68,33,88560,120
62,33,88560,120
62,33,89040,120
68,33,89040,120
62,63,89280,120
67,63,89280,120
67,50,89520,120
62,50,89520,120
62,33,90000,120
67,33,90000,120
67,33,90480,120
62,33,90480,120
60,63,90720,120
67,63,90720,120
60,50,90960,120
67,50,90960,120
60,33,91440,120
67,33,91440,120
60,63,91680,120
65,63,91680,120
65,50,91920,120
60,50,91920,120
60,33,92400,120
65,33,92400,120
65,63,92640,120
59,63,92640,120
59,50,92880,120
65,50,92880,120
59,33,93360,120
65,33,93360,120
63,33,93840,120
60,33,93840,120
63,33,94320,120
60,33,94320,120
60,33,94800,120
63,33,94800,120
59,32,95040,240
62,38,95040,240
63,31,95280,250
67,37,95280,250
65,33,95520,250
62,28,95520,250
60,26,95760,250
63,31,95760,250
59,28,96000,250
62,33,96000,250
63,30,96240,250
60,25,96240,250
59,32,96480,240
62,38,96480,240
67,37,96720,250
63,31,96720,250
62,28,96960,250
65,33,96960,250
60,26,97200,250
63,31,97200,250
62,33,97440,250
59,28,97440,250
60,25,97680,250
63,30,97680,250
62,37,97920,250
59,31,97920,250
63,32,98160,250
60,27,98160,250
59,31,98400,250
62,37,98400,250
60,28,98640,250
63,34,98640,250
62,37,98880,250
59,31,98880,250
63,34,99120,250
60,28,99120,250
59,31,99360,240
62,37,99360,240
61,33,99600,250
58,33,99600,250
59,35,99840,250
62,35,99840,250
64,36,100080,250
61,36,100080,250
65,38,100320,250
62,38,100320,250
67,40,100560,250
64,40,100560,250
69,42,100800,480
65,35,100800,480
60,34,101280,480
65,34,101280,480
69,40,101280,480
65,34,101760,480
69,40,101760,480
60,34,101760,480
69,42,102240,960
60,35,102240,1440
65,35,102240,960
64,28,103200,480
67,34,103200,480
59,35,103680,480
62,35,103680,480
67,42,103680,240
65,38,103920,240
65,42,104160,480
59,35,104160,480
62,35,104160,480
65,38,104640,480
62,32,104640,480
59,32,104640,480
59,35,105120,960
62,35,105120,960
65,42,105120,960
64,39,106080,480
60,33,106080,480
67,42,106560,240
64,35,106560,240
65,37,106800,240
62,31,106800,240
60,35,107040,480
64,42,107040,480
59,30,107520,480
62,36,107520,480
60,35,108000,240
64,42,108000,240
72,35,108240,220
74,37,108480,220
76,38,108720,220
77,40,108960,220
79,41,109200,220
81,46,109440,480
81,44,109920,480
81,44,110400,480
81,46,110880,720
83,39,111600,120
81,39,111720,120
79,46,111840,480
79,46,112320,240
71,35,112320,480
77,41,112560,240
71,35,112800,480
77,46,112800,480
77,41,113280,480
71,32,113280,480
71,35,113760,960
77,46,113760,960
76,42,114720,480
72,33,114720,480
79,46,115200,240
76,35,115200,240
77,40,115440,240
74,31,115440,240
76,46,115680,480
72,35,115680,480
71,30,116160,480
74,39,116160,480
79,63,116640,120
76,63,116640,120
79,50,116880,120
76,50,116880,120
74,33,117360,120
77,33,117360,120
72,33,117840,120
76,33,117840,120
74,33,118320,120
65,33,118320,120
72,33,118800,120
64,33,118800,120
62,33,119280,120
71,33,119280,120
76,72,119640,120
79,75,119760,120
76,72,119880,120
74,70,120120,120
77,75,120240,120
74,70,120360,120
72,72,120600,120
76,75,120720,120
72,71,120840,120
65,71,121080,120
74,75,121200,120
65,71,121320,120
64,71,121560,120
72,75,121680,120
64,71,121800,120
62,71,122040,120
71,75,122160,120
62,71,122280,120
64,75,122400,480
67,75,122400,480
72,75,122400,480
76,70,123360,60
77,65,123420,60
76,70,123480,60
77,66,123540,60
76,70,123600,40
77,66,123640,40
76,66,123680,40
74,70,123720,60
72,66,123780,60
79,75,123840,960
83,70,124800,60
84,66,124860,60
83,70,124920,60
84,66,124980,60
83,70,125040,40
84,65,125080,40
83,66,125120,40
81,70,125160,60
79,65,125220,60
84,75,125280,960
76,70,126240,60
77,65,126300,60
76,70,126360,60
77,66,126420,60
76,70,126480,40
77,66,126520,40
76,66,126560,40
74,70,126600,60
72,66,126660,60
79,75,126720,240
79,75,127200,240
83,70,127680,60
84,66,127740,60
83,70,127800,60
84,66,127860,60
83,70,127920,40
84,65,127960,40
83,66,128000,40
81,70,128040,60
79,65,128100,60
84,75,128160,120
88,88,128640,720
80,75,129360,240
81,75,129600,120
84,89,130080,720
76,75,130800,240
77,70,131040,60
79,65,131100,60
77,70,131160,60
79,66,131220,60
77,70,131280,40
79,66,131320,40
77,66,131360,40
76,70,131400,60
74,66,131460,60
79,84,131520,120
79,72,132000,120
74,72,132000,120
83,86,132000,120
84,86,132480,120
76,72,132480,120
79,72,132480,120
60,79,132960,120
65,50,133920,960
69,47,134880,480
72,52,135360,960
69,46,136320,480
70,50,136800,960
79,47,137760,480
77,47,138240,240
76,44,138480,237
76,44,138720,480
77,50,139680,480
69,46,140160,480
74,46,140640,480
67,50,141120,480
72,54,141600,720
69,45,142320,240
65,50,142560,1920
67,50,144000,1440
64,42,144480,60
65,37,144540,60
64,48,144600,120
62,48,144720,240
64,50,144960,480
69,48,145440,480
65,48,145440,1920
70,52,145920,480
74,55,146400,477
74,58,146880,240
72,57,147120,240
70,56,147360,240
69,54,147600,240
67,53,147840,240
65,51,148080,240
67,54,148320,480
70,50,148800,120
64,54,149280,480
58,54,149280,480
65,56,149760,480
57,56,149760,480
84,50,150720,360
82,44,151080,120
81,50,151200,120
81,50,151680,120
81,47,152160,360
79,42,152520,120
77,48,152640,120
77,44,153120,120
77,44,153600,480
76,46,154080,120
79,46,154080,120
79,44,154560,120
76,44,154560,120
79,44,155040,120
76,44,155040,120
79,50,155520,480
76,50,155520,480
81,44,156000,480
77,44,156000,480
84,50,156480,120
86,44,156600,120
84,44,156720,120
82,44,156840,120
81,50,156960,120
81,50,157440,120
81,47,157920,120
82,42,158040,120
81,42,158160,120
79,42,158280,120
77,48,158400,120
77,44,158880,120
77,44,159360,120
79,49,159840,480
82,44,160320,120
70,35,160800,480
76,44,160800,480
77,48,161280,480
69,38,161280,480
84,44,162240,480
77,48,162720,480
72,39,163680,480
65,43,164160,480
61,80,165120,480
62,85,165600,720
65,70,166320,120
69,72,166440,120
74,84,166560,120
69,71,166800,120
74,73,166920,120
77,86,167040,120
74,71,167280,120
77,73,167400,120
81,87,167520,120
81,80,167760,240
77,80,168000,240
74,80,168240,120
73,70,168360,40
76,70,168400,40
79,70,168440,40
82,90,168480,720
81,71,169200,132
79,68,169320,132
77,68,169440,132
76,68,169560,132
74,69,169680,132
73,72,169800,132
82,90,169920,720
81,71,170640,132
79,68,170760,132
77,68,170880,132
76,68,171000,132
74,69,171120,132
73,72,171240,132
74,88,171360,720
65,70,172080,120
69,72,172200,120
74,84,172320,120
69,71,172560,120
74,73,172680,120
77,86,172800,120
74,71,173040,120
77,73,173160,120
81,87,173280,120
81,80,173520,240
77,80,173760,240
74,80,174000,240
71,75,174240,720
80,90,174240,720
74,75,174240,720
77,75,174240,720
79,71,174960,132
77,68,175080,132
75,68,175200,132
74,68,175320,132
72,69,175440,132
71,72,175560,132
80,90,175680,720
79,71,176400,132
77,68,176520,132
75,68,176640,132
74,68,176760,132
72,69,176880,132
71,72,177000,132
72,88,177120,600
67,69,177720,120
72,74,177840,120
67,70,177960,120
75,74,178080,120
72,71,178200,120
75,75,178320,120
72,70,178440,120
79,74,178560,120
75,71,178680,120
79,74,178800,120
75,71,178920,120
84,91,179040,240
72,88,180000,600
68,69,180600,120
72,74,180720,120
68,70,180840,120
75,74,180960,120
72,71,181080,120
75,75,181200,120
72,70,181320,120
80,74,181440,120
75,71,181560,120
80,74,181680,120
75,71,181800,120
84,91,181920,240
72,88,182880,600
66,69,183480,120
72,74,183600,120
66,70,183720,120
75,74,183840,120
72,71,183960,120
75,75,184080,120
72,70,184200,120
78,74,184320,120
75,71,184440,120
78,74,184560,120
75,71,184680,120
84,91,184800,480
78,81,185280,360
67,70,185640,40
71,70,185680,40
74,70,185720,40
79,90,185760,960
77,72,186720,130
75,72,186840,130
74,73,186960,130
72,76,187080,120
79,90,187200,960
77,72,188160,130
75,72,188280,130
74,73,188400,130
72,76,188520,120
79,90,188640,720
80,79,189360,130
79,78,189480,130
77,76,189600,130
75,75,189720,130
74,74,189840,130
72,72,189960,130
79,79,190080,120
67,72,190560,120
67,41,191460,60
76,45,191520,120
76,43,192000,120
76,43,192480,120
71,42,192900,60
79,45,192960,720
77,41,193680,240
74,41,193920,480
64,45,194400,480
74,45,194400,240
72,41,194640,238
72,45,194880,720
67,45,194880,720
71,45,195600,240
74,45,195600,240
71,49,195840,960
74,49,195840,960
72,45,196800,480
76,45,196800,480
77,45,197280,720
79,46,198000,60
77,42,198060,60
76,42,198120,60
77,45,198180,40
79,49,198240,240
81,47,198480,240
81,55,198720,240
79,49,198960,240
78,52,199200,240
79,45,199440,240
77,50,199680,240
74,45,199920,240
75,49,200160,240
76,45,200400,240
77,50,200640,240
76,45,200880,240
79,49,201120,240
77,45,201360,240
76,52,201600,240
74,45,201840,240
72,48,202080,240
71,45,202320,240
69,46,202560,240
67,45,202800,240
75,49,203040,240
76,42,203280,240
75,49,203520,240
76,41,203760,240
75,52,204000,240
76,48,204240,240
78,58,204480,240
79,53,204720,240
78,58,204960,240
79,46,205200,240
77,46,205440,240
74,37,205680,240
74,45,205920,240
72,41,206160,240
67,41,206400,480
74,45,206400,240
72,41,206640,240
76,45,206880,240
71,41,206880,480
74,45,207120,240
71,49,207360,960
74,49,207360,720
75,49,208080,240
72,45,208320,480
76,45,208320,480
77,45,208800,720
79,46,209520,60
77,42,209580,60
76,42,209640,60
77,45,209700,40
79,49,209760,240
81,47,210000,240
81,55,210240,240
79,49,210480,240
78,52,210720,240
79,45,210960,240
77,50,211200,240
74,45,211440,240
75,49,211680,240
76,45,211920,240
79,50,212160,240
77,45,212400,240
74,49,212640,240
71,45,212880,240
72,52,213120,240
67,34,213360,240
67,34,213840,120
67,34,214320,120
67,40,214560,120
65,34,214560,120
67,33,214800,120
65,28,214800,120
65,28,215280,120
67,33,215280,120
67,33,215760,120
65,28,215760,120
67,40,216000,120
63,34,216000,120
67,34,216240,120
63,28,216240,120
63,28,216720,120
67,34,216720,120
63,28,217200,120
67,34,217200,120
67,40,217440,120
65,34,217440,120
65,28,217680,120
67,33,217680,120
67,33,218160,120
65,28,218160,120
67,33,218640,120
65,28,218640,120
67,63,218880,120
63,63,218880,120
67,50,219120,120
63,50,219120,120
67,33,219600,120
63,33,219600,120
63,33,220080,120
67,33,220080,120
68,63,220320,120
63,63,220320,120
63,50,220560,120
68,50,220560,120
68,33,221040,120
63,33,221040,120
63,33,221520,120
68,33,221520,120
62,63,221760,120
68,63,221760,120
62,50,222000,120
68,50,222000,120
68,33,222480,120
62,33,222480,120
68,33,222960,120
62,33,222960,120
62,63,223200,120
67,63,223200,120
62,50,223440,120
67,50,223440,120
67,33,223920,120
62,33,223920,120
62,33,224400,120
67,33,224400,120
67,63,224640,120
60,63,224640,120
67,50,224880,120
60,50,224880,120
67,33,225360,120
60,33,225360,120
65,63,225600,120
60,63,225600,120
60,50,225840,120
65,50,225840,120
60,33,226320,120
65,33,226320,120
59,63,226560,120
65,63,226560,120
65,50,226800,120
59,50,226800,120
65,33,227280,120
59,33,227280,120
60,33,227760,120
63,33,227760,120
60,33,228240,120
63,33,228240,120
63,33,228720,120
60,33,228720,120
59,32,228960,240
62,38,228960,240
67,37,229200,250
63,31,229200,250
65,33,229440,250
62,28,229440,250
63,31,229680,250
60,26,229680,250
62,33,229920,250
59,28,229920,250
60,25,230160,250
63,30,230160,250
59,32,230400,240
62,38,230400,240
67,37,230640,250
63,31,230640,250
62,28,230880,250
65,33,230880,250
63,31,231120,250
60,26,231120,250
59,28,231360,250
62,33,231360,250
60,25,231600,250
63,30,231600,250
59,31,231840,250
62,37,231840,250
60,27,232080,250
63,32,232080,250
59,31,232320,250
62,37,232320,250
60,28,232560,250
63,34,232560,250
59,31,232800,250
62,37,232800,250
63,34,233040,250
60,28,233040,250
62,37,233280,240
59,31,233280,240
58,33,233520,250
61,33,233520,250
59,35,233760,250
62,35,233760,250
64,36,234000,250
61,36,234000,250
62,38,234240,250
65,38,234240,250
67,40,234480,250
64,40,234480,250
69,42,234720,480
65,35,234720,480
60,34,235200,480
65,34,235200,480
69,40,235200,480
65,34,235680,480
69,40,235680,480
60,34,235680,480
65,35,236160,960
69,42,236160,960
60,35,236160,1440
67,34,237120,480
64,28,237120,480
62,35,237600,480
59,35,237600,480
67,42,237600,240
65,38,237840,240
62,35,238080,480
59,35,238080,480
65,42,238080,480
62,32,238560,480
59,32,238560,480
65,38,238560,480
65,42,239040,960
62,35,239040,960
59,35,239040,960
64,39,240000,480
60,33,240000,480
64,35,240480,240
67,42,240480,240
65,37,240720,240
62,31,240720,240
60,35,240960,480
64,42,240960,480
59,30,241440,480
62,36,241440,480
60,35,241920,240
64,42,241920,240
72,35,242160,220
74,37,242400,220
76,38,242640,220
77,40,242880,220
79,41,243120,220
81,46,243360,480
81,44,243840,480
81,44,244320,480
81,46,244800,720
83,39,245520,120
81,39,245640,120
79,46,245760,480
79,46,246240,240
71,35,246240,480
77,41,246480,240
77,46,246720,480
71,35,246720,480
77,41,247200,480
71,32,247200,480
77,46,247680,960
71,35,247680,960
72,33,248640,480
76,42,248640,480
76,35,249120,240
79,46,249120,240
77,40,249360,240
74,31,249360,240
76,46,249600,480
72,35,249600,480
74,39,250080,480
71,30,250080,480
76,63,250560,120
79,63,250560,120
79,50,250800,120
76,50,250800,120
77,33,251280,120
74,33,251280,120
72,33,251760,120
76,33,251760,120
65,33,252240,120
74,33,252240,120
72,33,252720,120
64,33,252720,120
71,33,253200,120
62,33,253200,120
76,72,253560,120
79,75,253680,120
76,72,253800,120
74,70,254040,120
77,75,254160,120
74,70,254280,120
72,72,254520,120
76,75,254640,120
72,71,254760,120
65,71,255000,120
74,75,255120,120
65,71,255240,120
64,71,255480,120
72,75,255600,120
64,71,255720,120
62,71,255960,120
71,75,256080,120
62,71,256200,120
64,75,256320,480
67,75,256320,480
72,75,256320,480
76,70,257280,60
77,65,257340,60
76,70,257400,60
77,66,257460,60
76,70,257520,40
77,66,257560,40
76,66,257600,40
74,70,257640,60
72,66,257700,60
79,75,257760,960
83,70,258720,60
84,66,258780,60
83,70,258840,60
84,66,258900,60
83,70,258960,40
84,65,259000,40
83,66,259040,40
81,70,259080,60
79,65,259140,60
84,75,259200,960
76,70,260160,60
77,65,260220,60
76,70,260280,60
77,66,260340,60
76,70,260400,40
77,66,260440,40
76,66,260480,40
74,70,260520,60
72,66,260580,60
79,75,260640,240
79,75,261120,240
83,70,261600,60
84,66,261660,60
83,70,261720,60
84,66,261780,60
83,70,261840,40
84,65,261880,40
83,66,261920,40
81,70,261960,60
79,65,262020,60
84,75,262080,120
88,88,262560,720
80,75,263280,240
81,75,263520,120
84,89,264000,720
76,75,264720,240
77,70,264960,60
79,65,265020,60
77,70,265080,60
79,66,265140,60
77,70,265200,40
79,66,265240,40
77,66,265280,40
76,70,265320,60
74,66,265380,60
79,84,265440,120
83,86,265920,120
79,72,265920,120
74,72,265920,120
79,72,266400,120
76,72,266400,120
84,86,266400,120
60,79,266880,120
67,50,267840,1440
72,46,268320,480
76,46,268800,480
67,45,269280,1440
76,53,269280,960
72,48,269280,960
71,43,270240,480
74,43,270240,480
79,50,270720,480
72,46,271200,480
67,40,271200,960
76,46,271680,480
67,45,272160,1440
72,48,272160,960
76,53,272160,960
74,43,273120,480
71,43,273120,480
69,50,273600,480
74,50,274080,480
77,50,274560,480
76,50,275040,480
74,50,275520,480
81,50,276000,960
79,50,276960,480
71,50,277440,480
72,50,277920,240
67,50,278160,240
64,50,278400,240
67,50,278640,240
65,50,278880,240
62,50,279120,240
60,50,279360,360
55,43,279720,120
60,46,279840,480
64,48,280320,480
60,50,280800,960
64,55,280800,960
62,43,281760,480
59,43,281760,480
67,50,282240,480
55,40,282720,960
60,46,282720,480
64,48,283200,480
60,50,283680,960
64,55,283680,960
59,43,284640,480
62,43,284640,480
57,50,285120,480
62,50,285600,480
65,50,286080,480
64,50,286560,480
62,50,287040,480
69,50,287520,960
67,50,288480,480
59,50,288960,480
60,52,289440,240
67,34,289680,240
67,34,290160,120
67,34,290640,120
65,34,290880,120
67,40,290880,120
65,28,291120,120
67,33,291120,120
65,28,291600,120
67,33,291600,120
67,33,292080,120
65,28,292080,120
67,40,292320,120
63,34,292320,120
67,34,292560,120
63,28,292560,120
67,34,293040,120
63,28,293040,120
67,34,293520,120
63,28,293520,120
65,34,293760,120
67,40,293760,120
65,28,294000,120
67,33,294000,120
65,28,294480,120
67,33,294480,120
65,23,294960,120
67,33,294960,120
63,53,295200,120
67,63,295200,120
67,50,295440,120
63,42,295440,120
67,33,295920,120
63,28,295920,120
63,28,296400,120
67,33,296400,120
63,53,296640,120
60,53,296640,120
66,63,296640,120
63,42,296880,120
60,42,296880,120
66,50,296880,120
66,33,297360,120
63,28,297360,120
60,28,297360,120
60,28,297840,120
63,28,297840,120
66,33,297840,120
62,53,298080,120
67,63,298080,120
67,50,298320,120
62,42,298320,120
67,33,298800,120
62,28,298800,120
62,28,299280,120
67,33,299280,120
69,53,299520,120
62,53,299520,120
72,63,299520,120
62,42,299760,120
72,50,299760,120
69,42,299760,120
69,28,300240,120
72,33,300240,120
62,28,300240,120
72,33,300720,120
62,28,300720,120
69,28,300720,120
70,63,300960,120
67,53,300960,120
62,53,300960,120
62,42,301200,120
67,42,301200,120
70,50,301200,120
62,28,301680,120
70,33,301680,120
67,28,301680,120
62,28,302160,120
70,33,302160,120
67,28,302160,120
70,53,302400,120
67,53,302400,120
73,63,302400,120
70,42,302640,120
73,50,302640,120
67,42,302640,120
67,28,303120,120
70,28,303120,120
73,33,303120,120
73,33,303600,120
70,28,303600,120
67,28,303600,120
74,63,303840,120
69,53,303840,120
69,42,304080,120
74,50,304080,120
69,28,304560,120
74,33,304560,120
69,28,305040,120
74,33,305040,120
76,53,305280,120
69,53,305280,120
79,63,305280,120
79,50,305520,120
69,42,305520,120
76,42,305520,120
79,33,306000,120
76,28,306000,120
69,28,306000,120
76,28,306480,120
79,33,306480,120
69,28,306480,120
74,53,306720,120
77,63,306720,120
69,53,306720,120
69,42,306960,120
77,50,306960,120
74,42,306960,120
77,33,307440,120
74,28,307440,120
69,28,307440,120
74,28,307920,120
77,33,307920,120
69,28,307920,120
80,65,308160,120
74,53,308160,120
80,54,308400,120
74,42,308400,120
80,33,308880,120
74,28,308880,120
74,28,309360,120
80,33,309360,120
81,38,309600,240
73,32,309600,240
81,37,309840,250
77,31,309840,250
76,28,310080,250
79,33,310080,250
77,31,310320,250
74,26,310320,250
73,28,310560,250
76,33,310560,250
77,30,310800,250
74,25,310800,250
73,32,311040,240
76,38,311040,240
69,37,311280,250
65,31,311280,250
67,33,311520,250
64,28,311520,250
62,26,311760,250
65,31,311760,250
64,33,312000,250
61,28,312000,250
65,30,312240,250
62,25,312240,250
61,31,312480,250
64,37,312480,250
65,32,312720,250
62,27,312720,250
61,31,312960,250
64,37,312960,250
65,34,313200,250
62,28,313200,250
61,31,313440,250
64,37,313440,250
62,28,313680,240
65,34,313680,240
64,37,313920,480
61,31,313920,480
60,24,315360,250
64,29,315360,250
65,25,315600,250
62,21,315600,250
64,29,315840,250
60,24,315840,250
62,22,316080,250
65,27,316080,250
64,29,316320,250
60,24,316320,250
65,27,316560,250
62,22,316560,250
60,31,316800,480
64,29,316800,480
58,49,318240,1920
60,49,318240,1920
64,59,318240,250
65,51,318480,250
64,59,318720,250
65,55,318960,250
64,59,319200,250
65,55,319440,250
64,59,319680,480
76,31,321120,1920
82,37,321120,250
81,32,321360,250
82,37,321600,250
81,34,321840,250
82,37,322080,250
81,34,322320,240
82,37,322560,480
65,50,324000,960
69,47,324960,480
72,52,325440,960
69,46,326400,480
70,50,326880,960
79,47,327840,480
77,47,328320,240
76,44,328560,237
76,44,328800,480
77,50,329760,480
69,46,330240,480
74,46,330720,480
67,50,331200,480
72,54,331680,720
69,45,332400,240
65,50,332640,1920
67,50,334080,1440
64,42,334560,60
65,37,334620,60
64,48,334680,120
62,48,334800,240
64,50,335040,480
69,48,335520,480
65,48,335520,1920
70,52,336000,480
74,55,336480,476
74,58,336960,240
72,57,337200,240
70,56,337440,240
69,54,337680,240
67,53,337920,240
65,51,338160,240
67,54,338400,480
70,50,338880,120
58,54,339360,480
64,54,339360,480
65,56,339840,480
57,56,339840,480
84,50,340800,360
82,44,341160,120
81,50,341280,120
81,50,341760,120
81,47,342240,360
79,42,342600,120
77,48,342720,120
77,44,343200,120
77,44,343680,480
76,46,344160,120
79,46,344160,120
76,44,344640,120
79,44,344640,120
79,44,345120,120
76,44,345120,120
76,50,345600,480
79,50,345600,480
81,44,346080,480
77,44,346080,480
84,50,346560,120
86,44,346680,120
84,44,346800,120
82,44,346920,120
81,50,347040,120
81,50,347520,120
81,47,348000,120
82,42,348120,120
81,42,348240,120
79,42,348360,120
77,48,348480,120
77,44,348960,120
77,44,349440,120
79,49,349920,480
82,44,350400,120
76,44,350880,480
70,35,350880,480
69,38,351360,480
77,48,351360,480
84,44,352320,480
77,48,352800,480
72,39,353760,480
65,43,354240,480
61,80,355200,480
62,85,355680,720
65,70,356400,120
69,72,356520,120
74,84,356640,120
69,71,356880,120
74,73,357000,120
77,86,357120,120
74,71,357360,120
77,73,357480,120
81,87,357600,120
81,80,357840,240
77,80,358080,240
74,80,358320,120
73,70,358440,40
76,70,358480,40
79,70,358520,40
82,90,358560,720
81,71,359280,132
79,68,359400,132
77,68,359520,132
76,68,359640,132
74,69,359760,132
73,72,359880,132
82,90,360000,720
81,71,360720,132
79,68,360840,132
77,68,360960,132
76,68,361080,132
74,69,361200,132
73,72,361320,132
74,88,361440,720
65,70,362160,120
69,72,362280,120
74,84,362400,120
69,71,362640,120
74,73,362760,120
77,86,362880,120
74,71,363120,120
77,73,363240,120
81,87,363360,120
81,80,363600,240
77,80,363840,240
74,80,364080,240
74,75,364320,720
80,90,364320,720
77,75,364320,720
71,75,364320,720
79,71,365040,132
77,68,365160,132
75,68,365280,132
74,68,365400,132
72,69,365520,132
71,72,365640,132
80,90,365760,720
79,71,366480,132
77,68,366600,132
75,68,366720,132
74,68,366840,132
72,69,366960,132
71,72,367080,132
72,88,367200,720
63,70,367920,120
67,72,368040,120
72,84,368160,120
67,71,368400,120
72,73,368520,120
75,86,368640,120
72,71,368880,120
75,73,369000,120
79,87,369120,120
79,80,369360,240
75,80,369600,240
72,80,369840,240
72,75,370080,720
78,90,370080,720
75,75,370080,720
69,75,370080,720
77,71,370800,132
75,68,370920,132
73,68,371040,132
72,68,371160,132
70,69,371280,132
69,72,371400,132
78,90,371520,720
77,71,372240,132
75,68,372360,132
73,68,372480,132
72,68,372600,132
70,69,372720,132
69,72,372840,132
70,88,372960,600
65,69,373560,120
70,74,373680,120
65,70,373800,120
73,74,373920,120
70,71,374040,120
73,75,374160,120
70,70,374280,120
77,74,374400,120
73,71,374520,120
77,74,374640,120
73,71,374760,120
82,91,374880,480
69,88,375840,600
65,69,376440,120
69,74,376560,120
65,70,376680,120
72,74,376800,120
69,71,376920,120
72,75,377040,120
69,70,377160,120
77,74,377280,120
72,71,377400,120
77,74,377520,120
72,71,377640,120
81,91,377760,480
68,88,378720,600
65,69,379320,120
68,74,379440,120
65,70,379560,120
74,74,379680,120
68,71,379800,120
74,75,379920,120
68,70,380040,120
77,74,380160,120
74,71,380280,120
77,74,380400,120
74,71,380520,120
80,91,380640,480
77,81,381120,360
72,70,381480,40
76,70,381520,40
79,70,381560,40
84,90,381600,960
82,72,382560,130
80,72,382680,130
79,73,382800,130
77,76,382920,120
84,90,383040,960
82,72,384000,130
80,72,384120,130
79,73,384240,130
77,76,384360,120
72,90,384480,720
73,79,385200,130
72,78,385320,130
70,76,385440,130
68,75,385560,130
67,74,385680,130
65,72,385800,130
72,79,385920,120
60,72,386400,120
60,41,387300,60
69,45,387360,120
69,43,387840,120
69,43,388320,120
64,42,388740,60
72,45,388800,720
70,41,389520,240
67,41,389760,480
57,45,390240,480
67,45,390240,240
65,41,390480,240
65,45,390720,720
60,45,390720,720
64,45,391440,240
67,45,391440,240
67,49,391680,960
64,49,391680,960
65,45,392640,480
69,45,392640,480
70,45,393120,720
72,46,393840,60
70,42,393900,60
69,42,393960,60
70,45,394020,40
72,49,394080,240
74,47,394320,240
74,55,394560,240
72,49,394800,240
71,52,395040,240
72,45,395280,240
70,50,395520,240
67,45,395760,240
68,49,396000,240
69,45,396240,240
70,50,396480,240
69,45,396720,240
72,49,396960,240
70,45,397200,240
69,52,397440,240
67,45,397680,240
65,48,397920,240
64,45,398160,240
62,46,398400,240
60,45,398640,240
68,39,398880,240
80,49,398880,240
69,33,399120,240
81,42,399120,240
68,39,399360,240
80,49,399360,240
69,32,399600,240
81,41,399600,240
68,41,399840,240
80,52,399840,240
69,38,400080,240
81,48,400080,240
71,46,400320,240
83,58,400320,240
72,42,400560,240
84,53,400560,240
71,46,400800,240
83,58,400800,240
72,36,401040,240
84,46,401040,240
82,49,401280,240
79,39,401520,240
79,45,401760,240
77,41,402000,240
79,45,402240,240
72,41,402240,480
77,41,402480,240
76,41,402720,480
81,45,402720,240
79,45,402960,240
76,49,403200,960
79,49,403200,720
80,49,403920,240
81,45,404160,480
77,45,404160,480
82,49,404640,720
84,50,405360,60
82,46,405420,60
81,46,405480,60
82,49,405540,40
84,53,405600,240
86,51,405840,240
86,60,406080,240
84,53,406320,240
83,57,406560,240
84,49,406800,240
82,55,407040,240
79,49,407280,240
80,53,407520,240
81,49,407760,240
84,55,408000,240
82,49,408240,240
79,53,408480,240
76,49,408720,240
77,54,408960,240
72,35,409200,240
72,35,409680,120
72,35,410160,120
70,35,410400,120
72,42,410400,120
72,34,410640,120
70,29,410640,120
70,29,411120,120
72,34,411120,120
72,34,411600,120
70,29,411600,120
68,35,411840,120
72,42,411840,120
68,29,412080,120
72,35,412080,120
68,29,412560,120
72,35,412560,120
72,35,413040,120
68,29,413040,120
72,42,413280,120
70,35,413280,120
72,34,413520,120
70,29,413520,120
72,34,414000,120
70,29,414000,120
70,29,414480,120
72,34,414480,120
72,63,414720,120
68,63,414720,120
68,50,414960,120
72,50,414960,120
72,33,415440,120
68,33,415440,120
72,33,415920,120
68,33,415920,120
73,63,416160,120
68,63,416160,120
68,50,416400,120
73,50,416400,120
68,33,416880,120
73,33,416880,120
73,33,417360,120
68,33,417360,120
67,63,417600,120
73,63,417600,120
73,50,417840,120
67,50,417840,120
73,33,418320,120
67,33,418320,120
67,33,418800,120
73,33,418800,120
67,63,419040,120
72,63,419040,120
72,50,419280,120
67,50,419280,120
67,33,419760,120
72,33,419760,120
72,33,420240,120
67,33,420240,120
65,63,420480,120
72,63,420480,120
65,50,420720,120
72,50,420720,120
65,33,421200,120
72,33,421200,120
65,63,421440,120
70,63,421440,120
70,50,421680,120
65,50,421680,120
65,33,422160,120
70,33,422160,120
70,63,422400,120
64,63,422400,120
64,50,422640,120
70,50,422640,120
64,33,423120,120
70,33,423120,120
68,33,423600,120
65,33,423600,120
68,33,424080,120
65,33,424080,120
65,33,424560,120
68,33,424560,120
64,32,424800,240
67,38,424800,240
68,31,425040,250
72,37,425040,250
70,33,425280,250
67,28,425280,250
65,26,425520,250
68,31,425520,250
64,28,425760,250
67,33,425760,250
68,30,426000,250
65,25,426000,250
64,32,426240,240
67,38,426240,240
72,37,426480,250
68,31,426480,250
67,28,426720,250
70,33,426720,250
65,26,426960,250
68,31,426960,250
67,33,427200,250
64,28,427200,250
65,25,427440,250
68,30,427440,250
67,37,427680,250
64,31,427680,250
68,32,427920,250
65,27,427920,250
64,31,428160,250
67,37,428160,250
65,28,428400,250
68,34,428400,250
67,37,428640,250
64,31,428640,250
68,34,428880,250
65,28,428880,250
64,31,429120,240
67,37,429120,240
66,33,429360,250
63,33,429360,250
64,35,429600,250
67,35,429600,250
69,36,429840,250
66,36,429840,250
70,38,430080,250
67,38,430080,250
72,40,430320,250
69,40,430320,250
74,42,430560,480
70,35,430560,480
65,34,431040,480
70,34,431040,480
74,40,431040,480
70,34,431520,480
74,40,431520,480
65,34,431520,480
74,42,432000,960
65,35,432000,1440
70,35,432000,960
69,28,432960,480
72,34,432960,480
64,35,433440,480
67,35,433440,480
72,42,433440,240
70,38,433680,240
70,42,433920,480
64,35,433920,480
67,35,433920,480
70,38,434400,480
67,32,434400,480
64,32,434400,480
64,35,434880,960
67,35,434880,960
70,42,434880,960
69,39,435840,480
65,33,435840,480
72,42,436320,240
69,35,436320,240
70,37,436560,240
67,31,436560,240
65,35,436800,480
69,42,436800,480
64,30,437280,480
67,36,437280,480
65,35,437760,240
69,42,437760,240
77,35,438000,220
79,37,438240,220
81,38,438480,220
82,40,438720,220
84,41,438960,220
86,46,439200,480
86,44,439680,480
86,44,440160,480
86,46,440640,720
88,39,441360,120
86,39,441480,120
84,46,441600,480
84,46,442080,240
76,35,442080,480
82,41,442320,240
76,35,442560,480
82,46,442560,480
82,41,443040,480
76,32,443040,480
76,35,443520,960
82,46,443520,960
81,42,444480,480
77,33,444480,480
84,46,444960,240
81,35,444960,240
82,40,445200,240
79,31,445200,240
81,46,445440,480
77,35,445440,480
76,30,445920,480
79,39,445920,480
84,63,446400,120
81,63,446400,120
84,50,446640,120
81,50,446640,120
79,33,447120,120
82,33,447120,120
77,33,447600,120
81,33,447600,120
79,33,448080,120
70,33,448080,120
77,33,448560,120
69,33,448560,120
67,33,449040,120
76,33,449040,120
81,72,449400,120
84,75,449520,120
81,72,449640,120
79,70,449880,120
82,75,450000,120
79,70,450120,120
77,72,450360,120
81,75,450480,120
77,71,450600,120
70,71,450840,120
79,75,450960,120
70,71,451080,120
69,71,451320,120
77,75,451440,120
69,71,451560,120
67,71,451800,120
76,75,451920,120
67,71,452040,120
69,75,452160,480
72,75,452160,480
77,75,452160,480
69,70,453120,60
70,65,453180,60
69,70,453240,60
70,66,453300,60
69,70,453360,40
70,66,453400,40
69,66,453440,40
67,70,453480,60
65,66,453540,60
72,75,453600,960
76,70,454560,60
77,66,454620,60
76,70,454680,60
77,66,454740,60
76,70,454800,40
77,65,454840,40
76,66,454880,40
74,70,454920,60
72,65,454980,60
77,75,455040,960
81,70,456000,60
82,65,456060,60
81,70,456120,60
82,66,456180,60
81,70,456240,40
82,66,456280,40
81,66,456320,40
79,70,456360,60
77,66,456420,60
84,75,456480,240
84,75,456960,240
88,70,457440,60
89,66,457500,60
88,70,457560,60
89,66,457620,60
88,70,457680,40
89,65,457720,40
88,66,457760,40
86,70,457800,60
84,65,457860,60
89,75,457920,120
81,88,458400,720
73,75,459120,240
74,75,459360,120
77,89,459840,720
69,75,460560,240
70,70,460800,60
72,65,460860,60
70,70,460920,60
72,66,460980,60
70,70,461040,40
72,66,461080,40
70,66,461120,40
69,70,461160,60
67,66,461220,60
72,84,461280,120
72,72,461760,120
67,72,461760,120
76,86,461760,120
77,86,462240,120
69,72,462240,120
72,72,462240,120
65,79,462720,120
67,50,463680,1440
72,46,464160,480
76,46,464640,480
67,45,465120,1440
76,53,465120,960
72,48,465120,960
71,43,466080,480
74,43,466080,480
79,50,466560,480
72,46,467040,480
67,40,467040,960
76,46,467520,480
67,45,468000,1440
72,48,468000,960
76,53,468000,960
74,43,468960,480
71,43,468960,480
69,50,469440,480
74,50,469920,480
77,50,470400,480
76,50,470880,480
74,50,471360,480
81,50,471840,960
79,50,472800,480
71,50,473280,480
72,50,473760,240
67,50,474000,240
64,50,474240,240
67,50,474480,240
65,50,474720,240
62,50,474960,240
60,50,475200,360
55,43,475560,120
60,46,475680,480
64,48,476160,480
60,50,476640,960
64,55,476640,960
62,43,477600,480
59,43,477600,480
67,50,478080,480
55,40,478560,960
60,46,478560,480
64,48,479040,480
60,50,479520,960
64,55,479520,960
59,43,480480,480
62,43,480480,480
57,50,480960,480
62,50,481440,480
65,50,481920,480
64,50,482400,480
62,50,482880,480
69,50,483360,960
67,50,484320,480
59,50,484800,480
60,52,485280,240
67,34,485520,240
67,34,486000,120
67,34,486480,120
65,34,486720,120
67,40,486720,120
65,28,486960,120
67,33,486960,120
65,28,487440,120
67,33,487440,120
67,33,487920,120
65,28,487920,120
67,40,488160,120
63,34,488160,120
67,34,488400,120
63,28,488400,120
67,34,488880,120
63,28,488880,120
67,34,489360,120
63,28,489360,120
65,34,489600,120
67,40,489600,120
65,28,489840,120
67,33,489840,120
65,28,490320,120
67,33,490320,120
65,23,490800,120
67,33,490800,120
63,53,491040,120
67,63,491040,120
67,50,491280,120
63,42,491280,120
67,33,491760,120
63,28,491760,120
63,28,492240,120
67,33,492240,120
63,53,492480,120
60,53,492480,120
66,63,492480,120
63,42,492720,120
60,42,492720,120
66,50,492720,120
66,33,493200,120
63,28,493200,120
60,28,493200,120
60,28,493680,120
63,28,493680,120
66,33,493680,120
62,53,493920,120
67,63,493920,120
67,50,494160,120
62,42,494160,120
67,33,494640,120
62,28,494640,120
62,28,495120,120
67,33,495120,120
69,53,495360,120
62,53,495360,120
72,63,495360,120
62,42,495600,120
72,50,495600,120
69,42,495600,120
69,28,496080,120
72,33,496080,120
62,28,496080,120
72,33,496560,120
62,28,496560,120
69,28,496560,120
70,63,496800,120
67,53,496800,120
62,53,496800,120
62,42,497040,120
67,42,497040,120
70,50,497040,120
62,28,497520,120
70,33,497520,120
67,28,497520,120
62,28,498000,120
70,33,498000,120
67,28,498000,120
70,53,498240,120
67,53,498240,120
73,63,498240,120
70,42,498480,120
73,50,498480,120
67,42,498480,120
67,28,498960,120
70,28,498960,120
73,33,498960,120
73,33,499440,120
70,28,499440,120
67,28,499440,120
74,63,499680,120
69,53,499680,120
69,42,499920,120
74,50,499920,120
69,28,500400,120
74,33,500400,120
69,28,500880,120
74,33,500880,120
76,53,501120,120
69,53,501120,120
79,63,501120,120
79,50,501360,120
69,42,501360,120
76,42,501360,120
79,33,501840,120
76,28,501840,120
69,28,501840,120
76,28,502320,120
79,33,502320,120
69,28,502320,120
74,53,502560,120
77,63,502560,120
69,53,502560,120
69,42,502800,120
77,50,502800,120
74,42,502800,120
77,33,503280,120
74,28,503280,120
69,28,503280,120
74,28,503760,120
77,33,503760,120
69,28,503760,120
80,65,504000,120
74,53,504000,120
80,54,504240,120
74,42,504240,120
80,33,504720,120
74,28,504720,120
74,28,505200,120
80,33,505200,120
81,38,505440,235
73,32,505440,235
81,37,505680,250
77,31,505680,250
76,28,505920,250
79,33,505920,250
77,31,506160,250
74,26,506160,250
73,28,506400,250
76,33,506400,250
77,30,506640,250
74,25,506640,250
73,32,506880,240
76,38,506880,240
69,37,507120,250
65,31,507120,250
67,33,507360,250
64,28,507360,250
62,26,507600,250
65,31,507600,250
64,33,507840,250
61,28,507840,250
65,30,508080,250
62,25,508080,250
61,31,508320,250
64,37,508320,250
65,32,508560,250
62,27,508560,250
61,31,508800,250
64,37,508800,250
65,34,509040,250
62,28,509040,250
61,31,509280,250
64,37,509280,250
62,28,509520,240
65,34,509520,240
64,37,509760,480
61,31,509760,480
60,24,511200,250
64,29,511200,250
65,25,511440,250
62,21,511440,250
64,29,511680,250
60,24,511680,250
62,22,511920,250
65,27,511920,250
64,29,512160,250
60,24,512160,250
65,27,512400,250
62,22,512400,250
60,31,512640,480
64,29,512640,480
58,49,514080,1920
60,49,514080,1920
64,59,514080,250
65,51,514320,250
64,59,514560,250
65,55,514800,250
64,59,515040,250
65,55,515280,250
64,59,515520,480
76,31,516960,1920
82,37,516960,250
81,32,517200,250
82,37,517440,250
81,34,517680,250
82,37,517920,250
81,34,518160,240
82,37,518400,480
65,50,519840,960
69,47,520800,480
72,52,521280,960
69,46,522240,480
70,50,522720,960
79,47,523680,480
77,47,524160,240
76,44,524400,240
76,44,524640,480
77,50,525600,480
69,46,526080,480
74,46,526560,480
67,50,527040,480
72,54,527520,720
69,45,528240,240
65,50,528480,1920
67,50,529920,1440
64,42,530400,60
65,37,530460,60
64,48,530520,120
62,48,530640,240
64,50,530880,480
69,48,531360,480
65,48,531360,1920
70,52,531840,480
74,55,532320,480
74,58,532800,240
72,57,533040,240
70,56,533280,240
69,54,533520,240
67,53,533760,240
65,51,534000,240
67,54,534240,480
70,50,534720,120
58,54,535200,480
64,54,535200,480
65,56,535680,480
57,56,535680,480
84,50,536640,360
82,44,537000,120
81,50,537120,120
81,50,537600,120
81,47,538080,360
79,42,538440,120
77,48,538560,120
77,44,539040,120
77,44,539520,480
76,46,540000,120
79,46,540000,120
76,44,540480,120
79,44,540480,120
79,44,540960,120
76,44,540960,120
76,50,541440,480
79,50,541440,480
81,44,541920,480
77,44,541920,480
84,50,542400,120
86,44,542520,120
84,44,542640,120
82,44,542760,120
81,50,542880,120
81,50,543360,120
81,47,543840,120
82,42,543960,120
81,42,544080,120
79,42,544200,120
77,48,544320,120
77,44,544800,120
77,44,545280,120
79,49,545760,480
82,44,546240,120
76,44,546720,480
70,35,546720,480
69,38,547200,480
77,48,547200,480
84,44,548160,480
77,48,548640,480
72,39,549600,480
65,43,550080,480
61,80,551040,480
62,85,551520,720
65,70,552240,120
69,72,552360,120
74,84,552480,120
69,71,552720,120
74,73,552840,120
77,86,552960,120
74,71,553200,120
77,73,553320,120
81,87,553440,120
81,80,553680,240
77,80,553920,240
74,80,554160,120
73,70,554280,40
76,70,554320,40
79,70,554360,40
82,90,554400,720
81,71,555120,132
79,68,555240,132
77,68,555360,132
76,68,555480,132
74,69,555600,132
73,72,555720,132
82,90,555840,720
81,71,556560,132
79,68,556680,132
77,68,556800,132
76,68,556920,132
74,69,557040,132
73,72,557160,132
74,88,557280,720
65,70,558000,120
69,72,558120,120
74,84,558240,120
69,71,558480,120
74,73,558600,120
77,86,558720,120
74,71,558960,120
77,73,559080,120
81,87,559200,120
81,80,559440,240
77,80,559680,240
74,80,559920,240
74,75,560160,720
80,90,560160,720
77,75,560160,720
71,75,560160,720
79,71,560880,132
77,68,561000,132
75,68,561120,132
74,68,561240,132
72,69,561360,132
71,72,561480,132
80,90,561600,720
79,71,562320,132
77,68,562440,132
75,68,562560,132
74,68,562680,132
72,69,562800,132
71,72,562920,132
72,88,563040,720
63,70,563760,120
67,72,563880,120
72,84,564000,120
67,71,564240,120
72,73,564360,120
75,86,564480,120
72,71,564720,120
75,73,564840,120
79,87,564960,120
79,80,565200,240
75,80,565440,240
72,80,565680,240
72,75,565920,720
78,90,565920,720
75,75,565920,720
69,75,565920,720
77,71,566640,132
75,68,566760,132
73,68,566880,132
72,68,567000,132
70,69,567120,132
69,72,567240,132
78,90,567360,720
77,71,568080,132
75,68,568200,132
73,68,568320,132
72,68,568440,132
70,69,568560,132
69,72,568680,132
70,88,568800,600
65,69,569400,120
70,74,569520,120
65,70,569640,120
73,74,569760,120
70,71,569880,120
73,75,570000,120
70,70,570120,120
77,74,570240,120
73,71,570360,120
77,74,570480,120
73,71,570600,120
82,91,570720,480
69,88,571680,600
65,69,572280,120
69,74,572400,120
65,70,572520,120
72,74,572640,120
69,71,572760,120
72,75,572880,120
69,70,573000,120
77,74,573120,120
72,71,573240,120
77,74,573360,120
72,71,573480,120
81,91,573600,480
68,88,574560,600
65,69,575160,120
68,74,575280,120
65,70,575400,120
74,74,575520,120
68,71,575640,120
74,75,575760,120
68,70,575880,120
77,74,576000,120
74,71,576120,120
77,74,576240,120
74,71,576360,120
80,91,576480,480
77,81,576960,360
72,70,577320,40
76,70,577360,40
79,70,577400,40
84,90,577440,960
82,72,578400,130
80,72,578520,130
79,73,578640,130
77,76,578760,120
84,90,578880,960
82,72,579840,130
80,72,579960,130
79,73,580080,130
77,76,580200,120
72,90,580320,720
73,79,581040,130
72,78,581160,130
70,76,581280,130
68,75,581400,130
67,74,581520,130
65,72,581640,130
72,79,581760,120
60,72,582240,120
60,41,583140,60
69,45,583200,120
69,43,583680,120
69,43,584160,120
64,42,584580,60
72,45,584640,720
70,41,585360,240
67,41,585600,480
57,45,586080,480
67,45,586080,240
65,41,586320,240
65,45,586560,720
60,45,586560,720
64,45,587280,240
67,45,587280,240
67,49,587520,960
64,49,587520,960
65,45,588480,480
69,45,588480,480
70,45,588960,720
72,46,589680,60
70,42,589740,60
69,42,589800,60
70,45,589860,40
72,49,589920,240
74,47,590160,240
74,55,590400,240
72,49,590640,240
71,52,590880,240
72,45,591120,240
70,50,591360,240
67,45,591600,240
68,49,591840,240
69,45,592080,240
70,50,592320,240
69,45,592560,240
72,49,592800,240
70,45,593040,240
69,52,593280,240
67,45,593520,240
65,48,593760,240
64,45,594000,240
62,46,594240,240
60,45,594480,240
68,39,594720,240
80,49,594720,240
69,33,594960,240
81,42,594960,240
68,39,595200,240
80,49,595200,240
69,32,595440,240
81,41,595440,240
68,41,595680,240
80,52,595680,240
69,38,595920,240
81,48,595920,240
71,46,596160,240
83,58,596160,240
72,42,596400,240
84,53,596400,240
71,46,596640,240
83,58,596640,240
72,36,596880,240
84,46,596880,240
82,49,597120,240
79,39,597360,240
79,45,597600,240
77,41,597840,240
79,45,598080,240
72,41,598080,480
77,41,598320,240
76,41,598560,480
81,45,598560,240
79,45,598800,240
76,49,599040,960
79,49,599040,720
80,49,599760,240
81,45,600000,480
77,45,600000,480
82,49,600480,720
84,50,601200,60
82,46,601260,60
81,46,601320,60
82,49,601380,40
84,53,601440,240
86,51,601680,240
86,60,601920,240
84,53,602160,240
83,57,602400,240
84,49,602640,240
82,55,602880,240
79,49,603120,240
80,53,603360,240
81,49,603600,240
84,55,603840,240
82,49,604080,240
79,53,604320,240
76,49,604560,240
77,54,604800,240
72,35,605040,240
72,35,605520,120
72,35,606000,120
70,35,606240,120
72,42,606240,120
72,34,606480,120
70,29,606480,120
70,29,606960,120
72,34,606960,120
72,34,607440,120
70,29,607440,120
68,35,607680,120
72,42,607680,120
68,29,607920,120
72,35,607920,120
68,29,608400,120
72,35,608400,120
72,35,608880,120
68,29,608880,120
72,42,609120,120
70,35,609120,120
72,34,609360,120
70,29,609360,120
72,34,609840,120
70,29,609840,120
70,29,610320,120
72,34,610320,120
72,63,610560,120
68,63,610560,120
68,50,610800,120
72,50,610800,120
72,33,611280,120
68,33,611280,120
72,33,611760,120
68,33,611760,120
73,63,612000,120
68,63,612000,120
68,50,612240,120
73,50,612240,120
68,33,612720,120
73,33,612720,120
73,33,613200,120
68,33,613200,120
67,63,613440,120
73,63,613440,120
73,50,613680,120
67,50,613680,120
73,33,614160,120
67,33,614160,120
67,33,614640,120
73,33,614640,120
67,63,614880,120
72,63,614880,120
72,50,615120,120
67,50,615120,120
67,33,615600,120
72,33,615600,120
72,33,616080,120
67,33,616080,120
65,63,616320,120
72,63,616320,120
65,50,616560,120
72,50,616560,120
65,33,617040,120
72,33,617040,120
65,63,617280,120
70,63,617280,120
70,50,617520,120
65,50,617520,120
65,33,618000,120
70,33,618000,120
70,63,618240,120
64,63,618240,120
64,50,618480,120
70,50,618480,120
64,33,618960,120
70,33,618960,120
68,33,619440,120
65,33,619440,120
68,33,619920,120
65,33,619920,120
65,33,620400,120
68,33,620400,120
64,32,620640,240
67,38,620640,240
68,31,620880,250
72,37,620880,250
70,33,621120,250
67,28,621120,250
65,26,621360,250
68,31,621360,250
64,28,621600,250
67,33,621600,250
68,30,621840,250
65,25,621840,250
64,32,622080,240
67,38,622080,240
72,37,622320,250
68,31,622320,250
67,28,622560,250
70,33,622560,250
65,26,622800,250
68,31,622800,250
67,33,623040,250
64,28,623040,250
65,25,623280,250
68,30,623280,250
67,37,623520,250
64,31,623520,250
68,32,623760,250
65,27,623760,250
64,31,624000,250
67,37,624000,250
65,28,624240,250
68,34,624240,250
67,37,624480,250
64,31,624480,250
68,34,624720,250
65,28,624720,250
64,31,624960,240
67,37,624960,240
66,33,625200,250
63,33,625200,250
64,35,625440,250
67,35,625440,250
69,36,625680,250
66,36,625680,250
70,38,625920,250
67,38,625920,250
72,40,626160,250
69,40,626160,250
74,42,626400,480
70,35,626400,480
65,34,626880,480
70,34,626880,480
74,40,626880,480
70,34,627360,480
74,40,627360,480
65,34,627360,480
74,42,627840,960
65,35,627840,1440
70,35,627840,960
69,28,628800,480
72,34,628800,480
64,35,629280,480
67,35,629280,480
72,42,629280,240
70,38,629520,240
70,42,629760,480
64,35,629760,480
67,35,629760,480
70,38,630240,480
67,32,630240,480
64,32,630240,480
64,35,630720,960
67,35,630720,960
70,42,630720,960
69,39,631680,480
65,33,631680,480
72,42,632160,240
69,35,632160,240
70,37,632400,240
67,31,632400,240
65,35,632640,480
69,42,632640,480
64,30,633120,480
67,36,633120,480
65,35,633600,240
69,42,633600,240
77,35,633840,220
79,37,634080,220
81,38,634320,220
82,40,634560,220
84,41,634800,220
86,46,635040,480
86,44,635520,480
86,44,636000,480
86,46,636480,720
88,39,637200,120
86,39,637320,120
84,46,637440,480
84,46,637920,240
76,35,637920,480
82,41,638160,240
76,35,638400,480
82,46,638400,480
82,41,638880,480
76,32,638880,480
76,35,639360,960
82,46,639360,960
81,42,640320,480
77,33,640320,480
84,46,640800,240
81,35,640800,240
82,40,641040,240
79,31,641040,240
81,46,641280,480
77,35,641280,480
76,30,641760,480
79,39,641760,480
84,63,642240,120
81,63,642240,120
84,50,642480,120
81,50,642480,120
79,33,642960,120
82,33,642960,120
77,33,643440,120
81,33,643440,120
79,33,643920,120
70,33,643920,120
77,33,644400,120
69,33,644400,120
67,33,644880,120
76,33,644880,120
81,72,645240,120
84,75,645360,120
81,72,645480,120
79,70,645720,120
82,75,645840,120
79,70,645960,120
77,72,646200,120
81,75,646320,120
77,71,646440,120
70,71,646680,120
79,75,646800,120
70,71,646920,120
69,71,647160,120
77,75,647280,120
69,71,647400,120
67,71,647640,120
76,75,647760,120
67,71,647880,120
69,75,648000,480
72,75,648000,480
77,75,648000,480
69,70,648960,60
70,65,649020,60
69,70,649080,60
70,66,649140,60
69,70,649200,40
70,66,649240,40
69,66,649280,40
67,70,649320,60
65,66,649380,60
72,75,649440,960
76,70,650400,60
77,66,650460,60
76,70,650520,60
77,66,650580,60
76,70,650640,40
77,65,650680,40
76,66,650720,40
74,70,650760,60
72,65,650820,60
77,75,650880,960
81,70,651840,60
82,65,651900,60
81,70,651960,60
82,66,652020,60
81,70,652080,40
82,66,652120,40
81,66,652160,40
79,70,652200,60
77,66,652260,60
84,75,652320,240
84,75,652800,240
88,70,653280,60
89,66,653340,60
88,70,653400,60
89,66,653460,60
88,70,653520,40
89,65,653560,40
88,66,653600,40
86,70,653640,60
84,65,653700,60
89,75,653760,120
81,88,654240,720
73,75,654960,240
74,75,655200,120
77,89,655680,720
69,75,656400,240
70,70,656640,60
72,65,656700,60
70,70,656760,60
72,66,656820,60
70,70,656880,40
72,66,656920,40
70,66,656960,40
69,70,657000,60
67,66,657060,60
72,84,657120,120
72,72,657600,120
67,72,657600,120
76,86,657600,120
77,86,658080,120
69,72,658080,120
72,72,658080,120
65,79,658560,120
53,40,0,240
57,30,240,240
60,33,480,240
57,30,720,240
60,34,960,240
57,30,1200,240
53,40,1440,240
60,29,1680,240
63,31,1920,240
60,27,2160,240
63,31,2400,240
60,28,2640,240
53,40,2880,240
58,30,3120,240
62,33,3360,240
58,30,3600,240
62,33,3840,240
58,30,4080,240
53,40,4320,240
55,23,4560,240
58,28,4800,240
55,24,5040,240
58,29,5280,240
55,24,5520,240
53,30,5760,480
57,30,5760,480
53,47,8640,480
45,44,9120,480
50,48,9600,480
43,48,10080,480
48,49,10560,720
45,47,11280,240
41,52,11520,480
50,40,12000,480
46,44,12480,480
45,47,12960,480
50,40,13920,480
46,40,14400,480
48,41,15360,480
41,43,15840,480
72,40,16800,360
69,32,16800,360
67,28,17160,120
70,35,17160,120
69,40,17280,120
65,32,17280,120
65,32,17760,120
69,40,17760,120
65,29,18240,360
69,37,18240,360
67,33,18600,120
60,26,18600,120
65,38,18720,120
57,30,18720,120
65,35,19200,120
57,28,19200,120
65,35,19680,480
57,28,19680,480
60,28,20160,120
67,36,20160,120
67,35,20640,120
60,28,20640,120
60,28,21120,120
67,35,21120,120
67,40,21600,480
60,32,21600,480
69,35,22080,480
65,28,22080,480
72,40,22560,360
69,32,22560,360
70,35,22920,120
67,28,22920,120
65,32,23040,120
69,40,23040,120
65,32,23520,120
69,40,23520,120
69,37,24000,360
65,29,24000,360
67,33,24360,120
60,26,24360,120
65,38,24480,120
57,30,24480,120
57,28,24960,120
65,35,24960,120
57,28,25440,120
65,35,25440,120
67,37,25920,480
60,29,25920,480
60,28,26880,480
67,35,26880,480
65,39,27360,480
70,35,28320,480
60,28,28320,480
64,28,28320,480
69,39,28800,480
65,31,28800,480
58,31,29760,480
52,25,29760,480
48,25,29760,480
53,27,30240,480
57,35,30240,480
37,51,31200,480
49,60,31200,480
50,66,31680,240
38,56,31680,240
53,60,31920,240
57,60,32160,240
53,60,32400,240
57,63,32640,240
53,60,32880,240
50,65,33120,240
53,60,33360,240
57,63,33600,240
53,60,33840,240
57,60,34080,240
53,62,34320,240
40,60,34560,120
52,71,34560,120
55,60,35040,120
52,60,35040,120
58,60,35040,120
61,71,35040,120
52,71,36000,120
40,60,36000,120
61,71,36480,120
52,60,36480,120
55,60,36480,120
58,60,36480,120
53,66,37440,240
57,60,37680,240
62,60,37920,240
57,60,38160,240
62,63,38400,240
57,60,38640,240
53,65,38880,240
57,60,39120,240
62,63,39360,240
57,60,39600,240
62,60,39840,240
57,62,40080,240
38,60,40320,120
50,71,40320,120
56,60,40800,120
50,60,40800,120
59,71,40800,120
53,60,40800,120
38,60,41760,120
50,71,41760,120
53,60,42240,120
59,71,42240,120
56,60,42240,120
50,60,42240,120
51,66,43200,240
55,60,43440,240
60,60,43680,240
55,60,43920,240
60,63,44160,240
55,60,44400,240
51,66,44640,240
55,60,44880,240
60,60,45120,240
55,60,45360,240
60,63,45600,240
55,60,45840,240
48,66,46080,240
51,60,46320,240
56,60,46560,240
51,60,46800,240
56,63,47040,240
51,60,47280,240
48,66,47520,240
51,60,47760,240
56,60,48000,240
51,60,48240,240
56,63,48480,240
51,60,48720,240
44,66,48960,240
48,60,49200,240
51,60,49440,240
48,60,49680,240
51,63,49920,240
48,60,50160,240
44,66,50400,240
48,60,50640,240
51,60,50880,240
48,60,51120,240
51,63,51360,240
48,60,51600,120
43,66,51840,240
47,60,52080,240
50,60,52320,240
55,60,52560,240
48,63,52800,240
51,60,53040,240
43,66,53280,240
47,60,53520,240
50,60,53760,240
55,60,54000,240
48,63,54240,240
51,60,54480,240
43,72,54720,720
55,72,54732,720
56,63,55440,130
55,62,55560,130
53,60,55680,130
51,60,55800,130
50,59,55920,130
48,57,56040,130
55,63,56160,120
43,57,56640,120
48,35,57420,60
55,35,57480,60
60,35,57600,480
55,34,58860,60
62,34,58920,60
65,35,59040,480
48,35,60480,480
52,31,60960,480
55,31,61440,480
60,35,61920,480
48,31,62400,480
57,35,63360,960
60,33,63840,480
65,33,63840,480
59,38,64800,960
67,35,65280,480
62,35,65280,480
60,41,66240,480
57,37,66720,480
60,37,66720,480
53,35,67200,480
62,35,67200,480
55,41,67680,480
59,41,67680,480
60,39,69120,160
64,31,69280,160
67,31,69440,160
60,39,69600,160
64,32,69760,160
67,32,69920,160
60,40,70080,160
64,32,70240,160
67,32,70400,160
59,43,70560,160
62,36,70720,160
67,35,70880,160
59,40,71040,160
62,33,71200,160
67,29,71360,160
59,37,71520,160
65,29,71680,160
67,29,71840,160
60,29,72000,480
64,35,72000,480
52,31,72480,480
55,31,72960,480
60,35,73440,480
55,31,73920,480
48,31,74400,480
57,35,74880,240
60,31,75120,240
65,32,75360,240
60,33,75600,240
57,35,75840,240
60,38,76080,240
59,40,76320,240
62,35,76560,240
67,42,76800,240
62,35,77040,240
59,35,77280,240
62,34,77520,240
60,41,77760,480
53,37,78240,480
62,37,78240,480
55,35,78720,480
65,35,78720,480
64,37,79200,480
60,32,79200,480
64,40,79680,480
60,37,80160,480
62,40,80640,480
59,38,81120,480
55,38,81600,480
48,40,82080,480
51,40,82560,480
48,37,83040,480
50,40,83520,480
47,38,84000,480
43,38,84480,480
36,58,84960,480
48,69,84960,480
51,40,85440,480
55,40,85920,480
53,69,86400,480
41,58,86400,480
56,40,86880,480
60,40,87360,480
46,69,87840,480
34,58,87840,480
50,40,88320,480
53,40,88800,480
39,58,89280,480
51,69,89280,480
55,40,89760,480
58,40,90240,480
32,58,90720,480
44,69,90720,480
56,40,91200,480
50,69,91680,480
38,58,91680,480
62,40,92160,480
31,58,92640,480
43,69,92640,480
55,40,93120,480
56,45,93600,480
55,39,94080,480
54,39,94560,480
55,44,95040,480
54,41,96240,240
55,44,96480,480
54,32,97680,250
55,39,97920,250
54,35,98160,250
55,39,98400,250
54,31,98640,250
55,39,98880,250
54,32,99120,250
55,38,99360,480
53,33,100800,480
53,31,101280,480
53,31,101760,480
53,33,102240,960
48,31,103200,480
43,33,103680,480
43,30,104160,480
43,30,104640,480
43,33,105120,960
45,30,106080,480
41,33,106560,480
43,32,107040,480
43,32,107520,480
48,33,108000,480
60,28,109440,480
65,33,109440,480
60,26,109920,480
65,31,109920,480
65,31,110400,480
60,26,110400,480
65,33,110880,960
60,28,110880,1440
64,31,111840,480
55,28,112320,480
62,33,112320,480
62,30,112800,480
55,25,112800,480
62,30,113280,480
55,25,113280,480
55,28,113760,960
62,33,113760,960
60,30,114720,480
57,25,114720,480
53,33,115200,480
55,32,115680,480
53,32,116160,480
40,58,116640,240
52,69,116640,240
56,40,117120,120
57,40,117600,120
53,40,118080,120
55,40,118560,120
53,40,119040,120
40,75,119520,120
52,75,119520,120
44,73,120000,120
56,73,120000,120
57,73,120480,120
45,73,120480,120
41,75,120960,120
53,75,120960,120
55,73,121440,120
43,73,121440,120
55,73,121920,120
43,73,121920,120
48,64,122400,120
52,59,122520,120
55,59,122640,120
60,59,122760,120
48,63,122880,120
52,58,123000,120
55,58,123120,120
60,58,123240,120
48,63,123360,120
52,57,123480,120
55,58,123600,120
60,58,123720,120
48,63,123840,120
52,58,123960,120
55,59,124080,120
60,59,124200,120
48,63,124320,120
52,57,124440,120
55,57,124560,120
60,57,124680,120
48,63,124800,120
53,57,124920,120
55,57,125040,120
62,57,125160,120
48,63,125280,120
52,57,125400,120
55,57,125520,120
60,57,125640,120
48,63,125760,120
52,57,125880,120
55,57,126000,120
60,57,126120,120
48,63,126240,120
52,57,126360,120
55,58,126480,120
60,58,126600,120
48,63,126720,120
52,58,126840,120
55,59,126960,120
60,59,127080,120
48,63,127200,120
52,57,127320,120
55,57,127440,120
60,57,127560,120
48,63,127680,120
53,57,127800,120
55,57,127920,120
62,57,128040,120
60,63,128160,120
48,63,128160,120
52,63,128160,120
55,63,128160,120
64,69,128640,720
52,58,128640,720
56,63,129360,240
44,63,129360,240
57,63,129600,120
45,63,129600,120
60,71,130080,720
48,60,130080,720
52,63,130800,240
53,56,131040,60
55,52,131100,60
53,56,131160,60
55,52,131220,60
53,56,131280,40
55,52,131320,40
53,52,131360,40
52,56,131400,60
50,52,131460,60
55,63,131520,120
55,67,132000,120
43,56,132000,120
48,60,132480,120
60,72,132480,120
48,69,132960,120
36,58,132960,120
53,40,133920,240
57,30,134160,240
60,33,134400,240
57,30,134640,240
60,34,134880,240
57,30,135120,240
53,40,135360,240
60,29,135600,240
63,31,135840,240
60,27,136080,240
63,31,136320,240
60,28,136560,240
53,40,136800,240
58,30,137040,240
62,33,137280,240
58,30,137520,240
62,33,137760,240
58,30,138000,240
53,40,138240,240
55,23,138480,240
58,28,138720,240
55,24,138960,240
58,29,139200,240
55,24,139440,240
57,30,139680,480
53,30,139680,480
53,47,142560,480
45,44,143040,480
50,48,143520,480
43,48,144000,480
48,49,144480,720
45,47,145200,240
41,52,145440,480
50,40,145920,480
46,44,146400,480
45,47,146880,480
50,40,147840,480
46,40,148320,480
48,41,149280,480
41,43,149760,480
69,32,150720,360
72,40,150720,360
67,28,151080,120
70,35,151080,120
69,40,151200,120
65,32,151200,120
69,40,151680,120
65,32,151680,120
65,29,152160,360
69,37,152160,360
60,26,152520,120
67,33,152520,120
65,38,152640,120
57,30,152640,120
57,28,153120,120
65,35,153120,120
57,28,153600,480
65,35,153600,480
67,36,154080,120
60,28,154080,120
67,35,154560,120
60,28,154560,120
60,28,155040,120
67,35,155040,120
60,32,155520,480
67,40,155520,480
69,35,156000,480
65,28,156000,480
69,32,156480,360
72,40,156480,360
67,28,156840,120
70,35,156840,120
65,32,156960,120
69,40,156960,120
65,32,157440,120
69,40,157440,120
65,29,157920,360
69,37,157920,360
60,26,158280,120
67,33,158280,120
57,30,158400,120
65,38,158400,120
65,35,158880,120
57,28,158880,120
57,28,159360,120
65,35,159360,120
67,37,159840,480
60,29,159840,480
60,28,160800,480
67,35,160800,480
65,39,161280,480
64,28,162240,480
60,28,162240,480
70,35,162240,480
69,39,162720,480
65,31,162720,480
58,31,163680,480
52,25,163680,480
48,25,163680,480
53,27,164160,480
57,35,164160,480
37,51,165120,480
49,60,165120,480
50,66,165600,240
38,56,165600,240
53,60,165840,240
57,60,166080,240
53,60,166320,240
57,63,166560,240
53,60,166800,240
50,65,167040,240
53,60,167280,240
57,63,167520,240
53,60,167760,240
57,60,168000,240
53,62,168240,240
52,71,168480,120
40,60,168480,120
55,60,168960,120
52,60,168960,120
58,60,168960,120
61,71,168960,120
52,71,169920,120
40,60,169920,120
58,60,170400,120
61,71,170400,120
52,60,170400,120
55,60,170400,120
53,66,171360,240
57,60,171600,240
62,60,171840,240
57,60,172080,240
62,63,172320,240
57,60,172560,240
53,65,172800,240
57,60,173040,240
62,63,173280,240
57,60,173520,240
62,60,173760,240
57,62,174000,240
38,60,174240,120
50,71,174240,120
59,71,174720,120
56,60,174720,120
50,60,174720,120
53,60,174720,120
38,60,175680,120
50,71,175680,120
53,60,176160,120
50,60,176160,120
59,71,176160,120
56,60,176160,120
51,66,177120,240
55,60,177360,240
60,60,177600,240
55,60,177840,240
60,63,178080,240
55,60,178320,240
51,66,178560,240
55,60,178800,240
60,60,179040,240
55,60,179280,240
60,63,179520,240
55,60,179760,240
48,66,180000,240
51,60,180240,240
56,60,180480,240
51,60,180720,240
56,63,180960,240
51,60,181200,240
48,66,181440,240
51,60,181680,240
56,60,181920,240
51,60,182160,240
56,63,182400,240
51,60,182640,240
44,66,182880,240
48,60,183120,240
51,60,183360,240
48,60,183600,240
51,63,183840,240
48,60,184080,240
44,66,184320,240
48,60,184560,240
51,60,184800,240
48,60,185040,240
51,63,185280,240
48,60,185520,120
43,66,185760,240
47,60,186000,240
50,60,186240,240
55,60,186480,240
48,63,186720,240
51,60,186960,240
43,66,187200,240
47,60,187440,240
50,60,187680,240
55,60,187920,240
48,63,188160,240
51,60,188400,240
43,72,188640,720
55,72,188652,720
56,63,189360,130
55,62,189480,130
53,60,189600,130
51,60,189720,130
50,59,189840,130
48,57,189960,130
55,63,190080,120
43,57,190560,120
48,35,191340,60
55,35,191400,60
60,35,191520,480
55,34,192780,60
62,34,192840,60
65,35,192960,480
48,35,194400,480
52,31,194880,480
55,31,195360,480
60,35,195840,480
48,31,196320,480
57,35,197280,960
65,33,197760,480
60,33,197760,480
59,38,198720,960
62,35,199200,480
67,35,199200,480
60,41,200160,480
57,37,200640,480
60,37,200640,480
62,35,201120,480
53,35,201120,480
55,41,201600,480
59,41,201600,480
60,39,203040,160
64,31,203200,160
67,31,203360,160
60,39,203520,160
64,32,203680,160
67,32,203840,160
60,40,204000,160
64,32,204160,160
67,32,204320,160
59,43,204480,160
62,36,204640,160
67,35,204800,160
59,40,204960,160
62,33,205120,160
67,29,205280,160
59,37,205440,160
65,29,205600,160
67,29,205760,160
64,35,205920,480
60,29,205920,480
52,31,206400,480
55,31,206880,480
60,35,207360,480
55,31,207840,480
48,31,208320,480
57,35,208800,240
60,31,209040,240
65,32,209280,240
60,33,209520,240
57,35,209760,240
60,38,210000,240
59,40,210240,240
62,35,210480,240
67,42,210720,240
62,35,210960,240
59,35,211200,240
62,34,211440,240
60,41,211680,480
62,37,212160,480
53,37,212160,480
55,35,212640,480
65,35,212640,480
64,37,213120,480
60,32,213120,480
64,40,213600,480
60,37,214080,480
62,40,214560,480
59,38,215040,480
55,38,215520,480
48,40,216000,480
51,40,216480,480
48,37,216960,480
50,40,217440,480
47,38,217920,480
43,38,218400,480
48,69,218880,480
36,58,218880,480
51,40,219360,480
55,40,219840,480
41,58,220320,480
53,69,220320,480
56,40,220800,480
60,40,221280,480
34,58,221760,480
46,69,221760,480
50,40,222240,480
53,40,222720,480
51,69,223200,480
39,58,223200,480
55,40,223680,480
58,40,224160,480
44,69,224640,480
32,58,224640,480
56,40,225120,480
38,58,225600,480
50,69,225600,480
62,40,226080,480
43,69,226560,480
31,58,226560,480
55,40,227040,480
56,45,227520,480
55,39,228000,480
54,39,228480,480
55,44,228960,480
54,41,230160,240
55,44,230400,480
54,32,231600,250
55,39,231840,250
54,35,232080,250
55,39,232320,250
54,31,232560,250
55,39,232800,250
54,32,233040,250
55,38,233280,480
53,33,234720,480
53,31,235200,480
53,31,235680,480
53,33,236160,960
48,31,237120,480
43,33,237600,480
43,30,238080,480
43,30,238560,480
43,33,239040,960
45,30,240000,480
41,33,240480,480
43,32,240960,480
43,32,241440,480
48,33,241920,480
60,28,243360,480
65,33,243360,480
60,26,243840,480
65,31,243840,480
65,31,244320,480
60,26,244320,480
60,28,244800,1440
65,33,244800,960
64,31,245760,480
55,28,246240,480
62,33,246240,480
55,25,246720,480
62,30,246720,480
55,25,247200,480
62,30,247200,480
55,28,247680,960
62,33,247680,960
60,30,248640,480
57,25,248640,480
53,33,249120,480
55,32,249600,480
53,32,250080,480
40,58,250560,240
52,69,250560,240
56,40,251040,120
57,40,251520,120
53,40,252000,120
55,40,252480,120
53,40,252960,120
40,75,253440,120
52,75,253440,120
44,73,253920,120
56,73,253920,120
57,73,254400,120
45,73,254400,120
41,75,254880,120
53,75,254880,120
55,73,255360,120
43,73,255360,120
55,73,255840,120
43,73,255840,120
48,64,256320,120
52,59,256440,120
55,59,256560,120
60,59,256680,120
48,63,256800,120
52,58,256920,120
55,58,257040,120
60,58,257160,120
48,63,257280,120
52,57,257400,120
55,58,257520,120
60,58,257640,120
48,63,257760,120
52,58,257880,120
55,59,258000,120
60,59,258120,120
48,63,258240,120
52,57,258360,120
55,57,258480,120
60,57,258600,120
48,63,258720,120
53,57,258840,120
55,57,258960,120
62,57,259080,120
48,63,259200,120
52,57,259320,120
55,57,259440,120
60,57,259560,120
48,63,259680,120
52,57,259800,120
55,57,259920,120
60,57,260040,120
48,63,260160,120
52,57,260280,120
55,58,260400,120
60,58,260520,120
48,63,260640,120
52,58,260760,120
55,59,260880,120
60,59,261000,120
48,63,261120,120
52,57,261240,120
55,57,261360,120
60,57,261480,120
48,63,261600,120
53,57,261720,120
55,57,261840,120
62,57,261960,120
52,63,262080,120
48,63,262080,120
55,63,262080,120
60,63,262080,120
52,58,262560,720
64,69,262560,720
56,63,263280,240
44,63,263280,240
45,63,263520,120
57,63,263520,120
60,71,264000,720
48,60,264000,720
52,63,264720,240
53,56,264960,60
55,52,265020,60
53,56,265080,60
55,52,265140,60
53,56,265200,40
55,52,265240,40
53,52,265280,40
52,56,265320,60
50,52,265380,60
55,63,265440,120
43,56,265920,120
55,67,265920,120
60,72,266400,120
48,60,266400,120
48,69,266880,120
36,58,266880,120
52,46,268320,480
48,42,268800,480
55,46,269280,1440
52,46,271200,480
48,42,271680,480
55,46,272160,1440
62,35,273600,480
53,29,273600,480
57,29,273600,480
62,35,275040,480
53,29,275040,480
57,29,275040,480
62,27,276480,1440
55,27,276480,1440
65,32,276480,1440
64,42,277920,480
60,35,277920,480
52,46,279840,480
48,44,280320,480
43,48,280800,1440
55,47,280800,1440
52,46,282720,480
48,44,283200,480
43,48,283680,1440
55,47,283680,1440
45,29,285120,480
41,29,285120,480
50,35,285120,480
45,29,286560,480
41,29,286560,480
50,35,286560,480
53,36,288000,480
50,30,288000,480
43,30,288000,480
48,32,289440,480
52,37,289440,480
64,40,289920,480
60,37,290400,480
62,40,290880,480
59,38,291360,480
55,38,291840,480
48,40,292320,480
51,40,292800,480
48,37,293280,480
50,40,293760,480
47,38,294240,480
43,38,294720,480
48,69,295200,480
36,58,295200,480
60,40,295680,480
48,40,296160,480
45,69,296640,480
33,58,296640,480
57,40,297120,480
45,40,297600,480
34,58,298080,480
46,69,298080,480
58,40,298560,480
46,40,299040,480
30,58,299520,480
42,69,299520,480
54,40,300000,480
42,40,300480,480
43,69,300960,480
31,58,300960,480
55,40,301440,480
43,40,301920,480
40,58,302400,480
52,69,302400,480
64,40,302880,480
52,40,303360,480
41,58,303840,480
53,69,303840,480
65,40,304320,480
53,40,304800,480
37,58,305280,480
49,69,305280,480
61,40,305760,480
49,40,306240,480
50,69,306720,480
38,58,306720,480
62,40,307200,480
50,40,307680,480
46,69,308160,480
34,58,308160,480
58,40,308640,480
46,40,309120,480
45,44,309600,480
68,38,310800,240
69,41,311040,480
56,32,312240,250
57,39,312480,250
56,35,312720,250
57,39,312960,250
56,31,313200,250
57,39,313440,250
56,32,313680,250
57,39,313920,480
57,31,315360,250
56,28,315600,250
57,31,315840,250
56,24,316080,250
57,31,316320,250
56,25,316560,250
57,31,316800,480
55,63,318240,250
57,57,318480,250
55,63,318720,250
57,49,318960,250
55,63,319200,250
57,51,319440,250
55,63,319680,480
60,29,321120,1920
67,39,321120,250
66,35,321360,250
67,39,321600,250
66,31,321840,250
67,39,322080,250
66,32,322320,250
67,39,322560,480
53,40,324000,240
57,30,324240,240
60,33,324480,240
57,30,324720,240
60,34,324960,240
57,30,325200,240
53,40,325440,240
60,29,325680,240
63,31,325920,240
60,27,326160,240
63,31,326400,240
60,28,326640,240
53,40,326880,240
58,30,327120,240
62,33,327360,240
58,30,327600,240
62,33,327840,240
58,30,328080,240
53,40,328320,240
55,23,328560,240
58,28,328800,240
55,24,329040,240
58,29,329280,240
55,24,329520,240
53,30,329760,480
57,30,329760,480
53,47,332640,480
45,44,333120,480
50,48,333600,480
43,48,334080,480
48,49,334560,720
45,47,335280,240
41,52,335520,480
50,40,336000,480
46,44,336480,480
45,47,336960,480
50,40,337920,480
46,40,338400,480
48,41,339360,480
41,43,339840,480
72,40,340800,360
69,32,340800,360
67,28,341160,120
70,35,341160,120
69,40,341280,120
65,32,341280,120
65,32,341760,120
69,40,341760,120
65,29,342240,360
69,37,342240,360
67,33,342600,120
60,26,342600,120
65,38,342720,120
57,30,342720,120
65,35,343200,120
57,28,343200,120
65,35,343680,480
57,28,343680,480
60,28,344160,120
67,36,344160,120
67,35,344640,120
60,28,344640,120
60,28,345120,120
67,35,345120,120
67,40,345600,480
60,32,345600,480
69,35,346080,480
65,28,346080,480
72,40,346560,360
69,32,346560,360
70,35,346920,120
67,28,346920,120
65,32,347040,120
69,40,347040,120
65,32,347520,120
69,40,347520,120
69,37,348000,360
65,29,348000,360
67,33,348360,120
60,26,348360,120
65,38,348480,120
57,30,348480,120
57,28,348960,120
65,35,348960,120
57,28,349440,120
65,35,349440,120
67,37,349920,480
60,29,349920,480
60,28,350880,480
67,35,350880,480
65,39,351360,480
70,35,352320,480
60,28,352320,480
64,28,352320,480
69,39,352800,480
65,31,352800,480
58,31,353760,480
52,25,353760,480
48,25,353760,480
53,27,354240,480
57,35,354240,480
37,51,355200,480
49,60,355200,480
50,66,355680,240
38,56,355680,240
53,60,355920,240
57,60,356160,240
53,60,356400,240
57,63,356640,240
53,60,356880,240
50,65,357120,240
53,60,357360,240
57,63,357600,240
53,60,357840,240
57,60,358080,240
53,62,358320,240
40,60,358560,120
52,71,358560,120
55,60,359040,120
52,60,359040,120
58,60,359040,120
61,71,359040,120
52,71,360000,120
40,60,360000,120
61,71,360480,120
52,60,360480,120
55,60,360480,120
58,60,360480,120
53,66,361440,240
57,60,361680,240
62,60,361920,240
57,60,362160,240
62,63,362400,240
57,60,362640,240
53,65,362880,240
57,60,363120,240
62,63,363360,240
57,60,363600,240
62,60,363840,240
57,62,364080,240
38,60,364320,120
50,71,364320,120
56,60,364800,120
50,60,364800,120
59,71,364800,120
53,60,364800,120
38,60,365760,120
50,71,365760,120
53,60,366240,120
59,71,366240,120
56,60,366240,120
50,60,366240,120
51,66,367200,240
55,60,367440,240
60,60,367680,240
55,60,367920,240
60,63,368160,240
55,60,368400,240
51,65,368640,240
55,60,368880,240
60,63,369120,240
55,60,369360,240
60,60,369600,240
55,62,369840,240
39,71,370080,120
57,60,370560,120
54,60,370560,120
60,71,370560,120
51,60,370560,120
39,71,371520,120
51,60,372000,120
60,71,372000,120
57,60,372000,120
54,60,372000,120
49,66,372960,240
53,60,373200,240
58,60,373440,240
53,60,373680,240
58,63,373920,240
53,60,374160,240
49,66,374400,240
53,60,374640,240
58,60,374880,240
53,60,375120,240
58,63,375360,240
53,60,375600,240
48,66,375840,240
53,60,376080,240
57,60,376320,240
53,60,376560,240
57,63,376800,240
53,60,377040,240
48,66,377280,240
53,60,377520,240
57,60,377760,240
53,60,378000,240
57,63,378240,240
53,60,378480,240
47,66,378720,240
53,60,378960,240
56,60,379200,240
53,60,379440,240
56,63,379680,240
53,60,379920,240
47,66,380160,240
53,60,380400,240
56,60,380640,240
53,60,380880,240
56,63,381120,240
53,60,381360,240
48,66,381600,240
52,60,381840,240
55,60,382080,240
60,60,382320,240
53,63,382560,240
56,60,382800,240
48,66,383040,240
52,60,383280,240
55,60,383520,240
60,60,383760,240
53,63,384000,240
56,60,384240,240
60,72,384480,720
61,63,385200,130
60,62,385320,130
58,60,385440,130
56,60,385560,130
55,59,385680,130
53,57,385800,130
60,63,385920,120
48,57,386400,120
36,48,386400,120
41,35,387180,60
48,35,387240,60
53,35,387360,480
48,34,388620,60
55,34,388680,60
58,35,388800,480
41,35,390240,480
45,31,390720,480
48,31,391200,480
53,35,391680,480
41,31,392160,480
50,35,393120,960
53,33,393600,480
58,33,393600,480
52,38,394560,960
60,35,395040,480
55,35,395040,480
53,41,396000,480
50,31,396480,480
53,37,396480,480
46,29,396960,480
55,35,396960,480
48,34,397440,480
52,41,397440,480
53,39,398880,160
57,31,399040,160
60,31,399200,160
53,39,399360,160
57,32,399520,160
60,32,399680,160
53,40,399840,160
57,32,400000,160
60,32,400160,160
52,43,400320,160
55,36,400480,160
60,35,400640,160
52,40,400800,160
55,33,400960,160
60,29,401120,160
52,37,401280,160
58,29,401440,160
60,29,401600,160
53,29,401760,480
57,35,401760,480
57,31,402240,480
60,31,402720,480
65,35,403200,480
60,31,403680,480
53,31,404160,480
62,35,404640,240
65,31,404880,240
70,32,405120,240
65,33,405360,240
62,35,405600,240
65,38,405840,240
64,40,406080,240
67,35,406320,240
72,42,406560,240
67,35,406800,240
64,35,407040,240
67,34,407280,240
65,41,407520,480
58,37,408000,480
67,37,408000,480
60,35,408480,480
70,35,408480,480
69,37,408960,480
65,32,408960,480
69,40,409440,480
65,37,409920,480
67,40,410400,480
64,38,410880,480
60,38,411360,480
53,40,411840,480
56,40,412320,480
53,37,412800,480
55,40,413280,480
52,38,413760,480
48,38,414240,480
41,58,414720,480
53,69,414720,480
56,40,415200,480
60,40,415680,480
58,69,416160,480
46,58,416160,480
61,40,416640,480
65,40,417120,480
51,69,417600,480
39,58,417600,480
55,40,418080,480
58,40,418560,480
44,58,419040,480
56,69,419040,480
60,40,419520,480
63,40,420000,480
37,58,420480,480
49,69,420480,480
61,40,420960,480
55,69,421440,480
43,58,421440,480
67,40,421920,480
36,58,422400,480
48,69,422400,480
60,40,422880,480
61,45,423360,480
60,39,423840,480
59,39,424320,480
60,44,424800,480
59,41,426000,240
60,44,426240,480
59,32,427440,250
60,39,427680,250
59,35,427920,250
60,39,428160,250
59,31,428400,250
60,39,428640,250
59,32,428880,250
60,38,429120,480
58,33,430560,480
58,31,431040,480
58,31,431520,480
58,33,432000,960
53,31,432960,480
48,33,433440,480
48,30,433920,480
48,30,434400,480
48,33,434880,960
50,30,435840,480
46,33,436320,480
48,32,436800,480
48,32,437280,480
53,33,437760,480
65,28,439200,480
70,33,439200,480
65,26,439680,480
70,31,439680,480
70,31,440160,480
65,26,440160,480
70,33,440640,960
65,28,440640,1440
69,31,441600,480
60,28,442080,480
67,33,442080,480
67,30,442560,480
60,25,442560,480
67,30,443040,480
60,25,443040,480
60,28,443520,960
67,33,443520,960
65,30,444480,480
62,25,444480,480
58,33,444960,480
60,32,445440,480
58,32,445920,480
45,58,446400,240
57,69,446400,240
61,40,446880,120
62,40,447360,120
58,40,447840,120
60,40,448320,120
58,40,448800,120
45,75,449280,120
57,75,449280,120
49,73,449760,120
61,73,449760,120
62,73,450240,120
50,73,450240,120
46,75,450720,120
58,75,450720,120
60,73,451200,120
48,73,451200,120
48,73,451680,120
36,73,451680,120
41,64,452160,120
45,59,452280,120
48,59,452400,120
53,59,452520,120
41,63,452640,120
45,58,452760,120
48,58,452880,120
53,58,453000,120
41,63,453120,120
45,57,453240,120
48,58,453360,120
53,58,453480,120
41,63,453600,120
45,58,453720,120
48,59,453840,120
53,59,453960,120
41,63,454080,120
45,57,454200,120
48,57,454320,120
53,57,454440,120
41,63,454560,120
46,57,454680,120
48,57,454800,120
55,57,454920,120
41,63,455040,120
45,57,455160,120
48,57,455280,120
53,57,455400,120
41,63,455520,120
45,57,455640,120
48,57,455760,120
53,57,455880,120
41,63,456000,120
45,57,456120,120
48,58,456240,120
53,58,456360,120
41,63,456480,120
45,58,456600,120
48,59,456720,120
53,59,456840,120
41,63,456960,120
45,57,457080,120
48,57,457200,120
53,57,457320,120
41,63,457440,120
46,57,457560,120
48,57,457680,120
55,57,457800,120
65,63,457920,120
53,63,457920,120
57,63,457920,120
60,63,457920,120
57,69,458400,720
45,58,458400,720
61,63,459120,240
49,63,459120,240
62,63,459360,120
50,63,459360,120
65,71,459840,720
53,60,459840,720
57,63,460560,240
58,56,460800,60
60,52,460860,60
58,56,460920,60
60,52,460980,60
58,56,461040,40
60,52,461080,40
58,52,461120,40
57,56,461160,60
55,52,461220,60
60,63,461280,120
60,67,461760,120
48,56,461760,120
53,60,462240,120
65,72,462240,120
53,69,462720,120
41,58,462720,120
52,46,464160,480
48,42,464640,480
55,46,465120,1440
52,46,467040,480
48,42,467520,480
55,46,468000,1440
62,35,469440,480
53,29,469440,480
57,29,469440,480
62,35,470880,480
53,29,470880,480
57,29,470880,480
62,27,472320,1440
55,27,472320,1440
65,32,472320,1440
64,42,473760,480
60,35,473760,480
52,46,475680,480
48,44,476160,480
43,48,476640,1440
55,47,476640,1440
52,46,478560,480
48,44,479040,480
43,48,479520,1440
55,47,479520,1440
45,29,480960,480
41,29,480960,480
50,35,480960,480
45,29,482400,480
41,29,482400,480
50,35,482400,480
53,36,483840,480
50,30,483840,480
43,30,483840,480
48,32,485280,480
52,37,485280,480
64,40,485760,480
60,37,486240,480
62,40,486720,480
59,38,487200,480
55,38,487680,480
48,40,488160,480
51,40,488640,480
48,37,489120,480
50,40,489600,480
47,38,490080,480
43,38,490560,480
48,69,491040,480
36,58,491040,480
60,40,491520,480
48,40,492000,480
45,69,492480,480
33,58,492480,480
57,40,492960,480
45,40,493440,480
34,58,493920,480
46,69,493920,480
58,40,494400,480
46,40,494880,480
30,58,495360,480
42,69,495360,480
54,40,495840,480
42,40,496320,480
43,69,496800,480
31,58,496800,480
55,40,497280,480
43,40,497760,480
40,58,498240,480
52,69,498240,480
64,40,498720,480
52,40,499200,480
41,58,499680,480
53,69,499680,480
65,40,500160,480
53,40,500640,480
37,58,501120,480
49,69,501120,480
61,40,501600,480
49,40,502080,480
50,69,502560,480
38,58,502560,480
62,40,503040,480
50,40,503520,480
46,69,504000,480
34,58,504000,480
58,40,504480,480
46,40,504960,480
45,44,505440,480
68,38,506640,240
69,41,506880,480
56,32,508080,250
57,39,508320,250
56,35,508560,250
57,39,508800,250
56,31,509040,250
57,39,509280,250
56,32,509520,250
57,39,509760,480
57,31,511200,250
56,28,511440,250
57,31,511680,250
56,24,511920,250
57,31,512160,250
56,25,512400,250
57,31,512640,480
55,63,514080,250
57,57,514320,250
55,63,514560,250
57,49,514800,250
55,63,515040,250
57,51,515280,250
55,63,515520,480
60,29,516960,1920
67,39,516960,250
66,35,517200,250
67,39,517440,250
66,31,517680,250
67,39,517920,250
66,32,518160,250
67,39,518400,480
53,40,519840,240
57,30,520080,240
60,33,520320,240
57,30,520560,240
60,34,520800,240
57,30,521040,240
53,40,521280,240
60,29,521520,240
63,31,521760,240
60,27,522000,240
63,31,522240,240
60,28,522480,240
53,40,522720,240
58,30,522960,240
62,33,523200,240
58,30,523440,240
62,33,523680,240
58,30,523920,240
53,40,524160,240
55,23,524400,240
58,28,524640,240
55,24,524880,240
58,29,525120,240
55,24,525360,240
53,30,525600,480
57,30,525600,480
53,47,528480,480
45,44,528960,480
50,48,529440,480
43,48,529920,480
48,49,530400,720
45,47,531120,240
41,52,531360,480
50,40,531840,480
46,44,532320,480
45,47,532800,480
50,40,533760,480
46,40,534240,480
48,41,535200,480
41,43,535680,480
72,40,536640,360
69,32,536640,360
67,28,537000,120
70,35,537000,120
69,40,537120,120
65,32,537120,120
65,32,537600,120
69,40,537600,120
65,29,538080,360
69,37,538080,360
67,33,538440,120
60,26,538440,120
65,38,538560,120
57,30,538560,120
65,35,539040,120
57,28,539040,120
65,35,539520,480
57,28,539520,480
60,28,540000,120
67,36,540000,120
67,35,540480,120
60,28,540480,120
60,28,540960,120
67,35,540960,120
67,40,541440,480
60,32,541440,480
69,35,541920,480
65,28,541920,480
72,40,542400,360
69,32,542400,360
70,35,542760,120
67,28,542760,120
65,32,542880,120
69,40,542880,120
65,32,543360,120
69,40,543360,120
69,37,543840,360
65,29,543840,360
67,33,544200,120
60,26,544200,120
65,38,544320,120
57,30,544320,120
57,28,544800,120
65,35,544800,120
57,28,545280,120
65,35,545280,120
67,37,545760,480
60,29,545760,480
60,28,546720,480
67,35,546720,480
65,39,547200,480
70,35,548160,480
60,28,548160,480
64,28,548160,480
69,39,548640,480
65,31,548640,480
58,31,549600,480
52,25,549600,480
48,25,549600,480
53,27,550080,480
57,35,550080,480
37,51,551040,480
49,60,551040,480
50,66,551520,240
38,56,551520,240
53,60,551760,240
57,60,552000,240
53,60,552240,240
57,63,552480,240
53,60,552720,240
50,65,552960,240
53,60,553200,240
57,63,553440,240
53,60,553680,240
57,60,553920,240
53,62,554160,240
40,60,554400,120
52,71,554400,120
55,60,554880,120
52,60,554880,120
58,60,554880,120
61,71,554880,120
52,71,555840,120
40,60,555840,120
61,71,556320,120
52,60,556320,120
55,60,556320,120
58,60,556320,120
53,66,557280,240
57,60,557520,240
62,60,557760,240
57,60,558000,240
62,63,558240,240
57,60,558480,240
53,65,558720,240
57,60,558960,240
62,63,559200,240
57,60,559440,240
62,60,559680,240
57,62,559920,240
38,60,560160,120
50,71,560160,120
56,60,560640,120
50,60,560640,120
59,71,560640,120
53,60,560640,120
38,60,561600,120
50,71,561600,120
53,60,562080,120
59,71,562080,120
56,60,562080,120
50,60,562080,120
51,66,563040,240
55,60,563280,240
60,60,563520,240
55,60,563760,240
60,63,564000,240
55,60,564240,240
51,65,564480,240
55,60,564720,240
60,63,564960,240
55,60,565200,240
60,60,565440,240
55,62,565680,240
39,71,565920,120
57,60,566400,120
54,60,566400,120
60,71,566400,120
51,60,566400,120
39,71,567360,120
51,60,567840,120
60,71,567840,120
57,60,567840,120
54,60,567840,120
49,66,568800,240
53,60,569040,240
58,60,569280,240
53,60,569520,240
58,63,569760,240
53,60,570000,240
49,66,570240,240
53,60,570480,240
58,60,570720,240
53,60,570960,240
58,63,571200,240
53,60,571440,240
48,66,571680,240
53,60,571920,240
57,60,572160,240
53,60,572400,240
57,63,572640,240
53,60,572880,240
48,66,573120,240
53,60,573360,240
57,60,573600,240
53,60,573840,240
57,63,574080,240
53,60,574320,240
47,66,574560,240
53,60,574800,240
56,60,575040,240
53,60,575280,240
56,63,575520,240
53,60,575760,240
47,66,576000,240
53,60,576240,240
56,60,576480,240
53,60,576720,240
56,63,576960,240
53,60,577200,240
48,66,577440,240
52,60,577680,240
55,60,577920,240
60,60,578160,240
53,63,578400,240
56,60,578640,240
48,66,578880,240
52,60,579120,240
55,60,579360,240
60,60,579600,240
53,63,579840,240
56,60,580080,240
60,72,580320,720
61,63,581040,130
60,62,581160,130
58,60,581280,130
56,60,581400,130
55,59,581520,130
53,57,581640,130
60,63,581760,120
48,57,582240,120
36,48,582240,120
41,35,583020,60
48,35,583080,60
53,35,583200,480
48,34,584460,60
55,34,584520,60
58,35,584640,480
41,35,586080,480
45,31,586560,480
48,31,587040,480
53,35,587520,480
41,31,588000,480
50,35,588960,960
53,33,589440,480
58,33,589440,480
52,38,590400,960
60,35,590880,480
55,35,590880,480
53,41,591840,480
50,31,592320,480
53,37,592320,480
46,29,592800,480
55,35,592800,480
48,34,593280,480
52,41,593280,480
53,39,594720,160
57,31,594880,160
60,31,595040,160
53,39,595200,160
57,32,595360,160
60,32,595520,160
53,40,595680,160
57,32,595840,160
60,32,596000,160
52,43,596160,160
55,36,596320,160
60,35,596480,160
52,40,596640,160
55,33,596800,160
60,29,596960,160
52,37,597120,160
58,29,597280,160
60,29,597440,160
53,29,597600,480
57,35,597600,480
57,31,598080,480
60,31,598560,480
65,35,599040,480
60,31,599520,480
53,31,600000,480
62,35,600480,240
65,31,600720,240
70,32,600960,240
65,33,601200,240
62,35,601440,240
65,38,601680,240
64,40,601920,240
67,35,602160,240
72,42,602400,240
67,35,602640,240
64,35,602880,240
67,34,603120,240
65,41,603360,480
58,37,603840,480
67,37,603840,480
60,35,604320,480
70,35,604320,480
69,37,604800,480
65,32,604800,480
69,40,605280,480
65,37,605760,480
67,40,606240,480
64,38,606720,480
60,38,607200,480
53,40,607680,480
56,40,608160,480
53,37,608640,480
55,40,609120,480
52,38,609600,480
48,38,610080,480
41,58,610560,480
53,69,610560,480
56,40,611040,480
60,40,611520,480
58,69,612000,480
46,58,612000,480
61,40,612480,480
65,40,612960,480
51,69,613440,480
39,58,613440,480
55,40,613920,480
58,40,614400,480
44,58,614880,480
56,69,614880,480
60,40,615360,480
63,40,615840,480
37,58,616320,480
49,69,616320,480
61,40,616800,480
55,69,617280,480
43,58,617280,480
67,40,617760,480
36,58,618240,480
48,69,618240,480
60,40,618720,480
61,45,619200,480
60,39,619680,480
59,39,620160,480
60,44,620640,480
59,41,621840,240
60,44,622080,480
59,32,623280,250
60,39,623520,250
59,35,623760,250
60,39,624000,250
59,31,624240,250
60,39,624480,250
59,32,624720,250
60,38,624960,480
58,33,626400,480
58,31,626880,480
58,31,627360,480
58,33,627840,960
53,31,628800,480
48,33,629280,480
48,30,629760,480
48,30,630240,480
48,33,630720,960
50,30,631680,480
46,33,632160,480
48,32,632640,480
48,32,633120,480
53,33,633600,480
65,28,635040,480
70,33,635040,480
65,26,635520,480
70,31,635520,480
70,31,636000,480
65,26,636000,480
70,33,636480,960
65,28,636480,1440
69,31,637440,480
60,28,637920,480
67,33,637920,480
67,30,638400,480
60,25,638400,480
67,30,638880,480
60,25,638880,480
60,28,639360,960
67,33,639360,960
65,30,640320,480
62,25,640320,480
58,33,640800,480
60,32,641280,480
58,32,641760,480
45,58,642240,240
57,69,642240,240
61,40,642720,120
62,40,643200,120
58,40,643680,120
60,40,644160,120
58,40,644640,120
45,75,645120,120
57,75,645120,120
49,73,645600,120
61,73,645600,120
62,73,646080,120
50,73,646080,120
46,75,646560,120
58,75,646560,120
60,73,647040,120
48,73,647040,120
48,73,647520,120
36,73,647520,120
41,64,648000,120
45,59,648120,120
48,59,648240,120
53,59,648360,120
41,63,648480,120
45,58,648600,120
48,58,648720,120
53,58,648840,120
41,63,648960,120
45,57,649080,120
48,58,649200,120
53,58,649320,120
41,63,649440,120
45,58,649560,120
48,59,649680,120
53,59,649800,120
41,63,649920,120
45,57,650040,120
48,57,650160,120
53,57,650280,120
41,63,650400,120
46,57,650520,120
48,57,650640,120
55,57,650760,120
41,63,650880,120
45,57,651000,120
48,57,651120,120
53,57,651240,120
41,63,651360,120
45,57,651480,120
48,57,651600,120
53,57,651720,120
41,63,651840,120
45,57,651960,120
48,58,652080,120
53,58,652200,120
41,63,652320,120
45,58,652440,120
48,59,652560,120
53,59,652680,120
41,63,652800,120
45,57,652920,120
48,57,653040,120
53,57,653160,120
41,63,653280,120
46,57,653400,120
48,57,653520,120
55,57,653640,120
65,63,653760,120
53,63,653760,120
57,63,653760,120
60,63,653760,120
57,69,654240,720
45,58,654240,720
61,63,654960,240
49,63,654960,240
62,63,655200,120
50,63,655200,120
65,71,655680,720
53,60,655680,720
57,63,656400,240
58,56,656640,60
60,52,656700,60
58,56,656760,60
60,52,656820,60
58,56,656880,40
60,52,656920,40
58,52,656960,40
57,56,657000,60
55,52,657060,60
60,63,657120,120
60,67,657600,120
48,56,657600,120
53,60,658080,120
65,72,658080,120
53,69,658560,120
41,58,658560,120
