note,velocity,position,duration
69,80,1800,569
70,80,1920,455
69,80,2400,455
65,80,2880,455
60,80,3360,911
58,80,4320,1319
60,80,4800,227
65,80,5040,227
60,80,5280,455
62,80,5760,683
62,80,6480,113
60,80,6600,113
58,80,6720,455
57,80,7200,911
58,80,8160,455
65,80,8640,455
53,80,9120,359
69,80,9480,569
70,80,9600,455
69,80,10080,455
65,80,10560,455
65,80,11040,911
72,80,11040,911
70,80,12000,341
65,80,12360,569
77,80,12480,455
75,80,12960,455
65,80,13440,455
74,80,13440,455
75,80,13920,227
77,80,14160,455
74,80,14640,227
65,80,14880,683
69,80,14880,683
72,80,14880,683
70,80,15600,227
69,80,15840,227
65,80,16080,227
53,80,16320,227
60,80,16320,227
58,80,16560,227
57,80,16800,455
65,80,17280,455
70,80,17280,455
74,80,17280,455
60,64,18000,227
69,64,18000,227
65,80,18720,227
70,80,18720,227
70,80,18960,455
60,64,19440,455
70,80,20640,227
69,80,20880,227
62,80,21120,455
70,80,21120,455
72,80,21600,227
74,80,21840,455
75,80,22320,455
74,80,22800,683
72,80,23520,455
70,80,24000,455
72,80,24480,455
65,80,24960,455
70,80,24960,455
74,80,24960,455
60,64,25680,227
69,64,25680,227
65,80,26400,227
70,80,26400,227
70,80,26640,683
75,64,27120,227
74,64,27360,227
70,64,27600,227
65,64,27840,227
65,80,28080,227
63,64,28080,227
65,80,28320,227
62,64,28320,227
65,80,28560,227
60,64,28560,227
65,80,28800,455
70,80,28800,455
72,80,28800,455
77,80,28800,455
75,80,29280,227
65,80,29520,455
74,80,29520,455
75,80,30000,227
58,64,30240,227
60,64,30240,227
65,64,30240,227
65,80,30480,455
74,80,30480,455
58,64,30960,227
60,64,30960,227
65,64,30960,227
72,80,31200,455
65,80,31680,455
69,80,31680,455
75,80,31680,455
65,80,32160,113
69,80,32160,113
74,80,32160,113
60,64,32280,113
58,64,32400,113
57,64,32520,569
58,64,32640,455
62,64,32640,455
65,64,32640,455
70,80,33120,227
65,80,33360,227
69,80,33360,227
70,80,33360,227
70,80,33600,227
65,80,33840,227
72,80,33840,227
55,64,34080,227
60,64,34080,227
67,80,34320,455
74,80,34320,455
58,64,34800,227
63,64,34800,227
65,64,34800,227
60,80,35040,227
72,80,35040,227
70,64,35280,227
69,80,35520,227
74,80,35520,227
65,64,35760,227
60,64,36000,227
58,64,36240,227
58,80,36480,455
62,64,36480,455
65,64,36480,455
70,80,36960,227
58,80,37200,227
62,80,37200,227
65,80,37200,227
70,80,37200,227
70,80,37440,227
72,80,37680,227
60,64,37920,227
65,64,37920,227
69,64,37920,227
74,80,38160,455
60,64,38640,227
65,64,38640,227
72,80,38880,227
75,80,38880,227
70,64,39120,227
63,80,39360,227
69,80,39360,227
74,80,39360,227
63,64,39600,227
62,80,39840,227
70,80,39840,227
60,64,40080,227
62,80,40320,911
67,80,40320,911
70,80,40320,911
74,80,40320,911
62,80,41760,227
63,80,41760,227
67,80,41760,227
70,80,41760,227
62,80,42000,455
63,80,42000,455
67,80,42000,455
70,80,42000,455
67,71,42480,227
70,71,42480,227
74,71,42480,227
79,71,42480,227
69,71,42720,227
72,71,42720,227
81,71,42720,227
74,71,42960,455
79,71,42960,455
86,71,42960,455
65,80,43440,227
65,80,43680,227
65,80,43920,227
65,80,44160,455
69,80,44160,455
72,80,44160,455
77,80,44160,455
75,82,44640,227
65,83,44880,455
74,83,44880,455
75,85,45360,227
58,75,45600,227
60,75,45600,227
65,75,45600,227
74,87,45840,455
58,78,46320,227
60,78,46320,227
65,78,46320,227
72,90,46560,455
65,92,47040,455
70,92,47040,455
65,94,47520,455
69,94,47520,455
48,96,48000,1823
53,96,48000,1823
58,80,49920,113
62,80,49920,113
58,80,50040,113
62,80,50040,113
58,80,50280,113
62,80,50280,113
58,80,50400,113
62,80,50400,113
58,80,50520,113
62,80,50520,113
48,80,51120,113
53,80,51120,113
50,80,51240,113
55,80,51240,113
58,80,51480,113
62,80,51480,113
58,80,51720,227
62,80,51720,227
58,80,51960,113
62,80,51960,113
62,80,52320,113
65,80,52320,113
62,80,52440,113
65,80,52440,113
62,80,52560,113
65,80,52560,113
62,80,52680,113
65,80,52680,113
70,80,52920,113
62,80,53280,113
65,80,53280,113
62,80,53400,113
65,80,53400,113
62,80,53520,113
65,80,53520,113
62,80,53640,113
65,80,53640,113
53,80,53760,113
55,81,53880,113
58,81,53880,113
62,81,53880,113
58,84,54240,113
62,84,54240,113
55,85,54360,113
58,85,54360,113
62,85,54360,113
53,87,54600,113
55,88,54720,113
55,89,54840,0
58,89,54840,113
62,89,54840,113
55,91,55080,113
56,92,55200,113
58,92,55200,113
62,92,55200,113
55,93,55320,113
58,93,55320,113
62,93,55320,113
53,94,55440,113
58,94,55440,113
62,94,55440,113
53,95,55560,113
53,96,55680,113
55,97,55800,113
65,97,55800,113
65,98,55920,113
58,99,56040,113
58,100,56160,113
62,100,56160,113
55,101,56280,113
62,102,56400,113
65,102,56400,113
53,103,56520,113
56,104,56640,113
60,104,56640,113
63,104,56640,113
56,105,56760,113
60,105,56760,113
63,105,56760,113
56,106,56880,113
60,106,56880,113
63,106,56880,113
56,107,57000,113
60,107,57000,113
63,107,57000,113
56,108,57120,227
60,108,57120,227
63,108,57120,227
67,112,57600,113
70,112,57600,113
79,112,57600,113
67,112,57720,113
79,112,57720,113
74,112,57840,113
86,112,57840,113
79,112,57960,113
72,112,58080,227
77,112,58080,227
84,112,58080,227
79,112,58320,113
70,112,58440,227
75,112,58440,227
82,112,58440,227
79,112,58680,113
72,112,58800,113
77,112,58800,113
84,112,58800,113
79,112,58920,113
74,112,59040,113
86,112,59040,113
79,112,59160,113
77,112,59280,227
89,112,59280,227
67,112,59520,113
70,112,59520,113
79,112,59520,113
67,112,59640,113
79,112,59640,113
74,112,59760,113
86,112,59760,113
79,112,59880,113
72,112,60000,227
77,112,60000,227
84,112,60000,227
79,112,60240,113
79,112,60360,227
82,112,60360,227
91,112,60360,227
79,112,60600,113
77,112,60720,113
81,112,60720,113
89,112,60720,113
79,112,60840,113
74,112,60960,113
86,112,60960,113
67,112,61080,113
79,112,61080,113
72,112,61200,113
84,112,61200,113
74,112,61320,113
86,112,61320,113
67,112,61440,113
70,112,61440,113
79,112,61440,113
67,112,61560,113
79,112,61560,113
74,112,61680,113
86,112,61680,113
79,112,61800,113
72,112,61920,227
77,112,61920,227
84,112,61920,227
79,112,62160,113
70,112,62280,227
75,112,62280,227
82,112,62280,227
79,112,62520,113
72,112,62640,113
77,112,62640,113
84,112,62640,113
79,112,62760,113
74,112,62880,113
86,112,62880,113
79,112,63000,113
77,112,63120,227
89,112,63120,227
67,112,63360,113
70,112,63360,113
79,112,63360,113
67,112,63480,113
79,112,63480,113
74,112,63600,113
86,112,63600,113
79,112,63720,113
72,112,63840,227
77,112,63840,227
84,112,63840,227
79,112,64080,113
79,112,64200,227
82,112,64200,227
91,112,64200,227
79,112,64440,113
77,112,64560,113
81,112,64560,113
89,112,64560,113
79,112,64680,113
74,112,64800,113
86,112,64800,113
67,112,64920,113
79,112,64920,113
72,112,65040,113
84,112,65040,113
74,112,65160,113
86,112,65160,113
67,112,65280,341
74,112,65280,341
79,112,65280,341
72,112,65640,341
74,112,65640,341
84,112,65640,341
74,112,66000,455
81,112,66000,455
84,112,66000,455
86,112,66000,455
77,112,66480,683
81,112,66480,683
86,112,66480,683
89,112,66480,683
79,112,67320,113
77,112,67440,113
74,112,67560,113
73,112,67680,113
74,112,67800,113
86,112,67800,113
75,112,67920,113
87,112,67920,113
77,112,68040,113
89,112,68040,113
81,112,68160,113
93,112,68160,113
82,112,68280,113
94,112,68280,113
84,112,68400,113
96,112,68400,113
89,112,68520,341
101,112,68520,341
70,80,69000,113
67,80,69120,455
70,80,69120,455
74,80,69120,455
67,80,69840,113
70,80,69840,113
67,80,69960,341
70,80,69960,341
70,80,70680,113
70,80,70800,113
70,80,70920,113
67,80,71040,227
70,80,71040,227
72,80,71280,113
67,80,71400,227
74,80,71400,227
67,80,71640,227
75,80,71640,227
67,80,71880,341
74,80,71880,341
67,80,72240,227
72,80,72240,227
67,80,72480,227
70,80,72480,227
67,80,72720,227
72,80,72720,227
67,80,72960,683
70,80,72960,683
74,80,72960,683
67,80,73680,113
70,80,73680,113
67,80,73800,341
70,80,73800,341
65,80,74520,113
65,80,74640,113
65,80,74760,113
69,80,74880,227
72,80,74880,227
77,80,74880,227
75,82,75120,113
69,83,75240,227
74,83,75240,227
69,85,75480,227
75,85,75480,227
69,87,75720,341
74,87,75720,341
69,90,76080,227
72,90,76080,227
69,92,76320,227
75,92,76320,227
69,94,76560,227
74,94,76560,227
70,96,77040,113
82,96,77040,113
70,96,77160,113
82,96,77160,113
70,96,77280,113
74,96,77280,113
82,96,77280,113
72,96,77400,227
84,96,77400,227
74,96,77640,227
77,96,77640,227
86,96,77640,227
72,96,77880,227
84,96,77880,227
74,96,78120,569
77,96,78120,569
86,96,78120,569
70,96,78960,227
82,96,78960,227
70,96,79200,227
74,96,79200,227
82,96,79200,227
72,96,79440,113
84,96,79440,113
74,96,79560,227
77,96,79560,227
86,96,79560,227
75,96,79800,227
87,96,79800,227
74,96,80040,341
77,96,80040,341
86,96,80040,341
75,96,80400,227
87,96,80400,227
74,96,80640,683
79,96,80640,683
82,96,80640,683
86,96,80640,683
70,96,81360,113
82,96,81360,113
70,96,81480,569
74,96,81480,569
82,96,81480,569
65,96,82320,227
77,96,82320,227
77,96,82560,227
81,96,82560,227
84,96,82560,227
89,96,82560,227
75,96,82800,113
87,96,82800,113
74,97,82920,227
77,97,82920,227
86,97,82920,227
75,97,83160,227
87,97,83160,227
74,98,83400,341
77,98,83400,341
86,98,83400,341
72,99,83760,227
84,99,83760,227
70,100,84000,227
82,100,84000,227
69,101,84240,227
72,101,84240,227
81,101,84240,227
67,102,84480,113
79,102,84480,113
70,102,84480,227
67,102,84600,113
79,102,84600,113
74,102,84720,113
86,102,84720,113
79,102,84840,113
72,102,84960,227
84,102,84960,227
79,102,85200,113
70,102,85320,227
82,102,85320,227
79,102,85560,113
72,102,85680,113
84,102,85680,113
79,102,85800,113
74,102,85920,113
86,102,85920,113
79,102,86040,113
67,102,86160,113
79,102,86160,113
67,102,86280,113
79,102,86280,113
74,102,86400,113
86,102,86400,113
79,102,86520,113
72,102,86640,227
84,102,86640,227
79,102,86880,113
70,102,87000,227
82,102,87000,227
79,102,87240,113
72,102,87360,113
84,102,87360,113
79,102,87480,113
74,102,87600,113
86,102,87600,113
79,102,87720,113
77,102,87840,227
89,102,87840,227
67,102,88080,113
79,102,88080,113
67,102,88200,113
79,102,88200,113
74,102,88320,113
86,102,88320,113
79,102,88440,113
72,102,88560,227
84,102,88560,227
79,102,88800,113
70,102,88920,227
82,102,88920,227
79,102,89160,113
72,102,89280,113
84,102,89280,113
79,102,89400,113
74,102,89520,113
86,102,89520,113
79,102,89640,113
67,102,89760,113
79,102,89760,113
67,102,89880,113
79,102,89880,113
74,102,90000,113
86,102,90000,113
67,102,90120,113
79,102,90120,113
72,102,90240,227
84,102,90240,227
79,102,90480,113
79,102,90600,227
91,102,90600,227
79,102,90840,113
77,102,90960,113
89,102,90960,113
79,102,91080,113
74,102,91200,113
86,102,91200,113
67,102,91320,113
79,102,91320,113
72,102,91440,113
84,102,91440,113
74,102,91560,113
86,102,91560,113
70,64,91680,455
74,64,91680,455
70,81,92160,227
74,64,92280,341
70,81,92400,113
72,81,92520,227
86,64,92640,341
70,81,92760,227
84,64,93000,341
69,81,93000,341
82,64,93360,227
70,81,93360,227
81,64,93600,911
70,81,94080,227
70,81,94320,113
72,81,94440,227
77,64,94560,119
89,64,94560,119
77,64,94680,227
70,81,94680,227
70,64,94920,119
82,64,94920,119
72,81,94920,341
77,64,95040,227
69,64,95280,119
81,64,95280,119
65,81,95280,227
74,64,95400,37
79,64,95440,37
82,64,95480,37
86,64,95520,341
74,81,95520,341
87,64,95880,341
75,81,95880,341
79,64,96240,341
82,64,96240,341
86,64,96240,341
74,81,96240,455
72,64,96600,341
84,64,96600,341
70,81,96720,227
70,64,96960,227
82,64,96960,227
69,64,97200,227
81,64,97200,227
53,81,97200,227
67,64,97440,341
70,64,97440,341
74,64,97440,341
62,81,97440,341
67,64,97800,341
70,64,97800,341
75,64,97800,341
63,81,97800,341
67,64,98160,341
70,64,98160,341
77,64,98160,341
62,81,98160,455
67,64,98520,341
70,64,98520,341
75,64,98520,341
58,81,98640,227
67,64,98880,227
70,64,98880,227
74,64,98880,227
60,81,98880,227
67,64,99120,227
72,64,99120,227
58,81,99120,227
67,64,99360,341
70,64,99360,341
74,64,99360,341
62,64,99720,113
67,64,99840,113
74,64,99960,113
79,64,100080,113
74,64,100200,113
86,64,100320,113
74,64,100440,113
79,64,100560,113
84,64,100680,113
74,64,100800,113
79,64,100920,113
82,64,101040,113
74,64,101160,113
81,64,101280,341
93,66,101640,113
93,67,101760,113
89,68,101880,113
84,68,102000,113
82,69,102120,113
81,70,102240,113
77,71,102360,113
72,72,102480,113
70,72,102600,113
69,73,102720,113
65,74,102840,341
69,77,103320,113
70,78,103440,113
79,79,103560,227
70,81,103800,113
72,81,103920,113
81,82,104040,227
72,84,104280,113
74,85,104400,113
82,85,104520,341
60,100,104880,120
60,101,105000,113
54,102,105120,113
57,102,105120,113
62,102,105120,113
54,102,105240,113
57,102,105240,113
62,102,105240,113
55,102,105360,113
63,102,105360,113
54,102,105480,113
57,102,105480,113
62,102,105480,113
54,102,105840,113
57,102,105840,113
62,102,105840,113
54,102,105960,113
57,102,105960,113
62,102,105960,113
55,102,106080,113
63,102,106080,113
54,102,106200,113
57,102,106200,113
62,102,106200,113
54,102,106560,113
57,102,106560,113
62,102,106560,113
54,102,106680,113
57,102,106680,113
62,102,106680,113
55,102,106800,113
63,102,106800,113
54,102,106920,113
57,102,106920,113
62,102,106920,113
69,104,107160,113
81,104,107160,113
66,104,107280,113
78,104,107280,113
72,104,107400,341
84,104,107400,341
58,112,107760,113
70,112,107760,113
58,112,107880,113
70,112,107880,113
70,112,108000,227
75,112,108000,227
82,112,108000,227
70,112,108240,113
82,112,108240,113
69,112,108360,227
81,112,108360,227
65,112,108600,113
77,112,108600,113
65,112,108720,113
77,112,108720,113
65,112,108840,113
77,112,108840,113
67,112,108960,113
70,112,108960,113
79,112,108960,113
65,112,109080,113
77,112,109080,113
65,112,109200,113
77,112,109200,113
65,112,109320,227
77,112,109320,227
63,112,109560,113
75,112,109560,113
62,112,109680,113
74,112,109680,113
63,112,109800,113
75,112,109800,113
67,112,109920,113
72,112,109920,113
79,112,109920,113
65,112,110040,113
77,112,110040,113
65,112,110160,113
77,112,110160,113
65,112,110280,227
77,112,110280,227
63,112,110520,113
75,112,110520,113
63,112,110640,113
75,112,110640,113
63,112,110760,113
75,112,110760,113
67,112,110880,113
72,112,110880,113
79,112,110880,113
65,112,111000,113
77,112,111000,113
65,112,111120,113
77,112,111120,113
65,112,111240,227
77,112,111240,227
62,112,111480,113
74,112,111480,113
62,112,111600,113
74,112,111600,113
63,112,111720,113
75,112,111720,113
62,112,111840,113
65,112,111840,113
74,112,111840,113
63,112,111960,113
75,112,111960,113
62,112,112080,113
74,112,112080,113
63,112,112200,113
75,112,112200,113
65,112,112320,227
77,112,112320,227
62,112,112560,113
65,112,112560,113
74,112,112560,113
63,112,112680,113
75,112,112680,113
62,112,112800,113
74,112,112800,113
63,112,112920,113
75,112,112920,113
65,112,113040,227
77,112,113040,227
62,112,113280,113
65,112,113280,113
74,112,113280,113
63,112,113400,113
75,112,113400,113
65,112,113520,113
77,112,113520,113
58,112,113640,113
70,112,113640,113
58,112,113760,227
62,112,113760,227
70,112,113760,227
58,112,114000,113
70,112,114000,113
58,112,114120,227
62,112,114120,227
70,112,114120,227
60,112,114360,227
72,112,114360,227
60,112,114600,227
72,112,114600,227
62,112,114840,341
65,112,114840,341
74,112,114840,341
58,112,115440,113
58,112,115560,113
63,112,115680,227
67,112,115680,227
70,112,115680,227
63,112,115920,113
70,112,115920,113
63,112,116040,227
69,112,116040,227
65,112,116280,113
65,112,116400,113
65,112,116520,113
63,112,116640,113
67,112,116640,113
65,112,116760,113
65,112,116880,113
63,112,117000,227
65,112,117000,227
62,112,117240,113
63,112,117360,113
60,112,117480,341
65,112,117480,341
57,112,118200,113
67,112,118320,113
60,112,118440,569
65,112,118440,569
62,112,119160,227
63,112,119400,113
57,112,119520,113
62,112,119520,113
63,112,119640,113
62,112,119760,113
63,112,119880,113
57,112,120000,227
62,112,120000,227
65,112,120000,227
57,112,120240,113
62,112,120240,113
63,112,120360,113
62,112,120480,113
63,112,120600,113
57,112,120720,227
62,112,120720,227
65,112,120720,227
57,112,120960,113
62,112,120960,113
63,112,121080,113
57,112,121200,227
62,112,121200,227
65,112,121200,227
55,112,121440,227
58,112,121440,227
58,112,121680,113
58,112,121800,227
57,112,122040,227
60,112,122280,227
58,112,122520,341
60,112,123120,227
72,112,123120,227
58,112,123360,113
63,112,123360,113
70,112,123360,113
67,101,123480,113
74,101,123600,113
67,101,123720,113
72,101,123840,227
67,101,124080,113
70,101,124200,227
53,112,124440,113
65,112,124440,113
58,112,124560,113
70,112,124560,113
53,112,124680,113
65,112,124680,113
58,112,124800,113
70,112,124800,113
53,112,124920,113
65,112,124920,113
58,112,125040,113
70,112,125040,113
60,112,125160,113
72,112,125160,113
62,112,125280,227
65,112,125280,227
74,112,125280,227
60,112,125520,113
72,112,125520,113
62,112,125640,341
65,112,125640,341
74,112,125640,341
53,112,126000,227
65,112,126000,227
62,112,126240,227
66,112,126240,227
74,112,126240,227
63,112,126480,113
75,112,126480,113
62,112,126600,227
66,112,126600,227
74,112,126600,227
63,112,126840,227
75,112,126840,227
62,112,127080,113
74,112,127080,113
67,112,127200,113
70,112,127200,113
79,112,127200,113
67,112,127320,113
79,112,127320,113
74,112,127440,113
86,112,127440,113
79,112,127560,113
72,112,127680,227
77,112,127680,227
84,112,127680,227
79,112,127920,113
70,112,128040,227
75,112,128040,227
82,112,128040,227
79,112,128280,113
72,112,128400,113
77,112,128400,113
84,112,128400,113
79,112,128520,113
74,112,128640,113
86,112,128640,113
79,112,128760,113
77,112,128880,227
89,112,128880,227
67,112,129120,113
70,112,129120,113
79,112,129120,113
67,112,129240,113
79,112,129240,113
74,112,129360,113
86,112,129360,113
79,112,129480,113
72,112,129600,227
77,112,129600,227
84,112,129600,227
79,112,129840,113
79,112,129960,227
82,112,129960,227
91,112,129960,227
79,112,130200,113
77,112,130320,113
81,112,130320,113
89,112,130320,113
79,112,130440,113
74,112,130560,113
86,112,130560,113
67,112,130680,113
79,112,130680,113
72,112,130800,113
84,112,130800,113
74,112,130920,113
86,112,130920,113
67,112,131040,113
70,112,131040,113
79,112,131040,113
67,112,131160,113
79,112,131160,113
74,112,131280,113
86,112,131280,113
79,112,131400,113
72,112,131520,227
77,112,131520,227
84,112,131520,227
79,112,131760,113
70,112,131880,227
75,112,131880,227
82,112,131880,227
79,112,132120,113
72,112,132240,113
77,112,132240,113
84,112,132240,113
79,112,132360,113
74,112,132480,113
86,112,132480,113
79,112,132600,113
77,112,132720,227
89,112,132720,227
67,112,132960,113
70,112,132960,113
79,112,132960,113
67,112,133080,113
79,112,133080,113
74,112,133200,113
86,112,133200,113
79,112,133320,113
72,112,133440,227
77,112,133440,227
84,112,133440,227
79,112,133680,113
79,112,133800,227
82,112,133800,227
91,112,133800,227
79,112,134040,113
77,112,134160,113
81,112,134160,113
89,112,134160,113
79,112,134280,113
74,112,134400,113
86,112,134400,113
67,112,134520,113
79,112,134520,113
72,112,134640,113
84,112,134640,113
74,80,134760,37
84,80,134760,37
86,80,134800,37
89,80,134840,37
94,64,134880,113
93,64,135000,113
89,64,135120,113
86,64,135240,227
82,64,135480,113
81,64,135600,113
77,64,135720,569
70,80,136440,113
70,80,136560,113
70,80,136680,113
67,80,136800,227
70,80,136800,227
72,80,137040,113
67,80,137160,227
74,80,137160,227
75,80,137400,227
67,80,137640,341
74,80,137640,341
72,80,138000,227
67,80,138240,227
70,80,138240,227
72,80,138480,227
67,80,138720,683
74,80,138720,683
70,80,139440,113
67,80,139560,569
70,80,139560,569
65,80,140280,113
65,80,140400,113
65,80,140520,113
69,80,140640,227
77,80,140640,227
75,80,140880,113
69,80,141000,227
74,80,141000,227
75,80,141240,227
69,80,141480,341
74,80,141480,341
69,80,141840,227
72,80,141840,227
65,80,142080,227
69,80,142080,227
75,80,142080,227
65,88,142320,227
69,88,142320,227
74,88,142320,227
74,77,142560,113
77,77,142560,113
81,77,142560,113
74,77,142680,113
77,77,142680,113
81,77,142680,113
74,77,142920,113
77,77,142920,113
81,77,142920,113
74,77,143040,113
77,77,143040,113
81,77,143040,113
74,77,143160,113
77,77,143160,113
81,77,143160,113
74,77,143400,113
77,77,143400,113
81,77,143400,113
74,77,143640,113
77,77,143640,113
81,77,143640,113
74,77,143880,113
77,77,143880,113
81,77,143880,113
74,77,144000,113
77,77,144000,113
81,77,144000,113
74,77,144240,113
77,77,144240,113
81,77,144240,113
74,77,144360,113
77,77,144360,113
81,77,144360,113
74,77,144480,113
77,77,144480,113
81,77,144480,113
74,77,144600,113
77,77,144600,113
81,77,144600,113
74,77,144840,113
77,77,144840,113
81,77,144840,113
74,77,144960,113
77,77,144960,113
81,77,144960,113
74,77,145080,113
77,77,145080,113
81,77,145080,113
74,77,145320,113
77,77,145320,113
81,77,145320,113
74,77,145560,113
77,77,145560,113
81,77,145560,113
74,77,145800,113
77,77,145800,113
81,77,145800,113
74,77,145920,113
77,77,145920,113
81,77,145920,113
74,77,146160,113
77,77,146160,113
81,77,146160,113
74,77,146280,113
77,77,146280,113
81,77,146280,113
74,77,146400,113
77,77,146400,113
81,77,146400,113
74,77,146520,113
77,77,146520,113
81,77,146520,113
74,77,146760,113
77,77,146760,113
81,77,146760,113
74,77,146880,113
77,77,146880,113
81,77,146880,113
74,77,147000,113
77,77,147000,113
81,77,147000,113
74,77,147240,113
77,77,147240,113
81,77,147240,113
74,77,147480,113
77,77,147480,113
82,77,147480,113
74,77,147720,113
77,77,147720,113
82,77,147720,113
74,77,147840,113
77,77,147840,113
82,77,147840,113
74,77,148080,113
77,77,148080,113
82,77,148080,113
74,77,148200,113
77,77,148200,113
82,77,148200,113
72,77,148320,113
77,77,148320,113
81,77,148320,113
72,77,148440,113
77,77,148440,113
81,77,148440,113
72,78,148680,113
77,78,148680,113
81,78,148680,113
72,79,148800,113
77,79,148800,113
81,79,148800,113
72,80,148920,113
77,80,148920,113
81,80,148920,113
72,80,149160,113
77,80,149160,113
81,80,149160,113
72,81,149400,113
77,81,149400,113
81,81,149400,113
72,82,149640,113
65,83,149760,113
77,83,149760,113
70,84,149880,113
82,84,149880,113
72,84,150000,113
84,84,150000,113
77,84,150120,113
89,84,150120,113
79,106,150240,113
91,106,150240,113
79,106,150360,113
74,106,150480,113
86,106,150480,113
67,106,150600,113
79,106,150600,113
72,106,150720,227
84,106,150720,227
67,106,150960,113
79,106,150960,113
70,106,151080,227
82,106,151080,227
67,106,151320,113
79,106,151320,113
72,106,151440,113
84,106,151440,113
67,106,151560,113
79,106,151560,113
74,106,151680,113
86,106,151680,113
67,106,151800,113
79,106,151800,113
67,106,151920,113
79,106,151920,113
67,106,152040,113
79,106,152040,113
74,106,152160,113
86,106,152160,113
67,106,152280,113
79,106,152280,113
72,106,152400,227
84,106,152400,227
67,106,152640,113
79,106,152640,113
70,106,152760,227
82,106,152760,227
67,106,153000,113
79,106,153000,113
72,106,153120,113
84,106,153120,113
67,106,153240,113
79,106,153240,113
74,106,153360,113
86,106,153360,113
67,106,153480,113
79,106,153480,113
77,106,153600,227
89,106,153600,227
70,64,153840,119
74,64,153863,95
79,64,153887,71
70,64,153960,227
74,64,154200,113
86,64,154320,113
74,64,154440,227
70,64,154680,113
84,64,154800,113
72,64,154920,227
82,64,155160,227
81,64,155400,341
81,64,155760,341
82,64,156120,113
82,64,156240,341
94,64,156240,341
81,64,156600,113
81,64,156720,341
93,64,156720,341
77,64,157080,227
89,64,157080,227
72,64,157320,341
84,64,157320,341
74,64,157680,341
79,64,157680,341
82,64,157680,341
86,64,157680,341
75,64,158040,341
87,64,158040,341
74,64,158400,341
79,64,158400,341
82,64,158400,341
86,64,158400,341
72,64,158760,341
84,64,158760,341
70,64,159120,113
82,64,159120,113
69,64,159240,113
81,64,159240,113
67,64,159360,227
67,64,159600,341
70,64,159600,341
74,64,159600,341
62,81,159600,341
67,64,159960,341
70,64,159960,341
75,64,159960,341
63,81,159960,341
67,64,160320,341
70,64,160320,341
77,64,160320,341
62,81,160320,455
67,64,160680,341
70,64,160680,341
75,64,160680,341
58,81,160800,227
67,64,161040,113
70,64,161040,113
74,64,161040,113
60,81,161040,227
72,64,161160,113
67,64,161280,113
58,81,161280,227
69,64,161400,113
82,64,162000,227
82,64,162240,113
84,64,162360,227
82,64,162600,227
81,64,162840,341
82,64,163200,227
82,64,163920,227
82,64,164160,113
84,64,164280,227
82,64,164520,227
84,64,164760,341
74,77,165240,37
79,77,165280,37
82,77,165320,37
86,77,165360,227
75,78,165600,113
87,78,165600,113
74,78,165720,227
86,78,165720,227
72,79,165960,227
84,79,165960,227
70,80,166200,227
82,80,166200,227
69,81,166440,227
81,81,166440,227
67,82,166680,227
79,82,166680,227
69,83,166920,113
81,83,166920,113
60,103,167040,120
72,103,167040,113
60,104,167160,113
72,104,167160,113
62,105,167280,113
66,105,167280,113
74,105,167280,113
62,105,167400,113
66,105,167400,113
74,105,167400,113
63,105,167520,113
67,105,167520,113
75,105,167520,113
62,105,167640,113
66,105,167640,113
74,105,167640,113
62,105,168000,113
66,105,168000,113
74,105,168000,113
62,105,168120,113
66,105,168120,113
74,105,168120,113
63,105,168240,113
67,105,168240,113
75,105,168240,113
62,105,168360,113
66,105,168360,113
74,105,168360,113
62,105,168720,113
66,105,168720,113
74,105,168720,113
62,105,168840,113
66,105,168840,113
74,105,168840,113
63,105,168960,113
67,105,168960,113
75,105,168960,113
62,105,169080,113
66,105,169080,113
74,105,169080,113
81,105,169320,113
74,105,169440,113
69,105,169560,113
62,105,169680,113
70,112,169920,113
82,112,169920,113
70,112,170040,113
82,112,170040,113
82,112,170160,227
87,112,170160,227
94,112,170160,227
82,112,170400,113
94,112,170400,113
81,112,170520,227
93,112,170520,227
77,112,170760,113
89,112,170760,113
77,112,170880,113
89,112,170880,113
77,112,171000,113
89,112,171000,113
79,112,171120,113
82,112,171120,113
91,112,171120,113
77,112,171240,113
89,112,171240,113
77,112,171360,113
89,112,171360,113
77,112,171480,227
89,112,171480,227
75,112,171720,113
87,112,171720,113
74,112,171840,113
86,112,171840,113
74,112,171960,113
86,112,171960,113
79,112,172080,113
84,112,172080,113
91,112,172080,113
77,112,172200,113
89,112,172200,113
77,112,172320,113
89,112,172320,113
77,112,172440,227
89,112,172440,227
74,112,172680,113
86,112,172680,113
74,112,172800,113
86,112,172800,113
74,112,172920,113
86,112,172920,113
79,112,173040,113
84,112,173040,113
91,112,173040,113
77,112,173160,113
89,112,173160,113
77,112,173280,113
89,112,173280,113
77,112,173400,227
89,112,173400,227
74,112,173640,113
86,112,173640,113
74,112,173760,113
86,112,173760,113
74,112,173880,113
86,112,173880,113
74,112,174000,113
77,112,174000,113
86,112,174000,113
72,112,174120,113
84,112,174120,113
74,112,174240,113
86,112,174240,113
75,112,174360,113
87,112,174360,113
77,112,174480,227
89,112,174480,227
74,112,174720,113
77,112,174720,113
86,112,174720,113
72,112,174840,113
84,112,174840,113
74,112,174960,113
86,112,174960,113
75,112,175080,113
87,112,175080,113
77,112,175200,227
89,112,175200,227
74,112,175440,113
77,112,175440,113
86,112,175440,113
75,112,175560,113
87,112,175560,113
77,112,175680,113
89,112,175680,113
70,112,175800,113
82,112,175800,113
70,112,175920,227
74,112,175920,227
82,112,175920,227
70,112,176160,113
82,112,176160,113
70,112,176280,227
74,112,176280,227
82,112,176280,227
72,112,176520,227
84,112,176520,227
72,112,176760,227
84,112,176760,227
74,112,177000,341
77,112,177000,341
86,112,177000,341
58,112,177600,113
70,112,177600,113
58,112,177720,113
70,112,177720,113
70,112,177840,227
75,112,177840,227
82,112,177840,227
70,112,178080,113
82,112,178080,113
69,112,178200,227
81,112,178200,227
65,112,178440,113
77,112,178440,113
65,112,178560,113
77,112,178560,113
65,112,178680,113
77,112,178680,113
67,112,178800,113
70,112,178800,113
79,112,178800,113
65,112,178920,113
77,112,178920,113
65,112,179040,113
77,112,179040,113
65,112,179160,227
77,112,179160,227
62,112,179400,113
74,112,179400,113
63,112,179520,113
75,112,179520,113
65,112,179640,569
69,112,179640,569
77,112,179640,569
58,112,180360,113
70,112,180360,113
67,112,180480,113
79,112,180480,113
65,112,180600,569
69,112,180600,569
77,112,180600,569
62,112,181320,227
74,112,181320,227
63,112,181560,113
75,112,181560,113
62,112,181680,113
65,112,181680,113
74,112,181680,113
63,112,181800,113
75,112,181800,113
62,112,181920,113
74,112,181920,113
63,112,182040,113
75,112,182040,113
65,112,182160,227
77,112,182160,227
62,112,182400,113
65,112,182400,113
74,112,182400,113
63,112,182520,113
75,112,182520,113
62,112,182640,113
74,112,182640,113
63,112,182760,113
75,112,182760,113
65,112,182880,227
77,112,182880,227
62,112,183120,113
65,112,183120,113
74,112,183120,113
63,112,183240,113
75,112,183240,113
65,112,183360,227
77,112,183360,227
58,112,183600,227
62,112,183600,227
70,112,183600,227
58,112,183840,113
70,112,183840,113
58,112,183960,227
62,112,183960,227
70,112,183960,227
57,112,184200,227
69,112,184200,227
60,112,184440,227
72,112,184440,227
58,112,184680,341
62,112,184680,341
70,112,184680,341
60,112,185280,227
72,112,185280,227
58,112,185520,113
63,112,185520,113
70,112,185520,113
67,101,185640,113
74,101,185760,113
67,101,185880,113
72,101,186000,227
67,101,186240,113
70,101,186360,227
55,112,186600,113
67,112,186600,113
58,112,186720,113
70,112,186720,113
55,112,186840,113
67,112,186840,113
58,112,186960,113
70,112,186960,113
55,112,187080,113
67,112,187080,113
58,112,187200,113
70,112,187200,113
60,112,187320,113
72,112,187320,113
62,112,187440,227
65,112,187440,227
74,112,187440,227
60,112,187680,113
72,112,187680,113
62,112,187800,341
65,112,187800,341
74,112,187800,341
53,112,188160,227
65,112,188160,227
62,112,188400,227
66,112,188400,227
74,112,188400,227
63,112,188640,113
75,112,188640,113
62,112,188760,227
66,112,188760,227
74,112,188760,227
63,112,189000,227
75,112,189000,227
62,112,189240,113
74,112,189240,113
62,91,189360,341
67,91,189360,341
70,91,189360,341
67,91,189720,341
70,91,189720,341
72,91,189720,341
67,91,190080,341
70,91,190080,341
74,91,190080,341
70,91,190440,113
74,91,190560,113
77,91,190680,113
81,91,190800,113
82,91,190920,113
81,91,191040,113
77,91,191160,113
72,91,191280,341
77,91,191640,341
89,91,191640,341
74,91,192000,341
77,91,192000,341
86,91,192000,341
72,91,192360,341
84,91,192360,341
70,91,192720,113
74,91,192720,113
69,91,192840,341
72,91,192840,341
63,91,193200,341
67,91,193200,341
70,91,193200,341
74,91,193200,341
58,91,193560,113
62,91,193560,113
62,91,193920,341
67,91,193920,341
70,91,193920,341
74,91,193920,341
63,91,194280,113
75,91,194400,113
74,91,194520,113
70,91,194640,113
65,91,194760,113
63,91,194880,113
62,91,195000,113
65,91,195120,341
69,91,195120,341
72,91,195120,341
60,91,195480,227
65,91,195720,341
69,91,195720,341
72,91,195720,341
65,80,196080,113
72,80,196200,113
69,80,196320,113
77,80,196440,113
72,80,196560,113
81,80,196680,113
77,80,196800,113
84,80,196920,113
79,80,197040,113
82,80,197040,113
91,80,197040,113
79,80,197400,113
82,80,197400,113
91,80,197400,113
77,80,197760,113
81,80,197760,113
89,80,197760,113
79,80,197880,113
82,80,197880,113
91,80,197880,113
70,80,198120,341
74,80,198120,341
82,80,198120,341
72,80,198480,455
84,80,198480,455
70,80,198960,455
74,80,198960,455
82,80,198960,455
69,80,199560,227
72,80,199560,227
81,80,199560,227
65,80,199800,113
77,80,199800,113
74,80,199920,455
77,80,199920,455
86,80,199920,455
77,80,200400,455
81,80,200400,455
89,80,200400,455
79,80,200880,113
82,80,200880,113
91,80,200880,113
79,80,201240,113
82,80,201240,113
91,80,201240,113
77,80,201600,113
81,80,201600,113
89,80,201600,113
79,80,201720,113
82,80,201720,113
91,80,201720,113
70,80,201960,341
74,80,201960,341
77,80,201960,341
70,80,202320,455
74,80,202320,455
69,80,202800,341
72,80,202800,341
77,80,203160,113
79,80,203280,341
77,80,203640,227
84,80,203640,227
81,80,203880,113
77,80,204000,113
72,80,204120,113
72,80,204360,113
84,80,204360,113
74,80,204480,113
86,80,204480,113
77,80,204600,113
89,80,204600,113
79,80,204720,341
82,80,204720,341
91,80,204720,341
79,80,205080,341
82,80,205080,341
91,80,205080,341
77,80,205440,113
81,80,205440,113
89,80,205440,113
79,80,205560,113
82,80,205560,113
91,80,205560,113
70,80,205800,113
74,80,205920,113
77,80,206040,113
81,80,206160,113
82,80,206280,113
81,80,206400,113
77,80,206520,56
89,80,206520,56
90,80,206580,56
79,80,206640,341
82,80,206640,341
91,80,206640,341
79,80,207000,341
82,80,207000,341
91,80,207000,341
77,80,207360,113
81,80,207360,113
89,80,207360,113
79,80,207480,113
82,80,207480,113
91,80,207480,113
74,80,207720,113
86,80,207720,113
77,80,207840,113
89,80,207840,113
79,80,207960,113
91,80,207960,113
82,80,208080,113
94,80,208080,113
81,80,208200,113
93,80,208200,113
77,80,208320,113
89,80,208320,113
74,80,208440,113
86,80,208440,113
79,80,208560,341
82,80,208560,341
91,80,208560,341
79,80,208920,341
82,80,208920,341
91,80,208920,341
77,80,209280,113
81,80,209280,113
89,80,209280,113
79,80,209400,113
82,80,209400,113
91,80,209400,113
70,80,209760,455
74,80,209760,455
82,80,209760,455
74,80,210240,56
75,80,210300,56
77,80,210360,56
79,80,210420,56
77,80,210480,113
81,80,210480,113
84,80,210840,52
81,80,210893,62
86,80,210893,62
77,80,211200,119
84,80,211200,119
89,80,211200,119
91,80,211200,119
79,64,212400,113
79,64,212520,113
86,64,212640,113
79,64,212760,113
84,64,212880,227
79,64,213120,113
82,64,213240,227
79,64,213480,113
84,64,213600,113
79,64,213720,113
86,64,213840,113
79,64,213960,113
89,64,214080,227
79,64,214320,113
79,64,214440,113
86,64,214560,113
79,64,214680,113
84,64,214800,227
79,64,215040,113
91,64,215160,227
79,64,215400,113
89,64,215520,113
79,64,215640,113
86,64,215760,113
79,64,215880,113
84,64,216000,113
86,64,216120,113
79,64,216240,113
79,64,216360,113
86,64,216480,113
79,64,216600,113
84,64,216720,227
79,64,216960,113
82,64,217080,227
79,64,217320,113
84,64,217440,113
79,64,217560,113
86,64,217680,113
79,64,217800,113
89,64,217920,227
79,64,218160,113
79,64,218280,113
86,64,218400,113
79,64,218520,113
84,64,218640,227
79,64,218880,113
91,64,219000,227
79,64,219240,113
89,64,219360,113
79,64,219480,113
86,64,219600,113
79,64,219720,113
84,64,219840,113
86,64,219960,113
79,64,220080,113
79,64,220200,113
86,64,220320,113
79,64,220440,113
84,64,220560,227
79,64,220800,113
82,64,220920,227
79,64,221160,113
84,64,221280,113
79,64,221400,113
86,64,221520,113
79,64,221640,113
89,64,221760,227
79,64,222000,113
79,64,222120,113
86,64,222240,113
79,64,222360,113
84,64,222480,227
79,64,222720,113
91,64,222840,227
79,64,223080,113
89,64,223200,113
79,64,223320,113
86,64,223440,113
79,64,223560,113
84,64,223680,113
86,64,223800,113
79,64,223920,113
79,65,224040,113
86,66,224160,113
79,67,224280,113
84,68,224400,227
79,70,224640,113
82,71,224760,227
79,73,225000,113
84,74,225120,113
79,75,225240,113
86,76,225360,113
79,77,225480,113
89,78,225600,227
58,102,225840,119
58,102,226080,113
58,102,226200,227
60,102,226440,227
60,102,226680,227
62,102,226920,341
58,105,227520,113
70,105,227520,113
58,108,227640,113
70,108,227640,113
70,112,227760,227
75,112,227760,227
82,112,227760,227
70,112,228000,113
82,112,228000,113
69,112,228120,227
81,112,228120,227
65,112,228360,113
77,112,228360,113
65,112,228480,113
77,112,228480,113
65,112,228600,113
77,112,228600,113
67,112,228720,113
70,112,228720,113
79,112,228720,113
65,112,228840,113
77,112,228840,113
65,112,228960,113
77,112,228960,113
65,112,229080,227
77,112,229080,227
62,112,229320,113
74,112,229320,113
63,112,229440,113
75,112,229440,113
65,112,229560,569
69,112,229560,569
77,112,229560,569
62,112,230280,113
74,112,230280,113
67,112,230400,113
79,112,230400,113
65,112,230520,569
69,112,230520,569
77,112,230520,569
62,112,231240,227
74,112,231240,227
62,112,231480,113
74,112,231480,113
62,112,231600,113
65,112,231600,113
74,112,231600,113
63,112,231720,113
75,112,231720,113
62,112,231840,113
74,112,231840,113
63,112,231960,113
75,112,231960,113
65,112,232080,227
77,112,232080,227
62,112,232320,113
65,112,232320,113
74,112,232320,113
63,112,232440,113
75,112,232440,113
62,112,232560,113
74,112,232560,113
63,112,232680,113
75,112,232680,113
65,112,232800,227
77,112,232800,227
62,112,233040,113
65,112,233040,113
74,112,233040,113
63,112,233160,113
75,112,233160,113
65,112,233280,227
77,112,233280,227
58,112,233520,227
62,112,233520,227
70,112,233520,227
58,112,233760,113
70,112,233760,113
58,112,233880,227
62,112,233880,227
70,112,233880,227
58,112,234120,227
70,112,234120,227
60,112,234360,227
72,112,234360,227
58,112,234600,341
62,112,234600,341
70,112,234600,341
72,112,235200,227
84,112,235200,227
70,112,235440,113
75,112,235440,113
82,112,235440,113
79,101,235560,113
86,101,235680,113
79,101,235800,113
84,101,235920,227
79,101,236160,113
82,101,236280,227
67,112,236520,113
79,112,236520,113
70,112,236640,113
82,112,236640,113
67,112,236760,113
79,112,236760,113
70,112,236880,113
82,112,236880,113
67,112,237000,113
79,112,237000,113
70,112,237120,113
82,112,237120,113
72,112,237240,113
84,112,237240,113
74,112,237360,227
77,112,237360,227
86,112,237360,227
72,112,237600,113
84,112,237600,113
74,112,237720,341
77,112,237720,341
86,112,237720,341
65,112,238080,227
77,112,238080,227
78,112,238320,227
86,112,238320,227
90,112,238320,227
79,112,238560,113
87,112,238560,113
91,112,238560,113
78,112,238680,227
86,112,238680,227
90,112,238680,227
79,112,238920,227
87,112,238920,227
91,112,238920,227
79,112,239160,569
86,112,239160,569
91,112,239160,569
67,112,239760,113
70,112,239760,113
79,112,239760,113
67,112,239880,113
79,112,239880,113
74,112,240000,113
86,112,240000,113
79,112,240120,113
72,112,240240,227
77,112,240240,227
84,112,240240,227
79,112,240480,113
70,112,240600,227
75,112,240600,227
82,112,240600,227
79,112,240840,113
72,112,240960,113
77,112,240960,113
84,112,240960,113
79,112,241080,113
74,112,241200,113
86,112,241200,113
79,112,241320,113
77,112,241440,227
89,112,241440,227
67,112,241680,113
70,112,241680,113
79,112,241680,113
67,112,241800,113
79,112,241800,113
74,112,241920,113
86,112,241920,113
79,112,242040,113
72,112,242160,227
77,112,242160,227
84,112,242160,227
79,112,242400,113
79,112,242520,227
82,112,242520,227
91,112,242520,227
79,112,242760,113
77,112,242880,113
81,112,242880,113
89,112,242880,113
79,112,243000,113
74,112,243120,113
86,112,243120,113
67,112,243240,113
79,112,243240,113
72,112,243360,113
84,112,243360,113
74,112,243480,113
86,112,243480,113
67,112,243600,113
70,112,243600,113
79,112,243600,113
67,112,243720,113
79,112,243720,113
74,112,243840,113
86,112,243840,113
79,112,243960,113
72,112,244080,227
77,112,244080,227
84,112,244080,227
79,112,244320,113
70,112,244440,227
75,112,244440,227
82,112,244440,227
79,112,244680,113
72,112,244800,113
77,112,244800,113
84,112,244800,113
79,112,244920,113
74,112,245040,113
86,112,245040,113
79,112,245160,113
77,112,245280,227
89,112,245280,227
67,112,245520,113
70,112,245520,113
79,112,245520,113
67,112,245640,113
79,112,245640,113
74,112,245760,113
86,112,245760,113
79,112,245880,113
72,112,246000,227
77,112,246000,227
84,112,246000,227
79,112,246240,113
79,112,246360,227
82,112,246360,227
91,112,246360,227
79,112,246600,113
77,112,246720,113
81,112,246720,113
89,112,246720,113
79,112,246840,113
74,112,246960,113
86,112,246960,113
67,112,247080,113
79,112,247080,113
72,112,247200,113
84,112,247200,113
74,112,247320,113
86,112,247320,113
67,112,247440,113
70,112,247440,113
79,112,247440,113
67,112,247560,113
79,112,247560,113
74,112,247680,113
86,112,247680,113
79,112,247800,113
72,112,247920,227
77,112,247920,227
84,112,247920,227
79,112,248160,113
70,112,248280,227
75,112,248280,227
82,112,248280,227
79,112,248520,113
72,112,248640,113
77,112,248640,113
84,112,248640,113
79,112,248760,113
74,112,248880,113
86,112,248880,113
79,112,249000,113
77,112,249120,227
89,112,249120,227
67,112,249360,113
70,112,249360,113
79,112,249360,113
67,112,249480,113
79,112,249480,113
74,112,249600,113
86,112,249600,113
79,112,249720,113
72,112,249840,227
77,112,249840,227
84,112,249840,227
79,112,250080,113
79,112,250200,227
82,112,250200,227
91,112,250200,227
79,112,250440,113
77,112,250560,113
81,112,250560,113
89,112,250560,113
79,112,250680,113
74,112,250800,113
86,112,250800,113
67,112,250920,113
79,112,250920,113
72,112,251040,113
84,112,251040,113
74,112,251160,113
86,112,251160,113
67,112,251280,113
70,112,251280,113
79,112,251280,113
67,112,251400,113
79,112,251400,113
74,112,251520,113
86,112,251520,113
79,112,251640,113
72,112,251760,227
77,112,251760,227
84,112,251760,227
79,112,252000,113
70,112,252120,227
75,112,252120,227
82,112,252120,227
79,112,252360,113
72,112,252480,113
77,112,252480,113
84,112,252480,113
79,112,252600,113
74,112,252720,113
86,112,252720,113
79,112,252840,113
77,112,252960,227
89,112,252960,227
67,112,253200,113
70,112,253200,113
79,112,253200,113
67,112,253320,113
79,112,253320,113
74,112,253440,113
86,112,253440,113
79,112,253560,113
72,112,253680,227
77,112,253680,227
84,112,253680,227
79,112,253920,113
79,112,254040,227
82,112,254040,227
91,112,254040,227
79,112,254280,113
77,112,254400,113
81,112,254400,113
89,112,254400,113
79,112,254520,113
74,112,254640,113
86,112,254640,113
67,112,254760,113
79,112,254760,113
77,112,254880,113
81,112,254880,113
84,112,254880,113
89,112,254880,113
79,112,255000,113
82,112,255000,113
86,112,255000,113
91,112,255000,113
55,64,1920,1367
62,64,1920,1367
67,64,1920,1367
51,64,3360,2279
53,64,3360,2279
58,64,3360,960
46,64,5760,1367
53,64,5760,1367
58,64,5760,960
41,64,7200,2279
48,64,7200,2279
53,64,7200,1920
55,64,9600,1367
62,64,9600,1367
67,64,9600,1367
51,64,11040,1367
53,64,11040,1367
58,64,11040,1367
63,64,12480,911
46,64,13440,911
53,64,13440,911
58,64,13440,911
53,64,14400,455
41,64,14880,1367
48,64,14880,1367
53,64,14880,1367
29,64,16320,911
41,64,16320,911
43,64,17280,455
55,64,17280,455
43,64,17760,227
50,64,18000,227
55,64,18240,227
50,64,18480,227
39,64,18720,227
51,64,18720,227
39,64,18960,455
39,64,19440,227
51,64,19680,227
46,64,19920,227
51,64,20160,227
53,64,20400,227
58,64,20640,227
60,64,20880,227
46,64,21120,683
53,64,21120,683
58,64,21120,683
58,64,21840,455
60,64,21840,455
65,64,21840,455
53,64,22320,227
41,64,22560,683
53,64,22560,683
58,64,23280,227
53,64,23520,227
48,64,23760,227
58,64,24000,227
60,64,24000,227
65,64,24000,227
57,64,24240,227
58,64,24480,227
60,64,24720,227
43,64,24960,227
55,64,24960,227
50,64,25200,227
55,64,25440,455
55,64,25920,227
50,64,26160,227
39,64,26400,227
51,64,26400,227
46,64,26640,227
51,64,26880,911
51,64,27840,911
34,64,28800,227
46,64,28800,227
46,64,29040,227
53,64,29280,227
58,64,29520,227
46,64,29760,227
34,64,30000,227
29,64,30240,455
41,64,30240,455
41,64,30720,455
41,64,31200,227
53,64,31200,227
48,64,31440,227
41,64,31680,455
53,64,31680,455
29,64,32160,455
41,64,32160,455
31,64,32640,683
43,64,32640,683
31,64,33360,227
43,64,33360,227
50,64,33600,227
55,64,33840,227
27,64,34080,683
39,64,34080,683
27,64,34800,455
39,64,34800,455
39,64,35280,227
51,64,35520,227
46,64,35760,227
39,64,36000,227
46,64,36240,113
41,64,36360,113
34,64,36480,683
46,64,36480,683
34,64,37200,227
46,64,37200,227
41,64,37440,227
46,64,37680,227
29,64,37920,683
41,64,37920,683
29,64,38640,455
41,64,38640,455
41,64,39120,227
53,64,39360,227
48,64,39600,227
41,64,39840,227
43,64,40080,113
38,64,40200,113
31,64,40320,683
43,64,40320,683
27,64,41040,683
27,64,41760,2279
39,64,41760,2279
29,69,44160,1139
41,69,44160,1139
29,74,45360,227
41,74,45600,455
29,76,46080,227
41,77,46320,227
29,78,46560,227
41,79,46800,227
29,80,47040,911
29,96,48000,1823
41,96,48000,1823
41,80,49920,113
31,80,49920,119
43,80,50040,113
31,80,50160,119
41,80,50400,113
31,80,50400,119
43,80,50520,113
31,80,50640,119
46,80,50760,113
31,80,50880,119
45,80,51000,113
31,80,51120,119
31,80,51360,119
43,80,51480,59
43,80,51600,227
31,80,51600,113
31,80,51720,113
31,80,51840,113
43,80,51960,113
31,80,51960,113
41,80,52080,113
31,80,52080,119
43,80,52200,113
43,80,52320,113
31,80,52320,119
43,80,52440,113
31,80,52560,119
41,80,52680,52
43,80,52733,176
31,80,52800,119
43,80,52920,113
43,80,53040,113
31,80,53040,119
43,80,53160,113
44,80,53280,113
31,80,53280,119
43,80,53400,113
41,80,53520,113
31,80,53520,119
41,80,53640,113
31,80,53760,113
43,80,53760,113
43,82,54000,113
50,83,54120,113
55,83,54120,113
43,85,54360,113
50,86,54480,113
55,86,54480,113
43,88,54720,113
50,89,54840,113
55,89,54840,113
43,91,55080,113
50,92,55200,113
55,92,55200,113
43,93,55320,113
43,94,55440,113
38,95,55560,113
31,96,55680,113
43,96,55680,113
50,98,55920,113
55,98,55920,113
43,99,56040,113
43,100,56160,113
38,101,56280,113
31,102,56400,113
41,103,56520,113
32,104,56640,113
44,104,56640,113
32,105,56760,113
44,105,56760,113
32,106,56880,113
44,106,56880,113
32,107,57000,113
44,107,57000,113
32,108,57120,227
44,108,57120,227
31,99,57600,113
43,99,57600,113
43,99,57720,113
50,99,57840,113
55,99,57840,113
41,99,57960,113
48,99,58080,113
53,99,58080,113
41,99,58200,113
27,99,58320,113
39,99,58320,113
39,99,58440,113
46,99,58560,113
51,99,58560,113
39,99,58680,113
29,99,58800,113
41,99,58800,113
41,99,58920,227
41,99,59160,113
48,99,59280,113
53,99,59280,113
41,99,59400,113
31,99,59520,113
43,99,59520,113
43,99,59640,113
50,99,59760,113
55,99,59760,113
41,99,59880,113
48,99,60000,113
53,99,60000,113
41,99,60120,113
27,99,60240,113
39,99,60240,113
39,99,60360,113
46,99,60480,113
51,99,60480,113
39,99,60600,113
29,99,60720,113
41,99,60720,113
41,99,60840,227
41,99,61080,113
48,99,61200,113
53,99,61200,113
41,99,61320,113
31,99,61440,113
43,99,61440,113
43,99,61560,113
50,99,61680,113
55,99,61680,113
41,99,61800,113
48,99,61920,113
53,99,61920,113
41,99,62040,113
27,99,62160,113
39,99,62160,113
39,99,62280,113
46,99,62400,113
51,99,62400,113
39,99,62520,113
29,99,62640,113
41,99,62640,113
41,99,62760,227
41,99,63000,113
48,99,63120,113
53,99,63120,113
41,99,63240,113
31,99,63360,113
43,99,63360,113
43,99,63480,113
50,99,63600,113
55,99,63600,113
41,99,63720,113
48,99,63840,113
53,99,63840,113
41,99,63960,113
27,99,64080,113
39,99,64080,113
39,99,64200,113
46,99,64320,113
51,99,64320,113
39,99,64440,113
29,99,64560,113
41,99,64560,113
41,99,64680,227
41,99,64920,113
48,99,65040,113
53,99,65040,113
41,99,65160,113
31,99,65280,113
43,99,65280,113
43,99,65400,227
43,99,65640,113
50,99,65760,59
55,99,65760,59
43,99,65880,59
31,99,66000,113
43,99,66000,113
43,99,66120,227
43,99,66360,113
50,99,66480,59
55,99,66480,59
43,99,66600,59
32,99,66720,227
44,99,66720,227
29,99,66960,227
41,99,66960,227
29,99,67200,113
41,99,67200,113
31,99,67320,227
43,99,67320,227
43,99,67560,113
50,99,67680,59
55,99,67680,59
43,99,67800,59
29,99,67920,113
41,99,67920,113
31,99,68040,227
43,99,68040,227
43,99,68280,113
50,99,68400,59
55,99,68400,59
43,99,68520,59
32,99,68640,227
44,99,68640,227
29,99,68880,227
41,99,68880,227
31,68,69120,227
43,68,69120,227
50,68,69360,59
55,68,69360,59
43,68,69480,59
43,68,69600,59
43,68,69720,59
50,68,69840,59
55,68,69840,59
43,68,69960,227
43,68,70200,59
50,68,70320,59
55,68,70320,59
43,68,70440,59
43,68,70560,59
43,68,70680,59
50,68,70800,59
55,68,70800,59
43,68,70920,59
31,68,71040,227
43,68,71040,227
50,68,71280,59
55,68,71280,59
43,68,71400,59
43,68,71520,59
43,68,71640,59
50,68,71760,59
55,68,71760,59
43,68,71880,227
43,68,72120,59
50,68,72240,59
55,68,72240,59
43,68,72360,59
43,68,72480,59
43,68,72600,59
50,68,72720,59
55,68,72720,59
43,68,72840,59
27,68,72960,227
39,68,72960,227
46,68,73200,59
51,68,73200,59
39,68,73320,59
39,68,73440,59
39,68,73560,59
46,68,73680,59
51,68,73680,59
39,68,73800,227
39,68,74040,59
46,68,74160,59
51,68,74160,59
39,68,74280,59
39,68,74400,59
39,68,74520,59
46,68,74640,59
51,68,74640,59
39,68,74760,59
29,68,74880,227
41,68,74880,227
48,69,75120,59
53,69,75120,59
41,70,75240,59
41,71,75360,59
41,72,75480,59
48,73,75600,59
53,73,75600,59
41,74,75720,227
41,75,75960,59
48,76,76080,59
53,76,76080,59
41,77,76200,59
41,78,76320,59
41,79,76440,59
48,79,76560,59
53,79,76560,59
41,80,76680,59
31,81,76800,227
43,81,76800,227
50,81,77040,113
55,81,77040,113
43,81,77160,113
43,81,77280,113
43,81,77400,113
50,81,77520,113
55,81,77520,113
43,81,77640,227
43,81,77880,113
50,81,78000,113
55,81,78000,113
43,81,78120,113
43,81,78240,113
43,81,78360,113
50,81,78480,113
55,81,78480,113
43,81,78600,113
31,81,78720,227
43,81,78720,227
50,81,78960,113
55,81,78960,113
43,81,79080,113
43,81,79200,113
43,81,79320,113
50,81,79440,113
55,81,79440,113
43,81,79560,227
43,81,79800,113
50,81,79920,113
55,81,79920,113
43,81,80040,113
43,81,80160,113
43,81,80280,113
50,81,80400,113
55,81,80400,113
43,81,80520,113
27,81,80640,227
39,81,80640,227
46,81,80880,113
51,81,80880,113
39,81,81000,113
39,81,81120,113
39,81,81240,113
46,81,81360,113
51,81,81360,113
39,81,81480,227
39,81,81720,113
46,81,81840,113
51,81,81840,113
39,81,81960,113
39,81,82080,113
39,81,82200,113
46,81,82320,113
51,81,82320,113
39,81,82440,113
29,81,82560,227
41,81,82560,227
48,81,82800,113
53,81,82800,113
41,82,82920,113
41,82,83040,113
41,82,83160,113
48,83,83280,113
53,83,83280,113
41,83,83400,227
41,84,83640,113
48,84,83760,113
53,84,83760,113
41,84,83880,113
41,84,84000,113
41,84,84120,113
48,85,84240,113
53,85,84240,113
41,85,84360,113
29,102,84480,113
41,102,84480,113
31,102,84600,113
43,102,84600,113
31,102,84840,113
43,102,84840,113
32,102,84960,227
44,102,84960,227
29,102,85200,113
41,102,85200,113
31,102,85320,113
43,102,85320,113
31,102,85560,113
43,102,85560,113
32,102,85680,227
44,102,85680,227
29,102,85920,227
41,102,85920,227
29,102,86160,113
41,102,86160,113
31,102,86280,113
43,102,86280,113
31,102,86520,113
43,102,86520,113
32,102,86640,227
44,102,86640,227
29,102,86880,113
41,102,86880,113
31,102,87000,113
43,102,87000,113
31,102,87240,113
43,102,87240,113
32,102,87360,227
44,102,87360,227
34,102,87600,227
46,102,87600,227
32,102,87840,227
44,102,87840,227
29,102,88080,113
41,102,88080,113
31,102,88200,113
43,102,88200,113
31,102,88440,113
43,102,88440,113
32,102,88560,227
44,102,88560,227
29,102,88800,113
41,102,88800,113
31,102,88920,113
43,102,88920,113
31,102,89160,113
43,102,89160,113
32,102,89280,227
44,102,89280,227
29,102,89520,227
41,102,89520,227
29,102,89760,113
41,102,89760,113
31,102,89880,113
43,102,89880,113
31,102,90120,113
43,102,90120,113
32,102,90240,227
44,102,90240,227
29,102,90480,113
41,102,90480,113
31,102,90600,113
43,102,90600,113
31,102,90840,113
43,102,90840,113
32,102,90960,227
44,102,90960,227
34,102,91200,227
46,102,91200,227
32,102,91440,227
44,102,91440,227
51,64,91680,113
58,64,91800,113
63,64,91920,113
62,64,92040,113
67,64,92160,227
63,64,92400,113
58,64,92520,113
51,64,92640,113
58,64,92760,113
63,64,92880,227
53,64,93120,227
55,64,93360,227
53,64,93600,113
60,64,93720,113
65,64,93840,113
69,64,93960,227
69,64,94200,113
65,64,94320,113
60,64,94440,341
65,64,94800,341
65,64,95160,120
43,64,95520,113
50,64,95640,113
55,64,95760,113
58,64,95880,227
55,64,96120,113
58,64,96240,113
55,64,96360,113
50,64,96480,113
43,64,96600,113
55,64,96720,113
50,64,96840,113
55,64,96960,113
43,64,97080,113
50,64,97200,113
43,64,97320,113
43,64,97440,113
50,64,97560,113
55,64,97680,113
58,64,97800,227
55,64,98040,113
58,64,98160,113
55,64,98280,113
50,64,98400,113
43,64,98520,113
55,64,98640,113
50,64,98760,113
55,64,98880,113
43,64,99000,113
50,64,99120,113
43,64,99240,113
39,64,99360,113
51,64,99360,113
51,64,99480,227
51,64,99720,341
55,79,99840,227
58,79,99840,227
55,79,100080,113
58,79,100080,113
51,64,100080,455
60,79,100200,227
55,79,100440,227
58,79,100440,227
51,64,100560,227
57,79,100680,341
51,64,100800,455
55,79,101040,227
58,79,101040,227
41,64,101280,113
53,64,101280,113
53,64,101400,227
53,66,101640,341
55,83,101760,227
58,83,101760,227
58,84,102000,113
53,68,102000,455
60,85,102120,227
55,88,102360,227
58,88,102360,227
53,72,102480,227
57,89,102600,341
60,89,102600,341
53,73,102720,341
57,93,102960,227
62,93,102960,227
53,76,103080,113
50,95,103200,455
55,95,103200,455
43,77,103200,341
43,79,103560,341
50,99,103680,455
57,99,103680,455
43,81,103920,455
50,102,104160,455
58,102,104160,455
43,85,104400,227
60,106,104640,240
55,86,104640,455
38,99,105120,113
50,99,105120,113
38,99,105240,113
50,99,105240,113
39,99,105360,113
51,99,105360,113
38,99,105480,113
50,99,105480,113
38,99,105840,113
50,99,105840,113
38,99,105960,113
50,99,105960,113
39,99,106080,113
51,99,106080,113
38,99,106200,113
50,99,106200,113
38,99,106560,113
50,99,106560,113
38,99,106680,113
50,99,106680,113
39,99,106800,113
51,99,106800,113
38,99,106920,113
50,99,106920,113
27,99,108000,227
39,99,108000,227
46,99,108240,227
51,99,108240,227
39,99,108480,113
39,99,108600,113
46,99,108720,113
51,99,108720,113
39,99,108840,227
39,99,109080,113
46,99,109200,227
51,99,109200,227
39,99,109440,113
39,99,109560,113
46,99,109680,227
51,99,109680,227
29,99,109920,227
41,99,109920,227
48,99,110160,227
53,99,110160,227
41,99,110400,113
41,99,110520,113
48,99,110640,113
53,99,110640,113
41,99,110760,227
41,99,111000,113
48,99,111120,227
53,99,111120,227
41,99,111360,113
41,99,111480,113
48,99,111600,227
53,99,111600,227
26,99,111840,227
38,99,111840,227
45,99,112080,227
50,99,112080,227
38,99,112320,113
38,99,112440,113
45,99,112560,113
50,99,112560,113
38,99,112680,227
38,99,112920,113
45,99,113040,227
50,99,113040,227
38,99,113280,113
38,99,113400,113
45,99,113520,227
50,99,113520,227
31,99,113760,227
43,99,113760,227
50,99,114000,227
55,99,114000,227
43,99,114240,113
43,99,114360,113
50,99,114480,113
55,99,114480,113
43,99,114600,227
43,99,114840,113
50,99,114960,227
55,99,114960,227
43,99,115200,113
43,99,115320,113
50,99,115440,227
55,99,115440,227
27,99,115680,227
39,99,115680,227
46,99,115920,227
51,99,115920,227
39,99,116160,113
39,99,116280,113
46,99,116400,113
51,99,116400,113
39,99,116520,227
39,99,116760,113
46,99,116880,227
51,99,116880,227
39,99,117120,113
39,99,117240,113
46,99,117360,227
51,99,117360,227
29,99,117600,227
41,99,117600,227
48,99,117840,227
53,99,117840,227
41,99,118080,113
41,99,118200,113
48,99,118320,113
53,99,118320,113
41,99,118440,227
41,99,118680,113
48,99,118800,227
53,99,118800,227
41,99,119040,113
41,99,119160,113
48,99,119280,227
53,99,119280,227
26,99,119520,227
38,99,119520,227
45,99,119760,227
50,99,119760,227
38,99,120000,113
38,99,120120,113
45,99,120240,113
50,99,120240,113
38,99,120360,227
38,99,120600,113
45,99,120720,227
50,99,120720,227
38,99,120960,113
38,99,121080,113
45,99,121200,227
50,99,121200,227
31,99,121440,227
43,99,121440,227
50,99,121680,227
55,99,121680,227
43,99,121920,113
43,99,122040,113
50,99,122160,113
55,99,122160,113
43,99,122280,227
43,99,122520,113
50,99,122640,227
55,99,122640,227
43,99,122880,113
43,99,123000,113
50,99,123120,227
55,99,123120,227
27,99,123360,227
39,99,123360,227
46,99,123600,227
51,99,123600,227
39,99,123840,113
39,99,123960,113
46,99,124080,113
51,99,124080,113
39,99,124200,227
39,99,124440,113
46,99,124560,227
51,99,124560,227
39,99,124800,113
39,99,124920,113
46,99,125040,227
51,99,125040,227
29,99,125280,113
41,99,125280,113
41,99,125400,113
48,99,125520,113
53,99,125520,113
41,99,125640,113
48,99,125760,113
53,99,125760,113
41,99,125880,113
41,99,126000,113
29,99,126120,113
26,112,126240,911
38,112,126240,911
31,98,127200,113
43,98,127200,113
43,98,127320,113
50,98,127440,113
55,98,127440,113
41,98,127560,113
48,98,127680,113
53,98,127680,113
41,98,127800,113
27,98,127920,113
39,98,127920,113
39,98,128040,113
46,98,128160,113
51,98,128160,113
39,98,128280,113
29,98,128400,113
41,98,128400,113
41,98,128520,227
41,98,128760,113
48,98,128880,113
53,98,128880,113
41,98,129000,113
31,98,129120,113
43,98,129120,113
43,98,129240,113
50,98,129360,113
55,98,129360,113
41,98,129480,113
48,98,129600,113
53,98,129600,113
41,98,129720,113
27,98,129840,113
39,98,129840,113
39,98,129960,113
46,98,130080,113
51,98,130080,113
39,98,130200,113
29,98,130320,113
41,98,130320,113
41,98,130440,227
41,98,130680,113
48,98,130800,113
53,98,130800,113
41,98,130920,113
31,98,131040,113
43,98,131040,113
43,98,131160,113
50,98,131280,113
55,98,131280,113
41,98,131400,113
48,98,131520,113
53,98,131520,113
41,98,131640,113
27,98,131760,113
39,98,131760,113
39,98,131880,113
46,98,132000,113
51,98,132000,113
39,98,132120,113
29,98,132240,113
41,98,132240,113
41,98,132360,227
41,98,132600,113
48,98,132720,113
53,98,132720,113
41,98,132840,113
31,98,132960,113
43,98,132960,113
43,98,133080,113
50,98,133200,113
55,98,133200,113
41,98,133320,113
48,98,133440,113
53,98,133440,113
41,98,133560,113
27,98,133680,113
39,98,133680,113
39,98,133800,113
46,98,133920,113
51,98,133920,113
39,98,134040,113
29,98,134160,113
41,98,134160,113
41,98,134280,227
41,98,134520,113
48,98,134640,113
53,98,134640,113
58,80,134760,113
55,80,134880,683
58,80,134880,683
62,80,134880,683
58,80,135600,113
55,80,135720,569
58,80,135720,569
55,64,136440,56
50,64,136500,56
43,64,136560,227
55,64,136560,227
55,64,136800,59
55,64,136920,59
58,64,137040,59
62,64,137040,59
55,64,137160,59
55,64,137280,59
55,64,137400,59
58,64,137520,59
62,64,137520,59
55,64,137640,59
55,64,137760,59
55,64,137880,59
58,64,138000,59
62,64,138000,59
55,64,138120,59
55,64,138240,59
55,64,138360,59
58,64,138480,59
62,64,138480,59
55,64,138600,59
51,64,138720,59
51,64,138840,59
58,64,138960,59
62,64,138960,59
51,64,139080,59
51,64,139200,59
51,64,139320,59
58,64,139440,59
62,64,139440,59
51,64,139560,59
51,64,139680,59
51,64,139800,59
58,64,139920,59
62,64,139920,59
51,64,140040,59
51,64,140160,59
51,64,140280,59
58,64,140400,59
62,64,140400,59
51,64,140520,59
53,64,140640,59
53,64,140760,59
57,64,140880,59
60,64,140880,59
53,64,141000,59
53,64,141120,59
53,64,141240,59
57,64,141360,59
60,64,141360,59
53,64,141480,59
53,64,141600,59
53,64,141720,59
57,64,141840,59
60,64,141840,59
53,64,141960,59
57,64,142080,113
60,64,142080,113
53,68,142200,113
53,71,142320,113
41,74,142440,113
43,87,142560,455
55,87,142560,455
58,96,142800,113
58,96,142920,113
58,96,143040,113
55,87,143040,455
60,96,143160,227
58,96,143400,227
62,96,143400,227
60,96,143640,227
45,87,143760,227
58,96,143880,569
62,96,143880,569
46,87,144000,227
48,87,144240,227
43,87,144480,455
50,87,144480,455
58,96,144720,227
58,96,144960,227
55,87,144960,455
60,96,145200,113
62,96,145320,227
55,87,145440,455
60,96,145560,227
63,96,145560,227
58,96,145800,341
62,96,145800,341
53,87,145920,455
60,96,146160,227
63,96,146160,227
58,96,146400,683
62,96,146400,683
51,87,146400,227
39,87,146640,113
46,87,146760,113
51,87,146880,113
53,87,147000,113
58,96,147120,113
55,87,147120,341
58,96,147240,569
51,87,147480,113
46,87,147600,113
39,87,147720,113
41,87,147840,455
53,96,148080,227
60,96,148320,227
65,96,148320,227
53,87,148320,455
63,97,148560,113
58,97,148680,227
62,97,148680,227
53,89,148800,455
60,99,148920,227
63,99,148920,227
58,100,149160,341
62,100,149160,341
41,91,149280,341
53,102,149520,227
57,102,149520,227
60,102,149520,227
48,92,149640,227
53,103,149760,227
58,103,149760,227
41,94,149880,341
48,104,150000,227
53,104,150000,227
57,104,150000,227
29,106,150240,113
41,106,150240,113
31,106,150360,113
43,106,150360,113
31,106,150600,113
43,106,150600,113
32,106,150720,227
44,106,150720,227
29,106,150960,113
41,106,150960,113
31,106,151080,113
43,106,151080,113
31,106,151320,113
43,106,151320,113
32,106,151440,227
44,106,151440,227
29,106,151680,227
41,106,151680,227
29,106,151920,113
41,106,151920,113
31,106,152040,113
43,106,152040,113
31,106,152280,113
43,106,152280,113
32,106,152400,227
44,106,152400,227
29,106,152640,113
41,106,152640,113
31,106,152760,113
43,106,152760,113
31,106,153000,113
43,106,153000,113
32,106,153120,227
44,106,153120,227
34,106,153360,227
46,106,153360,227
32,106,153600,227
44,106,153600,227
39,64,153840,113
46,64,153960,113
51,64,154080,227
55,81,154320,227
58,81,154320,227
58,81,154560,113
57,81,154680,227
60,81,154680,227
51,64,154800,911
55,81,154920,227
58,81,154920,227
53,81,155160,341
57,81,155160,341
55,81,155520,227
58,81,155520,227
41,64,155760,113
48,64,155880,113
53,64,156000,227
55,81,156120,113
55,81,156240,227
58,81,156240,227
58,81,156480,113
57,81,156600,227
60,81,156600,227
53,64,156720,720
55,81,156840,227
58,81,156840,227
57,81,157080,341
60,81,157080,341
53,81,157440,227
58,81,157680,341
62,81,157680,341
55,64,157680,113
50,64,157800,113
55,64,157920,113
63,81,158040,341
58,64,158040,227
55,64,158280,113
62,81,158400,455
58,64,158400,113
55,64,158520,113
50,64,158640,113
43,64,158760,113
58,81,158880,227
55,64,158880,113
50,64,159000,113
55,64,159120,113
43,64,159240,113
53,81,159360,227
50,64,159360,113
43,64,159480,113
43,64,159600,113
50,64,159720,113
55,64,159840,113
58,64,159960,227
55,64,160200,113
58,64,160320,113
55,64,160440,113
50,64,160560,113
43,64,160680,113
55,64,160800,113
50,64,160920,113
55,64,161040,113
43,64,161160,113
50,64,161280,113
55,64,161400,113
67,49,161520,227
51,49,161520,1823
58,49,161520,1823
63,49,161760,113
74,49,161880,113
74,49,162000,341
72,49,162360,341
70,49,162720,341
69,49,163080,341
53,49,163440,341
60,49,163440,341
69,49,163440,341
53,49,163800,113
55,49,163920,75
57,49,164000,75
58,49,164080,75
60,49,164160,75
62,49,164240,75
63,49,164320,75
65,49,164400,64
67,49,164469,64
69,49,164537,64
70,49,164606,64
72,49,164674,64
74,49,164743,64
75,49,164811,64
77,49,164880,227
55,96,165120,227
50,96,165360,455
55,96,165360,455
43,96,165360,1367
50,98,165840,455
57,98,165840,455
50,100,166320,455
58,100,166320,455
60,102,166800,240
55,102,166800,227
31,103,167040,227
43,103,167040,227
38,105,167280,113
50,105,167280,113
38,105,167400,113
50,105,167400,113
39,105,167520,113
51,105,167520,113
38,105,167640,113
50,105,167640,113
38,105,168000,113
50,105,168000,113
38,105,168120,113
50,105,168120,113
39,105,168240,113
51,105,168240,113
38,105,168360,113
50,105,168360,113
38,105,168720,113
50,105,168720,113
38,105,168840,113
50,105,168840,113
39,105,168960,113
51,105,168960,113
38,105,169080,113
50,105,169080,113
57,105,169800,113
50,105,169920,227
27,98,170160,227
39,98,170160,227
46,98,170400,227
51,98,170400,227
39,98,170640,113
39,98,170760,113
46,98,170880,113
51,98,170880,113
39,98,171000,227
39,98,171240,113
46,98,171360,227
51,98,171360,227
39,98,171600,113
39,98,171720,113
46,98,171840,227
51,98,171840,227
29,98,172080,227
41,98,172080,227
48,98,172320,227
53,98,172320,227
41,98,172560,113
41,98,172680,113
48,98,172800,113
53,98,172800,113
41,98,172920,227
41,98,173160,113
48,98,173280,227
53,98,173280,227
41,98,173520,113
41,98,173640,113
48,98,173760,227
53,98,173760,227
26,98,174000,227
38,98,174000,227
45,98,174240,227
50,98,174240,227
38,98,174480,113
38,98,174600,113
45,98,174720,113
50,98,174720,113
38,98,174840,227
38,98,175080,113
45,98,175200,227
50,98,175200,227
38,98,175440,113
38,98,175560,113
45,98,175680,227
50,98,175680,227
31,98,175920,227
43,98,175920,227
50,98,176160,227
55,98,176160,227
43,98,176400,113
43,98,176520,113
50,98,176640,113
55,98,176640,113
43,98,176760,227
43,98,177000,113
50,98,177120,227
55,98,177120,227
43,98,177360,113
43,98,177480,113
50,98,177600,227
55,98,177600,227
27,98,177840,227
39,98,177840,227
46,98,178080,227
51,98,178080,227
39,98,178320,113
39,98,178440,113
46,98,178560,113
51,98,178560,113
39,98,178680,227
39,98,178920,113
46,98,179040,227
51,98,179040,227
39,98,179280,113
39,98,179400,113
46,98,179520,227
51,98,179520,227
29,98,179760,227
41,98,179760,227
48,98,180000,227
53,98,180000,227
41,98,180240,113
41,98,180360,113
48,98,180480,113
53,98,180480,113
41,98,180600,227
41,98,180840,113
48,98,180960,227
53,98,180960,227
41,98,181200,113
41,98,181320,113
48,98,181440,227
53,98,181440,227
26,98,181680,227
38,98,181680,227
45,98,181920,227
50,98,181920,227
38,98,182160,113
38,98,182280,113
45,98,182400,113
50,98,182400,113
38,98,182520,227
38,98,182760,113
45,98,182880,227
50,98,182880,227
38,98,183120,113
38,98,183240,113
45,98,183360,227
50,98,183360,227
31,98,183600,227
43,98,183600,227
50,98,183840,227
55,98,183840,227
43,98,184080,113
43,98,184200,113
50,98,184320,113
55,98,184320,113
43,98,184440,227
43,98,184680,113
50,98,184800,227
55,98,184800,227
43,98,185040,113
43,98,185160,113
50,98,185280,227
55,98,185280,227
27,98,185520,227
39,98,185520,227
46,98,185760,227
51,98,185760,227
39,98,186000,113
39,98,186120,113
46,98,186240,113
51,98,186240,113
39,98,186360,227
39,98,186600,113
46,98,186720,227
51,98,186720,227
39,98,186960,113
39,98,187080,113
46,98,187200,227
51,98,187200,227
29,98,187440,113
41,98,187440,113
41,98,187560,113
48,98,187680,113
53,98,187680,113
41,98,187800,113
48,98,187920,113
53,98,187920,113
41,98,188040,113
41,98,188160,113
29,98,188280,113
26,112,188400,911
38,112,188400,911
43,80,189360,341
55,80,189360,341
43,80,189720,341
55,80,189720,341
43,80,190080,683
55,80,190080,683
55,80,190800,113
43,80,190920,113
55,80,191040,227
43,80,191280,569
55,80,191280,569
55,80,191880,113
65,80,192000,227
70,80,192000,227
55,80,192240,227
55,80,192480,113
50,80,192600,113
43,80,192720,227
50,80,192960,227
39,80,193200,341
51,80,193200,341
39,80,193560,113
51,80,193680,113
46,80,193800,113
39,80,193920,227
51,80,193920,227
39,80,194160,455
51,80,194160,455
51,80,194640,113
39,80,194760,113
51,80,194880,227
41,80,195120,455
53,80,195120,455
53,80,195600,227
53,80,195840,113
48,80,195960,341
53,80,196320,227
41,80,196560,227
55,94,196800,227
55,94,197040,455
58,94,197040,455
62,94,197040,455
55,94,197760,113
58,94,197760,113
55,94,197880,569
58,94,197880,569
58,94,198720,113
58,94,198840,113
55,94,198960,227
58,94,198960,227
60,94,199200,113
58,94,199320,227
62,94,199320,227
60,94,199560,227
63,94,199560,227
58,94,199800,341
62,94,199800,341
60,94,200160,227
55,94,200400,227
58,94,200400,227
55,94,200640,227
60,94,200640,227
51,94,200880,683
58,94,200880,683
62,94,200880,683
51,94,201600,113
58,94,201600,113
51,94,201720,569
58,94,201720,569
53,94,202440,113
53,94,202560,113
53,94,202680,113
53,94,202800,227
60,94,202800,227
65,94,202800,227
63,94,203040,113
53,94,203160,227
62,94,203160,227
60,94,203400,227
63,94,203400,227
53,94,203640,341
62,94,203640,341
60,94,204000,227
53,94,204240,227
57,94,204240,227
63,94,204240,227
53,94,204480,227
57,94,204480,227
62,94,204480,227
43,80,204720,341
50,80,204720,341
55,80,204720,341
50,80,205080,113
58,96,205200,113
55,80,205200,455
58,96,205320,113
58,96,205440,113
60,96,205560,227
50,80,205680,113
58,96,205800,227
55,80,205800,113
50,80,205920,113
57,96,206040,341
55,80,206040,227
50,80,206280,113
58,96,206400,227
55,80,206400,113
50,80,206520,113
43,80,206640,341
55,80,206640,341
50,80,207000,113
58,96,207120,227
55,80,207120,455
58,96,207360,113
60,96,207480,227
50,80,207600,113
58,96,207720,227
55,80,207720,113
50,80,207840,113
60,96,207960,341
55,80,207960,227
50,80,208200,113
62,96,208320,227
58,80,208320,113
50,80,208440,113
62,96,208560,683
51,80,208560,227
55,80,208560,227
39,80,208800,113
46,80,208920,113
51,80,209040,113
55,80,209160,227
58,96,209280,113
58,96,209400,569
55,80,209400,341
39,80,209760,227
51,80,209760,227
39,80,210000,113
46,80,210120,113
51,80,210240,113
55,80,210360,113
53,80,210480,113
60,80,210480,113
65,80,210480,113
53,80,210840,113
60,80,210840,113
65,80,210840,113
58,96,211200,227
53,80,211200,119
60,96,211440,227
58,96,211680,113
57,96,211800,2393
58,81,219840,113
58,81,219960,113
70,81,220080,227
51,64,220080,911
58,64,220080,911
70,81,220320,113
69,81,220440,227
65,81,220680,113
65,81,220800,113
65,81,220920,113
67,81,221040,113
51,64,221040,911
58,64,221040,911
65,81,221160,113
65,81,221280,113
65,81,221400,227
62,81,221640,113
62,81,221760,113
62,81,221880,113
67,81,222000,113
53,64,222000,911
60,64,222000,911
65,81,222120,113
65,81,222240,113
65,81,222360,227
62,81,222600,113
62,81,222720,113
62,81,222840,113
67,81,222960,113
53,64,222960,911
60,64,222960,911
65,81,223080,113
65,81,223200,113
65,81,223320,227
62,81,223560,113
62,81,223680,113
62,81,223800,113
62,81,223920,113
50,64,223920,911
57,64,223920,911
63,83,224040,113
62,84,224160,113
63,85,224280,113
65,87,224400,227
62,89,224640,113
63,90,224760,113
62,92,224880,113
50,72,224880,911
57,72,224880,911
63,93,225000,113
65,94,225120,227
62,97,225360,113
63,98,225480,113
65,99,225600,113
58,101,225720,113
43,94,225840,119
55,94,225840,119
43,103,227040,113
50,103,227160,113
55,103,227160,113
43,106,227280,113
43,110,227400,113
38,113,227520,113
31,116,227640,113
27,98,227760,227
39,98,227760,227
46,98,228000,227
51,98,228000,227
39,98,228240,113
39,98,228360,113
46,98,228480,113
51,98,228480,113
39,98,228600,227
39,98,228840,113
46,98,228960,227
51,98,228960,227
39,98,229200,113
39,98,229320,113
46,98,229440,227
51,98,229440,227
29,98,229680,227
41,98,229680,227
48,98,229920,227
53,98,229920,227
41,98,230160,113
41,98,230280,113
48,98,230400,113
53,98,230400,113
41,98,230520,227
41,98,230760,113
48,98,230880,227
53,98,230880,227
41,98,231120,113
41,98,231240,113
48,98,231360,227
53,98,231360,227
26,98,231600,227
38,98,231600,227
45,98,231840,227
50,98,231840,227
38,98,232080,113
38,98,232200,113
45,98,232320,113
50,98,232320,113
38,98,232440,227
38,98,232680,113
45,98,232800,227
50,98,232800,227
38,98,233040,113
38,98,233160,113
45,98,233280,227
50,98,233280,227
31,98,233520,227
43,98,233520,227
50,98,233760,227
55,98,233760,227
43,98,234000,113
43,98,234120,113
50,98,234240,113
55,98,234240,113
43,98,234360,227
43,98,234600,113
50,98,234720,227
55,98,234720,227
43,98,234960,113
43,98,235080,113
50,98,235200,227
55,98,235200,227
27,98,235440,227
39,98,235440,227
46,98,235680,227
51,98,235680,227
39,98,235920,113
39,98,236040,113
46,98,236160,113
51,98,236160,113
39,98,236280,227
39,98,236520,113
46,98,236640,227
51,98,236640,227
39,98,236880,113
39,98,237000,113
46,98,237120,227
51,98,237120,227
29,98,237360,113
41,98,237360,113
41,98,237480,113
48,98,237600,113
53,98,237600,113
41,98,237720,113
48,98,237840,113
53,98,237840,113
41,98,237960,113
41,98,238080,113
29,98,238200,113
26,112,238320,911
38,112,238320,911
31,99,239280,59
43,99,239280,59
31,99,239400,59
43,99,239400,59
31,99,239520,59
43,99,239520,59
31,99,239640,59
43,99,239640,59
31,99,239760,113
43,99,239760,113
43,99,239880,113
50,99,240000,113
55,99,240000,113
41,99,240120,113
48,99,240240,113
53,99,240240,113
41,99,240360,113
27,99,240480,113
39,99,240480,113
39,99,240600,113
46,99,240720,113
51,99,240720,113
39,99,240840,113
29,99,240960,113
41,99,240960,113
41,99,241080,227
41,99,241320,113
48,99,241440,113
53,99,241440,113
41,99,241560,113
31,99,241680,113
43,99,241680,113
43,99,241800,113
50,99,241920,113
55,99,241920,113
41,99,242040,113
48,99,242160,113
53,99,242160,113
41,99,242280,113
27,99,242400,113
39,99,242400,113
39,99,242520,113
46,99,242640,113
51,99,242640,113
39,99,242760,113
29,99,242880,113
41,99,242880,113
41,99,243000,227
41,99,243240,113
48,99,243360,113
53,99,243360,113
41,99,243480,113
31,99,243600,113
43,99,243600,113
43,99,243720,113
50,99,243840,113
55,99,243840,113
41,99,243960,113
48,99,244080,113
53,99,244080,113
41,99,244200,113
27,99,244320,113
39,99,244320,113
39,99,244440,113
46,99,244560,113
51,99,244560,113
39,99,244680,113
29,99,244800,113
41,99,244800,113
41,99,244920,227
41,99,245160,113
48,99,245280,113
53,99,245280,113
41,99,245400,113
31,99,245520,113
43,99,245520,113
43,99,245640,113
50,99,245760,113
55,99,245760,113
41,99,245880,113
48,99,246000,113
53,99,246000,113
41,99,246120,113
27,99,246240,113
39,99,246240,113
39,99,246360,113
46,99,246480,113
51,99,246480,113
39,99,246600,113
29,99,246720,113
41,99,246720,113
41,99,246840,227
41,99,247080,113
48,99,247200,113
53,99,247200,113
41,99,247320,113
31,99,247440,113
43,99,247440,113
43,99,247560,113
50,99,247680,113
55,99,247680,113
41,99,247800,113
48,99,247920,113
55,99,247920,113
53,99,248040,113
39,99,248160,113
46,99,248280,113
55,99,248280,113
53,99,248400,113
39,99,248520,113
29,99,248640,113
41,99,248640,113
41,99,248760,113
48,99,248880,113
55,99,248880,113
57,99,249000,113
48,99,249120,113
53,99,249120,113
41,99,249240,113
31,99,249360,113
43,99,249360,113
43,99,249480,113
50,99,249600,113
55,99,249600,113
41,99,249720,113
48,99,249840,113
57,99,249840,113
58,99,249960,113
39,99,250080,113
51,99,250200,113
57,99,250200,113
58,99,250320,113
39,99,250440,113
29,99,250560,113
41,99,250560,113
41,99,250680,113
48,99,250800,113
57,99,250800,113
58,99,250920,113
48,99,251040,227
53,99,251040,227
47,99,251280,113
59,99,251280,113
46,99,251400,113
58,99,251400,113
45,99,251520,113
57,99,251520,113
44,99,251640,113
56,99,251640,113
43,99,251760,113
55,99,251760,113
42,99,251880,113
54,99,251880,113
41,99,252000,113
53,99,252000,113
40,99,252120,113
52,99,252120,113
39,99,252240,113
51,99,252240,113
38,99,252360,113
50,99,252360,113
37,99,252480,113
49,99,252480,113
36,99,252600,113
48,99,252600,113
35,99,252720,113
47,99,252720,113
34,99,252840,113
46,99,252840,113
33,99,252960,113
45,99,252960,113
32,99,253080,113
44,99,253080,113
31,99,253200,113
43,99,253200,113
43,99,253320,113
50,99,253440,113
55,99,253440,113
41,99,253560,113
48,99,253680,113
53,99,253680,113
41,99,253800,113
27,99,253920,113
39,99,253920,113
39,99,254040,113
46,99,254160,113
51,99,254160,113
39,99,254280,113
29,99,254400,113
41,99,254400,113
41,99,254520,113
48,99,254640,113
53,99,254640,113
41,99,254760,113
29,112,254880,113
41,112,254880,113
31,112,255000,113
43,112,255000,113
