note,velocity,position,duration
89,96,0,455
91,96,480,455
93,96,960,911
91,96,1920,455
89,96,2400,455
88,96,2880,911
88,96,3840,455
89,96,4320,455
91,96,4800,911
89,96,5760,455
88,96,6240,455
86,96,6720,911
89,96,7680,455
91,96,8160,455
93,96,8640,911
91,96,9600,455
89,96,10080,455
91,96,10560,911
88,96,11520,911
86,96,12480,911
88,96,13440,911
89,96,14400,911
91,96,15360,911
93,96,16320,911
91,96,17280,455
89,96,17760,455
88,96,18240,911
88,96,19200,455
89,96,19680,455
91,96,20160,911
89,96,21120,455
88,96,21600,455
86,96,22080,911
89,96,23040,455
91,96,23520,455
93,96,24000,911
91,96,24960,455
89,96,25440,455
91,96,25920,911
96,96,26880,911
98,96,27840,911
84,80,28800,911
88,80,28800,911
74,80,29760,911
81,80,30720,911
86,80,30720,911
81,104,31680,911
79,104,32640,455
77,104,33120,455
76,104,33600,911
76,104,34560,455
77,104,35040,455
79,104,35520,911
77,104,36480,455
76,104,36960,455
74,104,37440,911
77,104,38400,455
79,104,38880,455
81,104,39360,911
79,104,40320,455
77,104,40800,455
79,104,41280,911
84,104,42240,911
81,104,43200,911
76,104,44160,911
77,104,45120,911
79,104,46080,911
81,107,47040,911
93,107,47040,911
79,107,48000,455
91,107,48000,455
77,107,48480,455
89,107,48480,455
76,107,48960,911
88,107,48960,911
76,107,49920,455
88,107,49920,455
77,107,50400,455
89,107,50400,455
79,107,50880,911
91,107,50880,911
77,107,51840,455
89,107,51840,455
76,107,52320,455
88,107,52320,455
74,107,52800,911
86,107,52800,911
77,107,53760,455
89,107,53760,455
79,107,54240,455
91,107,54240,455
81,107,54720,911
93,107,54720,911
79,107,55680,455
91,107,55680,455
77,107,56160,455
89,107,56160,455
79,107,56640,911
91,107,56640,911
84,107,57600,911
96,107,57600,911
86,107,58560,3647
98,107,58560,3647
74,96,64320,151
76,96,64480,151
77,96,64640,151
81,96,64800,151
82,96,64960,151
86,96,65120,151
76,112,65280,151
88,112,65280,151
77,112,65440,151
89,112,65440,151
81,112,65600,151
93,112,65600,151
82,112,65760,151
94,112,65760,151
86,112,65920,151
98,112,65920,151
88,112,66080,151
100,112,66080,151
74,80,69600,227
76,80,69840,227
77,80,70080,455
79,80,70560,455
76,80,71040,455
72,80,71520,455
77,80,72000,455
81,80,72480,455
79,80,72960,455
74,80,73440,227
76,80,73680,227
77,80,73920,455
79,80,74400,455
76,80,74880,455
72,80,75360,455
70,80,75840,455
81,80,76320,455
79,80,76800,455
74,80,77280,227
76,80,77520,227
77,80,77760,455
79,80,78240,455
76,80,78720,455
72,80,79200,455
77,80,79680,455
81,80,80160,455
79,80,80640,455
74,80,81120,227
76,80,81360,227
77,80,81600,455
79,80,82080,455
76,80,82560,455
72,80,83040,455
74,80,83520,1367
74,89,84960,227
76,90,85200,227
77,92,85440,455
79,92,85920,455
76,92,86400,455
72,92,86880,455
77,92,87360,455
81,92,87840,455
79,92,88320,455
74,92,88800,227
76,92,89040,227
77,92,89280,455
79,92,89760,455
76,92,90240,455
72,92,90720,455
70,92,91200,455
81,92,91680,455
79,92,92160,455
74,92,92640,227
76,92,92880,227
77,92,93120,455
79,92,93600,455
76,92,94080,455
72,92,94560,455
77,92,95040,455
81,92,95520,455
79,92,96000,455
74,92,96480,227
76,92,96720,227
77,92,96960,455
79,92,97440,455
76,92,97920,455
72,92,98400,455
74,92,98880,911
77,92,99840,455
89,92,99840,455
79,88,100320,455
91,88,100320,455
81,84,100800,1367
93,84,100800,1367
74,80,102240,0
86,80,102240,455
81,80,102720,911
93,80,102720,911
86,80,103680,911
98,80,103680,911
84,80,104640,455
96,80,104640,455
82,80,105120,455
94,80,105120,455
79,80,105600,911
91,80,105600,911
81,80,106560,1823
93,80,106560,1823
81,80,108480,1367
93,80,108480,1367
74,80,109920,455
86,80,109920,455
79,80,110400,911
91,80,110400,911
84,80,111360,911
96,80,111360,911
82,80,112320,1367
94,80,112320,1367
84,86,113760,455
96,86,113760,455
81,88,114240,911
93,88,114240,911
77,92,115200,455
89,92,115200,455
79,94,115680,455
91,94,115680,455
81,96,116160,1367
93,96,116160,1367
74,96,117600,455
86,96,117600,455
81,96,118080,911
93,96,118080,911
86,96,119040,911
98,96,119040,911
84,96,120000,455
96,96,120000,455
82,97,120480,455
94,97,120480,455
79,98,120960,911
91,98,120960,911
81,100,121920,911
93,100,121920,911
74,102,122880,455
86,102,122880,455
76,103,123360,455
88,103,123360,455
77,104,123840,455
89,104,123840,455
79,105,124320,455
91,105,124320,455
76,106,124800,455
88,106,124800,455
72,107,125280,320
84,107,125280,455
77,108,125760,455
89,108,125760,455
81,109,126240,455
93,109,126240,455
79,110,126720,455
91,110,126720,455
74,111,127200,227
86,111,127200,227
76,111,127440,227
88,111,127440,227
77,112,127680,455
89,112,127680,455
79,112,128160,455
91,112,128160,455
76,112,128640,455
88,112,128640,455
72,112,129120,455
84,112,129120,455
70,112,129600,455
82,112,129600,455
81,112,130080,455
93,112,130080,455
79,112,130560,455
91,112,130560,455
84,112,131040,455
96,112,131040,455
77,112,134400,455
89,112,134400,455
79,112,134880,455
91,112,134880,455
81,112,135360,911
86,112,135360,911
93,112,135360,911
79,112,136320,455
91,112,136320,455
77,112,136800,455
89,112,136800,455
76,112,137280,911
82,112,137280,911
88,112,137280,911
76,112,138240,455
82,112,138240,455
88,112,138240,455
77,112,138720,455
89,112,138720,455
79,112,139200,911
84,112,139200,911
88,112,139200,911
91,112,139200,911
77,112,140160,455
81,112,140160,455
89,112,140160,455
76,112,140640,455
79,112,140640,455
88,112,140640,455
74,112,141120,911
77,112,141120,911
86,112,141120,911
77,112,142080,455
81,112,142080,455
84,112,142080,455
89,112,142080,455
79,112,142560,455
91,112,142560,455
81,112,143040,911
86,112,143040,911
93,112,143040,911
79,112,144000,455
91,112,144000,455
77,112,144480,455
89,112,144480,455
79,112,144960,911
82,112,144960,911
86,112,144960,911
91,112,144960,911
76,112,145920,911
79,112,145920,911
82,112,145920,911
88,112,145920,911
74,112,146880,911
77,112,146880,911
86,112,146880,911
76,112,147840,911
80,112,147840,911
88,112,147840,911
77,112,148800,911
81,112,148800,911
89,112,148800,911
79,112,149760,911
85,112,149760,911
91,112,149760,911
81,112,150720,911
84,112,150720,911
93,112,150720,911
79,112,151680,455
84,112,151680,455
91,112,151680,455
77,112,152160,455
89,112,152160,455
76,112,152640,911
79,112,152640,911
84,112,152640,911
88,112,152640,911
76,112,153600,455
79,112,153600,455
84,112,153600,455
88,112,153600,455
77,112,154080,455
89,112,154080,455
79,112,154560,911
82,112,154560,911
87,112,154560,911
91,112,154560,911
77,112,155520,455
89,112,155520,455
75,112,156000,455
87,112,156000,455
74,112,156480,911
79,112,156480,911
83,112,156480,911
86,112,156480,911
77,112,157440,455
89,112,157440,455
79,112,157920,455
91,112,157920,455
81,112,158400,911
86,112,158400,911
93,112,158400,911
79,112,159360,455
91,112,159360,455
77,112,159840,455
89,112,159840,455
79,112,160320,911
86,112,160320,911
91,112,160320,911
84,112,161280,911
96,112,161280,911
86,112,162240,1823
91,112,162240,1823
93,112,162240,1823
98,112,162240,1823
66,96,164160,1367
69,96,164160,1367
74,96,164160,1367
78,96,164160,1367
74,112,165600,227
76,112,165840,227
65,112,166080,455
69,112,166080,455
74,112,166080,455
77,112,166080,455
67,112,166560,455
79,112,166560,455
64,112,167040,455
67,112,167040,455
72,112,167040,455
76,112,167040,455
72,112,167520,455
65,112,168000,455
74,112,168000,455
77,112,168000,455
69,112,168480,455
81,112,168480,455
67,112,168960,455
72,112,168960,455
79,112,168960,455
62,112,169440,227
74,112,169440,227
64,112,169680,227
72,112,169680,227
76,112,169680,227
65,112,169920,455
70,112,169920,455
74,112,169920,455
77,112,169920,455
67,112,170400,455
79,112,170400,455
64,112,170880,455
67,112,170880,455
72,112,170880,455
76,112,170880,455
72,112,171360,455
58,112,171840,455
62,112,171840,455
65,112,171840,455
70,112,171840,455
69,112,172320,455
74,112,172320,455
81,112,172320,455
67,112,172800,455
74,112,172800,455
76,112,172800,455
79,112,172800,455
62,112,173280,227
74,112,173280,227
64,112,173520,227
76,112,173520,227
65,112,173760,455
69,112,173760,455
74,112,173760,455
77,112,173760,455
67,112,174240,455
79,112,174240,455
64,112,174720,455
67,112,174720,455
72,112,174720,455
76,112,174720,455
72,112,175200,455
65,112,175680,455
74,112,175680,455
77,112,175680,455
69,112,176160,455
81,112,176160,455
67,112,176640,455
72,112,176640,455
79,112,176640,455
62,112,177120,227
74,112,177120,227
64,112,177360,227
72,112,177360,227
76,112,177360,227
65,112,177600,455
70,112,177600,455
74,112,177600,455
77,112,177600,455
67,112,178080,455
79,112,178080,455
64,112,178560,455
67,112,178560,455
72,112,178560,455
76,112,178560,455
72,112,179040,455
62,112,179520,240
67,112,179520,911
69,112,179520,911
74,112,179520,911
62,98,179760,671
57,112,180000,227
52,98,180240,227
66,112,180480,455
62,112,180960,227
74,112,180960,227
64,112,181200,227
76,112,181200,227
65,112,181440,240
69,112,181440,240
74,112,181440,455
77,112,181440,455
74,112,181920,455
79,112,181920,455
67,112,182400,455
72,112,182400,455
76,112,182400,455
69,112,182880,455
72,112,182880,455
69,112,183360,455
74,112,183360,455
77,112,183360,455
81,112,183840,455
67,112,184320,455
72,112,184320,455
79,112,184320,455
67,112,184800,227
74,112,184800,227
76,112,185040,227
67,112,185280,455
70,112,185280,455
74,112,185280,455
77,112,185280,455
67,112,185760,455
70,112,185760,455
74,112,185760,455
79,112,185760,455
64,112,186240,240
67,112,186240,455
72,112,186240,455
76,112,186240,455
67,112,186720,455
72,112,186720,455
62,112,187200,240
65,112,187200,240
70,112,187200,455
69,112,187680,455
74,112,187680,455
81,112,187680,455
67,112,188160,240
73,112,188160,455
79,112,188160,455
74,112,188640,227
76,112,188880,227
69,112,189120,240
74,112,189120,455
77,112,189120,455
74,112,189600,455
79,112,189600,455
67,112,190080,455
72,112,190080,455
76,112,190080,455
67,112,190560,455
72,112,190560,455
69,112,191040,455
72,112,191040,455
77,112,191040,455
72,112,191520,455
81,112,191520,455
67,112,192000,240
71,112,192000,455
74,112,192000,455
79,112,192000,455
71,112,192480,227
74,112,192480,227
76,112,192720,227
69,112,192960,455
74,112,192960,455
77,112,192960,455
69,112,193440,455
74,112,193440,455
79,112,193440,455
67,112,193920,455
72,112,193920,455
76,112,193920,455
67,112,194400,455
72,112,194400,455
62,112,194880,240
67,112,194880,240
69,112,194880,911
74,112,194880,911
77,112,195840,455
89,112,195840,455
79,112,196320,455
91,112,196320,455
81,112,196800,911
86,112,196800,911
93,112,196800,911
79,112,197760,455
91,112,197760,455
77,112,198240,455
89,112,198240,455
76,112,198720,911
79,112,198720,911
84,112,198720,911
88,112,198720,911
76,112,199680,455
88,112,199680,455
77,112,200160,455
89,112,200160,455
79,112,200640,911
84,112,200640,911
91,112,200640,911
77,112,201600,455
89,112,201600,455
76,112,202080,455
88,112,202080,455
74,112,202560,911
77,112,202560,911
86,112,202560,911
77,112,203520,455
89,112,203520,455
79,112,204000,455
91,112,204000,455
81,112,204480,911
86,112,204480,911
93,112,204480,911
79,112,205440,455
91,112,205440,455
77,112,205920,455
89,112,205920,455
79,112,206400,911
84,112,206400,911
91,112,206400,911
84,112,207360,911
96,112,207360,911
81,112,208320,911
84,112,208320,911
93,112,208320,911
76,112,209280,911
79,112,209280,911
84,112,209280,911
88,112,209280,911
77,112,210240,911
81,112,210240,911
89,112,210240,911
79,112,211200,911
81,112,211200,911
84,112,211200,911
91,112,211200,911
81,112,212160,911
86,112,212160,911
93,112,212160,911
79,112,213120,455
86,112,213120,455
91,112,213120,455
77,112,213600,455
86,112,213600,455
89,112,213600,455
76,112,214080,911
79,112,214080,911
84,112,214080,911
88,112,214080,911
76,112,215040,455
79,112,215040,455
84,112,215040,455
88,112,215040,455
77,112,215520,455
79,112,215520,455
84,112,215520,455
89,112,215520,455
79,112,216000,911
85,112,216000,911
88,112,216000,911
91,112,216000,911
77,112,216960,455
81,112,216960,455
85,112,216960,455
89,112,216960,455
76,112,217440,455
88,112,217440,455
74,112,217920,911
77,112,217920,911
81,112,217920,911
86,112,217920,911
77,112,218880,455
81,112,218880,455
84,112,218880,455
89,112,218880,455
79,112,219360,455
91,112,219360,455
81,112,219840,911
86,112,219840,911
93,112,219840,911
79,112,220800,455
86,112,220800,455
91,112,220800,455
77,112,221280,455
89,112,221280,455
79,112,221760,911
84,112,221760,911
88,112,221760,911
91,112,221760,911
84,112,222720,911
88,112,222720,911
91,112,222720,911
96,112,222720,911
86,112,223680,1823
89,112,223680,1823
93,112,223680,1823
98,112,223680,1823
64,96,225600,151
69,96,225600,151
57,96,225760,151
64,96,225920,151
69,96,226080,151
64,96,226240,151
69,96,226400,151
76,96,226560,151
69,96,226720,151
76,96,226880,151
81,113,227040,151
76,96,227200,151
81,113,227360,151
69,96,227520,151
76,96,227520,151
69,96,227680,151
76,96,227840,151
81,96,228000,151
76,96,228160,151
69,96,228320,151
76,113,228480,151
69,96,228640,151
64,96,228800,151
69,96,228960,151
64,96,229120,151
57,96,229280,151
59,109,229440,911
62,109,229440,320
67,109,229440,160
77,112,230400,455
89,112,230400,455
79,112,230880,455
91,112,230880,455
81,112,231360,911
86,112,231360,911
89,112,231360,911
93,112,231360,911
79,112,232320,455
91,112,232320,455
77,112,232800,455
89,112,232800,455
79,112,233280,911
84,112,233280,911
88,112,233280,911
91,112,233280,911
84,112,234240,911
88,112,234240,911
91,112,234240,911
96,112,234240,911
86,127,235200,479
91,127,235200,479
93,127,235200,479
98,127,235200,479
45,127,235680,119
50,112,235800,113
55,112,235920,113
57,112,236040,113
50,127,236160,119
55,112,236280,113
57,112,236400,113
62,112,236520,113
55,127,236640,119
57,112,236760,113
62,112,236880,113
67,112,237000,113
57,127,237120,119
62,112,237240,113
67,112,237360,113
69,112,237480,113
62,127,237600,119
67,112,237720,113
69,112,237840,113
74,112,237960,113
67,127,238080,119
69,112,238200,113
74,112,238320,113
79,112,238440,113
69,127,238560,119
74,112,238680,113
79,112,238800,113
81,112,238920,113
86,127,239040,1919
90,127,239040,1919
93,127,239040,1919
98,127,239040,1919
70,80,960,455
74,80,1440,455
77,80,1920,911
81,80,1920,911
72,80,2880,455
76,80,3360,455
79,80,3840,911
84,80,3840,911
69,80,4800,455
72,80,5280,455
76,80,5760,455
81,80,5760,455
72,80,6240,455
74,80,6720,455
77,80,7200,455
81,80,7680,455
84,80,7680,455
77,80,8160,455
70,80,8640,455
74,80,9120,455
77,80,9600,911
81,80,9600,911
69,80,10560,455
72,80,11040,455
76,80,11520,911
79,80,11520,911
74,80,12480,455
77,80,12960,455
84,80,13440,455
77,80,13920,455
74,80,14400,455
77,80,14880,455
81,80,15360,455
86,80,15360,455
77,80,15840,455
70,80,16320,455
74,80,16800,455
77,80,17280,911
81,80,17280,911
72,80,18240,455
76,80,18720,455
79,80,19200,911
84,80,19200,911
69,80,20160,455
72,80,20640,455
76,80,21120,455
81,80,21120,455
72,80,21600,455
74,80,22080,455
77,80,22560,455
81,80,23040,455
84,80,23040,455
77,80,23520,455
67,80,24000,455
74,80,24480,455
77,80,24960,911
82,80,24960,911
69,80,25920,455
72,80,26400,455
76,80,26880,911
79,80,26880,911
74,80,27840,455
77,80,28320,455
69,80,29040,227
65,80,29280,227
64,80,29520,227
62,80,29760,227
57,80,30000,227
53,80,30240,227
52,80,30480,227
50,80,30720,227
45,80,30960,227
41,80,31200,227
40,80,31440,227
34,80,31680,151
46,80,31680,151
57,80,31840,151
62,80,32000,151
65,80,32160,151
69,80,32320,151
74,80,32480,151
46,80,32640,151
57,80,32800,151
62,80,32960,151
65,80,33120,151
69,80,33280,151
74,80,33440,151
34,80,33600,151
46,80,33600,151
55,80,33760,151
60,80,33920,151
64,80,34080,151
67,80,34240,151
72,80,34400,151
46,80,34560,151
55,80,34720,151
60,80,34880,151
64,80,35040,151
67,80,35200,151
72,80,35360,151
33,80,35520,151
45,80,35520,151
55,80,35680,151
60,80,35840,151
64,80,36000,151
67,80,36160,151
72,80,36320,151
45,80,36480,151
55,80,36640,151
60,80,36800,151
64,80,36960,151
67,80,37120,151
72,80,37280,151
38,80,37440,151
50,80,37440,151
53,80,37600,151
57,80,37760,151
62,80,37920,151
65,80,38080,151
69,80,38240,151
50,80,38400,151
57,80,38560,151
62,80,38720,151
65,80,38880,151
69,80,39040,151
74,80,39200,151
31,80,39360,151
43,80,39360,151
43,80,39520,151
50,80,39680,151
58,80,39840,151
62,80,40000,151
67,80,40160,151
43,80,40320,151
50,80,40480,151
58,80,40640,151
62,80,40800,151
67,80,40960,151
70,80,41120,151
36,80,41280,151
48,80,41280,151
52,80,41440,151
55,80,41600,151
60,80,41760,151
64,80,41920,151
67,80,42080,151
48,80,42240,151
55,80,42400,151
60,80,42560,151
64,80,42720,151
67,80,42880,151
72,80,43040,151
29,80,43200,151
41,80,43200,151
48,80,43360,151
53,80,43520,151
57,80,43680,151
60,80,43840,151
65,80,44000,151
28,80,44160,151
40,80,44160,151
55,80,44320,151
60,80,44480,151
64,80,44640,151
67,80,44800,151
72,80,44960,151
39,80,45120,151
51,80,45120,151
57,80,45280,151
60,80,45440,151
65,80,45600,151
69,80,45760,151
72,80,45920,151
36,80,46080,151
48,80,46080,151
57,80,46240,151
60,80,46400,151
65,80,46560,151
69,80,46720,151
72,80,46880,151
34,80,47040,151
46,80,47040,151
57,80,47200,151
62,80,47360,151
65,80,47520,151
69,80,47680,151
74,80,47840,151
46,80,48000,151
57,80,48160,151
62,80,48320,151
65,80,48480,151
69,80,48640,151
74,80,48800,151
36,80,48960,151
48,80,48960,151
55,80,49120,151
60,80,49280,151
64,80,49440,151
67,80,49600,151
72,80,49760,151
48,80,49920,151
55,80,50080,151
60,80,50240,151
64,80,50400,151
67,80,50560,151
72,80,50720,151
37,80,50880,151
49,80,50880,151
52,80,51040,151
57,80,51200,151
61,80,51360,151
64,80,51520,151
69,80,51680,151
49,80,51840,151
52,80,52000,151
57,80,52160,151
61,80,52320,151
64,80,52480,151
69,80,52640,151
38,80,52800,151
50,80,52800,151
53,80,52960,151
57,80,53120,151
62,80,53280,151
65,80,53440,151
69,80,53600,151
50,80,53760,151
53,80,53920,151
57,80,54080,151
62,80,54240,151
65,80,54400,151
69,80,54560,151
31,80,54720,151
43,80,54720,151
50,80,54880,151
55,80,55040,151
58,80,55200,151
62,80,55360,151
67,80,55520,151
43,80,55680,151
50,80,55840,151
55,80,56000,151
58,80,56160,151
62,80,56320,151
67,80,56480,151
36,80,56640,151
48,80,56640,151
52,80,56800,151
55,80,56960,151
60,80,57120,151
64,80,57280,151
67,80,57440,151
48,80,57600,151
52,80,57760,151
55,80,57920,151
60,80,58080,151
64,80,58240,151
67,80,58400,151
34,80,58560,151
46,80,58560,151
53,80,58720,151
58,80,58880,151
64,80,59040,151
65,80,59200,151
70,80,59360,151
58,80,59520,151
64,80,59680,151
65,80,59840,151
70,80,60000,151
76,80,60160,151
77,80,60320,151
58,80,60480,151
64,80,60640,151
65,80,60800,151
70,80,60960,151
76,80,61120,151
77,80,61280,151
58,80,61440,151
64,80,61600,151
65,80,61760,151
70,80,61920,151
76,80,62080,151
77,80,62240,151
34,80,62400,151
46,80,62400,151
53,80,62560,151
58,80,62720,151
62,80,62880,151
65,80,63040,151
70,80,63200,151
46,80,63360,151
53,80,63520,151
58,80,63680,151
62,80,63840,151
65,80,64000,151
70,80,64160,151
64,112,65280,151
65,112,65440,151
57,112,65600,151
69,112,65600,151
58,112,65760,151
70,112,65760,151
62,112,65920,151
74,112,65920,151
64,112,66080,151
76,112,66080,151
62,64,70080,911
65,64,70080,911
69,64,70080,911
60,64,71040,911
64,64,71040,911
67,64,71040,911
58,64,72000,911
62,64,72000,911
65,64,72000,911
57,64,72960,911
60,64,72960,911
64,64,72960,911
55,64,73920,911
58,64,73920,911
62,64,73920,911
57,64,74880,911
60,64,74880,911
64,64,74880,911
58,64,75840,911
62,64,75840,911
65,64,75840,911
57,64,76800,911
62,64,76800,455
64,64,76800,455
61,64,77280,455
62,64,77760,911
65,64,77760,911
69,64,77760,911
60,64,78720,911
64,64,78720,911
67,64,78720,911
58,64,79680,911
62,64,79680,911
65,64,79680,911
57,64,80640,911
60,64,80640,911
64,64,80640,911
55,64,81600,911
58,64,81600,911
62,64,81600,911
57,64,82560,911
60,64,82560,911
64,64,82560,911
67,64,83520,911
57,64,83520,1823
62,64,83520,1823
66,69,84480,911
50,74,85440,227
57,74,85680,227
62,74,85920,227
65,74,86160,227
48,74,86400,227
57,74,86640,227
60,74,86880,227
64,74,87120,227
46,74,87360,227
57,74,87600,227
62,74,87840,227
65,74,88080,227
45,74,88320,227
57,74,88560,227
60,74,88800,227
64,74,89040,227
43,74,89280,227
50,74,89520,227
58,74,89760,227
62,74,90000,227
45,74,90240,227
52,74,90480,227
55,74,90720,227
60,74,90960,227
46,74,91200,227
53,74,91440,227
58,74,91680,227
62,74,91920,227
49,74,92160,227
57,74,92400,227
61,74,92640,227
64,74,92880,227
50,74,93120,227
57,74,93360,227
62,74,93600,227
65,74,93840,227
52,74,94080,227
60,74,94320,227
64,74,94560,227
67,74,94800,227
53,74,95040,227
60,74,95280,227
65,74,95520,227
69,74,95760,227
55,74,96000,227
59,74,96240,227
62,74,96480,227
67,74,96720,227
46,74,96960,227
53,74,97200,227
58,74,97440,227
62,74,97680,227
48,74,97920,227
55,74,98160,227
60,74,98400,227
64,74,98640,227
50,74,98880,227
57,74,99120,227
62,74,99360,227
64,74,99600,227
65,74,99840,227
64,72,100080,227
62,71,100320,227
57,69,100560,227
59,63,100800,227
62,61,101040,227
67,60,101280,227
74,60,101280,227
62,60,101520,227
67,60,101760,227
74,60,101760,227
62,60,102000,227
67,60,102240,227
74,60,102240,455
62,60,102480,227
58,60,102720,227
62,60,102960,227
67,60,103200,227
74,60,103200,227
62,60,103440,227
67,60,103680,227
74,60,103680,227
62,60,103920,227
67,60,104160,227
74,60,104160,227
62,60,104400,227
57,60,104640,227
64,60,104880,227
67,60,105120,227
72,60,105120,227
64,60,105360,227
67,60,105600,227
72,60,105600,227
64,60,105840,227
67,60,106080,227
72,60,106080,227
64,60,106320,227
62,60,106560,227
65,60,106800,227
69,60,107040,227
74,60,107040,227
65,60,107280,227
69,60,107520,227
76,60,107520,227
65,60,107760,227
69,60,108000,227
77,60,108000,227
65,60,108240,227
55,60,108480,227
67,60,108480,227
62,60,108720,227
65,60,108960,227
70,60,108960,227
62,60,109200,227
65,60,109440,227
70,60,109440,227
62,60,109680,227
65,60,109920,227
70,60,109920,227
62,60,110160,227
60,60,110400,227
72,60,110400,227
65,60,110640,227
67,60,110880,227
72,60,110880,227
65,60,111120,227
72,60,111360,227
76,60,111360,227
65,60,111600,227
67,60,111840,227
72,60,111840,227
65,60,112080,227
53,60,112320,227
60,60,112560,227
65,61,112800,227
70,61,112800,227
60,62,113040,227
65,63,113280,227
70,63,113280,227
60,63,113520,227
65,64,113760,227
70,64,113760,227
60,65,114000,227
51,66,114240,227
60,66,114480,227
65,67,114720,227
69,67,114720,227
60,68,114960,227
65,69,115200,227
70,69,115200,227
60,69,115440,227
65,70,115680,227
72,70,115680,227
60,71,115920,227
34,79,116160,151
46,79,116160,151
50,79,116320,151
53,79,116480,151
58,79,116640,151
53,79,116800,151
58,79,116960,151
62,79,117120,151
58,79,117280,151
62,79,117440,151
58,79,117600,151
53,79,117760,151
50,79,117920,151
34,79,118080,151
46,79,118080,151
52,79,118240,151
55,79,118400,151
60,79,118560,151
55,79,118720,151
60,79,118880,151
64,79,119040,151
60,79,119200,151
64,79,119360,151
62,79,119520,151
60,79,119680,151
55,79,119840,151
33,79,120000,151
45,79,120000,151
55,79,120160,151
52,79,120320,151
60,80,120480,151
55,80,120640,151
64,80,120800,151
37,81,120960,151
49,81,120960,151
57,81,121120,151
52,81,121280,151
61,82,121440,151
57,82,121600,151
64,82,121760,151
38,82,121920,151
50,82,121920,151
57,82,122080,151
53,82,122240,151
62,83,122400,151
57,83,122560,151
65,83,122720,151
36,84,122880,151
48,84,122880,151
57,84,123040,151
53,84,123200,151
62,85,123360,151
57,85,123520,151
65,85,123680,151
31,86,123840,151
43,86,123840,151
53,86,124000,151
58,86,124160,151
62,87,124320,151
65,87,124480,151
70,87,124640,151
33,87,124800,151
45,87,124800,151
55,87,124960,151
60,87,125120,151
64,88,125280,151
67,88,125440,151
72,88,125600,151
34,89,125760,151
46,89,125760,151
53,89,125920,151
57,89,126080,151
62,90,126240,151
65,90,126400,151
69,90,126560,151
33,91,126720,151
45,91,126720,151
52,91,126880,151
55,91,127040,151
60,92,127200,151
64,92,127360,151
67,92,127520,151
31,98,127680,303
43,98,127680,303
53,98,128000,151
58,98,128000,151
62,98,128000,151
53,98,128160,151
58,98,128160,151
62,98,128160,151
53,98,128320,151
58,98,128320,151
62,98,128320,151
53,98,128480,151
58,98,128480,151
62,98,128480,151
33,98,128640,303
45,98,128640,303
55,98,128960,151
60,98,128960,151
64,98,128960,151
55,98,129120,151
60,98,129120,151
64,98,129120,151
55,98,129280,151
60,98,129280,151
64,98,129280,151
55,98,129440,151
60,98,129440,151
64,98,129440,151
34,98,129600,303
46,98,129600,303
57,98,129920,151
62,98,129920,151
65,98,129920,151
57,98,130080,151
62,98,130080,151
65,98,130080,151
57,98,130240,151
62,98,130240,151
65,98,130240,151
57,98,130400,151
62,98,130400,151
65,98,130400,151
24,98,130560,303
36,98,130560,303
55,98,130880,151
60,98,130880,151
64,98,130880,151
55,98,131040,151
60,98,131040,151
64,98,131040,151
55,98,131200,303
60,98,131200,303
64,98,131200,303
26,97,131520,113
38,97,131520,113
45,97,131640,113
50,97,131760,113
52,97,131880,113
53,97,132000,113
57,97,132120,113
62,97,132240,113
64,97,132360,113
65,97,132480,113
64,97,132600,113
62,97,132720,113
57,97,132840,113
53,97,132960,113
52,97,133080,113
50,97,133200,113
45,97,133320,113
26,97,133440,113
38,97,133440,113
45,97,133560,113
50,97,133680,113
52,97,133800,113
53,97,133920,113
57,97,134040,113
62,97,134160,113
64,97,134280,113
65,97,134400,113
64,97,134520,113
62,97,134640,113
57,97,134760,113
53,97,134880,113
52,97,135000,113
50,97,135120,113
45,97,135240,113
26,97,135360,227
38,97,135360,227
53,97,135600,113
58,97,135720,113
60,97,135840,227
65,97,136080,113
70,97,136200,113
72,97,136320,113
70,97,136440,113
65,97,136560,113
62,97,136680,113
60,97,136800,113
58,97,136920,113
53,97,137040,113
50,97,137160,113
26,97,137280,227
38,97,137280,227
53,97,137520,113
58,97,137640,113
60,97,137760,227
65,97,138000,113
70,97,138120,113
72,97,138240,113
70,97,138360,113
65,97,138480,113
62,97,138600,113
60,97,138720,113
58,97,138840,113
53,97,138960,113
50,97,139080,113
24,97,139200,113
36,97,139200,113
43,97,139320,113
48,97,139440,113
50,97,139560,113
52,97,139680,113
50,97,139800,113
48,97,139920,113
43,97,140040,113
25,97,140160,113
37,97,140160,113
37,97,140280,113
49,97,140400,113
52,97,140520,113
57,97,140640,113
52,97,140760,113
49,97,140880,113
45,97,141000,113
26,97,141120,113
38,97,141120,113
45,97,141240,113
50,97,141360,113
52,97,141480,113
53,97,141600,113
52,97,141720,113
50,97,141840,113
45,97,141960,113
24,97,142080,113
36,97,142080,113
45,97,142200,113
50,97,142320,113
53,97,142440,113
57,97,142560,113
53,97,142680,113
50,97,142800,113
45,97,142920,113
23,97,143040,227
35,97,143040,227
47,97,143280,113
50,97,143400,113
55,97,143520,113
57,97,143640,113
59,97,143760,113
62,97,143880,113
67,97,144000,113
62,97,144120,113
59,97,144240,113
57,97,144360,113
55,97,144480,113
50,97,144600,113
47,97,144720,113
45,97,144840,113
22,97,144960,227
34,97,144960,227
46,97,145200,113
50,97,145320,113
55,97,145440,113
57,97,145560,113
58,97,145680,113
62,97,145800,113
67,97,145920,113
62,97,146040,113
58,97,146160,113
57,97,146280,113
55,97,146400,113
50,97,146520,113
46,97,146640,113
43,97,146760,113
32,97,146880,113
44,97,146880,113
50,97,147000,113
53,97,147120,113
59,97,147240,113
62,97,147360,113
59,97,147480,113
53,97,147600,113
50,97,147720,113
35,97,147840,113
47,97,147840,113
50,97,147960,113
53,97,148080,113
56,97,148200,113
59,97,148320,113
56,97,148440,113
53,97,148560,113
50,97,148680,113
33,97,148800,113
45,97,148800,113
50,97,148920,113
53,97,149040,113
57,97,149160,113
62,97,149280,113
57,97,149400,113
53,97,149520,113
50,97,149640,113
31,97,149760,113
43,97,149760,113
52,97,149880,113
55,97,150000,113
61,97,150120,113
64,97,150240,113
61,97,150360,113
55,97,150480,113
52,97,150600,113
29,97,150720,227
41,97,150720,227
53,97,150960,113
55,97,151080,113
57,97,151200,113
60,97,151320,113
65,97,151440,113
67,97,151560,113
69,97,151680,113
67,97,151800,113
65,97,151920,113
60,97,152040,113
57,97,152160,113
55,97,152280,113
53,97,152400,113
48,97,152520,113
28,97,152640,227
40,97,152640,227
52,97,152880,113
55,97,153000,113
60,97,153120,113
55,97,153240,113
60,97,153360,113
62,97,153480,113
64,97,153600,113
62,97,153720,113
60,97,153840,113
55,97,153960,113
52,97,154080,113
50,97,154200,113
48,97,154320,113
43,97,154440,113
27,97,154560,227
39,97,154560,227
51,97,154800,113
55,97,154920,113
57,97,155040,113
55,97,155160,113
57,97,155280,113
60,97,155400,113
63,97,155520,113
60,97,155640,113
57,97,155760,113
55,97,155880,113
57,97,156000,113
55,97,156120,113
51,97,156240,113
48,97,156360,113
26,97,156480,227
38,97,156480,227
50,97,156720,113
55,97,156840,113
57,97,156960,113
55,97,157080,113
57,97,157200,113
59,97,157320,113
62,97,157440,113
59,97,157560,113
57,97,157680,113
55,97,157800,113
57,97,157920,113
55,97,158040,113
50,97,158160,113
47,97,158280,113
31,97,158400,227
43,97,158400,227
55,97,158640,113
57,97,158760,113
58,97,158880,113
57,97,159000,113
58,97,159120,113
62,97,159240,113
67,97,159360,113
62,97,159480,113
58,97,159600,113
55,97,159720,113
62,97,159840,113
58,97,159960,113
55,97,160080,113
50,97,160200,113
33,97,160320,227
45,97,160320,227
60,97,160560,113
62,97,160680,113
64,97,160800,113
60,97,160920,113
62,97,161040,113
64,97,161160,113
67,97,161280,113
64,97,161400,113
62,97,161520,113
60,97,161640,113
62,97,161760,113
60,97,161880,113
55,97,162000,113
52,97,162120,113
26,112,162240,455
38,112,162240,455
55,96,162720,113
57,96,162840,113
55,96,162960,113
57,96,163080,113
62,96,163200,113
55,96,163320,113
57,96,163440,113
62,96,163560,113
64,96,163680,113
57,96,163800,113
62,96,163920,113
64,96,164040,113
26,96,164160,227
38,96,164160,227
50,96,164400,113
52,96,164520,113
54,96,164640,113
50,96,164760,113
52,96,164880,113
54,96,165000,113
57,96,165120,113
52,96,165240,113
54,96,165360,113
57,96,165480,113
62,96,165600,113
54,96,165720,113
57,96,165840,113
62,96,165960,113
38,96,166080,455
45,96,166080,455
50,96,166080,455
53,96,166560,227
57,96,166560,227
62,96,166560,227
38,96,166800,227
50,96,166800,227
36,96,167040,455
43,96,167040,455
48,96,167040,455
52,96,167520,227
55,96,167520,227
60,96,167520,227
36,96,167760,227
48,96,167760,227
34,96,168000,455
41,96,168000,455
46,96,168000,455
53,96,168480,227
58,96,168480,227
62,96,168480,227
34,96,168720,227
46,96,168720,227
33,96,168960,227
45,96,168960,227
40,96,169200,227
52,96,169440,227
55,96,169440,227
60,96,169680,227
31,96,169920,455
43,96,169920,455
55,96,170400,227
58,96,170400,227
62,96,170400,227
31,96,170640,227
43,96,170640,227
33,96,170880,455
45,96,170880,455
57,96,171360,227
60,96,171360,227
64,96,171360,227
33,96,171600,227
45,96,171600,227
34,96,171840,227
46,96,171840,227
41,96,172080,227
58,96,172320,227
62,96,172320,227
65,96,172320,227
34,96,172560,227
46,96,172560,227
33,96,172800,227
45,96,172800,227
40,96,173040,227
37,96,173280,227
49,96,173280,227
33,96,173520,227
45,96,173520,227
38,96,173760,455
45,96,173760,455
50,96,173760,455
57,96,174240,227
62,96,174240,227
65,96,174240,227
38,96,174480,227
50,96,174480,227
36,96,174720,455
43,96,174720,455
48,96,174720,455
52,96,175200,227
55,96,175200,227
60,96,175200,227
36,96,175440,227
48,96,175440,227
34,96,175680,455
41,96,175680,455
46,96,175680,455
53,96,176160,227
58,96,176160,227
62,96,176160,227
34,96,176400,227
46,96,176400,227
33,96,176640,227
45,96,176640,227
40,96,176880,227
52,96,177120,227
55,96,177120,227
60,96,177360,227
31,96,177600,455
43,96,177600,455
55,96,178080,227
58,96,178080,227
62,96,178080,227
31,96,178320,227
43,96,178320,227
33,96,178560,455
45,96,178560,455
57,96,179040,227
60,96,179040,227
64,96,179040,227
33,96,179280,227
45,96,179280,227
26,96,179520,911
38,96,179520,911
26,96,180480,227
38,96,180480,227
26,96,180720,227
38,96,180720,227
28,96,180960,227
40,96,180960,227
26,96,181200,227
38,96,181200,227
38,96,181440,227
45,96,181440,227
50,96,181440,227
62,96,181680,227
65,96,181680,227
69,96,181680,227
62,96,181920,227
65,96,181920,227
69,96,181920,227
62,96,182160,227
65,96,182160,227
69,96,182160,227
36,96,182400,227
48,96,182400,227
55,96,182640,227
60,96,182640,227
64,96,182640,227
55,96,182880,227
60,96,182880,227
64,96,182880,227
55,96,183120,227
60,96,183120,227
64,96,183120,227
34,96,183360,227
46,96,183360,227
58,96,183600,227
62,96,183600,227
65,96,183600,227
58,96,183840,227
62,96,183840,227
65,96,183840,227
58,96,184080,227
62,96,184080,227
65,96,184080,227
33,96,184320,227
45,96,184320,227
55,96,184560,227
60,96,184560,227
64,96,184560,227
55,96,184800,227
60,96,184800,227
64,96,184800,227
55,96,185040,227
60,96,185040,227
64,96,185040,227
31,96,185280,227
43,96,185280,227
55,96,185520,227
58,96,185520,227
62,96,185520,227
55,96,185760,227
58,96,185760,227
62,96,185760,227
55,96,186000,227
58,96,186000,227
62,96,186000,227
33,96,186240,227
45,96,186240,227
57,96,186480,227
60,96,186480,227
64,96,186480,227
57,96,186720,227
60,96,186720,227
64,96,186720,227
57,96,186960,227
60,96,186960,227
64,96,186960,227
34,96,187200,227
46,96,187200,227
58,96,187440,227
62,96,187440,227
65,96,187440,227
58,96,187680,227
62,96,187680,227
65,96,187680,227
58,96,187920,227
62,96,187920,227
65,96,187920,227
37,96,188160,227
49,96,188160,227
57,96,188400,227
61,96,188400,227
67,96,188400,227
57,96,188640,227
61,96,188640,227
67,96,188640,227
57,96,188880,227
61,96,188880,227
67,96,188880,227
26,96,189120,227
38,96,189120,227
62,96,189360,227
65,96,189360,227
69,96,189360,227
62,96,189600,227
65,96,189600,227
69,96,189600,227
62,96,189840,227
65,96,189840,227
69,96,189840,227
28,96,190080,227
40,96,190080,227
55,96,190320,227
60,96,190320,227
64,96,190320,227
55,96,190560,227
60,96,190560,227
64,96,190560,227
55,96,190800,227
60,96,190800,227
64,96,190800,227
29,96,191040,227
41,96,191040,227
57,96,191280,227
60,96,191280,227
65,96,191280,227
57,96,191520,227
60,96,191520,227
65,96,191520,227
57,96,191760,227
60,96,191760,227
65,96,191760,227
31,96,192000,227
43,96,192000,227
59,96,192240,227
62,96,192240,227
67,96,192240,227
59,96,192480,227
62,96,192480,227
67,96,192480,227
59,96,192720,227
62,96,192720,227
67,96,192720,227
22,96,192960,227
34,96,192960,227
58,96,193200,227
62,96,193200,227
65,96,193200,227
58,96,193440,227
62,96,193440,227
65,96,193440,227
22,96,193680,227
34,96,193680,227
24,96,193920,227
36,96,193920,227
55,96,194160,227
60,96,194160,227
64,96,194160,227
55,96,194400,227
60,96,194400,227
64,96,194400,227
24,96,194640,227
36,96,194640,227
26,96,194880,227
38,96,194880,227
57,96,195120,227
62,96,195120,240
67,96,195120,240
57,96,195360,227
62,96,195360,240
67,96,195360,240
57,96,195600,227
62,96,195600,227
67,96,195600,227
53,96,195840,227
57,96,195840,227
62,96,195840,227
65,96,195840,227
50,96,196080,227
45,96,196320,227
38,96,196560,227
22,96,196800,151
34,96,196800,151
41,96,196960,151
46,96,197120,151
50,96,197280,151
46,96,197440,151
53,96,197600,151
58,96,197760,151
53,96,197920,151
50,96,198080,151
46,96,198240,151
41,96,198400,151
38,96,198560,151
24,96,198720,151
36,96,198720,151
43,96,198880,151
48,96,199040,151
52,96,199200,151
48,96,199360,151
55,96,199520,151
60,96,199680,151
55,96,199840,151
48,96,200000,151
52,96,200160,151
48,96,200320,151
43,96,200480,151
21,96,200640,151
33,96,200640,151
40,96,200800,151
45,96,200960,151
48,96,201120,151
45,96,201280,151
52,96,201440,151
57,96,201600,151
52,96,201760,151
45,96,201920,151
48,96,202080,151
45,96,202240,151
40,96,202400,151
26,96,202560,151
38,96,202560,151
45,96,202720,151
50,96,202880,151
53,96,203040,151
50,96,203200,151
57,96,203360,151
62,96,203520,151
53,96,203680,151
45,96,203840,151
57,96,204000,151
50,96,204160,151
41,96,204320,151
31,96,204480,151
38,96,204640,151
46,96,204800,151
50,96,204960,151
43,96,205120,151
50,96,205280,151
58,96,205440,151
50,96,205600,151
43,96,205760,151
50,96,205920,151
43,96,206080,151
38,96,206240,151
24,96,206400,151
36,96,206400,151
43,96,206560,151
48,96,206720,151
53,96,206880,151
48,96,207040,151
55,96,207200,151
60,96,207360,151
52,96,207520,151
43,96,207680,151
52,96,207840,151
43,96,208000,151
36,96,208160,151
29,96,208320,151
41,96,208320,151
48,96,208480,151
41,96,208640,151
57,96,208800,151
48,96,208960,151
41,96,209120,151
28,96,209280,151
40,96,209280,151
48,96,209440,151
40,96,209600,151
55,96,209760,151
48,96,209920,151
40,96,210080,151
27,96,210240,151
39,96,210240,151
48,96,210400,151
39,96,210560,151
57,96,210720,151
48,96,210880,151
39,96,211040,151
24,96,211200,151
36,96,211200,151
48,96,211360,151
57,96,211520,151
63,96,211680,151
57,96,211840,151
48,96,212000,151
22,96,212160,341
34,96,212160,341
50,96,212520,113
53,96,212520,113
58,96,212520,113
62,96,212520,113
50,96,212640,341
53,96,212640,341
58,96,212640,341
62,96,212640,341
53,96,213000,113
58,96,213000,113
62,96,213000,113
65,96,213000,113
53,96,213120,341
58,96,213120,341
62,96,213120,341
65,96,213120,341
58,96,213480,113
62,96,213480,113
65,96,213480,113
70,96,213480,113
58,96,213600,455
62,96,213600,455
65,96,213600,455
70,96,213600,455
24,96,214080,341
36,96,214080,341
52,96,214440,113
55,96,214440,113
60,96,214440,113
64,96,214440,113
52,96,214560,341
55,96,214560,341
60,96,214560,341
64,96,214560,341
55,96,214920,113
60,96,214920,113
64,96,214920,113
67,96,214920,113
55,96,215040,341
60,96,215040,341
64,96,215040,341
67,96,215040,341
60,96,215400,113
64,96,215400,113
67,96,215400,113
72,96,215400,113
60,96,215520,455
64,96,215520,455
67,96,215520,455
72,96,215520,455
25,96,216000,303
37,96,216000,303
45,101,216320,151
57,101,216320,151
46,101,216480,151
58,101,216480,151
45,101,216640,151
57,101,216640,151
45,101,216800,151
57,101,216800,151
49,101,216960,151
61,101,216960,151
50,101,217120,151
62,101,217120,151
52,101,217280,151
64,101,217280,151
52,101,217440,151
64,101,217440,151
53,101,217600,151
65,101,217600,151
55,101,217760,151
67,101,217760,151
26,96,217920,341
38,96,217920,341
62,96,218280,113
65,96,218280,113
69,96,218280,113
62,96,218400,151
65,96,218400,151
69,96,218400,151
50,96,218560,151
38,96,218720,151
24,96,218880,341
36,96,218880,341
60,96,219240,113
64,96,219240,113
69,96,219240,113
60,96,219360,151
64,96,219360,151
69,96,219360,151
48,96,219520,151
36,96,219680,151
31,96,219840,341
43,96,219840,341
55,96,220200,113
58,96,220200,113
62,96,220200,113
67,96,220200,113
55,96,220320,341
58,96,220320,341
62,96,220320,341
67,96,220320,341
62,96,220680,113
67,96,220680,113
70,96,220680,113
74,96,220680,113
62,96,220800,303
67,96,220800,303
70,96,220800,303
74,96,220800,303
50,96,221120,151
58,96,221280,151
50,96,221440,151
43,96,221600,151
33,96,221760,341
45,96,221760,341
55,96,222120,113
60,96,222120,113
64,96,222120,113
67,96,222120,113
55,96,222240,341
60,96,222240,341
64,96,222240,341
67,96,222240,341
64,96,222600,113
67,96,222600,113
72,96,222600,113
76,96,222600,113
64,96,222720,455
67,96,222720,455
72,96,222720,455
76,96,222720,455
21,96,223200,455
33,96,223200,455
26,96,223680,455
38,96,223680,455
38,96,224160,151
45,96,224320,151
50,96,224480,151
57,96,224640,151
50,96,224800,151
57,96,224960,151
62,96,225120,151
57,96,225280,151
62,96,225440,151
25,103,225600,911
37,103,225600,911
52,105,226560,911
57,105,226560,911
61,105,226560,911
24,96,227520,1823
36,96,227520,1823
23,96,229440,1823
35,96,229440,1823
67,96,229600,751
62,96,229760,591
55,96,229920,151
50,96,230080,151
43,96,230240,151
50,96,230400,151
43,96,230560,151
38,96,230720,151
43,96,230880,151
38,96,231040,151
31,96,231200,151
31,112,231360,683
43,112,231360,683
62,112,232200,113
67,112,232200,113
70,112,232200,113
74,112,232200,113
62,112,232320,455
67,112,232320,455
70,112,232320,455
74,112,232320,455
31,112,232800,455
43,112,232800,455
21,112,233280,683
33,112,233280,683
64,112,234120,113
67,112,234120,113
72,112,234120,113
76,112,234120,113
64,112,234240,455
67,112,234240,455
72,112,234240,455
76,112,234240,455
33,112,234720,455
45,112,234720,455
26,112,235200,2279
38,112,235200,2279
40,119,237600,455
52,119,237600,455
38,119,238080,455
50,119,238080,455
33,119,238560,455
45,119,238560,455
26,127,239040,1919
38,127,239040,1919
