note,velocity,position,duration
105,96,0,17
108,96,0,31
107,96,0,42
103,96,19,17
101,96,39,17
100,96,60,17
98,96,79,17
96,96,99,17
95,96,120,17
93,96,139,17
91,96,159,17
89,96,180,17
88,96,199,17
86,96,219,17
84,96,240,17
83,96,259,17
81,96,279,17
79,96,300,17
77,96,319,17
76,96,339,17
74,96,360,17
72,96,379,17
71,96,399,17
69,96,420,17
67,96,439,36
65,96,480,227
68,112,960,113
80,112,960,113
68,112,1080,113
80,112,1080,113
68,112,1200,227
80,112,1200,227
68,112,1440,227
72,112,1440,227
80,112,1440,227
65,112,1680,227
77,112,1680,227
63,112,2160,227
68,112,2160,227
75,112,2160,227
65,112,2640,227
77,112,2640,227
63,112,2880,227
68,112,2880,227
75,112,2880,227
65,112,3120,227
77,112,3120,227
68,112,3360,911
72,112,3360,911
80,112,3360,911
68,112,4800,113
80,112,4800,113
68,112,4920,113
80,112,4920,113
68,112,5040,227
80,112,5040,227
68,112,5280,227
73,112,5280,227
80,112,5280,227
65,112,5520,120
77,112,5520,227
63,112,6000,227
68,112,6000,227
75,112,6000,227
65,112,6480,227
77,112,6480,227
63,112,6720,120
67,112,6720,227
75,112,6720,227
65,112,6960,227
77,112,6960,227
72,112,7200,455
75,112,7200,455
84,112,7200,455
70,112,7680,227
82,112,7680,227
68,112,7920,227
80,112,7920,227
68,112,8640,113
80,112,8640,113
68,112,8760,113
80,112,8760,113
68,112,8880,227
80,112,8880,227
68,112,9120,227
72,112,9120,227
80,112,9120,227
65,112,9360,120
77,112,9360,227
63,112,9840,227
68,112,9840,227
75,112,9840,227
65,112,10320,227
77,112,10320,227
63,112,10560,227
68,112,10560,227
75,112,10560,227
65,112,10800,227
77,112,10800,227
68,112,11040,455
72,112,11040,455
80,112,11040,455
70,112,11520,227
82,112,11520,227
68,112,11760,227
80,112,11760,227
72,112,12000,227
77,112,12000,227
84,112,12000,227
77,104,12240,113
84,104,12240,113
72,104,12360,113
77,104,12480,113
84,104,12480,113
84,104,12600,113
89,104,12720,227
96,104,12720,227
72,112,12960,227
77,112,12960,227
84,112,12960,227
77,104,13200,113
84,104,13200,113
72,104,13320,113
77,104,13440,113
84,104,13440,113
84,104,13560,113
89,104,13680,227
96,104,13680,227
72,112,13920,341
75,112,13920,341
84,112,13920,341
70,112,14280,341
82,112,14280,341
68,112,14640,227
80,112,14640,227
63,112,14880,227
67,112,14880,227
75,112,14880,227
63,112,15120,119
75,112,15120,119
64,112,15360,455
67,112,15360,455
76,112,15360,455
65,112,15840,227
68,112,15840,227
77,112,15840,227
60,87,16080,341
65,87,16080,341
68,87,16080,341
60,87,16440,113
65,87,16440,113
68,87,16440,113
60,87,16800,341
65,87,16800,341
68,87,16800,341
60,87,17160,113
65,87,17160,113
68,87,17160,113
60,87,17520,227
65,87,17520,227
68,87,17520,227
63,101,17760,227
68,101,17760,227
75,101,17760,227
60,87,18000,341
63,87,18000,341
68,87,18000,341
60,87,18360,113
63,87,18360,113
68,87,18360,113
68,101,18720,341
72,101,18720,341
80,101,18720,341
63,89,19080,113
68,89,19080,113
75,101,19080,113
73,101,19200,113
72,101,19320,113
60,89,19440,113
63,89,19440,113
68,101,19440,113
70,101,19440,113
68,101,19560,113
65,101,19680,455
56,91,19920,341
61,91,19920,341
67,101,20160,455
56,91,20280,113
61,91,20280,113
65,91,20280,113
68,101,20640,455
56,91,20640,341
61,91,20640,341
65,91,20640,341
56,91,21000,113
61,91,21000,113
65,91,21000,113
70,101,21120,119
72,101,21360,455
61,91,21360,227
65,91,21360,227
70,101,21840,227
63,91,21840,341
67,91,21840,341
75,101,22080,227
63,91,22200,113
67,91,22200,113
72,101,22320,227
63,91,22560,227
67,91,22560,227
75,101,22560,227
72,101,22800,227
63,91,23040,227
67,91,23040,227
75,101,23040,227
72,101,23280,227
65,101,23520,227
68,101,23520,227
77,101,23520,227
60,89,23760,341
65,89,23760,341
68,89,23760,341
60,89,24120,113
65,89,24120,113
68,89,24120,113
60,89,24480,341
65,89,24480,341
68,89,24480,341
60,89,24840,113
65,89,24840,113
68,89,24840,113
65,101,25200,113
68,101,25200,113
72,101,25200,113
75,101,25320,113
68,101,25440,113
77,101,25440,113
75,101,25560,113
68,101,25680,113
72,101,25680,113
70,101,25800,113
63,101,26040,113
68,101,26040,113
72,101,26040,113
70,101,26160,113
68,101,26280,113
63,101,26400,113
68,101,26400,113
70,101,26400,113
72,101,26520,113
70,101,26640,113
63,101,26760,113
68,101,26760,113
65,101,26880,227
60,101,27120,227
63,101,27120,227
65,101,27360,455
56,91,27600,341
61,91,27600,341
67,101,27840,455
56,91,27960,113
61,91,27960,113
65,91,27960,113
68,101,28320,341
56,91,28320,341
61,91,28320,341
65,91,28320,341
70,101,28680,113
61,91,28680,113
65,91,28680,113
72,101,29040,455
61,91,29040,227
65,91,29040,227
72,101,29520,227
63,91,29520,341
67,91,29520,341
75,101,29760,227
63,91,29880,113
67,91,29880,113
72,101,30000,227
75,101,30240,455
79,101,30240,455
87,101,30240,455
77,101,30720,455
80,101,30720,455
89,101,30720,455
60,80,31200,455
65,80,31200,455
68,80,31320,227
70,80,31560,113
72,80,31680,113
75,80,31800,113
77,80,32040,113
72,80,32160,113
70,80,32280,113
60,80,32400,227
65,80,32400,227
72,80,32520,341
60,80,32760,113
65,80,32760,113
72,80,32880,113
75,80,33000,113
72,80,33120,113
63,80,33120,227
68,80,33120,227
77,80,33240,113
79,80,33360,113
80,80,33480,113
79,80,33600,113
80,80,33720,113
79,80,33840,113
77,80,33960,113
75,80,34080,227
72,80,34320,227
63,80,34320,227
68,80,34320,227
73,80,34560,227
63,80,34680,113
68,80,34680,113
75,80,34800,227
77,80,35040,113
68,80,35040,455
73,80,35040,113
73,80,35160,113
75,80,35280,113
77,80,35400,113
80,80,35520,227
77,80,35760,113
79,80,35880,113
80,80,36000,227
79,80,36240,113
68,80,36240,227
73,80,36240,227
77,80,36360,113
80,80,36480,113
77,80,36600,113
68,80,36600,113
73,80,36600,113
79,80,36720,113
80,80,36840,113
79,80,36960,227
70,80,36960,227
75,80,36960,227
75,80,37200,113
70,80,37320,113
67,80,37440,113
68,80,37560,113
67,80,37680,113
63,80,37800,113
67,80,37920,227
58,80,37920,455
63,80,37920,455
67,80,38160,227
67,80,38400,227
59,80,38400,455
64,80,38400,455
65,80,38640,113
67,80,38760,113
68,80,38880,113
60,80,38880,223
65,80,38880,223
72,80,39000,113
77,80,39120,113
79,80,39240,113
80,80,39360,227
79,80,39600,113
80,80,39720,113
79,80,39840,113
75,80,39960,113
72,80,40080,113
60,80,40080,227
65,80,40080,227
70,80,40200,113
68,80,40320,227
60,80,40440,113
65,80,40440,113
68,80,40560,113
70,80,40680,113
72,80,40800,113
63,80,40800,488
68,80,40800,467
70,80,40920,113
72,80,41040,113
73,80,41160,113
75,80,41280,113
73,80,41400,113
75,80,41520,113
77,80,41640,113
80,80,41760,227
75,80,42000,227
63,80,42000,227
68,80,42000,227
77,80,42240,227
63,80,42360,113
68,80,42360,113
79,80,42480,227
80,80,42720,227
68,80,42720,911
73,80,42720,911
77,80,42960,227
79,80,43200,227
80,80,43440,227
79,80,43680,113
80,80,43800,113
79,80,43920,113
68,80,43920,227
73,80,43920,227
77,80,44040,113
75,80,44160,227
68,80,44280,113
73,80,44280,113
75,80,44400,113
77,80,44520,113
70,80,44640,119
75,80,44640,119
79,80,44640,119
58,80,45120,119
63,80,45120,119
58,80,45600,119
63,80,45600,119
58,80,45840,119
63,80,45840,119
59,80,46080,119
64,80,46080,119
59,80,46320,119
64,80,46320,119
68,64,46800,341
73,64,46800,341
77,64,46800,341
80,64,46800,341
68,64,47160,113
73,64,47160,113
77,64,47160,113
80,64,47160,113
68,64,47520,119
73,64,47520,119
77,64,47520,119
80,64,47520,119
68,64,48240,119
73,64,48240,119
77,64,48240,119
80,64,48240,119
68,64,48720,341
72,64,48720,341
77,64,48720,341
80,64,48720,341
68,64,49080,113
72,64,49080,113
77,64,49080,113
80,64,49080,113
68,64,49440,119
72,64,49440,119
77,64,49440,119
80,64,49440,119
68,64,50160,119
72,64,50160,119
77,64,50160,119
80,64,50160,119
68,64,50640,341
73,64,50640,341
77,64,50640,341
80,64,50640,341
68,64,51000,113
73,64,51000,113
77,64,51000,113
80,64,51000,113
68,64,51360,119
73,64,51360,119
77,64,51360,119
80,64,51360,119
68,64,52080,119
73,64,52080,119
77,64,52080,119
80,64,52080,119
68,64,52560,341
72,64,52560,341
77,64,52560,341
80,64,52560,341
68,64,52920,113
72,64,52920,113
77,64,52920,113
80,64,52920,113
68,64,53280,119
72,64,53280,119
77,64,53280,119
80,64,53280,119
68,64,54000,119
72,64,54000,119
77,64,54000,119
80,64,54000,119
68,80,54240,227
73,80,54240,227
80,80,54240,227
65,80,54480,227
77,80,54480,227
68,80,54720,227
80,80,54720,227
65,80,54960,227
77,80,54960,227
68,80,55200,227
73,80,55200,227
80,80,55200,227
65,80,55440,227
77,80,55440,227
65,80,55680,227
77,80,55680,227
63,80,55920,227
75,80,55920,227
65,80,56160,341
68,80,56160,341
77,80,56160,341
68,80,56520,113
72,80,56520,113
80,80,56520,113
65,80,56880,227
68,80,56880,227
77,80,56880,227
65,80,57120,341
68,80,57480,113
63,80,57720,113
65,81,57840,227
68,85,58080,113
65,86,58200,113
67,88,58320,113
68,90,58440,113
70,91,58560,113
67,93,58680,113
68,95,58800,113
70,96,58920,113
68,98,59040,113
72,98,59040,113
73,100,59160,113
75,101,59280,113
77,103,59400,113
73,105,59520,113
79,105,59520,113
77,106,59640,113
79,108,59760,113
80,110,59880,113
70,112,60000,455
75,112,60000,455
79,112,60000,455
82,112,60000,455
75,95,60720,119
79,95,60960,455
82,95,60960,455
87,95,60960,455
105,95,61440,17
107,95,61440,62
108,95,61440,63
103,95,61459,17
101,95,61479,17
100,95,61500,17
98,95,61519,17
96,95,61539,17
95,95,61560,17
93,95,61579,17
91,95,61599,17
89,95,61620,17
88,95,61639,17
86,95,61659,17
84,95,61680,17
83,95,61699,17
81,95,61719,17
79,95,61740,17
77,95,61759,17
76,95,61779,17
74,95,61800,17
72,95,61819,17
71,95,61839,17
69,95,61860,17
67,95,61879,36
65,112,61920,227
68,112,62400,113
80,112,62400,113
68,112,62520,113
80,112,62520,113
68,112,62640,227
80,112,62640,227
68,112,62880,227
72,112,62880,227
80,112,62880,227
65,112,63120,227
77,112,63120,227
63,112,63600,227
68,112,63600,227
75,112,63600,227
65,112,64080,227
77,112,64080,227
63,112,64320,227
68,112,64320,227
75,112,64320,227
65,112,64560,227
77,112,64560,227
68,112,64800,911
72,112,64800,911
80,112,64800,911
68,112,66240,113
80,112,66240,113
68,112,66360,113
80,112,66360,113
68,112,66480,227
80,112,66480,227
68,112,66720,227
73,112,66720,227
80,112,66720,227
65,112,66960,120
77,112,66960,227
63,112,67440,227
68,112,67440,227
75,112,67440,227
65,112,67920,227
77,112,67920,227
63,112,68160,120
67,112,68160,227
75,112,68160,227
65,112,68400,227
77,112,68400,227
72,112,68640,455
75,112,68640,455
84,112,68640,455
70,112,69120,227
82,112,69120,227
68,112,69360,227
80,112,69360,227
68,112,70080,113
80,112,70080,113
68,112,70200,113
80,112,70200,113
68,112,70320,227
80,112,70320,227
68,112,70560,227
72,112,70560,227
80,112,70560,227
65,112,70800,120
77,112,70800,227
63,112,71280,227
68,112,71280,227
75,112,71280,227
65,112,71760,227
77,112,71760,227
63,112,72000,227
68,112,72000,227
75,112,72000,227
65,112,72240,227
77,112,72240,227
68,112,72480,455
72,112,72480,455
80,112,72480,455
70,112,72960,227
82,112,72960,227
68,112,73200,227
80,112,73200,227
72,112,73440,227
77,112,73440,227
84,112,73440,227
77,112,73680,113
84,112,73680,113
72,112,73800,113
77,112,73920,113
84,112,73920,113
84,112,74040,113
89,112,74160,227
96,112,74160,227
72,112,74400,227
77,112,74400,227
84,112,74400,227
77,112,74640,113
84,112,74640,113
72,112,74760,113
77,112,74880,113
84,112,74880,113
84,112,75000,113
89,112,75120,227
96,112,75120,227
72,112,75360,341
75,112,75360,341
84,112,75360,341
70,112,75720,341
82,112,75720,341
68,112,76080,227
80,112,76080,227
63,112,76320,227
67,112,76320,227
75,112,76320,227
63,112,76560,119
75,112,76560,119
64,112,76800,455
67,112,76800,455
76,112,76800,455
65,112,77280,227
68,112,77280,227
77,112,77280,227
60,87,77520,341
65,87,77520,341
68,87,77520,341
60,87,77880,113
65,87,77880,113
68,87,77880,113
60,87,78240,341
65,87,78240,341
68,87,78240,341
60,87,78600,113
65,87,78600,113
68,87,78600,113
60,87,78960,227
65,87,78960,227
68,87,78960,227
63,101,79200,227
68,101,79200,227
75,101,79200,227
60,87,79440,341
63,87,79440,341
68,87,79440,341
60,87,79800,113
63,87,79800,113
68,87,79800,113
68,101,80160,341
72,101,80160,341
80,101,80160,341
63,89,80520,113
68,89,80520,113
75,101,80520,113
73,101,80640,113
72,101,80760,113
60,89,80880,113
63,89,80880,113
68,101,80880,113
70,101,80880,113
68,101,81000,113
65,101,81120,455
56,91,81360,341
61,91,81360,341
67,101,81600,455
56,91,81720,113
61,91,81720,113
65,91,81720,113
68,101,82080,455
56,91,82080,341
61,91,82080,341
65,91,82080,341
56,91,82440,113
61,91,82440,113
65,91,82440,113
70,101,82560,119
72,101,82800,455
61,91,82800,227
65,91,82800,227
70,101,83280,227
63,91,83280,341
67,91,83280,341
75,101,83520,227
63,91,83640,113
67,91,83640,113
72,101,83760,227
63,91,84000,227
67,91,84000,227
75,101,84000,227
72,101,84240,227
63,91,84480,227
67,91,84480,227
75,101,84480,227
72,101,84720,227
65,101,84960,227
68,101,84960,227
77,101,84960,227
60,89,85200,341
65,89,85200,341
68,89,85200,341
60,89,85560,113
65,89,85560,113
68,89,85560,113
60,89,85920,341
65,89,85920,341
68,89,85920,341
60,89,86280,113
65,89,86280,113
68,89,86280,113
65,101,86640,113
68,101,86640,113
72,101,86640,113
75,101,86760,113
68,101,86880,113
77,101,86880,113
75,101,87000,113
68,101,87120,113
72,101,87120,113
70,101,87240,113
63,101,87480,113
68,101,87480,113
72,101,87480,113
70,101,87600,113
68,101,87720,113
63,101,87840,113
68,101,87840,113
70,101,87840,113
72,101,87960,113
70,101,88080,113
63,101,88200,113
68,101,88200,113
65,101,88320,227
60,101,88560,227
63,101,88560,227
65,101,88800,455
56,91,89040,341
61,91,89040,341
67,101,89280,455
56,91,89400,113
61,91,89400,113
65,91,89400,113
68,101,89760,341
56,91,89760,341
61,91,89760,341
65,91,89760,341
70,101,90120,113
61,91,90120,113
65,91,90120,113
72,101,90480,341
61,91,90480,227
65,91,90480,227
70,101,90840,113
72,101,90960,113
75,101,91080,113
72,101,91200,113
75,101,91320,113
80,101,91440,113
79,101,91560,113
75,80,91680,119
79,80,91680,119
87,80,91680,119
76,80,91920,119
83,80,91920,119
88,80,91920,119
77,80,92160,119
80,80,92160,119
89,80,92160,119
29,96,480,227
41,96,480,227
48,96,720,227
53,96,720,227
41,96,960,113
48,96,1080,227
53,96,1080,227
41,96,1320,113
48,96,1440,227
53,96,1440,227
48,96,1680,113
53,96,1800,227
56,96,1800,227
41,96,2040,113
48,96,2160,227
53,96,2160,227
32,96,2400,227
44,96,2400,227
51,96,2640,227
56,96,2640,227
44,96,2880,113
51,96,3000,227
56,96,3000,227
44,96,3240,113
51,96,3360,227
56,96,3360,227
51,96,3600,113
56,96,3720,227
60,96,3720,227
44,96,3960,113
51,96,4080,227
56,96,4080,227
37,96,4320,227
49,96,4320,227
56,96,4560,227
61,96,4560,227
49,96,4800,113
56,96,4920,227
61,96,4920,227
49,96,5160,113
56,96,5280,227
61,96,5280,227
56,96,5520,113
61,96,5640,227
65,96,5640,227
49,96,5880,113
56,96,6000,227
61,96,6000,227
39,96,6240,227
51,96,6240,227
58,96,6480,227
63,96,6480,227
51,96,6720,113
58,96,6840,227
63,96,6840,227
51,96,7080,113
58,96,7200,227
63,96,7200,227
58,96,7440,113
63,96,7560,227
67,96,7560,227
51,96,7800,113
58,96,7920,227
63,96,7920,227
41,96,8160,227
53,96,8160,227
56,96,8400,227
60,96,8400,227
53,96,8640,113
56,96,8760,227
60,96,8760,227
53,96,9000,113
56,96,9120,227
60,96,9120,227
53,96,9360,113
60,96,9480,227
65,96,9480,227
53,96,9720,113
56,96,9840,227
60,96,9840,227
32,96,10080,227
44,96,10080,227
51,96,10320,227
56,96,10320,227
44,96,10560,113
51,96,10680,227
56,96,10680,227
44,96,10920,113
51,96,11040,227
56,96,11040,227
51,96,11280,113
56,96,11400,227
60,96,11400,227
44,96,11640,113
51,96,11760,227
56,96,11760,227
37,96,12000,227
49,96,12000,227
56,96,12240,227
61,96,12240,227
49,96,12480,113
56,96,12600,227
61,96,12600,227
49,96,12840,113
56,96,12960,227
61,96,12960,227
56,96,13200,113
61,96,13320,227
65,96,13320,227
49,96,13560,113
56,96,13680,227
61,96,13680,227
39,96,13920,227
51,96,13920,227
58,96,14160,227
63,96,14160,227
51,96,14400,113
58,96,14520,227
63,96,14520,227
51,96,14760,113
39,96,14880,227
51,96,14880,227
55,96,15120,119
58,96,15120,119
40,96,15360,227
52,96,15360,227
55,96,15600,119
58,96,15600,119
41,88,15840,119
53,88,16080,119
56,88,16080,119
41,88,16320,119
53,88,16560,119
56,88,16560,119
41,88,16800,119
53,88,17040,119
56,88,17040,119
41,88,17280,119
53,88,17520,119
56,88,17520,119
44,88,17760,119
51,88,18000,119
56,88,18000,119
44,88,18240,119
51,88,18480,119
56,88,18480,119
44,88,18720,119
51,88,18960,119
56,88,18960,119
44,88,19200,119
51,88,19440,119
56,88,19440,119
37,88,19680,119
49,88,19920,119
53,88,19920,119
37,88,20160,119
49,88,20400,119
53,88,20400,119
37,88,20640,119
49,88,20880,119
53,88,20880,119
37,88,21120,119
49,88,21360,119
53,88,21360,119
39,88,21600,119
51,88,21840,119
55,88,21840,119
39,88,22080,119
51,88,22320,119
55,88,22320,119
39,88,22560,119
51,88,22800,119
55,88,22800,119
39,88,23040,119
51,88,23280,119
55,88,23280,119
41,88,23520,119
53,88,23760,119
56,88,23760,119
41,88,24000,119
53,88,24240,119
56,88,24240,119
41,88,24480,119
53,88,24720,119
56,88,24720,119
41,88,24960,119
53,88,25200,119
56,88,25200,119
44,88,25440,119
56,88,25680,119
60,88,25680,119
44,88,25920,119
56,88,26160,119
60,88,26160,119
44,88,26400,119
56,88,26640,119
60,88,26640,119
44,88,26880,119
51,88,27120,119
56,88,27120,119
37,88,27360,119
49,88,27600,119
53,88,27600,119
37,88,27840,119
49,88,28080,119
53,88,28080,119
37,88,28320,119
49,88,28560,119
53,88,28560,119
37,88,28800,119
49,88,29040,119
53,88,29040,119
39,88,29280,119
51,88,29520,119
55,88,29520,119
39,88,29760,119
51,88,30000,119
55,88,30000,119
39,88,30240,227
51,88,30240,227
40,88,30480,119
52,88,30480,119
41,88,30720,455
53,88,30720,455
41,80,31200,119
53,80,31440,119
41,80,31680,119
53,80,31920,119
41,80,32160,119
53,80,32400,119
41,80,32640,119
53,80,32880,119
32,80,33120,119
44,80,33360,119
32,80,33600,119
44,80,33840,119
32,80,34080,119
44,80,34320,119
32,80,34560,119
44,80,34800,119
37,80,35040,119
49,80,35280,119
37,80,35520,119
49,80,35760,119
37,80,36000,119
49,80,36240,119
37,80,36480,119
49,80,36720,119
39,80,36960,119
51,80,37200,119
39,80,37440,119
51,80,37680,119
39,80,37920,119
51,80,38160,119
40,80,38400,119
52,80,38640,119
41,80,38880,119
53,80,39120,119
41,80,39360,119
53,80,39600,119
41,80,39840,119
53,80,40080,119
41,80,40320,119
53,80,40560,119
32,80,40800,119
44,80,41040,119
32,80,41280,119
44,80,41520,119
32,80,41760,119
44,80,42000,119
32,80,42240,119
44,80,42480,119
37,80,42720,119
49,80,42960,119
37,80,43200,119
49,80,43440,119
37,80,43680,119
49,80,43920,119
37,80,44160,119
49,80,44400,119
39,80,44640,119
51,80,44640,119
39,80,45120,119
51,80,45120,119
39,80,45600,119
51,80,45600,119
39,80,45840,119
51,80,45840,119
40,80,46080,119
52,80,46080,119
40,80,46320,119
52,80,46320,119
56,91,46560,227
37,80,46560,119
49,80,46560,119
53,91,46800,227
49,80,46800,341
56,91,47040,227
49,80,47160,341
53,91,47280,227
56,91,47520,227
49,80,47520,119
53,91,47760,227
53,91,48000,227
51,91,48240,227
49,80,48240,119
53,91,48480,341
41,80,48480,119
41,80,48720,341
56,91,48840,113
41,80,49080,341
53,91,49200,227
41,80,49440,227
29,80,49680,227
32,80,49920,227
36,80,50160,227
56,91,50400,227
37,80,50400,119
49,80,50400,119
53,91,50640,227
49,80,50640,341
56,91,50880,227
49,80,51000,341
53,91,51120,227
56,91,51360,227
49,80,51360,119
53,91,51600,227
53,91,51840,227
51,91,52080,227
49,80,52080,119
60,91,52320,227
41,80,52320,119
53,80,52320,119
53,80,52560,341
60,91,52800,455
53,80,52920,341
58,91,53280,455
53,80,53280,119
56,91,53760,455
53,80,54000,119
37,68,54240,119
49,68,54240,119
53,68,54480,227
56,68,54480,227
61,68,54480,227
53,68,54720,113
56,68,54840,113
61,68,54840,113
37,68,55200,119
49,68,55200,119
37,68,55920,119
49,68,55920,119
41,68,56160,119
53,68,56160,119
53,68,56400,227
56,68,56400,227
60,68,56400,227
53,68,56640,113
56,68,56760,113
60,68,56760,113
41,68,57120,119
53,68,57120,119
41,69,57840,119
53,69,57840,119
37,73,58080,227
49,73,58080,227
53,75,58320,227
56,75,58320,227
49,78,58560,113
53,80,58680,113
56,80,58680,113
49,82,58920,113
53,84,59040,227
56,84,59040,227
49,86,59280,113
53,88,59400,113
56,88,59400,113
49,91,59640,113
37,92,59760,227
49,92,59760,227
39,96,60000,455
51,96,60000,455
39,112,61200,119
27,112,61440,455
39,112,61440,455
29,96,61920,227
41,96,61920,227
48,96,62160,227
53,96,62160,227
41,96,62400,113
48,96,62520,227
53,96,62520,227
41,96,62760,113
48,96,62880,227
53,96,62880,227
48,96,63120,113
53,96,63240,227
56,96,63240,227
41,96,63480,113
48,96,63600,227
53,96,63600,227
32,96,63840,227
44,96,63840,227
51,96,64080,227
56,96,64080,227
44,96,64320,113
51,96,64440,227
56,96,64440,227
44,96,64680,113
51,96,64800,227
56,96,64800,227
51,96,65040,113
56,96,65160,227
60,96,65160,227
44,96,65400,113
51,96,65520,227
56,96,65520,227
37,96,65760,227
49,96,65760,227
56,96,66000,227
61,96,66000,227
49,96,66240,113
56,96,66360,227
61,96,66360,227
49,96,66600,113
56,96,66720,227
61,96,66720,227
56,96,66960,113
61,96,67080,227
65,96,67080,227
49,96,67320,113
56,96,67440,227
61,96,67440,227
39,96,67680,227
51,96,67680,227
58,96,67920,227
63,96,67920,227
51,96,68160,113
58,96,68280,227
63,96,68280,227
51,96,68520,113
58,96,68640,227
63,96,68640,227
58,96,68880,113
63,96,69000,227
67,96,69000,227
51,96,69240,113
58,96,69360,227
63,96,69360,227
41,96,69600,227
53,96,69600,227
56,96,69840,227
60,96,69840,227
53,96,70080,113
56,96,70200,227
60,96,70200,227
53,96,70440,113
56,96,70560,227
60,96,70560,227
53,96,70800,113
60,96,70920,227
65,96,70920,227
53,96,71160,113
56,96,71280,227
60,96,71280,227
32,96,71520,227
44,96,71520,227
51,96,71760,227
56,96,71760,227
44,96,72000,113
51,96,72120,227
56,96,72120,227
44,96,72360,113
51,96,72480,227
56,96,72480,227
51,96,72720,113
56,96,72840,227
60,96,72840,227
44,96,73080,113
51,96,73200,227
56,96,73200,227
37,96,73440,227
49,96,73440,227
56,96,73680,227
61,96,73680,227
49,96,73920,113
56,96,74040,227
61,96,74040,227
49,96,74280,113
56,96,74400,227
61,96,74400,227
56,96,74640,113
61,96,74760,227
65,96,74760,227
49,96,75000,113
56,96,75120,227
61,96,75120,227
39,96,75360,227
51,96,75360,227
58,96,75600,227
63,96,75600,227
51,96,75840,113
58,96,75960,227
63,96,75960,227
51,96,76200,113
39,96,76320,227
51,96,76320,227
55,96,76560,119
58,96,76560,119
40,96,76800,227
52,96,76800,227
55,96,77040,119
58,96,77040,119
41,88,77280,119
53,88,77520,119
56,88,77520,119
41,88,77760,119
53,88,78000,119
56,88,78000,119
41,88,78240,119
53,88,78480,119
56,88,78480,119
41,88,78720,119
53,88,78960,119
56,88,78960,119
44,88,79200,119
51,88,79440,119
56,88,79440,119
44,88,79680,119
51,88,79920,119
56,88,79920,119
44,88,80160,119
51,88,80400,119
56,88,80400,119
44,88,80640,119
51,88,80880,119
56,88,80880,119
37,88,81120,119
49,88,81360,119
53,88,81360,119
37,88,81600,119
49,88,81840,119
53,88,81840,119
37,88,82080,119
49,88,82320,119
53,88,82320,119
37,88,82560,119
49,88,82800,119
53,88,82800,119
39,88,83040,119
51,88,83280,119
55,88,83280,119
39,88,83520,119
51,88,83760,119
55,88,83760,119
39,88,84000,119
51,88,84240,119
55,88,84240,119
39,88,84480,119
51,88,84720,119
55,88,84720,119
41,88,84960,119
53,88,85200,119
56,88,85200,119
41,88,85440,119
53,88,85680,119
56,88,85680,119
41,88,85920,119
53,88,86160,119
56,88,86160,119
41,88,86400,119
53,88,86640,119
56,88,86640,119
44,88,86880,119
56,88,87120,119
60,88,87120,119
44,88,87360,119
56,88,87600,119
60,88,87600,119
44,88,87840,119
56,88,88080,119
60,88,88080,119
44,88,88320,119
51,88,88560,119
56,88,88560,119
37,88,88800,119
49,88,89040,119
53,88,89040,119
37,88,89280,119
49,88,89520,119
53,88,89520,119
37,88,89760,119
49,88,90000,119
53,88,90000,119
37,88,90240,119
49,88,90480,119
53,88,90480,119
39,88,90720,455
51,88,90720,455
39,88,91200,119
51,88,91200,119
