note,velocity,position,duration
61,39,720,240
64,46,720,240
62,42,960,216
66,50,960,216
60,34,1200,216
63,40,1200,216
61,39,1440,710
64,47,1440,710
61,42,2160,480
64,42,2160,480
69,55,2160,240
71,57,2400,240
61,47,2640,216
65,47,2640,216
73,61,2640,216
62,38,2880,720
66,45,2880,720
73,58,2880,480
71,44,3360,240
62,40,3600,480
69,56,3600,240
68,53,3840,240
62,37,4080,216
66,48,4080,216
62,42,4320,710
64,50,4320,710
62,42,5040,120
64,50,5040,110
64,40,5160,40
66,40,5200,40
68,40,5240,40
62,42,5280,216
66,50,5280,216
62,35,5520,216
64,42,5520,216
62,42,5760,480
66,50,5760,480
61,37,6240,230
64,44,6240,230
57,48,6480,240
61,57,6480,240
62,52,6720,216
66,62,6720,216
60,42,6960,216
63,50,6960,216
61,48,7200,710
64,59,7200,710
64,59,7920,470
69,69,7920,470
73,78,8160,240
69,63,8400,216
64,63,8400,216
73,63,8400,216
76,75,8400,216
73,67,8640,710
64,67,8640,720
68,67,8640,710
76,79,8640,710
64,40,9360,240
68,40,9360,230
76,56,9360,240
66,42,9600,230
68,42,9600,230
75,53,9600,240
66,37,9840,216
68,48,9840,216
68,42,10080,720
64,42,10080,710
73,55,10080,710
61,42,10800,240
64,42,10800,230
73,50,10800,240
62,42,11040,240
64,42,11040,216
71,50,11040,216
62,35,11280,216
64,42,11280,216
61,42,11520,480
69,50,11520,480
61,39,12240,240
64,46,12240,240
62,42,12480,216
66,50,12480,216
60,34,12720,216
63,40,12720,216
61,39,12960,710
64,47,12960,710
61,42,13680,480
64,42,13680,480
69,55,13680,240
71,57,13920,240
61,47,14160,216
65,47,14160,216
73,61,14160,216
62,38,14400,720
66,45,14400,720
73,58,14400,480
71,44,14880,240
62,40,15120,480
69,56,15120,240
68,53,15360,240
62,37,15600,216
66,48,15600,216
62,42,15840,710
64,50,15840,710
62,42,16560,120
64,50,16560,110
64,40,16680,40
66,40,16720,40
68,40,16760,40
62,42,16800,216
66,50,16800,216
62,35,17040,216
64,42,17040,216
62,42,17280,480
66,50,17280,480
61,37,17760,230
64,44,17760,230
57,48,18000,240
61,57,18000,240
62,52,18240,216
66,62,18240,216
60,42,18480,216
63,50,18480,216
61,48,18720,710
64,59,18720,710
64,59,19440,470
69,69,19440,470
73,78,19680,240
69,63,19920,216
64,63,19920,216
73,63,19920,216
76,75,19920,216
73,67,20160,710
64,67,20160,720
68,67,20160,710
76,79,20160,710
64,40,20880,240
68,40,20880,230
76,56,20880,240
66,42,21120,230
68,42,21120,230
75,53,21120,240
66,37,21360,216
68,48,21360,216
68,42,21600,720
64,42,21600,710
73,55,21600,710
61,42,22320,240
64,42,22320,230
73,50,22320,240
62,42,22560,240
64,42,22560,216
71,50,22560,216
62,35,22800,216
64,42,22800,216
61,42,23040,720
69,50,23040,720
61,50,23760,230
67,50,23760,230
70,59,23760,230
62,54,24000,240
67,54,24000,240
71,64,24000,240
64,57,24240,216
70,68,24240,216
67,57,24240,216
73,68,24240,216
62,61,24480,720
67,61,24480,720
71,61,24480,720
74,72,24480,720
62,40,25200,230
71,56,25200,240
62,40,25440,230
67,51,25440,240
59,37,25680,216
62,48,25680,216
60,37,25920,710
64,49,25920,710
59,34,26640,240
62,47,26640,240
60,34,26880,230
64,43,26880,240
59,31,27120,216
65,40,27120,216
60,35,27360,220
64,46,27360,220
71,34,27600,240
74,47,27600,240
72,34,27840,230
76,43,27840,240
71,31,28080,216
77,40,28080,216
72,35,28320,220
76,46,28320,220
59,34,28560,240
62,47,28560,240
60,34,28800,230
64,43,28800,240
67,37,28980,60
59,31,29040,216
65,40,29040,216
60,35,29280,220
64,46,29280,220
62,45,29520,240
64,53,29520,240
62,45,29760,240
64,45,29760,240
66,53,29760,240
68,60,30000,240
62,48,30000,240
64,48,30000,240
57,56,30240,240
61,56,30240,240
69,66,30240,240
63,59,30480,240
71,70,30480,240
69,59,30480,240
64,62,30720,480
69,62,30720,480
73,74,30720,480
62,62,31200,480
64,62,31200,480
68,62,31200,480
73,74,31200,360
71,61,31560,120
61,44,31680,720
64,44,31680,720
69,52,31680,720
64,47,32400,240
61,51,32640,240
57,43,32880,170
57,37,33060,69
64,49,33120,710
64,51,33840,240
61,56,34080,240
58,47,34320,170
58,40,34500,69
64,53,34560,710
64,56,35280,240
62,65,35520,240
59,58,35760,170
59,52,35940,69
66,69,36000,216
61,56,36240,216
66,56,36240,216
70,67,36240,216
59,54,36480,216
66,54,36480,216
71,64,36480,216
61,51,36720,216
66,51,36720,216
73,61,36720,216
62,49,36960,216
66,49,36960,216
74,58,36960,216
71,57,37200,216
74,57,37200,216
83,69,37200,216
71,53,37440,720
74,53,37440,720
81,63,37440,480
80,55,37920,240
64,47,38160,240
59,51,38400,240
56,43,38640,170
56,37,38820,69
64,49,38880,710
64,51,39600,240
60,56,39840,240
57,47,40080,170
57,40,40260,69
64,53,40320,710
64,56,41040,240
61,65,41280,240
58,58,41520,170
58,52,41700,69
65,69,41760,216
60,56,42000,216
65,56,42000,216
69,67,42000,216
58,54,42240,216
65,54,42240,216
70,64,42240,216
60,51,42480,216
65,51,42480,216
72,61,42480,216
62,49,42720,216
65,49,42720,216
74,58,42720,216
65,57,42960,216
69,57,42960,216
77,68,42960,120
75,65,43080,110
65,53,43200,720
69,53,43200,480
75,63,43200,480
70,52,43680,220
74,55,43680,220
65,65,43920,228
74,65,43920,228
77,78,43920,228
70,72,44160,228
77,72,44160,228
82,86,44160,228
84,88,44400,216
77,74,44400,216
72,74,44400,216
74,78,44640,710
77,78,44640,710
86,92,44640,710
70,56,45360,480
74,56,45360,480
82,78,45360,240
77,69,45600,240
69,49,45840,240
72,49,45840,216
75,64,45840,216
70,48,46080,710
74,63,46080,710
63,40,46800,240
65,40,46800,470
72,56,46800,240
62,40,47040,230
70,51,47040,240
57,34,47280,216
65,48,47280,216
58,37,47520,710
62,49,47520,710
57,34,48240,240
60,47,48240,240
58,34,48480,230
62,43,48480,240
57,31,48720,216
63,40,48720,216
58,35,48960,220
62,46,48960,220
69,34,49200,240
72,47,49200,240
70,34,49440,230
74,43,49440,240
69,31,49680,216
75,40,49680,216
70,35,49920,220
74,46,49920,220
57,51,50160,216
60,61,50160,216
58,49,50400,216
62,58,50400,216
57,57,50640,216
65,68,50640,120
63,65,50760,120
58,53,50880,230
62,63,50880,230
53,52,51120,216
56,52,51120,216
62,62,51120,216
53,56,51360,216
57,56,51360,216
62,66,51360,216
62,69,51600,216
52,58,51600,216
59,58,51600,216
62,66,51840,120
52,56,51840,240
57,56,51840,240
61,64,51960,120
54,59,52080,120
59,70,52080,120
66,68,52200,120
52,62,52320,480
57,62,52320,480
61,74,52320,480
56,57,52800,480
61,68,52800,240
59,61,53040,180
57,57,53220,60
49,44,53280,480
57,52,53280,360
61,51,53640,120
64,58,53760,120
69,51,53880,120
73,56,54000,120
76,52,54120,120
74,51,54240,216
78,60,54240,216
72,45,54480,216
75,54,54480,216
73,47,54720,720
76,56,54720,720
73,50,55440,480
76,50,55440,480
81,66,55440,240
83,68,55680,240
73,56,55920,216
77,56,55920,216
85,73,55920,216
74,45,56160,720
78,54,56160,720
85,71,56160,480
83,52,56640,240
62,40,56880,480
69,56,56880,240
68,51,57120,240
62,37,57360,216
66,48,57360,216
62,42,57600,710
64,50,57600,710
74,48,58320,120
76,57,58320,110
76,46,58440,40
78,46,58480,40
80,46,58520,40
74,48,58560,216
78,57,58560,216
74,40,58800,216
76,48,58800,216
74,48,59040,480
78,57,59040,480
73,42,59520,230
76,50,59520,230
59,63,59760,240
61,75,59760,230
57,68,60000,240
61,68,60000,216
66,81,60000,216
59,61,60240,240
61,61,60240,216
65,72,60240,216
57,66,60480,720
62,66,60480,710
66,78,60480,710
69,55,61200,240
67,63,61440,240
71,63,61440,240
67,56,61680,216
69,56,61680,216
73,56,61680,216
73,58,61920,1440
67,58,61920,1680
70,58,61920,1440
76,69,61920,1440
71,47,63360,240
74,56,63360,240
62,36,64800,1680
66,36,64800,1440
72,56,64800,720
74,45,65520,60
72,42,65580,60
71,45,65640,60
72,42,65700,60
71,53,65760,120
72,49,65880,120
76,56,66000,120
74,50,66120,120
67,40,66240,240
71,46,66240,240
71,53,66900,60
67,59,66960,240
62,59,66960,470
74,69,66960,240
69,59,67200,240
73,78,67200,240
62,61,67440,216
71,72,67440,216
62,67,67680,710
69,79,67680,710
62,56,68400,240
69,66,68400,240
64,58,68640,230
68,69,68640,240
66,75,68880,216
64,66,69120,240
63,62,69360,240
69,74,69360,240
64,67,69600,480
69,67,69600,480
73,80,69600,480
64,64,70080,480
62,64,70080,480
68,64,70080,480
73,76,70080,360
71,69,70440,120
64,50,70560,720
61,50,70560,720
69,59,70560,720
69,76,71280,240
66,68,71520,108
74,81,71520,108
74,75,71640,240
66,63,71640,240
69,64,71880,120
76,76,71880,120
74,73,72000,216
78,86,72000,216
74,72,72240,357
78,85,72240,357
74,73,72600,240
78,86,72600,240
69,61,72840,120
76,73,72840,120
66,65,72960,108
74,77,72960,108
71,73,73080,240
74,86,73080,240
66,64,73320,120
73,76,73320,120
62,68,73440,216
71,80,73440,216
62,73,73680,480
71,86,73680,480
71,76,74160,240
67,68,74400,108
76,81,74400,108
76,75,74520,240
67,63,74520,240
71,64,74760,120
78,76,74760,120
76,73,74880,216
79,86,74880,216
76,72,75120,357
79,85,75120,357
76,73,75480,240
79,86,75480,240
71,61,75720,120
78,73,75720,120
67,65,75840,108
76,77,75840,108
73,73,75960,240
76,86,75960,240
68,64,76200,120
74,76,76200,120
64,68,76320,108
73,80,76320,108
64,73,76560,357
73,86,76560,357
69,73,76920,238
73,86,76920,240
69,61,77160,240
74,73,77160,120
64,65,77280,108
76,77,77280,108
66,73,77400,240
74,73,77400,240
78,86,77400,240
74,64,77640,120
67,64,77640,120
79,76,77640,120
69,68,77760,120
74,68,77760,108
81,80,77760,108
69,73,78000,357
74,73,78000,357
81,86,78000,357
74,70,78360,118
81,83,78360,118
74,73,78480,118
78,73,78480,118
86,86,78480,118
74,69,78600,118
81,82,78600,118
74,73,78720,118
78,86,78720,118
74,83,78840,118
74,70,78960,118
78,83,78960,118
74,70,79080,120
81,83,79080,120
78,70,79080,120
79,68,79200,120
71,68,79200,120
74,68,79200,108
83,80,79200,108
79,73,79440,357
71,73,79440,357
74,73,79440,357
83,86,79440,357
71,77,79800,240
74,77,79800,238
83,91,79800,240
69,69,80040,120
74,69,80040,120
81,82,80040,120
71,73,80160,114
74,73,80160,114
83,86,80160,114
71,83,80280,240
74,83,80280,240
83,83,80280,240
72,70,80520,120
84,83,80520,120
74,70,80520,120
71,68,80640,120
74,68,80640,108
83,80,80640,108
71,73,80880,360
74,73,80880,360
83,86,80880,360
67,70,81240,118
74,83,81240,118
67,73,81360,118
71,73,81360,118
79,86,81360,118
67,69,81480,118
74,82,81480,118
67,73,81600,118
71,86,81600,118
67,69,81720,118
74,78,81720,118
71,70,81840,118
67,70,81840,118
79,83,81840,118
69,70,81960,120
81,83,81960,120
74,70,81960,120
79,68,82080,120
71,68,82080,120
83,80,82080,108
79,73,82320,357
71,73,82320,357
83,86,82320,357
79,78,82680,230
83,78,82680,230
91,92,82680,230
79,83,82920,120
83,83,82920,120
91,98,82920,120
79,68,83040,120
73,68,83040,120
85,80,83040,108
79,73,83280,360
73,73,83280,360
85,86,83280,360
74,78,83640,230
78,78,83640,230
86,92,83640,230
74,83,83880,120
78,83,83880,120
86,98,83880,120
66,68,84000,120
62,68,84000,120
74,80,84000,108
66,73,84240,360
62,73,84240,360
74,86,84240,360
62,37,84600,120
59,37,84720,120
67,37,84720,120
62,37,84840,120
69,37,84840,120
67,34,84960,108
71,40,84960,108
67,39,85200,350
71,47,85200,350
62,35,85560,118
69,41,85560,118
67,36,85680,118
71,43,85680,118
69,34,85800,118
74,41,85800,118
67,36,85920,118
71,43,85920,118
62,38,86040,118
69,38,86040,118
67,35,86160,118
71,41,86160,118
69,38,86280,120
74,38,86280,120
67,34,86400,108
71,40,86400,108
67,39,86640,350
71,47,86640,350
62,35,87000,118
69,41,87000,118
67,37,87120,118
71,44,87120,118
69,35,87240,118
74,43,87240,118
67,38,87360,118
71,46,87360,118
62,41,87480,118
69,41,87480,118
67,38,87600,118
71,45,87600,118
69,42,87720,120
74,42,87720,120
72,39,87840,108
76,46,87840,108
76,49,88080,350
72,41,88080,350
67,40,88440,117
74,47,88440,118
72,41,88560,117
76,49,88560,118
67,39,88680,117
74,47,88680,118
64,41,88800,118
72,49,88800,117
62,43,88920,118
67,43,88920,117
64,40,89040,118
72,47,89040,117
67,43,89160,120
77,43,89160,120
72,39,89280,108
76,46,89280,108
76,49,89520,350
72,41,89520,350
72,45,89880,117
76,53,89880,118
76,49,90000,117
79,58,90000,117
74,45,90120,117
78,54,90120,118
72,50,90240,117
76,59,90240,117
69,43,90360,118
72,51,90360,117
72,47,90480,117
76,56,90480,117
69,43,90600,120
72,51,90600,120
66,39,90720,108
69,46,90720,108
69,53,90960,350
66,45,90960,350
66,45,91320,117
69,53,91320,118
69,49,91440,117
72,58,91440,117
67,45,91560,117
71,54,91560,118
66,50,91680,117
69,59,91680,117
67,43,91800,117
71,51,91800,117
66,47,91920,117
69,56,91920,117
64,43,92040,120
66,51,92040,120
63,39,92160,108
71,46,92160,108
71,49,92400,350
63,41,92400,350
66,45,92760,117
69,53,92760,118
69,49,92880,117
72,58,92880,117
67,45,93000,117
71,54,93000,118
66,50,93120,117
69,59,93120,117
67,43,93240,117
71,51,93240,117
66,47,93360,117
69,56,93360,117
64,43,93480,120
66,51,93480,120
63,39,93600,108
71,46,93600,108
71,49,93840,350
63,41,93840,350
66,45,94200,117
69,53,94200,118
69,49,94320,117
72,58,94320,117
67,45,94440,117
71,54,94440,118
66,50,94560,117
69,59,94560,117
67,43,94680,117
71,51,94680,117
66,47,94800,117
69,56,94800,117
64,43,94920,120
66,51,94920,120
63,39,95040,108
71,46,95040,108
71,48,95280,470
63,40,95280,470
63,46,95760,480
71,46,95760,480
63,45,96240,240
71,45,96240,240
63,35,96480,108
71,41,96480,108
71,43,96720,470
63,36,96720,470
63,41,97200,480
71,41,97200,480
63,40,97680,240
71,40,97680,240
67,34,97920,108
71,40,97920,108
67,39,98160,350
71,47,98160,350
62,35,98520,118
69,41,98520,118
67,36,98640,118
71,43,98640,118
74,41,98760,117
69,34,98760,118
67,36,98880,118
71,43,98880,118
62,38,99000,118
69,38,99000,118
67,35,99120,118
71,41,99120,118
69,38,99240,120
74,38,99240,120
67,34,99360,108
71,40,99360,108
67,39,99600,350
71,47,99600,350
62,35,99960,118
69,41,99960,118
67,37,100080,118
71,44,100080,118
69,35,100200,118
74,43,100200,118
67,38,100320,118
71,46,100320,118
62,41,100440,118
69,41,100440,118
67,38,100560,118
71,45,100560,118
69,42,100680,120
74,42,100680,120
72,39,100800,108
76,46,100800,108
76,49,101040,350
72,41,101040,350
67,40,101400,117
74,47,101400,118
72,41,101520,117
76,49,101520,118
67,39,101640,117
74,47,101640,118
64,41,101760,118
72,49,101760,117
62,43,101880,118
67,43,101880,117
64,40,102000,118
72,47,102000,117
67,43,102120,120
77,43,102120,120
72,39,102240,108
76,46,102240,108
76,49,102480,350
72,41,102480,350
72,45,102840,117
76,53,102840,118
72,49,102960,117
76,58,102960,117
72,45,103080,117
76,54,103080,118
74,58,103200,117
76,61,103200,470
71,55,103320,117
73,56,103440,117
74,53,103560,120
73,60,103680,108
76,60,103680,108
76,63,103920,350
73,63,103920,350
76,49,104280,117
79,58,104280,117
79,53,104400,117
82,63,104400,117
77,48,104520,117
81,58,104520,118
76,53,104640,117
79,62,104640,117
77,45,104760,117
81,53,104760,117
76,48,104880,117
79,57,104880,117
74,43,105000,120
76,52,105000,120
73,39,105120,108
81,46,105120,108
81,53,105360,350
73,45,105360,350
76,45,105720,117
79,53,105720,117
79,49,105840,117
82,58,105840,117
77,45,105960,117
81,54,105960,118
76,50,106080,117
79,59,106080,117
77,43,106200,117
81,51,106200,117
76,47,106320,117
79,56,106320,117
74,43,106440,120
76,51,106440,120
73,39,106560,108
81,46,106560,108
81,48,106800,470
73,40,106800,470
73,46,107280,480
81,46,107280,480
73,45,107760,240
81,45,107760,240
73,40,108000,108
81,48,108000,108
81,56,108240,470
73,47,108240,470
69,76,108840,120
66,68,108960,108
74,81,108960,108
74,75,109080,240
66,63,109080,240
69,64,109320,120
76,76,109320,120
74,73,109440,216
78,86,109440,216
74,72,109680,357
78,85,109680,357
74,73,110040,240
78,86,110040,240
69,65,110280,120
76,77,110280,120
66,65,110400,108
74,77,110400,108
71,73,110520,240
74,86,110520,240
66,64,110760,120
73,76,110760,120
62,68,110880,216
71,80,110880,216
67,73,111120,480
71,86,111120,480
71,76,111600,240
67,68,111840,108
76,81,111840,108
76,75,111960,240
67,63,111960,240
71,64,112200,120
78,76,112200,120
76,73,112320,216
79,86,112320,216
76,72,112560,357
79,85,112560,357
76,73,112920,240
79,86,112920,240
71,63,113160,120
77,74,113160,120
67,65,113280,108
76,77,113280,108
72,73,113400,240
76,86,113400,240
68,62,113640,120
74,73,113640,120
64,68,113760,108
72,80,113760,108
64,73,114000,357
72,86,114000,356
60,73,114360,240
69,73,114360,238
72,86,114360,240
62,63,114600,120
69,63,114600,240
74,74,114600,120
64,65,114720,108
76,77,114720,108
65,73,114840,240
74,73,114840,240
77,86,114840,240
74,64,115080,120
67,64,115080,120
79,76,115080,120
69,68,115200,120
72,68,115200,108
81,80,115200,108
69,73,115440,357
72,73,115440,356
81,86,115440,357
65,70,115800,117
72,83,115800,117
65,73,115920,117
69,73,115920,118
77,86,115920,117
65,69,116040,117
72,82,116040,117
65,73,116160,117
69,86,116160,118
65,80,116280,117
65,70,116400,117
69,83,116400,118
65,67,116520,120
72,80,116520,120
69,67,116520,120
70,68,116640,120
62,68,116640,120
65,68,116640,108
74,80,116640,108
70,73,116880,356
62,73,116880,357
65,73,116880,356
74,86,116880,357
62,77,117240,240
65,77,117240,238
74,91,117240,240
60,69,117480,120
65,69,117480,120
72,82,117480,120
62,73,117600,114
65,73,117600,114
74,86,117600,114
62,83,117720,240
65,83,117720,240
74,83,117720,240
63,70,117960,120
75,83,117960,120
65,70,117960,120
62,68,118080,120
65,68,118080,108
74,80,118080,108
62,73,118320,360
65,73,118320,360
74,86,118320,360
70,70,118680,117
77,83,118680,117
70,73,118800,117
74,73,118800,118
82,86,118800,117
70,69,118920,117
77,82,118920,117
70,73,119040,117
74,86,119040,118
70,70,119160,117
77,80,119160,117
74,70,119280,118
70,70,119280,117
82,83,119280,117
72,70,119400,120
84,84,119400,120
77,70,119400,120
82,78,119520,120
74,78,119520,120
86,92,119520,108
82,83,119760,356
74,83,119760,357
86,98,119760,357
82,90,120120,230
86,90,120120,230
94,106,120120,230
82,87,120360,120
86,87,120360,120
94,102,120360,120
82,78,120480,120
76,78,120480,120
88,92,120480,108
82,83,120720,360
76,83,120720,360
88,98,120720,360
77,90,121080,230
81,90,121080,230
89,106,121080,230
77,87,121320,120
81,87,121320,120
89,102,121320,120
69,68,121440,120
65,68,121440,108
77,80,121440,108
65,73,121680,355
69,73,121680,360
77,86,121680,355
69,47,122040,230
65,47,122040,230
77,56,122040,230
65,51,122280,120
69,51,122280,120
77,60,122280,120
69,47,122400,120
66,47,122400,108
78,56,122400,108
66,51,122640,355
69,51,122640,360
78,60,122640,355
69,40,123000,120
78,48,123000,120
66,40,123000,120
69,44,123120,120
72,44,123120,120
81,52,123120,120
67,40,123240,120
70,40,123240,120
79,48,123240,120
66,44,123360,120
69,44,123360,120
78,52,123360,120
67,39,123480,120
70,39,123480,120
79,47,123480,120
66,39,123600,120
69,39,123600,120
78,47,123600,120
63,37,123720,120
67,37,123720,120
75,45,123720,120
66,39,123840,120
62,39,123840,108
74,46,123840,108
62,42,124080,355
66,42,124080,360
74,51,124080,355
69,40,124440,120
78,48,124440,120
66,40,124440,120
69,44,124560,120
72,44,124560,120
81,52,124560,120
67,40,124680,120
70,40,124680,120
79,48,124680,120
66,44,124800,120
69,44,124800,120
78,52,124800,120
67,39,124920,120
70,39,124920,120
79,47,124920,120
66,39,125040,120
69,39,125040,120
78,47,125040,120
63,37,125160,120
67,37,125160,120
75,45,125160,120
66,39,125280,120
62,39,125280,108
74,46,125280,108
62,42,125520,355
66,42,125520,360
74,51,125520,355
66,44,125880,220
62,44,125880,220
74,52,125880,220
62,39,126120,110
66,39,126120,110
74,47,126120,110
66,44,126240,120
62,44,126240,108
74,52,126240,108
62,39,126480,355
66,39,126480,360
74,47,126480,355
66,44,126840,120
63,44,126840,108
75,52,126840,108
63,39,127080,110
66,39,127080,110
75,47,127080,110
66,44,127200,220
63,44,127200,220
75,52,127200,220
63,39,127440,355
66,39,127440,360
75,47,127440,355
78,48,127800,120
75,48,127800,108
87,57,127800,108
75,39,128040,110
78,39,128040,110
87,47,128040,110
78,44,128160,220
75,44,128160,220
87,52,128160,220
75,39,128400,355
78,39,128400,360
87,47,128400,355
64,40,128760,120
61,40,128760,108
73,48,128760,108
61,33,129000,110
64,33,129000,110
73,39,129000,110
64,37,129120,220
61,37,129120,220
73,44,129120,220
61,33,129360,355
64,33,129360,360
73,39,129360,355
77,37,129720,120
73,37,129720,108
85,44,129720,108
73,33,129960,110
77,33,129960,110
85,39,129960,110
77,37,130080,220
73,37,130080,220
85,44,130080,220
73,33,130320,355
77,33,130320,360
85,39,130320,355
62,31,130680,120
59,31,130680,108
71,37,130680,108
59,28,130920,110
62,28,130920,110
71,33,130920,110
75,31,131160,120
71,31,131160,108
83,37,131160,108
71,28,131400,110
75,28,131400,110
83,33,131400,110
60,26,131640,120
57,26,131640,108
69,31,131640,108
57,23,131880,110
60,23,131880,110
69,28,131880,110
73,26,132120,120
69,26,132120,108
81,31,132120,108
69,23,132360,110
73,23,132360,110
81,28,132360,110
59,60,132720,456
62,60,132720,456
65,60,132720,456
69,72,132720,456
59,41,133200,240
62,41,133200,240
65,41,133200,240
69,49,133200,240
59,28,133680,480
62,28,133680,480
64,28,133680,480
68,33,133680,480
59,24,134160,216
62,24,134160,216
64,24,134160,216
68,29,134160,216
76,52,134760,90
80,52,135000,60
78,46,135060,60
76,54,135240,60
75,46,135300,60
76,50,135480,240
73,54,135720,120
76,55,135840,120
81,55,135960,90
81,61,136200,90
80,65,136440,90
81,67,136680,90
82,69,137040,360
83,63,137400,120
85,64,137640,90
86,72,137880,90
87,78,138120,90
88,77,138480,360
90,68,138840,120
88,71,139080,90
86,66,139320,90
83,62,139560,90
81,62,139680,120
93,75,139800,180
92,54,139980,30
90,53,140010,30
88,51,140040,30
86,50,140070,30
85,48,140100,30
83,46,140130,30
81,53,140160,90
76,62,140520,90
80,62,140760,60
78,59,140820,60
76,62,141000,60
75,57,141060,60
76,66,141240,240
73,66,141480,120
76,69,141600,120
81,66,141720,90
81,75,141960,90
85,81,142200,90
87,85,142440,90
88,80,142680,240
90,76,142920,120
92,82,143040,120
97,75,143160,90
85,62,143400,60
88,56,143460,60
88,62,143640,60
87,57,143700,60
87,62,143880,60
80,56,143940,60
80,62,144120,180
81,57,144300,60
83,59,144360,60
84,60,144420,60
85,62,144480,90
85,62,144600,90
93,62,144840,60
97,57,144900,60
97,62,145080,60
95,57,145140,60
95,62,145320,60
88,57,145380,60
88,62,145560,180
90,56,145740,60
91,58,145800,60
92,60,145860,60
93,62,145920,120
81,44,146160,240
73,44,146160,240
76,52,146160,240
81,48,146400,240
74,48,146400,216
78,57,146400,216
81,39,146640,240
72,39,146640,216
75,46,146640,216
81,44,146880,710
73,44,146880,710
76,54,146880,710
73,48,147600,480
76,48,147600,480
81,63,147600,240
83,65,147840,240
73,54,148080,216
76,54,148080,216
85,70,148080,216
74,43,148320,720
78,51,148320,720
85,66,148320,480
83,50,148800,240
74,46,149040,230
81,64,149040,240
74,46,149280,230
80,58,149280,240
74,42,149520,216
78,55,149520,216
74,48,149760,710
76,57,149760,710
68,50,150480,230
74,50,150480,230
76,59,150480,230
68,55,150720,216
74,56,150720,216
78,65,150720,216
68,50,150960,216
74,50,150960,216
76,59,150960,216
74,58,151200,480
78,69,151200,480
73,42,151680,230
76,50,151680,230
76,60,151920,240
69,60,151920,230
73,71,151920,240
69,64,152160,216
74,64,152160,216
78,78,152160,216
69,59,152400,216
72,59,152400,216
75,71,152400,216
69,66,152640,720
73,66,152640,710
76,82,152640,710
69,66,153360,230
73,66,153360,230
76,78,153360,230
73,78,153600,230
76,78,153600,230
81,88,153600,240
76,70,153840,216
81,70,153840,216
85,84,153840,216
85,75,154080,710
76,75,154080,720
80,75,154080,710
88,89,154080,710
73,61,154800,240
80,61,154800,230
85,84,154800,240
75,68,155040,230
78,73,155040,230
87,84,155040,230
84,56,155280,240
78,56,155280,216
87,56,155280,216
92,72,155280,216
80,62,155520,720
76,62,155520,720
73,62,155520,710
85,84,155520,710
64,37,156240,240
69,46,156240,240
63,37,156480,240
69,37,156480,216
71,46,156480,216
68,32,156720,240
62,32,156720,216
71,32,156720,216
76,37,156720,216
61,37,156960,720
69,46,156960,720
73,47,157680,240
79,47,157680,230
82,77,157680,240
74,68,157920,230
79,68,157920,230
83,80,157920,240
79,71,158160,240
76,71,158160,216
85,84,158160,216
79,69,158400,590
83,76,158400,590
74,69,158400,590
86,102,158400,590
83,52,159000,90
86,62,159000,90
79,58,159120,90
83,69,159120,90
74,51,159240,90
79,61,159240,90
71,56,159360,90
74,66,159360,90
67,46,159480,90
71,55,159480,90
62,52,159600,90
67,62,159600,90
59,45,159720,90
62,53,159720,90
60,52,159840,720
64,62,159840,720
59,41,160560,90
62,49,160560,90
62,36,160680,90
67,43,160680,90
60,41,160800,90
64,49,160800,90
64,34,160920,90
72,40,160920,90
71,49,161040,90
65,41,161040,90
71,36,161160,90
77,43,161160,90
72,41,161280,180
76,49,161280,180
59,41,161520,90
62,49,161520,90
62,36,161640,90
67,43,161640,90
60,41,161760,90
64,49,161760,90
64,34,161880,90
72,40,161880,90
71,49,162000,90
65,41,162000,90
71,36,162120,90
77,43,162120,90
72,41,162240,180
76,49,162240,180
77,54,162480,90
83,64,162480,90
83,47,162600,90
89,56,162600,90
84,51,162720,90
88,61,162720,90
76,45,162840,90
84,54,162840,90
83,49,162960,90
77,41,162960,90
71,36,163080,90
77,43,163080,90
72,41,163200,180
76,49,163200,180
68,55,163440,180
64,55,163440,180
74,55,163440,173
76,65,163440,180
69,58,163680,180
66,58,163680,173
74,58,163680,173
78,69,163680,180
71,63,163920,180
76,63,163920,180
68,63,163920,162
80,75,163920,162
73,68,164160,180
76,68,164160,180
69,68,164160,180
81,81,164160,180
71,73,164400,180
75,73,164400,180
83,87,164400,180
81,73,164400,180
85,92,164640,360
81,78,164640,360
73,78,164640,360
76,78,164640,360
69,66,165000,120
62,63,165120,480
64,63,165120,480
68,63,165120,480
73,75,165120,360
71,64,165480,120
61,53,165600,720
64,53,165600,720
69,63,165600,720
76,53,166320,120
74,48,166440,90
74,53,166560,120
73,47,166680,120
71,53,166800,120
69,49,166920,45
69,45,166980,60
76,56,167040,720
76,53,167760,120
74,48,167880,90
74,53,168000,80
73,47,168080,80
71,47,168160,80
70,53,168240,80
73,47,168320,80
74,47,168400,80
73,45,168440,40
76,53,168480,720
70,62,169200,120
78,57,169320,120
74,61,169440,60
76,59,169500,60
74,59,169560,60
73,60,169620,60
71,63,169680,60
73,65,169740,60
74,68,169800,60
76,71,169860,60
78,78,169920,720
70,68,170160,240
71,70,170400,240
82,77,170640,240
73,65,170640,240
83,81,170880,240
74,68,170880,240
78,60,171120,120
71,51,171120,240
74,45,171240,120
69,46,171360,480
73,55,171360,480
68,43,171840,240
71,51,171840,240
64,60,172080,140
63,55,172200,90
64,60,172320,120
59,54,172440,120
57,55,172560,30
59,56,172590,30
57,60,172620,60
56,56,172680,45
56,51,172740,60
64,64,172800,120
64,68,173040,470
64,60,173520,140
63,55,173640,90
64,60,173760,120
60,54,173880,120
59,55,174000,30
60,56,174030,30
59,60,174060,60
57,56,174120,45
57,51,174180,60
65,64,174240,120
65,68,174480,470
65,66,174960,140
64,61,175080,90
65,68,175200,120
62,62,175320,120
60,65,175440,30
62,66,175470,30
60,72,175500,60
59,67,175560,45
59,62,175620,60
67,78,175680,230
62,42,175920,228
67,42,175920,228
71,50,175920,228
60,42,176160,228
67,42,176160,228
72,50,176160,228
62,46,176400,228
67,46,176400,228
74,55,176400,228
64,53,176640,228
67,53,176640,228
76,63,176640,228
79,59,176880,120
67,50,176880,228
71,50,176880,228
77,52,177000,110
67,42,177120,720
71,42,177120,480
77,50,177120,480
72,37,177600,240
76,44,177600,240
67,62,177840,230
76,62,177840,230
79,73,177840,230
72,67,178080,240
79,67,178080,230
84,80,178080,240
79,85,178320,216
74,71,178320,216
86,85,178320,216
76,80,178560,180
79,80,178560,180
88,96,178560,180
76,75,178800,460
79,75,178800,460
88,89,178800,460
72,40,179280,480
76,40,179280,470
84,56,179280,240
79,55,179520,240
71,37,179760,240
74,37,179760,216
77,48,179760,216
72,55,180000,180
76,73,180000,180
72,38,180240,480
76,50,180240,480
65,34,180720,240
67,34,180720,470
74,47,180720,240
64,34,180960,240
72,43,180960,240
59,31,181200,240
67,40,181200,216
60,31,181440,180
64,41,181440,180
60,30,181680,480
64,39,181680,480
64,41,182160,120
60,34,182160,120
59,29,182280,108
62,35,182280,108
59,34,182400,120
62,41,182400,120
60,30,182520,108
64,36,182520,108
60,34,182640,120
64,41,182640,120
59,29,182760,120
65,35,182760,120
60,34,182880,240
64,41,182880,240
76,45,183120,120
72,37,183120,120
71,31,183240,108
74,38,183240,108
71,37,183360,120
74,45,183360,120
72,33,183480,108
76,39,183480,108
71,37,183600,240
79,49,183600,120
77,41,183720,120
72,37,183840,240
76,45,183840,240
64,38,184080,120
60,31,184080,120
59,26,184200,108
62,32,184200,108
59,31,184320,120
62,38,184320,120
60,28,184440,108
64,33,184440,108
59,31,184560,240
67,41,184560,120
65,34,184680,120
60,31,184800,240
64,38,184800,240
72,45,185040,240
76,45,185040,240
74,49,185280,120
76,49,185280,120
78,48,185400,30
76,48,185430,30
74,48,185460,3
76,48,185490,30
78,61,185520,180
74,51,185520,240
76,53,185700,60
73,49,185760,230
76,68,185760,120
81,61,185880,120
73,45,186000,240
76,64,186000,120
85,59,186120,120
71,39,186240,480
76,39,186240,480
80,56,186240,480
69,39,186720,480
75,39,186720,480
80,55,186720,240
78,48,186960,180
76,45,187140,60
68,48,187200,360
76,48,187200,360
56,34,187560,108
59,41,187680,108
64,35,187800,108
68,41,187920,240
71,33,188040,120
69,41,188160,216
73,41,188160,216
67,36,188400,216
70,36,188400,216
68,48,188640,360
71,48,188640,360
59,34,189000,108
64,41,189120,108
68,35,189240,108
68,41,189360,230
71,41,189360,120
76,33,189480,120
68,41,189600,230
71,41,189600,216
78,45,189600,216
68,36,189840,240
72,36,189840,216
80,43,189840,216
69,43,190080,600
73,43,190080,600
80,51,190080,480
78,47,190560,120
69,41,190680,108
69,38,190800,222
73,45,190800,240
76,36,190920,120
69,39,191040,216
75,46,191040,216
69,35,191280,216
73,42,191280,216
69,45,191520,240
71,53,191520,360
71,40,191880,108
75,43,192000,108
78,45,192120,108
81,47,192240,230
83,49,192360,60
85,44,192420,30
87,44,192450,30
81,44,192480,216
85,52,192480,216
81,39,192720,216
83,46,192720,216
81,45,192960,480
85,54,192960,480
83,56,193440,120
64,52,193680,480
68,62,193680,480
73,74,193920,240
66,64,194160,240
68,64,194160,240
72,77,194160,240
64,71,194400,360
69,71,194400,360
73,84,194400,360
63,50,194760,120
64,57,194880,120
69,55,195000,120
73,57,195120,120
76,59,195240,110
78,62,195360,240
76,52,195360,230
74,55,195600,180
80,65,195600,180
76,55,195600,180
74,68,195840,1680
83,81,195840,1440
80,68,195840,1440
78,50,197280,240
81,50,197280,240
69,39,198720,1680
73,39,198720,1440
79,47,198720,720
81,39,199440,60
79,36,199500,60
78,39,199560,60
79,36,199620,60
78,46,199680,120
79,39,199800,120
83,47,199920,120
81,37,200040,120
74,39,200160,240
78,46,200160,240
66,50,200520,120
69,57,200640,120
74,55,200760,120
78,57,200880,120
69,51,201000,350
74,51,201000,120
81,59,201000,120
80,62,201120,240
76,52,201120,240
69,46,201360,180
78,65,201360,180
69,58,201600,360
76,69,201600,360
61,50,201960,120
64,57,202080,120
69,55,202200,120
73,57,202320,120
64,51,202440,360
69,51,202440,120
76,59,202440,120
75,62,202560,240
71,52,202560,240
64,46,202800,180
73,65,202800,180
64,58,203040,180
71,69,203040,180
66,73,203280,180
70,73,203280,180
76,73,203280,180
68,65,203520,480
71,65,203520,480
80,77,203520,480
76,65,203520,480
69,52,204000,480
71,52,204000,470
75,52,204000,480
80,62,204000,360
78,42,204360,120
68,41,204480,720
71,41,204480,720
76,49,204480,720
64,76,205200,240
61,68,205440,108
69,81,205440,108
69,75,205560,240
61,63,205560,240
64,64,205800,120
71,76,205800,120
69,73,205920,216
73,86,205920,216
69,72,206160,357
73,85,206160,357
69,73,206520,240
73,86,206520,240
64,63,206760,120
71,74,206760,120
61,65,206880,108
69,77,206880,108
66,73,207000,240
69,86,207000,240
61,64,207240,120
68,76,207240,120
57,68,207360,216
66,80,207360,216
57,73,207600,480
66,86,207600,480
66,76,208080,240
62,68,208320,108
71,81,208320,108
71,75,208440,240
62,63,208440,240
66,64,208680,120
73,76,208680,120
71,73,208800,216
74,86,208800,216
71,72,209040,357
74,85,209040,357
71,73,209400,240
74,86,209400,240
66,63,209640,120
73,74,209640,120
62,65,209760,108
71,77,209760,108
68,73,209880,240
71,86,209880,240
63,64,210120,120
69,76,210120,120
59,68,210240,108
68,80,210240,108
59,73,210480,357
68,86,210480,357
56,73,210840,240
64,73,210840,238
68,86,210840,240
57,63,211080,120
64,63,211080,110
69,74,211080,120
64,65,211200,120
59,65,211200,108
71,77,211200,108
61,73,211320,240
69,73,211320,240
73,86,211320,240
69,64,211560,120
62,64,211560,120
74,76,211560,120
64,68,211680,120
69,68,211680,108
76,80,211680,108
64,73,211920,357
69,73,211920,357
76,86,211920,357
69,70,212280,118
76,83,212280,118
69,73,212400,118
73,73,212400,118
81,86,212400,118
69,69,212520,118
76,82,212520,118
69,73,212640,118
73,86,212640,118
69,80,212760,118
69,70,212880,118
73,83,212880,118
69,70,213000,120
76,83,213000,120
74,68,213120,120
66,68,213120,120
69,68,213120,108
78,80,213120,108
74,73,213360,357
66,73,213360,357
69,73,213360,357
78,86,213360,357
66,77,213720,240
69,77,213720,238
78,91,213720,240
64,69,213960,120
69,69,213960,120
76,82,213960,120
66,73,214080,114
69,73,214080,114
78,86,214080,114
66,83,214200,240
69,83,214200,240
78,83,214200,240
67,70,214440,120
79,83,214440,120
69,70,214440,120
66,74,214560,120
74,74,214560,108
78,88,214560,108
66,73,214800,360
74,73,214800,360
78,86,214800,360
62,70,215160,118
69,83,215160,118
62,73,215280,118
66,73,215280,118
74,86,215280,118
62,69,215400,118
69,82,215400,118
62,70,215520,118
66,83,215520,118
62,73,215640,118
69,83,215640,118
66,67,215760,118
62,67,215760,118
74,80,215760,118
64,70,215880,120
76,83,215880,120
69,70,215880,120
74,68,216000,120
66,68,216000,120
78,80,216000,108
74,73,216240,357
66,73,216240,357
78,86,216240,357
74,85,216600,230
78,85,216600,230
86,101,216600,230
74,83,216840,120
78,83,216840,120
86,98,216840,120
74,68,216960,120
68,68,216960,120
80,80,216960,108
74,73,217200,360
68,73,217200,360
80,86,217200,360
69,85,217560,230
73,85,217560,230
81,101,217560,230
69,74,217800,120
73,74,217800,120
81,88,217800,120
61,68,217920,120
57,68,217920,120
69,80,217920,108
61,73,218160,360
57,73,218160,360
69,86,218160,360
69,37,218520,120
66,37,218640,120
74,37,218640,120
69,37,218760,120
76,37,218760,120
74,34,218880,108
78,40,218880,108
74,36,219120,350
78,43,219120,350
69,35,219480,118
76,41,219480,118
74,36,219600,118
78,43,219600,118
76,34,219720,118
81,41,219720,118
74,36,219840,118
78,43,219840,118
69,38,219960,118
76,38,219960,118
74,35,220080,118
78,41,220080,118
76,38,220200,120
81,38,220200,120
74,34,220320,108
78,40,220320,108
74,36,220560,350
78,43,220560,350
69,35,220920,118
76,41,220920,118
74,37,221040,118
78,44,221040,118
76,35,221160,118
81,43,221160,118
74,38,221280,118
78,46,221280,118
69,41,221400,118
76,41,221400,118
74,38,221520,118
78,45,221520,118
76,42,221640,120
81,42,221640,120
79,39,221760,108
83,46,221760,108
83,49,222000,350
79,41,222000,350
74,40,222360,117
81,47,222360,118
79,41,222480,117
83,49,222480,118
74,39,222600,117
81,47,222600,118
71,41,222720,118
79,49,222720,117
69,43,222840,118
74,43,222840,117
71,40,222960,118
79,47,222960,117
74,43,223080,120
84,43,223080,120
79,39,223200,108
83,46,223200,108
83,49,223440,350
79,41,223440,350
79,45,223800,117
83,53,223800,118
83,49,223920,117
86,58,223920,117
81,45,224040,117
85,54,224040,118
79,50,224160,117
83,59,224160,117
76,43,224280,118
79,51,224280,117
79,47,224400,117
83,56,224400,117
76,43,224520,120
79,51,224520,120
73,39,224640,108
76,46,224640,108
76,49,224880,350
73,41,224880,350
73,45,225240,117
76,53,225240,118
76,49,225360,117
79,58,225360,117
74,45,225480,117
78,54,225480,118
73,50,225600,117
76,59,225600,117
74,43,225720,117
78,51,225720,117
73,47,225840,117
76,56,225840,117
71,43,225960,120
73,51,225960,120
70,39,226080,108
78,46,226080,108
78,49,226320,350
70,41,226320,350
73,45,226680,117
76,53,226680,118
76,49,226800,117
79,58,226800,117
74,45,226920,117
78,54,226920,118
73,50,227040,117
76,59,227040,117
74,43,227160,117
78,51,227160,117
73,47,227280,117
76,56,227280,117
71,43,227400,120
73,51,227400,120
70,39,227520,108
78,46,227520,108
78,49,227760,470
70,41,227760,470
70,46,228240,470
78,46,228240,470
70,45,228720,216
78,45,228720,216
69,39,228960,108
78,46,228960,108
78,48,229200,470
69,40,229200,470
69,46,229680,470
78,46,229680,470
69,45,230160,216
78,45,230160,216
68,35,230400,108
76,41,230400,108
76,43,230640,470
68,36,230640,470
71,39,231000,117
74,46,231000,117
74,42,231120,117
77,50,231120,117
72,38,231240,117
76,46,231240,118
71,42,231360,117
74,49,231360,117
72,36,231480,117
76,42,231480,117
71,38,231600,117
74,45,231600,117
69,34,231720,120
71,41,231720,120
68,31,231840,108
76,36,231840,108
76,39,232080,350
68,32,232080,350
71,36,232440,117
74,42,232440,117
74,39,232560,117
77,46,232560,117
72,36,232680,117
76,43,232680,118
71,40,232800,117
74,47,232800,117
72,34,232920,117
76,40,232920,117
71,37,233040,117
74,44,233040,117
69,34,233160,120
71,40,233160,120
68,31,233280,108
76,36,233280,108
76,38,233520,470
68,32,233520,470
64,76,234120,120
61,68,234240,108
69,81,234240,108
69,75,234360,240
61,63,234360,240
64,64,234600,120
71,76,234600,120
69,73,234720,216
73,86,234720,216
69,72,234960,357
73,85,234960,357
69,73,235320,240
73,86,235320,240
64,63,235560,120
71,74,235560,120
61,65,235680,108
69,77,235680,108
66,73,235800,240
69,86,235800,240
61,64,236040,120
68,76,236040,120
57,68,236160,216
66,80,236160,216
57,73,236400,480
66,86,236400,480
66,76,236880,240
62,68,237120,108
71,81,237120,108
71,75,237240,240
62,63,237240,240
66,64,237480,120
73,76,237480,120
71,73,237600,216
74,86,237600,216
71,72,237840,357
74,85,237840,357
71,73,238200,240
74,86,238200,240
66,63,238440,120
72,74,238440,120
62,65,238560,108
71,77,238560,108
67,73,238680,240
71,86,238680,240
63,64,238920,120
69,76,238920,120
59,68,239040,108
67,80,239040,108
59,73,239280,357
67,86,239280,356
55,73,239640,240
64,73,239640,238
67,86,239640,240
57,64,239880,120
64,64,239880,118
69,77,239880,120
64,67,240000,120
59,68,240000,108
71,81,240000,108
60,75,240120,240
69,75,240120,240
72,89,240120,240
67,71,240360,120
62,71,240360,120
74,85,240360,120
64,78,240480,120
67,78,240480,108
76,92,240480,108
64,83,240720,357
67,83,240720,356
76,98,240720,357
72,80,241080,117
79,95,241080,117
72,83,241200,117
76,83,241200,118
84,98,241200,117
72,79,241320,117
79,94,241320,117
72,83,241440,117
76,98,241440,118
72,92,241560,117
72,80,241680,117
76,95,241680,118
79,95,241800,120
72,80,241800,120
77,78,241920,120
69,78,241920,120
72,78,241920,108
81,92,241920,108
77,78,242160,356
69,78,242160,357
72,78,242160,356
81,93,242160,357
69,80,242520,240
72,80,242520,238
81,95,242520,240
70,75,242760,120
72,75,242760,120
82,89,242760,120
69,78,242880,114
72,78,242880,114
81,93,242880,114
69,90,243000,240
72,90,243000,240
81,90,243000,240
67,80,243240,120
79,95,243240,120
73,80,243240,120
74,78,243360,108
69,78,243360,120
78,78,243360,108
81,92,243360,108
74,83,243600,350
69,83,243600,360
78,83,243600,360
81,98,243600,350
74,80,243960,118
81,95,243960,118
74,83,244080,117
78,83,244080,118
86,98,244080,118
74,79,244200,118
81,94,244200,118
74,83,244320,117
78,98,244320,118
74,92,244440,118
74,80,244560,117
78,95,244560,117
74,77,244680,120
81,92,244680,120
78,77,244680,120
74,78,244800,120
79,78,244800,120
71,78,244800,120
83,92,244800,108
74,83,245040,360
79,83,245040,356
71,83,245040,357
83,98,245040,357
71,81,245400,240
74,81,245400,230
83,96,245400,230
72,79,245640,120
74,79,245640,120
84,93,245640,120
71,84,245760,114
74,84,245760,114
83,99,245760,114
71,80,245880,240
74,80,245880,240
83,95,245880,240
69,80,246120,120
81,95,246120,120
75,80,246120,120
76,78,246240,108
71,78,246240,120
80,78,246240,108
83,92,246240,108
76,83,246480,350
71,83,246480,360
80,83,246480,360
83,98,246480,350
76,80,246840,118
83,95,246840,118
76,83,246960,117
80,83,246960,118
88,98,246960,118
76,79,247080,118
83,94,247080,118
76,83,247200,117
80,98,247200,118
76,95,247320,118
76,80,247440,117
80,95,247440,117
76,77,247560,120
83,92,247560,120
80,77,247560,120
76,78,247680,120
81,78,247680,120
72,78,247680,120
84,92,247680,108
76,80,247920,360
81,80,247920,356
72,80,247920,356
84,95,247920,356
81,80,248280,230
72,80,248280,230
76,80,248280,230
84,95,248280,230
81,75,248520,120
72,75,248520,120
76,75,248520,112
84,89,248520,120
72,77,248640,120
81,77,248640,120
76,77,248640,120
84,92,248640,108
81,78,248880,360
76,78,248880,360
72,78,248880,360
84,93,248880,360
81,83,249240,230
72,83,249240,230
76,83,249240,230
84,98,249240,230
72,76,249480,120
76,76,249480,120
81,76,249480,120
84,91,249480,120
83,74,249600,120
74,74,249600,120
79,74,249600,108
86,93,249600,108
83,80,249840,360
74,80,249840,355
79,80,249840,360
86,96,249840,355
83,84,250200,120
79,84,250200,120
74,84,250200,108
86,99,250200,108
83,81,250440,120
74,81,250440,120
79,81,250440,120
86,96,250440,120
79,84,250560,120
83,84,250560,120
74,84,250560,120
86,99,250560,108
79,87,250800,360
83,87,250800,356
74,87,250800,356
86,103,250800,356
83,88,251160,230
74,88,251160,230
79,88,251160,230
86,104,251160,230
83,81,251400,120
74,81,251400,120
79,81,251400,112
86,96,251400,120
88,100,251520,108
76,84,251520,120
84,84,251520,120
79,84,251520,120
84,86,251760,360
79,86,251760,360
76,86,251760,360
88,101,251760,360
84,89,252120,230
76,89,252120,230
79,89,252120,230
88,106,252120,230
76,82,252360,120
79,82,252360,120
84,82,252360,120
88,98,252360,120
84,73,252480,120
76,73,252480,120
79,73,252480,108
88,103,252480,108
84,83,252720,360
76,83,252720,355
79,83,252720,360
88,99,252720,355
72,48,253080,120
67,48,253080,120
64,48,253080,108
76,57,253080,108
72,45,253320,108
64,45,253320,108
67,45,253320,108
76,54,253320,108
67,45,253440,120
72,45,253440,120
64,45,253440,120
76,53,253440,108
67,45,253680,360
72,45,253680,356
64,45,253680,356
76,53,253680,356
72,44,254040,230
64,44,254040,230
67,44,254040,230
76,52,254040,230
72,39,254280,108
64,39,254280,108
67,39,254280,101
76,47,254280,108
76,50,254400,108
65,42,254400,120
72,42,254400,120
71,38,254640,357
65,38,254640,357
74,45,254640,357
71,40,255000,230
65,40,255000,230
74,47,255000,230
71,36,255240,120
65,36,255240,112
74,42,255240,120
74,45,255360,108
64,38,255360,120
71,38,255360,120
69,34,255600,357
64,34,255600,357
72,41,255600,357
69,35,255960,230
64,35,255960,230
72,42,255960,230
69,32,256200,120
64,32,256200,112
72,38,256200,120
72,40,256320,108
64,34,256320,120
69,34,256320,120
68,30,256560,360
64,30,256560,360
71,36,256560,360
61,39,257040,216
64,46,257040,216
62,42,257280,216
66,50,257280,216
60,34,257520,216
63,40,257520,216
61,39,257760,710
64,47,257760,710
69,38,257880,230
73,38,257880,230
69,38,258120,120
73,38,258120,120
69,38,258240,240
73,38,258240,240
73,31,258480,240
61,42,258480,230
64,42,258480,230
69,55,258480,240
61,42,258720,240
64,42,258720,240
71,57,258720,240
61,47,258960,216
65,47,258960,216
73,61,258960,216
66,45,259200,710
73,58,259200,480
78,48,259320,230
76,48,259320,230
78,41,259560,120
76,41,259560,120
74,38,259680,230
78,38,259680,230
71,48,259680,240
66,56,259920,240
74,35,259920,240
78,35,259920,240
71,51,259920,120
69,48,260040,120
62,37,260160,240
68,51,260160,240
62,37,260400,216
66,48,260400,216
62,42,260640,710
64,50,260640,710
74,40,260760,230
76,40,260760,230
74,35,261000,110
76,35,261000,110
74,40,261120,230
76,40,261120,230
74,40,261360,240
76,40,261360,240
62,42,261360,120
64,50,261360,110
66,40,261520,40
68,40,261560,40
62,42,261600,216
66,50,261600,216
62,35,261840,216
64,42,261840,216
62,42,262080,480
66,50,262080,480
69,35,262200,230
69,31,262440,110
69,36,262560,240
61,37,262560,230
64,44,262560,230
69,65,262800,230
73,65,262800,240
76,77,262800,240
69,72,263040,230
74,72,263040,216
78,85,263040,216
69,63,263280,240
72,63,263280,216
75,75,263280,216
69,71,263520,110
73,71,263520,110
76,84,263520,110
85,77,263640,240
81,65,263640,240
76,65,263640,240
73,65,263640,240
73,57,263880,120
76,57,263880,120
81,57,263880,120
85,68,263880,120
73,66,264000,240
76,66,264000,240
81,66,264000,240
85,78,264000,240
73,60,264240,120
76,60,264240,120
81,60,264240,120
85,71,264240,120
69,50,264360,115
64,50,264360,115
73,50,264360,115
64,56,264480,216
69,56,264480,216
73,56,264480,216
76,78,264480,216
73,65,264720,216
66,65,264720,216
75,65,264720,216
78,77,264720,216
73,71,264960,120
68,71,264960,110
76,71,264960,110
80,84,264960,110
92,77,265080,240
88,65,265080,240
85,65,265080,240
80,65,265080,240
80,57,265320,120
85,57,265320,120
88,57,265320,120
92,68,265320,120
80,66,265440,240
85,66,265440,240
88,66,265440,240
92,78,265440,240
80,60,265680,120
85,60,265680,120
88,60,265680,120
92,71,265680,120
68,56,265800,115
64,56,265800,115
76,67,265800,115
66,56,265920,216
68,56,265920,216
75,78,265920,216
66,62,266160,216
68,75,266160,216
64,63,266400,110
68,63,266400,110
73,75,266400,110
85,69,266520,240
80,58,266520,240
76,58,266520,240
73,58,266520,240
73,51,266760,120
76,51,266760,120
80,51,266760,120
85,61,266760,120
73,59,266880,240
76,59,266880,240
80,59,266880,240
85,70,266880,240
73,53,267120,120
76,53,267120,120
80,53,267120,120
85,63,267120,120
64,39,267240,115
61,39,267240,115
73,46,267240,115
62,39,267360,216
64,39,267360,216
71,54,267360,216
62,45,267600,216
64,53,267600,216
61,49,267840,110
69,58,267840,110
81,53,267960,240
78,53,267960,240
73,45,267960,240
69,45,267960,240
69,39,268200,120
73,39,268200,120
78,47,268200,120
81,47,268200,120
69,45,268320,240
73,45,268320,240
78,54,268320,240
81,54,268320,240
69,41,268560,120
73,41,268560,120
78,49,268560,120
81,49,268560,120
68,56,268680,115
61,56,268680,115
70,67,268680,115
62,56,268800,216
68,56,268800,216
71,80,268800,216
68,70,269040,216
64,70,269040,216
70,70,269040,216
73,83,269040,216
67,85,269280,120
62,85,269280,110
71,85,269280,110
74,100,269280,110
86,101,269400,240
83,85,269400,240
79,85,269400,240
74,85,269400,240
74,74,269640,120
79,74,269640,120
83,74,269640,120
86,89,269640,120
74,86,269760,240
79,86,269760,240
83,86,269760,240
86,102,269760,240
74,79,270000,350
79,79,270000,350
83,79,270000,350
86,93,270000,350
74,50,270360,240
66,42,270360,240
62,42,270360,240
69,42,270366,240
62,37,270600,120
66,37,270600,120
69,37,270600,6
74,44,270600,120
62,43,270720,240
66,43,270720,240
69,43,270720,240
74,51,270720,240
69,39,270960,350
62,39,270960,350
66,39,270960,350
74,46,270960,350
86,101,271320,240
83,85,271320,240
79,85,271320,240
74,85,271320,240
74,74,271560,120
79,74,271560,120
83,74,271560,120
86,89,271560,120
74,86,271680,240
79,86,271680,240
83,86,271680,240
86,102,271680,240
74,79,271920,350
79,79,271920,350
83,79,271920,350
86,93,271920,350
74,50,272280,240
66,42,272280,240
62,42,272280,240
69,42,272286,240
62,37,272520,120
66,37,272520,120
69,37,272520,6
74,44,272520,120
62,43,272640,240
66,43,272640,240
69,43,272640,240
74,51,272640,240
69,39,272880,350
62,39,272880,350
66,39,272880,350
74,46,272880,350
86,101,273240,228
83,72,273240,228
79,72,273240,228
74,72,273240,228
74,62,273480,114
79,62,273480,114
83,62,273480,114
86,89,273480,114
74,78,273600,120
79,78,273600,120
83,78,273600,120
86,92,273600,120
74,74,273840,120
79,74,273840,120
83,88,273840,120
71,72,274080,120
74,72,274080,120
79,85,274080,120
67,69,274320,120
71,69,274320,120
74,82,274320,120
62,67,274560,120
67,67,274560,120
71,79,274560,120
59,64,274800,120
62,64,274800,120
67,76,274800,120
55,80,275040,1440
62,80,275040,1440
65,95,275040,1440
55,75,276480,1440
62,75,276480,1440
65,89,276480,1440
56,39,277920,960
62,47,277920,960
64,47,277920,775
64,42,278700,60
66,42,278760,60
68,42,278820,60
66,49,278880,360
64,48,279240,110
56,39,279360,960
62,47,279360,960
64,47,279360,775
64,42,280140,60
66,42,280200,60
68,42,280260,60
66,49,280320,360
64,42,280680,110
61,40,280800,240
64,48,280800,120
69,42,280920,120
63,40,281040,240
68,48,281040,120
69,43,281160,120
64,40,281280,480
69,40,281280,480
73,48,281280,480
62,38,281760,480
64,38,281760,480
68,38,281760,480
73,45,281760,360
71,41,282120,120
61,31,282240,120
64,31,282240,120
69,37,282240,120
57,34,282360,180
61,34,282360,180
64,34,282360,180
69,41,282360,180
57,27,282600,90
61,27,282600,90
64,27,282600,90
69,32,282600,90
57,29,282720,180
61,29,282720,180
64,29,282720,180
69,35,282720,180
57,27,282960,180
61,27,282960,180
64,27,282960,180
69,32,282960,180
57,34,283800,180
61,34,283800,180
67,34,283800,180
69,41,283800,180
57,27,284040,90
61,27,284040,90
67,27,284040,90
69,32,284040,90
57,29,284160,180
61,29,284160,180
67,29,284160,180
69,35,284160,180
57,27,284400,180
61,27,284400,180
67,27,284400,180
69,32,284400,180
57,34,285240,180
62,34,285240,180
66,34,285240,180
69,41,285240,180
57,27,285480,90
62,27,285480,90
66,27,285480,90
69,32,285480,90
57,29,285600,180
62,29,285600,180
66,29,285600,180
69,35,285600,180
57,27,285840,180
62,27,285840,180
66,27,285840,180
69,32,285840,180
57,34,286680,180
62,34,286680,180
65,34,286680,180
68,41,286680,180
57,27,286920,90
62,27,286920,90
65,27,286920,90
68,32,286920,90
57,29,287040,180
62,29,287040,180
65,29,287040,180
68,35,287040,180
57,27,287280,180
62,27,287280,180
65,27,287280,180
68,32,287280,180
57,30,288120,180
61,30,288120,180
64,30,288120,180
69,36,288120,180
57,23,288360,90
61,23,288360,90
64,23,288360,90
69,27,288360,90
57,25,288480,180
61,25,288480,180
64,25,288480,180
69,30,288480,180
57,23,288720,180
61,23,288720,180
64,23,288720,180
69,27,288720,180
58,23,289560,180
61,23,289560,180
64,28,289560,180
67,34,289560,180
58,18,289800,90
61,18,289800,90
64,22,289800,90
67,26,289800,90
58,20,289920,180
61,20,289920,180
64,24,289920,180
67,29,289920,180
58,18,290160,180
61,18,290160,180
64,22,290160,180
67,26,290160,180
57,22,291000,180
62,27,291000,180
66,32,291000,180
57,17,291240,90
62,21,291240,90
66,24,291240,90
57,19,291360,180
62,23,291360,180
66,27,291360,180
57,17,291600,180
62,21,291600,180
66,24,291600,180
56,25,292440,180
59,25,292440,180
62,25,292440,180
65,30,292440,180
56,20,292680,90
59,20,292680,90
62,20,292680,90
65,23,292680,90
56,21,292800,180
59,21,292800,180
62,21,292800,180
65,26,292800,180
56,19,293040,180
59,19,293040,180
62,19,293040,180
65,23,293040,180
52,22,293880,180
57,22,293880,180
61,22,293880,180
64,27,293880,180
52,17,294120,90
57,17,294120,90
61,17,294120,90
64,19,294120,90
52,20,294240,180
57,20,294240,180
61,20,294240,180
64,24,294240,180
52,18,294480,180
57,18,294480,180
61,18,294480,180
64,21,294480,180
52,19,294720,180
57,19,294720,180
61,23,294720,180
52,17,294960,180
57,17,294960,180
61,20,294960,180
49,16,295200,1440
52,16,295200,1440
57,19,295200,1440
45,28,720,240
52,34,720,240
45,34,960,216
54,40,960,216
45,24,1200,216
51,29,1200,216
45,31,1440,710
52,37,1440,710
45,34,2160,480
52,34,2160,480
57,41,2160,240
59,43,2400,240
45,38,2640,216
53,38,2640,216
57,45,2640,216
50,29,2880,720
54,35,2880,720
58,42,2880,480
59,37,3360,240
50,32,3600,240
54,38,3600,240
52,29,3840,240
56,35,3840,240
54,28,4080,216
57,34,4080,216
44,31,4320,710
52,37,4320,710
44,34,5040,240
52,40,5040,240
44,31,5280,216
54,37,5280,216
44,29,5520,216
52,35,5520,216
45,34,5760,720
54,40,5760,480
52,36,6240,230
45,35,6480,240
49,42,6480,240
45,42,6720,216
54,50,6720,216
45,29,6960,216
51,36,6960,216
45,38,7200,710
52,46,7200,710
61,57,7920,240
57,61,8160,240
45,54,8400,216
52,64,8400,216
44,59,8640,720
52,59,8640,720
56,70,8640,720
56,32,9360,230
61,38,9360,240
56,29,9600,230
60,35,9600,240
56,28,9840,216
63,34,9840,216
56,31,10080,720
49,31,10080,710
61,37,10080,710
52,34,10800,230
57,40,10800,240
52,31,11040,216
56,37,11040,216
52,29,11280,216
59,35,11280,216
52,34,11520,480
45,34,11520,480
57,40,11520,480
45,28,12240,240
52,34,12240,240
45,34,12480,216
54,40,12480,216
45,24,12720,216
51,29,12720,216
45,31,12960,710
52,37,12960,710
45,34,13680,480
52,34,13680,480
57,41,13680,240
59,43,13920,240
45,38,14160,216
53,38,14160,216
57,45,14160,216
50,29,14400,720
54,35,14400,720
58,42,14400,480
59,37,14880,240
50,32,15120,240
54,38,15120,240
52,29,15360,240
56,35,15360,240
54,28,15600,216
57,34,15600,216
44,31,15840,710
52,37,15840,710
44,34,16560,240
52,40,16560,240
44,31,16800,216
54,37,16800,216
44,29,17040,216
52,35,17040,216
45,34,17280,720
54,40,17280,480
52,36,17760,230
45,35,18000,240
49,42,18000,240
45,42,18240,216
54,50,18240,216
45,29,18480,216
51,36,18480,216
45,38,18720,710
52,46,18720,710
61,57,19440,240
57,61,19680,240
45,54,19920,216
52,64,19920,216
44,59,20160,720
52,59,20160,720
56,70,20160,720
56,32,20880,230
61,38,20880,240
56,29,21120,230
60,35,21120,230
56,28,21360,216
63,34,21360,216
56,31,21600,720
49,31,21600,710
61,37,21600,710
52,34,22320,230
57,40,22320,240
52,31,22560,216
56,37,22560,216
52,29,22800,216
59,35,22800,216
54,34,23040,720
57,40,23040,720
52,36,23760,230
55,43,23760,230
50,39,24000,240
55,46,24000,240
49,40,24240,216
55,48,24240,216
47,43,24480,720
55,51,24480,720
50,32,25200,230
55,38,25200,230
53,28,25440,230
55,34,25440,240
55,34,25680,216
48,27,25920,710
55,33,25920,710
43,27,26640,230
55,32,26640,240
48,23,26880,230
55,28,26880,240
50,23,27120,240
55,28,27120,216
48,26,27360,220
55,31,27360,220
55,27,27600,230
67,32,27600,240
60,23,27840,230
67,28,27840,240
62,23,28080,240
67,28,28080,216
60,26,28320,220
67,31,28320,220
43,27,28560,230
55,32,28560,240
48,23,28800,230
55,28,28800,240
50,23,29040,240
55,28,29040,216
48,26,29280,220
55,31,29280,220
47,29,29520,240
52,29,29520,240
56,35,29520,240
47,31,29760,240
52,31,29760,240
56,38,29760,240
47,37,30000,240
52,37,30000,240
56,44,30000,240
49,42,30240,240
52,42,30240,240
57,51,30240,240
54,47,30480,240
57,47,30480,240
59,56,30480,240
52,49,30720,480
57,49,30720,480
61,59,30720,480
40,42,31200,480
52,50,31200,480
45,34,31680,720
52,41,31680,720
52,30,32400,230
49,34,32640,240
45,34,32880,170
45,27,33060,60
52,33,33120,710
52,33,33840,230
49,37,34080,240
46,37,34320,170
46,29,34500,60
52,36,34560,710
52,36,35280,230
50,43,35520,240
47,46,35760,170
47,37,35940,60
54,54,36000,216
52,45,36240,216
54,54,36240,216
50,44,36480,216
54,52,36480,216
46,41,36720,216
54,49,36720,216
47,38,36960,216
54,45,36960,216
41,45,37200,216
50,53,37200,216
40,39,37440,720
52,46,37440,720
52,30,38160,230
47,34,38400,240
44,34,38640,170
44,27,38820,60
52,33,38880,710
52,33,39600,230
48,37,39840,240
45,37,40080,170
45,29,40260,60
52,36,40320,710
52,36,41040,230
49,43,41280,240
46,46,41520,170
46,37,41700,60
53,54,41760,216
51,45,42000,216
53,54,42000,216
50,44,42240,216
53,52,42240,216
45,41,42480,216
53,49,42480,216
46,38,42720,216
53,45,42720,216
48,45,42960,216
53,53,42960,216
48,39,43200,480
53,46,43200,720
46,39,43680,220
41,50,43920,228
53,59,43920,228
43,54,44160,228
53,54,44160,228
55,64,44160,228
45,58,44400,216
53,58,44400,216
57,69,44400,216
46,63,44640,710
53,63,44640,720
58,74,44640,710
50,44,45360,240
58,44,45360,480
62,53,45360,480
53,46,45600,240
53,38,45840,240
60,38,45840,240
63,45,45840,216
55,35,46080,720
58,35,46080,710
62,42,46080,710
45,32,46800,230
53,38,46800,470
46,28,47040,230
48,25,47280,240
53,31,47280,216
46,27,47520,710
53,33,47520,710
41,27,48240,230
53,32,48240,240
46,23,48480,230
53,28,48480,240
48,23,48720,240
53,28,48720,216
46,26,48960,220
53,31,48960,220
53,27,49200,230
65,32,49200,240
58,23,49440,230
65,28,49440,240
60,23,49680,240
65,28,49680,216
58,26,49920,220
65,31,49920,220
41,41,50160,216
53,49,50160,470
46,45,50400,216
48,45,50640,216
53,53,50640,480
46,46,50880,230
46,47,51120,216
45,50,51360,216
44,53,51600,216
45,51,51840,240
38,47,52080,240
50,56,52080,240
40,49,52320,480
49,59,52320,480
40,42,52800,480
50,50,52800,480
33,34,53280,720
45,41,53280,720
64,39,54000,240
57,33,54000,240
66,41,54240,216
57,34,54240,216
63,38,54480,216
57,32,54480,216
64,41,54720,720
57,34,54720,720
57,40,55440,480
64,40,55440,480
69,49,55440,240
71,51,55680,240
57,45,55920,216
65,45,55920,216
69,54,55920,216
62,34,56160,720
66,42,56160,720
70,50,56160,480
71,44,56640,240
50,32,56880,240
54,38,56880,240
52,28,57120,240
56,34,57120,240
54,28,57360,216
57,34,57360,216
44,31,57600,710
52,37,57600,710
56,39,58320,240
64,46,58320,240
56,35,58560,216
66,42,58560,216
56,33,58800,216
64,40,58800,216
57,39,59040,720
66,46,59040,480
64,41,59520,230
47,48,59760,240
49,57,59760,240
49,51,60000,230
45,51,60000,216
54,61,60000,216
49,45,60240,240
44,45,60240,216
53,53,60240,216
50,56,60480,720
42,56,60480,720
45,56,60480,710
54,66,60480,710
54,44,61200,240
57,44,61200,470
52,49,61440,240
57,45,61680,216
50,48,61920,1680
58,48,61920,1440
61,57,61920,1440
62,39,63360,240
59,33,63360,240
50,29,64800,1440
57,29,64800,1440
43,29,66240,240
55,32,66240,240
47,57,66960,240
45,54,67200,240
49,61,67200,240
43,52,67440,216
50,62,67440,216
42,59,67680,720
50,70,67680,720
54,29,68400,230
57,41,68400,470
52,25,68640,230
56,37,68640,240
50,38,68880,216
57,47,68880,216
49,42,69120,240
57,50,69120,240
54,40,69360,240
59,48,69360,240
57,40,69360,240
57,46,69600,480
52,46,69600,470
61,54,69600,480
52,47,70080,470
40,39,70080,480
45,28,70560,720
52,40,70560,720
57,66,71760,120
61,61,71880,120
62,66,72000,120
50,77,72120,240
38,59,72360,120
50,65,72480,120
57,73,72720,120
61,61,72840,120
59,65,72960,120
54,71,73200,120
57,63,73320,120
55,65,73440,120
43,74,73560,240
31,65,73800,120
43,65,73920,120
47,58,74040,120
43,61,74160,120
42,64,74280,120
40,68,74400,120
59,66,74640,120
63,61,74760,120
64,66,74880,120
52,77,75000,240
40,59,75240,120
52,65,75360,120
59,73,75600,120
62,62,75720,120
61,65,75840,120
56,71,76080,120
59,63,76200,120
57,65,76320,120
45,74,76440,240
33,65,76680,120
45,70,76800,360
57,73,77040,120
47,58,77160,120
57,58,77160,240
59,65,77160,120
49,55,77280,120
61,65,77280,120
50,63,77400,240
62,71,77520,120
62,61,77640,120
52,61,77640,120
64,63,77640,120
54,55,77760,120
62,55,77760,120
66,65,77760,120
54,62,78000,357
62,62,78000,357
66,74,78000,357
66,71,78360,120
54,60,78360,120
69,74,78480,120
57,62,78480,120
66,70,78600,120
54,59,78600,120
50,62,78720,120
62,74,78720,120
49,58,78840,120
61,68,78840,120
47,60,78960,120
59,71,78960,120
45,58,79080,120
57,68,79080,120
43,55,79200,120
50,55,79200,120
55,65,79200,120
43,62,79440,357
50,62,79440,357
55,74,79440,357
50,71,79800,120
43,60,79800,120
55,82,79920,120
50,59,80040,120
54,70,80040,120
42,59,80040,120
43,62,80160,114
50,62,80160,114
55,74,80160,114
43,60,80280,240
50,71,80280,120
55,71,80400,120
50,67,80520,120
45,65,80520,120
57,71,80520,120
43,55,80640,120
50,55,80640,120
55,65,80640,120
43,62,80880,360
50,62,80880,360
55,74,80880,360
59,71,81240,120
47,60,81240,120
62,74,81360,120
50,62,81360,120
59,70,81480,120
47,59,81480,120
43,62,81600,120
55,74,81600,120
47,58,81720,120
59,68,81720,120
43,60,81840,120
55,71,81840,120
42,58,81960,120
54,68,81960,120
40,55,82080,120
47,55,82080,120
52,65,82080,120
40,62,82320,357
47,62,82320,357
52,74,82320,357
40,55,82680,230
47,55,82680,230
52,65,82680,230
40,62,82920,120
47,62,82920,120
52,74,82920,120
45,55,83040,120
52,55,83040,120
57,65,83040,120
45,62,83280,360
52,62,83280,360
57,74,83280,360
38,55,83640,230
45,55,83640,230
50,65,83640,230
38,62,83880,120
45,62,83880,120
50,74,83880,120
50,55,84000,120
57,65,84000,120
50,62,84240,360
57,74,84240,360
43,32,85080,120
50,35,85200,120
43,32,85320,350
50,36,85440,230
50,37,85680,720
43,31,85680,720
43,32,86520,120
50,35,86640,120
43,32,86760,350
50,36,86880,230
50,38,87120,720
43,31,87120,360
42,32,87480,120
40,35,87600,120
38,39,87720,120
36,36,87960,120
43,40,88080,120
36,36,88200,350
43,41,88320,230
43,42,88560,720
36,35,88560,720
36,36,89400,120
43,40,89520,120
36,36,89640,350
43,41,89760,230
43,42,90000,480
36,35,90000,720
45,39,90480,240
36,36,90840,120
45,40,90960,120
36,36,91080,350
45,41,91200,230
45,42,91440,480
36,35,91440,480
48,35,91920,240
57,42,91920,240
47,36,92280,120
57,40,92400,120
47,36,92520,350
57,41,92640,230
57,42,92880,480
47,35,92880,480
48,35,93360,240
57,42,93360,240
47,36,93720,120
57,40,93840,120
47,36,93960,350
57,41,94080,230
57,42,94320,480
47,35,94320,480
48,35,94800,240
57,42,94800,240
47,36,95160,120
57,39,95280,120
47,35,95400,350
57,39,95520,230
57,39,95760,470
47,33,95760,470
47,32,96240,240
57,38,96240,240
47,32,96600,120
57,35,96720,120
47,31,96840,350
57,35,96960,230
57,35,97200,470
47,29,97200,470
47,28,97680,240
57,34,97680,240
43,32,98040,120
50,35,98160,120
43,32,98280,350
50,36,98400,230
50,37,98640,720
43,31,98640,720
43,32,99480,120
50,35,99600,120
43,32,99720,350
50,36,99840,230
50,38,100080,720
43,31,100080,360
42,32,100440,120
40,35,100560,120
38,39,100680,120
36,36,100920,120
43,40,101040,120
36,36,101160,350
43,41,101280,230
43,42,101520,720
36,35,101520,720
36,36,102360,120
43,40,102480,120
36,36,102600,350
43,41,102720,230
43,45,102960,240
36,45,102960,240
35,44,103200,240
44,48,103200,480
40,42,103440,240
33,41,103680,120
45,46,103680,110
45,36,103800,120
55,46,103920,120
45,41,104040,350
55,45,104160,230
55,45,104400,480
45,38,104400,480
46,36,104880,240
55,43,104880,240
45,36,105240,120
55,40,105360,120
45,36,105480,350
55,41,105600,230
55,42,105840,480
45,35,105840,480
46,35,106320,240
55,42,106320,240
45,29,106560,116
55,37,106560,120
45,34,106680,120
55,37,106800,120
45,33,106920,350
55,37,107040,230
55,37,107280,470
45,31,107280,470
45,30,107760,240
55,36,107760,240
57,38,108120,120
67,43,108240,120
57,38,108360,350
67,47,108480,230
57,30,108720,216
67,39,108720,216
57,66,109200,120
61,61,109320,120
62,66,109440,120
50,77,109560,240
38,59,109800,120
50,65,109920,120
57,73,110160,120
61,65,110280,120
59,65,110400,120
54,71,110640,120
57,65,110760,120
55,65,110880,120
43,74,111000,240
31,65,111240,120
43,65,111360,120
47,58,111480,120
43,61,111600,120
42,64,111720,120
40,68,111840,120
59,66,112080,120
63,61,112200,120
64,66,112320,120
52,77,112440,240
40,59,112680,120
52,65,112800,120
59,70,113040,120
62,63,113160,120
60,65,113280,120
56,71,113520,120
59,63,113640,120
57,65,113760,120
45,74,113880,240
33,65,114120,120
45,65,114240,360
57,73,114480,120
47,56,114600,120
57,56,114600,240
59,63,114600,120
48,55,114720,120
60,65,114720,120
57,58,114840,240
50,63,114840,240
62,71,114960,120
60,63,115080,120
52,63,115080,120
64,65,115080,120
53,55,115200,120
60,55,115200,120
65,65,115200,120
53,62,115440,356
60,62,115440,356
65,74,115440,356
57,71,115800,120
45,60,115800,120
60,74,115920,120
48,62,115920,120
57,70,116040,120
45,59,116040,120
41,62,116160,120
53,74,116160,120
40,58,116280,120
52,68,116280,120
38,60,116400,120
50,71,116400,120
36,58,116520,120
48,68,116520,120
34,55,116640,120
46,65,116640,120
46,62,116880,356
53,62,116880,356
58,74,116880,356
53,71,117240,120
46,60,117240,120
58,82,117360,120
53,59,117480,120
57,70,117480,120
45,59,117480,120
46,62,117600,114
53,62,117600,114
58,74,117600,114
46,60,117720,240
53,71,117720,120
58,71,117840,120
53,60,117960,120
48,60,117960,120
60,71,117960,120
46,55,118080,120
53,55,118080,120
58,65,118080,120
46,62,118320,360
53,62,118320,360
58,74,118320,360
62,71,118680,120
50,60,118680,120
65,74,118800,120
53,62,118800,120
62,70,118920,120
50,59,118920,120
46,62,119040,120
58,74,119040,120
50,58,119160,120
62,68,119160,120
46,60,119280,120
58,71,119280,120
45,60,119400,120
57,71,119400,120
43,63,119520,120
55,74,119520,120
43,71,119760,356
55,85,119760,356
31,64,120120,230
43,74,120120,230
31,64,120360,120
43,77,120360,120
36,63,120480,120
48,74,120480,120
36,71,120720,360
48,85,120720,360
29,64,121080,230
41,74,121080,230
29,64,121320,120
41,77,121320,120
41,55,121440,120
48,55,121440,120
53,65,121440,120
41,62,121680,355
48,62,121680,355
53,74,121680,355
53,38,122040,230
60,45,122040,230
51,43,122280,120
60,51,122280,116
50,38,122400,120
60,45,122400,120
50,43,122640,355
60,51,122640,355
48,38,123720,120
57,38,123720,120
50,33,123840,120
60,39,123840,120
50,36,124080,355
60,42,124080,355
48,38,125160,120
57,38,125160,120
50,33,125280,120
60,39,125280,120
50,36,125520,355
60,42,125520,355
50,37,125880,220
60,44,125880,220
50,33,126120,110
60,39,126120,110
50,37,126240,120
60,44,126240,120
50,33,126480,355
60,39,126480,355
47,37,126840,120
57,44,126840,120
47,33,127080,110
57,39,127080,110
47,37,127200,220
57,44,127200,220
47,33,127440,355
57,39,127440,355
46,40,127800,120
58,48,127800,120
46,33,128040,110
58,39,128040,110
46,37,128160,220
58,44,128160,220
46,33,128400,355
58,39,128400,355
45,34,128760,120
55,40,128760,120
45,28,129000,110
55,33,129000,110
45,31,129120,220
55,37,129120,220
45,28,129360,355
55,33,129360,355
44,31,129720,120
56,37,129720,120
44,28,129960,110
56,33,129960,110
44,31,130080,220
56,37,130080,220
44,28,130320,355
56,33,130320,355
43,26,130680,120
53,31,130680,120
43,23,130920,110
53,28,130920,110
42,26,131160,120
54,31,131160,120
42,23,131400,110
54,28,131400,110
41,22,131640,120
51,26,131640,120
41,19,131880,110
51,23,131880,110
40,22,132120,120
52,26,132120,120
40,19,132360,110
52,23,132360,110
40,51,132720,456
52,60,132720,456
40,34,133200,240
52,41,133200,240
40,25,133680,480
52,30,133680,480
40,22,134160,216
52,26,134160,216
57,39,134640,216
61,39,134640,240
64,46,134640,240
57,42,134880,216
62,42,134880,216
66,50,134880,216
57,28,135120,216
60,28,135120,216
63,34,135120,216
57,37,135360,720
61,37,135360,710
64,44,135360,710
61,42,136080,230
64,42,136080,230
69,55,136080,240
61,42,136320,230
64,42,136320,240
71,57,136320,240
61,47,136560,216
64,47,136560,216
73,61,136560,216
62,38,136800,720
66,45,136800,720
73,58,136800,480
71,44,137280,240
61,40,137520,240
64,40,137520,240
69,56,137520,240
59,40,137760,240
62,40,137760,240
68,51,137760,240
57,37,138000,240
61,37,138000,216
66,48,138000,216
59,42,138240,360
56,42,138240,710
64,50,138240,710
61,42,138600,120
62,42,138720,240
56,42,138960,110
62,42,138960,120
64,50,138960,110
66,40,139080,60
68,40,139140,60
56,42,139200,216
62,42,139200,216
66,50,139200,216
56,35,139440,216
62,35,139440,216
64,42,139440,216
57,42,139680,710
62,42,139680,480
66,50,139680,480
61,37,140160,230
64,44,140160,230
57,48,140400,240
61,57,140400,240
57,52,140640,216
62,52,140640,216
66,62,140640,216
57,37,140880,216
60,37,140880,216
63,45,140880,216
57,43,141120,720
61,43,141120,710
64,53,141120,710
57,53,141840,230
61,62,141840,230
57,62,142080,230
61,62,142080,230
64,70,142080,240
61,56,142320,216
57,56,142320,216
63,56,142320,216
66,67,142320,216
64,60,142560,710
56,60,142560,720
61,60,142560,710
68,71,142560,710
56,32,143280,240
64,32,143280,230
68,44,143280,240
56,32,143520,230
66,32,143520,230
68,40,143520,240
56,29,143760,216
63,29,143760,216
68,38,143760,216
64,33,144000,720
61,33,144000,710
68,44,144000,710
52,33,144720,240
61,33,144720,230
64,40,144720,240
52,33,144960,240
62,33,144960,216
64,40,144960,216
52,28,145200,216
59,28,145200,216
64,33,145200,216
57,33,145440,720
61,33,145440,720
64,40,145440,720
71,52,146280,90
69,48,146520,90
66,52,146760,90
64,54,147000,180
69,47,147180,60
64,44,147240,60
61,44,147300,60
57,52,147360,90
57,52,147480,90
61,48,147720,90
64,52,147960,90
69,54,148200,90
70,58,148440,180
73,47,148620,60
71,48,148680,60
70,48,148740,60
71,52,148800,90
71,51,148920,90
62,39,149160,90
66,46,149160,90
64,35,149400,90
68,42,149400,90
66,39,149640,90
69,46,149640,90
68,39,149880,180
71,46,149880,180
69,35,150060,60
73,41,150060,60
68,35,150120,60
71,41,150120,60
66,35,150180,60
69,41,150180,60
68,38,150240,90
71,45,150240,90
68,39,150360,90
71,46,150360,90
64,52,150600,90
62,54,150840,90
59,59,151080,90
57,62,151200,120
69,71,151320,180
68,46,151500,30
66,45,151530,30
64,44,151560,30
62,43,151590,30
61,42,151620,30
59,40,151650,30
57,47,151680,68
57,52,151800,90
47,53,152040,90
59,63,152040,90
45,60,152280,90
57,71,152280,90
42,62,152520,90
54,66,152520,90
40,60,152760,240
52,71,152760,240
37,51,153000,90
49,60,153000,90
40,56,153120,90
52,66,153120,90
45,51,153240,90
57,60,153240,90
61,60,153480,90
49,51,153480,90
47,56,153720,90
59,66,153720,90
45,57,153960,90
57,68,153960,90
44,61,154200,240
56,72,154200,240
40,49,154440,120
52,58,154440,120
44,51,154560,90
56,61,154560,90
61,57,154680,90
49,48,154680,90
64,61,154920,90
52,51,154920,90
69,56,155160,90
57,47,155160,90
44,51,155400,90
56,61,155400,90
49,59,155640,240
61,70,155640,240
44,50,155880,120
56,59,155880,120
40,53,156000,90
52,63,156000,90
37,51,156120,90
49,60,156120,90
49,39,156360,90
54,44,156600,90
52,41,156840,90
54,51,157080,240
49,39,157320,90
45,44,157440,120
42,39,157560,120
40,50,157800,120
52,59,157800,120
38,52,158040,120
50,62,158040,120
37,56,158280,120
49,67,158280,120
35,56,158640,240
38,56,158640,240
43,56,158640,240
47,67,158640,240
43,45,159720,90
55,53,159720,90
48,45,159840,720
55,53,159840,720
43,33,160560,90
55,39,160560,90
47,28,160680,90
55,33,160680,90
48,33,160800,90
55,39,160800,90
48,27,160920,90
55,32,160920,90
50,33,161040,90
55,39,161040,90
43,28,161160,90
55,33,161160,90
48,33,161280,180
55,39,161280,180
43,33,161520,90
55,39,161520,90
47,28,161640,90
55,33,161640,90
48,33,161760,90
55,39,161760,90
48,27,161880,90
55,32,161880,90
50,33,162000,90
55,39,162000,90
43,28,162120,90
55,33,162120,90
48,33,162240,180
55,39,162240,180
50,33,162480,90
55,39,162480,90
43,28,162600,90
55,33,162600,90
48,33,162720,90
55,39,162720,90
48,27,162840,90
55,32,162840,90
50,33,162960,90
55,39,162960,90
43,28,163080,90
55,33,163080,90
48,33,163200,180
55,39,163200,180
35,53,163560,120
47,63,163560,120
40,56,163800,120
52,66,163800,120
38,47,164040,120
50,67,164040,120
37,56,164280,120
49,66,164280,120
42,56,164520,120
54,67,164520,120
40,64,164640,480
52,76,164640,480
40,52,165120,480
52,62,165120,480
45,41,165600,720
52,49,165600,720
64,45,166320,120
62,40,166440,90
62,45,166560,120
61,39,166680,120
59,45,166800,120
57,41,166920,45
57,38,166980,60
64,47,167040,720
64,45,167760,120
62,40,167880,90
62,45,168000,80
61,39,168080,80
59,39,168160,80
58,45,168240,80
61,39,168320,80
62,39,168400,80
61,38,168440,40
64,45,168480,720
58,52,169200,120
66,48,169320,120
62,52,169440,60
64,49,169500,60
62,50,169560,60
61,51,169620,60
59,53,169680,60
61,55,169740,60
62,57,169800,60
64,60,169860,60
66,66,169920,720
64,45,170160,240
62,38,170400,240
66,38,170640,230
64,32,170640,240
61,32,170640,240
62,38,170880,230
66,45,170880,480
59,38,170880,240
62,37,171120,240
63,42,171360,480
64,39,171840,240
52,51,172080,140
51,46,172200,90
52,51,172320,120
47,44,172440,120
45,47,172560,30
47,47,172590,30
45,51,172620,60
44,47,172680,45
44,43,172740,60
52,54,172800,120
52,56,173040,470
52,51,173520,140
51,46,173640,90
52,51,173760,120
48,44,173880,120
47,47,174000,30
48,47,174030,30
47,51,174060,60
45,47,174120,45
45,43,174180,60
53,54,174240,120
53,56,174480,470
53,56,174960,140
52,51,175080,90
53,58,175200,120
50,51,175320,120
48,55,175440,30
50,55,175470,30
48,61,175500,60
47,56,175560,45
47,52,175620,60
55,66,175680,230
53,34,175920,228
55,40,175920,228
52,34,176160,228
55,40,176160,228
47,38,176400,228
55,45,176400,228
48,43,176640,228
55,51,176640,228
50,34,176880,228
55,41,176880,228
50,34,177120,480
55,40,177120,720
48,35,177600,240
43,45,177840,230
55,53,177840,470
45,48,178080,240
57,57,178080,240
47,50,178320,240
55,50,178320,216
59,60,178320,216
48,56,178560,180
55,56,178560,180
60,66,178560,180
48,52,178800,460
55,52,178800,460
60,61,178800,460
52,32,179280,240
60,32,179280,480
64,38,179280,480
55,35,179520,230
62,34,179760,240
59,28,179760,240
55,28,179760,216
57,39,180000,180
60,49,180000,180
57,27,180240,480
60,34,180240,480
47,27,180720,240
55,32,180720,480
48,23,180960,230
55,28,181200,420
50,23,181200,240
48,28,181440,180
48,21,181680,480
55,27,181680,480
55,38,182160,230
48,38,182160,120
43,34,182280,108
55,38,182400,230
43,40,182400,120
48,35,182520,108
55,38,182640,230
48,40,182640,120
50,34,182760,120
48,34,182880,240
55,40,182880,240
67,41,183120,230
60,41,183120,120
55,37,183240,108
67,41,183360,230
55,44,183360,120
60,38,183480,108
67,41,183600,230
64,44,183600,120
62,37,183720,120
60,37,183840,240
67,44,183840,240
55,34,184080,230
48,34,184080,120
43,31,184200,108
55,34,184320,230
43,37,184320,120
48,32,184440,108
55,34,184560,230
52,37,184560,120
50,31,184680,120
48,31,184800,240
55,37,184800,240
60,31,185040,216
67,37,185040,216
59,32,185280,216
68,38,185280,216
59,35,185520,216
68,42,185520,216
57,34,185760,216
69,40,185760,216
57,28,186000,216
64,28,186000,216
69,34,186000,216
59,28,186240,480
64,28,186240,480
68,33,186240,480
47,28,186720,480
59,33,186720,480
52,28,187200,480
59,34,187200,480
52,31,187920,240
59,31,187920,240
61,36,188160,216
52,36,188160,216
52,33,188400,216
58,33,188400,216
52,28,188640,710
59,34,188640,350
59,31,189360,230
52,31,189360,240
64,31,189360,240
59,36,189600,230
66,36,189600,216
52,36,189600,216
60,33,189840,240
52,33,189840,216
64,33,189840,216
57,37,190080,600
61,37,190080,600
65,44,190080,480
57,31,190800,240
61,31,190800,240
63,36,191040,216
59,36,191040,216
61,33,191280,216
64,33,191280,216
51,28,191520,710
59,34,191520,710
63,31,192240,230
71,31,192240,240
63,36,192480,230
73,36,192480,216
63,33,192720,240
71,33,192720,216
64,37,192960,600
73,44,192960,480
71,44,193440,120
59,55,193560,120
56,57,193680,480
54,60,193800,120
52,51,193920,240
60,61,194160,240
56,51,194160,240
51,51,194160,240
49,58,194400,720
52,58,194400,720
57,58,194400,720
61,70,194400,720
64,54,195240,360
61,45,195240,120
59,60,195360,240
64,58,195600,180
68,69,195840,1440
65,58,195840,1440
57,58,195840,1680
69,44,197280,240
66,37,197280,240
64,39,198720,1440
57,33,198720,1680
50,30,200160,240
62,36,200160,240
54,45,201000,120
52,60,201120,240
56,60,201120,240
50,49,201360,180
57,58,201360,180
49,55,201600,720
57,65,201600,720
61,45,202440,120
59,60,202560,240
63,60,202560,240
57,49,202800,180
64,58,202800,180
56,65,203040,180
64,67,203280,180
61,67,203280,180
59,61,203520,480
64,72,203520,480
47,38,204000,470
59,45,204000,470
52,31,204480,720
59,37,204480,720
52,66,205680,120
56,61,205800,120
57,66,205920,120
45,77,206040,240
33,59,206280,120
45,65,206400,120
52,73,206640,120
56,63,206760,120
54,65,206880,120
49,71,207120,120
52,62,207240,120
50,65,207360,120
38,74,207480,240
33,65,207720,120
38,65,207840,120
42,58,207960,120
38,61,208080,120
37,64,208200,120
35,68,208320,120
54,66,208560,120
58,61,208680,120
59,66,208800,120
47,77,208920,240
35,59,209160,120
47,65,209280,120
54,73,209520,120
57,63,209640,120
56,65,209760,120
51,71,210000,120
54,65,210120,120
52,65,210240,120
40,74,210360,240
35,65,210600,120
40,65,210720,230
40,73,210840,110
52,73,210840,230
42,56,211080,120
52,56,211080,240
54,63,211080,120
44,55,211200,120
56,65,211200,120
57,71,211320,230
45,63,211320,240
57,63,211560,120
47,63,211560,120
59,65,211560,120
49,55,211680,120
57,55,211680,120
61,65,211680,120
49,62,211920,357
57,62,211920,357
61,74,211920,357
61,71,212280,120
49,60,212280,120
64,74,212400,120
52,62,212400,120
61,70,212520,120
49,59,212520,120
45,62,212640,120
57,74,212640,120
44,58,212760,120
56,68,212760,120
42,60,212880,120
54,71,212880,120
40,60,213000,120
52,71,213000,120
38,55,213120,120
45,55,213120,120
50,65,213120,120
38,62,213360,357
45,62,213360,357
50,74,213360,357
45,71,213720,120
38,60,213720,240
50,82,213840,120
45,59,213960,120
49,70,213960,120
37,59,213960,120
38,62,214080,114
45,62,214080,114
50,74,214080,114
38,60,214200,240
45,71,214200,120
50,68,214320,120
47,60,214440,120
40,60,214440,120
52,71,214440,120
38,60,214560,120
45,60,214560,120
50,71,214560,120
38,62,214800,360
45,62,214800,360
50,74,214800,360
54,71,215160,120
42,60,215160,120
57,74,215280,120
45,62,215280,120
54,70,215400,120
42,59,215400,120
38,60,215520,120
50,71,215520,120
42,60,215640,120
54,71,215640,120
38,58,215760,120
50,68,215760,120
37,60,215880,120
49,71,215880,120
35,55,216000,120
47,65,216000,120
35,62,216240,357
42,62,216240,357
47,74,216240,357
35,60,216600,230
42,60,216600,230
47,71,216600,230
35,62,216840,120
42,62,216840,120
47,74,216840,120
40,55,216960,120
47,55,216960,120
52,65,216960,120
40,62,217200,360
47,62,217200,360
52,74,217200,360
33,60,217560,230
40,60,217560,230
45,71,217560,230
33,55,217800,120
40,55,217800,120
45,66,217800,120
45,55,217920,120
52,65,217920,120
45,62,218160,360
52,74,218160,360
50,32,219000,120
57,35,219120,120
50,32,219240,330
57,36,219360,210
57,37,219600,720
50,31,219600,720
50,32,220440,120
57,35,220560,120
50,32,220680,330
57,36,220800,210
57,38,221040,720
50,31,221040,360
49,32,221400,120
47,35,221520,120
45,39,221640,120
43,36,221880,120
50,40,222000,120
43,36,222120,330
50,41,222240,210
50,42,222480,720
43,35,222480,720
43,36,223320,120
50,40,223440,120
43,36,223560,330
50,41,223680,210
50,42,223920,600
43,35,223920,598
43,31,224520,120
52,39,224520,120
43,36,224760,120
52,40,224880,120
43,36,225000,330
52,41,225120,210
52,42,225360,480
43,35,225360,480
55,35,225840,240
64,42,225840,240
54,36,226200,120
64,40,226320,120
54,36,226440,330
64,41,226560,210
64,42,226800,480
54,35,226800,480
55,35,227280,240
64,42,227280,240
54,36,227640,120
64,40,227760,120
54,36,227880,330
64,41,228000,210
64,42,228240,480
54,35,228240,480
54,35,228720,216
64,42,228720,216
47,36,229080,120
63,39,229200,120
47,35,229320,330
63,39,229440,210
63,39,229680,470
47,33,229680,470
47,32,230160,216
63,38,230160,216
52,32,230520,120
62,35,230640,120
52,31,230760,330
62,35,230880,210
62,36,231120,480
52,30,231120,480
53,28,231600,240
62,34,231600,240
52,28,231960,120
62,32,232080,120
52,28,232200,330
62,32,232320,210
62,33,232560,480
52,28,232560,480
53,28,233040,240
62,33,233040,240
52,28,233400,120
62,31,233520,120
52,28,233640,330
62,31,233760,210
52,31,234000,116
62,35,234000,120
52,66,234480,120
56,61,234600,120
57,66,234720,120
45,77,234840,240
33,59,235080,120
45,65,235200,120
52,73,235440,120
56,63,235560,120
54,65,235680,120
49,71,235920,120
52,65,236040,120
50,65,236160,120
38,74,236280,240
33,65,236520,120
38,65,236640,120
42,58,236760,120
38,61,236880,120
37,64,237000,120
35,68,237120,120
54,66,237360,120
58,61,237480,120
59,66,237600,120
47,77,237720,240
35,59,237960,120
47,65,238080,120
54,73,238320,120
57,63,238440,120
55,65,238560,120
51,71,238800,120
54,65,238920,120
52,65,239040,120
40,74,239160,240
35,65,239400,120
40,65,239520,230
40,73,239640,110
52,73,239640,230
42,60,239880,120
52,58,239880,118
54,64,239880,120
52,60,240000,120
43,58,240000,120
55,68,240000,120
52,65,240120,240
57,73,240120,230
45,65,240120,240
55,70,240360,120
47,70,240360,120
59,72,240360,120
48,63,240480,120
55,63,240480,120
60,74,240480,120
48,71,240720,356
55,71,240720,356
60,85,240720,356
64,81,241080,120
52,69,241080,120
67,85,241200,120
55,71,241200,120
64,80,241320,120
52,67,241320,120
48,71,241440,120
60,85,241440,120
47,66,241560,120
59,78,241560,120
45,69,241680,120
57,81,241680,120
43,69,241800,120
55,81,241800,120
41,63,241920,120
48,63,241920,120
53,74,241920,120
41,67,242160,356
48,67,242160,356
53,80,242160,356
48,76,242520,120
41,55,242520,240
53,81,242640,120
48,63,242760,110
55,76,242760,120
43,63,242760,110
41,67,242880,114
48,67,242880,114
53,80,242880,114
41,65,243000,240
48,76,243000,120
53,76,243120,120
39,69,243240,120
51,81,243240,120
38,63,243360,120
50,74,243360,120
38,71,243600,360
50,85,243600,360
66,81,243960,120
54,69,243960,120
69,85,244080,120
57,71,244080,120
66,80,244200,120
54,67,244200,120
50,71,244320,120
62,85,244320,120
49,66,244440,120
61,78,244440,120
47,69,244560,120
59,81,244560,120
45,66,244680,120
57,78,244680,120
50,63,244800,120
43,63,244800,120
55,74,244800,120
43,71,245040,356
50,71,245040,357
55,85,245040,356
43,53,245400,230
50,53,245400,230
55,74,245400,230
45,68,245640,120
50,68,245640,120
57,80,245640,120
43,60,245760,114
50,60,245760,114
55,85,245760,114
50,58,245880,240
43,58,245880,240
55,81,245880,240
41,69,246120,120
53,81,246120,120
40,63,246240,120
52,74,246240,120
40,71,246480,360
52,85,246480,360
64,81,246840,120
56,69,246840,120
71,85,246960,120
59,71,246960,120
68,80,247080,120
56,67,247080,120
52,71,247200,120
64,85,247200,120
50,69,247320,120
62,81,247320,120
48,69,247440,120
60,81,247440,120
47,66,247560,120
59,78,247560,120
52,63,247680,120
45,63,247680,120
57,74,247680,120
45,69,247920,356
52,69,247920,357
57,81,247920,356
52,60,248280,230
45,60,248280,230
57,85,248280,230
52,65,248520,120
45,65,248520,120
57,76,248520,120
52,71,248640,120
45,71,248640,120
57,83,248640,120
52,74,248880,360
45,74,248880,360
57,88,248880,360
52,62,249240,230
45,62,249240,230
57,88,249240,230
52,70,249480,120
45,70,249480,120
57,84,249480,120
43,71,249600,120
50,71,249600,120
55,86,249600,120
43,85,249840,355
50,85,249840,355
55,99,249840,355
50,84,250200,120
43,84,250200,120
55,99,250200,120
50,81,250440,120
43,81,250440,120
55,96,250440,116
50,68,250560,120
43,68,250560,120
55,79,250560,120
43,75,250800,356
50,75,250800,357
55,88,250800,356
50,66,251160,230
43,66,251160,230
55,93,251160,230
50,70,251400,120
43,70,251400,120
55,82,251400,120
43,74,251520,120
36,74,251520,120
48,88,251520,120
43,83,251760,360
36,83,251760,360
48,100,251760,360
43,67,252120,230
36,67,252120,230
48,95,252120,230
43,75,252360,120
36,75,252360,120
48,90,252360,120
36,80,252480,120
43,80,252480,120
48,96,252480,120
36,87,252720,355
43,87,252720,355
48,102,252720,355
55,48,253080,120
48,48,253080,120
60,57,253080,120
55,45,253320,108
48,45,253320,108
60,54,253320,105
55,36,253440,120
48,36,253440,120
60,42,253440,120
48,39,253680,356
55,39,253680,356
60,45,253680,356
55,33,254040,230
48,33,254040,230
60,46,254040,230
55,34,254280,108
48,34,254280,108
60,40,254280,108
59,37,254400,120
50,37,254400,120
62,44,254400,120
59,37,254640,357
50,37,254640,357
62,45,254640,357
59,30,255000,230
50,30,255000,230
62,42,255000,230
59,31,255240,120
50,31,255240,120
62,36,255240,120
57,34,255360,120
52,34,255360,120
60,39,255360,120
57,33,255600,357
52,33,255600,357
60,41,255600,357
57,26,255960,230
52,26,255960,230
60,37,255960,230
57,28,256200,120
52,28,256200,120
60,32,256200,120
52,30,256320,120
62,35,256320,120
52,30,256560,360
62,36,256560,360
57,34,257040,216
57,40,257280,216
57,29,257520,216
57,37,257760,710
45,31,257880,230
52,31,257880,230
45,31,258120,120
52,31,258120,120
45,31,258240,230
52,31,258240,230
45,34,258480,240
52,34,258480,240
57,41,258480,240
57,43,258720,240
57,45,258960,216
62,38,259200,720
50,29,259320,240
58,35,259320,240
50,31,259560,120
58,31,259560,120
50,32,259680,240
59,38,259680,240
50,28,259920,240
59,34,259920,240
62,40,259920,240
59,34,260160,240
57,34,260400,216
56,37,260640,710
47,35,260760,240
52,35,260760,240
47,31,261000,120
52,31,261000,120
47,35,261120,240
52,35,261120,240
52,35,261360,240
47,34,261360,240
56,40,261360,240
56,37,261600,216
56,35,261840,216
57,40,262080,504
45,29,262200,240
50,29,262200,240
54,35,262200,240
45,26,262440,110
50,26,262440,120
54,31,262440,120
45,29,262560,240
49,35,262560,240
52,36,262560,230
45,48,262800,240
57,57,262800,240
38,47,263040,216
50,67,263040,216
42,48,263280,216
54,57,263280,216
45,60,263520,110
57,60,263520,110
33,46,263640,240
40,46,263640,240
45,55,263640,240
33,39,263880,120
40,39,263880,120
45,47,263880,120
33,46,264000,240
40,46,264000,240
45,55,264000,240
33,43,264240,120
40,43,264240,120
45,51,264240,120
49,41,264360,120
61,49,264360,120
47,55,264480,240
59,65,264480,240
45,45,264720,216
57,64,264720,216
44,51,264960,110
56,60,264960,110
32,46,265080,240
37,46,265080,240
44,55,265080,240
32,39,265320,120
37,39,265320,120
44,47,265320,120
32,46,265440,240
37,46,265440,240
44,55,265440,240
32,43,265680,120
37,43,265680,120
44,51,265680,120
56,46,265800,120
61,55,265800,120
56,55,265920,240
60,65,265920,240
56,45,266160,216
63,64,266160,216
56,45,266400,110
49,45,266400,110
61,54,266400,110
37,41,266520,240
40,41,266520,240
44,41,266520,240
49,49,266520,240
37,35,266760,120
40,35,266760,120
44,35,266760,120
49,42,266760,120
37,41,266880,240
40,41,266880,240
44,41,266880,240
49,49,266880,240
37,38,267120,120
40,38,267120,120
44,38,267120,120
49,45,267120,120
52,38,267240,120
57,38,267240,120
52,45,267360,240
56,38,267360,240
52,37,267600,216
59,44,267600,216
54,35,267840,110
57,42,267840,110
42,32,267960,240
49,32,267960,240
54,38,267960,240
42,27,268200,120
49,27,268200,120
54,32,268200,120
42,32,268320,240
49,32,268320,240
54,38,268320,240
42,29,268560,120
49,29,268560,120
54,35,268560,120
40,46,268680,120
52,55,268680,120
38,56,268800,240
50,66,268800,240
37,49,269040,216
49,69,269040,216
35,61,269280,110
47,72,269280,110
35,56,269400,240
43,56,269400,240
38,56,269400,240
47,66,269400,240
43,47,269640,120
38,47,269640,120
35,47,269640,120
47,56,269640,120
43,56,269760,240
38,56,269760,240
35,56,269760,240
47,66,269760,240
43,51,270000,350
35,51,270000,350
38,51,270000,350
47,61,270000,350
48,30,270360,240
54,30,270360,240
50,30,270360,240
57,36,270360,240
54,25,270600,120
50,25,270600,120
48,25,270600,120
57,30,270600,120
54,30,270720,240
50,30,270720,240
48,30,270720,240
57,36,270720,240
54,28,270960,350
48,28,270960,350
50,28,270960,350
57,33,270960,350
35,56,271320,240
43,56,271320,240
38,56,271320,240
47,66,271320,240
43,47,271560,120
38,47,271560,120
35,47,271560,120
47,56,271560,120
43,56,271680,240
38,56,271680,240
35,56,271680,240
47,66,271680,240
43,51,271920,350
35,51,271920,350
38,51,271920,350
47,61,271920,350
48,30,272280,240
54,30,272280,240
50,30,272280,240
57,36,272280,240
54,25,272520,120
50,25,272520,120
48,25,272520,120
57,30,272520,120
54,30,272640,240
50,30,272640,240
48,30,272640,240
57,36,272640,240
54,28,272880,350
48,28,272880,350
50,28,272880,350
57,33,272880,350
35,47,273240,228
43,47,273240,228
38,47,273240,228
47,66,273240,228
43,39,273480,114
38,39,273480,114
35,39,273480,114
47,56,273480,114
35,56,273600,120
38,56,273600,120
43,56,273600,120
47,66,273600,120
35,56,273840,120
47,66,273840,120
35,54,274080,120
47,64,274080,120
35,52,274320,120
47,62,274320,120
35,51,274560,120
47,60,274560,120
35,49,274800,120
47,58,274800,120
35,60,275040,1440
47,71,275040,1440
35,56,276480,1440
47,66,276480,1440
47,33,277920,1440
50,33,277920,1440
52,39,277920,1440
47,33,279360,1440
50,33,279360,1440
52,39,279360,1440
49,36,280800,240
52,36,280800,240
57,43,280800,240
57,30,281040,240
59,36,281040,240
54,30,281040,240
61,43,281280,480
52,36,281280,480
57,36,281280,480
40,34,281760,480
52,41,281760,480
45,28,282240,120
52,33,282240,120
45,36,282960,216
47,44,283200,216
44,40,283440,216
45,48,283680,720
55,39,284400,216
52,48,284640,216
49,44,284880,216
45,48,285120,720
45,36,285840,216
47,44,286080,216
44,40,286320,216
45,44,286560,720
53,39,287280,216
50,45,287520,360
47,37,287880,120
45,42,288000,720
33,31,288720,216
35,37,288960,216
32,34,289200,216
33,37,289440,720
37,36,290160,180
40,28,290340,60
43,40,290400,216
46,32,290640,216
33,35,290880,720
33,28,291600,216
35,33,291840,216
32,30,292080,216
33,33,292320,720
41,32,293040,180
40,27,293220,60
38,31,293266,30
40,24,293296,30
38,31,293326,30
40,25,293356,30
38,31,293386,40
40,26,293426,4
38,31,293466,40
37,25,293520,180
35,23,293700,60
33,33,293760,480
37,31,294240,480
40,29,294720,480
33,18,295200,1440
37,18,295200,1440
40,18,295200,1440
45,21,295200,1440
