note,velocity,position,duration
81,55,2880,360
83,51,3240,120
81,55,3360,360
78,48,3720,120
74,55,3840,240
74,49,4320,240
74,50,4740,60
73,57,4800,360
71,51,5160,120
73,55,5280,360
76,55,5640,120
69,60,5760,480
74,55,6240,240
76,59,6720,360
79,57,7080,50
79,45,7140,60
83,66,7200,360
81,56,7560,111
81,63,7680,240
81,52,8160,240
85,53,8580,60
83,68,8640,360
82,57,9000,120
83,68,9120,360
86,64,9480,120
81,67,9600,960
81,55,10560,360
83,49,10920,120
81,60,11040,360
78,57,11400,120
74,55,11520,240
74,49,12000,240
73,57,12480,360
71,51,12840,120
73,62,12960,360
78,59,13320,110
78,69,13440,960
79,69,14400,160
83,61,14560,160
88,61,14720,160
86,69,14881,160
83,65,15040,160
79,58,15200,160
78,61,15360,240
78,58,15840,240
76,60,16320,160
79,56,16480,160
83,55,16640,160
81,64,16800,160
79,55,16960,160
73,56,17120,160
74,67,17280,960
62,68,18240,160
66,58,18400,160
71,58,18560,160
69,68,18720,160
66,58,18880,160
62,58,19040,160
64,69,19200,240
57,58,19200,240
64,64,19680,240
57,54,19680,240
64,68,20160,160
67,58,20320,160
73,58,20480,160
71,68,20640,160
67,58,20800,160
64,58,20960,160
57,52,21120,960
62,52,21120,960
66,62,21120,960
74,75,22080,160
78,58,22240,160
83,58,22400,160
81,68,22560,160
78,58,22720,160
74,58,22880,160
73,75,23040,160
69,58,23200,160
78,58,23360,160
76,68,23520,160
73,58,23680,160
69,58,23840,160
68,75,24000,160
64,58,24160,160
68,58,24320,160
76,68,24480,160
74,58,24640,160
71,58,24800,160
69,68,24960,480
73,51,25440,240
76,61,25440,240
73,51,25920,240
76,61,25920,240
69,51,25920,240
73,51,26400,240
76,61,26400,240
74,55,26880,240
78,65,26880,240
74,47,27360,240
71,47,27360,240
76,56,27360,240
68,51,27840,240
71,51,27840,240
76,61,27840,240
74,51,28320,240
71,51,28320,240
76,61,28320,240
78,65,28800,240
73,55,28800,240
69,55,28800,240
69,47,29280,240
76,56,29280,240
73,47,29280,240
73,47,29760,240
81,56,29760,240
76,47,29760,240
69,47,29760,240
73,51,30240,240
76,51,30240,240
81,61,30240,240
69,51,30240,240
74,59,30720,240
81,70,30720,240
69,59,30720,240
71,51,31200,240
83,61,31200,240
74,51,31200,240
73,63,31680,240
76,74,31680,240
80,56,32160,240
68,47,32160,240
76,47,32160,240
74,47,32160,240
73,51,32640,960
81,61,32640,960
76,51,32640,960
69,51,32640,478
81,55,35520,360
83,51,35880,120
81,55,36000,360
78,48,36360,120
74,55,36480,240
74,49,36960,240
74,50,37380,60
73,57,37440,360
71,51,37800,120
73,55,37920,360
76,55,38280,120
69,60,38400,480
74,55,38880,240
76,59,39360,360
79,57,39720,50
79,45,39780,60
83,66,39840,360
81,56,40200,110
81,66,40320,240
81,54,40800,240
85,53,41220,60
83,68,41280,360
82,57,41640,120
83,68,41760,360
86,66,42120,120
81,70,42240,960
81,49,43200,360
82,44,43560,120
81,53,43680,360
77,50,44040,120
74,49,44160,240
74,44,44640,240
74,52,45060,60
77,52,45120,360
69,52,45120,360
77,57,45600,360
69,57,45600,360
77,65,46080,480
70,55,46080,480
82,65,46560,240
86,71,47040,160
88,59,47200,160
85,70,47360,160
86,73,47521,160
88,76,47680,160
89,63,47840,160
81,72,48000,240
81,65,48480,480
76,70,48960,160
79,63,49120,160
83,53,49280,160
81,70,49440,160
79,60,49600,160
73,60,49760,160
81,70,49920,960
79,66,50880,160
83,59,51040,160
88,59,51200,160
86,66,51361,160
83,62,51520,160
79,56,51680,160
78,61,51840,120
81,66,51960,240
81,67,52320,480
76,64,52800,160
79,59,52960,160
83,53,53120,160
81,67,53280,160
79,59,53440,160
73,59,53600,160
74,67,53760,960
62,68,54720,160
66,58,54880,160
71,58,55040,160
69,68,55200,160
66,58,55360,160
62,58,55520,160
64,69,55680,240
57,58,55680,240
64,64,56160,240
57,54,56160,240
64,68,56640,160
67,58,56800,160
73,58,56960,160
71,68,57120,160
67,58,57280,160
64,58,57440,160
66,62,57600,960
57,52,57600,960
62,52,57600,960
74,75,58560,160
78,58,58720,160
83,58,58880,160
81,68,59040,160
78,58,59200,160
74,58,59360,160
73,75,59520,160
69,58,59680,160
78,58,59840,160
76,68,60000,160
73,58,60160,160
69,58,60320,160
68,75,60480,160
64,58,60640,160
68,58,60800,160
76,68,60960,160
74,58,61120,160
71,58,61280,160
69,68,61440,480
73,51,61920,240
76,61,61920,240
69,51,62400,240
76,61,62400,240
73,51,62400,240
73,51,62880,240
76,61,62880,240
78,65,63360,240
74,55,63360,240
71,47,63840,240
76,56,63840,240
74,47,63840,240
71,51,64320,240
76,61,64320,240
68,51,64320,240
71,51,64800,240
76,61,64800,240
74,51,64800,240
78,65,65280,240
69,55,65280,240
73,55,65280,240
73,47,65760,240
76,56,65760,240
69,47,65760,240
81,56,66240,240
76,47,66240,240
69,47,66240,240
73,47,66240,240
73,51,66720,240
81,61,66720,240
69,51,66720,240
76,51,66720,240
74,59,67200,240
69,59,67200,240
81,70,67200,240
74,51,67680,240
71,51,67680,240
83,61,67680,240
76,74,68160,240
73,63,68160,240
74,47,68640,240
80,56,68640,240
68,47,68640,240
76,47,68640,240
81,61,69120,960
76,51,69120,960
69,51,69120,478
73,51,69120,960
81,55,72000,360
83,51,72360,120
81,55,72480,360
78,48,72840,120
74,55,72960,240
74,49,73440,240
74,50,73860,60
73,57,73920,360
71,51,74280,120
73,55,74400,360
76,55,74760,120
69,60,74880,480
74,55,75360,240
76,59,75840,360
79,57,76200,50
79,45,76260,60
83,66,76320,358
81,56,76680,110
81,66,76800,240
81,54,77280,240
85,53,77700,60
83,68,77760,360
82,57,78120,120
83,68,78240,360
86,66,78600,120
81,70,78720,960
81,49,79680,360
82,44,80040,120
81,53,80160,360
77,50,80520,120
74,49,80640,240
74,44,81120,240
74,52,81540,60
77,52,81600,360
69,52,81600,360
69,57,82080,360
77,57,82080,360
77,65,82560,480
70,55,82560,480
82,65,83040,240
86,71,83520,160
88,59,83680,160
85,70,83840,160
86,73,84001,160
88,76,84160,160
89,63,84320,160
81,72,84480,240
81,65,84960,480
76,70,85440,160
79,63,85600,160
83,53,85760,160
81,70,85920,160
79,60,86080,160
73,60,86240,160
81,70,86400,960
79,66,87360,160
83,59,87520,160
88,59,87680,160
86,66,87841,160
83,62,88000,160
79,56,88160,160
78,61,88320,120
81,66,88440,240
81,67,88800,480
76,64,89280,160
79,59,89440,160
83,53,89600,160
81,67,89760,160
79,59,89920,160
73,59,90080,160
74,67,90240,958
62,57,91200,120
64,52,91320,120
66,57,91440,120
67,53,91560,120
68,57,91680,120
69,52,91800,120
68,54,91920,120
69,57,92040,120
71,65,92160,480
67,55,92160,480
69,53,92640,240
62,39,92640,240
66,41,92640,240
74,64,93120,160
73,58,93280,160
71,58,93440,160
69,64,93600,160
67,58,93760,160
66,58,93920,160
69,64,94080,360
67,55,94440,120
64,61,94560,240
69,64,95040,120
71,58,95160,120
73,64,95280,120
74,59,95400,120
75,69,95520,120
76,58,95640,120
75,61,95760,120
76,64,95880,120
74,69,96000,120
76,58,96120,120
78,64,96240,120
79,59,96360,120
80,70,96480,120
81,58,96600,120
80,61,96720,120
81,64,96840,120
83,72,96960,120
81,66,97080,120
79,64,97200,120
78,63,97320,120
81,67,97440,120
79,64,97560,120
78,61,97680,120
76,59,97800,120
74,67,97920,960
67,73,98880,120
69,66,99000,120
71,73,99120,120
72,67,99240,120
73,79,99360,120
74,74,99480,120
73,76,99600,120
74,73,99720,120
78,84,99840,120
76,77,99960,120
74,74,100080,120
73,71,100200,120
76,80,100320,120
74,75,100440,120
73,71,100560,120
71,73,100680,120
69,82,100800,120
68,75,100920,120
66,73,101040,120
64,72,101160,120
63,77,101280,120
64,73,101400,120
66,70,101520,120
68,67,101640,120
73,76,101760,120
57,51,101880,120
59,57,102000,120
57,49,102120,120
59,56,102240,120
57,48,102360,120
59,47,102480,120
61,45,102600,120
62,57,102720,120
64,52,102840,120
66,57,102960,120
67,53,103080,120
68,57,103200,120
69,52,103320,120
68,54,103440,120
69,57,103560,120
71,65,103680,480
67,55,103680,480
66,41,104160,240
69,53,104160,240
62,39,104160,240
74,64,104640,160
73,58,104800,160
71,58,104960,160
69,64,105120,160
67,58,105280,160
66,58,105440,160
69,64,105600,360
67,55,105960,120
64,61,106080,240
69,64,106560,120
71,58,106680,120
73,64,106800,120
74,59,106920,120
75,69,107040,120
76,58,107160,120
75,61,107280,120
76,64,107400,120
74,69,107520,120
76,58,107640,120
78,64,107760,120
79,59,107880,120
80,70,108000,120
81,63,108120,120
80,66,108240,120
81,68,108360,120
90,75,108480,120
88,71,108600,120
86,67,108720,120
85,64,108840,120
88,73,108960,120
86,67,109080,120
85,64,109200,120
83,61,109320,120
81,76,109440,960
62,73,110400,120
64,66,110520,120
66,73,110640,120
67,67,110760,120
68,79,110880,120
69,74,111000,120
68,76,111120,120
69,73,111240,120
73,84,111360,120
71,77,111480,120
69,74,111600,120
68,71,111720,120
71,80,111840,120
69,75,111960,120
68,71,112080,120
66,73,112200,120
64,82,112320,120
66,75,112440,120
64,73,112560,120
66,72,112680,120
64,77,112800,120
62,73,112920,120
61,70,113040,120
59,67,113160,120
57,76,113280,120
61,51,113400,120
64,57,113520,120
68,49,113640,120
69,56,113760,120
71,48,113880,120
73,47,114000,120
74,45,114120,110
76,69,114240,120
78,58,114360,120
80,64,114480,120
81,59,114600,120
82,70,114720,120
83,63,114840,120
82,66,114960,120
83,68,115080,120
81,69,115200,120
83,58,115320,120
85,64,115440,120
86,59,115560,120
87,70,115680,120
88,63,115800,120
87,66,115920,120
88,68,116040,120
90,75,116160,120
88,65,116280,120
90,67,116400,120
88,64,116520,120
83,75,116640,120
80,67,116760,120
83,70,116880,120
80,65,117000,120
90,75,117120,120
88,65,117240,120
90,67,117360,120
88,64,117480,120
85,75,117600,120
81,67,117720,120
85,70,117840,120
81,65,117960,120
86,77,118080,120
83,64,118320,120
80,64,118560,120
76,64,118800,120
85,78,119040,120
81,67,119280,120
97,81,119520,120
93,75,119760,120
92,75,120000,120
90,65,120120,120
92,67,120240,120
90,64,120360,120
86,75,120480,120
83,67,120600,120
86,70,120720,120
83,65,120840,118
83,71,120960,120
81,61,121080,120
83,65,121200,120
81,61,121320,120
93,79,121440,120
81,69,121680,120
74,86,121920,120
76,73,121920,120
71,66,122160,120
76,56,122160,120
68,76,122400,120
76,64,122400,120
64,65,122640,120
76,55,122640,120
74,86,122880,120
76,73,122880,120
71,66,123120,120
76,56,123120,120
76,64,123360,120
68,76,123360,120
76,55,123600,120
64,65,123600,120
62,86,123840,120
64,73,123840,120
59,66,124080,120
64,56,124080,120
56,76,124320,120
64,64,124320,120
64,55,124560,120
52,65,124560,120
69,76,125760,120
71,70,125880,120
72,76,126000,120
74,71,126120,120
75,76,126240,120
76,75,126360,120
75,79,126480,120
76,82,126600,120
77,89,126720,480
74,75,126720,480
69,75,126720,720
72,67,127200,240
76,79,127200,240
69,75,127680,480
81,89,127680,480
72,75,127680,720
77,75,127680,480
76,67,128160,240
79,79,128160,240
67,67,128160,240
76,73,128640,120
72,73,128640,120
84,86,128640,120
83,72,128880,120
76,61,128880,120
71,61,128880,120
69,66,129120,120
81,78,129120,120
72,66,129120,120
79,70,129360,120
72,59,129360,120
67,59,129360,120
69,73,129600,120
77,86,129600,120
65,73,129600,120
76,70,129840,120
64,59,129840,120
69,59,129840,120
65,68,130080,120
69,68,130080,120
74,80,130080,120
72,70,130320,120
69,59,130320,120
66,59,130320,120
76,86,130560,480
68,73,130560,480
64,73,130560,480
71,73,130560,480
64,65,131520,120
66,59,131640,120
68,59,131760,120
69,61,131880,120
70,64,132000,120
71,59,132120,120
70,65,132240,120
71,59,132360,120
69,70,132480,120
71,64,132600,120
72,64,132720,120
74,64,132840,120
75,69,132960,120
76,64,133080,120
75,68,133200,120
76,64,133320,120
77,76,133440,120
76,69,133560,120
74,67,133680,120
72,66,133800,120
76,77,133920,120
74,69,134040,120
72,67,134160,120
71,65,134280,120
69,73,134400,120
71,65,134520,120
72,66,134640,120
74,68,134760,120
76,69,134880,120
78,70,135000,120
80,72,135120,120
81,73,135240,120
70,80,135360,120
82,96,135360,120
81,67,135600,120
69,56,135600,120
82,70,135840,120
70,60,135840,120
84,68,136080,120
72,57,136080,120
69,80,136320,120
81,96,136320,120
65,56,136560,120
77,67,136560,120
79,70,136800,120
67,60,136800,120
69,57,137040,120
81,68,137040,120
70,80,137280,120
82,96,137280,120
67,56,137520,120
79,67,137520,120
69,69,137760,120
81,91,137760,120
84,68,138000,120
72,57,138000,120
65,80,138240,120
77,96,138240,120
72,67,138480,120
69,70,138720,120
65,68,138960,110
69,68,139200,120
71,61,139320,120
73,61,139440,120
74,64,139560,120
75,67,139680,120
76,61,139800,120
75,68,139920,120
76,61,140040,120
74,73,140160,120
76,67,140280,120
77,67,140400,120
79,67,140520,120
80,72,140640,120
81,67,140760,120
80,71,140880,120
81,67,141000,120
82,76,141120,120
81,72,141240,120
79,70,141360,120
77,69,141480,120
81,77,141600,120
79,72,141720,120
77,70,141840,120
76,68,141960,120
74,76,142080,120
76,68,142200,120
77,69,142320,120
79,71,142440,120
81,72,142560,120
83,73,142680,120
85,75,142800,120
86,76,142920,120
87,105,143040,120
75,88,143040,120
86,70,143280,120
74,58,143280,120
75,63,143520,120
87,73,143520,120
77,59,143760,120
89,71,143760,120
74,88,144000,120
86,105,144000,120
82,70,144240,120
70,58,144240,120
84,73,144480,120
72,63,144480,120
86,71,144720,120
74,59,144720,120
87,105,144960,120
75,88,144960,120
84,70,145200,120
72,58,145200,120
86,95,145440,120
74,72,145440,120
89,71,145680,120
77,59,145680,120
74,84,145920,120
86,100,145920,120
82,70,146160,120
70,58,146160,120
72,63,146400,120
84,73,146400,120
87,71,146640,120
75,59,146640,120
72,79,146880,120
84,95,146880,120
69,58,147120,120
81,70,147120,120
82,95,147360,120
70,72,147360,120
74,59,147600,120
86,71,147600,120
86,73,147840,120
84,67,147960,120
82,67,148080,120
81,67,148200,120
84,72,148320,120
82,67,148440,120
81,71,148560,120
82,67,148680,120
84,76,148800,120
82,72,148920,120
81,70,149040,120
79,69,149160,120
82,77,149280,120
81,72,149400,120
79,70,149520,120
81,68,149640,120
82,73,149760,120
81,67,149880,120
79,67,150000,120
77,67,150120,120
81,72,150240,120
79,67,150360,120
77,71,150480,120
76,67,150600,120
79,76,150720,120
77,72,150840,120
76,70,150960,120
74,69,151080,120
77,77,151200,120
76,72,151320,120
74,70,151440,120
76,68,151560,120
77,73,151680,120
76,67,151800,120
74,67,151920,120
76,67,152040,120
74,72,152160,120
72,67,152280,120
71,71,152400,120
72,67,152520,120
71,76,152640,120
69,72,152760,120
68,70,152880,120
69,69,153000,120
68,77,153120,120
66,72,153240,120
64,70,153360,120
66,68,153480,120
68,73,153600,120
66,67,153720,120
64,67,153840,120
66,67,153960,120
68,72,154080,120
66,67,154200,120
64,71,154320,120
66,67,154440,120
68,76,154560,120
66,72,154680,120
64,70,154800,120
66,69,154920,120
68,77,155040,120
66,72,155160,120
64,70,155280,120
66,68,155400,120
64,77,155520,480
62,45,156480,120
64,54,156480,120
64,49,156720,120
59,41,156720,120
56,45,156960,120
64,54,156960,120
52,40,157200,120
64,48,157200,120
74,38,158400,120
76,45,158400,120
76,41,158640,120
71,34,158640,120
68,38,158880,120
76,45,158880,120
76,40,159120,120
64,34,159120,120
69,53,160320,120
71,49,160440,120
73,53,160560,120
74,49,160680,120
75,53,160800,120
76,52,160920,120
75,55,161040,120
76,57,161160,120
69,52,161280,720
74,52,161280,480
78,62,161280,480
73,46,161760,240
76,55,161760,240
81,64,162240,160
80,58,162400,160
78,58,162560,160
76,64,162720,160
74,58,162880,160
73,58,163040,160
76,64,163200,360
74,55,163560,120
71,61,163680,240
76,69,164161,120
78,58,164281,120
80,64,164401,120
81,59,164521,120
82,70,164641,120
83,63,164761,120
82,66,164881,120
83,68,165001,120
81,69,165121,120
83,58,165241,120
85,64,165361,120
86,59,165481,120
87,70,165601,120
88,63,165721,120
87,66,165841,120
88,68,165961,120
90,75,166081,120
88,59,166201,120
90,67,166321,120
88,59,166441,120
83,75,166561,120
80,58,166680,120
83,70,166801,120
80,59,166921,120
90,75,167041,120
88,60,167161,120
90,67,167281,120
88,61,167401,120
85,75,167521,120
81,67,167641,120
85,70,167761,120
81,65,167881,120
86,77,168001,120
83,64,168241,120
80,64,168481,120
76,64,168721,120
85,78,168961,120
81,67,169201,120
97,81,169441,120
93,75,169681,120
92,75,169921,120
90,57,170041,120
92,67,170161,120
90,59,170281,120
86,75,170401,120
83,61,170521,120
86,70,170641,120
83,59,170760,118
83,71,170881,120
81,61,171001,120
83,65,171121,120
81,61,171241,120
97,79,171360,120
93,69,171600,120
92,75,171841,120
90,59,171961,120
92,67,172081,120
90,59,172201,120
86,75,172321,120
83,67,172441,120
86,70,172561,120
83,65,172680,115
83,60,172801,120
81,48,172921,120
83,55,173041,120
81,47,173161,120
97,53,173280,120
100,63,173280,120
97,55,173520,120
93,46,173520,120
92,75,173761,120
90,60,173881,120
92,67,174001,120
90,60,174121,120
86,75,174241,120
83,67,174361,120
86,70,174481,120
83,65,174600,115
83,63,174721,120
81,54,174841,120
83,58,174961,120
81,54,175081,120
93,71,175201,120
81,69,175441,120
81,73,175680,120
79,86,175680,120
81,56,175920,120
76,56,175921,120
73,64,176160,120
81,64,176160,120
81,55,176400,120
69,65,176400,120
67,86,176640,120
69,73,176640,120
64,66,176880,120
69,56,176880,120
69,64,177120,120
61,76,177120,120
57,65,177360,120
69,55,177360,120
66,64,178800,120
68,63,178920,120
69,67,179040,120
71,52,179160,120
73,52,179280,120
74,52,179400,120
75,52,179520,120
76,49,179640,120
75,49,179760,120
76,49,179880,120
78,54,180000,120
80,52,180120,120
81,49,180240,120
83,47,180360,120
81,53,180480,120
83,43,180600,120
81,48,180720,120
83,45,180840,120
81,53,180961,120
83,43,181080,120
81,48,181200,120
83,43,181320,120
81,64,181440,120
83,41,181560,120
81,48,181680,120
83,41,181800,120
81,49,181920,120
83,43,182040,120
81,48,182160,120
83,43,182280,120
81,48,182400,120
83,50,182520,120
81,53,182640,120
83,56,182760,120
81,63,182881,120
83,63,183000,120
81,67,183120,120
83,70,183240,120
81,75,183360,120
83,72,183480,120
81,67,183600,120
83,63,183720,120
81,58,183840,120
83,54,183960,120
81,50,184080,120
78,46,184200,120
74,49,184320,240
74,44,184800,480
73,51,185280,120
71,41,185400,120
73,47,185520,120
74,43,185640,120
73,49,185760,120
74,42,185880,120
76,45,186000,120
73,49,186120,120
69,59,186240,240
74,55,186720,240
76,58,187200,120
79,47,187320,120
76,56,187440,120
79,48,187560,129
83,62,187680,120
81,48,187800,120
83,57,187920,120
81,50,188040,111
81,56,188160,240
81,60,188640,600
79,56,189240,120
81,58,189360,120
83,60,189480,120
85,66,189600,120
86,54,189720,120
85,62,189840,120
83,54,189960,120
81,60,190080,950
81,53,191040,120
83,40,191160,120
81,48,191280,120
83,39,191400,120
81,53,191520,120
83,37,191640,120
81,47,191760,120
78,44,191880,120
74,49,192000,240
74,44,192480,480
73,51,192960,120
71,45,193080,120
73,48,193200,120
74,50,193320,120
73,55,193440,120
74,54,193560,120
76,60,193680,120
77,65,193800,110
78,72,193920,960
79,56,194880,120
83,42,195000,120
79,45,195120,120
83,42,195240,120
88,65,195360,120
86,52,195480,120
83,55,195600,120
79,49,195720,120
78,64,195840,240
78,52,196320,240
76,54,196800,120
79,42,196920,120
76,50,197040,120
79,42,197160,120
83,56,197280,120
81,45,197400,120
79,51,197520,120
73,45,197640,120
74,58,197760,960
62,68,198720,120
66,58,198840,120
62,60,198960,120
66,58,199080,120
71,68,199200,120
69,58,199320,120
66,62,199440,120
62,58,199560,120
64,69,199680,240
57,58,199680,240
64,64,200160,470
57,54,200160,470
64,68,200640,120
67,58,200760,120
64,62,200880,120
67,58,201000,120
73,68,201120,120
71,58,201240,120
67,62,201360,120
64,58,201480,120
57,52,201600,960
66,62,201600,960
62,52,201600,960
74,75,202560,120
78,58,202680,120
74,62,202800,120
78,58,202920,120
83,68,203040,120
81,58,203160,120
78,62,203280,120
74,58,203400,120
73,75,203520,120
69,58,203640,120
73,61,203760,120
69,58,203880,120
78,68,204000,120
76,58,204120,120
73,62,204240,120
69,58,204360,120
68,75,204480,120
64,54,204600,120
68,62,204720,120
64,52,204840,120
68,68,204960,120
76,50,205080,120
74,58,205200,120
71,50,205320,120
69,68,205440,480
73,51,205920,240
76,61,205920,240
69,51,206400,240
73,51,206400,240
76,61,206400,240
73,51,206880,240
76,61,206880,240
78,65,207360,240
74,55,207360,240
76,56,207840,240
74,47,207840,240
71,47,207840,240
68,51,208320,240
76,61,208320,240
71,51,208320,240
76,61,208800,240
71,51,208800,240
74,51,208800,240
69,55,209280,240
73,55,209280,240
78,65,209280,240
73,47,209760,240
76,56,209760,240
69,47,209760,240
73,47,210240,240
69,47,210240,240
81,56,210240,240
76,47,210240,240
76,51,210720,240
81,61,210720,240
69,51,210720,240
73,51,210720,240
81,70,211200,240
74,59,211200,240
69,59,211200,240
74,51,211680,240
71,51,211680,240
83,61,211680,240
76,74,212160,240
73,63,212160,240
68,47,212640,240
74,47,212640,240
80,56,212640,240
76,47,212640,240
69,51,213120,478
76,51,213120,960
81,61,213120,960
73,51,213120,960
81,56,216000,120
83,53,216120,120
81,55,216240,120
83,53,216360,120
81,53,216480,120
83,49,216600,120
81,50,216720,120
78,45,216840,120
74,49,216960,240
74,44,217440,480
73,51,217920,120
71,41,218040,120
73,45,218160,120
74,43,218280,120
73,49,218400,120
74,42,218520,120
76,45,218640,120
73,49,218760,120
69,59,218880,240
74,55,219360,240
76,53,219840,120
79,47,219960,120
76,51,220080,120
79,48,220200,129
83,59,220320,120
81,48,220440,120
83,51,220560,120
81,47,220680,111
81,56,220800,240
81,60,221280,600
79,52,221880,120
81,54,222000,120
83,56,222120,120
85,61,222240,120
86,54,222360,120
85,56,222480,120
83,54,222600,120
81,60,222720,950
81,41,223680,120
82,32,223800,120
81,37,223920,120
82,33,224040,120
81,42,224160,120
82,34,224280,120
81,39,224400,120
77,34,224520,120
74,41,224640,240
74,37,225120,480
77,43,225600,120
69,37,225600,476
76,38,225720,120
77,41,225840,120
76,38,225960,120
69,37,226080,480
79,46,226080,120
77,45,226200,120
79,51,226320,120
77,55,226445,110
77,61,226560,480
70,37,226560,720
82,57,227040,240
86,56,227520,120
88,51,227640,120
86,58,227760,120
85,56,227880,120
86,65,228000,120
88,56,228120,120
89,55,228240,120
86,49,228355,120
81,64,228480,240
81,52,228960,960
76,54,229440,120
79,42,229560,120
76,48,229680,120
79,45,229800,120
83,56,229920,120
81,45,230040,120
79,51,230160,120
76,45,230280,120
81,58,230400,960
79,60,231360,120
83,51,231480,120
79,55,231600,120
83,58,231720,120
88,61,231840,120
86,56,231960,120
83,53,232080,120
79,50,232200,120
78,54,232320,120
81,60,232440,120
81,61,232800,480
76,53,233280,120
79,45,233400,120
76,49,233520,120
79,46,233640,120
83,59,233760,120
81,57,233880,120
79,55,234000,120
76,53,234120,120
74,57,234240,960
67,42,235200,216
74,50,235200,216
71,42,235200,216
71,38,235440,216
76,45,235440,216
67,38,235440,216
71,38,235680,216
67,38,235680,216
78,45,235680,216
71,38,235920,216
67,38,235920,216
79,45,235920,216
67,45,236160,216
79,53,236160,216
71,53,236160,216
71,41,236400,216
67,35,236400,216
71,44,236640,216
67,37,236640,216
71,41,236880,216
67,35,236880,216
67,44,237120,216
79,52,237120,216
70,44,237120,216
73,42,237360,216
70,36,237360,216
67,36,237360,216
67,38,237600,216
70,38,237600,216
73,45,237600,216
67,36,237840,216
73,42,237840,216
70,36,237840,216
67,48,238080,960
71,48,238080,960
74,57,238080,960
67,42,239040,216
71,42,239040,216
76,50,239040,216
74,45,239280,216
71,38,239280,216
67,38,239280,216
67,38,239520,216
71,45,239520,216
67,45,239760,216
62,45,240000,216
71,53,240000,216
67,53,240000,216
66,35,240240,240
69,41,240240,216
62,35,240240,216
69,44,240480,216
66,37,240480,240
62,37,240480,216
62,35,240720,216
66,35,240720,240
69,41,240720,216
67,44,240960,216
70,44,240960,216
76,52,240960,216
67,36,241200,216
73,42,241200,216
70,36,241200,216
67,38,241440,216
70,38,241440,216
73,45,241440,216
73,42,241680,216
70,36,241680,216
67,36,241680,216
74,57,241920,960
66,48,241920,960
69,48,241920,960
65,42,242880,216
74,50,242880,216
69,42,242880,216
69,39,243120,216
65,39,243120,216
74,47,243120,216
76,49,243360,216
69,41,243360,216
65,41,243360,216
77,51,243600,216
69,43,243600,216
77,53,243840,216
68,53,243840,216
64,45,243840,216
68,37,244080,240
71,44,244080,216
64,37,244080,216
68,37,244320,240
64,37,244320,216
71,44,244320,216
68,37,244560,240
71,44,244560,216
64,37,244560,216
64,44,244800,216
69,44,244800,216
72,52,244800,216
72,45,245040,216
69,38,245040,216
64,38,245040,216
64,39,245280,216
74,46,245280,216
69,39,245280,216
64,40,245520,216
67,40,245520,216
76,48,245520,216
66,53,245760,216
76,53,245760,216
62,45,245760,216
66,33,246000,240
62,33,246000,216
69,39,246000,216
62,37,246240,216
66,37,246240,240
69,44,246240,216
66,33,246480,240
69,39,246480,216
62,33,246480,216
62,44,246720,216
71,52,246720,216
67,44,246720,216
76,54,246960,216
67,45,246960,216
62,45,246960,216
62,43,247200,216
67,43,247200,216
74,51,247200,216
62,40,247440,216
71,48,247440,216
67,40,247440,216
66,53,247680,216
62,45,247680,216
74,53,247680,216
62,33,247920,216
66,33,247920,240
69,39,247920,216
66,33,248160,240
69,39,248160,216
62,33,248160,216
62,33,248400,216
66,33,248400,240
69,39,248400,216
71,52,248640,216
67,44,248640,216
62,44,248640,216
76,54,248880,216
67,45,248880,216
62,45,248880,216
74,51,249120,216
62,43,249120,216
67,43,249120,216
62,40,249360,216
67,40,249360,216
71,48,249360,216
66,39,249600,216
62,39,249600,216
74,47,249600,216
62,34,249840,216
66,34,249840,240
69,40,249840,216
69,30,250080,216
74,36,250080,216
66,30,250080,240
70,28,250320,216
74,33,250320,216
66,28,250320,240
71,37,250560,216
74,45,250560,216
67,37,250560,216
76,45,250800,216
71,38,250800,216
67,38,250800,216
71,38,251040,216
67,38,251040,216
78,45,251040,216
67,38,251280,216
79,45,251280,216
71,38,251280,216
71,53,251520,216
79,53,251520,216
67,45,251520,216
67,33,251760,216
71,39,251760,216
71,44,252000,216
67,37,252000,216
67,33,252240,216
71,39,252240,216
70,44,252480,216
67,44,252480,216
79,52,252480,216
67,34,252720,216
73,40,252720,216
70,34,252720,216
73,45,252960,216
67,38,252960,216
70,38,252960,216
67,38,253200,216
70,38,253200,216
73,45,253200,216
71,48,253440,960
74,57,253440,960
67,48,253440,960
67,51,254400,216
77,61,254400,216
71,51,254400,216
71,44,254640,216
76,52,254640,216
67,44,254640,216
67,48,254880,216
71,48,254880,240
77,57,254880,216
79,52,255120,216
71,44,255120,240
67,53,255360,216
77,63,255360,216
72,53,255360,216
72,43,255600,240
67,43,255600,216
76,52,255600,216
67,46,255840,240
74,55,255840,216
72,51,256080,216
64,42,256080,216
67,42,256080,240
62,50,256320,216
67,50,256320,216
72,59,256320,216
67,45,256560,216
71,53,256560,216
62,45,256560,216
62,47,256800,216
66,47,256800,216
74,56,256800,216
66,45,257040,216
62,45,257040,216
72,53,257040,216
62,51,257280,480
71,61,257280,480
67,51,257280,480
67,51,257760,240
71,51,257760,240
74,60,257760,240
76,62,258000,240
71,52,258000,240
67,52,258000,240
67,56,258240,216
71,56,258240,216
77,66,258240,216
67,52,258480,216
71,52,258480,216
76,62,258480,216
71,58,258720,216
67,58,258720,216
77,69,258720,120
81,65,258840,120
71,56,258960,216
79,66,258960,216
77,66,259200,216
72,56,259200,216
67,56,259200,216
67,43,259440,216
72,43,259440,240
76,51,259440,216
74,50,259680,216
67,42,259680,240
65,42,259680,216
72,52,259920,216
67,44,259920,240
64,44,259920,216
62,53,260160,216
72,63,260160,216
67,53,260160,216
67,45,260400,216
62,45,260400,216
71,54,260400,216
62,47,260640,216
72,56,260640,216
66,47,260640,216
66,45,260880,216
71,53,260880,216
62,45,260880,216
62,38,261120,960
59,45,261120,960
67,53,261120,960
58,71,262080,120
57,60,262200,120
55,61,262320,120
57,61,262440,120
58,71,262560,120
55,62,262680,120
58,62,262800,120
55,62,262920,110
67,82,263040,230
55,68,263280,120
55,68,263520,120
55,68,263760,120
60,64,264000,216
67,76,264000,240
63,64,264000,240
55,62,264240,120
55,62,264480,120
55,62,264720,120
67,76,264960,240
58,64,264960,240
62,64,264960,240
55,61,265200,120
55,61,265440,120
55,61,265680,120
62,56,265920,120
74,81,265920,120
68,56,265920,120
73,69,266040,120
71,72,266160,120
62,57,266160,120
68,57,266160,120
73,73,266280,120
68,59,266400,120
65,59,266400,120
74,86,266400,120
71,77,266520,120
74,78,266640,120
68,62,266640,120
65,62,266640,120
71,80,266760,120
78,95,266880,240
66,81,266880,240
71,81,266880,240
74,81,266880,240
66,71,267120,120
62,59,267120,120
62,59,267360,120
66,71,267360,120
66,71,267600,120
62,59,267600,120
67,60,267840,120
61,47,267840,120
66,50,267960,120
69,51,268080,120
61,47,268080,120
67,51,268200,120
66,60,268320,120
64,47,268320,120
66,52,268560,120
64,47,268560,120
71,73,268800,120
59,62,268800,120
66,62,268800,120
62,62,268800,120
62,63,269040,120
62,63,269280,120
57,63,269280,120
60,63,269280,120
66,75,269280,120
62,78,269520,120
62,69,269760,120
58,69,269760,120
67,81,269760,120
57,69,269880,120
55,70,270000,120
57,70,270120,120
58,81,270240,120
55,71,270360,120
58,71,270480,120
55,71,270600,110
67,82,270720,230
55,68,270960,120
55,68,271200,120
55,68,271440,120
60,67,271680,120
67,79,271680,120
63,67,271680,120
55,62,271920,120
55,62,272160,120
55,62,272400,120
58,64,272640,240
62,64,272640,240
67,76,272640,240
55,61,272880,120
55,61,273120,120
55,61,273360,120
77,89,273600,120
65,61,273600,120
71,61,273600,120
76,75,273720,120
65,62,273840,120
71,62,273840,120
74,79,273840,120
76,80,273960,120
71,64,274080,120
77,94,274080,120
68,64,274080,120
74,84,274200,120
77,85,274320,120
71,68,274320,120
68,68,274320,120
74,88,274440,120
69,81,274560,240
81,95,274560,240
74,81,274560,240
77,81,274560,240
69,78,274800,120
65,64,274800,120
69,78,275040,120
65,64,275040,120
69,78,275280,120
65,64,275280,120
70,60,275520,120
64,47,275520,120
69,51,275640,120
64,47,275760,120
72,51,275760,120
70,51,275880,120
67,47,276000,120
69,60,276000,120
67,47,276240,120
69,52,276240,120
74,73,276480,240
69,62,276480,240
65,62,276480,240
62,62,276480,238
62,63,276720,120
62,75,276960,120
62,78,277200,120
65,47,277440,470
69,60,277440,120
68,51,277560,120
70,53,277680,120
69,51,277800,110
65,47,277920,120
69,60,277920,120
69,52,278160,120
65,47,278160,120
64,59,278400,470
72,70,278400,240
67,53,278640,120
64,56,278880,120
67,66,278880,120
64,52,279120,120
67,62,279120,120
67,69,279360,470
70,69,279360,120
69,57,279480,120
72,57,279600,120
70,57,279720,110
70,69,279840,120
67,69,279840,120
67,49,280080,120
70,54,280080,120
74,73,280320,240
66,61,280320,470
69,55,280560,120
66,58,280800,120
69,69,280800,120
66,54,281040,120
69,65,281040,120
74,72,281280,120
70,72,281280,470
73,59,281400,120
76,62,281520,120
74,61,281640,110
74,72,281760,120
70,72,281760,120
70,51,282000,120
74,56,282000,120
69,64,282240,470
77,76,282240,240
72,57,282480,120
72,72,282720,120
69,60,282720,120
72,68,282960,120
69,56,282960,120
67,64,283200,470
79,79,283200,240
76,63,283440,120
72,72,283680,120
67,60,283680,120
70,68,283920,120
67,56,283920,120
70,68,284160,120
65,68,284160,470
69,53,284280,120
74,56,284400,120
72,55,284520,110
72,68,284640,120
65,57,284640,120
72,53,284880,120
64,48,284880,120
72,72,285120,240
62,60,285120,230
70,54,285360,120
62,48,285360,120
58,57,285600,120
67,68,285600,120
64,57,285600,120
69,64,285840,120
64,53,285840,120
60,53,285840,120
57,68,286080,470
65,68,286080,120
64,52,286200,120
67,56,286320,120
65,52,286440,110
57,57,286560,120
65,68,286560,120
57,48,286800,120
65,53,286800,120
57,64,287040,120
62,64,287040,120
60,64,287040,120
66,76,287040,120
66,71,287280,120
60,60,287280,120
57,60,287280,120
62,60,287280,120
60,59,287520,120
62,59,287520,120
57,59,287520,120
66,70,287520,120
66,70,287760,120
62,59,287760,120
60,59,287760,120
57,59,287760,120
62,58,288000,120
66,58,288000,120
74,69,288000,120
69,58,288000,120
69,53,288240,120
66,53,288240,120
74,63,288240,120
62,53,288240,120
74,63,288480,120
62,53,288480,120
66,53,288480,120
69,53,288480,120
62,53,288720,120
66,53,288720,120
74,63,288720,120
69,53,288720,120
58,81,288960,120
57,68,289080,120
55,70,289200,120
57,70,289320,120
58,81,289440,120
55,71,289560,120
58,71,289680,120
55,71,289800,110
67,82,289920,230
55,68,290160,120
55,68,290400,120
55,68,290640,120
60,67,290880,120
63,67,290880,120
67,79,290880,120
55,62,291120,120
55,62,291360,120
55,62,291600,120
67,76,291840,240
62,64,291840,240
58,64,291840,240
55,61,292080,120
55,61,292320,120
55,61,292560,120
62,56,292800,470
74,81,292800,120
68,56,292800,470
73,69,292920,120
71,72,293040,120
73,73,293160,120
74,86,293280,120
65,59,293280,120
68,59,293280,120
71,77,293400,120
68,62,293520,120
74,78,293520,120
65,62,293520,120
71,80,293640,120
71,81,293760,240
66,81,293760,238
74,81,293760,240
78,95,293760,240
62,59,294000,120
66,71,294000,120
62,59,294240,120
66,71,294240,120
62,59,294480,120
66,71,294480,120
67,60,294720,120
61,47,294720,120
66,51,294840,120
69,51,294960,120
61,47,294960,120
67,51,295080,120
64,47,295200,120
66,60,295200,120
66,52,295440,120
64,47,295440,120
66,62,295680,240
71,73,295680,240
62,62,295680,238
59,62,295680,240
62,63,295920,120
62,63,296160,120
66,75,296160,120
57,63,296160,120
60,63,296160,120
62,78,296400,120
58,69,296640,120
62,69,296640,120
67,81,296640,120
57,69,296760,120
55,70,296880,120
57,70,297000,120
58,81,297120,120
55,71,297240,120
58,71,297360,120
55,71,297480,120
67,82,297600,230
55,68,297840,120
55,68,298080,120
55,68,298320,120
63,67,298560,120
67,79,298560,120
60,67,298560,120
55,62,298800,120
55,62,299040,120
55,62,299280,120
62,64,299520,240
67,76,299520,240
58,64,299520,240
55,61,299760,120
55,61,300000,120
55,61,300240,120
65,61,300480,470
71,61,300480,470
77,89,300480,120
76,75,300600,120
74,79,300720,120
76,80,300840,120
68,64,300960,120
77,94,300960,120
71,64,300960,120
74,84,301080,120
77,85,301200,120
71,68,301200,120
68,68,301200,120
74,88,301320,118
81,95,301440,240
74,81,301440,240
69,81,301440,230
77,81,301440,240
69,78,301680,120
65,64,301680,120
65,64,301920,120
69,78,301920,120
65,64,302160,120
69,78,302160,120
81,97,302400,120
75,67,302400,470
69,67,302400,470
80,82,302520,120
78,86,302640,120
80,88,302760,120
75,70,302880,120
81,103,302880,120
71,70,302880,120
78,92,303000,120
71,74,303120,120
75,74,303120,120
81,93,303120,120
78,96,303240,120
78,89,303360,240
73,89,303360,230
85,104,303360,240
81,89,303360,240
69,64,303600,120
73,78,303600,120
73,78,303840,120
69,64,303840,120
69,64,304080,120
73,78,304080,120
68,47,304320,470
74,60,304320,120
73,49,304440,120
76,51,304560,120
74,48,304680,110
73,60,304800,120
71,47,304800,120
71,47,305040,120
73,52,305040,120
78,61,305280,120
66,51,305280,120
69,51,305280,120
73,51,305280,120
66,43,305520,120
69,43,305520,120
73,51,305520,120
66,43,305760,120
69,43,305760,120
73,51,305760,120
73,51,306000,120
66,43,306000,120
69,43,306000,120
78,61,306240,120
66,51,306240,120
69,51,306240,120
73,51,306240,120
69,43,306480,120
73,51,306480,120
66,43,306480,120
73,51,306720,120
69,43,306720,120
66,43,306720,120
69,43,306960,120
66,43,306960,120
73,51,306960,120
74,51,307200,240
72,51,307200,240
66,51,307200,240
69,51,307200,240
78,61,307200,240
74,50,307440,216
72,42,307440,216
66,42,307440,216
69,42,307440,216
74,49,307680,120
72,41,307680,120
66,41,307680,120
69,41,307680,120
69,40,307920,120
72,40,307920,120
74,48,307920,120
66,40,307920,120
72,47,308160,240
74,47,308160,240
66,47,308160,240
78,56,308160,240
69,47,308160,240
74,46,308400,216
72,39,308400,216
66,39,308400,216
69,39,308400,216
74,45,308640,120
66,38,308640,120
69,38,308640,120
72,38,308640,120
72,37,308880,120
69,37,308880,120
66,37,308880,120
74,44,308880,120
72,43,309120,240
74,43,309120,238
69,43,309120,238
66,43,309120,238
78,51,309120,240
69,34,309360,216
66,34,309360,216
74,40,309360,216
74,38,309600,120
71,32,309600,120
67,32,309600,120
69,30,309840,120
74,35,309840,120
72,30,309840,120
71,42,310080,216
67,42,310080,216
74,50,310080,216
76,45,310320,216
71,38,310320,216
67,38,310320,216
71,38,310560,216
78,45,310560,216
67,38,310560,216
79,45,310800,216
67,38,310800,216
71,38,310800,216
71,53,311040,216
67,45,311040,216
79,53,311040,216
67,35,311280,216
71,41,311280,216
67,37,311520,216
71,44,311520,216
71,41,311760,216
67,35,311760,216
67,44,312000,216
79,52,312000,216
70,44,312000,216
73,42,312240,216
67,36,312240,216
70,36,312240,216
67,38,312480,216
73,45,312480,216
70,38,312480,216
73,42,312720,216
70,36,312720,216
67,36,312720,216
71,48,312960,960
74,57,312960,960
67,48,312960,960
71,42,313920,216
67,42,313920,216
76,50,313920,216
74,45,314160,216
71,38,314160,216
67,38,314160,216
67,38,314400,216
71,45,314400,216
67,45,314640,216
67,53,314880,216
71,53,314880,216
62,45,314880,216
69,41,315120,216
62,35,315120,216
66,35,315120,240
66,37,315360,240
62,37,315360,216
69,44,315360,216
66,35,315600,240
69,41,315600,216
62,35,315600,216
76,52,315840,216
70,44,315840,216
67,44,315840,216
73,42,316080,216
67,36,316080,216
70,36,316080,216
70,38,316320,216
73,45,316320,216
67,38,316320,216
70,36,316560,216
73,42,316560,216
67,36,316560,216
74,57,316800,960
66,48,316800,960
69,48,316800,960
74,50,317760,216
69,42,317760,216
65,42,317760,216
69,39,318000,216
65,39,318000,216
74,47,318000,216
69,41,318240,216
65,41,318240,216
76,49,318240,216
69,43,318480,216
77,51,318480,216
68,53,318720,216
77,53,318720,216
64,45,318720,216
68,35,318960,240
64,35,318960,216
71,41,318960,216
68,37,319200,240
71,44,319200,216
64,37,319200,216
68,35,319440,240
64,35,319440,216
71,41,319440,216
64,44,319680,216
69,44,319680,216
72,52,319680,216
72,45,319920,216
64,38,319920,216
69,38,319920,216
74,45,320160,216
64,38,320160,216
69,38,320160,216
76,45,320400,216
64,38,320400,216
67,38,320400,216
66,53,320640,216
76,53,320640,216
62,45,320640,216
62,35,320880,216
69,41,320880,216
66,35,320880,240
62,37,321120,216
66,37,321120,240
69,44,321120,216
62,35,321360,216
66,35,321360,240
69,41,321360,216
71,52,321600,216
67,44,321600,216
62,44,321600,216
62,45,321840,216
76,54,321840,216
67,45,321840,216
67,43,322080,216
74,51,322080,216
62,43,322080,216
62,40,322320,216
67,40,322320,216
71,48,322320,216
66,53,322560,216
62,45,322560,216
74,53,322560,216
69,41,322800,216
62,35,322800,216
66,35,322800,240
62,37,323040,216
69,44,323040,216
66,37,323040,240
66,35,323280,240
69,41,323280,216
62,35,323280,216
71,52,323520,216
62,44,323520,216
67,44,323520,216
62,45,323760,216
76,54,323760,216
67,45,323760,216
74,51,324000,216
67,43,324000,216
62,43,324000,216
62,40,324240,216
67,40,324240,216
71,48,324240,216
66,39,324480,216
74,47,324480,216
62,39,324480,216
66,34,324720,240
62,34,324720,216
69,40,324720,216
74,36,324960,216
66,30,324960,240
69,30,324960,216
66,28,325200,240
74,33,325200,216
70,28,325200,216
71,37,325440,216
74,45,325440,216
67,37,325440,216
76,45,325680,216
67,38,325680,216
71,38,325680,216
78,45,325920,216
71,38,325920,216
67,38,325920,216
67,38,326160,216
79,45,326160,216
71,38,326160,216
71,53,326400,216
67,45,326400,216
79,53,326400,216
67,35,326640,216
71,41,326640,216
67,37,326880,216
71,44,326880,216
67,35,327120,216
71,41,327120,216
79,52,327360,216
67,44,327360,216
70,44,327360,216
67,38,327600,216
70,38,327600,216
73,45,327600,216
70,38,327840,216
67,38,327840,216
73,45,327840,216
67,38,328080,216
73,45,328080,216
70,38,328080,216
74,57,328320,960
71,48,328320,960
67,48,328320,960
71,51,329280,216
77,61,329280,216
67,51,329280,216
67,44,329520,216
71,44,329520,216
76,52,329520,216
77,57,329760,216
67,48,329760,216
71,48,329760,240
71,44,330000,240
79,52,330000,216
77,63,330240,216
72,53,330240,216
67,53,330240,216
72,46,330480,240
76,55,330480,216
67,46,330480,216
67,46,330720,240
74,55,330720,216
64,45,330960,216
67,45,330960,240
72,54,330960,216
62,50,331200,216
67,50,331200,216
72,59,331200,216
67,45,331440,216
62,45,331440,216
71,53,331440,216
74,56,331680,216
62,47,331680,216
66,47,331680,216
72,53,331920,216
66,45,331920,216
62,45,331920,216
71,61,332160,480
67,51,332160,480
62,51,332160,480
71,51,332640,240
74,60,332640,240
67,51,332640,240
67,52,332880,240
71,52,332880,240
76,62,332880,240
71,56,333120,216
67,56,333120,216
77,66,333120,216
71,52,333360,216
67,52,333360,216
76,62,333360,216
77,69,333600,120
71,58,333600,216
67,58,333600,216
81,65,333720,120
71,56,333840,216
79,66,333840,216
67,56,334080,216
77,66,334080,216
72,56,334080,216
67,43,334320,216
76,51,334320,216
72,43,334320,240
74,50,334560,216
67,42,334560,240
65,42,334560,216
67,44,334800,240
64,44,334800,216
72,52,334800,216
67,53,335040,216
72,63,335040,216
62,53,335040,216
62,45,335280,216
71,54,335280,216
67,45,335280,216
62,47,335520,216
72,56,335520,216
66,47,335520,216
66,45,335760,216
62,45,335760,216
71,53,335760,216
59,45,336000,710
62,38,336000,710
67,53,336000,710
62,41,336720,240
59,41,336720,216
71,49,336720,216
71,59,336960,216
60,50,336960,216
62,50,336960,216
60,42,337200,216
62,42,337200,216
72,51,337200,216
62,44,337440,216
69,53,337440,216
60,44,337440,216
60,39,337680,216
62,39,337680,216
69,47,337680,216
59,50,337920,216
69,59,337920,216
62,50,337920,216
59,42,338160,216
62,42,338160,216
71,51,338160,216
67,53,338400,216
62,44,338400,216
59,44,338400,216
67,47,338640,216
59,39,338640,216
62,39,338640,216
62,50,338880,216
60,50,338880,216
67,59,338880,216
62,42,339120,216
60,42,339120,216
66,51,339120,216
69,44,339360,216
66,44,339360,216
76,65,339360,216
74,60,339600,216
66,42,339600,216
69,42,339600,216
71,38,339840,710
67,45,339840,710
74,59,339840,710
62,41,340560,240
59,41,340560,216
71,49,340560,216
62,50,340800,216
60,50,340800,216
71,59,340800,216
72,51,341040,216
62,42,341040,216
60,42,341040,216
69,53,341280,216
60,44,341280,216
62,44,341280,216
60,39,341520,216
62,39,341520,216
69,47,341520,216
69,59,341760,216
62,50,341760,216
59,50,341760,216
62,42,342000,216
59,42,342000,216
71,51,342000,216
67,53,342240,216
59,44,342240,216
62,44,342240,216
59,39,342480,216
62,39,342480,216
67,47,342480,216
67,59,342720,216
62,50,342720,216
60,50,342720,216
66,51,342960,216
60,42,342960,216
62,42,342960,216
62,44,343200,216
60,44,343200,216
71,57,343200,216
69,54,343440,216
60,42,343440,216
62,42,343440,216
59,45,343680,960
67,53,343680,960
62,38,343680,960
58,49,344640,120
57,42,344760,120
55,42,344880,120
57,42,345000,120
58,49,345120,120
55,43,345240,120
58,43,345360,120
55,43,345480,120
58,49,345600,120
57,42,345720,120
55,42,345840,120
57,42,345960,120
58,49,346080,120
55,43,346200,120
58,43,346320,120
55,43,346440,120
64,44,346560,240
61,44,346560,216
67,44,346560,240
70,53,346560,240
69,43,346800,120
64,36,346800,120
61,36,346800,120
67,36,346800,120
61,36,347040,120
64,36,347040,120
67,36,347040,120
69,43,347040,120
64,36,347280,120
61,36,347280,120
67,36,347280,120
69,43,347280,120
67,44,347520,960
61,44,347520,960
69,53,347520,960
64,44,347520,960
58,49,348480,120
57,41,348600,120
55,42,348720,120
57,41,348840,120
58,49,348960,120
55,41,349080,120
58,43,349200,120
55,41,349320,120
58,49,349440,120
57,41,349560,120
55,42,349680,120
57,40,349800,120
58,49,349920,120
55,41,350040,120
58,43,350160,120
55,41,350280,120
64,44,350400,240
70,53,350400,240
61,44,350400,216
67,44,350400,240
69,43,350640,120
61,36,350640,120
67,36,350640,120
64,36,350640,120
67,36,350880,120
61,36,350880,120
69,43,350880,120
64,36,350880,120
69,43,351120,120
61,36,351120,120
64,36,351120,120
67,36,351120,120
64,44,351360,1910
69,53,351360,1910
61,44,351360,1910
67,44,351360,1910
69,43,353280,120
57,37,353400,120
61,37,353520,120
64,38,353640,120
69,43,353760,120
57,38,353880,120
69,39,354000,120
57,39,354120,120
73,43,354240,120
61,39,354360,120
64,39,354480,120
69,40,354600,120
73,45,354720,120
61,40,354840,120
73,40,354960,120
61,41,355080,120
76,47,355200,120
64,41,355320,120
69,41,355440,120
73,42,355560,120
76,49,355680,120
64,44,355800,120
76,45,355920,120
64,46,356040,120
81,53,356160,120
69,46,356280,120
73,48,356400,120
76,46,356520,120
81,53,356640,120
69,45,356760,120
81,47,356880,120
69,46,357000,120
81,53,357120,120
69,45,357240,120
75,48,357360,120
78,47,357480,120
81,53,357600,120
69,45,357720,120
81,47,357840,120
69,45,357960,120
81,53,358080,120
69,46,358200,120
76,48,358320,120
79,47,358440,120
81,53,358560,120
69,45,358680,120
81,47,358800,120
69,45,358920,120
81,53,359040,120
69,46,359160,120
76,48,359280,120
79,46,359400,120
81,53,359520,120
69,45,359640,120
81,47,359760,120
69,46,359880,120
81,53,360000,120
73,45,360120,120
81,47,360240,120
73,45,360360,120
81,53,360480,120
76,45,360600,120
81,47,360720,120
76,45,360840,120
81,58,360960,120
79,47,361080,120
81,49,361200,120
79,48,361320,120
81,58,361440,120
80,48,361560,120
81,52,361680,120
80,50,361800,120
83,59,361920,120
81,50,362040,120
83,54,362160,120
81,51,362280,120
83,63,362400,120
81,51,362520,120
83,56,362640,120
81,51,362760,120
83,61,362880,120
81,55,363000,120
83,56,363120,120
81,57,363240,120
83,66,363360,120
81,60,363480,120
83,60,363600,120
81,61,363720,120
83,70,363840,120
81,58,363960,120
86,57,364080,120
81,56,364200,120
80,62,364320,120
83,55,364440,120
81,53,364560,120
78,52,364680,120
74,49,364800,240
76,49,365040,120
74,35,365160,120
76,48,365280,120
74,34,365400,120
78,48,365520,120
76,36,365640,120
74,51,365760,120
73,44,365880,120
71,46,366000,120
69,43,366120,120
71,49,366240,120
73,45,366360,120
74,47,366480,120
76,49,366600,120
69,54,366720,240
71,54,366960,120
69,37,367080,120
71,54,367200,120
69,45,367320,120
78,60,367440,120
74,48,367560,120
73,53,367680,120
74,50,367800,120
76,53,367920,120
78,51,368040,120
79,59,368160,120
81,55,368280,120
83,64,368400,120
81,57,368520,111
81,63,368640,240
83,56,368880,120
81,43,369000,120
83,56,369120,120
81,45,369240,120
86,60,369360,120
85,43,369480,120
83,53,369600,30
85,53,369630,30
83,61,369660,60
82,56,369720,120
83,61,369840,120
85,56,369960,120
83,61,370080,120
91,67,370200,120
90,61,370320,120
86,57,370440,120
81,70,370560,240
83,66,370800,120
81,47,370920,120
83,66,371040,120
81,47,371160,120
83,68,371280,120
81,49,371400,120
83,69,371520,120
81,56,371640,120
86,63,371760,120
81,47,371880,120
80,61,372000,120
83,54,372120,120
81,59,372240,120
78,51,372360,120
74,49,372480,240
76,49,372720,120
74,35,372840,120
76,50,372960,120
74,35,373080,120
78,54,373200,120
76,40,373320,120
74,51,373440,120
73,45,373560,120
71,51,373680,120
69,46,373800,120
71,56,373920,120
73,58,374040,120
74,61,374160,120
76,63,374280,110
78,66,374400,240
77,62,374640,120
78,52,374760,120
77,62,374880,120
78,45,375000,120
77,62,375120,120
78,45,375240,120
79,62,375360,120
83,57,375480,120
88,67,375600,120
86,54,375720,120
85,62,375840,120
83,54,375960,120
81,52,376080,120
79,52,376200,120
78,58,376320,240
81,54,376560,120
78,41,376680,120
81,55,376800,120
78,41,376920,120
81,56,377040,120
78,46,377160,120
76,54,377280,120
78,50,377400,120
79,54,377520,120
83,60,377640,120
81,57,377760,120
79,49,377880,120
78,57,378000,120
76,46,378120,120
74,49,378240,240
76,49,378480,120
74,33,378600,120
76,49,378720,120
74,34,378840,120
76,48,378960,120
74,40,379080,120
62,61,379200,120
64,52,379320,120
66,55,379440,120
71,52,379560,120
69,61,379680,120
66,52,379800,120
64,55,379920,120
62,52,380040,120
64,62,380160,240
66,59,380400,120
64,44,380520,120
66,57,380640,120
64,44,380760,120
66,57,380880,120
64,44,381000,120
64,57,381120,120
66,52,381240,120
67,52,381360,120
73,60,381480,120
71,61,381600,120
69,49,381720,120
67,55,381840,120
64,49,381960,120
66,58,382080,240
65,51,382320,120
66,39,382440,120
65,51,382560,120
66,40,382680,120
69,51,382800,120
73,56,382920,120
74,63,383040,120
76,59,383160,120
78,64,383280,120
83,69,383400,120
81,65,383520,120
78,56,383640,120
76,60,383760,120
74,56,383880,120
73,67,384000,120
71,55,384120,120
69,58,384240,120
78,67,384360,120
76,61,384480,120
73,55,384600,120
71,60,384720,120
69,52,384840,120
68,67,384960,120
66,52,385080,120
64,62,385200,120
68,52,385320,120
76,64,385440,120
74,55,385560,120
73,59,385680,120
71,52,385800,120
69,61,385920,240
71,61,386160,120
69,53,386280,120
76,60,386400,120
73,51,386400,120
76,56,386640,120
73,47,386640,120
69,38,386880,120
73,38,386880,120
76,54,386880,120
76,51,387120,120
69,43,387120,120
73,43,387120,120
73,49,387360,120
76,58,387360,120
73,47,387600,120
76,56,387600,120
71,49,387840,120
74,49,387840,120
78,58,387840,120
78,53,388080,120
71,45,388080,120
74,45,388080,120
74,47,388320,120
71,47,388320,120
76,56,388320,120
74,45,388560,120
76,53,388560,120
71,45,388560,120
71,48,388800,120
68,48,388800,120
76,57,388800,120
71,41,389040,120
68,41,389040,120
76,49,389040,120
74,46,389280,120
76,55,389280,120
71,46,389280,120
76,50,389520,120
74,42,389520,120
71,42,389520,120
78,58,389760,120
73,49,389760,120
69,49,389760,120
73,45,390000,120
69,45,390000,120
78,53,390000,120
69,45,390240,120
76,53,390240,120
73,45,390240,120
69,42,390480,120
73,42,390480,120
76,50,390480,120
73,45,390720,120
81,54,390720,120
76,45,390720,120
69,45,390720,120
69,41,390960,120
73,41,390960,120
81,49,390960,120
76,41,390960,120
81,57,391200,120
69,48,391200,120
76,48,391200,120
73,48,391200,120
69,46,391440,120
73,46,391440,120
81,55,391440,120
76,46,391440,120
74,45,391680,120
81,63,391680,120
69,45,391680,120
74,51,391920,120
81,61,391920,120
69,51,391920,120
71,52,392160,120
74,52,392160,120
83,62,392160,120
74,46,392400,120
83,55,392400,120
71,46,392400,120
76,67,392640,120
73,56,392640,120
76,61,392880,120
73,51,392880,120
76,51,393120,120
68,51,393120,120
80,60,393120,120
74,51,393120,120
68,44,393360,120
80,52,393360,120
74,44,393360,120
76,44,393360,120
73,50,393600,960
81,59,393600,960
69,50,393600,478
76,50,393600,960
83,65,396480,120
81,53,396600,120
86,57,396720,120
81,56,396840,120
80,62,396960,120
83,55,397080,120
81,53,397200,120
78,52,397320,120
74,49,397440,240
76,49,397680,120
74,35,397800,120
76,49,397920,120
74,33,398040,120
78,48,398160,120
76,41,398280,120
74,51,398400,120
73,44,398520,120
71,46,398640,120
69,45,398760,120
71,49,398880,120
73,45,399000,120
74,47,399120,120
76,49,399240,120
69,54,399360,240
71,54,399600,120
69,39,399720,120
71,54,399840,120
69,45,399960,120
78,60,400080,120
74,48,400200,120
73,53,400320,120
74,50,400440,120
76,53,400560,120
78,51,400680,120
79,59,400800,120
81,53,400920,120
83,64,401040,120
81,57,401160,111
81,63,401280,240
83,56,401520,120
81,48,401640,120
83,55,401760,120
81,46,401880,120
86,60,402000,120
85,52,402120,120
83,48,402240,30
85,47,402270,30
83,61,402300,60
82,56,402360,120
83,61,402480,120
85,56,402600,120
83,61,402720,120
91,67,402840,120
86,61,402960,120
83,57,403080,120
81,70,403200,240
83,66,403440,120
81,54,403560,120
83,67,403680,120
81,53,403800,120
83,68,403920,120
81,63,404040,120
82,58,404160,120
81,42,404280,120
86,53,404400,120
81,43,404520,120
80,51,404640,120
82,43,404760,120
81,50,404880,120
77,43,405000,120
74,41,405120,240
76,41,405360,120
74,33,405480,120
76,42,405600,120
74,31,405720,120
76,45,405840,120
74,34,405960,120
79,43,406080,120
77,38,406200,120
76,44,406320,120
77,41,406440,120
79,51,406560,120
81,54,406680,120
82,58,406800,120
84,61,406920,110
86,66,407040,240
85,62,407280,120
86,50,407400,120
85,62,407520,120
86,48,407640,120
88,62,407760,120
86,53,407880,120
88,62,408000,120
86,60,408120,120
89,67,408240,120
88,60,408360,120
86,69,408480,120
88,66,408600,120
89,68,408720,120
92,71,408840,120
93,74,408960,360
90,61,409320,120
93,69,409440,120
90,54,409560,120
93,64,409680,120
90,56,409800,120
88,62,409920,120
90,57,410040,120
91,62,410160,120
95,69,410280,120
93,65,410400,120
91,56,410520,120
90,65,410640,120
88,57,410760,120
93,74,410880,360
90,61,411240,120
93,69,411360,120
90,54,411480,120
86,64,411600,120
85,56,411720,120
83,62,411840,120
86,56,411960,120
91,60,412080,120
90,65,412200,120
88,60,412320,120
86,50,412440,120
85,57,412560,120
83,49,412680,120
81,55,412800,360
78,45,413160,120
81,51,413280,120
78,40,413400,120
81,48,413520,120
78,42,413640,120
76,46,413760,120
78,42,413880,120
79,46,414000,120
83,51,414120,120
81,48,414240,120
79,42,414360,120
78,48,414480,120
76,42,414600,120
81,55,414720,360
78,45,415080,120
81,51,415200,120
78,40,415320,120
74,48,415440,120
73,42,415560,120
71,46,415680,120
74,42,415800,120
79,46,415920,120
78,51,416040,120
76,48,416160,120
74,42,416280,120
73,48,416400,120
71,42,416520,120
69,55,416640,360
90,49,417000,120
93,56,417120,120
90,44,417240,120
93,52,417360,120
90,46,417480,120
88,50,417600,120
90,46,417720,120
91,50,417840,120
95,56,417960,120
93,52,418080,120
91,46,418200,120
90,52,418320,120
88,46,418440,120
93,60,418560,360
90,49,418920,120
93,56,419040,120
90,44,419160,120
86,52,419280,120
85,46,419400,120
83,50,419520,120
86,46,419640,120
91,50,419760,120
90,55,419880,120
88,51,420000,120
86,45,420120,120
85,50,420240,120
83,45,420360,120
81,53,420480,360
78,43,420840,120
81,48,420960,120
78,38,421080,120
81,45,421200,120
78,39,421320,120
76,43,421440,120
78,39,421560,120
79,43,421680,120
83,47,421800,120
81,44,421920,120
79,39,422040,120
78,44,422160,120
76,38,422280,120
81,50,422400,360
78,40,422760,120
81,45,422880,120
78,36,423000,120
81,42,423120,120
78,37,423240,120
76,40,423360,120
78,36,423480,120
79,40,423600,120
83,44,423720,120
81,41,423840,120
79,36,423960,120
78,41,424080,120
76,36,424200,120
74,44,424320,240
76,44,424560,120
74,36,424680,120
76,41,424800,120
74,36,424920,120
73,43,425040,120
71,39,425160,120
69,44,425280,240
71,44,425520,120
69,36,425640,120
71,44,425760,120
69,40,425880,120
78,47,426000,120
76,39,426120,120
74,44,426240,240
76,43,426480,120
74,36,426600,120
76,40,426720,120
74,36,426840,120
73,43,426960,120
71,39,427080,120
69,44,427200,240
71,44,427440,120
69,36,427560,120
71,44,427680,120
69,40,427800,120
78,42,427920,120
76,40,428040,120
74,44,428160,120
86,36,428280,120
88,44,428400,120
86,36,428520,120
88,44,428640,120
86,36,428760,120
85,43,428880,120
83,39,429000,120
81,44,429120,240
83,44,429360,120
81,36,429480,120
83,44,429600,120
81,40,429720,120
90,42,429840,120
88,40,429960,120
86,44,430080,240
88,44,430320,120
86,36,430440,120
88,44,430560,120
86,36,430680,120
85,43,430800,120
83,39,430920,120
81,44,431040,240
83,44,431280,120
81,36,431400,120
83,44,431520,120
81,40,431640,120
90,42,431760,120
88,40,431880,120
86,44,432000,240
90,44,432240,120
86,36,432360,120
90,44,432480,120
86,36,432600,120
90,43,432720,120
86,39,432840,120
90,44,432960,240
93,44,433200,120
90,36,433320,120
93,44,433440,120
90,40,433560,120
93,42,433680,120
90,39,433800,120
93,44,433920,240
98,49,434160,120
93,36,434280,120
98,49,434400,120
93,36,434520,120
98,43,434640,120
93,39,434760,120
98,47,434880,120
93,39,435000,120
98,44,435120,120
93,36,435240,120
98,44,435360,120
93,40,435480,120
90,42,435600,120
93,37,435720,120
98,47,435840,240
90,39,435840,240
98,44,436320,120
93,36,436440,120
90,43,436560,120
93,39,436680,120
90,34,436800,240
98,44,436800,240
98,44,437280,120
93,40,437400,120
90,44,437520,120
93,39,437640,120
98,45,437760,240
90,38,437760,240
81,38,438720,360
83,34,439080,120
81,38,439200,360
78,34,439560,120
74,38,439680,360
62,27,440640,360
66,27,440640,360
74,32,440640,360
62,27,441600,960
66,27,441600,960
74,32,441600,960
62,34,0,180
66,40,0,180
66,32,480,180
57,27,480,180
62,34,960,180
66,40,960,180
66,34,1440,180
57,28,1440,180
62,34,1920,180
66,40,1920,180
66,34,2400,180
57,28,2400,180
66,40,2880,240
62,34,2880,240
66,37,3360,240
57,31,3360,240
62,34,3840,240
66,40,3840,240
57,29,4320,240
66,35,4320,240
64,34,4800,240
67,40,4800,240
67,35,5280,240
57,29,5280,240
62,34,5760,240
66,40,5760,240
66,34,6240,240
57,28,6240,240
67,40,6720,240
61,34,6720,240
57,30,7200,240
67,36,7200,240
62,34,7680,240
66,40,7680,240
57,29,8160,240
66,35,8160,240
67,40,8640,240
62,34,8640,240
55,34,8640,240
67,35,9120,240
59,29,9120,240
62,29,9120,240
62,34,9600,240
66,40,9600,240
66,34,10080,240
57,28,10080,240
66,40,10560,240
62,34,10560,240
57,30,11040,240
66,36,11040,240
66,40,11520,240
62,34,11520,240
57,29,12000,240
66,35,12000,240
64,34,12480,240
67,40,12480,240
67,35,12960,240
57,29,12960,240
66,40,13440,240
58,34,13440,240
58,28,13920,240
61,34,13920,240
59,34,14400,240
62,40,14400,240
62,30,14880,240
55,30,14880,240
67,36,14880,240
66,40,15360,240
62,34,15360,240
57,29,15840,240
66,35,15840,240
67,40,16320,240
61,34,16320,240
67,35,16800,240
57,29,16800,240
62,34,17280,950
66,40,17280,960
50,58,18240,160
54,52,18400,160
59,52,18560,160
57,58,18720,160
54,52,18880,160
50,52,19040,160
49,49,19200,240
55,58,19200,240
45,47,19680,240
55,56,19680,240
49,47,20160,240
55,56,20160,240
45,47,20640,240
55,56,20640,240
50,49,21120,240
54,58,21120,240
45,47,21600,240
54,56,21600,240
54,56,22080,240
50,47,22080,240
57,56,22560,240
54,47,22560,240
52,47,23040,240
61,56,23040,240
61,56,23520,240
57,47,23520,240
59,47,24000,240
62,56,24000,240
62,56,24480,240
52,47,24480,240
57,56,24960,957
61,63,24960,960
57,68,25920,160
61,58,26080,160
66,58,26240,160
64,68,26400,160
61,58,26560,160
57,58,26720,160
57,72,26880,480
56,64,27360,240
59,68,27840,160
62,58,28000,160
66,58,28160,160
64,68,28320,160
62,58,28480,160
59,58,28640,160
61,72,28800,480
57,64,29280,240
55,63,29760,160
61,54,29920,160
66,54,30080,160
64,61,30240,160
61,59,30400,160
55,62,30560,160
54,67,30720,160
57,58,30880,160
62,58,31040,160
53,65,31200,160
57,52,31360,160
62,52,31520,160
52,63,31680,160
57,52,31840,160
61,52,32000,160
64,60,32160,160
62,52,32320,160
59,52,32480,160
57,62,32640,478
69,54,33120,480
61,45,33120,480
57,45,33120,480
59,41,33600,480
68,49,33600,480
62,41,33600,480
64,39,34080,480
67,47,34080,480
61,39,34080,480
66,40,34560,180
62,34,34560,180
66,34,35040,180
57,28,35040,180
66,40,35520,240
62,34,35520,240
66,37,36000,240
57,31,36000,240
62,34,36480,240
66,40,36480,240
57,29,36960,240
66,35,36960,240
67,40,37440,240
64,34,37440,240
57,29,37920,240
67,35,37920,240
62,34,38400,240
66,40,38400,240
57,28,38880,240
66,34,38880,240
61,34,39360,240
67,40,39360,240
57,30,39840,240
67,36,39840,240
66,40,40320,240
62,34,40320,240
57,29,40800,240
66,35,40800,240
67,40,41280,240
55,34,41280,240
62,34,41280,240
67,35,41760,240
62,29,41760,240
59,29,41760,240
62,34,42240,240
66,40,42240,240
57,28,42720,240
66,34,42720,240
65,36,43200,240
62,30,43200,240
65,32,43680,240
57,27,43680,240
62,30,44160,240
65,36,44160,240
65,31,44640,240
57,26,44640,240
65,40,45120,240
60,34,45120,240
63,40,45120,240
53,29,45600,240
63,29,45600,240
60,29,45600,240
65,35,45600,240
65,40,46080,240
62,34,46080,240
58,34,46080,240
62,28,46560,240
65,34,46560,240
58,39,47040,240
62,39,47040,240
65,47,47040,240
62,39,47520,240
58,39,47520,240
68,47,47520,240
62,43,48000,240
69,51,48000,240
66,43,48000,240
69,41,48480,240
66,34,48480,240
57,34,48480,240
61,40,48960,240
67,40,48960,240
69,48,48960,240
67,36,49440,240
69,43,49440,240
57,36,49440,240
69,53,49920,240
66,45,49920,240
62,35,50400,240
69,41,50400,240
66,35,50400,240
67,51,50880,240
62,43,50880,240
59,43,50880,240
55,37,51360,240
62,37,51360,240
67,44,51360,240
62,43,51840,240
66,51,51840,240
66,45,52320,240
57,38,52320,240
67,53,52800,240
61,45,52800,240
57,39,53280,240
67,46,53280,240
66,59,53760,960
62,50,53760,950
50,58,54720,160
54,52,54880,160
59,52,55040,160
57,58,55200,160
54,52,55360,160
50,52,55520,160
49,49,55680,240
55,58,55680,240
45,47,56160,240
55,56,56160,240
49,47,56640,240
55,56,56640,240
45,47,57120,240
55,56,57120,240
50,49,57600,240
54,58,57600,240
54,56,58080,240
45,47,58080,240
54,56,58560,240
50,47,58560,240
57,56,59040,240
54,47,59040,240
52,47,59520,240
61,56,59520,240
61,56,60000,240
57,47,60000,240
62,56,60480,240
59,47,60480,240
52,47,60960,240
62,56,60960,240
61,63,61440,960
57,56,61440,958
57,68,62400,160
61,58,62560,160
66,58,62720,160
64,68,62880,160
61,58,63040,160
57,58,63200,158
57,72,63360,480
56,64,63840,240
59,68,64320,160
62,58,64480,160
66,58,64640,160
64,68,64800,160
62,58,64960,160
59,58,65120,160
61,72,65280,480
57,64,65760,240
55,63,66240,160
61,54,66400,160
66,54,66560,160
64,61,66720,160
61,59,66880,160
55,62,67040,160
54,67,67200,160
57,58,67360,160
62,58,67520,160
53,65,67680,160
57,52,67840,160
62,52,68000,160
52,63,68160,160
57,52,68320,160
61,52,68480,160
64,60,68640,160
62,52,68800,160
59,52,68960,160
57,62,69120,478
61,45,69600,480
69,54,69600,480
57,45,69600,480
62,41,70080,480
68,49,70080,480
59,41,70080,480
61,39,70560,480
64,39,70560,480
67,47,70560,480
62,34,71040,180
66,40,71040,180
66,34,71520,180
57,28,71520,180
62,34,72000,240
66,40,72000,240
66,37,72480,240
57,31,72480,240
66,40,72960,240
62,34,72960,240
57,29,73440,240
66,35,73440,240
64,34,73920,240
67,40,73920,240
57,29,74400,240
67,35,74400,240
62,34,74880,240
66,40,74880,240
57,28,75360,240
66,34,75360,240
61,34,75840,240
67,40,75840,240
67,36,76320,240
57,30,76320,240
62,34,76800,240
66,40,76800,240
57,29,77280,240
66,35,77280,240
67,40,77760,240
62,34,77760,240
55,34,77760,240
62,29,78240,240
59,29,78240,240
67,35,78240,240
66,40,78720,240
62,34,78720,240
66,34,79200,240
57,28,79200,240
62,30,79680,240
65,36,79680,240
65,32,80160,240
57,27,80160,240
62,30,80640,240
65,36,80640,240
65,31,81120,240
57,26,81120,240
63,40,81600,240
65,40,81600,240
60,34,81600,240
60,29,82080,240
65,35,82080,240
53,29,82080,240
63,29,82080,240
65,40,82560,240
62,34,82560,240
58,34,82560,240
62,28,83040,240
65,34,83040,240
65,47,83520,240
62,39,83520,240
58,39,83520,240
68,47,84000,240
62,39,84000,240
58,39,84000,240
62,43,84480,240
66,43,84480,240
69,51,84480,240
66,34,84960,240
57,34,84960,240
69,41,84960,240
67,40,85440,240
69,48,85440,240
61,40,85440,240
67,36,85920,240
69,43,85920,240
57,36,85920,240
69,53,86400,240
66,45,86400,240
62,35,86880,240
66,35,86880,240
69,41,86880,240
59,43,87360,240
62,43,87360,240
67,51,87360,240
67,44,87840,240
62,37,87840,240
55,37,87840,240
62,43,88320,240
66,51,88320,240
57,38,88800,240
66,45,88800,240
61,45,89280,240
67,53,89280,240
57,39,89760,240
67,46,89760,240
66,59,90240,958
62,50,90240,958
50,45,91200,120
52,41,91320,120
54,45,91440,120
55,42,91560,120
56,45,91680,120
57,41,91800,120
56,43,91920,120
57,45,92040,120
59,52,92160,480
55,44,92160,480
57,42,92640,240
50,36,92640,240
54,51,93120,160
57,45,93280,160
55,45,93440,160
54,54,93600,160
57,43,93760,160
62,43,93920,160
64,57,94080,478
57,50,94560,240
67,51,95040,120
66,45,95280,120
67,45,95520,120
69,45,95760,120
66,51,96000,120
62,47,96240,120
64,47,96480,120
66,47,96720,120
67,51,96960,120
64,46,97200,120
66,46,97440,120
69,46,97680,120
62,55,97920,120
66,55,97920,120
57,48,98160,120
54,54,98400,120
50,51,98640,120
55,58,98880,120
57,52,99000,120
59,58,99120,120
60,53,99240,120
61,63,99360,120
62,59,99480,120
61,60,99600,120
62,58,99720,120
66,67,99840,120
64,61,99960,120
62,59,100080,120
61,56,100200,120
64,64,100320,120
62,60,100440,120
61,56,100560,120
59,58,100680,120
57,65,100800,120
56,60,100920,120
54,58,101040,120
52,57,101160,120
51,61,101280,120
52,58,101400,120
54,56,101520,120
56,53,101640,120
57,61,101760,117
50,45,102720,120
52,41,102840,120
54,45,102960,120
55,42,103080,120
56,45,103200,120
57,41,103320,120
56,43,103440,120
57,45,103560,120
59,52,103680,480
55,44,103680,480
50,36,104160,240
57,42,104160,240
54,51,104640,160
57,45,104800,160
55,45,104960,160
54,54,105120,160
57,43,105280,160
62,43,105440,160
64,57,105600,478
57,50,106080,240
67,51,106560,120
66,45,106800,120
67,45,107040,120
69,45,107280,120
66,51,107520,120
69,47,107760,120
66,47,108000,120
64,47,108240,120
62,51,108480,120
59,46,108720,120
61,46,108960,120
64,46,109200,120
57,55,109440,120
61,55,109440,120
52,48,109680,120
49,54,109920,120
45,51,110160,120
50,58,110400,120
52,52,110520,120
54,58,110640,120
55,53,110760,120
56,63,110880,120
57,59,111000,120
56,60,111120,120
57,58,111240,120
61,67,111360,120
59,61,111480,120
57,59,111600,120
56,56,111720,120
59,64,111840,120
57,60,111960,120
56,56,112080,120
54,58,112200,120
52,65,112320,120
54,60,112440,120
52,58,112560,120
54,57,112680,120
52,61,112800,120
50,58,112920,120
49,56,113040,120
47,53,113160,120
45,61,113280,240
74,51,114240,120
71,47,114480,120
68,47,114720,120
64,47,114960,120
73,51,115200,120
69,47,115440,120
64,47,115680,120
61,47,115920,120
62,51,116160,120
64,42,116280,120
62,46,116400,120
64,42,116520,120
68,51,116640,120
71,41,116760,120
68,45,116880,120
71,41,117000,120
61,51,117120,120
64,42,117240,120
61,46,117360,120
64,42,117480,120
69,51,117600,120
73,41,117720,120
69,45,117840,120
73,41,117960,120
64,69,118080,120
66,58,118200,120
68,64,118320,120
69,59,118440,120
70,69,118560,120
71,56,118680,120
70,65,118800,120
71,59,118920,120
69,69,119040,120
71,58,119160,120
73,64,119280,120
74,59,119400,120
75,70,119520,120
76,57,119640,120
75,62,119760,120
76,49,119880,120
62,58,120000,120
71,42,120120,120
62,46,120240,120
71,42,120360,120
64,51,120480,120
75,41,120600,120
64,45,120720,120
75,41,120840,120
69,51,120960,120
73,42,121080,120
69,46,121200,120
73,42,121320,120
57,51,121440,120
69,45,121680,120
52,75,121920,120
54,58,122040,120
56,64,122160,120
57,59,122280,120
58,70,122400,120
59,61,122520,120
58,68,122640,120
59,59,122760,120
52,75,122880,120
54,58,123000,120
56,64,123120,120
57,59,123240,120
58,70,123360,120
59,61,123480,120
58,68,123600,120
59,59,123720,120
40,75,123840,120
42,58,123960,120
44,64,124080,120
45,59,124200,120
46,70,124320,120
47,61,124440,120
46,68,124560,120
47,59,124680,120
46,75,124800,120
47,62,124920,120
49,66,125040,120
50,62,125160,120
51,74,125280,120
52,63,125400,120
54,64,125520,120
56,65,125640,120
57,60,125760,120
59,55,125880,120
60,60,126000,120
62,56,126120,120
63,60,126240,120
64,55,126360,120
63,58,126480,120
64,60,126600,120
62,59,126720,480
65,70,126720,480
64,56,127200,240
57,48,127200,240
53,59,127680,480
60,59,127680,480
65,70,127680,480
48,48,128160,240
60,56,128160,240
57,65,128640,120
45,55,128640,120
43,45,128880,120
55,54,128880,120
41,50,129120,120
53,59,129120,120
40,45,129360,120
52,53,129360,120
50,65,129600,120
38,55,129600,120
48,53,129840,120
36,45,129840,120
50,61,130080,120
38,51,130080,120
39,45,130320,120
51,53,130320,120
52,69,130560,120
40,69,130560,120
44,63,130680,120
47,63,130800,120
52,63,130920,120
56,65,131040,120
57,61,131160,120
59,61,131280,120
60,61,131400,120
50,69,131520,120
62,81,131520,120
61,55,131760,120
49,46,131760,120
50,51,132000,120
62,61,132000,120
52,48,132240,120
64,57,132240,120
48,67,132480,120
60,80,132480,120
45,47,132720,120
57,56,132720,120
59,59,132960,120
47,50,132960,120
48,48,133200,120
60,57,133200,120
62,81,133440,120
50,69,133440,120
59,57,133680,120
47,48,133680,120
60,60,133920,120
48,51,133920,120
64,57,134160,120
52,48,134160,120
57,81,134400,120
45,69,134400,120
52,55,134640,120
48,61,134880,120
45,57,135120,120
48,63,135360,132
50,57,135480,132
52,57,135600,132
53,57,135720,132
54,62,135840,132
55,57,135960,132
54,61,136080,132
55,57,136200,120
53,63,136320,132
55,57,136440,132
57,57,136560,132
58,57,136680,132
59,62,136800,132
60,57,136920,132
59,61,137040,132
60,57,137160,120
62,63,137280,132
60,57,137400,132
58,57,137520,132
57,57,137640,132
60,62,137760,132
58,57,137880,132
57,61,138000,132
55,57,138120,120
53,63,138240,132
55,57,138360,132
57,57,138480,132
58,57,138600,132
60,62,138720,132
62,57,138840,132
64,61,138960,132
65,57,139080,120
55,69,139200,120
67,81,139200,120
66,55,139440,120
54,46,139440,120
55,51,139680,120
67,61,139680,120
69,57,139920,120
57,48,139920,120
65,80,140160,120
53,67,140160,120
62,56,140400,120
50,47,140400,120
52,50,140640,120
64,59,140640,120
53,48,140880,120
65,57,140880,120
67,81,141120,120
55,69,141120,120
64,57,141360,120
52,48,141360,120
53,51,141600,120
65,60,141600,120
69,57,141840,120
57,48,141840,120
62,81,142080,120
50,69,142080,120
57,55,142320,120
53,61,142560,120
50,57,142800,120
53,63,143040,132
55,57,143160,132
57,57,143280,132
58,57,143400,132
59,62,143520,132
60,57,143640,132
59,61,143760,132
60,57,143880,120
58,63,144000,132
60,57,144120,132
62,57,144240,132
63,57,144360,132
64,62,144480,132
65,57,144600,132
64,61,144720,132
65,57,144840,120
67,63,144960,132
65,57,145080,132
63,57,145200,132
62,57,145320,132
65,62,145440,132
63,57,145560,132
62,61,145680,132
60,57,145800,120
65,63,145920,132
63,57,146040,132
62,57,146160,132
60,57,146280,132
63,62,146400,132
62,57,146520,132
60,61,146640,132
62,57,146760,120
63,63,146880,132
62,57,147000,132
60,57,147120,132
58,57,147240,132
62,62,147360,132
60,57,147480,132
58,61,147600,132
60,57,147720,120
58,80,147840,120
46,67,147840,120
43,47,148080,120
55,56,148080,120
57,59,148320,120
45,50,148320,120
60,57,148560,120
48,48,148560,120
45,69,148800,120
57,81,148800,120
54,57,149040,120
42,48,149040,120
43,51,149280,120
55,60,149280,120
58,57,149520,120
46,48,149520,120
43,67,149760,120
55,80,149760,120
46,47,150000,120
58,56,150000,120
53,67,150240,120
41,57,150240,120
57,57,150480,120
45,48,150480,120
52,81,150720,120
40,69,150720,120
43,48,150960,120
55,57,150960,120
38,58,151200,120
50,69,151200,120
41,48,151440,120
53,57,151440,120
38,67,151680,120
50,80,151680,120
53,56,151920,120
41,47,151920,120
35,57,152160,120
47,67,152160,120
38,48,152400,120
50,57,152400,120
32,69,152640,120
44,81,152640,120
35,48,152880,120
47,57,152880,120
40,69,153120,120
44,57,153360,120
40,80,153600,120
44,56,153840,120
40,67,154080,120
44,57,154320,120
40,81,154560,120
44,57,154800,120
40,69,155040,120
44,57,155280,120
40,60,155520,120
42,52,155640,120
44,52,155760,120
45,52,155880,120
46,60,156000,120
47,51,156120,120
46,58,156240,120
47,51,156360,120
40,60,156480,120
42,52,156600,120
44,52,156720,120
45,52,156840,120
46,60,156960,120
47,51,157080,120
46,58,157200,120
47,51,157320,120
40,51,157440,120
42,44,157560,120
44,44,157680,120
45,44,157800,120
46,51,157920,120
47,43,158040,120
46,49,158160,120
47,43,158280,120
40,51,158400,120
42,44,158520,120
44,44,158640,120
45,44,158760,120
46,51,158880,120
47,43,159000,120
46,49,159120,120
47,43,159240,120
46,52,159360,120
47,43,159480,120
49,46,159600,120
50,43,159720,120
51,51,159840,120
52,44,159960,120
54,44,160080,120
56,45,160200,120
57,42,160320,120
59,38,160440,120
61,42,160560,120
62,39,160680,120
63,42,160800,120
64,38,160920,120
63,40,161040,120
64,42,161160,120
66,49,161280,480
62,41,161280,480
57,41,161280,720
64,39,161760,240
61,33,161760,240
61,51,162240,160
64,45,162400,160
62,45,162560,160
61,54,162720,160
64,43,162880,160
69,43,163040,160
71,57,163200,473
64,50,163680,240
74,51,164161,120
71,47,164401,120
68,47,164641,120
64,47,164881,120
73,51,165121,120
69,47,165361,120
64,47,165601,120
61,47,165841,120
62,51,166081,120
64,39,166201,120
62,46,166321,120
64,38,166441,120
68,51,166561,120
71,38,166681,120
68,45,166801,120
71,39,166921,120
61,51,167041,120
64,42,167161,120
61,46,167281,120
64,42,167401,120
69,51,167521,120
73,41,167641,120
69,45,167761,120
73,41,167881,120
64,69,168001,120
66,58,168121,120
68,64,168241,120
69,59,168361,120
70,69,168481,120
71,56,168601,120
70,65,168721,120
71,59,168841,120
69,69,168961,120
71,58,169081,120
73,64,169201,120
74,59,169321,120
75,70,169440,120
76,57,169561,120
75,62,169680,120
76,49,169801,120
62,58,169921,120
71,37,170041,120
62,46,170161,120
71,38,170281,120
64,51,170401,120
74,38,170520,120
64,45,170641,120
74,41,170760,120
69,51,170881,120
73,42,171001,120
69,46,171121,120
73,42,171241,120
57,51,171361,120
61,45,171600,120
62,58,171841,120
71,40,171961,120
62,46,172081,120
71,38,172201,120
64,51,172321,120
74,41,172440,120
64,45,172561,120
74,41,172680,120
69,43,172801,120
73,35,172921,120
69,39,173041,120
73,35,173161,120
61,40,173280,120
57,34,173281,120
64,36,173520,120
61,30,173520,120
62,58,173761,120
71,38,173881,120
62,46,174001,120
71,38,174121,120
64,51,174241,120
74,41,174360,120
64,45,174481,120
74,41,174600,120
69,45,174721,120
73,37,174841,120
69,41,174961,120
73,37,175081,120
57,45,175201,120
69,45,175441,119
57,75,175680,120
59,58,175800,120
61,64,175920,120
62,59,176040,120
63,70,176160,120
64,61,176280,120
63,68,176400,120
64,59,176520,120
45,75,176640,120
47,58,176760,120
49,64,176880,120
50,59,177000,120
51,70,177120,120
52,61,177240,120
51,68,177360,120
52,59,177480,120
51,75,177600,120
52,62,177720,120
54,66,177840,120
56,62,177960,120
57,74,178080,120
59,63,178200,120
61,64,178320,120
62,65,178440,120
63,65,178560,120
64,60,178680,120
62,30,184320,240
66,36,184320,240
57,26,184800,240
66,31,184800,240
67,36,185280,240
64,30,185280,240
57,26,185760,240
67,31,185760,240
62,30,186240,240
66,36,186240,240
57,25,186720,240
66,30,186720,240
61,30,187200,240
67,36,187200,240
67,32,187680,240
57,27,187680,240
62,30,188160,240
66,36,188160,240
57,26,188640,240
66,31,188640,240
67,36,189120,240
62,30,189120,240
59,30,189120,240
67,31,189600,240
62,26,189600,240
55,26,189600,240
66,36,190080,240
62,30,190080,240
57,25,190560,240
66,30,190560,240
66,36,191040,240
62,30,191040,240
66,32,191520,240
57,27,191520,240
66,36,192000,240
62,30,192000,240
66,31,192480,240
57,26,192480,240
64,30,192960,240
67,36,192960,240
67,35,193440,240
57,26,193440,240
58,30,193920,240
66,41,193920,240
61,30,194400,240
58,25,194400,240
59,30,194880,240
62,36,194880,240
67,32,195360,240
55,27,195360,240
62,27,195360,240
66,36,195840,240
62,30,195840,240
57,26,196320,240
66,31,196320,240
67,36,196800,240
61,30,196800,240
67,31,197280,240
57,26,197280,240
66,36,197760,960
62,30,197760,950
50,58,198720,120
54,52,198840,120
50,54,198960,120
54,52,199080,120
59,58,199200,120
57,52,199320,120
54,55,199440,120
50,52,199560,120
49,49,199680,240
55,58,199680,240
45,42,200160,240
55,50,200160,240
49,47,200640,240
55,56,200640,240
45,47,201120,240
55,56,201120,240
50,49,201600,240
54,58,201600,240
45,37,202080,240
54,44,202080,240
54,56,202560,240
50,47,202560,240
54,47,203040,240
57,56,203040,240
61,56,203520,240
52,47,203520,240
57,42,204000,240
61,50,204000,240
59,47,204480,240
62,56,204480,240
62,50,204960,240
52,42,204960,240
61,63,205440,960
57,56,205440,960
57,68,206400,120
61,53,206520,120
57,61,206640,120
61,53,206760,120
66,68,206880,120
64,58,207000,120
61,63,207120,120
57,58,207240,110
57,72,207360,480
56,64,207840,240
59,68,208320,120
62,53,208440,120
59,62,208560,120
62,53,208680,120
66,68,208800,120
64,58,208920,120
62,61,209040,120
59,58,209160,120
61,72,209280,480
57,64,209760,240
55,66,210240,120
61,54,210360,120
55,58,210480,120
61,54,210600,120
66,61,210720,120
64,59,210840,120
61,62,210960,120
55,60,211080,120
54,67,211200,120
57,58,211320,120
54,62,211440,120
62,58,211560,120
53,65,211680,120
57,52,211800,120
53,56,211920,120
62,52,212040,120
52,63,212160,120
61,52,212280,120
57,57,212400,120
61,52,212520,120
64,60,212640,120
62,52,212760,120
59,56,212880,120
61,52,213000,120
57,62,213120,478
57,45,213600,480
69,54,213600,480
61,45,213600,480
59,41,214080,480
68,49,214080,480
62,41,214080,480
64,39,214560,480
67,47,214560,480
61,39,214560,480
66,36,215040,240
62,30,215040,240
66,31,215520,240
57,26,215520,240
67,36,216000,240
64,30,216000,240
66,31,216480,240
57,26,216480,240
66,36,216960,240
62,30,216960,240
66,31,217440,240
57,26,217440,240
67,36,217920,240
64,30,217920,240
57,26,218400,240
67,31,218400,240
66,36,218880,240
62,30,218880,240
66,30,219360,240
57,25,219360,240
67,36,219840,240
61,30,219840,240
57,27,220320,240
67,32,220320,240
66,36,220800,240
62,30,220800,240
57,26,221280,240
66,31,221280,240
59,30,221760,240
67,36,221760,240
62,30,221760,240
55,26,222240,240
62,26,222240,240
67,31,222240,240
66,36,222720,240
62,30,222720,240
66,30,223200,240
57,25,223200,240
62,25,223680,240
65,30,223680,240
65,27,224160,240
57,22,224160,240
62,25,224640,240
65,30,224640,240
57,22,225120,240
65,26,225120,240
65,30,225600,240
63,25,225600,240
60,25,225600,240
63,22,226080,240
65,29,226080,240
53,22,226080,240
62,25,226560,240
58,25,226560,240
65,34,226560,240
65,25,227040,240
53,21,227040,240
62,21,227040,240
58,30,227520,240
62,30,227520,240
65,36,227520,240
68,38,228000,240
62,32,228000,240
58,32,228000,240
62,30,228480,240
69,36,228480,240
66,30,228480,240
69,31,228960,240
66,26,228960,240
57,26,228960,240
67,30,229440,240
61,30,229440,240
69,36,229440,240
57,26,229920,240
67,26,229920,240
69,31,229920,240
69,36,230400,240
66,30,230400,240
62,26,230880,240
66,26,230880,240
69,31,230880,240
62,30,231360,240
67,36,231360,240
59,30,231360,240
55,26,231840,240
67,31,231840,240
62,26,231840,240
62,35,232320,240
66,42,232320,240
57,28,232800,240
66,34,232800,240
67,40,233280,240
61,34,233280,240
57,30,233760,240
67,36,233760,240
66,43,234240,960
62,36,234240,960
43,45,236160,60
55,35,236280,120
59,38,236400,120
55,37,236520,120
62,42,236640,120
55,32,236760,120
59,36,236880,120
55,36,237000,120
43,49,237120,60
55,33,237240,120
58,36,237360,120
55,33,237480,120
64,42,237600,120
55,35,237720,120
58,37,237840,120
55,35,237960,120
43,45,238080,60
55,36,238200,120
59,38,238320,120
55,36,238440,120
62,42,238560,120
55,36,238680,120
59,36,238800,120
55,33,238920,120
64,35,239040,216
62,32,239280,216
59,32,239520,216
55,38,239760,216
38,45,240000,60
50,37,240120,120
54,38,240240,120
50,36,240360,120
57,42,240480,120
50,34,240600,120
54,36,240720,120
50,34,240840,120
45,49,240960,60
52,33,241080,120
55,36,241200,120
52,33,241320,120
57,42,241440,120
52,34,241560,120
55,37,241680,120
52,35,241800,120
38,45,241920,60
50,37,242040,120
54,38,242160,120
50,37,242280,120
57,42,242400,120
50,35,242520,120
61,36,242640,120
50,33,242760,120
62,35,242880,216
62,33,243120,216
64,35,243360,216
65,36,243600,216
40,45,243840,60
52,35,243960,120
56,38,244080,120
52,38,244200,120
62,42,244320,120
52,34,244440,120
56,36,244560,120
52,36,244680,120
45,49,244800,60
52,37,244920,120
57,36,245040,120
52,36,245160,120
60,46,245280,120
52,39,245400,120
59,40,245520,120
52,42,245640,120
38,45,245760,60
50,35,245880,120
54,38,246000,120
50,36,246120,120
60,42,246240,120
50,33,246360,120
54,36,246480,120
50,34,246600,120
55,42,246720,120
50,40,246840,120
60,47,246960,120
50,42,247080,120
59,47,247200,120
50,40,247320,120
55,39,247440,120
50,38,247560,120
38,45,247680,60
50,37,247800,120
54,38,247920,120
50,35,248040,120
60,42,248160,120
50,34,248280,120
54,36,248400,120
50,34,248520,120
55,42,248640,120
50,44,248760,120
60,43,248880,120
50,42,249000,120
59,47,249120,120
50,40,249240,120
55,39,249360,120
50,38,249480,120
38,45,249600,60
50,38,249720,120
54,38,249840,120
50,38,249960,120
62,42,250080,120
50,29,250200,120
60,36,250320,120
50,28,250440,120
55,30,250560,240
59,36,250560,240
43,45,251520,60
55,35,251640,120
59,38,251760,120
55,36,251880,120
62,42,252000,120
55,34,252120,120
59,36,252240,120
55,34,252360,120
43,49,252480,60
55,37,252600,120
58,40,252720,120
55,36,252840,120
64,42,252960,120
55,35,253080,120
58,37,253200,120
55,35,253320,120
43,45,253440,60
55,36,253560,120
59,38,253680,120
55,37,253800,120
62,45,253920,120
55,43,254040,120
59,46,254160,120
62,48,254280,120
65,50,254400,216
64,42,254640,216
65,42,254880,216
67,47,255120,216
48,51,255360,60
55,40,255480,120
60,43,255600,120
55,40,255720,120
64,48,255840,120
55,38,255960,120
60,41,256080,120
55,40,256200,120
38,56,256320,60
50,39,256440,120
55,41,256560,120
50,39,256680,120
59,48,256800,120
50,40,256920,120
57,42,257040,120
50,38,257160,120
38,51,257280,60
50,40,257400,120
55,40,257520,120
50,38,257640,120
55,51,257760,120
59,41,257880,120
62,44,258000,120
64,41,258120,120
65,51,258240,216
64,40,258480,216
65,42,258720,120
69,39,258840,120
67,47,258960,216
48,53,259200,60
55,40,259320,120
60,42,259440,120
55,39,259560,120
59,50,259680,120
55,36,259800,120
60,39,259920,120
55,36,260040,120
38,49,260160,60
50,35,260280,120
55,36,260400,120
50,35,260520,120
57,42,260640,120
50,36,260760,120
60,37,260880,120
50,34,261000,120
43,45,261120,60
50,36,261240,120
55,38,261360,120
50,37,261480,120
55,42,261600,120
50,36,261720,120
43,39,261840,120
45,36,261960,120
46,56,262080,120
45,48,262200,120
43,48,262320,120
45,48,262440,120
46,56,262560,120
43,49,262680,120
46,49,262800,120
43,49,262920,120
55,65,263040,230
43,51,263280,120
43,52,263520,120
43,52,263760,120
39,62,264000,120
38,49,264120,120
36,49,264240,120
38,49,264360,120
39,63,264480,120
36,52,264600,120
39,52,264720,120
36,50,264840,120
43,65,264960,240
31,48,265200,120
31,48,265440,120
31,48,265680,120
53,56,265920,120
41,56,265920,120
56,49,266160,120
44,57,266160,120
47,59,266400,120
59,59,266400,120
50,62,266640,120
62,54,266640,120
42,64,266880,240
50,64,266880,240
47,64,266880,240
54,75,266880,240
54,47,267120,120
59,56,267120,120
54,47,267360,120
59,56,267360,120
59,56,267600,120
54,47,267600,120
52,47,267840,120
59,47,267840,120
52,47,268080,120
59,40,268080,120
54,47,268320,120
58,47,268320,120
54,47,268560,120
58,41,268560,120
54,58,268800,120
47,49,268800,120
50,50,269040,120
38,49,269280,120
50,59,269280,120
50,62,269520,120
46,64,269760,120
45,55,269880,120
43,55,270000,120
45,55,270120,120
46,64,270240,120
43,56,270360,120
46,56,270480,120
43,56,270600,120
55,65,270720,230
43,51,270960,120
43,52,271200,120
43,52,271440,120
39,62,271680,120
38,49,271800,120
36,49,271920,120
38,49,272040,120
39,63,272160,120
36,52,272280,120
39,52,272400,120
36,50,272520,120
43,65,272640,240
31,48,272880,120
31,48,273120,120
31,48,273360,120
32,61,273600,120
44,61,273600,120
47,53,273840,120
35,62,273840,120
50,64,274080,120
38,64,274080,120
41,68,274320,120
53,59,274320,120
53,64,274560,240
57,75,274560,238
45,64,274560,240
50,64,274560,240
57,51,274800,120
62,61,274800,120
62,61,275040,120
57,51,275040,120
57,51,275280,120
62,61,275280,120
62,47,275520,120
55,47,275520,120
55,47,275760,120
62,40,275760,120
61,47,276000,120
57,47,276000,120
57,47,276240,120
61,41,276240,120
50,49,276480,238
57,58,276480,240
50,50,276720,120
50,59,276960,120
50,62,277200,120
60,47,277440,480
53,47,277440,480
48,60,278400,120
47,54,278520,120
50,60,278640,120
48,54,278760,110
48,59,278880,120
48,56,279120,120
55,66,279360,240
50,55,279600,120
50,55,279840,120
49,55,280080,120
50,63,280320,120
49,56,280440,120
52,63,280560,120
50,56,280680,110
50,61,280800,120
50,58,281040,120
58,69,281280,240
53,57,281520,120
53,57,281760,120
53,57,282000,120
53,66,282240,120
52,58,282360,120
55,66,282480,120
53,58,282600,110
53,64,282720,120
53,60,282960,120
52,66,283200,480
55,66,283440,120
52,54,283680,120
60,64,283680,120
52,51,283920,120
60,60,283920,120
60,65,284160,240
53,56,284160,480
58,54,284400,120
57,48,284520,120
57,54,284640,120
53,45,284640,120
57,54,284880,120
53,45,284880,120
46,62,285120,120
45,55,285240,120
48,62,285360,120
46,55,285480,110
48,60,285600,120
48,57,285840,120
41,56,286080,480
41,54,286560,120
39,51,286800,120
38,63,287040,120
38,58,287280,120
38,58,287520,120
38,58,287760,120
60,69,288000,120
57,58,288000,120
50,58,288000,120
57,51,288240,120
50,51,288240,120
60,60,288240,120
57,51,288480,120
50,51,288480,120
60,60,288480,120
50,51,288720,120
57,51,288720,120
60,60,288720,120
46,64,288960,120
45,55,289080,120
43,55,289200,120
45,55,289320,120
46,64,289440,120
43,56,289560,120
46,56,289680,120
43,56,289800,120
55,65,289920,230
43,51,290160,120
43,52,290400,120
43,52,290640,120
39,62,290880,120
38,49,291000,120
36,49,291120,120
38,49,291240,120
39,63,291360,120
36,52,291480,120
39,52,291600,120
36,50,291720,120
43,65,291840,240
31,48,292080,120
31,48,292320,120
31,48,292560,120
53,56,292800,120
41,56,292800,120
44,57,293040,120
56,49,293040,120
59,59,293280,120
47,59,293280,120
62,54,293520,120
50,62,293520,120
47,64,293760,240
42,64,293760,240
50,64,293760,240
54,75,293760,238
54,47,294000,120
59,56,294000,120
54,47,294240,120
59,56,294240,120
54,47,294480,120
59,56,294480,120
52,47,294720,120
59,47,294720,120
59,40,294960,120
52,47,294960,120
58,47,295200,120
54,47,295200,120
58,41,295440,120
54,47,295440,120
47,49,295680,240
54,58,295680,240
50,50,295920,120
50,59,296160,120
38,49,296160,120
50,62,296400,120
46,64,296640,120
45,55,296760,120
43,55,296880,120
45,55,297000,120
46,64,297120,120
43,56,297240,120
46,56,297360,120
43,56,297480,120
55,65,297600,230
43,51,297840,120
43,52,298080,120
43,52,298320,120
39,62,298560,120
38,49,298680,120
36,49,298800,120
38,49,298920,120
39,63,299040,120
36,52,299160,120
39,52,299280,120
36,50,299400,120
43,65,299520,240
31,48,299760,120
31,48,300000,120
31,48,300240,120
44,61,300480,120
32,61,300480,120
47,53,300720,120
35,62,300720,120
38,64,300960,120
50,64,300960,120
41,68,301200,120
53,59,301200,120
53,64,301440,240
57,75,301440,238
50,64,301440,240
45,64,301440,240
57,51,301680,120
62,61,301680,120
57,51,301920,120
62,61,301920,120
57,51,302160,120
62,61,302160,120
36,67,302400,120
48,67,302400,120
51,58,302640,120
39,68,302640,120
42,70,302880,120
54,70,302880,120
57,64,303120,120
45,74,303120,120
61,82,303360,238
54,70,303360,240
57,70,303360,240
49,70,303360,240
61,51,303600,120
66,61,303600,120
61,51,303840,120
66,61,303840,120
61,51,304080,120
66,61,304080,120
59,38,304320,120
66,45,304320,120
59,34,304560,120
66,41,304560,120
61,38,304800,120
65,45,304800,120
61,36,305040,120
65,43,305040,120
54,38,305280,480
61,45,305280,480
62,45,307200,1200
62,37,308400,216
62,36,308640,120
62,35,308880,120
62,38,309120,1176
64,32,310320,216
66,32,310560,216
67,32,310800,216
43,45,311040,60
55,36,311160,120
59,38,311280,120
55,37,311400,120
62,42,311520,120
55,34,311640,120
59,36,311760,120
55,36,311880,120
43,49,312000,60
55,36,312120,120
58,36,312240,120
55,34,312360,120
64,42,312480,120
55,35,312600,120
58,37,312720,120
55,35,312840,120
43,45,312960,60
55,35,313080,120
59,38,313200,120
55,34,313320,120
62,42,313440,120
55,33,313560,120
59,36,313680,120
55,34,313800,120
64,35,313920,216
62,32,314160,216
59,32,314400,216
55,38,314640,216
38,45,314880,60
50,36,315000,120
54,38,315120,120
50,36,315240,120
57,42,315360,120
50,35,315480,120
54,36,315600,120
50,35,315720,120
45,49,315840,60
52,35,315960,120
55,36,316080,120
52,35,316200,120
57,42,316320,120
52,35,316440,120
55,37,316560,120
52,36,316680,120
38,45,316800,60
50,35,316920,120
54,38,317040,120
50,36,317160,120
57,42,317280,120
50,34,317400,120
61,36,317520,120
50,34,317640,120
62,35,317760,216
62,33,318000,216
64,35,318240,216
65,36,318480,216
40,45,318720,60
52,36,318840,120
56,38,318960,120
52,36,319080,120
62,42,319200,120
52,35,319320,120
56,36,319440,120
52,35,319560,120
45,49,319680,60
52,34,319800,120
57,36,319920,120
52,35,320040,120
60,42,320160,120
52,36,320280,120
59,37,320400,120
52,35,320520,120
38,45,320640,60
50,36,320760,120
54,38,320880,120
50,35,321000,120
60,42,321120,120
50,36,321240,120
54,36,321360,120
50,36,321480,120
55,42,321600,120
50,43,321720,120
60,43,321840,120
50,42,321960,120
59,47,322080,120
50,40,322200,120
55,39,322320,120
50,38,322440,120
38,45,322560,60
50,36,322680,120
54,38,322800,120
50,38,322920,120
60,42,323040,120
50,34,323160,120
54,36,323280,120
50,34,323400,120
55,42,323520,120
50,44,323640,120
60,43,323760,120
50,42,323880,120
59,47,324000,120
50,40,324120,120
55,39,324240,120
50,38,324360,120
38,45,324480,60
50,36,324600,120
54,38,324720,120
50,35,324840,120
57,42,324960,120
50,29,325080,120
60,36,325200,120
50,28,325320,120
59,36,325440,240
55,30,325440,240
43,45,326400,60
55,36,326520,120
59,38,326640,120
55,36,326760,120
62,42,326880,120
55,34,327000,120
59,36,327120,120
55,34,327240,120
43,49,327360,60
55,35,327480,120
58,36,327600,120
55,35,327720,120
64,42,327840,120
55,36,327960,120
58,37,328080,120
55,37,328200,120
43,45,328320,60
55,37,328440,120
59,38,328560,120
55,36,328680,120
62,45,328800,120
55,43,328920,120
59,46,329040,120
55,48,329160,120
65,50,329280,216
64,42,329520,216
65,42,329760,216
67,47,330000,216
48,51,330240,60
55,40,330360,120
60,43,330480,120
55,40,330600,120
64,48,330720,120
55,38,330840,120
60,41,330960,120
55,40,331080,120
38,56,331200,60
50,39,331320,120
55,41,331440,120
50,38,331560,120
59,48,331680,120
50,39,331800,120
57,42,331920,120
50,41,332040,120
38,51,332160,60
50,38,332280,120
55,40,332400,120
50,38,332520,120
55,51,332640,120
59,41,332760,120
62,45,332880,120
64,46,333000,120
65,52,333120,216
64,40,333360,216
65,42,333600,120
69,39,333720,120
67,47,333840,216
48,53,334080,60
55,40,334200,120
60,42,334320,120
55,39,334440,120
59,50,334560,120
55,34,334680,120
60,36,334800,120
55,35,334920,120
38,49,335040,60
50,35,335160,120
55,36,335280,120
50,35,335400,120
57,42,335520,120
50,35,335640,120
60,37,335760,120
50,35,335880,120
43,45,336000,60
50,37,336120,120
55,38,336240,120
50,36,336360,120
55,42,336480,120
50,36,336600,120
55,39,336720,120
50,34,336840,120
43,46,336960,60
50,33,337080,120
54,34,337200,120
50,32,337320,120
54,39,337440,120
50,33,337560,120
54,35,337680,120
50,34,337800,120
43,46,337920,60
50,33,338040,120
55,34,338160,120
50,33,338280,120
55,39,338400,120
50,33,338520,120
55,35,338640,120
50,34,338760,120
43,46,338880,60
50,33,339000,120
57,34,339120,120
50,33,339240,120
60,39,339360,120
50,33,339480,120
60,35,339600,120
50,34,339720,120
43,45,339840,60
50,38,339960,120
59,42,340080,120
50,38,340200,120
59,42,340320,120
50,36,340440,120
55,39,340560,120
50,34,340680,120
43,46,340800,60
50,33,340920,120
54,34,341040,120
50,32,341160,120
54,39,341280,120
50,32,341400,120
54,35,341520,120
50,34,341640,120
43,46,341760,60
50,32,341880,120
55,34,342000,120
50,32,342120,120
55,39,342240,120
50,33,342360,120
55,35,342480,120
50,34,342600,120
43,46,342720,60
50,33,342840,120
57,34,342960,120
50,33,343080,120
55,39,343200,120
50,33,343320,120
54,35,343440,120
50,34,343560,120
43,45,343680,60
50,35,343800,120
55,38,343920,120
50,36,344040,120
55,42,344160,120
50,33,344280,120
43,36,344400,120
45,36,344520,120
46,39,344640,120
45,33,344760,120
43,33,344880,120
45,33,345000,120
46,39,345120,120
43,34,345240,120
46,34,345360,120
43,34,345480,120
46,39,345600,120
45,31,345720,120
43,33,345840,120
45,32,345960,120
46,39,346080,120
43,34,346200,120
46,34,346320,120
43,34,346440,120
45,43,346560,120
40,32,346680,120
33,34,346800,120
40,32,346920,120
45,44,347040,120
33,34,347160,120
45,36,347280,120
33,34,347400,120
45,43,347520,120
40,32,347640,120
33,34,347760,120
40,33,347880,120
45,44,348000,120
33,33,348120,120
45,36,348240,120
33,33,348360,120
46,39,348480,120
45,33,348600,120
43,33,348720,120
45,33,348840,120
46,39,348960,120
43,34,349080,120
46,34,349200,120
43,34,349320,120
46,39,349440,120
45,33,349560,120
43,33,349680,120
45,33,349800,120
46,39,349920,120
43,34,350040,120
46,34,350160,120
43,34,350280,120
45,43,350400,120
40,32,350520,120
33,34,350640,120
40,32,350760,120
45,44,350880,120
33,34,351000,120
45,36,351120,120
33,35,351240,120
45,43,351360,120
40,34,351480,120
33,37,351600,120
40,34,351720,120
45,44,351840,120
33,36,351960,120
45,36,352080,120
33,35,352200,120
45,43,352320,120
40,34,352440,120
33,37,352560,120
40,34,352680,120
45,44,352800,120
33,35,352920,120
45,36,353040,120
33,35,353160,120
45,36,353280,240
52,30,353760,480
45,30,353760,480
55,36,353760,480
45,31,354720,480
52,31,354720,480
55,37,354720,480
45,34,355680,480
55,41,355680,480
52,34,355680,480
57,37,356640,480
61,37,356640,480
64,45,356640,480
66,45,357600,480
63,37,357600,480
57,37,357600,480
64,37,358560,480
67,45,358560,480
57,37,358560,480
57,37,359520,1440
67,45,359520,1440
64,37,359520,1440
62,30,364800,120
66,36,364800,120
66,31,365040,120
57,26,365040,120
62,30,365280,120
66,36,365280,120
57,26,365520,120
66,31,365520,120
67,36,365760,120
64,30,365760,120
57,26,366000,120
67,31,366000,120
67,36,366240,120
61,30,366240,120
57,26,366480,120
67,31,366480,120
62,30,366720,120
66,36,366720,120
57,25,366960,120
66,30,366960,120
66,36,367200,120
62,30,367200,120
66,30,367440,120
57,25,367440,120
67,36,367680,120
64,30,367680,120
67,32,367920,120
57,27,367920,120
61,30,368160,120
67,36,368160,120
57,27,368400,120
67,32,368400,120
62,30,368640,120
66,36,368640,120
57,26,368880,120
66,31,368880,120
62,30,369120,120
66,36,369120,120
66,31,369360,120
57,26,369360,120
62,30,369600,120
67,36,369600,120
55,26,369840,120
62,26,369840,120
67,31,369840,120
67,36,370080,120
62,30,370080,120
59,26,370320,120
62,26,370320,120
67,31,370320,120
66,36,370560,120
62,30,370560,120
66,30,370800,120
57,25,370800,120
66,36,371040,120
62,30,371040,120
57,25,371280,120
66,30,371280,120
62,30,371520,120
66,36,371520,120
66,32,371760,120
57,27,371760,120
66,36,372000,120
62,30,372000,120
57,27,372240,120
66,32,372240,120
62,30,372480,120
66,36,372480,120
57,26,372720,120
66,31,372720,120
62,30,372960,120
66,36,372960,120
57,26,373200,120
66,31,373200,120
64,30,373440,120
67,36,373440,120
57,26,373680,120
67,31,373680,120
67,36,373920,120
64,30,373920,120
57,26,374160,120
67,31,374160,120
66,36,374400,120
58,30,374400,120
58,25,374640,120
61,30,374640,120
58,30,374880,120
66,36,374880,120
58,25,375120,120
61,30,375120,120
62,36,375360,120
59,30,375360,120
67,32,375600,120
62,27,375600,120
59,27,375600,120
62,30,375840,120
55,30,375840,120
67,36,375840,120
67,32,376080,120
59,27,376080,120
62,27,376080,120
66,36,376320,120
62,30,376320,120
66,31,376560,120
57,26,376560,120
66,36,376800,120
62,30,376800,120
66,31,377040,120
57,26,377040,120
67,36,377280,120
61,30,377280,120
57,26,377520,120
67,31,377520,120
67,36,377760,120
61,30,377760,120
57,26,378000,120
67,31,378000,120
62,30,378240,120
66,36,378240,120
66,31,378480,120
57,26,378480,120
66,36,378720,120
62,30,378720,120
57,26,378960,120
66,31,378960,120
50,52,379200,120
52,46,379320,120
54,46,379440,120
59,46,379560,120
57,52,379680,120
54,46,379800,120
52,46,379920,120
50,46,380040,120
49,44,380160,120
55,52,380160,120
55,46,380400,120
45,46,380400,120
49,44,380640,120
55,52,380640,120
55,50,380880,120
45,42,380880,120
55,50,381120,120
49,42,381120,120
55,50,381360,120
45,42,381360,120
55,50,381600,120
49,42,381600,120
45,46,381840,120
55,46,381840,120
50,44,382080,120
54,52,382080,120
54,50,382320,120
45,42,382320,120
50,44,382560,120
54,52,382560,120
54,50,382800,120
45,42,382800,120
54,50,383040,120
50,42,383040,120
45,42,383280,120
54,50,383280,120
54,50,383520,120
50,42,383520,120
57,50,383760,120
54,42,383760,120
57,42,384000,120
61,50,384000,120
61,50,384240,120
52,42,384240,120
57,42,384480,120
61,50,384480,120
61,50,384720,120
52,42,384720,120
62,50,384960,120
59,42,384960,120
52,42,385200,120
62,50,385200,120
62,42,385440,120
56,42,385440,120
52,42,385680,120
62,50,385680,120
57,50,385920,480
61,56,385920,480
57,54,386880,120
59,41,387000,120
61,51,387120,120
66,42,387240,120
64,54,387360,120
61,40,387480,120
59,50,387600,120
57,46,387720,120
57,57,387840,240
59,57,388080,120
57,42,388200,120
56,53,388320,120
57,38,388440,120
56,54,388560,120
57,39,388680,120
59,54,388800,120
61,43,388920,120
62,49,389040,120
66,43,389160,120
64,54,389280,120
62,44,389400,120
61,50,389520,120
59,44,389640,120
61,57,389760,240
60,57,390000,120
61,50,390120,120
64,54,390240,120
61,51,390360,120
59,54,390480,120
57,51,390600,120
55,50,390720,120
57,46,390840,120
61,50,390960,120
66,43,391080,120
64,48,391200,120
61,47,391320,120
57,53,391440,120
55,49,391560,120
54,58,391680,120
56,46,391800,120
57,51,391920,120
62,46,392040,120
53,52,392160,120
56,41,392280,120
57,46,392400,120
62,41,392520,120
52,50,392640,120
57,41,392760,120
59,46,392880,120
61,41,393000,120
64,48,393120,120
62,41,393240,120
61,44,393360,120
59,41,393480,120
57,49,393600,115
57,49,393840,115
57,34,394080,120
61,34,394080,120
69,48,394080,120
61,45,394320,120
69,53,394320,120
57,45,394320,120
59,48,394560,120
62,48,394560,120
68,57,394560,120
68,54,394800,120
59,45,394800,120
62,45,394800,120
64,40,395040,120
61,40,395040,120
67,48,395040,120
61,36,395280,120
67,44,395280,120
64,36,395280,120
66,36,395520,120
62,30,395520,120
57,26,395760,120
66,31,395760,120
66,36,396000,120
62,30,396000,120
57,26,396240,120
66,31,396240,120
62,30,396480,120
66,36,396480,120
66,31,396720,120
57,26,396720,120
62,30,396960,120
66,36,396960,120
57,26,397200,120
66,31,397200,120
66,36,397440,120
62,30,397440,120
66,31,397680,120
57,26,397680,120
62,30,397920,120
66,36,397920,120
57,26,398160,120
66,31,398160,120
64,30,398400,120
67,36,398400,120
57,26,398640,120
67,31,398640,120
61,30,398880,120
67,36,398880,120
57,26,399120,120
67,31,399120,120
66,36,399360,120
62,30,399360,120
66,30,399600,120
57,25,399600,120
66,36,399840,120
62,30,399840,120
66,30,400080,120
57,25,400080,120
64,30,400320,120
67,36,400320,120
57,27,400560,120
67,32,400560,120
67,36,400800,120
61,30,400800,120
67,32,401040,120
57,27,401040,120
66,36,401280,120
62,30,401280,120
57,26,401520,120
66,31,401520,120
62,30,401760,120
66,36,401760,120
57,26,402000,120
66,31,402000,120
67,36,402240,120
62,30,402240,120
67,31,402480,120
62,26,402480,120
55,26,402480,120
62,30,402720,120
67,36,402720,120
67,31,402960,120
62,26,402960,120
59,26,402960,120
62,30,403200,120
66,36,403200,120
57,25,403440,120
66,30,403440,120
66,36,403680,120
62,30,403680,120
57,25,403920,120
66,30,403920,120
62,25,404160,120
65,30,404160,120
65,27,404400,120
57,22,404400,120
62,25,404640,120
65,30,404640,120
57,22,404880,120
65,27,404880,120
62,25,405120,120
65,30,405120,120
65,26,405360,120
57,22,405360,120
62,25,405600,120
65,30,405600,120
65,26,405840,120
57,22,405840,120
63,25,406080,120
65,30,406080,120
65,27,406320,120
63,22,406320,120
57,22,406320,120
60,27,406560,120
65,33,406560,120
63,27,406560,120
63,24,406800,120
65,29,406800,120
53,24,406800,120
58,30,407040,120
65,36,407040,120
62,30,407040,120
65,30,407280,120
62,25,407280,120
58,30,407520,120
62,30,407520,120
65,36,407520,120
62,25,407760,120
65,30,407760,120
68,36,408000,120
62,30,408000,120
58,30,408000,120
65,32,408240,120
62,27,408240,120
58,27,408240,120
62,31,408480,120
68,38,408480,120
58,31,408480,120
62,29,408720,120
65,35,408720,120
58,29,408720,120
69,40,408960,120
62,33,408960,120
57,33,408960,120
66,33,408960,120
66,26,409200,120
62,26,409200,120
69,31,409200,120
57,30,409440,120
69,36,409440,120
66,30,409440,120
66,26,409680,120
62,26,409680,120
69,31,409680,120
67,30,409920,120
69,36,409920,120
61,30,409920,120
57,26,410160,120
67,26,410160,120
69,31,410160,120
69,36,410400,120
67,30,410400,120
61,30,410400,120
69,31,410640,120
57,26,410640,120
67,26,410640,120
57,33,410880,120
66,33,410880,120
69,40,410880,120
66,26,411120,120
69,31,411120,120
62,26,411120,120
57,30,411360,120
69,36,411360,120
66,30,411360,120
69,31,411600,120
66,26,411600,120
62,26,411600,120
62,30,411840,120
55,30,411840,120
67,36,411840,120
59,25,412080,120
67,30,412080,120
62,25,412080,120
62,27,412320,120
59,27,412320,120
67,33,412320,120
62,23,412560,120
67,27,412560,120
66,24,412800,120
69,30,412800,120
62,24,412800,120
69,23,413040,120
66,19,413040,120
57,19,413040,120
69,27,413280,120
62,22,413280,120
66,22,413280,120
69,23,413520,120
57,19,413520,120
66,19,413520,120
67,22,413760,120
69,27,413760,120
61,22,413760,120
57,19,414000,120
67,19,414000,120
69,23,414000,120
67,22,414240,120
61,22,414240,120
69,27,414240,120
57,19,414480,120
67,19,414480,120
69,23,414480,120
57,24,414720,120
69,30,414720,120
66,24,414720,120
66,19,414960,120
62,19,414960,120
69,23,414960,120
69,27,415200,120
57,22,415200,120
66,22,415200,120
62,19,415440,120
66,19,415440,120
69,23,415440,120
67,27,415680,120
55,22,415680,120
62,22,415680,120
62,19,415920,120
59,19,415920,120
67,23,415920,120
62,22,416160,120
59,22,416160,120
67,27,416160,120
62,19,416400,120
67,23,416400,120
66,30,416640,120
62,24,416640,120
66,23,416880,120
57,19,416880,120
66,27,417120,120
62,22,417120,120
57,19,417360,120
66,23,417360,120
61,22,417600,120
67,27,417600,120
67,23,417840,120
57,19,417840,120
61,22,418080,120
67,27,418080,120
57,19,418320,120
67,23,418320,120
57,24,418560,120
66,30,418560,120
62,19,418800,120
66,23,418800,120
66,27,419040,120
57,22,419040,120
62,19,419280,120
66,23,419280,120
62,22,419520,120
67,27,419520,120
55,22,419520,120
62,19,419760,120
59,19,419760,120
67,23,419760,120
67,26,420000,120
59,21,420000,120
62,21,420000,120
67,22,420240,120
62,18,420240,120
62,23,420480,120
66,29,420480,120
57,18,420720,120
66,22,420720,120
62,21,420960,120
66,25,420960,120
57,18,421200,120
66,21,421200,120
67,25,421440,120
61,20,421440,120
67,21,421680,120
57,17,421680,120
67,25,421920,120
61,20,421920,120
57,17,422160,120
67,21,422160,120
62,21,422400,120
66,27,422400,120
66,20,422640,120
57,17,422640,120
62,19,422880,120
66,24,422880,120
57,16,423120,120
66,20,423120,120
61,19,423360,120
67,23,423360,120
57,16,423600,120
67,20,423600,120
67,23,423840,120
61,19,423840,120
57,16,424080,120
67,19,424080,120
62,24,424320,120
66,28,424320,120
66,24,424560,120
61,20,424560,120
59,24,424800,120
66,28,424800,120
66,24,425040,120
57,20,425040,120
61,24,425280,120
67,28,425280,120
64,20,425520,120
67,24,425520,120
61,24,425760,120
67,28,425760,120
57,20,426000,120
67,24,426000,120
66,28,426240,120
62,24,426240,120
66,24,426480,120
61,20,426480,120
59,24,426720,120
66,28,426720,120
57,20,426960,120
66,24,426960,120
67,28,427200,120
61,24,427200,120
67,24,427440,120
64,20,427440,120
67,28,427680,120
61,24,427680,120
67,24,427920,120
57,20,427920,120
50,24,428160,120
54,28,428160,120
49,20,428400,120
54,24,428400,120
47,24,428640,120
54,28,428640,120
45,20,428880,120
54,24,428880,120
55,28,429120,120
49,24,429120,120
52,20,429360,120
55,24,429360,120
55,28,429600,120
49,24,429600,120
45,20,429840,120
55,24,429840,120
50,24,430080,120
54,28,430080,120
49,20,430320,120
54,24,430320,120
47,24,430560,120
54,28,430560,120
45,20,430800,120
54,24,430800,120
55,28,431040,120
49,24,431040,120
52,20,431280,120
55,24,431280,120
55,28,431520,120
49,24,431520,120
45,20,431760,120
55,24,431760,120
50,24,432000,120
54,28,432000,120
45,20,432240,120
54,24,432240,120
54,27,432480,120
50,23,432480,120
45,19,432720,120
54,23,432720,120
50,23,432960,120
54,27,432960,120
45,19,433200,120
54,23,433200,120
50,23,433440,120
54,26,433440,120
54,22,433680,120
45,19,433680,120
50,26,433920,120
42,22,433920,120
45,18,434160,120
42,22,434400,120
50,25,434400,120
45,18,434640,120
50,25,434880,120
42,21,434880,120
45,18,435120,120
42,21,435360,120
50,24,435360,120
45,17,435600,120
50,24,435840,120
38,20,435840,120
42,24,436320,120
45,20,436560,120
50,23,436800,120
38,20,436800,120
42,23,437280,120
45,19,437520,120
50,22,437760,120
38,19,437760,120
66,22,438720,360
57,18,438720,360
57,18,439200,360
66,22,439200,360
66,22,439680,360
62,18,439680,360
38,18,440640,360
45,22,440640,360
45,22,441120,360
38,18,441600,960
45,18,441600,960
50,22,441600,960
