note,velocity,position,duration
56,29,0,960
61,29,0,960
64,29,0,960
68,35,0,960
56,28,960,475
61,28,960,475
64,28,960,475
68,35,960,475
56,29,1440,475
64,29,1440,475
61,29,1440,475
68,35,1440,475
63,37,1920,1920
66,37,1920,1920
56,37,1920,720
68,44,1920,720
57,39,2640,240
69,39,2640,240
68,39,2880,960
56,39,2880,960
64,44,3840,960
52,37,3840,960
56,37,3840,960
61,37,3840,960
54,42,4800,960
57,42,4800,960
61,42,4800,960
66,51,4800,960
56,39,5880,1800
60,41,5910,1770
63,46,5940,1740
68,48,5970,1690
56,33,7680,960
61,33,7680,960
64,33,7680,960
68,39,7680,960
56,33,8640,475
61,33,8640,475
64,33,8640,475
68,40,8640,475
56,36,9120,475
64,36,9120,475
61,36,9120,475
68,44,9120,475
65,40,9600,960
62,40,9600,960
68,44,9600,960
71,51,9600,960
61,39,10560,480
69,39,10560,480
66,39,10560,480
54,35,11040,480
61,35,11040,480
66,35,11040,480
64,39,11520,960
56,33,11520,960
61,33,11520,960
54,34,12480,960
60,34,12480,960
63,34,12480,960
68,40,12480,960
52,30,13440,1440
56,30,13440,1440
61,37,13440,1152
63,35,14592,192
64,36,14784,192
66,37,14976,192
69,37,15168,192
56,29,15360,960
61,29,15360,960
64,29,15360,960
68,35,15360,960
56,28,16320,475
61,28,16320,475
64,28,16320,475
68,35,16320,475
56,29,16800,475
64,29,16800,475
61,29,16800,475
68,35,16800,475
63,37,17280,1920
66,37,17280,1920
56,37,17280,720
68,44,17280,720
57,39,18000,240
69,39,18000,240
68,39,18240,960
56,39,18240,960
64,44,19200,960
52,37,19200,960
56,37,19200,960
61,37,19200,960
54,42,20160,960
57,42,20160,960
61,42,20160,960
66,51,20160,960
56,39,21240,1800
60,41,21270,1770
63,46,21300,1740
68,48,21330,1690
56,33,23040,960
61,33,23040,960
64,33,23040,960
68,39,23040,960
59,33,24000,475
61,33,24000,475
65,33,24000,475
68,40,24000,475
59,36,24480,475
65,36,24480,475
61,36,24480,475
68,44,24480,475
61,40,24960,1440
57,40,24960,1440
66,44,24960,960
73,51,24960,960
69,39,25920,480
57,35,26400,480
60,35,26400,480
66,35,26400,480
71,39,26880,960
56,33,26880,960
64,33,26880,960
57,34,27840,960
59,34,27840,960
63,40,27840,960
56,30,28800,1440
59,30,28800,1440
64,37,28800,1152
66,35,29952,192
68,36,30144,192
69,37,30336,192
73,37,30528,192
71,38,30720,960
64,31,30720,260
66,25,30960,260
64,31,31200,260
66,25,31440,260
68,31,31680,260
71,38,31680,480
66,24,31920,260
71,38,32160,480
68,31,32160,260
64,24,32400,240
63,31,32640,260
71,48,32640,720
64,24,32880,260
63,31,33120,260
64,25,33360,260
73,42,33360,240
71,42,33600,960
66,31,33600,260
65,25,33840,260
66,31,34080,260
63,25,34320,240
64,31,34560,260
71,48,34560,960
66,26,34800,260
64,31,35040,260
66,25,35280,260
73,50,35520,260
68,31,35520,260
64,25,35760,260
71,48,35760,260
59,31,36000,260
68,46,36000,260
64,44,36240,240
66,49,36480,1440
63,31,36480,260
64,26,36720,240
63,31,36960,260
61,25,37200,260
59,31,37440,260
58,25,37680,260
67,50,37920,480
59,31,37920,260
63,26,38160,240
64,31,38400,260
68,45,38400,960
63,25,38640,260
61,31,38880,260
63,25,39120,260
64,31,39360,260
68,39,39360,480
63,24,39600,260
68,40,39840,480
64,31,39840,260
61,24,40080,240
63,31,40320,260
68,48,40320,720
61,24,40560,260
60,31,40800,260
69,42,41040,240
61,25,41040,260
63,31,41280,260
68,42,41280,960
61,25,41520,260
63,31,41760,260
60,25,42000,240
73,48,42240,1220
61,37,42240,260
63,41,42480,260
64,43,42720,260
66,44,42960,260
67,51,43200,960
72,55,43440,260
75,60,43680,260
73,55,43920,260
72,51,44160,960
68,29,44160,960
67,29,45120,960
73,53,45120,260
72,45,45360,260
75,49,45600,260
73,45,45840,260
72,48,46080,960
68,29,46080,960
67,29,47040,960
73,50,47040,260
72,42,47280,260
75,50,47520,180
73,42,47680,180
72,42,47840,156
68,29,48000,1440
72,50,48000,1440
69,29,49440,240
71,42,49440,480
63,29,49680,240
71,38,49920,960
64,31,49920,260
66,25,50160,260
64,31,50400,260
66,25,50640,260
71,38,50880,480
68,31,50880,260
66,24,51120,260
71,38,51360,480
68,31,51360,260
64,24,51600,240
63,31,51840,260
71,48,51840,720
64,24,52080,260
63,31,52320,260
64,25,52560,260
73,42,52560,240
66,31,52800,260
71,42,52800,960
65,25,53040,260
66,31,53280,260
63,25,53520,240
71,48,53760,960
64,31,53760,260
66,26,54000,260
64,31,54240,260
66,25,54480,260
73,50,54720,260
68,31,54720,260
64,25,54960,260
71,48,54960,260
68,46,55200,260
59,31,55200,260
64,44,55440,240
63,31,55680,260
66,49,55680,1440
64,26,55920,260
63,31,56160,260
61,25,56400,260
63,31,56640,260
59,25,56880,260
67,50,57120,480
61,31,57120,260
63,26,57360,240
68,56,57600,960
60,31,57600,260
63,25,57840,260
62,31,58080,260
63,25,58320,240
69,53,58560,480
64,39,58560,260
61,33,58800,260
60,37,59040,260
69,51,59040,480
61,30,59280,240
68,56,59520,960
60,31,59520,260
63,24,59760,260
62,31,60000,260
63,25,60240,260
64,39,60480,260
69,57,60480,480
61,31,60720,260
60,38,60960,260
69,52,60960,480
61,30,61200,240
68,53,61440,240
60,38,61440,480
75,58,61680,240
64,37,61920,480
73,53,61920,240
68,37,61920,480
75,56,62160,240
63,36,62400,480
72,53,62400,240
66,36,62400,480
73,50,62640,240
61,35,62880,480
64,35,62880,480
69,51,62880,240
71,46,63120,240
68,49,63360,240
60,34,63360,480
63,34,63360,480
69,41,63600,240
66,47,63840,240
57,33,63840,480
61,33,63840,480
68,41,64080,240
56,31,64320,480
64,47,64320,240
61,31,64320,480
66,40,64560,240
54,30,64800,480
63,45,64800,240
60,30,64800,480
64,40,65040,240
52,33,65280,960
56,33,65280,960
61,40,65280,960
52,35,66240,475
56,35,66240,475
61,43,66240,475
52,36,66720,475
56,36,66720,475
61,45,66720,475
52,38,67200,1920
56,38,67200,1920
61,38,67200,1920
64,48,67200,1920
52,37,69120,960
57,37,69120,960
61,45,69120,960
52,37,70080,475
57,37,70080,475
61,45,70080,475
52,44,70560,475
57,44,70560,475
61,52,70560,475
52,44,71040,1920
57,44,71040,1920
61,44,71040,1920
64,52,71040,1920
54,42,72960,960
57,42,72960,960
62,50,72960,960
54,44,73920,475
57,44,73920,475
62,52,73920,475
54,44,74400,475
57,44,74400,475
62,52,74400,475
57,47,74880,1920
62,47,74880,1920
66,47,74880,1920
69,56,74880,1920
60,59,76800,960
63,59,76800,960
66,59,76800,960
68,59,76800,960
72,70,76800,960
61,66,77760,960
64,66,77760,960
68,66,77760,960
73,78,77760,960
64,74,78720,960
68,74,78720,960
73,74,78720,960
76,88,78720,960
67,85,79680,960
73,85,79680,960
75,85,79680,960
79,101,79680,960
68,88,80640,240
72,88,80640,240
75,88,80640,240
80,103,80640,240
60,74,80880,120
63,74,80880,120
68,89,80880,120
60,79,81120,120
63,79,81120,120
69,93,81120,120
61,74,81840,240
68,89,81840,240
64,74,81840,240
61,81,82080,240
64,81,82080,240
73,97,82080,240
63,74,82800,240
67,74,82800,240
73,89,82800,240
63,81,83040,240
67,81,83040,240
75,97,83040,240
73,81,83040,240
68,74,83760,240
72,74,83760,240
75,88,83760,240
68,81,84000,240
72,81,84000,240
80,97,84000,240
72,74,84720,114
75,74,84720,114
80,89,84720,114
72,74,84840,114
75,74,84840,114
80,89,84840,114
72,79,84960,240
75,79,84960,240
81,93,84960,240
73,74,85680,114
80,89,85680,114
76,74,85680,114
73,74,85800,114
76,74,85800,114
80,89,85800,114
73,81,85920,240
76,81,85920,240
85,97,85920,240
75,74,86640,114
79,74,86640,114
85,89,86640,114
75,74,86760,114
79,74,86760,114
85,89,86760,114
75,81,86880,240
79,81,86880,240
87,97,86880,240
85,97,86880,240
80,74,87600,114
84,74,87600,114
87,88,87600,114
80,74,87720,114
84,74,87720,114
87,88,87720,114
80,81,87840,240
84,81,87840,240
92,97,87840,240
93,81,88560,114
87,68,88560,114
84,68,88560,114
81,68,88560,114
81,67,88680,114
84,67,88680,114
87,67,88680,114
93,80,88680,114
90,80,89040,114
84,67,89040,114
81,67,89040,114
78,67,89040,114
78,67,89160,114
81,67,89160,114
84,67,89160,114
90,79,89160,114
87,75,89520,114
81,63,89520,114
78,63,89520,114
75,63,89520,114
75,63,89640,114
78,63,89640,114
81,63,89640,114
87,75,89640,114
84,72,90000,114
78,61,90000,114
75,61,90000,114
72,61,90000,114
72,61,90120,114
75,61,90120,114
78,61,90120,114
84,72,90120,114
72,64,90480,114
75,64,90480,114
78,64,90480,114
84,77,90480,114
84,78,90600,114
78,66,90600,114
75,66,90600,114
72,66,90600,114
85,81,90960,114
79,68,90960,114
76,68,90960,114
73,68,90960,114
73,70,91080,114
76,70,91080,114
79,70,91080,114
85,84,91080,114
87,89,91440,114
85,89,91440,114
79,74,91440,114
75,74,91440,114
75,75,91560,114
79,75,91560,114
85,90,91560,114
87,90,91560,114
92,106,91680,240
87,90,91680,240
84,90,91680,240
80,90,91680,240
81,53,92400,114
75,45,92400,114
72,45,92400,114
69,45,92400,114
69,45,92520,114
72,45,92520,114
75,45,92520,114
81,53,92520,114
78,52,92880,114
72,44,92880,114
69,44,92880,114
66,44,92880,114
66,44,93000,114
69,44,93000,114
72,44,93000,114
78,52,93000,114
75,51,93360,114
69,42,93360,114
66,42,93360,114
63,42,93360,114
63,42,93480,114
66,42,93480,114
69,42,93480,114
75,51,93480,114
72,50,93840,114
66,42,93840,114
63,42,93840,114
60,42,93840,114
60,42,93960,114
63,42,93960,114
66,42,93960,114
72,50,93960,114
60,41,94320,114
63,41,94320,114
66,41,94320,114
72,49,94320,114
72,49,94440,114
66,41,94440,114
63,41,94440,114
60,41,94440,114
73,48,94800,114
67,40,94800,114
64,40,94800,114
61,40,94800,114
61,39,94920,114
64,39,94920,114
67,39,94920,114
73,47,94920,114
75,67,95280,114
73,56,95280,114
67,56,95280,114
63,56,95280,114
63,56,95400,114
67,56,95400,114
73,56,95400,114
75,67,95400,114
80,73,95520,240
75,61,95520,240
72,61,95520,240
68,61,95520,240
66,51,96240,60
63,36,96240,60
60,36,96240,60
60,36,96360,60
63,36,96360,60
66,51,96360,60
66,48,96720,60
63,33,96720,60
57,33,96720,60
57,33,96840,60
63,33,96840,60
66,48,96840,60
66,45,97200,60
63,31,97200,60
60,31,97200,60
60,31,97320,60
63,31,97320,60
66,45,97320,60
66,42,97680,60
63,28,97680,60
57,28,97680,60
57,28,97800,60
63,28,97800,60
66,40,97800,60
60,26,98160,60
66,26,98160,60
68,39,98160,60
68,39,98280,60
66,26,98280,60
60,26,98280,60
56,26,98640,60
68,35,98640,60
66,30,98640,60
60,25,98640,60
56,24,98760,60
60,23,98760,60
66,28,98760,60
68,33,98760,60
60,23,99120,60
66,28,99120,60
68,33,99120,60
68,33,99240,60
66,28,99240,60
60,23,99240,60
56,22,99600,60
68,31,99600,60
66,27,99600,60
60,22,99600,60
56,21,99720,60
60,21,99720,60
66,25,99720,60
68,29,99720,60
68,28,99840,960
80,37,99840,960
68,27,100800,475
80,37,100800,475
68,28,101280,475
80,37,101280,475
68,36,101760,720
80,47,101760,720
70,38,102480,240
82,40,102480,240
80,40,102720,960
68,38,102720,960
65,28,103680,960
77,37,103680,960
68,27,104640,240
80,37,104640,240
67,27,104880,240
79,37,104880,240
65,28,105120,240
77,37,105120,240
67,27,105360,240
79,37,105360,240
68,36,105600,1440
80,47,105600,1440
70,39,107040,360
82,44,107040,360
68,38,107400,114
80,40,107400,114
68,28,107520,960
80,37,107520,960
68,28,108480,475
80,38,108480,475
68,29,108960,475
80,39,108960,475
71,38,109440,960
83,49,109440,960
82,40,110400,480
70,38,110400,480
68,38,110880,240
80,40,110880,240
66,36,111120,240
78,39,111120,240
65,28,111360,960
77,37,111360,960
63,27,112320,240
75,37,112320,240
65,27,112560,240
77,37,112560,240
66,28,112800,240
78,37,112800,240
68,24,113040,240
80,37,113040,240
61,36,113280,1920
73,47,113280,1920
68,33,115200,960
80,44,115200,960
68,31,116160,480
80,44,116160,480
68,33,116640,480
80,44,116640,480
68,42,117120,720
80,56,117120,720
69,45,117840,240
81,49,117840,240
80,49,118080,960
68,45,118080,960
64,33,119040,960
76,44,119040,960
68,31,120000,240
80,44,120000,240
66,31,120240,240
78,44,120240,240
64,33,120480,240
76,44,120480,240
66,31,120720,240
78,44,120720,240
68,42,120960,1440
80,56,120960,1440
69,48,122400,360
81,51,122400,360
68,45,122760,114
80,49,122760,114
68,33,122880,960
80,44,122880,960
68,35,123840,480
80,47,123840,480
68,37,124320,480
80,50,124320,480
73,50,124800,960
85,67,124800,960
81,55,125760,480
69,50,125760,480
68,50,126240,240
80,55,126240,240
66,48,126480,240
78,52,126480,240
71,37,126720,960
83,49,126720,960
63,36,127680,240
75,49,127680,240
64,36,127920,240
76,49,127920,240
66,37,128160,240
78,49,128160,240
68,36,128400,240
80,49,128400,240
64,45,128640,960
76,58,128640,960
63,40,129600,960
75,51,129600,960
68,41,130560,960
56,22,130680,120
65,22,130800,120
61,17,130800,120
56,22,130920,120
61,17,131040,120
65,22,131040,120
56,22,131160,120
61,17,131280,120
65,22,131280,120
56,22,131400,120
68,41,131520,480
56,24,131640,120
65,24,131760,120
61,18,131760,120
56,24,131880,120
68,41,132000,480
65,22,132000,120
61,17,132000,120
56,27,132120,120
65,27,132240,120
61,21,132240,120
56,27,132360,120
68,52,132480,720
56,26,132600,120
66,26,132720,120
60,20,132720,120
56,26,132840,120
60,20,132960,120
66,26,132960,120
56,26,133080,120
60,17,133200,120
66,22,133200,120
70,46,133200,240
56,22,133320,120
68,46,133440,960
56,22,133560,120
60,17,133680,120
66,22,133680,120
56,22,133800,120
60,17,133920,120
66,22,133920,120
56,22,134040,120
60,17,134160,120
66,22,134160,120
56,22,134280,120
65,41,134400,960
53,22,134520,120
61,22,134640,120
56,17,134640,120
53,22,134760,120
61,22,134880,120
56,17,134880,120
53,22,135000,120
61,22,135120,120
56,17,135120,120
53,22,135240,120
68,41,135360,240
58,25,135480,120
61,17,135600,120
63,22,135600,120
67,41,135600,240
58,26,135720,120
61,17,135840,120
63,22,135840,120
65,41,135840,240
58,28,135960,120
61,17,136080,120
63,22,136080,120
67,41,136080,240
58,30,136200,120
68,52,136320,1440
56,22,136440,120
60,17,136560,120
63,23,136560,120
56,23,136680,120
63,24,136800,120
60,19,136800,120
56,25,136920,120
63,26,137040,120
60,20,137040,120
56,27,137160,120
56,28,137400,120
60,22,137520,120
66,28,137520,120
56,28,137640,120
70,49,137760,360
60,17,137760,120
66,22,137760,120
56,22,137880,120
60,17,138000,120
66,22,138000,120
68,42,138120,120
56,22,138120,120
68,41,138240,960
56,22,138360,120
61,17,138480,120
65,22,138480,120
56,22,138600,120
65,22,138720,120
61,17,138720,120
56,22,138840,120
65,22,138960,120
61,17,138960,120
56,22,139080,120
68,42,139200,480
56,22,139320,120
61,18,139440,120
65,23,139440,120
56,26,139560,120
65,24,139680,120
61,18,139680,120
68,44,139680,480
56,29,139800,120
61,24,139920,120
65,32,139920,120
56,35,140040,120
71,56,140160,960
59,35,140280,120
62,24,140400,120
65,24,140400,120
68,32,140400,120
59,30,140520,120
62,21,140640,120
65,21,140640,120
68,28,140640,120
59,26,140760,120
62,18,140880,120
65,18,140880,120
68,24,140880,120
59,23,141000,120
70,46,141120,480
58,26,141240,120
66,26,141360,120
61,20,141360,120
58,26,141480,120
68,46,141600,240
61,17,141600,120
58,27,141720,120
66,40,141840,240
61,17,141840,120
58,25,141960,120
65,41,142080,960
53,22,142200,120
56,22,142320,120
61,22,142320,120
53,22,142440,120
56,22,142560,120
61,22,142560,120
53,22,142680,120
56,22,142800,120
61,22,142800,120
53,22,142920,120
60,17,143040,120
63,41,143040,240
54,29,143160,120
60,17,143280,120
65,41,143280,240
54,28,143400,120
60,17,143520,120
66,41,143520,240
54,28,143640,120
60,17,143760,120
68,41,143760,240
54,30,143880,120
61,52,144000,1440
49,22,144120,120
56,22,144240,120
53,17,144240,120
49,24,144360,120
53,19,144480,120
56,25,144480,120
49,26,144600,120
53,21,144720,120
56,27,144720,120
49,29,144840,120
54,22,144960,120
57,29,144960,120
49,28,145080,120
54,20,145200,120
57,25,145200,120
49,23,145320,120
54,13,145440,120
56,17,145440,120
60,38,145440,480
63,41,145440,480
51,22,145560,120
54,17,145680,120
56,22,145680,120
51,22,145800,120
92,38,146160,60
90,38,146220,60
88,38,146280,60
87,37,146340,60
85,37,146400,60
83,37,146460,60
81,36,146520,60
80,36,146580,60
78,35,146640,60
76,35,146700,60
75,34,146760,60
73,33,146820,60
72,31,146880,60
73,31,146940,60
75,33,147000,60
73,33,147060,60
76,34,147120,60
75,34,147180,60
78,35,147240,60
76,35,147300,60
80,36,147360,60
78,36,147420,60
81,37,147480,60
80,37,147540,60
85,38,147600,60
84,38,147660,60
87,39,147720,60
85,39,147780,60
93,38,148080,60
92,38,148140,60
90,38,148200,60
88,37,148260,60
87,37,148320,60
85,37,148380,60
84,36,148440,60
81,36,148500,60
80,35,148560,60
78,35,148620,60
76,34,148680,60
75,33,148740,60
73,31,148800,60
72,31,148860,60
75,33,148920,60
73,33,148980,60
76,34,149040,60
75,34,149100,60
78,35,149160,60
76,35,149220,60
80,36,149280,60
78,36,149340,60
81,37,149400,60
80,37,149460,60
85,38,149520,60
84,38,149580,60
88,39,149640,60
87,39,149700,60
100,38,150000,60
99,38,150060,60
97,38,150120,60
95,37,150180,60
93,37,150240,60
92,37,150300,60
90,36,150360,60
88,36,150420,60
87,35,150480,60
85,35,150540,60
84,34,150600,60
85,33,150660,60
97,38,150960,60
93,38,151020,60
92,38,151080,60
90,37,151140,60
88,36,151200,60
85,37,151260,60
83,38,151320,60
81,39,151380,60
78,40,151440,60
76,41,151500,60
75,42,151560,60
73,45,151620,60
92,47,151920,60
91,45,151980,60
92,44,152040,60
87,41,152100,60
84,40,152160,60
87,38,152220,60
84,36,152280,60
80,36,152340,60
75,35,152400,60
80,35,152460,60
75,34,152520,60
72,33,152580,60
68,31,152640,60
70,31,152700,60
72,33,152760,60
73,33,152820,60
75,34,152880,60
76,34,152940,60
78,35,153000,60
80,35,153060,60
81,36,153120,60
84,36,153180,60
85,37,153240,60
87,37,153300,60
88,38,153360,60
90,38,153420,60
92,39,153480,60
93,39,153540,60
92,38,153840,60
90,38,153900,60
88,38,153960,60
87,37,154020,60
85,37,154080,60
83,37,154140,60
81,36,154200,60
80,36,154260,60
78,35,154320,60
76,35,154380,60
75,34,154440,60
73,33,154500,60
72,31,154560,60
73,31,154620,60
75,33,154680,60
73,33,154740,60
76,34,154800,60
75,34,154860,60
78,35,154920,60
76,35,154980,60
80,35,155040,60
78,36,155100,60
81,37,155160,60
80,39,155220,60
85,40,155280,60
84,42,155340,60
87,44,155400,60
85,46,155460,60
98,42,155760,60
97,41,155820,60
95,40,155880,60
93,39,155940,60
92,38,156000,60
90,37,156060,60
89,36,156120,60
86,36,156180,60
85,35,156240,60
83,35,156300,60
81,34,156360,60
80,33,156420,60
78,31,156480,60
77,31,156540,60
80,33,156600,60
78,33,156660,60
81,34,156720,60
80,34,156780,60
83,35,156840,60
81,35,156900,60
85,36,156960,60
83,36,157020,60
86,37,157080,60
85,37,157140,60
90,38,157200,60
89,38,157260,60
92,39,157320,60
90,39,157380,60
95,38,157680,60
100,38,157740,60
99,38,157800,60
97,37,157860,60
95,37,157920,60
93,37,157980,60
92,36,158040,60
90,36,158100,60
88,35,158160,60
87,35,158220,60
85,34,158280,60
83,33,158340,60
83,38,158640,60
93,38,158700,60
92,38,158760,60
90,37,158820,60
88,36,158880,60
87,37,158940,60
85,38,159000,60
83,39,159060,60
82,40,159120,60
83,41,159180,60
81,42,159240,60
78,45,159300,60
76,45,159360,60
75,45,159420,60
73,45,159480,60
71,45,159540,60
70,47,159600,60
71,45,159660,60
73,44,159720,60
75,41,159780,60
76,44,159840,60
75,45,159900,60
76,46,159960,60
78,47,160020,60
80,50,160080,60
79,51,160140,60
80,53,160200,60
82,55,160260,60
83,57,160320,60
82,58,160380,60
83,59,160440,60
87,61,160500,60
88,62,160560,60
87,63,160620,60
88,64,160680,60
90,67,160740,60
92,70,160800,60
91,69,160860,60
92,71,160920,60
93,72,160980,60
92,74,161040,60
91,75,161100,60
92,78,161160,60
93,80,161220,60
90,85,161280,120
93,77,161340,60
88,81,161400,120
93,77,161460,60
87,81,161520,120
93,77,161580,60
85,81,161640,120
93,77,161700,60
84,85,161760,120
87,77,161820,60
81,81,161880,120
87,77,161940,60
80,81,162000,120
87,77,162060,60
79,81,162120,120
87,77,162180,60
78,85,162240,120
81,77,162300,60
76,81,162360,120
81,77,162420,60
75,81,162480,120
81,78,162540,60
73,82,162600,120
81,79,162660,60
72,88,162720,120
75,79,162780,60
69,83,162840,120
75,80,162900,60
68,84,162960,120
75,81,163020,60
67,85,163080,120
75,81,163140,60
66,91,163200,60
69,81,163260,60
64,86,163320,60
69,82,163380,60
63,88,163440,60
69,83,163500,60
61,89,163560,60
69,84,163620,60
60,94,163680,60
63,84,163740,60
57,90,163800,60
63,85,163860,60
56,91,163920,60
63,86,163980,60
55,92,164040,60
63,86,164100,60
54,88,164160,60
57,79,164220,60
51,85,164280,60
57,81,164340,60
49,88,164400,60
57,83,164460,60
48,90,164520,60
57,85,164580,60
54,88,164640,60
57,79,164700,60
51,85,164760,60
57,81,164820,60
49,88,164880,60
57,83,164940,60
48,90,165000,60
57,85,165060,60
54,88,165120,60
57,79,165180,60
50,84,165240,60
57,80,165300,60
49,85,165360,60
57,80,165420,60
48,86,165480,60
57,81,165540,60
54,82,165600,60
57,75,165660,60
50,79,165720,60
57,75,165780,60
49,82,165840,60
57,77,165900,60
48,82,165960,60
57,77,166020,60
49,79,166080,60
57,71,166140,60
52,77,166200,60
57,74,166260,60
54,80,166320,60
57,78,166380,60
55,83,166440,60
57,81,166500,60
54,88,166560,60
57,78,166620,60
52,81,166680,60
57,75,166740,60
50,79,166800,60
57,73,166860,60
48,77,166920,60
58,72,166980,60
47,79,167040,60
59,71,167100,60
51,77,167160,60
59,74,167220,60
54,80,167280,60
59,78,167340,60
57,83,167400,60
59,81,167460,60
56,88,167520,60
59,78,167580,60
54,81,167640,60
59,75,167700,60
52,79,167760,60
59,73,167820,60
50,77,167880,60
60,72,167940,60
49,79,168000,60
61,71,168060,60
53,77,168120,60
61,74,168180,60
56,80,168240,60
61,78,168300,60
59,83,168360,60
61,81,168420,60
58,88,168480,60
61,78,168540,60
56,81,168600,60
61,75,168660,60
54,79,168720,60
61,73,168780,60
52,77,168840,60
62,72,168900,60
51,79,168960,60
63,71,169020,60
55,77,169080,60
63,74,169140,60
58,80,169200,60
63,78,169260,60
61,83,169320,60
63,81,169380,60
60,88,169440,60
63,79,169500,60
58,83,169560,60
63,77,169620,60
56,81,169680,60
63,77,169740,60
54,81,169800,60
64,75,169860,60
53,81,169920,60
65,74,169980,60
57,81,170040,60
65,79,170100,60
60,85,170160,60
65,83,170220,60
63,90,170280,60
65,88,170340,60
62,94,170400,60
65,85,170460,60
60,92,170520,60
66,85,170580,60
59,92,170640,60
67,85,170700,60
65,92,170760,60
67,86,170820,60
64,99,170880,60
67,88,170940,60
62,93,171000,60
68,89,171060,60
61,94,171120,60
69,89,171180,60
67,94,171240,60
69,91,171300,60
66,102,171360,60
69,91,171420,60
64,96,171480,60
70,92,171540,60
63,97,171600,60
71,93,171660,60
69,99,171720,60
71,93,171780,60
68,104,171840,60
71,93,171900,60
66,100,171960,60
72,93,172020,60
65,102,172080,60
73,95,172140,60
71,102,172200,60
73,95,172260,60
71,100,172320,60
73,95,172380,60
71,96,172440,60
73,97,172500,60
71,97,172560,60
73,95,172620,60
71,91,172680,60
73,89,172740,60
71,100,172800,60
73,90,172860,60
68,96,172920,60
73,91,172980,60
66,97,173040,60
73,93,173100,60
65,99,173160,60
73,94,173220,60
71,105,173280,60
74,95,173340,60
68,102,173400,60
74,96,173460,60
66,103,173520,60
74,99,173580,60
65,104,173640,60
74,100,173700,60
77,93,173760,180
86,111,173760,180
83,93,173760,180
80,93,173760,180
83,99,173940,57
80,84,173940,57
74,84,173940,57
77,84,173940,57
74,91,174000,180
77,91,174000,180
80,91,174000,180
83,107,174000,180
71,84,174180,57
74,84,174180,57
77,84,174180,57
80,99,174180,57
71,91,174240,180
74,91,174240,180
77,91,174240,180
80,107,174240,180
68,80,174420,57
71,80,174420,57
74,80,174420,57
77,95,174420,57
68,88,174480,60
71,88,174480,60
74,88,174480,60
77,104,174480,60
65,80,174600,60
68,80,174600,60
71,80,174600,60
74,95,174600,60
71,100,174720,60
73,90,174780,60
68,96,174840,60
73,91,174900,60
66,97,174960,60
73,93,175020,60
65,99,175080,60
73,94,175140,60
71,105,175200,60
74,95,175260,60
68,102,175320,60
74,96,175380,60
66,103,175440,60
74,99,175500,60
65,104,175560,60
74,100,175620,60
77,93,175680,180
86,111,175680,180
83,93,175680,180
80,93,175680,180
83,99,175860,57
80,84,175860,57
74,84,175860,57
77,84,175860,57
74,91,175920,180
77,91,175920,180
80,91,175920,180
83,107,175920,180
71,84,176100,57
74,84,176100,57
77,84,176100,57
80,99,176100,57
71,91,176160,180
74,91,176160,180
77,91,176160,180
80,107,176160,180
68,80,176340,57
71,80,176340,57
74,80,176340,57
77,95,176340,57
68,88,176400,60
71,88,176400,60
74,88,176400,60
77,104,176400,60
65,80,176520,60
68,80,176520,60
71,80,176520,60
74,95,176520,60
78,93,176640,180
90,111,176640,180
87,93,176640,180
81,93,176640,180
87,99,176820,57
83,84,176820,57
75,84,176820,57
78,84,176820,57
75,91,176880,180
78,91,176880,180
83,91,176880,180
87,107,176880,180
69,84,177060,57
75,84,177060,57
78,84,177060,57
81,99,177060,57
69,91,177120,180
75,91,177120,180
78,91,177120,180
81,107,177120,180
66,80,177300,57
69,80,177300,57
75,80,177300,57
78,95,177300,57
66,88,177360,60
69,88,177360,60
75,88,177360,60
78,104,177360,60
63,80,177480,60
66,80,177480,60
69,80,177480,60
75,95,177480,60
78,93,177600,180
90,111,177600,180
85,93,177600,180
81,93,177600,180
87,99,177780,57
81,84,177780,57
75,84,177780,57
78,84,177780,57
75,91,177840,180
78,91,177840,180
81,91,177840,180
87,107,177840,180
69,84,178020,57
73,84,178020,57
78,84,178020,57
81,99,178020,57
69,91,178080,180
73,91,178080,180
78,91,178080,180
81,107,178080,180
66,80,178260,57
69,80,178260,57
73,80,178260,57
78,95,178260,57
66,88,178320,60
69,88,178320,60
73,88,178320,60
78,104,178320,60
61,80,178440,60
66,80,178440,60
69,80,178440,60
73,95,178440,60
78,93,178560,180
90,111,178560,180
87,93,178560,180
81,93,178560,180
87,99,178740,57
83,84,178740,57
75,84,178740,57
78,84,178740,57
75,91,178800,180
78,91,178800,180
83,91,178800,180
87,107,178800,180
69,84,178980,57
75,84,178980,57
78,84,178980,57
81,99,178980,57
69,91,179040,180
75,91,179040,180
78,91,179040,180
81,107,179040,180
66,80,179220,57
69,80,179220,57
75,80,179220,57
78,95,179220,57
66,88,179280,60
69,88,179280,60
75,88,179280,60
78,104,179280,60
63,80,179400,60
66,80,179400,60
69,80,179400,60
75,95,179400,60
80,97,179520,180
92,116,179520,180
90,97,179520,180
87,97,179520,180
90,103,179700,57
87,88,179700,57
78,88,179700,57
80,88,179700,57
78,94,179760,180
80,94,179760,180
87,94,179760,180
90,111,179760,180
75,86,179940,57
78,86,179940,57
80,86,179940,57
87,101,179940,57
75,93,180000,180
78,93,180000,180
80,93,180000,180
87,110,180000,180
68,81,180180,57
75,81,180180,57
78,81,180180,57
80,96,180180,57
68,89,180240,60
75,89,180240,60
78,89,180240,60
80,105,180240,60
66,80,180360,60
68,80,180360,60
75,80,180360,60
78,95,180360,60
65,81,180480,120
68,81,180480,120
73,81,180480,120
77,105,180480,120
59,29,182400,30
62,25,182430,30
59,29,182460,30
62,25,182490,30
59,30,182520,30
62,25,182550,30
59,30,182580,30
62,24,182610,30
59,30,182640,30
62,26,182670,30
59,31,182700,30
62,27,182730,30
59,31,182760,30
62,26,182790,30
59,33,182820,30
62,26,182850,30
59,33,182880,30
62,28,182910,30
59,33,182940,30
62,28,182970,30
59,34,183000,30
62,28,183030,30
59,34,183060,30
62,27,183090,30
59,35,183120,30
62,29,183150,30
59,35,183180,30
62,30,183210,30
59,36,183240,30
62,29,183270,30
59,36,183300,30
62,28,183330,30
59,37,183360,30
62,30,183390,30
59,36,183420,30
62,30,183450,30
59,36,183480,30
62,29,183510,30
59,35,183540,30
62,27,183570,30
59,35,183600,30
62,29,183630,30
59,34,183660,30
62,28,183690,30
59,34,183720,30
62,27,183750,30
59,33,183780,30
62,26,183810,30
59,33,183840,30
62,28,183870,30
59,33,183900,30
62,27,183930,30
59,31,183960,30
62,26,183990,30
59,31,184020,30
62,25,184050,30
59,30,184080,30
62,26,184110,30
59,30,184140,30
62,26,184170,30
59,30,184200,30
62,24,184230,30
59,29,184260,30
62,25,184290,30
68,33,184320,960
80,49,184320,960
68,31,185280,475
80,44,185280,475
68,33,185760,480
80,44,185760,480
68,39,186240,840
80,50,186240,840
69,40,187080,120
81,45,187080,120
80,45,187200,960
68,40,187200,960
65,33,188160,960
77,44,188160,960
68,31,189120,240
80,44,189120,240
66,31,189360,240
78,44,189360,240
65,33,189600,240
77,44,189600,240
66,31,189840,240
78,44,189840,240
68,39,190080,960
80,50,190080,960
85,53,191040,240
73,40,191040,240
72,38,191280,240
84,49,191280,240
75,41,191520,240
87,55,191520,240
89,50,191760,240
77,39,191760,240
85,50,192000,960
73,47,192000,960
59,26,193920,30
62,22,193950,30
59,26,193980,30
62,22,194010,30
59,27,194040,30
62,22,194070,30
59,27,194100,30
62,20,194130,30
59,27,194160,30
62,23,194190,30
59,28,194220,30
62,24,194250,30
59,28,194280,30
62,23,194310,30
59,29,194340,30
62,23,194370,30
59,29,194400,30
62,25,194430,30
59,29,194460,30
62,25,194490,30
59,29,194520,30
62,25,194550,30
59,29,194580,30
62,24,194610,30
59,30,194640,30
62,26,194670,30
59,30,194700,30
62,27,194730,30
59,31,194760,30
62,26,194790,30
59,31,194820,30
62,25,194850,30
59,33,194880,30
62,27,194910,30
59,31,194940,30
62,27,194970,30
59,31,195000,30
62,26,195030,30
59,30,195060,30
62,24,195090,30
59,30,195120,30
62,26,195150,30
59,29,195180,30
62,25,195210,30
59,29,195240,30
62,24,195270,30
59,29,195300,30
62,23,195330,30
59,29,195360,30
62,25,195390,30
59,29,195420,30
62,24,195450,30
59,28,195480,30
62,23,195510,30
59,28,195540,30
62,22,195570,30
59,27,195600,30
62,23,195630,30
59,27,195660,30
62,23,195690,30
59,27,195720,30
62,20,195750,30
59,26,195780,30
62,22,195810,30
71,33,195840,960
83,49,195840,960
71,31,196800,475
83,44,196800,475
71,33,197280,475
83,44,197280,475
71,39,197760,840
83,50,197760,840
72,40,198600,120
84,45,198600,120
83,45,198720,960
71,40,198720,960
68,33,199680,960
80,44,199680,960
71,31,200640,240
83,44,200640,240
69,31,200880,240
81,44,200880,240
68,33,201120,240
80,44,201120,240
69,31,201360,240
81,44,201360,240
71,39,201600,960
83,50,201600,960
88,53,202560,240
76,40,202560,240
75,38,202800,240
87,49,202800,240
78,41,203040,240
90,55,203040,240
92,50,203280,240
80,39,203280,240
88,50,203520,960
76,47,203520,960
69,33,205440,960
72,33,205440,960
76,50,205440,960
69,34,206400,960
76,53,206400,240
72,34,206400,960
75,49,206640,240
76,55,206880,240
78,50,207120,240
71,47,207360,960
80,50,207360,960
68,47,207360,960
57,26,209280,960
60,26,209280,960
64,39,209280,960
57,26,210240,960
64,42,210240,240
60,26,210240,960
63,39,210480,240
64,44,210720,240
66,39,210960,240
59,29,211200,960
68,39,211200,960
56,26,211200,960
37,20,0,960
40,20,0,960
44,20,0,960
49,26,0,960
37,22,960,475
40,22,960,475
44,22,960,475
49,26,960,475
37,23,1440,475
40,23,1440,475
44,23,1440,475
49,27,1440,475
44,25,1920,1920
48,30,1920,1920
36,25,1920,1920
39,25,1920,1920
37,27,3840,960
44,27,3840,960
49,33,3840,960
40,27,3840,960
33,33,4800,960
37,33,4800,960
42,33,4800,960
45,39,4800,960
32,29,5760,1920
36,30,5790,1890
39,34,5820,1860
44,36,5850,1830
37,24,7680,960
40,24,7680,960
44,24,7680,960
49,29,7680,960
37,26,8640,475
40,26,8640,475
44,26,8640,475
49,30,8640,475
37,28,9120,475
40,28,9120,475
44,28,9120,475
49,34,9120,475
42,33,9600,1440
30,27,9600,1440
33,22,11040,480
45,27,11040,480
32,24,11520,960
44,29,11520,960
32,26,12480,960
44,31,12480,960
40,25,13440,1440
44,25,13440,1440
49,30,13440,1440
37,25,13440,1440
37,20,15360,960
40,20,15360,960
44,20,15360,960
49,26,15360,960
37,22,16320,475
40,22,16320,475
44,22,16320,475
49,26,16320,475
37,23,16800,475
40,23,16800,475
44,23,16800,475
49,27,16800,475
44,25,17280,1920
48,30,17280,1920
36,25,17280,1920
39,25,17280,1920
37,27,19200,960
44,27,19200,960
49,33,19200,960
40,27,19200,960
33,33,20160,960
37,33,20160,960
42,33,20160,960
45,39,20160,960
32,29,21120,1920
36,30,21150,1890
39,34,21180,1860
44,36,21210,1830
37,24,23040,960
49,29,23040,960
37,26,24000,475
49,30,24000,475
37,28,24480,475
49,34,24480,475
42,33,24960,1440
30,27,24960,1440
33,22,26400,480
45,27,26400,480
35,24,26880,960
47,29,26880,960
47,26,27840,960
54,31,27840,960
40,25,28800,1440
47,25,28800,1440
52,30,28800,1440
52,26,30720,1920
56,27,30720,260
57,22,30960,260
56,27,31200,260
57,19,31440,260
59,27,31680,260
57,19,31920,260
59,27,32160,260
56,20,32400,240
47,30,32640,1920
54,27,32640,260
56,19,32880,260
54,27,33120,260
56,18,33360,260
57,27,33600,260
56,19,33840,260
57,27,34080,260
54,19,34320,240
56,27,34560,260
52,33,34560,1700
57,18,34800,260
56,27,35040,260
57,19,35280,260
59,27,35520,260
56,19,35760,260
52,27,36000,260
56,19,36240,240
59,27,36480,260
47,30,36480,1920
61,22,36720,260
59,27,36960,260
54,19,37200,260
51,27,37440,260
50,19,37680,260
51,27,37920,260
57,20,38160,240
56,27,38400,260
52,26,38400,740
54,22,38640,260
52,27,38880,260
54,19,39120,260
56,27,39360,260
55,19,39600,260
56,27,39840,260
52,20,40080,240
44,30,40320,1920
54,27,40320,260
52,19,40560,260
51,27,40800,260
52,18,41040,260
54,27,41280,260
52,19,41520,260
54,27,41760,260
51,19,42000,240
49,39,42240,720
45,33,42240,1920
51,36,42960,240
52,41,43200,1200
44,33,44160,720
51,40,44400,240
48,40,44640,240
44,40,44880,240
52,45,45120,1200
45,33,45120,960
44,33,46080,718
51,37,46320,240
48,37,46560,240
44,36,46800,1680
52,42,47040,1200
45,31,47040,960
51,31,48240,260
48,35,48480,260
44,38,48720,240
56,45,48960,260
54,38,49200,260
47,33,49440,480
51,30,49440,260
57,31,49680,240
56,27,49920,260
52,26,49920,1920
57,22,50160,260
56,27,50400,260
57,19,50640,260
59,27,50880,260
57,19,51120,260
59,27,51360,260
56,20,51600,240
54,27,51840,240
47,30,51840,1920
56,19,52080,260
54,27,52320,240
56,18,52560,260
57,27,52800,260
56,19,53040,260
57,27,53280,260
54,19,53520,240
56,27,53760,260
52,33,53760,1700
57,18,54000,260
56,27,54240,260
57,19,54480,260
59,27,54720,260
56,19,54960,260
52,27,55200,260
56,19,55440,240
59,27,55680,260
47,30,55680,1440
61,22,55920,260
59,27,56160,260
54,19,56400,260
59,27,56640,239
51,19,56880,240
45,30,57120,480
52,27,57120,260
51,20,57360,240
51,27,57600,260
44,26,57600,960
48,22,57840,260
47,27,58080,260
48,19,58320,240
42,26,58560,480
49,30,58560,260
52,25,58800,260
51,30,59040,260
42,26,59040,480
52,25,59280,240
44,30,59520,960
51,27,59520,260
48,19,59760,260
47,27,60000,260
48,18,60240,260
42,26,60480,480
49,33,60480,260
52,22,60720,260
42,26,60960,480
51,29,60960,260
52,20,61200,240
44,26,61440,480
51,26,61440,480
56,26,61920,1920
44,26,63840,1440
37,27,65280,140
36,22,65400,140
37,27,65520,140
36,23,65640,140
37,28,65760,140
36,25,65880,140
37,28,66000,140
36,26,66120,140
37,29,66240,140
36,23,66360,140
37,29,66480,140
36,25,66600,140
37,30,66720,140
36,27,66840,140
37,30,66960,140
36,28,67080,120
37,31,67200,140
36,25,67320,140
37,31,67440,140
36,27,67560,140
37,32,67680,140
36,28,67800,140
37,31,67920,140
36,29,68040,140
37,30,68160,140
36,24,68280,140
37,29,68400,140
36,25,68520,140
37,28,68640,140
36,25,68760,140
37,28,68880,140
35,25,69000,140
33,27,69120,140
32,22,69240,140
33,27,69360,140
32,23,69480,140
33,27,69600,140
32,25,69720,140
33,29,69840,140
32,26,69960,140
33,30,70080,140
32,23,70200,140
33,30,70320,140
32,25,70440,140
33,31,70560,140
32,27,70680,140
33,31,70800,140
32,27,70920,120
33,32,71040,140
32,25,71160,140
33,32,71280,140
32,26,71400,140
33,32,71520,140
32,27,71640,140
33,32,71760,140
32,27,71880,140
33,32,72000,140
32,25,72120,140
33,32,72240,140
32,26,72360,140
33,32,72480,140
32,27,72600,140
33,32,72720,140
32,27,72840,140
30,32,72960,140
29,25,73080,140
30,32,73200,140
29,26,73320,140
30,33,73440,140
29,27,73560,140
30,33,73680,140
29,29,73800,140
30,34,73920,140
29,26,74040,140
30,34,74160,140
29,28,74280,140
30,35,74400,140
29,30,74520,140
30,37,74640,140
29,33,74760,120
30,38,74880,120
29,30,75000,120
30,39,75120,120
32,33,75240,120
33,40,75360,120
32,35,75480,120
33,41,75600,120
37,37,75720,120
38,42,75840,120
37,34,75960,120
38,44,76080,120
41,36,76200,120
42,45,76320,120
41,38,76440,120
42,45,76560,120
45,40,76680,120
44,50,76800,120
43,51,76920,120
44,51,77040,120
43,52,77160,120
44,53,77280,120
43,55,77400,120
44,55,77520,120
42,57,77640,120
40,58,77760,120
39,59,77880,120
40,59,78000,120
39,60,78120,120
40,61,78240,120
39,63,78360,120
40,64,78480,120
39,64,78600,120
37,66,78720,120
36,67,78840,120
37,69,78960,120
36,69,79080,120
37,70,79200,120
36,71,79320,120
37,72,79440,120
35,74,79560,120
33,74,79680,120
32,75,79800,120
33,78,79920,120
32,79,80040,120
33,79,80160,120
37,81,80280,120
39,82,80400,120
45,83,80520,120
32,80,80640,480
44,94,80640,480
32,69,81360,120
44,82,81360,120
40,74,81600,120
52,88,81600,120
32,67,82320,240
44,80,82320,240
57,88,82560,240
45,74,82560,240
32,74,83280,240
44,89,83280,240
44,79,83520,240
56,93,83520,240
44,79,84240,120
56,93,84240,120
44,79,84360,120
56,93,84360,120
54,80,84480,480
66,94,84480,480
44,69,85200,114
56,82,85200,114
44,69,85320,114
56,82,85320,114
52,74,85440,240
64,88,85440,240
44,67,86160,114
56,80,86160,114
44,67,86280,114
56,80,86280,114
69,88,86400,240
57,74,86400,240
44,74,87120,114
56,89,87120,114
44,74,87240,114
56,89,87240,114
56,79,87360,240
68,93,87360,240
56,74,88080,114
68,89,88080,114
56,75,88200,114
68,90,88200,114
66,93,88320,240
54,79,88320,240
54,69,88680,120
66,82,88680,120
51,75,88800,240
63,90,88800,240
63,78,89160,120
51,66,89160,120
48,73,89280,240
60,86,89280,240
48,63,89640,120
60,75,89640,120
44,69,89760,240
56,82,89760,240
44,61,90120,120
56,73,90120,120
45,70,90240,240
57,84,90240,240
33,67,90600,114
45,79,90600,114
33,74,90720,240
45,89,90720,240
33,72,91080,114
45,85,91080,114
33,79,91200,240
45,93,91200,240
33,74,91560,120
45,88,91560,120
32,84,91680,240
44,100,91680,240
44,45,91920,120
56,53,91920,120
44,45,92040,120
56,53,92040,120
54,58,92160,240
42,49,92160,240
42,45,92520,114
54,53,92520,114
39,48,92640,240
51,57,92640,240
51,51,93000,114
39,42,93000,114
36,47,93120,240
48,56,93120,240
36,42,93480,114
48,50,93480,114
32,46,93600,240
44,55,93600,240
32,41,93960,114
44,49,93960,114
33,45,94080,240
45,53,94080,240
33,39,94440,114
45,47,94440,114
33,44,94560,240
45,52,94560,240
33,39,94920,114
45,47,94920,114
33,42,95040,240
45,50,95040,240
33,56,95400,114
45,66,95400,114
32,59,95520,240
44,70,95520,240
44,56,95760,114
44,56,95880,114
45,49,96000,120
48,53,96480,120
45,49,96960,120
48,46,97440,120
44,39,97920,120
51,36,98400,120
44,33,98880,120
51,29,99360,120
49,34,99840,80
56,29,100000,160
61,29,100160,160
65,29,100320,160
61,29,100480,160
56,29,100640,160
49,34,100800,80
56,29,100960,160
61,29,101120,160
65,29,101280,160
61,29,101440,160
56,29,101600,160
48,34,101760,80
56,30,101920,160
63,30,102080,160
66,30,102240,160
63,30,102400,160
56,30,102560,160
48,34,102720,80
56,30,102880,160
63,30,103040,160
66,29,103200,160
63,29,103360,160
56,29,103520,160
49,34,103680,80
56,29,103840,160
61,29,104000,160
65,29,104160,160
61,29,104320,160
56,29,104480,160
46,34,104640,80
61,29,104800,160
63,29,104960,160
51,29,105120,160
61,29,105280,160
63,29,105440,160
44,34,105600,80
56,30,105760,160
60,30,105920,160
63,30,106080,160
60,30,106240,160
56,30,106400,160
44,42,106560,80
60,30,106720,160
63,30,106880,160
66,36,107040,160
63,33,107200,160
60,30,107360,160
49,34,107520,80
56,29,107680,160
61,29,107840,160
65,29,108000,160
61,29,108160,160
56,29,108320,160
49,39,108480,80
59,33,108640,160
61,33,108800,160
65,41,108960,160
61,35,109120,160
59,36,109280,160
42,42,109440,80
56,33,109600,160
62,33,109760,160
65,34,109920,160
62,31,110080,160
56,30,110240,160
42,40,110400,80
58,34,110560,160
61,30,110720,160
66,29,110880,160
61,29,111040,160
58,29,111200,160
49,34,111360,80
53,29,111520,160
56,29,111680,160
61,29,111840,160
56,29,112000,160
53,29,112160,160
44,34,112320,80
54,29,112480,160
56,29,112640,160
60,29,112800,160
56,29,112960,160
54,29,113120,160
49,34,113280,80
53,30,113440,160
56,30,113600,160
61,30,113760,160
56,30,113920,160
53,30,114080,160
56,34,114240,160
53,30,114400,160
49,30,114560,160
53,29,114720,160
49,29,114880,160
44,29,115040,160
37,37,115200,160
64,31,115360,80
61,24,115360,80
56,24,115360,80
64,31,115520,80
61,24,115520,80
56,24,115520,80
61,37,115680,320
56,29,115680,320
63,31,115680,160
64,40,115840,160
61,24,116000,80
56,24,116000,80
64,31,116000,80
37,37,116160,160
64,31,116320,80
61,24,116320,80
56,24,116320,80
64,31,116480,80
61,24,116480,80
56,24,116480,80
61,29,116640,320
56,29,116640,320
63,40,116640,160
64,40,116800,160
61,24,116960,80
56,24,116960,80
64,31,116960,80
37,37,117120,160
56,24,117280,80
66,31,117280,80
63,24,117280,80
60,24,117280,80
56,24,117440,80
66,31,117440,80
63,24,117440,80
60,24,117440,80
60,29,117600,320
63,29,117600,320
56,29,117600,320
65,40,117600,160
66,40,117760,160
60,29,117920,80
63,24,117920,80
56,24,117920,80
66,31,117920,80
37,37,118080,160
56,24,118240,80
66,31,118240,80
63,24,118240,80
60,24,118240,80
56,24,118400,80
66,31,118400,80
63,24,118400,80
60,24,118400,80
60,29,118560,320
63,29,118560,320
56,29,118560,320
65,40,118560,160
66,40,118720,160
60,29,118880,80
63,24,118880,80
56,24,118880,80
66,31,118880,80
37,37,119040,160
64,29,119200,80
61,24,119200,80
56,26,119200,80
64,29,119360,80
61,24,119360,80
56,26,119360,80
61,29,119520,320
55,40,119520,160
64,29,119520,320
56,40,119680,160
61,24,119840,80
56,26,119840,80
64,29,119840,80
45,37,120000,160
61,31,120160,80
57,24,120160,80
61,31,120320,80
57,24,120320,80
57,29,120480,320
60,40,120480,160
61,40,120640,160
57,24,120800,80
61,31,120800,80
44,37,120960,160
56,26,121120,80
63,29,121120,80
60,24,121120,80
56,26,121280,80
63,29,121280,80
60,24,121280,80
60,29,121440,320
55,40,121440,160
63,29,121440,320
56,31,121600,160
60,24,121760,80
56,31,121760,80
63,24,121760,80
48,37,121920,160
56,24,122080,80
66,31,122080,80
63,24,122080,80
56,24,122240,80
66,31,122240,80
63,24,122240,80
63,29,122400,160
56,29,122400,160
65,40,122400,160
56,29,122560,160
63,29,122560,160
66,40,122560,160
63,24,122720,80
56,24,122720,80
66,31,122720,80
49,37,122880,160
64,31,123040,80
61,24,123040,80
56,24,123040,80
64,31,123200,80
61,24,123200,80
56,24,123200,80
61,30,123360,320
56,30,123360,320
63,40,123360,160
64,41,123520,160
61,25,123680,80
56,25,123680,80
64,33,123680,80
49,39,123840,160
59,25,124000,80
65,30,124000,80
61,27,124000,80
56,25,124000,80
59,27,124160,80
65,31,124160,80
61,29,124160,80
56,27,124160,80
65,35,124320,320
59,35,124320,320
56,35,124320,320
62,44,124320,160
61,47,124480,160
59,36,124640,80
61,38,124640,80
56,29,124640,80
65,29,124640,80
42,64,124800,160
57,31,124960,80
66,37,124960,80
61,33,124960,80
57,31,125120,80
66,37,125120,80
61,33,125120,80
66,34,125280,320
57,34,125280,320
60,45,125280,160
61,45,125440,160
57,34,125600,80
61,36,125600,80
66,27,125600,80
45,41,125760,160
66,33,125920,80
60,29,125920,80
57,27,125920,80
66,33,126080,80
60,29,126080,80
57,27,126080,80
66,34,126240,320
57,34,126240,320
59,45,126240,160
60,45,126400,160
60,36,126560,80
57,27,126560,80
66,27,126560,80
47,41,126720,160
64,33,126880,80
59,27,126880,80
56,27,126880,80
64,33,127040,80
59,27,127040,80
56,27,127040,80
59,34,127200,320
56,34,127200,320
66,41,127200,160
64,41,127360,160
59,27,127520,80
56,27,127520,80
64,33,127520,80
47,41,127680,160
59,27,127840,80
63,33,127840,80
57,27,127840,80
59,27,128000,80
63,33,128000,80
57,27,128000,80
59,34,128160,320
57,34,128160,320
64,41,128160,160
63,41,128320,160
59,34,128480,80
57,27,128480,80
63,33,128480,80
52,41,128640,160
56,27,128800,80
59,33,128800,80
56,26,128960,80
59,31,128960,80
58,33,129120,160
56,40,129120,320
59,33,129280,160
59,26,129440,80
56,30,129440,80
44,39,129600,160
54,24,129760,80
60,29,129760,80
56,24,129760,80
54,23,129920,80
60,28,129920,80
56,23,129920,80
56,27,130080,320
54,27,130080,320
61,34,130080,160
60,32,130240,160
56,20,130400,80
54,20,130400,80
60,24,130400,80
37,33,130560,120
44,27,130800,120
49,27,131040,120
53,27,131280,120
37,33,131520,120
44,29,131760,120
49,29,132000,120
53,29,132240,120
32,33,132480,120
44,33,132720,120
51,28,132960,120
54,28,133200,120
32,33,133440,120
44,27,133680,120
51,27,133920,120
54,27,134160,120
37,33,134400,120
44,27,134640,240
49,27,134880,240
53,27,135120,240
34,33,135360,240
49,33,135600,240
39,28,135840,240
51,28,136080,240
32,33,136320,240
44,27,136560,240
48,29,136800,240
51,31,137040,240
32,36,137280,240
44,33,137520,240
51,33,137760,240
54,29,138000,240
37,33,138240,240
44,28,138480,240
49,29,138720,240
53,29,138960,240
37,34,139200,240
47,30,139440,240
49,30,139680,240
53,30,139920,240
30,35,140160,240
47,29,140400,240
50,29,140640,240
53,29,140880,240
30,33,141120,240
46,29,141360,240
49,28,141600,240
54,28,141840,240
32,33,142080,240
41,29,142320,240
44,29,142560,240
49,29,142800,240
32,33,143040,240
42,29,143280,240
44,29,143520,240
48,29,143760,240
37,33,144000,240
41,30,144240,240
44,31,144480,240
49,34,144720,240
33,40,144960,240
45,35,145200,240
32,31,145440,240
44,28,145680,240
37,33,145920,120
56,22,146040,120
64,17,146160,120
68,33,146160,120
61,17,146160,120
56,22,146280,120
64,17,146400,120
68,33,146400,120
61,17,146400,120
56,22,146520,120
64,17,146640,120
61,17,146640,120
68,33,146640,120
56,22,146760,120
37,33,146880,120
56,22,147000,120
64,17,147120,120
68,33,147120,120
61,17,147120,120
56,22,147240,120
64,17,147360,120
68,33,147360,120
61,17,147360,120
56,22,147480,120
61,17,147600,120
68,33,147600,120
64,17,147600,120
56,22,147720,120
44,33,147840,120
32,27,147840,120
56,22,147960,120
66,17,148080,120
68,37,148080,120
60,17,148080,120
56,22,148200,120
66,17,148320,120
68,40,148320,120
60,17,148320,120
56,22,148440,120
66,17,148560,120
60,17,148560,120
69,41,148560,120
56,22,148680,120
44,33,148800,120
32,27,148800,120
56,22,148920,120
66,17,149040,120
60,17,149040,120
68,33,149040,120
56,22,149160,120
66,17,149280,120
60,17,149280,120
68,33,149280,120
56,22,149400,120
66,17,149520,120
60,17,149520,120
68,33,149520,120
56,22,149640,120
37,33,149760,120
56,22,149880,120
64,33,150000,120
61,17,150000,120
56,22,150120,120
64,33,150240,120
61,17,150240,120
56,22,150360,120
61,17,150480,120
64,33,150480,120
56,22,150600,120
45,41,150720,120
57,24,150840,120
66,45,150960,120
61,19,150960,120
57,25,151080,120
64,51,151200,120
61,20,151200,120
57,26,151320,120
61,22,151440,120
66,52,151440,120
57,28,151560,120
44,49,151680,120
56,27,151800,120
63,22,151920,120
68,45,151920,120
60,22,151920,120
56,26,152040,120
63,20,152160,120
68,43,152160,120
60,20,152160,120
56,25,152280,120
63,19,152400,120
60,19,152400,120
68,42,152400,120
56,24,152520,120
44,37,152640,120
56,22,152760,120
66,17,152880,120
60,17,152880,120
68,40,152880,120
56,22,153000,120
66,17,153120,120
60,17,153120,120
69,42,153120,120
56,22,153240,120
66,17,153360,120
60,17,153360,120
68,40,153360,120
56,22,153480,120
37,33,153600,120
56,22,153720,120
64,17,153840,120
68,33,153840,120
61,17,153840,120
56,22,153960,120
64,17,154080,120
68,33,154080,120
61,17,154080,120
56,22,154200,120
64,17,154320,120
61,17,154320,120
68,33,154320,120
56,22,154440,120
37,33,154560,120
56,22,154680,120
64,17,154800,120
68,33,154800,120
61,17,154800,120
56,22,154920,120
64,17,155040,120
68,33,155040,120
61,17,155040,120
56,22,155160,120
61,17,155280,120
68,33,155280,120
64,17,155280,120
56,22,155400,120
42,46,155520,120
62,28,155640,120
68,22,155760,120
71,46,155760,120
65,22,155760,120
62,26,155880,120
68,20,156000,120
71,43,156000,120
65,20,156000,120
62,25,156120,120
68,19,156240,120
65,19,156240,120
71,42,156240,120
62,24,156360,120
42,33,156480,120
61,22,156600,120
66,17,156720,120
69,33,156720,120
61,22,156840,120
57,17,156960,120
66,33,156960,120
61,22,157080,120
57,17,157200,120
66,33,157200,120
60,22,157320,120
47,33,157440,120
59,22,157560,120
64,33,157680,120
56,17,157680,120
59,22,157800,120
64,33,157920,120
56,17,157920,120
59,22,158040,120
56,17,158160,120
64,33,158160,120
59,22,158280,120
47,41,158400,120
59,24,158520,120
63,19,158640,120
68,45,158640,120
57,19,158640,120
59,25,158760,120
63,20,158880,120
68,51,158880,120
57,20,158880,120
59,26,159000,120
63,22,159120,120
57,22,159120,120
66,52,159120,120
59,28,159240,120
40,42,159360,120
59,27,159480,120
64,45,159600,120
56,22,159600,120
59,26,159720,120
64,43,159840,120
56,20,159840,120
59,25,159960,120
56,19,160080,120
64,42,160080,120
59,24,160200,120
56,22,160320,120
64,49,160320,120
80,67,161040,60
79,68,161100,60
80,69,161160,60
81,70,161220,60
78,72,161280,120
81,64,161340,60
76,68,161400,120
81,64,161460,60
75,68,161520,120
81,64,161580,60
73,68,161640,120
81,64,161700,60
72,72,161760,120
75,64,161820,60
69,68,161880,120
75,64,161940,60
68,68,162000,120
75,64,162060,60
67,68,162120,120
75,64,162180,60
66,72,162240,120
69,64,162300,60
64,68,162360,120
69,64,162420,60
63,68,162480,120
69,66,162540,60
61,69,162600,120
69,66,162660,60
60,73,162720,120
63,67,162780,60
57,70,162840,120
63,67,162900,60
56,71,162960,120
63,68,163020,60
55,71,163080,120
63,69,163140,60
54,77,163200,60
57,69,163260,60
52,72,163320,60
57,69,163380,60
51,73,163440,60
57,70,163500,60
49,74,163560,60
57,70,163620,60
48,80,163680,60
51,71,163740,60
45,75,163800,60
51,72,163860,60
44,77,163920,60
51,72,163980,60
43,77,164040,60
51,73,164100,60
42,73,164160,60
45,66,164220,60
39,71,164280,60
45,68,164340,60
37,73,164400,60
45,70,164460,60
36,74,164520,60
45,71,164580,60
42,73,164640,60
45,66,164700,60
39,71,164760,60
45,68,164820,60
37,73,164880,60
45,70,164940,60
36,74,165000,60
45,71,165060,60
42,73,165120,60
45,66,165180,60
38,70,165240,60
45,67,165300,60
37,71,165360,60
45,67,165420,60
36,71,165480,60
45,68,165540,60
42,69,165600,60
45,62,165660,60
38,66,165720,60
45,62,165780,60
37,68,165840,60
45,63,165900,60
36,69,165960,60
45,63,166020,60
37,66,166080,60
45,59,166140,60
40,63,166200,60
45,62,166260,60
42,67,166320,60
45,64,166380,60
43,69,166440,60
45,67,166500,60
42,73,166560,60
45,64,166620,60
40,67,166680,60
45,63,166740,60
38,64,166800,60
45,61,166860,60
36,63,166920,60
46,60,166980,60
35,66,167040,60
47,59,167100,60
39,63,167160,60
47,62,167220,60
42,67,167280,60
47,64,167340,60
45,69,167400,60
47,67,167460,60
44,73,167520,60
47,64,167580,60
42,67,167640,60
47,63,167700,60
40,64,167760,60
47,61,167820,60
38,63,167880,60
48,60,167940,60
37,66,168000,60
49,59,168060,60
41,63,168120,60
49,62,168180,60
44,67,168240,60
49,64,168300,60
47,69,168360,60
49,67,168420,60
46,73,168480,60
49,64,168540,60
44,67,168600,60
49,63,168660,60
42,64,168720,60
49,61,168780,60
40,63,168840,60
50,60,168900,60
39,66,168960,60
51,59,169020,60
43,63,169080,60
51,62,169140,60
46,67,169200,60
51,64,169260,60
49,69,169320,60
51,67,169380,60
48,74,169440,60
51,66,169500,60
46,69,169560,60
51,64,169620,60
44,67,169680,60
51,64,169740,60
42,68,169800,60
52,62,169860,60
41,69,169920,60
53,62,169980,60
45,68,170040,60
53,64,170100,60
48,70,170160,60
53,69,170220,60
51,74,170280,60
53,72,170340,60
50,79,170400,60
53,71,170460,60
48,77,170520,60
54,72,170580,60
47,77,170640,60
55,72,170700,60
53,77,170760,60
55,72,170820,60
52,83,170880,60
55,73,170940,60
50,78,171000,60
56,74,171060,60
49,79,171120,60
57,74,171180,60
55,79,171240,60
57,77,171300,60
54,84,171360,60
57,77,171420,60
52,80,171480,60
58,77,171540,60
51,81,171600,60
59,77,171660,60
57,82,171720,60
59,78,171780,60
56,88,171840,60
59,78,171900,60
54,82,171960,60
60,78,172020,60
53,84,172080,60
61,80,172140,60
59,84,172200,60
61,80,172260,60
59,79,172320,60
61,80,172380,60
59,80,172440,60
61,81,172500,60
59,82,172560,60
61,79,172620,60
59,77,172680,60
61,75,172740,60
59,84,172800,60
61,75,172860,60
56,80,172920,60
61,77,172980,60
54,81,173040,60
61,78,173100,60
53,82,173160,60
61,79,173220,60
59,89,173280,60
62,80,173340,60
56,84,173400,60
62,80,173460,60
54,85,173520,60
62,82,173580,60
53,86,173640,60
62,83,173700,60
68,78,173760,180
74,93,173760,180
71,78,173760,180
65,78,173760,180
68,70,173940,57
71,84,173940,57
62,70,173940,57
65,70,173940,57
71,91,174000,180
62,78,174000,180
65,78,174000,180
68,78,174000,180
65,70,174180,57
59,70,174180,57
62,70,174180,57
68,84,174180,57
62,78,174240,180
59,78,174240,180
65,78,174240,180
68,91,174240,180
65,80,174420,57
56,68,174420,57
59,68,174420,57
62,68,174420,57
62,73,174480,60
56,73,174480,60
59,73,174480,60
65,88,174480,60
53,68,174600,60
56,68,174600,60
59,68,174600,60
62,80,174600,60
59,84,174720,60
61,75,174780,60
56,80,174840,60
61,77,174900,60
54,81,174960,60
61,78,175020,60
53,82,175080,60
61,79,175140,60
59,89,175200,60
62,80,175260,60
56,84,175320,60
62,80,175380,60
54,85,175440,60
62,82,175500,60
53,86,175560,60
62,83,175620,60
68,78,175680,180
74,93,175680,180
71,78,175680,180
65,78,175680,180
68,70,175860,57
71,84,175860,57
62,70,175860,57
65,70,175860,57
71,91,175920,180
62,78,175920,180
65,78,175920,180
68,78,175920,180
65,70,176100,57
59,70,176100,57
62,70,176100,57
68,84,176100,57
62,78,176160,180
59,78,176160,180
65,78,176160,180
68,91,176160,180
65,80,176340,57
56,68,176340,57
59,68,176340,57
62,68,176340,57
62,73,176400,60
56,73,176400,60
59,73,176400,60
65,88,176400,60
53,68,176520,60
56,68,176520,60
59,68,176520,60
62,80,176520,60
48,79,176640,180
36,66,176640,180
51,71,176820,57
39,59,176820,57
51,77,176880,180
39,66,176880,180
42,59,177060,57
54,71,177060,57
42,66,177120,180
54,77,177120,180
57,68,177300,57
45,57,177300,57
45,61,177360,60
57,74,177360,60
48,57,177480,60
60,68,177480,60
49,79,177600,180
37,66,177600,180
54,71,177780,57
42,59,177780,57
54,77,177840,180
42,66,177840,180
45,59,178020,57
57,71,178020,57
45,66,178080,180
57,77,178080,180
61,68,178260,57
49,57,178260,57
49,61,178320,60
61,74,178320,60
54,68,178440,60
48,79,178560,180
36,66,178560,180
51,71,178740,57
39,59,178740,57
51,77,178800,180
39,66,178800,180
42,59,178980,57
54,71,178980,57
42,66,179040,180
54,77,179040,180
57,68,179220,57
45,57,179220,57
45,61,179280,60
57,74,179280,60
48,57,179400,60
60,68,179400,60
44,82,179520,180
32,69,179520,180
48,74,179700,57
36,61,179700,57
48,79,179760,180
36,68,179760,180
39,60,179940,60
51,72,179940,57
39,67,180000,180
51,79,180000,180
56,69,180180,57
44,58,180180,57
44,62,180240,60
56,75,180240,60
48,61,180360,60
60,68,180360,60
49,62,180480,120
61,75,180480,120
44,75,180600,60
49,66,180660,60
41,75,180720,60
49,66,180780,60
37,74,180840,60
49,67,180900,60
48,75,180960,60
49,64,181020,60
44,72,181080,60
49,62,181140,60
41,69,181200,60
49,59,181260,60
37,66,181320,60
49,56,181380,60
48,62,181440,60
49,55,181500,60
44,60,181560,60
49,51,181620,60
41,56,181680,60
49,47,181740,60
37,52,181800,60
49,45,181860,60
48,50,181920,60
49,42,181980,60
44,47,182040,60
49,40,182100,60
41,44,182160,60
49,37,182220,60
37,40,182280,60
49,34,182340,60
48,33,182400,60
49,29,182460,60
44,33,182520,60
49,29,182580,60
41,33,182640,60
49,29,182700,60
37,33,182760,60
49,29,182820,60
48,33,182880,60
49,29,182940,60
44,33,183000,60
49,29,183060,60
41,33,183120,60
49,29,183180,60
37,33,183240,60
49,29,183300,60
48,33,183360,60
49,29,183420,60
44,33,183480,60
49,29,183540,60
41,33,183600,60
49,29,183660,60
37,33,183720,60
49,29,183780,60
48,33,183840,60
49,28,183900,60
44,29,183960,60
49,26,184020,60
41,27,184080,60
49,23,184140,60
37,25,184200,60
49,20,184260,60
47,39,184320,60
50,32,184380,60
44,36,184440,60
50,30,184500,60
42,34,184560,60
50,27,184620,60
41,32,184680,60
50,26,184740,60
47,39,184800,60
50,33,184860,60
44,36,184920,60
50,30,184980,60
42,34,185040,60
50,28,185100,60
41,32,185160,60
50,26,185220,60
47,33,185280,60
50,28,185340,60
44,32,185400,60
50,27,185460,60
42,31,185520,60
50,26,185580,60
41,31,185640,60
50,26,185700,60
47,30,185760,60
50,26,185820,60
44,30,185880,60
50,26,185940,60
42,30,186000,60
50,25,186060,60
40,31,186120,60
49,26,186180,60
39,32,186240,60
48,28,186300,60
42,32,186360,60
48,27,186420,60
44,33,186480,60
48,26,186540,60
36,31,186600,60
48,26,186660,60
39,30,186720,60
48,26,186780,60
42,30,186840,60
48,26,186900,60
44,35,186960,60
48,25,187020,60
36,31,187080,60
48,26,187140,60
39,30,187200,60
48,26,187260,60
42,30,187320,60
48,26,187380,60
44,34,187440,60
48,25,187500,60
36,31,187560,60
48,26,187620,60
39,30,187680,60
48,26,187740,60
42,30,187800,60
48,26,187860,60
44,33,187920,60
48,25,187980,60
36,31,188040,60
48,26,188100,60
37,30,188160,60
49,26,188220,60
41,31,188280,60
49,29,188340,60
44,34,188400,60
49,29,188460,60
48,37,188520,60
49,32,188580,60
37,30,188640,60
49,26,188700,60
41,31,188760,60
49,28,188820,60
44,34,188880,60
49,29,188940,60
48,37,189000,60
49,33,189060,60
46,30,189120,60
58,26,189180,60
49,30,189240,60
58,26,189300,60
54,31,189360,60
58,26,189420,60
57,33,189480,60
58,28,189540,60
46,32,189600,60
58,26,189660,60
49,30,189720,60
58,27,189780,60
54,31,189840,60
58,26,189900,60
57,33,189960,60
58,28,190020,60
44,30,190080,60
56,26,190140,60
49,31,190200,60
56,27,190260,60
53,32,190320,60
56,27,190380,60
55,34,190440,60
56,29,190500,60
44,30,190560,60
56,26,190620,60
49,31,190680,60
56,27,190740,60
53,32,190800,60
56,27,190860,60
55,34,190920,60
56,29,190980,60
44,30,191040,60
56,26,191100,60
51,30,191160,60
56,27,191220,60
54,31,191280,60
56,26,191340,60
55,33,191400,60
56,28,191460,60
44,30,191520,60
56,26,191580,60
51,30,191640,60
56,27,191700,60
54,31,191760,60
56,26,191820,60
55,33,191880,60
56,28,191940,60
48,37,192000,60
49,32,192060,60
44,35,192120,60
49,30,192180,60
41,33,192240,60
49,29,192300,60
37,30,192360,60
49,26,192420,60
48,36,192480,60
49,32,192540,60
44,35,192600,60
49,30,192660,60
41,33,192720,60
49,29,192780,60
37,30,192840,60
49,26,192900,60
48,31,192960,60
49,28,193020,60
44,31,193080,60
49,27,193140,60
41,30,193200,60
49,27,193260,60
37,29,193320,60
49,26,193380,60
48,31,193440,60
49,28,193500,60
44,31,193560,60
49,27,193620,60
41,30,193680,60
49,27,193740,60
37,29,193800,60
49,26,193860,60
48,29,193920,60
49,28,193980,60
44,31,194040,60
49,27,194100,60
41,30,194160,60
49,27,194220,60
37,29,194280,60
49,26,194340,60
48,31,194400,60
49,28,194460,60
44,31,194520,60
49,27,194580,60
41,30,194640,60
49,27,194700,60
37,29,194760,60
49,26,194820,60
48,29,194880,60
49,26,194940,60
44,29,195000,60
49,26,195060,60
41,29,195120,60
49,26,195180,60
37,29,195240,60
49,26,195300,60
48,29,195360,60
49,25,195420,60
44,26,195480,60
49,23,195540,60
41,24,195600,60
49,19,195660,60
37,22,195720,60
49,18,195780,60
47,39,195840,60
50,32,195900,60
44,36,195960,60
50,30,196020,60
42,33,196080,60
50,27,196140,60
41,32,196200,60
50,26,196260,60
47,39,196320,60
50,32,196380,60
44,36,196440,60
50,30,196500,60
42,34,196560,60
50,28,196620,60
41,32,196680,60
50,26,196740,60
47,33,196800,60
50,28,196860,60
44,32,196920,60
50,27,196980,60
42,31,197040,60
50,26,197100,60
41,31,197160,60
50,26,197220,60
47,33,197280,60
50,28,197340,60
44,32,197400,60
50,27,197460,60
42,31,197520,60
50,26,197580,60
41,31,197640,60
50,26,197700,60
42,30,197760,60
51,26,197820,60
45,31,197880,60
51,26,197940,60
47,34,198000,60
51,25,198060,60
39,31,198120,60
51,26,198180,60
42,30,198240,60
51,26,198300,60
45,31,198360,60
51,26,198420,60
47,35,198480,60
51,25,198540,60
39,31,198600,60
51,26,198660,60
42,30,198720,60
51,26,198780,60
45,32,198840,60
51,26,198900,60
47,35,198960,60
51,25,199020,60
39,31,199080,60
51,26,199140,60
42,30,199200,60
51,26,199260,60
45,33,199320,60
51,26,199380,60
47,35,199440,60
51,25,199500,60
39,31,199560,60
51,26,199620,60
40,30,199680,60
52,26,199740,60
44,32,199800,60
52,30,199860,60
47,36,199920,60
52,31,199980,60
51,40,200040,60
52,35,200100,60
40,30,200160,60
52,26,200220,60
44,32,200280,60
52,29,200340,60
47,36,200400,60
52,31,200460,60
51,40,200520,60
52,35,200580,60
49,30,200640,60
61,26,200700,60
52,31,200760,60
61,27,200820,60
57,33,200880,60
61,28,200940,60
60,35,201000,60
61,30,201060,60
49,35,201120,60
61,26,201180,60
52,31,201240,60
61,27,201300,60
57,33,201360,60
61,28,201420,60
60,35,201480,60
61,30,201540,60
47,30,201600,60
59,26,201660,60
52,31,201720,60
59,27,201780,60
56,32,201840,60
59,28,201900,60
58,35,201960,60
59,30,202020,60
47,30,202080,60
59,26,202140,60
52,31,202200,60
59,28,202260,60
56,33,202320,60
59,28,202380,60
58,35,202440,60
59,30,202500,60
47,30,202560,60
59,26,202620,60
54,31,202680,60
59,27,202740,60
57,33,202800,60
59,28,202860,60
58,35,202920,60
59,30,202980,60
47,30,203040,60
59,26,203100,60
54,31,203160,60
59,28,203220,60
57,33,203280,60
59,28,203340,60
58,35,203400,60
59,30,203460,60
63,43,203520,60
64,35,203580,60
59,39,203640,60
64,32,203700,60
56,36,203760,60
64,27,203820,60
52,33,203880,60
64,26,203940,60
63,42,204000,60
64,34,204060,60
59,38,204120,60
64,32,204180,60
56,35,204240,60
64,27,204300,60
52,33,204360,60
64,26,204420,60
63,36,204480,60
64,30,204540,60
59,34,204600,60
64,28,204660,60
56,32,204720,60
64,27,204780,60
52,31,204840,60
64,26,204900,60
63,33,204960,60
64,28,205020,60
59,32,205080,60
64,27,205140,60
56,31,205200,60
64,26,205260,60
52,31,205320,60
64,26,205380,60
63,33,205440,60
64,28,205500,60
60,32,205560,60
64,27,205620,60
57,31,205680,60
64,26,205740,60
52,31,205800,60
64,26,205860,60
63,33,205920,60
64,28,205980,60
60,32,206040,60
64,27,206100,60
57,31,206160,60
64,26,206220,60
52,31,206280,60
64,26,206340,60
63,33,206400,60
64,28,206460,60
60,32,206520,60
64,27,206580,60
57,31,206640,60
64,26,206700,60
52,31,206760,60
64,26,206820,60
63,33,206880,60
64,28,206940,60
60,32,207000,60
64,27,207060,60
57,31,207120,60
64,26,207180,60
52,31,207240,60
64,26,207300,60
51,34,207360,60
52,29,207420,60
47,33,207480,60
52,26,207540,60
44,30,207600,60
52,23,207660,60
40,29,207720,60
52,23,207780,60
51,34,207840,60
52,29,207900,60
47,33,207960,60
52,26,208020,60
44,30,208080,60
52,23,208140,60
40,29,208200,60
52,23,208260,60
51,31,208320,60
52,27,208380,60
47,31,208440,60
52,25,208500,60
44,29,208560,60
52,22,208620,60
40,28,208680,60
52,23,208740,60
51,29,208800,60
52,25,208860,60
47,29,208920,60
52,24,208980,60
44,28,209040,60
52,22,209100,60
40,28,209160,60
52,23,209220,60
51,29,209280,60
52,25,209340,60
48,29,209400,60
52,24,209460,60
45,28,209520,60
52,22,209580,60
40,28,209640,60
52,23,209700,60
51,29,209760,60
52,25,209820,60
48,29,209880,60
52,24,209940,60
45,28,210000,60
52,22,210060,60
40,28,210120,60
52,23,210180,60
51,29,210240,60
52,25,210300,60
48,29,210360,60
52,24,210420,60
45,28,210480,60
52,22,210540,60
40,28,210600,60
52,23,210660,60
51,29,210720,60
52,25,210780,60
48,29,210840,60
52,24,210900,60
45,28,210960,60
52,22,211020,60
40,28,211080,60
52,23,211140,60
51,34,211200,60
52,29,211260,60
47,33,211320,60
52,26,211380,60
44,30,211440,60
52,23,211500,60
40,29,211560,60
52,23,211620,60
51,34,211680,60
52,29,211740,60
47,33,211800,60
52,26,211860,60
44,30,211920,60
52,23,211980,60
40,29,212040,60
52,23,212100,60
51,29,212160,60
52,25,212220,60
47,29,212280,60
52,24,212340,60
44,28,212400,60
52,22,212460,60
40,28,212520,60
52,23,212580,60
51,29,212640,60
52,25,212700,60
47,29,212760,60
52,24,212820,60
44,28,212880,60
52,22,212940,60
40,28,213000,60
52,23,213060,60
50,27,213120,60
52,21,213180,60
47,26,213240,60
52,21,213300,60
44,26,213360,60
52,19,213420,60
40,25,213480,60
52,20,213540,60
50,26,213600,60
52,20,213660,60
47,25,213720,60
52,20,213780,60
44,25,213840,60
52,19,213900,60
40,24,213960,60
52,19,214020,60
50,25,214080,60
52,20,214140,60
47,24,214200,60
52,20,214260,60
44,24,214320,60
52,18,214380,60
40,23,214440,60
52,19,214500,60
50,24,214560,60
52,20,214620,60
47,23,214680,60
52,19,214740,60
44,23,214800,60
52,17,214860,60
40,22,214920,60
52,14,214980,60
