note,velocity,position,duration
68,60,720,240
64,66,960,120
61,60,1080,120
64,60,1200,120
68,60,1320,120
64,64,1440,120
61,60,1560,120
64,60,1680,120
69,60,1800,120
63,63,1920,120
60,60,2040,120
63,60,2160,120
69,60,2280,120
63,63,2400,120
60,60,2520,120
63,60,2640,120
68,60,2760,120
68,66,2880,120
64,63,3000,120
68,63,3120,120
76,63,3240,120
68,66,3360,120
64,63,3480,120
68,63,3600,120
73,63,3720,120
69,67,3840,120
68,60,3960,120
66,61,4080,120
73,62,4200,120
72,68,4320,120
66,65,4440,120
68,66,4560,120
72,67,4680,120
73,72,4800,120
64,63,4920,120
68,65,5040,120
73,67,5160,120
76,69,5280,120
68,64,5400,120
76,66,5520,120
80,68,5640,120
76,73,5760,120
69,64,5880,120
76,66,6000,120
80,68,6120,120
74,70,6240,120
78,67,6360,120
73,70,6480,120
76,67,6600,120
72,68,6720,120
75,65,6840,120
73,67,6960,120
76,65,7080,120
75,68,7200,120
78,64,7320,120
72,69,7440,120
75,64,7560,120
76,68,7680,120
73,67,7800,120
71,66,7920,120
69,64,8040,120
68,63,8160,120
66,62,8280,120
64,60,8400,120
63,59,8520,120
64,62,8640,120
61,57,8760,120
64,57,8880,120
68,57,9000,120
64,60,9120,120
61,57,9240,120
64,57,9360,120
69,57,9480,120
63,59,9600,120
59,57,9720,120
63,57,9840,120
69,57,9960,120
63,59,10080,120
59,57,10200,120
63,57,10320,120
68,57,10440,120
68,62,10560,120
61,59,10680,120
68,59,10800,120
73,59,10920,120
66,62,11040,120
63,59,11160,120
66,59,11280,120
73,59,11400,120
68,63,11520,120
64,59,11640,120
68,59,11760,120
73,59,11880,120
68,62,12000,120
64,60,12120,120
68,60,12240,120
71,60,12360,120
67,68,12480,120
64,59,12600,120
67,61,12720,120
70,63,12840,120
76,65,12960,120
70,60,13080,120
76,62,13200,120
79,64,13320,120
75,64,13440,120
79,62,13560,120
75,63,13680,120
78,61,13800,120
69,62,13920,120
76,61,14040,120
69,62,14160,120
75,60,14280,120
69,59,14400,120
78,56,14520,120
68,59,14640,120
76,56,14760,120
64,58,14880,120
73,55,15000,120
61,57,15120,120
69,55,15240,120
59,57,15360,120
68,55,15480,120
64,57,15600,120
71,56,15720,120
59,57,15840,120
69,56,15960,120
63,57,16080,120
71,56,16200,120
69,57,16320,360
63,54,16440,120
59,54,16560,120
69,57,16680,120
68,57,16800,120
64,53,16920,120
68,55,17040,120
69,57,17160,120
71,59,17280,120
68,50,17400,120
71,53,17520,120
80,46,17640,120
71,49,17760,120
78,44,17880,120
72,49,18000,120
76,46,18120,120
73,53,18240,120
64,56,18360,120
73,54,18480,120
76,55,18600,120
71,59,18720,120
75,54,18840,120
69,57,18960,120
73,54,19080,120
68,57,19200,120
59,54,19320,120
68,54,19440,120
71,54,19560,120
64,57,19680,120
58,51,19800,120
64,52,19920,120
73,52,20040,120
66,54,20160,120
57,49,20280,120
66,49,20400,120
71,49,20520,120
66,53,20640,120
57,48,20760,120
66,48,20880,120
71,48,21000,120
64,48,21120,120
56,44,21240,120
64,44,21360,120
68,44,21480,120
63,48,22080,120
57,43,22200,120
63,43,22320,120
71,43,22440,120
64,48,23040,120
56,45,23160,120
64,45,23280,120
68,45,23400,120
68,44,23520,120
71,49,23640,120
76,53,23760,120
80,58,23880,120
80,62,24000,240
68,46,24120,120
76,56,24240,240
68,47,24360,120
75,53,24480,240
68,44,24600,120
74,50,24720,240
68,44,24840,120
73,48,24960,120
61,43,25080,120
69,43,25200,120
73,43,25320,120
68,48,25920,120
62,42,26040,120
68,42,26160,120
76,42,26280,120
69,48,26880,120
61,42,27000,120
69,42,27120,120
73,43,27240,120
73,43,27360,120
76,48,27480,120
81,53,27600,120
85,59,27720,120
85,64,27840,120
73,56,27960,120
81,61,28080,120
73,56,28200,120
80,61,28320,120
76,56,28440,120
78,61,28560,120
75,55,28680,120
64,66,28800,120
68,66,28800,120
76,66,28800,120
68,61,28920,120
66,61,29040,120
68,61,29160,120
64,58,29280,120
68,62,29400,120
63,66,29520,120
68,69,29640,120
64,80,29760,120
61,74,29880,120
64,74,30000,120
68,74,30120,120
64,78,30240,120
61,74,30360,120
64,74,30480,120
69,74,30600,120
63,76,30720,120
60,74,30840,120
63,74,30960,120
69,74,31080,120
63,76,31200,120
60,74,31320,120
63,74,31440,120
68,74,31560,120
68,80,31680,120
64,76,31800,120
68,76,31920,120
76,76,32040,120
68,80,32160,120
64,76,32280,120
68,76,32400,120
73,76,32520,120
69,82,32640,120
68,74,32760,120
66,75,32880,120
73,76,33000,120
72,83,33120,120
63,79,33240,120
68,80,33360,120
72,82,33480,120
73,88,33600,120
68,76,33720,120
73,79,33840,120
76,82,33960,120
76,84,34080,120
68,82,34200,120
76,86,34320,120
80,90,34440,120
76,93,34560,120
69,90,34680,120
76,88,34800,120
80,85,34920,120
74,86,35040,120
78,82,35160,120
73,86,35280,120
76,82,35400,120
72,83,35520,120
75,79,35640,120
73,82,35760,120
76,76,35880,120
75,81,36000,120
78,75,36120,120
72,79,36240,120
75,72,36360,120
76,79,36480,120
73,74,36600,120
71,69,36720,120
69,65,36840,120
68,61,36960,120
66,57,37080,120
64,53,37200,120
63,48,37320,120
64,42,37440,120
61,45,37560,120
64,45,37680,120
68,45,37800,120
64,48,37920,120
61,45,38040,120
64,45,38160,120
69,45,38280,120
63,47,38400,120
59,45,38520,120
63,45,38640,120
69,45,38760,120
63,47,38880,120
59,45,39000,120
63,45,39120,120
68,45,39240,120
68,49,39360,120
61,47,39480,120
68,47,39600,120
73,47,39720,120
66,49,39840,120
63,47,39960,120
66,47,40080,120
73,47,40200,120
68,50,40320,120
64,47,40440,120
68,47,40560,120
73,47,40680,120
68,49,40800,120
64,48,40920,120
68,48,41040,120
71,48,41160,120
67,54,41280,120
64,47,41400,120
67,48,41520,120
70,50,41640,120
76,52,41760,120
70,48,41880,120
76,49,42000,120
79,51,42120,120
75,51,42240,120
79,49,42360,120
75,50,42480,120
78,48,42600,120
69,49,42720,120
76,48,42840,120
69,49,42960,120
75,48,43080,120
69,47,43200,120
78,44,43320,120
68,47,43440,120
76,44,43560,120
64,46,43680,120
73,44,43800,120
61,45,43920,120
69,44,44040,120
59,45,44160,120
68,44,44280,120
64,45,44400,120
71,44,44520,120
59,45,44640,120
69,44,44760,120
63,45,44880,120
71,44,45000,120
69,45,45120,360
63,43,45240,120
59,43,45360,120
69,45,45480,120
68,45,45600,120
59,42,45720,120
64,44,45840,120
66,45,45960,120
68,47,46080,120
64,43,46200,120
68,45,46320,120
76,44,46440,120
68,47,46560,120
75,44,46680,120
68,48,46800,120
73,44,46920,120
69,48,47040,120
61,44,47160,120
69,46,47280,120
73,46,47400,120
68,47,47520,120
71,43,47640,120
66,45,47760,120
69,43,47880,120
64,45,48000,120
56,43,48120,120
64,43,48240,120
68,43,48360,120
61,45,48480,120
55,40,48600,120
61,41,48720,120
69,41,48840,120
63,43,48960,120
54,39,49080,120
63,39,49200,120
68,39,49320,120
63,42,49440,120
54,38,49560,120
63,38,49680,120
68,38,49800,120
61,38,49920,120
52,35,50040,120
61,35,50160,120
64,35,50280,120
61,38,50880,120
52,34,51000,120
61,34,51120,120
64,34,51240,120
62,38,51840,120
57,36,51960,120
62,36,52080,120
66,36,52200,120
66,35,52320,120
69,39,52440,120
74,42,52560,120
78,46,52680,120
81,49,52800,240
74,36,52920,120
69,37,53040,120
78,44,53040,240
71,37,53160,120
73,35,53280,120
76,42,53280,240
68,35,53400,120
72,35,53520,120
75,40,53520,240
68,35,53640,120
73,38,53760,120
64,34,53880,120
73,34,54000,120
76,34,54120,120
73,38,54720,120
64,33,54840,120
73,33,54960,120
76,33,55080,120
74,38,55680,120
69,39,55800,120
74,44,55920,120
78,49,56040,120
81,55,56160,120
78,53,56280,120
74,50,56400,120
69,47,56520,120
68,44,56640,120
76,44,56760,120
64,48,56880,120
73,44,57000,120
66,48,57120,120
75,44,57240,120
63,48,57360,120
72,44,57480,120
64,51,57600,120
73,42,57720,120
61,43,57840,120
64,43,57840,120
68,35,57960,120
63,38,58080,120
66,38,58080,120
68,31,58200,120
60,34,58320,120
63,34,58320,120
68,30,58440,120
65,36,59520,120
68,36,59640,120
66,32,59760,480
70,32,59760,480
65,28,60240,180
68,28,60240,180
65,36,60480,120
68,36,60600,120
66,33,60720,480
70,33,60720,480
73,33,60720,480
65,30,61200,180
68,30,61200,180
65,37,61440,120
68,37,61440,120
62,37,61560,120
63,39,61680,480
66,39,61680,480
66,36,62160,240
75,36,62160,240
68,39,62400,120
77,39,62400,120
66,37,62520,120
75,37,62520,120
65,38,62640,480
73,38,62640,480
65,31,63120,180
68,31,63120,180
65,36,63360,120
68,36,63480,120
66,32,63600,480
70,32,63600,480
65,30,64080,180
68,30,64080,180
65,36,64320,120
68,36,64440,120
66,32,64560,480
70,32,64560,480
73,32,64560,480
65,28,65040,180
68,28,65040,180
65,37,65280,120
68,37,65280,120
62,37,65400,120
63,39,65520,360
66,39,65520,360
66,36,65880,120
75,36,65880,120
68,37,66000,120
77,37,66000,120
66,36,66120,120
75,36,66120,120
65,37,66240,120
73,37,66240,120
66,37,66360,120
75,37,66360,120
65,40,66480,720
73,40,66480,720
56,43,67200,120
60,43,67320,120
52,47,67440,480
56,47,67440,480
61,47,67440,480
51,38,67920,240
56,38,67920,240
60,38,67920,240
56,48,68160,120
60,48,68280,120
56,53,68400,480
64,53,68400,480
61,53,68400,480
56,45,68880,240
63,45,68880,240
60,45,68880,240
60,53,69120,120
63,53,69120,120
69,53,69240,120
61,56,69360,480
64,56,69360,480
68,56,69360,480
60,38,69840,240
63,38,69840,240
68,38,69840,240
59,25,70080,240
63,25,70080,240
69,27,70080,120
71,27,70200,120
59,24,70320,720
64,24,70320,720
68,26,70320,720
65,32,71040,120
68,32,71160,120
66,23,71280,480
70,27,71280,480
65,21,71760,180
68,25,71760,180
65,32,72000,120
68,32,72120,120
66,25,72240,480
70,25,72240,480
73,30,72240,480
65,20,72720,180
68,24,72720,180
65,28,72960,120
68,33,72960,120
62,33,73080,120
63,32,73200,480
66,38,73200,480
66,26,73680,240
75,31,73680,240
68,31,73920,120
77,37,73920,120
66,28,74040,120
75,33,74040,120
65,34,74160,480
73,40,74160,480
65,25,74640,180
68,30,74640,180
65,32,74880,120
68,32,75000,120
66,26,75120,480
70,31,75120,480
65,25,75600,180
68,30,75600,180
65,32,75840,120
68,32,75960,120
66,26,76080,480
70,26,76080,480
73,31,76080,480
65,22,76560,180
68,26,76560,180
65,28,76800,120
68,33,76800,120
62,33,76920,120
63,34,77040,360
66,40,77040,360
66,27,77400,120
75,32,77400,120
68,28,77520,120
77,33,77520,120
66,27,77640,120
75,32,77640,120
65,28,77760,120
73,33,77760,120
66,28,77880,120
75,33,77880,120
65,30,78000,720
73,36,78000,720
56,36,78720,120
60,36,78840,120
52,36,78960,480
56,36,78960,480
61,39,78960,480
51,29,79440,240
56,29,79440,240
60,31,79440,240
56,39,79680,120
60,39,79800,120
56,40,79920,480
64,44,79920,480
61,40,79920,480
56,34,80400,240
63,37,80400,240
60,34,80400,240
60,40,80640,120
63,44,80640,120
69,44,80760,120
61,44,80880,480
64,44,80880,480
68,48,80880,480
60,35,81360,240
63,35,81360,240
68,38,81360,240
59,24,81600,240
63,24,81600,240
69,26,81600,120
71,26,81720,120
59,24,81840,720
64,24,81840,720
68,26,81840,720
59,47,82560,240
64,47,82560,240
68,47,82560,120
69,47,82680,120
59,51,82800,480
63,51,82800,480
66,51,82800,480
59,44,83280,240
64,44,83280,240
68,44,83280,240
59,49,83520,240
64,49,83520,240
68,49,83520,120
69,49,83640,120
59,53,83760,480
63,53,83760,480
66,53,83760,480
59,48,84240,240
64,48,84240,240
68,48,84240,240
59,53,84480,240
63,53,84480,240
66,53,84480,120
68,53,84600,120
56,56,84720,480
61,56,84720,480
64,56,84720,480
57,60,85200,240
61,60,85200,240
66,60,85200,240
57,56,85440,240
63,56,85440,120
66,56,85560,120
56,52,85680,440
64,52,85680,440
68,45,86160,240
76,45,86160,240
69,48,86400,240
76,48,86400,120
80,48,86520,120
69,51,86640,480
78,51,86640,480
66,47,87120,240
69,47,87120,240
64,53,87360,120
68,53,87360,120
66,53,87480,120
69,53,87480,120
68,54,87600,480
71,54,87600,480
68,48,88080,240
76,48,88080,240
69,54,88320,240
76,54,88320,120
80,54,88440,120
69,55,88560,480
78,55,88560,480
75,51,89040,240
69,51,89040,240
68,51,89280,120
76,51,89280,120
69,51,89400,120
73,51,89400,120
68,50,89520,480
71,50,89520,480
59,47,90000,240
68,47,90000,240
64,47,90000,240
59,60,90240,240
64,60,90240,240
68,60,90240,120
69,60,90360,120
59,65,90480,480
63,65,90480,480
66,65,90480,480
59,55,90960,240
64,55,90960,240
68,55,90960,240
59,62,91200,240
64,62,91200,240
68,62,91200,120
69,62,91320,120
59,67,91440,480
63,67,91440,480
66,67,91440,480
59,61,91920,240
64,61,91920,240
68,61,91920,240
59,67,92160,240
63,67,92160,240
66,67,92160,120
68,67,92280,120
56,72,92400,480
61,72,92400,480
64,72,92400,480
63,72,92880,120
61,70,93000,120
60,72,93120,120
63,70,93240,120
61,66,93360,440
65,40,93840,240
73,40,93840,240
66,42,94080,240
74,42,94080,120
77,42,94200,120
66,40,94320,480
75,40,94320,480
63,34,94800,240
66,34,94800,240
65,37,95040,120
63,37,95160,120
66,37,95160,120
65,40,95280,480
68,40,95280,480
73,38,95760,240
65,38,95760,240
66,40,96000,240
74,40,96000,120
77,40,96120,120
66,38,96240,480
75,38,96240,480
71,32,96720,240
77,32,96720,240
72,35,96960,240
77,35,96960,120
80,35,97080,120
72,32,97200,720
78,32,97200,720
65,31,97920,120
68,31,98040,120
66,27,98160,480
70,29,98160,480
65,25,98640,180
68,27,98640,180
65,31,98880,120
68,31,99000,120
66,26,99120,480
70,26,99120,480
73,28,99120,480
65,24,99600,180
68,26,99600,180
65,30,99840,120
68,33,99840,120
62,33,99960,120
63,31,100080,480
66,34,100080,480
66,29,100560,240
75,31,100560,240
68,33,100800,120
77,36,100800,120
66,30,100920,120
75,33,100920,120
65,32,101040,480
73,35,101040,480
65,27,101520,180
68,29,101520,180
65,31,101760,120
68,31,101880,120
66,26,102000,480
70,28,102000,480
65,26,102480,180
68,28,102480,180
65,31,102720,120
68,31,102840,120
66,27,102960,480
70,27,102960,480
73,29,102960,480
65,24,103440,180
68,26,103440,180
65,30,103680,120
68,33,103680,120
62,33,103800,120
63,36,103920,360
66,39,103920,360
66,29,104280,120
75,31,104280,120
68,30,104400,120
77,33,104400,120
66,29,104520,120
75,31,104520,120
65,30,104640,120
73,33,104640,120
66,30,104760,120
75,33,104760,120
65,32,104880,720
73,35,104880,720
60,42,107520,120
57,42,107520,120
66,42,107640,120
58,46,107760,480
61,46,107760,480
65,46,107760,480
57,36,108240,240
60,36,108240,240
65,36,108240,240
56,25,108480,240
60,25,108480,240
66,27,108480,120
68,27,108600,120
56,25,108720,720
61,25,108720,720
65,27,108720,720
68,47,109200,240
64,47,109200,240
59,47,109216,240
59,47,109440,16
64,47,109440,240
68,47,109440,120
69,47,109560,120
59,51,109680,480
63,51,109680,480
66,51,109680,480
59,44,110160,240
64,44,110160,240
68,44,110160,240
59,49,110400,240
64,49,110400,240
68,49,110400,120
69,49,110520,120
59,53,110640,480
63,53,110640,480
66,53,110640,480
59,48,111120,240
64,48,111120,240
68,48,111120,240
59,53,111360,240
63,53,111360,240
66,53,111360,120
68,53,111480,120
56,56,111600,480
61,56,111600,480
64,56,111600,480
57,60,112080,240
61,60,112080,240
66,60,112080,240
57,56,112320,240
63,56,112320,120
66,56,112440,120
56,52,112560,440
64,52,112560,440
68,45,113040,240
76,45,113040,240
69,48,113280,240
76,48,113280,120
80,48,113400,120
69,51,113520,480
78,51,113520,480
66,47,114000,240
69,47,114000,240
68,53,114240,120
66,53,114360,120
69,53,114360,120
68,54,114480,480
71,54,114480,480
68,48,114960,240
76,48,114960,240
69,54,115200,240
76,54,115200,120
80,54,115320,120
69,55,115440,480
78,55,115440,480
75,51,115920,240
69,51,115920,240
68,51,116160,120
76,51,116160,120
69,51,116280,120
73,51,116280,120
68,50,116400,480
71,50,116400,480
59,47,116880,240
68,47,116880,240
64,47,116880,240
59,67,117120,240
64,67,117120,240
68,67,117120,120
69,67,117240,120
59,73,117360,480
63,73,117360,480
66,73,117360,480
59,62,117840,240
64,62,117840,240
68,62,117840,240
59,69,118080,240
64,69,118080,240
68,69,118080,120
69,69,118200,120
59,75,118320,480
63,75,118320,480
66,75,118320,480
59,68,118800,240
64,68,118800,240
68,68,118800,240
59,75,119040,240
63,75,119040,240
66,75,119040,120
68,75,119160,120
56,80,119280,480
61,80,119280,480
64,80,119280,480
63,81,119760,120
61,78,119880,120
60,80,120000,120
63,78,120120,120
61,74,120240,440
65,40,120720,240
73,40,120720,240
66,42,120960,240
74,42,120960,120
77,42,121080,120
66,40,121200,480
75,40,121200,480
63,34,121680,240
66,34,121680,240
65,37,121920,120
63,37,122040,120
66,37,122040,120
65,40,122160,480
68,40,122160,480
73,38,122640,240
65,38,122640,240
66,40,122880,240
74,40,122880,120
77,40,123000,120
66,38,123120,480
75,38,123120,480
71,32,123600,240
77,32,123600,240
72,35,123840,240
77,35,123840,120
80,35,123960,120
72,32,124080,720
78,32,124080,720
65,31,124800,120
68,31,124920,120
66,26,125040,480
70,28,125040,480
65,25,125520,180
68,27,125520,180
65,31,125760,120
68,31,125880,120
66,28,126000,480
70,28,126000,480
73,30,126000,480
65,24,126480,180
68,26,126480,180
65,30,126720,120
68,33,126720,120
62,33,126840,120
63,31,126960,480
66,34,126960,480
66,29,127440,240
75,31,127440,240
68,33,127680,120
77,36,127680,120
66,30,127800,120
75,33,127800,120
65,32,127920,480
73,35,127920,480
65,27,128400,180
68,29,128400,180
65,31,128640,120
68,31,128760,120
66,25,128880,480
70,27,128880,480
65,26,129360,180
68,28,129360,180
65,31,129600,120
68,31,129720,120
66,26,129840,480
70,26,129840,480
73,28,129840,480
65,24,130320,180
68,26,130320,180
65,30,130560,120
68,33,130560,120
62,33,130680,120
63,36,130800,360
66,39,130800,360
66,29,131160,120
75,31,131160,120
68,30,131280,120
77,33,131280,120
66,29,131400,120
75,31,131400,120
65,30,131520,120
73,33,131520,120
66,30,131640,120
75,33,131640,120
65,32,131760,720
73,35,131760,720
60,29,134400,120
57,29,134400,120
66,29,134520,120
58,33,134640,480
61,33,134640,480
65,33,134640,480
57,24,135120,240
60,24,135120,240
65,28,135120,240
56,18,135360,240
60,18,135360,240
66,22,135360,120
68,22,135480,120
56,18,135600,720
61,18,135600,720
65,22,135600,720
68,60,136080,240
64,66,136320,120
61,60,136440,120
64,60,136560,120
68,60,136680,120
64,64,136800,120
61,60,136920,120
64,60,137040,120
69,60,137160,120
63,63,137280,120
60,60,137400,120
63,60,137520,120
69,60,137640,120
63,63,137760,120
60,60,137880,120
63,60,138000,120
68,60,138120,120
68,66,138240,120
64,63,138360,120
68,63,138480,120
76,63,138600,120
68,66,138720,120
64,63,138840,120
68,63,138960,120
73,63,139080,120
69,67,139200,120
68,60,139320,120
66,61,139440,120
73,62,139560,120
72,68,139680,120
66,65,139800,120
68,66,139920,120
72,67,140040,120
73,72,140160,120
64,63,140280,120
68,65,140400,120
73,67,140520,120
76,69,140640,120
68,64,140760,120
76,66,140880,120
80,68,141000,120
76,73,141120,120
69,64,141240,120
76,66,141360,120
80,68,141480,120
74,70,141600,120
78,67,141720,120
73,70,141840,120
76,67,141960,120
72,68,142080,120
75,65,142200,120
73,67,142320,120
76,65,142440,120
75,68,142560,120
78,64,142680,120
72,69,142800,120
75,64,142920,120
76,68,143040,120
73,67,143160,120
71,66,143280,120
69,64,143400,120
68,63,143520,120
66,62,143640,120
64,60,143760,120
63,59,143880,120
64,62,144000,120
61,57,144120,120
64,57,144240,120
68,57,144360,120
64,60,144480,120
61,57,144600,120
64,57,144720,120
69,57,144840,120
63,59,144960,120
59,57,145080,120
63,57,145200,120
69,57,145320,120
63,59,145440,120
59,57,145560,120
63,57,145680,120
68,57,145800,120
68,62,145920,120
61,59,146040,120
68,59,146160,120
73,59,146280,120
66,62,146400,120
63,59,146520,120
66,59,146640,120
73,59,146760,120
68,63,146880,120
64,59,147000,120
68,59,147120,120
73,59,147240,120
68,62,147360,120
64,60,147480,120
68,60,147600,120
71,60,147720,120
67,68,147840,120
64,59,147960,120
67,61,148080,120
70,63,148200,120
76,65,148320,120
70,60,148440,120
76,62,148560,120
79,64,148680,120
75,64,148800,120
79,62,148920,120
75,63,149040,120
78,61,149160,120
69,62,149280,120
76,61,149400,120
69,62,149520,120
75,60,149640,120
69,59,149760,120
78,56,149880,120
68,59,150000,120
76,56,150120,120
64,58,150240,120
73,55,150360,120
61,57,150480,120
69,55,150600,120
59,57,150720,120
68,55,150840,120
64,57,150960,120
71,56,151080,120
59,57,151200,120
69,56,151320,120
63,57,151440,120
71,56,151560,120
69,57,151680,360
63,54,151800,120
59,54,151920,120
69,57,152040,120
68,57,152160,120
64,53,152280,120
68,55,152400,120
69,57,152520,120
71,59,152640,120
68,50,152760,120
71,53,152880,120
80,46,153000,120
71,49,153120,120
78,44,153240,120
72,49,153360,120
76,46,153480,120
73,53,153600,120
64,56,153720,120
73,54,153840,120
76,55,153960,120
71,59,154080,120
75,54,154200,120
69,57,154320,120
73,54,154440,120
68,57,154560,120
59,54,154680,120
68,54,154800,120
71,54,154920,120
64,57,155040,120
58,51,155160,120
64,52,155280,120
73,52,155400,120
66,54,155520,120
57,49,155640,120
66,49,155760,120
71,49,155880,120
66,53,156000,120
57,48,156120,120
66,48,156240,120
71,48,156360,120
64,48,156480,120
56,44,156600,120
64,44,156720,120
68,44,156840,120
63,48,157440,120
57,43,157560,120
63,43,157680,120
71,43,157800,120
64,48,158400,120
56,45,158520,120
64,45,158640,120
68,45,158760,120
68,44,158880,120
71,49,159000,120
76,53,159120,120
80,58,159240,120
80,62,159360,240
68,46,159480,120
76,56,159600,240
68,47,159720,120
75,53,159840,240
68,44,159960,120
74,50,160080,240
68,44,160200,120
73,48,160320,120
61,43,160440,120
69,43,160560,120
73,43,160680,120
68,48,161280,120
62,42,161400,120
68,42,161520,120
76,42,161640,120
69,48,162240,120
61,42,162360,120
69,42,162480,120
73,43,162600,120
73,43,162720,120
76,48,162840,120
81,53,162960,120
85,59,163080,120
85,64,163200,120
73,56,163320,120
81,61,163440,120
73,56,163560,120
80,61,163680,120
76,56,163800,120
78,61,163920,120
75,55,164040,120
64,66,164160,120
68,66,164160,120
76,66,164160,120
68,61,164280,120
66,61,164400,120
68,61,164520,120
64,58,164640,120
68,62,164760,120
63,66,164880,120
68,69,165000,120
64,80,165120,120
61,74,165240,120
64,74,165360,120
68,74,165480,120
64,78,165600,120
61,74,165720,120
64,74,165840,120
69,74,165960,120
63,76,166080,120
60,74,166200,120
63,74,166320,120
69,74,166440,120
63,76,166560,120
60,74,166680,120
63,74,166800,120
68,74,166920,120
68,80,167040,120
64,76,167160,120
68,76,167280,120
76,76,167400,120
68,80,167520,120
64,76,167640,120
68,76,167760,120
73,76,167880,120
69,82,168000,120
68,74,168120,120
66,75,168240,120
73,76,168360,120
72,83,168480,120
63,79,168600,120
68,80,168720,120
72,82,168840,120
73,88,168960,120
68,76,169080,120
73,79,169200,120
76,82,169320,120
76,84,169440,120
68,82,169560,120
76,86,169680,120
80,90,169800,120
76,93,169920,120
69,90,170040,120
76,88,170160,120
80,85,170280,120
74,86,170400,120
78,82,170520,120
73,86,170640,120
76,82,170760,120
72,83,170880,120
75,79,171000,120
73,82,171120,120
76,76,171240,120
75,81,171360,120
78,75,171480,120
72,79,171600,120
75,72,171720,120
76,79,171840,120
73,74,171960,120
71,69,172080,120
69,65,172200,120
68,61,172320,120
66,57,172440,120
64,53,172560,120
63,48,172680,120
64,42,172800,120
61,45,172920,120
64,45,173040,120
68,45,173160,120
64,48,173280,120
61,45,173400,120
64,45,173520,120
69,45,173640,120
63,47,173760,120
59,45,173880,120
63,45,174000,120
69,45,174120,120
63,47,174240,120
59,45,174360,120
63,45,174480,120
68,45,174600,120
68,49,174720,120
61,47,174840,120
68,47,174960,120
73,47,175080,120
66,49,175200,120
63,47,175320,120
66,47,175440,120
73,47,175560,120
68,50,175680,120
64,47,175800,120
68,47,175920,120
73,47,176040,120
68,49,176160,120
64,48,176280,120
68,48,176400,120
71,48,176520,120
67,54,176640,120
64,47,176760,120
67,48,176880,120
70,50,177000,120
76,52,177120,120
70,48,177240,120
76,49,177360,120
79,51,177480,120
75,51,177600,120
79,49,177720,120
75,50,177840,120
78,48,177960,120
69,49,178080,120
76,48,178200,120
69,49,178320,120
75,48,178440,120
69,47,178560,120
78,44,178680,120
68,47,178800,120
76,44,178920,120
64,46,179040,120
73,44,179160,120
61,45,179280,120
69,44,179400,120
59,45,179520,120
68,44,179640,120
64,45,179760,120
71,44,179880,120
59,45,180000,120
69,44,180120,120
63,45,180240,120
71,44,180360,120
69,45,180480,360
63,43,180600,120
59,43,180720,120
69,45,180840,120
68,45,180960,120
59,42,181080,120
64,44,181200,120
66,45,181320,120
68,47,181440,120
64,43,181560,120
68,45,181680,120
76,44,181800,120
68,47,181920,120
75,44,182040,120
68,48,182160,120
73,44,182280,120
69,48,182400,120
61,44,182520,120
69,46,182640,120
73,46,182760,120
68,47,182880,120
71,43,183000,120
66,45,183120,120
69,43,183240,120
64,45,183360,120
56,43,183480,120
64,43,183600,120
68,43,183720,120
61,45,183840,120
55,40,183960,120
61,41,184080,120
69,41,184200,120
63,43,184320,120
54,39,184440,120
63,39,184560,120
68,39,184680,120
63,42,184800,120
54,38,184920,120
63,38,185040,120
68,38,185160,120
61,38,185280,120
52,35,185400,120
61,35,185520,120
64,35,185640,120
61,38,186240,120
52,34,186360,120
61,34,186480,120
64,34,186600,120
62,38,187200,120
57,36,187320,120
62,36,187440,120
66,36,187560,120
66,35,187680,120
69,39,187800,120
74,42,187920,120
78,46,188040,120
81,49,188160,240
74,36,188280,120
69,37,188400,120
78,44,188400,240
71,37,188520,120
73,35,188640,120
76,42,188640,240
68,35,188760,120
72,35,188880,120
75,40,188880,240
68,35,189000,120
73,38,189120,120
64,34,189240,120
73,34,189360,120
76,34,189480,120
73,38,190080,120
64,33,190200,120
73,33,190320,120
76,33,190440,120
74,38,191040,120
69,39,191160,120
74,44,191280,120
78,49,191400,120
81,55,191520,120
78,53,191640,120
74,50,191760,120
69,47,191880,120
68,44,192000,120
76,43,192120,120
64,47,192240,120
73,42,192360,120
66,46,192480,120
75,41,192600,120
63,44,192720,120
72,40,192840,120
64,46,192960,120
73,37,193080,120
61,37,193200,120
64,37,193200,120
68,30,193320,120
63,32,193440,120
66,32,193440,120
68,26,193560,120
60,28,193680,120
63,28,193680,120
68,24,193800,120
65,25,194880,120
68,25,195000,120
66,18,195120,480
70,21,195120,480
65,16,195600,240
68,19,195600,240
65,25,195840,120
68,25,195960,120
66,20,196080,480
70,20,196080,480
73,24,196080,480
65,16,196560,240
68,22,196560,240
65,17,196800,480
68,21,196800,480
49,54,960,120
56,50,1200,120
49,54,1440,120
57,50,1680,120
48,54,1920,120
57,51,2160,120
48,54,2400,120
56,50,2640,120
49,55,2880,120
56,51,3120,120
52,55,3360,120
56,52,3600,120
51,56,3840,120
57,52,4080,120
51,55,4320,120
56,52,4560,120
49,56,4800,120
61,50,5040,120
49,55,5280,120
59,51,5520,120
54,57,5760,120
57,56,6000,120
54,57,6240,120
57,54,6480,120
45,58,6720,120
54,54,6960,120
44,56,7200,120
56,54,7440,120
49,54,7680,120
51,54,7920,120
52,55,8160,120
56,56,8400,120
49,51,8640,120
56,47,8880,120
49,51,9120,120
57,47,9360,120
47,51,9600,120
57,48,9840,120
47,51,10080,120
56,47,10320,120
52,52,10560,120
56,48,10800,120
45,52,11040,120
57,49,11280,120
44,51,11520,120
59,49,11760,120
56,52,12000,120
59,49,12240,120
49,52,12480,120
52,47,12720,120
48,52,12960,120
58,44,13200,120
47,48,13440,120
59,45,13680,120
48,48,13920,120
54,43,14160,120
49,45,14400,120
52,39,14640,120
45,46,14880,120
54,40,15120,120
47,46,15360,120
56,43,15600,120
47,45,15840,120
57,41,16080,120
47,46,16320,120
54,39,16560,120
52,47,16800,120
54,41,17040,120
56,45,17280,120
59,36,17520,120
56,34,17760,120
64,31,18000,120
57,45,18240,120
45,40,18480,120
47,41,18720,120
49,42,18960,120
47,45,19200,120
52,39,19440,120
47,43,19680,120
55,41,19920,120
47,41,20160,120
52,39,20400,120
47,41,20640,120
51,37,20880,120
52,48,21120,240
47,48,21600,120
40,44,21720,120
47,44,21840,120
52,45,21960,120
47,48,22560,120
40,44,22680,120
47,44,22800,120
54,44,22920,120
52,46,23520,120
56,47,23640,120
59,52,23760,120
64,56,23880,120
64,58,24000,240
61,55,24240,240
60,52,24480,240
59,49,24720,240
57,46,24960,240
52,48,25440,120
45,44,25560,120
52,44,25680,120
57,44,25800,120
52,48,26400,120
45,41,26520,120
52,41,26640,120
59,41,26760,120
57,44,27360,120
61,49,27480,120
64,54,27600,120
69,59,27720,120
69,62,27840,240
66,51,28080,240
71,51,28320,240
69,51,28560,240
59,51,28560,240
54,62,29040,240
56,62,29040,720
52,71,29280,240
51,78,29520,240
49,85,29760,120
48,77,30000,120
49,76,30240,120
52,76,30480,120
48,82,30720,120
51,76,30960,120
56,76,31200,120
48,76,31440,120
49,80,31680,120
51,76,31920,120
52,76,32160,120
49,76,32400,120
51,76,32640,120
57,83,32880,120
56,81,33120,120
54,76,33360,120
52,74,33600,120
51,76,33840,120
49,79,34080,120
47,80,34320,120
45,84,34560,120
42,78,34800,60
44,78,34920,60
45,83,35040,120
42,79,35280,120
44,85,35520,120
42,80,35760,60
40,80,35880,60
39,85,36000,120
44,80,36240,120
37,88,36480,120
44,70,36720,240
46,58,36960,240
48,48,37200,240
49,40,37440,240
52,37,37680,240
51,38,37920,240
49,37,38160,240
47,40,38400,240
51,38,38640,240
56,40,38880,240
47,37,39120,240
45,41,39360,240
49,38,39600,240
47,38,39840,240
45,39,40080,240
44,40,40320,240
47,39,40560,240
52,41,40800,240
44,39,41040,240
40,41,41280,240
52,37,41520,120
51,37,41640,120
49,36,41760,240
48,38,42000,240
47,43,42240,240
54,39,42480,240
59,47,42720,240
47,34,42960,240
48,36,43200,240
49,31,43440,240
44,36,43680,240
45,32,43920,240
47,36,44160,240
56,34,44400,240
47,36,44640,240
57,32,44880,240
47,36,45120,240
54,31,45360,240
52,37,45600,240
49,32,45840,120
51,32,45960,120
52,36,46080,240
56,33,46320,240
53,36,46560,240
61,33,46800,240
54,36,47040,240
42,32,47280,240
44,32,47520,240
45,33,47760,240
44,36,48000,240
49,31,48240,240
44,34,48480,240
52,32,48720,240
44,32,48960,240
49,31,49200,240
44,32,49440,240
48,29,49680,240
49,38,49920,240
44,38,50400,120
37,35,50520,120
44,35,50640,120
49,36,50760,120
45,38,50880,240
40,38,51360,120
33,35,51480,120
40,35,51600,120
45,35,51720,120
42,38,51840,240
50,36,52320,120
54,37,52440,120
57,41,52560,120
62,44,52680,120
66,46,52800,240
54,44,53040,240
62,44,53040,240
56,41,53280,240
64,41,53280,240
56,39,53520,240
66,39,53520,240
64,36,53760,115
61,36,53760,240
56,38,54240,120
49,35,54360,120
56,35,54480,120
61,35,54600,120
57,36,54720,240
52,38,55200,120
45,32,55320,120
52,32,55440,120
57,32,55560,120
54,38,55680,240
57,41,55920,120
62,47,56040,120
66,53,56160,120
62,50,56280,120
57,48,56400,120
54,46,56520,120
56,44,56640,240
56,40,56880,240
56,40,57120,240
56,40,57360,240
56,39,57600,240
44,37,57840,240
44,32,58080,240
44,29,58320,240
49,22,59520,240
56,22,59520,240
61,22,59520,240
49,20,59760,480
56,20,59760,480
61,20,59760,480
49,18,60240,180
56,18,60240,180
61,18,60240,180
49,19,60480,240
56,19,60480,240
61,19,60480,240
49,20,60720,480
56,20,60720,480
61,20,60720,480
49,18,61200,180
56,18,61200,180
61,18,61200,180
56,19,61440,240
60,19,61440,240
56,19,61680,480
60,19,61680,480
56,25,62160,240
60,25,62160,240
49,25,62400,240
56,25,62400,240
61,25,62400,240
49,26,62640,480
56,26,62640,480
61,26,62640,480
49,22,63120,180
56,22,63120,180
61,22,63120,180
49,22,63360,240
56,22,63360,240
61,22,63360,240
49,21,63600,480
56,21,63600,480
61,21,63600,480
49,21,64080,180
56,21,64080,180
61,21,64080,180
49,23,64320,240
56,23,64320,240
61,23,64320,240
49,21,64560,480
56,21,64560,480
61,21,64560,480
49,19,65040,180
56,19,65040,180
61,19,65040,180
56,25,65280,240
60,25,65280,240
56,28,65520,480
60,28,65520,480
56,24,66000,240
60,24,66000,240
49,25,66240,240
56,25,66240,240
61,25,66240,240
49,25,66480,720
56,25,66480,718
61,25,66480,720
32,40,67200,240
44,40,67200,240
37,42,67440,480
44,42,67440,480
32,36,67920,240
44,36,67920,240
32,37,68160,240
44,37,68160,240
37,45,68400,480
44,45,68400,480
32,40,68880,240
44,40,68880,240
32,46,69120,240
44,46,69120,240
37,49,69360,480
44,49,69360,480
32,36,69840,240
44,36,69840,240
42,21,70080,240
47,21,70080,240
40,21,70320,720
47,21,70320,720
49,18,71040,240
56,18,71040,240
61,18,71040,240
49,18,71280,480
56,18,71280,480
61,18,71280,480
49,15,71760,180
56,15,71760,180
61,15,71760,180
49,18,72000,240
56,18,72000,240
61,18,72000,240
49,18,72240,480
56,18,72240,480
61,18,72240,480
49,15,72720,180
56,15,72720,180
61,15,72720,180
56,18,72960,240
60,18,72960,240
56,18,73200,480
60,18,73200,480
56,18,73680,240
60,18,73680,240
49,20,73920,240
56,20,73920,240
61,20,73920,240
49,21,74160,480
56,21,74160,480
61,21,74160,480
49,18,74640,180
56,18,74640,180
61,18,74640,180
49,18,74880,240
56,18,74880,240
61,18,74880,240
49,18,75120,480
56,18,75120,480
61,18,75120,480
49,18,75600,180
56,18,75600,180
61,18,75600,180
49,18,75840,240
56,18,75840,240
61,18,75840,240
49,18,76080,480
56,18,76080,480
61,18,76080,480
49,17,76560,180
56,17,76560,180
61,17,76560,180
56,20,76800,240
60,20,76800,240
56,22,77040,480
60,22,77040,480
56,19,77520,240
60,19,77520,240
49,20,77760,240
56,20,77760,240
61,20,77760,240
49,21,78000,720
56,21,78000,718
61,21,78000,720
32,30,78720,240
44,30,78720,240
37,32,78960,480
44,32,78960,480
32,27,79440,240
44,27,79440,240
32,30,79680,240
44,30,79680,240
37,34,79920,480
44,34,79920,480
32,30,80400,240
44,30,80400,240
32,34,80640,240
44,34,80640,240
37,36,80880,480
44,36,80880,480
32,31,81360,240
44,31,81360,240
42,19,81600,240
47,19,81600,240
40,19,81840,720
47,19,81840,720
40,45,82560,240
52,45,82560,240
35,48,82800,480
47,48,82800,480
40,46,83280,240
52,46,83280,240
40,50,83520,240
52,50,83520,240
35,53,83760,480
47,53,83760,480
40,50,84240,240
52,50,84240,240
35,54,84480,240
47,54,84480,240
37,58,84720,480
49,58,84720,480
33,60,85200,240
45,60,85200,240
35,57,85440,240
47,57,85440,240
40,54,85680,440
47,54,85680,440
59,45,86160,240
63,39,86400,240
59,39,86400,240
59,48,86640,480
63,48,86640,480
59,48,87120,240
63,48,87120,240
64,53,87360,240
59,53,87360,240
59,54,87600,480
64,54,87600,480
59,47,88080,240
64,47,88080,240
63,51,88320,240
59,51,88320,240
59,54,88560,480
63,54,88560,480
59,51,89040,240
66,51,89040,240
64,53,89280,240
59,53,89280,240
52,53,89280,240
59,53,89520,478
64,53,89520,478
52,53,89520,480
40,47,90000,240
52,47,90000,240
40,56,90240,240
52,56,90240,240
35,61,90480,480
47,61,90480,480
40,59,90960,240
52,59,90960,240
40,64,91200,240
52,64,91200,240
35,67,91440,480
47,67,91440,480
40,64,91920,240
52,64,91920,240
35,69,92160,240
47,69,92160,240
37,73,92400,480
49,73,92400,480
57,72,92880,240
54,61,92880,240
30,61,92880,240
42,61,92880,240
54,72,93120,240
32,61,93120,240
44,61,93120,240
53,69,93360,440
37,58,93360,440
44,58,93360,440
56,28,93840,240
61,28,93840,240
60,29,94080,240
56,29,94080,240
60,28,94320,480
56,28,94320,480
60,24,94800,240
56,24,94800,240
61,26,95040,240
56,26,95040,240
61,28,95280,480
56,28,95280,480
61,26,95760,240
56,26,95760,240
60,28,96000,240
56,28,96000,240
60,25,96240,480
56,25,96240,480
62,25,96720,240
56,25,96720,240
63,26,96960,240
56,26,96960,240
63,23,97200,720
56,23,97200,720
49,16,97920,240
56,16,97920,240
61,16,97920,240
49,18,98160,480
56,18,98160,480
61,18,98160,480
49,15,98640,180
56,15,98640,180
61,15,98640,180
49,18,98880,240
56,18,98880,240
61,18,98880,240
49,18,99120,480
56,18,99120,480
61,18,99120,480
49,16,99600,180
56,16,99600,180
61,16,99600,180
56,20,99840,240
60,20,99840,240
56,22,100080,480
60,22,100080,480
56,20,100560,240
60,20,100560,240
49,20,100800,240
56,20,100800,240
61,20,100800,240
49,21,101040,480
56,21,101040,480
61,21,101040,480
49,18,101520,180
56,18,101520,180
61,18,101520,180
49,18,101760,240
56,18,101760,240
61,18,101760,240
49,19,102000,480
56,19,102000,480
61,19,102000,480
49,17,102480,180
56,17,102480,180
61,17,102480,180
49,18,102720,240
56,18,102720,240
61,18,102720,240
49,18,102960,480
56,18,102960,480
61,18,102960,480
49,17,103440,180
56,17,103440,180
61,17,103440,180
56,20,103680,240
60,20,103680,240
56,22,103920,480
60,22,103920,480
56,19,104400,240
60,19,104400,240
49,20,104640,240
56,20,104640,240
61,20,104640,240
49,21,104880,720
56,21,104880,720
61,21,104880,720
53,35,105600,120
29,32,105600,240
41,32,105600,240
57,35,105720,120
49,38,105840,480
53,38,105840,480
58,38,105840,480
34,34,105840,480
41,34,105840,480
48,31,106320,240
53,31,106320,240
57,31,106320,240
29,29,106320,240
41,29,106320,240
53,39,106560,120
29,32,106560,240
41,32,106560,240
57,39,106680,120
61,43,106800,480
58,43,106800,480
53,43,106800,480
34,36,106800,480
41,36,106800,480
60,36,107280,238
57,36,107280,238
53,36,107280,240
29,32,107280,240
41,32,107280,240
29,36,107520,240
41,36,107520,240
34,38,107760,480
41,38,107760,480
29,33,108240,240
41,33,108240,240
39,21,108480,240
44,21,108480,240
37,21,108720,720
44,21,108720,720
40,45,109200,240
52,45,109200,240
40,45,109440,240
52,45,109440,240
35,48,109680,480
47,48,109680,480
40,46,110160,240
52,46,110160,240
40,50,110400,240
52,50,110400,240
35,53,110640,480
47,53,110640,480
40,50,111120,240
52,50,111120,240
35,54,111360,240
47,54,111360,240
37,58,111600,480
49,58,111600,480
33,60,112080,240
45,60,112080,240
35,57,112320,240
47,57,112320,240
40,54,112560,440
47,54,112560,440
59,45,113040,240
63,39,113280,240
59,39,113280,240
59,48,113520,480
63,48,113520,480
59,48,114000,240
63,48,114000,240
64,53,114240,240
59,53,114240,240
59,54,114480,480
64,54,114480,480
59,47,114960,240
64,47,114960,240
63,51,115200,240
59,51,115200,240
59,54,115440,480
63,54,115440,480
59,51,115920,240
66,51,115920,240
64,53,116160,240
59,53,116160,240
52,53,116160,240
59,53,116400,478
64,53,116400,478
52,53,116400,480
40,47,116880,240
52,47,116880,240
40,63,117120,240
52,63,117120,240
35,68,117360,480
47,68,117360,480
40,66,117840,240
52,66,117840,240
40,72,118080,240
52,72,118080,240
35,75,118320,480
47,75,118320,480
40,72,118800,240
52,72,118800,240
35,77,119040,240
47,77,119040,240
37,82,119280,480
49,82,119280,480
57,85,119760,240
54,68,119760,240
30,68,119760,240
42,68,119760,240
54,85,120000,240
32,68,120000,240
44,68,120000,240
53,85,120240,440
37,65,120240,440
44,65,120240,440
56,28,120720,240
61,28,120720,240
60,29,120960,240
56,29,120960,240
60,28,121200,480
56,28,121200,480
60,24,121680,240
56,24,121680,240
61,26,121920,240
56,26,121920,240
61,28,122160,480
56,28,122160,480
61,26,122640,240
56,26,122640,240
60,28,122880,240
56,28,122880,240
60,25,123120,480
56,25,123120,480
62,25,123600,240
56,25,123600,240
63,26,123840,240
56,26,123840,240
63,23,124080,720
56,23,124080,720
49,16,124800,240
56,16,124800,240
61,16,124800,240
49,18,125040,480
56,18,125040,480
61,18,125040,480
49,15,125520,180
56,15,125520,180
61,15,125520,180
49,18,125760,240
56,18,125760,240
61,18,125760,240
49,18,126000,480
56,18,126000,480
61,18,126000,480
49,16,126480,180
56,16,126480,180
61,16,126480,180
56,20,126720,240
60,20,126720,240
56,22,126960,480
60,22,126960,480
56,20,127440,240
60,20,127440,240
49,20,127680,240
56,20,127680,240
61,20,127680,240
49,21,127920,480
56,21,127920,480
61,21,127920,480
49,18,128400,180
56,18,128400,180
61,18,128400,180
49,18,128640,240
56,18,128640,240
61,18,128640,240
49,19,128880,480
56,19,128880,480
61,19,128880,480
49,17,129360,180
56,17,129360,180
61,17,129360,180
49,18,129600,240
56,18,129600,240
61,18,129600,240
49,18,129840,480
56,18,129840,480
61,18,129840,480
49,17,130320,180
56,17,130320,180
61,17,130320,180
56,20,130560,240
60,20,130560,240
56,22,130800,480
60,22,130800,480
56,19,131280,240
60,19,131280,240
49,20,131520,240
56,20,131520,240
61,20,131520,240
49,21,131760,720
56,21,131760,720
61,21,131760,720
53,35,132480,120
29,32,132480,240
41,32,132480,240
57,35,132600,120
49,38,132720,480
53,38,132720,480
58,38,132720,480
34,34,132720,480
41,34,132720,480
48,31,133200,240
53,31,133200,240
57,31,133200,240
29,29,133200,240
41,29,133200,240
53,39,133440,120
29,32,133440,240
41,32,133440,240
57,39,133560,120
61,43,133680,480
58,43,133680,480
53,43,133680,480
34,36,133680,480
41,36,133680,480
60,31,134160,238
53,31,134160,238
57,31,134160,238
29,31,134160,240
41,31,134160,240
29,24,134400,240
41,24,134400,240
34,24,134640,480
41,24,134640,480
29,20,135120,240
41,20,135120,240
39,17,135360,240
44,17,135360,240
37,17,135600,720
44,17,135600,720
49,54,136320,120
56,50,136560,120
49,54,136800,120
57,50,137040,120
48,54,137280,120
57,51,137520,120
48,54,137760,120
56,50,138000,120
49,55,138240,120
56,51,138480,120
52,55,138720,120
56,52,138960,120
51,56,139200,120
57,52,139440,120
51,55,139680,120
56,52,139920,120
49,56,140160,120
61,50,140400,120
49,55,140640,120
59,51,140880,120
54,57,141120,120
57,56,141360,120
54,57,141600,120
57,54,141840,120
45,58,142080,120
54,54,142320,120
44,56,142560,120
56,54,142800,120
49,54,143040,120
51,54,143280,120
52,55,143520,120
56,56,143760,120
49,51,144000,120
56,47,144240,120
49,51,144480,120
57,47,144720,120
47,51,144960,120
57,48,145200,120
47,51,145440,120
56,47,145680,120
52,52,145920,120
56,48,146160,120
45,52,146400,120
57,49,146640,120
44,51,146880,120
59,49,147120,120
56,52,147360,120
59,49,147600,120
49,52,147840,120
52,47,148080,120
48,52,148320,120
58,44,148560,120
47,48,148800,120
59,45,149040,120
48,48,149280,120
54,43,149520,120
49,45,149760,120
52,39,150000,120
45,46,150240,120
54,40,150480,120
47,46,150720,120
56,43,150960,120
47,45,151200,120
57,41,151440,120
47,46,151680,120
54,39,151920,120
52,47,152160,120
54,41,152400,120
56,45,152640,120
59,36,152880,120
56,34,153120,120
64,31,153360,120
57,45,153600,120
45,40,153840,120
47,41,154080,120
49,42,154320,120
47,45,154560,120
52,39,154800,120
47,43,155040,120
55,41,155280,120
47,41,155520,120
52,39,155760,120
47,41,156000,120
51,37,156240,120
52,48,156480,240
47,48,156960,120
40,44,157080,120
47,44,157200,120
52,45,157320,120
47,48,157920,120
40,44,158040,120
47,44,158160,120
54,44,158280,120
52,46,158880,120
56,47,159000,120
59,52,159120,120
64,56,159240,120
64,58,159360,240
61,55,159600,240
60,52,159840,240
59,49,160080,240
57,46,160320,240
52,48,160800,120
45,44,160920,120
52,44,161040,120
57,44,161160,120
52,48,161760,120
45,41,161880,120
52,41,162000,120
59,41,162120,120
57,44,162720,120
61,49,162840,120
64,54,162960,120
69,59,163080,120
69,62,163200,240
66,51,163440,240
71,51,163680,240
59,51,163920,240
69,51,163920,240
56,62,164400,720
54,62,164400,240
52,71,164640,240
51,78,164880,240
49,85,165120,120
48,77,165360,120
49,76,165600,120
52,76,165840,120
48,82,166080,120
51,76,166320,120
56,76,166560,120
48,76,166800,120
49,80,167040,120
51,76,167280,120
52,76,167520,120
49,76,167760,120
51,76,168000,120
57,83,168240,120
56,81,168480,120
54,76,168720,120
52,74,168960,120
51,76,169200,120
49,79,169440,120
47,80,169680,120
45,84,169920,120
42,78,170160,60
44,78,170280,60
45,83,170400,120
42,79,170640,120
44,85,170880,120
42,80,171120,60
40,80,171240,60
39,85,171360,120
44,80,171600,120
37,88,171840,120
44,70,172080,240
46,58,172320,240
48,48,172560,240
49,40,172800,240
52,37,173040,240
51,38,173280,240
49,37,173520,240
47,40,173760,240
51,38,174000,240
56,40,174240,240
47,37,174480,240
45,41,174720,240
49,38,174960,240
47,38,175200,240
45,39,175440,240
44,40,175680,240
47,39,175920,240
52,41,176160,240
44,39,176400,240
40,41,176640,240
52,37,176880,120
51,37,177000,120
49,36,177120,240
48,38,177360,240
47,43,177600,240
54,39,177840,240
59,47,178080,240
47,34,178320,240
48,36,178560,240
49,31,178800,240
44,36,179040,240
45,32,179280,240
47,36,179520,240
56,34,179760,240
47,36,180000,240
57,32,180240,240
47,36,180480,240
54,31,180720,240
52,37,180960,240
49,32,181200,120
51,32,181320,120
52,36,181440,240
56,33,181680,240
53,36,181920,240
61,33,182160,240
54,36,182400,240
42,32,182640,240
44,32,182880,240
45,33,183120,240
44,36,183360,240
49,31,183600,240
44,34,183840,240
52,32,184080,240
44,32,184320,240
49,31,184560,240
44,32,184800,240
48,29,185040,240
49,38,185280,240
44,38,185760,120
37,35,185880,120
44,35,186000,120
49,36,186120,120
45,38,186240,240
40,38,186720,120
33,35,186840,120
40,35,186960,120
45,35,187080,120
42,38,187200,240
50,36,187680,120
54,37,187800,120
57,41,187920,120
62,44,188040,120
66,46,188160,240
54,44,188400,240
62,44,188400,240
56,41,188640,240
64,41,188640,240
56,39,188880,240
66,39,188880,240
64,36,189120,115
61,36,189120,240
56,38,189600,120
49,35,189720,120
56,35,189840,120
61,35,189960,120
57,36,190080,240
52,38,190560,120
45,32,190680,120
52,32,190800,120
57,32,190920,120
54,38,191040,240
57,41,191280,120
62,47,191400,120
66,53,191520,120
62,50,191640,120
57,48,191760,120
54,46,191880,120
56,44,192000,240
56,39,192240,240
56,38,192480,240
56,37,192720,240
56,35,192960,480
44,32,193200,240
44,27,193440,240
44,24,193680,240
49,14,194880,240
56,14,194880,240
61,14,194880,240
49,14,195120,480
56,14,195120,480
61,14,195120,480
49,12,195600,240
56,12,195600,240
61,12,195600,240
49,14,195840,240
56,14,195840,240
61,14,195840,240
49,14,196080,480
56,14,196080,480
61,14,196080,480
49,14,196560,240
56,14,196560,240
61,14,196560,240
49,12,196800,480
56,12,196800,480
61,12,196800,480
54,24,197280,120
44,24,197280,240
63,20,197400,120
51,24,197520,120
44,24,197520,240
60,19,197640,120
52,27,197760,120
44,27,197760,240
61,22,197880,120
56,28,198000,120
44,28,198000,240
64,25,198120,120
54,23,198240,120
44,23,198240,240
63,19,198360,120
51,22,198480,120
44,22,198480,240
60,17,198600,120
37,14,198720,960
44,14,198720,960
49,14,198720,960
52,14,198720,960
56,14,198720,960
61,17,198720,960
