note,velocity,position,duration
65,40,1440,480
70,48,1440,480
58,36,1440,480
70,50,1920,480
58,37,1920,480
65,42,1920,480
69,48,2400,480
57,31,2400,480
65,40,2400,480
70,50,2880,480
58,37,2880,480
65,42,2880,480
72,48,3360,480
60,36,3360,480
65,40,3360,480
62,40,3840,1440
65,45,3840,1440
74,53,3840,1440
60,37,5280,240
65,42,5280,240
72,50,5280,240
58,35,5520,240
65,39,5520,240
70,46,5520,240
60,35,5760,452
72,47,5760,452
65,39,5760,452
65,38,6240,452
60,34,6240,452
72,46,6240,452
65,38,6720,452
60,34,6720,452
72,46,6720,452
65,42,7200,240
58,37,7200,240
70,50,7200,240
65,38,7440,240
57,30,7440,240
69,45,7440,240
58,37,7680,1440
70,52,7680,1440
65,52,7680,480
63,42,8160,480
67,50,8160,480
62,36,8640,480
65,44,8640,480
70,61,9120,480
63,45,9600,1440
70,51,9600,1440
75,60,9600,1440
62,41,11040,240
74,55,11040,240
70,46,11040,240
70,42,11280,240
60,37,11280,240
72,50,11280,240
70,45,11520,480
62,45,11520,480
74,53,11520,480
65,42,12000,480
57,37,12000,480
69,50,12000,480
65,44,12480,480
58,39,12480,480
70,52,12480,480
65,42,12960,480
72,50,12960,480
60,37,12960,480
70,52,13440,480
58,39,13440,480
65,44,13440,480
70,44,13920,480
74,52,13920,480
62,39,13920,480
65,44,13920,480
65,42,14400,3120
60,37,14400,3120
72,50,14400,3120
69,42,14400,3120
65,40,18720,480
58,36,18720,480
70,48,18720,480
65,42,19200,480
58,37,19200,480
70,50,19200,480
65,40,19680,480
57,31,19680,480
69,48,19680,480
65,42,20160,480
58,37,20160,480
70,50,20160,480
65,40,20640,480
72,48,20640,480
60,36,20640,480
74,53,21120,1440
62,40,21120,1440
65,45,21120,1440
72,50,22560,240
60,37,22560,240
65,42,22560,240
70,46,22800,240
58,35,22800,240
65,39,22800,240
72,47,23040,475
65,39,23040,475
60,35,23040,475
65,38,23520,475
60,34,23520,475
72,46,23520,475
65,38,24000,475
60,34,24000,475
72,46,24000,475
65,42,24480,240
58,37,24480,240
70,50,24480,240
65,38,24720,240
57,30,24720,240
69,45,24720,240
58,37,24960,1440
70,52,24960,1440
65,52,24960,480
63,42,25440,480
67,50,25440,480
62,36,25920,480
65,44,25920,480
65,51,26400,480
62,45,26400,480
74,61,26400,480
67,51,26880,1440
62,45,26880,1440
74,60,26880,1440
67,46,28320,240
72,55,28320,240
60,41,28320,240
71,50,28560,240
59,37,28560,240
67,42,28560,240
75,65,28800,480
63,53,28800,480
67,54,28800,480
74,59,29280,480
62,50,29280,480
67,50,29280,480
72,57,29760,480
60,48,29760,480
67,48,29760,480
60,45,30240,480
69,51,30240,480
72,61,30240,480
65,45,30720,1440
72,60,30720,1440
60,45,30720,1440
69,51,30720,1440
70,55,32160,240
58,41,32160,240
65,46,32160,240
69,50,32400,240
57,37,32400,240
65,42,32400,240
62,51,32640,480
65,55,32640,480
74,65,32640,480
57,47,33120,480
65,47,33120,480
69,56,33120,480
58,50,33600,480
65,50,33600,480
70,59,33600,480
65,45,34080,480
72,54,34080,480
60,40,34080,480
69,45,34080,480
65,40,34560,1200
72,54,34560,960
60,40,34560,960
69,45,34560,960
58,48,35520,240
70,48,35520,240
70,51,37920,480
70,52,38400,480
68,51,38880,480
70,52,39360,480
71,50,39840,480
73,52,40320,1440
71,56,41760,240
70,53,42000,240
75,58,42240,240
75,54,42720,240
75,54,43200,240
77,56,43680,240
78,51,43920,240
73,54,44160,1440
71,52,45600,240
70,51,45840,240
71,52,46080,480
75,52,46560,480
68,52,47040,480
71,52,47520,480
70,54,48000,480
66,51,48480,720
78,61,48480,720
65,45,49200,240
77,53,49200,240
75,56,49440,240
63,47,49440,240
61,43,49680,240
73,51,49680,240
59,46,49920,480
71,54,49920,480
75,56,50400,480
68,54,50880,480
70,52,51360,240
71,52,51600,240
70,55,51840,240
73,52,52080,240
82,56,52320,240
78,52,52560,240
73,56,52800,240
70,52,53040,240
78,55,53280,240
74,52,53520,240
75,55,53760,240
71,52,54000,240
83,56,54240,240
80,54,54480,240
77,58,54720,240
80,56,54960,240
85,58,55200,240
81,54,55440,240
82,57,55680,240
78,54,55920,240
82,57,56160,120
78,51,56280,120
82,56,56400,120
78,50,56520,120
73,56,56640,120
70,52,56760,120
73,56,56880,120
70,53,57000,120
78,58,57120,120
74,53,57240,120
78,57,57360,120
74,52,57480,120
75,57,57600,120
71,52,57720,120
75,54,57840,120
71,52,57960,120
83,57,58080,120
80,51,58200,120
83,56,58320,120
80,50,58440,120
77,56,58560,120
80,52,58680,120
77,56,58800,120
80,53,58920,120
85,58,59040,120
81,53,59160,120
85,57,59280,120
81,52,59400,120
82,57,59520,120
81,53,59640,120
82,52,59760,120
77,52,59880,120
78,57,60000,120
77,51,60120,120
78,51,60240,120
72,50,60360,120
73,55,60480,120
72,51,60600,120
73,51,60720,120
69,51,60840,120
70,54,60960,120
69,47,61080,120
70,49,61200,120
65,47,61320,120
66,57,61440,120
81,53,61560,120
82,52,61680,120
77,52,61800,120
78,57,61920,120
77,51,62040,120
78,51,62160,120
72,50,62280,120
73,55,62400,120
72,51,62520,120
73,51,62640,120
69,51,62760,120
70,54,62880,120
69,47,63000,120
70,49,63120,120
65,47,63240,120
66,53,63360,120
65,49,63480,120
66,49,63600,120
68,49,63720,120
70,55,63840,120
71,49,63960,120
70,49,64080,120
68,49,64200,120
66,55,64320,120
68,50,64440,120
70,50,64560,120
68,50,64680,120
66,55,64800,120
68,50,64920,120
66,52,65040,120
65,51,65160,120
64,57,65280,160
70,52,65440,152
58,45,65600,152
64,45,65600,152
70,54,65600,152
58,50,65760,152
70,59,65760,152
64,50,65760,152
64,47,65920,152
70,56,65920,152
58,47,65920,152
70,57,66080,152
58,48,66080,152
64,48,66080,152
70,62,66240,152
58,52,66240,152
64,52,66240,152
70,56,66400,152
58,47,66400,152
64,47,66400,152
70,57,66560,152
58,47,66560,152
64,47,66560,152
58,55,66720,152
64,55,66720,152
70,65,66720,152
58,51,66880,152
64,51,66880,152
70,61,66880,152
58,52,67040,152
64,52,67040,152
70,62,67040,152
58,57,67200,152
70,67,67200,152
64,57,67200,152
64,53,67360,152
58,53,67360,152
70,64,67360,152
64,55,67520,152
58,55,67520,152
70,65,67520,152
64,59,67680,152
58,59,67680,152
70,71,67680,152
64,56,67840,152
58,56,67840,152
70,67,67840,152
64,57,68000,152
70,69,68000,152
58,57,68000,152
70,74,68160,152
58,62,68160,152
64,62,68160,152
70,71,68320,152
58,59,68320,152
64,59,68320,152
70,72,68480,152
58,60,68480,152
64,60,68480,152
70,85,68640,152
65,72,68640,152
58,72,68640,152
65,67,68800,152
58,67,68800,152
70,80,68800,152
65,67,68960,152
58,67,68960,152
70,80,68960,152
58,63,69120,480
65,77,69120,480
70,90,69120,480
57,60,69600,480
69,85,69600,480
65,72,69600,480
65,72,70080,480
58,60,70080,480
70,85,70080,480
65,72,70560,480
60,60,70560,480
72,85,70560,480
65,78,71040,1440
62,64,71040,1440
74,92,71040,1440
65,74,72480,240
60,62,72480,240
72,89,72480,240
65,69,72720,240
70,82,72720,240
58,58,72720,240
72,88,72960,475
60,61,72960,475
65,73,72960,475
72,84,73440,475
60,59,73440,475
65,71,73440,475
72,83,73920,475
60,59,73920,475
65,70,73920,475
70,88,74400,240
58,61,74400,240
65,73,74400,240
57,58,74640,240
65,69,74640,240
69,82,74640,240
65,82,74880,480
58,75,74880,1440
70,90,74880,1440
63,73,75360,480
67,88,75360,480
65,83,75840,480
62,70,75840,480
74,89,76320,480
65,75,76320,480
62,64,76320,480
67,75,76800,1440
74,89,76800,1440
62,64,76800,1440
72,84,78240,240
60,59,78240,240
67,71,78240,240
71,79,78480,240
59,56,78480,240
67,67,78480,240
75,94,78720,480
63,67,78720,480
67,79,78720,480
74,91,79200,480
62,65,79200,480
67,76,79200,480
60,63,79680,480
67,74,79680,480
72,88,79680,480
60,60,80160,480
69,72,80160,480
72,86,80160,480
65,76,80640,1440
72,89,80640,1440
60,65,80640,1440
69,78,80640,1440
70,88,82080,240
58,63,82080,240
65,74,82080,240
57,57,82320,240
65,68,82320,240
69,80,82320,240
62,65,82560,480
65,77,82560,480
74,92,82560,480
57,61,83040,480
65,73,83040,480
69,87,83040,480
58,65,83520,480
70,92,83520,480
65,77,83520,480
60,59,84000,480
72,82,84000,480
69,70,84000,480
65,70,84000,480
65,75,84480,2880
72,89,84480,1920
60,64,84480,1920
69,75,84480,1920
71,73,86400,1440
59,61,86400,1440
68,61,86400,1440
68,55,87840,480
71,66,87840,480
62,55,87840,480
65,55,87840,480
68,55,88320,1440
62,55,88320,1440
65,55,88320,1440
71,66,88320,1440
68,66,89760,480
74,78,89760,480
71,66,89760,480
65,66,89760,480
65,72,90240,1200
74,86,90240,960
68,72,90240,1200
71,72,90240,1200
73,86,91200,240
73,80,91680,240
68,80,91680,240
71,80,91680,240
77,96,91680,240
73,77,92160,160
69,77,92160,160
78,92,92160,160
73,34,92320,152
69,28,92320,152
73,36,92480,152
69,30,92480,152
73,38,92640,152
69,32,92640,152
69,29,92800,152
73,35,92800,152
69,29,92960,152
73,35,92960,152
73,38,93120,152
69,32,93120,152
69,29,93280,152
73,35,93280,152
69,29,93440,152
73,35,93440,152
78,54,93600,480
73,32,93760,152
69,27,93760,152
69,27,93920,152
73,32,93920,152
78,53,94080,480
69,27,94240,152
73,32,94240,152
69,27,94400,152
73,32,94400,152
81,53,94560,480
69,26,94720,152
73,31,94720,152
69,26,94880,152
73,31,94880,152
78,53,95040,480
69,27,95200,152
73,32,95200,152
73,32,95360,152
69,27,95360,152
81,53,95520,480
73,31,95680,152
69,26,95680,152
69,26,95840,152
73,31,95840,152
81,56,96000,480
78,32,96160,152
73,27,96160,152
78,32,96320,152
73,27,96320,152
85,55,96480,480
78,32,96640,152
73,27,96640,152
73,27,96800,152
78,32,96800,152
81,55,96960,480
73,27,97120,152
78,32,97120,152
73,27,97280,152
78,32,97280,152
85,56,97440,480
78,32,97600,152
73,27,97600,152
73,27,97760,152
78,32,97760,152
73,56,97920,480
66,27,98080,152
69,32,98080,152
66,27,98240,152
69,32,98240,152
77,56,98400,480
73,33,98560,152
71,33,98560,152
65,27,98560,152
65,27,98720,152
73,34,98720,152
71,34,98720,152
78,58,98880,480
73,34,99040,152
66,28,99040,152
69,34,99040,152
73,35,99200,152
66,29,99200,152
69,35,99200,152
80,62,99360,480
74,36,99520,152
76,36,99520,152
68,29,99520,152
76,36,99680,152
68,29,99680,152
74,36,99680,152
81,61,99840,480
76,36,100000,152
69,30,100000,152
73,30,100000,152
76,36,100160,152
69,29,100160,152
73,29,100160,152
83,60,100320,480
71,28,100480,152
73,35,100480,152
77,35,100480,152
73,34,100640,152
77,34,100640,152
71,28,100640,152
81,57,100800,480
69,27,100960,152
78,33,100960,152
73,33,100960,152
69,27,101120,152
78,32,101120,152
73,32,101120,152
80,56,101280,480
68,27,101440,152
76,32,101440,152
71,32,101440,152
68,27,101600,152
76,32,101600,152
71,32,101600,152
80,54,101760,960
68,26,101920,152
71,26,101920,152
76,31,101920,152
68,26,102080,152
76,31,102080,152
71,26,102080,152
71,26,102240,152
68,26,102240,152
76,31,102240,152
71,26,102400,152
68,26,102400,152
76,31,102400,152
71,27,102560,152
68,27,102560,152
76,32,102560,152
80,55,102720,480
68,25,102880,152
73,29,102880,152
71,25,102880,152
71,25,103040,152
73,30,103040,152
68,25,103040,152
81,54,103200,480
73,29,103360,152
69,25,103360,152
69,25,103520,160
73,29,103520,160
78,53,103680,480
69,27,103840,152
73,32,103840,152
69,27,104000,152
73,32,104000,152
81,53,104160,480
73,31,104320,152
69,26,104320,152
69,26,104480,152
73,31,104480,152
78,53,104640,480
69,27,104800,152
73,32,104800,152
69,27,104960,152
73,32,104960,152
81,53,105120,480
69,26,105280,152
73,31,105280,152
73,31,105440,152
69,26,105440,152
81,56,105600,480
73,27,105760,152
78,32,105760,152
73,27,105920,152
78,32,105920,152
85,55,106080,480
73,27,106240,152
78,32,106240,152
78,32,106400,152
73,27,106400,152
81,55,106560,480
78,32,106720,152
73,27,106720,152
73,27,106880,152
78,32,106880,152
85,56,107040,480
73,27,107200,152
78,32,107200,152
78,32,107360,152
73,27,107360,152
73,56,107520,480
69,32,107680,152
66,27,107680,152
69,32,107840,152
66,27,107840,152
77,56,108000,480
73,33,108160,152
65,27,108160,152
71,33,108160,152
73,34,108320,152
65,27,108320,152
71,34,108320,152
78,58,108480,480
69,34,108640,152
73,34,108640,152
66,28,108640,152
69,35,108800,152
73,35,108800,152
66,29,108800,152
80,62,108960,480
74,36,109120,152
76,36,109120,152
68,29,109120,152
74,36,109280,152
76,36,109280,152
68,29,109280,152
81,61,109440,480
73,30,109600,152
69,30,109600,152
76,36,109600,152
73,29,109760,152
76,36,109760,152
69,29,109760,152
83,60,109920,480
71,28,110080,152
77,35,110080,152
73,35,110080,152
71,28,110240,152
77,34,110240,152
73,34,110240,152
81,57,110400,480
78,33,110560,152
73,33,110560,152
69,27,110560,152
69,27,110720,152
78,32,110720,152
73,32,110720,152
80,56,110880,480
76,32,111040,152
68,27,111040,152
71,32,111040,152
76,32,111200,152
68,27,111200,152
71,32,111200,152
80,54,111360,960
76,31,111520,152
71,26,111520,152
68,26,111520,152
71,26,111680,152
68,26,111680,152
76,31,111680,152
71,26,111840,152
68,26,111840,152
76,31,111840,152
71,26,112000,152
68,26,112000,152
76,31,112000,152
71,27,112160,152
68,27,112160,152
76,32,112160,152
73,41,112320,240
76,41,112320,240
69,41,112320,240
81,49,112320,240
76,52,112800,480
76,54,113280,720
74,51,114000,240
73,51,114240,240
73,52,114720,480
73,54,115200,720
71,51,115920,240
70,51,116160,240
70,52,116640,480
66,52,116640,480
70,52,117120,480
66,44,117120,480
66,47,117600,480
71,55,117600,480
66,47,118080,480
70,47,118080,480
73,56,118080,480
66,48,118560,480
71,48,118560,480
74,57,118560,480
66,50,119040,480
76,59,119040,480
73,50,119040,480
73,51,119520,480
67,51,119520,480
76,60,119520,480
73,52,120000,480
68,52,120000,480
76,61,120000,480
73,53,120480,480
69,53,120480,480
76,63,120480,480
76,59,120960,600
77,51,121560,120
76,53,121680,120
74,51,121800,120
73,56,121920,240
73,57,122400,480
73,59,122880,600
74,53,123480,120
73,53,123600,120
71,53,123720,120
70,56,123840,240
66,57,124320,480
70,57,124320,480
70,57,124800,360
66,48,124800,360
70,57,125160,120
66,48,125160,120
71,60,125280,360
66,51,125280,360
66,51,125640,120
71,60,125640,120
66,51,125760,360
70,51,125760,360
73,61,125760,360
66,51,126120,120
70,51,126120,120
73,61,126120,120
66,52,126240,360
74,62,126240,360
71,52,126240,360
71,52,126600,120
66,52,126600,120
74,62,126600,120
73,55,126720,360
66,55,126720,360
76,64,126720,360
73,55,127080,120
66,55,127080,120
76,64,127080,120
73,56,127200,360
67,56,127200,360
76,66,127200,360
73,56,127560,120
76,66,127560,120
67,56,127560,120
76,67,127680,360
68,57,127680,360
73,57,127680,360
76,67,128040,120
68,57,128040,120
73,57,128040,120
76,69,128160,480
69,58,128160,480
73,58,128160,480
76,59,128640,840
74,56,129480,120
73,56,129600,240
73,57,130080,480
76,49,130500,60
74,60,130560,120
73,57,130680,120
74,57,130800,120
76,57,130920,120
79,49,130980,60
77,60,131040,120
76,57,131160,120
77,57,131280,120
79,57,131400,120
81,59,131520,240
81,59,132000,240
77,57,132240,240
76,59,132480,840
74,56,133320,120
73,56,133440,240
85,63,133920,480
73,63,133920,480
74,63,134400,240
86,63,134400,240
77,64,134640,240
89,64,134640,240
79,64,134880,240
91,64,134880,240
81,65,135120,240
93,65,135120,240
82,66,135360,480
94,66,135360,480
91,69,135840,480
79,69,135840,480
89,70,136320,480
77,70,136320,480
87,69,136800,480
75,69,136800,480
86,66,137280,480
74,66,137280,480
84,65,137760,480
72,65,137760,480
71,61,138240,2160
83,61,138240,2160
71,51,140400,228
71,51,140640,228
71,51,140880,228
71,50,141120,228
71,50,141360,228
71,50,141600,228
71,50,141840,228
72,53,142080,840
74,47,142920,120
72,52,143040,240
77,49,143520,60
79,43,143580,60
77,44,143640,60
79,44,143700,60
77,44,143760,60
79,46,143820,60
76,51,143880,60
77,44,143940,60
81,58,144000,840
69,46,144000,840
67,40,144840,120
79,51,144840,120
65,43,144960,240
77,53,144960,240
74,54,145440,480
72,58,145920,840
74,53,146760,120
72,60,146880,240
89,53,147360,60
91,47,147420,60
89,48,147480,60
91,48,147540,60
89,48,147600,60
91,50,147660,60
88,55,147720,60
89,48,147780,60
93,69,147840,840
81,63,147840,840
79,62,148680,120
91,62,148680,120
77,67,148800,240
89,67,148800,240
74,48,149280,480
77,48,149280,480
82,69,149280,480
86,69,149280,480
72,58,149760,480
77,58,149760,480
81,69,149760,480
84,69,149760,480
74,61,150240,480
77,61,150240,480
82,72,150240,480
86,72,150240,480
77,62,150720,480
81,62,150720,480
84,74,150720,480
89,74,150720,480
79,66,151200,480
84,66,151200,480
88,78,151200,480
91,78,151200,480
79,63,151680,960
84,63,151680,960
88,75,151680,960
91,75,151680,960
88,63,152640,160
84,54,152800,160
79,54,152960,160
76,54,153120,160
79,52,153280,160
84,51,153440,160
77,53,153600,160
84,49,153760,160
81,49,153920,80
77,53,154080,80
72,48,154240,80
69,46,154400,80
65,51,154560,80
69,46,154720,80
72,46,154880,80
69,53,155040,80
72,50,155200,80
77,50,155360,80
77,53,155520,160
86,49,155680,160
82,49,155840,80
77,53,156000,80
74,48,156160,80
70,46,156320,80
65,51,156480,80
70,46,156640,80
74,46,156800,80
70,53,156960,80
74,50,157120,80
77,50,157280,80
77,53,157440,160
89,49,157600,160
84,49,157760,80
81,53,157920,80
77,48,158080,80
72,46,158240,80
69,51,158400,80
65,46,158560,80
60,46,158720,80
65,53,158880,80
69,50,159040,80
72,50,159200,80
72,51,159360,160
77,47,159520,160
77,47,159680,80
74,51,159840,160
79,48,160000,160
79,48,160160,80
72,51,160320,160
77,47,160480,160
77,47,160640,80
72,51,160800,160
76,47,160960,160
76,47,161120,80
72,51,161280,160
75,47,161440,160
75,47,161600,80
72,52,161760,160
74,50,161920,160
74,50,162080,80
66,46,162240,160
69,54,162240,160
75,50,162400,160
75,51,162560,80
66,47,162720,160
69,56,162720,160
74,52,162880,160
74,53,163040,80
65,49,163200,160
70,58,163200,160
75,54,163360,160
75,54,163520,80
65,49,163680,160
70,58,163680,160
74,54,163840,160
74,54,164000,80
65,48,164160,160
69,57,164160,160
72,53,164320,160
72,52,164480,80
64,48,164640,160
67,57,164640,160
72,52,164800,160
72,52,164960,80
65,41,165120,480
69,41,165120,480
72,49,165120,480
77,49,166080,240
69,40,166080,240
72,40,166080,240
72,40,166560,240
75,40,166560,240
77,49,166560,240
70,45,167040,480
74,45,167040,480
77,53,167040,480
70,40,168000,240
74,40,168000,240
77,49,168000,240
74,40,168480,240
77,49,168480,240
69,45,168960,480
72,45,168960,480
77,53,168960,480
72,44,169920,240
77,44,169920,240
81,53,169920,240
72,44,170400,240
81,44,170400,240
84,53,170400,240
84,56,170880,160
89,51,171040,160
89,51,171200,80
86,56,171360,160
91,52,171520,160
91,52,171680,80
84,56,171840,160
89,51,172000,160
89,51,172160,80
84,56,172320,160
88,51,172480,160
88,51,172640,80
84,56,172800,160
87,51,172960,160
87,51,173120,80
84,57,173280,160
86,55,173440,160
86,55,173600,80
78,58,173760,160
81,58,173760,160
87,53,173920,160
87,53,174080,80
78,48,174240,160
81,57,174240,160
86,54,174400,160
86,54,174560,80
77,48,174720,160
82,57,174720,160
87,52,174880,160
87,52,175040,80
77,48,175200,160
82,57,175200,160
86,53,175360,160
86,52,175520,80
77,48,175680,160
81,57,175680,160
84,53,175840,160
84,49,176000,80
76,45,176160,160
79,54,176160,160
84,48,176320,160
84,48,176480,80
70,45,176640,160
73,42,176800,160
73,42,176960,80
70,46,177120,160
72,45,177280,160
72,45,177440,80
64,41,177600,160
67,48,177600,160
73,45,177760,160
73,45,177920,80
64,42,178080,160
67,50,178080,160
72,46,178240,160
72,47,178400,80
63,44,178560,160
68,52,178560,160
73,48,178720,160
73,48,178880,80
63,44,179040,160
68,52,179040,160
72,48,179200,160
72,48,179360,80
63,43,179520,160
67,51,179520,160
70,47,179680,160
70,46,179840,80
62,43,180000,160
65,51,180000,160
70,46,180160,160
70,46,180320,80
73,41,181440,160
78,48,181440,160
82,45,181600,160
82,45,181760,80
73,41,181920,160
78,49,181920,160
81,44,182080,160
81,44,182240,80
73,42,182400,160
77,50,182400,160
80,46,182560,160
80,46,182720,80
72,40,182880,160
75,48,182880,160
80,44,183040,160
80,44,183200,80
61,37,183840,160
64,44,183840,160
68,39,184000,160
68,39,184160,80
60,38,184320,160
63,45,184320,160
68,41,184480,160
68,41,184640,80
60,33,185280,160
63,39,185280,160
66,35,185440,160
66,35,185600,80
60,34,185760,160
63,40,185760,160
65,36,185920,160
65,36,186080,80
72,40,186720,160
75,40,186720,160
77,36,186880,160
77,36,187040,80
70,45,187200,160
75,45,187200,160
79,37,187360,160
79,37,187520,80
70,45,187680,160
74,45,187680,160
77,39,187840,160
77,39,188000,80
58,39,188160,160
62,47,188160,160
65,40,188320,160
65,40,188480,80
57,43,188640,160
60,51,188640,160
65,46,188800,160
65,46,188960,80
60,49,189120,160
65,58,189120,160
72,50,189280,160
72,50,189440,80
60,50,189600,160
64,60,189600,160
72,53,189760,160
72,53,189920,80
57,58,190080,120
60,58,190080,120
65,58,190080,120
60,47,190240,160
57,47,190400,160
60,47,190560,160
65,51,190720,160
69,55,190880,160
72,68,191040,720
62,48,191520,240
64,45,191760,240
70,54,191760,240
60,47,192000,480
65,47,192000,480
69,56,192000,480
61,52,192480,480
67,52,192480,480
69,62,192480,480
62,54,192960,480
60,54,192960,480
66,54,192960,480
69,64,192960,480
70,65,193440,360
58,55,193440,480
62,55,193440,480
67,55,193440,480
69,55,193800,120
60,44,193920,1080
64,44,193920,960
67,52,193920,720
68,47,194640,240
65,43,194880,120
69,51,194880,120
60,39,195360,120
65,39,195360,120
69,46,195360,120
48,47,196000,160
45,47,196160,160
48,47,196320,160
53,51,196480,160
57,55,196640,160
60,65,196800,720
48,46,197040,480
50,48,197280,240
48,45,197520,240
52,45,197520,240
58,54,197520,240
48,47,197760,480
53,47,197760,480
57,56,197760,480
49,52,198240,480
55,52,198240,480
57,62,198240,480
50,54,198720,480
48,54,198720,480
54,54,198720,480
57,64,198720,480
58,71,199200,240
46,60,199200,240
50,60,199200,240
55,60,199200,240
62,62,200160,480
68,62,200160,480
70,74,200160,480
63,64,200640,480
61,64,200640,480
67,64,200640,480
70,77,200640,480
71,85,201120,240
59,72,201120,240
63,72,201120,240
68,72,201120,240
74,82,202080,480
76,82,202080,480
83,99,202080,480
80,99,202080,480
72,88,202560,240
76,88,202560,240
81,103,202560,240
84,103,202560,240
77,52,203520,1080
81,52,203520,960
84,62,203520,720
85,56,204240,240
82,51,204480,120
86,61,204480,120
77,46,204960,120
82,46,204960,120
86,55,204960,120
77,51,205440,1440
86,61,205440,1440
89,61,205440,1440
77,54,207360,1200
74,45,208560,240
70,50,208800,240
69,45,209040,240
60,34,209280,1080
64,34,209280,960
69,49,209280,480
67,44,209760,360
68,44,210120,120
65,40,210240,120
69,48,210240,120
60,30,210720,120
65,36,210720,120
69,44,210720,120
69,48,211200,1440
72,48,211200,1440
77,52,213120,1080
81,52,213120,960
84,62,213120,720
85,56,213840,240
82,51,214080,120
86,61,214080,120
77,55,214560,120
82,55,214560,120
86,66,214560,120
70,80,215040,60
74,79,215100,60
77,77,215160,60
82,74,215220,60
86,71,215280,60
89,68,215340,60
94,65,215400,60
98,61,215460,60
101,58,215520,60
77,62,216960,1680
76,50,218640,240
76,53,218880,480
74,51,219360,360
72,47,219720,120
72,51,219840,480
70,48,220320,360
69,41,220680,120
60,30,220800,1080
64,30,220800,960
69,44,220800,480
67,39,221280,360
68,39,221640,120
65,36,221760,120
69,43,221760,120
60,27,222240,120
65,32,222240,120
69,39,222240,120
69,43,222720,1440
72,43,222720,1440
65,48,225600,120
66,53,225720,120
63,48,226080,120
66,52,226200,120
72,36,226560,120
81,43,226560,120
72,32,227040,120
81,39,227040,120
81,43,227520,960
84,43,227520,960
53,42,229440,120
54,48,229560,120
51,41,229920,120
54,48,230040,120
60,32,230400,120
69,38,230400,120
60,28,230880,120
69,35,230880,120
69,38,231360,960
72,38,231360,960
63,54,232800,120
66,61,232920,120
63,55,233760,120
66,62,233880,120
63,77,234720,120
66,83,234840,120
59,81,235200,120
66,88,235320,120
58,88,235680,120
66,94,235800,120
57,95,236160,120
65,103,236280,120
65,85,236640,80
72,85,236640,80
75,101,236640,80
77,101,236640,80
65,85,236800,80
72,85,236800,80
75,101,236800,80
77,101,236800,80
65,85,236960,80
72,85,236960,80
75,101,236960,80
77,101,236960,80
77,94,237120,120
84,94,237120,120
87,112,237120,120
89,112,237120,120
58,36,241440,480
65,40,241440,480
70,48,241440,480
58,37,241920,480
65,42,241920,480
70,50,241920,480
57,31,242400,480
65,40,242400,480
69,48,242400,480
58,37,242880,480
65,42,242880,480
70,50,242880,480
60,36,243360,480
65,40,243360,480
72,48,243360,480
62,40,243840,1440
65,45,243840,1440
74,53,243840,1440
60,37,245280,240
65,42,245280,240
72,50,245280,240
58,35,245520,240
65,39,245520,240
70,46,245520,240
60,35,245760,475
65,39,245760,475
72,47,245760,475
60,34,246240,475
65,38,246240,475
72,46,246240,475
60,34,246720,475
65,38,246720,475
72,46,246720,475
58,37,247200,240
65,42,247200,240
70,50,247200,240
57,30,247440,240
65,38,247440,240
69,45,247440,240
65,52,247680,480
58,37,247680,1440
70,52,247680,1440
63,42,248160,480
67,50,248160,480
62,36,248640,480
65,44,248640,480
70,61,249120,480
63,45,249600,1440
70,51,249600,1440
75,60,249600,1440
62,41,251040,240
70,46,251040,240
74,55,251040,240
60,37,251280,240
70,42,251280,240
72,50,251280,240
62,45,251520,480
70,45,251520,480
74,53,251520,480
57,37,252000,480
65,42,252000,480
69,50,252000,480
58,39,252480,480
65,44,252480,480
70,52,252480,480
60,37,252960,480
65,42,252960,480
72,50,252960,480
58,39,253440,480
65,44,253440,480
70,52,253440,480
65,44,253920,480
62,39,253920,480
70,44,253920,480
74,52,253920,480
60,37,254400,3120
65,42,254400,3120
69,42,254400,3120
72,50,254400,3120
58,36,258720,480
65,40,258720,480
70,48,258720,480
58,37,259200,480
65,42,259200,480
70,50,259200,480
57,31,259680,480
65,40,259680,480
69,48,259680,480
58,37,260160,480
65,42,260160,480
70,50,260160,480
60,36,260640,480
65,40,260640,480
72,48,260640,480
62,40,261120,1440
65,45,261120,1440
74,53,261120,1440
60,37,262560,240
65,42,262560,240
72,50,262560,240
58,35,262800,240
65,39,262800,240
70,46,262800,240
60,35,263040,475
65,39,263040,475
72,47,263040,475
60,34,263520,475
65,38,263520,475
72,46,263520,475
60,34,264000,475
65,38,264000,475
72,46,264000,475
58,37,264480,240
65,42,264480,240
70,50,264480,240
57,30,264720,240
65,38,264720,240
69,45,264720,240
65,52,264960,480
58,37,264960,1440
70,52,264960,1440
63,42,265440,480
67,50,265440,480
62,36,265920,480
65,44,265920,480
62,45,266400,480
65,51,266400,480
74,61,266400,480
62,45,266880,1440
67,51,266880,1440
74,60,266880,1440
60,41,268320,240
67,46,268320,240
72,55,268320,240
59,37,268560,240
67,42,268560,240
71,50,268560,240
63,53,268800,480
67,54,268800,480
75,65,268800,480
62,50,269280,480
67,50,269280,480
74,59,269280,480
60,48,269760,480
67,48,269760,480
72,57,269760,480
60,45,270240,480
69,51,270240,480
72,61,270240,480
65,45,270720,1440
60,45,270720,1440
69,51,270720,1440
72,60,270720,1440
58,41,272160,240
65,46,272160,240
70,55,272160,240
57,37,272400,240
65,42,272400,240
69,50,272400,240
62,51,272640,480
65,55,272640,480
74,65,272640,480
57,47,273120,480
65,47,273120,480
69,56,273120,480
58,50,273600,480
65,50,273600,480
70,59,273600,480
65,45,274080,480
60,40,274080,480
69,45,274080,480
72,54,274080,480
65,40,274560,1200
60,40,274560,960
69,45,274560,960
72,54,274560,960
58,48,275520,240
70,48,275520,240
70,51,277920,480
70,52,278400,480
68,51,278880,480
70,52,279360,480
71,50,279840,480
73,52,280320,1440
71,55,281760,240
70,52,282000,240
75,58,282240,240
75,54,282720,240
75,54,283200,240
77,56,283680,240
78,51,283920,240
73,54,284160,1440
71,52,285600,240
70,51,285840,240
71,52,286080,480
75,52,286560,480
68,52,287040,480
71,52,287520,480
70,54,288000,480
66,51,288480,720
78,61,288480,720
65,45,289200,240
77,53,289200,240
63,47,289440,240
75,56,289440,240
61,43,289680,240
73,51,289680,240
59,46,289920,480
71,54,289920,480
75,56,290400,480
68,54,290880,480
70,52,291360,240
71,52,291600,240
70,55,291840,240
73,52,292080,240
82,56,292320,240
78,52,292560,240
73,56,292800,240
70,52,293040,240
78,55,293280,240
74,52,293520,240
75,55,293760,240
71,52,294000,240
83,56,294240,240
80,54,294480,240
77,58,294720,240
80,56,294960,240
85,58,295200,240
81,54,295440,240
82,57,295680,240
78,54,295920,240
82,57,296160,120
78,51,296280,120
82,56,296400,120
78,50,296520,120
73,56,296640,120
70,52,296760,120
73,56,296880,120
70,53,297000,120
78,58,297120,120
74,53,297240,120
78,57,297360,120
74,52,297480,120
75,57,297600,120
71,52,297720,120
75,54,297840,120
71,52,297960,120
83,57,298080,120
80,51,298200,120
83,56,298320,120
80,50,298440,120
77,56,298560,120
80,52,298680,120
77,56,298800,120
80,53,298920,120
85,58,299040,120
81,53,299160,120
85,57,299280,120
81,52,299400,120
82,57,299520,120
81,53,299640,120
82,52,299760,120
77,52,299880,120
78,57,300000,120
77,51,300120,120
78,51,300240,120
72,50,300360,120
73,55,300480,120
72,51,300600,120
73,51,300720,120
69,51,300840,120
70,54,300960,120
69,47,301080,120
70,49,301200,120
65,47,301320,120
66,57,301440,120
81,53,301560,120
82,52,301680,120
77,52,301800,120
78,57,301920,120
77,51,302040,120
78,51,302160,120
72,50,302280,120
73,55,302400,120
72,51,302520,120
73,51,302640,120
69,51,302760,120
70,54,302880,120
69,47,303000,120
70,49,303120,120
65,47,303240,120
66,53,303360,120
65,49,303480,120
66,49,303600,120
68,49,303720,120
70,55,303840,120
71,49,303960,120
70,49,304080,120
68,49,304200,120
66,55,304320,120
68,50,304440,120
70,50,304560,120
68,50,304680,120
66,55,304800,120
68,50,304920,120
66,52,305040,120
65,51,305160,120
64,57,305280,160
70,52,305440,152
58,45,305600,152
64,45,305600,152
70,54,305600,152
58,50,305760,152
64,50,305760,152
70,59,305760,152
58,47,305920,152
64,47,305920,152
70,56,305920,152
58,48,306080,152
64,48,306080,152
70,57,306080,152
58,52,306240,152
64,52,306240,152
70,62,306240,152
58,47,306400,152
64,47,306400,152
70,56,306400,152
58,47,306560,152
64,47,306560,152
70,57,306560,152
58,55,306720,152
64,55,306720,152
70,65,306720,152
58,51,306880,152
64,51,306880,152
70,61,306880,152
58,52,307040,152
64,52,307040,152
70,62,307040,152
58,57,307200,152
64,57,307200,152
70,67,307200,152
58,53,307360,152
64,53,307360,152
70,64,307360,152
58,55,307520,152
64,55,307520,152
70,65,307520,152
58,59,307680,152
64,59,307680,152
70,71,307680,152
58,56,307840,152
64,56,307840,152
70,67,307840,152
58,57,308000,152
64,57,308000,152
70,69,308000,152
58,62,308160,152
64,62,308160,152
70,74,308160,152
58,59,308320,152
64,59,308320,152
70,71,308320,152
58,60,308480,152
64,60,308480,152
70,72,308480,152
65,72,308640,152
58,72,308640,152
70,85,308640,152
65,67,308800,152
58,67,308800,152
70,80,308800,152
65,67,308960,152
58,67,308960,152
70,80,308960,152
58,63,309120,480
65,77,309120,480
70,90,309120,480
57,60,309600,480
65,72,309600,480
69,85,309600,480
58,60,310080,480
65,72,310080,480
70,85,310080,480
60,60,310560,480
65,72,310560,480
72,85,310560,480
62,64,311040,1440
65,78,311040,1440
74,92,311040,1440
60,62,312480,240
65,74,312480,240
72,89,312480,240
58,58,312720,240
65,69,312720,240
70,82,312720,240
60,61,312960,475
65,73,312960,475
72,88,312960,475
60,59,313440,475
65,71,313440,475
72,84,313440,475
60,59,313920,475
65,70,313920,475
72,83,313920,475
58,61,314400,240
65,73,314400,240
70,88,314400,240
57,58,314640,240
65,69,314640,240
69,82,314640,240
65,77,314880,480
58,75,314880,1440
70,90,314880,1440
63,73,315360,480
67,88,315360,480
62,70,315840,480
65,83,315840,480
62,64,316320,480
65,75,316320,480
74,89,316320,480
62,64,316800,1440
67,75,316800,1440
74,89,316800,1440
60,59,318240,240
67,71,318240,240
72,84,318240,240
59,56,318480,240
67,67,318480,240
71,79,318480,240
63,67,318720,480
67,79,318720,480
75,94,318720,480
62,65,319200,480
67,76,319200,480
74,91,319200,480
60,63,319680,480
67,74,319680,480
72,88,319680,480
60,60,320160,480
69,72,320160,480
72,86,320160,480
65,76,320640,1440
60,65,320640,1440
69,78,320640,1440
72,89,320640,1440
58,63,322080,240
65,74,322080,240
70,88,322080,240
57,57,322320,240
65,68,322320,240
69,80,322320,240
62,65,322560,480
65,77,322560,480
74,92,322560,480
57,61,323040,480
65,73,323040,480
69,87,323040,480
58,65,323520,480
65,77,323520,480
70,92,323520,480
65,70,324000,480
60,59,324000,480
69,70,324000,480
72,82,324000,480
65,75,324480,2880
60,64,324480,1920
69,75,324480,1920
72,89,324480,1920
59,61,326400,1440
68,61,326400,1440
71,73,326400,1440
62,55,327840,480
65,55,327840,480
68,55,327840,480
71,66,327840,480
62,55,328320,1440
65,55,328320,1440
68,55,328320,1440
71,66,328320,1440
65,66,329760,480
68,66,329760,480
71,66,329760,480
74,78,329760,480
65,72,330240,1200
68,72,330240,1200
71,72,330240,1200
74,86,330240,960
73,86,331200,240
68,80,331680,240
71,80,331680,240
73,80,331680,240
77,96,331680,240
69,77,332160,152
73,77,332160,152
78,92,332160,152
69,28,332320,152
73,34,332320,152
69,30,332480,152
73,36,332480,152
69,32,332640,152
73,38,332640,152
69,29,332800,152
73,35,332800,152
69,29,332960,152
73,35,332960,152
69,32,333120,152
73,38,333120,152
69,29,333280,152
73,35,333280,152
69,29,333440,160
73,35,333440,160
78,54,333600,480
69,27,333760,152
73,32,333760,152
69,27,333920,152
73,32,333920,152
78,53,334080,480
69,27,334240,152
73,32,334240,152
69,27,334400,152
73,32,334400,152
81,53,334560,480
69,26,334720,152
73,31,334720,152
69,26,334880,152
73,31,334880,152
78,53,335040,480
69,27,335200,152
73,32,335200,152
69,27,335360,152
73,32,335360,152
81,53,335520,480
69,26,335680,152
73,31,335680,152
69,26,335840,152
73,31,335840,152
81,56,336000,480
73,27,336160,152
78,32,336160,152
73,27,336320,152
78,32,336320,152
85,55,336480,480
73,27,336640,152
78,32,336640,152
73,27,336800,152
78,32,336800,152
81,55,336960,480
73,27,337120,152
78,32,337120,152
73,27,337280,152
78,32,337280,152
85,56,337440,480
73,27,337600,152
78,32,337600,152
73,27,337760,152
78,32,337760,152
73,56,337920,480
66,27,338080,152
69,32,338080,152
66,27,338240,152
69,32,338240,152
77,56,338400,480
73,33,338560,152
65,27,338560,152
71,33,338560,152
73,34,338720,152
65,27,338720,152
71,34,338720,152
78,58,338880,480
73,34,339040,152
66,28,339040,152
69,34,339040,152
73,35,339200,152
66,29,339200,152
69,35,339200,152
80,62,339360,480
76,36,339520,152
68,29,339520,152
74,36,339520,152
76,36,339680,152
68,29,339680,152
74,36,339680,152
81,61,339840,480
69,30,340000,152
73,30,340000,152
76,36,340000,152
69,29,340160,152
73,29,340160,152
76,36,340160,152
83,60,340320,480
77,35,340480,152
71,28,340480,152
73,35,340480,152
77,34,340640,152
71,28,340640,152
73,34,340640,152
81,57,340800,480
78,33,340960,152
69,27,340960,152
73,33,340960,152
78,32,341120,152
69,27,341120,152
73,32,341120,152
80,56,341280,480
76,32,341440,152
68,27,341440,152
71,32,341440,152
76,32,341600,152
68,27,341600,152
71,32,341600,152
80,54,341760,960
68,26,341920,152
71,26,341920,152
76,31,341920,152
68,26,342080,152
71,26,342080,152
76,31,342080,152
68,26,342240,152
71,26,342240,152
76,31,342240,152
68,26,342400,152
71,26,342400,152
76,31,342400,152
68,27,342560,152
71,27,342560,152
76,32,342560,152
80,55,342720,480
68,25,342880,152
71,25,342880,152
73,29,342880,152
68,25,343040,152
71,25,343040,152
73,30,343040,152
81,54,343200,480
69,25,343360,152
73,29,343360,152
69,25,343520,152
73,29,343520,152
78,53,343680,480
69,27,343840,152
73,32,343840,152
69,27,344000,152
73,32,344000,152
81,53,344160,480
69,26,344320,152
73,31,344320,152
69,26,344480,152
73,31,344480,152
78,53,344640,480
69,27,344800,152
73,32,344800,152
69,27,344960,152
73,32,344960,152
81,53,345120,480
69,26,345280,152
73,31,345280,152
69,26,345440,152
73,31,345440,152
81,56,345600,480
73,27,345760,152
78,32,345760,152
73,27,345920,152
78,32,345920,152
85,55,346080,480
73,27,346240,152
78,32,346240,152
73,27,346400,152
78,32,346400,152
81,55,346560,480
73,27,346720,152
78,32,346720,152
73,27,346880,152
78,32,346880,152
85,56,347040,480
73,27,347200,152
78,32,347200,152
73,27,347360,152
78,32,347360,152
73,56,347520,480
66,27,347680,152
69,32,347680,152
66,27,347840,160
69,32,347840,160
77,56,348000,480
73,33,348160,152
65,27,348160,152
71,33,348160,152
73,34,348320,152
65,27,348320,152
71,34,348320,152
78,58,348480,480
73,34,348640,152
66,28,348640,152
69,34,348640,152
73,35,348800,152
66,29,348800,152
69,35,348800,152
80,62,348960,480
76,36,349120,152
68,29,349120,152
74,36,349120,152
76,36,349280,152
68,29,349280,152
74,36,349280,152
81,61,349440,480
69,30,349600,152
73,30,349600,152
76,36,349600,152
69,29,349760,152
73,29,349760,152
76,36,349760,152
83,60,349920,480
77,35,350080,152
71,28,350080,152
73,35,350080,152
77,34,350240,152
71,28,350240,152
73,34,350240,152
81,57,350400,480
78,33,350560,152
69,27,350560,152
73,33,350560,152
78,32,350720,152
69,27,350720,152
73,32,350720,152
80,56,350880,480
76,32,351040,152
68,27,351040,152
71,32,351040,152
76,32,351200,152
68,27,351200,152
71,32,351200,152
80,54,351360,960
68,26,351520,152
71,26,351520,152
76,31,351520,152
68,26,351680,152
71,26,351680,152
76,31,351680,152
68,26,351840,152
71,26,351840,152
76,31,351840,152
68,26,352000,152
71,26,352000,152
76,31,352000,152
68,27,352160,152
71,27,352160,152
76,32,352160,152
69,41,352320,240
73,41,352320,240
76,41,352320,240
81,49,352320,240
76,52,352800,480
76,54,353280,720
74,51,354000,240
73,51,354240,240
73,52,354720,480
73,54,355200,720
71,51,355920,240
70,51,356160,240
66,52,356640,480
70,52,356640,480
66,44,357120,480
70,52,357120,480
66,47,357600,480
71,55,357600,480
66,47,358080,480
70,47,358080,480
73,56,358080,480
66,48,358560,480
71,48,358560,480
74,57,358560,480
66,50,359040,480
73,50,359040,480
76,59,359040,480
67,51,359520,480
73,51,359520,480
76,60,359520,480
68,52,360000,480
73,52,360000,480
76,61,360000,480
69,53,360480,480
73,53,360480,480
76,63,360480,480
76,59,360960,600
77,51,361560,120
76,53,361680,120
74,51,361800,120
73,56,361920,240
73,57,362400,480
73,59,362880,600
74,53,363480,120
73,53,363600,120
71,53,363720,120
70,56,363840,240
66,57,364320,480
70,57,364320,480
66,48,364800,360
70,57,364800,360
66,48,365160,120
70,57,365160,120
66,51,365280,360
71,60,365280,360
66,51,365640,120
71,60,365640,120
66,51,365760,360
70,51,365760,360
73,61,365760,360
66,51,366120,120
70,51,366120,120
73,61,366120,120
66,52,366240,360
71,52,366240,360
74,62,366240,360
66,52,366600,120
71,52,366600,120
74,62,366600,120
66,55,366720,360
73,55,366720,360
76,64,366720,360
66,55,367080,120
73,55,367080,120
76,64,367080,120
67,56,367200,360
73,56,367200,360
76,66,367200,360
67,56,367560,120
73,56,367560,120
76,66,367560,120
68,57,367680,360
73,57,367680,360
76,67,367680,360
68,57,368040,120
73,57,368040,120
76,67,368040,120
69,58,368160,480
73,58,368160,480
76,69,368160,480
76,59,368640,840
74,56,369480,120
73,56,369600,240
73,57,370080,480
76,49,370500,60
74,60,370560,120
73,57,370680,120
74,57,370800,120
76,57,370920,120
79,49,370980,60
77,60,371040,120
76,57,371160,120
77,57,371280,120
79,57,371400,120
81,59,371520,240
81,59,372000,240
77,57,372240,240
76,59,372480,840
74,56,373320,120
73,56,373440,240
85,63,373920,480
73,63,373920,480
74,63,374400,240
86,63,374400,240
77,64,374640,240
89,64,374640,240
79,64,374880,240
91,64,374880,240
81,65,375120,240
93,65,375120,240
82,66,375360,480
94,66,375360,480
91,69,375840,480
79,69,375840,480
89,70,376320,480
77,70,376320,480
87,69,376800,480
75,69,376800,480
86,66,377280,480
74,66,377280,480
84,65,377760,480
72,65,377760,480
71,61,378240,2160
83,61,378240,2160
71,51,380400,228
71,51,380640,228
71,51,380880,228
71,50,381120,228
71,50,381360,228
71,50,381600,228
71,50,381840,228
72,53,382080,840
74,47,382920,120
72,52,383040,240
77,49,383520,60
79,43,383580,60
77,44,383640,60
79,44,383700,60
77,44,383760,60
79,46,383820,60
76,51,383880,60
77,44,383940,60
81,58,384000,840
69,46,384000,840
67,40,384840,120
79,51,384840,120
65,43,384960,240
77,53,384960,240
74,54,385440,480
72,58,385920,840
74,53,386760,120
72,60,386880,240
89,53,387360,60
91,47,387420,60
89,48,387480,60
91,48,387540,60
89,48,387600,60
91,50,387660,60
88,55,387720,60
89,48,387780,60
93,69,387840,840
81,63,387840,840
79,62,388680,120
91,62,388680,120
77,67,388800,240
89,67,388800,240
74,48,389280,480
77,48,389280,480
82,69,389280,480
86,69,389280,480
72,58,389760,480
77,58,389760,480
81,69,389760,480
84,69,389760,480
74,61,390240,480
77,61,390240,480
82,72,390240,480
86,72,390240,480
77,62,390720,480
81,62,390720,480
84,74,390720,480
89,74,390720,480
79,66,391200,480
84,66,391200,480
88,78,391200,480
91,78,391200,480
79,63,391680,960
84,63,391680,960
88,75,391680,960
91,75,391680,960
88,63,392640,160
84,54,392800,160
79,54,392960,160
76,54,393120,160
79,52,393280,160
84,51,393440,160
77,53,393600,160
84,49,393760,160
81,49,393920,80
77,53,394080,80
72,48,394240,80
69,46,394400,80
65,51,394560,80
69,46,394720,80
72,46,394880,80
69,53,395040,80
72,50,395200,80
77,50,395360,80
77,53,395520,160
86,49,395680,160
82,49,395840,80
77,53,396000,80
74,48,396160,80
70,46,396320,80
65,51,396480,80
70,46,396640,80
74,46,396800,80
70,53,396960,80
74,50,397120,80
77,50,397280,80
77,53,397440,160
89,49,397600,160
84,49,397760,80
81,53,397920,80
77,48,398080,80
72,46,398240,80
69,51,398400,80
65,46,398560,80
60,46,398720,80
65,53,398880,80
69,50,399040,80
72,50,399200,80
72,51,399360,160
77,47,399520,160
77,47,399680,80
74,51,399840,160
79,48,400000,160
79,48,400160,80
72,51,400320,160
77,47,400480,160
77,47,400640,80
72,51,400800,160
76,47,400960,160
76,47,401120,80
72,51,401280,160
75,47,401440,160
75,47,401600,80
72,52,401760,160
74,50,401920,160
74,50,402080,80
66,46,402240,160
69,54,402240,160
75,50,402400,160
75,51,402560,80
66,47,402720,160
69,56,402720,160
74,52,402880,160
74,53,403040,80
65,49,403200,160
70,58,403200,160
75,54,403360,160
75,54,403520,80
65,49,403680,160
70,58,403680,160
74,54,403840,160
74,54,404000,80
65,48,404160,160
69,57,404160,160
72,53,404320,160
72,52,404480,80
64,48,404640,160
67,57,404640,160
72,52,404800,160
72,52,404960,80
65,41,405120,480
69,41,405120,480
72,49,405120,480
77,49,406080,240
69,40,406080,240
72,40,406080,240
72,40,406560,240
75,40,406560,240
77,49,406560,240
70,45,407040,480
74,45,407040,480
77,53,407040,480
70,40,408000,240
74,40,408000,240
77,49,408000,240
74,40,408480,240
77,49,408480,240
69,45,408960,480
72,45,408960,480
77,53,408960,480
72,44,409920,240
77,44,409920,240
81,53,409920,240
72,44,410400,240
81,44,410400,240
84,53,410400,240
84,56,410880,160
89,51,411040,160
89,51,411200,80
86,56,411360,160
91,52,411520,160
91,52,411680,80
84,56,411840,160
89,51,412000,160
89,51,412160,80
84,56,412320,160
88,51,412480,160
88,51,412640,80
84,56,412800,160
87,51,412960,160
87,51,413120,80
84,57,413280,160
86,55,413440,160
86,55,413600,80
78,58,413760,160
81,58,413760,160
87,53,413920,160
87,53,414080,80
78,48,414240,160
81,57,414240,160
86,54,414400,160
86,54,414560,80
77,48,414720,160
82,57,414720,160
87,52,414880,160
87,52,415040,80
77,48,415200,160
82,57,415200,160
86,53,415360,160
86,52,415520,80
77,48,415680,160
81,57,415680,160
84,53,415840,160
84,49,416000,80
76,45,416160,160
79,54,416160,160
84,48,416320,160
84,48,416480,80
70,45,416640,160
73,42,416800,160
73,42,416960,80
70,46,417120,160
72,45,417280,160
72,45,417440,80
64,41,417600,160
67,48,417600,160
73,45,417760,160
73,45,417920,80
64,42,418080,160
67,50,418080,160
72,46,418240,160
72,47,418400,80
63,44,418560,160
68,52,418560,160
73,48,418720,160
73,48,418880,80
63,44,419040,160
68,52,419040,160
72,48,419200,160
72,48,419360,80
63,43,419520,160
67,51,419520,160
70,47,419680,160
70,46,419840,80
62,43,420000,160
65,51,420000,160
70,46,420160,160
70,46,420320,80
73,41,421440,160
78,48,421440,160
82,45,421600,160
82,45,421760,80
73,41,421920,160
78,49,421920,160
81,44,422080,160
81,44,422240,80
73,42,422400,160
77,50,422400,160
80,46,422560,160
80,46,422720,80
72,40,422880,160
75,48,422880,160
80,44,423040,160
80,44,423200,80
61,37,423840,160
64,44,423840,160
68,39,424000,160
68,39,424160,80
60,38,424320,160
63,45,424320,160
68,41,424480,160
68,41,424640,80
60,33,425280,160
63,39,425280,160
66,35,425440,160
66,35,425600,80
60,34,425760,160
63,40,425760,160
65,36,425920,160
65,36,426080,80
72,40,426720,160
75,40,426720,160
77,36,426880,160
77,36,427040,80
70,45,427200,160
75,45,427200,160
79,37,427360,160
79,37,427520,80
70,45,427680,160
74,45,427680,160
77,39,427840,160
77,39,428000,80
58,39,428160,160
62,47,428160,160
65,40,428320,160
65,40,428480,80
57,43,428640,160
60,51,428640,160
65,46,428800,160
65,46,428960,80
60,49,429120,160
65,58,429120,160
72,50,429280,160
72,50,429440,80
60,50,429600,160
64,60,429600,160
72,53,429760,160
72,53,429920,80
57,58,430080,120
60,58,430080,120
65,58,430080,120
60,47,430240,160
57,47,430400,160
60,47,430560,160
65,51,430720,160
69,55,430880,160
72,68,431040,720
62,48,431520,240
64,45,431760,240
70,54,431760,240
60,47,432000,480
65,47,432000,480
69,56,432000,480
61,52,432480,480
67,52,432480,480
69,62,432480,480
62,54,432960,480
60,54,432960,480
66,54,432960,480
69,64,432960,480
70,65,433440,360
58,55,433440,480
62,55,433440,480
67,55,433440,480
69,55,433800,120
60,44,433920,1080
64,44,433920,960
67,52,433920,720
68,47,434640,240
65,43,434880,120
69,51,434880,120
60,39,435360,120
65,39,435360,120
69,46,435360,120
48,47,436000,160
45,47,436160,160
48,47,436320,160
53,51,436480,160
57,55,436640,160
60,65,436800,720
48,46,437040,480
50,48,437280,240
48,45,437520,240
52,45,437520,240
58,54,437520,240
48,47,437760,480
53,47,437760,480
57,56,437760,480
49,52,438240,480
55,52,438240,480
57,62,438240,480
50,54,438720,480
48,54,438720,480
54,54,438720,480
57,64,438720,480
58,71,439200,240
46,60,439200,240
50,60,439200,240
55,60,439200,240
62,62,440160,480
68,62,440160,480
70,74,440160,480
63,64,440640,480
61,64,440640,480
67,64,440640,480
70,77,440640,480
71,85,441120,240
59,72,441120,240
63,72,441120,240
68,72,441120,240
74,82,442080,480
76,82,442080,480
83,99,442080,480
80,99,442080,480
72,88,442560,240
76,88,442560,240
81,103,442560,240
84,103,442560,240
77,52,443520,1080
81,52,443520,960
84,62,443520,720
85,56,444240,240
82,51,444480,120
86,61,444480,120
77,46,444960,120
82,46,444960,120
86,55,444960,120
77,51,445440,1440
86,61,445440,1440
89,61,445440,1440
77,54,447360,1200
74,45,448560,240
70,50,448800,240
69,45,449040,240
60,34,449280,1080
64,34,449280,960
69,49,449280,480
67,44,449760,360
68,44,450120,120
65,40,450240,120
69,48,450240,120
60,30,450720,120
65,36,450720,120
69,44,450720,120
69,48,451200,1440
72,48,451200,1440
77,52,453120,1080
81,52,453120,960
84,62,453120,720
85,56,453840,240
82,51,454080,120
86,61,454080,120
77,55,454560,120
82,55,454560,120
86,66,454560,120
70,79,455040,60
74,77,455100,60
77,76,455160,60
82,74,455220,60
86,71,455280,60
89,65,455340,60
94,61,455400,60
98,61,455460,60
101,57,455520,60
77,62,456960,1680
76,50,458640,240
76,53,458880,480
74,51,459360,360
72,47,459720,120
72,51,459840,480
70,48,460320,360
69,41,460680,120
60,30,460800,1080
64,30,460800,960
69,44,460800,480
67,39,461280,360
68,39,461640,120
65,36,461760,120
69,43,461760,120
60,27,462240,120
65,32,462240,120
69,39,462240,120
69,43,462720,1440
72,43,462720,1440
64,32,464640,120
68,32,464640,120
73,38,464640,120
64,24,465120,120
68,28,465120,120
73,35,465120,120
64,38,465600,480
68,38,465600,480
76,38,465600,480
64,50,466080,480
64,54,466560,480
63,52,467040,480
64,54,467520,480
66,51,468000,480
68,54,468480,1440
68,52,469920,480
68,55,470400,240
66,52,470640,240
68,55,470880,240
69,51,471120,240
71,55,471360,240
74,57,471600,240
73,55,471840,240
68,53,472080,240
69,54,472320,1440
69,42,473760,480
81,50,473760,480
69,45,474240,480
81,54,474240,480
68,44,474720,480
80,52,474720,480
69,45,475200,480
81,54,475200,480
71,43,475680,480
83,51,475680,480
73,45,476160,1440
85,54,476160,1440
73,44,477600,480
85,52,477600,480
73,46,478080,240
85,55,478080,240
71,44,478320,240
83,52,478320,240
73,46,478560,240
85,55,478560,240
74,43,478800,240
86,51,478800,240
76,46,479040,240
88,55,479040,240
79,48,479280,240
91,57,479280,240
78,46,479520,240
90,55,479520,240
73,45,479760,240
85,53,479760,240
74,45,480000,1440
86,54,480000,1440
74,54,481440,480
86,54,481440,480
73,58,481920,720
85,58,481920,720
71,54,482640,240
83,54,482640,240
69,54,482880,240
81,54,482880,240
69,54,483360,480
81,54,483360,480
68,57,483840,720
80,57,483840,720
66,52,484560,240
78,52,484560,240
64,54,484800,240
76,54,484800,240
64,51,485280,480
76,51,485280,480
62,54,485760,480
74,54,485760,480
66,50,486240,480
78,50,486240,480
61,54,486720,480
73,54,486720,480
60,52,487200,480
72,52,487200,480
62,62,487680,1440
74,62,487680,1440
64,54,489120,240
76,54,489120,240
66,49,489360,240
78,49,489360,240
68,57,489600,480
80,57,489600,480
69,55,490080,480
81,55,490080,480
61,54,490560,480
73,54,490560,480
60,52,491040,480
72,52,491040,480
73,60,491520,160
85,49,491680,160
81,49,491840,80
76,53,492000,80
73,48,492160,80
69,46,492320,80
64,51,492480,160
61,46,492640,160
57,46,492800,160
61,53,492960,160
64,50,493120,160
69,50,493280,160
73,57,493440,160
85,49,493600,160
81,49,493760,80
76,53,493920,80
73,48,494080,80
69,46,494240,80
64,51,494400,160
61,46,494560,160
57,46,494720,160
61,53,494880,160
64,50,495040,160
69,50,495200,160
73,53,495360,160
69,48,495520,160
64,48,495680,160
76,53,495840,480
69,47,496000,160
64,45,496160,160
77,55,496320,480
74,46,496320,160
68,42,496480,160
65,41,496640,160
76,55,496800,480
71,46,496800,160
68,42,496960,160
64,42,497120,160
73,53,497280,480
69,48,497440,160
64,48,497600,160
76,53,497760,480
69,47,497920,160
64,45,498080,160
77,55,498240,480
74,46,498240,160
68,42,498400,160
65,41,498560,160
76,55,498720,480
71,46,498720,160
68,42,498880,160
64,42,499040,160
73,77,499200,160
85,68,499360,160
81,58,499520,80
76,63,499680,80
73,57,499840,80
69,55,500000,80
64,61,500160,160
61,55,500320,160
57,55,500480,160
61,63,500640,160
64,56,500800,160
69,57,500960,160
73,59,501120,160
67,56,501280,160
64,56,501440,160
76,63,501600,160
70,58,501760,160
67,58,501920,160
82,66,502080,160
76,58,502240,160
73,60,502400,160
79,63,502560,160
75,58,502720,160
73,58,502880,160
71,69,503040,160
83,49,503200,160
80,49,503360,80
75,53,503520,80
71,48,503680,80
68,46,503840,80
63,51,504000,160
59,46,504160,160
56,46,504320,160
59,53,504480,160
63,50,504640,160
68,50,504800,160
71,67,504960,160
83,49,505120,160
80,49,505280,80
75,53,505440,80
71,48,505600,80
68,46,505760,80
63,51,505920,160
59,46,506080,160
56,46,506240,160
59,53,506400,160
63,50,506560,160
68,50,506720,160
71,55,506880,160
68,52,507040,160
63,52,507200,160
75,60,507360,160
71,56,507520,160
68,56,507680,160
80,65,507840,160
74,59,508000,160
71,59,508160,160
82,70,508320,160
78,70,508320,160
76,63,508480,160
73,63,508640,160
75,86,508800,160
87,78,508960,160
83,57,509120,160
78,65,509280,160
75,56,509440,160
71,50,509600,160
66,51,509760,160
63,46,509920,160
59,46,510080,160
63,53,510240,160
66,50,510400,160
71,50,510560,160
75,79,510720,160
87,66,510880,160
83,57,511040,160
78,65,511200,160
75,56,511360,160
71,50,511520,160
66,51,511680,160
63,46,511840,160
59,46,512000,160
63,53,512160,160
66,50,512320,160
71,50,512480,160
75,53,512640,160
71,48,512800,160
66,48,512960,160
78,53,513120,480
71,47,513280,160
66,45,513440,160
79,55,513600,480
76,46,513600,160
70,42,513760,160
67,41,513920,160
78,55,514080,480
73,46,514080,160
70,42,514240,160
66,42,514400,160
75,53,514560,480
71,48,514720,160
66,48,514880,160
78,53,515040,480
75,46,515040,160
71,47,515200,160
66,45,515360,160
79,55,515520,480
76,46,515520,160
70,42,515680,160
67,41,515840,160
78,55,516000,480
73,46,516000,160
70,42,516160,160
66,42,516320,160
75,79,516480,160
87,70,516640,160
83,62,516800,160
78,69,516960,160
75,64,517120,160
71,63,517280,160
66,73,517440,160
63,66,517600,160
59,66,517760,160
63,70,517920,160
66,67,518080,160
71,68,518240,160
75,70,518400,160
69,67,518560,160
66,67,518720,160
78,75,518880,160
72,69,519040,160
69,69,519200,160
84,76,519360,160
78,69,519520,160
75,72,519680,160
81,75,519840,160
77,67,520000,160
75,61,520160,160
73,66,520320,160
85,49,520480,160
82,49,520640,160
77,53,520800,160
73,48,520960,160
70,46,521120,160
65,51,521280,160
61,46,521440,160
58,46,521600,160
61,57,521760,160
65,50,521920,160
70,50,522080,160
73,53,522240,160
85,49,522400,160
82,49,522560,160
77,53,522720,160
73,48,522880,160
70,46,523040,160
65,51,523200,160
61,46,523360,160
58,46,523520,160
61,53,523680,160
65,50,523840,160
70,50,524000,160
73,60,524160,160
70,57,524320,160
65,57,524480,160
77,66,524640,160
73,61,524800,160
70,61,524960,160
82,71,525120,160
76,64,525280,160
73,64,525440,160
84,77,525600,160
80,77,525600,160
78,69,525760,160
75,69,525920,160
77,86,526080,160
89,77,526240,160
85,72,526400,160
80,75,526560,160
77,68,526720,160
73,60,526880,160
68,57,527040,160
65,49,527200,160
61,47,527360,160
53,40,529920,960
56,40,529920,960
61,47,529920,960
65,46,530880,240
68,46,531360,240
54,40,531840,960
58,40,531840,960
63,47,531840,960
66,45,532800,240
70,45,533280,240
70,48,533760,240
68,45,534000,240
60,40,534240,475
68,48,534240,240
66,45,534480,240
60,42,534720,475
66,50,534720,240
65,45,534960,240
60,41,535200,475
65,49,535200,240
64,45,535440,240
61,45,535680,1920
65,45,535680,1920
53,40,537600,960
56,40,537600,960
61,47,537600,960
65,46,538560,240
68,46,539040,240
54,40,539520,960
57,40,539520,960
63,47,539520,960
66,45,540480,240
69,45,540960,240
69,48,541440,240
68,45,541680,240
63,40,541920,480
71,48,541920,240
69,45,542160,240
63,42,542400,480
69,50,542400,240
68,45,542640,240
63,41,542880,480
68,49,542880,240
67,45,543120,240
64,45,543360,1920
68,45,543360,1920
64,35,545280,228
64,35,545520,228
64,35,545760,228
64,35,546000,228
64,35,546240,228
64,35,546480,228
64,35,546720,228
64,35,546960,228
65,35,547200,228
64,35,547200,228
65,35,547440,228
64,35,547440,228
65,35,547680,228
64,35,547680,228
65,35,547920,228
64,35,547920,228
65,35,548160,228
64,35,548160,228
65,35,548400,228
64,35,548400,228
65,35,548640,228
64,35,548640,228
65,35,548880,228
64,35,548880,228
64,36,549120,228
65,36,549120,228
64,38,549360,228
65,38,549360,228
64,39,549600,228
65,39,549600,228
64,41,549840,228
65,41,549840,228
62,43,550080,228
65,43,550080,228
62,45,550320,228
65,45,550320,228
60,47,550560,228
62,47,550560,228
66,47,550560,228
60,48,550800,228
62,48,550800,228
66,48,550800,228
59,49,551040,228
62,49,551040,228
67,49,551040,228
59,48,551280,228
62,48,551280,228
67,48,551280,228
59,46,551520,228
62,46,551520,228
67,46,551520,228
59,44,551760,228
62,44,551760,228
67,44,551760,228
60,42,552000,228
64,42,552000,228
67,42,552000,228
60,40,552240,228
64,40,552240,228
67,40,552240,228
59,38,552480,228
65,38,552480,228
67,38,552480,228
59,36,552720,228
65,36,552720,228
67,36,552720,228
72,41,552960,228
72,41,553200,228
72,42,553440,228
72,42,553680,228
72,42,553920,228
72,43,554160,228
72,43,554400,228
72,44,554640,228
73,45,554880,228
72,45,554880,228
73,45,555120,228
72,45,555120,228
73,45,555360,228
72,45,555360,228
73,45,555600,228
72,45,555600,228
73,47,555840,228
72,47,555840,228
73,47,556080,228
72,47,556080,228
73,47,556320,228
72,47,556320,228
73,47,556560,228
72,47,556560,228
72,51,556800,228
73,51,556800,228
72,53,557040,228
73,53,557040,228
72,55,557280,228
73,55,557280,228
72,59,557520,228
73,59,557520,228
70,61,557760,228
73,61,557760,228
70,63,558000,228
73,63,558000,228
68,68,558240,228
70,68,558240,228
74,68,558240,228
68,69,558480,228
70,69,558480,228
74,69,558480,228
67,59,558720,228
70,59,558720,228
75,70,558720,228
67,67,558960,228
70,67,558960,228
75,67,558960,228
68,56,559200,228
71,56,559200,228
75,66,559200,228
68,55,559440,228
71,55,559440,228
75,64,559440,228
67,53,559680,228
73,53,559680,228
75,63,559680,228
67,52,559920,228
73,52,559920,228
75,62,559920,228
68,51,560160,228
71,51,560160,228
75,61,560160,228
75,60,560400,228
75,67,560640,160
76,80,560640,160
64,70,560800,160
75,60,560960,120
76,70,560960,120
75,67,561120,160
76,79,561120,160
64,72,561280,160
75,61,561440,120
76,72,561440,120
73,67,561600,160
76,79,561600,160
64,70,561760,160
73,60,561920,120
76,70,561920,120
71,67,562080,160
73,67,562080,160
77,79,562080,160
65,69,562240,160
71,60,562400,120
73,60,562400,120
77,70,562400,120
70,67,562560,160
73,67,562560,160
78,80,562560,160
66,70,562720,160
70,69,562880,160
73,61,562880,160
78,72,562880,160
71,63,563040,160
74,69,563040,160
78,82,563040,160
66,75,563200,160
71,64,563360,160
74,64,563360,160
78,77,563360,160
70,69,563520,160
76,69,563520,160
78,82,563520,160
66,73,563680,160
70,68,563840,160
76,61,563840,160
78,73,563840,160
71,67,564000,160
74,67,564000,160
78,80,564000,160
66,70,564160,160
71,60,564320,160
74,60,564320,160
78,70,564320,160
78,67,564480,160
79,80,564480,160
67,70,564640,160
78,60,564800,120
79,70,564800,120
78,67,564960,160
79,80,564960,160
67,73,565120,160
78,62,565280,120
79,74,565280,120
76,69,565440,160
79,82,565440,160
67,73,565600,160
76,62,565760,120
79,74,565760,120
74,70,565920,160
76,70,565920,160
80,84,565920,160
68,74,566080,160
74,64,566240,120
76,64,566240,120
80,77,566240,120
73,74,566400,160
76,74,566400,160
81,88,566400,160
69,77,566560,160
73,74,566720,120
76,66,566720,120
81,78,566720,120
73,67,566880,160
76,74,566880,160
81,88,566880,160
69,80,567040,160
73,68,567200,120
76,68,567200,120
81,81,567200,120
74,67,567360,160
77,75,567360,160
81,90,567360,160
69,80,567520,160
74,68,567680,120
77,68,567680,120
81,81,567680,120
73,78,567840,160
79,78,567840,160
81,92,567840,160
69,81,568000,160
73,70,568160,120
79,70,568160,120
81,84,568160,120
74,81,568320,160
77,81,568320,160
81,96,568320,160
69,84,568480,160
74,81,568640,120
77,70,568640,120
81,84,568640,120
73,73,568800,160
79,80,568800,160
81,94,568800,160
69,86,568960,160
73,73,569120,120
79,73,569120,120
81,86,569120,120
74,70,569280,160
77,80,569280,160
81,94,569280,160
69,84,569440,160
74,70,569600,120
77,70,569600,120
81,84,569600,120
73,80,569760,160
79,80,569760,160
81,94,569760,160
69,82,569920,160
73,70,570080,120
79,70,570080,120
81,84,570080,120
86,96,570240,160
77,81,570240,160
81,81,570240,160
74,84,570400,160
86,97,570560,120
77,72,570560,120
81,72,570560,120
85,88,570720,160
79,81,570720,160
81,81,570720,160
73,88,570880,160
85,89,571040,120
79,74,571040,120
81,74,571040,120
86,88,571200,160
77,81,571200,160
81,81,571200,160
74,88,571360,160
86,89,571520,120
77,74,571520,120
81,74,571520,120
85,100,571680,160
79,84,571680,160
81,84,571680,160
73,89,571840,160
85,91,572000,120
79,77,572000,120
81,77,572000,120
74,88,572160,240
77,88,572160,240
81,88,572160,240
86,103,572160,240
74,71,574080,960
77,61,575040,240
81,61,575520,240
69,71,576000,956
77,59,576960,240
81,59,577440,240
74,71,577920,960
77,60,578880,240
81,60,579360,240
84,66,579840,240
81,57,580080,228
81,60,580320,240
79,55,580560,228
79,58,580800,240
77,54,581040,228
77,56,581280,240
76,52,581520,228
76,55,581760,240
77,51,582000,228
77,56,582240,240
74,52,582480,228
74,55,582720,240
72,50,582960,228
74,55,583200,240
72,51,583440,228
69,52,583680,228
69,31,583920,228
65,25,583920,228
62,21,583920,228
69,32,584160,228
65,26,584160,228
62,22,584160,228
69,32,584400,228
65,26,584400,228
62,22,584400,228
69,31,584640,228
65,25,584640,228
62,21,584640,228
69,31,584880,228
65,25,584880,228
62,21,584880,228
69,29,585120,228
65,24,585120,228
62,20,585120,228
69,29,585360,228
65,24,585360,228
62,20,585360,228
74,32,585600,228
69,27,585600,228
65,22,585600,228
74,32,585840,228
69,27,585840,228
65,22,585840,228
74,32,586080,228
69,27,586080,228
65,22,586080,228
74,32,586320,228
69,27,586320,228
65,22,586320,228
74,32,586560,228
69,27,586560,228
65,22,586560,228
74,32,586800,228
69,27,586800,228
65,22,586800,228
74,32,587040,228
69,27,587040,228
65,22,587040,228
74,32,587280,224
69,27,587280,228
65,22,587280,228
65,22,587520,228
69,27,587520,228
73,32,587520,228
65,22,587760,228
69,27,587760,228
73,32,587760,228
65,22,588000,228
69,27,588000,228
73,32,588000,228
65,22,588240,228
69,27,588240,228
73,32,588240,228
65,22,588480,228
69,27,588480,228
73,32,588480,228
65,22,588720,228
69,27,588720,228
73,32,588720,228
65,22,588960,228
69,27,588960,228
73,32,588960,228
65,22,589200,228
69,27,589200,228
73,32,589200,228
69,27,589440,228
65,22,589440,228
74,32,589440,228
69,27,589680,228
65,22,589680,228
74,32,589680,228
69,27,589920,228
65,22,589920,228
74,32,589920,228
65,22,590160,228
74,32,590160,228
69,27,590160,228
74,32,590400,228
69,27,590400,228
65,22,590400,228
74,32,590640,228
69,27,590640,228
65,22,590640,228
73,33,590880,228
69,27,590880,228
65,22,590880,228
73,34,591120,228
69,28,591120,228
65,23,591120,228
65,27,591360,228
69,32,591360,228
72,39,591360,228
65,27,591600,228
69,32,591600,228
72,39,591600,228
65,26,591840,228
69,31,591840,228
72,37,591840,228
65,26,592080,228
69,31,592080,228
72,37,592080,228
65,24,592320,228
69,29,592320,228
72,35,592320,228
65,24,592560,228
69,29,592560,228
72,35,592560,228
65,23,592800,228
69,28,592800,228
73,34,592800,228
65,23,593040,228
69,28,593040,228
73,34,593040,228
65,32,593280,228
69,38,593280,228
74,38,593280,228
65,32,593520,228
69,38,593520,228
74,38,593520,228
77,38,593760,228
65,32,593760,228
69,38,593760,228
77,38,594000,228
65,32,594000,228
69,38,594000,228
81,38,594240,228
69,32,594240,228
81,38,594480,228
69,32,594480,228
70,32,594720,228
76,38,594720,228
82,38,594720,228
70,32,594960,228
76,38,594960,228
82,38,594960,228
69,32,595200,240
77,32,595200,240
81,38,595200,240
69,27,595440,228
65,23,595440,228
62,19,595440,228
69,27,595680,228
65,23,595680,228
62,19,595680,228
69,27,595920,228
65,23,595920,228
62,19,595920,228
69,27,596160,228
65,23,596160,228
62,19,596160,228
69,27,596400,228
65,23,596400,228
62,19,596400,228
69,27,596640,228
65,23,596640,228
62,19,596640,228
69,27,596880,228
65,23,596880,228
62,19,596880,228
62,19,597120,228
65,23,597120,228
69,27,597120,228
69,27,597360,228
65,23,597360,228
62,19,597360,228
69,27,597600,228
65,23,597600,228
62,19,597600,228
69,27,597840,228
65,23,597840,228
62,19,597840,228
69,27,598080,228
65,23,598080,228
62,19,598080,228
69,27,598320,228
65,23,598320,228
62,19,598320,228
69,27,598560,228
65,23,598560,228
62,19,598560,228
69,27,598800,228
65,23,598800,228
62,19,598800,228
69,27,599040,228
65,23,599040,228
62,19,599040,228
69,27,599280,228
65,23,599280,228
62,19,599280,228
69,27,599520,228
65,23,599520,228
62,19,599520,228
69,27,599760,228
65,23,599760,228
62,19,599760,228
77,50,600480,480
77,54,600960,480
76,52,601440,480
77,54,601920,480
79,51,602400,480
81,54,602880,1440
79,54,604320,240
77,54,604560,240
79,54,604800,480
79,54,605280,480
79,54,605760,480
77,54,606240,240
76,54,606480,240
77,54,606720,480
69,27,607680,228
65,23,607680,228
62,19,607680,228
69,27,607920,228
65,23,607920,228
62,19,607920,228
69,27,608160,228
65,23,608160,228
62,19,608160,228
69,27,608400,228
65,23,608400,228
62,19,608400,228
62,19,608640,228
65,23,608640,228
69,27,608640,228
69,27,608880,228
65,23,608880,228
62,19,608880,228
69,27,609120,228
65,23,609120,228
62,19,609120,228
69,27,609360,228
65,23,609360,228
62,19,609360,228
69,27,609600,228
65,23,609600,228
62,19,609600,228
69,27,609840,228
65,23,609840,228
62,19,609840,228
69,27,610080,228
65,23,610080,228
62,19,610080,228
69,27,610320,228
65,23,610320,228
62,19,610320,228
70,27,610560,228
65,23,610560,228
62,19,610560,228
70,27,610800,228
65,23,610800,228
62,19,610800,228
70,27,611040,228
65,23,611040,228
62,19,611040,228
70,27,611280,228
65,23,611280,228
62,19,611280,228
82,52,612000,480
82,56,612480,480
81,54,612960,480
82,56,613440,480
84,53,613920,480
86,60,614400,1440
84,56,615840,240
82,56,616080,240
84,56,616320,480
84,56,616800,480
84,56,617280,480
82,56,617760,240
81,56,618000,240
82,56,618240,480
70,24,619200,228
65,20,619200,228
62,17,619200,228
70,24,619440,228
65,20,619440,228
62,17,619440,228
70,24,619680,228
65,20,619680,228
62,17,619680,228
70,24,619920,228
65,20,619920,228
62,17,619920,228
62,19,620160,228
65,23,620160,228
70,27,620160,228
70,27,620400,228
65,23,620400,228
62,19,620400,228
70,28,620640,228
65,24,620640,228
62,20,620640,228
70,29,620880,228
65,25,620880,228
62,21,620880,228
70,30,621120,228
65,25,621120,228
62,21,621120,228
70,31,621360,228
65,26,621360,228
62,22,621360,228
70,32,621600,228
65,27,621600,228
62,22,621600,228
70,33,621840,228
65,28,621840,228
62,23,621840,228
69,34,622080,228
65,28,622080,228
62,23,622080,228
69,27,622320,228
65,23,622320,228
62,19,622320,228
69,27,622560,228
65,23,622560,228
62,19,622560,228
69,27,622800,228
65,23,622800,228
62,19,622800,228
77,50,623520,480
77,54,624000,480
76,52,624480,480
77,54,624960,480
79,51,625440,480
81,54,625920,1440
79,54,627360,240
77,53,627600,240
79,54,627840,480
79,54,628320,480
79,54,628800,480
77,54,629280,240
76,50,629520,240
77,66,629760,2160
81,50,631920,240
79,50,632160,240
77,48,632400,240
84,54,632640,240
82,50,632880,240
81,50,633120,240
87,54,633360,240
86,54,633600,240
84,50,633840,240
91,54,634080,240
89,52,634320,240
87,52,634560,240
86,51,634800,240
84,54,635040,240
86,57,635280,240
87,66,635520,2160
84,53,637680,240
90,58,637920,240
89,54,638160,240
87,56,638400,240
86,51,638640,240
84,51,638880,240
86,51,639120,240
87,53,639360,2160
84,53,641520,240
91,56,641760,120
89,53,642000,120
87,53,642240,120
86,51,642480,120
84,53,642720,120
82,52,642960,120
81,53,643200,120
79,49,643440,120
77,53,643680,120
76,49,643920,120
75,44,644160,160
74,44,644320,160
72,43,644480,160
70,42,644640,160
69,42,644800,160
67,41,644960,160
65,40,645120,160
64,40,645280,160
63,39,645440,160
62,38,645600,160
61,38,645760,160
60,37,645920,160
58,32,654240,480
65,36,654240,480
70,43,654240,480
58,33,654720,480
65,37,654720,480
70,45,654720,480
57,27,655200,480
65,36,655200,480
69,43,655200,480
58,33,655680,480
65,37,655680,480
70,45,655680,480
60,32,656160,480
65,36,656160,480
72,43,656160,480
62,36,656640,1440
65,40,656640,1440
74,47,656640,1440
60,33,658080,240
65,37,658080,480
72,45,658080,240
58,31,658320,240
70,41,658320,240
60,31,658560,475
65,35,658560,475
72,42,658560,475
60,30,659040,475
65,34,659040,475
72,41,659040,475
60,30,659520,475
65,34,659520,475
72,41,659520,475
58,33,660000,240
65,37,660000,480
70,45,660000,240
57,27,660240,240
69,40,660240,240
65,46,660480,480
58,33,660480,1440
70,46,660480,1440
63,37,660960,480
67,45,660960,480
62,32,661440,480
65,39,661440,480
70,54,661920,480
63,40,662400,1440
70,45,662400,1440
75,54,662400,1440
62,36,663840,240
70,41,663840,240
74,49,663840,240
60,33,664080,240
70,37,664080,240
72,45,664080,240
62,40,664320,480
70,40,664320,480
74,47,664320,480
57,33,664800,480
65,37,664800,480
69,45,664800,480
58,35,665280,480
65,39,665280,480
70,46,665280,480
60,33,665760,480
65,37,665760,480
72,45,665760,480
58,35,666240,480
65,39,666240,480
70,46,666240,480
65,39,666720,480
62,35,666720,480
70,39,666720,480
74,46,666720,480
60,33,667200,3120
65,37,667200,3120
69,37,667200,3120
72,45,667200,3120
58,32,671520,480
65,36,671520,480
70,43,671520,480
58,33,672000,480
65,37,672000,480
70,45,672000,480
57,27,672480,480
65,36,672480,480
69,43,672480,480
58,33,672960,480
65,37,672960,480
70,45,672960,480
60,32,673440,480
65,36,673440,480
72,43,673440,480
62,36,673920,1440
65,40,673920,1440
74,47,673920,1440
60,33,675360,240
65,37,675360,480
72,45,675360,240
58,31,675600,240
70,41,675600,240
60,31,675840,475
65,35,675840,475
72,42,675840,475
60,30,676320,475
65,34,676320,475
72,41,676320,475
60,30,676800,475
65,34,676800,475
72,41,676800,475
58,33,677280,240
65,37,677280,480
70,45,677280,240
57,27,677520,240
69,40,677520,240
65,46,677760,480
58,33,677760,1440
70,46,677760,1440
63,37,678240,480
67,45,678240,480
62,32,678720,480
65,39,678720,480
62,40,679200,480
65,45,679200,480
74,54,679200,480
62,40,679680,1440
67,45,679680,1440
74,54,679680,1440
60,36,681120,240
67,41,681120,240
72,49,681120,240
59,33,681360,240
67,37,681360,240
71,45,681360,240
63,47,681600,480
67,48,681600,480
75,58,681600,480
62,45,682080,480
67,45,682080,480
74,53,682080,480
60,43,682560,480
67,43,682560,480
72,51,682560,480
60,40,683040,480
69,45,683040,480
72,54,683040,480
65,40,683520,1440
60,40,683520,1440
69,45,683520,1440
72,54,683520,1440
58,36,684960,240
65,41,684960,240
70,49,684960,240
57,33,685200,240
65,37,685200,240
69,45,685200,240
62,45,685440,480
65,49,685440,480
74,58,685440,480
57,42,685920,480
65,42,685920,480
69,50,685920,480
58,45,686400,480
65,45,686400,480
70,53,686400,480
65,40,686880,480
60,36,686880,480
69,40,686880,480
72,48,686880,480
65,36,687360,1200
60,36,687360,960
69,40,687360,960
72,48,687360,960
58,43,688320,240
70,43,688320,240
70,51,690720,480
70,52,691200,480
68,51,691680,480
70,52,692160,480
71,50,692640,480
73,52,693120,1440
71,56,694560,240
70,53,694800,240
75,58,695040,240
75,54,695520,240
75,54,696000,240
77,56,696480,240
78,51,696720,240
73,54,696960,1440
69,51,698400,480
69,52,698880,480
68,51,699360,480
69,52,699840,480
71,50,700320,480
73,52,700800,1440
74,56,702240,240
76,53,702480,240
78,58,702720,240
78,54,703200,240
78,54,703680,240
80,56,704160,240
81,51,704400,240
76,54,704640,1440
74,53,706080,240
73,51,706320,240
74,54,706560,480
78,52,707040,480
71,52,707520,480
74,52,708000,480
73,54,708480,480
69,51,708960,720
81,61,708960,720
68,45,709680,240
80,53,709680,240
66,47,709920,240
78,56,709920,240
64,43,710160,240
76,51,710160,240
62,46,710400,480
74,54,710400,480
78,56,710880,480
71,54,711360,480
73,52,711840,240
74,52,712080,240
73,55,712320,240
76,52,712560,240
85,56,712800,240
81,52,713040,240
76,56,713280,240
73,52,713520,240
81,55,713760,240
77,52,714000,240
78,55,714240,240
74,52,714480,240
86,56,714720,240
83,54,714960,240
80,58,715200,240
83,56,715440,240
88,58,715680,240
84,54,715920,240
85,57,716160,240
81,54,716400,240
85,57,716640,120
81,51,716760,120
85,56,716880,120
81,50,717000,120
76,56,717120,120
73,52,717240,120
76,56,717360,120
73,53,717480,120
81,58,717600,120
77,53,717720,120
81,57,717840,120
77,52,717960,120
78,57,718080,120
74,52,718200,120
78,54,718320,120
74,52,718440,120
86,57,718560,120
83,51,718680,120
86,56,718800,120
83,50,718920,120
80,56,719040,120
83,52,719160,120
80,56,719280,120
83,53,719400,120
88,58,719520,120
84,53,719640,120
88,57,719760,120
84,52,719880,120
85,57,720000,120
84,53,720120,120
85,52,720240,120
80,52,720360,120
81,57,720480,120
80,51,720600,120
81,51,720720,120
75,50,720840,120
76,55,720960,120
75,51,721080,120
76,51,721200,120
72,51,721320,120
73,54,721440,120
72,47,721560,120
73,49,721680,120
68,47,721800,120
69,57,721920,120
84,53,722040,120
85,52,722160,120
80,52,722280,120
81,57,722400,120
80,51,722520,120
81,51,722640,120
75,50,722760,120
76,55,722880,120
75,51,723000,120
76,51,723120,120
72,51,723240,120
73,54,723360,120
72,47,723480,120
73,49,723600,120
68,47,723720,120
69,53,723840,120
68,49,723960,120
69,49,724080,120
71,49,724200,120
73,55,724320,120
74,49,724440,120
73,49,724560,120
71,49,724680,120
69,55,724800,120
71,50,724920,120
73,50,725040,120
71,50,725160,120
69,55,725280,120
71,50,725400,120
69,52,725520,120
68,51,725640,120
67,57,725760,160
73,52,725920,152
61,45,726080,152
67,45,726080,152
73,54,726080,152
61,50,726240,152
67,50,726240,152
73,59,726240,152
61,47,726400,152
67,47,726400,152
73,56,726400,152
61,48,726560,152
67,48,726560,152
73,57,726560,152
61,52,726720,152
67,52,726720,152
73,62,726720,152
61,47,726880,152
67,47,726880,152
73,56,726880,152
61,47,727040,152
67,47,727040,152
73,57,727040,152
61,55,727200,152
67,55,727200,152
73,65,727200,152
61,51,727360,152
67,51,727360,152
73,61,727360,152
61,52,727520,152
67,52,727520,152
73,62,727520,152
61,57,727680,152
67,57,727680,152
73,67,727680,152
61,53,727840,152
67,53,727840,152
73,64,727840,152
61,55,728000,152
67,55,728000,152
73,65,728000,152
61,59,728160,152
67,59,728160,152
73,71,728160,152
61,56,728320,152
67,56,728320,152
73,67,728320,152
61,57,728480,152
67,57,728480,152
73,69,728480,152
61,62,728640,152
67,62,728640,152
73,74,728640,152
61,59,728800,152
67,59,728800,152
73,71,728800,152
61,60,728960,152
67,60,728960,152
73,72,728960,152
65,72,729120,152
62,72,729120,152
74,85,729120,152
65,67,729280,152
62,67,729280,152
74,80,729280,152
65,67,729440,152
62,67,729440,152
74,80,729440,152
62,63,729600,480
65,77,729600,480
74,90,729600,480
60,60,730080,480
69,72,730080,480
72,85,730080,480
58,60,730560,480
65,72,730560,480
70,85,730560,480
60,60,731040,480
65,72,731040,480
72,85,731040,480
62,64,731520,1440
65,78,731520,1440
74,92,731520,1440
60,62,732960,240
65,74,732960,240
72,89,732960,240
58,58,733200,240
65,69,733200,240
70,82,733200,240
60,61,733440,475
65,73,733440,475
72,88,733440,475
60,59,733920,475
65,71,733920,475
72,84,733920,475
60,59,734400,475
65,70,734400,475
72,83,734400,475
58,61,734880,240
65,73,734880,240
70,88,734880,240
57,58,735120,240
65,69,735120,240
69,82,735120,240
65,75,735360,480
58,75,735360,1440
70,90,735360,1440
63,73,735840,480
67,88,735840,480
62,70,736320,480
65,83,736320,480
62,64,736800,480
65,75,736800,480
74,89,736800,480
62,64,737280,1440
67,75,737280,1440
74,89,737280,1440
60,59,738720,240
67,71,738720,240
72,84,738720,240
59,56,738960,240
67,67,738960,240
71,79,738960,240
63,67,739200,480
67,79,739200,480
75,94,739200,480
62,65,739680,480
67,76,739680,480
74,91,739680,480
60,63,740160,480
67,74,740160,480
72,88,740160,480
60,60,740640,480
69,72,740640,480
72,86,740640,480
65,76,741120,1440
60,65,741120,1440
69,78,741120,1440
72,89,741120,1440
58,63,742560,240
65,74,742560,240
70,88,742560,240
57,57,742800,240
65,68,742800,240
69,80,742800,240
62,65,743040,480
65,77,743040,480
74,92,743040,480
57,61,743520,480
65,73,743520,480
69,87,743520,480
58,65,744000,480
65,77,744000,480
70,92,744000,480
65,70,744480,480
60,59,744480,480
69,70,744480,480
72,82,744480,480
65,75,744960,2880
60,64,744960,1920
69,75,744960,1920
72,89,744960,1920
59,61,746880,1440
68,61,746880,1440
71,73,746880,1440
62,55,748320,480
65,55,748320,480
68,55,748320,480
71,66,748320,480
62,55,748800,1440
65,55,748800,1440
68,55,748800,1440
71,66,748800,1440
65,66,750240,480
71,66,750240,480
74,78,750240,480
66,72,750720,1200
71,72,750720,960
74,86,750720,960
70,73,751680,240
73,86,751680,240
73,80,752160,240
76,80,752160,240
78,80,752160,240
82,96,752160,240
78,77,752640,152
74,77,752640,152
83,92,752640,152
74,28,752800,152
78,34,752800,152
74,30,752960,152
78,36,752960,152
74,32,753120,152
78,38,753120,152
74,29,753280,152
78,35,753280,152
74,29,753440,152
78,35,753440,152
74,32,753600,152
78,38,753600,152
74,29,753760,152
78,35,753760,152
74,29,753920,160
78,35,753920,160
83,54,754080,480
74,27,754240,152
78,32,754240,152
74,27,754400,152
78,32,754400,152
83,53,754560,480
74,27,754720,152
78,32,754720,152
74,27,754880,152
78,32,754880,152
86,53,755040,480
74,26,755200,152
78,31,755200,152
74,26,755360,152
78,31,755360,152
83,53,755520,480
74,27,755680,152
78,32,755680,152
74,27,755840,152
78,32,755840,152
86,53,756000,480
74,26,756160,152
78,31,756160,152
74,26,756320,152
78,31,756320,152
86,56,756480,480
78,27,756640,160
83,32,756640,160
78,27,756800,152
83,32,756800,152
90,55,756960,480
78,27,757120,152
83,32,757120,152
78,27,757280,152
83,32,757280,152
86,55,757440,480
78,27,757600,152
83,32,757600,152
78,27,757760,152
83,32,757760,152
90,56,757920,480
78,27,758080,152
83,32,758080,152
78,27,758240,152
83,32,758240,152
78,56,758400,480
71,27,758560,152
74,32,758560,152
71,27,758720,152
74,32,758720,152
82,56,758880,480
78,33,759040,152
70,27,759040,152
76,33,759040,152
78,34,759200,160
70,27,759200,160
76,34,759200,160
83,58,759360,480
78,34,759520,152
71,28,759520,152
74,34,759520,152
78,35,759680,160
71,29,759680,160
74,35,759680,160
85,62,759840,480
81,36,760000,152
73,29,760000,152
79,36,760000,152
81,36,760160,152
73,29,760160,152
79,36,760160,152
86,61,760320,480
74,30,760480,152
78,30,760480,152
81,36,760480,152
74,29,760640,152
78,29,760640,152
81,36,760640,152
88,60,760800,480
82,35,760960,152
76,28,760960,152
78,35,760960,152
82,34,761120,152
76,28,761120,152
78,34,761120,152
86,57,761280,480
74,27,761440,152
83,33,761440,152
78,33,761440,152
74,27,761600,152
83,32,761600,152
78,32,761600,152
85,56,761760,480
81,32,761920,152
73,27,761920,152
76,32,761920,152
81,32,762080,152
73,27,762080,152
76,32,762080,152
85,54,762240,960
73,26,762400,152
76,26,762400,152
81,31,762400,152
73,26,762560,152
76,26,762560,152
81,31,762560,152
73,26,762720,152
76,26,762720,152
81,31,762720,152
73,26,762880,152
76,26,762880,152
81,31,762880,152
73,27,763040,160
76,27,763040,160
81,32,763040,160
85,55,763200,480
73,25,763360,152
76,25,763360,152
78,29,763360,152
73,25,763520,152
76,25,763520,152
78,30,763520,152
86,54,763680,480
74,25,763840,152
78,29,763840,152
74,25,764000,152
78,29,764000,152
83,53,764160,480
74,27,764320,152
78,32,764320,152
74,27,764480,152
78,32,764480,152
86,53,764640,480
74,26,764800,152
78,31,764800,152
74,26,764960,152
78,31,764960,152
83,53,765120,480
74,27,765280,152
78,32,765280,152
74,27,765440,152
78,32,765440,152
86,53,765600,480
74,26,765760,152
78,31,765760,152
74,26,765920,152
78,31,765920,152
86,56,766080,480
78,27,766240,152
83,32,766240,152
78,27,766400,152
83,32,766400,152
90,55,766560,480
78,27,766720,152
83,32,766720,152
78,27,766880,152
83,32,766880,152
86,55,767040,480
78,27,767200,152
83,32,767200,152
78,27,767360,152
83,32,767360,152
90,56,767520,480
78,27,767680,152
83,32,767680,152
78,27,767840,152
83,32,767840,152
78,56,768000,480
71,27,768160,152
74,32,768160,152
71,27,768320,160
74,32,768320,160
82,56,768480,480
78,33,768640,152
70,27,768640,152
76,33,768640,152
78,34,768800,152
70,27,768800,152
76,34,768800,152
83,58,768960,480
78,34,769120,152
71,28,769120,152
74,34,769120,152
78,35,769280,152
71,29,769280,152
74,35,769280,152
85,62,769440,480
81,36,769600,152
73,29,769600,152
79,36,769600,152
81,36,769760,152
73,29,769760,152
79,36,769760,152
86,61,769920,480
74,30,770080,152
78,30,770080,152
81,36,770080,152
74,29,770240,152
78,29,770240,152
81,36,770240,152
88,60,770400,480
82,35,770560,152
76,28,770560,152
78,35,770560,152
82,34,770720,152
76,28,770720,152
78,34,770720,152
86,57,770880,480
83,33,771040,152
74,27,771040,152
78,33,771040,152
83,32,771200,152
74,27,771200,152
78,32,771200,152
85,56,771360,480
81,32,771520,152
73,27,771520,152
76,32,771520,152
81,32,771680,152
73,27,771680,152
76,32,771680,152
85,54,771840,960
73,26,772000,152
76,26,772000,152
81,31,772000,152
73,26,772160,152
76,26,772160,152
81,31,772160,152
73,26,772320,152
76,26,772320,152
81,31,772320,152
73,26,772480,152
76,26,772480,152
81,31,772480,152
73,27,772640,152
76,27,772640,152
81,32,772640,152
74,41,772800,240
78,41,772800,240
81,41,772800,240
86,49,772800,240
81,52,773280,480
81,54,773760,720
79,51,774480,240
78,51,774720,240
78,52,775200,480
78,54,775680,720
76,51,776400,240
75,51,776640,240
71,52,777120,480
75,52,777120,480
71,44,777600,480
75,52,777600,480
71,47,778080,480
76,55,778080,480
71,47,778560,480
75,47,778560,480
78,56,778560,480
71,48,779040,480
76,48,779040,480
79,57,779040,480
71,50,779520,480
78,50,779520,480
81,59,779520,480
72,51,780000,480
78,51,780000,480
81,60,780000,480
73,52,780480,480
78,52,780480,480
81,61,780480,480
74,53,780960,480
78,53,780960,480
81,63,780960,480
81,59,781440,600
82,51,782040,120
81,53,782160,120
79,51,782280,120
78,56,782400,240
78,57,782880,480
78,59,783360,600
79,53,783960,120
78,53,784080,120
76,53,784200,120
75,56,784320,240
71,57,784800,480
75,57,784800,480
71,48,785280,360
75,57,785280,360
71,48,785640,120
75,57,785640,120
71,51,785760,360
76,60,785760,360
71,51,786120,120
76,60,786120,120
71,51,786240,360
75,51,786240,360
78,61,786240,360
71,51,786600,120
75,51,786600,120
78,61,786600,120
71,52,786720,360
76,52,786720,360
79,62,786720,360
71,52,787080,120
76,52,787080,120
79,62,787080,120
71,55,787200,360
78,55,787200,360
81,64,787200,360
71,55,787560,120
78,55,787560,120
81,64,787560,120
72,56,787680,360
78,56,787680,360
81,66,787680,360
72,56,788040,120
78,56,788040,120
81,66,788040,120
73,57,788160,360
78,57,788160,360
81,67,788160,360
73,57,788520,120
78,57,788520,120
81,67,788520,120
74,58,788640,480
78,58,788640,480
81,69,788640,480
81,59,789120,840
79,56,789960,120
78,56,790080,240
78,57,790560,480
81,49,790980,60
79,60,791040,120
78,57,791160,120
79,57,791280,120
81,57,791400,120
84,49,791460,60
82,60,791520,120
81,57,791640,120
82,57,791760,120
84,57,791880,120
86,59,792000,240
86,59,792480,240
82,57,792720,240
81,59,792960,840
79,56,793800,120
78,56,793920,240
90,63,794400,480
78,63,794400,480
79,63,794880,240
91,63,794880,240
82,64,795120,240
94,64,795120,240
84,64,795360,240
96,64,795360,240
86,65,795600,240
98,65,795600,240
87,66,795840,480
99,66,795840,480
96,69,796320,480
84,69,796320,480
94,70,796800,480
82,70,796800,480
92,69,797280,480
80,69,797280,480
91,66,797760,480
79,66,797760,480
89,65,798240,480
77,65,798240,480
76,61,798720,2160
88,61,798720,2160
76,51,800880,228
76,51,801120,228
76,51,801360,228
76,50,801600,228
76,50,801840,228
76,50,802080,228
76,50,802320,228
77,53,802560,840
79,47,803400,120
77,52,803520,240
82,49,804000,60
84,43,804060,60
82,44,804120,60
84,44,804180,60
82,44,804240,60
84,46,804300,60
81,51,804360,60
82,44,804420,60
86,67,804480,840
74,52,804480,840
72,46,805320,120
84,57,805320,120
70,49,805440,240
82,60,805440,240
79,54,805920,480
77,58,806400,840
79,53,807240,120
77,60,807360,240
82,53,807840,60
84,47,807900,60
82,48,807960,60
84,48,808020,60
82,48,808080,60
84,50,808140,60
81,55,808200,60
82,48,808260,60
86,69,808320,840
74,63,808320,840
72,62,809160,120
84,62,809160,120
70,67,809280,240
82,67,809280,240
70,48,809760,480
75,69,809760,480
79,69,809760,480
70,58,810240,480
74,69,810240,480
77,69,810240,480
70,61,810720,480
75,72,810720,480
79,72,810720,480
70,62,811200,480
74,62,811200,480
77,74,811200,480
82,74,811200,480
72,66,811680,480
77,66,811680,480
81,78,811680,480
84,78,811680,480
72,63,812160,960
77,63,812160,960
81,75,812160,960
84,75,812160,960
81,63,813120,160
77,54,813280,160
72,54,813440,160
77,54,813600,160
81,52,813760,160
84,51,813920,160
82,53,814080,160
89,49,814240,160
86,49,814400,80
82,53,814560,80
77,48,814720,80
74,46,814880,80
70,51,815040,80
74,46,815200,80
77,46,815360,80
74,53,815520,80
77,50,815680,80
82,50,815840,80
82,53,816000,160
91,49,816160,160
87,49,816320,80
82,53,816480,80
79,48,816640,80
75,46,816800,80
70,51,816960,80
75,46,817120,80
79,46,817280,80
75,53,817440,80
79,50,817600,80
82,50,817760,80
82,53,817920,160
94,49,818080,160
89,49,818240,80
86,53,818400,80
82,48,818560,80
77,46,818720,80
74,51,818880,80
70,46,819040,80
65,46,819200,80
70,53,819360,80
74,50,819520,80
77,50,819680,80
77,51,819840,160
82,47,820000,160
82,47,820160,80
79,51,820320,160
84,48,820480,160
84,48,820640,80
77,51,820800,160
82,47,820960,160
82,47,821120,80
77,51,821280,160
81,47,821440,160
81,47,821600,80
77,51,821760,160
80,47,821920,160
80,47,822080,80
77,52,822240,160
79,50,822400,160
79,50,822560,80
71,46,822720,160
74,54,822720,160
80,50,822880,160
80,51,823040,80
71,47,823200,160
74,56,823200,160
79,52,823360,160
79,53,823520,80
70,49,823680,160
75,58,823680,160
80,54,823840,160
80,54,824000,80
70,49,824160,160
75,58,824160,160
79,54,824320,160
79,54,824480,80
70,48,824640,160
74,57,824640,160
77,53,824800,160
77,52,824960,80
69,48,825120,160
72,57,825120,160
77,52,825280,160
77,52,825440,80
70,41,825600,480
74,41,825600,480
77,49,825600,480
82,49,826560,240
74,40,826560,240
77,40,826560,240
77,40,827040,240
80,40,827040,240
82,49,827040,240
75,45,827520,480
79,45,827520,480
82,53,827520,480
75,40,828480,240
79,40,828480,240
82,49,828480,240
79,40,828960,240
82,49,828960,240
74,45,829440,480
77,45,829440,480
82,53,829440,480
77,44,830400,240
82,44,830400,240
86,53,830400,240
77,44,830880,240
86,44,830880,240
89,53,830880,240
89,56,831360,160
94,51,831520,160
94,51,831680,80
91,56,831840,160
96,52,832000,160
96,52,832160,80
89,56,832320,160
94,51,832480,160
94,51,832640,80
89,56,832800,160
93,51,832960,160
93,51,833120,80
89,56,833280,160
92,51,833440,160
92,51,833600,80
89,57,833760,160
91,55,833920,160
91,55,834080,80
83,58,834240,160
86,58,834240,160
92,53,834400,160
92,53,834560,80
83,48,834720,160
86,57,834720,160
91,54,834880,160
91,54,835040,80
82,48,835200,160
87,57,835200,160
92,52,835360,160
92,52,835520,80
82,48,835680,160
87,57,835680,160
91,53,835840,160
91,52,836000,80
82,48,836160,160
86,57,836160,160
89,53,836320,160
89,49,836480,80
81,45,836640,160
84,54,836640,160
89,48,836800,160
89,48,836960,80
75,45,837120,160
78,42,837280,160
78,42,837440,80
75,46,837600,160
77,45,837760,160
77,45,837920,80
69,41,838080,160
72,48,838080,160
78,45,838240,160
78,45,838400,80
69,42,838560,160
72,50,838560,160
77,46,838720,160
77,47,838880,80
68,44,839040,160
73,52,839040,160
78,48,839200,160
78,48,839360,80
68,44,839520,160
73,52,839520,160
77,48,839680,160
77,48,839840,80
68,43,840000,160
72,51,840000,160
75,47,840160,160
75,46,840320,80
67,43,840480,160
70,51,840480,160
75,46,840640,160
75,46,840800,80
78,41,841920,160
83,48,841920,160
87,45,842080,160
87,45,842240,80
78,41,842400,160
83,49,842400,160
86,44,842560,160
86,44,842720,80
78,42,842880,160
82,50,842880,160
85,46,843040,160
85,46,843200,80
77,40,843360,160
80,48,843360,160
85,44,843520,160
85,44,843680,80
66,37,844320,160
69,44,844320,160
73,39,844480,160
73,39,844640,80
65,38,844800,160
68,45,844800,160
73,41,844960,160
73,41,845120,80
65,33,845760,160
68,39,845760,160
71,35,845920,160
71,35,846080,80
65,34,846240,160
68,40,846240,160
70,36,846400,160
70,36,846560,80
77,40,847200,160
80,40,847200,160
82,36,847360,160
82,36,847520,80
75,45,847680,160
80,45,847680,160
84,37,847840,160
84,37,848000,80
75,45,848160,160
79,45,848160,160
82,39,848320,160
82,39,848480,80
63,39,848640,160
67,47,848640,160
70,40,848800,160
70,40,848960,80
62,43,849120,160
65,51,849120,160
70,46,849280,160
70,46,849440,80
65,49,849600,160
70,58,849600,160
77,50,849760,160
77,50,849920,80
65,50,850080,160
69,60,850080,160
77,53,850240,160
77,53,850400,80
62,58,850560,120
65,58,850560,120
70,58,850560,120
65,47,850720,160
62,47,850880,160
65,47,851040,160
70,51,851200,160
74,55,851360,160
77,68,851520,720
67,48,852000,240
69,45,852240,240
75,54,852240,240
65,47,852480,480
70,47,852480,480
74,56,852480,480
66,52,852960,480
72,52,852960,480
74,62,852960,480
67,54,853440,480
65,54,853440,480
71,54,853440,480
74,64,853440,480
75,65,853920,360
63,55,853920,480
67,55,853920,480
72,55,853920,480
74,55,854280,120
65,44,854400,1080
69,44,854400,960
72,52,854400,720
73,47,855120,240
70,43,855360,120
74,51,855360,120
65,39,855840,120
70,39,855840,120
74,46,855840,120
53,47,856480,160
50,47,856640,160
53,47,856800,160
58,51,856960,160
62,55,857120,160
65,65,857280,720
53,46,857520,480
55,48,857760,240
53,45,858000,240
57,45,858000,240
63,54,858000,240
53,47,858240,480
58,47,858240,480
62,56,858240,480
54,52,858720,480
60,52,858720,480
62,62,858720,480
55,54,859200,390
53,54,859200,480
59,54,859200,390
62,64,859200,390
51,50,859635,285
55,56,859650,270
60,63,859665,255
63,71,859680,240
67,62,860640,480
73,62,860640,480
75,74,860640,480
68,64,861120,390
66,64,861120,390
72,64,861120,390
75,77,861120,390
64,65,861555,285
68,70,861570,270
73,72,861585,255
76,85,861600,240
79,82,862560,390
81,82,862560,390
88,99,862560,390
85,99,862560,390
77,86,862995,285
81,89,863010,270
86,94,863025,255
89,103,863040,240
70,52,864000,1080
74,52,864000,960
77,62,864000,720
78,56,864720,240
75,51,864960,120
79,61,864960,120
70,46,865440,120
75,46,865440,120
79,55,865440,120
79,61,865920,1440
82,61,865920,1440
70,54,867840,1200
67,45,869040,240
63,50,869280,240
62,45,869520,240
53,34,869760,1080
57,34,869760,960
62,49,869760,480
60,44,870240,360
61,44,870600,120
58,40,870720,120
62,48,870720,120
53,30,871200,120
58,36,871200,120
62,44,871200,120
62,48,871680,1440
65,48,871680,1440
70,52,873600,1080
74,52,873600,960
77,62,873600,720
78,56,874320,240
75,51,874560,120
79,61,874560,120
70,55,875040,120
75,55,875040,120
79,66,875040,120
63,79,875520,60
67,78,875580,60
70,72,875640,60
75,68,875700,60
79,66,875760,60
82,64,875820,60
87,61,875880,60
91,59,875940,60
94,58,876000,60
82,62,877440,1680
81,50,879120,240
81,53,879360,480
79,51,879840,360
77,47,880200,120
77,51,880320,480
75,48,880800,360
74,41,881160,120
65,30,881280,1080
69,30,881280,960
74,44,881280,480
72,39,881760,360
73,39,882120,120
70,36,882240,120
74,43,882240,120
65,27,882720,120
70,32,882720,120
74,39,882720,120
74,43,883200,1440
77,43,883200,1440
74,55,885120,1440
72,55,885120,1440
77,55,885120,1440
71,53,887040,1920
74,56,887040,1920
68,51,887040,1440
80,67,887040,1440
67,44,888480,480
79,52,888480,480
67,45,888960,480
72,53,888960,480
77,53,888960,480
75,52,889440,240
66,40,889680,240
74,48,889680,240
67,46,889920,720
77,55,889920,480
75,52,890400,240
63,39,890640,240
72,47,890640,240
70,53,890880,360
69,50,891240,120
65,40,891360,480
69,48,891360,480
66,37,891840,480
69,55,891840,480
65,44,892320,240
69,52,892320,480
63,48,892560,240
62,45,892800,240
70,54,892800,240
62,43,893280,1440
65,43,893280,1440
62,55,895200,1440
60,55,895200,1440
65,55,895200,1440
59,56,896640,1920
62,56,896640,1920
56,56,896640,1440
68,67,896640,1440
55,39,898080,480
67,46,898080,480
55,40,898560,480
60,47,898560,480
65,47,898560,480
63,46,899040,240
54,36,899280,240
62,43,899280,240
55,41,899520,720
65,49,899520,480
63,46,900000,240
51,35,900240,240
60,42,900240,240
58,47,900480,360
57,45,900840,120
53,36,900960,480
57,43,900960,480
54,33,901440,480
57,49,901440,480
53,39,901920,240
57,46,901920,480
51,43,902160,240
58,48,902400,240
58,28,903840,480
65,32,903840,480
70,38,903840,480
58,29,904320,480
65,33,904320,480
70,40,904320,480
57,24,904800,480
65,32,904800,480
69,38,904800,480
58,29,905280,480
65,33,905280,480
70,40,905280,480
65,32,905760,480
60,28,905760,480
69,32,905760,480
72,38,905760,480
58,32,906240,960
65,36,906240,960
70,42,906240,960
74,38,907680,480
62,28,907680,480
65,32,907680,480
62,29,908160,480
65,34,908160,480
74,41,908160,480
60,25,908640,480
72,40,908640,480
65,34,908640,480
74,44,909120,480
62,31,909120,480
65,36,909120,480
75,43,909600,480
63,36,909600,480
69,36,909600,480
62,32,910080,960
70,36,910080,960
74,42,910080,960
58,28,911520,480
65,32,911520,480
70,38,911520,480
58,29,912000,480
65,33,912000,480
70,40,912000,480
57,24,912480,480
65,32,912480,480
69,38,912480,480
58,29,912960,480
65,33,912960,480
70,40,912960,480
65,32,913440,480
60,28,913440,480
69,32,913440,480
72,38,913440,480
69,36,913920,4320
60,32,913920,4320
65,36,913920,4320
72,42,913920,4320
63,30,918720,480
69,30,918720,480
77,36,918720,480
62,30,919680,480
70,36,919680,480
50,33,1440,240
46,27,1440,480
53,28,1680,240
46,28,1920,480
50,34,1920,240
53,28,2160,240
48,31,2400,240
46,24,2400,480
53,27,2640,240
46,28,2880,480
50,34,2880,240
53,27,3120,240
51,33,3360,240
46,27,3360,480
53,26,3600,240
46,28,3840,1440
52,34,3840,240
53,26,4080,120
53,26,4320,120
53,26,4560,120
53,26,4800,120
53,26,5040,120
46,27,5280,480
51,33,5280,240
50,27,5520,240
41,26,5760,480
51,31,5760,240
53,25,6000,240
51,29,6240,240
41,26,6240,480
53,25,6480,240
41,26,6720,480
51,29,6720,240
53,26,6960,240
50,33,7200,240
41,27,7200,480
48,25,7440,240
46,28,7680,1440
50,34,7680,240
53,30,7920,240
51,33,8160,240
55,28,8400,240
50,29,8640,240
53,30,8880,240
46,28,9120,480
50,39,9120,240
58,34,9360,240
55,36,9600,1440
46,30,9600,1440
58,32,9840,120
58,33,10080,120
58,30,10320,120
58,34,10560,120
58,31,10800,120
46,27,11040,480
53,33,11040,240
51,31,11280,240
53,33,11520,240
46,27,11520,480
50,28,11760,240
41,27,12000,480
48,33,12000,240
53,28,12240,240
50,33,12480,240
41,27,12480,480
53,30,12720,240
51,32,12960,240
41,27,12960,480
53,29,13200,240
50,32,13440,240
41,27,13440,960
53,29,13680,240
50,32,13920,240
46,29,14160,240
41,32,14400,480
29,27,15120,100
30,22,15200,100
32,22,15280,100
30,27,15360,100
32,23,15420,100
30,24,15480,100
32,22,15540,100
30,24,15600,100
32,22,15660,100
30,25,15720,100
32,24,15780,100
30,26,15840,100
32,23,15900,100
30,26,15960,100
32,22,16020,100
30,25,16080,100
32,23,16140,100
30,24,16200,100
32,22,16260,100
30,26,16320,100
32,23,16380,100
30,25,16440,100
32,23,16500,100
30,25,16560,100
32,22,16620,100
30,25,16680,100
32,22,16740,100
30,27,16800,100
32,23,16860,100
30,26,16920,100
32,22,16980,100
29,22,17040,140
30,18,17160,140
29,23,17280,120
46,27,18720,480
50,33,18720,240
53,28,18960,240
50,34,19200,240
46,28,19200,480
53,28,19440,240
46,24,19680,480
48,31,19680,240
53,27,19920,240
46,28,20160,480
50,34,20160,240
53,27,20400,240
51,33,20640,240
46,27,20640,480
53,26,20880,240
52,34,21120,240
46,28,21120,1440
53,26,21360,120
53,26,21600,120
53,26,21840,120
53,26,22080,120
53,26,22320,120
46,27,22560,480
51,33,22560,240
50,27,22800,240
51,31,23040,240
41,26,23040,480
53,25,23280,240
51,29,23520,240
41,26,23520,480
53,25,23760,240
51,29,24000,240
41,26,24000,480
53,28,24240,240
41,27,24480,480
50,33,24480,240
48,25,24720,240
46,28,24960,1440
50,34,24960,240
53,30,25200,240
51,33,25440,240
55,28,25680,240
50,29,25920,240
53,30,26160,240
50,39,26400,240
44,28,26400,480
53,34,26640,240
53,36,26880,1440
43,30,26880,1440
55,32,27120,120
55,33,27360,120
55,30,27600,120
55,34,27840,120
55,31,28080,120
43,24,28320,240
51,27,28320,240
55,33,28320,240
50,27,28560,240
55,31,28560,240
43,24,28560,240
48,34,28800,240
43,28,28800,480
55,30,29040,240
53,33,29280,240
43,28,29280,480
55,28,29520,240
51,28,29760,240
43,27,29760,480
55,29,30000,240
42,28,30240,480
51,39,30240,240
54,34,30480,240
41,30,30720,1440
51,36,30720,1440
53,32,30960,120
53,33,31200,120
53,30,31440,120
53,34,31680,120
53,31,31920,120
41,24,32160,240
53,33,32160,240
50,27,32160,240
41,24,32400,240
53,31,32400,240
48,27,32400,240
41,28,32640,480
46,34,32640,240
53,30,32880,240
48,31,33120,240
41,26,33120,480
53,26,33360,240
50,29,33600,240
41,28,33600,480
53,27,33840,240
41,25,34080,480
51,35,34080,240
53,30,34320,240
41,27,34560,960
51,32,34560,960
53,32,34560,1200
50,28,35520,240
46,28,35520,240
34,30,36000,240
34,30,36480,90
35,26,36540,90
34,27,36600,90
35,25,36660,90
34,27,36720,90
35,25,36780,90
34,28,36840,90
35,27,36900,90
34,29,36960,90
35,26,37020,90
34,29,37080,90
35,25,37140,90
34,28,37200,90
35,26,37260,90
34,27,37320,90
35,25,37380,90
34,29,37440,90
35,26,37500,90
34,28,37560,90
35,26,37620,90
34,28,37680,90
35,25,37740,90
34,28,37800,90
35,25,37860,90
34,30,37920,140
33,26,38040,140
32,30,38160,140
31,26,38280,140
30,30,38400,120
49,26,38520,120
54,26,38640,120
49,26,38760,120
42,31,38880,120
49,26,39000,120
53,26,39120,120
49,25,39240,120
42,30,39360,120
49,27,39480,120
54,27,39600,120
49,27,39720,120
42,30,39840,120
49,27,39960,120
56,27,40080,120
49,27,40200,120
42,33,40320,120
49,27,40440,120
58,27,40560,120
49,27,40680,120
42,31,40800,120
49,27,40920,120
58,27,41040,120
49,27,41160,120
42,30,41280,120
49,27,41400,120
58,27,41520,120
49,27,41640,120
42,31,41760,120
49,25,41880,120
54,28,42000,120
49,27,42120,120
42,33,42240,120
51,27,42360,120
59,27,42480,120
51,27,42600,120
42,32,42720,120
51,27,42840,120
59,27,42960,120
51,27,43080,120
42,32,43200,120
51,27,43320,120
59,27,43440,120
51,27,43560,120
42,33,43680,120
51,27,43800,120
59,31,43920,120
51,27,44040,120
42,33,44160,120
49,28,44280,120
58,28,44400,120
49,28,44520,120
42,33,44640,120
49,27,44760,120
58,28,44880,120
49,27,45000,120
42,33,45120,120
49,28,45240,120
58,29,45360,120
49,29,45480,120
42,33,45600,120
49,27,45720,120
54,31,45840,120
49,27,45960,120
42,33,46080,120
51,28,46200,120
59,28,46320,120
51,28,46440,120
42,33,46560,120
51,29,46680,120
59,29,46800,120
51,29,46920,120
42,33,47040,120
49,28,47160,120
53,28,47280,120
49,27,47400,120
42,31,47520,120
49,27,47640,120
56,28,47760,120
49,28,47880,120
42,33,48000,120
49,28,48120,120
58,28,48240,120
49,28,48360,120
42,33,48480,120
49,27,48600,120
58,28,48720,120
49,27,48840,120
42,33,48960,120
49,28,49080,120
58,29,49200,120
49,29,49320,120
42,33,49440,120
49,27,49560,120
58,31,49680,120
49,27,49800,120
42,33,49920,120
51,28,50040,120
54,28,50160,120
51,28,50280,120
42,33,50400,120
51,29,50520,120
59,29,50640,120
51,29,50760,120
42,33,50880,120
49,28,51000,120
53,28,51120,120
49,27,51240,120
42,31,51360,120
49,27,51480,120
56,28,51600,120
49,28,51720,120
42,33,51840,120
58,28,51960,120
54,28,52080,120
58,28,52200,120
54,33,52320,120
58,29,52440,120
54,29,52560,120
58,29,52680,120
42,33,52800,120
58,28,52920,120
54,28,53040,120
58,27,53160,120
54,31,53280,120
58,27,53400,120
54,28,53520,120
58,28,53640,120
42,33,53760,120
59,28,53880,120
54,28,54000,120
59,28,54120,120
54,33,54240,120
59,29,54360,120
54,29,54480,120
59,29,54600,120
42,33,54720,120
59,28,54840,120
54,28,54960,120
59,27,55080,120
54,31,55200,120
59,27,55320,120
54,28,55440,120
59,28,55560,120
42,33,55680,60
58,28,55800,120
54,28,55920,120
58,28,56040,120
54,33,56160,120
58,29,56280,120
54,29,56400,120
58,29,56520,120
42,33,56640,60
58,28,56760,120
54,28,56880,120
58,27,57000,120
54,31,57120,120
58,27,57240,120
54,28,57360,120
58,28,57480,120
42,33,57600,60
59,28,57720,120
54,28,57840,120
59,28,57960,120
54,33,58080,120
59,29,58200,120
54,29,58320,120
59,29,58440,120
42,33,58560,60
59,28,58680,120
54,28,58800,120
59,27,58920,120
54,31,59040,120
59,27,59160,120
54,28,59280,120
59,28,59400,120
42,33,59520,60
58,28,59640,120
54,28,59760,120
58,28,59880,120
54,33,60000,120
58,29,60120,120
54,29,60240,120
58,29,60360,120
54,33,60480,120
58,28,60600,120
54,28,60720,120
58,27,60840,120
54,31,60960,120
58,27,61080,120
54,28,61200,120
58,28,61320,120
42,33,61440,60
58,28,61560,120
54,28,61680,120
58,28,61800,120
54,33,61920,120
58,29,62040,120
54,29,62160,120
58,29,62280,120
54,33,62400,120
58,28,62520,120
54,28,62640,120
58,27,62760,120
54,31,62880,120
58,27,63000,120
54,28,63120,120
58,28,63240,120
54,33,63360,120
58,28,63480,120
54,28,63600,120
58,28,63720,120
54,33,63840,120
58,29,63960,120
54,29,64080,120
58,30,64200,120
54,34,64320,120
58,29,64440,120
54,29,64560,120
58,28,64680,120
54,33,64800,120
58,29,64920,120
54,30,65040,120
58,30,65160,120
42,34,65280,160
54,31,65440,152
54,31,65600,152
42,25,65600,152
42,29,65760,152
54,35,65760,152
42,25,65920,152
54,31,65920,152
42,27,66080,152
54,33,66080,152
54,37,66240,152
42,31,66240,152
42,29,66400,152
54,35,66400,152
42,29,66560,152
54,35,66560,152
49,32,66720,152
54,38,66720,152
42,32,66720,152
42,28,66880,152
54,35,66880,152
49,32,66880,152
42,29,67040,152
49,33,67040,152
54,35,67040,152
42,33,67200,152
49,33,67200,152
54,40,67200,152
42,30,67360,152
54,36,67360,152
49,34,67360,152
49,35,67520,152
54,37,67520,152
42,30,67520,152
42,36,67680,152
49,36,67680,152
54,44,67680,152
42,33,67840,152
54,40,67840,152
49,37,67840,152
49,39,68000,152
54,42,68000,152
42,34,68000,152
42,40,68160,152
49,40,68160,152
54,48,68160,152
42,37,68320,152
54,44,68320,152
49,41,68320,152
49,43,68480,152
54,46,68480,152
42,37,68480,152
41,48,68640,152
50,48,68640,152
53,57,68640,152
41,42,68800,152
50,48,68800,152
53,52,68800,152
53,52,68960,152
50,48,68960,152
41,42,68960,152
50,63,69120,160
41,63,69120,480
53,58,69280,160
53,58,69440,80
48,62,69600,160
41,62,69600,480
53,58,69760,160
53,58,69920,80
41,60,70080,480
50,60,70080,160
53,58,70240,160
53,58,70400,80
41,61,70560,480
51,61,70560,160
53,58,70720,160
53,58,70880,80
41,60,71040,1440
52,60,71040,160
53,58,71200,160
53,58,71360,80
53,60,71520,160
53,58,71680,160
53,58,71840,80
53,62,72000,152
53,58,72160,152
53,58,72320,152
51,61,72480,160
41,55,72480,480
53,53,72640,160
50,53,72800,160
51,60,72960,160
41,60,72960,480
53,55,73120,152
53,55,73280,152
41,60,73440,480
51,60,73440,160
53,56,73600,152
53,56,73760,152
41,62,73920,480
51,62,73920,160
53,58,74080,152
53,58,74240,152
41,62,74400,480
50,62,74400,160
53,59,74560,160
48,59,74720,160
50,62,74880,160
46,62,74880,1440
53,56,75040,152
53,56,75200,152
51,60,75360,160
55,56,75520,152
55,56,75680,152
50,60,75840,160
53,56,76000,152
53,57,76160,152
44,59,76320,480
50,59,76320,160
53,54,76480,152
53,54,76640,152
43,59,76800,1440
53,59,76800,160
55,53,76960,152
55,53,77120,152
53,56,77280,160
55,53,77440,152
55,53,77600,152
53,57,77760,160
55,51,77920,152
55,51,78080,152
51,56,78240,160
43,56,78240,480
55,51,78400,160
50,51,78560,160
43,54,78720,480
48,54,78720,160
55,50,78880,152
55,50,79040,152
43,54,79200,480
53,54,79200,160
55,50,79360,152
55,50,79520,152
43,55,79680,480
51,55,79680,160
55,50,79840,152
55,50,80000,152
42,57,80160,480
51,57,80160,160
54,52,80320,152
54,52,80480,152
51,58,80640,160
41,58,80640,1440
53,52,80800,152
53,52,80960,152
51,56,81120,160
53,52,81280,152
53,53,81440,152
51,57,81600,160
53,52,81760,152
53,52,81920,152
50,57,82080,160
41,57,82080,480
53,54,82240,160
48,51,82400,160
46,58,82560,160
41,58,82560,480
53,53,82720,152
53,53,82880,152
48,58,83040,160
41,58,83040,480
53,52,83200,152
53,52,83360,152
41,56,83520,480
50,56,83520,160
53,52,83680,152
53,52,83840,152
41,56,84000,480
51,56,84000,160
53,52,84160,152
53,52,84320,152
41,51,84480,960
51,51,84480,960
53,50,84640,152
53,50,84800,152
53,50,84960,152
53,50,85120,152
53,49,85280,152
53,49,85440,152
53,49,85600,152
53,49,85760,152
53,48,85920,152
53,48,86080,152
53,48,86240,152
50,48,86400,1920
41,45,86400,1920
53,42,86560,152
53,39,86720,152
53,38,86880,152
53,38,87040,152
53,37,87200,152
53,37,87360,152
53,36,87520,152
53,35,87680,152
53,36,87840,152
53,40,88000,152
53,44,88160,152
53,50,88320,160
44,42,88480,152
44,42,88640,152
44,42,88800,152
44,42,88960,152
44,42,89120,152
44,42,89280,152
44,42,89440,152
44,42,89600,152
44,42,89760,152
44,42,89920,152
44,42,90080,152
44,46,90240,160
37,46,90400,152
37,46,90560,152
37,53,90720,152
37,53,90880,152
37,53,91040,152
37,53,91200,152
37,52,91360,152
37,52,91520,152
37,65,91680,120
35,59,91800,120
33,61,91920,120
32,59,92040,120
30,65,92160,120
61,42,93600,480
54,42,93600,480
54,42,94080,1200
61,42,94080,720
59,38,94800,240
57,41,95040,240
57,38,95520,480
54,38,95520,480
57,41,96000,720
54,41,96000,960
56,41,96720,240
54,44,96960,240
54,34,97440,480
54,41,97920,480
56,42,98400,480
57,47,98880,480
52,31,99360,480
59,37,99360,480
61,47,99840,480
57,39,99840,480
56,38,100320,480
61,45,100320,480
61,46,100800,480
54,38,100800,480
62,39,101280,480
52,33,101280,480
62,39,101760,960
52,33,101760,960
53,30,102720,480
61,37,102720,480
54,30,103200,480
61,36,103200,480
54,32,103680,1200
61,42,103680,720
59,38,104400,240
57,41,104640,240
57,38,105120,480
54,32,105120,480
57,41,105600,720
54,34,105600,960
56,41,106320,240
54,44,106560,240
54,34,107040,480
54,41,107520,480
56,42,108000,480
57,47,108480,480
52,31,108960,480
59,37,108960,480
57,39,109440,480
61,47,109440,480
61,45,109920,480
56,38,109920,480
54,38,110400,480
61,46,110400,480
52,33,110880,480
62,39,110880,480
52,33,111360,960
62,39,111360,960
61,37,112320,160
57,37,112320,160
64,29,112480,152
64,29,112640,152
64,33,112800,152
64,29,112960,152
64,29,113120,152
58,33,113280,120
64,27,113400,120
61,27,113520,120
64,27,113640,120
58,33,113760,120
64,28,113880,120
61,28,114000,120
64,29,114120,120
58,33,114240,120
64,29,114360,120
61,29,114480,120
64,29,114600,120
57,33,114720,120
64,29,114840,120
61,29,114960,120
64,29,115080,120
55,33,115200,120
64,27,115320,120
61,27,115440,120
64,27,115560,120
55,33,115680,120
64,28,115800,120
61,28,115920,120
64,29,116040,120
55,33,116160,120
64,29,116280,120
61,29,116400,120
64,29,116520,120
54,33,116640,120
64,29,116760,120
61,29,116880,120
64,29,117000,120
54,33,117120,120
64,28,117240,120
61,28,117360,120
64,28,117480,120
54,34,117600,120
62,28,117720,120
59,28,117840,120
62,29,117960,120
54,35,118080,120
61,29,118200,120
58,29,118320,120
61,29,118440,120
54,36,118560,120
62,31,118680,120
59,31,118800,120
62,31,118920,120
54,37,119040,120
64,31,119160,120
61,32,119280,120
64,32,119400,120
55,37,119520,120
64,31,119640,120
61,31,119760,120
64,31,119880,120
56,38,120000,120
64,32,120120,120
61,32,120240,120
64,33,120360,120
57,39,120480,120
64,32,120600,120
61,34,120720,120
64,34,120840,120
57,33,120960,120
64,27,121080,120
61,27,121200,120
64,27,121320,120
58,33,121440,120
64,28,121560,120
61,28,121680,120
64,29,121800,120
58,33,121920,120
64,29,122040,120
61,29,122160,120
64,29,122280,120
57,33,122400,120
64,29,122520,120
61,29,122640,120
64,29,122760,120
55,33,122880,120
64,27,123000,120
61,27,123120,120
64,27,123240,120
55,33,123360,120
64,28,123480,120
61,28,123600,120
64,29,123720,120
55,33,123840,120
64,29,123960,120
61,29,124080,120
64,31,124200,120
54,36,124320,120
64,31,124440,120
61,31,124560,120
64,31,124680,120
54,36,124800,120
64,30,124920,120
61,30,125040,120
64,30,125160,120
54,37,125280,120
62,30,125400,120
59,30,125520,120
62,31,125640,120
54,38,125760,120
61,31,125880,120
58,31,126000,120
61,31,126120,120
54,39,126240,120
62,34,126360,120
59,34,126480,120
62,34,126600,120
54,40,126720,120
64,34,126840,120
61,35,126960,120
64,35,127080,120
55,40,127200,120
64,34,127320,120
61,34,127440,120
64,34,127560,120
56,41,127680,120
64,35,127800,120
61,35,127920,120
64,36,128040,120
57,42,128160,120
64,35,128280,120
61,37,128400,120
64,37,128520,120
57,36,128640,120
64,29,128760,120
61,29,128880,120
64,29,129000,120
58,36,129120,120
64,30,129240,120
61,30,129360,120
64,31,129480,120
57,36,129600,120
64,31,129720,120
61,31,129840,120
64,31,129960,120
55,36,130080,120
64,31,130200,120
61,31,130320,120
64,31,130440,120
53,36,130560,120
62,29,130680,120
57,29,130800,120
62,29,130920,120
52,36,131040,120
62,30,131160,120
55,30,131280,120
62,31,131400,120
50,36,131520,120
62,31,131640,120
53,31,131760,120
62,31,131880,120
53,36,132000,120
62,31,132120,120
57,31,132240,120
62,31,132360,120
57,36,132480,120
64,29,132600,120
61,29,132720,120
64,29,132840,120
58,36,132960,120
64,30,133080,120
61,30,133200,120
64,31,133320,120
57,36,133440,120
64,31,133560,120
61,31,133680,120
64,31,133800,120
55,37,133920,120
64,32,134040,120
61,32,134160,120
64,32,134280,120
53,37,134400,120
65,31,134520,120
62,32,134640,120
65,32,134760,120
53,39,134880,120
65,34,135000,120
62,34,135120,120
65,35,135240,120
53,42,135360,120
65,37,135480,120
62,37,135600,120
65,37,135720,120
53,44,135840,120
67,39,135960,120
63,40,136080,120
67,40,136200,120
53,48,136320,120
65,38,136440,120
62,38,136560,120
65,38,136680,120
53,47,136800,120
63,39,136920,120
60,39,137040,120
63,39,137160,120
53,42,137280,120
62,36,137400,120
58,36,137520,120
62,37,137640,120
53,42,137760,120
60,35,137880,120
56,35,138000,120
60,35,138120,120
53,35,138240,120
59,29,138360,120
56,29,138480,120
59,29,138600,120
53,34,138720,120
59,29,138840,120
56,29,138960,120
59,29,139080,120
53,33,139200,120
59,29,139320,120
56,29,139440,120
59,29,139560,120
53,33,139680,120
59,29,139800,120
56,29,139920,120
59,29,140040,120
53,31,140160,120
59,27,140280,120
56,27,140400,120
59,27,140520,120
53,32,140640,120
59,27,140760,120
56,27,140880,120
59,27,141000,120
52,32,141120,120
59,26,141240,120
56,26,141360,120
59,26,141480,120
50,31,141600,120
59,26,141720,120
56,26,141840,120
59,26,141960,120
48,31,142080,120
60,24,142200,120
57,24,142320,120
60,24,142440,120
48,30,142560,120
62,25,142680,120
58,25,142800,120
62,26,142920,120
48,29,143040,120
60,26,143160,120
57,26,143280,120
60,26,143400,120
48,30,143520,120
62,26,143640,120
58,26,143760,120
62,26,143880,120
48,31,144000,120
60,24,144120,120
57,24,144240,120
60,24,144360,120
48,30,144480,120
62,25,144600,120
58,25,144720,120
62,26,144840,120
48,29,144960,120
60,26,145080,120
57,26,145200,120
60,26,145320,120
48,30,145440,120
62,26,145560,120
58,26,145680,120
62,26,145800,120
48,31,145920,120
60,24,146040,120
57,24,146160,120
60,24,146280,120
48,30,146400,120
62,26,146520,120
58,26,146640,120
62,27,146760,120
48,30,146880,120
60,27,147000,120
57,28,147120,120
60,28,147240,120
48,33,147360,120
62,28,147480,120
58,28,147600,120
62,28,147720,120
48,34,147840,120
60,26,147960,120
57,26,148080,120
60,26,148200,120
48,33,148320,120
62,27,148440,120
58,27,148560,120
62,28,148680,120
48,31,148800,120
60,28,148920,120
57,28,149040,120
60,28,149160,120
48,36,149280,120
62,30,149400,120
58,30,149520,120
62,30,149640,120
48,42,149760,120
60,35,149880,120
57,35,150000,120
60,35,150120,120
48,44,150240,120
62,37,150360,120
58,38,150480,120
62,37,150600,120
48,47,150720,120
60,37,150840,120
57,38,150960,120
60,38,151080,120
48,49,151200,120
60,40,151320,120
58,40,151440,120
60,40,151560,120
48,41,151680,1920
60,49,151680,1920
58,41,151680,1920
53,32,153600,480
57,32,153600,480
60,38,153600,480
53,29,154560,240
57,29,154560,240
60,35,154560,240
53,29,155040,240
60,29,155040,240
63,35,155040,240
53,32,155520,480
58,32,155520,480
62,38,155520,480
53,29,156480,240
58,29,156480,240
62,35,156480,240
53,29,156960,240
62,29,156960,240
65,35,156960,240
53,32,157440,480
57,32,157440,480
60,38,157440,480
53,29,158400,240
57,35,158400,240
57,29,158880,240
60,35,158880,240
48,29,159360,240
57,29,159360,240
60,35,159360,240
48,28,159840,240
62,34,159840,240
58,28,159840,240
48,28,160320,240
57,28,160320,240
60,33,160320,240
48,28,160800,240
55,28,160800,240
58,34,160800,240
48,29,161280,240
54,29,161280,240
57,35,161280,240
48,28,161760,240
57,35,161760,240
54,28,161760,240
48,29,162240,240
54,29,162240,240
57,35,162240,240
48,31,162720,240
54,31,162720,240
57,37,162720,240
46,33,163200,240
53,33,163200,240
58,40,163200,240
46,31,163680,240
58,38,163680,240
53,31,163680,240
48,31,164160,240
53,31,164160,240
57,37,164160,240
48,31,164640,240
55,31,164640,240
58,38,164640,240
53,47,165120,160
60,44,165280,160
57,44,165440,80
53,47,165600,80
48,43,165760,80
45,41,165920,80
41,45,166080,80
45,41,166240,80
48,41,166400,80
45,47,166560,80
48,45,166720,80
53,45,166880,80
53,47,167040,160
62,44,167200,160
58,44,167360,80
53,47,167520,80
50,43,167680,80
46,41,167840,80
41,45,168000,80
46,41,168160,80
50,41,168320,80
46,47,168480,80
50,45,168640,80
53,45,168800,80
53,47,168960,160
65,44,169120,160
60,44,169280,80
57,47,169440,80
53,43,169600,80
48,41,169760,80
45,45,169920,80
41,41,170080,80
36,41,170240,80
41,47,170400,80
45,45,170560,80
48,45,170720,80
48,29,170880,240
57,29,170880,240
60,35,170880,240
60,28,171360,240
74,34,171360,240
70,28,171360,240
60,28,171840,240
69,28,171840,240
72,33,171840,240
60,28,172320,240
67,28,172320,240
70,34,172320,240
60,29,172800,240
66,29,172800,240
69,35,172800,240
60,28,173280,240
69,35,173280,240
66,28,173280,240
60,29,173760,240
66,29,173760,240
69,35,173760,240
60,31,174240,240
66,31,174240,240
69,37,174240,240
58,33,174720,240
65,33,174720,240
70,40,174720,240
58,31,175200,240
70,38,175200,240
65,31,175200,240
60,31,175680,240
65,31,175680,240
69,37,175680,240
60,31,176160,240
67,31,176160,240
70,38,176160,240
46,26,176640,240
52,26,176640,240
55,31,176640,240
46,25,177120,240
55,31,177120,240
52,25,177120,240
46,26,177600,240
52,26,177600,240
55,31,177600,240
46,27,178080,240
52,27,178080,240
55,33,178080,240
44,29,178560,240
51,29,178560,240
56,36,178560,240
44,27,179040,240
56,34,179040,240
51,27,179040,240
46,27,179520,240
51,27,179520,240
55,33,179520,240
46,27,180000,240
53,27,180000,240
56,34,180000,240
66,31,181440,240
63,33,181920,240
68,33,182400,240
68,31,182880,240
44,29,183840,240
44,29,184320,240
45,26,185280,240
45,26,185760,240
57,26,186720,240
58,27,187200,240
46,30,187680,240
48,33,188160,240
48,35,188640,240
58,41,189120,240
55,35,189120,240
48,35,189120,240
48,36,189600,240
55,36,189600,240
58,42,189600,240
41,36,190080,120
53,42,190080,120
57,36,191040,720
60,44,191040,960
55,30,191760,240
58,36,191760,240
53,36,192000,480
57,44,192000,480
51,38,192480,480
57,45,192480,480
50,40,192960,480
57,48,192960,480
43,37,193440,480
50,37,193440,480
55,44,193440,480
48,41,193920,960
58,49,193920,960
53,32,194880,120
57,38,194880,120
53,28,195360,120
57,34,195360,120
45,35,196800,720
48,42,196800,237
43,30,197520,240
46,36,197520,240
41,36,197760,480
45,44,197760,480
39,38,198240,480
45,45,198240,480
38,40,198720,480
45,48,198720,480
31,40,199200,240
38,40,199200,240
43,48,199200,240
53,45,200160,480
58,53,200160,480
51,49,200640,480
58,59,200640,480
44,50,201120,240
51,50,201120,240
56,60,201120,240
40,70,202080,480
47,70,202080,480
52,84,202080,480
33,70,202560,240
40,70,202560,240
45,84,202560,240
65,49,203520,960
75,58,203520,960
70,38,204480,120
74,45,204480,120
70,33,204960,120
74,40,204960,120
70,38,205440,1440
74,45,205440,1440
48,33,209280,960
58,39,209280,960
53,30,210240,120
57,36,210240,120
53,24,210720,120
57,32,210720,120
53,30,211200,1440
60,36,211200,1440
65,49,213120,960
75,58,213120,960
70,38,214080,120
74,45,214080,120
70,39,214560,120
74,48,214560,120
48,29,220800,960
58,35,220800,960
53,27,221760,120
57,32,221760,120
53,21,222240,120
57,28,222240,120
53,27,222720,1440
60,32,222720,1440
53,42,224640,120
54,47,224760,120
51,43,225120,120
54,49,225240,120
53,33,225600,120
54,37,225720,120
51,33,226080,120
54,39,226200,120
60,27,226560,120
69,32,226560,120
60,21,227040,120
69,28,227040,120
69,27,227520,960
72,32,227520,960
41,35,228480,120
42,40,228600,120
39,36,228960,120
42,40,229080,120
41,31,229440,120
42,35,229560,120
39,30,229920,120
42,35,230040,120
48,24,230400,120
57,28,230400,120
48,18,230880,120
57,25,230880,120
57,24,231360,960
60,28,231360,960
53,47,232320,120
54,52,232440,120
51,42,232800,120
54,47,232920,120
41,48,233280,120
42,52,233400,120
39,43,233760,120
42,47,233880,120
38,68,234240,120
42,75,234360,120
39,61,234720,120
42,69,234840,120
35,66,235200,120
42,72,235320,120
34,70,235680,120
42,75,235800,120
33,72,236160,120
41,78,236280,120
33,62,236640,80
41,62,236640,80
45,74,236640,80
33,62,236800,80
41,62,236800,80
45,74,236800,80
33,62,236960,80
41,62,236960,80
45,74,236960,80
33,70,237120,120
41,70,237120,120
45,83,237120,120
29,86,237840,100
30,70,237920,100
32,70,238000,100
30,86,238080,90
32,73,238140,90
30,76,238200,90
32,70,238260,90
30,76,238320,90
32,70,238380,90
30,80,238440,90
32,76,238500,90
30,83,238560,90
32,73,238620,90
30,83,238680,90
32,70,238740,90
30,80,238800,90
32,73,238860,90
30,76,238920,90
32,70,238980,90
30,83,239040,90
32,72,239100,90
30,77,239160,90
32,69,239220,90
30,74,239280,90
32,63,239340,90
30,72,239400,90
32,61,239460,90
30,73,239520,90
32,61,239580,90
30,68,239640,90
32,56,239700,90
29,67,239760,140
30,61,239880,140
29,75,240000,120
46,27,241440,480
50,33,241440,240
53,28,241680,240
46,28,241920,480
50,34,241920,240
53,28,242160,240
46,24,242400,480
48,31,242400,240
53,27,242640,240
46,28,242880,480
50,34,242880,240
53,27,243120,240
46,27,243360,480
51,33,243360,240
53,26,243600,240
52,34,243840,240
46,28,243840,1440
53,26,244080,120
53,26,244320,120
53,26,244560,120
53,26,244800,120
53,26,245040,120
46,27,245280,480
51,33,245280,240
50,27,245520,240
41,26,245760,480
51,31,245760,240
53,25,246000,240
41,26,246240,480
51,29,246240,240
53,25,246480,240
41,26,246720,480
51,29,246720,240
53,26,246960,240
41,27,247200,480
50,33,247200,240
48,25,247440,240
46,28,247680,1440
50,34,247680,240
53,30,247920,240
51,33,248160,240
55,28,248400,240
50,29,248640,240
53,30,248880,240
46,28,249120,480
50,39,249120,240
58,34,249360,240
46,30,249600,1440
55,36,249600,1440
58,32,249840,120
58,33,250080,120
58,30,250320,120
58,34,250560,120
58,31,250800,120
46,27,251040,480
53,33,251040,240
51,31,251280,240
46,27,251520,480
53,33,251520,240
50,28,251760,240
41,27,252000,480
48,33,252000,240
53,28,252240,240
41,27,252480,480
50,33,252480,240
53,30,252720,240
41,27,252960,480
51,32,252960,240
53,29,253200,240
41,27,253440,960
50,32,253440,240
53,29,253680,240
50,32,253920,240
46,29,254160,240
41,32,254400,480
29,27,255120,100
30,22,255200,100
32,22,255280,100
30,27,255360,100
32,23,255420,100
30,24,255480,100
32,22,255540,100
30,24,255600,100
32,22,255660,100
30,25,255720,100
32,24,255780,100
30,26,255840,100
32,23,255900,100
30,26,255960,100
32,22,256020,100
30,25,256080,100
32,23,256140,100
30,24,256200,100
32,22,256260,100
30,26,256320,100
32,23,256380,100
30,25,256440,100
32,23,256500,100
30,25,256560,100
32,22,256620,100
30,25,256680,100
32,22,256740,100
30,27,256800,100
32,23,256860,100
30,26,256920,100
32,22,256980,100
29,22,257040,140
30,18,257160,140
29,23,257280,120
46,27,258720,480
50,33,258720,240
53,28,258960,240
46,28,259200,480
50,34,259200,240
53,28,259440,240
46,24,259680,480
48,31,259680,240
53,27,259920,240
46,28,260160,480
50,34,260160,240
53,27,260400,240
46,27,260640,480
51,33,260640,240
53,26,260880,240
52,34,261120,240
46,28,261120,1440
53,26,261360,120
53,26,261600,120
53,26,261840,120
53,26,262080,120
53,26,262320,120
46,27,262560,480
51,33,262560,240
50,27,262800,240
41,26,263040,480
51,31,263040,240
53,25,263280,240
41,26,263520,480
51,29,263520,240
53,25,263760,240
41,26,264000,480
51,29,264000,240
53,28,264240,240
41,27,264480,480
50,33,264480,240
48,25,264720,240
46,28,264960,1440
50,34,264960,240
53,30,265200,240
51,33,265440,240
55,28,265680,240
50,29,265920,240
53,30,266160,240
44,28,266400,480
50,39,266400,240
53,34,266640,240
43,30,266880,1440
53,36,266880,1440
55,32,267120,120
55,33,267360,120
55,30,267600,120
55,34,267840,120
55,31,268080,120
43,24,268320,240
51,27,268320,240
55,33,268320,240
43,24,268560,240
50,27,268560,240
55,31,268560,240
43,28,268800,480
48,34,268800,240
55,30,269040,240
43,28,269280,480
53,33,269280,240
55,28,269520,240
43,27,269760,480
51,28,269760,240
55,29,270000,240
42,28,270240,480
51,39,270240,240
54,34,270480,240
41,30,270720,1440
51,36,270720,1440
53,32,270960,120
53,33,271200,120
53,30,271440,120
53,34,271680,120
53,31,271920,120
41,24,272160,240
50,27,272160,240
53,33,272160,240
41,24,272400,240
48,27,272400,240
53,31,272400,240
41,28,272640,480
46,34,272640,240
53,30,272880,240
41,26,273120,480
48,31,273120,240
53,26,273360,240
41,28,273600,480
50,29,273600,240
53,27,273840,240
41,25,274080,480
51,35,274080,240
53,30,274320,240
53,32,274560,1200
41,27,274560,960
51,32,274560,960
46,28,275520,240
50,28,275520,240
34,30,276000,240
34,30,276480,90
35,26,276540,90
34,27,276600,90
35,25,276660,90
34,27,276720,90
35,25,276780,90
34,28,276840,90
35,27,276900,90
34,29,276960,90
35,26,277020,90
34,29,277080,90
35,25,277140,90
34,28,277200,90
35,26,277260,90
34,27,277320,90
35,25,277380,90
34,29,277440,90
35,26,277500,90
34,28,277560,90
35,26,277620,90
34,28,277680,90
35,25,277740,90
34,28,277800,90
35,25,277860,90
34,30,277920,140
33,26,278040,140
32,30,278160,140
31,26,278280,140
30,30,278400,120
49,26,278520,120
54,26,278640,120
49,26,278760,120
42,31,278880,120
49,26,279000,120
53,26,279120,120
49,25,279240,120
42,30,279360,120
49,27,279480,120
54,27,279600,120
49,27,279720,120
42,30,279840,120
49,27,279960,120
56,27,280080,120
49,27,280200,120
42,33,280320,120
49,27,280440,120
58,27,280560,120
49,27,280680,120
42,31,280800,120
49,27,280920,120
58,27,281040,120
49,27,281160,120
42,30,281280,120
49,27,281400,120
58,27,281520,120
49,27,281640,120
42,31,281760,120
49,25,281880,120
54,28,282000,120
49,27,282120,120
42,33,282240,120
51,27,282360,120
59,27,282480,120
51,27,282600,120
42,32,282720,120
51,27,282840,120
59,27,282960,120
51,27,283080,120
42,32,283200,120
51,27,283320,120
59,27,283440,120
51,27,283560,120
42,33,283680,120
51,27,283800,120
59,31,283920,120
51,27,284040,120
42,33,284160,120
49,28,284280,120
58,28,284400,120
49,28,284520,120
42,33,284640,120
49,27,284760,120
58,28,284880,120
49,27,285000,120
42,33,285120,120
49,28,285240,120
58,29,285360,120
49,29,285480,120
42,33,285600,120
49,27,285720,120
54,31,285840,120
49,27,285960,120
42,33,286080,120
51,28,286200,120
59,28,286320,120
51,28,286440,120
42,33,286560,120
51,29,286680,120
59,29,286800,120
51,29,286920,120
42,33,287040,120
49,28,287160,120
53,28,287280,120
49,27,287400,120
42,31,287520,120
49,27,287640,120
56,28,287760,120
49,28,287880,120
42,33,288000,120
49,28,288120,120
58,28,288240,120
49,28,288360,120
42,33,288480,120
49,27,288600,120
58,28,288720,120
49,27,288840,120
42,33,288960,120
49,28,289080,120
58,29,289200,120
49,29,289320,120
42,33,289440,120
49,27,289560,120
58,31,289680,120
49,27,289800,120
42,33,289920,120
51,28,290040,120
54,28,290160,120
51,28,290280,120
42,33,290400,120
51,29,290520,120
59,29,290640,120
51,29,290760,120
42,33,290880,120
49,28,291000,120
53,28,291120,120
49,27,291240,120
42,31,291360,120
49,27,291480,120
56,28,291600,120
49,28,291720,120
42,33,291840,60
58,28,291960,120
54,28,292080,120
58,28,292200,120
54,33,292320,120
58,29,292440,120
54,29,292560,120
58,29,292680,120
42,33,292800,60
58,28,292920,120
54,28,293040,120
58,27,293160,120
54,31,293280,120
58,27,293400,120
54,28,293520,120
58,28,293640,120
42,33,293760,60
59,28,293880,120
54,28,294000,120
59,28,294120,120
54,33,294240,120
59,29,294360,120
54,29,294480,120
59,29,294600,120
42,33,294720,60
59,28,294840,120
54,28,294960,120
59,27,295080,120
54,31,295200,120
59,27,295320,120
54,28,295440,120
59,28,295560,120
42,33,295680,60
58,28,295800,120
54,28,295920,120
58,28,296040,120
54,33,296160,120
58,29,296280,120
54,29,296400,120
58,29,296520,120
42,33,296640,60
58,28,296760,120
54,28,296880,120
58,27,297000,120
54,31,297120,120
58,27,297240,120
54,28,297360,120
58,28,297480,120
42,33,297600,60
59,28,297720,120
54,28,297840,120
59,28,297960,120
54,33,298080,120
59,29,298200,120
54,29,298320,120
59,29,298440,120
42,33,298560,60
59,28,298680,120
54,28,298800,120
59,27,298920,120
54,31,299040,120
59,27,299160,120
54,28,299280,120
59,28,299400,120
42,33,299520,60
58,28,299640,120
54,28,299760,120
58,28,299880,120
54,33,300000,120
58,29,300120,120
54,29,300240,120
58,29,300360,120
54,33,300480,120
58,28,300600,120
54,28,300720,120
58,27,300840,120
54,31,300960,120
58,27,301080,120
54,28,301200,120
58,28,301320,120
42,33,301440,60
58,28,301560,120
54,28,301680,120
58,28,301800,120
54,33,301920,120
58,29,302040,120
54,29,302160,120
58,29,302280,120
54,33,302400,120
58,28,302520,120
54,28,302640,120
58,27,302760,120
54,31,302880,120
58,27,303000,120
54,28,303120,120
58,28,303240,120
54,33,303360,120
58,28,303480,120
54,28,303600,120
58,28,303720,120
54,33,303840,120
58,29,303960,120
54,29,304080,120
58,30,304200,120
54,34,304320,120
58,29,304440,120
54,29,304560,120
58,28,304680,120
54,33,304800,120
58,29,304920,120
54,30,305040,120
58,30,305160,120
42,34,305280,160
54,31,305440,152
54,31,305600,152
42,25,305600,152
42,29,305760,152
54,35,305760,152
42,25,305920,152
54,31,305920,152
42,27,306080,152
54,33,306080,152
42,31,306240,152
54,37,306240,152
42,29,306400,152
54,35,306400,152
42,29,306560,152
54,35,306560,152
49,32,306720,152
42,32,306720,152
54,38,306720,152
49,32,306880,152
42,28,306880,152
54,35,306880,152
49,33,307040,152
42,29,307040,152
54,35,307040,152
49,33,307200,152
42,33,307200,152
54,40,307200,152
49,34,307360,152
42,30,307360,152
54,36,307360,152
49,35,307520,152
42,30,307520,152
54,37,307520,152
49,36,307680,152
42,36,307680,152
54,44,307680,152
49,37,307840,152
42,33,307840,152
54,40,307840,152
49,39,308000,152
42,34,308000,152
54,42,308000,152
49,40,308160,152
42,40,308160,152
54,48,308160,152
49,41,308320,152
42,37,308320,152
54,44,308320,152
49,43,308480,152
42,37,308480,152
54,46,308480,152
53,57,308640,152
41,48,308640,152
50,48,308640,152
53,52,308800,152
41,42,308800,152
50,48,308800,152
53,52,308960,152
41,42,308960,152
50,48,308960,152
50,63,309120,160
41,63,309120,480
53,58,309280,160
53,58,309440,80
48,62,309600,160
41,62,309600,480
53,58,309760,160
53,58,309920,80
50,60,310080,160
41,60,310080,480
53,58,310240,160
53,58,310400,80
51,61,310560,160
41,61,310560,480
53,58,310720,160
53,58,310880,80
52,60,311040,160
41,60,311040,1440
53,58,311200,160
53,58,311360,80
53,60,311520,160
53,58,311680,160
53,58,311840,80
53,62,312000,152
53,58,312160,152
53,58,312320,152
51,61,312480,160
41,53,312480,480
53,53,312640,160
50,53,312800,160
51,60,312960,160
41,60,312960,480
53,55,313120,152
53,55,313280,152
51,60,313440,160
41,60,313440,480
53,56,313600,152
53,56,313760,152
51,62,313920,160
41,62,313920,480
53,58,314080,152
53,58,314240,152
50,62,314400,160
41,62,314400,480
53,59,314560,160
48,59,314720,160
50,62,314880,160
46,62,314880,1440
53,56,315040,159
53,56,315200,159
51,60,315360,160
55,56,315520,159
55,56,315680,159
50,60,315840,160
53,56,316000,159
53,57,316160,159
50,59,316320,160
44,59,316320,480
53,54,316480,159
53,54,316640,159
53,59,316800,160
43,59,316800,1440
55,53,316960,159
55,53,317120,159
53,56,317280,160
55,53,317440,159
55,53,317600,159
53,57,317760,160
55,51,317920,159
55,51,318080,160
51,56,318240,160
43,56,318240,480
55,51,318400,160
50,51,318560,160
48,54,318720,160
43,54,318720,480
55,50,318880,159
55,50,319040,159
53,54,319200,160
43,54,319200,480
55,50,319360,159
55,50,319520,159
51,55,319680,160
43,55,319680,480
55,50,319840,159
55,50,320000,159
51,57,320160,160
42,57,320160,480
54,52,320320,159
54,52,320480,159
51,58,320640,160
41,58,320640,1440
53,52,320800,152
53,52,320960,152
51,56,321120,160
53,52,321280,152
53,53,321440,152
51,57,321600,160
53,52,321760,152
53,52,321920,152
50,57,322080,160
41,57,322080,480
53,54,322240,160
48,51,322400,160
46,58,322560,160
41,58,322560,480
53,53,322720,152
53,53,322880,152
48,58,323040,160
41,58,323040,480
53,52,323200,152
53,52,323360,152
50,56,323520,160
41,56,323520,480
53,52,323680,152
53,52,323840,152
51,56,324000,160
41,56,324000,480
53,52,324160,152
53,52,324320,152
41,51,324480,960
51,51,324480,960
53,50,324640,152
53,50,324800,152
53,50,324960,152
53,50,325120,152
53,49,325280,152
53,49,325440,152
53,49,325600,152
53,49,325760,152
53,48,325920,152
53,48,326080,152
53,48,326240,152
41,45,326400,1920
50,48,326400,1920
53,42,326560,160
53,39,326720,152
53,38,326880,152
53,38,327040,152
53,37,327200,152
53,37,327360,152
53,36,327520,152
53,35,327680,152
53,36,327840,152
53,40,328000,152
53,44,328160,152
53,50,328320,160
44,42,328480,152
44,42,328640,152
44,42,328800,152
44,42,328960,152
44,42,329120,152
44,42,329280,152
44,42,329440,152
44,42,329600,152
44,42,329760,152
44,42,329920,152
44,42,330080,152
44,46,330240,160
37,46,330400,152
37,46,330560,152
37,53,330720,152
37,53,330880,152
37,53,331040,152
37,53,331200,152
37,52,331360,152
37,52,331520,152
37,65,331680,120
35,59,331800,120
33,61,331920,120
32,59,332040,120
30,65,332160,120
54,42,333600,480
61,42,333600,480
54,42,334080,1200
61,42,334080,720
59,38,334800,240
57,41,335040,240
54,38,335520,480
57,38,335520,480
54,41,336000,960
57,41,336000,720
56,41,336720,240
54,44,336960,240
54,34,337440,480
54,41,337920,480
56,42,338400,480
57,47,338880,480
52,31,339360,480
59,37,339360,480
57,39,339840,480
61,47,339840,480
56,38,340320,480
61,45,340320,480
54,38,340800,480
61,46,340800,480
52,33,341280,480
62,39,341280,480
52,33,341760,960
62,39,341760,960
53,30,342720,480
61,37,342720,480
54,30,343200,480
61,36,343200,480
54,32,343680,1200
61,42,343680,720
59,38,344400,240
57,41,344640,240
54,32,345120,480
57,38,345120,480
54,34,345600,960
57,41,345600,720
56,41,346320,240
54,44,346560,240
54,34,347040,480
54,41,347520,480
56,42,348000,480
57,47,348480,480
52,31,348960,480
59,37,348960,480
57,39,349440,480
61,47,349440,480
56,38,349920,480
61,45,349920,480
54,38,350400,480
61,46,350400,480
52,33,350880,480
62,39,350880,480
52,33,351360,960
62,39,351360,960
57,37,352320,160
61,37,352320,160
64,29,352480,152
64,29,352640,152
64,33,352800,152
64,29,352960,152
64,29,353120,152
58,33,353280,120
64,27,353400,120
61,27,353520,120
64,27,353640,120
58,33,353760,120
64,28,353880,120
61,28,354000,120
64,29,354120,120
58,33,354240,120
64,29,354360,120
61,29,354480,120
64,29,354600,120
57,33,354720,120
64,29,354840,120
61,29,354960,120
64,29,355080,120
55,33,355200,120
64,27,355320,120
61,27,355440,120
64,27,355560,120
55,33,355680,120
64,28,355800,120
61,28,355920,120
64,29,356040,120
55,33,356160,120
64,29,356280,120
61,29,356400,120
64,29,356520,120
54,33,356640,120
64,29,356760,120
61,29,356880,120
64,29,357000,120
54,33,357120,120
64,28,357240,120
61,28,357360,120
64,28,357480,120
54,34,357600,120
62,28,357720,120
59,28,357840,120
62,29,357960,120
54,35,358080,120
61,29,358200,120
58,29,358320,120
61,29,358440,120
54,36,358560,120
62,31,358680,120
59,31,358800,120
62,31,358920,120
54,37,359040,120
64,31,359160,120
61,32,359280,120
64,32,359400,120
55,37,359520,120
64,31,359640,120
61,31,359760,120
64,31,359880,120
56,38,360000,120
64,32,360120,120
61,32,360240,120
64,33,360360,120
57,39,360480,120
64,32,360600,120
61,34,360720,120
64,34,360840,120
57,33,360960,120
64,27,361080,120
61,27,361200,120
64,27,361320,120
58,33,361440,120
64,28,361560,120
61,28,361680,120
64,29,361800,120
58,33,361920,120
64,29,362040,120
61,29,362160,120
64,29,362280,120
57,33,362400,120
64,29,362520,120
61,29,362640,120
64,29,362760,120
55,33,362880,120
64,27,363000,120
61,27,363120,120
64,27,363240,120
55,33,363360,120
64,28,363480,120
61,28,363600,120
64,29,363720,120
55,33,363840,120
64,29,363960,120
61,29,364080,120
64,31,364200,120
54,36,364320,120
64,31,364440,120
61,31,364560,120
64,31,364680,120
54,36,364800,120
64,30,364920,120
61,30,365040,120
64,30,365160,120
54,37,365280,120
62,30,365400,120
59,30,365520,120
62,31,365640,120
54,38,365760,120
61,31,365880,120
58,31,366000,120
61,31,366120,120
54,39,366240,120
62,34,366360,120
59,34,366480,120
62,34,366600,120
54,40,366720,120
64,34,366840,120
61,35,366960,120
64,35,367080,120
55,40,367200,120
64,34,367320,120
61,34,367440,120
64,34,367560,120
56,41,367680,120
64,35,367800,120
61,35,367920,120
64,36,368040,120
57,42,368160,120
64,35,368280,120
61,37,368400,120
64,37,368520,120
57,36,368640,120
64,29,368760,120
61,29,368880,120
64,29,369000,120
58,36,369120,120
64,30,369240,120
61,30,369360,120
64,31,369480,120
57,36,369600,120
64,31,369720,120
61,31,369840,120
64,31,369960,120
55,36,370080,120
64,31,370200,120
61,31,370320,120
64,31,370440,120
53,36,370560,120
62,29,370680,120
57,29,370800,120
62,29,370920,120
52,36,371040,120
62,30,371160,120
55,30,371280,120
62,31,371400,120
50,36,371520,120
62,31,371640,120
53,31,371760,120
62,31,371880,120
53,36,372000,120
62,31,372120,120
57,31,372240,120
62,31,372360,120
57,36,372480,120
64,29,372600,120
61,29,372720,120
64,29,372840,120
58,36,372960,120
64,30,373080,120
61,30,373200,120
64,31,373320,120
57,36,373440,120
64,31,373560,120
61,31,373680,120
64,31,373800,120
55,37,373920,120
64,32,374040,120
61,32,374160,120
64,32,374280,120
53,37,374400,120
65,31,374520,120
62,32,374640,120
65,32,374760,120
53,39,374880,120
65,34,375000,120
62,34,375120,120
65,35,375240,120
53,42,375360,120
65,37,375480,120
62,37,375600,120
65,37,375720,120
53,44,375840,120
67,39,375960,120
63,40,376080,120
67,40,376200,120
53,48,376320,120
65,38,376440,120
62,38,376560,120
65,38,376680,120
53,47,376800,120
63,39,376920,120
60,39,377040,120
63,39,377160,120
53,42,377280,120
62,36,377400,120
58,36,377520,120
62,37,377640,120
53,42,377760,120
60,35,377880,120
56,35,378000,120
60,35,378120,120
53,35,378240,120
59,29,378360,120
56,29,378480,120
59,29,378600,120
53,34,378720,120
59,29,378840,120
56,29,378960,120
59,29,379080,120
53,33,379200,120
59,29,379320,120
56,29,379440,120
59,29,379560,120
53,33,379680,120
59,29,379800,120
56,29,379920,120
59,29,380040,120
53,31,380160,120
59,27,380280,120
56,27,380400,120
59,27,380520,120
53,32,380640,120
59,27,380760,120
56,27,380880,120
59,27,381000,120
52,32,381120,120
59,26,381240,120
56,26,381360,120
59,26,381480,120
50,31,381600,120
59,26,381720,120
56,26,381840,120
59,26,381960,120
48,31,382080,120
60,24,382200,120
57,24,382320,120
60,24,382440,120
48,30,382560,120
62,25,382680,120
58,25,382800,120
62,26,382920,120
48,29,383040,120
60,26,383160,120
57,26,383280,120
60,26,383400,120
48,30,383520,120
62,26,383640,120
58,26,383760,120
62,26,383880,120
48,31,384000,120
60,24,384120,120
57,24,384240,120
60,24,384360,120
48,30,384480,120
62,25,384600,120
58,25,384720,120
62,26,384840,120
48,29,384960,120
60,26,385080,120
57,26,385200,120
60,26,385320,120
48,30,385440,120
62,26,385560,120
58,26,385680,120
62,26,385800,120
48,31,385920,120
60,24,386040,120
57,24,386160,120
60,24,386280,120
48,30,386400,120
62,26,386520,120
58,26,386640,120
62,27,386760,120
48,30,386880,120
60,27,387000,120
57,28,387120,120
60,28,387240,120
48,33,387360,120
62,28,387480,120
58,28,387600,120
62,28,387720,120
48,34,387840,120
60,26,387960,120
57,26,388080,120
60,26,388200,120
48,33,388320,120
62,27,388440,120
58,27,388560,120
62,28,388680,120
48,31,388800,120
60,28,388920,120
57,28,389040,120
60,28,389160,120
48,36,389280,120
62,30,389400,120
58,30,389520,120
62,30,389640,120
48,42,389760,120
60,35,389880,120
57,35,390000,120
60,35,390120,120
48,44,390240,120
62,37,390360,120
58,38,390480,120
62,37,390600,120
48,47,390720,120
60,37,390840,120
57,38,390960,120
60,38,391080,120
48,49,391200,120
60,40,391320,120
58,40,391440,120
60,40,391560,120
48,41,391680,1920
60,49,391680,1920
58,41,391680,1920
53,32,393600,480
57,32,393600,480
60,38,393600,480
53,29,394560,240
57,29,394560,240
60,35,394560,240
53,29,395040,240
60,29,395040,240
63,35,395040,240
53,32,395520,480
58,32,395520,480
62,38,395520,480
53,29,396480,240
58,29,396480,240
62,35,396480,240
53,29,396960,240
62,29,396960,240
65,35,396960,240
53,32,397440,480
57,32,397440,480
60,38,397440,480
53,29,398400,240
57,35,398400,240
57,29,398880,240
60,35,398880,240
48,29,399360,240
57,29,399360,240
60,35,399360,240
48,28,399840,240
62,34,399840,240
58,28,399840,240
48,28,400320,240
57,28,400320,240
60,33,400320,240
48,28,400800,240
55,28,400800,240
58,34,400800,240
48,29,401280,240
54,29,401280,240
57,35,401280,240
48,28,401760,240
57,35,401760,240
54,28,401760,240
48,29,402240,240
54,29,402240,240
57,35,402240,240
48,31,402720,240
54,31,402720,240
57,37,402720,240
46,33,403200,240
53,33,403200,240
58,40,403200,240
46,31,403680,240
58,38,403680,240
53,31,403680,240
48,31,404160,240
53,31,404160,240
57,37,404160,240
48,31,404640,240
55,31,404640,240
58,38,404640,240
53,47,405120,160
60,44,405280,160
57,44,405440,80
53,47,405600,80
48,43,405760,80
45,41,405920,80
41,45,406080,80
45,41,406240,80
48,41,406400,80
45,47,406560,80
48,45,406720,80
53,45,406880,80
53,47,407040,160
62,44,407200,160
58,44,407360,80
53,47,407520,80
50,43,407680,80
46,41,407840,80
41,45,408000,80
46,41,408160,80
50,41,408320,80
46,47,408480,80
50,45,408640,80
53,45,408800,80
53,47,408960,160
65,44,409120,160
60,44,409280,80
57,47,409440,80
53,43,409600,80
48,41,409760,80
45,45,409920,80
41,41,410080,80
36,41,410240,80
41,47,410400,80
45,45,410560,80
48,45,410720,80
48,29,410880,240
57,29,410880,240
60,35,410880,240
60,28,411360,240
74,34,411360,240
70,28,411360,240
60,28,411840,240
69,28,411840,240
72,33,411840,240
60,28,412320,240
67,28,412320,240
70,34,412320,240
60,29,412800,240
66,29,412800,240
69,35,412800,240
60,28,413280,240
69,35,413280,240
66,28,413280,240
60,29,413760,240
66,29,413760,240
69,35,413760,240
60,31,414240,240
66,31,414240,240
69,37,414240,240
58,33,414720,240
65,33,414720,240
70,40,414720,240
58,31,415200,240
70,38,415200,240
65,31,415200,240
60,31,415680,240
65,31,415680,240
69,37,415680,240
60,31,416160,240
67,31,416160,240
70,38,416160,240
46,26,416640,240
51,26,416640,240
55,31,416640,240
46,25,417120,240
55,31,417120,240
51,25,417120,240
46,26,417600,240
51,26,417600,240
55,31,417600,240
46,27,418080,240
51,27,418080,240
55,33,418080,240
44,29,418560,240
51,29,418560,240
56,36,418560,240
44,27,419040,240
56,34,419040,240
51,27,419040,240
46,27,419520,240
51,27,419520,240
55,33,419520,240
46,27,420000,240
53,27,420000,240
56,34,420000,240
66,31,421440,240
63,33,421920,240
68,33,422400,240
68,31,422880,240
44,29,423840,240
44,29,424320,240
45,26,425280,240
45,26,425760,240
57,26,426720,240
58,27,427200,240
46,30,427680,240
48,33,428160,240
48,35,428640,240
58,41,429120,240
55,35,429120,240
48,35,429120,240
48,36,429600,240
55,36,429600,240
58,42,429600,240
41,36,430080,120
53,42,430080,120
57,36,431040,720
60,44,431040,960
55,30,431760,240
58,36,431760,240
53,36,432000,480
57,44,432000,480
51,38,432480,480
57,45,432480,480
50,40,432960,480
57,48,432960,480
43,37,433440,480
50,37,433440,480
55,44,433440,480
48,41,433920,960
58,49,433920,960
53,32,434880,120
57,38,434880,120
53,28,435360,120
57,34,435360,120
45,35,436800,720
48,42,436800,237
43,30,437520,240
46,36,437520,240
41,36,437760,480
45,44,437760,480
39,38,438240,480
45,45,438240,480
38,40,438720,480
45,48,438720,480
31,40,439200,240
38,40,439200,240
43,48,439200,240
53,45,440160,480
58,53,440160,480
51,49,440640,480
58,59,440640,480
44,50,441120,240
51,50,441120,240
56,60,441120,240
40,70,442080,480
47,70,442080,480
52,84,442080,480
33,70,442560,240
40,70,442560,240
45,84,442560,240
65,49,443520,960
75,58,443520,960
70,38,444480,120
74,45,444480,120
70,33,444960,120
74,40,444960,120
70,38,445440,1440
74,45,445440,1440
48,33,449280,960
58,39,449280,960
53,30,450240,120
57,36,450240,120
53,24,450720,120
57,32,450720,120
53,30,451200,1440
60,36,451200,1440
65,49,453120,960
75,58,453120,960
70,38,454080,120
74,45,454080,120
70,39,454560,120
74,48,454560,120
48,29,460800,960
58,35,460800,960
53,27,461760,120
57,32,461760,120
53,21,462240,120
57,28,462240,120
53,27,462720,1440
60,32,462720,1440
52,24,464640,120
56,24,464640,120
61,28,464640,120
52,18,465120,120
56,18,465120,120
61,25,465120,120
49,24,465600,480
56,24,465600,480
61,28,465600,480
49,34,466080,240
56,29,466320,240
49,33,466560,240
56,28,466800,240
48,33,467040,240
56,28,467280,240
49,33,467520,240
56,28,467760,240
51,34,468000,240
56,28,468240,240
52,33,468480,240
56,27,468720,240
61,30,468960,240
56,27,469200,240
52,33,469440,240
56,28,469680,240
51,34,469920,240
56,29,470160,240
52,33,470400,240
56,28,470640,240
61,31,470880,240
56,28,471120,240
53,31,471360,240
56,25,471600,240
53,34,471840,240
61,28,472080,240
54,37,472320,240
61,27,472560,240
54,31,472800,240
62,27,473040,240
54,31,473280,240
61,25,473520,240
54,34,473760,240
60,29,474000,240
54,33,474240,240
61,28,474480,240
53,33,474720,240
61,28,474960,240
54,33,475200,240
61,28,475440,240
56,34,475680,240
61,28,475920,240
57,33,476160,240
61,27,476400,240
66,31,476640,240
61,27,476880,240
57,33,477120,240
61,28,477360,240
56,34,477600,240
61,29,477840,240
57,33,478080,240
61,28,478320,240
66,33,478560,240
61,28,478800,240
58,35,479040,240
61,29,479280,240
58,35,479520,240
66,28,479760,240
59,37,480000,240
66,40,480240,240
59,33,480480,240
67,39,480720,240
59,33,480960,240
66,36,481200,240
59,33,481440,240
65,29,481680,240
57,35,481920,240
66,31,482160,240
56,33,482400,240
65,30,482640,240
54,33,482880,240
66,30,483120,240
51,33,483360,240
60,29,483600,240
52,36,483840,240
61,30,484080,240
48,33,484320,240
57,29,484560,240
49,33,484800,240
56,29,485040,240
52,33,485280,240
56,30,485520,240
54,33,485760,240
57,30,486000,240
54,34,486240,240
57,30,486480,240
44,35,486720,240
52,35,486720,240
56,31,486960,240
44,35,487200,240
51,35,487200,240
56,33,487440,240
42,39,487680,240
50,39,487680,240
57,29,487920,240
54,35,488160,240
57,31,488400,240
54,36,488640,240
57,33,488880,240
50,31,489120,240
57,27,489360,240
52,33,489600,240
56,28,489840,240
54,33,490080,240
56,28,490320,240
44,33,490560,240
52,33,490560,240
56,28,490800,240
44,33,491040,240
54,33,491040,240
56,29,491280,240
45,32,491520,960
52,32,491520,960
57,38,491520,960
49,35,492480,240
52,35,492960,240
45,32,493440,960
52,32,493440,960
57,38,493440,960
49,35,494400,240
52,35,494880,240
45,35,495360,240
52,28,495840,1440
61,33,495840,480
59,35,496320,480
62,32,496800,480
45,35,497280,240
52,28,497760,1440
61,33,497760,480
59,35,498240,480
62,32,498720,480
45,38,499200,960
52,38,499200,960
57,45,499200,960
49,37,500160,240
52,37,500640,240
46,37,501120,240
49,37,501600,240
43,42,502080,240
51,37,502560,240
44,32,503040,960
51,32,503040,960
56,38,503040,960
47,35,504000,240
51,35,504480,240
44,32,504960,960
51,32,504960,960
56,38,504960,960
47,35,505920,240
51,35,506400,240
44,36,506880,240
47,40,507360,240
41,44,507840,240
42,48,508320,240
35,47,508800,960
42,47,508800,960
47,56,508800,960
39,35,509760,240
42,35,510240,240
35,47,510720,960
42,47,510720,960
47,56,510720,960
39,35,511680,240
42,35,512160,240
35,35,512640,240
54,28,513120,1440
63,33,513120,480
61,35,513600,480
64,32,514080,480
47,35,514560,240
54,28,515040,1440
63,33,515040,480
61,35,515520,480
64,32,516000,480
47,45,516480,960
54,45,516480,960
59,53,516480,960
51,42,517440,240
54,42,517920,240
48,50,518400,240
51,41,518880,240
45,50,519360,240
53,40,519840,240
46,32,520320,960
53,32,520320,960
58,38,520320,960
49,35,521280,240
53,35,521760,240
46,32,522240,960
53,32,522240,960
58,38,522240,960
49,35,523200,240
53,35,523680,240
46,39,524160,240
49,47,524640,240
43,53,525120,240
44,58,525600,240
37,58,526080,1440
44,58,526080,1440
49,70,526080,1440
56,50,527520,160
53,44,527680,160
49,37,527840,160
37,36,528000,228
37,30,528240,228
37,31,528480,228
37,31,528720,228
37,30,528960,228
37,30,529200,228
37,29,529440,228
37,29,529680,228
37,26,529920,228
37,26,530160,228
37,26,530400,228
37,26,530640,228
37,26,530880,228
37,26,531120,228
37,26,531360,228
37,26,531600,228
37,26,531840,228
37,26,532080,228
37,26,532320,228
37,26,532560,228
37,26,532800,228
37,26,533040,228
37,26,533280,228
37,26,533520,228
37,26,533760,228
37,26,534000,228
39,26,534240,480
37,26,534240,228
37,26,534480,228
44,26,534720,480
37,26,534720,228
37,26,534960,228
45,26,535200,480
37,26,535200,228
37,26,535440,228
44,31,535680,160
37,26,535680,1440
43,28,535840,160
44,28,536000,160
45,31,536160,160
44,27,536320,160
43,27,536480,160
44,32,536640,160
41,28,536800,160
40,28,536960,160
41,32,537120,160
37,27,537280,160
38,28,537440,160
37,26,537600,228
37,26,537840,228
37,26,538080,228
37,26,538320,228
37,26,538560,228
37,26,538800,228
37,26,539040,228
37,26,539280,228
36,26,539520,228
36,26,539760,228
36,26,540000,228
36,26,540240,228
36,26,540480,228
36,26,540720,228
36,26,540960,228
36,26,541200,228
35,26,541440,228
35,26,541680,228
42,26,541920,480
35,26,541920,228
35,26,542160,228
47,26,542400,480
35,26,542400,228
35,26,542640,228
48,26,542880,480
35,26,542880,228
35,26,543120,228
47,31,543360,160
40,26,543360,1440
46,28,543520,160
47,28,543680,160
48,31,543840,160
47,27,544000,160
46,27,544160,160
47,32,544320,160
44,28,544480,160
43,28,544640,160
44,32,544800,160
40,27,544960,160
41,28,545120,160
40,38,545280,960
44,37,546240,240
47,37,546720,240
40,38,547200,960
45,37,548160,240
48,37,548640,240
50,41,549120,240
48,42,549360,228
48,44,549600,240
47,46,549840,228
47,47,550080,240
45,49,550320,228
45,51,550560,240
43,53,550800,228
43,53,551040,240
41,52,551280,228
41,50,551520,240
40,48,551760,228
40,47,552000,240
38,45,552240,228
38,44,552480,240
36,42,552720,228
36,44,552960,960
48,44,552960,960
52,44,553920,240
55,45,554400,240
48,49,554880,960
53,50,555840,240
56,50,556320,240
58,59,556800,240
56,60,557040,228
56,62,557280,240
55,64,557520,228
55,68,557760,240
53,70,558000,228
53,72,558240,240
51,75,558480,228
51,75,558720,240
49,73,558960,228
49,71,559200,240
47,69,559440,228
47,68,559680,240
46,63,559920,228
44,62,560160,240
59,60,560400,228
61,72,560640,240
59,63,560880,228
59,70,561120,240
58,63,561360,228
58,70,561600,240
56,64,561840,228
56,70,562080,240
54,64,562320,228
54,72,562560,240
52,64,562800,228
52,73,563040,240
50,67,563280,228
50,73,563520,240
49,67,563760,240
47,72,564000,240
62,66,564240,240
50,55,564240,240
64,72,564480,240
52,72,564480,240
62,63,564720,228
50,53,564720,228
62,72,564960,240
50,61,564960,240
61,64,565200,228
49,53,565200,228
61,73,565440,240
49,61,565440,240
59,68,565680,228
47,57,565680,228
59,75,565920,240
47,63,565920,240
57,69,566160,228
45,58,566160,228
57,79,566400,240
45,67,566400,240
55,69,566640,228
43,58,566640,228
55,79,566880,240
43,67,566880,240
53,70,567120,228
41,60,567120,228
53,80,567360,240
41,67,567360,240
52,74,567600,228
40,62,567600,228
52,82,567840,240
40,69,567840,240
50,75,568080,228
38,63,568080,228
38,86,568320,480
50,75,568560,240
45,63,568560,240
38,84,568800,480
52,75,569040,240
45,63,569040,240
38,84,569280,480
50,77,569520,240
45,64,569520,240
38,84,569760,480
52,77,570000,240
45,64,570000,240
38,86,570240,480
50,77,570480,240
45,64,570480,240
38,85,570720,480
52,78,570960,240
45,66,570960,240
38,88,571200,480
50,81,571440,240
45,68,571440,240
38,89,571680,480
52,82,571920,240
45,69,571920,240
38,77,572160,240
45,77,572160,240
50,91,572160,240
69,29,572400,228
65,24,572400,228
62,20,572400,228
69,30,572640,228
65,25,572640,228
62,21,572640,228
69,30,572880,228
65,25,572880,228
62,21,572880,228
69,29,573120,228
65,24,573120,228
62,20,573120,228
69,29,573360,228
65,24,573360,228
62,20,573360,228
69,27,573600,228
65,23,573600,228
62,19,573600,228
69,27,573840,228
65,23,573840,228
62,19,573840,228
69,28,574080,228
65,24,574080,228
62,20,574080,228
69,25,574320,228
65,21,574320,228
62,17,574320,228
69,25,574560,228
65,21,574560,228
62,17,574560,228
69,25,574800,228
65,21,574800,228
62,17,574800,228
69,25,575040,228
65,21,575040,228
62,17,575040,228
69,25,575280,228
65,21,575280,228
62,17,575280,228
69,25,575520,228
65,21,575520,228
62,17,575520,228
69,25,575760,224
65,21,575760,228
62,17,575760,228
61,20,576000,228
65,24,576000,228
61,17,576240,228
65,21,576240,228
61,17,576480,228
65,21,576480,228
61,17,576720,228
65,21,576720,228
61,17,576960,228
65,21,576960,228
69,25,576960,228
61,17,577200,228
65,21,577200,228
69,25,577200,228
61,17,577440,228
65,21,577440,228
69,25,577440,228
61,17,577680,228
65,21,577680,228
69,25,577680,228
65,24,577920,228
62,20,577920,228
69,28,577920,228
65,21,578160,228
62,17,578160,228
69,25,578160,228
65,21,578400,228
62,17,578400,228
69,25,578400,228
62,17,578640,228
69,25,578640,228
65,21,578640,228
69,25,578880,228
65,21,578880,228
62,17,578880,228
69,25,579120,228
65,21,579120,228
62,17,579120,228
69,26,579360,228
65,21,579360,228
61,17,579360,228
69,27,579600,228
65,22,579600,228
61,18,579600,228
60,23,579840,228
65,28,579840,228
69,34,579840,228
60,23,580080,228
65,28,580080,228
69,34,580080,228
60,22,580320,228
65,27,580320,228
69,33,580320,228
60,22,580560,228
65,27,580560,228
69,33,580560,228
60,22,580800,228
65,26,580800,228
69,31,580800,228
60,22,581040,228
65,26,581040,228
69,31,581040,228
61,21,581280,228
65,25,581280,228
69,30,581280,228
61,21,581520,228
65,25,581520,228
69,30,581520,228
62,26,581760,228
65,31,581760,228
69,31,581760,228
62,26,582000,228
65,31,582000,228
69,31,582000,228
65,26,582240,228
69,31,582240,228
65,26,582480,228
69,31,582480,228
69,31,582720,228
69,31,582960,228
60,26,583200,228
64,31,583200,228
70,31,583200,228
60,26,583440,228
64,31,583440,228
70,31,583440,228
50,56,585600,960
53,48,586560,240
57,48,587040,240
45,56,587520,960
53,47,588480,240
57,47,588960,240
50,56,589440,960
53,48,590400,240
57,48,590880,240
60,52,591360,240
57,45,591600,228
57,48,591840,240
55,44,592080,228
55,46,592320,240
53,43,592560,228
53,44,592800,240
52,41,593040,228
52,44,593280,240
53,40,593520,228
53,44,593760,240
50,41,594000,228
50,44,594240,240
48,40,594480,228
50,44,594720,240
48,40,594960,228
50,44,595200,480
40,27,597060,60
38,27,597120,90
40,23,597180,90
38,24,597240,90
40,22,597300,90
38,24,597360,90
40,22,597420,90
38,25,597480,90
40,24,597540,90
38,26,597600,90
40,23,597660,90
38,26,597720,90
40,22,597780,90
38,25,597840,90
40,23,597900,90
38,24,597960,90
40,22,598020,90
38,26,598080,90
40,23,598140,90
38,25,598200,90
40,23,598260,90
38,25,598320,90
40,22,598380,90
38,25,598440,90
40,22,598500,90
38,27,598560,90
40,23,598620,90
38,26,598680,90
40,22,598740,90
37,28,598800,100
38,31,598880,100
40,32,598960,100
38,34,599040,120
69,27,600000,228
65,23,600000,228
62,19,600000,228
69,27,600240,228
65,23,600240,228
62,19,600240,228
69,24,600480,228
65,20,600480,228
62,17,600480,228
69,24,600720,228
65,20,600720,228
62,17,600720,228
69,24,600960,228
65,20,600960,228
62,17,600960,228
69,24,601200,228
65,20,601200,228
62,17,601200,228
69,24,601440,228
65,20,601440,228
62,17,601440,228
69,24,601680,228
65,20,601680,228
62,17,601680,228
69,24,601920,228
65,20,601920,228
62,17,601920,228
69,24,602160,228
65,20,602160,228
62,17,602160,228
69,24,602400,228
65,20,602400,228
62,17,602400,228
69,24,602640,228
65,20,602640,228
62,17,602640,228
69,24,602880,228
65,20,602880,228
62,17,602880,228
69,24,603120,228
65,20,603120,228
62,17,603120,228
69,25,603360,228
65,21,603360,228
61,17,603360,228
69,25,603600,228
65,21,603600,228
61,17,603600,228
69,25,603840,228
65,21,603840,228
60,17,603840,228
69,25,604080,228
65,21,604080,228
60,17,604080,228
69,28,604320,228
65,24,604320,228
59,20,604320,228
69,28,604560,228
65,24,604560,228
59,20,604560,228
58,20,604800,228
65,24,604800,228
67,28,604800,228
58,20,605040,228
65,24,605040,228
67,28,605040,228
58,20,605280,228
62,24,605280,228
67,28,605280,228
58,20,605520,228
62,24,605520,228
67,28,605520,228
58,20,605760,228
64,24,605760,228
67,28,605760,228
58,20,606000,228
64,24,606000,228
67,28,606000,228
57,20,606240,228
61,24,606240,228
67,28,606240,228
57,20,606480,228
61,24,606480,228
67,28,606480,228
62,24,606720,228
65,28,606720,228
62,24,606960,228
65,28,606960,228
62,24,607200,228
65,28,607200,228
62,24,607440,228
65,28,607440,228
40,27,608580,60
38,27,608640,90
40,23,608700,90
38,24,608760,90
40,22,608820,90
38,24,608880,90
40,22,608940,90
38,25,609000,90
40,24,609060,90
38,26,609120,90
40,23,609180,90
38,26,609240,90
40,22,609300,90
38,25,609360,90
40,23,609420,90
38,24,609480,90
40,22,609540,90
38,26,609600,90
40,23,609660,90
38,25,609720,90
40,23,609780,90
38,25,609840,90
40,22,609900,90
38,25,609960,90
40,22,610020,90
38,27,610080,90
40,23,610140,90
38,26,610200,90
40,22,610260,90
38,26,610320,90
40,22,610380,90
36,28,610440,120
34,34,610560,120
70,24,611520,228
65,20,611520,228
62,17,611520,228
70,24,611760,228
65,20,611760,228
62,17,611760,228
70,21,612000,228
65,18,612000,228
62,15,612000,228
70,21,612240,228
65,18,612240,228
62,15,612240,228
70,21,612480,228
65,18,612480,228
62,15,612480,228
70,21,612720,228
65,18,612720,228
62,15,612720,228
72,21,612960,228
65,18,612960,228
62,15,612960,228
72,21,613200,228
65,18,613200,228
62,15,613200,228
74,21,613440,228
65,18,613440,228
62,15,613440,228
74,21,613680,228
65,18,613680,228
62,15,613680,228
69,21,613920,228
65,18,613920,228
62,15,613920,228
69,21,614160,228
65,18,614160,228
62,15,614160,228
70,21,614400,228
65,18,614400,228
62,15,614400,228
70,21,614640,228
65,18,614640,228
62,15,614640,228
70,22,614880,228
65,18,614880,228
62,15,614880,228
70,22,615120,228
65,18,615120,228
62,15,615120,228
70,22,615360,228
65,18,615360,228
62,15,615360,228
70,22,615600,228
65,18,615600,228
62,15,615600,228
70,22,615840,228
65,18,615840,228
62,15,615840,228
70,22,616080,228
65,18,616080,228
62,15,616080,228
63,15,616320,228
66,18,616320,228
70,22,616320,228
63,15,616560,228
66,18,616560,228
70,22,616560,228
63,15,616800,228
66,18,616800,228
70,22,616800,228
63,15,617040,228
66,18,617040,228
70,22,617040,228
63,15,617280,228
66,18,617280,228
70,22,617280,228
63,15,617520,228
66,18,617520,228
70,22,617520,228
63,15,617760,228
66,18,617760,228
70,22,617760,228
63,15,618000,228
66,18,618000,228
70,22,618000,228
65,18,618240,228
62,15,618240,228
70,22,618240,228
65,18,618480,228
62,15,618480,228
70,22,618480,228
65,18,618720,228
62,15,618720,228
70,22,618720,228
65,18,618960,228
62,15,618960,228
70,22,618960,228
36,27,620100,60
34,27,620160,90
36,23,620220,90
34,24,620280,90
36,22,620340,90
34,24,620400,90
36,22,620460,90
34,26,620520,90
36,25,620580,90
34,27,620640,90
36,24,620700,90
34,28,620760,90
36,23,620820,90
34,27,620880,90
36,25,620940,90
34,26,621000,90
36,24,621060,90
34,29,621120,90
36,26,621180,90
34,28,621240,90
36,26,621300,90
34,29,621360,90
36,25,621420,90
34,29,621480,90
36,26,621540,90
34,32,621600,90
36,27,621660,90
34,31,621720,90
36,26,621780,90
33,34,621840,100
34,38,621920,100
36,40,622000,100
38,42,622080,120
69,27,623040,228
65,23,623040,228
62,19,623040,228
69,27,623280,228
65,23,623280,228
62,19,623280,228
69,24,623520,228
65,20,623520,228
62,17,623520,228
69,24,623760,228
65,20,623760,228
62,17,623760,228
69,24,624000,228
65,20,624000,228
62,17,624000,228
69,24,624240,228
65,20,624240,228
62,17,624240,228
69,24,624480,228
65,20,624480,228
62,17,624480,228
69,24,624720,228
65,20,624720,228
62,17,624720,228
69,24,624960,228
65,20,624960,228
62,17,624960,228
69,24,625200,228
65,20,625200,228
62,17,625200,228
69,24,625440,228
65,20,625440,228
62,17,625440,228
69,24,625680,228
65,20,625680,228
62,17,625680,228
69,24,625920,228
65,20,625920,228
62,17,625920,228
69,24,626160,228
65,20,626160,228
62,17,626160,228
69,25,626400,228
65,21,626400,228
61,17,626400,228
69,25,626640,228
65,21,626640,228
61,17,626640,228
69,25,626880,228
65,21,626880,228
60,17,626880,228
69,25,627120,228
65,21,627120,228
60,17,627120,228
69,25,627360,228
65,21,627360,228
59,17,627360,228
69,25,627600,228
65,21,627600,228
59,17,627600,228
58,17,627840,228
65,21,627840,228
67,25,627840,228
58,17,628080,228
65,21,628080,228
67,25,628080,228
58,17,628320,228
62,21,628320,228
67,25,628320,228
58,17,628560,228
62,21,628560,228
67,25,628560,228
58,17,628800,228
64,21,628800,228
67,25,628800,228
58,17,629040,228
64,21,629040,228
67,25,629040,228
58,17,629280,228
60,21,629280,228
67,25,629280,228
58,17,629520,228
60,21,629520,228
67,25,629520,228
57,24,629760,228
60,29,629760,228
63,35,629760,228
65,35,629760,228
57,18,630000,228
60,22,630000,228
63,27,630000,228
65,27,630000,228
57,19,630240,228
60,23,630240,228
63,27,630240,228
65,27,630240,228
57,19,630480,228
60,23,630480,228
63,27,630480,228
65,27,630480,228
57,19,630720,228
60,23,630720,228
63,27,630720,228
65,27,630720,228
57,19,630960,228
60,23,630960,228
63,27,630960,228
65,27,630960,228
57,19,631200,228
60,23,631200,228
63,27,631200,228
65,27,631200,228
57,19,631440,228
60,23,631440,228
63,27,631440,228
65,27,631440,228
57,21,631680,456
60,25,631680,456
63,30,631680,456
65,30,631680,456
57,22,635520,228
60,26,635520,228
63,31,635520,228
66,31,635520,228
57,17,635760,228
60,20,635760,228
63,24,635760,228
66,24,635760,228
57,17,636000,228
60,20,636000,228
63,24,636000,228
66,24,636000,228
57,17,636240,228
60,20,636240,228
63,24,636240,228
66,24,636240,228
57,17,636480,228
60,20,636480,228
63,24,636480,228
66,24,636480,228
57,17,636720,228
60,20,636720,228
63,24,636720,228
66,24,636720,228
57,17,636960,228
60,20,636960,228
63,24,636960,228
66,24,636960,228
57,17,637200,228
60,20,637200,228
63,24,637200,228
66,24,637200,228
57,18,637440,456
60,22,637440,456
63,27,637440,456
66,27,637440,456
57,17,639360,228
60,21,639360,228
63,21,639360,228
65,25,639360,228
57,17,639600,228
60,21,639600,228
63,25,639600,228
65,25,639600,228
57,18,639840,228
60,22,639840,228
63,26,639840,228
65,26,639840,228
57,18,640080,228
60,22,640080,228
63,26,640080,228
65,26,640080,228
57,18,640320,228
60,22,640320,228
63,26,640320,228
65,26,640320,228
57,18,640560,228
60,22,640560,228
63,26,640560,228
65,26,640560,228
57,18,640800,228
60,22,640800,228
63,26,640800,228
65,26,640800,228
57,18,641040,228
60,22,641040,228
63,26,641040,228
65,26,641040,228
57,22,641280,480
60,22,641280,480
63,27,641280,480
65,27,641280,480
59,33,646080,160
58,32,646240,160
57,31,646400,160
56,30,646560,160
55,29,646720,160
54,27,646880,160
56,22,647040,90
54,19,647100,90
56,20,647160,90
54,18,647220,90
56,20,647280,90
54,18,647340,90
56,21,647400,90
54,20,647460,90
56,22,647520,90
54,19,647580,90
56,22,647640,90
54,18,647700,90
56,21,647760,90
54,19,647820,90
56,20,647880,90
54,18,647940,90
56,22,648000,90
54,19,648060,90
56,21,648120,90
54,19,648180,90
56,21,648240,90
54,18,648300,90
56,21,648360,90
54,18,648420,90
56,22,648480,90
54,19,648540,90
56,22,648600,90
54,18,648660,90
53,20,648720,140
54,23,648840,140
53,25,648960,120
29,27,650640,100
30,22,650720,100
32,22,650800,100
30,27,650880,90
32,23,650940,90
30,24,651000,90
32,22,651060,90
30,24,651120,90
32,22,651180,90
30,25,651240,90
32,24,651300,90
30,26,651360,90
32,23,651420,90
30,26,651480,90
32,22,651540,90
30,25,651600,90
32,23,651660,90
30,24,651720,90
32,22,651780,90
30,26,651840,90
32,23,651900,90
30,25,651960,90
32,23,652020,90
30,25,652080,90
32,22,652140,90
30,25,652200,90
32,22,652260,90
30,27,652320,90
32,23,652380,90
30,26,652440,90
32,22,652500,90
29,22,652560,140
30,18,652680,140
29,23,652800,120
46,24,654240,480
50,29,654240,240
53,25,654480,240
46,25,654720,480
50,30,654720,240
53,25,654960,240
46,21,655200,480
48,27,655200,240
53,24,655440,240
46,25,655680,480
50,30,655680,240
53,24,655920,240
46,24,656160,480
51,29,656160,240
53,23,656400,240
52,30,656640,240
46,25,656640,1440
53,23,656880,120
53,23,657120,120
53,23,657360,120
53,23,657600,120
53,23,657840,120
46,24,658080,480
51,29,658080,240
50,24,658320,240
41,23,658560,480
51,27,658560,240
53,22,658800,240
41,23,659040,480
51,26,659040,240
53,22,659280,240
41,23,659520,480
51,26,659520,240
53,23,659760,240
41,24,660000,480
50,29,660000,240
48,22,660240,240
46,25,660480,1440
50,30,660480,240
53,27,660720,240
51,29,660960,240
55,25,661200,240
50,26,661440,240
53,27,661680,240
46,25,661920,480
50,35,661920,240
58,30,662160,240
46,27,662400,1440
55,32,662400,1440
58,28,662640,120
58,29,662880,120
58,27,663120,120
58,30,663360,120
58,27,663600,120
46,24,663840,480
53,29,663840,240
51,27,664080,240
46,24,664320,480
53,29,664320,240
50,25,664560,240
46,24,664800,480
48,29,664800,240
53,25,665040,240
46,24,665280,480
50,29,665280,240
53,27,665520,240
46,24,665760,480
51,28,665760,240
53,26,666000,240
46,24,666240,480
50,28,666240,240
53,26,666480,240
46,28,666720,480
53,26,666960,240
41,28,667200,480
29,24,667920,100
30,19,668000,100
32,19,668080,100
30,24,668160,100
32,20,668220,100
30,21,668280,100
32,19,668340,100
30,21,668400,100
32,19,668460,100
30,22,668520,100
32,21,668580,100
30,23,668640,100
32,20,668700,100
30,23,668760,100
32,19,668820,100
30,22,668880,100
32,20,668940,100
30,21,669000,100
32,19,669060,100
30,23,669120,100
32,20,669180,100
30,22,669240,100
32,20,669300,100
30,22,669360,100
32,19,669420,100
30,22,669480,100
32,19,669540,100
30,24,669600,100
32,20,669660,100
30,23,669720,100
32,19,669780,100
29,19,669840,140
30,16,669960,140
29,20,670080,120
46,24,671520,480
50,29,671520,240
53,25,671760,240
46,25,672000,480
50,30,672000,240
53,25,672240,240
46,21,672480,480
48,27,672480,240
53,24,672720,240
46,25,672960,480
50,30,672960,240
53,24,673200,240
46,24,673440,480
51,29,673440,240
53,23,673680,240
52,30,673920,240
46,25,673920,1440
53,23,674160,120
53,23,674400,120
53,23,674640,120
53,23,674880,120
53,23,675120,120
46,24,675360,480
51,29,675360,240
50,24,675600,240
41,23,675840,480
51,27,675840,240
53,22,676080,240
41,23,676320,480
51,26,676320,240
53,22,676560,240
41,23,676800,480
51,26,676800,240
53,25,677040,240
41,24,677280,480
50,29,677280,240
48,22,677520,240
46,25,677760,1440
50,30,677760,240
53,27,678000,240
51,29,678240,240
55,25,678480,240
50,26,678720,240
53,27,678960,240
44,25,679200,480
50,35,679200,240
53,30,679440,240
43,27,679680,1440
53,32,679680,1440
55,28,679920,120
55,29,680160,120
55,27,680400,120
55,30,680640,120
55,27,680880,120
43,21,681120,240
51,24,681120,240
55,29,681120,240
43,21,681360,240
50,24,681360,240
55,27,681360,240
43,25,681600,480
48,30,681600,240
55,27,681840,240
43,25,682080,480
53,29,682080,240
55,25,682320,240
43,24,682560,480
51,25,682560,240
55,26,682800,240
42,25,683040,480
51,35,683040,240
54,30,683280,240
41,27,683520,1440
51,32,683520,1440
53,28,683760,120
53,29,684000,120
53,27,684240,120
53,30,684480,120
53,27,684720,120
41,21,684960,240
50,24,684960,240
53,29,684960,240
41,21,685200,240
48,24,685200,240
53,27,685200,240
41,25,685440,480
46,30,685440,240
53,27,685680,240
41,23,685920,480
48,27,685920,240
53,23,686160,240
41,25,686400,480
50,26,686400,240
53,24,686640,240
41,22,686880,480
51,31,686880,240
53,27,687120,240
53,28,687360,1200
41,24,687360,960
51,28,687360,960
46,25,688320,240
50,25,688320,240
34,30,688800,240
34,30,689280,90
35,26,689340,90
34,27,689400,90
35,25,689460,90
34,27,689520,90
35,25,689580,90
34,28,689640,90
35,27,689700,90
34,29,689760,90
35,26,689820,90
34,29,689880,90
35,25,689940,90
34,28,690000,90
35,26,690060,90
34,27,690120,90
35,25,690180,90
34,29,690240,90
35,26,690300,90
34,28,690360,90
35,26,690420,90
34,28,690480,90
35,25,690540,90
34,28,690600,90
35,25,690660,90
34,30,690720,140
33,26,690840,140
32,30,690960,140
31,26,691080,140
30,30,691200,60
49,26,691320,120
54,26,691440,120
49,26,691560,120
42,31,691680,120
49,26,691800,120
53,26,691920,120
49,25,692040,120
42,30,692160,120
49,27,692280,120
54,27,692400,120
49,27,692520,120
42,30,692640,120
49,27,692760,120
56,27,692880,120
49,27,693000,120
42,33,693120,120
49,27,693240,120
58,27,693360,120
49,27,693480,120
42,31,693600,120
49,27,693720,120
58,27,693840,120
49,27,693960,120
42,30,694080,120
49,27,694200,120
58,27,694320,120
49,27,694440,120
42,31,694560,120
49,25,694680,120
54,28,694800,120
49,27,694920,120
42,33,695040,120
51,27,695160,120
59,27,695280,120
51,27,695400,120
42,32,695520,120
51,27,695640,120
59,27,695760,120
51,27,695880,120
42,32,696000,120
51,27,696120,120
59,27,696240,120
51,27,696360,120
42,33,696480,120
51,27,696600,120
59,31,696720,120
51,27,696840,120
42,33,696960,120
49,28,697080,120
58,28,697200,120
49,28,697320,120
42,33,697440,120
49,27,697560,120
58,28,697680,120
49,27,697800,120
42,33,697920,120
49,28,698040,120
58,29,698160,120
49,29,698280,120
42,33,698400,120
49,28,698520,120
54,28,698640,120
49,28,698760,120
42,30,698880,120
49,26,699000,120
54,26,699120,120
49,26,699240,120
42,31,699360,120
49,26,699480,120
53,26,699600,120
49,25,699720,120
42,30,699840,120
49,27,699960,120
54,27,700080,120
49,27,700200,120
42,30,700320,120
49,27,700440,120
56,27,700560,120
49,27,700680,120
42,33,700800,120
49,27,700920,120
57,27,701040,120
49,27,701160,120
44,31,701280,120
49,27,701400,120
57,27,701520,120
49,27,701640,120
45,30,701760,120
49,27,701880,120
57,27,702000,120
49,27,702120,120
45,31,702240,120
49,25,702360,120
57,28,702480,120
49,27,702600,120
45,33,702720,120
54,27,702840,120
62,27,702960,120
54,27,703080,120
45,32,703200,120
54,27,703320,120
62,27,703440,120
54,27,703560,120
45,32,703680,120
54,27,703800,120
62,27,703920,120
54,27,704040,120
45,33,704160,120
54,27,704280,120
62,31,704400,120
54,27,704520,120
45,33,704640,120
52,28,704760,120
61,28,704880,120
52,28,705000,120
45,33,705120,120
52,27,705240,120
61,28,705360,120
52,27,705480,120
45,33,705600,120
52,28,705720,120
61,29,705840,120
52,29,705960,120
45,33,706080,120
52,27,706200,120
57,31,706320,120
52,27,706440,120
45,33,706560,120
54,28,706680,120
62,28,706800,120
54,28,706920,120
45,33,707040,120
54,29,707160,120
62,29,707280,120
54,29,707400,120
45,33,707520,120
52,28,707640,120
56,28,707760,120
52,27,707880,120
45,31,708000,120
52,27,708120,120
59,28,708240,120
52,28,708360,120
45,33,708480,120
52,28,708600,120
57,28,708720,120
52,28,708840,120
45,33,708960,120
52,27,709080,120
61,28,709200,120
52,27,709320,120
45,33,709440,120
52,28,709560,120
61,29,709680,120
52,29,709800,120
45,33,709920,120
52,27,710040,120
61,31,710160,120
52,27,710280,120
45,33,710400,120
54,28,710520,120
62,28,710640,120
54,28,710760,120
45,33,710880,120
54,29,711000,120
62,29,711120,120
54,29,711240,120
45,33,711360,120
52,28,711480,120
56,28,711600,120
52,27,711720,120
45,31,711840,120
52,27,711960,120
59,28,712080,120
52,28,712200,120
45,33,712320,60
61,28,712440,120
57,28,712560,120
61,28,712680,120
57,33,712800,120
61,29,712920,120
57,29,713040,120
61,29,713160,120
45,33,713280,60
61,28,713400,120
57,28,713520,120
61,27,713640,120
57,31,713760,120
61,27,713880,120
57,28,714000,120
61,28,714120,120
45,33,714240,60
62,28,714360,120
57,28,714480,120
62,28,714600,120
57,33,714720,120
62,29,714840,120
57,29,714960,120
62,29,715080,120
45,33,715200,60
62,28,715320,120
57,28,715440,120
62,27,715560,120
57,31,715680,120
62,27,715800,120
57,28,715920,120
62,28,716040,120
45,33,716160,60
61,28,716280,120
57,28,716400,120
61,28,716520,120
57,33,716640,120
61,29,716760,120
57,29,716880,120
61,29,717000,120
45,33,717120,60
61,28,717240,120
57,28,717360,120
61,27,717480,120
57,31,717600,120
61,27,717720,120
57,28,717840,120
61,28,717960,120
45,33,718080,60
62,28,718200,120
57,28,718320,120
62,28,718440,120
57,33,718560,120
62,29,718680,120
57,29,718800,120
62,29,718920,120
45,33,719040,60
62,28,719160,120
57,28,719280,120
62,27,719400,120
57,31,719520,120
62,27,719640,120
57,28,719760,120
62,28,719880,120
45,33,720000,60
61,28,720120,120
57,28,720240,120
61,28,720360,120
57,33,720480,120
61,29,720600,120
57,29,720720,120
61,29,720840,120
57,33,720960,120
61,28,721080,120
57,28,721200,120
61,27,721320,120
57,31,721440,120
61,27,721560,120
57,28,721680,120
61,28,721800,120
45,33,721920,60
61,28,722040,120
57,28,722160,120
61,28,722280,120
57,33,722400,120
61,29,722520,120
57,29,722640,120
61,29,722760,120
57,33,722880,120
61,28,723000,120
57,28,723120,120
61,27,723240,120
57,31,723360,120
61,27,723480,120
57,28,723600,120
61,28,723720,120
57,33,723840,120
61,28,723960,120
57,28,724080,120
61,28,724200,120
57,33,724320,120
61,29,724440,120
57,29,724560,120
61,30,724680,120
57,34,724800,120
61,29,724920,120
57,29,725040,120
61,28,725160,120
57,33,725280,120
61,29,725400,120
57,30,725520,120
61,30,725640,120
45,34,725760,160
57,31,725920,152
57,31,726080,152
45,25,726080,152
45,29,726240,152
57,35,726240,152
45,25,726400,152
57,31,726400,152
45,27,726560,152
57,33,726560,152
45,31,726720,152
57,37,726720,152
45,29,726880,152
57,35,726880,152
45,29,727040,152
57,35,727040,152
55,32,727200,152
52,32,727200,152
45,32,727200,152
57,38,727200,152
55,32,727360,152
52,32,727360,152
45,28,727360,152
57,35,727360,152
55,32,727520,152
52,33,727520,152
45,29,727520,152
57,35,727520,152
55,33,727680,152
52,33,727680,152
45,33,727680,152
57,40,727680,152
55,33,727840,152
52,34,727840,152
45,30,727840,152
57,36,727840,152
55,33,728000,152
52,35,728000,152
45,30,728000,152
57,37,728000,152
55,44,728160,152
52,36,728160,152
45,36,728160,152
57,44,728160,152
55,44,728320,152
52,37,728320,152
45,33,728320,152
57,40,728320,152
55,45,728480,152
52,39,728480,152
45,34,728480,152
57,42,728480,152
55,48,728640,152
52,40,728640,152
45,40,728640,152
57,48,728640,152
55,49,728800,152
52,41,728800,152
45,37,728800,152
57,44,728800,152
55,49,728960,152
52,43,728960,152
45,37,728960,152
57,46,728960,152
50,48,729120,152
58,57,729120,152
46,48,729120,152
53,48,729120,152
50,48,729280,152
58,52,729280,152
46,42,729280,152
53,48,729280,152
50,48,729440,152
58,52,729440,152
46,42,729440,152
53,48,729440,152
46,63,729600,480
58,63,729600,160
41,63,729600,480
53,58,729760,160
53,58,729920,80
51,62,730080,160
46,62,730080,480
53,58,730240,160
53,58,730400,80
50,60,730560,160
46,60,730560,480
53,58,730720,160
53,58,730880,80
51,61,731040,160
46,61,731040,480
53,58,731200,160
53,58,731360,80
52,60,731520,160
46,60,731520,1440
53,58,731680,160
53,58,731840,80
53,60,732000,160
53,58,732160,160
53,58,732320,80
53,62,732480,160
53,58,732640,160
53,58,732800,160
51,61,732960,160
46,61,732960,480
53,53,733120,160
50,53,733280,160
51,60,733440,160
41,60,733440,480
53,55,733600,152
53,55,733760,152
51,60,733920,160
41,60,733920,480
53,56,734080,152
53,56,734240,152
51,62,734400,160
41,62,734400,480
53,58,734560,152
53,58,734720,152
50,62,734880,160
41,62,734880,480
53,59,735040,160
48,59,735200,160
50,62,735360,160
46,62,735360,1440
53,56,735520,152
53,56,735680,152
51,60,735840,160
55,56,736000,152
55,56,736160,152
50,60,736320,160
53,56,736480,152
53,57,736640,152
50,59,736800,160
44,59,736800,480
53,54,736960,152
53,54,737120,152
53,59,737280,160
43,59,737280,1440
55,53,737440,152
55,53,737600,152
53,56,737760,160
55,53,737920,152
55,53,738080,152
53,57,738240,160
55,51,738400,152
55,51,738560,152
51,56,738720,160
43,56,738720,480
55,51,738880,160
50,51,739040,160
48,54,739200,160
43,54,739200,480
55,50,739360,152
55,50,739520,152
53,54,739680,160
43,54,739680,480
55,50,739840,152
55,50,740000,152
51,55,740160,160
43,55,740160,480
55,50,740320,152
55,50,740480,152
51,57,740640,160
42,57,740640,480
54,52,740800,152
54,52,740960,152
51,58,741120,160
41,58,741120,1440
53,52,741280,152
53,52,741440,152
51,56,741600,160
53,52,741760,152
53,53,741920,152
51,57,742080,160
53,52,742240,152
53,52,742400,152
50,57,742560,160
41,57,742560,480
53,54,742720,160
48,51,742880,160
46,58,743040,160
41,58,743040,480
53,53,743200,152
53,53,743360,152
48,58,743520,160
41,58,743520,480
53,52,743680,152
53,52,743840,152
50,56,744000,160
41,56,744000,480
53,52,744160,152
53,52,744320,152
51,56,744480,160
41,56,744480,480
53,52,744640,152
53,52,744800,152
41,51,744960,960
51,51,744960,960
53,50,745120,152
53,50,745280,152
53,50,745440,152
53,50,745600,152
53,49,745760,152
53,49,745920,152
53,49,746080,152
53,49,746240,152
53,48,746400,152
53,48,746560,152
53,48,746720,152
41,45,746880,1920
50,48,746880,1920
53,42,747040,152
53,39,747200,152
53,38,747360,152
53,38,747520,152
53,37,747680,152
53,37,747840,152
53,36,748000,152
53,35,748160,152
53,36,748320,152
53,40,748480,152
53,44,748640,152
53,50,748800,160
44,42,748960,152
44,42,749120,152
44,42,749280,152
44,42,749440,152
44,42,749600,152
44,42,749760,152
44,42,749920,152
44,42,750080,152
44,44,750240,152
44,44,750400,152
44,44,750560,152
44,49,750720,160
42,49,750880,152
42,49,751040,152
42,55,751200,152
42,55,751360,152
42,56,751520,152
42,63,751680,240
42,65,752160,360
39,59,752520,40
38,61,752560,40
37,59,752600,40
35,65,752640,120
59,42,754080,480
66,42,754080,480
59,42,754560,1200
66,42,754560,720
64,38,755280,240
62,41,755520,240
59,38,756000,480
62,38,756000,480
59,41,756480,960
62,41,756480,720
61,41,757200,240
59,44,757440,240
59,34,757920,480
59,41,758400,480
61,42,758880,480
62,47,759360,480
57,31,759840,480
64,37,759840,480
62,39,760320,480
66,47,760320,480
61,38,760800,480
66,45,760800,480
59,38,761280,480
66,46,761280,480
57,33,761760,480
67,39,761760,480
57,33,762240,960
67,39,762240,960
58,30,763200,480
66,37,763200,480
59,30,763680,480
66,36,763680,480
59,32,764160,1200
66,42,764160,720
64,38,764880,240
62,41,765120,240
59,32,765600,480
62,38,765600,480
59,34,766080,960
62,41,766080,720
61,41,766800,240
59,44,767040,240
59,34,767520,480
59,41,768000,480
61,42,768480,480
62,47,768960,480
57,31,769440,480
64,37,769440,480
62,39,769920,480
66,47,769920,480
61,38,770400,480
66,45,770400,480
59,38,770880,480
66,46,770880,480
57,33,771360,480
67,39,771360,480
57,33,771840,960
67,39,771840,960
62,37,772800,160
66,37,772800,160
69,29,772960,152
69,29,773120,152
69,33,773280,152
69,29,773440,152
69,29,773600,152
63,33,773760,120
69,27,773880,120
66,27,774000,120
69,27,774120,120
63,33,774240,120
69,28,774360,120
66,28,774480,120
69,29,774600,120
63,33,774720,120
69,29,774840,120
66,29,774960,120
69,29,775080,120
62,33,775200,120
69,29,775320,120
66,29,775440,120
69,29,775560,120
60,33,775680,120
69,27,775800,120
66,27,775920,120
69,27,776040,120
60,33,776160,120
69,28,776280,120
66,28,776400,120
69,29,776520,120
60,33,776640,120
69,29,776760,120
66,29,776880,120
69,29,777000,120
59,33,777120,120
69,29,777240,120
66,29,777360,120
69,29,777480,120
59,33,777600,120
69,28,777720,120
66,28,777840,120
69,28,777960,120
59,34,778080,120
67,28,778200,120
64,28,778320,120
67,29,778440,120
59,35,778560,120
66,29,778680,120
63,29,778800,120
66,29,778920,120
59,36,779040,120
67,31,779160,120
64,31,779280,120
67,31,779400,120
59,37,779520,120
69,31,779640,120
66,32,779760,120
69,32,779880,120
60,37,780000,120
69,31,780120,120
66,31,780240,120
69,31,780360,120
61,38,780480,120
69,32,780600,120
66,32,780720,120
69,33,780840,120
62,39,780960,120
69,32,781080,120
66,34,781200,120
69,34,781320,120
62,33,781440,120
69,27,781560,120
66,27,781680,120
69,27,781800,120
63,33,781920,120
69,28,782040,120
66,28,782160,120
69,29,782280,120
63,33,782400,120
69,29,782520,120
66,29,782640,120
69,29,782760,120
62,33,782880,120
69,29,783000,120
66,29,783120,120
69,29,783240,120
60,33,783360,120
69,27,783480,120
66,27,783600,120
69,27,783720,120
60,33,783840,120
69,28,783960,120
66,28,784080,120
69,29,784200,120
60,33,784320,120
69,29,784440,120
66,29,784560,120
69,31,784680,120
59,36,784800,120
69,31,784920,120
66,31,785040,120
69,31,785160,120
59,36,785280,120
69,30,785400,120
66,30,785520,120
69,30,785640,120
59,37,785760,120
67,30,785880,120
64,30,786000,120
67,31,786120,120
59,38,786240,120
66,31,786360,120
63,31,786480,120
66,31,786600,120
59,39,786720,120
67,34,786840,120
64,34,786960,120
67,34,787080,120
59,40,787200,120
69,34,787320,120
66,35,787440,120
69,35,787560,120
60,40,787680,120
69,34,787800,120
66,34,787920,120
69,34,788040,120
61,41,788160,120
69,35,788280,120
66,35,788400,120
69,36,788520,120
62,42,788640,120
69,35,788760,120
66,37,788880,120
69,37,789000,120
62,36,789120,120
69,29,789240,120
66,29,789360,120
69,29,789480,120
63,36,789600,120
69,30,789720,120
66,30,789840,120
69,31,789960,120
62,36,790080,120
69,31,790200,120
66,31,790320,120
69,31,790440,120
60,36,790560,120
69,31,790680,120
66,31,790800,120
69,31,790920,120
58,36,791040,120
67,29,791160,120
62,29,791280,120
67,29,791400,120
57,36,791520,120
67,30,791640,120
60,30,791760,120
67,31,791880,120
55,36,792000,120
67,31,792120,120
58,31,792240,120
67,31,792360,120
58,36,792480,120
67,31,792600,120
62,31,792720,120
67,31,792840,120
62,36,792960,120
69,29,793080,120
66,29,793200,120
69,29,793320,120
63,36,793440,120
69,30,793560,120
66,30,793680,120
69,31,793800,120
62,36,793920,120
69,31,794040,120
66,31,794160,120
69,31,794280,120
60,37,794400,120
69,32,794520,120
66,32,794640,120
69,32,794760,120
58,37,794880,120
70,31,795000,120
67,32,795120,120
70,32,795240,120
58,39,795360,120
70,34,795480,120
67,34,795600,120
70,35,795720,120
58,42,795840,120
70,37,795960,120
67,37,796080,120
70,37,796200,120
58,44,796320,120
72,39,796440,120
68,40,796560,120
72,40,796680,120
58,48,796800,120
70,38,796920,120
67,38,797040,120
70,38,797160,120
58,47,797280,120
68,39,797400,120
65,39,797520,120
68,39,797640,120
58,42,797760,120
67,36,797880,120
63,36,798000,120
67,37,798120,120
58,42,798240,120
65,35,798360,120
61,35,798480,120
65,35,798600,120
58,35,798720,120
64,29,798840,120
61,29,798960,120
64,29,799080,120
58,34,799200,120
64,29,799320,120
61,29,799440,120
64,29,799560,120
58,33,799680,120
64,29,799800,120
61,29,799920,120
64,29,800040,120
58,33,800160,120
64,29,800280,120
61,29,800400,120
64,29,800520,120
58,31,800640,120
64,27,800760,120
61,27,800880,120
64,27,801000,120
58,32,801120,120
64,27,801240,120
61,27,801360,120
64,27,801480,120
57,32,801600,120
64,26,801720,120
61,26,801840,120
64,26,801960,120
55,31,802080,120
64,26,802200,120
61,26,802320,120
64,26,802440,120
53,31,802560,120
65,24,802680,120
62,24,802800,120
65,24,802920,120
53,30,803040,120
67,25,803160,120
63,25,803280,120
67,26,803400,120
53,29,803520,120
65,26,803640,120
62,26,803760,120
65,26,803880,120
53,30,804000,120
67,26,804120,120
63,26,804240,120
67,26,804360,120
53,31,804480,120
65,24,804600,120
62,24,804720,120
65,24,804840,120
53,30,804960,120
67,25,805080,120
63,25,805200,120
67,26,805320,120
53,29,805440,120
65,26,805560,120
62,26,805680,120
65,26,805800,120
53,30,805920,120
67,26,806040,120
63,26,806160,120
67,26,806280,120
53,31,806400,120
65,24,806520,120
62,24,806640,120
65,24,806760,120
53,30,806880,120
67,26,807000,120
63,26,807120,120
67,27,807240,120
53,30,807360,120
65,27,807480,120
62,28,807600,120
65,28,807720,120
53,33,807840,120
67,28,807960,120
63,28,808080,120
67,28,808200,120
53,34,808320,120
65,26,808440,120
62,26,808560,120
65,26,808680,120
53,33,808800,120
67,27,808920,120
63,27,809040,120
67,28,809160,120
53,31,809280,120
65,28,809400,120
62,28,809520,120
65,28,809640,120
53,36,809760,120
67,30,809880,120
63,30,810000,120
67,30,810120,120
53,42,810240,120
65,35,810360,120
62,35,810480,120
65,35,810600,120
53,44,810720,120
67,37,810840,120
63,38,810960,120
67,37,811080,120
53,47,811200,120
65,37,811320,120
62,38,811440,120
65,38,811560,120
53,49,811680,120
65,40,811800,120
63,40,811920,120
65,40,812040,120
53,41,812160,1920
65,49,812160,1920
63,41,812160,1920
58,32,814080,480
62,32,814080,480
65,38,814080,480
58,29,815040,240
62,29,815040,240
65,35,815040,240
58,29,815520,240
65,29,815520,240
68,35,815520,240
58,32,816000,480
63,32,816000,480
67,38,816000,480
58,29,816960,240
63,29,816960,240
67,35,816960,240
58,29,817440,240
67,29,817440,240
70,35,817440,240
58,32,817920,480
62,32,817920,480
65,38,817920,480
58,29,818880,240
62,35,818880,240
62,29,819360,240
65,35,819360,240
53,29,819840,240
62,29,819840,240
65,35,819840,240
53,28,820320,240
67,34,820320,240
63,28,820320,240
53,28,820800,240
62,28,820800,240
65,33,820800,240
53,28,821280,240
60,28,821280,240
63,34,821280,240
53,29,821760,240
59,29,821760,240
62,35,821760,240
53,28,822240,240
62,35,822240,240
59,28,822240,240
53,29,822720,240
59,29,822720,240
62,35,822720,240
53,31,823200,240
59,31,823200,240
62,37,823200,240
51,33,823680,240
58,33,823680,240
63,40,823680,240
51,31,824160,240
63,38,824160,240
58,31,824160,240
53,31,824640,240
58,31,824640,240
62,37,824640,240
53,31,825120,240
60,31,825120,240
63,38,825120,240
58,47,825600,160
65,44,825760,160
62,44,825920,80
58,47,826080,80
53,43,826240,80
50,41,826400,80
46,45,826560,80
50,41,826720,80
53,41,826880,80
50,47,827040,80
53,45,827200,80
58,45,827360,80
58,47,827520,160
67,44,827680,160
63,44,827840,80
58,47,828000,80
55,43,828160,80
51,41,828320,80
46,45,828480,80
51,41,828640,80
55,41,828800,80
51,47,828960,80
55,45,829120,80
58,45,829280,80
58,47,829440,160
70,44,829600,160
65,44,829760,80
62,47,829920,80
58,43,830080,80
53,41,830240,80
50,45,830400,80
46,41,830560,80
41,41,830720,80
46,47,830880,80
50,45,831040,80
53,45,831200,80
53,29,831360,240
62,29,831360,240
65,35,831360,240
65,28,831840,240
79,34,831840,240
75,28,831840,240
65,28,832320,240
74,28,832320,240
77,33,832320,240
65,28,832800,240
72,28,832800,240
75,34,832800,240
65,29,833280,240
71,29,833280,240
74,35,833280,240
65,28,833760,240
74,35,833760,240
71,28,833760,240
65,29,834240,240
71,29,834240,240
74,35,834240,240
65,31,834720,240
71,31,834720,240
74,37,834720,240
63,33,835200,240
70,33,835200,240
75,40,835200,240
63,31,835680,240
75,38,835680,240
70,31,835680,240
65,31,836160,240
70,31,836160,240
74,37,836160,240
65,31,836640,240
72,31,836640,240
75,38,836640,240
51,26,837120,240
57,26,837120,240
60,31,837120,240
51,25,837600,240
60,31,837600,240
57,25,837600,240
51,26,838080,240
57,26,838080,240
60,31,838080,240
51,27,838560,240
57,27,838560,240
60,33,838560,240
49,29,839040,240
56,29,839040,240
61,36,839040,240
49,27,839520,240
61,34,839520,240
56,27,839520,240
51,27,840000,240
56,27,840000,240
60,33,840000,240
51,27,840480,240
58,27,840480,240
61,34,840480,240
71,31,841920,240
68,33,842400,240
73,33,842880,240
73,31,843360,240
49,29,844320,240
49,29,844800,240
50,26,845760,240
50,26,846240,240
62,26,847200,240
63,27,847680,240
51,30,848160,240
53,33,848640,240
53,35,849120,240
63,41,849600,240
60,35,849600,240
53,35,849600,240
53,36,850080,240
60,36,850080,240
63,42,850080,240
53,36,850560,120
46,36,850560,120
58,42,850560,120
62,36,851520,720
65,44,851520,960
60,30,852240,240
63,36,852240,240
58,36,852480,480
62,44,852480,480
56,38,852960,480
62,45,852960,480
55,40,853440,480
62,48,853440,480
48,37,853920,480
55,37,853920,480
60,44,853920,480
53,41,854400,960
63,49,854400,960
58,32,855360,120
62,38,855360,120
58,28,855840,120
62,34,855840,120
50,35,857280,720
53,42,857280,237
48,30,858000,240
51,36,858000,240
46,36,858240,480
50,44,858240,480
44,38,858720,480
50,45,858720,480
43,40,859200,390
50,48,859200,390
36,35,859590,330
43,37,859605,315
48,40,859620,300
58,45,860640,480
63,53,860640,480
56,49,861120,390
63,59,861120,390
49,49,861510,330
56,52,861525,305
61,56,861540,300
45,70,862560,390
49,70,862560,390
52,84,862560,390
38,70,862950,330
45,73,862965,315
50,77,862980,300
58,49,864000,960
68,58,864000,960
63,38,864960,120
67,45,864960,120
63,33,865440,120
67,40,865440,120
63,38,865920,1440
70,45,865920,1440
41,33,869760,960
51,39,869760,960
46,30,870720,120
50,36,870720,120
46,24,871200,120
50,32,871200,120
46,30,871680,1440
53,36,871680,1440
58,49,873600,960
68,58,873600,960
63,38,874560,120
67,45,874560,120
63,39,875040,120
67,48,875040,120
53,24,881280,960
63,32,881280,960
58,27,882240,120
62,32,882240,120
58,21,882720,120
62,28,882720,120
58,27,883200,1440
65,32,883200,1440
56,35,885120,1440
62,35,885120,1440
65,41,885120,1440
65,41,887040,1920
62,34,887040,1920
55,34,887040,1920
63,34,888960,480
60,28,888960,480
60,36,890880,240
53,30,891360,480
60,36,891360,360
62,31,891720,120
53,28,891840,480
63,32,891840,480
53,27,892320,480
60,32,892320,480
46,30,892800,240
58,36,892800,240
46,27,893280,1440
53,32,893280,1440
44,35,895200,1440
53,41,895200,1440
53,41,896640,1920
50,34,896640,1920
43,34,896640,1920
51,30,898560,480
48,25,898560,480
48,32,900480,240
41,27,900960,480
48,32,900960,360
50,27,901320,120
41,25,901440,480
51,28,901440,480
41,24,901920,480
48,28,901920,480
50,34,902400,240
46,28,902400,480
53,26,902640,120
53,26,902880,120
53,26,903120,120
53,26,903360,120
53,26,903600,120
50,26,903840,240
41,21,903840,480
53,22,904080,240
41,22,904320,480
50,27,904320,240
53,22,904560,240
41,18,904800,480
48,24,904800,240
53,21,905040,240
41,22,905280,480
50,27,905280,240
53,21,905520,240
51,26,905760,240
41,21,905760,480
53,20,906000,240
46,22,906240,960
50,27,906240,240
53,20,906480,120
53,20,906720,120
53,20,906960,120
53,20,907200,120
53,20,907440,120
46,26,907680,240
41,21,907680,480
53,22,907920,240
41,22,908160,480
46,27,908160,240
53,23,908400,240
41,19,908640,480
45,25,908640,240
53,22,908880,240
41,24,909120,480
46,28,909120,240
53,23,909360,240
48,28,909600,240
41,23,909600,480
53,22,909840,240
46,22,910080,960
53,20,910320,120
53,20,910560,120
53,20,910800,120
53,20,911040,120
53,20,911280,120
50,26,911520,240
41,21,911520,480
53,22,911760,240
41,22,912000,480
50,27,912000,240
53,22,912240,240
41,18,912480,480
48,24,912480,240
53,21,912720,240
41,22,912960,480
50,27,912960,240
53,21,913200,240
51,26,913440,240
41,21,913440,480
53,20,913680,240
41,22,913920,1680
51,22,913920,1680
53,27,913920,1680
29,20,915600,120
30,16,915680,120
32,16,915760,120
30,20,915840,100
32,17,915900,100
30,18,915960,100
32,16,916020,100
30,18,916080,100
32,16,916140,100
30,18,916200,100
32,18,916260,100
30,19,916320,100
32,17,916380,100
30,19,916440,100
32,16,916500,100
30,18,916560,100
32,17,916620,100
30,17,916680,100
32,16,916740,100
30,18,916800,100
32,17,916860,100
30,18,916920,100
32,16,916980,100
30,18,917040,100
32,15,917100,100
30,18,917160,100
32,15,917220,100
30,19,917280,100
32,16,917340,100
30,18,917400,100
32,15,917460,100
29,18,917520,160
30,14,917640,160
29,18,917760,120
41,25,918720,480
48,25,918720,480
53,29,918720,480
46,25,919680,480
53,30,919680,480
34,24,921600,480
46,24,921600,480
50,24,921600,480
53,24,921600,480
58,28,921600,480
34,24,923520,2400
46,24,923520,2400
50,24,923520,2400
53,24,923520,2400
58,28,923520,2400
