note,velocity,position,duration
74,52,1680,120
72,63,1920,240
71,37,2160,120
71,43,2400,120
71,37,2640,120
71,55,2880,240
72,40,3120,120
75,51,3600,120
72,63,3840,240
71,37,4080,120
71,44,4320,120
71,37,4560,120
71,57,4800,240
72,47,5040,120
75,54,5520,240
72,63,5760,240
70,52,6000,120
70,54,6240,120
70,54,6480,120
72,63,6720,240
70,53,6960,120
70,55,7200,120
70,55,7440,120
72,63,7680,120
70,52,7800,120
69,53,7920,120
70,53,8040,120
72,58,8160,120
74,54,8400,120
70,58,8640,240
86,52,10320,120
84,64,10560,240
83,37,10800,120
83,43,11040,120
83,37,11280,120
83,55,11520,240
84,42,11760,120
87,51,12240,120
84,64,12480,240
83,37,12720,120
83,44,12960,120
83,37,13200,120
83,57,13440,240
84,47,13680,120
87,54,14160,240
84,64,14400,240
82,52,14640,120
82,54,14880,120
82,54,15120,120
84,64,15360,240
82,53,15600,120
82,55,15840,120
82,55,16080,120
84,64,16320,120
82,52,16440,120
81,53,16560,120
82,53,16680,120
84,58,16800,120
86,54,17040,120
82,58,17280,480
74,57,18000,120
79,60,18240,480
75,60,18720,480
72,60,19200,480
74,60,19680,120
75,58,19920,120
77,57,20160,120
79,53,20280,120
77,53,20400,120
75,53,20520,120
74,59,20640,120
75,52,20760,120
74,52,20880,120
72,53,21000,120
70,60,21120,720
70,57,21840,120
75,60,22080,480
72,60,22560,480
69,60,23040,480
74,65,23520,120
62,54,23520,120
60,49,23760,120
72,58,23760,120
60,55,24000,240
72,66,24000,240
58,51,24240,120
70,60,24240,120
69,67,24480,120
57,56,24480,120
55,52,24720,120
67,61,24720,120
70,73,24960,240
58,61,24960,240
69,66,25200,120
57,55,25200,120
55,59,25440,120
67,71,25440,120
66,66,25680,120
54,55,25680,120
55,60,25920,240
67,72,25920,240
74,81,26400,720
62,69,26400,720
69,69,26400,720
63,53,27120,120
75,64,27120,120
74,68,27360,120
62,57,27360,120
72,64,27600,120
60,53,27600,120
60,58,27840,240
72,69,27840,240
70,64,28080,120
58,53,28080,120
57,58,28320,120
69,69,28320,120
55,53,28560,120
67,64,28560,120
68,72,28800,480
56,60,28800,480
54,55,29280,480
66,66,29280,480
55,59,29760,240
67,71,29760,240
74,52,31440,120
72,63,31680,240
71,37,31920,120
71,43,32160,120
71,37,32400,120
71,55,32640,120
72,49,32760,120
79,59,32880,240
77,50,33120,120
75,45,33240,120
74,45,33360,120
72,45,33480,120
72,63,33600,240
71,37,33840,120
71,44,34080,120
71,37,34320,120
71,57,34560,240
72,47,34800,120
75,54,35280,240
72,63,35520,240
70,52,35760,120
70,54,36000,120
70,54,36240,120
72,63,36480,240
70,53,36720,120
70,55,36960,120
70,55,37200,120
72,63,37440,120
70,52,37560,120
69,53,37680,120
70,53,37800,120
72,58,37920,120
74,54,38160,120
70,58,38400,480
74,57,39120,120
79,60,39360,480
75,60,39840,480
72,60,40320,480
74,60,40800,120
75,58,41040,120
77,57,41280,120
79,53,41400,120
77,53,41520,120
75,53,41640,120
74,59,41760,120
75,52,41880,120
74,52,42000,120
72,53,42120,120
70,60,42240,720
70,46,42960,120
75,48,43200,480
72,48,43680,480
68,48,44160,480
70,48,44640,240
72,46,44880,240
75,48,45120,480
73,48,45600,240
72,48,45840,240
70,48,46080,480
72,48,46560,120
73,46,46800,120
75,46,47040,120
77,42,47160,120
75,42,47280,120
73,42,47400,120
72,47,47520,120
73,42,47640,120
72,42,47760,120
70,42,47880,120
68,48,48000,480
70,48,48480,120
72,44,48720,120
75,48,48960,240
73,48,49200,120
73,48,49440,120
75,44,49560,120
73,44,49680,120
72,44,49800,120
70,48,49920,240
75,49,50160,120
77,53,50400,120
79,56,50640,120
80,59,50880,960
68,50,50880,960
84,60,51840,720
72,51,51840,720
80,55,52560,240
68,47,52560,240
80,59,52800,480
68,50,52800,480
67,47,53280,960
79,55,53280,960
67,48,54240,480
79,57,54240,480
67,52,54720,480
79,63,54720,480
77,58,55200,480
65,49,55200,480
70,57,55680,720
82,67,55680,720
81,61,56400,240
69,51,56400,240
69,51,56640,240
81,61,56640,240
79,54,56880,240
67,46,56880,240
75,59,57120,480
87,71,57120,480
86,63,57600,480
74,52,57600,480
72,45,58080,480
84,53,58080,480
82,53,58560,240
70,44,58560,240
74,46,59040,120
74,48,59200,120
74,50,59360,120
74,51,59520,120
74,49,59680,120
74,47,59840,120
74,51,60000,120
72,46,60120,120
74,47,60240,120
75,47,60360,120
74,53,60480,240
86,52,62160,120
84,63,62400,240
83,37,62640,120
83,43,62880,120
83,37,63120,120
83,55,63360,120
84,49,63480,120
91,59,63600,240
89,50,63840,120
87,45,63960,120
86,45,64080,120
84,45,64200,120
84,63,64320,240
83,37,64560,120
83,44,64800,120
83,37,65040,120
83,57,65280,240
84,47,65520,120
87,54,66000,240
84,63,66240,240
82,52,66480,120
82,54,66720,120
82,54,66960,120
84,63,67200,240
82,53,67440,120
82,55,67680,120
82,55,67920,120
79,63,68160,120
77,52,68280,120
76,53,68400,120
77,53,68520,120
75,58,68640,120
72,54,68880,120
70,58,69120,120
74,55,69360,120
77,55,69600,120
82,55,69840,120
86,60,70080,240
84,58,70320,120
84,61,70560,120
84,58,70800,120
79,63,71040,120
77,52,71160,120
76,53,71280,120
77,53,71400,120
72,58,71520,120
69,54,71760,120
86,65,72000,240
84,58,72240,120
84,61,72480,120
84,58,72720,120
79,63,72960,120
77,52,73080,120
76,53,73200,120
77,53,73320,120
72,58,73440,120
69,54,73680,120
81,54,73920,240
79,49,74160,120
79,52,74400,120
79,49,74640,120
86,53,74880,120
84,44,75000,120
83,45,75120,120
84,45,75240,120
79,49,75360,120
76,46,75600,120
81,54,75840,240
79,49,76080,120
79,52,76320,120
79,49,76560,120
86,53,76800,120
84,44,76920,120
83,45,77040,120
84,45,77160,120
79,49,77280,120
76,46,77520,120
74,53,77760,120
72,44,77880,120
71,45,78000,120
72,45,78120,120
67,49,78240,120
64,46,78480,120
67,52,80880,120
64,52,80880,120
72,52,80880,120
64,52,81120,120
72,52,81120,120
69,52,81120,120
64,52,81360,120
70,52,81360,120
72,52,81360,120
72,52,81600,480
69,34,81720,120
65,33,81840,120
69,33,81960,120
77,53,82080,480
69,39,82200,120
65,39,82320,120
69,39,82440,120
72,52,82560,120
76,52,82560,480
69,38,82680,120
64,38,82800,120
69,38,82920,120
70,51,83040,120
74,51,83040,480
65,34,83160,120
62,34,83280,120
65,34,83400,120
69,51,83520,120
74,51,83520,480
65,35,83640,120
62,35,83760,120
65,35,83880,120
69,49,84000,120
72,49,84000,480
65,35,84120,120
60,35,84240,120
65,35,84360,120
69,50,84480,120
72,50,84480,480
64,36,84600,120
60,36,84720,120
64,36,84840,120
67,49,84960,120
70,49,84960,480
64,34,85080,120
58,34,85200,120
64,34,85320,120
67,50,85440,120
70,50,85440,480
62,35,85560,120
58,35,85680,120
62,35,85800,120
65,49,85920,120
69,49,85920,480
62,35,86040,120
57,35,86160,120
62,35,86280,120
64,48,86400,120
69,48,86400,480
61,36,86520,120
57,36,86640,120
61,36,86760,120
67,47,86880,480
64,35,87000,120
57,35,87120,120
64,35,87240,120
67,48,87360,480
64,38,87480,120
57,42,87600,120
64,45,87720,120
65,52,87840,480
62,39,87960,120
57,39,88080,120
62,39,88200,120
64,49,88320,480
62,47,88800,480
64,52,90480,120
67,52,90480,120
72,52,90480,120
64,52,90720,120
69,52,90720,120
72,52,90720,120
64,52,90960,120
70,52,90960,120
72,52,90960,120
72,52,91200,480
69,37,91320,120
65,37,91440,120
69,37,91560,120
77,53,91680,480
69,40,91800,120
65,40,91920,120
69,42,92040,120
72,52,92160,120
76,52,92160,480
69,38,92280,120
64,38,92400,120
69,38,92520,120
70,51,92640,120
74,51,92640,480
65,34,92760,120
62,34,92880,120
65,34,93000,120
69,48,93120,120
74,48,93120,480
65,37,93240,120
62,37,93360,120
65,37,93480,120
69,49,93600,120
72,49,93600,480
65,35,93720,120
60,35,93840,120
65,35,93960,120
69,49,94080,120
72,49,94080,480
64,36,94200,120
60,36,94320,120
64,37,94440,120
67,49,94560,120
70,49,94560,480
64,35,94680,120
58,35,94800,120
64,35,94920,120
67,50,95040,120
70,50,95040,480
62,36,95160,120
58,36,95280,120
62,36,95400,120
65,49,95520,120
69,49,95520,480
62,36,95640,120
57,36,95760,120
62,36,95880,120
64,48,96000,120
69,48,96000,480
61,36,96120,120
57,36,96240,120
61,36,96360,120
67,47,96480,480
64,37,96600,120
57,37,96720,120
64,37,96840,120
67,48,96960,480
64,38,97080,120
57,42,97200,120
64,45,97320,120
66,52,97440,480
62,43,97560,120
57,44,97680,120
62,44,97800,120
64,49,97920,480
62,40,98040,120
59,38,98160,120
62,36,98280,120
66,45,98400,480
61,33,98520,120
57,33,98640,120
61,33,98760,120
62,43,98880,480
57,35,99000,120
54,35,99120,120
57,35,99240,120
64,49,99360,480
59,35,99480,120
55,35,99600,120
59,35,99720,120
66,49,99840,480
60,35,99960,120
57,36,100080,120
60,36,100200,120
66,52,100320,480
60,38,100440,120
57,38,100560,120
60,39,100680,120
66,56,100800,480
60,39,100920,120
57,39,101040,120
60,38,101160,120
67,52,101280,480
62,37,101400,120
59,36,101520,120
62,35,101640,120
66,49,101760,480
62,35,101880,120
57,35,102000,120
62,35,102120,120
64,49,102240,480
61,35,102360,120
57,35,102480,120
61,35,102600,120
66,47,102720,480
62,35,102840,120
60,35,102960,120
62,35,103080,120
67,49,103200,480
64,35,103320,120
60,35,103440,120
64,35,103560,120
69,49,103680,480
66,35,103800,120
60,36,103920,120
66,36,104040,120
69,52,104160,480
66,38,104280,120
60,38,104400,120
66,39,104520,120
69,56,104640,480
66,39,104760,120
60,39,104880,120
66,38,105000,120
71,52,105120,480
67,37,105240,120
59,36,105360,120
67,35,105480,120
69,49,105600,480
66,35,105720,120
62,35,105840,120
66,35,105960,120
69,49,106080,480
64,35,106200,120
61,35,106320,120
64,35,106440,120
69,42,106560,480
66,31,106680,120
62,31,106800,120
66,31,106920,120
74,39,107040,480
69,31,107160,120
62,31,107280,120
69,31,107400,120
73,44,107520,480
69,31,107640,120
64,32,107760,120
69,32,107880,120
76,40,108000,480
69,34,108120,120
64,33,108240,120
69,33,108360,120
69,39,108480,480
66,32,108600,120
62,32,108720,120
66,32,108840,120
71,39,108960,480
67,31,109080,120
62,31,109200,120
67,31,109320,120
69,40,109440,480
67,31,109560,120
64,31,109680,120
67,31,109800,120
69,38,109920,480
67,31,110040,120
61,31,110160,120
67,31,110280,120
69,42,110400,480
66,31,110520,120
62,31,110640,120
66,31,110760,120
74,39,110880,480
69,31,111000,120
62,31,111120,120
69,31,111240,120
73,44,111360,480
69,31,111480,120
64,32,111600,120
69,32,111720,120
76,40,111840,480
69,34,111960,120
64,33,112080,120
69,33,112200,120
69,40,112320,480
66,32,112440,120
62,32,112560,120
66,32,112680,120
70,39,112800,480
67,31,112920,120
62,31,113040,120
67,31,113160,120
69,39,113280,480
67,31,113400,120
64,31,113520,120
67,31,113640,120
69,38,113760,480
67,31,113880,120
61,31,114000,120
67,31,114120,120
69,44,114240,480
66,31,114360,120
62,31,114480,120
66,31,114600,120
70,37,114720,480
67,29,114840,120
62,28,114960,120
67,28,115080,120
69,36,115200,480
67,28,115320,120
64,28,115440,120
67,28,115560,120
69,34,115680,480
67,28,115800,120
61,28,115920,120
67,28,116040,120
69,36,116160,480
65,28,116280,120
62,28,116400,120
65,28,116520,120
69,34,116640,480
65,28,116760,120
60,28,116880,120
65,28,117000,120
69,36,117120,480
64,28,117240,120
60,28,117360,120
64,28,117480,120
67,34,117600,480
64,28,117720,120
60,28,117840,120
64,28,117960,120
67,36,118080,480
63,28,118200,120
60,28,118320,120
63,28,118440,120
67,34,118560,480
63,28,118680,120
58,28,118800,120
63,28,118920,120
67,36,119040,480
62,28,119160,120
58,28,119280,120
62,28,119400,120
65,34,119520,480
62,28,119640,120
58,28,119760,120
62,28,119880,120
65,42,120000,480
62,32,120120,120
58,32,120240,120
62,32,120360,120
65,39,120480,480
62,33,120600,120
57,33,120720,120
62,33,120840,120
65,44,120960,480
60,34,121080,120
57,34,121200,120
60,34,121320,120
64,43,121440,480
60,35,121560,120
57,35,121680,120
60,35,121800,120
64,46,121920,480
60,34,122040,120
57,36,122160,120
60,38,122280,120
72,50,122400,480
67,38,122520,120
64,38,122640,120
67,38,122760,120
72,51,122880,480
69,38,123000,120
65,37,123120,120
69,34,123240,120
72,43,123360,480
70,35,123480,120
64,35,123600,120
70,35,123720,120
72,52,123840,480
69,38,123960,120
65,38,124080,120
69,38,124200,120
77,53,124320,480
69,43,124440,120
65,44,124560,120
69,44,124680,120
72,52,124800,120
76,52,124800,480
69,38,124920,120
64,38,125040,120
69,38,125160,120
70,51,125280,120
74,51,125280,480
65,34,125400,120
62,34,125520,120
65,34,125640,120
69,50,125760,120
74,50,125760,480
65,36,125880,120
62,36,126000,120
65,36,126120,120
69,49,126240,120
72,49,126240,480
65,35,126360,120
60,35,126480,120
65,35,126600,120
69,50,126720,120
72,50,126720,480
64,36,126840,120
60,36,126960,120
64,36,127080,120
67,49,127200,120
70,49,127200,480
64,35,127320,120
58,35,127440,120
64,35,127560,120
67,50,127680,120
70,50,127680,480
62,36,127800,120
58,36,127920,120
62,36,128040,120
65,49,128160,120
69,49,128160,480
62,36,128280,120
57,36,128400,120
62,36,128520,120
64,48,128640,120
69,48,128640,480
61,36,128760,120
57,36,128880,120
61,36,129000,120
67,47,129120,480
64,37,129240,120
57,37,129360,120
64,37,129480,120
67,48,129600,480
64,38,129720,120
57,42,129840,120
64,45,129960,120
65,52,130080,480
62,43,130200,120
57,44,130320,120
62,44,130440,120
67,49,130560,480
65,35,130680,120
62,35,130800,120
65,35,130920,120
69,45,131040,480
64,33,131160,120
60,33,131280,120
64,33,131400,120
65,47,131520,480
60,35,131640,120
57,35,131760,120
60,35,131880,120
67,49,132000,480
62,35,132120,120
58,35,132240,120
62,35,132360,120
69,49,132480,480
63,35,132600,120
60,36,132720,120
63,36,132840,120
69,52,132960,480
63,38,133080,120
60,38,133200,120
63,39,133320,120
69,53,133440,480
63,37,133560,120
60,36,133680,120
63,36,133800,120
70,49,133920,480
65,37,134040,120
62,36,134160,120
65,35,134280,120
69,49,134400,480
65,35,134520,120
60,35,134640,120
65,35,134760,120
67,49,134880,480
64,35,135000,120
60,35,135120,120
64,35,135240,120
69,47,135360,480
65,35,135480,120
63,35,135600,120
65,35,135720,120
70,49,135840,480
67,35,135960,120
63,35,136080,120
67,35,136200,120
72,49,136320,480
69,35,136440,120
63,36,136560,120
69,36,136680,120
72,52,136800,480
69,38,136920,120
63,38,137040,120
69,39,137160,120
72,56,137280,480
69,39,137400,120
63,39,137520,120
69,38,137640,120
74,52,137760,480
70,37,137880,120
62,36,138000,120
70,35,138120,120
72,49,138240,480
69,34,138360,120
65,34,138480,120
69,34,138600,120
72,47,138720,480
67,34,138840,120
64,33,138960,120
67,32,139080,120
72,42,139200,480
69,31,139320,120
65,31,139440,120
69,31,139560,120
77,39,139680,480
72,31,139800,120
65,31,139920,120
72,31,140040,120
76,44,140160,480
72,31,140280,120
67,32,140400,120
72,32,140520,120
79,40,140640,480
72,34,140760,120
67,33,140880,120
72,33,141000,120
72,44,141120,480
69,32,141240,120
65,32,141360,120
69,32,141480,120
74,39,141600,480
70,31,141720,120
65,31,141840,120
70,31,141960,120
72,40,142080,480
70,31,142200,120
67,31,142320,120
70,31,142440,120
72,38,142560,480
70,31,142680,120
64,31,142800,120
70,31,142920,120
72,42,143040,480
69,31,143160,120
65,31,143280,120
69,31,143400,120
77,39,143520,480
72,31,143640,120
65,31,143760,120
72,31,143880,120
76,44,144000,480
72,31,144120,120
67,32,144240,120
72,32,144360,120
79,40,144480,480
72,34,144600,120
67,33,144720,120
72,33,144840,120
72,44,144960,480
69,32,145080,120
65,32,145200,120
69,32,145320,120
73,39,145440,480
70,31,145560,120
65,31,145680,120
70,31,145800,120
72,39,145920,480
70,31,146040,120
67,31,146160,120
70,31,146280,120
72,38,146400,480
70,31,146520,120
64,31,146640,120
70,31,146760,120
68,89,148800,840
72,89,148800,840
77,106,148800,840
68,77,149640,114
72,77,149640,114
77,92,149640,114
68,81,149760,360
72,81,149760,360
80,96,149760,360
68,76,150120,114
72,76,150120,114
80,91,150120,114
68,81,150240,360
72,81,150240,360
77,96,150240,360
68,77,150600,114
72,77,150600,114
77,92,150600,114
65,81,150720,360
68,81,150720,360
72,96,150720,360
65,77,151080,114
68,77,151080,114
72,92,151080,114
60,77,151200,360
65,77,151200,360
68,91,151200,360
60,72,151560,114
65,72,151560,114
68,86,151560,114
56,77,151680,360
60,77,151680,360
65,91,151680,360
56,72,152040,114
60,72,152040,114
65,86,152040,114
56,77,152160,360
60,91,152160,360
56,71,152520,120
60,71,152520,120
65,85,152520,120
58,81,152640,120
61,81,152640,120
66,96,152640,120
78,61,152880,140
82,65,153000,140
85,68,153120,140
83,68,153240,140
82,67,153360,140
80,67,153480,140
78,68,153600,140
77,68,153720,140
75,67,153840,140
73,67,153960,140
71,67,154080,140
70,67,154200,140
68,67,154320,140
66,67,154440,140
68,67,154560,140
65,68,154680,140
66,72,154800,140
70,75,154920,140
73,74,155040,140
71,73,155160,140
70,73,155280,140
68,72,155400,140
66,71,155520,140
65,71,155640,140
63,72,155760,140
61,73,155880,140
59,74,156000,140
58,75,156120,140
56,76,156240,140
54,79,156360,120
49,86,156480,240
54,86,156480,240
58,74,156720,480
61,74,156720,480
66,88,156720,480
61,73,157200,480
66,73,157200,480
70,87,157200,480
66,69,157680,120
70,69,157680,120
73,81,157680,120
70,71,157920,120
73,71,157920,120
78,85,157920,120
73,74,158160,120
78,74,158160,120
82,88,158160,120
58,75,158400,240
64,75,158400,240
67,86,158400,240
64,74,158640,480
67,74,158640,480
70,88,158640,480
67,73,159120,480
70,73,159120,480
76,87,159120,480
70,69,159600,120
76,69,159600,120
79,81,159600,120
76,71,159840,120
79,71,159840,120
82,85,159840,120
79,74,160080,120
82,74,160080,120
88,88,160080,120
77,89,160320,840
80,89,160320,840
84,89,160320,840
89,106,160320,840
77,77,161160,120
89,92,161160,120
80,81,161280,360
92,96,161280,360
80,76,161640,120
92,91,161640,120
77,81,161760,360
89,96,161760,360
77,77,162120,120
89,92,162120,120
73,81,162240,360
85,96,162240,360
73,77,162600,120
85,92,162600,120
68,77,162720,360
80,91,162720,360
68,72,163080,120
80,86,163080,120
69,77,163200,360
81,91,163200,360
69,72,163560,120
81,86,163560,120
65,77,163680,360
77,91,163680,360
65,71,164040,120
77,85,164040,120
70,79,164160,840
73,79,164160,840
77,79,164160,840
82,94,164160,840
82,73,165000,120
94,87,165000,120
85,77,165120,360
97,91,165120,360
85,72,165480,120
97,86,165480,120
82,77,165600,360
94,91,165600,360
82,73,165960,120
94,87,165960,120
78,77,166080,360
90,91,166080,360
78,73,166440,120
90,87,166440,120
77,73,166560,360
89,86,166560,360
77,68,166920,120
89,80,166920,120
76,73,167040,360
88,86,167040,360
76,68,167400,120
88,80,167400,120
84,73,167520,360
96,86,167520,360
84,67,167880,120
96,79,167880,120
77,79,168000,840
80,79,168000,840
84,79,168000,840
89,94,168000,840
77,73,168840,120
89,87,168840,120
80,77,168960,360
92,91,168960,360
80,72,169320,120
92,86,169320,120
77,77,169440,360
89,91,169440,360
77,73,169800,120
89,87,169800,120
73,77,169920,360
85,91,169920,360
73,73,170280,120
85,87,170280,120
68,73,170400,360
80,86,170400,360
68,68,170760,120
80,80,170760,120
72,73,170880,360
84,86,170880,360
72,68,171240,120
84,80,171240,120
68,73,171360,360
80,86,171360,360
68,67,171720,120
80,79,171720,120
73,79,171840,840
77,79,171840,840
80,79,171840,840
85,94,171840,840
73,69,172680,120
85,81,172680,120
77,73,172800,360
89,86,172800,360
77,68,173160,120
89,80,173160,120
73,73,173280,360
85,86,173280,360
73,69,173640,120
85,81,173640,120
72,73,173760,360
84,86,173760,360
72,69,174120,120
84,81,174120,120
70,69,174240,360
82,80,174240,360
70,64,174600,120
82,76,174600,120
72,69,174720,360
84,80,174720,360
72,64,175080,120
84,76,175080,120
72,69,175200,360
84,80,175200,360
72,63,175560,120
84,75,175560,120
72,66,175680,360
84,76,175680,360
72,57,176040,120
84,68,176040,120
72,60,176160,360
84,71,176160,360
72,51,176520,120
84,61,176520,120
77,58,176640,480
77,43,177480,120
81,48,177600,360
81,43,177960,120
77,48,178080,360
77,42,178440,120
72,48,178560,360
72,43,178920,120
69,48,179040,360
69,43,179400,120
70,48,179520,360
70,42,179880,120
67,48,180000,360
67,42,180360,120
72,48,180480,360
77,36,180840,120
72,45,180960,240
77,43,181320,120
81,48,181440,360
81,45,181800,120
84,52,181920,360
84,48,182280,120
89,52,182400,360
89,50,182760,120
91,56,182880,360
91,49,183240,120
93,55,183360,360
93,48,183720,120
96,54,183840,360
96,47,184200,120
93,53,184320,240
77,43,185160,120
81,48,185280,360
81,43,185640,120
77,48,185760,360
77,42,186120,120
72,48,186240,360
72,43,186600,120
69,48,186720,360
69,43,187080,120
72,48,187200,360
72,42,187560,120
70,48,187680,360
70,42,188040,120
69,48,188160,360
77,36,188520,120
72,45,188640,240
77,43,189000,120
81,48,189120,360
81,45,189480,120
84,52,189600,360
84,48,189960,120
89,52,190080,360
89,50,190440,120
91,56,190560,360
91,49,190920,120
93,55,191040,360
93,48,191400,120
96,54,191520,360
96,47,191880,120
101,53,192000,240
88,43,192840,120
89,48,192960,360
89,45,193320,120
87,52,193440,360
87,48,193800,120
84,52,193920,360
84,50,194280,120
81,56,194400,360
81,49,194760,120
84,55,194880,360
84,48,195240,120
85,54,195360,360
85,47,195720,120
86,55,195840,360
86,47,196200,120
86,52,196320,360
86,44,196680,120
86,51,196800,360
86,43,197160,120
86,48,197280,360
86,40,197640,120
86,47,197760,240
74,48,198600,90
75,53,198720,240
74,49,198960,240
74,51,199200,120
74,49,199440,120
74,47,199680,240
93,43,200520,120
94,48,200640,360
94,45,201000,120
92,52,201120,360
92,48,201480,120
89,52,201600,360
89,48,201960,120
86,54,202080,360
86,49,202440,120
89,54,202560,360
89,48,202920,120
90,54,203040,360
90,47,203400,120
91,55,203520,360
91,47,203880,120
91,52,204000,360
91,44,204360,120
91,51,204480,360
91,43,204840,120
91,48,204960,360
91,40,205320,120
91,47,205440,240
79,48,206280,90
80,53,206400,240
79,49,206640,120
79,51,206880,120
79,49,207120,120
79,47,207360,240
94,48,208200,90
92,53,208320,240
91,49,208560,120
91,51,208800,120
91,49,209040,120
91,47,209280,240
67,48,210120,90
68,53,210240,240
67,49,210480,120
67,51,210720,120
67,49,210960,120
67,47,211200,240
82,48,212040,90
80,53,212160,240
79,49,212400,120
79,51,212640,120
79,49,212880,120
80,53,213120,240
79,49,213360,120
79,51,213600,120
79,49,213840,120
79,53,214080,240
74,52,215880,90
72,63,216000,240
71,37,216240,120
71,43,216480,120
71,37,216720,120
71,55,216960,240
72,40,217200,120
75,51,217800,90
72,63,217920,240
71,37,218160,120
71,44,218400,120
71,37,218640,120
71,57,218880,240
72,47,219120,120
75,54,219720,90
72,63,219840,240
70,52,220080,120
70,54,220320,120
70,54,220560,120
72,63,220800,240
70,53,221040,120
70,55,221280,120
70,55,221520,120
72,63,221760,120
70,52,221880,120
69,53,222000,120
70,53,222120,120
72,58,222240,120
74,54,222480,120
70,58,222720,240
86,52,224520,90
84,64,224640,240
83,37,224880,120
83,43,225120,120
83,37,225360,120
83,55,225600,240
84,42,225840,120
87,51,226440,90
84,64,226560,240
83,37,226800,120
83,44,227040,120
83,37,227280,120
83,57,227520,240
84,47,227760,120
87,54,228360,90
84,64,228480,240
82,52,228720,120
82,54,228960,120
82,54,229200,120
84,64,229440,240
82,53,229680,120
82,55,229920,120
82,55,230160,120
84,64,230400,120
82,52,230520,120
81,53,230640,120
82,53,230760,120
84,58,230880,120
86,54,231120,120
82,58,231360,240
74,57,232080,120
79,60,232320,480
75,60,232800,480
72,60,233280,480
74,60,233760,120
75,58,234000,120
77,57,234240,120
79,53,234360,120
77,53,234480,120
75,53,234600,120
74,59,234720,120
75,52,234840,120
74,52,234960,120
72,53,235080,120
70,60,235200,720
70,57,235920,120
75,60,236160,480
72,60,236640,480
69,60,237120,480
62,54,237600,120
74,65,237600,120
60,49,237840,120
72,58,237840,120
60,55,238080,240
72,66,238080,240
58,51,238320,120
70,60,238320,120
57,56,238560,120
69,67,238560,120
55,52,238800,120
67,61,238800,120
58,61,239040,240
70,73,239040,240
69,66,239280,120
57,55,239280,120
55,59,239520,120
67,71,239520,120
54,55,239760,120
66,66,239760,120
55,60,240000,240
67,72,240000,240
62,69,240480,720
74,81,240480,720
63,53,241200,120
75,64,241200,120
62,57,241440,120
74,68,241440,120
60,53,241680,120
72,64,241680,120
60,58,241920,240
72,69,241920,240
58,53,242160,120
70,64,242160,120
57,58,242400,120
69,69,242400,120
55,53,242640,120
67,64,242640,120
56,60,242880,480
68,72,242880,480
54,55,243360,480
66,66,243360,480
55,59,243840,240
67,71,243840,240
70,64,244560,120
82,76,244560,120
69,71,244800,240
81,84,244800,240
67,54,245040,120
79,65,245040,120
67,59,245280,120
79,71,245280,120
67,53,245520,120
79,64,245520,120
67,70,245760,240
79,82,245760,240
66,64,246000,120
78,76,246000,120
67,64,246480,120
79,76,246480,120
65,71,246720,240
77,84,246720,240
64,54,246960,120
76,65,246960,120
63,59,247200,120
75,71,247200,120
63,53,247440,120
75,64,247440,120
63,70,247680,240
75,82,247680,240
62,64,247920,120
74,76,247920,120
74,66,248160,480
86,78,248160,480
75,65,248640,480
87,77,248640,480
73,57,249120,480
85,69,249120,480
74,57,249600,480
86,69,249600,480
83,81,250080,160
71,69,250240,160
83,69,250400,160
84,78,250560,160
72,69,250720,160
84,69,250880,160
81,76,251040,160
69,69,251200,160
81,69,251360,160
82,77,251520,160
70,70,251680,160
82,70,251840,160
79,61,252000,160
81,77,252000,160
69,70,252160,160
79,55,252320,160
81,70,252320,160
79,61,252480,160
81,77,252480,160
69,70,252640,160
79,55,252800,160
81,70,252800,160
79,61,252960,160
81,77,252960,160
69,70,253120,160
79,57,253280,160
81,72,253280,160
78,73,253440,480
81,77,253440,480
74,69,254160,240
86,81,254160,240
75,68,254400,480
87,80,254400,480
73,61,254880,480
85,75,254880,480
74,61,255360,480
86,75,255360,480
74,44,256080,240
86,52,256080,240
72,53,256320,240
84,64,256320,240
71,35,256560,120
83,42,256560,120
71,40,256800,120
83,48,256800,120
71,35,257040,120
83,43,257040,120
71,47,257280,240
83,55,257280,240
72,35,257520,120
84,42,257520,120
72,69,258000,240
84,81,258000,240
73,68,258240,480
85,80,258240,480
71,59,258720,480
83,72,258720,480
72,59,259200,480
84,72,259200,480
72,44,259920,240
84,52,259920,240
70,53,260160,240
82,64,260160,240
69,35,260400,120
81,42,260400,120
69,40,260640,120
81,48,260640,120
69,35,260880,120
81,43,260880,120
69,47,261120,240
81,55,261120,240
70,35,261360,120
82,42,261360,120
74,44,261840,240
77,47,262080,160
75,40,262240,160
65,40,262400,160
77,47,262560,160
72,39,262720,160
65,40,262880,160
77,47,263040,160
74,42,263200,160
65,40,263360,160
82,47,263520,160
77,38,263680,160
70,38,263840,160
84,47,264000,160
77,39,264160,160
72,39,264320,160
81,47,264480,160
77,38,264640,160
69,38,264800,160
82,47,264960,160
77,39,265120,160
70,40,265280,160
77,44,265440,160
74,37,265600,160
65,37,265760,160
77,47,265920,160
75,40,266080,160
65,40,266240,160
77,47,266400,160
72,39,266560,160
65,40,266720,160
77,47,266880,160
74,42,267040,160
65,40,267200,160
82,47,267360,160
77,38,267520,160
70,38,267680,160
84,47,267840,160
77,39,268000,160
72,39,268160,160
81,47,268320,160
77,38,268480,160
69,38,268640,160
82,47,268800,160
77,39,268960,160
70,40,269120,160
77,75,269280,160
74,66,269440,160
65,65,269600,160
65,73,269760,480
68,73,269760,480
75,87,269760,240
73,76,270000,120
65,67,270240,120
71,80,270240,120
73,80,270240,120
65,59,270480,120
71,71,270480,120
73,71,270480,120
66,65,270720,480
70,65,270720,480
73,77,270720,240
78,71,270960,240
82,80,271200,160
85,60,271360,160
90,60,271520,160
85,65,271680,160
92,77,271680,160
80,61,271840,160
85,51,272000,160
92,61,272000,160
85,66,272160,160
89,78,272160,160
77,58,272320,160
85,48,272480,160
89,57,272480,160
85,63,272640,160
90,74,272640,160
78,59,272800,160
85,50,272960,160
90,59,272960,160
78,75,273360,120
65,73,273600,480
68,73,273600,480
75,87,273600,240
73,76,273840,120
65,67,274080,120
71,80,274080,120
73,80,274080,120
65,59,274320,120
71,71,274320,120
73,71,274320,120
66,65,274560,480
70,65,274560,480
73,77,274560,240
78,71,274800,240
82,80,275040,160
85,60,275200,160
90,60,275360,160
85,65,275520,160
92,77,275520,160
80,61,275680,160
85,51,275840,160
92,61,275840,160
85,66,276000,160
89,78,276000,160
77,58,276160,160
85,48,276320,160
89,57,276320,160
85,65,276480,160
90,77,276480,160
78,61,276640,160
85,51,276800,160
90,61,276800,160
78,66,276960,160
85,78,276960,160
73,58,277120,160
85,57,277280,160
82,65,277440,160
89,77,277440,160
77,61,277600,160
82,51,277760,160
89,61,277760,160
82,66,277920,160
86,78,277920,160
74,58,278080,160
82,48,278240,160
86,57,278240,160
82,65,278400,160
87,77,278400,160
75,61,278560,160
82,51,278720,160
87,61,278720,160
75,66,278880,160
82,78,278880,160
70,58,279040,160
75,53,279200,160
82,57,279200,160
63,72,279480,120
66,73,279600,120
71,75,279720,120
75,76,279840,120
78,77,279960,120
83,79,280080,120
87,80,280200,120
88,89,280320,480
76,75,280320,480
78,75,280320,480
85,81,280800,480
78,69,280800,480
73,69,280800,480
63,72,281400,120
66,73,281520,120
71,75,281640,120
75,76,281760,120
78,77,281880,120
83,79,282000,120
87,80,282120,120
76,75,282240,480
78,75,282240,480
88,89,282240,480
73,69,282720,480
85,81,282720,480
78,69,282720,480
63,72,283320,120
66,73,283440,120
71,75,283560,120
75,76,283680,120
78,77,283800,120
83,79,283920,120
87,80,284040,120
89,89,284160,240
77,64,284160,240
87,66,284400,120
78,66,284400,120
90,78,284400,120
78,66,284640,120
87,66,284640,120
90,78,284640,120
78,66,284880,120
87,66,284880,120
90,78,284880,120
62,72,285240,120
65,73,285360,120
70,74,285480,120
74,75,285600,120
77,75,285720,120
82,77,285840,120
86,77,285960,120
75,72,286080,480
77,72,286080,480
87,86,286080,480
72,65,286560,480
84,77,286560,480
77,65,286560,480
62,67,287160,120
65,67,287280,120
70,69,287400,120
74,69,287520,120
77,70,287640,120
82,71,287760,120
86,72,287880,120
75,67,288000,480
77,67,288000,480
87,78,288000,480
72,59,288480,480
84,70,288480,480
77,59,288480,480
62,60,289080,120
65,61,289200,120
70,63,289320,120
74,64,289440,120
77,64,289560,120
82,66,289680,120
86,66,289800,120
75,61,289920,480
77,61,289920,480
87,72,289920,480
72,54,290400,480
84,65,290400,480
77,54,290400,480
62,55,291000,120
65,55,291120,120
70,57,291240,120
74,57,291360,120
77,58,291480,120
82,59,291600,120
86,59,291720,120
88,65,291840,240
76,47,291840,240
86,47,292080,120
77,47,292080,120
89,56,292080,120
77,47,292320,120
86,47,292320,120
89,56,292320,120
77,46,292560,120
86,46,292560,120
89,55,292560,120
61,50,292920,120
64,51,293040,120
69,52,293160,120
73,53,293280,120
76,53,293400,120
81,55,293520,120
85,55,293640,120
86,61,293760,240
74,44,293760,240
84,46,294000,120
75,46,294000,120
87,54,294000,120
75,46,294240,120
84,46,294240,120
87,54,294240,120
75,46,294480,120
84,46,294480,120
87,54,294480,120
59,50,294840,120
62,51,294960,120
67,52,295080,120
71,53,295200,120
74,53,295320,120
79,55,295440,120
83,55,295560,120
74,52,295680,480
78,52,295680,480
86,61,295680,480
72,48,296160,480
84,56,296160,480
78,48,296160,480
59,49,296760,120
62,48,296880,120
67,48,297000,120
71,47,297120,120
74,46,297240,120
79,47,297360,120
83,45,297480,120
74,42,297600,480
78,42,297600,480
86,49,297600,480
72,37,298080,480
84,45,298080,480
78,37,298080,480
71,37,298560,240
79,37,298560,240
83,45,298560,240
74,52,300240,120
72,63,300480,240
71,37,300720,120
71,43,300960,120
71,37,301200,120
71,55,301440,120
72,49,301560,120
79,59,301680,240
77,50,301920,120
75,45,302040,120
74,45,302160,120
72,45,302280,120
72,63,302400,240
71,37,302640,120
71,44,302880,120
71,37,303120,120
71,57,303360,240
72,47,303600,120
75,54,304080,240
72,63,304320,240
70,52,304560,120
70,54,304800,120
70,54,305040,120
72,63,305280,240
70,53,305520,120
70,55,305760,120
70,55,306000,120
72,63,306240,120
70,52,306360,120
69,53,306480,120
70,53,306600,120
72,58,306720,120
74,54,306960,120
70,58,307200,240
74,57,307920,120
79,60,308160,480
75,60,308640,480
72,60,309120,480
74,60,309600,120
75,58,309840,120
77,57,310080,120
79,53,310200,120
77,53,310320,120
75,53,310440,120
74,59,310560,120
75,52,310680,120
74,52,310800,120
72,53,310920,120
70,60,311040,720
70,46,311760,120
75,48,312000,480
72,48,312480,480
68,48,312960,480
70,48,313440,120
72,46,313680,120
75,48,313920,480
73,48,314400,240
72,48,314640,240
70,48,314880,480
72,48,315360,120
73,46,315600,120
75,46,315840,120
77,42,315960,120
75,42,316080,120
73,42,316200,120
72,47,316320,120
73,42,316440,120
72,42,316560,120
70,42,316680,120
68,48,316800,480
70,48,317280,120
72,44,317520,120
75,48,317760,240
73,48,318000,120
73,48,318240,120
75,44,318360,120
73,44,318480,120
72,44,318600,120
70,48,318720,240
75,49,318960,120
77,53,319200,120
79,56,319440,120
80,59,319680,960
68,50,319680,960
72,51,320640,720
84,60,320640,720
80,55,321360,240
68,47,321360,240
68,50,321600,480
80,59,321600,480
67,47,322080,960
79,55,322080,960
67,48,323040,480
79,57,323040,480
67,52,323520,240
79,63,323520,240
65,48,323760,240
77,59,323760,240
70,49,324000,960
82,58,324000,960
69,51,324960,480
81,61,324960,480
69,51,325440,240
81,61,325440,240
79,54,325680,240
67,46,325680,240
87,71,325920,480
75,59,325920,480
86,63,326400,480
74,52,326400,480
84,53,326880,480
72,45,326880,480
70,44,327360,240
82,53,327360,240
74,46,327840,120
74,48,328000,120
74,50,328160,120
74,51,328320,120
74,49,328480,120
74,47,328640,120
74,51,328800,120
72,46,328920,120
74,47,329040,120
75,47,329160,120
74,53,329280,240
86,52,330960,120
84,63,331200,240
83,37,331440,120
83,43,331680,120
83,37,331920,120
83,55,332160,120
84,49,332280,120
91,59,332400,240
89,50,332640,120
87,45,332760,120
86,45,332880,120
84,45,333000,120
84,63,333120,240
83,37,333360,120
83,44,333600,120
83,37,333840,120
83,57,334080,240
84,47,334320,120
87,54,334800,240
84,63,335040,240
82,52,335280,120
82,54,335520,120
82,54,335760,120
84,63,336000,240
82,53,336240,120
82,55,336480,120
82,55,336720,120
79,63,336960,120
77,52,337080,120
76,53,337200,120
77,53,337320,120
75,58,337440,120
72,54,337680,120
70,58,337920,120
74,55,338160,120
77,55,338400,120
82,55,338640,120
86,60,338880,240
84,58,339120,120
84,61,339360,120
84,58,339600,120
79,63,339840,120
77,52,339960,120
76,53,340080,120
77,53,340200,120
72,58,340320,120
69,54,340560,120
86,65,340800,240
84,58,341040,120
84,61,341280,120
84,58,341520,120
79,63,341760,120
77,52,341880,120
76,53,342000,120
77,53,342120,120
72,58,342240,120
69,54,342480,120
65,46,342720,120
69,52,343920,120
72,52,343920,120
77,52,343920,120
69,52,344160,120
74,52,344160,120
77,52,344160,120
69,52,344400,120
75,52,344400,120
77,52,344400,120
77,52,344640,480
74,34,344760,120
70,33,344880,120
74,33,345000,120
82,53,345120,480
74,39,345240,120
70,39,345360,120
74,39,345480,120
77,52,345600,120
81,52,345600,480
74,38,345720,120
69,38,345840,120
74,38,345960,120
75,51,346080,120
79,51,346080,480
70,34,346200,120
67,34,346320,120
70,34,346440,120
74,51,346560,120
79,51,346560,480
70,35,346680,120
67,35,346800,120
70,35,346920,120
74,49,347040,120
77,49,347040,480
70,35,347160,120
65,35,347280,120
70,35,347400,120
74,50,347520,120
77,50,347520,480
69,36,347640,120
65,36,347760,120
69,36,347880,120
72,49,348000,120
75,49,348000,480
69,34,348120,120
63,34,348240,120
69,34,348360,120
70,50,348480,120
75,50,348480,480
67,35,348600,120
63,35,348720,120
67,35,348840,120
70,49,348960,120
74,49,348960,480
67,35,349080,120
62,35,349200,120
67,35,349320,120
69,48,349440,120
74,48,349440,480
66,36,349560,120
62,36,349680,120
66,36,349800,120
72,47,349920,480
69,35,350040,120
62,35,350160,120
69,35,350280,120
72,48,350400,480
67,38,350520,120
62,42,350640,120
67,45,350760,120
70,52,350880,480
67,39,351000,120
62,39,351120,120
67,39,351240,120
69,49,351360,480
67,47,351840,480
69,52,353520,120
72,52,353520,120
77,52,353520,120
69,52,353760,120
74,52,353760,120
77,52,353760,120
69,52,354000,120
75,52,354000,120
77,52,354000,120
77,52,354240,480
74,37,354360,120
70,37,354480,120
74,37,354600,120
82,53,354720,480
74,40,354840,120
70,40,354960,120
74,42,355080,120
77,52,355200,120
81,52,355200,480
74,38,355320,120
69,38,355440,120
74,38,355560,120
75,51,355680,120
79,51,355680,480
70,34,355800,120
67,34,355920,120
70,34,356040,120
74,48,356160,120
79,48,356160,480
70,37,356280,120
67,37,356400,120
70,37,356520,120
74,49,356640,120
77,49,356640,480
70,35,356760,120
65,35,356880,120
70,35,357000,120
74,49,357120,120
77,49,357120,480
69,36,357240,120
65,36,357360,120
69,37,357480,120
72,49,357600,120
75,49,357600,480
69,35,357720,120
63,35,357840,120
69,35,357960,120
70,50,358080,120
75,50,358080,480
67,36,358200,120
63,36,358320,120
67,36,358440,120
70,49,358560,120
74,49,358560,480
67,36,358680,120
62,36,358800,120
67,36,358920,120
69,48,359040,120
74,48,359040,480
66,36,359160,120
62,36,359280,120
66,36,359400,120
72,47,359520,480
69,37,359640,120
62,37,359760,120
69,37,359880,120
72,48,360000,480
69,38,360120,120
62,42,360240,120
69,45,360360,120
71,52,360480,480
67,43,360600,120
62,44,360720,120
67,44,360840,120
69,49,360960,480
67,40,361080,120
64,38,361200,120
67,36,361320,120
71,45,361440,480
66,33,361560,120
62,33,361680,120
66,33,361800,120
67,43,361920,480
62,35,362040,120
59,35,362160,120
62,35,362280,120
69,49,362400,480
64,35,362520,120
60,35,362640,120
64,35,362760,120
71,49,362880,480
65,35,363000,120
62,36,363120,120
65,36,363240,120
71,52,363360,480
65,38,363480,120
62,38,363600,120
65,39,363720,120
71,56,363840,480
65,39,363960,120
62,39,364080,120
65,38,364200,120
72,52,364320,480
67,37,364440,120
64,36,364560,120
67,35,364680,120
71,49,364800,480
67,35,364920,120
62,35,365040,120
67,35,365160,120
69,49,365280,480
66,35,365400,120
62,35,365520,120
66,35,365640,120
71,47,365760,480
67,35,365880,120
65,35,366000,120
67,35,366120,120
72,49,366240,480
69,35,366360,120
65,35,366480,120
69,35,366600,120
74,49,366720,480
71,35,366840,120
65,36,366960,120
71,36,367080,120
74,52,367200,480
71,38,367320,120
65,38,367440,120
71,39,367560,120
74,56,367680,480
71,39,367800,120
65,39,367920,120
71,38,368040,120
76,52,368160,480
72,37,368280,120
64,36,368400,120
72,35,368520,120
74,49,368640,480
71,35,368760,120
67,35,368880,120
71,35,369000,120
74,49,369120,480
69,35,369240,120
66,35,369360,120
69,35,369480,120
74,42,369600,480
71,31,369720,120
67,31,369840,120
71,31,369960,120
79,39,370080,480
74,31,370200,120
67,31,370320,120
74,31,370440,120
78,44,370560,480
74,31,370680,120
69,32,370800,120
74,32,370920,120
81,40,371040,480
74,34,371160,120
69,33,371280,120
74,33,371400,120
74,39,371520,480
71,32,371640,120
67,32,371760,120
71,32,371880,120
76,39,372000,480
72,31,372120,120
67,31,372240,120
72,31,372360,120
74,40,372480,480
72,31,372600,120
69,31,372720,120
72,31,372840,120
74,38,372960,480
72,31,373080,120
66,31,373200,120
72,31,373320,120
74,42,373440,480
71,31,373560,120
67,31,373680,120
71,31,373800,120
79,39,373920,480
74,31,374040,120
67,31,374160,120
74,31,374280,120
78,44,374400,480
74,31,374520,120
69,32,374640,120
74,32,374760,120
81,40,374880,480
74,34,375000,120
69,33,375120,120
74,33,375240,120
74,40,375360,480
71,32,375480,120
67,32,375600,120
71,32,375720,120
75,39,375840,480
72,31,375960,120
67,31,376080,120
72,31,376200,120
74,39,376320,480
72,31,376440,120
69,31,376560,120
72,31,376680,120
74,38,376800,480
72,31,376920,120
66,31,377040,120
72,31,377160,120
74,44,377280,480
71,31,377400,120
67,31,377520,120
71,31,377640,120
75,37,377760,480
72,29,377880,120
67,28,378000,120
72,28,378120,120
74,36,378240,480
72,28,378360,120
69,28,378480,120
72,28,378600,120
74,34,378720,480
72,28,378840,120
66,28,378960,120
72,28,379080,120
74,36,379200,480
70,28,379320,120
67,28,379440,120
70,28,379560,120
74,34,379680,480
70,28,379800,120
65,28,379920,120
70,28,380040,120
74,36,380160,480
69,28,380280,120
65,28,380400,120
69,28,380520,120
72,34,380640,480
69,28,380760,120
65,28,380880,120
69,28,381000,120
72,36,381120,480
68,28,381240,120
65,28,381360,120
68,28,381480,120
72,34,381600,480
68,28,381720,120
63,28,381840,120
68,28,381960,120
72,36,382080,480
67,28,382200,120
63,28,382320,120
67,28,382440,120
70,34,382560,480
67,28,382680,120
63,28,382800,120
67,28,382920,120
70,42,383040,480
67,32,383160,120
63,32,383280,120
67,32,383400,120
70,39,383520,480
67,33,383640,120
62,33,383760,120
67,33,383880,120
70,44,384000,480
65,34,384120,120
62,34,384240,120
65,34,384360,120
69,43,384480,480
65,35,384600,120
62,35,384720,120
65,35,384840,120
69,46,384960,480
65,34,385080,120
60,36,385200,120
65,38,385320,120
77,50,385440,480
72,38,385560,120
69,38,385680,120
72,38,385800,120
77,51,385920,480
74,38,386040,120
70,37,386160,120
74,34,386280,120
77,43,386400,480
75,35,386520,120
69,35,386640,120
75,35,386760,120
77,52,386880,480
74,38,387000,120
70,38,387120,120
74,38,387240,120
82,53,387360,480
74,43,387480,120
70,44,387600,120
74,44,387720,120
77,52,387840,120
81,52,387840,480
74,38,387960,120
69,38,388080,120
74,38,388200,120
75,51,388320,120
79,51,388320,480
70,34,388440,120
67,34,388560,120
70,34,388680,120
74,50,388800,120
79,50,388800,480
70,36,388920,120
67,36,389040,120
70,36,389160,120
74,49,389280,120
77,49,389280,480
70,35,389400,120
65,35,389520,120
70,35,389640,120
74,50,389760,120
77,50,389760,480
69,36,389880,120
65,36,390000,120
69,36,390120,120
72,49,390240,120
75,49,390240,480
69,35,390360,120
63,35,390480,120
69,35,390600,120
70,50,390720,120
75,50,390720,480
67,36,390840,120
63,36,390960,120
67,36,391080,120
70,49,391200,120
74,49,391200,480
67,36,391320,120
62,36,391440,120
67,36,391560,120
69,48,391680,120
74,48,391680,480
66,36,391800,120
62,36,391920,120
66,36,392040,120
72,47,392160,480
69,37,392280,120
62,37,392400,120
69,37,392520,120
72,48,392640,480
67,38,392760,120
62,42,392880,120
67,45,393000,120
70,52,393120,480
67,43,393240,120
62,44,393360,120
67,44,393480,120
72,49,393600,480
70,35,393720,120
67,35,393840,120
70,35,393960,120
74,45,394080,480
69,33,394200,120
65,33,394320,120
69,33,394440,120
70,47,394560,480
65,35,394680,120
62,35,394800,120
65,35,394920,120
72,49,395040,480
67,35,395160,120
63,35,395280,120
67,35,395400,120
74,49,395520,480
68,35,395640,120
65,36,395760,120
68,36,395880,120
74,52,396000,480
68,38,396120,120
65,38,396240,120
68,39,396360,120
74,53,396480,480
68,37,396600,120
65,36,396720,120
68,36,396840,120
75,49,396960,480
70,37,397080,120
67,36,397200,120
70,35,397320,120
74,49,397440,480
70,35,397560,120
65,35,397680,120
70,35,397800,120
72,49,397920,480
69,35,398040,120
65,35,398160,120
69,35,398280,120
74,47,398400,480
70,35,398520,120
68,35,398640,120
70,35,398760,120
75,49,398880,480
72,35,399000,120
68,35,399120,120
72,35,399240,120
77,49,399360,480
74,35,399480,120
68,36,399600,120
74,36,399720,120
77,52,399840,480
74,38,399960,120
68,38,400080,120
74,39,400200,120
77,56,400320,480
74,39,400440,120
68,39,400560,120
74,38,400680,120
79,52,400800,480
75,37,400920,120
67,36,401040,120
75,35,401160,120
77,49,401280,480
74,34,401400,120
70,34,401520,120
74,34,401640,120
77,47,401760,480
72,34,401880,120
69,33,402000,120
72,32,402120,120
77,42,402240,480
74,31,402360,120
70,31,402480,120
74,31,402600,120
82,39,402720,480
77,31,402840,120
70,31,402960,120
77,31,403080,120
81,44,403200,480
77,31,403320,120
72,32,403440,120
77,32,403560,120
84,40,403680,480
77,34,403800,120
72,33,403920,120
77,33,404040,120
77,44,404160,480
74,32,404280,120
70,32,404400,120
74,32,404520,120
79,39,404640,480
75,31,404760,120
70,31,404880,120
75,31,405000,120
77,40,405120,480
75,31,405240,120
72,31,405360,120
75,31,405480,120
77,38,405600,480
75,31,405720,120
69,31,405840,120
75,31,405960,120
77,42,406080,480
74,31,406200,120
70,31,406320,120
74,31,406440,120
82,39,406560,480
77,31,406680,120
70,31,406800,120
77,31,406920,120
81,44,407040,480
77,31,407160,120
72,32,407280,120
77,32,407400,120
84,40,407520,480
77,34,407640,120
72,33,407760,120
77,33,407880,120
77,44,408000,480
74,32,408120,120
70,32,408240,120
74,32,408360,120
78,39,408480,480
75,31,408600,120
70,31,408720,120
75,31,408840,120
77,39,408960,480
75,31,409080,120
72,31,409200,120
75,31,409320,120
77,38,409440,480
75,31,409560,120
69,31,409680,120
75,31,409800,120
73,89,411840,840
77,89,411840,840
82,106,411840,840
73,77,412680,114
77,77,412680,114
82,92,412680,114
73,81,412800,360
77,81,412800,360
85,96,412800,360
73,76,413160,114
77,76,413160,114
85,91,413160,114
73,81,413280,360
77,81,413280,360
82,96,413280,360
73,77,413640,114
77,77,413640,114
82,92,413640,114
70,81,413760,360
73,81,413760,360
77,96,413760,360
70,77,414120,114
73,77,414120,114
77,92,414120,114
65,77,414240,360
70,77,414240,360
73,91,414240,360
65,72,414600,114
70,72,414600,114
73,86,414600,114
61,77,414720,360
65,77,414720,360
70,91,414720,360
61,72,415080,114
65,72,415080,114
70,86,415080,114
61,77,415200,360
65,91,415200,360
61,71,415560,120
65,71,415560,120
70,85,415560,120
63,81,415680,120
66,81,415680,120
71,96,415680,120
83,61,415920,140
87,65,416040,140
90,68,416160,140
88,68,416280,140
87,67,416400,140
85,67,416520,140
83,68,416640,140
82,68,416760,140
80,67,416880,140
78,67,417000,140
76,67,417120,140
75,67,417240,140
73,67,417360,140
71,67,417480,140
73,67,417600,140
70,68,417720,140
71,72,417840,140
75,75,417960,140
78,74,418080,140
76,73,418200,140
75,73,418320,140
73,72,418440,140
71,71,418560,140
70,71,418680,140
68,72,418800,140
66,73,418920,140
64,74,419040,140
63,75,419160,140
61,76,419280,140
59,79,419400,120
54,86,419520,240
59,86,419520,240
54,74,419760,480
59,74,419760,480
63,88,419760,480
59,73,420240,480
63,73,420240,480
66,87,420240,480
63,69,420720,120
66,69,420720,120
71,81,420720,120
66,71,420960,120
71,71,420960,120
75,85,420960,120
71,74,421200,120
75,74,421200,120
78,88,421200,120
63,75,421440,240
69,75,421440,240
72,86,421440,240
69,74,421680,480
72,74,421680,480
75,88,421680,480
72,73,422160,480
75,73,422160,480
81,87,422160,480
75,69,422640,120
81,69,422640,120
84,81,422640,120
81,71,422880,120
84,71,422880,120
87,85,422880,120
84,74,423120,120
87,74,423120,120
93,88,423120,120
82,89,423360,840
85,89,423360,840
89,89,423360,840
94,106,423360,840
82,77,424200,120
94,92,424200,120
85,81,424320,360
97,96,424320,360
85,76,424680,120
97,91,424680,120
82,81,424800,360
94,96,424800,360
82,77,425160,120
94,92,425160,120
78,81,425280,360
90,96,425280,360
78,77,425640,120
90,92,425640,120
73,77,425760,360
85,91,425760,360
73,72,426120,120
85,86,426120,120
74,77,426240,360
86,91,426240,360
74,72,426600,120
86,86,426600,120
70,77,426720,360
82,91,426720,360
70,71,427080,120
82,85,427080,120
75,79,427200,840
78,79,427200,840
82,79,427200,840
87,94,427200,840
75,73,428040,120
87,87,428040,120
78,77,428160,360
90,91,428160,360
78,72,428520,120
90,86,428520,120
75,77,428640,360
87,91,428640,360
75,73,429000,120
87,87,429000,120
71,77,429120,360
83,91,429120,360
71,73,429480,120
83,87,429480,120
70,73,429600,360
82,86,429600,360
70,68,429960,120
82,80,429960,120
69,73,430080,360
81,86,430080,360
69,68,430440,120
81,80,430440,120
77,73,430560,360
89,86,430560,360
77,67,430920,120
89,79,430920,120
70,79,431040,840
73,79,431040,840
77,79,431040,840
82,94,431040,840
82,73,431880,120
94,87,431880,120
85,77,432000,360
97,91,432000,360
85,72,432360,120
97,86,432360,120
82,77,432480,360
94,91,432480,360
82,73,432840,120
94,87,432840,120
78,77,432960,360
90,91,432960,360
78,73,433320,120
90,87,433320,120
73,73,433440,360
85,86,433440,360
73,68,433800,120
85,80,433800,120
77,73,433920,360
89,86,433920,360
77,68,434280,120
89,80,434280,120
73,73,434400,360
85,86,434400,360
73,67,434760,120
85,79,434760,120
78,79,434880,840
82,79,434880,840
85,79,434880,840
90,94,434880,840
78,69,435720,120
90,81,435720,120
82,73,435840,360
94,86,435840,360
82,68,436200,120
94,80,436200,120
78,73,436320,360
90,86,436320,360
78,69,436680,120
90,81,436680,120
77,73,436800,360
89,86,436800,360
77,69,437160,120
89,81,437160,120
75,69,437280,360
87,80,437280,360
75,64,437640,120
87,76,437640,120
77,69,437760,360
89,80,437760,360
77,64,438120,120
89,76,438120,120
77,69,438240,360
89,80,438240,360
77,63,438600,120
89,75,438600,120
77,66,438720,360
89,76,438720,360
77,57,439080,120
89,68,439080,120
77,60,439200,360
89,71,439200,360
77,51,439560,120
89,61,439560,120
82,58,439680,480
82,43,440520,120
86,48,440640,360
86,43,441000,120
82,48,441120,360
82,42,441480,120
77,48,441600,360
77,43,441960,120
74,48,442080,360
74,43,442440,120
75,48,442560,360
75,42,442920,120
72,48,443040,360
72,42,443400,120
77,48,443520,360
82,36,443880,120
77,45,444000,240
82,43,444360,120
86,48,444480,360
86,45,444840,120
89,52,444960,360
89,48,445320,120
94,52,445440,360
94,50,445800,120
96,56,445920,360
96,49,446280,120
98,55,446400,360
98,48,446760,120
101,54,446880,360
101,47,447240,120
98,53,447360,240
82,43,448200,120
86,48,448320,360
86,43,448680,120
82,48,448800,360
82,42,449160,120
77,48,449280,360
77,43,449640,120
74,48,449760,360
74,43,450120,120
77,48,450240,360
77,42,450600,120
75,48,450720,360
75,42,451080,120
74,48,451200,360
82,36,451560,120
77,45,451680,240
82,43,452040,120
86,48,452160,360
86,45,452520,120
89,52,452640,360
89,48,453000,120
94,52,453120,360
94,50,453480,120
96,56,453600,360
96,49,453960,120
98,55,454080,360
98,48,454440,120
101,54,454560,360
101,47,454920,120
94,53,455040,240
93,43,455880,120
94,48,456000,360
94,45,456360,114
92,52,456480,360
92,48,456840,114
89,52,456960,360
89,50,457320,114
86,56,457440,360
86,49,457800,120
89,55,457920,360
89,48,458280,120
90,54,458400,360
90,47,458760,120
91,55,458880,360
91,47,459240,114
91,52,459360,360
91,44,459720,114
91,51,459840,360
91,43,460200,114
91,48,460320,360
91,40,460680,114
91,47,460800,240
79,48,461640,90
80,53,461760,240
79,49,462000,120
79,51,462240,120
79,49,462480,120
79,47,462720,240
94,48,463560,90
92,53,463680,240
91,49,463920,120
91,51,464160,120
91,49,464400,120
91,47,464640,240
67,48,465480,90
68,53,465600,240
67,49,465840,120
67,51,466080,120
67,49,466320,120
67,47,466560,240
82,48,467400,90
80,53,467520,240
79,49,467760,120
79,51,468000,120
79,49,468240,120
80,53,468480,240
79,49,468720,120
79,51,468960,120
79,49,469200,120
79,53,469440,240
74,47,471120,240
72,56,471360,240
71,33,471600,120
71,37,471840,120
71,33,472080,120
71,49,472320,240
72,36,472560,120
75,46,473040,240
72,56,473280,240
71,33,473520,120
71,38,473760,120
71,33,474000,120
71,51,474240,240
72,42,474480,120
75,47,476880,240
72,56,477120,240
71,32,477360,120
71,37,477600,120
71,33,477840,120
71,47,478080,240
72,34,478320,120
75,44,478800,240
72,53,479040,240
71,31,479280,120
71,36,479520,120
71,30,479760,120
71,47,480000,240
72,37,480240,120
75,44,482640,240
72,53,482880,240
71,35,483120,120
71,40,483360,120
71,35,483600,120
71,47,483840,240
72,34,484080,120
75,43,484560,240
72,53,484800,240
71,35,485040,120
71,40,485280,120
71,35,485520,120
71,48,485760,240
72,39,486000,120
72,54,486240,240
79,48,486480,240
79,59,486720,240
77,51,486960,240
77,55,487200,240
74,52,487440,240
71,57,487680,240
72,47,487920,120
72,57,488160,240
79,50,488400,240
79,64,488640,240
77,55,488880,240
77,57,489120,240
74,52,489360,240
71,56,489600,240
72,44,489840,240
75,48,490080,240
69,40,490320,240
86,86,491280,240
74,72,491280,240
84,93,491520,240
72,77,491520,240
82,86,491760,120
70,72,491760,120
82,86,492000,120
70,72,492000,120
70,72,492240,120
82,86,492240,120
67,77,492480,240
79,93,492480,240
65,73,492720,120
77,88,492720,120
65,73,492960,120
77,88,492960,120
65,73,493200,120
77,88,493200,120
65,77,493440,240
75,93,493440,240
62,73,493680,120
74,88,493680,120
62,73,493920,120
74,88,493920,120
62,73,494160,120
74,88,494160,120
60,77,494400,240
72,92,494400,240
58,73,494640,120
70,88,494640,120
58,73,494880,120
70,88,494880,120
58,73,495120,120
70,88,495120,120
57,77,495360,240
69,92,495360,240
55,73,495600,120
67,88,495600,120
55,73,495840,120
67,88,495840,120
55,73,496080,120
67,88,496080,120
69,77,496320,240
81,92,496320,240
67,73,496560,120
79,88,496560,120
67,73,496800,120
79,88,496800,120
67,73,497040,120
79,88,497040,120
81,77,497280,240
93,92,497280,240
79,73,497520,120
91,88,497520,120
79,73,497760,120
91,88,497760,120
79,73,498000,120
91,88,498000,120
78,77,498240,240
90,92,498240,240
79,73,498480,120
91,88,498480,120
79,73,498720,120
91,88,498720,120
79,73,498960,120
91,88,498960,120
79,90,499200,480
82,90,499200,480
87,90,499200,480
91,107,499200,480
81,90,501120,480
87,90,501120,480
93,107,501120,480
82,103,503040,480
86,103,503040,480
94,120,503040,480
86,54,503760,240
75,46,503760,240
84,58,504000,240
77,49,504000,480
82,54,504240,120
82,54,504480,120
74,46,504480,120
74,46,504720,120
82,54,504720,120
75,49,504960,240
79,58,504960,240
77,55,505200,120
69,46,505440,120
77,55,505440,120
69,46,505680,120
77,55,505680,120
70,49,505920,480
75,58,505920,240
74,55,506160,120
64,46,506400,120
74,55,506400,120
64,46,506640,120
74,55,506640,120
65,49,506880,480
72,58,506880,240
70,55,507120,120
62,46,507360,120
70,55,507360,120
62,46,507600,120
70,55,507600,120
63,49,507840,480
67,58,507840,240
65,55,508080,120
57,46,508320,120
65,56,508320,120
57,47,508560,120
65,56,508560,120
63,50,508800,480
67,60,508800,240
65,58,509040,120
57,49,509280,120
65,58,509280,120
57,49,509520,120
65,59,509520,120
63,52,509760,480
67,63,509760,240
65,60,510000,120
57,51,510240,120
65,60,510240,120
65,61,510480,120
57,51,510480,120
57,47,510720,480
67,67,510720,240
63,47,510720,480
65,63,510960,120
70,71,511200,240
65,59,511200,480
63,59,511200,480
69,67,511440,120
74,75,511680,240
69,63,511680,480
63,63,511680,480
72,71,511920,120
69,64,512160,480
75,64,512160,480
79,76,512160,240
77,73,512400,120
77,69,512640,480
75,69,512640,480
82,80,512640,240
81,75,512880,120
75,70,513120,480
81,70,513120,480
86,84,513120,240
84,79,513360,120
81,76,513600,480
87,76,513600,480
91,90,513600,240
89,85,513840,120
87,82,514080,480
94,97,514080,240
89,82,514080,480
93,94,514320,120
94,113,514560,480
89,96,514560,480
86,96,514560,480
98,110,515520,480
89,92,515520,480
86,92,515520,480
94,110,515520,480
58,116,516480,480
67,94,0,1920
55,78,0,1920
55,42,1920,240
67,31,2160,120
62,26,2400,120
65,31,2400,120
67,32,2640,120
55,44,2880,240
67,28,3120,120
60,29,3360,120
63,35,3360,120
67,32,3600,120
55,42,3840,240
67,31,4080,120
62,26,4320,120
65,31,4320,120
67,29,4560,120
55,44,4800,240
67,32,5040,120
60,29,5280,180
63,35,5280,180
54,29,5280,180
66,35,5520,180
53,42,5760,240
65,35,6000,120
62,35,6240,120
65,36,6480,120
55,42,6720,240
64,36,6960,120
60,36,7200,120
64,36,7440,120
62,42,7680,240
53,35,7680,240
65,33,7920,240
63,35,8160,120
53,29,8160,120
65,34,8400,120
62,42,8640,240
58,42,8640,240
55,78,9120,1440
67,94,9120,1440
55,42,10560,240
67,31,10800,120
65,31,11040,120
62,26,11040,120
67,32,11280,120
55,44,11520,240
67,31,11760,120
60,29,12000,120
63,35,12000,120
67,32,12240,120
55,42,12480,240
67,31,12720,120
62,26,12960,120
65,31,12960,120
67,29,13200,120
55,44,13440,240
67,32,13680,120
54,29,13920,120
60,29,13920,120
63,35,13920,120
66,35,14160,120
53,42,14400,240
65,35,14640,120
62,35,14880,120
65,36,15120,120
55,42,15360,240
64,36,15600,120
60,36,15840,120
64,36,16080,120
53,35,16320,240
62,42,16320,240
65,33,16560,240
63,35,16800,120
53,29,16800,120
65,34,17040,120
58,42,17280,120
62,42,17280,120
57,38,17520,120
55,37,17760,120
53,36,18000,120
51,42,18240,120
55,36,18480,120
58,36,18480,120
48,36,18720,120
60,36,18960,120
55,36,18960,120
53,42,19200,120
57,35,19440,120
60,35,19440,120
51,36,19680,120
57,36,19920,120
60,36,19920,120
50,39,20160,240
58,34,20400,240
53,29,20400,240
46,34,20640,240
58,34,20880,240
53,29,20880,240
51,40,21120,240
55,29,21360,240
58,34,21360,240
50,34,21600,240
55,29,21840,240
58,34,21840,240
48,42,22080,240
51,30,22320,240
57,36,22320,240
45,36,22560,240
51,30,22800,240
57,36,22800,240
50,42,23040,240
57,35,23280,240
54,29,23280,240
42,42,23520,120
50,30,23760,120
54,36,23760,120
43,47,24000,120
55,39,24240,120
39,49,24480,120
51,44,24720,120
36,51,24960,120
48,46,25200,120
38,54,25440,120
50,45,25680,120
36,44,25920,240
51,52,25920,240
50,51,26400,1440
54,60,26400,1440
42,51,26400,1440
43,50,27840,240
55,45,28080,120
39,45,28320,240
51,45,28560,240
36,50,28800,240
48,45,29040,240
38,45,29280,240
50,45,29520,240
43,50,29760,240
31,42,29760,240
55,78,30240,1440
67,94,30240,1440
55,42,31680,240
67,31,31920,120
65,31,32160,120
62,26,32160,120
67,32,32400,120
55,44,32640,240
67,31,32880,240
63,35,33120,240
60,29,33120,240
67,32,33360,240
55,42,33600,240
67,31,33840,120
65,31,34080,120
62,26,34080,120
67,29,34320,120
55,44,34560,240
67,32,34800,120
54,29,35040,120
63,35,35040,120
60,29,35040,120
66,35,35280,240
53,42,35520,240
65,35,35760,120
62,35,36000,120
65,36,36240,120
55,42,36480,240
64,36,36720,120
60,36,36960,120
64,36,37200,120
62,42,37440,240
53,35,37440,240
65,33,37680,240
63,35,37920,120
53,29,37920,120
65,34,38160,120
58,42,38400,120
62,42,38400,120
57,38,38640,120
55,37,38880,120
53,36,39120,120
51,42,39360,120
58,36,39600,120
55,36,39600,120
48,36,39840,120
55,36,40080,120
60,36,40080,120
53,42,40320,120
60,35,40560,120
57,35,40560,120
51,36,40800,120
57,36,41040,120
60,36,41040,120
50,39,41280,240
58,34,41520,240
53,29,41520,240
46,34,41760,240
53,29,42000,240
58,34,42000,240
51,40,42240,240
58,34,42480,240
55,29,42480,240
50,34,42720,240
58,29,42960,240
55,29,42960,240
48,33,43200,240
60,29,43440,240
56,29,43440,240
51,29,43680,240
60,29,43920,240
56,29,43920,240
48,33,44160,240
60,28,44400,240
56,28,44400,240
51,29,44640,240
56,29,44880,240
60,29,44880,240
49,33,45120,240
55,29,45360,240
58,29,45360,240
51,29,45600,240
58,29,45840,240
55,29,45840,240
49,33,46080,240
58,28,46320,240
55,28,46320,240
51,29,46560,120
55,29,46800,120
58,29,46800,120
48,31,47040,120
60,27,47280,120
56,23,47280,120
51,27,47520,120
60,27,47760,120
56,23,47760,120
48,32,48000,120
56,23,48240,120
60,27,48240,120
51,32,48480,120
56,23,48720,120
60,27,48720,120
49,32,48960,240
55,29,49200,120
58,29,49200,120
51,32,49440,240
58,29,49680,240
55,29,49680,240
49,34,49920,240
58,29,50160,120
55,29,50160,120
51,31,50400,120
58,34,50640,120
55,34,50640,120
48,37,50880,240
56,27,51120,240
60,32,51120,240
51,32,51360,240
56,27,51600,240
60,32,51600,240
48,37,51840,240
60,32,52080,240
56,27,52080,240
51,32,52320,240
60,32,52560,240
56,27,52560,240
49,37,52800,240
58,32,53040,240
55,27,53040,240
52,32,53280,240
55,27,53520,240
58,32,53520,240
49,37,53760,240
58,32,54000,240
55,27,54000,240
52,36,54240,240
58,39,54480,240
55,32,54480,240
50,44,54720,240
58,31,54960,240
62,38,54960,240
53,38,55200,240
58,31,55440,240
62,38,55440,240
50,48,55680,240
62,37,55920,240
58,31,55920,240
53,37,56160,240
62,37,56400,240
58,31,56400,240
51,50,56640,240
60,34,56880,240
63,40,56880,240
55,37,57120,240
60,31,57360,240
63,37,57360,240
53,44,57600,240
62,34,57840,240
58,28,57840,240
53,34,58080,240
57,28,58320,240
60,34,58320,240
46,38,58560,240
62,30,58800,240
58,25,58800,240
50,30,59040,240
58,25,59280,240
62,30,59280,240
53,36,59520,240
62,30,59760,240
58,25,59760,240
54,30,60000,240
60,26,60240,240
62,31,60240,240
62,34,60480,240
55,29,60480,240
59,29,60480,240
55,78,60960,1440
67,94,60960,1440
55,42,62400,240
67,31,62640,120
65,31,62880,120
62,26,62880,120
67,32,63120,120
55,44,63360,240
67,31,63600,240
63,35,63840,240
60,29,63840,240
67,32,64080,240
55,42,64320,240
67,31,64560,120
65,31,64800,120
62,26,64800,120
67,29,65040,120
55,44,65280,240
67,32,65520,120
54,29,65760,120
63,35,65760,120
60,29,65760,120
66,35,66000,240
53,42,66240,240
65,35,66480,120
62,35,66720,120
65,36,66960,120
55,42,67200,240
64,36,67440,120
60,36,67680,120
64,36,67920,120
53,35,68160,240
62,42,68160,240
65,33,68400,240
53,29,68640,120
57,35,68640,120
63,34,68880,120
58,42,69120,240
62,42,69120,240
65,38,69360,240
62,38,69600,240
58,38,69840,240
55,43,70080,240
64,37,70320,120
58,39,70560,120
64,42,70800,120
53,35,71040,240
65,33,71280,240
57,35,71520,120
65,34,71760,120
55,43,72000,240
64,35,72240,120
58,35,72480,120
64,36,72720,120
53,35,72960,240
65,33,73200,240
57,35,73440,120
65,34,73680,120
50,35,73920,240
59,29,74160,120
53,29,74400,120
59,30,74640,120
48,29,74880,240
60,28,75120,240
52,29,75360,120
60,29,75600,120
50,35,75840,240
59,29,76080,120
53,29,76320,120
59,30,76560,120
52,29,76800,480
48,29,76800,480
60,29,76800,480
62,53,78720,120
60,44,78840,120
59,45,78960,120
60,45,79080,120
55,49,79200,120
52,46,79440,120
48,46,79680,120
43,39,79920,120
40,43,80160,120
38,47,80400,120
36,50,80640,120
34,46,80880,120
33,43,81120,120
31,39,81360,120
29,33,81840,120
41,33,82320,120
45,33,82800,120
46,33,83280,120
50,33,83760,240
53,33,84240,240
57,33,84720,240
36,33,85200,240
38,33,85680,240
41,33,86160,240
45,33,86640,240
49,33,87120,240
50,33,87600,120
52,33,87840,120
53,33,88080,120
55,33,88320,240
60,35,88440,120
55,35,88560,120
60,35,88680,120
43,33,88800,240
59,33,88920,120
53,33,89040,120
59,33,89160,120
52,33,89280,120
36,33,89280,120
48,33,89280,120
60,46,89280,120
55,39,89520,120
52,43,89760,120
50,47,90000,120
48,50,90240,120
46,46,90480,120
45,43,90720,120
43,39,90960,120
29,33,91440,120
41,33,91920,120
45,33,92400,120
46,33,92880,120
50,33,93360,240
53,33,93840,240
57,33,94320,240
36,33,94800,240
38,33,95280,240
41,33,95760,240
45,33,96240,240
49,33,96720,240
50,33,97200,120
52,33,97440,120
54,33,97680,120
43,33,97920,240
45,33,98400,240
50,33,99120,240
43,33,99600,240
38,33,100080,240
38,36,100560,240
31,36,101040,240
31,34,101520,240
33,33,102000,240
33,33,102480,240
38,33,102960,240
50,33,103440,240
50,33,103920,240
50,36,104400,240
43,36,104880,240
43,34,105360,240
45,33,105840,240
45,33,106320,240
50,29,106560,2400
54,29,107040,480
57,29,107520,480
55,32,108000,480
54,32,108480,480
43,30,108960,480
50,30,108960,480
49,29,109440,480
45,29,109440,960
52,29,109920,480
50,29,110400,2400
54,29,110880,480
57,29,111360,240
58,26,111600,240
57,29,111840,240
55,27,112080,240
54,32,112320,480
43,30,112800,480
50,30,112800,480
49,29,113280,480
45,29,113280,960
52,29,113760,480
50,32,114240,960
43,28,114720,480
49,26,115200,480
45,26,115200,960
52,26,115680,480
38,26,116160,480
41,26,116640,480
45,26,117120,480
48,26,117600,480
36,26,118080,480
39,26,118560,480
43,26,119040,480
46,26,119520,480
34,29,120000,480
38,30,120480,480
41,31,120960,480
45,32,121440,480
33,29,121920,480
34,32,122400,480
33,36,122880,480
31,32,123360,480
29,33,124080,120
41,33,124560,120
45,33,125040,120
46,33,125520,120
50,33,126000,240
53,33,126480,240
57,33,126960,240
36,33,127440,240
38,33,127920,240
41,33,128400,240
45,33,128880,240
49,33,129360,240
50,33,129840,120
52,33,130080,120
53,33,130320,120
46,33,130560,240
48,33,131040,240
53,33,131760,240
46,33,132240,240
41,33,132720,240
41,36,133200,240
34,36,133680,240
34,34,134160,240
36,33,134640,240
36,33,135120,240
41,33,135600,240
53,33,136080,240
53,33,136560,240
53,36,137040,240
46,36,137520,240
46,32,138000,240
48,33,138480,240
48,33,138960,240
53,29,139200,2400
57,29,139680,480
60,29,140160,480
58,32,140640,480
57,32,141120,480
46,30,141600,480
53,30,141600,480
52,29,142080,480
48,29,142080,960
55,29,142560,480
53,29,143040,2400
57,29,143520,480
60,29,144000,240
61,26,144240,240
60,29,144480,240
58,27,144720,240
57,32,144960,480
46,30,145440,480
53,30,145440,480
52,29,145920,480
48,29,145920,960
55,29,146400,480
41,76,148800,840
48,76,148800,840
53,92,148800,840
41,66,149640,114
48,66,149640,114
53,77,149640,114
41,70,149760,360
53,84,149760,360
41,67,150120,114
53,80,150120,114
44,70,150240,360
56,84,150240,360
44,66,150600,114
56,77,150600,114
29,70,150720,360
41,84,150720,360
29,66,151080,114
41,77,151080,114
32,66,151200,360
44,79,151200,360
32,61,151560,114
44,73,151560,114
36,66,151680,360
48,79,151680,360
36,61,152040,114
48,73,152040,114
41,66,152160,360
53,79,152160,360
41,59,152520,120
53,71,152520,120
46,70,152640,120
49,70,152640,120
54,84,152640,120
54,63,154800,140
58,65,154920,140
61,68,155040,140
59,66,155160,140
58,64,155280,140
56,63,155400,140
54,61,155520,140
53,61,155640,140
51,63,155760,140
49,64,155880,140
47,64,156000,140
46,65,156120,140
44,66,156240,140
42,66,156360,120
34,61,156480,240
46,73,156480,240
34,65,156960,240
46,77,156960,240
34,64,157440,240
46,76,157440,240
34,52,157680,120
46,63,157680,120
34,57,157920,120
46,67,157920,120
34,60,158160,120
46,72,158160,120
36,61,158400,240
48,73,158400,240
36,65,158880,240
48,77,158880,240
36,64,159360,240
48,76,159360,240
36,52,159600,120
48,63,159600,120
36,57,159840,120
48,67,159840,120
36,60,160080,120
48,72,160080,120
41,67,160320,120
44,57,160440,120
48,57,160560,120
53,57,160680,120
41,67,160800,120
44,57,160920,120
48,57,161040,120
53,57,161160,120
41,67,161280,120
44,56,161400,120
48,57,161520,120
53,57,161640,120
41,67,161760,120
44,59,161880,120
48,59,162000,120
53,60,162120,120
41,67,162240,120
44,58,162360,120
49,58,162480,120
53,58,162600,120
41,67,162720,120
44,60,162840,120
49,60,162960,120
53,60,163080,120
41,67,163200,120
48,58,163320,120
51,58,163440,120
53,58,163560,120
41,67,163680,120
48,57,163800,120
51,57,163920,120
53,57,164040,120
41,67,164160,120
46,57,164280,120
49,57,164400,120
53,57,164520,120
41,67,164640,120
46,55,164760,120
49,55,164880,120
53,54,165000,120
41,63,165120,120
46,53,165240,120
49,54,165360,120
53,54,165480,120
41,63,165600,120
46,56,165720,120
49,56,165840,120
53,57,165960,120
42,63,166080,120
46,55,166200,120
49,55,166320,120
54,55,166440,120
42,63,166560,120
46,57,166680,120
49,57,166800,120
54,57,166920,120
43,63,167040,120
46,55,167160,120
48,55,167280,120
55,55,167400,120
43,63,167520,120
46,54,167640,120
48,54,167760,120
55,54,167880,120
44,63,168000,120
48,54,168120,120
53,54,168240,120
56,54,168360,120
44,63,168480,120
48,54,168600,120
53,54,168720,120
56,54,168840,120
44,63,168960,120
48,53,169080,120
53,54,169200,120
56,54,169320,120
44,63,169440,120
48,56,169560,120
53,56,169680,120
56,57,169800,120
44,63,169920,120
49,55,170040,120
53,55,170160,120
56,55,170280,120
44,63,170400,120
49,57,170520,120
53,57,170640,120
56,57,170760,120
44,63,170880,120
51,55,171000,120
54,55,171120,120
56,55,171240,120
44,63,171360,120
51,54,171480,120
54,54,171600,120
56,54,171720,120
44,67,171840,120
49,57,171960,120
53,57,172080,120
56,57,172200,120
44,67,172320,120
49,55,172440,120
53,55,172560,120
56,51,172680,120
45,59,172800,120
49,50,172920,120
53,51,173040,120
57,51,173160,120
46,59,173280,120
49,53,173400,120
53,53,173520,120
58,54,173640,120
48,59,173760,120
53,52,173880,120
56,52,174000,120
60,52,174120,120
49,59,174240,120
53,54,174360,120
56,54,174480,120
61,54,174600,120
48,59,174720,120
53,52,174840,120
56,52,174960,120
60,52,175080,120
48,59,175200,120
53,51,175320,120
56,51,175440,120
60,51,175560,120
48,56,175680,120
53,49,175800,120
55,48,175920,120
60,47,176040,120
48,51,176160,120
52,44,176280,120
55,43,176400,120
60,42,176520,120
41,42,176640,160
57,42,176800,160
60,34,176960,160
53,34,177120,160
57,30,177280,160
60,30,177440,160
53,34,177600,160
57,29,177760,160
60,29,177920,160
53,34,178080,160
57,30,178240,160
60,30,178400,160
53,34,178560,160
57,30,178720,160
60,30,178880,160
51,34,179040,160
57,30,179200,160
60,30,179360,160
50,34,179520,160
58,29,179680,160
60,29,179840,160
52,34,180000,160
58,30,180160,160
60,30,180320,160
53,34,180480,160
57,31,180640,160
60,31,180800,160
53,34,180960,160
57,30,181120,160
60,30,181280,160
53,34,181440,160
57,29,181600,160
60,29,181760,160
52,34,181920,160
55,30,182080,160
60,30,182240,160
50,34,182400,160
53,30,182560,160
57,30,182720,160
50,34,182880,160
53,30,183040,160
59,30,183200,160
48,34,183360,160
53,29,183520,160
60,29,183680,160
48,34,183840,160
52,30,184000,160
60,30,184160,160
41,34,184320,160
57,31,184480,160
60,31,184640,160
53,34,184800,160
57,30,184960,160
60,30,185120,160
53,34,185280,160
57,29,185440,160
60,29,185600,160
53,34,185760,160
57,30,185920,160
60,30,186080,160
53,34,186240,160
57,30,186400,160
60,30,186560,160
51,34,186720,160
57,30,186880,160
60,30,187040,160
50,34,187200,160
58,29,187360,160
60,29,187520,160
52,34,187680,160
58,30,187840,160
60,30,188000,160
53,34,188160,160
57,31,188320,160
60,31,188480,160
53,34,188640,160
57,30,188800,160
60,30,188960,160
53,34,189120,160
57,29,189280,160
60,29,189440,160
52,34,189600,160
55,30,189760,160
60,30,189920,160
50,34,190080,160
53,30,190240,160
57,30,190400,160
50,34,190560,160
53,30,190720,160
59,30,190880,160
48,34,191040,160
53,29,191200,160
60,29,191360,160
48,34,191520,160
52,30,191680,160
60,30,191840,160
41,34,192000,160
57,31,192160,160
60,31,192320,160
53,34,192480,160
57,30,192640,160
60,30,192800,160
53,34,192960,160
57,29,193120,160
60,29,193280,160
54,34,193440,160
57,30,193600,160
60,30,193760,160
53,34,193920,160
57,30,194080,160
60,30,194240,160
54,34,194400,160
57,30,194560,160
60,30,194720,160
53,34,194880,160
57,29,195040,160
60,29,195200,160
51,34,195360,160
55,30,195520,160
61,30,195680,160
50,34,195840,160
54,28,196000,160
62,28,196160,160
50,33,196320,160
55,28,196480,160
58,28,196640,160
50,31,196800,160
54,26,196960,160
57,26,197120,160
50,30,197280,160
55,26,197440,160
58,26,197600,160
50,29,197760,160
54,27,197920,160
57,28,198080,160
50,34,198240,160
55,30,198400,160
58,30,198560,160
50,34,198720,160
54,31,198880,160
57,31,199040,160
48,34,199200,160
54,31,199360,160
57,31,199520,160
46,34,199680,80
53,34,199680,80
58,34,199680,80
62,30,199840,160
65,30,200000,160
58,34,200160,160
62,30,200320,160
65,30,200480,160
58,34,200640,160
62,29,200800,160
65,29,200960,160
59,34,201120,160
62,30,201280,160
65,30,201440,160
58,34,201600,160
62,30,201760,160
65,30,201920,160
59,34,202080,160
62,30,202240,160
65,30,202400,160
58,34,202560,160
62,29,202720,160
65,29,202880,160
56,34,203040,160
60,30,203200,160
66,30,203360,160
55,34,203520,160
59,28,203680,160
67,28,203840,160
55,33,204000,160
60,28,204160,160
63,28,204320,160
55,31,204480,160
59,26,204640,160
62,26,204800,160
55,30,204960,160
60,26,205120,160
63,26,205280,160
55,29,205440,160
59,27,205600,160
62,28,205760,160
55,34,205920,160
60,30,206080,160
63,30,206240,160
55,34,206400,160
59,31,206560,160
62,31,206720,160
55,34,206880,160
60,31,207040,160
63,31,207200,160
55,34,207360,160
59,30,207520,160
62,30,207680,160
55,34,207840,160
60,30,208000,160
63,30,208160,160
55,34,208320,160
59,31,208480,160
62,31,208640,160
55,34,208800,160
60,31,208960,160
63,31,209120,160
55,34,209280,160
59,30,209440,160
62,30,209600,160
55,34,209760,160
60,30,209920,160
63,30,210080,160
55,34,210240,160
59,31,210400,160
62,31,210560,160
55,34,210720,160
60,31,210880,160
63,31,211040,160
55,34,211200,160
59,30,211360,160
62,30,211520,160
55,34,211680,160
60,30,211840,160
63,30,212000,160
55,34,212160,160
59,31,212320,160
62,31,212480,160
55,34,212640,160
60,31,212800,160
63,31,212960,160
55,34,213120,160
59,31,213280,160
62,31,213440,160
55,34,213600,160
60,31,213760,160
63,31,213920,160
62,34,214080,240
59,34,214080,240
55,34,214080,240
67,94,214560,1440
55,78,214560,1440
55,42,216000,240
67,31,216240,120
65,31,216480,120
62,26,216480,120
67,32,216720,120
55,44,216960,240
67,28,217200,120
60,29,217440,120
63,35,217440,120
67,32,217680,120
55,42,217920,240
67,31,218160,120
65,31,218400,120
62,26,218400,120
67,29,218640,120
55,44,218880,240
67,32,219120,120
54,29,219360,120
60,29,219360,120
63,35,219360,120
66,35,219600,120
53,42,219840,240
65,35,220080,120
62,35,220320,120
65,36,220560,120
55,42,220800,240
64,36,221040,120
60,36,221280,120
64,36,221520,120
62,42,221760,240
53,35,221760,240
65,33,222000,240
63,35,222240,120
53,29,222240,120
65,34,222480,120
62,42,222720,240
58,42,222720,240
67,94,223200,1440
55,78,223200,1440
55,42,224640,240
67,31,224880,120
65,31,225120,120
62,26,225120,120
67,32,225360,120
55,44,225600,240
67,31,225840,120
60,29,226080,120
63,35,226080,120
67,32,226320,120
55,42,226560,240
67,31,226800,120
65,31,227040,120
62,26,227040,120
67,29,227280,120
55,44,227520,240
67,32,227760,120
54,29,228000,120
60,29,228000,120
63,35,228000,120
66,35,228240,120
53,42,228480,240
65,35,228720,120
62,35,228960,120
65,36,229200,120
55,42,229440,240
64,36,229680,120
60,36,229920,120
64,36,230160,120
62,42,230400,240
53,35,230400,240
65,33,230640,240
63,35,230880,120
53,29,230880,120
65,34,231120,120
62,42,231360,120
58,42,231360,120
57,38,231600,120
55,37,231840,120
53,36,232080,120
51,42,232320,120
58,36,232560,120
55,36,232560,120
48,36,232800,120
60,36,233040,120
55,36,233040,120
53,42,233280,120
57,35,233520,120
60,35,233520,120
51,36,233760,120
60,36,234000,120
57,36,234000,120
50,39,234240,240
58,34,234480,240
53,29,234480,240
46,34,234720,240
58,34,234960,240
53,29,234960,240
51,40,235200,240
58,34,235440,240
55,29,235440,240
50,34,235680,240
58,34,235920,240
55,29,235920,240
48,42,236160,240
60,36,236400,240
55,30,236400,240
45,36,236640,240
57,36,236880,240
51,30,236880,240
50,42,237120,240
54,29,237360,240
57,35,237360,240
42,42,237600,180
50,30,237840,180
54,36,237840,180
43,47,238080,120
55,39,238320,120
39,49,238560,120
51,44,238800,120
36,51,239040,120
48,46,239280,120
38,54,239520,120
50,45,239760,120
39,44,240000,240
51,52,240000,240
42,51,240480,1440
50,51,240480,1440
54,60,240480,1440
43,50,241920,240
55,45,242160,240
39,45,242400,240
51,45,242640,240
36,56,242880,240
48,49,243120,240
38,49,243360,240
50,49,243600,240
31,52,243840,240
43,55,244080,240
50,55,244320,480
62,66,244320,480
51,54,244800,480
63,65,244800,480
49,48,245280,480
61,57,245280,480
50,48,245760,480
62,57,245760,480
47,61,246240,160
59,52,246400,160
47,52,246560,160
48,63,246720,160
60,55,246880,160
48,54,247040,160
45,59,247200,160
57,52,247360,160
45,52,247520,160
46,57,247680,160
58,52,247840,160
46,52,248000,160
46,59,248400,120
58,72,248400,120
45,67,248640,240
57,79,248640,240
43,54,248880,120
55,65,248880,120
43,59,249120,120
55,71,249120,120
43,53,249360,120
55,64,249360,120
43,66,249600,240
55,78,249600,240
42,59,249840,120
54,72,249840,120
41,59,250320,120
53,72,250320,120
41,67,250560,240
53,79,250560,240
40,51,250800,120
52,60,250800,120
39,56,251040,120
51,67,251040,120
39,50,251280,120
51,59,251280,120
39,66,251520,240
51,78,251520,240
38,59,251760,120
50,72,251760,120
39,78,252000,240
51,70,252240,240
38,78,252480,240
50,71,252720,240
37,78,252960,240
49,68,253200,240
38,78,253440,160
42,69,253600,160
45,69,253760,160
50,76,253920,160
54,67,254080,160
57,67,254240,160
50,73,254400,160
55,61,254560,160
58,61,254720,160
57,67,254880,160
58,55,255040,160
55,55,255200,160
50,64,255360,160
54,56,255520,160
57,56,255680,160
56,47,255840,160
57,36,256000,160
54,36,256160,160
50,42,256320,160
53,33,256480,160
56,33,256640,160
55,43,256800,160
56,35,256960,160
53,35,257120,160
48,43,257280,160
53,36,257440,160
56,36,257600,160
48,76,257760,160
52,67,257920,160
55,67,258080,160
48,73,258240,160
53,61,258400,160
56,61,258560,160
55,67,258720,160
56,55,258880,160
53,55,259040,160
48,64,259200,160
52,56,259360,160
55,56,259520,160
54,47,259680,160
55,36,259840,160
52,36,260000,160
48,42,260160,160
51,33,260320,160
54,33,260480,160
53,43,260640,160
54,35,260800,160
51,35,260960,160
46,43,261120,160
51,36,261280,160
54,36,261440,160
46,51,261606,160
50,44,261759,160
53,44,261921,160
60,60,262080,480
57,50,262560,480
58,59,263040,720
62,45,263760,120
58,51,264000,960
65,53,264000,240
63,46,264240,120
63,46,264480,120
63,46,264720,120
58,51,264960,480
63,53,264960,240
62,46,265200,120
58,53,265680,240
60,59,265920,240
62,50,266160,240
55,55,266400,240
57,50,266640,240
58,59,266880,720
62,45,267600,120
58,53,267840,960
65,53,267840,240
63,46,268080,120
63,46,268320,120
63,46,268560,120
58,53,268800,480
63,53,268800,240
62,46,269040,120
46,57,269520,240
58,68,269520,240
47,65,269760,480
59,77,269760,480
44,59,270240,480
56,71,270240,480
46,65,270720,480
58,77,270720,480
51,55,271440,120
63,66,271440,120
49,66,271680,240
61,78,271680,240
47,54,271920,120
59,65,271920,120
47,54,272160,120
59,65,272160,120
47,53,272400,120
59,64,272400,120
47,64,272640,240
59,76,272640,240
46,54,272880,120
58,65,272880,120
49,68,273120,160
54,61,273280,160
58,61,273440,160
47,65,273600,480
59,77,273600,480
44,59,274080,480
56,71,274080,480
46,65,274560,480
58,77,274560,480
51,55,275280,120
63,66,275280,120
49,66,275520,240
61,78,275520,240
47,54,275760,120
59,65,275760,120
47,54,276000,120
59,65,276000,120
47,53,276240,120
59,64,276240,120
47,66,276480,240
59,78,276480,240
46,54,276720,120
58,65,276720,120
46,54,276960,120
58,65,276960,120
46,53,277200,120
58,64,277200,120
46,66,277440,240
58,78,277440,240
44,54,277680,120
56,65,277680,120
44,54,277920,120
56,65,277920,120
44,53,278160,120
56,64,278160,120
44,66,278400,240
56,78,278400,240
42,54,278640,120
54,65,278640,120
42,54,278880,120
54,65,278880,120
42,53,279120,120
54,64,279120,120
35,88,279360,960
47,103,279360,960
35,75,280320,240
47,89,280320,240
34,64,280560,120
46,75,280560,120
34,64,280800,120
46,75,280800,120
34,64,281040,120
46,75,281040,120
35,88,281280,960
47,103,281280,960
35,75,282240,240
47,89,282240,240
34,64,282480,120
46,75,282480,120
34,64,282720,120
46,75,282720,120
34,64,282960,120
46,75,282960,120
47,103,283200,960
35,88,283200,960
46,89,284160,480
34,75,284160,480
45,75,284640,480
33,64,284640,480
34,88,285120,960
46,103,285120,960
34,72,286080,240
46,86,286080,240
33,60,286320,120
45,72,286320,120
33,59,286560,120
45,71,286560,120
33,59,286800,120
45,70,286800,120
34,81,287040,960
46,96,287040,960
34,67,288000,240
46,78,288000,240
33,55,288240,120
45,66,288240,120
33,55,288480,120
45,65,288480,120
33,54,288720,120
45,64,288720,120
34,74,288960,960
46,88,288960,960
34,61,289920,240
46,72,289920,240
33,51,290160,120
45,60,290160,120
33,50,290400,120
45,59,290400,120
33,50,290640,120
45,58,290640,120
46,80,290880,720
34,68,290880,720
34,66,291600,240
46,77,291600,240
45,65,291840,480
33,55,291840,480
44,53,292320,480
32,45,292320,480
45,68,292800,720
33,57,292800,720
33,56,293520,240
45,56,293520,240
43,58,293760,480
31,49,293760,480
42,49,294240,480
30,40,294240,480
31,57,294720,960
43,68,294720,960
31,49,295680,240
43,58,295680,240
32,40,295920,120
44,49,295920,120
32,40,296160,120
44,49,296160,120
32,40,296400,120
44,49,296400,120
31,57,296640,960
43,68,296640,960
31,38,297600,240
43,46,297600,240
32,32,297840,120
44,38,297840,120
32,32,298080,120
44,38,298080,120
32,32,298320,120
44,38,298320,120
31,38,298560,240
43,46,298560,240
55,78,299040,1440
67,94,299040,1440
55,42,300480,240
67,31,300720,120
65,31,300960,120
62,26,300960,120
67,32,301200,120
55,44,301440,240
67,31,301680,240
60,29,301920,240
63,35,301920,240
67,32,302160,240
55,42,302400,240
67,31,302640,120
65,31,302880,120
62,26,302880,120
67,29,303120,120
55,44,303360,240
67,32,303600,120
54,29,303840,120
60,29,303840,120
63,35,303840,120
66,35,304080,240
53,42,304320,240
65,35,304560,120
62,35,304800,120
65,36,305040,120
55,42,305280,240
64,36,305520,120
60,36,305760,120
64,36,306000,120
62,42,306240,240
53,35,306240,240
65,33,306480,240
63,35,306720,120
53,29,306720,120
65,34,306960,120
62,42,307200,120
58,42,307200,120
57,38,307440,120
55,37,307680,120
53,36,307920,120
51,42,308160,120
58,36,308400,120
55,36,308400,120
48,36,308640,120
60,36,308880,120
55,36,308880,120
53,42,309120,120
57,35,309360,120
60,35,309360,120
51,36,309600,120
60,36,309840,120
57,36,309840,120
50,39,310080,120
58,34,310320,120
53,29,310320,120
46,34,310560,120
58,34,310800,120
53,29,310800,120
51,40,311040,120
58,34,311280,120
55,29,311280,120
50,34,311520,120
58,29,311760,120
55,29,311760,120
48,33,312000,120
60,29,312240,120
56,29,312240,120
51,29,312480,120
60,29,312720,120
56,29,312720,120
48,33,312960,120
56,28,313200,120
60,28,313200,120
51,29,313440,120
60,29,313680,120
56,29,313680,120
49,33,313920,240
55,29,314160,240
58,29,314160,240
51,29,314400,240
58,29,314640,240
55,29,314640,240
49,33,314880,240
55,28,315120,240
58,28,315120,240
51,29,315360,180
58,29,315600,180
55,29,315600,180
48,31,315840,240
56,23,316080,240
60,27,316080,240
51,27,316320,240
60,27,316560,240
56,23,316560,240
48,32,316800,240
60,27,317040,240
56,23,317040,240
51,32,317280,120
56,23,317520,120
60,27,317520,120
49,32,317760,240
58,29,318000,120
55,29,318000,120
51,32,318240,240
58,29,318480,240
55,29,318480,240
49,34,318720,240
58,29,318960,120
55,29,318960,120
51,31,319200,120
58,34,319440,120
55,34,319440,120
48,37,319680,240
56,27,319920,240
60,32,319920,240
51,32,320160,240
56,27,320400,240
60,32,320400,240
48,37,320640,240
60,32,320880,240
56,27,320880,240
51,32,321120,240
60,32,321360,240
56,27,321360,240
49,37,321600,240
58,32,321840,240
55,27,321840,240
52,32,322080,240
58,32,322320,240
55,27,322320,240
49,37,322560,240
58,32,322800,240
55,27,322800,240
52,36,323040,240
58,39,323280,240
55,32,323280,240
50,44,323520,240
62,38,323760,240
58,31,323760,240
53,38,324000,240
62,38,324240,240
58,31,324240,240
50,48,324480,240
62,37,324720,240
58,31,324720,240
53,37,324960,240
62,37,325200,240
58,31,325200,240
51,50,325440,240
63,40,325680,240
60,34,325680,240
55,37,325920,240
63,37,326160,240
60,31,326160,240
53,44,326400,240
62,34,326640,240
58,28,326640,240
53,34,326880,240
63,34,327120,240
57,28,327120,240
46,38,327360,240
62,30,327600,240
58,25,327600,240
50,30,327840,240
62,30,328080,240
58,25,328080,240
53,36,328320,240
62,30,328560,240
58,25,328560,240
54,30,328800,240
62,31,329040,240
60,26,329040,240
62,34,329280,240
59,29,329280,240
55,29,329280,240
55,78,329760,1440
67,94,329760,1440
55,42,331200,240
67,31,331440,120
65,31,331680,120
62,26,331680,120
67,32,331920,120
55,44,332160,240
67,31,332400,240
60,29,332640,240
63,35,332640,240
67,32,332880,240
55,42,333120,240
67,31,333360,120
65,31,333600,120
62,26,333600,120
67,29,333840,120
55,44,334080,240
67,32,334320,120
54,29,334560,120
60,29,334560,120
63,35,334560,120
66,35,334800,240
53,42,335040,240
65,35,335280,120
62,35,335520,120
65,36,335760,120
55,42,336000,240
64,36,336240,120
60,36,336480,120
64,36,336720,120
62,42,336960,240
53,35,336960,240
65,33,337200,240
57,35,337440,120
53,29,337440,120
63,34,337680,120
62,42,337920,240
58,42,337920,240
65,38,338160,240
62,38,338400,240
58,38,338640,240
55,43,338880,240
64,37,339120,120
58,39,339360,240
64,42,339600,240
53,35,339840,240
65,33,340080,240
57,35,340320,120
65,34,340560,120
55,43,340800,240
64,35,341040,120
58,35,341280,240
64,36,341520,240
53,29,341760,480
57,29,341760,480
65,35,341760,480
60,39,342960,120
57,43,343200,120
55,47,343440,120
53,50,343680,120
51,46,343920,120
50,43,344160,120
48,39,344400,120
34,33,344880,120
46,33,345360,120
50,33,345840,120
51,33,346320,120
55,33,346800,240
58,33,347280,240
62,33,347760,240
41,33,348240,240
43,33,348720,240
46,33,349200,240
50,33,349680,240
54,33,350160,240
55,33,350640,120
57,33,350880,120
58,33,351120,120
60,33,351360,240
65,35,351480,120
60,35,351600,120
65,35,351720,120
48,33,351840,240
64,33,351960,120
58,33,352080,120
64,33,352200,120
57,33,352320,120
41,33,352320,120
53,33,352320,120
65,46,352320,120
60,39,352560,120
57,43,352800,120
55,47,353040,120
53,50,353280,120
51,46,353520,120
50,43,353760,120
48,39,354000,120
34,33,354480,240
46,33,354960,240
50,33,355440,240
51,33,355920,240
55,33,356400,240
58,33,356880,240
62,33,357360,240
41,33,357840,240
43,33,358320,240
46,33,358800,240
50,33,359280,240
54,33,359760,240
55,33,360240,120
57,33,360480,120
59,33,360720,120
48,33,360960,240
50,33,361440,240
55,33,362160,240
48,33,362640,240
43,33,363120,240
43,36,363600,240
36,36,364080,240
36,34,364560,240
38,33,365040,240
38,33,365520,240
43,33,366000,240
55,33,366480,240
55,33,366960,240
55,36,367440,240
48,36,367920,240
48,34,368400,240
50,33,368880,240
50,33,369360,240
55,29,369600,2400
59,29,370080,480
62,29,370560,480
60,32,371040,480
59,32,371520,480
48,30,372000,480
55,30,372000,480
54,29,372480,480
50,29,372480,960
57,29,372960,480
55,29,373440,2400
59,29,373920,480
62,29,374400,240
63,26,374640,240
62,29,374880,240
60,27,375120,240
59,32,375360,480
48,30,375840,480
55,30,375840,480
54,29,376320,480
50,29,376320,960
57,29,376800,480
55,32,377280,960
48,28,377760,480
54,26,378240,480
50,26,378240,960
57,26,378720,480
43,26,379200,480
46,26,379680,480
50,26,380160,480
53,26,380640,480
41,26,381120,480
44,26,381600,480
48,26,382080,480
51,26,382560,480
39,29,383040,480
43,30,383520,480
46,31,384000,480
50,32,384480,480
41,29,384960,480
39,32,385440,480
38,36,385920,480
36,32,386400,480
34,33,387120,240
46,33,387600,240
50,33,388080,240
51,33,388560,240
55,33,389040,240
58,33,389520,240
62,33,390000,240
41,33,390480,240
43,33,390960,240
46,33,391440,240
50,33,391920,240
54,33,392400,240
55,33,392880,120
57,33,393120,120
58,33,393360,120
51,33,393600,240
53,33,394080,240
58,33,394800,240
51,33,395280,240
46,33,395760,240
46,36,396240,240
39,36,396720,240
39,34,397200,240
41,33,397680,240
41,33,398160,240
46,33,398640,240
58,33,399120,240
58,33,399600,240
58,36,400080,240
51,36,400560,240
51,32,401040,240
53,33,401520,240
53,33,402000,240
58,29,402240,2400
62,29,402720,480
65,29,403200,480
63,32,403680,480
62,32,404160,480
51,30,404640,480
58,30,404640,480
57,29,405120,480
53,29,405120,960
60,29,405600,480
58,29,406080,2400
62,29,406560,480
65,29,407040,240
66,26,407280,240
65,29,407520,240
63,27,407760,240
62,32,408000,480
51,30,408480,480
58,30,408480,480
57,29,408960,480
53,29,408960,960
60,29,409440,480
46,76,411840,840
53,76,411840,840
58,92,411840,840
46,66,412680,114
53,66,412680,114
58,77,412680,114
46,70,412800,360
58,84,412800,360
46,67,413160,114
58,80,413160,114
49,70,413280,360
61,84,413280,360
49,66,413640,114
61,77,413640,114
34,70,413760,360
46,84,413760,360
34,66,414120,114
46,77,414120,114
37,66,414240,360
49,79,414240,360
37,61,414600,114
49,73,414600,114
41,66,414720,360
53,79,414720,360
41,61,415080,114
53,73,415080,114
46,66,415200,360
58,79,415200,360
46,59,415560,120
58,71,415560,120
39,70,415680,120
51,84,415680,120
59,63,417840,140
63,65,417960,140
66,68,418080,140
64,66,418200,140
63,64,418320,140
61,63,418440,140
59,61,418560,140
58,61,418680,140
56,63,418800,140
54,64,418920,140
52,64,419040,140
51,65,419160,140
49,66,419280,140
47,66,419400,120
39,61,419520,240
51,73,419520,240
39,65,420000,240
51,77,420000,240
39,64,420480,228
51,76,420480,228
39,52,420720,120
51,63,420720,120
39,57,420960,120
51,67,420960,120
39,60,421200,120
51,72,421200,120
41,61,421440,240
53,73,421440,240
41,65,421920,240
53,77,421920,240
41,64,422400,228
53,76,422400,228
41,52,422640,120
53,63,422640,120
41,57,422880,120
53,67,422880,120
41,60,423120,120
53,72,423120,120
46,67,423360,120
49,57,423480,120
53,57,423600,120
58,57,423720,120
46,67,423840,120
49,57,423960,120
53,57,424080,120
58,57,424200,120
46,67,424320,120
49,56,424440,120
53,57,424560,120
58,57,424680,120
46,67,424800,120
49,59,424920,120
53,59,425040,120
58,60,425160,120
46,67,425280,120
49,58,425400,120
54,58,425520,120
58,58,425640,120
46,67,425760,120
49,60,425880,120
54,60,426000,120
58,60,426120,120
46,67,426240,120
53,58,426360,120
56,58,426480,120
58,58,426600,120
46,67,426720,120
53,57,426840,120
56,57,426960,120
58,57,427080,120
46,67,427200,120
51,57,427320,120
54,57,427440,120
58,57,427560,120
46,67,427680,120
51,55,427800,120
54,55,427920,120
58,54,428040,120
46,63,428160,120
51,53,428280,120
54,54,428400,120
58,54,428520,120
46,63,428640,120
51,56,428760,120
54,56,428880,120
58,57,429000,120
47,63,429120,120
51,55,429240,120
54,55,429360,120
59,55,429480,120
47,63,429600,120
51,57,429720,120
54,57,429840,120
59,57,429960,120
48,63,430080,120
51,55,430200,120
53,55,430320,120
60,55,430440,120
48,63,430560,120
51,54,430680,120
53,54,430800,120
60,54,430920,120
49,63,431040,120
53,54,431160,120
58,54,431280,120
61,54,431400,120
49,63,431520,120
53,54,431640,120
58,54,431760,120
61,54,431880,120
49,63,432000,120
53,53,432120,120
58,54,432240,120
61,54,432360,120
49,63,432480,120
53,56,432600,120
58,56,432720,120
61,57,432840,120
49,63,432960,120
54,55,433080,120
58,55,433200,120
61,55,433320,120
49,63,433440,120
54,57,433560,120
58,57,433680,120
61,57,433800,120
49,63,433920,120
56,55,434040,120
59,55,434160,120
61,55,434280,120
49,63,434400,120
56,54,434520,120
59,54,434640,120
61,54,434760,120
49,67,434880,120
54,57,435000,120
58,57,435120,120
61,57,435240,120
49,67,435360,120
54,55,435480,120
58,55,435600,120
61,51,435720,120
50,59,435840,120
54,50,435960,120
58,51,436080,120
62,51,436200,120
51,59,436320,120
54,53,436440,120
58,53,436560,120
63,54,436680,120
53,59,436800,120
58,52,436920,120
61,52,437040,120
65,52,437160,120
54,59,437280,120
58,54,437400,120
61,54,437520,120
66,54,437640,120
53,59,437760,120
58,52,437880,120
61,52,438000,120
65,52,438120,120
53,59,438240,120
58,51,438360,120
61,51,438480,120
65,51,438600,120
53,56,438720,120
58,49,438840,120
60,48,438960,120
65,47,439080,120
53,51,439200,120
57,44,439320,120
60,43,439440,120
65,42,439560,120
46,42,439680,80
62,42,439840,160
65,34,440000,160
58,34,440160,160
62,30,440320,160
65,30,440480,160
58,34,440640,160
62,29,440800,160
65,29,440960,160
58,34,441120,160
62,30,441280,160
65,30,441440,160
58,34,441600,160
62,30,441760,160
65,30,441920,160
56,34,442080,160
62,30,442240,160
65,30,442400,160
55,34,442560,160
63,29,442720,160
65,29,442880,160
57,34,443040,160
63,30,443200,160
65,30,443360,160
58,34,443520,160
62,31,443680,160
65,31,443840,160
58,34,444000,160
62,30,444160,160
65,30,444320,160
58,34,444480,160
62,29,444640,160
65,29,444800,160
57,34,444960,160
60,30,445120,160
65,30,445280,160
55,34,445440,160
58,30,445600,160
62,30,445760,160
55,34,445920,160
58,30,446080,160
64,30,446240,160
53,34,446400,160
58,29,446560,160
65,29,446720,160
53,34,446880,160
57,30,447040,160
65,30,447200,160
46,34,447360,80
62,31,447520,160
65,31,447680,160
58,34,447840,160
62,30,448000,160
65,30,448160,160
58,34,448320,160
62,29,448480,160
65,29,448640,160
58,34,448800,160
62,30,448960,160
65,30,449120,160
58,34,449280,160
62,30,449440,160
65,30,449600,160
56,34,449760,160
62,30,449920,160
65,30,450080,160
55,34,450240,160
63,29,450400,160
65,29,450560,160
57,34,450720,160
63,30,450880,160
65,30,451040,160
58,34,451200,160
62,31,451360,160
65,31,451520,160
58,34,451680,160
62,30,451840,160
65,30,452000,160
58,34,452160,160
62,29,452320,160
65,29,452480,160
57,34,452640,160
60,30,452800,160
65,30,452960,160
55,34,453120,160
58,30,453280,160
62,30,453440,160
55,34,453600,160
58,30,453760,160
64,30,453920,160
53,34,454080,160
58,29,454240,160
65,29,454400,160
53,34,454560,160
57,30,454720,160
65,30,454880,160
46,34,455040,80
62,31,455200,160
65,31,455360,160
58,34,455520,160
62,30,455680,160
65,30,455840,160
58,34,456000,160
62,29,456160,160
65,29,456320,160
59,34,456480,160
62,30,456640,160
65,30,456800,160
58,34,456960,160
62,30,457120,160
65,30,457280,160
59,34,457440,160
62,30,457600,160
65,30,457760,160
58,34,457920,160
62,29,458080,160
65,29,458240,160
56,34,458400,160
60,30,458560,160
66,30,458720,160
55,34,458880,160
59,28,459040,160
67,28,459200,160
55,33,459360,160
60,28,459520,160
63,28,459680,160
55,31,459840,160
59,26,460000,160
62,26,460160,160
55,30,460320,160
60,26,460480,160
63,26,460640,160
55,29,460800,160
59,27,460960,160
62,28,461120,160
55,34,461280,160
60,30,461440,160
63,30,461600,160
55,34,461760,160
59,31,461920,160
62,31,462080,160
55,34,462240,160
60,31,462400,160
63,31,462560,160
55,34,462720,160
59,30,462880,160
62,30,463040,160
55,34,463200,160
60,30,463360,160
63,30,463520,160
55,34,463680,160
59,31,463840,160
62,31,464000,160
55,34,464160,160
60,31,464320,160
63,31,464480,160
55,34,464640,160
59,30,464800,160
62,30,464960,160
55,34,465120,160
60,30,465280,160
63,30,465440,160
55,34,465600,160
59,31,465760,160
62,31,465920,160
55,34,466080,160
60,31,466240,160
63,31,466400,160
55,34,466560,160
59,30,466720,160
62,30,466880,160
55,34,467040,160
60,30,467200,160
63,30,467360,160
55,34,467520,160
59,31,467680,160
62,31,467840,160
55,34,468000,160
60,31,468160,160
63,31,468320,160
55,34,468480,160
59,31,468640,160
62,31,468800,160
55,34,468960,160
60,31,469120,160
63,31,469280,160
62,34,469440,240
59,34,469440,240
55,34,469440,240
67,94,469920,1440
55,78,469920,1440
55,37,471360,240
67,28,471600,120
65,28,471840,120
62,23,471840,120
67,28,472080,120
55,38,472320,240
67,25,472560,120
60,26,472800,120
63,31,472800,120
67,28,473040,240
55,37,473280,240
67,28,473520,120
65,28,473760,120
62,23,473760,120
67,26,474000,120
55,38,474240,240
67,28,474480,120
60,26,474720,120
63,31,474720,120
67,31,474960,120
66,67,475200,1920
54,55,475200,1920
54,37,477120,240
66,27,477360,120
63,27,477600,120
56,22,477600,120
66,28,477840,120
54,37,478080,240
66,24,478320,120
57,24,478560,120
63,29,478560,120
66,27,478800,240
54,35,479040,240
66,26,479280,120
63,25,479520,120
56,21,479520,120
66,24,479760,120
54,36,480000,240
66,26,480240,120
57,23,480480,120
63,28,480480,120
66,28,480720,120
65,59,480960,1920
53,50,480960,1920
53,35,482880,240
65,29,483120,120
62,29,483360,120
56,24,483360,120
65,30,483600,120
53,36,483840,240
65,23,484080,120
57,24,484320,120
63,29,484320,120
65,27,484560,240
53,35,484800,240
65,29,485040,120
62,29,485280,120
56,24,485280,120
65,28,485520,120
53,36,485760,240
65,27,486000,120
57,29,486240,240
63,35,486240,240
65,35,486480,240
53,44,486720,240
65,33,486960,240
62,35,487200,240
58,35,487200,240
65,33,487440,240
53,37,487680,240
65,33,487920,120
57,29,488160,240
63,35,488160,240
65,35,488400,240
53,44,488640,240
65,33,488880,240
62,35,489120,240
58,35,489120,240
65,33,489360,240
53,37,489600,240
65,33,489840,240
63,33,490080,240
57,33,490080,240
65,33,490320,240
66,71,491280,240
54,59,491280,240
55,64,491520,480
67,76,491520,480
50,55,492000,480
62,66,492000,480
51,65,492480,480
63,77,492480,480
45,55,492960,120
57,67,492960,120
45,55,493200,120
57,67,493200,120
46,64,493440,480
58,76,493440,480
42,55,493920,480
54,67,493920,480
43,64,494400,480
55,76,494400,480
38,55,494880,120
50,67,494880,120
38,55,495120,120
50,67,495120,120
39,64,495360,480
51,76,495360,480
48,67,495840,120
50,67,496080,120
39,64,496320,480
51,76,496320,480
48,67,496800,120
50,67,497040,120
39,64,497280,480
51,76,497280,480
48,67,497760,120
50,67,498000,120
39,64,498240,240
51,76,498240,240
51,67,498480,120
48,67,498720,120
50,67,498960,120
51,70,499200,480
55,70,499200,480
58,70,499200,480
63,82,499200,480
41,70,501120,480
48,70,501120,480
53,82,501120,480
34,82,503040,160
41,52,503200,160
46,52,503360,160
34,49,503520,160
41,45,503680,160
46,45,503840,160
34,50,504000,160
41,45,504160,160
46,45,504320,160
34,49,504480,160
41,45,504640,160
46,45,504800,160
34,49,504960,160
41,45,505120,160
46,45,505280,160
34,48,505440,160
41,45,505600,160
46,45,505760,160
34,49,505920,160
41,45,506080,160
46,45,506240,160
34,49,506400,160
41,45,506560,160
46,45,506720,160
34,48,506880,160
41,45,507040,160
46,45,507200,160
34,50,507360,160
41,45,507520,160
46,45,507680,160
34,49,507840,160
41,45,508000,160
46,45,508160,160
34,50,508320,160
41,46,508480,160
46,46,508640,160
34,50,508800,160
41,47,508960,160
46,47,509120,160
34,53,509280,160
41,48,509440,160
46,48,509600,160
34,52,509760,160
41,49,509920,160
46,49,510080,160
34,55,510240,160
41,50,510400,160
46,50,510560,160
34,55,510720,160
41,51,510880,160
46,51,511040,160
34,57,511200,160
41,52,511360,160
46,52,511520,160
34,55,511680,160
41,51,511840,160
46,51,512000,160
34,58,512160,160
41,54,512320,160
46,54,512480,160
34,64,512640,160
41,56,512800,160
46,56,512960,160
34,69,513120,160
41,60,513280,160
46,60,513440,160
34,74,513600,160
41,65,513760,160
46,66,513920,160
34,75,514080,160
41,66,514240,160
46,66,514400,160
34,85,514560,480
46,66,515520,480
50,66,515520,480
53,66,515520,480
58,77,515520,480
34,70,516480,480
46,81,516480,480
