note,velocity,position,duration
55,71,15360,480
67,84,15360,480
55,67,15840,90
67,79,15840,90
55,67,16080,90
67,79,16080,90
55,67,16320,480
67,79,16320,480
55,68,16800,90
67,80,16800,90
55,69,17040,90
67,81,17040,90
56,76,17280,90
68,90,17280,90
57,75,17760,720
69,89,17760,720
59,68,18480,90
71,80,18480,90
60,67,18720,90
72,79,18720,90
59,68,18960,90
71,80,18960,90
57,71,19200,480
69,84,19200,480
57,71,19680,90
69,84,19680,90
57,68,19920,90
69,80,19920,90
57,68,20160,480
69,80,20160,480
57,69,20640,90
69,81,20640,90
57,69,20880,90
69,81,20880,90
58,76,21120,90
70,90,21120,90
59,75,21600,720
71,89,21600,720
61,76,22320,90
73,76,22320,90
62,63,22560,90
74,75,22560,90
64,64,22800,90
76,76,22800,90
65,72,23040,480
77,85,23040,480
65,64,23520,90
77,76,23520,90
65,64,23760,90
77,76,23760,90
56,76,24000,720
68,90,24000,720
56,70,24720,90
68,82,24720,90
64,72,24960,480
76,85,24960,480
64,64,25440,90
76,76,25440,90
64,65,25680,90
76,77,25680,90
55,76,25920,720
67,90,25920,720
55,69,26640,90
67,81,26640,90
54,69,26880,90
66,81,26880,90
57,70,27120,90
69,82,27120,90
62,73,27360,90
74,87,27360,90
60,70,27600,90
72,82,27600,90
59,71,27840,90
71,84,27840,90
55,69,28080,90
67,81,28080,90
54,69,28320,90
66,81,28320,90
52,69,28560,90
64,81,28560,90
60,71,28800,480
72,84,28800,480
59,69,29280,480
71,81,29280,480
57,71,29760,960
69,84,29760,960
59,69,30720,90
71,81,30720,90
55,64,30960,90
67,75,30960,90
60,68,31200,960
72,80,31200,960
59,65,32160,480
71,77,32160,480
60,71,32640,480
72,84,32640,480
60,67,33120,90
72,79,33120,90
60,67,33360,90
72,79,33360,90
60,67,33600,480
72,79,33600,480
60,68,34080,90
72,80,34080,90
60,69,34320,90
72,81,34320,90
61,76,34560,90
73,90,34560,90
62,75,35040,720
74,89,35040,720
64,68,35760,90
76,80,35760,90
65,67,36000,90
77,79,36000,90
64,68,36240,90
76,80,36240,90
62,71,36480,480
74,84,36480,480
62,71,36960,90
74,84,36960,90
62,68,37200,90
74,80,37200,90
62,68,37440,480
74,80,37440,480
62,69,37920,90
74,81,37920,90
62,69,38160,90
74,81,38160,90
63,76,38400,90
75,90,38400,90
64,75,38880,720
76,89,38880,720
66,72,39600,90
78,72,39600,90
67,59,39840,90
79,71,39840,90
69,60,40080,90
81,72,40080,90
70,68,40320,480
82,80,40320,480
70,60,40800,90
82,72,40800,90
70,60,41040,90
82,72,41040,90
61,71,41280,720
73,84,41280,720
61,66,42000,90
73,77,42000,90
69,68,42240,480
81,80,42240,480
69,60,42720,90
81,72,42720,90
69,61,42960,90
81,73,42960,90
60,71,43200,720
72,84,43200,720
60,61,43920,90
72,73,43920,90
59,63,44160,90
71,73,44160,90
62,64,44400,90
74,75,44400,90
67,68,44640,90
79,80,44640,90
65,65,44880,90
77,77,44880,90
64,67,45120,90
76,79,45120,90
60,66,45360,90
72,77,45360,90
59,67,45600,90
71,78,45600,90
57,67,45840,90
69,79,45840,90
65,71,46080,480
77,84,46080,480
64,69,46560,480
76,81,46560,480
62,71,47040,960
74,84,47040,960
76,74,48000,1200
72,74,48000,1200
84,89,48000,1200
67,70,49200,90
76,70,49200,90
79,84,49200,90
69,70,49440,90
77,70,49440,90
81,84,49440,90
70,70,49680,90
79,70,49680,90
82,84,49680,90
69,74,49920,90
77,74,49920,90
81,89,49920,90
67,70,50160,90
76,70,50160,90
79,83,50160,90
65,70,50400,90
74,70,50400,90
77,83,50400,90
64,70,50640,90
69,70,50640,90
76,83,50640,90
62,75,50880,720
65,75,50880,720
74,89,50880,720
73,73,51600,90
76,73,51600,90
85,86,51600,90
74,74,51840,1200
77,74,51840,1200
86,89,51840,1200
69,70,53040,90
77,70,53040,90
81,84,53040,90
79,70,53280,90
71,70,53280,90
83,84,53280,90
72,70,53520,90
81,70,53520,90
84,84,53520,90
71,74,53760,90
79,74,53760,90
83,89,53760,90
69,70,54000,90
78,70,54000,90
81,83,54000,90
67,70,54240,90
76,70,54240,90
79,83,54240,90
66,70,54480,90
71,70,54480,90
78,83,54480,90
64,75,54720,720
67,75,54720,720
76,89,54720,720
62,73,55440,90
65,73,55440,90
74,86,55440,90
61,74,55680,90
64,74,55680,90
73,89,55680,90
64,69,55920,90
67,69,55920,90
76,82,55920,90
61,74,56160,90
64,74,56160,90
73,89,56160,90
64,67,56400,90
67,67,56400,90
76,80,56400,90
70,74,56640,90
79,74,56640,90
82,89,56640,90
70,73,56880,720
79,73,56880,720
82,86,56880,720
60,72,57600,90
63,72,57600,90
72,87,57600,90
63,67,57840,90
66,67,57840,90
75,80,57840,90
60,72,58080,90
63,72,58080,90
72,87,58080,90
63,65,58320,90
66,65,58320,90
75,78,58320,90
69,72,58560,90
78,72,58560,90
81,87,58560,90
69,71,58800,720
78,71,58800,720
81,84,58800,720
67,84,59520,480
79,90,59520,480
62,68,60000,480
71,68,60000,480
74,81,60000,480
64,67,60480,90
72,67,60480,90
76,79,60480,90
65,68,60720,90
74,68,60720,90
77,81,60720,90
67,70,60960,90
76,70,60960,90
79,84,60960,90
69,73,61200,90
77,73,61200,90
81,86,61200,90
71,74,61440,480
74,74,61440,480
79,89,61440,480
72,74,61920,480
79,74,61920,480
84,88,61920,480
83,82,62400,480
77,82,62400,960
89,97,62400,960
83,94,62880,480
67,74,63480,120
70,75,63600,120
73,75,63720,120
76,76,63840,140
79,77,63960,140
82,78,64080,140
85,79,64200,140
91,79,64320,120
88,78,64440,120
85,77,64560,120
82,76,64680,120
79,75,64800,120
76,74,64920,120
73,73,65040,120
70,72,65160,120
67,74,65400,120
71,75,65520,120
77,75,65640,120
79,76,65760,140
83,77,65880,140
89,78,66000,140
83,79,66120,140
91,79,66240,120
86,78,66360,120
83,77,66480,120
79,76,66600,120
74,75,66720,120
71,74,66840,120
67,73,66960,120
71,72,67080,120
67,74,67320,120
70,75,67440,120
73,75,67560,120
76,76,67680,140
79,77,67800,140
82,78,67920,140
85,79,68040,140
91,79,68160,120
88,78,68280,120
85,77,68400,120
82,76,68520,120
79,75,68640,120
76,74,68760,120
73,73,68880,120
70,72,69000,120
67,74,69240,120
71,75,69360,120
77,75,69480,120
79,76,69600,140
83,77,69720,140
89,78,69840,140
83,79,69960,140
91,79,70080,120
86,78,70200,120
83,77,70320,120
79,76,70440,120
74,75,70560,120
71,74,70680,120
67,73,70800,120
71,72,70920,120
73,71,71040,140
79,65,71160,140
82,65,71280,140
85,65,71400,140
74,74,71520,140
79,70,71640,140
83,70,71760,140
86,70,71880,140
76,79,72000,140
79,72,72120,140
82,72,72240,140
88,72,72360,140
78,83,72480,140
81,73,72600,140
84,73,72720,140
90,73,72840,140
67,74,73080,120
71,75,73200,120
76,75,73320,120
79,76,73440,120
83,77,73560,120
88,78,73680,120
91,79,73800,120
95,79,73920,120
91,78,74040,120
88,77,74160,120
83,76,74280,120
79,75,74400,120
76,74,74520,120
71,73,74640,120
67,72,74760,120
67,74,75000,120
71,75,75120,120
75,75,75240,120
79,76,75360,120
83,77,75480,120
87,78,75600,120
91,79,75720,120
95,79,75840,120
91,78,75960,120
87,77,76080,120
83,76,76200,120
79,75,76320,120
75,74,76440,120
71,73,76560,120
67,72,76680,120
67,74,76920,120
71,75,77040,120
76,75,77160,120
79,76,77280,120
83,77,77400,120
88,78,77520,120
91,79,77640,120
95,79,77760,120
91,78,77880,120
88,77,78000,120
83,76,78120,120
79,75,78240,120
76,74,78360,120
71,73,78480,120
67,72,78600,120
67,77,78840,120
71,78,78960,120
74,78,79080,120
77,79,79200,120
83,80,79320,120
86,81,79440,120
89,82,79560,120
95,82,79680,120
89,81,79800,120
86,80,79920,120
83,79,80040,120
77,78,80160,120
74,77,80280,120
71,76,80400,120
65,75,80520,120
77,80,80640,120
83,73,80760,120
86,73,80880,120
89,73,81000,120
78,78,81120,120
83,74,81240,120
86,74,81360,120
90,75,81480,120
80,85,81600,120
83,78,81720,120
86,79,81840,120
92,79,81960,120
82,91,82080,120
85,81,82200,120
88,81,82320,120
94,81,82440,120
74,77,82560,480
78,77,82560,480
83,77,82560,480
86,92,82560,480
74,77,83040,240
78,77,83040,240
83,77,83040,240
86,92,83040,240
74,74,83280,240
78,74,83280,240
83,74,83280,240
86,88,83280,240
78,77,83520,960
82,77,83520,960
85,77,83520,960
90,92,83520,960
73,77,84480,480
76,77,84480,480
81,77,84480,480
85,92,84480,480
73,77,84960,240
76,77,84960,240
81,77,84960,240
85,92,84960,240
73,74,85200,240
76,74,85200,240
81,74,85200,240
85,88,85200,240
76,77,85440,960
80,77,85440,960
83,77,85440,960
88,92,85440,960
71,70,86400,480
74,70,86400,480
79,70,86400,480
83,83,86400,480
71,69,86880,240
74,69,86880,240
79,69,86880,240
83,82,86880,240
71,66,87120,240
74,66,87120,240
79,66,87120,240
83,78,87120,240
74,68,87360,480
78,68,87360,480
81,68,87360,480
86,80,87360,480
71,63,87840,480
74,63,87840,480
79,63,87840,480
83,76,87840,480
69,65,88320,480
74,65,88320,480
79,65,88320,480
81,77,88320,480
69,63,88800,480
74,63,88800,480
78,63,88800,480
81,75,88800,480
71,62,89280,960
74,62,89280,960
79,62,89280,960
83,73,89280,960
71,62,90240,480
74,62,90240,480
79,62,90240,480
83,74,90240,480
71,62,90720,240
74,62,90720,240
79,62,90720,240
83,74,90720,240
71,60,90960,240
74,60,90960,240
79,60,90960,240
83,71,90960,240
74,62,91200,960
78,62,91200,960
81,62,91200,960
86,74,91200,960
69,62,92160,480
72,62,92160,480
77,62,92160,480
81,74,92160,480
69,62,92640,240
72,62,92640,240
77,62,92640,240
81,74,92640,240
69,60,92880,240
72,60,92880,240
77,60,92880,240
81,71,92880,240
72,62,93120,960
76,62,93120,960
79,62,93120,960
84,74,93120,960
67,59,94080,480
71,59,94080,480
76,59,94080,480
79,70,94080,480
67,58,94560,240
71,58,94560,240
76,58,94560,240
79,69,94560,240
67,56,94800,240
71,56,94800,240
76,56,94800,240
79,66,94800,240
71,57,95040,480
75,57,95040,480
78,57,95040,480
83,68,95040,480
67,53,95520,480
71,53,95520,480
76,53,95520,480
79,64,95520,480
66,55,96000,480
71,55,96000,480
76,55,96000,480
78,65,96000,480
66,53,96480,480
71,53,96480,480
75,53,96480,480
78,63,96480,480
67,52,96960,960
71,52,96960,960
76,52,96960,960
79,62,96960,960
68,54,97920,90
80,64,97920,90
69,57,98400,720
81,68,98400,720
71,52,99120,90
83,61,99120,90
72,51,99360,90
84,60,99360,90
71,52,99600,90
83,61,99600,90
70,54,99840,90
82,64,99840,90
71,57,100320,720
83,68,100320,720
73,61,101040,90
85,61,101040,90
74,51,101280,90
86,60,101280,90
76,52,101520,90
88,61,101520,90
77,54,101760,480
89,64,101760,480
77,52,102240,90
89,61,102240,90
77,52,102480,90
89,61,102480,90
68,64,102720,90
80,77,102720,90
71,57,102960,90
83,67,102960,90
68,57,103200,90
80,67,103200,90
71,57,103440,90
83,67,103440,90
76,54,103680,480
88,64,103680,480
76,52,104160,90
88,61,104160,90
76,52,104400,90
88,62,104400,90
67,61,104640,90
79,73,104640,90
70,56,104880,90
82,67,104880,90
67,56,105120,90
79,67,105120,90
70,57,105360,90
82,68,105360,90
75,54,105600,480
87,64,105600,480
66,52,106080,90
78,61,106080,90
69,52,106320,90
81,62,106320,90
74,54,106560,480
86,64,106560,480
65,52,107040,90
77,61,107040,90
68,52,107280,90
80,62,107280,90
73,51,107520,480
85,60,107520,480
64,47,108000,90
76,56,108000,90
67,46,108240,90
79,55,108240,90
72,47,108480,480
84,56,108480,480
63,43,108960,90
75,51,108960,90
66,42,109200,90
78,50,109200,90
60,35,109440,120
66,42,109440,120
72,38,109560,120
60,35,109680,120
66,42,109680,120
72,40,109800,120
60,38,109920,120
66,45,109920,120
72,41,110040,120
60,40,110160,120
66,47,110160,120
72,43,110280,120
60,41,110400,120
66,49,110400,120
72,45,110520,120
60,43,110640,120
66,51,110640,120
72,46,110760,120
60,43,110880,120
66,52,110880,120
72,48,111000,120
60,45,111120,120
66,53,111120,120
72,52,111240,120
72,51,111360,120
78,61,111360,120
84,56,111480,120
72,52,111600,120
78,62,111600,120
84,59,111720,120
72,56,111840,120
78,67,111840,120
84,62,111960,120
72,59,112080,120
78,70,112080,120
84,66,112200,120
72,62,112320,120
78,74,112320,120
84,69,112440,120
72,64,112560,120
78,76,112560,120
84,70,112680,120
84,78,112800,120
72,66,112800,120
78,66,112800,120
84,77,113040,120
72,65,113040,120
78,65,113040,120
72,75,113280,120
78,75,113280,120
84,89,113280,120
74,76,113520,240
78,76,113520,240
84,90,113520,240
86,90,113520,240
74,78,113760,240
78,78,113760,240
84,92,113760,240
86,92,113760,240
74,80,114000,240
78,80,114000,240
84,94,114000,240
86,94,114000,240
74,82,114240,240
78,82,114240,240
84,97,114240,240
86,97,114240,240
74,82,114480,240
78,82,114480,240
84,97,114480,240
86,97,114480,240
74,84,114720,120
78,84,114720,120
84,99,114720,120
86,99,114720,120
74,86,114960,120
78,86,114960,120
84,101,114960,120
86,101,114960,120
76,88,115200,228
79,88,115200,228
84,88,115200,228
88,104,115200,228
77,81,115440,228
83,81,115440,228
86,81,115440,228
91,97,115440,228
77,83,115680,228
83,83,115680,228
86,83,115680,228
91,98,115680,228
77,83,115920,228
83,83,115920,228
86,83,115920,228
91,98,115920,228
77,83,116160,228
83,83,116160,228
86,83,116160,228
91,98,116160,228
77,81,116400,228
83,81,116400,228
86,81,116400,228
91,97,116400,228
77,81,116640,228
83,81,116640,228
86,81,116640,228
91,97,116640,228
77,81,116880,228
83,81,116880,228
86,81,116880,228
91,97,116880,228
84,76,117120,120
88,90,117120,120
96,95,117240,120
91,95,117360,120
88,94,117480,120
84,93,117600,120
79,92,117720,120
76,91,117840,120
79,90,117960,120
72,90,118080,240
88,76,118320,120
91,90,118320,120
79,86,118440,120
89,79,118560,120
93,93,118560,120
81,86,118680,120
91,79,118800,120
94,93,118800,120
82,89,118920,120
89,83,119040,120
93,98,119040,120
81,89,119160,120
88,79,119280,120
91,94,119280,120
79,87,119400,120
86,79,119520,120
89,93,119520,120
77,86,119640,120
81,77,119760,120
88,91,119760,120
76,77,119880,120
77,73,120000,120
86,86,120000,120
74,76,120120,120
81,73,120240,120
85,87,120240,120
73,79,120360,120
81,78,120480,120
86,92,120480,120
74,81,120600,120
88,80,120720,120
97,95,120720,120
85,86,120840,120
86,90,120960,120
98,95,121080,120
93,95,121200,120
89,94,121320,120
86,93,121440,120
81,92,121560,120
77,91,121680,120
81,90,121800,120
74,90,121920,240
89,76,122160,120
93,90,122160,120
81,86,122280,120
91,79,122400,120
95,93,122400,120
83,86,122520,120
93,79,122640,120
96,93,122640,120
84,89,122760,120
91,83,122880,120
95,98,122880,120
83,89,123000,120
90,79,123120,120
93,94,123120,120
81,87,123240,120
88,79,123360,120
91,93,123360,120
79,86,123480,120
83,77,123600,120
90,91,123600,120
78,77,123720,120
79,73,123840,120
88,86,123840,120
76,76,123960,120
83,73,124080,120
87,87,124080,120
75,79,124200,120
83,78,124320,120
88,92,124320,120
76,81,124440,120
77,80,124560,120
86,95,124560,120
74,86,124680,120
73,93,124800,120
76,93,124800,120
85,87,124920,120
76,87,125040,120
79,87,125040,120
88,87,125160,120
73,93,125280,120
76,93,125280,120
85,86,125400,120
76,88,125520,120
79,88,125520,120
88,88,125640,120
82,95,125760,120
94,90,125880,120
91,88,126000,120
88,86,126120,120
82,85,126240,120
79,85,126360,120
76,84,126480,120
70,83,126600,120
72,91,126720,120
75,91,126720,120
84,85,126840,120
75,85,126960,120
78,85,126960,120
87,85,127080,120
72,91,127200,120
75,91,127200,120
84,84,127320,120
75,86,127440,120
78,86,127440,120
87,86,127560,120
81,93,127680,120
93,88,127800,120
90,86,127920,120
87,84,128040,120
81,83,128160,120
78,83,128280,120
75,82,128400,120
69,81,128520,120
67,84,128640,120
79,75,128760,120
74,75,128880,120
71,74,129000,120
74,80,129120,120
86,75,129240,120
83,75,129360,120
79,75,129480,120
84,62,129600,120
88,73,129600,120
76,74,129720,120
86,64,129840,120
89,76,129840,120
77,78,129960,120
88,67,130080,120
91,79,130080,120
79,81,130200,120
89,70,130320,120
93,83,130320,120
81,84,130440,120
86,72,130560,120
91,72,130560,120
95,85,130560,120
83,86,130680,120
86,73,130800,120
91,73,130800,120
95,87,130800,120
83,89,130920,120
96,90,131040,120
91,76,131040,120
84,92,131160,120
96,93,131280,120
91,79,131280,120
84,94,131400,120
101,94,131520,120
96,79,131520,120
89,94,131640,120
101,94,131760,120
96,79,131760,120
89,94,131880,120
95,79,132000,120
101,94,132000,120
89,94,132120,120
95,79,132240,120
101,94,132240,120
89,94,132360,120
88,80,132480,330
95,84,132480,330
100,99,132480,330
52,79,132840,90
59,79,132840,90
64,94,132840,90
64,88,132960,960
52,74,132960,1440
59,74,132960,1440
62,65,133920,480
58,35,134400,120
61,42,134400,120
52,42,134520,120
58,36,134640,120
61,43,134640,120
52,43,134760,120
61,44,134880,120
58,37,134880,120
52,45,135000,120
58,38,135120,120
61,45,135120,120
52,46,135240,120
61,39,135360,120
64,46,135360,120
58,47,135480,120
61,39,135600,120
64,47,135600,120
58,48,135720,120
61,40,135840,120
64,48,135840,120
58,49,135960,120
61,42,136080,120
64,50,136080,120
58,50,136200,120
64,42,136320,120
70,50,136320,120
61,52,136440,120
64,45,136560,120
70,54,136560,120
61,56,136680,120
70,51,136800,120
73,61,136800,120
64,64,136920,120
70,56,137040,120
73,66,137040,120
64,70,137160,120
73,61,137280,120
76,72,137280,120
70,75,137400,120
76,65,137520,120
82,78,137520,120
73,81,137640,120
82,70,137760,120
85,83,137760,120
76,87,137880,120
88,89,138000,120
85,75,138000,120
82,92,138120,120
89,104,138240,480
86,88,138240,480
81,88,138240,480
93,99,138720,480
89,83,138720,480
86,83,138720,480
81,83,138720,480
88,104,139200,480
84,88,139200,480
79,88,139200,480
76,88,139200,480
86,101,139680,480
83,84,139680,480
79,84,139680,480
74,84,139680,480
76,89,140160,330
83,92,140160,330
88,108,140160,330
52,85,140520,90
59,85,140520,90
64,100,140520,90
64,94,140640,960
52,79,140640,1440
59,79,140640,1440
62,65,141600,480
58,35,142080,120
61,42,142080,120
52,42,142200,120
58,36,142320,120
61,43,142320,120
52,43,142440,120
61,44,142560,120
58,37,142560,120
52,45,142680,120
58,38,142800,120
61,45,142800,120
52,46,142920,120
61,39,143040,120
64,46,143040,120
58,47,143160,120
61,39,143280,120
64,47,143280,120
58,48,143400,120
61,40,143520,120
64,48,143520,120
58,49,143640,120
61,42,143760,120
64,50,143760,120
58,50,143880,120
64,42,144000,120
70,50,144000,120
61,52,144120,120
64,45,144240,120
70,54,144240,120
61,56,144360,120
70,51,144480,120
73,61,144480,120
64,64,144600,120
70,56,144720,120
73,66,144720,120
64,70,144840,120
73,61,144960,120
76,72,144960,120
70,75,145080,120
76,65,145200,120
82,78,145200,120
73,81,145320,120
82,70,145440,120
85,83,145440,120
76,87,145560,120
88,89,145680,120
85,75,145680,120
82,92,145800,120
82,82,145920,360
77,82,145920,360
86,82,145920,360
89,98,145920,360
70,71,146280,90
65,71,146280,90
74,84,146280,90
77,84,146280,90
65,74,146400,480
70,74,146400,480
77,88,146400,480
74,88,146400,480
82,82,146880,360
76,82,146880,360
85,82,146880,360
88,97,146880,360
70,74,147240,90
64,74,147240,90
73,74,147240,90
76,88,147240,90
64,76,147360,480
70,76,147360,480
76,91,147360,480
73,76,147360,480
78,87,147840,360
75,87,147840,360
84,87,147840,360
87,102,147840,360
66,77,148200,90
63,77,148200,90
72,77,148200,90
75,92,148200,90
63,77,148320,480
66,77,148320,480
75,92,148320,480
72,77,148320,480
77,89,148800,360
74,89,148800,360
82,89,148800,360
86,106,148800,360
65,80,149160,90
62,80,149160,90
70,80,149160,90
74,95,149160,90
62,80,149280,480
65,80,149280,480
74,95,149280,480
70,80,149280,480
66,86,149760,360
62,86,149760,360
72,86,149760,360
74,101,149760,360
78,77,150120,90
74,77,150120,90
84,77,150120,90
86,92,150120,90
74,87,150240,480
78,87,150240,480
86,103,150240,480
84,87,150240,480
67,82,150720,360
62,82,150720,360
71,82,150720,360
74,97,150720,360
79,79,151080,90
74,79,151080,90
83,79,151080,90
86,95,151080,90
74,84,151200,480
79,84,151200,480
86,99,151200,480
83,84,151200,480
67,82,151680,360
64,82,151680,360
72,82,151680,360
76,98,151680,360
79,75,152040,90
76,75,152040,90
84,75,152040,90
88,89,152040,90
76,86,152160,480
79,86,152160,480
88,102,152160,480
84,86,152160,480
71,86,152640,360
67,86,152640,360
77,86,152640,360
79,101,152640,360
83,80,153000,90
79,80,153000,90
89,80,153000,90
91,96,153000,90
79,86,153120,480
83,86,153120,480
91,103,153120,480
89,86,153120,480
55,50,153600,140
67,46,153720,140
62,46,153840,140
59,46,153960,140
62,50,154080,140
74,46,154200,140
71,46,154320,140
67,46,154440,140
72,51,154560,140
76,51,154560,140
64,47,154680,140
74,51,154800,140
77,51,154800,140
65,47,154920,140
76,53,155040,140
79,53,155040,140
67,47,155160,140
77,53,155280,140
81,53,155280,140
69,48,155400,140
74,51,155520,120
79,51,155520,120
83,51,155520,120
71,53,155640,120
74,55,155760,120
79,55,155760,120
83,55,155760,120
71,56,155880,120
79,58,156000,120
84,58,156000,120
72,60,156120,120
84,62,156240,120
79,62,156240,120
72,63,156360,120
89,65,156480,120
84,65,156480,120
77,65,156600,120
89,66,156720,120
84,66,156720,120
77,66,156840,120
89,67,156960,120
83,67,156960,120
77,67,157080,120
89,68,157200,120
83,68,157200,120
77,68,157320,120
57,60,157440,140
69,55,157560,140
64,55,157680,140
61,55,157800,140
64,60,157920,140
76,55,158040,140
73,55,158160,140
69,55,158280,140
74,51,158400,140
77,61,158400,140
65,56,158520,140
76,51,158640,140
79,61,158640,140
67,56,158760,140
77,53,158880,140
81,63,158880,140
69,56,159000,140
79,53,159120,140
82,63,159120,140
70,57,159240,140
76,51,159360,120
81,51,159360,120
85,61,159360,120
73,62,159480,120
76,54,159600,120
81,54,159600,120
85,64,159600,120
73,66,159720,120
81,56,159840,120
86,67,159840,120
74,69,159960,120
86,70,160080,120
81,59,160080,120
74,72,160200,120
91,74,160320,120
86,62,160320,120
79,70,160440,120
91,74,160560,120
86,62,160560,120
79,70,160680,120
91,74,160800,120
85,62,160800,120
79,70,160920,120
91,74,161040,120
85,62,161040,120
79,70,161160,120
62,79,161280,120
74,70,161400,120
69,70,161520,120
66,70,161640,120
69,79,161760,120
81,70,161880,120
78,70,162000,120
74,71,162120,120
79,67,162240,120
83,79,162240,120
71,72,162360,120
81,67,162480,120
84,79,162480,120
72,73,162600,120
83,68,162720,120
86,80,162720,120
74,71,162840,120
84,67,162960,120
88,79,162960,120
76,72,163080,120
81,60,163200,120
86,60,163200,120
90,71,163200,120
78,72,163320,120
81,62,163440,120
86,62,163440,120
90,73,163440,120
78,74,163560,120
86,63,163680,120
91,75,163680,120
79,76,163800,120
91,77,163920,120
86,65,163920,120
79,78,164040,120
96,82,164160,120
91,69,164160,120
84,75,164280,120
96,80,164400,120
91,68,164400,120
84,74,164520,120
96,80,164640,120
90,68,164640,120
84,75,164760,120
96,79,164880,120
90,67,164880,120
84,74,165000,120
67,79,165120,120
79,70,165240,120
74,70,165360,120
71,70,165480,120
74,79,165600,120
86,70,165720,120
83,70,165840,120
79,71,165960,120
84,67,166080,120
88,79,166080,120
76,72,166200,120
86,67,166320,120
89,79,166320,120
77,73,166440,120
88,68,166560,120
91,80,166560,120
79,71,166680,120
89,67,166800,120
93,79,166800,120
81,72,166920,120
86,60,167040,120
91,60,167040,120
95,71,167040,120
83,72,167160,120
86,62,167280,120
91,62,167280,120
95,73,167280,120
83,74,167400,120
91,63,167520,120
96,75,167520,120
84,76,167640,120
96,77,167760,120
91,65,167760,120
84,78,167880,120
101,82,168000,120
96,69,168000,120
89,75,168120,120
101,82,168240,120
96,70,168240,120
89,77,168360,120
101,85,168480,120
95,72,168480,120
89,81,168600,120
101,86,168720,120
95,73,168720,120
89,82,168840,120
100,78,168960,120
95,66,168960,120
88,70,169080,120
100,77,169200,120
95,65,169200,120
88,70,169320,120
100,75,169440,120
93,64,169440,120
88,68,169560,120
100,72,169680,120
93,60,169680,120
88,67,169800,120
98,74,169920,120
93,63,169920,120
86,68,170040,120
98,74,170160,120
93,63,170160,120
86,67,170280,120
98,74,170400,120
92,63,170400,120
86,66,170520,120
98,74,170640,120
92,63,170640,120
86,68,170760,120
96,74,170880,120
93,63,170880,120
84,68,171000,120
96,74,171120,120
93,63,171120,120
84,67,171240,120
89,65,171360,120
93,65,171360,120
98,77,171360,120
86,70,171480,120
98,76,171600,120
93,65,171600,120
89,65,171600,120
86,70,171720,120
96,74,171840,120
91,63,171840,120
88,63,171840,120
84,68,171960,120
96,74,172080,120
91,63,172080,120
88,63,172080,120
84,68,172200,120
95,74,172320,120
91,63,172320,120
86,63,172320,120
83,69,172440,120
95,74,172560,120
91,63,172560,120
86,63,172560,120
83,68,172680,120
84,63,172800,120
88,63,172800,120
91,74,172800,120
79,66,172920,120
91,74,173040,120
88,63,173040,120
84,63,173040,120
79,66,173160,120
81,65,173280,120
86,65,173280,120
89,77,173280,120
77,69,173400,120
89,76,173520,120
86,65,173520,120
81,65,173520,120
77,70,173640,120
79,66,173760,120
84,66,173760,120
88,78,173760,120
76,71,173880,120
79,67,174000,120
84,67,174000,120
88,79,174000,120
76,70,174120,120
79,67,174240,120
83,67,174240,120
86,79,174240,120
74,74,174360,120
79,68,174480,120
83,68,174480,120
86,80,174480,120
74,74,174600,120
88,78,174720,120
96,76,174840,120
91,76,174960,120
88,75,175080,120
84,74,175200,140
79,73,175320,140
76,72,175440,140
72,72,175560,140
86,72,175680,120
95,76,175800,120
91,72,175920,120
89,68,176040,120
83,74,176160,140
79,68,176280,140
77,74,176400,140
71,71,176520,140
86,72,176640,120
98,76,176760,120
93,76,176880,120
89,75,177000,120
86,74,177120,140
81,73,177240,140
77,72,177360,140
74,72,177480,140
85,72,177600,120
97,76,177720,120
93,72,177840,120
91,68,177960,120
85,74,178080,140
81,68,178200,140
79,74,178320,140
73,71,178440,140
89,72,178560,120
101,76,178680,120
96,76,178800,120
93,75,178920,120
89,74,179040,140
84,73,179160,140
81,72,179280,140
77,72,179400,140
88,72,179520,120
100,76,179640,120
96,72,179760,120
91,68,179880,120
88,74,180000,140
84,68,180120,140
79,74,180240,140
76,71,180360,140
85,73,180480,480
82,73,180480,480
79,73,180480,480
91,87,180480,480
73,60,180960,240
70,60,180960,240
67,60,180960,240
79,72,180960,240
73,60,181200,240
70,60,181200,240
67,60,181200,240
79,72,181200,240
86,69,181440,480
83,69,181440,480
79,69,181440,480
91,82,181440,480
74,62,181920,240
71,62,181920,240
67,62,181920,240
79,73,181920,240
74,63,182160,240
71,63,182160,240
67,63,182160,240
79,74,182160,240
85,73,182400,480
82,73,182400,480
79,73,182400,480
91,87,182400,480
73,60,182880,240
70,60,182880,240
67,60,182880,240
79,72,182880,240
73,60,183120,240
70,60,183120,240
67,60,183120,240
79,72,183120,240
86,69,183360,480
83,69,183360,480
79,69,183360,480
91,82,183360,480
74,62,183840,240
71,62,183840,240
67,62,183840,240
79,73,183840,240
74,63,184080,240
71,63,184080,240
67,63,184080,240
79,74,184080,240
91,64,184320,120
96,76,184320,120
84,71,184440,120
96,76,184560,120
91,64,184560,120
84,69,184680,120
84,63,184800,120
89,63,184800,120
93,75,184800,120
81,68,184920,120
93,74,185040,120
89,62,185040,120
84,62,185040,120
81,67,185160,120
84,62,185280,120
88,62,185280,120
91,73,185280,120
79,67,185400,120
84,62,185520,120
88,62,185520,120
91,73,185520,120
79,66,185640,120
83,61,185760,120
86,61,185760,120
91,72,185760,120
79,65,185880,120
83,60,186000,120
86,60,186000,120
91,71,186000,120
79,65,186120,120
88,46,186240,120
96,49,186360,120
91,49,186480,120
88,48,186600,120
84,48,186720,140
79,47,186840,140
76,46,186960,140
72,46,187080,140
86,46,187200,120
95,49,187320,120
91,46,187440,120
89,44,187560,120
83,48,187680,140
79,44,187800,140
77,48,187920,140
71,46,188040,140
86,46,188160,120
98,49,188280,120
93,49,188400,120
89,48,188520,120
86,48,188640,140
81,47,188760,140
77,46,188880,140
74,46,189000,140
85,46,189120,120
97,49,189240,120
93,46,189360,120
91,44,189480,120
85,48,189600,140
81,44,189720,140
79,48,189840,140
73,46,189960,140
89,50,190080,120
101,55,190200,120
96,56,190320,120
93,57,190440,120
89,58,190560,140
84,58,190680,140
81,58,190800,140
77,60,190920,140
88,62,191040,120
100,67,191160,120
96,64,191280,120
91,63,191400,120
88,70,191520,140
84,66,191640,140
79,73,191760,140
76,71,191880,140
85,73,192000,480
82,73,192000,480
79,73,192000,480
91,87,192000,480
73,60,192480,240
70,60,192480,240
67,60,192480,240
79,72,192480,240
73,60,192720,240
70,60,192720,240
67,60,192720,240
79,72,192720,240
86,72,192960,480
83,72,192960,480
80,72,192960,480
92,86,192960,480
74,62,193440,240
71,62,193440,240
68,62,193440,240
80,73,193440,240
74,63,193680,240
71,63,193680,240
68,63,193680,240
80,74,193680,240
87,73,193920,480
84,73,193920,480
81,73,193920,480
93,87,193920,480
75,60,194400,240
72,60,194400,240
69,60,194400,240
81,72,194400,240
75,60,194640,240
72,60,194640,240
69,60,194640,240
81,72,194640,240
88,74,194880,480
85,74,194880,480
82,74,194880,480
94,88,194880,480
76,63,195360,240
73,63,195360,240
70,63,195360,240
82,74,195360,240
76,64,195600,240
73,64,195600,240
70,64,195600,240
82,75,195600,240
77,71,195840,480
74,71,195840,480
71,71,195840,480
83,85,195840,480
78,61,196320,240
75,61,196320,240
72,61,196320,240
84,73,196320,240
75,63,196560,240
78,63,196560,240
72,63,196560,240
84,75,196560,240
79,72,196800,480
76,72,196800,480
73,72,196800,480
85,86,196800,480
80,62,197280,240
77,62,197280,240
74,62,197280,240
86,73,197280,240
80,64,197520,240
77,64,197520,240
74,64,197520,240
86,76,197520,240
75,71,197760,240
78,71,197760,240
81,71,197760,240
87,82,197760,240
75,71,198000,240
78,71,198000,240
81,71,198000,240
87,83,198000,240
76,73,198240,240
79,73,198240,240
82,73,198240,240
88,84,198240,240
76,74,198480,240
79,74,198480,240
82,74,198480,240
88,86,198480,240
77,75,198720,240
80,75,198720,240
83,75,198720,240
89,87,198720,240
77,76,198960,240
80,76,198960,240
83,76,198960,240
89,89,198960,240
77,78,199200,240
80,78,199200,240
83,78,199200,240
89,90,199200,240
77,79,199440,240
80,79,199440,240
83,79,199440,240
89,92,199440,240
77,85,199680,480
83,85,199680,480
86,85,199680,480
89,98,199680,480
76,85,200640,480
81,85,200640,480
84,85,200640,480
88,98,200640,480
74,85,201600,480
81,85,201600,480
84,85,201600,480
86,98,201600,480
74,85,202560,480
79,85,202560,480
83,85,202560,480
86,98,202560,480
52,50,203520,120
64,32,203640,120
60,32,203760,120
55,32,203760,120
64,32,203880,120
54,50,204000,120
66,32,204120,120
60,32,204240,120
63,32,204240,120
66,32,204360,120
55,51,204480,120
67,32,204600,120
60,32,204720,120
64,32,204720,120
67,32,204840,120
55,50,204960,120
67,33,205080,120
59,33,205200,120
62,33,205200,120
67,33,205320,120
60,59,205440,120
72,33,205560,120
67,33,205680,120
64,33,205680,120
72,33,205800,120
60,55,205920,120
72,33,206040,120
63,33,206160,120
66,33,206160,120
72,34,206280,120
60,55,206400,120
72,34,206520,120
64,34,206640,120
67,34,206640,120
72,34,206760,120
59,53,206880,120
71,34,207000,120
62,34,207120,120
67,34,207120,120
71,34,207240,120
64,61,207360,120
76,41,207480,120
72,41,207600,120
67,41,207600,120
76,41,207720,120
66,63,207840,120
78,42,207960,120
72,42,208080,120
75,42,208080,120
78,42,208200,120
67,66,208320,120
79,43,208440,120
72,43,208560,120
76,43,208560,120
79,44,208680,120
67,67,208800,120
79,44,208920,120
71,45,209040,120
74,45,209040,120
79,46,209160,120
72,73,209280,120
84,47,209400,120
79,47,209520,120
76,47,209520,120
84,47,209640,120
72,72,209760,120
84,48,209880,120
75,48,210000,120
78,48,210000,120
84,48,210120,120
72,74,210240,120
84,49,210360,120
76,49,210480,120
79,49,210480,120
84,50,210600,120
71,69,210720,120
83,50,210840,120
74,51,210960,120
79,51,210960,120
83,52,211080,120
76,71,211200,120
88,49,211320,120
84,49,211440,120
79,49,211440,120
88,50,211560,120
78,72,211680,120
90,50,211800,120
84,50,211920,120
87,50,211920,120
90,50,212040,120
79,74,212160,120
91,51,212280,120
84,51,212400,120
88,51,212400,120
91,52,212520,120
79,75,212640,120
91,52,212760,120
83,53,212880,120
86,53,212880,120
91,54,213000,120
79,79,213120,120
91,60,213240,120
88,61,213360,120
84,61,213360,120
91,62,213480,120
79,84,213600,120
91,63,213720,120
83,63,213840,120
86,63,213840,120
91,64,213960,120
79,90,214080,120
91,66,214200,120
84,67,214320,120
88,67,214320,120
91,69,214440,120
79,93,214560,120
91,70,214680,120
83,71,214800,120
86,71,214800,120
91,74,214920,120
88,97,215040,120
84,82,215040,120
79,82,215040,120
91,89,215160,120
86,98,215280,120
83,82,215280,120
79,82,215280,120
91,91,215400,120
88,99,215520,120
84,85,215520,120
79,85,215520,120
91,93,215640,120
86,101,215760,120
83,86,215760,120
79,86,215760,120
91,94,215880,120
88,103,216000,120
84,87,216000,120
79,87,216000,120
91,96,216120,120
86,105,216240,120
83,89,216240,120
79,89,216240,120
91,101,216360,120
88,107,216480,120
84,90,216480,120
79,90,216480,120
91,99,216600,120
86,108,216720,120
83,91,216720,120
79,91,216720,120
91,100,216840,120
72,83,216960,120
76,83,216960,120
79,93,216960,120
84,110,216960,120
84,83,217200,120
79,81,217320,120
76,81,217440,120
72,80,217560,120
67,78,217680,120
64,76,217800,120
60,73,217920,120
55,74,218040,120
60,75,218160,120
64,76,218280,120
67,77,218400,120
72,78,218520,120
76,79,218640,120
79,80,218760,120
72,85,218880,120
76,85,218880,120
79,85,218880,120
84,101,218880,120
88,83,219120,120
84,81,219240,120
79,81,219360,120
76,80,219480,120
72,78,219600,120
67,76,219720,120
64,73,219840,120
60,74,219960,120
64,75,220080,120
67,76,220200,120
72,77,220320,120
76,78,220440,120
79,79,220560,120
84,80,220680,120
76,85,220800,120
79,85,220800,120
84,85,220800,120
88,101,220800,120
91,83,221040,120
88,81,221160,120
84,81,221280,120
79,80,221400,120
76,78,221520,120
72,76,221640,120
67,73,221760,120
64,74,221880,120
67,75,222000,120
72,76,222120,120
76,77,222240,120
79,78,222360,120
84,79,222480,120
88,80,222600,120
79,85,222720,120
84,85,222720,120
88,85,222720,120
91,101,222720,120
96,83,222960,120
91,81,223080,120
88,81,223200,120
84,80,223320,120
79,78,223440,120
76,76,223560,120
72,73,223680,120
67,74,223800,120
72,75,223920,120
76,76,224040,120
79,77,224160,120
84,78,224280,120
88,79,224400,120
91,80,224520,120
84,85,224640,120
88,85,224640,120
91,85,224640,120
96,101,224640,120
100,89,224880,120
96,87,225000,120
91,84,225120,120
88,81,225240,120
84,79,225360,120
79,76,225480,120
76,73,225600,120
72,74,225720,120
76,75,225840,120
79,76,225960,120
84,77,226080,120
88,78,226200,120
91,79,226320,120
96,80,226440,120
88,87,226560,480
91,87,226560,480
96,87,226560,480
100,103,226560,480
79,89,227520,480
83,89,227520,480
86,89,227520,480
91,106,227520,480
76,89,228480,480
79,89,228480,480
84,89,228480,480
88,106,228480,480
79,89,229440,480
83,89,229440,480
86,89,229440,480
91,106,229440,480
72,56,230400,120
84,57,230520,120
78,60,230640,120
75,50,230640,120
72,50,230640,120
84,63,230760,120
72,54,230880,120
76,54,230880,120
79,65,230880,120
84,67,231000,120
78,70,231120,120
75,59,231120,120
72,59,231120,120
84,72,231240,120
72,62,231360,120
76,62,231360,120
79,74,231360,120
84,77,231480,120
78,80,231600,120
75,67,231600,120
72,67,231600,120
84,83,231720,120
72,71,231840,120
76,71,231840,120
79,85,231840,120
84,82,231960,120
78,80,232080,120
75,68,232080,120
72,68,232080,120
84,78,232200,120
72,81,232320,480
76,81,232320,480
79,81,232320,480
84,97,232320,480
84,89,233280,480
88,89,233280,480
91,89,233280,480
96,106,233280,480
52,89,234240,960
55,89,234240,960
60,106,234240,960
36,71,0,480
48,84,0,480
36,67,480,90
48,79,480,90
36,67,720,90
48,79,720,90
36,67,960,480
48,79,960,480
36,68,1440,90
48,80,1440,90
36,69,1680,90
48,81,1680,90
37,76,1920,90
49,90,1920,90
38,75,2400,720
50,89,2400,720
40,68,3120,90
52,80,3120,90
41,67,3360,90
53,79,3360,90
40,68,3600,90
52,80,3600,90
38,71,3840,480
50,84,3840,480
38,71,4320,90
50,84,4320,90
38,68,4560,90
50,80,4560,90
38,68,4800,480
50,80,4800,480
38,69,5280,90
50,81,5280,90
38,69,5520,90
50,81,5520,90
39,76,5760,90
51,90,5760,90
40,75,6240,720
52,89,6240,720
42,80,6960,90
54,80,6960,90
43,68,7200,90
55,80,7200,90
45,69,7440,90
57,82,7440,90
46,78,7680,480
58,93,7680,480
46,71,8160,90
58,84,8160,90
46,71,8400,90
58,84,8400,90
37,79,8640,720
49,94,8640,720
37,73,9360,90
49,86,9360,90
45,79,9600,480
57,94,9600,480
45,71,10080,90
57,84,10080,90
45,72,10320,90
57,85,10320,90
36,79,10560,720
48,94,10560,720
36,72,11280,90
48,85,11280,90
35,72,11520,90
47,85,11520,90
38,72,11760,90
50,86,11760,90
43,75,12000,90
55,90,12000,90
41,72,12240,90
53,85,12240,90
40,73,12480,90
52,86,12480,90
36,70,12720,90
48,82,12720,90
35,70,12960,90
47,82,12960,90
33,69,13200,90
45,81,13200,90
41,71,13440,480
53,84,13440,480
40,69,13920,480
52,81,13920,480
38,71,14400,960
50,84,14400,960
36,65,15360,1200
48,77,15360,1200
38,61,16560,90
50,73,16560,90
40,61,16800,90
52,73,16800,90
41,61,17040,90
53,73,17040,90
40,65,17280,90
52,77,17280,90
38,63,17520,90
50,74,17520,90
36,63,17760,90
48,74,17760,90
35,63,18000,90
47,74,18000,90
33,67,18240,720
45,79,18240,720
40,64,18960,90
52,75,18960,90
41,65,19200,1200
53,77,19200,1200
40,61,20400,90
52,73,20400,90
41,61,20640,90
53,73,20640,90
43,61,20880,90
55,73,20880,90
42,65,21120,90
54,77,21120,90
40,63,21360,90
52,74,21360,90
38,63,21600,90
50,74,21600,90
37,63,21840,90
49,74,21840,90
35,67,22080,720
47,79,22080,720
33,59,22800,90
45,71,22800,90
32,60,23040,90
44,73,23040,90
35,57,23280,90
47,68,23280,90
32,60,23520,90
44,73,23520,90
35,55,23760,90
47,66,23760,90
41,65,24000,90
53,77,24000,90
41,64,24240,720
53,75,24240,720
31,60,24960,90
43,73,24960,90
34,57,25200,90
46,68,25200,90
31,60,25440,90
43,73,25440,90
34,55,25680,90
46,66,25680,90
40,65,25920,90
52,77,25920,90
40,64,26160,720
52,75,26160,720
38,64,26880,480
50,75,26880,480
30,59,27360,480
42,71,27360,480
31,58,27840,90
43,69,27840,90
33,59,28080,90
45,71,28080,90
35,61,28320,90
47,73,28320,90
36,64,28560,90
48,75,28560,90
38,65,28800,90
50,77,28800,90
42,64,29040,90
54,75,29040,90
43,65,29280,960
55,76,29280,960
42,64,30240,480
54,75,30240,480
41,64,30720,480
53,75,30720,480
40,63,31200,480
52,74,31200,480
38,60,31680,960
50,72,31680,960
48,65,32640,1200
52,77,32640,1200
52,61,33840,90
55,73,33840,90
53,61,34080,90
57,73,34080,90
55,61,34320,90
58,73,34320,90
53,65,34560,90
57,77,34560,90
52,63,34800,90
55,74,34800,90
50,63,35040,90
53,74,35040,90
45,63,35280,90
52,74,35280,90
41,67,35520,720
50,79,35520,720
45,64,36240,90
49,75,36240,90
46,65,36480,1200
50,77,36480,1200
50,61,37680,90
58,73,37680,90
58,61,37920,90
62,73,37920,90
57,61,38160,90
60,73,38160,90
55,65,38400,90
59,77,38400,90
54,63,38640,90
57,74,38640,90
52,63,38880,90
55,74,38880,90
47,63,39120,90
54,74,39120,90
43,67,39360,720
52,79,39360,720
41,56,40080,90
50,67,40080,90
40,57,40320,90
49,69,40320,90
43,54,40560,90
52,65,40560,90
40,57,40800,90
49,69,40800,90
43,52,41040,90
52,63,41040,90
55,59,41280,90
58,72,41280,90
55,58,41520,720
58,70,41520,720
39,57,42240,90
48,69,42240,90
42,54,42480,90
51,65,42480,90
39,57,42720,90
48,69,42720,90
42,52,42960,90
51,63,42960,90
54,59,43200,90
57,72,43200,90
54,58,43440,720
57,70,43440,720
55,71,44160,480
47,55,44640,480
50,66,44640,480
48,55,45120,90
52,65,45120,90
50,56,45360,90
53,68,45360,90
52,59,45600,90
55,70,45600,90
53,61,45840,90
57,73,45840,90
50,65,46080,480
55,77,46080,90
59,75,46320,90
48,77,46560,90
60,76,46560,960
52,75,46800,90
55,65,47040,960
59,75,47520,480
36,81,48000,480
48,96,48000,480
36,77,48480,90
48,91,48480,90
36,77,48720,90
48,91,48720,90
36,77,48960,480
48,91,48960,480
36,78,49440,90
48,92,49440,90
36,79,49680,90
48,93,49680,90
37,85,49920,90
49,100,49920,90
38,81,50400,720
50,99,50400,720
40,78,51120,90
52,92,51120,90
41,77,51360,90
53,91,51360,90
40,78,51600,90
52,92,51600,90
38,81,51840,480
50,96,51840,480
38,81,52320,90
50,96,52320,90
38,78,52560,90
50,92,52560,90
38,78,52800,480
50,92,52800,480
38,79,53280,90
50,93,53280,90
38,79,53520,90
50,93,53520,90
39,85,53760,90
51,100,53760,90
40,80,54240,720
52,99,54240,720
42,92,54960,90
54,92,54960,90
43,77,55200,90
55,91,55200,90
45,78,55440,90
57,92,55440,90
46,87,55680,480
58,103,55680,480
46,78,56160,90
58,92,56160,90
46,78,56400,90
58,92,56400,90
37,85,56640,720
49,100,56640,720
37,80,57360,90
49,94,57360,90
45,85,57600,480
57,100,57600,480
45,76,58080,90
57,90,58080,90
45,77,58320,90
57,91,58320,90
36,83,58560,720
48,98,58560,720
36,77,59280,90
48,91,59280,90
35,79,59520,90
47,93,59520,90
38,80,59760,90
50,94,59760,90
43,84,60000,90
55,100,60000,90
41,80,60240,90
53,94,60240,90
40,81,60480,90
52,96,60480,90
36,79,60720,90
48,93,60720,90
35,79,60960,90
47,93,60960,90
33,79,61200,90
45,93,61200,90
41,81,61440,480
53,96,61440,480
40,79,61920,480
52,93,61920,480
38,81,62400,960
50,96,62400,960
49,80,63360,480
61,96,63360,480
49,77,63840,120
61,92,63840,120
49,74,64080,120
61,88,64080,120
40,77,64320,960
52,92,64320,960
62,96,65280,480
50,80,65280,480
50,77,65760,120
62,92,65760,120
50,74,66000,120
62,88,66000,120
41,77,66240,960
53,92,66240,960
49,80,67200,480
61,96,67200,480
49,77,67680,120
61,92,67680,120
49,74,67920,120
61,88,67920,120
40,77,68160,960
52,92,68160,960
62,96,69120,480
50,80,69120,480
50,77,69600,90
62,92,69600,90
50,74,69840,90
62,88,69840,90
41,77,70080,960
53,92,70080,960
40,58,71040,480
52,69,71040,480
38,62,71520,480
50,73,71520,480
37,66,72000,480
49,79,72000,480
38,70,72480,480
50,84,72480,480
59,88,72960,480
55,74,72960,480
55,74,73440,240
59,88,73440,240
55,71,73680,240
59,84,73680,240
43,74,73920,960
52,88,73920,960
59,88,74880,480
55,74,74880,480
55,74,75360,240
59,88,75360,240
55,71,75600,240
59,84,75600,240
43,74,75840,960
51,88,75840,960
59,88,76800,480
55,74,76800,480
55,74,77280,240
59,88,77280,240
55,71,77520,240
59,84,77520,240
43,74,77760,960
52,88,77760,960
59,92,78720,480
55,77,78720,480
55,77,79200,240
59,92,79200,240
55,74,79440,240
59,88,79440,240
43,77,79680,960
53,92,79680,960
43,71,80640,480
55,84,80640,480
42,64,81120,480
54,77,81120,480
41,77,81600,480
53,90,81600,480
42,72,82080,480
54,86,82080,480
47,78,82560,120
59,68,82680,120
62,69,82800,120
59,69,82920,120
54,79,83040,120
59,71,83160,120
50,75,83280,120
54,71,83400,120
42,78,83520,120
54,68,83640,120
58,73,83760,120
54,67,83880,120
49,74,84000,120
54,65,84120,120
46,71,84240,120
49,65,84360,120
45,78,84480,120
57,68,84600,120
61,69,84720,120
57,69,84840,120
52,79,84960,120
57,71,85080,120
49,75,85200,120
52,71,85320,120
40,78,85440,120
52,68,85560,120
56,73,85680,120
52,67,85800,120
47,74,85920,120
52,65,86040,120
44,71,86160,120
47,65,86280,120
43,71,86400,120
55,61,86520,120
59,62,86640,120
55,62,86760,120
50,71,86880,120
55,63,87000,120
47,66,87120,120
50,62,87240,120
38,69,87360,120
50,59,87480,120
54,58,87600,120
57,57,87720,120
43,63,87840,120
47,55,87960,120
55,55,88080,120
59,54,88200,120
38,66,88320,120
50,57,88440,120
55,57,88560,120
57,57,88680,120
38,65,88800,120
50,58,88920,120
54,61,89040,120
57,57,89160,120
31,63,89280,120
43,54,89400,120
47,53,89520,120
50,53,89640,120
55,58,89760,120
50,50,89880,120
47,50,90000,120
43,50,90120,120
31,63,90240,120
55,55,90360,120
59,56,90480,120
55,56,90600,120
50,64,90720,120
55,57,90840,120
47,61,90960,120
50,57,91080,120
38,63,91200,120
50,55,91320,120
54,59,91440,120
50,54,91560,120
45,60,91680,120
50,52,91800,120
42,57,91920,120
45,52,92040,120
41,63,92160,120
53,55,92280,120
57,56,92400,120
53,56,92520,120
48,64,92640,120
53,57,92760,120
45,61,92880,120
48,57,93000,120
36,63,93120,120
48,55,93240,120
52,59,93360,120
48,54,93480,120
43,60,93600,120
48,52,93720,120
40,57,93840,120
43,52,93960,120
40,60,94080,120
52,51,94200,120
55,52,94320,120
52,52,94440,120
47,60,94560,120
52,53,94680,120
43,56,94800,120
47,52,94920,120
35,58,95040,120
47,50,95160,120
51,49,95280,120
54,48,95400,120
40,53,95520,120
47,46,95640,120
52,46,95760,120
55,45,95880,120
35,56,96000,120
47,48,96120,120
52,48,96240,120
54,48,96360,120
35,55,96480,120
47,49,96600,120
51,51,96720,120
54,48,96840,120
40,53,96960,120
52,45,97080,120
55,45,97200,120
59,45,97320,120
64,49,97440,120
59,42,97560,120
55,42,97680,120
52,42,97800,120
60,49,97920,90
64,59,97920,90
59,48,98160,90
62,56,98160,90
57,48,98400,90
60,56,98400,90
52,48,98640,90
59,56,98640,90
48,51,98880,720
57,60,98880,720
55,48,99600,90
65,57,99600,90
54,49,99840,90
66,59,99840,90
61,48,100080,90
64,56,100080,90
59,48,100320,90
62,56,100320,90
54,48,100560,90
61,56,100560,90
50,51,100800,720
59,60,100800,720
48,48,101520,90
57,57,101520,90
47,49,101760,90
56,59,101760,90
50,46,102000,90
59,55,102000,90
47,49,102240,90
56,59,102240,90
50,44,102480,90
59,53,102480,90
62,59,102720,90
65,70,102720,90
62,57,102960,720
65,68,102960,720
46,49,103680,90
55,59,103680,90
49,46,103920,90
58,55,103920,90
46,49,104160,90
55,59,104160,90
49,44,104400,90
58,53,104400,90
61,59,104640,90
64,70,104640,90
61,56,104880,720
64,67,104880,720
45,49,105600,90
54,59,105600,90
48,46,105840,90
57,55,105840,90
60,52,106080,480
63,59,106080,480
44,49,106560,90
53,59,106560,90
47,46,106800,90
56,55,106800,90
59,52,107040,480
62,59,107040,480
43,46,107520,90
52,56,107520,90
46,43,107760,90
55,51,107760,90
58,47,108000,480
61,54,108000,480
42,43,108480,90
51,51,108480,90
45,39,108720,90
54,47,108720,90
57,43,108960,480
60,49,108960,480
32,38,109440,120
44,36,109560,120
32,39,109680,120
44,36,109800,120
32,41,109920,120
44,38,110040,120
32,42,110160,120
44,39,110280,120
32,44,110400,120
44,41,110520,120
32,45,110640,120
44,44,110760,120
32,47,110880,120
44,44,111000,120
32,48,111120,120
44,47,111240,120
45,56,111360,120
46,53,111480,120
47,54,111600,120
48,55,111720,120
49,57,111840,120
50,59,111960,120
51,60,112080,120
52,61,112200,120
53,63,112320,120
54,65,112440,120
55,67,112560,120
56,68,112680,120
44,61,112800,120
56,72,112800,120
44,62,113040,120
56,73,113040,120
44,63,113280,120
56,75,113280,120
56,65,113520,240
68,77,113520,240
56,68,113760,240
68,80,113760,240
56,70,114000,240
68,83,114000,240
56,73,114240,240
68,87,114240,240
56,75,114480,240
68,90,114480,240
56,78,114720,120
68,93,114720,120
56,81,114960,120
68,96,114960,120
55,87,115200,228
67,102,115200,228
31,81,115440,228
43,97,115440,228
31,81,115680,228
43,97,115680,228
31,81,115920,228
43,97,115920,228
31,81,116160,228
43,97,116160,228
31,81,116400,228
43,97,116400,228
31,81,116640,228
43,97,116640,228
31,81,116880,228
43,97,116880,228
36,85,117120,480
48,100,117120,480
36,79,117600,90
48,95,117600,90
36,79,117840,90
48,95,117840,90
36,79,118080,480
48,95,118080,480
36,81,118560,90
48,96,118560,90
36,82,118800,90
48,97,118800,90
37,89,119040,90
49,105,119040,90
38,86,119520,720
50,102,119520,720
40,81,120240,90
52,96,120240,90
41,79,120480,90
53,95,120480,90
40,81,120720,90
52,96,120720,90
38,85,120960,480
50,100,120960,480
38,85,121440,90
50,100,121440,90
38,81,121680,90
50,96,121680,90
38,81,121920,480
50,96,121920,480
38,82,122400,90
50,97,122400,90
38,82,122640,90
50,97,122640,90
39,89,122880,90
51,105,122880,90
40,86,123360,720
52,102,123360,720
42,93,124080,90
54,93,124080,90
43,77,124320,90
55,92,124320,90
45,79,124560,90
57,93,124560,90
46,86,124800,480
58,101,124800,480
46,79,125280,90
58,93,125280,90
46,79,125520,90
58,93,125520,90
37,82,125760,960
49,97,125760,960
45,84,126720,480
57,98,126720,480
45,77,127200,90
57,91,127200,90
45,78,127440,90
57,92,127440,90
36,80,127680,960
48,95,127680,960
35,79,128640,90
47,93,128640,90
38,80,128880,90
50,94,128880,90
43,84,129120,90
55,99,129120,90
41,80,129360,90
53,94,129360,90
40,81,129600,90
52,96,129600,90
36,79,129840,90
48,93,129840,90
35,79,130080,90
47,93,130080,90
33,79,130320,90
45,93,130320,90
41,87,130560,90
53,88,130680,90
41,89,130800,90
53,91,130920,90
40,92,131040,90
52,93,131160,90
40,94,131280,90
52,96,131400,90
38,97,131520,90
50,94,131640,90
38,97,131760,90
50,92,131880,90
43,97,132000,90
55,92,132120,90
43,92,132240,90
55,92,132360,90
44,82,132480,330
56,101,132480,330
32,78,132840,90
44,92,132840,90
32,73,132960,1440
44,86,132960,1440
31,34,134400,120
43,34,134520,120
31,35,134640,120
43,35,134760,120
31,36,134880,120
43,36,135000,120
31,37,135120,120
43,37,135240,120
31,38,135360,120
43,38,135480,120
31,39,135600,120
43,39,135720,120
31,40,135840,120
43,40,135960,120
31,41,136080,120
43,41,136200,120
43,46,136320,120
55,43,136440,120
43,45,136560,120
55,47,136680,120
43,49,136800,120
55,51,136920,120
43,53,137040,120
55,56,137160,120
55,57,137280,120
67,59,137400,120
55,61,137520,120
67,63,137640,120
55,65,137760,120
67,68,137880,120
55,70,138000,120
67,72,138120,120
65,85,138240,480
53,72,138240,480
62,83,138720,480
50,71,138720,480
67,86,139200,480
55,73,139200,480
43,70,139680,480
55,82,139680,480
44,82,140160,330
56,99,140160,330
32,79,140520,90
44,94,140520,90
32,70,140640,1440
44,83,140640,1440
31,34,142080,120
43,34,142200,120
31,35,142320,120
43,35,142440,120
31,36,142560,120
43,36,142680,120
31,37,142800,120
43,37,142920,120
31,38,143040,120
43,38,143160,120
31,39,143280,120
43,39,143400,120
31,40,143520,120
43,40,143640,120
31,41,143760,120
43,41,143880,120
43,46,144000,120
55,43,144120,120
43,45,144240,120
55,47,144360,120
43,49,144480,120
55,51,144600,120
43,53,144720,120
55,56,144840,120
55,57,144960,120
67,59,145080,120
55,61,145200,120
67,63,145320,120
55,65,145440,120
67,68,145560,120
55,70,145680,120
67,72,145800,120
29,72,145920,360
41,86,145920,360
41,64,146280,90
53,75,146280,90
41,65,146400,480
53,76,146400,480
31,72,146880,360
43,86,146880,360
43,63,147240,90
55,74,147240,90
43,63,147360,480
55,74,147360,480
33,76,147840,360
45,90,147840,360
45,65,148200,90
57,76,148200,90
45,65,148320,480
57,76,148320,480
34,76,148800,360
46,91,148800,360
46,65,149160,90
58,77,149160,90
46,67,149280,480
58,79,149280,480
44,75,149760,360
56,89,149760,360
32,64,150120,90
44,75,150120,90
32,73,150240,480
44,87,150240,480
43,72,150720,360
55,86,150720,360
31,63,151080,90
43,74,151080,90
31,72,151200,480
43,86,151200,480
43,70,151680,360
55,82,151680,360
31,64,152040,90
43,76,152040,90
31,74,152160,480
43,88,152160,480
43,72,152640,360
55,85,152640,360
31,66,153000,90
43,78,153000,90
31,77,153120,480
43,92,153120,480
35,42,153600,90
47,50,153600,90
38,43,153840,90
50,51,153840,90
43,45,154080,90
55,53,154080,90
41,43,154320,90
53,51,154320,90
40,44,154560,90
52,52,154560,90
36,42,154800,90
48,50,154800,90
35,42,155040,90
47,50,155040,90
33,42,155280,90
45,50,155280,90
41,54,155520,120
53,56,155640,120
41,57,155760,120
53,59,155880,120
40,60,156000,120
52,62,156120,120
40,63,156240,120
52,65,156360,120
38,66,156480,120
50,66,156600,120
38,67,156720,120
50,68,156840,120
32,69,156960,120
44,69,157080,120
32,70,157200,120
44,71,157320,120
33,50,157440,90
45,60,157440,90
40,51,157680,90
52,61,157680,90
45,54,157920,90
57,63,157920,90
43,51,158160,90
55,61,158160,90
41,52,158400,90
53,62,158400,90
38,50,158640,90
50,60,158640,90
36,50,158880,90
48,60,158880,90
34,50,159120,90
46,60,159120,90
43,61,159360,120
55,62,159480,120
43,64,159600,120
55,66,159720,120
41,67,159840,120
53,69,159960,120
41,71,160080,120
53,73,160200,120
40,76,160320,120
52,72,160440,120
40,76,160560,120
52,71,160680,120
33,76,160800,120
45,72,160920,120
33,76,161040,120
45,71,161160,120
38,71,161280,240
50,84,161280,240
45,65,161520,240
57,77,161520,240
50,72,161760,90
62,85,161760,90
48,64,162000,90
60,76,162000,90
47,69,162240,240
59,82,162240,240
43,62,162480,240
55,74,162480,240
42,63,162720,90
54,75,162720,90
40,63,162960,90
52,75,162960,90
48,66,163200,120
60,67,163320,120
48,68,163440,120
60,69,163560,120
47,71,163680,120
59,72,163800,120
47,73,163920,120
59,74,164040,120
45,75,164160,120
57,73,164280,120
45,78,164400,120
57,71,164520,120
38,78,164640,120
50,70,164760,120
38,76,164880,120
50,70,165000,120
43,71,165120,240
55,84,165120,240
50,65,165360,240
62,77,165360,240
55,72,165600,240
67,85,165600,240
53,64,165840,240
65,76,165840,240
52,69,166080,240
64,82,166080,240
48,62,166320,240
60,74,166320,240
47,63,166560,240
59,75,166560,240
45,63,166800,240
57,75,166800,240
53,66,167040,120
65,67,167160,120
53,68,167280,120
65,69,167400,120
52,71,167520,120
64,72,167640,120
52,73,167760,120
64,74,167880,120
50,75,168000,120
62,73,168120,120
50,80,168240,120
62,74,168360,120
43,83,168480,120
55,75,168600,120
43,83,168720,120
55,78,168840,120
48,64,168960,120
60,54,169080,120
48,64,169200,120
60,53,169320,120
41,64,169440,120
53,55,169560,120
41,64,169680,120
53,54,169800,120
47,64,169920,120
59,54,170040,120
47,64,170160,120
59,54,170280,120
40,64,170400,120
52,53,170520,120
40,64,170640,120
52,55,170760,120
41,64,170880,120
53,56,171000,120
41,64,171120,120
53,54,171240,120
50,67,171360,120
45,56,171360,120
41,56,171360,120
53,59,171480,120
41,56,171600,120
45,56,171600,120
50,67,171600,120
53,57,171720,120
43,53,171840,120
48,53,171840,120
52,64,171840,120
55,57,171960,120
43,53,172080,120
48,53,172080,120
52,64,172080,120
55,56,172200,120
43,53,172320,120
47,53,172320,120
50,64,172320,120
55,57,172440,120
43,53,172560,120
47,53,172560,120
50,64,172560,120
55,57,172680,120
60,64,172800,120
55,53,172800,120
52,53,172800,120
64,55,172920,120
60,64,173040,120
55,53,173040,120
52,53,173040,120
64,55,173160,120
62,67,173280,120
57,56,173280,120
53,56,173280,120
65,58,173400,120
62,67,173520,120
57,56,173520,120
53,56,173520,120
65,56,173640,120
64,71,173760,120
60,59,173760,120
55,59,173760,120
67,61,173880,120
64,70,174000,120
60,58,174000,120
55,58,174000,120
67,59,174120,120
65,71,174240,120
62,59,174240,120
55,59,174240,120
67,64,174360,120
65,74,174480,120
62,63,174480,120
55,63,174480,120
67,63,174600,120
36,70,174720,480
48,82,174720,480
40,60,175200,90
52,72,175200,90
40,60,175440,90
52,72,175440,90
43,66,175680,480
55,78,175680,480
31,62,176160,90
43,73,176160,90
31,63,176400,90
43,74,176400,90
38,67,176640,480
50,79,176640,480
41,60,177120,90
53,72,177120,90
41,60,177360,90
53,72,177360,90
45,66,177600,480
57,78,177600,480
33,62,178080,90
45,73,178080,90
33,63,178320,90
45,74,178320,90
41,67,178560,480
53,79,178560,480
45,60,179040,90
57,72,179040,90
45,60,179280,90
57,72,179280,90
48,66,179520,480
60,78,179520,480
36,62,180000,90
48,73,180000,90
36,63,180240,90
48,74,180240,90
40,71,180480,140
46,64,180600,140
49,64,180720,140
52,64,180840,140
52,71,180960,20
58,66,181080,140
61,66,181200,140
64,66,181320,140
41,71,181440,140
47,65,181560,140
50,66,181680,140
53,66,181800,140
53,71,181920,20
59,65,182040,140
62,65,182160,140
65,65,182280,140
40,71,182400,140
46,64,182520,140
49,64,182640,140
52,64,182760,140
52,71,182880,20
58,66,183000,140
61,66,183120,140
64,66,183240,140
41,71,183360,140
47,65,183480,140
50,66,183600,140
53,66,183720,140
53,71,183840,20
59,65,183960,140
62,65,184080,140
65,65,184200,140
60,67,184320,120
55,56,184320,120
52,56,184320,120
64,58,184440,120
60,67,184560,120
55,56,184560,120
52,56,184560,120
64,57,184680,120
60,66,184800,120
57,56,184800,120
53,56,184800,120
65,57,184920,120
60,66,185040,120
57,56,185040,120
53,56,185040,120
65,55,185160,120
64,65,185280,120
60,55,185280,120
55,55,185280,120
67,55,185400,120
64,65,185520,120
60,55,185520,120
55,55,185520,120
67,56,185640,120
65,64,185760,120
62,54,185760,120
55,54,185760,120
67,55,185880,120
65,63,186000,120
62,53,186000,120
55,53,186000,120
67,54,186120,120
36,49,186240,480
52,39,186720,90
60,46,186720,90
52,39,186960,90
60,46,186960,90
55,39,187200,480
62,46,187200,480
43,47,187680,90
43,48,187920,90
38,49,188160,480
53,39,188640,90
62,46,188640,90
53,39,188880,90
62,46,188880,90
57,39,189120,480
64,46,189120,480
45,47,189600,90
45,48,189840,90
41,53,190080,480
57,47,190560,90
65,56,190560,90
57,49,190800,90
65,58,190800,90
60,52,191040,480
67,62,191040,480
48,69,191520,90
48,73,191760,90
40,71,192000,120
46,64,192120,120
49,64,192240,120
52,64,192360,120
52,71,192480,120
58,66,192600,120
61,66,192720,120
64,66,192840,120
41,71,192960,120
47,65,193080,120
50,66,193200,120
53,66,193320,120
53,71,193440,120
59,65,193560,120
62,65,193680,120
65,65,193800,120
42,71,193920,120
48,64,194040,120
51,64,194160,120
54,64,194280,120
54,71,194400,120
60,66,194520,120
63,66,194640,120
66,66,194760,120
43,71,194880,120
49,65,195000,120
52,66,195120,120
55,66,195240,120
55,71,195360,120
61,65,195480,120
64,65,195600,120
67,65,195720,120
44,63,195840,120
50,57,195960,120
53,58,196080,120
56,58,196200,120
57,66,196320,120
63,62,196440,120
66,62,196560,120
69,63,196680,120
46,68,196800,120
52,63,196920,120
55,65,197040,120
58,66,197160,120
59,71,197280,120
65,66,197400,120
68,66,197520,120
71,67,197640,120
48,74,197760,120
54,67,197880,120
57,67,198000,120
60,68,198120,120
49,76,198240,120
55,71,198360,120
58,72,198480,120
61,73,198600,120
50,79,198720,120
56,73,198840,120
59,75,198960,120
62,75,199080,120
65,82,199200,120
59,76,199320,120
62,76,199440,120
65,77,199560,120
56,65,199680,480
68,78,199680,480
57,65,200640,480
69,78,200640,480
41,65,201600,480
45,65,201600,480
50,65,201600,480
53,78,201600,480
43,65,202560,480
47,65,202560,480
50,65,202560,480
55,78,202560,480
36,32,203520,120
48,26,203640,120
43,26,203760,120
48,26,203880,120
44,32,204000,120
51,26,204120,120
48,25,204240,120
51,25,204360,120
43,32,204480,120
52,26,204600,120
48,26,204720,120
52,27,204840,120
43,33,204960,120
53,27,205080,120
50,27,205200,120
53,27,205320,120
48,33,205440,120
55,27,205560,120
52,27,205680,120
55,27,205800,120
44,33,205920,120
54,27,206040,120
51,26,206160,120
54,26,206280,120
43,34,206400,120
55,27,206520,120
48,28,206640,120
52,28,206640,120
55,29,206760,120
43,35,206880,120
55,28,207000,120
47,28,207120,120
50,28,207120,120
55,28,207240,120
48,41,207360,120
60,33,207480,120
55,33,207600,120
60,33,207720,120
56,42,207840,120
63,34,207960,120
60,33,208080,120
63,33,208200,120
55,43,208320,120
64,35,208440,120
60,35,208560,120
64,37,208680,120
55,46,208800,120
65,36,208920,120
62,37,209040,120
65,37,209160,120
60,47,209280,120
67,37,209400,120
64,38,209520,120
67,38,209640,120
56,48,209760,120
66,39,209880,120
63,38,210000,120
66,38,210120,120
55,50,210240,120
67,40,210360,120
60,40,210480,120
64,40,210480,120
67,42,210600,120
55,52,210720,120
67,41,210840,120
59,42,210960,120
62,42,210960,120
67,42,211080,120
60,49,211200,120
72,39,211320,120
67,39,211440,120
72,40,211560,120
68,50,211680,120
75,40,211800,120
72,40,211920,120
75,40,212040,120
67,52,212160,120
76,42,212280,120
72,42,212400,120
76,44,212520,120
67,55,212640,120
74,43,212760,120
71,43,212880,120
74,44,213000,120
55,60,213120,120
67,48,213240,120
60,48,213360,120
64,48,213360,120
67,49,213480,120
55,62,213600,120
67,50,213720,120
59,49,213840,120
62,49,213840,120
67,52,213960,120
43,67,214080,120
55,55,214200,120
48,55,214320,120
52,55,214320,120
55,57,214440,120
43,73,214560,120
55,58,214680,120
47,58,214800,120
50,58,214800,120
55,60,214920,120
36,64,215040,240
48,76,215040,240
31,58,215280,240
43,70,215280,240
36,66,215520,240
48,79,215520,240
31,60,215760,240
43,73,215760,240
36,69,216000,240
48,81,216000,240
31,63,216240,240
43,75,216240,240
36,71,216480,240
48,85,216480,240
31,64,216720,240
43,76,216720,240
36,68,216960,120
40,76,216960,120
43,76,216960,120
48,90,216960,120
72,68,217200,120
67,67,217320,120
64,65,217440,120
60,64,217560,120
55,63,217680,120
52,63,217800,120
48,60,217920,120
43,61,218040,120
48,62,218160,120
52,63,218280,120
55,64,218400,120
60,65,218520,120
64,66,218640,120
67,67,218760,120
60,68,218880,120
64,68,218880,120
67,68,218880,120
72,80,218880,120
76,68,219120,120
72,67,219240,120
67,65,219360,120
64,64,219480,120
60,63,219600,120
55,63,219720,120
52,60,219840,120
48,61,219960,120
52,62,220080,120
55,63,220200,120
60,64,220320,120
64,65,220440,120
67,66,220560,120
72,67,220680,120
64,68,220800,120
67,68,220800,120
72,68,220800,120
76,80,220800,120
79,68,221040,120
76,67,221160,120
72,65,221280,120
67,64,221400,120
64,63,221520,120
60,63,221640,120
55,60,221760,120
52,61,221880,120
55,62,222000,120
60,63,222120,120
64,64,222240,120
67,65,222360,120
72,66,222480,120
76,67,222600,120
67,68,222720,120
72,68,222720,120
76,68,222720,120
79,80,222720,120
84,68,222960,120
79,67,223080,120
76,65,223200,120
72,64,223320,120
67,63,223440,120
64,63,223560,120
60,60,223680,120
55,61,223800,120
60,62,223920,120
64,63,224040,120
67,64,224160,120
72,65,224280,120
76,66,224400,120
79,67,224520,120
72,68,224640,120
76,68,224640,120
79,68,224640,120
84,80,224640,120
60,73,224880,120
55,71,225000,120
52,69,225120,120
48,67,225240,120
43,65,225360,120
40,63,225480,120
36,60,225600,120
31,61,225720,120
36,62,225840,120
40,63,225960,120
43,64,226080,120
48,65,226200,120
52,66,226320,120
55,67,226440,120
48,71,226560,480
52,71,226560,480
55,71,226560,480
60,84,226560,480
43,71,227520,480
47,71,227520,480
50,71,227520,480
55,84,227520,480
48,71,228480,480
52,71,228480,480
55,71,228480,480
60,84,228480,480
43,71,229440,480
47,71,229440,480
50,71,229440,480
55,84,229440,480
48,45,230400,120
60,48,230520,120
54,50,230640,120
51,43,230640,120
48,43,230640,120
60,53,230760,120
48,47,230880,120
52,47,230880,120
55,55,230880,120
60,59,231000,120
54,62,231120,120
51,52,231120,120
48,52,231120,120
60,64,231240,120
48,56,231360,120
52,56,231360,120
55,66,231360,120
60,70,231480,120
54,73,231600,120
51,61,231600,120
48,61,231600,120
60,75,231720,120
48,65,231840,120
52,65,231840,120
55,76,231840,120
60,74,231960,120
54,72,232080,120
51,60,232080,120
48,60,232080,120
60,70,232200,120
48,64,232320,480
52,64,232320,480
55,64,232320,480
60,77,232320,480
60,71,233280,480
64,71,233280,480
67,71,233280,480
72,84,233280,480
36,71,234240,960
40,71,234240,960
43,71,234240,960
48,84,234240,960
