note,velocity,position,duration
69,50,1,159
71,46,160,160
72,46,320,160
71,50,480,160
72,46,640,160
74,46,800,160
76,65,960,480
69,50,1440,160
71,45,1600,160
72,45,1760,160
71,70,1920,480
72,44,2080,160
74,44,2240,160
76,65,2400,480
69,50,2880,160
71,45,3040,160
72,45,3200,160
71,66,3360,480
72,45,3520,160
74,45,3680,160
72,50,3840,160
74,48,4000,160
76,50,4160,160
77,50,4320,160
79,54,4480,160
81,58,4640,160
79,61,4800,160
77,56,4960,160
76,53,5120,160
74,55,5280,160
72,52,5440,160
71,48,5600,160
69,56,5760,160
71,50,5920,160
72,50,6080,160
71,53,6240,160
69,48,6400,160
67,48,6560,160
65,53,6720,160
64,47,6880,160
63,47,7040,160
64,57,7200,480
59,50,8160,160
61,45,8320,160
63,45,8480,160
64,54,8640,160
66,49,8800,160
68,49,8960,160
69,59,9120,480
59,50,9600,160
61,45,9760,160
63,45,9920,160
64,54,10080,160
66,48,10240,160
68,48,10400,160
69,58,10560,480
59,50,11040,160
61,46,11200,160
63,46,11360,160
64,54,11520,160
66,47,11680,160
68,47,11840,160
66,60,12000,160
68,53,12160,160
69,53,12320,160
68,64,12480,160
69,58,12640,160
71,60,12800,160
69,68,12960,160
71,60,13120,160
72,63,13280,160
71,73,13440,160
72,63,13600,160
74,68,13760,160
72,79,13920,160
74,68,14080,160
76,74,14240,160
77,90,14400,160
76,77,14560,160
74,79,14720,160
77,88,14880,160
83,88,14880,240
76,79,15040,160
74,79,15200,160
83,92,15360,240
77,92,15360,160
76,80,15520,160
74,80,15680,160
77,93,15840,160
83,93,15840,240
76,84,16000,160
74,86,16160,160
83,97,16320,240
77,97,16320,160
76,86,16480,160
74,87,16640,160
83,100,16800,240
77,100,16800,160
76,88,16960,160
74,91,17120,160
77,106,17280,160
83,106,17280,240
76,61,17440,160
74,52,17600,160
77,60,17760,160
76,51,17920,160
74,46,18080,160
77,57,18240,160
76,49,18400,160
74,43,18560,160
77,56,18720,160
76,47,18880,160
74,44,19040,160
76,56,19200,160
74,46,19360,160
72,46,19520,160
74,55,19680,160
72,45,19840,160
71,45,20000,160
69,50,20160,160
71,46,20320,160
72,46,20480,160
71,50,20640,160
72,46,20800,160
74,46,20960,160
76,65,21120,480
69,50,21600,160
71,45,21760,160
72,45,21920,160
71,70,22080,480
72,44,22240,160
74,44,22400,160
76,65,22560,480
69,50,23040,160
71,45,23200,160
72,45,23360,160
71,66,23520,480
72,45,23680,160
74,45,23840,160
72,50,24000,160
74,48,24160,160
76,50,24320,160
77,50,24480,160
79,54,24640,160
81,58,24800,160
79,61,24960,160
77,56,25120,160
76,53,25280,160
74,55,25440,160
72,52,25600,160
71,48,25760,160
69,56,25920,160
71,50,26080,160
72,50,26240,160
71,53,26400,160
69,48,26560,160
67,48,26720,160
65,53,26880,160
64,47,27040,160
63,47,27200,160
64,54,27360,160
66,49,27520,160
67,49,27680,160
69,59,27840,480
59,50,28320,160
61,45,28480,160
63,45,28640,160
64,54,28800,160
66,48,28960,160
67,48,29120,160
69,58,29280,480
59,50,29760,160
61,46,29920,160
63,46,30080,160
64,54,30240,160
66,47,30400,160
67,47,30560,160
66,60,30720,160
67,53,30880,160
69,53,31040,160
67,64,31200,160
69,58,31360,160
71,60,31520,160
69,68,31680,160
71,60,31840,160
72,63,32000,160
71,73,32160,160
72,63,32320,160
74,68,32480,160
72,79,32640,160
74,68,32800,160
76,74,32960,160
65,96,33120,160
70,78,33280,160
74,74,33440,160
77,87,33600,160
82,76,33760,160
86,76,33920,160
89,88,34080,160
94,76,34240,160
98,76,34400,160
101,97,34560,120
69,79,35040,240
76,93,35040,240
72,79,35040,240
64,79,35040,240
64,74,35520,240
76,88,35520,240
68,74,35520,240
71,74,35520,240
69,67,36000,160
71,56,36160,160
72,56,36320,160
74,65,36480,480
64,66,36960,160
66,54,37120,160
68,53,37280,160
69,64,37440,160
71,55,37600,160
72,55,37760,160
74,65,37920,480
64,64,38400,160
66,58,38560,160
68,58,38720,160
69,68,38880,160
71,60,39040,160
72,63,39200,160
71,73,39360,160
72,63,39520,160
74,68,39680,160
72,79,39840,160
74,68,40000,160
76,74,40160,160
65,96,40320,160
70,78,40480,160
74,75,40640,160
77,93,40800,160
82,77,40960,160
86,77,41120,160
89,92,41280,160
94,78,41440,160
98,78,41600,160
101,97,41760,120
69,79,42240,240
72,79,42240,240
64,79,42240,240
76,93,42240,240
68,74,42720,240
64,74,42720,240
71,74,42720,240
76,88,42720,240
69,88,43200,1200
81,104,43200,1200
72,88,43200,1200
76,88,43200,1200
76,88,44640,90
68,74,44640,90
75,69,44880,90
69,58,44880,90
68,68,45120,90
76,81,45120,90
69,58,45360,90
75,69,45360,90
76,88,45600,90
68,74,45600,90
72,88,46080,1200
65,88,46080,1200
69,88,46080,1200
77,104,46080,1200
64,74,47520,90
72,88,47520,90
71,72,47760,90
65,61,47760,90
64,67,48000,90
72,79,48000,90
65,61,48240,90
71,72,48240,90
72,88,48480,90
64,74,48480,90
71,83,48960,960
62,83,48960,960
65,83,48960,960
74,98,48960,960
64,76,49920,240
69,76,49920,240
60,76,49920,240
72,90,49920,240
62,76,50400,240
58,76,50400,240
65,76,50400,240
70,90,50400,240
65,80,50880,240
77,95,50880,240
68,80,50880,240
74,80,50880,240
72,77,51360,240
76,91,51360,240
64,77,51360,240
69,77,51360,240
74,94,51840,240
65,79,51840,240
71,79,51840,240
72,90,52320,240
64,76,52320,240
69,76,52320,240
71,88,52800,240
64,74,52800,240
68,74,52800,240
69,87,53280,240
71,83,53520,120
72,75,53640,120
74,76,53760,120
76,78,53880,120
78,80,54000,120
80,82,54120,120
81,83,54240,120
83,85,54360,120
84,87,54480,120
86,88,54600,120
88,99,54720,90
76,84,54720,90
75,73,54960,90
87,86,54960,90
88,93,55200,90
76,79,55200,90
75,73,55440,90
87,86,55440,90
88,101,55680,90
76,85,55680,90
65,89,56160,240
67,83,56400,120
69,75,56520,120
70,76,56640,120
72,78,56760,120
74,80,56880,120
76,82,57000,120
77,83,57120,120
79,85,57240,120
81,87,57360,120
82,88,57480,120
72,79,57600,90
84,94,57600,90
83,82,57840,90
71,69,57840,90
72,76,58080,90
84,90,58080,90
83,81,58320,90
71,68,58320,90
84,95,58560,90
72,80,58560,90
71,85,59040,120
72,80,59160,120
74,80,59280,120
76,78,59400,120
77,90,59520,120
83,83,59640,120
86,82,59760,120
89,78,59880,120
88,92,60000,120
70,86,60480,120
74,78,60600,120
77,78,60720,120
82,78,60840,120
74,86,60960,120
77,78,61080,120
80,78,61200,120
86,78,61320,120
72,86,61440,120
76,76,61560,120
81,76,61680,120
84,76,61800,120
71,80,61920,120
74,73,62040,120
77,73,62160,120
83,72,62280,120
69,78,62400,120
72,70,62520,120
76,70,62640,120
81,70,62760,120
68,77,62880,120
71,69,63000,120
76,69,63120,120
80,69,63240,120
57,87,63360,240
59,82,63600,120
60,78,63720,120
62,77,63840,120
64,77,63960,120
66,77,64080,120
68,76,64200,120
69,76,64320,120
71,76,64440,120
72,75,64560,120
74,75,64680,120
76,74,64800,120
77,74,64920,120
79,73,65040,120
81,73,65160,120
82,71,65280,240
79,71,66720,240
76,67,68160,240
73,55,69600,240
72,50,71040,240
69,38,72000,1200
60,33,72000,2880
70,36,73200,120
69,31,73320,120
67,36,73440,480
70,38,73920,480
73,42,74400,480
72,40,74880,960
60,33,74880,1440
69,34,75840,470
72,40,76320,960
60,33,76320,1440
70,34,77280,470
69,38,77760,1200
60,38,77760,2880
70,35,78960,120
69,31,79080,120
67,36,79200,480
70,38,79680,480
73,42,80160,480
72,40,80640,960
60,33,80640,1440
69,34,81600,470
72,47,82080,960
60,47,82080,1440
70,45,83040,470
61,53,83520,1440
73,53,83520,960
70,49,84480,470
62,57,84960,1440
74,57,84960,960
70,49,85920,470
63,53,86400,1440
69,53,86400,480
78,61,86880,480
77,55,87360,480
65,33,87840,1440
75,50,87840,960
74,45,88800,470
60,49,89280,1440
69,49,89280,480
75,53,89760,480
74,45,90240,480
72,48,90720,960
62,33,90720,1440
70,45,91680,470
60,33,92160,1440
72,40,92160,960
70,34,93120,470
60,33,93600,1440
72,40,93600,960
69,34,94560,470
58,33,95040,1440
73,51,95040,480
72,36,95520,240
70,31,95760,240
69,35,96000,240
67,29,96240,240
57,28,96480,480
65,35,96480,720
67,38,97200,240
69,43,97440,240
70,46,97680,240
69,54,97920,480
63,54,97920,1440
78,59,98400,480
77,54,98880,480
65,52,99360,1440
75,52,99360,960
74,49,100320,470
69,50,100800,480
60,50,100800,1440
75,56,101280,480
74,51,101760,480
62,33,102240,1440
72,48,102240,960
70,45,103200,470
60,43,103680,1440
72,43,103680,960
70,36,104640,470
60,43,105120,1440
72,43,105120,960
69,34,106080,470
58,33,106560,1440
73,51,106560,480
72,36,107040,240
70,31,107280,240
69,35,107520,240
67,29,107760,240
65,35,108000,480
57,31,108000,480
60,35,109440,1440
69,35,109440,1440
64,32,110880,1440
60,32,110880,1440
69,32,110880,1440
64,30,112320,1440
68,30,112320,1440
59,30,112320,1440
69,42,113760,160
71,39,113920,160
72,39,114080,160
71,42,114240,160
72,39,114400,160
74,39,114560,160
76,55,114720,480
69,42,115200,160
71,38,115360,160
72,38,115520,160
71,59,115680,480
72,37,115840,160
74,37,116000,160
76,55,116160,480
69,42,116640,160
71,38,116800,160
72,38,116960,160
71,56,117120,480
72,38,117280,160
74,38,117440,160
72,42,117600,160
74,40,117760,160
76,42,117920,160
77,42,118080,160
79,45,118240,160
81,49,118400,160
79,51,118560,160
77,47,118720,160
76,45,118880,160
74,46,119040,160
72,44,119200,160
71,40,119360,160
69,47,119520,160
71,42,119680,160
72,42,119840,160
71,45,120000,160
69,40,120160,160
67,40,120320,160
65,45,120480,160
64,39,120640,160
63,39,120800,160
64,48,120960,480
59,42,121920,160
61,38,122080,160
63,38,122240,160
64,45,122400,160
66,41,122560,160
68,41,122720,160
69,50,122880,480
59,42,123360,160
61,38,123520,160
63,38,123680,160
64,45,123840,160
66,40,124000,160
68,40,124160,160
69,49,124320,480
59,42,124800,160
61,39,124960,160
63,39,125120,160
64,45,125280,160
66,39,125440,160
68,40,125600,160
66,52,125760,160
68,46,125920,160
69,47,126080,160
68,57,126240,160
69,52,126400,160
71,54,126560,160
69,62,126720,160
71,55,126880,160
72,59,127040,160
71,69,127200,160
72,59,127360,160
74,65,127520,160
72,76,127680,160
74,66,127840,160
76,73,128000,160
77,90,128160,160
76,77,128320,160
74,79,128480,160
83,88,128640,240
77,88,128640,160
76,79,128800,160
74,79,128960,160
77,92,129120,160
83,92,129120,240
76,80,129280,160
74,80,129440,160
83,93,129600,240
77,93,129600,160
76,84,129760,160
74,86,129920,160
77,97,130080,160
83,97,130080,240
76,86,130240,160
74,87,130400,160
83,100,130560,240
77,100,130560,160
76,88,130720,160
74,91,130880,160
77,106,131040,160
83,106,131040,240
75,79,131200,160
74,67,131360,160
77,75,131520,160
83,75,131520,240
75,64,131680,160
74,57,131840,160
77,63,132000,160
83,63,132000,240
75,56,132160,160
74,49,132320,160
80,61,132480,160
79,54,132640,160
77,50,132800,160
79,56,132960,160
77,46,133120,160
75,46,133280,160
77,55,133440,160
75,45,133600,160
74,45,133760,160
72,50,133920,160
74,46,134080,160
75,46,134240,160
74,50,134400,160
75,46,134560,160
77,46,134720,160
79,65,134880,480
72,50,135360,160
74,45,135520,160
75,45,135680,160
74,70,135840,480
75,44,136000,160
77,44,136160,160
79,65,136320,480
72,50,136800,160
74,45,136960,160
75,45,137120,160
74,66,137280,480
75,45,137440,160
77,45,137600,160
75,50,137760,160
77,48,137920,160
79,50,138080,160
80,50,138240,160
82,54,138400,160
84,58,138560,160
82,61,138720,160
80,56,138880,160
79,53,139040,160
77,55,139200,160
75,52,139360,160
74,48,139520,160
72,56,139680,160
74,50,139840,160
75,50,140000,160
74,53,140160,160
72,48,140320,160
70,48,140480,160
68,53,140640,160
67,47,140800,160
66,47,140960,160
67,54,141120,240
62,50,142080,160
64,45,142240,160
66,45,142400,160
67,54,142560,160
69,48,142720,160
71,48,142880,160
72,58,143040,480
62,50,143520,160
64,46,143680,160
66,46,143840,160
67,54,144000,160
69,48,144160,160
71,48,144320,160
72,58,144480,480
62,50,144960,160
64,46,145120,160
66,46,145280,160
67,54,145440,160
69,47,145600,160
71,47,145760,160
69,60,145920,160
71,53,146080,160
72,53,146240,160
71,64,146400,160
72,58,146560,160
74,60,146720,160
72,68,146880,160
74,60,147040,160
76,63,147200,160
74,73,147360,160
76,63,147520,160
77,68,147680,160
76,79,147840,160
77,68,148000,160
79,74,148160,160
60,97,148320,160
65,77,148480,160
69,78,148640,160
72,85,148800,160
77,74,148960,160
81,77,149120,160
84,91,149280,160
89,79,149440,160
93,79,149600,160
96,108,149760,120
71,79,150240,240
79,79,150240,240
83,93,150240,240
76,79,150240,240
75,74,150720,240
83,88,150720,240
71,74,150720,240
78,74,150720,240
76,67,151200,160
78,56,151360,160
79,56,151520,160
81,65,151680,480
71,66,152160,160
73,54,152320,160
75,53,152480,160
76,64,152640,160
78,55,152800,160
79,55,152960,160
81,65,153120,480
71,64,153600,160
73,58,153760,160
75,58,153920,160
76,68,154080,160
78,60,154240,160
79,63,154400,160
78,73,154560,160
79,63,154720,160
81,68,154880,160
79,79,155040,160
81,68,155200,160
83,74,155360,160
60,97,155520,160
65,77,155680,160
69,77,155840,160
72,91,156000,160
77,78,156160,160
81,78,156320,160
84,96,156480,160
89,79,156640,160
93,79,156800,160
96,100,156960,120
79,79,157440,240
83,93,157440,240
76,79,157440,240
71,79,157440,240
71,74,157920,240
78,74,157920,240
75,74,157920,240
83,88,157920,240
83,88,158400,1200
88,104,158400,1200
79,88,158400,1200
76,88,158400,1200
75,74,159840,90
83,88,159840,90
82,75,160080,90
76,63,160080,90
83,84,160320,90
75,71,160320,90
82,75,160560,90
76,63,160560,90
75,72,160800,90
83,85,160800,90
74,88,161280,1200
86,104,161280,1200
78,88,161280,1200
81,88,161280,1200
73,74,162720,90
81,88,162720,90
74,64,162960,90
80,76,162960,90
81,83,163200,90
73,70,163200,90
74,63,163440,90
80,75,163440,90
81,87,163680,90
73,73,163680,90
78,83,164160,960
81,83,164160,960
72,83,164160,960
84,98,164160,960
71,76,165120,240
83,90,165120,240
79,76,165120,240
76,76,165120,240
69,76,165600,240
77,76,165600,240
72,76,165600,240
81,90,165600,240
72,80,166080,240
84,95,166080,240
75,80,166080,240
81,80,166080,240
79,77,166560,240
71,77,166560,240
76,77,166560,240
83,91,166560,240
81,94,167040,240
78,79,167040,240
72,79,167040,240
71,76,167520,240
76,76,167520,240
79,90,167520,240
71,76,168000,240
75,90,168000,240
78,90,168000,240
64,89,168480,1440
66,83,168720,120
67,75,168840,120
69,76,168960,120
71,78,169080,120
73,80,169200,120
75,82,169320,120
76,83,169440,120
78,85,169560,120
79,87,169680,120
81,88,169800,120
71,79,169920,90
83,93,169920,90
82,76,170160,90
70,64,170160,90
71,73,170400,90
83,86,170400,90
70,67,170640,90
82,79,170640,90
71,78,170880,90
83,92,170880,90
62,89,171360,1440
64,83,171600,120
66,75,171720,120
67,76,171840,120
69,78,171960,120
71,80,172080,120
73,82,172200,120
74,83,172320,120
76,85,172440,120
78,87,172560,120
80,88,172680,120
81,93,172800,90
69,79,172800,90
80,78,173040,90
68,66,173040,90
81,85,173280,90
69,72,173280,90
68,65,173520,90
80,77,173520,90
81,88,173760,90
69,74,173760,90
72,77,174360,120
76,77,174480,120
79,75,174600,120
84,87,174720,120
88,75,174840,120
91,79,174960,120
96,75,175080,120
95,89,175200,120
69,86,175680,120
72,78,175800,120
77,78,175920,120
81,78,176040,120
72,86,176160,120
75,78,176280,120
81,78,176400,120
84,78,176520,120
71,86,176640,120
76,76,176760,120
79,76,176880,120
83,76,177000,120
69,80,177120,120
72,73,177240,120
78,73,177360,120
81,72,177480,120
67,78,177600,120
71,70,177720,120
76,70,177840,120
79,70,177960,120
66,77,178080,120
71,69,178200,120
75,69,178320,120
78,69,178440,120
64,87,178560,240
66,82,178800,120
67,78,178920,120
69,77,179040,120
71,77,179160,120
73,77,179280,120
75,76,179400,120
76,76,179520,120
78,76,179640,120
79,75,179760,120
81,75,179880,120
83,74,180000,120
84,74,180120,120
86,73,180240,120
88,73,180360,120
89,71,180480,240
86,71,181920,240
83,67,183360,240
80,55,184800,240
79,50,186240,240
76,41,187200,1200
67,36,187200,2880
77,39,188400,120
76,34,188520,120
74,39,188640,480
77,41,189120,480
80,46,189600,480
79,44,190080,960
67,36,190080,1440
76,37,191040,470
67,36,191520,1440
79,44,191520,960
77,37,192480,470
67,41,192960,2880
76,41,192960,1200
77,38,194160,120
76,34,194280,120
74,39,194400,480
77,41,194880,480
80,46,195360,480
79,44,195840,960
67,36,195840,1440
76,37,196800,470
67,51,197280,1440
79,51,197280,960
77,49,198240,470
68,58,198720,1440
80,58,198720,960
77,53,199680,470
69,62,200160,1440
81,62,200160,960
77,53,201120,470
76,58,201600,480
70,58,201600,1440
85,63,202080,480
84,60,202560,480
72,36,203040,1440
82,55,203040,960
81,49,204000,480
67,53,204480,1440
76,53,204480,480
82,58,204960,480
81,49,205440,480
79,52,205920,960
69,36,205920,1440
77,49,206880,470
79,44,207360,960
67,36,207360,1440
77,37,208320,470
67,36,208800,1440
79,44,208800,960
76,37,209760,470
65,36,210240,1440
80,56,210240,480
79,39,210720,240
77,34,210960,240
76,38,211200,240
74,31,211440,240
72,38,211680,720
64,30,211680,480
74,41,212400,240
76,50,212640,240
77,54,212880,240
70,59,213120,1440
76,59,213120,480
85,64,213600,480
84,59,214080,480
72,57,214560,1440
82,57,214560,960
81,53,215520,470
67,55,216000,1440
76,55,216000,480
82,61,216480,480
81,56,216960,480
79,52,217440,960
69,36,217440,1440
77,49,218400,470
67,47,218880,1440
79,47,218880,960
77,39,219840,470
67,47,220320,1440
79,47,220320,960
76,37,221280,470
80,56,221760,480
65,36,221760,1440
79,39,222240,240
77,34,222480,240
76,38,222720,240
74,31,222960,240
72,38,223200,480
64,34,223200,480
76,35,224640,1440
67,35,224640,1440
76,32,226080,1440
67,32,226080,1440
71,32,226080,1440
75,30,227520,1440
66,30,227520,1440
71,30,227520,1440
65,91,228960,160
71,77,229120,160
74,74,229280,160
77,82,229440,160
83,73,229600,160
86,71,229760,160
89,78,229920,160
95,71,230080,160
98,70,230240,160
101,76,230400,120
74,35,233280,1440
68,35,233280,1440
65,35,233280,1440
74,32,234720,1440
69,32,234720,1440
65,32,234720,1440
69,30,236160,1440
64,30,236160,1440
73,30,236160,1440
63,91,237600,160
69,77,237760,160
72,72,237920,160
75,82,238080,160
81,73,238240,160
84,71,238400,160
87,78,238560,160
93,71,238720,160
96,70,238880,160
99,76,239040,120
66,35,241920,1440
68,35,241920,1440
75,35,241920,1440
68,32,243360,2760
65,32,243360,2760
75,32,243360,1440
73,39,244800,480
77,41,245280,480
78,47,245760,360
63,34,246120,1440
73,35,246180,1380
80,47,246240,1320
66,29,247560,1440
72,29,247620,1380
80,44,247680,1320
73,36,249120,160
75,30,249280,160
77,30,249440,160
75,36,249600,160
77,31,249760,160
78,31,249920,160
77,35,250080,160
78,30,250240,160
80,31,250400,160
78,39,250560,160
80,32,250720,160
82,32,250880,160
80,43,251040,160
82,36,251200,160
84,35,251360,160
85,47,251520,160
87,39,251680,160
89,40,251840,160
90,52,252000,160
89,41,252160,160
87,41,252320,160
89,50,252480,160
87,39,252640,160
85,41,252800,160
87,48,252960,160
85,38,253120,160
84,38,253280,160
85,42,253440,160
84,35,253600,160
82,35,253760,160
84,40,253920,160
82,33,254080,160
80,33,254240,160
78,37,254400,160
77,32,254560,160
75,32,254720,160
73,39,254880,160
75,33,255040,160
76,33,255200,160
75,39,255360,160
76,33,255520,160
78,33,255680,160
76,37,255840,160
78,32,256000,160
80,32,256160,160
78,41,256320,160
80,33,256480,160
81,33,256640,160
80,43,256800,160
82,36,256960,160
84,35,257120,160
85,46,257280,160
87,39,257440,160
88,39,257600,160
90,50,257760,160
88,39,257920,160
87,39,258080,160
88,48,258240,160
87,39,258400,160
85,40,258560,160
87,47,258720,160
85,38,258880,160
84,38,259040,160
85,42,259200,160
83,36,259360,160
81,36,259520,160
83,42,259680,160
81,35,259840,160
80,35,260000,160
78,40,260160,160
76,34,260320,160
75,34,260480,160
73,40,260640,160
75,35,260800,160
76,35,260960,160
75,45,261120,160
76,37,261280,160
78,37,261440,160
76,47,261600,160
78,39,261760,160
80,38,261920,160
81,53,262080,960
80,48,263040,480
73,40,263520,160
75,35,263680,160
76,35,263840,160
75,46,264000,160
76,37,264160,160
78,37,264320,160
76,48,264480,160
78,39,264640,160
80,38,264800,160
81,53,264960,960
80,48,265920,480
76,46,266400,160
78,38,266560,160
79,38,266720,160
78,51,266880,160
79,40,267040,160
81,40,267200,160
79,52,267360,160
81,42,267520,160
83,41,267680,160
84,58,267840,960
83,52,268800,490
86,74,269280,960
85,63,270240,480
78,58,270720,160
80,50,270880,160
81,50,271040,160
80,60,271200,160
81,48,271360,160
83,48,271520,160
79,62,271680,480
85,62,271680,480
90,57,272160,240
78,57,272160,240
78,64,273120,160
83,55,273280,160
78,55,273440,160
88,63,273600,240
76,63,273600,160
78,50,273760,160
80,50,273920,160
78,57,274080,160
80,48,274240,160
81,48,274400,160
77,65,274560,480
83,65,274560,480
76,64,275040,240
88,64,275040,240
76,65,276000,160
81,55,276160,160
76,55,276320,160
74,66,276480,160
86,66,276480,240
76,50,276640,160
78,50,276800,160
76,57,276960,160
78,48,277120,160
79,48,277280,160
81,69,277440,480
74,69,277440,960
86,69,277440,960
80,67,277920,480
81,65,278880,160
86,55,279040,160
81,56,279200,160
80,65,279360,160
81,53,279520,160
83,53,279680,160
81,62,279840,160
83,52,280000,160
84,52,280160,160
81,69,280320,480
74,69,280320,960
86,69,280320,960
80,68,280800,480
81,65,281760,160
86,57,281920,160
81,57,282080,160
80,64,282240,160
81,50,282400,160
83,50,282560,160
81,57,282720,160
83,48,282880,160
84,48,283040,160
81,68,283200,480
74,68,283200,960
86,68,283200,960
80,67,283680,480
69,50,285120,160
71,46,285280,160
72,46,285440,160
71,50,285600,160
72,46,285760,160
74,46,285920,160
76,65,286080,480
69,50,286560,160
71,45,286720,160
72,45,286880,160
71,70,287040,480
72,44,287200,160
74,44,287360,160
76,65,287520,480
69,50,288000,160
71,45,288160,160
72,45,288320,160
71,66,288480,480
72,45,288640,160
74,45,288800,160
72,50,288960,160
74,48,289120,160
76,50,289280,160
77,50,289440,160
79,54,289600,160
81,58,289760,160
79,61,289920,160
77,56,290080,160
76,53,290240,160
74,55,290400,160
72,52,290560,160
71,48,290720,160
69,56,290880,160
71,50,291040,160
72,50,291200,160
71,53,291360,160
69,48,291520,160
67,48,291680,160
65,53,291840,160
64,47,292000,160
63,47,292160,160
64,57,292320,480
59,50,293280,160
61,45,293440,160
63,45,293600,160
64,54,293760,160
66,49,293920,160
68,49,294080,160
69,59,294240,480
59,50,294720,160
61,45,294880,160
63,45,295040,160
64,54,295200,160
66,48,295360,160
68,48,295520,160
69,58,295680,480
59,50,296160,160
61,46,296320,160
63,46,296480,160
64,54,296640,160
66,47,296800,160
68,47,296960,160
66,60,297120,160
68,53,297280,160
69,53,297440,160
68,64,297600,160
69,58,297760,160
71,60,297920,160
69,68,298080,160
71,60,298240,160
72,63,298400,160
71,73,298560,160
72,63,298720,160
74,68,298880,160
72,79,299040,160
74,68,299200,160
76,74,299360,160
65,93,299520,160
70,79,299680,160
74,77,299840,160
77,90,300000,160
82,79,300160,160
86,79,300320,160
89,89,300480,160
94,78,300640,160
98,78,300800,160
101,96,300960,120
72,79,301440,240
64,79,301440,240
69,79,301440,240
76,93,301440,240
68,74,301920,240
76,88,301920,240
71,74,301920,240
64,74,301920,240
69,67,302400,480
64,66,303360,160
66,54,303520,160
68,53,303680,160
69,64,303840,160
71,55,304000,160
72,55,304160,160
74,65,304320,480
64,64,304800,160
66,58,304960,160
68,58,305120,160
69,64,305280,160
71,55,305440,160
72,55,305600,160
74,65,305760,480
64,64,306240,160
66,58,306400,160
68,58,306560,160
69,68,306720,160
71,60,306880,160
72,63,307040,160
71,73,307200,160
72,63,307360,160
74,68,307520,160
72,79,307680,160
74,68,307840,160
76,74,308000,160
65,93,308160,160
70,79,308320,160
74,79,308480,160
77,90,308640,160
82,77,308800,160
86,77,308960,160
89,90,309120,160
94,76,309280,160
98,76,309440,160
101,97,309600,120
72,79,310080,240
76,93,310080,240
69,79,310080,240
64,79,310080,240
68,74,310560,240
71,74,310560,240
64,74,310560,240
76,88,310560,240
65,93,311040,160
70,81,311200,160
74,80,311360,160
77,90,311520,160
82,79,311680,160
86,79,311840,160
89,93,312000,160
94,79,312160,160
98,79,312320,160
101,97,312480,120
65,79,312960,240
77,93,312960,240
70,79,312960,240
74,79,312960,240
72,74,313440,240
65,74,313440,240
69,74,313440,240
77,88,313440,240
79,74,313920,240
91,88,313920,240
72,79,314400,240
67,79,314400,240
79,93,314400,240
75,79,314400,240
74,74,314880,240
79,88,314880,240
71,74,314880,240
67,74,314880,240
81,74,315360,240
93,88,315360,240
74,79,315840,240
81,93,315840,240
77,79,315840,240
69,79,315840,240
69,74,316320,240
81,88,316320,240
73,74,316320,240
76,74,316320,240
70,59,316800,120
67,50,316800,120
67,52,317040,120
70,62,317040,120
70,54,317280,120
67,54,317280,120
73,64,317280,120
70,67,317520,120
67,56,317520,120
73,67,317520,120
70,59,317760,120
67,59,317760,120
76,70,317760,120
73,59,317760,120
70,62,318000,120
76,73,318000,120
73,62,318000,120
67,62,318000,120
70,64,318240,120
79,76,318240,120
73,64,318240,120
76,64,318240,120
76,67,318480,120
70,67,318480,120
73,67,318480,120
79,79,318480,120
76,69,318720,120
79,69,318720,120
73,69,318720,120
82,82,318720,120
76,72,318960,120
73,72,318960,120
79,72,318960,120
82,85,318960,120
76,73,319200,120
85,87,319200,120
79,73,319200,120
82,73,319200,120
82,76,319440,120
85,90,319440,120
76,76,319440,120
79,76,319440,120
81,90,319680,240
74,85,319680,240
77,85,319680,240
86,100,319680,240
77,85,321120,240
86,98,321120,240
81,85,321120,240
89,100,321120,240
69,42,322560,240
76,50,322560,240
68,42,324000,240
76,50,324000,240
73,38,325440,1200
64,33,325440,2880
74,36,326640,120
73,31,326760,120
71,36,326880,480
74,38,327360,480
77,42,327840,480
64,33,328320,1440
76,40,328320,960
73,34,329280,470
64,33,329760,1440
76,40,329760,960
74,34,330720,470
73,38,331200,1200
64,38,331200,2880
74,35,332400,120
73,31,332520,120
71,36,332640,480
74,38,333120,480
77,42,333600,480
64,33,334080,1440
76,40,334080,960
73,34,335040,470
64,47,335520,1440
76,47,335520,960
74,45,336480,470
77,53,336960,960
65,53,336960,1440
74,49,337920,470
78,57,338400,960
66,57,338400,1440
74,49,339360,470
73,53,339840,480
67,53,339840,1440
82,61,340320,480
81,55,340800,480
69,33,341280,1440
79,50,341280,960
78,45,342240,470
73,49,342720,480
64,49,342720,1440
79,53,343200,480
78,45,343680,480
66,33,344160,1440
76,48,344160,960
74,45,345120,470
64,33,345600,1440
76,40,345600,960
74,34,346560,470
64,33,347040,1440
76,40,347040,960
73,34,348000,470
62,33,348480,1440
77,51,348480,480
76,36,348960,240
74,31,349200,240
73,35,349440,240
71,29,349680,240
69,35,349920,720
61,28,349920,470
71,38,350640,240
73,43,350880,240
74,46,351120,240
67,54,351360,1440
73,54,351360,480
82,59,351840,480
81,54,352320,480
79,52,352800,960
69,52,352800,1440
78,49,353760,470
64,50,354240,1440
73,50,354240,480
79,56,354720,480
78,51,355200,480
76,48,355680,960
66,33,355680,1440
74,45,356640,470
76,43,357120,960
64,43,357120,1440
74,36,358080,470
76,43,358560,960
64,43,358560,1440
73,34,359520,470
77,51,360000,480
62,33,360000,1440
76,36,360480,240
74,31,360720,240
73,35,360960,240
71,29,361200,240
69,35,361440,1440
61,31,361440,950
69,89,362880,240
71,83,363120,120
72,75,363240,120
74,76,363360,120
76,78,363480,120
78,80,363600,120
80,82,363720,120
81,83,363840,120
83,85,363960,120
84,87,364080,120
86,88,364200,120
76,81,364320,90
88,96,364320,90
87,85,364560,90
75,72,364560,90
88,92,364800,90
76,78,364800,90
75,72,365040,90
87,85,365040,90
88,94,365280,90
76,79,365280,90
67,89,365760,240
69,83,366000,120
71,75,366120,120
72,76,366240,120
74,78,366360,120
76,80,366480,120
78,82,366600,120
79,83,366720,120
81,85,366840,120
83,87,366960,120
85,88,367080,120
74,80,367200,90
86,95,367200,90
85,86,367440,90
73,73,367440,90
74,78,367680,90
86,92,367680,90
85,85,367920,90
73,72,367920,90
86,95,368160,90
74,80,368160,90
77,77,368760,120
81,77,368880,120
84,81,369000,120
89,87,369120,120
93,80,369240,120
96,79,369360,120
101,75,369480,120
100,89,369600,120
74,90,370080,120
77,81,370200,120
82,81,370320,120
86,81,370440,120
77,90,370560,120
80,81,370680,120
86,81,370800,120
89,81,370920,120
76,90,371040,120
81,79,371160,120
84,79,371280,120
88,79,371400,120
74,88,371520,120
77,78,371640,120
83,78,371760,120
86,78,371880,120
72,85,372000,120
76,76,372120,120
81,76,372240,120
84,76,372360,120
71,86,372480,120
76,75,372600,120
80,76,372720,120
83,76,372840,120
69,78,372960,160
57,66,372960,160
59,59,373120,160
71,70,373120,160
60,58,373280,160
72,69,373280,160
71,77,373440,160
59,65,373440,160
72,71,373600,160
60,60,373600,160
74,72,373760,160
62,61,373760,160
64,74,373920,480
76,88,373920,480
57,66,374400,160
69,78,374400,160
71,70,374560,160
59,59,374560,160
60,58,374720,160
72,69,374720,160
59,65,374880,160
71,77,374880,160
72,71,375040,160
60,60,375040,160
62,61,375200,160
74,72,375200,160
76,88,375360,480
64,74,375360,480
69,71,375840,160
81,84,375840,160
71,64,376000,160
83,76,376000,160
84,76,376160,160
72,64,376160,160
83,85,376320,160
71,72,376320,160
84,77,376480,160
72,65,376480,160
74,65,376640,160
86,77,376640,160
76,80,376800,480
88,95,376800,480
81,84,377280,160
69,71,377280,160
71,64,377440,160
83,76,377440,160
72,64,377600,160
84,76,377600,160
71,72,377760,160
83,85,377760,160
84,77,377920,160
72,65,377920,160
74,65,378080,160
86,77,378080,160
76,80,378240,480
88,95,378240,480
81,80,378720,240
76,80,378720,240
72,80,378720,240
84,95,378720,240
83,91,379680,240
76,77,379680,240
80,77,379680,240
71,77,379680,240
84,95,380160,240
76,80,380160,240
81,80,380160,240
72,80,380160,240
71,77,381120,240
76,77,381120,240
80,77,381120,240
83,91,381120,240
81,80,381600,240
84,95,381600,240
76,80,381600,240
72,80,381600,240
80,91,382560,240
76,77,382560,240
71,77,382560,240
83,91,382560,240
69,80,383040,240
81,95,383040,240
72,80,383040,240
76,80,383040,240
64,72,384480,240
57,72,384480,240
60,72,384480,240
69,85,384480,240
60,74,384960,240
64,74,384960,240
57,74,384960,240
69,88,384960,240
60,76,385440,240
57,76,385440,240
64,76,385440,240
69,90,385440,240
57,77,385920,240
69,91,385920,240
60,77,385920,240
64,77,385920,240
64,50,960,160
66,44,1120,160
68,44,1280,160
66,52,1440,160
68,45,1600,160
69,45,1760,160
64,50,2400,160
66,46,2560,160
68,46,2720,160
66,50,2880,160
68,45,3040,160
69,45,3200,160
69,50,3840,160
71,50,4000,160
72,51,4160,160
74,52,4320,160
76,53,4480,160
77,56,4640,160
76,60,4800,160
74,55,4960,160
72,51,5120,160
71,55,5280,160
69,52,5440,160
67,50,5600,160
65,59,5760,180
60,56,6240,180
57,50,6720,480
56,53,7200,160
54,48,7360,160
52,48,7520,160
51,52,7680,160
49,47,7840,160
47,48,8000,160
57,64,8160,480
56,54,8640,160
54,49,8800,160
52,49,8960,160
51,53,9120,160
49,47,9280,160
47,47,9440,160
57,64,9600,480
56,54,10080,160
54,47,10240,160
52,47,10400,160
51,52,10560,160
49,44,10720,160
47,44,10880,160
57,64,11040,480
56,50,11520,160
54,43,11680,160
52,43,11840,160
54,52,12000,160
52,44,12160,160
51,44,12320,160
52,52,12480,160
51,47,12640,160
50,47,12800,160
52,56,12960,160
50,52,13120,160
48,53,13280,160
50,58,13440,160
48,55,13600,160
47,55,13760,160
48,65,13920,160
47,59,14080,160
45,59,14240,160
44,77,14400,160
45,67,14560,160
47,67,14720,160
38,75,14880,240
44,75,14880,160
45,66,15040,160
47,66,15200,160
38,76,15360,240
44,76,15360,160
45,69,15520,160
47,69,15680,160
38,78,15840,240
44,78,15840,160
45,72,16000,160
47,74,16160,160
38,81,16320,240
44,81,16320,160
45,74,16480,160
47,76,16640,160
38,84,16800,240
44,84,16800,160
45,76,16960,160
47,78,17120,160
32,84,17280,240
44,99,17280,240
64,50,21120,160
66,44,21280,160
68,44,21440,160
66,52,21600,160
68,45,21760,160
69,45,21920,160
64,50,22560,160
66,46,22720,160
68,46,22880,160
66,50,23040,160
68,45,23200,160
69,45,23360,160
69,50,24000,160
71,50,24160,160
72,51,24320,160
74,52,24480,160
76,53,24640,160
77,56,24800,160
76,60,24960,160
74,55,25120,160
72,51,25280,160
71,55,25440,160
69,52,25600,160
67,50,25760,160
65,59,25920,180
60,56,26400,180
57,50,26880,180
55,54,27360,160
54,49,27520,160
52,49,27680,160
51,53,27840,160
49,47,28000,160
47,47,28160,160
57,64,28320,480
55,54,28800,160
54,47,28960,160
52,47,29120,160
51,52,29280,160
49,44,29440,160
47,44,29600,160
57,64,29760,480
55,50,30240,160
54,43,30400,160
52,43,30560,160
51,52,30720,160
52,44,30880,160
54,44,31040,160
52,52,31200,160
54,47,31360,160
55,47,31520,160
54,56,31680,160
55,52,31840,160
57,53,32000,160
56,58,32160,160
57,55,32320,160
59,55,32480,160
57,65,32640,160
59,59,32800,160
60,59,32960,160
62,91,33120,160
58,77,33280,160
53,77,33440,160
50,86,33600,160
46,76,33760,160
41,76,33920,160
38,83,34080,160
34,75,34240,160
29,75,34400,160
26,91,34560,120
52,77,35040,240
40,65,35040,240
48,65,35040,240
45,65,35040,240
44,61,35520,240
47,61,35520,240
52,72,35520,240
40,61,35520,240
60,62,36000,160
59,56,36160,160
57,56,36320,160
56,61,36480,160
54,55,36640,160
52,54,36800,160
62,67,36960,480
60,61,37440,160
59,55,37600,160
57,55,37760,160
56,60,37920,160
54,54,38080,160
52,54,38240,160
62,68,38400,480
60,64,38880,160
59,57,39040,160
57,57,39200,160
56,67,39360,160
57,56,39520,160
59,56,39680,160
57,72,39840,160
59,64,40000,160
60,64,40160,160
62,91,40320,160
58,76,40480,160
53,76,40640,160
50,85,40800,160
46,74,40960,160
41,75,41120,160
38,85,41280,160
34,75,41440,160
29,76,41600,160
26,93,41760,120
40,68,42240,240
45,68,42240,240
48,68,42240,240
52,80,42240,240
40,63,42720,240
47,63,42720,240
44,63,42720,240
52,75,42720,240
36,73,43200,1200
40,73,43200,1200
45,86,43200,1200
33,73,43200,1200
45,76,44400,60
47,77,44460,60
48,77,44520,60
50,78,44580,60
52,85,44640,90
40,72,44640,90
53,69,44880,90
41,58,44880,90
52,77,45120,90
40,65,45120,90
53,69,45360,90
41,58,45360,90
52,77,45600,90
40,65,45600,90
29,73,46080,1200
36,73,46080,1200
33,73,46080,1200
41,87,46080,1200
41,69,47280,60
43,69,47340,60
45,69,47400,60
47,70,47460,60
36,59,47520,90
48,70,47520,90
38,52,47760,90
50,62,47760,90
36,60,48000,90
48,71,48000,90
50,64,48240,90
38,54,48240,90
36,65,48480,90
48,77,48480,90
32,73,48960,960
44,86,48960,960
33,68,49920,240
45,80,49920,240
34,65,50400,240
46,77,50400,240
35,70,50880,240
47,83,50880,240
48,79,51360,240
36,67,51360,240
50,84,51840,240
38,71,51840,240
52,78,52320,240
40,66,52320,240
52,75,52800,240
40,63,52800,240
45,69,53280,1440
48,69,53280,1440
52,69,53280,1440
57,82,53280,1440
56,77,54720,90
52,65,54720,90
57,67,54960,90
53,56,54960,90
56,72,55200,90
52,61,55200,90
57,65,55440,90
53,55,55440,90
56,77,55680,90
52,65,55680,90
48,72,56160,1440
45,72,56160,1440
41,72,56160,1440
53,85,56160,1440
52,71,57600,90
48,60,57600,90
53,64,57840,90
50,54,57840,90
52,70,58080,90
48,59,58080,90
53,62,58320,90
50,52,58320,90
52,74,58560,90
48,62,58560,90
50,57,59040,960
47,57,59040,960
56,68,59040,960
53,57,59040,960
44,57,59040,960
48,55,60000,240
57,65,60000,240
52,55,60000,240
45,55,60000,240
50,51,60480,240
58,60,60480,240
53,51,60480,240
46,51,60480,240
50,49,60960,240
56,49,60960,240
59,58,60960,240
47,49,60960,240
53,49,60960,240
52,48,61440,240
60,57,61440,240
57,48,61440,240
48,48,61440,240
53,49,61920,240
62,58,61920,240
50,49,61920,240
59,49,61920,240
57,47,62400,240
64,56,62400,240
60,47,62400,240
52,47,62400,240
59,45,62880,240
64,54,62880,240
52,45,62880,240
56,45,62880,240
45,77,63360,240
47,73,63600,120
48,67,63720,120
50,67,63840,120
52,66,63960,120
54,65,64080,120
56,64,64200,120
57,63,64320,120
59,63,64440,120
60,62,64560,120
62,62,64680,120
64,61,64800,120
65,61,64920,120
67,60,65040,120
69,60,65160,120
70,60,65280,240
67,60,66720,240
64,55,68160,240
61,48,69600,240
60,46,71040,240
41,36,72000,240
48,22,72240,240
53,27,72480,240
48,22,72720,240
53,36,72960,240
40,36,73440,240
48,26,73680,240
55,31,73920,240
48,26,74160,240
58,35,74400,240
41,33,74880,240
48,23,75120,240
57,26,75360,240
48,22,75600,240
53,36,75840,240
40,36,76320,240
48,27,76560,240
52,31,76800,240
48,26,77040,240
55,35,77280,240
41,34,77760,240
48,27,78000,240
53,29,78240,240
48,26,78480,240
53,36,78720,240
40,36,79200,240
48,27,79440,240
55,31,79680,240
48,27,79920,240
58,35,80160,240
41,33,80640,240
48,23,80880,240
57,27,81120,240
48,22,81360,240
53,36,81600,240
40,38,82080,240
48,28,82320,240
52,35,82560,240
48,28,82800,240
55,35,83040,240
40,38,83520,240
49,30,83760,240
52,36,84000,240
49,31,84240,240
55,39,84480,240
41,47,84960,240
50,33,85200,240
53,36,85440,240
50,33,85680,240
58,41,85920,240
41,48,86400,240
53,35,86640,240
60,40,86880,240
53,35,87120,240
60,44,87360,240
46,39,87840,240
53,24,88080,240
58,26,88320,240
53,22,88560,240
62,31,88800,240
38,38,89280,240
50,30,89520,240
54,33,89760,240
50,29,90000,240
57,38,90240,240
43,36,90720,240
50,25,90960,240
55,28,91200,240
50,26,91440,240
58,31,91680,240
40,36,92160,240
48,27,92400,240
52,29,92640,240
48,27,92880,240
55,35,93120,240
41,33,93600,240
48,28,93840,240
57,29,94080,240
48,28,94320,240
53,36,94560,240
36,33,95040,240
48,29,95280,240
55,29,95520,240
48,29,95760,240
52,36,96000,240
41,33,96480,240
48,26,96720,240
57,26,96960,240
48,26,97200,240
53,30,97440,240
41,44,97920,240
53,36,98160,240
60,38,98400,240
53,36,98640,240
60,44,98880,240
46,39,99360,240
53,26,99600,240
58,26,99840,240
53,26,100080,240
62,31,100320,240
38,40,100800,240
50,30,101040,240
54,36,101280,240
50,29,101520,240
57,38,101760,240
43,36,102240,240
50,26,102480,240
55,26,102720,240
50,26,102960,240
58,31,103200,240
40,36,103680,240
48,27,103920,240
52,28,104160,240
48,28,104400,240
55,35,104640,240
41,33,105120,240
48,27,105360,240
57,29,105600,240
48,26,105840,240
53,36,106080,240
36,33,106560,240
48,26,106800,240
55,29,107040,240
48,27,107280,240
52,36,107520,240
41,33,108000,240
48,23,108240,240
53,26,108480,240
48,23,108720,240
57,23,108960,240
41,33,109440,240
48,20,109680,240
53,26,109920,240
48,20,110160,240
57,25,110400,240
40,31,110880,240
48,18,111120,240
52,23,111360,240
48,18,111600,240
57,25,111840,240
40,29,112320,240
47,20,112560,240
52,25,112800,240
47,18,113040,240
56,20,113280,240
45,38,113760,480
64,42,114720,160
66,37,114880,160
68,37,115040,160
66,44,115200,160
68,38,115360,160
69,38,115520,160
64,42,116160,160
66,39,116320,160
68,39,116480,160
66,42,116640,160
68,38,116800,160
69,38,116960,160
69,42,117600,160
71,42,117760,160
72,43,117920,160
74,44,118080,160
76,45,118240,160
77,47,118400,160
76,51,118560,160
74,46,118720,160
72,43,118880,160
71,46,119040,160
69,44,119200,160
67,42,119360,160
65,50,119520,180
60,47,120000,180
57,42,120480,180
56,45,120960,160
54,40,121120,160
52,40,121280,160
51,44,121440,160
49,39,121600,160
47,40,121760,160
57,54,121920,480
56,45,122400,160
54,41,122560,160
52,41,122720,160
51,45,122880,160
49,39,123040,160
47,39,123200,160
57,54,123360,480
56,45,123840,160
54,39,124000,160
52,39,124160,160
51,44,124320,160
49,37,124480,160
47,37,124640,160
57,54,124800,480
56,42,125280,160
54,36,125440,160
52,36,125600,160
54,45,125760,160
52,38,125920,160
51,39,126080,160
52,46,126240,160
51,42,126400,160
50,42,126560,160
52,51,126720,160
50,48,126880,160
48,49,127040,160
50,55,127200,160
48,52,127360,160
47,52,127520,160
48,63,127680,160
47,57,127840,160
45,58,128000,160
44,77,128160,160
45,67,128320,160
47,67,128480,160
44,75,128640,160
38,75,128640,240
45,66,128800,160
47,66,128960,160
44,76,129120,160
38,76,129120,240
45,69,129280,160
47,69,129440,160
38,78,129600,240
44,78,129600,160
45,72,129760,160
47,74,129920,160
38,81,130080,240
44,81,130080,160
45,74,130240,160
47,76,130400,160
44,84,130560,160
38,84,130560,240
45,76,130720,160
47,78,130880,160
43,99,131040,240
31,99,131040,240
67,50,134880,160
69,44,135040,160
71,44,135200,160
69,52,135360,160
71,45,135520,160
72,45,135680,160
67,50,136320,160
69,46,136480,160
71,46,136640,160
69,50,136800,160
71,45,136960,160
72,45,137120,160
72,50,137760,160
74,50,137920,160
75,51,138080,160
77,52,138240,160
79,53,138400,160
80,56,138560,160
79,60,138720,160
77,55,138880,160
75,51,139040,160
74,55,139200,160
72,52,139360,160
70,50,139520,160
68,55,139680,180
63,52,140160,180
60,50,140640,180
59,54,141120,160
57,49,141280,160
55,49,141440,160
54,53,141600,160
52,47,141760,160
50,47,141920,160
60,64,142080,480
59,54,142560,160
57,47,142720,160
55,47,142880,160
54,52,143040,160
52,44,143200,160
50,44,143360,160
60,64,143520,480
59,54,144000,160
57,47,144160,160
55,47,144320,160
54,52,144480,160
52,44,144640,160
50,44,144800,160
60,64,144960,480
59,50,145440,160
57,43,145600,160
55,43,145760,160
57,52,145920,160
55,44,146080,160
54,44,146240,160
55,52,146400,160
54,47,146560,160
53,47,146720,160
52,56,146880,160
50,52,147040,160
48,53,147200,160
50,58,147360,160
48,55,147520,160
47,55,147680,160
48,65,147840,160
47,59,148000,160
46,59,148160,160
45,83,148320,120
57,78,148800,160
53,68,148960,160
48,68,149120,160
45,82,149280,160
41,72,149440,160
36,79,149600,160
33,93,149760,120
52,70,150240,240
47,70,150240,240
55,70,150240,240
59,83,150240,240
59,75,150720,240
54,63,150720,240
51,63,150720,240
47,63,150720,240
67,59,151200,160
66,53,151360,160
64,53,151520,160
63,58,151680,160
61,52,151840,160
59,52,152000,160
69,67,152160,480
67,61,152640,160
66,51,152800,160
64,51,152960,160
63,51,153120,160
61,54,153280,160
59,54,153440,160
69,68,153600,480
67,60,154080,160
66,54,154240,160
64,57,154400,160
63,64,154560,160
64,56,154720,160
66,56,154880,160
64,72,155040,160
66,64,155200,160
67,64,155360,160
57,82,156000,160
53,73,156160,160
48,73,156320,160
45,89,156480,160
41,79,156640,160
36,79,156800,160
33,93,156960,120
52,70,157440,240
47,70,157440,240
59,83,157440,240
55,70,157440,240
59,75,157920,240
54,63,157920,240
51,63,157920,240
47,63,157920,240
43,75,158400,1200
40,75,158400,1200
52,89,158400,1200
47,75,158400,1200
47,65,159840,90
59,77,159840,90
48,56,160080,90
60,67,160080,90
47,63,160320,90
59,75,160320,90
48,57,160560,90
60,68,160560,90
47,63,160800,90
59,75,160800,90
38,74,161280,1200
45,74,161280,1200
50,88,161280,1200
42,74,161280,1200
57,77,162720,90
45,65,162720,90
58,66,162960,90
46,56,162960,90
57,73,163200,90
45,62,163200,90
58,66,163440,90
46,56,163440,90
57,73,163680,90
45,62,163680,90
51,89,164160,960
39,75,164160,960
52,80,165120,240
40,68,165120,240
53,77,165600,240
41,65,165600,240
54,83,166080,240
42,70,166080,240
55,79,166560,240
43,67,166560,240
57,84,167040,240
45,71,167040,240
59,78,167520,240
47,66,167520,240
59,75,168000,240
47,63,168000,240
55,66,168480,1440
59,66,168480,1440
52,66,168480,1440
51,77,169920,90
47,65,169920,90
52,66,170160,90
48,56,170160,90
51,71,170400,90
47,60,170400,90
52,65,170640,90
48,55,170640,90
47,65,170880,90
51,77,170880,90
57,72,171360,1440
54,72,171360,1440
50,72,171360,1440
45,62,172800,90
49,74,172800,90
46,56,173040,90
50,66,173040,90
45,61,173280,90
49,72,173280,90
46,54,173520,90
50,64,173520,90
45,62,173760,90
49,73,173760,90
43,57,174240,960
40,57,174240,960
36,57,174240,960
48,68,174240,960
47,55,175200,240
43,55,175200,240
40,55,175200,240
52,65,175200,240
48,56,175680,240
45,56,175680,240
41,56,175680,240
53,66,175680,240
51,54,176160,240
54,64,176160,240
42,54,176160,240
45,54,176160,240
47,51,176640,240
55,61,176640,240
43,51,176640,240
52,51,176640,240
48,54,177120,240
57,64,177120,240
54,54,177120,240
45,54,177120,240
52,49,177600,240
59,58,177600,240
47,49,177600,240
55,49,177600,240
54,48,178080,240
59,57,178080,240
47,48,178080,240
51,48,178080,240
52,77,178560,240
54,73,178800,120
55,67,178920,120
57,67,179040,120
59,66,179160,120
61,65,179280,120
63,64,179400,120
64,63,179520,120
66,63,179640,120
67,62,179760,120
69,62,179880,120
71,61,180000,120
72,61,180120,120
74,60,180240,120
76,60,180360,120
77,60,180480,240
74,60,181920,240
71,55,183360,240
68,48,184800,240
67,46,186240,240
48,39,187200,240
55,24,187440,240
60,29,187680,240
55,24,187920,240
64,39,188160,240
47,39,188640,240
55,28,188880,240
62,34,189120,240
55,28,189360,240
65,38,189600,240
48,36,190080,240
55,25,190320,240
64,28,190560,240
55,24,190800,240
60,39,191040,240
47,39,191520,240
55,29,191760,240
65,34,192000,240
55,28,192240,240
62,38,192480,240
48,37,192960,240
55,29,193200,240
60,31,193440,240
55,28,193680,240
64,39,193920,240
47,39,194400,240
55,29,194640,240
62,34,194880,240
55,29,195120,240
65,38,195360,240
48,36,195840,240
55,25,196080,240
64,29,196320,240
55,24,196560,240
60,39,196800,240
47,41,197280,240
55,30,197520,240
65,38,197760,240
55,30,198000,240
62,38,198240,240
47,41,198720,240
56,33,198960,240
65,39,199200,240
56,34,199440,240
62,42,199680,240
48,51,200160,240
57,36,200400,240
65,39,200640,240
57,36,200880,240
60,45,201120,240
48,52,201600,240
60,38,201840,240
67,44,202080,240
60,38,202320,240
64,48,202560,240
53,42,203040,240
60,26,203280,240
65,28,203520,240
60,24,203760,240
69,34,204000,240
45,41,204480,240
57,33,204720,240
61,36,204960,240
57,31,205200,240
64,41,205440,240
50,39,205920,240
57,27,206160,240
62,30,206400,240
57,28,206640,240
65,34,206880,240
47,39,207360,240
55,29,207600,240
65,31,207840,240
55,29,208080,240
62,38,208320,240
48,36,208800,240
55,30,209040,240
64,31,209280,240
55,30,209520,240
60,39,209760,240
43,36,210240,240
55,31,210480,240
62,31,210720,240
55,31,210960,240
59,39,211200,240
48,36,211680,240
55,28,211920,240
64,28,212160,240
55,28,212400,240
60,33,212640,240
48,48,213120,240
60,39,213360,240
67,41,213600,240
60,39,213840,240
64,48,214080,240
53,42,214560,240
60,28,214800,240
65,28,215040,240
60,28,215280,240
69,34,215520,240
45,44,216000,240
57,33,216240,240
61,39,216480,240
57,31,216720,240
64,41,216960,240
50,39,217440,240
57,28,217680,240
62,28,217920,240
57,28,218160,240
65,34,218400,240
47,39,218880,240
55,29,219120,240
65,30,219360,240
55,30,219600,240
62,38,219840,240
48,36,220320,240
55,29,220560,240
64,31,220800,240
55,28,221040,240
60,39,221280,240
43,36,221760,240
55,28,222000,240
62,31,222240,240
55,29,222480,240
59,39,222720,240
48,36,223200,240
55,25,223440,240
60,28,223680,240
55,25,223920,240
64,25,224160,240
48,33,224640,240
55,20,224880,240
60,26,225120,240
55,20,225360,240
64,25,225600,240
47,31,226080,240
55,18,226320,240
59,23,226560,240
55,18,226800,240
64,25,227040,240
47,29,227520,240
54,20,227760,240
59,25,228000,240
54,18,228240,240
63,20,228480,240
56,83,228960,160
65,72,229120,160
62,68,229280,160
59,75,229440,160
56,68,229600,160
53,68,229760,160
50,65,229920,160
47,54,230080,160
45,53,230240,160
44,63,230400,120
46,33,231840,240
53,23,232080,240
58,26,232320,240
53,23,232560,240
62,23,232800,240
46,33,233280,240
53,20,233520,240
58,26,233760,240
53,20,234000,240
62,25,234240,240
45,31,234720,240
53,18,234960,240
57,23,235200,240
53,18,235440,240
62,25,235680,240
45,29,236160,240
52,20,236400,240
57,25,236640,240
52,18,236880,240
61,20,237120,240
54,83,237600,160
63,73,237760,160
60,70,237920,160
57,75,238080,160
53,68,238240,160
51,68,238400,160
48,65,238560,160
45,54,238720,160
43,53,238880,160
42,63,239040,120
44,33,240480,240
51,23,240720,240
56,26,240960,240
51,23,241200,240
60,23,241440,240
44,33,241920,240
51,20,242160,240
56,26,242400,240
51,20,242640,240
60,25,242880,240
44,31,243360,240
53,18,243600,240
56,23,243840,240
53,18,244080,240
61,25,244320,240
44,31,244800,240
53,18,245040,240
56,23,245280,240
53,18,245520,240
61,25,245760,240
32,31,246240,240
44,18,246480,240
51,18,246720,240
44,18,246960,240
54,23,247200,240
32,31,247680,240
44,18,247920,240
51,18,248160,240
44,18,248400,240
56,27,248640,240
56,27,249120,2880
61,27,249120,2880
49,27,249120,2880
53,27,249120,2880
56,29,252000,2880
60,29,252000,2880
51,29,252000,1440
49,29,252000,2880
54,28,253440,1440
56,29,254880,2880
61,29,254880,2880
49,29,254880,2880
52,29,254880,2880
56,28,257760,3360
60,28,257760,2880
51,28,257760,1440
49,28,257760,3360
54,28,259200,1440
52,29,260640,480
61,29,260640,480
60,40,262080,160
61,35,262240,160
63,35,262400,160
61,41,262560,160
63,37,262720,160
64,37,262880,160
66,42,263040,160
64,37,263200,160
63,37,263360,160
64,45,263520,960
61,37,264480,480
60,40,264960,160
61,35,265120,160
63,35,265280,160
61,41,265440,160
63,37,265600,160
64,37,265760,160
66,42,265920,160
64,37,266080,160
63,37,266240,160
64,45,266400,1440
63,40,267840,160
64,35,268000,160
66,35,268160,160
64,41,268320,160
66,37,268480,160
67,37,268640,160
69,42,268800,160
67,37,268960,160
66,37,269120,160
65,40,269280,160
66,35,269440,160
68,35,269600,160
66,41,269760,160
68,37,269920,160
69,37,270080,160
71,42,270240,160
69,37,270400,160
68,37,270560,160
66,42,270720,480
64,39,271680,160
70,36,271840,160
64,36,272000,160
63,40,272160,160
71,40,272160,160
64,35,272320,160
66,35,272480,160
64,41,272640,160
66,37,272800,160
67,37,272954,160
75,41,273120,480
69,41,273120,480
68,41,273600,240
62,40,274560,160
68,37,274720,160
62,37,274880,160
61,40,275040,160
69,40,275040,160
62,35,275200,160
64,35,275360,160
62,41,275520,160
64,37,275680,160
66,37,275840,160
67,41,276000,480
73,41,276000,480
66,41,276480,240
65,41,277440,160
69,37,277600,160
65,37,277760,160
64,40,277920,160
66,35,278080,160
68,35,278240,160
66,41,278400,160
68,37,278560,160
69,37,278720,160
65,41,278880,480
71,41,278880,960
74,41,278880,960
64,41,279360,480
65,39,280320,160
69,37,280480,160
65,38,280640,160
64,40,280800,160
66,35,280960,160
68,35,281120,160
66,41,281280,160
68,37,281440,160
69,37,281600,160
71,41,281760,960
74,41,281760,960
65,41,281760,480
64,41,282240,480
65,45,283200,160
69,38,283360,160
65,38,283520,160
64,45,283680,160
66,36,283840,160
68,36,284000,160
66,46,284160,160
68,37,284320,160
69,37,284480,160
68,47,284640,160
69,41,284800,160
71,42,284960,160
64,50,286080,160
66,44,286240,160
68,44,286400,160
66,52,286560,160
68,45,286720,160
69,45,286880,160
64,50,287520,160
66,46,287680,160
68,46,287840,160
66,50,288000,160
68,45,288160,160
69,45,288320,160
69,50,288960,160
71,50,289120,160
72,51,289280,160
74,52,289440,160
76,53,289600,160
77,56,289760,160
76,60,289920,160
74,55,290080,160
72,51,290240,160
71,55,290400,160
69,52,290560,160
67,50,290720,160
65,59,290880,180
60,56,291360,180
57,50,291840,180
56,53,292320,160
54,48,292480,160
52,48,292640,160
51,52,292800,160
49,47,292960,160
47,48,293120,160
57,64,293280,480
56,54,293760,160
54,49,293920,160
52,49,294080,160
51,53,294240,160
49,47,294400,160
47,47,294560,160
57,64,294720,480
56,54,295200,160
54,47,295360,160
52,47,295520,160
51,52,295680,160
49,44,295840,160
47,44,296000,160
57,64,296160,480
56,50,296640,160
54,43,296800,160
52,43,296960,160
54,52,297120,160
52,44,297280,160
51,44,297440,160
52,52,297600,160
51,47,297760,160
50,47,297920,160
52,56,298080,160
50,52,298240,160
48,53,298400,160
50,58,298560,160
48,55,298720,160
47,55,298880,160
48,65,299040,160
47,59,299200,160
45,59,299360,160
62,91,299520,160
58,79,299680,160
53,77,299840,160
50,85,300000,160
46,75,300160,160
41,75,300320,160
38,84,300480,160
34,76,300640,160
29,76,300800,160
26,88,300960,120
60,83,301440,240
52,70,301440,240
57,70,301440,240
52,63,301920,240
59,75,301920,240
56,63,301920,240
60,62,302400,160
59,56,302560,160
57,56,302720,160
56,61,302880,160
54,55,303040,160
52,54,303200,160
62,67,303360,480
60,61,303840,160
59,55,304000,160
57,55,304160,160
56,60,304320,160
54,54,304480,160
52,54,304640,160
62,68,304800,480
60,61,305280,160
59,55,305440,160
57,55,305600,160
56,60,305760,160
54,54,305920,160
52,54,306080,160
62,68,306240,480
60,64,306720,160
59,57,306880,160
57,57,307040,160
56,67,307200,160
57,56,307360,160
59,56,307520,160
57,72,307680,160
59,64,307840,160
60,64,308000,160
62,91,308160,160
58,79,308320,160
53,79,308480,160
50,86,308640,160
46,77,308800,160
41,77,308960,160
38,86,309120,160
34,78,309280,160
29,77,309440,160
26,93,309600,120
57,70,310080,240
52,70,310080,240
60,83,310080,240
56,63,310560,240
52,63,310560,240
59,75,310560,240
62,91,311040,160
58,79,311200,160
53,79,311360,160
50,86,311520,160
46,76,311680,160
41,76,311840,160
38,86,312000,160
34,76,312160,160
29,76,312320,160
26,90,312480,120
58,70,312960,240
53,70,312960,240
62,83,312960,240
60,75,313440,240
57,63,313440,240
53,63,313440,240
31,79,313920,240
43,93,313920,240
60,70,314400,240
55,70,314400,240
63,83,314400,240
55,63,314880,240
59,63,314880,240
62,75,314880,240
45,93,315360,240
33,79,315360,240
62,70,315840,240
57,70,315840,240
65,83,315840,240
57,63,316320,240
61,63,316320,240
64,75,316320,240
55,42,316800,120
58,50,316800,120
58,49,317040,120
55,41,317040,120
55,44,317280,120
58,52,317280,120
52,44,317280,120
52,45,317520,120
58,54,317520,120
55,45,317520,120
49,47,317760,120
55,47,317760,120
52,47,317760,120
58,56,317760,120
49,49,318000,120
55,49,318000,120
52,49,318000,120
58,58,318000,120
46,51,318240,120
52,51,318240,120
49,51,318240,120
55,60,318240,120
46,52,318480,120
52,52,318480,120
49,52,318480,120
55,62,318480,120
46,54,318720,120
49,54,318720,120
52,64,318720,120
43,54,318720,120
43,56,318960,120
49,56,318960,120
46,56,318960,120
52,66,318960,120
40,58,319200,120
46,58,319200,120
43,58,319200,120
49,69,319200,120
40,62,319440,120
46,62,319440,120
43,62,319440,120
49,74,319440,120
45,73,319680,240
41,73,319680,240
50,87,319680,240
41,73,321120,240
38,73,321120,240
50,87,321120,240
45,73,321120,240
52,42,322560,240
60,50,322560,240
59,50,324000,240
52,42,324000,240
45,36,325440,240
52,22,325680,240
57,27,325920,240
52,22,326160,240
61,36,326400,240
44,36,326880,240
52,26,327120,240
59,31,327360,240
52,26,327600,240
62,35,327840,240
45,33,328320,240
52,23,328560,240
61,26,328800,240
52,22,329040,240
57,36,329280,240
44,36,329760,240
52,27,330000,240
56,31,330240,240
52,26,330480,240
59,35,330720,240
45,34,331200,240
52,27,331440,240
57,29,331680,240
52,26,331920,240
61,36,332160,240
44,36,332640,240
52,27,332880,240
59,31,333120,240
52,27,333360,240
62,35,333600,240
45,33,334080,240
52,23,334320,240
61,27,334560,240
52,22,334800,240
57,36,335040,240
44,38,335520,240
52,28,335760,240
56,35,336000,240
52,28,336240,240
59,35,336480,240
44,38,336960,240
53,30,337200,240
56,36,337440,240
53,31,337680,240
59,39,337920,240
45,47,338400,240
54,33,338640,240
57,36,338880,240
54,33,339120,240
62,41,339360,240
45,48,339840,240
57,35,340080,240
64,40,340320,240
57,35,340560,240
64,44,340800,240
50,39,341280,240
57,24,341520,240
62,26,341760,240
57,22,342000,240
66,31,342240,240
42,38,342720,240
54,30,342960,240
61,33,343200,240
54,29,343440,240
58,38,343680,240
47,36,344160,240
54,25,344400,240
59,28,344640,240
54,26,344880,240
62,31,345120,240
44,36,345600,240
52,27,345840,240
62,29,346080,240
52,27,346320,240
59,35,346560,240
45,33,347040,240
52,28,347280,240
61,29,347520,240
52,28,347760,240
57,36,348000,240
40,33,348480,240
52,29,348720,240
59,29,348960,240
52,29,349200,240
56,36,349440,240
45,33,349920,240
52,26,350160,240
61,26,350400,240
52,26,350640,240
57,30,350880,240
45,44,351360,240
57,36,351600,240
64,38,351840,240
57,36,352080,240
64,44,352320,240
50,39,352800,240
57,26,353040,240
62,26,353280,240
57,26,353520,240
66,31,353760,240
42,40,354240,240
54,30,354480,240
61,36,354720,240
54,29,354960,240
58,38,355200,240
47,36,355680,240
54,26,355920,240
59,26,356160,240
54,26,356400,240
62,31,356640,240
44,36,357120,240
52,27,357360,240
62,28,357600,240
52,28,357840,240
59,35,358080,240
45,33,358560,240
52,27,358800,240
61,29,359040,240
52,26,359280,240
57,36,359520,240
40,33,360000,240
52,26,360240,240
59,29,360480,240
52,27,360720,240
56,36,360960,240
45,33,361440,240
52,23,361680,240
57,26,361920,240
52,23,362160,240
61,23,362400,240
45,72,362880,1440
48,72,362880,1440
52,72,362880,1440
57,85,362880,1440
52,62,364320,90
56,74,364320,90
53,55,364560,90
57,65,364560,90
52,60,364800,90
56,71,364800,90
53,55,365040,90
57,65,365040,90
52,62,365280,90
56,74,365280,90
47,72,365760,1440
50,72,365760,1440
55,85,365760,1440
43,72,365760,1440
50,63,367200,90
54,75,367200,90
52,55,367440,90
55,65,367440,90
50,61,367680,90
54,72,367680,90
52,54,367920,90
55,64,367920,90
50,62,368160,90
54,74,368160,90
53,68,368640,960
45,57,368640,960
41,57,368640,960
48,57,368640,960
48,55,369600,240
57,65,369600,240
45,55,369600,240
52,55,369600,240
50,58,370080,240
58,69,370080,240
46,58,370080,240
53,58,370080,240
50,56,370560,240
59,67,370560,240
56,56,370560,240
47,56,370560,240
57,54,371040,240
52,54,371040,240
48,54,371040,240
60,64,371040,240
59,56,371520,240
62,67,371520,240
50,56,371520,240
53,56,371520,240
60,52,372000,240
57,52,372000,240
52,52,372000,240
64,62,372000,240
59,52,372480,240
64,62,372480,240
52,52,372480,240
56,52,372480,240
45,59,372960,240
40,51,373920,160
52,61,373920,160
54,56,374080,160
42,47,374080,160
56,56,374240,160
44,47,374240,160
42,50,374400,160
54,59,374400,160
56,61,374560,160
44,51,374560,160
57,53,374720,160
45,45,374720,160
59,66,374880,480
47,56,374880,480
52,61,375360,160
40,51,375360,160
42,47,375520,160
54,56,375520,160
44,47,375680,160
56,56,375680,160
54,59,375840,160
42,50,375840,160
56,61,376000,160
44,51,376000,160
57,53,376160,160
45,45,376160,160
59,70,376320,480
47,59,376320,480
52,61,376800,160
40,51,376800,160
42,47,376960,160
54,56,376960,160
44,47,377120,160
56,56,377120,160
54,59,377280,160
42,50,377280,160
56,61,377440,160
44,51,377440,160
57,53,377600,160
45,45,377600,160
47,59,377760,480
59,70,377760,480
40,57,378240,160
52,68,378240,160
54,59,378400,160
42,50,378400,160
56,57,378560,160
44,48,378560,160
45,56,378720,160
57,67,378720,160
59,58,378880,160
47,49,378880,160
60,58,379040,160
48,49,379040,160
59,66,379200,160
47,56,379200,160
60,59,379360,160
48,50,379360,160
62,59,379520,160
50,50,379520,160
64,70,379680,240
52,59,379680,240
57,67,380160,160
45,56,380160,160
47,49,380320,160
59,58,380320,160
60,58,380480,160
48,49,380480,160
47,56,380640,160
59,66,380640,160
48,50,380800,160
60,59,380800,160
50,50,380960,160
62,59,380960,160
52,59,381120,240
64,70,381120,240
33,56,381600,160
45,67,381600,160
47,58,381760,160
35,49,381760,160
48,58,381920,160
36,49,381920,160
35,56,382080,160
47,66,382080,160
36,50,382240,160
48,59,382240,160
38,50,382400,160
50,59,382400,160
40,59,382560,240
52,70,382560,240
33,61,383040,240
45,72,383040,240
36,49,384480,240
40,49,384480,240
45,58,384480,240
33,49,384480,240
33,52,384960,240
40,52,384960,240
45,62,384960,240
36,52,384960,240
33,56,385440,240
40,56,385440,240
45,67,385440,240
36,56,385440,240
33,57,385920,240
40,57,385920,240
45,68,385920,240
36,57,385920,240
