note,velocity,position,duration
57,59,360,60
61,70,360,60
55,59,360,60
61,76,480,360
55,64,480,360
57,64,480,360
55,59,840,60
61,70,840,60
57,59,840,60
55,63,960,360
62,75,960,360
57,63,960,360
57,59,1320,60
55,59,1320,60
64,70,1320,60
54,68,1440,931
57,68,1440,931
66,80,1440,931
62,68,1440,931
57,68,2400,815
54,68,2400,815
66,80,2400,815
62,68,2400,815
66,67,3240,120
67,75,3360,360
57,66,3360,466
66,70,3720,120
64,74,3840,120
57,66,3840,466
66,66,3960,120
64,66,4080,120
62,70,4200,120
69,80,4320,931
57,68,4320,931
64,68,4320,931
57,68,5280,815
69,80,5280,815
64,68,5280,815
69,67,6120,120
71,75,6240,120
64,66,6240,466
73,66,6360,120
71,68,6480,120
69,70,6600,120
64,66,6720,480
71,74,6720,360
73,70,7080,120
66,68,7200,931
71,68,7200,931
62,68,7200,931
74,80,7200,931
62,68,8160,710
66,68,8160,710
74,80,8160,710
71,68,8160,710
68,63,8880,120
74,75,8880,120
68,68,9120,120
74,80,9120,120
74,79,9360,120
68,67,9360,120
76,79,9360,120
68,70,9600,120
74,70,9600,120
78,83,9600,120
68,73,9840,120
74,73,9840,120
80,86,9840,120
69,76,10080,931
73,76,10080,931
81,90,10080,931
57,73,11040,960
61,73,11040,960
69,87,11040,960
81,61,12000,480
82,58,12480,480
83,62,12960,160
82,57,13120,160
83,57,13280,160
88,63,13440,160
87,61,13600,160
88,65,13760,160
91,70,13920,840
90,61,14760,120
88,69,14880,360
86,62,15240,120
85,70,15360,360
83,62,15720,120
81,69,15840,160
80,60,16000,160
81,55,16160,160
86,68,16320,160
85,65,16480,160
86,69,16640,160
90,72,16800,840
88,61,17640,120
86,69,17760,360
85,62,18120,120
83,70,18240,360
81,62,18600,120
79,67,18720,160
78,58,18880,160
79,58,19040,160
85,63,19200,160
84,61,19360,160
85,65,19520,160
88,70,19680,840
86,59,20520,120
85,68,20640,360
86,57,21000,120
85,67,21120,360
83,58,21480,120
78,53,21600,931
82,63,21600,931
78,47,22560,830
82,56,22560,815
82,46,23400,120
78,46,23520,466
83,52,23520,360
82,49,23880,120
78,46,24000,466
83,51,24000,360
82,49,24360,120
77,47,24480,931
80,56,24480,931
80,56,25440,815
77,47,25440,830
80,46,26280,120
82,52,26400,360
77,46,26400,465
80,49,26760,120
82,51,26880,360
77,46,26880,465
80,49,27240,120
78,56,27360,931
78,56,28320,830
49,59,29160,60
55,59,29160,60
57,70,29160,60
55,64,29280,360
49,64,29280,360
57,76,29280,360
55,59,29640,60
49,59,29640,60
57,70,29640,60
59,75,29760,360
49,63,29760,360
55,63,29760,360
49,59,30120,60
55,59,30120,60
61,70,30120,60
50,68,30240,931
54,68,30240,931
62,80,30240,931
50,68,31200,931
59,68,31200,931
54,68,31200,931
62,80,31200,815
62,67,32040,120
54,66,32160,466
62,75,32160,360
64,70,32520,120
54,66,32640,466
66,74,32640,360
62,70,33000,120
67,68,33120,960
69,80,33120,931
57,68,33120,931
64,68,33120,931
67,68,34080,815
69,80,34080,815
57,68,34080,815
64,68,34080,815
69,67,34920,114
64,53,34920,114
67,53,34920,114
69,75,35040,333
64,60,35040,342
67,60,35040,342
64,56,35400,114
67,56,35400,114
69,70,35400,114
64,59,35520,342
67,59,35520,342
71,74,35520,342
64,56,35880,120
67,56,35880,120
73,70,35880,120
62,68,36000,931
66,68,36000,931
69,68,36000,931
74,80,36000,931
62,68,36960,710
67,68,36960,710
74,80,36960,710
68,63,37680,120
74,75,37680,120
68,68,37920,120
74,80,37920,120
68,67,38160,120
74,79,38160,120
76,79,38160,120
68,70,38400,120
74,70,38400,120
78,83,38400,120
68,73,38640,120
74,73,38640,120
80,86,38640,120
69,76,38880,931
73,76,38880,931
81,90,38880,931
57,73,39840,960
61,73,39840,960
69,87,39840,960
76,61,40800,480
77,58,41280,480
78,62,41760,160
77,57,41920,160
78,57,42080,160
83,63,42240,160
82,61,42400,160
83,65,42560,160
86,70,42720,840
85,61,43560,120
83,69,43680,120
85,63,43800,120
83,63,43920,120
81,62,44040,120
80,70,44160,120
81,65,44280,120
80,66,44400,120
78,62,44520,120
76,69,44640,160
75,60,44800,160
76,55,44960,160
81,68,45120,160
80,65,45280,160
81,69,45440,160
85,72,45600,840
83,61,46440,120
81,69,46560,120
83,63,46680,120
81,63,46800,120
80,62,46920,120
78,70,47040,120
80,65,47160,120
78,65,47280,120
76,62,47400,120
74,67,47520,160
73,58,47680,160
74,58,47840,160
80,63,48000,160
79,61,48160,160
80,65,48320,160
83,70,48480,840
81,59,49320,120
80,68,49440,360
81,57,49800,120
80,67,49920,360
78,58,50280,120
77,63,50400,931
73,53,50400,931
73,47,51360,950
77,56,51360,815
77,46,52200,120
73,46,52320,466
78,52,52320,360
77,49,52680,120
78,51,52800,360
73,46,52800,466
77,49,53160,120
80,61,53280,931
74,51,53280,931
76,51,53280,931
74,51,54240,830
80,61,54240,830
76,51,54240,830
76,50,55080,120
78,57,55200,360
74,50,55200,465
76,53,55560,120
74,50,55680,465
78,56,55680,360
80,53,56040,120
69,51,56160,931
81,61,56160,931
73,51,56160,931
73,51,57120,830
69,51,57120,830
81,61,57120,830
57,70,57960,60
57,76,58080,120
57,70,58440,60
55,75,58560,120
57,70,58920,60
55,68,59040,931
61,80,59040,931
58,68,59040,960
52,68,59040,931
52,68,60000,815
55,68,60000,815
61,80,60000,815
58,68,60000,815
69,70,60840,60
69,76,60960,120
69,70,61320,60
67,75,61440,120
69,70,61800,60
70,68,61920,960
62,68,61920,931
74,80,61920,931
65,68,61920,931
70,68,62880,815
62,68,62880,815
74,80,62880,815
65,68,62880,815
74,59,63720,60
77,70,63720,60
77,76,63840,120
74,64,63840,120
74,59,64200,60
77,70,64200,60
73,63,64320,120
76,75,64320,120
77,70,64680,60
74,59,64680,60
70,64,64800,120
74,76,64800,120
74,70,65160,60
70,59,65160,60
69,63,65280,120
73,75,65280,120
74,70,65640,60
70,59,65640,60
70,76,65760,120
67,64,65760,120
67,59,66120,60
70,70,66120,60
69,75,66240,120
66,63,66240,120
67,59,66600,60
70,70,66600,60
63,68,66720,960
67,80,66720,931
75,74,67680,950
67,74,67680,950
79,88,67680,950
71,74,67680,950
75,74,68640,950
67,74,68640,950
79,88,68640,950
72,74,68640,950
65,74,69600,120
77,88,69600,120
74,74,69600,120
69,74,70080,120
72,74,70080,120
81,88,70080,120
75,74,70080,120
74,85,70560,950
70,85,70560,950
82,101,70560,950
58,74,71520,815
62,74,71520,815
70,88,71520,815
74,47,72360,60
77,56,72360,60
74,51,72480,120
77,60,72480,120
74,47,72840,60
77,56,72840,60
73,50,72960,120
76,60,72960,120
74,47,73320,60
77,56,73320,60
70,51,73440,960
74,60,73440,960
70,51,74400,815
74,60,74400,815
70,47,75240,60
74,56,75240,60
70,51,75360,120
74,60,75360,120
70,47,75720,60
74,56,75720,60
69,50,75840,120
73,60,75840,120
70,47,76200,60
74,56,76200,60
74,51,76320,960
77,60,76320,960
72,51,77280,815
75,60,77280,815
77,47,78120,60
72,47,78120,60
75,56,78120,60
77,51,78240,120
72,51,78240,120
75,60,78240,120
77,47,78600,60
72,47,78600,60
75,56,78600,60
77,50,78720,120
71,50,78720,120
74,60,78720,120
77,56,79080,60
72,47,79080,60
75,56,79080,60
69,51,79200,951
72,51,79200,951
77,60,79200,951
69,51,80160,815
72,51,80160,815
77,60,80160,815
77,47,81000,60
69,47,81000,60
72,56,81000,60
77,51,81120,120
69,51,81120,120
72,60,81120,120
69,47,81480,60
72,56,81480,60
77,47,81480,60
68,50,81600,120
71,60,81600,120
77,50,81600,120
69,47,81960,60
72,56,81960,60
77,56,81960,60
73,45,82080,950
77,54,82080,951
69,45,82080,951
70,45,83040,815
77,54,83040,815
74,45,83040,815
70,47,83880,60
77,56,83880,60
74,47,83880,60
70,51,84000,120
74,51,84000,120
77,60,84000,120
70,48,84360,60
74,48,84360,60
77,57,84360,60
74,52,84480,120
76,63,84480,120
70,52,84480,120
74,50,84840,60
77,60,84840,60
70,50,84840,60
70,56,84960,951
79,66,84960,951
74,56,84960,951
74,56,85920,815
70,56,85920,815
79,66,85920,815
74,51,86760,60
70,51,86760,60
79,61,86760,60
70,56,86880,120
79,66,86880,120
74,56,86880,120
70,50,87240,60
82,60,87240,60
74,50,87240,60
70,54,87360,120
81,64,87360,120
74,54,87360,120
74,49,87720,60
79,59,87720,60
70,49,87720,60
70,51,87840,951
77,60,87840,951
74,51,87840,951
70,60,88800,815
74,51,88800,815
77,60,88800,815
77,47,89640,60
70,47,89640,60
74,56,89640,60
77,51,89760,120
70,51,89760,120
74,60,89760,120
70,47,90120,60
74,56,90120,60
77,47,90120,60
70,50,90240,120
75,60,90240,120
79,50,90240,120
74,56,90600,60
77,56,90600,60
70,47,90600,60
69,51,90720,960
77,60,90720,960
72,51,90720,960
69,48,91680,815
75,57,91680,815
72,48,91680,815
65,44,92520,60
75,44,92520,60
72,53,92520,60
75,48,92640,120
65,48,92640,120
72,57,92640,120
72,53,93000,60
65,44,93000,60
75,44,93000,60
74,47,93120,120
71,57,93120,120
65,47,93120,120
72,53,93480,60
69,53,93480,60
65,44,93480,60
65,40,93600,960
62,40,93600,960
70,48,93600,960
62,40,94560,815
65,40,94560,815
70,48,94560,815
65,39,95400,60
72,47,95400,60
75,39,95400,60
65,43,95520,120
72,51,95520,120
75,43,95520,120
72,47,95880,60
75,39,95880,60
65,39,95880,60
74,42,96000,120
70,51,96000,120
65,42,96000,120
72,47,96360,60
69,47,96360,60
65,39,96360,60
65,38,96480,960
70,45,96480,960
62,38,96480,960
70,45,97440,815
65,38,97440,815
62,38,97440,815
75,35,98280,60
65,35,98280,60
72,42,98280,60
75,38,98400,120
65,38,98400,120
72,45,98400,120
75,34,98760,60
65,34,98760,60
72,41,98760,60
74,36,98880,120
65,36,98880,120
70,44,98880,120
72,39,99240,60
65,33,99240,60
69,39,99240,60
62,31,99360,350
65,31,99360,350
70,37,99360,350
46,70,99720,60
46,76,99840,120
46,70,100200,60
46,75,100320,120
48,70,100680,60
50,75,100800,350
50,59,101160,60
62,70,101160,60
50,64,101280,120
62,76,101280,120
50,59,101640,60
62,70,101640,60
50,63,101760,120
62,75,101760,120
52,59,102120,60
64,70,102120,60
53,69,102240,360
65,82,102240,350
53,77,102600,60
53,83,102720,120
53,77,103080,60
53,82,103200,120
55,77,103560,60
57,90,103680,350
57,60,104040,60
69,71,104040,60
57,65,104160,120
69,78,104160,120
59,61,104520,60
71,73,104520,60
61,66,104640,120
73,79,104640,120
62,64,105000,60
74,76,105000,60
73,70,105120,960
64,70,105120,931
69,70,105120,931
76,83,105120,931
76,83,106080,815
73,70,106080,815
64,70,106080,815
69,70,106080,815
74,58,106920,114
68,58,106920,114
76,73,106920,114
76,82,107040,333
68,66,107040,342
74,66,107040,342
76,80,107400,114
68,63,107400,114
74,63,107400,114
78,85,107520,342
68,67,107520,342
74,67,107520,342
68,65,107880,120
74,65,107880,120
80,83,107880,120
69,78,108000,931
73,78,108000,931
81,93,108000,931
73,78,108960,820
69,78,108960,820
81,93,108960,820
57,47,109800,60
55,47,109800,60
61,56,109800,60
62,60,109920,120
55,51,109920,120
57,51,109920,120
55,47,110280,60
57,47,110280,60
61,56,110280,60
55,50,110400,120
57,50,110400,120
62,60,110400,120
57,47,110760,60
55,47,110760,60
64,56,110760,60
57,64,110880,931
54,54,110880,931
57,54,111840,815
66,64,111840,815
66,53,112680,120
57,53,112680,120
55,60,112800,120
67,60,112800,120
55,56,113160,120
66,56,113160,120
64,59,113280,120
56,59,113280,120
56,56,113640,120
62,56,113640,120
61,54,113760,931
57,54,113760,931
69,64,113760,931
61,54,114720,815
64,64,114720,815
69,53,115560,60
64,53,115560,120
73,53,115620,60
64,60,115680,120
71,60,115680,120
64,56,116040,120
69,56,116040,120
64,59,116160,120
71,59,116160,120
64,56,116520,120
73,56,116520,120
62,54,116640,931
66,54,116640,931
74,64,116640,931
66,64,117600,815
62,54,117600,815
62,53,118440,120
66,53,118440,60
69,53,118500,60
62,60,118560,120
68,60,118560,120
62,56,118920,120
66,56,118920,120
62,59,119040,120
68,59,119040,120
62,56,119400,120
64,56,119400,120
61,54,119520,931
71,64,119520,931
69,64,120480,950
61,54,120480,950
62,56,121440,466
66,56,121440,466
69,67,121440,466
62,53,121920,466
66,53,121920,466
70,63,121920,466
62,51,122400,960
67,51,122400,960
71,60,122400,960
67,56,123360,466
71,56,123360,466
76,67,123360,466
71,62,123840,240
76,62,123840,240
79,74,123840,240
67,53,124320,240
71,53,124320,240
76,63,124320,250
61,49,124800,240
64,49,124800,240
67,58,124800,240
61,55,125280,960
66,55,125280,960
69,65,125280,960
66,59,126240,466
69,59,126240,466
74,70,126240,466
69,59,126720,240
74,59,126720,240
78,71,126720,240
66,51,127200,240
69,51,127200,240
74,60,127200,240
59,47,127680,240
62,47,127680,240
66,56,127680,240
64,56,128160,960
67,67,128160,960
59,56,128160,960
67,57,129120,466
73,68,129120,466
64,57,129120,466
76,70,129600,240
67,59,129600,240
73,70,129600,240
64,55,130080,240
73,65,130080,240
67,55,130080,240
61,50,130560,240
71,59,130560,240
68,59,130560,240
61,55,131040,931
66,55,131040,960
70,65,131040,931
66,51,132000,815
61,51,132000,815
70,60,132000,815
73,71,132840,60
66,60,132840,60
75,78,132960,120
66,65,132960,120
73,73,133320,60
66,61,133320,60
66,66,133440,120
75,79,133440,120
73,76,133800,60
66,64,133800,60
71,70,133920,960
77,83,133920,931
65,70,133920,931
77,83,134880,815
65,70,134880,815
71,70,134880,815
73,58,135720,114
65,58,135720,114
77,73,135720,114
65,66,135840,342
73,66,135840,342
77,82,135840,332
73,63,136200,114
77,80,136200,114
65,63,136200,114
73,67,136320,342
77,85,136320,342
65,67,136320,342
77,83,136680,120
65,65,136680,120
73,65,136680,120
70,78,136800,931
78,93,136800,931
66,78,136800,931
70,78,137760,820
78,93,137760,820
66,78,137760,820
73,56,138600,60
67,47,138600,60
69,47,138600,60
73,60,138720,349
69,51,138720,349
67,51,138720,349
67,47,139080,60
69,47,139080,60
73,56,139080,60
67,50,139186,349
74,60,139186,349
69,50,139186,349
69,47,139560,60
67,47,139560,60
76,56,139560,60
69,64,139680,931
66,54,139680,931
78,64,140640,815
66,54,140640,815
69,54,140640,815
66,53,141480,117
78,53,141480,116
78,60,141600,120
66,60,141600,120
78,56,141946,116
66,56,141946,116
76,59,142080,120
68,59,142080,120
68,56,142440,120
74,56,142440,120
69,54,142560,931
73,64,142560,931
76,64,143520,815
69,54,143520,815
76,53,144360,117
70,53,144360,117
70,60,144480,120
76,60,144480,120
70,56,144826,116
76,56,144826,116
74,59,144960,120
70,59,144960,120
70,56,145320,120
73,56,145320,120
71,64,145440,931
74,64,146400,815
67,54,146400,815
67,53,147240,120
71,53,147240,120
61,53,147240,120
71,60,147360,120
61,60,147360,120
67,60,147360,120
71,56,147720,120
61,56,147720,120
67,56,147720,120
61,59,147840,120
66,59,147840,120
69,59,147840,120
61,56,148200,120
67,56,148200,120
64,56,148200,120
57,54,148320,931
67,64,148320,931
64,54,148320,960
57,54,149280,950
62,54,149280,950
66,64,149280,950
62,56,150240,456
69,67,150240,456
66,56,150240,456
62,53,150720,480
66,53,150720,480
70,63,150720,480
62,51,151200,960
67,51,151200,960
71,60,151200,960
71,56,152160,466
76,67,152160,466
67,56,152160,466
76,58,152640,240
79,70,152640,240
71,58,152640,240
71,53,153120,240
76,63,153120,250
67,53,153120,240
64,49,153600,240
67,58,153600,240
64,55,154080,960
69,55,154080,960
73,65,154080,960
73,59,155040,466
78,70,155040,466
69,59,155040,466
73,59,155520,240
81,71,155520,240
78,59,155520,240
69,51,156000,240
78,60,156000,240
73,51,156000,240
66,47,156480,240
69,56,156480,240
71,56,156960,960
74,67,156960,960
66,56,156960,960
74,63,157920,466
79,74,157920,466
71,63,157920,466
74,63,158400,240
83,74,158400,240
79,74,158400,240
71,60,158880,240
79,71,158880,240
74,60,158880,240
67,68,159360,240
71,75,159360,240
79,66,159840,960
73,66,159840,931
69,66,159840,931
81,78,159840,931
73,61,160800,815
81,72,160800,815
69,61,160800,815
79,61,160800,815
79,58,161640,114
73,58,161640,114
81,73,161640,114
79,66,161760,342
73,66,161760,342
81,82,161760,333
79,63,162120,114
81,80,162120,114
73,63,162120,114
83,85,162240,342
73,67,162240,342
79,67,162240,342
85,83,162600,120
73,65,162600,120
79,65,162600,120
74,78,162720,931
78,78,162720,931
86,93,162720,931
74,78,163680,820
86,93,163680,820
78,78,163680,820
69,56,164520,60
66,47,164520,60
66,51,164640,349
69,60,164640,349
66,47,165000,60
69,56,165000,60
67,60,165120,349
64,50,165120,349
66,56,165480,60
62,47,165480,60
57,54,165600,931
64,64,165600,931
57,54,166560,815
64,64,166560,815
71,50,167400,60
67,41,167400,60
66,44,167520,349
69,53,167520,349
67,47,167880,60
64,39,167880,60
62,41,168000,349
66,50,168000,349
64,44,168360,60
57,36,168360,60
54,39,168480,931
62,46,168480,931
54,37,169440,815
62,44,169440,815
57,70,170280,60
57,76,170400,120
57,70,170760,60
55,75,170880,120
57,70,171240,60
58,68,171360,960
55,68,171360,931
61,80,171360,931
52,68,171360,931
55,68,172320,815
61,80,172320,815
58,68,172320,815
52,68,172320,815
69,70,173160,60
69,76,173280,120
69,70,173640,60
67,75,173760,120
69,70,174120,60
62,68,174240,931
70,68,174240,960
74,80,174240,931
65,68,174240,931
70,68,175200,815
74,80,175200,815
62,68,175200,815
65,68,175200,815
74,59,176040,60
77,70,176040,60
74,64,176160,120
77,76,176160,120
77,70,176520,60
74,59,176520,60
73,63,176640,120
76,75,176640,120
74,59,177000,60
77,70,177000,60
70,64,177120,120
74,76,177120,120
74,70,177480,60
70,59,177480,60
73,75,177600,120
69,63,177600,120
74,70,177960,60
70,59,177960,60
70,76,178080,120
67,64,178080,120
67,59,178440,60
70,70,178440,60
69,75,178560,120
66,63,178560,120
70,70,178920,60
67,59,178920,60
67,80,179040,931
63,68,179040,960
67,74,180000,950
75,74,180000,950
79,88,180000,950
71,74,180000,950
75,74,180960,950
79,88,180960,950
67,74,180960,950
72,74,180960,950
74,74,181920,120
77,88,181920,120
65,74,181920,120
72,74,182400,120
69,74,182400,120
75,74,182400,120
81,88,182400,120
74,85,182880,950
70,85,182880,950
82,101,182880,950
58,74,183840,815
62,74,183840,815
70,88,183840,815
74,47,184680,60
77,56,184680,60
74,51,184800,120
77,60,184800,120
74,47,185160,60
77,56,185160,60
73,50,185280,120
76,60,185280,120
74,47,185640,60
77,56,185640,60
70,51,185760,960
74,60,185760,960
70,51,186720,815
74,60,186720,815
70,47,187560,60
74,56,187560,60
70,51,187680,120
74,60,187680,120
70,47,188040,60
74,56,188040,60
69,50,188160,120
73,60,188160,120
70,47,188520,60
74,56,188520,60
74,51,188640,960
77,60,188640,960
72,51,189600,815
75,60,189600,815
77,47,190440,60
72,47,190440,60
75,56,190440,60
77,51,190560,120
72,51,190560,120
75,60,190560,120
77,47,190920,60
72,47,190920,60
75,56,190920,60
77,50,191040,120
71,50,191040,120
74,60,191040,120
77,56,191400,60
72,47,191400,60
75,56,191400,60
69,51,191520,951
72,51,191520,951
77,60,191520,951
69,51,192480,815
72,51,192480,815
77,60,192480,815
77,47,193320,60
69,47,193320,60
72,56,193320,60
69,51,193440,120
77,51,193440,120
72,60,193440,120
72,56,193800,60
77,47,193800,60
69,47,193800,60
71,60,193920,120
77,50,193920,120
68,50,193920,120
72,56,194280,60
77,56,194280,60
69,47,194280,60
69,45,194400,951
73,45,194400,950
77,54,194400,951
70,45,195360,815
74,45,195360,815
77,54,195360,815
74,47,196200,60
70,47,196200,60
77,56,196200,60
74,51,196320,120
70,51,196320,120
77,60,196320,120
77,57,196680,60
70,48,196680,60
74,48,196680,60
70,52,196800,120
74,52,196800,120
76,63,196800,120
70,50,197160,60
74,50,197160,60
77,60,197160,60
70,56,197280,951
74,56,197280,951
79,66,197280,951
70,56,198240,815
74,56,198240,815
79,66,198240,815
79,61,199080,60
74,51,199080,60
70,51,199080,60
79,66,199200,120
74,56,199200,120
70,56,199200,120
82,60,199560,60
74,50,199560,60
70,50,199560,60
74,54,199680,120
70,54,199680,120
81,64,199680,120
74,49,200040,60
70,49,200040,60
79,59,200040,60
77,60,200160,951
70,51,200160,951
74,51,200160,951
74,51,201120,815
70,60,201120,815
77,60,201120,815
77,47,201960,60
70,47,201960,60
74,56,201960,60
77,51,202080,120
70,51,202080,120
74,60,202080,120
77,47,202440,60
70,47,202440,60
74,56,202440,60
79,50,202560,120
70,50,202560,120
75,60,202560,120
77,56,202920,60
70,47,202920,60
74,56,202920,60
69,51,203040,960
72,51,203040,960
77,60,203040,960
69,48,204000,815
72,48,204000,815
75,57,204000,815
75,44,204840,60
65,44,204840,60
72,53,204840,60
75,48,204960,120
65,48,204960,120
72,57,204960,120
75,44,205320,60
65,44,205320,60
72,53,205320,60
74,47,205440,120
65,47,205440,120
71,57,205440,120
72,53,205800,60
65,44,205800,60
69,53,205800,60
62,40,205920,960
65,40,205920,960
70,48,205920,960
62,40,206880,815
65,40,206880,815
70,48,206880,815
75,39,207720,60
65,39,207720,60
72,47,207720,60
75,43,207840,120
65,43,207840,120
72,51,207840,120
75,39,208200,60
65,39,208200,60
72,47,208200,60
74,42,208320,120
65,42,208320,120
70,51,208320,120
72,47,208680,60
65,39,208680,60
69,47,208680,60
62,38,208800,960
70,45,208800,960
65,38,208800,960
62,38,209760,815
70,45,209760,815
65,38,209760,815
65,35,210600,60
75,35,210600,60
72,42,210600,60
75,38,210720,120
65,38,210720,120
72,45,210720,120
65,34,211080,60
72,41,211080,60
75,34,211080,60
65,36,211200,120
70,44,211200,120
74,36,211200,120
69,39,211560,60
72,39,211560,60
65,33,211560,60
62,31,211680,350
70,37,211680,350
65,31,211680,350
46,70,212040,60
46,76,212160,120
46,70,212520,60
46,75,212640,120
48,70,213000,60
50,75,213120,350
62,70,213480,60
50,59,213480,60
50,64,213600,120
62,76,213600,120
62,70,213960,60
50,59,213960,60
50,63,214080,120
62,75,214080,120
52,59,214440,60
64,70,214440,60
65,82,214560,350
53,69,214560,360
53,77,214920,60
53,83,215040,120
53,77,215400,60
53,82,215520,120
55,77,215880,60
57,90,216000,350
69,71,216360,60
57,60,216360,60
57,65,216480,120
69,78,216480,120
59,61,216840,60
71,73,216840,60
73,79,216960,120
61,66,216960,120
62,64,217320,60
74,76,217320,60
69,70,217440,931
76,83,217440,931
73,70,217440,960
64,70,217440,931
73,70,218400,815
64,70,218400,815
69,70,218400,815
76,83,218400,815
74,58,219240,114
76,73,219240,114
68,58,219240,114
74,66,219360,342
76,82,219360,333
68,66,219360,342
74,63,219720,114
76,80,219720,114
68,63,219720,114
68,67,219840,342
78,85,219840,342
74,67,219840,342
68,65,220200,120
80,83,220200,120
74,65,220200,120
69,78,220320,931
73,78,220320,931
81,93,220320,931
69,78,221280,820
73,78,221280,820
81,93,221280,820
57,47,222120,60
61,56,222120,60
55,47,222120,60
57,51,222240,120
62,60,222240,120
55,51,222240,120
57,47,222600,60
61,56,222600,60
55,47,222600,60
55,50,222720,120
57,50,222720,120
62,60,222720,120
55,47,223080,60
57,47,223080,60
64,56,223080,60
57,64,223200,931
54,54,223200,931
57,54,224160,815
66,64,224160,815
57,53,225000,120
66,53,225000,120
67,60,225120,120
55,60,225120,120
55,56,225480,120
66,56,225480,120
64,59,225600,120
56,59,225600,120
56,56,225960,120
62,56,225960,120
61,54,226080,931
69,64,226080,931
57,54,226080,931
61,54,227040,815
64,64,227040,815
64,53,227880,120
69,53,227880,60
73,53,227940,60
64,60,228000,120
71,60,228000,120
64,56,228360,120
69,56,228360,120
64,59,228480,120
71,59,228480,120
64,56,228840,120
73,56,228840,120
62,54,228960,931
66,54,228960,931
74,64,228960,931
66,64,229920,815
62,54,229920,815
62,53,230760,120
66,53,230760,60
69,53,230820,60
62,60,230880,120
68,60,230880,120
62,56,231240,120
66,56,231240,120
62,59,231360,120
68,59,231360,120
62,56,231720,120
64,56,231720,120
61,54,231840,931
71,64,231840,931
69,64,232800,950
61,54,232800,950
62,56,233760,456
66,56,233760,456
69,67,233760,456
62,53,234240,466
66,53,234240,466
70,63,234240,466
62,51,234720,960
67,51,234720,960
71,60,234720,960
67,56,235680,466
71,56,235680,466
76,67,235680,466
71,57,236160,240
76,57,236160,240
79,68,236160,240
67,53,236640,240
71,53,236640,240
76,63,236640,250
61,49,237120,240
64,49,237120,240
67,58,237120,240
61,55,237600,960
66,55,237600,960
69,65,237600,960
66,59,238560,466
69,59,238560,466
74,70,238560,466
69,58,239040,240
74,58,239040,240
78,69,239040,240
69,51,239520,240
74,60,239520,240
66,51,239520,240
62,47,240000,240
66,56,240000,240
59,47,240000,240
64,56,240480,960
67,67,240480,960
59,56,240480,960
67,60,241440,466
73,71,241440,466
64,60,241440,466
67,60,241920,240
76,71,241920,240
73,71,241920,240
64,55,242400,240
73,65,242400,240
67,55,242400,240
61,50,242880,240
68,59,242880,240
71,59,242880,240
66,55,243360,960
61,55,243360,931
70,65,243360,931
61,51,244320,815
70,60,244320,815
66,51,244320,815
73,71,245160,60
66,60,245160,60
66,65,245280,120
75,78,245280,120
73,73,245640,60
66,61,245640,60
66,66,245760,120
75,79,245760,120
73,76,246120,60
66,64,246120,60
71,70,246240,960
77,83,246240,931
65,70,246240,931
77,83,247200,815
71,70,247200,815
65,70,247200,815
65,58,248040,114
73,58,248040,114
77,73,248040,114
73,66,248160,342
77,82,248160,332
65,66,248160,342
73,63,248520,114
77,80,248520,114
65,63,248520,114
73,67,248640,342
77,85,248640,342
65,67,248640,342
65,65,249000,120
77,83,249000,120
73,65,249000,120
66,78,249120,931
78,93,249120,931
70,78,249120,931
66,78,250080,820
78,93,250080,820
70,78,250080,820
69,47,250920,60
67,47,250920,60
73,56,250920,60
67,51,251040,349
69,51,251040,349
73,60,251040,349
69,47,251400,60
73,56,251400,60
67,47,251400,60
69,50,251506,349
74,60,251506,349
67,50,251506,349
76,56,251880,60
67,47,251880,60
69,47,251880,60
66,54,252000,931
69,64,252000,931
66,54,252960,815
69,54,252960,815
78,64,252960,815
78,53,253800,116
66,53,253800,117
78,60,253920,120
66,60,253920,120
78,56,254266,116
66,56,254266,116
68,59,254400,120
76,59,254400,120
74,56,254760,120
68,56,254760,120
69,54,254880,931
73,64,254880,931
76,64,255840,815
69,54,255840,815
76,53,256680,117
70,53,256680,117
76,60,256800,120
70,60,256800,120
76,56,257146,116
70,56,257146,116
70,59,257280,120
74,59,257280,120
73,56,257640,120
70,56,257640,120
71,64,257760,931
67,54,258720,815
74,64,258720,815
61,53,259560,120
71,53,259560,120
67,53,259560,120
67,60,259680,120
71,60,259680,120
61,60,259680,120
71,56,260040,120
67,56,260040,120
61,56,260040,120
61,59,260160,120
66,59,260160,120
69,59,260160,120
61,56,260520,120
64,56,260520,120
67,56,260520,120
64,54,260640,960
57,54,260640,931
67,64,260640,931
57,54,261600,950
66,64,261600,950
62,54,261600,950
62,56,262560,456
66,56,262560,456
69,67,262560,456
62,53,263040,466
66,53,263040,466
70,63,263040,466
62,51,263520,960
67,51,263520,960
71,60,263520,960
67,56,264480,480
71,56,264480,480
76,67,264480,480
71,57,264960,240
76,57,264960,240
79,68,264960,240
67,53,265440,240
71,53,265440,240
76,63,265440,250
64,49,265920,240
67,58,265920,240
64,55,266400,960
69,55,266400,960
73,65,266400,960
69,59,267360,480
73,59,267360,480
78,70,267360,480
73,58,267840,240
78,58,267840,240
81,69,267840,240
69,51,268320,240
73,51,268320,240
78,60,268320,240
66,47,268800,240
69,56,268800,240
66,56,269280,960
71,56,269280,960
74,67,269280,960
71,60,270240,480
74,60,270240,480
79,71,270240,480
74,60,270720,240
79,71,270720,240
83,71,270720,240
71,60,271200,240
74,60,271200,240
79,71,271200,240
67,68,271680,240
71,75,271680,240
79,66,272160,960
69,66,272160,931
73,66,272160,931
81,78,272160,931
79,61,273120,815
69,61,273120,815
73,61,273120,815
81,72,273120,815
73,58,273960,114
79,58,273960,114
81,73,273960,114
79,66,274080,342
73,66,274080,342
81,82,274080,333
79,63,274440,114
73,63,274440,114
81,80,274440,114
83,85,274560,342
73,67,274560,342
79,67,274560,342
85,83,274920,120
73,65,274920,120
79,65,274920,120
86,93,275040,931
74,78,275040,931
78,78,275040,931
78,78,276000,820
74,78,276000,820
86,93,276000,820
69,56,276840,60
66,47,276840,60
66,51,276960,349
69,60,276960,349
69,56,277320,60
66,47,277320,60
67,60,277440,349
64,50,277440,349
62,47,277800,60
66,56,277800,60
64,64,277920,931
57,54,277920,931
57,54,278880,815
64,64,278880,815
71,50,279720,60
67,41,279720,60
66,44,279840,349
69,53,279840,349
67,47,280200,60
64,39,280200,60
66,50,280320,349
62,41,280320,349
57,36,280680,60
64,44,280680,60
62,46,280800,931
54,39,280800,931
62,44,281760,950
54,37,281760,950
62,44,282720,456
62,41,283200,456
59,37,283680,951
62,37,283680,951
71,44,283680,951
59,37,284640,456
62,37,284640,456
71,44,284640,456
59,37,285120,456
62,37,285120,456
71,44,285120,456
59,35,285600,456
62,35,285600,456
71,42,285600,456
59,35,286080,456
62,35,286080,456
71,42,286080,456
59,37,286560,456
62,37,286560,456
71,44,286560,456
64,40,287040,466
67,40,287040,466
76,48,287040,466
62,37,287520,456
67,37,287520,456
74,44,287520,456
62,37,288000,456
67,37,288000,456
74,44,288000,456
62,34,288480,456
67,34,288480,456
74,40,288480,456
62,34,288960,456
67,34,288960,456
74,40,288960,456
62,37,289440,480
67,37,289440,480
74,44,289440,480
57,33,289920,466
62,33,289920,466
69,39,289920,466
60,33,290400,465
62,33,290400,466
72,39,290400,465
60,37,290880,465
62,37,290880,466
72,44,290880,465
59,35,291360,466
62,35,291360,466
71,42,291360,466
57,35,291840,466
62,35,291840,466
69,42,291840,466
57,37,292320,466
62,37,292320,466
69,44,292320,466
59,33,292800,466
62,33,292800,466
71,39,292800,466
59,33,293280,466
62,33,293280,466
71,39,293280,466
59,37,293760,466
62,37,293760,466
71,44,293760,466
62,43,294240,466
69,51,294240,466
57,43,294240,466
62,50,294720,466
67,60,294720,466
55,50,294720,466
62,55,295200,950
69,66,295200,951
66,55,295200,950
57,55,295200,951
57,44,296160,456
62,44,296160,456
66,44,296160,456
69,52,296160,456
57,44,296640,456
62,44,296640,456
66,44,296640,456
69,52,296640,456
66,42,297120,456
57,42,297120,456
69,50,297120,456
62,42,297120,456
62,42,297600,456
57,42,297600,456
67,42,297600,456
69,50,297600,456
57,45,298080,456
62,45,298080,456
69,54,298080,456
66,53,298560,466
74,63,298560,466
62,53,298560,466
69,56,299040,456
78,66,299040,456
66,56,299040,456
78,66,299520,456
66,56,299520,456
69,56,299520,456
66,58,300000,456
78,69,300000,456
69,58,300000,456
66,61,300480,456
78,72,300480,456
69,61,300480,456
70,63,300960,456
66,63,300960,456
78,75,300960,456
66,56,301440,456
70,56,301440,456
78,66,301440,456
78,61,301920,456
70,52,301920,456
66,52,301920,456
70,44,302400,456
78,52,302400,456
66,44,302400,456
78,48,302880,456
66,40,302880,456
70,40,302880,456
78,43,303360,456
66,36,303360,456
70,36,303360,456
69,32,303840,466
78,39,303840,466
66,32,303840,466
79,36,304320,466
67,31,304320,466
69,31,304320,466
81,38,304800,466
69,32,304800,466
66,36,305280,466
62,36,305280,466
74,43,305280,466
67,30,305760,466
64,30,305760,466
76,36,305760,466
73,30,305760,466
69,30,306240,466
66,30,306240,466
74,30,306240,466
78,36,306240,466
67,34,306720,951
76,41,306720,951
69,34,306720,951
73,34,306720,951
66,32,307680,466
69,32,307680,466
74,38,307680,466
66,36,308160,466
74,43,308160,466
69,36,308160,466
62,44,308640,456
62,41,309120,456
59,37,309600,951
62,37,309600,951
71,44,309600,951
59,37,310560,456
71,44,310560,456
62,37,310560,456
62,37,311040,456
59,37,311040,456
71,44,311040,456
62,35,311520,456
59,35,311520,456
71,42,311520,456
62,35,312000,456
71,42,312000,456
59,35,312000,456
71,44,312480,456
59,37,312480,456
62,37,312480,456
76,48,312960,466
64,40,312960,466
67,40,312960,466
62,37,313440,456
67,37,313440,456
74,44,313440,456
62,37,313920,456
74,44,313920,456
67,37,313920,456
67,34,314400,456
74,40,314400,456
62,34,314400,456
62,34,314880,456
74,40,314880,456
67,34,314880,456
62,37,315360,480
74,44,315360,480
67,37,315360,480
57,33,315840,466
62,33,315840,466
69,39,315840,466
60,33,316320,465
62,33,316320,466
72,39,316320,465
62,37,316800,466
72,44,316800,465
60,37,316800,465
62,35,317280,466
71,42,317280,466
59,35,317280,466
62,35,317760,466
69,42,317760,466
57,35,317760,466
57,37,318240,466
69,44,318240,466
62,37,318240,466
59,33,318720,466
71,39,318720,466
62,33,318720,466
62,33,319200,466
71,39,319200,466
59,33,319200,466
62,37,319680,466
71,44,319680,466
59,37,319680,466
62,43,320160,466
69,51,320160,466
57,43,320160,466
55,50,320640,466
67,60,320640,466
62,50,320640,466
66,55,321120,950
62,55,321120,950
69,66,321120,951
57,55,321120,951
66,44,322080,456
62,44,322080,456
69,52,322080,456
57,44,322080,456
57,44,322560,456
62,44,322560,456
69,52,322560,456
66,44,322560,456
57,42,323040,456
62,42,323040,456
66,42,323040,456
69,50,323040,456
62,42,323520,456
69,50,323520,456
67,42,323520,456
57,42,323520,456
62,49,324000,456
57,49,324000,456
69,59,324000,456
66,58,324480,466
62,58,324480,466
74,69,324480,466
69,63,324960,456
78,74,324960,456
66,63,324960,456
78,75,325440,456
66,63,325440,456
69,63,325440,456
78,80,325920,456
66,67,325920,456
69,67,325920,456
66,71,326400,456
69,71,326400,456
78,84,326400,456
66,70,326880,456
78,84,326880,456
70,70,326880,456
70,61,327360,456
66,61,327360,456
78,72,327360,456
70,56,327840,456
66,56,327840,456
78,65,327840,456
78,55,328320,456
70,46,328320,456
66,46,328320,456
66,41,328800,456
70,41,328800,456
78,49,328800,456
66,36,329280,456
78,43,329280,456
70,36,329280,456
69,32,329760,466
66,32,329760,466
78,39,329760,466
69,31,330240,466
67,31,330240,466
79,36,330240,466
81,38,330720,466
69,32,330720,466
62,36,331200,466
66,36,331200,466
74,43,331200,466
64,30,331680,466
76,36,331680,466
67,30,331680,466
73,30,331680,466
66,30,332160,466
78,36,332160,466
69,30,332160,466
74,30,332160,466
69,34,332640,951
73,34,332640,951
67,34,332640,951
76,41,332640,951
69,32,333600,466
74,38,333600,466
66,32,333600,466
69,36,334080,466
74,43,334080,466
66,36,334080,466
74,44,334560,456
74,46,335040,456
64,48,335520,950
67,48,335520,950
76,57,335520,951
72,48,335520,951
67,37,336480,456
76,44,336480,456
64,37,336480,456
72,37,336480,456
64,37,336960,456
72,37,336960,456
76,44,336960,456
67,37,336960,456
76,42,337440,456
67,35,337440,456
72,35,337440,456
64,35,337440,456
64,35,337920,456
72,35,337920,456
76,42,337920,456
67,35,337920,456
76,44,338400,456
64,37,338400,456
67,37,338400,456
62,40,338880,466
74,48,338880,466
67,40,338880,466
60,37,339360,456
72,44,339360,456
67,37,339360,456
67,37,339840,456
60,37,339840,456
72,44,339840,456
62,40,340320,456
67,40,340320,456
74,48,340320,456
67,46,340800,456
76,54,340800,456
64,46,340800,456
70,56,341280,950
79,67,341280,951
67,56,341280,950
79,60,342240,456
67,50,342240,456
70,50,342240,456
70,50,342720,456
79,60,342720,456
67,50,342720,456
67,47,343200,456
70,47,343200,456
79,57,343200,456
67,47,343680,456
70,47,343680,456
79,57,343680,456
67,50,344160,456
70,50,344160,456
79,60,344160,456
65,55,344640,465
70,55,344640,465
77,66,344640,465
63,50,345120,456
70,50,345120,456
75,60,345120,456
63,50,345600,456
70,50,345600,456
75,60,345600,456
65,55,346080,456
70,55,346080,456
77,66,346080,456
67,59,346560,456
70,59,346560,456
79,71,346560,456
73,63,347040,950
70,63,347040,950
82,76,347040,950
73,57,348000,456
70,57,348000,456
82,68,348000,456
73,57,348480,456
70,57,348480,456
82,68,348480,456
70,53,348960,456
73,53,348960,456
82,65,348960,456
73,53,349440,456
70,53,349440,456
82,65,349440,456
73,57,349920,456
70,57,349920,456
82,68,349920,456
68,56,350400,465
73,56,350400,465
80,67,350400,465
66,57,350880,456
73,57,350880,456
78,68,350880,456
70,57,351360,456
78,57,351360,456
82,68,351360,456
71,65,351840,456
78,65,351840,456
83,78,351840,456
73,73,352320,456
78,73,352320,456
85,89,352320,456
78,82,352800,950
74,82,352800,950
86,100,352800,950
78,74,353760,456
74,74,353760,456
86,89,353760,456
78,74,354240,456
74,74,354240,456
86,89,354240,456
78,69,354720,456
74,69,354720,456
86,85,354720,456
74,69,355200,456
78,69,355200,456
86,85,355200,456
86,82,355680,950
77,82,355680,950
79,82,355680,950
83,82,355680,950
91,100,355680,950
91,89,356640,456
77,74,356640,456
79,74,356640,456
86,74,356640,456
83,74,356640,456
86,74,357120,456
77,74,357120,456
79,74,357120,456
83,74,357120,456
91,89,357120,456
83,64,357600,456
77,64,357600,456
79,64,357600,456
86,64,357600,456
91,79,357600,456
91,73,358080,456
77,60,358080,456
79,60,358080,456
86,60,358080,456
83,60,358080,456
84,58,358560,931
76,58,358560,931
79,58,358560,931
88,69,358560,931
76,38,359520,456
64,32,359520,456
72,32,359520,456
76,43,360000,456
64,36,360000,456
72,36,360000,456
76,38,360480,456
64,32,360480,456
72,32,360480,456
64,32,360960,456
72,32,360960,456
76,38,360960,456
64,36,361440,1440
72,36,361440,931
76,43,361440,931
74,38,362400,456
71,32,362400,456
64,37,362880,1440
71,37,362880,931
74,44,362880,931
69,31,363840,456
72,36,363840,456
64,35,364320,931
69,35,364320,931
72,41,364320,931
67,27,365280,456
71,32,365280,456
67,32,365760,931
71,38,365760,931
62,26,366720,456
66,26,366720,456
69,30,366720,456
66,29,367200,931
62,29,367200,931
69,35,367200,931
62,25,368160,456
66,25,368160,456
69,29,368160,456
62,27,368640,456
66,27,368640,456
69,31,368640,456
62,25,369120,456
66,25,369120,456
69,29,369120,456
62,25,369600,456
66,25,369600,456
69,29,369600,456
66,29,370080,931
62,29,370080,931
69,35,370080,931
62,25,371040,456
66,25,371040,456
69,29,371040,456
62,27,371520,456
66,27,371520,456
69,31,371520,456
62,25,372000,456
66,25,372000,456
69,29,372000,456
62,25,372480,456
66,25,372480,456
69,29,372480,456
63,29,372960,950
66,29,372960,951
71,35,372960,951
63,29,373920,456
66,29,373920,456
71,35,373920,456
66,29,374400,456
63,29,374400,456
71,35,374400,456
63,28,374880,456
66,28,374880,456
71,33,374880,456
63,28,375360,456
66,28,375360,456
71,33,375360,456
62,33,375840,456
67,33,375840,456
71,39,375840,456
64,36,376320,466
67,36,376320,466
76,43,376320,466
67,33,376800,456
74,39,376800,456
62,33,376800,456
67,33,377280,456
74,39,377280,456
62,33,377280,456
74,36,377760,456
62,30,377760,456
67,30,377760,456
62,30,378240,456
74,36,378240,456
67,30,378240,456
62,33,378720,480
74,39,378720,480
67,33,378720,480
62,29,379200,466
57,29,379200,466
69,35,379200,466
60,29,379680,465
62,29,379680,466
72,35,379680,465
72,39,380160,465
62,33,380160,466
60,33,380160,465
59,31,380640,466
71,37,380640,466
62,31,380640,466
57,31,381120,466
69,37,381120,466
62,31,381120,466
62,33,381600,466
57,33,381600,466
69,39,381600,466
59,33,382080,466
62,33,382080,466
71,39,382080,466
62,33,382560,466
71,39,382560,466
59,33,382560,466
62,37,383040,466
71,44,383040,466
59,37,383040,466
71,51,383520,466
59,43,383520,466
67,43,383520,466
60,50,384000,466
72,60,384000,466
67,50,384000,466
67,55,384480,950
74,66,384480,951
62,55,384480,950
62,44,385440,456
74,52,385440,456
67,44,385440,456
62,44,385920,456
74,52,385920,456
67,44,385920,456
60,42,386400,456
72,50,386400,456
67,42,386400,456
59,42,386880,456
71,50,386880,456
67,42,386880,456
62,45,387360,456
74,54,387360,456
67,45,387360,456
67,53,387840,466
79,63,387840,466
71,53,387840,466
71,56,388320,456
74,56,388320,456
83,66,388320,456
71,56,388800,456
74,56,388800,456
83,66,388800,456
74,58,389280,456
83,69,389280,456
71,58,389280,456
74,61,389760,456
83,72,389760,456
71,61,389760,456
75,63,390240,456
83,75,390240,456
71,63,390240,456
71,56,390720,456
83,66,390720,456
75,56,390720,456
71,52,391200,456
83,61,391200,456
75,52,391200,456
75,44,391680,456
83,52,391680,456
71,44,391680,456
75,40,392160,456
83,48,392160,456
71,40,392160,456
75,36,392640,456
83,43,392640,456
71,36,392640,456
71,32,393120,466
83,39,393120,466
74,32,393120,466
72,31,393600,466
84,36,393600,466
74,31,393600,466
74,32,394080,466
86,38,394080,466
71,36,394560,466
79,43,394560,466
67,36,394560,466
74,30,395040,466
78,30,395040,466
81,36,395040,466
69,30,395040,466
74,30,395520,466
79,30,395520,466
71,30,395520,466
83,36,395520,466
72,34,396000,951
74,34,396000,951
78,34,396000,951
81,41,396000,951
71,32,396960,466
74,32,396960,466
79,38,396960,466
71,36,397440,466
74,36,397440,466
79,43,397440,466
74,44,397920,456
74,46,398400,456
67,46,398880,950
64,46,398880,950
72,46,398880,951
76,55,398880,951
67,37,399840,456
64,37,399840,456
72,37,399840,456
76,44,399840,456
64,37,400320,456
67,37,400320,456
72,37,400320,456
76,44,400320,456
72,35,400800,456
64,35,400800,456
67,35,400800,456
76,42,400800,456
64,35,401280,456
67,35,401280,456
72,35,401280,456
76,42,401280,456
64,37,401760,456
67,37,401760,456
76,44,401760,456
62,40,402240,466
67,40,402240,466
74,48,402240,466
60,37,402720,456
67,37,402720,456
72,44,402720,456
60,37,403200,456
67,37,403200,456
72,44,403200,456
62,40,403680,456
67,40,403680,456
74,48,403680,456
64,46,404160,456
67,46,404160,456
76,54,404160,456
67,56,404640,950
70,56,404640,950
79,67,404640,951
67,50,405600,456
70,50,405600,456
79,60,405600,456
67,50,406080,456
70,50,406080,456
79,60,406080,456
67,47,406560,456
79,57,406560,456
70,47,406560,456
70,47,407040,456
79,57,407040,456
67,47,407040,456
70,50,407520,456
79,60,407520,456
67,50,407520,456
70,55,408000,465
77,66,408000,465
65,55,408000,465
63,50,408480,456
75,60,408480,456
70,50,408480,456
63,50,408960,456
75,60,408960,456
70,50,408960,456
65,55,409440,456
70,55,409440,456
77,66,409440,456
67,59,409920,456
70,59,409920,456
79,71,409920,456
70,63,410400,950
82,76,410400,950
73,63,410400,950
70,57,411360,456
82,68,411360,456
73,57,411360,456
70,57,411840,456
82,68,411840,456
73,57,411840,456
70,53,412320,456
73,53,412320,456
82,65,412320,456
73,53,412800,456
70,53,412800,456
82,65,412800,456
70,57,413280,456
82,68,413280,456
73,57,413280,456
73,56,413760,465
80,67,413760,465
68,56,413760,465
73,57,414240,456
78,68,414240,456
66,57,414240,456
70,57,414720,456
82,68,414720,456
78,57,414720,456
71,65,415200,456
83,78,415200,456
78,65,415200,456
73,73,415680,456
78,73,415680,456
85,89,415680,456
78,82,416160,950
74,82,416160,950
86,100,416160,950
78,74,417120,456
74,74,417120,456
86,89,417120,456
74,74,417600,456
86,89,417600,456
78,74,417600,456
78,69,418080,456
86,85,418080,456
74,69,418080,456
86,85,418560,456
78,69,418560,456
74,69,418560,456
77,82,419040,950
86,82,419040,950
83,82,419040,950
79,82,419040,950
91,100,419040,950
79,74,420000,456
86,74,420000,456
77,74,420000,456
91,89,420000,456
83,74,420000,456
77,74,420480,456
91,89,420480,456
83,74,420480,456
79,74,420480,456
86,74,420480,456
77,64,420960,456
83,64,420960,456
86,64,420960,456
79,64,420960,456
91,79,420960,456
79,60,421440,456
86,60,421440,456
77,60,421440,456
91,73,421440,456
83,60,421440,456
76,58,421920,931
88,69,421920,931
79,58,421920,931
84,58,421920,931
64,32,422880,456
76,38,422880,456
72,32,422880,456
64,36,423360,456
76,43,423360,456
72,36,423360,456
72,32,423840,456
64,32,423840,456
76,38,423840,456
64,32,424320,456
72,32,424320,456
76,38,424320,456
76,43,424800,931
72,36,424800,931
64,36,424800,1440
71,32,425760,456
74,38,425760,456
74,44,426240,931
71,37,426240,931
64,37,426240,1440
69,31,427200,456
72,36,427200,456
64,35,427680,931
69,35,427680,931
72,41,427680,931
67,27,428640,456
71,32,428640,456
67,32,429120,931
71,38,429120,931
62,26,430080,456
66,26,430080,456
69,30,430080,456
66,29,430560,931
62,29,430560,931
69,35,430560,931
62,25,431520,456
66,25,431520,456
69,29,431520,456
62,27,432000,456
66,27,432000,456
69,31,432000,456
62,25,432480,456
66,25,432480,456
69,29,432480,456
62,25,432960,456
66,25,432960,456
69,29,432960,456
66,29,433440,931
62,29,433440,931
69,35,433440,931
62,25,434400,456
66,25,434400,456
69,29,434400,456
62,27,434880,456
66,27,434880,456
69,31,434880,456
62,25,435360,456
66,25,435360,456
69,29,435360,456
62,25,435840,456
66,25,435840,456
69,29,435840,456
63,29,436320,950
66,29,436320,951
71,35,436320,951
63,29,437280,456
66,29,437280,456
71,35,437280,456
66,29,437760,456
63,29,437760,456
71,35,437760,456
63,28,438240,456
66,28,438240,456
71,33,438240,456
63,28,438720,456
66,28,438720,456
71,33,438720,456
62,33,439200,456
67,33,439200,456
71,39,439200,456
64,36,439680,466
67,36,439680,466
76,43,439680,466
67,33,440160,456
62,33,440160,456
74,39,440160,456
67,33,440640,456
62,33,440640,456
74,39,440640,456
74,36,441120,456
62,30,441120,456
67,30,441120,456
74,36,441600,456
62,30,441600,456
67,30,441600,456
74,39,442080,480
62,33,442080,480
67,33,442080,480
57,29,442560,466
62,29,442560,466
69,35,442560,466
60,29,443040,465
62,29,443040,466
72,35,443040,465
72,39,443520,465
60,33,443520,465
62,33,443520,466
71,37,444000,466
59,31,444000,466
62,31,444000,466
69,37,444480,466
57,31,444480,466
62,31,444480,466
57,33,444960,466
62,33,444960,466
69,39,444960,466
59,33,445440,466
62,33,445440,466
71,39,445440,466
62,33,445920,466
59,33,445920,466
71,39,445920,466
62,37,446400,466
59,37,446400,466
71,44,446400,466
71,51,446880,466
59,43,446880,466
67,43,446880,466
72,60,447360,466
60,50,447360,466
67,50,447360,466
74,66,447840,951
67,55,447840,950
62,55,447840,950
74,52,448800,456
67,44,448800,456
62,44,448800,456
67,44,449280,456
62,44,449280,456
74,52,449280,456
67,42,449760,456
60,42,449760,456
72,50,449760,456
67,42,450240,456
59,42,450240,456
71,50,450240,456
62,45,450720,456
67,45,450720,456
74,54,450720,456
67,53,451200,466
71,53,451200,466
79,63,451200,466
71,56,451680,456
74,56,451680,456
83,66,451680,456
71,56,452160,456
74,56,452160,456
83,66,452160,456
71,58,452640,456
74,58,452640,456
83,69,452640,456
71,61,453120,456
74,61,453120,456
83,72,453120,456
71,63,453600,456
75,63,453600,456
83,75,453600,456
71,56,454080,456
75,56,454080,456
83,66,454080,456
71,52,454560,456
75,52,454560,456
83,61,454560,456
71,44,455040,456
75,44,455040,456
83,52,455040,456
71,40,455520,456
75,40,455520,456
83,48,455520,456
71,36,456000,456
75,36,456000,456
83,43,456000,456
71,32,456480,466
74,32,456480,466
83,39,456480,466
72,31,456960,466
74,31,456960,466
84,36,456960,466
74,32,457440,466
86,38,457440,466
67,36,457920,466
71,36,457920,466
79,43,457920,466
69,30,458400,466
74,30,458400,466
78,30,458400,466
81,36,458400,466
74,30,458880,466
79,30,458880,466
71,30,458880,466
83,36,458880,466
74,34,459360,951
78,34,459360,951
72,34,459360,951
81,41,459360,951
71,32,460320,466
74,32,460320,466
79,38,460320,466
74,30,460800,466
79,36,460800,466
71,30,460800,466
74,21,461280,456
79,29,461280,456
71,21,461280,456
79,29,461760,456
71,21,461760,456
74,21,461760,456
71,31,462240,950
79,37,462240,951
74,31,462240,951
67,27,463200,456
76,32,463200,456
71,27,463200,456
76,36,463680,456
67,30,463680,456
71,30,463680,456
67,28,464160,456
73,33,464160,456
64,28,464160,456
71,33,464640,456
62,28,464640,456
67,28,464640,456
61,31,465120,950
71,37,465120,951
67,31,465120,951
61,27,466080,456
69,32,466080,456
67,27,466080,456
61,30,466560,456
67,30,466560,456
69,36,466560,456
62,28,467040,456
67,28,467040,456
71,33,467040,456
67,28,467520,456
71,33,467520,456
62,28,467520,456
67,31,468000,951
71,37,468000,951
61,31,468000,950
69,31,468960,456
61,26,468960,456
67,26,468960,456
61,29,469440,456
69,34,469440,456
67,29,469440,456
67,26,469920,456
70,31,469920,456
62,26,469920,456
70,31,470400,456
62,26,470400,456
67,26,470400,456
70,34,470880,950
67,28,470880,951
61,28,470880,950
61,24,471840,456
67,24,471840,456
69,28,471840,456
61,27,472320,950
69,32,472320,950
67,27,472320,951
67,23,473280,456
61,23,473280,456
69,27,473280,456
67,26,473760,951
61,26,473760,950
69,31,473760,950
67,22,474720,456
69,26,474720,456
61,22,474720,456
69,29,475200,350
61,25,475200,350
67,25,475200,350
61,70,475560,60
55,59,475560,60
57,59,475560,60
55,64,475680,360
57,64,475680,360
61,76,475680,360
55,59,476040,60
61,70,476040,60
57,59,476040,60
57,63,476160,360
62,75,476160,360
55,63,476160,360
64,70,476520,60
55,59,476520,60
57,59,476520,60
62,68,476640,931
66,80,476640,931
54,68,476640,931
57,68,476640,931
62,68,477600,815
54,68,477600,815
57,68,477600,815
66,80,477600,815
66,67,478440,120
67,75,478560,360
57,66,478560,466
66,70,478920,120
64,74,479040,120
57,66,479040,466
66,66,479160,120
64,66,479280,120
62,70,479400,120
57,68,479520,931
64,68,479520,931
69,80,479520,931
57,68,480480,815
69,80,480480,815
64,68,480480,815
69,67,481320,120
71,75,481440,120
64,66,481440,466
73,66,481560,120
71,68,481680,120
69,70,481800,120
64,66,481920,480
71,74,481920,360
73,70,482280,120
62,68,482400,931
66,68,482400,931
74,80,482400,931
71,68,482400,931
62,68,483360,710
71,68,483360,710
74,80,483360,710
66,68,483360,710
68,63,484080,120
74,75,484080,120
68,68,484320,120
74,80,484320,120
74,79,484560,120
76,79,484560,120
68,67,484560,120
68,70,484800,120
78,83,484800,120
74,70,484800,120
68,73,485040,120
80,86,485040,120
74,73,485040,120
73,76,485280,931
81,90,485280,931
69,76,485280,931
61,73,486240,960
69,87,486240,960
57,73,486240,960
81,61,487200,480
82,58,487680,480
83,62,488160,160
82,57,488320,160
83,57,488480,160
88,63,488640,160
87,61,488800,160
88,65,488960,160
91,70,489120,840
90,61,489960,120
88,69,490080,360
86,62,490440,120
85,70,490560,360
83,62,490920,120
81,69,491040,160
80,60,491200,160
81,55,491360,160
86,68,491520,160
85,65,491680,160
86,69,491840,160
90,72,492000,840
88,61,492840,120
86,69,492960,360
85,62,493320,120
83,70,493440,360
81,62,493800,120
79,67,493920,160
78,58,494080,160
79,58,494240,160
85,63,494400,160
84,61,494560,160
85,65,494720,160
88,70,494880,840
86,59,495720,120
85,68,495840,360
86,57,496200,120
85,67,496320,360
83,58,496680,120
82,63,496800,931
78,53,496800,931
82,56,497760,815
78,47,497760,950
82,46,498600,120
83,52,498720,360
78,46,498720,466
82,49,499080,120
83,51,499200,360
78,46,499200,466
82,49,499560,120
77,47,499680,931
80,56,499680,931
77,47,500640,950
80,56,500640,815
80,46,501480,120
82,52,501600,360
77,46,501600,465
80,49,501960,120
77,46,502080,465
82,51,502080,360
80,49,502440,120
78,56,502560,931
78,56,503520,830
55,59,504360,60
49,59,504360,60
57,70,504360,60
55,64,504480,360
49,64,504480,360
57,76,504480,360
55,59,504840,60
57,70,504840,60
49,59,504840,60
59,75,504960,360
49,63,504960,360
55,63,504960,360
61,70,505320,60
49,59,505320,60
55,59,505320,60
50,68,505440,931
54,68,505440,931
62,80,505440,931
59,68,506400,931
54,68,506400,931
62,80,506400,815
50,68,506400,931
62,67,507240,120
62,75,507360,360
54,66,507360,466
64,70,507720,120
66,74,507840,360
54,66,507840,466
62,70,508200,120
64,68,508320,931
69,80,508320,931
67,68,508320,960
57,68,508320,931
57,68,509280,815
64,68,509280,815
67,68,509280,815
69,80,509280,815
67,53,510120,114
69,67,510120,114
64,53,510120,114
67,60,510240,342
69,75,510240,333
64,60,510240,342
69,70,510600,114
64,56,510600,114
67,56,510600,114
67,59,510720,342
64,59,510720,342
71,74,510720,342
64,56,511080,120
67,56,511080,120
73,70,511080,120
66,68,511200,931
69,68,511200,931
62,68,511200,931
74,80,511200,931
62,68,512160,710
67,68,512160,710
74,80,512160,710
74,75,512880,120
68,63,512880,120
68,68,513120,120
74,80,513120,120
68,67,513360,120
74,79,513360,120
76,79,513360,120
74,70,513600,120
78,83,513600,120
68,70,513600,120
74,73,513840,120
80,86,513840,120
68,73,513840,120
81,90,514080,931
69,76,514080,931
73,76,514080,931
61,73,515040,960
69,87,515040,960
57,73,515040,960
76,61,516000,480
77,58,516480,480
78,62,516960,160
77,57,517120,160
78,57,517280,160
83,63,517440,160
82,61,517600,160
83,65,517760,160
86,70,517920,840
85,61,518760,120
83,69,518880,120
85,63,519000,120
83,63,519120,120
81,62,519240,120
80,70,519360,120
81,65,519480,120
80,66,519600,120
78,62,519720,120
76,69,519840,160
75,60,520000,160
76,55,520160,160
81,68,520320,160
80,65,520480,160
81,69,520640,160
85,72,520800,840
83,61,521640,120
81,69,521760,120
83,63,521880,120
81,63,522000,120
80,62,522120,120
78,70,522240,120
80,65,522360,120
78,65,522480,120
76,62,522600,120
74,67,522720,160
73,58,522880,160
74,58,523040,160
80,63,523200,160
79,61,523360,160
80,65,523520,160
83,70,523680,840
81,59,524520,120
80,68,524640,360
81,57,525000,120
80,67,525120,360
78,58,525480,120
73,53,525600,931
77,63,525600,931
73,47,526560,950
77,56,526560,815
77,46,527400,120
73,46,527520,466
78,52,527520,360
77,49,527880,120
73,46,528000,466
78,51,528000,360
77,49,528360,120
74,51,528480,931
76,51,528480,931
80,61,528480,931
74,51,529440,950
76,51,529440,830
80,61,529440,830
76,50,530280,120
74,50,530400,465
78,57,530400,360
76,53,530760,120
74,50,530880,465
78,56,530880,360
80,53,531240,120
69,51,531360,931
73,51,531360,931
81,61,531360,931
73,51,532320,830
69,51,532320,830
81,61,532320,830
57,70,533160,60
57,76,533280,120
57,70,533640,60
55,75,533760,120
57,70,534120,60
58,68,534240,960
61,80,534240,931
52,68,534240,931
55,68,534240,931
61,80,535200,815
58,68,535200,815
52,68,535200,815
55,68,535200,815
69,70,536040,60
69,76,536160,120
69,70,536520,60
67,75,536640,120
69,70,537000,60
65,68,537120,931
70,68,537120,960
62,68,537120,931
74,80,537120,931
62,68,538080,815
70,68,538080,815
65,68,538080,815
74,80,538080,815
77,70,538920,60
74,59,538920,60
74,64,539040,120
77,76,539040,120
74,59,539400,60
77,70,539400,60
76,75,539520,120
73,63,539520,120
74,59,539880,60
77,70,539880,60
74,76,540000,120
70,64,540000,120
70,59,540360,60
74,70,540360,60
73,75,540480,120
69,63,540480,120
74,70,540840,60
70,59,540840,60
70,76,540960,120
67,64,540960,120
70,70,541320,60
67,59,541320,60
69,75,541440,120
66,63,541440,120
70,70,541800,60
67,59,541800,60
63,68,541920,960
67,80,541920,931
75,74,542880,950
67,74,542880,950
71,74,542880,950
79,88,542880,950
75,74,543840,950
67,74,543840,950
72,74,543840,950
79,88,543840,950
65,74,544800,120
74,74,544800,120
77,88,544800,120
69,74,545280,120
72,74,545280,120
75,74,545280,120
81,88,545280,120
74,85,545760,950
70,85,545760,950
82,101,545760,950
58,74,546720,815
62,74,546720,815
70,88,546720,815
74,47,547560,60
77,56,547560,60
74,51,547680,120
77,60,547680,120
74,47,548040,60
77,56,548040,60
73,50,548160,120
76,60,548160,120
74,47,548520,60
77,56,548520,60
70,51,548640,960
74,60,548640,960
70,51,549600,815
74,60,549600,815
70,47,550440,60
74,56,550440,60
70,51,550560,120
74,60,550560,120
70,47,550920,60
74,56,550920,60
69,50,551040,120
73,60,551040,120
70,47,551400,60
74,56,551400,60
74,51,551520,960
77,60,551520,960
72,51,552480,815
75,60,552480,815
77,47,553320,60
75,56,553320,60
72,47,553320,60
77,51,553440,120
75,60,553440,120
72,51,553440,120
72,47,553800,60
77,47,553800,60
75,56,553800,60
77,50,553920,120
71,50,553920,120
74,60,553920,120
72,47,554280,60
75,56,554280,60
77,56,554280,60
72,51,554400,951
77,60,554400,951
69,51,554400,951
77,60,555360,815
69,51,555360,815
72,51,555360,815
77,47,556200,60
72,56,556200,60
69,47,556200,60
77,51,556320,120
72,60,556320,120
69,51,556320,120
72,56,556680,60
69,47,556680,60
77,47,556680,60
68,50,556800,120
71,60,556800,120
77,50,556800,120
72,56,557160,60
77,56,557160,60
69,47,557160,60
69,45,557280,951
77,54,557280,951
73,45,557280,950
70,45,558240,815
77,54,558240,815
74,45,558240,815
74,47,559080,60
70,47,559080,60
77,56,559080,60
70,51,559200,120
74,51,559200,120
77,60,559200,120
74,48,559560,60
77,57,559560,60
70,48,559560,60
74,52,559680,120
76,63,559680,120
70,52,559680,120
77,60,560040,60
70,50,560040,60
74,50,560040,60
70,56,560160,951
79,66,560160,951
74,56,560160,951
79,66,561120,815
70,56,561120,815
74,56,561120,815
70,51,561960,60
79,61,561960,60
74,51,561960,60
70,56,562080,120
79,66,562080,120
74,56,562080,120
70,50,562440,60
82,60,562440,60
74,50,562440,60
70,54,562560,120
81,64,562560,120
74,54,562560,120
74,49,562920,60
79,59,562920,60
70,49,562920,60
70,51,563040,951
77,60,563040,951
74,51,563040,951
70,60,564000,815
74,51,564000,815
77,60,564000,815
77,47,564840,60
70,47,564840,60
74,56,564840,60
70,51,564960,120
74,60,564960,120
77,51,564960,120
70,47,565320,60
74,56,565320,60
77,47,565320,60
70,50,565440,120
75,60,565440,120
79,50,565440,120
77,56,565800,60
70,47,565800,60
74,56,565800,60
69,51,565920,960
72,51,565920,960
77,60,565920,960
72,48,566880,815
75,57,566880,815
69,48,566880,815
65,44,567720,60
72,53,567720,60
75,44,567720,60
65,48,567840,120
72,57,567840,120
75,48,567840,120
75,44,568200,60
72,53,568200,60
65,44,568200,60
74,47,568320,120
71,57,568320,120
65,47,568320,120
72,53,568680,60
65,44,568680,60
69,53,568680,60
62,40,568800,960
65,40,568800,960
70,48,568800,960
62,40,569760,815
65,40,569760,815
70,48,569760,815
75,39,570600,60
65,39,570600,60
72,47,570600,60
75,43,570720,120
65,43,570720,120
72,51,570720,120
75,39,571080,60
65,39,571080,60
72,47,571080,60
74,42,571200,120
65,42,571200,120
70,51,571200,120
72,47,571560,60
65,39,571560,60
69,47,571560,60
62,38,571680,960
65,38,571680,960
70,45,571680,960
62,38,572640,815
65,38,572640,815
70,45,572640,815
75,35,573480,60
65,35,573480,60
72,42,573480,60
75,38,573600,120
65,38,573600,120
72,45,573600,120
75,34,573960,60
65,34,573960,60
72,41,573960,60
74,36,574080,120
65,36,574080,120
70,44,574080,120
72,39,574440,60
65,33,574440,60
69,39,574440,60
62,31,574560,350
65,31,574560,350
70,37,574560,350
46,70,574920,60
46,76,575040,120
46,70,575400,60
46,75,575520,120
48,70,575880,60
50,75,576000,350
50,59,576360,60
62,70,576360,60
50,64,576480,120
62,76,576480,120
50,59,576840,60
62,70,576840,60
50,63,576960,120
62,75,576960,120
52,59,577320,60
64,70,577320,60
65,82,577440,350
53,69,577440,360
53,77,577800,60
53,83,577920,120
53,77,578280,60
53,82,578400,120
55,77,578760,60
57,90,578880,350
57,60,579240,60
69,71,579240,60
69,78,579360,120
57,65,579360,120
59,61,579720,60
71,73,579720,60
73,79,579840,120
61,66,579840,120
62,64,580200,60
74,76,580200,60
64,70,580320,931
69,70,580320,931
73,70,580320,960
76,83,580320,931
76,83,581280,815
73,70,581280,815
69,70,581280,815
64,70,581280,815
68,58,582120,114
74,58,582120,114
76,73,582120,114
68,66,582240,342
74,66,582240,342
76,82,582240,333
74,63,582600,114
76,80,582600,114
68,63,582600,114
68,67,582720,342
78,85,582720,342
74,67,582720,342
68,65,583080,120
80,83,583080,120
74,65,583080,120
69,78,583200,931
73,78,583200,931
81,93,583200,931
69,78,584160,820
73,78,584160,820
81,93,584160,820
57,47,585000,60
61,56,585000,60
55,47,585000,60
57,51,585120,360
62,60,585120,360
55,51,585120,360
57,47,585480,60
61,56,585480,60
55,47,585480,60
55,50,585600,360
62,60,585600,360
57,50,585600,360
55,47,585960,60
64,56,585960,60
57,47,585960,60
54,54,586080,931
57,64,586080,931
66,64,587040,815
57,54,587040,815
57,53,587880,120
66,53,587880,120
55,60,588000,120
67,60,588000,120
66,56,588360,120
55,56,588360,120
64,59,588480,120
56,59,588480,120
62,56,588840,120
56,56,588840,120
57,54,588960,931
69,64,588960,931
61,54,588960,931
61,54,589920,815
64,64,589920,815
69,53,590760,60
64,53,590760,120
73,53,590820,60
71,60,590880,120
64,60,590880,120
64,56,591240,120
69,56,591240,120
64,59,591360,120
71,59,591360,120
64,56,591720,120
73,56,591720,120
74,64,591840,931
62,54,591840,931
66,54,591840,931
66,64,592800,815
62,54,592800,815
62,53,593640,120
66,53,593640,60
69,53,593700,60
68,60,593760,120
62,60,593760,120
62,56,594120,120
66,56,594120,120
62,59,594240,120
68,59,594240,120
64,56,594600,120
62,56,594600,120
71,64,594720,931
61,54,594720,931
61,54,595680,950
69,64,595680,950
62,56,596640,456
69,67,596640,456
66,56,596640,456
66,53,597120,466
70,63,597120,466
62,53,597120,466
71,60,597600,960
67,51,597600,960
62,51,597600,960
67,56,598560,466
71,56,598560,466
76,67,598560,466
71,57,599040,240
76,57,599040,240
79,68,599040,240
67,53,599520,240
71,53,599520,240
76,63,599520,250
61,49,600000,240
64,49,600000,240
67,58,600000,240
61,55,600480,960
66,55,600480,960
69,65,600480,960
66,59,601440,466
69,59,601440,466
74,70,601440,466
69,58,601920,240
74,58,601920,240
78,69,601920,240
66,51,602400,240
69,51,602400,240
74,60,602400,240
59,47,602880,240
62,47,602880,240
66,56,602880,240
59,56,603360,960
64,56,603360,960
67,67,603360,960
64,60,604320,466
67,60,604320,466
73,71,604320,466
67,60,604800,240
73,71,604800,240
76,71,604800,240
64,55,605280,240
67,55,605280,240
73,65,605280,240
61,50,605760,240
68,59,605760,240
71,59,605760,240
66,55,606240,960
61,55,606240,931
70,65,606240,931
66,51,607200,815
61,51,607200,815
70,60,607200,815
66,60,608040,60
73,71,608040,60
66,65,608160,120
75,78,608160,120
66,61,608520,60
73,73,608520,60
66,66,608640,120
75,79,608640,120
66,64,609000,60
73,76,609000,60
71,70,609120,960
65,70,609120,931
77,83,609120,931
77,83,610080,815
71,70,610080,815
65,70,610080,815
73,58,610920,114
65,58,610920,114
77,73,610920,114
73,66,611040,342
65,66,611040,342
77,82,611040,332
77,80,611400,114
65,63,611400,114
73,63,611400,114
77,85,611520,342
65,67,611520,342
73,67,611520,342
77,83,611880,120
65,65,611880,120
73,65,611880,120
66,78,612000,931
70,78,612000,931
78,93,612000,931
66,78,612960,820
70,78,612960,820
78,93,612960,820
73,56,613800,60
67,47,613800,60
69,47,613800,60
73,60,613920,349
67,51,613920,349
69,51,613920,349
73,56,614280,60
67,47,614280,60
69,47,614280,60
67,50,614386,349
69,50,614386,349
74,60,614386,349
67,47,614760,60
69,47,614760,60
76,56,614760,60
69,64,614880,931
66,54,614880,931
78,64,615840,815
66,54,615840,815
69,54,615840,815
66,53,616680,117
78,53,616680,116
78,60,616800,120
66,60,616800,120
66,56,617146,116
78,56,617146,116
68,59,617280,120
76,59,617280,120
74,56,617640,120
68,56,617640,120
73,64,617760,931
69,54,617760,931
69,54,618720,815
76,64,618720,815
70,53,619560,117
76,53,619560,117
70,60,619680,120
76,60,619680,120
70,56,620026,116
76,56,620026,116
70,59,620160,120
74,59,620160,120
70,56,620520,120
73,56,620520,120
71,64,620640,931
74,64,621600,815
67,54,621600,815
61,53,622440,120
67,53,622440,120
71,53,622440,120
61,60,622560,120
67,60,622560,120
71,60,622560,120
61,56,622920,120
67,56,622920,120
71,56,622920,120
61,59,623040,120
66,59,623040,120
69,59,623040,120
61,56,623400,120
64,56,623400,120
67,56,623400,120
64,54,623520,960
57,54,623520,931
67,64,623520,931
57,54,624480,950
66,64,624480,950
62,54,624480,950
62,56,625440,456
66,56,625440,456
69,67,625440,456
62,53,625920,456
66,53,625920,456
70,63,625920,456
62,51,626400,960
67,51,626400,960
71,60,626400,960
67,56,627360,466
71,56,627360,466
76,67,627360,466
71,57,627840,240
76,57,627840,240
79,68,627840,240
67,53,628320,240
71,53,628320,240
76,63,628320,250
64,49,628800,240
67,58,628800,240
64,55,629280,960
69,55,629280,960
73,65,629280,960
69,59,630240,466
73,59,630240,466
78,70,630240,466
73,58,630720,240
78,58,630720,240
81,69,630720,240
73,51,631200,240
78,60,631200,240
69,51,631200,240
69,56,631680,240
66,47,631680,240
66,56,632160,960
74,67,632160,960
71,56,632160,960
74,66,633120,466
71,66,633120,466
79,78,633120,466
74,60,633600,240
79,71,633600,240
83,71,633600,240
74,60,634080,240
79,71,634080,240
71,60,634080,240
71,75,634560,240
67,68,634560,240
69,66,635040,931
81,78,635040,931
79,66,635040,960
73,66,635040,931
79,61,636000,815
69,61,636000,815
81,72,636000,815
73,61,636000,815
73,58,636840,114
81,73,636840,114
79,58,636840,114
79,66,636960,342
73,66,636960,342
81,82,636960,333
73,63,637320,114
79,63,637320,114
81,80,637320,114
79,67,637440,342
83,85,637440,342
73,67,637440,342
79,65,637800,120
85,83,637800,120
73,65,637800,120
86,93,637920,931
74,78,637920,931
78,78,637920,931
74,78,638880,820
86,93,638880,820
78,78,638880,820
78,42,639720,60
81,50,639720,60
81,54,639840,349
78,45,639840,349
78,42,640200,60
81,50,640200,60
80,54,640320,349
77,45,640320,349
78,42,640680,60
81,50,640680,60
78,48,640800,960
74,40,640800,960
78,48,641760,815
74,40,641760,815
74,37,642600,60
78,44,642600,60
78,48,642720,120
74,40,642720,120
74,37,643080,60
78,44,643080,60
73,40,643200,120
77,48,643200,120
78,44,643560,60
74,37,643560,60
78,40,643680,960
81,48,643680,960
76,40,644640,815
79,48,644640,815
79,44,645480,60
81,37,645480,60
76,37,645480,60
81,40,645600,120
76,40,645600,120
79,48,645600,120
81,37,645960,60
76,37,645960,60
79,44,645960,60
75,40,646080,120
81,40,646080,120
78,48,646080,120
81,44,646440,60
76,37,646440,60
79,44,646440,60
81,48,646560,951
76,40,646560,951
73,40,646560,951
73,40,647520,815
76,40,647520,815
81,48,647520,815
81,37,648360,60
73,37,648360,60
76,44,648360,60
73,40,648480,120
81,40,648480,120
76,48,648480,120
81,37,648840,60
73,37,648840,60
76,44,648840,60
74,48,648960,120
81,40,648960,120
71,40,648960,120
81,44,649320,60
73,37,649320,60
76,44,649320,60
81,43,649440,951
73,36,649440,951
77,36,649440,950
74,36,650400,815
78,36,650400,815
81,43,650400,815
74,37,651240,60
81,44,651240,60
78,37,651240,60
81,48,651360,120
78,40,651360,120
74,40,651360,120
74,38,651720,60
78,38,651720,60
81,45,651720,60
74,41,651840,120
80,50,651840,120
78,41,651840,120
78,40,652200,60
74,40,652200,60
81,48,652200,60
74,44,652320,951
78,44,652320,951
83,52,652320,951
74,44,653280,815
83,52,653280,815
78,44,653280,815
83,48,654120,60
78,40,654120,60
74,40,654120,60
83,52,654240,120
78,44,654240,120
74,44,654240,120
78,40,654600,60
74,40,654600,60
86,48,654600,60
78,43,654720,120
85,51,654720,120
74,43,654720,120
74,39,655080,60
83,47,655080,60
78,39,655080,60
81,48,655200,951
74,40,655200,951
78,40,655200,951
81,48,656160,815
74,48,656160,815
78,40,656160,815
81,37,657000,60
74,37,657000,60
78,44,657000,60
81,40,657120,120
78,48,657120,120
74,40,657120,120
74,37,657480,60
81,37,657480,60
78,44,657480,60
74,40,657600,120
83,40,657600,120
79,48,657600,120
74,37,657960,60
78,44,657960,60
81,44,657960,60
81,48,658080,931
73,40,658080,931
78,40,658080,931
79,45,659040,815
76,38,659040,815
73,38,659040,815
76,42,659880,60
79,35,659880,60
69,35,659880,60
79,38,660000,120
69,38,660000,120
76,45,660000,120
79,35,660360,60
69,35,660360,60
76,42,660360,60
69,37,660480,120
78,37,660480,120
74,45,660480,120
76,42,660840,60
69,35,660840,60
73,42,660840,60
74,38,660960,931
66,32,660960,931
69,32,660960,931
66,32,661920,480
69,32,661920,480
74,38,661920,480
76,36,662760,60
79,30,662760,60
69,30,662760,60
79,33,662880,120
69,33,662880,120
76,39,662880,120
79,30,663240,60
76,35,663240,60
69,30,663240,60
74,38,663360,120
69,31,663360,120
78,31,663360,120
76,34,663720,60
69,29,663720,60
73,34,663720,60
74,33,663840,931
66,28,663840,931
69,28,663840,931
66,26,664800,480
69,26,664800,480
74,32,664800,480
79,23,665640,60
69,23,665640,60
76,28,665640,60
69,25,665760,120
79,25,665760,120
76,30,665760,120
79,22,666120,60
69,22,666120,60
76,26,666120,60
74,29,666240,120
78,23,666240,120
69,23,666240,120
76,25,666600,60
69,21,666600,60
73,25,666600,60
69,24,666720,931
74,28,666720,931
66,24,666720,931
66,24,667680,240
69,24,667680,240
74,28,667680,240
69,24,668640,240
74,28,668640,240
66,24,668640,240
69,28,669120,240
66,24,669120,240
69,24,669600,931
66,24,669600,931
74,28,669600,931
74,28,670560,240
69,24,670560,240
66,24,670560,240
74,28,671520,240
69,24,671520,240
66,24,671520,240
66,24,672000,240
69,28,672000,240
74,28,672480,240
66,24,672480,240
69,24,672480,240
66,23,673920,240
69,23,673920,240
74,26,673920,240
69,21,675360,1920
74,25,675360,1920
66,21,675360,1920
33,51,360,60
45,60,360,60
33,54,480,360
45,64,480,360
33,50,840,60
45,59,840,60
35,54,960,360
47,64,960,360
37,51,1320,60
49,60,1320,60
38,57,1440,931
45,57,1440,931
50,68,1440,931
38,57,2400,931
45,57,2400,931
50,68,2400,931
38,53,3360,480
50,63,3360,480
42,53,3840,480
54,63,3840,480
37,57,4320,931
45,57,4320,931
49,68,4320,931
37,57,5280,931
45,57,5280,931
49,68,5280,931
37,53,6240,466
49,63,6240,466
37,53,6720,480
49,63,6720,480
35,57,7200,931
42,57,7200,931
47,68,7200,931
35,57,8160,710
42,57,8160,710
47,68,8160,710
40,52,8880,120
52,62,8880,120
40,53,9120,120
52,63,9120,120
40,56,9360,120
52,66,9360,120
40,57,9600,120
52,68,9600,120
40,59,9840,120
52,70,9840,120
33,62,10080,931
45,73,10080,931
45,57,11040,931
52,68,11040,931
66,45,12000,480
62,37,12480,480
67,45,12960,480
71,39,13440,480
76,39,13920,480
61,44,14400,240
73,36,14880,480
67,36,15360,480
66,45,15840,480
69,39,16320,480
74,39,16800,480
59,44,17280,240
71,36,17760,480
66,36,18240,480
64,45,18720,480
67,39,19200,480
73,39,19680,480
52,44,20160,240
64,34,20640,480
65,32,21120,480
66,25,21600,931
73,30,21600,931
66,39,22560,720
73,47,22560,720
66,37,23520,432
73,44,23520,432
66,37,24000,432
73,44,24000,432
61,39,24480,931
71,47,24480,931
61,39,25440,950
71,47,25440,950
61,37,26400,432
71,44,26400,432
61,37,26880,432
71,44,26880,432
66,39,27360,931
70,47,27360,931
66,39,28320,830
70,47,28320,830
33,51,29160,60
45,60,29160,60
33,54,29280,360
45,64,29280,360
33,50,29640,60
45,59,29640,60
33,54,29760,360
45,64,29760,360
33,51,30120,60
45,60,30120,60
35,57,30240,931
47,68,30240,931
35,57,31200,931
47,68,31200,931
35,53,32160,480
47,63,32160,480
35,53,32640,480
47,63,32640,480
37,57,33120,931
45,57,33120,931
49,68,33120,931
37,57,34080,931
45,57,34080,931
49,68,34080,931
37,53,35040,466
49,63,35040,466
37,53,35520,480
49,63,35520,480
36,57,36000,931
48,68,36000,931
35,57,36960,710
47,68,36960,710
34,52,37680,120
46,62,37680,120
34,53,37920,120
46,63,37920,120
34,56,38160,120
46,66,38160,120
34,57,38400,120
46,68,38400,120
34,59,38640,120
46,70,38640,120
33,62,38880,931
45,73,38880,931
45,57,39840,931
52,68,39840,931
61,45,40800,480
57,37,41280,480
62,45,41760,480
66,39,42240,480
71,39,42720,480
56,44,43200,240
68,36,43680,480
62,36,44160,480
61,45,44640,480
64,39,45120,480
69,39,45600,480
54,44,46080,240
66,36,46560,480
61,36,47040,480
59,45,47520,480
62,39,48000,480
68,39,48480,480
47,44,48960,240
59,34,49440,480
60,32,49920,480
61,25,50400,931
68,30,50400,931
61,39,51360,950
68,47,51360,950
61,37,52320,432
68,44,52320,432
61,37,52800,432
68,44,52800,432
59,39,53280,931
64,39,53280,931
68,47,53280,931
59,39,54240,830
64,39,54240,830
68,47,54240,830
68,39,55080,120
69,44,55200,360
64,39,55200,465
68,41,55560,120
64,39,55680,465
69,43,55680,360
71,41,56040,120
64,47,56160,931
57,39,56160,931
57,39,57120,830
64,47,57120,830
45,60,57960,60
45,64,58080,120
45,59,58440,60
43,64,58560,120
45,60,58920,60
34,57,59040,931
46,68,59040,931
34,57,60000,815
46,68,60000,815
57,60,60840,60
57,64,60960,120
57,59,61320,60
55,64,61440,120
57,60,61800,60
53,57,61920,960
46,57,61920,931
58,68,61920,931
53,57,62880,815
46,57,62880,815
58,68,62880,815
62,51,63720,60
65,60,63720,60
62,54,63840,120
65,64,63840,120
62,50,64200,60
65,59,64200,60
61,54,64320,120
64,64,64320,120
62,51,64680,60
65,60,64680,60
58,54,64800,120
62,64,64800,120
58,50,65160,60
62,59,65160,60
57,54,65280,120
61,64,65280,120
58,51,65640,60
62,60,65640,60
55,54,65760,120
58,64,65760,120
58,59,66120,60
55,50,66120,60
57,64,66240,120
54,54,66240,120
58,60,66600,60
55,51,66600,60
51,57,66720,960
55,68,66720,931
38,57,67680,950
50,68,67680,950
36,57,68640,950
48,68,68640,950
41,57,69600,120
53,68,69600,120
41,57,70080,120
53,68,70080,120
34,57,70560,950
46,68,70560,950
46,57,71520,815
53,68,71520,815
46,55,73440,240
53,42,73920,240
62,42,74400,240
58,35,74400,240
46,55,74880,240
53,42,75360,240
58,35,75840,240
62,42,75840,240
45,55,76320,240
53,42,76800,240
63,42,77280,240
60,35,77280,240
45,55,77760,240
53,42,78240,240
60,35,78720,240
63,42,78720,240
41,55,79200,240
53,42,79680,240
63,42,80160,240
60,35,80160,240
41,55,80640,240
53,42,81120,240
60,35,81600,240
63,42,81600,240
46,49,82080,240
53,37,82560,240
62,37,83040,240
58,31,83040,240
46,55,83520,240
53,37,84000,240
62,38,84480,240
58,32,84480,240
43,60,84960,240
55,46,85440,240
62,46,85920,240
58,38,85920,240
43,55,86400,240
55,46,86880,240
58,37,87360,240
62,45,87360,240
46,55,87840,240
53,42,88320,240
62,42,88800,240
58,35,88800,240
46,55,89280,240
53,42,89760,240
62,42,90240,240
58,35,90240,240
41,55,90720,240
53,42,91200,240
60,33,91680,240
63,39,91680,240
41,52,92160,240
53,39,92640,240
63,39,93120,240
60,33,93120,240
46,44,93600,240
50,33,94080,240
58,33,94560,240
53,27,94560,240
41,49,95040,240
51,35,95520,240
57,35,96000,240
53,29,96000,240
46,41,96480,240
50,31,96960,240
58,31,97440,240
53,25,97440,240
41,46,97920,240
51,31,98400,240
57,30,98880,240
53,25,98880,240
46,34,99360,350
34,60,99720,60
34,64,99840,120
34,59,100200,60
34,64,100320,120
36,60,100680,60
38,67,100800,350
38,60,101160,60
38,64,101280,120
38,59,101640,60
38,64,101760,120
40,60,102120,60
41,73,102240,350
41,66,102600,60
41,70,102720,120
41,64,103080,60
41,70,103200,120
43,66,103560,60
45,80,103680,350
33,52,104040,60
45,61,104040,60
33,55,104160,120
45,65,104160,120
35,52,104520,60
47,61,104520,60
37,57,104640,120
49,67,104640,120
38,55,105000,60
50,65,105000,60
45,58,105120,960
40,58,105120,931
49,58,105120,931
52,70,105120,931
45,58,106080,815
40,58,106080,815
49,58,106080,815
52,70,106080,815
40,56,106920,120
52,66,106920,120
40,58,107040,332
52,69,107040,332
38,55,107400,120
50,65,107400,120
37,60,107520,332
49,72,107520,332
35,62,107880,120
47,74,107880,120
33,65,108000,931
45,74,108000,931
40,65,108960,820
33,65,108960,820
45,74,108960,820
45,48,109800,60
47,51,109920,120
45,47,110280,60
47,51,110400,120
49,48,110760,60
50,54,110880,931
50,45,111840,815
54,54,111840,815
50,44,112680,110
50,50,112800,120
47,42,112800,120
50,47,113160,120
47,40,113160,120
46,41,113274,120
50,49,113286,120
46,40,113640,120
50,47,113640,120
45,45,113760,931
52,54,113760,931
45,45,114720,815
57,54,114720,815
49,35,115560,110
57,44,115560,110
57,50,115680,120
49,42,115680,120
57,47,116040,120
49,40,116040,120
49,41,116160,120
57,49,116160,120
49,40,116520,120
57,47,116520,120
54,45,116640,960
47,45,116640,931
59,54,116640,931
50,45,117600,815
59,54,117600,815
52,35,118440,110
59,44,118440,110
59,50,118560,120
52,42,118560,120
59,47,118920,120
52,40,118920,120
52,41,119040,120
59,49,119040,120
52,40,119400,120
59,47,119400,120
52,45,119520,960
45,45,119520,931
57,54,119520,931
45,45,120480,950
52,45,120480,950
57,54,120480,950
50,45,121440,466
49,37,121920,466
47,67,122400,160
46,57,122560,160
47,57,122720,160
43,68,122880,160
42,61,123040,160
43,65,123200,160
40,74,123360,840
42,61,124200,120
43,69,124320,360
45,62,124680,120
47,70,124800,360
49,62,125160,120
45,69,125280,160
44,63,125440,160
45,59,125600,160
42,68,125760,160
41,65,125920,160
42,69,126080,160
38,74,126240,840
40,61,127080,120
42,69,127200,360
43,62,127560,120
45,70,127680,360
47,62,128040,120
43,70,128160,160
42,58,128320,160
43,58,128480,160
40,63,128640,160
39,65,128800,160
40,68,128960,160
37,72,129120,840
38,59,129960,120
40,73,130080,360
37,57,130440,120
41,71,130560,360
37,58,130920,120
42,71,131040,931
42,68,132000,815
46,61,132840,60
47,65,132960,120
46,61,133320,60
47,67,133440,120
46,65,133800,60
44,58,133920,960
49,70,133920,931
44,58,134880,815
49,70,134880,815
44,56,135720,120
49,66,135720,120
46,58,135840,332
49,69,135840,332
44,55,136200,120
49,65,136200,120
46,60,136320,332
49,72,136320,332
44,62,136680,120
49,74,136680,120
42,65,136800,931
49,74,136800,931
42,65,137760,820
49,74,137760,820
57,48,138600,60
57,51,138720,349
57,47,139080,60
59,51,139186,349
61,48,139560,60
62,54,139680,931
62,54,140640,815
62,44,141480,107
62,50,141600,120
62,47,141946,116
59,41,142080,120
62,49,142080,120
59,40,142440,120
62,47,142440,120
57,45,142560,931
64,54,142560,931
57,45,143520,815
61,54,143520,815
54,35,144360,107
61,44,144360,107
61,50,144480,120
54,42,144480,120
61,47,144826,116
54,40,144826,116
54,41,144960,120
62,49,144960,120
54,40,145320,120
64,47,145320,120
55,45,145440,960
62,54,145440,931
55,45,146400,815
59,54,146400,815
45,44,147240,110
45,50,147360,120
45,47,147720,120
45,49,147840,120
45,47,148200,120
50,54,148320,931
50,54,149280,950
50,45,150240,456
49,37,150720,480
47,67,151200,160
46,57,151360,160
47,57,151520,160
43,68,151680,160
42,61,151840,160
43,65,152000,160
40,74,152160,840
42,61,153000,120
43,69,153120,360
45,62,153480,120
47,70,153600,360
50,62,153960,120
49,69,154080,160
48,63,154240,160
49,59,154400,160
45,68,154560,160
44,65,154720,160
45,69,154880,160
42,74,155040,840
44,61,155880,120
45,69,156000,360
47,62,156360,120
49,70,156480,360
52,62,156840,120
50,70,156960,160
49,58,157120,160
50,58,157280,160
47,63,157440,160
46,65,157600,160
47,68,157760,160
43,72,157920,840
45,59,158760,120
47,73,158880,360
49,57,159240,120
50,71,159360,360
54,58,159720,120
52,85,159840,931
52,68,160800,815
57,81,160800,815
45,56,161640,120
57,66,161640,120
45,58,161760,332
57,69,161760,332
43,55,162120,120
55,65,162120,120
42,60,162240,332
54,72,162240,332
40,62,162600,120
52,74,162600,120
38,65,162720,931
45,65,162720,931
50,74,162720,931
45,65,163680,820
38,65,163680,820
50,74,163680,820
45,45,165600,960
49,45,165600,960
55,54,165600,931
45,45,166560,960
49,45,166560,960
55,54,166560,960
38,33,168480,960
45,33,168480,960
50,39,168480,931
38,31,169440,815
45,31,169440,815
50,37,169440,815
45,60,170280,60
45,64,170400,120
45,59,170760,60
43,64,170880,120
45,60,171240,60
34,57,171360,931
46,68,171360,931
34,57,172320,815
46,68,172320,815
57,60,173160,60
57,64,173280,120
57,59,173640,60
55,64,173760,120
57,60,174120,60
53,57,174240,960
46,57,174240,931
58,68,174240,931
53,57,175200,815
46,57,175200,815
58,68,175200,815
62,51,176040,60
65,60,176040,60
62,54,176160,120
65,64,176160,120
62,50,176520,60
65,59,176520,60
61,54,176640,120
64,64,176640,120
62,51,177000,60
65,60,177000,60
58,54,177120,120
62,64,177120,120
58,50,177480,60
62,59,177480,60
57,54,177600,120
61,64,177600,120
58,51,177960,60
62,60,177960,60
55,54,178080,120
58,64,178080,120
58,59,178440,60
55,50,178440,60
57,64,178560,120
54,54,178560,120
58,60,178920,60
55,51,178920,60
51,57,179040,960
55,68,179040,931
38,57,180000,950
50,68,180000,950
36,57,180960,950
48,68,180960,950
41,57,181920,120
53,68,181920,120
41,57,182400,120
53,68,182400,120
34,57,182880,950
46,68,182880,950
46,57,183840,815
53,68,183840,815
46,55,185760,240
53,42,186240,240
62,42,186720,240
58,35,186720,240
46,55,187200,240
53,42,187680,240
58,35,188160,240
62,42,188160,240
45,55,188640,240
53,42,189120,240
63,42,189600,240
60,35,189600,240
45,55,190080,240
53,42,190560,240
60,35,191040,240
63,42,191040,240
41,55,191520,240
53,42,192000,240
63,42,192480,240
60,35,192480,240
41,55,192960,240
53,42,193440,240
60,35,193920,240
63,42,193920,240
46,49,194400,240
53,37,194880,240
62,37,195360,240
58,31,195360,240
46,55,195840,240
53,37,196320,240
62,38,196800,240
58,32,196800,240
43,60,197280,240
55,46,197760,240
62,46,198240,240
58,38,198240,240
43,55,198720,240
55,46,199200,240
58,37,199680,240
62,45,199680,240
46,55,200160,240
53,42,200640,240
62,42,201120,240
58,35,201120,240
46,55,201600,240
53,42,202080,240
62,42,202560,240
58,35,202560,240
41,55,203040,240
53,42,203520,240
60,33,204000,240
63,39,204000,240
41,52,204480,240
53,39,204960,240
63,39,205440,240
60,33,205440,240
46,44,205920,240
50,33,206400,240
58,33,206880,240
53,27,206880,240
41,49,207360,240
51,35,207840,240
57,35,208320,240
53,29,208320,240
46,41,208800,240
50,31,209280,240
58,31,209760,240
53,25,209760,240
41,46,210240,240
51,31,210720,240
57,30,211200,240
53,25,211200,240
46,34,211680,350
34,60,212040,60
34,64,212160,120
34,59,212520,60
34,64,212640,120
36,60,213000,60
38,67,213120,350
38,60,213480,60
38,64,213600,120
38,59,213960,60
38,64,214080,120
40,60,214440,60
41,73,214560,350
41,66,214920,60
41,70,215040,120
41,64,215400,60
41,70,215520,120
43,66,215880,60
45,80,216000,350
33,52,216360,60
45,61,216360,60
33,55,216480,120
45,65,216480,120
35,52,216840,60
47,61,216840,60
37,57,216960,120
49,67,216960,120
38,55,217320,60
50,65,217320,60
45,58,217440,960
40,58,217440,931
49,58,217440,931
52,70,217440,931
45,58,218400,815
40,58,218400,815
49,58,218400,815
52,70,218400,815
40,56,219240,120
52,66,219240,120
40,58,219360,332
52,69,219360,332
38,55,219720,120
50,65,219720,120
37,60,219840,332
49,72,219840,332
35,62,220200,120
47,74,220200,120
33,65,220320,931
45,74,220320,931
40,65,221280,820
33,65,221280,820
45,74,221280,820
45,48,222120,60
47,51,222240,120
45,47,222600,60
47,51,222720,120
49,48,223080,60
50,54,223200,931
50,45,224160,815
54,54,224160,815
50,44,225000,110
50,50,225120,120
47,42,225120,120
50,47,225480,120
47,40,225480,120
46,41,225594,120
50,49,225606,120
46,40,225960,120
50,47,225960,120
45,45,226080,931
52,54,226080,931
45,45,227040,815
57,54,227040,815
49,35,227880,110
57,44,227880,110
57,50,228000,120
49,42,228000,120
57,47,228360,120
49,40,228360,120
49,41,228480,120
57,49,228480,120
49,40,228840,120
57,47,228840,120
54,45,228960,960
47,45,228960,931
59,54,228960,931
50,45,229920,815
59,54,229920,815
52,35,230760,110
59,44,230760,110
59,50,230880,120
52,42,230880,120
59,47,231240,120
52,40,231240,120
52,41,231360,120
59,49,231360,120
52,40,231720,120
59,47,231720,120
52,45,231840,960
45,45,231840,931
57,54,231840,931
45,45,232800,950
52,45,232800,950
57,54,232800,950
50,45,233760,456
49,37,234240,466
47,67,234720,160
46,57,234880,160
47,57,235040,160
43,68,235200,160
42,61,235360,160
43,65,235520,160
40,74,235680,840
42,61,236520,120
43,69,236640,360
45,62,237000,120
47,70,237120,360
49,62,237480,120
45,69,237600,160
44,63,237760,160
45,59,237920,160
42,68,238080,160
41,65,238240,160
42,69,238400,160
38,74,238560,840
40,61,239400,120
42,69,239520,360
43,62,239880,120
45,70,240000,360
47,62,240360,120
43,70,240480,160
42,58,240640,160
43,58,240800,160
40,63,240960,160
39,65,241120,160
40,68,241280,160
37,72,241440,840
38,59,242280,120
40,73,242400,360
37,57,242760,120
41,71,242880,360
37,58,243240,120
42,71,243360,931
42,68,244320,815
46,61,245160,60
47,65,245280,120
46,61,245640,60
47,67,245760,120
46,65,246120,60
44,58,246240,960
49,70,246240,931
44,58,247200,815
49,70,247200,815
44,56,248040,120
49,66,248040,120
46,58,248160,332
49,69,248160,332
44,55,248520,120
49,65,248520,120
46,60,248640,332
49,72,248640,332
44,62,249000,120
49,74,249000,120
42,65,249120,931
49,74,249120,931
42,65,250080,820
49,74,250080,820
57,48,250920,60
57,51,251040,349
57,47,251400,60
59,51,251506,349
61,48,251880,60
62,54,252000,931
62,54,252960,815
62,44,253800,107
62,50,253920,120
62,47,254266,116
59,41,254400,120
62,49,254400,120
59,40,254760,120
62,47,254760,120
57,45,254880,931
64,54,254880,931
57,45,255840,815
61,54,255840,815
54,35,256680,107
61,44,256680,107
61,50,256800,120
54,42,256800,120
61,47,257146,116
54,40,257146,116
54,41,257280,120
62,49,257280,120
54,40,257640,120
64,47,257640,120
55,45,257760,960
62,54,257760,931
55,45,258720,815
59,54,258720,815
45,44,259560,110
45,50,259680,120
45,47,260040,120
45,49,260160,120
45,47,260520,120
50,54,260640,931
50,54,261600,950
50,45,262560,456
49,37,263040,466
47,67,263520,160
46,57,263680,160
47,57,263840,160
43,68,264000,160
42,61,264160,160
43,65,264320,160
40,74,264480,840
42,61,265320,120
43,69,265440,360
45,62,265800,120
47,70,265920,360
50,62,266280,120
49,69,266400,160
48,63,266560,160
49,59,266720,160
45,68,266880,160
44,65,267040,160
45,69,267200,160
42,74,267360,840
44,61,268200,120
45,69,268320,360
47,62,268680,120
49,70,268800,360
52,62,269160,120
50,70,269280,160
49,58,269440,160
50,58,269600,160
47,63,269760,160
46,65,269920,160
47,68,270080,160
43,72,270240,840
45,59,271080,120
47,73,271200,360
49,57,271560,120
50,71,271680,360
54,58,272040,120
52,85,272160,931
52,68,273120,815
57,81,273120,815
45,56,273960,120
57,66,273960,120
45,58,274080,332
57,69,274080,332
43,55,274440,120
55,65,274440,120
42,60,274560,332
54,72,274560,332
40,62,274920,120
52,74,274920,120
38,65,275040,931
45,65,275040,931
50,74,275040,931
45,65,276000,820
38,65,276000,820
50,74,276000,820
45,45,277920,931
49,45,277920,931
55,54,277920,931
45,45,278880,960
49,45,278880,960
55,54,278880,960
38,33,280800,960
45,33,280800,960
50,39,280800,931
38,31,281760,950
45,31,281760,950
50,37,281760,950
50,35,282720,456
50,32,283200,456
43,29,283680,951
50,29,283680,951
55,35,283680,951
43,29,284640,456
50,29,284640,456
55,35,284640,456
43,29,285120,456
50,29,285120,456
55,35,285120,456
43,28,285600,456
50,28,285600,456
55,33,285600,456
43,28,286080,456
50,28,286080,456
55,33,286080,456
43,29,286560,456
50,29,286560,456
55,35,286560,456
48,32,287040,465
50,32,287040,466
60,38,287040,465
50,29,287520,456
47,29,287520,456
59,35,287520,456
47,29,288000,456
50,29,288000,456
59,35,288000,456
47,27,288480,456
50,27,288480,456
59,32,288480,456
47,27,288960,456
50,27,288960,456
59,32,288960,456
47,29,289440,480
50,29,289440,480
59,35,289440,480
42,26,289920,466
50,26,289920,466
54,31,289920,466
45,26,290400,466
50,26,290400,466
57,31,290400,466
45,29,290880,466
50,29,290880,466
57,35,290880,466
43,28,291360,466
50,28,291360,466
55,33,291360,466
42,28,291840,466
50,28,291840,466
54,33,291840,466
42,29,292320,466
50,29,292320,466
54,35,292320,466
43,26,292800,466
50,26,292800,466
55,31,292800,466
43,26,293280,466
50,26,293280,466
55,31,293280,466
43,29,293760,466
50,29,293760,466
55,35,293760,466
42,33,294240,466
50,33,294240,466
54,40,294240,466
40,39,294720,466
50,39,294720,466
52,47,294720,466
38,43,295200,951
50,52,295200,951
38,34,296160,456
50,42,296160,456
38,34,296640,456
50,42,296640,456
38,33,297120,456
50,39,297120,456
40,33,297600,456
50,33,297600,456
52,39,297600,456
42,28,298080,456
50,28,298080,456
54,42,298080,456
45,36,298560,466
54,36,298560,466
57,50,298560,466
57,36,299040,456
50,36,299040,456
62,52,299040,456
50,51,299520,456
57,51,299520,456
62,60,299520,456
50,52,300000,456
57,52,300000,456
62,62,300000,456
50,54,300480,456
57,54,300480,456
62,64,300480,456
49,56,300960,456
58,56,300960,456
61,66,300960,456
49,47,301440,456
58,47,301440,456
61,56,301440,456
49,44,301920,456
58,44,301920,456
61,52,301920,456
49,37,302400,456
58,37,302400,456
61,44,302400,456
49,33,302880,456
58,33,302880,456
61,40,302880,456
49,29,303360,456
58,29,303360,456
61,36,303360,456
50,28,303840,466
57,28,303840,466
62,33,303840,466
52,25,304320,466
57,25,304320,466
64,30,304320,466
54,25,304800,466
57,25,304800,466
66,30,304800,466
47,29,305280,466
59,35,305280,466
45,25,305760,466
57,30,305760,466
42,25,306240,466
54,30,306240,466
45,31,306720,951
57,37,306720,951
50,26,307680,466
57,26,307680,466
62,31,307680,466
50,30,308160,466
57,30,308160,466
62,36,308160,466
50,35,308640,456
50,32,309120,456
43,29,309600,951
50,29,309600,951
55,35,309600,951
43,29,310560,456
50,29,310560,456
55,35,310560,456
43,29,311040,456
50,29,311040,456
55,35,311040,456
43,28,311520,456
50,28,311520,456
55,33,311520,456
43,28,312000,456
50,28,312000,456
55,33,312000,456
43,29,312480,456
50,29,312480,456
55,35,312480,456
48,32,312960,465
50,32,312960,466
60,38,312960,465
50,29,313440,456
47,29,313440,456
59,35,313440,456
47,29,313920,456
50,29,313920,456
59,35,313920,456
47,27,314400,456
50,27,314400,456
59,32,314400,456
47,27,314880,456
50,27,314880,456
59,32,314880,456
47,29,315360,480
50,29,315360,480
59,35,315360,480
42,26,315840,466
50,26,315840,466
54,31,315840,466
45,26,316320,466
50,26,316320,466
57,31,316320,466
45,29,316800,466
50,29,316800,466
57,35,316800,466
43,28,317280,466
50,28,317280,466
55,33,317280,466
42,28,317760,466
50,28,317760,466
54,33,317760,466
42,29,318240,466
50,29,318240,466
54,35,318240,466
43,26,318720,466
50,26,318720,466
55,31,318720,466
43,26,319200,466
50,26,319200,466
55,31,319200,466
43,29,319680,466
50,29,319680,466
55,35,319680,466
42,33,320160,466
50,33,320160,466
54,40,320160,466
40,39,320640,466
50,39,320640,466
52,47,320640,466
38,43,321120,951
50,52,321120,951
38,34,322080,456
50,42,322080,456
38,34,322560,456
50,42,322560,456
38,33,323040,456
50,39,323040,456
40,33,323520,456
50,33,323520,456
52,39,323520,456
42,30,324000,456
50,30,324000,456
54,46,324000,456
45,39,324480,466
54,39,324480,466
57,55,324480,466
57,40,324960,456
50,40,324960,456
62,58,324960,456
50,58,325440,456
57,58,325440,456
62,68,325440,456
50,60,325920,456
57,60,325920,456
62,71,325920,456
50,63,326400,456
57,63,326400,456
62,74,326400,456
49,62,326880,456
58,62,326880,456
61,74,326880,456
49,51,327360,456
58,51,327360,456
61,61,327360,456
49,47,327840,456
58,47,327840,456
61,56,327840,456
49,39,328320,456
58,39,328320,456
61,46,328320,456
49,34,328800,456
58,34,328800,456
61,41,328800,456
49,29,329280,456
58,29,329280,456
61,36,329280,456
50,28,329760,466
57,28,329760,466
62,33,329760,466
52,25,330240,466
57,25,330240,466
64,30,330240,466
54,25,330720,466
57,25,330720,466
66,30,330720,466
47,29,331200,466
59,35,331200,466
45,25,331680,466
57,30,331680,466
42,25,332160,466
54,30,332160,466
45,31,332640,951
57,37,332640,951
50,26,333600,466
57,26,333600,466
62,31,333600,466
50,30,334080,466
57,30,334080,466
62,36,334080,466
50,35,334560,456
62,35,334560,456
50,36,335040,456
62,36,335040,456
48,37,335520,951
55,37,335520,951
60,46,335520,951
48,29,336480,456
55,29,336480,456
60,35,336480,456
48,29,336960,456
55,29,336960,456
60,35,336960,456
48,28,337440,456
55,28,337440,456
60,33,337440,456
48,28,337920,456
55,28,337920,456
60,33,337920,456
48,29,338400,456
55,29,338400,456
60,35,338400,456
43,32,338880,465
55,38,338880,465
43,29,339360,456
40,29,339360,456
52,35,339360,456
40,29,339840,456
43,29,339840,456
52,35,339840,456
43,32,340320,456
55,38,340320,456
48,36,340800,456
55,36,340800,456
60,42,340800,456
51,44,341280,950
58,44,341280,950
63,53,341280,950
51,39,342240,456
58,39,342240,456
63,47,342240,456
51,39,342720,456
58,39,342720,456
63,47,342720,456
51,38,343200,456
58,38,343200,456
63,45,343200,456
51,38,343680,456
58,38,343680,456
63,45,343680,456
51,39,344160,456
58,39,344160,456
63,47,344160,456
46,44,344640,465
58,51,344640,465
43,39,345120,456
46,39,345120,456
55,47,345120,456
43,39,345600,456
46,39,345600,456
55,47,345600,456
46,42,346080,456
58,52,346080,456
51,46,346560,456
58,46,346560,456
63,57,346560,456
42,50,347040,950
49,50,347040,950
54,61,347040,950
42,45,348000,456
49,45,348000,456
54,53,348000,456
42,45,348480,456
49,45,348480,456
54,53,348480,456
42,43,348960,456
49,43,348960,456
54,51,348960,456
42,43,349440,456
49,43,349440,456
54,51,349440,456
42,45,349920,456
49,45,349920,456
54,53,349920,456
37,45,350400,465
49,53,350400,465
34,45,350880,456
46,53,350880,456
42,45,351360,456
54,53,351360,456
54,50,351840,480
44,50,351840,456
56,63,351840,456
46,57,352320,456
54,57,352320,456
58,71,352320,456
47,65,352800,950
54,65,352800,950
59,80,352800,950
47,58,353760,456
54,58,353760,456
59,69,353760,456
47,58,354240,456
54,58,354240,456
59,69,354240,456
47,56,354720,456
54,56,354720,456
59,66,354720,456
47,56,355200,456
54,56,355200,456
59,66,355200,456
31,65,355680,950
43,80,355680,950
31,58,356640,456
43,69,356640,456
35,58,357120,456
47,69,357120,456
38,52,357600,456
50,62,357600,456
43,48,358080,456
55,57,358080,456
36,46,358560,931
48,55,358560,931
36,27,359520,456
48,32,359520,456
36,23,360000,456
48,33,360000,456
36,23,360480,456
48,28,360480,456
36,23,360960,456
48,28,360960,456
36,30,361440,931
48,36,361440,931
36,23,362400,456
48,28,362400,456
36,29,362880,931
48,35,362880,931
36,21,363840,456
48,26,363840,456
36,28,364320,931
48,34,364320,931
36,21,365280,456
48,26,365280,456
36,25,365760,931
48,30,365760,931
36,22,366720,456
48,26,366720,456
36,23,367200,931
48,28,367200,931
36,21,368160,456
48,25,368160,456
36,23,368640,456
48,27,368640,456
36,21,369120,456
48,25,369120,456
36,21,369600,456
48,25,369600,456
36,23,370080,931
48,28,370080,931
36,21,371040,456
48,25,371040,456
36,23,371520,456
48,27,371520,456
36,21,372000,456
48,25,372000,456
36,21,372480,456
48,25,372480,456
35,23,372960,951
47,28,372960,951
47,28,373920,456
47,28,374400,456
47,26,374880,456
45,22,375360,456
47,26,375360,456
43,26,375840,456
47,26,375840,456
55,31,375840,456
48,28,376320,465
50,28,376320,466
60,34,376320,465
50,26,376800,456
47,26,376800,456
59,31,376800,456
47,26,377280,456
50,26,377280,456
59,31,377280,456
47,24,377760,456
50,24,377760,456
59,28,377760,456
47,24,378240,456
50,24,378240,456
59,28,378240,456
47,26,378720,480
50,26,378720,480
59,31,378720,480
42,23,379200,466
50,23,379200,466
54,27,379200,466
45,23,379680,466
50,23,379680,466
57,27,379680,466
45,26,380160,466
50,26,380160,466
57,31,380160,466
43,25,380640,466
50,25,380640,466
55,29,380640,466
42,25,381120,466
50,25,381120,466
54,29,381120,466
42,26,381600,466
50,26,381600,466
54,31,381600,466
43,26,382080,466
50,26,382080,466
55,31,382080,466
43,26,382560,466
50,26,382560,466
55,31,382560,466
43,29,383040,466
50,29,383040,466
55,35,383040,466
43,33,383520,466
50,33,383520,466
55,40,383520,466
45,39,384000,466
50,39,384000,466
57,47,384000,466
50,43,384480,950
47,43,384480,950
59,52,384480,951
50,34,385440,456
47,34,385440,456
59,42,385440,456
50,34,385920,456
47,34,385920,456
59,42,385920,456
50,33,386400,456
45,33,386400,456
57,39,386400,456
43,33,386880,456
50,33,386880,456
55,39,386880,456
47,28,387360,456
55,28,387360,456
59,42,387360,456
50,36,387840,466
59,36,387840,466
62,50,387840,466
62,36,388320,456
55,36,388320,456
67,52,388320,456
55,51,388800,456
62,51,388800,456
67,60,388800,456
55,52,389280,456
62,52,389280,456
67,62,389280,456
55,54,389760,456
62,54,389760,456
67,64,389760,456
54,56,390240,456
63,56,390240,456
66,66,390240,456
54,47,390720,456
63,47,390720,456
66,56,390720,456
54,44,391200,456
63,44,391200,456
66,52,391200,456
54,37,391680,456
63,37,391680,456
66,44,391680,456
54,33,392160,456
63,33,392160,456
66,40,392160,456
54,29,392640,456
63,29,392640,456
66,36,392640,456
55,28,393120,466
62,28,393120,466
67,33,393120,466
57,25,393600,466
62,25,393600,466
69,30,393600,466
59,25,394080,466
62,25,394080,466
71,30,394080,466
52,29,394560,466
64,35,394560,466
50,25,395040,466
62,30,395040,466
50,25,395520,456
47,25,395520,466
59,30,395520,466
50,31,396000,951
62,37,396000,951
55,26,396960,466
62,31,396960,466
55,30,397440,466
62,36,397440,466
50,35,397920,456
62,35,397920,456
50,36,398400,456
62,36,398400,456
48,36,398880,951
55,36,398880,951
60,44,398880,951
48,29,399840,456
55,29,399840,456
60,35,399840,456
48,29,400320,456
55,29,400320,456
60,35,400320,456
48,28,400800,456
55,28,400800,456
60,33,400800,456
48,28,401280,456
55,28,401280,456
60,33,401280,456
48,29,401760,456
55,29,401760,456
60,35,401760,456
43,32,402240,465
55,38,402240,465
43,29,402720,456
40,29,402720,456
52,35,402720,456
40,29,403200,456
43,29,403200,456
52,35,403200,456
43,32,403680,456
55,38,403680,456
48,36,404160,456
55,36,404160,456
60,42,404160,456
51,44,404640,950
58,44,404640,950
63,53,404640,950
51,39,405600,456
58,39,405600,456
63,47,405600,456
51,39,406080,456
58,39,406080,456
63,47,406080,456
51,38,406560,456
58,38,406560,456
63,45,406560,456
51,38,407040,456
58,38,407040,456
63,45,407040,456
51,39,407520,456
58,39,407520,456
63,47,407520,456
46,44,408000,465
58,51,408000,465
43,39,408480,456
46,39,408480,456
55,47,408480,456
43,39,408960,456
46,39,408960,456
55,47,408960,456
46,42,409440,456
58,52,409440,456
51,46,409920,456
58,46,409920,456
63,57,409920,456
42,50,410400,950
49,50,410400,950
54,61,410400,950
42,45,411360,456
49,45,411360,456
54,53,411360,456
42,45,411840,456
49,45,411840,456
54,53,411840,456
42,43,412320,456
49,43,412320,456
54,51,412320,456
42,43,412800,456
49,43,412800,456
54,51,412800,456
42,45,413280,456
49,45,413280,456
54,53,413280,456
37,45,413760,465
49,53,413760,465
34,45,414240,456
46,53,414240,456
42,45,414720,456
54,53,414720,456
54,50,415200,480
44,50,415200,456
56,63,415200,456
46,57,415680,456
54,57,415680,456
58,71,415680,456
47,65,416160,950
54,65,416160,950
59,80,416160,950
47,58,417120,456
54,58,417120,456
59,69,417120,456
47,58,417600,456
54,58,417600,456
59,69,417600,456
47,56,418080,456
54,56,418080,456
59,66,418080,456
47,56,418560,456
54,56,418560,456
59,66,418560,456
31,65,419040,950
43,80,419040,950
31,58,420000,456
43,69,420000,456
35,58,420480,456
47,69,420480,456
38,52,420960,456
50,62,420960,456
43,48,421440,456
55,57,421440,456
36,46,421920,931
48,55,421920,931
36,27,422880,456
48,32,422880,456
36,23,423360,456
48,33,423360,456
36,23,423840,456
48,28,423840,456
36,23,424320,456
48,28,424320,456
36,30,424800,931
48,36,424800,931
36,23,425760,456
48,28,425760,456
36,29,426240,931
48,35,426240,931
36,21,427200,456
48,26,427200,456
36,28,427680,931
48,34,427680,931
36,21,428640,456
48,26,428640,456
36,25,429120,931
48,30,429120,931
36,22,430080,456
48,26,430080,456
36,23,430560,931
48,28,430560,931
36,21,431520,456
48,25,431520,456
36,23,432000,456
48,27,432000,456
36,21,432480,456
48,25,432480,456
36,21,432960,456
48,25,432960,456
36,23,433440,931
48,28,433440,931
36,21,434400,456
48,25,434400,456
36,23,434880,456
48,27,434880,456
36,21,435360,456
48,25,435360,456
36,21,435840,456
48,25,435840,456
35,23,436320,951
47,28,436320,951
47,28,437280,456
47,28,437760,456
47,26,438240,456
45,22,438720,456
47,26,438720,456
43,26,439200,456
47,26,439200,456
55,31,439200,456
48,28,439680,465
50,28,439680,466
60,34,439680,465
50,26,440160,456
47,26,440160,456
59,31,440160,456
47,26,440640,456
50,26,440640,456
59,31,440640,456
47,24,441120,456
50,24,441120,456
59,28,441120,456
47,24,441600,456
50,24,441600,456
59,28,441600,456
47,26,442080,480
50,26,442080,480
59,31,442080,480
42,23,442560,466
50,23,442560,466
54,27,442560,466
45,23,443040,466
50,23,443040,466
57,27,443040,466
45,26,443520,466
50,26,443520,466
57,31,443520,466
43,25,444000,466
50,25,444000,466
55,29,444000,466
42,25,444480,466
50,25,444480,466
54,29,444480,466
42,26,444960,466
50,26,444960,466
54,31,444960,466
43,26,445440,466
50,26,445440,466
55,31,445440,466
43,26,445920,466
50,26,445920,466
55,31,445920,466
43,29,446400,466
50,29,446400,466
55,35,446400,466
43,33,446880,466
50,33,446880,466
55,40,446880,466
45,39,447360,466
50,39,447360,466
57,47,447360,466
50,43,447840,950
47,43,447840,950
59,52,447840,951
50,34,448800,456
47,34,448800,456
59,42,448800,456
50,34,449280,456
47,34,449280,456
59,42,449280,456
50,33,449760,456
45,33,449760,456
57,39,449760,456
43,33,450240,456
50,33,450240,456
55,39,450240,456
47,28,450720,456
55,28,450720,456
59,42,450720,456
50,36,451200,466
59,36,451200,466
62,50,451200,466
62,36,451680,456
55,36,451680,456
67,52,451680,456
55,51,452160,456
62,51,452160,456
67,60,452160,456
55,52,452640,456
62,52,452640,456
67,62,452640,456
55,54,453120,456
62,54,453120,456
67,64,453120,456
54,56,453600,456
63,56,453600,456
66,66,453600,456
54,47,454080,456
63,47,454080,456
66,56,454080,456
54,44,454560,456
63,44,454560,456
66,52,454560,456
54,37,455040,456
63,37,455040,456
66,44,455040,456
54,33,455520,456
63,33,455520,456
66,40,455520,456
54,29,456000,456
63,29,456000,456
66,36,456000,456
55,28,456480,466
62,28,456480,466
67,33,456480,466
57,25,456960,466
62,25,456960,466
69,30,456960,466
59,25,457440,466
62,25,457440,466
71,30,457440,466
52,29,457920,466
64,35,457920,466
50,25,458400,466
62,30,458400,466
50,25,458880,456
47,25,458880,466
59,30,458880,466
50,31,459360,951
62,37,459360,951
55,26,460320,466
62,31,460320,466
55,25,460800,466
62,30,460800,466
43,25,461280,456
43,25,461760,456
43,32,462240,951
43,25,463200,456
43,33,463680,456
43,50,464160,240
40,42,464400,240
42,47,464640,240
43,52,464880,240
45,53,465120,951
45,25,466080,456
45,33,466560,456
43,54,467040,240
40,43,467280,240
42,47,467520,240
43,50,467760,240
45,52,468000,951
45,24,468960,456
45,32,469440,456
43,50,469920,240
40,39,470160,240
42,45,470400,240
43,38,470640,240
45,41,470880,951
45,22,471840,456
45,28,472320,951
45,21,473280,456
45,27,473760,951
45,20,474720,456
45,25,475200,350
33,51,475560,60
45,60,475560,60
33,54,475680,360
45,64,475680,360
33,50,476040,60
45,59,476040,60
35,54,476160,360
47,64,476160,360
37,51,476520,60
49,60,476520,60
38,57,476640,931
45,57,476640,931
50,68,476640,931
38,57,477600,931
45,57,477600,931
50,68,477600,931
38,53,478560,480
50,63,478560,480
42,53,479040,480
54,63,479040,480
37,57,479520,931
45,57,479520,931
49,68,479520,931
37,57,480480,931
45,57,480480,931
49,68,480480,931
37,53,481440,466
49,63,481440,466
37,53,481920,480
49,63,481920,480
35,57,482400,931
42,57,482400,931
47,68,482400,931
35,57,483360,710
42,57,483360,710
47,68,483360,710
40,52,484080,120
52,62,484080,120
40,53,484320,120
52,63,484320,120
40,56,484560,120
52,66,484560,120
40,57,484800,120
52,68,484800,120
40,59,485040,120
52,70,485040,120
33,62,485280,931
45,73,485280,931
45,57,486240,931
52,68,486240,931
66,45,487200,480
62,37,487680,480
67,45,488160,480
71,39,488640,480
76,39,489120,480
61,44,489600,240
73,36,490080,480
67,36,490560,480
66,45,491040,480
69,39,491520,480
74,39,492000,480
59,44,492480,240
71,36,492960,480
66,36,493440,480
64,45,493920,480
67,39,494400,480
73,39,494880,480
52,44,495360,240
64,34,495840,480
65,32,496320,480
66,25,496800,931
73,30,496800,931
66,39,497760,720
73,47,497760,720
66,37,498720,432
73,44,498720,432
66,37,499200,432
73,44,499200,432
61,39,499680,931
71,47,499680,931
61,39,500640,950
71,47,500640,950
61,37,501600,432
71,44,501600,432
61,37,502080,432
71,44,502080,432
66,39,502560,931
70,47,502560,931
66,39,503520,830
70,47,503520,830
33,51,504360,60
45,60,504360,60
33,54,504480,360
45,64,504480,360
33,50,504840,60
45,59,504840,60
33,54,504960,360
45,64,504960,360
33,51,505320,60
45,60,505320,60
35,57,505440,931
47,68,505440,931
35,57,506400,931
47,68,506400,931
35,53,507360,480
47,63,507360,480
35,53,507840,480
47,63,507840,480
37,57,508320,931
45,57,508320,931
49,68,508320,931
37,57,509280,931
45,57,509280,931
49,68,509280,931
37,53,510240,466
49,63,510240,466
37,53,510720,480
49,63,510720,480
36,57,511200,931
48,68,511200,931
35,57,512160,710
47,68,512160,710
34,52,512880,120
46,62,512880,120
34,53,513120,120
46,63,513120,120
34,56,513360,120
46,66,513360,120
34,57,513600,120
46,68,513600,120
34,59,513840,120
46,70,513840,120
33,62,514080,931
45,73,514080,931
45,57,515040,931
52,68,515040,931
61,45,516000,480
57,37,516480,480
62,45,516960,480
66,39,517440,480
71,39,517920,480
56,44,518400,240
68,36,518880,480
62,36,519360,480
61,45,519840,480
64,39,520320,480
69,39,520800,480
54,44,521280,240
66,36,521760,480
61,36,522240,480
59,45,522720,480
62,39,523200,480
68,39,523680,480
47,44,524160,240
59,34,524640,480
60,32,525120,480
61,25,525600,931
68,30,525600,931
61,39,526560,950
68,47,526560,950
61,37,527520,432
68,44,527520,432
61,37,528000,432
68,44,528000,432
59,39,528480,931
64,39,528480,931
68,47,528480,931
59,39,529440,950
64,39,529440,830
68,47,529440,830
68,39,530280,120
69,44,530400,360
64,39,530400,465
68,41,530760,120
64,39,530880,465
69,43,530880,360
71,41,531240,120
64,47,531360,931
57,39,531360,931
57,39,532320,830
64,47,532320,830
45,60,533160,60
45,64,533280,120
45,59,533640,60
43,64,533760,120
45,60,534120,60
34,57,534240,931
46,68,534240,931
34,57,535200,815
46,68,535200,815
57,60,536040,60
57,64,536160,120
57,59,536520,60
55,64,536640,120
57,60,537000,60
53,57,537120,960
46,57,537120,931
58,68,537120,931
53,57,538080,815
46,57,538080,815
58,68,538080,815
62,51,538920,60
65,60,538920,60
62,54,539040,120
65,64,539040,120
62,50,539400,60
65,59,539400,60
61,54,539520,120
64,64,539520,120
62,51,539880,60
65,60,539880,60
58,54,540000,120
62,64,540000,120
58,50,540360,60
62,59,540360,60
57,54,540480,120
61,64,540480,120
58,51,540840,60
62,60,540840,60
55,54,540960,120
58,64,540960,120
58,59,541320,60
55,50,541320,60
57,64,541440,120
54,54,541440,120
58,60,541800,60
55,51,541800,60
51,57,541920,960
55,68,541920,931
38,57,542880,950
50,68,542880,950
36,57,543840,950
48,68,543840,950
41,57,544800,120
53,68,544800,120
41,57,545280,120
53,68,545280,120
34,57,545760,950
46,68,545760,950
46,57,546720,815
53,68,546720,815
46,55,548640,240
53,42,549120,240
62,42,549600,240
58,35,549600,240
46,55,550080,240
53,42,550560,240
58,35,551040,240
62,42,551040,240
45,55,551520,240
53,42,552000,240
63,42,552480,240
60,35,552480,240
45,55,552960,240
53,42,553440,240
60,35,553920,240
63,42,553920,240
41,55,554400,240
53,42,554880,240
63,42,555360,240
60,35,555360,240
41,55,555840,240
53,42,556320,240
60,35,556800,240
63,42,556800,240
46,49,557280,240
53,37,557760,240
62,37,558240,240
58,31,558240,240
46,55,558720,240
53,37,559200,240
62,38,559680,240
58,32,559680,240
43,60,560160,240
55,46,560640,240
62,46,561120,240
58,38,561120,240
43,55,561600,240
55,46,562080,240
58,37,562560,240
62,45,562560,240
46,55,563040,240
53,42,563520,240
62,42,564000,240
58,35,564000,240
46,55,564480,240
53,42,564960,240
62,42,565440,240
58,35,565440,240
41,55,565920,240
53,42,566400,240
60,33,566880,240
63,39,566880,240
41,52,567360,240
53,39,567840,240
63,39,568320,240
60,33,568320,240
46,44,568800,240
50,33,569280,240
58,33,569760,240
53,27,569760,240
41,49,570240,240
51,35,570720,240
57,35,571200,240
53,29,571200,240
46,41,571680,240
50,31,572160,240
58,31,572640,240
53,25,572640,240
41,46,573120,240
51,31,573600,240
57,30,574080,240
53,25,574080,240
46,34,574560,350
34,60,574920,60
34,64,575040,120
34,59,575400,60
34,64,575520,120
36,60,575880,60
38,67,576000,350
38,60,576360,60
38,64,576480,120
38,59,576840,60
38,64,576960,120
40,60,577320,60
41,73,577440,350
41,66,577800,60
41,70,577920,120
41,64,578280,60
41,70,578400,120
43,66,578760,60
45,80,578880,350
33,52,579240,60
45,61,579240,60
33,55,579360,120
45,65,579360,120
35,52,579720,60
47,61,579720,60
37,57,579840,120
49,67,579840,120
38,55,580200,60
50,65,580200,60
45,58,580320,960
40,58,580320,931
49,58,580320,931
52,70,580320,931
45,58,581280,815
40,58,581280,815
49,58,581280,815
52,70,581280,815
40,56,582120,120
52,66,582120,120
40,58,582240,332
52,69,582240,332
38,55,582600,120
50,65,582600,120
37,60,582720,332
49,72,582720,332
35,62,583080,120
47,74,583080,120
33,65,583200,931
45,74,583200,931
40,65,584160,820
33,65,584160,820
45,74,584160,820
45,48,585000,60
47,51,585120,360
45,47,585480,60
47,51,585600,360
49,48,585960,60
50,54,586080,931
50,45,587040,815
54,54,587040,815
50,44,587880,110
50,50,588000,120
47,42,588000,120
50,47,588360,120
47,40,588360,120
46,41,588474,120
50,49,588486,120
46,40,588840,120
50,47,588840,120
45,45,588960,931
52,54,588960,931
45,45,589920,815
57,54,589920,815
49,35,590760,110
57,44,590760,110
57,50,590880,120
49,42,590880,120
57,47,591240,120
49,40,591240,120
49,41,591360,120
57,49,591360,120
49,40,591720,120
57,47,591720,120
54,45,591840,960
47,45,591840,931
59,54,591840,931
50,45,592800,815
59,54,592800,815
52,35,593640,110
59,44,593640,110
59,50,593760,120
52,42,593760,120
59,47,594120,120
52,40,594120,120
52,41,594240,120
59,49,594240,120
52,40,594600,120
59,47,594600,120
52,45,594720,960
45,45,594720,931
57,54,594720,931
45,45,595680,950
52,45,595680,950
57,54,595680,950
50,45,596640,456
49,37,597120,466
47,67,597600,160
46,57,597760,160
47,57,597920,160
43,68,598080,160
42,61,598240,160
43,65,598400,160
40,74,598560,840
42,61,599400,120
43,69,599520,360
45,62,599880,120
47,70,600000,360
49,62,600360,120
45,69,600480,160
44,63,600640,160
45,59,600800,160
42,68,600960,160
41,65,601120,160
42,69,601280,160
38,74,601440,840
40,61,602280,120
42,69,602400,360
43,62,602760,120
45,70,602880,360
47,62,603240,120
43,70,603360,160
42,58,603520,160
43,58,603680,160
40,63,603840,160
39,65,604000,160
40,68,604160,160
37,72,604320,840
38,59,605160,120
40,73,605280,360
37,57,605640,120
41,71,605760,360
37,58,606120,120
42,71,606240,931
42,68,607200,815
46,61,608040,60
47,65,608160,120
46,61,608520,60
47,67,608640,120
46,65,609000,60
44,58,609120,960
49,70,609120,931
44,58,610080,815
49,70,610080,815
44,56,610920,120
49,66,610920,120
46,58,611040,332
49,69,611040,332
44,55,611400,120
49,65,611400,120
46,60,611520,332
49,72,611520,332
44,62,611880,120
49,74,611880,120
42,65,612000,931
49,74,612000,931
42,65,612960,820
49,74,612960,820
57,48,613800,60
57,51,613920,349
57,47,614280,60
59,51,614386,349
61,48,614760,60
62,54,614880,931
62,54,615840,815
62,44,616680,107
62,50,616800,120
62,47,617146,116
59,41,617280,120
62,49,617280,120
59,40,617640,120
62,47,617640,120
57,45,617760,931
64,54,617760,931
57,45,618720,815
61,54,618720,815
54,35,619560,107
61,44,619560,107
61,50,619680,120
54,42,619680,120
61,47,620026,116
54,40,620026,116
54,41,620160,120
62,49,620160,120
54,40,620520,120
64,47,620520,120
55,45,620640,960
62,54,620640,931
55,45,621600,815
59,54,621600,815
45,44,622440,110
45,50,622560,120
45,47,622920,120
45,49,623040,120
45,47,623400,120
50,54,623520,931
50,54,624480,950
50,45,625440,456
49,37,625920,456
47,67,626400,160
46,57,626560,160
47,57,626720,160
43,68,626880,160
42,61,627040,160
43,65,627200,160
40,74,627360,840
42,61,628200,120
43,69,628320,360
45,62,628680,120
47,70,628800,360
50,62,629160,120
49,69,629280,160
48,63,629440,160
49,59,629600,160
45,68,629760,160
44,65,629920,160
45,69,630080,160
42,74,630240,840
44,61,631080,120
45,69,631200,360
47,62,631560,120
49,70,631680,360
52,62,632040,120
50,70,632160,160
49,58,632320,160
50,58,632480,160
47,63,632640,160
46,65,632800,160
47,68,632960,160
43,72,633120,840
45,59,633960,120
47,73,634080,360
49,57,634440,120
50,71,634560,360
54,58,634920,120
52,85,635040,931
52,68,636000,815
57,81,636000,815
45,56,636840,120
57,66,636840,120
45,58,636960,332
57,69,636960,332
43,55,637320,120
55,65,637320,120
42,60,637440,332
54,72,637440,332
40,62,637800,120
52,74,637800,120
38,65,637920,931
45,65,637920,931
50,74,637920,931
45,65,638880,820
38,65,638880,820
50,74,638880,820
50,44,640800,240
57,33,641280,240
66,33,641760,240
62,28,641760,240
50,44,642240,240
57,33,642720,240
62,28,643200,240
66,33,643200,240
49,44,643680,240
57,33,644160,240
67,33,644640,240
64,28,644640,240
49,44,645120,240
57,33,645600,240
64,28,646080,240
67,33,646080,240
45,44,646560,240
57,33,647040,240
67,33,647520,240
64,28,647520,240
45,44,648000,240
57,33,648480,240
64,28,648960,240
67,33,648960,240
50,39,649440,240
57,29,649920,240
66,29,650400,240
62,24,650400,240
50,44,650880,240
57,29,651360,240
66,30,651840,240
62,25,651840,240
47,48,652320,240
59,36,652800,240
66,36,653280,240
62,30,653280,240
47,44,653760,240
59,36,654240,240
62,29,654720,240
66,36,654720,240
50,44,655200,240
57,33,655680,240
66,33,656160,240
62,28,656160,240
50,44,656640,240
57,33,657120,240
66,33,657600,240
62,28,657600,240
45,44,658080,240
57,33,658560,240
64,26,659040,240
67,31,659040,240
45,41,659520,240
57,31,660000,240
67,31,660480,240
64,26,660480,240
50,35,660960,240
54,26,661440,240
62,26,661920,240
57,21,661920,240
45,39,662400,240
55,27,662880,240
61,26,663360,240
57,22,663360,240
50,30,663840,240
54,22,664320,240
62,21,664800,240
57,17,664800,240
45,31,665280,240
55,20,665760,240
61,19,666240,240
57,16,666240,240
50,25,666720,240
54,19,667200,240
62,19,667680,240
57,16,667680,240
50,25,668160,240
54,19,668640,240
57,16,669120,240
62,19,669120,240
50,25,669600,240
54,19,670080,240
62,19,670560,240
57,16,670560,240
50,25,671040,240
54,19,671520,240
57,16,672000,240
62,19,672000,240
50,25,672480,240
62,24,673920,240
50,20,673920,240
57,20,673920,240
50,19,675360,1920
57,19,675360,1920
62,22,675360,1920
