note,velocity,position,duration
52,74,0,480
55,74,0,480
60,74,0,480
64,88,0,480
52,70,480,120
55,70,480,120
60,70,480,120
64,83,480,120
52,70,720,120
55,70,720,120
60,70,720,120
64,83,720,120
52,74,960,480
55,74,960,480
60,74,960,480
64,88,960,480
52,69,1440,120
55,69,1440,120
60,69,1440,120
64,82,1440,120
52,69,1680,120
55,69,1680,120
60,69,1680,120
64,82,1680,120
52,74,1920,240
55,74,1920,240
60,74,1920,240
64,88,1920,240
48,79,2160,120
52,81,2280,120
55,83,2400,120
60,85,2520,120
64,89,2640,120
67,91,2760,120
59,88,2880,480
71,88,2880,480
60,70,3360,120
72,84,3360,120
60,70,3600,120
72,84,3600,120
65,76,3840,240
67,76,3840,240
71,91,3840,240
73,91,3840,240
67,71,4320,240
65,71,4320,240
71,85,4320,240
74,85,4320,240
53,64,5760,480
55,64,5760,480
59,64,5760,480
62,76,5760,480
53,60,6240,120
55,60,6240,120
59,60,6240,120
62,72,6240,120
53,60,6480,120
55,60,6480,120
59,60,6480,120
62,72,6480,120
53,64,6720,480
55,64,6720,480
59,64,6720,480
62,76,6720,480
53,59,7200,120
55,59,7200,120
59,59,7200,120
62,71,7200,120
53,59,7440,120
55,59,7440,120
59,59,7440,120
62,71,7440,120
53,64,7680,240
55,64,7680,240
59,64,7680,240
62,76,7680,240
55,68,7920,120
59,70,8040,120
62,72,8160,120
65,74,8280,120
67,76,8400,120
71,78,8520,120
61,88,8640,480
73,88,8640,480
62,70,9120,120
74,83,9120,120
62,70,9360,120
74,83,9360,120
63,77,9600,240
67,77,9600,240
72,91,9600,240
75,91,9600,240
67,71,10080,240
64,71,10080,240
72,84,10080,240
76,84,10080,240
55,64,10800,120
60,66,10920,120
64,68,11040,120
67,70,11160,120
72,72,11280,120
76,74,11400,120
67,66,11520,480
76,66,11520,480
79,78,11520,480
67,58,12000,228
76,58,12000,228
79,70,12000,228
67,58,12240,228
76,58,12240,228
79,70,12240,228
67,65,12480,720
74,65,12480,720
79,78,12480,720
67,67,13200,240
74,67,13200,240
79,80,13200,240
72,74,13440,475
79,74,13440,475
84,88,13440,475
72,63,13920,228
78,63,13920,228
84,75,13920,228
72,61,14160,228
78,61,14160,228
84,73,14160,228
71,64,14400,240
79,64,14400,240
83,76,14400,240
55,64,14640,120
60,66,14760,120
64,68,14880,120
67,70,15000,120
72,72,15120,120
76,74,15240,120
67,66,15360,475
76,66,15360,475
79,78,15360,475
67,58,15840,240
76,58,15840,240
79,70,15840,240
67,58,16080,240
76,58,16080,240
79,70,16080,240
67,65,16320,720
74,65,16320,720
79,78,16320,720
67,67,17040,240
74,67,17040,240
79,80,17040,240
72,74,17280,475
79,74,17280,475
84,88,17280,475
72,63,17760,228
78,63,17760,228
84,75,17760,228
72,61,18000,228
78,61,18000,228
84,73,18000,228
71,64,18240,240
79,64,18240,240
83,76,18240,240
60,64,18480,120
65,66,18600,120
69,68,18720,120
72,70,18840,120
77,72,18960,120
81,74,19080,120
72,72,19200,475
81,72,19200,475
84,85,19200,475
72,63,19680,228
81,63,19680,228
84,77,19680,228
72,63,19920,228
81,63,19920,228
84,77,19920,228
72,71,20160,720
79,71,20160,720
84,85,20160,720
72,73,20880,240
79,73,20880,240
84,88,20880,240
77,81,21120,475
84,81,21120,475
89,96,21120,475
77,75,21600,228
83,75,21600,228
89,90,21600,228
77,73,21840,228
83,73,21840,228
89,88,21840,228
76,76,22080,475
83,76,22080,475
88,92,22080,475
88,88,22560,475
81,73,22560,475
76,73,22560,475
74,81,23040,480
81,81,23040,480
86,95,23040,480
74,74,23520,228
80,74,23520,228
86,88,23520,228
74,71,23760,228
80,71,23760,228
86,85,23760,228
72,74,24000,480
81,74,24000,480
84,89,24000,480
81,67,24480,480
72,56,24480,480
69,56,24480,480
69,35,24960,120
76,42,24960,120
81,44,25080,120
69,38,25200,120
76,45,25200,120
81,47,25320,120
69,41,25440,120
76,49,25440,120
81,51,25560,120
69,45,25680,120
76,53,25680,120
81,54,25800,120
69,47,25920,120
76,56,25920,120
81,58,26040,120
69,51,26160,120
76,60,26160,120
81,62,26280,120
69,53,26400,120
76,63,26400,120
81,65,26520,120
69,56,26640,120
76,67,26640,120
81,69,26760,120
69,62,26880,120
75,73,26880,120
81,74,27000,120
69,63,27120,120
75,75,27120,120
81,76,27240,120
69,66,27360,120
75,78,27360,120
81,80,27480,120
69,69,27600,120
75,81,27600,120
81,83,27720,120
69,71,27840,120
75,85,27840,120
81,86,27960,120
69,74,28080,120
75,87,28080,120
81,89,28200,120
69,77,28320,240
75,90,28320,240
81,90,28320,240
69,78,28560,240
75,93,28560,240
81,93,28560,240
69,84,28800,120
75,84,28800,120
81,100,28800,120
71,75,29040,120
75,75,29040,120
83,90,29040,120
81,90,29040,120
71,75,29280,120
75,75,29280,120
81,90,29280,120
83,90,29280,120
71,75,29520,120
75,75,29520,120
81,90,29520,120
83,90,29520,120
71,75,29760,120
75,75,29760,120
81,90,29760,120
83,90,29760,120
71,75,30000,120
75,75,30000,120
81,90,30000,120
83,90,30000,120
71,75,30240,120
75,75,30240,120
81,90,30240,120
83,90,30240,120
71,75,30480,120
75,75,30480,120
81,90,30480,120
83,90,30480,120
71,85,30720,240
76,85,30720,240
80,85,30720,240
83,101,30720,240
88,102,31200,240
83,86,31200,240
80,86,31200,240
76,86,31200,240
52,29,32640,475
55,29,32640,475
60,29,32640,475
64,36,32640,475
52,28,33120,120
55,28,33120,120
60,28,33120,120
64,34,33120,120
52,28,33360,120
55,28,33360,120
60,28,33360,120
64,34,33360,120
52,29,33600,475
55,29,33600,475
60,29,33600,475
64,36,33600,475
52,27,34080,120
55,27,34080,120
60,27,34080,120
64,33,34080,120
52,27,34320,120
55,27,34320,120
60,27,34320,120
64,33,34320,120
52,29,34560,240
55,29,34560,240
60,29,34560,240
64,36,34560,240
48,32,34800,120
52,33,34920,120
55,34,35040,120
60,35,35160,120
64,36,35280,120
67,37,35400,120
59,36,35520,480
71,36,35520,480
60,28,36000,120
72,34,36000,120
60,28,36240,120
72,34,36240,120
65,31,36480,240
67,31,36480,240
71,37,36480,240
73,37,36480,240
67,28,36960,240
65,28,36960,240
71,35,36960,240
74,35,36960,240
77,35,37440,960
79,35,37440,960
86,35,37440,960
83,35,37440,960
53,25,38400,475
55,25,38400,475
59,25,38400,475
62,31,38400,475
53,24,38880,120
55,24,38880,120
59,24,38880,120
62,28,38880,120
53,24,39120,120
55,24,39120,120
59,24,39120,120
62,28,39120,120
53,25,39360,475
55,25,39360,475
59,25,39360,475
62,31,39360,475
53,23,39840,120
55,23,39840,120
59,23,39840,120
62,28,39840,120
53,23,40080,120
55,23,40080,120
59,23,40080,120
62,28,40080,120
53,25,40320,240
55,25,40320,240
59,25,40320,240
62,31,40320,240
55,27,40560,120
59,28,40680,120
62,28,40800,120
65,29,40920,120
67,31,41040,120
71,32,41160,120
61,36,41280,480
73,36,41280,480
62,28,41760,120
74,34,41760,120
62,28,42000,120
74,34,42000,120
63,31,42240,240
67,31,42240,240
72,37,42240,240
75,37,42240,240
67,28,42720,240
64,28,42720,240
72,34,42720,240
76,34,42720,240
76,35,43200,960
79,35,43200,960
88,35,43200,960
84,35,43200,960
55,27,44400,120
60,28,44520,120
64,28,44640,120
67,29,44760,120
72,31,44880,120
76,32,45000,120
72,30,45120,360
67,30,45120,360
79,37,45120,360
65,29,45600,240
72,29,45600,240
77,36,45600,240
84,35,46080,960
77,28,46080,960
57,24,47280,120
60,25,47400,120
65,25,47520,120
69,26,47640,120
72,27,47760,120
77,27,47880,120
72,26,48000,360
69,26,48000,360
81,32,48000,360
67,26,48480,240
72,26,48480,240
79,32,48480,240
72,25,48960,1920
84,31,48960,1920
79,25,48960,1920
60,76,51120,120
64,78,51240,120
67,80,51360,120
72,82,51480,120
76,84,51600,120
79,86,51720,120
72,79,51840,960
77,79,51840,960
80,79,51840,960
84,93,51840,960
71,77,52800,960
77,77,52800,960
83,91,52800,960
79,77,52800,960
72,78,53760,480
84,92,53760,480
79,78,53760,480
76,76,54240,480
88,90,54240,480
81,76,54240,480
78,76,54240,480
74,79,54720,240
86,94,54720,240
83,79,54720,240
79,79,54720,240
62,76,54960,120
67,79,55080,120
71,82,55200,120
74,85,55320,120
79,88,55440,120
83,91,55560,120
72,79,55680,960
77,79,55680,960
80,79,55680,960
84,93,55680,960
71,77,56640,960
77,77,56640,960
83,91,56640,960
79,77,56640,960
72,78,57600,480
84,92,57600,480
79,78,57600,480
76,76,58080,480
88,90,58080,480
81,76,58080,480
78,76,58080,480
74,79,58560,240
86,94,58560,240
83,79,58560,240
79,79,58560,240
67,76,58800,120
71,79,58920,120
74,82,59040,120
79,85,59160,120
83,88,59280,120
86,91,59400,120
79,79,59520,960
82,79,59520,960
85,79,59520,960
91,93,59520,960
88,89,61440,120
91,82,61560,120
88,82,61680,120
85,82,61800,120
82,86,61920,120
79,75,62040,120
76,75,62160,120
73,75,62280,120
76,81,62400,120
79,73,62520,120
76,73,62640,120
73,73,62760,120
70,80,62880,120
67,74,63000,120
64,74,63120,120
61,74,63240,120
64,77,63360,120
67,58,63480,120
64,58,63600,120
61,58,63720,120
64,64,63840,120
67,53,63960,120
64,52,64080,120
61,52,64200,120
64,57,64320,120
67,48,64440,120
64,48,64560,120
61,48,64680,120
64,54,64800,120
67,46,64920,120
64,46,65040,120
61,46,65160,120
62,50,65280,120
67,41,65400,120
62,41,65520,120
55,41,65640,120
62,49,65760,120
67,41,65880,120
62,41,66000,120
55,41,66120,120
62,48,66240,120
67,41,66360,120
62,41,66480,120
55,41,66600,120
62,48,66720,120
67,41,66840,120
62,40,66960,120
55,40,67080,120
59,55,67200,480
64,41,67320,120
71,41,67440,120
64,41,67560,120
59,53,67680,480
64,41,67800,120
71,41,67920,120
64,41,68040,120
59,52,68160,480
64,41,68280,120
71,41,68400,120
64,41,68520,120
57,52,68640,480
64,41,68760,120
69,40,68880,120
64,40,69000,120
59,50,69120,120
62,41,69240,120
69,41,69360,120
62,41,69480,120
59,49,69600,120
62,41,69720,120
67,41,69840,120
62,41,69960,120
60,48,70080,120
62,41,70200,120
67,41,70320,120
62,41,70440,120
60,48,70560,120
62,41,70680,120
66,40,70800,120
62,40,70920,120
79,79,71040,960
82,79,71040,960
85,79,71040,960
91,93,71040,960
88,89,72960,120
91,82,73080,120
88,82,73200,120
85,82,73320,120
82,86,73440,120
79,75,73560,120
76,75,73680,120
73,75,73800,120
76,81,73920,120
79,73,74040,120
76,73,74160,120
73,73,74280,120
70,80,74400,120
67,74,74520,120
64,74,74640,120
61,74,74760,120
64,77,74880,120
67,58,75000,120
64,58,75120,120
61,58,75240,120
64,64,75360,120
67,53,75480,120
64,52,75600,120
61,52,75720,120
64,57,75840,120
67,48,75960,120
64,48,76080,120
61,48,76200,120
64,54,76320,120
67,46,76440,120
64,46,76560,120
61,46,76680,120
64,50,76800,120
67,41,76920,120
64,41,77040,120
55,41,77160,120
64,49,77280,120
67,41,77400,120
64,41,77520,120
55,41,77640,120
64,48,77760,120
67,41,77880,120
64,41,78000,120
55,41,78120,120
64,48,78240,120
67,41,78360,120
64,40,78480,120
55,40,78600,120
59,55,78720,480
64,41,78840,120
71,41,78960,120
64,41,79080,120
59,53,79200,480
64,41,79320,120
71,41,79440,120
64,41,79560,120
59,52,79680,480
64,41,79800,120
71,41,79920,120
64,41,80040,120
57,52,80160,480
64,41,80280,120
69,40,80400,120
64,40,80520,120
59,34,80640,120
62,34,80760,120
69,40,80880,480
62,34,81000,120
59,32,81120,120
62,34,81240,120
69,40,81360,480
62,33,81480,120
59,32,81600,120
62,33,81720,120
69,39,81840,480
62,33,81960,120
59,32,82080,120
62,33,82200,120
67,39,82320,480
62,33,82440,120
60,33,82560,120
62,33,82680,120
67,39,82800,480
62,33,82920,120
60,31,83040,120
62,33,83160,120
66,39,83280,480
62,33,83400,120
60,34,83520,120
62,35,83640,120
64,40,83760,480
62,34,83880,120
60,35,84000,120
62,34,84120,120
66,40,84240,240
62,34,84360,120
59,40,84480,240
71,40,84480,240
71,47,84720,456
71,47,85200,456
71,47,85680,456
71,44,86160,456
72,50,86640,480
71,48,87120,480
70,48,87600,480
69,45,88080,240
56,30,88320,475
68,36,88320,475
56,27,88800,228
68,34,88800,228
56,27,89040,228
68,34,89040,228
56,30,89280,475
68,36,89280,475
56,27,89760,228
68,33,89760,228
56,27,90000,228
68,33,90000,228
56,30,90240,240
68,36,90240,240
59,27,90480,240
71,34,90480,240
57,27,90720,480
69,34,90720,480
57,30,92160,475
69,36,92160,475
57,27,92640,228
69,34,92640,228
57,27,92880,228
69,34,92880,228
57,30,93120,475
69,36,93120,475
57,27,93600,228
69,33,93600,228
57,27,93840,228
69,33,93840,228
58,30,94080,240
70,36,94080,240
61,27,94320,240
73,34,94320,240
59,27,94560,720
71,34,94560,720
64,30,95280,240
76,43,95280,240
66,33,95520,240
78,47,95520,240
76,52,95760,480
68,36,95760,240
80,52,95760,240
69,41,96000,1200
81,59,96000,1200
75,54,96240,240
73,51,96480,240
71,50,96720,240
71,46,96960,960
68,27,97200,240
80,40,97200,240
69,27,97440,240
78,40,97440,240
71,27,97680,240
76,40,97680,240
71,34,97920,480
76,47,97920,240
75,41,98160,240
70,29,98400,480
75,44,98400,240
73,36,98640,240
71,36,98880,240
83,39,99120,240
71,27,99120,240
70,26,99360,240
82,36,99360,240
69,25,99600,240
81,36,99600,240
68,30,99840,475
80,36,99840,475
68,27,100320,228
80,34,100320,228
68,27,100560,228
80,34,100560,228
68,30,100800,475
80,36,100800,475
68,27,101280,228
80,33,101280,228
68,27,101520,228
80,33,101520,228
68,30,101760,240
80,36,101760,240
71,27,102000,240
83,34,102000,240
69,27,102240,480
81,34,102240,480
69,30,103680,475
81,36,103680,475
69,27,104160,228
81,34,104160,228
69,27,104400,228
81,34,104400,228
69,30,104640,475
81,36,104640,475
69,27,105120,228
81,33,105120,228
69,27,105360,228
81,33,105360,228
70,30,105600,240
82,36,105600,240
72,27,105840,240
84,34,105840,240
71,27,106080,720
83,34,106080,720
71,45,107520,240
83,45,107520,240
74,40,107760,240
86,40,107760,240
72,41,108000,480
84,41,108000,480
76,54,108480,720
88,54,108480,720
72,43,109200,240
84,43,109200,240
70,45,109440,240
82,45,109440,240
72,40,109680,240
84,40,109680,240
71,41,109920,480
83,41,109920,480
76,54,110400,720
88,54,110400,720
71,43,111120,240
83,43,111120,240
69,39,111360,240
81,46,111360,240
71,41,111600,240
83,49,111600,240
72,51,111840,240
84,51,111840,240
69,39,112080,240
81,46,112080,240
67,37,112320,240
79,45,112320,240
70,39,112560,240
82,46,112560,240
71,41,112800,240
83,49,112800,240
67,37,113040,240
79,45,113040,240
66,36,113280,960
75,36,113280,960
78,43,113280,960
57,39,115200,240
69,46,115200,240
59,41,115440,240
71,49,115440,240
60,51,115680,240
72,51,115680,240
57,39,115920,240
69,46,115920,240
55,37,116160,240
67,45,116160,240
58,39,116400,240
70,46,116400,240
59,41,116640,240
71,49,116640,240
55,37,116880,240
67,45,116880,240
54,36,117120,960
63,36,117120,960
66,43,117120,960
62,40,118320,240
66,40,118320,240
61,42,118560,240
64,42,118560,240
66,42,118560,240
59,44,118800,240
62,44,118800,240
66,44,118800,240
56,45,119040,720
66,45,119040,480
65,44,119520,240
57,45,119760,240
61,45,119760,240
66,45,119760,240
61,47,120000,480
65,47,120000,480
68,47,120000,480
61,47,120480,240
66,47,120480,240
69,47,120480,240
61,47,120720,240
65,47,120720,240
73,47,120720,240
61,51,120960,720
66,51,120960,720
71,51,120960,480
69,45,121440,240
59,45,121680,240
61,45,121680,240
68,45,121680,240
57,49,121920,720
61,49,121920,720
66,49,121920,720
56,45,122640,240
64,45,122640,240
54,46,122880,720
64,46,122880,480
63,45,123360,240
56,45,123600,240
59,45,123600,240
64,45,123600,240
59,49,123840,480
63,49,123840,480
66,49,123840,480
59,43,124320,240
64,43,124320,240
68,43,124320,240
59,43,124560,240
63,43,124560,240
71,43,124560,240
59,47,124800,720
64,47,124800,720
69,47,124800,480
68,39,125280,240
57,37,125520,240
59,37,125520,240
66,37,125520,240
56,43,125760,480
59,43,125760,480
64,43,125760,480
56,36,126240,480
59,36,126240,480
64,36,126240,480
60,30,126720,120
64,36,126720,120
55,30,126840,120
60,31,126960,120
64,36,126960,120
55,32,127080,120
60,32,127200,120
64,38,127200,120
55,33,127320,120
60,34,127440,120
64,40,127440,120
55,34,127560,120
60,35,127680,120
64,41,127680,120
55,34,127800,120
60,36,127920,120
64,44,127920,120
55,37,128040,120
60,38,128160,120
64,46,128160,120
55,37,128280,120
60,39,128400,120
64,46,128400,120
55,40,128520,120
64,41,128640,120
67,49,128640,120
60,41,128760,120
64,42,128880,120
67,50,128880,120
60,43,129000,120
64,44,129120,120
67,52,129120,120
60,44,129240,120
64,46,129360,120
67,54,129360,120
60,44,129480,120
67,48,129600,120
72,57,129600,120
64,48,129720,120
67,49,129840,120
72,57,129840,120
64,48,129960,120
67,50,130080,120
72,59,130080,120
64,49,130200,120
67,52,130320,120
72,61,130320,120
64,51,130440,120
72,53,130560,120
76,63,130560,120
67,52,130680,120
72,55,130800,120
76,65,130800,120
67,53,130920,120
76,57,131040,120
79,67,131040,120
72,56,131160,120
76,58,131280,120
79,68,131280,120
72,57,131400,120
84,71,131520,120
79,60,131520,120
76,59,131640,120
79,61,131760,120
84,72,131760,120
76,62,131880,120
88,75,132000,120
84,63,132000,120
79,62,132120,120
88,77,132240,120
84,65,132240,120
79,64,132360,120
76,74,132480,475
79,74,132480,475
84,74,132480,475
88,88,132480,475
76,70,132960,228
79,70,132960,228
84,70,132960,228
88,83,132960,228
76,70,133200,228
79,70,133200,228
84,70,133200,228
88,83,133200,228
76,74,133440,475
79,74,133440,475
84,74,133440,475
88,88,133440,475
76,69,133920,228
79,69,133920,228
84,69,133920,228
88,82,133920,228
76,69,134160,228
79,69,134160,228
84,69,134160,228
88,82,134160,228
76,74,134400,240
79,74,134400,240
84,74,134400,240
88,88,134400,240
67,76,136320,240
71,76,136320,240
77,91,136320,240
79,91,136320,240
59,71,136800,240
55,71,136800,240
65,85,136800,240
67,85,136800,240
77,74,138240,475
79,74,138240,475
83,74,138240,475
86,88,138240,475
77,70,138720,228
79,70,138720,228
83,70,138720,228
86,83,138720,228
77,70,138960,228
79,70,138960,228
83,70,138960,228
86,83,138960,228
77,74,139200,475
79,74,139200,475
83,74,139200,475
86,88,139200,475
77,69,139680,228
79,69,139680,228
83,69,139680,228
86,82,139680,228
77,69,139920,228
79,69,139920,228
83,69,139920,228
86,82,139920,228
77,74,140160,240
79,74,140160,240
83,74,140160,240
86,88,140160,240
67,79,142080,240
72,79,142080,240
79,95,142080,240
60,74,142560,240
55,74,142560,240
67,89,142560,240
55,64,143280,120
60,66,143400,120
64,68,143520,120
67,70,143640,120
72,72,143760,120
76,74,143880,120
67,66,144000,475
76,66,144000,475
79,78,144000,475
67,58,144480,228
76,58,144480,228
79,70,144480,228
67,58,144720,228
76,58,144720,228
79,70,144720,228
67,65,144960,720
74,65,144960,720
79,78,144960,720
67,67,145680,240
74,67,145680,240
79,80,145680,240
72,74,145920,480
79,74,145920,480
84,88,145920,480
72,63,146400,240
78,63,146400,240
84,75,146400,240
72,61,146640,240
78,61,146640,240
84,73,146640,240
71,64,146880,240
79,64,146880,240
83,76,146880,240
55,64,147120,120
60,66,147240,120
64,68,147360,120
67,70,147480,120
72,72,147600,120
76,74,147720,120
67,66,147840,475
76,66,147840,475
79,78,147840,475
67,58,148320,228
76,58,148320,228
79,70,148320,228
67,58,148560,228
76,58,148560,228
79,70,148560,228
67,65,148800,720
74,65,148800,720
79,78,148800,720
67,67,149520,240
74,67,149520,240
79,80,149520,240
72,74,149760,480
79,74,149760,480
84,88,149760,480
72,63,150240,480
78,63,150240,480
84,75,150240,480
71,64,150720,240
79,64,150720,240
83,76,150720,240
60,64,150960,120
65,66,151080,120
69,68,151200,120
72,70,151320,120
77,72,151440,120
81,74,151560,120
72,72,151680,475
81,72,151680,475
84,85,151680,475
72,63,152160,228
81,63,152160,228
84,77,152160,228
72,63,152400,228
81,63,152400,228
84,77,152400,228
72,71,152640,720
79,71,152640,720
84,85,152640,720
72,73,153360,240
79,73,153360,240
84,88,153360,240
77,81,153600,475
84,81,153600,475
89,96,153600,475
77,75,154080,228
83,75,154080,228
89,90,154080,228
77,66,154320,228
83,66,154320,228
89,78,154320,228
76,76,154560,475
83,76,154560,475
88,92,154560,475
88,84,155040,480
81,70,155040,480
76,70,155040,480
74,78,155520,240
81,78,155520,240
86,92,155520,240
74,78,155760,240
80,78,155760,240
86,78,155760,240
72,73,156000,480
81,73,156000,480
84,87,156000,480
81,76,156480,480
71,76,156480,480
77,76,156480,480
83,92,156480,480
80,74,156960,420
83,89,156960,420
76,74,156960,420
71,74,156960,420
81,82,157380,60
93,92,157440,240
91,82,157680,120
89,82,157800,120
88,81,157920,120
86,81,158040,120
84,80,158160,120
83,79,158280,120
81,79,158400,120
79,78,158520,120
77,78,158640,120
76,77,158760,120
74,77,158880,120
72,75,159000,120
71,74,159120,120
69,74,159240,120
68,71,159360,120
65,64,159480,120
64,64,159600,120
62,64,159720,120
68,63,159840,120
65,57,159960,120
64,57,160080,120
62,57,160200,120
68,67,160320,120
65,58,160440,120
64,58,160560,120
62,58,160680,120
68,64,160800,120
65,59,160920,120
64,59,161040,120
62,59,161160,60
83,81,161220,60
95,92,161280,240
93,82,161520,120
92,82,161640,120
89,81,161760,120
88,81,161880,120
86,80,162000,120
84,79,162120,120
83,79,162240,120
81,78,162360,120
80,78,162480,120
77,77,162600,120
76,77,162720,120
74,75,162840,120
72,74,162960,120
71,74,163080,120
69,71,163200,120
63,64,163320,120
64,64,163440,120
57,64,163560,120
69,63,163680,120
63,57,163800,120
64,57,163920,120
57,57,164040,120
69,67,164160,120
63,58,164280,120
64,58,164400,120
57,58,164520,120
69,64,164640,120
63,59,164760,120
64,59,164880,120
57,59,165000,120
70,67,165120,120
64,61,165240,120
65,61,165360,120
58,61,165480,120
70,60,165600,120
64,53,165720,120
65,53,165840,120
58,53,165960,120
70,59,166080,120
64,51,166200,120
65,51,166320,120
58,51,166440,120
70,58,166560,120
64,52,166680,120
65,52,166800,120
58,52,166920,120
73,53,167040,120
66,47,167160,120
67,47,167280,120
61,48,167400,120
74,54,167520,120
68,48,167640,120
69,48,167760,120
62,49,167880,120
76,55,168000,120
70,49,168120,120
71,49,168240,120
64,49,168360,120
77,56,168480,120
71,49,168600,120
72,49,168720,120
65,50,168840,120
80,57,168960,120
75,52,169080,120
76,53,169200,120
68,54,169320,120
81,59,169440,120
75,52,169560,120
76,53,169680,120
69,53,169800,120
83,66,169920,120
75,54,170040,120
81,53,170160,120
71,52,170280,120
84,57,170400,120
76,49,170520,120
80,48,170640,120
72,48,170760,120
81,66,170880,475
93,79,170880,475
81,62,171360,228
93,73,171360,228
81,62,171600,228
93,73,171600,228
81,66,171840,475
93,79,171840,475
81,62,172320,228
93,73,172320,228
81,61,172560,228
93,72,172560,228
81,66,172800,240
93,79,172800,240
78,62,173040,240
90,73,173040,240
79,64,173280,480
91,76,173280,480
45,97,173760,960
79,66,174720,475
91,79,174720,475
79,62,175200,228
91,73,175200,228
79,62,175440,228
91,73,175440,228
79,66,175680,475
91,79,175680,475
79,62,176160,228
91,73,176160,228
79,61,176400,228
91,72,176400,228
79,66,176640,240
91,79,176640,240
76,62,176880,240
88,73,176880,240
77,64,177120,480
89,76,177120,480
45,97,177600,960
77,62,178560,240
89,75,178560,240
75,58,178800,240
87,68,178800,240
76,58,179040,480
88,69,179040,480
45,86,179520,960
76,54,180480,240
88,65,180480,240
73,50,180720,240
85,59,180720,240
74,51,180960,480
86,60,180960,480
45,74,181440,960
74,48,182400,240
86,58,182400,240
71,45,182640,240
83,53,182640,240
72,45,182880,480
84,54,182880,480
81,56,183360,240
69,47,183360,240
71,50,183600,240
83,59,183600,240
72,52,183840,240
84,62,183840,240
74,55,184080,240
86,65,184080,240
88,68,184320,480
76,57,184320,480
74,56,184800,360
86,66,184800,360
72,46,185160,120
84,55,185160,120
84,61,185280,480
72,51,185280,480
71,47,185760,480
83,56,185760,480
68,50,186240,480
80,59,186240,480
69,47,186720,240
81,56,186720,240
81,56,187210,240
69,47,187210,240
71,50,187450,240
83,59,187450,240
72,52,187690,240
84,62,187690,240
74,55,187930,240
86,65,187930,240
88,68,188170,480
76,57,188170,480
74,56,188650,360
86,66,188650,360
72,46,189010,120
84,55,189010,120
84,61,189130,480
72,51,189130,480
71,47,189610,480
83,56,189610,480
81,69,190080,120
75,61,190200,120
76,61,190320,120
69,61,190440,120
69,66,190560,120
63,61,190680,120
64,61,190800,120
57,61,190920,120
82,69,191040,120
76,62,191160,120
77,62,191280,120
70,62,191400,120
70,66,191520,120
64,62,191640,120
65,62,191760,120
58,63,191880,120
85,72,192000,120
78,63,192120,120
79,64,192240,120
73,64,192360,120
73,70,192480,120
66,64,192600,120
67,63,192720,120
61,63,192840,120
86,75,192960,120
80,63,193080,120
81,64,193200,120
74,64,193320,120
74,69,193440,120
68,64,193560,120
69,64,193680,120
62,64,193800,120
89,76,193920,120
85,65,194040,120
86,65,194160,120
77,65,194280,120
89,71,194400,120
85,66,194520,120
86,66,194640,120
77,66,194760,120
89,70,194880,120
85,61,195000,120
86,61,195120,120
77,61,195240,120
80,64,195360,120
83,58,195480,120
86,58,195600,120
89,58,195720,120
88,61,195840,480
76,51,195840,480
74,50,196320,360
86,59,196320,360
72,41,196680,120
84,49,196680,120
84,54,196800,480
72,45,196800,480
71,42,197280,480
83,50,197280,480
88,43,197760,480
76,36,197760,480
74,36,198240,360
86,42,198240,360
72,28,198600,120
84,35,198600,120
84,38,198720,480
72,32,198720,480
71,29,199200,480
83,36,199200,480
81,69,199680,120
75,61,199800,120
76,61,199920,120
69,61,200040,113
69,66,200160,120
63,61,200280,120
64,61,200400,120
57,61,200520,120
82,68,200640,120
76,61,200760,120
77,62,200880,120
70,62,201000,112
70,66,201120,120
64,62,201240,120
65,62,201360,120
58,62,201480,120
85,72,201600,120
78,62,201720,120
79,62,201840,120
73,62,201960,113
73,69,202080,120
66,63,202200,120
67,62,202320,120
61,62,202440,120
86,74,202560,120
80,63,202680,120
81,63,202800,120
74,63,202920,113
74,68,203040,120
68,63,203160,120
69,63,203280,120
62,63,203400,120
88,74,203520,120
82,64,203640,120
83,65,203760,120
76,65,203880,111
76,71,204000,120
70,65,204120,120
71,64,204240,120
64,64,204360,120
89,76,204480,120
83,64,204600,120
84,64,204720,120
77,64,204840,109
77,70,204960,120
71,65,205080,120
72,65,205200,120
65,65,205320,120
80,81,205440,240
92,88,205440,240
91,81,205680,120
89,80,205800,120
87,79,205920,120
86,78,206040,120
84,77,206160,120
82,76,206280,120
80,75,206400,120
79,74,206520,120
77,73,206640,120
75,72,206760,120
74,72,206880,120
72,71,207000,120
70,70,207120,120
69,69,207240,120
68,68,207360,120
67,66,207480,120
65,65,207600,120
63,64,207720,120
62,63,207840,120
60,62,207960,120
58,61,208080,120
56,60,208200,120
57,59,208320,120
58,59,208440,120
60,58,208560,120
58,57,208680,120
57,56,208800,120
58,55,208920,120
60,54,209040,120
58,53,209160,120
57,53,209280,160
60,46,209440,160
58,46,209600,160
57,51,209760,160
60,45,209920,160
58,45,210080,160
57,53,210240,160
60,42,210400,160
58,42,210560,160
57,49,210720,160
60,38,210880,160
58,38,211040,160
57,36,211200,240
69,44,211200,240
60,30,211440,240
72,36,211440,240
58,30,211680,480
70,36,211680,480
57,35,212160,240
69,42,212160,240
60,29,212400,240
72,35,212400,240
58,29,212640,480
70,35,212640,480
69,44,213120,240
72,39,213360,240
70,50,213600,720
72,46,214320,240
74,48,214560,240
75,50,214800,240
69,52,215040,240
72,49,215280,240
70,53,215520,720
72,47,216240,240
74,49,216480,240
75,52,216720,240
76,57,216960,240
79,55,217200,240
77,58,217440,720
74,55,218160,240
72,53,218400,240
70,53,218640,240
76,57,218880,240
79,53,219120,240
77,58,219360,720
74,55,220080,240
72,53,220320,240
70,53,220560,240
81,55,220800,240
69,46,220800,240
84,51,221040,240
72,42,221040,240
82,58,221280,720
70,49,221280,720
84,50,222000,240
72,42,222000,240
86,52,222240,240
74,44,222240,240
87,55,222480,240
75,46,222480,240
81,57,222720,240
69,48,222720,240
84,53,222960,240
72,45,222960,240
82,58,223200,720
70,49,223200,720
84,51,223920,240
72,42,223920,240
86,53,224160,240
74,45,224160,240
87,57,224400,240
75,48,224400,240
88,62,224640,240
76,52,224640,240
91,56,224880,240
79,47,224880,240
89,61,225120,720
77,51,225120,720
86,60,225840,240
74,50,225840,240
84,58,226080,240
72,49,226080,240
82,58,226320,240
70,49,226320,240
88,62,226560,240
76,52,226560,240
91,57,226800,240
79,48,226800,240
89,62,227040,720
77,52,227040,720
86,60,227760,240
74,50,227760,240
84,58,228000,240
72,49,228000,240
82,58,228240,240
70,49,228240,240
82,62,228480,240
70,52,228480,240
92,57,228720,240
80,48,228720,240
91,62,228960,720
79,52,228960,720
89,60,229680,240
77,50,229680,240
86,58,229920,240
74,49,229920,240
83,58,230160,240
71,49,230160,240
79,62,230400,240
67,52,230400,240
89,57,230640,240
77,48,230640,240
87,62,230880,720
75,52,230880,720
85,60,231600,240
73,50,231600,240
82,58,231840,240
70,49,231840,240
79,58,232080,240
67,49,232080,240
75,62,232320,240
63,52,232320,240
85,56,232560,240
73,47,232560,240
84,60,232800,720
72,50,232800,720
82,54,233520,240
70,45,233520,240
84,51,233760,240
72,43,233760,240
85,50,234000,240
73,42,234000,240
75,52,234240,240
63,44,234240,240
82,47,234480,240
70,40,234480,240
80,50,234720,720
68,42,234720,720
79,45,235440,240
67,38,235440,240
80,42,235680,240
68,36,235680,240
82,41,235920,240
70,35,235920,240
74,44,236160,240
77,40,236400,240
75,46,236640,660
72,41,237300,60
87,55,237360,180
70,38,237540,60
85,52,237600,180
68,38,237780,60
84,52,237840,240
74,44,238080,240
77,40,238320,240
75,46,238560,660
72,41,239220,60
87,55,239280,180
70,38,239460,60
85,52,239520,180
68,38,239700,60
84,52,239760,240
69,44,240000,240
72,40,240240,240
70,46,240480,660
63,41,241140,60
79,55,241200,180
65,38,241380,60
80,52,241440,180
67,38,241620,60
82,52,241680,240
69,44,241920,240
72,40,242160,240
70,46,242400,660
63,41,243060,60
79,55,243120,180
65,38,243300,60
80,52,243360,180
67,38,243540,60
82,52,243600,240
75,58,243840,240
63,49,243840,240
85,54,244080,240
73,45,244080,240
84,58,244320,720
72,49,244320,720
82,57,245040,240
70,47,245040,240
79,55,245280,240
67,46,245280,240
76,55,245520,240
64,46,245520,240
84,58,245760,240
72,49,245760,240
94,54,246000,240
82,45,246000,240
92,58,246240,720
80,49,246240,720
90,57,246960,240
78,47,246960,240
87,55,247200,240
75,46,247200,240
84,55,247440,240
72,46,247440,240
80,62,247680,240
68,52,247680,240
90,56,247920,240
78,47,247920,240
89,60,248160,720
77,50,248160,720
87,54,248880,240
75,45,248880,240
89,51,249120,240
77,43,249120,240
90,50,249360,240
78,42,249360,240
80,52,249600,240
68,44,249600,240
87,47,249840,240
75,40,249840,240
85,50,250080,720
73,42,250080,720
84,45,250800,240
72,38,250800,240
85,42,251040,240
73,36,251040,240
87,41,251280,240
75,35,251280,240
77,77,251520,475
80,77,251520,475
85,77,251520,475
89,92,251520,475
77,73,252000,120
80,73,252000,120
85,73,252000,120
89,87,252000,120
77,73,252240,120
80,73,252240,120
85,73,252240,120
89,87,252240,120
77,77,252480,475
80,77,252480,475
85,77,252480,475
89,92,252480,475
77,72,252960,120
80,72,252960,120
85,72,252960,120
89,86,252960,120
77,72,253200,120
80,72,253200,120
85,72,253200,120
89,86,253200,120
77,77,253440,180
80,77,253440,180
85,77,253440,180
89,92,253440,180
89,70,253680,120
85,72,253800,120
80,73,253920,120
77,75,254040,120
73,77,254160,120
68,78,254280,120
65,81,254400,120
61,80,254520,120
65,79,254640,120
68,78,254760,120
73,78,254880,120
77,77,255000,120
80,76,255120,120
85,75,255240,120
77,77,255360,475
82,77,255360,475
85,77,255360,475
89,92,255360,475
77,73,255840,120
82,73,255840,120
85,73,255840,120
89,87,255840,120
77,73,256080,120
82,73,256080,120
85,73,256080,120
89,87,256080,120
77,77,256320,475
82,77,256320,475
85,77,256320,475
89,92,256320,475
77,72,256800,120
82,72,256800,120
85,72,256800,120
89,86,256800,120
77,72,257040,120
82,72,257040,120
85,72,257040,120
89,86,257040,120
77,77,257280,180
82,77,257280,180
85,77,257280,180
89,92,257280,180
89,71,257520,120
85,72,257640,120
82,73,257760,120
77,74,257880,120
73,75,258000,120
70,75,258120,120
65,76,258240,120
61,77,258360,120
65,76,258480,120
70,75,258600,120
73,74,258720,120
77,73,258840,120
82,73,258960,120
85,72,259080,120
78,69,259200,475
82,69,259200,475
85,69,259200,475
90,82,259200,475
78,66,259680,120
82,66,259680,120
85,66,259680,120
90,77,259680,120
78,66,259920,120
82,66,259920,120
85,66,259920,120
90,77,259920,120
78,75,260160,475
81,75,260160,475
86,75,260160,475
90,90,260160,475
78,71,260640,120
81,71,260640,120
86,71,260640,120
90,84,260640,120
78,71,260880,120
81,71,260880,120
86,71,260880,120
90,84,260880,120
78,75,261120,180
80,75,261120,180
87,75,261120,180
90,90,261120,180
78,60,261360,120
77,62,261480,120
75,63,261600,120
77,64,261720,120
75,66,261840,120
73,67,261960,120
72,70,262080,120
73,70,262200,120
72,69,262320,120
73,68,262440,120
75,67,262560,120
77,66,262680,120
78,65,262800,120
80,64,262920,120
78,69,263040,475
82,69,263040,475
85,69,263040,475
90,82,263040,475
78,66,263520,120
82,66,263520,120
85,66,263520,120
90,77,263520,120
78,66,263760,120
82,66,263760,120
85,66,263760,120
90,77,263760,120
78,75,264000,475
81,75,264000,475
86,75,264000,475
90,90,264000,475
78,71,264480,120
81,71,264480,120
86,71,264480,120
90,84,264480,120
78,71,264720,120
81,71,264720,120
86,71,264720,120
90,84,264720,120
78,75,264960,180
80,75,264960,180
87,75,264960,180
90,90,264960,180
78,61,265200,120
77,62,265320,120
75,63,265440,120
77,64,265560,120
75,65,265680,120
73,67,265800,120
72,68,265920,120
73,68,266040,120
72,68,266160,120
73,67,266280,120
75,66,266400,120
77,66,266520,120
78,65,266640,120
80,65,266760,120
69,68,266880,475
73,68,266880,475
78,68,266880,475
81,80,266880,475
69,63,267360,120
73,63,267360,120
78,63,267360,120
81,74,267360,120
69,63,267600,120
78,63,267600,120
73,63,267600,120
81,74,267600,120
74,69,267840,475
78,69,267840,475
81,69,267840,475
86,81,267840,475
74,65,268320,120
78,65,268320,120
81,65,268320,120
86,76,268320,120
74,65,268560,120
78,65,268560,120
81,65,268560,120
86,77,268560,120
71,58,268800,480
79,58,268800,480
83,82,268800,480
72,64,269280,480
76,64,269280,480
81,64,269280,480
84,75,269280,480
69,68,269760,480
74,68,269760,480
79,68,269760,480
81,80,269760,480
74,70,270240,480
78,70,270240,480
81,70,270240,480
86,82,270240,480
71,69,270720,480
79,69,270720,480
83,81,270720,480
72,65,271200,480
76,65,271200,480
81,77,271200,480
84,77,271200,480
69,72,271680,480
74,72,271680,480
79,72,271680,480
81,85,271680,480
74,75,272160,480
78,75,272160,480
81,75,272160,480
86,88,272160,480
67,74,272640,475
71,74,272640,475
79,88,272640,475
67,67,273120,120
71,67,273120,120
79,80,273120,120
67,67,273360,120
71,67,273360,120
79,80,273360,120
67,72,273600,475
71,72,273600,475
79,86,273600,475
67,67,274080,120
71,67,274080,120
79,80,274080,120
67,67,274320,120
71,67,274320,120
79,80,274320,120
67,73,274560,480
72,73,274560,480
79,87,274560,480
65,67,275040,480
72,67,275040,480
77,80,275040,480
77,70,275520,240
84,70,275520,240
89,84,275520,240
65,58,275760,114
72,58,275760,114
77,70,275760,114
65,58,275880,114
72,58,275880,114
77,70,275880,114
65,65,276000,228
72,65,276000,228
77,77,276000,228
65,64,276240,228
72,64,276240,228
77,75,276240,228
68,74,276480,475
72,74,276480,475
77,88,276480,475
68,67,276960,120
72,67,276960,120
77,80,276960,120
68,67,277200,120
72,67,277200,120
77,80,277200,120
68,72,277440,475
72,72,277440,475
77,86,277440,475
68,67,277920,120
72,67,277920,120
77,80,277920,120
68,67,278160,120
72,67,278160,120
77,80,278160,120
67,73,278400,480
70,73,278400,480
77,87,278400,480
67,67,278880,480
70,67,278880,480
75,80,278880,480
75,73,279360,240
82,73,279360,240
87,88,279360,240
63,58,279600,114
70,58,279600,114
75,70,279600,114
63,58,279720,114
70,58,279720,114
75,70,279720,114
63,65,279840,228
70,65,279840,228
75,77,279840,228
63,64,280080,228
70,64,280080,228
75,75,280080,228
67,74,280320,480
70,74,280320,480
75,88,280320,480
67,67,280800,120
70,67,280800,120
75,80,280800,120
67,67,281040,120
70,67,281040,120
75,80,281040,120
67,72,281280,480
70,72,281280,480
75,86,281280,480
67,67,281760,120
70,67,281760,120
75,80,281760,120
67,67,282000,120
70,67,282000,120
75,80,282000,120
65,73,282240,480
68,73,282240,480
75,87,282240,480
65,67,282720,480
68,67,282720,480
73,80,282720,480
73,73,283200,228
80,73,283200,228
85,88,283200,228
61,58,283440,114
68,58,283440,114
73,70,283440,114
61,58,283560,114
68,58,283560,114
73,70,283560,114
61,65,283680,228
68,65,283680,228
73,77,283680,228
61,64,283920,228
68,64,283920,228
73,75,283920,228
61,73,284160,480
67,73,284160,480
73,87,284160,480
60,67,284640,480
67,67,284640,480
72,80,284640,480
72,73,285120,228
79,73,285120,228
84,88,285120,228
60,58,285360,114
67,58,285360,114
72,70,285360,114
60,58,285480,114
67,58,285480,114
72,70,285480,114
60,65,285600,228
67,65,285600,228
72,77,285600,228
60,64,285840,228
67,64,285840,228
72,75,285840,228
60,73,286080,480
65,73,286080,480
72,87,286080,480
58,67,286560,480
65,67,286560,480
70,80,286560,480
70,76,287040,480
75,76,287040,480
82,90,287040,480
68,70,287520,480
75,70,287520,480
80,84,287520,480
56,76,288000,480
62,76,288000,480
68,90,288000,480
55,70,288480,480
62,70,288480,480
67,84,288480,480
67,80,288960,480
72,80,288960,480
79,94,288960,480
66,73,289440,480
72,73,289440,480
78,87,289440,480
67,73,289920,120
79,73,289920,120
81,74,290040,120
79,75,290160,120
81,76,290280,120
83,77,290400,120
84,78,290520,120
83,79,290640,120
84,80,290760,120
86,81,290880,120
87,82,291000,120
86,84,291120,120
87,85,291240,120
89,86,291360,120
91,87,291480,120
89,88,291600,120
91,89,291720,120
80,90,291840,960
92,90,291840,960
68,77,292800,960
80,77,292800,960
77,73,293760,120
79,74,293880,120
77,75,294000,120
79,76,294120,120
80,77,294240,120
82,78,294360,120
80,79,294480,120
82,80,294600,120
84,81,294720,120
86,82,294840,120
84,84,294960,120
86,85,295080,120
87,86,295200,120
89,87,295320,120
87,88,295440,120
89,89,295560,120
79,90,295680,960
91,90,295680,960
67,77,296640,960
79,77,296640,960
75,73,297600,120
77,74,297720,120
75,75,297840,120
77,76,297960,120
79,77,298080,120
80,78,298200,120
79,79,298320,120
80,80,298440,120
82,81,298560,120
84,82,298680,120
82,84,298800,120
84,85,298920,120
86,86,299040,120
87,87,299160,120
86,88,299280,120
87,89,299400,120
77,90,299520,960
89,90,299520,960
65,77,300480,960
77,77,300480,960
75,90,301440,960
87,90,301440,960
63,77,302400,960
75,77,302400,960
73,76,303360,360
85,90,303360,360
61,67,303720,114
73,79,303720,114
61,67,303840,480
73,79,303840,480
72,76,304320,360
84,90,304320,360
60,67,304680,114
72,79,304680,114
60,67,304800,480
72,79,304800,480
70,76,305280,360
82,90,305280,360
58,67,305640,114
70,79,305640,114
58,67,305760,480
70,79,305760,480
75,76,306240,357
72,76,306240,357
68,76,306240,357
80,90,306240,357
63,67,306600,114
60,67,306600,114
56,67,306600,114
68,79,306600,114
63,67,306720,480
60,67,306720,480
56,67,306720,480
68,79,306720,480
59,73,307200,480
62,73,307200,480
67,87,307200,480
62,66,307680,90
74,78,307680,90
63,68,307800,90
75,80,307800,90
65,70,307920,90
77,82,307920,90
67,72,308040,90
79,86,308040,90
68,74,308160,475
80,88,308160,475
72,68,308640,240
75,68,308640,240
80,80,308640,240
72,66,308880,240
75,66,308880,240
80,78,308880,240
71,73,309120,475
74,73,309120,475
79,87,309120,475
74,66,309600,90
86,78,309600,90
75,68,309720,90
87,80,309720,90
77,70,309840,90
89,82,309840,90
79,72,309960,90
91,86,309960,90
80,74,310080,480
92,88,310080,480
84,68,310560,240
87,68,310560,240
92,80,310560,240
84,66,310800,240
87,66,310800,240
92,78,310800,240
74,66,311040,90
86,78,311040,90
75,68,311160,90
87,80,311160,90
77,70,311280,90
89,82,311280,90
79,72,311400,90
91,86,311400,90
87,74,311520,480
84,74,311520,480
80,74,311520,480
92,88,311520,480
74,66,312000,90
86,78,312000,90
75,68,312120,90
87,80,312120,90
77,70,312240,90
89,82,312240,90
79,72,312360,90
91,86,312360,90
87,74,312480,480
84,74,312480,480
80,74,312480,480
92,88,312480,480
74,78,312960,90
75,80,313080,90
77,82,313200,90
79,87,313320,90
75,76,313440,480
72,76,313440,480
68,76,313440,480
80,90,313440,480
62,70,313920,90
74,84,313920,90
63,73,314040,90
75,87,314040,90
65,76,314160,90
77,90,314160,90
67,78,314280,90
79,94,314280,90
75,81,314400,480
72,81,314400,480
68,81,314400,480
80,97,314400,480
67,76,314880,475
71,76,314880,475
74,85,314880,475
79,100,314880,475
67,50,315360,120
67,51,315600,120
67,53,315840,475
67,50,316320,120
67,50,316560,120
67,53,316800,475
67,50,317280,120
67,50,317520,120
67,53,317760,475
67,49,318240,120
67,49,318480,120
68,76,318720,475
71,76,318720,475
74,85,318720,475
80,100,318720,475
68,51,319200,120
68,52,319440,120
68,53,319680,475
68,41,320160,60
71,49,320160,60
68,42,320400,60
71,50,320400,60
68,45,320640,475
71,53,320640,475
68,40,321120,60
71,48,321120,60
68,40,321360,60
71,48,321360,60
68,45,321600,475
71,53,321600,475
68,40,322080,60
71,48,322080,60
68,40,322320,60
71,48,322320,60
68,76,322560,475
71,76,322560,475
73,85,322560,475
80,100,322560,475
68,41,323040,60
71,49,323040,60
68,41,323280,60
71,49,323280,60
68,45,323520,475
71,45,323520,475
73,53,323520,475
68,40,324000,60
71,40,324000,60
73,48,324000,60
68,40,324240,60
71,40,324240,60
73,48,324240,60
68,76,324480,475
71,76,324480,475
74,85,324480,475
80,100,324480,475
68,41,324960,60
71,49,324960,60
68,41,325200,60
71,49,325200,60
68,45,325440,475
71,45,325440,475
74,53,325440,475
68,41,325920,60
71,41,325920,60
74,49,325920,60
68,41,326160,60
71,41,326160,60
74,49,326160,60
68,76,326400,475
71,76,326400,475
73,85,326400,475
80,100,326400,475
68,35,326880,60
71,42,326880,60
68,35,327120,60
71,42,327120,60
68,39,327360,475
71,39,327360,475
73,47,327360,475
68,35,327840,60
71,35,327840,60
73,42,327840,60
68,35,328080,60
71,35,328080,60
73,42,328080,60
68,76,328320,475
71,76,328320,475
74,85,328320,475
80,100,328320,475
68,40,328800,60
71,40,328800,60
68,40,329040,60
71,40,329040,60
68,39,329280,475
71,39,329280,475
74,46,329280,475
68,34,329760,60
71,34,329760,60
74,40,329760,60
68,34,330000,60
71,34,330000,60
74,41,330000,60
68,76,330240,475
71,76,330240,475
74,85,330240,475
80,100,330240,475
71,48,330720,60
74,48,330720,60
71,48,330960,60
74,48,330960,60
68,76,331200,475
71,76,331200,475
73,85,331200,475
80,100,331200,475
71,48,331680,60
73,48,331680,60
71,48,331920,60
73,48,331920,60
68,71,332160,475
71,71,332160,475
73,71,332160,475
80,85,332160,475
71,48,332640,60
73,48,332640,60
71,48,332880,60
73,48,332880,60
66,65,333120,475
69,65,333120,475
73,65,333120,475
78,78,333120,475
69,48,333600,60
73,48,333600,60
69,48,333840,60
73,48,333840,60
66,63,334080,475
68,63,334080,475
73,63,334080,475
78,76,334080,475
66,48,334560,60
68,48,334560,60
66,48,334800,60
68,48,334800,60
64,61,335040,475
68,61,335040,475
73,61,335040,475
76,73,335040,475
64,48,335520,60
68,48,335520,60
64,48,335760,60
68,48,335760,60
63,59,336000,475
68,59,336000,475
72,59,336000,475
75,71,336000,475
63,48,336480,60
72,48,336480,60
63,48,336720,60
72,48,336720,60
63,62,336960,475
67,62,336960,475
73,62,336960,475
75,74,336960,475
63,48,337440,60
73,48,337440,60
63,48,337680,60
73,48,337680,60
63,59,337920,475
68,59,337920,475
72,59,337920,475
75,71,337920,475
60,32,338400,60
63,38,338400,60
60,31,338640,60
63,37,338640,60
60,38,338880,475
63,45,338880,475
60,31,339360,60
63,37,339360,60
60,31,339600,60
63,37,339600,60
61,38,339840,475
63,45,339840,475
61,28,340320,60
63,34,340320,60
61,28,340560,60
63,33,340560,60
61,33,340800,475
63,39,340800,475
61,28,341280,60
63,33,341280,60
61,27,341520,60
63,33,341520,60
60,28,341760,475
63,34,341760,475
60,24,342240,60
63,28,342240,60
60,23,342480,60
63,27,342480,60
60,28,342720,475
63,34,342720,475
60,23,343200,60
63,27,343200,60
60,23,343440,60
63,27,343440,60
61,28,343680,475
63,34,343680,475
61,22,344160,60
63,27,344160,60
61,22,344400,60
63,27,344400,60
61,27,344640,475
63,32,344640,475
61,24,345120,60
63,28,345120,60
61,24,345360,60
63,28,345360,60
60,28,345600,475
63,34,345600,475
56,23,346080,120
68,28,346080,120
56,23,346320,120
68,28,346320,120
56,26,346560,480
68,31,346560,480
56,23,348000,120
68,28,348000,120
56,23,348240,120
68,28,348240,120
56,26,348480,480
68,31,348480,480
56,23,349920,120
68,28,349920,120
56,23,350160,120
68,28,350160,120
56,26,350400,480
68,31,350400,480
56,23,351840,120
68,28,351840,120
56,23,352080,120
68,28,352080,120
56,26,352320,480
68,31,352320,480
66,23,353760,120
56,23,353760,120
68,28,353760,120
66,23,354000,120
56,23,354000,120
68,28,354000,120
66,26,354240,480
56,26,354240,480
68,31,354240,480
66,23,355680,120
56,23,355680,120
68,28,355680,120
66,23,355920,120
56,23,355920,120
68,28,355920,120
66,23,356640,120
56,23,356640,120
68,28,356640,120
66,23,356880,120
56,23,356880,120
68,28,356880,120
66,22,357600,480
56,22,357600,480
68,27,357600,480
66,21,358560,480
56,21,358560,480
68,26,358560,480
66,20,359520,480
57,20,359520,480
69,25,359520,480
66,20,360480,480
56,20,360480,480
68,24,360480,480
36,55,0,480
43,55,0,480
48,64,0,480
36,49,480,120
43,49,480,120
48,59,480,120
36,49,720,120
43,49,720,120
48,59,720,120
36,56,960,480
43,56,960,480
48,66,960,480
36,50,1440,120
43,50,1440,120
48,60,1440,120
36,50,1680,120
43,50,1680,120
48,60,1680,120
36,56,1920,240
43,56,1920,240
48,66,1920,240
31,57,3840,240
43,68,3840,240
43,57,4320,240
55,68,4320,240
31,47,5760,480
43,56,5760,480
31,42,6240,120
43,51,6240,120
31,42,6480,120
43,51,6480,120
31,48,6720,480
43,57,6720,480
31,43,7200,120
43,52,7200,120
31,43,7440,120
43,52,7440,120
31,48,7680,240
43,57,7680,240
43,52,9600,240
36,52,9600,240
48,62,9600,240
55,50,10080,240
48,50,10080,240
60,60,10080,240
36,50,11520,960
48,60,11520,960
35,44,12480,480
47,53,12480,480
47,57,12960,240
59,70,12960,240
47,53,13200,240
59,65,13200,240
45,63,13440,475
57,72,13440,475
38,50,13920,480
50,61,13920,480
43,48,14400,240
55,59,14400,238
36,50,15360,960
48,60,15360,960
35,44,16320,480
47,53,16320,480
47,55,16800,228
59,67,16800,228
47,53,17040,228
59,65,17040,228
45,63,17280,475
57,72,17280,475
38,50,17760,480
50,61,17760,480
43,48,18240,240
55,59,18240,240
41,50,19200,960
53,60,19200,960
40,44,20160,480
52,53,20160,480
52,57,20640,228
64,70,20640,228
52,53,20880,228
64,65,20880,228
50,63,21120,475
62,72,21120,475
43,54,21600,480
55,67,21600,480
48,52,22080,480
60,65,22080,480
41,57,22560,228
53,70,22560,228
41,53,22800,228
53,65,22800,228
47,62,23040,480
59,71,23040,480
40,53,23520,480
52,65,23520,480
45,51,24000,480
57,63,24000,480
33,44,24480,120
45,53,24480,120
31,40,24720,120
43,49,24720,120
29,34,24960,120
41,35,25080,120
29,37,25200,120
41,38,25320,120
29,39,25440,120
41,41,25560,120
29,42,25680,120
41,44,25800,120
29,45,25920,120
41,47,26040,120
29,48,26160,120
41,50,26280,120
29,51,26400,120
41,52,26520,120
29,54,26640,120
41,55,26760,120
42,61,26880,120
43,62,27000,120
44,63,27120,120
45,64,27240,120
46,66,27360,120
47,67,27480,120
48,69,27600,120
49,70,27720,120
50,72,27840,120
51,73,27960,120
52,75,28080,120
53,76,28200,120
41,66,28320,240
53,78,28320,240
41,66,28560,240
53,79,28560,240
41,74,28800,120
53,88,28800,120
53,68,29040,120
65,81,29040,120
53,68,29280,120
65,81,29280,120
53,68,29520,120
65,81,29520,120
53,68,29760,120
65,81,29760,120
53,68,30000,120
65,81,30000,120
53,68,30240,120
65,81,30240,120
53,68,30480,120
65,81,30480,120
64,91,30720,240
52,77,30720,240
40,74,31200,240
52,88,31200,240
36,22,32640,475
43,22,32640,475
48,25,32640,475
36,19,33120,120
43,19,33120,120
48,23,33120,120
36,19,33360,120
43,19,33360,120
48,23,33360,120
36,22,33600,475
43,22,33600,475
48,26,33600,475
36,20,34080,120
43,20,34080,120
48,24,34080,120
36,20,34320,120
43,20,34320,120
48,24,34320,120
36,22,34560,240
43,22,34560,240
48,26,34560,240
31,22,36480,240
43,27,36480,240
43,22,36960,240
55,27,36960,240
74,27,37440,960
71,22,37440,960
67,22,37440,960
31,18,38400,475
43,22,38400,475
31,16,38880,120
43,20,38880,120
31,16,39120,120
43,20,39120,120
31,19,39360,475
43,22,39360,475
31,17,39840,120
43,20,39840,120
31,17,40080,120
43,20,40080,120
31,19,40320,240
43,22,40320,240
43,20,42240,240
36,20,42240,240
48,24,42240,240
55,20,42720,240
48,20,42720,240
60,24,42720,240
72,27,43200,960
67,22,43200,960
60,22,43200,960
33,29,45120,360
45,35,45120,360
57,26,45600,240
60,32,45600,240
72,27,46080,960
69,18,46080,960
40,25,48000,360
52,29,48000,360
52,23,48480,240
55,27,48480,240
67,24,48960,1920
64,16,48960,1920
38,72,52080,120
41,74,52200,120
44,76,52320,120
50,78,52440,120
53,80,52560,120
56,82,52680,120
50,71,52800,960
62,84,52800,960
52,68,53760,480
64,80,53760,480
48,64,54240,480
60,76,54240,480
43,68,54720,240
55,80,54720,240
38,72,55920,120
41,74,56040,120
44,76,56160,120
50,78,56280,120
53,80,56400,120
56,82,56520,120
50,71,56640,960
62,84,56640,960
52,68,57600,480
64,80,57600,480
48,64,58080,480
60,76,58080,480
43,68,58560,240
55,80,58560,240
52,73,59760,120
55,75,59880,120
58,77,60000,120
61,79,60120,120
67,80,60240,120
70,82,60360,120
73,88,60480,120
76,82,60600,120
73,81,60720,120
70,80,60840,120
67,76,60960,120
64,78,61080,120
61,78,61200,120
58,76,61320,120
61,76,61440,120
64,68,61560,120
61,69,61680,120
58,69,61800,120
55,73,61920,120
52,66,62040,120
49,66,62160,120
46,66,62280,120
49,66,62400,120
52,60,62520,120
49,60,62640,120
46,60,62760,120
43,67,62880,120
40,59,63000,120
37,60,63120,120
34,60,63240,120
37,68,63360,120
40,47,63480,120
37,47,63600,120
34,47,63720,120
37,58,63840,120
40,45,63960,120
37,45,64080,120
34,45,64200,120
37,53,64320,120
40,39,64440,120
37,39,64560,120
34,39,64680,120
37,51,64800,120
40,34,64920,120
37,34,65040,120
34,34,65160,120
35,37,65280,120
38,30,65400,120
43,30,65520,120
38,30,65640,120
35,35,65760,120
38,30,65880,120
43,30,66000,120
38,30,66120,120
35,35,66240,120
38,30,66360,120
43,30,66480,120
38,30,66600,120
35,35,66720,120
38,30,66840,120
43,30,66960,120
38,30,67080,120
36,37,67200,120
40,30,67320,120
45,30,67440,120
40,30,67560,120
36,35,67680,120
40,30,67800,120
45,30,67920,120
40,30,68040,120
36,35,68160,120
40,30,68280,120
45,30,68400,120
40,30,68520,120
36,35,68640,120
40,30,68760,120
45,30,68880,120
40,30,69000,120
38,37,69120,120
43,30,69240,120
47,30,69360,120
43,30,69480,120
38,35,69600,120
43,30,69720,120
47,30,69840,120
43,30,69960,120
38,35,70080,120
45,30,70200,120
48,30,70320,120
45,30,70440,120
38,35,70560,120
45,30,70680,120
48,30,70800,120
45,30,70920,120
52,73,71280,120
55,75,71400,120
58,77,71520,120
61,79,71640,120
67,80,71760,120
70,82,71880,120
73,88,72000,120
76,82,72120,120
73,81,72240,120
70,80,72360,120
67,76,72480,120
64,78,72600,120
61,78,72720,120
58,76,72840,120
61,76,72960,120
64,68,73080,120
61,69,73200,120
58,69,73320,120
55,73,73440,120
52,66,73560,120
49,66,73680,120
46,66,73800,120
49,66,73920,120
52,60,74040,120
49,60,74160,120
46,60,74280,120
43,67,74400,120
40,59,74520,120
37,60,74640,120
34,60,74760,120
37,68,74880,120
40,47,75000,120
37,47,75120,120
34,47,75240,120
37,58,75360,120
40,45,75480,120
37,45,75600,120
34,45,75720,120
37,53,75840,120
40,39,75960,120
37,39,76080,120
34,39,76200,120
37,51,76320,120
40,34,76440,120
37,34,76560,120
34,34,76680,120
35,37,76800,120
40,30,76920,120
43,30,77040,120
40,30,77160,120
35,35,77280,120
40,30,77400,120
43,30,77520,120
40,30,77640,120
35,35,77760,120
40,30,77880,120
43,30,78000,120
40,30,78120,120
35,35,78240,120
40,30,78360,120
43,30,78480,120
40,30,78600,120
36,37,78720,120
40,30,78840,120
45,30,78960,120
40,30,79080,120
36,35,79200,120
40,30,79320,120
45,30,79440,120
40,30,79560,120
36,35,79680,120
40,30,79800,120
45,30,79920,120
40,30,80040,120
36,35,80160,120
40,30,80280,120
45,30,80400,120
40,30,80520,120
38,27,80640,120
43,28,80760,120
47,28,80880,120
43,28,81000,120
38,28,81120,120
43,28,81240,120
47,28,81360,120
43,28,81480,120
38,28,81600,120
43,28,81720,120
47,28,81840,120
43,28,81960,120
38,29,82080,120
43,28,82200,120
47,28,82320,120
43,28,82440,120
38,29,82560,120
45,28,82680,120
48,28,82800,120
45,28,82920,120
38,29,83040,120
45,28,83160,120
48,28,83280,120
45,28,83400,120
38,29,83520,120
45,28,83640,120
48,28,83760,120
45,28,83880,120
38,28,84000,120
45,28,84120,120
48,28,84240,120
45,28,84360,120
43,28,84480,240
40,33,88320,960
47,27,88560,720
40,31,89280,960
47,27,89520,720
42,32,90240,1920
47,27,90480,228
47,27,90720,228
47,27,90960,228
47,32,91200,240
49,35,91440,240
47,31,91680,120
47,31,91920,120
42,33,92160,960
47,27,92400,720
42,31,93120,960
47,27,93360,720
44,32,94080,1920
47,27,94320,228
47,27,94560,228
47,27,94800,228
47,32,95040,240
49,39,95280,240
47,41,95520,120
47,46,95760,120
54,54,96000,960
59,43,96240,240
61,41,96480,240
63,40,96720,240
52,30,96960,480
64,45,96960,480
54,27,97440,240
63,39,97440,240
56,26,97680,240
64,37,97680,240
66,45,97920,480
54,30,97920,480
64,36,98400,480
54,25,98400,480
63,36,98880,240
59,25,98880,240
52,33,99840,960
59,27,100080,720
52,31,100800,960
59,27,101040,720
54,32,101760,1920
59,27,102000,228
59,27,102240,228
59,27,102480,228
58,32,102720,120
59,27,102840,120
61,27,102960,120
59,29,103080,120
59,31,103200,120
59,31,103440,120
54,33,103680,960
59,27,103920,720
54,31,104640,960
59,27,104880,720
55,32,105600,1920
59,27,105840,228
59,27,106080,228
59,27,106320,228
58,32,106560,120
59,27,106680,120
60,27,106800,120
59,27,106920,120
59,31,107040,120
59,31,107280,120
57,32,107520,1920
64,27,107760,228
64,27,108000,228
64,27,108240,228
59,36,108480,120
60,32,108600,120
62,35,108720,120
60,37,108840,120
62,35,108960,240
64,34,109200,240
55,32,109440,1920
64,27,109680,228
64,27,109920,228
64,27,110160,228
58,36,110400,120
59,33,110520,120
60,35,110640,120
59,38,110760,120
64,40,110880,240
67,34,111120,240
54,33,111360,240
55,36,111600,240
59,39,111840,240
57,33,111840,240
59,35,112080,240
54,29,112080,240
52,33,112320,240
54,36,112560,240
59,41,112800,240
55,34,112800,240
59,36,113040,240
52,30,113040,240
59,43,113280,240
47,36,113280,960
58,39,113520,240
59,42,113760,240
60,44,114000,240
59,47,114240,240
57,44,114480,240
54,44,114720,240
51,43,114960,240
42,33,115200,240
43,36,115440,240
47,39,115680,240
45,33,115680,240
47,35,115920,240
42,29,115920,240
40,33,116160,240
42,36,116400,240
47,41,116640,240
43,34,116640,240
47,36,116880,240
40,30,116880,240
35,43,117120,475
47,43,117120,475
35,36,117600,228
47,36,117600,228
35,36,117840,228
47,36,117840,228
35,43,118080,475
47,43,118080,475
35,36,118560,228
47,36,118560,228
35,37,118800,228
47,37,118800,228
35,43,119040,240
47,43,119040,240
38,36,119280,240
50,36,119280,240
37,36,119520,720
49,36,119520,720
35,36,120240,240
47,36,120240,240
33,36,120480,240
45,36,120480,240
32,36,120720,240
44,36,120720,240
30,40,120960,1200
42,40,120960,1200
32,36,122160,240
44,36,122160,240
33,36,122400,240
45,36,122400,240
34,36,122640,240
46,36,122640,240
34,43,122880,240
46,43,122880,240
37,35,123120,240
49,35,123120,240
35,35,123360,720
47,35,123360,720
33,35,124080,240
45,35,124080,240
32,36,124320,240
44,36,124320,240
30,36,124560,240
42,36,124560,240
40,37,124800,1440
38,34,126240,480
36,31,126720,120
43,27,126840,120
36,32,126960,120
43,29,127080,120
36,33,127200,120
43,30,127320,120
36,35,127440,120
43,31,127560,120
36,36,127680,120
43,31,127800,120
36,38,127920,120
43,32,128040,120
36,39,128160,120
43,34,128280,120
36,41,128400,120
43,36,128520,120
36,42,128640,120
43,38,128760,120
36,43,128880,120
43,39,129000,120
36,46,129120,120
43,41,129240,120
36,47,129360,120
43,41,129480,120
36,49,129600,120
43,44,129720,120
36,50,129840,120
43,43,129960,120
36,52,130080,120
43,46,130200,120
36,53,130320,120
43,45,130440,120
36,55,130560,120
43,49,130680,120
36,57,130800,120
43,51,130920,120
36,59,131040,120
43,52,131160,120
36,60,131280,120
43,52,131400,120
36,62,131520,120
43,55,131640,120
36,63,131760,120
43,56,131880,120
36,65,132000,120
43,56,132120,120
36,67,132240,120
43,58,132360,120
60,55,132480,475
67,55,132480,475
72,64,132480,475
60,49,132960,228
67,49,132960,228
72,59,132960,228
60,49,133200,228
67,49,133200,228
72,59,133200,228
60,56,133440,475
67,56,133440,475
72,66,133440,475
60,50,133920,228
67,50,133920,228
72,60,133920,228
60,50,134160,228
67,50,134160,228
72,60,134160,228
64,56,134400,240
60,56,134400,240
67,56,134400,240
72,66,134400,240
67,79,134640,120
64,81,134760,120
60,83,134880,120
55,85,135000,120
52,89,135120,120
48,91,135240,120
47,96,135360,480
35,96,135360,480
48,92,135840,120
36,77,135840,120
48,92,136080,120
36,77,136080,120
37,57,136320,240
49,68,136320,240
38,57,136800,240
50,68,136800,240
55,55,138240,475
67,64,138240,475
55,49,138720,228
67,59,138720,228
55,49,138960,228
67,59,138960,228
55,56,139200,475
67,66,139200,475
55,50,139680,228
67,60,139680,228
55,50,139920,228
67,60,139920,228
55,56,140160,240
67,66,140160,240
65,79,140400,120
62,81,140520,120
59,83,140640,120
55,85,140760,120
53,89,140880,120
50,91,141000,120
49,96,141120,480
37,96,141120,480
50,92,141600,120
38,77,141600,120
50,92,141840,120
38,77,141840,120
39,59,142080,240
51,71,142080,240
40,59,142560,240
52,71,142560,240
36,50,144000,960
48,60,144000,960
35,44,144960,480
47,53,144960,480
47,57,145440,228
59,70,145440,228
47,53,145680,228
59,65,145680,228
45,63,145920,480
57,72,145920,480
38,50,146400,480
50,61,146400,480
43,48,146880,240
55,59,146880,238
36,50,147840,960
48,60,147840,960
35,44,148800,480
47,53,148800,480
47,57,149280,228
59,70,149280,228
47,53,149520,228
59,65,149520,228
45,63,149760,480
57,72,149760,480
38,50,150240,480
50,61,150240,480
43,48,150720,240
55,59,150720,240
41,50,151680,960
53,60,151680,960
40,44,152640,480
52,53,152640,480
52,57,153120,228
64,70,153120,228
52,53,153360,228
64,65,153360,228
50,63,153600,475
62,72,153600,475
43,54,154080,480
55,67,154080,480
48,52,154560,475
60,65,154560,475
41,55,155040,228
53,67,155040,228
41,51,155280,228
53,62,155280,228
47,60,155520,480
59,69,155520,480
48,53,156000,480
60,65,156000,480
50,52,156480,228
62,65,156480,228
50,55,156720,228
62,55,156720,228
52,58,156960,480
64,71,156960,480
33,81,157440,475
45,96,157440,475
33,75,157920,228
45,90,157920,228
33,75,158160,228
45,90,158160,228
33,81,158400,475
45,96,158400,475
33,75,158880,228
45,90,158880,228
33,74,159120,228
45,88,159120,228
33,81,159360,240
45,96,159360,240
36,75,159600,240
48,90,159600,240
35,79,159840,480
47,93,159840,480
74,79,160320,960
77,93,160320,960
35,81,161280,475
47,96,161280,475
35,75,161760,228
47,90,161760,228
35,75,162000,228
47,90,162000,228
35,81,162240,475
47,96,162240,475
35,75,162720,228
47,90,162720,228
35,74,162960,228
47,88,162960,228
35,81,163200,240
47,96,163200,240
38,75,163440,240
50,90,163440,240
36,79,163680,480
48,93,163680,480
72,79,164160,960
76,79,164160,960
81,93,164160,960
37,77,165120,240
49,91,165120,240
40,71,165360,240
52,84,165360,240
38,74,165600,480
50,88,165600,480
74,70,166080,960
77,72,166080,960
82,85,166080,960
40,52,167040,480
52,52,167040,480
41,55,167520,480
53,55,167520,480
44,58,168000,480
56,58,168000,480
45,60,168480,480
57,60,168480,480
47,63,168960,480
59,63,168960,480
48,66,169440,480
60,66,169440,480
65,68,169920,480
53,68,169920,480
52,65,170400,480
64,65,170400,480
33,75,170880,240
35,67,171120,120
36,67,171240,120
38,66,171360,120
40,66,171480,120
42,65,171600,120
44,64,171720,120
45,64,171840,120
47,63,171960,120
48,63,172080,120
50,63,172200,120
52,63,172320,120
54,62,172440,120
56,61,172560,120
57,61,172680,120
58,58,172800,120
61,53,172920,120
62,53,173040,120
64,53,173160,120
58,52,173280,120
61,46,173400,120
62,46,173520,120
64,46,173640,120
58,54,173760,120
61,47,173880,120
62,47,174000,120
64,47,174120,120
58,53,174240,120
61,48,174360,120
62,48,174480,120
64,48,174600,120
37,75,174720,240
38,67,174960,120
40,67,175080,120
41,66,175200,120
43,66,175320,120
45,65,175440,120
47,64,175560,120
49,64,175680,120
50,63,175800,120
52,63,175920,120
53,63,176040,120
55,63,176160,120
57,62,176280,120
59,61,176400,120
61,61,176520,120
62,58,176640,120
65,53,176760,120
68,53,176880,120
69,53,177000,120
62,52,177120,120
65,46,177240,120
68,46,177360,120
69,46,177480,120
62,54,177600,120
65,47,177720,120
68,47,177840,120
69,47,177960,120
62,53,178080,120
65,48,178200,120
68,48,178320,120
69,48,178440,120
60,55,178560,120
64,50,178680,120
68,49,178800,120
69,49,178920,120
60,47,179040,120
64,42,179160,120
68,41,179280,120
69,41,179400,120
60,48,179520,120
64,41,179640,120
68,41,179760,120
69,40,179880,120
60,45,180000,120
64,40,180120,120
68,40,180240,120
69,40,180360,120
59,48,180480,120
62,43,180600,120
68,42,180720,120
69,42,180840,120
59,41,180960,120
62,36,181080,120
68,35,181200,120
69,35,181320,120
59,41,181440,120
62,35,181560,120
68,35,181680,120
69,34,181800,120
59,39,181920,120
62,35,182040,120
68,34,182160,120
69,34,182280,120
57,43,182400,120
60,35,182520,120
68,35,182640,120
69,35,182760,120
57,35,182880,120
60,35,183000,120
68,31,183120,120
69,31,183240,120
48,40,183360,120
57,36,183480,120
50,37,183600,120
57,38,183720,120
45,46,183840,120
57,40,183960,120
47,41,184080,120
57,42,184200,120
48,50,184320,120
57,43,184440,120
52,43,184560,120
57,43,184680,120
50,47,184800,120
57,39,184920,120
53,39,185040,120
57,39,185160,120
52,45,185280,120
60,35,185400,120
57,35,185520,120
60,35,185640,120
52,46,185760,120
62,35,185880,120
56,35,186000,120
62,35,186120,120
53,41,186240,120
60,32,186360,120
57,33,186480,120
60,33,186600,120
53,41,186720,120
60,35,186840,120
57,35,186960,120
60,35,187080,120
48,40,187210,120
57,36,187330,120
50,37,187450,120
57,38,187570,120
45,46,187690,120
57,40,187810,120
47,41,187930,120
57,42,188050,120
48,50,188170,120
57,43,188290,120
52,43,188410,120
57,43,188530,120
50,47,188650,120
57,39,188770,120
53,39,188890,120
57,39,189010,120
52,45,189130,120
60,35,189250,120
57,35,189370,120
60,35,189490,120
52,46,189610,120
62,35,189730,120
56,35,189850,120
62,35,189970,120
35,68,190080,120
47,80,190080,120
38,64,190320,120
50,76,190320,120
36,69,190560,480
48,82,190560,480
37,69,191040,120
49,81,191040,120
40,64,191280,120
52,76,191280,120
38,70,191520,480
50,82,191520,480
39,70,192000,120
51,83,192000,120
41,65,192240,120
53,77,192240,120
40,71,192480,480
52,84,192480,480
40,72,192960,120
52,84,192960,120
43,66,193200,120
55,79,193200,120
41,72,193440,480
53,85,193440,480
44,73,193920,120
56,86,193920,120
62,80,194160,120
59,67,194160,120
65,88,194400,960
62,74,194400,960
59,74,194400,960
56,74,194400,960
52,37,195360,480
56,37,195360,480
59,45,195360,480
48,45,195840,120
57,38,195960,120
52,38,196080,120
57,38,196200,120
50,42,196320,120
57,35,196440,120
53,35,196560,120
57,35,196680,120
52,40,196800,120
60,31,196920,120
57,31,197040,120
60,31,197160,120
52,41,197280,120
62,31,197400,120
56,31,197520,120
62,31,197640,120
48,32,197760,120
57,27,197880,120
52,27,198000,120
57,27,198120,120
50,29,198240,120
57,25,198360,120
53,25,198480,120
57,25,198600,120
52,28,198720,120
60,21,198840,120
57,21,198960,120
60,21,199080,120
52,28,199200,120
62,21,199320,120
56,21,199440,120
62,21,199560,120
35,68,199680,120
47,80,199680,120
38,64,199920,120
50,76,199920,120
36,69,200160,480
48,82,200160,480
37,68,200640,120
49,80,200640,120
40,64,200880,120
52,76,200880,120
38,69,201120,480
50,81,201120,480
39,70,201600,120
51,82,201600,120
41,63,201840,120
53,76,201840,120
40,70,202080,480
52,83,202080,480
40,71,202560,120
52,84,202560,120
43,65,202800,120
55,77,202800,120
41,71,203040,480
53,84,203040,480
42,72,203520,120
54,84,203520,120
45,66,203760,120
57,79,203760,120
44,72,204000,480
56,85,204000,480
44,73,204480,120
56,86,204480,120
47,66,204720,120
59,79,204720,120
45,74,204960,480
57,87,204960,480
58,77,205440,960
62,77,205440,960
65,77,205440,960
68,92,205440,959
51,36,213120,120
58,30,213240,120
55,31,213360,120
58,31,213480,120
63,36,213600,120
58,31,213720,120
55,31,213840,120
58,31,213960,120
51,36,214080,120
58,31,214200,120
55,31,214320,120
58,32,214440,120
63,36,214560,120
58,31,214680,120
55,31,214800,120
58,31,214920,120
51,36,215040,120
58,30,215160,120
55,31,215280,120
58,31,215400,120
63,36,215520,120
58,31,215640,120
55,31,215760,120
58,31,215880,120
51,36,216000,120
58,31,216120,120
55,31,216240,120
58,32,216360,120
63,36,216480,120
58,31,216600,120
55,31,216720,120
58,31,216840,120
46,40,216960,120
58,33,217080,120
56,34,217200,120
58,34,217320,120
62,40,217440,120
58,34,217560,120
56,34,217680,120
58,34,217800,120
46,40,217920,120
58,34,218040,120
56,34,218160,120
58,35,218280,120
62,40,218400,120
58,34,218520,120
56,34,218640,120
58,34,218760,120
46,40,218880,120
58,33,219000,120
56,34,219120,120
58,34,219240,120
62,40,219360,120
58,34,219480,120
56,34,219600,120
58,34,219720,120
46,40,219840,120
58,34,219960,120
56,34,220080,120
58,35,220200,120
62,40,220320,120
58,34,220440,120
56,34,220560,120
58,34,220680,120
51,40,220800,120
58,33,220920,120
55,34,221040,120
58,34,221160,120
63,40,221280,120
58,34,221400,120
55,34,221520,120
58,34,221640,120
51,40,221760,120
58,34,221880,120
55,34,222000,120
58,35,222120,120
63,40,222240,120
58,34,222360,120
55,34,222480,120
58,34,222600,120
51,40,222720,120
58,33,222840,120
55,34,222960,120
58,34,223080,120
63,40,223200,120
58,34,223320,120
55,34,223440,120
58,34,223560,120
51,40,223680,120
58,34,223800,120
55,34,223920,120
58,35,224040,120
63,40,224160,120
58,34,224280,120
55,34,224400,120
58,34,224520,120
46,44,224640,120
58,36,224760,120
56,36,224880,120
58,36,225000,120
62,44,225120,120
58,36,225240,120
56,36,225360,120
58,36,225480,120
46,44,225600,120
58,36,225720,120
56,36,225840,120
58,37,225960,120
62,44,226080,120
58,36,226200,120
56,36,226320,120
58,36,226440,120
46,44,226560,120
58,36,226680,120
56,36,226800,120
58,36,226920,120
62,44,227040,120
58,36,227160,120
56,36,227280,120
58,36,227400,120
46,44,227520,120
58,36,227640,120
56,36,227760,120
58,37,227880,120
62,44,228000,120
58,36,228120,120
56,36,228240,120
58,36,228360,120
51,44,228480,120
58,36,228600,120
55,36,228720,120
58,36,228840,120
63,44,228960,120
58,36,229080,120
55,36,229200,120
58,36,229320,120
43,44,229440,120
59,36,229560,120
55,36,229680,120
59,37,229800,120
65,44,229920,120
59,36,230040,120
55,36,230160,120
59,36,230280,120
48,44,230400,120
55,36,230520,120
51,36,230640,120
55,36,230760,120
60,44,230880,120
55,36,231000,120
51,36,231120,120
55,36,231240,120
39,44,231360,120
55,36,231480,120
51,36,231600,120
55,37,231720,120
61,44,231840,120
55,36,231960,120
51,36,232080,120
55,36,232200,120
44,44,232320,120
51,36,232440,120
48,36,232560,120
51,36,232680,120
56,42,232800,120
51,35,232920,120
48,34,233040,120
51,34,233160,120
37,40,233280,120
53,33,233400,120
49,33,233520,120
53,33,233640,120
58,38,233760,120
53,32,233880,120
49,31,234000,120
53,31,234120,120
39,36,234240,120
51,30,234360,120
48,30,234480,120
51,30,234600,120
56,36,234720,120
51,29,234840,120
48,28,234960,120
51,28,235080,120
39,34,235200,120
51,27,235320,120
49,27,235440,120
51,27,235560,120
58,32,235680,120
51,26,235800,120
49,26,235920,120
51,26,236040,120
56,26,236160,120
63,25,236280,120
60,26,236400,120
63,26,236520,120
68,29,236640,120
63,26,236760,120
60,26,236880,120
63,26,237000,120
56,29,237120,120
63,26,237240,120
60,26,237360,120
63,26,237480,120
67,29,237600,120
63,26,237720,120
68,26,237840,120
63,26,237960,120
56,29,238080,120
63,25,238200,120
60,26,238320,120
63,26,238440,120
68,29,238560,120
63,26,238680,120
60,26,238800,120
63,26,238920,120
56,29,239040,120
63,26,239160,120
60,26,239280,120
63,26,239400,120
67,29,239520,120
63,26,239640,120
68,26,239760,120
63,26,239880,120
51,31,240000,120
63,26,240120,120
61,27,240240,120
63,27,240360,120
67,31,240480,120
63,27,240600,120
61,27,240720,120
63,27,240840,120
51,31,240960,120
63,27,241080,120
65,27,241200,120
63,27,241320,120
62,31,241440,120
63,27,241560,120
61,27,241680,120
63,27,241800,120
51,31,241920,120
63,26,242040,120
61,27,242160,120
63,27,242280,120
67,31,242400,120
63,27,242520,120
61,27,242640,120
63,27,242760,120
51,31,242880,120
63,27,243000,120
65,27,243120,120
63,27,243240,120
62,31,243360,120
63,27,243480,120
61,27,243600,120
63,27,243720,120
56,46,243840,120
63,38,243960,120
60,38,244080,120
63,38,244200,120
68,46,244320,120
63,38,244440,120
60,38,244560,120
63,38,244680,120
48,46,244800,120
60,38,244920,120
55,38,245040,120
60,39,245160,120
64,46,245280,120
60,38,245400,120
55,38,245520,120
60,38,245640,120
53,46,245760,120
60,38,245880,120
56,38,246000,120
60,38,246120,120
65,46,246240,120
60,38,246360,120
56,38,246480,120
60,38,246600,120
44,46,246720,120
56,38,246840,120
51,38,246960,120
56,39,247080,120
60,46,247200,120
56,38,247320,120
51,38,247440,120
56,38,247560,120
49,49,247680,120
56,40,247800,120
53,40,247920,120
56,40,248040,120
61,47,248160,120
56,39,248280,120
53,38,248400,120
56,38,248520,120
42,45,248640,120
58,37,248760,120
54,37,248880,120
58,37,249000,120
63,43,249120,120
58,36,249240,120
54,35,249360,120
58,35,249480,120
44,41,249600,120
56,34,249720,120
53,34,249840,120
56,34,249960,120
61,40,250080,120
56,33,250200,120
53,32,250320,120
56,32,250440,120
44,38,250560,120
56,31,250680,120
54,31,250800,120
56,31,250920,120
63,36,251040,120
56,29,251160,120
54,29,251280,120
56,29,251400,120
53,57,251520,475
49,57,251520,475
56,57,251520,475
61,67,251520,475
53,51,252000,120
49,51,252000,120
56,51,252000,120
61,61,252000,120
53,51,252240,120
49,51,252240,120
56,51,252240,120
61,61,252240,120
53,58,252480,475
49,58,252480,475
56,58,252480,475
61,69,252480,475
49,52,252960,120
56,52,252960,120
61,63,252960,120
53,52,252966,120
53,52,253200,120
49,52,253200,120
56,52,253200,120
61,63,253200,120
53,58,253440,180
49,58,253440,180
56,58,253440,180
61,69,253440,180
61,52,253680,120
56,54,253800,120
53,56,253920,120
49,58,254040,120
44,59,254160,120
41,61,254280,120
37,62,254400,120
32,61,254520,120
37,60,254640,120
41,59,254760,120
44,58,254880,120
49,57,255000,120
53,57,255120,120
56,56,255240,120
53,57,255360,475
49,57,255360,475
46,57,255360,475
58,67,255360,475
53,51,255840,120
49,51,255840,120
46,51,255840,120
58,61,255840,120
53,51,256080,120
49,51,256080,120
46,51,256080,120
58,61,256080,120
53,58,256320,475
49,58,256320,475
46,58,256320,475
58,69,256320,475
49,52,256800,120
46,52,256800,120
58,63,256800,120
53,52,256806,120
53,52,257040,120
49,52,257040,120
46,52,257040,120
58,63,257040,120
53,58,257280,180
49,58,257280,180
46,58,257280,180
58,69,257280,180
61,53,257520,120
58,55,257640,120
53,57,257760,120
49,58,257880,120
46,60,258000,120
41,62,258120,120
37,64,258240,120
34,64,258360,120
37,63,258480,120
41,62,258600,120
46,61,258720,120
49,60,258840,120
53,59,258960,120
58,60,259080,120
54,51,259200,475
58,51,259200,475
61,59,259200,475
54,46,259680,120
58,46,259680,120
61,55,259680,120
54,46,259920,120
58,46,259920,120
61,55,259920,120
50,57,260160,475
54,57,260160,475
57,57,260160,475
62,67,260160,475
50,51,260640,120
57,51,260640,120
62,61,260640,120
54,51,260646,120
50,51,260880,120
54,51,260880,120
57,51,260880,120
62,61,260880,120
48,57,261120,180
51,57,261120,180
56,57,261120,180
60,67,261120,180
63,47,261360,120
61,48,261480,120
60,50,261600,120
61,51,261720,120
60,52,261840,120
58,54,261960,120
56,55,262080,120
58,53,262200,120
56,52,262320,120
58,52,262440,120
60,51,262560,120
61,51,262680,120
63,50,262800,120
65,50,262920,120
54,51,263040,475
58,51,263040,475
61,59,263040,475
54,46,263520,120
58,46,263520,120
61,55,263520,120
54,46,263760,120
58,46,263760,120
61,55,263760,120
50,57,264000,475
54,57,264000,475
57,57,264000,475
62,67,264000,475
50,51,264480,120
57,51,264480,120
62,61,264480,120
54,51,264486,120
50,51,264720,120
54,51,264720,120
57,51,264720,120
62,61,264720,120
48,57,264960,180
51,57,264960,180
56,57,264960,180
60,67,264960,180
63,47,265200,120
61,48,265320,120
60,50,265440,120
61,51,265560,120
60,51,265680,120
58,53,265800,120
56,55,265920,120
58,55,266040,120
56,53,266160,120
58,52,266280,120
60,50,266400,120
61,49,266520,120
63,48,266640,120
65,47,266760,120
54,55,266880,475
57,55,266880,475
61,55,266880,475
66,66,266880,475
54,38,267360,120
57,38,267360,120
61,38,267360,120
66,55,267360,120
54,46,267600,120
57,46,267600,120
61,46,267600,120
66,54,267600,120
50,51,267840,475
54,51,267840,475
57,51,267840,475
62,60,267840,475
54,47,268320,120
50,47,268320,120
57,47,268320,120
62,56,268320,120
50,48,268560,120
54,48,268560,120
57,48,268560,120
62,57,268560,120
52,54,268800,480
55,54,268800,480
59,54,268800,480
64,65,268800,480
48,47,269280,480
52,47,269280,480
57,47,269280,480
60,56,269280,480
50,53,269760,480
57,53,269760,480
62,63,269760,480
38,51,270240,480
50,61,270240,480
40,52,270720,480
52,61,270720,480
48,47,271200,480
52,47,271200,480
57,47,271200,480
60,55,271200,480
50,54,271680,480
57,54,271680,480
62,65,271680,480
38,57,272160,480
50,68,272160,480
43,61,272640,120
45,57,272760,120
43,57,272880,120
45,57,273000,120
47,61,273120,120
48,57,273240,120
47,57,273360,120
48,57,273480,120
50,63,273600,120
51,57,273720,120
50,57,273840,120
51,57,273960,120
53,61,274080,120
55,57,274200,120
53,57,274320,120
55,57,274440,120
44,67,274560,960
56,67,274560,960
32,66,275520,960
44,66,275520,960
41,61,276480,120
43,57,276600,120
41,57,276720,120
43,57,276840,120
44,61,276960,120
46,57,277080,120
44,57,277200,120
46,57,277320,120
48,63,277440,120
50,57,277560,120
48,57,277680,120
50,57,277800,120
51,61,277920,120
53,57,278040,120
51,57,278160,120
53,57,278280,120
43,67,278400,960
55,67,278400,960
31,66,279360,960
43,66,279360,960
39,61,280320,120
41,57,280440,120
39,57,280560,120
41,57,280680,120
43,61,280800,120
44,57,280920,120
43,57,281040,120
44,57,281160,120
46,63,281280,120
48,57,281400,120
46,57,281520,120
48,57,281640,120
50,61,281760,120
51,57,281880,120
50,57,282000,120
51,57,282120,120
41,67,282240,960
53,67,282240,960
29,66,283200,960
41,66,283200,960
39,67,284160,960
51,67,284160,960
27,66,285120,960
39,66,285120,960
49,67,286080,360
61,67,286080,360
37,60,286440,114
49,60,286440,114
37,67,286560,480
49,67,286560,480
48,70,287040,360
60,70,287040,360
36,63,287400,114
48,63,287400,114
36,70,287520,480
48,70,287520,480
46,70,288000,360
58,70,288000,360
34,63,288360,114
46,63,288360,114
34,70,288480,480
46,70,288480,480
44,73,288960,360
56,73,288960,360
32,65,289320,114
44,65,289320,114
32,73,289440,480
44,73,289440,480
31,75,289920,480
43,75,289920,480
67,70,290400,120
55,70,290400,120
55,70,290640,120
67,70,290640,120
67,73,290880,475
55,73,290880,475
67,70,291360,120
55,70,291360,120
67,70,291600,480
55,70,291600,480
53,70,292080,90
65,70,292080,90
52,70,292200,90
64,70,292200,90
53,73,292320,120
65,73,292320,120
41,67,292560,180
53,67,292560,180
44,68,292800,180
56,68,292800,180
48,68,293040,180
60,68,293040,180
50,68,293280,180
62,68,293280,180
52,68,293520,180
64,68,293520,180
53,75,293760,475
65,75,293760,475
65,70,294240,120
53,70,294240,120
53,70,294480,120
65,70,294480,120
65,73,294720,475
53,73,294720,475
65,70,295200,120
53,70,295200,120
65,70,295440,480
53,70,295440,480
51,70,295920,90
63,70,295920,90
50,70,296040,90
62,70,296040,90
51,73,296160,120
63,73,296160,120
39,67,296400,180
51,67,296400,180
43,68,296640,180
55,68,296640,180
46,68,296880,180
58,68,296880,180
48,68,297120,180
60,68,297120,180
50,68,297360,180
62,68,297360,180
51,75,297600,475
63,75,297600,475
63,70,298080,120
51,70,298080,120
51,70,298320,120
63,70,298320,120
63,73,298560,475
51,73,298560,475
63,70,299040,120
51,70,299040,120
63,70,299280,480
51,70,299280,480
49,70,299760,90
61,70,299760,90
48,70,299880,90
60,70,299880,90
49,73,300000,120
61,73,300000,120
49,67,300240,180
61,67,300240,180
44,68,300480,180
56,68,300480,180
41,68,300720,180
53,68,300720,180
44,68,300960,180
56,68,300960,180
49,68,301200,480
61,68,301200,480
48,70,301680,90
60,70,301680,90
47,70,301800,90
59,70,301800,90
48,73,301920,120
60,73,301920,120
48,67,302160,180
60,67,302160,180
43,68,302400,180
55,68,302400,180
39,68,302640,180
51,68,302640,180
43,68,302880,180
55,68,302880,180
48,68,303120,480
60,68,303120,480
46,52,303600,90
58,61,303600,90
45,53,303720,90
57,63,303720,90
46,58,303840,120
58,69,303840,120
34,51,304080,180
46,60,304080,180
46,68,304320,120
58,68,304320,120
44,52,304560,90
56,61,304560,90
43,53,304680,90
55,63,304680,90
44,58,304800,120
56,69,304800,120
32,51,305040,180
44,60,305040,180
44,68,305280,120
56,68,305280,120
43,52,305520,90
55,61,305520,90
42,53,305640,90
54,63,305640,90
43,58,305760,120
55,69,305760,120
31,51,306000,180
43,60,306000,180
43,68,306240,120
55,68,306240,120
41,52,306480,90
53,61,306480,90
40,53,306600,90
52,63,306600,90
41,58,306720,120
53,69,306720,120
42,64,306960,120
54,68,306960,120
43,58,307200,475
47,58,307200,475
50,58,307200,475
55,69,307200,475
43,55,307680,228
47,55,307680,228
50,55,307680,228
55,66,307680,228
43,55,307920,228
47,55,307920,228
50,55,307920,228
55,66,307920,228
36,58,308160,475
39,58,308160,475
44,58,308160,475
48,69,308160,475
36,57,308640,90
48,68,308640,90
38,60,308760,90
50,72,308760,90
39,63,308880,90
51,75,308880,90
41,67,309000,90
53,78,309000,90
43,58,309120,475
55,69,309120,475
55,55,309600,228
59,55,309600,228
62,55,309600,228
67,66,309600,228
55,55,309840,228
59,55,309840,228
62,55,309840,228
67,66,309840,228
48,58,310080,480
51,58,310080,480
56,58,310080,480
60,69,310080,480
48,57,310560,90
60,68,310560,90
50,60,310680,90
62,72,310680,90
51,63,310800,90
63,75,310800,90
53,67,310920,90
65,78,310920,90
55,55,311040,480
59,55,311040,480
62,55,311040,480
67,66,311040,480
48,57,311520,90
60,68,311520,90
50,60,311640,90
62,72,311640,90
51,63,311760,90
63,75,311760,90
53,67,311880,90
65,78,311880,90
55,55,312000,480
59,55,312000,480
62,55,312000,480
67,66,312000,480
48,57,312480,90
60,68,312480,90
50,60,312600,90
62,72,312600,90
51,63,312720,90
63,75,312720,90
53,67,312840,90
65,78,312840,90
55,55,312960,480
59,55,312960,480
62,55,312960,480
67,66,312960,480
36,58,313440,90
48,69,313440,90
38,63,313560,90
50,74,313560,90
39,66,313680,90
51,78,313680,90
41,70,313800,90
53,82,313800,90
43,58,313920,480
47,58,313920,480
50,58,313920,480
55,70,313920,480
36,64,314400,90
48,75,314400,90
38,67,314520,90
50,80,314520,90
39,70,314640,90
51,85,314640,90
41,75,314760,90
53,89,314760,90
43,56,314880,475
47,56,314880,475
50,63,314880,475
55,75,314880,475
41,56,318720,475
47,56,318720,475
50,63,318720,475
53,75,318720,475
41,56,322560,475
47,56,322560,475
49,63,322560,475
53,75,322560,475
42,56,324480,475
47,56,324480,475
50,63,324480,475
54,75,324480,475
41,56,326400,475
44,56,326400,475
49,63,326400,475
53,75,326400,475
42,56,328320,475
47,56,328320,475
50,63,328320,475
54,75,328320,475
41,56,330240,475
47,56,330240,475
50,63,330240,475
53,75,330240,475
29,56,331200,475
41,75,331200,475
30,53,332160,475
42,64,332160,475
33,49,333120,475
45,59,333120,475
37,47,334080,475
49,57,334080,475
40,46,335040,475
52,55,335040,475
44,44,336000,475
56,53,336000,475
45,47,336960,475
57,56,336960,475
44,44,337920,475
56,53,337920,475
32,32,339360,120
36,35,339480,120
39,38,339600,120
44,41,339720,120
45,44,339840,240
31,27,341280,120
34,29,341400,120
39,31,341520,120
43,34,341640,120
44,33,341760,240
32,24,343200,120
36,26,343320,120
39,28,343440,120
44,30,343560,120
45,33,343680,238
31,24,345120,120
34,26,345240,120
39,27,345360,120
43,30,345480,120
44,33,345600,238
44,23,347040,120
48,28,347040,120
44,23,347280,120
48,28,347280,120
44,28,347520,480
48,33,347520,480
44,23,348960,120
48,28,348960,120
44,23,349200,120
48,28,349200,120
44,28,349440,480
48,33,349440,480
45,23,350880,120
49,28,350880,120
45,23,351120,120
49,28,351120,120
45,28,351360,480
49,33,351360,480
45,23,352800,120
49,28,352800,120
45,23,353040,120
49,28,353040,120
48,28,353280,480
51,33,353280,480
48,23,354720,120
51,28,354720,120
48,23,354960,120
51,28,354960,120
48,28,355200,480
51,33,355200,480
48,28,356160,480
51,33,356160,480
48,28,357120,480
51,33,357120,480
48,27,358080,480
51,32,358080,480
48,26,359040,480
51,30,359040,480
48,25,360000,480
51,29,360000,480
