note,velocity,position,duration
73,40,0,60
72,51,60,60
72,45,240,120
73,39,360,120
72,46,480,60
73,40,720,60
72,49,780,60
72,44,960,120
73,36,1080,120
72,42,1200,60
72,40,1440,60
71,52,1500,60
71,47,1680,120
74,40,1800,120
72,45,1920,120
71,36,2040,120
72,46,2160,60
67,39,2400,480
72,46,2880,60
67,39,3120,60
72,46,3360,60
70,46,3600,240
68,39,3840,120
67,39,3960,120
65,43,4080,240
67,46,4320,120
70,38,4440,120
67,46,4560,120
70,40,4680,120
64,46,4800,120
67,40,4920,120
65,46,5040,120
68,37,5160,120
72,42,5280,120
77,47,5400,120
80,52,5520,120
82,57,5640,120
84,65,5760,60
84,54,6000,120
85,46,6120,120
84,55,6240,60
85,48,6480,60
84,64,6540,60
84,52,6720,120
85,43,6840,120
84,50,6960,60
84,61,7200,120
83,48,7320,120
89,56,7440,120
83,48,7560,120
89,54,7680,120
83,43,7800,120
84,55,7920,60
79,46,8160,480
84,57,8640,60
79,46,8880,60
84,55,9120,60
82,55,9360,240
80,46,9600,120
79,46,9720,120
77,51,9840,240
79,55,10080,120
82,45,10200,120
79,55,10320,120
82,48,10440,120
76,55,10560,120
79,48,10680,120
77,55,10800,240
65,68,11040,120
67,69,11160,120
68,71,11280,120
70,73,11400,120
72,74,11520,60
60,68,11760,60
72,75,12000,60
60,60,12240,60
72,74,12480,60
60,60,12720,60
70,59,12960,60
67,59,12960,60
65,46,13200,120
68,46,13200,120
64,46,13320,120
67,46,13320,120
68,46,13440,120
65,46,13440,120
70,46,13560,120
67,46,13560,120
67,52,13680,720
64,52,13680,720
72,74,14400,60
60,68,14640,60
72,75,14880,240
73,77,15120,240
61,62,15360,60
73,74,15600,60
68,52,15840,120
72,52,15840,120
70,46,15960,120
67,46,15960,120
68,44,16080,120
65,44,16080,120
67,42,16200,120
70,42,16200,120
68,40,16320,120
65,40,16320,120
64,38,16440,120
67,38,16440,120
65,49,16560,240
77,74,16800,120
79,75,16920,120
80,78,17040,120
82,80,17160,120
84,81,17280,60
72,74,17520,60
84,82,17760,60
72,66,18000,60
84,81,18240,60
72,66,18480,60
82,64,18720,60
79,64,18720,60
80,50,18960,120
77,50,18960,120
79,50,19080,120
76,50,19080,120
80,50,19200,120
77,50,19200,120
82,50,19320,120
79,50,19320,120
79,57,19440,720
76,57,19440,720
84,81,20160,60
72,74,20400,60
84,82,20640,240
85,84,20880,240
73,68,21120,60
85,81,21360,60
73,52,21600,120
70,52,21600,120
71,46,21720,120
68,46,21720,120
70,44,21840,120
66,44,21840,120
68,42,21960,120
71,42,21960,120
70,40,22080,120
66,40,22080,120
65,38,22200,120
68,38,22200,120
66,46,22320,120
70,46,22320,120
70,38,22560,120
66,38,22560,120
70,38,22800,120
66,38,22800,120
71,50,23040,120
65,42,23040,120
68,50,23040,120
68,51,23280,120
65,43,23280,120
71,51,23280,120
68,56,23520,120
71,56,23520,120
65,47,23520,120
80,59,23760,120
83,59,23760,120
77,50,23760,120
77,54,24000,120
80,64,24000,120
83,64,24000,120
83,70,24240,120
80,70,24240,120
77,59,24240,120
92,62,24480,120
96,74,24480,120
94,66,24600,120
91,56,24600,120
92,73,24720,120
89,61,24720,120
91,55,24840,120
94,64,24840,120
92,73,24960,120
89,61,24960,120
91,64,25080,120
88,55,25080,120
89,73,25200,120
65,68,25440,120
67,69,25560,120
68,71,25680,120
70,73,25800,120
72,74,25920,60
60,68,26160,60
72,75,26400,60
60,60,26640,60
72,74,26880,60
60,60,27120,60
67,59,27360,60
70,59,27360,60
65,46,27600,120
68,46,27600,120
67,46,27720,120
64,46,27720,120
68,46,27840,120
65,46,27840,120
67,46,27960,120
70,46,27960,120
64,52,28080,720
67,52,28080,720
72,74,28800,60
60,68,29040,60
72,75,29280,240
73,77,29520,240
61,62,29760,60
73,74,30000,60
68,52,30240,120
72,52,30240,120
70,46,30360,120
67,46,30360,120
68,44,30480,120
65,44,30480,120
67,42,30600,120
70,42,30600,120
65,40,30720,120
68,40,30720,120
67,38,30840,120
64,38,30840,120
65,49,30960,240
77,74,31200,120
79,75,31320,120
80,78,31440,120
82,80,31560,120
84,81,31680,60
72,74,31920,60
84,82,32160,60
72,66,32400,60
84,81,32640,60
72,66,32880,60
82,64,33120,60
79,64,33120,60
77,50,33360,120
80,50,33360,120
79,50,33480,120
76,50,33480,120
77,50,33600,120
80,50,33600,120
79,50,33720,120
82,50,33720,120
79,57,33840,720
76,57,33840,720
84,81,34560,60
72,74,34800,60
84,82,35040,240
85,84,35280,240
73,68,35520,60
85,81,35760,60
73,52,36000,120
70,52,36000,120
68,46,36120,120
71,46,36120,120
66,44,36240,120
70,44,36240,120
68,42,36360,120
71,42,36360,120
66,40,36480,120
70,40,36480,120
68,38,36600,120
65,38,36600,120
66,46,36720,120
70,46,36720,120
66,38,36960,120
70,38,36960,120
70,38,37200,120
66,38,37200,120
71,50,37440,120
68,50,37440,120
65,42,37440,120
68,51,37680,120
71,51,37680,120
65,43,37680,120
68,56,37920,120
71,56,37920,120
65,47,37920,120
83,59,38160,120
80,59,38160,120
77,50,38160,120
83,64,38400,120
80,64,38400,120
77,54,38400,120
77,59,38640,120
80,70,38640,120
83,70,38640,120
96,74,38880,120
92,62,38880,120
94,66,39000,120
91,56,39000,120
92,73,39120,120
89,61,39120,120
91,55,39240,120
94,64,39240,120
89,61,39360,120
92,73,39360,120
91,64,39480,120
88,55,39480,120
89,73,39600,120
91,73,39840,60
92,67,39900,60
91,58,39960,60
92,54,40020,60
91,58,40080,60
92,52,40140,60
91,58,40200,60
92,52,40260,60
91,58,40320,60
92,52,40380,60
91,58,40440,80
92,54,40520,80
91,58,40600,80
90,54,40680,60
91,56,40740,60
92,69,40800,120
91,61,40920,120
89,81,41040,120
79,73,41280,60
80,67,41340,60
79,58,41400,60
80,54,41460,60
79,58,41520,60
80,52,41580,60
79,58,41640,60
80,52,41700,60
79,58,41760,60
80,52,41820,60
79,58,41880,80
80,54,41960,80
79,58,42040,80
78,54,42120,60
79,56,42180,60
80,69,42240,120
79,63,42360,120
77,81,42480,120
91,73,42720,60
92,67,42780,60
91,58,42840,60
92,54,42900,60
91,58,42960,60
92,52,43020,60
91,58,43080,60
92,52,43140,60
90,58,43200,60
91,53,43260,60
92,54,43320,60
94,56,43380,60
96,57,43440,60
97,58,43500,60
100,60,43560,60
101,62,43620,60
100,63,43680,40
97,62,43720,40
96,61,43761,40
94,61,43801,40
92,60,43840,40
91,59,43880,40
89,81,43920,120
79,73,44160,60
80,53,44220,60
79,58,44280,60
80,54,44340,60
79,58,44400,60
80,52,44460,60
79,58,44520,60
80,52,44580,60
78,58,44640,48
79,53,44688,48
80,54,44736,48
82,56,44784,48
84,57,44832,48
85,58,44880,48
88,60,44928,48
89,62,44976,48
91,62,45024,48
89,62,45072,48
88,63,45120,33
85,63,45153,33
84,62,45186,33
82,61,45219,33
80,61,45252,33
79,60,45285,33
77,59,45318,42
76,58,45360,60
73,55,45420,60
72,53,45480,60
70,51,45540,60
68,49,45600,60
67,47,45660,60
66,45,45720,60
67,42,45780,60
68,40,45840,40
69,40,45880,40
70,39,45920,40
71,39,45960,40
72,37,46000,40
73,37,46040,40
72,56,46080,60
72,45,46320,120
73,39,46440,120
72,46,46560,60
73,40,46800,60
72,49,46860,60
72,44,47040,120
73,36,47160,120
72,42,47280,60
72,40,47520,120
71,52,47640,60
71,47,47760,120
74,40,47880,120
72,45,48000,120
71,36,48120,120
72,46,48240,60
67,39,48480,480
72,46,48960,60
67,39,49200,60
72,46,49440,60
70,46,49680,240
68,39,49920,120
67,39,50040,120
65,43,50160,240
67,46,50400,120
70,38,50520,120
67,46,50640,120
70,40,50760,120
64,46,50880,120
67,40,51000,120
65,46,51120,120
68,37,51240,120
72,42,51360,120
77,47,51480,120
80,52,51600,120
82,57,51720,120
84,65,51840,60
84,54,52080,120
85,46,52200,120
84,55,52320,60
85,48,52560,60
84,64,52620,60
84,52,52800,120
85,43,52920,120
84,50,53040,60
84,61,53280,120
83,48,53400,120
89,56,53520,120
83,48,53640,120
89,54,53760,120
83,43,53880,120
84,55,54000,60
79,46,54240,480
84,57,54720,60
79,46,54960,60
84,55,55200,60
82,62,55440,240
80,49,55680,120
79,49,55800,120
77,57,55920,240
82,61,56160,60
77,48,56400,60
82,57,56640,60
80,63,56880,240
79,50,57120,120
77,50,57240,120
75,55,57360,240
80,64,57600,60
75,49,57840,60
80,58,58080,60
81,63,58320,60
75,53,58560,60
81,61,58800,60
82,75,59040,60
74,69,59280,60
77,69,59280,60
86,80,59520,60
82,71,59760,60
77,71,59760,60
89,83,60000,60
82,73,60240,60
86,73,60240,60
92,78,60480,120
90,66,60600,120
89,77,60720,120
90,62,60840,120
87,71,60960,120
84,66,61200,120
81,61,61440,120
78,52,61680,120
82,75,61920,60
77,69,62160,60
74,69,62160,60
86,80,62400,60
77,71,62640,60
82,71,62640,60
89,83,62880,60
86,73,63120,60
82,73,63120,60
92,78,63360,120
90,66,63480,120
89,77,63600,120
90,62,63720,120
87,69,63840,120
84,66,64080,120
81,61,64320,120
78,52,64560,120
82,75,64800,60
77,69,65040,60
74,69,65040,60
83,77,65280,60
74,71,65520,60
77,71,65520,60
86,83,65760,60
83,73,66000,60
77,73,66000,60
84,75,66240,60
76,69,66480,60
79,69,66480,60
88,77,66720,60
79,71,66960,60
85,71,66960,60
91,83,67200,60
85,73,67440,60
82,73,67440,60
88,73,67440,60
89,75,67680,60
77,69,67920,60
84,69,67920,60
94,77,68160,60
82,71,68400,60
96,83,68640,60
84,73,68880,60
101,87,69120,120
89,73,69120,120
91,73,69360,60
92,67,69420,60
91,58,69480,60
92,54,69540,60
91,58,69600,60
92,52,69660,60
91,58,69720,60
92,52,69780,60
91,58,69840,60
92,52,69900,60
91,58,69960,80
92,54,70040,80
91,58,70120,80
90,54,70200,60
91,56,70260,60
92,64,70320,120
91,58,70440,120
89,81,70560,120
79,73,70800,60
80,67,70860,60
79,58,70920,60
80,54,70980,60
79,58,71040,60
80,52,71100,60
79,58,71160,60
80,52,71220,60
79,58,71280,60
80,52,71340,60
79,58,71400,80
80,54,71480,80
79,58,71560,80
78,54,71640,60
79,56,71700,60
80,64,71760,120
79,58,71880,120
77,81,72000,120
91,73,72240,60
92,67,72300,60
91,58,72360,60
92,54,72420,60
91,58,72480,60
92,52,72540,60
91,58,72600,60
92,52,72660,60
90,58,72720,60
91,53,72780,60
92,54,72840,60
94,56,72900,60
96,57,72960,60
97,58,73020,60
100,60,73080,60
101,62,73140,60
100,63,73200,40
97,62,73240,40
96,61,73281,40
94,61,73321,40
92,60,73360,40
91,59,73400,40
89,81,73440,120
79,73,73680,60
80,67,73740,60
79,58,73800,60
80,54,73860,60
79,58,73920,60
80,52,73980,60
79,58,74040,60
80,52,74100,60
78,58,74160,48
79,53,74208,48
80,54,74256,48
82,56,74304,48
84,57,74352,48
86,58,74400,48
88,60,74448,48
89,62,74496,48
91,62,74544,48
89,62,74592,48
88,60,74640,17
86,59,74657,17
84,57,74674,17
82,56,74691,17
80,55,74707,17
79,53,74724,17
77,51,74741,17
76,50,74758,17
73,48,74775,17
72,47,74791,22
70,46,74813,22
68,44,74835,22
67,42,74857,23
65,70,74880,240
73,67,75600,240
70,67,75600,240
75,67,75600,240
67,67,75600,240
79,79,75600,240
80,40,76320,120
82,39,76440,120
84,41,76560,120
85,43,76680,120
87,46,76800,120
85,46,76920,120
84,46,77040,120
82,45,77160,120
80,44,77280,120
79,43,77400,120
77,42,77520,120
75,41,77640,120
73,41,77760,120
72,39,77880,120
70,38,78000,120
68,38,78120,120
67,36,78240,120
68,35,78360,120
70,33,78480,120
72,33,78600,120
73,34,78720,120
75,36,78840,120
77,37,78960,120
79,39,79080,120
80,40,79200,120
82,39,79320,120
84,41,79440,120
85,43,79560,120
89,46,79673,120
87,46,79800,120
85,46,79920,120
84,45,80040,120
82,44,80160,120
80,43,80280,120
79,42,80400,120
77,41,80520,120
75,41,80640,120
77,33,80760,120
73,38,80880,120
75,32,81000,120
72,36,81120,120
75,29,81240,120
70,33,81360,120
75,30,81480,120
68,38,81600,120
75,31,81720,120
67,40,81840,120
75,33,81960,120
80,40,82080,120
82,39,82200,120
83,41,82320,120
85,43,82440,120
87,46,82560,120
85,46,82680,120
83,46,82800,120
82,45,82920,120
80,44,83040,120
78,43,83160,120
76,42,83280,120
75,41,83400,120
73,41,83520,120
71,39,83640,120
70,38,83760,120
68,38,83880,120
67,36,84000,120
68,35,84120,120
70,33,84240,120
71,33,84360,120
73,34,84480,120
75,36,84600,120
76,37,84720,120
79,39,84840,120
80,40,84960,120
82,39,85080,120
83,41,85200,120
85,43,85320,120
88,46,85440,120
87,46,85560,120
85,46,85680,120
83,45,85800,120
82,44,85920,120
80,43,86040,120
78,42,86160,120
76,41,86280,120
75,46,86400,240
73,38,86640,120
75,32,86760,120
71,36,86880,120
75,29,87000,120
70,33,87120,120
75,30,87240,120
68,38,87360,120
75,31,87480,120
67,40,87600,120
80,46,87840,120
82,44,87960,120
84,47,88080,120
85,49,88200,120
87,52,88320,120
85,52,88440,120
84,52,88560,120
82,51,88680,120
80,50,88800,120
79,49,88920,120
77,48,89040,120
75,47,89160,120
73,47,89280,120
72,44,89400,120
70,43,89520,120
68,43,89640,120
67,41,89760,120
68,40,89880,120
70,37,90000,120
72,37,90120,120
73,39,90240,120
75,41,90360,120
77,42,90480,120
79,44,90600,120
80,46,90720,120
82,47,90840,120
84,49,90960,120
85,52,91080,120
87,54,91200,120
89,56,91320,120
91,59,91440,120
92,61,91560,120
94,63,91680,120
96,66,91800,120
97,68,91920,120
99,70,92040,120
101,73,92160,120
99,73,92280,120
97,72,92400,120
96,71,92520,120
94,70,92640,120
92,69,92760,120
91,68,92880,120
89,67,93000,120
87,66,93120,120
85,66,93240,120
84,65,93360,120
82,64,93480,120
80,67,93600,120
82,68,93720,120
83,69,93840,120
85,71,93960,120
87,72,94080,120
85,73,94200,120
83,74,94320,120
82,73,94440,120
80,71,94560,120
78,70,94680,120
76,68,94800,120
75,67,94920,120
73,65,95040,120
71,64,95160,120
70,62,95280,120
68,61,95400,120
67,59,95520,120
68,58,95640,120
70,56,95760,120
71,55,95880,120
73,56,96000,120
75,58,96120,120
76,60,96240,120
79,62,96360,120
80,65,96480,120
82,63,96600,120
83,65,96720,120
85,66,96840,120
87,67,96960,120
89,68,97080,120
91,69,97200,120
92,70,97320,120
94,72,97440,120
95,73,97560,120
97,74,97680,120
99,75,97800,120
100,76,97920,120
99,77,98040,120
97,72,98160,120
95,71,98280,120
94,70,98400,120
92,69,98520,120
91,71,98640,120
88,68,98760,120
87,65,98880,120
85,62,99000,120
83,60,99120,120
82,57,99240,120
87,63,99360,120
85,62,99480,120
83,60,99600,120
82,58,99720,120
80,57,99840,120
78,55,99960,120
76,53,100080,120
75,52,100200,120
73,50,100320,120
71,48,100440,120
70,46,100560,120
68,45,100680,120
69,46,100800,120
73,43,100920,120
69,48,101040,120
73,42,101160,120
76,53,101280,120
67,46,101520,120
70,43,101640,120
67,48,101760,120
70,42,101880,120
75,53,102000,120
99,70,102240,120
97,69,102360,120
95,67,102480,120
94,65,102600,120
92,63,102720,120
90,62,102840,120
88,60,102960,120
87,58,103080,120
85,57,103200,120
83,55,103320,120
82,53,103440,120
80,52,103560,120
81,50,103680,120
85,45,103800,120
81,52,103920,120
85,46,104040,120
88,54,104160,120
79,51,104400,120
82,44,104520,120
79,51,104640,120
82,45,104760,120
87,53,104880,120
92,70,105120,120
87,68,105240,120
85,66,105360,120
83,64,105480,120
82,62,105600,80
80,60,105680,80
78,59,105760,80
76,57,105840,120
75,55,105960,120
73,53,106080,120
71,51,106200,120
70,49,106320,120
68,47,106440,120
69,51,106560,120
73,45,106680,120
69,50,106800,120
73,45,106920,120
76,50,107040,480
75,39,107520,240
67,34,107760,240
68,42,108000,120
71,35,108120,120
68,42,108240,120
71,35,108360,120
80,53,108480,120
70,42,108720,120
73,35,108840,120
70,42,108960,120
73,35,109080,120
82,53,109200,120
71,42,109440,120
75,35,109560,120
71,42,109680,120
75,35,109800,120
83,53,109920,120
70,39,110160,60
73,39,110160,60
82,46,110160,60
73,36,110400,60
70,36,110400,60
82,43,110400,60
68,36,110640,60
71,36,110640,60
80,43,110640,60
67,42,110880,120
70,35,111000,120
67,42,111120,120
70,35,111240,120
79,53,111360,120
68,42,111600,120
71,35,111720,120
68,42,111840,120
71,35,111960,120
80,53,112080,120
70,42,112320,120
73,35,112440,120
70,42,112560,120
73,35,112680,120
82,53,112800,120
71,39,113040,60
68,39,113040,60
80,46,113040,60
68,36,113280,60
80,43,113280,60
71,36,113280,60
70,36,113520,60
79,43,113520,60
67,36,113520,60
68,46,113760,120
71,38,113880,120
68,46,114000,120
71,38,114120,120
80,58,114240,120
70,46,114480,120
73,38,114600,120
70,46,114720,120
73,38,114840,120
82,58,114960,120
71,46,115200,120
75,38,115320,120
71,46,115440,120
75,38,115560,120
83,58,115680,120
76,50,115920,60
85,59,115920,60
73,50,115920,60
76,46,116160,60
73,46,116160,60
85,55,116160,60
78,46,116400,60
75,46,116400,60
87,55,116400,60
71,46,116640,120
75,38,116760,120
71,46,116880,120
75,38,117000,120
83,58,117120,120
85,59,117360,60
73,50,117360,60
76,50,117360,60
76,46,117600,60
73,46,117600,60
85,55,117600,60
75,46,117840,60
78,46,117840,60
87,55,117840,60
70,52,118080,120
75,43,118200,120
70,52,118320,120
75,43,118440,120
82,66,118560,180
71,52,118800,120
75,43,118920,120
71,52,119040,120
75,43,119160,120
83,66,119280,180
73,52,119520,120
76,43,119640,120
73,52,119760,120
76,43,119880,120
85,66,120000,180
75,57,120240,60
83,67,120240,60
80,57,120240,60
71,57,120240,60
75,52,120480,60
83,63,120480,60
71,52,120480,60
80,52,120480,60
70,52,120720,60
82,63,120720,60
75,52,120720,60
79,52,120720,60
70,57,120960,120
75,47,121080,120
70,57,121200,120
75,47,121320,120
82,72,121440,180
71,57,121680,120
75,47,121800,120
71,57,121920,120
75,47,122040,120
83,72,122160,180
73,57,122400,120
76,47,122520,120
73,57,122640,120
76,47,122760,120
85,72,122880,180
83,67,123120,60
80,57,123120,60
71,57,123120,60
75,57,123120,60
83,63,123360,60
71,52,123360,60
80,52,123360,60
75,52,123360,60
79,52,123600,60
70,52,123600,60
82,63,123600,60
75,52,123600,60
73,62,123840,120
82,51,123960,120
73,62,124080,120
82,51,124200,120
85,79,124320,180
75,62,124560,120
83,51,124680,120
75,62,124800,120
83,51,124920,120
87,79,125040,180
76,62,125280,120
85,51,125400,120
76,62,125520,120
85,51,125640,120
88,79,125760,180
85,73,126000,60
82,62,126000,60
73,62,126000,60
82,57,126240,60
73,57,126240,60
85,69,126240,60
70,57,126480,60
82,69,126480,60
79,57,126480,60
76,62,126720,120
85,51,126840,120
76,62,126960,120
85,51,127080,120
88,79,127200,180
73,62,127440,60
82,62,127440,60
85,73,127440,60
85,69,127680,60
73,57,127680,60
82,57,127680,60
70,57,127920,60
79,57,127920,60
82,69,127920,60
76,62,128160,120
85,51,128280,120
76,62,128400,120
85,51,128520,120
88,79,128640,180
79,68,128880,120
88,56,129000,120
79,68,129120,120
88,57,129240,120
91,89,129360,180
82,71,129600,120
91,58,129720,120
82,71,129840,120
91,59,129960,120
94,93,130080,180
85,74,130320,120
94,61,130440,120
85,75,130560,120
94,62,130680,120
97,97,130800,180
88,77,131040,120
97,63,131160,120
88,78,131280,120
97,64,131400,120
100,101,131520,180
76,42,132480,120
85,35,132600,120
76,42,132720,120
85,35,132840,120
88,53,132960,120
76,42,133200,120
85,35,133320,120
76,42,133440,120
85,35,133560,120
88,53,133680,120
76,42,133920,120
85,35,134040,120
76,42,134160,120
85,35,134280,120
88,53,134400,120
83,39,134640,60
74,39,134640,60
86,46,134640,60
83,36,134880,60
86,43,134880,60
74,36,134880,60
85,43,135120,60
73,36,135120,60
81,36,135120,60
74,42,135360,120
83,35,135480,120
74,42,135600,120
83,35,135720,120
86,53,135840,120
74,42,136080,120
83,35,136200,120
74,42,136320,120
83,35,136440,120
86,53,136560,120
74,42,136800,120
83,35,136920,120
74,42,137040,120
83,35,137160,120
86,53,137280,120
81,39,137520,60
85,46,137520,60
73,39,137520,60
73,36,137760,60
85,43,137760,60
81,36,137760,60
80,36,138000,60
83,43,138000,60
71,36,138000,60
76,42,138240,120
85,35,138360,120
76,42,138480,120
85,35,138600,120
88,53,138720,120
76,42,138960,120
85,35,139080,120
76,42,139200,120
85,35,139320,120
88,53,139440,120
76,42,139680,120
85,35,139800,120
76,42,139920,120
85,35,140040,120
88,53,140160,120
92,60,140400,60
80,50,140400,60
88,50,140400,60
80,46,140640,60
92,56,140640,60
88,46,140640,60
81,46,140880,60
88,46,140880,60
93,56,140880,60
74,42,141120,120
83,35,141240,120
74,42,141360,120
83,35,141480,120
86,53,141600,120
74,42,141840,120
83,35,141960,120
74,42,142080,120
83,35,142200,120
86,53,142320,120
74,42,142560,120
83,35,142680,120
74,42,142800,120
83,35,142920,120
86,53,143040,120
81,50,143280,60
85,50,143280,60
93,60,143280,60
81,46,143520,60
93,56,143520,60
85,46,143520,60
83,46,143760,60
86,46,143760,60
95,56,143760,60
73,46,144000,120
81,38,144120,120
73,47,144240,120
81,39,144360,120
85,60,144480,120
71,49,144720,120
80,41,144840,120
71,50,144960,120
80,42,145080,120
83,64,145200,120
73,52,145440,120
81,44,145560,120
73,53,145680,120
81,44,145800,120
85,68,145920,120
74,55,146160,120
83,46,146280,120
74,56,146400,120
83,47,146520,120
86,72,146640,120
84,74,146880,120
87,66,147000,120
84,71,147120,120
87,62,147240,120
92,74,147360,120
91,65,147480,120
89,73,147600,120
87,60,147720,120
85,66,147840,120
84,64,147960,120
82,62,148080,120
80,60,148200,120
79,58,148320,120
77,56,148440,120
75,54,148560,120
73,52,148680,120
72,50,148800,120
70,48,148920,120
68,45,149040,120
67,44,149160,120
65,41,149280,120
64,39,149400,120
63,37,149520,240
87,74,149760,120
92,66,149880,120
87,71,150000,120
92,62,150120,120
96,74,150240,120
94,65,150360,120
92,73,150480,120
91,60,150600,120
89,66,150720,120
87,64,150840,120
85,62,150960,120
84,60,151080,120
82,58,151200,120
80,56,151320,120
79,54,151440,120
77,52,151560,120
75,50,151680,120
73,48,151800,120
72,45,151920,120
70,44,152040,120
68,41,152160,120
67,39,152280,120
65,37,152400,120
63,37,152520,120
92,76,152640,120
96,66,152760,120
92,71,152880,120
96,62,153000,120
99,77,153120,120
97,69,153240,120
96,79,153360,120
94,71,153480,120
92,74,153600,120
91,72,153720,120
89,70,153840,120
87,68,153960,120
85,65,154080,120
84,63,154200,120
82,61,154320,120
80,59,154440,120
79,57,154560,120
77,54,154680,120
75,52,154800,80
73,52,154880,80
72,53,154960,80
70,53,155040,60
68,54,155100,60
67,55,155160,60
65,56,155220,60
63,57,155280,60
61,58,155340,60
60,60,155400,60
58,61,155460,60
56,70,155520,240
56,70,155760,132
60,62,155880,132
63,70,156000,132
61,68,156120,132
60,68,156240,132
58,67,156360,132
56,66,156480,132
55,65,156600,132
53,64,156720,132
51,63,156840,132
49,62,156960,132
48,61,157080,132
46,60,157200,132
44,59,157320,132
43,58,157440,132
44,57,157560,132
46,56,157680,132
48,58,157800,132
49,59,157920,132
51,60,158040,132
53,61,158160,132
55,62,158280,132
56,63,158400,132
58,64,158520,132
60,65,158640,132
61,66,158760,132
63,67,158880,132
65,68,159000,132
67,70,159120,132
68,71,159240,132
70,73,159360,132
72,74,159480,132
73,76,159600,132
75,78,159720,132
77,79,159840,132
75,79,159960,132
73,77,160080,132
72,75,160200,132
70,73,160320,132
68,71,160440,132
67,69,160560,132
65,67,160680,132
63,65,160800,132
61,63,160920,132
60,61,161040,132
58,59,161160,132
56,62,161280,240
68,49,161520,132
72,43,161640,132
75,49,161760,132
73,47,161880,132
72,47,162000,132
70,46,162120,132
68,46,162240,132
67,45,162360,132
65,44,162480,132
63,44,162600,132
61,43,162720,132
60,42,162840,132
58,42,162960,132
56,41,163080,132
55,40,163200,132
56,39,163320,132
58,39,163440,132
60,40,163560,132
61,41,163680,132
63,42,163800,132
65,42,163920,132
67,43,164040,132
68,44,164160,132
70,44,164280,132
72,45,164400,132
73,46,164520,132
75,46,164640,132
77,47,164760,132
79,49,164880,132
80,49,165000,132
82,51,165120,132
84,51,165240,132
85,53,165360,132
87,54,165480,132
89,55,165600,132
87,55,165720,132
85,53,165840,132
84,52,165960,132
82,51,166080,132
80,49,166200,132
79,48,166320,132
77,46,166440,132
75,45,166560,132
73,44,166680,132
72,42,166800,132
70,41,166920,132
68,43,167040,240
68,70,167280,132
71,62,167400,132
75,70,167520,132
73,68,167640,132
71,68,167760,132
70,67,167880,132
68,66,168000,132
66,65,168120,132
64,64,168240,132
63,63,168360,132
61,62,168480,132
59,61,168600,132
58,60,168720,132
56,59,168840,132
55,58,168960,132
56,57,169080,132
58,56,169200,132
59,58,169320,132
61,59,169440,132
63,60,169560,132
65,61,169680,132
67,62,169800,132
68,63,169920,132
70,65,170040,132
71,67,170160,132
73,68,170280,132
75,70,170400,132
77,72,170520,132
79,74,170640,132
80,76,170760,132
82,78,170880,132
83,80,171000,132
85,83,171120,132
87,85,171240,132
88,90,171360,132
86,89,171480,132
85,88,171600,132
83,86,171720,132
81,85,171840,132
80,83,171960,132
78,82,172080,132
76,81,172200,132
74,79,172320,132
73,78,172440,132
71,76,172560,132
69,75,172680,132
68,74,172800,132
66,72,172920,132
64,71,173040,132
62,69,173160,132
61,68,173280,132
59,67,173400,132
57,69,173520,132
56,71,173640,132
54,73,173760,132
52,75,173880,132
50,77,174000,89
49,78,174081,88
47,79,174160,80
45,78,174240,120
49,67,174360,120
45,78,174480,120
49,65,174600,120
52,73,174720,240
49,62,174960,120
52,53,175080,120
49,62,175200,120
52,52,175320,120
57,58,175440,240
52,62,175680,120
57,53,175800,120
52,62,175920,120
57,52,176040,120
61,58,176160,240
57,62,176400,120
61,53,176520,120
57,62,176640,120
61,52,176760,120
64,58,176880,240
61,62,177120,120
64,53,177240,120
61,62,177360,120
64,52,177480,120
69,58,177600,240
64,62,177840,120
69,53,177960,120
64,62,178080,120
69,52,178200,120
73,58,178320,240
69,58,178560,120
73,46,178680,120
69,56,178800,120
73,45,178920,120
76,58,179040,240
71,49,179280,120
74,42,179400,120
71,49,179520,120
74,41,179640,120
83,54,179760,240
72,49,180000,120
75,42,180120,120
72,49,180240,120
75,41,180360,120
84,54,180480,120
75,49,180720,120
84,42,180840,120
75,49,180960,120
84,41,181080,120
87,56,181200,120
73,49,181440,120
82,42,181560,120
73,49,181680,120
82,41,181800,120
85,55,181920,120
70,49,182160,120
79,42,182280,120
70,49,182400,120
79,41,182520,120
82,55,182640,120
72,49,182880,120
75,42,183000,120
72,49,183120,120
75,41,183240,120
84,56,183360,120
80,57,183600,120
87,47,183720,120
80,56,183840,120
87,49,183960,120
92,59,184080,120
79,58,184320,120
85,50,184440,120
79,58,184560,120
85,49,184680,120
91,65,184800,120
73,58,185040,120
79,50,185160,120
73,58,185280,120
79,49,185400,120
85,66,185520,120
72,58,185760,120
80,50,185880,120
72,58,186000,120
80,49,186120,120
84,66,186240,120
87,72,186480,120
96,64,186600,120
87,73,186720,120
96,64,186840,120
99,78,186960,120
85,70,187200,120
94,61,187320,120
85,71,187440,120
94,61,187560,120
97,78,187680,120
82,69,187920,120
91,60,188040,120
82,67,188160,120
91,61,188280,120
94,75,188400,120
72,49,188640,120
79,42,188760,120
72,49,188880,120
79,41,189000,120
84,46,189120,120
72,49,189360,120
79,42,189480,120
72,49,189600,120
79,41,189720,120
84,46,189840,120
79,49,190080,120
84,42,190200,120
79,49,190320,120
84,41,190440,120
91,46,190560,120
84,49,190800,120
91,42,190920,120
84,49,191040,120
91,41,191160,120
96,46,191280,120
84,53,191520,120
87,46,191640,120
84,58,191760,120
87,50,191880,120
92,61,192000,120
91,49,192120,120
89,64,192240,120
87,51,192360,120
85,52,192480,120
84,51,192600,120
82,50,192720,120
80,49,192840,120
79,47,192960,120
77,46,193080,120
75,45,193200,120
73,44,193320,120
72,42,193440,120
70,41,193560,120
68,40,193680,120
67,38,193800,120
65,37,193920,120
64,36,194040,120
63,34,194160,240
72,58,194400,120
79,50,194520,120
72,58,194640,120
79,49,194760,120
84,55,194880,120
72,58,195120,120
79,50,195240,120
72,58,195360,120
79,49,195480,120
84,55,195600,120
79,58,195840,120
84,50,195960,120
79,58,196080,120
84,49,196200,120
91,55,196320,120
84,58,196560,120
91,50,196680,120
84,58,196800,120
91,49,196920,120
96,55,197040,120
87,63,197280,120
92,55,197400,120
87,69,197520,120
92,60,197640,120
96,73,197760,120
94,58,197880,120
92,76,198000,120
91,61,198120,120
89,62,198240,120
87,61,198360,120
85,60,198480,120
84,58,198600,120
82,56,198720,120
80,55,198840,120
79,54,198960,120
77,52,199080,120
75,50,199200,120
73,49,199320,120
72,48,199440,120
70,45,199560,120
68,44,199680,80
67,43,199760,80
65,42,199840,80
63,40,199920,240
72,69,200160,120
79,60,200280,120
72,69,200400,120
79,58,200520,120
84,66,200640,120
72,69,200880,120
79,60,201000,120
72,69,201120,120
79,58,201240,120
84,66,201360,120
79,69,201600,120
84,60,201720,120
79,69,201840,120
84,58,201960,120
91,66,202080,120
84,69,202320,120
91,60,202440,120
84,69,202560,120
91,58,202680,120
96,66,202800,120
91,75,203040,120
96,66,203160,120
91,82,203280,120
96,72,203400,120
100,87,203520,120
98,69,203640,120
96,87,203760,120
95,73,203880,120
93,74,204000,120
91,73,204120,120
89,72,204240,120
88,69,204360,120
86,67,204480,120
84,66,204600,120
83,64,204720,120
81,62,204840,120
79,60,204960,81
77,58,205041,80
76,57,205120,80
74,54,205200,120
72,52,205320,120
71,51,205440,120
69,51,205560,120
67,48,205680,240
92,76,205920,120
96,66,206040,120
92,71,206160,120
96,68,206280,120
99,77,206400,120
97,69,206520,120
96,82,206640,120
94,71,206760,120
92,80,206880,120
91,78,207000,120
89,77,207120,120
87,75,207240,120
85,74,207360,120
84,72,207480,120
82,70,207600,120
80,69,207720,120
79,67,207840,120
77,66,207960,120
75,64,208080,80
73,61,208160,80
72,63,208240,80
70,65,208320,81
68,66,208401,80
67,68,208480,80
65,69,208560,48
63,70,208608,48
61,71,208656,48
60,72,208704,48
58,73,208752,48
56,90,208800,240
68,77,209040,132
72,68,209160,132
75,77,209280,132
73,74,209400,132
72,74,209520,132
70,73,209640,132
68,72,209760,132
67,71,209880,132
65,70,210000,132
63,69,210120,132
61,68,210240,132
60,67,210360,132
58,66,210480,132
56,64,210600,132
55,63,210720,132
53,62,210840,132
51,61,210960,132
53,65,211080,132
51,67,211200,132
49,69,211320,132
48,71,211440,132
46,73,211560,132
44,78,211680,120
48,67,211800,120
44,78,211920,120
48,65,212040,120
51,73,212160,120
44,78,212400,120
48,67,212520,120
44,78,212640,120
48,65,212760,120
51,73,212880,120
44,78,213120,120
48,67,213240,120
44,78,213360,120
48,65,213480,120
51,73,213600,120
44,78,213840,120
48,67,213960,120
44,78,214080,120
48,65,214200,120
51,73,214320,120
44,70,214560,120
48,59,214680,120
44,67,214800,120
48,55,214920,120
51,61,215040,120
48,62,215280,120
51,52,215400,120
48,60,215520,120
51,48,215640,120
56,54,215760,120
51,54,216000,120
56,46,216120,120
51,52,216240,120
56,42,216360,120
60,46,216480,120
56,46,216720,120
60,39,216840,120
56,44,216960,120
60,35,217080,120
63,39,217200,120
56,46,217440,120
60,39,217560,120
56,46,217680,120
60,39,217800,120
63,46,217920,120
61,46,218040,120
60,42,218160,132
60,47,220560,132
61,50,220680,132
63,52,220800,132
64,55,220920,110
58,58,221040,2880
61,58,221040,2880
64,58,221040,2880
68,46,224640,120
72,39,224760,120
68,46,224880,120
72,39,225000,120
75,46,225120,120
73,43,225240,120
72,45,225360,132
70,45,225480,120
68,44,225600,120
67,44,225720,120
65,43,225840,120
63,42,225960,120
61,42,226080,120
60,41,226200,120
58,41,226320,120
56,40,226440,120
55,40,226560,120
56,40,226680,120
58,41,226800,120
60,41,226920,120
61,42,227040,120
63,42,227160,120
65,43,227280,120
67,44,227400,120
68,44,227520,120
70,47,227640,120
72,47,227760,132
73,50,227880,132
75,52,228000,132
76,55,228120,120
76,58,228240,2880
70,58,228240,2880
73,58,228240,2880
79,42,231840,120
82,43,231960,120
85,45,232080,120
84,46,232200,120
82,47,232320,120
80,46,232440,120
79,45,232560,120
77,45,232680,120
76,44,232800,120
73,43,232920,120
72,42,233040,120
73,41,233160,120
76,43,233280,120
77,45,233400,120
79,47,233520,120
80,48,233640,120
82,49,233760,120
84,49,233880,120
85,53,234000,2160
82,53,234000,2160
79,53,234000,2160
88,42,236880,120
91,43,237000,120
94,45,237120,120
92,46,237240,120
91,47,237360,120
89,46,237480,120
88,45,237600,120
85,45,237720,120
84,44,237840,120
82,43,237960,120
81,42,238080,120
82,41,238200,120
84,43,238320,120
85,45,238440,120
88,47,238560,120
89,48,238680,120
91,49,238800,120
92,49,238920,120
88,53,239040,2160
91,53,239040,2160
94,53,239040,2160
77,48,241920,2160
80,48,241920,2160
83,48,241920,2160
72,38,244800,2160
67,38,244800,2160
64,38,244800,2160
72,51,246960,60
60,43,247200,60
72,51,247440,60
60,44,247680,60
72,51,247920,60
60,42,248160,60
73,40,249840,60
72,51,249900,60
72,45,250080,120
73,39,250200,120
72,46,250320,60
72,49,250560,60
72,44,250800,60
72,42,251040,60
73,40,251280,60
72,51,251340,60
72,45,251520,120
73,39,251640,120
72,46,251760,60
72,49,252000,60
72,44,252240,60
72,42,252480,60
73,40,252720,60
72,51,252780,60
72,45,252960,120
73,39,253080,120
72,46,253200,60
73,40,253440,60
72,51,253500,60
72,45,253680,120
73,39,253800,120
72,46,253920,60
72,51,254160,60
72,52,254400,60
72,54,254640,60
72,56,254880,60
72,56,255120,60
72,53,255360,60
73,40,255600,60
72,51,255660,60
72,45,255840,120
73,39,255960,120
72,46,256080,60
73,40,256320,60
72,49,256380,60
72,44,256560,120
73,36,256680,120
72,42,256800,60
72,40,257040,120
71,52,257160,110
71,47,257280,120
74,40,257400,120
72,45,257520,120
71,36,257640,120
72,46,257760,60
67,39,258000,480
72,46,258480,60
67,39,258720,60
72,46,258960,60
70,46,259200,240
68,39,259440,120
67,39,259560,120
65,43,259680,240
67,46,259920,120
70,38,260040,120
67,46,260160,120
70,40,260280,120
64,46,260400,120
67,40,260520,120
65,46,260640,120
68,37,260760,120
72,42,260880,120
77,47,261000,120
80,52,261120,120
82,57,261240,120
84,65,261360,60
84,54,261600,120
85,46,261720,120
84,55,261840,60
85,48,262080,60
84,64,262140,60
84,52,262320,120
85,43,262440,120
84,50,262560,60
84,61,262800,120
83,48,262920,120
89,56,263040,120
83,48,263160,120
89,54,263280,120
83,43,263400,120
84,55,263520,60
79,46,263760,240
84,57,264240,60
79,46,264480,60
84,55,264720,60
82,55,264960,240
80,46,265200,120
79,46,265320,120
77,51,265440,240
79,55,265680,120
82,45,265800,120
79,55,265920,120
82,48,266040,120
76,55,266160,120
79,48,266280,120
77,55,266400,240
65,68,266640,120
67,69,266760,120
68,71,266880,120
70,73,267000,120
72,74,267120,60
60,68,267360,60
72,75,267600,60
60,60,267840,60
72,74,268080,60
60,60,268320,60
67,59,268560,60
70,59,268560,60
68,46,268800,120
65,46,268800,120
67,46,268920,120
64,46,268920,120
68,46,269040,120
65,46,269040,120
67,46,269160,120
70,46,269160,120
67,52,269280,720
64,52,269280,720
72,74,270000,60
60,68,270240,60
72,75,270480,240
73,77,270720,240
61,62,270960,60
73,74,271200,60
68,52,271440,120
72,52,271440,120
70,46,271560,120
67,46,271560,120
68,44,271680,120
65,44,271680,120
70,42,271800,120
67,42,271800,120
65,40,271920,120
68,40,271920,120
64,38,272040,120
67,38,272040,120
65,49,272160,240
77,74,272400,120
79,75,272520,120
80,78,272640,120
82,80,272760,120
84,81,272880,60
72,74,273120,60
84,82,273360,60
72,66,273600,60
84,81,273840,60
72,66,274080,60
82,64,274320,60
79,64,274320,60
77,50,274560,120
80,50,274560,120
76,50,274680,120
79,50,274680,120
77,50,274800,120
80,50,274800,120
79,50,274920,120
82,50,274920,120
79,57,275040,720
76,57,275040,720
84,81,275760,60
72,74,276000,60
84,82,276240,240
85,84,276480,240
73,68,276720,60
85,81,276960,60
73,52,277200,120
70,52,277200,120
68,46,277320,120
71,46,277320,120
66,44,277440,120
70,44,277440,120
68,42,277560,120
71,42,277560,120
66,40,277680,120
70,40,277680,120
65,38,277800,120
68,38,277800,120
66,46,277920,120
70,46,277920,120
70,38,278160,120
66,38,278160,120
70,38,278400,120
66,38,278400,120
65,42,278640,120
68,50,278640,120
71,50,278640,120
71,51,278880,120
68,51,278880,120
65,43,278880,120
68,56,279120,120
65,47,279120,120
71,56,279120,120
77,50,279360,120
83,59,279360,120
80,59,279360,120
80,64,279600,120
77,54,279600,120
83,64,279600,120
83,70,279840,120
77,59,279840,120
80,70,279840,120
96,74,280080,120
92,62,280080,120
94,66,280200,120
91,56,280200,120
89,61,280320,120
92,73,280320,120
91,55,280440,120
94,64,280440,120
92,73,280560,120
89,61,280560,120
91,64,280680,120
88,55,280680,120
89,73,280800,120
91,73,281040,60
92,67,281100,60
91,58,281160,60
92,54,281220,60
91,58,281280,60
92,52,281340,60
91,58,281400,60
92,52,281460,60
91,58,281520,60
92,52,281580,60
91,58,281640,80
92,54,281720,80
91,58,281800,80
90,54,281880,60
91,56,281940,60
92,64,282000,120
91,58,282120,120
89,81,282240,120
79,73,282480,60
80,67,282540,60
79,58,282600,60
80,54,282660,60
79,58,282720,60
80,52,282780,60
79,58,282840,60
80,52,282900,60
79,58,282960,60
80,52,283020,60
79,58,283080,80
80,54,283160,80
79,58,283240,80
78,54,283320,60
79,56,283380,60
80,64,283440,120
79,58,283560,120
77,81,283680,120
91,73,283920,60
92,67,283980,60
91,58,284040,60
92,54,284100,60
91,58,284160,60
92,52,284220,60
91,58,284280,60
92,52,284340,60
90,58,284400,60
91,53,284460,60
92,54,284520,60
94,56,284580,60
96,57,284640,60
97,58,284700,60
100,60,284760,60
101,62,284820,60
100,63,284880,40
97,62,284920,40
96,61,284961,40
94,61,285001,40
92,60,285040,40
91,59,285080,40
89,81,285120,120
79,73,285360,60
80,67,285420,60
79,58,285480,60
80,54,285540,60
79,58,285600,60
80,52,285660,60
79,58,285720,60
80,52,285780,60
78,58,285840,48
79,53,285888,48
80,54,285936,48
82,56,285984,48
84,57,286032,48
86,58,286080,48
88,60,286128,48
89,62,286176,48
91,62,286224,48
89,62,286272,48
88,63,286320,33
86,63,286353,33
84,62,286386,33
82,61,286419,33
80,61,286452,33
79,60,286485,33
77,59,286518,42
76,58,286560,60
73,56,286620,60
72,54,286680,60
70,52,286740,60
68,49,286800,60
67,48,286860,60
66,45,286920,60
67,42,286980,60
68,39,287040,40
69,40,287080,40
70,38,287120,40
71,36,287160,40
72,34,287200,40
73,33,287240,40
72,56,287280,60
72,45,287520,120
73,39,287640,120
72,46,287760,60
73,40,288000,60
72,49,288060,60
72,44,288240,120
73,36,288360,120
72,42,288480,60
72,40,288720,120
71,52,288840,110
71,47,288960,120
74,40,289080,120
72,45,289200,120
71,36,289320,120
72,46,289440,60
67,39,289680,240
72,46,290160,60
67,39,290400,60
72,46,290640,60
70,46,290880,240
68,39,291120,120
67,39,291240,120
65,43,291360,240
67,46,291600,120
70,38,291720,120
67,46,291840,120
70,40,291960,120
64,46,292080,120
67,40,292200,120
65,46,292320,120
68,37,292440,120
72,42,292560,120
77,47,292680,120
80,52,292800,120
82,57,292920,120
84,65,293040,60
84,54,293280,120
85,46,293400,120
84,55,293520,60
85,48,293760,60
84,64,293820,60
84,52,294000,120
85,43,294120,120
84,50,294240,60
84,61,294480,120
83,48,294600,120
89,56,294720,120
83,48,294840,120
89,54,294960,120
83,43,295080,120
84,55,295200,60
79,46,295440,480
84,57,295920,60
79,46,296160,60
84,55,296400,60
82,62,296640,240
80,49,296880,120
79,49,297000,120
77,57,297120,240
82,61,297360,60
77,48,297600,60
82,57,297840,60
80,63,298080,240
79,50,298320,120
77,50,298440,120
75,55,298560,240
80,64,298800,60
75,49,299040,60
80,58,299280,60
81,63,299520,60
75,53,299760,60
81,61,300000,60
82,75,300240,60
74,69,300480,60
77,69,300480,60
86,77,300720,60
77,71,300960,60
82,71,300960,60
89,83,301200,60
86,73,301440,60
82,73,301440,60
92,78,301680,120
90,66,301800,120
89,77,301920,120
90,62,302040,120
87,69,302160,120
84,66,302400,120
81,61,302640,120
78,52,302880,120
82,75,303120,60
77,69,303360,60
74,69,303360,60
86,77,303600,60
82,71,303840,60
77,71,303840,60
89,83,304080,60
86,73,304320,60
82,73,304320,60
92,78,304560,120
90,66,304680,120
89,77,304800,120
90,62,304920,120
87,69,305040,120
84,66,305280,120
81,61,305520,120
78,52,305760,120
82,75,306000,60
77,69,306240,60
74,69,306240,60
83,77,306480,60
77,71,306720,60
74,71,306720,60
86,85,306960,60
83,73,307200,60
77,73,307200,60
84,75,307440,60
76,69,307680,60
79,69,307680,60
88,77,307920,60
85,71,308160,60
79,71,308160,60
91,83,308400,60
82,73,308640,60
85,73,308640,60
88,73,308640,60
89,75,308880,60
77,69,309120,60
84,69,309120,60
94,77,309360,60
82,71,309600,60
96,83,309840,60
84,73,310080,60
89,73,310320,120
101,87,310320,120
91,73,310560,60
92,53,310620,60
91,58,310680,60
92,54,310740,60
91,58,310800,60
92,52,310860,60
91,58,310920,60
92,52,310980,60
91,58,311040,60
92,52,311100,60
91,58,311160,80
92,54,311240,80
91,58,311320,80
90,54,311400,60
91,56,311460,60
92,64,311520,120
91,58,311640,120
89,81,311760,120
79,73,312000,60
80,67,312060,60
79,58,312120,60
80,54,312180,60
79,58,312240,60
80,52,312300,60
79,58,312360,60
80,52,312420,60
79,58,312480,60
80,52,312540,60
79,58,312600,80
80,54,312680,80
79,58,312760,80
78,54,312840,60
79,56,312900,60
80,64,312960,120
79,58,313080,120
77,81,313200,120
91,73,313440,60
92,67,313500,60
91,58,313560,60
92,54,313620,60
91,58,313680,60
92,52,313740,60
91,58,313800,60
92,52,313860,60
90,58,313920,60
91,53,313980,60
92,54,314040,60
94,56,314100,60
96,57,314160,60
97,58,314220,60
100,60,314280,60
101,62,314340,60
100,63,314400,40
97,62,314440,40
96,61,314481,40
94,61,314521,40
92,60,314560,40
91,59,314600,40
89,81,314640,120
79,73,314880,60
80,67,314940,60
79,58,315000,60
80,54,315060,60
79,58,315120,60
80,52,315180,60
79,58,315240,60
80,52,315300,60
78,55,315360,32
79,55,315392,31
80,57,315424,31
82,57,315455,32
84,60,315487,31
85,62,315518,31
88,64,315550,32
89,67,315582,32
91,68,315614,31
89,68,315645,32
88,65,315677,31
85,63,315707,31
84,61,315739,31
82,59,315770,31
80,57,315800,31
79,57,315831,31
77,54,315862,31
76,50,315893,31
73,49,315924,31
72,47,315954,31
70,46,315985,31
68,44,316016,31
67,42,316046,34
65,64,316080,60
60,43,316320,60
65,51,316560,60
60,44,316800,60
65,51,317040,60
60,42,317280,60
65,52,317520,60
60,43,317760,60
65,51,318000,60
60,44,318240,60
65,51,318480,60
60,42,318720,60
68,52,318960,60
65,52,318960,60
60,42,319200,60
65,42,319200,60
68,49,319440,60
65,49,319440,60
60,41,319680,60
65,41,319680,60
65,47,319920,60
68,40,319920,60
60,38,320160,60
65,40,320160,60
68,46,320400,60
65,46,320400,60
65,38,320640,60
60,38,320640,60
65,44,320880,60
68,44,320880,60
65,37,321120,60
60,37,321120,60
65,42,321360,60
68,36,321360,60
65,36,321600,60
60,34,321600,60
68,41,321840,60
65,41,321840,60
65,34,322080,60
61,34,322080,60
68,40,322320,60
65,40,322320,60
61,35,322560,60
65,35,322560,60
65,40,322800,60
68,35,322800,60
65,35,323040,60
61,33,323040,60
65,41,323280,60
68,41,323280,60
61,34,323520,60
65,34,323520,60
68,40,323760,60
65,40,323760,60
65,35,324000,60
61,35,324000,60
68,35,324240,60
65,40,324240,60
61,33,324480,60
65,35,324480,60
68,41,324720,60
66,41,324720,60
66,34,324960,60
63,34,324960,60
68,40,325200,60
66,40,325200,60
66,35,325440,60
63,35,325440,60
68,35,325680,60
66,40,325680,60
66,35,325920,60
63,33,325920,60
68,41,326160,60
66,41,326160,60
68,43,326400,60
75,43,326400,60
78,45,326640,60
75,45,326640,60
78,48,326880,60
80,48,326880,60
80,50,327120,60
87,50,327120,60
90,53,327360,60
87,53,327360,60
85,55,327600,60
89,55,327600,60
80,53,327840,60
77,53,327840,60
89,57,328080,60
85,57,328080,60
77,49,328320,60
80,49,328320,60
89,56,328560,60
85,56,328560,60
77,50,328800,60
80,50,328800,60
89,56,329040,60
85,56,329040,60
80,54,329280,60
85,54,329280,60
77,51,329520,60
80,51,329520,60
77,47,329760,60
73,47,329760,60
73,44,330000,60
68,44,330000,60
68,41,330240,60
65,41,330240,60
68,41,330480,60
66,41,330480,60
63,34,330720,60
66,34,330720,60
68,40,330960,60
66,40,330960,60
66,44,331200,60
69,44,331200,60
66,35,331440,60
63,40,331440,60
69,35,331680,60
66,33,331680,60
66,41,331920,60
68,41,331920,60
68,43,332160,60
75,43,332160,60
78,45,332400,60
75,45,332400,60
80,48,332640,60
78,48,332640,60
80,50,332880,60
87,50,332880,60
90,53,333120,60
87,53,333120,60
85,55,333360,60
89,55,333360,60
77,53,333600,60
80,53,333600,60
89,57,333840,60
85,57,333840,60
82,49,334080,60
77,49,334080,60
85,56,334320,60
89,56,334320,60
77,50,334560,60
82,50,334560,60
85,56,334800,60
89,56,334800,60
80,54,335040,60
85,54,335040,60
77,51,335280,60
80,51,335280,60
73,47,335520,60
77,47,335520,60
73,44,335760,60
68,44,335760,60
68,41,336000,60
65,41,336000,60
75,41,336240,60
77,41,336240,60
69,34,336480,60
65,34,336480,60
75,40,336720,60
77,40,336720,60
69,35,336960,60
66,35,336960,60
78,35,337200,60
75,40,337200,60
66,33,337440,60
69,35,337440,60
75,41,337680,60
77,41,337680,60
65,43,337920,60
69,43,337920,60
75,45,338160,60
77,45,338160,60
77,48,338400,60
81,48,338400,60
87,50,338640,60
81,50,338640,60
87,53,338880,60
89,53,338880,60
85,55,339120,60
89,55,339120,60
82,53,339360,60
77,53,339360,60
89,57,339600,60
85,57,339600,60
82,49,339840,60
78,49,339840,60
85,56,340080,60
90,56,340080,60
82,50,340320,60
78,50,340320,60
89,56,340560,60
85,56,340560,60
85,54,340800,60
82,54,340800,60
77,51,341040,60
82,51,341040,60
77,47,341280,60
73,47,341280,60
70,44,341520,60
73,44,341520,60
70,41,341760,60
65,41,341760,60
65,41,342000,60
73,41,342000,60
65,34,342240,60
61,34,342240,60
73,40,342480,60
65,40,342480,60
65,35,342720,60
61,35,342720,60
65,40,342960,60
73,35,342960,60
65,35,343200,60
61,33,343200,60
72,45,343440,60
65,45,343440,60
65,40,343680,60
60,40,343680,60
65,45,343920,60
72,45,343920,60
65,43,344160,60
60,43,344160,60
72,43,344400,60
65,43,344400,60
65,35,344640,60
60,33,344640,60
71,55,344880,60
68,55,344880,60
68,43,345120,60
65,43,345120,60
68,45,345360,60
71,45,345360,60
68,48,345600,60
65,48,345600,60
68,50,345840,60
71,50,345840,60
77,53,346080,60
71,53,346080,60
80,56,346320,60
77,56,346320,60
80,54,346560,60
83,54,346560,60
77,51,346800,60
80,51,346800,60
71,47,347040,60
77,47,347040,60
68,44,347280,60
71,44,347280,60
68,41,347520,60
65,41,347520,60
70,41,347760,60
67,41,347760,60
67,34,348000,60
61,34,348000,60
67,40,348240,60
70,40,348240,60
67,35,348480,60
61,35,348480,60
70,35,348720,60
67,40,348720,60
67,35,348960,60
61,33,348960,60
65,45,349200,60
69,45,349200,60
65,40,349440,60
60,40,349440,60
65,45,349680,60
69,45,349680,60
65,43,349920,60
60,43,349920,60
65,43,350160,60
69,43,350160,60
65,35,350400,60
60,33,350400,60
65,55,350640,60
68,55,350640,60
65,43,350880,60
62,43,350880,60
65,45,351120,60
68,45,351120,60
62,48,351360,60
65,48,351360,60
68,46,351600,60
65,46,351600,60
65,44,351840,60
62,44,351840,60
67,45,352080,60
62,45,352080,60
55,38,352320,60
62,38,352320,60
62,45,352560,60
67,45,352560,60
65,38,352800,60
62,38,352800,60
62,44,353040,60
56,44,353040,60
62,40,353280,60
65,40,353280,60
60,39,353520,60
65,39,353520,60
56,35,353760,60
60,35,353760,60
60,41,354000,60
65,41,354000,60
60,35,354240,60
56,35,354240,60
60,41,354480,60
65,41,354480,60
56,35,354720,60
60,35,354720,60
60,40,354960,60
65,40,354960,60
55,31,355200,60
60,31,355200,60
65,45,355440,60
60,45,355440,60
60,40,355680,60
55,40,355680,60
60,48,355920,60
64,48,355920,60
64,42,356160,60
68,42,356160,60
68,56,356400,60
65,56,356400,60
65,44,356640,60
61,44,356640,60
68,51,356880,60
65,51,356880,60
61,35,357120,60
65,35,357120,60
65,44,357360,60
68,44,357360,60
61,35,357600,60
65,35,357600,60
65,43,357840,60
67,43,357840,60
61,34,358080,60
65,34,358080,60
65,43,358320,60
67,43,358320,60
62,34,358560,60
65,34,358560,60
62,41,358800,60
55,41,358800,60
65,36,359040,60
62,36,359040,60
65,39,359280,60
60,39,359280,60
56,35,359520,60
60,35,359520,60
60,41,359760,60
65,41,359760,60
56,35,360000,60
60,35,360000,60
65,41,360240,60
60,41,360240,60
56,35,360480,60
60,35,360480,60
65,40,360720,60
60,40,360720,60
56,31,360960,60
60,31,360960,60
60,38,361200,60
65,38,361200,60
60,30,361440,60
56,30,361440,60
60,39,361680,60
65,39,361680,60
56,32,361920,60
60,32,361920,60
65,39,362160,60
60,39,362160,60
60,34,362400,60
55,34,362400,60
65,38,362640,60
60,38,362640,60
55,32,362880,60
60,32,362880,60
65,36,363120,60
60,36,363120,60
55,30,363360,60
60,30,363360,60
64,34,363600,60
60,34,363600,60
60,25,363840,60
55,25,363840,60
64,30,364080,60
60,30,364080,60
60,23,364320,60
55,23,364320,60
60,29,364560,60
64,29,364560,60
55,23,364800,60
60,23,364800,60
77,88,366480,240
65,80,366720,240
77,80,366960,60
80,88,367200,240
68,80,367440,240
80,80,367680,60
84,88,367920,240
72,80,368160,240
84,80,368400,60
79,88,368640,240
67,80,368880,240
79,80,369120,60
82,88,369360,240
70,80,369600,240
82,80,369840,60
77,88,370080,240
65,80,370320,240
77,80,370560,60
80,88,370800,240
77,74,370800,240
68,80,371040,240
77,68,371280,60
80,80,371280,60
79,88,371520,240
76,60,371520,240
67,80,371760,240
79,80,372000,60
76,68,372000,60
77,88,372240,240
65,80,372480,240
77,80,372720,60
80,88,372960,240
77,74,372960,240
68,80,373200,240
77,68,373440,60
80,80,373440,60
75,60,373680,240
84,88,373680,240
72,80,373920,240
75,68,374160,60
84,80,374160,60
75,74,374400,240
79,88,374400,240
70,80,374640,240
79,80,374880,60
75,68,374880,60
77,74,375120,240
82,88,375120,240
73,74,375120,240
70,80,375360,240
77,68,375600,60
73,68,375600,60
82,80,375600,60
68,60,375840,240
77,88,375840,240
65,80,376080,240
68,68,376320,60
77,80,376320,60
77,74,376560,240
80,88,376560,240
68,80,376800,240
77,68,377040,60
80,80,377040,60
76,74,377280,240
79,88,377280,240
67,80,377520,240
79,80,377760,60
76,68,377760,60
89,88,378000,240
77,72,378240,120
89,72,378360,120
77,80,378480,60
92,88,378720,240
89,74,378720,240
80,72,378960,120
92,59,379080,120
89,50,379080,120
80,80,379200,60
96,88,379440,240
87,74,379440,240
84,72,379680,120
87,52,379800,120
96,62,379800,120
84,80,379920,60
87,74,380160,240
91,88,380160,240
82,72,380400,120
91,64,380520,120
87,54,380520,120
82,80,380640,60
89,74,380880,240
85,74,380880,240
94,88,380880,240
82,72,381120,120
94,64,381240,120
85,54,381240,120
89,54,381240,120
82,80,381360,60
80,74,381600,240
89,88,381600,240
77,72,381840,120
80,53,381960,120
89,63,381960,120
77,80,382080,60
89,74,382320,240
92,88,382320,240
80,72,382560,120
89,53,382680,120
92,63,382680,120
80,80,382800,60
88,60,383040,240
91,88,383040,240
79,72,383280,120
88,52,383400,120
91,62,383400,120
79,80,383520,60
92,88,383760,240
89,74,383760,240
80,72,384000,120
92,64,384120,120
89,54,384120,120
80,81,384240,60
88,77,384480,240
96,91,384480,240
91,77,384480,240
84,75,384720,120
96,66,384840,120
88,56,384840,120
91,66,384840,120
84,84,384960,60
96,95,385200,240
92,64,385200,240
89,64,385200,240
84,78,385440,120
96,69,385560,120
89,58,385560,120
92,58,385560,120
84,88,385680,60
91,83,385920,240
96,83,385920,240
100,98,385920,240
88,81,386160,120
96,61,386280,120
91,61,386280,120
100,72,386280,120
88,91,386400,60
89,85,386520,40
92,90,386560,40
96,96,386600,40
101,105,386640,120
99,103,386760,120
97,101,386880,120
96,98,387000,120
94,96,387120,120
92,94,387240,120
91,92,387360,120
89,89,387480,120
87,87,387600,120
85,85,387720,120
84,82,387840,120
82,80,387960,120
80,80,388080,120
79,79,388200,120
77,78,388320,120
75,78,388440,120
73,77,388560,120
72,76,388680,120
70,75,388800,120
68,74,388920,120
67,73,389040,120
65,72,389160,120
63,71,389280,120
61,70,389400,120
53,35,0,60
56,25,240,60
60,25,240,60
65,30,240,60
53,30,480,60
60,29,720,60
56,29,720,60
65,35,720,60
53,31,960,60
56,26,1200,60
65,31,1200,60
60,26,1200,60
53,35,1440,60
62,31,1680,60
59,26,1680,60
56,26,1680,60
53,31,1920,60
48,35,2160,60
60,32,2400,60
55,27,2400,60
52,27,2400,60
48,32,2640,60
60,35,2880,60
52,29,2880,60
55,29,2880,60
48,31,3120,60
52,26,3360,60
60,31,3360,60
55,26,3360,60
49,35,3600,60
61,31,3840,60
53,26,3840,60
49,31,4080,60
46,35,4320,240
58,33,4560,240
55,28,4560,240
48,28,4800,120
58,33,4800,120
55,28,4800,120
53,34,5040,480
56,40,5040,480
53,35,5760,60
60,25,6000,60
65,30,6000,60
56,25,6000,60
53,30,6240,60
60,29,6480,60
65,35,6480,60
56,29,6480,60
53,31,6720,60
56,26,6960,60
65,31,6960,60
60,26,6960,60
53,35,7200,60
56,26,7440,60
59,26,7440,60
62,31,7440,60
53,31,7680,60
48,35,7920,60
52,27,8160,60
55,27,8160,60
60,32,8160,60
48,32,8400,60
60,35,8640,60
55,29,8640,60
52,29,8640,60
48,31,8880,60
52,26,9120,60
60,31,9120,60
55,26,9120,60
49,35,9360,60
61,31,9600,60
53,26,9600,60
49,31,9840,60
46,35,10080,240
55,28,10320,240
58,33,10320,240
58,33,10560,240
48,28,10560,240
55,28,10560,240
56,40,10800,240
53,34,10800,240
36,60,11520,60
48,55,11760,60
36,60,12000,60
48,53,12240,60
36,60,12480,60
48,52,12720,60
36,49,12960,60
48,43,13200,60
36,43,13440,60
48,43,13680,60
36,41,13920,60
48,43,14160,60
36,60,14400,60
48,55,14640,60
36,60,14880,240
37,60,15120,240
49,49,15360,60
37,57,15600,60
36,49,15840,60
48,43,16080,60
36,43,16320,60
41,43,16560,240
48,60,17280,60
60,55,17520,60
48,60,17760,60
60,53,18000,60
48,60,18240,60
60,52,18480,60
47,49,18720,60
59,43,18960,60
47,43,19200,60
60,43,19440,60
48,41,19680,60
60,43,19920,60
48,60,20160,60
60,55,20400,60
48,60,20640,240
49,60,20880,240
61,49,21120,60
49,57,21360,60
49,49,21600,60
61,43,21840,60
49,43,22080,60
61,43,22320,120
49,43,22560,120
61,43,22800,120
49,43,23040,120
61,43,23280,120
49,44,23520,120
61,45,23760,120
49,50,24000,120
61,51,24240,120
48,51,24480,120
60,53,24720,120
48,57,24960,120
53,60,25200,120
36,60,25920,60
48,55,26160,60
36,60,26400,60
48,53,26640,60
36,60,26880,60
48,52,27120,60
36,49,27360,60
48,43,27600,60
36,43,27840,60
48,43,28080,60
36,41,28320,60
48,43,28560,60
36,60,28800,60
48,55,29040,60
36,60,29280,240
37,60,29520,240
49,49,29760,60
37,57,30000,60
36,49,30240,60
48,43,30480,60
36,43,30720,60
41,43,30960,240
48,60,31680,60
60,55,31920,60
48,60,32160,60
60,53,32400,60
48,60,32640,60
60,52,32880,60
47,49,33120,60
59,43,33360,60
47,43,33600,60
60,43,33840,60
48,41,34080,60
60,43,34320,60
48,60,34560,60
60,55,34800,60
48,60,35040,240
49,60,35280,240
61,49,35520,60
49,57,35760,60
49,49,36000,60
61,43,36240,60
49,43,36480,60
61,43,36720,120
49,43,36960,120
61,43,37200,120
49,43,37440,120
61,43,37680,120
49,44,37920,120
61,45,38160,120
49,50,38400,120
61,51,38640,120
48,51,38880,120
60,53,39120,120
48,57,39360,120
53,60,39600,120
61,51,39840,1200
53,51,39840,1200
58,51,39840,1200
64,61,39840,1200
60,52,41040,120
53,52,41040,120
65,62,41040,120
56,52,41040,120
53,51,41280,1200
64,61,41280,1200
61,51,41280,1200
58,51,41280,1200
53,52,42480,120
60,52,42480,120
65,62,42480,120
56,52,42480,120
61,51,42720,1200
58,51,42720,1200
64,61,42720,1200
53,51,42720,1200
56,52,43920,120
53,52,43920,120
60,52,43920,120
65,62,43920,120
53,51,44160,1920
58,51,44160,1920
61,51,44160,1920
64,61,44160,1920
53,35,46080,60
56,25,46320,60
65,30,46320,60
60,25,46320,60
53,30,46560,60
56,29,46800,60
60,29,46800,60
65,35,46800,60
53,31,47040,60
56,26,47280,60
65,31,47280,60
60,26,47280,60
53,35,47520,60
62,31,47760,60
56,26,47760,60
59,26,47760,60
53,31,48000,60
48,35,48240,60
52,27,48480,60
60,32,48480,60
55,27,48480,60
48,32,48720,60
52,29,48960,60
60,35,48960,60
55,29,48960,60
48,31,49200,60
52,26,49440,60
55,26,49440,60
60,31,49440,60
49,35,49680,60
53,26,49920,60
61,31,49920,60
49,31,50160,60
46,35,50400,240
58,33,50640,240
55,28,50640,240
48,28,50880,120
55,28,50880,120
58,33,50880,120
53,34,51120,480
56,40,51120,480
53,35,51840,60
60,25,52080,60
65,30,52080,60
56,25,52080,60
53,30,52320,60
60,29,52560,60
65,35,52560,60
56,29,52560,60
53,31,52800,60
60,26,53040,60
65,31,53040,60
56,26,53040,60
53,35,53280,60
56,26,53520,60
59,26,53520,60
62,31,53520,60
53,31,53760,60
48,35,54000,60
60,32,54240,60
52,27,54240,60
55,27,54240,60
48,32,54480,60
55,29,54720,60
60,35,54720,60
52,29,54720,60
48,31,54960,60
60,31,55200,60
52,26,55200,60
55,26,55200,60
49,35,55440,60
61,31,55680,60
53,26,55680,60
49,31,55920,60
50,35,56160,60
62,31,56400,60
58,31,56400,60
50,31,56640,60
51,39,56880,60
63,33,57120,60
58,33,57120,60
51,33,57360,60
48,41,57600,60
60,32,57840,60
48,31,58080,60
47,40,58320,60
59,36,58560,60
47,36,58800,60
46,51,59040,60
58,36,59280,60
53,36,59280,60
62,43,59280,60
46,57,59520,60
58,39,59760,60
53,39,59760,60
62,46,59760,60
46,55,60000,60
53,40,60240,60
62,48,60240,60
58,40,60240,60
46,61,60480,60
57,39,60720,60
63,47,60720,60
54,39,60720,60
46,60,60960,60
63,57,61200,60
54,48,61200,60
57,48,61200,60
46,46,61440,60
57,38,61680,60
63,45,61680,60
54,38,61680,60
46,51,61920,60
58,36,62160,60
62,43,62160,60
53,36,62160,60
46,57,62400,60
53,39,62640,60
62,46,62640,60
58,39,62640,60
46,55,62880,60
62,48,63120,60
53,40,63120,60
58,40,63120,60
46,61,63360,60
63,47,63600,60
54,39,63600,60
57,39,63600,60
46,60,63840,60
57,48,64080,60
54,48,64080,60
63,57,64080,60
46,46,64320,60
54,38,64560,60
63,45,64560,60
57,38,64560,60
46,51,64800,60
58,36,65040,60
62,43,65040,60
53,36,65040,60
44,57,65280,60
56,46,65520,60
43,55,65760,60
55,48,66000,60
48,51,66240,60
60,43,66480,60
46,57,66720,60
58,46,66960,60
43,55,67200,60
55,48,67440,60
44,57,67680,60
56,49,67920,60
34,57,68160,60
46,46,68400,60
36,64,68640,60
48,58,68880,60
29,60,69120,120
41,65,69120,120
61,51,69360,1200
58,51,69360,1200
53,51,69360,1200
64,61,69360,1200
53,52,70560,120
60,52,70560,120
65,62,70560,120
56,52,70560,120
61,51,70800,1200
64,61,70800,1200
58,51,70800,1200
53,51,70800,1200
56,52,72000,120
60,52,72000,120
53,52,72000,120
65,62,72000,120
58,51,72240,1200
61,51,72240,1200
64,61,72240,1200
53,51,72240,1200
56,52,73440,120
60,52,73440,120
65,62,73440,120
53,52,73440,120
64,61,73680,1200
53,51,73680,1200
61,51,73680,1200
58,51,73680,1200
53,67,74880,240
56,67,74880,240
60,79,74880,240
51,67,75600,240
63,79,75600,240
58,67,75600,240
61,67,75600,240
60,32,76320,216
56,27,76320,216
63,32,76320,216
63,29,76560,216
56,24,76560,216
60,29,76560,216
63,29,76800,960
56,24,76800,2400
60,29,76800,960
65,31,77760,1440
61,26,77760,1440
56,27,79200,216
63,32,79200,216
60,27,79200,216
60,24,79440,216
56,24,79440,216
63,29,79440,216
63,29,79680,2400
60,24,79680,960
56,24,79680,2400
61,31,80640,240
58,30,80880,240
60,30,81120,240
61,31,81360,240
60,28,81600,240
58,31,81840,240
59,27,82080,216
56,27,82080,216
63,32,82080,216
63,29,82320,216
59,24,82320,216
56,24,82320,216
59,24,82560,960
56,24,82560,2400
63,29,82560,960
61,26,83520,1440
64,31,83520,1440
59,27,84960,216
63,32,84960,216
56,27,84960,216
59,24,85200,216
63,29,85200,216
56,24,85200,216
59,24,85440,960
56,24,85440,2400
63,29,85440,2400
61,31,86400,240
58,30,86640,240
59,30,86880,240
61,31,87120,240
59,28,87360,240
58,31,87600,120
60,27,87840,216
56,27,87840,216
63,32,87840,216
56,24,88080,216
60,24,88080,216
63,29,88080,216
60,24,88320,960
56,24,88320,2400
63,29,88320,960
65,31,89280,1440
61,26,89280,1440
56,32,90720,216
60,32,90720,216
63,38,90720,216
63,35,90960,216
56,29,90960,216
60,29,90960,216
60,30,91200,960
56,30,91200,960
63,36,91200,2400
58,33,92160,1440
55,33,92160,1440
61,33,92160,1440
59,40,93600,216
56,40,93600,216
63,48,93600,216
59,36,93840,216
63,43,93840,216
56,36,93840,216
63,43,94080,960
59,36,94080,960
56,36,94080,2400
61,39,95040,1440
64,46,95040,1440
59,40,96480,216
56,40,96480,216
63,48,96480,216
56,36,96720,216
63,43,96720,216
59,36,96720,216
63,43,96960,960
59,36,96960,960
56,36,96960,960
58,36,97920,1440
61,36,97920,1440
55,36,97920,1440
64,43,97920,720
63,43,98640,720
63,41,99360,720
59,34,99360,720
56,34,99360,720
56,35,100080,720
51,29,100080,720
47,29,100080,720
49,36,100800,720
61,29,101280,120
57,29,101280,120
51,36,101520,720
61,29,102000,120
58,29,102000,120
47,41,102240,1440
51,29,102720,960
59,35,102720,960
56,29,102720,960
49,36,103680,720
57,24,104160,120
61,29,104160,120
51,36,104400,720
58,24,104880,120
61,29,104880,120
47,41,105120,1440
51,29,105600,960
59,35,105600,960
56,29,105600,960
49,36,106560,720
61,29,107040,240
57,24,107040,240
51,35,107280,720
58,25,107760,240
61,30,107760,240
44,44,108000,240
56,24,108480,120
59,29,108480,120
44,44,108720,240
58,24,109200,120
61,29,109200,120
44,44,109440,240
63,29,109920,120
59,24,109920,120
63,31,110160,60
58,26,110160,60
61,26,110160,60
58,24,110400,60
63,29,110400,60
61,24,110400,60
59,24,110640,60
56,24,110640,60
63,29,110640,60
51,44,110880,480
55,24,111360,120
58,29,111360,120
51,44,111600,480
56,24,112080,120
59,29,112080,120
51,44,112320,480
58,24,112800,120
61,29,112800,120
56,26,113040,60
51,26,113040,60
59,31,113040,60
59,29,113280,60
51,24,113280,60
56,24,113280,60
51,24,113520,60
58,29,113520,60
55,24,113520,60
44,48,113760,480
56,26,114240,120
59,31,114240,120
44,48,114480,480
58,26,114960,120
61,31,114960,120
44,48,115200,480
59,26,115680,120
63,31,115680,120
64,40,115920,60
54,33,115920,60
61,33,115920,60
64,37,116160,60
61,31,116160,60
54,31,116160,60
54,31,116400,60
58,31,116400,60
66,37,116400,60
54,48,116640,720
59,26,117120,120
63,31,117120,120
64,40,117360,60
61,33,117360,60
54,33,117360,60
64,37,117600,60
61,31,117600,60
54,31,117600,60
58,31,117840,60
54,31,117840,60
66,37,117840,60
55,69,118080,720
63,35,118560,180
58,29,118560,180
56,68,118800,720
59,29,119280,180
63,35,119280,180
49,65,119520,480
61,29,120000,180
64,35,120000,180
63,46,120240,60
59,37,120240,60
51,37,120240,60
63,42,120480,60
51,35,120480,60
59,35,120480,60
51,35,120720,60
58,35,120720,60
63,42,120720,60
55,69,120960,720
58,29,121440,180
63,35,121440,180
56,68,121680,720
59,29,122160,180
63,35,122160,180
49,65,122400,480
64,35,122880,180
61,29,122880,180
51,37,123120,60
63,46,123120,60
59,37,123120,60
63,42,123360,60
51,35,123360,60
59,35,123360,60
51,35,123600,60
63,42,123600,60
58,35,123600,60
51,75,123840,480
58,31,124320,180
61,38,124320,180
51,74,124560,480
63,38,125040,180
59,31,125040,180
51,71,125280,480
64,38,125760,180
61,31,125760,180
51,40,126000,60
58,40,126000,60
61,50,126000,60
58,38,126240,60
51,38,126240,60
61,46,126240,60
58,46,126480,60
55,38,126480,60
51,38,126480,60
51,71,126720,480
61,31,127200,180
64,38,127200,180
58,40,127440,60
51,40,127440,60
61,50,127440,60
51,38,127680,60
61,46,127680,60
58,38,127680,60
51,38,127920,60
55,38,127920,60
58,46,127920,60
51,71,128160,480
64,38,128640,180
61,31,128640,180
51,68,128880,480
61,35,129360,180
64,42,129360,180
51,72,129600,480
61,36,130080,180
64,44,130080,180
51,75,130320,480
64,46,130800,180
61,38,130800,180
51,76,131040,480
61,39,131520,180
64,48,131520,180
52,44,132480,480
61,24,132960,120
64,29,132960,120
52,44,133200,480
64,29,133680,120
61,24,133680,120
52,44,133920,480
64,29,134400,120
61,24,134400,120
52,26,134640,60
59,26,134640,60
62,31,134640,60
62,29,134880,60
52,24,134880,60
59,24,134880,60
57,24,135120,60
61,29,135120,60
52,24,135120,60
52,44,135360,480
62,29,135840,120
59,24,135840,120
52,44,136080,480
59,24,136560,120
62,29,136560,120
52,44,136800,480
62,29,137280,120
59,24,137280,120
52,26,137520,60
57,26,137520,60
61,31,137520,60
52,24,137760,60
57,24,137760,60
61,29,137760,60
52,24,138000,60
59,29,138000,60
56,24,138000,60
52,44,138240,480
61,24,138720,120
64,29,138720,120
52,44,138960,480
61,24,139440,120
64,29,139440,120
52,44,139680,480
64,29,140160,120
61,24,140160,120
62,37,140400,60
59,30,140400,60
52,30,140400,60
52,28,140640,60
62,34,140640,60
59,28,140640,60
57,28,140880,60
52,28,140880,60
61,34,140880,60
52,44,141120,480
62,29,141600,120
59,24,141600,120
52,44,141840,480
62,29,142320,120
59,24,142320,120
52,44,142560,480
59,24,143040,120
62,29,143040,120
61,37,143280,60
52,30,143280,60
57,30,143280,60
57,28,143520,60
61,34,143520,60
52,28,143520,60
52,28,143760,60
59,34,143760,60
56,28,143760,60
52,48,144000,480
61,33,144480,120
57,27,144480,120
52,51,144720,480
59,35,145200,120
56,29,145200,120
52,55,145440,480
61,37,145920,120
57,31,145920,120
52,58,146160,480
62,39,146640,120
59,32,146640,120
63,67,146880,216
60,56,146880,216
51,56,146880,216
56,56,146880,216
60,34,147120,216
63,41,147120,216
51,34,147120,216
56,34,147120,216
63,41,147360,2400
51,34,147360,2400
60,34,147360,960
56,34,147360,960
61,41,148320,1440
58,34,148320,1440
60,56,149760,216
63,67,149760,216
51,56,149760,216
56,56,149760,216
60,34,150000,216
63,41,150000,216
51,34,150000,216
56,34,150000,216
56,34,150240,960
63,41,150240,2400
51,34,150240,2400
60,34,150240,960
55,34,151200,1440
61,41,151200,1440
51,56,152640,216
60,56,152640,216
63,67,152640,216
56,56,152640,216
60,34,152880,216
51,34,152880,216
63,41,152880,216
56,34,152880,216
51,34,153120,1920
63,41,153120,1920
56,34,153120,960
60,34,153120,960
55,34,154080,960
61,41,154080,960
44,56,155760,132
48,49,155880,132
51,56,156000,132
49,54,156120,132
48,54,156240,132
46,53,156360,132
44,52,156480,132
43,52,156600,132
41,51,156720,132
39,50,156840,132
37,49,156960,132
36,48,157080,132
34,48,157200,132
32,47,157320,132
31,46,157440,132
32,45,157560,132
34,44,157680,132
36,46,157800,132
37,47,157920,132
39,48,158040,132
41,48,158160,132
43,49,158280,132
44,50,158400,132
46,51,158520,132
48,52,158640,132
49,52,158760,132
51,53,158880,132
53,54,159000,132
55,56,159120,132
56,56,159240,132
58,58,159360,132
60,59,159480,132
61,60,159600,132
63,62,159720,132
65,63,159840,132
63,63,159960,132
61,61,160080,132
60,60,160200,132
58,58,160320,132
56,56,160440,132
55,55,160560,132
53,53,160680,132
51,52,160800,132
49,50,160920,132
48,48,161040,132
46,47,161160,132
44,49,161280,240
56,39,161520,132
60,34,161640,132
63,39,161760,132
61,37,161880,132
60,37,162000,132
58,37,162120,132
56,36,162240,132
55,36,162360,132
53,35,162480,132
51,35,162600,132
49,34,162720,132
48,33,162840,132
46,33,162960,132
44,32,163080,132
43,32,163200,132
44,31,163320,132
46,30,163440,132
48,32,163560,132
49,32,163680,132
51,33,163800,132
53,33,163920,132
55,34,164040,132
56,35,164160,132
58,35,164280,132
60,36,164400,132
61,36,164520,132
63,37,164640,132
65,37,164760,132
67,39,164880,132
68,39,165000,132
70,40,165120,132
72,41,165240,132
73,42,165360,132
75,43,165480,132
77,44,165600,132
75,44,165720,132
73,42,165840,132
72,42,165960,132
70,40,166080,132
68,39,166200,132
67,38,166320,132
65,37,166440,132
63,36,166560,132
61,35,166680,132
60,33,166800,132
58,32,166920,132
56,34,167040,240
56,56,167280,132
59,49,167400,132
63,56,167520,132
61,54,167640,132
59,54,167760,132
58,53,167880,132
56,52,168000,132
54,52,168120,132
52,51,168240,132
51,50,168360,132
49,49,168480,132
47,48,168600,132
46,48,168720,132
44,47,168840,132
43,46,168960,132
44,45,169080,132
46,44,169200,132
47,46,169320,132
49,47,169440,132
51,48,169560,132
53,48,169680,132
55,49,169800,132
56,50,169920,132
58,55,170040,132
59,56,170160,132
61,57,170280,132
63,59,170400,132
65,60,170520,132
67,62,170640,132
68,60,170760,132
70,63,170880,132
71,65,171000,132
73,68,171120,132
75,71,171240,132
76,73,171360,132
74,74,171480,132
73,73,171600,132
71,72,171720,132
69,70,171840,132
68,69,171960,132
66,68,172080,132
64,66,172200,132
62,65,172320,132
61,64,172440,132
59,62,172560,132
57,61,172680,132
56,60,172800,132
54,58,172920,132
52,57,173040,132
50,56,173160,132
49,54,173280,132
47,53,173400,132
45,58,173520,132
44,60,173640,132
42,62,173760,132
40,64,173880,132
38,66,174000,89
37,67,174081,88
35,68,174160,80
33,66,174240,720
33,56,174960,720
45,66,174960,720
45,62,175680,720
33,52,175680,720
45,62,176400,720
33,52,176400,720
33,54,177120,720
45,64,177120,720
49,54,177840,720
52,64,177840,720
45,54,177840,720
57,64,178560,720
52,54,178560,720
49,54,178560,720
45,54,178560,720
52,43,179280,720
56,43,179280,720
59,51,179280,720
51,43,180000,720
56,28,180480,120
60,34,180480,120
51,43,180720,720
63,34,181200,120
60,28,181200,120
51,43,181440,720
58,28,181920,120
61,34,181920,120
51,43,182160,720
55,28,182640,120
58,34,182640,120
51,43,182880,720
56,28,183360,120
60,34,183360,120
51,43,183600,720
60,28,184080,120
63,34,184080,120
51,56,184320,720
61,44,184800,120
58,37,184800,120
51,56,185040,720
55,37,185520,120
58,44,185520,120
51,56,185760,720
60,44,186240,120
56,37,186240,120
48,56,186480,720
51,37,186960,120
57,37,186960,120
54,37,186960,120
60,44,186960,120
49,56,187200,720
53,37,187680,120
58,37,187680,120
61,44,187680,120
51,56,187920,720
55,37,188400,120
58,44,188400,120
40,40,188640,480
52,27,189120,120
60,32,189120,120
55,27,189120,120
40,40,189360,480
60,32,189840,120
55,27,189840,120
52,27,189840,120
40,40,190080,480
60,32,190560,120
52,27,190560,120
55,27,190560,120
40,40,190800,480
55,27,191280,120
52,27,191280,120
60,32,191280,120
39,43,191520,480
51,27,192000,2400
60,27,192000,960
56,27,192000,960
61,32,192960,1440
58,27,192960,1440
40,48,194400,240
60,38,194880,120
52,32,194880,120
55,32,194880,120
40,48,195120,240
55,32,195600,120
52,32,195600,120
60,38,195600,120
40,48,195840,240
60,38,196320,120
52,32,196320,120
55,32,196320,120
40,48,196560,240
60,38,197040,120
52,32,197040,120
55,32,197040,120
39,51,197280,240
56,32,197760,960
51,32,197760,2400
60,32,197760,960
55,32,198720,1440
61,38,198720,1440
40,57,200160,480
52,38,200640,120
60,45,200640,120
55,38,200640,120
40,57,200880,480
55,38,201360,120
60,45,201360,120
52,38,201360,120
40,57,201600,480
60,45,202080,120
52,38,202080,120
55,38,202080,120
40,57,202320,480
60,45,202800,120
52,38,202800,120
55,38,202800,120
43,61,203040,480
60,38,203520,960
52,38,203520,960
55,38,203520,960
53,38,204480,1440
59,45,204480,1440
55,38,204480,1440
39,67,205920,240
60,61,206400,960
51,51,206400,2160
56,51,206400,960
55,51,207360,1440
61,61,207360,1200
58,51,207360,1200
44,83,208800,240
56,61,209040,132
60,53,209160,132
63,61,209280,132
61,59,209400,132
60,59,209520,132
58,58,209640,132
56,57,209760,132
55,57,209880,132
53,56,210000,132
51,55,210120,132
49,53,210240,132
48,52,210360,132
46,52,210480,132
44,51,210600,132
43,50,210720,132
41,49,210840,132
39,48,210960,132
41,50,211080,132
39,53,211200,132
37,55,211320,132
36,57,211440,132
34,59,211560,132
32,62,211680,120
36,53,211800,120
32,62,211920,120
36,52,212040,120
39,58,212160,120
32,62,212400,120
36,53,212520,120
32,62,212640,120
36,52,212760,120
39,58,212880,120
32,62,213120,120
36,53,213240,120
32,62,213360,120
36,52,213480,120
39,58,213600,120
32,62,213840,120
36,53,213960,120
32,62,214080,120
36,52,214200,120
39,58,214320,120
32,55,214560,240
58,45,218280,132
56,45,218400,132
55,44,218520,132
53,44,218640,132
51,43,218760,132
49,43,218880,132
48,42,219000,132
46,41,219120,132
44,41,219240,132
43,40,219360,132
44,40,219480,132
46,40,219600,132
48,41,219720,132
49,41,219840,132
51,42,219960,132
53,43,220080,132
55,44,220200,132
56,45,220320,132
58,46,220440,120
43,70,221760,120
46,55,221880,120
43,65,222000,120
46,56,222120,120
49,65,222240,120
43,71,222480,120
46,54,222600,120
43,63,222720,120
46,54,222840,120
49,66,222960,120
43,71,223200,120
46,62,223320,120
43,66,223440,120
46,54,223560,120
49,65,223680,120
55,70,228960,120
58,55,229080,120
55,65,229200,120
58,56,229320,120
61,65,229440,120
55,71,229680,120
58,54,229800,120
55,63,229920,120
58,54,230040,120
61,66,230160,120
55,71,230400,120
58,62,230520,120
55,66,230640,120
58,54,230760,120
61,65,230880,120
64,42,234720,120
67,33,234840,120
64,39,234960,120
67,33,235080,120
70,39,235200,120
64,42,235440,120
67,32,235560,120
64,37,235680,120
67,32,235800,120
70,39,235920,120
72,42,239760,120
79,33,239880,120
72,39,240000,120
79,33,240120,120
82,39,240240,120
72,42,240480,120
79,32,240600,120
72,37,240720,120
79,32,240840,120
82,39,240960,120
60,35,242640,120
68,28,242760,120
60,33,242880,120
68,28,243000,120
71,33,243120,120
60,35,243360,120
68,27,243480,120
60,31,243600,120
68,27,243720,120
71,33,243840,120
48,28,245520,120
55,22,245640,120
48,26,245760,120
55,22,245880,120
60,26,246000,240
48,28,246240,120
55,21,246360,120
48,24,246480,120
55,21,246600,120
60,26,246720,240
48,47,248400,60
60,39,248640,60
48,47,248880,60
60,39,249120,60
48,47,249360,60
60,43,249600,60
52,35,249840,60
48,29,249840,60
60,30,250080,60
52,30,250320,60
48,25,250320,60
60,35,250560,60
52,31,250800,60
48,26,250800,60
60,31,251040,60
49,29,251280,60
53,35,251280,60
60,30,251520,60
53,30,251760,60
49,25,251760,60
60,35,252000,60
49,26,252240,60
53,31,252240,60
60,31,252480,60
55,35,252720,60
52,29,252720,60
60,30,252960,60
52,25,253200,60
55,30,253200,60
56,35,253440,60
53,29,253440,60
60,30,253680,60
53,25,253920,60
56,30,253920,60
58,33,254160,60
55,28,254160,60
55,30,254400,60
58,30,254400,60
60,36,254400,60
55,34,254640,60
61,40,254640,60
58,34,254640,60
55,36,254880,60
58,36,254880,60
62,43,254880,60
63,40,255120,60
55,34,255120,60
58,34,255120,60
55,32,255360,60
64,38,255360,60
58,32,255360,60
53,35,255600,60
60,25,255840,60
65,30,255840,60
56,25,255840,60
53,30,256080,60
60,29,256320,60
65,35,256320,60
56,29,256320,60
53,31,256560,60
65,31,256800,60
60,26,256800,60
56,26,256800,60
53,35,257040,60
62,31,257280,60
59,26,257280,60
56,26,257280,60
53,31,257520,60
48,35,257760,60
60,32,258000,60
52,27,258000,60
55,27,258000,60
48,32,258240,60
60,35,258480,60
55,29,258480,60
52,29,258480,60
48,31,258720,60
55,26,258960,60
52,26,258960,60
60,31,258960,60
49,35,259200,60
53,26,259440,60
61,31,259440,60
49,31,259680,60
46,35,259920,240
55,28,260160,240
58,33,260160,240
48,28,260400,120
58,33,260400,120
55,28,260400,120
53,34,260640,480
56,40,260640,480
53,35,261360,60
60,25,261600,60
56,25,261600,60
65,30,261600,60
53,30,261840,60
65,35,262080,60
56,29,262080,60
60,29,262080,60
53,31,262320,60
56,26,262560,60
60,26,262560,60
65,31,262560,60
53,35,262800,60
59,26,263040,60
62,31,263040,60
56,26,263040,60
53,31,263280,60
48,35,263520,60
52,27,263760,60
60,32,263760,60
55,27,263760,60
48,32,264000,60
52,29,264240,60
60,35,264240,60
55,29,264240,60
48,31,264480,60
60,31,264720,60
52,26,264720,60
55,26,264720,60
49,35,264960,60
61,31,265200,60
53,26,265200,60
49,31,265440,60
46,35,265680,240
58,33,265920,240
55,28,265920,240
55,28,266160,240
48,28,266160,240
58,33,266160,240
56,40,266400,480
53,34,266400,480
36,60,267120,60
48,55,267360,60
36,60,267600,60
48,53,267840,60
36,60,268080,60
48,52,268320,60
36,49,268560,60
48,43,268800,60
36,43,269040,60
48,43,269280,60
36,41,269520,60
48,43,269760,60
36,60,270000,60
48,55,270240,60
36,60,270480,240
37,60,270720,240
49,49,270960,60
37,57,271200,60
36,49,271440,60
48,43,271680,60
36,43,271920,60
41,43,272160,240
48,60,272880,60
60,55,273120,60
48,60,273360,60
60,53,273600,60
48,60,273840,60
60,52,274080,60
59,49,274320,60
47,43,274560,60
59,43,274800,60
60,43,275040,60
48,41,275280,60
60,43,275520,60
48,60,275760,60
60,55,276000,60
48,60,276240,240
49,60,276480,240
61,49,276720,60
49,57,276960,60
61,49,277200,60
49,43,277440,60
61,43,277680,60
49,43,277920,120
61,43,278160,120
49,43,278400,120
61,43,278640,120
49,43,278880,120
61,44,279120,120
49,45,279360,120
61,50,279600,120
49,51,279840,120
48,51,280080,120
60,53,280320,120
48,57,280560,120
53,60,280800,120
53,51,281040,1200
64,61,281040,1200
61,51,281040,1200
58,51,281040,1200
60,52,282240,120
53,52,282240,120
65,62,282240,120
56,52,282240,120
61,51,282480,1200
53,51,282480,1200
58,51,282480,1200
64,61,282480,1200
56,52,283680,120
53,52,283680,120
65,62,283680,120
60,52,283680,120
64,61,283920,1200
58,51,283920,1200
53,51,283920,1200
61,51,283920,1200
60,52,285120,120
53,52,285120,120
65,62,285120,120
56,52,285120,120
61,51,285360,1920
64,61,285360,1920
53,51,285360,1920
58,51,285360,1920
53,35,287280,60
56,25,287520,60
60,25,287520,60
65,30,287520,60
53,30,287760,60
65,35,288000,60
60,29,288000,60
56,29,288000,60
53,31,288240,60
65,31,288480,60
56,26,288480,60
60,26,288480,60
53,35,288720,60
62,31,288960,60
59,26,288960,60
56,26,288960,60
53,31,289200,60
48,35,289440,60
52,27,289680,60
60,32,289680,60
55,27,289680,60
48,32,289920,60
60,35,290160,60
52,29,290160,60
55,29,290160,60
48,31,290400,60
60,31,290640,60
52,26,290640,60
55,26,290640,60
49,35,290880,60
61,31,291120,60
53,26,291120,60
49,31,291360,60
46,35,291600,240
58,33,291840,240
55,28,291840,240
48,28,292080,120
58,33,292080,120
55,28,292080,120
56,40,292320,480
53,34,292320,480
53,35,293040,60
65,30,293280,60
56,25,293280,60
60,25,293280,60
53,30,293520,60
65,35,293760,60
56,29,293760,60
60,29,293760,60
53,31,294000,60
65,31,294240,60
60,26,294240,60
56,26,294240,60
53,35,294480,60
62,31,294720,60
56,26,294720,60
59,26,294720,60
53,31,294960,60
48,35,295200,60
55,27,295440,60
52,27,295440,60
60,32,295440,60
48,32,295680,60
52,29,295920,60
55,29,295920,60
60,35,295920,60
48,31,296160,60
52,26,296400,60
55,26,296400,60
60,31,296400,60
49,35,296640,60
53,26,296880,60
61,31,296880,60
49,31,297120,60
50,35,297360,60
62,31,297600,60
58,31,297600,60
50,31,297840,60
51,39,298080,60
58,33,298320,60
63,33,298320,60
51,33,298560,60
48,41,298800,60
60,32,299040,60
48,31,299280,60
47,40,299520,60
59,36,299760,60
47,36,300000,60
46,51,300240,60
53,36,300480,60
58,36,300480,60
62,43,300480,60
46,57,300720,60
53,39,300960,60
62,46,300960,60
58,39,300960,60
46,55,301200,60
53,40,301440,60
58,40,301440,60
62,48,301440,60
46,61,301680,60
54,39,301920,60
57,39,301920,60
63,47,301920,60
46,60,302160,60
57,48,302400,60
63,57,302400,60
54,48,302400,60
46,46,302640,60
63,45,302880,60
57,38,302880,60
54,38,302880,60
46,51,303120,60
58,36,303360,60
53,36,303360,60
62,43,303360,60
46,57,303600,60
62,46,303840,60
58,39,303840,60
53,39,303840,60
46,55,304080,60
58,40,304320,60
53,40,304320,60
62,48,304320,60
46,61,304560,60
57,39,304800,60
54,39,304800,60
63,47,304800,60
46,60,305040,60
54,48,305280,60
57,48,305280,60
63,57,305280,60
46,46,305520,60
57,38,305760,60
54,38,305760,60
63,45,305760,60
46,51,306000,60
53,36,306240,60
58,36,306240,60
62,43,306240,60
44,57,306480,60
56,46,306720,60
43,55,306960,60
55,48,307200,60
48,51,307440,60
60,43,307680,60
46,57,307920,60
58,46,308160,60
43,55,308400,60
55,48,308640,60
44,57,308880,60
56,49,309120,60
34,57,309360,60
46,46,309600,60
36,64,309840,60
48,58,310080,60
29,58,310320,120
41,65,310320,120
61,51,310560,1200
53,51,310560,1200
64,61,310560,1200
58,51,310560,1200
56,52,311760,120
60,52,311760,120
53,52,311760,120
65,62,311760,120
58,51,312000,1200
53,51,312000,1200
64,61,312000,1200
61,51,312000,1200
60,52,313200,120
56,52,313200,120
65,62,313200,120
53,52,313200,120
64,61,313440,1200
58,51,313440,1200
53,51,313440,1200
61,51,313440,1200
56,52,314640,120
65,62,314640,120
53,52,314640,120
60,52,314640,120
58,51,314880,1200
64,61,314880,1200
53,51,314880,1200
61,51,314880,1200
60,72,316080,60
53,61,316080,60
56,61,316080,60
44,35,321840,2880
49,35,321840,2880
37,35,321840,2880
36,35,324720,2880
44,35,324720,2880
48,35,324720,2880
44,35,327600,2880
37,35,327600,2880
49,35,327600,2880
48,35,330480,2880
44,35,330480,720
36,35,330480,2880
45,41,331200,720
44,35,331920,1440
37,35,333360,2880
49,35,333360,2880
44,35,333360,720
46,43,334080,720
44,35,334800,1440
36,35,336240,2880
41,35,336240,720
48,35,336240,2880
42,41,336960,720
41,35,337680,1440
41,35,339120,720
46,35,339120,2880
34,35,339120,2880
42,42,339840,720
41,35,340560,1440
46,35,342000,1440
58,35,342000,1440
44,35,343440,1440
56,35,343440,1440
50,44,344880,2880
38,44,344880,2880
52,35,347760,1440
40,35,347760,1440
53,35,349200,1440
41,35,349200,1440
47,44,350640,2880
35,44,350640,2880
36,36,353520,2880
48,36,353520,2880
46,36,356400,2160
34,36,356400,2160
47,31,358560,720
35,31,358560,720
36,36,359280,2880
48,36,359280,2880
36,36,362160,2880
48,36,362160,2880
41,80,366480,240
53,71,366720,240
41,71,366960,60
44,80,367200,240
56,75,367440,240
44,80,367680,60
48,80,367920,240
60,74,368160,240
48,74,368400,60
43,80,368640,240
55,71,368880,240
43,71,369120,60
46,80,369360,240
58,75,369600,240
46,80,369840,60
41,80,370080,240
53,74,370320,240
41,74,370560,60
36,80,370800,240
48,71,371040,240
36,71,371280,60
36,80,371520,240
48,75,371760,240
36,80,372000,60
41,80,372240,240
53,74,372480,240
41,74,372720,60
37,80,372960,240
49,71,373200,240
37,71,373440,60
32,80,373680,240
44,75,373920,240
32,80,374160,60
39,80,374400,240
51,74,374640,240
39,74,374880,60
34,80,375120,240
46,71,375360,240
34,71,375600,60
37,80,375840,240
49,75,376080,240
37,80,376320,60
36,80,376560,240
48,74,376800,240
36,74,377040,60
36,80,377280,240
48,74,377520,240
36,74,377760,60
53,80,378000,240
65,63,378240,120
53,54,378360,120
65,71,378480,60
49,80,378720,240
61,67,378960,120
49,57,379080,120
61,80,379200,60
44,80,379440,240
56,66,379680,120
44,56,379800,120
56,74,379920,60
51,80,380160,240
63,63,380400,120
51,56,380520,120
63,71,380640,60
46,80,380880,240
58,67,381120,120
46,59,381240,120
58,80,381360,60
49,80,381600,240
61,66,381840,120
49,59,381960,120
61,74,382080,60
48,80,382320,240
60,63,382560,120
48,54,382680,120
60,71,382800,60
48,80,383040,240
60,67,383280,120
48,59,383400,120
60,80,383520,60
48,80,383760,240
60,66,384000,120
48,58,384120,120
60,75,384240,60
48,83,384480,240
60,66,384720,120
48,58,384840,120
60,75,384960,60
48,86,385200,240
60,73,385440,120
48,64,385560,120
60,88,385680,60
48,89,385920,240
60,74,386160,120
48,64,386280,120
60,84,386400,60
65,67,386640,216
60,56,386640,216
56,56,386640,216
53,56,386640,216
65,57,386880,216
60,48,386880,216
56,48,386880,216
53,48,386880,216
65,57,387120,1920
60,48,387120,1920
56,48,387120,1920
53,48,387120,1920
60,68,389520,120
58,67,389640,120
56,67,389760,120
55,66,389880,120
53,65,390000,120
51,64,390120,120
49,63,390240,120
48,63,390360,120
46,64,390480,120
44,65,390600,120
43,66,390720,120
41,67,390840,120
39,68,390960,120
37,69,391080,120
36,70,391200,120
34,74,391320,120
32,79,391440,120
31,83,391560,120
29,102,391680,240
