note,velocity,position,duration
70,44,0,1920
58,26,160,160
61,26,320,160
66,29,480,160
61,25,640,160
58,22,800,160
61,30,960,160
58,25,1120,160
61,25,1280,160
66,29,1440,160
61,26,1600,160
58,23,1760,160
70,41,1920,960
58,27,2080,160
61,29,2240,160
66,31,2400,160
61,26,2560,160
58,29,2720,160
70,44,2880,960
58,28,3040,160
61,30,3200,160
66,35,3360,160
61,31,3520,160
58,33,3680,160
70,49,3840,1920
58,27,4000,160
63,27,4160,160
66,34,4320,160
63,29,4480,160
58,26,4640,160
63,37,4800,160
58,29,4960,160
63,29,5120,160
66,36,5280,160
63,29,5440,160
58,25,5600,160
66,49,5760,1920
54,30,5920,160
58,30,6080,160
63,36,6240,160
58,30,6400,160
54,30,6560,160
58,37,6720,160
54,30,6880,160
58,30,7040,160
63,35,7200,160
58,30,7360,160
54,27,7520,160
68,49,7680,1920
56,29,7840,160
59,29,8000,160
63,37,8160,160
59,29,8320,160
56,29,8480,160
59,37,8640,160
56,29,8800,160
59,29,8960,160
63,36,9120,160
59,29,9280,160
56,29,9440,160
66,46,9600,480
56,29,9760,160
59,29,9920,160
65,45,10080,480
56,28,10240,160
59,28,10400,160
63,44,10560,480
56,29,10720,160
59,30,10880,160
61,40,11040,480
53,29,11200,160
56,30,11360,160
66,49,11520,480
54,32,11680,160
58,33,11840,160
61,35,12000,160
58,36,12160,160
54,38,12320,160
70,48,12480,480
60,38,12640,160
63,36,12800,160
66,35,12960,160
63,33,13120,160
60,32,13280,160
68,41,13440,1440
56,27,13600,160
61,27,13760,160
65,30,13920,160
61,27,14080,160
56,27,14240,160
61,30,14400,160
56,27,14560,160
61,27,14720,160
65,31,14880,160
69,39,14880,480
61,24,15040,160
57,24,15200,160
70,44,15360,1920
58,26,15520,160
61,26,15680,160
66,29,15840,160
61,25,16000,160
58,25,16160,160
61,30,16320,160
58,25,16480,160
61,21,16640,160
66,29,16800,160
61,26,16960,160
58,24,17120,160
70,41,17280,960
58,27,17440,160
61,29,17600,160
66,31,17760,160
61,26,17920,160
58,29,18080,160
70,44,18240,960
58,28,18400,160
61,30,18560,160
66,35,18720,160
61,31,18880,160
58,33,19040,160
70,49,19200,1920
58,27,19360,160
63,27,19520,160
66,34,19680,160
63,29,19840,160
58,29,20000,160
63,37,20160,160
58,29,20320,160
63,29,20480,160
66,36,20640,160
63,29,20800,160
58,29,20960,160
66,49,21120,960
54,30,21280,160
58,30,21440,160
63,36,21600,160
58,30,21760,160
54,30,21920,160
65,49,22080,960
53,30,22240,160
56,30,22400,160
62,35,22560,160
56,30,22720,160
53,30,22880,160
63,49,23040,960
51,35,23200,160
54,38,23360,160
59,43,23520,160
54,45,23680,160
51,49,23840,160
68,58,24000,960
56,41,24160,160
59,41,24320,160
63,47,24480,160
59,33,24640,160
56,33,24800,160
66,46,24960,480
59,29,25120,160
56,29,25280,160
65,45,25440,480
59,28,25600,160
56,28,25760,160
63,44,25920,480
59,29,26080,160
56,30,26240,160
65,40,26400,480
59,29,26560,160
56,30,26720,160
68,49,26880,1920
59,27,27040,160
61,27,27200,160
65,34,27360,160
61,29,27520,160
59,29,27680,160
61,37,27840,160
59,29,28000,160
61,29,28160,160
65,36,28320,160
61,29,28480,160
59,29,28640,160
66,49,28800,1920
54,30,28960,160
58,24,29120,160
61,36,29280,160
58,30,29440,160
54,24,29600,160
58,37,29760,160
54,30,29920,160
58,26,30080,160
61,35,30240,160
58,30,30400,160
54,26,30560,160
68,44,30720,1920
56,26,30880,160
61,26,31040,160
65,29,31200,160
61,25,31360,160
56,25,31520,160
61,30,31680,160
56,26,31840,160
61,26,32000,160
65,30,32160,160
61,27,32320,160
56,27,32480,160
70,43,32640,1920
61,29,32800,160
63,31,32960,160
67,39,33120,160
63,31,33280,160
61,44,33440,160
63,47,33600,160
61,51,33760,160
63,54,33920,160
67,55,34080,160
63,62,34240,160
61,67,34400,160
73,74,34560,1440
61,51,34720,160
63,51,34880,160
68,66,35040,160
63,49,35200,160
61,49,35360,160
63,55,35520,160
61,37,35680,160
63,33,35840,160
71,50,36000,480
68,37,36000,160
63,33,36160,160
59,33,36320,160
71,41,36480,1920
59,28,36640,160
63,28,36800,160
68,30,36960,160
63,25,37120,160
59,25,37280,160
63,31,37440,160
59,25,37600,160
63,25,37760,160
68,29,37920,160
63,25,38080,160
59,25,38240,160
71,54,38400,1920
59,33,38560,160
64,33,38720,160
68,37,38880,160
64,32,39040,160
59,32,39200,160
64,39,39360,160
59,33,39520,160
64,33,39680,160
68,39,39840,160
64,35,40000,160
59,36,40160,160
71,49,40320,960
59,37,40480,160
63,40,40640,160
66,44,40800,160
63,37,40960,160
59,39,41120,160
73,55,41280,960
64,49,41440,160
66,51,41600,160
70,60,41760,160
66,64,41920,160
64,63,42080,160
76,69,42240,1440
64,57,42400,160
66,57,42560,160
71,63,42720,160
66,48,42880,160
64,48,43040,160
66,54,43200,160
64,35,43360,160
66,37,43520,160
75,57,43680,480
71,42,43680,160
66,37,43840,160
63,37,44000,160
75,45,44160,1920
63,31,44320,160
66,31,44480,160
71,34,44640,160
66,28,44800,160
63,28,44960,160
66,35,45120,160
63,28,45280,160
66,28,45440,160
71,34,45600,160
66,28,45760,160
63,28,45920,160
75,47,46080,1920
63,32,46240,160
66,32,46400,160
71,45,46560,160
66,32,46720,160
63,35,46880,160
66,31,47040,160
63,31,47200,160
66,31,47360,160
71,36,47520,160
66,30,47680,160
63,30,47840,160
75,46,48000,480
68,29,48160,160
65,29,48320,160
71,43,48480,480
68,28,48640,160
65,28,48800,160
70,43,48960,480
65,28,49120,160
61,28,49280,160
68,39,49440,480
65,28,49600,160
61,28,49760,160
73,47,49920,1920
61,32,50080,160
66,32,50240,160
70,32,50400,160
66,32,50560,160
61,31,50720,160
66,41,50880,160
61,31,51040,160
66,27,51200,160
70,36,51360,160
66,30,51520,160
61,26,51680,160
73,46,51840,480
66,29,52000,160
63,29,52160,160
71,43,52320,480
66,28,52480,160
63,28,52640,160
68,43,52800,480
63,28,52960,160
59,28,53120,160
63,39,53280,480
59,28,53440,160
56,28,53600,160
66,47,53760,1920
54,29,53920,160
58,29,54080,160
61,39,54240,160
58,29,54400,160
54,29,54560,160
58,36,54720,160
54,30,54880,160
58,30,55040,160
61,36,55200,160
58,30,55360,160
54,30,55520,160
66,45,55680,480
59,29,55840,160
56,29,56000,160
65,41,56160,480
59,28,56320,160
56,28,56480,160
70,42,56640,480
61,28,56800,160
59,28,56960,160
68,39,57120,480
61,26,57280,160
59,26,57440,160
66,47,57600,1920
54,29,57760,160
58,29,57920,160
61,29,58080,160
58,29,58240,160
54,26,58400,160
58,36,58560,160
54,30,58720,160
58,30,58880,160
61,36,59040,160
58,30,59200,160
54,30,59360,160
66,47,59520,960
54,29,59680,160
58,29,59840,160
61,36,60000,160
58,29,60160,160
54,31,60320,160
67,47,60480,960
55,30,60640,160
58,30,60800,160
61,36,60960,160
58,30,61120,160
55,30,61280,160
68,44,61440,1920
56,26,61600,160
61,26,61760,160
65,29,61920,160
61,25,62080,160
56,25,62240,160
61,30,62400,160
56,26,62560,160
61,26,62720,160
65,30,62880,160
61,27,63040,160
56,27,63200,160
70,43,63360,1920
61,29,63520,160
64,31,63680,160
67,42,63840,160
64,38,64000,160
61,43,64160,160
63,48,64320,160
61,52,64480,160
63,57,64640,160
67,62,64800,160
63,58,64960,160
61,60,65120,160
73,78,65280,1440
61,59,65440,160
63,57,65600,160
70,68,65760,160
63,42,65920,160
61,47,66080,160
63,56,66240,160
61,35,66400,160
63,36,66560,160
71,50,66720,480
68,37,66720,160
63,33,66880,160
59,33,67040,160
71,41,67200,1920
59,28,67360,160
63,28,67520,160
68,30,67680,160
63,25,67840,160
59,25,68000,160
63,31,68160,160
59,25,68320,160
63,25,68480,160
68,29,68640,160
63,25,68800,160
59,25,68960,160
71,54,69120,1920
59,33,69280,160
64,33,69440,160
68,37,69600,160
64,32,69760,160
59,32,69920,160
64,39,70080,160
59,33,70240,160
64,33,70400,160
68,43,70560,160
64,36,70720,160
59,37,70880,160
71,58,71040,960
59,39,71200,160
63,40,71360,160
66,49,71520,160
63,43,71680,160
59,45,71840,160
73,54,72000,960
64,46,72160,160
66,49,72320,160
70,62,72480,160
66,59,72640,160
64,67,72800,160
76,77,72960,1440
64,53,73120,160
66,52,73280,160
73,63,73440,160
66,46,73600,160
64,46,73760,160
66,54,73920,160
64,40,74080,160
66,40,74240,160
75,51,74400,480
71,51,74400,160
66,37,74560,160
63,37,74720,160
75,55,74880,1920
63,35,75040,160
66,35,75200,160
71,45,75360,160
66,30,75520,160
63,32,75680,160
66,42,75840,160
63,31,76000,160
66,31,76160,160
71,41,76320,160
66,31,76480,160
63,31,76640,160
75,47,76800,1920
63,32,76960,160
66,32,77120,160
71,37,77280,160
66,32,77440,160
63,33,77600,160
66,35,77760,160
63,31,77920,160
66,31,78080,160
71,36,78240,160
66,30,78400,160
63,30,78560,160
75,50,78720,480
68,29,78880,160
65,29,79040,160
74,48,79200,480
68,28,79360,160
65,28,79520,160
71,42,79680,480
65,28,79840,160
62,28,80000,160
68,39,80160,480
65,28,80320,160
61,28,80480,160
73,47,80640,1920
61,32,80800,160
66,32,80960,160
70,36,81120,160
66,32,81280,160
61,32,81440,160
66,36,81600,160
61,31,81760,160
66,31,81920,160
70,36,82080,160
66,30,82240,160
61,30,82400,160
73,46,82560,480
67,29,82720,160
63,29,82880,160
71,43,83040,480
68,28,83200,160
63,28,83360,160
68,43,83520,480
63,28,83680,160
59,28,83840,160
63,39,84000,480
60,28,84160,160
56,28,84320,160
66,47,84480,1920
54,29,84640,160
58,29,84800,160
61,34,84960,160
58,29,85120,160
54,30,85280,160
58,34,85440,160
54,30,85600,160
58,30,85760,160
61,36,85920,160
58,30,86080,160
54,30,86240,160
66,45,86400,480
59,29,86560,160
56,29,86720,160
65,41,86880,480
59,28,87040,160
56,28,87200,160
70,42,87360,480
61,28,87520,160
59,28,87680,160
68,39,87840,480
61,26,88000,160
59,26,88160,160
66,47,88320,3840
54,29,88480,160
58,29,88640,160
61,33,88800,160
58,29,88960,160
54,29,89120,160
58,32,89280,160
54,30,89440,160
58,30,89600,160
61,36,89760,160
58,30,89920,160
54,30,90080,160
58,37,90240,160
54,29,90400,160
58,29,90560,160
61,32,90720,160
58,29,90880,160
54,45,91040,160
58,48,91200,160
54,51,91360,160
58,53,91520,160
62,56,91680,160
58,59,91840,160
54,61,92000,160
70,76,92160,1920
58,50,92320,160
63,50,92480,160
66,63,92640,160
63,49,92800,160
58,48,92960,160
63,61,93120,160
58,48,93280,160
63,48,93440,160
66,55,93600,160
63,47,93760,160
58,47,93920,160
70,73,94080,1920
58,44,94240,160
63,44,94400,160
66,53,94560,160
63,43,94720,160
58,43,94880,160
63,55,95040,160
58,44,95200,160
63,45,95360,160
66,51,95520,160
63,46,95680,160
58,46,95840,160
70,68,96000,480
62,54,96160,160
65,54,96320,160
77,65,96480,480
65,44,96640,160
68,44,96800,160
74,61,96960,480
65,41,97120,160
68,41,97280,160
71,52,97440,480
65,35,97600,160
68,35,97760,160
71,53,97920,480
65,38,98080,160
68,38,98240,160
70,50,98400,480
65,35,98560,160
68,35,98720,160
70,49,98880,480
58,37,99040,160
65,38,99200,160
68,47,99360,480
58,32,99520,160
65,31,99680,160
68,44,99840,480
58,33,100000,160
63,35,100160,160
66,44,100320,480
58,32,100480,160
63,32,100640,160
65,40,100800,480
56,31,100960,160
59,31,101120,160
68,44,101280,480
56,30,101440,160
59,30,101600,160
63,42,101760,960
51,32,101920,160
54,32,102080,160
58,39,102240,160
54,32,102400,160
51,32,102560,160
62,42,102720,720
50,33,102880,160
53,33,103040,160
58,43,103200,160
53,48,103360,160
70,54,103520,150
70,66,103680,1920
58,48,103840,160
63,48,104000,160
66,56,104160,160
63,48,104320,160
58,48,104480,160
63,56,104640,160
58,48,104800,160
63,48,104960,160
66,48,105120,160
63,48,105280,160
58,44,105440,160
70,62,105600,1440
58,41,105760,160
63,44,105920,160
66,49,106080,160
63,45,106240,160
58,44,106400,160
63,51,106560,160
58,47,106720,160
63,44,106880,160
71,60,107040,480
66,47,107040,160
63,42,107200,160
58,42,107360,160
70,55,107520,480
62,46,107680,160
65,46,107840,160
77,59,108000,480
65,44,108160,160
68,44,108320,160
74,53,108480,480
65,41,108640,160
68,41,108800,160
71,47,108960,480
65,35,109120,160
68,35,109280,160
70,53,109440,480
65,38,109600,160
68,38,109760,160
71,50,109920,480
65,35,110080,160
68,35,110240,160
70,49,110400,480
58,37,110560,160
65,38,110720,160
68,47,110880,480
58,32,111040,160
65,31,111200,160
68,44,111360,160
58,33,111520,160
63,35,111680,160
66,44,111840,160
58,32,112000,160
63,32,112160,160
65,40,112320,160
56,31,112480,160
59,31,112640,160
71,44,112800,160
59,30,112960,160
65,30,113120,160
63,42,113280,960
51,32,113440,160
54,32,113600,160
58,32,113760,160
54,32,113920,160
51,32,114080,160
62,42,114240,720
50,33,114400,160
58,33,114560,160
53,33,114560,160
70,33,114720,480
58,33,114880,160
65,44,115040,160
68,37,115200,160
58,28,115360,160
63,29,115520,160
66,37,115680,160
58,27,115840,160
63,27,116000,160
64,34,116160,160
56,26,116320,160
59,26,116480,160
71,37,116640,160
59,25,116800,160
64,25,116960,160
63,35,117120,960
51,27,117280,160
54,27,117440,160
59,27,117600,160
54,27,117760,160
51,27,117920,160
61,35,118080,960
49,28,118240,160
54,28,118400,160
58,28,118560,160
54,28,118720,160
49,31,118880,160
66,39,119040,1920
54,24,119200,160
59,24,119360,160
63,24,119520,160
59,24,119680,160
54,24,119840,160
59,27,120000,160
54,24,120160,160
59,22,120320,160
63,25,120480,160
59,23,120640,160
54,22,120800,160
66,35,120960,960
54,25,121120,160
58,26,121280,160
64,28,121440,160
58,25,121600,160
54,25,121760,160
68,34,121920,480
58,27,122080,160
64,27,122240,160
66,33,122400,480
64,27,122560,160
58,27,122720,160
75,41,122880,1440
63,25,123040,160
66,25,123200,160
71,31,123360,160
66,25,123520,160
63,25,123680,160
66,28,123840,160
63,25,124000,160
66,28,124160,160
73,31,124320,480
67,23,124480,160
63,23,124640,160
73,37,124800,480
68,25,124960,160
59,23,125120,160
71,36,125280,480
68,22,125440,160
59,22,125600,160
68,35,125760,480
64,23,125920,160
59,23,126080,160
64,31,126240,480
61,22,126400,160
56,22,126560,160
63,38,126720,1440
51,26,126880,160
54,26,127040,160
59,28,127200,160
54,26,127360,160
51,26,127520,160
54,27,127680,160
51,26,127840,160
54,28,128000,160
59,28,128160,160
63,35,128160,480
54,28,128320,160
51,28,128480,160
68,38,128640,480
58,28,128800,160
61,28,128960,160
66,36,129120,480
58,27,129280,160
61,28,129440,160
64,35,129600,480
54,27,129760,160
58,27,129920,160
61,34,130080,480
54,26,130240,160
58,26,130400,160
59,30,130560,1440
47,20,130720,160
51,20,130880,160
54,22,131040,160
51,20,131200,160
47,20,131360,160
51,21,131520,160
47,20,131680,160
51,22,131840,160
54,22,132000,160
51,22,132160,160
47,22,132320,160
59,30,132480,1440
47,20,132640,160
52,20,132800,160
55,22,132960,160
52,20,133120,160
47,20,133280,160
52,21,133440,160
47,20,133600,160
52,22,133760,160
55,22,133920,160
52,22,134080,160
47,22,134240,160
59,30,134400,1440
47,20,134560,160
51,20,134720,160
54,22,134880,160
51,20,135040,160
47,20,135200,160
51,25,135360,160
47,34,135520,160
51,38,135680,160
54,42,135840,160
51,46,136000,160
47,50,136160,160
59,54,136320,960
47,51,136480,160
50,47,136640,160
53,42,136800,160
50,38,136960,160
47,34,137120,160
58,39,137280,960
49,20,137440,160
52,22,137600,160
54,22,137760,160
52,22,137920,160
49,22,138080,160
59,30,138240,1440
47,20,138400,160
51,20,138560,160
54,22,138720,160
51,20,138880,160
47,20,139040,160
51,21,139200,160
47,20,139360,160
51,22,139520,160
54,22,139680,160
51,22,139840,160
47,22,140000,160
59,30,140160,1440
47,20,140320,160
52,20,140480,160
56,22,140640,160
52,20,140800,160
47,20,140960,160
52,21,141120,160
47,20,141280,160
52,22,141440,160
56,22,141600,160
52,22,141760,160
47,22,141920,160
59,30,142080,1440
47,20,142240,160
51,20,142400,160
54,22,142560,160
51,20,142720,160
47,20,142880,160
51,25,143040,160
47,33,143200,160
51,36,143360,160
54,39,143520,160
51,42,143680,160
47,45,143840,160
59,48,144000,960
47,45,144160,160
50,42,144320,160
53,40,144480,160
50,37,144640,160
47,35,144800,160
58,39,144960,960
49,20,145120,160
52,22,145280,160
54,22,145440,160
52,22,145600,160
49,22,145760,160
59,30,145920,1440
47,20,146080,160
51,20,146240,160
54,22,146400,160
51,20,146560,160
47,20,146720,160
51,25,146880,160
47,28,147040,160
51,31,147200,160
54,34,147360,160
51,37,147520,160
47,40,147680,160
59,49,147840,480
51,41,148000,160
54,41,148160,160
63,54,148320,480
54,46,148480,160
59,42,148640,160
66,62,148800,480
59,49,148960,160
63,53,149120,160
71,67,149280,480
63,55,149440,160
66,58,149600,160
71,77,149760,1920
59,60,149920,160
62,60,150080,160
65,68,150240,160
62,49,150400,160
59,57,150560,160
62,65,150720,160
59,54,150880,160
62,54,151040,160
65,63,151200,160
62,54,151360,160
59,54,151520,160
70,75,151680,480
56,50,151840,160
62,50,152000,160
68,68,152160,1440
65,46,152160,160
62,49,152320,160
56,44,152480,160
62,56,152640,160
56,46,152800,160
62,41,152960,160
65,57,153120,160
62,46,153280,160
56,46,153440,160
66,75,153600,480
56,53,153760,160
58,53,153920,160
65,68,154080,1440
59,46,154080,160
58,44,154240,160
56,46,154400,160
58,56,154560,160
56,46,154720,160
58,41,154880,160
59,53,155040,160
58,46,155200,160
56,46,155360,160
63,75,155520,480
56,53,155680,160
58,53,155840,160
62,68,156000,1440
59,46,156000,160
58,50,156160,160
56,50,156320,160
58,56,156480,160
56,41,156640,160
58,35,156800,160
59,49,156960,160
58,37,157120,160
56,35,157280,160
65,45,157440,480
54,30,157600,160
58,24,157760,160
63,44,157920,480
54,29,158080,160
58,24,158240,160
66,47,158400,480
56,30,158560,160
59,24,158720,160
65,44,158880,480
56,35,159040,160
59,30,159200,160
68,54,159360,480
58,37,159520,160
63,30,159680,160
66,47,159840,480
58,30,160000,160
63,26,160160,160
65,50,160320,480
56,29,160480,160
59,24,160640,160
68,45,160800,480
56,29,160960,160
59,25,161120,160
63,30,161280,1440
51,20,161440,160
54,20,161600,160
58,22,161760,160
54,20,161920,160
51,20,162080,160
54,25,162240,160
51,28,162400,160
54,28,162560,160
58,34,162720,160
54,37,162880,160
51,40,163040,160
62,49,163200,960
50,41,163360,160
53,41,163520,160
58,40,163680,160
53,42,163840,160
50,42,164000,160
65,58,164160,480
58,49,164320,160
62,53,164480,160
70,64,164640,480
62,54,164800,160
65,58,164960,160
71,77,165120,1920
59,51,165280,160
62,56,165440,160
65,66,165600,160
62,49,165760,160
59,56,165920,160
62,61,166080,160
59,56,166240,160
62,56,166400,160
65,56,166560,160
62,56,166720,160
59,57,166880,160
70,75,167040,480
56,52,167200,160
62,52,167360,160
68,68,167520,1440
65,46,167520,160
62,48,167680,160
56,48,167840,160
62,56,168000,160
56,46,168160,160
62,41,168320,160
65,53,168480,160
62,46,168640,160
56,46,168800,160
66,75,168960,480
56,52,169120,160
58,53,169280,160
65,68,169440,1440
59,46,169440,160
58,44,169600,160
56,50,169760,160
58,56,169920,160
56,46,170080,160
58,41,170240,160
59,53,170400,160
58,46,170560,160
56,46,170720,160
63,75,170880,480
56,56,171040,160
58,56,171200,160
62,68,171360,1440
59,46,171360,160
58,47,171520,160
56,47,171680,160
58,56,171840,160
56,41,172000,160
58,39,172160,160
59,49,172320,160
58,37,172480,160
56,35,172640,160
65,45,172800,480
54,30,172960,160
58,24,173120,160
63,44,173280,480
54,29,173440,160
58,24,173600,160
66,47,173760,480
56,30,173920,160
59,24,174080,160
65,44,174240,480
56,35,174400,160
59,30,174560,160
68,54,174720,480
58,37,174880,160
63,30,175040,160
66,47,175200,480
58,30,175360,160
63,26,175520,160
64,50,175680,480
56,29,175840,160
59,24,176000,160
71,45,176146,480
59,29,176320,160
64,25,176480,160
63,30,176640,1440
51,20,176800,160
54,20,176960,160
58,22,177120,160
54,20,177280,160
51,20,177440,160
54,25,177600,160
51,28,177760,160
54,28,177920,160
58,34,178080,160
54,37,178240,160
51,40,178400,160
62,49,178560,960
50,41,178720,160
53,38,178880,160
58,40,179040,160
53,35,179200,160
50,36,179360,160
53,40,179520,160
50,35,179680,160
53,35,179840,160
58,40,180000,160
53,35,180160,160
50,36,180320,160
70,47,180480,1920
58,32,180640,160
63,32,180800,160
67,37,180960,160
63,32,181120,160
58,33,181280,160
63,35,181440,160
58,31,181600,160
63,31,181760,160
67,36,181920,160
63,30,182080,160
58,30,182240,160
70,50,182400,480
58,29,182560,160
62,29,182720,160
68,38,182880,160
62,28,183040,160
58,28,183200,160
72,42,183360,480
62,28,183520,160
68,28,183680,160
70,39,183840,480
68,28,184000,160
62,28,184160,160
79,41,184320,1440
67,25,184480,160
70,25,184640,160
75,31,184800,160
70,25,184960,160
67,25,185120,160
70,28,185280,160
67,25,185440,160
70,28,185600,160
77,31,185760,480
71,23,185920,160
67,23,186080,160
77,37,186240,480
72,25,186400,160
63,23,186560,160
75,36,186720,480
72,22,186880,160
63,22,187040,160
72,35,187200,480
68,23,187360,160
63,23,187520,160
68,31,187680,480
65,22,187840,160
60,22,188000,160
67,39,188160,1440
55,24,188320,160
58,24,188480,160
63,29,188640,160
58,25,188800,160
55,25,188960,160
58,29,189120,160
55,24,189280,160
58,24,189440,160
63,38,189600,160
67,38,189600,480
58,25,189760,160
55,25,189920,160
72,36,190080,480
62,26,190240,160
65,26,190400,160
70,36,190560,480
62,22,190720,160
65,22,190880,160
68,33,191040,480
58,24,191200,160
62,24,191360,160
65,33,191520,480
58,22,191680,160
62,22,191840,160
63,30,192000,1440
51,20,192160,160
55,20,192320,160
58,22,192480,160
55,20,192640,160
51,20,192800,160
55,21,192960,160
51,20,193120,160
55,22,193280,160
58,22,193440,160
55,22,193600,160
51,22,193760,160
63,30,193920,1440
51,20,194080,160
55,20,194240,160
58,22,194400,160
55,20,194560,160
51,20,194720,160
55,21,194880,160
51,20,195040,160
55,22,195200,160
58,22,195360,160
55,22,195520,160
51,22,195680,160
63,30,195840,1440
51,20,196000,160
56,20,196160,160
59,22,196320,160
56,20,196480,160
51,20,196640,160
56,21,196800,160
51,20,196960,160
56,22,197120,160
59,22,197280,160
56,22,197440,160
51,22,197600,160
63,30,197760,1440
51,20,197920,160
55,20,198080,160
61,22,198240,160
55,20,198400,160
51,20,198560,160
55,21,198720,160
51,20,198880,160
55,22,199040,160
61,22,199200,160
55,22,199360,160
51,22,199520,160
63,30,199680,1440
51,20,199840,160
56,20,200000,160
59,22,200160,160
56,20,200320,160
51,20,200480,160
56,21,200640,160
51,20,200800,160
56,22,200960,160
59,22,201120,160
56,22,201280,160
51,22,201440,160
68,36,201600,1440
56,24,201760,160
59,24,201920,160
62,27,202080,160
59,25,202240,160
56,25,202400,160
59,39,202560,160
56,43,202720,160
59,46,202880,160
62,50,203040,160
59,54,203200,160
56,57,203360,160
71,74,203520,3840
59,55,203680,160
61,55,203840,160
68,64,204000,160
61,48,204160,160
59,48,204320,160
61,52,204480,160
59,42,204640,160
61,42,204800,160
68,51,204960,160
61,38,205120,160
59,36,205280,160
62,46,205440,160
59,38,205600,160
62,37,205760,160
68,36,205920,160
62,36,206080,160
59,35,206240,160
61,34,206400,160
59,33,206560,160
61,32,206720,160
68,31,206880,160
61,30,207040,160
59,29,207200,160
70,44,207360,1920
58,26,207520,160
61,26,207680,160
66,29,207840,160
61,25,208000,160
58,25,208160,160
61,30,208320,160
58,25,208480,160
61,25,208640,160
66,29,208800,160
61,26,208960,160
58,26,209120,160
70,41,209280,960
58,27,209440,160
61,29,209600,160
66,31,209760,160
61,26,209920,160
58,29,210080,160
70,44,210240,960
58,28,210400,160
61,30,210560,160
66,35,210720,160
61,31,210880,160
58,33,211040,160
70,49,211200,1920
58,27,211360,160
63,27,211520,160
66,34,211680,160
63,29,211840,160
58,29,212000,160
63,37,212160,160
58,29,212320,160
63,29,212480,160
66,36,212640,160
63,29,212800,160
58,29,212960,160
66,49,213120,1920
54,30,213280,160
58,30,213440,160
63,36,213600,160
58,30,213760,160
54,30,213920,160
58,37,214080,160
54,30,214240,160
58,30,214400,160
63,35,214560,160
58,30,214720,160
54,30,214880,160
68,49,215040,1920
56,29,215200,160
59,29,215360,160
63,37,215520,160
59,29,215680,160
56,29,215840,160
59,37,216000,160
56,29,216160,160
59,29,216320,160
63,36,216480,160
59,29,216640,160
56,29,216800,160
66,46,216960,480
56,29,217120,160
59,29,217280,160
65,45,217440,480
56,28,217600,160
59,28,217760,160
63,44,217920,480
56,29,218080,160
59,30,218240,160
61,40,218400,480
53,29,218560,160
56,30,218720,160
66,49,218880,960
54,32,219040,160
58,33,219200,160
61,35,219360,160
58,36,219520,160
54,38,219680,160
70,48,219840,960
60,38,220000,160
63,36,220160,160
66,35,220320,160
63,33,220480,160
60,32,220640,160
68,41,220800,1440
56,27,220960,160
61,27,221120,160
65,30,221280,160
61,27,221440,160
56,27,221600,160
61,30,221760,160
56,27,221920,160
61,27,222080,160
65,31,222240,160
69,39,222240,480
61,24,222400,160
57,24,222560,160
70,44,222720,1920
58,26,222880,160
61,26,223040,160
66,29,223200,160
61,25,223360,160
58,25,223520,160
61,30,223680,160
58,25,223840,160
61,25,224000,160
66,29,224160,160
61,26,224320,160
58,26,224480,160
70,41,224640,960
58,27,224800,160
61,29,224960,160
66,31,225120,160
61,26,225280,160
58,29,225440,160
70,44,225600,960
58,28,225760,160
61,30,225920,160
66,35,226080,160
61,31,226240,160
58,33,226400,160
70,49,226560,1920
58,27,226720,160
63,27,226880,160
66,34,227040,160
63,29,227200,160
58,29,227360,160
63,37,227520,160
58,29,227680,160
63,29,227840,160
66,36,228000,160
63,29,228160,160
58,29,228320,160
66,49,228480,960
54,30,228640,160
58,30,228800,160
63,36,228960,160
58,30,229120,160
54,30,229280,160
65,49,229440,960
53,30,229600,160
56,30,229760,160
62,35,229920,160
56,30,230080,160
53,30,230240,160
63,49,230400,960
51,35,230560,160
54,40,230720,160
59,45,230880,160
54,50,231040,160
51,56,231200,160
68,65,231360,960
56,48,231520,160
59,45,231680,160
63,55,231840,160
59,33,232000,160
56,36,232160,160
66,46,232320,480
56,29,232480,160
59,29,232640,160
65,45,232800,480
56,28,232960,160
59,28,233120,160
63,44,233280,480
56,29,233440,160
59,30,233600,160
65,40,233760,480
56,29,233920,160
59,30,234080,160
68,49,234240,1920
59,27,234400,160
61,27,234560,160
65,34,234720,160
61,29,234880,160
59,29,235040,160
61,37,235200,160
59,29,235360,160
61,29,235520,160
65,36,235680,160
61,29,235840,160
59,29,236000,160
66,49,236160,1920
54,30,236320,160
58,30,236480,160
61,36,236640,160
58,30,236800,160
54,30,236960,160
58,37,237120,160
54,30,237280,160
58,30,237440,160
61,35,237600,160
58,30,237760,160
54,30,237920,160
68,44,238080,1920
56,26,238240,160
61,26,238400,160
65,29,238560,160
61,25,238720,160
56,25,238880,160
61,30,239040,160
56,26,239200,160
61,26,239360,160
65,30,239520,160
61,27,239680,160
56,27,239840,160
70,43,240000,1920
61,29,240160,160
64,31,240320,160
67,39,240480,160
64,31,240640,160
61,38,240800,160
63,42,240960,160
61,45,241120,160
63,49,241280,160
67,55,241440,160
63,53,241600,160
61,59,241760,160
73,70,241920,1440
61,48,242080,160
63,49,242240,160
70,58,242393,160
63,39,242560,160
61,42,242720,160
63,53,242880,160
61,40,243040,160
63,33,243200,160
71,50,243360,480
68,37,243360,160
63,33,243520,160
59,33,243680,160
71,41,243840,1920
59,28,244000,160
63,28,244160,160
68,30,244320,160
63,25,244480,160
59,25,244640,160
63,31,244800,160
59,25,244960,160
63,25,245120,160
68,29,245280,160
63,25,245440,160
59,25,245600,160
71,54,245760,1920
59,33,245920,160
64,33,246080,160
68,37,246240,160
64,32,246400,160
59,32,246560,160
64,39,246720,160
59,33,246880,160
64,33,247040,160
68,39,247200,160
64,35,247360,160
59,36,247520,160
71,49,247680,960
59,37,247840,160
63,40,248000,160
66,44,248160,160
63,38,248320,160
59,40,248480,160
73,51,248640,960
64,46,248800,160
66,49,248960,160
70,58,249120,160
66,54,249280,160
64,62,249440,160
76,69,249600,1440
64,49,249760,160
66,49,249920,160
73,63,250080,160
66,46,250240,160
64,46,250400,160
66,54,250560,160
64,36,250720,160
66,37,250880,160
75,57,251040,480
71,42,251040,160
66,37,251200,160
63,37,251360,160
75,45,251520,1920
63,31,251680,160
66,31,251840,160
71,34,252000,160
66,28,252160,160
63,28,252320,160
66,35,252480,160
63,28,252640,160
66,28,252800,160
71,34,252960,160
66,28,253120,160
63,28,253280,160
75,47,253440,1920
63,32,253600,160
66,32,253760,160
71,32,253920,160
66,32,254080,160
63,43,254240,160
66,31,254400,160
63,31,254560,160
66,31,254720,160
71,36,254880,160
66,30,255040,160
63,30,255200,160
75,46,255360,480
68,29,255520,160
65,29,255680,160
71,43,255840,480
68,28,256000,160
65,28,256160,160
70,43,256320,480
65,28,256480,160
61,28,256640,160
68,39,256800,480
65,28,256960,160
61,28,257120,160
73,47,257280,1920
61,32,257440,160
66,32,257600,160
70,42,257760,160
66,32,257920,160
61,32,258080,160
66,35,258240,160
61,31,258400,160
66,31,258560,160
70,36,258720,160
66,30,258880,160
61,30,259040,160
73,46,259200,480
66,29,259360,160
63,29,259520,160
71,43,259680,480
66,28,259840,160
63,28,260000,160
68,43,260160,480
63,28,260320,160
59,28,260480,160
63,39,260640,480
59,28,260800,160
56,28,260960,160
66,47,261120,1920
54,29,261280,160
58,29,261440,160
61,38,261600,160
58,29,261760,160
54,31,261920,160
58,35,262080,160
54,30,262240,160
58,30,262400,160
61,36,262560,160
58,30,262720,160
54,30,262880,160
66,45,263040,480
59,29,263200,160
56,29,263360,160
65,41,263520,480
59,28,263680,160
56,28,263840,160
70,42,264000,480
61,28,264160,160
59,28,264320,160
68,39,264480,480
61,26,264640,160
59,26,264800,160
71,47,264960,1920
59,29,265120,160
63,29,265280,160
66,29,265440,160
63,29,265600,160
59,26,265760,160
63,36,265920,160
59,30,266080,160
63,30,266240,160
66,48,266400,160
63,37,266560,160
59,37,266720,160
73,58,266880,960
64,41,267040,160
66,36,267200,160
70,54,267360,160
66,44,267520,160
64,45,267680,160
74,67,267840,960
64,44,268000,160
66,44,268160,160
70,56,268320,160
66,51,268480,160
64,53,268640,160
75,71,268800,1920
63,38,268960,160
66,37,269120,160
71,42,269280,160
66,36,269440,160
63,36,269600,160
66,38,269760,160
63,33,269920,160
66,33,270080,160
71,37,270240,160
66,31,270400,160
63,30,270560,160
75,50,270720,480
68,29,270880,160
65,29,271040,160
74,48,271200,480
68,28,271360,160
65,28,271520,160
71,42,271680,480
65,28,271840,160
62,28,272000,160
68,39,272160,480
65,28,272320,160
61,28,272480,160
73,47,272640,1920
61,32,272800,160
66,32,272960,160
70,36,273120,160
66,32,273280,160
61,32,273440,160
66,36,273600,160
61,31,273760,160
66,31,273920,160
70,36,274080,160
66,30,274240,160
61,30,274400,160
73,46,274560,480
67,29,274720,160
63,29,274880,160
71,43,275040,480
68,28,275200,160
63,28,275360,160
68,43,275520,480
63,28,275680,160
59,28,275840,160
63,39,276000,480
60,28,276160,160
56,28,276320,160
66,47,276480,1920
54,29,276640,160
58,29,276800,160
61,34,276960,160
58,29,277120,160
54,30,277280,160
58,34,277440,160
54,30,277600,160
58,30,277760,160
61,36,277920,160
58,30,278080,160
54,30,278240,160
66,45,278400,480
59,29,278560,160
56,29,278720,160
65,41,278880,480
59,28,279040,160
56,28,279200,160
70,42,279360,480
61,28,279520,160
59,28,279680,160
68,39,279840,480
61,26,280000,160
59,26,280160,160
66,47,280320,1920
54,29,280480,160
58,29,280640,160
61,33,280800,160
58,29,280960,160
54,29,281120,160
58,32,281280,160
54,30,281440,160
58,30,281600,160
61,36,281760,160
58,30,281920,160
54,30,282080,160
66,47,282240,1920
54,29,282400,160
58,29,282560,160
61,32,282720,160
58,29,282880,160
54,37,283040,160
58,41,283200,160
54,43,283360,160
58,45,283520,160
61,47,283680,160
58,50,283840,160
54,52,284000,160
66,60,284160,1920
54,47,284320,160
59,43,284480,160
62,57,284640,160
59,46,284800,160
54,46,284960,160
59,58,285120,160
54,44,285280,160
59,45,285440,160
62,61,285600,160
59,51,285760,160
54,53,285920,160
66,72,286080,960
54,48,286240,160
58,48,286400,160
64,61,286560,160
58,52,286720,160
54,52,286880,160
67,66,287040,480
58,58,287040,160
54,59,287200,160
58,59,287360,160
66,67,287520,480
64,67,287520,160
58,62,287680,160
54,62,287840,160
66,80,288000,1920
54,58,288160,160
59,59,288320,160
62,70,288480,160
59,60,288640,160
54,61,288800,160
59,71,288960,160
54,63,289120,160
59,59,289280,160
62,75,289440,160
59,63,289600,160
54,64,289760,160
60,82,289920,960
48,67,290080,160
54,65,290240,160
57,63,290400,160
54,61,290560,160
48,59,290720,160
54,56,290880,160
48,54,291040,160
54,50,291200,160
57,46,291360,160
54,42,291520,160
48,39,291680,160
61,45,291840,1920
49,33,292000,160
54,33,292160,160
58,36,292320,160
54,32,292480,160
49,32,292640,160
54,35,292800,160
49,31,292960,160
54,31,293120,160
58,37,293280,160
54,30,293440,160
49,30,293600,160
61,45,293760,480
53,29,293920,160
56,29,294080,160
71,41,294240,480
59,28,294400,160
61,28,294560,160
68,42,294720,480
59,28,294880,160
61,28,295040,160
65,39,295200,480
59,26,295360,160
61,26,295520,160
66,47,295680,1920
54,27,295840,160
58,27,296000,160
61,33,296160,160
58,27,296320,160
54,27,296480,160
58,32,296640,160
54,30,296800,160
58,30,296960,160
61,36,297120,160
58,30,297280,160
54,30,297440,160
66,47,297600,1920
54,29,297760,160
58,29,297920,160
61,32,298080,160
58,29,298240,160
54,37,298400,160
58,41,298560,160
54,43,298720,160
58,45,298880,160
61,47,299040,160
58,50,299200,160
54,52,299360,160
66,60,299520,1920
54,44,299680,160
59,43,299840,160
62,52,300000,160
59,46,300160,160
54,46,300320,160
59,53,300480,160
54,44,300640,160
59,45,300800,160
62,56,300960,160
59,46,301120,160
54,46,301280,160
66,64,301440,1920
54,48,301600,160
57,48,301760,160
62,58,301920,160
57,47,302080,160
54,48,302240,160
57,58,302400,160
54,59,302560,160
57,59,302720,160
62,67,302880,160
57,62,303040,160
54,62,303200,160
67,80,303360,1920
55,53,303520,160
58,54,303680,160
62,67,303840,160
58,56,304000,160
55,56,304160,160
58,70,304320,160
55,58,304480,160
58,59,304640,160
62,72,304800,160
58,55,304960,160
55,60,305120,160
60,83,305280,960
48,67,305440,160
54,65,305600,160
57,63,305760,160
54,61,305920,160
48,59,306080,160
54,56,306240,160
48,54,306400,160
54,50,306560,160
57,46,306720,160
54,42,306880,160
48,39,307040,160
61,45,307200,1920
49,33,307360,160
54,33,307520,160
58,36,307680,160
54,32,307840,160
49,32,308000,160
54,35,308160,160
49,31,308320,160
54,31,308480,160
58,37,308640,160
54,30,308800,160
49,30,308960,160
61,45,309120,480
53,29,309280,160
56,29,309440,160
71,41,309600,480
59,28,309760,160
61,28,309920,160
68,42,310080,480
59,28,310240,160
61,28,310400,160
65,39,310560,480
59,26,310720,160
61,26,310880,160
66,45,311040,1920
54,32,311200,160
58,32,311360,160
61,34,311520,160
54,30,311680,160
58,30,311840,160
63,38,312000,160
54,28,312160,160
59,27,312320,160
61,32,312480,160
54,26,312640,160
58,26,312800,160
65,40,312960,480
59,23,313120,160
61,23,313280,160
71,38,313440,480
59,25,313600,160
61,25,313760,160
68,39,313920,480
59,22,314080,160
61,26,314240,160
65,35,314400,480
59,20,314560,160
61,20,314720,160
66,42,314880,1920
54,25,315040,160
58,26,315200,160
61,32,315360,160
54,26,315520,160
58,26,315680,160
63,38,315840,160
54,25,316000,160
59,25,316160,160
61,32,316320,160
54,26,316480,160
58,26,316640,160
65,36,316800,480
59,23,316960,160
61,23,317120,160
75,40,317280,480
65,22,317440,160
68,22,317600,160
71,37,317760,480
61,22,317920,160
65,22,318080,160
68,31,318240,480
61,20,318400,160
65,20,318560,160
66,36,318720,1920
54,26,318880,160
58,26,319040,160
61,28,319200,160
58,25,319360,160
54,25,319520,160
58,32,319680,160
54,24,319840,160
58,24,320000,160
61,29,320160,160
58,24,320320,160
54,24,320480,160
58,32,320640,160
66,36,320640,960
54,26,320800,160
58,26,320960,160
61,28,321120,160
58,25,321280,160
54,25,321440,160
66,36,321600,960
58,32,321600,160
54,24,321760,160
58,24,321920,160
61,29,322080,160
58,24,322240,160
54,24,322400,160
54,25,322560,1920
58,25,322560,1920
66,36,322560,1920
54,22,324480,960
58,22,324480,960
66,32,324480,960
54,20,325440,960
58,20,325440,960
66,30,325440,960
54,19,326400,3840
58,19,326400,3840
66,28,326400,3840
42,29,0,1920
49,35,0,1920
49,35,1920,960
42,29,1920,960
42,29,2880,960
49,35,2880,960
51,35,3840,3840
39,29,3840,3840
35,29,7680,1920
47,35,7680,1920
37,29,9600,1440
49,35,9600,1440
47,20,11040,480
49,26,11040,480
46,29,11520,960
49,35,11520,960
51,35,12480,840
42,29,12480,840
37,29,13320,2040
53,35,13440,1920
49,35,15360,1920
42,29,15360,1920
49,35,17280,960
42,29,17280,960
49,35,18240,960
42,29,18240,960
51,35,19200,1920
39,29,19200,1920
39,29,21120,960
51,35,21120,960
46,35,22080,960
34,29,22080,960
35,29,23040,960
47,35,23040,960
44,35,24000,960
32,29,24000,960
37,29,24960,1920
49,35,24960,1920
42,29,26880,3840
49,35,26880,3840
53,35,30720,1920
49,29,30720,1920
51,34,32640,1920
55,40,32640,1920
46,34,32640,1920
56,50,34560,1920
44,41,34560,1920
51,41,34560,1920
56,35,36480,1920
51,29,36480,1920
44,29,36480,1920
52,33,38400,1920
56,40,38400,1920
54,46,40320,960
51,39,40320,960
58,46,41280,960
49,39,41280,960
54,39,41280,960
47,47,42240,1920
54,47,42240,1920
59,57,42240,1920
47,33,44160,1920
54,33,44160,1920
59,40,44160,1920
47,29,46080,1920
54,35,46080,1920
56,35,48000,960
47,29,48000,1920
53,35,48960,960
46,29,49920,1920
54,35,49920,1920
47,29,51840,1920
54,35,51840,960
56,35,52800,798
49,35,53760,1920
37,35,55560,120
49,35,55680,1920
54,35,56640,480
53,35,57120,480
42,30,57600,1920
49,35,57600,1920
49,35,59520,960
46,30,59520,960
46,30,60480,960
49,35,60480,960
49,29,61440,1920
53,35,61440,1920
46,34,63360,1920
55,40,63360,1920
52,34,63360,960
51,55,64326,960
44,41,65280,1920
51,41,65280,6
55,50,65280,1440
56,44,66720,480
51,29,67200,1920
56,35,67200,1920
44,29,67200,1680
42,60,68880,240
40,68,69120,1920
39,55,71040,960
37,56,72000,96
39,38,72096,96
37,45,72192,96
39,39,72288,96
37,42,72384,96
39,44,72480,96
37,55,72576,128
35,46,72704,128
37,56,72832,128
35,67,72960,3840
47,29,76800,1920
54,35,76800,1920
47,29,78720,1920
56,35,78720,960
53,35,79680,960
54,35,80640,1920
46,29,80640,1920
55,35,82560,480
47,29,82560,1440
56,35,83040,480
51,35,83520,960
48,29,84000,480
49,35,84480,1920
37,35,86280,120
49,35,86400,1920
54,35,87360,480
53,35,87840,480
42,30,88320,2880
49,35,88320,2880
50,55,91200,960
41,55,91200,960
39,58,92160,1440
51,58,92160,1440
39,57,93600,160
41,61,93760,160
42,65,93920,160
42,69,94080,1440
42,60,95520,160
44,63,95680,160
46,67,95840,160
46,77,96000,3840
59,56,96480,480
56,54,96960,480
53,49,97440,480
50,49,97920,1680
48,35,99600,120
50,35,99720,120
51,44,99840,960
44,44,100800,960
46,42,101760,1440
44,59,103200,160
42,62,103360,160
41,66,103520,160
39,69,103680,1440
51,69,103680,1440
39,61,105120,160
41,64,105280,160
42,67,105440,160
42,70,105600,1440
42,58,107040,160
44,61,107200,160
46,64,107360,160
46,74,107520,3840
59,56,108000,480
56,54,108480,480
53,49,108960,480
50,49,109440,960
50,35,110400,96
51,30,110496,96
50,35,110592,86
51,30,110678,85
50,35,110763,86
51,30,110849,85
50,35,110934,86
51,32,111019,86
50,35,111105,85
48,32,111190,86
50,38,111275,85
51,44,111360,960
44,44,112320,960
46,42,113280,1440
38,35,114720,480
50,40,114720,480
39,31,115200,960
51,37,115200,960
32,31,116160,960
44,37,116160,960
42,35,117120,960
30,29,117120,960
40,35,118080,960
39,35,119040,1920
37,32,120960,1920
35,37,122880,1920
40,33,124800,1920
42,37,126720,1920
49,33,128640,1440
42,33,128640,1920
52,33,130080,480
35,29,130560,1920
31,29,132480,1440
31,29,133920,160
33,29,134080,160
35,29,134240,150
35,29,134400,1440
37,49,135840,120
39,51,135960,120
40,54,136080,120
42,58,136200,120
43,61,136320,960
42,38,137280,960
35,29,138240,1920
32,29,140160,1440
32,29,141600,160
34,29,141760,160
35,29,141920,150
35,29,142080,1440
37,50,143520,120
39,53,143640,120
40,57,143760,120
42,61,143880,120
44,65,144000,960
42,38,144960,960
35,29,145920,3840
44,74,149760,1440
44,55,151200,160
46,59,151360,160
47,63,151520,150
47,73,151680,1440
47,56,153120,160
49,61,153280,160
50,64,153440,150
50,73,153600,1440
50,56,155040,160
51,61,155200,160
53,64,155360,150
53,73,155520,1440
41,56,156960,480
42,40,157440,960
38,40,158400,960
39,49,159360,960
32,40,160320,960
34,29,161280,1120
33,25,162400,160
34,25,162560,160
35,29,162720,160
34,25,162880,160
33,25,163040,160
34,29,163200,1440
46,29,164640,480
34,29,164640,480
44,74,165120,1440
32,64,165120,1440
44,55,166560,160
46,59,166720,160
47,63,166880,150
35,64,167040,1440
47,73,167040,1440
47,56,168480,160
49,61,168640,160
50,64,168800,150
50,73,168960,1440
38,64,168967,1440
50,56,170400,160
51,61,170560,160
53,64,170720,150
41,64,170880,1440
53,73,170880,1440
41,56,172320,480
42,40,172800,960
38,40,173760,137
39,36,173897,137
38,40,174034,137
39,36,174171,137
38,40,174307,137
36,35,174444,137
38,36,174581,139
39,49,174720,960
32,40,175680,960
34,29,176640,1120
33,25,177760,160
34,25,177920,160
35,29,178080,160
34,25,178240,160
33,25,178400,160
34,29,178560,960
32,29,179520,960
31,29,180480,1920
43,35,180480,1920
41,35,182400,1920
39,37,184320,1920
44,33,186240,1920
46,35,188160,1920
53,35,190080,1440
46,29,190080,1920
56,35,191520,480
39,29,192000,1920
37,35,193920,1440
40,24,195360,160
39,28,195520,160
37,31,195680,160
35,29,195840,1920
34,35,197760,1120
35,24,198880,160
34,24,199040,160
37,27,199200,160
35,24,199360,160
34,24,199520,160
32,29,199680,1920
30,22,201600,96
32,18,201696,96
30,24,201792,96
32,21,201888,96
30,22,201984,96
32,18,202080,96
30,24,202176,96
32,21,202272,96
30,27,202368,96
32,23,202464,96
30,31,202560,96
32,26,202656,96
30,35,202752,96
32,29,202848,96
30,38,202944,96
32,32,203040,96
30,42,203136,128
29,37,203264,128
30,38,203392,128
41,68,203520,960
29,60,203520,960
41,50,204480,960
44,41,204720,240
47,41,204960,240
49,41,205200,240
41,40,205440,960
50,49,205440,960
49,31,206400,960
42,29,207360,1920
49,35,207360,1920
49,35,209280,960
42,29,209280,960
42,29,210240,960
49,35,210240,960
51,35,211200,3840
39,29,211200,3840
35,29,215044,1920
47,35,215047,1920
37,29,216960,1440
49,35,216960,1440
47,20,218400,480
49,26,218400,480
46,29,218880,960
49,35,218880,960
51,35,219840,840
42,29,219840,840
37,29,220680,2040
53,35,220800,1920
49,35,222720,1920
42,29,222720,1920
49,35,224640,960
42,29,224640,960
49,35,225600,960
42,29,225600,960
39,29,226560,2880
51,35,226560,2880
46,35,229440,960
34,29,229440,960
35,29,230404,960
47,35,230407,960
44,40,231360,960
32,33,231360,960
37,29,232320,1920
49,35,232320,1920
42,29,234240,3840
49,35,234240,3840
53,35,238080,1920
49,29,238080,1920
52,34,240000,960
55,40,240000,1920
46,34,240000,1920
51,41,240960,960
44,41,241920,1920
51,41,241920,1920
55,50,241927,1440
56,44,243374,480
56,35,243840,14
51,29,243840,1920
44,29,243840,1680
42,43,245520,240
40,68,245760,1920
39,55,247680,960
37,44,248640,96
39,44,248736,96
37,56,248832,77
39,39,248909,77
37,56,248986,77
39,39,249063,77
37,42,249139,77
39,44,249216,77
37,55,249293,103
35,46,249395,103
37,56,249498,102
35,67,249600,3840
54,35,253440,1920
47,29,253444,1920
47,29,255360,4
56,35,255360,960
53,35,256320,960
54,35,257280,1920
46,29,257280,1920
54,35,259200,960
47,29,259200,1920
56,35,260160,790
49,35,261120,1920
37,35,262920,120
49,42,263040,1920
54,35,264000,480
53,35,264480,480
51,30,264960,1920
54,35,264960,1920
54,35,266880,1920
58,42,266880,1920
47,46,268800,1920
54,46,268800,1920
59,57,268800,1920
47,29,270720,1920
56,35,270720,960
53,35,271680,960
54,35,272640,1920
46,29,272640,1920
55,35,274560,480
47,29,274560,1440
56,35,275040,480
51,35,275520,960
48,29,276000,480
49,35,276480,1920
37,35,278280,120
49,35,278400,1920
54,35,279360,480
53,35,279840,480
42,35,280320,1920
40,43,282240,1920
38,63,284160,1920
38,44,286080,96
37,41,286176,96
38,44,286272,96
37,42,286368,96
38,44,286464,110
37,45,286574,109
38,47,286683,110
37,48,286793,109
38,50,286902,110
37,51,287011,110
38,52,287121,111
37,54,287233,109
38,55,287342,110
37,56,287452,109
38,58,287561,110
37,59,287670,110
35,60,287780,109
37,62,287889,111
35,84,288000,1920
38,77,289920,1920
37,40,291840,1920
37,35,293760,480
49,35,294240,1440
53,31,294720,480
56,31,295200,480
42,35,295680,1920
40,43,297600,1920
38,63,299520,1920
36,37,301440,96
38,33,301536,96
36,37,301632,96
38,33,301728,96
36,38,301824,96
38,39,301920,96
36,41,302016,96
38,44,302112,96
36,45,302208,96
38,47,302304,96
36,50,302400,96
38,51,302496,96
36,54,302592,96
38,55,302688,96
36,58,302784,96
38,60,302880,96
36,62,302976,128
34,65,303104,128
36,68,303232,128
34,84,303365,1920
38,77,305280,1920
37,40,307200,1920
37,35,309120,480
49,35,309600,1440
53,31,310080,480
56,31,310560,480
42,40,311040,1920
49,27,311520,480
46,27,311520,480
47,26,312000,480
51,30,312000,480
49,24,312480,480
46,24,312480,480
37,28,312960,480
49,28,313440,1440
53,24,313920,480
56,24,314400,480
42,40,314880,1920
49,24,315360,480
46,24,315360,480
47,23,315840,480
51,27,315840,480
49,21,316320,480
46,21,316320,480
37,28,316800,480
49,28,317280,1440
56,24,317760,480
59,24,318240,480
49,32,318720,1920
42,28,318720,1920
49,28,320640,960
42,25,320640,960
42,25,321600,960
49,28,321600,960
42,26,322720,160
46,25,322880,160
49,27,323040,160
46,24,323200,160
42,24,323360,160
46,30,323520,160
42,22,323680,160
46,22,323840,160
49,26,324000,160
46,22,324160,160
42,21,324320,160
46,28,324480,160
42,23,324640,160
46,23,324800,160
49,24,324960,160
46,21,325120,160
42,21,325280,160
46,27,325440,160
42,20,325600,160
37,20,325760,160
42,24,325920,160
37,19,326080,160
34,19,326240,160
30,20,326400,3840
37,20,326400,3840
42,23,326400,3840
