note,velocity,position,duration
82,48,960,480
79,48,1440,160
82,44,1600,160
80,40,1760,160
79,48,1920,160
77,45,2080,160
75,40,2240,160
74,48,2400,160
72,45,2560,160
70,42,2720,160
68,48,2880,160
67,45,3040,160
65,45,3200,160
63,48,3360,160
62,43,3520,160
60,43,3680,160
58,48,3840,480
60,44,4000,160
62,41,4160,160
63,48,4320,160
62,44,4480,160
63,44,4640,160
64,53,4800,160
63,50,4960,160
64,49,5120,160
65,55,5280,160
64,49,5440,160
65,50,5600,160
66,60,5760,160
65,53,5920,160
66,53,6080,160
67,54,6240,160
66,51,6400,160
67,50,6560,160
68,48,6720,160
67,45,6880,160
68,48,7040,160
67,48,7200,160
70,51,7360,160
68,51,7520,160
67,50,7680,160
68,47,7840,160
70,47,8000,160
72,49,8160,160
74,46,8320,160
75,46,8480,160
77,48,8640,160
84,49,8800,160
82,49,8960,160
80,48,9120,160
79,45,9280,160
77,43,9440,160
75,48,9600,160
74,45,9760,160
72,43,9920,160
70,47,10080,160
77,48,10240,160
75,45,10400,160
74,48,10560,160
72,45,10720,160
70,43,10880,160
68,48,11040,160
67,43,11200,160
65,45,11360,160
63,48,11520,160
65,45,11680,160
67,43,11840,160
68,52,12000,160
70,51,12160,160
72,55,12320,160
74,59,12480,160
75,55,12640,160
77,58,12800,160
79,65,12960,160
82,61,13120,160
80,58,13280,160
79,63,13440,160
77,57,13600,160
75,54,13760,160
74,64,13920,160
72,59,14080,160
70,58,14240,160
68,63,14400,160
67,59,14560,160
65,54,14720,160
63,63,14880,160
62,53,15040,160
60,51,15200,160
58,63,15360,480
60,54,15520,160
62,51,15680,160
63,63,15840,160
62,55,16000,160
63,51,16160,160
64,63,16320,160
63,56,16480,160
64,54,16640,160
65,63,16800,160
64,59,16960,160
65,55,17120,160
66,68,17280,160
65,61,17440,160
66,59,17600,160
67,64,17760,160
66,61,17920,160
67,59,18080,160
68,63,18240,160
67,60,18400,160
68,57,18560,160
67,63,18720,160
70,60,18880,160
68,58,19040,160
67,63,19200,160
68,60,19360,160
70,60,19520,160
72,63,19680,160
74,58,19840,160
75,58,20000,160
77,63,20160,160
84,64,20320,160
82,58,20480,160
80,64,20640,160
79,61,20800,160
77,57,20960,160
75,63,21120,160
74,60,21280,160
72,57,21440,160
70,62,21600,160
77,63,21760,160
75,58,21920,160
74,63,22080,160
75,59,22240,160
77,59,22400,160
79,63,22560,160
80,59,22720,160
82,59,22880,160
75,63,23040,160
77,59,23200,160
79,59,23360,160
80,63,23520,160
82,58,23680,160
84,58,23840,160
86,63,24000,160
87,58,24160,160
89,58,24320,160
91,67,24480,160
94,63,24640,160
92,61,24800,160
91,67,24960,160
89,63,25120,160
87,59,25280,160
86,64,25440,160
84,59,25600,160
82,56,25760,160
80,63,25920,160
79,59,26080,160
77,57,26240,160
75,63,26400,160
74,59,26560,160
72,56,26720,160
70,63,26880,160
72,59,27040,160
74,59,27200,160
75,66,27360,160
74,61,27520,160
75,61,27680,160
76,66,27840,160
75,63,28000,160
76,61,28160,160
77,70,28320,160
76,66,28480,160
77,63,28640,160
78,72,28800,160
77,67,28960,160
78,65,29120,160
79,70,29280,160
78,65,29440,160
79,63,29600,160
80,64,29760,160
79,61,29920,160
80,61,30080,160
79,63,30240,160
82,59,30400,160
80,59,30560,160
79,63,30720,160
80,59,30880,160
82,59,31040,160
84,63,31200,160
86,60,31360,160
87,60,31520,160
89,64,31680,160
96,62,31840,160
94,59,32000,160
92,62,32160,160
91,56,32320,160
89,56,32480,160
87,59,32640,160
86,58,32800,160
84,53,32960,160
82,53,33120,160
89,55,33280,160
87,51,33440,160
86,54,33600,160
84,53,33760,160
82,48,33920,160
80,51,34080,160
79,50,34240,160
77,49,34400,160
75,48,34560,160
79,47,34720,160
77,46,34880,160
75,45,35040,160
74,45,35200,160
72,44,35360,160
70,43,35520,160
68,42,35680,160
65,41,35840,160
66,40,36000,160
70,38,36160,160
68,39,36320,160
66,41,36480,160
65,37,36640,160
63,32,36800,160
61,41,36960,160
59,37,37120,160
58,32,37280,160
59,41,37440,160
63,39,37600,160
68,39,37760,160
71,44,37920,960
63,37,38080,160
68,30,38240,160
66,37,38400,160
63,35,38560,160
66,32,38720,160
65,41,38880,160
71,37,39040,160
70,32,39200,160
68,41,39360,160
66,37,39520,160
65,31,39680,160
63,36,39840,160
61,36,40000,160
59,31,40160,160
58,41,40320,160
61,38,40480,160
66,30,40640,160
70,44,40800,960
61,38,40960,160
66,32,41120,160
65,36,41280,160
61,34,41440,160
65,31,41600,160
63,40,41760,160
70,41,41920,160
68,37,42080,160
66,41,42240,160
65,37,42400,160
63,31,42560,160
61,37,42720,160
59,34,42880,160
58,31,43040,160
56,41,43200,160
59,37,43360,160
65,37,43520,160
68,44,43680,960
59,39,43840,160
65,33,44000,160
63,37,44160,160
59,33,44320,160
63,34,44480,160
62,41,44640,160
68,37,44800,160
66,37,44960,160
65,41,45120,160
63,38,45280,160
62,33,45440,160
59,37,45600,160
58,35,45760,160
56,35,45920,160
54,41,46080,160
58,37,46240,160
63,39,46400,160
66,44,46560,960
58,35,46720,160
63,35,46880,160
61,40,47040,160
58,35,47200,160
61,35,47360,160
59,41,47520,160
63,38,47680,160
68,38,47840,160
71,44,48000,960
63,37,48160,160
68,37,48320,160
66,39,48480,160
63,36,48640,160
66,36,48800,160
71,48,48960,480
65,41,49120,160
62,41,49280,160
70,47,49440,480
65,41,49600,160
62,41,49760,160
74,47,49920,480
68,41,50080,160
65,41,50240,160
75,47,50400,160
78,39,50560,160
77,39,50720,160
75,42,50880,160
73,36,51040,160
71,36,51200,160
70,43,51360,160
68,37,51520,160
65,36,51680,160
66,39,51840,160
70,39,52000,160
68,36,52160,160
66,39,52320,160
65,36,52480,160
63,36,52640,160
61,39,52800,160
59,36,52960,160
58,36,53120,160
59,40,53280,160
62,40,53440,160
65,37,53600,160
71,44,53760,960
65,40,53920,160
62,37,54080,160
65,40,54240,160
61,37,54400,160
59,37,54560,160
58,40,54720,160
70,40,54880,160
68,36,55040,160
66,40,55200,160
65,40,55360,160
63,38,55520,160
61,40,55680,160
59,37,55840,160
58,35,56000,160
59,39,56160,160
62,35,56320,160
65,36,56480,160
71,45,56640,960
65,37,56800,160
62,37,56960,160
65,40,57120,160
61,40,57280,160
59,36,57440,160
61,40,57600,160
66,37,57760,160
70,37,57920,160
73,45,58080,960
70,40,58240,160
66,36,58400,160
65,39,58560,160
66,37,58720,160
64,38,58880,160
63,39,59040,160
68,39,59200,160
71,39,59360,160
75,46,59520,960
71,38,59680,160
68,38,59840,160
67,40,60000,160
68,39,60160,160
66,39,60320,160
65,40,60480,160
66,40,60640,160
67,38,60800,160
68,40,60960,160
70,40,61120,160
71,39,61280,160
73,40,61440,160
75,40,61600,160
77,39,61760,160
78,39,61920,160
82,45,62080,160
80,42,62240,160
78,41,62400,160
77,41,62560,160
75,40,62720,160
73,40,62880,160
71,40,63040,160
70,39,63200,160
68,40,63360,160
71,38,63520,160
70,38,63680,160
68,38,63840,160
66,37,64000,160
65,35,64160,160
63,40,64320,160
62,33,64480,160
65,33,64640,160
68,33,64800,160
71,33,64960,160
70,33,65120,160
68,33,65280,160
66,33,65440,160
65,33,65600,160
63,40,65760,160
62,33,65920,160
65,33,66080,160
68,32,66240,160
71,32,66400,160
70,32,66560,160
68,32,66720,160
66,32,66880,160
65,32,67040,160
63,39,67200,160
62,32,67360,160
65,32,67520,160
68,32,67680,160
71,34,67840,160
74,36,68000,160
71,39,68160,160
74,40,68320,160
77,41,68480,160
74,43,68640,160
77,45,68800,160
78,46,68960,160
80,50,69120,160
83,48,69280,160
82,48,69440,160
80,50,69600,160
78,48,69760,160
77,48,69920,160
75,53,70080,160
74,47,70240,160
77,47,70400,160
80,47,70560,160
83,47,70720,160
82,46,70880,160
80,47,71040,160
78,45,71200,160
77,45,71360,160
75,52,71520,160
74,48,71680,160
77,48,71840,160
80,48,72000,160
83,48,72160,160
80,51,72320,160
83,53,72480,160
80,54,72640,160
83,56,72800,160
80,57,72960,160
83,60,73120,160
80,61,73280,160
82,61,73440,160
80,56,73600,160
82,53,73760,160
80,48,73920,160
82,44,74080,160
80,40,74240,160
82,36,74400,160
80,32,74560,160
82,27,74720,160
79,48,74880,160
82,45,75040,160
80,43,75200,160
79,48,75360,160
77,45,75520,160
75,43,75680,160
74,48,75840,160
72,46,76000,160
70,45,76160,160
68,48,76320,160
67,46,76480,160
65,44,76640,160
63,48,76800,160
62,45,76960,160
60,45,77120,160
58,48,77280,480
60,46,77440,160
62,45,77600,160
63,48,77760,160
62,46,77920,160
63,44,78080,160
64,50,78240,160
63,49,78400,160
64,45,78560,160
65,54,78720,160
64,51,78880,160
65,46,79040,160
66,57,79200,160
65,52,79360,160
66,48,79520,160
67,56,79680,160
66,52,79840,160
67,48,80000,160
68,48,80160,160
67,45,80320,160
68,45,80480,160
67,48,80640,160
70,48,80800,160
68,45,80960,160
67,48,81120,160
68,45,81280,160
70,43,81440,160
72,48,81600,160
74,45,81760,160
75,44,81920,160
77,50,82080,160
84,50,82240,160
82,46,82400,160
80,51,82560,160
79,48,82720,160
77,45,82880,160
75,48,83040,160
74,45,83200,160
72,45,83360,160
74,46,83520,160
77,46,83680,160
75,46,83840,160
74,49,84000,160
75,50,84160,160
77,48,84320,160
79,53,84480,160
80,51,84640,160
82,51,84800,160
75,55,84960,160
77,56,85120,160
79,56,85280,160
80,58,85440,160
82,59,85600,160
84,57,85760,160
86,61,85920,160
87,62,86080,160
89,59,86240,160
91,64,86400,160
94,62,86560,160
92,58,86720,160
91,64,86880,160
89,61,87040,160
87,60,87200,160
86,64,87360,160
84,58,87520,160
82,55,87680,160
80,64,87840,160
79,62,88000,160
77,61,88160,160
75,59,88320,160
74,57,88480,160
72,55,88640,160
70,54,88800,160
72,52,88960,160
74,50,89120,160
75,48,89280,160
74,48,89440,160
75,48,89600,160
76,52,89760,160
75,49,89920,160
76,49,90080,160
77,54,90240,160
76,50,90400,160
77,49,90560,160
78,56,90720,160
77,52,90880,160
78,52,91040,160
79,56,91200,160
78,51,91360,160
79,51,91520,160
80,51,91680,160
79,48,91840,160
80,48,92000,160
79,48,92160,160
78,48,92320,160
79,48,92480,160
80,50,92640,160
79,51,92800,160
80,48,92960,160
82,53,93120,160
80,54,93280,160
82,52,93440,160
80,56,93600,160
79,56,93760,160
80,53,93920,160
82,58,94080,160
80,59,94240,160
82,54,94400,160
84,61,94560,160
83,60,94720,160
84,60,94880,160
86,64,95040,160
85,63,95200,160
86,63,95360,160
88,66,95520,160
86,65,95680,160
88,62,95840,160
90,69,96000,160
88,68,96160,160
90,65,96320,160
91,72,96480,160
90,72,96640,160
91,68,96800,160
93,74,96960,160
91,73,97120,160
93,70,97280,160
95,77,97440,160
93,76,97600,160
95,72,97760,160
96,81,97920,160
95,77,98080,160
96,73,98240,160
98,81,98400,160
96,77,98560,160
98,73,98720,160
100,81,98880,160
98,78,99040,160
100,73,99200,160
101,81,99360,160
99,73,99520,160
97,70,99680,160
96,81,99840,160
94,74,100000,160
92,72,100160,160
91,81,100320,160
89,74,100480,160
87,71,100640,160
86,81,100800,160
84,74,100960,160
82,67,101120,160
81,81,101280,160
82,74,101440,160
84,70,101600,160
86,81,101760,160
87,75,101920,160
89,70,102080,160
90,87,102240,160
94,79,102400,160
92,77,102560,160
90,81,102720,160
89,72,102880,160
87,69,103040,160
85,79,103200,160
83,72,103360,160
82,69,103520,160
83,87,103680,160
87,78,103840,160
85,72,104000,160
83,81,104160,160
82,75,104320,160
80,75,104480,160
78,81,104640,160
77,72,104800,160
75,68,104960,160
74,87,105120,160
77,77,105280,160
75,74,105440,160
74,81,105600,160
71,72,105760,160
70,69,105920,160
68,79,106080,160
66,68,106240,160
65,63,106400,160
78,89,106560,160
82,75,106720,160
80,70,106880,160
78,80,107040,160
77,73,107200,160
75,70,107360,160
73,79,107520,160
71,70,107680,160
70,64,107840,160
71,85,108000,160
75,77,108160,160
73,74,108320,160
71,80,108480,160
70,74,108640,160
68,71,108800,160
66,78,108960,160
65,70,109120,160
63,67,109280,160
62,89,109440,160
65,77,109600,160
63,77,109760,160
62,81,109920,160
59,77,110080,160
58,73,110240,160
56,81,110400,160
54,76,110560,160
53,72,110720,160
51,81,110880,160
53,79,111040,160
54,79,111200,160
56,89,111360,160
59,81,111520,160
58,81,111680,160
56,81,111840,160
54,77,112000,160
53,77,112160,160
51,81,112320,160
53,76,112480,160
54,76,112640,160
56,89,112800,160
59,77,112960,160
58,78,113120,160
56,81,113280,160
54,77,113440,160
53,77,113600,160
51,81,113760,160
53,78,113920,160
54,78,114080,160
56,89,114240,160
59,78,114400,160
58,78,114560,160
56,81,114720,160
54,78,114880,160
53,78,115040,160
51,81,115200,160
53,81,115360,160
54,78,115520,160
56,85,115680,160
58,87,115840,160
60,85,116000,160
62,90,116160,160
63,92,116320,160
65,89,116480,160
66,96,116640,960
58,81,118080,960
61,81,118080,960
66,81,118080,960
70,97,118080,960
71,92,119520,1440
59,72,120000,160
62,67,120160,160
66,67,120320,160
59,72,120480,480
71,91,120960,1440
59,72,121440,160
61,68,121600,160
67,68,121760,160
59,72,121920,480
71,85,122400,480
62,64,122640,240
66,72,122640,240
73,92,122880,480
64,71,123120,240
66,79,123120,240
74,85,123360,480
62,64,123600,240
66,72,123600,240
73,88,123840,1440
61,72,124320,160
66,68,124480,160
70,68,124640,160
61,72,124800,480
78,95,125280,1440
66,81,125760,160
70,75,125920,160
73,75,126080,160
66,81,126240,480
74,91,126720,1440
62,72,127200,160
66,68,127360,160
71,68,127520,160
62,72,127680,480
71,72,128160,240
73,85,128160,480
64,72,128400,240
71,74,128640,240
76,88,128640,480
64,72,128880,240
71,68,129120,240
73,89,129120,480
64,72,129360,240
74,93,129600,1440
62,72,130080,160
66,67,130240,160
71,67,130400,160
62,72,130560,240
71,54,131040,1440
59,32,131520,160
62,33,131680,160
66,33,131840,160
59,33,132000,480
71,54,132480,1440
59,34,132960,160
61,33,133120,160
67,32,133280,160
59,32,133440,480
71,48,133920,480
62,33,134160,240
66,37,134160,240
73,53,134400,480
64,37,134640,240
66,42,134640,240
74,48,134880,480
62,32,135120,240
66,36,135120,240
73,48,135360,1440
61,33,135840,160
66,34,136000,160
70,35,136160,160
61,35,136320,480
78,81,136800,1440
66,64,137280,160
70,58,137440,160
73,58,137600,160
66,64,137760,480
74,81,138240,1440
62,64,138720,160
66,59,138880,160
71,64,139040,160
62,64,139200,480
71,80,139680,480
68,64,139920,240
66,57,139920,240
74,89,140160,480
68,64,140400,240
66,57,140400,240
71,81,140640,480
68,64,140880,240
66,57,140880,240
73,81,141120,1440
61,48,141600,160
65,48,141760,160
68,48,141920,160
61,49,142080,480
69,48,142560,1440
57,32,143040,160
61,32,143200,160
66,33,143360,160
57,33,143520,480
67,48,144000,1440
55,32,144480,160
59,32,144640,160
62,32,144800,160
55,33,144960,480
61,40,145440,240
65,49,145440,480
56,40,145680,240
61,40,145920,240
68,49,145920,480
56,40,146160,240
61,40,146400,240
65,48,146400,480
56,40,146640,240
66,48,146880,1440
54,32,147360,160
57,32,147520,160
61,32,147680,160
54,32,147840,480
66,85,148320,1440
54,72,148800,160
59,64,148960,160
62,64,149120,160
54,72,149280,480
66,48,149760,1440
54,32,150240,160
57,32,150400,160
61,32,150560,160
54,32,150720,480
56,48,151200,160
65,64,151200,1440
57,50,151360,160
59,53,151520,160
61,55,151680,160
62,57,151840,160
61,55,152000,160
59,53,152160,160
57,50,152320,160
56,48,152480,160
66,48,152640,1440
54,32,153120,160
57,32,153280,160
61,32,153440,160
54,32,153600,480
66,84,154080,1440
54,72,154560,160
59,66,154720,160
62,66,154880,160
54,72,155040,480
66,48,155520,1440
54,32,156000,160
57,32,156160,160
61,32,156320,160
54,32,156480,480
56,48,156960,160
65,64,156960,1440
57,50,157120,160
59,53,157280,160
61,55,157440,160
62,57,157600,160
61,55,157760,160
59,53,157920,160
57,50,158080,160
56,48,158240,160
66,48,158400,1440
54,32,158880,160
57,32,159040,160
61,32,159200,160
54,32,159360,480
73,81,159840,1440
61,64,160320,160
65,61,160480,160
68,61,160640,160
61,64,160800,480
70,89,161280,1440
58,76,161760,160
61,71,161920,160
67,71,162080,160
58,76,162240,480
71,81,162720,480
62,57,162960,240
66,64,162960,240
73,81,163200,480
64,57,163440,240
66,64,163440,240
74,81,163680,480
62,57,163920,240
66,64,163920,240
73,81,164160,1440
61,64,164640,160
66,64,164800,160
70,64,164960,160
61,64,165120,480
78,81,165600,1440
66,64,166080,160
70,59,166240,160
73,59,166400,160
66,64,166560,480
75,90,167040,1440
63,76,167520,160
66,65,167680,160
72,61,167840,160
63,76,168000,480
76,86,168480,480
67,64,168720,240
71,72,168720,240
78,86,168960,480
69,64,169200,240
71,72,169200,240
79,86,169440,480
67,64,169680,240
71,72,169680,240
78,84,169920,1440
66,68,170400,160
71,68,170560,160
74,68,170720,160
66,68,170880,480
74,81,171360,480
68,64,171600,240
66,57,171600,240
73,81,171840,480
68,64,172080,240
66,57,172080,240
71,81,172320,480
68,64,172560,240
66,57,172560,240
73,86,172800,1440
61,61,173280,160
65,61,173440,160
68,61,173600,160
61,61,173760,480
69,81,174240,480
61,57,174480,240
63,64,174480,240
68,81,174720,480
61,57,174960,240
63,64,174960,240
66,81,175200,480
61,57,175440,240
63,64,175440,240
68,86,175680,1440
56,64,176160,160
60,64,176320,160
63,64,176480,160
56,64,176640,480
65,64,177120,1440
66,65,178560,1440
71,48,182880,1440
59,48,183360,160
62,32,183520,160
66,32,183680,160
59,32,183840,480
71,48,184320,1440
59,32,184800,160
61,32,184960,160
67,32,185120,160
59,32,185280,480
71,48,185760,480
62,28,186000,240
66,32,186000,240
73,48,186240,480
64,28,186480,240
66,32,186480,240
74,48,186720,480
62,28,186960,240
66,32,186960,240
73,48,187200,1440
61,32,187680,160
66,32,187840,160
70,32,188000,160
61,32,188160,480
78,55,188640,1440
66,32,189120,160
70,32,189280,160
73,32,189440,160
66,32,189600,480
74,51,190080,1440
62,32,190560,160
66,32,190720,160
71,32,190880,160
62,32,191040,480
71,32,191520,240
73,48,191520,480
64,32,191760,240
71,32,192000,240
76,48,192000,480
64,32,192240,240
71,32,192480,240
73,48,192480,480
64,32,192720,240
74,48,192960,1440
62,32,193440,160
66,32,193600,160
71,32,193760,160
62,32,193920,480
76,79,194400,1440
64,64,194880,160
67,58,195040,160
71,58,195200,160
64,64,195360,480
76,78,195840,1440
64,64,196320,160
66,59,196480,160
72,59,196640,160
64,64,196800,480
76,72,197280,480
67,57,197520,240
71,64,197520,240
78,72,197760,480
69,57,198000,240
71,64,198000,240
79,72,198240,480
67,57,198480,240
71,64,198480,240
78,72,198720,1440
66,56,199200,160
71,56,199360,160
75,56,199520,160
66,56,199680,480
83,78,200160,1440
71,64,200640,160
75,60,200800,160
78,60,200960,160
71,64,201120,480
79,78,201600,1440
67,64,202080,160
71,58,202240,160
76,58,202400,160
67,64,202560,480
76,64,203040,480
69,45,203280,240
71,50,203280,240
79,72,203520,480
71,54,203760,240
73,61,203760,240
76,64,204000,480
73,50,204240,240
71,51,204240,240
78,72,204480,1440
66,64,204960,160
70,60,205120,160
73,60,205280,160
66,64,205440,480
74,52,205920,1440
62,32,206400,160
66,32,206560,160
71,32,206720,160
62,32,206880,480
72,48,207360,1440
60,32,207840,160
64,32,208000,160
67,32,208160,160
60,32,208320,480
66,47,208800,240
70,47,208800,480
61,40,209040,240
66,47,209280,240
73,47,209280,480
61,39,209520,240
66,47,209760,240
70,47,209760,480
61,38,210000,240
71,47,210240,1440
59,32,210720,160
62,32,210880,160
66,32,211040,160
59,32,211200,480
71,85,211680,1440
59,67,212160,160
64,61,212320,160
67,61,212480,160
59,67,212640,480
71,48,213120,1440
59,32,213600,160
62,32,213760,160
66,32,213920,160
59,32,214080,480
61,32,214560,160
70,48,214560,1440
62,34,214720,160
64,36,214880,160
66,39,215040,160
67,41,215200,160
66,39,215360,160
64,36,215520,160
62,34,215680,160
61,32,215840,160
71,48,216000,1440
59,32,216480,160
62,32,216640,160
66,32,216800,160
59,32,216960,480
71,79,217440,1440
59,64,217920,160
64,58,218080,160
67,60,218240,160
59,64,218400,480
71,48,218880,1440
59,32,219360,160
62,32,219520,160
66,32,219680,160
59,32,219840,480
61,32,220320,160
70,48,220320,1440
62,34,220480,160
64,36,220640,160
66,39,220800,160
67,41,220960,160
66,39,221120,160
64,36,221280,160
62,34,221440,160
61,32,221600,160
71,48,221760,1440
59,32,222240,160
62,32,222400,160
66,32,222560,160
59,32,222720,480
71,81,223200,1440
59,60,223680,160
62,54,223840,160
66,54,224000,160
59,60,224160,480
71,81,224640,1440
59,60,225120,160
62,54,225280,160
66,54,225440,160
59,60,225600,480
62,81,226080,160
66,64,226240,160
71,64,226400,160
59,74,226560,480
62,81,227040,160
66,64,227200,160
71,64,227360,160
59,71,227520,480
62,81,228000,160
66,64,228160,160
71,64,228320,160
62,72,228480,480
70,81,228960,1440
58,60,229440,160
63,55,229600,160
66,55,229760,160
58,60,229920,480
70,81,230400,1440
58,60,230880,160
63,55,231040,160
66,55,231200,160
58,60,231360,480
63,83,231840,160
66,62,232000,160
70,62,232160,160
58,74,232320,480
63,89,232800,160
66,66,232960,160
70,66,233120,160
58,77,233280,480
63,90,233760,160
66,71,233920,160
70,71,234080,160
58,78,234240,480
63,82,234720,960
75,97,234720,960
87,105,235680,960
75,96,235680,960
71,77,236640,960
83,91,236640,960
80,81,237600,160
83,75,237760,160
80,80,237920,160
83,74,238080,160
80,78,238240,160
83,72,238400,160
80,77,238560,160
83,69,238720,160
80,75,238880,160
83,69,239040,160
80,74,239200,160
83,67,239360,160
80,72,239520,160
83,67,239680,160
80,72,239840,160
83,65,240000,160
80,70,240160,160
83,64,240320,160
80,70,240480,160
82,62,240640,160
80,64,240800,160
82,56,240960,160
80,58,241120,160
82,51,241280,160
80,53,241440,160
82,45,241600,160
80,47,241760,160
82,40,241920,160
80,41,242080,160
82,35,242240,160
80,36,242400,160
82,28,242560,160
80,30,242720,160
82,23,242880,160
80,24,243040,160
82,21,243200,160
79,24,243360,160
82,44,243520,160
80,43,243680,160
79,43,243840,160
77,42,244000,160
75,41,244160,160
74,40,244320,160
72,40,244480,160
70,40,244640,160
68,39,244800,160
67,39,244960,160
65,38,245120,160
63,37,245280,160
62,39,245440,160
60,38,245600,160
58,40,245760,480
60,41,245920,160
62,40,246080,160
63,44,246240,160
62,45,246400,160
63,45,246560,160
64,48,246720,160
63,47,246880,160
64,45,247040,160
65,53,247200,160
64,51,247360,160
65,48,247520,160
66,56,247680,160
65,52,247840,160
66,48,248000,160
67,56,248160,160
66,54,248320,160
67,49,248480,160
68,48,248640,160
67,45,248800,160
68,42,248960,160
67,48,249120,160
70,45,249280,160
68,44,249440,160
67,48,249600,160
68,45,249760,160
70,45,249920,160
72,48,250080,160
74,44,250240,160
75,44,250400,160
77,48,250560,160
84,52,250720,160
82,46,250880,160
80,51,251040,160
79,47,251200,160
77,45,251360,160
75,48,251520,160
74,45,251680,160
72,45,251840,160
70,47,252000,160
77,45,252160,160
75,45,252320,160
74,48,252480,160
72,45,252640,160
70,45,252800,160
68,48,252960,160
67,44,253120,160
65,44,253280,160
63,48,253440,160
65,48,253600,160
67,48,253760,160
68,48,253920,160
70,51,254080,160
72,55,254240,160
74,56,254400,160
75,60,254560,160
77,63,254720,160
79,63,254880,160
82,58,255040,160
80,53,255200,160
79,62,255360,160
77,56,255520,160
75,54,255680,160
74,63,255840,160
72,58,256000,160
70,54,256160,160
68,63,256320,160
67,59,256480,160
65,60,256640,160
63,63,256800,160
62,59,256960,160
60,59,257120,160
58,63,257280,480
60,58,257440,160
62,58,257600,160
63,63,257760,160
62,60,257920,160
63,60,258080,160
64,67,258240,160
63,63,258400,160
64,63,258560,160
65,71,258720,160
64,68,258880,160
65,64,259040,160
66,73,259200,160
65,70,259360,160
66,67,259520,160
67,72,259680,160
66,70,259840,160
67,64,260000,160
68,63,260160,160
67,58,260320,160
68,58,260480,160
67,63,260640,160
70,60,260800,160
68,60,260960,160
67,63,261120,160
68,58,261280,160
70,58,261440,160
72,63,261600,160
74,58,261760,160
75,58,261920,160
77,63,262080,160
84,66,262240,160
82,65,262400,160
80,64,262560,160
79,60,262720,160
77,60,262880,160
75,63,263040,160
74,58,263200,160
72,61,263360,160
70,59,263520,160
77,62,263680,160
75,58,263840,160
74,63,264000,160
75,59,264160,160
77,59,264320,160
79,63,264480,160
80,57,264640,160
82,57,264800,160
75,63,264960,160
77,58,265120,160
79,58,265280,160
80,63,265440,160
82,58,265600,160
84,58,265760,160
86,63,265920,160
87,58,266080,160
89,58,266240,160
91,63,266400,160
94,63,266560,160
92,58,266720,160
91,64,266880,160
89,62,267040,160
87,62,267200,160
86,63,267360,160
84,57,267520,160
82,58,267680,160
80,60,267840,160
79,58,268000,160
77,58,268160,160
75,63,268320,160
74,58,268480,160
72,58,268640,160
70,63,268800,160
72,58,268960,160
74,58,269120,160
75,63,269280,160
74,59,269440,160
75,59,269600,160
76,64,269760,160
75,61,269920,160
76,62,270080,160
77,66,270240,160
76,63,270400,160
77,63,270560,160
78,70,270720,160
77,65,270880,160
78,65,271040,160
79,73,271200,160
78,68,271360,160
79,63,271520,160
80,64,271680,160
79,61,271840,160
80,61,272000,160
79,63,272160,160
82,59,272320,160
80,60,272480,160
79,63,272640,160
80,60,272800,160
82,60,272960,160
84,63,273120,160
86,59,273280,160
87,59,273440,160
89,64,273600,160
96,59,273760,160
94,59,273920,160
92,62,274080,160
91,61,274240,160
89,60,274400,160
87,59,274560,160
86,58,274720,160
84,57,274880,160
82,56,275040,160
89,55,275200,160
87,54,275360,160
86,54,275520,160
84,53,275680,160
82,52,275840,160
80,51,276000,160
79,50,276160,160
77,49,276320,160
75,48,276480,160
79,47,276640,160
77,46,276800,160
75,45,276960,160
74,45,277120,160
72,44,277280,160
70,43,277440,160
68,42,277600,160
65,41,277760,160
66,40,277920,160
70,41,278080,160
68,41,278240,160
66,41,278400,160
65,41,278560,160
63,41,278720,160
61,41,278880,160
59,41,279040,160
58,41,279200,160
59,41,279360,160
63,41,279520,160
68,41,279680,160
71,44,279840,960
63,41,280000,160
68,41,280160,160
66,41,280320,160
63,41,280480,160
66,41,280640,160
65,41,280800,160
71,41,280960,160
70,41,281120,160
68,41,281280,160
66,41,281440,160
65,41,281600,160
63,41,281760,160
61,41,281920,160
59,41,282080,160
58,41,282240,160
61,41,282400,160
66,41,282560,160
70,44,282720,960
61,41,282880,160
66,41,283040,160
65,41,283200,160
61,41,283360,160
65,41,283520,160
63,40,283680,160
70,41,283840,160
68,41,284000,160
66,41,284160,160
65,41,284320,160
63,41,284480,160
61,41,284640,160
59,41,284800,160
58,41,284960,160
56,41,285120,160
59,41,285280,160
65,41,285440,160
68,44,285600,960
59,38,285760,160
65,38,285920,160
63,41,286080,160
59,38,286240,160
63,38,286400,160
62,41,286560,160
68,41,286720,160
66,41,286880,160
65,41,287040,160
63,37,287200,160
62,37,287360,160
59,41,287520,160
58,37,287680,160
56,37,287840,160
54,41,288000,160
58,41,288160,160
63,41,288320,160
66,44,288480,960
58,41,288640,160
63,41,288800,160
61,44,288960,160
58,41,289120,160
61,41,289280,160
59,41,289440,160
63,41,289600,160
68,41,289760,160
71,44,289920,960
63,41,290080,160
68,41,290240,160
66,44,290400,160
63,41,290560,160
66,41,290720,160
71,48,290880,480
65,41,291040,160
62,41,291200,160
70,47,291360,480
65,41,291520,160
62,41,291680,160
74,47,291840,480
68,41,292000,160
65,41,292160,160
75,47,292320,160
78,39,292480,160
77,39,292640,160
75,39,292800,160
73,39,292960,160
71,39,293120,160
70,39,293280,160
68,39,293440,160
65,39,293600,160
66,39,293760,160
70,39,293920,160
68,39,294080,160
66,39,294240,160
65,39,294400,160
63,39,294560,160
61,39,294720,160
59,39,294880,160
58,40,295040,160
59,40,295200,160
62,40,295360,160
65,40,295520,160
71,44,295680,960
65,38,295840,160
62,38,296000,160
65,40,296160,160
61,38,296320,160
59,38,296480,160
58,40,296640,160
70,40,296800,160
68,40,296960,160
66,40,297120,160
65,36,297280,160
63,36,297440,160
61,40,297600,160
59,37,297760,160
58,37,297920,160
59,39,298080,160
62,39,298240,160
65,39,298400,160
71,45,298560,960
65,36,298720,160
62,36,298880,160
65,40,299040,160
61,38,299200,160
59,38,299360,160
61,40,299520,160
66,40,299680,160
70,40,299840,160
73,45,300000,960
70,37,300160,160
66,37,300320,160
65,40,300480,160
66,38,300640,160
64,38,300800,160
63,39,300960,160
68,39,301120,160
71,39,301280,160
75,46,301440,960
71,37,301600,160
68,37,301760,160
67,40,301920,160
68,37,302080,160
66,37,302240,160
65,40,302400,160
66,40,302560,160
67,40,302720,160
68,40,302880,160
70,40,303040,160
71,40,303200,160
73,40,303360,160
75,40,303520,160
77,40,303680,160
78,39,303840,160
82,39,304000,160
80,40,304160,160
78,40,304320,160
77,40,304480,160
75,40,304640,160
73,40,304800,160
71,40,304960,160
70,40,305120,160
68,40,305280,160
71,40,305440,160
70,40,305600,160
68,38,305760,160
66,37,305920,160
65,35,306080,160
63,40,306240,160
62,33,306400,160
65,33,306560,160
68,33,306720,160
71,33,306880,160
70,33,307040,160
68,33,307200,160
66,33,307360,160
65,33,307520,160
63,40,307680,160
62,33,307840,160
65,33,308000,160
68,32,308160,160
71,32,308320,160
70,32,308480,160
68,32,308640,160
66,32,308800,160
65,32,308960,160
63,39,309120,160
62,32,309280,160
65,32,309440,160
68,32,309600,160
71,34,309760,160
74,36,309920,160
71,39,310080,160
74,40,310240,160
77,41,310400,160
74,43,310560,160
77,45,310720,160
78,46,310880,160
80,46,311040,160
83,48,311200,160
82,45,311360,160
80,48,311520,160
78,46,311680,160
77,46,311840,160
75,53,312000,160
74,47,312160,160
77,47,312320,160
80,47,312480,160
83,44,312640,160
82,44,312800,160
80,47,312960,160
78,44,313120,160
77,44,313280,160
75,52,313440,160
74,48,313600,160
77,48,313760,160
80,48,313920,160
83,48,314080,160
80,51,314240,160
83,53,314400,160
80,54,314560,160
83,56,314720,160
80,57,314880,160
83,60,315040,160
80,61,315200,160
82,62,315360,160
80,58,315520,160
82,54,315680,160
80,50,315840,160
82,46,316000,160
80,42,316160,160
82,38,316320,160
80,34,316480,160
82,30,316640,160
79,48,316800,160
82,44,316960,160
80,40,317120,160
79,48,317280,160
77,45,317440,160
75,41,317600,160
74,48,317760,160
72,45,317920,160
70,41,318080,160
68,48,318240,160
67,44,318400,160
65,41,318560,160
63,48,318720,160
62,45,318880,160
60,42,319040,160
58,48,319200,480
60,44,319360,160
62,42,319520,160
63,48,319680,160
62,44,319840,160
63,44,320000,160
64,51,320160,160
63,48,320320,160
64,48,320480,160
65,55,320640,160
64,52,320800,160
65,52,320960,160
66,58,321120,160
65,52,321280,160
66,48,321440,160
67,56,321600,160
66,53,321760,160
67,48,321920,160
68,48,322080,160
67,46,322240,160
68,46,322400,160
67,48,322560,160
70,45,322720,160
68,45,322880,160
67,48,323040,160
68,45,323200,160
70,45,323360,160
72,48,323520,160
74,45,323680,160
75,45,323840,160
77,48,324000,160
84,50,324160,160
82,45,324320,160
80,49,324480,160
79,46,324640,160
77,46,324800,160
75,48,324960,160
74,45,325120,160
72,45,325280,160
74,48,325440,160
77,45,325600,160
75,45,325760,160
74,49,325920,160
75,47,326080,160
77,47,326240,160
79,53,326400,160
80,50,326560,160
82,50,326720,160
75,55,326880,160
77,52,327040,160
79,52,327200,160
80,58,327360,160
82,54,327520,160
84,54,327680,160
86,61,327840,160
87,59,328000,160
89,59,328160,160
91,64,328320,160
94,62,328480,160
92,58,328640,160
91,64,328800,160
89,62,328960,160
87,58,329120,160
86,62,329280,160
84,56,329440,160
82,56,329600,160
80,64,329760,160
79,63,329920,160
77,61,330080,160
75,59,330240,160
74,57,330400,160
72,55,330560,160
70,54,330720,160
72,52,330880,160
74,50,331040,160
75,48,331200,160
74,48,331360,160
75,48,331520,160
76,48,331680,160
75,49,331840,160
76,51,332000,160
77,53,332160,160
76,56,332320,160
77,58,332480,160
78,62,332640,160
77,61,332800,160
78,58,332960,160
79,56,333120,160
78,54,333280,160
79,51,333440,160
80,48,333600,160
79,48,333760,160
80,48,333920,160
79,48,334080,160
78,48,334240,160
79,49,334400,160
80,50,334560,160
79,49,334720,160
80,49,334880,160
82,53,335040,160
80,51,335200,160
82,51,335360,160
80,56,335520,160
79,52,335680,160
80,52,335840,160
82,58,336000,160
80,54,336160,160
82,51,336320,160
84,61,336480,160
83,57,336640,160
84,53,336800,160
86,64,336960,160
85,60,337120,160
86,57,337280,160
88,66,337440,160
86,63,337600,160
88,60,337760,160
90,69,337920,160
88,65,338080,160
90,63,338240,160
91,72,338400,160
90,69,338560,160
91,63,338720,160
93,74,338880,160
91,71,339040,160
93,66,339200,160
95,77,339360,160
93,71,339520,160
95,65,339680,160
96,81,339840,160
95,75,340000,160
96,69,340160,160
98,81,340320,160
96,76,340480,160
98,71,340640,160
100,81,340800,160
98,76,340960,160
100,70,341120,160
101,81,341280,160
99,75,341440,160
97,70,341600,160
96,81,341760,160
94,76,341920,160
92,70,342080,160
91,81,342240,160
89,76,342400,160
87,72,342560,160
86,81,342720,160
84,76,342880,160
82,70,343040,160
81,81,343200,160
82,76,343360,160
84,72,343520,160
86,81,343680,160
87,76,343840,160
89,72,344000,160
90,89,344160,160
94,77,344320,160
92,72,344480,160
90,81,344640,160
89,78,344800,160
87,73,344960,160
85,81,345120,160
83,77,345280,160
82,73,345440,160
83,89,345600,160
87,77,345760,160
85,75,345920,160
83,81,346080,160
82,77,346240,160
80,74,346400,160
78,81,346560,160
77,77,346720,160
75,73,346880,160
74,89,347040,160
77,76,347200,160
75,72,347360,160
74,81,347520,160
71,77,347680,160
70,74,347840,160
68,81,348000,160
66,76,348160,160
65,73,348320,160
78,89,348480,160
82,76,348640,160
80,73,348800,160
78,81,348960,160
77,75,349120,160
75,73,349280,160
73,81,349440,160
71,77,349600,160
70,72,349760,160
71,89,349920,160
75,77,350080,160
73,73,350240,160
71,81,350400,160
70,77,350560,160
68,73,350720,160
66,81,350880,160
65,77,351040,160
63,73,351200,160
62,89,351360,160
65,77,351520,160
63,72,351680,160
62,81,351840,160
59,77,352000,160
58,72,352160,160
56,81,352320,160
54,77,352480,160
53,73,352640,160
51,81,352800,160
53,77,352960,160
54,72,353120,160
56,89,353280,160
59,78,353440,160
58,74,353600,160
56,81,353760,160
54,76,353920,160
53,72,354080,160
51,81,354240,160
53,76,354400,160
54,72,354560,160
56,89,354720,160
59,77,354880,160
58,72,355040,160
56,81,355200,160
54,77,355360,160
53,72,355520,160
51,81,355680,160
53,77,355840,160
54,72,356000,160
56,89,356160,160
59,77,356320,160
58,71,356480,160
56,81,356640,160
54,77,356800,160
53,77,356960,160
51,78,357120,160
53,80,357280,160
54,82,357440,160
56,84,357600,160
58,87,357760,160
60,89,357920,160
62,90,358080,160
63,92,358240,160
65,94,358400,160
66,96,358560,960
58,87,360000,960
61,87,360000,960
66,87,360000,960
70,97,360000,960
71,97,361440,1440
59,81,361920,160
62,76,362080,160
66,76,362240,160
59,81,362400,480
71,96,362880,1440
59,81,363360,160
61,77,363520,160
67,77,363680,160
59,81,363840,480
71,88,364320,480
62,72,364560,240
66,81,364560,240
73,95,364800,480
64,79,365040,240
66,88,365040,240
74,89,365280,480
62,72,365520,240
66,81,365520,240
73,88,365760,1440
61,81,366240,160
66,76,366400,160
70,76,366560,160
61,81,366720,480
74,88,367200,1440
62,81,367680,160
65,76,367840,160
70,76,368000,160
62,81,368160,480
75,88,368640,1440
63,81,369120,160
66,76,369280,160
70,76,369440,160
63,81,369600,480
65,81,370080,240
77,77,370320,240
66,81,370560,240
78,77,370800,240
65,81,371040,240
77,77,371280,240
75,81,371520,1440
63,64,372000,160
66,61,372160,160
70,62,372320,160
63,64,372480,480
83,96,372960,1440
71,80,373440,160
74,75,373600,160
78,75,373760,160
71,80,373920,480
83,93,374400,1440
71,81,374880,160
73,76,375040,160
79,76,375200,160
71,81,375360,480
83,89,375840,480
78,72,376080,240
74,64,376080,240
85,89,376320,480
78,72,376560,240
76,64,376560,240
86,89,376800,480
74,64,377040,240
78,72,377040,240
85,89,377280,1440
73,81,377760,160
78,76,377920,160
82,76,378080,160
73,81,378240,480
86,97,378720,1440
74,81,379200,160
77,77,379360,160
82,77,379520,160
74,81,379680,480
87,97,380160,1440
75,81,380640,160
78,77,380800,160
82,77,380960,160
75,81,381120,480
86,81,381600,240
82,72,381600,240
77,72,381600,240
89,72,381840,240
86,89,382080,240
82,80,382080,240
78,80,382080,240
90,79,382320,240
86,81,382560,240
82,72,382560,240
77,72,382560,240
89,72,382800,240
87,90,383040,1440
75,72,383520,160
78,68,383680,160
82,68,383840,160
75,72,384000,480
94,97,384480,1440
82,75,384960,160
89,71,385120,160
92,71,385280,160
82,75,385440,480
94,97,385920,1440
82,74,386400,160
87,70,386560,160
90,70,386720,160
82,74,386880,480
80,72,387360,240
89,81,387360,240
92,76,387600,240
78,72,387840,240
87,81,387840,240
90,77,388080,240
77,72,388320,240
86,81,388320,240
89,78,388560,240
87,90,388800,1440
75,81,389280,160
78,65,389440,160
82,66,389600,160
75,66,389760,480
94,97,390240,1440
82,72,390720,160
89,68,390880,160
92,68,391040,160
82,72,391200,480
94,97,391680,1440
82,72,392160,160
87,68,392320,160
90,68,392480,160
82,72,392640,480
80,72,393120,240
89,81,393120,240
92,81,393360,240
78,72,393600,240
87,81,393600,240
90,81,393840,240
77,72,394080,240
86,81,394080,240
89,80,394320,240
87,90,394560,1440
75,64,395040,160
78,61,395200,160
82,61,395360,160
75,63,395520,480
83,72,396000,240
92,81,396000,240
95,75,396240,240
82,72,396480,240
90,81,396480,240
94,76,396720,240
86,72,396960,240
89,81,396960,240
98,76,397200,240
99,81,397440,160
95,76,397600,160
94,78,397760,160
92,81,397920,160
90,76,398080,160
89,76,398240,160
87,93,398400,240
87,81,398880,160
83,75,399040,160
82,75,399200,160
80,81,399360,160
78,77,399520,160
77,77,399680,160
75,92,399840,240
75,81,400320,160
71,76,400480,160
70,76,400640,160
68,81,400800,160
66,76,400960,160
65,76,401120,160
63,91,401280,240
63,81,401760,160
59,76,401920,160
58,76,402080,160
56,81,402240,160
54,76,402400,160
53,78,402560,160
51,91,402720,120
63,89,403200,240
63,89,403680,240
63,89,404160,240
63,89,404640,240
63,89,405120,240
63,89,405600,240
74,97,406080,480
70,87,406080,480
65,87,406080,480
62,87,406080,480
63,87,407520,480
66,87,407520,480
70,87,407520,480
75,97,407520,480
51,39,1440,1440
58,32,1920,960
53,36,2880,1440
58,31,3360,475
55,39,4320,1440
58,31,4800,960
50,39,5760,1440
58,30,6240,960
51,40,7200,1440
58,31,7680,960
44,40,8640,480
60,32,9120,960
56,28,9120,960
46,48,10080,480
62,37,10560,960
58,33,10560,960
56,33,10560,960
51,48,11520,480
58,27,12000,960
55,27,12000,960
63,37,12000,960
51,55,12960,1440
58,46,13440,960
53,56,14400,1440
58,45,14880,477
55,56,15840,1440
58,45,16320,960
50,57,17280,1440
58,46,17760,960
51,56,18720,1440
58,45,19200,960
44,54,20160,480
60,45,20640,960
56,34,20640,960
46,55,21600,480
56,31,22080,960
62,42,22080,960
58,31,22080,960
51,58,23040,480
63,47,23520,960
58,35,23520,960
55,35,23520,960
51,56,24480,1440
58,45,24960,960
53,56,25920,1440
58,44,26400,960
55,56,27360,1440
58,45,27840,960
50,65,28800,1440
58,46,29280,960
51,58,30240,1440
58,49,30720,960
44,47,31680,480
56,30,32160,960
60,41,32160,960
46,47,33120,480
62,40,33600,960
58,30,33600,960
56,30,33600,960
51,40,34560,480
58,26,35040,960
55,26,35040,960
63,35,35040,960
39,44,36000,1440
51,32,36480,960
44,42,37440,1440
56,32,37920,960
37,44,38880,1440
49,32,39360,960
42,43,40320,1440
54,32,40800,960
35,44,41760,1440
47,32,42240,960
41,42,43200,1440
53,32,43680,960
34,44,44640,1440
46,32,45120,960
39,43,46080,1440
51,32,46560,960
44,43,47520,1440
56,32,48000,960
46,41,48960,1440
58,41,49440,2400
51,40,50400,1440
42,41,51840,1440
49,33,52320,960
44,39,53280,1440
50,53,53760,480
49,33,54240,480
42,39,54720,1440
49,33,55200,960
44,40,56160,1440
50,55,56640,480
49,33,57120,480
42,39,57600,1440
54,43,58080,1440
47,40,59040,1440
56,43,59520,1440
49,43,60480,1440
59,37,60960,960
58,43,61920,960
54,32,61920,960
46,43,63360,1440
59,33,63840,960
56,25,63840,960
53,25,63840,960
46,43,64800,1440
59,32,65280,960
56,24,65280,960
53,24,65280,960
46,43,66240,2880
53,24,66720,2400
59,32,66720,2400
56,24,66720,2400
58,43,69120,1440
68,24,69600,960
65,24,69600,960
71,32,69600,960
58,43,70560,4320
71,32,71040,2400
68,24,71040,3840
65,24,71040,3840
70,40,73440,1440
51,40,74880,1440
58,32,75360,960
53,41,76320,1440
58,31,76800,475
55,40,77760,1440
58,30,78240,960
50,43,79200,1440
58,32,79680,960
51,40,80640,1440
58,36,81120,960
44,41,82080,480
60,32,82560,960
56,24,82560,960
46,40,83520,480
56,23,84000,960
65,31,84000,960
58,23,84000,960
51,47,84960,480
63,40,85440,960
55,30,85440,960
58,30,85440,960
51,46,86400,1440
58,40,86880,960
53,43,87840,1440
58,32,88320,960
55,43,89280,1440
58,32,89760,960
50,45,90720,1440
58,35,91200,960
49,45,92160,1440
51,28,92640,960
58,38,92640,960
48,62,93600,1440
51,30,94080,960
56,41,94080,960
48,71,95040,1440
57,44,95520,960
50,33,95520,960
47,72,96480,1440
50,31,96960,960
55,42,96960,960
46,72,97920,1440
48,34,98400,960
55,45,98400,960
44,72,99360,1440
48,34,99840,960
53,45,99840,960
46,71,100800,1440
56,47,101280,960
53,35,101280,960
51,72,102240,1440
63,57,102720,960
44,73,103680,1440
56,57,104160,960
46,72,105120,1440
58,56,105600,960
39,73,106560,1440
51,54,107040,960
32,75,108000,1440
44,64,108480,960
34,76,109440,1440
46,57,109920,960
39,58,110880,480
50,72,111360,960
46,54,111360,960
39,56,112320,240
50,81,112800,960
46,61,112800,960
39,64,113760,240
46,61,114240,960
50,81,114240,960
39,72,115200,160
41,72,115360,160
42,72,115520,160
44,76,115680,160
46,78,115840,160
48,74,116000,160
50,81,116160,160
51,82,116320,160
53,79,116480,160
54,86,116640,960
42,68,118080,960
54,68,118080,960
35,65,119520,240
47,53,120000,960
50,53,120000,960
54,59,120000,960
35,67,120960,240
47,51,121440,960
49,51,121440,960
52,51,121440,960
55,57,121440,960
50,72,122400,480
54,52,122640,240
59,58,122640,240
49,80,122880,480
54,55,123120,240
58,62,123120,240
47,72,123360,480
54,51,123600,240
59,57,123600,240
42,80,123840,480
54,51,124320,960
58,57,124320,960
42,81,125280,480
54,57,125760,960
58,57,125760,960
61,64,125760,960
47,80,126720,480
54,50,127200,960
59,56,127200,960
43,72,128160,240
55,56,128400,240
40,79,128640,240
52,59,128880,240
43,72,129120,240
55,57,129360,240
47,79,129600,480
54,57,130080,960
59,64,130080,960
35,45,131040,240
47,28,131520,960
50,28,131520,960
54,32,131520,960
35,43,132480,240
47,28,132960,960
49,28,132960,960
52,28,132960,960
55,32,132960,960
50,45,133920,480
54,36,134160,240
59,40,134160,240
49,48,134400,480
54,37,134640,240
58,42,134640,240
47,45,134880,480
54,36,135120,240
59,40,135120,240
42,44,135360,480
54,31,135840,960
58,35,135840,960
42,74,136800,480
54,57,137280,960
58,57,137280,960
61,64,137280,960
47,73,138240,480
54,56,138720,960
59,63,138720,960
38,64,139680,240
50,57,139920,240
35,72,140160,240
47,60,140400,240
38,64,140640,240
50,57,140880,240
37,81,141120,480
49,43,141600,960
53,43,141600,960
56,48,141600,960
42,48,142560,240
54,40,143040,960
35,48,144000,240
47,36,144480,960
50,40,144480,960
37,48,145440,480
53,40,145920,480
49,36,145920,480
37,40,146400,480
42,40,146880,480
45,28,147360,960
49,32,147360,960
35,77,148320,480
53,64,148800,960
50,57,148800,960
47,57,148800,960
30,64,149760,480
49,42,150240,960
45,37,150240,960
37,63,151200,480
49,63,151680,960
30,64,152640,480
49,48,153120,960
45,43,153120,960
42,43,153120,960
35,84,154080,480
53,72,154560,960
50,64,154560,960
47,64,154560,960
30,64,155520,480
49,44,156000,960
45,39,156000,960
37,64,156960,480
49,64,157440,960
30,64,158400,480
49,40,158880,960
45,36,158880,960
42,36,158880,960
41,81,159840,480
53,57,160320,960
56,64,160320,960
40,81,161280,480
52,54,161760,960
55,61,161760,960
50,72,162720,480
54,51,162960,240
59,57,162960,240
49,72,163200,480
54,51,163440,240
58,57,163440,240
47,72,163680,480
54,51,163920,240
59,57,163920,240
42,72,164160,480
54,57,164640,960
58,64,164640,960
46,72,165600,480
61,64,166080,960
58,57,166080,960
45,80,167040,480
60,62,167520,960
57,54,167520,960
55,81,168480,480
64,72,168720,240
59,64,168720,240
54,81,168960,480
63,72,169200,240
59,64,169200,240
52,81,169440,480
59,64,169680,240
64,72,169680,240
47,81,169920,480
59,61,170400,960
62,68,170400,960
35,72,171360,240
47,58,171600,240
37,72,171840,240
49,57,172080,240
38,72,172320,240
50,57,172560,240
37,72,172800,480
49,53,173280,960
53,53,173280,960
56,60,173280,960
30,72,174240,240
42,57,174480,240
32,72,174720,240
44,56,174960,240
33,72,175200,240
45,56,175440,240
32,72,175680,480
51,65,176160,960
48,58,176160,960
44,58,176160,960
37,48,177120,480
53,50,177600,160
49,45,177600,960
56,32,177760,160
61,32,177920,160
53,32,178080,480
33,48,178560,480
54,46,179040,160
45,37,179040,960
57,32,179200,160
61,32,179360,160
54,32,179520,480
55,68,180000,240
35,76,180000,240
59,76,180000,240
47,60,180240,240
62,60,180240,240
54,68,180480,240
57,76,180480,240
37,76,180480,240
61,60,180720,240
49,60,180720,240
53,68,180960,240
56,76,180960,240
37,76,180960,240
61,60,181200,240
49,60,181200,240
54,75,181440,160
42,67,181440,480
50,69,181600,160
49,74,181760,160
47,75,181920,160
45,69,182080,160
44,69,182240,160
42,79,182400,240
35,48,182880,480
47,28,183360,960
50,28,183360,960
54,32,183360,960
35,48,184320,480
47,28,184800,960
49,28,184800,960
52,28,184800,960
55,32,184800,960
50,48,185760,480
54,28,186000,240
59,32,186000,240
49,48,186240,480
54,28,186480,240
58,32,186480,240
47,48,186720,480
54,28,186960,240
59,32,186960,240
42,48,187200,480
54,28,187680,960
58,32,187680,960
42,48,188640,480
54,36,189120,960
58,36,189120,960
61,40,189120,960
47,48,190080,480
54,28,190560,960
59,32,190560,960
43,48,191520,240
55,32,191760,240
40,48,192000,240
52,32,192240,240
43,48,192480,240
55,32,192720,240
47,48,192960,480
54,28,193440,960
59,32,193440,960
40,81,194400,240
52,57,194880,960
55,57,194880,960
59,64,194880,960
40,81,195840,480
52,57,196320,960
54,57,196320,960
57,57,196320,960
60,64,196320,960
55,64,197280,480
59,51,197520,240
64,57,197520,240
54,64,197760,480
59,51,198000,240
63,57,198000,240
52,64,198240,480
59,51,198480,240
64,57,198480,240
47,64,198720,480
63,56,199200,960
59,50,199200,960
47,81,200160,480
59,57,200640,960
63,57,200640,960
66,64,200640,960
52,81,201600,480
64,64,202080,960
59,57,202080,960
43,57,203040,240
55,45,203280,240
40,64,203520,240
52,54,203760,240
43,57,204000,240
55,45,204240,240
42,64,204480,480
54,50,204960,960
58,50,204960,960
61,56,204960,960
47,48,205920,480
54,28,206400,960
59,32,206400,960
40,48,207360,480
52,28,207840,960
55,32,207840,960
42,48,208800,480
54,28,209280,480
58,32,209280,480
42,48,209760,480
35,48,210240,480
47,28,210720,960
50,28,210720,960
54,32,210720,960
40,73,211680,240
52,60,212160,960
55,60,212160,960
58,67,212160,960
35,48,213120,480
50,28,213600,960
54,32,213600,960
42,48,214560,480
54,48,215040,960
35,48,216000,480
47,28,216480,960
50,28,216480,960
54,32,216480,960
40,71,217440,240
58,64,217920,960
55,57,217920,960
52,57,217920,960
35,48,218880,480
50,28,219360,960
54,32,219360,960
42,48,220320,480
54,47,220800,960
35,48,221760,480
47,28,222240,960
50,28,222240,960
54,32,222240,960
35,81,223200,480
47,54,223680,960
50,54,223680,960
54,60,223680,960
35,81,224640,480
47,54,225120,960
50,54,225120,960
54,60,225120,960
35,73,226080,480
47,54,226560,480
50,54,226560,480
54,60,226560,480
35,73,227040,480
47,54,227520,480
50,54,227520,480
54,60,227520,480
35,74,228000,480
47,54,228480,480
50,54,228480,480
54,60,228480,480
34,72,228960,480
46,54,229440,960
51,54,229440,960
54,60,229440,960
34,81,230400,480
46,54,230880,960
51,54,230880,960
54,60,230880,960
34,83,231840,480
46,58,232320,480
51,58,232320,480
54,65,232320,480
34,86,232800,480
46,60,233280,480
51,60,233280,480
54,67,233280,480
34,87,233760,480
46,61,234240,480
51,61,234240,480
54,68,234240,480
32,75,234720,480
44,89,234720,480
53,80,235200,960
51,72,235200,960
47,72,235200,960
44,72,235200,960
47,63,236160,960
54,71,236160,960
51,63,236160,960
44,63,236160,960
54,76,237120,480
51,68,237120,480
47,68,237120,480
44,68,237120,480
59,76,237600,2880
56,68,237600,2880
53,68,237600,2880
46,68,237600,2880
58,50,240480,2880
56,45,240480,2880
53,45,240480,2880
46,45,240480,2880
51,32,243360,1440
58,23,243840,960
53,36,244800,1440
58,27,245280,475
55,41,246240,1440
58,29,246720,960
50,45,247680,1440
58,31,248160,960
51,42,249120,1440
58,31,249600,960
44,41,250560,480
60,29,251040,960
56,26,251040,960
46,40,252000,480
56,27,252480,960
62,30,252480,960
58,27,252480,960
51,45,253440,480
63,30,253920,960
58,27,253920,960
55,27,253920,960
51,48,254880,1440
58,41,255360,960
53,52,256320,1440
58,40,256800,475
55,56,257760,1440
58,45,258240,960
50,56,259200,1440
58,42,259680,960
51,51,260640,1440
58,40,261120,960
44,60,262080,480
60,47,262560,960
56,42,262560,960
46,59,263520,480
56,40,264000,960
62,45,264000,960
58,40,264000,960
51,60,264960,480
63,46,265440,960
58,41,265440,960
55,41,265440,960
51,58,266400,1440
58,46,266880,960
53,56,267840,1440
58,45,268320,960
55,56,269280,1440
58,45,269760,960
50,70,270720,1440
58,54,271200,960
51,54,272160,1440
58,46,272640,960
44,47,273600,480
60,41,274080,960
56,36,274080,960
46,47,275040,480
56,36,275520,960
62,40,275520,960
58,36,275520,960
51,40,276480,480
63,35,276960,960
58,31,276960,960
55,31,276960,960
39,44,277920,1440
51,32,278400,960
44,42,279360,1440
56,32,279840,960
37,44,280800,1440
49,32,281280,960
42,43,282240,1440
54,32,282720,960
35,44,283680,1440
47,32,284160,960
41,42,285120,1440
53,32,285600,960
34,44,286560,1440
46,32,287040,960
39,43,288000,1440
51,32,288480,960
44,43,289440,1440
56,32,289920,960
46,41,290880,1440
58,41,291360,2400
51,40,292320,1440
42,41,293760,1440
49,33,294240,960
44,39,295200,1440
50,53,295680,480
49,33,296160,480
42,39,296640,1440
49,33,297120,960
44,40,298080,1440
50,55,298560,480
49,33,299040,480
46,39,299520,1440
54,43,300000,1440
47,40,300960,1440
56,43,301440,1440
49,43,302400,1440
59,37,302880,960
58,43,303840,960
54,38,303840,960
46,43,305280,1440
59,33,305760,960
56,29,305760,960
53,29,305760,960
46,43,306720,1440
59,32,307200,960
56,28,307200,960
53,28,307200,960
46,43,308160,2880
53,28,308640,2400
56,28,308640,2400
59,32,308640,2400
58,43,311040,1440
71,32,311520,960
68,28,311520,960
65,28,311520,960
58,43,312480,4320
71,32,312960,2400
68,28,312960,3840
65,28,312960,3840
70,43,315360,1440
51,41,316800,1440
58,30,317280,960
53,41,318240,1440
58,32,318720,475
55,41,319680,1440
58,32,320160,960
50,41,321120,1440
58,32,321600,960
51,40,322560,1440
58,31,323040,960
44,41,324000,480
60,32,324480,960
56,28,324480,960
46,41,325440,480
56,28,325920,960
65,32,325920,960
58,28,325920,960
51,45,326880,480
63,36,327360,960
58,32,327360,960
55,32,327360,960
51,44,328320,1440
58,35,328800,960
53,42,329760,1440
58,34,330240,960
55,40,331200,1440
58,32,331680,960
50,48,332640,1440
58,40,333120,960
49,47,334080,1440
51,34,334560,960
58,38,334560,960
48,56,335520,1440
51,32,336000,960
56,36,336000,960
48,60,336960,1440
50,33,337440,960
57,37,337440,960
47,63,338400,1440
50,36,338880,960
55,41,338880,960
46,64,339840,1440
48,38,340320,960
55,43,340320,960
44,68,341280,1440
48,37,341760,960
53,42,341760,960
46,68,342720,1440
56,40,343200,960
53,36,343200,960
51,72,344160,1440
63,56,344640,960
44,72,345600,1440
56,56,346080,960
46,72,347040,1440
58,56,347520,960
39,72,348480,1440
51,53,348960,960
32,79,349920,1440
44,57,350400,960
34,76,351360,1440
46,57,351840,960
39,64,352800,480
46,72,353280,960
50,81,353280,960
39,64,354240,240
46,72,354720,960
50,81,354720,960
39,64,355680,240
46,72,356160,960
50,81,356160,960
39,72,357120,160
41,72,357280,160
42,74,357440,160
44,76,357600,160
46,78,357760,160
48,80,357920,160
50,81,358080,160
51,82,358240,160
53,84,358400,160
54,86,358560,960
42,73,360000,960
54,82,360000,960
35,65,361440,240
47,59,361920,960
50,59,361920,960
54,66,361920,960
35,67,362880,240
47,57,363360,960
49,57,363360,960
52,57,363360,960
55,64,363360,960
50,72,364320,480
54,58,364560,240
59,65,364560,240
49,80,364800,480
54,62,365040,240
58,69,365040,240
47,72,365280,480
54,57,365520,240
59,64,365520,240
42,72,365760,480
54,57,366240,960
58,64,366240,960
46,80,367200,480
56,57,367680,960
53,57,367680,960
58,64,367680,960
39,80,368640,480
51,57,369120,960
54,57,369120,960
58,64,369120,960
46,64,370080,480
56,57,370560,480
62,64,370560,480
58,57,370560,480
46,64,371040,480
51,81,371520,480
58,64,372000,960
54,57,372000,960
35,82,372960,480
54,79,373440,960
50,71,373440,960
47,71,373440,960
35,85,374400,480
49,69,374880,960
52,69,374880,960
55,77,374880,960
47,69,374880,960
50,64,375840,480
54,64,376080,240
59,72,376080,240
49,64,376320,480
54,64,376560,240
58,72,376560,240
47,64,376800,480
54,64,377040,240
59,72,377040,240
42,97,377280,480
58,81,377760,960
54,72,377760,960
46,97,378720,480
53,72,379200,960
56,72,379200,960
58,81,379200,960
39,97,380160,480
51,72,380640,960
54,72,380640,960
58,81,380640,960
46,72,381600,480
56,72,382080,480
62,81,382080,480
58,72,382080,480
46,72,382560,480
51,85,383040,480
63,74,383520,960
58,66,383520,960
54,66,383520,960
46,90,384480,480
68,74,384960,960
65,66,384960,960
62,66,384960,960
58,66,384960,960
51,88,385920,480
66,74,386400,960
63,66,386400,960
58,66,386400,960
56,64,387360,480
59,64,387360,480
65,72,387360,480
66,73,387840,480
63,65,387840,480
58,65,387840,480
58,65,388320,480
65,65,388320,480
68,73,388320,480
51,85,388800,480
66,74,389280,960
63,66,389280,960
58,66,389280,960
46,88,390240,480
68,74,390720,960
65,66,390720,960
62,66,390720,960
58,66,390720,960
51,88,391680,480
66,74,392160,960
63,66,392160,960
58,66,392160,960
56,65,393120,480
59,65,393120,480
65,73,393120,480
66,73,393600,480
63,65,393600,480
58,65,393600,480
58,65,394080,480
65,65,394080,480
68,73,394080,480
51,85,394560,480
66,74,395040,960
63,66,395040,960
58,66,395040,960
56,64,396000,480
59,64,396000,480
65,72,396000,480
66,73,396480,480
63,65,396480,480
58,65,396480,480
58,65,396960,480
65,65,396960,480
68,73,396960,480
63,81,397440,960
58,72,397440,960
54,72,397440,960
51,72,397440,960
56,57,398400,240
59,57,398400,240
63,63,398400,240
51,57,398400,240
54,73,398880,960
63,82,398880,960
58,73,398880,960
51,73,398880,960
56,57,399840,240
63,64,399840,240
59,57,399840,240
51,57,399840,240
51,86,400320,960
46,77,400320,960
42,77,400320,960
39,77,400320,960
44,61,401280,240
51,68,401280,240
47,61,401280,240
39,61,401280,240
51,81,401760,960
46,72,401760,960
42,72,401760,960
39,72,401760,960
47,64,402720,240
44,57,402720,240
39,57,402720,240
39,72,403200,240
42,72,403200,240
46,72,403200,240
51,72,403200,240
54,72,403200,240
58,80,403200,240
59,80,403680,240
56,72,403680,240
51,72,403680,240
47,72,403680,240
44,72,403680,240
39,72,403680,240
51,72,404160,240
39,72,404160,240
42,72,404160,240
46,72,404160,240
54,72,404160,240
58,80,404160,240
59,80,404640,240
56,72,404640,240
51,72,404640,240
47,72,404640,240
44,72,404640,240
39,72,404640,240
51,72,405120,240
39,72,405120,240
42,72,405120,240
46,72,405120,240
54,72,405120,240
58,80,405120,240
51,72,405600,240
59,80,405600,240
56,72,405600,240
47,72,405600,240
44,72,405600,240
39,72,405600,240
34,78,406080,480
46,87,406080,480
46,78,407520,480
39,78,407520,480
51,87,407520,480
