note,velocity,position,duration
74,50,0,480
74,45,480,216
74,45,720,216
70,50,960,480
70,45,1440,480
69,50,1920,480
69,47,2400,240
69,47,2640,180
69,40,2820,60
75,50,2880,960
74,50,3840,480
74,45,4320,216
74,45,4560,216
74,50,4800,240
67,50,5040,120
67,45,5280,480
72,50,5760,240
71,44,6000,120
72,44,6120,120
71,44,6240,120
72,47,6360,120
74,49,6480,120
72,44,6600,120
65,50,6720,960
60,32,6966,240
62,31,7200,240
63,29,7440,240
86,50,7680,480
74,42,7680,480
86,45,8160,216
74,38,8160,216
86,45,8400,216
74,38,8400,216
82,50,8640,480
70,42,8640,480
82,45,9120,480
70,38,9120,480
69,42,9600,480
81,50,9600,480
81,47,10080,240
69,39,10080,240
81,47,10320,180
69,39,10320,180
81,40,10500,60
75,42,10560,960
87,50,10560,960
74,42,11520,480
86,50,11520,480
86,48,12000,216
74,40,12000,216
86,52,12240,216
74,44,12240,216
91,57,12480,480
79,48,12480,480
79,38,12960,240
91,45,12960,480
82,43,13200,240
84,39,13440,720
82,47,13440,240
81,38,13680,120
79,38,13800,120
81,43,13920,240
75,37,14160,240
81,37,14160,240
89,44,14160,240
82,44,14400,960
74,37,14400,960
74,50,15360,480
74,45,15840,216
74,45,16080,216
70,50,16320,480
70,45,16800,480
69,50,17280,480
69,47,17760,240
69,47,18000,180
69,40,18180,60
75,50,18240,960
74,50,19200,480
74,45,19680,216
74,45,19920,216
74,50,20160,240
67,50,20400,120
67,45,20640,480
72,50,21120,240
71,44,21360,120
72,44,21480,120
71,44,21600,120
72,47,21720,120
74,49,21840,120
72,44,21960,120
65,50,22080,960
60,32,22326,240
62,31,22560,240
63,29,22800,240
74,42,23040,480
86,50,23040,480
86,45,23520,216
74,38,23520,216
86,45,23760,216
74,38,23760,216
82,50,24000,480
70,42,24000,480
70,38,24480,480
82,45,24480,480
69,42,24960,480
81,50,24960,480
81,47,25440,240
69,39,25440,240
69,39,25680,180
81,47,25680,180
81,40,25860,60
75,42,25920,960
87,50,25920,960
74,42,26880,480
86,50,26880,480
74,40,27360,216
86,48,27360,216
86,52,27600,216
74,44,27600,216
79,48,27840,480
91,57,27840,480
79,38,28320,240
91,45,28320,480
82,44,28560,240
84,39,28800,720
82,47,28800,240
81,38,29040,120
79,38,29160,120
81,43,29280,240
89,44,29520,240
75,37,29520,240
81,37,29520,240
82,44,29760,960
74,37,29760,960
69,50,30720,480
74,60,30720,480
66,50,30720,480
74,54,31200,216
69,45,31200,216
66,45,31200,216
69,45,31440,216
66,45,31440,216
74,54,31440,216
62,50,31680,480
67,50,31680,480
70,60,31680,480
62,45,32160,480
67,45,32160,480
70,54,32160,480
67,50,32640,480
62,50,32640,480
70,60,32640,360
72,60,33000,60
70,60,33060,60
62,46,33120,240
69,56,33120,240
67,56,33360,240
62,46,33360,240
64,50,33600,960
67,50,33600,960
72,60,33600,720
70,60,34320,240
65,50,34560,480
69,60,34560,480
60,50,34560,480
65,43,35040,216
60,43,35040,216
69,51,35040,216
60,42,35280,216
65,42,35280,216
69,50,35280,216
67,55,35520,480
62,46,35520,480
65,46,35520,480
65,39,36000,480
62,39,36000,480
67,47,36000,480
67,50,36480,240
60,42,36480,960
64,42,36480,480
69,44,36720,120
70,44,36840,120
65,37,36960,240
69,44,36960,240
67,49,37200,240
64,41,37200,240
65,50,37440,960
60,32,37680,240
62,31,37920,240
63,29,38160,240
74,42,38400,480
86,50,38400,480
74,38,38880,216
86,45,38880,216
74,38,39120,216
86,45,39120,216
82,50,39360,480
70,42,39360,480
82,45,39840,480
70,38,39840,480
82,50,40320,360
84,41,40680,60
82,40,40740,60
81,47,40800,120
82,47,40920,60
84,40,40980,30
86,40,41010,30
84,47,41040,120
82,47,41160,120
79,42,41280,960
91,50,41280,960
72,50,42240,480
64,42,42240,480
70,42,42240,480
70,40,42720,216
64,40,42720,216
72,48,42720,216
70,44,42960,216
72,52,42960,216
64,44,42960,216
70,48,43200,480
77,57,43200,480
74,48,43200,480
65,48,43200,480
65,40,43680,480
70,40,43680,480
74,40,43680,480
77,45,43680,480
72,39,44160,720
70,47,44160,240
69,38,44400,120
67,38,44520,120
69,43,44640,240
63,37,44880,240
69,37,44880,240
77,44,44880,240
70,44,45120,960
62,37,45120,960
69,50,46080,480
74,60,46080,480
66,50,46080,480
74,54,46560,216
66,45,46560,216
69,45,46560,216
74,54,46800,216
66,45,46800,216
69,45,46800,216
70,60,47040,480
67,50,47040,480
62,50,47040,480
67,45,47520,480
70,54,47520,480
62,45,47520,480
70,60,48000,360
67,50,48000,480
62,50,48000,480
72,60,48360,60
70,60,48420,60
69,56,48480,240
62,46,48480,240
67,56,48720,240
62,46,48720,240
64,50,48960,960
72,60,48960,720
67,50,48960,960
70,60,49680,240
65,50,49920,480
60,50,49920,480
69,60,49920,480
60,43,50400,216
65,43,50400,216
69,51,50400,216
69,50,50640,216
60,42,50640,216
65,42,50640,216
67,55,50880,480
62,46,50880,480
65,46,50880,480
65,39,51360,480
67,47,51360,480
62,39,51360,480
60,42,51840,960
64,42,51840,480
67,50,51840,240
69,44,52080,120
70,44,52200,120
69,44,52320,240
65,37,52320,240
67,49,52560,240
64,41,52560,240
65,50,52800,960
60,32,53040,240
62,31,53280,240
63,29,53520,240
74,42,53760,480
86,50,53760,480
86,45,54240,216
74,38,54240,216
74,38,54480,216
86,45,54480,216
70,42,54720,480
82,50,54720,480
82,45,55200,480
70,38,55200,480
82,50,55680,360
84,41,56040,60
82,40,56100,60
81,47,56160,120
82,47,56280,60
84,40,56340,30
86,40,56370,30
84,47,56400,120
82,47,56520,120
79,42,56640,960
91,50,56640,960
64,42,57600,480
70,42,57600,480
72,50,57600,480
70,40,58080,216
72,48,58080,216
64,40,58080,216
64,44,58320,216
70,44,58320,216
72,52,58320,216
70,48,58560,480
65,48,58560,480
74,48,58560,480
77,57,58560,480
70,40,59040,480
65,40,59040,480
77,45,59040,480
74,40,59040,480
70,47,59520,240
72,39,59520,720
69,38,59760,120
67,38,59880,120
69,43,60000,240
69,37,60240,240
77,44,60240,240
63,37,60240,240
70,44,60480,960
62,37,60480,960
72,31,61440,720
70,37,61440,240
69,30,61680,120
67,30,61800,120
69,34,61920,240
63,29,62160,240
77,35,62160,240
69,29,62160,240
62,29,62400,720
70,35,62400,720
58,29,63120,240
60,26,63360,720
58,31,63360,240
57,25,63600,120
55,25,63720,120
57,28,63840,240
51,24,64080,240
65,29,64080,240
57,24,64080,240
50,24,64320,720
58,29,64320,720
74,50,65280,360
62,26,65400,120
65,26,65520,120
74,45,65640,120
74,50,65760,360
62,26,65880,120
65,26,66000,120
74,47,66120,120
72,50,66240,360
62,26,66360,120
65,26,66480,120
70,45,66600,120
70,50,66720,360
62,26,66840,120
65,26,66960,120
72,46,67080,120
70,50,67200,360
63,28,67320,120
65,28,67440,120
69,48,67560,120
72,52,67680,360
65,28,67800,120
69,29,67920,120
74,50,68040,120
75,55,68160,360
69,32,68280,120
72,32,68400,120
78,52,68520,120
79,57,68640,360
69,34,68760,120
72,34,68880,120
75,50,69000,120
74,50,69120,360
66,26,69240,120
69,26,69360,120
75,45,69480,120
74,50,69600,360
66,26,69720,120
69,26,69840,120
72,47,69960,120
72,50,70080,360
65,26,70200,120
68,26,70320,120
72,45,70440,120
71,50,70560,360
65,26,70680,120
68,26,70800,120
71,46,70920,120
71,50,71040,360
63,28,71160,120
67,28,71280,120
72,48,71400,120
75,52,71520,360
63,28,71640,120
66,29,71760,120
72,45,71880,120
70,51,72000,360
62,29,72120,120
65,26,72240,120
70,35,72360,120
69,40,72480,360
60,24,72600,120
65,24,72720,120
69,42,72840,120
74,50,72960,360
62,26,73080,120
65,26,73200,120
74,45,73320,120
74,50,73440,360
62,26,73560,120
65,26,73680,120
74,47,73800,120
72,50,73920,360
62,26,74040,120
65,26,74160,120
70,45,74280,120
70,50,74400,360
62,26,74520,120
65,26,74640,120
72,46,74760,120
70,50,74880,360
63,28,75000,120
65,28,75120,120
69,48,75240,120
72,52,75360,360
65,28,75480,120
69,29,75600,120
74,50,75720,120
75,55,75840,360
69,32,75960,120
72,32,76080,120
78,52,76200,120
79,57,76320,360
69,34,76440,120
72,34,76560,120
75,50,76680,120
74,50,76800,360
62,26,76920,120
65,26,77040,120
69,45,77160,120
70,50,77280,360
62,26,77400,120
65,26,77520,120
72,53,77640,120
73,58,77760,360
67,38,77875,120
70,38,78000,120
79,45,78115,120
81,55,78240,360
70,35,78360,120
73,35,78480,120
82,46,78595,120
72,50,78720,360
65,28,78840,120
70,28,78960,120
74,43,79080,120
75,49,79200,360
65,28,79320,120
69,29,79440,120
77,43,79560,120
70,50,79680,360
62,29,79800,120
65,26,79920,120
69,32,80040,120
70,38,80155,360
62,24,80280,120
65,24,80400,120
72,39,80520,120
74,50,80640,360
62,26,80760,120
65,26,80880,120
74,45,81000,120
74,50,81120,360
62,26,81240,120
65,26,81360,120
74,47,81480,120
72,50,81600,360
62,26,81720,120
65,26,81840,120
70,45,81960,120
70,50,82080,360
62,26,82200,120
65,26,82320,120
72,46,82440,120
70,50,82560,360
63,28,82680,120
65,28,82800,120
69,48,82920,120
72,52,83040,360
65,28,83160,120
69,29,83280,120
74,50,83400,120
75,55,83520,360
69,32,83640,120
72,32,83760,120
78,52,83880,120
79,57,84000,360
69,34,84120,120
72,34,84240,120
75,50,84360,120
74,50,84480,360
66,26,84600,120
69,26,84720,120
75,45,84840,120
74,50,84960,360
66,26,85080,120
69,26,85200,120
72,47,85320,120
72,50,85440,360
65,26,85560,120
68,26,85680,120
72,45,85800,120
71,50,85920,360
65,26,86040,120
68,26,86160,120
71,46,86280,120
71,50,86400,360
63,28,86520,120
67,28,86640,120
72,48,86760,120
75,52,86880,360
63,28,87000,120
66,29,87120,120
72,45,87240,120
70,51,87360,360
62,29,87480,120
65,26,87600,120
70,35,87720,120
69,40,87840,360
60,24,87960,120
65,24,88080,120
69,42,88200,120
74,50,88320,360
62,26,88440,120
65,26,88560,120
74,45,88680,120
74,50,88800,360
62,26,88920,120
65,26,89040,120
74,47,89160,120
72,50,89280,360
62,26,89400,120
65,26,89520,120
70,45,89640,120
70,50,89760,360
62,26,89880,120
65,26,90000,120
72,46,90120,120
70,50,90240,360
63,28,90360,120
65,28,90480,120
69,48,90600,120
72,52,90720,360
65,28,90840,120
69,29,90960,120
74,50,91080,120
75,55,91200,360
69,32,91320,120
72,32,91440,120
78,52,91560,120
79,57,91680,360
69,34,91800,120
72,34,91920,120
75,50,92040,120
74,50,92160,360
62,26,92280,120
65,26,92400,120
69,45,92520,120
70,50,92640,360
62,33,92760,120
65,33,92880,120
72,53,93000,120
73,58,93120,360
67,38,93235,120
70,38,93360,120
79,45,93475,120
81,58,93600,360
70,38,93720,120
73,35,93840,120
82,46,93955,120
72,54,94080,360
65,35,94200,120
70,37,94320,120
74,43,94440,120
75,53,94560,360
65,31,94680,120
69,31,94800,120
77,43,94920,120
70,54,95040,360
62,29,95160,120
65,26,95280,120
69,32,95400,120
70,46,95515,360
62,28,95640,120
65,28,95760,120
72,45,95880,120
74,57,96000,360
66,29,96120,120
69,29,96240,120
75,51,96360,120
74,57,96480,360
66,29,96600,120
69,29,96720,120
72,54,96840,120
72,57,96960,360
65,29,97080,120
67,29,97200,120
71,51,97320,120
72,57,97440,360
65,40,97560,120
67,48,97680,120
74,52,97800,120
79,68,97920,360
71,47,98040,120
74,47,98160,120
80,66,98280,120
79,72,98400,360
71,47,98520,120
74,47,98640,120
77,63,98760,120
77,70,98880,360
67,36,99000,120
70,41,99120,120
76,59,99240,120
74,65,99360,360
64,39,99480,120
70,39,99600,120
72,57,99720,120
72,66,99840,360
65,43,99960,120
69,43,100080,120
74,58,100200,120
76,67,100320,360
69,41,100440,120
72,46,100560,120
77,65,100680,120
77,73,100800,360
65,36,100920,120
70,36,101040,120
74,57,101160,120
72,65,101280,360
66,29,101400,120
67,29,101520,120
70,52,101640,120
69,57,101760,360
60,32,101880,120
65,32,102000,120
70,55,102120,120
67,59,102240,360
60,32,102360,120
64,33,102480,120
72,51,102600,120
65,58,102720,360
60,33,102840,120
65,29,102960,120
69,35,103080,120
72,40,103200,240
65,24,103320,120
73,42,103440,240
65,24,103560,120
74,50,103680,360
62,26,103800,120
65,26,103920,120
74,45,104040,120
74,50,104160,360
62,26,104280,120
65,26,104400,120
74,47,104520,120
72,50,104640,360
65,26,104760,120
68,26,104880,120
70,45,105000,120
70,50,105120,360
65,26,105240,120
68,26,105360,120
72,46,105480,120
70,50,105600,360
66,32,105720,120
67,33,105840,120
72,48,105960,120
74,57,106080,360
67,41,106200,120
70,43,106320,120
75,61,106440,120
78,70,106560,360
70,41,106680,120
73,41,106800,120
79,56,106920,120
81,63,107040,360
70,34,107160,120
73,34,107280,120
82,46,107400,120
72,50,107520,360
64,26,107640,120
70,26,107760,120
74,45,107880,120
72,50,108000,360
64,26,108120,120
70,26,108240,120
73,53,108360,120
74,58,108480,360
65,38,108600,120
70,38,108720,120
74,45,108840,120
75,55,108960,240
65,35,109080,120
74,62,109200,120
77,59,109320,120
77,64,109440,360
65,28,109560,120
72,28,109680,120
75,43,109800,120
74,49,109920,360
65,28,110040,120
69,29,110160,120
72,43,110280,120
70,50,110400,360
62,29,110520,120
65,26,110640,120
69,32,110760,120
70,38,110875,360
62,24,111000,120
65,24,111120,120
72,39,111240,120
74,57,111360,360
66,29,111480,120
69,29,111600,120
75,51,111720,120
74,57,111840,360
66,29,111960,120
69,29,112080,120
72,54,112200,120
72,57,112320,360
65,29,112440,120
67,29,112560,120
71,51,112680,120
72,57,112800,360
65,40,112920,120
67,48,113040,120
74,52,113160,120
79,66,113280,360
71,47,113400,120
74,47,113520,120
80,64,113640,120
79,73,113760,360
71,47,113880,120
74,47,114000,120
77,63,114120,120
77,70,114240,360
67,36,114360,120
70,41,114480,120
76,59,114600,120
74,65,114720,360
64,39,114840,120
70,39,114960,120
72,57,115080,120
72,66,115200,360
65,43,115320,120
69,43,115440,120
74,58,115560,120
76,67,115680,360
69,41,115800,120
72,46,115920,120
77,65,116040,120
77,73,116160,360
65,36,116280,120
70,36,116400,120
74,57,116520,120
72,65,116640,360
66,29,116760,120
67,29,116880,120
70,52,117000,120
69,57,117120,360
60,32,117240,120
65,32,117360,120
70,55,117480,120
67,59,117600,360
60,32,117720,120
64,33,117840,120
72,51,117960,120
65,58,118080,360
60,33,118200,120
65,29,118320,120
69,40,118440,120
72,40,118560,240
65,24,118680,120
73,42,118800,240
65,24,118920,120
74,50,119040,360
62,26,119160,120
65,26,119280,120
74,45,119400,120
74,50,119520,360
62,26,119640,120
65,26,119760,120
74,47,119880,120
72,50,120000,360
65,26,120120,120
68,26,120240,120
70,45,120360,120
70,50,120480,360
65,26,120600,120
68,26,120720,120
72,46,120840,120
70,50,120960,360
66,32,121080,120
67,33,121200,120
72,48,121320,120
74,57,121440,360
67,41,121560,120
70,43,121680,120
75,61,121800,120
78,70,121920,360
70,41,122040,120
73,41,122160,120
79,56,122280,120
81,63,122400,360
70,34,122520,120
73,34,122640,120
82,46,122760,120
72,50,122880,360
64,26,123000,120
70,26,123120,120
74,45,123240,120
72,50,123360,360
64,26,123480,120
70,26,123600,120
73,53,123720,120
74,58,123840,360
65,38,123960,120
70,38,124080,120
74,45,124200,120
75,55,124320,240
65,35,124440,120
74,62,124560,120
77,59,124680,120
77,64,124800,360
65,28,124920,120
72,28,125040,120
75,43,125160,120
74,49,125280,360
65,28,125400,120
69,29,125520,120
72,43,125640,120
70,50,125760,360
62,29,125880,120
65,26,126000,120
72,32,126120,120
70,38,126235,360
62,24,126360,120
65,24,126480,120
74,39,126600,120
77,47,126720,360
65,28,126840,120
72,28,126960,120
75,37,127080,120
74,43,127200,360
65,28,127320,120
69,29,127440,120
72,38,127560,120
70,43,127680,360
62,27,127800,120
65,26,127920,120
74,32,128040,120
70,38,128155,360
62,24,128280,120
65,24,128400,120
67,39,128520,120
65,47,128640,360
53,28,128760,120
60,28,128880,120
63,37,129000,120
62,43,129120,360
53,28,129240,120
57,29,129360,120
60,34,129480,120
58,33,129600,120
50,25,129720,840
53,25,129840,720
57,25,129960,120
58,30,130080,480
74,50,132480,240
73,50,132720,120
74,45,132840,120
73,53,132960,120
74,45,133080,120
70,45,133200,120
67,45,133320,108
67,56,133440,480
65,50,133920,240
70,46,134340,60
69,52,134400,120
70,43,134520,40
69,43,134560,40
67,43,134600,40
69,51,134640,120
70,45,134760,120
71,51,134880,120
72,42,135000,120
73,46,135120,120
74,49,135240,120
77,63,135360,480
75,59,135840,240
74,59,136320,240
76,53,136560,120
77,53,136680,120
81,59,136800,120
82,52,136920,120
77,52,137040,120
74,52,137160,120
72,59,137280,240
78,52,137520,120
79,52,137640,120
81,59,137760,120
82,52,137880,120
79,52,138000,120
72,52,138120,120
72,59,138240,120
84,65,138360,120
83,63,138480,120
82,59,138600,120
81,59,138720,120
72,51,138840,120
70,51,138960,120
79,59,139080,120
69,59,139200,120
77,49,139320,120
72,56,139440,120
75,46,139560,120
70,59,139680,120
74,49,139800,120
69,59,139920,120
72,46,140040,120
70,50,140160,60
86,57,140280,120
85,57,140400,120
86,51,140520,120
85,60,140640,120
86,51,140760,120
82,51,140880,120
79,51,141000,108
79,64,141120,480
77,57,141600,240
82,52,142020,60
81,59,142080,120
82,49,142200,40
81,49,142240,40
79,49,142280,40
81,58,142320,120
82,51,142440,120
83,58,142560,120
84,48,142680,120
85,52,142800,120
86,56,142920,120
89,69,143040,360
88,65,143400,120
87,67,143520,240
86,67,144000,240
88,60,144240,120
89,60,144360,120
93,67,144480,120
94,62,144600,120
89,64,144720,120
86,66,144840,120
85,74,144960,240
91,59,145200,120
94,59,145320,120
96,73,145440,120
97,59,145560,120
94,59,145680,120
85,59,145800,120
84,50,145920,120
86,54,146040,120
87,58,146160,120
88,61,146280,120
89,59,146400,120
91,51,146520,120
87,51,146640,120
84,48,146760,120
82,59,146880,120
77,49,147000,120
74,50,147120,120
70,46,147240,120
69,52,147360,120
70,49,147480,120
72,47,147600,120
73,44,147720,120
74,50,147840,240
73,50,148080,120
74,45,148200,120
73,53,148320,120
74,45,148440,120
70,45,148560,120
67,45,148680,108
67,56,148800,480
65,50,149280,240
70,46,149700,60
69,52,149760,120
70,43,149880,40
69,43,149920,40
67,43,149960,40
69,51,150000,120
70,45,150120,120
71,51,150240,120
72,42,150360,120
73,46,150480,120
74,49,150600,120
77,63,150720,480
75,59,151200,240
74,59,151680,240
76,53,151920,120
77,53,152040,120
81,59,152160,120
82,52,152280,120
77,52,152400,120
74,52,152520,120
72,59,152640,240
78,52,152880,120
79,52,153000,120
81,59,153120,120
82,52,153240,120
79,52,153360,120
72,52,153480,120
72,59,153600,120
84,65,153720,120
83,63,153840,120
82,59,153960,120
81,59,154080,120
72,51,154200,120
70,51,154320,120
79,59,154440,120
69,59,154560,120
77,49,154680,120
72,56,154800,120
75,46,154920,120
70,59,155040,120
74,49,155160,120
69,59,155280,120
72,46,155400,120
70,50,155520,60
86,57,155640,120
85,57,155760,120
86,51,155880,120
85,60,156000,120
86,51,156120,120
82,51,156240,120
79,51,156360,108
79,64,156480,480
77,57,156960,240
82,52,157380,60
81,59,157440,120
82,49,157560,40
81,49,157600,40
79,49,157640,40
81,58,157680,120
82,51,157800,120
83,58,157920,120
84,48,158040,120
85,52,158160,120
86,56,158280,120
89,69,158400,360
88,65,158760,120
87,67,158880,240
86,67,159360,240
88,60,159600,120
89,60,159720,120
93,67,159840,120
94,62,159960,120
89,64,160080,120
86,66,160200,120
85,74,160320,240
91,59,160560,120
94,59,160680,120
96,73,160800,120
97,59,160920,120
94,59,161040,120
85,59,161160,120
84,50,161280,120
86,54,161400,120
87,58,161520,120
88,61,161640,120
89,59,161760,120
91,51,161880,120
87,51,162000,120
84,48,162120,120
82,59,162240,120
77,49,162360,120
74,50,162480,120
70,46,162600,120
69,52,162720,120
70,49,162840,120
72,47,162960,120
73,44,163080,120
74,63,163200,120
66,57,163440,480
69,57,163440,480
74,69,163440,480
72,57,163440,480
66,48,163920,240
74,57,163920,240
69,48,163920,240
72,48,163920,240
74,63,164400,480
67,63,164400,480
79,75,164400,480
70,63,164400,480
74,48,164880,240
70,48,164880,240
67,48,164880,240
79,57,164880,240
66,57,165360,240
74,68,165360,480
67,70,165600,240
77,67,165840,240
65,56,165840,240
74,56,165840,240
67,56,165840,240
72,67,166080,720
67,68,166080,960
64,68,166080,960
76,80,166080,960
70,57,166800,240
72,63,167280,480
69,63,167280,480
77,63,167280,480
81,75,167280,480
72,48,167760,240
69,48,167760,240
77,48,167760,240
81,57,167760,240
74,69,168000,240
79,57,168240,120
82,57,168360,120
85,65,168480,120
86,57,168600,120
91,65,168720,120
94,68,168840,120
88,76,168960,120
96,70,169080,120
94,71,169200,120
91,66,169320,120
88,74,169440,120
84,72,169560,120
82,69,169680,120
79,67,169800,120
77,60,169920,240
75,53,170160,720
77,53,170160,720
72,53,170160,720
69,53,170160,720
86,70,170880,240
85,57,171120,120
86,51,171240,120
85,60,171360,120
86,51,171480,120
89,51,171600,120
86,51,171720,120
84,64,171840,480
82,57,172320,240
82,52,172740,60
81,59,172800,120
82,49,172920,120
84,58,173040,120
86,51,173160,120
87,58,173280,120
88,48,173400,120
89,52,173520,120
90,56,173640,120
91,69,173760,60
93,58,173820,60
91,63,173880,60
93,58,173940,60
91,63,174000,60
90,62,174060,60
91,66,174120,60
93,70,174180,60
94,74,174240,120
72,41,174660,30
74,41,174690,30
72,51,174720,240
71,40,174960,120
72,43,175080,120
76,54,175200,120
82,42,175320,120
79,42,175440,120
76,42,175560,60
77,33,175620,30
79,34,175650,30
77,52,175680,240
76,42,175920,120
77,42,176040,120
82,58,176160,120
89,43,176280,120
86,43,176400,120
82,37,176520,120
81,38,176640,90
82,32,176760,90
84,35,176880,90
86,38,177000,90
87,41,177120,90
89,44,177240,90
91,48,177360,90
93,51,177480,60
96,51,177540,60
94,54,177600,90
89,50,177720,90
86,48,177840,90
82,45,177960,90
77,42,178080,90
74,40,178200,90
70,37,178320,90
72,34,178440,90
74,63,178560,120
69,57,178800,480
74,69,178800,480
72,57,178800,480
66,57,178800,480
69,48,179280,240
74,57,179280,240
72,48,179280,240
66,48,179280,240
70,63,179760,480
67,63,179760,480
74,63,179760,480
79,75,179760,480
67,48,180240,240
79,57,180240,240
74,48,180240,240
70,48,180240,240
66,57,180720,240
74,68,180720,480
67,70,180960,240
74,56,181200,240
67,56,181200,240
65,56,181200,240
77,67,181200,240
67,68,181440,960
76,80,181440,960
72,67,181440,720
64,68,181440,960
70,57,182160,240
72,63,182640,480
77,63,182640,480
69,63,182640,480
81,75,182640,480
69,48,183120,240
77,48,183120,240
81,57,183120,240
72,48,183120,240
74,69,183360,240
79,57,183600,120
82,57,183720,120
85,65,183840,120
86,57,183960,120
91,65,184080,120
94,68,184200,120
88,76,184320,120
96,70,184440,120
94,71,184560,120
91,66,184680,120
88,74,184800,120
84,72,184920,120
82,69,185040,120
79,67,185160,120
77,60,185280,240
75,53,185520,720
69,53,185520,720
77,53,185520,720
72,53,185520,720
86,70,186240,240
85,57,186480,120
86,51,186600,120
85,60,186720,120
86,51,186840,120
89,51,186960,120
86,51,187080,120
84,64,187200,480
82,57,187680,240
82,52,188100,60
81,59,188160,120
82,49,188280,120
84,58,188400,120
86,51,188520,120
87,58,188640,120
88,48,188760,120
89,52,188880,120
90,56,189000,120
91,69,189120,60
93,58,189180,60
91,63,189240,60
93,58,189300,60
91,63,189360,60
90,62,189420,60
91,66,189480,60
93,70,189540,60
94,74,189600,120
72,41,190020,30
74,41,190050,30
72,51,190080,240
71,40,190320,120
72,43,190440,120
76,54,190560,120
82,42,190680,120
79,42,190800,120
76,42,190920,60
77,33,190980,30
79,34,191010,30
77,52,191040,240
76,42,191280,120
77,42,191400,120
82,58,191520,120
89,43,191640,120
86,43,191760,120
82,37,191880,120
81,38,192000,90
82,32,192120,90
84,35,192240,90
86,38,192360,90
87,41,192480,90
89,44,192600,90
91,48,192720,90
93,51,192840,60
96,51,192900,60
94,54,192960,90
93,50,193080,90
91,48,193200,90
89,45,193320,90
87,42,193440,90
86,40,193560,90
84,37,193680,90
83,34,193800,60
86,51,193860,60
84,54,193920,90
82,50,194040,90
81,48,194160,90
79,45,194280,90
77,42,194400,90
75,40,194520,90
74,37,194640,90
73,34,194760,60
84,51,194820,60
74,49,194880,90
82,54,194880,90
81,50,195000,90
79,48,195120,90
77,45,195240,90
75,42,195360,90
74,40,195480,90
72,37,195600,90
71,34,195720,60
74,45,195780,60
72,48,195840,90
70,45,195960,90
69,43,196080,90
67,40,196200,90
65,37,196320,90
63,36,196440,90
62,33,196560,90
60,30,196680,90
65,46,197520,240
61,42,197760,720
65,42,197760,720
73,55,197760,720
65,38,198480,240
73,51,198480,240
61,38,198480,240
60,42,198720,480
72,55,198720,480
65,42,198720,720
70,44,199200,240
58,33,199200,240
65,37,199440,240
70,48,199440,240
58,37,199440,240
58,45,199680,360
65,53,199680,480
70,58,199680,360
57,42,200040,120
69,55,200040,120
60,45,200160,160
72,59,200160,160
63,47,200320,160
75,61,200320,160
66,48,200480,160
75,48,200480,160
72,48,200480,160
78,62,200480,160
75,50,200640,720
72,50,200640,720
65,50,200640,720
77,64,200640,720
75,62,201360,240
63,48,201360,240
63,55,201600,360
75,71,201600,360
61,51,201960,120
73,67,201960,120
58,56,202080,120
70,72,202080,120
72,69,202240,120
60,54,202240,120
61,54,202400,120
73,69,202400,120
65,62,202560,360
77,80,202560,360
63,53,202920,108
75,68,202920,108
63,60,203040,120
75,77,203040,120
73,67,203200,120
61,52,203200,120
72,67,203360,120
60,52,203360,120
70,74,203520,360
58,57,203520,360
69,63,203880,120
57,49,203880,120
70,74,204000,160
58,57,204000,160
73,64,204160,160
61,50,204160,160
60,50,204320,144
72,64,204320,144
60,57,204480,720
72,74,204480,720
65,70,205200,240
61,67,205440,720
73,79,205440,720
65,67,205440,720
73,73,206160,240
65,62,206160,240
61,62,206160,240
72,78,206400,480
65,66,206400,720
60,66,206400,480
58,55,206880,240
70,65,206880,240
65,60,207120,240
70,71,207120,240
58,60,207120,240
65,68,207360,480
70,75,207360,360
58,58,207360,360
69,71,207720,120
57,54,207720,120
72,76,207840,160
60,58,207840,160
63,61,208000,160
75,79,208000,160
72,62,208160,160
66,62,208160,160
78,80,208160,160
75,62,208160,160
65,65,208320,720
77,83,208320,720
75,65,208320,720
72,65,208320,720
63,52,209040,240
75,68,209040,240
63,60,209280,360
75,78,209280,360
61,51,209640,120
73,67,209640,120
58,56,209760,120
70,72,209760,120
72,69,209920,120
60,54,209920,120
61,54,210080,120
73,69,210080,120
60,59,210240,360
72,76,210240,360
58,45,210600,120
70,57,210600,120
61,51,210720,120
73,65,210720,120
60,44,210880,120
72,56,210880,120
58,44,211040,120
70,56,211040,120
54,48,211200,360
66,62,211200,360
53,38,211560,120
65,50,211560,120
53,45,211680,120
65,58,211680,120
54,39,211840,120
66,50,211840,120
53,38,212000,120
65,49,212000,120
58,55,212160,720
77,50,212880,240
85,60,213120,720
77,46,213120,720
73,46,213120,720
77,41,213840,240
73,41,213840,240
85,56,213840,240
72,46,214080,480
77,46,214080,720
84,60,214080,480
70,36,214560,240
82,48,214560,240
82,52,214800,240
70,40,214800,240
77,40,214800,240
77,58,215040,480
70,49,215040,360
82,63,215040,360
69,46,215400,120
81,60,215400,120
72,49,215520,160
84,64,215520,160
87,67,215680,160
75,51,215680,160
87,52,215840,160
84,52,215840,160
90,68,215840,160
78,52,215840,160
84,55,216000,720
77,55,216000,720
89,70,216000,720
87,55,216000,720
75,54,216720,240
87,71,216720,240
75,63,216960,360
87,81,216960,360
73,56,217320,120
85,73,217320,120
70,61,217440,120
82,79,217440,120
72,59,217600,120
84,75,217600,120
73,59,217760,75
85,75,217760,75
85,62,217860,60
77,68,217920,360
89,88,217920,360
75,58,218280,120
87,74,218280,120
87,84,218400,120
75,66,218400,120
73,57,218560,120
85,73,218560,120
72,57,218720,120
84,73,218720,120
70,62,218880,360
82,81,218880,360
69,53,219240,120
81,69,219240,120
82,81,219360,160
70,62,219360,160
85,70,219520,160
73,55,219520,160
84,70,219680,160
72,55,219680,160
84,81,219840,720
72,62,219840,720
77,77,220560,240
77,73,220800,720
85,86,220800,720
73,73,220800,720
73,68,221520,240
85,80,221520,240
77,68,221520,240
77,72,221760,720
72,72,221760,480
84,85,221760,480
70,60,222240,240
82,71,222240,240
82,78,222480,240
77,66,222480,240
70,66,222480,240
82,82,222720,360
70,63,222720,360
77,74,222720,480
69,59,223080,120
81,78,223080,120
84,83,223200,160
72,63,223200,160
75,67,223360,160
87,86,223360,160
78,68,223520,160
90,88,223520,160
84,68,223520,160
87,68,223520,160
84,71,223680,720
87,71,223680,720
89,91,223680,720
77,71,223680,720
75,63,224400,240
87,77,224400,240
75,63,224640,360
87,81,224640,360
73,53,225000,120
85,69,225000,120
82,75,225120,120
70,57,225120,120
84,71,225280,120
72,56,225280,120
85,71,225440,120
73,56,225440,120
84,78,225600,360
72,60,225600,360
82,58,225960,120
70,46,225960,120
85,67,226080,120
73,53,226080,120
72,45,226240,120
84,57,226240,120
70,45,226400,120
82,57,226400,120
66,49,226560,360
78,64,226560,360
77,52,226920,120
65,38,226920,120
65,46,227040,120
77,59,227040,120
66,39,227200,120
78,52,227200,120
65,38,227360,120
77,50,227360,120
58,57,227520,720
70,57,227520,720
61,72,228240,240
73,72,228240,240
61,80,228480,480
73,80,228480,480
61,78,228960,160
73,78,228960,160
63,73,229120,160
75,73,229120,160
61,74,229280,160
73,74,229280,160
61,80,229440,480
73,80,229440,480
58,70,229920,120
70,70,229920,360
70,77,230280,120
82,77,230280,120
70,83,230400,360
82,83,230400,360
83,86,230760,280
71,86,230760,280
84,83,231040,160
72,83,231040,160
85,85,231200,100
73,85,231200,100
85,80,231300,60
77,90,231360,360
89,90,231360,360
73,83,231720,120
85,83,231720,120
84,78,231840,240
72,78,231840,240
60,42,232320,240
72,50,232320,240
77,43,232560,240
65,36,232560,240
81,47,232800,240
69,39,232800,240
84,47,233040,240
72,39,233040,240
84,55,233280,480
72,46,233280,480
70,42,233760,160
82,50,233760,160
69,37,233920,160
81,44,233920,160
67,37,234080,160
79,44,234080,160
67,42,234240,160
79,50,234240,160
81,44,234400,144
69,37,234400,144
65,37,234560,144
77,44,234560,144
65,42,234720,160
77,50,234720,160
67,37,234880,144
79,44,234880,144
76,44,235040,144
64,37,235040,144
77,49,235200,480
65,41,235200,480
75,56,235680,160
63,47,235680,160
73,59,235840,160
61,50,235840,160
72,63,236000,160
60,53,236000,160
60,56,236160,480
72,66,236160,480
70,61,236640,240
58,51,236640,240
58,51,236880,240
70,61,236880,240
60,59,237120,480
72,70,237120,480
58,53,237600,240
70,63,237600,240
70,68,237840,240
58,57,237840,240
59,58,238080,160
71,70,238080,160
58,53,238240,160
70,62,238240,160
62,54,238400,160
74,64,238400,160
77,70,238560,160
65,59,238560,160
68,62,238720,160
80,74,238720,160
77,67,238880,160
83,79,238880,160
71,67,238880,160
80,67,238880,160
70,71,239040,720
82,84,239040,720
77,71,239040,480
80,71,239040,480
75,54,239520,240
78,64,239520,240
75,56,239760,240
63,47,239760,240
61,52,240000,360
73,62,240000,360
60,47,240360,120
72,56,240360,120
60,50,240480,160
72,60,240480,160
61,47,240640,160
73,56,240640,160
75,56,240800,100
63,47,240800,100
75,46,240900,60
66,52,240960,360
78,62,240960,360
65,47,241320,120
77,56,241320,120
77,56,241440,160
65,47,241440,160
70,50,241600,160
82,60,241600,160
73,52,241760,160
85,62,241760,160
73,55,241920,360
85,64,241920,360
84,53,242280,120
72,45,242280,120
72,46,242400,160
84,55,242400,160
75,38,242560,160
87,45,242560,160
69,38,242720,160
81,45,242720,160
70,46,242880,720
82,55,242880,720
73,72,243600,216
61,72,243600,216
73,80,243840,480
61,80,243840,480
73,78,244320,160
61,78,244320,160
63,73,244480,160
75,73,244480,160
61,74,244640,160
73,74,244640,160
61,80,244800,480
73,80,244800,480
70,70,245280,360
58,70,245280,120
82,77,245640,120
70,77,245640,120
82,83,245760,360
70,83,245760,360
71,86,246120,280
83,86,246120,280
72,83,246400,160
84,83,246400,160
85,85,246560,100
73,85,246560,100
85,80,246660,60
77,90,246720,360
89,90,246720,360
73,83,247080,120
85,83,247080,120
84,78,247200,240
72,78,247200,240
60,42,247680,159
72,50,247680,240
65,36,247920,240
77,43,247920,240
69,39,248160,240
81,47,248160,240
72,39,248400,240
84,47,248400,240
84,55,248640,480
72,46,248640,480
70,42,249120,160
82,50,249120,160
69,37,249280,160
81,44,249280,160
67,37,249440,160
79,44,249440,160
79,50,249600,160
67,42,249600,160
69,37,249760,144
81,44,249760,144
65,37,249920,144
77,44,249920,144
65,42,250080,160
77,50,250080,160
67,37,250240,144
79,44,250240,144
64,37,250400,144
76,44,250400,144
77,49,250560,480
65,41,250560,480
75,56,251040,160
63,47,251040,160
73,59,251200,160
61,50,251200,160
72,63,251360,160
60,53,251360,160
72,66,251520,480
60,56,251520,480
58,51,252000,216
70,61,252000,216
70,61,252240,216
58,51,252240,216
60,59,252480,480
72,70,252480,480
70,63,252960,216
58,53,252960,216
70,68,253200,216
58,57,253200,216
59,58,253440,160
71,70,253440,160
58,53,253600,160
70,62,253600,160
62,54,253760,160
74,64,253760,160
65,59,253920,160
77,70,253920,160
80,74,254080,160
68,62,254080,160
77,67,254240,160
71,67,254240,160
80,67,254240,160
83,79,254240,160
80,71,254400,480
82,84,254400,720
77,71,254400,480
70,71,254400,720
78,64,254880,240
75,56,254880,240
63,47,255120,240
75,56,255120,240
61,52,255360,360
73,62,255360,360
72,56,255720,108
60,47,255720,108
60,50,255840,160
72,60,255840,160
61,47,256000,160
73,56,256000,160
75,56,256160,100
63,47,256160,100
75,46,256260,60
78,62,256320,360
66,52,256320,360
65,47,256680,108
77,56,256680,108
65,47,256800,160
77,56,256800,160
82,60,256960,160
70,50,256960,160
85,62,257120,160
73,52,257120,160
85,64,257280,360
73,55,257280,360
84,53,257640,120
72,45,257640,120
84,55,257760,160
72,46,257760,160
75,38,257920,160
87,45,257920,160
81,45,258080,160
69,38,258080,160
82,55,258240,480
70,46,258240,480
73,51,258960,216
73,59,259200,360
72,50,259560,108
72,56,259680,160
75,45,259840,160
66,38,259840,160
65,38,260000,144
69,45,260000,144
70,55,260160,640
65,46,260160,480
73,41,260800,160
77,41,260960,160
73,42,261120,360
77,50,261120,360
72,34,261480,108
75,41,261480,108
75,52,261600,144
72,44,261600,144
78,36,261760,144
75,30,261760,144
69,30,261920,144
72,30,261920,144
77,30,261920,144
81,36,261920,144
70,41,262080,720
77,41,262080,720
82,49,262080,720
73,41,262080,720
73,34,262800,240
61,34,263040,120
73,25,263160,120
66,21,263280,120
70,25,263280,120
73,25,263400,120
61,32,263520,120
73,24,263640,120
70,24,263760,120
66,20,263760,120
73,24,263880,120
61,32,264000,120
73,25,264120,120
70,24,264240,120
66,20,264240,120
73,24,264360,120
61,33,264480,120
73,27,264600,120
66,21,264720,120
70,25,264720,120
73,25,264840,120
61,36,264960,120
73,27,265080,120
68,22,265200,120
71,27,265200,120
73,27,265320,120
61,34,265440,120
73,26,265560,120
68,22,265680,120
71,26,265680,120
73,27,265800,120
61,36,265920,120
73,29,266040,120
71,27,266160,120
68,23,266160,120
73,27,266280,120
61,37,266400,120
73,30,266520,120
71,29,266640,120
68,24,266640,120
73,29,266760,120
61,40,266880,120
73,30,267000,120
66,25,267120,120
70,30,267120,120
73,30,267240,120
61,38,267360,120
73,29,267480,120
66,24,267600,120
70,29,267600,120
73,29,267720,120
63,38,267840,120
75,30,267960,120
68,24,268080,120
71,29,268080,120
75,29,268200,120
63,39,268320,120
75,32,268440,120
71,30,268560,120
68,25,268560,120
75,30,268680,120
68,43,268800,120
80,39,268920,120
75,39,269040,120
78,47,269040,120
80,40,269160,120
72,53,269280,120
78,53,269280,120
80,43,269400,120
75,47,269520,120
72,47,269520,120
80,41,269640,120
73,46,269760,120
77,55,269760,120
80,51,269880,120
83,58,270000,120
77,49,270000,120
85,53,270120,120
82,62,270240,120
78,52,270240,120
85,57,270360,120
77,55,270480,120
80,66,270480,120
85,60,270600,120
78,71,270720,180
85,72,270900,60
82,78,270960,420
94,78,270960,420
90,70,271380,60
82,78,271440,480
94,78,271440,480
78,72,271920,240
90,72,271920,240
85,72,272160,240
73,72,272160,240
82,72,272400,240
70,72,272400,240
85,72,272820,60
83,78,272880,420
95,78,272880,420
92,71,273300,60
83,78,273360,480
95,78,273360,480
92,72,273840,240
80,72,273840,240
89,72,274080,240
77,72,274080,240
71,72,274320,240
83,72,274320,240
73,59,274740,60
70,63,274800,420
82,63,274800,420
78,57,275220,60
82,63,275280,480
70,63,275280,480
81,53,275760,240
69,53,275760,240
68,50,276000,240
80,50,276000,240
78,47,276240,240
66,47,276240,240
77,39,276480,240
65,39,276480,240
85,44,276720,240
73,44,276720,240
71,40,276960,240
83,40,276960,240
80,40,277200,240
68,40,277200,240
78,47,277440,960
66,47,277440,960
61,40,278400,120
73,30,278520,120
70,30,278640,120
66,25,278640,120
73,30,278760,120
61,38,278880,120
73,28,279000,120
66,24,279120,120
70,28,279120,120
73,28,279240,120
61,38,279360,120
73,30,279480,120
66,24,279600,120
70,28,279600,120
73,28,279720,120
61,39,279840,120
73,32,279960,120
70,30,280080,120
66,25,280080,120
73,30,280200,120
61,43,280320,120
73,32,280440,120
71,32,280560,120
68,26,280560,120
73,32,280680,120
61,40,280800,120
73,31,280920,120
68,26,281040,120
71,31,281040,120
73,32,281160,120
61,43,281280,120
73,34,281400,120
68,27,281520,120
71,32,281520,120
73,32,281640,120
61,44,281760,120
73,36,281880,120
71,34,282000,120
68,28,282000,120
73,34,282120,120
61,48,282240,120
73,36,282360,120
66,30,282480,120
70,36,282480,120
73,36,282600,120
61,45,282720,120
73,34,282840,120
70,34,282960,120
66,28,282960,120
73,34,283080,120
63,45,283200,120
75,36,283320,120
71,34,283440,120
68,28,283440,120
75,34,283560,120
63,46,283680,120
75,38,283800,120
71,36,283920,120
68,30,283920,120
75,36,284040,120
68,47,284160,120
80,42,284280,120
75,42,284400,120
78,51,284400,120
80,44,284520,120
72,58,284640,120
78,58,284640,120
80,47,284760,120
75,51,284880,120
72,51,284880,120
80,45,285000,120
73,50,285120,120
77,60,285120,120
80,56,285240,120
83,63,285360,120
77,53,285360,120
85,58,285480,120
78,57,285600,120
82,68,285600,120
85,62,285720,120
80,72,285840,120
77,60,285840,120
85,66,285960,120
78,78,286080,180
85,79,286260,60
82,85,286320,420
94,85,286320,420
90,77,286740,60
82,85,286800,480
94,85,286800,480
78,79,287280,240
90,79,287280,240
85,79,287520,240
73,79,287520,240
70,79,287760,240
82,79,287760,240
85,79,288180,60
95,85,288240,420
83,85,288240,420
92,78,288660,60
95,85,288720,480
83,85,288720,480
80,79,289200,240
92,79,289200,240
77,79,289440,240
89,79,289440,240
83,79,289680,240
71,79,289680,240
73,64,290100,60
82,68,290160,420
70,68,290160,420
78,60,290580,60
70,67,290640,480
82,67,290640,480
81,55,291120,240
69,55,291120,240
80,51,291360,240
68,51,291360,240
78,47,291600,240
66,47,291600,240
77,39,291840,240
65,39,291840,240
73,44,292080,240
85,44,292080,240
71,40,292320,240
83,40,292320,240
68,40,292560,240
80,40,292560,240
78,47,292800,960
66,47,292800,960
62,62,293760,120
74,46,293880,120
65,39,294000,120
70,46,294000,120
74,46,294120,120
62,63,294240,120
74,44,294360,120
65,37,294480,120
70,44,294480,120
74,44,294600,120
63,63,294720,120
75,44,294840,120
66,37,294960,120
70,44,294960,120
75,44,295080,120
70,70,295200,120
82,51,295320,120
78,51,295440,120
75,51,295440,120
82,51,295560,120
63,62,295680,120
75,46,295800,120
66,39,295920,120
70,46,295920,120
75,46,296040,120
63,63,296160,120
75,44,296280,120
73,44,296400,120
67,37,296400,120
75,44,296520,120
63,66,296640,120
75,49,296760,120
72,49,296880,120
68,49,296880,120
75,51,297000,120
72,64,297120,120
84,49,297240,120
80,50,297360,120
75,50,297360,120
84,50,297480,120
73,51,297780,480
85,65,297840,420
73,54,298260,540
85,67,298320,480
70,48,298800,240
82,48,298800,240
66,51,299040,240
78,51,299040,240
82,47,299280,240
70,47,299280,240
73,39,299520,240
61,39,299520,240
80,44,299760,240
68,37,299760,240
78,40,300000,240
66,34,300000,240
75,40,300240,240
63,34,300240,240
73,44,300480,960
61,37,300480,240
68,34,300720,240
71,40,300720,240
66,28,300960,240
70,34,300960,240
65,28,301200,240
68,34,301200,240
61,40,301440,120
73,30,301560,120
70,30,301680,120
66,25,301680,120
73,30,301800,120
61,38,301920,120
73,28,302040,120
70,28,302160,120
66,24,302160,120
73,28,302280,120
64,46,302400,120
76,34,302520,120
73,34,302640,120
66,34,302640,120
76,34,302760,120
64,48,302880,120
76,38,303000,120
73,39,303120,120
66,39,303120,120
76,40,303240,120
63,54,303360,120
75,45,303480,120
66,45,303600,120
71,45,303600,120
75,47,303720,120
63,55,303840,120
75,47,303960,120
66,48,304080,120
71,48,304080,120
75,48,304200,120
69,59,304320,120
81,52,304440,120
75,52,304560,120
78,52,304560,120
81,52,304680,120
69,63,304800,120
81,55,304920,120
75,58,305040,120
78,58,305040,120
81,59,305160,120
84,59,305460,480
96,63,305520,420
84,57,305940,300
96,63,306000,240
87,63,306240,240
99,63,306240,240
85,53,306480,240
97,53,306480,240
94,50,306720,240
82,50,306720,240
78,47,306960,240
90,47,306960,240
77,39,307200,240
89,39,307200,240
97,44,307440,240
85,44,307440,240
95,40,307680,240
83,40,307680,240
80,40,307920,240
92,40,307920,240
90,47,308160,960
78,47,308160,960
62,62,309120,120
74,46,309240,120
70,46,309360,120
65,39,309360,120
74,46,309480,120
62,63,309600,120
74,44,309720,120
65,37,309840,120
70,44,309840,120
74,44,309960,120
63,63,310080,120
75,44,310200,120
70,44,310320,120
66,37,310320,120
75,44,310440,120
70,70,310560,120
82,51,310680,120
75,51,310800,120
78,51,310800,120
82,51,310920,120
63,62,311040,120
75,46,311160,120
66,39,311280,120
70,46,311280,120
75,46,311400,120
63,63,311520,120
75,44,311640,120
73,44,311760,120
67,37,311760,120
75,44,311880,120
63,66,312000,120
75,49,312120,120
72,49,312240,120
68,49,312240,120
75,51,312360,120
72,64,312480,120
84,49,312600,120
80,50,312720,120
75,50,312720,120
84,50,312840,120
73,51,313140,480
85,65,313200,420
73,54,313620,540
85,67,313680,480
82,48,314160,240
70,48,314160,240
78,51,314400,240
66,51,314400,240
82,47,314640,240
70,47,314640,240
73,39,314880,240
61,39,314880,240
80,44,315120,240
68,37,315120,240
78,40,315360,240
66,34,315360,240
75,40,315600,240
63,34,315600,240
73,44,315840,960
61,37,315840,240
68,34,316080,240
71,40,316080,240
70,34,316320,240
66,28,316320,240
65,28,316560,240
68,34,316560,240
61,40,316800,120
73,30,316920,120
66,25,317040,120
70,30,317040,120
73,30,317160,120
61,38,317280,120
73,28,317400,120
70,28,317520,120
66,24,317520,120
73,28,317640,120
64,46,317760,120
76,34,317880,120
73,34,318000,120
66,34,318000,120
76,34,318120,120
64,48,318240,120
76,38,318360,120
73,39,318480,120
66,39,318480,120
76,40,318600,120
63,54,318720,120
75,45,318840,120
71,45,318960,120
66,45,318960,120
75,47,319080,120
63,55,319200,120
75,47,319320,120
66,48,319440,120
71,48,319440,120
75,48,319560,120
69,59,319680,120
81,52,319800,120
78,52,319920,120
75,52,319920,120
81,52,320040,120
69,63,320160,120
81,55,320280,120
78,58,320400,120
75,58,320400,120
81,59,320520,120
84,59,320820,480
96,63,320880,420
84,57,321300,300
96,63,321360,240
87,63,321600,240
99,63,321600,240
97,53,321840,240
85,53,321840,240
82,50,322080,240
94,50,322080,240
78,47,322320,240
90,47,322320,240
89,39,322560,240
77,39,322560,240
97,44,322800,240
85,44,322800,240
83,40,323040,240
95,40,323040,240
92,40,323280,240
80,40,323280,240
90,47,323520,720
78,47,323520,720
78,44,324240,240
66,37,324240,240
77,34,324480,240
65,28,324480,240
73,37,324720,240
85,44,324720,240
71,34,324960,240
83,40,324960,240
80,35,325200,240
68,29,325200,240
66,37,325440,720
78,44,325440,720
66,44,326160,240
65,34,326400,240
73,44,326640,240
71,40,326880,240
68,35,327120,240
66,44,327360,960
66,46,328320,480
66,46,328800,720
66,51,329520,240
65,44,329760,240
64,44,330000,240
65,46,330240,1440
70,39,331680,480
69,43,332160,480
77,38,332640,480
75,38,333120,480
72,38,333600,360
89,46,333960,120
88,51,334080,80
91,46,334160,80
89,46,334240,80
87,50,334320,80
86,46,334400,80
84,46,334480,80
82,50,334560,80
81,46,334640,80
79,46,334720,80
77,46,334800,80
75,46,334880,80
74,46,334960,80
72,43,335040,480
70,38,335520,240
70,46,335880,120
69,36,336000,80
70,37,336080,80
72,38,336160,80
74,40,336240,80
75,41,336320,80
77,42,336400,80
79,44,336480,80
81,45,336560,80
82,46,336640,80
83,48,336720,80
84,49,336800,80
86,51,336880,80
89,65,336960,480
87,61,337440,240
87,46,337800,120
86,51,337920,80
98,46,338000,80
96,46,338080,80
94,50,338160,80
93,46,338240,80
91,46,338320,80
89,50,338400,80
87,46,338480,80
86,46,338560,80
84,46,338640,80
82,46,338720,80
81,46,338800,80
79,51,338880,80
91,46,338960,80
89,46,339040,80
87,50,339120,80
86,46,339200,80
84,46,339280,80
82,50,339360,80
81,49,339440,80
79,50,339520,80
77,52,339600,80
75,53,339680,80
74,54,339760,80
72,56,339840,80
76,56,339920,80
79,55,340000,80
82,54,340080,80
79,53,340160,80
82,52,340240,80
84,51,340320,80
88,50,340400,80
91,49,340480,80
94,47,340560,80
91,46,340640,80
88,45,340720,80
89,53,340800,240
89,49,341040,80
91,43,341120,80
89,43,341200,80
88,48,341280,80
91,42,341360,80
89,42,341440,80
88,43,341520,80
91,42,341600,80
89,40,341680,80
88,51,341760,80
91,46,341840,80
89,46,341920,80
87,50,342000,80
86,46,342080,80
84,46,342160,80
82,50,342240,80
81,46,342320,80
79,46,342400,80
77,46,342480,80
75,46,342560,80
74,46,342640,80
72,43,342720,480
70,38,343200,240
70,46,343560,120
69,36,343680,80
70,37,343760,80
72,38,343840,80
74,40,343920,80
75,41,344000,80
77,42,344080,80
79,44,344160,80
81,45,344240,80
82,46,344320,80
83,48,344400,80
84,49,344480,80
86,51,344560,80
89,65,344640,360
88,59,345000,120
87,61,345120,240
87,46,345480,120
86,51,345600,80
98,46,345680,80
96,46,345760,80
94,50,345840,80
93,46,345920,80
91,46,346000,80
89,50,346080,80
87,46,346160,80
86,49,346240,80
84,52,346320,80
82,54,346400,80
81,57,346480,80
79,60,346560,80
94,60,346640,80
91,58,346720,80
88,56,346800,80
85,54,346880,80
82,52,346960,80
79,56,347040,80
76,51,347120,80
73,50,347200,80
70,49,347280,80
67,49,347360,80
64,48,347440,80
65,49,347520,80
64,45,347600,80
65,45,347680,80
67,44,347760,80
69,44,347840,80
70,44,347920,80
72,44,348000,80
74,43,348080,80
75,44,348160,80
77,45,348240,80
79,46,348320,80
81,47,348400,80
82,48,348480,80
86,49,348560,80
89,51,348640,80
94,52,348720,80
98,54,348800,80
96,54,348880,80
94,53,348960,80
89,52,349040,80
86,50,349120,80
82,48,349200,80
86,47,349280,80
89,45,349360,80
88,51,349440,80
91,46,349520,80
89,46,349600,80
87,50,349680,80
86,46,349760,80
84,46,349840,80
82,50,349920,80
81,46,350000,80
79,46,350080,80
77,46,350160,80
75,46,350240,80
74,46,350320,80
72,43,350400,480
70,38,350880,240
70,46,351240,120
69,36,351360,80
70,37,351440,80
72,38,351520,80
74,40,351600,80
75,41,351680,80
77,42,351760,80
79,44,351840,80
81,45,351920,80
82,46,352000,80
83,48,352080,80
84,49,352160,80
86,51,352240,80
89,65,352320,480
87,61,352800,240
87,46,353160,120
86,51,353280,80
98,46,353360,80
96,46,353440,80
94,50,353520,80
93,46,353600,80
91,46,353680,80
89,50,353760,80
87,46,353840,80
86,46,353920,80
84,46,354000,80
82,46,354080,80
81,46,354160,80
79,51,354240,80
91,46,354320,80
89,46,354400,80
87,50,354480,80
86,46,354560,80
84,46,354640,80
82,50,354720,80
81,49,354800,80
79,50,354880,80
77,52,354960,80
75,53,355040,80
74,54,355120,80
72,56,355200,80
76,56,355280,80
79,55,355360,80
82,54,355440,80
79,53,355520,80
82,52,355600,80
84,51,355680,80
88,50,355760,80
91,49,355840,80
94,47,355920,80
91,46,356000,80
88,45,356080,80
89,53,356160,240
89,49,356400,80
91,43,356480,80
89,43,356560,80
88,48,356640,80
91,42,356720,80
89,42,356800,80
88,42,356880,80
91,39,356960,80
89,36,357040,80
88,51,357120,80
91,46,357200,80
89,46,357280,80
87,50,357360,80
86,46,357440,80
84,46,357520,80
82,50,357600,80
81,46,357680,80
79,46,357760,80
77,46,357840,80
75,46,357920,80
74,46,358000,80
72,43,358080,480
70,38,358560,240
70,46,358920,120
69,36,359040,80
70,37,359120,80
72,38,359200,80
74,40,359280,80
75,41,359360,80
77,42,359440,80
79,44,359520,80
81,45,359600,80
82,46,359680,80
83,48,359760,80
84,49,359840,80
86,51,359920,80
89,65,360000,360
88,59,360360,120
87,61,360480,240
87,46,360840,120
86,51,360960,80
98,46,361040,80
96,46,361120,80
94,50,361200,80
93,46,361280,80
91,46,361360,80
89,50,361440,80
87,46,361520,80
86,49,361600,80
84,52,361680,80
82,54,361760,80
81,57,361840,80
79,60,361920,80
94,60,362000,80
91,58,362080,80
88,56,362160,80
85,54,362240,80
82,52,362320,80
79,56,362400,80
76,51,362480,80
73,50,362560,80
70,49,362640,80
67,49,362720,80
64,48,362800,80
65,49,362880,80
64,45,362960,80
65,45,363040,80
67,44,363120,80
69,44,363200,80
70,44,363280,80
72,44,363360,80
74,43,363440,80
75,44,363520,80
77,45,363600,80
79,46,363680,80
81,47,363760,80
82,48,363840,80
86,49,363920,80
89,51,364000,80
94,52,364080,80
98,54,364160,80
96,54,364240,80
94,53,364320,80
89,52,364400,80
86,50,364480,80
82,48,364560,80
84,47,364640,80
85,45,364720,80
86,75,364800,120
74,68,365040,480
78,68,365040,480
84,68,365040,480
86,80,365040,480
74,59,365520,240
78,59,365520,240
84,59,365520,240
86,70,365520,240
86,79,366000,480
82,67,366000,480
79,67,366000,480
74,67,366000,480
91,74,366480,240
86,62,366480,240
82,62,366480,240
79,62,366480,240
82,74,366960,480
86,74,366960,480
94,88,366960,480
79,64,367440,240
86,64,367440,240
91,77,367440,240
76,67,367680,960
79,67,367680,960
84,67,367680,960
88,79,367680,960
77,74,368880,240
84,74,368880,240
89,88,368880,320
84,64,369200,80
81,61,369280,80
77,59,369360,80
72,57,369440,80
69,54,369520,80
67,52,369600,120
77,74,369840,240
86,74,369840,240
89,88,369840,320
86,60,370160,80
82,58,370240,80
77,56,370320,80
74,55,370400,80
70,53,370480,80
69,51,370560,80
84,70,370640,80
82,67,370720,80
81,65,370800,80
79,63,370880,80
77,61,370960,80
76,59,371040,80
74,57,371120,80
72,55,371200,80
70,53,371280,80
69,51,371360,80
67,49,371440,80
65,53,371520,240
77,49,371760,80
79,43,371840,80
77,43,371920,80
76,48,372000,80
79,44,372080,80
77,42,372160,80
76,41,372240,80
91,39,372320,80
89,38,372400,80
88,51,372480,80
91,46,372560,80
89,46,372640,80
87,50,372720,80
86,46,372800,80
84,46,372880,80
82,50,372960,80
81,46,373040,80
79,46,373120,80
77,46,373200,80
75,46,373280,80
74,46,373360,80
72,43,373440,480
70,38,373920,240
69,46,374280,120
70,36,374400,80
72,37,374480,80
74,38,374560,80
75,40,374640,80
77,41,374720,80
79,42,374800,80
81,45,374880,80
82,47,374960,80
84,50,375040,80
86,52,375120,80
87,55,375200,80
89,57,375280,80
91,60,375360,40
93,50,375400,40
91,51,375440,40
93,52,375480,40
91,53,375520,40
93,55,375560,40
91,54,375600,40
90,53,375640,40
91,52,375680,40
94,51,375720,120
97,68,375840,240
72,46,376200,120
71,51,376320,80
72,46,376400,80
74,46,376480,80
76,50,376560,80
77,46,376640,80
79,46,376720,80
81,50,376800,80
82,48,376880,80
84,51,376960,80
86,54,377040,80
87,57,377120,80
88,60,377200,80
89,65,377280,80
101,67,377360,80
100,65,377440,80
99,63,377520,80
98,61,377600,80
96,60,377680,80
94,58,377760,80
93,56,377840,80
91,54,377920,80
89,52,378000,80
87,50,378080,80
86,48,378160,80
84,46,378240,80
93,45,378320,80
91,45,378400,80
87,44,378480,80
84,44,378560,80
82,44,378640,80
81,44,378720,80
79,43,378800,80
77,43,378880,80
75,43,378960,80
74,43,379040,80
72,43,379120,80
70,45,379200,80
74,46,379280,80
77,46,379360,80
82,47,379440,80
86,48,379520,80
84,49,379600,80
82,51,379680,80
81,55,379760,80
82,58,379840,80
83,62,379920,80
84,65,380000,80
85,68,380080,80
86,75,380160,120
74,68,380400,480
78,68,380400,480
84,68,380400,480
86,80,380400,480
74,59,380880,240
78,59,380880,240
84,59,380880,240
86,70,380880,240
86,79,381360,480
82,67,381360,480
79,67,381360,480
74,67,381360,480
91,74,381840,240
86,62,381840,240
82,62,381840,240
79,62,381840,240
82,74,382320,480
86,74,382320,480
94,88,382320,480
79,64,382800,240
86,64,382800,240
91,77,382800,240
76,67,383040,960
79,67,383040,960
84,67,383040,960
88,79,383040,960
77,74,384240,240
84,74,384240,240
89,88,384240,320
84,63,384560,80
81,61,384640,80
77,59,384720,80
72,56,384800,80
69,54,384880,80
67,52,384960,120
77,74,385200,240
86,74,385200,240
89,88,385200,320
86,65,385520,80
82,63,385600,80
77,61,385680,80
74,59,385760,80
70,57,385840,80
69,55,385920,80
84,70,386000,80
82,67,386080,80
81,65,386160,80
79,63,386240,80
77,61,386320,80
76,59,386400,80
74,57,386480,80
72,55,386560,80
70,53,386640,80
69,51,386720,80
67,49,386800,80
65,53,386880,240
77,49,387120,80
79,43,387200,80
77,43,387280,80
76,48,387360,80
79,42,387440,80
77,42,387520,80
76,43,387600,80
91,40,387680,80
89,38,387760,80
88,51,387840,80
91,46,387920,80
89,46,388000,80
87,50,388080,80
86,46,388160,80
84,46,388240,80
82,50,388320,80
81,46,388400,80
79,46,388480,80
77,46,388560,80
75,46,388640,80
74,46,388720,80
72,43,388800,480
70,38,389280,240
69,46,389640,120
70,36,389760,80
72,37,389840,80
74,38,389920,80
75,40,390000,80
77,41,390080,80
79,42,390160,80
81,45,390240,80
82,47,390320,80
84,50,390400,80
86,52,390480,80
87,55,390560,80
89,57,390640,80
91,51,390720,40
93,52,390760,40
91,53,390800,40
93,54,390840,40
91,55,390880,40
93,56,390920,40
91,54,390960,40
90,53,391000,40
91,52,391040,40
94,51,391080,120
97,68,391200,240
72,46,391560,120
71,51,391680,80
72,46,391760,80
74,46,391840,80
76,50,391920,80
77,46,392000,80
79,46,392080,80
81,50,392160,80
82,49,392240,80
84,51,392320,80
86,54,392400,80
87,56,392480,80
88,59,392560,80
89,61,392640,80
101,65,392720,80
100,63,392800,80
99,61,392880,80
98,60,392960,80
96,58,393040,80
94,56,393120,80
93,55,393200,80
91,53,393280,80
89,51,393360,80
87,50,393440,80
86,48,393520,80
84,49,393600,80
93,45,393680,80
91,45,393760,80
87,44,393840,80
84,44,393920,80
82,44,394000,80
81,44,394080,80
79,43,394160,80
77,43,394240,80
75,43,394320,80
74,43,394400,80
72,43,394480,80
70,45,394560,80
74,46,394640,80
77,46,394720,80
82,48,394800,80
86,48,394880,80
84,47,394960,80
82,47,395040,80
81,45,395120,80
79,44,395200,80
77,42,395280,80
75,40,395360,80
74,38,395440,80
72,42,395520,80
81,45,395600,80
79,44,395680,80
75,43,395760,80
72,41,395840,80
70,40,395920,80
69,39,396000,80
67,37,396080,80
65,36,396160,80
63,37,396240,80
62,36,396320,80
60,35,396400,80
58,34,396480,80
62,39,396560,80
65,38,396640,80
70,37,396720,80
74,36,396800,80
72,35,396880,80
70,34,396960,80
69,33,397040,80
67,32,397120,80
65,31,397200,80
63,30,397280,80
62,29,397360,80
60,27,397440,80
69,31,397520,80
67,31,397600,80
63,30,397680,80
60,29,397760,80
58,29,397840,80
57,28,397920,40
55,27,398000,40
53,27,398080,40
51,26,398160,40
50,25,398240,40
48,25,398320,40
53,36,399120,240
50,34,399360,432
53,34,399360,432
62,40,399360,432
50,34,399840,216
53,34,399840,216
62,40,399840,216
50,30,400080,216
53,30,400080,216
62,36,400080,216
50,34,400320,432
53,34,400320,432
58,40,400320,432
50,30,400800,432
53,30,400800,432
58,36,400800,432
53,34,401280,432
51,34,401280,432
57,40,401280,432
51,30,401760,216
53,30,401760,216
57,36,401760,216
51,33,402000,216
53,33,402000,216
57,39,402000,216
63,46,402240,960
60,38,402240,960
58,34,403200,432
53,34,403200,432
62,40,403200,432
55,30,403680,216
53,30,403680,216
59,30,403680,216
62,36,403680,216
55,33,403920,216
53,33,403920,216
59,33,403920,216
62,39,403920,216
62,45,404160,480
55,46,404160,480
51,38,404160,960
55,38,404640,480
51,38,405120,960
57,38,405120,960
60,37,405120,240
59,33,405360,120
60,25,405480,120
59,32,405600,120
60,24,405720,120
62,37,405840,180
60,34,406020,60
50,25,406080,960
58,30,406080,960
62,34,407040,432
70,34,407040,432
65,34,407040,432
74,40,407040,432
67,30,407520,216
65,30,407520,216
71,30,407520,216
74,36,407520,216
67,33,407760,216
65,33,407760,216
71,33,407760,216
74,39,407760,216
74,45,408000,480
67,46,408000,480
63,38,408000,960
67,38,408480,480
63,38,408960,960
69,38,408960,960
72,37,408960,240
71,37,409200,120
72,28,409320,120
71,36,409440,120
72,28,409560,120
74,37,409680,180
72,34,409860,60
62,25,409920,960
70,30,409920,960
75,38,410880,1200
81,38,410880,1200
84,37,410880,1200
83,37,412080,120
84,30,412200,120
83,37,412320,120
84,32,412440,120
87,43,412560,180
81,34,412740,60
74,25,412800,480
82,30,412800,480
62,25,413760,480
65,25,413760,480
70,25,413760,480
74,30,413760,480
62,25,414720,1920
65,25,414720,1920
70,30,414720,1920
46,35,0,120
62,24,240,240
53,22,480,240
58,27,480,240
62,25,720,240
50,35,960,120
65,27,1200,240
58,30,1440,240
53,25,1440,240
65,27,1680,240
48,35,1920,120
63,26,2160,240
53,24,2400,240
57,29,2400,240
63,26,2640,240
41,35,2880,120
60,23,3120,240
57,23,3360,240
53,19,3360,240
60,23,3600,240
46,35,3840,120
62,24,4080,240
53,22,4320,240
58,27,4320,240
62,25,4560,240
39,35,4800,120
60,27,5040,240
55,25,5280,240
58,30,5280,240
51,25,5280,240
60,27,5520,240
40,35,5760,120
60,26,6000,240
58,29,6240,240
55,24,6240,240
52,24,6240,240
60,26,6480,240
41,35,6720,120
53,20,6960,720
57,25,6960,240
58,23,7200,240
60,21,7440,240
46,35,7680,240
62,24,7920,240
58,27,8160,240
53,22,8160,240
62,25,8400,240
50,35,8640,240
65,27,8880,240
53,25,9120,240
58,30,9120,240
65,27,9360,240
48,35,9600,240
63,26,9840,240
57,29,10080,240
53,24,10080,240
63,26,10320,240
41,35,10560,240
60,23,10800,240
57,23,11040,240
53,19,11040,240
60,23,11280,240
46,35,11520,240
62,24,11760,240
53,22,12000,240
58,27,12000,240
62,25,12240,240
40,35,12480,240
61,27,12720,240
52,25,12960,240
55,25,12960,240
58,30,12960,240
61,27,13200,240
58,35,13440,240
53,35,13440,720
60,29,13440,720
57,24,13680,120
55,24,13800,120
57,31,13920,240
53,26,14160,240
60,26,14160,240
46,30,14400,120
58,25,14640,240
53,23,14880,240
50,18,14880,240
58,21,15120,240
46,35,15360,120
62,24,15600,240
58,27,15840,240
53,22,15840,240
62,25,16080,240
50,35,16320,120
65,27,16560,240
58,30,16800,240
53,25,16800,240
65,27,17040,240
48,35,17280,120
63,26,17520,240
57,29,17760,240
53,24,17760,240
63,26,18000,240
41,35,18240,120
60,23,18480,240
53,19,18720,240
57,23,18720,240
60,23,18960,240
46,35,19200,120
62,24,19440,240
53,22,19680,240
58,27,19680,240
62,25,19920,240
39,35,20160,120
60,27,20400,240
51,25,20640,240
58,30,20640,240
55,25,20640,240
60,27,20880,240
40,35,21120,120
60,26,21360,240
58,29,21600,240
55,24,21600,240
52,24,21600,240
60,26,21840,240
41,35,22080,120
53,20,22320,720
57,25,22320,240
58,23,22560,240
60,21,22800,240
46,35,23040,240
62,24,23280,240
53,22,23520,240
58,27,23520,240
62,25,23760,240
50,35,24000,240
65,27,24240,240
53,25,24480,240
58,30,24480,240
65,27,24720,240
48,35,24960,240
63,26,25200,240
53,24,25440,240
57,29,25440,240
63,26,25680,240
41,35,25920,240
60,23,26160,240
57,23,26400,240
53,19,26400,240
60,23,26640,240
46,35,26880,240
62,24,27120,240
53,22,27360,240
58,27,27360,240
62,25,27600,240
40,35,27840,240
61,27,28080,240
58,30,28320,240
55,25,28320,240
52,25,28320,240
61,27,28560,240
60,29,28800,720
58,35,28800,240
53,35,28800,720
57,24,29040,120
55,24,29160,120
57,31,29280,240
53,26,29520,240
60,26,29520,240
46,30,29760,120
58,25,30000,240
50,18,30240,240
53,23,30240,240
58,21,30480,240
50,42,30720,240
38,42,30720,240
62,28,30960,240
57,32,31200,240
54,26,31200,240
62,30,31440,240
43,42,31680,240
58,32,31920,240
55,36,32160,240
50,30,32160,240
58,32,32400,240
43,42,32640,240
58,31,32880,240
55,34,33120,240
50,28,33120,240
58,31,33360,240
36,42,33600,240
55,27,33840,240
48,22,34080,240
52,27,34080,240
55,27,34320,240
41,42,34560,240
57,28,34800,240
48,25,35040,240
53,31,35040,240
57,28,35280,240
34,38,35520,240
55,29,35760,240
50,26,36000,240
53,31,36000,240
55,27,36240,240
36,35,36480,240
48,26,36720,720
55,26,36720,240
57,29,36960,240
58,26,37200,240
41,35,37440,240
53,20,37680,720
57,25,37680,240
58,23,37920,240
60,21,38160,240
46,35,38400,240
62,24,38640,240
58,27,38880,240
53,22,38880,240
62,25,39120,240
50,35,39360,240
65,27,39600,240
56,25,39840,240
58,30,39840,240
65,27,40080,240
48,35,40320,240
63,26,40560,240
55,24,40800,240
58,29,40800,240
63,26,41040,240
52,35,41280,240
67,23,41520,240
61,23,41760,240
58,19,41760,240
67,23,42000,240
43,35,42240,240
60,24,42480,240
55,22,42720,240
58,27,42720,240
60,25,42960,240
41,35,43200,240
62,27,43440,240
53,25,43680,240
58,30,43680,240
62,27,43920,240
41,35,44160,240
60,24,44400,240
53,31,44640,240
60,26,44880,240
46,30,45120,240
58,25,45360,240
53,23,45600,240
50,23,45600,240
58,21,45840,240
38,42,46080,240
50,42,46080,240
62,28,46320,240
54,26,46560,240
57,32,46560,240
62,30,46800,240
43,42,47040,240
58,32,47280,240
50,30,47520,240
55,36,47520,240
58,32,47760,240
43,42,48000,240
58,31,48240,240
55,34,48480,240
50,28,48480,240
58,31,48720,240
36,42,48960,240
55,27,49200,240
52,27,49440,240
48,22,49440,240
55,27,49680,240
41,42,49920,240
57,28,50160,240
53,31,50400,240
48,25,50400,240
57,28,50640,240
34,38,50880,240
55,29,51120,240
53,31,51360,240
50,26,51360,240
55,27,51600,240
36,35,51840,240
55,26,52080,240
48,26,52080,720
57,29,52320,240
58,26,52560,240
41,35,52800,240
53,20,53040,720
57,25,53040,240
58,23,53280,240
60,21,53520,240
46,35,53760,240
62,24,54000,240
58,27,54240,240
53,22,54240,240
62,25,54480,240
50,35,54720,240
65,27,54960,240
56,25,55200,240
58,30,55200,240
65,27,55440,240
48,35,55680,240
63,26,55920,240
58,29,56160,240
55,24,56160,240
63,26,56400,240
52,35,56640,240
67,23,56880,240
58,19,57120,240
61,23,57120,240
67,23,57360,240
43,35,57600,240
60,24,57840,240
55,22,58080,240
58,27,58080,240
60,25,58320,240
41,35,58560,240
62,27,58800,240
53,25,59040,240
58,30,59040,240
62,27,59280,240
41,35,59520,240
60,24,59760,240
53,31,60000,240
60,26,60240,240
46,30,60480,240
58,25,60720,240
50,23,60960,240
53,23,60960,240
58,21,61200,240
41,28,61440,240
60,19,61680,240
53,24,61920,240
60,20,62160,240
46,24,62400,120
58,20,62640,240
53,18,62880,240
50,21,63120,240
29,23,63360,240
48,16,63600,240
41,20,63840,240
48,17,64080,240
46,20,64320,720
34,20,64320,720
41,20,64320,720
46,30,65280,960
53,24,65520,480
53,24,66000,240
50,30,66240,960
53,24,66480,480
53,24,66960,240
48,30,67200,960
53,24,67440,480
53,24,67920,240
41,30,68160,960
53,24,68400,480
53,24,68880,240
50,30,69120,960
57,24,69360,480
57,24,69840,240
50,30,70080,960
56,24,70320,480
56,24,70800,240
51,30,71040,960
55,24,71280,480
54,24,71760,240
41,30,72000,960
53,24,72240,480
53,24,72720,240
46,30,72960,960
53,24,73200,480
53,24,73680,240
50,30,73920,960
53,24,74160,480
53,24,74640,240
48,30,74880,960
53,24,75120,480
53,24,75600,240
41,30,75840,960
53,24,76080,480
53,24,76560,240
50,30,76800,960
53,24,77040,480
58,24,77520,240
52,34,77760,960
58,29,78000,480
61,29,78000,480
58,24,78480,240
61,24,78480,240
53,30,78720,960
60,24,78960,480
63,24,79440,240
62,30,79680,480
58,30,79680,480
46,30,80640,960
53,24,80880,480
53,24,81360,240
50,30,81600,960
53,24,81840,480
53,24,82320,240
48,30,82560,960
53,24,82800,480
53,24,83280,240
41,30,83520,960
53,24,83760,480
53,24,84240,240
50,30,84480,960
57,24,84720,480
57,24,85200,240
50,30,85440,960
56,24,85680,480
56,24,86160,240
51,30,86400,960
55,24,86640,480
54,24,87120,240
41,30,87360,960
53,24,87600,480
53,24,88080,240
46,30,88320,960
53,24,88560,480
53,24,89040,240
50,30,89280,960
53,24,89520,480
53,24,90000,240
48,30,90240,960
53,24,90480,480
53,24,90960,240
41,30,91200,960
53,24,91440,480
53,24,91920,240
50,30,92160,960
53,24,92400,480
58,24,92880,240
52,34,93120,960
61,29,93360,480
58,29,93360,480
61,24,93840,240
58,24,93840,240
53,30,94080,960
60,24,94320,480
63,24,94800,240
58,30,95040,480
62,30,95040,480
50,34,96000,960
60,27,96240,480
57,27,96720,240
43,34,96960,240
62,40,97200,240
55,33,97200,240
56,40,97440,240
60,48,97440,240
55,31,97680,240
59,36,97680,240
43,34,97920,240
65,46,98160,480
55,37,98160,720
62,35,98640,240
48,42,98880,720
60,33,99120,720
55,27,99600,240
57,34,99840,480
60,27,100080,480
53,37,100320,480
60,27,100560,240
46,41,100800,240
58,29,101040,240
62,35,101040,240
60,33,101280,240
57,27,101280,240
55,25,101520,240
58,31,101520,240
48,34,101760,480
57,27,102000,240
48,34,102240,480
58,27,102480,240
57,34,102720,960
53,34,102720,960
46,30,103680,960
53,24,103920,480
53,24,104400,240
50,30,104640,960
58,24,104880,480
58,24,105360,240
51,30,105600,960
58,28,105840,480
58,28,106320,240
52,37,106560,960
58,28,106800,480
61,28,106800,480
61,28,107280,240
58,28,107280,240
55,37,107520,960
60,24,107760,480
58,24,107760,480
61,24,108240,240
58,24,108240,240
53,34,108480,960
58,29,108720,240
62,29,108720,240
63,29,108960,240
60,24,108960,240
62,20,109200,240
65,24,109200,240
53,30,109440,720
60,24,109680,240
63,24,109680,240
62,24,109920,240
58,24,109920,240
60,24,110160,240
53,24,110160,240
46,25,110400,480
58,30,110400,480
50,25,110400,480
50,30,111120,120
50,34,111360,960
60,27,111600,480
57,27,112080,240
43,34,112320,240
62,40,112560,240
55,33,112560,240
56,40,112800,240
60,48,112800,240
59,36,113040,240
55,31,113040,240
43,34,113280,240
55,37,113520,720
65,46,113520,480
62,35,114000,240
48,42,114240,720
60,33,114480,720
55,27,114960,240
57,34,115200,480
60,27,115440,480
53,37,115680,480
60,27,115920,240
46,41,116160,240
62,35,116400,240
58,29,116400,240
60,33,116640,240
57,27,116640,240
55,25,116880,240
58,31,116880,240
48,34,117120,480
57,27,117360,240
48,34,117600,480
58,27,117840,240
57,34,118080,960
53,34,118080,960
46,30,119040,960
53,24,119280,480
53,24,119760,240
50,30,120000,960
58,24,120240,480
58,24,120720,240
51,30,120960,960
58,28,121200,480
58,28,121680,240
52,37,121920,960
58,28,122160,480
61,28,122160,480
61,28,122640,240
58,28,122640,240
55,37,122880,960
60,24,123120,480
58,24,123120,480
61,24,123600,240
58,24,123600,240
53,34,123840,960
58,29,124080,240
62,29,124080,240
63,29,124320,240
60,24,124320,240
62,20,124560,240
65,24,124560,240
53,30,124800,720
60,24,125040,240
63,24,125040,240
62,24,125280,240
58,24,125280,240
60,24,125520,240
53,24,125520,240
46,25,125760,480
50,25,125760,480
58,30,125760,480
58,30,126480,240
53,27,126720,720
63,21,126960,240
60,21,126960,240
62,21,127200,240
58,21,127200,240
60,21,127440,240
53,21,127440,240
50,22,127680,480
46,22,127680,480
58,27,127680,480
53,27,128400,240
50,21,128400,240
41,27,128640,720
51,21,128880,240
48,21,128880,240
46,21,129120,240
50,21,129120,240
48,21,129360,240
41,21,129360,240
46,27,129600,960
41,27,129600,960
34,27,129600,960
46,35,132480,120
62,24,132720,480
58,20,132720,480
53,20,132720,480
53,21,133200,240
58,21,133200,240
62,25,133200,240
50,35,133440,120
58,23,133680,480
53,23,133680,480
62,28,133680,480
58,22,134160,240
62,27,134160,240
53,22,134160,240
48,35,134400,120
53,20,134640,480
57,20,134640,480
63,24,134640,480
53,21,135120,240
63,25,135120,240
57,21,135120,240
41,35,135360,120
53,23,135600,480
60,28,135600,480
57,23,135600,480
57,22,136080,240
53,22,136080,240
60,27,136080,240
46,35,136320,120
62,24,136560,480
53,20,136560,480
58,20,136560,480
58,21,137040,240
62,25,137040,240
53,21,137040,240
39,35,137280,120
58,23,137520,480
55,23,137520,480
51,23,137520,480
60,28,137520,480
58,22,138000,240
51,22,138000,240
60,27,138000,240
55,22,138000,240
39,42,138240,240
60,35,138480,480
55,29,138480,240
52,29,138480,480
57,35,138720,240
60,39,138960,240
52,33,138960,240
58,33,138960,240
41,44,139200,240
60,38,139440,240
53,32,139440,720
57,32,139440,240
62,37,139680,240
58,31,139680,240
63,36,139920,240
60,30,139920,240
46,35,140160,120
58,20,140400,480
62,24,140400,480
53,20,140400,480
62,25,140880,240
53,21,140880,240
58,21,140880,240
50,35,141120,120
65,28,141360,480
53,23,141360,480
58,23,141360,480
65,27,141840,240
53,22,141840,240
58,22,141840,240
48,35,142080,120
53,20,142320,480
63,24,142320,480
57,20,142320,480
57,21,142800,240
63,25,142800,240
53,21,142800,240
41,35,143040,120
57,23,143280,480
60,28,143280,480
53,23,143280,480
60,27,143760,240
53,22,143760,240
57,22,143760,240
46,35,144000,120
62,24,144240,480
58,20,144240,480
53,20,144240,480
58,21,144720,240
53,21,144720,240
62,25,144720,240
40,35,144960,120
61,28,145200,480
58,23,145200,480
55,23,145200,480
52,23,145200,480
61,27,145680,240
55,22,145680,240
52,22,145680,240
58,22,145680,240
53,42,145920,960
60,42,145920,720
58,39,145920,240
57,39,146160,120
55,42,146280,120
57,48,146400,240
63,39,146640,240
60,33,146640,240
58,44,146880,960
62,44,146880,960
46,35,147840,120
53,20,148080,480
58,20,148080,480
62,24,148080,480
58,21,148560,240
62,25,148560,240
53,21,148560,240
50,35,148800,120
62,28,149040,480
58,23,149040,480
53,23,149040,480
58,22,149520,240
53,22,149520,240
62,27,149520,240
48,35,149760,120
57,20,150000,480
53,20,150000,480
63,24,150000,480
57,21,150480,240
53,21,150480,240
63,25,150480,240
41,35,150720,120
60,28,150960,480
57,23,150960,480
53,23,150960,480
57,22,151440,240
53,22,151440,240
60,27,151440,240
46,35,151680,120
58,20,151920,480
53,20,151920,480
62,24,151920,480
58,21,152400,240
53,21,152400,240
62,25,152400,240
39,35,152640,120
58,23,152880,480
51,23,152880,480
60,28,152880,480
55,23,152880,480
51,22,153360,240
60,27,153360,240
58,22,153360,240
55,22,153360,240
39,42,153600,240
60,35,153840,480
52,29,153840,480
55,29,153840,240
57,35,154080,240
52,33,154320,240
60,39,154320,240
58,33,154320,240
41,44,154560,240
53,32,154800,720
57,32,154800,240
60,38,154800,240
58,31,155040,240
62,37,155040,240
63,36,155280,240
60,30,155280,240
46,35,155520,120
53,20,155760,480
62,24,155760,480
58,20,155760,480
62,25,156240,240
58,21,156240,240
53,21,156240,240
50,35,156480,120
58,23,156720,480
65,28,156720,480
53,23,156720,480
58,22,157200,240
53,22,157200,240
65,27,157200,240
48,35,157440,120
57,20,157680,480
53,20,157680,480
63,24,157680,480
57,21,158160,240
63,25,158160,240
53,21,158160,240
41,35,158400,120
60,28,158640,480
53,23,158640,480
57,23,158640,480
57,22,159120,240
60,27,159120,240
53,22,159120,240
46,35,159360,120
58,20,159600,480
53,20,159600,480
62,24,159600,480
58,21,160080,240
53,21,160080,240
62,25,160080,240
40,35,160320,120
52,23,160560,480
58,23,160560,480
55,23,160560,480
61,28,160560,480
61,27,161040,240
58,22,161040,240
52,22,161040,240
55,22,161040,240
53,42,161280,960
60,42,161280,720
58,39,161280,240
57,39,161520,120
55,42,161640,120
57,48,161760,240
60,33,162000,240
63,39,162000,240
62,44,162240,960
58,44,162240,960
50,63,163200,240
54,52,163440,120
57,56,163560,120
61,62,163680,120
62,52,163800,120
50,61,163920,120
62,53,164040,120
46,63,164160,120
58,54,164280,120
45,62,164400,120
57,57,164520,120
43,65,164640,120
55,60,164760,120
42,68,164880,120
54,64,165000,120
43,77,165120,120
55,65,165240,120
45,73,165360,120
57,62,165480,120
46,70,165600,120
58,62,165720,120
47,67,165840,120
59,61,165960,120
48,68,166080,240
52,51,166320,120
55,57,166440,120
59,57,166560,120
60,53,166680,120
48,57,166800,120
60,51,166920,120
41,62,167040,240
45,51,167280,120
48,51,167400,120
52,64,167520,120
53,57,167640,120
57,61,167760,120
60,64,167880,120
46,63,168000,240
62,52,168240,480
65,62,168240,480
55,52,168240,480
65,61,168720,240
55,51,168720,240
62,51,168720,240
48,63,168960,240
60,51,169200,480
55,51,169200,480
64,60,169200,480
58,51,169200,480
60,51,169680,240
64,60,169680,240
53,54,169920,120
63,61,170040,120
60,61,170160,120
57,60,170280,120
53,58,170400,120
51,57,170520,120
48,55,170640,120
53,54,170760,120
46,35,170880,240
62,24,171120,480
53,20,171120,480
58,20,171120,480
62,25,171600,240
58,21,171600,240
53,21,171600,240
50,35,171840,240
65,28,172080,480
58,23,172080,480
56,23,172080,480
58,22,172560,240
56,22,172560,240
65,27,172560,240
51,35,172800,240
58,20,173040,480
55,20,173040,480
63,24,173040,480
63,25,173520,240
58,21,173520,240
55,21,173520,240
52,35,173760,240
58,23,174000,480
61,23,174000,480
67,28,174000,480
67,27,174480,240
58,22,174480,240
61,22,174480,240
55,31,174720,240
64,21,174960,480
58,18,174960,480
60,18,174960,480
58,18,175440,240
64,22,175440,240
60,18,175440,240
53,31,175680,240
62,20,175920,480
65,25,175920,480
58,20,175920,480
65,24,176400,240
62,19,176400,240
58,19,176400,240
53,31,176640,240
63,18,176880,480
60,18,176880,480
65,21,176880,480
63,18,177360,240
65,22,177360,240
60,18,177360,240
46,31,177600,240
62,20,177840,720
58,20,177840,720
65,25,177840,720
50,63,178560,240
54,52,178800,120
57,56,178920,120
61,62,179040,120
62,52,179160,120
50,61,179280,120
62,53,179400,120
46,63,179520,120
58,54,179640,120
45,62,179760,120
57,57,179880,120
43,65,180000,120
55,60,180120,120
42,68,180240,120
54,64,180360,120
43,77,180480,120
55,65,180600,120
45,73,180720,120
57,62,180840,120
46,70,180960,120
58,62,181080,120
47,67,181200,120
59,61,181320,120
48,68,181440,240
52,51,181680,120
55,57,181800,120
59,57,181920,120
60,53,182040,120
48,57,182160,120
60,51,182280,120
41,62,182400,240
45,51,182640,120
48,51,182760,120
52,64,182880,120
53,57,183000,120
57,61,183120,120
60,64,183240,120
46,63,183360,240
62,52,183600,480
65,62,183600,480
55,52,183600,480
62,51,184080,240
65,61,184080,240
55,51,184080,240
48,63,184320,240
58,51,184560,480
64,60,184560,480
60,51,184560,480
55,51,184560,480
60,51,185040,240
64,60,185040,240
53,54,185280,120
63,61,185400,120
60,61,185520,120
57,60,185640,120
53,58,185760,120
51,57,185880,120
48,55,186000,120
53,54,186120,120
46,35,186240,240
62,24,186480,480
58,20,186480,480
53,20,186480,480
53,21,186960,240
62,25,186960,240
58,21,186960,240
50,35,187200,240
65,28,187440,480
58,23,187440,480
56,23,187440,480
58,22,187920,240
56,22,187920,240
65,27,187920,240
51,35,188160,240
55,20,188400,480
58,20,188400,480
63,24,188400,480
58,21,188880,240
63,25,188880,240
55,21,188880,240
52,35,189120,240
58,23,189360,480
67,28,189360,480
61,23,189360,480
61,22,189840,240
58,22,189840,240
67,27,189840,240
55,31,190080,240
60,18,190320,480
58,18,190320,480
64,21,190320,480
58,18,190800,240
60,18,190800,240
64,22,190800,240
53,31,191040,240
58,20,191280,480
62,20,191280,480
65,25,191280,480
58,19,191760,240
62,19,191760,240
65,24,191760,240
53,31,192000,240
60,18,192240,480
63,18,192240,480
65,21,192240,480
65,22,192720,240
60,18,192720,240
63,18,192720,240
53,31,192960,240
65,21,193200,480
62,18,193200,480
58,18,193200,480
65,22,193680,240
58,18,193680,240
62,18,193680,240
41,31,193920,240
60,18,194160,480
63,21,194160,480
53,18,194160,480
53,18,194640,240
63,22,194640,240
60,18,194640,240
41,31,194880,240
53,18,195120,480
58,18,195120,480
62,21,195120,480
62,22,195600,180
58,18,195600,180
53,18,195600,180
41,31,195840,240
53,18,196080,480
60,21,196080,480
51,18,196080,480
53,18,196560,240
51,18,196560,240
57,22,196560,240
58,34,196800,720
53,31,196920,600
50,29,197040,480
46,28,197160,360
34,26,197280,240
46,36,197760,160
34,30,197760,160
46,25,197920,120
53,29,197920,120
49,25,197920,120
52,29,198080,120
49,25,198080,120
46,25,198080,120
49,30,198240,120
53,36,198240,120
46,30,198240,120
49,25,198400,120
46,25,198400,120
54,29,198400,120
49,25,198560,120
53,29,198560,120
46,25,198560,120
37,30,198720,160
49,36,198720,160
53,28,198880,120
49,24,198880,120
49,25,199040,120
52,29,199040,120
49,26,199200,120
53,31,199200,120
49,25,199360,120
54,29,199360,120
53,29,199520,120
49,25,199520,120
36,36,199680,160
48,25,199840,160
53,29,199840,160
51,25,199840,160
48,25,200000,160
51,29,200000,160
52,25,200000,160
53,31,200160,160
51,26,200160,160
48,26,200160,160
48,28,200320,160
51,34,200320,160
48,30,200480,160
54,36,200480,160
51,30,200480,160
33,45,200640,160
53,35,200800,160
48,29,200800,160
45,29,200800,160
52,35,200960,160
48,29,200960,160
45,29,200960,160
53,37,201120,160
45,31,201120,160
48,31,201120,160
48,26,201280,160
54,30,201280,160
45,26,201280,160
53,30,201440,160
45,26,201440,160
48,26,201440,160
34,39,201600,160
53,31,201760,160
49,27,201760,160
46,27,201760,160
52,31,201920,160
46,27,201920,160
49,27,201920,160
49,33,202080,120
53,39,202080,120
46,33,202080,120
46,27,202240,120
54,31,202240,120
49,27,202240,120
53,31,202400,120
49,27,202400,120
46,27,202400,120
30,39,202560,160
42,26,202720,160
46,26,202720,160
51,30,202720,160
51,31,202880,160
45,27,202880,160
42,27,202880,160
46,28,203040,120
51,34,203040,120
42,28,203040,120
53,31,203200,120
42,28,203200,120
46,27,203200,120
46,27,203360,120
42,28,203360,120
51,31,203360,120
41,49,203520,160
29,40,203520,160
41,29,203680,160
49,36,203680,160
46,29,203680,160
46,29,203840,160
48,36,203840,160
41,29,203840,160
41,31,204000,160
46,31,204000,160
49,38,204000,160
46,34,204160,160
51,40,204160,160
41,34,204160,160
52,42,204320,160
41,36,204320,160
46,36,204320,160
29,44,204480,160
41,52,204480,160
41,37,204640,160
53,44,204640,160
45,37,204640,160
52,44,204800,160
45,37,204800,160
41,37,204800,160
41,44,204960,160
53,51,204960,160
45,44,204960,160
54,44,205120,160
41,37,205120,160
45,37,205120,160
41,37,205280,160
53,44,205280,160
45,37,205280,160
46,50,205440,160
34,42,205440,160
53,40,205600,120
49,35,205600,120
46,35,205600,120
49,35,205760,120
46,35,205760,120
52,40,205760,120
46,42,205920,120
49,42,205920,120
53,50,205920,120
54,40,206080,120
46,35,206080,120
49,35,206080,120
53,40,206240,120
46,35,206240,120
49,35,206240,120
49,50,206400,160
37,42,206400,160
49,34,206560,120
53,39,206560,120
52,40,206720,120
49,35,206720,120
49,36,206880,120
53,44,206880,120
49,35,207040,120
54,40,207040,120
53,40,207200,120
49,35,207200,120
36,50,207360,160
48,35,207520,160
51,35,207520,160
53,40,207520,160
51,40,207680,160
48,35,207680,160
52,35,207680,160
48,36,207840,160
53,44,207840,160
51,36,207840,160
51,48,208000,160
48,39,208000,160
54,50,208160,160
48,42,208160,160
51,42,208160,160
33,63,208320,160
45,40,208480,160
53,49,208480,160
48,40,208480,160
48,40,208640,160
45,40,208640,160
52,49,208640,160
48,44,208800,160
53,52,208800,160
45,44,208800,160
45,34,208960,160
54,39,208960,160
48,34,208960,160
45,28,209120,160
53,33,209120,160
48,28,209120,160
34,42,209280,160
46,29,209440,160
53,34,209440,160
49,29,209440,160
52,34,209600,160
46,29,209600,160
49,29,209600,160
53,42,209760,120
49,36,209760,120
46,36,209760,120
49,29,209920,120
54,34,209920,120
46,29,209920,120
49,29,210080,120
53,34,210080,120
46,29,210080,120
40,42,210240,160
55,33,210400,160
48,28,210400,160
46,28,210400,160
55,28,210560,160
46,25,210560,160
49,25,210560,160
55,30,210720,120
46,26,210720,120
48,25,210880,120
46,25,210880,120
55,28,210880,120
49,25,211040,120
55,28,211040,120
46,25,211040,120
41,41,211200,160
46,24,211360,160
49,30,211360,160
46,22,211520,160
49,28,211520,160
41,28,211680,120
48,24,211840,120
45,24,211840,120
48,24,212000,120
45,24,212000,120
34,31,212160,160
46,18,212320,160
53,23,212320,160
49,18,212320,160
46,22,212480,160
48,22,212480,160
51,26,212480,160
46,30,212640,480
49,36,212640,480
58,36,213120,160
46,30,213120,160
61,25,213280,120
58,25,213280,120
65,29,213280,120
64,29,213440,120
58,25,213440,120
61,25,213440,120
65,36,213600,120
61,30,213600,120
58,30,213600,120
61,25,213760,120
66,29,213760,120
58,25,213760,120
61,25,213920,120
65,29,213920,120
58,25,213920,120
49,36,214080,160
65,28,214240,120
61,24,214240,120
61,25,214400,120
64,29,214400,120
61,26,214560,120
65,31,214560,120
61,25,214720,120
66,29,214720,120
61,25,214880,120
65,29,214880,120
48,36,215040,160
63,25,215200,160
65,29,215200,160
60,25,215200,160
64,25,215360,160
60,25,215360,160
63,29,215360,160
60,26,215520,160
63,26,215520,160
65,31,215520,160
60,28,215680,160
63,34,215680,160
60,30,215840,160
63,30,215840,160
66,36,215840,160
45,45,216000,160
65,35,216160,160
60,29,216160,160
57,29,216160,160
60,29,216320,160
64,35,216320,160
57,29,216320,160
60,34,216480,160
65,40,216480,160
57,34,216480,160
57,26,216640,160
66,30,216640,160
60,26,216640,160
57,26,216800,160
65,30,216800,160
60,26,216800,160
46,40,216960,160
65,33,217120,160
58,28,217120,160
61,28,217120,160
58,28,217280,160
61,28,217280,160
64,33,217280,160
58,34,217440,120
65,40,217440,120
61,34,217440,120
66,33,217600,120
61,28,217600,120
58,28,217600,120
61,28,217760,120
65,33,217760,120
58,28,217760,120
42,40,217920,160
54,27,218080,160
63,31,218080,160
58,27,218080,160
57,28,218240,160
54,28,218240,160
63,33,218240,160
63,35,218400,120
58,29,218400,120
54,29,218400,120
58,28,218560,120
65,33,218560,120
54,29,218560,120
63,33,218720,120
58,28,218720,120
54,29,218720,120
53,51,218880,160
41,41,218880,160
58,30,219040,160
53,30,219040,160
61,37,219040,160
58,30,219200,160
53,30,219200,160
60,37,219200,160
61,39,219360,160
53,33,219360,160
58,33,219360,160
53,35,219520,160
58,35,219520,160
63,41,219520,160
53,34,219680,160
64,40,219680,160
58,34,219680,160
53,50,219840,160
41,42,219840,160
53,35,220000,160
65,42,220000,160
57,35,220000,160
57,35,220160,160
64,42,220160,160
53,35,220160,160
57,42,220320,160
53,42,220320,160
65,49,220320,160
53,35,220480,160
57,35,220480,160
66,42,220480,160
65,42,220640,160
53,35,220640,160
57,35,220640,160
46,40,220800,160
58,48,220800,160
58,33,220960,160
61,33,220960,160
65,38,220960,160
61,33,221120,160
64,38,221120,160
58,33,221120,160
65,48,221280,160
61,40,221280,160
58,40,221280,160
58,33,221440,160
61,33,221440,160
66,38,221440,160
58,33,221600,160
65,38,221600,160
61,33,221600,160
49,40,221760,160
61,48,221760,160
65,37,221920,160
61,32,221920,160
61,33,222080,160
64,38,222080,160
65,42,222240,160
61,34,222240,160
66,38,222400,160
61,33,222400,160
61,33,222560,160
65,38,222560,160
48,48,222720,160
60,33,222880,160
65,38,222880,160
63,33,222880,160
64,33,223040,160
60,33,223040,160
63,38,223040,160
60,34,223200,160
65,42,223200,160
63,34,223200,160
63,46,223360,160
60,37,223360,160
60,40,223520,160
66,48,223520,160
63,40,223520,160
45,60,223680,160
65,47,223840,160
57,38,223840,160
60,38,223840,160
64,47,224000,160
57,38,224000,160
60,38,224000,160
60,42,224160,160
57,42,224160,160
65,50,224160,160
66,40,224320,160
57,35,224320,160
60,35,224320,160
65,33,224480,160
60,28,224480,160
57,28,224480,160
46,42,224640,160
58,29,224800,160
65,34,224800,160
61,29,224800,160
58,29,224960,160
61,29,224960,160
64,34,224960,160
61,36,225120,120
65,42,225120,120
58,36,225120,120
61,29,225280,120
66,34,225280,120
58,29,225280,120
58,29,225440,120
61,29,225440,120
65,34,225440,120
52,42,225600,160
67,33,225760,160
58,28,225760,160
60,28,225760,160
58,25,225920,160
67,28,225920,160
61,25,225920,160
67,30,226080,120
58,26,226080,120
58,25,226240,120
60,25,226240,120
67,28,226240,120
58,25,226400,120
67,28,226400,120
61,25,226400,120
53,41,226560,160
61,30,226720,160
58,24,226720,160
61,28,226880,160
58,22,226880,160
53,28,227040,120
60,24,227200,120
57,24,227200,120
57,24,227360,120
60,24,227360,120
46,31,227520,160
53,23,227680,160
49,18,227680,160
48,22,227840,160
51,26,227840,160
49,31,228000,240
46,28,228000,240
37,50,228480,80
56,40,228640,144
53,35,228640,144
49,35,228640,144
56,40,228800,144
53,35,228800,144
49,35,228800,144
49,35,228960,144
57,50,228960,144
53,35,228960,144
49,35,229120,144
57,40,229120,144
53,35,229120,144
53,35,229280,144
57,40,229280,144
49,35,229280,144
42,50,229440,80
54,34,229600,144
58,39,229600,144
49,35,229600,144
54,35,229760,144
58,40,229760,142
49,35,229760,144
38,44,229920,80
56,37,230080,144
53,37,230080,144
58,43,230080,144
50,37,230080,144
50,40,230240,144
56,40,230240,144
53,40,230240,144
58,46,230240,144
39,62,230400,80
51,43,230560,160
58,50,230560,160
54,43,230560,160
54,43,230720,160
59,50,230720,160
51,43,230720,160
40,55,230880,80
58,48,231040,160
52,48,231040,160
54,48,231040,160
60,60,231040,160
54,52,231200,160
58,52,231200,160
61,62,231200,160
52,52,231200,160
41,78,231360,80
61,57,231520,144
58,46,231520,144
53,46,231520,144
53,43,231680,144
61,53,231680,144
58,43,231680,144
57,44,231840,144
53,44,231840,144
60,52,231840,144
60,39,232000,144
57,34,232000,144
53,34,232000,144
53,28,232160,144
60,33,232160,142
57,28,232160,144
45,52,232320,160
60,30,232480,160
53,25,232480,160
57,25,232480,160
60,30,232640,160
57,25,232640,160
52,25,232640,160
53,25,232800,160
60,30,232800,160
57,25,232800,160
57,25,232960,160
53,25,232960,160
62,30,232960,160
57,25,233120,160
53,25,233120,160
60,30,233120,160
46,44,233280,160
57,25,233440,160
63,30,233440,160
54,25,233440,160
62,30,233600,160
57,25,233600,160
54,25,233600,160
58,25,233760,160
62,30,233760,160
55,25,233760,160
62,30,233920,160
60,25,233920,160
57,25,233920,160
62,30,234080,160
58,25,234080,160
48,40,234240,160
57,28,234400,144
60,33,234400,144
57,27,234560,144
60,32,234560,144
48,39,234720,160
60,32,234880,144
58,27,234880,144
55,27,234880,144
60,32,235040,144
58,27,235040,144
55,27,235040,144
41,40,235200,160
53,27,235360,160
57,27,235360,160
60,32,235360,160
53,32,235520,120
51,40,235680,160
53,34,235680,120
53,37,235840,120
49,44,235840,160
53,40,236000,120
48,48,236000,160
42,50,236160,80
30,42,236160,80
42,37,236320,160
49,44,236320,160
46,37,236320,160
42,37,236480,160
48,44,236480,160
46,37,236480,160
42,43,236640,160
49,51,236640,160
46,43,236640,160
42,38,236800,160
46,38,236800,160
51,45,236800,160
49,45,236960,160
46,38,236960,160
42,38,236960,160
29,43,237120,80
41,51,237120,80
46,36,237280,160
49,43,237280,160
41,36,237280,160
41,36,237440,160
48,43,237440,160
46,36,237440,160
41,43,237600,160
46,43,237600,160
49,51,237600,160
41,39,237760,160
51,46,237760,160
46,39,237760,160
49,46,237920,160
41,39,237920,160
46,39,237920,160
38,51,238080,80
50,34,238240,160
56,41,238240,160
53,34,238240,160
50,35,238400,160
57,41,238400,160
53,35,238400,160
58,47,238560,160
50,40,238560,160
53,40,238560,160
50,44,238720,160
53,44,238720,160
56,52,238720,160
56,48,238880,160
50,48,238880,160
53,48,238880,160
59,57,238880,160
39,62,239040,80
51,34,239200,160
58,41,239200,160
54,34,239200,160
51,34,239360,160
54,34,239360,160
57,41,239360,160
51,41,239520,160
54,41,239520,160
58,49,239520,160
54,34,239680,160
51,34,239680,160
59,40,239680,160
54,34,239840,160
58,40,239840,160
51,34,239840,160
46,40,240000,160
54,23,240160,144
58,33,240160,144
54,23,240320,144
58,33,240320,144
58,40,240480,144
54,28,240480,144
58,33,240640,144
54,23,240640,144
60,33,240800,160
58,23,240800,160
54,23,240800,160
41,40,240960,160
58,22,241120,144
61,31,241120,144
53,22,241120,144
61,33,241280,144
58,23,241280,144
53,23,241280,144
61,35,241440,144
58,24,241440,144
53,24,241440,144
58,23,241600,144
52,24,241600,144
61,33,241600,144
53,24,241760,144
58,23,241760,144
61,33,241760,144
40,45,241920,160
58,33,242080,144
61,38,242080,144
54,33,242080,144
52,33,242080,144
58,29,242240,144
54,29,242240,144
60,35,242240,144
52,29,242240,144
41,39,242400,160
57,28,242560,160
53,28,242560,160
60,28,242560,160
66,33,242560,160
53,28,242720,160
60,28,242720,160
63,28,242720,160
65,33,242720,160
46,42,242880,160
53,28,243040,144
65,33,243040,144
61,28,243040,144
53,28,243200,144
63,33,243200,144
60,28,243200,144
61,40,243360,238
53,34,243360,240
58,34,243360,240
37,50,243840,80
53,35,244000,144
49,35,244000,144
56,40,244000,144
49,35,244160,144
56,40,244160,144
53,35,244160,144
49,35,244320,144
53,35,244320,144
57,50,244320,144
53,35,244480,144
49,35,244480,144
57,40,244480,144
57,40,244640,144
49,35,244640,144
53,35,244640,144
42,50,244800,80
49,35,244960,144
54,34,244960,144
58,39,244960,144
49,35,245120,144
58,40,245120,142
54,35,245120,144
38,44,245280,80
50,37,245440,144
53,37,245440,144
58,43,245440,144
56,37,245440,144
53,40,245600,144
56,40,245600,144
50,40,245600,144
58,46,245600,144
39,62,245760,80
58,50,245920,160
54,43,245920,160
51,43,245920,160
51,43,246080,160
54,43,246080,160
59,50,246080,160
40,55,246240,80
58,48,246400,160
60,60,246400,160
52,48,246400,160
54,48,246400,160
61,62,246560,160
52,52,246560,160
54,52,246560,160
58,52,246560,160
41,78,246720,80
61,57,246880,144
53,46,246880,144
58,46,246880,144
53,43,247040,144
61,53,247040,144
58,43,247040,144
57,44,247200,144
53,44,247200,144
60,52,247200,144
57,34,247360,144
60,39,247360,144
53,34,247360,144
53,28,247520,144
60,33,247520,142
57,28,247520,144
45,52,247680,160
53,25,247840,144
57,25,247840,144
60,30,247840,144
52,25,248000,144
57,25,248000,144
60,30,248000,144
60,30,248160,144
57,25,248160,144
53,25,248160,144
53,25,248320,144
57,25,248320,144
62,30,248320,144
57,25,248480,144
60,30,248480,144
53,25,248480,144
46,44,248640,160
54,25,248800,144
63,30,248800,144
57,25,248800,144
62,30,248960,144
54,25,248960,144
57,25,248960,144
58,25,249120,144
55,25,249120,144
62,30,249120,144
60,25,249280,144
62,30,249280,144
57,25,249280,144
58,25,249440,144
62,30,249440,144
48,40,249600,160
57,28,249760,144
60,33,249760,144
57,27,249920,144
60,32,249920,144
48,39,250080,160
60,32,250240,144
55,27,250240,144
58,27,250240,144
60,32,250400,144
58,27,250400,144
55,27,250400,144
41,40,250560,160
53,27,250720,160
57,27,250720,160
60,32,250720,160
53,32,250880,160
51,40,251040,160
53,34,251040,120
53,37,251200,120
49,44,251200,160
48,48,251360,160
53,40,251360,120
30,42,251520,80
42,50,251520,80
49,44,251680,144
46,37,251680,144
42,37,251680,144
48,44,251840,144
42,37,251840,144
46,37,251840,144
49,51,252000,144
46,43,252000,144
42,43,252000,144
51,45,252160,144
42,38,252160,144
46,38,252160,144
42,38,252320,144
49,45,252320,144
46,38,252320,144
41,51,252480,80
29,43,252480,80
41,36,252640,144
46,36,252640,144
49,43,252640,144
41,36,252800,144
46,36,252800,144
48,43,252800,144
49,51,252960,144
46,43,252960,144
41,43,252960,144
51,46,253120,144
41,39,253120,144
46,39,253120,144
41,39,253280,144
46,39,253280,144
49,46,253280,144
38,51,253440,80
53,34,253600,144
50,34,253600,144
56,41,253600,144
53,35,253760,144
57,41,253760,144
50,35,253760,144
53,40,253920,144
50,40,253920,144
58,47,253920,144
56,52,254080,144
50,44,254080,144
53,44,254080,144
56,48,254240,144
50,48,254240,144
59,57,254240,144
53,48,254240,144
39,62,254400,80
51,34,254560,144
54,34,254560,144
58,41,254560,144
51,34,254720,144
54,34,254720,144
57,41,254720,144
51,41,254880,144
58,49,254880,144
54,41,254880,144
59,40,255040,144
54,34,255040,144
51,34,255040,144
54,34,255200,144
58,40,255200,144
51,34,255200,144
46,40,255360,160
54,23,255520,144
58,33,255520,144
58,33,255680,144
54,23,255680,144
58,40,255840,144
54,28,255840,144
54,23,256000,144
58,33,256000,144
60,33,256160,144
58,23,256160,144
54,23,256160,144
41,40,256320,160
58,22,256480,144
53,22,256480,144
61,31,256480,144
58,23,256640,144
61,33,256640,144
53,23,256640,144
53,24,256800,144
58,24,256800,144
61,35,256800,144
61,33,256960,144
52,24,256960,144
58,23,256960,144
58,23,257120,144
61,33,257120,144
53,24,257120,144
40,45,257280,160
54,33,257440,144
61,38,257440,144
52,33,257440,144
58,33,257440,144
54,29,257600,144
58,29,257600,144
60,35,257600,144
52,29,257600,144
41,39,257760,160
66,33,257920,144
57,28,257920,144
53,28,257920,144
60,28,257920,144
63,28,258080,144
53,28,258080,144
65,33,258080,144
60,28,258080,144
46,42,258240,160
53,28,258400,144
58,28,258400,144
61,33,258400,144
57,28,258560,144
53,28,258560,144
60,33,258560,144
53,38,258720,144
58,38,258720,144
61,38,258720,144
61,26,258880,144
53,26,258880,144
65,26,258880,144
53,22,259040,144
58,22,259040,144
61,22,259040,144
40,40,259200,160
58,23,259360,144
52,23,259360,144
61,33,259360,144
55,23,259360,144
58,27,259520,160
60,27,259520,160
55,27,259520,160
52,27,259520,160
41,31,259680,160
57,22,259840,144
53,22,259840,144
60,26,259840,144
53,22,260000,144
63,26,260000,144
60,22,260000,144
41,35,260160,160
53,24,260320,144
58,24,260320,144
61,29,260320,144
60,29,260480,144
53,24,260480,144
57,24,260480,144
58,20,260640,144
53,20,260640,144
61,35,260640,144
53,25,260800,144
65,30,260800,144
61,25,260800,144
58,25,260960,144
53,25,260960,144
61,30,260960,144
42,31,261120,160
58,31,261280,144
54,26,261280,144
58,27,261440,144
54,27,261440,144
60,32,261440,144
41,38,261600,160
60,29,261760,144
53,20,261760,144
57,25,261760,144
53,22,261920,144
63,27,261920,144
60,22,261920,144
34,35,262080,160
58,18,262240,144
53,18,262240,144
61,22,262240,144
65,22,262400,144
61,18,262400,144
53,18,262400,144
58,19,262560,240
53,18,262560,240
61,22,262560,240
42,38,263040,180
49,31,263220,60
58,42,263280,420
54,29,263700,60
58,39,263760,480
54,34,264240,240
49,34,264480,240
46,34,264720,240
41,45,264960,180
49,36,265140,60
59,45,265200,420
56,37,265620,60
59,46,265680,480
56,38,266160,240
53,38,266400,240
49,39,266640,240
42,50,266880,180
49,40,267060,60
58,50,267120,420
54,40,267540,60
58,50,267600,480
47,40,267840,960
56,40,268080,240
51,40,268320,240
56,40,268560,240
48,44,268800,480
56,52,268800,240
60,44,269040,240
63,49,269280,240
56,41,269280,480
66,55,269520,240
61,48,269760,960
65,57,269760,240
68,53,270000,240
70,58,270240,240
71,62,270480,240
42,55,270720,120
58,50,270840,120
49,50,270960,120
58,50,271080,120
54,59,271200,120
58,50,271320,120
49,50,271440,120
58,50,271560,120
42,59,271680,120
58,50,271800,120
49,50,271920,120
58,50,272040,120
54,59,272160,120
58,49,272280,120
49,49,272400,120
58,49,272520,120
41,55,272640,120
59,50,272760,120
49,50,272880,120
59,50,273000,120
56,59,273120,120
59,50,273240,120
49,50,273360,120
59,50,273480,120
41,59,273600,120
59,50,273720,120
49,50,273840,120
59,50,273960,120
56,59,274080,120
59,49,274200,120
49,49,274320,120
59,49,274440,120
42,50,274560,120
58,42,274680,120
49,42,274800,120
58,42,274920,120
54,54,275040,120
58,46,275160,120
49,42,275280,120
58,42,275400,120
36,52,275520,120
48,39,275640,120
51,39,275760,120
48,39,275880,120
56,51,276000,120
48,33,276120,120
57,33,276240,120
48,33,276360,120
37,44,276480,120
49,34,276600,120
53,35,276720,120
49,35,276840,120
56,35,276960,120
49,31,277080,120
59,31,277200,120
49,31,277320,120
42,35,277440,120
49,29,277560,120
58,29,277680,120
54,29,277800,120
49,35,277920,120
54,31,278040,120
49,31,278160,120
46,31,278280,120
42,45,278400,180
49,37,278580,60
58,50,278640,420
54,34,279060,60
58,46,279120,480
54,40,279600,240
49,40,279840,240
46,40,280080,240
41,54,280320,180
49,43,280500,60
59,54,280560,420
56,44,280980,60
59,55,281040,480
56,45,281520,240
53,45,281760,240
49,46,282000,240
42,60,282240,180
49,48,282420,60
58,60,282480,420
54,48,282900,60
58,60,282960,480
47,48,283200,960
56,48,283440,240
51,48,283680,240
56,48,283920,240
48,48,284160,480
56,57,284160,240
60,48,284400,240
63,53,284640,240
56,45,284640,480
66,60,284880,240
61,52,285120,960
65,62,285120,240
68,58,285360,240
70,63,285600,240
71,68,285840,240
42,60,286080,120
58,55,286200,120
49,55,286320,120
58,55,286440,120
54,64,286560,120
58,55,286680,120
49,55,286800,120
58,55,286920,120
42,64,287040,120
58,55,287160,120
49,55,287280,120
58,55,287400,120
54,64,287520,120
58,53,287640,120
49,53,287760,120
58,53,287880,120
41,60,288000,120
59,55,288120,120
49,55,288240,120
59,55,288360,120
56,64,288480,120
59,55,288600,120
49,55,288720,120
59,55,288840,120
41,64,288960,120
59,55,289080,120
49,55,289200,120
59,55,289320,120
56,64,289440,120
59,53,289560,120
49,53,289680,120
59,53,289800,120
42,55,289920,120
58,46,290040,120
49,45,290160,120
58,45,290280,120
54,52,290400,120
58,44,290520,120
49,40,290640,120
58,40,290760,120
36,54,290880,120
48,40,291000,120
51,40,291120,120
48,40,291240,120
56,52,291360,120
48,33,291480,120
57,33,291600,120
48,33,291720,120
37,44,291840,120
49,34,291960,120
53,35,292080,120
49,35,292200,120
56,35,292320,120
49,31,292440,120
59,31,292560,120
49,31,292680,120
42,35,292800,120
49,29,292920,120
58,29,293040,120
54,29,293160,120
49,35,293280,120
54,31,293400,120
49,31,293520,120
46,31,293640,120
46,60,293940,480
58,72,294000,420
46,63,294420,540
58,73,294480,480
54,55,294960,180
42,46,294960,180
39,50,295200,180
51,59,295200,180
34,44,295440,180
46,52,295440,180
46,60,295860,480
58,72,295920,420
45,63,296340,300
57,73,296400,240
44,59,296640,240
56,73,296640,240
39,46,296880,180
51,55,296880,180
36,50,297120,180
48,59,297120,180
30,44,297360,180
42,52,297360,180
41,57,297600,120
53,34,297720,120
49,35,297840,120
44,29,297840,120
53,35,297960,120
43,39,298080,120
53,35,298200,120
44,29,298320,120
49,35,298320,120
53,35,298440,120
42,39,298560,120
51,34,298680,120
49,34,298800,120
46,28,298800,120
51,34,298920,120
45,38,299040,120
54,34,299160,120
46,28,299280,120
49,34,299280,120
54,34,299400,120
44,44,299520,120
56,34,299640,120
49,29,299760,120
53,35,299760,120
56,35,299880,120
44,35,300000,120
56,31,300120,120
48,26,300240,120
54,31,300240,120
56,31,300360,120
37,35,300480,120
49,26,300600,120
56,26,300720,120
53,22,300720,120
49,26,300840,120
58,37,300960,120
54,31,300960,120
49,30,301080,120
59,30,301200,120
56,25,301200,120
49,30,301320,120
42,45,301440,180
49,37,301620,60
58,50,301680,420
54,34,302100,60
58,46,302160,480
54,45,302640,240
49,49,302880,240
46,52,303120,240
35,54,303360,135
47,60,303540,60
51,66,303600,420
47,59,304020,60
51,70,304080,480
48,62,304560,180
45,53,304800,180
36,51,305040,180
51,50,305280,120
60,42,305400,120
54,42,305520,120
57,42,305520,120
60,42,305640,120
53,54,305760,120
60,46,305880,120
54,42,306000,120
57,42,306000,120
60,42,306120,120
49,52,306240,120
61,39,306360,120
54,39,306480,120
58,39,306480,120
61,39,306600,120
53,51,306720,120
61,33,306840,120
58,33,306960,120
54,33,306960,120
61,33,307080,120
37,44,307200,90
49,34,307320,120
53,35,307440,120
49,35,307560,120
56,35,307680,120
49,31,307800,120
59,31,307920,120
49,31,308040,120
42,35,308160,90
49,29,308280,120
58,29,308400,120
54,29,308520,120
49,35,308640,120
54,31,308760,120
49,31,308880,120
46,31,309000,120
46,60,309300,480
58,72,309360,420
46,63,309780,540
58,73,309840,480
42,46,310320,180
54,55,310320,180
39,50,310560,180
51,59,310560,180
34,44,310800,180
46,52,310800,180
46,60,311220,480
58,72,311280,420
45,63,311700,300
57,73,311760,240
44,65,312000,240
56,73,312000,240
39,46,312240,180
51,55,312240,180
36,50,312480,180
48,59,312480,180
42,52,312720,180
30,44,312720,180
41,57,312960,120
53,34,313080,120
49,35,313200,120
44,29,313200,120
53,35,313320,120
43,39,313440,120
53,35,313560,120
49,35,313680,120
44,29,313680,120
53,35,313800,120
42,39,313920,120
51,34,314040,120
46,28,314160,120
49,34,314160,120
51,34,314280,120
45,38,314400,120
54,34,314520,120
46,28,314640,120
49,34,314640,120
54,34,314760,120
44,44,314880,120
56,34,315000,120
53,35,315120,120
49,29,315120,120
56,35,315240,120
44,35,315360,120
56,31,315480,120
48,26,315600,120
54,31,315600,120
56,31,315720,120
37,35,315840,120
49,26,315960,120
56,26,316080,120
53,22,316080,120
49,26,316200,120
54,31,316320,120
58,37,316320,120
49,30,316440,120
59,30,316560,120
56,25,316560,120
49,30,316680,120
42,45,316800,180
49,37,316980,60
58,50,317040,420
54,34,317460,60
58,46,317520,480
54,45,318000,240
49,49,318240,240
46,52,318480,240
35,54,318720,180
47,60,318900,60
51,66,318960,420
47,59,319380,60
51,70,319440,480
48,62,319920,240
45,53,320160,240
36,51,320400,240
51,50,320640,120
60,42,320760,120
54,42,320880,120
57,42,320880,120
60,42,321000,120
53,54,321120,120
60,46,321240,120
57,42,321360,120
54,42,321360,120
60,42,321480,120
49,52,321600,120
61,39,321720,120
54,39,321840,120
58,39,321840,120
61,39,321960,120
53,51,322080,120
61,33,322200,120
54,33,322320,120
58,33,322320,120
61,33,322440,120
37,44,322560,90
49,34,322680,120
53,35,322800,120
49,35,322920,120
56,35,323040,120
49,31,323160,120
59,31,323280,120
49,31,323400,120
42,35,323520,90
58,29,323640,120
49,29,323760,120
58,29,323880,120
54,35,324000,120
58,31,324120,120
49,31,324240,120
58,31,324360,120
37,44,324480,90
59,32,324600,120
49,27,324720,120
53,32,324720,120
59,32,324840,120
53,35,324960,120
50,29,324960,120
59,31,325080,120
49,26,325200,120
53,31,325200,120
59,31,325320,120
42,35,325440,90
58,29,325560,120
49,29,325680,120
58,29,325800,120
54,35,325920,120
58,30,326040,120
49,30,326160,120
58,30,326280,120
37,44,326400,90
59,30,326520,120
49,30,326640,120
53,30,326640,120
59,30,326760,120
50,29,326880,120
53,35,326880,120
59,29,327000,120
53,29,327120,120
49,29,327120,120
59,31,327240,120
42,35,327360,90
58,29,327480,120
49,29,327600,120
58,29,327720,120
54,35,327840,120
58,29,327960,120
49,29,328080,120
58,29,328200,120
42,35,328320,90
58,28,328440,120
49,28,328560,120
58,28,328680,120
54,35,328800,120
58,31,328920,120
49,31,329040,120
58,31,329160,120
42,40,329280,90
58,36,329400,120
49,36,329520,120
58,36,329640,120
54,35,329760,120
58,31,329880,120
49,31,330000,120
58,31,330120,120
41,35,330240,90
58,28,330360,120
50,28,330480,120
58,28,330600,120
53,35,330720,120
58,31,330840,120
50,31,330960,120
58,31,331080,120
41,40,331200,90
58,36,331320,120
50,36,331440,120
58,36,331560,120
53,35,331680,120
58,29,331800,120
50,29,331920,120
58,29,332040,120
41,35,332160,90
57,28,332280,120
51,28,332400,120
57,28,332520,120
53,35,332640,120
57,29,332760,120
51,29,332880,120
57,29,333000,120
41,36,333120,90
57,30,333240,120
51,30,333360,120
57,26,333480,120
53,33,333600,360
57,23,333720,240
51,23,333840,120
46,40,334080,120
62,34,334320,480
58,28,334320,480
53,28,334320,480
53,28,334800,240
58,28,334800,240
62,34,334800,240
50,40,335040,120
53,24,335280,480
58,24,335280,480
65,29,335280,480
53,24,335760,240
58,24,335760,240
65,29,335760,240
48,40,336000,120
63,34,336240,480
57,28,336240,480
53,28,336240,480
53,28,336720,240
57,28,336720,240
63,34,336720,240
41,40,336960,120
53,24,337200,480
57,24,337200,480
60,29,337200,480
53,24,337680,240
57,24,337680,240
60,29,337680,240
46,40,337920,120
62,34,338160,480
58,28,338160,480
53,28,338160,480
53,28,338640,240
58,28,338640,240
62,34,338640,240
39,40,338880,120
58,24,339120,480
51,24,339120,480
55,24,339120,480
60,29,339120,480
58,24,339600,240
51,24,339600,240
55,24,339600,240
60,29,339600,240
40,40,339840,120
58,28,340080,480
60,34,340080,480
55,28,340080,480
52,28,340080,480
48,34,340560,240
41,40,340800,120
53,31,341040,720
60,31,341040,240
57,31,341040,240
62,31,341280,240
58,31,341280,240
57,31,341520,240
63,31,341520,240
46,40,341760,120
62,34,342000,480
58,28,342000,480
53,28,342000,480
53,28,342480,240
58,28,342480,240
62,34,342480,240
50,40,342720,120
53,24,342960,480
58,24,342960,480
65,29,342960,480
53,24,343440,240
58,24,343440,240
65,29,343440,240
48,40,343680,120
63,34,343920,480
57,28,343920,480
53,28,343920,480
53,28,344400,240
57,28,344400,240
63,34,344400,240
41,40,344640,120
57,24,344880,480
53,24,344880,480
60,29,344880,480
60,29,345360,240
53,24,345360,240
57,24,345360,240
46,40,345600,120
62,34,345840,480
58,28,345840,480
53,28,345840,480
53,28,346320,240
58,28,346320,240
62,34,346320,240
52,40,346560,120
61,24,346800,480
58,24,346800,480
67,29,346800,480
58,24,347280,240
55,24,347280,240
61,29,347280,240
41,40,347520,120
58,31,347760,240
53,31,347760,720
60,31,347760,480
57,31,348000,240
63,31,348240,240
60,31,348240,240
46,40,348480,120
62,31,348720,720
58,31,348720,720
46,40,349440,120
62,34,349680,480
58,28,349680,480
53,28,349680,480
53,28,350160,240
58,28,350160,240
62,34,350160,240
50,40,350400,120
53,24,350640,480
58,24,350640,480
65,29,350640,480
53,24,351120,240
58,24,351120,240
65,29,351120,240
48,40,351360,120
63,34,351600,480
57,28,351600,480
53,28,351600,480
63,34,352080,240
53,28,352080,240
57,28,352080,240
41,40,352320,120
60,29,352560,480
53,24,352560,480
57,24,352560,480
57,24,353040,240
60,29,353040,240
53,24,353040,240
46,40,353280,120
62,34,353520,480
53,28,353520,480
58,28,353520,480
53,28,354000,240
58,28,354000,240
62,34,354000,240
39,40,354240,120
51,24,354480,480
58,24,354480,480
55,24,354480,480
60,29,354480,480
51,24,354960,240
55,24,354960,240
58,24,354960,240
60,29,354960,240
40,40,355200,120
60,34,355440,480
58,28,355440,480
52,28,355440,480
55,28,355440,480
48,34,355920,240
41,40,356160,120
53,31,356400,720
57,31,356400,240
60,31,356400,240
58,31,356640,240
62,31,356640,240
63,31,356880,240
57,31,356880,240
46,40,357120,120
62,34,357360,480
58,28,357360,480
53,28,357360,480
53,28,357840,240
58,28,357840,240
62,34,357840,240
50,40,358080,120
58,24,358320,480
53,24,358320,480
65,29,358320,480
58,24,358800,240
53,24,358800,240
65,29,358800,240
48,40,359040,120
57,28,359280,480
53,28,359280,480
63,34,359280,480
57,28,359760,240
53,28,359760,240
63,34,359760,240
41,40,360000,120
57,24,360240,480
53,24,360240,480
60,29,360240,480
57,24,360720,240
60,29,360720,240
53,24,360720,240
46,40,360960,120
58,28,361200,480
62,34,361200,480
53,28,361200,480
53,28,361680,240
58,28,361680,240
62,34,361680,240
52,40,361920,120
61,24,362160,480
58,24,362160,480
67,29,362160,480
58,24,362640,240
55,24,362640,240
61,29,362640,240
41,40,362880,120
58,31,363120,240
53,31,363120,720
60,31,363120,480
57,31,363360,240
60,31,363600,240
63,31,363600,240
46,40,363840,120
58,31,364080,720
62,31,364080,720
38,51,364800,80
40,48,364880,80
42,46,364960,80
43,53,365040,80
45,54,365120,80
46,49,365200,80
48,55,365280,80
50,52,365360,80
52,53,365440,80
54,57,365520,80
55,54,365600,80
57,54,365680,80
58,63,365760,80
62,54,365840,80
58,54,365920,80
55,62,366000,80
58,53,366080,80
55,53,366160,80
50,65,366240,80
55,53,366320,80
50,53,366400,80
46,65,366480,80
50,51,366560,80
46,51,366640,80
43,51,366720,80
45,48,366800,80
46,46,366880,80
48,53,366960,80
50,54,367040,80
52,49,367120,80
54,55,367200,80
55,52,367280,80
56,53,367360,80
57,57,367440,80
58,54,367520,80
59,54,367600,80
60,63,367680,80
64,54,367760,80
60,54,367840,80
55,62,367920,80
60,53,368000,80
55,53,368080,80
52,65,368160,80
55,53,368240,80
52,53,368320,80
48,65,368400,240
45,51,368640,80
48,41,368720,80
53,44,368800,80
57,47,368880,80
60,50,368960,80
65,53,369040,80
69,56,369120,240
46,51,369600,80
50,41,369680,80
55,44,369760,80
58,47,369840,80
62,50,369920,80
67,53,370000,80
70,56,370080,240
48,59,370560,120
65,40,370800,120
60,34,370800,120
57,34,370800,120
48,46,371040,120
64,42,371280,120
60,35,371280,120
58,35,371280,120
41,40,371520,120
53,31,371760,720
60,31,371760,240
57,31,371760,240
62,31,372000,240
58,31,372000,240
57,31,372240,240
63,31,372240,240
46,40,372480,120
62,34,372720,480
58,28,372720,480
53,28,372720,480
53,28,373200,240
58,28,373200,240
62,34,373200,240
50,40,373440,120
56,24,373680,480
58,24,373680,480
65,29,373680,480
56,24,374160,240
58,24,374160,240
65,29,374160,240
51,40,374400,120
63,34,374640,480
58,28,374640,480
55,28,374640,480
55,28,375120,240
58,28,375120,240
63,34,375120,240
52,40,375360,120
58,24,375600,480
61,24,375600,480
67,29,375600,480
58,24,376080,240
61,24,376080,240
67,29,376080,240
55,40,376320,120
64,34,376560,480
60,28,376560,480
58,28,376560,480
64,34,377040,240
58,28,377040,240
60,28,377040,240
53,40,377280,120
62,24,377520,480
58,24,377520,480
65,29,377520,480
62,24,378000,240
58,24,378000,240
65,29,378000,240
41,40,378240,120
57,31,378480,480
53,31,378480,480
63,31,378480,480
53,31,378960,240
57,31,378960,240
63,31,378960,240
46,40,379200,120
58,31,379440,720
62,31,379440,720
38,51,380160,80
40,48,380240,80
42,46,380320,80
43,53,380400,80
45,54,380480,80
46,49,380560,80
48,55,380640,80
50,52,380720,80
52,53,380800,80
54,57,380880,80
55,54,380960,80
57,54,381040,80
58,63,381120,80
62,54,381200,80
58,54,381280,80
55,62,381360,80
58,53,381440,80
55,53,381520,80
50,65,381600,80
55,53,381680,80
50,53,381760,80
46,65,381840,80
50,51,381920,80
46,51,382000,80
43,51,382080,80
45,48,382160,80
46,46,382240,80
48,53,382320,80
50,54,382400,80
52,49,382480,80
54,55,382560,80
55,52,382640,80
56,53,382720,80
57,57,382800,80
58,54,382880,80
59,54,382960,80
60,63,383040,80
64,54,383120,80
60,54,383200,80
55,62,383280,80
60,53,383360,80
55,53,383440,80
52,65,383520,80
55,53,383600,80
52,53,383680,80
48,65,383760,240
45,51,384000,80
48,41,384080,80
53,44,384160,80
57,47,384240,80
60,50,384320,80
65,53,384400,80
69,56,384480,240
46,51,384960,80
50,41,385040,80
55,44,385120,80
58,47,385200,80
62,50,385280,80
67,53,385360,80
70,56,385440,240
48,59,385920,120
65,40,386160,120
60,34,386160,120
57,34,386160,120
48,46,386400,120
64,42,386640,120
60,35,386640,120
58,35,386640,120
41,40,386880,120
53,31,387120,720
60,31,387120,240
57,31,387120,240
62,31,387360,240
58,31,387360,240
57,31,387600,240
63,31,387600,240
46,40,387840,120
53,28,388080,480
62,34,388080,480
58,28,388080,480
53,28,388560,240
58,28,388560,240
62,34,388560,240
50,40,388800,120
56,24,389040,480
58,24,389040,480
65,29,389040,480
56,24,389520,240
58,24,389520,240
65,29,389520,240
51,40,389760,120
63,34,390000,480
58,28,390000,480
55,28,390000,480
55,28,390480,240
58,28,390480,240
63,34,390480,240
52,40,390720,120
58,24,390960,480
61,24,390960,480
67,29,390960,480
58,24,391440,240
61,24,391440,240
67,29,391440,240
55,40,391680,120
60,28,391920,480
64,34,391920,480
58,28,391920,480
58,28,392400,240
60,28,392400,240
64,34,392400,240
53,40,392640,120
62,24,392880,480
58,24,392880,480
65,29,392880,480
62,24,393360,240
58,24,393360,240
65,29,393360,240
41,40,393600,120
57,31,393840,480
53,31,393840,480
63,31,393840,480
53,31,394320,240
57,31,394320,240
63,31,394320,240
41,40,394560,120
62,31,394800,480
53,31,394800,480
58,31,394800,480
53,31,395280,240
58,31,395280,240
62,31,395280,240
41,34,395520,120
53,26,395760,480
51,26,395760,480
57,26,395760,480
51,26,396240,240
53,26,396240,240
57,26,396240,240
41,34,396480,120
50,26,396720,480
53,26,396720,480
58,26,396720,480
50,26,397200,240
53,26,397200,240
58,26,397200,240
29,28,397440,120
48,22,397680,480
41,22,397680,480
51,22,397680,480
41,30,399120,240
34,31,399360,432
41,31,399360,432
46,37,399360,432
34,29,399840,216
41,29,399840,216
46,35,399840,216
34,29,400080,216
41,29,400080,216
46,35,400080,216
38,31,400320,432
41,37,400320,432
38,28,400800,432
41,34,400800,432
36,30,401280,432
41,30,401280,432
48,36,401280,432
36,27,401760,216
41,27,401760,216
48,32,401760,216
36,31,402000,216
41,31,402000,216
48,37,402000,216
54,45,402240,480
42,37,402240,480
33,37,402240,960
45,45,402240,960
53,38,402720,480
41,32,402720,480
34,30,403200,432
41,30,403200,432
46,36,403200,432
31,27,403680,216
43,32,403680,216
31,31,403920,216
43,37,403920,216
43,37,404160,960
36,37,404160,960
48,45,404160,960
29,35,405120,960
41,42,405120,960
34,27,406080,960
41,27,406080,960
46,32,406080,960
46,30,407040,432
53,30,407040,432
58,36,407040,432
43,27,407520,216
55,32,407520,216
43,31,407760,216
55,37,407760,216
55,37,408000,960
48,37,408000,960
60,45,408000,960
41,35,408960,960
53,42,408960,960
46,27,409920,960
53,27,409920,960
58,32,409920,960
53,35,410880,1920
60,35,410880,1920
63,35,410880,1920
65,42,410880,2400
62,25,412800,480
58,25,412800,480
46,25,413760,480
53,25,413760,480
58,25,413760,480
46,20,414720,1920
53,20,414720,1920
58,25,414720,1920
