note,velocity,position,duration
70,48,1860,60
68,56,1920,120
68,50,2160,120
70,50,2280,120
68,55,2400,120
67,52,2640,120
68,48,2760,60
70,48,2820,60
68,51,2880,360
72,57,2880,360
68,48,3240,60
70,48,3300,60
68,50,3360,420
72,56,3360,420
70,48,3780,60
68,56,3840,120
68,51,4080,120
70,51,4200,120
68,55,4320,120
67,45,4560,120
72,51,4560,120
72,48,4740,60
77,60,4800,420
68,54,4800,420
72,48,5220,60
68,52,5280,480
77,58,5280,480
78,43,5700,60
68,52,5760,240
77,52,5760,240
68,40,6000,240
77,45,6000,120
78,45,6120,120
69,43,6240,240
77,48,6240,240
69,40,6480,240
77,45,6480,240
70,43,6720,360
77,48,6720,240
82,43,6960,120
68,37,7200,480
77,42,7200,480
68,37,7680,132
72,42,7680,132
67,35,7800,132
70,39,7800,132
65,35,7920,132
68,39,7920,132
67,35,8040,132
70,39,8040,132
68,37,8160,240
72,42,8160,120
73,39,8280,120
70,39,8400,240
67,35,8400,240
72,39,8400,120
76,39,8520,120
77,43,8640,480
72,38,8640,480
68,38,8640,480
68,38,9120,400
72,38,9120,400
77,43,9120,400
70,48,9540,60
68,56,9600,120
68,50,9840,120
70,50,9960,120
68,55,10080,120
67,52,10320,120
68,48,10440,60
70,48,10500,60
68,51,10560,360
72,57,10560,360
68,48,10920,60
70,48,10980,60
68,51,11040,420
72,57,11040,420
70,48,11460,60
68,56,11520,120
68,51,11760,120
70,51,11880,120
68,55,12000,120
67,45,12240,120
72,51,12240,120
72,48,12420,60
77,60,12480,420
68,54,12480,420
72,48,12900,60
68,52,12960,480
77,58,12960,480
78,43,13380,60
68,46,13440,240
77,52,13440,240
68,40,13680,240
77,45,13680,120
78,45,13800,120
69,43,13920,240
77,48,13920,240
69,40,14160,240
77,45,14160,240
70,43,14400,360
77,48,14400,240
82,43,14640,120
68,37,14880,480
77,42,14880,480
68,37,15360,132
72,42,15360,132
67,35,15480,132
70,39,15480,132
65,35,15600,132
68,39,15600,132
67,35,15720,132
70,39,15720,132
68,42,15840,240
72,42,15840,120
73,39,15960,120
70,39,16080,240
67,35,16080,240
72,39,16080,120
76,39,16200,120
77,43,16320,480
72,38,16320,480
68,38,16320,480
68,38,16800,480
72,38,16800,480
77,43,16800,480
72,57,17280,480
72,57,17760,480
72,50,18240,132
73,51,18360,132
75,55,18480,132
73,52,18600,120
73,52,18720,360
72,49,19080,60
72,43,19170,30
70,52,19200,120
70,48,19440,120
72,51,19680,120
70,49,19800,120
68,46,19920,120
70,50,20040,120
70,54,20160,480
72,54,20640,420
75,46,21060,60
80,57,21120,420
72,51,21120,420
75,45,21540,60
72,56,21600,480
80,56,21600,480
75,45,22080,132
79,50,22080,132
73,45,22200,132
77,50,22200,132
72,40,22320,132
76,45,22320,132
73,40,22440,120
77,45,22440,120
73,45,22560,480
77,50,22560,480
67,49,23040,240
73,49,23040,240
77,55,23040,120
75,46,23160,120
75,46,23280,480
73,46,23280,480
67,46,23280,120
68,46,23400,120
70,52,23520,240
68,42,23760,120
73,42,23760,240
75,42,23760,240
67,42,23880,120
68,35,24000,480
72,35,24000,480
75,39,24000,480
75,39,24480,480
72,35,24480,480
68,35,24480,480
72,57,24960,480
72,57,25440,480
72,50,25920,132
73,51,26040,132
75,55,26160,132
73,52,26280,120
73,52,26400,360
72,49,26760,60
72,43,26850,30
70,52,26880,240
70,48,27120,240
72,51,27360,120
70,49,27480,120
68,46,27600,120
70,50,27720,120
70,54,27840,480
72,54,28320,420
75,46,28740,60
80,57,28800,420
72,51,28800,420
75,45,29220,60
72,56,29280,480
80,56,29280,480
75,45,29760,132
79,50,29760,132
73,45,29880,132
77,50,29880,132
72,40,30000,132
76,45,30000,132
73,40,30120,120
77,45,30120,120
73,45,30240,480
77,50,30240,480
67,49,30720,240
73,49,30720,240
77,55,30720,120
75,46,30840,120
75,46,30960,480
73,46,30960,480
67,46,30960,120
68,46,31080,120
70,52,31200,240
68,42,31440,120
73,42,31440,240
75,42,31440,240
67,42,31560,120
68,35,31680,480
72,35,31680,480
75,39,31680,480
75,39,32160,480
72,35,32160,480
68,35,32160,480
76,64,32640,480
72,57,32640,480
70,57,32640,480
67,57,32640,480
76,64,33120,420
72,57,33120,420
70,57,33120,420
67,57,33120,420
77,56,33540,60
68,54,33600,240
72,54,33600,240
80,69,33600,240
68,48,33840,720
72,48,33840,720
80,66,33840,120
79,67,33960,120
77,67,34080,240
75,63,34320,120
73,63,34440,120
67,57,34560,480
70,57,34560,480
72,64,34560,480
67,57,35040,420
70,57,35040,420
72,57,35040,420
76,64,35040,420
77,57,35460,60
68,55,35520,240
72,55,35520,240
80,73,35520,240
68,46,35760,720
72,46,35760,720
80,62,35760,120
79,62,35880,120
77,62,36000,240
75,56,36240,120
73,56,36360,120
68,45,36480,480
72,51,36480,480
66,49,36960,480
72,55,36960,480
72,57,37440,132
65,51,37440,480
73,60,37560,132
75,62,37680,132
73,58,37800,120
65,52,37920,240
73,58,37920,240
63,46,38160,120
72,52,38160,120
61,45,38280,120
70,50,38280,120
60,43,38400,240
68,48,38400,240
60,43,38640,240
68,48,38640,240
60,38,38880,132
68,43,38880,132
61,39,39000,132
70,44,39000,132
63,40,39120,132
72,45,39120,132
61,39,39240,132
70,44,39240,132
60,38,39360,480
68,43,39360,480
60,38,39840,480
68,43,39840,480
76,64,40320,480
72,57,40320,480
70,57,40320,480
67,57,40320,480
76,64,40800,420
72,57,40800,420
70,57,40800,420
67,57,40800,420
77,56,41220,60
68,54,41280,240
72,54,41280,240
80,69,41280,240
68,48,41520,720
72,48,41520,720
80,66,41520,120
79,67,41640,120
77,67,41760,240
75,63,42000,120
73,63,42120,120
67,57,42240,480
70,57,42240,480
72,64,42240,480
67,57,42720,420
70,57,42720,420
72,57,42720,420
76,64,42720,420
77,57,43140,60
68,55,43200,240
72,55,43200,240
80,73,43200,240
68,46,43440,720
72,46,43440,720
80,62,43440,120
79,62,43560,120
77,62,43680,240
75,56,43920,120
73,56,44040,120
68,45,44160,480
72,51,44160,480
66,49,44640,480
72,55,44640,480
72,57,45120,132
65,51,45120,480
73,60,45240,132
75,62,45360,132
73,58,45480,120
65,52,45600,240
73,58,45600,240
63,46,45840,132
72,52,45840,132
61,45,45960,132
70,50,45960,132
60,43,46080,240
68,48,46080,240
60,43,46320,240
68,48,46320,240
60,38,46560,132
68,43,46560,132
61,39,46680,132
70,44,46680,132
63,40,46800,132
72,45,46800,132
61,39,46920,132
70,44,46920,132
60,38,47040,480
68,43,47040,480
60,38,47520,420
68,43,47520,420
70,48,47940,60
68,46,48000,120
68,40,48240,120
70,40,48360,120
68,45,48480,120
67,43,48720,120
68,39,48840,60
70,39,48900,60
68,40,48960,360
72,45,48960,360
68,39,49320,60
70,39,49380,60
68,40,49440,420
72,45,49440,420
70,39,49860,60
68,46,49920,120
68,42,50160,120
70,42,50280,120
68,45,50400,120
67,37,50640,120
72,42,50640,120
72,39,50820,60
77,49,50880,420
68,44,50880,420
72,39,51300,60
68,43,51360,480
77,48,51360,480
78,34,51780,60
68,38,51840,240
77,43,51840,240
68,33,52080,240
77,37,52080,120
78,37,52200,120
69,35,52320,240
77,39,52320,240
69,33,52560,240
77,37,52560,240
70,35,52800,360
77,39,52800,240
82,34,53040,120
68,29,53280,480
77,33,53280,480
68,29,53760,132
72,33,53760,132
67,27,53880,132
70,31,53880,132
65,27,54000,132
68,31,54000,132
67,27,54120,120
70,31,54120,120
68,29,54240,240
72,33,54240,120
73,31,54360,120
70,27,54480,240
67,27,54480,240
72,31,54480,120
76,31,54600,120
77,34,54720,480
72,30,54720,480
68,30,54720,480
68,30,55200,400
72,30,55200,400
77,34,55200,400
80,34,55620,60
76,35,55680,240
79,39,55680,240
76,33,55920,480
79,37,55920,120
80,37,56040,120
79,39,56160,240
79,40,56400,240
76,36,56400,240
77,40,56640,720
82,45,56640,240
80,43,56880,480
79,39,57360,120
77,39,57480,60
73,34,57540,60
68,38,57600,120
72,43,57600,120
68,35,57840,480
72,39,57840,120
73,39,57960,120
72,39,58080,240
67,32,58320,120
70,32,58320,120
72,32,58320,120
76,36,58320,120
68,37,58560,480
72,37,58560,480
77,42,58560,480
68,37,59040,420
72,37,59040,420
77,42,59040,420
80,30,59460,60
76,30,59520,240
79,34,59520,240
76,28,59760,480
79,32,59760,120
80,32,59880,120
79,34,60000,240
79,36,60240,240
76,32,60240,240
77,34,60480,720
82,38,60480,240
80,36,60720,480
79,34,61200,120
77,34,61320,60
74,31,61380,60
69,34,61440,120
72,38,61440,120
69,30,61680,480
72,34,61680,120
74,34,61800,120
72,34,61920,240
70,30,62160,180
74,34,62160,180
74,31,62340,60
69,34,62400,120
72,38,62400,120
69,30,62640,480
72,34,62640,120
74,34,62760,120
72,34,62880,240
70,30,63120,180
74,34,63120,180
74,31,63300,60
69,34,63360,120
72,38,63360,120
69,30,63600,480
72,34,63600,120
74,34,63720,120
72,34,63840,240
70,34,64080,240
76,38,64080,240
69,37,64320,480
77,42,64320,480
69,37,64800,420
77,42,64800,420
74,38,65220,60
69,37,65280,240
72,42,65280,240
69,35,65520,480
72,39,65520,120
74,39,65640,120
72,42,65760,240
65,32,66000,240
69,36,66000,240
64,35,66240,480
70,39,66240,480
64,35,66720,420
70,39,66720,420
72,37,67140,60
64,37,67200,240
70,42,67200,240
70,38,67440,120
64,34,67440,480
72,39,67560,120
70,42,67680,240
58,33,67920,240
64,37,67920,240
57,27,68160,480
65,31,68160,480
57,27,68640,420
65,31,68640,420
74,30,69060,60
69,29,69120,240
72,33,69120,240
69,27,69360,480
72,31,69360,120
74,31,69480,120
72,33,69600,240
63,25,69840,240
69,28,69840,240
64,27,70080,480
70,31,70080,480
64,27,70560,420
70,31,70560,420
72,28,70980,60
64,29,71040,240
70,33,71040,240
70,30,71280,120
64,27,71280,480
72,31,71400,120
70,33,71520,240
58,23,71760,240
64,26,71760,240
57,21,72000,480
65,24,72000,480
57,18,72480,480
65,21,72480,480
57,18,72960,480
65,21,72960,480
57,17,73440,480
65,19,73440,480
57,16,73920,960
65,18,73920,960
53,34,0,90
65,27,240,90
60,22,240,90
53,34,480,90
65,27,720,90
60,22,720,90
53,34,960,90
65,27,1200,90
60,22,1200,90
53,34,1440,90
65,25,1680,90
60,20,1680,90
53,34,1920,90
65,27,2160,90
60,23,2160,90
53,34,2400,90
64,27,2640,90
60,22,2640,90
53,37,2880,90
65,27,3120,90
60,23,3120,90
53,37,3360,90
65,28,3600,90
60,24,3600,90
53,34,3840,90
65,28,4080,90
60,24,4080,90
53,34,4320,90
64,28,4560,90
60,24,4560,90
53,38,4800,90
65,29,5040,90
60,25,5040,90
53,38,5280,90
65,29,5520,90
60,25,5520,90
49,32,5760,120
65,27,6000,120
61,22,6000,120
48,32,6240,120
65,27,6480,120
63,22,6480,120
60,22,6480,120
46,32,6720,240
65,25,6960,120
61,20,6960,120
58,20,6960,120
53,30,7200,240
65,25,7440,240
60,20,7440,240
48,30,7680,90
65,27,7920,90
60,22,7920,90
48,29,8160,90
64,25,8400,90
60,20,8400,90
53,32,8640,120
65,27,8880,120
60,22,8880,120
53,29,9120,120
65,27,9360,120
60,23,9360,120
53,34,9600,90
65,27,9840,90
60,23,9840,90
53,34,10080,90
64,27,10320,90
60,22,10320,90
53,36,10560,90
65,29,10800,90
60,25,10800,90
53,32,11040,90
65,28,11280,90
60,24,11280,90
53,34,11520,90
65,28,11760,90
60,24,11760,90
53,32,12000,90
64,28,12240,90
60,24,12240,90
53,38,12480,90
65,29,12720,90
60,25,12720,90
53,38,12960,90
65,29,13200,90
60,25,13200,90
49,32,13440,120
65,27,13680,120
61,22,13680,120
48,32,13920,120
65,27,14160,120
63,22,14160,120
60,22,14160,120
46,32,14400,240
65,25,14640,120
61,20,14640,120
58,20,14640,120
53,29,14880,240
65,25,15120,240
60,20,15120,240
48,30,15360,90
65,27,15600,90
60,22,15600,90
48,29,15840,90
64,25,16080,90
60,20,16080,90
53,32,16320,120
65,27,16560,120
60,22,16560,120
53,29,16800,120
65,27,17040,120
60,23,17040,120
56,30,17280,120
60,23,17520,120
63,23,17520,120
68,27,17520,120
56,29,17760,120
60,23,18000,120
63,23,18000,120
68,27,18000,120
56,32,18240,120
67,27,18480,120
63,23,18480,120
58,23,18480,120
56,28,18720,120
67,27,18960,120
63,22,18960,120
58,22,18960,120
56,29,19200,120
67,27,19440,120
63,22,19440,120
61,22,19440,120
56,29,19680,120
67,27,19920,120
63,22,19920,120
61,22,19920,120
56,32,20160,120
68,27,20400,120
63,23,20400,120
60,23,20400,120
56,29,20640,120
68,27,20880,120
63,23,20880,120
60,23,20880,120
56,34,21120,240
68,28,21360,240
60,24,21360,240
63,24,21360,240
56,32,21600,240
68,29,21840,240
63,25,21840,240
60,25,21840,240
49,29,22080,90
65,27,22320,90
61,23,22320,90
49,30,22560,90
65,27,22800,90
61,23,22800,90
51,29,23040,90
63,27,23280,90
61,22,23280,90
58,22,23280,90
51,29,23520,90
61,22,23760,90
63,27,23760,90
58,22,23760,90
56,29,24000,240
63,25,24240,240
60,20,24240,240
56,28,24480,240
63,25,24720,240
60,20,24720,240
56,30,24960,120
60,23,25200,120
63,23,25200,120
68,27,25200,120
56,29,25440,120
60,23,25680,120
63,23,25680,120
68,27,25680,120
56,32,25920,120
67,27,26160,120
63,23,26160,120
58,23,26160,120
56,28,26400,120
67,27,26640,120
63,22,26640,120
58,22,26640,120
56,29,26880,120
67,27,27120,120
63,22,27120,120
61,22,27120,120
56,29,27360,120
67,27,27600,120
63,22,27600,120
61,22,27600,120
56,32,27840,120
68,27,28080,120
63,23,28080,120
60,23,28080,120
56,29,28320,120
68,27,28560,120
63,23,28560,120
60,23,28560,120
56,34,28800,240
68,28,29040,240
60,24,29040,240
63,24,29040,240
56,32,29280,240
68,29,29520,240
63,25,29520,240
60,25,29520,240
49,29,29760,90
65,27,30000,90
61,23,30000,90
49,30,30240,90
65,27,30480,90
61,23,30480,90
51,29,30720,90
63,27,30960,90
61,22,30960,90
58,22,30960,90
51,29,31200,90
61,22,31440,90
63,27,31440,90
58,22,31440,90
56,29,31680,240
63,25,31920,240
60,20,31920,240
56,28,32160,240
63,25,32400,240
60,20,32400,240
48,51,32640,120
64,45,32880,120
60,38,32880,120
48,51,33120,120
64,45,33360,120
60,38,33360,120
48,46,33600,120
65,37,33840,120
60,31,33840,120
48,46,34080,120
65,37,34320,120
60,31,34320,120
48,52,34560,120
64,48,34800,120
60,40,34800,120
48,52,35040,120
64,48,35280,120
60,40,35280,120
48,45,35520,120
65,38,35760,120
60,32,35760,120
53,45,36000,120
65,38,36240,120
60,32,36240,120
44,46,36480,120
60,40,36720,120
56,34,36720,120
45,45,36960,120
54,33,37200,120
60,39,37200,120
46,38,37440,120
58,33,37680,120
53,27,37680,120
37,38,37920,120
49,27,38160,120
53,33,38160,120
39,29,38400,120
56,25,38640,120
51,20,38640,120
39,29,38880,120
55,25,39120,120
51,20,39120,120
44,27,39360,240
56,21,39600,240
51,18,39600,240
44,27,39840,240
56,21,40080,240
51,18,40080,240
48,51,40320,120
64,45,40560,120
60,38,40560,120
48,51,40800,120
64,45,41040,120
60,38,41040,120
48,46,41280,120
65,37,41520,120
60,31,41520,120
48,46,41760,120
65,37,42000,120
60,31,42000,120
48,52,42240,120
64,48,42480,120
60,40,42480,120
48,52,42720,120
64,48,42960,120
60,40,42960,120
48,45,43200,120
65,38,43440,120
60,32,43440,120
53,45,43680,120
65,38,43920,120
60,32,43920,120
44,46,44160,120
60,40,44400,120
56,34,44400,120
45,45,44640,120
54,33,44880,120
60,39,44880,120
46,38,45120,120
58,33,45360,120
53,27,45360,120
37,38,45600,120
49,27,45840,120
53,33,45840,120
39,29,46080,120
56,25,46320,120
51,20,46320,120
39,29,46560,120
55,25,46800,120
51,20,46800,120
44,27,47040,240
56,21,47280,240
51,18,47280,240
44,27,47520,240
56,21,47760,180
51,18,47760,180
53,27,48000,90
65,22,48240,90
60,18,48240,90
53,27,48480,90
64,21,48720,90
60,18,48720,90
53,29,48960,90
65,22,49200,90
60,18,49200,90
53,29,49440,90
65,23,49680,90
60,19,49680,90
53,27,49920,90
65,23,50160,90
60,19,50160,90
53,27,50400,90
64,23,50640,90
60,19,50640,90
53,30,50880,90
65,24,51120,90
60,19,51120,90
53,30,51360,90
65,24,51600,90
60,19,51600,90
49,27,51840,240
65,21,52080,240
61,18,52080,240
48,27,52320,240
65,21,52560,240
63,18,52560,240
60,18,52560,240
46,27,52800,240
65,19,53040,240
61,16,53040,240
58,16,53040,240
53,25,53280,240
65,19,53520,240
60,16,53520,240
48,25,53760,120
65,21,54000,120
60,18,54000,120
48,24,54240,120
64,19,54480,120
60,16,54480,120
53,27,54720,120
65,21,54960,120
60,18,54960,120
53,24,55200,120
65,22,55440,120
60,18,55440,120
46,24,55680,120
61,21,55920,120
58,18,55920,120
46,24,56160,120
61,25,56400,120
58,20,56400,120
47,29,56640,240
62,27,56880,240
59,23,56880,240
47,24,57120,240
62,24,57360,120
59,19,57360,120
48,27,57600,120
65,24,57840,120
60,19,57840,120
48,27,58080,120
64,24,58320,120
60,19,58320,120
53,27,58560,240
65,23,58800,240
60,19,58800,240
53,27,59040,240
65,24,59280,240
60,19,59280,240
46,21,59520,90
61,18,59760,90
58,15,59760,90
46,21,60000,90
61,22,60240,90
58,18,60240,90
47,27,60480,240
62,24,60720,240
59,19,60720,240
47,21,60960,240
62,21,61200,120
59,18,61200,120
48,24,61440,120
65,21,61680,120
60,18,61680,120
48,24,61920,120
64,21,62160,120
60,18,62160,120
48,24,62400,120
65,21,62640,120
60,18,62640,120
48,24,62880,120
64,21,63120,120
60,18,63120,120
48,24,63360,120
65,21,63600,120
60,18,63600,120
48,24,63840,120
67,21,64080,120
60,18,64080,120
41,27,64320,240
53,21,64560,240
48,18,64560,240
41,27,64800,240
53,22,65040,240
48,18,65040,240
41,27,65280,120
53,22,65520,120
48,18,65520,120
41,27,65760,120
53,23,66000,120
48,19,66000,120
41,27,66240,240
55,23,66480,240
48,19,66480,240
41,27,66720,240
55,23,66960,240
48,19,66960,240
41,27,67200,120
55,22,67440,120
48,18,67440,120
41,27,67680,120
55,22,67920,120
48,18,67920,120
41,21,68160,240
53,17,68400,240
48,14,68400,240
41,21,68640,240
53,17,68880,240
48,14,68880,240
41,21,69120,240
53,17,69360,240
48,14,69360,240
41,21,69600,120
54,18,69840,120
48,15,69840,120
41,21,70080,240
55,18,70320,240
48,15,70320,240
41,21,70560,240
55,18,70800,240
48,15,70800,240
41,21,71040,240
55,17,71280,240
48,14,71280,240
41,21,71520,240
55,17,71760,240
49,14,71760,240
41,18,72000,240
53,13,72240,240
48,10,72240,240
41,16,72480,240
53,13,72720,240
48,10,72720,240
41,14,72960,240
53,10,73200,240
48,9,73200,240
41,13,73440,240
53,10,73680,240
48,9,73680,240
53,10,73920,960
48,9,73920,960
41,9,73920,960
