note,velocity,position,duration
69,50,1,960
76,50,960,960
75,53,1920,960
76,47,2880,200
72,49,3360,380
71,47,3720,140
69,48,3840,960
56,56,4800,960
64,56,4800,960
59,56,4800,960
60,52,5760,960
57,51,6720,180
57,50,7680,960
57,59,8640,960
65,59,8640,960
58,64,9600,960
67,64,9600,960
65,54,10560,200
57,54,10560,200
57,51,11040,380
59,54,11400,140
60,52,11520,960
59,54,12480,960
64,54,12480,960
52,54,12480,960
56,54,12480,960
60,50,13440,960
48,50,13440,960
45,50,14400,200
57,50,14400,200
57,52,18720,960
62,46,19680,480
64,49,20160,480
65,47,20640,480
64,50,21120,960
57,46,22080,200
67,44,22560,480
65,47,23040,960
57,48,24000,200
65,45,24480,480
64,50,24960,960
57,48,25920,200
57,56,26400,477
69,56,26400,960
62,56,27360,480
74,56,27360,480
76,59,27840,480
64,59,27840,480
65,54,28320,480
77,54,28320,480
64,59,28800,960
76,59,28800,960
57,56,29760,200
69,56,29760,200
76,69,30240,960
64,69,30240,960
67,74,31200,480
79,74,31200,480
69,79,31680,480
81,79,31680,480
71,77,32160,480
83,77,32160,480
71,85,32640,880
83,85,32640,880
83,81,33600,880
71,81,33600,880
67,63,34560,960
79,63,34560,960
64,53,35520,200
76,53,35520,200
59,41,36480,880
71,41,36480,880
71,37,37440,880
59,37,37440,880
55,37,38400,960
67,37,38400,960
52,33,39360,200
64,33,39360,200
55,37,40320,960
67,37,40320,960
52,33,41280,140
64,33,41280,140
65,45,42240,960
53,45,42240,960
62,40,43200,140
50,40,43200,140
64,56,44160,960
52,56,44160,960
48,51,45120,140
60,51,45120,140
50,73,46080,960
62,73,46080,960
59,69,47040,140
47,69,47040,140
57,95,48000,960
69,95,48000,960
64,91,48960,960
76,91,48960,960
63,88,49920,960
75,88,49920,960
76,81,50880,240
64,81,50880,240
72,78,51360,240
64,78,51360,240
64,63,51720,90
71,73,51720,90
64,67,51840,240
69,80,51840,240
62,63,52200,90
67,73,52200,90
65,72,52320,240
60,63,52320,240
64,70,52680,90
59,58,52680,90
60,74,52800,240
65,74,52800,240
59,57,53160,90
64,70,53160,90
57,64,53280,240
62,75,53280,240
61,70,53640,90
55,58,53640,90
57,76,53760,240
62,76,53760,240
59,63,54120,90
64,73,54120,90
60,77,54240,240
65,77,54240,240
62,63,54600,90
68,73,54600,90
69,81,54720,240
64,81,54720,240
64,67,55080,90
71,80,55080,90
64,71,55200,120
69,86,55200,120
57,97,55680,960
57,85,56640,960
69,85,56640,960
65,85,56640,960
70,90,57600,960
58,90,57600,960
67,90,57600,960
65,80,58560,240
69,80,58560,240
57,80,58560,240
69,73,59040,240
77,89,59040,240
69,70,59400,90
76,84,59400,90
74,80,59520,240
69,67,59520,240
67,63,59880,90
72,73,59880,90
65,63,60000,240
70,72,60000,240
64,58,60360,90
69,70,60360,90
70,75,60480,240
65,64,60480,240
64,57,60840,90
69,70,60840,90
62,74,60960,240
67,74,60960,240
60,58,61320,90
66,70,61320,90
62,77,61440,240
67,77,61440,240
69,73,61800,90
64,63,61800,90
65,78,61920,240
70,78,61920,240
67,63,62280,90
73,73,62280,90
69,70,62400,240
74,84,62400,240
76,80,62760,90
69,67,62760,90
69,71,62880,120
74,86,62880,120
62,83,66720,477
74,93,66720,960
67,80,67680,480
79,89,67680,480
69,84,68160,480
81,94,68160,480
70,80,68640,480
82,89,68640,480
69,83,69120,960
81,93,69120,960
62,76,70080,200
74,85,70080,200
72,87,70560,480
84,97,70560,480
70,87,71040,960
82,97,71040,960
74,92,72000,200
62,82,72000,200
70,87,72480,480
82,97,72480,480
69,82,72960,960
81,92,72960,960
62,75,73920,200
74,84,73920,200
74,97,74400,960
62,87,74400,960
67,81,75360,480
79,91,75360,480
69,86,75840,480
81,96,75840,480
70,83,76320,480
82,93,76320,480
69,88,76800,960
81,98,76800,960
74,84,77760,200
62,75,77760,200
69,84,78240,960
81,94,78240,960
84,95,79200,480
72,85,79200,480
74,93,79680,480
86,104,79680,480
88,101,80160,480
76,90,80160,480
88,108,80640,920
76,97,80640,920
76,84,81600,920
88,94,81600,920
84,96,82560,960
72,86,82560,960
81,81,83520,200
69,72,83520,200
64,48,84480,920
76,48,84480,920
76,48,85440,920
64,48,85440,920
60,45,86400,960
72,45,86400,960
57,41,87360,200
69,41,87360,200
58,34,88320,960
70,34,88320,960
67,25,89280,180
55,25,89280,180
58,31,90240,960
70,31,90240,960
55,25,91200,180
67,25,91200,180
58,31,92160,960
70,31,92160,960
55,24,93120,180
67,24,93120,180
70,34,94080,960
58,34,94080,960
55,29,95040,180
67,29,95040,180
59,80,96000,120
71,76,96120,120
59,72,96240,120
71,67,96360,120
59,63,96480,120
71,60,96600,120
59,57,96720,120
71,54,96840,120
59,60,96960,120
71,57,97080,120
59,55,97200,120
71,52,97320,120
59,58,97440,120
71,56,97560,120
59,54,97680,120
71,51,97800,120
56,80,97920,120
68,75,98040,120
56,69,98160,120
68,65,98280,120
56,61,98400,120
68,60,98520,120
56,59,98640,120
68,58,98760,120
56,69,98880,120
68,68,99000,120
56,66,99120,120
68,63,99240,120
56,73,99360,120
68,70,99480,120
56,67,99600,120
68,64,99720,120
83,99,99840,480
71,99,99840,480
68,90,100320,180
80,90,100320,180
71,98,100800,480
83,98,100800,480
88,93,101280,180
76,93,101280,180
71,95,101760,480
83,95,101760,480
68,90,102240,180
80,90,102240,180
76,90,102720,480
64,90,102720,480
59,81,103200,180
71,81,103200,180
68,34,103680,1920
64,34,103680,1920
56,34,103680,1920
57,38,105600,1920
71,38,105600,1920
63,38,105600,1920
59,93,107520,120
71,87,107640,120
59,81,107760,120
71,75,107880,120
56,91,108000,120
68,86,108120,120
56,81,108240,120
68,75,108360,120
59,84,108480,120
71,80,108600,120
59,77,108720,120
71,73,108840,120
64,88,108960,120
76,85,109080,120
64,83,109200,120
76,80,109320,120
68,91,109440,120
80,88,109560,120
68,86,109680,120
80,83,109800,120
71,94,109920,120
83,91,110040,120
71,88,110160,120
83,84,110280,120
76,102,110400,120
88,96,110520,120
76,90,110640,120
88,84,110760,120
71,82,110880,120
83,71,111000,120
71,68,111120,120
83,64,111240,120
68,39,111360,1920
64,39,111360,1920
56,39,111360,1920
71,47,113280,1920
57,47,113280,1920
63,47,113280,1920
56,34,115200,920
64,40,115200,920
56,26,116160,840
64,30,116160,840
56,39,117120,470
64,39,117120,470
68,34,117600,470
56,34,117600,470
56,38,118080,470
66,38,118080,470
56,35,118560,470
68,35,118560,470
57,39,119040,920
61,39,119040,920
57,28,120000,840
61,28,120000,840
61,38,120960,470
57,38,120960,470
59,31,121440,470
57,31,121440,470
66,31,121440,470
64,37,121920,470
57,37,121920,470
59,37,121920,470
66,29,122400,470
57,29,122400,470
59,29,122400,470
59,36,122880,920
56,36,122880,920
56,24,123840,840
64,29,123840,840
56,46,124800,470
64,46,124800,470
56,38,125280,470
68,38,125280,470
66,46,125760,470
56,46,125760,470
56,39,126240,470
68,39,126240,470
57,46,126720,920
64,46,126720,920
69,46,126720,920
57,38,127680,840
64,38,127680,840
69,38,127680,840
69,51,128640,920
61,51,128640,920
73,51,128640,920
61,50,129600,476
69,50,129600,840
73,50,129600,840
64,34,130560,920
68,34,130560,920
76,40,130560,920
68,26,131520,840
64,26,131520,840
76,31,131520,840
63,38,132480,470
69,38,132480,470
78,38,132480,470
66,31,132960,470
69,31,132960,470
75,31,132960,470
66,36,133440,470
71,36,133440,470
64,31,133920,470
69,31,133920,470
64,29,134400,920
68,35,134400,920
64,19,135360,840
68,23,135360,840
63,37,136320,470
78,37,136320,470
69,37,136320,470
75,30,136800,470
69,30,136800,470
66,30,136800,470
66,35,137280,470
71,35,137280,470
64,30,137760,470
69,30,137760,470
68,35,138240,920
64,29,138240,920
64,19,139200,840
68,23,139200,840
64,35,140160,470
64,26,140640,470
68,31,140640,470
64,29,141120,470
66,35,141120,470
68,33,141600,470
64,27,141600,470
64,28,142080,920
71,34,142080,920
64,18,143040,240
70,24,143040,240
88,44,144000,920
83,44,144000,920
76,44,144000,920
81,27,144960,440
88,27,144960,440
76,27,144960,440
69,34,145920,920
64,34,145920,920
64,24,146880,440
68,24,146880,440
88,42,147840,920
81,42,147840,920
76,42,147840,920
76,26,148800,440
79,26,148800,440
88,26,148800,440
64,88,149760,920
60,70,149760,920
54,70,149760,920
66,88,149760,920
64,69,150720,440
60,55,150720,440
54,55,150720,440
66,69,150720,440
76,46,151680,470
73,46,151680,470
78,55,151680,470
71,37,152160,470
76,37,152160,470
80,46,152160,470
69,42,152640,470
76,42,152640,470
81,50,152640,470
76,37,153120,470
71,37,153120,470
80,46,153120,470
76,50,153600,920
71,50,153600,920
83,50,153600,920
71,26,154560,440
83,26,154560,440
75,33,154560,440
64,30,155520,920
68,37,155520,920
64,23,156480,440
68,23,156480,440
54,72,157440,920
66,91,157440,920
64,91,157440,920
60,72,157440,920
60,52,158400,440
54,52,158400,440
64,67,158400,440
66,67,158400,440
73,46,159360,470
76,46,159360,470
78,55,159360,470
80,49,159840,470
71,41,159840,470
76,41,159840,470
81,53,160320,470
76,44,160320,470
69,44,160320,470
71,39,160800,470
76,39,160800,470
80,47,160800,470
83,50,161280,920
76,50,161280,920
71,42,161280,920
75,33,162240,440
83,27,162240,440
71,26,162240,440
64,103,163200,920
52,103,163200,920
52,47,164160,440
64,66,164160,440
56,36,165120,470
59,36,165120,470
68,30,165600,470
56,30,165600,470
56,37,166080,470
66,37,166080,470
56,30,166560,470
68,30,166560,470
68,39,167040,920
71,39,167040,920
60,24,167040,920
66,23,168000,240
60,22,168000,240
69,23,168000,240
68,39,168960,920
71,39,168960,920
59,29,168960,920
59,19,169920,240
66,23,169920,240
69,23,169920,240
76,103,170880,920
64,103,170880,920
76,68,171840,440
64,60,171840,440
59,38,172800,470
56,38,172800,470
56,31,173280,470
68,31,173280,470
56,38,173760,470
66,38,173760,470
56,31,174240,470
68,31,174240,470
69,44,174720,920
61,37,174720,920
73,44,174720,920
61,23,175680,240
66,26,175680,240
69,26,175680,240
68,41,176640,920
71,41,176640,920
59,35,176640,920
66,29,177600,240
59,27,177600,240
69,29,177600,240
64,35,178560,920
69,41,178560,920
59,35,178560,920
67,29,179520,240
59,26,179520,240
64,26,179520,240
57,36,180480,920
67,42,180480,920
60,36,180480,920
60,26,181440,240
57,27,181440,240
65,29,181440,240
55,36,182400,920
65,42,182400,920
60,36,182400,920
64,29,183360,240
60,26,183360,240
55,26,183360,240
64,42,184320,920
57,36,184320,920
53,36,184320,920
62,29,185280,240
57,25,185280,240
53,25,185280,240
52,35,186240,920
62,41,186240,920
57,35,186240,920
60,29,187200,240
57,24,187200,240
59,41,192000,920
57,29,192000,920
59,29,192960,440
56,29,192960,440
69,50,197760,960
76,50,198720,960
75,53,199680,960
76,47,200640,200
72,49,201120,380
71,47,201480,140
69,48,201600,960
56,59,202560,960
59,59,202560,960
64,59,202560,960
60,52,203520,960
57,51,204480,180
57,50,205440,960
57,63,206400,960
65,63,206400,960
58,70,207360,960
67,70,207360,960
57,54,208320,200
65,54,208320,200
57,51,208800,380
59,54,209160,140
60,52,209280,960
52,62,210240,960
56,62,210240,960
59,62,210240,960
64,62,210240,960
48,50,211200,960
60,50,211200,960
45,50,212160,200
57,50,212160,200
57,52,216480,960
62,46,217440,480
64,49,217920,480
65,47,218400,480
64,50,218880,960
57,46,219840,200
67,47,220320,480
65,47,220800,960
57,48,221760,200
65,45,222240,480
64,50,222720,960
57,48,223680,200
57,56,224160,477
69,56,224160,960
62,57,225120,480
74,57,225120,480
64,60,225600,480
76,60,225600,480
65,56,226080,480
77,56,226080,480
64,60,226560,960
76,60,226560,960
57,56,227520,200
69,56,227520,200
64,68,228000,960
76,68,228000,960
67,74,228960,480
79,74,228960,480
69,77,229440,480
81,77,229440,480
71,73,229920,480
83,73,229920,480
71,85,230400,880
83,85,230400,880
71,71,231360,880
83,71,231360,880
67,57,232320,960
79,57,232320,960
64,53,233280,200
76,53,233280,200
59,41,234240,880
71,41,234240,880
59,37,235200,880
71,37,235200,880
55,37,236160,960
67,37,236160,960
52,33,237120,200
64,33,237120,200
55,37,238080,960
67,37,238080,960
52,33,239040,120
64,33,239040,120
65,48,240000,960
53,48,240000,960
50,43,240960,120
62,43,240960,120
64,58,241920,960
52,58,241920,960
48,50,242880,120
60,50,242880,120
50,73,243840,960
62,73,243840,960
47,67,244800,120
59,67,244800,120
57,98,245760,960
69,98,245760,960
64,88,246720,960
76,88,246720,960
63,84,247680,960
75,84,247680,960
76,77,248640,240
64,77,248640,240
64,67,249120,240
72,80,249120,240
64,63,249480,90
71,73,249480,90
64,67,249600,240
69,80,249600,240
62,63,249960,90
67,73,249960,90
60,63,250080,240
65,72,250080,240
59,58,250440,90
64,70,250440,90
60,64,250560,240
65,75,250560,240
59,57,250920,90
64,70,250920,90
57,64,251040,240
62,75,251040,240
55,58,251400,90
61,70,251400,90
57,78,251520,240
62,78,251520,240
59,63,251880,90
64,73,251880,90
60,78,252000,240
65,78,252000,240
62,63,252360,90
68,73,252360,90
64,70,252480,240
69,84,252480,240
64,67,252840,90
71,80,252840,90
64,71,252960,120
69,86,252960,120
57,97,253440,960
57,85,254400,960
65,85,254400,960
69,85,254400,960
67,90,255360,960
58,90,255360,960
70,90,255360,960
57,80,256320,240
69,80,256320,240
65,80,256320,240
69,73,256800,240
77,89,256800,240
69,70,257160,90
76,84,257160,90
69,67,257280,240
74,80,257280,240
67,63,257640,90
72,73,257640,90
65,63,257760,240
70,72,257760,240
64,58,258120,90
69,70,258120,90
65,73,258240,240
70,73,258240,240
64,57,258600,90
69,70,258600,90
62,72,258720,240
67,72,258720,240
60,58,259080,90
66,70,259080,90
62,76,259200,240
67,76,259200,240
64,63,259560,90
69,73,259560,90
65,77,259680,240
70,77,259680,240
67,63,260040,90
73,73,260040,90
69,79,260160,240
74,79,260160,240
69,67,260520,90
76,80,260520,90
69,71,260640,120
74,86,260640,120
62,83,264480,960
74,93,264480,960
67,80,265440,480
79,89,265440,480
69,84,265920,480
81,94,265920,480
70,81,266400,480
82,91,266400,480
69,83,266880,960
81,93,266880,960
62,76,267840,200
74,85,267840,200
72,87,268320,480
84,97,268320,480
70,87,268800,960
82,97,268800,960
62,82,269760,200
74,92,269760,200
70,87,270240,480
82,97,270240,480
69,82,270720,960
81,92,270720,960
62,75,271680,200
74,84,271680,200
62,87,272160,960
74,97,272160,960
67,82,273120,480
79,92,273120,480
69,87,273600,480
81,97,273600,480
70,82,274080,480
82,92,274080,480
69,89,274560,960
81,99,274560,960
62,75,275520,200
74,84,275520,200
69,85,276000,960
81,95,276000,960
84,92,276960,480
72,82,276960,480
74,91,277440,480
86,102,277440,480
76,94,277920,480
88,105,277920,480
88,107,278400,920
76,96,278400,920
76,84,279360,920
88,94,279360,920
84,89,280320,960
72,80,280320,960
81,81,281280,200
69,72,281280,200
64,48,282240,920
76,48,282240,920
64,48,283200,920
76,48,283200,920
60,45,284160,960
72,45,284160,960
57,41,285120,180
69,41,285120,180
58,34,286080,960
70,34,286080,960
55,25,287040,180
67,25,287040,180
58,31,288000,960
70,31,288000,960
55,25,288960,180
67,25,288960,180
58,31,289920,960
70,31,289920,960
55,24,290880,180
67,24,290880,180
58,34,291840,960
70,34,291840,960
55,29,292800,180
67,29,292800,180
59,80,293760,120
71,76,293880,120
59,72,294000,120
71,67,294120,120
59,63,294240,120
71,60,294360,120
59,57,294480,120
71,54,294600,120
59,60,294720,120
71,57,294840,120
59,55,294960,120
71,52,295080,120
59,58,295200,120
71,56,295320,120
59,54,295440,120
71,51,295560,120
56,80,295680,120
68,75,295800,120
56,69,295920,120
68,65,296040,120
56,61,296160,120
68,60,296280,120
56,59,296400,120
68,58,296520,120
56,69,296640,120
68,68,296760,120
56,66,296880,120
68,63,297000,120
56,73,297120,120
68,70,297240,120
56,67,297360,120
68,64,297480,120
71,99,297600,480
83,99,297600,480
68,90,298080,180
80,90,298080,180
83,96,298560,480
71,96,298560,480
88,90,299040,180
76,90,299040,180
71,89,299520,480
83,89,299520,480
80,82,300000,180
68,82,300000,180
64,65,300480,480
76,65,300480,480
59,53,300960,180
71,53,300960,180
56,34,301440,1920
64,34,301440,1920
68,34,301440,1920
63,38,303360,1920
57,38,303360,1920
71,38,303360,1920
59,93,305280,120
71,87,305400,120
59,81,305520,120
71,75,305640,120
56,91,305760,120
68,86,305880,120
56,81,306000,120
68,75,306120,120
59,84,306240,120
71,80,306360,120
59,77,306480,120
71,73,306600,120
64,88,306720,120
76,85,306840,120
64,83,306960,120
76,80,307080,120
68,91,307200,120
80,88,307320,120
68,86,307440,120
80,83,307560,120
71,94,307680,120
83,91,307800,120
71,88,307920,120
83,84,308040,120
76,102,308160,120
88,96,308280,120
76,90,308400,120
88,84,308520,120
71,82,308640,120
83,71,308760,120
71,68,308880,120
83,64,309000,120
64,35,309120,1920
56,35,309120,1920
68,35,309120,1920
63,36,311040,1920
57,36,311040,1920
71,43,311040,1920
56,34,312960,920
64,40,312960,920
56,23,313920,840
64,27,313920,840
64,39,314880,470
56,39,314880,470
56,34,315360,470
68,34,315360,470
56,38,315840,470
66,38,315840,470
56,35,316320,470
68,35,316320,470
57,39,316800,920
61,39,316800,920
57,25,317760,840
61,25,317760,840
57,38,318720,470
61,38,318720,470
57,31,319200,470
59,31,319200,470
66,31,319200,470
57,37,319680,470
59,37,319680,470
64,37,319680,470
57,29,320160,470
66,29,320160,470
59,29,320160,470
56,36,320640,920
59,36,320640,920
56,24,321600,840
64,29,321600,840
56,46,322560,470
64,46,322560,470
56,36,323040,470
68,36,323040,470
66,45,323520,470
56,45,323520,470
56,39,324000,470
68,39,324000,470
57,42,324480,920
69,42,324480,920
64,42,324480,920
69,37,325440,840
57,37,325440,840
64,37,325440,840
69,40,326400,920
61,40,326400,920
73,48,326400,920
73,48,327360,920
61,40,327360,470
69,40,327360,920
64,34,328320,920
76,40,328320,920
68,34,328320,920
68,23,329280,840
64,23,329280,840
76,27,329280,840
69,38,330240,470
78,38,330240,470
63,38,330240,470
75,31,330720,470
69,31,330720,470
66,31,330720,470
71,36,331200,470
66,36,331200,470
69,31,331680,470
64,31,331680,470
64,29,332160,920
68,35,332160,920
64,19,333120,840
68,23,333120,840
78,37,334080,470
69,37,334080,470
63,37,334080,470
66,30,334560,470
75,30,334560,470
69,30,334560,470
66,35,335040,470
71,35,335040,470
64,30,335520,470
69,30,335520,470
64,29,336000,920
68,35,336000,920
64,19,336960,840
68,23,336960,840
64,35,337920,470
64,26,338400,470
68,31,338400,470
64,29,338880,470
66,35,338880,470
68,33,339360,470
64,27,339360,470
64,28,339840,920
71,34,339840,920
64,18,340800,240
70,24,340800,240
76,41,341760,920
83,41,341760,920
88,41,341760,920
76,25,342720,440
88,25,342720,440
81,25,342720,440
64,34,343680,920
69,34,343680,920
64,24,344640,440
68,24,344640,440
76,42,345600,920
88,42,345600,920
81,42,345600,920
76,25,346560,440
79,25,346560,440
88,25,346560,440
60,78,347520,920
66,86,347520,920
64,86,347520,920
54,78,347520,920
54,59,348480,440
64,67,348480,440
60,59,348480,440
66,67,348480,440
73,46,349440,470
76,46,349440,470
78,55,349440,470
76,37,349920,470
80,46,349920,470
71,37,349920,470
81,50,350400,470
69,42,350400,470
76,42,350400,470
76,37,350880,470
80,46,350880,470
71,37,350880,470
76,50,351360,920
71,50,351360,920
83,50,351360,920
83,26,352320,440
71,26,352320,440
75,33,352320,440
64,30,353280,920
68,37,353280,920
68,23,354240,440
64,23,354240,440
54,79,355200,920
66,89,355200,920
60,79,355200,920
64,89,355200,920
54,59,356160,440
60,59,356160,440
66,67,356160,440
64,67,356160,440
76,46,357120,470
78,55,357120,470
73,46,357120,470
71,41,357600,470
80,49,357600,470
76,41,357600,470
69,44,358080,470
76,44,358080,470
81,53,358080,470
71,39,358560,470
76,39,358560,470
80,47,358560,470
83,50,359040,920
71,42,359040,920
76,50,359040,920
71,26,360000,440
83,27,360000,440
75,33,360000,440
64,104,360960,920
52,104,360960,920
52,74,361920,440
64,83,361920,440
56,36,362880,470
59,36,362880,470
56,30,363360,470
68,30,363360,470
66,37,363840,470
56,37,363840,470
56,30,364320,470
68,30,364320,470
71,39,364800,920
68,39,364800,920
60,24,364800,920
69,23,365760,240
60,22,365760,240
66,23,365760,240
59,29,366720,920
68,39,366720,920
71,39,366720,920
59,19,367680,240
66,23,367680,240
69,23,367680,240
64,105,368640,920
76,105,368640,920
64,61,369600,440
76,69,369600,440
56,38,370560,470
59,38,370560,470
68,31,371040,470
56,31,371040,470
56,38,371520,470
66,38,371520,470
56,31,372000,470
68,31,372000,470
61,37,372480,920
73,44,372480,920
69,44,372480,920
61,19,373440,240
69,23,373440,240
66,23,373440,240
59,35,374400,920
71,41,374400,920
68,41,374400,920
69,25,375360,240
59,24,375360,240
66,25,375360,240
64,35,376320,920
69,41,376320,920
59,35,376320,920
64,23,377280,240
67,25,377280,240
59,23,377280,240
60,36,378240,920
67,42,378240,920
57,36,378240,920
65,25,379200,240
60,23,379200,240
57,24,379200,240
55,36,380160,920
60,36,380160,920
65,42,380160,920
60,23,381120,240
55,23,381120,240
64,25,381120,240
57,36,382080,920
53,36,382080,920
64,42,382080,920
57,25,383040,240
62,29,383040,240
53,25,383040,240
52,35,384000,920
62,41,384000,920
57,35,384000,920
57,20,384960,240
60,25,384960,240
57,29,389760,920
59,41,389760,920
59,25,390720,440
56,25,390720,440
60,36,395520,960
57,33,396480,960
69,33,396480,960
56,40,397440,960
68,40,397440,960
57,37,398400,960
69,37,398400,960
58,47,399360,960
70,47,399360,960
57,45,400320,960
69,45,400320,960
62,63,401280,960
74,63,401280,960
60,61,402240,960
72,61,402240,960
67,77,403200,960
79,77,403200,960
65,73,404160,960
77,73,404160,960
70,96,405120,960
82,96,405120,960
69,93,406080,960
81,93,406080,960
86,101,407040,960
81,101,407040,960
77,90,407040,960
74,90,407040,960
69,76,408000,200
81,85,408000,200
88,101,408960,960
85,101,408960,960
81,90,408960,960
76,90,408960,960
69,76,409920,200
81,85,409920,200
89,101,410880,960
86,101,410880,960
81,90,410880,960
77,90,410880,960
69,76,411840,200
81,85,411840,200
88,102,412800,960
85,102,412800,960
81,91,412800,960
76,91,412800,960
69,76,413760,200
81,85,413760,200
86,101,414720,960
81,101,414720,960
77,90,414720,960
74,90,414720,960
69,83,415680,200
81,93,415680,200
88,104,416640,960
85,104,416640,960
81,93,416640,960
76,93,416640,960
69,84,417600,120
81,94,417600,120
89,101,418560,960
86,101,418560,960
81,90,418560,960
77,90,418560,960
69,82,419520,120
81,92,419520,120
88,104,420480,960
85,104,420480,960
81,93,420480,960
76,93,420480,960
69,83,421440,120
81,93,421440,120
89,105,422400,960
84,105,422400,960
81,94,422400,960
77,94,422400,960
72,82,423360,120
84,92,423360,120
91,100,424320,960
88,100,424320,960
84,90,424320,960
79,90,424320,960
72,76,425280,120
84,85,425280,120
93,100,426240,960
89,100,426240,960
84,90,426240,960
81,90,426240,960
72,76,427200,120
84,85,427200,120
91,96,428160,960
88,96,428160,960
84,86,428160,960
79,86,428160,960
72,76,429120,120
84,85,429120,120
93,97,430080,320
89,97,430080,320
84,87,430080,320
81,87,430080,320
89,70,430440,80
84,70,430440,80
81,63,430440,80
77,63,430440,80
89,78,430560,320
84,78,430560,320
81,70,430560,320
77,70,430560,320
84,70,430920,80
81,70,430920,80
77,63,430920,80
72,63,430920,80
84,78,431040,320
81,78,431040,320
77,70,431040,320
72,70,431040,320
81,70,431400,80
77,70,431400,80
72,63,431400,80
69,63,431400,80
69,70,431520,90
72,70,431520,90
77,78,431520,90
81,78,431520,90
65,63,431760,90
69,63,431760,90
72,70,431760,90
77,70,431760,90
93,99,432000,320
89,99,432000,320
84,89,432000,320
81,89,432000,320
89,70,432360,80
84,70,432360,80
81,63,432360,80
77,63,432360,80
89,78,432480,320
84,78,432480,320
81,70,432480,320
77,70,432480,320
84,70,432840,80
81,70,432840,80
77,63,432840,80
72,63,432840,80
84,78,432960,320
81,78,432960,320
77,70,432960,320
72,70,432960,320
81,70,433320,80
77,70,433320,80
72,63,433320,80
69,63,433320,80
69,70,433440,90
72,70,433440,90
77,78,433440,90
81,78,433440,90
65,63,433680,90
69,63,433680,90
72,70,433680,90
77,70,433680,90
93,92,433920,320
88,92,433920,320
85,82,433920,320
81,82,433920,320
93,70,434280,80
88,70,434280,80
85,70,434280,80
81,63,434280,80
93,83,434400,320
88,83,434400,320
85,74,434400,320
81,74,434400,320
93,70,434760,80
88,70,434760,80
85,63,434760,80
81,63,434760,80
93,82,434880,320
88,82,434880,320
85,73,434880,320
81,73,434880,320
93,70,435240,80
88,70,435240,80
85,63,435240,80
81,63,435240,80
93,80,435360,90
88,80,435360,90
85,72,435360,90
81,72,435360,90
81,63,435600,90
85,63,435600,90
88,70,435600,90
93,70,435600,90
81,50,435840,320
76,50,435840,320
73,50,435840,320
69,50,435840,320
73,45,436200,80
76,45,436200,80
81,45,436200,80
81,50,436320,320
76,50,436320,320
73,50,436320,320
73,45,436680,80
76,45,436680,80
81,45,436680,80
81,49,436800,320
76,49,436800,320
73,49,436800,320
73,45,437160,80
76,45,437160,80
81,45,437160,80
81,50,437280,90
76,50,437280,90
73,50,437280,90
73,45,437520,90
76,45,437520,90
81,45,437520,90
72,45,437760,320
77,45,437760,320
81,45,437760,320
72,38,438120,80
77,38,438120,80
81,38,438120,80
72,45,438240,320
77,45,438240,320
81,45,438240,320
72,37,438600,80
77,37,438600,80
81,37,438600,80
72,45,438720,320
77,45,438720,320
81,45,438720,320
72,38,439080,80
77,38,439080,80
81,38,439080,80
72,45,439200,90
77,45,439200,90
81,45,439200,90
77,39,439440,90
72,39,439440,90
81,39,439440,90
72,51,439680,320
77,51,439680,320
81,51,439680,320
74,37,440040,80
77,37,440040,80
82,37,440040,80
72,45,440160,320
77,45,440160,320
81,45,440160,320
70,37,440520,80
72,37,440520,80
79,37,440520,80
69,45,440640,320
72,45,440640,320
77,45,440640,320
70,37,441000,80
72,37,441000,80
79,37,441000,80
69,45,441120,320
72,45,441120,320
77,45,441120,320
65,37,441480,80
70,37,441480,80
74,37,441480,80
64,52,441600,360
70,52,441600,360
72,52,441600,360
65,37,441960,120
70,37,441960,120
74,37,441960,120
65,45,442080,360
70,45,442080,360
74,45,442080,360
64,37,442440,120
70,37,442440,120
72,37,442440,120
64,45,442560,360
70,45,442560,360
72,45,442560,360
65,37,442920,120
70,37,442920,120
74,37,442920,120
65,39,443040,90
70,39,443040,90
74,39,443040,90
64,37,443280,80
70,37,443280,80
72,37,443280,80
74,45,443520,320
79,45,443520,320
82,45,443520,320
75,37,443880,80
79,37,443880,80
84,37,443880,80
74,45,444000,320
79,45,444000,320
82,45,444000,320
72,37,444360,80
74,37,444360,80
81,37,444360,80
70,45,444480,320
74,45,444480,320
79,45,444480,320
72,37,444840,80
74,37,444840,80
81,37,444840,80
70,45,444960,320
74,45,444960,320
79,45,444960,320
67,37,445320,80
72,37,445320,80
75,37,445320,80
66,52,445440,360
72,52,445440,360
74,52,445440,360
67,37,445800,120
72,37,445800,120
75,37,445800,120
67,45,445920,360
72,45,445920,360
75,45,445920,360
66,37,446280,120
72,37,446280,120
74,37,446280,120
66,45,446400,360
72,45,446400,360
74,45,446400,360
67,37,446760,120
72,37,446760,120
75,37,446760,120
67,39,446880,90
72,39,446880,90
75,39,446880,90
66,37,447120,80
72,37,447120,80
74,37,447120,80
71,51,447360,360
77,51,447360,360
79,51,447360,360
71,37,447720,80
77,37,447720,80
80,37,447720,80
71,51,447840,240
77,51,447840,240
80,51,447840,240
71,42,448080,80
77,42,448080,80
79,42,448080,80
67,45,448320,360
70,45,448320,360
72,45,448320,360
67,39,448680,80
70,39,448680,80
73,39,448680,80
67,47,448800,90
70,47,448800,90
73,47,448800,90
67,37,449040,80
70,37,449040,80
72,37,449040,80
69,52,449280,360
75,52,449280,360
77,52,449280,360
69,42,449640,80
75,42,449640,80
79,42,449640,80
69,49,449760,240
75,49,449760,240
79,49,449760,240
69,37,450000,80
75,37,450000,80
77,37,450000,80
62,49,450240,360
65,49,450240,360
70,49,450240,360
62,37,450600,80
65,37,450600,80
72,37,450600,80
62,45,450720,90
65,45,450720,90
72,45,450720,90
62,37,450960,80
70,37,450960,80
65,37,450960,80
65,55,451200,360
70,55,451200,360
74,55,451200,360
65,55,451560,120
73,55,451560,120
76,55,451560,120
65,59,451680,360
73,59,451680,360
76,59,451680,360
65,58,452040,120
74,58,452040,120
77,58,452040,120
65,67,452160,360
74,67,452160,360
77,67,452160,360
67,66,452520,120
76,66,452520,120
79,66,452520,120
67,73,452640,360
76,73,452640,360
79,73,452640,360
68,67,453000,120
77,67,453000,120
80,67,453000,120
68,76,453120,360
77,76,453120,360
80,76,453120,360
72,70,453480,120
68,70,453480,120
77,70,453480,120
80,70,453480,120
72,76,453600,360
68,76,453600,360
77,76,453600,360
80,76,453600,360
67,71,453960,120
71,71,453960,120
77,71,453960,120
79,71,453960,120
67,78,454080,360
71,78,454080,360
77,78,454080,360
79,78,454080,360
67,65,454440,120
71,65,454440,120
74,73,454440,120
77,73,454440,120
79,73,454440,120
67,81,454560,360
71,81,454560,360
74,81,454560,360
77,81,454560,360
79,81,454560,360
64,69,454920,120
67,69,454920,120
72,77,454920,120
76,77,454920,120
64,84,455040,360
67,84,455040,360
72,94,455040,360
76,94,455040,360
72,72,455400,80
76,80,455400,80
67,72,455400,80
79,80,455400,80
67,81,455520,90
72,81,455520,90
76,91,455520,90
79,91,455520,90
84,82,455760,90
79,82,455760,90
76,73,455760,90
72,73,455760,90
72,84,456000,480
77,94,456000,480
80,94,456000,480
64,84,456960,360
67,84,456960,360
72,94,456960,360
76,94,456960,360
72,69,457320,80
76,77,457320,80
67,69,457320,80
79,77,457320,80
67,82,457440,90
72,82,457440,90
76,92,457440,90
79,92,457440,90
84,85,457680,90
79,76,457680,90
76,85,457680,90
72,76,457680,90
72,84,457920,480
77,94,457920,480
80,94,457920,480
84,84,458880,360
79,84,458880,360
76,84,458880,360
72,84,458880,360
72,58,459240,120
72,70,459360,360
72,55,459720,120
84,69,459840,360
79,69,459840,360
76,69,459840,360
72,69,459840,360
72,57,460200,120
72,69,460320,360
72,56,460680,120
72,66,460800,360
73,58,461160,120
73,64,461280,360
72,51,461640,120
72,63,461760,360
72,53,462120,120
72,62,462240,360
72,49,462600,120
72,60,462720,360
77,49,463080,120
77,63,463200,360
72,44,463560,120
72,56,463680,360
72,42,464040,120
72,54,464160,360
72,41,464520,120
72,53,464640,360
74,39,465000,120
74,52,465120,360
72,39,465480,120
72,50,465600,360
82,37,465960,120
82,47,466080,360
76,35,466440,120
89,47,466560,360
77,47,466560,360
84,35,466920,80
84,43,467040,320
84,34,467400,80
83,42,467520,320
84,34,467880,80
84,41,468000,320
84,35,468360,80
81,44,468480,320
84,34,468840,80
93,42,468960,320
91,34,469320,80
91,41,469440,320
93,35,469800,80
93,41,469920,320
89,37,470280,80
88,48,470400,320
86,33,470760,80
86,43,470880,320
86,35,471240,80
85,45,471360,320
86,34,471720,80
86,44,471840,320
86,33,472200,80
82,44,472320,360
86,35,472680,120
91,43,472800,360
89,34,473160,120
89,44,473280,360
91,34,473640,120
91,42,473760,360
88,33,474120,120
84,47,474240,360
72,35,474600,120
72,43,474720,360
72,36,475080,120
71,42,475200,360
72,33,475560,120
72,41,475680,360
72,35,476040,120
68,44,476160,360
72,33,476520,120
80,42,476640,360
79,31,477000,120
79,41,477120,360
80,33,477480,120
80,41,477600,360
77,34,477960,120
79,48,478080,360
77,39,478440,120
77,43,478560,360
77,41,478920,120
76,45,479040,360
77,41,479400,120
77,44,479520,360
77,41,479880,120
73,44,480000,360
77,36,480360,120
82,43,480480,360
80,35,480840,120
80,44,480960,360
82,34,481320,120
82,42,481440,360
79,34,481800,120
75,45,481920,360
84,40,482280,120
84,48,482400,360
82,36,482760,120
82,46,482880,360
80,35,483240,120
80,44,483360,360
78,35,483720,120
78,44,483840,360
77,35,484200,120
77,40,484320,360
77,35,484680,120
76,40,484800,360
75,34,485160,120
75,40,485280,360
75,39,485640,120
73,45,485760,360
85,45,486120,120
85,48,486240,360
84,38,486600,120
84,46,486720,360
82,38,487080,120
82,44,487200,360
80,38,487560,120
80,44,487680,360
79,35,488040,120
79,40,488160,360
79,34,488520,120
78,40,488640,360
77,36,489000,120
77,40,489120,360
77,36,489480,120
76,45,489600,360
88,41,489960,120
88,49,490080,360
88,41,490440,120
91,51,490560,360
89,42,490920,120
89,50,491040,360
89,38,491400,120
89,50,491520,360
88,41,491880,120
88,48,492000,360
88,40,492360,120
88,48,492480,360
83,36,492840,120
83,45,492960,360
83,42,493320,120
86,56,493440,360
84,40,493800,120
84,49,493920,360
76,39,494280,120
79,47,494400,360
77,35,494760,120
77,44,494880,360
77,38,495240,120
77,46,495360,360
76,39,495720,120
76,46,495840,360
76,37,496200,120
76,44,496320,360
71,36,496680,120
71,44,496800,360
71,37,497160,120
74,46,497280,360
72,36,497640,120
72,44,497760,360
72,36,498120,120
72,43,498240,360
76,39,498600,120
76,47,498720,360
76,38,499080,120
76,47,499200,360
68,38,499560,120
68,47,499680,360
68,37,500040,120
68,45,500160,360
76,39,500520,120
76,47,500640,360
76,37,501000,120
76,45,501120,360
69,32,501480,120
69,40,501600,360
69,32,501960,120
69,39,502080,360
76,34,502440,120
76,39,502560,360
76,34,502920,120
76,41,503040,360
71,33,503400,120
71,37,503520,360
71,32,503880,120
71,37,504000,360
77,29,504360,120
77,34,504480,360
77,30,504840,120
68,37,504960,960
74,37,504960,960
76,37,504960,960
65,32,508200,120
65,36,508320,360
65,32,508680,120
56,36,508800,960
62,36,508800,960
64,36,508800,960
69,50,514560,960
76,50,515520,960
75,53,516480,960
76,47,517440,200
72,49,517920,380
71,47,518280,140
69,48,518400,960
64,58,519360,960
56,58,519360,960
59,58,519360,960
60,52,520320,960
57,51,521280,180
57,50,522240,960
65,60,523200,960
57,60,523200,960
58,67,524160,960
67,67,524160,960
57,54,525120,200
65,54,525120,200
57,51,525600,380
59,54,525960,140
60,52,526080,960
56,60,527040,960
59,60,527040,960
64,60,527040,960
60,50,528000,960
57,50,528960,200
57,46,529920,960
62,46,529920,960
69,46,529920,960
65,46,529920,960
57,37,530880,120
60,47,531840,960
69,47,531840,960
64,47,531840,960
57,47,531840,960
57,40,532800,120
62,47,533760,960
69,47,533760,960
65,47,533760,960
57,47,533760,960
57,39,534720,120
69,45,535680,960
57,45,535680,960
60,45,535680,960
57,39,536640,120
62,47,537600,960
69,47,537600,960
57,47,537600,960
57,40,538560,120
60,45,539520,960
57,45,539520,960
69,45,539520,960
57,37,540480,120
77,69,541440,960
81,69,541440,960
74,69,541440,960
69,69,541440,960
69,56,542400,180
72,70,543360,960
81,70,543360,960
69,70,543360,960
69,54,544320,120
71,74,545280,960
76,74,545280,960
79,74,545280,960
67,73,546240,180
75,82,547200,880
66,82,547200,880
78,82,547200,880
71,76,548160,880
83,76,548160,880
75,76,548160,880
67,73,549120,960
79,73,549120,960
64,60,550080,200
76,60,550080,200
66,38,551040,880
54,38,551040,880
63,38,551040,880
59,36,552000,880
63,36,552000,880
71,36,552000,880
67,37,552960,960
55,37,552960,960
52,31,553920,200
64,31,553920,200
55,37,554880,960
67,37,554880,960
52,33,555840,120
64,33,555840,120
65,48,556800,960
53,48,556800,960
50,42,557760,120
62,42,557760,120
52,57,558720,960
64,57,558720,960
48,52,559680,120
60,52,559680,120
62,76,560640,960
50,76,560640,960
47,67,561600,120
59,67,561600,120
57,101,562560,960
69,101,562560,960
64,93,563520,960
76,93,563520,960
75,89,564480,960
63,89,564480,960
76,75,565440,240
64,75,565440,240
48,68,565920,320
52,68,565920,320
56,61,566280,100
50,61,566280,100
52,64,566400,320
57,64,566400,320
59,63,566760,100
53,63,566760,100
55,65,566880,320
60,65,566880,320
57,67,567240,100
62,67,567240,100
55,70,567360,320
60,70,567360,320
62,67,567720,100
57,55,567720,100
59,70,567840,320
64,70,567840,320
65,67,568200,100
60,56,568200,100
59,71,568320,320
64,71,568320,320
57,60,568680,100
62,70,568680,100
55,73,568800,320
60,73,568800,320
53,60,569160,100
59,70,569160,100
57,73,569280,320
52,73,569280,320
56,77,569640,100
52,64,569640,100
52,68,569760,120
57,82,569760,120
57,100,570240,960
69,100,570240,960
77,93,571200,960
69,93,571200,960
81,93,571200,960
79,98,572160,960
69,98,572160,1200
82,98,572160,960
77,89,573120,240
81,89,573120,240
53,67,573600,320
57,67,573600,320
55,62,573960,100
61,62,573960,100
62,66,574080,320
57,66,574080,320
58,64,574440,100
64,64,574440,100
65,67,574560,320
60,67,574560,320
62,64,574920,100
67,64,574920,100
60,68,575040,320
65,68,575040,320
62,55,575400,100
67,67,575400,100
69,71,575520,320
64,71,575520,320
65,56,575880,100
70,67,575880,100
69,72,576000,320
64,72,576000,320
62,60,576360,100
67,70,576360,100
60,74,576480,320
65,74,576480,320
58,60,576840,100
64,70,576840,100
57,75,576960,320
62,75,576960,320
57,64,577320,100
61,77,577320,100
62,82,577440,120
57,68,577440,120
62,82,581280,476
74,92,581280,960
79,91,582240,480
67,81,582240,480
69,83,582720,480
81,93,582720,480
70,81,583200,480
82,91,583200,480
69,82,583680,960
81,92,583680,960
74,85,584640,180
62,76,584640,180
72,84,585120,480
84,94,585120,480
82,96,585600,960
70,86,585600,960
74,91,586560,180
62,81,586560,180
70,85,587040,480
82,95,587040,480
81,91,587520,960
69,81,587520,960
62,74,588480,180
74,83,588480,180
62,86,588960,960
74,96,588960,960
67,84,589920,480
79,94,589920,480
82,105,590400,480
70,94,590400,480
74,92,590880,480
86,103,590880,480
87,110,591360,960
75,99,591360,960
67,74,592320,180
79,83,592320,180
75,94,592800,480
87,105,592800,480
74,94,593280,960
86,105,593280,960
67,74,594240,180
79,83,594240,180
74,87,594720,960
86,97,594720,960
77,85,595680,480
89,95,595680,480
91,104,596160,480
79,93,596160,480
93,100,596640,480
81,90,596640,480
81,98,597120,920
93,109,597120,920
93,105,598080,920
81,94,598080,920
89,89,599040,960
77,80,599040,960
86,81,600000,200
74,72,600000,200
69,52,600960,920
81,52,600960,920
81,52,601920,920
69,52,601920,920
65,49,602880,960
77,49,602880,960
74,45,603840,200
62,45,603840,200
63,37,604800,960
75,37,604800,960
72,27,605760,200
60,27,605760,200
63,34,606720,960
75,34,606720,960
72,27,607680,200
60,27,607680,200
69,34,608640,1140
75,34,608640,960
72,27,609600,200
69,34,610560,1140
75,34,610560,960
72,27,611520,200
76,34,612480,960
69,34,612480,1140
73,27,613440,200
68,34,614400,1140
76,34,614400,960
71,27,615360,200
73,34,616320,280
61,34,616320,280
61,29,616640,280
73,29,616640,280
73,29,616960,280
61,29,616960,280
61,23,617280,840
73,27,617280,840
61,39,618240,470
69,39,618240,470
61,34,618720,470
73,34,618720,470
71,38,619200,470
61,38,619200,470
61,35,619680,470
73,35,619680,470
66,39,620160,280
62,39,620160,280
62,30,620480,280
66,30,620480,280
62,30,620800,280
66,30,620800,280
62,25,621120,840
66,25,621120,840
62,38,622080,470
66,38,622080,470
64,31,622560,470
71,31,622560,470
62,31,622560,470
64,37,623040,470
62,37,623040,470
69,37,623040,470
71,29,623520,470
62,29,623520,470
64,29,623520,470
64,36,624000,280
61,36,624000,280
61,29,624320,280
64,29,624320,280
64,29,624640,280
61,29,624640,280
61,20,624960,840
69,32,624960,840
61,50,625920,470
69,50,625920,470
61,40,626400,470
73,40,626400,470
61,42,626880,470
71,42,626880,470
61,42,627360,470
73,42,627360,470
69,48,627840,280
62,48,627840,280
74,48,627840,280
62,40,628160,280
74,40,628160,280
69,40,628160,280
74,40,628480,280
69,40,628480,280
62,40,628480,280
62,36,628800,840
69,36,628800,840
74,36,628800,840
74,42,629760,280
66,42,629760,280
78,42,629760,280
66,38,630080,280
78,38,630080,280
74,38,630080,280
74,38,630400,280
66,38,630400,280
78,38,630400,280
66,42,630720,470
78,42,630720,920
74,42,630720,920
69,40,631680,280
73,40,631680,280
81,40,631680,280
81,36,632000,280
73,36,632000,280
69,36,632000,280
73,36,632320,280
69,36,632320,280
81,36,632320,280
69,23,632640,840
81,27,632640,840
73,23,632640,840
68,45,633600,470
74,45,633600,470
83,45,633600,470
80,36,634080,470
74,36,634080,470
71,36,634080,470
71,41,634560,470
76,41,634560,470
69,34,635040,470
74,34,635040,470
73,35,635520,280
69,35,635520,280
69,27,635840,280
73,27,635840,280
73,26,636160,280
69,26,636160,280
69,19,636480,840
73,23,636480,840
68,44,637440,470
74,44,637440,470
83,44,637440,470
80,33,637920,470
71,33,637920,470
74,33,637920,470
71,38,638400,470
76,38,638400,470
74,33,638880,470
69,33,638880,470
73,35,639360,280
69,35,639360,280
69,31,639680,280
73,31,639680,280
73,28,640000,280
69,28,640000,280
69,19,640320,840
73,23,640320,840
69,35,641280,470
73,31,641760,470
69,26,641760,470
69,29,642240,470
71,35,642240,470
69,27,642720,470
73,33,642720,470
69,34,643200,280
76,34,643200,280
76,30,643520,280
69,30,643520,280
69,29,643840,280
76,29,643840,280
75,24,644160,240
69,18,644160,240
88,37,645120,280
93,37,645120,280
81,37,645120,280
93,31,645440,280
81,31,645440,280
88,31,645440,280
93,30,645760,280
88,30,645760,280
81,30,645760,280
86,24,646080,440
93,24,646080,440
81,24,646080,440
69,34,647040,280
74,34,647040,280
69,29,647360,280
74,29,647360,280
69,29,647680,280
74,29,647680,280
73,27,648000,440
69,27,648000,440
93,37,648960,280
86,37,648960,280
81,37,648960,280
81,33,649280,280
86,33,649280,280
93,33,649280,280
93,30,649600,280
86,30,649600,280
81,30,649600,280
93,27,649920,440
81,27,649920,440
84,27,649920,440
59,85,650880,280
71,85,650880,280
69,85,650880,280
65,85,650880,280
65,79,651200,280
71,79,651200,280
69,79,651200,280
59,79,651200,280
69,73,651520,280
71,73,651520,280
65,73,651520,280
59,73,651520,280
59,57,651840,440
71,57,651840,440
69,57,651840,440
65,57,651840,440
78,46,652800,470
81,46,652800,470
83,55,652800,470
85,46,653280,470
76,37,653280,470
81,37,653280,470
74,42,653760,470
81,42,653760,470
86,50,653760,470
85,46,654240,470
76,37,654240,470
81,37,654240,470
88,50,654720,280
81,50,654720,280
76,50,654720,280
76,42,655040,280
88,42,655040,280
81,42,655040,280
88,41,655360,280
81,41,655360,280
76,41,655360,280
80,28,655680,440
88,23,655680,440
76,23,655680,440
69,37,656640,280
73,37,656640,280
73,30,656960,280
69,30,656960,280
69,29,657280,280
73,29,657280,280
69,23,657600,440
73,23,657600,440
69,85,658560,280
71,85,658560,280
65,85,658560,280
59,85,658560,280
59,79,658880,280
65,79,658880,280
71,79,658880,280
69,79,658880,280
59,72,659200,280
65,72,659200,280
69,72,659200,280
71,72,659200,280
71,56,659520,440
69,56,659520,440
65,56,659520,440
59,56,659520,440
78,46,660480,470
83,55,660480,470
81,46,660480,470
81,41,660960,470
76,41,660960,470
85,49,660960,470
86,53,661440,470
74,44,661440,470
81,44,661440,470
81,39,661920,470
76,39,661920,470
85,47,661920,470
88,50,662400,280
76,50,662400,280
81,50,662400,280
88,47,662720,280
81,47,662720,280
76,47,662720,280
76,47,663040,280
81,47,663040,280
88,47,663040,280
88,27,663360,440
76,26,663360,440
80,33,663360,440
69,106,664320,280
57,95,664320,280
57,88,664640,280
69,97,664640,280
57,78,664960,280
69,86,664960,280
57,69,665280,440
69,77,665280,440
64,36,666240,470
61,36,666240,470
61,30,666720,470
73,30,666720,470
71,37,667200,470
61,37,667200,470
61,30,667680,470
73,30,667680,470
73,39,668160,920
65,24,668160,920
76,39,668160,920
65,22,669120,240
71,23,669120,240
74,23,669120,240
76,39,670080,920
64,29,670080,920
73,39,670080,920
64,19,671040,240
71,23,671040,240
74,23,671040,240
81,106,672000,280
69,95,672000,280
69,89,672320,280
81,100,672320,280
69,84,672640,280
81,94,672640,280
69,67,672960,440
81,74,672960,440
61,38,673920,470
64,38,673920,470
61,31,674400,470
73,31,674400,470
71,42,674880,470
61,42,674880,470
73,38,675360,470
61,38,675360,470
66,37,675840,920
74,44,675840,920
78,44,675840,920
71,23,676800,360
66,19,676800,360
74,23,676800,360
73,41,677760,920
64,35,677760,920
76,41,677760,920
71,25,678720,360
64,24,678720,360
74,25,678720,360
71,35,679680,920
74,41,679680,920
64,35,679680,920
64,23,680640,360
69,23,680640,360
72,25,680640,360
72,42,681600,920
62,36,681600,920
65,36,681600,920
62,24,682560,360
65,23,682560,360
70,25,682560,360
70,41,683520,920
60,35,683520,960
64,35,683520,920
64,39,684480,960
69,25,684480,360
60,20,684480,360
63,37,685440,960
64,35,686400,360
69,29,689280,920
64,29,689280,920
59,41,689280,960
64,39,690240,960
59,25,690240,440
68,25,690240,440
63,37,691200,960
64,35,692160,360
57,28,695040,2400
63,28,695040,2400
66,28,695040,2400
66,28,698880,2400
63,28,698880,2400
57,28,698880,2400
63,34,702720,960
75,34,702720,960
60,25,703680,180
72,25,703680,180
75,31,704640,960
63,31,704640,960
60,25,705600,180
72,25,705600,180
75,36,706560,480
63,36,706560,480
60,34,707040,180
72,34,707040,180
63,46,707520,480
75,46,707520,480
60,40,708000,180
72,40,708000,180
63,59,708480,480
75,59,708480,480
72,57,708960,180
60,57,708960,180
63,71,709440,480
75,71,709440,480
72,66,709920,180
60,66,709920,180
64,92,710400,120
76,82,710520,120
64,78,710640,120
76,74,710760,120
64,69,710880,120
76,66,711000,120
64,62,711120,120
76,60,711240,120
64,70,711360,120
76,67,711480,120
64,65,711600,120
76,62,711720,120
64,70,711840,120
76,67,711960,120
64,64,712080,120
76,61,712200,120
61,96,712320,120
73,84,712440,120
61,79,712560,120
73,74,712680,120
61,69,712800,120
73,65,712920,120
61,62,713040,120
73,55,713160,120
61,73,713280,120
73,69,713400,120
61,66,713520,120
73,56,713640,120
61,72,713760,120
73,69,713880,120
61,66,714000,120
73,63,714120,120
76,102,714240,480
88,102,714240,480
73,94,714720,180
85,94,714720,180
88,101,715200,480
76,101,715200,480
93,94,715680,180
81,94,715680,180
76,93,716160,480
88,93,716160,480
73,86,716640,180
85,86,716640,180
81,78,717120,480
69,78,717120,480
76,68,717600,180
64,68,717600,180
61,34,718080,1920
69,34,718080,1920
73,34,718080,1920
62,38,720000,1920
76,38,720000,1920
68,38,720000,1920
64,97,721920,120
76,90,722040,120
64,86,722160,120
76,83,722280,120
61,88,722400,120
73,85,722520,120
61,82,722640,120
73,78,722760,120
64,87,722880,120
76,85,723000,120
64,83,723120,120
76,80,723240,120
69,89,723360,120
81,86,723480,120
69,84,723600,120
81,81,723720,120
73,94,723840,120
85,92,723960,120
73,90,724080,120
85,88,724200,120
76,102,724320,120
88,98,724440,120
76,94,724560,120
88,90,724680,120
81,109,724800,120
93,100,724920,120
81,94,725040,120
93,88,725160,120
76,83,725280,120
88,77,725400,120
76,70,725520,120
88,60,725640,120
69,35,725760,1920
61,35,725760,1920
73,35,725760,1920
68,36,727680,1920
76,43,727680,1920
62,36,727680,1920
49,34,729600,920
61,34,729600,920
57,21,730560,360
49,21,730560,360
74,42,731520,920
80,42,731520,920
88,42,731520,920
80,28,732480,360
74,28,732480,360
49,34,733440,920
61,34,733440,920
49,23,734400,360
57,23,734400,360
74,42,735360,920
88,42,735360,920
80,42,735360,920
74,28,736320,360
80,28,736320,360
49,34,737280,920
61,34,737280,920
49,20,738240,360
57,20,738240,360
74,42,739200,920
80,42,739200,920
88,42,739200,920
80,26,740160,360
74,26,740160,360
74,42,741120,920
80,42,741120,920
88,42,741120,920
80,28,742080,360
74,28,742080,360
88,42,743040,920
80,42,743040,920
74,42,743040,920
74,28,744000,360
80,28,744000,360
73,98,744960,3840
85,98,744960,3840
69,24,748800,3840
81,38,748800,3840
49,24,752640,920
61,30,752640,920
57,24,752640,920
52,24,752640,920
49,24,753600,920
52,24,753600,920
57,24,753600,920
61,30,753600,920
52,24,754560,1920
61,30,754560,1920
57,24,754560,1920
49,24,754560,1920
57,42,1,960
64,42,960,960
63,44,1920,960
64,38,2880,200
60,39,3360,380
59,39,3720,140
57,38,3840,960
52,52,4800,960
48,47,5760,960
45,39,6720,180
45,42,7680,960
38,45,8640,960
37,48,9600,960
38,42,10560,200
45,44,11040,380
47,45,11400,140
48,45,11520,960
40,47,12480,960
36,45,13440,960
33,41,14400,200
38,35,15360,960
45,35,15360,960
41,35,15360,960
33,33,16320,120
36,36,17280,960
45,36,17280,960
40,36,17280,960
33,35,18240,120
41,36,19200,960
45,36,19200,960
38,36,19200,960
33,34,20160,120
36,36,21120,960
40,36,21120,960
45,36,21120,960
33,34,22080,200
38,37,23040,960
41,37,23040,960
45,37,23040,960
33,35,24000,200
36,36,24960,960
40,36,24960,960
45,36,24960,960
33,33,25920,200
53,45,26880,960
57,45,26880,960
50,45,26880,960
45,35,27840,120
48,41,28800,960
52,41,28800,960
57,41,28800,958
45,36,29760,200
47,70,30720,960
52,70,30720,960
55,70,30720,960
43,54,31680,180
51,63,32640,880
54,71,32640,880
42,63,32640,880
47,54,33600,880
51,54,33600,880
59,61,33600,880
55,49,34560,960
43,49,34560,960
52,42,35520,200
40,42,35520,200
30,26,36480,880
42,26,36480,880
39,26,36480,880
35,24,37440,880
39,24,37440,880
47,24,37440,880
43,30,38400,960
31,30,38400,960
28,27,39360,200
40,27,39360,200
40,30,40320,1100
41,23,41400,140
40,27,41520,140
41,25,41640,140
40,29,41760,140
41,22,41880,140
40,27,42000,140
41,23,42120,140
40,31,42240,140
41,28,42360,140
40,31,42480,140
41,25,42600,140
40,34,42720,140
41,30,42840,140
40,34,42960,140
41,29,43080,140
40,34,43200,140
41,28,43320,140
40,34,43440,140
41,29,43560,140
40,34,43680,140
41,29,43800,140
40,34,43920,140
41,30,44040,140
40,39,44160,140
41,33,44280,140
40,39,44400,140
41,33,44520,140
40,39,44640,140
41,33,44760,140
40,40,44880,140
41,35,45000,140
40,40,45120,140
41,35,45240,140
40,41,45360,140
41,34,45480,140
40,41,45600,140
41,36,45720,140
40,42,45840,140
41,37,45960,140
40,47,46080,140
41,39,46200,140
40,47,46320,140
41,39,46440,140
40,48,46560,140
41,40,46680,140
40,48,46800,140
41,42,46920,140
40,49,47040,140
41,43,47160,140
40,54,47280,140
41,48,47400,140
40,62,47520,140
41,63,47640,140
40,71,47760,140
44,79,47880,140
33,80,48000,960
45,80,48000,960
40,76,48960,960
52,76,48960,960
51,73,49920,960
39,73,49920,960
40,66,50880,240
52,66,50880,240
52,48,51360,240
64,48,51360,240
50,46,51720,90
62,46,51720,90
60,48,51840,240
48,48,51840,240
59,46,52200,90
47,46,52200,90
57,43,52320,240
45,43,52320,240
44,42,52680,90
56,42,52680,90
57,46,52800,240
45,46,52800,240
55,40,53160,90
43,40,53160,90
53,46,53280,240
41,46,53280,240
52,42,53640,90
40,42,53640,90
53,48,53760,240
41,48,53760,240
56,46,54120,90
44,46,54120,90
45,48,54240,240
57,48,54240,240
47,46,54600,90
59,46,54600,90
48,52,54720,240
60,52,54720,240
50,48,55080,90
62,48,55080,90
60,53,55200,120
48,53,55200,120
45,90,55680,960
38,86,56640,960
45,86,56640,960
37,71,57600,960
45,71,57600,1200
38,71,58560,240
57,53,59040,240
69,53,59040,240
55,52,59400,90
67,52,59400,90
53,48,59520,240
65,48,59520,240
52,46,59880,90
64,46,59880,90
62,43,60000,240
50,43,60000,240
49,42,60360,90
61,42,60360,90
50,46,60480,240
62,46,60480,240
48,40,60840,90
60,40,60840,90
46,46,60960,240
58,46,60960,240
57,42,61320,90
45,42,61320,90
58,47,61440,240
46,47,61440,240
61,46,61800,90
49,46,61800,90
62,48,61920,240
50,48,61920,240
64,46,62280,90
52,46,62280,90
53,52,62400,240
65,52,62400,240
55,48,62760,90
67,48,62760,90
53,53,62880,120
65,53,62880,120
55,86,63360,960
58,96,63360,960
50,86,63360,960
62,96,63360,960
38,72,64320,180
50,81,64320,180
50,85,65280,960
53,85,65280,960
62,95,65280,960
57,95,65280,960
50,81,66240,180
38,72,66240,180
55,77,67200,960
58,86,67200,960
62,86,67200,960
50,77,67200,960
38,62,68160,180
50,69,68160,180
53,73,69120,960
57,82,69120,960
50,73,69120,960
62,82,69120,957
38,66,70080,200
50,74,70080,200
50,73,71040,960
55,73,71040,960
62,82,71040,957
58,82,71040,960
50,74,72000,200
38,66,72000,200
53,74,72960,960
57,83,72960,960
62,83,72960,957
50,74,72960,960
50,73,73920,200
38,65,73920,200
50,75,74880,960
55,75,74880,960
62,84,74880,960
58,84,74880,960
38,66,75840,180
50,74,75840,180
50,75,76800,960
57,84,76800,960
62,84,76800,957
53,75,76800,960
38,66,77760,200
50,74,77760,200
52,72,78720,960
57,81,78720,960
60,81,78720,960
48,72,78720,960
48,71,79680,180
36,63,79680,180
47,74,80640,920
56,83,80640,920
59,83,80640,920
64,76,81600,920
52,68,81600,920
56,76,81600,920
48,71,82560,960
60,79,82560,960
45,65,83520,200
57,73,83520,200
44,40,84480,920
47,40,84480,920
35,40,84480,920
40,37,85440,920
44,37,85440,920
52,37,85440,920
48,37,86400,960
36,37,86400,960
45,37,87360,200
33,37,87360,200
34,31,88320,960
46,31,88320,960
31,24,89280,180
43,24,89280,180
34,30,90240,960
46,30,90240,960
31,22,91200,180
43,22,91200,180
46,30,92160,960
34,30,92160,960
31,23,93120,180
43,23,93120,180
34,31,94080,960
46,31,94080,960
31,26,95040,180
43,26,95040,180
35,68,96000,120
47,55,96120,120
35,54,96240,120
47,52,96360,120
35,51,96480,120
47,49,96600,120
35,48,96720,120
47,46,96840,120
35,49,96960,120
47,48,97080,120
35,47,97200,120
47,45,97320,120
35,51,97440,120
47,47,97560,120
35,44,97680,120
47,43,97800,120
32,64,97920,120
44,53,98040,120
32,50,98160,120
44,46,98280,120
32,57,98400,120
44,53,98520,120
32,52,98640,120
44,51,98760,120
32,59,98880,120
44,54,99000,120
32,53,99120,120
44,39,99240,120
32,59,99360,120
44,58,99480,120
32,56,99600,120
44,54,99720,120
59,79,99840,480
47,79,99840,480
56,69,100320,180
44,69,100320,180
59,79,100800,480
47,79,100800,480
52,69,101280,180
64,69,101280,180
59,75,101760,480
47,75,101760,480
56,70,102240,180
44,70,102240,180
52,69,102720,480
40,69,102720,480
47,60,103200,180
35,60,103200,180
35,27,103680,3840
47,27,103680,3840
35,81,107520,120
47,50,107640,120
35,63,107760,120
47,48,107880,120
32,72,108000,120
44,52,108120,120
32,58,108240,120
44,46,108360,120
35,72,108480,120
47,53,108600,120
35,60,108720,120
47,45,108840,120
40,72,108960,120
52,53,109080,120
40,62,109200,120
52,48,109320,120
44,77,109440,120
56,60,109560,120
44,68,109680,120
56,55,109800,120
47,79,109920,120
59,57,110040,120
47,66,110160,120
59,51,110280,120
52,88,110400,120
64,57,110520,120
52,74,110640,120
64,57,110760,120
47,73,110880,120
59,48,111000,120
47,58,111120,120
59,47,111240,120
47,37,111360,3840
35,37,111360,3840
47,20,115200,920
40,20,115200,920
47,19,116160,840
40,19,116160,840
47,20,117120,470
40,20,117120,470
40,16,117600,470
47,16,117600,470
40,19,118080,470
47,19,118080,470
40,15,118560,470
47,15,118560,470
40,23,119040,920
49,23,119040,920
49,17,120000,840
40,17,120000,840
49,20,120960,470
40,20,120960,470
51,15,121440,470
40,15,121440,470
40,19,121920,470
49,19,121920,470
40,15,122400,470
51,15,122400,470
52,23,122880,920
40,23,122880,920
47,17,123840,840
40,17,123840,840
47,23,124800,470
40,23,124800,470
47,18,125280,470
40,18,125280,470
40,24,125760,470
47,24,125760,470
47,18,126240,470
40,18,126240,470
49,25,126720,920
40,25,126720,920
49,19,127680,840
40,19,127680,840
40,30,128640,1920
49,36,128640,480
52,33,129120,480
57,37,129600,480
61,39,130080,480
59,26,130560,920
52,26,130560,920
59,20,131520,840
52,20,131520,840
52,22,132480,470
59,22,132480,470
52,18,132960,470
59,18,132960,470
63,20,133440,470
52,20,133440,470
52,18,133920,470
61,18,133920,470
52,24,134400,920
59,24,134400,920
52,15,135360,840
59,15,135360,840
52,22,136320,470
59,22,136320,470
52,17,136800,470
59,17,136800,470
63,20,137280,470
52,20,137280,470
61,18,137760,470
52,18,137760,470
52,24,138240,920
59,29,138240,920
52,15,139200,840
59,15,139200,840
56,25,140160,470
52,25,140160,470
59,23,140640,470
52,23,140640,470
52,25,141120,470
57,25,141120,470
59,24,141600,470
52,24,141600,470
52,25,142080,920
61,25,142080,920
52,15,143040,240
61,15,143040,240
72,22,144000,920
64,22,144000,920
64,8,144960,440
72,9,144960,440
59,25,145920,920
52,25,145920,920
59,11,146880,440
52,9,146880,440
64,22,147840,920
71,22,147840,920
71,11,148800,440
64,11,148800,440
45,62,149760,920
33,62,149760,920
45,45,150720,440
33,45,150720,440
66,39,151680,470
64,39,151680,470
57,39,151680,470
59,34,152160,470
64,34,152160,470
68,34,152160,470
64,37,152640,470
61,37,152640,470
64,36,153120,470
68,36,153120,470
59,36,153120,470
66,36,153600,920
59,36,153600,920
69,36,153600,920
59,17,154560,440
66,17,154560,440
69,17,154560,440
59,27,155520,920
52,27,155520,920
59,16,156480,440
52,23,156480,440
45,67,157440,920
33,67,157440,920
33,49,158400,440
45,49,158400,440
66,39,159360,470
64,39,159360,470
57,39,159360,470
64,36,159840,470
68,36,159840,470
59,36,159840,470
64,39,160320,470
61,39,160320,470
59,36,160800,470
68,36,160800,470
64,36,160800,470
66,36,161280,920
69,36,161280,920
59,36,161280,920
59,17,162240,440
69,17,162240,440
66,17,162240,440
40,84,163200,920
40,52,164160,440
40,22,165120,470
47,22,165120,470
47,17,165600,470
40,17,165600,470
40,20,166080,470
47,20,166080,470
40,16,166560,470
47,16,166560,470
40,16,167040,920
48,16,167040,920
48,8,168000,240
40,8,168000,240
40,23,168960,920
51,23,168960,920
51,9,169920,240
40,9,169920,240
40,82,170880,920
52,82,170880,920
40,44,171840,440
52,44,171840,440
40,25,172800,470
47,25,172800,470
40,18,173280,470
47,18,173280,470
47,25,173760,470
40,25,173760,470
47,17,174240,470
40,17,174240,470
45,24,174720,920
40,24,174720,920
40,13,175680,240
49,18,175680,240
40,25,176640,920
47,25,176640,920
40,16,177600,240
51,22,177600,240
52,25,178560,920
40,25,178560,920
40,5,179520,240
52,14,179520,240
45,25,180480,920
48,25,180480,920
45,14,181440,240
48,14,181440,240
48,25,182400,920
48,16,183360,240
38,25,184320,920
50,25,184320,920
50,15,185280,240
38,15,185280,240
40,24,186240,920
45,24,186240,960
52,39,187200,960
40,14,187200,240
51,37,188160,960
52,35,189120,240
40,19,192000,920
47,33,192000,960
52,39,192960,960
40,12,192960,440
51,37,193920,960
52,35,194880,240
57,42,197760,960
64,42,198720,960
63,44,199680,960
64,38,200640,200
60,39,201120,380
59,39,201480,140
57,38,201600,960
52,52,202560,960
48,47,203520,960
45,39,204480,180
45,42,205440,960
38,45,206400,960
37,50,207360,960
38,42,208320,200
45,44,208800,380
47,45,209160,140
48,45,209280,960
40,52,210240,960
36,45,211200,960
33,41,212160,200
38,35,213120,960
41,35,213120,960
45,35,213120,960
33,33,214080,120
36,36,215040,960
40,36,215040,960
45,36,215040,960
33,35,216000,120
38,36,216960,960
41,36,216960,960
45,36,216960,960
33,34,217920,120
36,36,218880,960
40,36,218880,960
45,36,218880,960
33,34,219840,200
38,37,220800,960
41,37,220800,960
45,37,220800,960
33,35,221760,200
36,36,222720,960
40,36,222720,960
45,36,222720,960
33,33,223680,200
50,51,224640,960
53,51,224640,960
57,51,224640,960
45,35,225600,120
48,41,226560,960
52,41,226560,960
57,41,226560,957
45,36,227520,200
47,57,228480,960
52,57,228480,960
55,57,228480,960
43,54,229440,180
42,59,230400,880
51,59,230400,880
54,66,230400,880
47,49,231360,880
51,49,231360,880
59,55,231360,880
43,49,232320,960
55,49,232320,960
40,42,233280,200
52,42,233280,200
30,26,234240,880
39,26,234240,880
42,26,234240,880
35,24,235200,880
39,24,235200,880
47,24,235200,880
31,30,236160,960
43,30,236160,960
28,27,237120,200
40,27,237120,200
40,30,238080,1100
41,30,239160,140
40,26,239280,140
41,30,239400,140
40,24,239520,140
41,30,239640,140
40,25,239760,140
41,30,239880,140
40,31,240000,140
41,28,240120,140
40,31,240240,140
41,31,240360,140
40,34,240480,140
41,30,240600,140
40,34,240720,140
41,29,240840,140
40,34,240960,140
41,28,241080,140
40,34,241200,140
41,29,241320,140
40,34,241440,140
41,29,241560,140
40,34,241680,140
41,30,241800,140
40,39,241920,140
41,33,242040,140
40,39,242160,140
41,33,242280,140
40,39,242400,140
41,33,242520,140
40,40,242640,140
41,35,242760,140
40,40,242880,140
41,35,243000,140
40,41,243120,140
41,34,243240,140
40,41,243360,140
41,36,243480,140
40,42,243600,140
41,37,243720,140
40,47,243840,140
41,39,243960,140
40,47,244080,140
41,39,244200,140
40,48,244320,140
41,40,244440,140
40,48,244560,140
41,42,244680,140
40,49,244800,140
41,43,244920,140
40,54,245040,140
41,48,245160,140
40,62,245280,140
41,63,245400,140
40,71,245520,140
44,79,245640,140
33,78,245760,960
45,78,245760,960
40,75,246720,960
52,75,246720,960
39,72,247680,960
51,72,247680,960
40,67,248640,240
52,67,248640,240
52,48,249120,240
64,48,249120,240
50,46,249480,90
62,46,249480,90
48,48,249600,240
60,48,249600,240
47,46,249960,90
59,46,249960,90
45,43,250080,240
57,43,250080,240
44,42,250440,90
56,42,250440,90
45,46,250560,240
57,46,250560,240
43,40,250920,90
55,40,250920,90
41,46,251040,240
53,46,251040,240
40,42,251400,90
52,42,251400,90
41,48,251520,240
53,48,251520,240
44,46,251880,90
56,46,251880,90
45,48,252000,240
57,48,252000,240
47,46,252360,90
59,46,252360,90
48,52,252480,240
60,52,252480,240
50,48,252840,90
62,48,252840,90
48,53,252960,120
60,53,252960,120
45,90,253440,960
38,86,254400,960
45,86,254400,960
37,71,255360,960
45,71,255360,1200
38,71,256320,240
57,53,256800,240
69,53,256800,240
55,52,257160,90
67,52,257160,90
53,48,257280,240
65,48,257280,240
52,46,257640,90
64,46,257640,90
50,43,257760,240
62,43,257760,240
49,42,258120,90
61,42,258120,90
50,46,258240,240
62,46,258240,240
48,40,258600,90
60,40,258600,90
46,46,258720,240
58,46,258720,240
45,42,259080,90
57,42,259080,90
46,48,259200,240
58,48,259200,240
49,46,259560,90
61,46,259560,90
50,48,259680,240
62,48,259680,240
52,46,260040,90
64,46,260040,90
53,52,260160,240
65,52,260160,240
55,48,260520,90
67,48,260520,90
53,53,260640,120
65,53,260640,120
50,88,261120,960
55,88,261120,960
58,98,261120,960
62,98,261120,960
38,72,262080,180
50,81,262080,180
50,87,263040,960
53,87,263040,960
57,97,263040,960
62,97,263040,957
38,72,264000,180
50,81,264000,180
50,75,264960,960
55,75,264960,960
58,84,264960,960
62,84,264960,960
38,62,265920,180
50,69,265920,180
50,73,266880,960
53,73,266880,960
57,82,266880,960
62,82,266880,957
38,66,267840,200
50,74,267840,200
50,73,268800,960
55,73,268800,960
58,82,268800,960
62,82,268800,957
38,66,269760,200
50,74,269760,200
50,74,270720,960
53,74,270720,960
57,83,270720,960
62,83,270720,957
38,65,271680,200
50,73,271680,200
50,75,272640,960
55,75,272640,960
58,84,272640,960
62,84,272640,960
38,66,273600,180
50,74,273600,180
50,75,274560,960
53,75,274560,960
57,84,274560,960
62,84,274560,957
38,66,275520,200
50,74,275520,200
48,72,276480,960
52,72,276480,960
57,81,276480,960
60,81,276480,960
36,63,277440,180
48,71,277440,180
47,76,278400,920
56,85,278400,920
59,85,278400,920
64,85,279360,920
56,85,279360,920
52,76,279360,920
48,73,280320,960
60,82,280320,960
45,65,281280,200
57,73,281280,200
35,40,282240,920
44,40,282240,920
47,40,282240,920
40,37,283200,920
44,37,283200,920
52,37,283200,920
36,37,284160,960
48,37,284160,960
33,37,285120,180
45,37,285120,180
34,31,286080,960
46,31,286080,960
31,24,287040,180
43,24,287040,180
34,30,288000,960
46,30,288000,960
31,22,288960,180
43,22,288960,180
34,30,289920,960
46,30,289920,960
31,23,290880,180
43,23,290880,180
34,31,291840,960
46,31,291840,960
31,26,292800,180
43,26,292800,180
35,72,293760,120
47,31,293880,120
35,42,294000,120
47,30,294120,120
35,46,294240,120
47,33,294360,120
35,44,294480,120
47,31,294600,120
35,45,294720,120
47,33,294840,120
35,44,294960,120
47,31,295080,120
35,51,295200,120
47,37,295320,120
35,47,295440,120
47,33,295560,120
32,74,295680,120
44,37,295800,120
32,47,295920,120
44,37,296040,120
32,52,296160,120
44,39,296280,120
32,49,296400,120
44,38,296520,120
32,55,296640,120
44,39,296760,120
32,51,296880,120
44,39,297000,120
32,66,297120,120
44,52,297240,120
32,57,297360,120
44,46,297480,120
47,79,297600,480
59,79,297600,480
44,69,298080,180
56,69,298080,180
47,79,298560,480
59,79,298560,480
64,69,299040,180
52,69,299040,180
47,70,299520,480
59,70,299520,480
44,63,300000,180
56,63,300000,180
52,54,300480,480
40,54,300480,480
47,44,300960,180
35,44,300960,180
35,27,301440,3840
47,27,301440,3840
35,81,305280,120
47,38,305400,120
35,58,305520,120
47,38,305640,120
32,72,305760,120
44,38,305880,120
32,57,306000,120
44,38,306120,120
35,72,306240,120
47,40,306360,120
35,60,306480,120
47,41,306600,120
40,72,306720,120
52,45,306840,120
40,61,306960,120
52,45,307080,120
44,77,307200,120
56,49,307320,120
44,66,307440,120
56,51,307560,120
47,79,307680,120
59,53,307800,120
47,72,307920,120
59,55,308040,120
52,88,308160,120
64,57,308280,120
52,74,308400,120
64,57,308520,120
47,73,308640,120
59,48,308760,120
47,58,308880,120
59,47,309000,120
35,28,309120,3840
47,28,309120,3840
47,20,312960,920
40,20,312960,920
40,17,313920,840
47,17,313920,840
47,20,314880,470
40,20,314880,470
47,16,315360,470
40,16,315360,470
40,19,315840,470
47,19,315840,470
40,15,316320,470
47,15,316320,470
40,23,316800,920
49,23,316800,920
40,15,317760,840
49,15,317760,840
40,20,318720,470
49,20,318720,470
40,15,319200,470
51,15,319200,470
40,19,319680,470
49,19,319680,470
51,15,320160,470
40,15,320160,470
52,23,320640,920
40,23,320640,920
40,17,321600,840
47,17,321600,840
47,23,322560,470
40,23,322560,470
40,18,323040,470
47,18,323040,470
40,24,323520,470
47,24,323520,470
47,18,324000,470
40,18,324000,470
40,25,324480,920
49,25,324480,920
49,19,325440,840
40,19,325440,840
40,30,326400,1920
49,36,326400,480
52,33,326880,480
57,37,327360,480
61,39,327840,480
52,26,328320,920
59,26,328320,920
59,17,329280,840
52,17,329280,840
52,22,330240,470
59,22,330240,470
59,18,330720,470
52,18,330720,470
52,20,331200,470
63,20,331200,470
61,18,331680,470
52,18,331680,470
52,24,332160,920
59,24,332160,920
59,15,333120,840
52,15,333120,840
52,22,334080,470
59,22,334080,470
59,17,334560,470
52,17,334560,470
52,20,335040,470
63,20,335040,470
52,18,335520,470
61,18,335520,470
59,29,336000,920
52,24,336000,920
59,15,336960,840
52,15,336960,840
56,25,337920,470
52,25,337920,470
52,23,338400,470
59,23,338400,470
57,25,338880,470
52,25,338880,470
52,24,339360,470
59,24,339360,470
52,25,339840,920
61,25,339840,920
61,15,340800,240
52,15,340800,240
64,22,341760,920
72,22,341760,920
64,8,342720,440
72,9,342720,440
52,25,343680,920
59,25,343680,920
52,9,344640,440
59,11,344640,440
71,22,345600,920
64,22,345600,920
64,11,346560,440
71,11,346560,440
33,58,347520,920
45,64,347520,920
33,39,348480,440
45,44,348480,440
64,39,349440,470
66,39,349440,470
57,39,349440,470
64,34,349920,470
59,34,349920,470
68,34,349920,470
64,37,350400,470
61,37,350400,470
64,36,350880,470
59,36,350880,470
68,36,350880,470
69,36,351360,920
66,36,351360,920
59,36,351360,920
59,17,352320,440
69,17,352320,440
66,17,352320,440
52,27,353280,920
59,27,353280,920
52,23,354240,440
59,16,354240,440
33,58,355200,920
45,64,355200,920
45,48,356160,440
33,42,356160,440
64,39,357120,470
66,39,357120,470
57,39,357120,470
59,36,357600,470
68,36,357600,470
64,36,357600,470
61,39,358080,470
64,39,358080,470
68,36,358560,470
59,36,358560,470
64,36,358560,470
69,36,359040,920
59,36,359040,920
66,36,359040,920
66,17,360000,440
69,17,360000,440
59,17,360000,440
40,86,360960,920
40,70,361920,440
40,22,362880,470
47,22,362880,470
47,17,363360,470
40,17,363360,470
40,20,363840,470
47,20,363840,470
40,16,364320,470
47,16,364320,470
48,16,364800,920
40,16,364800,920
40,8,365760,240
48,8,365760,240
40,23,366720,920
51,23,366720,920
40,9,367680,240
51,9,367680,240
40,86,368640,920
52,86,368640,920
52,66,369600,440
40,59,369600,440
40,25,370560,470
47,25,370560,470
47,18,371040,470
40,18,371040,470
47,25,371520,470
40,25,371520,470
40,17,372000,470
47,17,372000,470
45,24,372480,920
40,24,372480,920
40,12,373440,240
49,16,373440,240
47,25,374400,920
40,25,374400,920
51,18,375360,240
40,14,375360,240
52,25,376320,920
40,25,376320,920
52,12,377280,240
40,4,377280,240
45,25,378240,920
48,25,378240,920
48,12,379200,240
45,12,379200,240
48,25,380160,920
48,14,381120,240
38,25,382080,920
50,25,382080,920
38,15,383040,240
50,15,383040,240
40,24,384000,920
45,24,384000,960
52,39,384960,960
40,12,384960,240
51,37,385920,960
52,35,386880,240
40,19,389760,920
47,33,389760,960
40,9,390720,440
52,39,390720,960
51,37,391680,960
52,35,392640,240
41,22,395520,120
48,14,395640,120
41,17,395760,120
48,15,395880,120
41,18,396000,120
48,14,396120,120
41,18,396240,120
48,13,396360,120
41,20,396480,120
48,12,396600,120
41,18,396720,120
48,13,396840,120
41,19,396960,120
48,12,397080,120
41,16,397200,120
48,12,397320,120
41,24,397440,120
48,14,397560,120
41,18,397680,120
48,15,397800,120
41,20,397920,120
48,16,398040,120
41,19,398160,120
48,15,398280,120
41,21,398400,120
48,14,398520,120
41,20,398640,120
48,15,398760,120
41,20,398880,120
48,14,399000,120
41,18,399120,120
48,13,399240,120
41,27,399360,120
48,17,399480,120
41,22,399600,120
48,20,399720,120
41,27,399840,120
48,20,399960,120
41,27,400080,120
48,20,400200,120
41,31,400320,120
48,19,400440,120
41,29,400560,120
48,21,400680,120
41,33,400800,120
48,22,400920,120
41,29,401040,120
48,21,401160,120
41,37,401280,120
48,28,401400,120
41,31,401520,120
48,31,401640,120
41,35,401760,120
48,30,401880,120
41,36,402000,120
48,31,402120,120
41,42,402240,120
48,30,402360,120
41,42,402480,120
48,33,402600,120
41,42,402720,120
48,32,402840,120
41,41,402960,120
48,31,403080,120
41,54,403200,120
48,39,403320,120
41,45,403440,120
48,40,403560,120
41,52,403680,120
48,38,403800,120
41,52,403920,120
48,42,404040,120
41,57,404160,120
48,41,404280,120
41,54,404400,120
48,45,404520,120
41,60,404640,120
48,43,404760,120
41,57,404880,120
48,42,405000,120
41,62,405120,120
48,48,405240,120
41,57,405360,120
48,53,405480,120
41,63,405600,120
48,49,405720,120
41,63,405840,120
48,50,405960,120
41,68,406080,120
48,48,406200,120
41,65,406320,120
48,49,406440,120
41,69,406560,120
48,51,406680,120
41,65,406800,120
48,48,406920,120
41,75,407040,960
45,75,407040,960
50,84,407040,960
53,84,407040,960
45,69,408000,200
57,77,408000,200
40,75,408960,960
45,75,408960,960
49,84,408960,960
52,84,408960,960
45,69,409920,200
57,77,409920,200
38,75,410880,960
41,75,410880,960
45,84,410880,960
50,84,410880,960
45,69,411840,200
57,77,411840,200
40,75,412800,960
45,75,412800,960
49,84,412800,960
52,84,412800,960
45,69,413760,200
57,77,413760,200
69,85,414240,240
57,85,414240,240
67,73,414600,60
55,73,414600,60
65,87,414720,180
53,87,414720,180
64,72,415080,60
52,72,415080,60
50,78,415200,180
62,78,415200,180
49,72,415560,60
61,72,415560,60
50,78,415680,180
62,78,415680,180
48,70,416040,60
60,70,416040,60
46,79,416160,180
58,79,416160,180
45,75,416520,60
57,75,416520,60
43,73,416640,180
55,73,416640,180
41,69,417000,60
53,69,417000,60
40,74,417120,180
52,74,417120,180
38,68,417480,60
50,68,417480,60
37,80,417600,180
49,80,417600,180
34,74,417960,60
46,74,417960,60
33,84,418080,180
45,84,418080,180
31,73,418440,60
43,73,418440,60
29,84,418560,320
41,84,418560,320
67,69,418920,60
55,69,418920,60
65,76,419040,180
53,76,419040,180
64,66,419400,60
52,66,419400,60
50,77,419520,180
62,77,419520,180
48,65,419880,60
60,65,419880,60
46,76,420000,180
58,76,420000,180
45,67,420360,60
57,67,420360,60
43,74,420480,180
55,74,420480,180
41,67,420840,60
53,67,420840,60
40,73,420960,180
52,73,420960,180
38,67,421320,60
50,67,421320,60
37,78,421440,180
49,78,421440,180
34,72,421800,60
46,72,421800,60
33,81,421920,180
45,81,421920,180
31,70,422280,60
43,70,422286,60
29,84,422400,320
41,84,422400,320
67,71,422760,60
55,71,422760,60
65,78,422880,180
53,78,422880,180
64,71,423240,60
52,71,423240,60
53,77,423360,180
65,77,423360,180
52,69,423720,60
64,69,423720,60
50,76,423840,180
62,76,423840,180
48,69,424200,60
60,69,424200,60
46,78,424320,180
58,78,424320,180
45,66,424680,60
57,66,424680,60
43,72,424800,180
55,72,424800,180
41,68,425160,60
53,68,425160,60
40,74,425280,180
52,74,425280,180
38,69,425640,60
50,69,425640,60
36,79,425760,180
48,79,425760,180
34,71,426120,60
46,71,426120,60
33,85,426240,320
45,85,426240,320
58,73,426600,60
70,73,426600,60
57,80,426720,180
69,80,426720,180
55,71,427080,60
67,71,427080,60
65,76,427200,180
53,76,427200,180
64,72,427560,60
52,72,427560,60
50,82,427680,180
62,82,427680,180
48,69,428040,60
60,69,428040,60
46,85,428160,180
58,85,428160,180
45,69,428520,60
57,69,428520,60
43,80,428640,180
55,80,428640,180
41,70,429000,60
53,70,429000,60
40,83,429120,180
52,83,429120,180
38,73,429480,60
50,73,429480,60
36,84,429600,180
48,84,429600,180
34,84,429960,60
46,84,429960,60
33,78,430080,960
36,78,430080,960
41,87,430080,960
45,87,430080,960
53,58,431040,120
57,58,431040,120
48,52,431040,120
45,52,431040,120
33,60,432000,960
36,67,432000,960
41,67,432000,960
29,60,432000,960
45,52,432960,120
48,58,432960,120
53,58,432960,120
41,52,432960,120
33,70,433920,320
45,78,433920,320
37,63,434280,80
49,70,434280,80
37,70,434400,320
49,78,434400,320
40,63,434760,80
52,70,434760,80
40,70,434880,320
52,78,434880,320
45,63,435240,80
57,70,435240,80
45,70,435360,90
57,78,435360,90
45,63,435600,90
57,71,435600,90
57,50,435840,320
61,40,436200,80
61,49,436320,320
64,38,436680,80
64,48,436800,320
69,38,437160,80
69,45,437280,90
69,38,437520,90
65,44,437760,320
69,44,437760,320
65,33,438120,80
69,33,438120,80
65,42,438240,320
69,42,438240,320
65,33,438600,80
69,33,438600,80
65,42,438720,320
69,42,438720,320
65,34,439080,80
69,34,439080,80
65,40,439200,90
69,40,439200,90
65,36,439440,90
69,36,439440,90
41,31,439680,960
53,31,439680,960
45,37,440640,200
57,37,440640,200
48,34,441600,960
55,34,441600,960
60,37,442560,200
43,31,443520,960
55,31,443520,960
46,37,444480,200
58,37,444480,200
50,37,445440,960
57,37,445440,960
62,37,446400,200
43,40,447360,960
50,40,447360,960
48,37,448320,200
52,37,448320,200
41,41,449280,960
48,41,449280,960
46,37,450240,200
50,37,450240,200
46,49,451200,360
50,49,451200,360
46,49,451560,120
49,49,451560,120
52,49,451560,120
46,53,451680,360
49,53,451680,360
52,53,451680,360
46,52,452040,120
50,52,452040,120
53,52,452040,120
46,60,452160,360
50,60,452160,360
53,60,452160,360
46,59,452520,120
52,59,452520,120
55,59,452520,120
46,64,452640,360
52,64,452640,360
55,64,452640,360
47,60,453000,120
53,60,453000,120
56,60,453000,120
47,68,453120,360
53,68,453120,360
56,68,453120,360
36,63,453480,120
48,63,453480,120
36,67,453600,360
48,67,453600,360
38,64,453960,120
50,64,453960,120
38,69,454080,360
50,69,454080,360
31,58,454440,120
43,65,454440,120
31,64,454560,360
43,72,454560,360
36,61,454920,120
48,68,454920,120
36,69,455040,480
48,77,455040,480
48,92,456000,360
60,92,456000,360
44,81,456360,80
56,81,456360,80
44,85,456480,90
56,85,456480,90
41,80,456720,90
53,80,456720,90
36,77,456960,480
48,77,456960,480
48,92,457920,360
60,92,457920,360
44,81,458280,80
56,81,458280,80
44,85,458400,90
56,85,458400,90
41,80,458640,90
53,80,458640,90
36,70,458880,480
48,70,458880,480
67,45,460800,1920
64,36,460800,1920
58,36,460800,1920
65,45,462720,1920
60,36,462720,1920
57,36,462720,1920
64,40,464640,1920
55,32,464640,1920
58,32,464640,1920
65,35,466560,920
57,28,466560,920
53,28,466560,920
53,27,467520,920
57,27,467520,920
60,34,467520,920
53,22,468960,440
57,22,468960,440
60,28,468960,440
53,22,469440,440
57,22,469440,440
60,28,469440,440
53,20,469920,440
57,20,469920,440
60,26,469920,440
62,31,470400,920
58,24,470400,920
53,24,470400,920
53,24,471360,920
58,24,471360,920
62,30,471360,920
64,24,472800,440
60,19,472800,440
58,19,472800,440
53,19,472800,440
62,24,473280,440
60,19,473280,440
58,19,473280,440
53,19,473280,440
64,24,473760,440
60,19,473760,440
58,19,473760,440
53,19,473760,440
60,29,474240,920
65,37,474240,920
57,29,474240,920
53,29,474240,920
53,23,475200,920
56,23,475200,920
60,29,475200,920
53,22,476640,440
56,22,476640,440
60,28,476640,440
53,22,477120,440
56,22,477120,440
60,28,477120,440
53,20,477600,440
56,20,477600,440
60,26,477600,440
65,31,478080,920
61,24,478080,920
56,24,478080,920
53,24,478080,920
56,24,479040,920
61,24,479040,920
65,30,479040,920
67,22,480480,440
63,17,480480,440
61,17,480480,440
56,17,480480,440
65,24,480960,440
63,19,480960,440
61,19,480960,440
56,19,480960,440
67,22,481440,440
63,17,481440,440
61,17,481440,440
56,17,481440,440
56,20,481920,1920
60,20,481920,1920
63,20,481920,1920
68,26,481920,1920
57,17,483840,1920
60,17,483840,1920
63,17,483840,1920
65,22,483840,1920
58,20,485760,1920
61,20,485760,1920
65,26,485760,1920
59,17,487680,1920
62,17,487680,1920
65,17,487680,1920
67,22,487680,1920
60,20,489600,960
64,20,489600,960
67,25,489600,960
67,22,490560,1920
70,28,490560,1920
61,22,490560,960
60,32,491520,960
60,21,492480,960
65,21,492480,960
68,27,492480,960
67,28,493440,960
64,22,493440,960
60,22,493440,960
49,17,494400,960
55,17,494400,1920
58,22,494400,1920
48,22,495360,960
48,20,496320,960
53,20,496320,960
56,25,496320,960
48,22,497280,1920
52,22,497280,1920
55,28,497280,1920
59,22,499200,1920
62,22,499200,1920
64,28,499200,1920
57,20,501120,1920
62,20,501120,1920
64,26,501120,1920
56,17,503040,1920
62,17,503040,1920
64,22,503040,1920
52,33,504960,960
59,30,505920,960
58,36,506880,960
59,34,507840,200
40,31,508800,960
47,33,509760,960
46,38,510720,960
47,35,511680,200
57,42,514560,960
64,42,515520,960
63,44,516480,960
64,38,517440,200
60,39,517920,380
59,39,518280,140
57,38,518400,960
52,52,519360,960
48,47,520320,960
45,39,521280,180
45,42,522240,960
38,49,523200,960
37,52,524160,960
38,42,525120,200
33,44,525600,380
45,44,525600,380
47,45,525960,140
35,45,525960,140
36,45,526080,960
48,45,526080,960
52,55,527040,960
40,55,527040,960
48,45,528000,960
36,45,528000,960
45,50,528960,200
33,41,528960,200
45,46,533280,960
50,41,534240,480
52,44,534720,480
53,42,535200,480
52,45,535680,960
45,41,536640,120
55,51,537120,480
53,46,537600,960
45,43,538560,120
53,40,539040,480
52,45,539520,960
45,43,540480,120
33,56,540960,960
45,56,540960,960
38,52,541920,480
50,52,541920,480
52,56,542400,480
40,56,542400,480
41,52,542880,480
53,52,542880,480
40,56,543360,960
52,56,543360,960
33,53,544320,120
45,53,544320,120
40,62,544800,960
52,62,544800,960
43,68,545760,480
55,68,545760,480
45,74,546240,480
57,74,546240,480
59,72,546720,480
47,72,546720,480
47,85,547200,880
59,85,547200,880
59,70,548160,880
47,70,548160,880
55,58,549120,960
43,58,549120,960
52,47,550080,200
40,47,550080,200
35,32,551040,880
47,32,551040,880
47,30,552000,880
35,30,552000,880
31,29,552960,960
43,29,552960,960
28,28,553920,200
40,28,553920,200
40,30,554880,1100
41,30,555960,140
40,26,556080,140
41,30,556200,140
40,24,556320,140
41,30,556440,140
40,25,556560,140
41,30,556680,140
40,31,556800,140
41,28,556920,140
40,31,557040,140
41,31,557160,140
40,34,557280,140
41,30,557400,140
40,34,557520,140
41,29,557640,140
40,34,557760,140
41,28,557880,140
40,34,558000,140
41,29,558120,140
40,34,558240,140
41,29,558360,140
40,34,558480,140
41,30,558600,140
40,39,558720,140
41,33,558840,140
40,39,558960,140
41,33,559080,140
40,39,559200,140
41,33,559320,140
40,40,559440,140
41,35,559560,140
40,40,559680,140
41,35,559800,140
40,41,559920,140
41,34,560040,140
40,41,560160,140
41,36,560280,140
40,42,560400,140
41,37,560520,140
40,47,560640,140
41,39,560760,140
40,47,560880,140
41,39,561000,140
40,48,561120,140
41,40,561240,140
40,48,561360,140
41,42,561480,140
40,49,561600,140
41,43,561720,140
40,54,561840,140
41,48,561960,140
40,62,562080,140
41,63,562200,140
40,71,562320,140
44,79,562440,140
45,78,562560,960
33,78,562560,960
40,77,563520,960
52,77,563520,960
51,75,564480,960
39,75,564480,960
52,71,565440,240
40,71,565440,240
33,37,565920,320
45,37,565920,320
35,35,566280,100
47,35,566280,100
36,39,566400,320
48,39,566400,320
50,36,566760,100
38,36,566760,100
52,41,566880,320
40,41,566880,320
53,38,567240,100
41,38,567240,100
40,45,567360,320
52,45,567360,320
41,39,567720,100
53,39,567720,100
43,44,567840,320
55,44,567840,320
45,40,568200,100
57,40,568200,100
55,46,568320,320
43,46,568320,320
41,44,568680,100
53,44,568680,100
52,46,568800,320
40,46,568800,320
50,44,569160,100
38,44,569160,100
36,50,569280,320
48,50,569280,320
35,46,569640,100
47,46,569640,100
48,51,569760,120
36,51,569760,120
45,85,570240,960
45,74,571200,960
38,74,571200,960
37,71,572160,960
45,71,572160,1200
38,71,573120,240
38,44,573600,320
50,44,573600,320
52,37,573960,100
40,37,573960,100
53,42,574080,320
41,42,574080,320
55,40,574440,100
43,40,574440,100
45,43,574560,320
57,43,574560,320
46,42,574920,100
58,42,574920,100
57,45,575040,320
45,45,575040,320
46,39,575400,100
58,39,575400,100
48,44,575520,320
60,44,575520,320
62,40,575880,100
50,40,575880,100
48,46,576000,320
60,46,576000,320
46,44,576360,100
58,44,576360,100
45,46,576480,320
57,46,576480,320
55,44,576840,100
43,44,576840,100
53,50,576960,320
41,50,576960,320
52,46,577320,100
40,46,577320,100
41,51,577440,120
53,51,577440,120
50,89,577920,960
55,89,577920,960
62,99,577920,960
58,99,577920,960
50,81,578880,180
38,72,578880,180
50,90,579840,960
53,90,579840,960
57,100,579840,960
62,100,579840,960
38,72,580800,180
50,81,580800,180
50,77,581760,960
55,77,581760,960
58,86,581760,960
62,86,581760,960
50,68,582720,180
38,61,582720,180
50,72,583680,960
53,72,583680,960
57,81,583680,960
62,81,583680,950
50,73,584640,180
38,65,584640,180
50,72,585600,960
55,72,585600,960
58,81,585600,960
62,81,585600,950
38,65,586560,180
50,73,586560,180
50,73,587520,960
57,82,587520,960
62,82,587520,950
53,73,587520,960
38,64,588480,180
50,72,588480,180
55,79,589440,960
62,88,589440,960
58,79,589440,960
67,88,589440,470
43,65,590400,180
55,73,590400,180
60,74,591360,960
55,74,591360,960
63,83,591360,960
67,83,591360,470
55,73,592320,180
43,65,592320,180
58,73,593280,960
55,73,593280,960
67,82,593280,470
62,82,593280,960
43,64,594240,180
55,72,594240,180
53,73,595200,960
62,82,595200,960
57,73,595200,960
65,82,595200,960
53,74,596160,180
41,66,596160,180
52,76,597120,920
61,85,597120,920
64,85,597120,920
61,75,598080,920
69,84,598080,920
57,75,598080,920
65,82,599040,960
53,73,599040,960
62,73,600000,200
50,65,600000,200
40,44,600960,920
49,44,600960,920
52,44,600960,920
57,40,601920,920
45,40,601920,920
49,40,601920,920
53,40,602880,960
41,40,602880,960
50,40,603840,200
38,40,603840,200
51,34,604800,960
39,34,604800,960
36,26,605760,200
48,26,605760,200
39,33,606720,960
51,33,606720,960
48,24,607680,200
36,24,607680,200
60,33,608640,960
54,33,608640,1140
63,24,609600,200
53,33,610560,1140
60,33,610560,960
63,24,611520,200
52,33,612480,1140
61,33,612480,960
64,24,613440,200
62,33,614400,960
52,33,614400,1140
64,24,615360,200
45,20,616320,280
52,20,616320,280
52,16,616640,280
45,16,616640,280
52,16,616960,280
45,16,616960,280
45,16,617280,840
52,16,617280,840
45,20,618240,470
52,20,618240,470
52,16,618720,470
45,16,618720,470
45,19,619200,470
52,19,619200,470
52,15,619680,470
45,15,619680,470
45,23,620160,280
54,23,620160,280
54,19,620480,280
45,19,620480,280
45,17,620800,280
54,17,620800,280
45,15,621120,840
54,15,621120,840
54,20,622080,470
45,20,622080,470
56,15,622560,470
45,15,622560,470
45,19,623040,470
54,19,623040,470
45,15,623520,470
56,15,623520,470
57,23,624000,280
45,23,624000,280
45,18,624320,280
57,18,624320,280
45,17,624640,280
57,17,624640,280
52,15,624960,840
45,15,624960,840
45,23,625920,470
52,23,625920,470
52,18,626400,470
45,18,626400,470
52,26,626880,470
45,26,626880,470
45,22,627360,470
52,22,627360,470
54,31,627840,280
45,31,627840,280
45,23,628160,280
54,23,628160,280
45,22,628480,280
54,22,628480,280
54,17,628800,840
45,17,628800,840
45,56,629760,1920
54,56,629760,480
57,53,630240,480
62,56,630720,480
66,58,631200,480
57,26,631680,280
64,26,631680,280
64,22,632000,280
57,22,632000,280
64,22,632320,280
57,22,632320,280
57,17,632640,840
64,17,632640,840
57,24,633600,470
64,24,633600,470
64,19,634080,470
57,19,634080,470
57,22,634560,470
68,22,634560,470
57,19,635040,470
66,19,635040,470
57,24,635520,280
64,24,635520,280
57,19,635840,280
64,19,635840,280
57,19,636160,280
64,19,636160,280
57,15,636480,840
64,15,636480,840
64,24,637440,470
57,24,637440,470
64,18,637920,470
57,18,637920,470
68,22,638400,470
57,22,638400,470
57,19,638880,470
66,19,638880,470
64,29,639360,280
57,29,639360,280
57,26,639680,280
64,26,639680,280
57,22,640000,280
64,22,640000,280
64,15,640320,840
57,15,640320,840
57,25,641280,470
61,25,641280,470
64,23,641760,470
57,23,641760,470
62,25,642240,470
57,25,642240,470
57,24,642720,470
64,24,642720,470
66,25,643200,280
57,25,643200,280
57,20,643520,280
66,20,643520,280
57,20,643840,280
66,20,643840,280
66,15,644160,240
57,15,644160,240
69,22,645120,280
77,22,645120,280
77,19,645440,280
69,19,645440,280
69,19,645760,280
77,19,645760,280
69,8,646080,440
77,9,646080,440
64,25,647040,280
57,25,647040,280
64,20,647360,280
57,20,647360,280
64,22,647680,280
57,22,647680,280
57,12,648000,440
64,13,648000,440
76,22,648960,280
69,22,648960,280
69,19,649280,280
76,19,649280,280
76,20,649600,280
69,20,649600,280
69,13,649920,440
76,13,649920,440
38,59,650880,280
50,59,650880,280
50,53,651200,280
38,53,651200,280
38,49,651520,280
50,49,651520,280
38,34,651840,440
50,34,651840,440
69,39,652800,470
71,39,652800,470
62,39,652800,470
69,34,653280,470
73,34,653280,470
64,34,653280,470
69,37,653760,470
66,37,653760,470
64,36,654240,470
73,36,654240,470
69,36,654240,470
64,36,654720,280
71,36,654720,280
74,36,654720,280
64,34,655040,280
71,34,655040,280
74,34,655040,280
64,29,655360,280
71,29,655360,280
74,29,655360,280
74,15,655680,440
71,15,655680,440
64,15,655680,440
64,27,656640,280
57,27,656640,280
64,24,656960,280
57,24,656960,280
64,24,657280,280
57,24,657280,280
57,23,657600,440
64,16,657600,440
50,63,658560,280
38,63,658560,280
38,55,658880,280
50,55,658880,280
38,51,659200,280
50,51,659200,280
38,35,659520,440
50,35,659520,440
62,39,660480,470
71,39,660480,470
69,39,660480,470
73,36,660960,470
69,36,660960,470
64,36,660960,470
66,39,661440,470
69,39,661440,470
64,36,661920,470
69,36,661920,470
73,36,661920,470
71,36,662400,280
74,36,662400,280
64,36,662400,280
64,33,662720,280
71,33,662720,280
74,33,662720,280
71,33,663040,280
74,33,663040,280
64,33,663040,280
64,17,663360,440
74,17,663360,440
71,17,663360,440
45,83,664320,280
33,74,664320,280
45,73,664640,280
33,66,664640,280
45,67,664960,280
33,59,664960,280
33,50,665280,440
45,57,665280,440
52,22,666240,470
45,22,666240,470
52,17,666720,470
45,17,666720,470
52,20,667200,470
45,20,667200,470
45,16,667680,470
52,16,667680,470
45,16,668160,920
53,16,668160,920
45,8,669120,240
53,8,669120,240
56,23,670080,920
45,23,670080,920
56,9,671040,240
45,9,671040,240
45,82,672000,280
33,73,672000,280
45,75,672320,280
33,68,672320,280
45,73,672640,280
33,66,672640,280
45,58,672960,440
33,51,672960,440
52,25,673920,470
45,25,673920,470
45,18,674400,470
52,18,674400,470
52,27,674880,470
45,27,674880,470
45,22,675360,470
52,22,675360,470
50,28,675840,920
45,28,675840,920
45,12,676800,360
54,16,676800,360
45,25,677760,920
52,25,677760,920
45,14,678720,360
56,18,678720,360
45,25,679680,920
57,25,679680,920
45,4,680640,360
57,12,680640,360
53,25,681600,920
50,25,681600,920
50,12,682560,360
53,12,682560,360
40,24,683520,920
48,24,683520,960
40,14,684480,360
52,29,684480,960
51,34,685440,960
52,33,686400,360
40,19,689280,920
47,33,689280,960
52,35,690240,960
40,16,690240,440
51,35,691200,960
52,34,692160,360
51,22,695040,2400
54,22,695040,2400
45,22,695040,2400
45,20,698880,2400
54,20,698880,2400
51,20,698880,2400
39,31,702720,960
51,31,702720,960
48,24,703680,180
36,24,703680,180
39,30,704640,960
51,30,704640,960
36,22,705600,180
48,22,705600,180
51,30,706560,480
39,30,706560,480
48,23,707040,180
36,23,707040,180
51,39,707520,480
39,39,707520,480
36,30,708000,180
48,30,708000,180
51,52,708480,480
39,52,708480,480
36,50,708960,180
48,50,708960,180
39,66,709440,480
51,66,709440,480
48,58,709920,180
36,58,709920,180
40,72,710400,120
52,41,710520,120
40,53,710640,120
52,38,710760,120
40,47,710880,120
52,40,711000,120
40,47,711120,120
52,37,711240,120
40,42,711360,120
52,33,711480,120
40,42,711600,120
52,35,711720,120
40,41,711840,120
52,32,711960,120
40,42,712080,120
52,31,712200,120
37,75,712320,120
49,37,712440,120
37,50,712560,120
49,35,712680,120
37,49,712800,120
49,32,712920,120
37,42,713040,120
49,33,713160,120
37,43,713280,120
49,32,713400,120
37,43,713520,120
49,33,713640,120
37,43,713760,120
49,35,713880,120
37,42,714000,120
49,37,714120,120
64,83,714240,480
52,83,714240,480
49,72,714720,180
61,72,714720,180
52,83,715200,480
64,83,715200,480
69,72,715680,180
57,72,715680,180
52,73,716160,480
64,73,716160,480
49,66,716640,180
61,66,716640,180
57,57,717120,480
45,57,717120,480
52,44,717600,180
40,44,717600,180
52,27,718080,3840
40,27,718080,3840
40,71,721920,120
52,38,722040,120
40,47,722160,120
52,35,722280,120
37,66,722400,120
49,37,722520,120
37,42,722640,120
49,35,722760,120
40,63,722880,120
52,41,723000,120
40,51,723120,120
52,38,723240,120
45,67,723360,120
57,40,723480,120
45,52,723600,120
57,40,723720,120
49,72,723840,120
61,47,723960,120
49,61,724080,120
61,48,724200,120
52,79,724320,120
64,52,724440,120
52,63,724560,120
64,56,724680,120
57,84,724800,120
69,57,724920,120
57,66,725040,120
69,53,725160,120
52,73,725280,120
64,46,725400,120
52,57,725520,120
64,45,725640,120
52,28,725760,3840
40,28,725760,3840
40,26,729600,920
45,26,729600,920
33,26,729600,920
33,13,730560,360
40,13,730560,360
45,13,730560,360
57,26,731520,920
71,26,731520,920
64,26,731520,920
57,11,732480,360
71,11,732480,360
64,11,732480,360
40,26,733440,920
33,26,733440,920
45,26,733440,920
33,12,734400,360
45,12,734400,360
40,12,734400,360
57,26,735360,920
71,26,735360,920
64,26,735360,920
64,11,736320,360
71,11,736320,360
57,11,736320,360
33,26,737280,920
40,26,737280,920
45,26,737280,920
40,12,738240,360
45,12,738240,360
33,12,738240,360
57,26,739200,920
71,26,739200,920
64,26,739200,920
64,11,740160,360
71,11,740160,360
57,11,740160,360
57,26,741120,920
71,26,741120,920
64,26,741120,920
64,11,742080,360
57,11,742080,360
71,11,742080,360
57,26,743040,920
64,26,743040,920
71,26,743040,920
57,11,744000,360
64,11,744000,360
71,11,744000,360
61,78,744960,3840
49,78,744960,3840
45,22,748800,3840
57,35,748800,3840
45,17,752640,920
40,13,752640,920
33,13,752640,920
40,13,753600,920
45,17,753600,920
33,13,753600,920
45,17,754560,1920
33,13,754560,1920
40,13,754560,1920
