note,velocity,position,duration
67,84,0,1410
79,95,0,1410
71,44,1440,360
72,38,1800,120
74,51,1920,338
74,42,2400,338
74,42,2880,338
72,46,3360,360
74,47,3720,120
75,53,3840,720
74,44,4560,240
72,39,4800,480
74,49,5280,360
72,42,5640,120
71,46,5760,480
69,44,6240,360
71,36,6600,120
72,48,6720,480
74,43,7200,360
75,44,7560,120
74,51,7680,1440
62,37,9120,241
67,37,9120,241
71,44,9120,241
63,35,9480,60
67,35,9480,60
72,42,9480,60
65,43,9600,241
67,43,9600,241
74,51,9600,241
65,35,10080,241
67,35,10080,241
74,42,10080,241
65,35,10560,241
67,35,10560,241
74,42,10560,241
63,39,11040,241
67,39,11040,241
72,39,11040,241
65,39,11400,60
67,39,11400,60
74,47,11400,60
67,45,11520,840
75,53,11520,840
65,37,12360,60
67,37,12360,60
74,44,12360,60
63,33,12480,240
67,33,12480,240
72,39,12480,240
65,41,12960,241
68,41,12960,241
74,49,12960,241
63,35,13320,60
68,42,13320,60
72,42,13320,60
62,39,13440,240
67,39,13440,240
71,46,13440,240
60,37,13920,241
67,37,13920,241
69,44,13920,241
62,30,14280,60
67,30,14280,60
71,36,14280,60
63,40,14400,240
67,40,14400,240
72,48,14400,240
67,45,14880,241
75,53,14880,241
65,37,15240,60
67,37,15240,60
74,44,15240,60
63,43,15360,1440
67,43,15360,1440
72,51,15360,1440
74,44,16800,360
75,38,17160,120
77,51,17280,338
77,42,17760,338
77,42,18240,338
75,46,18720,360
74,47,19080,120
79,53,19200,720
77,44,19920,240
75,39,20160,480
74,49,20640,360
72,42,21000,120
71,46,21120,480
69,44,21600,360
71,36,21960,120
72,48,22080,480
77,43,22560,360
75,44,22920,120
74,51,23040,1440
65,37,24480,241
70,37,24480,241
74,44,24480,241
67,35,24840,60
70,35,24840,60
75,42,24840,60
68,43,24960,241
70,43,24960,241
77,51,24960,241
68,35,25440,241
70,35,25440,241
77,42,25440,241
68,35,25920,241
70,35,25920,241
77,42,25920,241
67,39,26400,241
70,39,26400,241
75,46,26400,241
65,39,26760,60
70,39,26760,60
74,47,26760,60
70,47,26880,840
79,56,26880,840
68,41,27720,60
70,41,27720,60
77,49,27720,60
67,35,27840,240
70,35,27840,240
75,42,27840,240
65,44,28320,241
68,44,28320,241
74,52,28320,241
63,35,28680,60
68,35,28680,60
72,42,28680,60
62,39,28800,240
67,39,28800,240
71,46,28800,240
60,37,29280,241
67,37,29280,241
69,44,29280,241
62,30,29640,60
67,30,29640,60
71,36,29640,60
63,40,29760,240
67,40,29760,240
72,48,29760,240
67,45,30240,241
75,53,30240,241
65,37,30600,60
67,37,30600,60
74,44,30600,60
63,43,30720,1440
67,43,30720,1440
72,51,30720,1440
71,48,32160,360
72,41,32520,120
74,56,32640,338
68,39,33120,360
71,46,33120,360
74,46,33120,338
69,39,33600,360
72,39,33600,360
74,46,33600,338
69,39,34080,480
72,50,34080,360
74,51,34440,120
72,50,34560,60
69,49,34560,1440
74,53,34620,60
75,58,34680,600
74,48,35280,240
72,42,35520,480
69,40,36000,480
74,55,36000,360
72,48,36360,120
67,44,36480,480
71,52,36480,480
67,46,36960,360
69,54,36960,360
67,36,37320,120
71,44,37320,120
67,50,37440,480
72,59,37440,480
67,51,37920,360
74,61,37920,360
67,52,38280,120
75,62,38280,120
67,61,38400,1440
74,73,38400,1440
62,64,39840,241
67,64,39840,241
71,77,39840,241
63,61,40200,60
67,61,40200,60
72,73,40200,60
65,74,40320,241
67,74,40320,241
74,89,40320,241
65,68,40800,241
67,68,40800,241
74,81,40800,241
65,68,41280,241
67,68,41280,241
74,81,41280,241
63,68,41760,241
67,68,41760,241
72,80,41760,241
65,69,42120,60
67,69,42120,60
74,82,42120,60
67,78,42240,840
75,92,42240,840
65,64,43080,120
67,64,43080,120
74,77,43080,120
63,57,43200,240
67,57,43200,240
72,68,43200,240
65,72,43680,241
68,72,43680,241
74,85,43680,241
63,61,44040,60
68,61,44040,60
72,73,44040,60
62,68,44160,240
67,68,44160,240
71,80,44160,240
60,64,44640,241
67,64,44640,241
69,77,44640,241
62,52,45000,60
67,52,45000,60
71,62,45000,60
63,70,45120,240
67,70,45120,240
72,83,45120,240
67,78,45600,241
75,92,45600,241
65,64,45960,60
67,64,45960,60
74,77,45960,60
63,74,46080,1440
67,74,46080,1440
72,89,46080,1440
74,55,47520,360
75,47,47880,120
77,64,48000,338
71,44,48480,360
68,44,48480,360
74,44,48480,360
77,52,48480,338
68,44,48960,360
70,44,48960,360
77,52,48960,338
70,39,49440,480
68,39,49440,480
75,47,49440,60
77,47,49500,60
75,70,49560,240
74,58,49800,120
70,56,49920,480
67,56,49920,480
79,66,49920,840
74,44,50400,480
68,36,50400,480
77,55,50760,120
67,56,50880,480
75,48,50880,480
65,53,51360,360
68,46,51360,480
74,63,51360,360
63,46,51720,120
72,54,51720,120
62,50,51840,480
67,50,51840,480
71,59,51840,480
60,52,52320,360
67,52,52320,360
69,61,52320,360
62,42,52680,120
67,42,52680,120
71,50,52680,120
63,57,52800,480
67,57,52800,480
72,68,52800,480
67,59,53280,360
77,78,53280,360
67,60,53640,120
75,71,53640,120
67,71,53760,1440
74,84,53760,1440
65,70,55200,241
70,70,55200,241
74,83,55200,241
67,67,55560,60
70,67,55560,60
75,79,55560,60
68,64,55680,241
70,81,55680,241
77,96,55680,241
68,60,56160,241
70,75,56160,241
77,88,56160,241
68,60,56640,241
70,75,56640,241
77,88,56640,241
67,58,57120,241
70,73,57120,241
75,86,57120,241
65,60,57480,60
70,76,57480,60
74,89,57480,60
70,84,57600,840
79,99,57600,840
68,70,58440,120
70,70,58440,120
77,83,58440,120
67,62,58560,240
70,62,58560,240
75,74,58560,240
65,77,59040,241
68,77,59040,241
74,92,59040,241
63,67,59400,60
68,67,59400,60
72,79,59400,60
62,73,59520,240
67,73,59520,240
71,86,59520,240
60,70,60000,241
67,70,60000,241
69,83,60000,241
62,57,60360,60
67,57,60360,60
71,67,60360,60
63,76,60480,240
67,76,60480,240
72,90,60480,240
67,84,60960,241
75,99,60960,241
65,70,61320,60
67,70,61320,60
74,83,61320,60
63,81,61440,1440
67,81,61440,1440
72,96,61440,1440
75,78,62880,360
74,70,63240,120
63,71,63360,1440
68,71,63360,1440
72,83,63360,1440
72,69,64800,60
75,78,64860,300
74,70,65160,120
67,71,65280,1440
72,83,65280,1440
74,78,66720,360
75,67,67080,120
68,62,67200,480
72,62,67200,480
77,73,67200,480
67,59,67680,241
72,59,67680,241
75,70,67680,241
65,48,68040,60
74,57,68040,60
63,64,68160,480
72,76,68160,480
67,60,68640,480
62,60,68640,482
71,71,68640,482
63,57,69120,1440
67,57,69120,1440
72,68,69120,1440
75,60,70560,360
74,54,70920,120
63,55,71040,1440
68,55,71040,1440
72,65,71040,1440
75,59,72480,360
74,52,72840,120
67,51,72960,1440
72,61,72960,1440
73,54,74400,360
75,46,74760,120
73,40,74880,60
68,40,74880,480
75,43,74940,60
77,51,75000,360
68,41,75360,241
75,49,75360,241
68,33,75720,60
73,39,75720,60
68,44,75840,240
72,53,75840,240
63,37,76320,240
67,37,76320,240
61,37,76320,241
70,44,76320,241
60,39,76800,960
63,39,76800,960
68,47,76800,960
68,53,78240,360
72,47,78600,120
75,57,78720,360
75,51,79200,360
75,53,79680,360
75,52,80160,360
77,58,80640,960
75,55,81600,960
73,58,82560,960
72,52,83520,960
70,40,84480,480
73,34,84960,480
72,40,85440,480
70,37,85920,480
68,48,86400,960
68,53,87840,360
72,47,88200,120
75,57,88320,338
63,42,88800,360
75,51,88800,360
63,45,89280,360
75,53,89280,360
63,44,89760,360
75,52,89760,360
64,49,90240,960
76,58,90240,960
63,46,91200,960
75,55,91200,960
73,58,92160,960
71,52,93120,720
70,45,93840,240
68,40,94080,480
68,33,94560,60
76,52,94620,420
75,46,95040,480
73,42,95520,480
71,48,96000,1440
71,57,97440,360
75,50,97800,120
66,46,97920,479
78,62,97920,479
66,48,98400,479
78,59,98400,479
67,57,98880,479
79,67,98880,479
68,59,99360,479
80,71,99360,479
70,64,99840,479
82,79,99840,479
73,64,100320,479
85,77,100320,479
71,62,100800,479
83,74,100800,479
70,49,101280,360
82,58,101280,360
68,42,101640,120
80,51,101640,120
67,49,101760,480
79,58,101760,480
67,46,102240,480
79,55,102240,480
68,45,102720,240
80,53,102720,240
67,37,102960,240
79,45,102960,240
65,38,103200,240
77,46,103200,240
67,37,103440,240
79,45,103440,240
68,40,103680,1440
80,48,103680,1440
80,57,105120,360
84,50,105480,120
75,57,105600,360
87,68,105600,360
75,52,106080,360
87,62,106080,360
75,56,106560,360
87,67,106560,360
75,60,107040,360
87,71,107040,360
77,58,107520,479
89,69,107520,479
79,57,108000,479
91,72,108000,479
80,58,108480,479
92,69,108480,479
75,51,108960,360
87,61,108960,360
75,56,109440,480
87,66,109440,480
73,45,109920,240
85,54,109920,240
73,52,110400,480
85,62,110400,480
72,46,110880,240
84,55,110880,240
82,56,111360,480
85,50,111840,480
84,57,112320,480
82,49,112800,480
80,53,113280,160
63,48,113440,160
68,48,113600,160
72,59,113760,160
68,48,113920,160
63,49,114080,160
75,59,114240,160
72,53,114400,160
68,54,114560,160
68,59,114720,160
72,53,114880,160
75,53,115040,160
75,59,115200,160
70,53,115360,160
67,53,115520,160
75,59,115680,160
70,52,115840,160
67,52,116000,160
75,59,116160,160
72,51,116320,160
68,51,116480,160
70,62,116640,160
75,55,116800,160
79,57,116960,160
80,66,117120,160
75,59,117280,160
68,59,117440,160
80,67,117600,160
74,59,117760,160
68,59,117920,160
80,65,118080,160
75,54,118240,160
70,54,118400,150
70,61,118560,160
75,52,118720,160
79,52,118880,160
77,59,119040,160
70,51,119200,160
67,52,119360,160
77,59,119520,160
71,53,119680,160
67,53,119840,160
77,57,120000,160
72,51,120160,160
68,51,120320,150
68,59,120480,160
72,52,120640,160
75,52,120800,160
61,59,120960,160
68,54,121120,160
73,54,121280,160
65,59,121440,160
68,55,121600,160
70,56,121760,160
63,59,121920,160
68,54,122080,160
72,54,122240,160
63,59,122400,480
67,70,122400,480
75,63,122560,160
73,67,122720,160
63,60,122880,160
68,60,122880,160
72,71,122880,160
63,59,123040,160
68,59,123200,160
72,67,123360,160
68,56,123520,160
63,56,123680,160
75,66,123840,160
72,57,124000,160
68,57,124160,150
68,68,124320,160
72,60,124480,160
75,60,124640,160
75,69,124800,160
70,59,124960,160
67,59,125120,160
75,70,125280,160
70,57,125440,160
67,57,125600,160
75,71,125760,160
71,61,125920,160
68,59,126080,160
70,68,126240,160
75,62,126400,160
79,63,126560,160
80,68,126720,160
75,58,126880,160
68,58,127040,160
80,67,127200,160
73,59,127360,160
70,59,127520,160
80,67,127680,160
75,57,127840,160
71,57,128000,150
71,65,128160,160
75,57,128320,160
78,57,128480,160
76,65,128640,160
71,55,128800,160
67,55,128960,160
76,62,129120,160
70,53,129280,160
67,53,129440,160
76,64,129600,160
71,55,129760,160
68,55,129920,150
68,65,130080,160
71,56,130240,160
75,56,130400,160
68,66,130560,160
71,59,130720,160
73,57,130880,160
68,67,131040,160
71,56,131200,160
76,56,131360,160
66,66,131520,160
71,56,131680,160
75,56,131840,160
66,56,132000,480
70,67,132000,480
78,57,132160,160
76,57,132320,160
66,53,132480,160
71,53,132480,160
75,53,132480,160
63,48,132640,160
66,48,132800,160
71,59,132960,160
66,48,133120,160
63,49,133280,160
75,59,133440,160
71,53,133600,160
66,54,133760,160
71,59,133920,160
75,53,134080,160
78,53,134240,160
66,46,134400,360
78,62,134400,360
66,48,134880,479
78,59,134880,479
67,57,135360,479
79,67,135360,479
68,60,135840,479
80,72,135840,479
70,64,136320,479
82,79,136320,479
73,64,136800,479
85,77,136800,479
71,62,137280,479
83,74,137280,479
70,49,137760,360
82,58,137760,360
68,42,138120,120
80,51,138120,120
67,49,138240,480
79,58,138240,480
67,46,138720,480
79,55,138720,480
68,45,139200,240
80,53,139200,240
67,37,139440,240
79,45,139440,240
65,38,139680,240
77,46,139680,240
67,37,139920,240
79,45,139920,240
68,40,140160,960
80,48,140160,960
73,53,141120,252
72,53,141360,252
71,53,141600,252
72,53,141840,240
72,48,142080,120
77,48,142200,840
72,53,143040,252
70,53,143280,252
69,53,143520,252
70,53,143760,240
70,48,144000,120
75,48,144120,840
73,58,144960,252
72,60,145200,252
70,63,145440,252
68,66,145680,240
67,57,145920,240
75,68,145920,240
65,56,146160,240
73,66,146160,240
63,53,146400,240
72,63,146400,240
61,51,146640,240
70,60,146640,240
60,49,146880,480
68,58,146880,480
63,55,147360,360
72,55,147360,360
61,54,147720,120
70,54,147720,120
60,40,147840,480
68,48,147840,480
73,53,148800,252
72,53,149040,252
71,53,149280,252
72,53,149520,240
84,53,149760,252
77,48,149760,960
82,53,150000,252
81,53,150240,252
82,53,150480,240
72,53,150720,252
70,53,150960,252
69,53,151200,252
70,53,151440,240
82,58,151680,240
75,48,151680,960
80,60,151920,240
79,63,152160,240
80,66,152400,240
73,58,152640,252
72,60,152880,252
70,63,153120,252
68,66,153360,240
75,57,153600,240
67,57,153600,240
79,68,153600,240
73,56,153840,240
65,56,153840,240
77,66,153840,240
72,53,154080,240
63,53,154080,240
75,63,154080,240
70,51,154320,240
61,51,154320,240
73,60,154320,240
72,58,154560,480
60,49,154560,480
68,49,154560,480
61,46,155040,480
67,46,155040,480
73,55,155040,360
70,54,155400,120
56,40,155520,1440
63,40,155520,1440
60,40,155520,1440
68,48,155520,1440
60,40,156960,360
63,37,157320,120
56,37,157440,360
68,44,157440,360
56,34,157920,360
68,40,157920,360
56,34,158400,360
68,40,158400,360
56,34,158880,360
68,40,158880,360
55,40,159360,1440
67,48,159360,1440
60,40,160800,360
63,37,161160,120
55,37,161280,360
67,44,161280,360
67,43,161760,360
55,37,161760,360
55,42,162240,360
67,50,162240,360
55,47,162720,360
67,56,162720,360
53,60,163200,960
65,73,163200,960
54,60,164160,960
66,73,164160,960
67,39,165120,120
55,39,165120,120
55,22,165280,120
67,27,165280,120
55,22,165440,120
67,27,165440,120
55,25,165600,120
67,30,165600,120
55,25,165760,120
67,30,165760,120
55,25,165920,120
67,30,165920,120
55,32,166080,120
67,38,166080,120
55,24,166240,120
67,28,166240,120
55,25,166400,120
67,30,166400,120
55,33,166560,120
67,39,166560,120
55,25,166720,120
67,30,166720,120
55,25,166880,120
67,30,166880,120
67,39,167040,120
55,39,167040,120
55,22,167200,120
67,27,167200,120
55,22,167360,120
67,27,167360,120
55,25,167520,120
67,30,167520,120
55,25,167680,120
67,30,167680,120
55,25,167840,120
67,30,167840,120
55,32,168000,120
67,38,168000,120
55,24,168160,120
67,28,168160,120
55,25,168320,120
67,30,168320,120
55,33,168480,120
67,39,168480,120
55,25,168640,120
67,30,168640,120
55,25,168800,120
67,30,168800,120
67,39,168960,120
55,39,168960,120
55,22,169120,120
67,27,169120,120
55,22,169280,120
67,27,169280,120
55,25,169440,120
67,30,169440,120
55,25,169600,120
67,30,169600,120
55,25,169760,120
67,30,169760,120
55,32,169920,120
67,38,169920,120
55,24,170080,120
67,28,170080,120
55,25,170240,120
67,30,170240,120
55,33,170400,120
67,39,170400,120
55,25,170560,120
67,30,170560,120
53,25,170720,120
65,30,170720,120
63,39,170880,120
60,39,170880,120
67,39,170880,120
55,39,170880,120
63,22,171040,120
60,22,171040,120
55,22,171040,120
67,27,171040,120
63,22,171200,120
60,22,171200,120
55,22,171200,120
67,27,171200,120
63,22,171360,120
60,22,171360,120
55,25,171360,120
67,30,171360,120
63,22,171520,120
60,22,171520,120
55,25,171520,120
67,30,171520,120
63,22,171680,120
60,22,171680,120
55,25,171680,120
67,30,171680,120
62,32,171840,120
59,32,171840,120
55,32,171840,120
67,38,171840,120
62,32,172000,120
59,32,172000,120
55,24,172000,120
67,28,172000,120
62,32,172160,120
59,32,172160,120
55,25,172160,120
67,30,172160,120
62,33,172320,120
59,33,172320,120
55,33,172320,120
67,39,172320,120
62,25,172480,120
59,25,172480,120
55,25,172480,120
67,30,172480,120
62,25,172640,120
59,25,172640,120
55,25,172640,120
67,30,172640,120
63,39,172800,120
60,39,172800,120
67,39,172800,120
55,39,172800,120
55,22,172960,120
67,27,172960,120
55,22,173120,120
67,27,173120,120
55,28,173280,120
67,34,173280,120
55,29,173440,120
67,35,173440,120
55,30,173600,120
67,36,173600,120
55,40,173760,120
67,48,173760,120
55,32,173920,120
67,36,173920,120
55,34,174080,120
67,41,174080,120
55,47,174240,120
67,56,174240,120
55,36,174400,120
67,43,174400,120
55,37,174560,120
67,44,174560,120
67,59,174720,120
55,59,174720,120
55,33,174880,120
67,41,174880,120
55,33,175040,120
67,41,175040,120
55,37,175200,120
67,46,175200,120
55,37,175360,120
67,46,175360,120
55,37,175520,120
67,46,175520,120
55,49,175680,120
67,58,175680,120
55,36,175840,120
67,42,175840,120
55,37,176000,120
67,46,176000,120
56,55,176160,120
68,65,176160,120
56,42,176320,120
68,52,176320,120
56,44,176480,120
68,55,176480,120
67,70,176640,120
55,70,176640,120
55,40,176800,120
67,50,176800,120
55,40,176960,120
67,50,176960,120
55,46,177120,120
67,55,177120,120
55,44,177280,120
67,55,177280,120
55,44,177440,120
67,54,177440,120
55,57,177600,120
67,69,177600,120
55,42,177760,120
67,49,177760,120
55,42,177920,120
67,52,177920,120
55,57,178080,120
67,67,178080,120
55,42,178240,120
67,51,178240,120
53,41,178400,120
65,50,178400,120
63,59,178560,120
60,59,178560,120
67,59,178560,120
55,59,178560,120
63,33,178720,120
60,33,178720,120
55,33,178720,120
67,41,178720,120
63,33,178880,120
60,33,178880,120
55,33,178880,120
67,41,178880,120
63,33,179040,120
60,33,179040,120
55,37,179040,120
67,46,179040,120
63,33,179200,120
60,33,179200,120
55,37,179200,120
67,46,179200,120
63,33,179360,120
60,33,179360,120
55,37,179360,120
67,46,179360,120
62,49,179520,120
59,49,179520,120
55,49,179520,120
67,58,179520,120
62,49,179680,120
59,49,179680,120
55,36,179680,120
67,42,179680,120
62,49,179840,120
59,49,179840,120
55,37,179840,120
67,46,179840,120
62,50,180000,120
59,50,180000,120
55,50,180000,120
67,59,180000,120
62,37,180160,120
59,37,180160,120
55,37,180160,120
67,46,180160,120
62,37,180320,120
59,37,180320,120
55,37,180320,120
67,46,180320,120
55,40,180480,960
60,40,180480,960
63,40,180480,960
67,48,180480,960
71,44,181920,360
72,38,182280,120
74,51,182400,338
65,35,182880,360
74,42,182880,338
68,35,183360,360
74,42,183360,338
72,46,183840,360
74,47,184200,120
75,53,184320,720
63,39,184800,480
74,44,185040,240
67,33,185280,480
72,39,185280,480
74,49,185760,360
72,42,186120,120
71,46,186240,480
65,37,186720,480
69,44,186720,360
71,36,187080,120
63,37,187200,480
72,48,187200,480
60,37,187680,480
74,43,187680,360
75,44,188040,120
68,47,188160,120
74,51,188160,1440
67,43,188280,1320
59,52,189600,360
67,52,189600,360
71,62,189600,360
60,50,189960,120
69,50,189960,120
72,60,189960,120
62,61,190080,480
71,61,190080,480
74,73,190080,480
62,55,190560,480
71,55,190560,480
74,66,190560,480
62,55,191040,480
71,55,191040,480
74,66,191040,480
60,63,191520,360
67,64,191520,360
72,66,191520,360
62,55,191880,120
67,55,191880,120
74,67,191880,120
67,64,192000,960
63,64,192000,840
75,75,192000,840
62,69,192840,120
74,69,192840,120
60,60,192960,480
67,64,192960,480
72,76,192960,480
66,58,193440,480
62,58,193440,480
74,69,193440,360
72,60,193800,120
62,55,193920,480
65,55,193920,480
71,66,193920,480
62,52,194400,480
67,52,194400,360
71,62,194400,480
68,51,194760,120
60,57,194880,480
67,59,194880,480
72,73,194880,480
65,64,195360,480
71,64,195360,480
75,75,195360,360
74,62,195720,120
63,61,195840,1440
72,73,195840,1440
74,44,197280,360
75,38,197640,120
77,51,197760,480
65,35,198240,480
77,42,198240,480
68,35,198720,480
77,42,198720,480
75,46,199200,360
74,47,199560,120
79,53,199680,720
67,50,200160,360
77,44,200400,240
68,53,200520,120
75,39,200640,480
74,49,201120,360
72,42,201480,120
71,46,201600,480
68,41,202080,240
71,44,202080,480
67,40,202320,240
65,41,202560,240
72,48,202560,480
63,41,202800,240
62,41,203040,240
77,43,203040,360
60,41,203280,240
75,44,203400,120
68,41,203520,120
74,51,203520,1440
67,47,203640,1320
74,62,204960,360
75,60,205320,120
65,61,205440,480
74,61,205440,480
77,73,205440,480
65,50,205920,480
74,50,205920,480
77,60,205920,480
65,50,206400,480
74,50,206400,480
77,60,206400,480
67,63,206880,360
75,63,206880,360
79,63,206880,360
68,55,207240,120
77,55,207240,120
80,67,207240,120
79,64,207360,480
70,64,207360,480
82,75,207360,480
68,69,207840,480
80,69,207840,480
75,64,208320,480
79,76,208320,480
65,58,208800,480
77,69,208800,360
74,60,209160,120
62,55,209280,480
65,55,209280,480
71,66,209280,480
62,52,209760,480
67,52,209760,360
71,62,209760,480
68,51,210120,120
60,57,210240,480
67,59,210240,480
72,73,210240,480
65,64,210720,480
71,64,210720,480
75,75,210720,360
74,62,211080,120
63,64,211200,1440
72,76,211200,1440
60,72,212640,144
72,86,212640,144
60,72,212800,144
72,86,212800,144
60,72,212960,144
72,86,212960,144
84,94,213120,1440
80,79,213120,1440
74,79,213120,1440
72,79,213120,1440
60,71,214560,144
72,83,214560,144
60,71,214720,144
72,83,214720,144
60,71,214880,144
72,83,214880,144
84,95,215040,1440
79,80,215040,1440
75,80,215040,1440
72,80,215040,1440
60,71,216480,144
72,83,216480,144
60,71,216640,144
72,83,216640,144
60,71,216800,144
72,83,216800,144
73,90,216960,480
65,77,216960,480
61,77,216960,480
65,74,217440,360
77,88,217440,360
68,66,217800,120
80,79,217800,120
67,75,217920,480
72,75,217920,480
75,75,217920,480
79,89,217920,480
67,71,218400,480
71,71,218400,480
74,71,218400,480
79,83,218400,480
67,64,218880,1440
60,64,218880,1440
63,64,218880,1440
72,76,218880,1440
60,72,220320,144
72,86,220320,144
60,72,220480,144
72,86,220480,144
60,72,220640,144
72,86,220640,144
84,94,220800,1440
74,79,220800,1440
72,79,220800,1440
60,71,222240,144
72,83,222240,144
60,71,222400,144
72,83,222400,144
60,71,222560,144
72,83,222560,144
84,95,222720,1440
79,80,222720,1440
72,80,222720,1440
60,71,224160,144
72,83,224160,144
60,71,224320,144
72,83,224320,144
60,71,224480,144
72,83,224480,144
73,90,224640,480
65,77,224640,480
61,77,224640,480
65,74,225120,360
77,88,225120,360
68,66,225480,120
80,79,225480,120
67,75,225600,480
72,75,225600,480
75,75,225600,480
79,89,225600,480
67,71,226080,480
71,71,226080,480
74,71,226080,480
79,83,226080,480
67,64,226560,1440
60,64,226560,1440
63,64,226560,1440
72,76,226560,1440
60,68,228000,120
72,57,228000,120
60,63,228160,120
72,53,228160,120
60,63,228320,120
72,53,228320,120
61,62,228480,120
72,52,228480,120
72,46,228640,120
61,55,228640,120
61,55,228800,120
72,46,228800,120
62,58,228960,120
72,49,228960,120
72,42,229120,120
62,50,229120,120
62,50,229280,120
72,42,229280,120
72,46,229440,120
63,55,229440,120
72,42,229600,120
63,50,229600,120
63,54,229760,120
72,45,229760,120
64,54,229920,120
72,49,229920,120
72,37,230080,120
64,44,230080,120
72,37,230240,120
64,44,230240,120
64,47,230400,120
72,39,230400,120
64,37,230560,120
72,31,230560,120
64,37,230720,120
72,31,230720,120
64,46,230880,120
72,38,230880,120
64,37,231040,120
72,30,231040,120
64,36,231200,120
72,30,231200,120
65,45,231360,120
72,38,231360,120
65,36,231520,120
72,29,231520,120
65,35,231680,120
72,29,231680,120
63,31,231840,120
66,31,231840,120
72,37,231840,120
63,26,232000,120
66,26,232000,120
72,31,232000,120
63,26,232160,120
66,26,232160,120
72,31,232160,120
63,31,232320,120
66,31,232320,120
72,37,232320,120
62,27,232480,120
66,27,232480,120
72,32,232480,120
62,27,232640,120
66,27,232640,120
72,32,232640,120
62,31,232800,120
66,31,232800,120
72,37,232800,120
62,26,232960,120
66,26,232960,120
72,31,232960,120
62,26,233120,120
66,26,233120,120
72,31,233120,120
62,31,233280,120
67,31,233280,120
72,37,233280,120
62,27,233440,120
67,27,233440,120
72,32,233440,120
62,27,233600,120
67,27,233600,120
72,32,233600,120
62,31,233760,120
67,31,233760,120
70,37,233760,120
62,27,233920,120
67,27,233920,120
70,32,233920,120
62,27,234080,120
67,27,234080,120
70,32,234080,120
60,31,234240,120
63,31,234240,120
70,37,234240,120
60,26,234400,120
63,26,234400,120
70,31,234400,120
60,26,234560,120
63,26,234560,120
70,31,234560,120
60,31,234720,120
63,31,234720,120
69,37,234720,120
60,27,234880,120
63,27,234880,120
69,32,234880,120
60,27,235040,120
63,27,235040,120
69,32,235040,120
58,31,235200,120
62,31,235200,120
67,37,235200,120
58,26,235360,120
62,26,235360,120
67,31,235360,120
58,26,235520,120
62,26,235520,120
67,31,235520,120
57,31,235680,120
62,31,235680,120
66,37,235680,120
57,27,235840,120
62,27,235840,120
66,32,235840,120
57,27,236000,120
62,27,236000,120
66,32,236000,120
58,31,236160,960
62,31,236160,960
67,37,236160,960
67,39,237600,360
70,39,237960,120
74,44,238080,480
62,29,238200,132
67,30,238320,132
70,28,238440,120
74,40,238560,480
62,28,238680,132
67,30,238800,132
70,28,238920,120
74,45,239040,480
62,27,239160,132
66,30,239280,132
69,28,239400,120
74,46,239520,480
62,27,239640,132
67,30,239760,132
70,26,239880,120
75,51,240000,960
63,31,240120,132
67,33,240240,132
72,31,240360,132
66,36,240480,132
72,27,240600,132
69,30,240720,132
66,27,240840,120
74,41,240960,960
62,27,241080,132
67,30,241200,132
70,26,241320,132
62,30,241440,132
70,28,241560,132
67,30,241680,132
62,27,241800,120
72,50,241920,960
60,28,242040,132
63,30,242160,132
66,28,242280,132
60,30,242400,132
66,30,242520,132
63,30,242640,132
60,27,242760,120
70,45,242880,960
58,27,243000,132
62,30,243120,132
67,27,243240,132
58,30,243360,132
67,28,243480,132
62,30,243600,132
58,28,243720,120
69,50,243840,480
57,28,243960,132
60,30,244080,132
67,28,244200,120
72,46,244320,480
63,29,244440,132
67,30,244560,132
69,28,244680,120
70,49,244800,480
58,27,244920,132
62,30,245040,132
67,27,245160,120
69,45,245280,480
60,26,245400,132
62,30,245520,132
66,27,245640,120
67,50,245760,1440
55,28,245880,132
58,32,246000,132
62,34,246120,132
63,35,246240,132
60,37,246360,132
57,39,246480,132
63,44,246600,132
62,44,246720,132
58,33,246840,132
62,37,246960,132
66,28,247080,132
67,34,247200,132
62,26,247320,132
67,30,247440,132
70,26,247560,120
74,44,247680,480
62,29,247800,132
67,30,247920,132
70,28,248040,120
74,40,248160,480
62,28,248280,132
67,30,248400,132
70,28,248520,120
74,45,248640,480
62,27,248760,132
66,30,248880,132
69,28,249000,120
74,46,249120,480
62,27,249240,132
67,30,249360,132
70,26,249480,120
75,51,249600,960
63,31,249720,132
67,33,249840,132
72,31,249960,132
69,41,250080,132
72,33,250200,132
69,41,250320,132
65,34,250440,120
74,57,250560,960
62,34,250680,132
65,40,250800,132
70,33,250920,132
65,41,251040,132
70,28,251160,132
65,35,251280,132
62,27,251400,120
72,60,251520,960
60,35,251640,132
63,39,251760,132
69,28,251880,132
66,40,252000,132
69,27,252120,132
66,30,252240,132
62,27,252360,120
70,45,252480,960
58,27,252600,132
62,30,252720,132
67,27,252840,132
58,30,252960,132
67,28,253080,132
62,30,253200,132
58,28,253320,120
67,50,253440,480
63,28,253560,132
62,30,253680,132
60,28,253800,120
75,46,253920,480
63,29,254040,132
67,30,254160,132
72,28,254280,120
74,49,254400,480
62,27,254520,132
65,30,254640,132
70,27,254760,120
72,45,254880,480
63,26,255000,132
65,30,255120,132
69,27,255240,120
70,50,255360,1440
58,28,255480,132
62,32,255600,132
65,34,255720,132
66,35,255840,132
63,37,255960,132
60,39,256080,132
66,44,256200,132
65,44,256320,132
62,33,256440,132
65,37,256560,132
69,34,256680,132
70,40,256800,132
65,43,256920,132
70,46,257040,132
74,49,257160,120
65,41,257280,360
77,55,257280,360
65,44,257760,479
77,54,257760,479
66,54,258240,479
78,64,258240,479
67,60,258720,479
79,72,258720,479
69,61,259200,479
81,75,259200,479
72,64,259680,479
84,78,259680,479
70,63,260160,479
82,77,260160,479
69,49,260640,360
81,58,260640,360
67,42,261000,120
79,51,261000,120
66,49,261120,480
78,58,261120,480
66,46,261600,480
78,55,261600,480
67,45,262080,240
79,53,262080,240
66,37,262320,240
78,45,262320,240
64,38,262560,240
76,46,262560,240
66,37,262800,240
78,45,262800,240
67,40,263040,960
79,48,263040,960
67,53,264120,120
70,55,264240,120
74,57,264360,120
79,59,264480,120
70,61,264600,120
74,63,264720,120
79,65,264840,120
69,63,265200,120
74,63,265200,120
78,74,265200,120
81,74,265680,120
72,63,265680,120
74,63,265680,120
70,63,266160,120
74,63,266160,120
79,74,266160,120
69,63,266640,120
74,63,266640,120
78,74,266640,120
67,65,267120,120
74,65,267120,120
79,78,267120,120
67,66,267360,120
72,66,267360,120
79,79,267360,120
85,83,267600,120
79,71,267600,120
73,71,267600,120
86,83,268080,120
81,83,268080,120
79,71,268080,120
74,71,268080,120
74,69,268320,120
78,69,268320,120
81,69,268320,120
86,81,268320,120
66,66,268560,120
69,66,268560,120
74,79,268560,120
63,63,269040,120
70,63,269040,120
75,74,269040,120
63,69,269280,120
69,69,269280,120
75,81,269280,120
81,74,269520,120
75,63,269520,120
69,63,269520,120
82,74,270000,120
77,63,270000,120
75,63,270000,120
70,63,270000,120
70,66,270240,120
74,66,270240,120
77,66,270240,120
82,79,270240,120
62,63,270480,120
65,63,270480,120
70,74,270480,120
63,63,270960,120
67,63,270960,120
72,74,270960,120
66,63,271440,120
69,63,271440,120
75,74,271440,120
67,65,271920,120
70,65,271920,120
74,78,271920,120
72,66,272400,120
74,66,272400,120
78,79,272400,120
70,69,272880,240
74,69,272880,240
79,81,272880,240
62,67,273120,240
70,67,273120,240
74,80,273120,240
62,65,273360,240
69,65,273360,240
72,78,273360,240
62,64,273600,240
67,64,273600,240
70,64,273600,240
67,63,273840,240
70,63,273840,240
74,74,273840,240
70,63,274080,240
74,63,274080,240
79,74,274080,240
67,63,274320,240
70,63,274320,240
74,74,274320,240
66,63,274800,120
69,63,274800,120
74,74,274800,120
81,74,275280,120
72,63,275280,120
74,63,275280,120
70,63,275760,120
74,63,275760,120
79,74,275760,120
69,63,276240,120
74,63,276240,120
78,74,276240,120
67,65,276720,120
74,65,276720,120
79,78,276720,120
67,66,276960,120
72,66,276960,120
79,79,276960,120
85,83,277200,120
79,71,277200,120
73,71,277200,120
86,83,277680,120
81,83,277680,120
79,71,277680,120
74,71,277680,120
74,69,277920,120
77,69,277920,120
81,69,277920,120
86,81,277920,120
65,66,278160,120
69,66,278160,120
74,79,278160,120
63,63,278640,120
70,63,278640,120
75,74,278640,120
63,69,278880,120
69,69,278880,120
75,81,278880,120
81,74,279120,120
75,63,279120,120
69,63,279120,120
82,74,279600,120
77,63,279600,120
75,63,279600,120
70,63,279600,120
70,66,279840,120
74,66,279840,120
77,66,279840,120
82,79,279840,120
65,63,280080,120
72,74,280080,120
63,63,280560,120
70,63,280560,120
75,74,280560,120
67,63,281040,120
70,63,281040,120
72,74,281040,120
65,65,281520,120
70,65,281520,120
77,78,281520,120
69,50,282000,120
75,66,282000,120
77,66,282000,120
81,79,282000,120
75,69,282480,240
70,69,282480,240
77,69,282480,240
82,81,282480,240
74,67,282720,240
70,67,282720,240
77,67,282720,240
82,80,282720,240
70,65,282960,240
74,65,282960,240
77,78,282960,240
65,54,283200,240
70,54,283200,240
74,64,283200,240
62,53,283440,240
65,53,283440,240
70,63,283440,240
58,46,283680,360
70,55,283680,360
62,46,284040,120
74,55,284040,120
65,41,284160,360
77,55,284160,360
65,44,284640,479
77,54,284640,479
66,53,285120,479
78,63,285120,479
67,57,285600,479
79,68,285600,479
69,58,286080,479
81,71,286080,479
72,60,286560,479
84,72,286560,479
70,58,287040,479
82,70,287040,479
69,49,287520,360
81,58,287520,360
67,42,287880,120
79,51,287880,120
66,49,288000,480
78,58,288000,480
66,46,288480,480
78,55,288480,480
67,45,288960,240
79,53,288960,240
66,37,289200,240
78,45,289200,240
64,38,289440,240
76,46,289440,240
66,37,289680,240
78,45,289680,240
67,40,289920,960
79,48,289920,960
72,53,290880,252
71,53,291120,252
70,53,291360,252
71,53,291600,240
71,48,291840,120
76,48,291960,840
71,53,292800,252
69,53,293040,252
68,53,293280,252
69,53,293520,240
69,48,293760,120
74,48,293880,840
72,58,294720,252
71,60,294960,252
69,63,295200,252
67,66,295440,240
66,57,295680,240
74,68,295680,240
64,56,295920,240
72,66,295920,240
62,53,296160,240
71,63,296160,240
60,51,296400,240
69,60,296400,240
59,49,296640,480
67,58,296640,480
62,55,297120,360
71,55,297120,360
60,54,297480,120
69,54,297480,120
59,40,297600,480
67,48,297600,480
72,53,298560,252
71,53,298800,252
70,53,299040,252
71,53,299280,240
83,53,299520,252
76,48,299520,960
81,53,299760,252
80,53,300000,252
81,53,300240,240
71,53,300480,252
69,53,300720,252
68,53,300960,252
69,53,301200,240
81,58,301440,240
74,48,301440,960
79,60,301680,240
78,63,301920,240
79,66,302160,240
72,58,302400,252
71,60,302640,252
69,63,302880,252
67,66,303120,240
74,57,303360,240
66,57,303360,240
78,68,303360,240
72,56,303600,240
64,56,303600,240
76,66,303600,240
71,53,303840,240
62,53,303840,240
74,63,303840,240
69,51,304080,240
60,51,304080,240
72,60,304080,240
71,58,304320,480
59,49,304320,480
67,49,304320,480
60,46,304800,480
66,46,304800,480
72,55,304800,360
69,54,305160,120
67,39,305280,120
55,39,305280,120
55,22,305440,120
67,27,305440,120
55,22,305600,120
67,27,305600,120
55,25,305760,120
67,30,305760,120
55,25,305920,120
67,30,305920,120
55,25,306080,120
67,30,306080,120
55,32,306240,120
67,38,306240,120
55,24,306400,120
67,28,306400,120
55,25,306560,120
67,30,306560,120
55,33,306720,120
67,39,306720,120
55,25,306880,120
67,30,306880,120
55,25,307040,120
67,30,307040,120
67,39,307200,120
55,39,307200,120
55,22,307360,120
67,27,307360,120
55,22,307520,120
67,27,307520,120
55,25,307680,120
67,30,307680,120
55,25,307840,120
67,30,307840,120
55,25,308000,120
67,30,308000,120
55,32,308160,120
67,38,308160,120
55,24,308320,120
67,28,308320,120
55,25,308480,120
67,30,308480,120
55,33,308640,120
67,39,308640,120
55,25,308800,120
67,30,308800,120
55,25,308960,120
67,30,308960,120
67,39,309120,120
55,39,309120,120
55,22,309280,120
67,27,309280,120
55,22,309440,120
67,27,309440,120
55,25,309600,120
67,30,309600,120
55,25,309760,120
67,30,309760,120
55,25,309920,120
67,30,309920,120
55,32,310080,120
67,38,310080,120
55,24,310240,120
67,28,310240,120
55,25,310400,120
67,30,310400,120
55,33,310560,120
67,39,310560,120
55,25,310720,120
67,30,310720,120
53,25,310880,120
65,30,310880,120
63,39,311040,120
60,39,311040,120
67,39,311040,120
55,39,311040,120
63,22,311200,120
60,22,311200,120
55,22,311200,120
67,27,311200,120
63,22,311360,120
60,22,311360,120
55,22,311360,120
67,27,311360,120
63,22,311520,120
60,22,311520,120
55,25,311520,120
67,30,311520,120
63,22,311680,120
60,22,311680,120
55,25,311680,120
67,30,311680,120
63,22,311840,120
60,22,311840,120
55,25,311840,120
67,30,311840,120
62,32,312000,120
59,32,312000,120
55,32,312000,120
67,38,312000,120
62,32,312160,120
59,32,312160,120
55,24,312160,120
67,28,312160,120
62,32,312320,120
59,32,312320,120
55,25,312320,120
67,30,312320,120
62,33,312480,120
59,33,312480,120
55,33,312480,120
67,39,312480,120
62,25,312640,120
59,25,312640,120
55,25,312640,120
67,30,312640,120
62,25,312800,120
59,25,312800,120
55,25,312800,120
67,30,312800,120
63,39,312960,120
60,39,312960,120
67,39,312960,120
55,39,312960,120
55,22,313120,120
67,27,313120,120
55,22,313280,120
67,27,313280,120
55,28,313440,120
67,34,313440,120
55,29,313600,120
67,35,313600,120
55,30,313760,120
67,36,313760,120
55,40,313920,120
67,48,313920,120
55,32,314080,120
67,36,314080,120
55,34,314240,120
67,41,314240,120
55,47,314400,120
67,56,314400,120
55,36,314560,120
67,43,314560,120
55,37,314720,120
67,44,314720,120
67,59,314880,120
55,59,314880,120
55,33,315040,120
67,41,315040,120
55,33,315200,120
67,41,315200,120
55,37,315360,120
67,46,315360,120
55,37,315520,120
67,46,315520,120
55,37,315680,120
67,46,315680,120
55,49,315840,120
67,58,315840,120
55,36,316000,120
67,42,316000,120
55,37,316160,120
67,46,316160,120
56,55,316320,120
68,65,316320,120
56,42,316480,120
68,52,316480,120
56,44,316640,120
68,55,316640,120
67,70,316800,120
55,70,316800,120
55,40,316960,120
67,50,316960,120
55,40,317120,120
67,50,317120,120
55,46,317280,120
67,55,317280,120
55,44,317440,120
67,55,317440,120
55,44,317600,120
67,54,317600,120
55,57,317760,120
67,69,317760,120
55,42,317920,120
67,49,317920,120
55,42,318080,120
67,52,318080,120
55,57,318240,120
67,67,318240,120
55,42,318400,120
67,51,318400,120
53,41,318560,120
65,50,318560,120
64,59,318720,120
60,59,318720,120
67,59,318720,120
55,59,318720,120
64,33,318880,120
60,33,318880,120
55,33,318880,120
67,41,318880,120
64,33,319040,120
60,33,319040,120
55,33,319040,120
67,41,319040,120
64,33,319200,120
60,33,319200,120
55,37,319200,120
67,46,319200,120
64,33,319360,120
60,33,319360,120
55,37,319360,120
67,46,319360,120
64,33,319520,120
60,33,319520,120
55,37,319520,120
67,46,319520,120
62,49,319680,120
59,49,319680,120
55,49,319680,120
67,58,319680,120
62,49,319840,120
59,49,319840,120
55,36,319840,120
67,42,319840,120
62,49,320000,120
59,49,320000,120
55,37,320000,120
67,46,320000,120
62,50,320160,120
59,50,320160,120
55,50,320160,120
67,59,320160,120
62,37,320320,120
59,37,320320,120
55,37,320320,120
67,46,320320,120
62,37,320480,120
59,37,320480,120
55,37,320480,120
67,46,320480,120
55,40,320640,960
60,40,320640,960
64,40,320640,960
67,48,320640,960
62,37,322080,360
67,37,322080,360
71,44,322080,360
64,32,322440,120
67,32,322440,120
72,38,322440,120
65,35,322560,360
67,35,322560,360
74,51,322560,338
67,35,323040,360
65,35,323040,360
74,42,323040,338
65,35,323520,360
67,35,323520,360
74,42,323520,338
64,39,324000,360
67,39,324000,360
72,46,324000,360
65,39,324360,120
67,39,324360,120
74,47,324360,120
67,45,324480,720
76,53,324480,720
65,37,325200,240
67,37,325200,240
74,44,325200,240
64,33,325440,480
67,33,325440,480
72,39,325440,480
65,41,325920,360
67,41,325920,360
74,49,325920,360
64,35,326280,120
67,35,326280,120
72,42,326280,120
62,39,326400,480
67,39,326400,480
71,46,326400,480
60,37,326880,360
67,37,326880,360
69,44,326880,360
62,30,327240,120
67,30,327240,120
71,36,327240,120
64,40,327360,480
67,40,327360,480
72,48,327360,480
67,36,327840,360
71,36,327840,360
74,43,327840,360
67,37,328200,120
72,37,328200,120
76,44,328200,120
71,43,328320,1440
67,43,328320,1440
74,51,328320,1440
59,52,329760,360
67,52,329760,360
71,62,329760,360
60,50,330120,120
69,50,330120,120
72,60,330120,120
62,61,330240,480
71,61,330240,480
74,73,330240,480
62,50,330720,480
71,50,330720,480
74,60,330720,480
62,50,331200,480
71,50,331200,480
74,60,331200,480
64,49,331680,360
72,51,331680,360
76,61,331680,360
65,46,332040,120
74,46,332040,120
77,67,332040,120
76,54,332160,480
67,54,332160,480
79,75,332160,480
74,58,332640,480
71,58,332640,480
77,69,332640,480
72,54,333120,480
76,76,333120,480
69,58,333600,360
77,69,333600,360
65,51,333960,120
69,51,333960,120
74,60,333960,120
62,55,334080,480
65,55,334080,480
71,66,334080,480
65,55,334560,480
71,66,334560,480
62,55,334560,480
71,66,335040,480
65,55,335040,480
62,55,335040,480
76,75,335520,360
67,64,335520,360
65,52,335880,120
67,52,335880,120
74,62,335880,120
67,61,336000,960
64,61,336000,960
72,73,336000,960
83,52,337440,360
84,45,337800,120
86,61,337920,480
77,35,338400,480
80,35,338400,480
83,35,338400,480
86,50,338400,480
78,35,338880,480
81,35,338880,480
84,35,338880,480
86,50,338880,480
78,35,339360,480
81,35,339360,480
84,55,339360,360
86,56,339720,120
78,35,339840,1440
81,35,339840,1440
87,63,339840,720
86,52,340560,240
84,46,340800,480
74,35,341280,480
81,35,341280,480
86,58,341280,360
84,50,341640,120
74,35,341760,480
79,35,341760,480
83,55,341760,480
74,35,342240,480
79,35,342240,480
81,52,342240,360
83,52,342600,120
72,35,342720,480
79,35,342720,480
84,57,342720,480
79,35,343200,480
83,39,343200,360
86,51,343200,360
84,40,343560,120
87,52,343560,120
79,39,343680,1440
83,39,343680,1440
86,51,343680,1440
74,55,345120,360
75,47,345480,120
77,64,345600,338
71,44,346080,360
68,44,346080,360
74,44,346080,360
77,52,346080,338
68,44,346560,360
70,44,346560,360
77,52,346560,338
70,39,347040,480
68,39,347040,480
75,47,347040,60
77,47,347100,60
75,70,347160,240
74,58,347400,120
70,56,347520,480
67,56,347520,480
79,66,347520,720
74,44,348000,480
68,36,348000,480
77,55,348240,240
67,56,348480,480
75,48,348480,480
65,53,348960,360
68,46,348960,480
74,63,348960,360
63,46,349320,120
72,54,349320,120
62,50,349440,480
67,50,349440,480
71,59,349440,480
62,49,349920,480
67,47,349920,480
69,61,349920,360
71,50,350280,120
60,63,350400,480
67,63,350400,480
72,63,350400,480
67,53,350880,480
77,63,350880,360
72,46,351240,120
75,55,351240,120
71,43,351360,1440
67,43,351360,1440
74,51,351360,1440
59,57,352800,360
67,57,352800,360
71,68,352800,360
60,55,353160,120
69,55,353160,120
72,66,353160,120
62,67,353280,480
71,67,353280,480
74,80,353280,480
62,55,353760,480
71,55,353760,480
74,66,353760,480
62,56,354240,480
71,56,354240,480
74,67,354240,480
64,53,354720,360
72,53,354720,360
76,63,354720,360
65,54,355080,120
74,54,355080,120
77,79,355080,120
76,67,355200,720
67,67,355200,720
79,93,355200,720
74,62,355920,240
65,62,355920,240
77,74,355920,240
64,55,356160,480
73,55,356160,480
76,77,356160,480
55,51,357120,1440
61,51,357120,1440
64,60,357120,720
65,54,357840,240
64,50,358080,480
74,67,359040,720
65,67,359040,720
77,93,359040,720
72,62,359760,240
63,62,359760,240
75,74,359760,240
62,55,360000,480
71,55,360000,480
74,77,360000,480
53,51,360960,1440
59,51,360960,1440
62,60,360960,720
63,54,361680,240
62,50,361920,480
69,43,362880,1920
75,60,362880,960
74,53,363840,480
72,50,364320,480
67,51,364800,960
72,51,365760,240
65,36,365760,960
71,46,366000,240
69,49,366240,240
71,41,366480,240
64,34,366720,2880
72,48,366720,3360
71,37,370080,360
72,32,370440,120
74,43,370560,338
74,35,371040,338
74,35,371520,338
72,39,372000,240
71,39,372240,240
75,45,372480,720
74,37,373200,240
72,33,373440,240
67,33,373680,240
72,35,373920,240
74,40,374160,240
75,45,374400,480
74,45,374880,240
72,42,375120,240
67,46,375360,360
71,38,375840,360
65,32,375840,360
64,36,376320,1440
72,43,376320,1440
67,29,378720,960
79,37,378720,960
67,29,380640,960
79,36,380640,960
75,35,381600,240
77,40,381840,240
79,45,382080,240
75,40,382320,240
71,45,382560,240
72,42,382800,240
67,46,383040,360
71,38,383520,360
65,32,383520,360
64,36,384000,960
72,43,384000,960
67,46,384960,360
71,38,385440,360
65,32,385440,360
64,36,385920,960
72,43,385920,960
55,48,386880,480
59,41,387360,480
53,34,387360,480
52,40,387840,960
60,48,387840,960
55,38,388800,960
52,38,388800,960
60,46,388800,960
55,38,389760,1920
52,38,389760,1920
60,46,389760,1920
43,70,0,1410
31,60,0,1410
55,35,9120,240
55,33,9480,60
55,40,9600,240
55,33,10080,240
55,33,10560,240
55,46,11040,240
55,47,11400,60
55,53,11520,120
57,53,12000,120
59,43,12360,60
60,49,12480,240
53,45,12960,240
53,36,13320,60
55,44,13440,840
55,36,14280,60
53,30,14280,60
51,40,14400,240
55,48,14400,240
43,45,14880,240
55,53,14880,240
55,44,15240,60
43,37,15240,60
48,46,15360,1440
55,55,15360,1440
58,35,24480,240
58,33,24840,60
58,40,24960,240
58,33,25440,240
58,33,25920,240
58,46,26400,240
58,47,26760,60
58,53,26880,120
60,53,27360,120
62,43,27720,60
63,49,27840,240
53,45,28320,240
53,36,28680,60
55,44,28800,840
53,30,29640,60
55,36,29640,60
51,40,29760,240
55,48,29760,240
55,53,30240,240
43,45,30240,240
55,44,30600,60
43,37,30600,60
48,46,30720,1440
55,55,30720,1440
65,36,33120,360
66,36,33600,360
66,36,34080,480
62,30,34080,480
66,39,34560,1440
60,46,34560,720
62,46,35280,240
63,46,35520,480
54,31,36000,480
62,37,36000,480
55,35,36480,480
62,42,36480,480
53,35,36960,360
62,43,36960,360
55,35,36960,360
55,29,37320,120
53,29,37320,120
62,35,37320,120
55,39,37440,480
51,39,37440,480
60,47,37440,480
59,48,37920,360
55,40,37920,360
50,40,37920,360
48,41,38280,120
60,49,38280,120
55,41,38280,120
59,57,38400,1440
55,48,38400,1440
55,61,39840,240
43,51,39840,240
55,57,40200,60
43,48,40200,60
55,70,40320,240
43,59,40320,240
55,64,40800,240
43,55,40800,240
55,66,41280,240
43,56,41280,240
55,80,41760,240
43,68,41760,240
43,56,42120,60
55,66,42120,60
55,73,42240,120
43,61,42240,120
57,84,42720,120
45,70,42720,120
47,56,43080,120
59,68,43080,120
48,64,43200,240
60,78,43200,240
53,62,43680,240
41,52,43680,240
53,49,44040,60
41,41,44040,60
43,51,44160,240
55,61,44160,240
55,61,44640,240
55,49,45000,60
53,41,45000,60
51,56,45120,240
55,66,45120,240
31,61,45600,240
43,73,45600,240
43,61,45960,60
31,51,45960,60
43,77,46080,1440
36,64,46080,1440
65,41,48480,360
62,34,48960,360
65,41,48960,360
58,34,49440,480
65,41,49440,480
63,52,49920,480
59,30,50400,480
65,36,50400,480
62,30,50400,480
60,44,50880,480
63,52,50880,480
53,43,51360,480
55,48,51840,480
55,49,52320,360
53,34,52680,120
55,40,52680,120
51,45,52800,480
55,53,52800,480
50,46,53280,360
55,46,53280,360
59,55,53280,360
60,56,53640,120
55,47,53640,120
48,47,53640,120
55,55,53760,1440
59,64,53760,1440
34,56,55200,240
46,66,55200,240
46,60,55560,60
34,52,55560,60
46,76,55680,240
34,64,55680,240
34,57,56160,240
46,69,56160,240
46,71,56640,240
34,59,56640,240
46,86,57120,240
34,73,57120,240
34,59,57480,60
46,71,57480,60
34,67,57600,120
46,79,57600,120
36,76,58080,120
48,91,58080,120
38,60,58440,120
50,74,58440,120
39,71,58560,240
51,84,58560,240
41,57,59040,240
53,67,59040,240
41,44,59400,60
53,53,59400,60
55,66,59520,240
43,56,59520,240
55,66,60000,240
55,53,60360,60
53,44,60360,60
51,59,60480,240
55,71,60480,240
43,79,60960,240
31,67,60960,240
43,66,61320,60
31,56,61320,60
43,83,61440,1440
36,70,61440,1440
44,61,63360,1440
51,61,63360,1440
56,72,63360,1440
48,61,65280,1440
39,61,65280,1440
51,72,65280,1440
48,48,66720,480
60,57,66720,480
53,56,67200,480
41,47,67200,480
43,47,67680,240
55,56,67680,240
44,38,68040,60
56,45,68040,60
55,60,68160,480
43,51,68160,480
43,56,68640,480
31,47,68640,480
48,59,69120,1440
43,50,69120,1440
36,50,69120,1440
44,47,71040,1440
51,47,71040,1440
56,56,71040,1440
39,50,72960,1440
48,50,72960,1440
51,59,72960,1440
49,39,74880,480
51,39,75360,240
53,31,75720,60
51,42,75840,240
51,35,76320,240
39,28,76320,240
44,40,76800,160
48,33,76960,160
51,33,77120,160
48,40,77280,160
51,29,77440,160
56,30,77600,160
47,40,77760,160
50,33,77920,160
56,33,78080,160
48,40,78240,160
51,35,78400,160
56,35,78560,160
44,40,78720,160
48,33,78880,160
56,33,79040,160
48,40,79200,160
51,29,79360,160
56,30,79520,160
47,40,79680,160
50,33,79840,160
56,33,80000,160
48,40,80160,160
51,35,80320,160
56,35,80480,160
49,40,80640,160
53,33,80800,160
56,33,80960,160
49,40,81120,160
55,29,81280,160
58,30,81440,160
48,40,81600,160
56,33,81760,160
60,33,81920,160
48,40,82080,160
51,35,82240,160
56,35,82400,160
46,40,82560,160
51,33,82720,160
56,33,82880,160
46,40,83040,160
51,29,83200,160
55,30,83360,160
44,35,83520,160
51,28,83680,160
58,28,83840,160
44,35,84000,160
51,27,84160,160
56,35,84320,160
49,30,84480,160
56,24,84640,160
58,24,84800,160
53,32,84960,160
56,23,85120,160
61,24,85280,160
51,30,85440,160
56,23,85600,160
60,23,85760,160
51,29,85920,160
55,23,86080,160
58,23,86240,160
44,33,86400,160
48,23,86560,160
56,23,86720,160
48,31,86880,160
51,25,87040,160
56,26,87200,160
47,40,87360,160
50,31,87520,160
56,31,87680,160
48,40,87840,160
51,35,88000,160
56,35,88160,160
44,40,88320,160
48,33,88480,160
56,33,88640,160
48,40,88800,160
51,29,88960,160
56,30,89120,160
47,40,89280,160
50,33,89440,160
56,33,89600,160
48,40,89760,160
51,35,89920,160
56,35,90080,160
49,40,90240,160
52,33,90400,160
56,33,90560,160
49,40,90720,160
52,29,90880,160
58,30,91040,160
47,40,91200,160
54,33,91360,160
59,33,91520,160
47,40,91680,160
54,35,91840,160
59,35,92000,160
52,40,92160,160
56,33,92320,160
61,33,92480,160
52,40,92640,160
54,29,92800,160
58,30,92960,160
51,35,93120,160
54,28,93280,160
59,28,93440,160
51,35,93600,160
55,27,93760,160
61,35,93920,160
52,30,94080,160
56,24,94240,160
59,24,94400,160
56,32,94560,160
59,23,94720,160
64,24,94880,160
54,30,95040,160
59,23,95200,160
63,23,95360,160
54,29,95520,160
58,23,95680,160
61,23,95840,160
47,33,96000,160
51,23,96160,160
59,23,96320,160
51,31,96480,160
54,25,96640,160
59,27,96800,160
50,42,96960,160
53,32,97120,160
59,32,97280,160
51,42,97440,160
54,37,97600,160
59,38,97760,160
47,44,97920,160
51,36,98080,160
54,37,98240,160
47,47,98400,160
51,34,98560,160
54,36,98720,160
46,51,98880,160
49,48,99040,160
51,49,99200,160
44,62,99360,160
49,55,99520,160
51,56,99680,160
43,72,99840,160
49,58,100000,160
51,62,100160,160
43,69,100320,160
46,48,100480,160
51,55,100640,160
44,62,100800,160
47,49,100960,160
51,48,101120,160
49,44,101280,160
52,38,101440,160
58,38,101600,160
51,33,101760,160
58,27,101920,160
61,27,102080,160
51,34,102240,160
58,25,102400,160
61,26,102560,160
51,36,102720,160
58,29,102880,160
61,29,103040,160
51,35,103200,160
58,28,103360,160
61,28,103520,160
56,33,103680,160
60,23,103840,160
63,23,104000,160
60,31,104160,160
63,25,104320,160
68,27,104480,160
59,38,104640,160
62,32,104800,160
68,32,104960,160
60,42,105120,160
63,37,105280,160
68,38,105440,160
56,44,105600,160
60,36,105760,160
68,37,105920,160
60,47,106080,160
63,34,106240,160
68,36,106400,160
59,50,106560,160
62,42,106720,160
68,43,106880,160
60,55,107040,160
63,47,107200,160
68,45,107360,160
61,61,107520,160
65,46,107680,160
68,51,107840,160
61,61,108000,160
63,49,108160,160
70,49,108320,160
60,57,108480,160
63,45,108640,160
68,44,108800,160
60,44,108960,160
63,38,109120,160
68,38,109280,160
58,44,109440,160
63,36,109600,160
70,37,109760,160
58,47,109920,160
63,34,110080,160
67,36,110240,160
56,45,110400,160
63,36,110560,160
68,36,110720,160
56,46,110880,160
63,37,111040,160
68,36,111200,160
61,30,111360,160
68,24,111520,160
70,24,111680,160
65,32,111840,160
68,23,112000,160
73,24,112160,160
63,30,112320,160
68,23,112480,160
72,23,112640,160
63,29,112800,160
67,23,112960,160
70,23,113120,160
60,25,113280,240
56,25,113280,240
68,30,113280,240
56,58,114720,360
60,51,115080,120
63,62,115200,360
63,56,115680,360
63,58,116160,360
63,57,116640,360
65,63,117120,960
63,60,118080,960
61,63,119040,960
60,57,120000,960
58,57,120960,480
61,55,121440,480
60,61,121920,480
51,45,122400,480
58,54,122400,480
56,60,122880,480
51,51,122880,480
44,51,122880,480
56,63,124320,360
44,63,124320,360
48,56,124680,120
60,56,124680,120
51,68,124800,360
63,68,124800,338
63,61,125280,360
51,50,125280,360
51,53,125760,360
63,63,125760,360
51,52,126240,360
63,62,126240,360
52,58,126720,960
64,69,126720,960
51,55,127680,960
63,66,127680,960
49,58,128640,960
61,69,128640,960
59,62,129600,720
47,52,129600,960
58,68,130320,240
56,61,130560,480
52,52,130560,480
49,46,131040,480
56,46,131040,480
64,55,131040,480
63,56,131520,480
54,47,131520,480
54,42,132000,480
61,50,132000,480
47,50,132480,480
54,50,132480,480
59,59,132480,480
47,44,134400,160
51,36,134560,160
54,37,134720,160
47,47,134880,160
51,34,135040,160
54,36,135200,160
46,51,135360,160
49,48,135520,160
51,49,135680,160
44,62,135840,160
49,55,136000,160
51,56,136160,160
43,72,136320,160
49,58,136480,160
51,62,136640,160
43,69,136800,160
46,48,136960,160
51,55,137120,160
44,62,137280,160
47,49,137440,160
51,48,137600,160
49,44,137760,160
52,38,137920,160
58,38,138080,160
51,33,138240,160
58,27,138400,160
61,27,138560,160
51,34,138720,160
58,25,138880,160
61,26,139040,160
51,36,139200,160
58,29,139360,160
61,29,139520,160
51,35,139680,160
58,28,139840,160
61,28,140000,160
44,33,140160,120
51,19,140320,120
56,19,140320,120
60,23,140320,120
51,19,140480,120
56,19,140480,120
60,23,140480,120
51,21,140640,120
56,21,140640,120
60,25,140640,120
51,21,140800,120
60,25,140800,120
56,21,140800,120
60,25,140960,120
56,21,140960,120
51,21,140960,120
60,32,141120,120
51,27,141120,120
56,27,141120,120
60,24,141280,120
51,20,141280,120
56,20,141280,120
51,21,141440,120
60,25,141440,120
56,21,141440,120
60,33,141600,120
56,28,141600,120
51,28,141600,120
56,21,141760,120
60,25,141760,120
51,21,141760,120
60,25,141920,120
56,21,141920,120
51,21,141920,120
37,33,142080,120
53,19,142240,120
60,23,142240,120
49,19,142240,120
60,23,142400,120
53,19,142400,120
49,19,142400,120
57,30,142560,120
49,25,142560,120
53,25,142560,120
53,21,142720,120
49,21,142720,120
57,25,142720,120
49,21,142880,120
57,25,142880,120
53,21,142880,120
49,27,143040,120
58,32,143040,120
53,27,143040,120
49,20,143200,120
53,20,143200,120
58,24,143200,120
58,25,143360,120
49,21,143360,120
53,21,143360,120
49,28,143520,120
58,33,143520,120
53,28,143520,120
49,21,143680,120
53,21,143680,120
58,25,143680,120
53,21,143840,120
49,21,143840,120
58,25,143840,120
36,33,144000,120
48,19,144160,120
51,19,144160,120
58,23,144160,120
51,19,144320,120
48,19,144320,120
58,23,144320,120
48,25,144480,120
55,30,144480,120
51,25,144480,120
55,25,144640,120
51,21,144640,120
48,21,144640,120
48,21,144800,120
51,21,144800,120
55,25,144800,120
56,35,144960,120
51,29,144960,120
48,29,144960,120
51,22,145120,120
48,22,145120,120
56,27,145120,120
51,24,145280,120
56,29,145280,120
48,24,145280,120
48,33,145440,120
56,39,145440,120
51,33,145440,120
48,25,145600,120
56,30,145600,120
51,25,145600,120
51,26,145760,120
48,26,145760,120
56,31,145760,120
37,42,145920,120
53,30,146080,120
49,25,146080,120
53,31,146240,120
49,26,146240,120
49,33,146400,120
53,39,146400,120
49,24,146560,120
53,29,146560,120
53,28,146720,120
49,23,146720,120
39,36,146880,120
51,21,147040,120
56,26,147040,120
56,26,147200,120
51,22,147200,120
39,34,147360,120
51,21,147520,120
55,26,147520,120
51,21,147680,120
55,25,147680,120
44,33,147840,120
60,23,148000,120
51,19,148000,120
56,19,148000,120
56,19,148160,120
60,23,148160,120
51,19,148160,120
60,25,148320,120
51,21,148320,120
56,21,148320,120
60,25,148480,120
56,21,148480,120
51,21,148480,120
60,25,148640,120
51,21,148640,120
56,21,148640,120
60,32,148800,120
51,27,148800,120
56,27,148800,120
56,20,148960,120
60,24,148960,120
51,20,148960,120
51,21,149120,120
56,21,149120,120
60,25,149120,120
60,33,149280,120
56,28,149280,120
51,28,149280,120
51,21,149440,120
56,21,149440,120
60,25,149440,120
51,21,149600,120
60,25,149600,120
56,21,149600,120
37,33,149760,120
49,19,149920,120
53,19,149920,120
60,23,149920,120
60,23,150080,120
53,19,150080,120
49,19,150080,120
49,25,150240,120
60,30,150240,120
53,25,150240,120
53,21,150400,120
60,25,150400,120
49,21,150400,120
53,21,150560,120
49,21,150560,120
60,25,150560,120
58,32,150720,120
53,27,150720,120
49,27,150720,120
53,20,150880,120
58,24,150880,120
49,20,150880,120
53,21,151040,120
58,25,151040,120
49,21,151040,120
53,28,151200,120
58,33,151200,120
49,28,151200,120
53,21,151360,120
49,21,151360,120
58,25,151360,120
49,21,151520,120
58,25,151520,120
53,21,151520,120
36,33,151680,120
58,23,151840,120
51,19,151840,120
48,19,151840,120
58,23,152000,120
48,19,152000,120
51,19,152000,120
51,25,152160,120
58,30,152160,120
48,25,152160,120
51,21,152320,120
48,21,152320,120
58,25,152320,120
58,25,152480,120
48,21,152480,120
51,21,152480,120
51,29,152640,120
48,29,152640,120
56,35,152640,120
56,27,152800,120
48,22,152800,120
51,22,152800,120
51,24,152960,120
48,24,152960,120
56,29,152960,120
51,33,153120,120
56,39,153120,120
48,33,153120,120
51,25,153280,120
48,25,153280,120
56,30,153280,120
51,26,153440,120
56,31,153440,120
48,26,153440,120
37,42,153600,120
56,30,153760,120
49,25,153760,120
53,25,153760,120
53,26,153920,120
56,31,153920,120
49,26,153920,120
53,33,154080,120
57,39,154080,120
49,33,154080,120
53,24,154240,120
49,24,154240,120
57,29,154240,120
58,28,154400,120
49,23,154400,120
53,23,154400,120
39,36,154560,120
51,21,154720,120
56,26,154720,120
51,22,154880,120
56,26,154880,120
39,34,155040,120
58,26,155200,120
55,21,155200,120
51,21,155200,120
58,25,155360,120
55,21,155360,120
51,21,155360,120
32,33,155520,1440
44,33,155520,120
51,23,155680,120
44,19,155680,120
48,21,155680,120
48,19,155840,120
44,19,155840,120
51,23,155840,120
44,21,156000,120
48,21,156000,120
51,25,156000,120
48,21,156160,120
51,25,156160,120
44,21,156160,120
51,25,156320,120
48,21,156320,120
44,21,156320,120
44,27,156480,120
51,32,156480,120
48,27,156480,120
44,20,156640,120
51,24,156640,120
48,27,156640,120
44,21,156800,120
48,21,156800,120
51,25,156800,120
51,33,156960,120
48,28,156960,120
44,28,156960,120
44,21,157120,120
48,21,157120,120
51,25,157120,120
44,21,157280,120
48,21,157280,120
51,25,157280,120
44,33,157440,120
32,33,157440,960
51,23,157600,120
44,19,157600,120
48,21,157600,120
48,19,157760,120
44,19,157760,120
51,23,157760,120
44,21,157920,120
48,21,157920,120
51,25,157920,120
48,21,158080,120
51,25,158080,120
44,21,158080,120
48,21,158240,120
44,21,158240,120
51,25,158240,120
51,32,158400,120
48,27,158400,120
44,27,158400,120
48,27,158560,120
44,20,158560,120
51,24,158560,120
51,25,158720,120
44,21,158720,120
48,21,158720,120
44,28,158880,120
51,33,158880,120
48,28,158880,120
51,25,159040,120
48,21,159040,120
44,21,159040,120
44,21,159200,120
51,25,159200,120
48,21,159200,120
31,33,159360,960
43,33,159360,120
43,19,159520,120
51,23,159520,120
48,21,159520,120
48,19,159680,120
51,23,159680,120
43,19,159680,120
48,21,159840,120
51,25,159840,120
43,21,159840,120
43,21,160000,120
48,21,160000,120
51,25,160000,120
48,21,160160,120
43,21,160160,120
51,25,160160,120
43,27,160320,120
51,32,160320,120
48,27,160320,120
51,24,160480,120
48,27,160480,120
43,20,160480,120
48,21,160640,120
51,25,160640,120
43,21,160640,120
43,28,160800,120
51,33,160800,120
48,28,160800,120
51,25,160960,120
43,21,160960,120
48,21,160960,120
48,21,161120,120
43,21,161120,120
51,25,161120,120
31,33,161280,960
43,33,161280,120
51,23,161440,120
43,19,161440,120
48,21,161440,120
51,24,161600,120
48,19,161600,120
43,19,161600,120
43,22,161760,120
48,22,161760,120
51,26,161760,120
48,24,161920,120
43,24,161920,120
51,28,161920,120
51,29,162080,120
48,24,162080,120
43,24,162080,120
51,39,162240,120
48,33,162240,120
43,33,162240,120
51,31,162400,120
43,24,162400,120
48,34,162400,120
51,34,162560,120
48,28,162560,120
43,28,162560,120
43,39,162720,120
48,39,162720,120
51,46,162720,120
43,31,162880,120
51,36,162880,120
48,31,162880,120
51,37,163040,120
48,31,163040,120
43,31,163040,120
29,55,163200,960
41,55,163200,120
41,28,163360,120
51,35,163360,120
48,32,163360,120
41,28,163520,120
51,35,163520,120
48,28,163520,120
41,32,163680,120
48,32,163680,120
51,37,163680,120
48,32,163840,120
41,32,163840,120
51,37,163840,120
51,37,164000,120
48,32,164000,120
41,32,164000,120
30,55,164160,960
42,55,164160,120
48,32,164320,120
42,28,164320,120
51,35,164320,120
51,35,164480,120
42,28,164480,120
48,28,164480,120
51,37,164640,120
48,32,164640,120
42,32,164640,120
51,37,164800,120
48,32,164800,120
42,32,164800,120
42,32,164960,120
48,32,164960,120
51,37,164960,120
43,48,165120,1440
47,48,165120,1440
50,48,165120,1440
47,35,166560,360
48,30,166920,120
50,40,167040,338
50,33,167520,338
50,33,168000,338
48,36,168480,360
50,37,168840,120
51,42,168960,720
50,35,169680,240
48,31,169920,480
46,39,170400,360
44,33,170760,120
43,36,170880,480
43,36,171360,480
43,36,171840,480
43,36,172320,480
48,48,172800,960
35,42,174240,360
47,50,174240,360
36,37,174600,120
48,44,174600,120
50,62,174720,338
38,51,174720,360
38,42,175200,360
50,50,175200,338
38,42,175680,360
50,50,175680,338
36,50,176160,360
48,59,176160,360
38,57,176520,120
50,67,176520,120
39,63,176640,720
51,76,176640,720
38,54,177360,240
50,64,177360,240
36,46,177600,480
48,55,177600,480
34,57,178080,360
46,67,178080,360
44,55,178440,120
32,46,178440,120
31,46,178560,480
43,55,178560,480
31,46,179040,480
43,55,179040,480
43,55,179520,480
31,46,179520,480
43,55,180000,480
31,46,180000,480
36,40,180480,160
48,40,180480,160
55,31,180640,120
55,31,180800,120
55,31,180960,120
55,29,181120,120
55,29,181280,120
55,29,181440,120
55,28,181600,120
55,28,181760,120
55,31,181920,120
55,30,182080,120
55,30,182240,120
55,31,182400,120
55,27,182560,120
55,27,182720,120
55,31,182880,120
55,28,183040,120
55,28,183200,120
55,31,183360,120
55,31,183520,120
55,31,183680,120
55,31,183840,120
55,31,184000,120
55,32,184160,120
55,40,184320,120
55,31,184480,120
55,26,184640,120
55,33,184800,120
55,29,184960,120
55,26,185120,120
55,33,185280,120
55,30,185440,120
55,29,185600,120
55,33,185760,120
55,30,185920,120
55,30,186080,120
55,31,186240,120
55,28,186400,120
55,28,186560,120
55,31,186720,120
55,28,186880,120
55,31,187040,120
55,36,187200,120
55,29,187360,120
55,29,187520,120
55,36,187680,120
55,31,187840,120
55,31,188000,120
55,37,188160,120
55,29,188320,120
55,29,188480,120
55,44,188640,120
55,37,188800,120
55,39,188960,120
55,53,189120,120
55,39,189280,120
55,40,189440,120
55,52,189600,120
55,45,189760,120
55,52,189920,120
55,59,190080,120
55,47,190240,120
55,47,190400,120
55,52,190560,120
54,52,190560,120
55,43,190720,120
54,43,190720,120
55,43,190880,120
54,43,190880,120
53,54,191040,120
55,54,191040,120
55,45,191200,120
53,45,191200,120
55,45,191360,120
53,45,191360,120
55,53,191520,120
51,53,191520,120
50,43,191680,120
55,43,191680,120
48,44,191840,120
55,44,191840,120
48,57,192000,120
55,57,192000,120
48,45,192160,120
55,45,192160,120
55,45,192320,120
48,45,192320,120
55,54,192480,120
46,54,192480,120
55,45,192640,120
46,45,192640,120
46,45,192800,120
55,45,192800,120
45,55,192960,120
55,55,192960,120
45,43,193120,120
55,43,193120,120
45,43,193280,120
55,43,193280,120
44,52,193440,120
54,52,193440,120
44,43,193600,120
54,43,193600,120
54,42,193760,120
44,42,193760,120
43,54,193920,120
53,54,193920,120
43,45,194080,120
53,45,194080,120
43,45,194240,120
53,45,194240,120
43,54,194400,120
41,54,194400,120
41,43,194560,120
43,43,194560,120
43,43,194720,120
41,43,194720,120
39,55,194880,120
43,55,194880,120
43,43,195040,120
39,43,195040,120
39,43,195200,120
43,43,195200,120
31,57,195360,120
43,57,195360,120
43,43,195520,120
31,43,195520,120
43,43,195680,120
31,43,195680,120
36,40,195840,160
48,40,195840,160
55,31,196000,120
55,31,196160,120
55,31,196320,120
55,29,196480,120
55,29,196640,120
55,29,196800,120
55,28,196960,120
55,28,197120,120
55,31,197280,120
55,30,197440,120
55,30,197600,120
56,31,197760,120
56,27,197920,120
56,27,198080,120
57,31,198240,120
57,28,198400,120
57,28,198560,120
58,31,198720,120
58,31,198880,120
58,31,199040,120
58,31,199200,120
58,31,199360,120
58,32,199520,120
58,40,199680,120
58,31,199840,120
58,26,200000,120
59,33,200160,120
59,29,200320,120
59,26,200480,120
60,33,200640,120
55,30,200800,120
55,29,200960,120
55,33,201120,120
55,30,201280,120
55,30,201440,120
55,31,201600,120
55,28,201760,120
55,28,201920,120
55,31,202080,120
55,28,202240,120
55,31,202400,120
55,36,202560,120
55,29,202720,120
55,29,202880,120
55,36,203040,120
55,31,203200,120
55,31,203360,120
55,37,203520,120
55,29,203680,120
55,29,203840,120
55,42,204000,120
55,35,204160,120
55,37,204320,120
55,49,204480,160
56,36,204640,160
57,36,204800,160
58,52,204960,120
58,45,205120,120
58,52,205280,120
58,59,205440,120
58,47,205600,120
58,47,205760,120
57,44,205920,120
58,52,205920,120
58,43,206080,120
57,36,206080,120
58,43,206240,120
57,36,206240,120
58,54,206400,120
56,45,206400,120
56,38,206560,120
58,45,206560,120
56,38,206720,120
58,45,206720,120
58,53,206880,120
55,45,206880,120
58,43,207040,120
55,36,207040,120
53,37,207200,120
58,44,207200,120
56,37,207200,120
51,48,207360,120
58,57,207360,120
55,57,207360,120
51,38,207520,120
55,45,207520,120
58,45,207520,120
51,38,207680,120
58,45,207680,120
55,45,207680,120
47,45,207840,120
53,45,207840,120
56,54,207840,120
47,38,208000,120
53,45,208000,120
56,45,208000,120
47,38,208160,120
53,45,208160,120
56,45,208160,120
48,46,208320,120
55,55,208320,120
51,46,208320,120
48,36,208480,120
51,36,208480,120
55,43,208480,120
48,36,208640,120
51,36,208640,120
55,43,208640,120
44,44,208800,120
53,52,208800,120
53,43,208960,120
46,36,208960,120
53,42,209120,120
44,35,209120,120
43,47,209280,120
53,56,209280,120
44,40,209440,120
53,47,209440,120
43,40,209600,120
53,48,209600,120
43,58,209760,120
41,48,209760,120
43,47,209920,120
43,47,210080,120
41,39,210080,120
39,51,210240,120
43,61,210240,120
41,41,210400,120
43,49,210400,120
43,49,210560,120
39,41,210560,120
31,55,210720,120
43,66,210720,120
43,50,210880,120
32,42,210880,120
43,51,211040,120
31,42,211040,120
36,53,211200,160
43,53,211200,160
48,63,211200,160
50,60,211360,160
48,60,211520,160
46,68,211680,160
48,62,211840,160
46,62,212000,160
44,73,212160,144
48,62,212160,144
46,63,212320,144
48,53,212320,144
44,64,212480,144
48,54,212480,144
43,78,212640,144
48,65,212640,144
44,65,212800,144
48,55,212800,144
43,65,212960,144
48,55,212960,144
41,79,213120,160
48,66,213120,160
43,65,213280,160
48,55,213280,160
41,65,213440,160
48,55,213440,160
44,78,213600,160
48,65,213600,160
46,65,213760,160
48,55,213760,160
44,65,213920,160
48,55,213920,160
43,73,214080,144
48,62,214080,144
44,65,214240,144
48,55,214240,144
43,65,214400,144
48,55,214400,144
41,74,214560,144
48,63,214560,144
43,65,214720,144
48,55,214720,144
41,65,214880,144
48,55,214880,144
39,79,215040,144
48,66,215040,144
41,65,215200,144
48,55,215200,144
39,65,215360,144
48,55,215360,144
43,77,215520,144
48,64,215520,144
44,65,215680,144
48,55,215680,144
43,65,215840,144
48,55,215840,144
41,75,216000,144
48,64,216000,144
43,65,216160,144
48,55,216160,144
41,65,216320,144
48,55,216320,144
39,74,216480,144
48,63,216480,144
41,66,216640,144
48,56,216640,144
39,66,216800,144
48,56,216800,144
37,75,216960,144
44,64,216960,144
39,64,217120,144
44,54,217120,144
36,64,217280,144
44,54,217280,144
37,72,217440,144
44,60,217440,144
39,63,217600,144
44,52,217600,144
41,63,217760,144
44,52,217760,144
31,62,217920,144
43,73,217920,144
43,65,218080,144
43,60,218240,144
31,59,218400,144
43,71,218400,144
43,63,218560,144
43,63,218720,144
36,53,218880,160
43,53,218880,160
48,63,218880,160
51,60,219040,160
50,60,219200,160
48,68,219360,160
50,62,219520,160
48,62,219680,160
47,73,219840,160
48,63,220000,160
47,64,220160,160
46,78,220320,160
48,65,220480,160
46,65,220640,160
45,79,220800,144
48,66,220800,144
46,65,220960,144
48,55,220960,144
45,65,221120,144
48,55,221120,144
44,78,221280,144
48,65,221280,144
46,65,221440,144
48,55,221440,144
44,65,221600,144
48,55,221600,144
43,73,221760,144
48,62,221760,144
44,65,221920,144
48,55,221920,144
43,65,222080,144
48,55,222080,144
41,74,222240,144
48,63,222240,144
43,65,222400,144
48,55,222400,144
41,65,222560,144
48,55,222560,144
40,79,222720,144
48,66,222720,144
41,65,222880,144
48,55,222880,144
40,65,223040,144
48,55,223040,144
39,77,223200,144
48,64,223200,144
41,65,223360,144
48,55,223360,144
39,65,223520,144
48,55,223520,144
38,75,223680,144
48,64,223680,144
39,65,223840,144
48,55,223840,144
38,65,224000,144
48,55,224000,144
36,74,224160,144
48,63,224160,144
38,66,224320,144
48,56,224320,144
39,66,224480,144
48,56,224480,144
41,75,224640,144
44,64,224640,144
39,64,224800,144
44,54,224800,144
37,64,224960,135
44,54,224960,135
37,72,225120,144
44,60,225120,144
39,63,225280,144
44,52,225280,144
41,63,225440,144
44,52,225440,144
31,62,225600,144
43,73,225600,144
43,65,225760,144
43,60,225920,144
31,59,226080,144
43,71,226080,144
43,63,226240,144
43,63,226400,144
36,74,226560,120
48,62,226560,120
36,67,226720,120
48,56,226720,120
36,67,226880,120
48,56,226880,120
38,74,227040,120
48,62,227040,120
38,69,227200,120
48,58,227200,120
38,65,227360,120
48,55,227360,120
39,74,227520,120
48,62,227520,120
39,67,227680,120
48,56,227680,120
39,67,227840,120
48,56,227840,120
40,73,228000,120
48,62,228000,120
40,66,228160,120
48,56,228160,120
40,66,228320,120
48,56,228320,120
41,72,228480,120
48,61,228480,120
41,68,228640,120
48,57,228640,120
41,68,228800,120
48,57,228800,120
42,69,228960,120
46,58,228960,120
42,63,229120,120
46,53,229120,120
42,63,229280,120
46,53,229280,120
43,66,229440,120
48,56,229440,120
43,60,229600,120
48,51,229600,120
43,66,229760,120
48,56,229760,120
44,69,229920,120
48,61,229920,120
44,57,230080,120
48,48,230080,120
44,57,230240,120
48,48,230240,120
44,55,230400,120
48,46,230400,120
44,54,230560,120
48,42,230560,120
44,53,230720,120
48,41,230720,120
44,53,230880,120
48,45,230880,120
44,47,231040,120
48,40,231040,120
44,46,231200,120
48,39,231200,120
44,51,231360,120
48,43,231360,120
44,46,231520,120
48,39,231520,120
44,46,231680,120
48,39,231680,120
45,31,231840,120
48,37,231840,120
45,26,232000,120
48,31,232000,120
45,26,232160,120
48,31,232160,120
45,34,232320,120
48,40,232320,120
45,27,232480,120
50,32,232480,120
45,28,232640,120
50,33,232640,120
45,31,232800,120
50,37,232800,120
45,28,232960,120
50,33,232960,120
45,28,233120,120
50,33,233120,120
46,32,233280,120
50,38,233280,120
46,28,233440,120
50,34,233440,120
46,28,233600,120
50,34,233600,120
46,31,233760,120
50,37,233760,120
46,28,233920,120
50,33,233920,120
46,28,234080,120
50,33,234080,120
48,31,234240,120
51,37,234240,120
48,27,234400,120
51,32,234400,120
48,27,234560,120
51,32,234560,120
48,31,234720,120
51,37,234720,120
48,26,234880,120
51,31,234880,120
48,26,235040,120
51,31,235040,120
50,37,235200,120
50,32,235360,120
50,32,235520,120
50,37,235680,120
50,32,235840,120
50,32,236000,120
50,37,236160,120
43,31,236160,960
50,29,236320,120
50,29,236480,120
50,32,236640,120
50,29,236800,120
50,29,236960,120
50,31,237120,120
50,29,237280,120
50,29,237440,120
50,32,237600,120
50,29,237760,120
50,29,237920,120
43,32,238320,120
43,32,238800,120
38,36,239280,120
43,32,239760,120
36,38,240240,120
36,35,240720,120
43,37,241200,120
43,32,241680,120
44,36,242160,120
45,32,242640,120
46,32,243120,120
50,32,243600,120
51,39,244080,120
48,32,244560,120
50,32,245040,120
38,32,245520,120
43,30,246000,120
45,37,246240,120
48,40,246480,120
50,44,246720,120
55,35,246960,120
50,39,247200,120
46,32,247440,120
43,32,247920,120
43,32,248400,120
38,36,248880,120
43,32,249360,120
36,38,249840,120
41,43,250320,120
34,45,250800,120
46,43,251280,120
45,50,251760,120
38,42,252240,120
43,42,252720,120
31,41,253200,120
39,39,253680,120
36,32,254160,120
41,32,254640,120
29,32,255120,120
46,30,255600,120
48,37,255840,120
51,40,256080,120
50,44,256320,120
58,35,256560,120
53,39,256800,120
50,32,257040,120
46,44,257280,120
50,36,257400,120
53,36,257520,120
50,36,257640,120
46,45,257760,120
50,38,257880,120
53,38,258000,120
50,46,258120,120
45,55,258240,120
48,46,258360,120
50,47,258480,120
48,50,258600,120
43,60,258720,120
48,52,258840,120
50,49,258960,120
48,50,259080,120
42,72,259200,120
48,55,259320,120
50,59,259440,120
48,59,259560,120
42,68,259680,120
45,53,259800,120
50,53,259920,120
45,53,260040,120
43,63,260160,120
46,48,260280,120
50,48,260400,120
46,48,260520,120
48,48,260640,120
51,35,260760,120
57,35,260880,120
51,36,261000,120
50,50,261120,120
57,39,261240,120
60,39,261360,120
57,39,261480,120
50,47,261600,120
57,39,261720,120
60,39,261840,120
57,39,261960,120
50,47,262080,120
57,40,262200,120
60,40,262320,120
57,40,262440,120
50,44,262560,120
57,36,262680,120
60,36,262800,120
57,36,262920,120
55,44,263040,120
58,37,263160,120
55,37,263280,120
50,37,263400,120
46,44,263520,120
55,38,263640,120
50,38,263760,120
46,38,263880,120
43,44,264000,120
43,58,264480,360
55,69,264480,360
46,51,264840,120
58,61,264840,120
50,62,264960,360
62,74,264960,360
50,56,265440,360
62,67,265440,360
50,58,265920,360
62,69,265920,360
50,57,266400,360
62,68,266400,360
51,63,266880,960
63,75,266880,960
50,61,267840,960
62,72,267840,960
48,63,268800,960
60,75,268800,960
46,57,269760,960
58,68,269760,960
45,57,270720,480
57,68,270720,480
48,56,271200,480
60,66,271200,480
46,62,271680,480
58,73,271680,480
45,45,272160,480
57,64,272160,480
55,72,272640,1440
43,51,272640,1440
55,69,274080,360
43,69,274080,360
46,61,274440,120
58,61,274440,120
50,74,274560,360
62,74,274560,338
62,67,275040,360
50,55,275040,360
50,58,275520,360
62,69,275520,360
50,57,276000,360
62,68,276000,360
51,63,276480,960
63,75,276480,960
50,60,277440,960
62,72,277440,960
48,63,278400,960
60,75,278400,960
58,68,279360,720
46,57,279360,720
45,60,280080,240
57,66,280080,240
55,70,280320,480
43,60,280320,480
51,55,280800,480
63,66,280800,480
62,67,281280,480
50,56,281280,480
48,50,281760,480
60,60,281760,480
46,60,282240,1440
58,70,282240,1440
46,44,284160,120
50,36,284280,120
53,36,284400,120
50,36,284520,120
46,45,284640,120
50,38,284760,120
53,38,284880,120
50,46,285000,120
45,54,285120,120
48,45,285240,120
50,45,285360,120
48,48,285480,120
43,57,285600,120
48,49,285720,120
50,46,285840,120
48,46,285960,120
42,66,286080,120
48,50,286200,120
50,54,286320,120
48,54,286440,120
42,62,286560,120
45,49,286680,120
50,49,286800,120
45,49,286920,120
43,58,287040,120
46,44,287160,120
50,44,287280,120
46,44,287400,120
48,48,287520,120
51,35,287640,120
57,35,287760,120
51,36,287880,120
50,50,288000,120
57,39,288120,120
60,39,288240,120
57,39,288360,120
50,47,288480,120
57,39,288600,120
60,39,288720,120
57,39,288840,120
50,47,288960,120
57,40,289080,120
60,40,289200,120
57,40,289320,120
50,44,289440,120
57,36,289560,120
60,36,289680,120
57,36,289800,120
43,33,289920,120
50,19,290080,120
55,19,290080,120
59,23,290080,120
50,19,290240,120
55,19,290240,120
59,23,290240,120
50,21,290400,120
55,21,290400,120
59,25,290400,120
50,21,290560,120
59,25,290560,120
55,21,290560,120
59,25,290720,120
55,21,290720,120
50,21,290720,120
59,32,290880,120
50,27,290880,120
55,27,290880,120
59,24,291040,120
50,20,291040,120
55,20,291040,120
50,21,291200,120
59,25,291200,120
55,21,291200,120
59,33,291360,120
55,28,291360,120
50,28,291360,120
55,21,291520,120
59,25,291520,120
50,21,291520,120
59,25,291680,120
55,21,291680,120
50,21,291680,120
36,33,291840,120
52,19,292000,120
59,23,292000,120
48,19,292000,120
59,23,292160,120
52,19,292160,120
48,19,292160,120
56,30,292320,120
48,25,292320,120
52,25,292320,120
52,21,292480,120
48,21,292480,120
56,25,292480,120
48,21,292640,120
56,25,292640,120
52,21,292640,120
48,27,292800,120
57,32,292800,120
52,27,292800,120
48,20,292960,120
52,20,292960,120
57,24,292960,120
57,25,293120,120
48,21,293120,120
52,21,293120,120
48,28,293280,120
57,33,293280,120
52,28,293280,120
48,21,293440,120
52,21,293440,120
57,25,293440,120
52,21,293600,120
48,21,293600,120
57,25,293600,120
35,33,293760,120
47,19,293920,120
50,19,293920,120
57,23,293920,120
50,19,294080,120
47,19,294080,120
57,23,294080,120
47,25,294240,120
54,30,294240,120
50,25,294240,120
54,25,294400,120
50,21,294400,120
47,21,294400,120
47,21,294560,120
50,21,294560,120
54,25,294560,120
55,35,294720,120
50,29,294720,120
47,29,294720,120
50,22,294880,120
47,22,294880,120
55,27,294880,120
50,24,295040,120
55,29,295040,120
47,24,295040,120
47,33,295200,120
55,39,295200,120
50,33,295200,120
47,25,295360,120
55,30,295360,120
50,25,295360,120
50,26,295520,120
47,26,295520,120
55,31,295520,120
36,42,295680,120
52,30,295840,120
48,25,295840,120
52,31,296000,120
48,26,296000,120
48,33,296160,120
52,39,296160,120
48,24,296320,120
52,29,296320,120
52,28,296480,120
48,23,296480,120
38,36,296640,120
50,21,296800,120
55,26,296800,120
55,26,296960,120
50,22,296960,120
38,34,297120,120
50,21,297280,120
54,26,297280,120
50,21,297440,120
54,25,297440,120
43,33,297600,120
59,23,297760,120
50,19,297760,120
55,19,297760,120
55,19,297920,120
59,23,297920,120
50,19,297920,120
59,25,298080,120
50,21,298080,120
55,21,298080,120
59,25,298240,120
55,21,298240,120
50,21,298240,120
59,25,298400,120
50,21,298400,120
55,21,298400,120
59,32,298560,120
50,27,298560,120
55,27,298560,120
55,20,298720,120
59,24,298720,120
50,20,298720,120
50,21,298880,120
55,21,298880,120
59,25,298880,120
59,33,299040,120
55,28,299040,120
50,28,299040,120
50,21,299200,120
55,21,299200,120
59,25,299200,120
50,21,299360,120
59,25,299360,120
55,21,299360,120
36,33,299520,120
48,19,299680,120
52,19,299680,120
59,23,299680,120
59,23,299840,120
52,19,299840,120
48,19,299840,120
48,25,300000,120
59,30,300000,120
52,25,300000,120
52,21,300160,120
59,25,300160,120
48,21,300160,120
52,21,300320,120
48,21,300320,120
59,25,300320,120
57,32,300480,120
52,27,300480,120
48,27,300480,120
52,20,300640,120
57,24,300640,120
48,20,300640,120
52,21,300800,120
57,25,300800,120
48,21,300800,120
52,28,300960,120
57,33,300960,120
48,28,300960,120
52,21,301120,120
48,21,301120,120
57,25,301120,120
48,21,301280,120
57,25,301280,120
52,21,301280,120
35,33,301440,120
57,23,301600,120
50,19,301600,120
47,19,301600,120
57,23,301760,120
47,19,301760,120
50,19,301760,120
50,25,301920,120
57,30,301920,120
47,25,301920,120
50,21,302080,120
47,21,302080,120
57,25,302080,120
57,25,302240,120
47,21,302240,120
50,21,302240,120
50,29,302400,120
47,29,302400,120
55,35,302400,120
55,27,302560,120
47,22,302560,120
50,22,302560,120
50,24,302720,120
47,24,302720,120
55,29,302720,120
50,33,302880,120
55,39,302880,120
47,33,302880,120
50,25,303040,120
47,25,303040,120
55,30,303040,120
50,26,303200,120
55,31,303200,120
47,26,303200,120
36,42,303360,120
55,30,303520,120
48,25,303520,120
52,25,303520,120
52,26,303680,120
55,31,303680,120
48,26,303680,120
52,33,303840,120
56,39,303840,120
48,33,303840,120
52,24,304000,120
48,24,304000,120
56,29,304000,120
57,28,304160,120
48,23,304160,120
52,23,304160,120
38,36,304320,120
50,21,304480,120
55,26,304480,120
50,22,304640,120
55,26,304640,120
38,34,304800,120
54,21,304960,120
57,26,304960,120
50,21,304960,120
54,21,305120,120
57,25,305120,120
50,21,305120,120
43,48,305280,480
50,48,305280,480
55,48,305280,480
47,35,306720,360
48,30,307080,120
50,40,307200,338
50,33,307680,338
50,33,308160,338
48,36,308640,360
50,37,309000,120
51,42,309120,720
50,35,309840,240
48,31,310080,480
46,39,310560,360
44,33,310920,120
43,36,311040,480
43,36,311520,480
43,36,312000,480
43,36,312480,480
48,48,312960,960
35,42,314400,360
47,50,314400,360
36,37,314760,120
48,44,314760,120
50,62,314880,338
38,51,314880,360
38,42,315360,360
50,50,315360,338
38,42,315840,360
50,50,315840,338
36,50,316320,360
48,59,316320,360
38,57,316680,120
50,67,316680,120
39,63,316800,720
51,76,316800,720
38,54,317520,240
50,64,317520,240
36,46,317760,480
48,55,317760,480
34,57,318240,360
46,67,318240,360
44,55,318600,120
32,46,318600,120
31,46,318720,480
43,55,318720,480
31,46,319200,480
43,55,319200,480
43,55,319680,480
31,46,319680,480
43,55,320160,480
31,46,320160,480
36,40,320640,160
48,40,320640,160
55,31,320800,120
55,31,320960,120
55,31,321120,120
55,29,321280,120
55,29,321440,120
55,29,321600,120
55,28,321760,120
55,28,321920,120
55,31,322080,120
55,30,322240,120
55,30,322400,120
55,31,322560,120
55,27,322720,120
55,27,322880,120
55,31,323040,120
55,28,323200,120
55,28,323360,120
55,31,323520,120
55,31,323680,120
55,31,323840,120
55,31,324000,120
55,31,324160,120
55,32,324320,120
55,40,324480,120
55,31,324640,120
55,26,324800,120
55,33,324960,120
55,29,325120,120
55,26,325280,120
55,33,325440,120
55,30,325600,120
55,29,325760,120
55,33,325920,120
55,30,326080,120
55,30,326240,120
55,31,326400,120
55,28,326560,120
55,28,326720,120
55,31,326880,120
55,28,327040,120
53,26,327200,120
55,31,327200,120
52,30,327360,120
55,36,327360,120
55,29,327520,120
55,29,327680,120
48,30,327840,120
55,36,327840,120
55,31,328000,120
55,31,328160,120
43,35,328320,120
55,37,328320,120
55,29,328480,120
55,29,328640,120
55,44,328800,120
55,37,328960,120
55,39,329120,120
55,53,329280,120
55,39,329440,120
55,40,329600,120
55,52,329760,120
55,45,329920,120
55,52,330080,120
55,59,330240,120
55,47,330400,120
55,47,330560,120
55,52,330720,120
54,52,330720,120
55,43,330880,120
54,43,330880,120
55,43,331040,120
54,43,331040,120
53,54,331200,120
55,54,331200,120
55,45,331360,120
53,45,331360,120
55,45,331520,120
53,45,331520,120
55,53,331680,120
52,53,331680,120
52,43,331840,120
55,43,331840,120
53,44,332000,120
50,44,332000,120
55,44,332000,120
52,57,332160,120
48,57,332160,120
55,57,332160,120
52,45,332320,120
48,45,332320,120
55,45,332320,120
52,45,332480,120
55,45,332480,120
48,45,332480,120
44,54,332640,120
53,54,332640,120
50,54,332640,120
44,45,332800,120
53,45,332800,120
50,45,332800,120
44,45,332960,120
50,45,332960,120
53,45,332960,120
48,55,333120,120
45,55,333120,120
52,55,333120,120
48,43,333280,120
45,43,333280,120
52,43,333280,120
48,43,333440,120
45,43,333440,120
52,43,333440,120
41,52,333600,160
53,43,333760,120
57,43,333760,120
57,42,333920,120
53,42,333920,120
43,54,334080,160
55,45,334240,120
55,45,334400,120
43,54,334560,160
55,45,334720,120
55,45,334880,120
43,54,335040,160
55,45,335200,120
55,45,335360,120
55,57,335520,120
57,43,335680,120
55,43,335680,120
59,43,335840,120
55,43,335840,120
55,40,336000,180
48,40,336000,160
60,40,336000,160
55,31,336160,20
55,31,336320,120
55,31,336480,120
55,29,336640,120
55,29,336800,120
55,29,336960,120
55,28,337120,120
55,28,337280,120
55,31,337440,120
55,30,337600,120
55,30,337760,120
55,31,337920,120
55,27,338080,120
55,27,338240,120
55,31,338400,120
55,28,338560,120
55,28,338720,120
55,31,338880,120
55,31,339040,120
55,31,339200,120
55,31,339360,120
55,31,339520,120
55,32,339680,120
60,53,339840,720
55,40,339840,120
55,31,340000,120
55,26,340160,120
55,33,340320,120
55,29,340480,120
62,44,340560,240
55,26,340640,120
63,39,340800,480
55,33,340800,120
55,30,340960,120
55,29,341120,120
66,39,341280,480
55,33,341280,120
55,30,341440,120
55,30,341600,120
67,39,341760,480
55,31,341760,120
55,28,341920,120
55,28,342080,120
65,39,342240,480
55,31,342240,120
55,28,342400,120
55,31,342560,120
63,37,342720,480
55,36,342720,120
55,29,342880,120
55,29,343040,120
60,35,343200,480
55,36,343200,120
55,31,343360,120
55,31,343520,120
67,35,343680,960
55,37,343680,120
55,29,343840,120
55,29,344000,120
55,42,344160,120
55,35,344320,120
55,37,344480,120
55,49,344640,160
56,36,344800,160
57,36,344960,160
58,52,345120,120
58,45,345280,120
58,52,345440,120
58,52,345600,120
58,46,345760,120
58,46,345920,120
58,44,346080,120
65,52,346080,120
58,39,346240,120
65,46,346240,120
58,39,346400,120
65,46,346400,120
58,44,346560,120
62,52,346560,120
58,38,346720,120
62,45,346720,120
58,45,346880,120
62,45,346880,120
58,52,347040,120
58,47,347200,120
58,47,347360,120
63,56,347520,120
63,39,347680,120
63,39,347840,120
59,38,348000,120
62,38,348000,120
65,45,348000,120
59,32,348160,120
62,32,348160,120
65,38,348160,120
59,32,348320,120
62,32,348320,120
65,38,348320,120
63,47,348480,120
60,39,348480,120
63,42,348640,120
60,35,348640,120
63,42,348800,120
60,35,348800,120
53,44,348960,120
56,52,348960,120
53,38,349120,120
56,45,349120,120
53,38,349280,120
56,45,349280,120
55,50,349440,120
55,40,349600,120
55,40,349760,120
53,42,349920,120
55,50,349920,120
55,39,350080,120
55,39,350240,120
51,39,350400,120
55,47,350400,120
55,38,350560,120
55,38,350720,120
48,40,350880,120
55,48,350880,120
55,38,351040,120
55,38,351200,120
43,45,351360,120
55,45,351360,120
55,36,351520,120
55,36,351680,120
55,42,351840,120
55,35,352000,120
55,37,352160,120
55,49,352320,120
55,36,352480,120
55,36,352640,120
55,57,352800,120
55,49,352960,120
55,57,353120,120
55,64,353280,120
55,51,353440,120
55,51,353600,120
55,57,353760,120
54,57,353760,120
55,47,353920,120
54,47,353920,120
55,47,354080,120
54,47,354080,120
53,60,354240,120
55,60,354240,120
55,50,354400,120
52,50,354400,120
55,51,354560,120
50,51,354560,120
55,61,354720,120
48,61,354720,120
47,50,354880,120
55,50,354880,120
55,51,355040,120
46,52,355040,120
45,71,355200,120
55,71,355200,120
45,54,355360,120
55,54,355360,120
55,53,355520,120
45,53,355520,120
45,61,355680,120
55,61,355680,120
45,49,355840,120
55,49,355840,120
45,47,356000,120
55,47,356000,120
45,56,356160,120
55,56,356160,120
45,43,356320,120
45,43,356480,120
45,54,356640,120
45,46,356800,120
45,46,356960,120
46,50,357120,120
45,41,357280,120
45,41,357440,120
45,48,357600,120
45,41,357760,120
45,41,357920,120
45,49,358080,120
45,41,358240,120
45,41,358400,120
45,41,358560,120
45,41,358720,120
45,41,358880,120
44,71,359040,120
44,54,359200,120
44,53,359360,120
44,61,359520,120
44,49,359680,120
44,47,359840,120
44,56,360000,120
44,43,360160,120
44,43,360320,120
44,54,360480,120
44,46,360640,120
44,46,360800,120
43,50,360960,120
44,41,361120,120
44,41,361280,120
44,48,361440,120
44,41,361600,120
44,41,361760,120
44,49,361920,120
44,41,362080,120
44,41,362240,120
43,41,362400,120
43,41,362560,120
43,41,362720,120
42,34,362880,120
48,53,362880,960
42,34,363040,120
42,34,363200,120
42,41,363360,120
42,33,363520,120
42,33,363680,120
42,34,363840,120
50,43,363840,480
42,32,364000,120
42,32,364160,120
42,34,364320,120
51,44,364320,480
42,33,364480,120
42,33,364640,120
43,34,364800,120
52,46,364800,960
43,34,364960,120
43,34,365120,120
43,34,365280,120
43,34,365440,120
43,34,365600,120
43,34,365760,120
50,45,365760,960
43,34,365920,120
43,35,366080,120
43,35,366240,120
43,30,366400,120
43,30,366560,120
36,32,366720,120
48,38,366720,2880
36,38,366880,120
36,37,367040,120
36,37,367200,120
36,36,367360,120
36,35,367520,120
36,35,367680,120
36,34,367840,120
36,34,368000,120
36,33,368160,120
36,33,368320,120
36,32,368480,120
36,31,368640,120
36,31,368800,120
36,30,368960,120
36,30,369120,120
36,29,369280,120
36,28,369440,120
36,34,369600,480
67,29,371040,960
55,24,371040,960
55,24,372960,960
67,29,372960,960
60,29,373920,240
62,35,374160,240
63,40,374400,480
62,33,374880,240
60,30,375120,240
64,33,375360,360
55,28,375360,360
62,30,375840,360
55,25,375840,360
48,24,376320,1440
55,27,376320,1440
60,33,376320,1440
59,33,377760,360
60,28,378120,120
62,38,378240,338
62,31,378720,338
62,31,379200,338
60,35,379680,360
62,35,380040,120
63,40,380160,720
62,33,380880,240
60,29,381120,240
55,29,381360,240
60,29,381600,240
62,35,381840,240
63,40,382080,480
62,33,382560,240
60,30,382800,240
64,33,383040,360
55,28,383040,360
62,30,383520,360
55,25,383520,360
48,25,384000,960
55,25,384000,960
60,30,384000,960
64,33,384960,360
55,28,384960,360
62,30,385440,360
55,25,385440,360
48,25,385920,960
55,25,385920,960
60,30,385920,960
52,34,386880,480
43,29,386880,480
50,32,387360,480
43,27,387360,480
36,29,387840,960
43,29,387840,960
48,36,387840,960
36,28,388800,960
43,28,388800,960
48,34,388800,960
36,28,389760,1920
43,28,389760,1920
48,34,389760,1920
