note,velocity,position,duration
64,33,0,960
68,39,0,960
73,26,720,240
64,29,960,360
68,34,960,360
66,34,1320,120
63,28,1320,120
63,34,1440,960
66,41,1440,960
73,26,2160,240
66,37,2400,480
63,31,2400,480
69,41,2880,960
66,34,2880,960
73,28,3600,240
66,28,3840,240
69,33,3840,240
68,30,4080,120
64,25,4080,120
63,23,4200,120
66,28,4200,120
68,39,4320,960
64,33,4320,960
73,28,5040,240
64,29,5280,480
68,34,5280,480
65,34,5760,960
71,41,5760,960
73,34,6480,240
65,28,6720,120
71,33,6720,240
68,28,6840,120
69,30,6960,120
66,25,6960,120
68,28,7080,120
65,23,7080,120
66,34,7200,720
69,41,7200,720
73,34,7920,228
66,23,7920,228
69,28,7920,228
66,34,8160,228
69,40,8160,228
69,41,8400,228
66,34,8400,228
73,49,8640,960
69,41,8640,960
73,38,9360,240
69,33,9600,360
73,39,9600,360
69,28,9960,120
66,23,9960,120
64,30,10080,1200
68,37,10080,1200
73,28,10800,240
64,34,11280,240
68,41,11280,240
64,42,11520,360
69,42,11520,360
73,50,11520,360
72,44,11880,120
63,37,11880,120
68,37,11880,120
63,42,12000,720
68,42,12000,720
72,49,12000,720
80,43,12240,240
72,55,12720,240
68,45,12720,240
67,51,12960,360
73,51,12960,360
76,60,12960,360
72,45,13320,120
68,45,13320,120
75,53,13320,120
68,50,13440,720
75,60,13440,720
72,50,13440,720
80,53,13680,240
68,52,14160,240
72,52,14160,240
75,63,14160,240
80,69,14400,360
68,58,14400,360
76,58,14400,360
69,52,14760,120
75,52,14760,120
78,61,14760,120
78,69,14880,720
75,58,14880,720
69,58,14880,720
80,61,15120,240
69,60,15600,240
78,73,15600,240
75,60,15600,240
73,68,15840,360
76,68,15840,360
81,80,15840,360
80,68,16200,120
75,58,16200,120
72,58,16200,120
72,65,16320,2400
75,65,16320,2400
80,77,16320,2400
76,34,18720,1200
80,41,18720,1200
71,34,18720,1200
68,34,18720,1200
88,35,19440,240
76,37,19920,240
71,30,19920,240
64,30,19920,240
64,34,20160,480
69,34,20160,480
75,41,20160,360
73,41,20520,120
69,34,20640,720
64,34,20640,720
73,41,20640,720
85,34,20880,240
73,37,21360,240
69,30,21360,240
64,30,21360,240
64,34,21600,360
66,34,21600,480
73,41,21600,360
71,41,21960,120
63,38,21960,120
63,34,22080,720
66,34,22080,720
71,41,22080,720
83,30,22320,240
69,34,22800,240
64,28,22800,240
61,28,22800,240
59,28,23040,480
64,28,23040,480
68,34,23040,480
59,25,23520,960
56,25,23520,960
64,30,23520,960
76,27,23760,240
68,39,24480,960
64,33,24480,960
71,27,25200,240
64,29,25440,360
68,34,25440,360
63,28,25800,120
66,34,25800,120
66,41,25920,960
63,34,25920,960
71,27,26640,240
63,31,26880,480
66,37,26880,480
61,34,27360,960
69,41,27360,960
71,27,28080,240
63,28,28320,120
69,33,28320,240
66,24,28440,120
68,30,28560,120
64,25,28560,120
63,23,28680,120
66,28,28680,120
68,39,28800,960
64,33,28800,960
71,26,29520,240
64,32,29760,480
68,38,29760,480
62,42,30240,960
71,50,30240,960
68,42,30240,960
76,42,30960,240
62,33,31200,360
68,33,31200,360
71,39,31200,360
61,28,31560,120
69,35,31560,120
69,50,31680,720
61,42,31680,720
61,28,32400,240
69,35,32400,240
76,42,32400,240
69,49,32640,240
61,41,32640,240
61,41,32880,240
69,50,32880,240
73,59,33120,960
69,50,33120,960
63,50,33120,960
76,43,33840,240
63,36,34080,360
69,36,34080,360
73,44,34080,360
68,28,34440,114
64,28,34440,114
71,34,34440,114
68,41,34560,1200
71,49,34560,1200
64,41,34560,1200
76,34,35280,240
68,42,35760,240
64,42,35760,240
71,51,35760,240
76,61,36000,360
68,52,36000,360
71,52,36000,360
66,46,36360,120
71,46,36360,120
75,54,36360,120
75,61,36480,720
71,51,36480,720
66,51,36480,720
83,53,36720,240
66,54,37200,240
75,66,37200,240
71,54,37200,240
71,60,37440,480
76,60,37440,360
80,71,37440,360
78,63,37800,114
75,54,37800,114
75,60,37920,720
71,60,37920,720
78,71,37920,720
83,62,38160,240
80,74,38640,240
71,61,38640,240
76,61,38640,240
76,68,38880,360
80,68,38880,360
85,80,38880,360
83,70,39240,114
78,60,39240,114
75,60,39240,114
75,67,39360,2400
78,67,39360,2400
83,79,39360,2160
71,59,39600,240
71,37,41040,240
81,41,41520,240
68,34,41760,1200
80,41,41760,1200
76,34,41760,1200
73,32,42480,240
64,30,42960,240
68,30,42960,240
76,37,42960,240
75,41,43200,360
66,34,43200,480
69,34,43200,480
73,41,43560,120
66,34,43680,720
73,41,43680,720
69,34,43680,720
81,30,43920,240
63,30,44400,240
69,30,44400,240
73,37,44400,240
73,41,44640,480
64,34,44640,960
68,34,44640,1200
71,41,45120,720
80,32,45360,240
60,27,45600,480
66,28,45840,240
69,34,45840,240
61,28,46080,480
64,28,46080,480
68,34,46080,480
64,30,46560,720
56,25,46560,720
61,25,46560,720
73,27,46800,240
56,25,47280,240
64,30,47280,240
61,25,47280,240
61,28,47520,480
55,28,47520,480
64,34,47520,360
63,34,47880,120
61,25,48000,720
63,30,48000,720
55,25,48000,720
69,29,48000,240
81,27,48240,240
63,33,48720,240
61,28,48720,240
55,28,48720,240
54,31,48960,480
61,31,48960,480
64,37,48960,360
63,34,49320,120
54,25,49440,720
63,30,49440,720
61,25,49440,720
69,29,49440,240
81,27,49680,240
63,30,50160,240
61,25,50160,240
54,25,50160,240
54,28,50400,720
60,28,50400,720
63,34,50400,720
68,29,50880,240
64,29,51120,120
80,29,51120,240
66,29,51240,120
68,29,51360,240
63,30,51600,240
60,25,51600,240
57,25,51600,240
56,28,51840,1200
61,28,51840,1200
64,34,51840,1200
73,28,52560,240
56,25,53040,240
61,25,53040,240
64,30,53040,240
64,30,53280,360
61,25,53280,480
55,25,53280,480
63,30,53640,120
55,22,53760,720
61,22,53760,720
63,27,53760,720
69,26,54000,240
55,25,54480,240
61,25,54480,240
63,29,54480,240
64,33,54720,360
61,27,54720,480
54,27,54720,480
63,30,55080,120
54,22,55200,720
61,22,55200,720
63,27,55200,720
69,26,55440,240
54,22,55920,240
61,22,55920,240
63,27,55920,240
63,25,56160,720
60,20,56160,720
54,20,56160,720
64,21,56880,120
66,21,57000,120
68,21,57120,240
60,22,57360,240
54,18,57360,240
57,18,57360,240
73,26,58320,240
73,26,59760,240
49,38,60480,480
52,38,60480,480
57,45,60480,480
49,38,60960,480
57,46,60960,480
50,38,61440,480
57,38,61440,480
59,45,61440,480
52,38,61920,370
61,46,61920,370
57,38,61920,360
50,36,62280,130
57,36,62280,120
59,42,62280,130
49,36,62400,720
57,42,62400,720
52,38,63120,240
57,38,63120,240
61,46,63120,240
54,40,63360,370
57,40,63360,360
62,48,63360,370
52,38,63720,130
57,38,63720,120
61,45,63720,130
50,39,63840,240
57,39,63840,240
59,47,63840,240
54,38,64080,240
57,38,64080,240
62,45,64080,240
52,38,64320,240
57,38,64320,240
61,45,64320,240
49,38,64560,240
52,38,64560,240
57,45,64560,240
47,39,64800,720
52,39,64800,720
56,47,64800,720
47,38,65520,240
54,38,65520,240
56,46,65520,240
49,41,65760,240
52,41,65760,240
56,49,65760,240
50,41,66000,240
52,41,66000,240
56,49,66000,240
49,38,66240,480
52,38,66240,480
57,45,66240,480
49,38,66720,480
57,46,66720,480
50,38,67200,480
57,38,67200,480
59,45,67200,480
52,38,67680,370
61,46,67680,370
57,38,67680,360
50,36,68040,130
57,36,68040,120
59,42,68040,130
49,32,68160,720
57,37,68160,720
54,41,68880,240
52,41,68880,240
58,41,68880,240
61,50,68880,240
50,45,69120,370
54,45,69120,360
59,45,69120,370
62,53,69120,370
54,38,69480,130
52,38,69480,130
58,38,69480,120
61,44,69480,130
50,39,69600,240
57,39,69600,240
59,47,69600,240
50,41,69840,240
54,41,69840,120
62,49,69840,240
56,40,69960,120
52,39,70080,240
57,39,70080,240
61,46,70080,240
50,38,70320,240
52,38,70320,240
56,38,70320,240
59,45,70320,240
50,39,70560,480
52,39,70560,720
56,39,70560,480
59,47,70560,480
49,39,71040,480
57,47,71040,480
69,62,72000,480
64,31,72080,80
61,31,72160,80
64,31,72240,80
61,31,72320,80
57,31,72400,80
69,63,72480,480
64,31,72560,80
61,31,72640,80
64,31,72720,80
61,31,72800,80
57,31,72880,80
71,62,72960,480
68,31,73040,80
64,32,73120,80
68,32,73200,80
64,32,73280,80
59,32,73360,80
73,63,73440,420
69,32,73520,80
64,32,73600,80
69,32,73680,80
64,32,73760,80
62,32,73840,80
71,59,73860,60
69,59,73920,720
64,31,74000,80
61,31,74080,80
64,31,74160,80
61,31,74240,80
57,31,74320,80
61,32,74480,80
64,32,74560,80
61,32,74640,80
73,63,74640,240
64,32,74720,80
69,32,74800,80
74,67,74880,420
69,34,74960,80
66,34,75040,80
69,34,75120,80
66,34,75200,80
64,32,75280,80
73,62,75300,60
71,66,75360,240
62,32,75440,80
69,32,75520,80
74,62,75600,240
66,30,75680,80
69,30,75760,80
73,62,75840,240
69,32,75920,80
64,32,76000,80
69,62,76080,240
64,32,76160,80
61,32,76240,80
68,66,76320,720
64,31,76400,80
59,31,76480,80
64,31,76560,80
59,31,76640,80
56,31,76720,80
64,31,76800,80
59,31,76880,80
56,31,76960,80
68,63,77040,240
66,32,77120,80
59,32,77200,80
68,68,77280,240
64,34,77360,80
61,34,77440,80
68,68,77520,240
64,32,77600,80
62,32,77680,80
69,62,77760,480
64,31,77840,80
61,31,77920,80
64,31,78000,80
61,31,78080,80
57,31,78160,80
69,63,78240,480
64,31,78320,80
61,31,78400,80
64,31,78480,80
61,31,78560,80
57,31,78640,80
71,62,78720,480
68,31,78800,80
64,32,78880,80
68,32,78960,80
64,32,79040,80
59,32,79120,80
73,63,79200,420
69,32,79280,80
64,32,79360,80
69,32,79440,80
64,32,79520,80
62,32,79600,80
71,59,79620,60
69,59,79680,720
64,31,79760,80
61,31,79840,80
64,31,79920,80
61,31,80000,80
57,31,80080,80
61,32,80240,80
64,32,80320,80
70,32,80400,80
73,63,80400,240
66,32,80480,80
64,32,80560,80
74,67,80640,420
71,34,80720,80
66,34,80800,80
71,34,80880,80
66,34,80960,80
64,32,81040,80
73,62,81060,60
71,66,81120,240
62,32,81200,80
66,32,81280,80
74,62,81360,240
66,30,81440,80
68,30,81520,80
73,62,81600,240
69,32,81680,80
64,32,81760,80
71,62,81840,240
64,32,81920,80
62,32,82020,80
71,66,82080,480
68,31,82160,80
64,31,82240,80
68,31,82320,80
64,31,82400,80
62,31,82480,80
69,66,82560,240
61,31,82560,240
56,38,83520,480
59,45,83520,480
56,38,84000,480
59,46,84000,480
52,38,84480,480
58,38,84480,480
61,45,84480,480
54,38,84960,960
62,46,84960,370
59,38,84960,370
61,36,85320,130
64,42,85320,130
62,36,85440,720
66,42,85440,720
54,38,85920,240
56,45,86160,240
62,45,86160,240
66,54,86160,240
57,49,86400,360
62,49,86400,360
66,58,86400,360
59,48,86760,120
62,48,86760,120
67,58,86760,120
57,50,86880,240
62,50,86880,240
69,60,86880,240
59,48,87120,240
62,48,87120,240
67,57,87120,240
57,46,87360,240
62,46,87360,240
66,55,87360,240
55,44,87600,240
57,44,87600,240
61,44,87600,240
64,51,87600,240
55,39,87840,480
57,39,87840,480
61,39,87840,480
64,47,87840,480
54,39,88320,960
57,39,88320,960
62,47,88320,960
53,28,89280,480
58,34,89280,480
53,28,89760,480
58,34,89760,480
53,28,90240,480
58,34,90240,480
58,34,90720,360
55,28,90720,360
57,27,91080,40
58,27,91110,40
60,27,91140,40
58,27,91170,40
55,31,91200,240
55,28,91440,240
63,28,91440,240
67,34,91440,240
55,28,91680,240
59,28,91680,240
65,34,91680,240
55,23,91920,240
60,23,91920,240
63,34,91920,240
53,30,92160,960
58,30,92160,960
62,37,92160,960
51,30,93120,480
57,30,93120,480
63,36,93120,370
60,34,93480,130
50,29,93600,1440
56,29,93600,1440
59,35,93600,1440
50,36,95040,960
56,36,95040,960
59,44,95040,720
61,46,95760,130
62,46,95880,130
64,45,96000,240
50,44,96240,240
52,44,96240,240
56,44,96240,240
49,38,96480,480
52,38,96480,480
57,45,96480,480
49,38,96960,480
57,46,96960,480
50,38,97440,480
57,38,97440,480
59,45,97440,480
52,38,97920,370
61,46,97920,370
57,38,97920,360
50,36,98280,130
57,36,98280,120
59,42,98280,130
49,36,98400,720
57,42,98400,720
52,41,99120,240
57,41,99120,240
61,50,99120,240
53,44,99360,370
57,44,99360,360
62,52,99360,370
52,41,99720,130
57,41,99720,120
61,49,99720,130
50,42,99840,240
57,42,99840,240
59,51,99840,240
53,41,100080,240
57,41,100080,240
62,49,100080,240
52,41,100320,240
57,41,100320,240
61,49,100320,240
49,41,100560,240
52,41,100560,240
57,49,100560,240
47,42,100800,720
52,42,100800,720
56,51,100800,720
47,49,101520,240
53,49,101520,240
56,60,101520,240
48,56,101760,240
52,56,101760,240
56,66,101760,240
50,59,102000,240
52,59,102000,240
56,69,102000,240
48,63,102240,480
52,63,102240,480
57,76,102240,480
52,63,102720,480
48,63,102720,480
57,77,102720,480
50,66,103200,480
53,66,103200,480
59,79,103200,480
52,69,103680,370
60,84,103680,480
55,69,103680,370
53,66,104040,130
57,66,104040,130
55,66,104160,720
52,66,104160,720
60,77,104160,720
57,66,104880,240
62,80,104880,240
56,71,105120,480
59,71,105120,480
64,85,105120,370
62,59,105480,130
57,52,105600,240
61,63,105600,240
54,35,105840,120
57,35,105840,120
64,41,105840,120
62,41,105960,120
52,41,106080,240
57,41,106080,240
61,49,106080,240
50,38,106320,240
52,38,106320,240
56,38,106320,240
59,45,106320,240
50,39,106560,480
52,39,106560,720
56,39,106560,480
59,47,106560,480
49,39,107040,480
57,47,107040,480
71,62,108000,480
68,31,108080,80
64,31,108160,80
68,31,108240,80
64,31,108320,80
59,31,108400,80
71,63,108480,480
68,31,108560,80
64,31,108640,80
68,31,108720,80
64,31,108800,80
59,31,108880,80
73,62,108960,480
70,31,109040,80
66,32,109120,80
70,32,109200,80
66,32,109280,80
64,32,109360,80
74,63,109440,420
71,32,109520,80
66,32,109600,80
71,32,109680,80
66,32,109760,80
73,25,109840,80
76,56,109860,60
78,59,109920,720
74,31,110000,80
71,31,110080,80
74,31,110160,80
71,31,110240,80
66,31,110320,80
74,32,110480,80
71,32,110560,80
74,32,110640,80
78,63,110640,240
71,32,110720,80
68,32,110800,80
78,67,110880,420
74,34,110960,80
69,34,111040,80
74,34,111120,80
69,34,111200,80
71,32,111280,80
79,62,111300,60
81,66,111360,240
69,32,111440,80
74,32,111520,80
79,62,111600,240
71,30,111680,80
74,30,111760,80
78,62,111840,240
69,32,111920,80
74,32,112000,80
76,62,112080,240
67,32,112160,80
69,32,112240,80
76,66,112320,480
73,31,112400,80
69,31,112480,80
73,31,112560,80
69,31,112640,80
67,31,112720,80
74,66,112800,960
69,31,112880,80
66,31,112960,80
69,34,113040,80
66,32,113120,80
62,32,113200,80
66,33,113360,80
62,32,113440,80
69,32,113520,80
66,28,113600,80
62,27,113680,80
70,44,113760,480
65,24,113840,80
62,24,113920,80
65,24,114000,80
62,24,114080,80
58,24,114160,80
70,45,114240,480
65,24,114320,80
62,24,114400,80
65,24,114480,80
62,24,114560,80
58,24,114640,80
70,44,114720,480
65,24,114800,80
62,25,114880,80
65,25,114960,80
62,25,115040,80
58,25,115120,80
70,45,115200,480
67,25,115280,80
63,25,115360,80
67,25,115440,80
63,25,115520,80
58,25,115600,80
67,39,115680,240
63,24,115760,80
58,24,115840,80
79,42,115920,240
75,24,116000,80
67,24,116080,80
77,42,116160,240
71,25,116240,80
67,25,116320,80
75,45,116400,240
72,25,116480,80
67,25,116560,80
74,45,116640,960
70,27,116720,80
65,27,116800,80
70,27,116880,80
65,27,116960,80
62,25,117040,80
70,27,117200,80
65,27,117280,80
70,27,117360,80
65,25,117440,80
62,25,117520,80
75,44,117600,420
72,25,117680,80
69,25,117760,80
72,27,117840,240
69,25,117920,80
63,25,118000,80
72,39,118020,60
71,43,118080,1440
68,24,118160,80
62,24,118240,80
68,24,118320,80
62,24,118400,80
59,24,118480,80
68,24,118640,80
62,24,118720,80
68,27,118800,80
62,25,118880,80
59,25,118960,80
68,27,119120,80
62,27,119200,80
68,28,119280,80
62,25,119360,80
59,25,119440,80
71,42,119520,960
68,24,119600,80
61,24,119680,80
68,24,119760,80
61,24,119840,80
59,24,119920,80
68,24,120080,80
61,24,120160,80
68,27,120240,80
61,25,120320,80
59,25,120400,80
71,43,120480,480
68,27,120560,80
62,27,120640,80
68,28,120720,80
62,26,120800,80
59,27,120880,80
71,44,120960,420
66,26,121040,80
62,26,121120,80
66,25,121200,80
62,25,121280,80
61,24,121360,80
69,41,121380,50
69,42,121440,960
66,24,121520,80
61,24,121600,80
66,27,121680,80
61,25,121760,80
57,25,121840,80
66,27,122000,80
61,27,122080,80
66,28,122160,80
61,25,122240,80
57,25,122320,80
69,43,122400,960
66,24,122480,80
61,24,122560,80
66,24,122640,80
61,24,122720,80
57,24,122800,80
66,24,122960,80
61,24,123040,80
66,27,123120,80
61,25,123200,80
57,25,123280,80
69,41,123360,480
66,27,123440,80
62,27,123520,80
66,28,123600,80
62,26,123680,80
57,27,123760,80
69,45,123840,420
66,26,123920,80
61,26,124000,80
66,25,124080,80
61,25,124160,80
64,24,124240,80
68,43,124260,53
68,41,124320,960
64,24,124400,80
61,24,124480,80
64,27,124560,80
61,25,124640,80
56,25,124720,80
64,27,124880,80
61,27,124960,80
64,28,125040,80
61,25,125120,80
56,25,125200,80
68,40,125280,960
63,23,125360,80
61,23,125440,80
63,23,125520,80
61,22,125600,80
56,22,125680,80
63,22,125840,80
61,22,125920,80
63,23,126000,80
61,22,126080,80
56,22,126160,80
68,37,126240,480
63,22,126320,80
60,22,126400,80
63,23,126480,80
60,21,126560,80
56,22,126640,80
64,33,128160,960
68,39,128160,960
73,26,128880,240
64,29,129120,420
68,34,129120,420
63,25,129540,57
66,30,129540,57
63,30,129600,960
66,37,129600,960
73,28,130320,240
63,31,130560,480
66,37,130560,480
66,34,131040,960
69,41,131040,960
73,28,131760,240
66,28,132000,240
69,33,132000,240
64,25,132240,120
68,30,132240,120
63,23,132360,120
66,28,132360,120
64,33,132480,960
68,39,132480,960
73,27,133200,240
64,29,133440,480
68,34,133440,480
65,34,133920,960
71,41,133920,960
73,31,134640,240
65,28,134880,120
71,33,134880,240
68,28,135000,120
66,25,135120,120
69,30,135120,120
65,23,135240,120
68,28,135240,120
66,34,135360,720
69,41,135360,720
66,23,136080,228
69,28,136080,228
73,34,136080,228
66,34,136320,228
69,40,136320,228
66,34,136560,228
69,41,136560,228
69,41,136800,960
73,49,136800,960
73,38,137520,240
69,33,137760,360
73,39,137760,360
66,23,138120,120
69,28,138120,120
64,30,138240,1200
68,37,138240,1200
73,28,138960,240
64,34,139440,240
68,41,139440,240
64,42,139680,360
69,42,139680,360
73,50,139680,360
63,37,140040,114
68,37,140040,114
72,44,140040,114
63,42,140160,720
68,42,140160,720
72,49,140160,720
80,43,140400,240
68,45,140880,240
72,55,140880,240
67,51,141120,360
73,51,141120,360
76,60,141120,360
68,45,141480,114
72,45,141480,114
75,53,141480,114
68,50,141600,720
72,50,141600,720
75,60,141600,720
80,53,141840,240
68,52,142320,240
72,52,142320,240
75,63,142320,240
68,58,142560,360
76,58,142560,360
80,69,142560,360
69,52,142920,114
75,52,142920,114
78,61,142920,114
69,58,143040,720
75,58,143040,720
78,69,143040,720
80,61,143280,240
69,60,143760,240
75,60,143760,240
78,73,143760,240
73,68,144000,360
76,68,144000,360
81,80,144000,360
72,60,144360,114
75,60,144360,114
80,70,144360,114
72,67,144480,2400
75,67,144480,2400
80,79,144480,2400
72,34,146880,1200
76,34,146880,1200
79,41,146880,1200
72,30,148080,240
79,30,148080,240
84,37,148080,240
72,34,148320,480
77,34,148320,480
83,41,148320,360
81,41,148680,114
72,34,148800,720
77,34,148800,720
81,41,148800,720
81,36,149520,240
72,30,149520,240
76,30,149520,240
72,34,149760,360
74,34,149760,480
81,41,149760,360
71,38,150120,114
79,41,150120,114
71,34,150240,720
74,34,150240,720
79,41,150240,720
69,28,150960,240
72,28,150960,240
77,34,150960,240
67,28,151200,480
72,28,151200,480
76,34,151200,480
64,25,151680,960
67,25,151680,960
72,30,151680,960
84,29,151920,120
60,33,152640,960
64,39,152640,960
79,28,153360,120
60,29,153600,360
64,34,153600,360
59,28,153960,114
62,34,153960,114
59,34,154080,960
62,41,154080,960
79,28,154800,120
59,31,155040,480
62,37,155040,480
57,34,155520,960
65,41,155520,960
79,28,156240,120
59,28,156480,120
65,33,156480,240
62,24,156600,120
60,25,156720,120
64,30,156720,120
59,23,156840,120
62,28,156840,120
60,33,156960,720
64,39,156960,720
60,29,157680,120
64,35,157680,120
79,29,157680,120
59,29,157920,120
64,35,157920,120
58,29,158160,120
66,35,158160,120
59,33,158400,240
68,39,158400,960
64,33,158640,720
71,27,159120,120
64,29,159360,360
68,34,159360,360
63,28,159720,114
66,34,159720,114
63,34,159840,960
66,41,159840,960
71,27,160560,120
63,31,160800,480
66,37,160800,480
61,34,161280,960
69,41,161280,960
71,28,162000,120
63,28,162240,120
69,33,162240,240
66,24,162360,120
64,25,162480,120
68,30,162480,120
63,23,162600,120
66,28,162600,120
64,33,162720,1200
68,39,162720,1200
71,28,163440,120
68,30,163920,240
71,37,163920,240
68,44,164160,360
71,44,164160,360
76,51,164160,360
66,39,164520,114
71,39,164520,114
75,47,164520,114
66,44,164640,720
71,44,164640,720
75,53,164640,720
83,46,164880,240
66,49,165360,240
71,49,165360,240
75,60,165360,240
71,55,165600,480
76,55,165600,360
80,65,165600,360
75,50,165960,114
78,59,165960,114
71,57,166080,720
75,57,166080,720
78,67,166080,720
83,60,166320,240
71,59,166800,240
76,59,166800,240
80,72,166800,240
76,68,167040,360
80,68,167040,360
85,80,167040,360
75,60,167400,114
78,60,167400,114
83,70,167400,114
75,67,167520,2400
78,67,167520,2400
83,79,167520,2160
71,59,167760,240
71,33,169200,240
81,42,169680,240
68,34,169920,1200
76,34,169920,1200
80,41,169920,1200
73,31,170640,240
68,30,171120,240
73,30,171120,240
76,37,171120,240
66,34,171360,480
69,34,171360,480
75,41,171360,360
73,41,171720,120
66,34,171840,236
69,34,171840,720
73,41,171840,720
63,30,172560,240
69,30,172560,240
73,37,172560,240
64,34,172800,960
68,34,172800,1200
73,41,172800,480
71,41,173280,720
80,29,173520,240
60,25,173760,480
66,28,174000,240
69,34,174000,240
61,28,174240,480
64,28,174240,480
68,34,174240,480
56,25,174720,720
61,25,174720,720
64,30,174720,720
73,29,174960,240
61,27,175680,1200
65,27,175680,1200
68,33,175680,1200
73,28,176400,240
61,23,176880,240
68,23,176880,240
73,29,176880,240
61,27,177120,960
66,27,177120,960
72,33,177120,480
70,33,177600,720
82,27,177840,240
61,23,178320,240
65,23,178320,240
70,29,178320,240
61,27,178560,480
63,27,178560,480
70,33,178560,480
60,22,179040,720
63,24,179040,720
68,30,179040,720
80,24,179280,240
58,24,179760,240
61,24,179760,240
66,29,179760,240
56,24,180000,480
61,24,180000,480
65,29,180000,480
53,22,180480,720
56,22,180480,720
61,25,180480,720
73,25,180720,240
56,24,181200,240
61,24,181200,240
65,29,181200,240
55,28,181440,480
61,28,181440,480
65,34,181440,360
70,29,181680,120
63,34,181800,120
82,29,181920,240
55,25,181920,720
61,25,181920,720
63,30,181920,720
55,28,182640,240
61,28,182640,240
63,33,182640,240
54,31,182880,480
61,31,182880,480
64,37,182880,360
69,29,183120,120
63,34,183240,120
81,29,183360,240
54,25,183360,720
61,25,183360,720
63,30,183360,720
54,25,184080,240
61,25,184080,240
63,30,184080,240
54,28,184320,720
60,28,184320,720
63,34,184320,720
68,27,184560,120
80,28,184800,240
65,29,185040,120
66,29,185160,120
68,29,185280,240
56,25,185520,240
60,25,185520,240
64,30,185520,240
56,28,185760,1200
61,28,185760,1200
65,34,185760,1200
73,29,186240,480
56,25,186960,240
61,25,186960,240
65,30,186960,240
55,23,187200,480
61,23,187200,480
65,28,187200,360
63,28,187560,120
70,24,187680,480
55,21,187680,720
61,21,187680,720
63,25,187680,720
55,23,188400,240
61,23,188400,240
63,28,188400,240
54,26,188640,480
61,26,188640,480
64,31,188640,360
63,28,189000,120
69,24,189120,240
54,21,189120,720
61,21,189120,720
63,25,189120,720
54,21,189840,240
61,21,189840,240
63,25,189840,240
54,23,190080,720
60,23,190080,720
63,28,190080,720
65,24,190800,120
66,24,190920,120
68,24,191040,240
54,21,191280,240
57,21,191280,240
60,25,191280,240
73,24,192000,480
73,24,193440,480
73,24,194880,480
68,22,196080,60
73,23,196320,60
80,23,196560,60
85,23,196800,60
37,26,0,240
49,22,420,60
61,27,480,240
37,26,1440,240
49,22,1860,60
61,27,1920,240
37,26,2880,240
49,22,3300,60
61,27,3360,240
37,26,4320,240
49,22,4740,60
61,27,4800,240
37,26,5760,240
49,22,6180,60
61,27,6240,240
37,26,7200,240
49,22,7620,60
61,27,7680,240
37,31,8640,240
49,25,9060,60
61,30,9120,240
37,26,10080,240
49,22,10500,60
61,27,10560,240
32,28,11520,240
44,34,11520,240
44,36,11940,60
56,41,12000,240
32,35,12960,240
44,41,12960,240
44,43,13380,60
56,50,13440,240
44,47,14400,240
32,39,14400,240
44,49,14820,60
56,57,14880,240
44,55,15840,240
32,46,15840,240
44,50,16260,60
56,58,16320,240
68,56,16560,240
32,33,17280,240
44,40,17280,240
44,34,17700,60
56,39,17760,240
68,35,18000,240
32,22,18720,240
44,26,18720,240
47,22,19140,60
59,27,19200,240
45,26,20160,240
33,22,20160,240
49,22,20580,60
61,27,20640,240
47,26,21600,240
35,22,21600,240
47,22,22020,60
59,27,22080,240
40,26,23040,240
47,22,23460,60
52,27,23520,240
40,26,24480,240
47,22,24900,60
59,27,24960,240
40,26,25920,240
47,22,26340,60
59,27,26400,240
40,26,27360,240
47,22,27780,60
59,27,27840,240
40,26,28800,240
47,22,29220,60
59,27,29280,240
40,31,30240,240
52,30,30660,60
64,36,30720,240
40,31,31680,240
52,30,32100,60
64,36,32160,240
40,37,33120,240
52,33,33540,60
64,40,33600,240
40,31,34560,240
52,30,34980,60
64,36,35040,240
35,35,36000,240
47,42,36000,240
47,44,36420,60
59,50,36480,240
35,41,37440,240
47,49,37440,240
47,51,37860,60
59,59,37920,240
35,46,38880,240
47,55,38880,240
47,52,39300,60
59,60,39360,240
35,36,40320,240
47,39,40740,60
59,44,40800,240
37,26,41760,240
49,25,42180,60
61,30,42240,240
42,22,43200,240
30,19,43200,240
42,25,43620,60
54,30,43680,240
32,22,44640,240
44,26,44640,240
44,22,45060,60
56,27,45120,240
37,26,46080,240
37,22,46500,60
49,27,46560,240
33,26,47520,240
45,26,47520,240
33,26,48960,240
45,26,48960,240
44,26,50400,240
32,26,50400,240
37,26,51840,240
49,27,52320,240
33,23,53280,240
45,26,53760,240
33,23,54720,240
45,26,55200,240
32,19,56160,240
44,21,56640,240
56,21,56880,240
61,27,57600,2880
52,22,57600,2880
56,22,57600,2880
37,23,57600,240
49,24,58080,240
37,23,59040,240
49,24,59520,240
32,37,60254,240
33,34,60480,120
45,28,60600,60
45,28,60720,60
45,28,60840,60
33,33,60960,120
45,28,61080,60
45,28,61200,60
45,28,61320,60
33,32,61440,120
45,28,61560,60
45,28,61680,60
45,28,61800,60
33,34,61920,120
45,29,62040,60
45,29,62160,60
45,29,62280,60
45,29,62400,60
45,29,62520,60
45,29,62640,60
45,29,62760,60
33,34,62880,120
45,26,63000,60
45,29,63120,60
45,31,63240,60
33,34,63360,120
45,31,63480,60
45,31,63600,60
45,31,63720,60
45,31,63840,60
45,30,63960,60
33,31,64080,120
45,31,64200,120
33,31,64320,120
45,31,64440,120
37,31,64560,120
49,31,64680,120
40,34,64800,120
40,33,64920,120
40,36,65040,120
40,39,65160,120
40,37,65280,60
40,35,65400,60
38,33,65520,60
38,31,65640,60
37,30,65760,60
37,30,65880,60
35,29,66000,60
35,29,66120,60
33,34,66240,120
45,28,66360,60
45,28,66480,60
45,28,66600,60
33,33,66720,120
45,28,66840,60
45,28,66960,60
45,28,67080,60
33,32,67200,120
45,28,67320,60
45,28,67440,60
45,28,67560,60
33,34,67680,120
45,29,67800,60
45,29,67920,60
45,29,68040,60
45,29,68160,60
45,29,68280,60
33,29,68400,60
45,30,68520,60
31,42,68640,120
43,36,68760,120
28,39,68880,90
42,43,69000,90
35,47,69120,120
47,36,69240,120
47,34,69360,120
49,32,69480,120
50,31,69600,120
47,30,69720,120
35,34,69840,120
47,33,69960,120
37,32,70080,120
49,31,70200,120
40,31,70320,120
52,31,70440,120
40,29,70680,120
44,31,70800,120
40,33,70920,120
45,35,71040,90
37,32,71160,60
38,32,71280,60
40,32,71400,60
42,32,71520,60
40,32,71640,60
42,31,71760,60
44,31,71880,60
45,36,72000,120
49,23,72240,120
52,27,72240,120
45,36,72480,120
49,24,72720,120
52,28,72720,120
45,36,72960,120
50,25,73200,120
52,29,73200,120
45,36,73440,120
52,30,73680,120
45,36,73920,120
52,29,74160,120
49,25,74160,120
45,36,74400,120
52,29,74640,120
57,29,74640,120
45,36,74880,120
57,28,75120,120
54,24,75120,120
45,36,75360,120
54,27,75600,240
57,32,75600,240
52,27,75840,240
57,32,75840,240
49,28,76080,240
57,33,76080,240
40,36,76320,120
52,33,76560,120
40,33,76800,120
50,27,77040,180
52,32,77040,180
49,30,77280,180
52,36,77280,180
47,28,77520,180
52,33,77520,180
45,36,77760,120
49,23,78000,120
52,27,78000,120
45,36,78240,120
49,24,78480,120
52,28,78480,120
45,36,78720,120
50,25,78960,120
52,29,78960,120
45,36,79200,120
52,30,79440,120
45,36,79680,120
45,26,79920,120
52,30,79920,120
49,26,79920,120
43,27,80160,120
49,27,80160,120
52,31,80160,120
42,32,80400,120
49,32,80400,120
54,32,80400,120
47,40,80640,120
54,28,80880,180
58,28,81060,60
59,36,81120,240
47,27,81360,240
54,32,81360,180
56,32,81540,60
49,27,81600,240
57,32,81600,240
52,28,81840,240
56,33,81840,240
45,36,82080,120
52,33,82320,120
56,33,82320,120
52,28,82560,120
57,33,82560,120
45,31,82560,90
45,38,82680,60
47,37,82800,60
49,35,82920,60
47,34,83040,60
45,32,83160,60
44,31,83280,60
42,31,83400,60
40,34,83520,120
52,28,83640,60
52,28,83760,60
52,28,83880,60
40,33,84000,120
52,28,84120,60
52,28,84240,60
52,28,84360,60
37,32,84480,120
49,28,84600,60
49,28,84720,60
49,28,84840,60
35,34,84960,120
47,29,85080,60
47,29,85200,60
47,29,85320,60
35,29,85440,90
47,29,85560,60
47,29,85680,60
47,29,85800,60
35,34,85920,120
47,32,86040,120
35,35,86160,90
47,39,86280,90
33,42,86400,120
45,38,86520,120
45,40,86640,120
43,41,86760,120
30,43,86880,120
42,37,87000,120
31,39,87120,120
43,37,87240,120
33,37,87360,120
45,36,87480,120
33,35,87600,120
45,34,87720,120
33,31,87840,120
45,29,87960,120
49,31,88080,120
45,33,88200,120
38,35,88320,90
50,29,88440,60
50,28,88560,60
50,28,88680,60
50,27,88800,60
50,26,88920,60
50,25,89040,60
50,24,89160,90
38,25,89280,120
50,21,89400,60
50,21,89520,60
50,21,89640,60
38,24,89760,120
50,21,89880,60
50,21,90000,60
50,21,90120,60
38,23,90240,120
50,21,90360,60
50,21,90480,60
50,21,90600,60
39,25,90720,120
51,22,90840,60
51,22,90960,60
51,22,91080,60
39,22,91200,90
51,22,91320,90
36,22,91440,90
48,22,91560,90
38,25,91680,120
50,19,91800,120
39,22,91920,90
51,22,92040,90
29,26,92160,120
41,22,92280,60
41,22,92400,60
41,22,92520,60
29,22,92640,120
41,22,92760,60
41,22,92880,60
41,22,93000,60
29,22,93120,120
41,22,93240,60
41,22,93360,60
41,22,93480,60
29,26,93600,120
41,23,93720,60
41,23,93840,60
41,24,93960,60
29,24,94080,120
41,23,94200,60
41,23,94320,60
41,23,94440,60
29,24,94560,120
41,23,94680,60
41,23,94800,60
41,22,94920,60
40,31,95040,120
52,28,95160,60
52,28,95280,60
52,29,95400,60
40,29,95520,120
52,29,95640,60
52,31,95760,60
52,30,95880,60
40,30,96000,120
52,29,96120,120
40,30,96240,120
40,29,96360,120
33,34,96480,120
45,28,96600,60
45,28,96720,60
45,28,96840,60
33,33,96960,120
45,28,97080,60
45,28,97200,60
45,28,97320,60
33,32,97440,120
45,28,97560,60
45,28,97680,60
45,28,97800,60
33,34,97920,120
45,29,98040,60
45,29,98160,60
45,29,98280,60
45,29,98400,60
45,29,98520,60
45,29,98640,60
45,29,98760,60
45,37,98880,60
45,28,99000,60
45,31,99120,60
45,34,99240,60
33,37,99360,120
45,34,99480,60
45,34,99600,60
45,34,99720,60
33,34,99840,60
45,33,99960,60
45,34,100080,60
45,34,100200,60
33,34,100320,120
45,34,100440,120
37,34,100560,120
49,34,100680,120
28,37,100800,120
40,31,100920,120
40,34,101040,120
40,36,101160,120
40,40,101280,60
40,41,101400,60
38,46,101520,60
38,47,101640,60
36,48,101760,60
36,49,101880,60
35,51,102000,60
35,53,102120,60
33,57,102240,120
45,46,102360,60
45,46,102480,60
45,46,102600,60
33,57,102720,120
45,46,102840,60
45,47,102960,60
45,47,103080,60
31,55,103200,120
43,47,103320,60
43,48,103440,60
43,48,103560,60
36,60,103680,120
48,49,103800,60
48,50,103920,60
48,50,104040,60
36,50,104160,90
48,50,104280,60
48,51,104400,60
48,51,104520,60
36,57,104640,120
48,51,104760,120
41,54,104880,90
53,57,105000,90
40,60,105120,120
52,50,105240,60
52,50,105360,60
52,48,105480,60
42,41,105600,120
54,39,105720,120
38,34,105840,120
50,34,105960,120
40,34,106080,120
52,34,106200,120
40,31,106320,120
52,31,106440,120
40,29,106680,120
44,31,106800,120
40,33,106920,120
45,35,107040,90
45,32,107160,60
47,32,107280,60
49,32,107400,60
47,32,107520,60
45,32,107640,60
44,31,107760,60
42,31,107880,60
40,36,108000,120
52,23,108240,120
56,27,108240,120
40,36,108480,120
52,24,108720,120
56,28,108720,120
49,36,108960,120
54,25,109200,120
58,29,109200,120
47,36,109440,120
54,25,109680,120
59,30,109680,120
47,36,109920,120
59,29,110160,120
54,25,110160,120
47,36,110400,120
62,29,110640,120
56,25,110640,120
59,25,110640,120
45,36,110880,120
62,28,111120,240
57,24,111120,180
55,24,111300,60
54,27,111360,240
62,36,111360,240
55,27,111600,240
62,32,111600,240
57,27,111840,240
62,32,111840,240
57,28,112080,240
61,33,112080,240
50,36,112320,120
57,27,112560,120
61,33,112560,120
50,33,112800,120
57,27,113040,180
62,32,113040,180
50,36,113280,180
54,26,113520,180
57,30,113520,180
38,25,113760,120
50,16,114000,120
53,18,114000,120
38,25,114240,120
50,17,114480,120
53,19,114480,120
38,25,114720,120
50,17,114960,120
53,20,114960,120
39,25,115200,120
51,17,115440,120
55,21,115440,120
39,25,115680,240
51,17,115920,240
55,17,115920,240
58,20,115920,240
50,17,116160,240
55,17,116160,240
59,20,116160,240
48,17,116400,240
55,17,116400,240
60,20,116400,240
41,25,116640,120
58,19,116880,120
53,17,116880,120
41,25,117120,120
53,17,117360,120
58,19,117360,120
41,25,117600,120
53,17,117840,120
57,19,117840,120
41,25,118080,120
53,23,118320,120
41,23,118560,120
53,22,118800,180
41,25,119040,180
53,23,119280,180
41,25,119520,120
53,23,119760,120
41,23,120000,120
53,22,120240,180
41,25,120480,180
53,24,120720,180
42,28,120960,120
54,24,121200,120
42,23,121440,120
54,22,121680,180
42,25,121920,180
54,23,122160,180
30,25,122400,120
42,23,122640,120
30,23,122880,120
42,22,123120,180
30,25,123360,180
42,24,123600,180
32,28,123840,120
44,24,124080,120
32,23,124320,120
44,22,124560,180
32,25,124800,180
44,23,125040,180
32,25,125280,120
44,22,125520,120
32,22,125760,120
44,20,126000,180
32,22,126240,180
44,20,126480,180
37,26,128160,120
49,22,128400,240
61,27,128640,240
37,25,129240,60
37,25,129360,60
36,25,129480,60
37,26,129600,120
49,22,129840,240
61,27,130080,240
37,26,130680,60
37,26,130800,60
36,27,130920,60
37,26,131040,120
49,22,131280,240
61,27,131520,240
37,27,132120,60
37,26,132240,60
36,26,132360,60
37,26,132480,120
49,22,132720,240
61,27,132960,240
37,28,133560,60
37,27,133680,60
36,26,133800,60
37,26,133920,120
49,22,134160,240
61,27,134400,240
37,25,135000,60
37,25,135120,60
36,26,135240,60
37,26,135360,120
49,22,135600,240
61,27,135840,240
37,26,136440,60
37,26,136560,60
36,27,136680,60
37,31,136800,120
49,25,137040,240
61,30,137280,240
37,26,137880,60
37,26,138000,60
36,26,138120,60
37,26,138240,120
49,22,138480,240
61,27,138720,240
37,27,139320,60
37,27,139440,60
40,27,139560,60
32,28,139680,120
44,35,139920,240
56,41,140160,240
32,31,140760,60
32,32,140880,60
31,32,141000,60
32,35,141120,120
44,43,141360,240
56,50,141600,240
32,35,142200,60
32,35,142320,60
31,35,142440,60
32,39,142560,120
44,49,142800,240
56,57,143040,240
32,42,143640,60
32,42,143760,60
31,42,143880,60
32,46,144000,120
44,52,144240,240
56,60,144480,240
68,59,144720,120
32,36,145080,60
32,36,145200,60
31,36,145320,60
32,36,145440,120
44,38,145680,240
56,41,145920,240
68,38,146160,120
36,26,146880,240
48,22,147120,240
60,24,147360,240
64,25,147600,120
36,25,147960,60
38,25,148080,60
40,25,148200,60
29,26,148320,240
41,22,148560,240
53,26,148800,240
65,25,149040,120
38,25,149400,60
40,25,149520,60
41,25,149640,60
31,26,149760,240
43,22,150000,240
55,27,150240,240
67,28,150480,120
31,25,150840,60
33,25,150960,60
35,25,151080,60
36,26,151200,240
48,22,151440,240
60,27,151680,240
36,25,152280,60
36,25,152400,60
38,25,152520,60
36,26,152640,240
55,22,152880,240
67,27,153120,240
36,25,153720,60
36,25,153840,60
38,25,153960,60
36,26,154080,240
55,22,154320,240
67,27,154560,240
36,25,155160,60
36,25,155280,60
38,25,155400,60
36,26,155520,240
55,22,155760,240
67,27,156000,240
36,25,156600,60
36,25,156720,60
38,25,156840,60
36,26,156960,240
55,22,157200,240
67,27,157440,240
36,25,158040,60
36,25,158160,60
38,25,158280,60
35,26,158400,240
47,22,158640,240
59,27,158880,240
35,25,159480,60
35,25,159600,60
37,25,159720,60
35,26,159840,120
47,22,160080,240
59,27,160320,240
35,25,160920,60
35,25,161040,60
37,25,161160,60
35,26,161280,120
47,22,161520,240
59,27,161760,240
35,25,162360,60
35,25,162480,60
37,25,162600,60
35,26,162720,120
47,22,162960,240
59,27,163200,240
35,26,163800,60
35,26,163920,60
37,26,164040,60
35,29,164160,120
47,37,164400,240
59,43,164640,240
35,32,165240,60
35,33,165360,60
37,33,165480,60
35,37,165600,120
47,47,165840,240
59,56,166080,240
35,40,166680,60
35,41,166800,60
37,43,166920,60
35,46,167040,120
47,52,167280,240
59,60,167520,240
35,33,168120,60
35,32,168240,60
37,33,168360,60
35,34,168480,120
47,30,168720,240
59,31,168960,240
37,26,169920,120
49,22,170160,240
61,26,170400,240
37,25,171000,60
39,25,171120,60
40,25,171240,60
30,24,171360,120
42,24,171600,240
54,27,171840,240
66,30,172077,240
30,25,172440,60
29,25,172560,60
30,25,172680,60
32,24,172800,120
44,22,173040,240
56,27,173280,240
32,25,173880,60
31,25,174000,60
32,25,174120,60
37,26,174240,120
44,22,174480,240
49,27,174720,240
37,25,175320,60
37,25,175440,60
36,25,175560,60
37,20,175680,240
49,20,175920,240
61,23,176160,240
37,20,176760,60
39,20,176880,60
41,20,177000,60
30,19,177120,240
42,20,177360,240
54,23,177600,240
39,20,178200,60
41,20,178320,60
42,20,178440,60
32,19,178560,240
44,17,178800,240
56,21,179040,240
32,20,179640,60
34,22,179760,60
36,22,179880,60
37,22,180000,240
44,19,180240,240
49,22,180480,240
49,25,181080,60
48,25,181200,60
49,25,181320,60
46,26,181440,240
46,25,182520,60
46,25,182640,60
49,25,182760,60
45,26,182880,240
45,25,183960,60
45,25,184080,60
49,25,184200,60
44,26,184320,240
44,25,185400,60
43,25,185520,60
44,25,185640,60
37,26,185760,240
49,27,186000,120
37,22,186840,60
36,22,186960,60
37,22,187080,60
34,22,187200,120
46,24,187440,120
34,21,188280,60
34,21,188400,60
37,21,188520,60
33,22,188640,120
45,24,188880,120
33,21,189720,60
33,21,189840,60
35,21,189960,60
32,22,190080,120
44,24,190320,120
56,24,190560,480
32,21,191160,60
31,21,191280,60
32,21,191400,60
61,25,191520,1200
56,21,191520,1200
53,21,191520,1200
37,22,191520,120
49,22,191760,120
37,21,192600,60
37,21,192720,60
36,21,192840,60
61,25,192960,1200
58,21,192960,1200
54,21,192960,1200
37,22,192960,120
49,22,193200,120
37,21,194040,60
37,21,194160,60
36,21,194280,60
61,25,194400,1200
54,21,194400,1200
51,21,194400,1200
37,22,194400,120
49,22,194640,120
37,21,195480,60
37,21,195600,60
36,21,195720,60
37,22,195840,240
53,21,195840,480
56,21,195840,480
61,25,195840,480
53,18,196320,480
56,18,196320,480
61,22,196320,480
53,18,196800,480
56,18,196800,480
61,22,196800,480
32,18,197040,60
37,19,197280,1440
53,18,197280,1440
56,18,197280,1440
61,22,197280,1440
