note,velocity,position,duration
67,60,1,420
69,50,420,60
67,60,480,160
64,57,640,160
60,53,800,160
67,60,960,360
76,56,1320,120
76,60,1440,960
72,44,2400,240
67,59,2880,420
65,50,3300,60
64,60,3360,160
60,56,3520,160
55,52,3680,160
60,60,3840,160
64,57,4000,160
67,54,4160,160
55,56,4320,120
64,56,4320,120
67,56,4320,120
65,53,4560,120
62,53,4560,120
55,53,4560,120
55,56,4800,90
60,56,4800,90
64,56,4800,90
59,50,5040,90
55,50,5040,90
62,50,5040,90
55,56,5280,90
64,56,5280,90
60,56,5280,90
55,41,5760,120
63,41,5760,120
67,41,5760,120
65,37,6000,120
55,37,6000,120
62,37,6000,120
55,41,6240,90
60,41,6240,90
63,41,6240,90
62,38,6480,90
55,38,6480,90
59,38,6480,90
55,43,6720,90
60,43,6720,90
63,43,6720,90
65,38,6960,90
58,38,6960,90
62,38,6960,90
58,53,7200,240
62,53,7200,240
65,53,7200,240
63,49,7440,180
58,49,7440,180
67,49,7440,180
58,58,7680,240
67,58,7680,240
63,58,7680,240
62,53,7920,180
66,53,7920,180
69,53,7920,180
69,63,8160,240
66,63,8160,240
62,63,8160,240
62,58,8400,180
67,58,8400,180
70,58,8400,180
70,68,8640,240
62,68,8640,240
67,68,8640,240
62,66,8880,240
67,66,8880,240
71,66,8880,240
67,71,9120,720
62,71,9120,720
71,71,9120,720
65,54,9840,240
77,54,9840,240
71,54,9840,240
64,54,10080,1440
72,54,10080,1440
76,54,10080,1440
67,60,11520,420
69,50,11940,60
67,60,12000,160
64,57,12160,160
60,53,12320,160
67,60,12480,360
76,56,12840,120
76,60,12960,960
72,44,13920,240
67,59,14400,420
65,50,14820,60
64,60,14880,160
60,56,15040,160
55,52,15200,160
60,60,15360,160
64,57,15520,160
67,57,15680,160
55,56,15840,120
64,56,15840,120
67,56,15840,120
55,53,16080,120
62,53,16080,120
65,53,16080,120
55,56,16320,90
60,56,16320,90
64,56,16320,90
55,50,16560,90
59,50,16560,90
62,50,16560,90
55,56,16800,90
60,56,16800,90
64,56,16800,90
55,41,17280,120
63,41,17280,120
67,41,17280,120
55,37,17520,120
62,37,17520,120
65,37,17520,120
55,41,17760,90
60,41,17760,90
63,41,17760,90
55,38,18000,90
59,38,18000,90
62,38,18000,90
55,45,18240,90
60,45,18240,90
63,45,18240,90
58,41,18480,120
62,41,18480,120
65,41,18480,120
58,51,18720,240
62,51,18720,240
65,51,18720,240
58,48,18960,180
63,48,18960,180
67,48,18960,180
58,57,19200,240
63,57,19200,240
67,57,19200,240
62,54,19440,180
66,54,19440,180
69,54,19440,180
62,64,19680,240
66,64,19680,240
69,64,19680,240
62,57,19920,180
67,57,19920,180
70,57,19920,180
62,66,20160,240
67,66,20160,240
70,66,20160,240
62,66,20400,240
67,66,20400,240
71,66,20400,240
62,69,20640,720
67,69,20640,720
71,69,20640,720
65,54,21360,240
71,54,21360,240
77,54,21360,240
64,54,21600,1440
72,54,21600,1440
76,54,21600,1440
76,54,23040,420
77,44,23460,60
76,54,23520,160
72,50,23680,160
69,47,23840,100
74,44,23940,60
72,54,24000,160
69,51,24160,160
64,47,24320,160
64,54,24480,480
69,54,24480,240
72,54,24480,240
68,43,24720,240
71,51,24720,240
68,45,24960,240
64,45,24960,240
71,54,24960,240
66,43,25200,240
64,43,25200,240
69,51,25200,240
64,45,25440,480
68,45,25440,480
71,54,25440,480
64,45,25920,480
67,45,25920,480
72,54,25920,240
71,51,26160,240
64,45,26400,240
67,45,26400,240
71,54,26400,240
64,44,26640,240
67,44,26640,240
72,52,26640,240
67,45,26880,480
71,54,26880,240
77,53,27120,240
76,54,27360,420
74,43,27780,60
72,53,27840,160
71,51,28000,160
69,52,28160,160
71,55,28320,480
71,68,28800,420
72,58,29220,60
71,68,29280,160
67,66,29440,160
64,64,29600,120
79,82,29760,240
76,72,30000,90
71,70,30240,420
72,60,30660,60
71,71,30720,160
67,69,30880,160
64,66,31040,120
79,85,31200,240
76,74,31440,90
83,90,31680,240
75,90,31680,240
78,90,31680,240
71,87,31920,90
81,70,32100,60
79,87,32160,160
78,83,32320,160
76,78,32480,160
83,93,32640,240
75,93,32640,240
78,93,32640,240
71,86,32880,90
81,74,33060,60
79,89,33120,160
78,85,33280,160
76,82,33440,160
83,95,33600,240
75,95,33600,240
78,95,33600,240
71,89,33840,90
95,117,34080,240
83,93,34320,90
79,45,36000,240
76,30,36240,120
79,43,36480,240
76,31,36720,120
79,42,36960,240
76,31,37200,120
79,41,37440,240
76,29,37680,120
79,38,37920,240
76,27,38160,120
79,37,38400,240
76,26,38640,120
79,36,38880,240
76,36,38880,240
67,27,39120,120
76,36,39360,240
79,36,39360,240
67,27,39600,120
76,36,39840,240
79,36,39840,240
67,27,40080,120
76,38,40320,240
79,38,40320,240
67,29,40560,120
76,38,40800,240
79,38,40800,240
67,27,41040,120
76,34,41280,240
79,34,41280,240
67,26,41520,120
67,51,41760,420
69,48,42180,60
67,57,42240,160
64,53,42400,160
60,46,42560,160
67,57,42720,360
76,52,43080,120
76,57,43200,960
72,35,44160,240
79,72,44640,420
77,56,45060,60
76,68,45120,160
72,63,45280,160
67,59,45440,160
72,69,45600,160
76,65,45760,160
79,61,45920,160
67,70,46080,120
76,70,46080,120
79,70,46080,120
67,66,46320,120
74,66,46320,120
77,66,46320,120
67,70,46560,90
72,70,46560,90
76,70,46560,90
67,63,46800,90
71,63,46800,90
74,63,46800,90
67,70,47040,90
72,70,47040,90
76,70,47040,90
67,45,47520,240
69,41,47760,120
71,41,47880,120
72,45,48000,90
67,39,48240,90
72,48,48480,90
70,67,48720,120
82,67,48720,120
70,68,48960,120
82,68,48960,120
87,73,49200,120
75,73,49200,120
87,78,49440,120
75,78,49440,120
86,74,49680,120
74,74,49680,120
74,81,49920,120
86,81,49920,120
91,79,50160,120
79,79,50160,120
79,83,50400,120
91,83,50400,120
89,70,50640,120
77,70,50640,120
89,66,50880,720
77,66,50880,720
71,50,51600,240
83,50,51600,240
84,45,51840,1440
72,45,51840,1440
76,54,53280,420
77,44,53700,60
76,54,53760,160
72,50,53920,160
69,47,54080,100
74,44,54180,60
72,54,54240,160
69,51,54400,160
64,47,54560,160
64,45,54720,480
69,45,54720,240
72,54,54720,240
68,43,54960,240
71,51,54960,240
68,45,55200,240
64,45,55200,240
71,54,55200,240
66,43,55440,240
64,43,55440,240
69,51,55440,240
64,45,55680,480
68,45,55680,480
71,54,55680,480
64,45,56160,480
67,45,56160,480
72,54,56160,240
71,51,56400,240
64,45,56640,240
67,45,56640,240
71,54,56640,240
64,44,56880,240
67,44,56880,240
72,52,56880,240
67,45,57120,480
71,54,57120,240
77,53,57360,240
76,54,57600,420
74,43,58020,60
72,53,58080,160
71,51,58240,160
69,52,58400,160
71,55,58560,480
71,68,59040,420
72,58,59460,60
71,68,59520,160
67,66,59680,160
64,64,59840,120
79,82,60000,240
76,72,60240,90
71,70,60480,420
72,56,60900,60
71,71,60960,160
67,69,61120,160
64,66,61280,120
79,85,61440,240
76,74,61680,90
83,90,61920,240
75,90,61920,240
78,90,61920,240
71,87,62160,90
81,71,62340,60
79,87,62400,160
78,83,62560,160
76,78,62720,160
83,93,62880,240
75,93,62880,240
78,93,62880,240
71,86,63120,90
81,74,63300,60
79,89,63360,160
78,85,63520,160
76,82,63680,160
83,95,63840,240
75,95,63840,240
78,95,63840,240
71,89,64080,90
95,114,64320,240
83,93,64560,90
79,45,66240,240
76,30,66480,120
79,43,66720,240
76,31,66960,120
79,42,67200,240
76,31,67440,120
79,41,67680,240
76,29,67920,120
79,38,68160,240
76,27,68400,120
79,37,68640,240
76,26,68880,120
79,36,69120,240
76,36,69120,240
67,27,69360,120
76,36,69600,240
79,36,69600,240
67,27,69840,120
76,36,70080,240
79,36,70080,240
67,27,70320,120
76,38,70560,240
79,38,70560,240
67,29,70800,120
76,38,71040,240
79,38,71040,240
67,27,71280,120
76,34,71520,240
79,34,71520,240
67,26,71760,120
67,51,72000,420
69,48,72420,60
67,57,72480,160
64,53,72640,160
60,46,72800,160
67,57,72960,360
76,52,73320,120
76,57,73440,960
72,35,74400,240
79,72,74880,420
77,56,75300,60
76,68,75360,160
72,63,75520,160
67,59,75680,160
72,69,75840,160
76,65,76000,160
79,61,76160,160
67,70,76320,120
76,70,76320,120
79,70,76320,120
67,66,76560,120
74,66,76560,120
77,66,76560,120
67,70,76800,90
72,70,76800,90
76,70,76800,90
67,63,77040,90
71,63,77040,90
74,63,77040,90
67,70,77280,90
72,70,77280,90
76,70,77280,90
67,45,77760,240
69,41,78000,120
71,41,78120,120
72,45,78240,90
67,39,78480,90
72,48,78720,90
70,64,78960,120
82,64,78960,120
70,66,79200,120
82,66,79200,120
87,71,79440,120
75,71,79440,120
87,74,79680,120
75,74,79680,120
86,70,79920,120
74,70,79920,120
74,79,80160,120
86,79,80160,120
91,81,80400,120
79,81,80400,120
79,85,80640,120
91,85,80640,120
89,70,80880,120
77,70,80880,120
89,66,81120,720
77,66,81120,720
71,50,81840,240
83,50,81840,240
84,45,82080,1410
72,45,82080,1410
67,50,83520,160
62,40,83680,160
59,34,83840,160
67,47,84000,160
62,37,84160,160
59,32,84320,160
66,47,84480,160
62,38,84640,160
57,33,84800,160
69,50,84960,160
62,41,85120,160
60,33,85280,160
69,48,85440,160
62,38,85600,160
60,30,85760,160
67,48,85920,160
62,38,86080,160
59,31,86240,160
67,47,86400,160
62,38,86560,160
59,31,86720,160
62,47,86880,240
66,47,86880,240
69,56,86880,240
62,51,87120,240
67,51,87120,240
71,61,87120,240
62,55,87360,360
69,55,87360,360
72,64,87360,360
62,49,87720,120
67,49,87720,120
71,59,87720,120
62,45,87840,480
67,45,87840,480
71,53,87840,480
62,31,88320,240
66,31,88320,240
69,37,88320,240
62,29,88560,240
64,29,88560,240
67,35,88560,240
62,31,88800,480
66,31,88800,480
69,37,88800,480
74,53,89280,1440
67,50,89280,160
62,40,89440,160
71,34,89600,160
67,47,89760,160
62,37,89920,160
71,32,90080,160
66,47,90240,160
62,38,90400,160
69,33,90560,160
74,53,90720,1440
69,50,90720,160
62,41,90880,160
72,33,91040,160
69,48,91200,160
62,38,91360,160
72,30,91520,160
67,48,91680,160
62,38,91840,160
71,31,92000,160
62,70,92160,240
74,68,92400,240
64,56,92640,240
76,66,92640,240
66,61,92880,240
78,72,92880,240
67,69,93120,360
79,82,93120,360
62,46,93480,120
67,46,93480,120
71,55,93480,120
62,51,93600,480
71,51,93600,480
74,61,93600,480
62,42,94080,360
66,42,94080,360
72,50,94080,360
62,37,94440,120
67,37,94440,120
71,44,94440,120
62,34,94560,480
67,34,94560,480
71,41,94560,480
67,50,95040,160
62,40,95200,160
59,34,95360,160
67,47,95520,160
62,37,95680,160
59,32,95840,160
66,47,96000,160
62,38,96160,160
57,33,96320,160
69,50,96480,160
62,41,96640,160
60,33,96800,160
69,48,96960,160
62,38,97120,160
60,30,97280,160
67,48,97440,160
62,38,97600,160
59,31,97760,160
67,47,97920,160
62,38,98080,160
59,31,98240,160
62,49,98400,240
66,49,98400,240
69,59,98400,240
62,51,98640,240
67,51,98640,240
71,61,98640,240
62,53,98880,360
69,53,98880,360
72,63,98880,360
62,49,99240,120
67,49,99240,120
71,59,99240,120
62,45,99360,480
67,45,99360,480
71,53,99360,480
62,31,99840,240
66,31,99840,240
69,37,99840,240
62,29,100080,240
64,29,100080,240
67,29,100080,240
62,31,100320,480
66,31,100320,480
69,37,100320,480
74,53,100800,1440
67,50,100800,160
62,40,100960,160
71,34,101120,160
67,47,101280,160
62,37,101440,160
71,32,101600,160
66,47,101760,160
62,38,101920,160
69,33,102080,160
74,53,102240,1440
69,50,102240,160
62,41,102400,160
72,33,102560,160
69,48,102720,160
62,38,102880,160
72,30,103040,160
67,48,103200,160
62,38,103360,160
71,31,103520,160
62,70,103680,240
74,68,103920,240
64,56,104160,240
76,66,104160,240
66,61,104400,240
78,72,104400,240
67,68,104640,360
79,81,104640,360
62,46,105000,120
67,46,105000,120
71,55,105000,120
62,51,105120,480
71,51,105120,480
74,61,105120,480
62,42,105600,360
66,42,105600,360
72,50,105600,360
62,37,105960,120
67,37,105960,120
71,44,105960,120
62,34,106080,470
67,34,106080,470
71,41,106080,470
57,37,106560,480
66,37,106560,480
69,44,106560,480
57,32,107040,360
64,32,107040,360
67,38,107040,360
57,30,107400,120
62,30,107400,120
66,36,107400,120
57,32,107520,480
62,32,107520,480
66,38,107520,480
66,37,108000,360
74,44,108000,360
67,35,108360,120
76,41,108360,120
66,40,108480,480
74,48,108480,480
69,37,108960,240
76,44,108960,240
57,47,109440,480
67,47,109440,480
71,56,109440,480
57,40,109920,360
66,40,109920,360
69,48,109920,360
57,32,110280,120
64,32,110280,120
67,38,110280,120
57,35,110400,480
64,35,110400,480
67,42,110400,480
69,42,110880,360
76,50,110880,360
74,39,111240,120
78,47,111240,120
69,44,111360,480
76,52,111360,480
74,41,111840,240
78,49,111840,240
66,56,112320,480
74,67,112320,480
69,38,112800,240
73,45,112800,240
67,38,113040,240
71,45,113040,240
57,48,113280,480
66,48,113280,480
69,57,113280,480
57,38,113760,240
64,38,113760,240
67,45,113760,240
57,38,114000,240
62,38,114000,240
66,45,114000,240
57,49,114240,480
67,49,114240,480
71,58,114240,480
57,42,114720,240
66,42,114720,240
69,50,114720,240
57,41,114960,240
64,41,114960,240
67,49,114960,240
62,44,115200,240
66,52,115200,240
57,40,115440,240
64,48,115440,240
54,45,115680,960
62,53,115680,960
57,42,116640,480
66,42,116640,480
69,50,116640,480
57,39,117120,360
64,39,117120,360
67,47,117120,360
57,39,117480,120
62,39,117480,120
66,46,117480,120
57,40,117600,480
62,40,117600,480
66,48,117600,480
57,48,118080,480
66,48,118080,480
69,57,118080,480
57,45,118560,360
64,45,118560,360
67,54,118560,360
57,45,118920,120
62,45,118920,120
66,45,118920,120
57,47,119040,480
62,47,119040,480
66,56,119040,480
72,70,119520,480
62,59,119520,480
66,59,119520,480
67,54,120000,360
62,54,120000,360
71,64,120000,360
69,59,120360,120
62,50,120360,120
66,50,120360,120
69,61,120480,480
62,51,120480,480
66,51,120480,480
62,62,120960,480
72,62,120960,480
76,74,120960,480
62,59,121440,360
71,59,121440,360
74,70,121440,360
62,56,121800,120
69,56,121800,120
72,67,121800,120
62,59,121920,480
72,70,121920,480
69,59,121920,480
57,44,122400,480
62,44,122400,480
72,52,122400,480
59,39,122880,360
62,39,122880,360
71,46,122880,360
60,35,123240,120
62,35,123240,120
69,42,123240,120
60,35,123360,1920
62,35,123360,1920
69,42,123360,1920
67,50,125280,160
62,40,125440,160
58,34,125600,160
67,47,125760,160
62,37,125920,160
58,32,126080,160
66,47,126240,160
62,38,126400,160
57,33,126560,160
69,50,126720,160
62,41,126880,160
60,33,127040,160
69,48,127200,160
62,38,127360,160
60,30,127520,160
67,48,127680,160
62,38,127840,160
58,31,128000,160
67,47,128160,160
62,38,128320,160
58,31,128480,160
62,45,128640,240
66,45,128640,240
69,53,128640,240
62,47,128880,240
67,47,128880,240
70,56,128880,240
62,49,129120,360
69,49,129120,360
72,58,129120,360
62,45,129480,120
67,45,129480,120
70,54,129480,120
62,45,129600,480
67,45,129600,480
70,53,129600,480
62,31,130080,240
66,31,130080,240
69,37,130080,240
62,29,130320,240
64,29,130320,240
67,35,130320,240
62,31,130560,480
66,31,130560,480
69,37,130560,480
74,53,131040,1440
67,50,131040,160
62,40,131200,160
71,34,131360,160
67,47,131520,160
62,37,131680,160
71,32,131840,160
66,47,132000,160
62,38,132160,160
69,33,132320,160
74,53,132480,1440
69,50,132480,160
62,41,132640,160
72,33,132800,160
69,48,132960,160
62,38,133120,160
72,30,133280,160
67,48,133440,160
62,38,133600,160
71,31,133760,160
62,70,133920,240
74,68,134160,240
64,56,134400,240
76,66,134400,240
66,62,134640,240
78,74,134640,240
67,70,134880,360
79,83,134880,360
62,46,135240,120
67,46,135240,120
71,55,135240,120
62,51,135360,480
71,51,135360,480
74,61,135360,480
62,42,135840,360
66,42,135840,360
72,50,135840,360
62,37,136200,120
67,37,136200,120
71,44,136200,120
62,34,136320,480
67,34,136320,480
71,41,136320,480
57,37,136800,480
66,37,136800,480
69,44,136800,480
57,32,137280,360
64,32,137280,360
67,38,137280,360
57,30,137640,120
62,30,137640,120
66,36,137640,120
57,32,137760,480
62,32,137760,480
66,38,137760,480
66,37,138240,360
74,44,138240,360
67,35,138600,120
76,41,138600,120
66,40,138720,480
74,48,138720,480
69,37,139200,240
76,44,139200,240
57,46,139680,480
67,46,139680,480
71,55,139680,480
57,39,140160,360
66,39,140160,360
69,47,140160,360
57,32,140520,120
64,32,140520,120
67,38,140520,120
57,35,140640,480
64,35,140640,480
67,42,140640,480
69,42,141120,360
76,50,141120,360
74,39,141480,120
78,47,141480,120
69,44,141600,480
76,52,141600,480
74,41,142080,240
78,49,142080,240
66,51,142560,480
74,61,142560,480
69,38,143040,240
73,45,143040,240
67,38,143280,240
71,45,143280,240
57,48,143520,480
66,48,143520,480
69,57,143520,480
57,38,144000,240
64,38,144000,240
67,45,144000,240
57,38,144240,240
62,38,144240,240
66,38,144240,240
57,49,144480,480
67,49,144480,480
71,58,144480,480
57,42,144960,240
66,42,144960,240
69,50,144960,240
57,41,145200,240
64,41,145200,240
67,49,145200,240
62,44,145440,240
66,52,145440,240
57,40,145680,240
64,48,145680,240
54,45,145920,960
62,53,145920,960
57,44,146880,480
66,44,146880,480
69,52,146880,480
57,41,147360,360
64,41,147360,360
67,49,147360,360
57,39,147720,120
62,39,147720,120
66,46,147720,120
57,40,147840,480
62,40,147840,480
66,48,147840,480
57,48,148320,480
66,57,148320,480
69,57,148320,480
57,45,148800,360
64,45,148800,360
67,54,148800,360
57,45,149160,120
62,45,149160,120
66,53,149160,120
57,47,149280,480
62,47,149280,480
66,56,149280,480
72,70,149760,480
62,59,149760,480
66,59,149760,480
67,66,150240,360
62,56,150240,360
71,66,150240,360
69,59,150600,120
62,50,150600,120
66,50,150600,120
69,61,150720,480
62,51,150720,480
66,51,150720,480
62,61,151200,480
72,61,151200,480
76,72,151200,480
62,59,151680,360
71,59,151680,360
74,70,151680,360
62,56,152040,120
69,56,152040,120
72,67,152040,120
62,59,152160,480
72,70,152160,480
69,59,152160,480
57,44,152640,480
62,44,152640,480
72,52,152640,480
59,39,153120,360
62,39,153120,360
71,46,153120,360
60,35,153480,120
62,35,153480,120
69,42,153480,120
60,35,153600,1920
62,35,153600,1920
69,42,153600,1920
67,50,155520,160
62,40,155680,160
58,34,155840,160
67,47,156000,160
62,37,156160,160
58,32,156320,160
66,47,156480,160
62,38,156640,160
57,33,156800,160
69,50,156960,160
62,41,157120,160
60,33,157280,160
69,48,157440,160
62,38,157600,160
60,30,157760,160
67,48,157920,160
62,38,158080,160
58,31,158240,160
67,47,158400,160
62,38,158560,160
58,31,158720,160
62,45,158880,240
66,45,158880,240
69,53,158880,240
62,46,159120,240
67,46,159120,240
70,55,159120,240
62,50,159360,360
69,59,159360,360
72,59,159360,360
62,45,159720,120
67,45,159720,120
70,54,159720,120
62,45,159840,480
67,45,159840,480
70,53,159840,480
62,31,160320,240
66,31,160320,240
69,37,160320,240
62,29,160560,240
64,29,160560,240
67,35,160560,240
62,31,160800,480
66,31,160800,480
69,37,160800,480
74,53,161280,1440
67,50,161280,160
62,40,161440,160
71,34,161600,160
67,47,161760,160
62,37,161920,160
71,32,162080,160
66,47,162240,160
62,38,162400,160
69,33,162560,160
74,53,162720,1440
69,50,162720,160
62,41,162880,160
72,33,163040,160
69,48,163200,160
62,38,163360,160
72,30,163520,160
67,48,163680,160
62,38,163840,160
71,31,164000,160
62,70,164160,240
74,68,164400,240
64,56,164640,240
76,66,164640,240
66,62,164880,240
78,73,164880,240
67,69,165120,360
79,82,165120,360
62,46,165480,120
67,46,165480,120
71,55,165480,120
71,61,165600,480
74,61,165600,480
62,42,166080,360
66,42,166080,360
72,50,166080,360
62,37,166440,120
67,37,166440,120
71,44,166440,120
62,34,166560,480
67,34,166560,480
71,41,166560,480
64,40,167040,480
67,40,167040,480
72,40,167040,480
62,38,167520,360
67,38,167520,360
71,38,167520,360
60,36,167880,120
67,36,167880,120
69,36,167880,120
60,38,168000,480
67,38,168000,480
69,38,168000,480
62,40,168480,480
71,40,168480,480
60,38,168960,360
62,38,168960,360
69,38,168960,360
59,36,169320,120
62,36,169320,120
67,36,169320,120
59,38,169440,480
62,38,169440,480
67,38,169440,480
60,40,169920,480
62,40,169920,480
69,40,169920,480
59,38,170400,360
62,38,170400,360
67,38,170400,360
57,36,170760,120
60,36,170760,120
66,36,170760,120
57,38,170880,480
60,38,170880,480
66,38,170880,480
59,40,171360,480
67,40,171360,480
57,38,171840,360
62,38,171840,360
55,36,172200,120
59,36,172200,120
55,38,172320,480
59,38,172320,480
55,38,172800,480
62,38,172800,480
65,38,172800,480
55,36,173280,360
60,36,173280,360
64,36,173280,360
55,34,173640,120
59,34,173640,120
62,34,173640,120
55,36,173760,480
59,36,173760,480
62,36,173760,480
59,38,174240,480
69,38,174240,480
65,38,174240,480
59,34,174720,360
67,34,174720,360
64,34,174720,360
62,31,175080,120
59,31,175080,120
65,31,175080,120
65,32,175200,480
59,32,175200,480
62,32,175200,480
69,36,175680,720
59,36,175680,1440
65,36,175680,1440
68,36,176400,240
67,36,176640,240
69,36,176880,240
69,36,177120,480
59,36,177120,1440
65,36,177120,1440
67,36,177600,960
67,60,178561,420
69,50,178980,60
67,60,179040,160
64,57,179200,160
60,53,179360,160
67,60,179520,360
76,56,179880,120
76,60,180000,960
72,44,180960,240
67,59,181440,420
65,50,181860,60
64,60,181920,160
60,56,182080,160
55,52,182240,160
60,60,182400,160
64,57,182560,160
67,54,182720,160
55,56,182880,120
64,56,182880,120
67,56,182880,120
55,53,183120,120
62,53,183120,120
65,53,183120,120
55,56,183360,90
60,56,183360,90
64,56,183360,90
55,50,183600,90
59,50,183600,90
62,50,183600,90
55,56,183840,120
60,56,183840,120
64,56,183840,120
55,41,184320,120
63,41,184320,120
67,41,184320,120
55,37,184560,120
62,37,184560,120
65,37,184560,120
55,41,184800,90
60,41,184800,90
63,41,184800,90
55,38,185040,90
59,38,185040,90
62,38,185040,90
55,41,185280,90
60,41,185280,90
63,41,185280,90
58,38,185520,90
62,38,185520,90
65,38,185520,90
58,50,185760,240
62,50,185760,240
65,50,185760,240
58,48,186000,180
63,48,186000,180
67,48,186000,180
58,52,186240,240
63,52,186240,240
67,52,186240,240
62,54,186480,180
66,54,186480,180
69,54,186480,180
62,60,186720,240
66,60,186720,240
69,60,186720,240
62,57,186960,180
67,57,186960,180
70,57,186960,180
62,66,187200,240
67,66,187200,240
70,66,187200,240
62,64,187440,240
67,64,187440,240
71,64,187440,240
62,70,187680,720
67,70,187680,720
71,70,187680,720
65,54,188400,240
71,54,188400,240
77,54,188400,240
64,54,188640,1440
72,54,188640,1440
76,54,188640,1440
76,54,190080,420
77,44,190500,60
76,54,190560,160
72,50,190720,160
69,47,190880,100
74,44,190980,60
72,54,191040,160
69,51,191200,160
64,47,191360,160
64,45,191520,480
69,45,191520,240
72,54,191520,240
68,43,191760,240
71,51,191760,240
68,54,192000,240
64,45,192000,240
71,54,192000,240
66,43,192240,240
64,43,192240,240
69,51,192240,240
64,45,192480,480
68,45,192480,480
71,54,192480,480
64,45,192960,480
67,45,192960,480
72,54,192960,240
71,51,193200,240
64,45,193440,240
67,45,193440,240
71,54,193440,240
64,44,193680,240
67,44,193680,240
72,52,193680,240
67,45,193920,480
71,54,193920,240
77,53,194160,240
76,54,194400,420
74,43,194820,60
72,53,194880,160
71,51,195040,160
69,52,195200,160
71,55,195360,480
71,68,195840,420
72,58,196260,60
71,68,196320,160
67,66,196480,160
64,64,196640,120
79,82,196800,240
76,72,197040,90
71,70,197280,420
72,60,197700,60
71,71,197760,160
67,69,197920,160
64,66,198080,120
79,85,198240,240
76,74,198480,90
83,90,198720,240
75,90,198720,240
78,90,198720,240
71,87,198960,90
81,70,199140,60
79,87,199200,160
78,83,199360,160
76,78,199520,160
83,93,199680,240
75,93,199680,240
78,93,199680,240
71,86,199920,90
81,72,200100,60
79,89,200160,160
78,85,200320,160
76,82,200480,160
83,95,200640,240
75,95,200640,240
78,95,200640,240
71,89,200880,90
95,115,201120,240
83,93,201360,90
79,45,203040,240
76,30,203280,120
79,43,203520,240
76,31,203760,120
79,42,204000,240
76,31,204240,120
79,41,204480,240
76,29,204720,120
79,38,204960,240
76,27,205200,120
79,37,205440,240
76,26,205680,120
79,36,205920,240
76,36,205920,240
67,27,206160,120
76,36,206400,240
79,36,206400,240
67,27,206640,120
76,36,206880,240
79,36,206880,240
67,27,207120,120
76,38,207360,240
79,38,207360,240
67,29,207600,120
76,38,207840,240
79,38,207840,240
67,27,208080,120
76,34,208320,240
79,34,208320,240
67,26,208560,120
67,47,208800,420
69,44,209220,60
67,52,209280,160
64,49,209440,160
60,42,209600,160
67,52,209760,360
76,48,210120,120
76,52,210240,960
72,35,211200,240
79,70,211680,420
77,51,212100,60
76,61,212160,160
72,57,212320,160
67,55,212480,160
72,63,212640,160
76,59,212800,160
79,56,212960,160
67,70,213120,120
76,70,213120,120
79,70,213120,120
67,66,213360,120
74,66,213360,120
77,66,213360,120
67,70,213600,90
72,70,213600,90
76,70,213600,90
67,63,213840,90
71,63,213840,90
74,63,213840,90
67,70,214080,120
72,70,214080,120
76,70,214080,120
67,45,214560,240
69,41,214800,120
71,41,214920,120
72,45,215040,90
67,39,215280,90
72,48,215520,90
70,65,215760,120
82,65,215760,120
70,67,216000,120
82,67,216000,120
87,70,216240,120
75,70,216240,120
87,73,216480,120
75,73,216480,120
86,71,216720,120
74,71,216720,120
74,78,216960,120
86,78,216960,120
91,77,217200,120
79,77,217200,120
79,84,217440,120
91,84,217440,120
89,70,217680,120
77,70,217680,120
89,66,217920,720
77,66,217920,720
71,48,218640,240
83,48,218640,240
84,45,218880,1440
72,45,218880,1440
55,54,1,420
57,44,420,60
55,54,480,160
52,50,640,160
48,47,800,160
55,54,960,360
64,51,1320,120
64,54,1440,960
60,40,2400,240
43,51,4320,120
45,46,4560,120
47,46,4680,120
48,51,4800,90
43,45,5040,90
48,51,5280,90
43,36,5760,240
45,34,6000,120
47,35,6120,120
48,36,6240,90
43,33,6480,90
48,36,6720,90
46,33,6960,90
46,49,7200,240
51,43,7440,180
51,50,7680,240
50,47,7920,180
50,56,8160,240
55,54,8400,180
55,59,8640,240
43,57,8880,240
55,57,8880,240
53,57,8880,240
53,61,9120,720
43,61,9120,720
55,61,9120,720
50,48,9840,240
43,48,9840,240
55,48,9840,240
55,48,10080,1440
48,48,10080,1440
55,54,11520,420
57,44,11940,60
55,54,12000,160
52,50,12160,160
48,47,12320,160
55,54,12480,360
64,51,12840,120
64,54,12960,960
60,40,13920,240
43,51,15840,120
45,46,16080,120
47,46,16200,120
48,51,16320,90
43,45,16560,90
48,51,16800,90
43,36,17280,240
45,34,17520,120
47,35,17640,120
48,36,17760,90
43,33,18000,90
48,38,18240,90
46,36,18480,120
46,47,18720,240
51,43,18960,180
51,50,19200,240
50,48,19440,180
50,56,19680,240
55,52,19920,180
55,59,20160,240
43,56,20400,240
53,56,20400,240
55,56,20400,240
43,63,20640,720
53,63,20640,720
55,63,20640,720
43,48,21360,240
50,48,21360,240
55,48,21360,240
48,48,21600,1440
55,48,21600,1440
52,52,24480,420
53,44,24900,60
52,58,24960,160
47,57,25120,160
40,54,25280,160
52,59,25440,480
52,52,25920,420
53,44,26340,60
52,59,26400,160
55,55,26560,160
60,53,26720,160
65,53,26880,480
62,45,26880,480
64,52,27360,480
60,44,27360,480
66,55,27840,240
62,46,27840,240
66,53,28080,240
62,45,28080,240
62,47,28320,480
55,47,28320,480
67,56,28320,480
59,61,28800,420
60,51,29220,60
59,61,29280,160
55,59,29440,160
52,56,29600,120
67,74,29760,240
64,64,30000,90
59,62,30240,420
60,53,30660,60
59,64,30720,160
55,61,30880,160
52,57,31040,120
67,76,31200,240
64,66,31440,90
47,77,31680,240
59,72,31920,90
63,57,32100,60
64,73,32160,160
66,67,32320,160
67,78,32480,160
47,79,32640,240
59,73,32880,90
63,57,33060,60
64,75,33120,160
66,68,33280,160
67,66,33440,160
47,80,33600,240
59,75,33840,90
35,81,34080,240
47,70,34320,90
64,36,36000,240
67,25,36240,120
64,34,36480,240
67,25,36720,120
64,33,36960,240
67,26,37200,120
64,33,37440,240
67,24,37680,120
64,31,37920,240
67,23,38160,120
64,30,38400,240
67,21,38640,120
55,48,38880,420
57,40,39300,60
55,48,39360,160
52,45,39520,160
48,39,39680,160
55,48,39840,360
64,45,40200,120
64,48,40320,960
60,36,41280,240
55,48,43200,420
57,40,43620,60
55,48,43680,160
52,45,43840,160
48,41,44000,160
55,48,44160,360
64,45,44520,120
64,48,44640,960
60,38,45600,240
43,61,46080,120
45,55,46320,120
47,55,46440,120
48,61,46560,90
43,53,46800,90
48,61,47040,90
51,38,47520,120
55,38,47520,120
50,35,47760,120
53,35,47760,120
55,35,47760,120
48,38,48000,90
51,38,48000,90
55,38,48000,90
47,35,48240,90
50,35,48240,90
55,35,48240,90
48,42,48480,90
51,42,48480,90
55,42,48480,90
50,51,48720,120
53,51,48720,120
58,51,48720,120
53,55,48960,120
56,55,48960,120
58,55,48960,120
51,50,49200,120
55,50,49200,120
58,50,49200,120
51,55,49440,120
55,55,49440,120
58,55,49440,120
54,51,49680,120
57,51,49680,120
62,51,49680,120
57,64,49920,120
60,64,49920,120
62,64,49920,120
55,60,50160,120
58,60,50160,120
62,60,50160,120
55,65,50400,120
58,65,50400,120
62,65,50400,120
43,49,50640,120
50,49,50640,120
59,49,50640,120
43,47,50880,720
50,47,50880,720
59,47,50880,720
65,37,51600,240
67,37,51600,240
55,37,51600,240
67,35,51840,1440
64,35,51840,1440
60,35,51840,1440
52,52,54720,420
53,44,55140,60
52,58,55200,160
47,57,55360,160
40,54,55520,160
52,59,55680,480
52,52,56160,420
53,44,56580,60
52,59,56640,160
55,55,56800,160
60,53,56960,160
65,53,57120,480
62,45,57120,480
64,52,57600,480
60,44,57600,480
66,55,58080,240
62,46,58080,240
66,53,58320,240
62,45,58320,240
62,47,58560,480
55,47,58560,480
67,56,58560,480
59,61,59040,420
60,51,59460,60
59,61,59520,160
55,59,59680,160
52,56,59840,120
67,76,60000,240
64,64,60240,90
59,62,60480,420
60,53,60900,60
59,64,60960,160
55,61,61120,160
52,57,61280,120
67,76,61440,240
64,66,61680,90
47,77,61920,240
59,72,62160,90
63,58,62340,60
64,73,62400,160
66,67,62560,160
67,78,62720,160
47,79,62880,240
59,73,63120,90
63,58,63300,60
64,75,63360,160
66,68,63520,160
67,66,63680,160
47,80,63840,240
59,75,64080,90
35,81,64320,240
47,70,64560,90
64,36,66240,240
67,25,66480,120
64,34,66720,240
67,25,66960,120
64,33,67200,240
67,26,67440,120
64,33,67680,240
67,24,67920,120
64,31,68160,240
67,23,68400,120
64,30,68640,240
67,21,68880,120
55,48,69120,420
57,40,69540,60
55,48,69600,160
52,45,69760,160
48,39,69920,160
55,48,70080,360
64,45,70440,120
64,48,70560,960
60,36,71520,240
55,48,73440,420
57,40,73860,60
55,48,73920,160
52,45,74080,160
48,41,74240,160
55,48,74400,360
64,45,74760,120
64,48,74880,960
60,38,75840,240
43,61,76320,120
45,55,76560,120
47,55,76680,120
48,61,76800,90
43,53,77040,90
48,61,77280,90
51,38,77760,120
55,38,77760,120
50,35,78000,120
53,35,78000,120
55,35,78000,120
48,38,78240,90
51,38,78240,90
55,38,78240,90
47,35,78480,90
50,35,78480,90
55,35,78480,90
48,42,78720,90
51,42,78720,90
55,42,78720,90
50,49,78960,120
53,49,78960,120
58,49,78960,120
53,52,79200,120
56,52,79200,120
58,52,79200,120
51,52,79440,120
55,52,79440,120
58,52,79440,120
51,56,79680,120
55,56,79680,120
58,56,79680,120
54,54,79920,120
57,54,79920,120
62,54,79920,120
57,59,80160,120
60,59,80160,120
62,59,80160,120
55,56,80400,120
58,56,80400,120
62,56,80400,120
55,64,80640,120
58,64,80640,120
62,64,80640,120
43,49,80880,120
50,49,80880,120
59,49,80880,120
43,47,81120,720
50,47,81120,720
59,47,81120,720
65,37,81840,240
67,37,81840,240
55,37,81840,240
67,35,82080,1410
64,35,82080,1410
60,35,82080,1410
47,45,83520,160
43,31,83520,1440
50,36,83680,160
55,31,83840,160
47,42,84000,160
50,33,84160,160
55,27,84320,160
45,41,84480,160
50,33,84640,160
54,27,84800,160
48,45,84960,160
43,31,84960,1440
50,36,85120,160
57,29,85280,160
48,43,85440,160
50,33,85600,160
57,28,85760,160
47,43,85920,160
50,33,86080,160
55,28,86240,160
47,42,86400,160
50,33,86560,160
55,28,86720,160
50,42,86880,240
54,42,86880,240
57,50,86880,240
50,45,87120,240
55,45,87120,240
59,53,87120,240
50,48,87360,360
57,48,87360,360
60,57,87360,360
50,42,87720,120
55,42,87720,120
59,51,87720,120
50,38,87840,480
55,38,87840,480
59,45,87840,480
50,27,88320,240
54,27,88320,240
57,32,88320,240
50,26,88560,240
52,26,88560,240
55,31,88560,240
50,28,88800,480
54,28,88800,480
57,33,88800,480
47,45,89280,160
43,31,89280,1440
50,36,89440,160
55,31,89600,160
47,42,89760,160
50,33,89920,160
55,27,90080,160
45,41,90240,160
50,33,90400,160
54,27,90560,160
48,45,90720,160
43,31,90720,1440
50,36,90880,160
57,29,91040,160
48,43,91200,160
50,33,91360,160
57,28,91520,160
47,43,91680,160
50,33,91840,160
55,28,92000,160
50,46,92160,480
47,39,92160,480
43,39,92160,480
43,46,92640,240
48,46,92640,240
52,55,92640,240
43,49,92880,240
45,49,92880,240
54,58,92880,240
43,57,93120,360
55,68,93120,360
47,57,93120,360
50,41,93480,120
55,41,93480,120
59,49,93480,120
50,45,93600,480
62,54,93600,480
59,45,93600,480
50,39,94080,360
57,39,94080,360
60,46,94080,360
55,31,94440,120
59,37,94440,120
55,28,94560,480
59,34,94560,480
47,45,95040,160
43,31,95040,1440
50,36,95200,160
55,31,95360,160
47,42,95520,160
50,33,95680,160
55,27,95840,160
45,41,96000,160
50,33,96160,160
54,27,96320,160
48,45,96480,160
43,31,96480,1440
50,36,96640,160
57,29,96800,160
48,43,96960,160
50,33,97120,160
57,28,97280,160
47,43,97440,160
50,33,97600,160
55,28,97760,160
47,42,97920,160
50,33,98080,160
55,28,98240,160
50,42,98400,240
54,42,98400,240
57,50,98400,240
50,45,98640,240
55,45,98640,240
59,53,98640,240
50,48,98880,360
57,57,98880,360
60,57,98880,360
50,42,99240,120
55,42,99240,120
59,51,99240,120
50,38,99360,480
55,38,99360,480
59,45,99360,480
50,27,99840,240
54,27,99840,240
57,32,99840,240
50,26,100080,240
52,26,100080,240
55,31,100080,240
50,28,100320,480
54,28,100320,480
57,33,100320,480
47,45,100800,160
43,31,100800,1440
50,36,100960,160
55,31,101120,160
47,42,101280,160
50,33,101440,160
55,27,101600,160
45,41,101760,160
50,33,101920,160
54,27,102080,160
48,45,102240,160
43,31,102240,1440
50,36,102400,160
57,29,102560,160
48,43,102720,160
50,33,102880,160
57,28,103040,160
47,43,103200,160
50,33,103360,160
55,28,103520,160
50,46,103680,480
47,39,103680,480
43,39,103680,480
43,46,104160,240
48,46,104160,240
52,55,104160,240
43,49,104400,240
45,49,104400,240
54,58,104400,240
43,57,104640,360
55,68,104640,360
47,57,104640,360
50,41,105000,120
55,41,105000,120
59,49,105000,120
50,45,105120,480
62,54,105120,480
59,45,105120,480
50,39,105600,360
57,39,105600,360
60,46,105600,360
55,31,105960,120
59,37,105960,120
55,28,106080,470
59,34,106080,470
38,30,106560,160
45,26,106720,160
38,27,106880,160
33,30,107040,160
38,26,107200,160
33,26,107360,160
38,30,107520,160
45,26,107680,160
38,26,107840,160
33,32,108000,160
38,27,108160,160
33,27,108320,160
38,33,108480,160
45,29,108640,160
38,29,108800,160
33,34,108960,160
37,29,109120,160
33,29,109280,160
37,30,109440,160
45,27,109600,160
37,27,109760,160
33,30,109920,160
37,27,110080,160
33,27,110240,160
37,33,110400,160
45,29,110560,160
37,29,110720,160
33,34,110880,160
37,30,111040,160
33,30,111200,160
37,35,111360,160
45,30,111520,160
37,30,111680,160
33,35,111840,160
38,30,112000,160
33,30,112160,160
38,34,112320,160
45,29,112480,160
38,31,112640,160
33,34,112800,160
38,29,112960,160
33,29,113120,160
38,39,113280,160
45,34,113440,160
38,34,113600,160
33,36,113760,160
38,31,113920,160
33,31,114080,160
37,37,114240,160
45,33,114400,160
37,33,114560,160
33,35,114720,160
37,31,114880,160
33,30,115040,160
38,36,115200,160
45,29,115360,160
38,31,115520,160
33,37,115680,160
38,30,115840,160
33,30,116000,160
38,36,116160,160
45,32,116320,160
38,32,116480,160
33,42,116640,160
38,39,116800,160
33,39,116960,160
35,43,117120,160
38,39,117280,160
36,40,117440,157
36,46,117600,160
38,42,117760,160
36,42,117920,160
33,48,118080,160
38,43,118240,160
33,43,118400,160
35,49,118560,160
38,44,118720,160
36,44,118880,160
36,54,119040,160
38,44,119200,160
36,46,119360,160
33,57,119520,160
38,51,119680,160
33,51,119840,160
35,64,120000,160
38,54,120160,160
36,54,120320,157
36,71,120480,160
38,55,120640,160
36,55,120800,160
38,72,120960,160
50,62,121120,160
38,62,121280,160
40,69,121440,160
50,57,121600,160
42,60,121760,160
42,66,121920,160
50,60,122080,160
42,60,122240,160
42,43,122400,160
50,36,122560,160
42,37,122720,160
50,37,122880,160
42,33,123040,160
50,33,123200,160
42,37,123360,160
50,31,123520,160
42,31,123680,160
50,35,123840,160
42,30,124000,160
50,30,124160,160
42,35,124320,160
50,30,124480,160
42,30,124640,160
50,35,124800,160
42,29,124960,160
50,29,125120,160
46,45,125280,160
43,31,125280,1440
50,36,125440,160
55,31,125600,160
46,42,125760,160
50,33,125920,160
55,27,126080,160
45,41,126240,160
50,33,126400,160
54,27,126560,160
48,45,126720,160
43,31,126720,1440
50,36,126880,160
57,29,127040,160
48,43,127200,160
50,33,127360,160
57,28,127520,160
46,43,127680,160
50,33,127840,160
55,28,128000,160
46,42,128160,160
50,33,128320,160
55,28,128480,160
50,39,128640,240
54,39,128640,240
57,39,128640,240
50,41,128880,240
55,41,128880,240
58,49,128880,240
50,44,129120,360
57,44,129120,360
60,52,129120,360
50,39,129480,120
55,39,129480,120
58,47,129480,120
50,38,129600,480
55,38,129600,480
58,45,129600,480
50,27,130080,240
54,27,130080,240
57,32,130080,240
50,26,130320,240
52,26,130320,240
55,31,130320,240
50,28,130560,480
54,28,130560,480
57,33,130560,480
47,45,131040,160
43,31,131040,1440
50,36,131200,160
55,31,131360,160
47,42,131520,160
50,33,131680,160
55,27,131840,160
45,41,132000,160
50,33,132160,160
54,27,132320,160
48,45,132480,160
43,31,132480,1440
50,36,132640,160
57,29,132800,160
48,43,132960,160
50,33,133120,160
57,28,133280,160
47,43,133440,160
50,33,133600,160
55,28,133760,160
50,46,133920,480
47,39,133920,480
43,39,133920,480
43,46,134400,240
48,46,134400,240
52,55,134400,240
43,49,134640,240
45,49,134640,240
54,58,134640,240
43,57,134880,360
55,68,134880,360
47,57,134880,360
50,41,135240,120
55,41,135240,120
59,49,135240,120
50,45,135360,480
59,45,135360,480
50,39,135840,360
57,39,135840,360
60,46,135840,360
55,31,136200,120
59,37,136200,120
55,28,136320,480
59,34,136320,480
38,30,136800,160
45,26,136960,160
38,27,137120,160
33,30,137280,160
38,26,137440,160
33,26,137600,160
38,30,137760,160
45,26,137920,160
38,26,138080,160
33,32,138240,160
38,27,138400,160
33,27,138560,160
38,33,138720,160
45,29,138880,160
38,29,139040,160
33,34,139200,160
37,29,139360,160
33,29,139520,160
37,30,139680,160
45,27,139840,160
37,27,140000,160
33,30,140160,160
37,27,140320,160
33,27,140480,160
37,33,140640,160
45,29,140800,160
37,29,140960,160
33,34,141120,160
37,30,141280,160
33,30,141440,160
37,35,141600,160
45,30,141760,160
37,30,141920,160
33,35,142080,160
38,30,142240,160
33,30,142400,160
38,34,142560,160
45,29,142720,160
38,31,142880,160
33,34,143040,160
38,29,143200,160
33,29,143360,160
38,39,143520,160
45,34,143680,160
38,34,143840,160
33,36,144000,160
38,31,144160,160
33,31,144320,160
37,37,144480,160
45,33,144640,160
37,33,144800,160
33,35,144960,160
37,31,145120,160
33,30,145280,160
38,36,145440,160
45,29,145600,160
38,31,145760,160
33,37,145920,160
38,30,146080,160
33,30,146240,160
38,36,146400,160
45,32,146560,160
38,32,146720,160
33,42,146880,160
38,39,147040,160
33,39,147200,160
35,43,147360,160
38,39,147520,160
36,40,147680,160
36,46,147840,160
38,42,148000,160
36,42,148160,160
33,48,148320,160
38,43,148480,160
33,43,148640,160
35,49,148800,160
38,44,148960,160
36,44,149120,160
36,54,149280,160
38,44,149440,160
36,46,149600,160
33,57,149760,160
38,51,149920,160
33,51,150080,160
35,64,150240,160
38,54,150400,160
36,54,150560,160
36,71,150720,160
38,55,150880,160
36,55,151040,160
38,72,151200,160
50,62,151360,160
38,62,151520,160
40,69,151680,160
50,57,151840,160
42,60,152000,160
42,66,152160,160
50,60,152320,160
42,60,152480,154
42,43,152640,160
50,36,152800,160
42,37,152960,160
50,37,153120,160
42,33,153280,160
50,33,153440,160
42,37,153600,160
50,31,153760,160
42,31,153920,160
50,35,154080,160
42,30,154240,160
50,30,154400,160
42,35,154560,160
50,30,154720,160
42,30,154880,160
50,35,155040,160
42,29,155200,160
50,29,155360,160
46,45,155520,160
43,31,155520,1440
50,36,155680,160
55,31,155840,160
46,42,156000,160
50,33,156160,160
55,27,156320,160
45,41,156480,160
50,33,156640,160
54,27,156800,160
48,45,156960,160
43,31,156960,1440
50,36,157120,160
57,29,157280,160
48,43,157440,160
50,33,157600,160
57,28,157760,160
46,43,157920,160
50,33,158080,160
55,28,158240,160
46,42,158400,160
50,33,158560,160
55,28,158720,160
50,39,158880,240
54,39,158880,240
57,46,158880,240
50,41,159120,240
55,41,159120,240
58,49,159120,240
50,44,159360,360
57,44,159360,360
60,52,159360,360
50,39,159720,120
55,39,159720,120
58,47,159720,120
50,38,159840,480
55,38,159840,480
58,45,159840,480
50,27,160320,240
54,27,160320,240
57,32,160320,240
50,26,160560,240
52,26,160560,240
55,26,160560,240
50,28,160800,480
54,28,160800,480
57,33,160800,480
47,45,161280,160
43,31,161280,1440
50,36,161440,160
55,31,161600,160
47,42,161760,160
50,33,161920,160
55,27,162080,160
45,41,162240,160
50,33,162400,160
54,27,162560,160
48,45,162720,160
43,31,162720,1440
50,36,162880,160
57,29,163040,160
48,43,163200,160
50,33,163360,160
57,28,163520,160
47,43,163680,160
50,33,163840,160
55,28,164000,160
50,46,164160,480
47,39,164160,480
43,39,164160,480
43,46,164640,240
48,46,164640,240
52,55,164640,240
43,49,164880,240
45,49,164880,240
54,58,164880,240
43,57,165120,360
55,68,165120,360
47,57,165120,360
50,41,165480,120
55,41,165480,120
59,49,165480,120
50,45,165600,480
62,54,165600,480
59,45,165600,480
50,39,166080,360
57,39,166080,360
60,46,166080,360
55,31,166440,120
59,37,166440,120
55,28,166560,480
59,34,166560,480
43,30,167040,160
55,26,167200,160
43,27,167360,160
55,30,167520,160
43,26,167680,160
55,26,167840,160
43,30,168000,160
55,26,168160,160
43,26,168320,157
43,30,168480,160
55,26,168640,160
43,27,168800,160
55,30,168960,160
43,26,169120,160
55,26,169280,160
43,30,169440,160
55,26,169600,160
43,26,169760,160
31,30,169920,160
43,26,170080,160
31,27,170240,160
43,30,170400,160
31,26,170560,160
43,26,170720,160
31,30,170880,160
43,26,171040,160
31,26,171200,157
31,30,171360,160
43,26,171520,160
31,27,171680,160
43,30,171840,160
31,26,172000,160
43,26,172160,160
31,30,172320,160
43,26,172480,160
31,26,172640,157
31,28,172800,160
43,24,172960,160
31,25,173120,160
43,28,173280,160
31,24,173440,160
43,24,173600,160
31,28,173760,160
43,24,173920,160
31,24,174080,157
31,28,174240,160
43,24,174400,160
31,24,174560,160
43,27,174720,160
31,23,174880,160
43,22,175040,160
31,25,175200,160
43,21,175360,160
31,21,175520,157
31,27,175680,160
43,23,175840,160
31,24,176000,160
43,27,176160,160
31,23,176320,160
43,23,176480,160
31,27,176640,160
43,23,176800,160
31,23,176960,160
43,23,177120,1440
50,23,177120,1440
55,54,178561,420
57,44,178980,60
55,54,179040,160
52,50,179200,160
48,47,179360,160
55,54,179520,360
64,51,179880,120
64,54,180000,960
60,40,180960,240
43,51,182880,120
45,46,183120,120
47,46,183240,120
48,51,183360,90
43,45,183600,90
48,51,183840,120
43,36,184320,240
45,34,184560,120
47,35,184680,120
48,36,184800,120
43,33,185040,90
48,36,185280,90
46,33,185520,90
46,46,185760,240
51,43,186000,180
51,48,186240,240
50,46,186480,180
50,54,186720,240
55,51,186960,180
55,59,187200,240
43,55,187440,240
53,55,187440,240
55,55,187440,240
43,61,187680,720
53,61,187680,720
55,61,187680,720
43,48,188400,240
50,48,188400,240
55,48,188400,240
48,48,188640,1440
55,48,188640,1440
52,52,191520,420
53,44,191940,60
52,58,192000,160
47,57,192160,160
40,54,192320,160
52,59,192480,480
52,52,192960,420
53,44,193380,60
52,59,193440,160
55,55,193600,160
60,53,193760,160
65,53,193920,480
62,45,193920,480
64,52,194400,480
60,44,194400,480
66,55,194880,240
62,46,194880,240
66,53,195120,240
62,45,195120,240
62,47,195360,480
55,47,195360,480
67,56,195360,480
59,61,195840,420
60,51,196260,60
59,61,196320,160
55,59,196480,160
52,56,196640,120
67,76,196800,240
64,64,197040,90
59,62,197280,420
60,53,197700,60
59,64,197760,160
55,61,197920,160
52,57,198080,120
67,76,198240,240
64,66,198480,90
47,77,198720,240
59,72,198960,90
63,55,199140,60
64,73,199200,160
66,67,199360,160
67,78,199520,160
47,79,199680,240
59,73,199920,90
63,58,200100,60
64,75,200160,160
66,68,200320,160
67,66,200480,160
47,80,200640,240
59,75,200880,90
35,81,201120,240
47,70,201360,90
64,36,203040,240
67,25,203280,120
64,34,203520,240
67,25,203760,120
64,33,204000,240
67,26,204240,120
64,33,204480,240
67,24,204720,120
64,31,204960,240
67,23,205200,120
64,30,205440,240
67,21,205680,120
55,48,205920,420
57,40,206340,60
55,48,206400,160
52,45,206560,160
48,39,206720,160
55,48,206880,360
64,45,207240,120
64,48,207360,960
60,36,208320,240
55,48,210240,420
57,40,210660,60
55,48,210720,160
52,45,210880,160
48,41,211040,160
55,48,211200,360
64,45,211560,120
64,48,211680,960
60,38,212640,240
43,61,213120,120
45,55,213360,120
47,55,213480,120
48,61,213600,90
43,53,213840,90
48,61,214080,120
51,38,214560,120
55,38,214560,120
50,35,214800,120
53,35,214800,120
55,35,214800,120
48,38,215040,90
51,38,215040,90
55,38,215040,90
47,35,215280,90
50,35,215280,90
55,35,215280,90
48,42,215520,90
51,42,215520,90
55,42,215520,90
50,49,215760,120
53,49,215760,120
58,49,215760,120
53,52,216000,120
56,52,216000,120
58,52,216000,120
51,49,216240,120
55,49,216240,120
58,49,216240,120
51,53,216480,120
55,53,216480,120
58,53,216480,120
54,51,216720,120
57,51,216720,120
62,51,216720,120
57,57,216960,120
60,57,216960,120
62,57,216960,120
55,55,217200,120
58,55,217200,120
62,55,217200,120
55,62,217440,120
58,62,217440,120
62,62,217440,120
43,49,217680,120
50,49,217680,120
59,49,217680,120
43,47,217920,720
50,47,217920,720
59,47,217920,720
65,37,218640,240
67,37,218640,240
55,37,218640,240
67,35,218880,1440
64,35,218880,1440
60,35,218880,1440
