note,velocity,position,duration
86,92,0,960
81,78,0,960
78,78,0,960
74,78,0,960
57,56,960,120
62,66,960,120
57,51,1200,120
62,61,1200,120
57,56,1440,120
62,66,1440,120
57,51,1680,120
62,60,1680,120
57,62,1920,480
62,73,1920,720
59,53,2400,240
64,63,2400,240
60,56,2880,120
62,56,2880,120
66,66,2880,120
60,51,3120,120
62,51,3120,120
66,61,3120,120
60,56,3360,120
62,56,3360,120
66,66,3360,120
60,51,3600,120
62,51,3600,120
66,60,3600,120
60,62,3840,480
62,62,3840,720
66,73,3840,480
59,53,4320,240
67,63,4320,240
64,57,4560,240
67,63,4800,160
66,57,4960,160
64,57,5120,160
70,63,5280,160
69,58,5440,160
67,58,5600,160
69,63,5760,240
78,56,6240,160
76,46,6400,160
74,46,6560,160
81,57,6720,160
79,47,6880,160
78,47,7040,160
76,58,7200,160
74,50,7360,160
73,50,7520,160
86,92,7680,960
81,78,7680,960
77,78,7680,960
74,78,7680,960
57,56,8640,120
62,66,8640,120
57,51,8880,120
62,61,8880,120
57,56,9120,120
62,66,9120,120
57,51,9360,120
62,60,9360,120
57,62,9600,480
62,73,9600,720
58,53,10080,240
64,63,10080,240
60,56,10560,120
62,56,10560,120
66,66,10560,120
60,51,10800,120
62,51,10800,120
66,61,10800,120
60,56,11040,120
62,56,11040,120
66,66,11040,120
60,51,11280,120
62,51,11280,120
66,60,11280,120
60,62,11520,480
62,62,11520,720
66,73,11520,480
58,53,12000,240
67,63,12000,240
65,56,12480,120
62,56,12480,120
68,66,12480,120
65,51,12720,120
62,51,12720,120
68,61,12720,120
65,56,12960,120
62,56,12960,120
68,66,12960,120
65,51,13200,120
62,51,13200,120
68,60,13200,120
60,62,13440,480
65,62,13440,480
69,73,13440,480
72,56,13920,160
70,46,14080,160
69,46,14240,160
67,57,14400,160
65,47,14560,160
64,47,14720,160
62,55,14880,160
60,47,15040,160
58,47,15200,160
57,53,15360,160
58,46,15520,160
60,46,15680,160
72,56,15840,160
70,46,16000,160
69,46,16160,160
67,57,16320,160
65,47,16480,160
64,47,16640,160
62,55,16800,160
60,47,16960,160
58,47,17120,160
57,53,17280,160
58,46,17440,160
60,40,17600,160
57,45,17760,160
58,39,17920,160
60,36,18080,160
57,47,18240,176
58,42,18400,176
60,43,18560,160
57,50,18720,176
58,45,18880,176
60,41,19040,160
57,54,19200,176
58,47,19360,176
60,43,19520,160
57,56,19680,176
58,50,19840,176
60,46,20000,160
57,59,20160,176
58,52,20320,176
60,46,20480,160
57,63,20640,176
58,55,20800,176
60,47,20960,160
53,54,21120,960
56,54,21120,960
61,70,21120,960
56,37,22080,120
61,37,22080,120
65,44,22080,120
56,33,22320,120
61,33,22320,120
65,39,22320,120
56,33,22560,120
61,33,22560,120
65,39,22560,120
56,33,22800,120
61,33,22800,120
65,39,22800,120
61,38,23040,960
65,38,23040,960
68,45,23040,960
68,46,24000,120
65,44,24000,120
73,52,24000,120
65,39,24240,120
68,39,24240,120
73,46,24240,120
65,39,24480,120
68,39,24480,120
73,46,24480,120
65,39,24720,120
68,39,24720,120
73,46,24720,120
64,52,24960,960
67,52,24960,960
69,52,24960,960
73,62,24960,960
67,55,25920,120
73,58,25920,120
69,55,25920,120
76,66,25920,120
67,49,26160,120
69,49,26160,120
73,49,26160,120
76,58,26160,120
67,50,26400,120
69,50,26400,120
73,50,26400,120
76,58,26400,120
67,50,26640,120
69,50,26640,120
73,50,26640,120
76,59,26640,120
69,67,26880,960
73,67,26880,960
76,67,26880,960
79,67,26880,960
81,79,26880,960
76,75,27840,120
81,79,27840,120
79,75,27840,120
85,90,27840,120
76,69,28080,120
79,69,28080,120
81,69,28080,120
85,81,28080,120
76,72,28320,120
79,72,28320,120
81,72,28320,120
85,84,28320,120
76,75,28560,120
79,75,28560,120
81,75,28560,120
85,87,28560,120
86,105,28800,960
81,89,28800,960
78,89,28800,960
74,89,28800,960
57,54,29760,120
62,63,29760,120
57,49,30000,120
62,59,30000,120
57,54,30240,120
62,63,30240,120
57,49,30480,120
62,58,30480,120
57,60,30720,480
62,70,30720,720
59,51,31200,240
64,61,31200,240
57,61,31680,160
59,55,31840,160
60,55,32000,160
62,61,32160,160
64,56,32320,160
66,56,32480,160
58,61,32640,240
66,52,32880,240
59,61,33120,240
67,55,33360,240
64,54,33600,120
67,54,33600,120
69,63,33600,120
64,49,33840,120
67,49,33840,120
69,59,33840,120
64,54,34080,120
67,54,34080,120
69,63,34080,120
64,49,34320,120
67,49,34320,120
69,58,34320,120
67,60,34560,720
64,60,34560,480
69,70,34560,480
62,51,35040,240
71,61,35040,240
62,61,35520,160
64,55,35680,160
66,55,35840,160
67,61,36000,160
69,56,36160,160
71,56,36320,160
63,61,36480,240
71,52,36720,240
64,61,36960,240
72,55,37200,240
67,54,37440,120
70,54,37440,120
73,63,37440,120
67,49,37680,120
70,49,37680,120
73,59,37680,120
67,54,37920,120
70,54,37920,120
73,63,37920,120
67,49,38160,120
70,49,38160,120
73,58,38160,120
70,60,38400,720
67,60,38400,480
73,70,38400,480
65,51,38880,240
74,61,38880,240
65,61,39360,160
67,55,39520,160
69,55,39680,160
71,61,39840,160
72,56,40000,160
74,56,40160,160
75,61,40320,240
67,50,40560,240
74,61,40800,240
65,51,41040,240
64,45,41280,120
67,45,41280,120
70,45,41280,120
73,53,41280,120
64,41,41520,120
67,41,41520,120
70,41,41520,120
73,50,41520,120
64,45,41760,120
67,45,41760,120
70,45,41760,120
73,53,41760,120
64,41,42000,120
67,41,42000,120
70,41,42000,120
73,49,42000,120
64,51,42240,480
70,51,42240,720
67,51,42240,480
73,59,42240,480
65,43,42720,240
74,51,42720,240
65,51,43200,160
67,46,43360,160
69,46,43520,160
70,51,43680,160
72,47,43840,160
74,47,44000,160
79,51,44160,240
75,43,44160,240
67,44,44400,240
77,51,44640,240
74,43,44640,240
65,46,44880,240
64,40,45120,120
67,40,45120,120
70,40,45120,120
73,53,45120,120
64,37,45360,120
67,37,45360,120
70,37,45360,120
73,50,45360,120
64,40,45600,120
67,40,45600,120
70,40,45600,120
73,53,45600,120
64,37,45840,120
67,37,45840,120
70,37,45840,120
73,49,45840,120
64,51,46080,480
70,51,46080,720
67,51,46080,480
73,59,46080,480
65,43,46560,240
74,51,46560,240
65,50,47040,160
67,51,47200,160
69,52,47360,160
70,53,47520,160
72,54,47680,160
74,55,47840,160
75,61,48000,160
77,52,48160,160
79,52,48320,160
77,61,48480,160
75,53,48640,160
74,53,48800,160
73,57,48960,160
70,47,49120,160
67,47,49280,160
64,49,49440,160
61,47,49600,160
64,48,49760,160
65,50,49920,160
62,45,50080,160
65,45,50240,160
62,50,50400,160
58,45,50560,160
62,45,50720,160
65,45,50880,160
67,47,51040,160
69,49,51200,160
70,51,51360,160
72,53,51520,160
74,55,51680,160
75,57,51840,160
77,59,52000,160
79,61,52160,160
77,63,52320,160
75,58,52480,160
74,61,52640,160
73,57,52800,160
70,55,52960,160
67,53,53120,160
64,51,53280,160
61,47,53440,160
64,43,53600,160
67,59,53760,160
64,43,53920,160
67,43,54080,160
64,44,54240,160
61,45,54400,160
64,45,54560,160
68,62,54720,160
64,46,54880,160
68,47,55040,160
64,47,55200,160
61,48,55360,160
64,48,55520,160
69,65,55680,160
64,49,55840,160
69,50,56000,160
64,50,56160,160
61,51,56320,160
64,52,56480,160
69,68,56640,160
64,52,56800,160
69,53,56960,160
64,54,57120,160
60,54,57280,160
64,55,57440,160
74,74,57600,160
69,59,57760,160
74,60,57920,160
69,61,58080,160
62,62,58240,160
69,63,58400,160
80,82,58560,160
74,67,58720,160
80,69,58880,160
74,70,59040,160
68,72,59200,160
74,74,59360,160
81,105,59520,960
76,89,59520,960
73,89,59520,960
69,89,59520,960
72,54,60480,180
75,63,60480,180
72,49,60720,180
75,59,60720,180
72,54,60960,180
75,63,60960,180
72,49,61200,180
75,58,61200,180
73,60,61440,480
76,70,61440,480
85,49,61920,240
49,64,62160,240
50,66,62400,160
49,62,62560,160
47,64,62720,160
53,65,62880,160
52,60,63040,160
50,49,63200,160
73,56,63840,360
76,56,63840,360
73,49,64200,120
76,49,64200,120
71,55,64320,240
74,55,64320,240
59,55,64320,160
61,56,64480,160
62,54,64640,160
64,57,64800,160
66,60,64960,160
68,62,65120,160
81,94,65280,960
76,80,65280,960
73,80,65280,960
69,80,65280,960
72,54,66240,330
75,63,66240,330
72,49,66600,90
75,59,66600,90
72,54,66720,330
75,63,66720,330
72,49,67080,90
75,58,67080,90
73,60,67200,480
76,70,67200,480
85,49,67680,240
49,64,67920,240
50,66,68160,160
49,62,68320,160
47,64,68480,160
53,65,68640,160
52,60,68800,160
50,49,68960,160
73,56,69600,360
76,56,69600,360
73,49,69960,120
76,49,69960,120
71,55,70080,240
74,55,70080,240
59,55,70080,160
61,56,70240,160
62,54,70400,160
64,57,70560,160
66,60,70720,160
68,62,70880,160
69,57,71040,160
71,61,71200,160
73,62,71360,160
74,63,71520,160
76,64,71680,160
78,65,71840,160
80,66,72000,160
81,67,72160,160
83,68,72320,160
85,69,72480,160
86,70,72640,160
88,71,72800,160
86,71,72960,160
85,68,73120,160
83,65,73280,160
81,63,73440,160
80,60,73600,160
78,58,73760,160
76,55,73920,160
74,53,74080,160
73,50,74240,160
71,48,74400,160
69,45,74560,160
68,43,74720,160
69,50,74880,480
61,39,75360,120
71,49,75840,480
64,39,76320,120
64,40,76740,60
73,49,76800,480
69,39,77280,120
69,40,77700,60
78,55,77760,360
75,45,78120,120
78,53,78240,360
75,46,78600,120
76,50,78727,480
64,39,79200,120
64,40,79620,60
74,49,79680,480
71,39,80160,120
71,40,80580,60
73,49,80640,480
64,39,81120,120
64,40,81540,60
71,55,81600,360
68,45,81960,120
71,53,82080,360
68,46,82440,120
69,50,82560,160
64,44,82720,160
69,38,82880,160
61,39,83040,120
71,50,83520,160
68,44,83680,160
71,38,83840,160
64,39,84000,120
73,50,84480,160
71,44,84640,160
73,38,84800,160
69,39,84960,120
78,55,85440,160
75,47,85600,160
78,47,85760,160
81,55,85920,160
78,47,86080,160
75,47,86240,160
76,50,86400,160
73,44,86560,160
76,38,86720,160
64,39,86880,120
74,50,87360,160
73,44,87520,160
74,38,87680,160
71,39,87840,120
73,50,88320,160
69,44,88480,160
73,38,88640,160
64,39,88800,120
71,55,89280,360
68,45,89640,120
71,53,89760,360
68,46,90120,120
71,78,90240,160
62,62,90400,160
71,62,90560,160
55,78,90720,840
71,59,91560,120
62,59,91560,120
55,78,91680,360
62,62,92040,120
71,75,92160,160
62,56,92320,160
71,56,92480,160
55,74,92640,840
71,59,93480,120
62,59,93480,120
55,74,93600,840
62,52,94440,120
71,62,94440,120
55,74,94560,840
62,52,95400,120
71,62,95400,120
55,74,95520,360
71,62,95880,120
62,52,95880,120
72,79,96000,160
64,62,96160,160
72,62,96320,160
76,81,96480,840
64,59,97320,120
72,62,97440,360
76,74,97440,360
64,62,97800,120
72,71,97920,160
64,56,98080,160
72,56,98240,160
76,74,98400,840
64,59,99240,120
72,74,99360,840
76,74,99360,840
64,62,100200,120
72,74,100320,840
76,80,100320,840
64,53,101160,120
68,57,101280,840
74,57,101280,840
76,63,101280,840
64,42,102120,120
68,44,102240,360
74,44,102240,360
76,53,102240,360
64,42,102600,120
68,41,102720,360
74,41,102720,360
76,48,102720,360
64,39,103080,120
68,37,103200,360
74,37,103200,360
76,44,103200,360
64,35,103560,120
69,42,103680,120
73,42,103680,120
76,50,103680,120
64,39,103840,160
69,41,104000,160
73,42,104160,160
76,44,104320,160
81,45,104480,160
76,47,104640,160
69,45,104800,160
73,49,104960,160
76,52,105120,160
81,52,105280,160
85,47,105440,160
76,52,105600,160
78,45,105760,160
76,45,105920,160
74,52,106080,160
78,47,106240,160
74,47,106400,160
73,53,106560,160
76,47,106720,160
73,47,106880,160
71,52,107040,160
74,47,107200,160
71,47,107360,160
69,50,107520,160
64,39,107680,160
69,41,107840,160
73,42,108000,160
76,44,108160,160
81,45,108320,160
76,47,108480,160
69,45,108640,160
73,49,108800,160
76,52,108960,160
81,52,109120,160
85,47,109280,160
76,52,109440,160
78,45,109600,160
76,45,109760,160
74,52,109920,160
76,47,110080,160
74,47,110240,160
73,53,110400,160
74,47,110560,160
73,47,110720,160
71,52,110880,160
73,47,111040,160
71,47,111200,160
61,42,111360,160
64,37,111520,160
61,37,111680,160
64,43,111840,160
69,36,112000,160
64,37,112160,140
64,43,112320,160
68,37,112480,160
64,38,112640,160
68,43,112800,160
71,39,112960,160
68,39,113120,160
64,43,113280,160
69,38,113440,160
64,38,113600,160
69,43,113760,160
73,38,113920,160
69,38,114080,140
69,43,114240,160
72,37,114400,160
69,37,114560,160
72,43,114720,160
75,37,114880,160
72,37,115040,160
69,42,115200,160
73,37,115360,160
69,37,115520,160
73,43,115680,160
76,36,115840,160
73,37,116000,140
64,43,116160,160
71,37,116320,160
64,38,116480,160
71,43,116640,160
74,39,116800,160
71,39,116960,160
64,43,117120,160
69,38,117280,160
64,38,117440,160
69,43,117600,160
73,38,117760,160
69,38,117920,140
64,43,118080,160
68,37,118240,160
64,37,118400,160
68,43,118560,160
71,37,118720,160
68,37,118880,160
73,44,119040,160
76,39,119200,160
73,39,119360,160
76,46,119520,160
81,39,119680,160
76,40,119840,140
76,47,120000,160
80,41,120160,160
76,42,120320,160
80,49,120480,160
83,44,120640,160
80,45,120800,160
76,50,120960,160
81,44,121120,160
76,45,121280,160
81,51,121440,160
85,45,121600,160
81,46,121760,140
81,52,121920,160
84,45,122080,160
81,46,122240,160
84,54,122400,160
87,46,122560,160
84,47,122720,160
81,55,122880,160
84,49,123040,160
81,49,123200,160
84,55,123360,160
87,49,123520,160
84,49,123680,140
81,43,123840,160
84,37,124000,160
81,37,124160,160
84,43,124320,160
87,37,124480,160
84,37,124640,160
81,43,124800,160
84,38,124960,160
81,38,125120,160
84,43,125280,160
87,38,125440,160
84,38,125600,140
81,43,125760,160
84,37,125920,160
81,37,126080,160
84,43,126240,160
89,37,126400,160
84,37,126560,160
81,43,126720,160
84,38,126880,160
81,38,127040,160
84,43,127200,160
89,38,127360,160
84,38,127520,140
81,43,127680,160
84,37,127840,160
81,36,128000,160
84,42,128160,160
89,36,128320,160
84,36,128480,160
82,41,128640,160
86,36,128800,160
82,36,128960,160
86,40,129120,160
89,36,129280,160
86,35,129440,140
80,39,129600,160
83,34,129760,160
80,34,129920,160
83,39,130080,160
88,33,130240,160
83,33,130400,160
81,38,130560,160
85,33,130720,160
81,33,130880,160
85,37,131040,160
88,33,131200,160
85,33,131360,140
74,36,131520,160
81,31,131680,160
74,31,131840,150
81,36,132000,160
86,31,132160,160
81,30,132320,160
76,35,132480,160
81,31,132640,160
76,30,132800,160
81,34,132960,160
85,30,133120,160
81,30,133280,140
76,33,133440,160
83,28,133600,160
80,28,133760,150
76,33,133920,160
74,28,134080,160
71,28,134240,160
67,87,134400,160
69,55,134560,160
67,55,134720,160
64,61,134880,160
61,55,135040,160
57,55,135200,160
55,75,135360,160
57,48,135520,160
55,48,135680,160
57,54,135840,160
55,50,136000,160
57,50,136160,160
65,84,136320,160
69,55,136480,160
65,55,136640,160
60,61,136800,160
57,55,136960,160
53,55,137120,160
57,77,137280,160
53,48,137440,160
57,48,137600,160
53,54,137760,160
57,50,137920,160
53,50,138080,160
67,88,138240,160
69,55,138400,160
67,55,138560,160
64,61,138720,160
61,55,138880,160
57,55,139040,160
55,75,139200,160
57,48,139360,160
55,48,139520,160
57,54,139680,160
55,50,139840,160
57,50,140000,160
65,87,140160,160
69,55,140320,160
65,55,140480,160
60,61,140640,160
57,55,140800,160
53,55,140960,160
57,77,141120,160
53,48,141280,160
57,48,141440,160
53,54,141600,160
57,50,141760,160
53,50,141920,160
73,44,142560,360
76,44,142560,360
73,39,142920,120
76,39,142920,120
71,44,143040,240
74,44,143040,240
62,44,143040,160
64,44,143200,160
66,43,143360,160
68,45,143520,160
69,48,143680,160
71,49,143840,160
73,45,144000,160
74,48,144160,160
76,48,144320,157
78,50,144480,160
80,52,144640,160
81,52,144800,160
83,54,144960,160
85,56,145120,160
86,56,145280,160
88,58,145440,160
90,60,145600,160
92,60,145760,160
93,62,145920,160
92,62,146080,160
90,60,146240,160
88,60,146400,160
86,58,146560,160
85,56,146720,160
83,55,146880,160
81,54,147040,160
80,52,147200,160
78,51,147360,160
76,50,147520,160
74,48,147680,160
73,46,147840,160
71,45,148000,160
69,44,148160,160
68,43,148320,160
66,41,148480,160
64,40,148640,160
62,40,148800,160
66,39,148960,160
64,37,149120,160
62,35,149280,160
61,33,149440,160
59,31,149600,160
67,87,149760,160
69,55,149920,160
67,55,150080,160
64,61,150240,160
61,55,150400,160
57,55,150560,160
55,75,150720,160
57,48,150880,160
55,48,151040,160
57,54,151200,160
55,50,151360,160
57,50,151520,160
65,84,151680,160
69,55,151840,160
65,55,152000,160
60,61,152160,160
57,55,152320,160
53,55,152480,160
57,77,152640,160
53,48,152800,160
57,48,152960,160
53,54,153120,160
57,50,153280,160
53,50,153440,160
65,84,153600,160
67,55,153760,160
65,55,153920,160
62,61,154080,160
59,55,154240,160
55,55,154400,160
53,77,154560,160
55,48,154720,160
53,48,154880,160
55,54,155040,160
53,50,155200,160
55,50,155360,160
63,84,155520,160
67,55,155680,160
63,55,155840,160
58,61,156000,160
55,55,156160,160
51,55,156320,160
55,77,156480,160
51,48,156640,160
55,48,156800,160
51,54,156960,160
55,50,157120,160
51,50,157280,160
63,84,157440,160
65,55,157600,160
63,55,157760,160
60,61,157920,160
57,55,158080,160
53,55,158240,160
61,84,158400,160
65,55,158560,160
61,55,158720,160
56,61,158880,160
53,55,159040,160
49,55,159200,160
62,84,159360,160
64,55,159520,160
62,55,159680,160
59,61,159840,160
56,55,160000,160
52,55,160160,160
60,84,160320,160
64,55,160480,160
60,55,160640,160
55,61,160800,160
52,55,160960,160
48,55,161120,160
53,84,161280,160
57,55,161440,160
53,55,161600,160
48,61,161760,160
45,55,161920,160
41,55,162080,160
45,69,162240,160
41,43,162400,160
45,43,162560,160
41,48,162720,160
45,45,162880,160
41,45,163040,160
57,56,163200,160
53,39,163360,160
57,39,163520,160
53,42,163680,160
57,39,163840,160
53,38,164000,160
57,46,164160,160
53,34,164320,160
57,33,164480,160
53,36,164640,160
57,33,164800,160
53,32,164960,160
73,44,165600,360
76,44,165600,360
73,39,165960,120
76,39,165960,120
71,44,166080,240
74,44,166080,240
62,44,166080,160
64,44,166240,160
66,43,166400,160
68,45,166560,160
69,48,166720,160
71,49,166880,160
73,45,167040,160
74,48,167200,160
76,48,167360,157
78,50,167520,160
80,52,167680,160
81,52,167840,160
83,54,168000,160
85,56,168160,160
86,56,168320,160
88,58,168480,160
90,60,168640,160
92,60,168800,160
93,62,168960,160
92,62,169120,160
90,60,169280,160
88,60,169440,160
86,58,169600,160
85,56,169760,160
83,55,169920,160
81,54,170080,160
80,52,170240,160
78,51,170400,160
76,50,170560,160
74,48,170720,160
73,46,170880,160
71,45,171040,160
69,44,171200,160
68,43,171360,160
66,41,171520,160
64,40,171680,160
62,40,171840,160
66,39,172000,160
64,37,172160,160
62,35,172320,160
61,33,172480,160
59,31,172640,160
57,39,172800,160
61,34,172960,160
57,34,173120,160
61,39,173280,160
69,34,173440,160
61,34,173600,160
57,39,173760,160
61,34,173920,160
57,34,174080,160
61,39,174240,160
69,34,174400,160
61,34,174560,150
61,39,174720,160
69,34,174880,160
61,34,175040,160
69,40,175200,160
73,35,175360,160
69,35,175520,160
61,45,175680,160
69,39,175840,160
61,40,176000,160
69,48,176160,160
73,43,176320,160
69,43,176480,160
64,52,176640,160
73,46,176800,160
64,46,176960,160
73,55,177120,160
76,47,177280,160
73,48,177440,160
64,57,177600,160
73,49,177760,160
64,50,177920,160
73,59,178080,160
76,51,178240,160
73,52,178400,160
69,61,178560,160
73,53,178720,160
69,55,178880,160
73,64,179040,160
81,57,179200,160
73,59,179360,150
73,70,179520,160
81,61,179680,160
73,63,179840,160
81,75,180000,160
85,66,180160,160
81,67,180320,160
86,92,180480,960
81,78,180480,960
78,78,180480,960
74,78,180480,960
57,56,181440,120
62,66,181440,120
57,51,181680,120
62,61,181680,120
57,56,181920,120
62,66,181920,120
57,51,182160,120
62,60,182160,120
57,62,182400,480
62,73,182400,720
59,53,182880,240
64,63,182880,240
60,56,183360,120
62,56,183360,120
66,66,183360,120
60,51,183600,120
62,51,183600,120
66,61,183600,120
60,56,183840,120
62,56,183840,120
66,66,183840,120
60,51,184080,120
62,51,184080,120
66,60,184080,120
60,62,184320,480
62,62,184320,720
66,73,184320,480
59,53,184800,240
67,63,184800,240
64,57,185040,240
67,63,185280,160
66,57,185440,160
64,57,185600,160
70,63,185760,160
69,58,185920,160
67,58,186080,160
69,63,186240,240
78,56,186720,160
76,46,186880,160
74,46,187040,160
81,57,187200,160
79,47,187360,160
78,47,187520,160
76,58,187680,160
74,50,187840,160
73,50,188000,160
86,92,188160,960
81,78,188160,960
77,78,188160,960
74,78,188160,960
57,56,189120,120
62,66,189120,120
57,51,189360,120
62,61,189360,120
57,56,189600,120
62,66,189600,120
57,51,189840,120
62,60,189840,120
57,62,190080,480
62,73,190080,720
58,53,190560,240
64,63,190560,240
60,56,191040,120
62,56,191040,120
66,66,191040,120
60,51,191280,120
62,51,191280,120
66,61,191280,120
60,56,191520,120
62,56,191520,120
66,66,191520,120
60,51,191760,120
62,51,191760,120
66,60,191760,120
60,62,192000,480
62,62,192000,720
66,73,192000,480
58,53,192480,240
67,63,192480,240
65,56,192960,120
62,56,192960,120
68,66,192960,120
65,51,193200,120
62,51,193200,120
68,61,193200,120
65,56,193440,120
62,56,193440,120
68,66,193440,120
65,51,193680,120
62,51,193680,120
68,60,193680,120
60,62,193920,480
65,62,193920,480
69,73,193920,480
72,56,194400,160
70,46,194560,160
69,46,194720,160
67,57,194880,160
65,47,195040,160
64,47,195200,160
62,55,195360,160
60,47,195520,160
58,47,195680,160
57,53,195840,160
58,46,196000,160
60,46,196160,160
72,56,196320,160
70,46,196480,160
69,46,196640,160
67,57,196800,160
65,47,196960,160
64,47,197120,160
62,55,197280,160
60,47,197440,160
58,47,197600,160
57,53,197760,160
58,46,197920,160
60,40,198080,160
57,45,198240,160
58,39,198400,160
60,36,198560,160
57,47,198720,176
58,42,198880,176
60,43,199040,160
57,50,199200,176
58,45,199360,176
60,41,199520,160
57,54,199680,176
58,47,199840,176
60,43,200000,160
57,56,200160,176
58,50,200320,176
60,46,200480,160
57,59,200640,176
58,52,200800,176
60,46,200960,160
57,63,201120,176
58,55,201280,176
60,47,201440,160
53,54,201600,960
56,54,201600,960
61,70,201600,960
56,37,202560,120
61,37,202560,120
65,44,202560,120
56,33,202800,120
61,33,202800,120
65,39,202800,120
56,33,203040,120
61,33,203040,120
65,39,203040,120
56,33,203280,120
61,33,203280,120
65,39,203280,120
61,38,203520,960
65,38,203520,960
68,45,203520,960
68,46,204480,120
65,44,204480,120
73,52,204480,120
65,39,204720,120
68,39,204720,120
73,46,204720,120
65,39,204960,120
68,39,204960,120
73,46,204960,120
65,39,205200,120
68,39,205200,120
73,46,205200,120
64,52,205440,960
67,52,205440,960
69,52,205440,960
73,62,205440,960
67,55,206400,120
73,58,206400,120
69,55,206400,120
76,66,206400,120
67,49,206640,120
69,49,206640,120
73,49,206640,120
76,58,206640,120
67,50,206880,120
69,50,206880,120
73,50,206880,120
76,58,206880,120
67,50,207120,120
69,50,207120,120
73,50,207120,120
76,59,207120,120
69,67,207360,960
73,67,207360,960
76,67,207360,960
79,67,207360,960
81,79,207360,960
76,75,208320,120
81,79,208320,120
79,75,208320,120
85,90,208320,120
76,69,208560,120
79,69,208560,120
81,69,208560,120
85,81,208560,120
76,72,208800,120
79,72,208800,120
81,72,208800,120
85,84,208800,120
76,75,209040,120
79,75,209040,120
81,75,209040,120
85,87,209040,120
86,105,209280,960
81,89,209280,960
78,89,209280,960
74,89,209280,960
57,54,210240,120
62,63,210240,120
57,49,210480,120
62,59,210480,120
57,54,210720,120
62,63,210720,120
57,49,210960,120
62,58,210960,120
57,60,211200,480
62,70,211200,720
59,51,211680,240
64,61,211680,240
57,61,212160,160
59,55,212320,160
60,55,212480,160
62,61,212640,160
64,56,212800,160
66,56,212960,160
58,61,213120,240
66,52,213360,240
59,61,213600,240
67,55,213840,240
64,54,214080,120
67,54,214080,120
69,63,214080,120
64,49,214320,120
67,49,214320,120
69,59,214320,120
64,54,214560,120
67,54,214560,120
69,63,214560,120
64,49,214800,120
67,49,214800,120
69,58,214800,120
67,60,215040,720
64,60,215040,480
69,70,215040,480
62,51,215520,240
71,61,215520,240
62,61,216000,160
64,55,216160,160
66,55,216320,160
67,61,216480,160
69,56,216640,160
71,56,216800,160
63,61,216960,240
71,52,217200,240
64,61,217440,240
72,55,217680,240
67,54,217920,120
70,54,217920,120
73,63,217920,120
67,49,218160,120
70,49,218160,120
73,59,218160,120
67,54,218400,120
70,54,218400,120
73,63,218400,120
67,49,218640,120
70,49,218640,120
73,58,218640,120
70,60,218880,720
67,60,218880,480
73,70,218880,480
65,51,219360,240
74,61,219360,240
65,61,219840,160
67,55,220000,160
69,55,220160,160
71,61,220320,160
72,56,220480,160
74,56,220640,160
75,61,220800,240
67,50,221040,240
74,61,221280,240
65,51,221520,240
64,45,221760,120
67,45,221760,120
70,45,221760,120
73,53,221760,120
64,41,222000,120
67,41,222000,120
70,41,222000,120
73,50,222000,120
64,45,222240,120
67,45,222240,120
70,45,222240,120
73,53,222240,120
64,41,222480,120
67,41,222480,120
70,41,222480,120
73,49,222480,120
64,51,222720,480
70,51,222720,720
67,51,222720,480
73,59,222720,480
65,43,223200,240
74,51,223200,240
65,51,223680,160
67,46,223840,160
69,46,224000,160
70,51,224160,160
72,47,224320,160
74,47,224480,160
79,51,224640,240
75,43,224640,240
67,44,224880,240
77,51,225120,240
74,43,225120,240
65,46,225360,240
64,40,225600,120
67,40,225600,120
70,40,225600,120
73,53,225600,120
64,37,225840,120
67,37,225840,120
70,37,225840,120
73,50,225840,120
64,40,226080,120
67,40,226080,120
70,40,226080,120
73,53,226080,120
64,37,226320,120
67,37,226320,120
70,37,226320,120
73,49,226320,120
64,51,226560,480
70,51,226560,720
67,51,226560,480
73,59,226560,480
65,43,227040,240
74,51,227040,240
65,52,227520,160
67,52,227680,160
69,53,227840,160
70,54,228000,160
72,55,228160,160
74,55,228320,160
75,61,228480,160
77,52,228640,160
79,52,228800,160
77,61,228960,160
75,53,229120,160
74,53,229280,160
73,57,229440,160
70,47,229600,160
67,47,229760,160
64,49,229920,160
61,47,230080,160
64,48,230240,160
65,50,230400,160
62,45,230560,160
65,45,230720,160
62,50,230880,160
58,45,231040,160
62,45,231200,160
65,45,231360,160
67,47,231520,160
69,49,231680,160
70,51,231840,160
72,53,232000,160
74,55,232160,160
75,57,232320,160
77,59,232480,160
79,61,232640,160
77,63,232800,160
75,58,232960,160
74,61,233120,160
73,57,233280,160
70,55,233440,160
67,53,233600,160
64,51,233760,160
61,47,233920,160
64,43,234080,160
67,59,234240,160
64,43,234400,160
67,43,234560,160
64,44,234720,160
61,45,234880,160
64,45,235040,160
68,62,235200,160
64,46,235360,160
68,47,235520,160
64,47,235680,160
61,48,235840,160
64,48,236000,160
69,65,236160,160
64,49,236320,160
69,50,236480,160
64,50,236640,160
61,51,236800,160
64,52,236960,160
69,68,237120,160
64,52,237280,160
69,53,237440,160
64,54,237600,160
60,54,237760,160
64,55,237920,160
74,74,238080,160
69,59,238240,160
74,60,238400,160
69,61,238560,160
62,62,238720,160
69,63,238880,160
80,82,239040,160
74,67,239200,160
80,69,239360,160
74,70,239520,160
68,72,239680,160
74,74,239840,160
81,105,240000,960
76,89,240000,960
73,89,240000,960
69,89,240000,960
72,54,240960,180
75,63,240960,180
72,49,241200,180
75,59,241200,180
72,54,241440,180
75,63,241440,180
72,49,241680,180
75,58,241680,180
73,60,241920,480
76,70,241920,480
85,49,242400,240
49,64,242640,240
50,66,242880,160
49,62,243040,160
47,64,243200,160
53,65,243360,160
52,60,243520,160
50,49,243680,160
73,56,244320,360
76,56,244320,360
73,49,244680,120
76,49,244680,120
71,55,244800,240
74,55,244800,240
59,55,244800,160
61,56,244960,160
62,54,245120,160
64,57,245280,160
66,60,245440,160
68,62,245600,160
81,94,245760,960
76,80,245760,960
73,80,245760,960
69,80,245760,960
72,54,246720,330
75,63,246720,330
72,49,247080,90
75,59,247080,90
72,54,247200,330
75,63,247200,330
72,49,247560,90
75,58,247560,90
73,60,247680,480
76,70,247680,480
85,49,248160,240
49,64,248400,240
50,66,248640,160
49,62,248800,160
47,64,248960,160
53,65,249120,160
52,60,249280,160
50,49,249440,160
73,56,250080,360
76,56,250080,360
73,49,250440,120
76,49,250440,120
71,55,250560,240
74,55,250560,240
59,55,250560,160
61,56,250720,160
62,54,250880,160
64,57,251040,160
66,60,251200,160
68,62,251360,160
69,57,251520,160
71,61,251680,160
73,62,251840,160
74,63,252000,160
76,64,252160,160
78,65,252320,160
80,66,252480,160
81,67,252640,160
83,68,252800,160
85,69,252960,160
86,70,253120,160
88,71,253280,160
86,71,253440,160
85,68,253600,160
83,65,253760,160
81,63,253920,160
80,60,254080,160
78,58,254240,160
76,55,254400,160
74,53,254560,160
73,50,254720,160
71,48,254880,160
69,45,255040,160
68,43,255200,160
69,50,255360,480
61,39,255840,120
71,49,256320,480
64,39,256800,120
64,40,257220,60
73,49,257280,480
69,39,257760,120
69,40,258180,60
78,55,258240,360
75,45,258600,120
78,53,258720,360
75,46,259080,120
76,50,259207,480
64,39,259680,120
64,40,260100,60
74,49,260160,480
71,39,260640,120
71,40,261060,60
73,49,261120,480
64,39,261600,120
64,40,262020,60
71,55,262080,360
68,45,262440,120
71,53,262560,360
68,46,262920,120
69,50,263040,160
64,44,263200,160
69,38,263360,160
61,39,263520,120
71,50,264000,160
68,44,264160,160
71,38,264320,160
64,39,264480,120
73,50,264960,160
71,44,265120,160
73,38,265280,160
69,39,265440,120
78,55,265920,160
75,47,266080,160
78,47,266240,160
81,55,266400,160
78,47,266560,160
75,47,266720,160
76,50,266880,160
73,44,267040,160
76,38,267200,160
64,39,267360,120
74,50,267840,160
73,44,268000,160
74,38,268160,160
71,39,268320,120
73,50,268800,160
69,44,268960,160
73,38,269120,160
64,39,269280,120
71,55,269760,360
68,45,270120,120
71,53,270240,360
68,46,270600,120
71,78,270720,160
62,62,270880,160
71,62,271040,160
55,78,271200,840
71,59,272040,120
62,59,272040,120
55,78,272160,360
62,62,272520,120
71,75,272640,160
62,56,272800,160
71,56,272960,160
55,74,273120,840
71,59,273960,120
62,59,273960,120
55,74,274080,840
62,52,274920,120
71,62,274920,120
55,74,275040,840
62,52,275880,120
71,62,275880,120
55,74,276000,360
71,62,276360,120
62,52,276360,120
72,79,276480,160
64,62,276640,160
72,62,276800,160
76,81,276960,840
64,59,277800,120
72,62,277920,360
76,74,277920,360
64,62,278280,120
72,71,278400,160
64,56,278560,160
72,56,278720,160
76,74,278880,840
64,59,279720,120
72,74,279840,840
76,74,279840,840
64,62,280680,120
72,74,280800,840
76,80,280800,840
64,53,281640,120
68,57,281760,840
74,57,281760,840
76,63,281760,840
64,42,282600,120
68,44,282720,360
74,44,282720,360
76,53,282720,360
64,42,283080,120
68,41,283200,360
74,41,283200,360
76,48,283200,360
64,39,283560,120
68,37,283680,360
74,37,283680,360
76,44,283680,360
64,35,284040,120
69,42,284160,120
73,42,284160,120
76,50,284160,120
64,39,284320,160
69,41,284480,160
73,42,284640,160
76,44,284800,160
81,45,284960,160
76,47,285120,160
69,45,285280,160
73,49,285440,160
76,52,285600,160
81,52,285760,160
85,47,285920,160
76,52,286080,160
78,45,286240,160
76,45,286400,160
74,52,286560,160
78,47,286720,160
74,47,286880,160
73,53,287040,160
76,47,287200,160
73,47,287360,160
71,52,287520,160
74,47,287680,160
71,47,287840,160
69,50,288000,160
64,39,288160,160
69,41,288320,160
73,42,288480,160
76,44,288640,160
81,45,288800,160
76,47,288960,160
69,45,289120,160
73,49,289280,160
76,52,289440,160
81,52,289600,160
85,47,289760,160
76,52,289920,160
78,45,290080,160
76,45,290240,160
74,52,290400,160
76,47,290560,160
74,47,290720,160
73,53,290880,160
74,47,291040,160
73,47,291200,160
71,52,291360,160
73,47,291520,160
71,47,291680,160
61,42,291840,160
64,37,292000,160
61,37,292160,160
64,43,292320,160
69,36,292480,160
64,37,292640,140
64,43,292800,160
68,37,292960,160
64,38,293120,160
68,43,293280,160
71,39,293440,160
68,39,293600,160
64,43,293760,160
69,38,293920,160
64,38,294080,160
69,43,294240,160
73,38,294400,160
69,38,294560,140
69,43,294720,160
72,37,294880,160
69,37,295040,160
72,43,295200,160
75,37,295360,160
72,37,295520,160
69,42,295680,160
73,37,295840,160
69,37,296000,160
73,43,296160,160
76,36,296320,160
73,37,296480,140
64,43,296640,160
71,37,296800,160
64,38,296960,160
71,43,297120,160
74,39,297280,160
71,39,297440,160
64,43,297600,160
69,38,297760,160
64,38,297920,160
69,43,298080,160
73,38,298240,160
69,38,298400,140
64,43,298560,160
68,37,298720,160
64,37,298880,160
68,43,299040,160
71,37,299200,160
68,37,299360,160
73,44,299520,160
76,39,299680,160
73,39,299840,160
76,46,300000,160
81,39,300160,160
76,40,300320,140
76,47,300480,160
80,41,300640,160
76,42,300800,160
80,49,300960,160
83,44,301120,160
80,45,301280,160
76,50,301440,160
81,44,301600,160
76,45,301760,160
81,51,301920,160
85,45,302080,160
81,46,302240,140
81,52,302400,160
84,45,302560,160
81,46,302720,160
84,54,302880,160
87,46,303040,160
84,47,303200,160
81,55,303360,160
84,49,303520,160
81,49,303680,160
84,55,303840,160
87,49,304000,160
84,49,304160,140
81,43,304320,160
84,37,304480,160
81,37,304640,160
84,43,304800,160
87,37,304960,160
84,37,305120,160
81,43,305280,160
84,38,305440,160
81,38,305600,160
84,43,305760,160
87,38,305920,160
84,38,306080,140
81,43,306240,160
84,37,306400,160
81,37,306560,160
84,43,306720,160
89,37,306880,160
84,37,307040,160
81,43,307200,160
84,38,307360,160
81,38,307520,160
84,43,307680,160
89,38,307840,160
84,38,308000,140
81,43,308160,160
84,37,308320,160
81,36,308480,160
84,42,308640,160
89,36,308800,160
84,36,308960,160
82,41,309120,160
86,36,309280,160
82,36,309440,160
86,40,309600,160
89,36,309760,160
86,35,309920,140
80,39,310080,160
83,34,310240,160
80,34,310400,160
83,39,310560,160
88,33,310720,160
83,33,310880,160
81,38,311040,160
85,33,311200,160
81,33,311360,160
85,37,311520,160
88,33,311680,160
85,33,311840,140
74,36,312000,160
81,31,312160,160
74,31,312320,150
81,36,312480,160
86,31,312640,160
81,30,312800,160
76,35,312960,160
81,31,313120,160
76,30,313280,160
81,34,313440,160
85,30,313600,160
81,30,313760,140
76,33,313920,160
83,28,314080,160
80,28,314240,150
76,33,314400,160
74,28,314560,160
71,28,314720,160
67,87,314880,160
69,55,315040,160
67,55,315200,160
64,61,315360,160
61,55,315520,160
57,55,315680,160
55,75,315840,160
57,48,316000,160
55,48,316160,160
57,54,316320,160
55,50,316480,160
57,50,316640,160
65,84,316800,160
69,55,316960,160
65,55,317120,160
60,61,317280,160
57,55,317440,160
53,55,317600,160
57,77,317760,160
53,48,317920,160
57,48,318080,160
53,54,318240,160
57,50,318400,160
53,50,318560,160
67,88,318720,160
69,55,318880,160
67,55,319040,160
64,61,319200,160
61,55,319360,160
57,55,319520,160
55,75,319680,160
57,48,319840,160
55,48,320000,160
57,54,320160,160
55,50,320320,160
57,50,320480,160
65,87,320640,160
69,55,320800,160
65,55,320960,160
60,61,321120,160
57,55,321280,160
53,55,321440,160
57,77,321600,160
53,48,321760,160
57,48,321920,160
53,54,322080,160
57,50,322240,160
53,50,322400,160
73,44,323040,360
76,44,323040,360
73,39,323400,120
76,39,323400,120
71,44,323520,240
74,44,323520,240
62,44,323520,160
64,44,323680,160
66,43,323840,160
68,45,324000,160
69,48,324160,160
71,49,324320,160
73,45,324480,160
74,48,324640,160
76,48,324800,156
78,50,324960,160
80,52,325120,160
81,52,325280,160
83,54,325440,160
85,56,325600,160
86,56,325760,160
88,58,325920,160
90,60,326080,160
92,60,326240,160
93,62,326400,160
92,62,326560,160
90,60,326720,160
88,60,326880,160
86,58,327040,160
85,56,327200,160
83,55,327360,160
81,54,327520,160
80,52,327680,160
78,51,327840,160
76,50,328000,160
74,48,328160,160
73,46,328320,160
71,45,328480,160
69,44,328640,160
68,43,328800,160
66,41,328960,160
64,40,329120,160
62,40,329280,160
66,39,329440,160
64,37,329600,160
62,35,329760,160
61,33,329920,160
59,31,330080,160
67,87,330240,160
69,55,330400,160
67,55,330560,160
64,61,330720,160
61,55,330880,160
57,55,331040,160
55,75,331200,160
57,48,331360,160
55,48,331520,160
57,54,331680,160
55,50,331840,160
57,50,332000,160
65,84,332160,160
69,55,332320,160
65,55,332480,160
60,61,332640,160
57,55,332800,160
53,55,332960,160
57,77,333120,160
53,48,333280,160
57,48,333440,160
53,54,333600,160
57,50,333760,160
53,50,333920,160
65,84,334080,160
67,55,334240,160
65,55,334400,160
62,61,334560,160
59,55,334720,160
55,55,334880,160
53,77,335040,160
55,48,335200,160
53,48,335360,160
55,54,335520,160
53,50,335680,160
55,50,335840,160
63,84,336000,160
67,55,336160,160
63,55,336320,160
58,61,336480,160
55,55,336640,160
51,55,336800,160
55,77,336960,160
51,48,337120,160
55,48,337280,160
51,54,337440,160
55,50,337600,160
51,50,337760,160
63,84,337920,160
65,55,338080,160
63,55,338240,160
60,61,338400,160
57,55,338560,160
53,55,338720,160
61,84,338880,160
65,55,339040,160
61,55,339200,160
56,61,339360,160
53,55,339520,160
49,55,339680,160
62,84,339840,160
64,55,340000,160
62,55,340160,160
59,61,340320,160
56,55,340480,160
52,55,340640,160
60,84,340800,160
64,55,340960,160
60,55,341120,160
55,61,341280,160
52,55,341440,160
48,55,341600,160
53,84,341760,160
57,55,341920,160
53,55,342080,160
48,61,342240,160
45,55,342400,160
41,55,342560,160
45,69,342720,160
41,43,342880,160
45,43,343040,160
41,48,343200,160
45,45,343360,160
41,45,343520,160
57,56,343680,160
53,39,343840,160
57,39,344000,160
53,42,344160,160
57,39,344320,160
53,38,344480,160
57,46,344640,160
53,34,344800,160
57,33,344960,160
53,36,345120,160
57,33,345280,160
53,32,345440,160
73,44,346080,360
76,44,346080,360
73,39,346440,120
76,39,346440,120
71,44,346560,240
74,44,346560,240
62,44,346560,160
64,44,346720,160
66,43,346880,160
68,45,347040,160
69,48,347200,160
71,49,347360,160
73,45,347520,160
74,48,347680,160
76,48,347840,156
78,50,348000,160
80,52,348160,160
81,52,348320,160
83,54,348480,160
85,56,348640,160
86,56,348800,160
88,58,348960,160
90,60,349120,160
92,60,349280,160
93,62,349440,160
92,62,349600,160
90,60,349760,160
88,60,349920,160
86,58,350080,160
85,56,350240,160
83,55,350400,160
81,54,350560,160
80,52,350720,160
78,51,350880,160
76,50,351040,160
74,48,351200,160
73,46,351360,160
71,45,351520,160
69,44,351680,160
68,43,351840,160
66,41,352000,160
64,40,352160,160
62,40,352320,160
66,39,352480,160
64,37,352640,160
62,35,352800,160
61,33,352960,160
59,31,353120,160
57,39,353280,160
61,34,353440,160
57,34,353600,160
61,39,353760,160
69,34,353920,160
61,34,354080,160
57,39,354240,160
61,34,354400,160
57,34,354560,160
61,39,354720,160
69,34,354880,160
61,34,355040,150
61,39,355200,160
69,34,355360,160
61,34,355520,160
69,40,355680,160
73,35,355840,160
69,35,356000,160
61,45,356160,160
69,39,356320,160
61,40,356480,160
69,48,356640,160
73,43,356800,160
69,43,356960,160
64,52,357120,160
73,46,357280,160
64,46,357440,160
73,55,357600,160
76,47,357760,160
73,48,357920,160
64,57,358080,160
73,49,358240,160
64,50,358400,160
73,59,358560,160
76,51,358720,160
73,52,358880,160
69,61,359040,160
73,53,359200,160
69,55,359360,160
73,64,359520,160
81,57,359680,160
73,59,359840,150
73,70,360000,160
81,61,360160,160
73,63,360320,160
81,75,360480,160
85,66,360640,160
81,67,360800,160
86,110,360960,960
82,93,360960,960
77,93,360960,960
74,93,360960,960
62,67,361920,120
70,79,361920,120
62,61,362160,120
70,73,362160,120
62,67,362400,120
70,79,362400,120
62,61,362640,120
70,72,362640,120
62,74,362880,480
70,87,362880,480
65,63,363360,240
72,75,363360,240
65,74,363840,480
72,87,363840,480
70,63,364320,240
74,75,364320,240
70,74,364800,480
74,87,364800,480
65,63,365280,240
72,75,365280,240
65,67,365760,120
72,79,365760,120
65,61,366000,120
72,73,366000,120
65,67,366240,120
72,79,366240,120
65,61,366480,120
72,72,366480,120
65,74,366720,480
72,87,366720,480
74,63,367200,240
77,75,367200,240
74,74,367680,480
77,87,367680,480
69,63,368160,240
75,75,368160,240
69,74,368640,480
75,87,368640,480
70,63,369120,240
74,75,369120,240
70,67,369600,120
74,67,369600,120
79,67,369600,120
82,79,369600,120
70,61,369840,120
74,61,369840,120
79,61,369840,120
82,73,369840,120
70,67,370080,120
74,67,370080,120
79,67,370080,120
82,79,370080,120
70,61,370320,120
74,61,370320,120
79,61,370320,120
82,72,370320,120
70,74,370560,720
74,74,370560,480
79,74,370560,480
82,87,370560,480
74,63,371040,240
79,75,371040,240
65,70,371520,120
74,70,371520,120
77,82,371520,120
65,59,372000,120
70,59,372000,120
74,71,372000,120
65,69,372480,960
69,69,372480,960
72,82,372480,960
61,63,373440,120
73,75,373440,120
61,57,373680,120
73,69,373680,120
61,63,373920,120
73,75,373920,120
61,57,374160,120
73,68,374160,120
65,70,374400,720
74,70,374400,480
77,82,374400,480
70,59,374880,240
74,71,374880,240
65,70,375360,120
70,70,375360,120
74,82,375360,120
65,59,375840,120
69,59,375840,120
72,71,375840,120
74,82,376320,960
77,82,376320,960
82,82,376320,960
86,98,376320,960
65,67,377280,160
63,61,377440,160
62,61,377600,160
70,67,377760,160
69,61,377920,160
67,61,378080,160
65,73,378240,960
77,67,379200,160
75,61,379360,160
74,61,379520,160
82,67,379680,160
81,61,379840,160
79,61,380000,160
77,73,380160,960
77,71,381120,160
81,60,381280,160
82,60,381440,160
84,67,381600,160
86,70,381760,160
87,72,381920,160
89,78,382080,960
81,67,383040,160
82,59,383200,160
84,59,383360,160
86,63,383520,160
87,66,383680,160
89,70,383840,160
90,72,384000,480
91,66,384480,240
79,67,384960,120
74,67,384960,120
70,67,384960,120
82,79,384960,120
79,61,385200,120
82,73,385200,120
74,61,385200,120
70,61,385200,120
79,67,385440,120
82,79,385440,120
70,67,385440,120
74,67,385440,120
70,61,385680,120
74,61,385680,120
79,61,385680,120
82,72,385680,120
70,74,385920,720
74,74,385920,480
79,74,385920,480
82,87,385920,480
74,63,386400,240
79,75,386400,240
65,70,386880,120
74,70,386880,120
77,82,386880,120
70,59,387360,120
65,59,387360,120
74,71,387360,120
72,82,387840,960
69,69,387840,960
65,69,387840,960
68,75,388800,160
72,68,388960,160
76,69,389120,160
77,75,389280,160
79,67,389440,160
80,67,389600,160
72,70,389760,720
81,70,389760,480
84,82,389760,480
81,71,390240,240
77,59,390240,240
72,70,390720,120
77,70,390720,120
81,82,390720,120
72,59,391200,120
76,59,391200,120
79,71,391200,120
77,98,391680,960
72,82,391680,960
69,82,391680,960
82,64,392640,160
81,57,392800,160
79,57,392960,160
86,63,393120,160
84,58,393280,160
82,58,393440,160
81,63,393600,160
79,57,393760,160
77,58,393920,160
76,65,394080,160
74,54,394240,160
72,54,394400,160
70,61,394560,160
69,52,394720,160
67,52,394880,160
74,61,395040,160
72,54,395200,160
70,54,395360,160
65,57,395520,960
77,68,395520,960
72,57,395520,960
69,57,395520,960
82,64,396480,160
81,57,396640,160
79,57,396800,160
86,63,396960,160
84,58,397120,160
82,58,397280,160
81,63,397440,160
79,57,397600,160
77,58,397760,160
76,65,397920,160
74,54,398080,160
72,54,398240,160
70,61,398400,160
69,52,398560,160
67,52,398720,160
74,61,398880,160
72,54,399040,160
70,54,399200,160
69,61,399360,160
67,50,399520,160
65,51,399680,160
64,58,399840,160
62,44,400000,160
60,44,400160,160
58,51,400320,160
57,46,400480,160
55,46,400640,160
61,52,400800,160
60,46,400960,160
58,46,401120,160
61,52,401280,160
60,47,401440,160
58,48,401600,160
61,57,401760,160
60,51,401920,160
58,53,402080,160
61,63,402240,160
60,59,402400,160
58,53,402560,160
61,57,402720,160
60,51,402880,160
59,48,403040,160
60,57,403200,160
61,43,403360,160
63,43,403520,160
65,51,403680,160
67,43,403840,160
68,43,404000,160
70,49,404160,160
72,43,404320,160
73,43,404480,160
75,50,404640,160
77,43,404800,160
79,43,404960,160
68,45,405120,960
80,53,405120,960
75,45,405120,960
72,45,405120,960
85,48,406080,160
84,42,406240,160
82,42,406400,160
89,47,406560,160
87,43,406720,160
85,43,406880,160
84,47,407040,160
82,42,407200,160
80,43,407360,160
79,48,407520,160
77,40,407680,160
75,40,407840,160
73,45,408000,160
72,39,408160,160
70,39,408320,160
77,45,408480,160
75,40,408640,160
73,40,408800,160
68,45,408960,960
80,53,408960,960
75,45,408960,960
72,45,408960,960
85,48,409920,160
84,42,410080,160
82,42,410240,160
89,47,410400,160
87,43,410560,160
85,43,410720,160
84,47,410880,160
82,42,411040,160
80,43,411200,160
79,48,411360,160
77,40,411520,160
75,40,411680,160
73,45,411840,160
72,39,412000,160
70,39,412160,160
77,45,412320,160
75,40,412480,160
73,40,412640,160
72,45,412800,160
70,37,412960,160
68,38,413120,160
67,43,413280,160
65,33,413440,160
63,33,413600,160
61,38,413760,160
60,34,413920,160
58,34,414080,160
64,39,414240,160
63,34,414400,160
61,34,414560,160
64,39,414720,160
63,35,414880,160
61,36,415040,160
64,42,415200,160
63,38,415360,160
61,39,415520,160
64,47,415680,160
63,44,415840,160
61,39,416000,160
64,42,416160,160
63,38,416320,160
62,36,416480,160
63,57,416640,160
64,43,416800,160
66,46,416960,160
68,48,417120,160
70,51,417280,160
71,53,417440,160
73,55,417600,160
75,60,417760,160
76,64,417920,160
78,68,418080,160
80,72,418240,160
82,76,418400,160
71,81,418560,950
74,81,418560,950
78,81,418560,950
83,96,418560,950
71,73,419520,120
74,73,419520,120
78,73,419520,120
83,86,419520,120
71,67,419760,120
74,67,419760,120
78,67,419760,120
83,80,419760,120
71,73,420000,120
74,73,420000,120
78,73,420000,120
83,86,420000,120
71,67,420240,120
74,67,420240,120
78,67,420240,120
83,79,420240,120
71,81,420480,720
74,81,420480,480
78,81,420480,480
83,95,420480,480
74,69,420960,240
78,82,420960,240
71,77,421440,120
73,77,421440,120
79,90,421440,120
71,64,421920,120
73,64,421920,120
76,78,421920,120
71,75,422400,960
74,75,422400,960
78,90,422400,960
71,69,423360,160
70,57,423520,160
71,57,423680,160
73,69,423840,160
71,59,424000,160
70,59,424160,160
74,69,424320,160
73,61,424480,160
71,61,424640,160
78,69,424800,160
76,62,424960,160
74,62,425120,160
79,69,425280,160
78,60,425440,160
76,60,425600,160
82,69,425760,160
80,60,425920,160
78,60,426080,160
71,73,426240,950
74,73,426240,950
78,73,426240,950
83,73,426240,950
59,67,428160,160
58,50,428320,160
59,50,428480,160
62,68,428640,160
61,51,428800,160
59,51,428960,160
64,68,429120,160
62,51,429280,160
61,51,429440,160
67,69,429600,160
66,51,429760,160
64,51,429920,160
66,67,430080,160
65,50,430240,160
66,50,430400,160
69,68,430560,160
68,51,430720,160
69,51,430880,160
72,68,431040,160
71,51,431200,160
72,51,431360,160
75,69,431520,160
74,51,431680,160
75,51,431840,160
78,89,432000,240
72,68,432480,480
75,68,432480,480
78,68,432480,480
84,81,432480,480
80,68,432480,480
72,68,432960,480
75,68,432960,480
78,68,432960,480
84,81,432960,480
80,68,432960,480
72,68,433440,480
75,68,433440,480
78,68,433440,480
84,81,433440,480
80,68,433440,480
73,81,433920,950
76,81,433920,950
80,81,433920,950
85,96,433920,950
73,73,434880,120
76,73,434880,120
80,73,434880,120
85,86,434880,120
73,67,435120,120
76,67,435120,120
80,67,435120,120
85,80,435120,120
73,73,435360,120
76,73,435360,120
80,73,435360,120
85,86,435360,120
73,67,435600,120
76,67,435600,120
80,67,435600,120
85,79,435600,120
73,81,435840,720
76,81,435840,480
80,81,435840,480
85,95,435840,480
76,69,436320,240
80,82,436320,240
73,77,436800,120
75,77,436800,120
81,90,436800,120
73,64,437280,120
75,64,437280,120
78,78,437280,120
73,75,437760,960
76,75,437760,960
80,90,437760,960
73,63,438720,160
72,52,438880,160
73,52,439040,160
75,63,439200,160
73,54,439360,160
72,54,439520,160
76,63,439680,160
75,56,439840,160
73,56,440000,160
80,63,440160,160
78,57,440320,160
76,57,440480,160
81,63,440640,160
80,55,440800,160
78,55,440960,160
84,63,441120,160
82,55,441280,160
80,55,441440,160
73,67,441600,950
76,67,441600,950
80,67,441600,950
85,67,441600,950
61,67,443520,160
60,50,443680,160
61,50,443840,160
64,68,444000,160
63,51,444160,160
61,51,444320,160
66,68,444480,160
64,51,444640,160
63,51,444800,160
69,69,444960,160
68,51,445120,160
66,51,445280,160
68,67,445440,160
67,50,445600,160
68,50,445760,160
71,68,445920,160
70,51,446080,160
71,53,446240,160
74,72,446400,160
73,51,446560,160
74,56,446720,160
77,72,446880,160
76,57,447040,160
77,58,447200,160
80,86,447360,240
74,68,447840,432
77,68,447840,432
80,68,447840,432
86,81,447840,432
82,68,447840,432
74,68,448320,432
77,68,448320,432
80,68,448320,432
86,81,448320,432
82,68,448320,432
74,68,448800,432
77,68,448800,432
80,68,448800,432
86,81,448800,432
82,68,448800,432
75,75,449280,240
79,75,449280,240
82,75,449280,240
87,89,449280,240
66,68,449760,432
69,68,449760,432
75,81,449760,432
71,68,449760,432
66,68,450240,432
69,68,450240,432
75,81,450240,432
71,68,450240,432
66,68,450720,432
69,68,450720,432
75,81,450720,432
71,68,450720,432
67,75,451200,240
71,75,451200,240
76,89,451200,240
76,68,451680,432
79,68,451680,432
82,68,451680,432
88,81,451680,432
84,68,451680,432
76,68,452160,432
79,68,452160,432
82,68,452160,432
88,81,452160,432
84,68,452160,432
76,68,452640,432
79,68,452640,432
82,68,452640,432
88,81,452640,432
84,68,452640,432
77,75,453120,240
80,75,453120,240
84,75,453120,240
89,89,453120,240
68,68,453600,432
71,68,453600,432
77,81,453600,432
73,68,453600,432
68,62,454080,432
71,62,454080,432
77,74,454080,432
73,62,454080,432
68,57,454560,432
71,57,454560,432
77,68,454560,432
73,57,454560,432
69,56,455040,240
74,56,455040,240
78,66,455040,240
74,64,455520,160
73,54,455680,160
74,54,455840,160
78,65,456000,160
76,56,456160,160
74,56,456320,160
81,66,456480,160
79,58,456640,160
78,58,456800,160
76,65,456960,160
74,58,457120,160
73,58,457280,160
74,66,457440,160
73,55,457600,160
71,55,457760,160
69,60,457920,160
67,51,458080,160
66,51,458240,160
64,58,458400,160
62,51,458560,160
66,51,458720,160
64,61,458880,240
76,64,459360,160
75,54,459520,160
76,54,459680,160
79,65,459840,160
78,56,460000,160
76,56,460160,160
83,66,460320,160
81,58,460480,160
79,58,460640,160
78,65,460800,160
76,58,460960,160
75,58,461120,160
76,66,461280,160
74,55,461440,160
73,55,461600,160
71,60,461760,160
69,51,461920,160
67,51,462080,160
66,58,462240,160
64,51,462400,160
67,51,462560,160
66,61,462720,240
78,64,463200,160
77,54,463360,160
78,54,463520,160
81,65,463680,160
79,56,463840,160
78,56,464000,160
84,66,464160,160
83,58,464320,160
81,58,464480,160
79,65,464640,160
78,58,464800,160
76,58,464960,160
78,66,465120,160
76,55,465280,160
74,55,465440,160
72,60,465600,160
71,51,465760,160
69,51,465920,160
67,58,466080,160
66,51,466240,160
69,51,466400,160
67,65,466560,160
66,58,466720,160
67,58,466880,160
71,64,467040,160
70,54,467200,160
71,54,467360,160
74,65,467520,160
73,56,467680,160
74,56,467840,160
79,66,468000,160
78,58,468160,160
79,58,468320,160
83,65,468480,160
82,58,468640,160
83,58,468800,160
86,66,468960,160
85,55,469120,160
86,55,469280,160
89,67,469440,160
88,51,469600,160
89,52,469760,160
80,63,469920,160
79,41,470080,160
80,40,470240,160
81,52,470400,160
80,41,470560,160
81,41,470720,160
85,52,470880,160
83,42,471040,160
81,42,471200,160
83,52,471360,160
81,40,471520,160
80,40,471680,160
86,58,471840,160
85,44,472000,160
83,44,472160,160
81,52,472320,160
80,41,472480,160
78,41,472640,160
76,52,472800,160
74,41,472960,160
73,41,473120,160
74,52,473280,160
73,40,473440,160
71,40,473600,160
78,58,473760,160
76,44,473920,160
74,44,474080,160
73,52,474240,160
76,41,474400,160
81,41,474560,160
85,52,474720,160
83,41,474880,160
81,41,475040,160
83,52,475200,160
81,40,475360,160
80,40,475520,160
86,58,475680,160
85,44,475840,160
83,44,476000,160
81,52,476160,160
80,41,476320,160
78,41,476480,160
76,52,476640,160
74,41,476800,160
73,41,476960,160
74,52,477120,160
73,40,477280,160
71,40,477440,160
78,58,477600,160
76,44,477760,160
74,44,477920,160
73,52,478080,160
71,41,478240,160
69,41,478400,160
76,52,478560,160
74,41,478720,160
73,42,478880,160
79,53,479040,160
78,41,479200,160
76,42,479360,160
83,60,479520,160
81,46,479680,160
79,46,479840,160
78,55,480000,160
76,44,480160,160
74,44,480320,160
73,56,480480,160
71,45,480640,160
69,45,480800,160
67,57,480960,160
64,44,481120,160
66,44,481280,160
67,65,481440,160
69,49,481600,160
71,50,481760,160
73,59,481920,160
71,47,482080,160
69,47,482240,160
76,60,482400,160
74,47,482560,160
73,48,482720,160
79,61,482880,160
78,47,483040,160
76,48,483200,160
82,66,483360,160
81,53,483520,160
79,53,483680,160
78,63,483840,160
76,50,484000,160
74,50,484160,160
73,64,484320,160
71,51,484480,160
69,51,484640,160
67,65,484800,160
64,50,484960,160
66,50,485120,160
67,66,485280,160
69,54,485440,160
71,54,485600,160
73,75,485760,160
71,61,485920,160
69,61,486080,160
76,75,486240,160
74,61,486400,160
73,61,486560,160
79,76,486720,160
78,62,486880,160
76,62,487040,150
76,77,487200,160
74,63,487360,160
73,64,487520,160
79,81,487680,160
78,67,487840,160
76,67,488000,160
83,82,488160,160
81,67,488320,160
79,67,488480,150
79,81,488640,160
78,68,488800,160
76,68,488960,150
83,80,489120,160
81,65,489280,160
79,66,489440,160
85,86,489600,160
83,65,489760,160
81,65,489920,160
85,84,490080,160
83,66,490240,160
81,71,490400,150
85,91,490560,160
83,74,490720,160
81,76,490880,150
85,93,491040,160
83,80,491200,160
81,85,491360,160
86,105,491520,960
81,89,491520,960
78,89,491520,960
74,89,491520,960
57,61,492480,120
62,72,492480,120
57,56,492720,120
62,67,492720,120
57,61,492960,120
62,72,492960,120
57,56,493200,120
62,66,493200,120
57,68,493440,480
62,80,493440,720
59,58,493920,240
64,69,493920,240
60,61,494400,120
62,61,494400,120
66,72,494400,120
60,56,494640,120
62,56,494640,120
66,67,494640,120
60,61,494880,120
62,61,494880,120
66,72,494880,120
60,56,495120,120
62,56,495120,120
66,66,495120,120
60,68,495360,480
62,68,495360,720
66,80,495360,480
59,58,495840,240
67,69,495840,240
64,57,496080,240
67,63,496320,160
66,57,496480,160
64,57,496640,160
70,63,496800,160
69,58,496960,160
67,58,497120,160
69,63,497280,240
78,56,497760,160
76,46,497920,160
74,46,498080,160
81,57,498240,160
79,47,498400,160
78,47,498560,160
76,58,498720,160
74,50,498880,160
73,50,499040,160
86,105,499200,960
81,89,499200,960
78,89,499200,960
74,89,499200,960
57,54,500160,120
62,63,500160,120
57,49,500400,120
62,59,500400,120
57,54,500640,120
62,63,500640,120
57,49,500880,120
62,58,500880,120
57,60,501120,480
62,70,501120,720
59,51,501600,240
64,61,501600,240
57,61,502080,160
59,55,502240,160
60,55,502400,160
62,61,502560,160
64,56,502720,160
66,56,502880,160
58,61,503040,240
66,52,503280,240
59,61,503520,240
67,55,503760,240
64,54,504000,120
67,54,504000,120
69,63,504000,120
64,49,504240,120
67,49,504240,120
69,59,504240,120
64,54,504480,120
67,54,504480,120
69,63,504480,120
64,49,504720,120
67,49,504720,120
69,58,504720,120
67,60,504960,720
64,60,504960,480
69,70,504960,480
62,51,505440,240
71,61,505440,240
62,61,505920,160
64,55,506080,160
66,55,506240,160
67,61,506400,160
69,56,506560,160
71,56,506720,160
63,61,506880,240
71,52,507120,240
64,61,507360,240
72,55,507600,240
67,54,507840,120
70,54,507840,120
73,63,507840,120
67,49,508080,120
70,49,508080,120
73,59,508080,120
67,54,508320,120
70,54,508320,120
73,63,508320,120
67,49,508560,120
70,49,508560,120
73,58,508560,120
70,60,508800,720
67,60,508800,480
73,70,508800,480
65,51,509280,240
74,61,509280,240
65,61,509760,160
67,55,509920,160
69,55,510080,160
71,61,510240,160
72,56,510400,160
74,56,510560,160
75,61,510720,240
67,50,510960,240
74,61,511200,240
65,51,511440,240
64,45,511680,120
67,45,511680,120
70,45,511680,120
73,53,511680,120
64,41,511920,120
67,41,511920,120
70,41,511920,120
73,50,511920,120
64,45,512160,120
67,45,512160,120
70,45,512160,120
73,53,512160,120
64,41,512400,120
67,41,512400,120
70,41,512400,120
73,49,512400,120
64,51,512640,480
70,51,512640,720
67,51,512640,480
73,59,512640,480
65,43,513120,240
74,51,513120,240
65,51,513600,160
67,46,513760,160
69,46,513920,160
70,51,514080,160
72,47,514240,160
74,47,514400,160
79,51,514560,240
75,43,514560,240
67,44,514800,240
77,51,515040,240
74,43,515040,240
65,46,515280,240
64,40,515520,120
67,40,515520,120
70,40,515520,120
73,53,515520,120
64,37,515760,120
67,37,515760,120
70,37,515760,120
73,50,515760,120
64,40,516000,120
67,40,516000,120
70,40,516000,120
73,53,516000,120
64,37,516240,120
67,37,516240,120
70,37,516240,120
73,49,516240,120
64,51,516480,480
70,51,516480,720
67,51,516480,480
73,59,516480,480
65,43,516960,240
74,51,516960,240
65,49,517440,160
67,50,517600,160
69,52,517760,160
70,53,517920,160
72,55,518080,160
74,56,518240,160
75,61,518400,160
77,52,518560,160
79,52,518720,160
77,61,518880,160
75,53,519040,160
74,53,519200,160
73,57,519360,160
70,47,519520,160
67,47,519680,160
64,49,519840,160
61,47,520000,160
64,48,520160,160
65,50,520320,160
62,45,520480,160
65,45,520640,160
62,50,520800,160
58,45,520960,160
62,45,521120,160
65,45,521280,160
67,47,521440,160
69,49,521600,160
70,51,521760,160
72,53,521920,160
74,55,522080,160
75,57,522240,160
77,59,522400,160
79,61,522560,160
77,63,522720,160
75,58,522880,160
74,61,523040,160
73,57,523200,160
70,55,523360,160
67,53,523520,160
64,51,523680,160
61,47,523840,160
64,43,524000,160
67,59,524160,160
64,43,524320,160
67,43,524480,160
64,44,524640,160
61,45,524800,160
64,45,524960,160
68,62,525120,160
64,46,525280,160
68,47,525440,160
64,47,525600,160
61,48,525760,160
64,48,525920,160
69,65,526080,160
64,49,526240,160
69,50,526400,160
64,50,526560,160
61,51,526720,160
64,52,526880,160
69,68,527040,160
64,52,527200,160
69,53,527360,160
64,54,527520,160
60,54,527680,160
64,55,527840,160
74,74,528000,160
69,59,528160,160
74,60,528320,160
69,61,528480,160
62,62,528640,160
69,63,528800,160
80,82,528960,160
74,67,529120,160
80,69,529280,160
74,70,529440,160
68,72,529600,160
74,74,529760,160
81,105,529920,960
76,89,529920,960
73,89,529920,960
69,89,529920,960
72,54,530880,180
75,63,530880,180
72,49,531120,180
75,59,531120,180
72,54,531360,180
75,63,531360,180
72,49,531600,180
75,58,531600,180
73,60,531840,480
76,70,531840,480
85,49,532320,240
49,64,532560,240
50,66,532800,160
49,62,532960,160
47,64,533120,160
53,65,533280,160
52,60,533440,160
50,49,533600,160
73,56,534240,360
76,56,534240,360
73,49,534600,120
76,49,534600,120
71,55,534720,240
74,55,534720,240
59,55,534720,160
61,56,534880,160
62,54,535040,160
64,57,535200,160
66,60,535360,160
68,62,535520,160
81,94,535680,960
76,80,535680,960
73,80,535680,960
69,80,535680,960
72,54,536640,330
75,63,536640,330
72,49,537000,90
75,59,537000,90
72,54,537120,330
75,63,537120,330
72,49,537480,90
75,58,537480,90
73,60,537600,480
76,70,537600,480
85,49,538080,240
49,64,538320,240
50,66,538560,160
49,62,538720,160
47,64,538880,160
53,65,539040,160
52,60,539200,160
50,49,539360,160
73,56,540000,360
76,56,540000,360
73,49,540360,120
76,49,540360,120
71,55,540480,240
74,55,540480,240
59,55,540480,160
61,56,540640,160
62,54,540800,160
64,57,540960,160
66,60,541120,160
68,62,541280,160
69,57,541440,160
71,61,541600,160
73,62,541760,160
74,63,541920,160
76,64,542080,160
78,65,542240,160
79,66,542400,160
80,67,542560,160
81,68,542720,160
83,69,542880,160
85,70,543040,160
86,71,543200,160
88,75,543360,160
90,71,543520,160
88,67,543680,160
86,63,543840,160
85,60,544000,160
83,58,544160,160
81,55,544320,160
83,53,544480,160
81,50,544640,160
79,48,544800,160
78,45,544960,160
76,43,545120,160
74,50,545280,480
66,39,545760,120
76,49,546240,480
69,39,546720,120
69,40,547140,60
78,49,547200,480
74,39,547680,120
74,40,548100,60
83,55,548160,360
80,45,548520,120
83,53,548640,360
80,46,549000,120
81,50,549127,480
69,39,549600,120
69,40,550020,60
79,49,550080,480
76,39,550560,120
76,40,550980,60
78,49,551040,480
69,39,551520,120
69,40,551940,60
76,55,552000,360
73,45,552360,120
76,53,552480,360
73,46,552840,120
74,50,552960,160
69,44,553120,160
74,38,553280,160
66,39,553440,120
76,50,553920,160
73,44,554080,160
76,38,554240,160
69,39,554400,120
78,50,554880,160
76,44,555040,160
78,38,555200,160
74,39,555360,120
83,55,555840,160
80,47,556000,160
83,47,556160,160
86,55,556320,160
83,47,556480,160
80,47,556640,160
81,50,556800,160
78,44,556960,160
81,38,557120,160
69,39,557280,120
79,50,557760,160
78,44,557920,160
79,38,558080,160
76,39,558240,120
78,50,558720,160
74,44,558880,160
78,38,559040,160
69,39,559200,120
76,55,559680,360
73,45,560040,120
76,53,560160,360
73,46,560520,120
76,78,560640,160
67,62,560800,160
76,62,560960,160
60,78,561120,840
76,59,561960,120
67,59,561960,120
60,78,562080,360
67,62,562440,120
76,75,562560,160
67,56,562720,160
76,56,562880,160
60,74,563040,840
76,59,563880,120
67,59,563880,120
60,74,564000,840
67,52,564840,120
76,62,564840,120
60,74,564960,840
67,52,565800,120
76,62,565800,120
60,74,565920,360
76,62,566280,120
67,52,566280,120
77,79,566400,160
69,62,566560,160
77,62,566720,160
81,81,566880,840
69,59,567720,120
77,62,567840,360
81,74,567840,360
69,62,568200,120
77,71,568320,160
69,56,568480,160
77,56,568640,160
81,74,568800,840
69,59,569640,120
77,74,569760,840
81,74,569760,840
69,62,570600,120
77,74,570720,840
81,80,570720,840
69,53,571560,120
73,57,571680,840
79,57,571680,840
81,63,571680,840
69,42,572520,120
73,44,572640,360
79,44,572640,360
81,53,572640,360
69,42,573000,120
73,41,573120,360
79,41,573120,360
81,48,573120,360
69,39,573480,120
73,37,573600,360
79,37,573600,360
81,44,573600,360
69,35,573960,120
74,42,574080,120
78,42,574080,120
81,50,574080,120
69,39,574240,160
74,41,574400,160
78,42,574560,160
81,44,574720,160
86,45,574880,160
81,47,575040,160
74,45,575200,160
78,49,575360,160
81,52,575520,160
86,52,575680,160
90,47,575840,160
81,52,576000,160
83,45,576160,160
81,45,576320,160
79,52,576480,160
83,47,576640,160
79,47,576800,160
78,53,576960,160
81,47,577120,160
78,47,577280,160
76,52,577440,160
79,47,577600,160
76,47,577760,160
74,50,577920,160
69,39,578080,160
74,41,578240,160
78,42,578400,160
81,44,578560,160
86,45,578720,160
81,47,578880,160
74,45,579040,160
78,49,579200,160
81,52,579360,160
86,52,579520,160
90,47,579680,160
81,52,579840,160
83,45,580000,160
81,45,580160,160
79,52,580320,160
81,47,580480,160
79,47,580640,160
78,53,580800,160
79,47,580960,160
78,47,581120,160
76,52,581280,160
78,47,581440,160
76,47,581600,160
66,42,581760,160
69,37,581920,160
66,37,582080,160
69,43,582240,160
74,36,582400,160
69,37,582560,140
69,43,582720,160
73,37,582880,160
69,38,583040,160
73,43,583200,160
76,39,583360,160
73,39,583520,160
69,43,583680,160
74,38,583840,160
69,38,584000,160
74,43,584160,160
78,38,584320,160
74,38,584480,140
74,43,584640,160
77,37,584800,160
74,37,584960,160
77,43,585120,160
80,37,585280,160
77,37,585440,160
74,42,585600,160
78,37,585760,160
74,37,585920,160
78,43,586080,160
81,36,586240,160
78,37,586400,140
69,43,586560,160
76,37,586720,160
69,38,586880,160
76,43,587040,160
79,39,587200,160
76,39,587360,160
69,43,587520,160
74,38,587680,160
69,38,587840,160
74,43,588000,160
78,38,588160,160
74,38,588320,140
69,43,588480,160
73,37,588640,160
69,37,588800,160
73,43,588960,160
76,37,589120,160
73,37,589280,160
78,42,589440,160
81,37,589600,160
78,37,589760,160
81,43,589920,160
86,36,590080,160
81,37,590240,140
81,43,590400,160
85,37,590560,160
81,38,590720,160
85,43,590880,160
88,39,591040,160
85,39,591200,160
81,50,591360,160
86,41,591520,160
81,41,591680,160
86,48,591840,160
90,38,592000,160
86,38,592160,140
86,47,592320,160
89,40,592480,160
86,40,592640,160
89,49,592800,160
92,43,592960,160
89,43,593120,160
86,55,593280,160
89,49,593440,160
86,49,593600,160
89,55,593760,160
92,49,593920,160
89,49,594080,140
86,43,594240,160
89,37,594400,160
86,37,594560,160
89,43,594720,160
92,37,594880,160
89,37,595040,160
86,43,595200,160
89,38,595360,160
86,38,595520,160
89,43,595680,160
92,38,595840,160
89,38,596000,140
86,43,596160,160
89,37,596320,160
86,37,596480,160
89,43,596640,160
94,37,596800,160
89,37,596960,160
86,43,597120,160
89,38,597280,160
86,38,597440,160
89,43,597600,160
94,38,597760,160
89,38,597920,140
86,43,598080,160
89,37,598240,160
86,36,598400,160
89,42,598560,160
94,36,598720,160
89,36,598880,160
87,41,599040,160
91,36,599200,160
87,36,599360,160
91,40,599520,160
94,36,599680,160
91,35,599840,140
85,39,600000,160
88,34,600160,160
85,34,600320,160
88,39,600480,160
93,33,600640,160
88,33,600800,160
86,38,600960,160
90,33,601120,160
86,33,601280,160
90,37,601440,160
93,33,601600,160
90,33,601760,140
79,36,601920,160
86,31,602080,160
79,31,602240,150
86,36,602400,160
91,31,602560,160
86,30,602720,160
81,35,602880,160
86,31,603040,160
81,30,603200,160
86,34,603360,160
90,30,603520,160
86,30,603680,140
81,33,603840,160
88,28,604000,160
85,28,604160,150
81,33,604320,160
79,28,604480,160
76,28,604640,160
72,87,604800,160
74,55,604960,160
72,55,605120,160
69,61,605280,160
66,55,605440,160
62,55,605600,160
60,75,605760,160
62,48,605920,160
60,48,606080,160
62,54,606240,160
60,50,606400,160
62,50,606560,160
70,84,606720,160
74,55,606880,160
72,55,607040,160
70,61,607200,160
65,55,607360,160
62,55,607520,160
58,77,607680,160
62,48,607840,160
58,48,608000,160
62,54,608160,160
58,50,608320,160
62,50,608480,160
72,88,608640,160
74,55,608800,160
72,55,608960,160
69,61,609120,160
66,55,609280,160
62,55,609440,160
60,75,609600,160
62,48,609760,160
60,48,609920,160
62,54,610080,160
60,50,610240,160
62,50,610400,160
70,87,610560,160
74,55,610720,160
72,55,610880,160
70,61,611040,160
65,55,611200,160
62,55,611360,160
58,77,611520,160
62,48,611680,160
58,48,611840,160
62,54,612000,160
58,50,612160,160
62,50,612320,160
78,44,612960,360
81,44,612960,360
78,39,613320,120
81,39,613320,120
76,44,613440,240
79,44,613440,240
67,44,613440,160
69,44,613600,160
71,43,613760,160
73,45,613920,160
74,48,614080,160
76,49,614240,160
78,45,614400,160
79,48,614560,160
81,48,614720,157
83,50,614880,160
85,52,615040,160
86,52,615200,160
88,54,615360,160
90,56,615520,160
91,56,615680,160
93,58,615840,160
95,60,616000,160
97,60,616160,160
98,62,616320,160
97,62,616480,160
95,60,616640,160
93,60,616800,160
91,58,616960,160
90,56,617120,160
88,55,617280,160
86,54,617440,160
85,52,617600,160
83,51,617760,160
81,50,617920,160
79,48,618080,160
78,46,618240,160
76,45,618400,160
74,44,618560,160
73,43,618720,160
71,41,618880,160
69,40,619040,160
67,40,619200,160
71,39,619360,160
69,37,619520,160
67,35,619680,160
66,33,619840,160
64,31,620000,160
72,83,620160,160
74,55,620320,160
72,55,620480,160
69,61,620640,160
66,55,620800,160
62,55,620960,160
60,75,621120,160
62,48,621280,160
60,48,621440,160
62,54,621600,160
60,50,621760,160
62,50,621920,160
70,84,622080,160
74,55,622240,160
72,55,622400,160
70,61,622560,160
65,55,622720,160
62,55,622880,160
58,77,623040,160
62,48,623200,160
58,48,623360,160
62,54,623520,160
58,50,623680,160
62,50,623840,160
70,84,624000,160
72,55,624160,160
70,55,624320,160
67,61,624480,160
64,55,624640,160
60,55,624800,160
58,77,624960,160
60,48,625120,160
58,48,625280,160
60,54,625440,160
58,50,625600,160
60,50,625760,160
68,84,625920,160
72,55,626080,160
70,55,626240,160
68,70,626400,160
63,55,626560,160
60,55,626720,160
56,77,626880,160
60,48,627040,160
56,48,627200,160
60,54,627360,160
56,50,627520,160
60,50,627680,160
68,84,627840,160
70,55,628000,160
68,55,628160,160
65,71,628320,160
62,55,628480,160
58,55,628640,160
66,84,628800,160
70,55,628960,160
66,55,629120,160
61,61,629280,160
58,55,629440,160
54,55,629600,160
67,84,629760,160
69,55,629920,160
67,55,630080,160
64,61,630240,160
61,55,630400,160
57,55,630560,160
65,84,630720,160
69,55,630880,160
65,55,631040,160
60,61,631200,160
57,55,631360,160
53,55,631520,160
58,84,631680,160
62,55,631840,160
58,55,632000,160
53,61,632160,160
50,55,632320,160
46,55,632480,160
50,69,632640,160
46,43,632800,160
50,43,632960,160
46,48,633120,160
50,45,633280,160
46,45,633440,160
50,56,633600,160
46,39,633760,160
50,39,633920,160
46,42,634080,160
50,39,634240,160
46,38,634400,160
50,46,634560,160
46,34,634720,160
50,33,634880,160
46,36,635040,160
50,33,635200,160
46,32,635360,160
69,44,636000,360
66,44,636000,360
66,39,636360,120
69,39,636360,120
55,44,636480,160
64,44,636480,240
67,44,636480,240
57,44,636640,160
59,43,636800,160
61,45,636960,160
62,48,637120,160
64,49,637280,160
66,45,637440,160
67,48,637600,160
69,48,637760,157
71,50,637920,160
73,52,638080,160
74,52,638240,160
76,54,638400,160
78,56,638560,160
79,56,638720,160
81,58,638880,160
83,60,639040,160
85,60,639200,160
74,51,639360,160
76,51,639520,160
78,52,639680,160
79,53,639840,160
81,53,640000,160
83,54,640160,160
85,55,640320,160
86,55,640480,160
88,56,640640,160
90,56,640800,160
91,57,640960,160
93,58,641120,160
81,58,641280,160
83,59,641440,160
85,60,641600,160
86,60,641760,160
88,61,641920,160
90,62,642080,160
91,62,642240,160
93,63,642400,160
95,64,642560,160
97,64,642720,160
98,65,642880,160
100,65,643040,160
86,73,643200,160
88,62,643360,160
86,63,643520,160
90,73,643680,160
98,63,643840,160
90,64,644000,160
86,71,644160,160
88,65,644320,160
86,66,644480,160
86,71,644640,160
98,63,644800,160
86,63,644960,150
81,72,645120,160
90,61,645280,160
81,61,645440,160
90,66,645600,160
93,67,645760,160
90,62,645920,160
81,72,646080,160
90,62,646240,160
81,62,646400,160
90,73,646560,160
93,64,646720,160
90,64,646880,160
78,73,647040,160
86,65,647200,160
78,65,647360,160
86,73,647520,160
90,65,647680,160
86,65,647840,160
78,75,648000,160
86,67,648160,160
78,67,648320,160
86,76,648480,160
90,70,648640,160
86,70,648800,160
74,76,648960,160
78,70,649120,160
74,70,649280,160
78,79,649440,160
86,71,649600,160
78,71,649760,150
74,80,649920,160
78,72,650080,160
74,73,650240,160
78,81,650400,160
86,74,650560,160
78,74,650720,160
86,105,650880,960
81,89,650880,960
78,89,650880,960
74,89,650880,960
66,73,651840,120
74,86,651840,120
66,66,652080,120
74,80,652080,120
66,73,652320,120
74,86,652320,120
66,66,652560,120
74,79,652560,120
66,81,652800,480
74,95,652800,480
69,69,653280,240
76,82,653280,240
69,81,653760,480
76,95,653760,480
74,69,654240,240
78,82,654240,240
74,81,654720,480
78,95,654720,480
69,69,655200,240
76,82,655200,240
69,73,655680,120
76,86,655680,120
69,66,655920,120
76,80,655920,120
69,73,656160,120
76,86,656160,120
69,66,656400,120
76,79,656400,120
69,81,656640,480
76,95,656640,480
78,69,657120,240
81,82,657120,240
78,81,657600,480
81,95,657600,480
73,69,658080,240
79,82,658080,240
73,81,658560,480
79,95,658560,480
74,69,659040,240
78,82,659040,240
74,76,659520,120
78,76,659520,120
83,76,659520,120
86,90,659520,120
74,69,659760,120
78,69,659760,120
83,69,659760,120
86,84,659760,120
74,76,660000,120
78,76,660000,120
83,76,660000,120
86,90,660000,120
74,69,660240,120
78,69,660240,120
83,69,660240,120
86,82,660240,120
74,85,660480,480
78,85,660480,480
83,85,660480,480
86,99,660480,480
71,72,660960,240
78,72,660960,240
83,86,660960,240
69,74,661440,120
74,74,661440,120
78,74,661440,120
81,87,661440,120
69,63,661920,120
74,63,661920,120
78,75,661920,120
69,74,662400,960
73,74,662400,960
76,87,662400,960
65,69,663360,120
77,90,663360,120
65,69,663600,120
77,84,663600,120
65,76,663840,120
77,90,663840,120
65,69,664080,120
77,82,664080,120
69,85,664320,720
78,85,664320,480
81,99,664320,480
74,72,664800,240
78,86,664800,240
69,74,665280,120
74,74,665280,120
78,87,665280,120
69,63,665760,120
73,63,665760,120
76,75,665760,120
66,74,666240,480
69,74,666240,480
74,87,666240,480
65,69,666720,720
77,90,666720,720
65,69,667440,120
77,84,667440,120
65,76,667680,120
77,90,667680,120
65,69,667920,120
77,82,667920,120
69,85,668160,720
78,85,668160,480
81,99,668160,480
74,72,668640,240
78,86,668640,240
69,74,669120,120
74,74,669120,120
78,87,669120,120
69,63,669600,120
73,63,669600,120
76,75,669600,120
66,74,670080,480
69,74,670080,480
74,87,670080,480
80,75,670560,720
86,75,670560,720
89,98,670560,720
80,75,671280,120
86,75,671280,120
89,92,671280,120
80,83,671520,120
86,83,671520,120
89,98,671520,120
80,75,671760,120
86,75,671760,120
89,90,671760,120
81,93,672000,720
90,93,672000,480
93,109,672000,480
86,79,672480,240
90,94,672480,240
81,81,672960,120
86,81,672960,120
90,95,672960,120
81,69,673440,120
85,69,673440,120
88,82,673440,120
93,69,673920,160
90,61,674080,160
81,61,674240,160
86,69,674400,160
90,62,674560,160
95,62,674720,160
93,69,674880,160
90,62,675040,160
81,62,675200,160
88,69,675360,160
85,62,675520,160
81,62,675680,160
93,69,675840,160
90,61,676000,160
81,61,676160,160
86,69,676320,160
90,62,676480,160
95,62,676640,160
93,69,676800,160
90,62,676960,160
81,62,677120,160
88,69,677280,160
85,62,677440,160
81,62,677600,160
93,69,677760,160
81,61,677920,160
86,61,678080,160
90,69,678240,160
93,62,678400,160
98,62,678560,160
93,69,678720,160
90,62,678880,160
95,62,679040,160
93,69,679200,160
91,62,679360,160
88,62,679520,160
86,93,679680,120
52,50,680000,160
54,54,680160,160
52,50,680320,160
50,51,680480,160
55,57,680640,160
54,53,680800,160
52,53,680960,160
57,59,681120,160
55,55,681280,160
54,56,681440,160
59,61,681600,160
57,57,681760,160
55,58,681920,160
61,65,682080,160
59,60,682240,160
57,62,682400,160
62,69,682560,160
61,65,682720,160
59,65,682880,160
64,73,683040,160
62,68,683200,160
61,68,683360,160
58,86,683520,960
61,86,683520,960
66,86,683520,960
67,94,685440,960
69,94,685440,960
73,94,685440,960
76,94,685440,960
81,94,685440,960
54,73,687360,960
57,73,687360,960
62,86,687360,960
54,70,688320,480
57,70,688320,480
62,83,688320,480
54,68,688800,480
57,68,688800,480
62,81,688800,480
54,80,689280,240
57,80,689280,240
62,94,689280,240
74,91,690240,240
78,91,690240,240
81,91,690240,240
86,108,690240,240
54,94,691200,960
57,94,691200,960
62,94,691200,960
38,64,0,960
50,75,0,960
42,45,960,120
50,53,960,120
42,40,1200,120
50,48,1200,120
42,45,1440,120
50,53,1440,120
42,40,1680,120
50,48,1680,120
42,49,1920,480
50,58,1920,720
43,45,2400,240
52,54,2400,240
45,45,2880,120
50,45,2880,120
54,53,2880,120
45,40,3120,120
50,40,3120,120
54,48,3120,120
45,45,3360,120
50,45,3360,120
54,53,3360,120
45,40,3600,120
50,40,3600,120
54,48,3600,120
50,49,3840,720
45,49,3840,480
54,58,3840,480
47,45,4320,240
55,54,4320,240
52,46,4560,240
55,54,4800,160
54,47,4960,160
52,48,5120,160
58,54,5280,160
57,49,5440,160
55,49,5600,160
57,54,5760,240
62,42,6240,160
64,35,6400,160
66,35,6560,160
57,43,6720,160
61,36,6880,160
62,36,7040,160
64,43,7200,160
66,37,7360,160
67,37,7520,160
38,64,7680,960
50,75,7680,960
41,45,8640,120
50,53,8640,120
41,40,8880,120
50,48,8880,120
41,45,9120,120
50,53,9120,120
41,40,9360,120
50,48,9360,120
41,49,9600,480
50,58,9600,720
43,45,10080,240
52,54,10080,240
45,45,10560,120
50,45,10560,120
54,53,10560,120
45,40,10800,120
50,40,10800,120
54,48,10800,120
45,45,11040,120
50,45,11040,120
54,53,11040,120
45,40,11280,120
50,40,11280,120
54,48,11280,120
50,49,11520,720
45,49,11520,480
54,58,11520,480
46,45,12000,240
55,54,12000,240
47,45,12480,120
53,45,12480,120
56,53,12480,120
47,40,12720,120
53,40,12720,120
56,48,12720,120
47,45,12960,120
53,45,12960,120
56,53,12960,120
47,40,13200,120
53,40,13200,120
56,48,13200,120
53,49,13440,960
48,49,13440,960
57,58,13440,960
48,43,14400,120
48,36,14640,120
48,43,14880,120
48,37,15120,120
48,43,15360,480
45,43,15840,240
48,43,16313,120
48,36,16553,120
48,43,16793,120
48,37,17033,120
48,43,17280,480
53,38,18240,176
55,34,18400,176
57,31,18560,160
45,42,18720,176
46,36,18880,176
48,34,19040,160
41,43,19200,176
43,37,19360,176
45,34,19520,160
33,46,19680,176
34,40,19840,176
36,37,20000,160
33,56,20160,176
34,50,20320,176
36,47,20480,160
33,60,20640,176
34,54,20800,176
36,50,20960,160
37,70,21120,120
37,35,21364,120
37,35,21600,120
37,35,21840,120
37,46,22080,960
49,44,23040,120
37,37,23040,120
49,35,23280,120
37,29,23284,120
37,29,23520,120
49,35,23520,120
49,35,23760,120
37,29,23760,120
49,55,24000,960
37,46,24000,960
45,61,24960,120
33,51,24960,120
33,39,25200,120
45,48,25200,120
33,39,25440,120
45,48,25440,120
45,49,25680,120
33,39,25680,120
45,68,25920,960
33,58,25920,960
45,78,26880,120
33,64,26880,120
33,51,27120,120
45,62,27120,120
33,52,27360,120
45,64,27360,120
45,67,27600,120
33,55,27600,120
45,94,27840,960
33,79,27840,960
45,73,28800,960
42,73,28800,960
38,73,28800,960
50,86,28800,960
42,43,29760,120
50,51,29760,120
42,39,30000,120
50,46,30000,120
42,43,30240,120
50,51,30240,120
42,39,30480,120
50,46,30480,120
42,47,30720,480
50,56,30720,720
43,43,31200,240
52,52,31200,240
45,53,31680,160
47,48,31840,160
48,48,32000,160
50,53,32160,160
52,49,32320,160
54,48,32480,160
46,53,32640,240
54,49,32880,240
47,53,33120,240
55,48,33360,240
49,43,33600,120
55,43,33600,120
57,51,33600,120
49,39,33840,120
55,39,33840,120
57,46,33840,120
49,43,34080,120
55,43,34080,120
57,51,34080,120
49,39,34320,120
55,39,34320,120
57,46,34320,120
55,47,34560,720
49,47,34560,480
57,56,34560,480
50,43,35040,240
59,52,35040,240
50,53,35520,160
52,48,35680,160
54,48,35840,160
55,53,36000,160
57,49,36160,160
59,48,36320,160
51,53,36480,240
59,49,36720,240
52,53,36960,240
60,48,37200,240
52,43,37440,120
58,43,37440,120
61,51,37440,120
52,39,37680,120
58,39,37680,120
61,46,37680,120
52,43,37920,120
58,43,37920,120
61,51,37920,120
52,39,38160,120
58,39,38160,120
61,46,38160,120
58,47,38400,720
52,47,38400,480
61,56,38400,480
53,43,38880,240
62,52,38880,240
53,53,39360,160
55,48,39520,160
57,48,39680,160
59,53,39840,160
60,49,40000,160
62,48,40160,160
51,53,40320,240
58,42,40560,180
58,53,40800,240
62,44,41040,240
34,36,41280,120
46,43,41280,120
34,33,41520,120
46,39,41520,120
34,36,41760,120
46,43,41760,120
34,33,42000,120
46,39,42000,120
34,39,42240,720
46,47,42240,720
53,45,43200,160
55,40,43360,160
57,40,43520,160
58,45,43680,160
60,41,43840,160
62,40,44000,160
51,52,44160,240
58,41,44400,180
58,52,44640,240
62,40,44880,240
34,36,45120,120
46,43,45120,120
34,33,45360,120
46,39,45360,120
34,36,45600,120
46,43,45600,120
34,33,45840,120
46,39,45840,120
34,39,46080,720
46,47,46080,720
53,46,47040,160
55,47,47200,160
57,48,47360,160
58,53,47520,160
60,49,47680,160
62,48,47840,160
63,51,48000,160
65,44,48160,160
67,44,48320,160
65,51,48480,160
63,45,48640,160
62,45,48800,160
61,48,48960,160
58,39,49120,160
55,39,49280,160
52,41,49440,160
49,39,49600,160
52,40,49760,160
53,42,49920,160
50,38,50080,160
53,38,50240,160
50,42,50400,160
46,38,50560,160
50,38,50720,160
41,38,50880,160
43,39,51040,160
45,41,51200,160
46,43,51360,160
48,45,51520,160
50,46,51680,160
51,48,51840,160
53,50,52000,160
55,51,52160,160
53,53,52320,160
51,49,52480,160
50,51,52640,160
49,48,52800,160
46,46,52960,160
43,45,53120,160
40,43,53280,160
37,39,53440,160
40,36,53600,160
43,50,53760,160
40,36,53920,160
43,36,54080,160
40,37,54240,160
37,37,54400,160
40,38,54560,160
44,52,54720,160
40,38,54880,160
44,39,55040,160
40,39,55200,160
37,40,55360,160
40,40,55520,160
45,55,55680,160
40,41,55840,160
45,42,56000,160
40,42,56160,160
37,43,56320,160
40,43,56480,160
45,57,56640,160
40,44,56800,160
45,45,56960,160
40,45,57120,160
36,45,57280,160
40,46,57440,160
35,62,57600,160
41,50,57760,160
35,51,57920,160
41,52,58080,160
47,53,58240,160
41,54,58400,160
34,69,58560,160
41,56,58720,160
34,58,58880,160
41,59,59040,160
46,61,59200,160
34,62,59360,160
33,73,59520,960
45,86,59520,960
57,43,60480,180
66,51,60480,180
57,39,60720,180
66,46,60720,180
57,43,60960,180
66,51,60960,180
57,39,61200,180
66,46,61200,180
57,47,61440,720
69,56,61440,480
64,37,61920,240
37,49,62160,240
38,53,62400,160
37,49,62560,160
35,53,62720,160
41,56,62880,160
40,51,63040,160
38,38,63200,160
40,43,63360,240
49,47,63360,160
50,41,63520,160
52,41,63680,160
54,47,63840,160
56,42,64000,160
57,42,64160,160
52,44,64640,160
50,50,64800,160
49,53,64960,160
47,56,65120,160
33,65,65280,960
45,77,65280,960
57,43,66240,330
66,51,66240,330
57,39,66600,90
66,46,66600,90
57,43,66720,330
66,51,66720,330
57,39,67080,90
66,46,67080,90
57,47,67200,720
69,56,67200,480
64,37,67680,240
37,49,67920,240
38,53,68160,160
37,49,68320,160
35,53,68480,160
41,56,68640,160
40,51,68800,160
38,38,68960,160
40,43,69120,240
49,47,69120,160
50,41,69280,160
52,41,69440,160
54,47,69600,160
56,42,69760,160
57,42,69920,160
52,44,70400,160
50,50,70560,160
49,53,70720,160
47,56,70880,160
45,57,71040,240
57,41,74880,480
49,35,75360,120
59,41,75840,480
52,35,76320,120
52,33,76740,60
61,41,76800,480
57,34,77280,120
57,33,77700,60
66,45,77760,360
63,36,78120,120
66,43,78240,360
63,35,78600,120
64,41,78720,476
52,35,79204,120
52,33,79620,60
62,41,79680,480
59,35,80160,120
59,33,80580,60
61,41,80640,480
52,34,81120,120
52,33,81540,60
59,45,81600,360
56,36,81960,120
59,43,82080,360
56,35,82440,120
49,41,82560,480
57,41,82560,480
52,35,83044,120
56,41,83520,480
59,41,83520,480
52,35,84004,120
52,41,84480,480
61,41,84480,480
57,35,84960,120
63,45,85440,360
60,38,85440,360
57,36,85800,120
63,43,85920,360
60,36,85920,360
57,35,86280,120
64,41,86400,476
61,41,86400,480
52,35,86884,120
59,41,87360,480
62,41,87360,480
52,35,87844,120
57,41,88320,480
61,41,88320,480
52,35,88800,120
56,38,89280,360
59,45,89280,360
52,36,89640,120
56,36,89760,360
59,43,89760,360
52,35,90120,120
59,69,90240,160
50,53,90400,160
59,53,90560,160
43,71,90720,840
50,48,91560,120
59,48,91560,120
43,62,91680,360
50,53,92040,120
59,71,92160,160
50,53,92320,160
59,53,92480,160
43,68,92640,840
50,48,93480,120
59,48,93480,120
43,62,93600,840
50,45,94440,120
59,53,94440,120
43,62,94560,840
50,45,95400,120
59,53,95400,120
43,62,95520,360
55,53,95880,120
48,71,96000,160
55,53,96160,160
48,53,96320,160
36,69,96480,840
48,48,97320,120
55,48,97320,120
36,62,97440,360
55,53,97800,120
48,62,97920,160
55,53,98080,160
48,53,98240,160
36,62,98400,840
48,48,99240,120
55,48,99240,120
36,62,99360,840
48,45,100200,120
55,53,100200,120
36,62,100320,840
40,41,101160,120
35,45,101280,840
40,33,102120,120
35,37,102240,360
40,32,102600,120
35,34,102720,360
40,29,103080,120
35,31,103200,360
40,27,103560,120
33,31,103680,120
57,38,104800,160
61,40,104960,160
64,42,105120,160
69,41,105280,160
73,38,105440,160
64,42,105600,240
62,34,106080,120
59,28,106080,120
52,28,106080,120
61,34,106560,120
57,28,106560,120
52,28,106560,120
59,34,107040,120
56,28,107040,120
52,28,107040,120
57,31,107520,240
61,37,107520,240
57,38,108640,160
61,40,108800,160
64,42,108960,160
69,41,109120,160
73,38,109280,160
64,42,109440,240
62,34,109920,120
59,28,109920,120
52,28,109920,120
61,34,110400,120
57,28,110400,120
52,28,110400,120
59,34,110880,120
56,28,110880,120
52,28,110880,120
57,41,111360,480
49,35,111840,240
59,40,112320,480
52,33,112800,240
61,42,113280,480
57,34,113760,240
66,40,114240,360
63,30,114600,120
66,37,114720,360
63,34,115080,120
64,41,115200,480
52,35,115680,240
62,40,116160,480
59,33,116640,240
61,42,117120,480
52,34,117600,240
59,40,118080,360
56,30,118440,120
59,37,118560,360
52,34,118920,120
69,43,119040,160
64,36,119200,160
69,36,119360,160
61,42,119520,240
71,44,120000,160
68,38,120160,160
71,38,120320,160
64,44,120480,240
73,49,120960,160
71,41,121120,160
73,41,121280,160
69,49,121440,240
78,49,121920,360
75,37,122280,120
78,46,122400,360
75,43,122760,120
78,54,122880,480
75,44,123360,240
78,42,123840,480
75,34,124320,240
78,42,124800,480
75,41,125280,240
77,40,125760,360
75,30,126120,120
77,37,126240,360
75,34,126600,120
77,42,126720,480
75,34,127200,240
77,42,127680,480
75,33,128160,240
77,40,128640,480
74,32,129120,240
76,39,129600,480
74,31,130080,240
73,37,130560,480
76,29,131040,240
66,36,131520,480
69,25,132000,240
74,28,132000,240
64,34,132480,480
69,25,132960,240
73,27,132960,240
64,33,133440,480
68,22,133920,240
71,26,133920,240
55,74,134400,160
57,42,134560,160
55,42,134720,160
52,48,134880,160
49,41,135040,160
45,41,135200,160
43,60,135360,160
45,36,135520,160
43,36,135680,160
45,44,135840,160
43,37,136000,160
45,37,136160,160
53,73,136320,160
57,42,136480,160
53,42,136640,160
48,48,136800,160
45,41,136960,160
41,41,137120,160
45,62,137280,160
41,36,137440,160
45,36,137600,160
41,44,137760,160
45,37,137920,160
41,37,138080,160
55,73,138240,160
57,42,138400,160
55,42,138560,160
52,48,138720,160
49,41,138880,160
45,41,139040,160
43,60,139200,160
45,36,139360,160
43,36,139520,160
45,44,139680,160
43,37,139840,160
45,37,140000,160
53,74,140160,160
57,42,140320,160
53,42,140480,160
48,48,140640,160
45,41,140800,160
41,41,140960,160
45,62,141120,160
41,36,141280,160
45,36,141440,160
41,44,141600,160
45,37,141760,160
41,37,141920,160
40,35,142080,240
52,37,142080,160
54,32,142240,160
56,32,142400,160
57,37,142560,160
59,33,142720,160
61,33,142880,160
52,35,143520,240
59,35,143520,240
45,33,144000,240
49,33,144000,240
57,40,144006,240
73,44,144480,360
76,44,144480,360
73,39,144840,120
76,39,144840,120
71,44,144960,240
74,44,144960,240
52,40,145440,240
59,40,145440,240
45,38,145920,240
49,38,145920,240
57,45,145920,240
73,44,146400,360
76,44,146400,360
73,39,146760,120
76,39,146760,120
71,44,146880,240
74,44,146880,240
52,40,147360,240
59,40,147360,240
45,38,147840,240
49,38,147840,240
57,45,147840,240
73,44,148320,360
76,44,148320,360
73,39,148680,120
76,39,148680,120
71,44,148800,240
74,44,148800,240
52,35,149280,240
55,74,149760,160
57,42,149920,160
55,42,150080,160
52,48,150240,160
49,41,150400,160
45,41,150560,160
43,60,150720,160
45,36,150880,160
43,36,151040,160
45,44,151200,160
43,37,151360,160
45,37,151520,160
53,73,151680,160
57,42,151840,160
53,42,152000,160
48,48,152160,160
45,41,152320,160
41,41,152480,160
45,62,152640,160
41,36,152800,160
45,36,152960,160
41,44,153120,160
45,37,153280,160
41,37,153440,160
53,73,153600,160
55,42,153760,160
53,42,153920,160
50,48,154080,160
47,41,154240,160
43,41,154400,160
41,62,154560,160
43,36,154720,160
41,36,154880,160
43,44,155040,160
41,37,155200,160
43,37,155360,160
51,73,155520,160
55,42,155680,160
51,42,155840,160
46,48,156000,160
43,41,156160,160
39,41,156320,160
43,62,156480,160
39,36,156640,160
43,36,156800,160
39,44,156960,160
43,37,157120,160
39,37,157280,160
51,73,157440,160
53,42,157600,160
51,42,157760,160
48,48,157920,160
45,41,158080,160
41,41,158240,160
49,73,158400,160
53,42,158560,160
49,42,158720,160
44,48,158880,160
41,41,159040,160
37,41,159200,160
50,73,159360,160
52,42,159520,160
50,42,159680,160
47,48,159840,160
44,41,160000,160
40,41,160160,160
48,73,160320,160
52,42,160480,160
48,42,160640,160
43,48,160800,160
40,41,160960,160
36,41,161120,160
41,73,161280,160
45,42,161440,160
41,42,161600,160
36,48,161760,160
33,41,161920,160
29,41,162080,160
33,55,162240,160
29,32,162400,160
33,32,162560,160
29,39,162720,160
33,33,162880,160
29,33,163040,160
45,45,163200,160
41,29,163360,160
45,29,163520,160
41,34,163680,160
45,28,163840,160
41,28,164000,160
45,38,164160,160
41,25,164320,160
45,25,164480,160
41,30,164640,160
45,24,164800,160
41,24,164960,160
40,35,165120,240
52,37,165120,160
54,32,165280,160
56,32,165440,160
57,37,165600,160
59,33,165760,160
61,33,165920,160
52,35,166560,240
59,35,166560,240
45,33,167040,240
49,33,167040,240
57,40,167046,240
73,44,167520,360
76,44,167520,360
73,39,167880,120
76,39,167880,120
71,44,168000,240
74,44,168000,240
52,40,168480,240
59,40,168480,240
45,38,168960,240
49,38,168960,240
57,45,168960,240
73,44,169440,360
76,44,169440,360
73,39,169800,120
76,39,169800,120
71,44,169920,240
74,44,169920,240
52,40,170400,240
59,40,170400,240
45,38,170880,240
49,38,170880,240
57,45,170880,240
73,44,171360,360
76,44,171360,360
73,39,171720,120
76,39,171720,120
71,44,171840,240
74,44,171840,240
40,32,172320,240
33,36,172800,960
45,33,173760,120
45,28,174000,120
45,33,174240,120
45,28,174480,120
45,36,174720,480
55,37,175200,240
45,43,175680,120
45,38,175920,120
45,45,176160,120
45,42,176400,120
45,55,176640,480
55,51,177120,240
57,57,177600,480
67,53,178080,240
57,66,178560,480
67,63,179040,240
57,74,179520,480
67,73,180000,240
38,64,180480,960
50,75,180480,960
42,45,181440,120
50,53,181440,120
42,40,181680,120
50,48,181680,120
42,45,181920,120
50,53,181920,120
42,40,182160,120
50,48,182160,120
42,49,182400,480
50,58,182400,720
43,45,182880,240
52,54,182880,240
45,45,183360,120
50,45,183360,120
54,53,183360,120
45,40,183600,120
50,40,183600,120
54,48,183600,120
45,45,183840,120
50,45,183840,120
54,53,183840,120
45,40,184080,120
50,40,184080,120
54,48,184080,120
50,49,184320,720
45,49,184320,480
54,58,184320,480
47,45,184800,240
55,54,184800,240
52,46,185040,240
55,54,185280,160
54,47,185440,160
52,48,185600,160
58,54,185760,160
57,49,185920,160
55,49,186080,160
57,54,186240,240
62,42,186720,160
64,35,186880,160
66,35,187040,160
57,43,187200,160
61,36,187360,160
62,36,187520,160
64,43,187680,160
66,37,187840,160
67,37,188000,160
38,64,188160,960
50,75,188160,960
41,45,189120,120
50,53,189120,120
41,40,189360,120
50,48,189360,120
41,45,189600,120
50,53,189600,120
41,40,189840,120
50,48,189840,120
41,49,190080,480
50,58,190080,720
43,45,190560,240
52,54,190560,240
45,45,191040,120
50,45,191040,120
54,53,191040,120
45,40,191280,120
50,40,191280,120
54,48,191280,120
45,45,191520,120
50,45,191520,120
54,53,191520,120
45,40,191760,120
50,40,191760,120
54,48,191760,120
50,49,192000,720
45,49,192000,480
54,58,192000,480
46,45,192480,240
55,54,192480,240
47,45,192960,120
53,45,192960,120
56,53,192960,120
47,40,193200,120
53,40,193200,120
56,48,193200,120
47,45,193440,120
53,45,193440,120
56,53,193440,120
47,40,193680,120
53,40,193680,120
56,48,193680,120
53,49,193920,960
48,49,193920,960
57,58,193920,960
48,43,194880,120
48,36,195120,120
48,43,195360,120
48,37,195600,120
48,43,195840,480
45,43,196320,240
48,43,196793,120
48,36,197033,120
48,43,197273,120
48,37,197513,120
48,43,197760,480
53,38,198720,176
55,34,198880,176
57,31,199040,160
45,42,199200,176
46,36,199360,176
48,34,199520,160
41,43,199680,176
43,37,199840,176
45,34,200000,160
33,46,200160,176
34,40,200320,176
36,37,200480,160
33,53,200640,176
34,43,200800,176
36,40,200960,160
33,59,201120,176
34,50,201280,176
36,41,201440,160
37,70,201600,120
37,35,201844,120
37,35,202080,120
37,35,202320,120
37,46,202560,960
49,44,203520,120
37,37,203520,120
49,35,203760,120
37,29,203764,120
37,29,204000,120
49,35,204000,120
49,35,204240,120
37,29,204240,120
49,55,204480,960
37,46,204480,960
45,61,205440,120
33,51,205440,120
33,39,205680,120
45,48,205680,120
33,39,205920,120
45,48,205920,120
45,49,206160,120
33,39,206160,120
45,68,206400,960
33,58,206400,960
45,78,207360,120
33,64,207360,120
33,51,207600,120
45,62,207600,120
33,52,207840,120
45,64,207840,120
45,67,208080,120
33,55,208080,120
45,94,208320,960
33,79,208320,960
45,73,209280,960
42,73,209280,960
38,73,209280,960
50,86,209280,960
42,43,210240,120
50,51,210240,120
42,39,210480,120
50,46,210480,120
42,43,210720,120
50,51,210720,120
42,39,210960,120
50,46,210960,120
42,47,211200,480
50,56,211200,720
43,43,211680,240
52,52,211680,240
45,53,212160,160
47,48,212320,160
48,48,212480,160
50,53,212640,160
52,49,212800,160
54,48,212960,160
46,53,213120,240
54,49,213360,240
47,53,213600,240
55,48,213840,240
49,43,214080,120
55,43,214080,120
57,51,214080,120
49,39,214320,120
55,39,214320,120
57,46,214320,120
49,43,214560,120
55,43,214560,120
57,51,214560,120
49,39,214800,120
55,39,214800,120
57,46,214800,120
55,47,215040,720
49,47,215040,480
57,56,215040,480
50,43,215520,240
59,52,215520,240
50,53,216000,160
52,48,216160,160
54,48,216320,160
55,53,216480,160
57,49,216640,160
59,48,216800,160
51,53,216960,240
59,49,217200,240
52,53,217440,240
60,48,217680,240
52,43,217920,120
58,43,217920,120
61,51,217920,120
52,39,218160,120
58,39,218160,120
61,46,218160,120
52,43,218400,120
58,43,218400,120
61,51,218400,120
52,39,218640,120
58,39,218640,120
61,46,218640,120
58,47,218880,720
52,47,218880,480
61,56,218880,480
53,43,219360,240
62,52,219360,240
53,53,219840,160
55,48,220000,160
57,48,220160,160
59,53,220320,160
60,49,220480,160
62,48,220640,160
51,53,220800,240
58,42,221040,180
58,53,221280,240
62,44,221520,240
34,36,221760,120
46,43,221760,120
34,33,222000,120
46,39,222000,120
34,36,222240,120
46,43,222240,120
34,33,222480,120
46,39,222480,120
34,39,222720,720
46,47,222720,720
53,45,223680,160
55,40,223840,160
57,40,224000,160
58,45,224160,160
60,41,224320,160
62,40,224480,160
51,55,224640,240
58,41,224880,180
58,51,225120,240
62,40,225360,240
34,36,225600,120
46,43,225600,120
34,33,225840,120
46,39,225840,120
34,36,226080,120
46,43,226080,120
34,33,226320,120
46,39,226320,120
34,39,226560,720
46,47,226560,720
53,43,227520,160
55,43,227680,160
57,44,227840,160
58,45,228000,160
60,46,228160,160
62,47,228320,160
63,48,228480,160
65,44,228640,160
67,44,228800,160
65,51,228960,160
63,45,229120,160
62,45,229280,160
61,48,229440,160
58,39,229600,160
55,39,229760,160
52,41,229920,160
49,39,230080,160
52,40,230240,160
53,42,230400,160
50,38,230560,160
53,38,230720,160
50,42,230880,160
46,38,231040,160
50,38,231200,160
41,38,231360,160
43,39,231520,160
45,41,231680,160
46,43,231840,160
48,45,232000,160
50,46,232160,160
51,48,232320,160
53,50,232480,160
55,51,232640,160
53,53,232800,160
51,49,232960,160
50,51,233120,160
49,48,233280,160
46,46,233440,160
43,45,233600,160
40,43,233760,160
37,39,233920,160
40,36,234080,160
43,50,234240,160
40,36,234400,160
43,36,234560,160
40,37,234720,160
37,37,234880,160
40,38,235040,160
44,52,235200,160
40,38,235360,160
44,39,235520,160
40,39,235680,160
37,40,235840,160
40,40,236000,160
45,55,236160,160
40,41,236320,160
45,42,236480,160
40,42,236640,160
37,43,236800,160
40,43,236960,160
45,57,237120,160
40,44,237280,160
45,45,237440,160
40,45,237600,160
36,45,237760,160
40,46,237920,160
35,62,238080,160
41,50,238240,160
35,51,238400,160
41,52,238560,160
47,53,238720,160
41,54,238880,160
34,69,239040,160
41,56,239200,160
34,58,239360,160
41,59,239520,160
46,61,239680,160
34,62,239840,160
33,73,240000,960
45,86,240000,960
57,43,240960,180
66,51,240960,180
57,39,241200,180
66,46,241200,180
57,43,241440,180
66,51,241440,180
57,39,241680,180
66,46,241680,180
57,47,241920,720
69,56,241920,480
64,37,242400,240
37,49,242640,240
38,53,242880,160
37,49,243040,160
35,53,243200,160
41,56,243360,160
40,51,243520,160
38,38,243680,160
40,43,243840,240
49,47,243840,160
50,41,244000,160
52,41,244160,160
54,47,244320,160
56,42,244480,160
57,42,244640,160
52,44,245120,160
50,50,245280,160
49,53,245440,160
47,56,245600,160
33,65,245760,960
45,77,245760,960
57,43,246720,330
66,51,246720,330
57,39,247080,90
66,46,247080,90
57,43,247200,330
66,51,247200,330
57,39,247560,90
66,46,247560,90
57,47,247680,720
69,56,247680,480
64,37,248160,240
37,49,248400,240
38,53,248640,160
37,49,248800,160
35,53,248960,160
41,56,249120,160
40,51,249280,160
38,38,249440,160
40,43,249600,240
49,47,249600,160
50,41,249760,160
52,41,249920,160
54,47,250080,160
56,42,250240,160
57,42,250400,160
52,44,250880,160
50,50,251040,160
49,53,251200,160
47,56,251360,160
45,50,251520,240
57,41,255360,480
49,35,255840,120
59,41,256320,480
52,35,256800,120
52,33,257220,60
61,41,257280,480
57,34,257760,120
57,33,258180,60
66,45,258240,360
63,36,258600,120
66,43,258720,360
63,35,259080,120
64,41,259200,477
52,35,259684,120
52,33,260100,60
62,41,260160,480
59,35,260640,120
59,33,261060,60
61,41,261120,480
52,34,261600,120
52,33,262020,60
59,45,262080,360
56,36,262440,120
59,43,262560,360
56,35,262920,120
57,41,263040,480
49,41,263040,480
52,35,263524,120
56,41,264000,480
59,41,264000,480
52,35,264484,120
52,41,264960,480
61,41,264960,480
57,35,265440,120
63,45,265920,360
60,38,265920,360
57,36,266280,120
63,43,266400,360
60,36,266400,360
57,35,266760,120
61,41,266880,480
64,41,266880,477
52,35,267364,120
59,41,267840,480
62,41,267840,480
52,35,268324,120
61,41,268800,480
57,41,268800,480
52,35,269280,120
56,38,269760,360
59,45,269760,360
52,36,270120,120
56,36,270240,360
59,43,270240,360
52,35,270600,120
59,69,270720,160
50,53,270880,160
59,53,271040,160
43,71,271200,840
50,48,272040,120
59,48,272040,120
43,62,272160,360
50,53,272520,120
59,71,272640,160
50,53,272800,160
59,53,272960,160
43,68,273120,840
59,48,273960,120
50,48,273960,120
43,62,274080,840
59,53,274920,120
50,45,274920,120
43,62,275040,840
59,53,275880,120
50,45,275880,120
43,62,276000,360
55,53,276360,120
48,71,276480,160
55,53,276640,160
48,53,276800,160
36,69,276960,840
55,48,277800,120
48,48,277800,120
36,62,277920,360
55,53,278280,120
48,62,278400,160
55,53,278560,160
48,53,278720,160
36,62,278880,840
55,48,279720,120
48,48,279720,120
36,62,279840,840
48,45,280680,120
55,53,280680,120
36,62,280800,840
40,41,281640,120
35,45,281760,840
40,33,282600,120
35,37,282720,360
40,32,283080,120
35,34,283200,360
40,29,283560,120
35,31,283680,360
40,27,284040,120
33,31,284160,120
57,38,285280,160
61,40,285440,160
64,42,285600,160
69,41,285760,160
73,38,285920,160
64,42,286080,240
62,34,286560,120
59,28,286560,120
52,28,286560,120
61,34,287040,120
57,28,287040,120
52,28,287040,120
59,34,287520,120
56,28,287520,120
52,28,287520,120
57,31,288000,240
61,37,288000,240
57,38,289120,160
61,40,289280,160
64,42,289440,160
69,41,289600,160
73,38,289760,160
64,42,289920,240
62,34,290400,120
52,28,290400,120
59,28,290400,120
57,28,290880,120
61,34,290880,120
52,28,290880,120
59,34,291360,120
56,28,291360,120
52,28,291360,120
57,41,291840,480
49,35,292320,240
59,40,292800,480
52,33,293280,240
61,42,293760,480
57,34,294240,240
66,40,294720,360
63,30,295080,120
66,37,295200,360
63,34,295560,120
64,41,295680,480
52,35,296160,240
62,40,296640,480
59,33,297120,240
61,42,297600,480
52,34,298080,240
59,40,298560,360
56,30,298920,120
59,37,299040,360
52,34,299400,120
69,43,299520,160
64,36,299680,160
69,36,299840,160
61,42,300000,240
71,44,300480,160
68,38,300640,160
71,38,300800,160
64,44,300960,240
73,49,301440,160
71,41,301600,160
73,41,301760,160
69,49,301920,240
78,49,302400,360
75,37,302760,120
78,46,302880,360
75,43,303240,120
78,54,303360,480
75,44,303840,240
78,42,304320,480
75,34,304800,240
78,42,305280,480
75,41,305760,240
77,40,306240,360
75,30,306600,120
77,37,306720,360
75,34,307080,120
77,42,307200,480
75,34,307680,240
77,42,308160,480
75,33,308640,240
77,40,309120,480
74,32,309600,240
76,39,310080,480
74,31,310560,240
73,37,311040,480
76,29,311520,240
66,36,312000,480
74,28,312480,240
69,25,312480,240
64,34,312960,480
69,25,313440,240
73,27,313440,240
64,33,313920,480
68,22,314400,240
71,26,314400,240
55,74,314880,160
57,42,315040,160
55,42,315200,160
52,48,315360,160
49,41,315520,160
45,41,315680,160
43,60,315840,160
45,36,316000,160
43,36,316160,160
45,44,316320,160
43,37,316480,160
45,37,316640,160
53,73,316800,160
57,42,316960,160
53,42,317120,160
48,48,317280,160
45,41,317440,160
41,41,317600,160
45,62,317760,160
41,36,317920,160
45,36,318080,160
41,44,318240,160
45,37,318400,160
41,37,318560,160
55,73,318720,160
57,42,318880,160
55,42,319040,160
52,48,319200,160
49,41,319360,160
45,41,319520,160
43,60,319680,160
45,36,319840,160
43,36,320000,160
45,44,320160,160
43,37,320320,160
45,37,320480,160
53,74,320640,160
57,42,320800,160
53,42,320960,160
48,48,321120,160
45,41,321280,160
41,41,321440,160
45,62,321600,160
41,36,321760,160
45,36,321920,160
41,44,322080,160
45,37,322240,160
41,37,322400,160
52,37,322560,160
40,35,322560,240
54,32,322720,160
56,32,322880,160
57,37,323040,160
59,33,323200,160
61,33,323360,160
59,35,324000,240
52,35,324000,240
45,33,324480,240
49,33,324480,240
57,40,324486,240
76,44,324960,360
73,44,324960,360
73,39,325320,120
76,39,325320,120
71,44,325440,240
74,44,325440,240
52,40,325920,240
59,40,325920,240
45,38,326400,240
49,38,326400,240
57,45,326400,240
73,44,326880,360
76,44,326880,360
73,39,327240,120
76,39,327240,120
71,44,327360,240
74,44,327360,240
52,40,327840,240
59,40,327840,240
49,38,328320,240
57,45,328320,240
45,38,328320,240
73,44,328800,360
76,44,328800,360
73,39,329160,120
76,39,329160,120
71,44,329280,240
74,44,329280,240
52,35,329760,240
55,74,330240,160
57,42,330400,160
55,42,330560,160
52,48,330720,160
49,41,330880,160
45,41,331040,160
43,60,331200,160
45,36,331360,160
43,36,331520,160
45,44,331680,160
43,37,331840,160
45,37,332000,160
53,73,332160,160
57,42,332320,160
53,42,332480,160
48,48,332640,160
45,41,332800,160
41,41,332960,160
45,62,333120,160
41,36,333280,160
45,36,333440,160
41,44,333600,160
45,37,333760,160
41,37,333920,160
53,73,334080,160
55,42,334240,160
53,42,334400,160
50,48,334560,160
47,41,334720,160
43,41,334880,160
41,62,335040,160
43,36,335200,160
41,36,335360,160
43,44,335520,160
41,37,335680,160
43,37,335840,160
51,73,336000,160
55,42,336160,160
51,42,336320,160
46,48,336480,160
43,41,336640,160
39,41,336800,160
43,62,336960,160
39,36,337120,160
43,36,337280,160
39,44,337440,160
43,37,337600,160
39,37,337760,160
51,73,337920,160
53,42,338080,160
51,42,338240,160
48,48,338400,160
45,41,338560,160
41,41,338720,160
49,73,338880,160
53,42,339040,160
49,42,339200,160
44,48,339360,160
41,41,339520,160
37,41,339680,160
50,73,339840,160
52,42,340000,160
50,42,340160,160
47,48,340320,160
44,41,340480,160
40,41,340640,160
48,73,340800,160
52,42,340960,160
48,42,341120,160
43,48,341280,160
40,41,341440,160
36,41,341600,160
41,73,341760,160
45,42,341920,160
41,42,342080,160
36,48,342240,160
33,41,342400,160
29,41,342560,160
33,55,342720,160
29,32,342880,160
33,32,343040,160
29,39,343200,160
33,33,343360,160
29,33,343520,160
45,45,343680,160
41,29,343840,160
45,29,344000,160
41,34,344160,160
45,28,344320,160
41,28,344480,160
45,38,344640,160
41,25,344800,160
45,25,344960,160
41,30,345120,160
45,24,345280,160
41,24,345440,160
52,37,345600,160
40,35,345600,240
54,32,345760,160
56,32,345920,160
57,37,346080,160
59,33,346240,160
61,33,346400,160
52,35,347040,240
59,35,347040,240
45,33,347520,240
49,33,347520,240
57,40,347526,240
73,44,348000,360
76,44,348000,360
73,39,348360,120
76,39,348360,120
71,44,348480,240
74,44,348480,240
59,40,348960,240
52,40,348960,240
57,45,349440,240
45,38,349440,240
49,38,349440,240
73,44,349920,360
76,44,349920,360
73,39,350280,120
76,39,350280,120
71,44,350400,240
74,44,350400,240
52,40,350880,240
59,40,350880,240
45,38,351360,240
49,38,351360,240
57,45,351360,240
73,44,351840,360
76,44,351840,360
73,39,352200,120
76,39,352200,120
71,44,352320,240
74,44,352320,240
40,32,352800,240
33,36,353280,960
45,33,354240,120
45,28,354480,120
45,33,354720,120
45,28,354960,120
45,36,355200,480
55,37,355680,240
45,43,356160,120
45,38,356400,120
45,45,356640,120
45,42,356880,120
45,55,357120,480
55,51,357600,240
57,57,358080,480
67,53,358560,240
57,70,359040,480
67,68,359520,240
57,74,360000,480
67,73,360480,240
34,76,360960,960
46,90,360960,960
50,54,361920,120
58,63,361920,120
50,48,362160,120
58,57,362160,120
50,54,362400,120
58,63,362400,120
50,48,362640,120
58,57,362640,120
50,58,362880,480
58,69,362880,480
53,54,363360,240
60,64,363360,240
53,58,363840,480
60,69,363840,480
58,54,364320,240
62,64,364320,240
58,58,364800,480
62,69,364800,480
53,54,365280,240
60,64,365280,240
53,54,365760,120
60,63,365760,120
53,48,366000,120
60,57,366000,120
53,54,366240,120
60,63,366240,120
53,48,366480,120
60,57,366480,120
53,58,366720,480
60,69,366720,480
62,54,367200,240
65,64,367200,240
62,58,367680,480
65,69,367680,480
57,54,368160,240
63,64,368160,240
57,58,368640,480
63,69,368640,480
58,54,369120,240
62,64,369120,240
31,54,369600,120
43,63,369600,120
31,48,369840,120
43,57,369840,120
31,54,370080,120
43,63,370080,120
31,48,370320,120
43,57,370320,120
31,58,370560,480
43,69,370560,480
34,54,371040,240
46,64,371040,240
34,55,371520,120
46,65,371520,120
38,51,372000,120
50,60,372000,120
41,58,372480,960
53,69,372480,960
37,51,373440,120
49,59,373440,120
37,45,373680,120
49,54,373680,120
37,51,373920,120
49,59,373920,120
37,45,374160,120
49,54,374160,120
41,55,374400,960
50,55,374400,960
53,65,374400,960
58,55,375360,120
50,55,375360,120
62,65,375360,120
53,51,375840,120
57,51,375840,120
60,60,375840,120
34,69,376320,960
46,82,376320,960
50,54,377280,120
58,63,377280,120
50,48,377520,120
58,57,377520,120
50,54,377760,120
58,63,377760,120
50,48,378000,120
58,57,378000,120
50,58,378240,480
58,69,378240,480
53,54,378720,240
60,64,378720,240
53,58,379200,480
60,69,379200,480
58,54,379680,240
62,64,379680,240
58,58,380160,480
62,69,380160,480
53,54,380640,240
60,64,380640,240
53,54,381120,120
60,63,381120,120
53,48,381360,120
60,57,381360,120
53,54,381600,120
60,63,381600,120
53,48,381840,120
60,57,381840,120
53,58,382080,480
60,69,382080,480
62,54,382560,240
65,64,382560,240
62,58,383040,480
65,69,383040,480
57,54,383520,240
63,64,383520,240
57,58,384000,480
63,69,384000,480
58,54,384480,240
62,64,384480,240
31,63,384960,160
34,58,385120,160
36,58,385280,160
38,63,385440,160
40,59,385600,160
42,59,385760,160
43,69,385920,480
46,64,386400,240
46,65,386880,160
45,61,387040,160
46,61,387200,160
50,65,387360,160
48,61,387520,160
46,61,387680,160
53,69,387840,960
44,51,388800,120
56,59,388800,120
44,45,389040,120
56,54,389040,120
44,51,389280,120
56,59,389280,120
44,45,389520,120
56,54,389520,120
48,55,389760,960
57,55,389760,960
60,65,389760,960
65,55,390720,120
57,55,390720,120
69,65,390720,120
60,51,391200,120
64,51,391200,120
67,60,391200,120
41,76,391680,160
43,46,391840,160
45,46,392000,160
46,54,392160,160
48,46,392320,160
50,46,392480,160
52,55,392640,240
60,55,393120,120
52,46,393120,120
60,50,393360,120
52,42,393360,120
53,46,393600,480
60,55,393600,480
57,53,394080,240
43,46,394560,120
48,55,394560,120
40,43,395040,120
48,51,395040,120
41,76,395520,160
43,46,395680,160
45,46,395840,160
46,54,396000,160
48,46,396160,160
50,46,396320,160
52,55,396480,240
60,55,396960,120
52,46,396960,120
60,50,397200,120
52,42,397200,120
53,46,397440,480
60,55,397440,480
57,53,397920,240
43,46,398400,120
48,55,398400,120
40,43,398880,120
48,51,398880,120
41,46,399360,480
48,55,399360,480
45,51,399840,240
46,43,400320,160
45,39,400480,160
43,39,400640,160
49,44,400800,160
48,39,400960,160
46,39,401120,160
49,44,401280,160
48,39,401440,160
46,39,401600,160
49,49,401760,160
48,44,401920,160
46,48,402080,160
49,55,402240,160
48,46,402400,160
46,42,402560,160
49,49,402720,160
48,39,402880,160
47,39,403040,160
48,37,403200,960
51,37,403200,960
56,44,403200,960
51,34,404160,960
55,34,404160,960
61,41,404160,960
58,34,404160,960
44,52,405120,160
46,34,405280,160
48,34,405440,160
49,40,405600,160
51,34,405760,160
53,34,405920,160
55,41,406080,240
63,41,406560,120
55,34,406560,120
63,37,406800,120
55,31,406800,120
56,34,407040,480
63,41,407040,480
60,39,407520,240
46,34,408000,120
51,41,408000,120
43,32,408480,120
51,38,408480,120
44,52,408960,160
46,34,409120,160
48,34,409280,160
49,40,409440,160
51,34,409600,160
53,34,409760,160
55,41,409920,240
63,41,410400,120
55,34,410400,120
63,37,410640,120
55,31,410640,120
56,34,410880,480
63,41,410880,480
60,39,411360,240
46,34,411840,120
51,41,411840,120
43,32,412320,120
51,38,412320,120
44,34,412800,480
51,41,412800,960
48,38,413280,240
49,32,413760,160
48,29,413920,160
46,29,414080,160
52,33,414240,160
51,29,414400,160
49,29,414560,160
52,33,414720,160
51,29,414880,160
49,29,415040,160
52,36,415200,160
51,33,415360,160
49,36,415520,160
52,41,415680,160
51,34,415840,160
49,31,416000,160
52,36,416160,160
51,29,416320,160
50,29,416480,160
51,44,416640,960
54,44,416640,960
59,52,416640,960
54,51,417600,960
64,60,417600,960
61,51,417600,960
35,63,418560,160
34,52,418720,160
35,56,418880,160
38,63,419040,160
37,53,419200,160
35,53,419360,160
40,63,419520,160
38,52,419680,160
37,52,419840,160
42,63,420000,160
40,55,420160,160
38,55,420320,160
47,63,420480,160
46,55,420640,160
47,55,420800,160
50,63,420960,160
49,56,421120,160
47,56,421280,160
52,63,421440,160
50,56,421600,160
49,56,421760,160
55,63,421920,160
54,56,422080,160
52,56,422240,160
59,70,422400,160
58,56,422560,160
59,56,422720,160
61,60,422880,160
62,56,423040,160
64,52,423200,160
62,58,423360,120
54,58,423360,120
66,69,423360,120
62,52,423600,120
54,52,423600,120
66,64,423600,120
62,58,423840,120
54,58,423840,120
66,69,423840,120
62,52,424080,120
54,52,424080,120
66,63,424080,120
54,64,424320,720
62,64,424320,480
66,75,424320,480
59,55,424800,240
62,65,424800,240
54,60,425280,120
59,60,425280,120
61,72,425280,120
54,50,425760,120
58,50,425760,120
66,62,425760,120
35,68,426240,160
34,48,426400,160
35,51,426560,160
38,68,426720,160
37,49,426880,160
35,49,427040,160
40,67,427200,160
38,48,427360,160
37,48,427520,160
43,67,427675,160
42,50,427840,160
40,50,428000,160
38,60,428160,160
37,45,428320,160
38,45,428480,160
42,61,428640,160
40,45,428800,160
38,45,428960,160
43,61,429120,160
42,45,429280,160
40,45,429440,160
46,62,429600,160
45,45,429760,160
43,45,429920,160
45,60,430080,160
44,45,430240,160
45,45,430400,160
42,61,430560,160
41,45,430720,160
42,45,430880,160
39,61,431040,160
38,45,431200,160
39,45,431360,160
36,62,431520,160
35,45,431680,160
36,45,431840,160
33,70,432000,240
32,62,432480,160
31,57,432640,160
32,57,432800,150
32,62,432960,160
31,57,433120,160
32,57,433280,150
32,62,433440,160
31,57,433600,160
32,58,433760,150
37,63,433920,160
36,52,434080,160
37,56,434240,160
40,63,434400,160
39,53,434560,160
37,53,434720,160
42,70,434880,160
40,52,435040,160
39,56,435200,160
44,69,435360,160
42,58,435520,160
40,59,435680,160
49,74,435840,160
48,55,436000,160
49,55,436160,160
52,63,436320,160
51,56,436480,160
49,56,436640,160
54,69,436800,160
52,56,436960,160
51,56,437120,160
57,63,437280,160
56,56,437440,160
54,56,437600,160
61,75,437760,160
60,56,437920,160
61,56,438080,160
63,60,438240,160
64,56,438400,160
66,52,438560,160
64,58,438720,120
56,58,438720,120
68,69,438720,120
64,52,438960,120
56,52,438960,120
68,64,438960,120
64,58,439200,120
56,58,439200,120
68,69,439200,120
64,52,439440,120
56,52,439440,120
68,63,439440,120
56,64,439680,720
64,64,439680,480
68,75,439680,480
61,55,440160,240
64,65,440160,240
56,60,440640,120
61,60,440640,120
63,72,440640,120
56,50,441120,120
60,50,441120,120
68,62,441120,120
37,68,441600,160
36,48,441760,160
37,51,441920,160
40,68,442080,160
39,49,442240,160
37,49,442400,160
42,67,442560,160
40,48,442720,160
39,48,442880,160
45,67,443046,160
44,50,443200,160
42,50,443360,160
40,60,443520,160
39,45,443680,160
40,45,443840,160
44,61,444000,160
42,45,444160,160
40,45,444320,160
45,61,444480,160
44,45,444640,160
42,45,444800,160
48,62,444960,160
47,45,445120,160
45,45,445280,160
47,60,445440,160
46,45,445600,160
47,45,445760,160
44,61,445920,160
43,45,446080,160
44,45,446240,160
41,61,446400,160
40,49,446560,160
41,49,446720,160
38,62,446880,160
37,45,447040,160
38,51,447200,160
35,71,447360,240
34,62,447840,160
33,57,448000,160
34,57,448160,150
34,62,448320,160
33,57,448480,160
34,57,448640,150
34,62,448800,160
33,57,448960,160
34,58,449120,150
39,71,449280,240
45,70,449760,160
47,57,449920,160
45,57,450080,150
43,62,450240,160
45,57,450400,160
43,57,450560,150
42,62,450720,160
43,57,450880,160
42,58,451040,150
40,71,451200,240
36,71,451680,160
35,57,451840,160
36,57,452000,150
36,62,452160,160
35,57,452320,160
36,57,452480,150
36,62,452640,160
35,57,452800,160
36,58,452960,150
29,71,453120,240
47,62,453600,160
49,55,453760,160
47,54,453920,150
45,57,454080,160
47,50,454240,160
45,49,454400,150
44,52,454560,160
45,46,454720,160
44,45,454880,150
45,42,455040,3830
42,42,455040,3830
50,53,455040,3830
43,42,458880,3830
50,42,458880,3830
47,42,458880,3830
52,53,458880,3830
45,42,462720,3830
50,42,462720,3830
48,42,462720,3830
54,53,462720,3830
50,42,466560,2880
47,42,466560,2880
55,53,466560,2880
46,45,469440,960
50,45,469440,960
56,53,469440,960
45,31,470400,480
49,31,470400,480
57,37,470400,480
62,31,471360,120
64,37,471360,120
62,27,471600,120
64,32,471600,120
62,31,471840,120
64,37,471840,120
64,32,472080,120
62,27,472080,120
61,31,472320,480
64,37,472320,720
57,33,472800,240
35,31,473280,120
40,37,473280,120
35,27,473520,120
40,32,473520,120
32,31,473760,120
40,37,473760,120
40,32,474000,120
32,27,474000,120
33,31,474240,480
40,37,474240,720
45,33,474720,240
62,31,475200,120
64,37,475200,120
62,27,475440,120
64,32,475440,120
62,31,475680,120
64,37,475680,120
64,32,475920,120
62,27,475920,120
61,31,476160,480
64,37,476160,720
57,33,476640,240
35,31,477120,120
40,37,477120,120
35,27,477360,120
40,32,477360,120
32,31,477600,120
40,37,477600,120
40,32,477840,120
32,27,477840,120
33,31,478080,480
40,37,478080,720
45,33,478560,240
57,31,479040,120
61,38,479040,120
57,28,479280,120
61,33,479280,120
57,32,479520,120
61,38,479520,120
61,33,479760,120
57,28,479760,120
57,33,480000,480
61,39,480000,720
67,35,480480,240
40,34,480960,120
45,41,480960,120
40,30,481200,120
45,35,481200,120
40,35,481440,120
45,41,481440,120
45,36,481680,120
40,30,481680,120
40,35,481920,480
45,42,481920,480
33,38,482400,240
57,36,482880,120
61,43,482880,120
57,32,483120,120
61,38,483120,120
57,37,483360,120
61,44,483360,120
61,38,483600,120
57,32,483600,120
57,37,483840,480
61,45,483840,720
67,40,484320,240
40,39,484800,120
45,46,484800,120
40,34,485040,120
45,40,485040,120
40,39,485280,120
45,47,485280,120
45,41,485520,120
40,34,485520,120
40,56,485760,480
45,56,485760,480
33,46,486240,240
49,63,486720,480
33,62,487200,240
52,69,487680,480
49,62,488160,240
61,73,488640,480
57,61,489120,240
64,75,489600,480
57,65,490080,240
67,74,490560,480
64,67,491040,240
38,73,491520,960
50,86,491520,960
42,49,492480,120
50,58,492480,120
42,44,492720,120
50,52,492720,120
42,49,492960,120
50,58,492960,120
42,44,493200,120
50,52,493200,120
42,53,493440,480
50,63,493440,720
43,49,493920,240
52,59,493920,240
45,49,494400,120
50,49,494400,120
54,58,494400,120
45,44,494640,120
50,44,494640,120
54,52,494640,120
45,49,494880,120
50,49,494880,120
54,58,494880,120
45,44,495120,120
50,44,495120,120
54,52,495120,120
50,53,495360,720
45,53,495360,480
54,63,495360,480
47,49,495840,240
55,59,495840,240
52,46,496080,240
55,54,496320,160
54,47,496480,160
52,48,496640,160
58,54,496800,160
57,49,496960,160
55,49,497120,160
57,54,497280,240
62,42,497760,160
64,35,497920,160
66,35,498080,160
57,43,498240,160
61,36,498400,160
62,36,498560,160
64,43,498720,160
66,37,498880,160
67,37,499040,160
45,73,499200,960
42,73,499200,960
38,73,499200,960
50,86,499200,960
42,43,500160,120
50,51,500160,120
42,39,500400,120
50,46,500400,120
42,43,500640,120
50,51,500640,120
42,39,500880,120
50,46,500880,120
42,47,501120,480
50,56,501120,720
43,43,501600,240
52,52,501600,240
45,53,502080,160
47,48,502240,160
48,48,502400,160
50,53,502560,160
52,49,502720,160
54,48,502880,160
46,53,503040,240
54,49,503280,240
47,53,503520,240
55,48,503760,240
49,43,504000,120
55,43,504000,120
57,51,504000,120
49,39,504240,120
55,39,504240,120
57,46,504240,120
49,43,504480,120
55,43,504480,120
57,51,504480,120
49,39,504720,120
55,39,504720,120
57,46,504720,120
55,47,504960,720
49,47,504960,480
57,56,504960,480
50,43,505440,240
59,52,505440,240
50,53,505920,160
52,48,506080,160
54,48,506240,160
55,53,506400,160
57,49,506560,160
59,48,506720,160
51,53,506880,240
59,49,507120,240
52,53,507360,240
60,48,507600,240
52,43,507840,120
58,43,507840,120
61,51,507840,120
52,39,508080,120
58,39,508080,120
61,46,508080,120
52,43,508320,120
58,43,508320,120
61,51,508320,120
52,39,508560,120
58,39,508560,120
61,46,508560,120
58,47,508800,720
52,47,508800,480
61,56,508800,480
53,43,509280,240
62,52,509280,240
53,53,509760,160
55,48,509920,160
57,48,510080,160
59,53,510240,160
60,49,510400,160
62,48,510560,160
51,53,510720,240
63,42,510960,240
58,53,511200,240
62,44,511440,240
34,36,511680,120
46,43,511680,120
34,33,511920,120
46,39,511920,120
34,36,512160,120
46,43,512160,120
34,33,512400,120
46,39,512400,120
34,39,512640,720
46,47,512640,720
53,45,513600,160
55,40,513760,160
57,40,513920,160
58,45,514080,160
60,41,514240,160
62,40,514400,160
51,45,514560,240
58,41,514800,180
58,45,515040,240
62,40,515280,240
34,36,515520,120
46,43,515520,120
34,33,515760,120
46,39,515760,120
34,36,516000,120
46,43,516000,120
34,33,516240,120
46,39,516240,120
34,39,516480,720
46,47,516480,720
53,43,517440,160
55,44,517600,160
57,45,517760,160
58,46,517920,160
60,47,518080,160
62,48,518240,160
63,51,518400,160
65,44,518560,160
67,44,518720,160
65,51,518880,160
63,45,519040,160
62,45,519200,160
61,48,519360,160
58,39,519520,160
55,39,519680,160
52,41,519840,160
49,39,520000,160
52,40,520160,160
53,42,520320,160
50,38,520480,160
53,38,520640,160
50,42,520800,160
46,38,520960,160
50,38,521120,160
41,38,521280,160
43,39,521440,160
45,41,521600,160
46,43,521760,160
48,45,521920,160
50,46,522080,160
51,48,522240,160
53,50,522400,160
55,51,522560,160
53,53,522720,160
51,49,522880,160
50,51,523040,160
49,48,523200,160
46,46,523360,160
43,45,523520,160
40,43,523680,160
37,39,523840,160
40,36,524000,160
43,50,524160,160
40,36,524320,160
43,36,524480,160
40,37,524640,160
37,37,524800,160
40,38,524960,160
44,52,525120,160
40,38,525280,160
44,39,525440,160
40,39,525600,160
37,40,525760,160
40,40,525920,160
45,55,526080,160
40,41,526240,160
45,42,526400,160
40,42,526560,160
37,43,526720,160
40,43,526880,160
45,57,527040,160
40,44,527200,160
45,45,527360,160
40,45,527520,160
36,45,527680,160
40,46,527840,160
35,62,528000,160
41,50,528160,160
35,51,528320,160
41,52,528480,160
47,53,528640,160
41,54,528800,160
34,69,528960,160
41,56,529120,160
34,58,529280,160
41,59,529440,160
46,61,529600,160
34,62,529760,160
33,73,529920,960
45,86,529920,960
57,43,530880,180
66,51,530880,180
57,39,531120,180
66,46,531120,180
57,43,531360,180
66,51,531360,180
57,39,531600,180
66,46,531600,180
57,47,531840,720
69,56,531840,480
64,37,532320,240
37,49,532560,240
38,53,532800,160
37,49,532960,160
35,53,533120,160
41,56,533280,160
40,51,533440,160
38,38,533600,160
40,43,533760,240
49,47,533760,160
50,41,533920,160
52,41,534080,160
54,47,534240,160
56,42,534400,160
57,42,534560,160
52,44,535040,160
50,50,535200,160
49,53,535360,160
47,56,535520,160
33,65,535680,960
45,77,535680,960
57,43,536640,330
66,51,536640,330
57,39,537000,90
66,46,537000,90
57,43,537120,330
66,51,537120,330
57,39,537480,90
66,46,537480,90
57,47,537600,720
69,56,537600,480
64,37,538080,240
37,49,538320,240
38,53,538560,160
37,49,538720,160
35,53,538880,160
41,56,539040,160
40,51,539200,160
38,38,539360,160
40,43,539520,240
49,47,539520,160
50,41,539680,160
52,41,539840,160
54,47,540000,160
56,42,540160,160
57,42,540320,160
52,44,540800,160
50,50,540960,160
49,53,541120,160
47,56,541280,160
45,50,541440,240
62,41,545280,480
54,35,545760,120
64,41,546240,480
57,35,546720,120
57,33,547140,60
66,41,547200,480
62,34,547680,120
62,33,548100,60
71,45,548160,360
68,36,548520,120
71,43,548640,360
68,35,549000,120
69,41,549120,477
57,35,549604,120
57,33,550020,60
67,41,550080,480
64,35,550560,120
64,33,550980,60
66,41,551040,480
57,34,551520,120
57,33,551940,60
64,45,552000,360
61,36,552360,120
64,43,552480,360
61,35,552840,120
54,41,552960,480
62,41,552960,480
57,35,553444,120
61,41,553920,480
64,41,553920,480
57,35,554404,120
57,41,554880,480
66,41,554880,480
62,35,555360,120
68,45,555840,360
65,38,555840,360
62,36,556200,120
68,43,556320,360
65,36,556320,360
62,35,556680,120
69,41,556800,477
66,41,556800,480
57,35,557284,120
64,41,557760,480
67,41,557760,480
57,35,558244,120
62,41,558720,480
66,41,558720,480
57,35,559200,120
61,38,559680,360
64,45,559680,360
57,36,560040,120
61,36,560160,360
64,43,560160,360
57,35,560520,120
64,69,560640,160
55,53,560800,160
64,53,560960,160
48,71,561120,840
55,48,561960,120
64,48,561960,120
48,62,562080,360
55,53,562440,120
64,71,562560,160
55,53,562720,160
64,53,562880,160
48,68,563040,840
55,48,563880,120
64,48,563880,120
48,62,564000,840
55,45,564840,120
64,53,564840,120
48,62,564960,840
55,45,565800,120
64,53,565800,120
48,62,565920,360
60,53,566280,120
53,71,566400,160
60,53,566560,160
53,53,566720,160
41,69,566880,840
53,48,567720,120
60,48,567720,120
41,62,567840,360
60,53,568200,120
53,62,568320,160
60,53,568480,160
53,53,568640,160
41,62,568800,840
53,48,569640,120
60,48,569640,120
41,62,569760,840
53,45,570600,120
60,53,570600,120
41,62,570720,840
45,41,571560,120
40,45,571680,840
45,33,572520,120
40,37,572640,360
45,32,573000,120
40,34,573120,360
45,29,573480,120
40,31,573600,360
45,27,573960,120
38,31,574080,120
62,38,575200,160
66,40,575360,160
69,42,575520,160
74,41,575680,160
78,38,575840,160
69,42,576000,240
67,34,576480,120
64,28,576480,120
57,28,576480,120
66,34,576960,120
62,28,576960,120
57,28,576960,120
64,34,577440,120
61,28,577440,120
57,28,577440,120
50,31,577920,240
54,31,577920,240
62,37,577920,240
62,38,579040,160
66,40,579200,160
69,42,579360,160
74,41,579520,160
78,38,579680,160
69,42,579840,240
67,34,580320,120
64,28,580320,120
57,28,580320,120
66,34,580800,120
62,28,580800,120
57,28,580800,120
64,34,581280,120
61,28,581280,120
57,28,581280,120
62,41,581760,480
54,35,582240,240
64,40,582720,480
57,33,583200,240
66,42,583680,480
62,34,584160,240
71,40,584640,360
68,30,585000,120
71,37,585120,360
68,34,585480,120
69,41,585600,480
57,35,586080,240
67,40,586560,480
64,33,587040,240
66,42,587520,480
57,34,588000,240
64,40,588480,360
61,30,588840,120
64,37,588960,360
57,34,589320,120
74,41,589440,480
66,35,589920,240
76,46,590400,480
69,39,590880,240
78,46,591360,480
74,43,591840,240
83,53,592320,360
80,39,592680,120
83,51,592800,360
80,40,593160,120
83,53,593280,480
80,44,593760,240
83,51,594240,480
80,37,594720,240
83,52,595200,480
80,41,595680,240
82,46,596160,360
80,30,596520,120
82,42,596640,360
80,34,597000,120
82,48,597120,480
80,34,597600,240
82,42,598080,480
80,33,598560,240
82,40,599040,480
79,32,599520,240
81,39,600000,480
79,31,600480,240
78,37,600960,480
81,29,601440,240
71,36,601920,480
74,25,602400,240
79,28,602400,240
69,34,602880,480
74,25,603360,240
78,27,603360,240
69,33,603840,480
73,22,604320,240
76,26,604320,240
60,74,604800,160
62,42,604960,160
60,42,605120,160
57,48,605280,160
54,41,605440,160
50,41,605600,160
48,60,605760,160
50,36,605920,160
48,36,606080,160
50,44,606240,160
48,37,606400,160
50,37,606560,160
58,73,606720,160
62,42,606880,160
60,42,607040,160
58,48,607200,160
53,41,607360,160
50,41,607520,160
46,62,607680,160
50,36,607840,160
46,36,608000,160
50,44,608160,160
46,37,608320,160
50,37,608480,160
60,73,608640,160
62,42,608800,160
60,42,608960,160
57,48,609120,160
54,41,609280,160
50,41,609440,160
48,60,609600,160
50,36,609760,160
48,36,609920,160
50,44,610080,160
48,37,610240,160
50,37,610400,160
58,74,610560,160
62,42,610720,160
60,42,610880,160
58,48,611040,160
53,41,611200,160
50,41,611360,160
46,62,611520,160
50,36,611680,160
46,36,611840,160
50,44,612000,160
46,37,612160,160
50,37,612320,160
45,35,612480,240
57,37,612480,160
59,32,612640,160
61,32,612800,160
62,37,612960,160
64,33,613120,160
66,33,613280,160
64,35,613920,240
57,35,613920,240
54,33,614400,240
50,33,614400,240
62,40,614406,240
78,44,614880,360
81,44,614880,360
78,39,615240,120
81,39,615240,120
76,44,615360,240
79,44,615360,240
57,40,615840,240
64,40,615840,240
50,38,616320,240
54,38,616320,240
62,45,616320,240
78,44,616800,360
81,44,616800,360
78,39,617160,120
81,39,617160,120
79,44,617280,240
76,44,617280,240
57,40,617760,240
64,40,617760,240
54,38,618240,240
50,38,618240,240
62,45,618240,240
78,44,618720,360
81,44,618720,360
78,39,619080,120
81,39,619080,120
76,44,619200,240
79,44,619200,240
57,35,619680,240
60,74,620160,160
62,42,620320,160
60,42,620480,160
57,48,620640,160
54,41,620800,160
50,41,620960,160
48,60,621120,160
50,36,621280,160
48,36,621440,160
50,44,621600,160
48,37,621760,160
50,37,621920,160
58,73,622080,160
62,42,622240,160
60,42,622400,160
58,48,622560,160
53,41,622720,160
50,41,622880,160
46,62,623040,160
50,36,623200,160
46,36,623360,160
50,44,623520,160
46,37,623680,160
50,37,623840,160
58,73,624000,160
60,42,624160,160
58,42,624320,160
55,48,624480,160
52,41,624640,160
48,41,624800,160
46,62,624960,160
48,36,625120,160
46,36,625280,160
48,44,625440,160
46,37,625600,160
48,37,625760,160
56,73,625920,160
60,42,626080,160
58,42,626240,160
56,48,626400,160
51,41,626560,160
48,41,626720,160
44,62,626880,160
48,36,627040,160
44,36,627200,160
48,44,627360,160
44,37,627520,160
48,37,627680,160
56,73,627840,160
58,42,628000,160
56,42,628160,160
53,48,628320,160
50,41,628480,160
46,41,628640,160
54,73,628800,160
58,42,628960,160
54,42,629120,160
49,48,629280,160
46,41,629440,160
42,41,629600,160
55,73,629760,160
57,42,629920,160
55,42,630080,160
52,48,630240,160
49,41,630400,160
45,41,630560,160
53,73,630720,160
57,42,630880,160
53,42,631040,160
48,48,631200,160
45,41,631360,160
41,41,631520,160
46,73,631680,160
50,42,631840,160
46,42,632000,160
41,48,632160,160
38,41,632320,160
34,41,632480,160
38,55,632640,160
34,32,632800,160
38,32,632960,160
34,39,633120,160
38,33,633280,160
34,33,633440,160
38,45,633600,160
34,29,633760,160
38,29,633920,160
34,34,634080,160
38,28,634240,160
34,28,634400,160
38,38,634560,160
34,25,634720,160
38,25,634880,160
34,30,635040,160
38,24,635200,160
34,24,635360,160
33,35,635520,240
45,37,635520,160
47,32,635680,160
49,32,635840,160
50,37,636000,160
52,33,636160,160
54,33,636320,160
52,35,636960,240
45,35,636960,240
54,40,637440,240
50,33,637440,240
69,44,637920,360
66,44,637920,360
69,39,638280,120
66,39,638280,120
67,44,638400,240
64,44,638400,240
45,40,638880,240
52,40,638880,240
54,38,639360,240
50,38,639360,240
69,44,639840,360
66,44,639840,360
69,39,640200,120
66,39,640200,120
64,44,640320,240
67,44,640320,240
57,40,640800,240
64,40,640800,240
54,38,641280,240
50,38,641280,240
66,44,641760,360
69,44,641760,360
66,39,642120,120
69,39,642120,120
64,44,642240,240
67,44,642240,240
52,40,642720,240
45,32,642720,240
50,61,643200,960
38,51,643200,960
54,55,644160,120
50,46,644160,120
54,45,644400,120
50,37,644400,120
54,57,644640,120
50,47,644640,120
54,45,644880,120
50,37,644880,120
54,61,645120,480
50,51,645120,480
54,45,645600,240
62,52,645600,240
62,65,646080,120
54,55,646080,120
62,55,646320,120
54,46,646320,120
62,66,646560,120
54,56,646560,120
62,58,646800,120
54,48,646800,120
62,76,647040,480
50,63,647040,480
66,66,647520,240
62,56,647520,240
66,80,648000,120
62,67,648000,120
66,70,648240,120
62,58,648240,120
66,82,648480,120
62,70,648480,120
66,73,648720,120
62,62,648720,120
66,85,648960,480
62,71,648960,480
69,76,649440,240
66,63,649440,240
69,85,649920,120
66,71,649920,120
69,76,650160,120
66,63,650160,120
69,87,650400,120
66,73,650400,120
69,80,650640,120
66,67,650640,120
38,73,650880,960
50,86,650880,960
54,58,651840,120
62,69,651840,120
54,52,652080,120
62,63,652080,120
54,58,652320,120
62,69,652320,120
54,52,652560,120
62,63,652560,120
54,64,652800,480
62,75,652800,480
57,58,653280,240
64,71,653280,240
57,64,653760,480
64,75,653760,480
62,58,654240,240
66,71,654240,240
62,64,654720,480
66,75,654720,480
57,58,655200,240
64,71,655200,240
57,58,655680,120
64,69,655680,120
57,52,655920,120
64,63,655920,120
57,58,656160,120
64,69,656160,120
57,52,656400,120
64,63,656400,120
57,64,656640,480
64,75,656640,480
66,58,657120,240
69,71,657120,240
66,64,657600,480
69,75,657600,480
61,58,658080,240
67,71,658080,240
61,64,658560,480
67,75,658560,480
62,58,659040,240
66,71,659040,240
35,58,659520,120
47,69,659520,120
35,52,659760,120
47,63,659760,120
35,58,660000,120
47,69,660000,120
35,52,660240,120
47,63,660240,120
35,64,660480,480
47,75,660480,480
38,58,660960,240
50,71,660960,240
38,56,661440,120
50,66,661440,120
42,51,661920,120
54,62,661920,120
45,56,662400,960
57,66,662400,960
41,58,663360,120
53,69,663360,120
41,52,663600,120
53,63,663600,120
41,58,663840,120
53,69,663840,120
41,52,664080,120
53,63,664080,120
45,64,664320,960
54,64,664320,960
57,75,664320,960
62,56,665280,120
57,56,665280,120
66,66,665280,120
61,51,665760,120
57,51,665760,120
64,62,665760,120
50,56,666240,480
54,56,666240,480
57,56,666240,480
62,66,666240,480
41,58,666720,720
53,69,666720,720
41,52,667440,120
53,63,667440,120
41,58,667680,120
53,69,667680,120
41,52,667920,120
53,63,667920,120
45,64,668160,960
54,64,668160,960
57,75,668160,960
62,56,669120,120
57,56,669120,120
66,66,669120,120
61,51,669600,120
57,51,669600,120
64,62,669600,120
50,56,670080,480
54,56,670080,480
57,56,670080,480
62,66,670080,480
34,58,670560,720
46,69,670560,720
34,52,671280,120
46,63,671280,120
34,58,671520,120
46,69,671520,120
34,52,671760,120
46,63,671760,120
45,64,672000,960
54,64,672000,960
57,75,672000,960
62,56,672960,120
57,56,672960,120
66,66,672960,120
61,51,673440,120
57,51,673440,120
64,62,673440,120
57,67,673920,720
66,73,673920,480
69,88,673920,480
62,57,674400,240
66,68,674400,240
57,62,674880,120
62,62,674880,120
66,73,674880,120
57,54,675360,120
61,54,675360,120
64,63,675360,120
57,67,675840,720
66,73,675840,480
69,88,675840,480
62,57,676320,240
66,68,676320,240
57,62,676800,120
62,62,676800,120
66,73,676800,120
57,54,677280,120
61,54,677280,120
64,63,677280,120
57,67,677760,720
66,73,677760,480
69,88,677760,480
62,57,678240,240
66,68,678240,240
57,62,678720,120
62,62,678720,120
66,73,678720,120
57,54,679200,120
61,54,679200,120
64,63,679200,120
50,71,679680,120
54,71,679680,120
62,83,679680,120
40,42,680000,160
42,46,680160,160
40,42,680320,160
38,43,680480,160
43,48,680640,160
42,44,680800,160
40,45,680960,160
45,50,681120,160
43,46,681280,160
42,46,681440,160
47,52,681600,160
45,48,681760,160
43,48,681920,160
49,55,682080,160
47,51,682240,160
45,52,682400,160
50,58,682560,160
49,53,682720,160
47,55,682880,160
52,62,683040,160
50,56,683200,160
49,57,683360,160
42,73,683520,960
54,73,683520,960
33,80,685440,960
45,80,685440,960
38,68,687360,720
50,80,687360,720
38,72,688080,240
42,80,688320,160
40,73,688480,160
38,73,688640,160
45,80,688800,160
43,73,688960,160
42,73,689120,160
50,88,689280,240
50,74,690240,240
54,74,690240,240
57,74,690240,240
62,88,690240,240
45,80,691200,960
38,80,691200,960
50,80,691200,960
