note,velocity,position,duration
81,56,960,480
69,45,960,480
70,48,1440,480
82,59,1440,480
76,51,1920,480
88,63,1920,480
79,54,2400,480
91,67,2400,480
91,69,2880,960
79,56,2880,960
68,51,3840,480
80,63,3840,480
81,69,4320,480
69,56,4320,480
72,51,4800,480
84,63,4800,480
89,68,5280,480
77,55,5280,480
77,55,5760,960
89,68,5760,960
78,56,6720,480
66,45,6720,480
67,48,7200,480
79,59,7200,480
70,51,7680,480
82,63,7680,480
74,54,8160,480
86,67,8160,480
86,69,8640,960
74,56,8640,960
64,51,9600,480
76,63,9600,480
77,69,10080,480
65,56,10080,480
69,47,10560,480
81,58,10560,480
84,58,11040,480
72,47,11040,480
72,44,11520,960
84,54,11520,960
69,38,12420,480
81,45,12480,480
70,40,12900,480
82,48,12960,480
76,43,13380,480
88,51,13440,480
79,45,13860,480
91,54,13920,480
79,47,14340,1020
91,56,14400,960
68,43,15360,480
80,51,15360,480
81,53,15840,480
69,44,15840,480
72,43,16320,480
84,51,16320,480
89,55,16800,480
77,46,16800,480
77,46,17280,960
89,55,17280,960
78,45,18240,480
66,38,18240,480
67,40,18720,480
79,48,18720,480
70,43,19200,480
82,51,19200,480
74,45,19680,480
86,54,19680,480
86,56,20160,960
74,47,20160,960
64,43,21120,480
76,51,21120,480
77,56,21600,480
65,47,21600,480
69,39,22080,480
81,47,22080,480
84,47,22560,480
72,39,22560,480
72,37,23040,960
84,44,23040,960
79,53,24000,480
91,66,24000,480
91,72,24480,480
79,58,24480,480
76,53,24960,480
88,66,24960,480
82,68,25440,480
70,55,25440,480
69,55,25920,960
81,69,25920,960
81,55,26880,480
93,69,26880,480
93,75,27360,480
81,60,27360,480
77,55,27840,480
89,69,27840,480
86,74,28320,480
74,59,28320,480
72,57,28800,960
84,72,28800,960
84,57,29760,480
96,72,29760,480
96,79,30240,480
84,64,30240,480
81,60,30720,480
93,75,30720,480
89,77,31200,480
77,63,31200,480
74,67,31680,960
86,83,31680,960
86,55,32640,480
98,68,32640,480
98,73,33120,480
86,59,33120,480
82,52,33600,480
94,65,33600,480
91,69,34080,480
79,55,34080,480
77,52,34560,960
89,65,34560,960
79,44,35460,480
91,49,35520,480
79,43,35940,480
91,54,36000,480
76,39,36420,480
88,49,36480,480
70,43,36900,480
82,53,36960,480
69,43,37380,1020
81,53,37440,960
81,44,38400,480
93,55,38400,480
93,60,38880,480
81,48,38880,480
77,45,39360,480
89,56,39360,480
86,61,39840,480
74,50,39840,480
72,50,40320,960
84,62,40320,960
84,50,41280,480
96,62,41280,480
96,69,41760,480
84,56,41760,480
81,52,42240,480
93,66,42240,480
89,67,42720,480
77,55,42720,480
74,60,43200,960
86,74,43200,960
86,48,44160,480
98,60,44160,480
98,64,44640,480
86,52,44640,480
82,43,45120,480
94,54,45120,480
91,54,45600,480
79,43,45600,480
77,40,46080,480
89,50,46080,480
57,28,46620,420
60,28,46650,360
65,34,46680,360
57,69,48720,240
51,58,48720,240
48,58,48720,240
48,64,48960,240
52,64,48960,240
58,75,48960,240
60,59,49200,240
69,71,49200,240
63,59,49200,240
64,64,49440,240
60,64,49440,240
70,76,49440,240
75,60,49680,240
72,60,49680,240
81,72,49680,240
76,65,49920,240
82,77,49920,240
72,65,49920,240
93,74,50160,240
84,63,50160,240
87,63,50160,240
84,66,50400,120
94,73,50520,120
91,64,50640,120
96,75,50640,240
88,73,50760,120
84,75,50880,120
82,74,51000,120
79,72,51120,120
76,71,51240,120
72,69,51360,240
50,58,51600,240
53,58,51600,240
59,69,51600,240
48,64,51840,240
60,75,51840,240
53,64,51840,240
65,59,52080,240
62,59,52080,240
71,71,52080,240
65,64,52320,240
60,64,52320,240
72,76,52320,240
77,60,52560,240
83,72,52560,240
74,60,52560,240
84,77,52800,240
72,65,52800,240
77,65,52800,240
95,74,53040,240
86,63,53040,240
89,63,53040,240
84,66,53280,120
101,77,53400,120
96,75,53520,240
93,73,53640,120
89,76,53760,120
84,73,53880,120
81,71,54000,120
77,69,54120,120
78,67,54240,120
81,63,54360,360
84,57,54480,120
87,54,54600,240
79,56,54720,600
86,48,54840,120
85,48,54960,120
86,48,55080,120
91,54,55200,220
80,47,55320,140
91,54,55440,220
81,47,55440,140
82,47,55560,140
83,47,55680,140
91,54,55680,220
84,48,55800,140
85,49,55920,140
91,56,55920,220
86,50,56040,140
89,49,56160,140
91,56,56160,220
88,49,56280,140
91,56,56400,220
87,50,56400,140
88,49,56520,140
84,50,56640,140
96,56,56640,220
85,51,56760,140
96,56,56880,220
86,50,56880,140
87,51,57000,140
96,58,57120,220
88,51,57120,140
89,53,57240,140
90,53,57360,140
96,60,57360,220
91,55,57480,140
94,54,57600,140
96,61,57600,220
93,56,57720,140
92,56,57840,140
96,65,57840,220
93,57,57960,140
101,65,58080,220
89,56,58080,140
90,56,58200,140
91,57,58320,140
101,67,58320,220
92,57,58440,140
101,67,58560,220
93,57,58560,140
94,58,58680,140
101,69,58800,220
95,59,58800,140
98,60,58920,140
100,69,59040,240
96,69,59040,240
72,47,59280,120
76,52,59400,120
79,56,59520,120
84,54,59640,120
88,52,59760,120
91,50,59880,120
90,52,60000,120
99,55,60120,120
87,45,60240,120
96,52,60360,120
91,45,60480,120
100,39,60600,120
88,40,60720,90
88,40,60840,90
96,48,60960,120
84,41,61080,90
84,41,61200,120
91,42,61320,90
79,51,61440,90
79,43,61560,120
88,45,61680,120
76,45,61800,90
76,54,61920,120
84,48,62040,120
72,48,62160,90
72,48,62280,90
79,56,62400,120
67,48,62520,90
67,48,62640,120
79,48,62760,90
64,56,62880,90
64,49,63000,120
72,49,63120,120
60,50,63240,120
65,64,63360,120
72,51,63480,120
60,51,63600,120
69,52,63720,120
77,63,63840,120
65,53,63960,120
72,53,64080,120
81,54,64200,120
69,66,64320,120
77,55,64440,120
84,57,64560,120
72,57,64680,120
84,69,64800,120
89,59,64920,120
77,60,65040,120
84,64,65160,120
93,75,65280,120
81,67,65400,120
89,68,65520,120
96,68,65640,120
84,78,65760,120
93,72,65880,120
101,73,66000,120
89,74,66120,120
92,76,66240,120
101,80,66360,120
100,79,66480,120
99,76,66600,120
98,75,66720,120
101,70,66720,480
97,72,66840,120
96,72,66960,120
95,70,67080,120
92,62,67200,120
98,74,67200,240
86,70,67320,120
91,57,67440,120
95,69,67440,240
89,67,67560,120
96,74,67680,480
88,63,67680,120
94,64,67800,120
93,63,67920,120
92,61,68040,120
91,56,68160,120
96,67,68160,480
90,54,68280,120
89,53,68400,120
88,53,68520,120
85,48,68640,120
91,56,68640,240
79,46,68760,120
88,51,68880,240
84,43,68880,120
82,43,69000,120
84,43,69120,120
89,38,69240,120
93,47,69240,240
81,43,69360,120
78,43,69480,120
77,43,69600,120
86,38,69720,120
89,47,69720,240
77,44,69840,120
73,44,69960,120
72,44,70080,120
84,48,70200,240
81,40,70200,120
72,44,70320,120
70,44,70440,120
69,44,70560,120
77,40,70680,120
81,48,70680,240
69,44,70800,120
65,44,70920,120
57,36,71130,390
60,40,71160,360
93,65,71760,120
96,77,71760,240
84,59,71880,120
90,71,71880,120
91,75,72000,240
84,68,72120,120
81,63,72240,120
84,74,72240,240
72,54,72360,120
78,65,72360,120
79,71,72480,240
72,63,72600,120
69,58,72720,120
72,69,72720,240
60,51,72840,120
66,60,72840,120
67,64,72960,240
65,63,73080,120
67,71,73200,240
64,59,73200,120
62,65,73320,120
69,69,73440,240
61,58,73440,120
58,58,73560,120
64,58,73680,1200
67,63,73920,240
70,68,74160,240
69,57,74400,240
73,70,74400,480
67,69,74640,240
74,66,74880,240
65,63,74880,240
85,65,75120,120
93,77,75120,240
79,59,75240,120
88,71,75240,120
86,65,75360,120
89,75,75360,240
77,68,75480,120
72,63,75600,120
81,74,75600,240
67,54,75720,120
76,65,75720,120
74,65,75840,120
77,71,75840,240
64,63,75960,120
65,58,76080,120
71,69,76080,240
67,60,76200,120
68,63,76320,120
72,68,76320,480
65,63,76440,120
64,58,76560,120
67,63,76680,120
70,55,76800,120
73,53,76920,120
76,52,77040,120
79,52,77160,120
82,49,77280,120
84,51,77400,480
88,51,77520,360
91,52,77640,240
96,54,77760,240
84,48,77880,240
96,53,78000,240
89,49,78120,120
83,56,78240,240
95,56,78240,120
92,51,78360,120
86,52,78480,240
91,52,78480,120
89,54,78600,120
93,46,78690,30
91,54,78720,240
88,46,78720,180
85,52,78900,60
89,45,78930,30
88,56,78960,240
84,47,78960,180
82,52,79140,60
86,45,79170,30
84,54,79200,240
81,46,79200,180
78,52,79380,60
82,49,79410,30
81,54,79440,240
77,47,79440,180
75,52,79620,60
82,67,79680,360
74,67,79680,120
79,61,79800,120
82,64,79920,120
85,66,80040,120
86,68,80160,120
91,70,80280,120
94,72,80400,120
97,74,80520,120
98,76,80640,360
88,54,80760,360
90,68,80760,120
91,63,80880,120
96,60,81000,120
93,76,81120,360
84,52,81240,360
87,65,81240,120
88,60,81360,120
91,59,81480,120
89,75,81600,360
82,52,81720,360
85,60,81720,120
84,56,81840,120
88,56,81960,120
89,73,82080,120
84,63,82200,120
81,66,82320,120
93,60,82440,120
57,49,82650,390
60,49,82680,360
65,58,82710,330
93,65,83280,120
96,77,83280,240
84,59,83400,120
90,71,83400,120
91,75,83520,240
84,68,83640,120
81,63,83760,120
84,74,83760,240
72,54,83880,120
78,65,83880,120
79,71,84000,240
72,63,84120,120
69,58,84240,120
72,69,84240,240
60,51,84360,120
66,60,84360,120
67,65,84480,240
65,63,84600,120
67,71,84720,240
64,59,84720,120
62,65,84840,120
69,69,84960,240
61,58,84960,120
58,58,85080,120
64,58,85200,1200
67,63,85440,240
70,68,85680,240
69,58,85920,240
73,70,85920,480
67,69,86160,240
74,66,86400,240
65,63,86400,240
85,65,86640,120
93,77,86640,240
79,59,86760,120
88,71,86760,120
86,65,86880,120
89,75,86880,240
77,68,87000,120
72,63,87120,120
81,74,87120,240
67,54,87240,120
76,65,87240,120
74,65,87360,120
77,71,87360,240
64,63,87480,120
65,58,87600,120
71,69,87600,240
67,60,87720,120
68,63,87840,120
72,68,87840,480
65,63,87960,120
64,59,88080,120
67,65,88200,120
70,56,88320,120
73,54,88440,120
76,53,88560,120
79,52,88680,120
82,50,88800,120
84,52,88920,480
88,52,89040,360
91,53,89160,240
96,55,89280,240
84,49,89400,240
96,53,89520,240
89,49,89640,120
83,56,89760,240
95,56,89760,120
92,51,89880,120
86,52,90000,240
91,52,90000,120
89,54,90120,120
93,46,90210,30
91,54,90240,240
88,46,90240,180
85,52,90420,60
89,45,90450,30
88,56,90480,240
84,47,90480,180
82,52,90660,60
86,45,90690,30
84,54,90720,240
81,46,90720,180
78,52,90900,60
82,49,90930,30
81,54,90960,240
77,47,90960,180
75,52,91140,60
82,60,91200,360
74,60,91200,120
79,58,91320,120
82,61,91440,120
85,64,91560,120
86,68,91680,120
91,70,91800,120
94,72,91920,120
97,74,92040,120
98,75,92160,360
88,54,92280,360
90,68,92280,120
91,62,92400,120
96,62,92520,120
93,76,92640,360
84,52,92760,360
87,65,92760,120
88,61,92880,120
91,62,93000,120
89,75,93120,360
82,52,93240,360
85,60,93240,120
84,58,93360,120
88,59,93480,120
89,73,93600,120
84,63,93720,120
81,66,93840,120
93,60,93960,120
57,49,94170,390
60,49,94200,360
65,58,94230,330
69,48,96000,500
60,32,96120,217
63,38,96120,217
63,38,96360,120
60,32,96360,120
70,49,96480,500
64,41,96600,217
60,34,96600,217
64,41,96840,120
60,34,96840,120
71,54,96960,500
62,36,97080,217
65,43,97080,217
65,44,97320,120
62,37,97320,120
72,60,97440,500
60,38,97560,217
65,46,97560,217
65,47,97800,120
60,39,97800,120
73,65,97920,500
67,48,98040,217
64,40,98040,217
67,49,98280,120
64,41,98280,120
74,68,98400,500
65,43,98520,217
68,51,98520,217
68,52,98760,120
65,43,98760,120
72,68,98880,480
64,44,99000,217
67,53,99000,217
67,53,99240,120
64,45,99240,120
72,73,99360,480
65,46,99480,228
69,55,99480,228
65,46,99720,120
69,55,99720,120
74,77,99840,500
69,55,99960,228
62,47,99960,228
62,47,100200,120
69,55,100200,120
70,73,100320,500
67,53,100440,228
62,45,100440,228
67,50,100680,120
62,42,100680,120
72,69,100800,500
60,44,100920,228
67,53,100920,228
60,44,101160,120
67,53,101160,120
69,70,101280,500
65,49,101400,228
60,41,101400,228
60,41,101640,120
65,49,101640,120
67,65,101760,500
61,49,101880,228
57,41,101880,228
57,41,102120,120
61,49,102120,120
65,61,102240,500
57,40,102360,228
62,48,102360,228
62,48,102600,120
57,40,102600,120
63,59,102720,500
57,46,102840,228
53,39,102840,228
53,39,103080,120
57,46,103080,120
62,57,103200,500
53,38,103320,228
58,45,103320,228
53,38,103560,120
58,45,103560,120
60,56,103680,500
50,36,103800,228
54,43,103800,228
54,42,104040,120
50,35,104040,120
58,54,104160,500
55,42,104280,228
50,35,104280,228
50,34,104520,120
55,41,104520,120
59,49,104640,500
50,32,104760,228
56,38,104760,228
50,32,105000,120
56,38,105000,120
58,41,105120,480
60,49,105120,480
48,30,105240,228
55,36,105240,228
55,36,105480,114
48,30,105480,114
58,40,105600,480
60,48,105600,480
54,37,105720,228
48,31,105720,228
48,31,105960,120
54,37,105960,120
60,47,106080,480
58,39,106080,480
48,30,106200,228
55,35,106200,228
55,35,106440,120
48,30,106440,120
60,43,106560,480
57,31,106680,228
53,26,106680,228
57,30,106920,120
53,25,106920,120
65,43,107040,480
57,25,107160,228
60,30,107160,228
60,30,107400,120
57,25,107400,120
69,45,107520,500
60,28,107640,228
63,34,107640,228
60,32,107880,120
63,38,107880,120
70,49,108000,500
60,34,108120,228
64,41,108120,228
60,34,108360,120
64,41,108360,120
71,54,108480,500
62,36,108600,228
65,43,108600,228
62,37,108840,120
65,44,108840,120
72,60,108960,500
60,38,109080,228
65,46,109080,228
60,39,109320,120
65,47,109320,120
73,65,109440,500
64,40,109560,228
67,48,109560,228
64,41,109800,120
67,49,109800,120
74,68,109920,500
65,43,110040,228
68,51,110040,228
65,43,110280,120
68,52,110280,120
72,68,110400,480
64,44,110520,228
67,53,110520,228
64,45,110760,120
67,53,110760,120
72,73,110880,480
65,46,111000,228
69,55,111000,228
65,46,111240,120
69,55,111240,120
74,77,111360,500
62,47,111480,228
69,55,111480,228
62,47,111720,120
69,55,111720,120
70,73,111840,500
62,45,111960,228
67,53,111960,228
62,42,112200,120
67,50,112200,120
72,69,112320,500
60,44,112440,228
67,53,112440,228
60,44,112680,120
67,53,112680,120
69,70,112800,500
60,41,112920,228
65,49,112920,228
60,41,113160,120
65,49,113160,120
67,65,113280,500
57,41,113400,228
61,49,113400,228
57,41,113640,120
61,49,113640,120
65,61,113760,500
57,40,113880,228
62,48,113880,228
57,40,114120,120
62,48,114120,120
63,59,114240,500
53,39,114360,228
57,46,114360,228
53,39,114600,120
57,46,114600,120
62,57,114720,500
53,38,114840,228
58,45,114840,228
53,38,115080,120
58,45,115080,120
60,56,115200,500
50,36,115320,228
54,43,115320,228
50,35,115560,120
54,42,115560,120
58,54,115680,500
50,35,115800,228
55,42,115800,228
50,34,116040,120
55,41,116040,120
59,49,116160,500
50,32,116280,228
56,38,116280,228
50,32,116520,120
56,38,116520,120
60,49,116640,480
58,41,116640,480
48,30,116760,228
55,36,116760,228
48,30,117000,120
55,36,117000,120
60,48,117120,480
58,40,117120,480
48,31,117240,228
54,37,117240,228
48,31,117480,120
54,37,117480,120
60,47,117600,480
58,39,117600,480
48,30,117720,228
55,35,117720,228
48,30,117960,120
55,35,117960,120
57,36,118080,480
60,43,118080,480
48,26,118200,228
53,31,118200,228
48,25,118440,120
53,30,118440,120
57,36,118560,480
60,43,118560,480
48,25,118680,228
53,30,118680,228
48,25,118920,120
53,30,118920,120
65,48,119040,500
57,30,119160,228
60,36,119160,228
57,32,119400,120
60,38,119400,120
64,49,119520,500
55,34,119640,228
58,41,119640,228
55,34,119880,120
58,41,119880,120
62,54,120000,500
53,36,120120,228
59,43,120120,228
53,37,120360,120
59,44,120360,120
61,60,120480,500
52,38,120600,228
57,46,120600,228
52,39,120840,120
57,47,120840,120
62,65,120960,500
53,40,121080,228
56,48,121080,228
53,41,121320,120
56,49,121320,120
63,68,121440,500
54,43,121560,228
57,51,121560,228
54,43,121800,120
57,52,121800,120
64,68,121920,500
55,44,122040,228
57,53,122040,228
55,45,122280,120
57,53,122280,120
65,73,122400,480
53,46,122520,228
57,55,122520,228
53,46,122760,120
57,55,122760,120
61,77,122880,500
55,47,123000,228
58,55,123000,228
55,47,123240,120
58,55,123240,120
62,73,123360,500
53,45,123480,228
57,53,123480,228
53,42,123720,120
57,50,123720,120
60,69,123840,500
50,44,123960,228
57,53,123960,228
50,44,124200,120
57,53,124200,120
58,70,124320,480
50,41,124440,228
55,49,124440,228
50,41,124680,120
55,49,124680,120
59,65,124800,500
50,41,124920,228
53,49,124920,228
50,41,125160,120
53,49,125160,120
60,61,125280,500
48,40,125400,228
53,48,125400,228
48,40,125640,120
53,48,125640,120
59,59,125760,500
50,39,125880,228
53,46,125880,228
50,39,126120,120
53,46,126120,120
60,57,126240,500
48,38,126360,228
53,45,126360,228
48,38,126600,120
53,45,126600,120
59,56,126720,500
50,36,126840,228
53,43,126840,228
50,35,127080,120
53,42,127080,120
60,54,127200,500
50,35,127320,228
53,42,127320,228
50,34,127560,120
53,41,127560,120
59,49,127680,480
50,32,127800,228
53,38,127800,228
50,32,128040,120
53,38,128040,120
60,49,128160,480
58,41,128160,480
48,30,128280,228
55,36,128280,228
48,30,128520,120
55,36,128520,120
60,48,128640,480
58,40,128640,480
48,31,128760,228
54,37,128760,228
48,31,129000,120
54,37,129000,120
60,47,129120,480
58,39,129120,480
48,30,129240,228
55,35,129240,228
48,30,129480,120
55,35,129480,120
57,36,129600,480
60,43,129600,480
48,26,129720,228
53,31,129720,228
48,25,129960,120
53,30,129960,120
57,36,130080,480
60,43,130080,480
48,25,130200,228
53,30,130200,228
48,25,130440,120
53,30,130440,120
65,48,130560,500
57,30,130680,228
60,36,130680,228
57,32,130920,120
60,38,130920,120
64,49,131040,500
55,34,131160,228
58,41,131160,228
55,34,131400,120
58,41,131400,120
62,54,131520,500
53,36,131640,228
59,43,131640,228
53,37,131880,120
59,44,131880,120
61,60,132000,500
52,38,132120,228
57,46,132120,228
52,39,132360,120
57,47,132360,120
62,65,132480,500
53,40,132600,228
56,48,132600,228
53,41,132840,120
56,49,132840,120
63,68,132960,500
54,43,133080,228
57,51,133080,228
54,43,133320,120
57,52,133320,120
64,68,133440,500
55,44,133560,228
57,53,133560,228
55,45,133800,120
57,53,133800,120
65,73,133920,480
53,46,134040,228
57,55,134040,228
53,46,134280,120
57,55,134280,120
61,77,134400,500
55,47,134520,228
58,55,134520,228
55,47,134760,120
58,55,134760,120
62,73,134880,500
53,45,135000,228
57,53,135000,228
53,42,135240,120
57,50,135240,120
60,69,135360,480
50,44,135480,228
57,53,135480,228
50,44,135720,120
57,53,135720,120
58,70,135840,480
50,41,135960,228
55,49,135960,228
50,41,136200,120
55,49,136200,120
59,65,136320,500
50,41,136440,228
53,49,136440,228
50,41,136680,120
53,49,136680,120
60,61,136800,500
48,40,136920,228
53,48,136920,228
48,40,137160,120
53,48,137160,120
59,59,137280,500
50,39,137400,228
53,46,137400,228
50,39,137640,120
53,46,137640,120
60,57,137760,500
48,38,137880,228
53,45,137880,228
48,38,138120,120
53,45,138120,120
59,56,138240,500
50,36,138360,228
53,43,138360,228
50,35,138600,120
53,42,138600,120
60,54,138720,500
50,35,138840,228
53,42,138840,228
50,34,139080,120
53,41,139080,120
59,49,139200,480
50,32,139320,228
53,38,139320,228
50,32,139560,120
53,38,139560,120
60,49,139680,480
58,41,139680,480
48,29,139800,228
55,35,139800,228
48,29,140040,120
55,34,140040,120
60,45,140160,480
58,37,140160,480
48,29,140280,228
54,34,140280,228
48,28,140520,120
54,33,140520,120
60,42,140640,480
58,34,140640,480
48,26,140760,228
55,31,140760,228
48,25,141000,120
55,31,141000,120
57,31,141120,480
60,36,141120,480
48,21,141240,228
53,26,141240,228
48,21,141480,120
53,25,141480,120
57,25,141600,480
60,30,141600,480
48,18,141720,228
53,23,141720,228
48,15,141960,120
53,21,141960,120
66,44,143520,100
67,45,143600,100
69,46,143680,100
70,46,143760,100
72,47,143840,100
74,48,143920,100
76,49,144000,100
79,47,144080,80
72,47,144160,100
73,51,144240,100
82,47,144320,80
69,48,144400,100
70,51,144480,100
79,45,144560,80
66,45,144640,100
67,51,144720,100
69,46,144800,100
70,46,144880,100
72,51,144960,100
74,51,145040,100
76,53,145120,100
77,54,145200,100
79,55,145280,100
81,55,145360,100
84,56,145440,420
76,53,145520,100
79,53,145600,100
82,54,145680,100
84,55,145760,100
86,56,145840,100
87,57,145920,100
88,58,146000,100
89,59,146080,100
90,60,146160,100
91,61,146240,100
93,62,146320,100
94,63,146400,100
95,64,146480,100
96,65,146560,100
97,66,146640,100
98,67,146720,100
100,68,146800,100
101,74,146880,100
96,69,146960,100
93,68,147040,80
92,72,147120,240
98,66,147200,100
95,66,147280,80
96,74,147360,100
93,66,147440,100
89,66,147520,80
86,71,147600,240
92,66,147680,100
89,66,147760,80
93,70,147840,100
89,66,147920,100
84,66,148000,80
92,71,148080,100
86,66,148160,100
83,66,148240,80
84,71,148320,80
81,60,148400,80
77,60,148480,80
76,54,148560,120
84,64,148560,80
81,46,148640,80
84,55,148640,80
72,55,148720,80
71,50,148800,120
81,59,148800,80
72,45,148880,80
77,53,148880,80
69,52,148960,80
68,50,149040,120
77,59,149040,80
72,50,149120,80
69,42,149120,80
65,50,149200,80
72,54,149280,80
64,45,149280,120
65,39,149360,80
69,47,149360,80
60,46,149440,80
59,42,149520,120
69,50,149520,80
60,37,149600,80
65,44,149600,80
57,45,149680,80
67,57,149760,80
62,51,149840,100
63,51,149920,100
64,52,150000,100
65,52,150080,100
66,53,150160,100
67,53,150240,100
68,54,150320,100
69,54,150400,100
70,55,150480,100
71,55,150560,100
72,56,150640,100
73,56,150720,100
74,57,150800,100
75,57,150880,100
76,58,150960,100
77,58,151040,100
78,59,151120,100
79,59,151200,80
72,61,151280,100
73,61,151360,100
74,62,151440,100
75,63,151520,100
76,63,151600,100
77,64,151680,100
78,65,151760,100
79,65,151840,100
80,66,151920,100
81,67,152000,100
82,67,152080,100
83,67,152160,100
84,68,152240,100
85,69,152320,100
86,71,152400,100
87,72,152480,100
88,73,152560,100
89,75,152640,80
84,70,152720,80
81,70,152800,80
80,74,152880,80
85,70,152960,80
89,70,153040,80
101,77,153120,80
95,72,153200,80
92,72,153280,80
89,71,153360,80
86,70,153440,80
83,69,153520,80
80,69,153600,80
77,68,153680,80
74,67,153760,80
71,66,153840,80
68,66,153920,80
65,65,154000,80
72,66,154080,80
67,60,154160,100
68,60,154240,100
69,65,154320,100
70,60,154400,100
71,60,154480,100
72,62,154560,100
73,61,154640,100
74,60,154720,100
75,59,154800,100
76,58,154880,100
77,57,154960,80
78,55,155040,80
84,56,155040,400
79,54,155120,80
81,53,155200,80
82,52,155280,80
84,51,155360,80
86,50,155440,80
84,50,155520,240
88,50,155520,80
91,52,155600,80
84,52,155680,80
85,48,155760,80
94,41,155840,80
81,42,155920,80
82,47,156000,80
91,42,156080,80
78,42,156160,80
79,47,156240,80
81,42,156320,80
82,42,156400,80
84,47,156480,80
86,42,156560,80
88,42,156640,80
89,45,156720,80
91,42,156800,80
93,42,156880,80
96,51,156960,80
94,42,157040,80
91,42,157120,80
88,48,157200,80
84,48,157280,80
86,49,157360,80
87,49,157440,80
88,50,157520,80
89,52,157600,80
90,54,157680,80
91,55,157760,80
93,57,157840,80
94,59,157920,80
95,60,158000,80
96,62,158080,80
97,64,158160,80
98,65,158240,80
100,67,158320,80
101,69,158400,80
96,57,158480,80
93,58,158560,80
92,65,158640,80
95,55,158720,80
98,55,158800,80
96,61,158880,80
93,55,158960,80
89,55,159040,80
94,58,159120,240
100,53,159200,80
88,53,159280,80
93,57,159360,240
98,52,159440,80
86,52,159520,80
91,56,159600,240
96,51,159680,80
84,51,159760,80
89,54,159840,240
94,49,159920,80
82,49,160000,80
88,53,160080,240
93,49,160160,80
81,49,160240,80
86,52,160320,240
91,48,160400,80
79,48,160480,80
84,50,160560,240
89,46,160640,80
77,46,160720,80
83,49,160800,240
89,45,160880,80
77,45,160960,80
84,48,161040,240
89,44,161120,80
77,44,161200,80
86,52,161280,80
79,44,161360,100
80,45,161440,100
81,45,161520,100
82,46,161600,100
83,47,161680,100
84,48,161760,100
85,49,161840,100
86,50,161920,100
87,51,162000,100
88,51,162080,100
89,52,162160,100
90,54,162240,100
91,55,162320,100
92,56,162400,100
93,57,162480,100
94,58,162560,100
95,58,162640,100
96,59,162720,80
84,60,162800,100
85,61,162880,100
86,62,162960,100
87,63,163040,100
88,64,163120,100
89,64,163200,100
90,64,163280,100
91,65,163360,100
92,66,163440,100
93,67,163520,100
94,68,163600,100
95,69,163680,80
96,70,163760,80
97,71,163840,80
98,72,163920,80
99,72,164000,80
100,73,164080,80
101,79,164160,80
96,71,164240,80
93,71,164320,80
89,77,164400,76
89,69,164480,80
84,69,164560,80
96,77,164640,80
93,71,164720,80
89,71,164800,80
84,76,164880,76
84,69,164960,80
81,70,165040,80
93,74,165120,80
89,70,165200,80
84,70,165280,80
81,74,165360,76
81,69,165440,80
77,70,165520,76
89,74,165600,240
57,72,165840,80
60,67,165920,80
65,68,166000,80
69,75,166320,80
72,71,166400,80
77,70,166480,80
81,74,166560,80
84,72,166640,80
89,72,166720,80
93,54,166800,100
91,53,166880,100
89,52,166960,100
88,49,167040,100
89,47,167120,100
91,47,167200,80
79,51,167280,100
82,47,167360,100
84,48,167440,100
85,55,167520,100
88,45,167600,100
91,45,167680,80
79,51,167760,100
82,46,167840,100
84,46,167920,100
85,56,168000,100
88,50,168080,100
91,50,168160,80
79,54,168240,100
82,50,168320,100
89,50,168400,100
88,49,168480,100
87,47,168560,100
88,47,168640,100
100,48,168720,100
97,44,168800,100
91,44,168880,80
88,50,168960,100
85,40,169040,100
88,40,169120,100
76,45,169200,100
73,40,169280,100
76,40,169360,80
64,48,169440,80
61,42,169520,80
64,42,169600,80
57,44,169680,100
59,41,169760,100
61,40,169840,100
62,41,169920,100
69,39,170000,100
66,39,170080,80
57,43,170160,100
60,39,170240,100
63,40,170320,100
62,46,170400,100
69,38,170480,100
66,38,170560,80
57,43,170640,100
60,39,170720,100
63,39,170800,100
62,47,170880,100
69,42,170960,100
66,42,171040,80
57,45,171120,100
60,42,171200,100
63,42,171280,100
62,46,171360,80
65,47,171440,80
68,49,171520,80
71,50,171600,80
74,51,171680,80
77,53,171760,80
80,54,171840,80
77,55,171920,80
80,57,172000,80
83,58,172080,80
86,59,172160,80
89,61,172240,80
92,62,172320,80
85,63,172400,80
86,65,172480,80
89,66,172560,80
92,67,172640,80
95,72,172720,80
98,65,172770,30
101,74,172800,80
100,72,172880,80
98,70,172960,80
96,68,173040,80
94,64,173120,80
98,65,173200,80
91,66,173280,80
88,61,173360,80
96,61,173440,80
84,65,173520,80
82,60,173600,80
86,60,173680,80
79,57,173760,80
76,51,173840,80
84,51,173920,80
72,55,174000,80
74,49,174080,80
76,49,174160,80
77,52,174240,80
81,48,174320,80
82,48,174400,80
84,52,174480,80
89,48,174560,80
93,48,174640,80
96,59,174720,80
94,53,174800,80
93,53,174880,50
94,53,174930,30
93,58,174960,80
91,53,175040,80
89,53,175120,50
91,58,175170,30
89,60,175200,80
88,53,175280,80
86,53,175360,50
88,58,175410,30
86,59,175440,80
84,52,175520,80
83,52,175600,50
84,53,175650,30
93,57,175680,120
89,56,175840,80
84,56,175920,80
81,56,176000,80
77,55,176080,80
72,55,176160,80
84,54,176240,80
81,54,176320,80
77,53,176400,80
72,53,176480,80
69,53,176560,80
72,52,176640,80
67,52,176720,80
64,51,176800,80
60,51,176880,80
58,50,176960,80
55,50,177040,80
53,50,177120,76
53,51,177200,80
57,52,177280,80
65,53,177360,76
65,55,177440,80
69,56,177520,80
77,57,177600,76
77,58,177680,80
81,60,177760,80
89,61,177840,76
89,62,177920,80
93,63,178000,80
101,71,178080,240
93,54,178320,100
91,53,178400,100
89,52,178480,100
88,49,178560,100
89,47,178640,100
91,47,178720,80
79,51,178800,100
82,47,178880,100
84,48,178960,100
85,55,179040,100
88,45,179120,100
91,45,179200,80
79,51,179280,100
82,46,179360,100
84,46,179440,100
85,56,179520,100
88,50,179600,100
91,50,179680,80
79,54,179760,100
82,50,179840,100
89,50,179920,100
88,49,180000,100
87,47,180080,100
88,47,180160,100
100,48,180240,100
97,44,180320,100
91,44,180400,80
88,50,180480,100
85,40,180560,100
88,40,180640,100
76,45,180720,100
73,40,180800,100
76,40,180880,80
64,48,180960,80
61,42,181040,80
64,42,181120,80
57,44,181200,100
59,41,181280,100
61,40,181360,100
62,41,181440,100
69,39,181520,100
66,39,181600,80
57,43,181680,100
60,39,181760,100
63,40,181840,100
62,46,181920,100
69,38,182000,100
66,38,182080,80
57,43,182160,100
60,39,182240,100
63,39,182320,100
62,47,182400,100
69,42,182480,100
66,42,182560,80
57,45,182640,100
60,42,182720,100
63,42,182800,100
62,46,182880,80
65,47,182960,80
68,49,183040,80
71,50,183120,80
74,51,183200,80
77,53,183280,80
80,54,183360,80
77,55,183440,80
80,57,183520,80
83,58,183600,80
86,59,183680,80
89,61,183760,80
92,62,183840,80
85,63,183920,80
86,65,184000,80
89,66,184080,80
92,67,184160,80
95,72,184240,80
98,65,184290,30
101,74,184320,80
100,72,184400,80
98,70,184480,80
96,68,184560,80
94,64,184640,80
98,65,184720,80
91,66,184800,80
88,61,184880,80
96,61,184960,80
84,65,185040,80
82,60,185120,80
86,60,185200,80
79,57,185280,80
76,51,185360,80
84,51,185440,80
72,55,185520,80
74,49,185600,80
76,49,185680,80
77,52,185760,80
81,48,185840,80
82,48,185920,80
84,52,186000,80
89,48,186080,80
93,48,186160,80
96,59,186240,80
94,53,186320,80
93,53,186400,50
94,53,186450,30
93,58,186480,80
91,53,186560,80
89,53,186640,50
91,58,186690,30
89,60,186720,80
88,53,186800,80
86,53,186880,50
88,58,186930,30
86,59,186960,80
84,52,187040,80
83,52,187120,50
84,53,187170,30
93,57,187200,120
89,56,187360,80
84,56,187440,80
81,56,187520,80
77,55,187600,80
72,55,187680,80
84,54,187760,80
81,54,187840,80
77,53,187920,80
72,53,188000,80
69,53,188080,80
72,52,188160,80
67,52,188240,80
64,51,188320,80
60,51,188400,80
58,50,188480,80
55,50,188560,80
53,50,188640,80
57,51,188720,80
60,52,188800,80
65,52,188880,60
69,52,188940,60
72,53,189000,60
77,53,189060,60
77,53,189240,120
81,56,189270,90
84,60,189300,60
89,63,189330,30
86,50,191520,720
74,42,191520,720
87,53,192240,720
75,45,192240,720
92,58,192960,720
80,49,192960,720
96,63,193680,720
84,52,193680,720
89,60,194400,1440
101,70,194400,1440
99,60,195840,720
87,50,195840,720
97,55,196560,480
85,47,196560,480
85,47,197040,120
89,45,197160,240
84,33,197160,120
83,33,197280,120
89,45,197400,240
82,32,197400,120
81,32,197520,120
89,44,197640,240
80,32,197640,120
79,32,197760,120
82,44,197880,240
78,32,197880,120
77,31,198000,120
82,43,198120,240
76,31,198120,120
75,30,198240,120
82,42,198360,240
74,30,198360,120
73,30,198480,120
82,41,198600,240
72,29,198600,120
72,37,198720,60
70,32,198780,60
72,37,198840,60
70,32,198900,60
72,37,198960,60
70,32,199020,60
72,37,199080,60
70,31,199140,60
72,37,199200,60
70,32,199260,60
72,37,199320,60
70,32,199380,60
72,37,199440,60
70,33,199500,60
72,37,199560,60
70,33,199620,60
72,37,199680,60
70,31,199740,60
72,37,199800,60
70,31,199860,60
72,37,199920,60
70,32,199980,60
72,37,200040,60
70,32,200100,60
72,37,200160,60
75,50,200160,720
70,31,200220,60
72,36,200280,60
70,27,200340,60
72,34,200400,60
70,28,200460,60
72,32,200520,60
70,27,200580,60
72,31,200640,60
70,26,200700,60
72,29,200760,60
70,23,200820,60
74,51,200880,720
71,29,200880,60
70,26,200940,60
71,30,201000,60
70,27,201060,60
71,31,201120,60
70,27,201180,60
71,32,201240,60
70,27,201300,60
71,33,201360,60
70,28,201420,60
71,34,201480,60
70,29,201540,60
77,56,201600,720
71,35,201600,60
70,31,201660,60
71,36,201720,60
70,32,201780,60
71,36,201840,60
70,31,201900,60
71,37,201960,60
70,31,202020,60
71,37,202080,60
70,32,202140,60
71,37,202200,60
70,32,202260,60
71,37,202320,60
80,59,202320,720
70,32,202380,60
71,37,202440,60
70,33,202500,60
71,37,202560,60
70,32,202620,60
71,37,202680,60
70,32,202740,60
71,37,202800,60
70,32,202860,60
71,37,202920,60
70,31,202980,60
80,61,203040,1440
71,37,203040,60
70,31,203100,60
71,36,203160,60
70,31,203220,60
71,36,203280,60
70,30,203340,60
71,36,203400,60
70,29,203460,60
71,35,203520,60
70,29,203580,60
71,35,203640,60
70,29,203700,60
71,34,203760,60
70,29,203820,60
71,33,203880,60
70,29,203940,60
71,33,204000,60
70,27,204060,60
71,32,204120,60
70,27,204180,60
71,32,204240,60
70,27,204300,60
71,31,204360,60
70,27,204420,60
74,50,204480,720
71,30,204480,60
70,26,204540,60
71,30,204600,60
70,26,204660,60
71,22,204720,60
70,24,204780,60
71,27,204840,60
70,24,204900,60
71,27,204960,60
70,24,205020,60
71,27,205080,60
70,23,205140,60
75,51,205200,720
72,29,205200,60
70,26,205260,60
72,30,205320,60
70,26,205380,60
72,30,205440,60
70,27,205500,60
72,31,205560,60
70,26,205620,60
72,32,205680,60
70,27,205740,60
72,32,205800,60
70,28,205860,60
79,56,205920,720
72,33,205920,60
70,29,205980,60
72,34,206040,60
70,30,206100,60
72,35,206160,60
70,28,206220,60
72,35,206280,60
70,29,206340,60
72,36,206400,60
70,30,206460,60
72,36,206520,60
70,31,206580,60
72,36,206640,60
82,59,206640,720
70,32,206700,60
72,37,206760,60
70,32,206820,60
72,37,206880,60
70,32,206940,60
72,37,207000,60
70,32,207060,60
72,37,207120,60
70,32,207180,60
72,37,207240,60
70,31,207300,60
70,55,207360,600
82,61,207360,600
69,43,207960,60
70,46,208020,60
71,48,208080,72
72,49,208152,68
73,50,208220,68
74,50,208288,68
75,51,208356,68
76,52,208424,68
77,53,208492,68
78,53,208560,60
79,54,208620,60
80,55,208680,60
81,55,208740,60
82,56,208800,96
83,57,208896,96
84,58,208992,96
85,59,209088,96
86,60,209184,96
87,61,209280,48
87,61,209328,48
87,62,209376,48
87,62,209424,48
87,62,209476,48
87,62,209520,4
91,57,209640,60
89,57,209760,60
87,57,209880,60
86,56,210000,60
84,57,210120,60
82,62,210240,120
81,54,210360,120
84,57,210480,120
82,56,210600,120
80,55,210720,120
79,54,210840,120
76,50,210960,60
77,50,211020,60
76,50,211080,60
77,50,211140,60
76,50,211200,60
77,50,211260,60
76,50,211320,60
77,52,211380,60
80,56,211440,180
79,52,211620,60
70,53,211680,1440
72,49,212160,120
74,50,212280,120
75,53,212400,240
69,44,213060,60
73,55,213120,480
69,53,213120,1440
72,53,213600,960
77,56,213840,1440
70,53,214560,720
45,46,215280,60
48,47,215340,60
51,47,215400,60
53,48,215460,60
54,49,215520,60
57,50,215580,60
60,50,215640,60
63,51,215700,57
65,52,215760,48
66,52,215808,48
69,53,215856,48
72,54,215904,48
78,54,215952,48
77,57,216000,480
76,52,216480,40
77,47,216520,40
76,51,216560,40
77,47,216600,40
76,51,216640,40
77,46,216680,40
82,53,216720,480
82,53,217200,120
83,56,217320,120
84,55,217440,60
83,55,217500,60
84,56,217560,60
83,57,217620,60
84,58,217680,60
83,59,217740,60
84,60,217800,60
83,60,217860,60
84,62,217920,72
83,63,217992,72
82,64,218064,48
83,66,218112,48
84,70,218160,840
79,64,219000,120
76,62,219120,120
72,61,219240,120
67,60,219360,120
64,59,219480,120
68,58,219600,120
65,56,219720,120
61,56,219840,120
59,55,219960,120
56,54,220080,120
53,52,220200,120
52,55,220320,120
55,52,220440,120
60,52,220560,120
64,52,220680,120
54,49,220800,120
63,49,220920,120
53,55,221040,120
56,52,221160,120
61,52,221280,120
65,52,221400,120
56,49,221520,120
68,49,221640,120
59,57,221760,120
62,53,221880,120
65,53,222000,120
71,53,222120,120
65,48,222240,120
77,49,222360,120
64,58,222480,120
67,53,222600,120
72,53,222720,120
76,54,222840,120
66,52,222960,120
75,52,223080,120
65,60,223200,120
68,57,223320,120
73,57,223440,120
77,58,223560,120
68,55,223680,120
80,55,223800,120
71,67,223920,120
74,60,224040,120
77,60,224160,120
83,62,224280,120
77,58,224400,120
89,58,224520,120
76,67,224640,120
79,64,224760,120
84,65,224880,120
88,66,225000,120
78,63,225120,120
87,63,225240,120
77,71,225360,120
80,68,225480,120
85,70,225600,120
89,70,225720,120
80,66,225840,120
92,66,225960,120
83,77,226080,120
86,73,226200,120
89,74,226320,120
95,74,226440,120
89,68,226560,120
101,69,226680,120
88,71,226800,120
100,72,226920,120
95,79,227040,120
100,73,227160,120
96,70,227280,120
91,70,227400,120
88,73,227520,120
96,73,227640,120
90,79,227760,120
96,73,227880,120
91,73,228000,120
88,71,228120,120
84,73,228240,120
91,73,228360,120
87,78,228480,120
91,73,228600,120
88,71,228720,120
84,72,228840,120
79,73,228960,120
88,73,229080,120
83,77,229200,120
88,73,229320,120
84,70,229440,120
79,70,229560,120
76,73,229680,120
84,73,229800,120
78,78,229920,120
84,73,230040,120
79,71,230160,120
76,71,230280,120
72,71,230400,120
79,70,230520,120
75,73,230640,120
79,68,230760,120
76,65,230880,120
72,65,231000,120
67,66,231120,120
76,61,231240,120
71,67,231360,120
76,59,231480,120
72,59,231600,120
70,57,231720,120
67,56,231840,120
64,55,231960,120
60,55,232080,120
58,54,232200,120
55,53,232320,120
52,52,232440,120
69,61,233520,120
70,56,233640,240
72,56,233760,120
76,56,233880,120
81,64,234000,120
82,55,234120,240
84,55,234240,120
88,56,234360,120
93,64,234480,96
91,58,234576,96
90,59,234672,96
91,59,234768,96
93,65,234864,96
91,44,234960,60
93,38,235020,60
91,42,235080,60
93,37,235140,60
91,43,235200,60
93,37,235260,60
91,43,235320,60
93,38,235380,60
91,44,235440,60
93,40,235500,60
91,44,235560,60
93,40,235620,60
91,45,235680,60
93,41,235740,60
91,46,235800,60
93,43,235860,60
91,48,235920,60
93,43,235980,60
91,48,236040,60
93,44,236100,60
91,50,236160,60
93,44,236220,60
91,51,236280,60
93,44,236340,60
91,51,236400,60
93,45,236460,60
91,50,236520,60
93,45,236580,60
91,50,236640,60
93,43,236700,60
91,49,236760,60
93,43,236820,60
91,48,236880,60
93,43,236940,60
91,47,237000,60
93,38,237060,60
91,44,237120,60
93,36,237180,60
91,46,237240,60
93,37,237300,60
91,45,237360,80
93,40,237440,80
91,38,237520,80
90,44,237600,80
91,46,237680,80
93,46,237760,80
91,52,237840,480
63,37,239520,475
69,45,239520,475
63,36,240000,238
69,44,240000,238
64,41,240240,475
70,50,240240,475
64,40,240720,238
70,48,240720,238
65,44,240960,475
71,53,240960,475
65,43,241440,238
71,51,241440,238
65,47,241680,475
72,56,241680,475
65,48,242160,238
69,53,242400,475
74,63,242400,475
69,51,242880,238
72,61,242880,238
67,50,243120,475
70,60,243120,475
68,42,243600,238
71,50,243600,238
67,45,243840,475
72,54,243840,475
64,40,244320,238
70,48,244320,238
65,39,244560,480
69,46,244560,480
99,38,245280,120
98,36,245400,120
101,40,245520,120
99,37,245640,120
98,37,245760,120
96,37,245880,120
94,40,246000,120
93,37,246120,120
96,41,246240,120
94,38,246360,120
93,39,246480,120
91,39,246600,120
89,42,246720,120
88,39,246840,120
91,44,246960,120
89,41,247080,120
88,41,247200,120
86,41,247320,120
84,43,247440,120
83,41,247560,120
86,47,247680,120
84,44,247800,120
82,44,247920,120
81,44,248040,120
86,47,248160,120
85,45,248280,120
87,51,248400,120
86,46,248520,120
84,46,248640,120
81,47,248760,120
82,51,248880,120
81,47,249000,120
84,52,249120,120
82,48,249240,120
79,48,249360,120
74,48,249480,120
72,53,249600,120
71,49,249720,120
74,54,249840,120
72,49,249960,120
70,49,250080,120
67,49,250200,120
69,52,250320,120
68,49,250440,120
69,56,250560,120
70,50,250680,120
65,51,250800,120
69,51,250920,120
63,60,251040,480
69,56,251160,120
68,56,251280,120
69,56,251400,120
70,53,251520,120
69,53,251640,120
64,60,251760,480
70,57,251880,120
69,57,252000,120
70,57,252120,120
72,55,252240,120
70,55,252360,120
65,63,252480,480
71,58,252600,120
70,58,252720,120
71,58,252840,120
72,56,252960,120
71,56,253080,120
65,65,253200,480
72,59,253320,120
71,59,253440,120
72,59,253560,120
74,56,253680,120
72,56,253800,120
69,65,253920,480
74,60,254040,120
73,60,254160,120
74,60,254280,120
76,58,254400,120
74,58,254520,120
74,66,254640,480
79,61,254760,120
78,61,254880,120
79,61,255000,120
81,59,255120,120
79,60,255240,120
79,69,255360,480
84,63,255480,120
83,63,255600,120
84,63,255720,120
86,61,255840,120
84,61,255960,120
84,70,256080,480
89,63,256200,120
88,63,256320,120
89,59,256440,120
91,61,256560,120
89,61,256680,120
86,65,256800,120
85,60,256920,120
88,66,257040,120
86,63,257160,120
79,72,257280,240
88,75,257520,480
93,68,257640,120
92,69,257760,120
93,63,257880,120
94,64,258000,120
93,64,258120,120
89,71,258240,120
88,64,258360,120
91,72,258480,120
89,66,258600,120
86,77,258720,240
91,79,258960,480
96,71,259080,120
95,73,259200,120
96,67,259320,120
98,67,259440,120
96,69,259560,120
93,74,259680,120
92,68,259800,120
94,75,259920,120
93,68,260040,120
89,77,260160,240
93,83,260400,480
98,76,260520,120
97,76,260640,120
98,70,260760,120
99,70,260880,120
98,70,261000,120
94,76,261120,120
93,69,261240,120
96,76,261360,120
94,69,261480,120
91,80,261600,240
94,50,261840,120
100,45,261960,120
91,45,262080,120
94,42,262200,30
96,42,262230,30
94,45,262260,60
93,48,262320,120
91,45,262440,120
90,50,262560,120
96,45,262680,120
84,45,262800,120
87,40,262920,30
89,40,262950,30
87,45,262980,60
86,45,263040,120
84,45,263160,120
83,49,263280,120
89,45,263400,120
77,45,263520,120
80,39,263640,30
82,39,263670,30
80,42,263700,60
79,49,263760,120
77,45,263880,120
76,51,264000,120
82,45,264120,120
74,45,264240,120
73,39,264360,30
75,39,264390,30
73,43,264420,60
72,45,264480,120
70,45,264600,240
69,41,264840,120
72,43,264960,120
76,45,265080,120
77,47,265200,120
81,49,265320,120
84,51,265440,120
88,52,265560,120
89,54,265680,120
93,56,265800,120
96,58,265920,120
100,60,266040,120
101,60,266160,120
100,60,266280,120
99,59,266400,120
98,59,266520,120
97,58,266640,120
96,58,266760,120
95,57,266880,120
94,57,267000,120
93,56,267120,120
92,55,267240,120
91,55,267360,120
90,54,267480,120
89,52,267600,120
93,51,267720,120
92,50,267840,120
91,49,267960,120
90,48,268080,120
89,47,268200,120
88,46,268320,120
87,46,268440,120
86,45,268560,120
85,44,268680,120
84,43,268800,120
83,42,268920,120
82,46,269040,120
88,40,269160,120
87,39,269280,120
86,39,269400,120
85,39,269520,120
84,38,269640,120
83,38,269760,120
82,37,269880,120
81,37,270000,120
80,37,270120,120
79,36,270240,120
78,36,270360,120
77,45,270480,120
69,47,271680,240
81,44,271800,120
70,49,271920,240
82,45,272040,120
71,51,272160,240
83,48,272280,120
72,54,272400,240
84,50,272520,120
74,56,272640,240
86,51,272760,120
76,58,272880,240
88,54,273000,120
77,60,273120,240
89,56,273240,60
79,57,273300,60
91,63,273360,240
69,54,274080,240
81,49,274200,120
70,55,274320,240
82,51,274440,120
71,57,274560,240
83,52,274680,120
72,58,274800,240
84,52,274920,120
74,60,275040,240
86,53,275160,120
76,62,275280,240
88,55,275400,120
77,63,275520,240
89,55,275640,120
79,65,275760,240
91,56,275880,120
80,66,276000,240
92,54,276120,60
81,54,276180,60
93,68,276240,120
81,66,276960,240
93,63,277080,120
83,68,277200,240
95,66,277320,120
85,71,277440,240
97,69,277560,60
86,69,277620,480
98,74,277680,420
88,71,278100,240
100,76,278160,180
89,71,278340,720
101,76,278400,660
86,70,279060,480
98,77,279120,420
88,73,279540,240
100,78,279600,180
89,71,279780,800
101,76,279840,720
86,83,280560,120
98,76,280680,120
89,76,280800,120
94,76,280920,120
92,76,281040,120
89,76,281160,120
86,84,281280,120
82,83,281400,120
80,81,281520,120
77,80,281640,120
74,79,281760,120
70,77,281880,120
68,76,282000,120
68,75,282720,720
62,62,282720,720
64,62,282720,720
61,65,283440,140
69,65,283440,140
62,66,283560,140
64,66,283680,140
66,67,283800,140
68,68,283920,140
69,69,284040,140
71,70,284160,140
73,71,284280,140
74,72,284400,140
76,73,284520,140
78,74,284640,140
80,74,284760,140
81,75,284880,140
83,76,285000,140
85,77,285120,140
86,78,285240,140
88,79,285360,140
90,80,285480,140
92,81,285600,140
93,81,285720,140
95,82,285840,140
97,83,285960,140
98,84,286080,140
99,85,286200,140
100,91,286320,120
97,82,286440,120
93,82,286560,120
88,85,286680,120
86,81,286800,120
92,82,286920,120
93,90,287040,120
88,85,287160,120
85,81,287280,120
81,81,287400,120
80,77,287520,120
86,77,287640,120
88,83,287760,120
85,76,287880,120
81,76,288000,120
76,76,288120,120
74,72,288240,120
80,73,288360,120
81,82,288480,120
76,76,288600,120
73,76,288720,120
69,76,288840,120
68,72,288960,120
74,72,289080,120
76,70,289200,120
73,63,289320,120
69,63,289440,120
64,62,289560,120
62,57,289680,120
68,57,289800,120
69,63,289920,120
64,57,290040,120
61,55,290160,120
57,53,290280,120
56,48,290400,120
62,46,290520,120
64,48,290640,140
61,51,290760,140
57,54,290880,140
52,51,291000,140
56,48,291120,140
62,48,291240,140
64,48,291360,140
61,51,291480,140
57,54,291600,140
52,51,291720,140
56,48,291840,140
62,47,291960,140
64,36,292080,140
61,38,292200,140
57,40,292320,140
52,38,292440,140
56,35,292560,140
62,35,292680,140
64,36,292800,140
61,38,292920,140
57,40,293040,140
52,38,293160,140
56,35,293280,140
62,35,293400,140
57,36,293520,140
64,36,293520,140
58,36,293640,140
59,36,293760,140
60,35,293880,140
61,35,294000,140
62,35,294120,140
63,35,294240,140
64,34,294360,140
65,34,294480,140
66,34,294600,140
67,33,294720,140
68,33,294840,140
69,33,294960,140
68,29,295080,140
69,33,295200,140
68,30,295320,140
69,33,295440,140
68,29,295560,140
69,33,295680,140
68,30,295800,140
69,33,295920,140
68,30,296040,140
69,33,296160,140
68,29,296280,140
69,33,296400,140
68,29,296520,140
69,33,296640,140
68,30,296760,140
69,33,296880,140
68,30,297000,60
70,39,297060,60
69,41,297120,120
64,34,297240,120
68,42,297360,120
64,34,297480,120
69,42,297600,120
64,36,297720,60
72,38,297780,60
70,44,297840,120
64,38,297960,120
69,47,298080,120
64,38,298200,120
70,48,298320,120
64,40,298440,120
71,50,298560,120
65,41,298680,120
77,51,298800,1440
65,41,298920,120
71,47,299040,120
65,39,299160,60
74,41,299220,60
72,50,299280,120
65,42,299400,120
71,49,299520,120
65,41,299640,120
72,49,299760,120
65,44,299880,120
72,51,300000,120
69,44,300120,120
81,56,300240,720
75,47,300240,120
65,47,300360,120
74,52,300480,120
65,45,300600,120
74,53,300720,120
67,45,300840,120
79,58,300960,720
70,53,300960,120
67,45,301080,120
70,51,301200,120
67,45,301320,120
70,51,301440,120
67,45,301560,120
79,58,301680,720
73,42,301680,120
67,45,301800,120
72,51,301920,120
67,45,302040,120
72,51,302160,120
65,45,302280,120
77,58,302400,480
69,45,302400,120
65,45,302520,120
69,45,302640,120
65,45,302760,120
64,55,302880,480
60,42,303000,120
72,43,303120,120
60,43,303240,120
65,51,303360,240
60,44,303480,120
66,57,303600,480
62,45,303720,120
74,45,303840,120
62,45,303960,120
67,54,304080,240
62,45,304200,120
68,59,304320,480
64,46,304440,120
76,47,304560,120
64,47,304680,120
69,56,304800,240
64,48,304920,120
69,62,305040,480
65,48,305160,120
77,49,305280,120
65,49,305400,120
70,58,305520,240
65,49,305640,120
71,64,305760,480
67,50,305880,120
79,50,306000,480
67,51,306120,120
72,60,306240,240
67,49,306360,120
81,67,306480,480
69,57,306600,120
72,57,306720,120
69,57,306840,120
71,53,306960,240
68,46,307080,120
70,53,307200,240
67,46,307320,120
76,53,307440,240
67,45,307560,120
79,53,307680,240
67,46,307800,120
81,53,307920,480
69,45,308040,120
72,48,308160,120
69,44,308280,120
71,46,308400,240
68,36,308520,120
70,42,308640,240
67,37,308760,120
76,42,308880,240
67,36,309000,120
79,43,309120,240
67,37,309240,120
81,43,309360,480
69,37,309480,120
68,41,309600,120
69,36,309720,120
81,47,309840,240
69,37,309960,120
77,50,310080,240
69,38,310200,120
72,47,310320,240
69,38,310440,120
81,47,310560,240
69,38,310680,120
76,52,310800,240
69,38,310920,120
72,48,311040,240
69,38,311160,120
81,49,311280,240
69,40,311400,120
77,54,311520,240
69,41,311640,120
72,53,311760,240
69,42,311880,120
81,60,312000,240
69,44,312120,120
72,56,312240,240
69,45,312360,120
81,63,312480,240
69,45,312600,120
73,59,312720,240
69,46,312840,120
81,70,312960,240
69,49,313080,120
74,59,313200,240
69,49,313320,120
81,71,313440,240
69,50,313560,120
75,66,313680,240
69,52,313800,120
82,74,313920,240
70,54,314040,120
75,68,314160,240
70,55,314280,120
83,80,314400,240
71,57,314520,120
75,72,314640,240
71,58,314760,120
84,84,314880,240
72,59,315000,120
73,73,315120,240
85,86,315120,240
59,65,315360,120
61,69,315480,120
65,73,315600,120
68,77,315720,120
71,86,315840,120
83,81,315960,120
71,77,316080,120
73,78,316200,120
77,79,316320,120
80,81,316440,120
83,88,316560,120
95,85,316680,120
92,81,316800,120
89,80,316920,120
85,79,317040,120
83,78,317160,120
80,76,317280,120
77,75,317400,120
73,74,317520,120
71,73,317640,120
68,72,317760,120
65,71,317880,120
70,67,318000,140
64,61,318120,140
63,62,318240,140
69,62,318360,140
68,64,318480,140
62,63,318600,140
61,70,318720,140
67,63,318840,140
66,63,318960,140
60,63,319080,140
59,63,319200,140
65,63,319320,140
64,66,319440,140
58,56,319560,140
55,58,319680,140
63,60,319800,140
62,62,319920,140
55,64,320040,140
58,70,320160,140
61,64,320280,140
60,66,320400,140
55,67,320520,140
57,69,320640,140
60,70,320760,120
62,70,320880,140
56,64,321000,140
55,64,321120,140
61,64,321240,140
60,63,321360,140
54,63,321480,140
53,70,321600,140
59,60,321720,140
58,60,321840,140
52,57,321960,140
51,55,322080,140
57,53,322200,140
56,62,322320,140
50,56,322440,140
47,54,322560,140
56,53,322680,140
52,51,322800,140
47,50,322920,140
56,57,323040,140
53,55,323160,140
48,54,323280,140
56,52,323400,140
53,51,323520,140
51,49,323640,120
57,51,323760,140
48,42,323880,140
51,42,324000,140
54,42,324120,140
55,42,324240,140
50,42,324360,140
49,51,324480,140
52,41,324600,140
53,41,324720,140
48,41,324840,140
53,41,324960,140
60,41,325080,140
58,50,325200,140
52,40,325320,140
56,41,325440,140
59,41,325560,140
60,41,325680,140
55,41,325800,140
58,52,325920,140
61,42,326040,140
62,41,326160,140
55,41,326280,140
58,41,326400,140
65,41,326520,140
64,50,326640,140
55,42,326760,140
63,42,326880,140
66,42,327000,140
67,42,327120,140
62,43,327240,140
61,52,327360,140
64,42,327480,140
65,43,327600,140
60,43,327720,140
65,43,327840,140
72,43,327960,140
70,53,328080,140
64,43,328200,140
68,44,328320,140
71,44,328440,140
72,44,328560,140
67,45,328680,140
70,57,328800,140
73,49,328920,140
74,45,329040,140
67,46,329160,140
70,46,329280,140
77,46,329400,140
75,57,329520,140
76,55,329640,120
67,56,329760,120
69,57,329880,120
70,58,330000,120
72,59,330120,120
73,60,330240,120
76,61,330360,120
79,62,330480,120
81,63,330600,120
82,64,330720,120
84,65,330840,120
85,68,330960,140
91,67,331080,120
88,66,331200,120
85,65,331320,120
82,64,331440,120
79,63,331560,120
76,62,331680,140
73,61,331800,120
70,60,331920,120
67,59,332040,120
64,58,332160,120
61,57,332280,120
62,56,332400,140
74,55,332520,120
62,57,332640,120
64,59,332760,120
65,60,332880,120
67,62,333000,120
68,63,333120,140
71,65,333240,120
74,66,333360,120
76,68,333480,120
77,69,333600,120
79,71,333720,120
80,72,333840,140
86,67,333960,120
83,68,334080,120
80,67,334200,120
77,66,334320,120
74,66,334440,120
71,65,334560,140
68,64,334680,120
65,63,334800,120
62,62,334920,120
59,61,335040,120
56,60,335160,120
57,68,335280,120
69,59,335400,120
61,59,335520,120
67,59,335640,120
65,59,335760,120
62,59,335880,120
64,67,336000,120
70,57,336120,120
69,57,336240,120
65,57,336360,120
68,57,336480,120
74,56,336600,120
72,66,336720,120
69,57,336840,120
71,57,336960,120
77,57,337080,120
76,56,337200,120
72,55,337320,120
73,65,337440,120
79,56,337560,120
77,56,337680,120
74,56,337800,120
76,56,337920,120
82,56,338040,120
81,69,338160,120
77,57,338280,120
73,57,338400,120
81,58,338520,120
77,58,338640,120
74,60,338760,120
76,71,338880,120
84,60,339000,120
81,61,339120,120
77,60,339240,120
80,61,339360,120
88,61,339480,120
84,76,339600,120
81,66,339720,120
83,67,339840,120
91,67,339960,120
88,68,340080,120
84,68,340200,120
85,82,340320,120
93,67,340440,120
89,68,340560,120
86,69,340680,120
88,69,340800,120
96,70,340920,120
93,82,341040,120
89,70,341160,120
95,70,341280,120
101,71,341400,120
96,78,341520,120
89,71,341640,120
95,80,341760,120
101,71,341880,120
96,80,342000,120
89,72,342120,120
95,79,342240,120
101,72,342360,120
96,78,342480,120
89,72,342600,120
95,78,342720,120
101,72,342840,120
96,77,342960,120
89,71,343080,120
95,78,343200,120
101,70,343320,120
96,79,343440,120
89,70,343560,120
95,78,343680,120
101,68,343800,120
96,78,343920,120
89,78,343920,120
63,56,344640,720
66,56,344640,720
72,66,344640,720
67,56,345360,1440
64,56,345360,720
72,68,345360,2640
64,61,346080,720
67,61,346800,720
67,60,347520,960
63,42,348960,475
69,50,348960,475
63,40,349440,238
69,48,349440,238
64,45,349680,475
70,54,349680,475
64,43,350160,238
70,52,350160,238
65,47,350400,475
71,56,350400,475
65,45,350880,238
77,54,350880,238
65,49,351120,475
72,58,351120,475
65,49,351600,238
69,53,351840,475
74,63,351840,475
69,51,352320,238
74,61,352320,238
70,50,352560,360
74,60,352560,360
70,44,352992,168
74,52,353016,144
82,58,353040,120
69,40,353232,408
72,49,353256,384
81,56,353280,360
70,39,353712,168
72,46,353736,144
79,52,353760,120
69,34,353952,528
72,39,353976,504
77,50,354000,480
99,40,354720,120
98,39,354840,120
101,42,354960,120
99,39,355080,120
98,39,355200,120
96,39,355320,120
94,41,355440,120
93,39,355560,120
96,43,355680,120
94,39,355800,120
93,39,355920,120
91,39,356040,120
89,42,356160,120
88,39,356280,120
91,44,356400,120
89,40,356520,120
88,40,356640,120
86,40,356760,120
84,42,356880,120
83,40,357000,120
86,45,357120,120
84,41,357240,120
82,41,357360,120
81,42,357480,120
86,44,357600,120
85,42,357720,120
87,47,357840,120
86,43,357960,120
84,43,358080,120
81,43,358200,120
82,47,358320,120
81,43,358440,120
84,48,358560,120
82,44,358680,120
79,44,358800,120
74,44,358920,120
72,48,359040,120
71,45,359160,120
74,50,359280,120
72,45,359400,120
70,45,359520,120
67,45,359640,120
69,48,359760,120
68,45,359880,120
70,51,360000,120
69,45,360120,120
65,47,360240,120
69,47,360360,120
63,55,360480,480
69,51,360600,120
68,51,360720,120
69,51,360840,120
63,52,360960,240
70,48,360960,120
69,48,361080,120
64,56,361200,480
70,53,361320,120
69,53,361440,120
70,53,361560,120
64,53,361680,240
72,51,361680,120
70,51,361800,120
65,58,361920,480
71,54,362040,120
70,54,362160,120
71,54,362280,120
65,56,362400,240
72,53,362400,120
71,53,362520,120
65,61,362640,480
72,55,362760,120
71,55,362880,120
72,56,363000,120
74,53,363120,120
72,53,363240,120
69,62,363360,480
74,57,363480,120
73,57,363600,120
74,57,363720,120
69,59,363840,240
76,56,363840,120
74,56,363960,120
74,63,364080,480
79,58,364200,120
78,58,364320,120
79,58,364440,120
74,60,364560,240
81,57,364560,120
79,58,364680,120
79,67,364800,480
84,61,364920,120
83,61,365040,120
84,61,365160,120
79,67,365280,240
86,59,365280,120
84,59,365400,120
84,69,365520,480
89,61,365640,120
88,63,365760,120
89,59,365880,120
84,66,366000,240
91,61,366000,120
89,61,366120,120
86,65,366240,120
85,60,366360,120
88,66,366480,120
86,63,366600,120
79,72,366720,240
88,75,366960,480
93,68,367080,120
92,69,367200,120
93,63,367320,120
88,72,367440,240
94,64,367440,120
93,65,367560,120
89,72,367680,120
88,65,367800,120
91,73,367920,120
89,67,368040,120
86,75,368160,240
91,85,368400,480
96,76,368520,120
95,78,368640,120
96,72,368760,120
91,81,368880,240
98,72,368880,120
96,74,369000,120
93,79,369120,120
92,73,369240,120
94,80,369360,120
93,73,369480,120
89,82,369600,240
91,48,369840,120
90,42,369960,120
93,48,370080,120
91,42,370200,120
86,43,370320,240
91,48,370560,120
90,42,370680,120
93,48,370800,120
91,42,370920,120
85,43,371040,240
91,48,371280,120
90,42,371400,120
93,48,371520,120
91,42,371640,120
84,43,371760,240
89,48,372000,480
101,43,372480,240
90,48,372720,120
93,42,372840,120
91,48,372960,120
86,42,373080,120
98,50,373200,120
90,48,373440,120
93,42,373560,120
91,48,373680,120
85,42,373800,120
97,49,373920,120
90,48,374160,120
93,42,374280,120
91,48,374400,120
84,42,374520,120
96,49,374640,120
92,48,374880,120
94,42,375000,120
93,48,375120,120
89,42,375240,120
101,50,375360,240
98,60,375600,120
97,55,375720,120
100,55,375840,120
98,55,375960,120
95,57,376080,120
91,53,376200,120
97,60,376320,120
96,55,376440,120
99,55,376560,120
97,55,376680,120
94,57,376800,120
91,54,376920,120
94,61,377040,120
93,55,377160,120
96,55,377280,120
94,55,377400,120
91,58,377520,120
88,55,377640,120
93,60,377760,120
92,55,377880,120
94,55,378000,120
93,55,378120,120
89,56,378240,120
84,55,378360,120
86,60,378480,120
85,55,378600,120
88,54,378720,120
86,53,378840,120
83,55,378960,120
79,50,379080,120
85,57,379200,120
84,52,379320,120
87,51,379440,120
85,51,379560,120
82,52,379680,120
79,49,379800,120
82,54,379920,120
81,49,380040,120
84,48,380160,120
82,48,380280,120
79,50,380400,120
76,47,380520,120
81,51,380640,120
80,46,380760,120
82,46,380880,120
81,45,381000,120
77,45,381120,120
72,44,381240,120
74,48,381360,120
73,44,381480,120
76,44,381600,120
74,44,381720,120
71,45,381840,120
67,42,381960,120
73,48,382080,120
72,44,382200,120
75,44,382320,120
73,44,382440,120
70,45,382560,120
67,43,382680,120
70,48,382800,120
69,44,382920,120
72,44,383040,120
70,44,383160,120
67,46,383280,120
64,44,383400,120
69,48,383520,120
68,44,383640,120
70,44,383760,120
69,44,383880,120
65,44,384000,120
60,44,384120,120
62,40,384240,140
61,37,384360,140
64,37,384480,140
62,36,384600,140
59,37,384720,140
55,34,384840,140
61,39,384960,140
60,36,385080,140
63,35,385200,140
61,35,385320,140
58,36,385440,140
55,34,385560,140
58,38,385680,140
57,35,385800,140
60,35,385920,140
58,34,386040,140
55,36,386160,140
52,34,386280,140
55,37,386400,140
54,34,386520,140
57,34,386640,140
55,34,386760,140
52,33,386880,140
48,33,387000,120
53,36,387120,140
52,33,387240,140
53,33,387360,140
48,32,387480,140
45,34,387600,140
48,32,387720,140
52,35,387840,140
51,32,387960,140
52,32,388080,140
46,32,388200,140
43,31,388320,140
46,31,388440,140
53,34,388560,140
52,31,388680,140
53,31,388800,140
48,31,388920,140
45,33,389040,140
48,31,389160,140
52,34,389280,140
51,31,389400,140
52,31,389520,140
46,31,389640,140
43,31,389760,140
46,31,389880,140
53,34,390000,140
52,31,390120,140
53,31,390240,140
48,31,390360,140
45,33,390480,140
48,31,390600,140
52,34,390720,140
51,31,390840,140
52,31,390960,140
46,31,391080,140
43,31,391200,140
46,31,391320,120
53,31,391440,240
45,26,391440,240
64,26,392160,120
72,31,392160,120
57,26,392880,120
65,31,392880,120
48,45,1440,228
64,35,1680,228
60,29,1680,228
58,29,1680,228
58,30,1920,228
60,30,1920,228
64,36,1920,228
58,30,2160,228
60,30,2160,228
64,36,2160,228
58,32,2400,228
60,32,2400,228
64,38,2400,228
58,33,2640,228
60,33,2640,228
64,39,2640,228
48,50,2880,228
64,35,3120,228
60,29,3120,228
58,29,3120,228
64,36,3360,228
60,30,3360,228
58,30,3360,228
64,37,3600,228
60,31,3600,228
58,31,3600,228
64,38,3840,228
60,32,3840,228
58,32,3840,228
64,39,4080,228
60,33,4080,228
58,33,4080,228
53,50,4320,228
65,35,4560,228
60,29,4560,228
57,29,4560,228
57,30,4800,228
60,30,4800,228
65,36,4800,228
57,31,5040,228
60,31,5040,228
65,37,5040,228
57,32,5280,228
60,32,5280,228
65,38,5280,228
57,33,5520,228
60,33,5520,228
65,39,5520,228
45,50,5760,228
65,41,6000,228
60,34,6000,228
57,34,6000,228
65,41,6240,228
60,34,6240,228
57,34,6240,228
65,42,6480,228
60,35,6480,228
57,35,6480,228
57,35,6720,228
60,35,6720,228
63,42,6720,228
57,35,6960,228
60,35,6960,228
63,42,6960,228
46,45,7200,228
62,35,7440,228
58,29,7440,228
55,29,7440,228
55,30,7680,228
58,30,7680,228
62,36,7680,228
55,30,7920,228
58,30,7920,228
62,36,7920,228
55,32,8160,228
58,32,8160,228
62,38,8160,228
55,33,8400,228
58,33,8400,228
62,39,8400,228
48,50,8640,228
60,35,8880,228
58,29,8880,228
55,29,8880,228
60,36,9120,228
58,30,9120,228
55,30,9120,228
60,37,9360,228
58,31,9360,228
55,31,9360,228
60,38,9600,228
58,32,9600,228
55,32,9600,228
60,39,9840,228
58,33,9840,228
55,33,9840,228
53,50,10080,228
57,33,10320,228
53,28,10320,228
53,28,10560,228
57,33,10560,228
53,28,10800,228
57,33,10800,228
53,28,11040,228
57,33,11040,228
53,27,11280,228
57,32,11280,228
53,40,11520,228
65,32,11760,228
60,27,11760,228
57,27,11760,228
65,32,12000,228
60,27,12000,228
57,27,12000,228
65,33,12240,228
60,28,12240,228
57,28,12240,228
57,28,12480,228
60,28,12480,228
65,33,12480,228
57,28,12720,228
60,28,12720,228
65,33,12720,228
60,38,12960,228
48,29,12960,228
64,29,13200,228
58,24,13200,228
58,25,13440,228
64,30,13440,228
58,25,13680,228
64,30,13680,228
58,27,13920,228
64,32,13920,228
58,28,14160,228
64,33,14160,228
60,42,14400,228
48,32,14400,228
64,29,14640,228
58,24,14640,228
64,30,14880,228
58,25,14880,228
64,31,15120,228
58,26,15120,228
64,32,15360,228
58,27,15360,228
64,33,15600,228
58,28,15600,228
65,37,15840,228
53,30,15840,228
60,29,16080,228
57,24,16080,228
57,25,16320,228
60,30,16320,228
57,26,16560,228
60,31,16560,228
57,27,16800,228
60,32,16800,228
57,28,17040,228
60,33,17040,228
57,42,17280,228
45,35,17280,228
60,34,17520,228
53,28,17520,228
60,34,17760,228
53,28,17760,228
60,35,18000,228
53,29,18000,228
51,29,18240,228
60,35,18240,228
51,29,18480,228
60,35,18480,228
58,38,18720,228
46,32,18720,228
62,29,18960,228
55,24,18960,228
50,24,18960,228
50,25,19200,228
55,25,19200,228
62,30,19200,228
50,25,19440,228
55,25,19440,228
62,30,19440,228
50,27,19680,228
55,27,19680,228
62,32,19680,228
50,28,19920,228
55,28,19920,228
62,33,19920,228
60,42,20160,228
48,35,20160,228
64,29,20400,228
58,24,20400,228
55,24,20400,228
64,30,20640,228
58,25,20640,228
55,25,20640,228
64,31,20880,228
58,26,20880,228
55,26,20880,228
60,32,21120,228
58,27,21120,228
55,27,21120,228
60,33,21360,228
58,28,21360,228
55,28,21360,228
41,37,21600,228
53,42,21600,228
48,23,21840,228
60,28,21840,228
57,23,21840,228
48,23,22080,228
57,23,22080,228
60,28,22080,228
48,23,22320,228
57,23,22320,228
60,28,22320,228
48,23,22560,228
57,23,22560,228
60,28,22560,228
48,22,22800,228
57,22,22800,228
60,27,22800,228
41,26,23040,228
53,34,23040,228
65,27,23280,228
60,22,23280,228
57,22,23280,228
65,27,23520,228
60,22,23520,228
57,22,23520,228
65,28,23760,228
60,23,23760,228
57,23,23760,228
65,38,24000,228
59,32,24000,228
55,32,24000,228
65,39,24240,228
59,33,24240,228
55,33,24240,228
48,50,24480,228
64,38,24720,228
60,31,24720,228
55,31,24720,228
55,33,24960,228
60,33,24960,228
64,39,24960,228
55,34,25200,228
60,34,25200,228
64,40,25200,228
55,35,25440,228
60,35,25440,228
64,41,25440,228
55,36,25680,228
60,36,25680,228
64,42,25680,228
49,55,25920,228
67,45,26160,228
64,37,26160,228
57,37,26160,228
67,45,26400,228
64,37,26400,228
57,37,26400,228
67,46,26640,228
64,38,26640,228
57,38,26640,228
67,41,26880,228
64,35,26880,228
57,35,26880,228
67,42,27120,228
64,36,27120,228
57,36,27120,228
50,55,27360,228
65,41,27600,228
62,34,27600,228
57,34,27600,228
57,36,27840,228
62,36,27840,228
65,42,27840,228
57,37,28080,228
62,37,28080,228
65,44,28080,228
57,38,28320,228
62,38,28320,228
65,45,28320,228
57,39,28560,228
62,39,28560,228
65,46,28560,228
52,55,28800,228
67,49,29040,228
60,40,29040,228
58,40,29040,228
67,49,29280,228
60,40,29280,228
58,40,29280,228
67,51,29520,228
60,42,29520,228
58,42,29520,228
67,46,29760,228
60,39,29760,228
58,39,29760,228
67,49,30000,228
60,40,30000,228
58,40,30000,228
53,58,30240,228
65,44,30480,228
60,37,30480,228
57,37,30480,228
57,39,30720,228
60,39,30720,228
65,46,30720,228
57,40,30960,228
60,40,30960,228
65,49,30960,228
57,41,31200,228
60,41,31200,228
65,50,31200,228
57,44,31440,228
60,44,31440,228
65,52,31440,228
47,62,31680,228
65,51,31920,228
62,42,31920,228
55,42,31920,228
65,51,32160,228
62,42,32160,228
55,42,32160,228
65,52,32400,228
62,44,32400,228
55,44,32400,228
65,45,32640,228
62,38,32640,228
55,38,32640,228
65,39,32880,228
62,33,32880,228
55,33,32880,228
48,45,33120,228
62,35,33360,228
58,29,33360,228
58,29,33600,228
62,35,33600,228
58,30,33840,228
62,36,33840,228
58,30,34080,228
64,37,34080,228
58,31,34320,228
64,37,34320,228
41,47,34560,228
65,34,34800,228
60,28,34800,228
57,28,34800,228
65,34,35040,228
60,28,35040,228
57,28,35040,228
65,35,35280,228
60,29,35280,228
57,29,35280,228
65,27,35520,228
59,22,35520,228
55,22,35520,228
65,27,35760,228
59,23,35760,228
55,23,35760,228
48,31,36000,228
60,36,36000,228
64,25,36240,228
55,20,36240,228
55,21,36480,228
64,25,36480,228
55,21,36720,228
64,26,36720,228
55,22,36960,228
64,27,36960,228
55,23,37200,228
64,27,37200,228
61,36,37440,228
49,31,37440,228
67,29,37680,228
64,24,37680,228
57,24,37680,228
67,30,37920,228
64,25,37920,228
57,25,37920,228
67,32,38160,228
64,27,38160,228
57,27,38160,228
67,30,38400,228
64,25,38400,228
57,25,38400,228
67,31,38640,228
64,26,38640,228
57,26,38640,228
62,40,38880,228
50,33,38880,228
65,28,39120,228
57,23,39120,228
57,24,39360,228
65,28,39360,228
57,24,39600,228
65,30,39600,228
57,26,39840,228
65,31,39840,228
57,27,40080,228
65,32,40080,228
64,42,40320,228
52,38,40320,228
67,34,40560,228
60,28,40560,228
58,28,40560,228
67,34,40800,228
60,29,40800,228
58,29,40800,228
67,37,41040,228
60,30,41040,228
58,30,41040,228
67,34,41280,228
60,28,41280,228
58,28,41280,228
67,35,41520,228
60,29,41520,228
58,29,41520,228
65,46,41760,228
53,41,41760,228
69,37,42000,228
60,30,42000,228
60,33,42240,228
69,40,42240,228
60,34,42480,228
69,41,42480,228
60,36,42720,228
69,42,42720,228
60,37,42960,228
69,45,42960,228
59,53,43200,228
47,45,43200,228
65,41,43440,228
56,34,43440,228
65,41,43680,228
56,34,43680,228
65,42,43920,228
56,36,43920,228
65,32,44160,228
56,28,44160,228
65,33,44400,228
56,28,44400,228
60,43,44640,228
48,37,44640,228
62,28,44880,228
58,23,44880,228
58,22,45120,228
62,27,45120,228
58,23,45360,228
62,27,45360,228
58,22,45600,228
64,27,45600,228
58,22,45840,228
64,27,45840,228
57,28,46080,480
65,34,46080,480
41,17,46560,480
48,20,46590,450
30,49,48720,240
42,58,48720,240
31,53,48960,240
43,64,48960,240
42,50,49200,240
54,59,49200,240
43,53,49440,240
55,64,49440,240
54,51,49680,240
66,60,49680,240
55,57,49920,240
67,67,49920,240
66,52,50160,240
78,63,50160,240
67,60,50400,240
79,72,50400,240
82,65,50640,120
79,58,50760,120
76,59,50880,120
72,57,51000,120
70,56,51120,120
67,54,51240,120
64,52,51360,240
32,49,51600,240
44,58,51600,240
33,53,51840,240
45,64,51840,240
44,50,52080,240
56,59,52080,240
45,53,52320,240
57,64,52320,240
56,51,52560,240
68,60,52560,240
57,57,52800,240
69,67,52800,240
68,52,53040,240
80,63,53040,240
69,60,53280,240
81,72,53280,240
60,47,54240,480
63,47,54240,480
69,47,54240,480
46,47,54720,240
55,37,54960,720
62,37,55200,240
58,37,55200,480
67,37,55440,240
43,40,55680,120
65,37,55920,240
59,37,55920,240
48,47,56160,120
60,50,56400,720
67,45,56640,240
64,45,56640,240
72,40,56880,240
58,46,57120,120
72,42,57360,240
67,42,57360,240
57,45,57600,120
60,49,57840,720
69,47,58080,240
65,47,58080,240
72,40,58320,240
53,48,58560,120
65,41,58800,240
57,41,58800,240
48,48,59040,480
52,36,59280,120
55,39,59400,120
64,45,59520,120
57,42,60000,480
54,35,60000,480
48,35,60000,480
48,32,60480,960
58,39,60480,480
55,32,60480,480
64,40,60960,480
60,33,60960,480
58,33,60960,480
67,43,61440,480
60,36,61440,480
58,36,61440,480
67,46,61920,960
60,39,61920,960
58,39,61920,960
56,44,62880,360
41,34,63240,600
48,38,63300,540
57,51,63360,480
60,52,63840,480
57,43,63840,480
65,55,64320,480
57,46,64320,480
65,59,64800,960
57,49,64800,960
47,63,66240,240
62,51,66480,1200
65,53,66720,960
68,56,66960,240
71,58,67200,480
67,56,67440,240
48,63,67680,240
55,46,67920,1200
58,48,68160,960
61,50,68400,240
64,52,68640,480
60,49,68880,240
41,43,69120,240
63,35,69360,240
72,43,69360,240
62,32,69600,240
70,38,69600,240
61,37,69840,480
65,44,69840,480
58,37,69840,240
60,44,70080,720
57,37,70080,240
64,38,70320,240
55,32,70320,240
53,38,70560,240
65,38,70560,240
41,27,71040,480
48,28,71070,450
53,29,71100,420
87,72,71760,240
88,77,72000,240
75,71,72240,240
76,76,72480,240
63,66,72720,240
64,72,72960,240
34,55,73200,240
46,67,73200,240
33,64,73440,240
45,76,73440,240
57,54,73680,120
52,47,73800,120
49,52,73920,120
46,51,74040,120
45,49,74160,120
43,48,74280,120
40,47,74400,120
37,50,74520,120
34,53,74640,120
33,55,74760,120
38,58,74880,120
41,58,75000,120
45,59,75120,120
49,60,75240,120
50,60,75360,120
53,61,75480,120
57,62,75600,120
61,63,75720,120
62,63,75840,120
37,55,76080,240
49,67,76080,240
36,64,76320,240
48,76,76320,240
55,57,76560,1200
58,61,76800,240
61,64,77040,240
60,57,77280,240
64,68,77280,720
58,63,77520,240
60,59,77760,240
57,59,77760,240
60,42,78000,480
65,50,78000,480
55,54,78240,480
65,49,78480,240
59,42,78480,240
60,45,78720,240
48,37,78720,480
58,37,78960,240
55,37,78960,240
64,44,78960,240
65,45,79200,240
53,37,79200,480
63,33,79440,240
60,33,79440,240
69,40,79440,240
58,67,79680,960
67,51,79920,720
65,43,79920,720
62,43,79920,720
48,51,80640,240
60,60,80640,240
64,68,80880,480
60,57,80880,480
58,57,80880,480
55,57,80880,480
70,68,81360,480
67,57,81360,480
60,57,81360,480
52,56,81840,240
58,67,81840,240
57,47,82080,240
60,56,82080,240
41,47,82560,480
48,47,82590,450
53,56,82620,420
87,72,83280,240
88,77,83520,240
75,71,83760,240
76,76,84000,240
63,66,84240,240
64,72,84480,240
34,55,84720,240
46,67,84720,240
33,64,84960,240
45,76,84960,240
57,54,85200,120
52,47,85320,120
49,52,85440,120
46,51,85560,120
45,49,85680,120
43,48,85800,120
40,47,85920,120
37,49,86040,120
34,51,86160,120
33,53,86280,120
38,55,86400,120
41,55,86520,120
45,56,86640,120
49,57,86760,120
50,57,86880,120
53,58,87000,120
57,59,87120,120
61,60,87240,120
62,60,87360,120
37,55,87600,240
49,67,87600,240
36,64,87840,240
48,76,87840,240
55,58,88080,1200
58,62,88320,240
61,65,88560,240
60,57,88800,240
64,69,88800,720
58,64,89040,240
60,60,89280,240
57,60,89280,240
60,42,89520,480
65,50,89520,480
55,54,89760,480
65,49,90000,240
59,42,90000,240
60,45,90240,240
48,37,90240,480
58,37,90480,240
55,37,90480,240
64,44,90480,240
65,45,90720,240
53,37,90720,480
63,33,90960,240
60,33,90960,240
69,40,90960,240
58,60,91200,960
67,51,91440,720
65,43,91440,720
62,43,91440,720
48,51,92160,240
60,60,92160,240
64,68,92400,480
60,57,92400,480
58,57,92400,480
55,57,92400,480
70,68,92880,480
67,57,92880,480
60,57,92880,480
52,56,93360,240
58,67,93360,240
57,47,93600,240
60,56,93600,240
41,47,94080,480
48,47,94110,450
53,56,94140,420
54,44,96240,480
55,46,96720,480
56,49,97200,480
57,51,97680,480
58,53,98160,480
59,55,98640,480
60,58,99120,480
53,61,99600,480
54,63,100080,480
55,60,100560,480
52,58,101040,480
53,54,101520,480
52,51,102000,480
50,49,102480,480
48,49,102960,480
46,48,103440,480
45,47,103920,480
43,46,104400,480
41,45,104880,480
40,41,105360,480
39,40,105840,480
40,35,106320,480
41,35,106800,480
36,35,107280,240
78,48,107760,480
79,49,108240,480
80,53,108720,480
81,56,109200,480
82,58,109680,480
83,60,110160,480
84,63,110640,480
77,66,111120,480
78,69,111600,480
79,66,112080,480
76,63,112560,480
77,59,113040,480
76,56,113520,480
74,54,114000,480
72,53,114480,480
70,52,114960,480
69,51,115440,480
67,50,115920,480
65,49,116400,480
64,45,116880,480
63,44,117360,480
64,38,117840,480
65,38,118320,480
72,38,118800,240
29,35,119280,480
41,44,119280,480
31,36,119760,480
43,46,119760,480
32,39,120240,480
44,49,120240,480
33,40,120720,480
45,51,120720,480
35,42,121200,480
47,53,121200,480
36,44,121680,480
48,55,121680,480
37,46,122160,480
49,58,122160,480
38,48,122640,480
50,61,122640,480
64,69,123120,480
65,66,123600,480
66,63,124080,480
67,59,124560,480
68,56,125040,480
69,54,125520,480
68,53,126000,480
69,52,126480,480
67,51,126960,480
68,50,127440,480
67,49,127920,480
64,45,128400,480
63,44,128880,480
64,38,129360,480
65,38,129840,480
72,38,130320,240
29,35,130800,480
41,44,130800,480
31,36,131280,480
43,46,131280,480
32,39,131760,480
44,49,131760,480
33,40,132240,480
45,51,132240,480
35,42,132720,480
47,53,132720,480
36,44,133200,480
48,55,133200,480
37,46,133680,480
49,58,133680,480
38,48,134160,480
50,61,134160,480
64,69,134640,480
65,66,135120,480
66,63,135600,480
67,59,136080,480
68,56,136560,480
69,54,137040,480
68,53,137520,480
69,52,138000,480
67,51,138480,480
68,50,138960,480
67,49,139440,480
64,44,139920,480
63,40,140400,480
64,33,140880,480
65,32,141360,480
72,32,141840,240
36,50,144000,120
64,41,144240,120
60,41,144240,120
40,51,144480,120
64,41,144720,120
60,41,144720,120
43,53,144960,120
64,44,145200,120
60,44,145200,120
48,54,145440,120
64,44,145680,120
60,44,145680,120
52,56,145920,120
64,45,146160,120
60,45,146160,120
55,58,146400,120
64,49,146640,120
60,49,146640,120
41,58,146880,240
62,62,147120,240
58,62,147120,240
53,62,147120,480
60,56,147360,240
57,56,147360,240
65,61,147600,240
59,61,147600,240
68,61,147600,240
60,54,147840,240
69,54,147840,240
65,62,148080,480
71,62,148080,240
74,62,148080,240
69,55,148320,240
72,55,148320,240
47,54,149760,480
59,41,150000,120
55,34,150000,120
50,55,150240,480
59,35,150480,120
62,42,150480,120
55,56,150720,480
62,44,150960,120
59,37,150960,120
48,56,151200,480
60,45,151440,240
58,38,151440,240
52,58,151680,480
60,47,151920,240
58,39,151920,240
55,61,152160,480
60,51,152400,240
58,43,152400,240
53,43,152640,120
60,56,152640,120
57,43,152640,120
53,43,152880,120
56,43,152880,120
61,56,152880,120
56,46,153120,720
62,60,153120,960
59,46,153120,960
53,46,153120,960
55,49,153840,720
52,45,154080,480
60,53,154080,480
57,53,155040,480
75,38,155280,240
72,32,155280,240
66,32,155280,240
58,56,155520,480
76,41,155760,240
72,34,155760,240
67,34,155760,240
64,57,156000,480
70,34,156240,240
72,34,156240,240
76,41,156240,240
67,60,156480,480
70,34,156720,480
72,34,156720,480
76,41,156720,480
67,60,156960,960
72,40,157200,228
76,48,157200,228
72,40,157440,228
76,48,157440,228
72,40,157680,228
76,48,157680,228
70,57,157920,480
72,40,158160,480
76,48,158160,240
69,40,158400,240
77,48,158400,240
68,40,158640,480
65,40,158640,480
71,48,158640,240
74,57,158640,240
69,41,158880,240
72,49,158880,240
88,51,159120,60
79,43,159120,60
86,59,159360,60
77,50,159360,60
84,58,159600,60
76,49,159600,60
82,57,159840,60
74,48,159840,60
81,55,160080,60
72,46,160080,60
79,54,160320,60
70,45,160320,60
77,53,160560,60
69,45,160560,60
74,51,160800,60
68,43,160800,60
69,42,161040,60
72,50,161040,60
67,42,161280,240
71,50,161280,240
62,43,161520,120
74,51,161520,120
59,44,161760,120
71,52,161760,120
55,45,162000,120
67,53,162000,120
65,54,162240,120
53,45,162240,120
62,57,162480,120
50,47,162480,120
48,48,162720,120
60,58,162720,120
43,50,162960,120
55,59,162960,120
40,52,163200,120
52,62,163200,120
36,54,163440,120
48,64,163440,120
34,57,163680,120
46,67,163680,120
31,59,163920,120
43,70,163920,120
29,58,164160,240
41,74,164160,240
48,55,164400,240
53,55,164400,240
57,65,164400,240
33,58,164640,240
45,73,164640,240
48,54,164880,240
53,54,164880,240
57,64,164880,240
36,60,165120,240
48,75,165120,240
48,54,165360,240
53,54,165360,240
57,64,165360,240
41,60,165600,240
53,74,165600,240
57,72,166080,80
60,68,166160,80
65,68,166240,80
48,50,167040,120
64,41,167280,120
60,41,167280,120
55,51,167520,120
64,41,167760,120
60,41,167760,120
52,53,168000,120
64,44,168240,120
60,44,168240,120
45,50,168480,120
61,38,168720,120
57,38,168720,120
52,46,168960,120
61,36,169200,120
57,36,169200,120
45,45,169440,120
52,36,169680,120
49,36,169680,120
38,42,169920,120
54,34,170160,120
50,34,170160,120
45,43,170400,120
54,34,170640,120
50,34,170640,120
38,45,170880,120
54,37,171120,120
50,37,171120,120
43,50,171360,120
58,40,171600,240
55,40,171600,240
50,52,171840,120
58,45,172080,240
55,45,172080,240
43,59,172320,120
58,50,172560,240
55,50,172560,240
48,66,172800,480
55,56,173040,240
60,65,173280,480
64,65,173280,240
55,51,173520,240
64,54,173760,240
58,54,173760,480
55,47,174000,240
45,54,174240,120
65,47,174480,240
60,47,174480,240
57,54,174720,120
65,48,174960,240
60,48,174960,240
47,54,175200,120
65,47,175440,240
62,47,175440,240
55,47,175440,240
48,54,175680,120
65,47,175920,240
60,47,175920,240
57,47,175920,240
36,54,176640,120
52,47,176880,240
55,47,176880,240
41,54,177120,960
48,48,177360,120
60,50,177600,120
72,52,177840,120
81,59,178080,80
84,62,178160,80
89,65,178240,80
48,50,178560,120
64,41,178800,120
60,41,178800,120
55,51,179040,120
64,41,179280,120
60,41,179280,120
52,53,179520,120
64,44,179760,120
60,44,179760,120
45,50,180000,120
61,38,180240,120
57,38,180240,120
52,46,180480,120
61,36,180720,120
57,36,180720,120
45,45,180960,120
52,36,181200,120
49,36,181200,120
38,42,181440,120
54,34,181680,120
50,34,181680,120
45,43,181920,120
54,34,182160,120
50,34,182160,120
38,45,182400,120
54,37,182640,120
50,37,182640,120
43,50,182880,120
58,40,183120,240
55,40,183120,240
50,52,183360,120
58,45,183600,240
55,45,183600,240
43,59,183840,120
58,50,184080,240
55,50,184080,240
48,66,184320,480
55,56,184560,240
60,65,184800,480
64,65,184800,240
55,51,185040,240
64,54,185280,240
58,54,185280,480
55,47,185520,240
45,54,185760,120
65,47,186000,240
60,47,186000,240
57,54,186240,120
65,48,186480,240
60,48,186480,240
47,54,186720,120
65,47,186960,240
62,47,186960,240
55,47,186960,240
48,54,187200,120
65,47,187440,240
60,47,187440,240
57,47,187440,240
36,54,188160,120
52,47,188400,240
55,47,188400,240
41,54,188640,240
53,41,189120,240
57,45,189150,210
60,49,189180,180
65,53,189210,150
44,36,192240,480
63,32,192720,238
60,27,192720,238
51,27,192720,238
63,38,192960,475
60,31,192960,475
56,31,192960,475
63,35,193440,238
60,29,193440,238
51,29,193440,238
56,33,193680,475
60,33,193680,475
63,40,193680,475
51,30,194160,238
60,30,194160,238
63,36,194160,238
41,50,194400,480
65,43,194880,238
63,36,194880,238
53,36,194880,238
65,43,195120,475
63,36,195120,475
57,36,195120,475
65,40,195600,238
63,33,195600,238
53,33,195600,238
65,39,195840,475
63,33,195840,475
57,33,195840,475
65,34,196320,238
63,29,196320,238
53,29,196320,238
46,34,196560,480
65,31,197040,238
61,26,197040,238
53,26,197040,238
58,26,197280,475
61,26,197280,475
65,31,197280,475
53,25,197760,238
61,25,197760,238
65,30,197760,238
58,25,198000,475
61,25,198000,475
65,30,198000,475
53,26,198480,238
61,26,198480,238
65,31,198480,238
51,35,198720,2160
58,25,199200,238
67,30,199200,238
63,35,199440,475
60,29,199440,475
67,31,199920,238
58,26,199920,238
67,35,200160,475
63,29,200160,475
67,31,200640,238
58,26,200640,238
53,35,200880,2160
68,30,201360,238
58,25,201360,238
68,35,201600,475
62,29,201600,475
68,31,202080,238
58,26,202080,238
62,29,202320,475
68,35,202320,475
58,26,202800,238
68,31,202800,238
50,35,203040,720
58,26,203520,240
62,31,203520,240
53,35,203760,720
58,26,204240,240
62,31,204240,240
56,35,204480,720
62,26,204960,240
65,31,204960,240
58,26,204960,240
55,35,205200,2160
67,30,205680,238
58,25,205680,238
67,35,205920,475
63,29,205920,475
67,31,206400,238
58,26,206400,238
63,29,206640,475
67,35,206640,475
58,26,207120,238
67,31,207120,238
51,35,207360,720
63,27,207840,240
67,32,207840,240
55,37,208080,720
63,28,208560,240
67,34,208560,240
57,39,208800,720
63,30,209280,240
66,30,209280,240
58,31,209520,1920
70,37,209520,1920
63,29,210000,238
67,35,210000,238
63,29,210240,475
67,35,210240,475
63,29,210720,238
67,35,210720,238
63,33,210960,480
68,39,210960,480
62,29,211440,240
68,35,211440,240
63,32,211680,475
65,32,211680,475
68,38,211680,475
63,29,212160,238
65,29,212160,238
68,35,212160,238
63,30,212400,475
67,36,212400,475
63,36,212880,120
67,36,212880,120
51,39,213000,60
54,44,213060,60
66,50,213120,475
63,36,213600,120
66,36,213600,120
49,35,213720,60
53,37,213780,60
65,45,213840,475
61,36,214320,238
65,36,214320,238
61,39,214560,475
65,39,214560,475
61,36,215040,238
65,36,215040,238
60,39,215280,480
63,39,215280,418
65,39,215280,480
60,36,215760,240
63,36,215760,240
61,39,216000,475
65,39,216000,475
61,36,216480,238
65,36,216480,238
61,36,216720,475
65,36,216720,475
61,39,217200,238
65,39,217200,238
61,40,217440,475
65,40,217440,475
67,40,217440,475
61,45,217920,238
65,45,217920,238
67,45,217920,238
60,49,218160,475
64,49,218160,475
67,49,218160,475
60,39,218640,238
64,39,218640,238
67,39,218640,238
60,42,218880,475
64,42,218880,475
67,42,218880,475
60,37,219360,238
64,37,219360,118
48,42,219600,240
53,42,219600,240
47,41,220200,120
48,46,220320,240
36,41,220560,120
44,41,220800,240
49,47,221040,240
37,41,221280,120
53,41,221520,240
55,47,221760,240
43,41,222000,120
59,41,222240,240
60,47,222480,240
48,42,222720,120
56,43,222960,240
61,50,223200,240
49,44,223440,120
65,46,223680,240
67,54,223920,240
55,48,224160,120
71,49,224400,240
72,56,224640,240
60,51,224880,120
68,52,225120,240
73,60,225360,240
61,55,225600,120
77,56,225840,240
79,64,226080,240
67,57,226320,120
83,58,226560,240
84,61,226800,120
60,63,227430,570
67,66,227460,540
70,68,227490,510
76,71,227520,480
36,58,232560,120
46,54,232680,120
48,55,232800,120
52,55,232920,120
57,58,233040,120
58,55,233160,240
60,55,233280,120
64,55,233400,120
48,50,234960,240
58,45,235440,240
64,47,235920,240
70,51,236400,240
76,46,236880,240
82,43,237360,240
88,41,237840,480
48,30,239520,475
54,30,239520,475
60,36,239520,475
48,27,240000,238
54,27,240000,238
60,33,240000,238
48,31,240240,475
55,31,240240,475
60,37,240240,475
48,29,240720,238
55,29,240720,238
60,34,240720,238
48,36,240960,475
56,36,240960,475
62,43,240960,475
48,34,241440,238
56,34,241440,238
62,40,241440,238
48,39,241680,475
57,39,241680,475
60,47,241680,475
48,38,242160,238
57,38,242160,238
60,45,242160,238
48,45,242400,475
54,45,242400,475
62,53,242400,475
48,40,242880,238
54,40,242880,238
62,48,242880,238
48,41,243120,475
55,41,243120,475
62,49,243120,475
48,30,243600,238
53,30,243600,238
62,36,243600,238
48,34,243840,475
52,34,243840,475
60,40,243840,475
48,31,244320,238
55,31,244320,238
60,37,244320,238
48,30,244560,480
53,30,244560,480
60,36,244560,480
48,33,245040,240
48,32,245280,475
54,38,245280,475
57,38,245280,475
48,27,245760,238
54,32,245760,238
57,39,245760,238
48,36,246000,475
55,36,246000,475
58,44,246000,475
48,34,246480,238
55,34,246480,238
58,42,246480,238
48,38,246720,475
56,45,246720,475
59,45,246720,475
48,36,247200,238
56,43,247200,238
59,43,247200,238
48,37,247440,475
57,37,247440,713
60,46,247440,713
48,45,247920,238
48,45,248160,475
54,45,248160,475
62,55,248160,475
48,43,248640,238
57,43,248640,238
62,51,248640,238
48,46,248880,475
55,46,248880,475
62,55,248880,475
48,43,249360,238
53,43,249360,238
62,51,249360,238
48,47,249600,475
52,47,249600,475
60,57,249600,475
48,46,250080,238
55,46,250080,238
60,54,250080,238
48,49,250320,475
53,49,250320,475
60,57,250320,475
48,46,250800,238
48,46,251040,475
54,49,251040,475
57,55,251040,475
48,39,251520,238
54,46,251520,238
57,55,251520,238
48,52,251760,475
55,52,251760,475
58,62,251760,475
48,48,252240,238
55,48,252240,238
58,57,252240,238
48,51,252480,475
56,51,252480,475
59,61,252480,475
48,48,252960,238
56,57,252960,238
59,57,252960,238
48,50,253200,475
57,50,253200,713
60,60,253200,713
48,57,253680,238
48,56,253920,475
54,56,253920,475
62,65,253920,475
48,53,254400,238
57,53,254400,238
62,63,254400,238
46,67,254640,240
62,58,254880,240
67,59,255120,240
58,68,255360,720
60,58,255600,240
64,60,255840,240
57,69,256080,720
60,59,256320,240
65,61,256560,240
58,71,256800,720
62,62,257040,240
67,63,257280,240
60,74,257520,720
64,65,257760,240
69,66,258000,240
62,77,258240,720
65,67,258480,240
70,68,258720,240
64,78,258960,720
67,68,259200,240
72,69,259440,240
65,81,259680,720
69,68,259920,240
72,68,260160,240
66,82,260400,720
69,71,260640,240
74,71,260880,240
67,82,261120,720
70,71,261360,240
74,71,261600,240
61,48,261840,240
70,42,262080,480
76,43,262320,240
62,47,262560,240
69,43,262800,480
78,43,263040,240
55,47,263280,240
62,42,263520,480
71,43,263760,240
48,46,264000,240
55,45,264240,480
64,46,264480,240
53,50,264720,1200
57,43,264960,960
60,46,265200,240
69,50,265440,480
47,55,266160,240
56,50,266400,960
62,50,266640,720
65,53,266880,480
48,47,267600,240
57,42,267840,960
60,42,268080,720
65,45,268320,480
36,40,269040,180
55,36,269280,960
58,36,269520,720
64,40,269760,480
41,38,270480,180
53,32,270720,240
57,32,270960,240
65,37,271200,240
57,36,271440,240
60,36,271680,240
53,46,271920,1440
55,38,272160,240
60,40,272400,240
64,42,272640,240
55,44,272880,240
60,47,273120,240
53,46,273360,1440
58,42,273600,240
60,42,273840,240
64,45,274080,240
58,46,274320,240
60,47,274560,240
53,53,274800,1440
57,48,275040,240
60,48,275280,240
65,49,275520,240
57,50,275760,240
60,50,276000,240
52,55,276240,240
57,51,276480,720
61,51,276720,240
67,54,276960,240
57,50,277200,480
61,51,277440,240
50,55,277680,240
57,65,277920,720
62,53,278160,240
65,58,278400,240
57,67,278640,480
62,53,278880,240
48,58,279120,240
57,66,279360,720
62,53,279600,240
65,58,279840,240
57,71,280080,480
62,61,280320,240
46,76,280560,120
65,76,281280,840
58,64,281280,840
56,64,281280,840
53,64,281280,840
65,70,282120,120
62,69,282240,120
58,68,282360,120
56,67,282480,120
53,66,282600,120
50,65,282720,120
46,64,282840,120
44,63,282960,120
41,62,283080,120
38,61,283200,120
34,60,283320,120
33,52,283440,140
35,53,283560,140
37,54,283680,140
38,55,283800,140
40,56,283920,140
42,57,284040,140
44,58,284160,140
45,59,284280,140
47,60,284400,140
49,61,284520,140
50,62,284640,140
52,63,284760,140
54,64,284880,140
56,65,285000,140
57,66,285120,140
59,67,285240,140
61,69,285360,140
62,70,285480,140
64,71,285600,140
66,72,285720,140
68,73,285840,140
69,74,285960,140
71,75,286080,140
72,76,286200,140
73,79,286320,120
76,70,286440,120
81,68,286560,120
85,73,286680,120
83,70,286800,120
76,70,286920,120
73,77,287040,120
69,73,287160,120
64,71,287280,120
61,71,287400,120
64,66,287520,120
71,66,287640,120
61,71,287760,120
64,65,287880,120
69,65,288000,120
73,65,288120,120
71,63,288240,120
64,63,288360,120
61,71,288480,120
57,65,288600,120
52,65,288720,120
49,65,288840,120
52,63,288960,120
59,63,289080,120
49,60,289200,120
52,54,289320,120
57,53,289440,120
61,53,289560,120
59,50,289680,120
52,49,289800,120
49,56,289920,120
45,49,290040,120
40,46,290160,120
37,45,290280,120
40,42,290400,120
47,41,290520,120
33,41,290640,140
40,45,290760,140
48,48,290880,140
49,45,291000,140
47,40,291120,140
40,40,291240,140
33,41,291360,140
40,45,291480,140
48,48,291600,140
49,45,291720,140
47,40,291840,140
40,41,291960,140
33,31,292080,140
40,33,292200,140
48,36,292320,140
49,34,292440,140
47,29,292560,140
40,30,292680,140
33,31,292800,140
40,33,292920,140
48,36,293040,140
49,34,293160,140
47,27,293280,140
40,27,293400,140
33,31,293520,240
48,34,297120,120
60,29,297240,120
54,34,297360,120
60,30,297480,120
54,34,297600,120
60,30,297720,120
48,38,297840,120
60,31,297960,120
55,40,298080,120
60,32,298200,120
55,42,298320,120
60,31,298440,120
48,43,298560,120
62,32,298680,120
56,48,298800,120
62,39,298920,120
56,45,299040,120
62,33,299160,120
48,44,299280,120
60,34,299400,120
57,46,299520,120
60,35,299640,120
55,47,299760,120
60,36,299880,120
48,48,300000,120
62,37,300120,120
54,49,300240,120
62,39,300360,120
57,48,300480,120
62,38,300600,120
48,49,300720,120
62,40,300840,120
55,47,300960,120
62,40,301080,120
53,51,301200,120
62,38,301320,120
48,49,301440,120
60,38,301560,120
52,47,301680,120
60,38,301800,120
55,47,301920,120
60,38,302040,120
48,48,302160,120
60,38,302280,120
53,47,302400,120
60,37,302520,120
48,46,302640,120
60,37,302760,120
52,46,302880,480
57,36,303000,120
45,37,303120,120
57,37,303240,120
53,43,303360,240
57,38,303480,120
54,48,303600,480
58,38,303720,120
46,39,303840,120
58,39,303960,120
55,45,304080,240
58,38,304200,120
56,50,304320,480
60,37,304440,120
48,38,304560,120
60,38,304680,120
57,47,304800,240
60,40,304920,120
57,52,305040,480
62,41,305160,120
50,41,305280,120
62,41,305400,120
58,49,305520,240
62,42,305640,120
59,54,305760,480
64,43,305880,120
52,44,306000,120
64,44,306120,120
60,51,306240,240
64,42,306360,120
53,55,306480,480
65,45,306600,120
60,45,306720,120
65,46,306840,120
62,40,306960,240
65,37,307080,120
61,43,307200,240
64,31,307320,120
60,43,307440,240
64,32,307560,120
58,42,307680,240
64,31,307800,120
53,43,307920,120
57,43,307920,480
65,30,308040,120
60,33,308160,120
65,29,308280,120
62,32,308400,240
65,29,308520,120
61,34,308640,240
64,25,308760,120
60,34,308880,240
64,25,309000,120
58,34,309120,240
64,25,309240,120
53,34,309360,120
57,34,309360,240
65,26,309480,120
64,26,309600,120
65,26,309720,120
53,39,309840,240
65,27,309960,120
57,45,310080,240
65,27,310200,120
60,38,310320,240
65,27,310440,120
48,39,310560,240
65,27,310680,120
57,46,310800,240
64,28,310920,120
60,40,311040,240
64,28,311160,120
51,42,311280,240
63,29,311400,120
57,49,311520,240
63,29,311640,120
60,44,311760,240
63,31,311880,120
50,55,312000,240
62,31,312120,120
54,48,312240,240
62,31,312360,120
49,55,312480,240
61,33,312600,120
54,48,312720,240
61,34,312840,120
48,59,312960,240
60,35,313080,120
54,51,313200,240
60,35,313320,120
47,64,313440,240
59,37,313560,120
54,53,313680,240
59,37,313800,120
46,69,313920,240
58,39,314040,120
54,55,314160,240
58,39,314280,120
45,70,314400,240
57,40,314520,120
54,57,314640,240
57,42,314760,120
44,72,314880,240
56,43,315000,120
37,61,315120,240
49,73,315120,240
53,58,316320,240
61,69,316320,240
56,61,316560,240
65,72,316560,240
61,56,316800,240
68,67,316800,240
65,56,317040,240
73,67,317040,240
65,61,317280,240
73,72,317280,240
42,61,318000,480
54,61,318000,240
47,55,318240,240
40,61,318480,480
52,61,318480,240
45,54,318720,240
38,61,318960,480
50,61,318960,240
43,54,319200,240
36,56,319440,240
48,56,319440,240
37,58,319680,240
49,58,319680,240
38,59,319920,240
50,59,319920,240
39,61,320160,240
51,61,320160,240
40,63,320400,240
52,63,320400,240
41,65,320640,240
51,65,320640,240
46,63,320880,240
50,63,320880,240
39,54,321120,120
44,54,321360,120
49,60,321600,120
54,52,321840,120
59,52,322080,120
64,58,322320,120
63,50,322560,120
62,50,322800,120
61,57,323040,120
60,49,323280,120
59,49,323520,120
60,49,323760,240
72,46,324000,260
71,47,324240,260
70,47,324480,260
69,47,324720,260
68,48,324960,260
67,49,325200,260
65,45,325440,260
64,45,325680,260
63,45,325920,260
62,45,326160,260
61,45,326400,260
60,51,326640,220
60,49,326880,260
59,50,327120,260
58,54,327360,260
57,52,327600,260
56,53,327840,260
55,57,328080,260
53,53,328320,260
52,54,328560,260
51,55,328800,260
50,58,329040,260
49,60,329280,260
48,62,329520,120
58,57,329760,480
60,68,329760,240
64,63,330000,240
46,60,330240,120
55,56,330480,480
58,67,330480,240
64,62,330720,240
45,60,330960,120
52,55,331200,480
55,65,331200,240
64,61,331440,240
45,56,331680,120
49,51,331920,480
52,61,331920,240
57,53,332160,240
50,58,332400,120
53,56,332640,480
57,66,332640,240
62,61,332880,240
48,58,333120,120
53,56,333360,480
56,67,333360,240
62,61,333600,240
47,56,333840,120
50,56,334080,480
53,66,334080,240
62,59,334320,240
40,56,334560,120
44,54,334800,480
47,64,334800,240
52,57,335040,240
45,68,335280,240
45,62,335520,240
52,73,335520,240
50,57,335760,240
53,68,335760,240
48,61,336000,240
55,72,336000,240
53,56,336240,240
57,67,336240,240
52,61,336480,240
59,72,336480,240
60,67,336720,240
57,56,336720,240
55,63,336960,240
62,75,336960,240
64,69,337200,240
60,58,337200,240
64,75,337440,240
57,63,337440,240
65,70,337680,240
62,59,337680,240
60,63,337920,240
67,75,337920,240
69,69,338160,240
65,58,338160,240
57,54,338400,120
64,55,338520,120
62,56,338640,120
65,58,338760,120
60,70,338880,120
67,58,339000,120
65,59,339120,120
69,59,339240,120
64,61,339360,120
71,61,339480,120
69,75,339600,120
72,63,339720,120
67,61,339840,120
74,63,339960,120
72,64,340080,120
76,65,340200,120
69,80,340320,120
76,66,340440,120
74,66,340560,120
77,68,340680,120
72,68,340800,120
79,68,340920,120
81,72,341040,120
77,66,341040,120
73,53,341280,240
80,63,341280,240
81,66,341520,240
72,56,341520,240
73,56,341760,240
80,66,341760,240
81,66,342000,240
72,56,342000,240
73,56,342240,240
80,66,342240,240
72,56,342480,240
81,66,342480,240
73,56,342720,240
80,66,342720,240
72,56,342960,240
81,66,342960,240
73,56,343200,240
80,66,343200,240
72,56,343440,240
81,66,343440,240
73,56,343680,240
80,66,343680,240
72,55,343920,120
81,64,343920,120
48,59,344640,720
57,70,344640,720
48,59,345360,2640
58,77,345360,2640
48,34,348960,475
54,34,348960,475
60,40,348960,475
48,30,349440,238
54,30,349440,238
60,36,349440,238
48,34,349680,475
55,34,349680,475
60,40,349680,475
48,31,350160,238
55,31,350160,238
60,37,350160,238
48,38,350400,475
56,38,350400,475
62,46,350400,475
48,36,350880,238
56,36,350880,238
62,42,350880,238
48,41,351120,475
57,41,351120,475
60,49,351120,475
48,39,351600,238
57,39,351600,238
60,46,351600,238
48,45,351840,475
54,45,351840,475
62,53,351840,475
48,40,352320,238
54,40,352320,238
62,48,352320,238
48,41,352560,360
55,41,352560,360
62,49,352560,360
48,25,352920,240
55,32,352944,216
62,33,352968,192
48,30,353160,480
54,30,353184,456
63,37,353208,432
48,28,353640,240
55,28,353664,216
64,34,353688,192
48,27,353880,600
57,27,353904,576
65,33,353928,552
48,31,354480,180
48,34,354660,540
54,40,354690,510
63,40,354720,480
48,40,355200,180
48,38,355380,540
55,38,355410,510
62,45,355440,480
48,42,355920,180
48,37,356100,540
56,45,356130,510
65,45,356160,480
48,42,356640,180
48,37,356820,540
57,37,356850,510
60,45,356880,480
48,42,357360,180
48,42,357540,540
54,42,357570,510
62,51,357600,480
48,47,358080,180
48,42,358260,540
55,42,358290,510
62,51,358320,480
48,47,358800,180
48,43,358980,540
52,43,359010,510
60,52,359040,480
48,50,359520,180
48,45,359700,540
53,45,359730,510
60,53,359760,480
48,51,360240,240
48,41,360480,475
54,44,360480,475
60,51,360480,475
48,35,360960,238
54,41,360960,238
60,51,360960,238
48,47,361200,475
55,47,361200,475
60,58,361200,475
48,44,361680,238
55,44,361680,238
60,53,361680,238
48,46,361920,475
56,46,361920,475
62,57,361920,475
48,44,362400,238
56,54,362400,238
62,54,362400,238
48,46,362640,480
57,46,362640,720
60,56,362640,720
48,54,363120,240
48,53,363360,480
54,53,363360,480
62,62,363360,480
48,51,363840,240
54,51,363840,240
62,60,363840,240
46,64,364080,240
62,56,364320,240
67,57,364560,240
58,66,364800,720
60,56,365040,240
64,58,365280,240
57,67,365520,720
60,59,365760,240
65,61,366000,240
58,70,366240,720
62,62,366480,240
67,63,366720,240
60,74,366960,720
64,65,367200,240
69,66,367440,240
62,75,367680,720
65,68,367920,240
70,69,368160,240
64,84,368400,720
67,73,368640,240
72,74,368880,240
65,82,369120,720
69,73,369360,240
72,73,369600,240
53,40,369840,720
59,30,370080,228
62,30,370080,228
67,36,370080,228
59,30,370320,228
62,30,370320,228
67,36,370320,228
53,40,370560,720
58,30,370800,228
61,30,370800,228
67,36,370800,228
58,30,371040,228
61,30,371040,228
67,36,371040,228
53,40,371280,720
58,30,371520,228
60,30,371520,228
64,36,371520,228
58,30,371760,228
60,30,371760,228
64,36,371760,228
53,40,372000,720
57,30,372240,228
60,30,372240,228
65,36,372240,228
57,30,372480,228
60,30,372480,228
65,36,372480,228
53,40,372720,720
59,30,372960,228
62,30,372960,228
67,36,372960,228
59,30,373200,228
62,30,373200,228
67,36,373200,228
53,40,373440,720
58,30,373680,228
61,30,373680,228
67,36,373680,228
58,30,373920,228
61,30,373920,228
67,36,373920,228
53,40,374160,720
58,30,374400,228
60,30,374400,228
64,36,374400,228
58,30,374640,228
60,30,374640,228
64,36,374640,228
53,40,374880,720
57,30,375120,228
60,30,375120,228
65,36,375120,228
57,30,375360,228
60,30,375360,228
65,36,375360,228
53,45,375600,720
62,40,375840,240
59,40,375840,480
67,40,376080,240
53,47,376320,720
61,40,376560,240
58,40,376560,480
67,40,376800,240
53,46,377040,720
60,40,377280,240
58,40,377280,480
64,40,377520,240
53,47,377760,720
60,40,378000,240
57,40,378000,480
65,40,378240,240
53,45,378480,720
62,39,378720,240
59,39,378720,480
67,38,378960,240
53,44,379200,720
61,37,379440,240
58,37,379440,480
67,36,379680,240
53,41,379920,720
60,35,380160,240
58,35,380160,480
64,34,380400,240
53,39,380640,720
60,33,380880,240
57,33,380880,480
65,32,381120,240
41,36,381360,720
50,32,381600,240
47,32,381600,480
55,32,381840,240
41,37,382080,720
49,32,382320,240
46,32,382320,480
55,32,382560,240
41,36,382800,720
48,32,383040,240
46,32,383040,480
52,32,383280,240
41,37,383520,720
48,32,383760,240
45,32,383760,480
53,32,384000,240
29,30,384240,720
38,27,384480,240
43,26,384720,240
29,30,384960,720
37,26,385200,240
43,25,385440,240
29,28,385680,720
36,25,385920,240
40,25,386160,240
29,28,386400,720
36,30,386640,480
29,27,387120,720
36,29,387360,480
29,27,387840,720
37,29,388080,480
29,25,388560,720
36,27,388800,480
29,26,389280,720
37,28,389520,480
29,25,390000,720
36,29,390240,480
29,26,390720,960
37,28,390960,480
36,24,391440,240
48,22,392160,120
58,26,392160,120
41,22,392880,120
48,26,392880,120
