note,velocity,position,duration
60,55,0,40
65,60,40,40
68,66,80,40
72,75,120,720
70,57,840,120
68,67,960,360
70,58,1320,120
67,68,1440,360
68,51,1800,120
65,60,1920,360
66,51,2280,120
63,62,2400,360
65,52,2760,120
61,60,2880,360
63,51,3240,120
60,60,3360,360
61,51,3720,120
58,60,3840,360
60,53,4200,120
56,63,4320,360
58,60,4680,120
54,68,4800,360
56,63,5160,120
53,72,5280,360
55,67,5640,120
52,78,5760,240
73,79,6240,240
67,66,6240,240
70,66,6240,240
72,41,7200,40
73,41,7240,40
75,41,7280,40
73,47,7320,240
72,41,7560,120
72,47,7680,480
77,53,8160,640
67,39,8800,160
70,39,8960,160
73,44,9120,160
70,38,9280,160
67,37,9440,160
65,46,9600,960
64,41,10560,240
78,51,10800,120
79,53,10920,120
80,56,11040,120
81,58,11160,120
82,61,11280,120
83,63,11400,120
72,55,11520,40
77,60,11560,40
80,66,11600,40
84,76,11640,720
82,47,12360,120
80,60,12480,120
82,50,12600,60
80,50,12660,60
79,46,12720,60
80,46,12780,60
82,54,12840,120
79,60,12960,120
80,49,13080,60
79,49,13140,60
77,45,13200,60
79,45,13260,60
80,51,13320,120
77,60,13440,120
79,48,13560,60
77,48,13620,60
76,43,13680,60
77,43,13740,60
78,49,13800,120
75,62,13920,120
77,49,14040,60
75,49,14100,60
74,44,14160,60
75,44,14220,60
77,52,14280,120
73,60,14400,120
75,49,14520,60
73,49,14580,60
72,47,14640,60
73,47,14700,60
75,51,14760,120
72,60,14880,120
73,50,15000,60
72,50,15060,60
71,44,15120,60
72,44,15180,60
73,51,15240,120
70,60,15360,120
73,52,15480,120
70,52,15600,120
73,48,15720,120
68,63,15840,120
73,56,15960,120
68,57,16080,120
73,55,16200,120
66,68,16320,120
73,62,16440,120
66,63,16560,120
73,59,16680,120
65,72,16800,120
73,65,16920,120
65,67,17040,120
73,67,17160,120
64,90,17280,240
82,75,17760,240
85,90,17760,240
79,75,17760,240
72,41,18720,40
73,41,18760,40
75,41,18800,40
73,47,18840,240
72,41,19080,120
72,46,19200,160
80,53,19360,160
79,47,19520,160
77,47,19680,160
72,43,19840,160
68,38,20000,160
67,47,20160,160
75,52,20320,160
72,39,20480,160
73,44,20640,160
70,38,20800,160
67,34,20960,160
65,53,21120,160
60,48,21280,160
65,49,21440,160
68,58,21600,160
65,50,21760,160
73,51,21920,160
72,66,22080,240
76,78,22560,180
67,66,22560,180
72,66,22560,180
77,78,23040,180
68,66,23040,180
72,66,23040,180
68,45,23280,120
72,28,23400,120
68,39,23520,120
72,28,23640,120
68,38,23760,120
72,31,23880,120
67,45,24000,120
71,30,24120,120
68,45,24240,120
72,32,24360,120
68,39,24480,120
72,27,24600,120
68,40,24720,120
72,30,24840,120
69,45,24960,120
75,31,25080,120
70,38,25200,120
73,30,25320,120
70,38,25440,120
73,32,25560,120
70,40,25680,120
73,28,25800,120
73,47,25920,120
77,38,26040,120
70,45,26160,120
73,32,26280,120
68,40,26400,120
73,31,26520,120
67,37,26640,120
73,31,26760,120
68,45,26880,120
73,30,27000,120
68,36,27120,120
72,27,27240,120
68,38,27360,120
72,31,27480,120
68,33,27600,120
72,28,27720,120
68,47,27840,120
72,30,27960,120
66,35,28080,120
70,31,28200,120
66,40,28320,120
70,28,28440,120
66,36,28560,120
70,29,28680,120
66,45,28800,120
70,27,28920,120
65,34,29040,120
68,27,29160,120
65,36,29280,120
68,27,29400,120
65,32,29520,120
68,28,29640,120
65,45,29760,120
68,27,29880,120
64,33,30000,120
67,27,30120,120
64,39,30240,120
67,28,30360,120
64,36,30480,120
67,29,30600,120
65,60,30720,240
68,45,30960,120
72,28,31080,120
68,39,31200,120
72,28,31320,120
68,38,31440,120
72,31,31560,120
67,45,31680,120
71,30,31800,120
68,45,31920,120
72,32,32040,120
68,39,32160,120
72,27,32280,120
68,40,32400,120
72,30,32520,120
69,45,32640,120
75,31,32760,120
70,38,32880,120
73,30,33000,120
70,38,33120,120
73,31,33240,120
70,33,33360,120
73,28,33480,120
73,47,33600,120
77,38,33720,120
70,45,33840,120
73,32,33960,120
68,40,34080,120
73,31,34200,120
67,37,34320,120
73,31,34440,120
68,45,34560,120
73,30,34680,120
68,36,34800,120
72,27,34920,120
68,38,35040,120
72,31,35160,120
68,33,35280,120
72,28,35400,120
72,47,35520,120
75,30,35640,120
65,35,35760,120
70,31,35880,120
73,50,36000,120
77,34,36120,120
75,43,36240,120
73,35,36360,120
70,45,36480,120
73,27,36600,120
63,34,36720,120
68,27,36840,120
72,47,36960,120
75,35,37080,120
73,41,37200,120
72,36,37320,120
69,45,37440,120
72,27,37560,120
63,33,37680,120
67,27,37800,120
70,46,37920,120
73,36,38040,120
72,40,38160,120
70,34,38280,120
68,50,38400,240
68,45,38640,120
72,28,38760,120
68,39,38880,120
72,28,39000,120
68,38,39120,120
72,31,39240,120
71,45,39360,120
74,30,39480,120
72,45,39600,120
75,32,39720,120
72,39,39840,120
75,27,39960,120
72,40,40080,120
75,30,40200,120
72,45,40320,120
75,37,40440,120
73,44,40560,120
76,39,40680,120
79,52,40800,120
82,46,40920,120
72,44,41040,120
75,36,41160,120
73,48,41280,120
76,51,41400,120
79,55,41520,120
82,58,41640,120
80,61,41760,120
79,59,41880,120
77,57,42000,120
79,62,42120,120
80,72,42240,240
68,51,42480,120
72,32,42600,120
68,44,42720,120
72,32,42840,120
68,43,42960,120
72,35,43080,120
71,51,43200,120
74,34,43320,120
72,51,43440,120
75,36,43560,120
72,44,43680,120
75,31,43800,120
72,46,43920,120
75,34,44040,120
74,51,44160,120
77,42,44280,120
75,50,44400,120
78,44,44520,120
81,59,44640,120
84,52,44760,120
74,50,44880,120
77,41,45000,120
75,55,45120,120
78,58,45240,120
81,63,45360,120
84,66,45480,120
82,70,45600,120
81,67,45720,120
79,65,45840,120
81,71,45960,120
82,77,46080,240
73,51,46320,120
77,32,46440,120
73,44,46560,120
77,32,46680,120
73,43,46800,120
77,35,46920,120
72,51,47040,120
76,34,47160,120
73,51,47280,120
77,36,47400,120
73,44,47520,120
77,31,47640,120
73,46,47760,120
77,34,47880,120
82,72,48000,120
73,35,48120,120
76,46,48240,120
73,32,48360,120
75,44,48480,120
73,32,48600,120
76,43,48720,120
73,35,48840,120
80,67,48960,120
72,34,49080,120
77,45,49200,120
72,36,49320,120
75,44,49440,120
72,31,49560,120
80,63,49680,120
72,34,49800,120
85,72,49920,120
82,61,49920,120
73,35,50040,120
76,46,50160,120
73,32,50280,120
75,44,50400,120
73,32,50520,120
76,43,50640,120
73,35,50760,120
84,67,50880,120
80,56,50880,120
72,34,51000,120
77,45,51120,120
72,36,51240,120
75,44,51360,120
72,31,51480,120
80,63,51600,120
72,34,51720,120
84,70,51840,120
87,52,51960,120
77,57,52080,120
82,53,52200,120
85,62,52320,120
89,69,52440,120
87,57,52560,120
85,57,52680,120
82,63,52800,120
85,53,52920,120
75,53,53040,120
80,48,53160,120
84,62,53280,120
87,67,53400,120
85,53,53520,120
84,53,53640,120
81,66,53760,120
84,47,53880,120
75,53,54000,120
79,50,54120,120
82,61,54240,120
85,58,54360,120
84,53,54480,120
82,53,54600,120
80,67,54720,120
79,57,54840,120
77,64,54960,120
76,65,55080,120
75,67,55200,120
73,68,55320,120
72,69,55440,120
70,71,55560,120
68,75,55680,240
56,72,55920,120
56,72,56160,120
56,72,56400,120
55,78,56640,240
56,69,56880,120
56,69,57120,120
56,69,57360,120
57,72,57600,360
58,64,57960,60
60,59,58020,60
58,72,58080,360
60,65,58440,60
61,61,58500,60
63,72,58560,120
67,70,58800,120
70,70,58920,120
75,67,59040,120
79,70,59160,120
82,73,59280,120
87,75,59400,120
80,78,59520,240
56,72,59760,120
56,72,60000,120
56,72,60240,120
55,78,60480,240
56,69,60720,120
56,69,60960,120
56,69,61200,120
57,72,61440,360
58,64,61800,60
60,59,61860,60
58,72,61920,360
60,65,62280,60
61,59,62340,60
63,72,62400,120
64,70,62640,120
67,70,62760,120
72,67,62880,120
76,70,63000,120
79,73,63120,120
84,75,63240,120
77,78,63360,240
65,72,63600,120
56,61,63600,120
56,61,63840,120
65,72,63840,120
56,61,64080,120
65,72,64080,120
56,61,64320,360
64,78,64320,240
65,69,64560,120
56,58,64800,120
65,69,64800,120
56,58,65040,120
65,69,65040,120
65,72,65280,360
59,61,65280,480
66,64,65640,60
68,62,65700,60
66,72,65760,360
58,61,65760,240
68,65,66120,60
69,62,66180,60
68,72,66240,120
66,61,66240,120
60,61,66240,120
72,70,66480,120
75,70,66600,120
80,67,66720,120
84,70,66840,120
87,73,66960,120
92,75,67080,120
85,78,67200,240
65,72,67440,120
56,61,67440,120
56,61,67680,120
65,72,67680,120
56,61,67920,120
65,72,67920,120
64,78,68160,240
56,61,68160,360
65,69,68400,120
56,58,68640,120
65,69,68640,120
65,69,68880,120
56,58,68880,120
62,61,69120,240
65,61,69120,240
71,78,69120,240
65,58,69360,120
62,58,69360,120
70,69,69360,120
62,58,69600,120
70,69,69600,120
65,58,69600,120
62,58,69840,120
65,58,69840,120
70,69,69840,120
63,61,70080,120
67,72,70080,120
67,70,70320,240
70,70,70440,120
75,67,70560,120
79,70,70680,120
82,73,70800,120
87,75,70920,120
73,78,71040,240
67,61,71040,240
64,61,71040,240
72,69,71280,120
67,58,71280,120
64,58,71280,120
67,58,71520,120
72,69,71520,120
64,58,71520,120
67,58,71760,120
64,58,71760,120
72,69,71760,120
65,61,72000,120
69,72,72000,120
69,70,72240,240
72,70,72360,120
77,67,72480,120
81,70,72600,120
84,73,72720,120
89,75,72840,120
78,73,72960,240
90,87,72960,240
89,75,73200,180
77,63,73200,180
77,73,73440,240
89,87,73440,240
88,75,73680,180
76,63,73680,180
88,86,73920,240
76,73,73920,240
89,70,74160,180
77,59,74160,180
89,78,74400,240
77,66,74400,240
72,59,74640,180
84,70,74640,180
82,77,74880,240
70,65,74880,240
81,68,75120,180
69,57,75120,180
69,57,75360,240
81,68,75360,240
79,68,75600,180
67,57,75600,180
79,74,75840,240
67,62,75840,240
77,64,76080,121
65,54,76080,121
77,67,76320,121
65,56,76320,121
65,54,76560,121
77,64,76560,121
66,58,76800,240
78,69,76800,240
65,50,77040,180
77,60,77040,180
77,69,77280,240
65,58,77280,240
76,60,77520,180
64,50,77520,180
64,58,77760,240
76,68,77760,240
65,47,78000,180
77,56,78000,180
77,62,78240,240
65,52,78240,240
72,56,78480,180
60,47,78480,180
58,49,78720,240
70,57,78720,240
57,42,78960,180
69,50,78960,180
57,41,79200,240
69,49,79200,240
67,48,79440,180
55,40,79440,180
67,51,79680,240
55,43,79680,240
53,36,79920,121
65,43,79920,121
53,36,80160,121
65,44,80160,121
53,35,80400,121
65,41,80400,121
53,32,80640,121
65,39,80640,121
65,36,80880,121
53,31,80880,121
53,32,81120,121
65,39,81120,121
53,31,81360,121
65,36,81360,121
65,39,81600,121
53,32,81600,121
53,31,81840,121
65,36,81840,121
65,39,82080,121
53,32,82080,121
65,36,82320,121
53,31,82320,121
58,21,82560,480
64,33,82560,240
55,21,82560,480
61,21,82560,480
63,30,82800,121
63,33,83040,121
58,21,83040,120
55,21,83040,120
61,21,83040,121
63,30,83280,121
61,20,83280,121
55,20,83280,120
58,20,83280,120
61,21,83520,121
63,33,83520,121
55,21,83520,120
58,21,83520,120
61,20,83760,121
58,20,83760,120
55,20,83760,120
63,30,83760,121
63,33,84000,121
58,21,84000,120
55,21,84000,120
61,21,84000,121
55,20,84240,120
61,20,84240,121
58,20,84240,120
63,30,84240,121
56,28,84480,240
60,28,84480,240
63,35,84480,240
68,23,84720,180
63,23,84720,180
72,29,84720,180
68,23,84960,180
63,23,84960,180
72,29,84960,180
63,23,85200,180
68,23,85200,180
72,29,85200,180
71,33,85440,240
68,26,85440,240
62,26,85440,240
72,28,85680,180
63,22,85680,180
68,22,85680,180
72,31,85920,180
68,24,85920,180
63,24,85920,180
68,27,86160,180
72,34,86160,180
63,27,86160,180
75,38,86400,240
68,30,86400,240
66,30,86400,240
73,32,86640,180
65,25,86640,180
68,25,86640,180
68,25,86880,180
73,32,86880,180
65,25,86880,180
65,25,87120,180
68,25,87120,180
73,32,87120,180
73,33,87360,240
65,20,87360,240
68,26,87360,240
72,30,87600,240
65,24,87600,240
63,24,87600,240
65,24,87840,240
70,30,87840,240
61,24,87840,240
68,30,88080,240
65,24,88080,240
60,24,88080,240
63,28,88320,240
60,28,88320,240
68,35,88320,240
67,29,88560,180
58,23,88560,180
63,23,88560,180
67,29,88800,180
58,23,88800,180
63,23,88800,180
63,23,89040,180
67,29,89040,180
58,23,89040,180
58,26,89280,180
67,33,89280,180
63,26,89280,180
63,22,89520,180
67,28,89520,180
58,22,89520,180
63,24,89760,240
60,24,89760,240
68,31,89760,240
70,34,90000,240
61,27,90000,240
63,27,90000,240
61,30,90240,240
63,38,90240,240
68,32,90480,180
63,25,90480,180
60,25,90480,180
63,25,90720,180
60,25,90720,180
68,32,90720,180
68,32,90960,180
63,25,90960,180
60,25,90960,180
60,20,91200,180
68,33,91200,180
63,26,91200,180
63,24,91440,180
60,24,91440,180
68,30,91440,180
68,30,91680,360
72,42,91740,300
63,35,91740,300
63,24,92040,120
60,24,92040,120
68,30,92040,120
60,28,92160,240
68,35,92160,240
63,28,92160,240
63,23,92400,180
58,23,92400,180
67,29,92400,180
58,23,92640,180
63,23,92640,180
67,29,92640,180
67,29,92880,180
63,23,92880,180
58,23,92880,180
67,33,93120,180
58,26,93120,180
63,26,93120,180
63,22,93360,180
67,28,93360,180
58,22,93360,180
60,24,93600,240
63,24,93600,240
68,31,93600,240
70,34,93840,240
61,27,93840,240
63,27,93840,240
61,30,94080,240
63,38,94080,240
68,32,94320,180
60,25,94320,180
63,25,94320,180
60,25,94560,180
63,25,94560,180
68,32,94560,180
60,25,94800,180
63,25,94800,180
68,32,94800,180
68,33,95040,180
60,20,95040,180
63,26,95040,180
75,34,95280,240
72,27,95280,240
72,27,95520,240
80,42,95520,240
75,27,95520,240
75,27,95760,240
82,34,95760,240
79,27,95760,240
75,26,96240,180
84,33,96240,180
80,26,96240,180
84,33,96480,180
80,26,96480,180
75,26,96480,180
84,33,96720,180
80,26,96720,180
75,26,96720,180
80,29,96960,240
74,29,96960,240
83,37,96960,240
75,25,97200,180
80,25,97200,180
84,32,97200,180
84,35,97440,180
80,27,97440,180
75,27,97440,180
84,39,97680,180
75,31,97680,180
80,31,97680,180
87,43,97920,240
80,34,97920,240
78,34,97920,240
80,28,98160,180
77,28,98160,180
85,36,98160,180
85,36,98400,180
80,28,98400,180
77,28,98400,180
77,28,98640,180
85,36,98640,180
80,28,98640,180
80,29,98880,240
85,37,98880,240
77,23,98880,240
75,27,99120,240
77,27,99120,240
84,34,99120,240
77,27,99360,240
73,27,99360,240
82,34,99360,240
77,27,99600,240
80,34,99600,240
72,27,99600,240
80,40,99840,240
72,32,99840,240
75,32,99840,240
75,26,100080,180
70,26,100080,180
79,33,100080,180
79,33,100320,180
75,26,100320,180
70,26,100320,180
75,26,100560,180
79,33,100560,180
70,26,100560,180
75,29,100800,180
70,29,100800,180
79,37,100800,180
75,25,101040,180
79,32,101040,180
70,25,101040,180
72,27,101280,240
75,27,101280,240
80,35,101280,240
75,31,101520,240
82,39,101520,240
73,31,101520,240
73,34,101760,240
75,43,101760,240
75,28,102000,180
80,36,102000,180
72,28,102000,180
80,36,102240,180
72,28,102240,180
75,28,102240,180
75,28,102480,180
80,36,102480,180
72,28,102480,180
80,37,102720,180
75,29,102720,180
72,23,102720,180
80,34,102960,180
75,27,102960,180
72,27,102960,180
80,39,103200,360
75,44,103260,300
84,52,103260,300
75,27,103560,120
72,27,103560,120
80,34,103560,120
75,32,103680,240
80,40,103680,240
72,32,103680,240
75,26,103920,180
70,26,103920,180
79,33,103920,180
75,26,104160,180
70,26,104160,180
79,33,104160,180
70,26,104400,180
75,26,104400,180
79,33,104400,180
70,29,104640,180
79,37,104640,180
75,29,104640,180
75,25,104880,180
79,32,104880,180
70,25,104880,180
80,35,105120,240
75,27,105120,240
72,27,105120,240
75,31,105360,240
82,39,105360,240
73,31,105360,240
73,34,105600,240
75,43,105600,240
80,36,105840,180
75,28,105840,180
72,28,105840,180
75,28,106080,180
72,28,106080,180
80,36,106080,180
80,36,106320,180
75,28,106320,180
72,28,106320,180
80,37,106560,180
75,29,106560,180
72,23,106560,180
75,43,106800,120
87,36,106920,120
80,43,107040,120
87,36,107160,120
82,44,107280,120
87,36,107400,120
75,47,107520,120
87,36,107640,120
84,43,107760,120
75,36,107880,120
75,43,108000,120
87,36,108120,120
84,43,108240,120
75,36,108360,120
75,46,108480,120
87,36,108600,120
84,45,108720,120
75,36,108840,120
75,45,108960,120
87,39,109080,120
80,46,109200,120
92,36,109320,120
80,50,109440,120
92,36,109560,120
89,43,109680,120
80,36,109800,120
80,50,109920,120
92,36,110040,120
89,42,110160,120
80,36,110280,120
80,46,110400,120
92,36,110520,120
81,47,110640,120
93,40,110760,120
82,52,110880,120
94,36,111000,120
96,48,111120,120
84,48,111120,120
97,53,111240,120
85,53,111240,120
87,67,111360,120
99,53,111480,120
97,60,111600,120
87,53,111720,120
87,63,111840,120
99,53,111960,120
97,60,112080,120
87,50,112200,120
87,59,112320,120
99,45,112440,120
97,56,112560,120
87,48,112680,120
96,58,112800,120
99,47,112920,120
94,59,113040,120
99,52,113160,120
87,64,113280,120
99,43,113400,120
96,55,113520,120
87,44,113640,120
75,51,113760,120
87,43,113880,120
84,47,114000,120
75,41,114120,120
75,47,114240,120
87,39,114360,120
84,41,114480,120
75,38,114600,120
80,47,114720,120
92,42,114840,120
75,43,114960,120
87,37,115080,120
75,50,115200,120
87,37,115320,120
85,44,115440,120
75,37,115560,120
75,48,115680,120
87,37,115800,120
85,43,115920,120
75,37,116040,120
75,48,116160,120
87,37,116280,120
85,48,116400,120
75,44,116520,120
84,53,116640,120
87,46,116760,120
82,52,116880,120
87,47,117000,120
75,58,117120,120
87,36,117240,120
84,44,117360,120
75,36,117480,120
75,50,117600,120
87,36,117720,120
84,43,117840,120
75,36,117960,120
75,50,118080,120
87,36,118200,120
84,44,118320,120
75,36,118440,120
80,53,118560,120
92,44,118680,120
75,53,118800,120
87,47,118920,120
87,63,119040,120
99,52,119160,120
97,62,119280,120
87,50,119400,120
87,63,119520,120
99,54,119640,120
97,59,119760,120
87,51,119880,120
87,64,120000,120
99,48,120120,120
97,57,120240,120
87,46,120360,120
96,63,120480,120
99,52,120600,120
94,59,120720,120
99,48,120840,120
94,59,120960,1200
96,66,122160,240
97,71,122400,240
98,75,122640,240
99,79,122880,1440
91,66,124320,480
96,56,124800,120
99,49,124920,120
92,49,125040,120
96,45,125160,120
87,56,125280,120
92,50,125400,120
84,50,125520,120
87,45,125640,120
80,56,125760,120
84,50,125880,120
75,50,126000,120
80,50,126120,120
72,56,126240,120
75,50,126360,120
68,50,126480,120
72,45,126600,120
63,53,126720,120
68,44,126840,120
60,44,126960,120
63,40,127080,120
71,45,132000,240
68,38,132000,240
70,40,132240,240
73,48,132240,240
75,50,132480,480
71,42,132480,480
47,44,133680,240
51,37,133680,240
51,39,133920,240
46,47,133920,240
44,50,134160,240
51,42,134160,240
39,55,134400,240
51,39,134400,240
70,54,135840,240
73,64,135840,240
76,61,136080,240
73,51,136080,240
75,57,136320,480
71,48,136320,480
51,41,137760,240
47,57,137760,240
46,47,138000,240
51,39,138000,240
44,50,138240,240
51,42,138240,238
71,51,139680,240
68,43,139680,240
73,55,139920,240
70,46,139920,240
71,48,140160,480
75,57,140160,480
51,50,141360,240
54,42,141360,240
49,51,141600,240
54,42,141600,240
47,54,141840,240
54,45,141840,240
42,63,142080,240
54,44,142080,240
76,73,143520,240
73,62,143520,240
80,70,143760,240
76,58,143760,240
75,69,144000,480
78,65,144000,480
51,59,145440,240
54,43,145440,240
49,48,145680,240
54,40,145680,240
54,42,145920,238
47,50,145920,240
75,61,147120,240
73,64,147360,240
71,66,147600,240
68,66,147840,480
52,65,149040,240
51,68,149280,240
49,71,149520,240
46,76,149760,960
47,61,150720,240
75,68,150960,240
76,73,151200,240
77,77,151440,240
78,82,151680,1920
75,66,153600,480
47,44,154800,240
49,48,155040,240
50,45,155280,240
42,48,155520,1920
35,44,157440,480
39,48,158400,720
37,41,159120,80
35,35,159200,80
34,35,159280,80
68,38,160800,240
71,45,160800,240
70,40,161040,240
73,48,161040,240
75,50,161280,480
71,42,161280,480
47,44,162480,240
51,37,162480,240
51,39,162720,240
46,47,162720,240
44,50,162960,240
51,42,162960,240
39,55,163200,240
51,39,163200,238
73,64,164640,240
70,54,164640,240
73,51,164880,240
76,61,164880,240
75,57,165120,480
71,48,165120,480
47,57,166560,240
51,41,166560,240
51,39,166800,240
46,47,166800,240
51,42,167040,240
44,50,167040,240
68,43,168480,240
71,51,168480,240
70,46,168720,240
73,55,168720,240
71,48,168960,480
75,57,168960,480
51,50,170160,240
54,42,170160,240
54,42,170400,240
49,51,170400,240
47,54,170640,240
54,45,170640,240
54,44,170880,240
42,63,170880,240
76,73,172320,240
73,62,172320,240
80,70,172560,240
76,58,172560,240
78,65,172800,480
75,69,172800,480
54,43,174240,240
51,59,174240,240
54,40,174480,240
49,48,174480,240
54,42,174720,240
47,50,174720,240
75,61,175920,240
73,64,176160,240
71,66,176400,240
68,66,176640,480
52,65,177840,240
51,68,178080,240
49,71,178320,240
46,76,178560,960
47,61,179520,240
75,68,179760,240
76,73,180000,240
77,77,180240,240
78,82,180480,1920
75,66,182400,480
47,44,183600,240
49,48,183840,240
50,45,184080,240
42,48,184320,1920
35,44,186240,480
75,55,187440,240
75,55,187680,240
76,55,187920,240
75,60,188160,480
73,51,188160,480
70,51,188160,480
70,55,188640,240
51,55,189360,240
39,46,189360,240
39,46,189600,240
51,55,189600,240
34,46,189840,240
46,55,189840,240
47,60,190080,480
35,51,190080,480
44,59,190560,240
32,50,190560,240
71,58,191280,240
75,69,191280,240
75,69,191520,240
71,58,191520,240
71,58,191760,240
76,69,191760,240
70,53,192000,480
73,53,192000,480
75,75,192000,480
70,69,192480,240
51,63,193200,240
39,52,193200,240
51,63,193440,240
39,52,193440,240
34,52,193680,240
46,63,193680,240
35,58,193920,480
47,69,193920,480
44,64,194400,240
32,54,194400,240
75,72,195120,240
75,75,195360,240
75,79,195600,240
76,83,195840,240
40,77,196320,960
72,70,197280,360
74,67,197640,120
76,79,197760,240
40,77,198240,960
72,70,199200,360
74,67,199560,120
76,77,199680,240
40,66,200160,960
39,49,201120,480
38,56,201600,240
77,55,202080,720
77,50,202800,240
79,53,203040,240
80,56,203280,240
79,63,203520,240
39,42,204000,480
77,57,204720,240
75,50,204960,240
74,50,205200,240
72,59,205440,240
44,29,205920,480
41,26,206400,240
72,47,206880,480
74,51,207360,240
46,34,207840,480
47,39,208320,480
46,35,208800,480
75,46,209280,480
39,49,210240,960
41,61,211200,960
43,39,212160,960
44,39,213120,480
68,45,214560,240
70,48,214800,240
67,40,214800,240
68,42,215040,480
72,50,215040,480
48,44,216240,240
51,37,216240,240
51,39,216480,240
46,47,216480,240
44,50,216720,240
51,42,216720,240
51,39,216960,240
39,55,216960,240
70,54,218400,240
73,64,218400,240
77,61,218640,240
73,51,218640,240
72,48,218880,480
75,57,218880,480
51,41,220320,240
48,57,220320,240
51,39,220560,240
46,47,220560,240
44,50,220800,240
51,42,220800,238
72,51,222240,240
68,43,222240,240
70,46,222480,240
73,55,222480,240
72,48,222720,480
75,57,222720,480
48,42,223920,240
44,42,223920,960
51,50,223920,240
49,42,224160,240
53,51,224160,240
55,54,224400,240
46,45,224400,240
56,44,224640,240
48,63,224640,240
80,69,225840,240
72,58,225840,240
75,55,226080,240
79,65,226080,240
77,63,226320,240
73,52,226320,240
75,61,226560,480
72,60,226560,480
48,48,227760,240
51,48,227760,240
49,41,228000,240
46,34,228000,240
39,33,228240,240
46,39,228240,240
44,40,228480,240
48,48,228480,240
72,36,229920,240
68,30,229920,240
73,38,230160,240
70,32,230160,240
72,34,230400,480
75,41,230400,480
51,30,231600,240
48,25,231600,240
44,25,231600,960
49,27,231840,240
53,32,231840,240
55,34,232080,240
46,28,232080,240
48,37,232320,240
56,44,232320,240
72,35,233520,240
80,42,233520,240
75,33,233760,240
79,39,233760,240
77,36,234000,240
73,30,234000,240
75,42,234240,480
72,35,234240,480
48,37,235440,240
51,37,235440,240
46,28,235680,240
49,33,235680,240
46,33,235920,240
39,28,235920,240
48,37,236160,240
44,31,236160,240
51,37,237360,240
48,37,237360,240
46,28,237600,240
49,33,237600,240
39,28,237840,240
46,33,237840,240
44,31,238080,240
48,37,238080,240
51,32,239280,240
48,32,239280,240
46,23,239520,240
49,28,239520,240
39,23,239760,240
46,27,239760,240
32,24,240000,240
36,24,240000,240
44,29,240000,240
56,26,241920,120
60,22,242040,120
48,22,242160,120
51,22,242280,120
56,24,242400,120
60,18,242520,120
48,18,242640,120
51,18,242760,120
56,26,242880,120
60,22,243000,120
48,22,243120,120
51,22,243240,120
56,31,243360,120
60,24,243480,120
48,24,243600,120
51,24,243720,120
58,34,243840,120
60,24,243960,120
48,24,244080,120
52,24,244200,120
58,37,244320,120
60,29,244440,120
52,31,244560,120
58,31,244680,120
60,47,244800,120
64,33,244920,120
58,34,245040,120
60,35,245160,120
64,51,245280,120
70,39,245400,120
60,41,245520,120
64,42,245640,120
70,56,245760,120
72,45,245880,120
60,47,246000,120
64,49,246120,120
70,60,246240,120
72,48,246360,120
60,50,246480,120
64,51,246600,120
70,64,246720,120
72,50,246840,120
60,52,246960,120
64,55,247080,120
70,69,247200,120
72,59,247320,120
60,61,247440,120
64,63,247560,120
60,55,247680,40
65,60,247720,40
68,66,247760,40
72,76,247800,720
70,57,248520,120
68,67,248640,360
70,58,249000,120
67,68,249120,360
68,51,249480,120
65,60,249600,360
66,51,249960,120
63,62,250080,360
65,52,250440,120
61,60,250560,360
63,51,250920,120
60,60,251040,360
61,51,251400,120
58,60,251520,360
60,53,251880,120
56,63,252000,360
58,60,252360,120
54,68,252480,360
56,63,252840,120
53,72,252960,360
55,67,253320,120
52,78,253440,240
73,79,253920,240
67,66,253920,240
70,66,253920,240
72,41,254880,40
73,41,254920,40
75,37,254960,40
73,47,255000,240
72,41,255240,120
72,47,255360,480
77,53,255840,640
67,39,256480,160
70,39,256640,160
73,44,256800,160
70,38,256960,160
67,37,257120,160
65,46,257280,960
64,41,258240,240
78,51,258480,120
79,53,258600,120
80,56,258720,120
81,58,258840,120
82,61,258960,120
83,63,259080,120
72,55,259200,40
77,60,259240,40
80,66,259280,40
84,75,259320,720
82,47,260040,120
80,60,260160,360
92,60,260520,120
79,60,260640,360
91,58,261000,120
77,60,261120,360
89,58,261480,120
75,62,261600,360
87,68,261960,120
73,60,262080,360
85,65,262440,120
72,60,262560,360
84,61,262920,120
70,60,263040,120
82,52,263166,120
70,52,263280,120
82,47,263400,120
68,63,263520,120
80,56,263640,120
68,57,263760,120
80,60,263880,120
66,68,264000,120
78,62,264120,120
66,63,264240,120
78,58,264360,120
65,72,264480,120
77,65,264600,120
65,67,264720,120
77,62,264840,120
76,83,264960,240
64,70,264960,240
85,90,265440,240
82,75,265440,240
79,75,265440,240
72,41,266400,40
73,41,266440,40
75,38,266480,40
73,47,266520,240
72,41,266760,120
72,46,266880,160
80,53,267040,160
79,47,267200,160
77,47,267360,160
72,43,267520,160
68,43,267680,160
67,47,267840,160
75,52,268000,160
72,39,268160,160
73,44,268320,160
70,38,268480,160
67,37,268640,160
65,53,268800,160
60,48,268960,160
65,49,269120,160
68,58,269280,160
65,50,269440,160
73,51,269600,160
72,66,269760,240
76,78,270240,180
72,66,270240,180
67,66,270240,180
68,66,270720,180
72,66,270720,180
77,78,270720,180
68,45,270960,120
72,28,271080,120
68,39,271200,120
72,28,271320,120
68,38,271440,120
72,31,271560,120
67,45,271680,120
71,30,271800,120
68,45,271920,120
72,32,272040,120
68,39,272160,120
72,27,272280,120
68,40,272400,120
72,30,272520,120
69,45,272640,120
75,31,272760,120
70,38,272880,120
73,30,273000,120
70,38,273120,120
73,31,273240,120
70,33,273360,120
73,28,273480,120
73,47,273600,120
77,38,273720,120
70,45,273840,120
73,32,273960,120
68,40,274080,120
73,31,274200,120
67,37,274320,120
73,31,274440,120
68,45,274560,120
75,30,274680,120
68,36,274800,120
72,27,274920,120
68,38,275040,120
72,31,275160,120
68,33,275280,120
72,28,275400,120
68,47,275520,120
72,30,275640,120
66,35,275760,120
70,31,275880,120
66,40,276000,120
70,28,276120,120
66,36,276240,120
70,29,276360,120
66,45,276480,120
70,27,276600,120
65,34,276720,120
68,27,276840,120
65,36,276960,120
68,27,277080,120
65,32,277200,120
68,28,277320,120
65,45,277440,120
68,27,277560,120
64,33,277680,120
67,27,277800,120
64,39,277920,120
67,28,278040,120
64,36,278160,120
67,29,278280,120
65,54,278400,240
69,45,278640,120
72,28,278760,120
69,39,278880,120
72,28,279000,120
69,38,279120,120
72,31,279240,120
68,45,279360,120
71,30,279480,120
69,45,279600,120
72,32,279720,120
69,39,279840,120
72,27,279960,120
69,40,280080,120
72,30,280200,120
69,45,280320,120
75,31,280440,120
70,38,280560,120
74,30,280680,120
70,38,280800,120
74,31,280920,120
70,33,281040,120
74,28,281160,120
74,47,281280,120
77,38,281400,120
70,45,281520,120
74,32,281640,120
69,40,281760,120
74,31,281880,120
68,37,282000,120
74,31,282120,120
69,45,282240,120
74,30,282366,120
69,36,282480,120
72,27,282600,120
69,38,282720,120
72,31,282840,120
69,33,282960,120
72,28,283080,120
69,47,283200,120
72,30,283320,120
62,35,283440,120
67,31,283560,120
70,50,283680,120
74,34,283800,120
72,43,283920,120
70,35,284040,120
67,45,284160,120
70,27,284280,120
60,34,284400,120
65,27,284520,120
69,47,284640,120
72,35,284760,120
70,41,284880,120
69,36,285000,120
66,45,285120,120
69,27,285240,120
60,33,285360,120
64,27,285480,120
67,46,285600,120
70,36,285720,120
69,40,285840,120
67,34,285960,120
65,50,286080,240
69,45,286320,120
72,28,286440,120
69,39,286560,120
72,28,286680,120
69,38,286800,120
72,31,286920,120
68,45,287040,120
71,30,287160,120
69,45,287280,120
72,32,287400,120
69,39,287520,120
72,27,287640,120
69,40,287760,120
72,30,287880,120
69,45,288000,120
72,37,288120,120
70,44,288240,120
73,39,288360,120
76,52,288480,120
79,46,288600,120
69,44,288720,120
72,36,288840,120
70,48,288960,120
73,51,289080,120
76,55,289200,120
79,58,289320,120
77,61,289440,120
76,59,289560,120
74,57,289680,120
76,62,289800,120
77,67,289920,240
69,51,290160,120
72,32,290280,120
69,44,290400,120
72,32,290520,120
69,43,290640,120
72,35,290760,120
68,51,290880,120
71,34,291000,120
69,51,291120,120
72,36,291240,120
69,44,291360,120
72,31,291480,120
69,46,291600,120
72,34,291720,120
71,51,291840,120
74,42,291960,120
72,50,292080,120
75,44,292200,120
78,59,292320,120
81,52,292440,120
71,50,292560,120
74,41,292680,120
72,55,292800,120
75,58,292920,120
78,63,293040,120
81,66,293160,120
79,70,293280,120
78,67,293400,120
76,65,293520,120
78,71,293640,120
79,77,293760,240
70,51,294000,120
74,32,294120,120
70,44,294240,120
74,32,294360,120
70,43,294480,120
74,35,294600,120
69,51,294720,120
73,34,294840,120
70,51,294960,120
74,36,295080,120
70,44,295200,120
74,31,295320,120
70,46,295440,120
74,34,295560,120
79,72,295680,120
70,35,295800,120
73,46,295920,120
70,32,296040,120
72,44,296160,120
70,32,296280,120
73,43,296400,120
70,35,296520,120
77,67,296640,120
69,34,296760,120
74,45,296880,120
69,36,297000,120
72,44,297120,120
69,31,297240,120
77,63,297360,120
69,34,297480,120
79,61,297600,120
82,72,297600,120
70,35,297720,120
73,46,297840,120
70,32,297960,120
72,44,298080,120
70,32,298200,120
73,43,298320,120
70,35,298440,120
81,67,298560,120
77,56,298560,120
69,34,298680,120
74,45,298800,120
69,36,298920,120
72,44,299040,120
69,31,299160,120
77,63,299280,120
69,34,299400,120
81,70,299520,120
84,52,299640,120
74,57,299760,120
79,53,299880,120
82,62,300000,120
86,69,300120,120
84,57,300240,120
82,57,300360,120
79,63,300480,120
82,53,300600,120
72,53,300720,120
77,50,300840,120
81,62,300960,120
84,67,301080,120
82,53,301200,120
81,49,301320,120
78,66,301440,120
81,47,301560,120
72,53,301680,120
76,50,301800,120
79,61,301920,120
82,66,302040,120
81,53,302160,120
79,49,302280,120
77,67,302400,120
76,57,302520,120
74,64,302640,120
73,65,302760,120
72,67,302880,120
70,68,303000,120
69,69,303120,120
67,71,303240,120
65,75,303360,240
53,72,303600,120
53,72,303840,120
53,72,304080,120
52,78,304320,240
53,69,304560,120
53,69,304800,120
53,69,305040,120
54,72,305280,360
55,64,305640,60
57,59,305700,60
55,72,305760,360
57,65,306120,60
58,62,306180,60
60,72,306240,120
64,70,306480,120
67,70,306600,120
72,67,306720,120
76,70,306840,120
79,73,306960,120
84,75,307080,120
77,78,307200,240
53,72,307440,120
53,72,307680,120
53,72,307920,120
52,78,308160,240
53,69,308400,120
53,69,308640,120
53,69,308880,120
54,72,309120,360
55,64,309480,60
57,59,309540,60
55,72,309600,360
57,65,309960,60
58,60,310020,60
60,72,310080,120
61,70,310320,120
64,70,310440,120
69,67,310560,120
73,70,310680,120
76,73,310800,120
81,75,310920,120
74,78,311040,240
62,72,311280,120
53,61,311280,120
53,61,311520,120
62,72,311520,120
53,61,311760,120
62,72,311760,120
53,61,312000,240
61,78,312000,240
53,58,312240,120
62,69,312240,120
62,69,312480,120
53,58,312480,120
53,58,312720,120
62,69,312720,120
62,72,312960,360
56,61,312960,480
63,64,313320,60
65,59,313380,60
63,72,313440,360
55,61,313440,240
65,65,313800,60
66,61,313860,60
65,72,313920,120
63,61,313920,120
57,61,313920,120
69,70,314160,120
72,70,314280,120
77,67,314400,120
81,70,314520,120
84,73,314640,120
89,75,314760,120
82,78,314880,240
62,72,315120,120
53,61,315120,120
53,61,315360,120
62,72,315360,120
53,61,315600,120
62,72,315600,120
61,78,315840,240
53,61,315840,240
53,58,316080,120
62,69,316080,120
62,69,316320,120
53,58,316320,120
53,58,316560,120
62,69,316560,120
68,78,316800,240
62,61,316800,240
59,61,316800,240
59,58,317040,120
62,58,317040,120
67,69,317040,120
59,58,317280,120
62,58,317280,120
67,69,317280,120
62,58,317520,120
67,69,317520,120
59,58,317520,120
64,72,317760,120
60,61,317760,120
64,70,318000,240
67,70,318120,120
72,67,318240,120
76,70,318360,120
79,73,318480,120
84,75,318600,120
61,61,318720,240
70,78,318720,240
64,61,318720,240
64,58,318960,120
69,69,318960,120
61,58,318960,120
64,58,319200,120
69,69,319200,120
61,58,319200,120
64,58,319440,120
61,58,319440,120
69,69,319440,120
62,61,319680,120
66,72,319680,120
66,70,319920,240
69,70,320040,120
74,67,320160,120
78,70,320280,120
81,73,320400,120
86,75,320520,120
75,73,320640,240
87,87,320640,240
86,75,320880,180
74,63,320880,180
86,87,321120,240
74,73,321120,240
85,75,321360,180
73,63,321360,180
73,73,321600,240
85,86,321600,240
86,70,321840,180
74,59,321840,180
86,78,322080,240
74,66,322080,240
69,59,322320,180
81,70,322320,180
79,77,322560,240
67,65,322560,240
78,68,322800,180
66,57,322800,180
78,68,323040,240
66,57,323040,240
64,57,323280,180
76,68,323280,180
64,62,323520,240
76,74,323520,240
62,54,323760,121
74,64,323760,121
62,56,324000,121
74,67,324000,121
74,64,324240,121
62,54,324240,121
63,58,324480,240
75,69,324480,240
74,60,324720,180
62,50,324720,180
62,58,324960,240
74,69,324960,240
73,60,325200,180
61,50,325200,180
73,68,325440,240
61,58,325440,240
62,47,325680,180
74,56,325680,180
74,62,325920,240
62,52,325920,240
57,47,326160,180
69,56,326160,180
67,57,326400,240
55,49,326400,240
66,50,326640,180
54,42,326640,180
66,49,326880,240
54,41,326880,240
64,48,327120,180
52,40,327120,180
52,43,327360,240
64,51,327360,240
62,43,327600,121
50,36,327600,121
50,36,327840,121
62,44,327840,121
62,41,328080,121
50,35,328080,121
50,32,328320,121
62,39,328320,121
62,36,328560,121
50,31,328560,121
62,39,328800,121
50,32,328800,121
50,31,329040,121
62,36,329040,121
50,32,329280,121
62,39,329280,121
50,31,329520,121
62,36,329520,121
62,39,329760,121
50,32,329760,121
62,36,330000,121
50,31,330000,121
58,21,330240,240
61,33,330240,240
52,21,330240,240
55,21,330240,240
52,21,330480,120
55,21,330480,120
58,21,330480,120
60,30,330480,121
60,33,330720,121
55,21,330720,120
58,21,330720,121
52,21,330720,120
58,20,330960,121
60,30,330960,121
55,20,330960,120
52,20,330960,120
58,21,331200,121
52,21,331200,120
60,33,331200,121
55,21,331200,120
55,20,331440,120
52,20,331440,120
58,20,331440,121
60,30,331440,121
55,21,331680,120
52,21,331680,120
58,21,331680,121
60,33,331680,121
52,20,331920,120
60,30,331920,121
55,20,331920,120
58,20,331920,121
53,28,332160,240
60,35,332160,240
57,28,332160,240
65,23,332400,180
69,29,332400,180
60,23,332400,180
65,23,332640,180
69,29,332640,180
60,23,332640,180
65,23,332880,180
69,29,332880,180
60,23,332880,180
65,26,333120,240
68,33,333120,240
59,26,333120,240
69,28,333360,180
65,22,333360,180
60,22,333360,180
65,24,333600,180
69,31,333600,180
60,24,333600,180
69,34,333840,180
65,27,333840,180
60,27,333840,180
72,38,334080,240
65,30,334080,240
63,30,334080,240
70,32,334320,180
62,25,334320,180
65,25,334320,180
65,25,334560,180
62,25,334560,180
70,32,334560,180
62,25,334800,180
70,32,334800,180
65,25,334800,180
70,33,335040,240
65,26,335040,240
62,20,335040,240
69,30,335280,240
60,24,335280,240
62,24,335280,240
67,30,335520,240
58,24,335520,240
62,24,335520,240
62,24,335760,240
65,30,335760,240
57,24,335760,240
57,28,336000,240
65,35,336000,240
60,28,336000,240
64,29,336240,180
55,23,336240,180
60,23,336240,180
64,29,336480,180
55,23,336480,180
60,23,336480,180
64,29,336720,180
55,23,336720,180
60,23,336720,180
60,26,336960,180
64,33,336960,180
55,26,336960,180
60,22,337200,180
64,28,337200,180
55,22,337200,180
60,24,337440,240
65,31,337440,240
57,24,337440,240
58,27,337680,240
67,34,337680,240
60,27,337680,240
60,38,337920,240
58,30,337920,240
60,25,338160,180
65,32,338160,180
57,25,338160,180
57,25,338400,180
65,32,338400,180
60,25,338400,180
60,25,338640,180
65,32,338640,180
57,25,338640,180
57,20,338880,180
60,26,338880,180
65,33,338880,180
65,30,339120,180
60,24,339120,180
57,24,339120,180
65,30,339360,360
60,35,339420,300
69,42,339420,300
60,24,339720,120
65,30,339720,120
57,24,339720,120
57,28,339840,240
60,28,339840,240
65,35,339840,240
55,23,340080,180
64,29,340080,180
60,23,340080,180
60,23,340320,180
55,23,340320,180
64,29,340320,180
64,29,340560,180
55,23,340560,180
60,23,340560,180
55,26,340800,180
64,33,340800,180
60,26,340800,180
64,28,341040,180
60,22,341040,180
55,22,341040,180
57,24,341280,240
60,24,341280,240
65,31,341280,240
67,34,341520,240
58,27,341520,240
60,27,341520,240
58,30,341760,240
60,38,341760,240
57,25,342000,180
65,32,342000,180
60,25,342000,180
57,25,342240,180
60,25,342240,180
65,32,342240,180
57,25,342480,180
60,25,342480,180
65,32,342480,180
65,33,342720,180
60,26,342720,180
57,20,342720,180
72,34,342960,240
69,27,342960,240
69,27,343200,240
77,42,343200,240
72,27,343200,240
79,34,343440,240
76,27,343440,240
72,27,343440,240
72,26,343920,180
81,33,343920,180
77,26,343920,180
81,33,344160,180
72,26,344160,180
77,26,344160,180
77,26,344400,180
81,33,344400,180
72,26,344400,180
71,29,344640,240
77,29,344640,240
80,37,344640,240
72,25,344880,180
77,25,344880,180
81,32,344880,180
77,27,345120,180
81,35,345120,180
72,27,345120,180
81,39,345360,180
77,31,345360,180
72,31,345360,180
84,43,345600,240
75,34,345600,240
77,34,345600,240
74,28,345840,180
82,36,345840,180
77,28,345840,180
82,36,346080,180
74,28,346080,180
77,28,346080,180
74,28,346320,180
77,28,346320,180
82,36,346320,180
77,29,346560,240
74,23,346560,240
82,37,346560,240
72,27,346800,240
74,27,346800,240
81,34,346800,240
74,27,347040,240
70,27,347040,240
79,34,347040,240
74,27,347280,240
77,34,347280,240
69,27,347280,240
77,40,347520,240
72,32,347520,240
69,32,347520,240
72,26,347760,180
76,33,347760,180
67,26,347760,180
76,33,348000,180
67,26,348000,180
72,26,348000,180
72,26,348240,180
67,26,348240,180
76,33,348240,180
67,29,348480,180
76,37,348480,180
72,29,348480,180
76,32,348720,180
72,25,348720,180
67,25,348720,180
69,27,348960,240
77,35,348960,240
72,27,348960,240
79,39,349200,240
72,31,349200,240
70,31,349200,240
72,43,349440,240
70,34,349440,240
77,36,349680,180
72,28,349680,180
69,28,349680,180
77,36,349920,180
72,28,349920,180
69,28,349920,180
77,36,350160,180
72,28,350160,180
69,28,350160,180
72,29,350400,180
77,37,350400,180
69,23,350400,180
77,34,350640,180
72,27,350640,180
69,27,350640,180
77,39,350880,360
81,52,350940,300
72,44,350940,300
72,27,351240,120
69,27,351240,120
77,34,351240,120
72,32,351360,240
69,32,351360,240
77,40,351360,240
67,26,351600,180
72,26,351600,180
76,33,351600,180
67,26,351840,180
72,26,351840,180
76,33,351840,180
67,26,352080,180
72,26,352080,180
76,33,352080,180
76,37,352320,180
67,29,352320,180
72,29,352320,180
72,25,352560,180
67,25,352560,180
76,32,352560,180
77,35,352800,240
69,27,352800,240
72,27,352800,240
79,39,353040,240
70,31,353040,240
72,31,353040,240
70,34,353280,240
72,43,353280,240
77,36,353520,180
69,28,353520,180
72,28,353520,180
77,36,353760,180
69,28,353760,180
72,28,353760,180
72,28,354000,180
77,36,354000,180
69,28,354000,180
72,29,354240,180
77,37,354240,180
69,23,354240,180
72,43,354480,120
84,36,354600,120
77,43,354720,120
84,36,354840,120
79,44,354960,120
84,36,355080,120
72,47,355200,120
84,36,355320,120
81,43,355440,120
72,36,355560,120
72,43,355680,120
84,36,355800,120
81,43,355920,120
72,36,356040,120
72,46,356160,120
84,36,356280,120
81,45,356400,120
72,36,356520,120
72,45,356640,120
84,39,356760,120
77,46,356880,120
89,36,357000,120
77,50,357120,120
89,36,357240,120
86,43,357360,120
77,36,357480,120
77,50,357600,120
89,36,357720,120
86,42,357840,120
77,36,357960,120
77,48,358080,120
89,40,358200,120
78,51,358320,120
90,42,358440,120
79,57,358560,120
91,43,358680,120
81,53,358800,120
93,53,358800,120
82,59,358920,120
94,59,358920,120
84,67,359040,120
96,53,359160,120
94,60,359280,120
84,53,359400,120
84,63,359520,120
96,53,359640,120
94,60,359760,120
84,50,359880,120
84,59,360000,120
96,45,360120,120
94,56,360240,120
84,48,360360,120
93,58,360480,120
96,47,360600,120
91,59,360720,120
96,52,360840,120
84,64,360960,120
96,43,361080,120
93,55,361200,120
84,44,361320,120
84,51,361440,120
96,43,361560,120
93,47,361680,120
84,41,361800,120
84,47,361920,120
96,39,362040,120
93,41,362160,120
84,38,362280,120
89,47,362400,120
101,42,362520,120
84,43,362640,120
96,37,362760,120
84,50,362880,120
96,37,363000,120
94,44,363120,120
84,37,363240,120
84,48,363360,120
96,37,363480,120
94,43,363600,120
84,37,363720,120
84,48,363840,120
96,37,363960,120
94,48,364080,120
84,44,364200,120
93,53,364320,120
96,46,364440,120
91,52,364560,120
96,47,364680,120
84,58,364800,120
96,36,364920,120
93,48,365040,120
84,41,365160,120
84,54,365280,120
96,36,365400,120
93,48,365520,120
84,42,365640,120
84,57,365760,120
96,41,365880,120
93,48,366000,120
84,42,366120,120
89,53,366240,120
101,44,366360,120
84,53,366480,120
96,47,366600,120
84,63,366720,120
96,52,366840,120
94,62,366960,120
84,50,367080,120
84,63,367200,120
96,54,367320,120
94,59,367440,120
84,51,367560,120
84,64,367680,120
96,48,367800,120
94,57,367920,120
84,46,368040,120
93,63,368160,120
96,52,368280,120
91,59,368400,120
96,48,368520,120
91,59,368640,1200
93,66,369840,240
94,71,370080,240
95,75,370320,240
96,79,370560,1440
88,66,372000,480
89,56,372480,120
93,49,372600,120
84,49,372720,120
89,49,372840,120
81,56,372960,120
84,44,373080,120
77,46,373200,120
81,46,373320,120
72,51,373440,120
77,44,373560,120
69,44,373680,120
72,44,373800,120
65,51,373920,120
69,43,374040,120
60,43,374160,120
65,43,374280,120
69,47,374400,120
72,38,374520,120
60,38,374640,120
65,38,374760,120
69,40,374880,120
72,36,375000,120
60,35,375120,120
65,34,375240,120
69,39,375360,120
72,31,375480,120
60,30,375600,120
65,30,375720,120
69,38,375840,120
72,29,375960,120
60,29,376080,120
65,29,376200,120
80,45,377760,240
77,38,377760,240
82,48,378000,240
79,40,378000,240
84,50,378240,480
80,42,378240,480
56,44,379440,240
60,37,379440,240
60,39,379680,240
55,47,379680,240
53,50,379920,240
60,42,379920,240
60,39,380160,240
48,55,380160,240
79,54,381600,240
82,64,381600,240
85,61,381840,240
82,51,381840,240
84,57,382080,480
80,48,382080,480
56,57,383520,240
60,41,383520,240
55,47,383760,240
60,39,383760,240
53,50,384000,240
60,42,384000,240
77,43,385440,240
80,51,385440,240
79,46,385680,240
82,55,385680,240
80,48,385920,480
84,57,385920,480
63,42,387120,240
60,50,387120,240
58,51,387360,240
63,42,387360,240
56,54,387600,240
63,45,387600,240
51,63,387840,240
63,44,387840,240
85,73,389280,240
82,62,389280,240
85,58,389520,240
89,70,389520,240
84,69,389760,480
87,65,389760,480
60,59,391200,240
63,43,391200,240
63,40,391440,240
58,48,391440,240
56,50,391680,240
63,42,391680,240
84,61,392880,240
82,64,393120,240
80,66,393360,240
77,66,393600,480
49,65,394800,240
48,68,395040,240
46,71,395280,240
43,76,395520,960
44,61,396480,240
84,68,396720,240
85,73,396960,240
86,77,397200,240
87,82,397440,1920
84,66,399360,480
44,44,400560,240
46,48,400800,240
47,45,401040,240
39,48,401280,1920
32,44,403200,480
80,46,404400,240
84,55,404400,240
84,55,404640,240
80,46,404640,240
80,46,404880,240
85,55,404880,240
82,51,405120,480
84,60,405120,480
79,51,405120,480
79,55,405600,240
60,55,406320,240
48,46,406320,240
60,55,406560,240
48,46,406560,240
55,55,406800,240
43,46,406800,240
56,60,407040,480
44,51,407040,480
53,59,407520,240
41,50,407520,240
80,58,408240,240
84,69,408240,240
84,69,408480,240
80,58,408480,240
85,69,408720,240
80,58,408720,240
79,53,408960,480
82,53,408960,480
84,75,408960,480
79,69,409440,240
60,63,410160,240
48,52,410160,240
60,63,410400,240
48,52,410400,240
55,63,410640,240
43,52,410640,240
44,58,410880,480
56,69,410880,480
53,64,411360,240
41,54,411360,240
84,72,412080,240
84,75,412320,240
84,79,412560,240
85,83,412800,480
49,77,413280,960
81,70,414240,360
83,67,414600,120
85,79,414720,480
49,77,415200,960
81,70,416160,360
83,67,416520,120
85,77,416640,480
49,66,417120,960
48,49,418080,480
47,56,418560,240
86,63,419040,720
86,57,419760,240
88,60,420000,240
89,60,420240,240
88,69,420480,240
48,42,420960,480
86,63,421680,240
84,56,421920,240
83,56,422160,240
81,64,422400,240
53,29,422880,480
50,26,423360,240
81,54,423840,480
83,58,424320,240
55,34,424800,480
56,39,425280,480
55,35,425760,480
84,52,426240,480
48,49,427200,960
50,61,428160,960
52,39,429120,960
53,39,430080,480
77,45,431520,240
76,40,431760,240
79,48,431760,240
77,42,432000,480
81,50,432000,480
57,44,433200,240
60,37,433200,240
55,47,433440,240
60,39,433440,240
60,42,433680,240
53,50,433680,240
48,55,433920,240
60,39,433920,240
79,54,435360,240
82,64,435360,240
82,51,435600,240
86,61,435600,240
81,48,435840,480
84,57,435840,480
60,41,437280,240
57,57,437280,240
55,47,437520,240
60,39,437520,240
60,42,437760,240
53,50,437760,240
77,43,439200,240
81,51,439200,240
79,46,439440,240
82,55,439440,240
81,48,439680,480
84,57,439680,480
53,42,440880,960
60,50,440880,240
57,42,440880,240
62,51,441120,240
58,42,441120,240
55,45,441360,240
64,54,441360,240
65,44,441600,240
57,63,441600,240
81,58,442800,240
89,69,442800,240
84,55,443040,240
88,65,443040,240
82,52,443280,240
86,63,443280,240
81,60,443520,480
84,61,443520,480
60,48,444720,240
57,48,444720,240
55,34,444960,240
58,41,444960,240
48,33,445200,240
55,39,445200,240
57,48,445440,240
53,40,445440,240
81,36,446880,240
77,30,446880,240
82,38,447120,240
79,32,447120,240
81,34,447360,480
84,41,447360,480
57,25,448560,240
53,25,448560,960
60,30,448560,240
58,27,448800,240
62,32,448800,240
64,34,449040,240
55,28,449040,240
65,44,449280,240
57,37,449280,240
81,35,450480,240
89,42,450480,240
88,39,450720,240
84,33,450720,240
82,30,450960,240
86,36,450960,240
84,42,451200,480
81,35,451200,480
57,37,452400,240
60,37,452400,240
55,28,452640,240
58,33,452640,240
48,28,452880,240
55,33,452880,240
53,31,453120,240
57,37,453120,240
60,37,454320,240
57,37,454320,240
55,28,454560,240
58,33,454560,240
55,33,454800,240
48,28,454800,240
57,37,455040,240
53,31,455040,240
60,32,456240,240
57,32,456240,240
58,28,456480,240
55,23,456480,240
48,23,456720,240
55,27,456720,240
45,24,456960,240
41,24,456960,240
53,29,456960,240
65,47,458880,120
68,39,459000,120
56,39,459120,120
60,43,459240,120
65,54,459360,120
68,45,459480,120
56,45,459600,120
60,48,459720,120
65,64,459840,120
68,50,459960,120
56,52,460080,120
60,55,460200,120
68,69,460320,120
72,59,460440,120
60,61,460560,120
65,63,460680,120
60,55,460800,40
65,60,460840,40
68,66,460880,40
72,77,460920,720
70,47,461640,120
68,60,461760,360
70,54,462120,120
67,60,462240,360
68,51,462600,120
65,60,462720,120
67,48,462840,60
65,48,462900,60
64,48,462960,60
65,45,463020,60
66,45,463080,120
63,62,463200,120
65,49,463320,60
63,49,463380,60
62,49,463440,60
63,44,463500,60
65,47,463560,120
61,60,463680,120
63,49,463800,60
61,49,463860,60
60,49,463920,60
61,46,463980,60
63,46,464040,120
60,60,464160,120
61,50,464280,60
60,50,464340,60
59,50,464400,60
60,46,464460,60
61,46,464520,120
58,60,464640,120
61,52,464760,120
58,52,464880,120
61,53,465000,120
56,63,465120,120
61,56,465240,120
56,57,465360,120
61,60,465480,120
54,68,465600,120
61,62,465720,120
54,63,465840,120
61,59,465960,120
53,72,466080,120
61,65,466200,120
53,67,466320,120
61,67,466440,120
52,90,466560,240
67,75,467040,240
70,75,467040,240
73,90,467040,240
72,41,468000,40
73,41,468040,40
75,36,468080,40
73,47,468120,240
72,41,468360,120
72,46,468480,160
80,53,468640,160
79,47,468800,160
77,47,468960,160
72,43,469120,160
68,43,469280,160
67,47,469440,160
75,52,469600,160
72,39,469760,160
73,44,469920,160
70,38,470080,160
67,37,470240,160
65,44,470400,960
56,36,470560,160
58,37,470720,160
60,38,470880,160
58,36,471040,160
56,34,471200,160
61,32,471360,480
64,32,471360,960
60,44,471840,240
58,40,472080,240
65,38,472320,960
56,28,472480,160
58,31,472640,160
60,31,472800,160
58,29,472960,160
56,27,473120,160
64,25,473280,960
61,25,473280,480
60,35,473760,240
58,29,474000,240
56,26,474240,480
65,31,474240,480
56,25,475200,480
65,30,475200,480
60,25,475200,480
56,23,476160,960
60,23,476160,960
65,28,476160,960
48,51,0,1920
41,43,0,4800
56,51,0,1440
52,43,1440,480
43,36,1440,480
53,43,1920,2880
44,43,1920,480
45,39,2400,480
43,43,2880,480
45,40,3360,480
49,44,3840,480
48,41,4320,480
46,41,4800,480
49,49,4800,480
48,45,5280,480
44,38,5280,480
46,57,5760,240
43,47,5760,240
52,48,6240,240
55,48,6240,240
58,48,6240,240
61,57,6240,240
56,35,7680,480
53,29,7680,480
46,27,8640,480
49,27,8640,480
55,32,8640,480
48,29,9600,1200
53,32,9760,160
56,34,9920,160
60,37,10080,160
58,31,10240,160
56,31,10400,160
55,35,10560,240
48,51,11520,1920
56,51,11520,1440
41,43,11520,4080
52,43,12960,480
43,36,12960,480
53,43,13440,2160
44,43,13440,480
45,39,13920,480
43,43,14400,480
45,40,14880,480
49,44,15360,240
49,32,15600,120
53,37,15600,120
51,41,15840,120
48,32,15840,120
48,36,16080,120
51,44,16080,120
49,47,16320,120
46,39,16320,120
46,43,16560,120
49,51,16560,120
48,55,16800,120
44,46,16800,120
48,60,17040,120
44,49,17040,120
46,64,17280,240
43,54,17280,240
55,55,17760,240
58,55,17760,240
52,55,17760,240
61,65,17760,240
53,29,19200,480
56,35,19200,480
55,32,20160,480
49,27,20160,480
46,27,20160,480
56,43,21120,240
48,35,21120,240
53,35,21120,240
56,54,21600,160
53,46,21760,160
61,48,21920,160
60,54,22080,240
48,50,22560,180
60,60,22560,180
41,50,23040,180
53,60,23040,180
65,27,23520,480
53,22,23520,480
53,22,24480,480
65,27,24480,480
65,27,25440,480
53,22,25440,480
53,22,26400,480
65,27,26400,480
53,22,27360,480
65,27,27360,480
46,27,27840,240
54,22,28320,240
58,27,28320,240
48,27,28800,240
53,22,29280,240
56,27,29280,240
48,27,29760,240
52,22,30240,240
55,27,30240,240
41,40,30720,240
65,27,31200,480
53,22,31200,480
65,27,32160,480
53,22,32160,480
65,27,33120,480
58,22,33120,480
51,22,34080,480
63,27,34080,480
56,22,35040,480
63,27,35040,480
49,27,35520,240
61,22,36000,240
65,27,36000,240
51,27,36480,240
63,27,36960,240
60,22,36960,240
51,27,37440,240
55,22,37920,240
61,27,37920,240
56,41,38400,240
60,41,38400,240
63,27,38640,120
63,30,38880,120
63,27,39120,120
64,37,39360,240
63,27,39600,240
63,30,39840,120
63,27,40080,120
51,38,40320,240
63,27,40560,120
63,27,40800,120
63,27,41040,120
51,44,41280,240
63,37,41520,120
63,40,41760,120
51,44,42000,120
61,44,42000,120
63,44,42000,120
56,48,42240,240
63,48,42240,240
60,48,42240,240
63,31,42480,120
63,34,42720,120
63,31,42960,120
64,42,43200,240
63,31,43440,120
63,34,43680,120
66,31,43920,120
53,43,44160,240
65,31,44400,120
65,31,44640,120
65,31,44880,120
53,50,45120,240
65,42,45360,120
65,46,45600,120
65,50,45840,120
63,50,45840,120
53,50,45840,120
58,55,46080,240
61,55,46080,240
65,55,46080,240
65,31,46320,120
65,34,46560,120
65,31,46800,120
66,42,47040,240
65,31,47280,120
65,34,47520,120
65,31,47760,120
55,49,48000,960
61,31,48240,720
64,31,48240,240
63,34,48480,240
64,31,48720,240
56,50,48960,960
65,31,49200,240
60,31,49200,720
63,34,49440,240
68,31,49680,240
55,49,49920,960
61,31,50160,720
64,31,50160,240
63,34,50400,240
64,31,50640,240
56,50,50880,960
65,31,51120,240
60,31,51120,720
63,34,51360,240
68,31,51600,240
49,60,51840,120
65,53,52080,480
61,53,52080,480
61,44,52560,240
65,44,52560,240
51,60,52800,120
60,52,53040,480
63,52,53040,480
63,45,53520,240
60,45,53520,240
51,60,53760,120
61,46,54000,960
55,46,54000,480
63,46,54000,960
56,46,54480,240
58,46,54720,240
63,47,54960,120
61,47,54960,120
56,47,54960,120
63,51,55200,120
61,51,55200,120
55,51,55200,120
63,55,55440,120
51,55,55440,120
61,55,55440,120
60,59,55680,240
63,59,55680,240
56,59,55680,240
44,66,55920,120
44,66,56160,120
44,66,56400,120
43,69,56640,240
44,65,56880,120
44,65,57120,120
44,65,57360,120
45,68,57600,360
46,60,57960,60
48,57,58020,60
46,68,58080,360
48,62,58440,60
49,58,58500,60
51,68,58560,120
58,56,58800,240
51,56,58800,240
61,66,58800,240
51,56,59040,240
61,66,59040,240
58,56,59040,240
51,56,59280,240
61,66,59280,240
58,56,59280,240
60,72,59520,240
56,61,59520,240
44,66,59760,120
44,66,60000,120
44,66,60240,120
43,69,60480,240
44,65,60720,120
44,65,60960,120
44,65,61200,120
45,68,61440,360
46,60,61800,60
48,56,61860,60
46,68,61920,360
48,62,62280,60
49,58,62340,60
51,68,62400,120
55,56,62640,240
58,66,62640,240
48,56,62640,240
48,56,62880,240
58,66,62880,240
55,56,62880,240
48,56,63120,240
58,66,63120,240
55,56,63120,240
53,61,63360,240
56,72,63360,240
49,56,63600,120
53,66,63600,120
53,66,63840,120
49,56,63840,120
49,56,64080,120
53,66,64080,120
48,58,64320,240
52,69,64320,240
53,65,64560,120
49,55,64560,120
49,55,64800,120
53,65,64800,120
49,55,65040,120
53,65,65040,120
50,57,65280,480
53,68,65280,360
54,60,65640,60
56,57,65700,60
51,57,65760,480
54,68,65760,360
56,62,66120,60
57,59,66180,60
44,57,66240,120
51,68,66240,120
56,56,66480,240
66,66,66480,240
63,56,66480,240
66,66,66720,240
56,56,66720,240
63,56,66720,240
56,56,66960,240
66,66,66960,240
63,56,66960,240
65,72,67200,240
61,61,67200,240
53,66,67440,120
49,56,67440,120
53,66,67680,120
49,56,67680,120
53,66,67920,120
49,56,67920,120
48,58,68160,240
52,69,68160,240
49,55,68400,120
53,65,68400,120
49,55,68640,120
53,65,68640,120
53,65,68880,120
49,55,68880,120
56,69,69120,240
47,58,69120,240
53,58,69120,240
46,55,69360,120
53,55,69360,120
56,65,69360,120
56,65,69600,120
53,55,69600,120
46,55,69600,120
56,65,69840,120
46,55,69840,120
53,55,69840,120
51,57,70080,120
55,68,70080,120
63,56,70320,240
63,56,70560,240
67,66,70560,240
63,56,70800,240
67,66,70800,240
58,69,71040,240
49,58,71040,240
55,58,71040,240
55,55,71280,120
58,65,71280,120
48,55,71280,120
48,55,71520,120
58,65,71520,120
55,55,71520,120
48,55,71760,120
58,65,71760,120
55,55,71760,120
53,57,72000,120
57,68,72000,120
65,56,72240,240
69,66,72480,240
65,56,72480,240
65,56,72720,240
69,66,72720,240
54,51,72960,240
66,60,72960,240
65,52,73200,180
53,44,73200,180
53,51,73440,240
65,60,73440,240
52,44,73680,180
64,52,73680,180
64,60,73920,240
52,51,73920,240
65,49,74160,180
53,41,74160,180
65,54,74400,240
53,46,74400,240
48,41,74640,180
60,49,74640,180
46,45,74880,240
58,53,74880,240
45,39,75120,180
57,47,75120,180
57,47,75360,240
45,39,75360,240
55,47,75600,180
43,39,75600,180
43,43,75840,240
55,51,75840,240
41,37,76080,121
53,44,76080,121
41,39,76320,121
53,46,76320,121
41,37,76560,121
53,44,76560,121
54,48,76800,240
42,40,76800,240
53,41,77040,180
41,35,77040,180
53,48,77280,240
41,40,77280,240
52,41,77520,180
40,35,77520,180
52,48,77760,240
40,40,77760,240
53,39,78000,180
41,32,78000,180
41,36,78240,240
53,43,78240,240
48,39,78480,180
36,32,78480,180
46,39,78720,240
34,34,78720,240
33,29,78960,180
45,34,78960,180
33,28,79200,240
45,34,79200,240
43,33,79440,180
31,27,79440,180
43,35,79680,240
31,29,79680,240
29,24,79920,121
41,30,79920,121
41,30,80160,121
29,26,80160,121
41,28,80400,121
29,23,80400,121
41,27,80640,121
41,25,80880,121
41,27,81120,121
41,25,81360,121
41,27,81600,121
41,25,81840,121
41,27,82080,121
41,25,82320,121
52,22,82560,240
51,21,82800,121
51,22,83040,121
51,21,83280,121
51,22,83520,121
51,21,83760,121
51,22,84000,121
51,21,84240,121
44,33,84480,1920
51,25,84720,180
51,25,84960,180
51,25,85200,180
51,33,85440,240
56,26,85680,180
56,27,85920,180
56,29,86160,180
49,38,86400,1680
56,25,86640,180
56,25,86880,180
56,27,87120,180
56,33,87360,240
57,27,87600,240
58,27,87840,240
50,27,88080,240
53,27,88080,240
39,33,88320,1920
51,25,88560,180
51,25,88800,180
51,25,89040,180
51,33,89280,180
51,26,89520,180
51,27,89760,240
51,29,90000,240
44,38,90240,1440
51,25,90480,180
51,25,90720,180
51,27,90960,180
51,33,91200,180
51,27,91440,180
51,27,91680,240
44,27,91680,240
51,27,91920,240
48,27,91920,240
39,33,92160,1920
51,25,92400,180
51,25,92640,180
51,25,92880,180
51,33,93120,180
51,26,93360,180
51,27,93600,240
51,29,93840,240
44,38,94080,1140
51,25,94320,180
48,25,94560,180
51,27,94800,180
56,33,95040,180
63,31,95280,240
60,31,95280,240
68,31,95520,240
60,31,95520,240
63,31,95520,240
67,31,95760,240
70,31,95760,240
63,31,95760,240
56,46,96000,120
72,28,96240,180
68,23,96240,180
63,23,96240,180
68,23,96480,180
72,28,96480,180
63,23,96480,180
72,28,96720,180
63,23,96720,180
68,23,96720,180
68,31,96960,240
62,31,96960,240
71,37,96960,240
68,24,97200,180
63,24,97200,180
72,29,97200,180
63,26,97440,180
68,26,97440,180
72,31,97440,180
72,33,97680,180
68,28,97680,180
63,28,97680,180
61,43,97920,1680
68,23,98160,180
73,28,98160,180
65,23,98160,180
65,23,98400,180
73,28,98400,180
68,23,98400,180
68,26,98640,180
65,26,98640,180
73,31,98640,180
73,37,98880,240
68,31,98880,240
65,31,98880,240
65,26,99120,240
69,26,99120,240
72,31,99120,240
65,26,99360,240
70,31,99360,240
65,26,99600,240
62,26,99600,240
68,31,99600,240
51,37,99840,240
63,23,100080,180
58,23,100080,180
67,28,100080,180
58,23,100320,180
63,23,100320,180
67,28,100320,180
63,23,100560,180
67,28,100560,180
58,23,100560,180
63,31,100800,180
67,37,100800,180
58,31,100800,180
58,24,101040,180
63,24,101040,180
67,29,101040,180
68,31,101280,240
60,26,101280,240
63,26,101280,240
63,28,101520,240
61,28,101520,240
70,33,101520,240
56,43,101760,1200
63,23,102000,180
60,23,102000,180
68,28,102000,180
68,28,102240,180
63,23,102240,180
60,23,102240,180
60,26,102480,180
68,31,102480,180
63,26,102480,180
68,37,102720,180
63,31,102720,180
60,31,102720,180
60,26,102960,180
68,31,102960,180
63,26,102960,180
63,26,103200,240
72,31,103200,240
68,26,103200,240
63,26,103440,240
60,26,103440,240
68,31,103440,240
51,37,103680,240
63,23,103920,180
58,23,103920,180
67,28,103920,180
67,28,104160,180
63,23,104160,180
58,23,104160,180
63,23,104400,180
67,28,104400,180
58,23,104400,180
58,31,104640,180
67,37,104640,180
63,31,104640,180
63,24,104880,180
67,29,104880,180
58,24,104880,180
60,26,105120,240
63,26,105120,240
68,31,105120,240
70,33,105360,240
61,28,105360,240
63,28,105360,240
56,43,105600,1140
68,28,105840,180
63,23,105840,180
60,23,105840,180
63,23,106080,180
60,23,106080,180
68,28,106080,180
60,26,106320,180
63,26,106320,180
68,31,106320,180
60,31,106560,180
63,31,106560,180
68,37,106560,180
63,31,106800,240
60,31,106800,240
60,31,107040,240
68,31,107040,240
63,31,107040,240
67,31,107280,240
63,31,107280,240
70,31,107280,240
56,46,107520,120
63,23,107760,180
68,23,107760,180
72,28,107760,180
63,23,108000,180
68,23,108000,180
72,28,108000,180
63,23,108240,180
68,23,108240,180
72,28,108240,180
68,31,108480,240
62,31,108480,240
71,37,108480,240
63,24,108720,180
68,24,108720,180
72,29,108720,180
63,26,108960,180
68,26,108960,180
72,31,108960,180
72,33,109200,180
63,28,109200,180
68,28,109200,180
61,43,109440,1200
75,37,109440,240
68,31,109440,240
66,31,109440,240
68,23,109680,180
65,23,109680,180
73,28,109680,180
68,23,109920,180
73,28,109920,180
65,23,109920,180
65,26,110160,180
68,26,110160,180
73,31,110160,180
65,31,110400,240
73,37,110400,240
68,31,110400,240
63,26,110640,240
72,31,110640,240
65,26,110640,240
70,32,110880,240
61,27,110880,240
65,27,110880,240
68,33,111120,240
60,28,111120,240
63,28,111120,240
51,41,111360,240
67,32,111600,180
58,26,111600,180
63,26,111600,180
63,26,111840,180
67,32,111840,180
58,26,111840,180
67,32,112080,180
58,26,112080,180
63,26,112080,180
58,35,112320,180
63,35,112320,180
67,42,112320,180
63,27,112560,180
67,33,112560,180
58,27,112560,180
60,29,112800,240
63,29,112800,240
68,35,112800,240
70,37,113040,240
61,32,113040,240
63,32,113040,240
56,43,113280,960
61,31,113280,240
63,37,113280,240
68,32,113520,180
63,26,113520,180
60,26,113520,180
68,32,113760,180
60,26,113760,180
63,26,113760,180
68,35,114000,180
63,29,114000,180
60,29,114000,180
68,35,114240,240
72,42,114300,180
63,35,114300,180
60,26,114480,180
68,31,114480,180
63,26,114480,180
60,26,114720,180
68,31,114720,180
63,26,114720,180
63,26,114960,180
68,31,114960,180
60,26,114960,180
51,37,115200,240
67,28,115440,180
58,23,115440,180
63,23,115440,180
63,23,115680,180
58,23,115680,180
67,28,115680,180
63,23,115920,180
58,23,115920,180
67,28,115920,180
58,31,116160,180
63,31,116160,180
67,37,116160,180
63,24,116400,180
67,29,116400,180
58,24,116400,180
68,31,116640,240
63,26,116640,240
60,26,116640,240
61,28,116880,240
70,33,116880,240
63,28,116880,240
61,29,117120,240
63,33,117120,240
56,43,117120,960
63,23,117360,180
68,28,117360,180
60,23,117360,180
63,23,117600,180
68,28,117600,180
60,23,117600,180
68,31,117840,180
60,26,117840,180
63,26,117840,180
68,31,118080,240
72,37,118140,180
63,31,118140,180
63,26,118320,180
68,31,118320,180
60,26,118320,180
68,31,118560,180
60,26,118560,180
63,26,118560,180
68,31,118800,180
60,26,118800,180
63,26,118800,180
51,37,119040,240
58,23,119280,180
63,23,119280,180
67,28,119280,180
67,28,119520,180
63,23,119520,180
58,23,119520,180
63,23,119760,180
67,28,119760,180
58,23,119760,180
58,31,120000,180
67,37,120000,180
63,31,120000,180
63,24,120240,180
67,29,120240,180
58,24,120240,180
68,31,120480,240
63,26,120480,240
60,26,120480,240
70,33,120720,240
63,28,120720,240
61,28,120720,240
51,33,120960,240
70,33,121440,3360
63,33,121440,3360
61,33,121440,3360
68,33,124800,1440
56,33,124800,1440
63,33,124800,1440
60,33,124800,1440
56,46,127200,120
60,39,127320,120
51,39,127440,120
56,35,127560,120
60,44,127680,120
63,37,127800,120
51,37,127920,120
56,33,128040,120
60,43,128160,120
63,35,128280,120
51,35,128400,120
56,30,128520,120
60,41,128640,120
63,34,128760,120
51,34,128880,120
56,28,129000,120
60,40,129120,120
63,31,129240,120
51,31,129360,120
56,27,129480,120
60,38,129600,120
63,31,129720,120
51,30,129840,120
56,28,129960,120
60,38,130080,120
63,29,130200,120
51,29,130320,120
56,25,130440,120
44,37,130560,480
59,37,130560,120
32,28,130560,480
63,29,130675,120
51,29,130800,120
56,25,130920,120
59,37,131040,120
63,29,131160,120
51,29,131280,120
56,25,131400,120
59,37,131520,120
63,29,131640,120
51,29,131760,120
56,26,131880,120
59,37,132000,120
63,29,132120,120
61,36,132240,120
63,39,132360,120
59,47,132480,120
63,36,132600,120
51,36,132720,120
56,32,132840,120
59,40,132960,120
63,36,133080,120
51,36,133200,120
56,33,133320,120
59,45,133440,120
63,35,133560,120
56,35,133680,120
59,35,133680,120
63,35,133800,120
55,44,133920,120
61,44,133920,120
63,29,134040,120
59,31,134160,120
56,31,134160,120
63,27,134280,120
58,37,134400,120
55,37,134400,120
63,29,134515,120
51,29,134640,120
55,26,134760,120
58,37,134880,120
63,29,135000,120
51,29,135120,120
55,24,135240,120
58,37,135360,120
63,29,135480,120
51,29,135600,120
55,26,135720,120
58,42,135840,120
63,31,135960,120
61,31,136080,120
63,27,136200,120
59,39,136320,120
63,29,136447,120
51,29,136572,120
56,25,136692,120
59,42,136812,120
63,34,136932,120
51,34,137052,120
56,27,137172,120
59,41,137292,120
63,33,137412,120
51,33,137520,120
56,29,137640,120
59,37,137760,120
63,29,137892,120
61,29,138000,120
55,29,138000,120
63,26,138132,108
59,37,138240,120
56,37,138240,120
63,29,138355,120
51,29,138480,120
56,24,138600,120
59,38,138720,120
63,30,138840,120
51,31,138960,120
56,31,139080,120
59,40,139200,120
63,32,139320,120
51,32,139440,120
56,28,139560,120
59,42,139680,120
63,33,139800,120
54,41,139920,120
61,41,139920,120
66,44,140040,120
63,54,140160,120
59,54,140160,120
66,41,140280,120
54,41,140402,120
59,35,140520,120
63,46,140640,120
66,41,140760,120
54,41,140880,120
59,36,141000,120
63,51,141120,120
66,44,141240,120
59,46,141360,120
63,46,141360,120
66,47,141480,120
58,55,141600,120
64,55,141600,120
66,48,141720,120
63,50,141840,120
59,50,141840,120
66,54,141960,120
61,60,142080,120
58,60,142080,120
66,49,142200,120
54,49,142320,120
58,42,142440,120
61,52,142560,120
66,42,142680,120
54,42,142800,120
58,36,142920,120
61,58,143040,120
66,45,143160,120
54,45,143280,120
58,40,143400,120
61,56,143520,120
66,41,143640,120
64,41,143760,120
66,35,143880,120
63,53,144000,120
66,43,144120,120
54,43,144240,120
59,38,144360,120
63,48,144480,120
66,38,144600,120
54,38,144720,120
59,33,144840,120
63,45,144960,120
66,35,145080,120
54,35,145200,120
59,31,145320,120
59,38,145440,120
63,38,145440,120
66,30,145560,120
64,29,145680,120
58,29,145680,120
66,26,145800,108
63,37,145920,120
59,37,145920,120
66,29,146040,120
54,29,146160,120
59,25,146280,120
63,38,146400,120
66,30,146520,120
54,31,146640,120
59,26,146760,120
63,40,146880,120
66,32,147000,120
54,32,147120,120
59,28,147240,120
63,42,147360,120
66,33,147480,120
54,41,147600,120
59,44,147720,120
64,50,147840,120
59,36,147960,120
56,36,148080,120
59,32,148200,120
64,45,148320,120
68,36,148440,120
56,36,148560,120
59,33,148680,120
64,44,148800,120
68,37,148920,120
56,37,149040,120
61,37,149160,120
64,48,149280,120
68,38,149400,120
56,41,149520,120
61,44,149640,120
64,56,149760,120
66,42,149880,120
54,42,150000,120
61,35,150120,120
64,52,150240,120
66,42,150360,120
54,42,150480,120
61,36,150600,120
63,50,150720,120
66,40,150840,120
54,40,150960,120
59,36,151080,120
63,42,151200,120
66,33,151320,120
54,41,151440,120
59,44,151560,120
61,54,151680,120
66,41,151800,120
54,41,151920,120
59,35,152040,120
61,48,152160,120
66,39,152280,120
54,39,152400,120
59,39,152520,120
61,48,152640,120
66,32,152760,120
54,37,152880,120
58,35,153000,120
61,42,153120,120
66,29,153240,120
54,29,153360,120
58,25,153480,120
63,37,153600,120
66,29,153720,120
54,29,153840,120
59,25,153960,120
63,38,154080,120
66,30,154200,120
54,31,154320,120
59,28,154440,120
62,40,154560,120
66,32,154680,120
54,32,154800,120
59,28,154920,120
62,42,155040,120
66,33,155160,120
54,33,155280,120
59,28,155400,120
61,37,155520,120
66,29,155640,120
54,29,155760,120
59,24,155880,120
61,38,156000,120
66,29,156120,120
54,29,156240,120
59,24,156360,120
61,40,156480,120
66,28,156600,120
54,28,156720,120
58,28,156840,120
61,41,156960,120
66,29,157080,120
54,29,157200,120
58,25,157320,120
59,37,157440,120
63,29,157560,120
51,29,157680,120
54,25,157800,120
59,38,157920,120
63,30,158040,120
51,31,158160,120
54,28,158280,120
61,40,158400,120
63,32,158520,120
51,32,158640,120
55,28,158760,120
61,42,158880,120
63,29,158995,120
51,29,159120,120
55,26,159240,120
32,28,159360,480
44,37,159360,480
59,37,159360,120
63,29,159475,120
51,29,159600,120
56,26,159720,120
59,37,159840,120
63,29,159960,120
51,29,160080,120
56,26,160200,120
59,37,160320,120
63,29,160440,120
51,29,160560,120
56,26,160680,120
59,37,160800,120
63,29,160920,120
61,36,161040,120
63,39,161160,120
59,47,161280,120
63,36,161400,120
51,36,161520,120
56,32,161640,120
59,40,161760,120
63,36,161880,120
51,36,162000,120
56,32,162120,120
59,45,162240,120
63,35,162360,120
59,35,162480,120
56,35,162480,120
63,29,162600,120
61,44,162720,120
55,44,162720,120
63,29,162840,120
56,31,162960,120
59,31,162960,120
63,28,163080,120
55,37,163200,120
58,37,163200,120
63,29,163315,120
51,29,163440,120
55,24,163560,120
58,37,163680,120
63,29,163800,120
51,29,163920,120
55,25,164040,120
58,37,164160,120
63,29,164280,120
51,29,164400,120
55,26,164520,120
58,42,164640,120
63,31,164760,120
61,31,164880,120
63,29,165000,120
59,39,165120,120
63,29,165247,120
51,29,165372,120
56,24,165492,120
59,42,165612,120
63,34,165732,120
51,34,165852,120
56,28,165972,120
59,41,166092,120
63,33,166212,120
51,33,166320,120
56,29,166440,120
59,37,166560,120
63,29,166692,120
61,29,166800,120
55,29,166800,120
63,25,166932,108
59,37,167040,120
56,37,167040,120
63,29,167155,120
51,29,167280,120
56,25,167400,120
59,38,167520,120
63,30,167640,120
51,31,167760,120
56,28,167880,120
59,40,168000,120
63,32,168120,120
51,32,168240,120
56,27,168360,120
59,42,168480,120
63,33,168600,120
61,41,168720,120
54,41,168720,120
66,44,168840,120
63,54,168960,120
59,54,168960,120
66,41,169080,120
54,41,169202,120
59,36,169320,120
63,46,169440,120
66,41,169560,120
54,41,169680,120
59,36,169800,120
63,51,169920,120
66,44,170040,120
63,46,170160,120
59,46,170160,120
66,47,170280,120
64,55,170400,120
58,55,170400,120
66,48,170520,120
59,50,170640,120
63,50,170640,120
66,54,170760,120
61,60,170880,120
58,60,170880,120
66,49,171000,120
54,49,171120,120
58,43,171240,120
61,52,171360,120
66,42,171480,120
54,42,171600,120
58,36,171720,120
61,58,171840,120
66,45,171960,120
54,45,172080,120
58,36,172200,120
61,56,172320,120
66,41,172440,120
64,41,172560,120
66,36,172680,120
63,53,172800,120
66,43,172920,120
54,43,173040,120
59,38,173160,120
63,48,173280,120
66,38,173400,120
54,38,173520,120
59,33,173640,120
63,45,173760,120
66,35,173880,120
54,35,174000,120
59,32,174120,120
59,38,174240,120
63,38,174240,120
66,30,174360,120
64,29,174480,120
58,29,174480,120
66,25,174600,108
63,37,174720,120
59,37,174720,120
66,29,174840,120
54,29,174960,120
59,23,175080,120
63,38,175200,120
66,30,175320,120
54,31,175440,120
59,26,175560,120
63,40,175680,120
66,32,175800,120
54,32,175920,120
59,28,176040,120
63,42,176160,120
66,33,176280,120
54,41,176400,120
59,44,176520,120
64,50,176640,120
59,36,176760,120
56,36,176880,120
59,31,177000,120
64,45,177120,120
68,36,177240,120
56,36,177360,120
59,31,177480,120
64,44,177600,120
68,37,177720,120
56,37,177840,120
61,34,177960,120
64,48,178080,120
68,38,178200,120
56,41,178320,120
61,44,178440,120
64,56,178560,120
66,42,178680,120
54,42,178800,120
61,37,178920,120
64,52,179040,120
66,42,179160,120
54,42,179280,120
61,36,179400,120
63,50,179520,120
66,40,179640,120
54,40,179760,120
59,36,179880,120
63,42,180000,120
66,33,180120,120
54,41,180240,120
59,44,180360,120
61,54,180480,120
66,41,180600,120
54,41,180720,120
59,36,180840,120
61,48,180960,120
66,39,181080,120
54,39,181200,120
59,36,181320,120
61,48,181440,120
66,32,181560,120
54,37,181680,120
58,37,181800,120
61,42,181920,120
66,29,182040,120
54,29,182160,120
58,29,182280,120
63,37,182400,120
66,29,182520,120
54,29,182640,120
59,25,182760,120
63,38,182880,120
66,30,183000,120
54,31,183120,120
59,26,183240,120
62,40,183360,120
66,32,183480,120
54,32,183600,120
59,29,183720,120
62,42,183840,120
66,33,183960,120
54,33,184080,120
59,28,184200,120
61,37,184320,120
66,29,184440,120
54,29,184560,120
59,26,184680,120
61,38,184800,120
66,29,184920,120
54,29,185040,120
59,27,185160,120
61,40,185280,120
66,28,185400,120
54,28,185520,120
58,26,185640,120
61,41,185760,120
66,29,185880,120
54,29,186000,120
58,26,186120,120
63,37,186240,120
66,29,186360,120
54,29,186480,120
59,25,186600,120
63,38,186720,120
66,30,186840,120
54,31,186960,120
59,24,187080,120
63,45,187200,120
66,32,187320,120
54,32,187440,120
59,32,187560,120
63,47,187680,120
66,34,187800,120
54,38,187920,120
59,38,188040,120
63,50,188160,120
67,39,188280,120
55,39,188400,120
58,34,188520,120
63,51,188640,120
67,39,188760,120
55,40,188880,120
58,35,189000,120
63,49,189120,120
67,38,189240,120
55,38,189360,120
58,33,189480,120
63,51,189600,120
67,40,189720,120
55,41,189840,120
58,35,189960,120
63,59,190080,120
68,45,190200,120
56,46,190320,120
59,42,190440,120
63,64,190560,120
68,48,190680,120
56,50,190800,120
59,47,190920,120
63,58,191040,120
68,47,191160,120
56,47,191280,120
59,44,191400,120
63,54,191520,120
68,46,191640,120
56,46,191760,120
59,44,191880,120
63,57,192000,120
67,44,192120,120
55,44,192240,120
58,40,192360,120
63,58,192480,120
67,44,192600,120
55,46,192720,120
58,42,192840,120
63,56,192960,120
67,43,193080,120
55,43,193200,120
58,39,193320,120
63,58,193440,120
67,46,193560,120
55,47,193680,120
58,42,193800,120
63,67,193920,120
68,51,194040,120
56,51,194160,120
59,47,194280,120
63,69,194400,120
68,51,194520,120
56,51,194640,120
59,45,194760,120
63,60,194880,120
68,49,195000,120
56,49,195120,120
59,44,195240,120
63,59,195360,120
68,51,195480,120
56,51,195600,120
59,46,195720,120
64,65,195840,120
68,53,195960,120
56,53,196080,120
59,51,196200,120
64,62,196320,120
68,53,196440,120
56,53,196560,120
59,48,196680,120
64,62,196800,120
69,53,196920,120
57,53,197040,120
60,48,197160,120
64,62,197280,120
69,53,197400,120
57,53,197520,120
60,47,197640,120
64,65,197760,120
68,53,197880,120
56,53,198000,120
59,49,198120,120
64,62,198240,120
68,53,198360,120
56,53,198480,120
59,48,198600,120
64,62,198720,120
69,53,198840,120
57,53,198960,120
60,48,199080,120
64,62,199200,120
69,53,199320,120
57,53,199440,120
60,47,199560,120
64,65,199680,120
68,46,199800,120
56,46,199920,120
59,41,200040,120
64,55,200160,120
68,40,200280,120
56,40,200400,120
59,36,200520,120
64,40,200640,120
68,46,200760,120
56,37,200880,120
59,37,201000,120
63,37,201120,120
68,43,201240,120
56,37,201360,120
59,34,201480,120
65,37,201600,120
68,29,201720,120
56,29,201840,120
58,26,201960,120
65,38,202080,120
68,30,202200,120
56,31,202320,120
58,28,202440,120
65,41,202560,120
68,31,202680,120
56,31,202800,120
58,25,202920,120
65,40,203040,120
68,29,203160,120
56,32,203280,120
58,30,203400,120
63,44,203520,120
67,32,203640,120
55,32,203760,120
58,28,203880,120
63,44,204000,120
67,34,204120,120
55,34,204240,120
58,33,204360,120
63,41,204480,120
67,31,204600,120
55,31,204720,120
58,25,204840,120
63,40,204960,120
67,29,205080,120
55,31,205200,120
58,26,205320,120
63,37,205440,120
68,27,205560,120
56,27,205680,120
60,24,205800,120
63,37,205920,120
68,28,206040,120
56,28,206160,120
60,24,206280,120
65,37,206400,120
68,27,206520,120
56,27,206640,120
60,25,206760,120
65,37,206880,120
68,28,207000,120
56,28,207120,120
60,24,207240,120
65,37,207360,120
68,27,207480,120
56,27,207600,120
62,24,207720,120
65,37,207840,120
68,28,207960,120
56,28,208080,120
62,25,208200,120
65,37,208320,120
68,27,208440,120
56,27,208560,120
62,24,208680,120
65,37,208800,120
68,29,208920,120
56,29,209040,120
62,26,209160,120
63,40,209280,120
67,29,209400,120
55,29,209520,120
58,23,209640,120
63,38,209760,120
67,30,209880,120
55,30,210000,120
58,28,210120,120
63,30,210240,120
67,27,210360,120
55,27,210480,120
58,27,210600,120
63,45,210720,120
67,32,210840,120
55,35,210960,120
58,39,211080,120
62,49,211200,120
68,36,211320,120
56,36,211440,120
58,30,211560,120
62,46,211680,120
68,33,211800,120
56,31,211920,120
58,26,212040,120
61,37,212160,120
63,27,212280,120
51,27,212400,120
58,24,212520,120
61,37,212640,120
63,28,212760,120
51,28,212880,120
58,24,213000,120
60,37,213120,120
63,27,213240,120
51,27,213360,120
56,24,213480,120
60,37,213600,120
63,28,213720,120
51,28,213840,120
56,28,213960,120
60,37,214080,120
63,28,214200,120
51,28,214320,120
56,25,214440,120
60,37,214560,120
63,29,214680,120
58,36,214800,120
63,39,214920,120
60,47,215040,120
63,36,215160,120
51,36,215280,120
56,31,215400,120
60,40,215520,120
63,36,215640,120
51,36,215760,120
56,32,215880,120
60,45,216000,120
63,35,216120,120
60,35,216240,120
56,35,216240,120
63,31,216360,120
55,44,216480,120
61,44,216480,120
63,29,216600,120
56,31,216720,120
60,31,216720,120
63,27,216840,120
55,37,216960,120
58,37,216960,120
63,29,217075,120
51,29,217200,120
55,25,217320,120
58,37,217440,120
63,29,217560,120
51,29,217680,120
55,25,217800,120
58,37,217920,120
63,29,218040,120
51,29,218160,120
55,24,218280,120
58,42,218400,120
63,31,218520,120
61,31,218640,120
63,28,218760,120
60,39,218880,120
63,29,219007,120
51,29,219132,120
56,25,219252,120
60,42,219372,120
63,34,219492,120
51,34,219612,120
56,29,219732,120
60,41,219840,120
63,33,219972,120
51,33,220080,120
56,29,220200,120
60,37,220320,120
63,29,220452,120
61,29,220560,120
55,29,220560,120
63,28,220692,108
60,37,220800,120
56,37,220800,120
63,29,220915,120
51,29,221040,120
56,27,221160,120
60,38,221280,120
63,30,221400,120
51,31,221520,120
56,29,221640,120
60,40,221760,120
63,32,221880,120
51,32,222000,120
56,29,222120,120
60,42,222240,120
63,33,222360,120
61,41,222480,120
63,44,222600,120
60,54,222720,120
63,41,222840,120
51,41,222960,120
56,37,223080,120
60,46,223200,120
63,41,223320,120
51,41,223440,120
56,36,223560,120
60,51,223680,120
63,44,223800,120
60,46,223920,120
63,47,224040,120
61,55,224160,120
65,48,224280,120
58,50,224400,120
67,54,224520,120
60,60,224640,120
68,49,224760,120
56,49,224880,120
60,45,225000,120
63,52,225120,120
68,42,225240,120
56,42,225360,120
60,38,225480,120
63,58,225600,120
68,45,225720,120
60,45,225840,120
68,39,225960,120
63,56,226080,120
67,41,226200,120
61,41,226320,120
65,39,226440,120
60,53,226560,120
63,39,226680,120
51,39,226800,120
56,37,226920,120
60,46,227040,120
63,34,227160,120
51,34,227280,120
56,30,227400,120
60,40,227520,120
63,31,227640,120
60,31,227760,120
56,31,227760,120
63,27,227880,120
55,43,228000,120
61,43,228000,120
63,35,228120,120
58,35,228240,120
55,35,228240,120
63,33,228360,120
60,36,228480,120
56,36,228480,120
63,30,228600,120
51,30,228720,120
56,27,228840,120
60,27,228960,120
63,33,229080,120
51,33,229200,120
56,29,229320,120
60,45,229440,120
63,31,229560,120
51,31,229680,120
56,25,229800,120
60,25,229920,120
63,19,230040,120
61,24,230160,120
63,26,230280,120
60,32,230400,120
63,24,230520,120
51,24,230640,120
56,24,230760,120
60,27,230880,120
63,24,231000,120
51,24,231120,120
56,24,231240,120
60,30,231360,120
63,26,231480,120
60,27,231600,120
63,28,231720,120
61,33,231840,120
65,28,231960,120
58,30,232080,120
67,32,232200,120
60,36,232320,120
68,29,232440,120
56,29,232560,120
60,29,232680,120
63,31,232800,120
68,25,232920,120
56,25,233040,120
60,25,233160,120
63,34,233280,120
68,24,233400,120
60,24,233520,120
68,24,233640,120
63,33,233760,120
67,24,233880,120
61,24,234000,120
65,24,234120,120
60,31,234240,120
63,24,234360,120
51,24,234480,120
56,24,234600,120
60,28,234720,120
63,22,234840,120
51,22,234960,120
56,22,235080,120
60,27,235200,120
63,21,235320,120
60,21,235440,120
56,21,235440,120
63,21,235560,120
55,33,235680,120
61,33,235680,120
63,24,235800,120
58,24,235920,120
55,24,235920,120
63,24,236040,120
60,31,236160,120
56,31,236160,120
63,25,236280,120
51,25,236400,120
56,24,236520,120
60,28,236640,120
63,22,236760,120
51,22,236880,120
56,22,237000,120
60,27,237120,120
63,21,237240,120
60,21,237360,120
56,21,237360,120
63,21,237480,120
61,33,237600,120
55,33,237600,120
63,24,237720,120
55,24,237840,120
58,24,237840,120
63,24,237960,120
60,31,238080,120
56,31,238080,120
63,24,238200,120
51,24,238320,120
56,20,238440,120
60,26,238560,120
63,20,238680,120
51,20,238800,120
56,20,238920,120
60,24,239040,120
63,18,239160,120
56,18,239280,120
60,18,239280,120
63,18,239400,120
61,28,239520,120
55,28,239520,120
63,20,239640,120
55,19,239760,120
58,19,239760,120
63,19,239880,120
56,24,240000,120
60,20,240120,120
48,20,240240,120
51,20,240360,120
56,22,240480,120
60,17,240600,120
48,17,240720,120
51,17,240840,120
56,24,240960,120
60,20,241080,120
48,20,241200,120
51,20,241320,120
56,22,241440,120
60,17,241560,120
48,17,241680,120
51,17,241800,120
32,31,242400,240
32,34,242880,240
32,36,243360,240
43,43,243840,2400
31,36,243840,2400
36,36,243840,2400
55,39,246240,480
43,33,246240,480
48,33,246240,480
55,45,246720,480
48,38,246720,480
43,38,246720,480
43,42,247200,480
48,42,247200,480
55,50,247200,480
56,51,247680,1440
48,51,247680,1920
41,43,247680,4800
43,36,249120,480
52,43,249120,480
44,43,249600,480
53,43,249600,2880
45,39,250080,480
43,43,250560,480
45,40,251040,480
49,44,251520,480
48,41,252000,480
49,49,252480,480
46,41,252480,480
44,38,252960,480
48,45,252960,480
43,47,253440,240
46,57,253440,240
52,48,253920,240
61,57,253920,240
58,48,253920,240
55,48,253920,240
56,35,255360,480
53,29,255360,480
49,27,256320,480
55,32,256320,480
46,27,256320,480
48,29,257280,1200
53,32,257440,160
56,34,257600,160
60,37,257760,160
58,31,257920,160
56,28,258080,160
55,35,258240,240
56,51,259200,1440
48,51,259200,1920
41,43,259200,4080
43,36,260640,480
52,43,260640,480
53,43,261120,2160
44,43,261120,480
45,39,261600,480
43,43,262080,480
45,40,262560,480
49,44,263040,240
49,32,263280,120
53,37,263280,120
48,32,263520,120
51,41,263520,120
48,36,263760,120
51,44,263760,120
46,39,264000,120
49,47,264000,120
49,51,264240,120
46,43,264240,120
48,41,264480,120
44,41,264480,120
49,55,264480,120
48,44,264720,120
49,60,264720,120
44,44,264720,120
43,51,264960,240
49,64,264960,240
46,54,264960,240
58,55,265440,240
55,55,265440,240
52,55,265440,240
61,65,265440,240
56,35,266880,480
53,29,266880,480
55,32,267840,480
46,27,267840,480
49,27,267840,480
53,35,268800,240
48,35,268800,240
56,43,268800,240
56,54,269280,160
53,46,269440,160
61,48,269600,160
60,54,269760,240
60,60,270240,180
48,50,270240,180
53,60,270720,180
41,50,270720,180
53,22,271200,480
65,27,271200,480
65,27,272160,480
53,22,272160,480
53,22,273120,480
65,27,273120,480
65,27,274080,480
53,22,274080,480
53,22,275040,480
65,27,275040,480
46,27,275520,240
54,22,276000,240
58,27,276000,240
48,27,276480,240
56,27,276960,240
53,22,276960,240
48,27,277440,240
55,27,277920,240
52,22,277920,240
41,40,278400,240
53,22,278880,480
65,27,278880,480
65,27,279840,480
53,22,279840,480
53,22,280800,480
65,27,280800,480
53,22,281760,480
65,27,281760,480
53,22,282720,480
65,27,282726,480
46,27,283200,240
55,22,283680,240
58,27,283680,240
48,27,284160,240
53,22,284640,240
57,27,284640,240
48,27,285120,240
58,27,285600,240
52,22,285600,240
53,41,286080,240
57,41,286080,240
60,27,286320,120
60,30,286560,120
60,27,286800,120
61,37,287040,240
60,27,287280,240
60,30,287520,120
60,27,287760,120
48,38,288000,240
60,27,288240,120
60,27,288480,120
60,27,288720,120
48,44,288960,240
60,37,289200,120
60,40,289440,120
60,44,289680,120
48,44,289680,120
58,44,289680,120
57,48,289920,240
60,48,289920,240
53,48,289920,240
60,31,290160,120
60,34,290400,120
60,31,290640,120
61,42,290880,240
60,31,291120,120
60,34,291360,120
63,31,291600,120
50,43,291840,240
62,31,292080,120
62,31,292320,120
62,31,292560,120
50,50,292800,240
62,42,293040,120
62,46,293280,120
60,50,293520,120
50,50,293520,120
62,50,293520,120
55,55,293760,240
62,55,293760,240
58,55,293760,240
62,31,294000,120
62,34,294240,120
62,31,294480,120
63,42,294720,240
62,31,294960,120
62,34,295200,120
62,31,295440,120
52,49,295680,960
61,31,295920,240
58,31,295920,720
60,34,296160,240
61,31,296400,240
53,50,296640,960
57,31,296880,720
62,31,296880,240
60,34,297120,240
65,31,297360,240
52,49,297600,960
61,31,297840,240
58,31,297840,720
60,34,298080,240
61,31,298320,240
53,50,298560,960
62,31,298800,240
57,31,298800,720
60,34,299040,240
65,31,299280,240
46,60,299520,120
62,53,299760,480
58,53,299760,480
58,44,300240,240
62,44,300240,240
48,60,300480,120
60,52,300720,480
57,52,300720,480
57,45,301200,240
60,45,301200,240
48,60,301440,120
52,46,301680,480
58,46,301680,960
60,46,301680,960
53,46,302160,240
55,46,302400,240
53,47,302640,120
60,47,302640,120
58,47,302640,120
58,51,302880,120
52,51,302880,120
60,51,302880,120
60,55,303120,120
58,55,303120,120
48,55,303120,120
53,59,303360,240
60,59,303360,240
57,59,303360,240
41,66,303600,120
41,66,303840,120
41,66,304080,120
40,69,304320,240
41,65,304560,120
41,65,304800,120
41,65,305040,120
42,68,305280,360
43,60,305640,60
45,56,305700,60
43,68,305760,360
45,62,306120,60
46,58,306180,60
48,68,306240,120
58,66,306480,240
55,56,306480,240
48,56,306480,240
55,56,306720,240
58,66,306720,240
48,56,306720,240
48,56,306960,240
55,56,306960,240
58,66,306960,240
53,61,307200,240
57,72,307200,240
41,66,307440,120
41,66,307680,120
41,66,307920,120
40,69,308160,240
41,65,308400,120
41,65,308640,120
41,65,308880,120
42,68,309120,360
43,60,309480,60
45,55,309540,60
43,68,309600,360
45,62,309960,60
46,57,310020,60
48,68,310080,120
55,66,310320,240
52,56,310320,240
45,56,310320,240
55,66,310560,240
45,56,310560,240
52,56,310560,240
55,66,310800,240
45,56,310800,240
52,56,310800,240
50,61,311040,240
53,72,311040,240
46,56,311280,120
50,66,311280,120
50,66,311520,120
46,56,311520,120
50,66,311760,120
46,56,311760,120
45,58,312000,240
49,69,312000,240
50,65,312240,120
46,55,312240,120
50,65,312480,120
46,55,312480,120
46,55,312720,120
50,65,312720,120
47,57,312960,480
50,68,312960,360
51,60,313320,60
53,56,313380,60
48,57,313440,480
51,68,313440,360
53,62,313800,60
54,58,313860,60
41,57,313920,120
48,68,313920,120
60,56,314160,240
53,56,314160,240
63,66,314160,240
60,56,314400,240
63,66,314400,240
53,56,314400,240
53,56,314640,240
60,56,314640,240
63,66,314640,240
58,61,314880,240
62,72,314880,240
50,66,315120,120
46,56,315120,120
46,56,315360,120
50,66,315360,120
46,56,315600,120
50,66,315600,120
49,69,315840,240
45,58,315840,240
50,65,316080,120
46,55,316080,120
50,65,316320,120
46,55,316320,120
46,55,316560,120
50,65,316560,120
44,58,316800,240
50,58,316800,240
53,69,316800,240
43,55,317040,120
53,65,317040,120
50,55,317040,120
43,55,317280,120
53,65,317280,120
50,55,317280,120
50,55,317520,120
53,65,317520,120
43,55,317520,120
48,57,317760,120
52,68,317760,120
60,56,318000,240
64,66,318240,240
60,56,318240,240
64,66,318480,240
60,56,318480,240
46,58,318720,240
55,69,318720,240
52,58,318720,240
55,65,318960,120
52,55,318960,120
45,55,318960,120
55,65,319200,120
45,55,319200,120
52,55,319200,120
45,55,319440,120
55,65,319440,120
52,55,319440,120
50,57,319680,120
54,68,319680,120
62,56,319920,240
62,56,320160,240
66,66,320160,240
66,66,320400,240
62,56,320400,240
51,51,320640,240
63,60,320640,240
62,52,320880,180
50,44,320880,180
62,60,321120,240
50,51,321120,240
49,44,321360,180
61,52,321360,180
49,51,321600,240
61,60,321600,240
50,41,321840,180
62,49,321840,180
62,54,322080,240
50,46,322080,240
57,49,322320,180
45,41,322320,180
43,45,322560,240
55,53,322560,240
42,39,322800,180
54,47,322800,180
54,47,323040,240
42,39,323040,240
52,47,323280,180
40,39,323280,180
52,51,323520,240
40,43,323520,240
50,44,323760,121
38,37,323760,121
38,39,324000,121
50,46,324000,121
50,44,324240,121
38,37,324240,121
51,48,324480,240
39,40,324480,240
38,35,324720,180
50,41,324720,180
50,48,324960,240
38,40,324960,240
37,35,325200,180
49,41,325200,180
37,40,325440,240
49,48,325440,240
50,39,325680,180
38,32,325680,180
50,43,325920,240
38,36,325920,240
45,39,326160,180
43,39,326400,240
42,34,326640,180
42,34,326880,240
40,33,327120,180
40,35,327360,240
38,30,327600,121
38,30,327840,121
38,28,328080,121
38,27,328320,121
38,25,328560,121
38,27,328800,121
38,25,329040,121
38,27,329280,121
38,25,329520,121
38,27,329760,121
38,25,330000,121
49,22,330240,240
48,21,330480,121
48,22,330720,121
48,21,330960,121
48,22,331200,121
48,21,331440,121
48,22,331680,121
48,21,331920,121
41,33,332160,1920
48,25,332400,180
48,25,332640,180
48,25,332880,180
48,33,333120,240
53,26,333360,180
53,27,333600,180
53,29,333840,180
46,38,334080,1680
53,25,334320,180
53,25,334560,180
53,27,334800,180
53,33,335040,240
54,27,335280,240
55,27,335520,240
50,27,335760,240
47,27,335760,240
36,33,336000,1920
48,25,336240,180
48,25,336480,180
48,25,336720,180
48,33,336960,180
48,26,337200,180
48,27,337440,240
48,29,337680,240
41,38,337920,1440
48,25,338160,180
48,25,338400,180
48,27,338640,180
48,33,338880,180
48,27,339120,180
48,27,339360,240
41,27,339360,240
45,27,339600,240
48,27,339600,240
36,33,339840,1920
48,25,340080,180
48,25,340320,180
48,25,340560,180
48,33,340800,180
48,26,341040,180
48,27,341280,240
48,29,341520,240
41,38,341760,1140
48,25,342000,180
45,25,342240,180
48,27,342480,180
53,33,342720,180
60,31,342960,240
57,31,342960,240
65,31,343200,240
57,31,343200,240
60,31,343200,240
60,31,343440,240
67,31,343440,240
64,31,343440,240
53,46,343680,120
60,23,343920,180
69,28,343920,180
65,23,343920,180
69,28,344160,180
60,23,344160,180
65,23,344160,180
69,28,344400,180
65,23,344400,180
60,23,344400,180
68,37,344640,240
65,31,344640,240
59,31,344640,240
69,29,344880,180
60,24,344880,180
65,24,344880,180
65,26,345120,180
69,31,345120,180
60,26,345120,180
65,28,345360,180
60,28,345360,180
69,33,345360,180
58,43,345600,1680
65,23,345840,180
70,28,345840,180
62,23,345840,180
65,23,346080,180
70,28,346080,180
62,23,346080,180
65,26,346320,180
70,31,346320,180
62,26,346320,180
65,31,346560,240
70,37,346560,240
62,31,346560,240
69,31,346800,240
62,26,346800,240
66,26,346800,240
67,31,347040,240
62,26,347040,240
59,26,347280,240
65,31,347280,240
62,26,347280,240
48,37,347520,240
64,28,347760,180
55,23,347760,180
60,23,347760,180
64,28,348000,180
55,23,348000,180
60,23,348000,180
64,28,348240,180
60,23,348240,180
55,23,348240,180
55,31,348480,180
64,37,348480,180
60,31,348480,180
55,24,348720,180
64,29,348720,180
60,24,348720,180
57,26,348960,240
60,26,348960,240
65,31,348960,240
60,28,349200,240
67,33,349200,240
58,28,349200,240
53,43,349440,1200
60,23,349680,180
57,23,349680,180
65,28,349680,180
57,23,349920,180
65,28,349920,180
60,23,349920,180
65,31,350160,180
57,26,350160,180
60,26,350160,180
57,31,350400,180
60,31,350400,180
65,37,350400,180
65,31,350640,180
60,26,350640,180
57,26,350640,180
65,26,350880,240
69,31,350880,240
60,26,350880,240
60,26,351120,240
57,26,351120,240
65,31,351120,240
48,37,351360,240
60,23,351600,180
55,23,351600,180
64,28,351600,180
60,23,351840,180
64,28,351840,180
55,23,351840,180
64,28,352080,180
55,23,352080,180
60,23,352080,180
55,31,352320,180
64,37,352320,180
60,31,352320,180
55,24,352560,180
60,24,352560,180
64,29,352560,180
60,26,352800,240
57,26,352800,240
65,31,352800,240
60,28,353040,240
67,33,353040,240
58,28,353040,240
53,43,353280,1140
57,23,353520,180
60,23,353520,180
65,28,353520,180
60,23,353760,180
65,28,353760,180
57,23,353760,180
65,31,354000,180
60,26,354000,180
57,26,354000,180
57,31,354240,180
60,31,354240,180
65,37,354240,180
60,31,354480,240
57,31,354480,240
60,31,354720,240
65,31,354720,240
57,31,354720,240
64,31,354960,240
60,31,354960,240
67,31,354960,240
53,46,355200,120
69,28,355440,180
65,23,355440,180
60,23,355440,180
60,23,355680,180
65,23,355680,180
69,28,355680,180
69,28,355920,180
65,23,355920,180
60,23,355920,180
59,31,356160,240
65,31,356160,240
68,37,356160,240
60,24,356400,180
65,24,356400,180
69,29,356400,180
65,26,356640,180
69,31,356640,180
60,26,356640,180
65,28,356880,180
69,33,356880,180
60,28,356880,180
65,31,357120,240
58,43,357120,1200
63,31,357120,240
72,37,357120,240
70,28,357360,180
62,23,357360,180
65,23,357360,180
70,28,357600,180
65,23,357600,180
62,23,357600,180
62,26,357840,180
70,31,357840,180
65,26,357840,180
62,31,358080,240
70,37,358080,240
65,31,358080,240
69,31,358320,240
60,26,358320,240
62,26,358320,240
62,27,358560,240
67,32,358560,240
58,27,358560,240
57,28,358800,240
65,33,358800,240
60,28,358800,240
48,41,359040,240
60,26,359280,180
55,26,359280,180
64,32,359280,180
64,32,359520,180
55,26,359520,180
60,26,359520,180
55,26,359760,180
64,32,359760,180
60,26,359760,180
60,35,360000,180
55,35,360000,180
64,42,360000,180
64,33,360240,180
55,27,360240,180
60,27,360240,180
65,35,360480,240
57,29,360480,240
60,29,360480,240
58,32,360720,240
67,37,360720,240
60,32,360720,240
53,43,360960,1200
58,31,360960,240
60,37,360960,240
57,26,361200,180
65,32,361200,180
60,26,361200,180
65,32,361440,180
60,26,361440,180
57,26,361440,180
57,29,361680,180
60,29,361680,180
65,35,361680,180
65,35,361920,240
60,35,361980,180
69,42,361980,180
60,26,362160,180
65,31,362160,180
57,26,362160,180
57,26,362400,180
60,26,362400,180
65,31,362400,180
65,31,362640,180
57,26,362640,180
60,26,362640,180
48,37,362880,240
60,23,363120,180
55,23,363120,180
64,28,363120,180
64,28,363360,180
60,23,363360,180
55,23,363360,180
64,28,363600,180
55,23,363600,180
60,23,363600,180
55,31,363840,180
60,31,363840,180
64,37,363840,180
64,29,364080,180
55,24,364080,180
60,24,364080,180
65,31,364320,240
57,26,364320,240
60,26,364320,240
58,28,364560,240
60,28,364560,240
67,33,364560,240
60,33,364800,240
58,29,364800,240
53,43,364800,1200
60,23,365040,180
57,23,365040,180
65,28,365040,180
60,23,365280,180
57,23,365280,180
65,28,365280,180
65,31,365520,180
60,26,365520,180
57,26,365520,180
65,31,365760,240
60,31,365820,180
69,37,365820,180
60,26,366000,180
65,31,366000,180
57,26,366000,180
57,26,366240,180
65,31,366240,180
60,26,366240,180
65,31,366480,180
57,26,366480,180
60,26,366480,180
48,37,366720,240
64,28,366960,180
55,23,366960,180
60,23,366960,180
55,23,367200,180
60,23,367200,180
64,28,367200,180
60,23,367440,180
55,23,367440,180
64,28,367440,180
55,31,367680,180
64,37,367680,180
60,31,367680,180
55,24,367920,180
64,29,367920,180
60,24,367920,180
57,26,368160,240
60,26,368160,240
65,31,368160,240
67,33,368400,240
60,28,368400,240
58,28,368400,240
48,33,368640,240
67,33,369120,3360
58,33,369120,3360
60,33,369120,3360
53,33,372480,1440
60,33,372480,1440
57,33,372480,1440
65,33,372480,1440
41,37,376320,480
68,37,376320,120
72,29,376435,120
60,29,376560,120
65,27,376680,120
68,37,376800,120
72,29,376920,120
60,29,377040,120
65,28,377160,120
68,37,377280,120
72,29,377400,120
60,29,377520,120
65,26,377640,120
68,37,377760,120
72,29,377880,120
70,36,378000,120
72,39,378120,120
68,47,378240,120
72,36,378360,120
60,36,378480,120
65,32,378600,120
68,40,378720,120
72,36,378840,120
60,36,378960,120
65,32,379080,120
68,45,379200,120
72,35,379320,120
65,35,379440,120
68,35,379440,120
72,31,379560,120
70,44,379680,120
64,44,379680,120
72,29,379800,120
68,31,379920,120
65,31,379920,120
72,28,380040,120
67,37,380160,120
64,37,380160,120
72,29,380275,120
60,29,380400,120
64,27,380520,120
67,37,380640,120
72,29,380760,120
60,29,380880,120
64,27,381000,120
67,37,381120,120
72,29,381240,120
60,29,381360,120
64,26,381480,120
67,42,381600,120
72,31,381720,120
70,31,381840,120
72,28,381960,120
68,39,382080,120
72,29,382207,120
60,29,382332,120
65,27,382452,120
68,42,382572,120
72,34,382692,120
60,34,382812,120
65,29,382932,120
68,41,383052,120
72,33,383172,120
60,33,383280,120
65,30,383400,120
68,37,383520,120
72,29,383652,120
70,29,383760,120
64,29,383760,120
72,26,383892,108
65,37,384000,120
68,37,384000,120
72,29,384115,120
60,29,384240,120
65,25,384360,120
68,38,384480,120
72,30,384600,120
60,31,384720,120
65,29,384840,120
68,40,384960,120
72,32,385080,120
60,32,385200,120
65,30,385320,120
68,42,385440,120
72,33,385560,120
63,41,385680,120
70,41,385680,120
75,44,385800,120
72,54,385920,120
68,54,385920,120
75,41,386040,120
63,41,386162,120
68,37,386280,120
72,46,386400,120
75,41,386520,120
63,41,386640,120
68,40,386760,120
72,51,386880,120
75,44,387000,120
68,46,387120,120
72,46,387120,120
75,44,387240,120
67,55,387360,120
73,55,387360,120
75,48,387480,120
72,50,387600,120
68,50,387600,120
75,54,387720,120
67,60,387840,120
70,60,387840,120
75,49,387960,120
63,49,388080,120
67,45,388200,120
70,52,388320,120
75,42,388440,120
63,42,388560,120
67,39,388680,120
70,58,388800,120
75,45,388920,120
63,45,389040,120
67,40,389160,120
70,56,389280,120
75,41,389400,120
73,41,389520,120
75,38,389640,120
72,53,389760,120
75,43,389880,120
63,43,390000,120
68,39,390120,120
72,48,390240,120
75,38,390360,120
63,38,390480,120
68,35,390600,120
72,45,390720,120
75,35,390840,120
63,35,390960,120
68,34,391080,120
68,38,391200,120
72,38,391200,120
75,30,391320,120
67,29,391440,120
73,29,391440,120
75,28,391560,108
68,37,391680,120
72,37,391680,120
75,29,391800,120
63,29,391920,120
68,26,392040,120
72,38,392160,120
75,30,392280,120
63,31,392400,120
68,29,392520,120
72,40,392640,120
75,32,392760,120
63,32,392880,120
68,30,393000,120
72,42,393120,120
75,33,393240,120
63,41,393360,120
68,44,393480,120
73,50,393600,120
68,36,393720,120
65,36,393840,120
68,35,393960,120
73,45,394080,120
77,36,394200,120
65,36,394320,120
68,33,394440,120
73,44,394560,120
77,37,394680,120
65,37,394800,120
70,37,394920,120
73,48,395040,120
77,38,395160,120
65,41,395280,120
70,44,395400,120
73,56,395520,120
75,42,395640,120
63,42,395760,120
70,40,395880,120
73,52,396000,120
75,42,396120,120
63,42,396240,120
70,39,396360,120
72,50,396480,120
75,40,396600,120
63,40,396720,120
68,38,396840,120
72,42,396960,120
75,33,397080,120
63,41,397200,120
68,44,397320,120
70,54,397440,120
75,41,397560,120
63,41,397680,120
68,36,397800,120
70,48,397920,120
75,39,398040,120
63,39,398160,120
68,35,398280,120
70,48,398400,120
75,32,398520,120
63,37,398640,120
67,33,398760,120
70,42,398880,120
75,29,399000,120
63,29,399120,120
67,26,399240,120
72,37,399360,120
75,29,399480,120
63,29,399600,120
68,27,399720,120
72,38,399840,120
75,30,399960,120
63,31,400080,120
68,28,400200,120
71,40,400320,120
75,32,400440,120
63,32,400560,120
68,28,400680,120
71,42,400800,120
75,33,400920,120
63,33,401040,120
68,28,401160,120
70,37,401280,120
75,29,401400,120
63,29,401520,120
68,26,401640,120
70,38,401760,120
75,29,401880,120
63,29,402000,120
68,27,402120,120
70,40,402240,120
75,28,402360,120
63,28,402480,120
67,26,402600,120
70,41,402720,120
75,29,402840,120
63,29,402960,120
67,25,403080,120
72,37,403200,120
75,35,403320,120
63,29,403440,120
68,28,403560,120
72,38,403680,120
75,30,403800,120
63,31,403920,120
68,28,404040,120
72,45,404160,120
75,32,404280,120
63,32,404400,120
68,30,404520,120
72,47,404640,120
75,34,404760,120
63,38,404880,120
68,35,405000,120
72,50,405120,120
76,39,405240,120
64,39,405360,120
67,34,405480,120
72,51,405600,120
76,39,405720,120
64,40,405840,120
67,34,405960,120
72,49,406080,120
76,38,406200,120
64,38,406320,120
67,35,406440,120
72,51,406560,120
76,40,406680,120
64,41,406800,120
67,38,406920,120
72,59,407040,120
77,45,407160,120
65,46,407280,120
68,45,407400,120
72,64,407520,120
77,48,407640,120
65,50,407760,120
68,50,407880,120
72,58,408000,120
77,47,408120,120
65,47,408240,120
68,43,408360,120
72,54,408480,120
77,46,408600,120
65,46,408720,120
68,41,408840,120
72,57,408960,120
76,44,409080,120
64,44,409200,120
67,40,409320,120
72,58,409440,120
76,44,409560,120
64,46,409680,120
67,41,409800,120
72,56,409920,120
76,43,410040,120
64,43,410160,120
67,39,410280,120
72,58,410400,120
76,46,410520,120
64,47,410640,120
67,44,410760,120
72,67,410880,120
77,51,411000,120
65,51,411120,120
68,47,411240,120
72,69,411360,120
77,51,411480,120
65,51,411600,120
68,48,411720,120
72,60,411840,120
77,49,411960,120
65,49,412080,120
68,48,412200,120
72,59,412320,120
77,51,412440,120
65,51,412560,120
68,47,412680,120
73,65,412800,120
77,53,412920,120
65,53,413040,120
68,49,413160,120
73,62,413280,120
77,53,413400,120
65,53,413520,120
68,49,413640,120
73,62,413760,120
78,53,413880,120
66,53,414000,120
69,49,414120,120
73,62,414240,120
78,53,414360,120
66,53,414480,120
69,49,414600,120
73,65,414720,120
77,53,414840,120
65,53,414960,120
68,47,415080,120
73,62,415200,120
77,53,415320,120
65,53,415440,120
68,48,415560,120
73,62,415680,120
78,53,415800,120
66,53,415920,120
69,49,416040,120
73,62,416160,120
78,53,416280,120
66,53,416400,120
69,48,416520,120
73,65,416640,120
77,46,416760,120
65,46,416880,120
68,42,417000,120
73,55,417120,120
77,40,417240,120
65,40,417360,120
68,36,417480,120
73,40,417600,120
77,46,417720,120
65,37,417840,120
68,35,417960,120
72,37,418080,120
77,43,418200,120
65,37,418320,120
68,34,418440,120
74,37,418560,120
77,29,418680,120
65,29,418800,120
67,27,418920,120
74,38,419040,120
77,30,419160,120
65,31,419280,120
67,28,419400,120
74,41,419520,120
77,31,419640,120
65,31,419760,120
67,29,419880,120
74,40,420000,120
77,29,420120,120
65,32,420240,120
67,28,420360,120
72,44,420480,120
76,32,420600,120
64,32,420720,120
67,30,420840,120
72,44,420960,120
76,34,421080,120
64,34,421200,120
67,31,421320,120
72,41,421440,120
76,31,421560,120
64,31,421680,120
67,29,421800,120
72,40,421920,120
76,29,422040,120
64,31,422160,120
67,26,422280,120
72,37,422400,120
77,27,422520,120
65,27,422640,120
69,24,422760,120
72,37,422880,120
77,28,423000,120
65,28,423120,120
69,24,423240,120
74,37,423360,120
77,27,423480,120
65,27,423600,120
69,25,423720,120
74,37,423840,120
77,28,423960,120
65,28,424080,120
69,26,424200,120
74,37,424320,120
77,27,424440,120
65,27,424560,120
71,24,424680,120
74,37,424800,120
77,28,424920,120
65,28,425040,120
71,25,425160,120
74,37,425280,120
77,27,425400,120
65,27,425520,120
71,24,425640,120
74,37,425760,120
77,29,425880,120
65,29,426000,120
71,25,426120,120
72,40,426240,120
76,29,426360,120
64,29,426480,120
67,26,426600,120
72,38,426720,120
76,30,426840,120
64,30,426960,120
67,27,427080,120
72,30,427200,120
76,27,427320,120
64,27,427440,120
67,23,427560,120
72,45,427680,120
76,32,427800,120
64,35,427920,120
67,39,428040,120
71,49,428160,120
77,36,428280,120
65,36,428400,120
67,33,428520,120
71,46,428640,120
77,33,428760,120
65,31,428880,120
67,29,429000,120
70,37,429120,120
72,27,429240,120
60,27,429360,120
67,25,429480,120
70,37,429600,120
72,28,429720,120
60,28,429840,120
67,27,429960,120
69,37,430080,120
72,27,430200,120
60,27,430320,120
65,24,430440,120
69,37,430560,120
72,28,430680,120
60,28,430800,120
65,23,430920,120
69,37,431040,120
72,28,431160,120
60,28,431280,120
65,25,431400,120
69,37,431520,120
72,29,431640,120
67,36,431760,120
72,39,431880,120
69,47,432000,120
72,36,432120,120
60,36,432240,120
65,32,432360,120
69,40,432480,120
72,36,432600,120
60,36,432720,120
65,34,432840,120
69,45,432960,120
72,35,433080,120
69,35,433200,120
65,35,433200,120
72,31,433320,120
64,44,433440,120
70,44,433440,120
72,29,433560,120
69,31,433680,120
65,31,433680,120
72,28,433800,120
64,37,433920,120
67,37,433920,120
72,29,434040,120
60,29,434160,120
64,25,434280,120
67,37,434400,120
72,29,434520,120
60,29,434640,120
64,27,434760,120
67,37,434880,120
72,29,435000,120
60,29,435120,120
64,26,435240,120
67,42,435360,120
72,31,435480,120
70,31,435600,120
72,28,435720,120
69,39,435840,120
72,29,435960,120
60,29,436080,120
65,27,436200,120
69,42,436320,120
72,34,436440,120
60,34,436560,120
65,30,436680,120
69,41,436800,120
72,33,436920,120
60,33,437040,120
65,30,437160,120
69,37,437280,120
65,37,437280,120
72,29,437400,120
64,29,437520,120
70,29,437520,120
72,26,437652,108
69,37,437760,120
65,37,437760,120
72,29,437875,120
60,29,438000,120
65,28,438120,120
69,38,438240,120
72,30,438360,120
60,31,438480,120
65,29,438600,120
69,40,438720,120
72,32,438840,120
60,32,438960,120
65,29,439080,120
69,42,439200,120
72,33,439320,120
70,41,439440,120
72,44,439560,120
69,54,439680,120
72,41,439800,120
60,41,439920,120
65,36,440040,120
69,46,440160,120
72,41,440280,120
60,41,440400,120
65,40,440520,120
69,51,440640,120
72,44,440760,120
69,46,440880,120
72,44,441000,120
70,55,441120,120
74,48,441240,120
67,50,441360,120
76,54,441480,120
69,60,441600,120
77,49,441720,120
65,49,441840,120
69,46,441960,120
72,52,442080,120
77,42,442200,120
65,42,442320,120
69,38,442440,120
72,58,442560,120
77,45,442680,120
69,45,442800,120
77,40,442920,120
72,56,443040,120
76,41,443160,120
70,41,443280,120
74,37,443400,120
69,53,443520,120
72,39,443640,120
60,39,443760,120
65,34,443880,120
69,46,444000,120
72,34,444120,120
60,34,444240,120
65,31,444360,120
69,40,444480,120
72,31,444600,120
69,31,444720,120
65,31,444720,120
72,30,444840,120
64,43,444960,120
70,43,444960,120
72,35,445080,120
67,35,445200,120
64,35,445200,120
72,33,445320,120
69,36,445440,120
65,36,445440,120
72,30,445560,120
60,30,445680,120
65,26,445800,120
69,30,445920,120
72,33,446040,120
60,33,446160,120
65,33,446280,120
69,45,446400,120
72,31,446520,120
60,31,446640,120
65,27,446760,120
69,25,446880,120
72,19,447000,120
70,24,447120,120
72,26,447240,120
69,32,447360,120
72,24,447480,120
60,24,447600,120
65,24,447720,120
69,27,447840,120
72,24,447960,120
60,24,448080,120
65,24,448200,120
69,30,448320,120
72,26,448440,120
69,27,448560,120
72,28,448680,120
70,33,448800,120
74,28,448920,120
67,30,449040,120
76,32,449160,120
69,36,449280,120
77,29,449400,120
65,29,449520,120
69,27,449640,120
72,31,449760,120
77,25,449880,120
65,25,450000,120
69,25,450120,120
72,34,450240,120
77,24,450360,120
69,24,450480,120
77,21,450600,120
72,33,450720,120
76,24,450840,120
70,24,450960,120
74,23,451080,120
69,31,451200,120
72,24,451320,120
60,24,451440,120
65,24,451560,120
69,28,451680,120
72,22,451800,120
60,22,451920,120
65,22,452040,120
69,27,452160,120
72,21,452280,120
69,21,452400,120
65,21,452400,120
72,21,452520,120
70,33,452640,120
64,33,452640,120
72,24,452760,120
64,24,452880,120
67,24,452880,120
72,22,453000,120
65,31,453120,120
69,31,453120,120
72,25,453240,120
60,25,453360,120
65,24,453480,120
69,28,453600,120
72,22,453720,120
60,22,453840,120
65,22,453960,120
69,27,454080,120
72,21,454200,120
65,21,454320,120
69,21,454320,120
72,21,454440,120
70,33,454560,120
64,33,454560,120
72,24,454680,120
67,24,454800,120
64,24,454800,120
72,23,454920,120
69,31,455040,120
65,31,455040,120
72,24,455160,120
60,24,455280,120
65,25,455400,120
69,26,455520,120
72,20,455640,120
60,20,455760,120
65,20,455880,120
69,24,456000,120
72,18,456120,120
65,18,456240,120
69,18,456240,120
72,18,456360,120
70,28,456480,120
64,28,456480,120
72,20,456600,120
67,19,456720,120
64,19,456720,120
72,19,456840,120
65,30,456960,120
69,22,457080,120
57,22,457200,120
60,20,457320,120
65,33,457440,120
69,25,457560,120
57,25,457680,120
60,24,457800,120
65,37,457920,120
69,26,458040,120
57,26,458160,120
60,25,458280,120
65,36,458400,120
69,27,458520,120
57,28,458640,120
60,28,458760,120
40,39,459120,240
41,40,459360,240
44,42,459600,240
47,43,459840,240
48,44,460080,240
53,46,460320,240
55,47,460560,240
56,51,460800,1440
48,51,460800,1920
41,43,460800,4080
52,43,462240,480
43,36,462240,480
44,43,462720,480
53,43,462720,2160
45,39,463200,480
43,43,463680,480
45,40,464160,480
49,44,464640,240
49,32,464880,120
53,37,464880,120
48,32,465120,120
51,41,465120,120
48,36,465360,120
51,44,465360,120
49,47,465600,120
46,39,465600,120
46,43,465840,120
49,51,465840,120
44,46,466080,120
48,55,466080,120
48,60,466320,120
44,49,466320,120
43,54,466560,240
46,64,466560,240
52,55,467040,240
58,55,467040,240
61,65,467040,240
55,55,467040,240
53,29,468480,480
56,35,468480,480
49,27,469440,480
46,27,469440,480
55,32,469440,480
48,41,470400,960
53,32,470560,160
55,33,470720,160
56,35,470880,160
55,34,471040,160
53,30,471201,160
48,40,471360,960
58,40,471364,480
56,35,471840,240
55,35,472080,240
48,38,472320,960
53,25,472480,160
55,27,472640,160
56,29,472800,160
55,29,472960,160
53,28,473121,160
48,35,473280,960
58,35,473284,480
56,30,473760,240
55,29,474000,240
41,22,474240,480
53,27,474240,480
41,22,475200,480
48,22,475200,480
53,27,475200,480
48,22,476160,960
53,26,476160,960
41,22,476160,960
