note,velocity,position,duration
63,46,960,475
68,46,1440,475
60,34,1440,475
63,34,1440,475
68,46,1920,720
60,34,1920,960
63,34,1920,960
70,39,2640,240
61,34,2880,475
63,34,2880,475
68,46,2880,475
61,34,3360,960
67,46,3360,720
63,34,3360,960
70,37,4080,238
70,46,4320,475
63,38,4800,475
68,51,4800,475
63,39,5280,475
61,39,5280,475
70,52,5280,475
63,40,5760,960
60,40,5760,960
72,55,5760,960
63,55,6720,475
72,66,7200,475
60,49,7200,475
63,49,7200,475
63,50,7680,720
60,50,7680,720
72,67,7680,720
61,42,8400,240
73,57,8400,240
63,42,8400,240
63,48,8640,475
72,65,8640,475
60,48,8640,475
58,43,9120,720
63,43,9120,720
70,58,9120,720
72,52,9840,240
63,39,9840,240
60,39,9840,240
58,41,10080,475
63,41,10080,475
70,56,10080,475
63,39,10560,475
68,52,10560,475
56,39,10560,475
75,66,11040,360
63,49,11040,480
70,49,11040,480
73,59,11400,120
68,37,11520,960
72,50,11520,960
63,37,11520,960
75,56,12480,475
75,34,12960,475
72,34,12960,475
80,54,12960,475
75,34,13440,960
72,34,13440,960
80,57,13440,720
82,50,14160,240
73,34,14400,475
80,57,14400,475
75,34,14400,475
79,57,14880,720
75,34,14880,960
73,34,14880,960
82,57,15600,240
82,57,15840,475
80,59,16320,475
75,35,16320,475
73,37,16800,475
82,62,16800,475
75,37,16800,475
75,40,17280,960
72,40,17280,960
84,66,17280,960
75,65,18240,475
84,73,18720,475
75,44,18720,475
72,44,18720,475
75,44,19200,960
72,44,19200,960
84,74,19200,720
85,67,19920,240
72,37,20160,475
84,58,20160,475
76,37,20160,475
76,36,20640,960
72,36,20640,960
82,52,20640,720
84,54,21360,240
72,36,21600,475
82,49,21600,475
77,36,21600,475
80,47,22080,160
72,34,22080,475
77,34,22080,475
82,52,22240,80
80,52,22320,80
79,52,22400,80
80,52,22480,80
73,39,22560,480
79,39,22560,480
84,67,22560,360
82,63,22920,120
80,56,23040,960
72,36,23040,960
63,46,24000,475
60,34,24480,475
63,34,24480,475
68,46,24480,475
68,46,24960,720
60,34,24960,960
63,34,24960,960
70,39,25680,240
61,34,25920,475
68,46,25920,475
63,34,25920,475
67,46,26400,720
63,34,26400,960
61,34,26400,960
70,37,27120,238
70,46,27360,475
63,38,27840,475
68,51,27840,475
63,39,28320,475
61,39,28320,475
70,52,28320,475
72,55,28800,960
63,40,28800,960
60,40,28800,960
63,55,29760,475
60,49,30240,475
63,49,30240,475
72,66,30240,475
63,50,30720,720
60,50,30720,720
72,67,30720,720
63,42,31440,240
61,42,31440,240
73,57,31440,240
60,48,31680,475
63,48,31680,475
72,65,31680,475
70,58,32160,720
63,43,32160,720
58,43,32160,720
72,52,32880,240
63,39,32880,240
60,39,32880,240
58,41,33120,475
63,41,33120,475
70,56,33120,475
56,39,33600,475
63,39,33600,475
68,52,33600,475
70,56,34080,480
63,49,34080,480
75,66,34080,360
73,60,34440,120
63,37,34560,960
68,37,34560,960
72,50,34560,960
75,56,35520,475
80,54,36000,475
75,34,36000,475
72,34,36000,475
72,34,36480,960
80,57,36480,720
75,34,36480,960
82,53,37200,240
73,34,37440,475
80,57,37440,475
75,34,37440,475
73,34,37920,960
79,57,37920,720
75,34,37920,960
82,57,38640,238
82,57,38880,475
75,35,39360,475
80,59,39360,475
75,37,39840,475
82,62,39840,475
73,37,39840,475
75,40,40320,960
72,40,40320,960
84,66,40320,960
75,65,41280,475
72,44,41760,475
84,73,41760,475
75,44,41760,475
75,44,42240,960
84,74,42240,720
72,44,42240,960
85,65,42960,240
84,58,43200,475
76,37,43200,475
72,37,43200,475
82,52,43680,720
76,36,43680,960
72,36,43680,960
84,54,44400,240
77,36,44640,480
82,49,44640,480
72,36,44640,480
80,47,45120,160
72,34,45120,480
77,34,45120,480
82,52,45280,80
80,52,45360,80
79,52,45440,80
80,52,45520,80
73,39,45600,480
84,67,45600,360
79,39,45600,480
82,63,45960,120
72,36,46080,960
80,55,46080,960
63,68,47280,238
68,68,47280,238
75,80,47280,238
63,77,47520,475
75,91,47520,475
68,77,47520,475
68,74,48000,713
63,74,48000,713
75,88,48000,713
63,68,48720,238
72,80,48720,238
60,68,48720,238
63,77,48960,475
72,91,48960,475
60,77,48960,475
60,73,49440,713
63,73,49440,713
72,86,49440,713
65,67,50160,240
68,79,50160,240
60,67,50160,240
65,67,50400,360
68,79,50400,360
60,67,50400,360
61,68,50880,360
63,68,50880,360
70,80,50880,360
63,68,51360,360
61,68,51360,360
67,68,51360,360
73,80,51360,360
70,68,51360,360
72,80,51840,1200
60,68,51840,1200
63,68,51840,1200
68,80,51840,1200
77,93,53040,238
65,79,53040,238
68,79,53040,238
65,85,53280,475
77,100,53280,475
68,85,53280,475
68,85,53760,713
65,85,53760,713
77,100,53760,713
73,93,54480,238
65,79,54480,238
68,79,54480,238
65,85,54720,475
68,85,54720,475
73,100,54720,475
65,85,55200,713
68,85,55200,713
73,100,55200,713
65,79,55920,238
68,93,55920,238
68,99,56160,360
65,84,56160,360
66,84,56640,360
69,84,56640,360
73,99,56640,360
66,84,57120,360
78,99,57120,360
69,84,57120,360
73,84,57120,360
77,99,57600,1200
65,84,57600,960
68,84,57600,1200
73,84,57600,1200
78,102,58800,238
66,86,58800,238
73,86,58800,238
78,103,59040,1440
73,87,59040,1440
66,87,59040,1440
76,61,60480,480
67,51,60480,1200
73,51,60480,960
75,61,60960,480
73,60,61440,240
61,57,61680,120
68,68,61680,120
68,68,61920,1200
61,57,61920,1440
70,35,63120,60
68,35,63180,60
67,35,63240,60
68,35,63300,60
68,52,63360,1440
62,52,63480,1320
71,52,63480,360
70,53,63840,480
68,53,64320,480
60,34,64800,1440
63,40,64800,475
56,34,64800,1440
63,40,65280,960
55,34,66240,960
58,34,66240,960
63,40,66240,475
61,34,66240,960
63,40,66720,475
63,40,67200,475
68,46,67680,475
63,34,67680,475
60,34,67680,475
68,46,68160,720
63,34,68160,960
60,34,68160,960
70,39,68880,240
63,34,69120,475
61,34,69120,475
68,46,69120,475
61,34,69600,960
63,34,69600,960
67,46,69600,720
70,37,70320,238
70,46,70560,475
63,38,71040,475
68,51,71040,475
63,39,71520,475
70,52,71520,475
61,39,71520,475
63,40,72000,960
72,55,72000,960
60,40,72000,960
63,52,72960,475
63,53,73440,475
60,53,73440,475
72,72,73440,475
72,72,73920,720
63,53,73920,720
60,53,73920,720
61,51,74640,238
58,51,74640,238
70,70,74640,238
70,75,74880,475
58,56,74880,475
61,56,74880,475
60,53,75360,720
69,71,75360,720
57,53,75360,720
61,50,76080,238
58,50,76080,238
70,67,76080,238
61,52,76320,480
70,71,76320,480
58,52,76320,480
68,59,76800,480
60,43,76800,480
56,43,76800,480
67,60,77280,432
55,44,77280,432
58,44,77280,432
60,43,77760,960
68,59,77760,960
56,43,77760,960
75,56,78720,475
80,54,79200,475
72,34,79200,475
75,34,79200,475
80,57,79680,720
75,34,79680,960
72,34,79680,960
82,52,80400,238
80,57,80640,475
73,34,80640,475
75,34,80640,475
75,34,81120,960
73,34,81120,960
79,57,81120,720
82,57,81840,238
82,57,82080,475
80,59,82560,475
75,35,82560,475
82,62,83040,475
75,37,83040,475
73,37,83040,475
75,40,83520,960
72,40,83520,960
84,66,83520,960
75,72,84480,475
75,53,84960,475
84,72,84960,475
72,53,84960,475
72,53,85440,720
75,53,85440,720
84,72,85440,720
82,70,86160,238
73,51,86160,238
70,51,86160,238
70,56,86400,475
82,75,86400,475
73,56,86400,475
81,71,86880,713
69,53,86880,713
72,53,86880,713
82,67,87600,238
70,50,87600,238
73,50,87600,238
70,52,87840,475
73,52,87840,475
82,71,87840,475
80,59,88320,475
72,43,88320,475
68,43,88320,475
79,60,88800,432
70,44,88800,432
67,44,88800,432
68,43,89280,960
80,59,89280,960
72,43,89280,960
75,80,90480,238
63,68,90480,238
68,68,90480,238
63,77,90720,475
68,77,90720,475
75,91,90720,475
63,74,91200,713
75,88,91200,713
68,74,91200,713
60,68,91920,238
63,68,91920,238
72,80,91920,238
60,77,92160,475
72,91,92160,475
63,77,92160,475
72,86,92640,713
63,73,92640,713
60,73,92640,713
68,79,93360,238
65,67,93360,238
60,67,93360,238
60,67,93600,360
65,67,93600,360
68,79,93600,360
63,68,94080,360
61,68,94080,360
70,80,94080,360
61,68,94560,360
70,68,94560,360
73,80,94560,360
63,68,94560,360
67,68,94560,360
72,80,95040,1200
60,68,95040,1200
63,68,95040,1200
68,80,95040,1200
68,79,96240,238
65,79,96240,238
77,93,96240,238
68,85,96480,475
65,85,96480,475
77,100,96480,475
65,85,96960,713
77,100,96960,713
68,85,96960,713
65,79,97680,238
73,93,97680,238
68,79,97680,238
65,85,97920,475
68,85,97920,475
73,100,97920,475
73,100,98400,713
68,85,98400,713
65,85,98400,713
65,79,99120,238
68,93,99120,238
68,99,99360,360
65,84,99360,360
73,99,99840,360
69,84,99840,360
66,84,99840,360
78,99,100320,360
66,84,100320,360
69,84,100320,360
73,99,100320,360
65,84,100800,1200
68,84,100800,1200
73,84,100800,1200
77,99,100800,1200
73,86,102000,238
78,102,102000,238
66,86,102000,238
78,103,102240,1440
66,87,102240,1440
73,87,102240,1440
76,61,103680,480
73,51,103680,960
67,51,103680,1200
75,61,104160,480
73,60,104640,240
61,57,104880,120
68,68,104880,120
61,57,105120,1440
68,68,105120,1200
70,35,106320,60
68,35,106380,60
67,35,106440,60
68,35,106500,60
68,52,106560,1440
71,52,106680,360
62,52,106680,1320
70,53,107040,480
68,53,107520,480
56,34,108000,1440
63,40,108000,475
60,34,108000,1440
63,40,108480,960
61,40,109440,960
58,34,109440,960
55,34,109440,960
63,40,109440,475
63,40,109920,475
63,40,110400,475
60,34,110880,475
68,46,110880,475
63,34,110880,475
60,34,111360,960
63,34,111360,960
68,46,111360,720
70,39,112080,240
63,34,112320,475
61,34,112320,475
68,46,112320,475
67,46,112800,720
61,34,112800,960
63,34,112800,960
70,37,113520,240
70,46,113760,475
63,38,114240,475
68,51,114240,475
61,39,114720,475
70,52,114720,475
63,39,114720,475
63,40,115200,960
60,40,115200,960
72,55,115200,960
63,52,116160,475
72,72,116640,475
63,53,116640,475
60,53,116640,475
60,53,117120,720
63,53,117120,720
72,72,117120,720
70,70,117840,238
61,51,117840,238
58,51,117840,238
58,56,118080,475
61,56,118080,475
70,75,118080,475
69,71,118560,720
60,53,118560,720
57,53,118560,720
61,50,119280,238
70,67,119280,238
58,50,119280,238
61,52,119520,475
58,52,119520,475
70,71,119520,475
60,43,120000,475
68,59,120000,475
56,43,120000,475
58,44,120480,432
55,44,120480,432
67,60,120480,432
56,43,120960,960
68,59,120960,960
60,43,120960,960
75,56,121920,475
75,34,122400,475
80,54,122400,475
72,34,122400,475
72,34,122880,960
75,34,122880,960
80,57,122880,720
82,52,123600,240
75,34,123840,475
73,34,123840,475
80,57,123840,475
73,34,124320,960
79,57,124320,720
75,34,124320,960
82,57,125040,238
82,57,125280,475
75,35,125760,475
80,59,125760,475
75,37,126240,475
73,37,126240,475
82,62,126240,475
84,66,126720,960
75,40,126720,960
72,40,126720,960
75,72,127680,475
72,53,128160,475
75,53,128160,475
84,72,128160,475
84,72,128640,720
75,53,128640,720
72,53,128640,720
70,51,129360,238
73,51,129360,238
82,70,129360,238
82,75,129600,475
73,56,129600,475
70,56,129600,475
72,53,130080,720
81,71,130080,720
69,53,130080,720
73,50,130800,238
70,50,130800,238
82,68,130800,238
82,71,131040,480
70,53,131040,480
73,53,131040,480
80,59,131520,480
68,43,131520,480
72,43,131520,480
70,45,132000,432
79,60,132000,432
67,45,132000,432
72,44,132480,960
80,60,132480,960
68,44,132480,960
56,52,133440,480
53,52,133920,160
56,52,134080,160
61,47,134240,160
65,59,134400,160
61,52,134560,160
56,48,134720,160
53,52,134880,160
56,50,135040,160
61,50,135200,160
56,52,135360,160
61,50,135520,160
65,50,135680,160
68,61,135840,160
65,52,136000,160
61,49,136160,160
56,52,136320,160
61,50,136480,160
65,50,136640,160
62,52,136800,160
65,49,136960,160
68,49,137120,160
63,52,137280,160
66,52,137440,160
68,52,137600,160
63,54,137760,160
66,57,137920,160
69,57,138080,160
60,63,138240,160
66,58,138400,160
70,55,138560,160
60,52,138720,160
65,49,138880,160
68,50,139040,160
60,52,139200,160
63,49,139360,160
66,49,139520,160
65,52,139680,160
68,49,139840,160
73,49,140000,160
77,59,140160,160
73,50,140320,160
68,52,140480,160
65,52,140640,160
68,50,140800,160
73,50,140960,160
68,52,141120,160
73,49,141280,160
77,49,141440,160
80,59,141600,160
77,50,141760,160
73,50,141920,160
68,52,142080,160
73,49,142240,160
77,49,142400,160
74,52,142560,160
77,50,142720,160
80,50,142880,160
75,52,143040,160
78,49,143200,160
80,49,143360,160
75,54,143520,160
78,57,143680,160
81,59,143840,160
72,63,144000,160
78,58,144160,160
82,55,144320,160
72,52,144480,160
77,50,144640,160
80,50,144800,160
72,52,144960,160
75,49,145120,160
78,49,145280,160
72,51,145440,160
75,48,145600,160
77,50,145760,160
70,49,145920,160
73,44,146080,160
77,44,146240,160
68,46,146400,160
72,43,146560,160
77,43,146720,160
68,44,146880,160
70,40,147040,160
77,41,147200,160
66,41,147360,160
70,38,147520,160
75,38,147680,160
65,39,147840,160
70,34,148000,160
73,34,148160,160
63,36,148320,160
68,35,148480,160
72,34,148640,160
65,34,148800,160
68,33,148960,160
73,33,149120,160
66,34,149280,160
68,34,149440,160
75,34,149600,160
65,34,149760,160
68,33,149920,160
73,33,150080,160
68,34,150240,160
65,31,150400,160
61,31,150560,160
65,34,150720,160
61,32,150880,160
56,32,151040,160
53,52,151200,160
56,51,151360,160
61,51,151520,160
65,59,151680,160
61,50,151840,160
56,50,152000,160
53,52,152160,160
56,49,152320,160
61,49,152480,160
56,52,152640,160
61,49,152800,160
65,49,152960,160
68,61,153120,160
65,49,153280,160
61,49,153440,160
56,52,153600,160
61,48,153760,160
65,48,153920,160
62,52,154080,160
65,48,154240,160
68,48,154400,160
63,52,154560,160
66,49,154720,160
68,50,154880,160
63,54,155040,160
66,57,155200,160
69,56,155360,160
60,63,155520,160
66,58,155680,160
70,55,155840,160
60,52,156000,160
65,49,156160,160
68,49,156320,160
60,52,156480,160
63,50,156640,160
66,50,156800,160
65,52,156960,160
68,50,157120,160
73,50,157280,160
77,59,157440,160
73,49,157600,160
68,49,157760,160
65,52,157920,160
68,49,158080,160
73,49,158240,160
68,52,158400,160
73,49,158560,160
77,49,158720,160
80,61,158880,160
77,49,159040,160
73,49,159200,160
68,52,159360,160
73,49,159520,160
77,49,159680,160
74,52,159840,160
77,50,160000,160
80,50,160160,160
75,52,160320,160
78,49,160480,160
80,49,160640,160
75,54,160800,160
78,57,160960,160
81,56,161120,160
72,63,161280,160
78,58,161440,160
82,55,161600,160
72,52,161760,160
77,48,161920,160
80,48,162080,160
72,52,162240,160
75,48,162400,160
78,48,162560,160
72,51,162720,160
75,46,162880,160
77,46,163040,160
70,49,163200,160
73,45,163360,160
77,45,163520,160
68,46,163680,160
72,42,163840,160
77,42,164000,160
68,44,164160,160
70,41,164320,160
77,41,164480,160
66,41,164640,160
70,40,164800,160
75,38,164960,160
65,39,165120,160
70,35,165280,160
73,34,165440,160
63,36,165600,160
68,34,165760,160
72,34,165920,160
65,34,166080,160
68,32,166240,160
73,32,166400,160
66,34,166560,160
68,32,166720,160
75,32,166880,160
65,34,167040,160
68,32,167200,160
73,32,167360,160
68,34,167520,160
65,31,167680,160
61,31,167840,160
65,34,168000,160
61,32,168160,160
56,32,168320,160
52,74,168480,160
56,68,168640,160
61,68,168800,160
64,84,168960,160
61,69,169120,160
56,69,169280,160
52,74,169440,160
56,70,169600,160
61,70,169760,160
56,74,169920,160
61,68,170080,160
64,68,170240,160
68,85,170400,160
64,68,170560,160
61,68,170720,160
56,74,170880,160
61,68,171040,160
64,68,171200,160
62,74,171360,160
65,69,171520,160
68,69,171680,160
63,74,171840,160
66,67,172000,160
68,69,172160,160
62,76,172320,160
65,78,172480,160
68,81,172640,160
63,90,172800,160
66,82,172960,160
69,78,173120,160
60,74,173280,160
64,70,173440,160
68,70,173600,160
60,74,173760,160
63,69,173920,160
66,69,174080,160
64,74,174240,160
68,68,174400,160
73,69,174560,160
76,84,174720,160
73,69,174880,160
68,69,175040,160
64,74,175200,160
68,69,175360,160
73,69,175520,160
68,74,175680,160
73,68,175840,160
76,68,176000,160
80,83,176160,160
76,70,176320,160
73,70,176480,160
68,74,176640,160
73,69,176800,160
76,69,176960,160
75,74,177120,160
78,69,177280,160
80,69,177440,160
75,74,177600,160
78,70,177760,160
82,70,177920,160
75,76,178080,160
78,81,178240,160
84,87,178400,160
73,87,178560,160
76,82,178720,160
85,82,178880,160
75,87,179040,160
78,83,179200,160
87,83,179360,160
76,87,179520,160
80,82,179680,160
88,82,179840,160
78,87,180000,160
81,84,180160,160
90,85,180320,160
80,92,180480,160
83,90,180640,160
92,90,180800,160
81,98,180960,160
85,90,181120,160
93,94,181280,160
80,103,181440,160
88,97,181600,160
92,97,181760,160
81,105,181920,160
90,96,182080,160
93,96,182240,160
83,109,182400,160
92,101,182560,160
95,101,182720,160
85,114,182880,160
88,103,183040,160
93,102,183200,160
97,114,183360,160
93,99,183520,160
88,99,183680,160
93,106,183840,160
88,96,184000,160
85,101,184160,160
81,105,184320,160
85,97,184480,160
88,100,184640,160
93,113,184800,160
88,96,184960,160
85,96,185120,160
88,105,185280,160
85,100,185440,160
81,95,185600,160
73,104,185760,160
76,100,185920,160
81,95,186080,160
85,114,186240,160
81,95,186400,160
76,98,186560,160
81,103,186720,160
76,95,186880,160
73,95,187040,160
69,103,187200,160
73,95,187360,160
76,95,187520,160
81,114,187680,160
76,98,187840,160
73,98,188000,160
76,102,188160,160
73,98,188320,160
69,98,188480,160
76,102,188640,160
73,97,188800,160
69,97,188960,160
73,113,189120,160
69,97,189280,160
64,97,189440,160
69,102,189600,160
64,97,189760,160
61,97,189920,160
69,99,190080,160
64,93,190240,160
61,87,190400,160
64,81,190560,160
61,78,190720,160
57,72,190880,160
61,67,191040,160
57,61,191200,160
52,54,191360,160
49,52,191520,160
52,50,191680,160
57,50,191840,160
61,51,192000,160
57,47,192160,160
52,48,192320,160
49,51,192480,160
52,47,192640,160
57,47,192800,160
49,51,192960,160
54,49,193120,160
57,49,193280,160
61,52,193440,160
57,49,193600,160
54,49,193760,160
49,52,193920,160
54,48,194080,160
57,48,194240,160
49,51,194400,160
53,48,194560,160
56,48,194720,160
61,50,194880,160
56,45,195040,160
53,45,195200,160
49,48,195360,160
53,45,195520,160
56,45,195680,160
51,46,195840,160
54,42,196000,160
56,42,196160,160
60,45,196320,160
56,41,196480,160
54,41,196640,160
51,44,196800,160
54,40,196960,160
56,41,197120,160
53,52,197280,160
56,47,197440,160
61,47,197600,160
65,59,197760,160
61,48,197920,160
56,48,198080,160
53,52,198240,160
56,48,198400,160
61,48,198560,160
56,52,198720,160
61,48,198880,160
65,48,199040,160
68,61,199200,160
65,47,199360,160
61,47,199520,160
56,52,199680,160
61,47,199840,160
65,47,200000,160
62,52,200160,160
65,48,200320,160
68,48,200480,160
63,52,200640,160
66,48,200800,160
68,48,200960,160
63,54,201120,160
66,57,201280,160
69,56,201440,160
60,63,201600,160
66,58,201760,160
70,55,201920,160
60,52,202080,160
65,47,202240,160
68,47,202400,160
60,52,202560,160
63,49,202720,160
66,49,202880,160
65,52,203040,160
68,49,203200,160
73,49,203360,160
77,59,203520,160
73,49,203680,160
68,52,203840,160
65,52,204000,160
68,49,204160,160
73,49,204320,160
68,52,204480,160
73,49,204640,160
77,49,204800,160
80,61,204960,160
77,50,205120,160
73,50,205280,160
68,52,205440,160
73,48,205600,160
77,52,205760,160
74,52,205920,160
77,49,206080,160
80,52,206240,160
75,52,206400,160
78,49,206560,160
80,49,206720,160
75,54,206880,160
78,57,207040,160
81,57,207200,160
72,63,207360,160
78,58,207520,160
82,55,207680,160
72,52,207840,160
77,48,208000,160
80,48,208160,160
72,52,208320,160
75,49,208480,160
78,49,208640,160
72,51,208800,160
75,46,208960,160
77,46,209120,160
70,49,209280,160
73,45,209440,160
77,45,209600,160
68,46,209760,160
72,42,209920,160
77,42,210080,160
68,44,210240,160
70,39,210400,160
77,39,210560,160
66,41,210720,160
70,37,210880,160
75,37,211040,160
65,39,211200,160
70,35,211360,160
73,35,211520,160
63,36,211680,160
68,32,211840,160
72,34,212000,160
65,34,212160,160
68,33,212320,160
73,33,212480,160
66,34,212640,160
68,33,212800,160
75,33,212960,160
65,34,213120,160
68,32,213280,160
73,31,213440,160
68,34,213600,160
65,29,213760,160
61,29,213920,160
65,34,214080,160
61,29,214240,160
56,29,214400,160
52,74,214560,160
56,68,214720,160
61,68,214880,160
64,84,215040,160
61,69,215200,160
56,69,215360,160
52,74,215520,160
56,70,215680,160
61,70,215840,160
56,74,216000,160
61,68,216160,160
64,68,216320,160
68,85,216480,160
64,68,216640,160
61,68,216800,160
56,74,216960,160
61,68,217120,160
64,68,217280,160
62,74,217440,160
65,69,217600,160
68,69,217760,160
63,74,217920,160
66,67,218080,160
68,69,218240,160
62,76,218400,160
65,78,218560,160
68,81,218720,160
63,90,218880,160
66,82,219040,160
69,78,219200,160
60,74,219360,160
64,70,219520,160
68,70,219680,160
60,74,219840,160
63,69,220000,160
66,69,220160,160
64,74,220320,160
68,68,220480,160
73,69,220640,160
76,84,220800,160
73,69,220960,160
68,69,221120,160
64,74,221280,160
68,69,221440,160
73,69,221600,160
68,74,221760,160
73,68,221920,160
76,68,222080,160
80,83,222240,160
76,70,222400,160
73,70,222560,160
68,74,222720,160
73,69,222880,160
76,69,223040,160
75,74,223200,160
78,69,223360,160
80,69,223520,160
75,74,223680,160
78,70,223840,160
82,70,224000,160
75,76,224160,160
78,81,224320,160
84,87,224480,160
73,87,224640,160
76,82,224800,160
85,82,224960,160
75,87,225120,160
78,83,225280,160
87,83,225440,160
76,87,225600,160
80,82,225760,160
88,82,225920,160
78,87,226080,160
81,84,226240,160
90,85,226400,160
80,92,226560,160
83,90,226720,160
92,90,226880,160
81,98,227040,160
85,90,227200,160
93,94,227360,160
80,103,227520,160
88,97,227680,160
92,97,227840,160
81,105,228000,160
90,96,228160,160
93,96,228320,160
83,109,228480,160
92,101,228640,160
95,101,228800,160
85,114,228960,160
88,103,229120,160
93,102,229280,160
97,114,229440,160
93,99,229600,160
88,99,229760,160
93,106,229920,160
88,96,230080,160
85,101,230240,160
81,105,230400,160
85,97,230560,160
88,100,230720,160
93,113,230880,160
88,96,231040,160
85,96,231200,160
88,105,231360,160
85,100,231520,160
81,95,231680,160
73,104,231840,160
76,100,232000,160
81,95,232160,160
85,114,232320,160
81,95,232480,160
76,98,232640,160
81,103,232800,160
76,95,232960,160
73,95,233120,160
69,103,233280,160
73,95,233440,160
76,95,233600,160
81,114,233760,160
76,98,233920,160
73,98,234080,160
76,102,234240,160
73,98,234400,160
69,98,234560,160
76,102,234720,160
73,97,234880,160
69,97,235040,160
73,113,235200,160
69,97,235360,160
64,97,235520,160
69,102,235680,160
64,97,235840,160
61,97,236000,160
69,99,236160,160
64,93,236320,160
61,87,236480,160
64,81,236640,160
61,78,236800,160
57,72,236960,160
61,67,237120,160
57,61,237280,160
52,54,237440,160
49,52,237600,160
52,50,237760,160
57,50,237920,160
61,51,238080,160
57,47,238240,160
52,48,238400,160
49,51,238560,160
52,47,238720,160
57,47,238880,160
49,51,239040,160
54,49,239200,160
57,49,239360,160
61,52,239520,160
57,49,239680,160
54,49,239840,160
49,52,240000,160
54,48,240160,160
57,48,240320,160
49,51,240480,160
53,48,240640,160
56,48,240800,160
61,50,240960,160
56,45,241120,160
53,45,241280,160
49,48,241440,160
53,45,241600,160
56,45,241760,160
51,46,241920,160
54,42,242080,160
56,42,242240,160
60,45,242400,160
56,41,242560,160
54,41,242720,160
51,44,242880,160
54,40,243040,160
56,41,243200,160
53,52,243360,160
56,47,243520,160
61,47,243680,160
65,59,243840,160
61,48,244000,160
56,48,244160,160
53,52,244320,160
56,48,244480,160
61,48,244640,160
56,52,244800,160
61,48,244960,160
65,48,245120,160
68,61,245280,160
65,47,245440,160
61,47,245600,160
56,52,245760,160
61,47,245920,160
65,47,246080,160
62,52,246240,160
65,48,246400,160
68,48,246560,160
63,52,246720,160
66,48,246880,160
68,48,247040,160
63,54,247200,160
66,57,247360,160
69,56,247520,160
60,63,247680,160
66,58,247840,160
70,55,248000,160
60,52,248160,160
65,47,248320,160
68,47,248480,160
60,52,248640,160
63,49,248800,160
66,49,248960,160
65,52,249120,160
68,49,249280,160
73,49,249440,160
77,59,249600,160
73,49,249760,160
68,52,249920,160
65,52,250080,160
68,49,250240,160
73,49,250400,160
68,52,250560,160
73,49,250720,160
77,49,250880,160
80,61,251040,160
77,50,251200,160
73,50,251360,160
68,52,251520,160
73,48,251680,160
77,52,251840,160
74,52,252000,160
77,49,252160,160
80,52,252320,160
75,52,252480,160
78,49,252640,160
80,49,252800,160
75,54,252960,160
78,57,253120,160
81,57,253280,160
72,63,253440,160
78,58,253600,160
82,55,253760,160
72,52,253920,160
77,48,254080,160
80,48,254240,160
72,52,254400,160
75,49,254560,160
78,49,254720,160
72,51,254880,160
75,46,255040,160
77,46,255200,160
70,49,255360,160
73,45,255520,160
77,45,255680,160
68,46,255840,160
72,42,256000,160
77,42,256160,160
68,44,256320,160
70,39,256480,160
77,39,256640,160
66,41,256800,160
70,37,256960,160
75,37,257120,160
65,39,257280,160
70,35,257440,160
73,35,257600,160
63,36,257760,160
68,32,257920,160
72,34,258080,160
65,34,258240,160
68,33,258400,160
73,33,258560,160
66,34,258720,160
68,33,258880,160
75,33,259040,160
65,34,259200,160
68,32,259360,160
73,31,259520,160
68,34,259680,160
65,29,259840,160
61,29,260000,160
65,34,260160,160
61,29,260320,160
56,29,260480,160
53,36,260640,160
56,32,260800,160
61,32,260960,160
65,36,261120,160
61,29,261280,160
56,31,261440,160
53,35,261600,160
56,31,261760,160
61,31,261920,160
53,34,262080,160
56,30,262240,160
61,30,262400,160
65,34,262560,160
61,30,262720,160
56,30,262880,160
53,34,263040,160
56,30,263200,160
61,30,263360,160
52,33,263520,160
56,28,263680,160
61,28,263840,160
64,32,264000,160
61,28,264160,160
56,28,264320,160
52,32,264480,160
56,27,264640,160
61,28,264800,160
52,31,264960,160
58,27,265120,160
61,27,265280,160
64,30,265440,160
61,27,265600,160
58,27,265760,160
52,29,265920,160
58,27,266080,160
61,27,266240,160
51,29,266400,160
58,27,266560,160
61,27,266720,160
63,28,266880,160
61,27,267040,160
58,27,267200,160
51,28,267360,160
58,23,267520,160
61,23,267680,160
51,28,267840,160
58,24,268000,160
61,24,268160,160
63,27,268320,160
61,25,268480,160
58,25,268640,160
51,26,268800,160
58,26,268960,160
61,26,269120,160
63,38,269280,475
63,39,269760,475
63,39,270240,475
63,40,270720,475
63,40,271200,475
63,46,271680,475
68,46,272160,475
63,34,272160,475
60,34,272160,475
63,34,272640,960
68,46,272640,720
60,34,272640,960
70,39,273360,240
61,34,273600,475
68,46,273600,475
63,34,273600,475
63,34,274080,960
61,34,274080,960
67,46,274080,720
70,37,274800,238
70,46,275040,475
63,38,275520,475
68,51,275520,475
61,39,276000,475
63,39,276000,475
70,52,276000,475
72,55,276480,960
60,40,276480,960
63,40,276480,960
63,59,277440,475
72,72,277920,475
60,54,277920,475
63,54,277920,475
63,55,278400,720
60,55,278400,720
72,73,278400,720
61,46,279120,238
73,63,279120,238
63,46,279120,238
72,71,279360,475
60,52,279360,475
63,52,279360,475
70,64,279840,720
63,47,279840,720
58,47,279840,720
60,39,280560,238
72,52,280560,238
63,39,280560,238
70,56,280800,475
63,41,280800,475
58,41,280800,475
68,52,281280,475
56,39,281280,475
63,39,281280,475
70,56,281760,480
75,66,281760,360
63,49,281760,480
73,59,282120,120
63,36,282240,960
72,49,282240,960
68,36,282240,960
75,56,283200,475
75,34,283680,475
80,54,283680,475
72,34,283680,475
75,34,284160,960
80,57,284160,720
72,34,284160,960
82,53,284880,240
73,34,285120,475
80,57,285120,475
75,34,285120,475
79,57,285600,720
75,34,285600,960
73,34,285600,960
82,57,286320,240
82,57,286560,475
75,35,287040,475
80,59,287040,475
73,37,287520,475
82,62,287520,475
75,37,287520,475
75,40,288000,960
84,66,288000,960
72,40,288000,960
75,65,288960,475
84,73,289440,475
72,44,289440,475
75,44,289440,475
72,44,289920,960
75,44,289920,960
84,74,289920,720
85,70,290640,240
72,37,290880,475
84,59,290880,475
76,37,290880,475
76,36,291360,960
72,36,291360,960
82,52,291360,720
84,54,292080,240
72,36,292320,475
77,36,292320,475
82,49,292320,475
72,34,292800,475
77,34,292800,475
80,47,292800,160
82,52,292960,80
80,51,293040,80
79,51,293120,80
80,51,293200,80
73,37,293280,480
79,37,293280,480
84,64,293280,360
82,62,293640,120
72,35,293760,960
80,54,293760,960
75,80,294960,238
63,68,294960,238
68,68,294960,238
75,91,295200,475
63,77,295200,475
68,77,295200,475
68,74,295680,713
75,88,295680,713
63,74,295680,713
60,68,296400,238
72,80,296400,238
63,68,296400,238
72,91,296640,475
63,77,296640,475
60,77,296640,475
63,73,297120,713
60,73,297120,713
72,86,297120,713
65,67,297840,238
60,67,297840,238
68,79,297840,238
65,67,298080,360
68,79,298080,360
60,67,298080,360
61,68,298560,360
70,80,298560,360
63,68,298560,360
61,68,299040,360
67,68,299040,360
63,68,299040,360
73,80,299040,360
70,68,299040,360
60,68,299520,1200
63,68,299520,1200
68,80,299520,1200
72,80,299520,1200
77,93,300720,238
65,79,300720,238
68,79,300720,238
65,85,300960,475
77,100,300960,475
68,85,300960,475
68,85,301440,713
77,100,301440,713
65,85,301440,713
68,79,302160,238
73,93,302160,238
65,79,302160,238
68,85,302400,475
73,100,302400,475
65,85,302400,475
68,85,302880,713
73,100,302880,713
65,85,302880,713
68,93,303600,238
65,79,303600,238
65,84,303840,360
68,99,303840,360
69,84,304320,360
66,84,304320,360
73,99,304320,360
69,84,304800,360
73,99,304800,360
78,99,304800,360
66,84,304800,360
68,84,305280,1200
73,84,305280,1200
65,84,305280,1200
77,99,305280,1200
66,86,306480,238
73,86,306480,238
78,102,306480,238
73,87,306720,1440
78,103,306720,1440
66,87,306720,1440
76,61,308160,480
73,51,308160,960
67,51,308160,1200
75,61,308640,480
73,60,309120,240
61,57,309360,120
68,68,309360,120
61,57,309600,1440
68,68,309600,1200
70,35,310800,60
68,35,310860,60
67,35,310920,60
68,35,310980,60
68,52,311040,1440
71,52,311160,360
62,52,311160,1320
70,53,311520,480
68,53,312000,480
60,34,312480,1440
63,40,312480,475
56,34,312480,1440
63,40,312960,960
55,34,313920,960
58,34,313920,960
61,40,313920,960
63,40,313920,475
63,40,314400,475
63,40,314880,475
60,34,315360,475
63,34,315360,475
68,46,315360,475
68,46,315840,720
63,34,315840,960
60,34,315840,960
70,39,316560,240
61,34,316800,475
63,34,316800,475
68,46,316800,475
67,46,317280,720
63,34,317280,960
61,34,317280,960
70,37,318000,240
70,46,318240,475
68,51,318720,475
63,38,318720,475
63,39,319200,475
70,52,319200,475
61,39,319200,475
60,40,319680,960
72,55,319680,960
63,40,319680,960
63,52,320640,475
63,53,321120,475
72,72,321120,475
60,53,321120,475
72,72,321600,720
63,53,321600,720
60,53,321600,720
61,51,322320,238
70,70,322320,238
58,51,322320,238
58,56,322560,475
70,75,322560,475
61,56,322560,475
60,53,323040,720
69,71,323040,720
57,53,323040,720
58,50,323760,238
61,50,323760,238
70,67,323760,238
70,71,324000,480
58,52,324000,480
61,52,324000,480
56,43,324480,480
60,43,324480,480
68,59,324480,480
55,44,324960,432
58,44,324960,432
67,60,324960,432
56,43,325440,960
68,59,325440,960
60,43,325440,960
75,56,326400,475
75,34,326880,475
80,54,326880,475
72,34,326880,475
75,34,327360,960
80,57,327360,720
72,34,327360,960
82,52,328080,240
80,57,328320,475
73,34,328320,475
75,34,328320,475
73,34,328800,960
79,57,328800,720
75,34,328800,960
82,57,329520,238
82,57,329760,475
80,59,330240,475
75,35,330240,475
82,62,330720,475
75,37,330720,475
73,37,330720,475
75,40,331200,960
72,40,331200,960
84,66,331200,960
75,72,332160,475
84,72,332640,475
75,53,332640,475
72,53,332640,475
72,53,333120,720
75,53,333120,720
84,72,333120,720
73,51,333840,238
82,70,333840,238
70,51,333840,238
82,75,334080,475
73,56,334080,475
70,56,334080,475
72,53,334560,720
81,71,334560,720
69,53,334560,720
70,50,335280,238
82,67,335280,238
73,50,335280,238
82,71,335520,475
73,52,335520,475
70,52,335520,475
68,43,336000,475
80,59,336000,475
72,43,336000,475
79,60,336480,432
70,44,336480,432
67,44,336480,432
68,43,336960,960
80,59,336960,960
72,43,336960,960
70,73,338160,238
61,51,338160,238
58,51,338160,238
61,50,338400,480
58,50,338400,480
70,72,338400,480
68,60,338880,480
56,42,338880,480
60,42,338880,480
55,39,339360,432
67,55,339360,432
58,39,339360,432
68,53,339840,1200
60,37,339840,1200
56,37,339840,1200
61,56,341040,238
73,79,341040,238
70,67,341040,238
61,56,341280,480
70,67,341280,480
73,79,341280,480
68,59,341760,480
60,50,341760,480
72,70,341760,480
58,45,342240,432
67,54,342240,432
70,64,342240,432
56,43,342720,960
68,61,342720,960
51,27,960,475
51,27,1440,475
44,27,1440,1440
51,27,1920,960
51,27,2880,475
46,27,2880,1440
51,27,3360,960
51,27,4320,475
48,27,4320,960
51,27,4800,475
43,27,5280,480
51,27,5280,475
44,27,5760,960
51,27,5760,960
51,31,6720,475
44,31,7200,1440
51,31,7200,475
51,31,7680,960
51,31,8640,475
49,31,8640,1440
51,31,9120,960
51,31,10080,475
48,31,10080,960
51,31,10560,475
43,31,11040,480
51,31,11040,480
44,29,11520,960
51,29,11520,960
51,27,12480,475
44,27,12960,1440
51,27,12960,475
51,27,13440,960
46,27,14400,1440
51,27,14400,475
51,27,14880,960
51,27,15840,475
48,27,15840,960
51,28,16320,475
43,29,16800,475
51,29,16800,475
44,32,17280,960
51,32,17280,960
51,31,18240,475
44,34,18720,1440
51,34,18720,475
51,35,19200,960
43,31,20160,1440
48,31,20160,475
48,31,20640,960
48,31,21600,475
41,31,21600,960
48,31,22080,475
51,31,22560,480
39,31,22560,480
44,29,23040,960
51,29,23040,960
51,27,24000,475
44,27,24480,1440
51,27,24480,475
51,27,24960,960
46,27,25920,1440
51,27,25920,475
51,27,26400,960
51,27,27360,475
48,27,27360,951
51,27,27840,475
51,27,28320,475
43,27,28320,475
44,27,28800,960
51,27,28800,960
51,31,29760,475
51,31,30240,475
44,31,30240,1440
51,31,30720,960
51,31,31680,475
49,31,31680,1440
51,31,32160,960
48,31,33120,960
51,31,33120,475
51,31,33600,475
43,31,34080,480
51,31,34080,480
44,29,34560,960
51,29,34560,960
51,27,35520,475
51,27,36000,475
44,27,36000,1440
51,27,36480,960
51,27,37440,475
46,27,37440,1440
51,27,37920,960
51,27,38880,475
48,27,38880,960
51,28,39360,475
43,29,39840,475
51,29,39840,475
51,32,40320,960
44,32,40320,960
51,31,41280,475
51,34,41760,475
44,34,41760,1440
51,35,42240,960
43,31,43200,1440
48,31,43200,475
48,31,43680,960
41,31,44640,960
48,31,44640,480
48,31,45120,480
51,31,45600,480
39,31,45600,480
44,28,46080,960
51,28,46080,960
56,54,47280,238
60,64,47280,238
48,54,47280,238
60,73,47520,475
48,62,47520,475
56,62,47520,475
56,59,48000,713
60,70,48000,713
48,59,48000,713
56,64,48720,238
51,54,48720,238
44,54,48720,238
44,61,48960,475
51,61,48960,475
56,72,48960,475
56,70,49440,713
51,59,49440,713
44,59,49440,713
41,54,50160,240
53,64,50160,240
41,54,50400,360
53,64,50400,360
55,64,50880,360
43,54,50880,360
39,54,51360,360
51,64,51360,360
56,64,51840,1200
44,54,51840,1200
51,54,51840,1200
44,68,53040,238
37,68,53040,238
49,80,53040,238
44,68,53280,475
37,68,53280,475
49,80,53280,475
37,68,53760,713
44,68,53760,713
49,80,53760,713
37,68,54480,238
49,80,54480,238
44,68,54480,238
44,68,54720,475
37,68,54720,475
49,80,54720,475
49,80,55200,713
44,68,55200,713
37,68,55200,713
49,80,55920,238
37,68,55920,238
37,68,56160,360
49,80,56160,360
45,80,56640,360
33,68,56640,360
30,68,57120,360
42,80,57120,360
37,68,57600,1200
49,80,57600,1200
45,80,58800,238
33,68,58800,238
45,80,59040,2640
33,68,59040,2640
52,54,61680,120
40,45,61680,120
52,54,61920,2880
40,45,61920,2880
51,27,64800,475
39,27,64800,1440
51,27,65280,960
39,27,66240,960
51,27,66240,475
51,27,66720,475
51,27,67200,475
51,27,67680,475
44,27,67680,1440
51,27,68160,960
46,27,69120,1440
51,27,69120,475
51,27,69600,960
51,27,70560,475
48,27,70560,960
51,27,71040,475
51,27,71520,475
43,27,71520,475
51,27,72000,960
44,27,72000,960
51,29,72960,475
51,36,73440,475
42,36,73440,1440
51,37,73920,960
41,37,74880,1200
51,37,74880,475
51,35,75360,720
40,35,76080,238
49,35,76080,238
40,35,76320,480
49,35,76320,480
51,29,76800,480
39,28,76800,480
51,30,77280,432
49,30,77280,432
39,30,77280,432
48,28,77760,960
51,28,77760,960
44,28,77760,960
51,27,78720,475
51,27,79200,475
44,27,79200,1440
51,27,79680,960
51,27,80640,475
46,27,80640,1440
51,27,81120,960
51,27,82080,475
48,27,82080,960
51,28,82560,475
43,29,83040,475
51,29,83040,475
44,32,83520,960
51,32,83520,960
51,37,84480,475
51,36,84960,475
42,36,84960,1440
51,37,85440,960
41,37,86400,1200
51,37,86400,475
51,35,86880,713
49,35,87600,238
40,35,87600,238
49,35,87840,475
40,35,87840,475
51,29,88320,475
39,28,88320,475
51,30,88800,432
49,30,88800,432
39,30,88800,432
48,28,89280,960
51,28,89280,960
44,28,89280,960
56,54,90480,238
60,64,90480,238
48,54,90480,238
56,62,90720,475
48,62,90720,475
60,73,90720,475
48,59,91200,713
56,59,91200,713
60,70,91200,713
51,54,91920,238
44,54,91920,238
56,64,91920,238
51,61,92160,475
56,72,92160,475
44,61,92160,475
51,59,92640,713
56,70,92640,713
44,59,92640,713
41,54,93360,238
53,64,93360,238
41,54,93600,360
53,64,93600,360
55,64,94080,360
43,54,94080,360
39,54,94560,360
51,64,94560,360
51,54,95040,1200
56,64,95040,1200
44,54,95040,1200
37,68,96240,238
44,68,96240,238
49,80,96240,238
37,68,96480,475
49,80,96480,475
44,68,96480,475
49,80,96960,713
37,68,96960,713
44,68,96960,713
44,68,97680,238
49,80,97680,238
37,68,97680,238
44,68,97920,475
49,80,97920,475
37,68,97920,475
44,68,98400,713
49,80,98400,713
37,68,98400,713
37,68,99120,238
49,80,99120,238
49,80,99360,360
37,68,99360,360
45,80,99840,360
33,68,99840,360
42,80,100320,360
30,68,100320,360
37,68,100800,1200
49,80,100800,1200
33,68,102000,238
45,80,102000,238
45,80,102240,2640
33,68,102240,2640
52,54,104880,120
40,45,104880,120
40,45,105120,2880
52,54,105120,2880
51,27,108000,475
39,27,108000,1440
51,27,108480,960
51,27,109440,475
39,27,109440,960
51,27,109920,475
51,27,110400,475
44,27,110880,1440
51,27,110880,475
51,27,111360,960
51,27,112320,475
46,27,112320,1440
51,27,112800,960
51,27,113760,475
48,27,113760,951
51,27,114240,475
51,27,114720,475
43,27,114720,475
51,27,115200,960
44,27,115200,960
51,29,116160,475
51,36,116640,475
42,36,116640,1440
51,37,117120,960
51,37,118080,475
41,37,118080,1200
51,35,118560,720
40,35,119280,238
49,35,119280,238
49,35,119520,475
40,35,119520,475
39,28,120000,475
51,29,120000,475
39,30,120480,432
49,30,120480,432
51,30,120480,432
51,28,120960,960
48,28,120960,960
44,28,120960,960
51,27,121920,475
44,27,122400,1440
51,27,122400,475
51,27,122880,960
46,27,123840,1440
51,27,123840,475
51,27,124320,960
48,27,125280,960
51,27,125280,475
51,28,125760,475
43,29,126240,475
51,29,126240,475
44,32,126720,960
51,32,126720,960
51,37,127680,475
51,36,128160,475
42,36,128160,1440
51,37,128640,960
41,37,129600,1200
51,37,129600,475
51,35,130080,720
40,36,130800,238
49,36,130800,238
49,35,131040,480
40,35,131040,480
51,29,131520,480
39,28,131520,480
51,30,132000,432
49,30,132000,432
39,30,132000,432
48,29,132480,960
51,29,132480,960
44,29,132480,960
44,51,133440,480
37,51,133920,1440
44,60,134400,1440
41,51,135360,1440
44,61,135840,1440
36,52,136800,1440
44,59,137280,1440
32,52,138240,1440
44,59,138720,1440
37,51,139680,1440
44,60,140160,1440
41,51,141120,1440
44,61,141600,1440
36,52,142560,1440
44,59,143040,1440
32,52,144000,1440
44,59,144480,960
34,51,145440,1440
46,49,145920,960
39,44,146880,960
51,41,147360,480
54,39,147840,480
42,39,147840,480
44,36,148320,1440
56,34,148800,1920
49,34,149760,960
37,51,151200,1440
44,60,151680,1440
41,51,152640,1440
44,61,153120,1440
36,52,154080,1440
44,59,154560,1440
32,52,155520,1440
44,59,156000,1440
37,51,156960,1440
44,60,157440,1440
41,51,158400,1440
44,61,158880,1440
36,52,159840,1440
44,59,160320,1440
32,52,161280,1440
44,59,161760,960
34,51,162720,1440
46,49,163200,960
39,44,164160,960
51,41,164640,480
42,39,165120,480
54,39,165120,480
44,36,165600,1440
56,34,166080,1920
49,34,167040,960
37,73,168480,1440
44,85,168960,1440
40,73,169920,1440
44,86,170400,1440
36,74,171360,1440
44,84,171840,1440
32,74,172800,1440
44,84,173280,1440
37,73,174240,1440
44,85,174720,1440
40,73,175680,1440
44,86,176160,1440
32,74,177120,1440
44,84,177600,1440
37,73,178560,1440
44,87,179040,960
30,87,180000,1440
42,92,180480,960
40,94,181440,1440
52,99,181920,960
45,102,182880,240
40,86,182880,240
33,86,182880,240
33,90,183360,960
40,90,183360,960
45,107,183360,960
45,102,184320,240
33,86,184320,240
40,86,184320,240
33,92,184800,960
45,109,184800,960
40,92,184800,960
33,86,185760,240
45,102,185760,240
40,86,185760,240
40,91,186240,960
45,108,186240,960
33,91,186240,960
33,86,187200,240
45,102,187200,240
40,86,187200,240
40,92,187680,1440
45,109,187680,1440
33,92,187680,1440
45,84,189120,480
40,71,189120,480
33,71,189120,480
45,86,189600,480
33,73,189600,480
40,73,189600,480
40,68,190080,480
45,80,190080,480
33,68,190080,480
33,64,190560,480
40,64,190560,480
45,76,190560,480
40,61,191040,480
33,61,191040,480
45,72,191040,480
33,68,191520,1440
30,38,192960,80
32,33,193040,80
30,38,193120,80
32,32,193199,80
30,38,193279,80
32,33,193359,80
30,38,193439,80
32,34,193518,80
30,38,193599,80
32,34,193678,80
30,38,193758,80
32,34,193838,80
30,38,193920,96
32,34,194016,96
30,38,194112,96
29,35,194208,96
30,35,194304,96
32,43,194400,2880
37,51,197280,1440
44,60,197760,1440
41,51,198720,1440
44,61,199200,1440
36,52,200160,1440
44,59,200640,1440
32,52,201600,1440
44,59,202080,1440
37,51,203040,1440
44,60,203520,1440
41,51,204480,1440
44,61,204960,1440
36,52,205920,1440
44,59,206400,1440
32,52,207360,1440
44,59,207840,960
34,51,208800,1440
46,49,209280,960
39,44,210240,960
51,41,210720,480
42,39,211200,480
54,39,211200,480
44,36,211680,1440
56,34,212160,1920
49,34,213120,960
37,73,214560,1440
44,85,215040,1440
40,73,216000,1440
44,86,216480,1440
36,74,217440,1440
44,84,217920,1440
32,74,218880,1440
44,84,219360,1440
37,73,220320,1440
44,85,220800,1440
40,73,221760,1440
44,86,222240,1440
32,74,223200,1440
44,84,223680,1440
37,73,224640,1440
44,87,225120,960
30,87,226080,1440
42,92,226560,960
40,94,227520,1440
52,99,228000,960
33,86,228960,240
45,102,228960,240
40,86,228960,240
45,107,229440,960
33,90,229440,960
40,90,229440,960
40,86,230400,240
45,102,230400,240
33,86,230400,240
40,92,230880,960
33,92,230880,960
45,109,230880,960
40,86,231840,240
45,102,231840,240
33,86,231840,240
40,91,232320,960
33,91,232320,960
45,108,232320,960
33,86,233280,240
40,86,233280,240
45,102,233280,240
40,92,233760,1440
33,92,233760,1440
45,109,233760,1440
45,84,235200,480
40,71,235200,480
33,71,235200,480
45,86,235680,480
33,73,235680,480
40,73,235680,480
45,80,236160,480
40,68,236160,480
33,68,236160,480
33,64,236640,480
45,76,236640,480
40,64,236640,480
40,61,237120,480
45,72,237120,480
33,61,237120,480
33,68,237600,1440
30,38,239040,80
32,33,239120,80
30,38,239200,80
32,32,239279,80
30,38,239359,80
32,33,239439,80
30,38,239519,80
32,34,239598,80
30,38,239679,80
32,34,239758,80
30,38,239838,80
32,34,239918,80
30,38,240000,96
32,34,240096,96
30,38,240192,96
29,35,240288,96
30,35,240384,96
32,45,240480,2880
37,51,243360,1440
44,60,243840,1440
41,51,244800,1440
44,61,245280,1440
36,52,246240,1440
44,59,246720,1440
32,52,247680,1440
44,59,248160,1440
37,51,249120,1440
44,60,249600,1440
41,51,250560,1440
44,61,251040,1440
36,52,252000,1440
44,59,252480,1440
32,52,253440,1440
44,59,253920,960
34,51,254880,1440
46,49,255360,960
39,44,256320,960
51,41,256800,480
42,39,257280,480
54,39,257280,480
44,36,257760,1440
56,34,258240,1920
49,34,259200,960
44,27,260640,2880
37,27,260640,2880
49,32,260640,2880
49,31,263520,1440
37,26,263520,1440
46,31,264960,1440
34,26,264960,1440
39,26,266400,1440
43,31,266400,1440
31,26,266400,1440
31,26,267840,1440
39,26,267840,1440
43,31,267840,1440
43,22,269280,960
61,26,269280,960
51,26,269280,960
31,22,269280,960
39,22,269280,960
58,26,269280,960
51,27,270240,475
51,27,270720,475
51,27,271200,475
51,27,271680,475
51,27,272160,475
44,27,272160,1440
51,27,272640,960
46,27,273600,1440
51,27,273600,475
51,27,274080,960
48,27,275040,960
51,27,275040,475
51,27,275520,475
51,27,276000,475
43,27,276000,475
51,27,276480,960
44,27,276480,960
51,33,277440,475
51,33,277920,475
44,33,277920,1440
51,33,278400,960
49,33,279360,1440
51,33,279360,475
51,33,279840,960
51,31,280800,475
48,31,280800,960
51,31,281280,475
43,31,281760,480
51,31,281760,480
51,29,282240,960
44,29,282240,960
51,27,283200,475
44,27,283680,1440
51,27,283680,475
51,27,284160,960
46,27,285120,1440
51,27,285120,475
51,27,285600,480
51,27,286560,475
48,27,286560,960
51,28,287040,475
51,29,287520,475
43,29,287520,475
51,32,288000,960
44,32,288000,960
51,31,288960,475
44,34,289440,1440
51,34,289440,475
51,35,289920,960
43,31,290880,1440
48,31,290880,475
48,31,291360,960
41,31,292320,960
48,31,292320,475
48,31,292800,475
39,29,293280,480
51,29,293280,480
51,28,293760,960
44,28,293760,960
56,54,294960,238
60,64,294960,238
48,54,294960,238
60,73,295200,475
56,62,295200,475
48,62,295200,475
48,59,295680,713
56,59,295680,713
60,70,295680,713
44,54,296400,238
51,54,296400,238
56,64,296400,238
44,61,296640,475
56,72,296640,475
51,61,296640,475
44,59,297120,713
51,59,297120,713
56,70,297120,713
53,64,297840,238
41,54,297840,238
41,54,298080,360
53,64,298080,360
43,54,298560,360
55,64,298560,360
39,54,299040,360
51,64,299040,360
44,54,299520,1200
51,54,299520,1200
56,64,299520,1200
37,68,300720,238
44,68,300720,238
49,80,300720,238
49,80,300960,475
44,68,300960,475
37,68,300960,475
44,68,301440,713
37,68,301440,713
49,80,301440,713
49,80,302160,238
37,68,302160,238
44,68,302160,238
49,80,302400,475
44,68,302400,475
37,68,302400,475
37,68,302880,713
44,68,302880,713
49,80,302880,713
37,68,303600,238
49,80,303600,238
49,80,303840,360
37,68,303840,360
33,68,304320,360
45,80,304320,360
42,80,304800,360
30,68,304800,360
49,80,305280,1200
37,68,305280,1200
33,68,306480,238
45,80,306480,238
33,68,306720,2640
45,80,306720,2640
52,54,309360,120
40,45,309360,120
40,45,309600,2880
52,54,309600,2880
39,27,312480,1440
51,27,312480,475
51,27,312960,960
51,27,313920,475
39,27,313920,960
51,27,314400,475
51,27,314880,475
44,27,315360,1440
51,27,315360,475
51,27,315840,960
51,27,316800,475
46,27,316800,1440
51,27,317280,960
48,27,318240,951
51,27,318240,475
51,27,318720,475
51,27,319200,475
43,27,319200,475
44,27,319680,960
51,27,319680,960
51,29,320640,475
51,36,321120,475
42,36,321120,1440
51,37,321600,960
51,37,322560,475
41,37,322560,1200
51,35,323040,720
49,35,323760,238
40,35,323760,238
40,35,324000,480
49,35,324000,480
39,28,324480,480
51,29,324480,480
39,30,324960,432
49,30,324960,432
51,30,324960,432
51,28,325440,960
44,28,325440,960
48,28,325440,960
51,27,326400,475
44,27,326880,1440
51,27,326880,475
51,27,327360,960
46,27,328320,1440
51,27,328320,475
51,27,328800,960
51,27,329760,475
48,27,329760,960
51,28,330240,475
43,29,330720,475
51,29,330720,475
44,32,331200,960
51,32,331200,960
51,37,332160,475
51,36,332640,475
42,36,332640,1440
51,37,333120,960
41,37,334080,1200
51,37,334080,475
51,35,334560,720
40,35,335280,238
49,35,335280,238
49,35,335520,475
40,35,335520,475
39,28,336000,475
51,29,336000,475
39,30,336480,432
51,30,336480,432
49,30,336480,432
51,28,336960,960
48,28,336960,960
44,28,336960,960
40,35,338160,238
49,35,338160,238
49,35,338400,480
40,35,338400,480
39,28,338880,480
51,29,338880,480
49,30,339360,432
51,30,339360,432
39,30,339360,432
51,28,339840,1200
44,28,339840,1200
48,28,339840,1200
49,35,341040,238
46,35,341040,238
40,35,341040,238
49,35,341280,480
40,35,341280,480
46,35,341280,480
51,28,341760,480
39,27,341760,480
48,27,341760,480
49,29,342240,432
39,29,342240,432
51,29,342240,432
51,28,342720,960
44,28,342720,960
48,28,342720,960
