note,velocity,position,duration
72,56,720,240
77,60,960,480
65,31,1200,480
72,31,1200,480
76,56,1440,240
65,30,1680,240
75,51,1680,240
74,52,1920,240
65,30,2160,480
76,52,2160,240
77,55,2400,240
65,31,2640,240
79,50,2640,240
72,57,2880,720
60,29,3120,480
67,46,3120,240
69,47,3360,240
60,29,3600,240
70,44,3600,240
69,47,3840,480
60,30,4080,480
72,56,4560,240
72,56,4800,240
77,60,5040,240
65,31,5040,477
76,56,5280,240
75,51,5520,240
74,52,5760,240
65,30,6000,480
76,52,6000,240
77,55,6240,240
65,31,6480,240
79,50,6480,240
72,57,6720,720
60,29,6960,480
67,46,6960,240
69,47,7200,240
60,29,7440,240
70,45,7440,240
69,47,7680,480
65,32,7920,480
72,50,8400,240
72,56,8640,240
60,40,8880,480
67,51,8880,240
69,54,9120,240
60,40,9360,240
70,57,9360,240
74,56,9600,720
64,48,10080,240
60,40,10320,240
66,48,10320,240
58,41,10560,240
67,50,10560,240
70,52,10800,240
74,54,11040,240
60,32,11280,240
62,44,11280,240
67,46,11520,480
58,32,11760,480
70,53,12240,240
74,59,12480,240
66,32,12720,720
69,55,12720,240
70,59,12960,240
72,63,13200,240
76,63,13440,720
64,59,13680,480
66,52,13920,240
62,44,14160,240
68,52,14160,240
60,45,14400,240
69,55,14400,240
72,57,14640,240
76,59,14880,240
62,41,15120,480
60,57,15600,477
69,57,15600,480
58,53,16080,240
67,53,16080,240
65,62,16320,480
53,53,16560,480
60,53,16560,480
64,49,16800,240
53,35,17040,240
63,45,17040,240
74,48,17280,240
65,27,17520,480
76,44,17520,240
77,44,17760,240
65,27,18000,240
79,44,18000,240
72,46,18240,720
60,26,18480,480
67,37,18480,240
69,37,18720,240
60,26,18960,240
70,36,18960,240
69,37,19200,480
65,24,19440,477
72,50,19920,240
72,50,20160,240
77,54,20400,240
65,27,20400,477
76,50,20640,240
63,27,20880,240
75,45,20880,240
74,46,21120,240
65,27,21360,480
76,46,21360,240
77,49,21600,240
65,27,21810,30
67,25,21820,260
74,25,21830,250
79,43,21840,240
81,49,22080,480
69,28,22320,480
72,25,22320,480
79,44,22560,480
67,25,22800,240
72,25,22800,240
77,38,23040,480
65,25,23280,480
72,25,23280,480
72,50,23760,240
72,56,24000,240
60,40,24240,480
67,51,24240,240
69,54,24480,240
60,40,24720,240
70,57,24720,240
74,56,24960,720
64,48,25440,240
60,40,25680,240
66,48,25680,240
58,41,25920,240
67,50,25920,240
70,52,26160,240
74,54,26400,240
60,32,26640,240
62,44,26640,240
67,46,26880,480
58,33,27120,480
70,53,27600,240
74,59,27840,240
66,32,28080,720
69,55,28080,240
70,59,28320,240
72,63,28560,240
76,63,28800,720
64,59,29040,480
66,52,29280,240
62,44,29520,240
68,52,29520,240
60,45,29760,240
69,55,29760,240
72,57,30000,240
76,59,30240,240
62,41,30480,480
60,57,30960,477
69,57,30960,480
58,53,31440,240
67,53,31440,240
65,62,31680,480
53,53,31920,480
60,53,31920,480
64,49,32160,240
53,35,32400,240
63,45,32400,240
74,48,32640,240
65,27,32880,480
76,44,32880,240
77,44,33120,240
65,27,33360,240
79,44,33360,240
72,46,33600,720
60,26,33840,480
67,37,33840,240
69,37,34080,240
60,26,34320,240
70,36,34320,240
69,37,34560,480
65,24,34800,477
72,50,35280,240
72,50,35520,240
77,54,35760,240
65,27,35760,477
76,50,36000,240
63,27,36240,240
75,45,36240,240
74,46,36480,240
65,27,36720,480
76,46,36720,240
77,49,36960,240
65,27,37170,30
67,25,37180,260
74,25,37190,250
79,43,37200,240
81,49,37440,480
69,28,37680,480
72,25,37680,480
79,44,37920,480
67,25,38160,240
72,25,38160,240
77,38,38400,480
65,25,38640,480
72,25,38640,480
65,47,39120,210
72,47,39120,210
65,57,39360,240
74,57,39360,240
64,47,39600,210
72,47,39600,210
65,58,39840,240
74,58,39840,240
64,47,40080,210
72,47,40080,210
63,54,40320,210
72,54,40320,210
62,47,40560,240
70,51,40560,480
61,47,40800,240
60,46,41040,240
69,46,41040,240
62,50,41280,480
67,50,41280,480
64,43,41760,480
69,43,41760,480
60,38,42240,720
65,38,42240,720
53,39,42960,210
60,39,42960,210
53,50,43200,240
62,50,43200,240
52,39,43440,210
60,39,43440,210
53,51,43680,240
62,51,43680,240
52,39,43920,210
60,39,43920,210
51,48,44160,210
60,48,44160,210
50,42,44400,240
58,46,44400,480
49,42,44640,240
48,41,44880,240
57,41,44880,240
50,39,45120,480
55,39,45120,480
52,38,45600,480
57,38,45600,480
48,34,46080,720
53,34,46080,720
53,41,960,240
60,23,1200,480
69,23,1200,480
60,21,1680,240
69,21,1680,240
58,41,1920,960
62,23,2160,240
70,23,2160,240
55,33,2400,240
70,21,2640,240
62,21,2640,240
48,41,2880,240
64,24,3120,480
58,27,3120,240
57,30,3360,240
64,23,3600,240
55,23,3600,240
53,38,3840,240
65,21,4080,480
57,21,4080,480
57,25,4560,240
65,25,4560,240
53,41,4800,480
60,23,5040,480
69,23,5040,480
57,37,5280,480
60,21,5520,240
65,21,5520,240
58,41,5760,960
62,23,6000,240
70,23,6000,240
55,33,6240,240
70,21,6480,240
62,21,6480,240
48,41,6720,240
64,24,6960,480
58,27,6960,240
57,30,7200,240
64,23,7440,240
55,23,7440,240
53,38,7680,240
60,21,7920,480
57,21,7920,480
57,25,8400,240
65,25,8400,240
48,40,8640,960
64,34,8880,480
58,34,8880,480
64,34,9360,240
58,34,9360,240
48,40,9600,960
62,52,9840,480
62,40,10320,240
48,37,10560,480
55,32,10800,480
62,52,10800,477
48,33,11040,480
54,32,11280,240
48,40,11520,960
62,28,11760,480
55,23,11760,480
62,34,12240,240
55,34,12240,240
48,42,12480,960
62,54,12720,480
60,44,13200,240
48,45,13440,960
59,48,13680,480
62,48,13680,477
59,44,14160,240
48,40,14400,480
57,47,14640,480
64,57,14640,480
48,36,14880,480
64,50,15120,480
56,41,15120,480
48,56,15360,480
57,50,15600,480
64,50,15600,480
48,50,15840,480
52,50,16080,240
60,50,16080,240
41,56,16320,960
57,40,16560,480
48,40,16560,480
48,34,17040,240
57,34,17040,240
46,34,17280,480
50,22,17520,480
58,24,17520,480
43,34,17760,480
62,20,18000,240
58,21,18000,240
48,30,18240,240
58,32,18480,240
64,22,18480,480
57,35,18720,240
55,28,18960,240
64,22,18960,240
53,33,19200,480
60,20,19440,480
57,20,19440,480
65,27,19920,240
57,27,19920,240
53,36,20160,480
69,25,20400,480
60,25,20400,480
57,33,20640,480
65,22,20880,240
60,22,20880,240
58,36,21120,480
70,25,21360,240
62,25,21360,240
55,29,21600,480
59,22,21780,300
62,22,21790,290
71,22,21800,280
60,34,22080,480
69,21,22320,480
65,21,22320,480
60,31,22560,480
64,17,22800,240
70,17,22800,240
53,29,23040,480
69,17,23280,480
60,17,23280,480
69,25,23760,240
60,25,23760,240
48,40,24000,960
64,40,24240,480
58,40,24240,480
64,40,24720,240
58,40,24720,240
48,40,24960,960
62,52,25200,480
62,40,25680,240
48,37,25920,480
55,32,26160,480
62,52,26160,477
48,33,26400,480
54,32,26640,240
48,40,26880,960
62,30,27120,480
55,25,27120,480
62,34,27600,240
55,34,27600,240
48,42,27840,960
62,54,28080,480
60,44,28560,240
48,45,28800,960
59,48,29040,480
62,48,29040,477
59,44,29520,240
48,40,29760,480
57,47,30000,480
64,57,30000,480
48,36,30240,480
64,50,30480,480
56,41,30480,480
48,56,30720,480
57,50,30960,480
64,50,30960,480
48,50,31200,480
52,50,31440,240
60,50,31440,240
41,56,31680,960
57,40,31920,480
48,40,31920,480
48,34,32400,240
57,34,32400,240
46,34,32640,480
50,22,32880,480
58,24,32880,480
43,34,33120,480
62,17,33360,240
58,17,33360,240
48,30,33600,240
58,32,33840,240
64,22,33840,480
57,35,34080,240
55,28,34320,240
64,22,34320,240
53,33,34560,480
60,20,34800,480
57,20,34800,480
65,22,35280,240
57,22,35280,240
53,36,35520,480
69,21,35760,480
60,21,35760,480
57,33,36000,480
65,18,36240,240
60,18,36240,240
58,36,36480,480
70,25,36720,240
62,25,36720,240
55,29,36960,480
59,22,37140,300
62,22,37150,290
71,22,37160,280
60,34,37440,480
69,21,37680,480
65,21,37680,480
60,31,37920,480
64,17,38160,240
70,17,38160,240
53,29,38400,480
69,17,38640,480
60,17,38640,480
69,33,39120,210
60,33,39120,210
68,42,39360,240
59,42,39360,240
67,39,39600,210
60,39,39600,210
59,42,39840,240
68,42,39840,240
60,39,40080,210
67,39,40080,210
57,39,40320,240
65,37,40560,1200
58,37,40560,240
55,37,40800,240
57,36,41040,240
58,39,41280,240
55,34,41520,240
60,37,41760,240
58,31,42000,240
57,35,42240,720
53,35,42480,240
48,35,42720,450
48,33,42960,210
57,33,42960,210
56,35,43200,240
47,35,43200,240
55,32,43440,210
48,32,43440,210
47,36,43680,240
56,36,43680,240
48,34,43920,210
55,34,43920,210
45,38,44160,240
53,33,44400,1200
46,33,44400,240
43,41,44640,240
45,37,44880,240
46,46,45120,240
43,35,45360,240
48,41,45600,480
36,33,45840,240
45,37,46080,960
36,31,46320,240
29,26,46560,480
