note,velocity,position,duration
62,27,1080,120
60,40,1200,120
66,40,1200,120
58,45,1440,120
67,45,1440,120
66,27,1800,120
62,42,1920,120
69,42,1920,120
67,45,2160,120
70,45,2160,120
69,26,2520,120
67,45,2640,120
72,45,2640,120
70,45,2880,120
74,45,2880,120
75,26,3240,120
72,35,3360,240
79,42,3360,240
70,35,3600,240
74,42,3600,240
67,28,3960,120
62,45,4080,120
70,45,4080,120
69,47,4320,120
69,36,4680,120
63,45,4800,120
72,45,4800,120
70,46,5040,120
66,29,5400,120
60,36,5520,120
69,36,5520,120
58,42,5760,120
67,42,5760,120
60,22,6120,120
57,36,6240,120
63,36,6240,120
58,36,6480,120
62,36,6480,120
62,27,6840,120
60,40,6960,120
66,40,6960,120
58,45,7200,120
67,45,7200,120
66,27,7560,120
62,42,7680,120
69,42,7680,120
67,45,7920,120
70,45,7920,120
69,26,8280,120
67,45,8400,120
72,45,8400,120
70,45,8640,120
74,45,8640,120
75,26,9000,120
72,35,9120,240
79,42,9120,240
70,35,9360,240
74,42,9360,240
67,28,9720,120
62,45,9840,120
70,45,9840,120
69,47,10080,120
69,36,10440,120
63,45,10560,120
72,45,10560,120
70,46,10800,120
66,29,11160,120
60,36,11280,120
69,36,11280,120
58,42,11520,120
67,42,11520,120
58,35,11880,120
62,41,12000,240
55,39,12240,120
58,27,12600,120
55,40,12720,120
62,40,12720,120
54,45,12960,120
62,45,12960,120
58,27,13320,120
55,42,13440,120
64,42,13440,120
57,45,13680,120
66,45,13680,120
62,26,14040,120
58,45,14160,120
67,45,14160,120
60,45,14400,120
69,45,14400,120
65,26,14760,120
62,46,14880,120
71,46,14880,120
63,50,15120,120
72,50,15120,120
68,28,15480,120
65,45,15600,120
74,45,15600,120
63,45,15840,120
72,47,15840,120
67,36,16200,120
62,45,16320,120
71,45,16320,120
63,45,16560,120
72,46,16560,120
68,29,16920,120
65,36,17040,120
74,36,17040,120
63,42,17280,120
72,42,17280,120
67,22,17640,120
62,36,17760,120
71,36,17760,120
63,36,18000,120
72,36,18000,120
62,27,18360,120
58,40,18480,120
65,40,18480,120
57,45,18720,120
65,45,18720,120
63,27,19080,120
58,42,19200,120
67,42,19200,120
60,45,19440,120
69,45,19440,120
65,26,19800,120
62,45,19920,120
70,45,19920,120
63,45,20160,120
72,45,20160,120
68,26,20520,120
65,50,20640,120
74,50,20640,120
67,50,20880,120
75,50,20880,120
71,28,21240,120
68,50,21360,120
77,50,21360,120
72,54,21600,120
67,54,21600,120
75,54,21600,120
68,42,21960,120
65,51,22080,120
74,51,22080,120
69,45,22320,120
63,45,22320,120
72,46,22320,120
67,29,22680,120
64,36,22800,120
70,36,22800,120
66,42,23040,120
69,42,23040,120
64,22,23400,120
61,36,23520,120
67,36,23520,120
62,36,23760,120
66,36,23760,120
62,27,24120,120
60,40,24240,120
66,40,24240,120
58,45,24480,120
67,45,24480,120
66,27,24840,120
62,42,24960,120
69,42,24960,120
67,45,25200,120
70,45,25200,120
69,26,25560,120
67,45,25680,120
72,45,25680,120
70,45,25920,120
74,45,25920,120
75,26,26280,120
72,35,26400,240
79,42,26400,240
70,35,26640,240
74,42,26640,240
67,28,27000,120
62,45,27120,120
70,45,27120,120
69,47,27360,120
69,36,27720,120
63,45,27840,120
72,45,27840,120
70,46,28080,120
66,29,28440,120
60,36,28560,120
69,36,28560,120
58,42,28800,120
67,42,28800,120
60,22,29160,120
57,36,29280,120
63,36,29280,120
58,36,29520,120
62,36,29520,120
62,27,29880,120
60,40,30000,120
66,40,30000,120
58,45,30240,120
67,45,30240,120
66,27,30600,120
62,42,30720,120
69,42,30720,120
67,45,30960,120
70,45,30960,120
69,26,31320,120
67,45,31440,120
72,45,31440,120
70,45,31680,120
74,45,31680,120
75,26,32040,120
72,50,32160,240
79,50,32160,240
70,50,32400,240
74,50,32400,240
67,28,32760,120
62,45,32880,120
70,45,32880,120
69,47,33120,120
69,36,33480,120
63,45,33600,120
72,45,33600,120
70,46,33840,120
66,29,34200,120
60,36,34320,120
69,36,34320,120
58,42,34560,120
67,42,34560,120
58,35,34920,120
62,41,35040,240
55,39,35280,120
58,27,35640,120
55,40,35760,120
62,40,35760,120
54,45,36000,120
62,45,36000,120
58,27,36360,120
55,42,36480,120
64,42,36480,120
57,45,36720,120
66,45,36720,120
62,26,37080,120
58,45,37200,120
67,45,37200,120
60,45,37440,120
69,45,37440,120
65,26,37800,120
62,46,37920,120
71,46,37920,120
63,50,38160,120
72,50,38160,120
68,28,38520,120
65,45,38640,120
74,45,38640,120
63,45,38880,120
72,47,38880,120
67,36,39240,120
62,45,39360,120
71,45,39360,120
63,45,39600,120
72,46,39600,120
68,29,39960,120
65,36,40080,120
74,36,40080,120
63,42,40320,120
72,42,40320,120
67,22,40680,120
62,36,40800,120
71,36,40800,120
63,36,41040,120
72,36,41040,120
62,27,41400,120
58,40,41520,120
65,40,41520,120
57,45,41760,120
65,45,41760,120
63,27,42120,120
58,42,42240,120
67,42,42240,120
60,45,42480,120
69,45,42480,120
65,26,42840,120
62,45,42960,120
70,45,42960,120
63,45,43200,120
72,45,43200,120
68,26,43560,120
65,50,43680,120
74,50,43680,120
67,50,43920,120
75,50,43920,120
71,28,44280,120
68,50,44400,120
77,50,44400,120
72,54,44640,120
67,54,44640,120
75,54,44640,120
68,42,45000,120
65,51,45120,120
74,51,45120,120
69,45,45360,120
63,45,45360,120
72,46,45360,120
67,29,45720,120
64,36,45840,120
70,36,45840,120
66,42,46080,120
69,42,46080,120
64,22,46440,120
61,36,46560,120
67,36,46560,120
62,36,46800,120
66,36,46800,120
62,27,47160,120
60,40,47280,120
66,40,47280,120
58,45,47520,120
67,45,47520,120
66,27,47880,90
62,42,48000,90
69,42,48000,90
67,45,48240,90
70,45,48240,90
69,26,48600,120
67,45,48720,120
72,45,48720,120
70,45,48960,120
74,45,48960,120
75,26,49320,120
72,35,49440,240
79,42,49440,240
70,35,49680,240
74,42,49680,240
67,28,50040,120
62,45,50160,120
70,45,50160,120
69,47,50400,120
69,36,50760,120
63,45,50880,120
72,45,50880,120
70,46,51120,120
66,29,51480,120
60,36,51600,120
69,36,51600,120
58,42,51840,120
67,42,51840,120
60,22,52200,120
57,36,52320,120
63,36,52320,120
58,36,52560,120
62,36,52560,120
62,27,52920,120
60,40,53040,120
66,40,53040,120
58,45,53280,120
67,45,53280,120
66,27,53640,120
62,42,53760,120
69,42,53760,120
67,45,54000,120
70,45,54000,120
69,26,54360,120
67,45,54480,120
72,45,54480,120
70,45,54720,120
74,45,54720,120
75,26,55080,120
72,35,55200,240
79,42,55200,240
70,35,55440,240
74,42,55440,240
67,28,55800,120
62,45,55920,120
70,45,55920,120
69,47,56160,120
69,36,56520,120
63,45,56640,120
72,45,56640,120
70,46,56880,120
66,29,57240,120
60,36,57360,120
69,36,57360,120
58,42,57600,120
67,42,57600,120
58,35,57960,120
62,41,58080,240
55,39,58320,120
53,31,58680,120
58,46,58800,240
50,51,59040,240
65,33,59400,120
70,46,59490,270
62,43,59760,240
55,29,60120,120
58,42,60210,270
48,51,60480,240
67,31,60840,120
70,58,60930,270
60,54,61200,240
55,29,61560,120
58,55,61650,270
48,51,61920,240
67,31,62280,120
70,52,62370,270
60,51,62640,240
53,36,63000,120
57,49,63090,270
48,51,63360,240
65,31,63720,120
69,48,63810,270
60,41,64080,240
53,29,64440,120
58,42,64530,270
50,51,64800,240
65,33,65160,120
70,57,65250,270
62,43,65520,240
55,29,65880,120
58,50,65970,270
48,51,66240,240
67,31,66600,120
70,58,66690,270
60,54,66960,240
55,29,67320,120
58,55,67410,270
48,51,67680,240
67,31,68040,120
70,57,68130,270
60,51,68400,240
53,36,68760,120
57,49,68850,270
48,51,69120,240
65,31,69480,120
69,48,69570,270
60,41,69840,240
58,29,70200,120
62,42,70290,270
53,51,70560,240
70,33,70920,120
74,57,71010,270
65,43,71280,240
59,29,71640,120
62,50,71730,270
53,51,72000,240
71,31,72360,120
74,58,72450,270
65,54,72720,240
59,29,73080,120
62,55,73170,270
55,51,73440,240
71,31,73800,120
74,57,73890,270
67,51,74160,240
60,36,74520,120
63,49,74610,270
55,51,74880,240
72,31,75240,120
75,48,75330,270
67,41,75600,240
60,29,75960,120
63,42,76050,270
55,51,76320,240
72,33,76680,120
75,57,76770,270
67,43,77040,240
61,29,77400,120
64,50,77490,270
55,51,77760,240
73,31,78120,120
76,58,78210,270
67,54,78480,240
61,29,78840,120
64,55,78930,270
57,51,79200,240
73,31,79560,120
76,57,79650,270
69,51,79920,240
57,36,80280,120
62,49,80370,270
50,51,80640,240
69,31,81000,120
74,48,81090,270
62,41,81360,240
53,29,81720,120
58,42,81810,270
50,51,82080,240
65,33,82440,120
70,57,82530,270
62,43,82800,240
54,29,83160,120
58,50,83250,270
48,51,83520,240
66,31,83880,120
70,58,83970,270
60,54,84240,240
54,29,84600,120
58,55,84690,270
48,62,84960,240
66,33,85320,120
70,57,85410,270
53,29,86040,120
58,57,86130,270
46,62,86400,240
65,31,86760,120
70,62,86850,270
58,56,87120,240
58,39,87480,120
62,55,87570,270
53,51,87840,240
70,33,88200,120
74,57,88290,270
65,43,88560,240
58,29,88920,120
62,50,89010,270
52,51,89280,240
70,31,89640,120
74,58,89730,270
64,54,90000,240
58,29,90360,120
62,55,90450,270
52,62,90720,240
70,33,91080,120
74,57,91170,270
57,29,91800,120
62,57,91890,270
50,62,92160,240
69,31,92520,120
74,62,92610,270
62,56,92880,240
67,39,93240,120
65,46,93360,120
71,46,93360,120
63,51,93600,120
72,51,93600,120
71,31,93960,120
67,48,94080,120
74,48,94080,120
72,51,94320,120
75,51,94320,120
74,29,94680,120
72,51,94800,120
77,51,94800,120
75,51,95040,120
79,51,95040,120
80,29,95400,120
77,40,95520,240
84,48,95520,240
75,40,95760,240
79,48,95760,240
72,32,96120,120
67,51,96240,120
75,51,96240,120
74,54,96480,120
74,41,96840,120
68,51,96960,120
77,51,96960,120
75,52,97200,120
71,33,97560,120
65,41,97680,120
74,41,97680,120
63,48,97920,120
72,48,97920,120
65,25,98280,120
62,41,98400,120
68,41,98400,120
63,41,98640,120
67,41,98640,120
67,31,99000,120
60,46,99120,120
66,46,99120,120
58,51,99360,120
67,51,99360,120
66,31,99720,120
62,48,99840,120
69,48,99840,120
67,51,100080,120
70,51,100080,120
69,29,100440,120
67,51,100560,120
72,51,100560,120
70,51,100800,120
74,51,100800,120
75,29,101160,120
72,48,101280,240
79,57,101280,240
70,48,101520,240
74,57,101520,240
67,32,101880,120
62,51,102000,120
70,51,102000,120
69,54,102240,120
69,41,102600,120
63,51,102720,120
72,51,102720,120
70,52,102960,120
66,33,103320,120
60,41,103440,120
69,41,103440,120
58,48,103680,120
67,48,103680,120
58,40,104040,120
62,47,104160,240
55,44,104400,120
58,31,104760,120
55,46,104880,120
62,46,104880,120
54,51,105120,120
62,51,105120,120
58,31,105480,120
55,48,105600,120
64,48,105600,120
57,51,105840,120
66,51,105840,120
62,29,106200,120
58,51,106320,120
67,51,106320,120
60,51,106560,120
69,51,106560,120
65,29,106920,120
62,52,107040,120
71,52,107040,120
63,57,107280,120
72,57,107280,120
68,32,107640,120
65,51,107760,120
74,51,107760,120
63,51,108000,120
72,54,108000,120
67,41,108360,120
62,51,108480,120
71,51,108480,120
63,51,108720,120
72,52,108720,120
68,33,109080,120
65,41,109200,120
74,41,109200,120
63,48,109440,120
72,48,109440,120
67,25,109800,120
62,41,109920,120
71,41,109920,120
63,41,110160,120
72,41,110160,120
62,31,110520,120
58,46,110640,120
65,46,110640,120
57,51,110880,120
65,51,110880,120
63,31,111240,120
58,48,111360,120
67,48,111360,120
60,51,111600,120
69,51,111600,120
65,29,111960,120
62,51,112080,120
70,51,112080,120
63,51,112320,120
72,51,112320,120
68,29,112680,120
65,57,112800,120
74,57,112800,120
67,57,113040,120
75,57,113040,120
71,32,113400,120
68,57,113520,120
77,57,113520,120
72,62,113760,120
67,62,113760,120
75,62,113760,120
68,47,114120,120
65,57,114240,120
74,57,114240,120
69,49,114480,120
63,49,114480,120
72,51,114480,120
67,31,114840,120
64,38,114960,120
70,38,114960,120
66,44,115200,120
69,44,115200,120
64,22,115560,120
61,37,115680,120
67,37,115680,120
62,36,115920,120
66,36,115920,120
62,27,116280,120
60,40,116400,120
66,40,116400,120
58,45,116640,120
67,45,116640,120
66,27,117000,120
62,42,117120,120
69,42,117120,120
67,45,117360,120
70,45,117360,120
69,26,117720,120
67,45,117840,120
72,45,117840,120
70,45,118080,120
74,45,118080,120
75,26,118440,120
72,35,118560,240
79,42,118560,240
70,35,118800,240
74,42,118800,240
67,28,119160,120
62,45,119280,120
70,45,119280,120
69,47,119520,120
69,36,119880,120
63,45,120000,120
72,45,120000,120
70,46,120240,120
66,29,120600,120
60,36,120720,120
69,36,120720,120
58,42,120960,120
67,42,120960,120
60,22,121320,120
57,36,121440,120
63,36,121440,120
58,36,121680,120
62,36,121680,120
62,27,122040,120
60,40,122160,120
66,40,122160,120
58,45,122400,120
67,45,122400,120
66,27,122760,120
62,42,122880,120
69,42,122880,120
67,45,123120,120
70,45,123120,120
69,26,123480,120
67,45,123600,120
72,45,123600,120
70,45,123840,120
74,45,123840,120
75,26,124200,120
72,35,124320,240
79,42,124320,240
70,35,124560,240
74,42,124560,240
67,28,124920,120
62,45,125040,120
70,45,125040,120
69,47,125280,120
69,36,125640,120
63,45,125760,120
72,45,125760,120
70,46,126000,120
66,29,126360,120
60,36,126480,120
69,36,126480,120
58,42,126720,120
67,42,126720,120
58,35,127080,120
62,41,127200,240
55,39,127440,120
45,81,127800,120
45,76,127920,240
45,78,128160,1080
53,70,128520,120
50,59,128520,120
50,61,128640,240
53,72,128640,240
50,65,128880,360
53,77,128880,360
57,74,129240,120
57,71,129360,240
57,76,129600,960
69,64,129960,120
65,54,129960,120
65,54,130080,240
69,64,130080,240
65,59,130320,240
69,70,130320,240
45,76,130680,120
45,76,130800,240
45,78,131040,1080
55,70,131400,120
52,59,131400,120
52,61,131520,240
55,72,131520,240
52,65,131760,360
55,77,131760,360
57,76,132120,120
57,76,132240,240
57,79,132480,960
69,64,132840,120
67,54,132840,120
67,54,132960,240
69,64,132960,240
67,59,133200,240
69,70,133200,240
45,75,133560,120
45,76,133680,240
45,78,133920,960
53,70,134280,120
50,59,134280,120
50,61,134400,240
53,72,134400,240
50,65,134640,240
53,77,134640,240
57,74,135000,120
57,75,135120,240
57,79,135360,960
69,64,135720,120
65,54,135720,120
65,54,135840,240
69,64,135840,240
65,59,136080,240
69,70,136080,240
53,72,136440,120
53,72,136560,240
53,78,136800,960
62,70,137160,120
59,59,137160,120
59,61,137280,240
62,72,137280,240
59,65,137520,240
62,77,137520,240
60,65,137880,60
67,77,137880,60
60,66,138000,120
67,78,138000,120
67,77,138240,240
60,65,138240,240
72,77,138600,120
60,64,138600,120
60,64,138720,240
72,77,138720,240
60,70,138960,240
72,84,138960,240
48,73,139320,120
48,68,139440,240
48,82,139680,720
57,70,140040,360
53,59,140040,360
50,82,140400,720
57,70,140760,360
53,59,140760,360
48,78,141120,720
60,70,141480,360
57,59,141480,360
60,77,142200,120
72,71,142320,240
48,82,142560,720
55,70,142920,360
52,59,142920,360
50,82,143280,720
55,70,143640,360
52,59,143640,360
48,78,144000,720
60,70,144360,360
55,59,144360,360
60,77,145080,120
72,71,145200,240
48,82,145440,720
57,70,145800,360
53,59,145800,360
50,82,146160,720
53,59,146520,360
57,70,146520,360
51,78,146880,720
60,70,147240,360
54,59,147240,360
60,77,147960,120
72,71,148080,240
53,78,148320,720
62,70,148680,120
59,59,148680,120
65,77,149400,120
79,69,149520,240
74,61,149520,240
52,78,149760,720
60,70,150120,120
55,59,150120,120
72,83,150480,240
48,73,150840,120
48,68,150960,240
48,82,151200,720
57,70,151560,360
53,59,151560,360
50,82,151920,720
57,70,152280,360
53,59,152280,360
48,78,152640,720
60,70,153000,360
57,59,153000,360
60,77,153720,120
72,71,153840,240
48,82,154080,720
55,70,154440,360
52,59,154440,360
50,82,154800,720
55,70,155160,360
52,59,155160,360
48,78,155520,720
60,70,155880,360
55,59,155880,360
60,77,156600,120
72,71,156720,240
48,82,156960,720
57,70,157320,360
53,59,157320,360
50,82,157680,720
53,59,158040,360
57,70,158040,360
51,78,158400,720
60,70,158760,360
54,59,158760,360
60,77,159480,120
72,71,159600,240
53,78,159846,720
62,70,160200,120
59,59,160200,120
65,77,160920,120
79,69,161040,240
74,61,161040,240
52,78,161280,720
60,70,161640,120
55,59,161640,120
72,83,162000,240
48,81,162360,120
48,76,162480,240
48,78,162720,1080
57,70,163080,120
54,59,163080,120
54,61,163200,240
57,72,163200,240
54,65,163440,360
57,77,163440,360
60,74,163800,120
60,71,163920,240
60,76,164160,960
69,64,164520,120
66,54,164520,120
66,54,164640,240
69,64,164640,240
66,59,164880,240
69,70,164880,240
50,76,165240,120
50,76,165360,240
50,78,165600,1080
58,70,165960,120
55,59,165960,120
55,61,166080,240
58,72,166080,240
55,65,166320,360
58,77,166320,360
62,76,166680,120
62,76,166800,240
62,79,167040,960
70,64,167400,120
67,54,167400,120
67,54,167520,240
70,64,167520,240
67,59,167760,240
70,70,167760,240
52,75,168120,120
52,76,168240,240
52,78,168480,960
62,70,168840,120
59,59,168840,120
59,61,168960,240
62,72,168960,240
59,65,169200,240
62,77,169200,240
62,74,169560,120
62,75,169680,240
62,79,169920,960
71,64,170280,120
68,54,170280,120
68,54,170400,240
71,64,170400,240
68,59,170640,240
71,70,170640,240
52,72,171000,120
52,72,171120,240
52,78,171360,960
60,70,171720,120
57,59,171720,120
57,61,171840,240
60,72,171840,240
57,65,172080,240
60,77,172080,240
60,77,172440,120
60,78,172560,240
60,77,172800,960
72,69,173160,120
69,57,173160,120
69,57,173280,240
72,69,173280,240
69,63,173520,240
72,75,173520,240
57,63,173880,120
57,64,174000,240
57,66,174240,720
65,54,174600,60
62,45,174600,60
62,45,174720,120
65,54,174720,120
62,52,174960,120
65,62,174960,120
57,55,175320,60
57,55,175440,120
57,63,175680,720
65,54,176040,60
62,38,176040,60
62,38,176160,120
65,54,176160,120
62,42,176400,120
65,59,176400,120
65,63,176760,60
65,64,176880,120
65,66,177120,720
74,54,177480,60
71,45,177480,60
71,45,177600,120
74,54,177600,120
71,52,177840,120
74,62,177840,120
65,55,178200,60
65,55,178320,120
65,63,178560,720
74,54,178920,60
71,38,178920,60
71,38,179040,120
74,54,179040,120
71,42,179280,120
74,59,179280,120
56,63,179640,60
56,64,179760,120
56,66,180000,720
64,54,180360,60
62,45,180360,60
62,45,180480,120
64,54,180480,120
62,52,180720,120
64,62,180720,120
56,55,181080,60
56,55,181200,120
56,63,181440,720
64,54,181800,60
62,38,181800,60
62,38,181920,120
64,54,181920,120
62,42,182160,120
64,59,182160,120
62,63,182520,60
62,64,182640,120
62,66,182880,720
71,54,183240,60
68,45,183240,60
68,45,183360,120
71,54,183360,120
68,52,183600,120
71,62,183600,120
62,52,183960,60
62,51,184080,120
62,55,184320,720
71,43,184680,60
68,30,184680,60
68,29,184800,120
71,42,184800,120
68,30,185040,120
71,43,185040,120
52,64,185400,120
52,60,185520,240
52,62,185760,1080
60,56,186120,120
57,47,186120,120
57,48,186240,240
60,57,186240,240
57,52,186480,360
60,61,186480,360
60,49,186840,120
60,48,186960,240
60,51,187200,960
72,51,187560,120
69,43,187560,120
69,43,187680,240
72,51,187680,240
69,47,187920,240
72,56,187920,240
52,72,188280,120
52,72,188400,240
52,74,188640,1080
62,66,189000,120
59,56,189000,120
59,57,189120,240
62,68,189120,240
59,61,189360,360
62,73,189360,360
62,60,189720,120
62,60,189840,240
62,63,190080,960
74,60,190440,120
71,51,190440,120
71,51,190560,240
74,60,190560,240
71,56,190800,240
74,66,190800,240
52,75,191160,120
52,76,191280,240
52,78,191520,960
60,70,191880,120
57,59,191880,120
57,61,192000,240
60,72,192000,240
57,65,192240,240
60,77,192240,240
64,74,192600,120
64,75,192720,240
64,79,192960,960
76,64,193320,120
72,54,193320,120
72,54,193440,240
76,64,193440,240
72,59,193680,240
76,70,193680,240
60,72,194040,120
60,72,194160,240
60,78,194400,960
69,70,194760,120
66,59,194760,120
66,61,194880,240
69,72,194880,240
66,65,195120,240
69,77,195120,240
67,65,195480,60
74,77,195480,60
67,66,195600,120
74,78,195600,120
74,77,195840,240
67,65,195840,240
79,77,196200,120
67,64,196200,120
67,64,196320,240
79,77,196320,240
67,70,196560,120
79,84,196560,120
67,45,196920,120
65,45,197040,120
71,45,197040,120
63,50,197280,120
72,50,197280,120
71,31,197640,120
67,47,197760,120
74,47,197760,120
72,50,198000,120
75,50,198000,120
74,29,198360,120
72,50,198480,120
77,50,198480,120
75,50,198720,120
79,50,198720,120
80,29,199080,120
77,39,199200,240
84,47,199200,240
75,39,199440,240
79,47,199440,240
72,32,199800,120
67,50,199920,120
75,50,199920,120
74,53,200160,120
74,40,200520,120
68,50,200640,120
77,50,200640,120
75,52,200880,120
71,33,201240,120
65,41,201360,120
74,41,201360,120
63,47,201600,120
72,47,201600,120
65,25,201960,120
62,41,202080,120
68,41,202080,120
63,40,202320,120
67,40,202320,120
62,30,202680,120
60,45,202800,120
66,45,202800,120
58,50,203040,120
67,50,203040,120
66,31,203400,120
62,47,203520,120
69,47,203520,120
67,50,203760,120
70,50,203760,120
69,29,204120,120
67,50,204240,120
72,50,204240,120
70,50,204480,120
74,50,204480,120
75,29,204840,120
72,39,204960,240
79,47,204960,240
70,39,205200,240
74,47,205200,240
67,32,205560,120
62,50,205680,120
70,50,205680,120
69,53,205920,120
69,40,206280,120
63,50,206400,120
72,50,206400,120
70,52,206640,120
66,33,207000,120
60,41,207120,120
69,41,207120,120
58,47,207360,120
67,47,207360,120
60,25,207720,120
57,41,207840,120
63,41,207840,120
58,40,208080,120
62,40,208080,120
62,30,208440,120
60,45,208560,120
66,45,208560,120
58,50,208800,120
67,50,208800,120
66,31,209160,120
62,47,209280,120
69,47,209280,120
67,50,209520,120
70,50,209520,120
69,29,209880,120
67,50,210000,120
72,50,210000,120
70,50,210240,120
74,50,210240,120
75,29,210600,120
72,47,210720,240
79,56,210720,240
70,47,210960,240
74,56,210960,240
67,32,211320,120
62,50,211440,120
70,50,211440,120
69,53,211680,120
69,40,212040,120
63,50,212160,120
72,50,212160,120
70,52,212400,120
66,33,212760,120
60,41,212880,120
69,41,212880,120
58,47,213120,120
67,47,213120,120
58,39,213480,120
62,46,213600,240
55,44,213840,120
58,30,214200,120
55,45,214320,120
62,45,214320,120
54,50,214560,120
62,50,214560,120
58,31,214920,120
55,47,215040,120
64,47,215040,120
57,50,215280,120
66,50,215280,120
62,29,215640,120
58,50,215760,120
67,50,215760,120
60,50,216000,120
69,50,216000,120
65,29,216360,120
62,52,216480,120
71,52,216480,120
63,56,216720,120
72,56,216720,120
68,32,217080,120
65,50,217200,120
74,50,217200,120
63,50,217440,120
72,53,217440,120
67,40,217800,120
62,50,217920,120
71,50,217920,120
63,50,218160,120
72,52,218160,120
68,33,218520,120
65,41,218640,120
74,41,218640,120
63,47,218880,120
72,47,218880,120
67,25,219240,120
62,41,219360,120
71,41,219360,120
63,40,219600,120
72,40,219600,120
62,30,219960,120
58,45,220080,120
65,45,220080,120
57,50,220320,120
65,50,220320,120
63,31,220680,120
58,47,220800,120
67,47,220800,120
60,50,221040,120
69,50,221040,120
65,29,221400,120
62,50,221520,120
70,50,221520,120
63,50,221760,120
72,50,221760,120
68,29,222120,120
65,56,222240,120
74,56,222240,120
67,56,222480,120
75,56,222480,120
71,32,222840,120
68,56,222960,120
77,56,222960,120
72,61,223200,120
67,61,223200,120
75,61,223200,120
68,47,223560,120
65,57,223680,120
74,57,223680,120
69,50,223920,120
63,50,223920,120
72,52,223920,120
67,33,224280,120
64,41,224400,120
70,41,224400,120
66,46,224640,120
69,46,224640,120
64,24,225000,120
61,39,225120,120
67,39,225120,120
62,37,225360,120
66,37,225360,120
62,27,225720,120
60,40,225840,120
66,40,225840,120
58,45,226080,120
67,45,226080,120
66,27,226440,120
62,42,226560,120
69,42,226560,120
67,45,226800,120
70,45,226800,120
69,26,227160,120
67,45,227280,120
72,45,227280,120
70,45,227520,120
74,45,227520,120
75,26,227880,120
72,33,228000,240
79,40,228000,240
70,33,228240,240
74,40,228240,240
67,28,228600,120
62,45,228720,120
70,45,228720,120
69,47,228960,120
69,36,229320,120
63,45,229440,120
72,45,229440,120
70,46,229680,120
66,29,230040,120
60,36,230160,120
69,36,230160,120
58,42,230400,120
67,42,230400,120
60,22,230760,120
57,36,230880,120
63,36,230880,120
58,36,231120,120
62,36,231120,120
62,27,231480,120
60,40,231600,120
66,40,231600,120
58,45,231840,120
67,45,231840,120
66,27,232200,120
62,42,232320,120
69,42,232320,120
67,45,232560,120
70,45,232560,120
69,26,232920,120
67,45,233040,120
72,45,233040,120
70,45,233280,120
74,45,233280,120
75,25,233640,120
72,31,233760,240
79,39,233760,240
70,30,234000,240
74,38,234000,240
67,27,234360,120
62,43,234480,120
70,43,234480,120
69,45,234720,120
69,33,235080,120
63,42,235200,120
72,42,235200,120
62,40,235440,120
70,43,235440,120
66,27,235800,120
60,33,235920,120
69,33,235920,120
58,34,236160,120
67,40,236160,120
60,27,236520,120
57,33,236640,120
63,39,236640,120
58,32,236880,120
62,38,236880,120
57,27,237240,120
54,27,237360,120
60,33,237360,120
31,41,1440,2640
43,41,1440,3600
31,33,4080,240
36,42,4320,480
33,36,4800,240
38,43,5040,5040
26,35,5520,240
31,43,5760,2640
31,33,8400,1440
31,33,9840,240
36,42,10080,480
33,36,10560,240
38,43,10800,1680
26,35,11280,240
31,43,11520,960
38,41,12960,2640
50,41,12960,2640
31,33,15600,3600
43,33,15600,3600
38,41,19200,1440
50,47,19200,1440
34,33,20640,1680
46,38,20640,1680
36,27,22320,480
48,27,22320,480
37,25,22800,240
49,25,22800,240
38,27,23040,1200
50,33,23040,1200
38,27,24240,120
50,27,24240,120
31,32,24480,120
43,41,24480,120
31,27,24960,120
43,35,24960,120
31,32,25200,120
43,41,25200,120
31,32,25680,1440
43,41,25680,2400
31,33,27120,240
36,42,27360,480
33,36,27840,240
38,43,28080,5040
26,35,28560,240
31,43,28800,1920
31,33,30720,720
31,33,31440,1440
31,33,32880,240
36,42,33120,480
33,36,33600,240
38,43,33840,1680
26,35,34320,240
31,43,34560,960
38,41,36000,2640
50,41,36000,2640
31,33,38640,3600
43,33,38640,3600
38,41,42240,1440
50,49,42240,1440
34,33,43680,1680
46,42,43680,1680
36,27,45360,480
48,27,45360,480
37,25,45840,240
49,25,45840,240
38,27,46080,1200
50,33,46080,1200
38,27,47280,120
50,27,47280,120
31,32,47520,120
43,41,47520,120
31,27,48000,90
43,35,48000,90
31,32,48240,90
43,41,48240,90
31,32,48720,1440
43,41,48720,2400
31,33,50160,240
36,42,50400,480
33,36,50880,240
38,43,51120,5040
26,35,51600,240
31,43,51840,1920
31,42,53760,720
31,42,54480,1440
31,33,55920,240
36,42,56160,480
33,36,56640,240
38,43,56880,1680
26,35,57360,240
31,43,57600,960
34,43,58980,720
46,51,59040,660
36,49,59700,360
48,58,59760,300
38,51,60060,360
50,62,60120,300
39,54,60420,720
51,64,60480,660
46,48,61140,1080
58,57,61200,720
43,49,62220,360
55,58,62280,300
39,51,62580,360
51,62,62640,300
36,47,62940,360
48,56,63000,300
41,42,63300,720
53,51,63360,660
29,33,64020,720
41,52,64080,660
34,43,64740,720
46,51,64800,660
36,49,65460,360
48,58,65520,300
38,51,65820,360
50,62,65880,300
39,54,66180,720
51,64,66240,660
46,48,66900,1080
58,57,66960,720
43,49,67980,360
55,58,68040,300
39,51,68340,360
51,62,68400,300
36,47,68700,360
48,56,68760,300
41,42,69060,720
53,51,69120,660
29,33,69780,720
41,52,69840,660
38,43,70500,720
50,51,70560,660
39,49,71220,360
51,58,71280,300
41,51,71580,360
53,62,71640,300
43,54,71940,720
55,64,72000,660
50,48,72660,1080
62,57,72720,720
47,49,73740,360
59,58,73800,300
43,51,74100,360
55,62,74160,300
41,47,74460,360
53,56,74520,300
39,42,74820,720
51,51,74880,660
36,33,75540,720
48,52,75600,660
39,43,76260,720
51,51,76320,660
41,49,76980,360
53,58,77040,300
43,51,77340,360
55,62,77400,300
45,54,77700,720
57,64,77760,660
52,48,78420,1080
64,57,78480,720
49,49,79500,360
61,58,79560,300
45,51,79860,360
57,62,79920,300
43,47,80220,360
55,56,80280,300
42,42,80580,720
54,51,80640,660
38,33,81300,720
50,52,81360,660
34,43,82020,720
46,51,82080,660
36,49,82740,360
48,58,82800,300
38,51,83100,360
50,62,83160,300
39,54,83460,720
51,64,83520,660
46,48,84180,1080
58,62,84240,720
48,49,85620,360
60,63,85680,300
50,54,86400,1380
62,64,86400,1380
38,43,87780,720
50,51,87840,660
39,49,88500,360
51,58,88560,300
41,51,88860,360
53,62,88920,300
43,54,89220,720
55,64,89280,660
50,48,89940,1440
62,62,90000,720
52,49,91380,780
64,63,91440,729
54,54,92160,1080
66,64,92160,1080
55,54,93240,1800
48,47,93600,2640
60,47,93600,3600
48,37,96240,240
53,48,96480,480
50,41,96960,240
55,49,97200,2160
43,40,97680,4320
48,49,97920,1200
50,50,99120,3120
55,49,99360,3600
43,37,102000,240
48,48,102240,480
45,41,102720,240
50,49,102960,3360
38,40,103440,2880
31,37,106320,4320
43,37,106320,4320
41,47,110640,1440
53,54,110640,1440
34,37,112080,2400
46,50,112080,2400
36,29,114480,480
48,29,114480,480
37,27,114960,240
49,27,114960,240
38,28,115200,2640
50,34,115200,2640
31,32,117840,1440
43,41,117840,2400
31,33,119280,240
36,42,119520,480
33,36,120000,240
38,43,120240,5040
26,35,120720,2400
31,48,123120,1920
31,33,125040,240
36,42,125280,480
33,36,125760,240
38,43,126000,1680
26,35,126480,240
31,43,126720,960
26,70,128160,480
58,55,128520,120
58,61,128640,240
58,66,128880,360
45,51,129960,120
50,61,129960,120
45,49,130080,240
50,58,130080,240
45,53,130320,240
50,63,130320,240
37,70,131040,480
25,70,131040,480
58,55,131400,120
58,61,131520,240
58,66,131760,360
45,51,132840,120
52,61,132840,120
45,49,132960,240
52,58,132960,240
45,53,133200,240
52,63,133200,240
38,70,133920,480
26,70,133920,480
64,55,134280,120
64,61,134400,240
64,66,134640,240
62,61,135000,120
62,58,135120,240
62,62,135360,960
50,51,135720,120
53,61,135720,120
50,49,135840,240
53,58,135840,240
50,53,136080,240
53,63,136080,240
43,70,136800,480
31,70,136800,480
67,55,137160,120
67,61,137280,240
67,66,137520,240
48,56,137880,60
52,67,137880,60
48,53,138000,120
52,63,138000,120
48,57,138240,240
52,68,138240,240
36,61,138600,120
48,73,138600,120
36,58,138720,240
48,69,138720,240
36,63,138960,240
48,75,138960,240
29,62,139680,480
41,73,139680,480
60,83,140160,720
62,82,140880,240
30,62,141120,1440
42,73,141120,1440
51,77,141600,240
63,79,141840,720
31,62,142560,480
43,73,142567,480
60,83,143040,720
62,82,143760,240
34,62,144000,1440
46,73,144000,1440
52,77,144480,240
64,79,144720,720
45,73,145440,480
33,62,145440,480
60,83,145920,720
62,82,146640,240
32,62,146880,1440
44,73,146880,1440
51,77,147360,240
63,79,147600,720
31,62,148320,1440
43,73,148320,1440
55,77,148800,240
67,79,149040,720
36,62,149760,480
48,73,149760,480
64,77,150240,240
29,62,151200,480
41,73,151200,480
60,83,151680,720
62,82,152400,240
30,62,152640,1440
42,73,152640,1440
51,77,153120,240
63,79,153360,720
31,62,154080,480
43,73,154087,480
60,83,154560,720
62,82,155280,240
34,62,155520,1440
46,73,155520,1440
52,77,156000,240
64,79,156240,720
45,73,156960,480
33,62,156960,480
60,83,157440,720
62,82,158160,240
32,62,158400,1440
44,73,158400,1440
51,77,158880,240
63,79,159120,720
31,62,159840,1440
43,73,159840,1440
55,77,160320,240
67,79,160560,720
36,62,161280,480
48,73,161280,480
64,77,161760,240
36,70,162720,240
24,63,162720,240
63,55,163080,120
63,61,163200,240
63,66,163440,360
62,59,163800,120
62,56,163920,240
62,67,164160,960
50,51,164520,120
54,61,164520,120
50,49,164640,240
54,58,164640,240
50,53,164880,240
54,63,164880,240
43,70,165600,240
31,70,165600,240
63,55,165960,120
63,61,166080,240
63,66,166320,360
50,51,167400,120
55,61,167400,120
50,49,167520,240
55,58,167520,240
50,53,167760,240
55,63,167760,240
50,70,168480,240
38,70,168480,240
65,55,168840,120
65,61,168960,240
65,66,169200,360
64,61,169560,120
64,58,169680,240
64,62,169920,960
52,51,170280,120
56,61,170280,120
52,49,170400,240
56,58,170400,240
52,53,170640,240
56,63,170640,240
48,70,171360,240
36,70,171360,240
65,55,171720,120
65,61,171840,240
65,66,172080,360
64,67,172440,120
64,63,172560,240
64,62,172800,960
52,54,173160,120
57,65,173167,120
52,52,173280,240
57,62,173280,7
57,67,173520,240
52,56,173527,240
50,70,174240,240
38,70,174240,240
71,66,174600,60
71,67,174720,120
71,76,174960,180
77,70,175320,60
77,70,175440,120
77,78,175680,720
71,70,176040,60
71,74,176160,120
71,75,176400,120
47,70,177120,240
35,70,177120,240
59,66,177480,60
59,67,177600,120
59,76,177840,180
69,70,178200,60
69,70,178320,120
69,78,178560,720
59,70,178920,60
59,74,179040,120
59,75,179280,120
52,70,180000,240
40,70,180000,240
71,66,180360,60
71,67,180480,120
71,76,180720,180
76,70,181080,60
76,70,181200,120
76,78,181440,720
71,70,181800,60
71,74,181920,120
71,75,182160,120
40,70,182880,240
28,70,182880,240
52,66,183240,60
52,67,183360,120
52,76,183600,180
64,66,183960,60
64,65,184080,120
64,68,184320,720
52,56,184680,60
52,57,184800,120
52,54,185040,120
45,56,185760,240
33,56,185760,240
65,44,186120,120
65,48,186240,240
65,52,186480,360
64,59,186840,120
64,56,186960,240
64,60,187200,960
52,40,187560,120
57,48,187560,120
52,39,187680,240
57,46,187680,240
52,42,187920,240
57,50,187920,240
44,66,188640,480
32,66,188640,480
65,52,189000,120
65,57,189120,240
65,62,189360,360
64,72,189720,120
64,72,189840,240
64,75,190080,720
52,48,190440,120
56,57,190440,120
52,46,190560,240
56,55,190560,240
52,50,190800,240
56,59,190800,240
45,70,191520,480
33,70,191520,480
71,55,191880,120
71,61,192000,240
71,66,192240,360
69,61,192600,120
69,58,192720,240
69,62,192960,960
57,51,193320,120
60,61,193320,120
57,49,193440,240
60,58,193440,240
57,53,193680,240
60,63,193680,240
50,70,194400,480
38,70,194400,480
74,55,194760,120
74,61,194880,240
74,66,195120,240
55,56,195480,60
59,67,195480,60
55,53,195600,120
59,63,195600,120
55,57,195840,240
59,68,195840,240
43,61,196200,120
55,73,196200,120
43,58,196320,240
55,69,196320,240
43,63,196560,4080
55,75,196560,4080
41,41,200640,720
53,45,200640,720
55,51,201360,1440
43,39,201360,4320
50,48,202800,1680
55,46,203040,3600
43,37,205680,240
48,47,205920,480
45,41,206400,240
50,48,206640,2640
38,39,207120,2160
43,37,209280,2160
31,37,209280,2160
31,37,211440,240
36,47,211680,480
33,41,212160,240
38,48,212400,1200
26,39,212880,720
38,46,214560,1920
50,46,214560,1920
31,43,216480,3600
43,48,216480,3600
41,46,220080,1440
53,54,220080,1440
34,37,221520,2400
46,45,221520,2400
36,31,223920,480
48,31,223920,480
37,28,224400,240
49,28,224400,240
38,30,224640,1920
50,36,224640,1920
31,39,226560,2160
43,51,226560,3120
31,33,228720,240
36,42,228960,480
33,36,229440,240
38,43,229680,5040
26,35,230160,2400
31,45,232560,1920
31,31,234480,240
36,39,234720,720
33,34,235200,240
38,39,235440,720
26,31,235920,240
31,39,236160,480
55,34,237600,120
58,40,237600,120
54,27,237960,120
50,33,238080,120
57,39,238080,120
51,32,238320,120
55,38,238320,120
48,27,238680,120
45,27,238800,120
51,33,238800,120
46,34,239040,120
50,40,239040,120
45,27,239400,120
42,32,239520,120
48,38,239520,120
43,31,239760,120
46,37,239760,120
42,26,240120,120
38,26,240240,120
45,31,240240,120
39,32,240480,120
43,37,240480,120
36,26,240840,120
33,30,240960,120
39,36,240960,120
34,29,241200,120
38,35,241200,120
33,24,241560,120
30,25,241680,120
36,29,241680,120
31,29,241920,120
34,29,241920,120
26,25,242640,120
31,26,243360,120
