note,velocity,position,duration
91,67,10,784
72,67,10,1043
86,62,795,763
79,63,1054,1014
91,62,1559,479
95,65,2069,757
84,65,2069,1014
93,62,2827,761
79,63,3084,1011
91,62,3589,506
91,67,4100,790
67,67,4100,1049
86,62,4891,763
74,63,5150,1014
91,62,5655,479
95,65,6165,757
79,65,6165,1014
93,62,6923,761
74,63,7180,1011
91,62,7685,506
91,67,8196,790
62,67,8196,1049
86,62,8987,763
69,63,9246,1014
95,62,9751,479
96,65,10261,757
74,65,10261,1014
95,62,11019,761
69,63,11276,1011
91,62,11781,476
93,67,12292,790
64,67,12292,1049
91,62,13083,763
71,63,13342,1014
90,62,13847,479
91,65,14357,479
76,65,14357,1014
90,62,14867,474
91,63,15372,241
71,63,15372,1011
90,62,15629,232
86,62,15877,232
81,62,16125,243
79,67,16388,790
60,67,16388,1049
74,62,17179,763
67,63,17438,1014
79,62,17943,479
83,65,18453,757
72,65,18453,1014
81,62,19211,761
67,63,19468,1011
79,62,19973,506
79,67,20484,790
55,67,20484,1049
74,62,21275,763
62,63,21534,1014
86,62,22039,479
79,65,22549,1014
67,65,22549,2026
74,63,23564,1011
74,85,24580,1049
78,85,24580,1049
86,99,24580,1049
26,75,24580,4091
38,93,24580,4091
50,89,25630,242
54,88,25888,231
57,88,26135,232
62,88,26383,246
66,91,26645,247
69,88,26908,231
74,88,27155,232
78,88,27403,256
74,81,27660,1011
78,81,27660,1011
86,95,27660,1011
66,85,28676,435
78,99,28676,435
67,81,29726,400
79,95,29726,400
74,83,30741,479
86,97,30741,509
67,80,31251,197
79,94,31251,197
67,81,31756,397
79,95,31756,397
67,85,32772,1554
74,99,32772,1554
24,79,32772,511
36,97,32772,541
43,88,33314,477
48,89,33822,474
67,80,34327,1524
79,94,34327,1524
52,88,34327,479
55,91,34837,479
60,88,35347,474
67,81,35852,1011
79,95,35852,1011
64,89,35852,1011
74,85,36868,1554
78,99,36868,1554
43,93,36868,511
50,88,37410,477
55,89,37918,474
71,80,38423,1524
74,94,38423,1524
59,88,38423,479
55,91,38933,479
50,88,39443,474
74,81,39948,1011
86,95,39948,1011
43,89,39948,1011
86,85,40964,1554
91,85,40964,1554
98,99,40964,1554
38,92,40964,511
45,88,41506,477
50,89,42014,474
79,80,42519,1524
91,94,42519,1524
54,88,42519,479
57,91,43029,479
62,88,43539,1516
81,81,44044,1011
93,95,44044,1011
79,85,45060,1554
91,99,45060,1554
40,92,45060,511
47,88,45602,477
52,89,46110,474
95,88,46615,232
55,88,46615,479
96,88,46863,246
95,91,47125,247
40,90,47125,479
93,88,47388,231
91,88,47635,232
47,88,47635,1009
86,88,47883,241
79,89,48140,1011
52,88,48645,476
62,93,49156,541
43,93,49156,511
62,88,49698,248
50,88,49698,477
62,88,49947,516
55,89,50206,474
62,88,50464,246
62,88,50711,509
59,88,50711,479
62,91,51221,479
55,91,51221,479
60,88,51731,474
50,88,51731,474
59,89,52236,474
43,89,52236,474
60,88,52741,476
50,88,52741,476
62,93,53252,541
38,92,53252,511
62,88,53794,248
45,88,53794,477
62,88,54043,516
50,89,54302,474
62,88,54560,246
62,88,54807,509
55,88,54807,479
62,91,55317,479
38,90,55317,479
60,88,55827,474
45,88,55827,474
59,89,56332,474
50,89,56332,474
60,88,56837,476
45,88,56837,476
55,88,57348,2544
40,92,57348,511
47,88,57890,477
52,89,58398,474
47,88,58903,479
55,91,59413,479
47,88,59923,474
52,89,60428,474
47,88,60933,476
59,85,61274,681
62,85,61359,596
71,99,61444,541
40,92,61444,511
69,88,61986,477
47,88,61986,477
67,89,62494,1014
52,89,62494,474
47,88,62999,479
59,83,63339,649
62,83,63424,564
71,97,63509,509
40,90,63509,479
69,88,64019,474
47,88,64019,474
67,89,64524,1011
52,89,64524,474
47,88,65029,476
62,93,65540,541
43,93,65540,511
62,88,66082,248
50,88,66082,477
62,88,66331,516
55,89,66590,474
62,88,66848,246
62,88,67095,509
59,88,67095,479
62,91,67605,479
55,91,67605,479
60,88,68115,474
50,88,68115,474
59,89,68620,474
43,89,68620,474
60,88,69125,476
37,87,69125,476
62,93,69636,541
38,92,69636,511
62,88,70178,248
45,88,70178,477
62,88,70427,516
50,89,70686,474
62,88,70944,246
62,88,71191,509
55,88,71191,479
62,91,71701,479
38,90,71701,479
60,88,72211,474
45,88,72211,474
59,89,72716,474
50,89,72716,474
57,80,73221,476
69,94,73221,506
45,88,73221,476
55,80,73732,2544
67,94,73732,4091
40,92,73732,511
47,88,74274,477
52,89,74782,474
47,88,75287,479
55,91,75797,479
47,88,76307,474
52,89,76812,474
47,88,77317,476
62,85,77828,435
71,99,77828,435
40,92,77828,435
62,81,78878,400
69,95,78878,400
40,88,78878,400
62,83,79893,400
67,97,79893,400
40,90,79893,400
66,89,80908,397
28,77,80908,397
40,94,80908,397
64,85,81924,1554
67,99,81924,1554
24,79,81924,511
36,97,81924,541
43,88,82466,477
48,89,82974,474
67,80,83479,1524
71,94,83479,1524
52,88,83479,479
48,91,83989,479
43,88,84499,474
62,81,85004,1011
67,95,85004,1011
48,89,85004,1011
62,85,86020,541
66,99,86020,541
38,92,86020,511
62,80,86562,1012
67,94,86562,1012
45,88,86562,477
50,89,87070,474
62,80,87575,1524
67,80,87575,1524
71,94,87575,1524
45,88,87575,479
54,91,88085,479
45,88,88595,474
66,89,89100,1011
50,89,89100,1011
59,80,90116,2544
62,80,90116,4091
67,94,90116,4091
43,93,90116,511
50,88,90658,477
55,89,91166,474
57,88,91671,479
59,91,92181,479
57,88,92691,474
55,89,93196,474
50,88,93701,506
43,85,94212,435
50,85,94212,435
55,95,94212,435
43,81,95262,400
50,81,95262,400
55,91,95262,400
72,91,96277,479
43,83,96277,400
50,83,96277,400
55,93,96277,400
74,88,96787,474
76,89,97292,474
43,81,97292,397
50,81,97292,397
55,91,97292,397
78,88,97797,476
79,67,98308,511
40,66,98308,511
76,62,98850,477
47,62,98850,477
79,63,99358,474
52,63,99358,474
81,62,99863,479
55,62,99863,479
83,65,100373,479
43,65,100373,479
81,62,100883,474
50,62,100883,474
79,63,101388,474
55,63,101388,474
76,62,101893,476
50,62,101893,476
79,67,102404,511
45,67,102404,511
76,62,102946,477
52,62,102946,477
79,63,103454,474
57,63,103454,1014
81,62,103959,479
75,57,104469,2026
78,57,104469,2026
83,71,104469,2026
47,65,104469,479
54,62,104979,474
59,63,105484,1011
79,67,106500,511
40,66,106500,511
76,62,107042,477
47,62,107042,477
79,63,107550,474
52,63,107550,474
81,62,108055,479
47,62,108055,479
76,57,108395,649
79,57,108480,594
83,71,108565,509
43,65,108565,479
81,62,109075,474
50,62,109075,474
79,63,109580,1011
55,63,109580,474
50,62,110085,476
71,59,110426,681
76,59,110511,596
83,73,110596,541
36,65,110596,511
69,54,111138,477
81,68,111138,507
43,62,111138,477
67,55,111646,1014
79,69,111646,1014
48,63,111646,474
52,62,112151,479
71,57,112491,649
74,57,112576,564
83,71,112661,509
43,65,112661,479
69,54,113171,474
81,68,113171,504
50,62,113171,474
67,55,113676,1011
79,69,113676,1011
55,63,113676,1011
67,72,114692,1049
79,82,114692,1049
36,70,114692,511
43,86,114692,541
48,75,115234,477
67,68,115742,474
79,82,115742,504
55,76,115742,474
71,67,116247,1524
83,81,116247,1524
60,75,116247,479
64,78,116757,479
55,75,117267,474
67,68,117772,1011
79,82,117772,1011
48,76,117772,1011
66,72,118788,511
78,86,118788,541
38,79,118788,511
67,67,119330,1012
79,81,119330,1012
45,75,119330,477
50,76,119838,474
71,67,120343,1524
76,67,120343,1524
83,81,120343,1524
54,75,120343,479
57,78,120853,479
62,75,121363,1516
66,68,121868,1011
78,82,121868,1011
67,67,122884,4091
71,67,122884,4091
79,81,122884,4091
43,80,122884,511
50,75,123426,477
55,76,123934,474
57,75,124439,479
59,78,124949,479
57,75,125459,474
55,76,125964,474
50,75,126469,476
43,80,126980,511
50,75,127522,477
55,76,128030,474
59,75,128535,509
67,78,129045,400
55,70,129045,400
59,70,129045,400
62,84,129045,400
31,65,130060,397
43,82,130060,397
67,85,131076,790
79,99,131076,790
24,79,131076,790
36,97,131076,790
62,80,131867,763
74,94,131867,763
43,88,131867,763
67,80,132631,479
79,94,132631,509
36,78,132631,479
48,94,132631,509
71,83,133141,757
83,97,133141,757
52,91,133141,757
69,80,133899,761
81,94,133899,761
43,88,133899,1238
67,80,134661,506
79,94,134661,506
67,85,135172,790
79,99,135172,790
31,82,135172,790
38,98,135172,790
62,80,135963,763
74,94,135963,763
43,88,135963,763
67,80,136727,479
79,94,136727,509
50,88,136727,479
71,83,137237,757
83,97,137237,757
55,91,137237,757
69,80,137995,761
81,94,137995,761
50,88,137995,761
67,80,138757,506
79,94,138757,506
43,88,138757,476
67,85,139268,790
79,99,139268,790
38,92,139268,790
62,80,140059,763
74,94,140059,763
45,88,140059,763
71,80,140823,479
83,94,140823,509
50,88,140823,479
72,83,141333,757
84,97,141333,757
54,91,141333,757
71,80,142091,761
83,94,142091,761
45,88,142091,761
67,80,142853,476
79,94,142853,506
50,88,142853,476
69,85,143364,790
81,99,143364,790
40,92,143364,790
67,80,144155,763
79,94,144155,763
47,88,144155,763
66,80,144919,479
78,94,144919,509
52,88,144919,479
67,83,145429,1014
79,97,145429,1014
55,91,145429,479
47,88,145939,474
79,89,146444,241
40,88,146444,1011
78,88,146701,232
74,88,146949,232
69,88,147197,243
67,85,147460,790
79,99,147460,790
36,91,147460,790
62,80,148251,763
74,94,148251,763
48,88,148251,763
67,80,149015,479
79,94,149015,509
55,88,149015,479
71,83,149525,757
83,97,149525,757
60,91,149525,757
69,80,150283,761
81,94,150283,761
55,88,150283,1268
67,80,151045,506
79,94,151045,506
67,85,151556,790
79,99,151556,790
43,93,151556,790
62,80,152347,763
74,94,152347,763
50,88,152347,763
71,80,153111,479
83,94,153111,509
55,88,153111,479
67,83,153621,1014
79,97,153621,1014
59,91,153621,479
50,88,154131,474
62,81,154636,1011
74,95,154636,1011
43,89,154636,1011
74,80,155652,4091
79,80,155652,4091
86,94,155652,4091
38,92,155652,511
45,88,156194,477
50,89,156702,474
54,88,157207,479
57,91,157717,479
62,88,158227,474
57,89,158732,474
54,88,159237,476
66,85,159748,435
78,99,159748,435
40,84,159748,435
52,95,159748,435
67,81,160798,400
79,95,160798,400
40,80,160798,400
52,91,160798,400
74,83,161813,479
86,97,161813,509
40,82,161813,400
52,97,161813,400
67,80,162323,197
79,94,162323,197
67,81,162828,397
79,91,162828,397
28,77,162828,397
40,94,162828,397
67,85,163844,511
79,99,163844,541
24,79,163844,511
36,97,163844,541
64,80,164386,477
76,94,164386,507
43,88,164386,477
67,81,164894,474
79,95,164894,504
48,89,164894,474
69,80,165399,479
81,94,165399,509
43,88,165399,479
71,83,165909,479
83,97,165909,509
38,90,165909,479
69,80,166419,474
81,94,166419,504
45,88,166419,474
67,81,166924,474
79,95,166924,504
50,89,166924,1011
64,80,167429,476
76,94,167429,506
67,85,167940,511
79,99,167940,541
40,92,167940,1049
64,80,168482,477
76,94,168482,507
74,81,168990,1014
86,95,168990,1014
30,77,168990,1014
42,95,168990,1014
67,83,170005,1014
79,97,170005,1014
31,80,170005,479
43,97,170005,509
50,88,170515,474
55,89,171020,474
59,88,171525,476
67,85,172036,511
79,99,172036,541
36,83,172036,511
48,99,172036,541
64,80,172578,477
76,94,172578,507
55,88,172578,477
67,81,173086,474
79,95,173086,504
60,89,173086,474
69,80,173591,479
81,94,173591,509
55,88,173591,479
71,83,174101,509
83,97,174101,509
38,90,174101,479
71,80,174611,474
83,94,174611,504
45,88,174611,474
69,81,175116,474
81,95,175116,504
50,89,175116,474
67,80,175621,506
79,94,175621,506
45,88,175621,476
67,85,176132,1554
74,96,176132,1554
79,91,176132,1554
43,93,176132,511
50,88,176674,477
55,89,177182,474
67,88,177687,232
59,88,177687,479
69,88,177935,246
71,91,178197,247
43,91,178197,479
67,88,178460,231
69,88,178707,232
50,88,178707,474
67,88,178955,241
74,89,179212,241
43,89,179212,1011
72,88,179469,232
71,88,179717,232
69,88,179965,243
67,85,180228,511
79,99,180228,541
36,91,180228,511
64,80,180770,477
76,94,180770,507
48,88,180770,477
67,81,181278,474
79,95,181278,504
55,89,181278,474
69,80,181783,479
81,94,181783,509
60,88,181783,479
71,83,182293,479
83,97,182293,509
38,90,182293,479
69,80,182803,474
81,94,182803,504
45,88,182803,474
67,81,183308,474
79,95,183308,504
50,89,183308,1011
64,80,183813,476
76,94,183813,506
67,85,184324,511
79,99,184324,541
40,92,184324,1049
64,80,184866,477
76,94,184866,507
74,81,185374,1014
86,95,185374,1014
30,77,185374,1014
42,95,185374,1014
67,83,186389,1014
79,97,186389,1014
31,80,186389,479
43,97,186389,509
50,88,186899,474
55,89,187404,474
59,88,187909,476
67,85,188420,511
79,99,188420,541
36,83,188420,511
48,99,188420,541
64,80,188962,477
76,94,188962,507
55,88,188962,477
67,81,189470,474
79,95,189470,504
60,89,189470,1014
69,80,189975,479
81,94,189975,509
71,83,190485,509
83,97,190485,509
38,82,190485,479
50,97,190485,509
71,80,190995,474
83,94,190995,504
45,88,190995,474
69,81,191500,474
81,95,191500,504
50,89,191500,1011
67,80,192005,506
79,94,192005,506
67,80,192516,4091
71,91,192516,4091
79,86,192516,4091
40,92,192516,511
47,88,193058,477
52,89,193566,474
47,88,194071,479
55,91,194581,479
47,88,195091,474
40,80,195596,474
52,95,195596,504
38,79,196101,476
50,94,196101,506
67,85,196612,790
79,99,196612,790
36,83,196612,790
48,99,196612,790
62,80,197403,763
74,94,197403,763
55,88,197403,763
67,80,198167,479
79,94,198167,509
60,88,198167,479
71,83,198677,757
83,97,198677,757
48,91,198677,757
69,80,199435,761
81,94,199435,761
55,88,199435,761
67,80,200197,506
79,94,200197,506
67,85,200708,790
79,99,200708,790
31,82,200708,1554
43,99,200708,1554
62,80,201499,763
74,94,201499,763
71,80,202263,479
83,94,202263,509
55,88,202263,479
67,83,202773,1014
79,97,202773,1014
50,91,202773,479
62,81,203788,1011
74,95,203788,1011
74,85,204804,1049
79,85,204804,1049
86,99,204804,1049
38,87,204804,3079
62,89,205854,242
66,88,206112,231
69,88,206359,232
74,88,206607,246
78,91,206869,247
81,88,207132,231
86,88,207379,232
90,88,207627,241
86,81,207884,1011
98,95,207884,1011
38,80,207884,397
50,95,207884,397
78,85,208900,435
90,99,208900,435
79,81,209950,400
91,95,209950,400
86,83,210965,400
98,97,210965,400
79,81,211980,397
91,95,211980,397
31,90,212996,435
