note,velocity,position,duration
68,59,480,960
63,39,960,480
70,57,1440,960
63,28,1920,480
68,31,1920,480
72,57,2400,480
73,63,3360,960
63,34,3840,480
67,38,3840,480
72,62,4320,960
67,35,4800,480
63,30,4800,480
70,51,5280,480
72,63,6240,960
68,42,6720,480
63,38,6720,480
73,68,7200,960
63,37,7680,480
68,41,7680,480
75,71,8160,480
77,73,8640,330
68,51,9060,390
74,56,9090,360
79,74,9120,330
68,51,9540,540
74,56,9570,510
80,77,9600,480
75,81,10080,1440
72,44,10560,480
68,38,10560,480
63,38,10560,480
72,43,11040,480
68,38,11040,480
63,38,11040,480
78,59,12000,240
77,56,12240,240
75,59,12480,240
78,56,12720,240
77,62,12960,720
73,59,13680,240
70,55,13920,240
65,50,14160,240
76,59,14880,240
75,56,15120,240
73,59,15360,240
76,56,15600,240
75,62,15840,720
72,59,16560,240
68,57,16800,240
63,52,17040,240
60,35,17760,480
63,39,17760,480
68,59,17760,960
60,35,18240,480
63,39,18240,480
67,63,18720,960
60,31,19200,480
65,36,19200,480
60,31,19680,480
65,36,19680,480
68,59,19680,480
70,68,20160,720
62,31,20640,480
68,36,20640,480
71,61,20880,240
62,31,21120,480
68,36,21120,480
70,59,21120,240
71,52,21360,240
67,59,21600,1440
61,36,22080,480
63,40,22080,480
61,35,22560,480
63,39,22560,480
68,59,23520,960
63,39,24000,480
70,58,24480,960
63,28,24960,480
68,31,24960,480
72,57,25440,480
73,63,26400,960
63,34,26880,480
67,38,26880,480
72,62,27360,960
67,35,27840,480
63,30,27840,480
70,51,28320,480
72,63,29280,960
68,42,29760,480
63,38,29760,480
73,68,30240,960
63,37,30720,480
68,41,30720,480
75,71,31200,480
77,73,31680,330
68,48,32100,390
74,56,32130,360
79,74,32160,330
68,48,32580,540
74,55,32610,510
80,77,32640,480
75,81,33120,1440
63,38,33600,480
68,38,33600,480
72,44,33600,480
63,38,34080,480
68,38,34080,480
72,43,34080,480
78,59,35040,240
77,56,35280,240
75,59,35520,240
78,56,35760,240
77,62,36000,720
73,59,36720,240
70,55,36960,240
65,50,37200,240
80,66,37920,240
79,61,38160,240
77,64,38400,240
80,60,38640,240
79,68,38880,720
76,61,39600,240
72,59,39840,240
67,55,40080,240
74,70,40800,960
66,46,41280,480
72,46,41280,480
76,70,41760,960
67,34,42240,480
72,37,42240,480
79,70,42720,480
74,75,43680,960
65,39,44160,480
71,45,44160,480
76,73,44640,960
67,40,45120,960
64,36,45120,960
72,61,45600,480
74,71,46560,960
72,50,47040,480
66,45,47040,480
76,73,47520,960
67,44,48000,480
72,48,48000,480
79,69,48480,480
74,73,48960,720
65,39,49440,480
71,41,49440,480
76,70,49680,240
65,45,49920,480
71,44,49920,480
74,64,49920,240
76,60,50160,240
72,66,50400,720
76,55,51120,240
75,58,51360,240
76,56,51600,240
72,66,51840,720
76,55,52560,240
75,58,52800,240
76,56,53040,240
72,66,53280,240
76,55,53520,240
75,58,53760,240
76,55,54000,240
72,62,54240,240
76,56,54480,240
75,59,54720,240
76,55,54960,240
72,63,55200,240
76,55,55440,240
75,58,55680,240
76,56,55920,240
73,59,56160,240
77,55,56400,240
76,64,56640,240
77,56,56880,240
73,60,57120,240
77,58,57360,240
76,62,57600,240
77,58,57840,240
73,68,58069,240
77,60,58320,240
76,63,58560,240
77,62,58800,240
71,67,59040,1440
77,62,59280,240
76,72,59509,240
77,63,59760,240
80,75,60000,240
79,71,60240,240
75,82,60480,720
76,70,61200,240
79,72,61440,240
84,68,61680,240
69,67,61920,1440
75,62,62160,240
74,72,62400,240
75,63,62640,240
78,69,62880,240
77,66,63120,240
72,71,63360,720
73,69,64080,240
77,68,64320,240
82,64,64560,240
69,72,64800,720
70,67,65520,240
73,70,65760,240
80,66,66000,240
79,66,66240,240
77,60,66480,240
75,61,66720,240
74,56,66960,240
77,59,67200,240
75,56,67440,240
73,59,67680,240
77,55,67920,240
76,64,68160,240
77,56,68400,240
73,60,68640,240
77,58,68880,240
76,62,69120,240
77,58,69360,240
73,68,69589,240
77,60,69840,240
76,63,70080,240
77,62,70320,240
71,67,70560,1440
77,62,70800,240
76,72,71029,240
77,63,71280,240
80,75,71520,240
79,71,71760,240
75,82,72000,720
76,69,72720,240
79,72,72960,240
84,69,73200,240
69,67,73440,1440
75,62,73680,240
74,72,73920,240
75,63,74160,240
78,69,74400,240
77,66,74640,240
72,74,74880,720
73,67,75600,240
77,70,75840,240
82,64,76080,240
69,68,76320,720
70,60,77040,240
72,62,77280,240
73,59,77520,240
66,63,77760,720
67,57,78480,240
69,59,78720,240
70,56,78960,240
68,59,79680,960
63,39,80160,480
70,59,80640,960
63,28,81120,480
68,31,81120,480
72,59,81600,480
73,63,82560,960
63,34,83040,480
67,38,83040,480
72,62,83520,960
67,35,84000,480
63,30,84000,480
70,51,84480,480
72,63,85440,960
68,42,85920,480
63,38,85920,480
73,68,86400,960
63,37,86880,480
68,41,86880,480
75,71,87360,480
77,73,87840,330
68,51,88260,390
74,56,88290,360
79,74,88320,330
68,51,88740,540
74,56,88770,510
80,77,88800,480
75,81,89280,1440
63,38,89760,480
68,38,89760,480
72,44,89760,480
63,38,90240,480
68,38,90240,480
72,43,90240,480
78,59,91200,240
77,56,91440,240
75,59,91680,240
78,56,91920,240
77,62,92160,720
73,59,92880,240
70,55,93120,240
65,50,93360,240
76,59,94080,240
75,56,94320,240
73,59,94560,240
76,56,94800,240
75,62,95040,720
72,59,95760,240
68,57,96000,240
63,52,96240,240
60,35,96960,480
63,39,96960,480
68,59,96960,960
60,35,97440,480
63,39,97440,480
67,63,97920,960
60,31,98400,480
65,36,98400,480
60,31,98880,480
65,36,98880,480
68,59,98880,480
70,68,99360,720
62,31,99840,480
68,36,99840,480
71,61,100080,240
62,31,100320,480
68,36,100320,480
70,59,100320,240
71,52,100560,240
67,59,100800,1440
61,36,101280,480
63,40,101280,480
61,35,101760,480
63,39,101760,480
68,59,102720,960
63,39,103200,480
70,59,103680,960
63,28,104160,480
68,31,104160,480
72,56,104640,480
73,63,105600,960
63,34,106080,480
67,38,106080,480
72,62,106560,960
67,35,107040,480
63,30,107040,480
70,51,107520,480
72,63,108480,960
68,42,108960,480
63,38,108960,480
73,68,109440,960
63,37,109920,480
68,41,109920,480
75,71,110400,480
77,73,110880,330
68,48,111300,390
74,56,111330,360
79,74,111360,330
68,48,111780,540
74,55,111810,510
80,77,111840,480
75,81,112320,1440
63,38,112800,480
68,38,112800,480
72,44,112800,480
63,38,113280,480
68,38,113280,480
72,43,113280,480
78,59,114240,240
77,56,114480,240
75,59,114720,240
78,56,114960,240
77,62,115200,720
73,59,115920,240
70,55,116160,240
65,50,116400,240
80,66,117120,240
79,61,117360,240
77,64,117600,240
80,60,117840,240
79,68,118080,720
76,61,118800,240
72,59,119040,240
67,55,119280,240
82,70,120000,240
80,64,120240,240
79,69,120480,240
82,63,120720,240
80,72,120960,720
77,64,121680,240
71,62,121920,240
68,58,122160,240
77,64,122400,720
73,58,123120,240
70,56,123360,240
67,51,123600,240
70,58,123840,720
68,51,124560,240
63,49,124800,240
60,46,125040,240
68,51,125760,1920
66,51,127680,1440
64,51,129120,1200
63,46,130320,240
62,49,130560,240
63,47,130800,240
68,51,131520,1920
66,51,133440,3120
76,68,134880,1200
75,56,136080,240
71,59,136320,240
66,55,136560,240
68,51,137280,1920
66,51,139200,1440
64,51,140640,1200
63,46,141840,240
62,49,142080,240
63,47,142320,240
68,51,143040,1920
66,51,144960,1440
67,63,146400,720
75,63,147120,240
71,64,147360,240
70,61,147600,240
68,62,147840,480
69,73,148320,720
73,68,149040,240
78,72,149280,240
81,68,149520,240
73,64,149760,1440
68,67,149760,960
80,75,149760,960
66,64,150720,480
78,72,150720,480
59,52,151680,960
66,52,151680,960
69,52,151680,960
71,52,151680,960
61,63,152640,120
66,63,152640,120
69,63,152640,120
73,70,152640,120
63,57,153120,120
66,57,153120,120
69,57,153120,120
75,64,153120,120
64,55,153600,120
68,55,153600,120
76,62,153600,120
66,63,154080,720
65,57,154800,240
68,64,155040,240
66,58,155280,240
75,63,155520,480
73,61,156000,480
71,61,156480,480
59,53,157440,960
64,53,157440,960
71,53,157440,960
56,48,158880,960
64,48,158880,960
68,53,158880,960
69,73,159840,720
73,68,160560,240
78,72,160800,240
81,68,161040,240
73,64,161280,1440
68,67,161280,960
80,75,161280,960
66,64,162240,480
78,72,162240,480
59,52,163200,960
66,52,163200,960
69,52,163200,960
71,52,163200,960
61,63,164160,120
66,63,164160,120
69,63,164160,120
73,70,164160,120
63,57,164640,120
66,57,164640,120
69,57,164640,120
75,64,164640,120
64,55,165120,120
68,55,165120,120
76,62,165120,120
66,63,165600,720
65,57,166320,240
68,64,166560,240
66,58,166800,240
75,63,167040,480
73,61,167520,480
71,61,168000,480
59,53,168960,960
64,53,168960,960
71,53,168960,960
64,57,170400,120
66,57,170400,120
70,57,170400,120
63,55,170880,120
66,55,170880,120
71,62,170880,120
68,51,171840,1920
66,51,173760,1440
64,51,175200,1200
63,46,176400,240
62,49,176640,240
63,47,176880,240
68,51,177600,1920
66,51,179520,3120
76,68,180960,1200
75,50,182160,240
71,55,182400,240
66,47,182640,240
68,51,183360,1920
66,51,185280,1440
64,51,186720,1200
63,46,187920,240
62,49,188160,240
63,47,188400,240
68,51,189120,1920
66,56,191040,1440
67,59,192480,1440
68,59,193920,480
70,55,195120,240
71,59,195360,240
70,56,195600,240
73,60,195840,960
71,56,196800,480
74,57,198000,240
76,61,198240,240
74,58,198480,240
76,63,198720,960
75,58,199680,480
70,55,200880,240
71,59,201120,240
70,56,201360,240
73,60,201600,960
71,56,202560,480
74,57,203760,240
76,61,204000,240
74,58,204240,240
76,67,204480,720
75,58,205200,240
74,62,205440,240
75,58,205680,240
76,67,205920,720
75,58,206640,240
74,62,206880,240
75,58,207120,240
82,70,207360,240
80,69,207600,240
79,68,207840,240
76,67,208080,240
75,64,208320,240
73,62,208560,240
76,68,208800,240
75,67,209040,240
73,66,209280,240
71,64,209520,240
70,64,209760,240
68,63,210000,240
67,60,210240,240
68,60,210480,240
69,59,210720,240
70,58,210960,240
71,57,211200,240
72,57,211440,240
73,59,211680,240
72,53,211920,240
75,58,212160,240
73,56,212400,240
72,53,212640,240
70,51,212880,240
68,59,213600,960
63,39,214080,480
70,59,214560,960
63,28,215040,480
68,31,215040,480
72,57,215520,480
73,63,216480,960
63,34,216960,480
67,38,216960,480
72,62,217440,960
67,35,217920,480
63,30,217920,480
70,51,218400,480
72,63,219360,960
68,42,219840,480
63,38,219840,480
73,68,220320,960
63,37,220800,480
68,41,220800,480
75,71,221280,480
77,73,221760,330
68,51,222180,390
74,56,222210,360
79,74,222240,330
68,51,222660,540
74,56,222690,510
80,77,222720,480
75,81,223200,1440
63,38,223680,480
68,38,223680,480
72,44,223680,480
63,38,224160,480
68,38,224160,480
72,43,224160,480
78,59,225120,240
77,56,225360,240
75,59,225600,240
78,56,225840,240
77,62,226080,720
73,59,226800,240
70,55,227040,240
65,50,227280,240
76,59,228000,240
75,56,228240,240
73,59,228480,240
76,56,228720,240
75,62,228960,720
72,59,229680,240
68,57,229920,240
63,52,230160,240
60,35,230880,480
63,39,230880,480
68,59,230880,960
60,35,231360,480
63,39,231360,480
67,63,231840,960
60,31,232320,480
65,36,232320,480
60,31,232800,480
65,36,232800,480
68,59,232800,480
70,68,233280,720
62,31,233760,480
68,36,233760,480
71,61,234000,240
62,31,234240,480
68,36,234240,480
70,59,234240,240
71,52,234480,240
67,59,234720,1440
61,36,235200,480
63,40,235200,480
61,35,235680,480
63,39,235680,480
68,59,236640,960
63,39,237120,480
70,57,237600,960
63,28,238080,480
68,31,238080,480
72,57,238560,480
73,63,239520,960
63,34,240000,480
67,38,240000,480
72,62,240480,960
67,35,240960,480
63,30,240960,480
70,51,241440,480
72,63,242400,960
68,42,242880,480
63,38,242880,480
73,68,243360,960
63,37,243840,480
68,41,243840,480
75,71,244320,480
77,73,244800,330
68,48,245220,390
74,56,245250,360
79,74,245280,330
68,48,245700,540
74,55,245730,510
80,77,245760,480
75,81,246240,1440
63,38,246720,480
68,38,246720,480
72,44,246720,480
63,38,247200,480
68,38,247200,480
72,43,247200,480
78,59,248160,240
77,56,248400,240
75,59,248640,240
78,56,248880,240
77,62,249120,720
73,59,249840,240
70,55,250080,240
65,50,250320,240
80,66,251040,240
79,61,251280,240
77,64,251520,240
80,60,251760,240
79,68,252000,720
76,61,252720,240
72,59,252960,240
67,55,253200,240
74,70,253920,960
66,46,254400,480
72,46,254400,480
76,70,254880,960
67,34,255360,480
72,37,255360,480
79,70,255840,480
74,75,256800,960
65,39,257280,480
71,45,257280,480
76,73,257760,960
67,40,258240,960
64,36,258240,960
72,61,258720,480
74,71,259680,960
72,50,260160,480
66,45,260160,480
76,73,260640,960
67,44,261120,480
72,48,261120,480
79,69,261600,480
74,73,262080,720
65,42,262560,480
71,44,262560,480
76,70,262800,240
65,45,263040,480
71,44,263040,480
74,64,263040,240
76,60,263280,240
72,66,263520,720
76,55,264240,240
75,58,264480,240
76,56,264720,240
72,66,264960,720
76,55,265680,240
75,58,265920,240
76,56,266160,240
72,66,266400,240
76,55,266640,240
75,58,266880,240
76,55,267120,240
72,62,267360,240
76,56,267600,240
75,59,267840,240
76,55,268080,240
72,63,268320,240
76,55,268560,240
75,58,268800,240
76,56,269040,240
73,59,269280,240
77,55,269520,240
76,64,269760,240
77,56,270000,240
73,60,270240,240
77,58,270480,240
76,62,270720,240
77,58,270960,240
73,68,271189,240
77,60,271440,240
76,63,271680,240
77,62,271920,240
71,67,272160,1440
77,62,272400,240
76,72,272629,240
77,63,272880,240
80,75,273120,240
79,71,273360,240
75,82,273600,720
76,70,274320,240
79,72,274560,240
84,68,274800,240
69,67,275040,1440
75,62,275280,240
74,72,275520,240
75,63,275760,240
78,70,276000,240
77,66,276240,240
72,72,276480,720
73,68,277200,240
77,69,277440,240
82,67,277680,240
69,72,277920,720
70,67,278640,240
73,70,278880,240
80,66,279120,240
79,66,279360,240
77,60,279600,240
75,61,279840,240
74,56,280080,240
77,59,280320,240
75,56,280560,240
73,59,280800,240
77,55,281040,240
76,64,281280,240
77,56,281520,240
73,60,281760,240
77,58,282000,240
76,62,282240,240
77,58,282480,240
73,68,282709,240
77,60,282960,240
76,63,283200,240
77,62,283440,240
71,67,283680,1440
77,62,283920,240
76,72,284149,240
77,63,284400,240
80,75,284640,240
79,71,284880,240
75,82,285120,720
76,69,285840,240
79,72,286080,240
84,69,286320,240
69,67,286560,1440
75,62,286800,240
74,72,287040,240
75,63,287280,240
78,69,287520,240
77,66,287760,240
72,74,288000,720
73,67,288720,240
77,70,288960,240
82,64,289200,240
69,68,289440,720
70,60,290160,240
72,62,290400,240
73,59,290640,240
66,63,290880,720
67,57,291600,240
69,59,291840,240
70,56,292080,240
68,59,292800,960
63,39,293280,480
70,59,293760,960
63,28,294240,480
68,31,294240,480
72,59,294720,480
73,63,295680,960
63,34,296160,480
67,38,296160,480
72,62,296640,960
67,35,297120,480
63,30,297120,480
70,51,297600,480
72,63,298560,960
68,42,299040,480
63,38,299040,480
73,68,299520,960
63,37,300000,480
68,41,300000,480
75,71,300480,480
77,73,300960,330
68,51,301380,390
74,56,301410,360
79,74,301440,330
68,51,301860,540
74,56,301890,510
80,77,301920,480
75,81,302400,1440
63,41,302880,480
68,41,302880,480
72,47,302880,480
63,41,303360,480
68,41,303360,480
72,46,303360,480
78,59,304320,240
77,56,304560,240
75,59,304800,240
78,56,305040,240
77,62,305280,720
73,59,306000,240
70,55,306240,240
65,50,306480,240
76,59,307200,240
75,56,307440,240
73,59,307680,240
76,56,307920,240
75,62,308160,720
72,59,308880,240
68,57,309120,240
63,52,309360,240
60,35,310080,480
63,39,310080,480
68,59,310080,960
60,35,310560,480
63,39,310560,480
67,63,311040,960
60,31,311520,480
65,36,311520,480
60,31,312000,480
65,36,312000,480
68,59,312000,480
70,68,312480,720
62,31,312960,480
68,36,312960,480
71,61,313200,240
62,31,313440,480
68,36,313440,480
70,59,313440,240
71,52,313680,240
67,59,313920,1440
61,36,314400,480
63,40,314400,480
61,35,314880,480
63,39,314880,480
68,59,315840,960
63,39,316320,480
70,59,316800,960
63,28,317280,480
68,31,317280,480
72,59,317760,480
73,63,318720,960
63,34,319200,480
67,38,319200,480
72,62,319680,960
67,35,320160,480
63,30,320160,480
70,51,320640,480
72,63,321600,960
68,42,322080,480
63,38,322080,480
73,68,322560,960
63,37,323040,480
68,41,323040,480
75,71,323520,480
77,73,324000,330
68,48,324420,390
74,56,324450,360
79,74,324480,330
68,48,324900,540
74,55,324930,510
80,77,324960,480
75,81,325440,1440
63,38,325920,480
68,38,325920,480
72,44,325920,480
63,38,326400,480
68,38,326400,480
72,43,326400,480
78,59,327360,240
77,56,327600,240
75,59,327840,240
78,56,328080,240
77,62,328320,720
73,59,329040,240
70,55,329280,240
65,50,329520,240
80,66,330240,240
79,61,330480,240
77,64,330720,240
80,60,330960,240
79,68,331200,720
76,61,331920,240
72,59,332160,240
67,55,332400,240
82,70,333120,240
80,64,333360,240
79,69,333600,240
82,63,333840,240
80,72,334080,720
77,64,334800,240
71,62,335040,240
68,58,335280,240
77,64,335520,720
73,58,336240,240
70,56,336480,240
67,51,336720,240
70,58,336960,720
68,51,337680,240
63,49,337920,240
60,46,338160,240
59,39,338880,480
62,39,338880,480
65,59,338880,960
59,39,339360,480
62,39,339360,480
67,61,339840,960
59,39,340320,480
62,39,340320,480
59,39,340800,480
62,39,340800,480
68,59,340800,480
60,42,341280,480
63,42,341280,480
67,48,341280,480
60,47,342240,480
63,47,342240,480
67,52,342240,480
63,51,343200,480
60,46,343200,480
59,42,344640,480
64,42,344640,480
68,64,344640,960
59,42,345120,480
64,42,345120,480
70,67,345600,960
59,42,346080,480
64,42,346080,480
59,42,346560,480
64,42,346560,480
71,64,346560,480
60,46,347040,480
63,46,347040,480
72,52,347040,480
60,52,348000,480
63,52,348000,480
72,58,348000,480
63,52,348960,480
72,57,348960,480
60,51,348960,480
71,48,350400,480
74,48,350400,480
77,72,350400,960
71,48,350880,480
74,48,350880,480
79,76,351360,960
71,48,351840,480
74,48,351840,480
71,48,352320,480
74,48,352320,480
80,73,352320,480
72,53,352800,480
75,53,352800,480
79,60,352800,480
72,59,353760,480
75,59,353760,480
79,66,353760,480
75,65,354720,480
72,59,354720,480
71,54,356160,480
76,54,356160,480
80,83,356160,960
71,54,356640,480
76,54,356640,480
82,87,357120,960
71,55,357600,480
76,55,357600,480
71,56,358080,480
76,56,358080,480
83,86,358080,480
72,61,358560,480
75,61,358560,480
84,68,358560,480
72,67,359520,480
75,67,359520,480
84,75,359520,480
75,68,360480,480
84,75,360480,480
72,67,360480,480
88,87,361920,960
83,76,361920,960
80,76,361920,960
76,76,361920,960
87,82,362880,120
84,76,363120,120
80,79,363360,120
75,77,363600,120
72,80,363840,120
76,77,364800,960
71,69,364800,960
68,69,364800,960
64,69,364800,960
75,78,365760,120
72,72,366000,120
68,75,366240,120
63,72,366480,120
60,76,366720,120
75,74,367200,120
72,67,367440,120
68,71,367680,120
63,67,367920,120
60,71,368160,120
75,65,368640,120
72,60,368880,120
68,62,369120,120
63,59,369360,120
60,62,369600,120
75,61,370080,120
72,56,370320,120
68,58,370560,120
63,55,370800,120
60,58,371040,120
75,56,371520,120
72,51,371760,120
68,53,372000,120
63,51,372240,120
60,55,372480,120
60,46,373200,240
63,48,373440,240
68,49,373680,240
72,51,373920,240
75,52,374160,240
77,55,374400,240
75,52,374640,240
72,51,374880,240
68,49,375120,240
72,51,375360,240
75,55,375600,240
80,58,375840,120
84,55,376320,120
80,55,376320,120
87,55,376800,120
84,55,376800,120
80,55,376800,120
92,57,377280,120
84,57,377280,120
80,57,377280,120
44,37,0,480
56,27,480,480
60,32,480,480
51,27,480,480
51,24,960,480
60,27,960,480
56,24,960,480
39,44,1440,480
51,19,1920,480
60,22,1920,480
56,19,1920,480
51,26,2400,480
60,29,2400,480
56,26,2400,480
46,39,2880,480
61,34,3360,480
55,30,3360,480
51,30,3360,480
61,25,3840,480
55,22,3840,480
51,22,3840,480
39,39,4320,480
61,23,4800,480
55,20,4800,480
51,20,4800,480
51,27,5280,480
55,27,5280,480
61,32,5280,480
44,50,5760,480
56,33,6240,480
60,36,6240,480
51,33,6240,480
60,33,6720,480
56,27,6720,480
51,27,6720,480
39,55,7200,480
56,27,7680,480
60,32,7680,480
54,27,7680,480
56,34,8160,480
60,37,8160,480
54,34,8160,480
44,57,8640,330
53,31,8970,480
56,37,9000,450
59,44,9030,420
53,33,9450,630
56,40,9480,600
59,45,9510,570
44,63,10080,480
56,22,10560,480
60,25,10560,480
51,22,10560,480
56,22,11040,480
60,25,11040,480
51,22,11040,480
45,37,11520,480
53,27,12000,480
63,32,12000,480
60,27,12000,480
63,27,12480,480
60,24,12480,480
53,24,12480,480
46,37,12960,480
58,27,13440,480
61,32,13440,480
53,27,13440,480
61,27,13920,480
58,24,13920,480
53,24,13920,480
43,37,14400,480
58,27,14880,480
61,32,14880,480
51,27,14880,480
61,27,15360,480
58,24,15360,480
51,24,15360,480
44,37,15840,480
51,27,16320,480
60,32,16320,480
56,27,16320,480
60,27,16800,480
56,24,16800,480
51,24,16800,480
42,37,17280,480
56,36,17760,480
54,31,17760,480
54,27,18240,480
56,30,18240,480
41,44,18720,480
56,28,19200,480
53,25,19200,480
53,29,19680,480
56,33,19680,480
40,37,20160,480
52,31,20640,480
56,36,20640,480
52,27,21120,480
56,30,21120,480
39,37,21600,480
51,29,22080,480
58,34,22080,480
58,28,22560,480
51,25,22560,480
44,37,23040,480
56,27,23520,480
60,32,23520,480
51,27,23520,480
51,24,24000,480
60,27,24000,480
56,24,24000,480
39,44,24480,480
51,19,24960,480
60,22,24960,480
56,19,24960,480
51,26,25440,480
60,29,25440,480
56,26,25440,480
46,39,25920,480
61,34,26400,480
55,30,26400,480
51,30,26400,480
61,25,26880,480
55,22,26880,480
51,22,26880,480
39,39,27360,480
61,23,27840,480
55,20,27840,480
51,20,27840,480
51,27,28320,480
55,27,28320,480
61,32,28320,480
44,38,28800,480
56,30,29280,480
60,34,29280,480
51,30,29280,480
60,30,29760,480
56,26,29760,480
51,26,29760,480
39,55,30240,480
56,27,30720,480
60,32,30720,480
54,27,30720,480
56,34,31200,480
60,37,31200,480
54,34,31200,480
44,56,31680,330
53,29,32010,480
56,36,32040,450
59,44,32070,420
53,33,32490,630
56,39,32520,600
59,45,32550,570
44,59,33120,480
56,22,33600,480
60,25,33600,480
51,22,33600,480
56,22,34080,480
60,25,34080,480
51,22,34080,480
45,37,34560,480
53,31,35040,480
63,36,35040,480
60,31,35040,480
63,30,35520,480
60,27,35520,480
53,27,35520,480
46,37,36000,480
58,31,36480,480
61,36,36480,480
53,31,36480,480
61,30,36960,480
58,27,36960,480
53,27,36960,480
47,42,37440,480
55,33,37920,480
62,33,37920,480
65,37,37920,480
65,31,38400,480
62,28,38400,480
55,28,38400,480
48,38,38880,480
55,33,39360,480
64,37,39360,480
60,33,39360,480
64,31,39840,480
60,28,39840,480
55,28,39840,480
48,44,40320,480
56,37,40800,480
62,42,40800,480
60,37,40800,480
62,36,41280,480
60,31,41280,480
56,31,41280,480
48,45,41760,480
55,26,42240,480
60,26,42240,480
64,29,42240,480
60,35,42720,480
64,38,42720,480
55,35,42720,480
48,46,43200,480
53,39,43680,480
56,39,43680,480
62,45,43680,480
53,29,44160,480
62,34,44160,480
56,29,44160,480
48,46,44640,480
55,27,45120,480
60,30,45120,480
60,42,45600,480
55,37,45600,480
48,45,46080,480
60,39,46560,480
62,45,46560,480
56,39,46560,480
62,39,47040,480
60,35,47040,480
56,35,47040,480
48,44,47520,480
60,35,48000,480
64,38,48000,480
55,35,48000,480
60,38,48480,480
64,43,48480,480
55,38,48480,480
48,44,48960,480
53,35,49440,480
62,39,49440,480
56,35,49440,480
62,36,49920,480
56,31,49920,480
53,31,49920,480
48,44,50400,480
60,29,50880,480
64,34,50880,480
55,29,50880,480
48,44,51840,480
55,29,52320,480
64,34,52320,480
60,29,52320,480
48,44,53280,480
60,29,53760,480
64,34,53760,480
55,29,53760,480
58,44,56160,480
61,33,56640,480
65,37,56640,480
61,34,57120,480
65,38,57120,480
56,46,57600,480
65,38,58080,480
61,34,58080,480
58,34,58080,480
65,39,58560,480
61,35,58560,480
58,35,58560,480
55,49,59040,480
62,36,59520,480
59,36,59520,480
65,40,59520,480
65,41,60000,480
62,36,60000,480
59,36,60000,480
48,55,60480,480
67,44,60960,480
60,44,60960,480
55,44,60960,480
60,49,61440,480
55,49,61440,480
67,49,61440,480
53,49,61920,480
65,40,62400,480
60,36,62400,480
57,36,62400,480
65,41,62880,480
60,36,62880,480
57,36,62880,480
46,52,63360,480
61,39,63840,480
58,39,63840,480
65,39,63840,480
61,44,64320,480
58,44,64320,480
65,44,64320,480
49,48,64800,480
65,39,65280,480
58,39,65280,480
61,39,65280,480
65,39,65760,480
58,39,65760,480
61,39,65760,480
51,48,66240,480
61,35,66720,480
63,39,66720,480
58,35,66720,480
61,36,67200,480
63,40,67200,480
58,36,67200,480
58,45,67680,480
65,38,68160,480
61,34,68160,480
61,35,68640,480
65,39,68640,480
56,48,69120,480
61,36,69600,480
58,36,69600,480
65,40,69600,480
61,37,70080,480
58,37,70080,480
65,41,70080,480
55,52,70560,480
65,43,71040,480
59,39,71040,480
62,39,71040,480
62,39,71520,480
59,39,71520,480
65,44,71520,480
48,58,72000,480
60,49,72480,480
55,49,72480,480
67,49,72480,480
67,49,72960,480
60,49,72960,480
55,49,72960,480
53,49,73440,480
60,36,73920,480
57,36,73920,480
65,40,73920,480
65,41,74400,480
60,36,74400,480
57,36,74400,480
46,52,74880,480
61,39,75360,480
58,39,75360,480
65,39,75360,480
61,44,75840,480
58,44,75840,480
65,44,75840,480
49,48,76320,480
65,39,76800,480
58,39,76800,480
61,39,76800,480
61,39,77280,480
58,39,77280,480
65,39,77280,480
51,45,77760,480
61,37,78240,480
58,37,78240,480
63,37,78240,480
63,37,78720,480
58,37,78720,480
61,37,78720,480
44,37,79200,480
51,27,79680,480
56,27,79680,480
60,32,79680,480
51,24,80160,480
60,27,80160,480
56,24,80160,480
39,44,80640,480
51,19,81120,480
56,19,81120,480
60,22,81120,480
51,26,81600,480
56,26,81600,480
60,29,81600,480
46,39,82080,480
51,30,82560,480
61,34,82560,480
55,30,82560,480
51,22,83040,480
61,25,83040,480
55,22,83040,480
39,39,83520,480
61,23,84000,480
51,20,84000,480
55,20,84000,480
61,32,84480,480
51,27,84480,480
55,27,84480,480
44,51,84960,480
51,33,85440,480
56,33,85440,480
60,36,85440,480
51,27,85920,480
60,33,85920,480
56,27,85920,480
39,59,86400,480
54,27,86880,480
56,27,86880,480
60,32,86880,480
54,34,87360,480
56,34,87360,480
60,37,87360,480
44,52,87840,330
53,31,88170,480
56,37,88200,450
59,44,88230,420
53,33,88650,630
56,40,88680,600
59,45,88710,570
44,57,89280,480
51,22,89760,480
56,22,89760,480
60,25,89760,480
51,22,90240,480
56,22,90240,480
60,25,90240,480
45,37,90720,480
53,31,91200,480
60,31,91200,480
63,36,91200,480
53,27,91680,480
63,30,91680,480
60,27,91680,480
46,37,92160,480
53,31,92640,480
58,31,92640,480
61,36,92640,480
53,27,93120,480
61,30,93120,480
58,27,93120,480
43,37,93600,480
51,31,94080,480
58,31,94080,480
61,36,94080,480
51,27,94560,480
61,30,94560,480
58,27,94560,480
44,37,95040,480
51,31,95520,480
56,31,95520,480
60,36,95520,480
51,27,96000,480
60,30,96000,480
56,27,96000,480
42,37,96480,480
54,31,96960,480
56,36,96960,480
56,30,97440,480
54,27,97440,480
41,44,97920,480
53,25,98400,480
56,28,98400,480
53,29,98880,480
56,33,98880,480
40,37,99360,480
52,31,99840,480
56,36,99840,480
52,27,100320,480
56,30,100320,480
39,37,100800,480
51,29,101280,480
58,34,101280,480
58,28,101760,480
51,25,101760,480
44,37,102240,480
51,27,102720,480
56,27,102720,480
60,32,102720,480
51,24,103200,480
60,27,103200,480
56,24,103200,480
39,44,103680,480
51,19,104160,480
56,19,104160,480
60,22,104160,480
51,26,104640,480
56,26,104640,480
60,29,104640,480
46,39,105120,480
51,30,105600,480
61,34,105600,480
55,30,105600,480
51,22,106080,480
61,25,106080,480
55,22,106080,480
39,39,106560,480
61,23,107040,480
51,20,107040,480
55,20,107040,480
61,32,107520,480
51,27,107520,480
55,27,107520,480
44,38,108000,480
51,30,108480,480
56,30,108480,480
60,34,108480,480
51,26,108960,480
60,30,108960,480
56,26,108960,480
39,55,109440,480
54,27,109920,480
56,27,109920,480
60,32,109920,480
54,34,110400,480
56,34,110400,480
60,37,110400,480
44,57,110880,330
53,29,111210,480
56,36,111240,450
59,44,111270,420
53,33,111690,630
56,39,111720,600
59,45,111750,570
44,63,112320,480
51,22,112800,480
56,22,112800,480
60,25,112800,480
51,22,113280,480
56,22,113280,480
60,25,113280,480
45,37,113760,480
53,31,114240,480
60,31,114240,480
63,36,114240,480
53,27,114720,480
63,30,114720,480
60,27,114720,480
46,37,115200,480
53,31,115680,480
58,31,115680,480
61,36,115680,480
53,27,116160,480
61,30,116160,480
58,27,116160,480
47,42,116640,480
65,37,117120,480
55,33,117120,480
62,33,117120,480
55,28,117600,480
65,31,117600,480
62,28,117600,480
48,38,118080,480
55,33,118560,480
60,33,118560,480
64,37,118560,480
55,28,119040,480
64,31,119040,480
60,28,119040,480
49,45,119520,480
65,39,120000,480
58,35,120000,480
61,35,120000,480
58,29,120480,480
65,34,120480,480
61,29,120480,480
50,40,120960,480
56,35,121440,480
59,35,121440,480
65,39,121440,480
56,29,121920,480
65,34,121920,480
59,29,121920,480
51,36,122400,480
55,30,122880,480
61,30,122880,480
63,35,122880,480
55,26,123360,480
63,29,123360,480
61,26,123360,480
44,31,123840,480
51,27,124320,480
56,27,124320,480
60,30,124320,480
51,23,124800,480
60,26,124800,480
56,23,124800,480
59,47,125280,720
52,39,125760,1440
58,44,126000,240
61,47,126240,240
58,42,126480,240
59,46,126720,1440
51,47,127200,1440
59,47,128160,1440
49,45,128640,1440
59,47,129600,1440
47,48,130080,960
59,47,131040,720
52,39,131520,1440
58,44,131760,240
61,47,132000,240
58,42,132240,240
59,46,132480,1440
51,47,132960,1440
59,47,133920,1440
49,45,134400,1440
59,47,135360,1440
47,48,135840,960
59,47,136800,720
52,39,137280,1440
58,44,137520,240
61,47,137760,240
58,42,138000,240
59,46,138240,1440
51,47,138720,1440
59,47,139680,1440
49,45,140160,1440
59,47,141120,1440
47,48,141600,960
59,47,142560,720
52,39,143040,1440
58,44,143280,240
61,47,143520,240
58,42,143760,240
59,46,144000,1440
51,47,144480,1440
58,47,145440,1440
51,45,145920,960
44,51,146880,480
51,36,147360,480
56,36,147360,480
59,42,147360,480
54,57,148320,480
61,46,148800,960
57,46,148800,960
66,52,148800,960
52,57,149760,480
57,45,150240,960
61,51,150240,960
51,57,151200,720
49,53,151920,240
52,58,152160,240
51,53,152400,240
49,56,152640,120
48,52,153120,120
47,52,153600,120
46,52,154080,480
61,44,154560,960
52,39,154560,960
54,39,154560,960
45,50,155520,480
51,34,156000,960
54,34,156000,960
59,39,156000,960
44,56,156960,720
43,51,157669,240
45,57,157920,240
44,52,158149,240
49,56,158400,480
47,53,158880,480
40,53,159360,480
54,57,159840,480
61,46,160320,960
57,46,160320,960
66,52,160320,960
52,57,161280,480
57,45,161760,960
61,51,161760,960
51,57,162720,720
49,53,163440,240
52,58,163680,240
51,53,163920,240
49,56,164160,120
48,52,164640,120
47,52,165120,120
46,52,165600,480
61,44,166080,960
52,39,166080,960
54,39,166080,960
45,50,167040,480
51,34,167520,960
54,34,167520,960
59,39,167520,960
44,56,168480,720
43,51,169189,240
45,57,169440,240
44,52,169669,240
51,56,169920,120
49,52,170400,120
47,52,170880,120
59,47,171360,720
52,39,171840,1440
58,44,172080,240
61,47,172320,240
58,42,172560,240
59,46,172800,1440
51,47,173280,1440
59,47,174240,1440
49,45,174720,1440
59,47,175680,1440
47,48,176160,960
59,47,177120,720
52,39,177600,1440
58,44,177840,240
61,47,178080,240
58,42,178320,240
59,46,178560,1440
51,47,179040,1440
59,47,180000,1440
49,45,180480,1440
59,47,181440,1440
47,48,181920,960
59,47,182880,720
52,39,183360,1440
58,44,183600,240
61,47,183840,240
58,42,184080,240
59,46,184320,1440
51,47,184800,1440
59,47,185760,1440
49,45,186240,1440
59,47,187200,1440
47,48,187680,960
59,47,188640,720
52,39,189120,1440
58,44,189360,240
61,47,189600,240
58,42,189840,240
59,46,190080,1440
51,47,190560,1440
58,50,191520,1440
61,50,191520,1440
51,48,192000,1440
59,52,192960,1440
63,52,192960,1440
51,49,193440,1440
55,47,194400,1440
61,47,194400,1440
63,52,194400,1440
51,49,194880,1440
56,41,195840,1440
59,41,195840,1440
63,47,195840,1440
51,49,196320,960
59,44,197280,1440
63,44,197280,1440
68,49,197280,1440
51,51,197760,960
58,44,198720,1440
61,44,198720,1440
67,49,198720,1440
51,51,199200,960
55,41,200160,1440
61,41,200160,1440
63,47,200160,1440
51,49,200640,1440
56,41,201600,1440
59,41,201600,1440
63,47,201600,1440
51,49,202080,960
59,44,203040,1440
63,44,203040,1440
68,49,203040,1440
51,51,203520,960
58,44,204480,1440
61,44,204480,1440
67,49,204480,1440
51,51,204960,960
58,44,205920,1440
61,44,205920,1440
67,49,205920,1440
51,51,206400,960
44,37,213120,480
51,27,213600,480
56,27,213600,480
60,32,213600,480
51,24,214080,480
60,27,214080,480
56,24,214080,480
39,44,214560,480
51,19,215040,480
56,19,215040,480
60,22,215040,480
51,26,215520,480
56,26,215520,480
60,29,215520,480
46,39,216000,480
51,30,216480,480
61,34,216480,480
55,30,216480,480
51,22,216960,480
61,25,216960,480
55,22,216960,480
39,39,217440,480
61,23,217920,480
51,20,217920,480
55,20,217920,480
61,32,218400,480
51,27,218400,480
55,27,218400,480
44,38,218880,480
51,30,219360,480
56,30,219360,480
60,34,219360,480
51,26,219840,480
60,30,219840,480
56,26,219840,480
39,55,220320,480
54,27,220800,480
56,27,220800,480
60,32,220800,480
54,34,221280,480
56,34,221280,480
60,37,221280,480
44,56,221760,330
53,31,222090,480
56,37,222120,450
59,44,222150,420
53,33,222570,630
56,40,222600,600
59,45,222630,570
44,60,223200,480
51,22,223680,480
56,22,223680,480
60,25,223680,480
51,22,224160,480
56,22,224160,480
60,25,224160,480
45,37,224640,480
53,31,225120,480
60,31,225120,480
63,36,225120,480
53,27,225600,480
63,30,225600,480
60,27,225600,480
46,37,226080,480
53,31,226560,480
58,31,226560,480
61,36,226560,480
53,27,227040,480
61,30,227040,480
58,27,227040,480
43,37,227520,480
51,31,228000,480
58,31,228000,480
61,36,228000,480
51,27,228480,480
61,30,228480,480
58,27,228480,480
44,37,228960,480
51,31,229440,480
56,31,229440,480
60,36,229440,480
51,27,229920,480
60,30,229920,480
56,27,229920,480
42,37,230400,480
54,31,230880,480
56,36,230880,480
56,30,231360,480
54,27,231360,480
41,44,231840,480
53,25,232320,480
56,28,232320,480
53,29,232800,480
56,33,232800,480
40,37,233280,480
52,31,233760,480
56,36,233760,480
52,27,234240,480
56,30,234240,480
39,37,234720,480
51,29,235200,480
58,34,235200,480
58,28,235680,480
51,25,235680,480
44,37,236160,480
51,27,236640,480
56,27,236640,480
60,32,236640,480
51,24,237120,480
60,27,237120,480
56,24,237120,480
39,44,237600,480
51,19,238080,480
56,19,238080,480
60,22,238080,480
51,26,238560,480
56,26,238560,480
60,29,238560,480
46,39,239040,480
51,30,239520,480
61,34,239520,480
55,30,239520,480
51,22,240000,480
61,25,240000,480
55,22,240000,480
39,39,240480,480
61,23,240960,480
51,20,240960,480
55,20,240960,480
61,32,241440,480
51,27,241440,480
55,27,241440,480
44,38,241920,480
51,30,242400,480
56,30,242400,480
60,34,242400,480
51,26,242880,480
60,30,242880,480
56,26,242880,480
39,55,243360,480
54,27,243840,480
56,27,243840,480
60,32,243840,480
54,34,244320,480
56,34,244320,480
60,37,244320,480
44,60,244800,330
53,29,245130,480
56,36,245160,450
59,44,245190,420
53,33,245610,630
56,39,245640,600
59,45,245670,570
44,63,246240,480
51,22,246720,480
56,22,246720,480
60,25,246720,480
51,22,247200,480
56,22,247200,480
60,25,247200,480
45,37,247680,480
53,31,248160,480
60,31,248160,480
63,36,248160,480
53,27,248640,480
63,30,248640,480
60,27,248640,480
46,37,249120,480
53,31,249600,480
58,31,249600,480
61,36,249600,480
53,27,250080,480
61,30,250080,480
58,27,250080,480
47,42,250560,480
65,37,251040,480
55,33,251040,480
62,33,251040,480
55,28,251520,480
65,31,251520,480
62,28,251520,480
48,38,252000,480
55,33,252480,480
60,33,252480,480
64,37,252480,480
55,28,252960,480
64,31,252960,480
60,28,252960,480
48,44,253440,480
56,37,253920,480
60,37,253920,480
62,42,253920,480
56,31,254400,480
62,36,254400,480
60,31,254400,480
48,45,254880,480
55,26,255360,480
60,26,255360,480
64,29,255360,480
55,35,255840,480
60,35,255840,480
64,38,255840,480
48,46,256320,480
53,39,256800,480
62,45,256800,480
56,39,256800,480
53,29,257280,480
62,34,257280,480
56,29,257280,480
48,46,257760,480
60,30,258240,480
55,27,258240,480
60,42,258720,480
55,37,258720,480
48,45,259200,480
56,39,259680,480
60,39,259680,480
62,45,259680,480
56,35,260160,480
62,39,260160,480
60,35,260160,480
48,44,260640,480
55,35,261120,480
60,35,261120,480
64,38,261120,480
55,40,261600,480
60,40,261600,480
64,46,261600,480
48,44,262080,480
53,37,262560,480
56,37,262560,480
62,42,262560,480
53,31,263040,480
62,36,263040,480
56,31,263040,480
48,44,263520,480
55,29,264000,480
60,29,264000,480
64,34,264000,480
48,44,264960,480
55,29,265440,480
60,29,265440,480
64,34,265440,480
48,44,266400,480
55,29,266880,480
60,29,266880,480
64,34,266880,480
58,44,269280,480
65,37,269760,480
61,33,269760,480
65,38,270240,480
61,34,270240,480
56,46,270720,480
65,38,271200,480
61,34,271200,480
58,34,271200,480
65,39,271680,480
61,35,271680,480
58,35,271680,480
55,49,272160,480
65,40,272640,480
62,36,272640,480
59,36,272640,480
65,41,273120,480
62,36,273120,480
59,36,273120,480
48,55,273600,480
67,44,274080,480
60,44,274080,480
55,44,274080,480
67,49,274560,480
60,49,274560,480
55,49,274560,480
53,49,275040,480
65,40,275520,480
60,36,275520,480
57,36,275520,480
65,41,276000,480
60,36,276000,480
57,36,276000,480
46,52,276480,480
65,39,276960,480
61,39,276960,480
58,39,276960,480
65,44,277440,480
61,44,277440,480
58,44,277440,480
49,48,277920,480
65,39,278400,480
61,39,278400,480
58,39,278400,480
65,39,278880,480
61,39,278880,480
58,39,278880,480
51,48,279360,480
58,35,279840,480
61,35,279840,480
63,39,279840,480
58,35,280320,480
61,35,280320,480
63,39,280320,480
58,44,280800,480
65,37,281280,480
61,33,281280,480
65,38,281760,480
61,34,281760,480
56,46,282240,480
65,38,282720,480
61,34,282720,480
58,34,282720,480
65,39,283200,480
61,35,283200,480
58,35,283200,480
55,49,283680,480
65,40,284160,480
62,36,284160,480
59,36,284160,480
65,41,284640,480
62,36,284640,480
59,36,284640,480
48,55,285120,480
67,49,285600,480
60,49,285600,480
55,49,285600,480
67,49,286080,480
60,49,286080,480
55,49,286080,480
53,49,286560,480
65,40,287040,480
60,36,287040,480
57,36,287040,480
65,41,287520,480
60,36,287520,480
57,36,287520,480
46,52,288000,480
65,39,288480,480
61,39,288480,480
58,39,288480,480
65,44,288960,480
61,44,288960,480
58,44,288960,480
49,48,289440,480
65,39,289920,480
61,39,289920,480
58,39,289920,480
65,39,290400,480
61,39,290400,480
58,39,290400,480
51,45,290880,480
63,37,291360,480
61,37,291360,480
58,37,291360,480
63,37,291840,480
61,37,291840,480
58,37,291840,480
44,37,292320,480
51,31,292800,480
56,31,292800,480
60,36,292800,480
51,27,293280,480
60,30,293280,480
56,27,293280,480
39,44,293760,480
51,22,294240,480
56,22,294240,480
60,25,294240,480
51,29,294720,480
56,29,294720,480
60,33,294720,480
46,39,295200,480
51,34,295680,480
61,38,295680,480
55,34,295680,480
51,25,296160,480
61,28,296160,480
55,25,296160,480
39,39,296640,480
61,26,297120,480
51,23,297120,480
55,23,297120,480
61,36,297600,480
51,31,297600,480
55,31,297600,480
44,38,298080,480
51,34,298560,480
56,34,298560,480
60,38,298560,480
51,29,299040,480
60,34,299040,480
56,29,299040,480
39,55,299520,480
54,31,300000,480
56,31,300000,480
60,36,300000,480
54,38,300480,480
56,38,300480,480
60,42,300480,480
44,55,300960,330
53,31,301290,480
56,37,301320,450
59,44,301350,420
53,33,301770,630
56,40,301800,600
59,45,301830,570
44,60,302400,480
51,27,302880,480
56,27,302880,480
60,30,302880,480
51,27,303360,480
56,27,303360,480
60,30,303360,480
45,37,303840,480
53,31,304320,480
60,31,304320,480
63,36,304320,480
53,27,304800,480
63,30,304800,480
60,27,304800,480
46,37,305280,480
53,31,305760,480
58,31,305760,480
61,36,305760,480
53,27,306240,480
61,30,306240,480
58,27,306240,480
43,37,306720,480
51,31,307200,480
58,31,307200,480
61,36,307200,480
51,27,307680,480
61,30,307680,480
58,27,307680,480
44,37,308160,480
51,31,308640,480
56,31,308640,480
60,36,308640,480
51,27,309120,480
60,30,309120,480
56,27,309120,480
42,37,309600,480
54,31,310080,480
56,36,310080,480
56,30,310560,480
54,27,310560,480
41,44,311040,480
53,25,311520,480
56,28,311520,480
53,29,312000,480
56,33,312000,480
40,37,312480,480
52,31,312960,480
56,36,312960,480
52,27,313440,480
56,30,313440,480
39,37,313920,480
51,29,314400,480
58,34,314400,480
58,28,314880,480
51,25,314880,480
44,37,315360,480
51,27,315840,480
56,27,315840,480
60,32,315840,480
51,24,316320,480
60,27,316320,480
56,24,316320,480
39,44,316800,480
51,19,317280,480
56,19,317280,480
60,22,317280,480
51,26,317760,480
56,26,317760,480
60,29,317760,480
46,39,318240,480
51,30,318720,480
61,34,318720,480
55,30,318720,480
51,22,319200,480
61,25,319200,480
55,22,319200,480
39,39,319680,480
61,23,320160,480
51,20,320160,480
55,20,320160,480
61,32,320640,480
51,27,320640,480
55,27,320640,480
44,38,321120,480
51,30,321600,480
56,30,321600,480
60,34,321600,480
51,26,322080,480
60,30,322080,480
56,26,322080,480
39,59,322560,480
54,27,323040,480
56,27,323040,480
60,32,323040,480
54,34,323520,480
56,34,323520,480
60,37,323520,480
44,60,324000,330
53,29,324330,480
56,36,324360,450
59,44,324390,420
53,33,324810,630
56,39,324840,600
59,45,324870,570
44,68,325440,480
51,22,325920,480
56,22,325920,480
60,25,325920,480
51,22,326400,480
56,22,326400,480
60,25,326400,480
45,37,326880,480
53,31,327360,480
60,31,327360,480
63,36,327360,480
53,27,327840,480
63,30,327840,480
60,27,327840,480
46,37,328320,480
53,31,328800,480
58,31,328800,480
61,36,328800,480
53,27,329280,480
61,30,329280,480
58,27,329280,480
47,42,329760,480
65,37,330240,480
55,33,330240,480
62,33,330240,480
55,28,330720,480
65,31,330720,480
62,28,330720,480
48,38,331200,480
55,33,331680,480
60,33,331680,480
64,37,331680,480
55,28,332160,480
64,31,332160,480
60,28,332160,480
49,45,332640,480
65,39,333120,480
58,35,333120,480
61,35,333120,480
58,29,333600,480
65,34,333600,480
61,29,333600,480
50,40,334080,480
56,35,334560,480
59,35,334560,480
65,39,334560,480
56,29,335040,480
65,34,335040,480
59,29,335040,480
51,36,335520,480
55,30,336000,480
61,30,336000,480
63,35,336000,480
55,26,336480,480
63,29,336480,480
61,26,336480,480
44,31,336960,480
51,27,337440,480
56,27,337440,480
60,30,337440,480
51,23,337920,480
60,26,337920,480
56,23,337920,480
44,37,338400,1440
50,31,338880,480
53,31,338880,480
56,36,338880,480
50,27,339360,480
56,30,339360,480
53,27,339360,480
44,44,339840,1440
50,22,340320,480
53,22,340320,480
56,25,340320,480
50,29,340800,480
53,29,340800,480
56,33,340800,480
39,53,341280,480
51,53,341280,480
41,58,341760,960
53,58,341760,960
43,62,342720,960
55,62,342720,960
44,57,343680,480
56,57,343680,480
50,63,344160,1440
52,37,344640,480
56,42,344640,480
56,36,345120,480
52,31,345120,480
50,48,345600,1440
52,24,346080,480
56,27,346080,480
52,31,346560,480
56,36,346560,480
39,58,347040,480
51,58,347040,480
41,63,347520,960
53,63,347520,960
43,69,348480,960
55,69,348480,960
44,63,349440,480
56,63,349440,480
56,63,349920,1440
62,41,350400,480
65,41,350400,480
68,47,350400,480
62,36,350880,480
68,40,350880,480
65,36,350880,480
56,55,351360,1440
62,27,351840,480
65,27,351840,480
68,30,351840,480
62,36,352320,480
65,36,352320,480
68,40,352320,480
51,68,352800,480
63,68,352800,480
53,73,353280,960
65,73,353280,960
55,79,354240,960
67,79,354240,960
56,74,355200,480
68,74,355200,480
62,71,355680,1440
64,43,356160,480
68,50,356160,480
68,42,356640,480
64,38,356640,480
62,61,357120,1440
64,30,357600,480
68,36,357600,480
64,40,358080,480
68,46,358080,480
51,76,358560,480
63,76,358560,480
53,84,359040,960
65,84,359040,960
55,91,360000,960
67,91,360000,960
56,84,360960,480
68,84,360960,480
56,89,361440,480
62,64,361920,960
64,64,361920,960
68,64,361920,960
71,72,361920,960
63,73,362880,480
68,73,362880,480
72,73,362880,480
44,80,364320,480
50,57,364800,960
52,57,364800,960
56,57,364800,960
59,65,364800,960
51,70,365760,480
56,70,365760,480
60,70,365760,480
44,65,367200,480
51,51,367680,480
56,51,367680,480
60,51,367680,480
44,58,368640,480
51,45,369120,480
56,45,369120,480
60,45,369120,480
44,53,370080,480
51,41,370560,480
56,41,370560,480
60,41,370560,480
44,49,371520,480
51,39,372000,480
56,39,372000,480
60,39,372000,480
44,49,372960,480
51,39,373440,1440
56,39,373440,1440
60,39,373440,1440
56,35,374880,120
60,35,374880,120
63,35,374880,120
56,35,375360,120
60,35,375360,120
63,35,375360,120
56,37,375840,120
60,37,375840,120
63,37,375840,120
68,35,376320,120
72,35,376320,120
75,35,376320,120
68,35,376800,120
72,35,376800,120
75,35,376800,120
68,39,377280,120
72,39,377280,120
75,39,377280,120
