note,velocity,position,duration
62,67,0,840
74,75,0,840
74,73,840,120
62,65,840,120
62,67,960,840
74,75,960,840
74,71,1800,120
62,63,1800,120
62,70,1920,840
74,78,1920,840
62,66,2760,120
74,74,2760,120
74,78,2880,840
62,70,2880,840
62,67,3720,120
74,75,3720,120
62,70,3840,480
74,78,3840,480
74,78,4320,960
62,70,4320,960
62,70,5280,960
74,78,5280,960
62,70,6240,720
74,78,6240,720
74,75,6960,480
62,67,6960,480
74,76,7440,120
62,68,7440,120
79,83,8160,960
67,83,8160,960
67,70,9120,720
79,78,9120,720
67,70,9840,480
79,78,9840,480
79,76,10320,120
67,68,10320,120
86,97,10560,120
74,87,10560,120
78,87,10560,120
86,88,10800,120
74,79,10800,120
79,79,10800,120
86,94,11040,240
74,84,11040,240
78,84,11040,240
59,72,11520,640
67,80,11520,640
59,67,12160,120
67,75,12160,120
67,75,12320,120
59,67,12320,120
67,81,12480,640
59,72,12480,640
67,75,13120,120
59,67,13120,120
59,66,13280,120
67,74,13280,120
59,72,13440,720
67,80,13440,720
67,66,14160,120
71,74,14160,120
69,72,14400,120
72,80,14400,120
67,66,14640,120
71,74,14640,120
69,72,14880,120
72,80,14880,120
62,71,15120,120
69,79,15120,120
74,80,15360,640
71,72,15360,640
74,75,16000,120
71,67,16000,120
71,67,16160,120
74,75,16160,120
71,72,16320,640
74,81,16320,640
74,75,16960,120
71,67,16960,120
71,66,17120,120
74,74,17120,120
72,72,17280,120
76,80,17280,120
71,69,17520,120
74,77,17520,120
69,69,17760,120
72,77,17760,120
68,75,18000,120
64,67,18000,120
71,75,18000,120
69,82,18240,120
64,73,18240,120
64,69,18480,120
68,69,18480,120
71,77,18480,120
64,67,18720,120
69,73,18720,120
72,82,18720,120
74,64,19200,120
78,72,19200,120
76,66,19440,120
73,59,19440,120
74,71,19680,120
71,63,19680,120
70,67,19920,120
73,67,19920,120
66,60,19920,120
66,62,20160,120
71,69,20160,120
66,57,20400,120
70,64,20400,120
73,64,20400,120
66,60,20640,120
71,67,20640,120
74,67,20640,120
76,64,21120,120
80,72,21120,120
78,66,21360,120
75,59,21360,120
73,63,21600,120
76,71,21600,120
68,60,21840,120
72,67,21840,120
75,67,21840,120
68,62,22080,120
73,69,22080,120
72,64,22320,120
68,57,22320,120
75,64,22320,120
73,67,22560,120
76,67,22560,120
68,60,22560,120
78,54,23040,240
81,61,23040,240
76,49,23280,240
79,55,23280,240
78,60,23520,240
74,54,23520,240
69,50,23760,240
76,56,23760,240
78,54,24000,240
81,61,24000,240
79,55,24240,240
76,49,24240,240
74,54,24480,240
78,60,24480,240
69,52,24720,240
76,58,24720,240
81,62,24960,240
78,55,24960,240
76,51,25200,240
79,57,25200,240
74,56,25440,240
78,63,25440,240
76,59,25680,240
69,53,25680,240
78,56,25920,240
81,63,25920,240
79,59,26160,240
76,53,26160,240
74,56,26400,240
78,63,26400,240
69,54,26640,240
76,61,26640,240
86,69,26880,240
83,62,26880,240
81,56,27120,240
84,63,27120,240
79,61,27360,240
83,68,27360,240
81,63,27600,240
74,56,27600,240
83,63,27840,240
86,71,27840,240
81,57,28080,240
84,64,28080,240
83,69,28320,240
79,62,28320,240
81,66,28560,240
74,59,28560,240
86,72,28800,240
83,64,28800,240
81,58,29040,240
84,65,29040,240
79,63,29280,240
83,71,29280,240
81,68,29520,240
74,61,29520,240
83,65,29760,240
86,73,29760,240
81,61,30000,240
84,68,30000,240
83,72,30240,240
79,64,30240,240
74,70,30480,240
81,70,30480,240
67,82,30720,640
71,82,30720,640
79,92,30720,640
67,77,31360,120
71,77,31360,120
79,86,31360,120
67,77,31520,120
79,86,31520,120
71,77,31520,120
79,93,31680,640
71,83,31680,640
67,83,31680,640
67,77,32320,120
71,77,32320,120
79,86,32320,120
67,76,32480,120
71,76,32480,120
79,85,32480,120
67,82,32640,720
71,82,32640,720
79,92,32640,720
71,73,33360,120
83,82,33360,120
79,82,33360,120
72,78,33600,120
81,87,33600,120
84,87,33600,120
71,76,33840,120
79,85,33840,120
83,85,33840,120
72,78,34080,120
84,87,34080,120
81,87,34080,120
69,72,34320,120
81,81,34320,120
74,81,34320,120
86,101,34560,640
74,90,34560,640
83,101,34560,640
83,94,35200,120
74,84,35200,120
86,94,35200,120
83,94,35360,120
74,84,35360,120
86,94,35360,120
83,102,35520,640
74,91,35520,640
86,102,35520,640
83,94,36160,120
74,84,36160,120
86,94,36160,120
83,93,36320,120
74,83,36320,120
86,93,36320,120
88,93,36480,120
76,83,36480,120
84,93,36480,120
83,86,36720,120
74,77,36720,120
86,86,36720,120
81,91,36960,120
84,91,36960,120
72,81,36960,120
79,85,37200,120
71,76,37200,120
74,85,37200,120
83,85,37200,120
74,84,37440,120
81,94,37440,120
78,94,37440,120
69,84,37440,120
71,80,37680,120
83,89,37680,120
74,80,37680,120
79,89,37680,120
78,94,37920,120
69,77,37920,120
74,77,37920,120
81,94,37920,120
71,82,38400,640
67,82,38400,640
79,92,38400,640
71,77,39040,160
67,77,39040,160
79,86,39040,160
71,77,39200,160
79,86,39200,160
67,77,39200,160
79,93,39360,640
67,83,39360,640
71,83,39360,640
79,86,40000,160
67,77,40000,160
71,77,40000,160
79,85,40160,160
67,76,40160,160
71,76,40160,160
79,92,40320,720
67,82,40320,720
71,82,40320,720
79,82,41040,240
71,73,41040,240
83,82,41040,240
84,87,41280,240
72,78,41280,240
81,87,41280,240
83,85,41520,240
71,76,41520,240
80,85,41520,240
81,87,41760,120
84,87,41760,120
72,78,41760,120
74,81,42000,120
69,72,42000,120
81,81,42000,120
79,87,42240,960
74,82,42240,720
86,96,42240,720
84,82,42960,240
72,73,42960,240
83,87,43200,240
71,78,43200,240
79,87,43200,240
84,85,43440,240
72,76,43440,240
81,85,43440,240
83,87,43680,120
74,78,43680,120
86,87,43680,120
83,81,43920,120
71,72,43920,120
79,81,43920,120
91,96,44160,720
79,82,44160,720
84,87,44160,720
90,77,44880,120
84,69,44880,120
78,69,44880,120
76,74,45120,120
84,82,45120,120
88,82,45120,120
78,72,45360,120
86,80,45360,120
90,80,45360,120
76,74,45600,120
88,82,45600,120
84,82,45600,120
74,68,45840,120
83,76,45840,120
86,76,45840,120
72,73,46080,120
81,81,46080,120
84,81,46080,120
83,74,46320,120
86,74,46320,120
74,66,46320,120
72,71,46560,120
81,79,46560,120
84,79,46560,120
79,72,46800,120
83,72,46800,120
71,64,46800,120
78,77,47040,120
69,69,47040,120
81,77,47040,120
79,74,47280,120
71,66,47280,120
83,74,47280,120
81,77,47520,120
69,69,47520,120
78,77,47520,120
76,73,47760,120
67,65,47760,120
79,73,47760,120
74,81,48000,120
66,73,48000,120
78,81,48000,120
79,74,48240,120
76,74,48240,120
67,66,48240,120
74,79,48480,120
66,71,48480,120
78,79,48480,120
64,64,48720,120
72,72,48720,120
76,72,48720,120
71,73,48960,120
74,73,48960,120
62,65,48960,120
72,70,49200,120
64,62,49200,120
76,70,49200,120
71,73,49440,120
62,65,49440,120
74,73,49440,120
72,69,49680,120
64,61,49680,120
69,69,49680,120
67,65,49920,640
71,73,49920,640
59,61,50560,160
67,61,50560,160
71,68,50560,160
59,61,50720,160
67,61,50720,160
71,68,50720,160
59,62,50880,640
67,62,50880,640
71,70,50880,640
59,61,51520,160
71,68,51520,160
67,61,51520,160
71,68,51680,160
67,60,51680,160
59,60,51680,160
59,61,51840,480
67,61,51840,480
71,69,51840,480
62,58,52560,120
74,65,52560,120
67,65,52560,120
67,62,52800,120
76,69,52800,120
64,62,52800,120
73,69,52800,120
62,60,53040,120
74,68,53040,120
64,62,53280,120
76,69,53280,120
72,69,53280,120
66,57,53520,120
78,64,53520,120
71,62,53760,240
67,62,53760,240
79,69,53760,240
79,67,54400,160
71,67,54400,160
83,74,54400,160
79,67,54560,160
83,74,54560,160
71,67,54560,160
83,77,54720,640
71,68,54720,640
79,68,54720,640
83,74,55360,160
71,67,55360,160
79,67,55360,160
83,74,55520,160
71,66,55520,160
79,66,55520,160
83,75,55680,480
71,67,55680,480
79,67,55680,480
79,74,56400,120
74,66,56400,120
86,74,56400,120
85,78,56640,120
88,78,56640,120
76,71,56640,120
79,71,56640,120
86,77,56880,120
74,69,56880,120
84,78,57120,240
76,71,57120,240
88,78,57120,240
84,65,57360,240
90,73,57360,240
86,73,57360,240
78,65,57360,240
83,71,57600,240
91,78,57600,240
79,71,57600,240
86,71,57600,240
86,76,58080,120
74,68,58080,120
76,68,58240,120
88,76,58240,120
78,69,58400,120
90,77,58400,120
91,78,58560,120
79,70,58560,120
74,68,59040,120
86,76,59040,120
76,68,59200,120
88,76,59200,120
90,77,59360,120
78,69,59360,120
91,78,59520,120
79,70,59520,120
86,76,60000,120
74,68,60000,120
76,68,60160,120
88,76,60160,120
78,69,60320,120
90,77,60320,120
91,78,60480,240
79,70,60480,240
67,55,60960,80
69,55,61120,80
70,51,61280,80
71,55,61440,960
72,55,62400,480
67,55,62880,80
69,55,63040,80
71,51,63200,80
72,55,63360,840
76,55,64200,120
71,55,64320,480
54,55,64800,80
55,55,64960,80
57,51,65120,80
59,55,65280,960
66,39,65760,240
63,35,65760,240
60,55,66240,480
67,39,66720,240
64,39,66720,240
55,55,66720,80
57,55,66880,80
59,51,67040,80
60,55,67200,840
72,39,67680,240
69,39,67680,240
64,55,68040,120
59,55,68160,480
63,39,68640,240
66,55,68640,80
68,55,68800,80
70,51,68960,80
71,55,69120,960
72,55,70080,480
67,55,70560,80
69,55,70720,80
71,51,70880,80
72,55,71040,840
76,55,71880,120
71,55,72000,480
54,55,72480,80
55,55,72640,80
57,51,72800,80
59,55,72960,960
63,39,73440,240
66,39,73440,240
60,55,73920,480
64,39,74400,240
67,39,74400,240
55,55,74400,80
57,55,74560,80
59,51,74720,80
60,55,74880,840
69,39,75360,240
72,39,75360,240
64,55,75720,120
59,55,75840,480
71,42,76320,240
63,59,76320,80
64,59,76480,80
65,57,76640,80
66,62,76800,960
61,46,77280,480
60,64,77760,240
68,67,77760,240
80,68,78240,480
68,61,78240,480
67,60,78720,480
79,67,78720,480
66,60,79200,480
68,60,79200,480
78,67,79200,480
64,54,79680,240
68,54,79680,240
76,67,79680,240
64,61,80160,160
66,61,80320,160
67,59,80480,160
68,65,80640,960
63,48,81120,480
70,69,81600,240
62,67,81600,240
82,70,82080,480
70,63,82080,480
81,70,82560,480
69,63,82560,480
70,59,83040,480
68,59,83040,480
80,66,83040,480
70,56,83520,240
66,56,83520,240
78,70,83520,240
70,59,84000,80
72,57,84160,80
74,57,84320,80
75,60,84480,80
74,57,84640,80
75,57,84800,80
82,60,84960,80
81,56,85120,80
82,56,85280,80
78,60,85440,80
77,57,85600,80
78,57,85760,80
74,61,85920,80
73,59,86080,80
74,59,86240,80
75,60,86400,80
74,58,86560,80
75,58,86720,80
70,59,86880,80
69,57,87040,80
70,57,87200,80
75,60,87360,80
74,57,87520,80
75,58,87680,80
82,71,88480,160
81,66,88640,160
82,71,88800,160
70,65,88960,160
82,67,89120,160
82,71,89280,160
70,67,89440,160
82,67,89600,160
82,71,90400,160
81,66,90560,160
82,71,90720,160
70,65,90880,160
82,67,91040,160
82,71,91200,160
70,67,91360,160
82,67,91520,160
71,59,91680,80
73,57,91840,80
75,57,92000,80
76,60,92160,80
75,57,92320,80
76,57,92480,80
83,60,92640,80
82,56,92800,80
83,56,92960,80
79,60,93120,80
78,57,93280,80
79,57,93440,80
75,61,93600,80
74,59,93760,80
75,59,93920,80
76,60,94080,80
75,58,94240,80
76,58,94400,80
71,59,94560,80
70,57,94720,80
71,57,94880,80
76,60,95040,80
75,57,95200,80
76,58,95360,80
83,71,96160,160
82,66,96320,160
83,71,96480,160
71,65,96640,160
83,67,96800,160
83,71,96960,160
71,67,97120,160
83,67,97280,160
83,71,98080,160
82,66,98240,160
83,71,98400,160
71,65,98560,160
83,67,98720,160
83,71,98880,160
71,67,99040,160
83,67,99200,160
84,60,99360,160
72,56,99520,160
84,56,99680,160
84,62,99840,160
72,59,100000,160
84,58,100160,160
86,64,100320,160
74,59,100480,160
86,62,100640,160
86,67,100800,160
74,62,100960,160
86,63,101120,160
88,69,101280,160
76,65,101440,160
88,67,101600,160
88,71,101760,160
76,67,101920,160
88,66,102080,160
90,72,102240,160
78,68,102400,160
90,68,102560,160
90,76,102720,160
78,69,102880,160
90,72,103040,160
90,78,103200,160
78,71,103360,160
90,73,103520,160
90,80,103680,160
78,73,103840,160
90,76,104000,160
90,80,104160,160
78,73,104320,160
90,76,104480,160
90,80,104640,160
78,73,104800,160
90,76,104960,160
78,78,105120,160
66,71,105280,160
78,73,105440,160
78,80,105600,160
66,73,105760,160
78,78,105920,160
78,84,106080,160
66,77,106240,160
78,82,106400,160
78,88,106560,160
66,81,106720,160
78,85,106880,160
78,92,107040,160
66,84,107200,160
78,89,107360,160
78,79,107520,120
71,79,107520,120
75,79,107520,120
83,94,107520,120
75,71,107680,120
83,84,107680,120
78,71,107680,120
71,71,107680,120
71,71,107840,120
83,84,107840,120
75,71,107840,120
78,71,107840,120
78,79,108000,240
71,79,108000,240
75,79,108000,240
83,94,108000,240
75,79,108480,120
83,94,108480,120
78,79,108480,120
71,79,108480,120
71,71,108640,120
83,84,108640,120
75,71,108640,120
78,71,108640,120
71,71,108800,120
83,84,108800,120
75,71,108800,120
78,71,108800,120
78,79,108960,240
83,94,108960,240
75,79,108960,240
71,79,108960,240
75,79,109440,120
71,79,109440,120
78,79,109440,120
83,94,109440,120
71,71,109600,120
83,84,109600,120
75,71,109600,120
78,71,109600,120
78,71,109760,120
83,84,109760,120
75,71,109760,120
71,71,109760,120
75,79,109920,240
71,79,109920,240
83,94,109920,240
78,79,109920,240
75,79,110400,120
83,94,110400,120
78,79,110400,120
71,79,110400,120
71,71,110560,120
83,84,110560,120
75,71,110560,120
78,71,110560,120
78,71,110720,120
71,71,110720,120
75,71,110720,120
83,84,110720,120
75,79,110880,240
83,94,110880,240
78,79,110880,240
71,79,110880,240
74,79,111360,160
86,94,111360,160
86,84,111520,160
74,71,111520,160
74,71,111680,160
86,84,111680,160
74,79,111840,240
86,94,111840,240
86,94,112320,160
74,79,112320,160
74,71,112480,160
86,84,112480,160
86,84,112640,160
74,71,112640,160
74,79,112800,240
86,94,112800,240
62,71,113280,160
74,84,113280,160
74,75,113440,160
62,63,113440,160
62,63,113600,160
74,75,113600,160
62,71,113760,240
74,84,113760,240
74,84,114240,160
62,71,114240,160
62,63,114400,160
74,75,114400,160
62,63,114560,160
74,75,114560,160
74,84,114720,240
62,71,114720,240
62,70,115200,160
74,78,115200,160
62,65,115360,160
74,73,115360,160
62,65,115520,160
74,73,115520,160
62,70,115680,640
74,78,115680,640
62,64,116320,120
74,72,116320,120
62,64,116480,120
74,72,116480,120
62,70,116640,640
74,78,116640,640
62,64,117280,120
74,72,117280,120
62,64,117440,120
74,72,117440,120
62,70,117600,720
74,78,117600,720
62,67,118320,480
74,75,118320,480
62,68,118800,120
74,76,118800,120
67,67,119200,120
79,75,119200,120
67,67,119360,120
79,75,119360,120
67,74,119520,640
79,83,119520,640
67,67,120160,120
79,75,120160,120
67,67,120320,120
79,75,120320,120
67,70,120480,720
79,78,120480,720
67,70,121200,480
79,78,121200,480
67,68,121680,120
79,76,121680,120
74,87,121920,120
78,87,121920,120
86,97,121920,120
74,79,122160,120
79,79,122160,120
86,88,122160,120
74,84,122400,240
78,84,122400,240
86,94,122400,240
59,72,122880,640
67,80,122880,640
59,67,123520,120
67,75,123520,120
59,67,123680,120
67,75,123680,120
59,72,123840,640
67,81,123840,640
59,67,124480,120
67,75,124480,120
59,66,124640,120
67,74,124640,120
59,72,124800,720
67,80,124800,720
71,74,125520,120
67,66,125520,120
69,72,125760,120
72,80,125760,120
67,66,126000,120
71,74,126000,120
72,80,126240,120
69,72,126240,120
62,71,126480,120
69,79,126480,120
74,80,126720,640
71,72,126720,640
71,67,127360,120
74,75,127360,120
71,67,127520,120
74,75,127520,120
71,72,127680,640
74,81,127680,640
71,67,128320,120
74,75,128320,120
71,66,128480,120
74,74,128480,120
76,80,128640,120
72,72,128640,120
71,69,128880,120
74,77,128880,120
69,69,129120,120
72,77,129120,120
64,67,129360,120
68,75,129360,120
71,75,129360,120
64,73,129600,120
69,82,129600,120
64,69,129840,120
68,69,129840,120
71,77,129840,120
64,67,130080,120
69,73,130080,120
72,82,130080,120
74,64,130560,120
78,72,130560,120
73,59,130800,120
76,66,130800,120
71,63,131040,120
74,71,131040,120
66,60,131280,120
70,67,131280,120
73,67,131280,120
66,62,131520,120
71,69,131520,120
66,57,131760,120
70,64,131760,120
73,64,131760,120
66,60,132000,120
71,67,132000,120
74,67,132000,120
76,64,132480,120
80,72,132480,120
75,59,132720,120
78,66,132720,120
73,63,132960,120
76,71,132960,120
68,60,133200,120
72,67,133200,120
75,67,133200,120
68,62,133440,120
73,69,133440,120
68,57,133680,120
72,64,133680,120
75,64,133680,120
68,60,133920,120
73,67,133920,120
76,67,133920,120
78,54,134400,240
81,61,134400,240
76,49,134640,240
79,55,134640,240
74,54,134880,240
78,60,134880,240
69,50,135120,240
76,56,135120,240
78,54,135360,240
81,61,135360,240
76,49,135600,240
79,55,135600,240
74,54,135840,240
78,60,135840,240
69,52,136080,240
76,58,136080,240
78,55,136320,240
81,62,136320,240
76,51,136560,240
79,57,136560,240
74,56,136800,240
78,63,136800,240
69,53,137040,240
76,59,137040,240
78,56,137280,240
81,63,137280,240
76,53,137520,240
79,59,137520,240
74,56,137760,240
78,63,137760,240
69,54,138000,240
76,61,138000,240
83,62,138240,240
86,69,138240,240
81,56,138480,240
84,63,138480,240
79,61,138720,240
83,68,138720,240
74,56,138960,240
81,63,138960,240
83,63,139200,240
86,71,139200,240
81,57,139440,240
84,64,139440,240
79,62,139680,240
83,69,139680,240
74,59,139920,240
81,66,139920,240
83,64,140160,240
86,72,140160,240
81,58,140400,240
84,65,140400,240
79,63,140640,240
83,71,140640,240
74,61,140880,240
81,68,140880,240
83,65,141120,240
86,73,141120,240
81,61,141360,240
84,68,141360,240
79,64,141600,240
83,72,141600,240
74,70,141840,240
81,70,141840,240
67,82,142080,640
71,82,142080,640
79,92,142080,640
67,77,142720,120
71,77,142720,120
79,86,142720,120
67,77,142880,120
71,77,142880,120
79,86,142880,120
67,83,143040,640
71,83,143040,640
79,93,143040,640
67,77,143680,120
71,77,143680,120
79,86,143680,120
67,76,143840,120
71,76,143840,120
79,85,143840,120
67,82,144000,720
71,82,144000,720
79,92,144000,720
71,73,144720,240
83,82,144720,240
79,82,144720,240
72,78,144960,240
81,87,144960,240
84,87,144960,240
71,76,145200,240
79,85,145200,240
83,85,145200,240
72,78,145440,240
84,87,145440,240
81,87,145440,240
69,72,145680,240
74,81,145680,240
81,81,145680,240
74,90,145920,640
86,101,145920,640
83,101,145920,640
74,84,146560,120
83,94,146560,120
86,94,146560,120
74,84,146720,120
83,94,146720,120
86,94,146720,120
74,91,146880,640
83,102,146880,640
86,102,146880,640
74,84,147520,120
83,94,147520,120
86,94,147520,120
74,83,147680,120
83,93,147680,120
86,93,147680,120
76,83,147840,120
88,93,147840,120
84,93,147840,120
74,77,148080,120
83,86,148080,120
86,86,148080,120
72,81,148320,120
81,91,148320,120
84,91,148320,120
71,76,148560,120
74,85,148560,120
79,85,148560,120
83,85,148560,120
69,84,148800,120
74,84,148800,120
78,94,148800,120
81,94,148800,120
71,80,149040,120
74,80,149040,120
79,89,149040,120
83,89,149040,120
69,77,149280,120
74,77,149280,120
78,94,149280,120
81,94,149280,120
67,82,149760,640
71,82,149760,640
79,92,149760,640
67,77,150400,120
71,77,150400,120
79,86,150400,120
67,77,150560,120
71,77,150560,120
79,86,150560,120
67,83,150720,640
71,83,150720,640
79,93,150720,640
67,77,151360,120
71,77,151360,120
79,86,151360,120
67,76,151520,120
71,76,151520,120
79,85,151520,120
67,82,151680,720
71,82,151680,720
79,92,151680,720
71,73,152400,240
83,82,152400,240
79,82,152400,240
72,78,152640,240
81,87,152640,240
84,87,152640,240
71,76,152880,240
80,85,152880,240
83,85,152880,240
72,78,153120,120
84,87,153120,120
81,87,153120,120
69,72,153360,120
74,81,153360,120
81,81,153360,120
74,82,153600,720
79,87,153600,960
86,96,153600,720
72,73,154320,240
84,82,154320,240
71,78,154560,240
79,87,154560,240
83,87,154560,240
72,76,154800,240
81,85,154800,240
84,85,154800,240
74,78,155040,120
86,87,155040,120
83,87,155040,120
71,72,155280,120
79,81,155280,120
83,81,155280,120
79,82,155520,720
84,87,155520,720
91,96,155520,720
84,69,156240,120
78,69,156240,120
90,77,156240,120
76,74,156480,120
84,82,156480,120
88,82,156480,120
78,72,156720,120
86,80,156720,120
90,80,156720,120
76,74,156960,120
88,82,156960,120
84,82,156960,120
74,68,157200,120
83,76,157200,120
86,76,157200,120
72,73,157440,120
81,81,157440,120
84,81,157440,120
83,74,157680,120
86,74,157680,120
74,66,157680,120
72,71,157920,120
81,79,157920,120
84,79,157920,120
79,72,158160,120
71,64,158160,120
83,72,158160,120
69,69,158400,120
78,77,158400,120
81,77,158400,120
71,66,158640,120
79,74,158640,120
83,74,158640,120
69,69,158880,120
81,77,158880,120
78,77,158880,120
67,65,159120,120
76,73,159120,120
79,73,159120,120
66,73,159360,120
74,81,159360,120
78,81,159360,120
76,74,159600,120
79,74,159600,120
67,66,159600,120
66,71,159840,120
74,79,159840,120
78,79,159840,120
72,72,160080,120
64,64,160080,120
76,72,160080,120
62,65,160320,120
71,73,160320,120
74,73,160320,120
64,62,160560,120
76,70,160560,120
72,70,160560,120
62,65,160800,120
74,73,160800,120
71,73,160800,120
64,61,161040,120
69,69,161040,120
72,69,161040,120
67,65,161280,640
71,73,161280,640
59,61,161920,120
67,61,161920,120
71,68,161920,120
59,61,162080,120
67,61,162080,120
71,68,162080,120
59,62,162240,640
67,62,162240,640
71,70,162240,640
59,61,162880,120
67,61,162880,120
71,68,162880,120
59,60,163040,120
67,60,163040,120
71,68,163040,120
59,61,163200,480
67,61,163200,480
71,69,163200,480
62,58,163920,240
74,65,163920,240
67,65,163920,240
67,62,164160,240
64,62,164160,240
73,69,164160,240
76,69,164160,240
62,60,164400,240
74,68,164400,240
64,62,164640,240
76,69,164640,240
72,69,164640,240
66,57,164880,240
78,64,164880,240
67,62,165120,240
71,62,165120,240
79,69,165120,240
71,67,165760,120
79,67,165760,120
83,74,165760,120
71,67,165920,120
79,67,165920,120
83,74,165920,120
71,68,166080,640
79,68,166080,640
83,77,166080,640
71,67,166720,120
79,67,166720,120
83,74,166720,120
71,66,166880,120
79,66,166880,120
83,74,166880,120
71,67,167040,480
79,67,167040,480
83,75,167040,480
74,72,167760,240
86,81,167760,240
79,81,167760,240
79,78,168000,240
76,78,168000,240
85,85,168000,240
88,85,168000,240
74,75,168240,240
86,84,168240,240
76,78,168480,240
88,85,168480,240
84,85,168480,240
84,71,168720,240
86,80,168720,240
78,71,168720,240
90,80,168720,240
86,78,168960,240
79,78,168960,240
83,78,168960,240
91,85,168960,240
74,74,169440,120
86,83,169440,120
76,74,169600,120
88,83,169600,120
78,75,169760,120
90,84,169760,120
79,77,169920,240
91,85,169920,240
74,74,170400,120
86,83,170400,120
76,74,170560,120
88,83,170560,120
78,75,170720,120
90,84,170720,120
79,77,170880,240
91,85,170880,240
67,71,171360,240
71,71,171360,240
74,71,171360,240
79,79,171360,240
59,79,171840,960
62,79,171840,960
67,88,171840,960
55,68,3840,640
47,61,3840,640
47,56,4480,120
55,63,4480,120
55,63,4640,120
47,56,4640,120
47,62,4800,640
55,69,4800,640
47,56,5440,120
55,63,5440,120
55,62,5600,120
47,55,5600,120
47,61,5760,720
55,68,5760,720
59,62,6480,120
55,55,6480,120
57,61,6720,120
60,68,6720,120
59,62,6960,120
55,55,6960,120
60,68,7200,120
57,61,7200,120
50,60,7440,120
57,67,7440,120
59,61,7680,640
62,68,7680,640
62,63,8320,120
59,56,8320,120
59,56,8480,120
62,63,8480,120
59,62,8640,640
62,69,8640,640
62,63,9280,120
59,56,9280,120
59,55,9440,120
62,62,9440,120
64,68,9600,120
60,61,9600,120
59,54,9840,120
62,61,9840,120
57,58,10080,120
60,65,10080,120
55,53,10320,120
59,59,10320,120
57,79,10560,120
50,71,10560,120
59,74,10800,120
55,66,10800,120
50,71,11040,240
57,79,11040,240
51,64,12000,960
63,72,12000,960
50,63,12960,480
62,70,12960,480
63,72,13920,960
51,64,13920,960
50,62,14880,480
62,69,14880,480
67,68,15840,480
55,61,15840,480
66,72,16320,480
54,64,16320,480
65,69,16800,480
53,62,16800,480
52,64,17280,720
64,72,17280,720
50,54,18000,120
52,54,18000,120
62,60,18000,120
52,59,18240,120
60,66,18240,120
48,59,18240,120
52,51,18480,120
59,57,18480,120
47,51,18480,120
52,54,18720,120
57,60,18720,120
45,54,18720,120
55,55,18960,120
43,49,18960,120
54,60,19200,120
42,54,19200,120
52,51,19920,120
64,57,19920,120
50,54,20160,120
62,60,20160,120
49,50,20400,120
61,56,20400,120
47,53,20640,120
59,59,20640,120
45,50,20880,120
57,56,20880,120
56,60,21120,120
44,54,21120,120
54,51,21840,120
66,57,21840,120
56,54,22080,120
64,60,22080,120
52,54,22080,120
51,50,22320,120
63,56,22320,120
56,51,22320,120
49,53,22560,120
61,59,22560,120
56,53,22560,120
47,50,22800,120
59,56,22800,120
45,54,23040,480
57,60,23040,480
59,56,23520,480
57,56,23520,480
47,50,23520,480
57,60,24000,720
60,60,24000,720
48,54,24000,720
49,51,24720,240
61,57,24720,240
57,57,24720,240
45,55,24960,480
57,62,24960,480
59,58,25440,480
57,58,25440,480
47,52,25440,480
57,62,25920,720
60,62,25920,720
48,55,25920,720
49,54,26640,240
57,60,26640,240
61,60,26640,240
50,62,26880,480
62,69,26880,480
64,63,27360,480
62,63,27360,480
52,56,27360,480
62,69,27840,720
53,62,27840,720
65,69,27840,720
54,58,28560,240
62,65,28560,240
66,65,28560,240
62,71,28800,480
50,63,28800,480
64,66,29280,480
62,66,29280,480
52,59,29280,480
62,73,29760,720
65,73,29760,720
53,65,29760,720
54,61,30480,240
62,68,30480,240
66,68,30480,240
55,79,30720,480
55,71,31200,960
65,79,31200,960
53,71,31200,960
55,69,32160,960
52,69,32160,960
64,77,32160,960
51,71,33120,960
63,79,33120,960
55,71,33120,960
54,67,34080,480
62,75,34080,480
50,67,34080,480
50,74,34560,480
38,66,34560,480
52,74,35040,480
40,66,35040,480
50,74,35040,480
54,79,35520,480
42,71,35520,480
50,79,35520,480
50,75,36000,480
43,67,36000,480
55,75,36000,480
50,64,36720,120
55,72,36720,120
43,64,36720,120
50,66,36960,120
57,74,36960,120
45,66,36960,120
47,59,37200,120
59,66,37200,120
50,59,37200,120
57,78,37440,120
50,70,37440,120
62,78,37440,120
54,70,37440,120
55,65,37680,120
62,73,37680,120
59,73,37680,120
50,68,37920,120
57,76,37920,120
54,68,37920,120
62,76,37920,120
55,79,38400,480
65,79,38880,960
53,71,38880,960
55,71,38880,960
52,69,39840,960
64,77,39840,960
55,69,39840,960
51,71,40800,480
63,79,40800,480
55,71,40800,480
54,67,41280,720
62,75,41280,720
50,67,41280,720
48,61,42000,120
54,61,42000,120
60,68,42000,120
47,64,42240,240
55,72,42240,240
59,72,42240,240
50,64,42240,240
48,60,42480,240
60,67,42480,240
59,72,42720,240
47,64,42720,240
45,60,42960,240
57,67,42960,240
43,63,43200,720
55,71,43200,720
50,71,43200,960
53,67,43920,120
41,60,43920,120
40,64,44160,120
52,72,44160,120
54,67,44400,120
42,60,44400,120
40,64,44640,120
52,72,44640,120
38,63,44880,120
50,70,44880,120
48,74,45120,720
36,66,45120,720
38,65,45840,120
50,65,45840,120
39,70,46080,720
51,70,46080,720
40,64,46800,120
52,64,46800,120
42,71,47040,720
54,71,47040,720
55,65,47760,120
43,65,47760,120
45,70,48000,720
57,70,48000,720
46,64,48720,120
58,64,48720,120
47,67,48960,720
59,67,48960,720
48,60,49680,120
60,60,49680,120
62,63,49920,480
50,63,49920,480
63,63,50400,480
51,56,50400,480
50,63,50880,480
62,63,50880,480
51,55,51360,480
63,61,51360,480
62,63,51840,480
50,63,51840,480
47,56,52320,480
59,63,52320,480
46,53,52800,480
58,60,52800,480
45,48,53280,480
57,54,53280,480
43,54,53760,240
55,60,53760,240
51,58,54240,480
63,66,54240,480
62,66,54720,480
50,66,54720,480
51,57,55200,480
63,64,55200,480
62,66,55680,480
50,66,55680,480
47,58,56160,480
59,66,56160,480
46,55,56640,480
58,63,56640,480
45,50,57120,480
57,56,57120,480
43,56,57600,240
55,63,57600,240
47,53,58080,480
54,53,58080,480
62,59,58080,480
50,53,58080,480
55,56,58560,120
62,63,58560,120
59,56,58560,120
50,53,59040,480
54,53,59040,480
62,59,59040,480
47,53,59040,480
59,56,59520,120
62,63,59520,120
55,56,59520,120
47,53,60000,480
54,53,60000,480
62,59,60000,480
50,53,60000,480
55,56,60480,240
59,56,60480,240
62,63,60480,240
59,35,60960,240
62,39,60960,240
59,31,61920,240
63,35,61920,240
57,31,61920,240
60,31,62880,240
64,35,62880,240
55,31,62880,240
64,34,63840,240
60,30,63840,240
54,30,63840,240
57,30,63840,240
59,35,64800,240
63,39,64800,240
45,28,65760,240
57,32,65760,240
47,28,65760,240
48,27,66720,240
55,31,66720,240
43,27,66720,240
54,33,67680,240
48,29,67680,240
42,29,67680,240
54,31,68640,240
59,35,68640,240
47,31,68640,240
57,31,69600,240
59,31,69600,240
63,35,69600,240
55,31,70560,240
64,35,70560,240
60,31,70560,240
60,30,71520,240
57,30,71520,240
54,30,71520,240
64,34,71520,240
63,39,72480,240
59,35,72480,240
45,28,73440,240
47,28,73440,240
57,32,73440,240
43,27,74400,240
55,31,74400,240
48,27,74400,240
54,33,75360,240
42,29,75360,240
48,29,75360,240
54,33,76320,240
59,37,76320,240
47,33,76320,240
45,36,77280,480
54,41,77280,480
57,41,77280,480
44,44,77760,240
56,49,77760,240
44,57,78240,80
43,52,78400,80
44,52,78560,80
46,59,78720,80
44,53,78880,80
46,53,79040,80
48,59,79200,80
46,55,79360,80
48,55,79520,80
49,60,79680,240
56,39,80160,240
61,44,80160,240
49,39,80160,240
56,48,81120,480
59,48,81120,480
47,43,81120,480
46,45,81600,240
58,51,81600,240
46,61,82080,80
45,56,82240,80
46,56,82400,80
48,64,82560,80
46,57,82720,80
48,57,82880,80
50,64,83040,80
49,59,83200,80
50,59,83360,80
51,66,83520,240
58,37,84000,240
56,37,84000,240
68,41,84000,240
58,39,84480,240
54,39,84480,240
66,44,84480,240
62,40,84960,240
58,40,84960,240
50,36,84960,240
51,39,85440,240
63,44,85440,240
58,39,85440,240
53,36,85920,240
65,40,85920,240
58,36,85920,240
66,44,86400,240
54,39,86400,240
58,39,86400,240
68,39,86880,240
56,35,86880,240
58,35,86880,240
66,44,87360,240
58,39,87360,240
54,39,87360,240
58,70,87840,160
58,67,88000,160
58,66,88160,160
63,72,88320,480
54,72,88320,480
65,68,88800,480
58,68,88800,480
66,71,89280,480
63,71,89280,480
58,73,89760,160
58,70,89920,160
58,70,90080,160
54,72,90240,480
63,72,90240,480
58,68,90720,480
65,68,90720,480
63,71,91200,480
66,71,91200,480
69,41,91680,240
59,37,91680,240
57,37,91680,240
67,44,92160,240
59,39,92160,240
55,39,92160,240
63,40,92640,240
59,40,92640,240
51,36,92640,240
59,39,93120,240
64,44,93120,240
52,39,93120,240
59,36,93600,240
66,40,93600,240
54,36,93600,240
59,39,94080,240
55,39,94080,240
67,44,94080,240
59,35,94560,240
57,35,94560,240
69,39,94560,240
67,44,95040,240
55,39,95040,240
59,39,95040,240
59,70,95520,160
59,67,95680,160
59,66,95840,160
55,72,96000,480
64,72,96000,480
59,68,96480,480
66,68,96480,480
67,71,96960,480
64,71,96960,480
59,73,97440,160
59,70,97600,160
59,70,97760,160
55,72,97920,480
64,72,97920,480
59,68,98400,480
66,68,98400,480
64,71,98880,480
67,71,98880,480
58,44,99360,240
60,44,99360,240
64,49,99360,240
60,45,99840,240
65,51,99840,240
57,45,99840,240
60,46,100320,240
62,46,100320,240
66,52,100320,240
62,48,100800,240
67,54,100800,240
59,48,100800,240
62,50,101280,240
64,50,101280,240
68,56,101280,240
64,52,101760,240
69,58,101760,240
61,52,101760,240
64,53,102240,240
70,59,102240,240
66,53,102240,240
63,54,102720,240
71,61,102720,240
66,61,102720,240
61,56,103200,240
64,56,103200,240
70,63,103200,240
66,63,103200,240
59,58,103680,240
63,58,103680,240
66,65,103680,240
71,65,103680,240
61,58,104160,240
64,58,104160,240
66,65,104160,240
70,65,104160,240
63,58,104640,240
66,65,104640,240
71,65,104640,240
59,58,104640,240
49,50,105120,240
54,50,105120,240
58,56,105120,240
52,50,105120,240
51,52,105600,240
54,52,105600,240
59,58,105600,240
47,52,105600,240
58,60,106080,240
49,54,106080,240
54,54,106080,240
52,54,106080,240
47,57,106560,240
51,57,106560,240
59,63,106560,240
54,57,106560,240
58,66,107040,240
52,59,107040,240
54,59,107040,240
49,59,107040,240
47,55,107520,120
54,55,107520,120
59,65,107520,120
51,55,107520,120
51,49,107680,120
54,49,107680,120
59,58,107680,120
47,49,107680,120
47,49,107840,120
51,49,107840,120
59,58,107840,120
54,49,107840,120
47,55,108000,240
54,55,108000,240
59,65,108000,240
51,55,108000,240
51,55,108480,120
54,55,108480,120
59,65,108480,120
47,55,108480,120
47,49,108640,120
54,49,108640,120
59,58,108640,120
51,49,108640,120
51,49,108800,120
54,49,108800,120
47,49,108800,120
59,58,108800,120
51,55,108960,240
54,55,108960,240
59,65,108960,240
47,55,108960,240
47,55,109440,120
54,55,109440,120
59,65,109440,120
51,55,109440,120
47,49,109600,120
51,49,109600,120
59,58,109600,120
54,49,109600,120
51,49,109760,120
54,49,109760,120
59,58,109760,120
47,49,109760,120
47,55,109920,240
51,55,109920,240
59,65,109920,240
54,55,109920,240
51,55,110400,120
54,55,110400,120
47,55,110400,120
59,65,110400,120
47,49,110560,120
51,49,110560,120
59,58,110560,120
54,49,110560,120
47,49,110720,120
54,49,110720,120
59,58,110720,120
51,49,110720,120
51,55,110880,240
54,55,110880,240
47,55,110880,240
59,65,110880,240
50,55,111360,160
62,65,111360,160
50,49,111520,160
62,58,111520,160
62,58,111680,160
50,49,111680,160
50,55,111840,240
62,65,111840,240
50,55,112320,160
62,65,112320,160
50,49,112480,160
62,58,112480,160
62,58,112640,160
50,49,112640,160
50,55,112800,240
62,65,112800,240
47,61,115200,640
55,68,115200,640
47,56,115840,120
55,63,115840,120
47,56,116000,120
55,63,116000,120
47,62,116160,640
55,69,116160,640
47,56,116800,120
55,63,116800,120
47,55,116960,120
55,62,116960,120
47,61,117120,720
55,68,117120,720
59,62,117840,120
55,55,117840,120
57,61,118080,120
60,68,118080,120
55,55,118320,120
59,62,118320,120
60,68,118560,120
57,61,118560,120
50,60,118800,120
57,67,118800,120
62,68,119040,640
59,61,119040,640
59,56,119680,120
62,63,119680,120
59,56,119840,120
62,63,119840,120
59,62,120000,640
62,69,120000,640
59,56,120640,120
62,63,120640,120
59,55,120800,120
62,62,120800,120
64,68,120960,120
60,61,120960,120
59,54,121200,120
62,61,121200,120
57,58,121440,120
60,65,121440,120
55,53,121680,120
59,59,121680,120
50,71,121920,120
57,79,121920,120
55,66,122160,120
59,74,122160,120
50,71,122400,240
57,79,122400,240
63,72,123360,960
51,64,123360,960
50,63,124320,480
62,70,124320,480
51,64,125280,960
63,72,125280,960
50,62,126240,480
62,69,126240,480
67,68,127200,480
55,61,127200,480
66,72,127680,480
54,64,127680,480
65,69,128160,480
53,62,128160,480
52,64,128640,720
64,72,128640,720
50,54,129360,120
52,54,129360,120
62,60,129360,120
52,59,129600,120
48,59,129600,120
60,66,129600,120
47,51,129840,120
52,51,129840,120
59,57,129840,120
45,54,130080,120
52,54,130080,120
57,60,130080,120
43,49,130320,120
55,55,130320,120
42,54,130560,120
54,60,130560,120
52,51,131280,120
64,57,131280,120
50,54,131520,120
62,60,131520,120
49,50,131760,120
61,56,131760,120
47,53,132000,120
59,59,132000,120
45,50,132240,120
57,56,132240,120
44,54,132480,120
56,60,132480,120
54,51,133200,120
66,57,133200,120
56,54,133440,120
52,54,133440,120
64,60,133440,120
56,51,133680,120
51,50,133680,120
63,56,133680,120
56,53,133920,120
49,53,133920,120
61,59,133920,120
47,50,134160,120
59,56,134160,120
45,54,134400,480
57,60,134400,480
47,50,134880,480
59,56,134880,480
57,56,134880,480
57,60,135360,720
48,54,135360,720
60,60,135360,720
49,51,136080,240
57,57,136080,240
61,57,136080,240
45,55,136320,480
57,62,136320,480
47,52,136800,480
59,58,136800,480
57,58,136800,480
57,62,137280,720
48,55,137280,720
60,62,137280,720
49,54,138000,240
57,60,138000,240
61,60,138000,240
50,62,138240,480
62,69,138240,480
52,56,138720,480
64,63,138720,480
62,63,138720,480
62,69,139200,720
53,62,139200,720
65,69,139200,720
54,58,139920,240
62,65,139920,240
66,65,139920,240
50,63,140160,480
62,71,140160,480
52,59,140640,480
64,66,140640,480
62,66,140640,480
62,73,141120,720
53,65,141120,720
65,73,141120,720
54,61,141840,240
62,68,141840,240
66,68,141840,240
55,79,142080,480
55,71,142560,960
65,79,142560,960
53,71,142560,960
55,69,143520,960
52,69,143520,960
64,77,143520,960
55,71,144480,960
51,71,144480,960
63,79,144480,960
54,67,145440,480
50,67,145440,480
62,75,145440,480
38,66,145920,480
50,74,145920,480
50,74,146400,480
52,74,146400,480
40,66,146400,480
50,79,146880,480
54,79,146880,480
42,71,146880,480
50,75,147360,480
55,75,147360,480
43,67,147360,480
43,64,148080,120
50,64,148080,120
55,72,148080,120
45,66,148320,120
50,66,148320,120
57,74,148320,120
47,59,148560,120
50,59,148560,120
59,66,148560,120
54,70,148800,120
57,78,148800,120
50,70,148800,120
62,78,148800,120
55,65,149040,120
59,73,149040,120
62,73,149040,120
54,68,149280,120
50,68,149280,120
57,76,149280,120
62,76,149280,120
55,79,149760,480
55,71,150240,960
65,79,150240,960
53,71,150240,960
55,69,151200,960
52,69,151200,960
64,77,151200,960
55,71,152160,480
51,71,152160,480
63,79,152160,480
50,67,152640,720
54,67,152640,720
62,75,152640,720
48,61,153360,120
54,61,153360,120
60,68,153360,120
47,64,153600,240
50,64,153600,240
55,72,153600,240
59,72,153600,240
48,60,153840,240
60,67,153840,240
47,64,154080,240
59,72,154080,240
45,60,154320,240
57,67,154320,240
43,63,154560,720
55,71,154560,720
50,71,154560,960
41,60,155280,120
53,67,155280,120
40,64,155520,120
52,72,155520,120
42,60,155760,120
54,67,155760,120
40,64,156000,120
52,72,156000,120
38,63,156240,120
50,70,156240,120
36,66,156480,720
48,74,156480,720
38,65,157200,120
50,65,157200,120
39,70,157440,720
51,70,157440,720
40,64,158160,120
52,64,158160,120
42,71,158400,720
54,71,158400,720
43,65,159120,120
55,65,159120,120
45,70,159360,720
57,70,159360,720
46,64,160080,120
58,64,160080,120
47,67,160320,720
59,67,160320,720
48,60,161040,120
60,60,161040,120
50,63,161280,480
62,63,161280,480
51,56,161760,480
63,63,161760,480
50,63,162240,480
62,63,162240,480
51,55,162720,480
63,61,162720,480
50,63,163200,480
62,63,163200,480
47,56,163680,480
59,63,163680,480
46,53,164160,480
58,60,164160,480
45,48,164640,480
57,54,164640,480
43,54,165120,240
55,60,165120,240
51,58,165600,480
63,66,165600,480
50,66,166080,480
62,66,166080,480
51,57,166560,480
63,64,166560,480
50,66,167040,480
62,66,167040,480
47,58,167520,480
59,66,167520,480
46,60,168000,480
58,69,168000,480
45,55,168480,480
57,61,168480,480
43,61,168960,240
55,69,168960,240
47,58,169440,480
50,58,169440,480
54,58,169440,480
62,64,169440,480
55,61,169920,240
59,61,169920,240
62,69,169920,240
47,58,170400,480
50,58,170400,480
54,58,170400,480
62,64,170400,480
55,61,170880,240
59,61,170880,240
62,69,170880,240
55,61,171360,240
59,61,171360,240
62,68,171360,240
43,65,171840,960
50,65,171840,960
55,73,171840,960
