note,velocity,position,duration
40,79,10,505
43,76,1054,474
50,78,2069,479
49,75,2827,498
40,74,3589,476
40,74,4642,477
43,76,5150,474
50,78,6165,479
49,75,6923,1268
40,79,8202,505
43,76,9246,474
50,78,10261,479
49,75,11019,498
40,74,11781,476
40,74,12834,477
43,76,13342,474
50,78,14357,479
49,75,15115,1268
40,79,16388,511
28,79,16388,511
35,75,17179,243
43,76,17438,474
31,76,17438,474
28,74,17943,479
50,78,18453,479
31,78,18453,479
38,75,18963,474
49,75,19211,498
31,76,19468,474
40,74,19973,476
33,75,19973,476
40,74,21026,477
33,75,21026,477
43,76,21534,474
35,76,21534,474
31,75,22039,479
50,78,22549,479
33,78,22549,479
40,75,23059,232
49,75,23307,731
37,75,23307,1268
31,75,24069,476
40,79,24580,511
28,79,24580,511
35,75,25371,243
43,76,25630,474
31,76,25630,474
28,74,26135,479
50,78,26645,479
31,78,26645,479
38,75,27155,474
49,75,27403,498
31,76,27660,474
40,74,28165,476
33,75,28165,476
40,74,29218,477
33,75,29218,477
43,76,29726,474
35,76,29726,474
31,75,30231,479
50,78,30741,479
33,78,30741,479
40,75,31251,232
49,75,31499,731
37,75,31499,1268
31,75,32261,476
78,75,32772,6160
67,72,32772,511
71,86,32772,541
28,79,32772,511
35,75,33563,243
69,68,33822,474
73,82,33822,504
31,76,33822,474
28,74,34327,479
71,70,34837,479
74,84,34837,509
31,78,34837,479
38,75,35347,474
69,67,35595,498
73,81,35595,513
31,76,35852,474
67,67,36357,199
71,81,36357,199
33,75,36357,476
67,67,37410,477
71,81,37410,507
33,75,37410,477
69,68,37918,474
73,82,37918,504
43,76,37918,474
40,75,38423,479
79,78,38933,1014
71,70,38933,479
74,84,38933,509
33,78,38933,479
40,75,39443,232
69,67,39691,1268
73,81,39691,1268
31,75,39691,731
81,76,39948,1011
38,75,40453,476
78,75,40964,6160
67,72,40964,511
71,86,40964,541
28,79,40964,511
35,75,41755,243
69,68,42014,474
73,82,42014,504
31,76,42014,474
28,74,42519,479
71,70,43029,479
74,84,43029,509
31,78,43029,479
38,75,43539,474
69,67,43787,498
73,81,43787,513
31,76,44044,474
67,67,44549,199
71,81,44549,199
33,75,44549,476
67,67,45602,477
71,81,45602,507
33,75,45602,477
69,68,46110,474
73,82,46110,504
43,76,46110,474
40,75,46615,479
74,78,47125,1014
71,78,47125,479
33,78,47125,479
40,75,47635,232
69,67,47883,1268
73,77,47883,1268
31,75,47883,731
78,76,48140,1011
38,75,48645,476
76,75,49156,7175
67,72,49156,511
71,86,49156,541
28,79,49156,511
35,75,49947,243
69,68,50206,474
73,82,50206,504
31,76,50206,474
28,74,50711,479
71,70,51221,479
74,84,51221,509
31,78,51221,479
38,75,51731,474
69,67,51979,498
73,81,51979,513
31,76,52236,474
67,67,52741,199
71,81,52741,199
33,75,52741,476
67,67,53794,477
71,81,53794,507
33,75,53794,477
69,68,54302,474
73,82,54302,504
43,76,54302,474
40,75,54807,479
71,70,55317,479
74,84,55317,509
33,78,55317,479
40,75,55827,232
69,67,56075,1268
73,81,56075,1268
31,75,56075,731
76,76,56332,241
78,75,56589,232
79,75,56837,232
38,75,56837,476
80,75,57085,243
81,75,57348,8187
67,72,57348,511
71,86,57348,541
28,79,57348,511
35,75,58139,243
69,68,58398,474
73,82,58398,504
31,76,58398,474
28,74,58903,479
71,70,59413,479
74,84,59413,509
31,78,59413,479
38,75,59923,474
69,67,60171,498
73,81,60171,513
31,76,60428,474
67,67,60933,199
71,81,60933,199
33,75,60933,476
67,67,61986,477
71,81,61986,507
33,75,61986,477
69,68,62494,474
73,82,62494,504
43,76,62494,474
40,75,62999,479
71,70,63509,479
74,84,63509,509
33,78,63509,479
40,75,64019,232
69,67,64267,1268
73,81,64267,1268
31,75,64267,731
38,75,65029,476
59,72,65540,234
71,86,65540,234
28,79,65540,511
64,67,66082,200
76,81,66082,200
35,75,66331,243
71,68,66590,197
83,82,66590,197
31,76,66590,474
67,67,67095,202
79,81,67095,202
28,74,67095,479
69,70,67605,247
81,84,67605,262
31,78,67605,479
67,67,67868,231
79,81,67868,246
64,67,68115,232
76,81,68115,247
38,75,68115,474
62,67,68363,241
74,81,68363,256
31,76,68620,474
64,67,68877,232
76,81,68877,247
59,67,69125,199
71,81,69125,199
33,75,69125,476
59,67,70178,200
71,81,70178,200
33,75,70178,477
64,68,70686,197
76,82,70686,197
43,76,70686,474
67,67,71191,202
79,81,71191,202
40,75,71191,479
69,70,71701,247
81,84,71701,262
33,78,71701,479
67,67,71964,231
79,81,71964,246
64,67,72211,232
76,81,72211,247
40,75,72211,232
62,67,72459,241
74,81,72459,256
31,75,72459,731
64,67,73221,476
76,81,73221,506
38,75,73221,476
59,72,73732,234
71,86,73732,234
28,79,73732,511
64,67,74274,200
76,81,74274,200
35,75,74523,243
71,68,74782,197
83,82,74782,197
31,76,74782,474
67,67,75287,202
79,81,75287,202
28,74,75287,479
69,70,75797,247
81,84,75797,262
31,78,75797,479
67,67,76060,231
79,81,76060,246
64,67,76307,232
76,81,76307,247
38,75,76307,474
62,67,76555,241
74,81,76555,256
31,76,76812,474
64,67,77069,232
76,81,77069,247
59,67,77317,199
71,81,77317,199
33,75,77317,476
59,67,78370,200
71,81,78370,200
33,75,78370,477
64,68,78878,197
76,82,78878,197
43,76,78878,474
67,67,79383,202
79,81,79383,202
40,75,79383,479
69,70,79893,247
81,84,79893,262
33,78,79893,479
67,67,80156,231
79,81,80156,246
64,67,80403,232
76,81,80403,247
40,75,80403,232
62,67,80651,241
74,81,80651,256
31,75,80651,731
64,67,81413,476
76,81,81413,506
38,75,81413,476
59,72,81924,234
71,86,81924,234
28,79,81924,511
64,67,82466,200
76,81,82466,200
35,75,82715,243
71,68,82974,197
83,82,82974,197
31,76,82974,474
67,67,83479,202
79,81,83479,202
28,74,83479,479
69,70,83989,247
81,84,83989,262
31,78,83989,479
67,67,84252,231
79,81,84252,246
64,67,84499,232
76,81,84499,247
38,75,84499,474
62,67,84747,241
74,81,84747,256
31,76,85004,474
64,67,85261,232
76,81,85261,247
59,67,85509,199
71,81,85509,199
33,75,85509,476
59,67,86562,200
71,81,86562,200
33,75,86562,477
64,68,87070,197
76,82,87070,197
43,76,87070,474
67,67,87575,202
79,81,87575,202
40,75,87575,479
69,70,88085,247
81,84,88085,262
33,78,88085,479
67,67,88348,231
79,81,88348,246
64,67,88595,232
76,81,88595,247
40,75,88595,232
62,67,88843,241
74,81,88843,256
31,75,88843,731
64,67,89605,476
76,81,89605,506
38,75,89605,476
59,72,90116,234
71,86,90116,234
28,79,90116,511
64,67,90658,200
76,81,90658,200
35,75,90907,243
71,68,91166,197
83,82,91166,197
31,76,91166,474
67,67,91671,202
79,81,91671,202
28,74,91671,479
69,70,92181,247
81,84,92181,262
31,78,92181,479
67,67,92444,231
79,81,92444,246
64,67,92691,232
76,81,92691,247
38,75,92691,474
62,67,92939,241
74,81,92939,256
31,76,93196,474
64,67,93453,232
76,81,93453,247
59,67,93701,199
71,81,93701,199
33,75,93701,476
59,67,94754,200
71,81,94754,200
33,75,94754,477
64,68,95262,197
76,82,95262,197
43,76,95262,474
67,67,95767,202
79,81,95767,202
40,75,95767,479
69,70,96277,247
81,84,96277,262
33,78,96277,479
67,67,96540,231
79,81,96540,246
64,67,96787,232
76,81,96787,247
40,75,96787,232
62,67,97035,241
74,81,97035,256
31,75,97035,731
64,67,97797,476
76,81,97797,506
38,75,97797,476
52,93,98308,511
28,92,98308,511
55,88,98850,233
47,88,99099,243
35,88,99099,243
52,89,99358,242
31,89,99358,474
47,88,99616,231
28,87,99863,479
50,88,100111,246
31,91,100373,479
50,88,100636,231
52,88,100883,247
38,88,100883,474
52,88,101131,241
57,89,101388,197
31,89,101388,474
55,88,101893,199
33,88,101893,476
52,93,102404,234
55,88,102946,200
33,88,102946,507
57,89,103454,242
33,89,103454,474
59,88,103712,231
40,88,103959,479
55,88,104207,246
33,91,104469,479
55,88,104732,231
52,88,104979,197
40,88,104979,232
35,88,105227,731
50,89,105484,197
51,88,105989,199
31,88,105989,476
52,93,106500,292
28,92,106500,511
52,88,106793,233
55,88,107042,233
57,88,107291,243
35,88,107291,243
52,89,107550,197
31,89,107550,474
28,87,108055,479
31,91,108565,479
38,88,109075,474
31,89,109580,474
33,88,110085,476
62,88,110336,128
63,88,110464,128
64,83,110596,321
33,88,111138,507
64,88,111387,104
59,89,111646,197
33,89,111646,474
59,88,112151,202
40,88,112151,479
55,91,112661,202
33,91,112661,479
55,88,113171,197
40,88,113171,232
35,88,113419,731
52,89,113676,197
52,88,114181,199
31,88,114181,476
52,93,114692,511
28,92,114692,511
55,88,115234,233
47,88,115483,243
35,88,115483,243
52,89,115742,242
31,89,115742,474
47,88,116000,231
28,87,116247,479
50,88,116495,246
31,91,116757,479
50,88,117020,231
52,88,117267,247
38,88,117267,474
52,88,117515,241
57,89,117772,197
31,89,117772,474
55,88,118277,199
33,88,118277,476
52,93,118788,234
55,88,119330,200
33,88,119330,507
57,89,119838,242
33,89,119838,474
59,88,120096,231
40,88,120343,479
55,88,120591,246
33,91,120853,479
55,88,121116,231
52,88,121363,197
40,88,121363,232
35,88,121611,731
50,89,121868,197
51,88,122373,199
31,88,122373,476
52,93,122884,292
28,92,122884,511
52,88,123177,233
55,88,123426,233
57,88,123675,243
35,88,123675,243
52,89,123934,197
31,89,123934,474
28,87,124439,479
31,91,124949,479
38,88,125459,474
31,89,125964,474
33,88,126469,476
62,88,126720,128
63,88,126848,128
64,83,126980,321
33,88,127522,507
64,88,127771,104
59,89,128030,197
33,89,128030,474
59,88,128535,202
40,88,128535,479
55,91,129045,202
33,91,129045,479
55,88,129555,197
40,88,129555,232
35,88,129803,731
52,89,130060,197
52,88,130565,199
31,88,130565,476
52,85,131076,511
64,99,131076,541
28,92,131076,511
55,80,131618,233
67,94,131618,248
47,80,131867,243
59,94,131867,258
35,88,131867,243
52,81,132126,242
64,95,132126,257
31,89,132126,474
47,80,132384,231
59,94,132384,246
28,87,132631,479
50,80,132879,246
62,94,132879,261
31,91,133141,479
50,80,133404,231
62,94,133404,246
52,80,133651,247
64,94,133651,247
38,88,133651,474
52,80,133899,241
64,94,133899,256
57,81,134156,197
69,95,134156,197
31,89,134156,474
55,80,134661,199
67,94,134661,199
33,88,134661,476
52,85,135172,234
64,99,135172,234
55,80,135714,200
67,94,135714,200
33,88,135714,507
57,81,136222,242
69,95,136222,257
33,89,136222,474
59,80,136480,231
71,94,136480,246
40,88,136727,479
55,80,136975,246
67,94,136975,261
33,91,137237,479
55,80,137500,231
67,94,137500,246
52,80,137747,197
64,94,137747,197
40,88,137747,232
35,88,137995,731
50,81,138252,197
62,95,138252,197
51,80,138757,199
63,94,138757,199
31,88,138757,476
52,85,139268,292
64,99,139268,292
28,92,139268,511
52,80,139561,233
64,94,139561,248
55,80,139810,233
67,94,139810,248
57,80,140059,243
69,94,140059,258
35,88,140059,243
52,81,140318,197
64,95,140318,167
31,89,140318,474
28,87,140823,479
31,91,141333,479
38,88,141843,474
31,89,142348,474
33,88,142853,476
74,88,143104,128
75,88,143232,128
64,75,143364,321
76,85,143364,234
33,88,143906,507
64,80,144155,104
76,94,144155,104
59,81,144414,197
71,95,144414,197
33,89,144414,474
59,80,144919,202
71,94,144919,202
40,88,144919,479
55,83,145429,202
67,97,145429,202
33,91,145429,479
55,80,145939,197
67,94,145939,197
40,88,145939,232
35,88,146187,731
52,81,146444,197
64,95,146444,197
31,88,146949,476
52,85,147460,511
64,99,147460,541
28,92,147460,511
55,80,148002,233
67,94,148002,248
47,80,148251,243
59,94,148251,258
35,88,148251,243
52,81,148510,242
64,95,148510,257
31,89,148510,474
47,80,148768,231
59,94,148768,246
28,87,149015,479
50,80,149263,246
62,94,149263,261
31,91,149525,479
50,80,149788,231
62,94,149788,246
52,80,150035,247
64,94,150035,247
38,88,150035,474
52,80,150283,241
64,94,150283,256
57,81,150540,197
69,95,150540,197
31,89,150540,474
55,80,151045,199
67,94,151045,199
33,88,151045,476
52,85,151556,234
64,99,151556,234
55,80,152098,200
67,94,152098,200
33,88,152098,507
57,81,152606,242
69,95,152606,257
33,89,152606,474
59,80,152864,231
71,94,152864,246
40,88,153111,479
55,80,153359,246
67,94,153359,261
33,91,153621,479
55,80,153884,231
67,94,153884,246
52,80,154131,197
64,94,154131,197
40,88,154131,232
35,88,154379,731
50,81,154636,197
62,95,154636,197
51,80,155141,199
63,94,155141,199
31,88,155141,476
52,85,155652,292
64,99,155652,292
28,92,155652,511
52,80,155945,233
64,94,155945,248
55,80,156194,233
67,94,156194,248
57,80,156443,243
69,94,156443,258
35,88,156443,243
52,81,156702,197
64,95,156702,197
31,89,156702,474
28,87,157207,479
52,83,157717,262
64,93,157717,262
31,91,157717,479
52,80,157980,231
64,94,157980,246
55,80,158227,232
67,94,158227,247
38,88,158227,474
57,80,158475,241
69,94,158475,256
52,81,158732,197
64,95,158732,197
31,89,158732,474
33,88,159237,476
52,85,159748,292
64,95,159748,292
52,80,160041,233
64,94,160041,248
55,80,160290,233
67,94,160290,248
33,88,160290,507
57,80,160539,243
69,94,160539,258
50,81,160798,242
62,95,160798,257
33,89,160798,474
52,80,161056,231
64,94,161056,246
50,80,161303,232
62,94,161303,247
40,88,161303,509
52,80,161551,231
64,94,161551,261
52,105,161813,253
64,115,161813,253
33,91,161813,479
52,89,162828,241
54,88,163085,232
55,88,163333,232
59,88,163581,243
60,85,163844,1292
64,85,163844,1292
72,95,163844,1307
36,88,164386,477
55,80,165152,231
67,94,165152,246
54,80,165399,232
66,94,165399,247
36,88,165399,479
51,80,165647,246
63,94,165647,261
52,83,165909,1519
64,97,165909,1519
36,88,166419,474
50,80,167429,476
62,94,167429,506
36,88,167429,476
51,85,167940,1049
59,85,167940,1049
63,99,167940,1049
35,88,168482,477
47,81,168990,984
59,95,168990,1014
35,88,169495,509
59,83,170005,1014
66,83,170005,1014
71,97,170005,1014
35,88,170515,474
58,81,171020,1011
70,95,171020,1011
35,88,171525,476
57,85,172036,1554
69,99,172036,1554
34,88,172578,477
54,80,173591,479
66,94,173591,509
34,88,173591,479
51,83,174101,1519
59,83,174101,1519
63,97,174101,1519
35,88,174611,474
59,88,175621,476
35,88,175621,476
71,85,176132,511
76,99,176132,541
64,93,176132,292
63,88,176425,248
64,88,176674,477
28,87,176674,477
74,81,177182,474
78,95,177182,504
66,89,177182,242
64,88,177440,231
66,88,177687,479
30,88,177687,479
76,83,178197,479
79,97,178197,479
67,91,178197,1014
31,88,178707,474
55,89,179212,241
54,88,179469,232
55,88,179717,232
33,88,179717,476
59,88,179965,243
60,85,180228,1292
64,85,180228,1292
72,99,180228,1307
36,88,180770,477
55,80,181536,231
67,94,181536,246
54,80,181783,232
66,94,181783,247
36,88,181783,479
51,80,182031,246
63,94,182031,261
52,83,182293,1519
64,97,182293,1519
36,88,182803,474
50,80,183813,476
62,94,183813,506
36,88,183813,476
51,85,184324,1049
59,85,184324,1049
63,99,184324,1049
35,88,184866,477
47,81,185374,984
59,95,185374,1014
35,88,185879,509
59,83,186389,1014
66,83,186389,1014
71,97,186389,1014
35,88,186899,474
58,81,187404,1011
70,95,187404,1011
35,88,187909,476
57,85,188420,1554
69,99,188420,1554
34,88,188962,477
54,80,189975,479
66,94,189975,509
34,88,189975,479
51,83,190485,1519
59,83,190485,1519
63,97,190485,1519
35,88,190995,474
59,88,192005,476
35,88,192005,476
71,85,192516,511
76,99,192516,541
67,93,192516,511
69,88,193058,233
40,88,193058,477
67,88,193307,243
74,81,193566,474
78,95,193566,504
66,89,193566,474
62,88,194071,479
42,88,194071,479
76,83,194581,479
79,97,194581,479
64,91,194581,1014
43,88,195091,474
52,89,195596,241
54,88,195853,232
55,88,196101,232
45,88,196101,476
59,88,196349,243
60,85,196612,1292
64,85,196612,1292
72,95,196612,1307
36,88,197154,477
55,80,197920,231
67,94,197920,246
54,80,198167,232
66,94,198167,247
36,88,198167,479
51,80,198415,246
63,94,198415,261
52,83,198677,1519
64,97,198677,1519
36,88,199187,474
50,80,200197,476
62,94,200197,506
36,88,200197,476
51,85,200708,1049
59,85,200708,1049
63,99,200708,1049
35,88,201250,477
47,81,201758,984
59,95,201758,1014
35,88,202263,509
59,83,202773,1014
66,83,202773,1014
71,97,202773,1014
35,88,203283,474
58,81,203788,1011
70,95,203788,1011
35,88,204293,476
57,85,204804,1554
69,99,204804,1554
34,88,205346,477
54,80,206359,479
66,94,206359,509
34,88,206359,479
51,83,206869,1519
59,83,206869,1519
63,97,206869,1519
35,88,207379,474
59,88,208389,476
35,88,208389,476
71,85,208900,511
76,99,208900,541
64,93,208900,292
63,88,209193,248
64,88,209442,477
28,87,209442,477
74,81,209950,474
78,95,209950,504
66,89,209950,242
64,88,210208,231
66,88,210455,479
30,88,210455,479
76,83,210965,479
79,97,210965,479
67,91,210965,1014
31,88,211475,474
55,89,211980,241
54,88,212237,232
55,88,212485,232
33,88,212485,476
59,88,212733,243
60,85,212996,1292
64,85,212996,1292
72,99,212996,1307
36,88,213538,477
55,80,214304,231
67,94,214304,246
54,80,214551,232
66,94,214551,247
36,88,214551,479
51,80,214799,246
63,94,214799,261
52,83,215061,1519
64,97,215061,1519
36,88,215571,474
50,80,216581,476
62,94,216581,506
36,88,216581,476
51,85,217092,1049
59,85,217092,1049
63,99,217092,1049
35,88,217634,477
47,81,218142,984
59,95,218142,1014
35,88,218647,509
59,83,219157,1014
66,83,219157,1014
71,97,219157,1014
35,88,219667,474
58,81,220172,1011
70,95,220172,1011
35,88,220677,476
57,85,221188,1554
69,99,221188,1554
34,88,221730,477
54,80,222743,479
66,94,222743,509
34,88,222743,479
51,83,223253,2026
59,83,223253,2026
63,97,223253,2026
35,88,223763,474
35,88,224773,476
67,85,225284,511
74,99,225284,541
59,93,225284,511
67,80,226075,243
74,90,226075,258
59,88,226075,243
67,80,226839,509
74,90,226839,509
59,88,226839,509
67,83,227349,479
74,93,227349,509
59,91,227349,479
67,80,228107,241
74,94,228107,256
59,88,228107,241
68,81,228364,474
75,95,228364,504
60,89,228364,474
67,80,228869,232
74,94,228869,247
59,88,228869,232
68,80,229117,243
75,94,229117,258
60,88,229117,243
78,88,229380,1089
37,84,229380,511
49,99,229380,541
49,88,229922,477
76,88,230430,565
37,88,230430,474
75,88,230935,277
49,88,230935,479
76,88,231183,1316
37,90,231445,479
49,88,231955,474
75,88,232460,565
44,89,232460,474
73,88,232965,506
49,88,232965,476
73,88,233476,602
37,92,233476,511
75,88,234018,568
49,88,234018,477
73,88,234526,565
37,88,234526,474
71,88,235031,277
49,88,235031,479
66,88,235279,1221
37,90,235541,479
63,88,236556,565
37,88,236556,474
64,88,237061,567
49,88,237061,476
66,88,237572,790
35,91,237572,511
47,88,238114,477
66,88,238363,824
35,87,238622,474
68,88,239127,570
47,88,239127,479
66,88,239637,1054
35,89,239637,479
47,88,240147,474
73,88,240652,565
35,87,240652,474
70,88,241157,567
47,88,241157,476
72,88,241668,790
36,91,241668,511
48,88,242210,477
72,88,242459,824
36,87,242718,474
73,88,243223,570
48,88,243223,479
75,88,243733,1054
36,89,243733,479
73,88,244748,565
36,87,244748,474
75,83,245253,421
48,88,245253,247
48,88,245501,243
37,92,245764,511
78,88,246306,568
49,88,246306,477
76,88,246814,565
37,88,246814,474
75,88,247319,277
49,88,247319,479
76,88,247567,1316
37,90,247829,479
49,88,248339,474
75,88,248844,565
44,89,248844,474
73,88,249349,506
49,88,249349,476
73,88,249860,602
39,92,249860,511
75,88,250402,568
51,88,250402,477
73,88,250910,565
39,88,250910,474
71,88,251415,277
51,88,251415,479
66,88,251663,1221
39,90,251925,479
63,88,252940,565
39,88,252940,474
64,88,253445,567
51,88,253445,476
66,88,253956,790
32,90,253956,511
44,88,254498,477
66,88,254747,824
32,86,255006,474
68,88,255511,570
44,88,255511,479
66,88,256021,1054
32,88,256021,479
44,88,256531,474
73,88,257036,565
32,86,257036,474
70,88,257541,567
34,86,257541,476
71,88,258052,790
35,91,258052,511
47,88,258594,477
71,88,258843,824
35,87,259102,474
73,88,259607,570
47,88,259607,479
75,88,260117,1054
35,89,260117,479
47,88,260627,474
73,88,261132,565
35,87,261132,474
71,83,261637,421
47,88,261637,476
78,88,262148,1089
37,92,262148,511
49,88,262690,477
76,88,263198,565
37,88,263198,474
75,88,263703,277
49,88,263703,479
76,88,263951,1316
37,90,264213,479
49,88,264723,474
75,88,265228,565
44,89,265228,474
73,88,265733,506
49,88,265733,476
73,88,266244,602
37,92,266244,511
75,88,266786,568
49,88,266786,477
73,88,267294,565
37,88,267294,474
71,88,267799,277
49,88,267799,479
66,88,268047,1221
37,90,268309,479
63,88,269324,565
37,88,269324,474
64,88,269829,567
49,88,269829,476
66,88,270340,790
35,91,270340,511
47,88,270882,477
66,88,271131,824
35,87,271390,474
68,88,271895,570
47,88,271895,479
66,88,272405,1054
35,89,272405,479
47,88,272915,474
73,88,273420,565
35,87,273420,474
70,88,273925,567
47,88,273925,476
72,88,274436,790
36,91,274436,511
48,88,274978,477
72,88,275227,824
36,87,275486,474
73,88,275991,570
48,88,275991,479
75,88,276501,1054
36,89,276501,479
73,88,277516,565
36,87,277516,474
75,83,278021,421
48,88,278021,247
48,88,278269,243
37,92,278532,511
78,88,279074,568
49,88,279074,477
76,88,279582,565
37,88,279582,474
75,88,280087,277
49,88,280087,479
76,88,280335,1316
37,90,280597,479
49,88,281107,474
75,88,281612,565
44,89,281612,474
73,88,282117,506
49,88,282117,476
73,88,282628,602
39,92,282628,511
75,88,283170,568
51,88,283170,477
73,88,283678,565
39,88,283678,474
71,88,284183,277
51,88,284183,479
66,88,284431,1221
39,90,284693,479
63,88,285708,565
39,88,285708,474
64,88,286213,567
51,88,286213,476
66,88,286724,790
32,90,286724,511
44,88,287266,477
66,88,287515,824
32,86,287774,474
68,88,288279,570
44,88,288279,479
66,88,288789,1054
32,88,288789,479
44,88,289299,474
73,88,289804,565
32,86,289804,474
70,88,290309,567
34,86,290309,476
71,88,290820,790
35,91,290820,511
47,88,291362,477
71,88,291611,824
35,87,291870,474
73,88,292375,570
47,88,292375,479
75,88,292885,1054
35,89,292885,479
47,88,293395,474
73,88,293900,565
35,87,293900,474
71,83,294405,506
47,88,294405,476
64,98,294916,511
67,98,294916,511
71,98,294916,511
76,112,294916,541
28,105,294916,511
35,101,295707,243
67,94,295966,474
69,94,295966,474
73,94,295966,474
79,108,295966,504
31,102,295966,474
28,100,296471,479
74,96,296981,479
83,96,296981,479
86,110,296981,509
31,104,296981,479
38,101,297491,474
73,93,297739,498
81,93,297739,498
85,107,297739,513
31,102,297996,474
64,93,298501,476
76,107,298501,506
33,101,298501,476
64,93,299554,477
67,93,299554,507
71,93,299554,507
76,107,299554,507
33,101,299554,507
67,94,300062,474
69,94,300062,474
73,94,300062,474
79,108,300062,504
33,102,300062,474
40,101,300567,479
74,96,301077,479
83,96,301077,479
86,110,301077,509
33,104,301077,479
40,101,301587,232
73,93,301835,1268
81,93,301835,1268
85,107,301835,1268
35,101,301835,731
31,101,302597,476
64,98,303108,511
67,98,303108,511
71,98,303108,511
76,112,303108,541
28,105,303108,511
35,101,303899,243
67,94,304158,474
69,94,304158,474
73,94,304158,474
79,108,304158,504
31,102,304158,474
28,100,304663,479
74,96,305173,479
83,96,305173,479
86,110,305173,509
31,104,305173,479
38,101,305683,474
73,93,305931,498
81,93,305931,498
85,107,305931,513
31,102,306188,474
64,93,306693,476
76,107,306693,506
33,101,306693,476
64,93,307746,477
67,93,307746,507
71,93,307746,507
76,107,307746,507
33,101,307746,507
67,94,308254,474
69,94,308254,474
73,94,308254,474
79,108,308254,504
33,102,308254,474
40,101,308759,479
74,96,309269,479
83,96,309269,479
86,110,309269,509
33,104,309269,479
40,101,309779,232
73,93,310027,1268
81,93,310027,1268
85,107,310027,1268
35,101,310027,731
31,101,310789,476
64,98,311300,511
67,98,311300,511
71,98,311300,511
76,112,311300,541
28,105,311300,511
35,101,312091,243
67,94,312350,474
69,94,312350,474
73,94,312350,474
79,108,312350,504
31,102,312350,474
28,100,312855,479
74,96,313365,479
78,96,313365,479
83,96,313365,479
86,110,313365,509
31,104,313365,479
38,101,313875,474
73,93,314123,498
76,93,314123,498
81,93,314123,498
85,107,314123,513
31,102,314380,474
64,93,314885,476
76,107,314885,506
33,101,314885,476
64,93,315938,477
67,93,315938,507
71,93,315938,507
76,107,315938,507
33,101,315938,507
67,94,316446,474
69,94,316446,474
73,94,316446,474
79,108,316446,504
33,102,316446,474
40,101,316951,479
74,96,317461,479
78,96,317461,479
83,96,317461,479
86,110,317461,509
33,104,317461,479
40,101,317971,232
73,93,318219,1268
76,93,318219,1268
81,93,318219,1268
85,107,318219,1268
35,101,318219,731
31,101,318981,476
64,98,319492,511
67,98,319492,511
71,98,319492,511
76,112,319492,541
28,105,319492,511
35,101,320283,243
67,94,320542,474
69,94,320542,474
73,94,320542,474
79,108,320542,504
31,102,320542,474
28,100,321047,479
74,96,321557,479
78,96,321557,479
83,96,321557,479
86,110,321557,509
31,104,321557,479
38,101,322067,474
73,93,322315,498
76,93,322315,498
81,93,322315,498
85,107,322315,513
31,102,322572,474
64,93,323077,476
76,107,323077,506
33,101,323077,476
64,93,324130,477
67,93,324130,507
71,93,324130,507
76,107,324130,507
33,101,324130,507
67,94,324638,474
69,94,324638,474
73,94,324638,474
79,108,324638,504
33,102,324638,474
40,101,325143,479
74,96,325653,479
78,96,325653,479
83,96,325653,479
86,110,325653,509
33,104,325653,479
40,101,326163,232
73,93,326411,1268
76,93,326411,1268
81,93,326411,1268
85,107,326411,1268
35,101,326411,731
31,101,327173,476
69,106,327684,277
28,105,327684,511
67,101,327977,233
66,101,328226,233
64,101,328475,243
35,101,328475,243
62,102,328734,242
31,102,328734,474
59,101,328992,231
57,101,329239,232
28,100,329239,479
55,101,329487,246
52,104,329749,247
31,104,329749,479
50,101,330012,231
47,101,330259,232
38,101,330259,489
50,101,330507,226
52,102,330764,241
31,102,330764,474
55,101,331021,232
57,101,331269,232
33,101,331269,476
59,101,331517,243
64,94,331780,138
64,89,332073,94
40,101,332322,477
64,89,332571,104
59,102,332830,197
43,102,332830,474
59,101,333335,202
40,101,333335,479
55,104,333845,202
38,104,333845,479
55,101,334355,197
52,102,334860,197
