note,velocity,position,duration
32,85,10,1043
56,73,1054,197
59,73,1054,167
66,87,1054,197
54,80,1559,202
32,80,1559,479
56,75,2069,202
59,75,2069,172
65,89,2069,172
27,82,2069,1014
42,80,3084,565
43,75,3589,286
44,85,4100,234
32,85,4100,1049
56,72,4642,200
59,72,4642,170
63,72,4642,200
68,86,4642,200
44,80,4642,200
54,81,5150,197
52,80,5504,128
51,75,5640,304
32,68,5655,540
27,70,6165,540
49,72,6675,197
56,86,6675,32
48,80,7040,128
47,75,7176,288
30,81,7180,1011
49,72,7685,199
56,86,7685,199
37,85,8196,1049
56,73,9246,197
61,73,9246,167
66,87,9246,197
59,80,9751,202
37,80,9751,479
56,75,10261,202
61,75,10261,172
65,89,10261,172
32,83,10261,1014
39,80,11276,565
42,75,11781,286
44,85,12292,234
37,85,12292,1049
56,72,12834,200
61,72,12834,170
68,86,12834,200
44,80,12834,200
66,81,13342,197
63,80,13824,190
37,80,13847,479
62,75,13994,933
32,83,14357,1014
61,75,14867,284
59,81,15372,197
47,81,15372,1011
35,81,15372,1011
49,80,15877,199
44,85,16388,435
32,85,16388,1049
56,73,17438,197
59,73,17438,167
66,87,17438,197
54,80,17943,202
32,80,17943,479
56,75,18453,202
59,75,18453,172
65,89,18453,172
27,82,18453,1014
42,80,19468,565
43,75,19973,286
44,85,20484,234
32,85,20484,1049
56,72,21026,200
59,72,21026,170
63,72,21026,200
68,86,21026,200
44,80,21026,200
54,81,21534,197
52,80,21888,128
51,75,22024,304
32,68,22039,540
27,70,22549,540
49,72,23059,197
56,86,23059,32
48,80,23424,128
47,75,23560,288
30,81,23564,1011
48,72,24069,199
56,86,24069,199
49,85,24580,435
37,85,24580,1049
56,73,25630,197
61,73,25630,167
66,87,25630,197
59,80,26135,202
37,80,26135,479
56,75,26645,202
61,75,26645,172
65,89,26645,172
32,83,26645,1014
39,80,27660,565
42,75,28165,286
49,85,28676,234
37,85,28676,1049
67,80,29056,128
56,67,29192,313
61,67,29192,148
68,81,29192,226
49,80,29218,200
66,81,29726,197
63,80,30231,202
49,80,30231,202
37,68,30231,540
62,80,30592,128
61,75,30728,302
32,71,30741,540
47,72,31251,197
59,86,31251,197
49,81,31756,197
35,81,31756,1011
51,80,32261,199
52,85,32772,435
40,85,32772,1049
56,73,33822,197
59,73,33822,167
64,87,33822,197
54,80,34327,202
40,80,34327,479
56,75,34837,202
59,75,34837,172
64,89,34837,172
35,83,34837,1014
42,80,35852,565
43,75,36357,286
51,85,36868,435
39,85,36868,1049
58,72,37410,200
63,72,37410,170
67,86,37410,200
55,81,37918,197
52,80,38400,191
39,68,38423,540
51,75,38571,932
34,71,38933,540
49,75,39443,284
46,69,39948,102
37,81,39948,1011
46,68,40205,93
49,80,40453,199
44,85,40964,435
40,85,40964,1049
52,73,42014,197
56,73,42014,167
61,87,42014,197
59,80,42519,202
40,80,42519,479
52,75,43029,202
56,75,43029,172
61,89,43029,172
35,83,43029,1014
52,80,44032,193
51,75,44205,319
50,80,44549,199
51,85,45060,234
46,85,45060,435
34,85,45060,1049
69,80,45440,128
70,75,45576,313
67,80,46110,565
63,75,46615,289
39,80,46615,202
34,68,46615,540
55,83,47125,202
27,70,47125,540
58,83,47635,197
67,78,47635,197
41,80,47635,197
55,84,48140,197
67,79,48140,197
43,81,48140,397
31,81,48140,1011
58,83,48645,199
67,78,48645,169
32,85,49162,1043
56,73,50206,197
59,73,50206,167
66,87,50206,197
54,80,50711,202
32,80,50711,479
56,75,51221,202
59,75,51221,172
65,89,51221,172
27,82,51221,1014
42,80,52236,565
43,75,52741,286
44,85,53252,234
32,85,53252,1049
56,72,53794,200
59,72,53794,170
63,72,53794,200
68,86,53794,200
44,80,53794,200
54,81,54302,197
52,80,54656,128
51,75,54792,304
32,68,54807,540
27,70,55317,540
49,72,55827,197
56,86,55827,32
48,80,56192,128
47,75,56328,288
30,81,56332,1011
49,72,56837,199
56,86,56837,199
37,85,57348,1049
56,73,58398,197
61,73,58398,167
66,87,58398,197
59,80,58903,202
37,80,58903,479
56,75,59413,202
61,75,59413,172
65,89,59413,172
32,83,59413,1014
39,80,60428,565
42,75,60933,286
44,85,61444,234
37,85,61444,1049
56,72,61986,200
61,72,61986,170
68,86,61986,200
44,80,61986,200
66,81,62494,197
63,80,62976,190
37,80,62999,479
62,75,63146,933
32,83,63509,1014
61,75,64019,284
59,81,64524,197
47,81,64524,1011
35,81,64524,1011
49,80,65029,199
44,85,65540,435
32,85,65540,1049
56,73,66590,197
59,73,66590,167
66,87,66590,197
54,80,67095,202
32,80,67095,479
56,75,67605,202
59,75,67605,172
65,89,67605,172
27,82,67605,1014
42,80,68620,565
43,75,69125,286
44,85,69636,234
32,85,69636,1049
56,72,70178,200
59,72,70178,170
63,72,70178,200
68,86,70178,200
44,80,70178,200
54,81,70686,197
52,80,71040,128
51,75,71176,304
32,68,71191,540
27,70,71701,540
49,72,72211,197
56,86,72211,32
48,80,72576,128
47,75,72712,288
30,81,72716,1011
48,72,73221,199
56,86,73221,199
49,85,73732,435
37,85,73732,1049
56,73,74782,197
61,73,74782,167
66,87,74782,197
59,80,75287,202
37,80,75287,479
56,75,75797,202
61,75,75797,172
65,89,75797,172
32,83,75797,1014
39,80,76812,565
42,75,77317,286
49,85,77828,234
37,85,77828,1049
67,80,78208,128
56,67,78344,313
61,67,78344,148
68,81,78344,226
49,80,78370,200
66,81,78878,197
63,80,79383,202
49,80,79383,202
37,68,79383,540
62,80,79744,128
61,75,79880,302
32,71,79893,540
47,72,80403,197
59,86,80403,197
49,81,80908,197
35,81,80908,1011
51,80,81413,199
52,85,81924,435
40,85,81924,1049
56,73,82974,197
59,73,82974,167
64,87,82974,197
54,80,83479,202
40,80,83479,479
56,75,83989,202
59,75,83989,172
64,89,83989,172
35,83,83989,1014
42,80,85004,565
43,75,85509,286
51,85,86020,435
39,85,86020,1049
58,72,86562,200
63,72,86562,170
67,86,86562,200
55,81,87070,197
52,80,87552,191
39,68,87575,540
51,75,87723,932
34,71,88085,540
49,75,88595,284
46,69,89100,102
37,81,89100,1011
46,68,89357,93
49,80,89605,199
44,85,90116,435
40,85,90116,1049
52,73,91166,197
56,73,91166,167
61,87,91166,197
59,80,91671,202
40,80,91671,479
52,75,92181,202
56,75,92181,172
61,89,92181,172
35,83,92181,1014
52,80,93184,193
51,75,93357,319
50,80,93701,199
51,85,94212,234
46,85,94212,435
34,85,94212,1049
69,80,94592,128
70,75,94728,313
67,80,95262,565
63,75,95767,289
39,80,95767,202
34,68,95767,540
55,83,96277,202
27,70,96277,540
58,83,96787,197
67,78,96787,197
41,80,96787,197
55,84,97292,197
67,79,97292,197
43,81,97292,397
31,81,97292,1011
58,83,97797,199
67,78,97797,169
32,85,106506,1043
56,73,107550,197
59,73,107550,167
66,87,107550,197
54,80,108055,202
32,80,108055,479
56,75,108565,202
59,75,108565,172
65,89,108565,172
27,82,108565,1014
42,80,109580,565
43,75,110085,286
44,85,110596,234
32,85,110596,1049
56,72,111138,200
59,72,111138,170
63,72,111138,200
68,86,111138,200
44,80,111138,200
54,81,111646,197
52,80,112000,128
51,75,112136,304
32,68,112151,540
27,70,112661,540
49,72,113171,197
56,86,113171,32
48,80,113536,128
47,75,113672,288
30,81,113676,1011
49,72,114181,199
56,86,114181,199
37,85,114692,1049
56,73,115742,197
61,73,115742,167
66,87,115742,197
59,80,116247,202
37,80,116247,479
56,75,116757,202
61,75,116757,172
65,89,116757,172
32,83,116757,1014
39,80,117772,565
42,75,118277,286
44,85,118788,234
37,85,118788,1049
56,72,119330,200
61,72,119330,170
68,86,119330,200
44,80,119330,200
66,81,119838,197
63,80,120320,190
37,80,120343,479
62,75,120490,933
32,83,120853,1014
61,75,121363,284
59,81,121868,197
47,81,121868,1011
35,81,121868,1011
49,80,122373,199
44,85,122884,435
32,85,122884,1049
56,73,123934,197
59,73,123934,167
66,87,123934,197
54,80,124439,202
32,80,124439,479
56,75,124949,202
59,75,124949,172
65,89,124949,172
27,82,124949,1014
42,80,125964,565
43,75,126469,286
44,85,126980,234
32,85,126980,1049
56,72,127522,200
59,72,127522,170
63,72,127522,200
68,86,127522,200
44,80,127522,200
54,81,128030,197
52,80,128384,128
51,75,128520,304
32,68,128535,540
27,70,129045,540
49,72,129555,197
56,86,129555,32
48,80,129920,128
47,75,130056,288
30,81,130060,1011
48,72,130565,199
56,86,130565,199
49,85,131076,435
37,85,131076,1049
56,73,132126,197
61,73,132126,167
66,87,132126,197
59,80,132631,202
37,80,132631,479
56,75,133141,202
61,75,133141,172
65,89,133141,172
32,83,133141,1014
39,80,134156,565
42,75,134661,286
49,85,135172,234
37,85,135172,1049
67,80,135552,128
56,67,135688,313
61,67,135688,148
68,81,135688,226
49,80,135714,200
66,81,136222,197
63,80,136727,202
49,80,136727,202
37,68,136727,540
62,80,137088,128
61,75,137224,302
32,71,137237,540
47,72,137747,197
59,86,137747,197
49,81,138252,197
35,81,138252,1011
51,80,138757,199
52,85,139268,435
40,85,139268,1049
56,73,140318,197
59,73,140318,167
64,87,140318,197
54,80,140823,202
40,80,140823,479
56,75,141333,202
59,75,141333,172
64,89,141333,172
35,83,141333,1014
42,80,142348,565
43,75,142853,286
51,85,143364,435
39,85,143364,1049
58,72,143906,200
63,72,143906,170
67,86,143906,200
55,81,144414,197
52,80,144896,191
39,68,144919,540
51,75,145067,932
34,71,145429,540
49,75,145939,284
46,69,146444,102
37,81,146444,1011
46,68,146701,93
49,80,146949,199
44,85,147460,435
40,85,147460,1049
52,73,148510,197
56,73,148510,167
61,87,148510,197
59,80,149015,202
40,80,149015,479
52,75,149525,202
56,75,149525,172
61,89,149525,172
35,83,149525,1014
52,80,150528,193
51,75,150701,319
50,80,151045,199
51,85,151556,234
46,85,151556,435
34,85,151556,1049
69,80,151936,128
70,75,152072,313
67,80,152606,565
63,75,153111,289
39,80,153111,202
34,68,153111,540
55,83,153621,202
27,70,153621,540
58,83,154131,197
67,78,154131,197
41,80,154131,197
55,84,154636,197
67,79,154636,197
43,81,154636,397
31,81,154636,1011
58,83,155141,199
67,78,155141,169
32,85,155658,1043
56,73,156702,197
59,73,156702,167
66,87,156702,197
54,80,157207,202
32,80,157207,479
56,75,157717,202
59,75,157717,172
65,89,157717,172
27,82,157717,1014
42,80,158732,565
43,75,159237,286
44,85,159748,234
32,85,159748,1049
56,72,160290,200
59,72,160290,170
63,72,160290,200
68,86,160290,200
44,80,160290,200
54,81,160798,197
52,80,161152,128
51,75,161288,304
32,68,161303,540
27,70,161813,540
49,72,162323,197
56,86,162323,32
48,80,162688,128
47,75,162824,288
30,81,162828,1011
49,72,163333,199
56,86,163333,199
37,85,163844,1049
56,73,164894,197
61,73,164894,167
66,87,164894,197
59,80,165399,202
37,80,165399,479
56,75,165909,202
61,75,165909,172
65,89,165909,172
32,83,165909,1014
39,80,166924,565
42,75,167429,286
44,85,167940,234
37,85,167940,1049
56,72,168482,200
61,72,168482,170
68,86,168482,200
44,80,168482,200
66,81,168990,197
63,80,169472,190
37,80,169495,479
62,75,169642,933
32,83,170005,1014
61,75,170515,284
59,81,171020,197
47,81,171020,1011
35,81,171020,1011
49,80,171525,199
44,85,172036,435
32,85,172036,1049
56,73,173086,197
59,73,173086,167
66,87,173086,197
54,80,173591,202
32,80,173591,479
56,75,174101,202
59,75,174101,172
65,89,174101,172
27,82,174101,1014
42,80,175116,565
43,75,175621,286
44,85,176132,234
32,85,176132,1049
56,72,176674,200
59,72,176674,170
63,72,176674,200
68,86,176674,200
44,80,176674,200
54,81,177182,197
52,80,177536,128
51,75,177672,304
32,68,177687,540
27,70,178197,540
49,72,178707,197
56,86,178707,32
48,80,179072,128
47,75,179208,288
30,81,179212,1011
48,72,179717,199
56,86,179717,199
49,85,180228,435
37,85,180228,1049
56,73,181278,197
61,73,181278,167
66,87,181278,197
59,80,181783,202
37,80,181783,479
56,75,182293,202
61,75,182293,172
65,89,182293,172
32,83,182293,1014
39,80,183308,565
42,75,183813,286
49,85,184324,234
37,85,184324,1049
67,80,184704,128
56,67,184840,313
61,67,184840,148
68,81,184840,226
49,80,184866,200
66,81,185374,197
63,80,185879,202
49,80,185879,202
37,68,185879,540
62,80,186240,128
61,75,186376,302
32,71,186389,540
47,72,186899,197
59,86,186899,197
49,81,187404,197
35,81,187404,1011
51,80,187909,199
52,85,188420,435
40,85,188420,1049
56,73,189470,197
59,73,189470,167
64,87,189470,197
54,80,189975,202
40,80,189975,479
56,75,190485,202
59,75,190485,172
64,89,190485,172
35,83,190485,1014
42,80,191500,565
43,75,192005,286
51,85,192516,435
39,85,192516,1049
58,72,193058,200
63,72,193058,170
67,86,193058,200
55,81,193566,197
52,80,194048,191
39,68,194071,540
51,75,194219,932
34,71,194581,540
49,75,195091,284
46,69,195596,102
37,81,195596,1011
46,68,195853,93
49,80,196101,199
44,85,196612,435
40,85,196612,1049
52,73,197662,197
56,73,197662,167
61,87,197662,197
59,80,198167,202
40,80,198167,479
52,75,198677,202
56,75,198677,172
61,89,198677,172
35,83,198677,1014
52,80,199680,193
51,75,199853,319
50,80,200197,199
51,85,200708,234
46,85,200708,435
34,85,200708,1049
69,80,201088,128
70,75,201224,313
67,80,201758,565
63,75,202263,289
39,80,202263,202
34,68,202263,540
55,83,202773,202
27,70,202773,540
58,83,203283,197
67,78,203283,197
41,80,203283,197
55,84,203788,197
67,79,203788,197
43,81,203788,397
31,81,203788,1011
58,83,204293,199
67,78,204293,169
