note,velocity,position,duration
40,64,0,128
58,69,10,126
41,71,10,161
70,64,128,79
46,57,128,79
46,64,128,79
70,58,136,71
58,88,213,77
40,79,213,77
41,94,213,82
40,88,256,34
41,94,256,39
58,88,272,18
70,88,296,77
46,88,296,77
58,88,379,29
40,79,379,5
41,94,379,48
46,81,384,128
70,82,408,130
70,88,462,76
46,88,462,50
40,88,512,108
41,94,512,113
58,88,544,76
58,88,544,76
40,79,544,76
41,94,544,81
70,88,626,77
46,88,626,77
46,81,640,63
70,82,680,23
58,88,709,77
40,79,709,77
41,94,709,82
40,88,768,18
41,94,768,23
70,88,792,24
46,88,792,77
58,88,816,136
58,88,875,77
40,79,875,21
41,94,875,64
46,81,896,128
70,82,952,91
70,88,960,83
46,88,960,64
40,88,1024,110
41,95,1024,115
58,88,1049,85
40,79,1049,85
41,94,1049,90
58,88,1088,46
70,88,1140,78
46,88,1140,78
46,81,1152,66
70,82,1224,136
58,88,1224,77
40,79,1224,77
41,94,1224,82
40,88,1280,21
41,94,1280,26
70,88,1307,53
46,88,1307,77
58,88,1360,136
40,79,1390,18
41,94,1390,61
46,81,1408,128
70,88,1472,76
46,88,1472,64
70,82,1496,52
40,88,1536,93
41,94,1536,98
58,88,1554,75
40,79,1554,75
41,94,1554,80
58,88,1632,136
70,88,1635,76
46,88,1635,76
46,81,1664,47
58,88,1717,51
40,79,1717,77
41,94,1717,82
70,82,1768,109
40,88,1792,2
41,94,1792,7
70,88,1800,77
46,88,1800,77
58,88,1883,78
40,79,1883,37
41,94,1883,80
58,88,1904,57
46,81,1920,128
70,88,1967,87
46,88,1967,81
70,82,2040,14
40,88,2048,102
41,97,2048,107
58,88,2060,90
40,79,2060,90
41,94,2060,95
70,88,2156,20
46,88,2156,78
58,88,2176,136
46,81,2176,58
58,88,2240,72
40,79,2240,77
41,94,2240,82
40,88,2304,13
41,94,2304,18
70,82,2312,88
70,88,2323,77
46,88,2323,77
58,88,2406,76
40,79,2406,26
41,94,2406,69
46,81,2432,128
58,88,2448,34
70,88,2488,76
46,88,2488,72
40,88,2560,85
41,94,2560,90
58,88,2570,14
40,79,2570,75
41,94,2570,80
70,82,2584,136
70,88,2651,69
46,88,2651,76
46,81,2688,39
58,88,2720,136
40,79,2733,77
41,94,2733,82
70,88,2816,77
40,88,2816,128
41,94,2816,166
46,88,2816,77
70,82,2856,37
58,88,2899,78
40,79,2899,45
41,94,2899,83
46,81,2944,121
70,88,2983,9
46,88,2983,82
58,88,2992,136
58,88,3071,57
40,79,3071,84
41,94,3071,89
40,88,3072,83
41,95,3072,88
70,82,3128,111
70,88,3161,78
46,88,3161,78
46,81,3200,39
58,88,3245,78
40,79,3245,78
41,94,3245,83
58,88,3264,59
40,88,3328,128
41,94,3328,0
70,88,3329,76
46,88,3329,76
70,82,3400,5
58,88,3411,76
40,79,3411,45
41,94,3411,81
46,81,3456,113
70,88,3493,43
46,88,3493,76
58,88,3536,115
58,88,3575,76
40,79,3575,76
41,94,3575,81
40,88,3584,67
41,94,3584,72
70,88,3657,77
46,88,3657,77
70,82,3672,62
46,81,3712,22
58,88,3740,76
40,79,3740,76
41,94,3740,14
58,88,3808,8
70,88,3822,77
46,88,3822,18
40,88,3840,128
41,94,3840,148
58,88,3905,39
40,79,3905,63
41,94,3905,83
70,82,3944,126
46,81,3968,102
70,88,3989,81
46,88,3989,81
57,93,4096,128
39,88,4096,128
40,94,4096,170
69,82,4224,79
69,88,4224,79
45,81,4224,79
45,88,4224,79
57,88,4309,77
39,79,4309,77
40,93,4309,82
57,88,4352,34
39,88,4352,34
40,93,4352,39
69,88,4392,77
45,88,4392,77
57,88,4475,5
39,79,4475,5
40,93,4475,48
69,82,4480,128
45,81,4480,128
69,88,4558,50
45,88,4558,50
57,88,4608,108
39,88,4608,108
40,93,4608,113
57,88,4640,76
39,79,4640,76
40,93,4640,81
69,88,4722,77
45,88,4722,77
69,82,4736,63
45,81,4736,63
57,88,4805,77
39,79,4805,77
40,93,4805,82
57,88,4864,18
39,88,4864,18
40,93,4864,23
69,88,4888,77
45,88,4888,77
57,88,4971,21
39,79,4971,21
40,93,4971,64
69,82,4992,128
45,81,4992,128
69,88,5056,64
45,88,5056,64
57,89,5120,110
39,88,5120,110
40,94,5120,115
57,88,5145,85
39,79,5145,85
40,93,5145,90
69,88,5236,78
45,88,5236,78
69,82,5248,66
45,81,5248,66
57,88,5320,77
39,79,5320,77
40,93,5320,82
57,88,5376,21
39,88,5376,21
40,93,5376,26
69,88,5403,77
45,88,5403,77
57,88,5486,18
39,79,5486,18
40,93,5486,61
69,82,5504,128
45,81,5504,128
69,88,5568,64
45,88,5568,64
57,88,5632,93
39,88,5632,93
40,93,5632,98
57,88,5650,75
39,79,5650,75
40,93,5650,80
69,88,5731,76
45,88,5731,76
69,82,5760,47
45,81,5760,47
57,88,5813,77
39,79,5813,77
40,93,5813,82
57,88,5888,2
39,88,5888,2
40,93,5888,7
69,88,5896,77
45,88,5896,77
57,88,5979,37
39,79,5979,37
40,93,5979,80
69,82,6016,128
45,81,6016,128
69,88,6063,81
45,88,6063,81
57,91,6144,102
39,88,6144,102
40,96,6144,107
57,88,6156,90
39,79,6156,90
40,93,6156,95
69,88,6252,78
45,88,6252,78
69,82,6272,58
45,81,6272,58
57,88,6336,77
39,79,6336,77
40,93,6336,82
57,88,6400,13
39,88,6400,13
40,93,6400,18
69,88,6419,77
45,88,6419,77
57,88,6502,26
39,79,6502,26
40,93,6502,69
69,82,6528,128
45,81,6528,128
69,88,6584,72
45,88,6584,72
57,88,6656,85
39,88,6656,85
40,93,6656,90
57,88,6666,75
39,79,6666,75
40,93,6666,80
69,88,6747,76
45,88,6747,76
69,82,6784,39
45,81,6784,39
57,88,6829,77
39,79,6829,77
40,93,6829,82
57,88,6912,128
69,88,6912,77
39,88,6912,128
40,93,6912,166
45,88,6912,77
57,88,6995,45
39,79,6995,45
40,93,6995,83
69,82,7040,121
45,81,7040,121
69,88,7079,82
45,88,7079,82
57,88,7167,84
39,79,7167,84
40,93,7167,89
57,89,7168,83
39,88,7168,83
40,94,7168,88
69,88,7257,78
45,88,7257,78
69,82,7296,39
45,81,7296,39
57,88,7341,78
39,79,7341,78
40,93,7341,83
57,88,7424,128
39,88,7424,128
40,93,7424,0
69,88,7425,76
45,88,7425,76
57,88,7507,45
39,79,7507,45
40,93,7507,81
69,82,7552,113
45,81,7552,113
69,88,7589,76
45,88,7589,76
57,88,7671,76
39,79,7671,76
40,93,7671,81
57,88,7680,67
39,88,7680,67
40,93,7680,72
69,88,7753,77
45,88,7753,77
69,82,7808,22
45,81,7808,22
57,88,7836,76
39,79,7836,76
40,93,7836,15
69,88,7918,18
45,88,7918,18
57,88,7936,128
39,88,7936,128
40,93,7936,148
57,88,8001,63
39,79,8001,63
40,93,8001,83
69,82,8064,102
45,81,8064,102
69,88,8085,81
45,88,8085,81
61,93,8192,136
43,88,8192,136
44,95,8192,179
73,88,8320,79
49,88,8320,79
73,82,8328,71
49,82,8328,71
61,88,8405,77
43,80,8405,77
44,94,8405,82
61,88,8464,18
43,88,8464,18
44,94,8464,23
73,88,8488,77
49,88,8488,77
61,88,8571,29
43,80,8571,29
44,94,8571,72
73,82,8600,130
49,82,8600,130
73,88,8654,76
49,88,8654,76
61,88,8736,76
61,88,8736,76
43,88,8736,76
44,94,8736,81
43,80,8736,76
44,94,8736,81
73,88,8818,77
49,88,8818,77
73,82,8872,23
49,82,8872,23
61,88,8901,77
43,80,8901,77
44,94,8901,14
73,88,8984,24
49,88,8984,24
61,88,9008,136
43,88,9008,136
44,94,9008,143
61,88,9067,77
43,80,9067,77
44,94,9067,84
73,82,9144,91
49,82,9144,91
73,88,9152,83
49,88,9152,83
61,88,9241,85
43,80,9241,85
44,94,9241,90
61,88,9280,46
43,88,9280,46
44,94,9280,51
73,88,9332,78
49,88,9332,78
73,82,9416,136
61,88,9416,77
49,82,9416,136
43,80,9416,77
44,94,9416,43
73,88,9499,53
49,88,9499,53
61,88,9552,136
43,88,9552,136
44,94,9552,179
73,88,9664,76
49,88,9664,76
73,82,9688,52
49,82,9688,52
61,88,9746,75
43,80,9746,75
44,94,9746,80
61,88,9824,136
43,88,9824,136
44,94,9824,2
73,88,9827,76
49,88,9827,76
61,88,9909,51
43,80,9909,51
44,94,9909,82
73,82,9960,109
49,82,9960,109
73,88,9992,77
49,88,9992,77
61,88,10075,78
43,80,10075,78
44,94,10075,83
61,88,10096,57
43,88,10096,57
44,94,10096,62
73,88,10159,87
49,88,10159,87
73,82,10232,14
49,82,10232,14
61,88,10252,90
43,80,10252,90
44,94,10252,23
73,88,10348,20
49,88,10348,20
61,88,10368,136
43,88,10368,136
44,94,10368,146
61,88,10432,72
43,80,10432,72
44,94,10432,82
73,82,10504,88
49,82,10504,88
73,88,10515,77
49,88,10515,77
61,88,10598,76
43,80,10598,76
44,94,10598,81
61,88,10640,34
43,88,10640,34
44,94,10640,39
73,88,10680,76
49,88,10680,76
61,88,10762,14
43,80,10762,14
44,94,10762,57
73,82,10776,136
49,82,10776,136
73,88,10843,69
49,88,10843,69
61,88,10912,136
43,88,10912,136
44,94,10912,179
73,88,11008,77
49,88,11008,77
73,82,11048,37
49,82,11048,37
61,88,11091,78
43,80,11091,78
44,94,11091,83
73,88,11175,9
49,88,11175,9
61,88,11184,136
43,88,11184,136
44,94,11184,168
61,88,11263,57
43,80,11263,57
44,94,11263,89
73,82,11320,111
49,82,11320,111
73,88,11353,78
49,88,11353,78
61,88,11437,78
43,80,11437,78
44,94,11437,83
61,88,11456,59
43,88,11456,59
44,94,11456,64
73,88,11521,76
49,88,11521,76
73,82,11592,5
49,82,11592,5
61,88,11603,76
43,80,11603,76
44,94,11603,32
73,88,11685,43
49,88,11685,43
61,88,11728,115
43,88,11728,115
44,94,11728,120
61,88,11767,76
43,80,11767,76
44,94,11767,81
73,88,11849,77
49,88,11849,77
73,82,11864,62
49,82,11864,62
61,88,11932,76
43,80,11932,76
44,94,11932,81
61,88,12000,8
43,88,12000,8
44,94,12000,13
73,88,12014,77
49,88,12014,77
61,88,12097,39
43,80,12097,39
44,94,12097,82
73,82,12136,126
49,82,12136,126
73,88,12181,81
49,88,12181,81
61,93,12288,136
43,88,12288,136
44,95,12288,179
73,88,12416,79
49,88,12416,79
73,82,12424,71
49,82,12424,71
61,88,12501,77
43,80,12501,77
44,94,12501,82
61,88,12560,18
43,88,12560,18
44,94,12560,23
73,88,12584,77
49,88,12584,77
61,88,12667,29
43,80,12667,29
44,94,12667,72
73,82,12696,130
49,82,12696,130
73,88,12750,76
49,88,12750,76
61,88,12832,76
61,88,12832,76
43,88,12832,76
44,94,12832,81
43,80,12832,76
44,94,12832,81
73,88,12914,77
49,88,12914,77
73,82,12968,23
49,82,12968,23
61,88,12997,77
43,80,12997,77
44,94,12997,14
73,88,13080,24
49,88,13080,24
61,88,13104,136
43,88,13104,136
44,94,13104,143
61,88,13163,77
43,80,13163,77
44,94,13163,84
73,82,13240,91
49,82,13240,91
73,88,13248,83
49,88,13248,83
61,88,13337,85
43,80,13337,85
44,94,13337,90
61,88,13376,46
43,88,13376,46
44,94,13376,51
73,88,13428,78
49,88,13428,78
73,82,13512,136
61,88,13512,77
49,82,13512,136
43,80,13512,77
44,94,13512,43
73,88,13595,53
49,88,13595,53
61,88,13648,136
43,88,13648,136
44,94,13648,179
73,88,13760,76
49,88,13760,76
73,82,13784,52
49,82,13784,52
61,88,13842,75
43,80,13842,75
44,94,13842,80
61,88,13920,136
43,88,13920,136
44,94,13920,2
73,88,13923,76
49,88,13923,76
61,88,14005,51
43,80,14005,51
44,94,14005,82
73,82,14056,109
49,82,14056,109
73,88,14088,77
49,88,14088,77
61,88,14171,78
43,80,14171,78
44,94,14171,83
61,88,14192,57
43,88,14192,57
44,94,14192,62
73,88,14255,87
49,88,14255,87
73,82,14328,14
49,82,14328,14
61,88,14348,90
43,80,14348,90
44,94,14348,23
73,88,14444,20
49,88,14444,20
61,88,14464,136
43,88,14464,136
44,94,14464,146
61,88,14528,72
43,80,14528,72
44,94,14528,82
73,82,14600,88
49,82,14600,88
73,88,14611,77
49,88,14611,77
61,88,14694,76
43,80,14694,76
44,94,14694,81
61,88,14736,34
43,88,14736,34
44,94,14736,39
73,88,14776,76
49,88,14776,76
61,88,14858,14
43,80,14858,14
44,94,14858,57
73,82,14872,136
49,82,14872,136
73,88,14939,69
49,88,14939,69
61,88,15008,136
43,88,15008,136
44,94,15008,179
73,88,15104,77
49,88,15104,77
73,82,15144,37
49,82,15144,37
61,88,15187,78
43,80,15187,78
44,94,15187,83
73,88,15271,9
49,88,15271,9
61,88,15280,136
43,88,15280,136
44,94,15280,168
61,88,15359,57
43,80,15359,57
44,94,15359,89
73,82,15416,111
49,82,15416,111
73,88,15449,78
49,88,15449,78
61,88,15533,78
43,80,15533,78
44,94,15533,83
61,88,15552,59
43,88,15552,59
44,94,15552,64
73,88,15617,76
49,88,15617,76
73,82,15688,5
49,82,15688,5
61,88,15699,76
43,80,15699,76
44,94,15699,32
73,88,15781,43
49,88,15781,43
61,88,15824,115
43,88,15824,115
44,94,15824,120
61,88,15863,76
43,80,15863,76
44,94,15863,81
73,88,15945,77
49,88,15945,77
73,82,15960,62
49,82,15960,62
61,88,16028,76
43,80,16028,76
44,94,16028,81
61,88,16096,8
43,88,16096,8
44,94,16096,13
73,88,16110,77
49,88,16110,77
61,88,16193,39
43,80,16193,39
44,94,16193,82
73,82,16232,126
49,82,16232,126
73,88,16277,81
49,88,16277,81
58,93,16384,136
40,88,16384,136
41,95,16384,179
70,88,16512,79
46,88,16512,79
70,82,16520,71
46,81,16520,71
58,88,16597,77
40,79,16597,77
41,94,16597,82
58,88,16656,18
40,88,16656,18
41,94,16656,23
70,88,16680,77
46,88,16680,77
58,88,16763,29
40,79,16763,29
41,94,16763,72
70,82,16792,130
46,81,16792,130
70,88,16846,76
46,88,16846,76
58,88,16928,76
58,88,16928,76
40,88,16928,76
41,94,16928,81
40,79,16928,76
41,94,16928,81
70,88,17010,77
46,88,17010,77
70,82,17064,23
46,81,17064,23
58,88,17093,77
40,79,17093,77
41,94,17093,14
70,88,17176,24
46,88,17176,24
58,88,17200,136
40,88,17200,136
41,94,17200,143
58,88,17259,77
40,79,17259,77
41,94,17259,84
70,82,17336,91
46,81,17336,91
70,88,17344,83
46,88,17344,83
58,88,17433,85
40,79,17433,85
41,94,17433,90
58,88,17472,46
40,88,17472,46
41,94,17472,51
70,88,17524,78
46,88,17524,78
70,82,17608,136
58,88,17608,77
46,81,17608,136
40,79,17608,77
41,94,17608,43
70,88,17691,53
46,88,17691,53
58,88,17744,136
40,88,17744,136
41,94,17744,179
70,88,17856,76
46,88,17856,76
70,82,17880,52
46,81,17880,52
58,88,17938,75
40,79,17938,75
41,94,17938,80
58,88,18016,136
40,88,18016,136
41,94,18016,2
70,88,18019,76
46,88,18019,76
58,88,18101,51
40,79,18101,51
41,94,18101,82
70,82,18152,109
46,81,18152,109
70,88,18184,77
46,88,18184,77
58,88,18267,78
40,79,18267,78
41,94,18267,83
58,88,18288,57
40,88,18288,57
41,94,18288,62
70,88,18351,87
46,88,18351,87
70,82,18424,14
46,81,18424,14
58,88,18444,90
40,79,18444,90
41,94,18444,23
70,88,18540,20
46,88,18540,20
58,88,18560,136
40,88,18560,136
41,94,18560,146
58,88,18624,72
40,79,18624,72
41,94,18624,82
70,82,18696,88
46,81,18696,88
70,88,18707,77
46,88,18707,77
58,88,18790,76
40,79,18790,76
41,94,18790,81
58,88,18832,34
40,88,18832,34
41,94,18832,39
70,88,18872,76
46,88,18872,76
58,88,18954,14
40,79,18954,14
41,94,18954,57
70,82,18968,136
46,81,18968,136
70,88,19035,69
46,88,19035,69
58,88,19104,136
40,88,19104,136
41,94,19104,179
70,88,19200,77
46,88,19200,77
70,82,19240,37
46,81,19240,37
58,88,19283,78
40,79,19283,78
41,94,19283,83
70,88,19367,9
46,88,19367,9
58,88,19376,136
40,88,19376,136
41,94,19376,168
58,88,19455,57
40,79,19455,57
41,94,19455,89
70,82,19512,111
46,81,19512,111
70,88,19545,78
46,88,19545,78
58,88,19629,78
40,79,19629,78
41,94,19629,83
58,88,19648,59
40,88,19648,59
41,94,19648,64
70,88,19713,76
46,88,19713,76
70,82,19784,5
46,81,19784,5
58,88,19795,76
40,79,19795,76
41,94,19795,32
70,88,19877,43
46,88,19877,43
58,88,19920,115
40,88,19920,115
41,94,19920,120
58,88,19959,76
40,79,19959,76
41,94,19959,81
70,88,20041,77
46,88,20041,77
70,82,20056,62
46,81,20056,62
58,88,20124,76
40,79,20124,76
41,94,20124,81
58,88,20192,8
40,88,20192,8
41,94,20192,13
70,88,20206,77
46,88,20206,77
58,88,20289,39
40,79,20289,39
41,94,20289,81
70,82,20328,126
46,81,20328,126
70,88,20373,81
46,88,20373,81
57,93,20480,128
39,88,20480,128
40,94,20480,170
69,82,20608,79
69,88,20608,79
45,81,20608,79
45,88,20608,79
57,88,20693,77
39,79,20693,77
40,93,20693,82
57,88,20736,34
39,88,20736,34
40,93,20736,39
69,88,20776,77
45,88,20776,77
57,88,20859,5
39,79,20859,5
40,93,20859,48
69,82,20864,128
45,81,20864,128
69,88,20942,50
45,88,20942,50
57,88,20992,108
39,88,20992,108
40,93,20992,113
57,88,21024,76
39,79,21024,76
40,93,21024,81
69,88,21106,77
45,88,21106,77
69,82,21120,63
45,81,21120,63
57,88,21189,77
39,79,21189,77
40,93,21189,82
57,88,21248,18
39,88,21248,18
40,93,21248,23
69,88,21272,77
45,88,21272,77
57,88,21355,21
39,79,21355,21
40,93,21355,64
69,82,21376,128
45,81,21376,128
69,88,21440,64
45,88,21440,64
57,89,21504,110
39,88,21504,110
40,94,21504,115
57,88,21529,85
39,79,21529,85
40,93,21529,90
69,88,21620,78
45,88,21620,78
69,82,21632,66
45,81,21632,66
57,88,21704,77
39,79,21704,77
40,93,21704,82
57,88,21760,21
39,88,21760,21
40,93,21760,26
69,88,21787,77
45,88,21787,77
57,88,21870,18
39,79,21870,18
40,93,21870,61
69,82,21888,128
45,81,21888,128
69,88,21952,64
45,88,21952,64
57,88,22016,93
39,88,22016,93
40,93,22016,98
57,88,22034,75
39,79,22034,75
40,93,22034,80
69,88,22115,76
45,88,22115,76
69,82,22144,47
45,81,22144,47
57,88,22197,77
39,79,22197,77
40,93,22197,82
57,88,22272,2
39,88,22272,2
40,93,22272,7
69,88,22280,77
45,88,22280,77
57,88,22363,37
39,79,22363,37
40,93,22363,80
69,82,22400,128
45,81,22400,128
69,88,22447,81
45,88,22447,81
57,91,22528,102
39,88,22528,102
40,96,22528,107
57,88,22540,90
39,79,22540,90
40,93,22540,95
69,88,22636,78
45,88,22636,78
69,82,22656,58
45,81,22656,58
57,88,22720,77
39,79,22720,77
40,93,22720,82
57,88,22784,13
39,88,22784,13
40,93,22784,18
69,88,22803,77
45,88,22803,77
57,88,22886,26
39,79,22886,26
40,93,22886,69
69,82,22912,128
45,81,22912,128
69,88,22968,72
45,88,22968,72
57,88,23040,85
39,88,23040,85
40,93,23040,90
57,88,23050,75
39,79,23050,75
40,93,23050,80
69,88,23131,76
45,88,23131,76
69,82,23168,39
45,81,23168,39
57,88,23213,77
39,79,23213,77
40,93,23213,82
57,88,23296,128
69,88,23296,77
39,88,23296,128
40,93,23296,166
45,88,23296,77
57,88,23379,45
39,79,23379,45
40,93,23379,83
69,82,23424,121
45,81,23424,121
69,88,23463,82
45,88,23463,82
57,88,23551,84
39,79,23551,84
40,93,23551,89
57,89,23552,83
39,88,23552,83
40,94,23552,88
69,88,23641,78
45,88,23641,78
69,82,23680,39
45,81,23680,39
57,88,23725,78
39,79,23725,78
40,93,23725,83
57,88,23808,128
39,88,23808,128
40,93,23808,0
69,88,23809,76
45,88,23809,76
57,88,23891,45
39,79,23891,45
40,93,23891,81
69,82,23936,113
45,81,23936,113
69,88,23973,76
45,88,23973,76
57,88,24055,76
39,79,24055,76
40,93,24055,81
57,88,24064,67
39,88,24064,67
40,93,24064,72
69,88,24137,77
45,88,24137,77
69,82,24192,22
45,81,24192,22
57,88,24220,76
39,79,24220,76
40,93,24220,15
69,88,24302,18
45,88,24302,18
57,88,24320,128
39,88,24320,128
40,93,24320,148
57,88,24385,63
39,79,24385,63
40,93,24385,83
69,82,24448,102
45,81,24448,102
69,88,24469,81
45,88,24469,81
62,93,24576,136
44,88,24576,136
45,95,24576,43
74,88,24704,79
50,88,24704,79
74,82,24712,71
50,82,24712,71
62,88,24789,77
44,80,24789,77
45,94,24789,82
62,88,24848,18
44,88,24848,18
45,94,24848,23
74,88,24872,77
50,88,24872,77
62,88,24955,29
44,80,24955,29
45,94,24955,72
74,82,24984,130
50,82,24984,130
74,88,25038,76
50,88,25038,76
62,88,25120,76
62,88,25120,76
44,88,25120,76
45,94,25120,81
44,80,25120,76
45,94,25120,81
74,88,25202,77
50,88,25202,77
74,82,25256,23
50,82,25256,23
62,88,25285,77
44,80,25285,77
45,94,25285,14
74,88,25368,24
50,88,25368,24
62,88,25392,136
44,88,25392,136
45,94,25392,143
62,88,25451,77
44,80,25451,77
45,94,25451,84
74,82,25528,91
50,82,25528,91
74,88,25536,83
50,88,25536,83
62,88,25625,85
44,80,25625,85
45,94,25625,90
62,88,25664,46
44,88,25664,46
45,94,25664,51
74,88,25716,78
50,88,25716,78
74,82,25800,136
62,88,25800,77
50,82,25800,136
44,80,25800,77
45,94,25800,43
74,88,25883,53
50,88,25883,53
62,88,25936,136
44,88,25936,136
45,94,25936,179
74,88,26048,76
50,88,26048,76
74,82,26072,52
50,82,26072,52
62,88,26130,75
44,80,26130,75
45,94,26130,80
62,88,26208,136
44,88,26208,136
45,94,26208,2
74,88,26211,76
50,88,26211,76
62,88,26293,51
44,80,26293,51
45,94,26293,82
74,82,26344,109
50,82,26344,109
74,88,26376,77
50,88,26376,77
62,88,26459,78
44,80,26459,78
45,94,26459,83
62,88,26480,57
44,88,26480,57
45,94,26480,62
74,88,26543,87
50,88,26543,87
74,82,26616,14
50,82,26616,14
62,88,26636,90
44,80,26636,90
45,94,26636,23
74,88,26732,20
50,88,26732,20
62,88,26752,136
44,88,26752,136
45,94,26752,146
62,88,26816,72
44,80,26816,72
45,94,26816,82
74,82,26888,88
50,82,26888,88
74,88,26899,77
50,88,26899,77
62,88,26982,76
44,80,26982,76
45,94,26982,81
62,88,27024,34
44,88,27024,34
45,94,27024,39
74,88,27064,76
50,88,27064,76
62,88,27146,14
44,80,27146,14
45,94,27146,57
74,82,27160,136
50,82,27160,136
74,88,27227,69
50,88,27227,69
62,88,27296,136
44,88,27296,136
45,94,27296,179
74,88,27392,77
50,88,27392,77
74,82,27432,37
50,82,27432,37
62,88,27475,78
44,80,27475,78
45,94,27475,83
74,88,27559,9
50,88,27559,9
62,88,27568,136
44,88,27568,136
45,94,27568,168
62,88,27647,57
44,80,27647,57
45,94,27647,89
74,82,27704,111
50,82,27704,111
74,88,27737,78
50,88,27737,78
62,88,27821,78
44,80,27821,78
45,94,27821,83
62,88,27840,59
44,88,27840,59
45,94,27840,64
74,88,27905,76
50,88,27905,76
74,82,27976,5
50,82,27976,5
62,88,27987,76
44,80,27987,76
45,94,27987,32
74,88,28069,43
50,88,28069,43
62,88,28112,115
44,88,28112,115
45,94,28112,120
62,88,28151,76
44,80,28151,76
45,94,28151,81
74,88,28233,77
50,88,28233,77
74,82,28248,62
50,82,28248,62
62,88,28316,76
44,80,28316,76
45,94,28316,81
62,88,28384,8
44,88,28384,8
45,94,28384,13
74,88,28398,77
50,88,28398,77
62,88,28481,39
44,80,28481,39
45,94,28481,82
74,82,28520,126
50,82,28520,126
74,88,28565,81
50,88,28565,81
62,93,28672,136
44,88,28672,136
45,95,28672,179
74,88,28800,79
50,88,28800,79
74,82,28808,71
50,82,28808,71
62,88,28885,77
44,80,28885,77
45,94,28885,82
62,88,28944,18
44,88,28944,18
45,94,28944,23
74,88,28968,77
50,88,28968,77
62,88,29051,29
44,80,29051,29
45,94,29051,72
74,82,29080,130
50,82,29080,130
74,88,29134,76
50,88,29134,76
62,88,29216,76
62,88,29216,76
44,88,29216,76
45,94,29216,81
44,80,29216,76
45,94,29216,81
74,88,29298,77
50,88,29298,77
74,82,29352,23
50,82,29352,23
62,88,29381,77
44,80,29381,77
45,94,29381,14
74,88,29464,24
50,88,29464,24
62,88,29488,136
44,88,29488,136
45,94,29488,143
62,88,29547,77
44,80,29547,77
45,94,29547,84
74,82,29624,91
50,82,29624,91
74,88,29632,83
50,88,29632,83
62,88,29721,85
44,80,29721,85
45,94,29721,90
62,88,29760,46
44,88,29760,46
45,94,29760,51
74,88,29812,78
50,88,29812,78
74,82,29896,136
62,88,29896,77
50,82,29896,136
44,80,29896,77
45,94,29896,43
74,88,29979,53
50,88,29979,53
62,88,30032,136
44,88,30032,136
45,94,30032,179
74,88,30144,76
50,88,30144,76
74,82,30168,52
50,82,30168,52
62,88,30226,75
44,80,30226,75
45,94,30226,80
62,88,30304,136
44,88,30304,136
45,94,30304,2
74,88,30307,76
50,88,30307,76
62,88,30389,51
44,80,30389,51
45,94,30389,82
74,82,30440,109
50,82,30440,109
74,88,30472,77
50,88,30472,77
62,88,30555,78
44,80,30555,78
45,94,30555,83
62,88,30576,57
44,88,30576,57
45,94,30576,62
74,88,30639,87
50,88,30639,87
74,82,30712,14
50,82,30712,14
62,88,30732,90
44,80,30732,90
45,94,30732,23
74,88,30828,20
50,88,30828,20
62,88,30848,136
44,88,30848,136
45,94,30848,146
62,88,30912,72
44,80,30912,72
45,94,30912,82
74,82,30984,88
50,82,30984,88
74,88,30995,77
50,88,30995,77
62,88,31078,76
44,80,31078,76
45,94,31078,81
62,88,31120,34
44,88,31120,34
45,94,31120,39
74,88,31160,76
50,88,31160,76
62,88,31242,14
44,80,31242,14
45,94,31242,57
74,82,31256,136
50,82,31256,136
74,88,31323,69
50,88,31323,69
62,88,31392,136
44,88,31392,136
45,94,31392,179
74,88,31488,77
50,88,31488,77
74,82,31528,37
50,82,31528,37
62,88,31571,78
44,80,31571,78
45,94,31571,83
74,88,31655,9
50,88,31655,9
62,88,31664,136
44,88,31664,136
45,94,31664,168
62,88,31743,57
44,80,31743,57
45,94,31743,89
74,82,31800,111
50,82,31800,111
74,88,31833,78
50,88,31833,78
62,88,31917,78
44,80,31917,78
45,94,31917,83
62,88,31936,59
44,88,31936,59
45,94,31936,64
74,88,32001,76
50,88,32001,76
74,82,32072,5
50,82,32072,5
62,88,32083,76
44,80,32083,76
45,94,32083,32
74,88,32165,43
50,88,32165,43
62,88,32208,115
44,88,32208,115
45,94,32208,120
62,88,32247,76
44,80,32247,76
45,94,32247,81
74,88,32329,77
50,88,32329,77
74,82,32344,62
50,82,32344,62
62,88,32412,76
44,80,32412,76
45,94,32412,81
62,88,32480,8
44,88,32480,8
45,94,32480,13
74,88,32494,77
50,88,32494,77
62,88,32577,39
44,80,32577,39
45,94,32577,82
74,82,32616,126
50,82,32616,126
74,88,32661,81
50,88,32661,81
40,88,32768,128
58,93,32778,126
41,95,32778,161
70,88,32896,79
46,81,32896,79
46,88,32896,79
70,82,32904,71
58,88,32981,77
40,79,32981,77
41,94,32981,82
40,88,33024,34
41,94,33024,39
58,88,33040,18
70,88,33064,77
46,88,33064,77
58,88,33147,29
40,79,33147,5
41,94,33147,48
46,81,33152,128
70,82,33176,130
70,88,33230,76
46,88,33230,50
40,88,33280,108
41,94,33280,113
58,88,33312,76
58,88,33312,76
40,79,33312,76
41,94,33312,81
70,88,33394,77
46,88,33394,77
46,81,33408,63
70,82,33448,23
58,88,33477,77
40,79,33477,77
41,94,33477,82
40,88,33536,18
41,94,33536,23
70,88,33560,24
46,88,33560,77
58,88,33584,136
58,88,33643,77
40,79,33643,21
41,94,33643,64
46,81,33664,128
70,82,33720,91
70,88,33728,83
46,88,33728,64
40,88,33792,110
41,95,33792,115
58,88,33817,85
40,79,33817,85
41,94,33817,90
58,88,33856,46
70,88,33908,78
46,88,33908,78
46,81,33920,66
70,82,33992,136
58,88,33992,77
40,79,33992,77
41,94,33992,82
40,88,34048,21
41,94,34048,26
70,88,34075,53
46,88,34075,77
58,88,34128,136
40,79,34158,18
41,94,34158,61
46,81,34176,128
70,88,34240,76
46,88,34240,64
70,82,34264,52
40,88,34304,93
41,94,34304,98
58,88,34322,75
40,79,34322,75
41,94,34322,80
58,88,34400,136
70,88,34403,76
46,88,34403,76
46,81,34432,47
58,88,34485,51
40,79,34485,77
41,94,34485,82
70,82,34536,109
40,88,34560,2
41,94,34560,7
70,88,34568,77
46,88,34568,77
58,88,34651,78
40,79,34651,37
41,94,34651,80
58,88,34672,57
46,81,34688,128
70,88,34735,87
46,88,34735,81
70,82,34808,14
40,88,34816,102
41,97,34816,107
58,88,34828,90
40,79,34828,90
41,94,34828,95
70,88,34924,20
46,88,34924,78
58,88,34944,136
46,81,34944,58
58,88,35008,72
40,79,35008,77
41,94,35008,82
40,88,35072,13
41,94,35072,18
70,82,35080,88
70,88,35091,77
46,88,35091,77
58,88,35174,76
40,79,35174,26
41,94,35174,69
46,81,35200,128
58,88,35216,34
70,88,35256,76
46,88,35256,72
40,88,35328,85
41,94,35328,90
58,88,35338,14
40,79,35338,75
41,94,35338,80
70,82,35352,136
70,88,35419,69
46,88,35419,76
46,81,35456,39
58,88,35488,136
40,79,35501,77
41,94,35501,82
70,88,35584,77
40,88,35584,128
41,94,35584,166
46,88,35584,77
70,82,35624,37
58,88,35667,78
40,79,35667,45
41,94,35667,83
46,81,35712,121
70,88,35751,9
46,88,35751,82
58,88,35760,136
58,88,35839,57
40,79,35839,84
41,94,35839,89
40,88,35840,83
41,95,35840,88
70,82,35896,111
70,88,35929,78
46,88,35929,78
46,81,35968,39
58,88,36013,78
40,79,36013,78
41,94,36013,83
58,88,36032,59
40,88,36096,128
41,94,36096,0
70,88,36097,76
46,88,36097,76
70,82,36168,5
58,88,36179,76
40,79,36179,45
41,94,36179,81
46,81,36224,113
70,88,36261,43
46,88,36261,76
58,88,36304,115
58,88,36343,76
40,79,36343,76
41,94,36343,81
40,88,36352,67
41,94,36352,72
70,88,36425,77
46,88,36425,77
70,82,36440,62
46,81,36480,22
58,88,36508,76
40,79,36508,76
41,94,36508,14
58,88,36576,8
70,88,36590,77
46,88,36590,18
40,88,36608,128
41,94,36608,148
58,88,36673,39
40,79,36673,63
41,94,36673,83
70,82,36712,126
46,81,36736,102
70,88,36757,81
46,88,36757,81
57,93,36864,128
39,88,36864,128
40,94,36864,170
69,82,36992,79
69,88,36992,79
45,81,36992,79
45,88,36992,79
57,88,37077,77
39,79,37077,77
40,93,37077,82
57,88,37120,34
39,88,37120,34
40,93,37120,39
69,88,37160,77
45,88,37160,77
57,88,37243,5
39,79,37243,5
40,93,37243,48
69,82,37248,128
45,81,37248,128
69,88,37326,50
45,88,37326,50
57,88,37376,108
39,88,37376,108
40,93,37376,113
57,88,37408,76
39,79,37408,76
40,93,37408,81
69,88,37490,77
45,88,37490,77
69,82,37504,63
45,81,37504,63
57,88,37573,77
39,79,37573,77
40,93,37573,82
57,88,37632,18
39,88,37632,18
40,93,37632,23
69,88,37656,77
45,88,37656,77
57,88,37739,21
39,79,37739,21
40,93,37739,64
69,82,37760,128
45,81,37760,128
69,88,37824,64
45,88,37824,64
57,89,37888,110
39,88,37888,110
40,94,37888,115
57,88,37913,85
39,79,37913,85
40,93,37913,90
69,88,38004,78
45,88,38004,78
69,82,38016,66
45,81,38016,66
57,88,38088,77
39,79,38088,77
40,93,38088,82
57,88,38144,21
39,88,38144,21
40,93,38144,26
69,88,38171,77
45,88,38171,77
57,88,38254,18
39,79,38254,18
40,93,38254,61
69,82,38272,128
45,81,38272,128
69,88,38336,64
45,88,38336,64
57,88,38400,93
39,88,38400,93
40,93,38400,98
57,88,38418,75
39,79,38418,75
40,93,38418,80
69,88,38499,76
45,88,38499,76
69,82,38528,47
45,81,38528,47
57,88,38581,77
39,79,38581,77
40,93,38581,82
57,88,38656,2
39,88,38656,2
40,93,38656,7
69,88,38664,77
45,88,38664,77
57,88,38747,37
39,79,38747,37
40,93,38747,80
69,82,38784,128
45,81,38784,128
69,88,38831,81
45,88,38831,81
57,91,38912,102
39,88,38912,102
40,96,38912,107
57,88,38924,90
39,79,38924,90
40,93,38924,95
69,88,39020,78
45,88,39020,78
69,82,39040,58
45,81,39040,58
57,88,39104,77
39,79,39104,77
40,93,39104,82
57,88,39168,13
39,88,39168,13
40,93,39168,18
69,88,39187,77
45,88,39187,77
57,88,39270,26
39,79,39270,26
40,93,39270,69
69,82,39296,128
45,81,39296,128
69,88,39352,72
45,88,39352,72
57,88,39424,85
39,88,39424,85
40,93,39424,90
57,88,39434,75
39,79,39434,75
40,93,39434,80
69,88,39515,76
45,88,39515,76
69,82,39552,39
45,81,39552,39
57,88,39597,77
39,79,39597,77
40,93,39597,82
57,88,39680,128
69,88,39680,77
39,88,39680,128
40,93,39680,166
45,88,39680,77
57,88,39763,45
39,79,39763,45
40,93,39763,83
69,82,39808,121
45,81,39808,121
69,88,39847,82
45,88,39847,82
57,88,39935,84
39,79,39935,84
40,93,39935,89
57,89,39936,83
39,88,39936,83
40,94,39936,88
69,88,40025,78
45,88,40025,78
69,82,40064,39
45,81,40064,39
57,88,40109,78
39,79,40109,78
40,93,40109,83
57,88,40192,128
39,88,40192,128
40,93,40192,0
69,88,40193,76
45,88,40193,76
57,88,40275,45
39,79,40275,45
40,93,40275,81
69,82,40320,113
45,81,40320,113
69,88,40357,76
45,88,40357,76
57,88,40439,76
39,79,40439,76
40,93,40439,81
57,88,40448,67
39,88,40448,67
40,93,40448,72
69,88,40521,77
45,88,40521,77
69,82,40576,22
45,81,40576,22
57,88,40604,76
39,79,40604,76
40,93,40604,15
69,88,40686,18
45,88,40686,18
57,88,40704,128
39,88,40704,128
40,93,40704,148
57,88,40769,63
39,79,40769,63
40,93,40769,83
69,82,40832,102
45,81,40832,102
69,88,40853,81
45,88,40853,81
61,93,40960,136
43,88,40960,136
44,95,40960,179
73,88,41088,79
49,88,41088,79
73,82,41096,71
49,82,41096,71
61,88,41173,77
43,80,41173,77
44,94,41173,82
61,88,41232,18
43,88,41232,18
44,94,41232,23
73,88,41256,77
49,88,41256,77
61,88,41339,29
43,80,41339,29
44,94,41339,72
73,82,41368,130
49,82,41368,130
73,88,41422,76
49,88,41422,76
61,88,41504,76
61,88,41504,76
43,88,41504,76
44,94,41504,81
43,80,41504,76
44,94,41504,81
73,88,41586,77
49,88,41586,77
73,82,41640,23
49,82,41640,23
61,88,41669,77
43,80,41669,77
44,94,41669,14
73,88,41752,24
49,88,41752,24
61,88,41776,136
43,88,41776,136
44,94,41776,143
61,88,41835,77
43,80,41835,77
44,94,41835,84
73,82,41912,91
49,82,41912,91
73,88,41920,83
49,88,41920,83
61,88,42009,85
43,80,42009,85
44,94,42009,90
61,88,42048,46
43,88,42048,46
44,94,42048,51
73,88,42100,78
49,88,42100,78
73,82,42184,136
61,88,42184,77
49,82,42184,136
43,80,42184,77
44,94,42184,43
73,88,42267,53
49,88,42267,53
61,88,42320,136
43,88,42320,136
44,94,42320,179
73,88,42432,76
49,88,42432,76
73,82,42456,52
49,82,42456,52
61,88,42514,75
43,80,42514,75
44,94,42514,80
61,88,42592,136
43,88,42592,136
44,94,42592,2
73,88,42595,76
49,88,42595,76
61,88,42677,51
43,80,42677,51
44,94,42677,82
73,82,42728,109
49,82,42728,109
73,88,42760,77
49,88,42760,77
61,88,42843,78
43,80,42843,78
44,94,42843,83
61,88,42864,57
43,88,42864,57
44,94,42864,62
73,88,42927,87
49,88,42927,87
73,82,43000,14
49,82,43000,14
61,88,43020,90
43,80,43020,90
44,94,43020,23
73,88,43116,20
49,88,43116,20
61,88,43136,136
43,88,43136,136
44,94,43136,146
61,88,43200,72
43,80,43200,72
44,94,43200,82
73,82,43272,88
49,82,43272,88
73,88,43283,77
49,88,43283,77
61,88,43366,76
43,80,43366,76
44,94,43366,81
61,88,43408,34
43,88,43408,34
44,94,43408,39
73,88,43448,76
49,88,43448,76
61,88,43530,14
43,80,43530,14
44,94,43530,57
73,82,43544,136
49,82,43544,136
73,88,43611,69
49,88,43611,69
61,88,43680,136
43,88,43680,136
44,94,43680,179
73,88,43776,77
49,88,43776,77
73,82,43816,37
49,82,43816,37
61,88,43859,78
43,80,43859,78
44,94,43859,83
73,88,43943,9
49,88,43943,9
61,88,43952,136
43,88,43952,136
44,94,43952,168
61,88,44031,57
43,80,44031,57
44,94,44031,89
73,82,44088,111
49,82,44088,111
73,88,44121,78
49,88,44121,78
61,88,44205,78
43,80,44205,78
44,94,44205,83
61,88,44224,59
43,88,44224,59
44,94,44224,64
73,88,44289,76
49,88,44289,76
73,82,44360,5
49,82,44360,5
61,88,44371,76
43,80,44371,76
44,94,44371,32
73,88,44453,43
49,88,44453,43
61,88,44496,115
43,88,44496,115
44,94,44496,120
61,88,44535,76
43,80,44535,76
44,94,44535,81
73,88,44617,77
49,88,44617,77
73,82,44632,62
49,82,44632,62
61,88,44700,76
43,80,44700,76
44,94,44700,81
61,88,44768,8
43,88,44768,8
44,94,44768,13
73,88,44782,77
49,88,44782,77
61,88,44865,39
43,80,44865,39
44,94,44865,82
73,82,44904,126
49,82,44904,126
73,88,44949,81
49,88,44949,81
61,93,45056,136
43,88,45056,136
44,95,45056,179
73,88,45184,79
49,88,45184,79
73,82,45192,71
49,82,45192,71
61,88,45269,77
43,80,45269,77
44,94,45269,82
61,88,45328,18
43,88,45328,18
44,94,45328,23
73,88,45352,77
49,88,45352,77
61,88,45435,29
43,80,45435,29
44,94,45435,72
73,82,45464,130
49,82,45464,130
73,88,45518,76
49,88,45518,76
61,88,45600,76
61,88,45600,76
43,88,45600,76
44,94,45600,81
43,80,45600,76
44,94,45600,81
73,88,45682,77
49,88,45682,77
73,82,45736,23
49,82,45736,23
61,88,45765,77
43,80,45765,77
44,94,45765,14
73,88,45848,24
49,88,45848,24
61,88,45872,136
43,88,45872,136
44,94,45872,143
61,88,45931,77
43,80,45931,77
44,94,45931,84
73,82,46008,91
49,82,46008,91
73,88,46016,83
49,88,46016,83
61,88,46105,85
43,80,46105,85
44,94,46105,90
61,88,46144,46
43,88,46144,46
44,94,46144,51
73,88,46196,78
49,88,46196,78
73,82,46280,136
61,88,46280,77
49,82,46280,136
43,80,46280,77
44,94,46280,43
73,88,46363,53
49,88,46363,53
61,88,46416,136
43,88,46416,136
44,94,46416,179
73,88,46528,76
49,88,46528,76
73,82,46552,52
49,82,46552,52
61,88,46610,75
43,80,46610,75
44,94,46610,80
61,88,46688,136
43,88,46688,136
44,94,46688,2
73,88,46691,76
49,88,46691,76
61,88,46773,51
43,80,46773,51
44,94,46773,82
73,82,46824,109
49,82,46824,109
73,88,46856,77
49,88,46856,77
61,88,46939,78
43,80,46939,78
44,94,46939,83
61,88,46960,57
43,88,46960,57
44,94,46960,62
73,88,47023,87
49,88,47023,87
73,82,47096,14
49,82,47096,14
61,88,47116,90
43,80,47116,90
44,94,47116,23
73,88,47212,20
49,88,47212,20
61,88,47232,136
43,88,47232,136
44,94,47232,146
61,88,47296,72
43,80,47296,72
44,94,47296,82
73,82,47368,88
49,82,47368,88
73,88,47379,77
49,88,47379,77
61,88,47462,76
43,80,47462,76
44,94,47462,81
61,88,47504,34
43,88,47504,34
44,94,47504,39
73,88,47544,76
49,88,47544,76
61,88,47626,14
43,80,47626,14
44,94,47626,57
73,82,47640,136
49,82,47640,136
73,88,47707,69
49,88,47707,69
61,88,47776,136
43,88,47776,136
44,94,47776,179
73,88,47872,77
49,88,47872,77
73,82,47912,37
49,82,47912,37
61,88,47955,78
43,80,47955,78
44,94,47955,83
73,88,48039,9
49,88,48039,9
61,88,48048,136
43,88,48048,136
44,94,48048,168
61,88,48127,57
43,80,48127,57
44,94,48127,89
73,82,48184,111
49,82,48184,111
73,88,48217,78
49,88,48217,78
61,88,48301,78
43,80,48301,78
44,94,48301,83
61,88,48320,59
43,88,48320,59
44,94,48320,64
73,88,48385,76
49,88,48385,76
73,82,48456,5
49,82,48456,5
61,88,48467,76
43,80,48467,76
44,94,48467,32
73,88,48549,43
49,88,48549,43
61,88,48592,115
43,88,48592,115
44,94,48592,120
61,88,48631,76
43,80,48631,76
44,94,48631,81
73,88,48713,77
49,88,48713,77
73,82,48728,62
49,82,48728,62
61,88,48796,76
43,80,48796,76
44,94,48796,81
61,88,48864,8
43,88,48864,8
44,94,48864,13
73,88,48878,77
49,88,48878,77
61,88,48961,39
43,80,48961,39
44,94,48961,82
73,82,49000,126
49,82,49000,126
73,88,49045,81
49,88,49045,81
58,93,49152,136
40,88,49152,136
41,95,49152,179
70,88,49280,79
46,88,49280,79
70,82,49288,71
46,81,49288,71
58,88,49365,77
40,79,49365,77
41,94,49365,82
58,88,49424,18
40,88,49424,18
41,94,49424,23
70,88,49448,77
46,88,49448,77
58,88,49531,29
40,79,49531,29
41,94,49531,72
70,82,49560,130
46,81,49560,130
70,88,49614,76
46,88,49614,76
58,88,49696,76
58,88,49696,76
40,88,49696,76
41,94,49696,81
40,79,49696,76
41,94,49696,81
70,88,49778,77
46,88,49778,77
70,82,49832,23
46,81,49832,23
58,88,49861,77
40,79,49861,77
41,94,49861,14
70,88,49944,24
46,88,49944,24
58,88,49968,136
40,88,49968,136
41,94,49968,143
58,88,50027,77
40,79,50027,77
41,94,50027,84
70,82,50104,91
46,81,50104,91
70,88,50112,83
46,88,50112,83
58,88,50201,85
40,79,50201,85
41,94,50201,90
58,88,50240,46
40,88,50240,46
41,94,50240,51
70,88,50292,78
46,88,50292,78
70,82,50376,136
58,88,50376,77
46,81,50376,136
40,79,50376,77
41,94,50376,43
70,88,50459,53
46,88,50459,53
58,88,50512,136
40,88,50512,136
41,94,50512,179
70,88,50624,76
46,88,50624,76
70,82,50648,52
46,81,50648,52
58,88,50706,75
40,79,50706,75
41,94,50706,80
58,88,50784,136
40,88,50784,136
41,94,50784,2
70,88,50787,76
46,88,50787,76
58,88,50869,51
40,79,50869,51
41,94,50869,82
70,82,50920,109
46,81,50920,109
70,88,50952,77
46,88,50952,77
58,88,51035,78
40,79,51035,78
41,94,51035,83
58,88,51056,57
40,88,51056,57
41,94,51056,62
70,88,51119,87
46,88,51119,87
70,82,51192,14
46,81,51192,14
58,88,51212,90
40,79,51212,90
41,94,51212,23
70,88,51308,20
46,88,51308,20
58,88,51328,136
40,88,51328,136
41,94,51328,146
58,88,51392,72
40,79,51392,72
41,94,51392,82
70,82,51464,88
46,81,51464,88
70,88,51475,77
46,88,51475,77
58,88,51558,76
40,79,51558,76
41,94,51558,81
58,88,51600,34
40,88,51600,34
41,94,51600,39
70,88,51640,76
46,88,51640,76
58,88,51722,14
40,79,51722,14
41,94,51722,57
70,82,51736,136
46,81,51736,136
70,88,51803,69
46,88,51803,69
58,88,51872,136
40,88,51872,136
41,94,51872,179
70,88,51968,77
46,88,51968,77
70,82,52008,37
46,81,52008,37
58,88,52051,78
40,79,52051,78
41,94,52051,83
70,88,52135,9
46,88,52135,9
58,88,52144,136
40,88,52144,136
41,94,52144,168
58,88,52223,57
40,79,52223,57
41,94,52223,89
70,82,52280,111
46,81,52280,111
70,88,52313,78
46,88,52313,78
58,88,52397,78
40,79,52397,78
41,94,52397,83
58,88,52416,59
40,88,52416,59
41,94,52416,64
70,88,52481,76
46,88,52481,76
70,82,52552,5
46,81,52552,5
58,88,52563,76
40,79,52563,76
41,94,52563,32
70,88,52645,43
46,88,52645,43
58,88,52688,115
40,88,52688,115
41,94,52688,120
58,88,52727,76
40,79,52727,76
41,94,52727,81
70,88,52809,77
46,88,52809,77
70,82,52824,62
46,81,52824,62
58,88,52892,76
40,79,52892,76
41,94,52892,81
58,88,52960,8
40,88,52960,8
41,94,52960,13
70,88,52974,77
46,88,52974,77
58,88,53057,39
40,79,53057,39
41,94,53057,81
70,82,53096,126
46,81,53096,126
70,88,53141,81
46,88,53141,81
57,93,53248,128
39,88,53248,128
40,94,53248,170
69,82,53376,79
69,88,53376,79
45,81,53376,79
45,88,53376,79
57,88,53461,77
39,79,53461,77
40,93,53461,82
57,88,53504,34
39,88,53504,34
40,93,53504,39
69,88,53544,77
45,88,53544,77
57,88,53627,5
39,79,53627,5
40,93,53627,48
69,82,53632,128
45,81,53632,128
69,88,53710,50
45,88,53710,50
57,88,53760,108
39,88,53760,108
40,93,53760,113
57,88,53792,76
39,79,53792,76
40,93,53792,81
69,88,53874,77
45,88,53874,77
69,82,53888,63
45,81,53888,63
57,88,53957,77
39,79,53957,77
40,93,53957,82
57,88,54016,18
39,88,54016,18
40,93,54016,23
69,88,54040,77
45,88,54040,77
57,88,54123,21
39,79,54123,21
40,93,54123,64
69,82,54144,128
45,81,54144,128
69,88,54208,64
45,88,54208,64
57,89,54272,110
39,88,54272,110
40,94,54272,115
57,88,54297,85
39,79,54297,85
40,93,54297,90
69,88,54388,78
45,88,54388,78
69,82,54400,66
45,81,54400,66
57,88,54472,77
39,79,54472,77
40,93,54472,82
57,88,54528,21
39,88,54528,21
40,93,54528,26
69,88,54555,77
45,88,54555,77
57,88,54638,18
39,79,54638,18
40,93,54638,61
69,82,54656,128
45,81,54656,128
69,88,54720,64
45,88,54720,64
57,88,54784,93
39,88,54784,93
40,93,54784,98
57,88,54802,75
39,79,54802,75
40,93,54802,80
69,88,54883,76
45,88,54883,76
69,82,54912,47
45,81,54912,47
57,88,54965,77
39,79,54965,77
40,93,54965,82
57,88,55040,2
39,88,55040,2
40,93,55040,7
69,88,55048,77
45,88,55048,77
57,88,55131,37
39,79,55131,37
40,93,55131,80
69,82,55168,128
45,81,55168,128
69,88,55215,81
45,88,55215,81
57,91,55296,102
39,88,55296,102
40,96,55296,107
57,88,55308,90
39,79,55308,90
40,93,55308,95
69,88,55404,78
45,88,55404,78
69,82,55424,58
45,81,55424,58
57,88,55488,77
39,79,55488,77
40,93,55488,82
57,88,55552,13
39,88,55552,13
40,93,55552,18
69,88,55571,77
45,88,55571,77
57,88,55654,26
39,79,55654,26
40,93,55654,69
69,82,55680,128
45,81,55680,128
69,88,55736,72
45,88,55736,72
57,88,55808,85
39,88,55808,85
40,93,55808,90
57,88,55818,75
39,79,55818,75
40,93,55818,80
69,88,55899,76
45,88,55899,76
69,82,55936,39
45,81,55936,39
57,88,55981,77
39,79,55981,77
40,93,55981,82
57,88,56064,128
69,88,56064,77
39,88,56064,128
40,93,56064,166
45,88,56064,77
57,88,56147,45
39,79,56147,45
40,93,56147,83
69,82,56192,121
45,81,56192,121
69,88,56231,82
45,88,56231,82
57,88,56319,84
39,79,56319,84
40,93,56319,89
57,89,56320,83
39,88,56320,83
40,94,56320,88
69,88,56409,78
45,88,56409,78
69,82,56448,39
45,81,56448,39
57,88,56493,78
39,79,56493,78
40,93,56493,83
57,88,56576,128
39,88,56576,128
40,93,56576,0
69,88,56577,76
45,88,56577,76
57,88,56659,45
39,79,56659,45
40,93,56659,81
69,82,56704,113
45,81,56704,113
69,88,56741,76
45,88,56741,76
57,88,56823,76
39,79,56823,76
40,93,56823,81
57,88,56832,67
39,88,56832,67
40,93,56832,72
69,88,56905,77
45,88,56905,77
69,82,56960,22
45,81,56960,22
57,88,56988,76
39,79,56988,76
40,93,56988,15
69,88,57070,18
45,88,57070,18
57,88,57088,128
39,88,57088,128
40,93,57088,148
57,88,57153,63
39,79,57153,63
40,93,57153,83
69,82,57216,102
45,81,57216,102
69,88,57237,81
45,88,57237,81
62,93,57344,136
44,88,57344,136
45,95,57344,43
74,88,57472,79
50,88,57472,79
74,82,57480,71
50,82,57480,71
62,88,57557,77
44,80,57557,77
45,94,57557,82
62,88,57616,18
44,88,57616,18
45,94,57616,23
74,88,57640,77
50,88,57640,77
62,88,57723,29
44,80,57723,29
45,94,57723,72
74,82,57752,130
50,82,57752,130
74,88,57806,76
50,88,57806,76
62,88,57888,76
62,88,57888,76
44,88,57888,76
45,94,57888,81
44,80,57888,76
45,94,57888,81
74,88,57970,77
50,88,57970,77
74,82,58024,23
50,82,58024,23
62,88,58053,77
44,80,58053,77
45,94,58053,14
74,88,58136,24
50,88,58136,24
62,88,58160,136
44,88,58160,136
45,94,58160,143
62,88,58219,77
44,80,58219,77
45,94,58219,84
74,82,58296,91
50,82,58296,91
74,88,58304,83
50,88,58304,83
62,88,58393,85
44,80,58393,85
45,94,58393,90
62,88,58432,46
44,88,58432,46
45,94,58432,51
74,88,58484,78
50,88,58484,78
74,82,58568,136
62,88,58568,77
50,82,58568,136
44,80,58568,77
45,94,58568,43
74,88,58651,53
50,88,58651,53
62,88,58704,136
44,88,58704,136
45,94,58704,179
74,88,58816,76
50,88,58816,76
74,82,58840,52
50,82,58840,52
62,88,58898,75
44,80,58898,75
45,94,58898,80
62,88,58976,136
44,88,58976,136
45,94,58976,2
74,88,58979,76
50,88,58979,76
62,88,59061,51
44,80,59061,51
45,94,59061,82
74,82,59112,109
50,82,59112,109
74,88,59144,77
50,88,59144,77
62,88,59227,78
44,80,59227,78
45,94,59227,83
62,88,59248,57
44,88,59248,57
45,94,59248,62
74,88,59311,87
50,88,59311,87
74,82,59384,14
50,82,59384,14
62,88,59404,90
44,80,59404,90
45,94,59404,23
74,88,59500,20
50,88,59500,20
62,88,59520,136
44,88,59520,136
45,94,59520,146
62,88,59584,72
44,80,59584,72
45,94,59584,82
74,82,59656,88
50,82,59656,88
74,88,59667,77
50,88,59667,77
62,88,59750,76
44,80,59750,76
45,94,59750,81
62,88,59792,34
44,88,59792,34
45,94,59792,39
74,88,59832,76
50,88,59832,76
62,88,59914,14
44,80,59914,14
45,94,59914,57
74,82,59928,136
50,82,59928,136
74,88,59995,69
50,88,59995,69
62,88,60064,136
44,88,60064,136
45,94,60064,179
74,88,60160,77
50,88,60160,77
74,82,60200,37
50,82,60200,37
62,88,60243,78
44,80,60243,78
45,94,60243,83
74,88,60327,9
50,88,60327,9
62,88,60336,136
44,88,60336,136
45,94,60336,168
62,88,60415,57
44,80,60415,57
45,94,60415,89
74,82,60472,111
50,82,60472,111
74,88,60505,78
50,88,60505,78
62,88,60589,78
44,80,60589,78
45,94,60589,83
62,88,60608,59
44,88,60608,59
45,94,60608,64
74,88,60673,76
50,88,60673,76
74,82,60744,5
50,82,60744,5
62,88,60755,76
44,80,60755,76
45,94,60755,32
74,88,60837,43
50,88,60837,43
62,88,60880,115
44,88,60880,115
45,94,60880,120
62,88,60919,76
44,80,60919,76
45,94,60919,81
74,88,61001,77
50,88,61001,77
74,82,61016,62
50,82,61016,62
62,88,61084,76
44,80,61084,76
45,94,61084,81
62,88,61152,8
44,88,61152,8
45,94,61152,13
74,88,61166,77
50,88,61166,77
62,88,61249,39
44,80,61249,39
45,94,61249,82
74,82,61288,126
50,82,61288,126
74,88,61333,81
50,88,61333,81
62,93,61440,136
44,88,61440,136
45,95,61440,179
74,88,61568,79
50,88,61568,79
74,82,61576,71
50,82,61576,71
62,88,61653,77
44,80,61653,77
45,94,61653,82
62,88,61712,18
44,88,61712,18
45,94,61712,23
74,88,61736,77
50,88,61736,77
62,88,61819,29
44,80,61819,29
45,94,61819,72
74,82,61848,130
50,82,61848,130
74,88,61902,76
50,88,61902,76
62,88,61984,76
62,88,61984,76
44,88,61984,76
45,94,61984,81
44,80,61984,76
45,94,61984,81
74,88,62066,77
50,88,62066,77
74,82,62120,23
50,82,62120,23
62,88,62149,77
44,80,62149,77
45,94,62149,14
74,88,62232,24
50,88,62232,24
62,88,62256,136
44,88,62256,136
45,94,62256,143
62,88,62315,77
44,80,62315,77
45,94,62315,84
74,82,62392,91
50,82,62392,91
74,88,62400,83
50,88,62400,83
62,88,62489,85
44,80,62489,85
45,94,62489,90
62,88,62528,46
44,88,62528,46
45,94,62528,51
74,88,62580,78
50,88,62580,78
74,82,62664,136
62,88,62664,77
50,82,62664,136
44,80,62664,77
45,94,62664,43
74,88,62747,53
50,88,62747,53
62,88,62800,136
44,88,62800,136
45,94,62800,179
74,88,62912,76
50,88,62912,76
74,82,62936,52
50,82,62936,52
62,88,62994,75
44,80,62994,75
45,94,62994,80
62,88,63072,136
44,88,63072,136
45,94,63072,2
74,88,63075,76
50,88,63075,76
62,88,63157,51
44,80,63157,51
45,94,63157,82
74,82,63208,109
50,82,63208,109
74,88,63240,77
50,88,63240,77
62,88,63323,78
44,80,63323,78
45,94,63323,83
62,88,63344,57
44,88,63344,57
45,94,63344,62
74,88,63407,87
50,88,63407,87
74,82,63480,14
50,82,63480,14
62,88,63500,90
44,80,63500,90
45,94,63500,23
74,88,63596,20
50,88,63596,20
62,88,63616,136
44,88,63616,136
45,94,63616,146
62,88,63680,72
44,80,63680,72
45,94,63680,82
74,82,63752,88
50,82,63752,88
74,88,63763,77
50,88,63763,77
62,88,63846,76
44,80,63846,76
45,94,63846,81
62,88,63888,34
44,88,63888,34
45,94,63888,39
74,88,63928,76
50,88,63928,76
62,88,64010,14
44,80,64010,14
45,94,64010,57
74,82,64024,136
50,82,64024,136
74,88,64091,69
50,88,64091,69
62,88,64160,136
44,88,64160,136
45,94,64160,179
74,88,64256,77
50,88,64256,77
74,82,64296,37
50,82,64296,37
62,88,64339,78
44,80,64339,78
45,94,64339,83
74,88,64423,9
50,88,64423,9
62,88,64432,136
44,88,64432,136
45,94,64432,168
62,88,64511,57
44,80,64511,57
45,94,64511,89
74,82,64568,111
50,82,64568,111
74,88,64601,78
50,88,64601,78
62,88,64685,78
44,80,64685,78
45,94,64685,83
62,88,64704,59
44,88,64704,59
45,94,64704,64
74,88,64769,76
50,88,64769,76
74,82,64840,5
50,82,64840,5
62,88,64851,76
44,80,64851,76
45,94,64851,32
74,88,64933,43
50,88,64933,43
62,88,64976,115
44,88,64976,115
45,94,64976,120
62,88,65015,76
44,80,65015,76
45,94,65015,81
74,88,65097,77
50,88,65097,77
74,82,65112,62
50,82,65112,62
62,88,65180,76
44,80,65180,76
45,94,65180,81
62,88,65248,8
44,88,65248,8
45,94,65248,13
74,88,65262,77
50,88,65262,77
62,88,65345,39
44,80,65345,39
45,94,65345,82
74,82,65384,126
50,82,65384,126
74,88,65429,81
50,88,65429,81
