note,velocity,position,duration
72,72,10,535
77,86,10,535
41,85,10,132
48,80,297,94
68,67,546,200
72,81,546,200
46,80,546,94
48,80,795,104
65,73,1054,197
68,87,1054,197
41,81,1054,103
48,80,1312,92
60,72,1559,202
65,86,1559,202
46,80,1559,93
48,80,1807,107
37,82,2069,108
68,72,2332,276
71,86,2332,246
47,80,2332,92
65,67,2579,284
70,81,2579,197
46,80,2579,93
47,80,2827,102
67,73,3084,241
70,87,3084,256
36,79,3084,102
64,72,3341,232
68,86,3341,247
48,80,3341,93
58,72,3589,232
63,86,3589,247
43,80,3589,93
61,72,3837,243
64,86,3837,258
46,80,3837,104
41,85,4100,138
68,72,4393,233
72,86,4393,248
48,80,4393,94
65,72,4642,233
70,86,4642,248
46,80,4642,94
63,72,4891,243
68,86,4891,258
48,80,4891,104
67,73,5150,242
70,87,5150,257
43,81,5150,103
68,72,5408,231
72,86,5408,246
48,80,5408,92
55,72,5655,232
63,86,5655,247
46,80,5655,93
56,72,5903,246
65,86,5903,261
48,80,5903,107
60,75,6165,247
68,89,6165,262
44,83,6165,108
56,72,6428,231
65,86,6428,246
48,80,6428,92
55,72,6675,232
63,86,6675,247
46,80,6675,93
68,72,6923,498
77,86,6923,513
48,80,6923,102
46,81,7180,102
75,80,7437,232
49,80,7437,93
72,80,7685,137
48,80,7685,93
70,80,7808,139
68,75,7933,209
49,80,7933,104
65,85,8196,511
37,84,8196,138
44,80,8489,94
61,68,8738,200
43,80,8738,94
44,80,8987,104
67,81,9246,474
37,80,9246,103
46,80,9504,92
61,68,9751,202
44,80,9751,93
46,80,9999,107
68,83,10261,479
37,82,10261,108
48,80,10524,92
61,68,10771,197
46,80,10771,93
48,80,11019,102
70,81,11276,474
37,80,11276,102
49,80,11533,93
61,68,11781,199
48,80,11781,93
49,80,12029,104
68,61,12292,511
72,75,12292,541
36,67,12292,435
61,56,12834,477
70,70,12834,507
72,57,13342,504
77,71,13342,504
65,56,13847,479
72,70,13847,509
36,62,13847,202
70,59,14357,479
76,73,14357,509
36,65,14357,1014
68,56,14867,474
73,70,14867,504
67,57,15372,1011
72,71,15372,1011
48,65,15629,232
50,70,15877,232
52,75,16125,243
77,85,16388,138
53,80,16388,602
41,85,16388,435
84,80,16681,94
82,80,16930,94
48,75,16930,287
84,80,17179,104
77,81,17438,103
44,81,17438,197
41,81,17438,400
84,80,17696,92
82,80,17943,93
41,80,17943,202
84,80,18191,107
73,83,18453,108
37,82,18453,400
83,80,18716,92
47,80,18716,276
82,80,18963,93
46,75,18963,197
83,80,19211,102
75,81,19468,102
46,81,19468,241
36,79,19468,397
84,80,19725,93
44,80,19725,232
79,80,19973,93
39,79,19973,232
82,80,20221,104
40,79,20221,243
77,85,20484,138
41,85,20484,435
84,80,20777,94
48,80,20777,233
82,80,21026,94
46,80,21026,233
84,80,21275,104
44,80,21275,243
79,81,21534,103
46,81,21534,242
43,81,21534,400
84,80,21792,92
48,80,21792,231
82,80,22039,93
39,79,22039,232
84,80,22287,107
41,80,22287,246
80,83,22549,108
44,83,22549,400
84,80,22812,92
41,80,22812,231
82,80,23059,93
39,79,23059,232
84,80,23307,102
53,80,23307,498
82,81,23564,102
46,81,23564,397
85,80,23821,93
51,80,23821,232
84,80,24069,93
48,80,24069,137
46,80,24192,139
85,80,24317,104
44,75,24317,209
73,85,24580,138
41,85,24580,511
80,80,24873,94
79,80,25122,94
37,67,25122,200
80,80,25371,104
73,81,25630,103
43,81,25630,474
82,80,25888,92
80,80,26135,93
37,67,26135,202
82,80,26383,107
73,83,26645,108
44,83,26645,479
84,80,26908,92
82,80,27155,93
37,67,27155,197
84,80,27403,102
73,81,27660,102
46,81,27660,474
85,80,27917,93
84,80,28165,93
37,67,28165,199
85,80,28413,104
68,61,28676,511
72,75,28676,541
36,67,28676,435
61,56,29218,477
70,70,29218,507
72,57,29726,504
77,71,29726,504
65,56,30231,479
72,70,30231,509
36,62,30231,202
70,59,30741,479
76,73,30741,509
36,65,30741,1014
68,56,31251,474
73,70,31251,504
67,57,31756,915
72,71,31756,915
48,66,32013,232
50,74,32261,232
52,83,32509,243
72,72,32778,535
77,86,32778,535
41,85,32778,132
48,80,33065,94
68,67,33314,200
72,81,33314,200
46,80,33314,94
48,80,33563,104
65,73,33822,197
68,87,33822,197
41,81,33822,103
48,80,34080,92
60,72,34327,202
65,86,34327,202
46,80,34327,93
48,80,34575,107
37,82,34837,108
68,72,35100,276
71,86,35100,246
47,80,35100,92
65,67,35347,284
70,81,35347,197
46,80,35347,93
47,80,35595,102
67,73,35852,241
70,87,35852,256
36,79,35852,102
64,72,36109,232
68,86,36109,247
48,80,36109,93
58,72,36357,232
63,86,36357,247
43,80,36357,93
61,72,36605,243
64,86,36605,258
46,80,36605,104
41,85,36868,138
68,72,37161,233
72,86,37161,248
48,80,37161,94
65,72,37410,233
70,86,37410,248
46,80,37410,94
63,72,37659,243
68,86,37659,258
48,80,37659,104
67,73,37918,242
70,87,37918,257
43,81,37918,103
68,72,38176,231
72,86,38176,246
48,80,38176,92
55,72,38423,232
63,86,38423,247
46,80,38423,93
56,72,38671,246
65,86,38671,261
48,80,38671,107
60,75,38933,247
68,89,38933,262
44,83,38933,108
56,72,39196,231
65,86,39196,246
48,80,39196,92
55,72,39443,232
63,86,39443,247
46,80,39443,93
68,72,39691,498
77,86,39691,513
48,80,39691,102
46,81,39948,102
75,80,40205,232
49,80,40205,93
72,80,40453,137
48,80,40453,93
70,80,40576,139
68,75,40701,209
49,80,40701,104
65,85,40964,511
37,84,40964,138
44,80,41257,94
61,68,41506,200
43,80,41506,94
44,80,41755,104
67,81,42014,474
37,80,42014,103
46,80,42272,92
61,68,42519,202
44,80,42519,93
46,80,42767,107
68,83,43029,479
37,82,43029,108
48,80,43292,92
61,68,43539,197
46,80,43539,93
48,80,43787,102
70,81,44044,474
37,80,44044,102
49,80,44301,93
61,68,44549,199
48,80,44549,93
49,80,44797,104
68,61,45060,511
72,75,45060,541
36,67,45060,435
61,56,45602,477
70,70,45602,507
72,57,46110,504
77,71,46110,504
65,56,46615,479
72,70,46615,509
36,62,46615,202
70,59,47125,479
76,73,47125,509
36,65,47125,1014
68,56,47635,474
73,70,47635,504
67,57,48140,1011
72,71,48140,1011
48,65,48397,232
50,70,48645,232
52,75,48893,243
77,85,49156,138
53,80,49156,602
41,85,49156,435
84,80,49449,94
82,80,49698,94
48,75,49698,287
84,80,49947,104
77,81,50206,103
44,81,50206,197
41,81,50206,400
84,80,50464,92
82,80,50711,93
41,80,50711,202
84,80,50959,107
73,83,51221,108
37,82,51221,400
83,80,51484,92
47,80,51484,276
82,80,51731,93
46,75,51731,197
83,80,51979,102
75,81,52236,102
46,81,52236,241
36,79,52236,397
84,80,52493,93
44,80,52493,232
79,80,52741,93
39,79,52741,232
82,80,52989,104
40,79,52989,243
77,85,53252,138
41,85,53252,435
84,80,53545,94
48,80,53545,233
82,80,53794,94
46,80,53794,233
84,80,54043,104
44,80,54043,243
79,81,54302,103
46,81,54302,242
43,81,54302,400
84,80,54560,92
48,80,54560,231
82,80,54807,93
39,79,54807,232
84,80,55055,107
41,80,55055,246
80,83,55317,108
44,83,55317,400
84,80,55580,92
41,80,55580,231
82,80,55827,93
39,79,55827,232
84,80,56075,102
53,80,56075,498
82,81,56332,102
46,81,56332,397
85,80,56589,93
51,80,56589,232
84,80,56837,93
48,80,56837,137
46,80,56960,139
85,80,57085,104
44,75,57085,209
73,85,57348,138
41,85,57348,511
80,80,57641,94
79,80,57890,94
37,67,57890,200
80,80,58139,104
73,81,58398,103
43,81,58398,474
82,80,58656,92
80,80,58903,93
37,67,58903,202
82,80,59151,107
73,83,59413,108
44,83,59413,479
84,80,59676,92
82,80,59923,93
37,67,59923,197
84,80,60171,102
73,81,60428,102
46,81,60428,474
85,80,60685,93
84,80,60933,93
37,67,60933,199
85,80,61181,104
68,61,61444,511
72,75,61444,541
48,69,61444,511
65,56,61986,507
70,70,61986,507
41,64,61986,477
65,59,62494,504
72,59,62494,474
77,73,62494,504
53,67,62494,474
60,63,62999,479
65,63,62999,479
72,77,62999,509
41,71,62999,479
70,68,63509,479
76,82,63509,509
52,76,63509,479
68,73,64019,474
73,87,64019,504
49,81,64019,474
67,78,64524,241
72,92,64524,256
48,86,64524,474
73,80,64781,232
85,94,64781,247
72,83,65029,232
84,97,65029,247
51,79,65029,262
73,85,65277,243
85,99,65277,258
52,81,65277,273
72,93,65540,511
84,107,65540,541
41,81,65540,307
53,95,65540,292
48,84,65833,94
68,88,66082,477
80,102,66082,507
49,84,66082,94
48,84,66331,104
65,89,66590,242
77,103,66590,257
41,85,66590,272
68,96,66848,231
48,84,66848,92
60,88,67095,232
72,102,67095,247
53,84,67095,93
65,96,67343,246
48,84,67343,107
68,91,67605,479
80,105,67605,509
46,87,67605,277
53,84,67868,92
65,88,68115,232
77,102,68115,247
56,84,68115,93
67,88,68363,1268
79,102,68363,1268
53,84,68363,102
46,85,68620,271
53,84,68877,93
55,84,69125,93
53,84,69373,104
68,93,69636,511
80,107,69636,541
49,89,69636,307
53,84,69929,94
65,88,70178,233
77,102,70178,248
56,84,70178,94
67,88,70427,1273
79,102,70427,1273
53,84,70427,104
49,85,70686,272
53,84,70944,92
55,84,71191,93
53,84,71439,107
68,91,71701,479
80,105,71701,509
48,87,71701,277
53,84,71964,92
65,88,72211,232
77,102,72211,247
56,84,72211,93
67,88,72459,498
79,102,72459,513
53,84,72459,102
48,85,72716,271
73,88,72973,232
85,102,72973,247
52,84,72973,93
72,88,73221,232
84,102,73221,247
55,84,73221,93
73,88,73469,243
85,102,73469,258
52,84,73469,104
72,93,73732,511
84,107,73732,541
41,89,73732,307
48,84,74025,94
68,88,74274,477
80,102,74274,507
49,84,74274,94
48,84,74523,104
65,89,74782,242
77,103,74782,257
41,85,74782,272
68,96,75040,231
48,84,75040,92
60,88,75287,232
72,102,75287,247
53,84,75287,93
65,96,75535,246
48,84,75535,107
68,91,75797,479
80,105,75797,509
46,87,75797,277
53,84,76060,92
70,88,76307,232
82,102,76307,247
56,84,76307,93
67,88,76555,1268
79,102,76555,1268
53,84,76555,102
46,85,76812,271
53,84,77069,93
55,84,77317,93
53,84,77565,104
68,93,77828,511
80,107,77828,541
49,89,77828,307
53,84,78121,94
70,88,78370,233
82,102,78370,248
56,84,78370,94
67,88,78619,1273
79,102,78619,1273
53,84,78619,104
49,85,78878,272
53,84,79136,92
55,84,79383,93
53,84,79631,107
68,91,79893,479
80,105,79893,509
48,87,79893,277
53,84,80156,92
70,88,80403,232
82,102,80403,247
56,84,80403,93
72,88,80651,498
84,102,80651,513
53,84,80651,102
48,85,80908,271
73,88,81165,232
85,102,81165,247
52,84,81165,93
72,88,81413,232
84,102,81413,247
55,84,81413,93
73,88,81661,243
85,102,81661,258
52,84,81661,104
72,93,81924,511
80,93,81924,511
84,107,81924,541
41,89,81924,307
48,84,82217,94
68,88,82466,477
77,88,82466,477
80,102,82466,507
49,84,82466,94
48,84,82715,104
65,89,82974,242
72,89,82974,242
77,103,82974,257
41,85,82974,272
68,96,83232,246
48,84,83232,92
60,88,83479,232
68,88,83479,247
72,102,83479,247
53,84,83479,93
65,96,83727,246
48,84,83727,107
68,91,83989,479
77,91,83989,479
80,105,83989,509
46,87,83989,277
53,84,84252,92
65,88,84499,232
72,88,84499,232
77,102,84499,247
56,84,84499,93
67,88,84747,1268
73,88,84747,1268
79,102,84747,1268
53,84,84747,102
46,85,85004,271
53,84,85261,93
55,84,85509,93
53,84,85757,104
68,93,86020,511
77,93,86020,511
80,107,86020,541
49,89,86020,307
53,84,86313,94
65,88,86562,233
72,88,86562,233
77,102,86562,248
56,84,86562,94
67,88,86811,1273
73,88,86811,1273
79,102,86811,1273
53,84,86811,104
49,85,87070,272
53,84,87328,92
55,84,87575,93
53,84,87823,107
68,91,88085,479
77,91,88085,479
80,105,88085,509
48,87,88085,277
53,84,88348,92
65,88,88595,232
72,88,88595,232
77,102,88595,247
56,84,88595,93
67,88,88843,498
76,88,88843,498
79,102,88843,513
53,84,88843,102
48,85,89100,271
73,88,89357,232
85,102,89357,247
52,84,89357,93
72,88,89605,232
84,102,89605,247
55,84,89605,93
73,88,89853,243
85,102,89853,258
52,84,89853,104
72,93,90116,511
84,107,90116,541
41,89,90116,307
48,84,90409,94
77,88,90658,477
89,102,90658,507
49,84,90658,94
48,84,90907,104
70,89,91166,242
82,103,91166,257
41,85,91166,272
72,96,91424,231
48,84,91424,92
68,88,91671,232
80,102,91671,247
53,84,91671,93
72,96,91919,246
48,84,91919,107
70,91,92181,247
82,105,92181,262
42,87,92181,277
68,88,92444,187
80,102,92444,187
48,84,92444,92
49,84,92691,93
70,88,92939,731
82,102,92939,761
48,84,92939,102
42,85,93196,271
48,84,93453,93
68,88,93701,232
80,102,93701,247
49,84,93701,93
70,88,93949,243
82,102,93949,258
54,84,93949,104
71,93,94212,277
83,107,94212,292
49,89,94212,307
70,88,94505,233
82,102,94505,248
53,84,94505,94
68,88,94754,200
80,102,94754,200
56,84,94754,94
53,84,95003,104
64,89,95262,197
76,103,95262,197
48,85,95262,272
52,84,95520,92
60,88,95767,202
72,102,95767,202
55,84,95767,93
52,84,96015,107
61,91,96277,202
73,105,96277,202
49,87,96277,277
56,84,96540,92
64,88,96787,197
76,102,96787,197
48,84,96787,93
55,84,97035,102
65,89,97292,1011
77,103,97292,1011
53,97,97292,474
41,96,97797,506
84,101,98308,511
41,101,98308,277
48,80,98601,94
80,80,98850,477
49,80,98850,94
48,80,99099,104
77,81,99358,242
41,81,99358,242
80,80,99616,231
48,80,99616,92
72,80,99863,232
53,80,99863,93
77,80,100111,246
48,80,100111,107
80,83,100373,479
46,83,100373,247
53,80,100636,92
77,80,100883,474
56,80,100883,93
53,80,101131,102
73,81,101388,241
46,81,101388,474
77,80,101645,232
53,80,101645,93
68,80,101893,232
55,80,101893,93
48,80,101893,476
73,80,102141,258
53,80,102141,104
73,85,102404,277
49,85,102404,277
68,80,102697,233
53,80,102697,94
80,80,102946,233
61,80,102946,94
73,80,103195,243
56,80,103195,104
79,81,103454,242
49,81,103454,474
51,80,103680,128
80,80,103712,231
52,80,103808,128
53,75,103944,451
77,80,103959,232
79,80,104207,246
76,83,104469,479
52,83,104469,247
53,80,104732,92
77,80,104979,232
48,80,104979,93
76,80,105227,241
43,80,105227,102
79,81,105484,241
48,81,105484,474
77,80,105741,232
76,80,105989,232
52,80,105989,476
79,80,106237,243
77,85,106500,138
53,85,106500,277
72,80,106793,94
48,80,106793,94
77,80,107042,94
49,80,107042,94
79,80,107291,104
48,80,107291,104
80,81,107550,103
41,81,107550,242
77,80,107808,92
48,80,107808,92
80,80,108055,93
53,80,108055,93
82,80,108303,107
48,80,108303,107
84,83,108565,108
46,83,108565,247
82,80,108828,92
53,80,108828,92
80,80,109075,93
56,80,109075,93
79,80,109323,102
58,80,109323,513
80,81,109580,102
46,73,109580,241
79,80,109837,93
56,80,109837,93
77,80,110085,93
55,80,110085,93
79,80,110333,104
53,80,110333,104
77,85,110596,277
49,85,110596,277
80,80,110889,233
53,80,110889,94
87,81,111138,477
56,81,111138,94
53,82,111387,104
85,83,111646,242
49,83,111646,242
87,84,111904,231
53,84,111904,92
84,85,112151,232
56,85,112151,232
87,86,112399,246
53,86,112399,107
82,87,112661,247
48,87,112661,247
84,88,112924,231
53,88,112924,92
80,89,113171,232
44,89,113171,93
82,90,113419,241
46,90,113419,102
84,91,113676,1011
48,91,113676,241
52,92,113933,93
40,92,114181,491
52,101,114429,258
72,77,114692,511
80,77,114692,511
84,91,114692,541
41,85,114692,277
48,96,114985,94
68,88,115234,477
77,88,115234,477
80,102,115234,507
49,96,115234,94
48,96,115483,104
65,89,115742,474
72,89,115742,474
77,103,115742,504
41,97,115742,242
48,96,116000,92
60,88,116247,479
68,88,116247,509
72,102,116247,509
53,96,116247,93
48,96,116495,107
68,91,116757,479
77,91,116757,479
80,105,116757,509
46,99,116757,247
53,96,117020,92
65,88,117267,232
72,88,117267,232
77,102,117267,247
56,96,117267,93
67,88,117515,1268
73,88,117515,1268
79,102,117515,1268
53,96,117515,102
46,97,117772,241
53,96,118029,93
55,96,118277,93
53,96,118525,104
68,93,118788,511
77,93,118788,511
80,107,118788,541
49,101,118788,277
53,96,119081,94
65,88,119330,233
72,88,119330,233
77,102,119330,248
56,96,119330,94
67,88,119579,1273
73,88,119579,1273
79,102,119579,1273
53,96,119579,104
49,97,119838,242
53,96,120096,92
55,96,120343,93
53,96,120591,107
68,91,120853,479
77,91,120853,479
80,105,120853,509
48,99,120853,247
53,96,121116,92
65,88,121363,232
72,88,121363,232
77,102,121363,247
56,96,121363,93
67,88,121611,498
76,88,121611,498
79,102,121611,513
53,96,121611,102
48,97,121868,241
73,88,122125,232
85,102,122125,247
52,96,122125,93
72,88,122373,232
84,102,122373,247
55,96,122373,93
73,88,122621,243
85,102,122621,258
52,96,122621,104
72,93,122884,511
84,107,122884,541
41,101,122884,277
48,96,123177,94
77,88,123426,477
89,102,123426,507
49,96,123426,94
48,96,123675,104
70,89,123934,474
82,103,123934,504
41,97,123934,242
48,96,124192,92
68,88,124439,479
80,102,124439,509
53,96,124439,93
48,96,124687,107
70,91,124949,247
82,105,124949,262
42,99,124949,247
68,88,125212,187
80,102,125212,187
48,96,125212,92
49,96,125459,93
70,88,125707,731
82,102,125707,761
48,96,125707,102
42,97,125964,241
48,96,126221,93
68,88,126469,232
80,102,126469,247
49,96,126469,93
70,88,126717,243
82,102,126717,258
54,96,126717,104
71,93,126980,277
83,107,126980,292
49,101,126980,277
70,88,127273,233
82,102,127273,248
53,96,127273,94
68,88,127522,200
80,102,127522,200
56,96,127522,94
53,96,127771,104
64,89,128030,197
76,103,128030,197
48,97,128030,242
52,96,128288,92
60,88,128535,202
72,102,128535,202
55,96,128535,93
52,96,128783,107
61,91,129045,202
73,105,129045,202
49,99,129045,247
56,96,129308,92
64,88,129555,197
76,102,129555,197
48,96,129555,93
55,96,129803,102
65,89,130060,1011
77,103,130060,1011
53,97,130060,1011
61,54,131076,138
68,49,131369,94
94,49,131618,94
70,49,131618,94
92,49,131867,104
68,49,131867,104
61,50,132126,103
94,49,132384,92
68,49,132384,92
92,49,132631,93
70,49,132631,93
68,49,132879,107
61,52,133141,108
68,49,133404,92
94,49,133651,93
70,49,133651,93
92,49,133899,102
68,49,133899,102
61,50,134156,102
94,49,134413,93
68,49,134413,93
92,49,134661,93
70,49,134661,93
68,49,134909,104
92,54,135172,138
65,54,135172,138
94,49,135465,139
72,49,135465,94
92,49,135590,138
89,32,135714,200
73,49,135714,94
72,49,135963,104
89,38,136222,197
65,50,136222,103
72,49,136480,92
88,49,136727,93
73,49,136727,93
89,49,136975,1276
72,49,136975,107
65,52,137237,108
72,49,137500,92
73,49,137747,93
72,49,137995,102
65,50,138252,102
72,49,138509,93
73,49,138757,93
72,49,139005,104
61,54,139268,138
68,49,139561,94
94,49,139810,94
70,49,139810,94
92,49,140059,104
68,49,140059,104
61,50,140318,103
94,49,140576,92
68,49,140576,92
92,49,140823,93
70,49,140823,93
68,49,141071,107
61,52,141333,108
68,49,141596,92
94,49,141843,93
70,49,141843,93
92,49,142091,102
68,49,142091,102
61,50,142348,102
94,49,142605,93
68,49,142605,93
92,49,142853,93
70,49,142853,93
68,49,143101,104
92,54,143364,234
65,54,143364,138
72,49,143657,94
94,49,143906,200
73,49,143906,94
72,49,144155,104
95,50,144414,103
65,50,144414,103
94,49,144672,187
72,49,144672,92
73,49,144919,93
92,49,145167,107
72,49,145167,107
89,52,145429,1014
65,52,145429,108
72,49,145692,92
73,49,145939,93
72,49,146187,102
65,50,146444,102
72,49,146701,93
73,49,146949,93
72,49,147197,104
61,54,147460,277
65,49,147460,3079
68,49,147753,94
94,49,148002,94
70,49,148002,94
92,49,148251,104
68,49,148251,104
61,50,148510,103
94,49,148768,92
68,49,148768,92
92,49,149015,93
70,49,149015,93
68,49,149263,107
61,52,149525,108
68,49,149788,92
94,49,150035,93
70,49,150035,93
92,49,150283,102
68,49,150283,102
61,50,150540,197
64,50,150540,102
94,49,150797,93
63,49,150797,93
92,49,151045,93
62,49,151045,93
61,49,151293,104
92,54,151556,138
65,54,151556,138
60,49,151556,3079
94,49,151849,139
72,49,151849,94
92,49,151974,138
89,32,152098,200
73,49,152098,94
72,49,152347,104
89,38,152606,197
65,50,152606,103
72,49,152864,92
88,49,153111,93
73,49,153111,93
89,49,153359,1276
72,49,153359,107
65,52,153621,108
72,49,153884,92
73,49,154131,93
72,49,154379,102
65,50,154636,197
61,50,154636,102
62,49,154893,93
63,49,155141,93
64,49,155389,104
61,54,155652,138
65,49,155652,3079
68,49,155945,94
94,49,156194,94
70,49,156194,94
92,49,156443,104
68,49,156443,104
61,50,156702,103
94,49,156960,92
68,49,156960,92
92,49,157207,93
70,49,157207,93
68,49,157455,107
61,52,157717,108
68,49,157980,92
94,49,158227,93
70,49,158227,93
92,49,158475,102
68,49,158475,102
61,50,158732,102
68,50,158732,350
94,49,158989,93
68,49,158989,93
92,49,159237,93
70,49,159237,93
68,49,159485,104
92,54,159748,234
65,54,159748,138
67,54,159748,2064
72,49,160041,94
94,49,160290,200
73,49,160290,94
72,49,160539,104
95,50,160798,103
65,50,160798,103
94,49,161056,187
72,49,161056,92
73,49,161303,93
92,49,161551,107
72,49,161551,107
89,52,161813,400
65,52,161813,108
68,52,161813,2026
72,49,162076,92
73,49,162323,93
72,49,162571,102
65,50,162828,102
72,49,163085,93
73,49,163333,93
72,49,163581,104
49,69,163844,138
53,64,163844,3079
56,64,164137,94
82,64,164386,278
58,64,164386,94
80,59,164635,147
56,64,164635,104
49,65,164894,103
82,64,165152,276
56,64,165152,92
80,59,165399,136
58,64,165399,93
56,64,165647,107
49,67,165909,108
56,64,166172,92
82,64,166419,277
58,64,166419,93
80,59,166667,145
56,64,166667,102
49,65,166924,197
52,65,166924,241
82,64,167181,93
51,64,167181,232
80,64,167429,93
50,64,167429,232
49,64,167677,243
80,69,167940,138
53,69,167940,138
48,64,167940,3079
82,64,168233,139
60,64,168233,94
80,64,168358,138
77,47,168482,200
61,64,168482,94
60,64,168731,104
77,53,168990,197
53,65,168990,103
60,64,169248,92
76,64,169495,93
61,64,169495,93
77,64,169743,1276
60,64,169743,107
53,67,170005,108
60,64,170268,92
61,64,170515,93
60,64,170763,102
80,65,171008,170
53,65,171020,74
49,65,171020,241
77,58,171178,170
50,64,171277,232
80,64,171348,170
77,58,171518,170
51,64,171525,232
80,64,171688,170
52,64,171773,243
77,58,171858,224
49,69,172036,138
53,64,172036,3079
56,64,172329,94
82,64,172578,94
58,64,172578,94
80,64,172827,104
56,64,172827,104
49,65,173086,103
82,64,173344,92
56,64,173344,92
80,64,173591,93
58,64,173591,93
56,64,173839,107
49,67,174101,108
56,64,174364,92
82,64,174611,93
58,64,174611,93
80,64,174859,102
56,64,174859,102
49,65,175116,102
56,65,175116,350
82,64,175373,93
56,64,175373,93
80,64,175621,93
58,64,175621,93
56,64,175869,104
80,69,176132,234
55,69,176132,511
60,64,176425,94
82,64,176674,200
51,64,176674,233
53,64,176923,243
83,65,177182,103
55,65,177182,474
82,64,177440,187
60,52,177440,92
58,64,177687,479
80,64,177935,107
60,52,177935,107
77,67,178197,2026
56,67,178197,479
60,52,178460,92
53,64,178707,232
55,64,178955,241
56,65,179212,1011
60,64,179469,93
61,64,179717,93
60,64,179965,104
49,69,180228,138
53,64,180228,3079
56,64,180521,94
82,64,180770,278
58,64,180770,94
80,59,181019,147
56,64,181019,104
49,65,181278,103
82,64,181536,276
56,64,181536,92
80,59,181783,136
58,64,181783,93
56,64,182031,107
49,67,182293,108
56,64,182556,92
82,64,182803,277
58,64,182803,93
80,59,183051,145
56,64,183051,102
49,65,183308,197
52,65,183308,241
82,64,183565,93
51,64,183565,232
80,64,183813,93
50,64,183813,232
49,64,184061,243
80,69,184324,138
53,69,184324,138
48,64,184324,3079
82,64,184617,139
60,64,184617,94
80,64,184742,138
77,47,184866,200
61,64,184866,94
60,64,185115,104
77,53,185374,197
53,65,185374,103
60,64,185632,92
76,64,185879,93
61,64,185879,93
77,64,186127,1276
60,64,186127,107
53,67,186389,108
60,64,186652,92
61,64,186899,93
60,64,187147,102
80,65,187392,170
53,65,187404,74
49,65,187404,241
77,58,187562,170
50,64,187661,232
80,64,187732,170
77,58,187902,170
51,64,187909,232
80,64,188072,170
52,64,188157,243
77,58,188242,224
49,69,188420,138
53,64,188420,3079
56,64,188713,94
82,64,188962,94
58,64,188962,94
80,64,189211,104
56,64,189211,104
49,65,189470,103
82,64,189728,92
56,64,189728,92
80,64,189975,93
58,64,189975,93
56,64,190223,107
49,67,190485,108
56,64,190748,92
82,64,190995,93
58,64,190995,93
80,64,191243,102
56,64,191243,102
49,65,191500,102
82,64,191757,93
56,64,191757,93
80,64,192005,93
58,64,192005,93
61,64,192253,104
67,49,192516,234
72,59,192516,234
48,69,192516,138
48,64,192809,94
67,46,193058,200
72,60,193058,200
60,66,193058,94
48,68,193307,104
72,62,193566,257
76,76,193566,257
48,70,193566,103
67,58,193824,274
72,72,193824,187
48,72,193824,92
60,74,194071,93
65,67,194319,246
70,81,194319,261
48,75,194319,107
67,69,194581,1014
72,83,194581,720
36,63,194581,202
36,67,195091,197
72,76,195328,128
76,90,195328,128
74,76,195456,128
77,90,195456,128
76,71,195592,972
79,85,195592,972
36,71,195596,197
36,75,196101,199
72,72,196618,535
77,86,196618,535
41,85,196618,132
48,80,196905,94
68,67,197154,200
72,81,197154,200
46,80,197154,94
48,80,197403,104
65,73,197662,197
68,87,197662,197
41,81,197662,103
48,80,197920,92
60,72,198167,202
65,86,198167,202
46,80,198167,93
48,80,198415,107
37,82,198677,108
68,72,198940,276
71,86,198940,246
47,80,198940,92
65,67,199187,284
70,81,199187,197
46,80,199187,93
47,80,199435,102
67,73,199692,241
70,87,199692,256
36,79,199692,102
64,72,199949,232
68,86,199949,247
48,80,199949,93
58,72,200197,232
63,86,200197,247
43,80,200197,93
61,72,200445,243
64,86,200445,258
46,80,200445,104
41,85,200708,138
68,72,201001,233
72,86,201001,248
48,80,201001,94
65,72,201250,233
70,86,201250,248
46,80,201250,94
63,72,201499,243
68,86,201499,258
48,80,201499,104
67,73,201758,242
70,87,201758,257
43,81,201758,103
68,72,202016,231
72,86,202016,246
48,80,202016,92
55,72,202263,232
63,86,202263,247
46,80,202263,93
56,72,202511,246
65,86,202511,261
48,80,202511,107
60,75,202773,247
68,89,202773,262
44,83,202773,108
56,72,203036,231
65,86,203036,246
48,80,203036,92
55,72,203283,232
63,86,203283,247
46,80,203283,93
68,72,203531,498
77,86,203531,513
48,80,203531,102
46,81,203788,102
75,80,204045,232
49,80,204045,93
72,80,204293,137
48,80,204293,93
70,80,204416,139
68,75,204541,209
49,80,204541,104
65,85,204804,511
37,84,204804,138
44,80,205097,94
61,68,205346,200
43,80,205346,94
44,80,205595,104
67,81,205854,474
37,80,205854,103
46,80,206112,92
61,68,206359,202
44,80,206359,93
46,80,206607,107
68,83,206869,479
37,82,206869,108
48,80,207132,92
61,68,207379,197
46,80,207379,93
48,80,207627,102
70,81,207884,474
37,80,207884,102
49,80,208141,93
61,68,208389,199
48,80,208389,93
49,80,208637,104
68,61,208900,511
72,75,208900,541
36,67,208900,435
61,56,209442,477
70,70,209442,507
72,57,209950,504
77,71,209950,504
65,56,210455,479
72,70,210455,509
36,62,210455,202
70,59,210965,479
76,73,210965,509
36,65,210965,1014
68,56,211475,474
73,70,211475,504
67,57,211980,1011
72,71,211980,1011
48,65,212237,232
50,70,212485,232
52,75,212733,243
77,85,212996,138
53,80,212996,602
41,85,212996,435
84,80,213289,94
82,80,213538,94
48,75,213538,287
84,80,213787,104
77,81,214046,103
44,81,214046,197
41,81,214046,400
84,80,214304,92
82,80,214551,93
41,80,214551,202
84,80,214799,107
73,83,215061,108
37,82,215061,400
83,80,215324,92
47,80,215324,276
82,80,215571,93
46,75,215571,197
83,80,215819,102
75,81,216076,102
46,81,216076,241
36,79,216076,397
84,80,216333,93
44,80,216333,232
79,80,216581,93
39,79,216581,232
82,80,216829,104
40,79,216829,243
77,85,217092,138
41,85,217092,435
84,80,217385,94
48,80,217385,233
82,80,217634,94
46,80,217634,233
84,80,217883,104
44,80,217883,243
79,81,218142,103
46,81,218142,242
43,81,218142,400
84,80,218400,92
48,80,218400,231
82,80,218647,93
39,79,218647,232
84,80,218895,107
41,80,218895,246
80,83,219157,108
44,83,219157,400
84,80,219420,92
41,80,219420,231
82,80,219667,93
39,79,219667,232
84,80,219915,102
53,80,219915,498
82,81,220172,102
46,81,220172,397
85,80,220429,93
51,80,220429,232
84,80,220677,93
48,80,220677,137
46,80,220800,139
85,80,220925,104
44,75,220925,209
73,85,221188,138
41,85,221188,511
80,80,221481,94
79,80,221730,94
37,67,221730,200
80,80,221979,104
73,81,222238,103
43,81,222238,474
82,80,222496,92
80,80,222743,93
37,67,222743,202
82,80,222991,107
73,83,223253,108
44,83,223253,479
84,80,223516,92
82,80,223763,93
37,67,223763,197
84,80,224011,102
73,81,224268,102
46,81,224268,474
85,80,224525,93
84,80,224773,93
37,67,224773,199
85,80,225021,104
68,61,225284,511
72,75,225284,541
48,69,225284,511
65,56,225826,507
70,70,225826,507
41,64,225826,477
65,59,226334,504
72,59,226334,474
77,73,226334,504
53,67,226334,474
60,63,226839,479
65,63,226839,479
72,77,226839,509
41,71,226839,479
70,68,227349,479
76,82,227349,509
52,76,227349,479
68,73,227859,474
73,87,227859,504
49,81,227859,474
67,78,228364,241
72,92,228364,256
48,86,228364,474
73,80,228621,232
85,94,228621,247
72,83,228869,232
84,97,228869,247
51,79,228869,262
73,85,229117,243
85,99,229117,258
52,81,229117,273
72,93,229380,511
84,107,229380,541
41,81,229380,307
53,95,229380,292
48,84,229673,94
68,88,229922,477
80,102,229922,507
49,84,229922,94
48,84,230171,104
65,89,230430,242
77,103,230430,257
41,85,230430,272
68,96,230688,231
48,84,230688,92
60,88,230935,232
72,102,230935,247
53,84,230935,93
65,96,231183,246
48,84,231183,107
68,91,231445,479
80,105,231445,509
46,87,231445,277
53,84,231708,92
65,88,231955,232
77,102,231955,247
56,84,231955,93
67,88,232203,1268
79,102,232203,1268
53,84,232203,102
46,85,232460,271
53,84,232717,93
55,84,232965,93
53,84,233213,104
68,93,233476,511
80,107,233476,541
49,89,233476,307
53,84,233769,94
65,88,234018,233
77,102,234018,248
56,84,234018,94
67,88,234267,1273
79,102,234267,1273
53,84,234267,104
49,85,234526,272
53,84,234784,92
55,84,235031,93
53,84,235279,107
68,91,235541,479
80,105,235541,509
48,87,235541,277
53,84,235804,92
65,88,236051,232
77,102,236051,247
56,84,236051,93
67,88,236299,498
79,102,236299,513
53,84,236299,102
48,85,236556,271
73,88,236813,232
85,102,236813,247
52,84,236813,93
72,88,237061,232
84,102,237061,247
55,84,237061,93
73,88,237309,243
85,102,237309,258
52,84,237309,104
72,93,237572,511
84,107,237572,541
41,89,237572,307
48,84,237865,94
68,88,238114,477
80,102,238114,507
49,84,238114,94
48,84,238363,104
65,89,238622,242
77,103,238622,257
41,85,238622,272
68,96,238880,231
48,84,238880,92
60,88,239127,232
72,102,239127,247
53,84,239127,93
65,96,239375,246
48,84,239375,107
68,91,239637,479
80,105,239637,509
46,87,239637,277
53,84,239900,92
70,88,240147,232
82,102,240147,247
56,84,240147,93
67,88,240395,1268
79,102,240395,1268
53,84,240395,102
46,85,240652,271
53,84,240909,93
55,84,241157,93
53,84,241405,104
68,93,241668,511
80,107,241668,541
49,89,241668,307
53,84,241961,94
70,88,242210,233
82,102,242210,248
56,84,242210,94
67,88,242459,1273
79,102,242459,1273
53,84,242459,104
49,85,242718,272
53,84,242976,92
55,84,243223,93
53,84,243471,107
68,91,243733,479
80,105,243733,509
48,87,243733,277
53,84,243996,92
70,88,244243,232
82,102,244243,247
56,84,244243,93
72,88,244491,498
84,102,244491,513
53,84,244491,102
48,85,244748,271
73,88,245005,232
85,102,245005,247
52,84,245005,93
72,88,245253,232
84,102,245253,247
55,84,245253,93
73,88,245501,243
85,102,245501,258
52,84,245501,104
72,93,245764,511
80,93,245764,511
84,107,245764,541
41,89,245764,307
48,84,246057,94
68,88,246306,477
77,88,246306,477
80,102,246306,507
49,84,246306,94
48,84,246555,104
65,89,246814,242
72,89,246814,242
77,103,246814,257
41,85,246814,272
68,96,247072,246
48,84,247072,92
60,88,247319,232
68,88,247319,247
72,102,247319,247
53,84,247319,93
65,96,247567,246
48,84,247567,107
68,91,247829,479
77,91,247829,479
80,105,247829,509
46,87,247829,277
53,84,248092,92
65,88,248339,232
72,88,248339,232
77,102,248339,247
56,84,248339,93
67,88,248587,1268
73,88,248587,1268
79,102,248587,1268
53,84,248587,102
46,85,248844,271
53,84,249101,93
55,84,249349,93
53,84,249597,104
68,93,249860,511
77,93,249860,511
80,107,249860,541
49,89,249860,307
53,84,250153,94
65,88,250402,233
72,88,250402,233
77,102,250402,248
56,84,250402,94
67,88,250651,1273
73,88,250651,1273
79,102,250651,1273
53,84,250651,104
49,85,250910,272
53,84,251168,92
55,84,251415,93
53,84,251663,107
68,91,251925,479
77,91,251925,479
80,105,251925,509
48,87,251925,277
53,84,252188,92
65,88,252435,232
72,88,252435,232
77,102,252435,247
56,84,252435,93
67,88,252683,498
76,88,252683,498
79,102,252683,513
53,84,252683,102
48,85,252940,271
73,88,253197,232
85,102,253197,247
52,84,253197,93
72,88,253445,232
84,102,253445,247
55,84,253445,93
73,88,253693,243
85,102,253693,258
52,84,253693,104
72,93,253956,511
84,107,253956,541
41,89,253956,307
48,84,254249,94
77,88,254498,477
89,102,254498,507
49,84,254498,94
48,84,254747,104
70,89,255006,242
82,103,255006,257
41,85,255006,272
72,96,255264,231
48,84,255264,92
68,88,255511,232
80,102,255511,247
53,84,255511,93
72,96,255759,246
48,84,255759,107
70,91,256021,247
82,105,256021,262
42,87,256021,277
68,88,256284,187
80,102,256284,187
48,84,256284,92
49,84,256531,93
70,88,256779,731
82,102,256779,761
48,84,256779,102
42,85,257036,271
48,84,257293,93
68,88,257541,232
80,102,257541,247
49,84,257541,93
70,88,257789,243
82,102,257789,258
54,84,257789,104
71,93,258052,277
83,107,258052,292
49,89,258052,307
70,88,258345,233
82,102,258345,248
53,84,258345,94
68,88,258594,200
80,102,258594,200
56,84,258594,94
53,84,258843,104
64,89,259102,197
76,103,259102,197
48,85,259102,272
52,84,259360,92
60,88,259607,202
72,102,259607,202
55,84,259607,93
52,84,259855,107
61,91,260117,202
73,105,260117,202
49,87,260117,277
56,84,260380,92
64,88,260627,197
76,102,260627,197
48,84,260627,93
55,84,260875,102
65,89,261132,1011
77,103,261132,1011
53,97,261132,474
41,96,261637,506
84,101,262148,511
41,101,262148,277
48,80,262441,94
80,80,262690,477
49,80,262690,94
48,80,262939,104
77,81,263198,242
41,81,263198,242
80,80,263456,231
48,80,263456,92
72,80,263703,232
53,80,263703,93
77,80,263951,246
48,80,263951,107
80,83,264213,479
46,83,264213,247
53,80,264476,92
77,80,264723,474
56,80,264723,93
53,80,264971,102
73,81,265228,241
46,81,265228,474
77,80,265485,232
53,80,265485,93
68,80,265733,232
55,80,265733,93
48,80,265733,476
73,80,265981,258
53,80,265981,104
73,85,266244,277
49,85,266244,277
68,80,266537,233
53,80,266537,94
80,80,266786,233
61,80,266786,94
73,80,267035,243
56,80,267035,104
79,81,267294,242
49,81,267294,474
51,80,267520,128
80,80,267552,231
52,80,267648,128
53,75,267784,451
77,80,267799,232
79,80,268047,246
76,83,268309,479
52,83,268309,247
53,80,268572,92
77,80,268819,232
48,80,268819,93
76,80,269067,241
43,80,269067,102
79,81,269324,241
48,81,269324,474
77,80,269581,232
76,80,269829,232
52,80,269829,476
79,80,270077,243
77,85,270340,138
53,85,270340,277
72,80,270633,94
48,80,270633,94
77,80,270882,94
49,80,270882,94
79,80,271131,104
48,80,271131,104
80,81,271390,103
41,81,271390,242
77,80,271648,92
48,80,271648,92
80,80,271895,93
53,80,271895,93
82,80,272143,107
48,80,272143,107
84,83,272405,108
46,83,272405,247
82,80,272668,92
53,80,272668,92
80,80,272915,93
56,80,272915,93
79,80,273163,102
58,80,273163,513
80,81,273420,102
46,73,273420,241
79,80,273677,93
56,80,273677,93
77,80,273925,93
55,80,273925,93
79,80,274173,104
53,80,274173,104
77,85,274436,277
49,85,274436,277
80,80,274729,233
53,80,274729,94
87,81,274978,477
56,81,274978,94
53,82,275227,104
85,83,275486,242
49,83,275486,242
87,84,275744,231
53,84,275744,92
84,85,275991,232
56,85,275991,232
87,86,276239,246
53,86,276239,107
82,87,276501,247
48,87,276501,247
84,88,276764,231
53,88,276764,92
80,89,277011,232
44,89,277011,93
82,90,277259,241
46,90,277259,102
84,91,277516,1011
48,91,277516,241
52,92,277773,93
40,92,278021,491
52,101,278269,258
72,77,278532,511
80,77,278532,511
84,91,278532,541
41,85,278532,277
48,96,278825,94
68,88,279074,477
77,88,279074,477
80,102,279074,507
49,96,279074,94
48,96,279323,104
65,89,279582,474
72,89,279582,474
77,103,279582,504
41,97,279582,242
48,96,279840,92
60,88,280087,479
68,88,280087,509
72,102,280087,509
53,96,280087,93
48,96,280335,107
68,91,280597,479
77,91,280597,479
80,105,280597,509
46,99,280597,247
53,96,280860,92
65,88,281107,232
72,88,281107,232
77,102,281107,247
56,96,281107,93
67,88,281355,1268
73,88,281355,1268
79,102,281355,1268
53,96,281355,102
46,97,281612,241
53,96,281869,93
55,96,282117,93
53,96,282365,104
68,93,282628,511
77,93,282628,511
80,107,282628,541
49,101,282628,277
53,96,282921,94
65,88,283170,233
72,88,283170,233
77,102,283170,248
56,96,283170,94
67,88,283419,1273
73,88,283419,1273
79,102,283419,1273
53,96,283419,104
49,97,283678,242
53,96,283936,92
55,96,284183,93
53,96,284431,107
68,91,284693,479
77,91,284693,479
80,105,284693,509
48,99,284693,247
53,96,284956,92
65,88,285203,232
72,88,285203,232
77,102,285203,247
56,96,285203,93
67,88,285451,498
76,88,285451,498
79,102,285451,513
53,96,285451,102
48,97,285708,241
73,88,285965,232
85,102,285965,247
52,96,285965,93
72,88,286213,232
84,102,286213,247
55,96,286213,93
73,88,286461,243
85,102,286461,258
52,96,286461,104
72,93,286724,511
84,107,286724,541
41,101,286724,277
48,96,287017,94
77,88,287266,477
89,102,287266,507
49,96,287266,94
48,96,287515,104
70,89,287774,474
82,103,287774,504
41,97,287774,242
48,96,288032,92
68,88,288279,479
80,102,288279,509
53,96,288279,93
48,96,288527,107
70,91,288789,247
82,105,288789,262
42,99,288789,247
68,88,289052,187
80,102,289052,187
48,96,289052,92
49,96,289299,93
70,88,289547,731
82,102,289547,761
48,96,289547,102
42,97,289804,241
48,96,290061,93
68,88,290309,232
80,102,290309,247
49,96,290309,93
70,88,290557,243
82,102,290557,258
54,96,290557,104
71,93,290820,277
83,107,290820,292
49,101,290820,277
70,88,291113,233
82,102,291113,248
53,96,291113,94
68,88,291362,200
80,102,291362,200
56,96,291362,94
53,96,291611,104
64,89,291870,197
76,103,291870,197
48,97,291870,242
52,96,292128,92
60,88,292375,202
72,102,292375,202
55,96,292375,93
52,96,292623,107
61,91,292885,202
73,105,292885,202
49,99,292885,247
56,96,293148,92
64,88,293395,197
76,102,293395,197
48,96,293395,93
55,96,293643,102
65,89,293900,1011
77,103,293900,1011
53,97,293900,1011
61,54,294916,138
68,49,295209,94
94,49,295458,94
70,49,295458,94
92,49,295707,104
68,49,295707,104
61,50,295966,103
94,49,296224,92
68,49,296224,92
92,49,296471,93
70,49,296471,93
68,49,296719,107
61,52,296981,108
68,49,297244,92
94,49,297491,93
70,49,297491,93
92,49,297739,102
68,49,297739,102
61,50,297996,102
94,49,298253,93
68,49,298253,93
92,49,298501,93
70,49,298501,93
68,49,298749,104
92,54,299012,138
65,54,299012,138
94,49,299305,139
72,49,299305,94
92,49,299430,138
89,32,299554,200
73,49,299554,94
72,49,299803,104
89,38,300062,197
65,50,300062,103
72,49,300320,92
88,49,300567,93
73,49,300567,93
89,49,300815,1276
72,49,300815,107
65,52,301077,108
72,49,301340,92
73,49,301587,93
72,49,301835,102
65,50,302092,102
72,49,302349,93
73,49,302597,93
72,49,302845,104
61,54,303108,138
68,49,303401,94
94,49,303650,94
70,49,303650,94
92,49,303899,104
68,49,303899,104
61,50,304158,103
94,49,304416,92
68,49,304416,92
92,49,304663,93
70,49,304663,93
68,49,304911,107
61,52,305173,108
68,49,305436,92
94,49,305683,93
70,49,305683,93
92,49,305931,102
68,49,305931,102
61,50,306188,102
94,49,306445,93
68,49,306445,93
92,49,306693,93
70,49,306693,93
68,49,306941,104
92,54,307204,234
65,54,307204,138
72,49,307497,94
94,49,307746,200
73,49,307746,94
72,49,307995,104
95,50,308254,103
65,50,308254,103
94,49,308512,187
72,49,308512,92
73,49,308759,93
92,49,309007,107
72,49,309007,107
89,52,309269,1014
65,52,309269,108
72,49,309532,92
73,49,309779,93
72,49,310027,102
65,50,310284,102
72,49,310541,93
73,49,310789,93
72,49,311037,104
61,54,311300,277
65,49,311300,3079
68,49,311593,94
94,49,311842,94
70,49,311842,94
92,49,312091,104
68,49,312091,104
61,50,312350,103
94,49,312608,92
68,49,312608,92
92,49,312855,93
70,49,312855,93
68,49,313103,107
61,52,313365,108
68,49,313628,92
94,49,313875,93
70,49,313875,93
92,49,314123,102
68,49,314123,102
61,50,314380,197
64,50,314380,102
94,49,314637,93
63,49,314637,93
92,49,314885,93
62,49,314885,93
61,49,315133,104
92,54,315396,138
65,54,315396,138
60,49,315396,3079
94,49,315689,139
72,49,315689,94
92,49,315814,138
89,32,315938,200
73,49,315938,94
72,49,316187,104
89,38,316446,197
65,50,316446,103
72,49,316704,92
88,49,316951,93
73,49,316951,93
89,49,317199,1276
72,49,317199,107
65,52,317461,108
72,49,317724,92
73,49,317971,93
72,49,318219,102
65,50,318476,197
61,50,318476,102
62,49,318733,93
63,49,318981,93
64,49,319229,104
61,54,319492,138
65,49,319492,3079
68,49,319785,94
94,49,320034,94
70,49,320034,94
92,49,320283,104
68,49,320283,104
61,50,320542,103
94,49,320800,92
68,49,320800,92
92,49,321047,93
70,49,321047,93
68,49,321295,107
61,52,321557,108
68,49,321820,92
94,49,322067,93
70,49,322067,93
92,49,322315,102
68,49,322315,102
61,50,322572,102
68,50,322572,350
94,49,322829,93
68,49,322829,93
92,49,323077,93
70,49,323077,93
68,49,323325,104
92,54,323588,234
65,54,323588,138
67,54,323588,2064
72,49,323881,94
94,49,324130,200
73,49,324130,94
72,49,324379,104
95,50,324638,103
65,50,324638,103
94,49,324896,187
72,49,324896,92
73,49,325143,93
92,49,325391,107
72,49,325391,107
89,52,325653,400
65,52,325653,108
68,52,325653,2026
72,49,325916,92
73,49,326163,93
72,49,326411,102
65,50,326668,102
72,49,326925,93
73,49,327173,93
72,49,327421,104
49,69,327684,138
53,64,327684,3079
56,64,327977,94
82,64,328226,278
58,64,328226,94
80,59,328475,147
56,64,328475,104
49,65,328734,103
82,64,328992,276
56,64,328992,92
80,59,329239,136
58,64,329239,93
56,64,329487,107
49,67,329749,108
56,64,330012,92
82,64,330259,277
58,64,330259,93
80,59,330507,145
56,64,330507,102
49,65,330764,197
52,65,330764,241
82,64,331021,93
51,64,331021,232
80,64,331269,93
50,64,331269,232
49,64,331517,243
80,69,331780,138
53,69,331780,138
48,64,331780,3079
82,64,332073,139
60,64,332073,94
80,64,332198,138
77,47,332322,200
61,64,332322,94
60,64,332571,104
77,53,332830,197
53,65,332830,103
60,64,333088,92
76,64,333335,93
61,64,333335,93
77,64,333583,1276
60,64,333583,107
53,67,333845,108
60,64,334108,92
61,64,334355,93
60,64,334603,102
80,65,334848,170
53,65,334860,74
49,65,334860,241
77,58,335018,170
50,64,335117,232
80,64,335188,170
77,58,335358,170
51,64,335365,232
80,64,335528,170
52,64,335613,243
77,58,335698,224
49,69,335876,138
53,64,335876,3079
56,64,336169,94
82,64,336418,94
58,64,336418,94
80,64,336667,104
56,64,336667,104
49,65,336926,103
82,64,337184,92
56,64,337184,92
80,64,337431,93
58,64,337431,93
56,64,337679,107
49,67,337941,108
56,64,338204,92
82,64,338451,93
58,64,338451,93
80,64,338699,102
56,64,338699,102
49,65,338956,102
82,64,339213,93
56,64,339213,93
80,64,339461,93
58,64,339461,93
61,64,339709,104
67,49,339972,234
72,59,339972,234
48,69,339972,138
48,64,340265,94
67,46,340514,200
72,60,340514,200
60,66,340514,94
48,68,340763,104
72,62,341022,257
76,76,341022,257
48,70,341022,103
67,58,341280,274
72,72,341280,187
48,72,341280,92
60,74,341527,93
65,67,341775,246
70,81,341775,261
48,75,341775,107
67,69,342037,1014
72,83,342037,720
36,63,342037,202
36,67,342547,197
72,76,342784,128
76,90,342784,128
74,76,342912,128
77,90,342912,128
76,71,343048,972
79,85,343048,972
36,71,343052,197
36,75,343557,199
