note,velocity,position,duration
45,64,0,725
45,64,725,299
44,64,1024,410
43,64,2048,410
42,64,3072,410
50,64,4096,410
49,64,5120,725
48,64,5845,1024
53,64,6869,299
52,64,7168,725
50,64,7893,299
47,64,8192,725
47,64,8917,299
46,64,9216,410
45,64,10240,410
44,64,11264,410
52,64,12288,410
51,64,13312,725
50,64,14037,1024
55,64,15061,299
54,64,15360,725
47,64,16085,299
53,64,16384,4096
