note,velocity,position,duration
36,83,10,505
43,80,546,200
36,79,1054,474
45,80,1559,202
36,81,2069,479
43,80,2579,197
36,79,3084,474
42,80,3589,199
36,83,4100,511
43,80,4642,200
36,79,5150,474
45,80,5655,202
36,81,6165,479
43,80,6675,197
36,79,7180,474
42,80,7685,199
36,83,8196,511
43,80,8738,200
36,79,9246,474
45,80,9751,202
36,81,10261,479
43,80,10771,197
36,79,11276,474
42,80,11781,199
36,83,12292,511
43,80,12834,200
36,79,13342,474
45,80,13847,202
36,81,14357,479
43,80,14867,197
36,79,15372,474
42,80,15877,199
36,83,16388,511
60,80,16930,200
43,80,16930,200
67,81,17438,197
36,79,17438,474
72,80,17943,202
45,80,17943,202
75,80,18453,1054
36,81,18453,479
43,80,18963,197
72,75,19468,955
36,79,19468,474
42,80,19973,199
71,80,20484,602
36,83,20484,511
72,75,21026,287
43,80,21026,200
74,80,21534,1054
36,79,21534,474
45,80,22039,202
72,75,22549,289
36,81,22549,479
67,80,23059,197
43,80,23059,197
63,81,23564,197
36,79,23564,474
60,80,24069,199
42,80,24069,199
62,80,24580,602
36,83,24580,511
63,75,25122,287
43,80,25122,200
66,80,25630,1054
36,79,25630,474
45,80,26135,202
67,75,26645,289
36,81,26645,479
63,80,27155,197
43,80,27155,197
60,81,27660,197
36,79,27660,474
57,80,28165,199
42,80,28165,199
59,80,28676,602
36,83,28676,511
60,75,29218,287
43,80,29218,200
62,80,29726,1054
36,79,29726,474
45,80,30231,202
60,75,30741,574
36,81,30741,479
43,80,31251,197
36,79,31756,474
42,80,32261,199
36,83,32772,511
60,80,33314,200
43,80,33314,200
67,81,33822,197
36,79,33822,474
72,80,34327,202
45,80,34327,202
75,80,34837,1054
36,81,34837,479
43,80,35347,197
80,80,35584,128
81,80,35712,128
82,75,35848,959
36,79,35852,474
42,80,36357,199
81,85,36868,234
36,83,36868,511
79,80,37410,200
43,80,37410,200
81,80,37918,1054
36,79,37918,474
45,80,38423,202
82,75,38933,289
36,81,38933,479
79,80,39443,197
43,80,39443,197
75,81,39948,197
36,79,39948,474
72,80,40453,199
42,80,40453,199
71,85,40964,234
36,83,40964,511
72,80,41506,200
43,80,41506,200
74,80,42014,1054
36,79,42014,474
45,80,42519,202
75,75,43029,289
36,81,43029,479
72,80,43539,197
43,80,43539,197
67,81,44044,197
36,79,44044,474
63,80,44549,199
42,80,44549,199
71,80,45060,602
36,83,45060,511
69,75,45602,287
43,80,45602,200
71,80,46080,222
36,79,46110,474
72,80,46279,222
71,75,46478,626
45,80,46615,202
72,75,47125,574
36,81,47125,479
43,80,47635,197
36,79,48140,474
42,80,48645,199
36,83,49156,511
60,72,49698,200
63,86,49698,200
43,80,49698,200
63,73,50206,197
67,87,50206,197
36,79,50206,474
67,72,50711,202
72,86,50711,202
45,80,50711,202
71,72,51221,1054
75,86,51221,1014
36,81,51221,479
43,80,51731,197
72,67,52236,955
80,81,52236,1011
36,79,52236,474
42,80,52741,199
71,72,53252,602
79,86,53252,541
36,83,53252,511
72,67,53794,287
78,81,53794,200
43,80,53794,200
74,72,54302,1054
79,86,54302,1014
36,79,54302,474
45,80,54807,202
79,67,55317,202
84,81,55317,202
36,81,55317,479
75,72,55827,197
79,86,55827,197
43,80,55827,197
72,73,56332,197
75,87,56332,197
36,79,56332,474
67,72,56837,199
72,86,56837,199
42,80,56837,199
67,72,57348,602
74,86,57348,541
36,83,57348,511
72,67,57890,287
75,81,57890,200
43,80,57890,200
71,72,58398,1054
77,86,58398,1014
36,79,58398,474
45,80,58903,202
72,67,59413,289
79,81,59413,202
36,81,59413,479
74,72,59923,197
75,86,59923,197
43,80,59923,197
72,73,60428,197
75,87,60428,197
36,79,60428,474
69,72,60933,199
72,86,60933,199
42,80,60933,199
67,72,61444,602
71,86,61444,541
36,83,61444,511
69,75,61986,287
43,80,61986,200
71,72,62494,1054
74,86,62494,1014
36,79,62494,474
45,80,62999,202
72,75,63509,574
36,81,63509,479
43,80,64019,197
36,79,64524,474
42,80,65029,199
36,83,65540,511
60,80,66082,200
43,80,66082,200
67,81,66590,197
36,79,66590,474
72,80,67095,202
45,80,67095,202
72,72,67605,1054
75,86,67605,630
36,81,67605,479
43,80,68115,197
77,72,68352,128
80,86,68352,128
78,72,68480,128
81,86,68480,128
79,67,68616,959
82,81,68616,1015
36,79,68620,474
42,80,69125,199
78,77,69636,234
81,91,69636,234
36,83,69636,511
74,72,70178,200
79,86,70178,200
43,80,70178,200
78,72,70686,1054
81,86,70686,1014
36,79,70686,474
45,80,71191,202
79,67,71701,202
82,81,71701,202
36,81,71701,479
75,72,72211,197
79,86,72211,197
43,80,72211,197
72,73,72716,197
75,87,72716,197
36,79,72716,474
67,72,73221,199
72,86,73221,199
42,80,73221,199
67,77,73732,234
71,91,73732,234
36,83,73732,511
69,72,74274,200
72,86,74274,200
43,80,74274,200
71,72,74782,1054
74,86,74782,1014
36,79,74782,474
45,80,75287,202
72,67,75797,202
75,81,75797,202
36,81,75797,479
67,72,76307,197
72,86,76307,197
43,80,76307,197
63,73,76812,197
67,87,76812,197
36,79,76812,474
60,72,77317,199
63,86,77317,199
42,80,77317,199
59,72,77828,602
71,86,77828,541
36,83,77828,511
69,75,78370,287
43,80,78370,200
71,81,78848,220
67,81,78878,1014
36,79,78878,474
72,80,79045,220
71,75,79242,593
45,80,79383,202
60,75,79893,1014
72,89,79893,1014
36,81,79893,1014
41,101,81924,511
65,96,82466,200
48,96,82466,200
68,97,82974,197
36,95,82974,474
72,96,83479,202
48,96,83479,202
68,88,83989,1014
72,88,83989,1054
77,102,83989,1014
41,99,83989,479
48,96,84499,197
65,83,85004,955
68,83,85004,955
72,97,85004,39
36,95,85004,474
48,96,85509,199
62,88,86020,602
67,88,86020,602
71,102,86020,541
43,101,86020,511
72,91,86562,287
50,96,86562,200
74,97,87040,221
67,89,87070,1014
71,103,87070,1014
38,96,87070,474
75,96,87238,221
74,91,87436,591
50,96,87575,202
62,91,88085,202
67,91,88085,202
71,105,88085,202
43,99,88085,479
67,96,88595,197
50,96,88595,197
71,97,89100,197
38,96,89100,474
74,96,89605,199
50,96,89605,199
68,88,90116,1089
72,88,90116,1089
75,102,90116,665
44,101,90116,511
51,96,90658,200
77,96,90880,128
75,96,91008,128
74,91,91144,306
39,96,91166,474
72,96,91671,202
51,96,91671,202
75,88,92181,1054
80,88,92181,1014
84,102,92181,1014
44,99,92181,479
51,96,92691,197
82,91,93196,284
41,97,93196,474
80,96,93701,199
51,96,93701,199
70,88,94212,1089
75,88,94212,1089
79,102,94212,665
39,100,94212,511
46,96,94754,200
80,96,94976,128
79,96,95104,128
77,91,95240,306
34,95,95262,474
80,96,95767,202
46,96,95767,202
70,91,96277,2026
75,91,96277,2026
79,105,96277,2026
37,98,96277,479
49,96,96787,197
43,97,97292,474
50,96,97797,199
41,101,98308,511
65,96,98850,200
48,96,98850,200
68,97,99358,197
36,95,99358,474
72,96,99863,202
48,96,99863,202
68,88,100373,1014
72,88,100373,1054
77,102,100373,1014
41,99,100373,479
48,96,100883,197
65,83,101388,955
68,83,101388,955
72,97,101388,39
36,95,101388,474
48,96,101893,199
62,88,102404,602
67,88,102404,602
71,102,102404,541
43,101,102404,511
72,91,102946,287
50,96,102946,200
74,97,103424,220
67,89,103454,1014
71,103,103454,1014
38,96,103454,474
75,96,103621,220
74,91,103818,593
50,96,103959,202
62,91,104469,202
67,91,104469,202
71,105,104469,202
43,99,104469,479
67,96,104979,197
50,96,104979,197
71,97,105484,197
38,96,105484,474
74,96,105989,199
50,96,105989,199
68,88,106500,1089
72,88,106500,1089
75,102,106500,665
44,101,106500,511
51,96,107042,200
77,96,107264,128
75,96,107392,128
74,91,107528,306
39,96,107550,474
72,96,108055,202
51,96,108055,202
75,91,108565,1014
80,91,108565,1014
84,105,108565,630
44,99,108565,479
51,96,109075,197
82,88,109440,128
85,102,109440,128
83,83,109576,288
86,97,109576,201
41,97,109580,474
84,88,110085,199
87,102,110085,199
50,96,110085,199
83,93,110596,234
86,107,110596,234
41,101,110596,511
80,88,111138,200
84,102,111138,200
50,96,111138,200
79,89,111646,197
83,103,111646,197
38,96,111646,474
74,88,112151,202
77,88,112151,172
80,102,112151,202
50,96,112151,202
41,96,112512,128
79,99,112640,220
43,83,112648,302
55,97,112648,215
71,91,112661,2026
74,105,112661,2026
80,96,112837,220
79,91,113034,1654
41,88,113171,197
53,102,113171,197
39,88,113676,197
51,103,113676,197
38,87,114181,199
50,102,114181,199
41,101,114692,511
65,96,115234,200
48,96,115234,200
68,97,115742,197
36,95,115742,474
72,96,116247,202
48,96,116247,202
68,88,116757,1014
72,88,116757,1054
77,102,116757,1014
41,99,116757,479
48,96,117267,197
65,83,117772,955
68,83,117772,955
72,97,117772,39
36,95,117772,474
48,96,118277,199
62,88,118788,602
67,88,118788,602
71,102,118788,541
43,101,118788,511
72,91,119330,287
50,96,119330,200
74,97,119808,221
67,89,119838,1014
71,103,119838,1014
38,96,119838,474
75,96,120006,221
74,91,120204,591
50,96,120343,202
62,91,120853,202
67,91,120853,202
71,105,120853,202
43,99,120853,479
67,96,121363,197
50,96,121363,197
71,97,121868,197
38,96,121868,474
74,96,122373,199
50,96,122373,199
68,88,122884,1089
72,88,122884,1089
75,102,122884,665
44,101,122884,511
51,96,123426,200
77,96,123648,128
75,96,123776,128
74,91,123912,306
39,96,123934,474
72,96,124439,202
51,96,124439,202
75,88,124949,1054
80,88,124949,1014
84,102,124949,1014
44,99,124949,479
51,96,125459,197
82,91,125964,284
41,97,125964,474
80,96,126469,199
51,96,126469,199
70,88,126980,1089
75,88,126980,1089
79,102,126980,665
39,100,126980,511
46,96,127522,200
80,96,127744,128
79,96,127872,128
77,91,128008,306
34,95,128030,474
80,96,128535,202
46,96,128535,202
70,91,129045,2026
75,91,129045,2026
79,105,129045,2026
37,98,129045,479
49,96,129555,197
43,97,130060,474
50,96,130565,199
53,69,131076,511
65,64,131618,200
60,64,131618,200
68,65,132126,197
48,65,132126,474
72,64,132631,202
60,64,132631,202
77,64,133141,1054
53,67,133141,479
60,64,133651,197
78,64,133888,128
79,64,134016,128
80,59,134152,960
48,65,134156,474
60,64,134661,199
79,69,135172,234
55,69,135172,511
77,64,135714,200
62,64,135714,200
74,64,136222,1054
50,65,136222,474
62,64,136727,202
71,59,137237,574
55,67,137237,479
62,64,137747,197
73,64,137984,128
74,64,138112,128
75,59,138248,513
50,65,138252,474
74,64,138757,567
62,64,138757,199
72,64,139268,602
56,69,139268,1049
71,64,139810,568
72,59,140318,284
56,65,140318,1014
74,64,140823,479
75,67,141333,400
56,67,141333,1014
72,65,142348,397
71,64,143364,602
43,69,143364,1049
72,64,143906,568
74,59,144414,574
47,65,144414,1014
72,67,145429,400
48,67,145429,1014
84,50,146444,397
