note,velocity,position,duration
54,80,10,503
61,75,544,475
57,76,1050,1015
56,78,2066,470
57,75,2567,474
59,80,3076,1045
52,75,5639,474
54,80,6148,509
61,75,6688,475
57,76,7194,1015
56,78,8210,470
57,75,8711,474
59,80,9220,1045
75,76,10266,478
76,75,10775,476
75,78,11264,150
76,75,11398,150
75,75,11532,273
71,75,11783,474
73,80,12292,1554
54,80,12292,509
61,75,12832,475
57,76,13338,1015
78,75,13847,977
56,78,14354,470
81,75,14855,474
57,75,14855,474
78,80,15364,1045
59,80,15364,1045
80,76,16410,478
81,75,16919,476
83,78,17426,470
80,75,17927,474
52,75,17927,474
81,80,18436,1554
54,80,18436,509
61,75,18976,475
57,76,19482,1015
80,63,19991,1038
56,78,20498,470
78,75,20999,230
57,75,20999,474
76,75,21245,243
75,80,21508,1045
59,80,21508,1045
81,76,22554,478
83,75,23063,476
85,78,23570,470
87,75,24071,474
81,80,24580,1554
54,80,24580,509
61,75,25120,475
57,76,25626,1015
80,75,26135,977
56,78,26642,470
73,75,27143,474
57,75,27143,474
78,80,27652,1045
59,80,27652,1045
76,76,28698,1015
75,78,29714,1005
52,75,30215,474
76,80,30724,509
54,80,30724,509
75,75,31264,475
61,75,31264,475
73,76,31770,478
57,76,31770,1015
71,75,32279,977
56,78,32786,470
78,75,33287,474
57,75,33287,474
73,80,33796,1045
59,80,33796,1045
68,75,35351,476
47,63,35351,537
69,78,35858,470
52,66,35858,531
68,75,36359,504
49,63,36359,535
61,67,36868,1076
68,67,36868,2061
71,81,36868,2061
64,80,36868,1045
54,68,36868,570
61,63,37408,536
64,76,37914,1516
57,76,37914,1015
56,78,38930,470
64,63,39431,535
57,75,39431,474
63,80,39940,1045
59,80,39940,1045
87,76,40986,478
47,76,40986,478
88,75,41495,476
54,75,41495,476
87,78,42002,470
57,78,42002,470
88,75,42503,474
56,75,42503,474
87,80,43012,1554
64,80,43012,1045
54,80,43012,509
61,75,43552,475
64,76,44058,1516
57,76,44058,1015
90,75,44567,1512
56,78,45074,470
64,63,45575,535
57,75,45575,474
85,80,46084,1045
63,80,46084,1045
59,80,46084,1045
54,76,47130,478
51,76,47130,478
80,75,47639,476
51,75,47639,476
47,75,47639,476
81,78,48146,470
52,78,48146,470
49,78,48146,470
80,75,48647,474
54,75,48647,474
51,75,48647,474
73,67,49156,3067
83,81,49156,3067
64,80,49156,1045
54,80,49156,509
61,75,49696,475
64,76,50202,1516
57,76,50202,1015
56,78,51218,470
64,63,51719,535
57,75,51719,474
59,72,52228,1045
63,86,52228,1045
80,67,53783,476
92,81,53783,506
81,70,54290,470
93,84,54290,500
80,67,54791,474
92,81,54791,504
83,72,55300,1045
95,86,55300,1045
76,80,55300,1045
66,80,55300,509
73,75,55840,475
76,76,56346,1516
69,76,56346,1015
68,78,57362,470
76,63,57863,535
69,75,57863,474
71,72,58372,1045
75,86,58372,1045
80,67,59927,476
92,81,59927,506
81,70,60434,470
93,84,60434,500
80,67,60935,474
92,81,60935,504
83,72,61444,1045
95,86,61444,1045
76,80,61444,1045
62,80,61444,509
73,75,61984,475
76,76,62490,1516
69,76,62490,1015
68,78,63506,470
76,63,64007,535
69,75,64007,474
75,80,64516,1045
64,72,64516,1045
71,86,64516,1045
87,76,65562,478
88,75,66071,476
87,78,66578,470
88,75,67079,474
87,80,67588,1015
78,80,67588,1045
64,80,67588,509
75,75,68128,1014
76,76,68634,1486
71,76,68634,1015
90,75,69143,1512
68,78,69650,470
71,75,70151,474
66,75,70151,474
76,72,70660,1045
85,86,70660,1045
68,80,70660,1045
61,80,70660,1045
80,75,72215,476
61,75,72215,476
56,75,72215,476
81,78,72722,470
62,78,72722,470
57,78,72722,470
80,75,73223,474
64,75,73223,474
59,75,73223,474
85,80,73732,1015
68,80,73732,509
62,80,73732,1045
73,75,74272,505
69,76,74778,1015
61,76,74778,478
57,75,75287,476
68,78,75794,470
59,78,75794,470
69,75,76295,474
61,75,76295,474
64,72,76804,1045
71,86,76804,1045
80,67,78359,476
92,81,78359,506
81,70,78866,470
93,84,78866,500
80,67,79367,474
92,81,79367,504
85,72,79876,1045
97,86,79876,1045
85,80,79876,1045
74,80,79876,509
78,75,80416,475
81,76,80922,1015
73,76,80922,478
69,75,81431,476
80,78,81938,470
71,78,81938,470
81,75,82439,474
73,75,82439,474
76,72,82948,1045
83,86,82948,1045
85,76,83994,478
86,75,84503,476
85,78,85010,470
86,75,85511,474
85,80,86020,1554
78,80,86020,1045
68,80,86020,509
71,75,86560,475
80,76,87066,1015
76,76,87066,478
88,75,87575,1482
73,75,87575,476
78,78,88082,470
75,78,88082,470
81,75,88583,474
76,75,88583,504
95,80,89092,1554
75,72,89092,1045
80,86,89092,1045
90,75,90647,1512
86,80,92164,1015
67,80,92164,509
74,75,92704,505
69,75,92704,475
81,76,93210,478
74,76,93210,1015
78,75,93719,476
79,78,94226,470
74,78,94226,470
81,75,94727,474
76,75,94727,474
83,75,95236,3067
78,75,95236,3067
67,80,98308,509
74,63,98848,536
69,75,98848,475
81,64,99354,539
76,76,99354,1015
78,63,99863,506
78,66,100370,531
73,78,100370,470
81,63,100871,535
74,75,100871,474
85,75,101380,3067
77,75,101380,3067
73,55,104452,1085
38,54,104452,1085
78,51,105498,1055
42,51,105498,1055
81,53,106514,1045
49,53,106514,1045
78,62,107524,2061
38,54,107524,1085
42,51,108570,1055
80,65,109586,470
49,53,109586,1045
81,62,110087,474
83,67,110596,1554
40,54,110596,1085
47,51,111642,1055
81,62,112151,476
80,65,112658,470
52,53,112658,1045
78,62,113159,474
73,67,113668,1045
40,54,113668,1085
80,63,114714,478
47,51,114714,1055
81,62,115223,476
83,65,115730,470
54,53,115730,1045
85,62,116231,474
80,62,116740,6139
42,55,116740,1085
49,51,117786,1055
56,53,118802,1045
42,55,119812,1085
47,51,120858,1055
56,53,121874,1045
80,62,122884,2061
40,54,122884,1085
47,51,123930,1055
78,65,124946,1005
54,53,124946,1045
73,62,125956,3067
40,54,125956,1085
45,51,127002,1055
54,53,128018,1045
66,59,129028,1045
73,73,129028,1045
38,54,129028,1085
73,55,130074,1015
78,69,130074,1015
42,51,130074,1055
78,57,131090,1005
81,71,131090,1005
49,53,131090,1045
73,54,132100,2061
78,68,132100,2061
38,54,132100,1085
42,51,133146,1055
76,57,134162,470
80,71,134162,500
49,53,134162,1045
78,54,134663,474
81,68,134663,504
80,59,135172,1554
83,73,135172,1554
40,54,135172,1085
47,51,136218,1055
76,54,136727,476
81,68,136727,506
73,57,137234,470
80,71,137234,500
52,53,137234,1045
71,54,137735,474
78,68,137735,504
69,59,138244,1045
73,73,138244,1045
40,54,138244,1085
73,55,139290,478
80,69,139290,508
47,51,139290,1055
76,54,139799,476
81,68,139799,506
80,57,140306,470
83,71,140306,500
54,53,140306,1045
81,54,140807,474
85,68,140807,504
83,54,141316,6139
88,68,141316,6139
42,55,141316,1085
49,51,142362,1055
56,53,143378,1045
42,55,144388,1085
47,51,145434,1055
56,53,146450,1045
82,54,147460,3067
85,68,147460,3067
42,62,147460,3067
61,68,151578,478
69,82,151578,508
59,67,152087,476
68,81,152087,506
57,70,152594,470
66,84,152594,500
56,75,153095,474
64,89,153095,504
54,85,153604,1045
57,85,153604,1045
61,99,153604,1045
38,80,153604,570
42,76,154144,536
57,81,154650,1015
64,81,154650,1015
66,95,154650,1015
45,77,154650,539
49,76,155159,537
59,83,155666,1005
64,83,155666,1005
69,97,155666,1005
45,79,155666,531
42,76,156167,535
57,80,156676,2061
61,80,156676,2061
66,94,156676,2061
38,80,156676,570
42,76,157216,536
45,77,157722,539
49,76,158231,537
61,83,158738,470
64,83,158738,470
68,97,158738,500
45,79,158738,531
62,80,159239,474
69,94,159239,504
42,76,159239,535
64,85,159748,1045
71,99,159748,1045
40,80,159748,570
47,76,160288,536
62,81,160794,1015
69,95,160794,1015
52,77,160794,539
47,76,161303,537
61,83,161810,470
68,97,161810,500
40,78,161810,531
59,80,162311,474
66,94,162311,504
47,76,162311,535
56,85,162820,1045
61,99,162820,1045
40,80,162820,570
47,76,163360,536
61,81,163866,478
68,95,163866,508
52,77,163866,539
64,80,164375,476
69,94,164375,506
47,76,164375,537
66,83,164882,470
71,97,164882,500
54,79,164882,531
68,80,165383,504
73,94,165383,504
52,76,165383,535
59,80,165722,6309
64,80,165807,6224
68,94,165892,6139
42,81,165892,570
49,76,166432,536
54,77,166938,539
49,76,167447,537
42,79,167954,531
49,76,168455,535
42,81,168964,570
49,76,169504,536
57,77,170010,539
56,76,170519,537
49,79,171026,531
45,76,171527,535
59,80,171866,165
64,80,171951,80
68,94,172036,2061
42,81,172036,570
47,76,172576,536
52,77,173082,539
47,76,173591,537
59,83,174098,1005
66,97,174098,1005
42,79,174098,531
47,76,174599,535
54,80,175108,570
61,94,175108,3067
54,81,175108,570
47,76,175648,536
57,77,176154,539
56,76,176663,537
52,79,177170,531
47,76,177671,535
54,85,178180,1045
57,85,178180,1045
61,99,178180,1045
38,80,178180,570
42,76,178720,536
57,81,179226,1015
64,81,179226,1015
66,95,179226,1015
45,77,179226,539
49,76,179735,537
59,83,180242,1005
64,83,180242,1005
69,97,180242,1005
45,79,180242,531
42,76,180743,535
57,80,181252,2061
61,80,181252,2061
66,94,181252,2061
38,80,181252,570
42,76,181792,536
45,77,182298,539
49,76,182807,537
61,83,183314,470
64,83,183314,470
68,97,183314,500
45,79,183314,531
62,80,183815,474
69,94,183815,504
42,76,183815,535
64,85,184324,1045
71,99,184324,1045
40,80,184324,570
47,76,184864,536
62,81,185370,1015
69,95,185370,1015
52,77,185370,539
47,76,185879,537
61,83,186386,470
68,97,186386,500
40,78,186386,531
59,80,186887,474
66,94,186887,504
47,76,186887,535
56,85,187396,1045
61,99,187396,1045
40,80,187396,570
47,76,187936,536
61,81,188442,478
68,95,188442,508
52,77,188442,539
64,80,188951,476
69,94,188951,506
47,76,188951,537
66,83,189458,470
71,97,189458,500
54,79,189458,531
68,80,189959,504
73,94,189959,504
52,76,189959,535
64,80,190298,6309
68,80,190383,80
71,94,190468,6139
42,81,190468,570
49,76,191008,536
54,77,191514,539
49,76,192023,537
42,79,192530,531
49,76,193031,535
42,81,193540,570
49,76,194080,536
56,77,194586,539
54,76,195095,537
49,79,195602,531
45,76,196103,535
66,80,196442,2231
73,80,196527,2146
78,94,196612,2061
42,81,196612,570
47,76,197152,536
52,77,197658,539
47,76,198167,537
73,83,198674,1005
78,83,198674,1005
81,97,198674,1005
42,79,198674,531
47,76,199175,535
71,80,199684,3067
76,80,199684,3067
80,94,199684,3067
42,81,199684,570
47,76,200224,536
57,77,200730,539
56,76,201239,537
52,79,201746,531
47,76,202247,535
54,85,202756,1045
57,85,202756,1045
61,99,202756,1045
38,80,202756,570
42,76,203296,536
57,81,203802,1015
64,81,203802,1015
66,95,203802,1015
45,77,203802,539
49,76,204311,537
59,83,204818,1005
64,83,204818,1005
69,97,204818,1005
45,79,204818,531
42,76,205319,535
57,80,205828,2061
61,80,205828,2061
66,94,205828,2061
38,80,205828,570
42,76,206368,536
45,77,206874,539
49,76,207383,537
61,83,207890,470
64,83,207890,470
68,97,207890,500
45,79,207890,531
62,80,208391,474
69,94,208391,504
42,76,208391,535
64,85,208900,1045
71,99,208900,1045
40,80,208900,570
47,76,209440,536
62,81,209946,1015
69,95,209946,1015
52,77,209946,539
47,76,210455,537
61,83,210962,470
68,97,210962,500
40,78,210962,531
59,80,211463,474
66,94,211463,504
47,76,211463,535
56,85,211972,1045
61,99,211972,1045
40,80,211972,570
47,76,212512,536
61,81,213018,478
68,95,213018,508
52,77,213018,539
64,80,213527,476
69,94,213527,506
47,76,213527,537
66,83,214034,470
71,97,214034,500
54,79,214034,531
68,80,214535,504
73,94,214535,504
52,76,214535,535
59,80,214874,6309
64,80,214959,6224
68,94,215044,6139
42,81,215044,570
49,76,215584,536
54,77,216090,539
49,76,216599,537
42,79,217106,531
49,76,217607,535
42,81,218116,570
49,76,218656,536
57,77,219162,539
56,76,219671,537
49,79,220178,531
45,76,220679,535
59,80,221018,165
64,80,221103,80
68,94,221188,2061
42,81,221188,570
47,76,221728,536
52,77,222234,539
47,76,222743,537
59,83,223250,1005
66,97,223250,1005
42,79,223250,531
47,76,223751,535
54,80,224260,570
61,94,224260,3067
54,81,224260,570
47,76,224800,536
57,77,225306,539
56,76,225815,537
52,79,226322,531
47,76,226823,535
54,85,227332,1045
57,85,227332,1045
61,99,227332,1045
38,80,227332,570
42,76,227872,536
57,81,228378,1015
64,81,228378,1015
66,95,228378,1015
45,77,228378,539
49,76,228887,537
59,83,229394,1005
64,83,229394,1005
69,97,229394,1005
45,79,229394,531
42,76,229895,535
57,80,230404,2061
61,80,230404,2061
66,94,230404,2061
38,80,230404,570
42,76,230944,536
45,77,231450,539
49,76,231959,537
61,83,232466,470
64,83,232466,470
68,97,232466,500
45,79,232466,531
62,80,232967,474
69,94,232967,504
42,76,232967,535
64,85,233476,1045
71,99,233476,1045
40,80,233476,570
47,76,234016,536
62,81,234522,1015
69,95,234522,1015
52,77,234522,539
47,76,235031,537
61,83,235538,470
68,97,235538,500
40,78,235538,531
59,80,236039,474
66,94,236039,504
47,76,236039,535
56,85,236548,1045
61,99,236548,1045
40,80,236548,570
47,76,237088,536
61,81,237594,478
68,95,237594,508
52,77,237594,539
64,80,238103,476
69,94,238103,506
47,76,238103,537
66,83,238610,470
71,97,238610,500
54,79,238610,531
68,80,239111,504
73,94,239111,504
52,76,239111,535
64,80,239450,6309
68,80,239535,80
71,94,239620,6139
42,81,239620,570
49,76,240160,536
54,77,240666,539
49,76,241175,537
42,79,241682,531
49,76,242183,535
42,81,242692,570
49,76,243232,536
56,77,243738,539
54,76,244247,537
49,79,244754,531
45,76,245255,535
66,80,245594,2231
73,80,245679,2146
78,94,245764,2061
42,81,245764,570
47,76,246304,536
52,77,246810,539
47,76,247319,537
73,83,247826,1005
78,83,247826,1005
81,97,247826,1005
42,79,247826,531
47,76,248327,535
71,80,248836,3067
76,80,248836,3067
80,94,248836,3067
42,81,248836,570
47,76,249376,536
57,77,249882,539
56,76,250391,537
52,79,250898,531
47,76,251399,535
54,85,251908,1045
57,85,251908,1045
61,99,251908,1045
38,80,251908,570
42,76,252448,536
57,81,252954,1015
64,81,252954,1015
66,95,252954,1015
45,77,252954,539
49,76,253463,537
59,83,253970,1005
64,83,253970,1005
69,97,253970,1005
45,79,253970,531
42,76,254471,535
57,80,254980,2061
61,80,254980,2061
66,94,254980,2061
38,80,254980,570
42,76,255520,536
45,77,256026,539
49,76,256535,537
61,83,257042,470
64,83,257042,470
68,97,257042,500
45,79,257042,531
62,80,257543,474
69,94,257543,504
42,76,257543,535
64,85,258052,1045
71,99,258052,1045
40,80,258052,570
47,76,258592,536
62,81,259098,1015
69,95,259098,1015
52,77,259098,539
47,76,259607,537
61,83,260114,470
68,97,260114,500
40,78,260114,531
59,80,260615,474
66,94,260615,504
47,76,260615,535
56,85,261124,1045
61,99,261124,1045
40,80,261124,570
47,76,261664,536
61,81,262170,478
68,95,262170,508
52,77,262170,539
64,80,262679,476
69,94,262679,506
47,76,262679,537
66,83,263186,470
71,97,263186,500
54,79,263186,531
68,80,263687,504
73,94,263687,504
52,76,263687,535
59,80,264026,6309
64,80,264111,6224
68,94,264196,6139
42,81,264196,570
49,76,264736,536
54,77,265242,539
49,76,265751,537
42,79,266258,531
49,76,266759,535
42,81,267268,570
49,76,267808,536
57,77,268314,539
56,76,268823,537
49,79,269330,531
45,76,269831,535
59,80,270170,165
64,80,270255,80
68,94,270340,2061
42,81,270340,570
47,76,270880,536
52,77,271386,539
47,76,271895,537
59,83,272402,1005
66,97,272402,1005
42,79,272402,531
47,76,272903,535
54,80,273412,570
61,94,273412,3067
54,81,273412,570
47,76,273952,536
57,77,274458,539
56,76,274967,537
52,79,275474,531
47,76,275975,535
54,85,276484,1045
57,85,276484,1045
61,99,276484,1045
38,80,276484,570
42,76,277024,536
57,81,277530,1015
64,81,277530,1015
66,95,277530,1015
45,77,277530,539
49,76,278039,537
59,83,278546,1005
64,83,278546,1005
69,97,278546,1005
45,79,278546,531
42,76,279047,535
57,80,279556,2061
61,80,279556,2061
66,94,279556,2061
38,80,279556,570
42,76,280096,536
45,77,280602,539
49,76,281111,537
61,83,281618,470
64,83,281618,470
68,97,281618,500
45,79,281618,531
62,80,282119,474
69,94,282119,504
42,76,282119,535
64,85,282628,1045
71,99,282628,1045
40,80,282628,570
47,76,283168,536
62,81,283674,1015
69,95,283674,1015
52,77,283674,539
47,76,284183,537
61,83,284690,470
68,97,284690,500
40,78,284690,531
59,80,285191,474
66,94,285191,504
47,76,285191,535
56,85,285700,1045
61,99,285700,1045
40,80,285700,570
47,76,286240,536
61,81,286746,478
68,95,286746,508
52,77,286746,539
64,80,287255,476
69,94,287255,506
47,76,287255,537
66,83,287762,470
71,97,287762,500
54,79,287762,531
68,80,288263,504
73,94,288263,504
52,76,288263,535
64,80,288602,6309
68,80,288687,80
71,94,288772,6139
42,81,288772,570
49,76,289312,536
54,77,289818,539
49,76,290327,537
42,79,290834,531
49,76,291335,535
42,81,291844,570
49,76,292384,536
56,77,292890,539
54,76,293399,537
49,79,293906,531
45,76,294407,535
66,80,294746,2231
73,80,294831,2146
78,94,294916,2061
42,81,294916,570
47,76,295456,536
52,77,295962,539
47,76,296471,537
73,83,296978,1005
78,83,296978,1005
81,97,296978,1005
42,79,296978,531
47,76,297479,535
71,80,297988,3067
76,80,297988,3067
80,94,297988,3067
42,81,297988,570
47,76,298528,536
57,77,299034,539
56,76,299543,537
52,79,300050,531
47,76,300551,535
54,85,301060,1045
57,85,301060,1045
61,99,301060,1045
38,80,301060,570
42,76,301600,536
57,81,302106,1015
64,81,302106,1015
66,95,302106,1015
45,77,302106,539
49,76,302615,537
59,83,303122,1005
64,83,303122,1005
69,97,303122,1005
45,79,303122,531
42,76,303623,535
57,80,304132,2061
61,80,304132,2061
66,94,304132,2061
38,80,304132,570
42,76,304672,536
45,77,305178,539
49,76,305687,537
61,83,306194,470
64,83,306194,470
68,97,306194,500
45,79,306194,531
62,80,306695,474
69,94,306695,504
42,76,306695,535
64,85,307204,1045
71,99,307204,1045
40,80,307204,570
47,76,307744,536
62,81,308250,1015
69,95,308250,1015
52,77,308250,539
47,76,308759,537
61,83,309266,470
68,97,309266,500
40,78,309266,531
59,80,309767,474
66,94,309767,504
47,76,309767,535
56,85,310276,1045
61,99,310276,1045
40,80,310276,570
47,76,310816,536
61,81,311322,478
68,95,311322,508
52,77,311322,539
64,80,311831,476
69,94,311831,506
47,76,311831,537
66,83,312338,470
71,97,312338,500
54,79,312338,531
68,80,312839,504
73,94,312839,504
52,76,312839,535
59,80,313178,6309
64,80,313263,6224
68,94,313348,6139
42,81,313348,570
49,76,313888,536
54,77,314394,539
49,76,314903,537
42,79,315410,531
49,76,315911,535
42,81,316420,570
49,76,316960,536
57,77,317466,539
56,76,317975,537
49,79,318482,531
45,76,318983,535
59,80,319322,165
64,80,319407,80
68,94,319492,2061
42,81,319492,570
47,76,320032,536
52,77,320538,539
47,76,321047,537
59,83,321554,1005
66,97,321554,1005
42,79,321554,531
47,76,322055,535
61,85,322564,1045
69,99,322564,1045
52,81,322564,570
47,76,323104,536
57,81,323610,539
64,81,323610,1015
68,95,323610,1015
57,77,323610,539
56,76,324119,537
56,83,324626,30
64,97,324626,1005
52,79,324626,531
47,76,325127,535
54,85,325636,1045
57,85,325636,1045
61,99,325636,1045
38,80,325636,570
42,76,326176,536
57,81,326682,1015
64,81,326682,1015
66,95,326682,1015
45,77,326682,539
49,76,327191,537
59,83,327698,1005
64,83,327698,1005
69,97,327698,1005
45,79,327698,531
42,76,328199,535
57,80,328708,2061
61,80,328708,2061
66,94,328708,2061
38,80,328708,570
42,76,329248,536
45,77,329754,539
49,76,330263,537
61,83,330770,470
64,83,330770,470
68,97,330770,500
45,79,330770,531
62,80,331271,474
69,94,331271,504
42,76,331271,535
64,85,331780,1045
71,99,331780,1045
40,80,331780,570
47,76,332320,536
62,81,332826,1015
69,95,332826,1015
52,77,332826,539
47,76,333335,537
61,83,333842,470
68,97,333842,500
40,78,333842,531
59,80,334343,474
66,94,334343,504
47,76,334343,535
56,85,334852,1045
61,99,334852,1045
40,80,334852,570
47,76,335392,536
61,81,335898,478
68,95,335898,508
52,77,335898,539
64,80,336407,476
69,94,336407,506
47,76,336407,537
66,83,336914,470
71,97,336914,500
54,79,336914,531
68,80,337415,504
73,94,337415,504
52,76,337415,535
64,80,337754,6309
68,80,337839,80
71,94,337924,6139
42,81,337924,570
49,76,338464,536
54,77,338970,539
49,76,339479,537
42,79,339986,531
49,76,340487,535
42,81,340996,570
49,76,341536,536
56,77,342042,539
54,76,342551,537
49,79,343058,531
45,76,343559,535
61,91,343898,6309
64,80,343983,80
71,86,344068,6139
42,88,344068,6139
