note,velocity,position,duration
70,59,10,429
77,73,10,429
63,59,10,535
65,59,10,535
70,69,10,429
63,54,546,477
65,54,546,477
70,64,546,507
63,54,1559,509
65,54,1559,509
70,64,1559,509
82,57,2069,400
89,71,2069,400
63,57,2069,509
65,57,2069,509
70,67,2069,509
63,54,2579,474
65,54,2579,474
70,64,2579,504
63,54,3589,506
65,54,3589,506
70,64,3589,506
77,59,4100,435
84,73,4100,435
63,59,4100,541
65,59,4100,541
70,69,4100,541
63,54,4642,477
65,54,4642,477
70,64,4642,507
63,54,5655,509
65,54,5655,509
70,64,5655,509
63,57,6165,509
65,57,6165,509
70,67,6165,509
63,54,6675,504
65,54,6675,504
70,64,6675,504
63,55,7180,474
65,55,7180,504
70,69,7180,504
65,54,7685,506
72,68,7685,506
74,59,8196,435
82,73,8196,435
63,59,8196,541
65,59,8196,541
70,73,8196,541
63,54,8738,477
65,54,8738,477
70,64,8738,507
63,54,9751,509
65,54,9751,509
70,64,9751,509
82,57,10261,400
89,71,10261,400
63,57,10261,509
65,57,10261,509
70,67,10261,509
63,54,10771,474
65,54,10771,474
70,64,10771,504
63,54,11781,506
65,54,11781,506
70,64,11781,506
70,59,12292,435
77,73,12292,435
63,59,12292,541
65,59,12292,541
70,69,12292,435
63,54,12834,477
65,54,12834,477
70,64,12834,507
63,54,13847,509
65,54,13847,509
70,64,13847,509
63,57,14357,509
65,57,14357,509
70,67,14357,509
63,54,14867,504
65,54,14867,504
70,64,14867,504
63,55,15372,474
65,55,15372,504
70,69,15372,504
65,54,15877,506
72,68,15877,506
69,59,16388,435
77,73,16388,435
62,59,16388,541
65,59,16388,541
69,73,16388,435
62,54,16930,477
65,54,16930,477
69,64,16930,507
62,54,17943,509
65,54,17943,509
69,64,17943,509
72,57,18453,400
81,71,18453,400
62,57,18453,509
65,57,18453,509
69,67,18453,509
62,54,18963,474
65,54,18963,474
69,64,18963,504
62,54,19973,476
65,54,19973,476
69,64,19973,506
84,59,20484,435
93,73,20484,435
62,54,21026,477
65,54,21026,477
69,64,21026,507
62,54,22039,509
65,54,22039,509
69,64,22039,509
62,57,22549,509
65,57,22549,509
69,67,22549,509
62,54,23059,504
65,54,23059,504
69,64,23059,504
86,55,23564,397
94,69,23564,397
62,55,23564,474
65,55,23564,474
69,69,23564,504
84,59,24580,435
93,73,24580,435
62,59,24580,541
67,73,24580,541
62,54,25122,477
67,64,25122,507
62,54,26135,479
67,68,26135,509
81,57,26645,400
89,71,26645,400
65,57,26645,509
69,71,26645,509
65,54,27155,474
69,64,27155,504
65,54,28165,476
69,64,28165,506
82,59,28676,435
86,73,28676,435
70,62,29218,477
69,63,29726,474
70,62,30231,479
65,62,30231,479
69,65,30741,479
62,65,30741,479
65,62,31251,474
60,62,31251,474
62,63,31756,474
58,63,31756,474
65,62,32261,476
70,59,32778,429
77,73,32778,429
63,59,32778,535
65,59,32778,535
70,69,32778,429
63,54,33314,477
65,54,33314,477
70,64,33314,507
63,54,34327,509
65,54,34327,509
70,64,34327,509
82,57,34837,400
89,71,34837,400
63,57,34837,509
65,57,34837,509
70,67,34837,509
63,54,35347,474
65,54,35347,474
70,64,35347,504
63,54,36357,506
65,54,36357,506
70,64,36357,506
77,59,36868,435
84,73,36868,435
63,59,36868,541
65,59,36868,541
70,69,36868,541
63,54,37410,477
65,54,37410,477
70,64,37410,507
63,54,38423,509
65,54,38423,509
70,64,38423,509
63,57,38933,509
65,57,38933,509
70,67,38933,509
63,54,39443,504
65,54,39443,504
70,64,39443,504
63,55,39948,474
65,55,39948,504
70,69,39948,504
65,54,40453,506
72,68,40453,506
74,59,40964,435
82,73,40964,435
63,59,40964,541
65,59,40964,541
70,73,40964,541
63,54,41506,477
65,54,41506,477
70,64,41506,507
63,54,42519,509
65,54,42519,509
70,64,42519,509
82,57,43029,400
89,71,43029,400
63,57,43029,509
65,57,43029,509
70,67,43029,509
63,54,43539,474
65,54,43539,474
70,64,43539,504
63,54,44549,506
65,54,44549,506
70,64,44549,506
70,59,45060,435
77,73,45060,435
63,59,45060,541
65,59,45060,541
70,69,45060,435
63,54,45602,477
65,54,45602,477
70,64,45602,507
63,54,46615,509
65,54,46615,509
70,64,46615,509
63,57,47125,509
65,57,47125,509
70,67,47125,509
63,54,47635,504
65,54,47635,504
70,64,47635,504
63,55,48140,474
65,55,48140,504
70,69,48140,504
65,54,48645,506
72,68,48645,506
69,59,49156,435
77,73,49156,435
62,59,49156,541
65,59,49156,541
69,73,49156,435
62,54,49698,477
65,54,49698,477
69,64,49698,507
62,54,50711,509
65,54,50711,509
69,64,50711,509
72,57,51221,400
81,71,51221,400
62,57,51221,509
65,57,51221,509
69,67,51221,509
62,54,51731,474
65,54,51731,474
69,64,51731,504
62,54,52741,476
65,54,52741,476
69,64,52741,506
84,59,53252,435
93,73,53252,435
62,54,53794,477
65,54,53794,477
69,64,53794,507
62,54,54807,509
65,54,54807,509
69,64,54807,509
62,57,55317,509
65,57,55317,509
69,67,55317,509
62,54,55827,504
65,54,55827,504
69,64,55827,504
86,55,56332,397
94,69,56332,397
62,55,56332,474
65,55,56332,474
69,69,56332,504
84,59,57348,435
93,73,57348,435
62,59,57348,541
67,69,57348,541
62,54,57890,477
67,64,57890,507
62,54,58903,479
67,68,58903,509
81,57,59413,400
89,71,59413,400
65,57,59413,509
69,71,59413,509
65,54,59923,474
69,64,59923,504
65,54,60933,476
69,64,60933,506
82,54,61444,435
86,68,61444,435
69,66,61952,254
58,65,61986,477
70,64,62179,285
69,71,62494,474
57,69,62494,474
65,76,62999,479
53,73,62999,479
62,81,63509,479
50,77,63509,479
60,86,64019,474
48,81,64019,474
58,91,64524,474
46,85,64524,474
53,96,65029,476
41,89,65029,476
53,98,65540,2064
65,112,65540,2064
39,124,65540,541
46,125,65540,511
51,127,65540,541
39,127,66082,507
39,127,66590,504
39,119,67095,509
46,120,67095,479
51,127,67095,509
65,96,67605,2026
77,110,67605,2026
39,127,67605,509
39,127,68115,504
39,120,68620,504
46,121,68620,474
51,127,68620,504
39,127,69125,506
60,93,69636,4091
72,107,69636,4091
39,127,69636,541
39,119,70178,507
46,120,70178,477
51,127,70178,507
39,127,70686,504
39,127,71191,509
39,122,71701,509
46,123,71701,479
51,127,71701,509
39,127,72211,504
39,120,72716,474
46,121,72716,474
51,127,72716,504
41,127,73221,476
58,98,73732,2064
70,112,73732,2064
39,124,73732,541
46,125,73732,511
51,127,73732,541
39,127,74274,507
39,127,74782,504
39,119,75287,509
46,120,75287,479
51,127,75287,509
65,96,75797,2026
77,110,75797,2026
39,127,75797,509
39,127,76307,504
39,120,76812,504
46,121,76812,474
51,127,76812,504
39,127,77317,506
53,93,77828,4091
65,107,77828,4091
39,127,77828,541
39,119,78370,507
46,120,78370,477
51,127,78370,507
39,127,78878,504
39,127,79383,509
39,122,79893,509
46,123,79893,479
51,127,79893,509
39,127,80403,504
39,120,80908,474
46,121,80908,474
51,127,80908,504
41,127,81413,476
57,98,81924,2064
62,98,81924,2064
65,112,81924,2064
38,124,81924,541
45,125,81924,511
50,127,81924,541
38,127,82466,507
38,127,82974,504
38,119,83479,509
45,120,83479,479
50,127,83479,509
57,96,83989,2026
65,96,83989,2026
69,110,83989,2026
38,127,83989,509
38,127,84499,504
38,120,85004,504
45,121,85004,474
50,127,85004,504
38,127,85509,506
69,98,86020,2064
77,98,86020,2064
81,112,86020,2064
38,127,86020,541
38,119,86562,507
45,120,86562,477
50,127,86562,507
38,127,87070,504
38,127,87575,509
38,122,88085,509
45,123,88085,479
50,127,88085,509
38,127,88595,504
70,94,89100,1011
79,94,89100,1011
82,108,89100,1011
38,120,89100,504
45,121,89100,474
50,127,89100,504
38,127,89605,476
69,98,90116,2064
77,98,90116,2064
81,112,90116,2064
43,127,90116,541
43,127,90658,507
43,127,91166,504
43,127,91671,479
69,96,92181,2026
72,96,92181,2026
77,110,92181,2026
45,127,92181,509
45,127,92691,504
45,127,93196,504
45,127,93701,476
58,98,94212,2064
67,98,94212,2064
70,112,94212,2064
46,127,94212,541
82,101,94754,477
46,127,94754,507
81,102,95262,474
46,127,95262,504
77,101,95767,479
46,127,95767,479
74,104,96277,479
48,127,96277,479
72,101,96787,474
46,127,96787,474
70,102,97292,474
48,127,97292,474
65,101,97797,476
50,127,97797,476
53,98,98308,2064
65,112,98308,2064
39,124,98308,541
46,125,98308,511
51,127,98308,541
39,127,98850,507
39,127,99358,504
39,119,99863,509
46,120,99863,479
51,127,99863,509
65,96,100373,2026
77,110,100373,2026
39,127,100373,509
39,127,100883,504
39,120,101388,504
46,121,101388,474
51,127,101388,504
39,127,101893,506
60,93,102404,4091
72,107,102404,4091
39,127,102404,541
39,119,102946,507
46,120,102946,477
51,127,102946,507
39,127,103454,504
39,127,103959,509
39,122,104469,509
46,123,104469,479
51,127,104469,509
39,127,104979,504
39,120,105484,474
46,121,105484,474
51,127,105484,504
41,127,105989,476
58,98,106500,2064
70,112,106500,2064
39,124,106500,541
46,125,106500,511
51,127,106500,541
39,127,107042,507
39,127,107550,504
39,119,108055,509
46,120,108055,479
51,127,108055,509
65,96,108565,2026
77,110,108565,2026
39,127,108565,509
39,127,109075,504
39,120,109580,504
46,121,109580,474
51,127,109580,504
39,127,110085,506
53,93,110596,4091
65,107,110596,4091
39,127,110596,541
39,119,111138,507
46,120,111138,477
51,127,111138,507
39,127,111646,504
39,127,112151,509
39,122,112661,509
46,123,112661,479
51,127,112661,509
39,127,113171,504
39,120,113676,474
46,121,113676,474
51,127,113676,504
41,127,114181,476
57,98,114692,2064
62,98,114692,2064
65,112,114692,2064
38,124,114692,541
45,125,114692,511
50,127,114692,541
38,127,115234,507
38,127,115742,504
38,119,116247,509
45,120,116247,479
50,127,116247,509
57,96,116757,2026
65,96,116757,2026
69,110,116757,2026
38,127,116757,509
38,127,117267,504
38,120,117772,504
45,121,117772,474
50,127,117772,504
38,127,118277,506
69,98,118788,2064
77,98,118788,2064
81,112,118788,2064
38,127,118788,541
38,119,119330,507
45,120,119330,477
50,127,119330,507
38,127,119838,504
38,127,120343,509
38,122,120853,509
45,123,120853,479
50,127,120853,509
38,127,121363,504
70,94,121868,1011
79,94,121868,1011
82,108,121868,1011
38,120,121868,504
45,121,121868,474
50,127,121868,504
38,127,122373,476
69,98,122884,2064
77,98,122884,2064
81,112,122884,2064
43,127,122884,541
43,127,123426,507
43,127,123934,504
43,127,124439,479
69,96,124949,2026
72,96,124949,2026
77,110,124949,2026
45,127,124949,509
45,127,125459,504
45,127,125964,504
45,127,126469,476
58,98,126980,2064
67,98,126980,2064
70,112,126980,2064
46,127,126980,541
82,101,127522,477
46,127,127522,507
81,102,128030,474
46,127,128030,504
77,101,128535,479
46,127,128535,479
74,104,129045,479
48,127,129045,479
72,101,129555,474
46,127,129555,474
70,102,130060,474
48,127,130060,474
65,101,130565,476
50,127,130565,476
65,93,131076,435
36,110,131076,435
43,112,131076,435
48,122,131076,435
58,89,132126,400
36,106,132126,400
43,108,132126,400
48,118,132126,400
60,91,133141,400
36,105,133651,1516
43,107,133651,1516
48,117,133651,1516
58,89,134156,397
53,93,135172,435
36,110,135172,435
43,112,135172,435
48,122,135172,435
58,89,136222,400
36,106,136222,400
43,108,136222,400
48,118,136222,400
60,91,137237,400
36,105,137747,1516
43,107,137747,1516
48,121,137747,1516
58,89,138252,397
53,93,139268,435
38,111,139268,435
45,112,139268,435
50,126,139268,435
53,89,140318,474
38,107,140318,400
45,108,140318,400
50,118,140318,400
58,88,140823,479
60,91,141333,400
38,106,141843,1516
45,107,141843,1516
50,117,141843,1516
63,89,142348,397
62,93,143364,435
38,111,143364,435
45,112,143364,435
50,122,143364,435
63,89,144414,400
38,107,144414,400
45,108,144414,400
50,118,144414,400
62,91,145429,479
60,88,145939,474
38,106,145939,1516
45,107,145939,1516
50,121,145939,1516
58,89,146444,397
65,93,147460,435
39,111,147460,435
46,112,147460,435
51,126,147460,435
58,89,148510,400
39,107,148510,400
46,108,148510,400
51,118,148510,400
60,91,149525,400
39,106,150035,1516
46,107,150035,1516
51,117,150035,1516
58,89,150540,397
53,93,151556,435
39,111,151556,435
46,112,151556,435
51,122,151556,435
58,89,152606,400
39,107,152606,400
46,108,152606,400
51,118,152606,400
60,91,153621,400
39,106,154131,1516
46,107,154131,1516
51,121,154131,1516
58,89,154636,397
53,93,155652,435
41,112,155652,435
48,112,155652,435
53,126,155652,435
53,89,156702,400
41,108,156702,400
48,108,156702,400
53,118,156702,400
58,88,157207,479
60,91,157717,400
41,107,158227,1516
48,107,158227,1516
53,117,158227,1516
63,89,158732,397
62,93,159748,435
41,112,159748,435
48,112,159748,435
53,122,159748,435
63,89,160798,400
41,108,160798,400
48,108,160798,400
53,118,160798,400
62,91,161813,479
60,88,162323,474
41,107,162323,1516
48,107,162323,1516
53,117,162323,1516
58,89,162828,397
65,93,163844,435
36,110,163844,435
43,112,163844,435
48,122,163844,435
58,89,164894,400
36,106,164894,400
43,108,164894,400
48,118,164894,400
60,91,165909,400
36,105,166419,1516
43,107,166419,1516
48,117,166419,1516
58,89,166924,397
53,93,167940,435
36,110,167940,435
43,112,167940,435
48,122,167940,435
58,89,168990,400
36,106,168990,400
43,108,168990,400
48,118,168990,400
60,91,170005,400
36,105,170515,1516
43,107,170515,1516
48,121,170515,1516
58,89,171020,397
53,93,172036,435
38,111,172036,435
45,112,172036,435
50,126,172036,435
53,89,173086,474
38,107,173086,400
45,108,173086,400
50,118,173086,400
58,88,173591,479
60,91,174101,400
38,106,174611,1516
45,107,174611,1516
50,117,174611,1516
63,89,175116,397
62,93,176132,435
38,111,176132,435
45,112,176132,435
50,122,176132,435
63,89,177182,400
38,107,177182,400
45,108,177182,400
50,118,177182,400
62,91,178197,479
60,88,178707,474
38,106,178707,1516
45,107,178707,1516
50,121,178707,1516
58,89,179212,397
65,93,180228,435
39,111,180228,435
46,112,180228,435
51,126,180228,435
58,89,181278,400
39,107,181278,400
46,108,181278,400
51,118,181278,400
60,91,182293,400
39,106,182803,1516
46,107,182803,1516
51,117,182803,1516
58,89,183308,397
53,93,184324,435
39,111,184324,435
46,112,184324,435
51,122,184324,435
58,89,185374,400
39,107,185374,400
46,108,185374,400
51,118,185374,400
60,91,186389,400
39,106,186899,1516
46,107,186899,1516
51,121,186899,1516
58,89,187404,397
53,93,188420,435
41,112,188420,435
48,112,188420,435
53,122,188420,435
53,89,189470,400
41,108,189470,400
48,108,189470,400
53,118,189470,400
58,88,189975,479
60,91,190485,400
41,107,190995,1516
48,107,190995,1516
53,117,190995,1516
63,89,191500,397
62,93,192516,435
63,89,193566,400
62,91,194581,479
60,88,195091,474
58,89,195596,397
65,106,196612,1049
36,92,196612,541
36,87,197154,507
58,102,197662,1014
36,80,197662,504
43,82,197662,535
48,96,197662,504
36,87,198167,509
60,104,198677,1014
36,90,198677,509
36,79,199187,504
43,81,199187,535
48,95,199187,504
58,102,199692,1011
36,88,199692,504
36,79,200197,506
43,81,200197,537
48,95,200197,506
53,106,200708,511
36,92,200708,541
58,101,201250,477
36,79,201250,507
43,81,201250,538
48,95,201250,507
36,88,201758,504
60,101,202263,989
36,79,202263,509
43,81,202263,540
48,95,202263,509
36,90,202773,509
62,101,203283,232
36,79,203283,504
43,81,203283,535
48,95,203283,504
60,101,203531,241
58,102,203788,1011
36,88,203788,504
36,87,204293,537
53,106,204804,1049
38,93,204804,541
38,88,205346,507
58,102,205854,1014
38,81,205854,504
45,82,205854,535
50,96,205854,504
38,88,206359,509
60,104,206869,479
38,91,206869,509
63,101,207379,474
38,80,207379,504
45,81,207379,535
50,95,207379,504
38,89,207884,504
62,101,208389,1022
38,80,208389,506
45,81,208389,537
50,95,208389,506
38,93,208900,541
63,101,209442,233
38,88,209442,507
62,101,209691,243
60,102,209950,1014
38,81,209950,504
45,82,209950,535
50,96,209950,504
38,88,210455,509
58,104,210965,1014
38,91,210965,509
38,80,211475,504
45,81,211475,535
50,95,211475,504
53,102,211980,1011
38,89,211980,504
38,80,212485,537
45,81,212485,537
50,95,212485,506
65,106,212996,1049
39,93,212996,541
39,88,213538,507
58,102,214046,1014
39,81,214046,504
46,82,214046,535
51,96,214046,504
39,88,214551,509
60,104,215061,1014
39,91,215061,509
39,80,215571,504
46,81,215571,535
51,95,215571,504
58,102,216076,1011
39,89,216076,504
39,80,216581,506
46,81,216581,537
51,95,216581,506
53,106,217092,511
39,93,217092,541
58,101,217634,477
39,80,217634,507
46,81,217634,538
51,95,217634,507
39,89,218142,504
60,101,218647,989
39,80,218647,509
46,81,218647,540
51,95,218647,509
39,91,219157,509
62,101,219667,232
39,80,219667,504
46,81,219667,535
51,95,219667,504
60,101,219915,241
58,102,220172,1011
39,89,220172,504
39,88,220677,537
53,106,221188,1049
41,94,221188,541
41,89,221730,507
58,102,222238,1014
41,82,222238,504
48,82,222238,535
53,96,222238,504
41,89,222743,509
60,104,223253,479
41,92,223253,509
63,101,223763,474
41,81,223763,504
48,81,223763,535
53,95,223763,504
41,90,224268,504
62,101,224773,1022
41,81,224773,537
48,81,224773,537
53,95,224773,506
43,94,225284,541
63,101,225826,233
43,81,225826,507
50,81,225826,538
55,95,225826,507
62,101,226075,243
60,102,226334,1014
43,90,226334,504
43,81,226839,509
50,81,226839,540
55,95,226839,509
58,104,227349,1014
43,92,227349,509
43,81,227859,504
50,81,227859,535
55,95,227859,504
53,102,228364,1011
43,90,228364,504
43,89,228869,537
65,106,229380,1049
36,92,229380,541
36,87,229922,507
58,102,230430,1014
36,80,230430,504
43,82,230430,535
48,96,230430,504
36,87,230935,509
60,104,231445,1014
36,90,231445,509
36,79,231955,504
43,81,231955,535
48,95,231955,504
58,102,232460,1011
36,88,232460,504
36,79,232965,506
43,81,232965,537
48,95,232965,506
53,106,233476,511
36,92,233476,541
58,101,234018,477
36,79,234018,507
43,81,234018,538
48,95,234018,507
36,88,234526,504
60,101,235031,989
36,79,235031,509
43,81,235031,540
48,95,235031,509
36,90,235541,509
62,101,236051,232
36,79,236051,504
43,81,236051,535
48,95,236051,504
60,101,236299,241
58,102,236556,1011
36,88,236556,504
36,87,237061,537
53,106,237572,1049
38,93,237572,541
38,88,238114,507
58,102,238622,1014
38,81,238622,504
45,82,238622,535
50,96,238622,504
38,88,239127,509
60,104,239637,479
38,91,239637,509
63,101,240147,474
38,80,240147,504
45,81,240147,535
50,95,240147,504
38,89,240652,504
62,101,241157,1022
38,80,241157,506
45,81,241157,537
50,95,241157,506
38,93,241668,541
63,101,242210,233
38,88,242210,507
62,101,242459,243
60,102,242718,1014
38,81,242718,504
45,82,242718,535
50,96,242718,504
38,88,243223,509
58,104,243733,1014
38,91,243733,509
38,80,244243,504
45,81,244243,535
50,95,244243,504
53,102,244748,1011
38,89,244748,504
38,80,245253,537
45,81,245253,537
50,95,245253,506
65,106,245764,1049
39,93,245764,541
39,88,246306,507
58,102,246814,1014
39,81,246814,504
46,82,246814,535
51,96,246814,504
39,88,247319,509
60,104,247829,1014
39,91,247829,509
39,80,248339,504
46,81,248339,535
51,95,248339,504
58,102,248844,1011
39,89,248844,504
39,80,249349,506
46,81,249349,537
51,95,249349,506
53,106,249860,511
39,93,249860,541
58,101,250402,477
39,80,250402,507
46,81,250402,538
51,95,250402,507
39,89,250910,504
60,101,251415,989
39,80,251415,509
46,81,251415,540
51,95,251415,509
39,91,251925,509
62,101,252435,232
39,80,252435,504
46,81,252435,535
51,95,252435,504
60,101,252683,241
58,102,252940,1011
39,89,252940,504
39,88,253445,537
53,106,253956,1049
41,94,253956,541
41,89,254498,507
58,102,255006,1014
41,82,255006,504
48,82,255006,535
53,96,255006,504
41,89,255511,509
60,104,256021,479
41,92,256021,509
63,101,256531,474
41,81,256531,504
48,81,256531,535
53,95,256531,504
41,90,257036,504
62,101,257541,1022
41,81,257541,537
48,81,257541,537
53,95,257541,506
43,94,258052,541
63,101,258594,233
43,81,258594,507
50,81,258594,538
55,95,258594,507
62,101,258843,243
60,102,259102,1014
43,90,259102,504
43,81,259607,509
50,81,259607,540
55,95,259607,509
58,104,260117,1014
43,92,260117,509
43,81,260627,504
50,81,260627,535
55,95,260627,504
53,102,261132,1011
43,90,261132,504
43,89,261637,537
62,85,262148,435
70,95,262148,435
36,79,262148,541
36,74,262690,507
62,81,263198,474
70,95,263198,504
36,67,263198,504
43,69,263198,535
48,83,263198,504
63,80,263703,479
72,94,263703,509
36,74,263703,509
65,83,264213,400
74,97,264213,400
36,77,264213,509
36,66,264723,504
43,68,264723,535
48,82,264723,504
62,81,265228,397
70,95,265228,397
36,75,265228,504
36,66,265733,506
43,68,265733,537
48,82,265733,506
63,85,266244,435
72,99,266244,435
36,79,266244,541
36,66,266786,507
43,68,266786,538
48,82,266786,507
63,81,267294,474
72,95,267294,504
36,75,267294,504
65,80,267799,479
74,94,267799,509
36,66,267799,509
43,68,267799,540
48,82,267799,509
63,83,268309,400
72,97,268309,400
36,77,268309,509
36,66,268819,504
43,68,268819,535
48,82,268819,504
62,81,269324,397
70,95,269324,397
36,75,269324,504
36,74,269829,537
65,85,270340,435
74,99,270340,435
38,80,270340,541
38,75,270882,507
65,81,271390,474
74,95,271390,504
38,68,271390,504
45,69,271390,535
50,83,271390,504
67,80,271895,479
75,94,271895,509
38,75,271895,509
70,83,272405,400
77,97,272405,400
38,78,272405,509
38,67,272915,504
45,68,272915,535
50,82,272915,504
77,81,273420,397
82,95,273420,397
38,76,273420,504
38,67,273925,506
45,68,273925,537
50,82,273925,506
70,85,274436,2064
79,99,274436,2064
38,80,274436,541
38,75,274978,507
38,68,275486,504
45,69,275486,535
50,83,275486,504
38,75,275991,509
72,83,276501,2026
77,97,276501,2026
38,78,276501,509
38,67,277011,504
45,68,277011,535
50,82,277011,504
38,76,277516,504
38,67,278021,537
45,68,278021,537
50,82,278021,506
62,85,278532,541
70,99,278532,541
39,80,278532,541
62,80,279074,507
70,90,279074,507
39,75,279074,507
62,81,279582,474
70,95,279582,504
39,68,279582,504
46,69,279582,535
51,83,279582,504
63,80,280087,479
72,94,280087,509
39,75,280087,509
65,83,280597,400
74,97,280597,400
39,78,280597,509
39,67,281107,504
46,68,281107,535
51,82,281107,504
62,81,281612,397
70,95,281612,397
39,76,281612,504
39,67,282117,506
46,68,282117,537
51,82,282117,506
63,85,282628,435
72,99,282628,435
39,80,282628,541
39,67,283170,507
46,68,283170,538
51,82,283170,507
63,81,283678,474
72,95,283678,504
39,76,283678,504
65,80,284183,479
74,94,284183,509
39,67,284183,509
46,68,284183,540
51,82,284183,509
63,83,284693,400
72,97,284693,400
39,78,284693,509
39,67,285203,504
46,68,285203,535
51,82,285203,504
62,81,285708,397
70,95,285708,397
39,76,285708,504
39,75,286213,537
65,85,286724,435
74,99,286724,435
41,81,286724,541
41,76,287266,507
65,81,287774,474
74,95,287774,504
41,69,287774,504
48,69,287774,535
53,83,287774,504
67,80,288279,479
75,94,288279,509
41,76,288279,509
70,83,288789,400
77,97,288789,400
41,79,288789,509
41,68,289299,504
48,68,289299,535
53,82,289299,504
77,81,289804,397
82,95,289804,397
41,77,289804,504
41,68,290309,537
48,68,290309,537
53,82,290309,506
70,85,290820,2064
79,99,290820,2064
43,81,290820,541
43,68,291362,507
50,68,291362,538
55,82,291362,507
43,77,291870,504
43,68,292375,509
50,68,292375,540
55,82,292375,509
70,83,292885,2026
77,97,292885,2026
43,79,292885,509
43,68,293395,504
50,68,293395,535
55,82,293395,504
43,77,293900,504
43,76,294405,537
62,85,294916,435
70,95,294916,435
36,79,294916,541
36,74,295458,507
62,81,295966,474
70,95,295966,504
36,67,295966,504
43,69,295966,535
48,83,295966,504
63,80,296471,479
72,94,296471,509
36,74,296471,509
65,83,296981,400
74,97,296981,400
36,77,296981,509
36,66,297491,504
43,68,297491,535
48,82,297491,504
62,81,297996,397
70,95,297996,397
36,75,297996,504
36,66,298501,506
43,68,298501,537
48,82,298501,506
63,85,299012,435
72,99,299012,435
36,79,299012,541
36,66,299554,507
43,68,299554,538
48,82,299554,507
63,81,300062,474
72,95,300062,504
36,75,300062,504
65,80,300567,479
74,94,300567,509
36,66,300567,509
43,68,300567,540
48,82,300567,509
63,83,301077,400
72,97,301077,400
36,77,301077,509
36,66,301587,504
43,68,301587,535
48,82,301587,504
62,81,302092,397
70,95,302092,397
36,75,302092,504
36,74,302597,537
65,85,303108,435
74,99,303108,435
38,80,303108,541
38,75,303650,507
65,81,304158,474
74,95,304158,504
38,68,304158,504
45,69,304158,535
50,83,304158,504
67,80,304663,479
75,94,304663,509
38,75,304663,509
70,83,305173,400
77,97,305173,400
38,78,305173,509
38,67,305683,504
45,68,305683,535
50,82,305683,504
77,81,306188,397
82,95,306188,397
38,76,306188,504
38,67,306693,506
45,68,306693,537
50,82,306693,506
70,85,307204,2064
79,99,307204,2064
38,80,307204,541
38,75,307746,507
38,68,308254,504
45,69,308254,535
50,83,308254,504
38,75,308759,509
72,83,309269,2026
77,97,309269,2026
38,78,309269,509
38,67,309779,504
45,68,309779,535
50,82,309779,504
38,76,310284,504
38,67,310789,537
45,68,310789,537
50,82,310789,506
62,85,311300,541
70,99,311300,541
39,80,311300,541
62,80,311842,507
70,90,311842,507
39,75,311842,507
62,81,312350,474
70,95,312350,504
39,68,312350,504
46,69,312350,535
51,83,312350,504
63,80,312855,479
72,94,312855,509
39,75,312855,509
65,83,313365,400
74,97,313365,400
39,78,313365,509
39,67,313875,504
46,68,313875,535
51,82,313875,504
62,81,314380,397
70,95,314380,397
39,76,314380,504
39,67,314885,506
46,68,314885,537
51,82,314885,506
63,85,315396,435
72,99,315396,435
39,80,315396,541
39,67,315938,507
46,68,315938,538
51,82,315938,507
63,81,316446,474
72,95,316446,504
39,76,316446,504
65,80,316951,479
74,94,316951,509
39,67,316951,509
46,68,316951,540
51,82,316951,509
63,83,317461,400
72,97,317461,400
39,78,317461,509
39,67,317971,504
46,68,317971,535
51,82,317971,504
62,81,318476,397
70,95,318476,397
39,76,318476,504
39,75,318981,537
65,85,319492,435
74,99,319492,435
41,81,319492,541
41,76,320034,507
65,81,320542,474
74,95,320542,504
41,69,320542,504
48,69,320542,535
53,83,320542,504
67,80,321047,479
75,94,321047,509
41,76,321047,509
70,83,321557,400
77,97,321557,400
41,79,321557,509
41,68,322067,504
48,68,322067,535
53,82,322067,504
77,81,322572,397
82,95,322572,397
41,77,322572,504
41,68,323077,537
48,68,323077,537
53,82,323077,506
70,85,323588,2064
79,99,323588,2064
43,81,323588,541
43,68,324130,507
50,68,324130,538
55,82,324130,507
43,77,324638,504
43,68,325143,509
50,68,325143,540
55,82,325143,509
70,83,325653,2026
77,97,325653,2026
43,79,325653,509
43,68,326163,504
50,68,326163,535
55,82,326163,504
43,77,326668,504
43,76,327173,537
66,106,327684,1049
37,93,327684,541
37,88,328226,507
59,102,328734,1014
37,81,328734,504
44,82,328734,535
49,96,328734,504
37,88,329239,509
61,104,329749,1014
37,91,329749,509
37,80,330259,504
44,81,330259,535
49,95,330259,504
59,102,330764,1011
37,89,330764,504
37,80,331269,506
44,81,331269,537
49,95,331269,506
54,106,331780,511
37,93,331780,541
59,101,332322,477
37,80,332322,507
44,81,332322,538
49,95,332322,507
37,89,332830,504
61,101,333335,989
37,80,333335,509
44,81,333335,540
49,95,333335,509
37,91,333845,509
63,101,334355,232
37,80,334355,504
44,81,334355,535
49,95,334355,504
61,101,334603,241
59,102,334860,1011
37,89,334860,504
37,88,335365,537
54,106,335876,1049
39,93,335876,541
39,88,336418,507
59,102,336926,1014
39,81,336926,504
46,82,336926,535
51,96,336926,504
39,88,337431,509
61,104,337941,479
39,91,337941,509
64,101,338451,474
39,80,338451,504
46,81,338451,535
51,95,338451,504
39,89,338956,504
63,101,339461,1022
39,80,339461,506
46,81,339461,537
51,95,339461,506
39,93,339972,541
64,101,340514,233
39,88,340514,507
63,101,340763,243
61,94,341022,1014
64,108,341022,1014
39,81,341022,504
46,82,341022,535
51,96,341022,504
39,88,341527,509
59,96,342037,1014
63,110,342037,1014
39,91,342037,509
39,80,342547,504
46,81,342547,535
51,95,342547,504
54,94,343052,1011
64,108,343052,1011
39,89,343052,504
39,80,343557,537
46,81,343557,537
51,95,343557,506
66,106,344068,1049
40,93,344068,541
40,88,344610,507
59,102,345118,1014
40,81,345118,504
47,82,345118,535
52,96,345118,504
40,88,345623,509
61,104,346133,1014
40,91,346133,509
40,80,346643,504
47,81,346643,535
52,95,346643,504
59,102,347148,1011
40,89,347148,504
40,80,347653,506
47,81,347653,537
52,95,347653,506
54,106,348164,511
40,93,348164,541
59,101,348706,477
40,80,348706,507
47,81,348706,538
52,95,348706,507
40,89,349214,504
61,101,349719,989
40,80,349719,509
47,81,349719,540
52,95,349719,509
40,91,350229,509
63,101,350739,232
40,80,350739,504
47,81,350739,535
52,95,350739,504
61,101,350987,241
59,102,351244,1011
40,89,351244,504
40,88,351749,537
66,106,352260,1049
42,94,352260,541
42,89,352802,507
59,102,353310,1014
42,82,353310,504
49,82,353310,535
54,96,353310,504
42,89,353815,509
68,96,354325,479
71,110,354325,509
42,92,354325,509
66,93,354835,474
70,107,354835,504
42,81,354835,504
49,81,354835,535
54,95,354835,504
42,90,355340,504
63,93,355845,476
66,107,355845,506
42,81,355845,537
49,81,355845,537
54,95,355845,506
44,94,356356,541
59,93,356898,477
63,107,356898,507
44,81,356898,507
51,81,356898,538
56,95,356898,507
58,94,357406,474
61,108,357406,504
44,90,357406,504
56,93,357911,509
59,107,357911,1019
44,81,357911,509
51,81,357911,540
56,95,357911,509
44,92,358421,509
61,101,358931,474
44,81,358931,504
51,81,358931,535
56,95,358931,504
59,102,359436,474
44,90,359436,504
54,101,359941,476
44,89,359941,537
66,106,360452,1049
37,93,360452,541
37,88,360994,507
59,102,361502,1014
37,81,361502,504
44,82,361502,535
49,96,361502,504
37,88,362007,509
61,104,362517,1014
37,91,362517,509
37,80,363027,504
44,81,363027,535
49,95,363027,504
59,102,363532,1011
37,89,363532,504
37,80,364037,506
44,81,364037,537
49,95,364037,506
54,106,364548,511
37,93,364548,541
59,101,365090,477
37,80,365090,507
44,81,365090,538
49,95,365090,507
37,89,365598,504
61,101,366103,989
37,80,366103,509
44,81,366103,540
49,95,366103,509
37,91,366613,509
63,101,367123,232
37,80,367123,504
44,81,367123,535
49,95,367123,504
61,101,367371,241
59,102,367628,1011
37,89,367628,504
37,88,368133,537
54,106,368644,1049
39,93,368644,541
39,88,369186,507
59,102,369694,1014
39,81,369694,504
46,82,369694,535
51,96,369694,504
39,88,370199,509
61,104,370709,479
39,91,370709,509
64,101,371219,474
39,80,371219,504
46,81,371219,535
51,95,371219,504
39,89,371724,504
63,101,372229,1022
39,80,372229,506
46,81,372229,537
51,95,372229,506
39,93,372740,541
64,101,373282,233
39,88,373282,507
63,101,373531,243
61,94,373790,1014
64,108,373790,1014
39,81,373790,504
46,82,373790,535
51,96,373790,504
39,88,374295,509
59,96,374805,1014
63,110,374805,1014
39,91,374805,509
39,80,375315,504
46,81,375315,535
51,95,375315,504
54,94,375820,1011
64,108,375820,1011
39,89,375820,504
39,80,376325,537
46,81,376325,537
51,95,376325,506
66,106,376836,1049
40,93,376836,541
40,88,377378,507
59,102,377886,1014
40,81,377886,504
47,82,377886,535
52,96,377886,504
40,88,378391,509
61,104,378901,1014
40,91,378901,509
40,80,379411,504
47,81,379411,535
52,95,379411,504
59,102,379916,1011
40,89,379916,504
40,80,380421,506
47,81,380421,537
52,95,380421,506
54,106,380932,511
40,93,380932,541
59,101,381474,477
40,80,381474,507
47,81,381474,538
52,95,381474,507
40,89,381982,504
61,101,382487,989
40,80,382487,509
47,81,382487,540
52,95,382487,509
40,91,382997,509
63,101,383507,232
40,80,383507,504
47,81,383507,535
52,95,383507,504
61,101,383755,241
59,102,384012,1011
40,89,384012,504
40,88,384517,537
66,106,385028,1049
42,94,385028,541
42,89,385570,507
59,102,386078,1014
42,82,386078,504
49,82,386078,535
54,96,386078,504
42,89,386583,509
68,96,387093,479
71,110,387093,509
42,92,387093,509
66,93,387603,474
70,107,387603,504
42,81,387603,504
49,81,387603,535
54,95,387603,504
42,90,388108,504
63,93,388613,476
66,107,388613,506
42,81,388613,537
49,81,388613,537
54,95,388613,506
44,94,389124,541
59,93,389666,477
63,107,389666,507
44,81,389666,507
51,81,389666,538
56,95,389666,507
58,94,390174,474
61,108,390174,504
44,90,390174,504
56,93,390679,509
59,107,390679,1019
44,81,390679,509
51,81,390679,540
56,95,390679,509
44,92,391189,509
61,101,391699,474
44,81,391699,504
51,81,391699,535
56,95,391699,504
59,102,392204,474
44,90,392204,504
54,101,392709,476
44,89,392709,537
51,54,393220,8187
54,54,393220,8187
58,54,393220,8187
59,54,393220,8187
63,64,393220,8187
70,55,394270,400
75,55,394270,400
78,65,394270,400
70,45,395285,509
75,45,395285,509
78,55,395285,509
70,42,395795,535
75,42,395795,535
78,52,395795,504
70,42,396805,537
75,42,396805,537
78,52,396805,506
70,42,397858,538
75,42,397858,538
78,56,397858,507
68,55,398366,1014
73,55,398366,1014
76,69,398366,1014
66,57,399381,1014
71,57,399381,1014
75,71,399381,1014
68,55,400396,1011
73,55,400396,1011
76,69,400396,1011
68,59,401412,2064
71,59,401412,2064
78,73,401412,2064
52,54,401412,8187
56,54,401412,8187
59,54,401412,8187
64,68,401412,8187
75,57,403477,1014
78,57,403477,1014
83,71,403477,1014
68,54,404997,3590
71,54,404997,3590
78,68,404997,3590
49,73,407573,1014
61,87,407573,1014
51,71,408588,1011
63,85,408588,1011
51,54,409604,8187
58,54,409604,8187
63,68,409604,8187
42,75,409604,2064
54,89,409604,2064
70,66,410654,400
75,66,410654,400
78,61,410654,400
70,45,411669,509
75,45,411669,509
78,55,411669,509
70,42,412179,535
75,42,412179,535
78,52,412179,504
70,42,413189,537
75,42,413189,537
78,52,413189,506
70,42,414242,538
75,42,414242,538
78,56,414242,507
68,55,414750,1014
73,55,414750,1014
76,69,414750,1014
66,57,415765,1014
71,57,415765,1014
75,71,415765,1014
68,55,416780,1011
73,55,416780,1011
76,69,416780,1011
70,59,417796,1049
73,59,417796,1049
78,73,417796,1049
54,54,417796,3079
58,54,417796,3079
63,54,417796,3079
66,68,417796,2064
66,55,418846,1014
70,55,418846,1014
73,69,418846,1014
63,57,419861,1014
66,57,419861,1014
70,71,419861,1014
63,55,420876,5107
68,55,420876,5107
71,69,420876,5107
56,55,420876,5107
59,69,420876,5107
39,70,422942,1014
51,85,422942,1014
37,76,423957,1014
49,91,423957,1014
35,85,424972,1011
47,101,424972,1011
39,127,425988,541
39,100,426530,507
66,94,427038,400
70,94,427038,400
78,108,427038,400
39,93,427038,474
46,94,427038,474
51,108,427038,504
37,100,427543,479
66,84,428053,509
70,84,428053,509
78,94,428053,509
39,103,428053,509
66,81,428563,535
70,81,428563,535
78,91,428563,504
39,92,428563,504
46,93,428563,474
51,107,428563,504
39,101,429068,504
66,81,429573,537
70,81,429573,537
78,91,429573,506
39,100,429573,506
39,105,430084,541
66,81,430626,538
70,81,430626,538
78,95,430626,507
39,100,430626,507
64,94,431134,1014
68,94,431134,1014
76,108,431134,1014
39,93,431134,474
46,94,431134,474
51,108,431134,504
37,100,431639,479
63,96,432149,1014
71,96,432149,1014
75,110,432149,1014
39,103,432149,509
39,92,432659,474
46,93,432659,474
51,107,432659,504
64,94,433164,1011
68,94,433164,1011
76,108,433164,1011
37,101,433164,474
39,100,433669,476
66,98,434180,2064
75,98,434180,2064
78,112,434180,2064
40,105,434180,541
40,100,434722,507
40,93,435230,504
47,94,435230,474
52,108,435230,504
40,100,435735,509
71,96,436245,1014
80,96,436245,1014
83,110,436245,1014
40,103,436245,509
40,92,436755,504
47,93,436755,474
52,107,436755,504
40,101,437260,504
66,93,437765,2575
71,93,437765,2575
78,107,437765,2575
40,100,437765,506
40,105,438276,541
40,100,438818,507
40,93,439326,504
47,94,439326,474
52,108,439326,504
40,100,439831,509
40,103,440341,509
49,96,440341,1014
61,110,440341,1014
40,100,440851,504
40,101,441356,504
51,94,441356,1011
63,108,441356,1011
40,100,441861,476
39,105,442372,541
42,98,442372,2064
54,112,442372,2064
39,100,442914,507
66,94,443422,400
70,105,443422,400
78,100,443422,400
39,93,443422,474
46,94,443422,474
51,108,443422,504
37,100,443927,479
66,84,444437,509
70,84,444437,509
78,94,444437,509
39,103,444437,509
66,81,444947,535
70,81,444947,535
78,91,444947,504
39,92,444947,504
46,93,444947,474
51,107,444947,504
39,101,445452,504
66,81,445957,537
70,81,445957,537
78,91,445957,506
39,100,445957,506
39,105,446468,541
66,81,447010,538
70,81,447010,538
78,95,447010,507
39,100,447010,507
64,94,447518,1014
68,94,447518,1014
76,108,447518,1014
39,93,447518,474
46,94,447518,474
51,108,447518,504
37,100,448023,479
63,96,448533,1014
71,96,448533,1014
75,110,448533,1014
39,103,448533,509
39,92,449043,474
46,93,449043,474
51,107,449043,504
64,94,449548,1011
68,94,449548,1011
76,108,449548,1011
37,101,449548,474
39,100,450053,476
66,98,450564,1049
73,98,450564,1049
78,112,450564,1049
42,106,450564,541
42,101,451106,507
71,94,451614,1014
75,94,451614,1014
83,108,451614,1014
42,102,451614,504
42,101,452119,509
70,96,452629,1014
73,96,452629,1014
82,110,452629,1014
42,104,452629,509
42,101,453139,474
71,94,453644,4095
80,94,453644,4095
83,108,453644,4095
44,102,453644,504
44,101,454149,506
44,106,454660,541
44,101,455202,507
44,102,455710,504
51,94,455710,1014
63,108,455710,1014
44,101,456215,509
44,104,456725,509
49,96,456725,1014
61,110,456725,1014
44,101,457235,504
44,102,457740,504
47,94,457740,1011
59,108,457740,1011
44,101,458245,476
39,127,458756,541
39,100,459298,507
66,94,459806,400
70,94,459806,400
78,108,459806,400
39,93,459806,474
46,94,459806,474
51,108,459806,504
37,100,460311,479
66,84,460821,509
70,84,460821,509
78,94,460821,509
39,103,460821,509
66,81,461331,535
70,81,461331,535
78,91,461331,504
39,92,461331,504
46,93,461331,474
51,107,461331,504
39,101,461836,504
66,81,462341,537
70,81,462341,537
78,91,462341,506
39,100,462341,506
39,105,462852,541
66,81,463394,538
70,81,463394,538
78,95,463394,507
39,100,463394,507
64,94,463902,1014
68,94,463902,1014
76,108,463902,1014
39,93,463902,474
46,94,463902,474
51,108,463902,504
37,100,464407,479
63,96,464917,1014
71,96,464917,1014
75,110,464917,1014
39,103,464917,509
39,92,465427,474
46,93,465427,474
51,107,465427,504
64,94,465932,1011
68,94,465932,1011
76,108,465932,1011
37,101,465932,474
39,100,466437,476
66,98,466948,2064
75,98,466948,2064
78,112,466948,2064
40,105,466948,541
40,100,467490,507
40,93,467998,504
47,94,467998,474
52,108,467998,504
40,100,468503,509
71,96,469013,1014
80,96,469013,1014
83,110,469013,1014
40,103,469013,509
40,92,469523,504
47,93,469523,474
52,107,469523,504
40,101,470028,504
66,93,470533,2575
71,93,470533,2575
78,107,470533,2575
40,100,470533,506
40,105,471044,541
40,100,471586,507
40,93,472094,504
47,94,472094,474
52,108,472094,504
40,100,472599,509
40,103,473109,509
49,96,473109,1014
61,110,473109,1014
40,100,473619,504
40,101,474124,504
51,94,474124,1011
63,108,474124,1011
40,100,474629,476
39,105,475140,541
42,98,475140,2064
54,112,475140,2064
39,100,475682,507
66,94,476190,400
70,105,476190,400
78,100,476190,400
39,93,476190,474
46,94,476190,474
51,108,476190,504
37,100,476695,479
66,84,477205,509
70,84,477205,509
78,94,477205,509
39,103,477205,509
66,81,477715,535
70,81,477715,535
78,91,477715,504
39,92,477715,504
46,93,477715,474
51,107,477715,504
39,101,478220,504
66,81,478725,537
70,81,478725,537
78,91,478725,506
39,100,478725,506
39,105,479236,541
66,81,479778,538
70,81,479778,538
78,95,479778,507
39,100,479778,507
64,94,480286,1014
68,94,480286,1014
76,108,480286,1014
39,93,480286,474
46,94,480286,474
51,108,480286,504
37,100,480791,479
63,96,481301,1014
71,96,481301,1014
75,110,481301,1014
39,103,481301,509
39,92,481811,474
46,93,481811,474
51,107,481811,504
64,94,482316,1011
68,94,482316,1011
76,108,482316,1011
37,101,482316,474
39,100,482821,476
66,98,483332,1049
73,98,483332,1049
78,112,483332,1049
42,106,483332,541
42,101,483874,507
71,94,484382,1014
75,94,484382,1014
83,108,484382,1014
42,102,484382,504
42,101,484887,509
70,96,485397,1014
73,96,485397,1014
82,110,485397,1014
42,104,485397,509
42,101,485907,474
71,94,486412,4095
80,94,486412,4095
83,108,486412,4095
44,102,486412,504
44,101,486917,506
44,106,487428,541
44,101,487970,507
44,102,488478,504
44,101,488983,509
44,104,489493,509
44,101,490003,504
63,94,490508,474
66,108,490508,504
44,102,490508,504
66,93,491013,506
71,107,491013,506
44,101,491013,476
66,72,491524,1049
71,72,491524,1049
75,86,491524,1049
37,66,491524,8187
49,77,491524,8187
66,68,492574,1014
71,68,492574,1014
75,78,492574,1014
66,58,493589,509
71,58,493589,509
75,68,493589,509
66,55,494099,535
71,55,494099,535
75,65,494099,504
66,55,495109,537
71,55,495109,537
75,65,495109,506
66,55,496162,538
71,55,496162,538
75,69,496162,507
64,68,496670,1014
70,68,496670,1014
73,82,496670,1014
61,75,497175,479
63,70,497685,1014
68,70,497685,1014
71,84,497685,1014
56,75,498195,474
59,68,498700,1011
64,68,498700,1011
68,82,498700,1011
54,75,499205,476
39,66,499716,4091
46,67,499716,4091
51,81,499716,4091
70,68,500766,1014
75,82,500766,1014
63,76,500766,474
61,75,501271,479
70,58,501781,509
75,68,501781,509
63,78,501781,479
70,55,502291,535
75,65,502291,504
66,75,502291,474
61,76,502796,474
70,55,503301,537
75,69,503301,506
63,75,503301,476
66,80,503812,511
39,67,503812,541
61,75,504354,477
39,62,504354,507
68,68,504862,1014
73,82,504862,1014
63,76,504862,474
39,63,504862,504
49,95,504862,1014
65,75,505367,479
39,62,505367,509
70,70,505877,1014
75,84,505877,1014
66,78,505877,479
39,65,505877,509
51,97,505877,1014
68,77,506387,474
39,66,506387,504
73,72,506892,1011
78,86,506892,1011
70,80,506892,474
39,72,506892,504
54,104,506892,1011
66,84,507397,476
39,79,507397,537
68,80,507908,6160
71,80,507908,6160
75,80,507908,6160
80,94,507908,6160
40,80,507908,541
40,75,508450,507
40,76,508958,504
40,75,509463,509
40,78,509973,509
40,75,510483,504
40,76,510988,504
40,75,511493,506
40,80,512004,541
40,75,512546,507
40,76,513054,504
40,75,513559,509
63,91,514069,1014
40,78,514069,509
40,75,514579,504
59,89,515084,1011
40,76,515084,504
40,75,515589,537
61,88,516100,6160
