note,velocity,position,duration
58,72,10,429
64,72,10,429
67,86,10,429
61,68,1054,400
67,68,1054,400
70,82,1054,400
63,70,2069,400
69,70,2069,400
72,84,2069,400
58,68,3084,397
64,68,3084,397
67,82,3084,397
61,72,4100,435
67,72,4100,435
70,86,4100,435
63,67,5150,736
69,67,5150,736
72,81,5150,675
64,62,5826,220
70,62,5826,35
73,76,5826,133
65,67,6846,394
71,67,6846,394
74,81,6846,333
69,62,7180,917
74,62,7180,917
78,76,7180,1011
58,72,8196,435
64,72,8196,435
67,86,8196,435
61,68,9246,400
67,68,9246,400
70,82,9246,400
63,70,10261,400
69,70,10261,400
72,84,10261,400
58,68,11276,397
64,68,11276,397
67,82,11276,397
61,72,12292,435
67,72,12292,435
70,86,12292,435
63,67,13342,736
69,67,13342,736
73,81,13342,675
64,62,14018,220
70,62,14018,35
74,76,14018,133
68,67,15038,394
74,67,15038,394
77,81,15038,333
72,62,15372,917
77,62,15372,917
81,76,15372,1011
58,72,16388,435
64,72,16388,435
67,86,16388,435
61,68,17438,400
67,68,17438,400
70,82,17438,400
63,70,18453,400
69,70,18453,400
72,84,18453,400
58,68,19468,397
64,68,19468,397
67,82,19468,397
61,72,20484,435
67,72,20484,435
70,86,20484,435
63,67,21534,736
69,67,21534,736
72,81,21534,675
64,62,22210,220
70,62,22210,35
73,76,22210,133
65,67,23230,394
71,67,23230,394
74,81,23230,333
69,62,23564,917
74,62,23564,917
78,76,23564,1011
58,72,24580,435
64,72,24580,435
67,86,24580,435
61,68,25630,400
67,68,25630,400
70,82,25630,400
57,70,26645,400
63,70,26645,400
66,84,26645,400
60,68,27660,397
66,68,27660,397
69,82,27660,397
56,72,28676,302
62,72,28676,302
65,86,28676,302
56,67,29389,397
62,67,29389,397
65,81,29389,336
59,62,29726,265
65,62,29726,265
68,76,29726,265
59,67,30402,338
65,67,30402,399
68,81,30402,338
53,62,30741,270
59,62,30741,270
62,76,30741,270
53,67,31422,394
59,67,31422,394
62,81,31422,333
57,62,31756,571
63,62,31756,303
66,76,31756,397
58,72,32772,435
64,72,32772,435
67,86,32772,435
43,68,32772,712
43,63,33485,367
61,68,33822,400
67,68,33822,400
70,82,33822,400
42,76,33822,1014
63,70,34837,400
69,70,34837,400
72,84,34837,400
41,78,34837,1014
58,68,35852,397
64,68,35852,397
67,82,35852,397
40,76,35852,1011
61,72,36868,435
67,72,36868,435
70,86,36868,435
39,80,36868,1049
63,67,37918,736
69,67,37918,736
72,81,37918,675
34,76,37918,1014
64,62,38594,220
70,62,38594,35
73,76,38594,133
33,78,38933,1014
65,67,39614,394
71,67,39614,394
74,81,39614,333
69,62,39948,917
74,62,39948,917
78,76,39948,1011
30,76,39948,1011
61,72,40964,435
67,72,40964,435
70,86,40964,435
39,80,40964,1049
63,67,42014,736
69,67,42014,736
72,81,42014,675
34,76,42014,1014
64,62,42690,220
70,62,42690,35
73,76,42690,133
33,78,43029,1014
65,67,43710,394
71,67,43710,394
74,81,43710,333
69,62,44044,917
74,62,44044,917
78,76,44044,1011
30,76,44044,1011
61,72,45060,435
67,72,45060,435
70,86,45060,435
39,80,45060,1049
63,67,46110,736
69,67,46110,736
72,81,46110,675
34,76,46110,1014
64,62,46786,220
70,62,46786,35
73,76,46786,133
33,78,47125,1014
65,67,47806,394
71,67,47806,394
74,81,47806,333
69,62,48140,917
74,62,48140,917
78,76,48140,1011
30,76,48140,1011
58,72,49156,435
64,72,49156,435
67,86,49156,435
43,68,49156,712
43,63,49869,367
61,68,50206,400
67,68,50206,400
70,82,50206,400
42,76,50206,1014
63,70,51221,400
69,70,51221,400
72,84,51221,400
41,78,51221,1014
58,68,52236,397
64,68,52236,397
67,82,52236,397
40,76,52236,1011
61,72,53252,435
67,72,53252,435
70,86,53252,435
39,80,53252,1049
63,67,54302,736
69,67,54302,736
73,81,54302,675
43,76,54302,1014
64,62,54978,220
70,62,54978,35
74,76,54978,133
42,78,55317,1014
68,67,55998,394
74,67,55998,394
77,81,55998,333
72,62,56332,917
77,62,56332,917
81,76,56332,1011
38,76,56332,1011
61,72,57348,435
67,72,57348,435
70,86,57348,435
39,80,57348,1049
63,67,58398,736
69,67,58398,736
73,81,58398,675
43,76,58398,1014
64,62,59074,220
70,62,59074,35
74,76,59074,133
42,78,59413,1014
68,67,60094,394
74,67,60094,394
77,81,60094,333
72,62,60428,917
77,62,60428,917
81,76,60428,1011
38,76,60428,1011
61,72,61444,435
67,72,61444,435
70,86,61444,435
39,80,61444,1049
63,67,62494,736
69,67,62494,736
73,81,62494,675
43,76,62494,1014
64,62,63170,220
70,62,63170,35
74,76,63170,133
42,78,63509,1014
68,67,64190,394
74,67,64190,394
77,81,64190,333
72,62,64524,917
77,62,64524,917
81,76,64524,1011
38,76,64524,1011
58,72,65540,435
64,72,65540,435
67,86,65540,435
43,68,65540,712
43,63,66253,367
61,68,66590,400
67,68,66590,400
70,82,66590,400
42,76,66590,1014
63,70,67605,400
69,70,67605,400
72,84,67605,400
41,78,67605,1014
58,68,68620,397
64,68,68620,397
67,82,68620,397
40,76,68620,1011
61,72,69636,435
67,72,69636,435
70,86,69636,435
39,80,69636,1049
63,67,70686,736
69,67,70686,736
72,81,70686,675
34,76,70686,1014
64,62,71362,220
70,62,71362,35
73,76,71362,133
33,78,71701,1014
65,67,72382,394
71,67,72382,394
74,81,72382,333
69,62,72716,917
74,62,72716,917
78,76,72716,1011
30,76,72716,1011
61,72,73732,435
67,72,73732,435
70,86,73732,435
39,80,73732,1049
63,67,74782,736
69,67,74782,736
72,81,74782,675
34,76,74782,1014
64,62,75458,220
70,62,75458,35
73,76,75458,133
33,78,75797,1014
65,67,76478,394
71,67,76478,394
74,81,76478,333
69,62,76812,917
74,62,76812,917
78,76,76812,1011
30,76,76812,1011
61,72,77828,435
67,72,77828,435
70,86,77828,435
39,80,77828,1049
63,67,78878,736
69,67,78878,736
72,81,78878,675
34,76,78878,1014
64,62,79554,220
70,62,79554,35
73,76,79554,133
33,78,79893,1014
65,67,80574,394
71,67,80574,394
74,81,80574,333
69,62,80908,917
74,62,80908,917
78,76,80908,1011
30,76,80908,1011
58,72,81924,435
64,72,81924,435
67,86,81924,435
43,68,81924,712
43,63,82637,367
61,68,82974,400
67,68,82974,400
70,82,82974,400
42,76,82974,1014
63,70,83989,400
69,70,83989,400
72,84,83989,400
41,78,83989,1014
58,68,85004,397
64,68,85004,397
67,82,85004,397
40,76,85004,1011
61,72,86020,435
67,72,86020,435
70,86,86020,435
39,80,86020,1049
63,67,87070,736
69,67,87070,736
73,81,87070,675
43,76,87070,1014
64,62,87746,220
70,62,87746,35
74,76,87746,133
42,78,88085,1014
68,67,88766,394
74,67,88766,394
77,81,88766,333
72,62,89100,917
77,62,89100,917
81,76,89100,1011
38,76,89100,1011
58,72,90116,435
64,72,90116,435
67,86,90116,435
61,68,91166,400
67,68,91166,400
70,82,91166,400
63,70,92181,400
69,70,92181,400
72,84,92181,400
66,68,93196,397
72,68,93196,397
75,82,93196,397
65,67,94212,773
71,67,94212,773
74,81,94212,712
66,62,94925,218
72,62,94925,33
75,76,94925,131
65,67,95938,399
71,67,95938,399
74,81,95938,338
69,62,96277,574
74,62,96277,306
78,76,96277,400
67,85,98308,2064
79,99,98308,2064
43,81,98308,712
43,76,99021,367
42,89,99358,1014
41,91,100373,1014
40,89,101388,1011
39,93,102404,1049
61,102,103117,1351
73,116,103117,1351
34,89,103454,1014
60,83,104469,650
72,97,104469,680
33,91,104469,1014
58,80,105150,303
70,94,105150,333
55,81,105484,1698
67,95,105484,1728
30,89,105484,1011
43,81,106500,712
73,88,107213,306
43,76,107213,367
72,89,107550,645
42,89,107550,1014
70,88,108226,308
72,91,108565,650
41,91,108565,1014
73,88,109246,303
65,89,109580,645
40,89,109580,1011
67,88,110256,305
70,93,110596,682
39,93,110596,1049
67,88,111309,306
65,89,111646,645
43,89,111646,1014
79,88,112322,830
42,91,112661,1014
77,88,112896,128
79,88,113024,128
77,83,113331,246
73,89,113676,319
38,89,113676,1011
72,88,114016,309
70,88,114346,341
67,85,114692,2064
70,99,114692,2064
43,81,114692,712
43,76,115405,367
42,89,115742,1014
69,83,116757,2026
72,97,116757,2026
41,91,116757,1014
40,89,117772,1011
70,85,118788,2064
74,99,118788,2064
39,93,118788,1049
34,89,119838,1014
69,83,120853,2026
75,97,120853,2026
33,91,120853,1014
30,89,121868,1011
70,85,122884,435
74,99,122884,435
34,81,122884,712
34,76,123597,367
60,81,123934,400
67,95,123934,400
31,89,123934,1014
74,83,124949,400
79,97,124949,400
34,91,124949,1014
63,81,125964,397
67,95,125964,397
36,89,125964,1011
78,93,126980,682
67,93,126980,682
38,93,126980,1049
75,88,127693,398
69,88,127693,398
40,89,128030,1014
74,110,128706,989
66,110,128706,2365
42,91,129045,1014
75,88,129726,394
74,88,130060,736
38,89,130060,1011
75,88,130736,396
74,71,131076,609
43,81,131076,712
43,76,131789,367
70,77,132126,400
42,89,132126,1014
67,79,133141,400
41,91,133141,1014
62,77,134156,397
40,89,134156,1011
70,81,135172,435
39,93,135172,1049
67,89,136222,645
34,89,136222,1014
69,88,136898,989
33,91,137237,1014
75,88,137918,394
74,88,138252,736
30,89,138252,1011
75,88,138928,396
70,83,139268,609
39,93,139268,1049
67,89,140318,645
34,89,140318,1014
69,88,140994,989
33,91,141333,1014
75,88,142014,394
74,88,142348,736
30,89,142348,1011
75,88,143024,396
70,83,143364,609
39,93,143364,1049
67,89,144414,645
34,89,144414,1014
69,88,145090,989
33,91,145429,1014
72,80,146110,394
75,94,146110,333
70,80,146444,736
74,94,146444,675
30,89,146444,1011
72,80,147120,396
75,94,147120,335
70,80,147460,712
74,94,147460,712
43,81,147460,712
70,80,148173,336
74,94,148173,336
43,76,148173,367
67,75,148510,400
70,89,148510,400
42,89,148510,1014
62,83,149525,400
67,97,149525,400
41,91,149525,1014
58,81,150540,397
62,95,150540,397
40,89,150540,1011
67,85,151556,435
70,99,151556,435
39,93,151556,1049
69,81,152606,675
72,95,152606,675
43,89,152606,1014
66,80,153282,989
69,94,153282,1019
42,91,153621,1014
75,88,154302,394
74,88,154636,736
38,89,154636,1011
75,88,155312,396
67,75,155652,609
70,89,155652,435
39,93,155652,1049
69,81,156702,675
72,95,156702,675
43,89,156702,1014
66,80,157378,989
69,94,157378,1019
42,91,157717,1014
75,88,158398,394
74,88,158732,736
38,89,158732,1011
75,88,159408,396
67,75,159748,609
70,89,159748,435
39,93,159748,1049
69,81,160798,675
72,95,160798,675
43,89,160798,1014
66,80,161474,989
69,94,161474,1019
42,91,161813,1014
75,88,162494,394
74,88,162828,736
38,89,162828,1011
75,88,163504,396
74,71,163844,609
43,81,163844,712
43,76,164557,367
70,77,164894,400
42,89,164894,1014
67,79,165909,400
41,91,165909,1014
62,77,166924,397
40,89,166924,1011
70,81,167940,435
39,93,167940,1049
67,89,168990,645
34,89,168990,1014
69,88,169666,989
33,91,170005,1014
75,88,170686,394
74,88,171020,736
30,89,171020,1011
75,88,171696,396
70,83,172036,609
39,93,172036,1049
67,89,173086,645
34,89,173086,1014
69,88,173762,989
33,91,174101,1014
75,88,174782,394
74,88,175116,736
30,89,175116,1011
75,88,175792,396
70,83,176132,609
39,93,176132,1049
67,89,177182,645
34,89,177182,1014
69,88,177858,989
33,91,178197,1014
75,88,178878,394
74,88,179212,736
30,89,179212,1011
75,88,179888,396
74,83,180228,609
43,81,180228,712
43,76,180941,367
79,89,181278,400
42,89,181278,1014
72,91,182293,400
41,91,182293,1014
70,89,183308,397
40,89,183308,1011
72,88,184324,773
39,93,184324,1049
70,83,185037,218
34,89,185374,1014
72,110,186050,1353
33,91,186389,1014
58,81,187404,265
70,95,187404,265
30,89,187404,1011
60,80,188080,396
72,94,188080,335
61,80,188420,773
73,94,188420,712
36,81,188420,712
60,80,189133,397
72,94,189133,336
36,76,189133,367
58,75,189470,574
70,89,189470,400
34,89,189470,400
55,83,190485,400
67,97,190485,400
36,91,190485,400
62,89,191500,397
37,89,191500,397
53,80,192516,773
60,80,192516,773
65,94,192516,712
38,93,192516,712
54,75,193229,218
61,75,193229,33
66,89,193229,131
38,88,193229,306
42,89,193566,645
55,102,194242,2365
62,102,194242,2365
67,116,194242,2365
43,88,194242,2365
73,88,196612,773
39,93,196612,1049
72,88,197325,397
70,83,197662,574
34,89,197662,1014
67,91,198677,400
33,91,198677,1014
62,89,199692,397
31,89,199692,1011
73,88,200708,773
39,93,200708,1049
72,88,201421,397
70,83,201758,574
34,89,201758,1014
67,91,202773,400
33,91,202773,1014
62,89,203788,397
31,89,203788,1011
73,88,204804,773
39,93,204804,1049
72,88,205517,397
70,83,205854,574
34,89,205854,1014
73,88,206869,741
39,91,206869,1014
72,88,207550,394
70,83,207884,571
34,89,207884,1011
73,88,208900,773
39,93,208900,1049
72,88,209613,397
70,83,209950,574
34,89,209950,1014
67,91,210965,400
33,91,210965,1014
62,89,211980,397
31,89,211980,1011
65,88,212996,773
43,81,212996,712
66,83,213709,218
43,76,213709,367
42,89,214046,1014
67,110,214722,1353
41,91,215061,1014
79,89,216076,397
40,89,216076,1011
65,88,217092,773
43,81,217092,712
66,83,217805,218
43,76,217805,367
42,89,218142,1014
67,110,218818,1353
41,91,219157,1014
79,89,220172,397
40,89,220172,1011
65,76,221188,712
43,81,221188,712
65,76,221901,397
43,76,221901,367
67,83,222238,574
42,89,222238,1014
74,88,223253,741
41,91,223253,1014
72,80,223934,394
79,94,223934,333
70,88,224268,736
40,89,224268,1011
67,88,224944,396
65,88,225284,773
43,81,225284,712
66,83,225997,218
43,76,225997,367
42,89,226334,1014
67,110,227010,2365
41,91,227349,1014
40,89,228364,1011
73,88,229380,773
63,85,229380,1049
70,99,229380,1049
39,81,229380,712
72,88,230093,397
39,76,230093,367
70,83,230430,574
58,80,230430,736
61,94,230430,675
34,89,230430,1014
57,75,231106,220
60,89,231106,133
67,91,231445,400
33,91,231445,1014
58,80,232126,394
61,94,232126,333
62,89,232460,397
57,75,232460,188
60,89,232460,101
31,89,232460,1011
73,88,233476,773
63,85,233476,1049
70,99,233476,1049
39,81,233476,712
72,88,234189,397
39,76,234189,367
70,83,234526,574
58,80,234526,736
61,94,234526,675
34,89,234526,1014
57,75,235202,220
60,89,235202,133
67,91,235541,400
33,91,235541,1014
58,80,236222,394
61,94,236222,333
62,89,236556,397
57,75,236556,188
60,89,236556,101
31,89,236556,1011
73,88,237572,773
67,80,237572,1049
70,94,237572,1049
39,81,237572,712
72,88,238285,397
39,76,238285,367
70,83,238622,574
62,75,238622,328
67,89,238622,154
34,89,238622,1014
73,88,239637,741
60,80,239637,741
67,94,239637,680
39,79,239637,680
72,88,240318,394
58,75,240318,215
65,89,240318,128
39,76,240318,364
70,83,240652,571
34,89,240652,1011
62,102,241328,2404
67,116,241328,2404
73,88,241668,773
39,81,241668,712
72,88,242381,397
39,76,242381,367
70,83,242718,574
34,89,242718,1014
67,91,243733,400
33,91,243733,1014
62,89,244748,397
31,89,244748,1011
65,88,245764,773
43,81,245764,712
66,83,246477,218
43,76,246477,367
42,89,246814,1014
67,110,247490,1353
41,91,247829,1014
79,89,248844,397
40,89,248844,1011
65,88,249860,773
43,81,249860,712
66,83,250573,218
43,76,250573,367
42,89,250910,1014
67,110,251586,1353
41,91,251925,1014
79,89,252940,397
40,89,252940,1011
65,76,253956,712
43,81,253956,712
65,76,254669,397
43,76,254669,367
67,83,255006,574
42,89,255006,1014
74,88,256021,741
41,91,256021,1014
72,80,256702,394
79,94,256702,333
70,88,257036,736
40,89,257036,1011
67,88,257712,396
65,88,258052,773
43,81,258052,712
66,83,258765,218
43,76,258765,367
42,89,259102,1014
67,110,259778,1353
41,91,260117,1014
40,89,261132,1011
73,88,262148,773
39,93,262148,1049
72,88,262861,397
70,83,263198,574
34,89,263198,1014
67,91,264213,400
33,91,264213,1014
62,89,265228,397
31,89,265228,1011
73,88,266244,773
39,93,266244,1049
72,88,266957,397
70,83,267294,574
34,89,267294,1014
67,91,268309,400
33,91,268309,1014
62,89,269324,397
31,89,269324,1011
73,88,270340,773
39,93,270340,1049
72,88,271053,397
70,83,271390,574
34,89,271390,1014
73,88,272405,741
39,91,272405,1014
72,88,273086,394
70,83,273420,571
34,89,273420,1011
73,88,274436,773
39,93,274436,1049
72,88,275149,397
70,83,275486,574
34,89,275486,1014
67,91,276501,400
33,91,276501,1014
62,89,277516,397
31,89,277516,1011
65,88,278532,773
43,81,278532,712
66,83,279245,218
43,76,279245,367
42,89,279582,1014
67,110,280258,1353
41,91,280597,1014
79,89,281612,397
40,89,281612,1011
65,88,282628,773
43,81,282628,712
66,83,283341,218
43,76,283341,367
42,89,283678,1014
67,110,284354,1353
41,91,284693,1014
79,89,285708,397
40,89,285708,1011
65,76,286724,712
43,81,286724,712
65,76,287437,397
43,76,287437,367
67,83,287774,574
42,89,287774,1014
74,88,288789,741
41,91,288789,1014
72,80,289470,394
79,94,289470,333
70,88,289804,736
40,89,289804,1011
67,88,290480,396
65,88,290820,773
43,81,290820,712
66,83,291533,218
43,76,291533,367
42,89,291870,1014
67,110,292546,2365
41,91,292885,1014
40,89,293900,1011
73,88,294916,773
63,85,294916,1049
70,99,294916,1049
39,81,294916,712
72,88,295629,397
39,76,295629,367
70,83,295966,574
58,80,295966,736
61,94,295966,675
34,89,295966,1014
57,75,296642,220
60,89,296642,133
67,91,296981,400
33,91,296981,1014
58,80,297662,394
61,94,297662,333
62,89,297996,397
57,75,297996,188
60,89,297996,101
31,89,297996,1011
73,88,299012,773
63,85,299012,1049
70,99,299012,1049
39,81,299012,712
72,88,299725,397
39,76,299725,367
70,83,300062,574
58,80,300062,736
61,94,300062,675
34,89,300062,1014
57,75,300738,220
60,89,300738,133
67,91,301077,400
33,91,301077,1014
58,80,301758,394
61,94,301758,333
62,89,302092,397
57,75,302092,188
60,89,302092,101
31,89,302092,1011
73,88,303108,773
67,80,303108,1049
70,94,303108,1049
39,81,303108,712
72,88,303821,397
39,76,303821,367
70,83,304158,574
62,75,304158,328
67,89,304158,154
34,89,304158,1014
73,88,305173,741
60,80,305173,741
67,94,305173,680
39,79,305173,680
72,88,305854,394
58,75,305854,215
65,89,305854,128
39,76,305854,364
70,83,306188,571
34,89,306188,1011
62,102,306864,2404
67,116,306864,2404
73,88,307204,773
39,81,307204,712
72,88,307917,397
39,76,307917,367
70,83,308254,574
34,89,308254,1014
67,91,309269,400
33,91,309269,1014
62,89,310284,397
31,89,310284,1011
65,88,311300,773
43,81,311300,712
66,83,312013,218
43,76,312013,367
42,89,312350,1014
67,110,313026,1353
41,91,313365,1014
79,89,314380,397
40,89,314380,1011
65,88,315396,773
43,81,315396,712
66,83,316109,218
43,76,316109,367
42,89,316446,1014
67,110,317122,1353
41,91,317461,1014
79,89,318476,397
40,89,318476,1011
65,76,319492,712
43,81,319492,712
65,76,320205,397
43,76,320205,367
67,83,320542,574
42,89,320542,1014
74,88,321557,741
41,91,321557,1014
72,80,322238,394
79,94,322238,333
70,88,322572,736
40,89,322572,1011
67,88,323248,396
53,85,323588,682
62,85,323588,682
65,99,323588,712
43,93,323588,682
54,80,324301,306
63,80,324301,306
66,94,324301,336
42,88,324301,306
55,80,325314,1353
64,80,325314,1353
67,94,325314,1353
43,88,325314,1353
56,59,327684,435
62,59,327684,435
65,73,327684,435
57,55,328734,400
63,55,328734,400
66,69,328734,400
58,57,329749,400
64,57,329749,400
67,71,329749,400
56,59,331780,435
62,59,331780,435
65,73,331780,435
57,54,332830,736
63,54,332830,736
66,68,332830,675
58,49,333506,220
64,49,333506,35
67,63,333506,133
56,58,335536,1052
62,58,335536,1052
65,72,335536,1052
56,42,336589,397
62,42,336589,397
65,56,336589,336
57,49,336926,574
63,49,336926,306
66,63,336926,400
58,57,337941,400
64,57,337941,400
67,71,337941,400
53,55,338956,397
59,55,338956,397
62,69,338956,397
56,54,339972,773
62,54,339972,773
65,68,339972,712
57,49,340685,218
63,49,340685,33
66,63,340685,131
58,54,341698,133
64,54,341698,103
67,68,341698,133
56,59,344068,435
62,59,344068,435
65,73,344068,435
57,55,345118,400
63,55,345118,400
66,69,345118,400
58,57,346133,400
64,57,346133,400
67,71,346133,400
56,59,348164,435
62,59,348164,435
65,73,348164,435
57,54,349214,736
63,54,349214,736
66,68,349214,675
58,49,349890,220
64,49,349890,35
67,63,349890,133
56,70,351920,1052
62,70,351920,1052
65,84,351920,1052
56,54,352973,397
62,54,352973,397
65,68,352973,336
57,49,353310,352
63,49,353310,167
66,63,353310,265
53,54,353986,399
59,54,353986,399
62,68,353986,338
58,49,354325,270
64,49,354325,172
67,63,354325,270
52,54,355006,394
58,54,355006,394
61,68,355006,333
53,54,355340,736
59,54,355340,736
62,68,355340,675
54,54,356016,396
60,54,356016,396
63,68,356016,335
56,54,356356,773
62,54,356356,773
65,68,356356,712
57,49,357069,218
63,49,357069,33
66,63,357069,131
58,54,358082,133
64,54,358082,103
67,68,358082,133
67,71,359436,1011
79,85,359436,1011
56,72,360452,435
62,72,360452,435
65,86,360452,435
53,80,360452,435
57,68,361502,400
63,68,361502,400
66,82,361502,400
54,76,361502,400
58,70,362517,400
64,70,362517,400
67,84,362517,400
55,78,362517,400
56,72,364548,435
62,72,364548,435
65,86,364548,435
53,80,364548,435
57,67,365598,736
63,67,365598,736
66,81,365598,675
54,75,365598,736
58,62,366274,220
64,62,366274,35
67,76,366274,133
55,70,366274,220
56,74,368304,1052
62,74,368304,1052
65,88,368304,1052
53,82,368304,1052
56,55,369357,397
62,55,369357,397
65,69,369357,336
53,63,369357,397
57,62,369694,574
63,62,369694,306
66,76,369694,400
54,70,369694,574
58,70,370709,400
64,70,370709,400
67,84,370709,400
55,78,370709,400
53,68,371724,397
59,68,371724,397
62,82,371724,397
50,76,371724,397
56,67,372740,773
62,67,372740,773
65,81,372740,712
53,75,372740,773
57,62,373453,218
63,62,373453,33
66,76,373453,131
54,70,373453,218
58,67,374466,133
64,67,374466,103
67,81,374466,133
55,75,374466,133
56,72,376836,435
62,72,376836,435
65,86,376836,435
53,80,376836,435
57,68,377886,400
63,68,377886,400
66,82,377886,400
54,76,377886,400
58,70,378901,400
64,70,378901,400
67,84,378901,400
55,78,378901,400
56,72,380932,435
62,72,380932,435
65,86,380932,435
53,80,380932,435
57,67,381982,736
63,67,381982,736
66,81,381982,675
54,75,381982,736
58,62,382658,220
64,62,382658,35
67,76,382658,133
55,70,382658,220
56,86,384688,1052
62,86,384688,1052
65,100,384688,1052
53,94,384688,1052
56,67,385741,397
62,67,385741,397
65,81,385741,336
53,75,385741,397
57,62,386078,352
63,62,386078,167
66,76,386078,265
54,70,386078,352
53,67,386754,308
59,67,386754,399
62,81,386754,338
53,67,386754,308
62,81,386754,338
58,62,387093,270
64,62,387093,172
67,76,387093,270
55,78,387093,270
52,67,387774,394
58,67,387774,394
61,81,387774,333
60,75,387774,303
53,67,388108,736
59,67,388108,736
62,81,388108,675
50,75,388108,736
54,67,388784,396
60,67,388784,396
63,81,388784,335
51,75,388784,396
56,67,389124,773
62,67,389124,773
65,81,389124,712
53,75,389124,773
57,62,389837,218
63,62,389837,33
66,76,389837,131
54,70,389837,218
58,67,390850,133
64,67,390850,103
67,81,390850,133
55,75,390850,133
67,87,392204,1011
79,101,392204,1011
74,93,393220,435
62,81,393220,435
41,85,393220,435
50,85,393220,435
53,99,393220,435
77,89,394270,400
65,77,394270,400
42,81,394270,400
51,81,394270,400
54,95,394270,400
79,91,395285,400
70,79,395285,400
43,83,395285,400
52,83,395285,400
55,97,395285,400
67,77,396300,397
38,88,396300,397
74,93,397316,435
41,85,397316,435
50,85,397316,435
53,99,397316,435
72,88,398029,306
77,88,398366,736
70,89,398366,645
42,80,398366,736
51,80,398366,736
54,94,398366,675
79,83,399042,220
67,88,399042,133
43,75,399042,220
52,75,399042,35
55,89,399042,133
62,88,400062,303
65,89,400396,265
38,88,400396,645
82,98,401072,1052
72,88,401072,1052
41,102,401072,1052
50,102,401072,335
53,112,401072,1052
50,80,401412,712
82,76,402125,397
72,88,402125,306
41,80,402125,397
50,80,402125,397
53,94,402125,336
81,83,402462,574
70,89,402462,265
42,75,402462,574
51,75,402462,306
54,89,402462,400
67,88,403138,308
79,91,403477,400
70,91,403477,400
43,83,403477,400
52,83,403477,400
55,97,403477,400
77,89,404492,397
67,89,404492,397
38,80,404492,397
47,81,404492,397
50,95,404492,397
74,88,405508,773
62,93,405508,682
41,80,405508,773
50,80,405508,773
53,94,405508,712
77,83,406221,218
65,88,406221,131
42,75,406221,218
51,75,406221,33
54,89,406221,131
79,88,407234,133
67,88,407234,133
43,80,407234,133
52,80,407234,103
55,94,407234,133
72,88,408254,303
70,89,408588,265
38,88,408588,397
67,88,409264,305
74,93,409604,435
62,81,409604,435
41,85,409604,435
50,85,409604,435
53,99,409604,435
77,89,410654,400
65,77,410654,400
42,81,410654,400
51,81,410654,400
54,95,410654,400
79,91,411669,400
70,79,411669,400
43,83,411669,400
52,83,411669,400
55,97,411669,400
67,77,412684,397
38,88,412684,397
74,93,413700,435
41,85,413700,435
50,85,413700,435
53,99,413700,435
72,88,414413,306
77,88,414750,736
70,89,414750,645
42,80,414750,736
51,80,414750,736
54,94,414750,675
79,83,415426,220
67,88,415426,133
43,75,415426,220
52,75,415426,35
55,89,415426,133
67,88,416446,303
70,89,416780,265
38,88,416780,645
82,98,417456,1052
72,88,417456,1052
41,102,417456,1052
50,102,417456,335
53,112,417456,1052
50,80,417796,712
82,76,418509,397
72,88,418509,306
41,80,418509,397
50,80,418509,397
53,94,418509,336
81,83,418846,574
70,89,418846,400
42,75,418846,352
51,75,418846,167
54,89,418846,265
38,79,419522,399
47,80,419522,399
50,94,419522,338
79,91,419861,400
72,91,419861,400
43,75,419861,357
52,75,419861,172
55,89,419861,270
37,79,420542,394
46,80,420542,394
49,94,420542,333
77,89,420876,397
70,89,420876,397
38,79,420876,736
47,80,420876,736
50,94,420876,675
39,79,421552,396
48,80,421552,396
51,94,421552,335
74,88,421892,773
62,93,421892,682
41,80,421892,773
50,80,421892,773
53,94,421892,712
77,83,422605,218
65,88,422605,131
42,75,422605,218
51,75,422605,33
54,89,422605,131
79,88,423618,133
67,88,423618,133
43,80,423618,133
52,80,423618,103
55,94,423618,133
70,81,424972,645
74,81,424972,645
79,95,424972,675
74,93,425988,435
62,81,425988,435
41,85,425988,435
50,85,425988,435
53,99,425988,435
77,89,427038,400
65,77,427038,400
42,81,427038,400
51,81,427038,400
54,95,427038,400
79,91,428053,400
70,79,428053,400
43,83,428053,400
52,83,428053,400
55,97,428053,400
67,77,429068,397
38,88,429068,397
74,93,430084,435
41,85,430084,435
50,85,430084,435
53,99,430084,435
72,88,430797,306
77,88,431134,736
70,89,431134,645
42,80,431134,736
51,80,431134,736
54,94,431134,675
79,83,431810,220
67,88,431810,133
43,75,431810,220
52,75,431810,35
55,89,431810,133
62,88,432830,303
65,89,433164,265
38,88,433164,645
82,98,433840,1052
72,88,433840,1052
41,102,433840,1052
50,102,433840,335
53,112,433840,1052
50,80,434180,712
82,76,434893,397
72,88,434893,306
41,80,434893,397
50,80,434893,397
53,94,434893,336
81,83,435230,574
70,89,435230,265
42,75,435230,574
51,75,435230,306
54,89,435230,400
67,88,435906,308
79,91,436245,400
70,91,436245,400
43,83,436245,400
52,83,436245,400
55,97,436245,400
77,89,437260,397
67,89,437260,397
38,80,437260,397
47,81,437260,397
50,95,437260,397
74,88,438276,773
62,93,438276,682
41,80,438276,773
50,80,438276,773
53,94,438276,712
77,83,438989,218
65,88,438989,131
42,75,438989,218
51,75,438989,33
54,89,438989,131
79,88,440002,133
67,88,440002,133
43,80,440002,133
52,80,440002,103
55,94,440002,133
72,88,441022,303
70,89,441356,265
38,88,441356,397
67,88,442032,305
74,93,442372,435
62,81,442372,435
41,85,442372,435
50,85,442372,435
53,99,442372,435
77,89,443422,400
65,77,443422,400
42,81,443422,400
51,81,443422,400
54,95,443422,400
79,91,444437,400
70,79,444437,400
43,83,444437,400
52,83,444437,400
55,97,444437,400
67,77,445452,397
38,88,445452,397
74,93,446468,435
41,85,446468,435
50,85,446468,435
53,99,446468,435
72,88,447181,306
77,88,447518,736
70,89,447518,645
42,80,447518,736
51,80,447518,736
54,94,447518,675
79,83,448194,220
67,88,448194,133
43,75,448194,220
52,75,448194,35
55,89,448194,133
67,88,449214,303
70,89,449548,265
38,88,449548,645
82,98,450224,1052
72,88,450224,1052
41,102,450224,1052
50,102,450224,335
53,112,450224,1052
50,80,450564,712
82,76,451277,397
72,88,451277,306
41,80,451277,397
50,80,451277,397
53,94,451277,336
81,83,451614,574
70,89,451614,400
42,75,451614,352
51,75,451614,167
54,89,451614,265
38,79,452290,399
47,80,452290,399
50,94,452290,338
79,91,452629,400
72,91,452629,400
43,75,452629,357
52,75,452629,172
55,89,452629,270
37,79,453310,394
46,80,453310,394
49,94,453310,333
77,89,453644,397
70,89,453644,397
38,79,453644,736
47,80,453644,736
50,94,453644,675
39,79,454320,396
48,80,454320,396
51,94,454320,335
74,88,454660,773
62,93,454660,682
41,80,454660,773
50,80,454660,773
53,94,454660,712
77,83,455373,218
65,88,455373,131
42,75,455373,218
51,75,455373,33
54,89,455373,131
79,88,456386,133
67,88,456386,133
43,80,456386,133
52,80,456386,103
55,94,456386,133
70,81,457740,645
74,81,457740,645
79,95,457740,675
67,85,458756,2064
79,99,458756,2064
43,81,458756,712
43,76,459469,367
42,89,459806,1014
41,91,460821,1014
40,89,461836,1011
39,93,462852,1049
61,102,463565,1351
73,116,463565,1351
34,89,463902,1014
60,83,464917,650
72,97,464917,680
33,91,464917,1014
58,80,465598,303
70,94,465598,333
55,81,465932,1698
67,95,465932,1728
30,89,465932,1011
43,81,466948,712
73,88,467661,306
43,76,467661,367
72,89,467998,645
42,89,467998,1014
70,88,468674,308
72,91,469013,650
41,91,469013,1014
73,88,469694,303
65,89,470028,645
40,89,470028,1011
67,88,470704,305
70,93,471044,682
39,93,471044,1049
67,88,471757,306
65,89,472094,645
43,89,472094,1014
79,88,472770,830
42,91,473109,1014
77,88,473344,128
79,88,473472,128
77,83,473779,246
73,89,474124,319
38,89,474124,1011
72,88,474464,309
70,88,474794,341
67,85,475140,2064
70,99,475140,2064
43,81,475140,712
43,76,475853,367
42,89,476190,1014
69,83,477205,2026
72,97,477205,2026
41,91,477205,1014
40,89,478220,1011
70,85,479236,2064
74,99,479236,2064
39,93,479236,1049
34,89,480286,1014
69,83,481301,2026
75,97,481301,2026
33,91,481301,1014
30,89,482316,1011
70,85,483332,435
74,99,483332,435
34,81,483332,712
34,76,484045,367
60,81,484382,400
67,95,484382,400
31,89,484382,1014
74,83,485397,400
79,97,485397,400
34,91,485397,1014
63,81,486412,397
67,95,486412,397
36,89,486412,1011
78,93,487428,682
67,93,487428,682
38,93,487428,1049
75,88,488141,398
69,88,488141,398
40,89,488478,1014
74,110,489154,989
66,110,489154,2365
42,91,489493,1014
75,88,490174,394
74,88,490508,736
38,89,490508,1011
75,88,491184,396
74,71,491524,609
43,81,491524,712
43,76,492237,367
70,77,492574,400
42,89,492574,1014
67,79,493589,400
41,91,493589,1014
62,77,494604,397
40,89,494604,1011
70,81,495620,435
39,93,495620,1049
67,89,496670,645
34,89,496670,1014
69,88,497346,989
33,91,497685,1014
75,88,498366,394
74,88,498700,736
30,89,498700,1011
75,88,499376,396
70,83,499716,609
39,93,499716,1049
67,89,500766,645
34,89,500766,1014
69,88,501442,989
33,91,501781,1014
75,88,502462,394
74,88,502796,736
30,89,502796,1011
75,88,503472,396
70,83,503812,609
39,93,503812,1049
67,89,504862,645
34,89,504862,1014
69,88,505538,989
33,91,505877,1014
72,80,506558,394
75,94,506558,333
70,80,506892,736
74,94,506892,675
30,89,506892,1011
72,80,507568,396
75,94,507568,335
70,80,507908,712
74,94,507908,712
43,81,507908,712
70,80,508621,336
74,94,508621,336
43,76,508621,367
67,75,508958,400
70,89,508958,400
42,89,508958,1014
62,83,509973,400
67,97,509973,400
41,91,509973,1014
58,81,510988,397
62,95,510988,397
40,89,510988,1011
67,85,512004,435
70,99,512004,435
39,93,512004,1049
69,81,513054,675
72,95,513054,675
43,89,513054,1014
66,80,513730,989
69,94,513730,1019
42,91,514069,1014
75,88,514750,394
74,88,515084,736
38,89,515084,1011
75,88,515760,396
67,75,516100,609
70,89,516100,435
39,93,516100,1049
69,81,517150,675
72,95,517150,675
43,89,517150,1014
66,80,517826,989
69,94,517826,1019
42,91,518165,1014
75,88,518846,394
74,88,519180,736
38,89,519180,1011
75,88,519856,396
67,75,520196,609
70,89,520196,435
39,93,520196,1049
69,81,521246,675
72,95,521246,675
43,89,521246,1014
66,80,521922,989
69,94,521922,1019
42,91,522261,1014
75,88,522942,394
74,88,523276,736
38,89,523276,1011
75,88,523952,396
74,71,524292,609
43,81,524292,712
43,76,525005,367
70,77,525342,400
42,89,525342,1014
67,79,526357,400
41,91,526357,1014
62,77,527372,397
40,89,527372,1011
70,81,528388,435
39,93,528388,1049
67,89,529438,645
34,89,529438,1014
69,88,530114,989
33,91,530453,1014
75,88,531134,394
74,88,531468,736
30,89,531468,1011
75,88,532144,396
70,83,532484,609
39,93,532484,1049
67,89,533534,645
34,89,533534,1014
69,88,534210,989
33,91,534549,1014
75,88,535230,394
74,88,535564,736
30,89,535564,1011
75,88,536240,396
70,83,536580,609
39,93,536580,1049
67,89,537630,645
34,89,537630,1014
69,88,538306,989
33,91,538645,1014
75,88,539326,394
74,88,539660,736
30,89,539660,1011
75,88,540336,396
74,83,540676,609
43,81,540676,712
43,76,541389,367
79,89,541726,400
42,89,541726,1014
72,91,542741,400
41,91,542741,1014
70,89,543756,397
40,89,543756,1011
72,88,544772,773
39,93,544772,1049
70,83,545485,218
34,89,545822,1014
72,110,546498,1353
33,91,546837,1014
58,81,547852,265
70,95,547852,265
30,89,547852,1011
60,80,548528,396
72,94,548528,335
61,80,548868,773
73,94,548868,712
36,81,548868,712
60,80,549581,397
72,94,549581,336
36,76,549581,367
58,75,549918,574
70,89,549918,400
34,89,549918,400
55,83,550933,400
67,97,550933,400
36,91,550933,400
62,89,551948,397
37,89,551948,397
53,80,552964,773
60,80,552964,773
65,94,552964,712
38,93,552964,712
54,75,553677,218
61,75,553677,33
66,89,553677,131
38,88,553677,306
42,89,554014,645
55,102,554690,2365
62,102,554690,2365
67,116,554690,2365
43,88,554690,2365
67,67,557060,435
55,67,557060,435
70,63,558110,400
58,55,558110,400
62,69,558110,400
74,65,559125,400
50,65,559125,400
76,63,560140,397
58,55,560140,397
62,69,560140,397
77,62,561024,128
78,57,561156,1695
54,67,561156,435
57,55,562206,400
62,69,562206,400
76,62,562432,128
77,62,562560,128
76,57,562867,235
50,65,563221,400
74,63,564236,397
57,55,564236,397
62,69,564236,397
67,55,565252,302
55,67,565252,435
67,50,565965,367
70,63,566302,400
58,55,566302,400
62,69,566302,400
74,65,567317,400
50,65,567317,400
76,63,568332,397
58,55,568332,397
62,69,568332,397
77,62,569216,128
78,57,569348,1695
54,67,569348,435
57,55,570398,400
62,69,570398,400
76,62,570624,128
77,62,570752,128
76,57,571059,235
50,65,571413,400
78,63,572428,397
54,55,572428,397
57,69,572428,397
79,55,573444,302
55,59,573444,435
58,59,573444,435
62,73,573444,435
74,50,574157,397
70,45,574494,352
67,50,575170,399
70,45,575509,357
67,50,576190,394
62,45,576524,352
50,63,576524,397
74,50,577200,396
73,45,577540,389
51,59,577540,435
58,59,577540,435
61,73,577540,435
70,50,578253,397
67,45,578590,352
64,50,579266,399
67,45,579605,357
64,50,580286,394
58,45,580620,352
49,55,580620,397
58,69,580620,352
67,50,581296,396
66,57,581636,955
50,59,581636,435
54,59,581636,435
57,73,581636,435
67,62,582400,128
66,62,582528,63
64,57,582664,596
62,65,583701,400
50,57,583701,400
54,57,583701,400
57,71,583701,400
66,63,584716,397
67,67,585732,435
50,59,585732,435
55,59,585732,435
58,73,585732,435
62,63,586782,400
55,65,587797,400
43,57,587797,400
50,57,587797,400
55,71,587797,400
70,63,588812,241
71,62,589069,232
72,62,589317,232
73,62,589565,243
67,67,589828,435
74,57,589828,955
55,67,589828,435
70,63,590878,400
58,55,590878,400
62,69,590878,400
74,65,591893,400
50,65,591893,400
76,63,592908,397
73,63,592908,397
58,55,592908,397
62,69,592908,397
77,62,593792,128
78,57,593924,1695
74,67,593924,1049
54,67,593924,435
73,63,594974,645
57,55,594974,400
62,69,594974,400
76,62,595200,128
77,62,595328,128
76,57,595635,235
74,62,595650,1019
50,65,595989,400
74,62,596670,303
74,63,597004,397
73,63,597004,397
57,55,597004,397
62,69,597004,397
67,55,598020,302
74,67,598020,1049
55,67,598020,435
67,50,598733,367
70,63,599070,400
58,55,599070,400
62,69,599070,400
74,65,600085,400
50,65,600085,400
76,63,601100,397
73,63,601100,397
58,55,601100,397
62,69,601100,397
77,62,601984,128
78,57,602116,1695
74,67,602116,1049
54,67,602116,435
73,63,603166,645
57,55,603166,400
62,69,603166,400
76,62,603392,128
77,62,603520,128
76,57,603827,235
74,62,603842,1019
50,65,604181,400
74,62,604862,303
78,63,605196,397
69,63,605196,397
54,55,605196,397
57,69,605196,397
70,47,606212,302
79,61,606212,302
55,59,606212,435
58,59,606212,435
62,73,606212,435
74,50,606925,397
70,45,607262,352
67,50,607938,399
70,45,608277,357
67,50,608958,333
62,37,609292,352
67,51,609292,265
50,63,609292,397
74,50,609968,396
67,37,610308,389
73,51,610308,302
51,59,610308,435
58,59,610308,435
61,73,610308,435
70,50,611021,397
67,45,611358,352
64,50,612034,399
67,45,612373,357
64,50,613054,394
58,37,613388,352
67,51,613388,265
49,55,613388,397
58,69,613388,352
67,50,614064,396
66,57,614404,955
50,59,614404,435
54,59,614404,435
57,73,614404,435
67,62,615168,128
66,62,615296,63
64,57,615432,596
62,65,616469,400
50,57,616469,400
54,57,616469,400
57,71,616469,400
66,63,617484,397
67,67,618500,435
43,59,618500,435
50,59,618500,435
55,73,618500,435
62,63,619550,400
67,57,620565,400
79,71,620565,400
43,57,620565,400
50,71,620565,400
58,72,622602,429
64,72,622602,429
67,86,622602,429
61,68,623646,400
67,68,623646,400
70,82,623646,400
63,70,624661,400
69,70,624661,400
72,84,624661,400
58,68,625676,397
64,68,625676,397
67,82,625676,397
61,72,626692,435
67,72,626692,435
70,86,626692,435
63,67,627742,736
69,67,627742,736
72,81,627742,675
64,62,628418,220
70,62,628418,35
73,76,628418,133
65,67,629438,394
71,67,629438,394
74,81,629438,333
69,62,629772,917
74,62,629772,917
78,76,629772,1011
58,72,630788,435
64,72,630788,435
67,86,630788,435
61,68,631838,400
67,68,631838,400
70,82,631838,400
63,70,632853,400
69,70,632853,400
72,84,632853,400
58,68,633868,397
64,68,633868,397
67,82,633868,397
61,72,634884,435
67,72,634884,435
70,86,634884,435
63,67,635934,736
69,67,635934,736
73,81,635934,675
64,62,636610,220
70,62,636610,35
74,76,636610,133
68,67,637630,394
74,67,637630,394
77,81,637630,333
72,62,637964,917
77,62,637964,917
81,76,637964,1011
58,72,638980,435
64,72,638980,435
67,86,638980,435
61,68,640030,400
67,68,640030,400
70,82,640030,400
63,70,641045,400
69,70,641045,400
72,84,641045,400
58,68,642060,397
64,68,642060,397
67,82,642060,397
61,72,643076,435
67,72,643076,435
70,86,643076,435
63,67,644126,736
69,67,644126,736
72,81,644126,675
64,62,644802,220
70,62,644802,35
73,76,644802,133
65,67,645822,394
71,67,645822,394
74,81,645822,333
69,62,646156,917
74,62,646156,917
78,76,646156,1011
58,72,647172,435
64,72,647172,435
67,86,647172,435
61,68,648222,400
67,68,648222,400
70,82,648222,400
57,70,649237,400
63,70,649237,400
66,84,649237,400
60,68,650252,397
66,68,650252,397
69,82,650252,397
56,72,651268,302
62,72,651268,302
65,86,651268,302
56,67,651981,397
62,67,651981,397
65,81,651981,336
59,62,652318,265
65,62,652318,265
68,76,652318,265
59,67,652994,338
65,67,652994,399
68,81,652994,338
53,62,653333,270
59,62,653333,270
62,76,653333,270
53,67,654014,394
59,67,654014,394
62,81,654014,333
57,62,654348,571
63,62,654348,303
66,76,654348,397
58,72,655364,435
64,72,655364,435
67,86,655364,435
43,68,655364,712
43,63,656077,367
61,68,656414,400
67,68,656414,400
70,82,656414,400
42,76,656414,1014
63,70,657429,400
69,70,657429,400
72,84,657429,400
41,78,657429,1014
58,68,658444,397
64,68,658444,397
67,82,658444,397
40,76,658444,1011
61,72,659460,435
67,72,659460,435
70,86,659460,435
39,80,659460,1049
63,67,660510,736
69,67,660510,736
72,81,660510,675
34,76,660510,1014
64,62,661186,220
70,62,661186,35
73,76,661186,133
33,78,661525,1014
65,67,662206,394
71,67,662206,394
74,81,662206,333
69,62,662540,917
74,62,662540,917
78,76,662540,1011
30,76,662540,1011
61,72,663556,435
67,72,663556,435
70,86,663556,435
39,80,663556,1049
63,67,664606,736
69,67,664606,736
72,81,664606,675
34,76,664606,1014
64,62,665282,220
70,62,665282,35
73,76,665282,133
33,78,665621,1014
65,67,666302,394
71,67,666302,394
74,81,666302,333
69,62,666636,917
74,62,666636,917
78,76,666636,1011
30,76,666636,1011
61,72,667652,435
67,72,667652,435
70,86,667652,435
39,80,667652,1049
63,67,668702,736
69,67,668702,736
72,81,668702,675
34,76,668702,1014
64,62,669378,220
70,62,669378,35
73,76,669378,133
33,78,669717,1014
65,67,670398,394
71,67,670398,394
74,81,670398,333
69,62,670732,917
74,62,670732,917
78,76,670732,1011
30,76,670732,1011
58,72,671748,435
64,72,671748,435
67,86,671748,435
43,68,671748,712
43,63,672461,367
61,68,672798,400
67,68,672798,400
70,82,672798,400
42,76,672798,1014
63,70,673813,400
69,70,673813,400
72,84,673813,400
41,78,673813,1014
58,68,674828,397
64,68,674828,397
67,82,674828,397
40,76,674828,1011
61,72,675844,435
67,72,675844,435
70,86,675844,435
39,80,675844,1049
63,67,676894,736
69,67,676894,736
73,81,676894,675
43,76,676894,1014
64,62,677570,220
70,62,677570,35
74,76,677570,133
42,78,677909,1014
68,67,678590,394
74,67,678590,394
77,81,678590,333
72,62,678924,917
77,62,678924,917
81,76,678924,1011
38,76,678924,1011
58,72,679940,435
64,72,679940,435
67,86,679940,435
61,68,680990,400
67,68,680990,400
70,82,680990,400
63,70,682005,400
69,70,682005,400
72,84,682005,400
66,68,683020,397
72,68,683020,397
75,82,683020,397
65,67,684036,773
71,67,684036,773
74,81,684036,712
66,62,684749,218
72,62,684749,33
75,76,684749,131
65,67,685762,399
71,67,685762,399
74,81,685762,338
69,62,686101,574
74,62,686101,306
78,76,686101,400
67,85,688132,2064
79,99,688132,2064
43,81,688132,712
43,76,688845,367
42,89,689182,1014
41,91,690197,1014
40,89,691212,1011
39,93,692228,1049
61,102,692941,1351
73,116,692941,1351
34,89,693278,1014
60,83,694293,650
72,97,694293,680
33,91,694293,1014
58,80,694974,303
70,94,694974,333
55,81,695308,1698
67,95,695308,1728
30,89,695308,1011
43,81,696324,712
73,88,697037,306
43,76,697037,367
72,89,697374,645
42,89,697374,1014
70,88,698050,308
72,91,698389,650
41,91,698389,1014
73,88,699070,303
65,89,699404,645
40,89,699404,1011
67,88,700080,305
70,93,700420,682
39,93,700420,1049
67,88,701133,306
65,89,701470,645
43,89,701470,1014
79,88,702146,830
42,91,702485,1014
77,88,702720,128
79,88,702848,128
77,83,703155,246
73,89,703500,319
38,89,703500,1011
72,88,703840,309
70,88,704170,341
67,85,704516,2064
70,99,704516,2064
43,81,704516,712
43,76,705229,367
42,89,705566,1014
69,83,706581,2026
72,97,706581,2026
41,91,706581,1014
40,89,707596,1011
70,85,708612,2064
74,99,708612,2064
39,93,708612,1049
34,89,709662,1014
69,83,710677,2026
75,97,710677,2026
33,91,710677,1014
30,89,711692,1011
70,85,712708,435
74,99,712708,435
34,81,712708,712
34,76,713421,367
60,81,713758,400
67,95,713758,400
31,89,713758,1014
74,83,714773,400
79,97,714773,400
34,91,714773,1014
63,81,715788,397
67,95,715788,397
36,89,715788,1011
78,93,716804,682
67,93,716804,682
38,93,716804,1049
75,88,717517,398
69,88,717517,398
40,89,717854,1014
74,110,718530,989
66,110,718530,2365
42,91,718869,1014
75,88,719550,394
74,88,719884,736
38,89,719884,1011
75,88,720560,396
74,71,720900,609
43,81,720900,712
43,76,721613,367
70,77,721950,400
42,89,721950,1014
67,79,722965,400
41,91,722965,1014
62,77,723980,397
40,89,723980,1011
70,81,724996,435
39,93,724996,1049
67,89,726046,645
34,89,726046,1014
69,88,726722,989
33,91,727061,1014
75,88,727742,394
74,88,728076,736
30,89,728076,1011
75,88,728752,396
70,83,729092,609
39,93,729092,1049
67,89,730142,645
34,89,730142,1014
69,88,730818,989
33,91,731157,1014
75,88,731838,394
74,88,732172,736
30,89,732172,1011
75,88,732848,396
70,83,733188,609
39,93,733188,1049
67,89,734238,645
34,89,734238,1014
69,88,734914,989
33,91,735253,1014
72,80,735934,394
75,94,735934,333
70,80,736268,736
74,94,736268,675
30,89,736268,1011
72,80,736944,396
75,94,736944,335
70,80,737284,712
74,94,737284,712
43,81,737284,712
70,80,737997,336
74,94,737997,336
43,76,737997,367
67,75,738334,400
70,89,738334,400
42,89,738334,1014
62,83,739349,400
67,97,739349,400
41,91,739349,1014
58,81,740364,397
62,95,740364,397
40,89,740364,1011
67,85,741380,435
70,99,741380,435
39,93,741380,1049
69,81,742430,675
72,95,742430,675
43,89,742430,1014
66,80,743106,989
69,94,743106,1019
42,91,743445,1014
75,88,744126,394
74,88,744460,736
38,89,744460,1011
75,88,745136,396
67,75,745476,609
70,89,745476,435
39,93,745476,1049
69,81,746526,675
72,95,746526,675
43,89,746526,1014
66,80,747202,989
69,94,747202,1019
42,91,747541,1014
75,88,748222,394
74,88,748556,736
38,89,748556,1011
75,88,749232,396
67,75,749572,609
70,89,749572,435
39,93,749572,1049
69,81,750622,675
72,95,750622,675
43,89,750622,1014
66,80,751298,989
69,94,751298,1019
42,91,751637,1014
75,88,752318,394
74,88,752652,736
38,89,752652,1011
75,88,753328,396
74,71,753668,609
43,81,753668,712
43,76,754381,367
70,77,754718,400
42,89,754718,1014
67,79,755733,400
41,91,755733,1014
62,77,756748,397
40,89,756748,1011
70,81,757764,435
39,93,757764,1049
67,89,758814,645
34,89,758814,1014
69,88,759490,989
33,91,759829,1014
75,88,760510,394
74,88,760844,736
30,89,760844,1011
75,88,761520,396
70,83,761860,609
39,93,761860,1049
67,89,762910,645
34,89,762910,1014
69,88,763586,989
33,91,763925,1014
75,88,764606,394
74,88,764940,736
30,89,764940,1011
75,88,765616,396
70,83,765956,609
39,93,765956,1049
67,89,767006,645
34,89,767006,1014
69,88,767682,989
33,91,768021,1014
75,88,768702,394
74,88,769036,736
30,89,769036,1011
75,88,769712,396
74,83,770052,609
43,81,770052,712
43,76,770765,367
79,89,771102,400
42,89,771102,1014
72,91,772117,400
41,91,772117,1014
70,89,773132,397
40,89,773132,1011
72,88,774148,773
39,93,774148,1049
70,83,774861,218
34,89,775198,1014
72,110,775874,1353
33,91,776213,1014
58,81,777228,265
70,95,777228,265
30,89,777228,1011
60,80,777904,396
72,94,777904,335
61,80,778244,773
73,94,778244,712
36,81,778244,712
60,80,778957,397
72,94,778957,336
36,76,778957,367
58,75,779294,574
70,89,779294,400
34,89,779294,400
55,83,780309,400
67,97,780309,400
36,91,780309,400
62,89,781324,397
37,89,781324,397
53,80,782340,773
60,80,782340,773
65,94,782340,712
38,93,782340,712
54,75,783053,218
61,75,783053,33
66,89,783053,131
38,88,783053,306
42,89,783390,645
55,102,784066,2365
62,102,784066,2365
67,116,784066,2365
43,88,784066,2365
73,88,786436,773
39,93,786436,1049
72,88,787149,397
70,83,787486,574
34,89,787486,1014
67,91,788501,400
33,91,788501,1014
62,89,789516,397
31,89,789516,1011
73,88,790532,773
39,93,790532,1049
72,88,791245,397
70,83,791582,574
34,89,791582,1014
67,91,792597,400
33,91,792597,1014
62,89,793612,397
31,89,793612,1011
73,88,794628,773
39,93,794628,1049
72,88,795341,397
70,83,795678,574
34,89,795678,1014
73,88,796693,741
39,91,796693,1014
72,88,797374,394
70,83,797708,571
34,89,797708,1011
73,88,798724,773
39,93,798724,1049
72,88,799437,397
70,83,799774,574
34,89,799774,1014
67,91,800789,400
33,91,800789,1014
62,89,801804,397
31,89,801804,1011
65,88,802820,773
43,81,802820,712
66,83,803533,218
43,76,803533,367
42,89,803870,1014
67,110,804546,1353
41,91,804885,1014
79,89,805900,397
40,89,805900,1011
65,88,806916,773
43,81,806916,712
66,83,807629,218
43,76,807629,367
42,89,807966,1014
67,110,808642,1353
41,91,808981,1014
79,89,809996,397
40,89,809996,1011
65,76,811012,712
43,81,811012,712
65,76,811725,397
43,76,811725,367
67,83,812062,574
42,89,812062,1014
74,88,813077,741
41,91,813077,1014
72,80,813758,394
79,94,813758,333
70,88,814092,736
40,89,814092,1011
67,88,814768,396
65,88,815108,773
43,81,815108,712
66,83,815821,218
43,76,815821,367
42,89,816158,1014
67,110,816834,2365
41,91,817173,1014
40,89,818188,1011
73,88,819204,773
63,85,819204,1049
70,99,819204,1049
39,81,819204,712
72,88,819917,397
39,76,819917,367
70,83,820254,574
58,80,820254,736
61,94,820254,675
34,89,820254,1014
57,75,820930,220
60,89,820930,133
67,91,821269,400
33,91,821269,1014
58,80,821950,394
61,94,821950,333
62,89,822284,397
57,75,822284,188
60,89,822284,101
31,89,822284,1011
73,88,823300,773
63,85,823300,1049
70,99,823300,1049
39,81,823300,712
72,88,824013,397
39,76,824013,367
70,83,824350,574
58,80,824350,736
61,94,824350,675
34,89,824350,1014
57,75,825026,220
60,89,825026,133
67,91,825365,400
33,91,825365,1014
58,80,826046,394
61,94,826046,333
62,89,826380,397
57,75,826380,188
60,89,826380,101
31,89,826380,1011
73,88,827396,773
67,80,827396,1049
70,94,827396,1049
39,81,827396,712
72,88,828109,397
39,76,828109,367
70,83,828446,574
62,75,828446,328
67,89,828446,154
34,89,828446,1014
73,88,829461,741
60,80,829461,741
67,94,829461,680
39,79,829461,680
72,88,830142,394
58,75,830142,215
65,89,830142,128
39,76,830142,364
70,83,830476,571
34,89,830476,1011
62,102,831152,2404
67,116,831152,2404
73,88,831492,773
39,81,831492,712
72,88,832205,397
39,76,832205,367
70,83,832542,574
34,89,832542,1014
67,91,833557,400
33,91,833557,1014
62,89,834572,397
31,89,834572,1011
65,88,835588,773
43,81,835588,712
66,83,836301,218
43,76,836301,367
42,89,836638,1014
67,110,837314,1353
41,91,837653,1014
79,89,838668,397
40,89,838668,1011
65,88,839684,773
43,81,839684,712
66,83,840397,218
43,76,840397,367
42,89,840734,1014
67,110,841410,1353
41,91,841749,1014
79,89,842764,397
40,89,842764,1011
65,76,843780,712
43,81,843780,712
65,76,844493,397
43,76,844493,367
67,83,844830,574
42,89,844830,1014
74,88,845845,741
41,91,845845,1014
72,80,846526,394
79,94,846526,333
70,88,846860,736
40,89,846860,1011
67,88,847536,396
53,85,847876,682
62,85,847876,682
65,99,847876,712
43,93,847876,682
54,80,848589,306
63,80,848589,306
66,94,848589,336
42,88,848589,306
55,80,849602,1353
64,80,849602,1353
67,94,849602,1353
43,88,849602,1353
56,59,851972,435
62,59,851972,435
65,73,851972,435
57,55,853022,400
63,55,853022,400
66,69,853022,400
58,57,854037,400
64,57,854037,400
67,71,854037,400
56,59,856068,435
62,59,856068,435
65,73,856068,435
57,54,857118,736
63,54,857118,736
66,68,857118,675
58,49,857794,220
64,49,857794,35
67,63,857794,133
56,58,859824,1052
62,58,859824,1052
65,72,859824,1052
56,42,860877,397
62,42,860877,397
65,56,860877,336
57,49,861214,574
63,49,861214,306
66,63,861214,400
58,57,862229,400
64,57,862229,400
67,71,862229,400
53,55,863244,397
59,55,863244,397
62,69,863244,397
56,54,864260,773
62,54,864260,773
65,68,864260,712
57,49,864973,218
63,49,864973,33
66,63,864973,131
58,54,865986,133
64,54,865986,103
67,68,865986,133
56,59,868356,435
62,59,868356,435
65,73,868356,435
57,55,869406,400
63,55,869406,400
66,69,869406,400
58,57,870421,400
64,57,870421,400
67,71,870421,400
56,59,872452,435
62,59,872452,435
65,73,872452,435
57,54,873502,736
63,54,873502,736
66,68,873502,675
58,49,874178,220
64,49,874178,35
67,63,874178,133
56,70,876208,1052
62,70,876208,1052
65,84,876208,1052
56,54,877261,397
62,54,877261,397
65,68,877261,336
57,49,877598,352
63,49,877598,167
66,63,877598,265
53,54,878274,399
59,54,878274,399
62,68,878274,338
58,49,878613,270
64,49,878613,172
67,63,878613,270
52,54,879294,394
58,54,879294,394
61,68,879294,333
53,54,879628,736
59,54,879628,736
62,68,879628,675
54,54,880304,396
60,54,880304,396
63,68,880304,335
56,54,880644,773
62,54,880644,773
65,68,880644,712
57,49,881357,218
63,49,881357,33
66,63,881357,131
58,54,882370,133
64,54,882370,103
67,68,882370,133
67,71,883724,1011
79,85,883724,1011
56,72,884740,435
62,72,884740,435
65,86,884740,435
53,80,884740,435
57,68,885790,400
63,68,885790,400
66,82,885790,400
54,76,885790,400
58,70,886805,400
64,70,886805,400
67,84,886805,400
55,78,886805,400
56,72,888836,435
62,72,888836,435
65,86,888836,435
53,80,888836,435
57,67,889886,736
63,67,889886,736
66,81,889886,675
54,75,889886,736
58,62,890562,220
64,62,890562,35
67,76,890562,133
55,70,890562,220
56,74,892592,1052
62,74,892592,1052
65,88,892592,1052
53,82,892592,1052
56,55,893645,397
62,55,893645,397
65,69,893645,336
53,63,893645,397
57,62,893982,574
63,62,893982,306
66,76,893982,400
54,70,893982,574
58,70,894997,400
64,70,894997,400
67,84,894997,400
55,78,894997,400
53,68,896012,397
59,68,896012,397
62,82,896012,397
50,76,896012,397
56,67,897028,773
62,67,897028,773
65,81,897028,712
53,75,897028,773
57,62,897741,218
63,62,897741,33
66,76,897741,131
54,70,897741,218
58,67,898754,133
64,67,898754,103
67,81,898754,133
55,75,898754,133
56,72,901124,435
62,72,901124,435
65,86,901124,435
53,80,901124,435
57,68,902174,400
63,68,902174,400
66,82,902174,400
54,76,902174,400
58,70,903189,400
64,70,903189,400
67,84,903189,400
55,78,903189,400
56,72,905220,435
62,72,905220,435
65,86,905220,435
53,80,905220,435
57,67,906270,736
63,67,906270,736
66,81,906270,675
54,75,906270,736
58,62,906946,220
64,62,906946,35
67,76,906946,133
55,70,906946,220
56,86,908976,1052
62,86,908976,1052
65,100,908976,1052
53,94,908976,1052
56,67,910029,397
62,67,910029,397
65,81,910029,336
53,75,910029,397
57,62,910366,352
63,62,910366,167
66,76,910366,265
54,70,910366,352
53,67,911042,308
59,67,911042,399
62,81,911042,338
53,67,911042,308
62,81,911042,338
58,62,911381,270
64,62,911381,172
67,76,911381,270
55,78,911381,270
52,67,912062,394
58,67,912062,394
61,81,912062,333
60,75,912062,303
53,67,912396,736
59,67,912396,736
62,81,912396,675
50,75,912396,736
54,67,913072,396
60,67,913072,396
63,81,913072,335
51,75,913072,396
56,67,913412,773
62,67,913412,773
65,81,913412,712
53,75,913412,773
57,62,914125,218
63,62,914125,33
66,76,914125,131
54,70,914125,218
58,67,915138,133
64,67,915138,103
67,81,915138,133
55,75,915138,133
67,87,916492,1011
79,101,916492,1011
74,93,917508,435
62,81,917508,435
41,85,917508,435
50,85,917508,435
53,99,917508,435
77,89,918558,400
65,77,918558,400
42,81,918558,400
51,81,918558,400
54,95,918558,400
79,91,919573,400
70,79,919573,400
43,83,919573,400
52,83,919573,400
55,97,919573,400
67,77,920588,397
38,88,920588,397
74,93,921604,435
41,85,921604,435
50,85,921604,435
53,99,921604,435
72,88,922317,306
77,88,922654,736
70,89,922654,645
42,80,922654,736
51,80,922654,736
54,94,922654,675
79,83,923330,220
67,88,923330,133
43,75,923330,220
52,75,923330,35
55,89,923330,133
62,88,924350,303
65,89,924684,265
38,88,924684,645
82,98,925360,1052
72,88,925360,1052
41,102,925360,1052
50,102,925360,335
53,112,925360,1052
50,80,925700,712
82,76,926413,397
72,88,926413,306
41,80,926413,397
50,80,926413,397
53,94,926413,336
81,83,926750,574
70,89,926750,265
42,75,926750,574
51,75,926750,306
54,89,926750,400
67,88,927426,308
79,91,927765,400
70,91,927765,400
43,83,927765,400
52,83,927765,400
55,97,927765,400
77,89,928780,397
67,89,928780,397
38,80,928780,397
47,81,928780,397
50,95,928780,397
74,88,929796,773
62,93,929796,682
41,80,929796,773
50,80,929796,773
53,94,929796,712
77,83,930509,218
65,88,930509,131
42,75,930509,218
51,75,930509,33
54,89,930509,131
79,88,931522,133
67,88,931522,133
43,80,931522,133
52,80,931522,103
55,94,931522,133
72,88,932542,303
70,89,932876,265
38,88,932876,397
67,88,933552,305
74,93,933892,435
62,81,933892,435
41,85,933892,435
50,85,933892,435
53,99,933892,435
77,89,934942,400
65,77,934942,400
42,81,934942,400
51,81,934942,400
54,95,934942,400
79,91,935957,400
70,79,935957,400
43,83,935957,400
52,83,935957,400
55,97,935957,400
67,77,936972,397
38,88,936972,397
74,93,937988,435
41,85,937988,435
50,85,937988,435
53,99,937988,435
72,88,938701,306
77,88,939038,736
70,89,939038,645
42,80,939038,736
51,80,939038,736
54,94,939038,675
79,83,939714,220
67,88,939714,133
43,75,939714,220
52,75,939714,35
55,89,939714,133
67,88,940734,303
70,89,941068,265
38,88,941068,645
82,98,941744,1052
72,88,941744,1052
41,102,941744,1052
50,102,941744,335
53,112,941744,1052
50,80,942084,712
82,76,942797,397
72,88,942797,306
41,80,942797,397
50,80,942797,397
53,94,942797,336
81,83,943134,574
70,89,943134,400
42,75,943134,352
51,75,943134,167
54,89,943134,265
38,79,943810,399
47,80,943810,399
50,94,943810,338
79,91,944149,400
72,91,944149,400
43,75,944149,357
52,75,944149,172
55,89,944149,270
37,79,944830,394
46,80,944830,394
49,94,944830,333
77,89,945164,397
70,89,945164,397
38,79,945164,736
47,80,945164,736
50,94,945164,675
39,79,945840,396
48,80,945840,396
51,94,945840,335
74,88,946180,773
62,93,946180,682
41,80,946180,773
50,80,946180,773
53,94,946180,712
77,83,946893,218
65,88,946893,131
42,75,946893,218
51,75,946893,33
54,89,946893,131
79,88,947906,133
67,88,947906,133
43,80,947906,133
52,80,947906,103
55,94,947906,133
70,81,949260,645
74,81,949260,645
79,95,949260,675
67,85,950276,2064
79,99,950276,2064
43,81,950276,712
43,76,950989,367
42,89,951326,1014
41,91,952341,1014
40,89,953356,1011
39,93,954372,1049
61,102,955085,1351
73,116,955085,1351
34,89,955422,1014
60,83,956437,650
72,97,956437,680
33,91,956437,1014
58,80,957118,303
70,94,957118,333
55,81,957452,1698
67,95,957452,1728
30,89,957452,1011
43,81,958468,712
73,88,959181,306
43,76,959181,367
72,89,959518,645
42,89,959518,1014
70,88,960194,308
72,91,960533,650
41,91,960533,1014
73,88,961214,303
65,89,961548,645
40,89,961548,1011
67,88,962224,305
70,93,962564,682
39,93,962564,1049
67,88,963277,306
65,89,963614,645
43,89,963614,1014
79,88,964290,830
42,91,964629,1014
77,88,964864,128
79,88,964992,128
77,83,965299,246
73,89,965644,319
38,89,965644,1011
72,88,965984,309
70,88,966314,341
67,85,966660,2064
70,99,966660,2064
43,81,966660,712
43,76,967373,367
42,89,967710,1014
69,83,968725,2026
72,97,968725,2026
41,91,968725,1014
40,89,969740,1011
70,85,970756,2064
74,99,970756,2064
39,93,970756,1049
34,89,971806,1014
69,83,972821,2026
75,97,972821,2026
33,91,972821,1014
30,89,973836,1011
70,85,974852,435
74,99,974852,435
34,81,974852,712
34,76,975565,367
60,81,975902,400
67,95,975902,400
31,89,975902,1014
74,83,976917,400
79,97,976917,400
34,91,976917,1014
63,81,977932,397
67,95,977932,397
36,89,977932,1011
78,93,978948,682
67,93,978948,682
38,93,978948,1049
75,88,979661,398
69,88,979661,398
40,89,979998,1014
74,110,980674,989
66,110,980674,2365
42,91,981013,1014
75,88,981694,394
74,88,982028,736
38,89,982028,1011
75,88,982704,396
74,71,983044,609
43,81,983044,712
43,76,983757,367
70,77,984094,400
42,89,984094,1014
67,79,985109,400
41,91,985109,1014
62,77,986124,397
40,89,986124,1011
70,81,987140,435
39,93,987140,1049
67,89,988190,645
34,89,988190,1014
69,88,988866,989
33,91,989205,1014
75,88,989886,394
74,88,990220,736
30,89,990220,1011
75,88,990896,396
70,83,991236,609
39,93,991236,1049
67,89,992286,645
34,89,992286,1014
69,88,992962,989
33,91,993301,1014
75,88,993982,394
74,88,994316,736
30,89,994316,1011
75,88,994992,396
70,83,995332,609
39,93,995332,1049
67,89,996382,645
34,89,996382,1014
69,88,997058,989
33,91,997397,1014
72,80,998078,394
75,94,998078,333
70,80,998412,736
74,94,998412,675
30,89,998412,1011
72,80,999088,396
75,94,999088,335
70,80,999428,712
74,94,999428,712
43,81,999428,712
70,80,1000141,336
74,94,1000141,336
43,76,1000141,367
67,75,1000478,400
70,89,1000478,400
42,89,1000478,1014
62,83,1001493,400
67,97,1001493,400
41,91,1001493,1014
58,81,1002508,397
62,95,1002508,397
40,89,1002508,1011
67,85,1003524,435
70,99,1003524,435
39,93,1003524,1049
69,81,1004574,675
72,95,1004574,675
43,89,1004574,1014
66,80,1005250,989
69,94,1005250,1019
42,91,1005589,1014
75,88,1006270,394
74,88,1006604,736
38,89,1006604,1011
75,88,1007280,396
67,75,1007620,609
70,89,1007620,435
39,93,1007620,1049
69,81,1008670,675
72,95,1008670,675
43,89,1008670,1014
66,80,1009346,989
69,94,1009346,1019
42,91,1009685,1014
75,88,1010366,394
74,88,1010700,736
38,89,1010700,1011
75,88,1011376,396
67,75,1011716,609
70,89,1011716,435
39,93,1011716,1049
69,81,1012766,675
72,95,1012766,675
43,89,1012766,1014
66,80,1013442,989
69,94,1013442,1019
42,91,1013781,1014
75,88,1014462,394
74,88,1014796,736
38,89,1014796,1011
75,88,1015472,396
74,71,1015812,609
43,81,1015812,712
43,76,1016525,367
70,77,1016862,400
42,89,1016862,1014
67,79,1017877,400
41,91,1017877,1014
62,77,1018892,397
40,89,1018892,1011
70,81,1019908,435
39,93,1019908,1049
67,89,1020958,645
34,89,1020958,1014
69,88,1021634,989
33,91,1021973,1014
75,88,1022654,394
74,88,1022988,736
30,89,1022988,1011
75,88,1023664,396
70,83,1024004,609
39,93,1024004,1049
67,89,1025054,645
34,89,1025054,1014
69,88,1025730,989
33,91,1026069,1014
75,88,1026750,394
74,88,1027084,736
30,89,1027084,1011
75,88,1027760,396
70,83,1028100,609
39,93,1028100,1049
67,89,1029150,645
34,89,1029150,1014
69,88,1029826,989
33,91,1030165,1014
75,88,1030846,394
74,88,1031180,736
30,89,1031180,1011
75,88,1031856,396
74,83,1032196,609
43,81,1032196,712
43,76,1032909,367
79,89,1033246,400
42,89,1033246,1014
72,91,1034261,400
41,91,1034261,1014
70,89,1035276,397
40,89,1035276,1011
72,88,1036292,773
39,93,1036292,1049
70,83,1037005,218
34,89,1037342,1014
72,110,1038018,1353
33,91,1038357,1014
58,81,1039372,265
70,95,1039372,265
30,89,1039372,1011
60,80,1040048,396
72,94,1040048,335
61,80,1040388,773
73,94,1040388,712
36,81,1040388,712
60,80,1041101,397
72,94,1041101,336
36,76,1041101,367
58,75,1041438,574
70,89,1041438,400
34,89,1041438,400
55,83,1042453,400
67,97,1042453,400
36,91,1042453,400
62,89,1043468,397
37,89,1043468,397
53,80,1044484,773
60,80,1044484,773
65,94,1044484,712
38,93,1044484,712
54,75,1045197,218
61,75,1045197,33
66,89,1045197,131
38,88,1045197,306
42,89,1045534,645
55,102,1046210,2365
62,102,1046210,2365
67,116,1046210,2365
43,88,1046210,2365
73,88,1048580,773
39,93,1048580,1049
72,88,1049293,397
70,83,1049630,574
34,89,1049630,1014
67,91,1050645,400
33,91,1050645,1014
62,89,1051660,397
31,89,1051660,1011
73,88,1052676,773
39,93,1052676,1049
72,88,1053389,397
70,83,1053726,574
34,89,1053726,1014
67,91,1054741,400
33,91,1054741,1014
62,89,1055756,397
31,89,1055756,1011
73,88,1056772,773
39,93,1056772,1049
72,88,1057485,397
70,83,1057822,574
34,89,1057822,1014
73,88,1058837,741
39,91,1058837,1014
72,88,1059518,394
70,83,1059852,571
34,89,1059852,1011
73,88,1060868,773
39,93,1060868,1049
72,88,1061581,397
70,83,1061918,574
34,89,1061918,1014
67,91,1062933,400
33,91,1062933,1014
62,89,1063948,397
31,89,1063948,1011
65,88,1064964,773
43,81,1064964,712
66,83,1065677,218
43,76,1065677,367
42,89,1066014,1014
67,110,1066690,1353
41,91,1067029,1014
79,89,1068044,397
40,89,1068044,1011
65,88,1069060,773
43,81,1069060,712
66,83,1069773,218
43,76,1069773,367
42,89,1070110,1014
67,110,1070786,1353
41,91,1071125,1014
79,89,1072140,397
40,89,1072140,1011
65,76,1073156,712
43,81,1073156,712
65,76,1073869,397
43,76,1073869,367
67,83,1074206,574
42,89,1074206,1014
74,88,1075221,741
41,91,1075221,1014
72,80,1075902,394
79,94,1075902,333
70,88,1076236,736
40,89,1076236,1011
67,88,1076912,396
65,88,1077252,773
43,81,1077252,712
66,83,1077965,218
43,76,1077965,367
42,89,1078302,1014
67,110,1078978,2365
41,91,1079317,1014
40,89,1080332,1011
73,88,1081348,773
63,85,1081348,1049
70,99,1081348,1049
39,81,1081348,712
72,88,1082061,397
39,76,1082061,367
70,83,1082398,574
58,80,1082398,736
61,94,1082398,675
34,89,1082398,1014
57,75,1083074,220
60,89,1083074,133
67,91,1083413,400
33,91,1083413,1014
58,80,1084094,394
61,94,1084094,333
62,89,1084428,397
57,75,1084428,188
60,89,1084428,101
31,89,1084428,1011
73,88,1085444,773
63,85,1085444,1049
70,99,1085444,1049
39,81,1085444,712
72,88,1086157,397
39,76,1086157,367
70,83,1086494,574
58,80,1086494,736
61,94,1086494,675
34,89,1086494,1014
57,75,1087170,220
60,89,1087170,133
67,91,1087509,400
33,91,1087509,1014
58,80,1088190,394
61,94,1088190,333
62,89,1088524,397
57,75,1088524,188
60,89,1088524,101
31,89,1088524,1011
73,88,1089540,773
67,80,1089540,1049
70,94,1089540,1049
39,81,1089540,712
72,88,1090253,397
39,76,1090253,367
70,83,1090590,574
62,75,1090590,328
67,89,1090590,154
34,89,1090590,1014
73,88,1091605,741
60,80,1091605,741
67,94,1091605,680
39,79,1091605,680
72,88,1092286,394
58,75,1092286,215
65,89,1092286,128
39,76,1092286,364
70,83,1092620,571
34,89,1092620,1011
62,102,1093296,2404
67,116,1093296,2404
73,88,1093636,773
39,81,1093636,712
72,88,1094349,397
39,76,1094349,367
70,83,1094686,574
34,89,1094686,1014
67,91,1095701,400
33,91,1095701,1014
62,89,1096716,397
31,89,1096716,1011
65,88,1097732,773
43,81,1097732,712
66,83,1098445,218
43,76,1098445,367
42,89,1098782,1014
67,110,1099458,1353
41,91,1099797,1014
79,89,1100812,397
40,89,1100812,1011
65,88,1101828,773
43,81,1101828,712
66,83,1102541,218
43,76,1102541,367
42,89,1102878,1014
67,110,1103554,1353
41,91,1103893,1014
79,89,1104908,397
40,89,1104908,1011
65,76,1105924,712
43,81,1105924,712
65,76,1106637,397
43,76,1106637,367
67,83,1106974,574
42,89,1106974,1014
74,88,1107989,741
41,91,1107989,1014
72,80,1108670,394
79,94,1108670,333
70,88,1109004,736
40,89,1109004,1011
67,88,1109680,396
53,85,1110020,682
62,85,1110020,682
65,99,1110020,712
43,93,1110020,682
54,80,1110733,306
63,80,1110733,306
66,94,1110733,336
42,88,1110733,306
55,80,1111746,1353
64,80,1111746,1353
67,94,1111746,1353
43,88,1111746,1353
56,59,1114116,435
62,59,1114116,435
65,73,1114116,435
57,55,1115166,400
63,55,1115166,400
66,69,1115166,400
58,57,1116181,400
64,57,1116181,400
67,71,1116181,400
56,59,1118212,435
62,59,1118212,435
65,73,1118212,435
57,54,1119262,736
63,54,1119262,736
66,68,1119262,675
58,49,1119938,220
64,49,1119938,35
67,63,1119938,133
56,58,1121968,1052
62,58,1121968,1052
65,72,1121968,1052
56,42,1123021,397
62,42,1123021,397
65,56,1123021,336
57,49,1123358,574
63,49,1123358,306
66,63,1123358,400
58,57,1124373,400
64,57,1124373,400
67,71,1124373,400
53,55,1125388,397
59,55,1125388,397
62,69,1125388,397
56,54,1126404,773
62,54,1126404,773
65,68,1126404,712
57,49,1127117,218
63,49,1127117,33
66,63,1127117,131
58,54,1128130,133
64,54,1128130,103
67,68,1128130,133
56,59,1130500,435
62,59,1130500,435
65,73,1130500,435
57,55,1131550,400
63,55,1131550,400
66,69,1131550,400
58,57,1132565,400
64,57,1132565,400
67,71,1132565,400
56,59,1134596,435
62,59,1134596,435
65,73,1134596,435
57,54,1135646,736
63,54,1135646,736
66,68,1135646,675
58,49,1136322,220
64,49,1136322,35
67,63,1136322,133
56,70,1138352,1052
62,70,1138352,1052
65,84,1138352,1052
56,54,1139405,397
62,54,1139405,397
65,68,1139405,336
57,49,1139742,352
63,49,1139742,167
66,63,1139742,265
53,54,1140418,399
59,54,1140418,399
62,68,1140418,338
58,49,1140757,270
64,49,1140757,172
67,63,1140757,270
52,54,1141438,394
58,54,1141438,394
61,68,1141438,333
53,54,1141772,736
59,54,1141772,736
62,68,1141772,675
54,54,1142448,396
60,54,1142448,396
63,68,1142448,335
56,54,1142788,773
62,54,1142788,773
65,68,1142788,712
57,49,1143501,218
63,49,1143501,33
66,63,1143501,131
58,54,1144514,133
64,54,1144514,103
67,68,1144514,133
67,71,1145868,1011
79,85,1145868,1011
56,72,1146884,435
62,72,1146884,435
65,86,1146884,435
53,80,1146884,435
57,68,1147934,400
63,68,1147934,400
66,82,1147934,400
54,76,1147934,400
58,70,1148949,400
64,70,1148949,400
67,84,1148949,400
55,78,1148949,400
56,72,1150980,435
62,72,1150980,435
65,86,1150980,435
53,80,1150980,435
57,67,1152030,736
63,67,1152030,736
66,81,1152030,675
54,75,1152030,736
58,62,1152706,220
64,62,1152706,35
67,76,1152706,133
55,70,1152706,220
56,74,1154736,1052
62,74,1154736,1052
65,88,1154736,1052
53,82,1154736,1052
56,55,1155789,397
62,55,1155789,397
65,69,1155789,336
53,63,1155789,397
57,62,1156126,574
63,62,1156126,306
66,76,1156126,400
54,70,1156126,574
58,70,1157141,400
64,70,1157141,400
67,84,1157141,400
55,78,1157141,400
53,68,1158156,397
59,68,1158156,397
62,82,1158156,397
50,76,1158156,397
56,67,1159172,773
62,67,1159172,773
65,81,1159172,712
53,75,1159172,773
57,62,1159885,218
63,62,1159885,33
66,76,1159885,131
54,70,1159885,218
58,67,1160898,133
64,67,1160898,103
67,81,1160898,133
55,75,1160898,133
56,72,1163268,435
62,72,1163268,435
65,86,1163268,435
53,80,1163268,435
57,68,1164318,400
63,68,1164318,400
66,82,1164318,400
54,76,1164318,400
58,70,1165333,400
64,70,1165333,400
67,84,1165333,400
55,78,1165333,400
56,72,1167364,435
62,72,1167364,435
65,86,1167364,435
53,80,1167364,435
57,67,1168414,736
63,67,1168414,736
66,81,1168414,675
54,75,1168414,736
58,62,1169090,220
64,62,1169090,35
67,76,1169090,133
55,70,1169090,220
56,86,1171120,1052
62,86,1171120,1052
65,100,1171120,1052
53,94,1171120,1052
56,67,1172173,397
62,67,1172173,397
65,81,1172173,336
53,75,1172173,397
57,62,1172510,352
63,62,1172510,167
66,76,1172510,265
54,70,1172510,352
53,67,1173186,308
59,67,1173186,399
62,81,1173186,338
53,67,1173186,308
62,81,1173186,338
58,62,1173525,270
64,62,1173525,172
67,76,1173525,270
55,78,1173525,270
52,67,1174206,394
58,67,1174206,394
61,81,1174206,333
60,75,1174206,303
53,67,1174540,736
59,67,1174540,736
62,81,1174540,675
50,75,1174540,736
54,67,1175216,396
60,67,1175216,396
63,81,1175216,335
51,75,1175216,396
56,67,1175556,773
62,67,1175556,773
65,81,1175556,712
53,75,1175556,773
57,62,1176269,218
63,62,1176269,33
66,76,1176269,131
54,70,1176269,218
58,67,1177282,133
64,67,1177282,103
67,81,1177282,133
55,75,1177282,133
67,87,1178636,1011
79,101,1178636,1011
74,93,1179652,435
62,81,1179652,435
41,85,1179652,435
50,85,1179652,435
53,99,1179652,435
77,89,1180702,400
65,77,1180702,400
42,81,1180702,400
51,81,1180702,400
54,95,1180702,400
79,91,1181717,400
70,79,1181717,400
43,83,1181717,400
52,83,1181717,400
55,97,1181717,400
67,77,1182732,397
38,88,1182732,397
74,93,1183748,435
41,85,1183748,435
50,85,1183748,435
53,99,1183748,435
72,88,1184461,306
77,88,1184798,736
70,89,1184798,645
42,80,1184798,736
51,80,1184798,736
54,94,1184798,675
79,83,1185474,220
67,88,1185474,133
43,75,1185474,220
52,75,1185474,35
55,89,1185474,133
62,88,1186494,303
65,89,1186828,265
38,88,1186828,645
82,98,1187504,1052
72,88,1187504,1052
41,102,1187504,1052
50,102,1187504,335
53,112,1187504,1052
50,80,1187844,712
82,76,1188557,397
72,88,1188557,306
41,80,1188557,397
50,80,1188557,397
53,94,1188557,336
81,83,1188894,574
70,89,1188894,265
42,75,1188894,574
51,75,1188894,306
54,89,1188894,400
67,88,1189570,308
79,91,1189909,400
70,91,1189909,400
43,83,1189909,400
52,83,1189909,400
55,97,1189909,400
77,89,1190924,397
67,89,1190924,397
38,80,1190924,397
47,81,1190924,397
50,95,1190924,397
74,88,1191940,773
62,93,1191940,682
41,80,1191940,773
50,80,1191940,773
53,94,1191940,712
77,83,1192653,218
65,88,1192653,131
42,75,1192653,218
51,75,1192653,33
54,89,1192653,131
79,88,1193666,133
67,88,1193666,133
43,80,1193666,133
52,80,1193666,103
55,94,1193666,133
72,88,1194686,303
70,89,1195020,265
38,88,1195020,397
67,88,1195696,305
74,93,1196036,435
62,81,1196036,435
41,85,1196036,435
50,85,1196036,435
53,99,1196036,435
77,89,1197086,400
65,77,1197086,400
42,81,1197086,400
51,81,1197086,400
54,95,1197086,400
79,91,1198101,400
70,79,1198101,400
43,83,1198101,400
52,83,1198101,400
55,97,1198101,400
67,77,1199116,397
38,88,1199116,397
74,93,1200132,435
41,85,1200132,435
50,85,1200132,435
53,99,1200132,435
72,88,1200845,306
77,88,1201182,736
70,89,1201182,645
42,80,1201182,736
51,80,1201182,736
54,94,1201182,675
79,83,1201858,220
67,88,1201858,133
43,75,1201858,220
52,75,1201858,35
55,89,1201858,133
67,88,1202878,303
70,89,1203212,265
38,88,1203212,645
82,98,1203888,1052
72,88,1203888,1052
41,102,1203888,1052
50,102,1203888,335
53,112,1203888,1052
50,80,1204228,712
82,76,1204941,397
72,88,1204941,306
41,80,1204941,397
50,80,1204941,397
53,94,1204941,336
81,83,1205278,574
70,89,1205278,400
42,75,1205278,352
51,75,1205278,167
54,89,1205278,265
38,79,1205954,399
47,80,1205954,399
50,94,1205954,338
79,91,1206293,400
72,91,1206293,400
43,75,1206293,357
52,75,1206293,172
55,89,1206293,270
37,79,1206974,394
46,80,1206974,394
49,94,1206974,333
77,89,1207308,397
70,89,1207308,397
38,79,1207308,736
47,80,1207308,736
50,94,1207308,675
39,79,1207984,396
48,80,1207984,396
51,94,1207984,335
74,88,1208324,773
62,93,1208324,682
41,80,1208324,773
50,80,1208324,773
53,94,1208324,712
77,83,1209037,218
65,88,1209037,131
42,75,1209037,218
51,75,1209037,33
54,89,1209037,131
79,88,1210050,133
67,88,1210050,133
43,80,1210050,133
52,80,1210050,103
55,94,1210050,133
70,81,1211404,645
74,81,1211404,645
79,95,1211404,675
67,85,1212420,2064
79,99,1212420,2064
43,81,1212420,712
43,76,1213133,367
42,89,1213470,1014
41,91,1214485,1014
40,89,1215500,1011
39,93,1216516,1049
61,102,1217229,1351
73,116,1217229,1351
34,89,1217566,1014
60,83,1218581,650
72,97,1218581,680
33,91,1218581,1014
58,80,1219262,303
70,94,1219262,333
55,81,1219596,1698
67,95,1219596,1728
30,89,1219596,1011
43,81,1220612,712
73,88,1221325,306
43,76,1221325,367
72,89,1221662,645
42,89,1221662,1014
70,88,1222338,308
72,91,1222677,650
41,91,1222677,1014
73,88,1223358,303
65,89,1223692,645
40,89,1223692,1011
67,88,1224368,305
70,93,1224708,682
39,93,1224708,1049
67,88,1225421,306
65,89,1225758,645
43,89,1225758,1014
79,88,1226434,830
42,91,1226773,1014
77,88,1227008,128
79,88,1227136,128
77,83,1227443,246
73,89,1227788,319
38,89,1227788,1011
72,88,1228128,309
70,88,1228458,341
67,85,1228804,2064
70,99,1228804,2064
43,81,1228804,712
43,76,1229517,367
42,89,1229854,1014
69,83,1230869,2026
72,97,1230869,2026
41,91,1230869,1014
40,89,1231884,1011
70,85,1232900,2064
74,99,1232900,2064
39,93,1232900,1049
34,89,1233950,1014
69,83,1234965,2026
75,97,1234965,2026
33,91,1234965,1014
30,89,1235980,1011
70,85,1236996,435
74,99,1236996,435
34,81,1236996,712
34,76,1237709,367
60,81,1238046,400
67,95,1238046,400
31,89,1238046,1014
74,83,1239061,400
79,97,1239061,400
34,91,1239061,1014
63,81,1240076,397
67,95,1240076,397
36,89,1240076,1011
78,93,1241092,682
67,93,1241092,682
38,93,1241092,1049
75,88,1241805,398
69,88,1241805,398
40,89,1242142,1014
74,110,1242818,989
66,110,1242818,2365
42,91,1243157,1014
75,88,1243838,394
74,88,1244172,736
38,89,1244172,1011
75,88,1244848,396
74,71,1245188,609
43,81,1245188,712
43,76,1245901,367
70,77,1246238,400
42,89,1246238,1014
67,79,1247253,400
41,91,1247253,1014
62,77,1248268,397
40,89,1248268,1011
70,81,1249284,435
39,93,1249284,1049
67,89,1250334,645
34,89,1250334,1014
69,88,1251010,989
33,91,1251349,1014
75,88,1252030,394
74,88,1252364,736
30,89,1252364,1011
75,88,1253040,396
70,83,1253380,609
39,93,1253380,1049
67,89,1254430,645
34,89,1254430,1014
69,88,1255106,989
33,91,1255445,1014
75,88,1256126,394
74,88,1256460,736
30,89,1256460,1011
75,88,1257136,396
70,83,1257476,609
39,93,1257476,1049
67,89,1258526,645
34,89,1258526,1014
69,88,1259202,989
33,91,1259541,1014
72,80,1260222,394
75,94,1260222,333
70,80,1260556,736
74,94,1260556,675
30,89,1260556,1011
72,80,1261232,396
75,94,1261232,335
70,80,1261572,712
74,94,1261572,712
43,81,1261572,712
70,80,1262285,336
74,94,1262285,336
43,76,1262285,367
67,75,1262622,400
70,89,1262622,400
42,89,1262622,1014
62,83,1263637,400
67,97,1263637,400
41,91,1263637,1014
58,81,1264652,397
62,95,1264652,397
40,89,1264652,1011
67,85,1265668,435
70,99,1265668,435
39,93,1265668,1049
69,81,1266718,675
72,95,1266718,675
43,89,1266718,1014
66,80,1267394,989
69,94,1267394,1019
42,91,1267733,1014
75,88,1268414,394
74,88,1268748,736
38,89,1268748,1011
75,88,1269424,396
67,75,1269764,609
70,89,1269764,435
39,93,1269764,1049
69,81,1270814,675
72,95,1270814,675
43,89,1270814,1014
66,80,1271490,989
69,94,1271490,1019
42,91,1271829,1014
75,88,1272510,394
74,88,1272844,736
38,89,1272844,1011
75,88,1273520,396
67,75,1273860,609
70,89,1273860,435
39,93,1273860,1049
69,81,1274910,675
72,95,1274910,675
43,89,1274910,1014
66,80,1275586,989
69,94,1275586,1019
42,91,1275925,1014
75,88,1276606,394
74,88,1276940,736
38,89,1276940,1011
75,88,1277616,396
74,71,1277956,609
43,81,1277956,712
43,76,1278669,367
70,77,1279006,400
42,89,1279006,1014
67,79,1280021,400
41,91,1280021,1014
62,77,1281036,397
40,89,1281036,1011
70,81,1282052,435
39,93,1282052,1049
67,89,1283102,645
34,89,1283102,1014
69,88,1283778,989
33,91,1284117,1014
75,88,1284798,394
74,88,1285132,736
30,89,1285132,1011
75,88,1285808,396
70,83,1286148,609
39,93,1286148,1049
67,89,1287198,645
34,89,1287198,1014
69,88,1287874,989
33,91,1288213,1014
75,88,1288894,394
74,88,1289228,736
30,89,1289228,1011
75,88,1289904,396
70,83,1290244,609
39,93,1290244,1049
67,89,1291294,645
34,89,1291294,1014
69,88,1291970,989
33,91,1292309,1014
75,88,1292990,394
74,88,1293324,736
30,89,1293324,1011
75,88,1294000,396
74,83,1294340,609
43,81,1294340,712
43,76,1295053,367
79,89,1295390,400
42,89,1295390,1014
72,91,1296405,400
41,91,1296405,1014
70,89,1297420,397
40,89,1297420,1011
72,88,1298436,773
39,93,1298436,1049
70,83,1299149,218
34,89,1299486,1014
72,110,1300162,1353
33,91,1300501,1014
58,81,1301516,265
70,95,1301516,265
30,89,1301516,1011
60,80,1302192,396
72,94,1302192,335
61,80,1302532,773
73,94,1302532,712
36,81,1302532,712
60,80,1303245,397
72,94,1303245,336
36,76,1303245,367
58,75,1303582,574
70,89,1303582,400
34,89,1303582,400
55,83,1304597,400
67,97,1304597,400
36,91,1304597,400
62,89,1305612,397
37,89,1305612,397
53,80,1306628,773
60,80,1306628,773
65,94,1306628,712
38,93,1306628,712
54,75,1307341,218
61,75,1307341,33
66,89,1307341,131
38,88,1307341,306
42,89,1307678,645
55,102,1308354,2365
62,102,1308354,2365
67,116,1308354,2365
43,88,1308354,2365
73,88,1310724,773
39,93,1310724,1049
72,88,1311437,397
70,83,1311774,574
34,89,1311774,1014
67,91,1312789,400
33,91,1312789,1014
62,89,1313804,397
31,89,1313804,1011
73,88,1314820,773
39,93,1314820,1049
72,88,1315533,397
70,83,1315870,574
34,89,1315870,1014
67,91,1316885,400
33,91,1316885,1014
62,89,1317900,397
31,89,1317900,1011
73,88,1318916,773
39,93,1318916,1049
72,88,1319629,397
70,83,1319966,574
34,89,1319966,1014
73,88,1320981,741
39,91,1320981,1014
72,88,1321662,394
70,83,1321996,571
34,89,1321996,1011
73,88,1323012,773
39,93,1323012,1049
72,88,1323725,397
70,83,1324062,574
34,89,1324062,1014
67,91,1325077,400
33,91,1325077,1014
62,89,1326092,397
31,89,1326092,1011
65,88,1327108,773
43,81,1327108,712
66,83,1327821,218
43,76,1327821,367
42,89,1328158,1014
67,110,1328834,1353
41,91,1329173,1014
79,89,1330188,397
40,89,1330188,1011
65,88,1331204,773
43,81,1331204,712
66,83,1331917,218
43,76,1331917,367
42,89,1332254,1014
67,110,1332930,1353
41,91,1333269,1014
79,89,1334284,397
40,89,1334284,1011
65,76,1335300,712
43,81,1335300,712
65,76,1336013,397
43,76,1336013,367
67,83,1336350,574
42,89,1336350,1014
74,88,1337365,741
41,91,1337365,1014
72,80,1338046,394
79,94,1338046,333
70,88,1338380,736
40,89,1338380,1011
67,88,1339056,396
65,88,1339396,773
43,81,1339396,712
66,83,1340109,218
43,76,1340109,367
42,89,1340446,1014
67,110,1341122,2365
41,91,1341461,1014
40,89,1342476,1011
73,88,1343492,773
63,85,1343492,1049
70,99,1343492,1049
39,81,1343492,712
72,88,1344205,397
39,76,1344205,367
70,83,1344542,574
58,80,1344542,736
61,94,1344542,675
34,89,1344542,1014
57,75,1345218,220
60,89,1345218,133
67,91,1345557,400
33,91,1345557,1014
58,80,1346238,394
61,94,1346238,333
62,89,1346572,397
57,75,1346572,188
60,89,1346572,101
31,89,1346572,1011
73,88,1347588,773
63,85,1347588,1049
70,99,1347588,1049
39,81,1347588,712
72,88,1348301,397
39,76,1348301,367
70,83,1348638,574
58,80,1348638,736
61,94,1348638,675
34,89,1348638,1014
57,75,1349314,220
60,89,1349314,133
67,91,1349653,400
33,91,1349653,1014
58,80,1350334,394
61,94,1350334,333
62,89,1350668,397
57,75,1350668,188
60,89,1350668,101
31,89,1350668,1011
73,88,1351684,773
67,80,1351684,1049
70,94,1351684,1049
39,81,1351684,712
72,88,1352397,397
39,76,1352397,367
70,83,1352734,574
62,75,1352734,328
67,89,1352734,154
34,89,1352734,1014
73,88,1353749,741
60,80,1353749,741
67,94,1353749,680
39,79,1353749,680
72,88,1354430,394
58,75,1354430,215
65,89,1354430,128
39,76,1354430,364
70,83,1354764,571
34,89,1354764,1011
62,102,1355440,2404
67,116,1355440,2404
73,88,1355780,773
39,81,1355780,712
72,88,1356493,397
39,76,1356493,367
70,83,1356830,574
34,89,1356830,1014
67,91,1357845,400
33,91,1357845,1014
62,89,1358860,397
31,89,1358860,1011
65,88,1359876,773
43,81,1359876,712
66,83,1360589,218
43,76,1360589,367
42,89,1360926,1014
67,110,1361602,1353
41,91,1361941,1014
79,89,1362956,397
40,89,1362956,1011
65,88,1363972,773
43,81,1363972,712
66,83,1364685,218
43,76,1364685,367
42,89,1365022,1014
67,110,1365698,1353
41,91,1366037,1014
79,89,1367052,397
40,89,1367052,1011
65,76,1368068,712
43,81,1368068,712
65,76,1368781,397
43,76,1368781,367
67,83,1369118,574
42,89,1369118,1014
74,88,1370133,741
41,91,1370133,1014
72,80,1370814,394
79,94,1370814,333
70,88,1371148,736
40,89,1371148,1011
67,88,1371824,396
53,85,1372164,682
62,85,1372164,682
65,99,1372164,712
43,93,1372164,682
54,80,1372877,306
63,80,1372877,306
66,94,1372877,336
42,88,1372877,306
55,80,1373890,1353
64,80,1373890,1353
67,94,1373890,1353
43,88,1373890,1353
56,59,1376260,435
62,59,1376260,435
65,73,1376260,435
57,55,1377310,400
63,55,1377310,400
66,69,1377310,400
58,57,1378325,400
64,57,1378325,400
67,71,1378325,400
56,59,1380356,435
62,59,1380356,435
65,73,1380356,435
57,54,1381406,736
63,54,1381406,736
66,68,1381406,675
58,49,1382082,220
64,49,1382082,35
67,63,1382082,133
56,58,1384112,1052
62,58,1384112,1052
65,72,1384112,1052
56,42,1385165,397
62,42,1385165,397
65,56,1385165,336
57,49,1385502,574
63,49,1385502,306
66,63,1385502,400
58,57,1386517,400
64,57,1386517,400
67,71,1386517,400
53,55,1387532,397
59,55,1387532,397
62,69,1387532,397
56,54,1388548,773
62,54,1388548,773
65,68,1388548,712
57,49,1389261,218
63,49,1389261,33
66,63,1389261,131
58,54,1390274,133
64,54,1390274,103
67,68,1390274,133
56,59,1392644,435
62,59,1392644,435
65,73,1392644,435
57,55,1393694,400
63,55,1393694,400
66,69,1393694,400
58,57,1394709,400
64,57,1394709,400
67,71,1394709,400
56,59,1396740,435
62,59,1396740,435
65,73,1396740,435
57,54,1397790,736
63,54,1397790,736
66,68,1397790,675
58,49,1398466,220
64,49,1398466,35
67,63,1398466,133
56,70,1400496,1052
62,70,1400496,1052
65,84,1400496,1052
56,54,1401549,397
62,54,1401549,397
65,68,1401549,336
57,49,1401886,352
63,49,1401886,167
66,63,1401886,265
53,54,1402562,399
59,54,1402562,399
62,68,1402562,338
58,49,1402901,270
64,49,1402901,172
67,63,1402901,270
52,54,1403582,394
58,54,1403582,394
61,68,1403582,333
53,54,1403916,736
59,54,1403916,736
62,68,1403916,675
54,54,1404592,396
60,54,1404592,396
63,68,1404592,335
56,54,1404932,773
62,54,1404932,773
65,68,1404932,712
57,49,1405645,218
63,49,1405645,33
66,63,1405645,131
58,54,1406658,133
64,54,1406658,103
67,68,1406658,133
67,71,1408012,1011
79,85,1408012,1011
56,72,1409028,435
62,72,1409028,435
65,86,1409028,435
53,80,1409028,435
57,68,1410078,400
63,68,1410078,400
66,82,1410078,400
54,76,1410078,400
58,70,1411093,400
64,70,1411093,400
67,84,1411093,400
55,78,1411093,400
56,72,1413124,435
62,72,1413124,435
65,86,1413124,435
53,80,1413124,435
57,67,1414174,736
63,67,1414174,736
66,81,1414174,675
54,75,1414174,736
58,62,1414850,220
64,62,1414850,35
67,76,1414850,133
55,70,1414850,220
56,74,1416880,1052
62,74,1416880,1052
65,88,1416880,1052
53,82,1416880,1052
56,55,1417933,397
62,55,1417933,397
65,69,1417933,336
53,63,1417933,397
57,62,1418270,574
63,62,1418270,306
66,76,1418270,400
54,70,1418270,574
58,70,1419285,400
64,70,1419285,400
67,84,1419285,400
55,78,1419285,400
53,68,1420300,397
59,68,1420300,397
62,82,1420300,397
50,76,1420300,397
56,67,1421316,773
62,67,1421316,773
65,81,1421316,712
53,75,1421316,773
57,62,1422029,218
63,62,1422029,33
66,76,1422029,131
54,70,1422029,218
58,67,1423042,133
64,67,1423042,103
67,81,1423042,133
55,75,1423042,133
56,72,1425412,435
62,72,1425412,435
65,86,1425412,435
53,80,1425412,435
57,68,1426462,400
63,68,1426462,400
66,82,1426462,400
54,76,1426462,400
58,70,1427477,400
64,70,1427477,400
67,84,1427477,400
55,78,1427477,400
56,72,1429508,435
62,72,1429508,435
65,86,1429508,435
53,80,1429508,435
57,67,1430558,736
63,67,1430558,736
66,81,1430558,675
54,75,1430558,736
58,62,1431234,220
64,62,1431234,35
67,76,1431234,133
55,70,1431234,220
56,86,1433264,1052
62,86,1433264,1052
65,100,1433264,1052
53,94,1433264,1052
56,67,1434317,397
62,67,1434317,397
65,81,1434317,336
53,75,1434317,397
57,62,1434654,352
63,62,1434654,167
66,76,1434654,265
54,70,1434654,352
53,67,1435330,308
59,67,1435330,399
62,81,1435330,338
53,67,1435330,308
62,81,1435330,338
58,62,1435669,270
64,62,1435669,172
67,76,1435669,270
55,78,1435669,270
52,67,1436350,394
58,67,1436350,394
61,81,1436350,333
60,75,1436350,303
53,67,1436684,736
59,67,1436684,736
62,81,1436684,675
50,75,1436684,736
54,67,1437360,396
60,67,1437360,396
63,81,1437360,335
51,75,1437360,396
56,67,1437700,773
62,67,1437700,773
65,81,1437700,712
53,75,1437700,773
57,62,1438413,218
63,62,1438413,33
66,76,1438413,131
54,70,1438413,218
58,67,1439426,133
64,67,1439426,103
67,81,1439426,133
55,75,1439426,133
67,87,1440780,1011
79,101,1440780,1011
74,93,1441796,435
62,81,1441796,435
41,85,1441796,435
50,85,1441796,435
53,99,1441796,435
77,89,1442846,400
65,77,1442846,400
42,81,1442846,400
51,81,1442846,400
54,95,1442846,400
79,91,1443861,400
70,79,1443861,400
43,83,1443861,400
52,83,1443861,400
55,97,1443861,400
67,77,1444876,397
38,88,1444876,397
74,93,1445892,435
41,85,1445892,435
50,85,1445892,435
53,99,1445892,435
72,88,1446605,306
77,88,1446942,736
70,89,1446942,645
42,80,1446942,736
51,80,1446942,736
54,94,1446942,675
79,83,1447618,220
67,88,1447618,133
43,75,1447618,220
52,75,1447618,35
55,89,1447618,133
62,88,1448638,303
65,89,1448972,265
38,88,1448972,645
82,98,1449648,1052
72,88,1449648,1052
41,102,1449648,1052
50,102,1449648,335
53,112,1449648,1052
50,80,1449988,712
82,76,1450701,397
72,88,1450701,306
41,80,1450701,397
50,80,1450701,397
53,94,1450701,336
81,83,1451038,574
70,89,1451038,265
42,75,1451038,574
51,75,1451038,306
54,89,1451038,400
67,88,1451714,308
79,91,1452053,400
70,91,1452053,400
43,83,1452053,400
52,83,1452053,400
55,97,1452053,400
77,89,1453068,397
67,89,1453068,397
38,80,1453068,397
47,81,1453068,397
50,95,1453068,397
74,88,1454084,773
62,93,1454084,682
41,80,1454084,773
50,80,1454084,773
53,94,1454084,712
77,83,1454797,218
65,88,1454797,131
42,75,1454797,218
51,75,1454797,33
54,89,1454797,131
79,88,1455810,133
67,88,1455810,133
43,80,1455810,133
52,80,1455810,103
55,94,1455810,133
72,88,1456830,303
70,89,1457164,265
38,88,1457164,397
67,88,1457840,305
74,93,1458180,435
62,81,1458180,435
41,85,1458180,435
50,85,1458180,435
53,99,1458180,435
77,89,1459230,400
65,77,1459230,400
42,81,1459230,400
51,81,1459230,400
54,95,1459230,400
79,91,1460245,400
70,79,1460245,400
43,83,1460245,400
52,83,1460245,400
55,97,1460245,400
67,77,1461260,397
38,88,1461260,397
74,93,1462276,435
41,85,1462276,435
50,85,1462276,435
53,99,1462276,435
72,88,1462989,306
77,88,1463326,736
70,89,1463326,645
42,80,1463326,736
51,80,1463326,736
54,94,1463326,675
79,83,1464002,220
67,88,1464002,133
43,75,1464002,220
52,75,1464002,35
55,89,1464002,133
67,88,1465022,303
70,89,1465356,265
38,88,1465356,645
82,98,1466032,1052
72,88,1466032,1052
41,102,1466032,1052
50,102,1466032,335
53,112,1466032,1052
50,80,1466372,712
82,76,1467085,397
72,88,1467085,306
41,80,1467085,397
50,80,1467085,397
53,94,1467085,336
81,83,1467422,574
70,89,1467422,400
42,75,1467422,352
51,75,1467422,167
54,89,1467422,265
38,79,1468098,399
47,80,1468098,399
50,94,1468098,338
79,91,1468437,400
72,91,1468437,400
43,75,1468437,357
52,75,1468437,172
55,89,1468437,270
37,79,1469118,394
46,80,1469118,394
49,94,1469118,333
77,89,1469452,397
70,89,1469452,397
38,79,1469452,736
47,80,1469452,736
50,94,1469452,675
39,79,1470128,396
48,80,1470128,396
51,94,1470128,335
74,88,1470468,773
62,93,1470468,682
41,80,1470468,773
50,80,1470468,773
53,94,1470468,712
77,83,1471181,218
65,88,1471181,131
42,75,1471181,218
51,75,1471181,33
54,89,1471181,131
79,88,1472194,133
67,88,1472194,133
43,80,1472194,133
52,80,1472194,103
55,94,1472194,133
70,81,1473548,645
74,81,1473548,645
79,95,1473548,675
67,85,1474564,2064
79,99,1474564,2064
43,81,1474564,712
43,76,1475277,367
42,89,1475614,1014
41,91,1476629,1014
40,89,1477644,1011
39,93,1478660,1049
61,102,1479373,1351
73,116,1479373,1351
34,89,1479710,1014
60,83,1480725,650
72,97,1480725,680
33,91,1480725,1014
58,80,1481406,303
70,94,1481406,333
55,81,1481740,1698
67,95,1481740,1728
30,89,1481740,1011
43,81,1482756,712
73,88,1483469,306
43,76,1483469,367
72,89,1483806,645
42,89,1483806,1014
70,88,1484482,308
72,91,1484821,650
41,91,1484821,1014
73,88,1485502,303
65,89,1485836,645
40,89,1485836,1011
67,88,1486512,305
70,93,1486852,682
39,93,1486852,1049
67,88,1487565,306
65,89,1487902,645
43,89,1487902,1014
79,88,1488578,830
42,91,1488917,1014
77,88,1489152,128
79,88,1489280,128
77,83,1489587,246
73,89,1489932,319
38,89,1489932,1011
72,88,1490272,309
70,88,1490602,341
67,85,1490948,2064
70,99,1490948,2064
43,81,1490948,712
43,76,1491661,367
42,89,1491998,1014
69,83,1493013,2026
72,97,1493013,2026
41,91,1493013,1014
40,89,1494028,1011
70,85,1495044,2064
74,99,1495044,2064
39,93,1495044,1049
34,89,1496094,1014
69,83,1497109,2026
75,97,1497109,2026
33,91,1497109,1014
30,89,1498124,1011
70,85,1499140,435
74,99,1499140,435
34,81,1499140,712
34,76,1499853,367
60,81,1500190,400
67,95,1500190,400
31,89,1500190,1014
74,83,1501205,400
79,97,1501205,400
34,91,1501205,1014
63,81,1502220,397
67,95,1502220,397
36,89,1502220,1011
78,93,1503236,682
67,93,1503236,682
38,93,1503236,1049
75,88,1503949,398
69,88,1503949,398
40,89,1504286,1014
74,110,1504962,989
66,110,1504962,2365
42,91,1505301,1014
75,88,1505982,394
74,88,1506316,736
38,89,1506316,1011
75,88,1506992,396
74,71,1507332,609
43,81,1507332,712
43,76,1508045,367
70,77,1508382,400
42,89,1508382,1014
67,79,1509397,400
41,91,1509397,1014
62,77,1510412,397
40,89,1510412,1011
70,81,1511428,435
39,93,1511428,1049
67,89,1512478,645
34,89,1512478,1014
69,88,1513154,989
33,91,1513493,1014
75,88,1514174,394
74,88,1514508,736
30,89,1514508,1011
75,88,1515184,396
70,83,1515524,609
39,93,1515524,1049
67,89,1516574,645
34,89,1516574,1014
69,88,1517250,989
33,91,1517589,1014
75,88,1518270,394
74,88,1518604,736
30,89,1518604,1011
75,88,1519280,396
70,83,1519620,609
39,93,1519620,1049
67,89,1520670,645
34,89,1520670,1014
69,88,1521346,989
33,91,1521685,1014
72,80,1522366,394
75,94,1522366,333
70,80,1522700,736
74,94,1522700,675
30,89,1522700,1011
72,80,1523376,396
75,94,1523376,335
70,80,1523716,712
74,94,1523716,712
43,81,1523716,712
70,80,1524429,336
74,94,1524429,336
43,76,1524429,367
67,75,1524766,400
70,89,1524766,400
42,89,1524766,1014
62,83,1525781,400
67,97,1525781,400
41,91,1525781,1014
58,81,1526796,397
62,95,1526796,397
40,89,1526796,1011
67,85,1527812,435
70,99,1527812,435
39,93,1527812,1049
69,81,1528862,675
72,95,1528862,675
43,89,1528862,1014
66,80,1529538,989
69,94,1529538,1019
42,91,1529877,1014
75,88,1530558,394
74,88,1530892,736
38,89,1530892,1011
75,88,1531568,396
67,75,1531908,609
70,89,1531908,435
39,93,1531908,1049
69,81,1532958,675
72,95,1532958,675
43,89,1532958,1014
66,80,1533634,989
69,94,1533634,1019
42,91,1533973,1014
75,88,1534654,394
74,88,1534988,736
38,89,1534988,1011
75,88,1535664,396
67,75,1536004,609
70,89,1536004,435
39,93,1536004,1049
69,81,1537054,675
72,95,1537054,675
43,89,1537054,1014
66,80,1537730,989
69,94,1537730,1019
42,91,1538069,1014
75,88,1538750,394
74,88,1539084,736
38,89,1539084,1011
75,88,1539760,396
74,71,1540100,609
43,81,1540100,712
43,76,1540813,367
70,77,1541150,400
42,89,1541150,1014
67,79,1542165,400
41,91,1542165,1014
62,77,1543180,397
40,89,1543180,1011
70,81,1544196,435
39,93,1544196,1049
67,89,1545246,645
34,89,1545246,1014
69,88,1545922,989
33,91,1546261,1014
75,88,1546942,394
74,88,1547276,736
30,89,1547276,1011
75,88,1547952,396
70,83,1548292,609
39,93,1548292,1049
67,89,1549342,645
34,89,1549342,1014
69,88,1550018,989
33,91,1550357,1014
75,88,1551038,394
74,88,1551372,736
30,89,1551372,1011
75,88,1552048,396
70,83,1552388,609
39,93,1552388,1049
67,89,1553438,645
34,89,1553438,1014
69,88,1554114,989
33,91,1554453,1014
75,88,1555134,394
74,88,1555468,736
30,89,1555468,1011
75,88,1556144,396
74,83,1556484,609
43,81,1556484,712
43,76,1557197,367
79,89,1557534,400
42,89,1557534,1014
72,91,1558549,400
41,91,1558549,1014
70,89,1559564,397
40,89,1559564,1011
72,88,1560580,773
39,93,1560580,1049
70,83,1561293,218
34,89,1561630,1014
72,110,1562306,1353
33,91,1562645,1014
58,81,1563660,265
70,95,1563660,265
30,89,1563660,1011
60,80,1564336,396
72,94,1564336,335
61,80,1564676,773
73,94,1564676,712
36,81,1564676,712
60,80,1565389,397
72,94,1565389,336
36,76,1565389,367
58,75,1565726,574
70,89,1565726,400
34,89,1565726,400
55,83,1566741,400
67,97,1566741,400
36,91,1566741,400
62,89,1567756,397
37,89,1567756,397
53,80,1568772,773
60,80,1568772,773
65,94,1568772,712
38,93,1568772,712
54,75,1569485,218
61,75,1569485,33
66,89,1569485,131
38,88,1569485,306
42,89,1569822,645
55,102,1570498,2365
62,102,1570498,2365
67,116,1570498,2365
43,88,1570498,2365
73,88,1572868,773
39,93,1572868,1049
72,88,1573581,397
70,83,1573918,574
34,89,1573918,1014
67,91,1574933,400
33,91,1574933,1014
62,89,1575948,397
31,89,1575948,1011
73,88,1576964,773
39,93,1576964,1049
72,88,1577677,397
70,83,1578014,574
34,89,1578014,1014
67,91,1579029,400
33,91,1579029,1014
62,89,1580044,397
31,89,1580044,1011
73,88,1581060,773
39,93,1581060,1049
72,88,1581773,397
70,83,1582110,574
34,89,1582110,1014
73,88,1583125,741
39,91,1583125,1014
72,88,1583806,394
70,83,1584140,571
34,89,1584140,1011
73,88,1585156,773
39,93,1585156,1049
72,88,1585869,397
70,83,1586206,574
34,89,1586206,1014
67,91,1587221,400
33,91,1587221,1014
62,89,1588236,397
31,89,1588236,1011
65,88,1589252,773
43,81,1589252,712
66,83,1589965,218
43,76,1589965,367
42,89,1590302,1014
67,110,1590978,1353
41,91,1591317,1014
79,89,1592332,397
40,89,1592332,1011
65,88,1593348,773
43,81,1593348,712
66,83,1594061,218
43,76,1594061,367
42,89,1594398,1014
67,110,1595074,1353
41,91,1595413,1014
79,89,1596428,397
40,89,1596428,1011
65,76,1597444,712
43,81,1597444,712
65,76,1598157,397
43,76,1598157,367
67,83,1598494,574
42,89,1598494,1014
74,88,1599509,741
41,91,1599509,1014
72,80,1600190,394
79,94,1600190,333
70,88,1600524,736
40,89,1600524,1011
67,88,1601200,396
65,88,1601540,773
43,81,1601540,712
66,83,1602253,218
43,76,1602253,367
42,89,1602590,1014
67,110,1603266,2365
41,91,1603605,1014
40,89,1604620,1011
73,88,1605636,773
63,85,1605636,1049
70,99,1605636,1049
39,81,1605636,712
72,88,1606349,397
39,76,1606349,367
70,83,1606686,574
58,80,1606686,736
61,94,1606686,675
34,89,1606686,1014
57,75,1607362,220
60,89,1607362,133
67,91,1607701,400
33,91,1607701,1014
58,80,1608382,394
61,94,1608382,333
62,89,1608716,397
57,75,1608716,188
60,89,1608716,101
31,89,1608716,1011
73,88,1609732,773
63,85,1609732,1049
70,99,1609732,1049
39,81,1609732,712
72,88,1610445,397
39,76,1610445,367
70,83,1610782,574
58,80,1610782,736
61,94,1610782,675
34,89,1610782,1014
57,75,1611458,220
60,89,1611458,133
67,91,1611797,400
33,91,1611797,1014
58,80,1612478,394
61,94,1612478,333
62,89,1612812,397
57,75,1612812,188
60,89,1612812,101
31,89,1612812,1011
73,88,1613828,773
67,80,1613828,1049
70,94,1613828,1049
39,81,1613828,712
72,88,1614541,397
39,76,1614541,367
70,83,1614878,574
62,75,1614878,328
67,89,1614878,154
34,89,1614878,1014
73,88,1615893,741
60,80,1615893,741
67,94,1615893,680
39,79,1615893,680
72,88,1616574,394
58,75,1616574,215
65,89,1616574,128
39,76,1616574,364
70,83,1616908,571
34,89,1616908,1011
62,102,1617584,2404
67,116,1617584,2404
73,88,1617924,773
39,81,1617924,712
72,88,1618637,397
39,76,1618637,367
70,83,1618974,574
34,89,1618974,1014
67,91,1619989,400
33,91,1619989,1014
62,89,1621004,397
31,89,1621004,1011
65,88,1622020,773
43,81,1622020,712
66,83,1622733,218
43,76,1622733,367
42,89,1623070,1014
67,110,1623746,1353
41,91,1624085,1014
79,89,1625100,397
40,89,1625100,1011
65,88,1626116,773
43,81,1626116,712
66,83,1626829,218
43,76,1626829,367
42,89,1627166,1014
67,110,1627842,1353
41,91,1628181,1014
79,89,1629196,397
40,89,1629196,1011
65,76,1630212,712
43,81,1630212,712
65,76,1630925,397
43,76,1630925,367
67,83,1631262,574
42,89,1631262,1014
74,88,1632277,741
41,91,1632277,1014
72,80,1632958,394
79,94,1632958,333
70,88,1633292,736
40,89,1633292,1011
67,88,1633968,396
53,85,1634308,682
62,85,1634308,682
65,99,1634308,712
43,93,1634308,682
54,80,1635021,306
63,80,1635021,306
66,94,1635021,336
42,88,1635021,306
55,80,1636034,1353
64,80,1636034,1353
67,94,1636034,1353
43,88,1636034,1353
56,59,1638404,435
62,59,1638404,435
65,73,1638404,435
57,55,1639454,400
63,55,1639454,400
66,69,1639454,400
58,57,1640469,400
64,57,1640469,400
67,71,1640469,400
56,59,1642500,435
62,59,1642500,435
65,73,1642500,435
57,54,1643550,736
63,54,1643550,736
66,68,1643550,675
58,49,1644226,220
64,49,1644226,35
67,63,1644226,133
56,58,1646256,1052
62,58,1646256,1052
65,72,1646256,1052
56,42,1647309,397
62,42,1647309,397
65,56,1647309,336
57,49,1647646,574
63,49,1647646,306
66,63,1647646,400
58,57,1648661,400
64,57,1648661,400
67,71,1648661,400
53,55,1649676,397
59,55,1649676,397
62,69,1649676,397
56,54,1650692,773
62,54,1650692,773
65,68,1650692,712
57,49,1651405,218
63,49,1651405,33
66,63,1651405,131
58,54,1652418,133
64,54,1652418,103
67,68,1652418,133
56,59,1654788,435
62,59,1654788,435
65,73,1654788,435
57,55,1655838,400
63,55,1655838,400
66,69,1655838,400
58,57,1656853,400
64,57,1656853,400
67,71,1656853,400
56,59,1658884,435
62,59,1658884,435
65,73,1658884,435
57,54,1659934,736
63,54,1659934,736
66,68,1659934,675
58,49,1660610,220
64,49,1660610,35
67,63,1660610,133
56,70,1662640,1052
62,70,1662640,1052
65,84,1662640,1052
56,54,1663693,397
62,54,1663693,397
65,68,1663693,336
57,49,1664030,352
63,49,1664030,167
66,63,1664030,265
53,54,1664706,399
59,54,1664706,399
62,68,1664706,338
58,49,1665045,270
64,49,1665045,172
67,63,1665045,270
52,54,1665726,394
58,54,1665726,394
61,68,1665726,333
53,54,1666060,736
59,54,1666060,736
62,68,1666060,675
54,54,1666736,396
60,54,1666736,396
63,68,1666736,335
56,54,1667076,773
62,54,1667076,773
65,68,1667076,712
57,49,1667789,218
63,49,1667789,33
66,63,1667789,131
58,54,1668802,133
64,54,1668802,103
67,68,1668802,133
67,71,1670156,1011
79,85,1670156,1011
56,72,1671172,435
62,72,1671172,435
65,86,1671172,435
53,80,1671172,435
57,68,1672222,400
63,68,1672222,400
66,82,1672222,400
54,76,1672222,400
58,70,1673237,400
64,70,1673237,400
67,84,1673237,400
55,78,1673237,400
56,72,1675268,435
62,72,1675268,435
65,86,1675268,435
53,80,1675268,435
57,67,1676318,736
63,67,1676318,736
66,81,1676318,675
54,75,1676318,736
58,62,1676994,220
64,62,1676994,35
67,76,1676994,133
55,70,1676994,220
56,74,1679024,1052
62,74,1679024,1052
65,88,1679024,1052
53,82,1679024,1052
56,55,1680077,397
62,55,1680077,397
65,69,1680077,336
53,63,1680077,397
57,62,1680414,574
63,62,1680414,306
66,76,1680414,400
54,70,1680414,574
58,70,1681429,400
64,70,1681429,400
67,84,1681429,400
55,78,1681429,400
53,68,1682444,397
59,68,1682444,397
62,82,1682444,397
50,76,1682444,397
56,67,1683460,773
62,67,1683460,773
65,81,1683460,712
53,75,1683460,773
57,62,1684173,218
63,62,1684173,33
66,76,1684173,131
54,70,1684173,218
58,67,1685186,133
64,67,1685186,103
67,81,1685186,133
55,75,1685186,133
56,72,1687556,435
62,72,1687556,435
65,86,1687556,435
53,80,1687556,435
57,68,1688606,400
63,68,1688606,400
66,82,1688606,400
54,76,1688606,400
58,70,1689621,400
64,70,1689621,400
67,84,1689621,400
55,78,1689621,400
56,72,1691652,435
62,72,1691652,435
65,86,1691652,435
53,80,1691652,435
57,67,1692702,736
63,67,1692702,736
66,81,1692702,675
54,75,1692702,736
58,62,1693378,220
64,62,1693378,35
67,76,1693378,133
55,70,1693378,220
56,86,1695408,1052
62,86,1695408,1052
65,100,1695408,1052
53,94,1695408,1052
56,67,1696461,397
62,67,1696461,397
65,81,1696461,336
53,75,1696461,397
57,62,1696798,352
63,62,1696798,167
66,76,1696798,265
54,70,1696798,352
53,67,1697474,308
59,67,1697474,399
62,81,1697474,338
53,67,1697474,308
62,81,1697474,338
58,62,1697813,270
64,62,1697813,172
67,76,1697813,270
55,78,1697813,270
52,67,1698494,394
58,67,1698494,394
61,81,1698494,333
60,75,1698494,303
53,67,1698828,736
59,67,1698828,736
62,81,1698828,675
50,75,1698828,736
54,67,1699504,396
60,67,1699504,396
63,81,1699504,335
51,75,1699504,396
56,67,1699844,773
62,67,1699844,773
65,81,1699844,712
53,75,1699844,773
57,62,1700557,218
63,62,1700557,33
66,76,1700557,131
54,70,1700557,218
58,67,1701570,133
64,67,1701570,103
67,81,1701570,133
55,75,1701570,133
67,87,1702924,1011
79,101,1702924,1011
74,93,1703940,435
62,81,1703940,435
41,85,1703940,435
50,85,1703940,435
53,99,1703940,435
77,89,1704990,400
65,77,1704990,400
42,81,1704990,400
51,81,1704990,400
54,95,1704990,400
79,91,1706005,400
70,79,1706005,400
43,83,1706005,400
52,83,1706005,400
55,97,1706005,400
67,77,1707020,397
38,88,1707020,397
74,93,1708036,435
41,85,1708036,435
50,85,1708036,435
53,99,1708036,435
72,88,1708749,306
77,88,1709086,736
70,89,1709086,645
42,80,1709086,736
51,80,1709086,736
54,94,1709086,675
79,83,1709762,220
67,88,1709762,133
43,75,1709762,220
52,75,1709762,35
55,89,1709762,133
62,88,1710782,303
65,89,1711116,265
38,88,1711116,645
82,98,1711792,1052
72,88,1711792,1052
41,102,1711792,1052
50,102,1711792,335
53,112,1711792,1052
50,80,1712132,712
82,76,1712845,397
72,88,1712845,306
41,80,1712845,397
50,80,1712845,397
53,94,1712845,336
81,83,1713182,574
70,89,1713182,265
42,75,1713182,574
51,75,1713182,306
54,89,1713182,400
67,88,1713858,308
79,91,1714197,400
70,91,1714197,400
43,83,1714197,400
52,83,1714197,400
55,97,1714197,400
77,89,1715212,397
67,89,1715212,397
38,80,1715212,397
47,81,1715212,397
50,95,1715212,397
74,88,1716228,773
62,93,1716228,682
41,80,1716228,773
50,80,1716228,773
53,94,1716228,712
77,83,1716941,218
65,88,1716941,131
42,75,1716941,218
51,75,1716941,33
54,89,1716941,131
79,88,1717954,133
67,88,1717954,133
43,80,1717954,133
52,80,1717954,103
55,94,1717954,133
72,88,1718974,303
70,89,1719308,265
38,88,1719308,397
67,88,1719984,305
74,93,1720324,435
62,81,1720324,435
41,85,1720324,435
50,85,1720324,435
53,99,1720324,435
77,89,1721374,400
65,77,1721374,400
42,81,1721374,400
51,81,1721374,400
54,95,1721374,400
79,91,1722389,400
70,79,1722389,400
43,83,1722389,400
52,83,1722389,400
55,97,1722389,400
67,77,1723404,397
38,88,1723404,397
74,93,1724420,435
41,85,1724420,435
50,85,1724420,435
53,99,1724420,435
72,88,1725133,306
77,88,1725470,736
70,89,1725470,645
42,80,1725470,736
51,80,1725470,736
54,94,1725470,675
79,83,1726146,220
67,88,1726146,133
43,75,1726146,220
52,75,1726146,35
55,89,1726146,133
67,88,1727166,303
70,89,1727500,265
38,88,1727500,645
82,98,1728176,1052
72,88,1728176,1052
41,102,1728176,1052
50,102,1728176,335
53,112,1728176,1052
50,80,1728516,712
82,76,1729229,397
72,88,1729229,306
41,80,1729229,397
50,80,1729229,397
53,94,1729229,336
81,83,1729566,574
70,89,1729566,400
42,75,1729566,352
51,75,1729566,167
54,89,1729566,265
38,79,1730242,399
47,80,1730242,399
50,94,1730242,338
79,91,1730581,400
72,91,1730581,400
43,75,1730581,357
52,75,1730581,172
55,89,1730581,270
37,79,1731262,394
46,80,1731262,394
49,94,1731262,333
77,89,1731596,397
70,89,1731596,397
38,79,1731596,736
47,80,1731596,736
50,94,1731596,675
39,79,1732272,396
48,80,1732272,396
51,94,1732272,335
74,88,1732612,773
62,93,1732612,682
41,80,1732612,773
50,80,1732612,773
53,94,1732612,712
77,83,1733325,218
65,88,1733325,131
42,75,1733325,218
51,75,1733325,33
54,89,1733325,131
79,88,1734338,133
67,88,1734338,133
43,80,1734338,133
52,80,1734338,103
55,94,1734338,133
70,81,1735692,645
74,81,1735692,645
79,95,1735692,675
67,85,1736708,2064
79,99,1736708,2064
43,81,1736708,712
43,76,1737421,367
42,89,1737758,1014
41,91,1738773,1014
40,89,1739788,1011
39,93,1740804,1049
61,102,1741517,1351
73,116,1741517,1351
34,89,1741854,1014
60,83,1742869,650
72,97,1742869,680
33,91,1742869,1014
58,80,1743550,303
70,94,1743550,333
55,81,1743884,1698
67,95,1743884,1728
30,89,1743884,1011
43,81,1744900,712
73,88,1745613,306
43,76,1745613,367
72,89,1745950,645
42,89,1745950,1014
70,88,1746626,308
72,91,1746965,650
41,91,1746965,1014
73,88,1747646,303
65,89,1747980,645
40,89,1747980,1011
67,88,1748656,305
70,93,1748996,682
39,93,1748996,1049
67,88,1749709,306
65,89,1750046,645
43,89,1750046,1014
79,88,1750722,830
42,91,1751061,1014
77,88,1751296,128
79,88,1751424,128
77,83,1751731,246
73,89,1752076,319
38,89,1752076,1011
72,88,1752416,309
70,88,1752746,341
67,85,1753092,2064
70,99,1753092,2064
43,81,1753092,712
43,76,1753805,367
42,89,1754142,1014
69,83,1755157,2026
72,97,1755157,2026
41,91,1755157,1014
40,89,1756172,1011
70,85,1757188,2064
74,99,1757188,2064
39,93,1757188,1049
34,89,1758238,1014
69,83,1759253,2026
75,97,1759253,2026
33,91,1759253,1014
30,89,1760268,1011
70,85,1761284,435
74,99,1761284,435
34,81,1761284,712
34,76,1761997,367
60,81,1762334,400
67,95,1762334,400
31,89,1762334,1014
74,83,1763349,400
79,97,1763349,400
34,91,1763349,1014
63,81,1764364,397
67,95,1764364,397
36,89,1764364,1011
78,93,1765380,682
67,93,1765380,682
38,93,1765380,1049
75,88,1766093,398
69,88,1766093,398
40,89,1766430,1014
74,110,1767106,989
66,110,1767106,2365
42,91,1767445,1014
75,88,1768126,394
74,88,1768460,736
38,89,1768460,1011
75,88,1769136,396
74,71,1769476,609
43,81,1769476,712
43,76,1770189,367
70,77,1770526,400
42,89,1770526,1014
67,79,1771541,400
41,91,1771541,1014
62,77,1772556,397
40,89,1772556,1011
70,81,1773572,435
39,93,1773572,1049
67,89,1774622,645
34,89,1774622,1014
69,88,1775298,989
33,91,1775637,1014
75,88,1776318,394
74,88,1776652,736
30,89,1776652,1011
75,88,1777328,396
70,83,1777668,609
39,93,1777668,1049
67,89,1778718,645
34,89,1778718,1014
69,88,1779394,989
33,91,1779733,1014
75,88,1780414,394
74,88,1780748,736
30,89,1780748,1011
75,88,1781424,396
70,83,1781764,609
39,93,1781764,1049
67,89,1782814,645
34,89,1782814,1014
69,88,1783490,989
33,91,1783829,1014
72,80,1784510,394
75,94,1784510,333
70,80,1784844,736
74,94,1784844,675
30,89,1784844,1011
72,80,1785520,396
75,94,1785520,335
70,80,1785860,712
74,94,1785860,712
43,81,1785860,712
70,80,1786573,336
74,94,1786573,336
43,76,1786573,367
67,75,1786910,400
70,89,1786910,400
42,89,1786910,1014
62,83,1787925,400
67,97,1787925,400
41,91,1787925,1014
58,81,1788940,397
62,95,1788940,397
40,89,1788940,1011
67,85,1789956,435
70,99,1789956,435
39,93,1789956,1049
69,81,1791006,675
72,95,1791006,675
43,89,1791006,1014
66,80,1791682,989
69,94,1791682,1019
42,91,1792021,1014
75,88,1792702,394
74,88,1793036,736
38,89,1793036,1011
75,88,1793712,396
67,75,1794052,609
70,89,1794052,435
39,93,1794052,1049
69,81,1795102,675
72,95,1795102,675
43,89,1795102,1014
66,80,1795778,989
69,94,1795778,1019
42,91,1796117,1014
75,88,1796798,394
74,88,1797132,736
38,89,1797132,1011
75,88,1797808,396
67,75,1798148,609
70,89,1798148,435
39,93,1798148,1049
69,81,1799198,675
72,95,1799198,675
43,89,1799198,1014
66,80,1799874,989
69,94,1799874,1019
42,91,1800213,1014
75,88,1800894,394
74,88,1801228,736
38,89,1801228,1011
75,88,1801904,396
74,71,1802244,609
43,81,1802244,712
43,76,1802957,367
70,77,1803294,400
42,89,1803294,1014
67,79,1804309,400
41,91,1804309,1014
62,77,1805324,397
40,89,1805324,1011
70,81,1806340,435
39,93,1806340,1049
67,89,1807390,645
34,89,1807390,1014
69,88,1808066,989
33,91,1808405,1014
75,88,1809086,394
74,88,1809420,736
30,89,1809420,1011
75,88,1810096,396
70,83,1810436,609
39,93,1810436,1049
67,89,1811486,645
34,89,1811486,1014
69,88,1812162,989
33,91,1812501,1014
75,88,1813182,394
74,88,1813516,736
30,89,1813516,1011
75,88,1814192,396
70,83,1814532,609
39,93,1814532,1049
67,89,1815582,645
34,89,1815582,1014
69,88,1816258,989
33,91,1816597,1014
75,88,1817278,394
74,88,1817612,736
30,89,1817612,1011
75,88,1818288,396
74,83,1818628,609
43,81,1818628,712
43,76,1819341,367
79,89,1819678,400
42,89,1819678,1014
72,91,1820693,400
41,91,1820693,1014
70,89,1821708,397
40,89,1821708,1011
72,88,1822724,773
39,93,1822724,1049
70,83,1823437,218
34,89,1823774,1014
72,110,1824450,1353
33,91,1824789,1014
58,81,1825804,265
70,95,1825804,265
30,89,1825804,1011
60,80,1826480,396
72,94,1826480,335
61,80,1826820,773
73,94,1826820,712
36,81,1826820,712
60,80,1827533,397
72,94,1827533,336
36,76,1827533,367
58,75,1827870,574
70,89,1827870,400
34,89,1827870,400
55,83,1828885,400
67,97,1828885,400
36,91,1828885,400
62,89,1829900,397
37,89,1829900,397
53,80,1830916,773
60,80,1830916,773
65,94,1830916,712
38,93,1830916,712
54,75,1831629,218
61,75,1831629,33
66,89,1831629,131
38,88,1831629,306
42,89,1831966,645
55,102,1832642,2365
62,102,1832642,2365
67,116,1832642,2365
43,88,1832642,2365
73,88,1835012,773
39,93,1835012,1049
72,88,1835725,397
70,83,1836062,574
34,89,1836062,1014
67,91,1837077,400
33,91,1837077,1014
62,89,1838092,397
31,89,1838092,1011
73,88,1839108,773
39,93,1839108,1049
72,88,1839821,397
70,83,1840158,574
34,89,1840158,1014
67,91,1841173,400
33,91,1841173,1014
62,89,1842188,397
31,89,1842188,1011
73,88,1843204,773
39,93,1843204,1049
72,88,1843917,397
70,83,1844254,574
34,89,1844254,1014
73,88,1845269,741
39,91,1845269,1014
72,88,1845950,394
70,83,1846284,571
34,89,1846284,1011
73,88,1847300,773
39,93,1847300,1049
72,88,1848013,397
70,83,1848350,574
34,89,1848350,1014
67,91,1849365,400
33,91,1849365,1014
62,89,1850380,397
31,89,1850380,1011
65,88,1851396,773
43,81,1851396,712
66,83,1852109,218
43,76,1852109,367
42,89,1852446,1014
67,110,1853122,1353
41,91,1853461,1014
79,89,1854476,397
40,89,1854476,1011
65,88,1855492,773
43,81,1855492,712
66,83,1856205,218
43,76,1856205,367
42,89,1856542,1014
67,110,1857218,1353
41,91,1857557,1014
79,89,1858572,397
40,89,1858572,1011
65,76,1859588,712
43,81,1859588,712
65,76,1860301,397
43,76,1860301,367
67,83,1860638,574
42,89,1860638,1014
74,88,1861653,741
41,91,1861653,1014
72,80,1862334,394
79,94,1862334,333
70,88,1862668,736
40,89,1862668,1011
67,88,1863344,396
65,88,1863684,773
43,81,1863684,712
66,83,1864397,218
43,76,1864397,367
42,89,1864734,1014
67,110,1865410,2365
41,91,1865749,1014
40,89,1866764,1011
73,88,1867780,773
63,85,1867780,1049
70,99,1867780,1049
39,81,1867780,712
72,88,1868493,397
39,76,1868493,367
70,83,1868830,574
58,80,1868830,736
61,94,1868830,675
34,89,1868830,1014
57,75,1869506,220
60,89,1869506,133
67,91,1869845,400
33,91,1869845,1014
58,80,1870526,394
61,94,1870526,333
62,89,1870860,397
57,75,1870860,188
60,89,1870860,101
31,89,1870860,1011
73,88,1871876,773
63,85,1871876,1049
70,99,1871876,1049
39,81,1871876,712
72,88,1872589,397
39,76,1872589,367
70,83,1872926,574
58,80,1872926,736
61,94,1872926,675
34,89,1872926,1014
57,75,1873602,220
60,89,1873602,133
67,91,1873941,400
33,91,1873941,1014
58,80,1874622,394
61,94,1874622,333
62,89,1874956,397
57,75,1874956,188
60,89,1874956,101
31,89,1874956,1011
73,88,1875972,773
67,80,1875972,1049
70,94,1875972,1049
39,81,1875972,712
72,88,1876685,397
39,76,1876685,367
70,83,1877022,574
62,75,1877022,328
67,89,1877022,154
34,89,1877022,1014
73,88,1878037,741
60,80,1878037,741
67,94,1878037,680
39,79,1878037,680
72,88,1878718,394
58,75,1878718,215
65,89,1878718,128
39,76,1878718,364
70,83,1879052,571
34,89,1879052,1011
62,102,1879728,2404
67,116,1879728,2404
73,88,1880068,773
39,81,1880068,712
72,88,1880781,397
39,76,1880781,367
70,83,1881118,574
34,89,1881118,1014
67,91,1882133,400
33,91,1882133,1014
62,89,1883148,397
31,89,1883148,1011
65,88,1884164,773
43,81,1884164,712
66,83,1884877,218
43,76,1884877,367
42,89,1885214,1014
67,110,1885890,1353
41,91,1886229,1014
79,89,1887244,397
40,89,1887244,1011
65,88,1888260,773
43,81,1888260,712
66,83,1888973,218
43,76,1888973,367
42,89,1889310,1014
67,110,1889986,1353
41,91,1890325,1014
79,89,1891340,397
40,89,1891340,1011
65,76,1892356,712
43,81,1892356,712
65,76,1893069,397
43,76,1893069,367
67,83,1893406,574
42,89,1893406,1014
74,88,1894421,741
41,91,1894421,1014
72,80,1895102,394
79,94,1895102,333
70,88,1895436,736
40,89,1895436,1011
67,88,1896112,396
53,85,1896452,682
62,85,1896452,682
65,99,1896452,712
43,93,1896452,682
54,80,1897165,306
63,80,1897165,306
66,94,1897165,336
42,88,1897165,306
55,80,1898178,1353
64,80,1898178,1353
67,94,1898178,1353
43,88,1898178,1353
56,59,1900548,435
62,59,1900548,435
65,73,1900548,435
57,55,1901598,400
63,55,1901598,400
66,69,1901598,400
58,57,1902613,400
64,57,1902613,400
67,71,1902613,400
56,59,1904644,435
62,59,1904644,435
65,73,1904644,435
57,54,1905694,736
63,54,1905694,736
66,68,1905694,675
58,49,1906370,220
64,49,1906370,35
67,63,1906370,133
56,58,1908400,1052
62,58,1908400,1052
65,72,1908400,1052
56,42,1909453,397
62,42,1909453,397
65,56,1909453,336
57,49,1909790,574
63,49,1909790,306
66,63,1909790,400
58,57,1910805,400
64,57,1910805,400
67,71,1910805,400
53,55,1911820,397
59,55,1911820,397
62,69,1911820,397
56,54,1912836,773
62,54,1912836,773
65,68,1912836,712
57,49,1913549,218
63,49,1913549,33
66,63,1913549,131
58,54,1914562,133
64,54,1914562,103
67,68,1914562,133
56,59,1916932,435
62,59,1916932,435
65,73,1916932,435
57,55,1917982,400
63,55,1917982,400
66,69,1917982,400
58,57,1918997,400
64,57,1918997,400
67,71,1918997,400
56,59,1921028,435
62,59,1921028,435
65,73,1921028,435
57,54,1922078,736
63,54,1922078,736
66,68,1922078,675
58,49,1922754,220
64,49,1922754,35
67,63,1922754,133
56,70,1924784,1052
62,70,1924784,1052
65,84,1924784,1052
56,54,1925837,397
62,54,1925837,397
65,68,1925837,336
57,49,1926174,352
63,49,1926174,167
66,63,1926174,265
53,54,1926850,399
59,54,1926850,399
62,68,1926850,338
58,49,1927189,270
64,49,1927189,172
67,63,1927189,270
52,54,1927870,394
58,54,1927870,394
61,68,1927870,333
53,54,1928204,736
59,54,1928204,736
62,68,1928204,675
54,54,1928880,396
60,54,1928880,396
63,68,1928880,335
56,54,1929220,773
62,54,1929220,773
65,68,1929220,712
57,49,1929933,218
63,49,1929933,33
66,63,1929933,131
58,54,1930946,133
64,54,1930946,103
67,68,1930946,133
67,71,1932300,1011
79,85,1932300,1011
56,72,1933316,435
62,72,1933316,435
65,86,1933316,435
53,80,1933316,435
57,68,1934366,400
63,68,1934366,400
66,82,1934366,400
54,76,1934366,400
58,70,1935381,400
64,70,1935381,400
67,84,1935381,400
55,78,1935381,400
56,72,1937412,435
62,72,1937412,435
65,86,1937412,435
53,80,1937412,435
57,67,1938462,736
63,67,1938462,736
66,81,1938462,675
54,75,1938462,736
58,62,1939138,220
64,62,1939138,35
67,76,1939138,133
55,70,1939138,220
56,74,1941168,1052
62,74,1941168,1052
65,88,1941168,1052
53,82,1941168,1052
56,55,1942221,397
62,55,1942221,397
65,69,1942221,336
53,63,1942221,397
57,62,1942558,574
63,62,1942558,306
66,76,1942558,400
54,70,1942558,574
58,70,1943573,400
64,70,1943573,400
67,84,1943573,400
55,78,1943573,400
53,68,1944588,397
59,68,1944588,397
62,82,1944588,397
50,76,1944588,397
56,67,1945604,773
62,67,1945604,773
65,81,1945604,712
53,75,1945604,773
57,62,1946317,218
63,62,1946317,33
66,76,1946317,131
54,70,1946317,218
58,67,1947330,133
64,67,1947330,103
67,81,1947330,133
55,75,1947330,133
56,72,1949700,435
62,72,1949700,435
65,86,1949700,435
53,80,1949700,435
57,68,1950750,400
63,68,1950750,400
66,82,1950750,400
54,76,1950750,400
58,70,1951765,400
64,70,1951765,400
67,84,1951765,400
55,78,1951765,400
56,72,1953796,435
62,72,1953796,435
65,86,1953796,435
53,80,1953796,435
57,67,1954846,736
63,67,1954846,736
66,81,1954846,675
54,75,1954846,736
58,62,1955522,220
64,62,1955522,35
67,76,1955522,133
55,70,1955522,220
56,86,1957552,1052
62,86,1957552,1052
65,100,1957552,1052
53,94,1957552,1052
56,67,1958605,397
62,67,1958605,397
65,81,1958605,336
53,75,1958605,397
57,62,1958942,352
63,62,1958942,167
66,76,1958942,265
54,70,1958942,352
53,67,1959618,308
59,67,1959618,399
62,81,1959618,338
53,67,1959618,308
62,81,1959618,338
58,62,1959957,270
64,62,1959957,172
67,76,1959957,270
55,78,1959957,270
52,67,1960638,394
58,67,1960638,394
61,81,1960638,333
60,75,1960638,303
53,67,1960972,736
59,67,1960972,736
62,81,1960972,675
50,75,1960972,736
54,67,1961648,396
60,67,1961648,396
63,81,1961648,335
51,75,1961648,396
56,67,1961988,773
62,67,1961988,773
65,81,1961988,712
53,75,1961988,773
57,62,1962701,218
63,62,1962701,33
66,76,1962701,131
54,70,1962701,218
58,67,1963714,133
64,67,1963714,103
67,81,1963714,133
55,75,1963714,133
67,87,1965068,1011
79,101,1965068,1011
74,93,1966084,435
62,81,1966084,435
41,85,1966084,435
50,85,1966084,435
53,99,1966084,435
77,89,1967134,400
65,77,1967134,400
42,81,1967134,400
51,81,1967134,400
54,95,1967134,400
79,91,1968149,400
70,79,1968149,400
43,83,1968149,400
52,83,1968149,400
55,97,1968149,400
67,77,1969164,397
38,88,1969164,397
74,93,1970180,435
41,85,1970180,435
50,85,1970180,435
53,99,1970180,435
72,88,1970893,306
77,88,1971230,736
70,89,1971230,645
42,80,1971230,736
51,80,1971230,736
54,94,1971230,675
79,83,1971906,220
67,88,1971906,133
43,75,1971906,220
52,75,1971906,35
55,89,1971906,133
62,88,1972926,303
65,89,1973260,265
38,88,1973260,645
82,98,1973936,1052
72,88,1973936,1052
41,102,1973936,1052
50,102,1973936,335
53,112,1973936,1052
50,80,1974276,712
82,76,1974989,397
72,88,1974989,306
41,80,1974989,397
50,80,1974989,397
53,94,1974989,336
81,83,1975326,574
70,89,1975326,265
42,75,1975326,574
51,75,1975326,306
54,89,1975326,400
67,88,1976002,308
79,91,1976341,400
70,91,1976341,400
43,83,1976341,400
52,83,1976341,400
55,97,1976341,400
77,89,1977356,397
67,89,1977356,397
38,80,1977356,397
47,81,1977356,397
50,95,1977356,397
74,88,1978372,773
62,93,1978372,682
41,80,1978372,773
50,80,1978372,773
53,94,1978372,712
77,83,1979085,218
65,88,1979085,131
42,75,1979085,218
51,75,1979085,33
54,89,1979085,131
79,88,1980098,133
67,88,1980098,133
43,80,1980098,133
52,80,1980098,103
55,94,1980098,133
72,88,1981118,303
70,89,1981452,265
38,88,1981452,397
67,88,1982128,305
74,93,1982468,435
62,81,1982468,435
41,85,1982468,435
50,85,1982468,435
53,99,1982468,435
77,89,1983518,400
65,77,1983518,400
42,81,1983518,400
51,81,1983518,400
54,95,1983518,400
79,91,1984533,400
70,79,1984533,400
43,83,1984533,400
52,83,1984533,400
55,97,1984533,400
67,77,1985548,397
38,88,1985548,397
74,93,1986564,435
41,85,1986564,435
50,85,1986564,435
53,99,1986564,435
72,88,1987277,306
77,88,1987614,736
70,89,1987614,645
42,80,1987614,736
51,80,1987614,736
54,94,1987614,675
79,83,1988290,220
67,88,1988290,133
43,75,1988290,220
52,75,1988290,35
55,89,1988290,133
67,88,1989310,303
70,89,1989644,265
38,88,1989644,645
82,98,1990320,1052
72,88,1990320,1052
41,102,1990320,1052
50,102,1990320,335
53,112,1990320,1052
50,80,1990660,712
82,76,1991373,397
72,88,1991373,306
41,80,1991373,397
50,80,1991373,397
53,94,1991373,336
81,83,1991710,574
70,89,1991710,400
42,75,1991710,352
51,75,1991710,167
54,89,1991710,265
38,79,1992386,399
47,80,1992386,399
50,94,1992386,338
79,91,1992725,400
72,91,1992725,400
43,75,1992725,357
52,75,1992725,172
55,89,1992725,270
37,79,1993406,394
46,80,1993406,394
49,94,1993406,333
77,89,1993740,397
70,89,1993740,397
38,79,1993740,736
47,80,1993740,736
50,94,1993740,675
39,79,1994416,396
48,80,1994416,396
51,94,1994416,335
74,88,1994756,773
62,93,1994756,682
41,80,1994756,773
50,80,1994756,773
53,94,1994756,712
77,83,1995469,218
65,88,1995469,131
42,75,1995469,218
51,75,1995469,33
54,89,1995469,131
79,88,1996482,133
67,88,1996482,133
43,80,1996482,133
52,80,1996482,103
55,94,1996482,133
70,81,1997836,645
74,81,1997836,645
79,95,1997836,675
67,85,1998852,2064
79,99,1998852,2064
43,81,1998852,712
43,76,1999565,367
42,89,1999902,1014
41,91,2000917,1014
40,89,2001932,1011
39,93,2002948,1049
61,102,2003661,1351
73,116,2003661,1351
34,89,2003998,1014
60,83,2005013,650
72,97,2005013,680
33,91,2005013,1014
58,80,2005694,303
70,94,2005694,333
55,81,2006028,1698
67,95,2006028,1728
30,89,2006028,1011
43,81,2007044,712
73,88,2007757,306
43,76,2007757,367
72,89,2008094,645
42,89,2008094,1014
70,88,2008770,308
72,91,2009109,650
41,91,2009109,1014
73,88,2009790,303
65,89,2010124,645
40,89,2010124,1011
67,88,2010800,305
70,93,2011140,682
39,93,2011140,1049
67,88,2011853,306
65,89,2012190,645
43,89,2012190,1014
79,88,2012866,830
42,91,2013205,1014
77,88,2013440,128
79,88,2013568,128
77,83,2013875,246
73,89,2014220,319
38,89,2014220,1011
72,88,2014560,309
70,88,2014890,341
67,85,2015236,2064
70,99,2015236,2064
43,81,2015236,712
43,76,2015949,367
42,89,2016286,1014
69,83,2017301,2026
72,97,2017301,2026
41,91,2017301,1014
40,89,2018316,1011
70,85,2019332,2064
74,99,2019332,2064
39,93,2019332,1049
34,89,2020382,1014
69,83,2021397,2026
75,97,2021397,2026
33,91,2021397,1014
30,89,2022412,1011
70,85,2023428,435
74,99,2023428,435
34,81,2023428,712
34,76,2024141,367
60,81,2024478,400
67,95,2024478,400
31,89,2024478,1014
74,83,2025493,400
79,97,2025493,400
34,91,2025493,1014
63,81,2026508,397
67,95,2026508,397
36,89,2026508,1011
78,93,2027524,682
67,93,2027524,682
38,93,2027524,1049
75,88,2028237,398
69,88,2028237,398
40,89,2028574,1014
74,110,2029250,989
66,110,2029250,2365
42,91,2029589,1014
75,88,2030270,394
74,88,2030604,736
38,89,2030604,1011
75,88,2031280,396
74,71,2031620,609
43,81,2031620,712
43,76,2032333,367
70,77,2032670,400
42,89,2032670,1014
67,79,2033685,400
41,91,2033685,1014
62,77,2034700,397
40,89,2034700,1011
70,81,2035716,435
39,93,2035716,1049
67,89,2036766,645
34,89,2036766,1014
69,88,2037442,989
33,91,2037781,1014
75,88,2038462,394
74,88,2038796,736
30,89,2038796,1011
75,88,2039472,396
70,83,2039812,609
39,93,2039812,1049
67,89,2040862,645
34,89,2040862,1014
69,88,2041538,989
33,91,2041877,1014
75,88,2042558,394
74,88,2042892,736
30,89,2042892,1011
75,88,2043568,396
70,83,2043908,609
39,93,2043908,1049
67,89,2044958,645
34,89,2044958,1014
69,88,2045634,989
33,91,2045973,1014
72,80,2046654,394
75,94,2046654,333
70,80,2046988,736
74,94,2046988,675
30,89,2046988,1011
72,80,2047664,396
75,94,2047664,335
70,80,2048004,712
74,94,2048004,712
43,81,2048004,712
70,80,2048717,336
74,94,2048717,336
43,76,2048717,367
67,75,2049054,400
70,89,2049054,400
42,89,2049054,1014
62,83,2050069,400
67,97,2050069,400
41,91,2050069,1014
58,81,2051084,397
62,95,2051084,397
40,89,2051084,1011
67,85,2052100,435
70,99,2052100,435
39,93,2052100,1049
69,81,2053150,675
72,95,2053150,675
43,89,2053150,1014
66,80,2053826,989
69,94,2053826,1019
42,91,2054165,1014
75,88,2054846,394
74,88,2055180,736
38,89,2055180,1011
75,88,2055856,396
67,75,2056196,609
70,89,2056196,435
39,93,2056196,1049
69,81,2057246,675
72,95,2057246,675
43,89,2057246,1014
66,80,2057922,989
69,94,2057922,1019
42,91,2058261,1014
75,88,2058942,394
74,88,2059276,736
38,89,2059276,1011
75,88,2059952,396
67,75,2060292,609
70,89,2060292,435
39,93,2060292,1049
69,81,2061342,675
72,95,2061342,675
43,89,2061342,1014
66,80,2062018,989
69,94,2062018,1019
42,91,2062357,1014
75,88,2063038,394
74,88,2063372,736
38,89,2063372,1011
75,88,2064048,396
74,71,2064388,609
43,81,2064388,712
43,76,2065101,367
70,77,2065438,400
42,89,2065438,1014
67,79,2066453,400
41,91,2066453,1014
62,77,2067468,397
40,89,2067468,1011
70,81,2068484,435
39,93,2068484,1049
67,89,2069534,645
34,89,2069534,1014
69,88,2070210,989
33,91,2070549,1014
75,88,2071230,394
74,88,2071564,736
30,89,2071564,1011
75,88,2072240,396
70,83,2072580,609
39,93,2072580,1049
67,89,2073630,645
34,89,2073630,1014
69,88,2074306,989
33,91,2074645,1014
75,88,2075326,394
74,88,2075660,736
30,89,2075660,1011
75,88,2076336,396
70,83,2076676,609
39,93,2076676,1049
67,89,2077726,645
34,89,2077726,1014
69,88,2078402,989
33,91,2078741,1014
75,88,2079422,394
74,88,2079756,736
30,89,2079756,1011
75,88,2080432,396
74,83,2080772,609
43,81,2080772,712
43,76,2081485,367
79,89,2081822,400
42,89,2081822,1014
72,91,2082837,400
41,91,2082837,1014
70,89,2083852,397
40,89,2083852,1011
72,88,2084868,773
39,93,2084868,1049
70,83,2085581,218
34,89,2085918,1014
72,110,2086594,1353
33,91,2086933,1014
58,81,2087948,265
70,95,2087948,265
30,89,2087948,1011
60,80,2088624,396
72,94,2088624,335
61,80,2088964,773
73,94,2088964,712
36,81,2088964,712
60,80,2089677,397
72,94,2089677,336
36,76,2089677,367
58,75,2090014,574
70,89,2090014,400
34,89,2090014,400
55,83,2091029,400
67,97,2091029,400
36,91,2091029,400
62,89,2092044,397
37,89,2092044,397
53,80,2093060,773
60,80,2093060,773
65,94,2093060,712
38,93,2093060,712
54,75,2093773,218
61,75,2093773,33
66,89,2093773,131
38,88,2093773,306
42,89,2094110,645
55,102,2094786,2365
62,102,2094786,2365
67,116,2094786,2365
43,88,2094786,2365
73,88,2097156,773
39,93,2097156,1049
72,88,2097869,397
70,83,2098206,574
34,89,2098206,1014
67,91,2099221,400
33,91,2099221,1014
62,89,2100236,397
31,89,2100236,1011
73,88,2101252,773
39,93,2101252,1049
72,88,2101965,397
70,83,2102302,574
34,89,2102302,1014
67,91,2103317,400
33,91,2103317,1014
62,89,2104332,397
31,89,2104332,1011
73,88,2105348,773
39,93,2105348,1049
72,88,2106061,397
70,83,2106398,574
34,89,2106398,1014
73,88,2107413,741
39,91,2107413,1014
72,88,2108094,394
70,83,2108428,571
34,89,2108428,1011
73,88,2109444,773
39,93,2109444,1049
72,88,2110157,397
70,83,2110494,574
34,89,2110494,1014
67,91,2111509,400
33,91,2111509,1014
62,89,2112524,397
31,89,2112524,1011
65,88,2113540,773
43,81,2113540,712
66,83,2114253,218
43,76,2114253,367
42,89,2114590,1014
67,110,2115266,1353
41,91,2115605,1014
79,89,2116620,397
40,89,2116620,1011
65,88,2117636,773
43,81,2117636,712
66,83,2118349,218
43,76,2118349,367
42,89,2118686,1014
67,110,2119362,1353
41,91,2119701,1014
79,89,2120716,397
40,89,2120716,1011
65,76,2121732,712
43,81,2121732,712
65,76,2122445,397
43,76,2122445,367
67,83,2122782,574
42,89,2122782,1014
74,88,2123797,741
41,91,2123797,1014
72,80,2124478,394
79,94,2124478,333
70,88,2124812,736
40,89,2124812,1011
67,88,2125488,396
65,88,2125828,773
43,81,2125828,712
66,83,2126541,218
43,76,2126541,367
42,89,2126878,1014
67,110,2127554,2365
41,91,2127893,1014
40,89,2128908,1011
73,88,2129924,773
63,85,2129924,1049
70,99,2129924,1049
39,81,2129924,712
72,88,2130637,397
39,76,2130637,367
70,83,2130974,574
58,80,2130974,736
61,94,2130974,675
34,89,2130974,1014
57,75,2131650,220
60,89,2131650,133
67,91,2131989,400
33,91,2131989,1014
58,80,2132670,394
61,94,2132670,333
62,89,2133004,397
57,75,2133004,188
60,89,2133004,101
31,89,2133004,1011
73,88,2134020,773
63,85,2134020,1049
70,99,2134020,1049
39,81,2134020,712
72,88,2134733,397
39,76,2134733,367
70,83,2135070,574
58,80,2135070,736
61,94,2135070,675
34,89,2135070,1014
57,75,2135746,220
60,89,2135746,133
67,91,2136085,400
33,91,2136085,1014
58,80,2136766,394
61,94,2136766,333
62,89,2137100,397
57,75,2137100,188
60,89,2137100,101
31,89,2137100,1011
73,88,2138116,773
67,80,2138116,1049
70,94,2138116,1049
39,81,2138116,712
72,88,2138829,397
39,76,2138829,367
70,83,2139166,574
62,75,2139166,328
67,89,2139166,154
34,89,2139166,1014
73,88,2140181,741
60,80,2140181,741
67,94,2140181,680
39,79,2140181,680
72,88,2140862,394
58,75,2140862,215
65,89,2140862,128
39,76,2140862,364
70,83,2141196,571
34,89,2141196,1011
62,102,2141872,2404
67,116,2141872,2404
73,88,2142212,773
39,81,2142212,712
72,88,2142925,397
39,76,2142925,367
70,83,2143262,574
34,89,2143262,1014
67,91,2144277,400
33,91,2144277,1014
62,89,2145292,397
31,89,2145292,1011
65,88,2146308,773
43,81,2146308,712
66,83,2147021,218
43,76,2147021,367
42,89,2147358,1014
67,110,2148034,1353
41,91,2148373,1014
79,89,2149388,397
40,89,2149388,1011
65,88,2150404,773
43,81,2150404,712
66,83,2151117,218
43,76,2151117,367
42,89,2151454,1014
67,110,2152130,1353
41,91,2152469,1014
79,89,2153484,397
40,89,2153484,1011
65,76,2154500,712
43,81,2154500,712
65,76,2155213,397
43,76,2155213,367
67,83,2155550,574
42,89,2155550,1014
74,88,2156565,741
41,91,2156565,1014
72,80,2157246,394
79,94,2157246,333
70,88,2157580,736
40,89,2157580,1011
67,88,2158256,396
53,85,2158596,682
62,85,2158596,682
65,99,2158596,712
43,93,2158596,682
54,80,2159309,306
63,80,2159309,306
66,94,2159309,336
42,88,2159309,306
55,80,2160322,1353
64,80,2160322,1353
67,94,2160322,1353
43,88,2160322,1353
56,59,2162692,435
62,59,2162692,435
65,73,2162692,435
57,55,2163742,400
63,55,2163742,400
66,69,2163742,400
58,57,2164757,400
64,57,2164757,400
67,71,2164757,400
56,59,2166788,435
62,59,2166788,435
65,73,2166788,435
57,54,2167838,736
63,54,2167838,736
66,68,2167838,675
58,49,2168514,220
64,49,2168514,35
67,63,2168514,133
56,58,2170544,1052
62,58,2170544,1052
65,72,2170544,1052
56,42,2171597,397
62,42,2171597,397
65,56,2171597,336
57,49,2171934,574
63,49,2171934,306
66,63,2171934,400
58,57,2172949,400
64,57,2172949,400
67,71,2172949,400
53,55,2173964,397
59,55,2173964,397
62,69,2173964,397
56,54,2174980,773
62,54,2174980,773
65,68,2174980,712
57,49,2175693,218
63,49,2175693,33
66,63,2175693,131
58,54,2176706,133
64,54,2176706,103
67,68,2176706,133
56,59,2179076,435
62,59,2179076,435
65,73,2179076,435
57,55,2180126,400
63,55,2180126,400
66,69,2180126,400
58,57,2181141,400
64,57,2181141,400
67,71,2181141,400
56,59,2183172,435
62,59,2183172,435
65,73,2183172,435
57,54,2184222,736
63,54,2184222,736
66,68,2184222,675
58,49,2184898,220
64,49,2184898,35
67,63,2184898,133
56,70,2186928,1052
62,70,2186928,1052
65,84,2186928,1052
56,54,2187981,397
62,54,2187981,397
65,68,2187981,336
57,49,2188318,352
63,49,2188318,167
66,63,2188318,265
53,54,2188994,399
59,54,2188994,399
62,68,2188994,338
58,49,2189333,270
64,49,2189333,172
67,63,2189333,270
52,54,2190014,394
58,54,2190014,394
61,68,2190014,333
53,54,2190348,736
59,54,2190348,736
62,68,2190348,675
54,54,2191024,396
60,54,2191024,396
63,68,2191024,335
56,54,2191364,773
62,54,2191364,773
65,68,2191364,712
57,49,2192077,218
63,49,2192077,33
66,63,2192077,131
58,54,2193090,133
64,54,2193090,103
67,68,2193090,133
67,71,2194444,1011
79,85,2194444,1011
56,72,2195460,435
62,72,2195460,435
65,86,2195460,435
53,80,2195460,435
57,68,2196510,400
63,68,2196510,400
66,82,2196510,400
54,76,2196510,400
58,70,2197525,400
64,70,2197525,400
67,84,2197525,400
55,78,2197525,400
56,72,2199556,435
62,72,2199556,435
65,86,2199556,435
53,80,2199556,435
57,67,2200606,736
63,67,2200606,736
66,81,2200606,675
54,75,2200606,736
58,62,2201282,220
64,62,2201282,35
67,76,2201282,133
55,70,2201282,220
56,74,2203312,1052
62,74,2203312,1052
65,88,2203312,1052
53,82,2203312,1052
56,55,2204365,397
62,55,2204365,397
65,69,2204365,336
53,63,2204365,397
57,62,2204702,574
63,62,2204702,306
66,76,2204702,400
54,70,2204702,574
58,70,2205717,400
64,70,2205717,400
67,84,2205717,400
55,78,2205717,400
53,68,2206732,397
59,68,2206732,397
62,82,2206732,397
50,76,2206732,397
56,67,2207748,773
62,67,2207748,773
65,81,2207748,712
53,75,2207748,773
57,62,2208461,218
63,62,2208461,33
66,76,2208461,131
54,70,2208461,218
58,67,2209474,133
64,67,2209474,103
67,81,2209474,133
55,75,2209474,133
56,72,2211844,435
62,72,2211844,435
65,86,2211844,435
53,80,2211844,435
57,68,2212894,400
63,68,2212894,400
66,82,2212894,400
54,76,2212894,400
58,70,2213909,400
64,70,2213909,400
67,84,2213909,400
55,78,2213909,400
56,72,2215940,435
62,72,2215940,435
65,86,2215940,435
53,80,2215940,435
57,67,2216990,736
63,67,2216990,736
66,81,2216990,675
54,75,2216990,736
58,62,2217666,220
64,62,2217666,35
67,76,2217666,133
55,70,2217666,220
56,86,2219696,1052
62,86,2219696,1052
65,100,2219696,1052
53,94,2219696,1052
56,67,2220749,397
62,67,2220749,397
65,81,2220749,336
53,75,2220749,397
57,62,2221086,352
63,62,2221086,167
66,76,2221086,265
54,70,2221086,352
53,67,2221762,308
59,67,2221762,399
62,81,2221762,338
53,67,2221762,308
62,81,2221762,338
58,62,2222101,270
64,62,2222101,172
67,76,2222101,270
55,78,2222101,270
52,67,2222782,394
58,67,2222782,394
61,81,2222782,333
60,75,2222782,303
53,67,2223116,736
59,67,2223116,736
62,81,2223116,675
50,75,2223116,736
54,67,2223792,396
60,67,2223792,396
63,81,2223792,335
51,75,2223792,396
56,67,2224132,773
62,67,2224132,773
65,81,2224132,712
53,75,2224132,773
57,62,2224845,218
63,62,2224845,33
66,76,2224845,131
54,70,2224845,218
58,67,2225858,133
64,67,2225858,103
67,81,2225858,133
55,75,2225858,133
67,87,2227212,1011
79,101,2227212,1011
74,93,2228228,435
62,81,2228228,435
41,85,2228228,435
50,85,2228228,435
53,99,2228228,435
77,89,2229278,400
65,77,2229278,400
42,81,2229278,400
51,81,2229278,400
54,95,2229278,400
79,91,2230293,400
70,79,2230293,400
43,83,2230293,400
52,83,2230293,400
55,97,2230293,400
67,77,2231308,397
38,88,2231308,397
74,93,2232324,435
41,85,2232324,435
50,85,2232324,435
53,99,2232324,435
72,88,2233037,306
77,88,2233374,736
70,89,2233374,645
42,80,2233374,736
51,80,2233374,736
54,94,2233374,675
79,83,2234050,220
67,88,2234050,133
43,75,2234050,220
52,75,2234050,35
55,89,2234050,133
62,88,2235070,303
65,89,2235404,265
38,88,2235404,645
82,98,2236080,1052
72,88,2236080,1052
41,102,2236080,1052
50,102,2236080,335
53,112,2236080,1052
50,80,2236420,712
82,76,2237133,397
72,88,2237133,306
41,80,2237133,397
50,80,2237133,397
53,94,2237133,336
81,83,2237470,574
70,89,2237470,265
42,75,2237470,574
51,75,2237470,306
54,89,2237470,400
67,88,2238146,308
79,91,2238485,400
70,91,2238485,400
43,83,2238485,400
52,83,2238485,400
55,97,2238485,400
77,89,2239500,397
67,89,2239500,397
38,80,2239500,397
47,81,2239500,397
50,95,2239500,397
74,88,2240516,773
62,93,2240516,682
41,80,2240516,773
50,80,2240516,773
53,94,2240516,712
77,83,2241229,218
65,88,2241229,131
42,75,2241229,218
51,75,2241229,33
54,89,2241229,131
79,88,2242242,133
67,88,2242242,133
43,80,2242242,133
52,80,2242242,103
55,94,2242242,133
72,88,2243262,303
70,89,2243596,265
38,88,2243596,397
67,88,2244272,305
74,93,2244612,435
62,81,2244612,435
41,85,2244612,435
50,85,2244612,435
53,99,2244612,435
77,89,2245662,400
65,77,2245662,400
42,81,2245662,400
51,81,2245662,400
54,95,2245662,400
79,91,2246677,400
70,79,2246677,400
43,83,2246677,400
52,83,2246677,400
55,97,2246677,400
67,77,2247692,397
38,88,2247692,397
74,93,2248708,435
41,85,2248708,435
50,85,2248708,435
53,99,2248708,435
72,88,2249421,306
77,88,2249758,736
70,89,2249758,645
42,80,2249758,736
51,80,2249758,736
54,94,2249758,675
79,83,2250434,220
67,88,2250434,133
43,75,2250434,220
52,75,2250434,35
55,89,2250434,133
67,88,2251454,303
70,89,2251788,265
38,88,2251788,645
82,98,2252464,1052
72,88,2252464,1052
41,102,2252464,1052
50,102,2252464,335
53,112,2252464,1052
50,80,2252804,712
82,76,2253517,397
72,88,2253517,306
41,80,2253517,397
50,80,2253517,397
53,94,2253517,336
81,83,2253854,574
70,89,2253854,400
42,75,2253854,352
51,75,2253854,167
54,89,2253854,265
38,79,2254530,399
47,80,2254530,399
50,94,2254530,338
79,91,2254869,400
72,91,2254869,400
43,75,2254869,357
52,75,2254869,172
55,89,2254869,270
37,79,2255550,394
46,80,2255550,394
49,94,2255550,333
77,89,2255884,397
70,89,2255884,397
38,79,2255884,736
47,80,2255884,736
50,94,2255884,675
39,79,2256560,396
48,80,2256560,396
51,94,2256560,335
74,88,2256900,773
62,93,2256900,682
41,80,2256900,773
50,80,2256900,773
53,94,2256900,712
77,83,2257613,218
65,88,2257613,131
42,75,2257613,218
51,75,2257613,33
54,89,2257613,131
79,88,2258626,133
67,88,2258626,133
43,80,2258626,133
52,80,2258626,103
55,94,2258626,133
70,81,2259980,645
74,81,2259980,645
79,95,2259980,675
67,85,2260996,2064
79,99,2260996,2064
43,81,2260996,712
43,76,2261709,367
42,89,2262046,1014
41,91,2263061,1014
40,89,2264076,1011
39,93,2265092,1049
61,102,2265805,1351
73,116,2265805,1351
34,89,2266142,1014
60,83,2267157,650
72,97,2267157,680
33,91,2267157,1014
58,80,2267838,303
70,94,2267838,333
55,81,2268172,1698
67,95,2268172,1728
30,89,2268172,1011
43,81,2269188,712
73,88,2269901,306
43,76,2269901,367
72,89,2270238,645
42,89,2270238,1014
70,88,2270914,308
72,91,2271253,650
41,91,2271253,1014
73,88,2271934,303
65,89,2272268,645
40,89,2272268,1011
67,88,2272944,305
70,93,2273284,682
39,93,2273284,1049
67,88,2273997,306
65,89,2274334,645
43,89,2274334,1014
79,88,2275010,830
42,91,2275349,1014
77,88,2275584,128
79,88,2275712,128
77,83,2276019,246
73,89,2276364,319
38,89,2276364,1011
72,88,2276704,309
70,88,2277034,341
67,85,2277380,2064
70,99,2277380,2064
43,81,2277380,712
43,76,2278093,367
42,89,2278430,1014
69,83,2279445,2026
72,97,2279445,2026
41,91,2279445,1014
40,89,2280460,1011
70,85,2281476,2064
74,99,2281476,2064
39,93,2281476,1049
34,89,2282526,1014
69,83,2283541,2026
75,97,2283541,2026
33,91,2283541,1014
30,89,2284556,1011
70,85,2285572,435
74,99,2285572,435
34,81,2285572,712
34,76,2286285,367
60,81,2286622,400
67,95,2286622,400
31,89,2286622,1014
74,83,2287637,400
79,97,2287637,400
34,91,2287637,1014
63,81,2288652,397
67,95,2288652,397
36,89,2288652,1011
78,93,2289668,682
67,93,2289668,682
38,93,2289668,1049
75,88,2290381,398
69,88,2290381,398
40,89,2290718,1014
74,110,2291394,989
66,110,2291394,2365
42,91,2291733,1014
75,88,2292414,394
74,88,2292748,736
38,89,2292748,1011
75,88,2293424,396
74,71,2293764,609
43,81,2293764,712
43,76,2294477,367
70,77,2294814,400
42,89,2294814,1014
67,79,2295829,400
41,91,2295829,1014
62,77,2296844,397
40,89,2296844,1011
70,81,2297860,435
39,93,2297860,1049
67,89,2298910,645
34,89,2298910,1014
69,88,2299586,989
33,91,2299925,1014
75,88,2300606,394
74,88,2300940,736
30,89,2300940,1011
75,88,2301616,396
70,83,2301956,609
39,93,2301956,1049
67,89,2303006,645
34,89,2303006,1014
69,88,2303682,989
33,91,2304021,1014
75,88,2304702,394
74,88,2305036,736
30,89,2305036,1011
75,88,2305712,396
70,83,2306052,609
39,93,2306052,1049
67,89,2307102,645
34,89,2307102,1014
69,88,2307778,989
33,91,2308117,1014
72,80,2308798,394
75,94,2308798,333
70,80,2309132,736
74,94,2309132,675
30,89,2309132,1011
72,80,2309808,396
75,94,2309808,335
70,80,2310148,712
74,94,2310148,712
43,81,2310148,712
70,80,2310861,336
74,94,2310861,336
43,76,2310861,367
67,75,2311198,400
70,89,2311198,400
42,89,2311198,1014
62,83,2312213,400
67,97,2312213,400
41,91,2312213,1014
58,81,2313228,397
62,95,2313228,397
40,89,2313228,1011
67,85,2314244,435
70,99,2314244,435
39,93,2314244,1049
69,81,2315294,675
72,95,2315294,675
43,89,2315294,1014
66,80,2315970,989
69,94,2315970,1019
42,91,2316309,1014
75,88,2316990,394
74,88,2317324,736
38,89,2317324,1011
75,88,2318000,396
67,75,2318340,609
70,89,2318340,435
39,93,2318340,1049
69,81,2319390,675
72,95,2319390,675
43,89,2319390,1014
66,80,2320066,989
69,94,2320066,1019
42,91,2320405,1014
75,88,2321086,394
74,88,2321420,736
38,89,2321420,1011
75,88,2322096,396
67,75,2322436,609
70,89,2322436,435
39,93,2322436,1049
69,81,2323486,675
72,95,2323486,675
43,89,2323486,1014
66,80,2324162,989
69,94,2324162,1019
42,91,2324501,1014
75,88,2325182,394
74,88,2325516,736
38,89,2325516,1011
75,88,2326192,396
74,71,2326532,609
43,81,2326532,712
43,76,2327245,367
70,77,2327582,400
42,89,2327582,1014
67,79,2328597,400
41,91,2328597,1014
62,77,2329612,397
40,89,2329612,1011
70,81,2330628,435
39,93,2330628,1049
67,89,2331678,645
34,89,2331678,1014
69,88,2332354,989
33,91,2332693,1014
75,88,2333374,394
74,88,2333708,736
30,89,2333708,1011
75,88,2334384,396
70,83,2334724,609
39,93,2334724,1049
67,89,2335774,645
34,89,2335774,1014
69,88,2336450,989
33,91,2336789,1014
75,88,2337470,394
74,88,2337804,736
30,89,2337804,1011
75,88,2338480,396
70,83,2338820,609
39,93,2338820,1049
67,89,2339870,645
34,89,2339870,1014
69,88,2340546,989
33,91,2340885,1014
75,88,2341566,394
74,88,2341900,736
30,89,2341900,1011
75,88,2342576,396
74,83,2342916,609
43,81,2342916,712
43,76,2343629,367
79,89,2343966,400
42,89,2343966,1014
72,91,2344981,400
41,91,2344981,1014
70,89,2345996,397
40,89,2345996,1011
72,88,2347012,773
39,93,2347012,1049
70,83,2347725,218
34,89,2348062,1014
72,110,2348738,1353
33,91,2349077,1014
58,81,2350092,265
70,95,2350092,265
30,89,2350092,1011
60,80,2350768,396
72,94,2350768,335
61,80,2351108,773
73,94,2351108,712
36,81,2351108,712
60,80,2351821,397
72,94,2351821,336
36,76,2351821,367
58,75,2352158,574
70,89,2352158,400
34,89,2352158,400
55,83,2353173,400
67,97,2353173,400
36,91,2353173,400
62,89,2354188,397
37,89,2354188,397
53,80,2355204,773
60,80,2355204,773
65,94,2355204,712
38,93,2355204,712
54,75,2355917,218
61,75,2355917,33
66,89,2355917,131
38,88,2355917,306
42,89,2356254,645
55,102,2356930,2365
62,102,2356930,2365
67,116,2356930,2365
43,88,2356930,2365
73,88,2359300,773
39,93,2359300,1049
72,88,2360013,397
70,83,2360350,574
34,89,2360350,1014
67,91,2361365,400
33,91,2361365,1014
62,89,2362380,397
31,89,2362380,1011
73,88,2363396,773
39,93,2363396,1049
72,88,2364109,397
70,83,2364446,574
34,89,2364446,1014
67,91,2365461,400
33,91,2365461,1014
62,89,2366476,397
31,89,2366476,1011
73,88,2367492,773
39,93,2367492,1049
72,88,2368205,397
70,83,2368542,574
34,89,2368542,1014
73,88,2369557,741
39,91,2369557,1014
72,88,2370238,394
70,83,2370572,571
34,89,2370572,1011
73,88,2371588,773
39,93,2371588,1049
72,88,2372301,397
70,83,2372638,574
34,89,2372638,1014
67,91,2373653,400
33,91,2373653,1014
62,89,2374668,397
31,89,2374668,1011
65,88,2375684,773
43,81,2375684,712
66,83,2376397,218
43,76,2376397,367
42,89,2376734,1014
67,110,2377410,1353
41,91,2377749,1014
79,89,2378764,397
40,89,2378764,1011
65,88,2379780,773
43,81,2379780,712
66,83,2380493,218
43,76,2380493,367
42,89,2380830,1014
67,110,2381506,1353
41,91,2381845,1014
79,89,2382860,397
40,89,2382860,1011
65,76,2383876,712
43,81,2383876,712
65,76,2384589,397
43,76,2384589,367
67,83,2384926,574
42,89,2384926,1014
74,88,2385941,741
41,91,2385941,1014
72,80,2386622,394
79,94,2386622,333
70,88,2386956,736
40,89,2386956,1011
67,88,2387632,396
65,88,2387972,773
43,81,2387972,712
66,83,2388685,218
43,76,2388685,367
42,89,2389022,1014
67,110,2389698,2365
41,91,2390037,1014
40,89,2391052,1011
73,88,2392068,773
63,85,2392068,1049
70,99,2392068,1049
39,81,2392068,712
72,88,2392781,397
39,76,2392781,367
70,83,2393118,574
58,80,2393118,736
61,94,2393118,675
34,89,2393118,1014
57,75,2393794,220
60,89,2393794,133
67,91,2394133,400
33,91,2394133,1014
58,80,2394814,394
61,94,2394814,333
62,89,2395148,397
57,75,2395148,188
60,89,2395148,101
31,89,2395148,1011
73,88,2396164,773
63,85,2396164,1049
70,99,2396164,1049
39,81,2396164,712
72,88,2396877,397
39,76,2396877,367
70,83,2397214,574
58,80,2397214,736
61,94,2397214,675
34,89,2397214,1014
57,75,2397890,220
60,89,2397890,133
67,91,2398229,400
33,91,2398229,1014
58,80,2398910,394
61,94,2398910,333
62,89,2399244,397
57,75,2399244,188
60,89,2399244,101
31,89,2399244,1011
73,88,2400260,773
67,80,2400260,1049
70,94,2400260,1049
39,81,2400260,712
72,88,2400973,397
39,76,2400973,367
70,83,2401310,574
62,75,2401310,328
67,89,2401310,154
34,89,2401310,1014
73,88,2402325,741
60,80,2402325,741
67,94,2402325,680
39,79,2402325,680
72,88,2403006,394
58,75,2403006,215
65,89,2403006,128
39,76,2403006,364
70,83,2403340,571
34,89,2403340,1011
62,102,2404016,2404
67,116,2404016,2404
73,88,2404356,773
39,81,2404356,712
72,88,2405069,397
39,76,2405069,367
70,83,2405406,574
34,89,2405406,1014
67,91,2406421,400
33,91,2406421,1014
62,89,2407436,397
31,89,2407436,1011
65,88,2408452,773
43,81,2408452,712
66,83,2409165,218
43,76,2409165,367
42,89,2409502,1014
67,110,2410178,1353
41,91,2410517,1014
79,89,2411532,397
40,89,2411532,1011
65,88,2412548,773
43,81,2412548,712
66,83,2413261,218
43,76,2413261,367
42,89,2413598,1014
67,110,2414274,1353
41,91,2414613,1014
79,89,2415628,397
40,89,2415628,1011
65,76,2416644,712
43,81,2416644,712
65,76,2417357,397
43,76,2417357,367
67,83,2417694,574
42,89,2417694,1014
74,88,2418709,741
41,91,2418709,1014
72,80,2419390,394
79,94,2419390,333
70,88,2419724,736
40,89,2419724,1011
67,88,2420400,396
53,85,2420740,682
62,85,2420740,682
65,99,2420740,712
43,93,2420740,682
54,80,2421453,306
63,80,2421453,306
66,94,2421453,336
42,88,2421453,306
55,80,2422466,1353
64,80,2422466,1353
67,94,2422466,1353
43,88,2422466,1353
56,59,2424836,435
62,59,2424836,435
65,73,2424836,435
57,55,2425886,400
63,55,2425886,400
66,69,2425886,400
58,57,2426901,400
64,57,2426901,400
67,71,2426901,400
56,59,2428932,435
62,59,2428932,435
65,73,2428932,435
57,54,2429982,736
63,54,2429982,736
66,68,2429982,675
58,49,2430658,220
64,49,2430658,35
67,63,2430658,133
56,58,2432688,1052
62,58,2432688,1052
65,72,2432688,1052
56,42,2433741,397
62,42,2433741,397
65,56,2433741,336
57,49,2434078,574
63,49,2434078,306
66,63,2434078,400
58,57,2435093,400
64,57,2435093,400
67,71,2435093,400
53,55,2436108,397
59,55,2436108,397
62,69,2436108,397
56,54,2437124,773
62,54,2437124,773
65,68,2437124,712
57,49,2437837,218
63,49,2437837,33
66,63,2437837,131
58,54,2438850,133
64,54,2438850,103
67,68,2438850,133
56,59,2441220,435
62,59,2441220,435
65,73,2441220,435
57,55,2442270,400
63,55,2442270,400
66,69,2442270,400
58,57,2443285,400
64,57,2443285,400
67,71,2443285,400
56,59,2445316,435
62,59,2445316,435
65,73,2445316,435
57,54,2446366,736
63,54,2446366,736
66,68,2446366,675
58,49,2447042,220
64,49,2447042,35
67,63,2447042,133
56,70,2449072,1052
62,70,2449072,1052
65,84,2449072,1052
56,54,2450125,397
62,54,2450125,397
65,68,2450125,336
57,49,2450462,352
63,49,2450462,167
66,63,2450462,265
53,54,2451138,399
59,54,2451138,399
62,68,2451138,338
58,49,2451477,270
64,49,2451477,172
67,63,2451477,270
52,54,2452158,394
58,54,2452158,394
61,68,2452158,333
53,54,2452492,736
59,54,2452492,736
62,68,2452492,675
54,54,2453168,396
60,54,2453168,396
63,68,2453168,335
56,54,2453508,773
62,54,2453508,773
65,68,2453508,712
57,49,2454221,218
63,49,2454221,33
66,63,2454221,131
58,54,2455234,133
64,54,2455234,103
67,68,2455234,133
67,71,2456588,1011
79,85,2456588,1011
56,72,2457604,435
62,72,2457604,435
65,86,2457604,435
53,80,2457604,435
57,68,2458654,400
63,68,2458654,400
66,82,2458654,400
54,76,2458654,400
58,70,2459669,400
64,70,2459669,400
67,84,2459669,400
55,78,2459669,400
56,72,2461700,435
62,72,2461700,435
65,86,2461700,435
53,80,2461700,435
57,67,2462750,736
63,67,2462750,736
66,81,2462750,675
54,75,2462750,736
58,62,2463426,220
64,62,2463426,35
67,76,2463426,133
55,70,2463426,220
56,74,2465456,1052
62,74,2465456,1052
65,88,2465456,1052
53,82,2465456,1052
56,55,2466509,397
62,55,2466509,397
65,69,2466509,336
53,63,2466509,397
57,62,2466846,574
63,62,2466846,306
66,76,2466846,400
54,70,2466846,574
58,70,2467861,400
64,70,2467861,400
67,84,2467861,400
55,78,2467861,400
53,68,2468876,397
59,68,2468876,397
62,82,2468876,397
50,76,2468876,397
56,67,2469892,773
62,67,2469892,773
65,81,2469892,712
53,75,2469892,773
57,62,2470605,218
63,62,2470605,33
66,76,2470605,131
54,70,2470605,218
58,67,2471618,133
64,67,2471618,103
67,81,2471618,133
55,75,2471618,133
56,72,2473988,435
62,72,2473988,435
65,86,2473988,435
53,80,2473988,435
57,68,2475038,400
63,68,2475038,400
66,82,2475038,400
54,76,2475038,400
58,70,2476053,400
64,70,2476053,400
67,84,2476053,400
55,78,2476053,400
56,72,2478084,435
62,72,2478084,435
65,86,2478084,435
53,80,2478084,435
57,67,2479134,736
63,67,2479134,736
66,81,2479134,675
54,75,2479134,736
58,62,2479810,220
64,62,2479810,35
67,76,2479810,133
55,70,2479810,220
56,86,2481840,1052
62,86,2481840,1052
65,100,2481840,1052
53,94,2481840,1052
56,67,2482893,397
62,67,2482893,397
65,81,2482893,336
53,75,2482893,397
57,62,2483230,352
63,62,2483230,167
66,76,2483230,265
54,70,2483230,352
53,67,2483906,308
59,67,2483906,399
62,81,2483906,338
53,67,2483906,308
62,81,2483906,338
58,62,2484245,270
64,62,2484245,172
67,76,2484245,270
55,78,2484245,270
52,67,2484926,394
58,67,2484926,394
61,81,2484926,333
60,75,2484926,303
53,67,2485260,736
59,67,2485260,736
62,81,2485260,675
50,75,2485260,736
54,67,2485936,396
60,67,2485936,396
63,81,2485936,335
51,75,2485936,396
56,67,2486276,773
62,67,2486276,773
65,81,2486276,712
53,75,2486276,773
57,62,2486989,218
63,62,2486989,33
66,76,2486989,131
54,70,2486989,218
58,67,2488002,133
64,67,2488002,103
67,81,2488002,133
55,75,2488002,133
67,87,2489356,1011
79,101,2489356,1011
74,93,2490372,435
62,81,2490372,435
41,85,2490372,435
50,85,2490372,435
53,99,2490372,435
77,89,2491422,400
65,77,2491422,400
42,81,2491422,400
51,81,2491422,400
54,95,2491422,400
79,91,2492437,400
70,79,2492437,400
43,83,2492437,400
52,83,2492437,400
55,97,2492437,400
67,77,2493452,397
38,88,2493452,397
74,93,2494468,435
41,85,2494468,435
50,85,2494468,435
53,99,2494468,435
72,88,2495181,306
77,88,2495518,736
70,89,2495518,645
42,80,2495518,736
51,80,2495518,736
54,94,2495518,675
79,83,2496194,220
67,88,2496194,133
43,75,2496194,220
52,75,2496194,35
55,89,2496194,133
62,88,2497214,303
65,89,2497548,265
38,88,2497548,645
82,98,2498224,1052
72,88,2498224,1052
41,102,2498224,1052
50,102,2498224,335
53,112,2498224,1052
50,80,2498564,712
82,76,2499277,397
72,88,2499277,306
41,80,2499277,397
50,80,2499277,397
53,94,2499277,336
81,83,2499614,574
70,89,2499614,265
42,75,2499614,574
51,75,2499614,306
54,89,2499614,400
67,88,2500290,308
79,91,2500629,400
70,91,2500629,400
43,83,2500629,400
52,83,2500629,400
55,97,2500629,400
77,89,2501644,397
67,89,2501644,397
38,80,2501644,397
47,81,2501644,397
50,95,2501644,397
74,88,2502660,773
62,93,2502660,682
41,80,2502660,773
50,80,2502660,773
53,94,2502660,712
77,83,2503373,218
65,88,2503373,131
42,75,2503373,218
51,75,2503373,33
54,89,2503373,131
79,88,2504386,133
67,88,2504386,133
43,80,2504386,133
52,80,2504386,103
55,94,2504386,133
72,88,2505406,303
70,89,2505740,265
38,88,2505740,397
67,88,2506416,305
74,93,2506756,435
62,81,2506756,435
41,85,2506756,435
50,85,2506756,435
53,99,2506756,435
77,89,2507806,400
65,77,2507806,400
42,81,2507806,400
51,81,2507806,400
54,95,2507806,400
79,91,2508821,400
70,79,2508821,400
43,83,2508821,400
52,83,2508821,400
55,97,2508821,400
67,77,2509836,397
38,88,2509836,397
74,93,2510852,435
41,85,2510852,435
50,85,2510852,435
53,99,2510852,435
72,88,2511565,306
77,88,2511902,736
70,89,2511902,645
42,80,2511902,736
51,80,2511902,736
54,94,2511902,675
79,83,2512578,220
67,88,2512578,133
43,75,2512578,220
52,75,2512578,35
55,89,2512578,133
67,88,2513598,303
70,89,2513932,265
38,88,2513932,645
82,98,2514608,1052
72,88,2514608,1052
41,102,2514608,1052
50,102,2514608,335
53,112,2514608,1052
50,80,2514948,712
82,76,2515661,397
72,88,2515661,306
41,80,2515661,397
50,80,2515661,397
53,94,2515661,336
81,83,2515998,574
70,89,2515998,400
42,75,2515998,352
51,75,2515998,167
54,89,2515998,265
38,79,2516674,399
47,80,2516674,399
50,94,2516674,338
79,91,2517013,400
72,91,2517013,400
43,75,2517013,357
52,75,2517013,172
55,89,2517013,270
37,79,2517694,394
46,80,2517694,394
49,94,2517694,333
77,89,2518028,397
70,89,2518028,397
38,79,2518028,736
47,80,2518028,736
50,94,2518028,675
39,79,2518704,396
48,80,2518704,396
51,94,2518704,335
74,88,2519044,773
62,93,2519044,682
41,80,2519044,773
50,80,2519044,773
53,94,2519044,712
77,83,2519757,218
65,88,2519757,131
42,75,2519757,218
51,75,2519757,33
54,89,2519757,131
79,88,2520770,133
67,88,2520770,133
43,80,2520770,133
52,80,2520770,103
55,94,2520770,133
70,81,2522124,645
74,81,2522124,645
79,95,2522124,675
67,85,2523140,2064
79,99,2523140,2064
43,81,2523140,712
43,76,2523853,367
42,89,2524190,1014
41,91,2525205,1014
40,89,2526220,1011
39,93,2527236,1049
61,102,2527949,1351
73,116,2527949,1351
34,89,2528286,1014
60,83,2529301,650
72,97,2529301,680
33,91,2529301,1014
58,80,2529982,303
70,94,2529982,333
55,81,2530316,1698
67,95,2530316,1728
30,89,2530316,1011
43,81,2531332,712
73,88,2532045,306
43,76,2532045,367
72,89,2532382,645
42,89,2532382,1014
70,88,2533058,308
72,91,2533397,650
41,91,2533397,1014
73,88,2534078,303
65,89,2534412,645
40,89,2534412,1011
67,88,2535088,305
70,93,2535428,682
39,93,2535428,1049
67,88,2536141,306
65,89,2536478,645
43,89,2536478,1014
79,88,2537154,830
42,91,2537493,1014
77,88,2537728,128
79,88,2537856,128
77,83,2538163,246
73,89,2538508,319
38,89,2538508,1011
72,88,2538848,309
70,88,2539178,341
67,85,2539524,2064
70,99,2539524,2064
43,81,2539524,712
43,76,2540237,367
42,89,2540574,1014
69,83,2541589,2026
72,97,2541589,2026
41,91,2541589,1014
40,89,2542604,1011
70,85,2543620,2064
74,99,2543620,2064
39,93,2543620,1049
34,89,2544670,1014
69,83,2545685,2026
75,97,2545685,2026
33,91,2545685,1014
30,89,2546700,1011
70,85,2547716,435
74,99,2547716,435
34,81,2547716,712
34,76,2548429,367
60,81,2548766,400
67,95,2548766,400
31,89,2548766,1014
74,83,2549781,400
79,97,2549781,400
34,91,2549781,1014
63,81,2550796,397
67,95,2550796,397
36,89,2550796,1011
78,93,2551812,682
67,93,2551812,682
38,93,2551812,1049
75,88,2552525,398
69,88,2552525,398
40,89,2552862,1014
74,110,2553538,989
66,110,2553538,2365
42,91,2553877,1014
75,88,2554558,394
74,88,2554892,736
38,89,2554892,1011
75,88,2555568,396
74,71,2555908,609
43,81,2555908,712
43,76,2556621,367
70,77,2556958,400
42,89,2556958,1014
67,79,2557973,400
41,91,2557973,1014
62,77,2558988,397
40,89,2558988,1011
70,81,2560004,435
39,93,2560004,1049
67,89,2561054,645
34,89,2561054,1014
69,88,2561730,989
33,91,2562069,1014
75,88,2562750,394
74,88,2563084,736
30,89,2563084,1011
75,88,2563760,396
70,83,2564100,609
39,93,2564100,1049
67,89,2565150,645
34,89,2565150,1014
69,88,2565826,989
33,91,2566165,1014
75,88,2566846,394
74,88,2567180,736
30,89,2567180,1011
75,88,2567856,396
70,83,2568196,609
39,93,2568196,1049
67,89,2569246,645
34,89,2569246,1014
69,88,2569922,989
33,91,2570261,1014
72,80,2570942,394
75,94,2570942,333
70,80,2571276,736
74,94,2571276,675
30,89,2571276,1011
72,80,2571952,396
75,94,2571952,335
70,80,2572292,712
74,94,2572292,712
43,81,2572292,712
70,80,2573005,336
74,94,2573005,336
43,76,2573005,367
67,75,2573342,400
70,89,2573342,400
42,89,2573342,1014
62,83,2574357,400
67,97,2574357,400
41,91,2574357,1014
58,81,2575372,397
62,95,2575372,397
40,89,2575372,1011
67,85,2576388,435
70,99,2576388,435
39,93,2576388,1049
69,81,2577438,675
72,95,2577438,675
43,89,2577438,1014
66,80,2578114,989
69,94,2578114,1019
42,91,2578453,1014
75,88,2579134,394
74,88,2579468,736
38,89,2579468,1011
75,88,2580144,396
67,75,2580484,609
70,89,2580484,435
39,93,2580484,1049
69,81,2581534,675
72,95,2581534,675
43,89,2581534,1014
66,80,2582210,989
69,94,2582210,1019
42,91,2582549,1014
75,88,2583230,394
74,88,2583564,736
38,89,2583564,1011
75,88,2584240,396
67,75,2584580,609
70,89,2584580,435
39,93,2584580,1049
69,81,2585630,675
72,95,2585630,675
43,89,2585630,1014
66,80,2586306,989
69,94,2586306,1019
42,91,2586645,1014
75,88,2587326,394
74,88,2587660,736
38,89,2587660,1011
75,88,2588336,396
74,71,2588676,609
43,81,2588676,712
43,76,2589389,367
70,77,2589726,400
42,89,2589726,1014
67,79,2590741,400
41,91,2590741,1014
62,77,2591756,397
40,89,2591756,1011
70,81,2592772,435
39,93,2592772,1049
67,89,2593822,645
34,89,2593822,1014
69,88,2594498,989
33,91,2594837,1014
75,88,2595518,394
74,88,2595852,736
30,89,2595852,1011
75,88,2596528,396
70,83,2596868,609
39,93,2596868,1049
67,89,2597918,645
34,89,2597918,1014
69,88,2598594,989
33,91,2598933,1014
75,88,2599614,394
74,88,2599948,736
30,89,2599948,1011
75,88,2600624,396
70,83,2600964,609
39,93,2600964,1049
67,89,2602014,645
34,89,2602014,1014
69,88,2602690,989
33,91,2603029,1014
75,88,2603710,394
74,88,2604044,736
30,89,2604044,1011
75,88,2604720,396
74,83,2605060,609
43,81,2605060,712
43,76,2605773,367
79,89,2606110,400
42,89,2606110,1014
72,91,2607125,400
41,91,2607125,1014
70,89,2608140,397
40,89,2608140,1011
72,88,2609156,773
39,93,2609156,1049
70,83,2609869,218
34,89,2610206,1014
72,110,2610882,1353
33,91,2611221,1014
58,81,2612236,265
70,95,2612236,265
30,89,2612236,1011
60,80,2612912,396
72,94,2612912,335
61,80,2613252,773
73,94,2613252,712
36,81,2613252,712
60,80,2613965,397
72,94,2613965,336
36,76,2613965,367
58,75,2614302,574
70,89,2614302,400
34,89,2614302,400
55,83,2615317,400
67,97,2615317,400
36,91,2615317,400
62,89,2616332,397
37,89,2616332,397
53,80,2617348,773
60,80,2617348,773
65,94,2617348,712
38,93,2617348,712
54,75,2618061,218
61,75,2618061,33
66,89,2618061,131
38,88,2618061,306
42,89,2618398,645
55,102,2619074,2365
62,102,2619074,2365
67,116,2619074,2365
43,88,2619074,2365
73,88,2621444,773
39,93,2621444,1049
72,88,2622157,397
70,83,2622494,574
34,89,2622494,1014
67,91,2623509,400
33,91,2623509,1014
62,89,2624524,397
31,89,2624524,1011
73,88,2625540,773
39,93,2625540,1049
72,88,2626253,397
70,83,2626590,574
34,89,2626590,1014
67,91,2627605,400
33,91,2627605,1014
62,89,2628620,397
31,89,2628620,1011
73,88,2629636,773
39,93,2629636,1049
72,88,2630349,397
70,83,2630686,574
34,89,2630686,1014
73,88,2631701,741
39,91,2631701,1014
72,88,2632382,394
70,83,2632716,571
34,89,2632716,1011
73,88,2633732,773
39,93,2633732,1049
72,88,2634445,397
70,83,2634782,574
34,89,2634782,1014
67,91,2635797,400
33,91,2635797,1014
62,89,2636812,397
31,89,2636812,1011
65,88,2637828,773
43,81,2637828,712
66,83,2638541,218
43,76,2638541,367
42,89,2638878,1014
67,110,2639554,1353
41,91,2639893,1014
79,89,2640908,397
40,89,2640908,1011
65,88,2641924,773
43,81,2641924,712
66,83,2642637,218
43,76,2642637,367
42,89,2642974,1014
67,110,2643650,1353
41,91,2643989,1014
79,89,2645004,397
40,89,2645004,1011
65,76,2646020,712
43,81,2646020,712
65,76,2646733,397
43,76,2646733,367
67,83,2647070,574
42,89,2647070,1014
74,88,2648085,741
41,91,2648085,1014
72,80,2648766,394
79,94,2648766,333
70,88,2649100,736
40,89,2649100,1011
67,88,2649776,396
65,88,2650116,773
43,81,2650116,712
66,83,2650829,218
43,76,2650829,367
42,89,2651166,1014
67,110,2651842,2365
41,91,2652181,1014
40,89,2653196,1011
73,88,2654212,773
63,85,2654212,1049
70,99,2654212,1049
39,81,2654212,712
72,88,2654925,397
39,76,2654925,367
70,83,2655262,574
58,80,2655262,736
61,94,2655262,675
34,89,2655262,1014
57,75,2655938,220
60,89,2655938,133
67,91,2656277,400
33,91,2656277,1014
58,80,2656958,394
61,94,2656958,333
62,89,2657292,397
57,75,2657292,188
60,89,2657292,101
31,89,2657292,1011
73,88,2658308,773
63,85,2658308,1049
70,99,2658308,1049
39,81,2658308,712
72,88,2659021,397
39,76,2659021,367
70,83,2659358,574
58,80,2659358,736
61,94,2659358,675
34,89,2659358,1014
57,75,2660034,220
60,89,2660034,133
67,91,2660373,400
33,91,2660373,1014
58,80,2661054,394
61,94,2661054,333
62,89,2661388,397
57,75,2661388,188
60,89,2661388,101
31,89,2661388,1011
73,88,2662404,773
67,80,2662404,1049
70,94,2662404,1049
39,81,2662404,712
72,88,2663117,397
39,76,2663117,367
70,83,2663454,574
62,75,2663454,328
67,89,2663454,154
34,89,2663454,1014
73,88,2664469,741
60,80,2664469,741
67,94,2664469,680
39,79,2664469,680
72,88,2665150,394
58,75,2665150,215
65,89,2665150,128
39,76,2665150,364
70,83,2665484,571
34,89,2665484,1011
62,102,2666160,2404
67,116,2666160,2404
73,88,2666500,773
39,81,2666500,712
72,88,2667213,397
39,76,2667213,367
70,83,2667550,574
34,89,2667550,1014
67,91,2668565,400
33,91,2668565,1014
62,89,2669580,397
31,89,2669580,1011
65,88,2670596,773
43,81,2670596,712
66,83,2671309,218
43,76,2671309,367
42,89,2671646,1014
67,110,2672322,1353
41,91,2672661,1014
79,89,2673676,397
40,89,2673676,1011
65,88,2674692,773
43,81,2674692,712
66,83,2675405,218
43,76,2675405,367
42,89,2675742,1014
67,110,2676418,1353
41,91,2676757,1014
79,89,2677772,397
40,89,2677772,1011
65,76,2678788,712
43,81,2678788,712
65,76,2679501,397
43,76,2679501,367
67,83,2679838,574
42,89,2679838,1014
74,88,2680853,741
41,91,2680853,1014
72,80,2681534,394
79,94,2681534,333
70,88,2681868,736
40,89,2681868,1011
67,88,2682544,396
53,85,2682884,682
62,85,2682884,682
65,99,2682884,712
43,93,2682884,682
54,80,2683597,306
63,80,2683597,306
66,94,2683597,336
42,88,2683597,306
55,80,2684610,1353
64,80,2684610,1353
67,94,2684610,1353
43,88,2684610,1353
56,59,2686980,435
62,59,2686980,435
65,73,2686980,435
57,55,2688030,400
63,55,2688030,400
66,69,2688030,400
58,57,2689045,400
64,57,2689045,400
67,71,2689045,400
56,59,2691076,435
62,59,2691076,435
65,73,2691076,435
57,54,2692126,736
63,54,2692126,736
66,68,2692126,675
58,49,2692802,220
64,49,2692802,35
67,63,2692802,133
56,58,2694832,1052
62,58,2694832,1052
65,72,2694832,1052
56,42,2695885,397
62,42,2695885,397
65,56,2695885,336
57,49,2696222,574
63,49,2696222,306
66,63,2696222,400
58,57,2697237,400
64,57,2697237,400
67,71,2697237,400
53,55,2698252,397
59,55,2698252,397
62,69,2698252,397
56,54,2699268,773
62,54,2699268,773
65,68,2699268,712
57,49,2699981,218
63,49,2699981,33
66,63,2699981,131
58,54,2700994,133
64,54,2700994,103
67,68,2700994,133
56,59,2703364,435
62,59,2703364,435
65,73,2703364,435
57,55,2704414,400
63,55,2704414,400
66,69,2704414,400
58,57,2705429,400
64,57,2705429,400
67,71,2705429,400
56,59,2707460,435
62,59,2707460,435
65,73,2707460,435
57,54,2708510,736
63,54,2708510,736
66,68,2708510,675
58,49,2709186,220
64,49,2709186,35
67,63,2709186,133
56,70,2711216,1052
62,70,2711216,1052
65,84,2711216,1052
56,54,2712269,397
62,54,2712269,397
65,68,2712269,336
57,49,2712606,352
63,49,2712606,167
66,63,2712606,265
53,54,2713282,399
59,54,2713282,399
62,68,2713282,338
58,49,2713621,270
64,49,2713621,172
67,63,2713621,270
52,54,2714302,394
58,54,2714302,394
61,68,2714302,333
53,54,2714636,736
59,54,2714636,736
62,68,2714636,675
54,54,2715312,396
60,54,2715312,396
63,68,2715312,335
56,54,2715652,773
62,54,2715652,773
65,68,2715652,712
57,49,2716365,218
63,49,2716365,33
66,63,2716365,131
58,54,2717378,133
64,54,2717378,103
67,68,2717378,133
67,71,2718732,1011
79,85,2718732,1011
56,72,2719748,435
62,72,2719748,435
65,86,2719748,435
53,80,2719748,435
57,68,2720798,400
63,68,2720798,400
66,82,2720798,400
54,76,2720798,400
58,70,2721813,400
64,70,2721813,400
67,84,2721813,400
55,78,2721813,400
56,72,2723844,435
62,72,2723844,435
65,86,2723844,435
53,80,2723844,435
57,67,2724894,736
63,67,2724894,736
66,81,2724894,675
54,75,2724894,736
58,62,2725570,220
64,62,2725570,35
67,76,2725570,133
55,70,2725570,220
56,74,2727600,1052
62,74,2727600,1052
65,88,2727600,1052
53,82,2727600,1052
56,55,2728653,397
62,55,2728653,397
65,69,2728653,336
53,63,2728653,397
57,62,2728990,574
63,62,2728990,306
66,76,2728990,400
54,70,2728990,574
58,70,2730005,400
64,70,2730005,400
67,84,2730005,400
55,78,2730005,400
53,68,2731020,397
59,68,2731020,397
62,82,2731020,397
50,76,2731020,397
56,67,2732036,773
62,67,2732036,773
65,81,2732036,712
53,75,2732036,773
57,62,2732749,218
63,62,2732749,33
66,76,2732749,131
54,70,2732749,218
58,67,2733762,133
64,67,2733762,103
67,81,2733762,133
55,75,2733762,133
56,72,2736132,435
62,72,2736132,435
65,86,2736132,435
53,80,2736132,435
57,68,2737182,400
63,68,2737182,400
66,82,2737182,400
54,76,2737182,400
58,70,2738197,400
64,70,2738197,400
67,84,2738197,400
55,78,2738197,400
56,72,2740228,435
62,72,2740228,435
65,86,2740228,435
53,80,2740228,435
57,67,2741278,736
63,67,2741278,736
66,81,2741278,675
54,75,2741278,736
58,62,2741954,220
64,62,2741954,35
67,76,2741954,133
55,70,2741954,220
56,86,2743984,1052
62,86,2743984,1052
65,100,2743984,1052
53,94,2743984,1052
56,67,2745037,397
62,67,2745037,397
65,81,2745037,336
53,75,2745037,397
57,62,2745374,352
63,62,2745374,167
66,76,2745374,265
54,70,2745374,352
53,67,2746050,308
59,67,2746050,399
62,81,2746050,338
53,67,2746050,308
62,81,2746050,338
58,62,2746389,270
64,62,2746389,172
67,76,2746389,270
55,78,2746389,270
52,67,2747070,394
58,67,2747070,394
61,81,2747070,333
60,75,2747070,303
53,67,2747404,736
59,67,2747404,736
62,81,2747404,675
50,75,2747404,736
54,67,2748080,396
60,67,2748080,396
63,81,2748080,335
51,75,2748080,396
56,67,2748420,773
62,67,2748420,773
65,81,2748420,712
53,75,2748420,773
57,62,2749133,218
63,62,2749133,33
66,76,2749133,131
54,70,2749133,218
58,67,2750146,133
64,67,2750146,103
67,81,2750146,133
55,75,2750146,133
67,87,2751500,1011
79,101,2751500,1011
74,93,2752516,435
62,81,2752516,435
41,85,2752516,435
50,85,2752516,435
53,99,2752516,435
77,89,2753566,400
65,77,2753566,400
42,81,2753566,400
51,81,2753566,400
54,95,2753566,400
79,91,2754581,400
70,79,2754581,400
43,83,2754581,400
52,83,2754581,400
55,97,2754581,400
67,77,2755596,397
38,88,2755596,397
74,93,2756612,435
41,85,2756612,435
50,85,2756612,435
53,99,2756612,435
72,88,2757325,306
77,88,2757662,736
70,89,2757662,645
42,80,2757662,736
51,80,2757662,736
54,94,2757662,675
79,83,2758338,220
67,88,2758338,133
43,75,2758338,220
52,75,2758338,35
55,89,2758338,133
62,88,2759358,303
65,89,2759692,265
38,88,2759692,645
82,98,2760368,1052
72,88,2760368,1052
41,102,2760368,1052
50,102,2760368,335
53,112,2760368,1052
50,80,2760708,712
82,76,2761421,397
72,88,2761421,306
41,80,2761421,397
50,80,2761421,397
53,94,2761421,336
81,83,2761758,574
70,89,2761758,265
42,75,2761758,574
51,75,2761758,306
54,89,2761758,400
67,88,2762434,308
79,91,2762773,400
70,91,2762773,400
43,83,2762773,400
52,83,2762773,400
55,97,2762773,400
77,89,2763788,397
67,89,2763788,397
38,80,2763788,397
47,81,2763788,397
50,95,2763788,397
74,88,2764804,773
62,93,2764804,682
41,80,2764804,773
50,80,2764804,773
53,94,2764804,712
77,83,2765517,218
65,88,2765517,131
42,75,2765517,218
51,75,2765517,33
54,89,2765517,131
79,88,2766530,133
67,88,2766530,133
43,80,2766530,133
52,80,2766530,103
55,94,2766530,133
72,88,2767550,303
70,89,2767884,265
38,88,2767884,397
67,88,2768560,305
74,93,2768900,435
62,81,2768900,435
41,85,2768900,435
50,85,2768900,435
53,99,2768900,435
77,89,2769950,400
65,77,2769950,400
42,81,2769950,400
51,81,2769950,400
54,95,2769950,400
79,91,2770965,400
70,79,2770965,400
43,83,2770965,400
52,83,2770965,400
55,97,2770965,400
67,77,2771980,397
38,88,2771980,397
74,93,2772996,435
41,85,2772996,435
50,85,2772996,435
53,99,2772996,435
72,88,2773709,306
77,88,2774046,736
70,89,2774046,645
42,80,2774046,736
51,80,2774046,736
54,94,2774046,675
79,83,2774722,220
67,88,2774722,133
43,75,2774722,220
52,75,2774722,35
55,89,2774722,133
67,88,2775742,303
70,89,2776076,265
38,88,2776076,645
82,98,2776752,1052
72,88,2776752,1052
41,102,2776752,1052
50,102,2776752,335
53,112,2776752,1052
50,80,2777092,712
82,76,2777805,397
72,88,2777805,306
41,80,2777805,397
50,80,2777805,397
53,94,2777805,336
81,83,2778142,574
70,89,2778142,400
42,75,2778142,352
51,75,2778142,167
54,89,2778142,265
38,79,2778818,399
47,80,2778818,399
50,94,2778818,338
79,91,2779157,400
72,91,2779157,400
43,75,2779157,357
52,75,2779157,172
55,89,2779157,270
37,79,2779838,394
46,80,2779838,394
49,94,2779838,333
77,89,2780172,397
70,89,2780172,397
38,79,2780172,736
47,80,2780172,736
50,94,2780172,675
39,79,2780848,396
48,80,2780848,396
51,94,2780848,335
74,88,2781188,773
62,93,2781188,682
41,80,2781188,773
50,80,2781188,773
53,94,2781188,712
77,83,2781901,218
65,88,2781901,131
42,75,2781901,218
51,75,2781901,33
54,89,2781901,131
79,88,2782914,133
67,88,2782914,133
43,80,2782914,133
52,80,2782914,103
55,94,2782914,133
70,81,2784268,645
74,81,2784268,645
79,95,2784268,675
67,85,2785284,2064
79,99,2785284,2064
43,81,2785284,712
43,76,2785997,367
42,89,2786334,1014
41,91,2787349,1014
40,89,2788364,1011
39,93,2789380,1049
61,102,2790093,1351
73,116,2790093,1351
34,89,2790430,1014
60,83,2791445,650
72,97,2791445,680
33,91,2791445,1014
58,80,2792126,303
70,94,2792126,333
55,81,2792460,1698
67,95,2792460,1728
30,89,2792460,1011
43,81,2793476,712
73,88,2794189,306
43,76,2794189,367
72,89,2794526,645
42,89,2794526,1014
70,88,2795202,308
72,91,2795541,650
41,91,2795541,1014
73,88,2796222,303
65,89,2796556,645
40,89,2796556,1011
67,88,2797232,305
70,93,2797572,682
39,93,2797572,1049
67,88,2798285,306
65,89,2798622,645
43,89,2798622,1014
79,88,2799298,830
42,91,2799637,1014
77,88,2799872,128
79,88,2800000,128
77,83,2800307,246
73,89,2800652,319
38,89,2800652,1011
72,88,2800992,309
70,88,2801322,341
67,85,2801668,2064
70,99,2801668,2064
43,81,2801668,712
43,76,2802381,367
42,89,2802718,1014
69,83,2803733,2026
72,97,2803733,2026
41,91,2803733,1014
40,89,2804748,1011
70,85,2805764,2064
74,99,2805764,2064
39,93,2805764,1049
34,89,2806814,1014
69,83,2807829,2026
75,97,2807829,2026
33,91,2807829,1014
30,89,2808844,1011
70,85,2809860,435
74,99,2809860,435
34,81,2809860,712
34,76,2810573,367
60,81,2810910,400
67,95,2810910,400
31,89,2810910,1014
74,83,2811925,400
79,97,2811925,400
34,91,2811925,1014
63,81,2812940,397
67,95,2812940,397
36,89,2812940,1011
78,93,2813956,682
67,93,2813956,682
38,93,2813956,1049
75,88,2814669,398
69,88,2814669,398
40,89,2815006,1014
74,110,2815682,989
66,110,2815682,2365
42,91,2816021,1014
75,88,2816702,394
74,88,2817036,736
38,89,2817036,1011
75,88,2817712,396
74,71,2818052,609
43,81,2818052,712
43,76,2818765,367
70,77,2819102,400
42,89,2819102,1014
67,79,2820117,400
41,91,2820117,1014
62,77,2821132,397
40,89,2821132,1011
70,81,2822148,435
39,93,2822148,1049
67,89,2823198,645
34,89,2823198,1014
69,88,2823874,989
33,91,2824213,1014
75,88,2824894,394
74,88,2825228,736
30,89,2825228,1011
75,88,2825904,396
70,83,2826244,609
39,93,2826244,1049
67,89,2827294,645
34,89,2827294,1014
69,88,2827970,989
33,91,2828309,1014
75,88,2828990,394
74,88,2829324,736
30,89,2829324,1011
75,88,2830000,396
70,83,2830340,609
39,93,2830340,1049
67,89,2831390,645
34,89,2831390,1014
69,88,2832066,989
33,91,2832405,1014
72,80,2833086,394
75,94,2833086,333
70,80,2833420,736
74,94,2833420,675
30,89,2833420,1011
72,80,2834096,396
75,94,2834096,335
70,80,2834436,712
74,94,2834436,712
43,81,2834436,712
70,80,2835149,336
74,94,2835149,336
43,76,2835149,367
67,75,2835486,400
70,89,2835486,400
42,89,2835486,1014
62,83,2836501,400
67,97,2836501,400
41,91,2836501,1014
58,81,2837516,397
62,95,2837516,397
40,89,2837516,1011
67,85,2838532,435
70,99,2838532,435
39,93,2838532,1049
69,81,2839582,675
72,95,2839582,675
43,89,2839582,1014
66,80,2840258,989
69,94,2840258,1019
42,91,2840597,1014
75,88,2841278,394
74,88,2841612,736
38,89,2841612,1011
75,88,2842288,396
67,75,2842628,609
70,89,2842628,435
39,93,2842628,1049
69,81,2843678,675
72,95,2843678,675
43,89,2843678,1014
66,80,2844354,989
69,94,2844354,1019
42,91,2844693,1014
75,88,2845374,394
74,88,2845708,736
38,89,2845708,1011
75,88,2846384,396
67,75,2846724,609
70,89,2846724,435
39,93,2846724,1049
69,81,2847774,675
72,95,2847774,675
43,89,2847774,1014
66,80,2848450,989
69,94,2848450,1019
42,91,2848789,1014
75,88,2849470,394
74,88,2849804,736
38,89,2849804,1011
75,88,2850480,396
74,71,2850820,609
43,81,2850820,712
43,76,2851533,367
70,77,2851870,400
42,89,2851870,1014
67,79,2852885,400
41,91,2852885,1014
62,77,2853900,397
40,89,2853900,1011
70,81,2854916,435
39,93,2854916,1049
67,89,2855966,645
34,89,2855966,1014
69,88,2856642,989
33,91,2856981,1014
75,88,2857662,394
74,88,2857996,736
30,89,2857996,1011
75,88,2858672,396
70,83,2859012,609
39,93,2859012,1049
67,89,2860062,645
34,89,2860062,1014
69,88,2860738,989
33,91,2861077,1014
75,88,2861758,394
74,88,2862092,736
30,89,2862092,1011
75,88,2862768,396
70,83,2863108,609
39,93,2863108,1049
67,89,2864158,645
34,89,2864158,1014
69,88,2864834,989
33,91,2865173,1014
75,88,2865854,394
74,88,2866188,736
30,89,2866188,1011
75,88,2866864,396
74,83,2867204,609
43,81,2867204,712
43,76,2867917,367
79,89,2868254,400
42,89,2868254,1014
72,91,2869269,400
41,91,2869269,1014
70,89,2870284,397
40,89,2870284,1011
72,88,2871300,773
39,93,2871300,1049
70,83,2872013,218
34,89,2872350,1014
72,110,2873026,1353
33,91,2873365,1014
58,81,2874380,265
70,95,2874380,265
30,89,2874380,1011
60,80,2875056,396
72,94,2875056,335
61,80,2875396,773
73,94,2875396,712
36,81,2875396,712
60,80,2876109,397
72,94,2876109,336
36,76,2876109,367
58,75,2876446,574
70,89,2876446,400
34,89,2876446,400
55,83,2877461,400
67,97,2877461,400
36,91,2877461,400
62,89,2878476,397
37,89,2878476,397
53,80,2879492,773
60,80,2879492,773
65,94,2879492,712
38,93,2879492,712
54,75,2880205,218
61,75,2880205,33
66,89,2880205,131
38,88,2880205,306
42,89,2880542,645
55,102,2881218,2365
62,102,2881218,2365
67,116,2881218,2365
43,88,2881218,2365
73,88,2883588,773
39,93,2883588,1049
72,88,2884301,397
70,83,2884638,574
34,89,2884638,1014
67,91,2885653,400
33,91,2885653,1014
62,89,2886668,397
31,89,2886668,1011
73,88,2887684,773
39,93,2887684,1049
72,88,2888397,397
70,83,2888734,574
34,89,2888734,1014
67,91,2889749,400
33,91,2889749,1014
62,89,2890764,397
31,89,2890764,1011
73,88,2891780,773
39,93,2891780,1049
72,88,2892493,397
70,83,2892830,574
34,89,2892830,1014
73,88,2893845,741
39,91,2893845,1014
72,88,2894526,394
70,83,2894860,571
34,89,2894860,1011
73,88,2895876,773
39,93,2895876,1049
72,88,2896589,397
70,83,2896926,574
34,89,2896926,1014
67,91,2897941,400
33,91,2897941,1014
62,89,2898956,397
31,89,2898956,1011
65,88,2899972,773
43,81,2899972,712
66,83,2900685,218
43,76,2900685,367
42,89,2901022,1014
67,110,2901698,1353
41,91,2902037,1014
79,89,2903052,397
40,89,2903052,1011
65,88,2904068,773
43,81,2904068,712
66,83,2904781,218
43,76,2904781,367
42,89,2905118,1014
67,110,2905794,1353
41,91,2906133,1014
79,89,2907148,397
40,89,2907148,1011
65,76,2908164,712
43,81,2908164,712
65,76,2908877,397
43,76,2908877,367
67,83,2909214,574
42,89,2909214,1014
74,88,2910229,741
41,91,2910229,1014
72,80,2910910,394
79,94,2910910,333
70,88,2911244,736
40,89,2911244,1011
67,88,2911920,396
65,88,2912260,773
43,81,2912260,712
66,83,2912973,218
43,76,2912973,367
42,89,2913310,1014
67,110,2913986,2365
41,91,2914325,1014
40,89,2915340,1011
73,88,2916356,773
63,85,2916356,1049
70,99,2916356,1049
39,81,2916356,712
72,88,2917069,397
39,76,2917069,367
70,83,2917406,574
58,80,2917406,736
61,94,2917406,675
34,89,2917406,1014
57,75,2918082,220
60,89,2918082,133
67,91,2918421,400
33,91,2918421,1014
58,80,2919102,394
61,94,2919102,333
62,89,2919436,397
57,75,2919436,188
60,89,2919436,101
31,89,2919436,1011
73,88,2920452,773
63,85,2920452,1049
70,99,2920452,1049
39,81,2920452,712
72,88,2921165,397
39,76,2921165,367
70,83,2921502,574
58,80,2921502,736
61,94,2921502,675
34,89,2921502,1014
57,75,2922178,220
60,89,2922178,133
67,91,2922517,400
33,91,2922517,1014
58,80,2923198,394
61,94,2923198,333
62,89,2923532,397
57,75,2923532,188
60,89,2923532,101
31,89,2923532,1011
73,88,2924548,773
67,80,2924548,1049
70,94,2924548,1049
39,81,2924548,712
72,88,2925261,397
39,76,2925261,367
70,83,2925598,574
62,75,2925598,328
67,89,2925598,154
34,89,2925598,1014
73,88,2926613,741
60,80,2926613,741
67,94,2926613,680
39,79,2926613,680
72,88,2927294,394
58,75,2927294,215
65,89,2927294,128
39,76,2927294,364
70,83,2927628,571
34,89,2927628,1011
62,102,2928304,2404
67,116,2928304,2404
73,88,2928644,773
39,81,2928644,712
72,88,2929357,397
39,76,2929357,367
70,83,2929694,574
34,89,2929694,1014
67,91,2930709,400
33,91,2930709,1014
62,89,2931724,397
31,89,2931724,1011
65,88,2932740,773
43,81,2932740,712
66,83,2933453,218
43,76,2933453,367
42,89,2933790,1014
67,110,2934466,1353
41,91,2934805,1014
79,89,2935820,397
40,89,2935820,1011
65,88,2936836,773
43,81,2936836,712
66,83,2937549,218
43,76,2937549,367
42,89,2937886,1014
67,110,2938562,1353
41,91,2938901,1014
79,89,2939916,397
40,89,2939916,1011
65,76,2940932,712
43,81,2940932,712
65,76,2941645,397
43,76,2941645,367
67,83,2941982,574
42,89,2941982,1014
74,88,2942997,741
41,91,2942997,1014
72,80,2943678,394
79,94,2943678,333
70,88,2944012,736
40,89,2944012,1011
67,88,2944688,396
53,85,2945028,682
62,85,2945028,682
65,99,2945028,712
43,93,2945028,682
54,80,2945741,306
63,80,2945741,306
66,94,2945741,336
42,88,2945741,306
55,80,2946754,1353
64,80,2946754,1353
67,94,2946754,1353
43,88,2946754,1353
56,59,2949124,435
62,59,2949124,435
65,73,2949124,435
57,55,2950174,400
63,55,2950174,400
66,69,2950174,400
58,57,2951189,400
64,57,2951189,400
67,71,2951189,400
56,59,2953220,435
62,59,2953220,435
65,73,2953220,435
57,54,2954270,736
63,54,2954270,736
66,68,2954270,675
58,49,2954946,220
64,49,2954946,35
67,63,2954946,133
56,58,2956976,1052
62,58,2956976,1052
65,72,2956976,1052
56,42,2958029,397
62,42,2958029,397
65,56,2958029,336
57,49,2958366,574
63,49,2958366,306
66,63,2958366,400
58,57,2959381,400
64,57,2959381,400
67,71,2959381,400
53,55,2960396,397
59,55,2960396,397
62,69,2960396,397
56,54,2961412,773
62,54,2961412,773
65,68,2961412,712
57,49,2962125,218
63,49,2962125,33
66,63,2962125,131
58,54,2963138,133
64,54,2963138,103
67,68,2963138,133
56,59,2965508,435
62,59,2965508,435
65,73,2965508,435
57,55,2966558,400
63,55,2966558,400
66,69,2966558,400
58,57,2967573,400
64,57,2967573,400
67,71,2967573,400
56,59,2969604,435
62,59,2969604,435
65,73,2969604,435
57,54,2970654,736
63,54,2970654,736
66,68,2970654,675
58,49,2971330,220
64,49,2971330,35
67,63,2971330,133
56,70,2973360,1052
62,70,2973360,1052
65,84,2973360,1052
56,54,2974413,397
62,54,2974413,397
65,68,2974413,336
57,49,2974750,352
63,49,2974750,167
66,63,2974750,265
53,54,2975426,399
59,54,2975426,399
62,68,2975426,338
58,49,2975765,270
64,49,2975765,172
67,63,2975765,270
52,54,2976446,394
58,54,2976446,394
61,68,2976446,333
53,54,2976780,736
59,54,2976780,736
62,68,2976780,675
54,54,2977456,396
60,54,2977456,396
63,68,2977456,335
56,54,2977796,773
62,54,2977796,773
65,68,2977796,712
57,49,2978509,218
63,49,2978509,33
66,63,2978509,131
58,54,2979522,133
64,54,2979522,103
67,68,2979522,133
67,71,2980876,1011
79,85,2980876,1011
56,72,2981892,435
62,72,2981892,435
65,86,2981892,435
53,80,2981892,435
57,68,2982942,400
63,68,2982942,400
66,82,2982942,400
54,76,2982942,400
58,70,2983957,400
64,70,2983957,400
67,84,2983957,400
55,78,2983957,400
56,72,2985988,435
62,72,2985988,435
65,86,2985988,435
53,80,2985988,435
57,67,2987038,736
63,67,2987038,736
66,81,2987038,675
54,75,2987038,736
58,62,2987714,220
64,62,2987714,35
67,76,2987714,133
55,70,2987714,220
56,74,2989744,1052
62,74,2989744,1052
65,88,2989744,1052
53,82,2989744,1052
56,55,2990797,397
62,55,2990797,397
65,69,2990797,336
53,63,2990797,397
57,62,2991134,574
63,62,2991134,306
66,76,2991134,400
54,70,2991134,574
58,70,2992149,400
64,70,2992149,400
67,84,2992149,400
55,78,2992149,400
53,68,2993164,397
59,68,2993164,397
62,82,2993164,397
50,76,2993164,397
56,67,2994180,773
62,67,2994180,773
65,81,2994180,712
53,75,2994180,773
57,62,2994893,218
63,62,2994893,33
66,76,2994893,131
54,70,2994893,218
58,67,2995906,133
64,67,2995906,103
67,81,2995906,133
55,75,2995906,133
56,72,2998276,435
62,72,2998276,435
65,86,2998276,435
53,80,2998276,435
57,68,2999326,400
63,68,2999326,400
66,82,2999326,400
54,76,2999326,400
58,70,3000341,400
64,70,3000341,400
67,84,3000341,400
55,78,3000341,400
56,72,3002372,435
62,72,3002372,435
65,86,3002372,435
53,80,3002372,435
57,67,3003422,736
63,67,3003422,736
66,81,3003422,675
54,75,3003422,736
58,62,3004098,220
64,62,3004098,35
67,76,3004098,133
55,70,3004098,220
56,86,3006128,1052
62,86,3006128,1052
65,100,3006128,1052
53,94,3006128,1052
56,67,3007181,397
62,67,3007181,397
65,81,3007181,336
53,75,3007181,397
57,62,3007518,352
63,62,3007518,167
66,76,3007518,265
54,70,3007518,352
53,67,3008194,308
59,67,3008194,399
62,81,3008194,338
53,67,3008194,308
62,81,3008194,338
58,62,3008533,270
64,62,3008533,172
67,76,3008533,270
55,78,3008533,270
52,67,3009214,394
58,67,3009214,394
61,81,3009214,333
60,75,3009214,303
53,67,3009548,736
59,67,3009548,736
62,81,3009548,675
50,75,3009548,736
54,67,3010224,396
60,67,3010224,396
63,81,3010224,335
51,75,3010224,396
56,67,3010564,773
62,67,3010564,773
65,81,3010564,712
53,75,3010564,773
57,62,3011277,218
63,62,3011277,33
66,76,3011277,131
54,70,3011277,218
58,67,3012290,133
64,67,3012290,103
67,81,3012290,133
55,75,3012290,133
67,87,3013644,1011
79,101,3013644,1011
74,93,3014660,435
62,81,3014660,435
41,85,3014660,435
50,85,3014660,435
53,99,3014660,435
77,89,3015710,400
65,77,3015710,400
42,81,3015710,400
51,81,3015710,400
54,95,3015710,400
79,91,3016725,400
70,79,3016725,400
43,83,3016725,400
52,83,3016725,400
55,97,3016725,400
67,77,3017740,397
38,88,3017740,397
74,93,3018756,435
41,85,3018756,435
50,85,3018756,435
53,99,3018756,435
72,88,3019469,306
77,88,3019806,736
70,89,3019806,645
42,80,3019806,736
51,80,3019806,736
54,94,3019806,675
79,83,3020482,220
67,88,3020482,133
43,75,3020482,220
52,75,3020482,35
55,89,3020482,133
62,88,3021502,303
65,89,3021836,265
38,88,3021836,645
82,98,3022512,1052
72,88,3022512,1052
41,102,3022512,1052
50,102,3022512,335
53,112,3022512,1052
50,80,3022852,712
82,76,3023565,397
72,88,3023565,306
41,80,3023565,397
50,80,3023565,397
53,94,3023565,336
81,83,3023902,574
70,89,3023902,265
42,75,3023902,574
51,75,3023902,306
54,89,3023902,400
67,88,3024578,308
79,91,3024917,400
70,91,3024917,400
43,83,3024917,400
52,83,3024917,400
55,97,3024917,400
77,89,3025932,397
67,89,3025932,397
38,80,3025932,397
47,81,3025932,397
50,95,3025932,397
74,88,3026948,773
62,93,3026948,682
41,80,3026948,773
50,80,3026948,773
53,94,3026948,712
77,83,3027661,218
65,88,3027661,131
42,75,3027661,218
51,75,3027661,33
54,89,3027661,131
79,88,3028674,133
67,88,3028674,133
43,80,3028674,133
52,80,3028674,103
55,94,3028674,133
72,88,3029694,303
70,89,3030028,265
38,88,3030028,397
67,88,3030704,305
74,93,3031044,435
62,81,3031044,435
41,85,3031044,435
50,85,3031044,435
53,99,3031044,435
77,89,3032094,400
65,77,3032094,400
42,81,3032094,400
51,81,3032094,400
54,95,3032094,400
79,91,3033109,400
70,79,3033109,400
43,83,3033109,400
52,83,3033109,400
55,97,3033109,400
67,77,3034124,397
38,88,3034124,397
74,93,3035140,435
41,85,3035140,435
50,85,3035140,435
53,99,3035140,435
72,88,3035853,306
77,88,3036190,736
70,89,3036190,645
42,80,3036190,736
51,80,3036190,736
54,94,3036190,675
79,83,3036866,220
67,88,3036866,133
43,75,3036866,220
52,75,3036866,35
55,89,3036866,133
67,88,3037886,303
70,89,3038220,265
38,88,3038220,645
82,98,3038896,1052
72,88,3038896,1052
41,102,3038896,1052
50,102,3038896,335
53,112,3038896,1052
50,80,3039236,712
82,76,3039949,397
72,88,3039949,306
41,80,3039949,397
50,80,3039949,397
53,94,3039949,336
81,83,3040286,574
70,89,3040286,400
42,75,3040286,352
51,75,3040286,167
54,89,3040286,265
38,79,3040962,399
47,80,3040962,399
50,94,3040962,338
79,91,3041301,400
72,91,3041301,400
43,75,3041301,357
52,75,3041301,172
55,89,3041301,270
37,79,3041982,394
46,80,3041982,394
49,94,3041982,333
77,89,3042316,397
70,89,3042316,397
38,79,3042316,736
47,80,3042316,736
50,94,3042316,675
39,79,3042992,396
48,80,3042992,396
51,94,3042992,335
74,88,3043332,773
62,93,3043332,682
41,80,3043332,773
50,80,3043332,773
53,94,3043332,712
77,83,3044045,218
65,88,3044045,131
42,75,3044045,218
51,75,3044045,33
54,89,3044045,131
79,88,3045058,133
67,88,3045058,133
43,80,3045058,133
52,80,3045058,103
55,94,3045058,133
70,81,3046412,645
74,81,3046412,645
79,95,3046412,675
67,85,3047428,2064
79,99,3047428,2064
43,81,3047428,712
43,76,3048141,367
42,89,3048478,1014
41,91,3049493,1014
40,89,3050508,1011
39,93,3051524,1049
61,102,3052237,1351
73,116,3052237,1351
34,89,3052574,1014
60,83,3053589,650
72,97,3053589,680
33,91,3053589,1014
58,80,3054270,303
70,94,3054270,333
55,81,3054604,1698
67,95,3054604,1728
30,89,3054604,1011
43,81,3055620,712
73,88,3056333,306
43,76,3056333,367
72,89,3056670,645
42,89,3056670,1014
70,88,3057346,308
72,91,3057685,650
41,91,3057685,1014
73,88,3058366,303
65,89,3058700,645
40,89,3058700,1011
67,88,3059376,305
70,93,3059716,682
39,93,3059716,1049
67,88,3060429,306
65,89,3060766,645
43,89,3060766,1014
79,88,3061442,830
42,91,3061781,1014
77,88,3062016,128
79,88,3062144,128
77,83,3062451,246
73,89,3062796,319
38,89,3062796,1011
72,88,3063136,309
70,88,3063466,341
67,85,3063812,2064
70,99,3063812,2064
43,81,3063812,712
43,76,3064525,367
42,89,3064862,1014
69,83,3065877,2026
72,97,3065877,2026
41,91,3065877,1014
40,89,3066892,1011
70,85,3067908,2064
74,99,3067908,2064
39,93,3067908,1049
34,89,3068958,1014
69,83,3069973,2026
75,97,3069973,2026
33,91,3069973,1014
30,89,3070988,1011
70,85,3072004,435
74,99,3072004,435
34,81,3072004,712
34,76,3072717,367
60,81,3073054,400
67,95,3073054,400
31,89,3073054,1014
74,83,3074069,400
79,97,3074069,400
34,91,3074069,1014
63,81,3075084,397
67,95,3075084,397
36,89,3075084,1011
78,93,3076100,682
67,93,3076100,682
38,93,3076100,1049
75,88,3076813,398
69,88,3076813,398
40,89,3077150,1014
74,110,3077826,989
66,110,3077826,2365
42,91,3078165,1014
75,88,3078846,394
74,88,3079180,736
38,89,3079180,1011
75,88,3079856,396
74,71,3080196,609
43,81,3080196,712
43,76,3080909,367
70,77,3081246,400
42,89,3081246,1014
67,79,3082261,400
41,91,3082261,1014
62,77,3083276,397
40,89,3083276,1011
70,81,3084292,435
39,93,3084292,1049
67,89,3085342,645
34,89,3085342,1014
69,88,3086018,989
33,91,3086357,1014
75,88,3087038,394
74,88,3087372,736
30,89,3087372,1011
75,88,3088048,396
70,83,3088388,609
39,93,3088388,1049
67,89,3089438,645
34,89,3089438,1014
69,88,3090114,989
33,91,3090453,1014
75,88,3091134,394
74,88,3091468,736
30,89,3091468,1011
75,88,3092144,396
70,83,3092484,609
39,93,3092484,1049
67,89,3093534,645
34,89,3093534,1014
69,88,3094210,989
33,91,3094549,1014
72,80,3095230,394
75,94,3095230,333
70,80,3095564,736
74,94,3095564,675
30,89,3095564,1011
72,80,3096240,396
75,94,3096240,335
70,80,3096580,712
74,94,3096580,712
43,81,3096580,712
70,80,3097293,336
74,94,3097293,336
43,76,3097293,367
67,75,3097630,400
70,89,3097630,400
42,89,3097630,1014
62,83,3098645,400
67,97,3098645,400
41,91,3098645,1014
58,81,3099660,397
62,95,3099660,397
40,89,3099660,1011
67,85,3100676,435
70,99,3100676,435
39,93,3100676,1049
69,81,3101726,675
72,95,3101726,675
43,89,3101726,1014
66,80,3102402,989
69,94,3102402,1019
42,91,3102741,1014
75,88,3103422,394
74,88,3103756,736
38,89,3103756,1011
75,88,3104432,396
67,75,3104772,609
70,89,3104772,435
39,93,3104772,1049
69,81,3105822,675
72,95,3105822,675
43,89,3105822,1014
66,80,3106498,989
69,94,3106498,1019
42,91,3106837,1014
75,88,3107518,394
74,88,3107852,736
38,89,3107852,1011
75,88,3108528,396
67,75,3108868,609
70,89,3108868,435
39,93,3108868,1049
69,81,3109918,675
72,95,3109918,675
43,89,3109918,1014
66,80,3110594,989
69,94,3110594,1019
42,91,3110933,1014
75,88,3111614,394
74,88,3111948,736
38,89,3111948,1011
75,88,3112624,396
74,71,3112964,609
43,81,3112964,712
43,76,3113677,367
70,77,3114014,400
42,89,3114014,1014
67,79,3115029,400
41,91,3115029,1014
62,77,3116044,397
40,89,3116044,1011
70,81,3117060,435
39,93,3117060,1049
67,89,3118110,645
34,89,3118110,1014
69,88,3118786,989
33,91,3119125,1014
75,88,3119806,394
74,88,3120140,736
30,89,3120140,1011
75,88,3120816,396
70,83,3121156,609
39,93,3121156,1049
67,89,3122206,645
34,89,3122206,1014
69,88,3122882,989
33,91,3123221,1014
75,88,3123902,394
74,88,3124236,736
30,89,3124236,1011
75,88,3124912,396
70,83,3125252,609
39,93,3125252,1049
67,89,3126302,645
34,89,3126302,1014
69,88,3126978,989
33,91,3127317,1014
75,88,3127998,394
74,88,3128332,736
30,89,3128332,1011
75,88,3129008,396
74,83,3129348,609
43,81,3129348,712
43,76,3130061,367
79,89,3130398,400
42,89,3130398,1014
72,91,3131413,400
41,91,3131413,1014
70,89,3132428,397
40,89,3132428,1011
72,88,3133444,773
39,93,3133444,1049
70,83,3134157,218
34,89,3134494,1014
72,110,3135170,1353
33,91,3135509,1014
58,81,3136524,265
70,95,3136524,265
30,89,3136524,1011
60,80,3137200,396
72,94,3137200,335
61,80,3137540,773
73,94,3137540,712
36,81,3137540,712
60,80,3138253,397
72,94,3138253,336
36,76,3138253,367
58,75,3138590,574
70,89,3138590,400
34,89,3138590,400
55,83,3139605,400
67,97,3139605,400
36,91,3139605,400
62,89,3140620,397
37,89,3140620,397
53,80,3141636,773
60,80,3141636,773
65,94,3141636,712
38,93,3141636,712
54,75,3142349,218
61,75,3142349,33
66,89,3142349,131
38,88,3142349,306
42,89,3142686,645
55,102,3143362,2365
62,102,3143362,2365
67,116,3143362,2365
43,88,3143362,2365
73,88,3145732,773
39,93,3145732,1049
72,88,3146445,397
70,83,3146782,574
34,89,3146782,1014
67,91,3147797,400
33,91,3147797,1014
62,89,3148812,397
31,89,3148812,1011
73,88,3149828,773
39,93,3149828,1049
72,88,3150541,397
70,83,3150878,574
34,89,3150878,1014
67,91,3151893,400
33,91,3151893,1014
62,89,3152908,397
31,89,3152908,1011
73,88,3153924,773
39,93,3153924,1049
72,88,3154637,397
70,83,3154974,574
34,89,3154974,1014
73,88,3155989,741
39,91,3155989,1014
72,88,3156670,394
70,83,3157004,571
34,89,3157004,1011
73,88,3158020,773
39,93,3158020,1049
72,88,3158733,397
70,83,3159070,574
34,89,3159070,1014
67,91,3160085,400
33,91,3160085,1014
62,89,3161100,397
31,89,3161100,1011
65,88,3162116,773
43,81,3162116,712
66,83,3162829,218
43,76,3162829,367
42,89,3163166,1014
67,110,3163842,1353
41,91,3164181,1014
79,89,3165196,397
40,89,3165196,1011
65,88,3166212,773
43,81,3166212,712
66,83,3166925,218
43,76,3166925,367
42,89,3167262,1014
67,110,3167938,1353
41,91,3168277,1014
79,89,3169292,397
40,89,3169292,1011
65,76,3170308,712
43,81,3170308,712
65,76,3171021,397
43,76,3171021,367
67,83,3171358,574
42,89,3171358,1014
74,88,3172373,741
41,91,3172373,1014
72,80,3173054,394
79,94,3173054,333
70,88,3173388,736
40,89,3173388,1011
67,88,3174064,396
65,88,3174404,773
43,81,3174404,712
66,83,3175117,218
43,76,3175117,367
42,89,3175454,1014
67,110,3176130,2365
41,91,3176469,1014
40,89,3177484,1011
73,88,3178500,773
63,85,3178500,1049
70,99,3178500,1049
39,81,3178500,712
72,88,3179213,397
39,76,3179213,367
70,83,3179550,574
58,80,3179550,736
61,94,3179550,675
34,89,3179550,1014
57,75,3180226,220
60,89,3180226,133
67,91,3180565,400
33,91,3180565,1014
58,80,3181246,394
61,94,3181246,333
62,89,3181580,397
57,75,3181580,188
60,89,3181580,101
31,89,3181580,1011
73,88,3182596,773
63,85,3182596,1049
70,99,3182596,1049
39,81,3182596,712
72,88,3183309,397
39,76,3183309,367
70,83,3183646,574
58,80,3183646,736
61,94,3183646,675
34,89,3183646,1014
57,75,3184322,220
60,89,3184322,133
67,91,3184661,400
33,91,3184661,1014
58,80,3185342,394
61,94,3185342,333
62,89,3185676,397
57,75,3185676,188
60,89,3185676,101
31,89,3185676,1011
73,88,3186692,773
67,80,3186692,1049
70,94,3186692,1049
39,81,3186692,712
72,88,3187405,397
39,76,3187405,367
70,83,3187742,574
62,75,3187742,328
67,89,3187742,154
34,89,3187742,1014
73,88,3188757,741
60,80,3188757,741
67,94,3188757,680
39,79,3188757,680
72,88,3189438,394
58,75,3189438,215
65,89,3189438,128
39,76,3189438,364
70,83,3189772,571
34,89,3189772,1011
62,102,3190448,2404
67,116,3190448,2404
73,88,3190788,773
39,81,3190788,712
72,88,3191501,397
39,76,3191501,367
70,83,3191838,574
34,89,3191838,1014
67,91,3192853,400
33,91,3192853,1014
62,89,3193868,397
31,89,3193868,1011
65,88,3194884,773
43,81,3194884,712
66,83,3195597,218
43,76,3195597,367
42,89,3195934,1014
67,110,3196610,1353
41,91,3196949,1014
79,89,3197964,397
40,89,3197964,1011
65,88,3198980,773
43,81,3198980,712
66,83,3199693,218
43,76,3199693,367
42,89,3200030,1014
67,110,3200706,1353
41,91,3201045,1014
79,89,3202060,397
40,89,3202060,1011
65,76,3203076,712
43,81,3203076,712
65,76,3203789,397
43,76,3203789,367
67,83,3204126,574
42,89,3204126,1014
74,88,3205141,741
41,91,3205141,1014
72,80,3205822,394
79,94,3205822,333
70,88,3206156,736
40,89,3206156,1011
67,88,3206832,396
53,85,3207172,682
62,85,3207172,682
65,99,3207172,712
43,93,3207172,682
54,80,3207885,306
63,80,3207885,306
66,94,3207885,336
42,88,3207885,306
55,80,3208898,1353
64,80,3208898,1353
67,94,3208898,1353
43,88,3208898,1353
56,59,3211268,435
62,59,3211268,435
65,73,3211268,435
57,55,3212318,400
63,55,3212318,400
66,69,3212318,400
58,57,3213333,400
64,57,3213333,400
67,71,3213333,400
56,59,3215364,435
62,59,3215364,435
65,73,3215364,435
57,54,3216414,736
63,54,3216414,736
66,68,3216414,675
58,49,3217090,220
64,49,3217090,35
67,63,3217090,133
56,58,3219120,1052
62,58,3219120,1052
65,72,3219120,1052
56,42,3220173,397
62,42,3220173,397
65,56,3220173,336
57,49,3220510,574
63,49,3220510,306
66,63,3220510,400
58,57,3221525,400
64,57,3221525,400
67,71,3221525,400
53,55,3222540,397
59,55,3222540,397
62,69,3222540,397
56,54,3223556,773
62,54,3223556,773
65,68,3223556,712
57,49,3224269,218
63,49,3224269,33
66,63,3224269,131
58,54,3225282,133
64,54,3225282,103
67,68,3225282,133
56,59,3227652,435
62,59,3227652,435
65,73,3227652,435
57,55,3228702,400
63,55,3228702,400
66,69,3228702,400
58,57,3229717,400
64,57,3229717,400
67,71,3229717,400
56,59,3231748,435
62,59,3231748,435
65,73,3231748,435
57,54,3232798,736
63,54,3232798,736
66,68,3232798,675
58,49,3233474,220
64,49,3233474,35
67,63,3233474,133
56,70,3235504,1052
62,70,3235504,1052
65,84,3235504,1052
56,54,3236557,397
62,54,3236557,397
65,68,3236557,336
57,49,3236894,352
63,49,3236894,167
66,63,3236894,265
53,54,3237570,399
59,54,3237570,399
62,68,3237570,338
58,49,3237909,270
64,49,3237909,172
67,63,3237909,270
52,54,3238590,394
58,54,3238590,394
61,68,3238590,333
53,54,3238924,736
59,54,3238924,736
62,68,3238924,675
54,54,3239600,396
60,54,3239600,396
63,68,3239600,335
56,54,3239940,773
62,54,3239940,773
65,68,3239940,712
57,49,3240653,218
63,49,3240653,33
66,63,3240653,131
58,54,3241666,133
64,54,3241666,103
67,68,3241666,133
67,71,3243020,1011
79,85,3243020,1011
56,72,3244036,435
62,72,3244036,435
65,86,3244036,435
53,80,3244036,435
57,68,3245086,400
63,68,3245086,400
66,82,3245086,400
54,76,3245086,400
58,70,3246101,400
64,70,3246101,400
67,84,3246101,400
55,78,3246101,400
56,72,3248132,435
62,72,3248132,435
65,86,3248132,435
53,80,3248132,435
57,67,3249182,736
63,67,3249182,736
66,81,3249182,675
54,75,3249182,736
58,62,3249858,220
64,62,3249858,35
67,76,3249858,133
55,70,3249858,220
56,74,3251888,1052
62,74,3251888,1052
65,88,3251888,1052
53,82,3251888,1052
56,55,3252941,397
62,55,3252941,397
65,69,3252941,336
53,63,3252941,397
57,62,3253278,574
63,62,3253278,306
66,76,3253278,400
54,70,3253278,574
58,70,3254293,400
64,70,3254293,400
67,84,3254293,400
55,78,3254293,400
53,68,3255308,397
59,68,3255308,397
62,82,3255308,397
50,76,3255308,397
56,67,3256324,773
62,67,3256324,773
65,81,3256324,712
53,75,3256324,773
57,62,3257037,218
63,62,3257037,33
66,76,3257037,131
54,70,3257037,218
58,67,3258050,133
64,67,3258050,103
67,81,3258050,133
55,75,3258050,133
56,72,3260420,435
62,72,3260420,435
65,86,3260420,435
53,80,3260420,435
57,68,3261470,400
63,68,3261470,400
66,82,3261470,400
54,76,3261470,400
58,70,3262485,400
64,70,3262485,400
67,84,3262485,400
55,78,3262485,400
56,72,3264516,435
62,72,3264516,435
65,86,3264516,435
53,80,3264516,435
57,67,3265566,736
63,67,3265566,736
66,81,3265566,675
54,75,3265566,736
58,62,3266242,220
64,62,3266242,35
67,76,3266242,133
55,70,3266242,220
56,86,3268272,1052
62,86,3268272,1052
65,100,3268272,1052
53,94,3268272,1052
56,67,3269325,397
62,67,3269325,397
65,81,3269325,336
53,75,3269325,397
57,62,3269662,352
63,62,3269662,167
66,76,3269662,265
54,70,3269662,352
53,67,3270338,308
59,67,3270338,399
62,81,3270338,338
53,67,3270338,308
62,81,3270338,338
58,62,3270677,270
64,62,3270677,172
67,76,3270677,270
55,78,3270677,270
52,67,3271358,394
58,67,3271358,394
61,81,3271358,333
60,75,3271358,303
53,67,3271692,736
59,67,3271692,736
62,81,3271692,675
50,75,3271692,736
54,67,3272368,396
60,67,3272368,396
63,81,3272368,335
51,75,3272368,396
56,67,3272708,773
62,67,3272708,773
65,81,3272708,712
53,75,3272708,773
57,62,3273421,218
63,62,3273421,33
66,76,3273421,131
54,70,3273421,218
58,67,3274434,133
64,67,3274434,103
67,81,3274434,133
55,75,3274434,133
67,87,3275788,1011
79,101,3275788,1011
74,93,3276804,435
62,81,3276804,435
41,85,3276804,435
50,85,3276804,435
53,99,3276804,435
77,89,3277854,400
65,77,3277854,400
42,81,3277854,400
51,81,3277854,400
54,95,3277854,400
79,91,3278869,400
70,79,3278869,400
43,83,3278869,400
52,83,3278869,400
55,97,3278869,400
67,77,3279884,397
38,88,3279884,397
74,93,3280900,435
41,85,3280900,435
50,85,3280900,435
53,99,3280900,435
72,88,3281613,306
77,88,3281950,736
70,89,3281950,645
42,80,3281950,736
51,80,3281950,736
54,94,3281950,675
79,83,3282626,220
67,88,3282626,133
43,75,3282626,220
52,75,3282626,35
55,89,3282626,133
62,88,3283646,303
65,89,3283980,265
38,88,3283980,645
82,98,3284656,1052
72,88,3284656,1052
41,102,3284656,1052
50,102,3284656,335
53,112,3284656,1052
50,80,3284996,712
82,76,3285709,397
72,88,3285709,306
41,80,3285709,397
50,80,3285709,397
53,94,3285709,336
81,83,3286046,574
70,89,3286046,265
42,75,3286046,574
51,75,3286046,306
54,89,3286046,400
67,88,3286722,308
79,91,3287061,400
70,91,3287061,400
43,83,3287061,400
52,83,3287061,400
55,97,3287061,400
77,89,3288076,397
67,89,3288076,397
38,80,3288076,397
47,81,3288076,397
50,95,3288076,397
74,88,3289092,773
62,93,3289092,682
41,80,3289092,773
50,80,3289092,773
53,94,3289092,712
77,83,3289805,218
65,88,3289805,131
42,75,3289805,218
51,75,3289805,33
54,89,3289805,131
79,88,3290818,133
67,88,3290818,133
43,80,3290818,133
52,80,3290818,103
55,94,3290818,133
72,88,3291838,303
70,89,3292172,265
38,88,3292172,397
67,88,3292848,305
74,93,3293188,435
62,81,3293188,435
41,85,3293188,435
50,85,3293188,435
53,99,3293188,435
77,89,3294238,400
65,77,3294238,400
42,81,3294238,400
51,81,3294238,400
54,95,3294238,400
79,91,3295253,400
70,79,3295253,400
43,83,3295253,400
52,83,3295253,400
55,97,3295253,400
67,77,3296268,397
38,88,3296268,397
74,93,3297284,435
41,85,3297284,435
50,85,3297284,435
53,99,3297284,435
72,88,3297997,306
77,88,3298334,736
70,89,3298334,645
42,80,3298334,736
51,80,3298334,736
54,94,3298334,675
79,83,3299010,220
67,88,3299010,133
43,75,3299010,220
52,75,3299010,35
55,89,3299010,133
67,88,3300030,303
70,89,3300364,265
38,88,3300364,645
82,98,3301040,1052
72,88,3301040,1052
41,102,3301040,1052
50,102,3301040,335
53,112,3301040,1052
50,80,3301380,712
82,76,3302093,397
72,88,3302093,306
41,80,3302093,397
50,80,3302093,397
53,94,3302093,336
81,83,3302430,574
70,89,3302430,400
42,75,3302430,352
51,75,3302430,167
54,89,3302430,265
38,79,3303106,399
47,80,3303106,399
50,94,3303106,338
79,91,3303445,400
72,91,3303445,400
43,75,3303445,357
52,75,3303445,172
55,89,3303445,270
37,79,3304126,394
46,80,3304126,394
49,94,3304126,333
77,89,3304460,397
70,89,3304460,397
38,79,3304460,736
47,80,3304460,736
50,94,3304460,675
39,79,3305136,396
48,80,3305136,396
51,94,3305136,335
74,88,3305476,773
62,93,3305476,682
41,80,3305476,773
50,80,3305476,773
53,94,3305476,712
77,83,3306189,218
65,88,3306189,131
42,75,3306189,218
51,75,3306189,33
54,89,3306189,131
79,88,3307202,133
67,88,3307202,133
43,80,3307202,133
52,80,3307202,103
55,94,3307202,133
70,81,3308556,645
74,81,3308556,645
79,95,3308556,675
67,85,3309572,2064
79,99,3309572,2064
43,81,3309572,712
43,76,3310285,367
42,89,3310622,1014
41,91,3311637,1014
40,89,3312652,1011
39,93,3313668,1049
61,102,3314381,1351
73,116,3314381,1351
34,89,3314718,1014
60,83,3315733,650
72,97,3315733,680
33,91,3315733,1014
58,80,3316414,303
70,94,3316414,333
55,81,3316748,1698
67,95,3316748,1728
30,89,3316748,1011
43,81,3317764,712
73,88,3318477,306
43,76,3318477,367
72,89,3318814,645
42,89,3318814,1014
70,88,3319490,308
72,91,3319829,650
41,91,3319829,1014
73,88,3320510,303
65,89,3320844,645
40,89,3320844,1011
67,88,3321520,305
70,93,3321860,682
39,93,3321860,1049
67,88,3322573,306
65,89,3322910,645
43,89,3322910,1014
79,88,3323586,830
42,91,3323925,1014
77,88,3324160,128
79,88,3324288,128
77,83,3324595,246
73,89,3324940,319
38,89,3324940,1011
72,88,3325280,309
70,88,3325610,341
67,85,3325956,2064
70,99,3325956,2064
43,81,3325956,712
43,76,3326669,367
42,89,3327006,1014
69,83,3328021,2026
72,97,3328021,2026
41,91,3328021,1014
40,89,3329036,1011
70,85,3330052,2064
74,99,3330052,2064
39,93,3330052,1049
34,89,3331102,1014
69,83,3332117,2026
75,97,3332117,2026
33,91,3332117,1014
30,89,3333132,1011
70,85,3334148,435
74,99,3334148,435
34,81,3334148,712
34,76,3334861,367
60,81,3335198,400
67,95,3335198,400
31,89,3335198,1014
74,83,3336213,400
79,97,3336213,400
34,91,3336213,1014
63,81,3337228,397
67,95,3337228,397
36,89,3337228,1011
78,93,3338244,682
67,93,3338244,682
38,93,3338244,1049
75,88,3338957,398
69,88,3338957,398
40,89,3339294,1014
74,110,3339970,989
66,110,3339970,2365
42,91,3340309,1014
75,88,3340990,394
74,88,3341324,736
38,89,3341324,1011
75,88,3342000,396
74,71,3342340,609
43,81,3342340,712
43,76,3343053,367
70,77,3343390,400
42,89,3343390,1014
67,79,3344405,400
41,91,3344405,1014
62,77,3345420,397
40,89,3345420,1011
70,81,3346436,435
39,93,3346436,1049
67,89,3347486,645
34,89,3347486,1014
69,88,3348162,989
33,91,3348501,1014
75,88,3349182,394
74,88,3349516,736
30,89,3349516,1011
75,88,3350192,396
70,83,3350532,609
39,93,3350532,1049
67,89,3351582,645
34,89,3351582,1014
69,88,3352258,989
33,91,3352597,1014
75,88,3353278,394
74,88,3353612,736
30,89,3353612,1011
75,88,3354288,396
70,83,3354628,609
39,93,3354628,1049
67,89,3355678,645
34,89,3355678,1014
69,88,3356354,989
33,91,3356693,1014
72,80,3357374,394
75,94,3357374,333
70,80,3357708,736
74,94,3357708,675
30,89,3357708,1011
72,80,3358384,396
75,94,3358384,335
70,80,3358724,712
74,94,3358724,712
43,81,3358724,712
70,80,3359437,336
74,94,3359437,336
43,76,3359437,367
67,75,3359774,400
70,89,3359774,400
42,89,3359774,1014
62,83,3360789,400
67,97,3360789,400
41,91,3360789,1014
58,81,3361804,397
62,95,3361804,397
40,89,3361804,1011
67,85,3362820,435
70,99,3362820,435
39,93,3362820,1049
69,81,3363870,675
72,95,3363870,675
43,89,3363870,1014
66,80,3364546,989
69,94,3364546,1019
42,91,3364885,1014
75,88,3365566,394
74,88,3365900,736
38,89,3365900,1011
75,88,3366576,396
67,75,3366916,609
70,89,3366916,435
39,93,3366916,1049
69,81,3367966,675
72,95,3367966,675
43,89,3367966,1014
66,80,3368642,989
69,94,3368642,1019
42,91,3368981,1014
75,88,3369662,394
74,88,3369996,736
38,89,3369996,1011
75,88,3370672,396
67,75,3371012,609
70,89,3371012,435
39,93,3371012,1049
69,81,3372062,675
72,95,3372062,675
43,89,3372062,1014
66,80,3372738,989
69,94,3372738,1019
42,91,3373077,1014
75,88,3373758,394
74,88,3374092,736
38,89,3374092,1011
75,88,3374768,396
74,71,3375108,609
43,81,3375108,712
43,76,3375821,367
70,77,3376158,400
42,89,3376158,1014
67,79,3377173,400
41,91,3377173,1014
62,77,3378188,397
40,89,3378188,1011
70,81,3379204,435
39,93,3379204,1049
67,89,3380254,645
34,89,3380254,1014
69,88,3380930,989
33,91,3381269,1014
75,88,3381950,394
74,88,3382284,736
30,89,3382284,1011
75,88,3382960,396
70,83,3383300,609
39,93,3383300,1049
67,89,3384350,645
34,89,3384350,1014
69,88,3385026,989
33,91,3385365,1014
75,88,3386046,394
74,88,3386380,736
30,89,3386380,1011
75,88,3387056,396
70,83,3387396,609
39,93,3387396,1049
67,89,3388446,645
34,89,3388446,1014
69,88,3389122,989
33,91,3389461,1014
75,88,3390142,394
74,88,3390476,736
30,89,3390476,1011
75,88,3391152,396
74,83,3391492,609
43,81,3391492,712
43,76,3392205,367
79,89,3392542,400
42,89,3392542,1014
72,91,3393557,400
41,91,3393557,1014
70,89,3394572,397
40,89,3394572,1011
72,88,3395588,773
39,93,3395588,1049
70,83,3396301,218
34,89,3396638,1014
72,110,3397314,1353
33,91,3397653,1014
58,81,3398668,265
70,95,3398668,265
30,89,3398668,1011
60,80,3399344,396
72,94,3399344,335
61,80,3399684,773
73,94,3399684,712
36,81,3399684,712
60,80,3400397,397
72,94,3400397,336
36,76,3400397,367
58,75,3400734,574
70,89,3400734,400
34,89,3400734,400
55,83,3401749,400
67,97,3401749,400
36,91,3401749,400
62,89,3402764,397
37,89,3402764,397
53,80,3403780,773
60,80,3403780,773
65,94,3403780,712
38,93,3403780,712
54,75,3404493,218
61,75,3404493,33
66,89,3404493,131
38,88,3404493,306
42,89,3404830,645
55,102,3405506,2365
62,102,3405506,2365
67,116,3405506,2365
43,88,3405506,2365
73,88,3407876,773
39,93,3407876,1049
72,88,3408589,397
70,83,3408926,574
34,89,3408926,1014
67,91,3409941,400
33,91,3409941,1014
62,89,3410956,397
31,89,3410956,1011
73,88,3411972,773
39,93,3411972,1049
72,88,3412685,397
70,83,3413022,574
34,89,3413022,1014
67,91,3414037,400
33,91,3414037,1014
62,89,3415052,397
31,89,3415052,1011
73,88,3416068,773
39,93,3416068,1049
72,88,3416781,397
70,83,3417118,574
34,89,3417118,1014
73,88,3418133,741
39,91,3418133,1014
72,88,3418814,394
70,83,3419148,571
34,89,3419148,1011
73,88,3420164,773
39,93,3420164,1049
72,88,3420877,397
70,83,3421214,574
34,89,3421214,1014
67,91,3422229,400
33,91,3422229,1014
62,89,3423244,397
31,89,3423244,1011
65,88,3424260,773
43,81,3424260,712
66,83,3424973,218
43,76,3424973,367
42,89,3425310,1014
67,110,3425986,1353
41,91,3426325,1014
79,89,3427340,397
40,89,3427340,1011
65,88,3428356,773
43,81,3428356,712
66,83,3429069,218
43,76,3429069,367
42,89,3429406,1014
67,110,3430082,1353
41,91,3430421,1014
79,89,3431436,397
40,89,3431436,1011
65,76,3432452,712
43,81,3432452,712
65,76,3433165,397
43,76,3433165,367
67,83,3433502,574
42,89,3433502,1014
74,88,3434517,741
41,91,3434517,1014
72,80,3435198,394
79,94,3435198,333
70,88,3435532,736
40,89,3435532,1011
67,88,3436208,396
65,88,3436548,773
43,81,3436548,712
66,83,3437261,218
43,76,3437261,367
42,89,3437598,1014
67,110,3438274,2365
41,91,3438613,1014
40,89,3439628,1011
73,88,3440644,773
63,85,3440644,1049
70,99,3440644,1049
39,81,3440644,712
72,88,3441357,397
39,76,3441357,367
70,83,3441694,574
58,80,3441694,736
61,94,3441694,675
34,89,3441694,1014
57,75,3442370,220
60,89,3442370,133
67,91,3442709,400
33,91,3442709,1014
58,80,3443390,394
61,94,3443390,333
62,89,3443724,397
57,75,3443724,188
60,89,3443724,101
31,89,3443724,1011
73,88,3444740,773
63,85,3444740,1049
70,99,3444740,1049
39,81,3444740,712
72,88,3445453,397
39,76,3445453,367
70,83,3445790,574
58,80,3445790,736
61,94,3445790,675
34,89,3445790,1014
57,75,3446466,220
60,89,3446466,133
67,91,3446805,400
33,91,3446805,1014
58,80,3447486,394
61,94,3447486,333
62,89,3447820,397
57,75,3447820,188
60,89,3447820,101
31,89,3447820,1011
73,88,3448836,773
67,80,3448836,1049
70,94,3448836,1049
39,81,3448836,712
72,88,3449549,397
39,76,3449549,367
70,83,3449886,574
62,75,3449886,328
67,89,3449886,154
34,89,3449886,1014
73,88,3450901,741
60,80,3450901,741
67,94,3450901,680
39,79,3450901,680
72,88,3451582,394
58,75,3451582,215
65,89,3451582,128
39,76,3451582,364
70,83,3451916,571
34,89,3451916,1011
62,102,3452592,2404
67,116,3452592,2404
73,88,3452932,773
39,81,3452932,712
72,88,3453645,397
39,76,3453645,367
70,83,3453982,574
34,89,3453982,1014
67,91,3454997,400
33,91,3454997,1014
62,89,3456012,397
31,89,3456012,1011
65,88,3457028,773
43,81,3457028,712
66,83,3457741,218
43,76,3457741,367
42,89,3458078,1014
67,110,3458754,1353
41,91,3459093,1014
79,89,3460108,397
40,89,3460108,1011
65,88,3461124,773
43,81,3461124,712
66,83,3461837,218
43,76,3461837,367
42,89,3462174,1014
67,110,3462850,1353
41,91,3463189,1014
79,89,3464204,397
40,89,3464204,1011
65,76,3465220,712
43,81,3465220,712
65,76,3465933,397
43,76,3465933,367
67,83,3466270,574
42,89,3466270,1014
74,88,3467285,741
41,91,3467285,1014
72,80,3467966,394
79,94,3467966,333
70,88,3468300,736
40,89,3468300,1011
67,88,3468976,396
53,85,3469316,682
62,85,3469316,682
65,99,3469316,712
43,93,3469316,682
54,80,3470029,306
63,80,3470029,306
66,94,3470029,336
42,88,3470029,306
55,80,3471042,1353
64,80,3471042,1353
67,94,3471042,1353
43,88,3471042,1353
56,59,3473412,435
62,59,3473412,435
65,73,3473412,435
57,55,3474462,400
63,55,3474462,400
66,69,3474462,400
58,57,3475477,400
64,57,3475477,400
67,71,3475477,400
56,59,3477508,435
62,59,3477508,435
65,73,3477508,435
57,54,3478558,736
63,54,3478558,736
66,68,3478558,675
58,49,3479234,220
64,49,3479234,35
67,63,3479234,133
56,58,3481264,1052
62,58,3481264,1052
65,72,3481264,1052
56,42,3482317,397
62,42,3482317,397
65,56,3482317,336
57,49,3482654,574
63,49,3482654,306
66,63,3482654,400
58,57,3483669,400
64,57,3483669,400
67,71,3483669,400
53,55,3484684,397
59,55,3484684,397
62,69,3484684,397
56,54,3485700,773
62,54,3485700,773
65,68,3485700,712
57,49,3486413,218
63,49,3486413,33
66,63,3486413,131
58,54,3487426,133
64,54,3487426,103
67,68,3487426,133
56,59,3489796,435
62,59,3489796,435
65,73,3489796,435
57,55,3490846,400
63,55,3490846,400
66,69,3490846,400
58,57,3491861,400
64,57,3491861,400
67,71,3491861,400
56,59,3493892,435
62,59,3493892,435
65,73,3493892,435
57,54,3494942,736
63,54,3494942,736
66,68,3494942,675
58,49,3495618,220
64,49,3495618,35
67,63,3495618,133
56,70,3497648,1052
62,70,3497648,1052
65,84,3497648,1052
56,54,3498701,397
62,54,3498701,397
65,68,3498701,336
57,49,3499038,352
63,49,3499038,167
66,63,3499038,265
53,54,3499714,399
59,54,3499714,399
62,68,3499714,338
58,49,3500053,270
64,49,3500053,172
67,63,3500053,270
52,54,3500734,394
58,54,3500734,394
61,68,3500734,333
53,54,3501068,736
59,54,3501068,736
62,68,3501068,675
54,54,3501744,396
60,54,3501744,396
63,68,3501744,335
56,54,3502084,773
62,54,3502084,773
65,68,3502084,712
57,49,3502797,218
63,49,3502797,33
66,63,3502797,131
58,54,3503810,133
64,54,3503810,103
67,68,3503810,133
67,71,3505164,1011
79,85,3505164,1011
56,72,3506180,435
62,72,3506180,435
65,86,3506180,435
53,80,3506180,435
57,68,3507230,400
63,68,3507230,400
66,82,3507230,400
54,76,3507230,400
58,70,3508245,400
64,70,3508245,400
67,84,3508245,400
55,78,3508245,400
56,72,3510276,435
62,72,3510276,435
65,86,3510276,435
53,80,3510276,435
57,67,3511326,736
63,67,3511326,736
66,81,3511326,675
54,75,3511326,736
58,62,3512002,220
64,62,3512002,35
67,76,3512002,133
55,70,3512002,220
56,74,3514032,1052
62,74,3514032,1052
65,88,3514032,1052
53,82,3514032,1052
56,55,3515085,397
62,55,3515085,397
65,69,3515085,336
53,63,3515085,397
57,62,3515422,574
63,62,3515422,306
66,76,3515422,400
54,70,3515422,574
58,70,3516437,400
64,70,3516437,400
67,84,3516437,400
55,78,3516437,400
53,68,3517452,397
59,68,3517452,397
62,82,3517452,397
50,76,3517452,397
56,67,3518468,773
62,67,3518468,773
65,81,3518468,712
53,75,3518468,773
57,62,3519181,218
63,62,3519181,33
66,76,3519181,131
54,70,3519181,218
58,67,3520194,133
64,67,3520194,103
67,81,3520194,133
55,75,3520194,133
56,72,3522564,435
62,72,3522564,435
65,86,3522564,435
53,80,3522564,435
57,68,3523614,400
63,68,3523614,400
66,82,3523614,400
54,76,3523614,400
58,70,3524629,400
64,70,3524629,400
67,84,3524629,400
55,78,3524629,400
56,72,3526660,435
62,72,3526660,435
65,86,3526660,435
53,80,3526660,435
57,67,3527710,736
63,67,3527710,736
66,81,3527710,675
54,75,3527710,736
58,62,3528386,220
64,62,3528386,35
67,76,3528386,133
55,70,3528386,220
56,86,3530416,1052
62,86,3530416,1052
65,100,3530416,1052
53,94,3530416,1052
56,67,3531469,397
62,67,3531469,397
65,81,3531469,336
53,75,3531469,397
57,62,3531806,352
63,62,3531806,167
66,76,3531806,265
54,70,3531806,352
53,67,3532482,308
59,67,3532482,399
62,81,3532482,338
53,67,3532482,308
62,81,3532482,338
58,62,3532821,270
64,62,3532821,172
67,76,3532821,270
55,78,3532821,270
52,67,3533502,394
58,67,3533502,394
61,81,3533502,333
60,75,3533502,303
53,67,3533836,736
59,67,3533836,736
62,81,3533836,675
50,75,3533836,736
54,67,3534512,396
60,67,3534512,396
63,81,3534512,335
51,75,3534512,396
56,67,3534852,773
62,67,3534852,773
65,81,3534852,712
53,75,3534852,773
57,62,3535565,218
63,62,3535565,33
66,76,3535565,131
54,70,3535565,218
58,67,3536578,133
64,67,3536578,103
67,81,3536578,133
55,75,3536578,133
67,87,3537932,1011
79,101,3537932,1011
74,93,3538948,435
62,81,3538948,435
41,85,3538948,435
50,85,3538948,435
53,99,3538948,435
77,89,3539998,400
65,77,3539998,400
42,81,3539998,400
51,81,3539998,400
54,95,3539998,400
79,91,3541013,400
70,79,3541013,400
43,83,3541013,400
52,83,3541013,400
55,97,3541013,400
67,77,3542028,397
38,88,3542028,397
74,93,3543044,435
41,85,3543044,435
50,85,3543044,435
53,99,3543044,435
72,88,3543757,306
77,88,3544094,736
70,89,3544094,645
42,80,3544094,736
51,80,3544094,736
54,94,3544094,675
79,83,3544770,220
67,88,3544770,133
43,75,3544770,220
52,75,3544770,35
55,89,3544770,133
62,88,3545790,303
65,89,3546124,265
38,88,3546124,645
82,98,3546800,1052
72,88,3546800,1052
41,102,3546800,1052
50,102,3546800,335
53,112,3546800,1052
50,80,3547140,712
82,76,3547853,397
72,88,3547853,306
41,80,3547853,397
50,80,3547853,397
53,94,3547853,336
81,83,3548190,574
70,89,3548190,265
42,75,3548190,574
51,75,3548190,306
54,89,3548190,400
67,88,3548866,308
79,91,3549205,400
70,91,3549205,400
43,83,3549205,400
52,83,3549205,400
55,97,3549205,400
77,89,3550220,397
67,89,3550220,397
38,80,3550220,397
47,81,3550220,397
50,95,3550220,397
74,88,3551236,773
62,93,3551236,682
41,80,3551236,773
50,80,3551236,773
53,94,3551236,712
77,83,3551949,218
65,88,3551949,131
42,75,3551949,218
51,75,3551949,33
54,89,3551949,131
79,88,3552962,133
67,88,3552962,133
43,80,3552962,133
52,80,3552962,103
55,94,3552962,133
72,88,3553982,303
70,89,3554316,265
38,88,3554316,397
67,88,3554992,305
74,93,3555332,435
62,81,3555332,435
41,85,3555332,435
50,85,3555332,435
53,99,3555332,435
77,89,3556382,400
65,77,3556382,400
42,81,3556382,400
51,81,3556382,400
54,95,3556382,400
79,91,3557397,400
70,79,3557397,400
43,83,3557397,400
52,83,3557397,400
55,97,3557397,400
67,77,3558412,397
38,88,3558412,397
74,93,3559428,435
41,85,3559428,435
50,85,3559428,435
53,99,3559428,435
72,88,3560141,306
77,88,3560478,736
70,89,3560478,645
42,80,3560478,736
51,80,3560478,736
54,94,3560478,675
79,83,3561154,220
67,88,3561154,133
43,75,3561154,220
52,75,3561154,35
55,89,3561154,133
67,88,3562174,303
70,89,3562508,265
38,88,3562508,645
82,98,3563184,1052
72,88,3563184,1052
41,102,3563184,1052
50,102,3563184,335
53,112,3563184,1052
50,80,3563524,712
82,76,3564237,397
72,88,3564237,306
41,80,3564237,397
50,80,3564237,397
53,94,3564237,336
81,83,3564574,574
70,89,3564574,400
42,75,3564574,352
51,75,3564574,167
54,89,3564574,265
38,79,3565250,399
47,80,3565250,399
50,94,3565250,338
79,91,3565589,400
72,91,3565589,400
43,75,3565589,357
52,75,3565589,172
55,89,3565589,270
37,79,3566270,394
46,80,3566270,394
49,94,3566270,333
77,89,3566604,397
70,89,3566604,397
38,79,3566604,736
47,80,3566604,736
50,94,3566604,675
39,79,3567280,396
48,80,3567280,396
51,94,3567280,335
74,88,3567620,773
62,93,3567620,682
41,80,3567620,773
50,80,3567620,773
53,94,3567620,712
77,83,3568333,218
65,88,3568333,131
42,75,3568333,218
51,75,3568333,33
54,89,3568333,131
79,88,3569346,133
67,88,3569346,133
43,80,3569346,133
52,80,3569346,103
55,94,3569346,133
70,81,3570700,645
74,81,3570700,645
79,95,3570700,675
67,85,3571716,2064
79,99,3571716,2064
43,81,3571716,712
43,76,3572429,367
42,89,3572766,1014
41,91,3573781,1014
40,89,3574796,1011
39,93,3575812,1049
61,102,3576525,1351
73,116,3576525,1351
34,89,3576862,1014
60,83,3577877,650
72,97,3577877,680
33,91,3577877,1014
58,80,3578558,303
70,94,3578558,333
55,81,3578892,1698
67,95,3578892,1728
30,89,3578892,1011
43,81,3579908,712
73,88,3580621,306
43,76,3580621,367
72,89,3580958,645
42,89,3580958,1014
70,88,3581634,308
72,91,3581973,650
41,91,3581973,1014
73,88,3582654,303
65,89,3582988,645
40,89,3582988,1011
67,88,3583664,305
70,93,3584004,682
39,93,3584004,1049
67,88,3584717,306
65,89,3585054,645
43,89,3585054,1014
79,88,3585730,830
42,91,3586069,1014
77,88,3586304,128
79,88,3586432,128
77,83,3586739,246
73,89,3587084,319
38,89,3587084,1011
72,88,3587424,309
70,88,3587754,341
67,85,3588100,2064
70,99,3588100,2064
43,81,3588100,712
43,76,3588813,367
42,89,3589150,1014
69,83,3590165,2026
72,97,3590165,2026
41,91,3590165,1014
40,89,3591180,1011
70,85,3592196,2064
74,99,3592196,2064
39,93,3592196,1049
34,89,3593246,1014
69,83,3594261,2026
75,97,3594261,2026
33,91,3594261,1014
30,89,3595276,1011
70,85,3596292,435
74,99,3596292,435
34,81,3596292,712
34,76,3597005,367
60,81,3597342,400
67,95,3597342,400
31,89,3597342,1014
74,83,3598357,400
79,97,3598357,400
34,91,3598357,1014
63,81,3599372,397
67,95,3599372,397
36,89,3599372,1011
78,93,3600388,682
67,93,3600388,682
38,93,3600388,1049
75,88,3601101,398
69,88,3601101,398
40,89,3601438,1014
74,110,3602114,989
66,110,3602114,2365
42,91,3602453,1014
75,88,3603134,394
74,88,3603468,736
38,89,3603468,1011
75,88,3604144,396
74,71,3604484,609
43,81,3604484,712
43,76,3605197,367
70,77,3605534,400
42,89,3605534,1014
67,79,3606549,400
41,91,3606549,1014
62,77,3607564,397
40,89,3607564,1011
70,81,3608580,435
39,93,3608580,1049
67,89,3609630,645
34,89,3609630,1014
69,88,3610306,989
33,91,3610645,1014
75,88,3611326,394
74,88,3611660,736
30,89,3611660,1011
75,88,3612336,396
70,83,3612676,609
39,93,3612676,1049
67,89,3613726,645
34,89,3613726,1014
69,88,3614402,989
33,91,3614741,1014
75,88,3615422,394
74,88,3615756,736
30,89,3615756,1011
75,88,3616432,396
70,83,3616772,609
39,93,3616772,1049
67,89,3617822,645
34,89,3617822,1014
69,88,3618498,989
33,91,3618837,1014
72,80,3619518,394
75,94,3619518,333
70,80,3619852,736
74,94,3619852,675
30,89,3619852,1011
72,80,3620528,396
75,94,3620528,335
70,80,3620868,712
74,94,3620868,712
43,81,3620868,712
70,80,3621581,336
74,94,3621581,336
43,76,3621581,367
67,75,3621918,400
70,89,3621918,400
42,89,3621918,1014
62,83,3622933,400
67,97,3622933,400
41,91,3622933,1014
58,81,3623948,397
62,95,3623948,397
40,89,3623948,1011
67,85,3624964,435
70,99,3624964,435
39,93,3624964,1049
69,81,3626014,675
72,95,3626014,675
43,89,3626014,1014
66,80,3626690,989
69,94,3626690,1019
42,91,3627029,1014
75,88,3627710,394
74,88,3628044,736
38,89,3628044,1011
75,88,3628720,396
67,75,3629060,609
70,89,3629060,435
39,93,3629060,1049
69,81,3630110,675
72,95,3630110,675
43,89,3630110,1014
66,80,3630786,989
69,94,3630786,1019
42,91,3631125,1014
75,88,3631806,394
74,88,3632140,736
38,89,3632140,1011
75,88,3632816,396
67,75,3633156,609
70,89,3633156,435
39,93,3633156,1049
69,81,3634206,675
72,95,3634206,675
43,89,3634206,1014
66,80,3634882,989
69,94,3634882,1019
42,91,3635221,1014
75,88,3635902,394
74,88,3636236,736
38,89,3636236,1011
75,88,3636912,396
74,71,3637252,609
43,81,3637252,712
43,76,3637965,367
70,77,3638302,400
42,89,3638302,1014
67,79,3639317,400
41,91,3639317,1014
62,77,3640332,397
40,89,3640332,1011
70,81,3641348,435
39,93,3641348,1049
67,89,3642398,645
34,89,3642398,1014
69,88,3643074,989
33,91,3643413,1014
75,88,3644094,394
74,88,3644428,736
30,89,3644428,1011
75,88,3645104,396
70,83,3645444,609
39,93,3645444,1049
67,89,3646494,645
34,89,3646494,1014
69,88,3647170,989
33,91,3647509,1014
75,88,3648190,394
74,88,3648524,736
30,89,3648524,1011
75,88,3649200,396
70,83,3649540,609
39,93,3649540,1049
67,89,3650590,645
34,89,3650590,1014
69,88,3651266,989
33,91,3651605,1014
75,88,3652286,394
74,88,3652620,736
30,89,3652620,1011
75,88,3653296,396
74,83,3653636,609
43,81,3653636,712
43,76,3654349,367
79,89,3654686,400
42,89,3654686,1014
72,91,3655701,400
41,91,3655701,1014
70,89,3656716,397
40,89,3656716,1011
72,88,3657732,773
39,93,3657732,1049
70,83,3658445,218
34,89,3658782,1014
72,110,3659458,1353
33,91,3659797,1014
58,81,3660812,265
70,95,3660812,265
30,89,3660812,1011
60,80,3661488,396
72,94,3661488,335
61,80,3661828,773
73,94,3661828,712
36,81,3661828,712
60,80,3662541,397
72,94,3662541,336
36,76,3662541,367
58,75,3662878,574
70,89,3662878,400
34,89,3662878,400
55,83,3663893,400
67,97,3663893,400
36,91,3663893,400
62,89,3664908,397
37,89,3664908,397
53,80,3665924,773
60,80,3665924,773
65,94,3665924,712
38,93,3665924,712
54,75,3666637,218
61,75,3666637,33
66,89,3666637,131
38,88,3666637,306
42,89,3666974,645
55,102,3667650,2365
62,102,3667650,2365
67,116,3667650,2365
43,88,3667650,2365
73,88,3670020,773
39,93,3670020,1049
72,88,3670733,397
70,83,3671070,574
34,89,3671070,1014
67,91,3672085,400
33,91,3672085,1014
62,89,3673100,397
31,89,3673100,1011
73,88,3674116,773
39,93,3674116,1049
72,88,3674829,397
70,83,3675166,574
34,89,3675166,1014
67,91,3676181,400
33,91,3676181,1014
62,89,3677196,397
31,89,3677196,1011
73,88,3678212,773
39,93,3678212,1049
72,88,3678925,397
70,83,3679262,574
34,89,3679262,1014
73,88,3680277,741
39,91,3680277,1014
72,88,3680958,394
70,83,3681292,571
34,89,3681292,1011
73,88,3682308,773
39,93,3682308,1049
72,88,3683021,397
70,83,3683358,574
34,89,3683358,1014
67,91,3684373,400
33,91,3684373,1014
62,89,3685388,397
31,89,3685388,1011
65,88,3686404,773
43,81,3686404,712
66,83,3687117,218
43,76,3687117,367
42,89,3687454,1014
67,110,3688130,1353
41,91,3688469,1014
79,89,3689484,397
40,89,3689484,1011
65,88,3690500,773
43,81,3690500,712
66,83,3691213,218
43,76,3691213,367
42,89,3691550,1014
67,110,3692226,1353
41,91,3692565,1014
79,89,3693580,397
40,89,3693580,1011
65,76,3694596,712
43,81,3694596,712
65,76,3695309,397
43,76,3695309,367
67,83,3695646,574
42,89,3695646,1014
74,88,3696661,741
41,91,3696661,1014
72,80,3697342,394
79,94,3697342,333
70,88,3697676,736
40,89,3697676,1011
67,88,3698352,396
65,88,3698692,773
43,81,3698692,712
66,83,3699405,218
43,76,3699405,367
42,89,3699742,1014
67,110,3700418,2365
41,91,3700757,1014
40,89,3701772,1011
73,88,3702788,773
63,85,3702788,1049
70,99,3702788,1049
39,81,3702788,712
72,88,3703501,397
39,76,3703501,367
70,83,3703838,574
58,80,3703838,736
61,94,3703838,675
34,89,3703838,1014
57,75,3704514,220
60,89,3704514,133
67,91,3704853,400
33,91,3704853,1014
58,80,3705534,394
61,94,3705534,333
62,89,3705868,397
57,75,3705868,188
60,89,3705868,101
31,89,3705868,1011
73,88,3706884,773
63,85,3706884,1049
70,99,3706884,1049
39,81,3706884,712
72,88,3707597,397
39,76,3707597,367
70,83,3707934,574
58,80,3707934,736
61,94,3707934,675
34,89,3707934,1014
57,75,3708610,220
60,89,3708610,133
67,91,3708949,400
33,91,3708949,1014
58,80,3709630,394
61,94,3709630,333
62,89,3709964,397
57,75,3709964,188
60,89,3709964,101
31,89,3709964,1011
73,88,3710980,773
67,80,3710980,1049
70,94,3710980,1049
39,81,3710980,712
72,88,3711693,397
39,76,3711693,367
70,83,3712030,574
62,75,3712030,328
67,89,3712030,154
34,89,3712030,1014
73,88,3713045,741
60,80,3713045,741
67,94,3713045,680
39,79,3713045,680
72,88,3713726,394
58,75,3713726,215
65,89,3713726,128
39,76,3713726,364
70,83,3714060,571
34,89,3714060,1011
62,102,3714736,2404
67,116,3714736,2404
73,88,3715076,773
39,81,3715076,712
72,88,3715789,397
39,76,3715789,367
70,83,3716126,574
34,89,3716126,1014
67,91,3717141,400
33,91,3717141,1014
62,89,3718156,397
31,89,3718156,1011
65,88,3719172,773
43,81,3719172,712
66,83,3719885,218
43,76,3719885,367
42,89,3720222,1014
67,110,3720898,1353
41,91,3721237,1014
79,89,3722252,397
40,89,3722252,1011
65,88,3723268,773
43,81,3723268,712
66,83,3723981,218
43,76,3723981,367
42,89,3724318,1014
67,110,3724994,1353
41,91,3725333,1014
79,89,3726348,397
40,89,3726348,1011
65,76,3727364,712
43,81,3727364,712
65,76,3728077,397
43,76,3728077,367
67,83,3728414,574
42,89,3728414,1014
74,88,3729429,741
41,91,3729429,1014
72,80,3730110,394
79,94,3730110,333
70,88,3730444,736
40,89,3730444,1011
67,88,3731120,396
53,85,3731460,682
62,85,3731460,682
65,99,3731460,712
43,93,3731460,682
54,80,3732173,306
63,80,3732173,306
66,94,3732173,336
42,88,3732173,306
55,80,3733186,1353
64,80,3733186,1353
67,94,3733186,1353
43,88,3733186,1353
56,59,3735556,435
62,59,3735556,435
65,73,3735556,435
57,55,3736606,400
63,55,3736606,400
66,69,3736606,400
58,57,3737621,400
64,57,3737621,400
67,71,3737621,400
56,59,3739652,435
62,59,3739652,435
65,73,3739652,435
57,54,3740702,736
63,54,3740702,736
66,68,3740702,675
58,49,3741378,220
64,49,3741378,35
67,63,3741378,133
56,58,3743408,1052
62,58,3743408,1052
65,72,3743408,1052
56,42,3744461,397
62,42,3744461,397
65,56,3744461,336
57,49,3744798,574
63,49,3744798,306
66,63,3744798,400
58,57,3745813,400
64,57,3745813,400
67,71,3745813,400
53,55,3746828,397
59,55,3746828,397
62,69,3746828,397
56,54,3747844,773
62,54,3747844,773
65,68,3747844,712
57,49,3748557,218
63,49,3748557,33
66,63,3748557,131
58,54,3749570,133
64,54,3749570,103
67,68,3749570,133
56,59,3751940,435
62,59,3751940,435
65,73,3751940,435
57,55,3752990,400
63,55,3752990,400
66,69,3752990,400
58,57,3754005,400
64,57,3754005,400
67,71,3754005,400
56,59,3756036,435
62,59,3756036,435
65,73,3756036,435
57,54,3757086,736
63,54,3757086,736
66,68,3757086,675
58,49,3757762,220
64,49,3757762,35
67,63,3757762,133
56,70,3759792,1052
62,70,3759792,1052
65,84,3759792,1052
56,54,3760845,397
62,54,3760845,397
65,68,3760845,336
57,49,3761182,352
63,49,3761182,167
66,63,3761182,265
53,54,3761858,399
59,54,3761858,399
62,68,3761858,338
58,49,3762197,270
64,49,3762197,172
67,63,3762197,270
52,54,3762878,394
58,54,3762878,394
61,68,3762878,333
53,54,3763212,736
59,54,3763212,736
62,68,3763212,675
54,54,3763888,396
60,54,3763888,396
63,68,3763888,335
56,54,3764228,773
62,54,3764228,773
65,68,3764228,712
57,49,3764941,218
63,49,3764941,33
66,63,3764941,131
58,54,3765954,133
64,54,3765954,103
67,68,3765954,133
67,71,3767308,1011
79,85,3767308,1011
56,72,3768324,435
62,72,3768324,435
65,86,3768324,435
53,80,3768324,435
57,68,3769374,400
63,68,3769374,400
66,82,3769374,400
54,76,3769374,400
58,70,3770389,400
64,70,3770389,400
67,84,3770389,400
55,78,3770389,400
56,72,3772420,435
62,72,3772420,435
65,86,3772420,435
53,80,3772420,435
57,67,3773470,736
63,67,3773470,736
66,81,3773470,675
54,75,3773470,736
58,62,3774146,220
64,62,3774146,35
67,76,3774146,133
55,70,3774146,220
56,74,3776176,1052
62,74,3776176,1052
65,88,3776176,1052
53,82,3776176,1052
56,55,3777229,397
62,55,3777229,397
65,69,3777229,336
53,63,3777229,397
57,62,3777566,574
63,62,3777566,306
66,76,3777566,400
54,70,3777566,574
58,70,3778581,400
64,70,3778581,400
67,84,3778581,400
55,78,3778581,400
53,68,3779596,397
59,68,3779596,397
62,82,3779596,397
50,76,3779596,397
56,67,3780612,773
62,67,3780612,773
65,81,3780612,712
53,75,3780612,773
57,62,3781325,218
63,62,3781325,33
66,76,3781325,131
54,70,3781325,218
58,67,3782338,133
64,67,3782338,103
67,81,3782338,133
55,75,3782338,133
56,72,3784708,435
62,72,3784708,435
65,86,3784708,435
53,80,3784708,435
57,68,3785758,400
63,68,3785758,400
66,82,3785758,400
54,76,3785758,400
58,70,3786773,400
64,70,3786773,400
67,84,3786773,400
55,78,3786773,400
56,72,3788804,435
62,72,3788804,435
65,86,3788804,435
53,80,3788804,435
57,67,3789854,736
63,67,3789854,736
66,81,3789854,675
54,75,3789854,736
58,62,3790530,220
64,62,3790530,35
67,76,3790530,133
55,70,3790530,220
56,86,3792560,1052
62,86,3792560,1052
65,100,3792560,1052
53,94,3792560,1052
56,67,3793613,397
62,67,3793613,397
65,81,3793613,336
53,75,3793613,397
57,62,3793950,352
63,62,3793950,167
66,76,3793950,265
54,70,3793950,352
53,67,3794626,308
59,67,3794626,399
62,81,3794626,338
53,67,3794626,308
62,81,3794626,338
58,62,3794965,270
64,62,3794965,172
67,76,3794965,270
55,78,3794965,270
52,67,3795646,394
58,67,3795646,394
61,81,3795646,333
60,75,3795646,303
53,67,3795980,736
59,67,3795980,736
62,81,3795980,675
50,75,3795980,736
54,67,3796656,396
60,67,3796656,396
63,81,3796656,335
51,75,3796656,396
56,67,3796996,773
62,67,3796996,773
65,81,3796996,712
53,75,3796996,773
57,62,3797709,218
63,62,3797709,33
66,76,3797709,131
54,70,3797709,218
58,67,3798722,133
64,67,3798722,103
67,81,3798722,133
55,75,3798722,133
67,87,3800076,1011
79,101,3800076,1011
74,93,3801092,435
62,81,3801092,435
41,85,3801092,435
50,85,3801092,435
53,99,3801092,435
77,89,3802142,400
65,77,3802142,400
42,81,3802142,400
51,81,3802142,400
54,95,3802142,400
79,91,3803157,400
70,79,3803157,400
43,83,3803157,400
52,83,3803157,400
55,97,3803157,400
67,77,3804172,397
38,88,3804172,397
74,93,3805188,435
41,85,3805188,435
50,85,3805188,435
53,99,3805188,435
72,88,3805901,306
77,88,3806238,736
70,89,3806238,645
42,80,3806238,736
51,80,3806238,736
54,94,3806238,675
79,83,3806914,220
67,88,3806914,133
43,75,3806914,220
52,75,3806914,35
55,89,3806914,133
62,88,3807934,303
65,89,3808268,265
38,88,3808268,645
82,98,3808944,1052
72,88,3808944,1052
41,102,3808944,1052
50,102,3808944,335
53,112,3808944,1052
50,80,3809284,712
82,76,3809997,397
72,88,3809997,306
41,80,3809997,397
50,80,3809997,397
53,94,3809997,336
81,83,3810334,574
70,89,3810334,265
42,75,3810334,574
51,75,3810334,306
54,89,3810334,400
67,88,3811010,308
79,91,3811349,400
70,91,3811349,400
43,83,3811349,400
52,83,3811349,400
55,97,3811349,400
77,89,3812364,397
67,89,3812364,397
38,80,3812364,397
47,81,3812364,397
50,95,3812364,397
74,88,3813380,773
62,93,3813380,682
41,80,3813380,773
50,80,3813380,773
53,94,3813380,712
77,83,3814093,218
65,88,3814093,131
42,75,3814093,218
51,75,3814093,33
54,89,3814093,131
79,88,3815106,133
67,88,3815106,133
43,80,3815106,133
52,80,3815106,103
55,94,3815106,133
72,88,3816126,303
70,89,3816460,265
38,88,3816460,397
67,88,3817136,305
74,93,3817476,435
62,81,3817476,435
41,85,3817476,435
50,85,3817476,435
53,99,3817476,435
77,89,3818526,400
65,77,3818526,400
42,81,3818526,400
51,81,3818526,400
54,95,3818526,400
79,91,3819541,400
70,79,3819541,400
43,83,3819541,400
52,83,3819541,400
55,97,3819541,400
67,77,3820556,397
38,88,3820556,397
74,93,3821572,435
41,85,3821572,435
50,85,3821572,435
53,99,3821572,435
72,88,3822285,306
77,88,3822622,736
70,89,3822622,645
42,80,3822622,736
51,80,3822622,736
54,94,3822622,675
79,83,3823298,220
67,88,3823298,133
43,75,3823298,220
52,75,3823298,35
55,89,3823298,133
67,88,3824318,303
70,89,3824652,265
38,88,3824652,645
82,98,3825328,1052
72,88,3825328,1052
41,102,3825328,1052
50,102,3825328,335
53,112,3825328,1052
50,80,3825668,712
82,76,3826381,397
72,88,3826381,306
41,80,3826381,397
50,80,3826381,397
53,94,3826381,336
81,83,3826718,574
70,89,3826718,400
42,75,3826718,352
51,75,3826718,167
54,89,3826718,265
38,79,3827394,399
47,80,3827394,399
50,94,3827394,338
79,91,3827733,400
72,91,3827733,400
43,75,3827733,357
52,75,3827733,172
55,89,3827733,270
37,79,3828414,394
46,80,3828414,394
49,94,3828414,333
77,89,3828748,397
70,89,3828748,397
38,79,3828748,736
47,80,3828748,736
50,94,3828748,675
39,79,3829424,396
48,80,3829424,396
51,94,3829424,335
74,88,3829764,773
62,93,3829764,682
41,80,3829764,773
50,80,3829764,773
53,94,3829764,712
77,83,3830477,218
65,88,3830477,131
42,75,3830477,218
51,75,3830477,33
54,89,3830477,131
79,88,3831490,133
67,88,3831490,133
43,80,3831490,133
52,80,3831490,103
55,94,3831490,133
70,81,3832844,645
74,81,3832844,645
79,95,3832844,675
67,85,3833860,2064
79,99,3833860,2064
43,81,3833860,712
43,76,3834573,367
42,89,3834910,1014
41,91,3835925,1014
40,89,3836940,1011
39,93,3837956,1049
61,102,3838669,1351
73,116,3838669,1351
34,89,3839006,1014
60,83,3840021,650
72,97,3840021,680
33,91,3840021,1014
58,80,3840702,303
70,94,3840702,333
55,81,3841036,1698
67,95,3841036,1728
30,89,3841036,1011
43,81,3842052,712
73,88,3842765,306
43,76,3842765,367
72,89,3843102,645
42,89,3843102,1014
70,88,3843778,308
72,91,3844117,650
41,91,3844117,1014
73,88,3844798,303
65,89,3845132,645
40,89,3845132,1011
67,88,3845808,305
70,93,3846148,682
39,93,3846148,1049
67,88,3846861,306
65,89,3847198,645
43,89,3847198,1014
79,88,3847874,830
42,91,3848213,1014
77,88,3848448,128
79,88,3848576,128
77,83,3848883,246
73,89,3849228,319
38,89,3849228,1011
72,88,3849568,309
70,88,3849898,341
67,85,3850244,2064
70,99,3850244,2064
43,81,3850244,712
43,76,3850957,367
42,89,3851294,1014
69,83,3852309,2026
72,97,3852309,2026
41,91,3852309,1014
40,89,3853324,1011
70,85,3854340,2064
74,99,3854340,2064
39,93,3854340,1049
34,89,3855390,1014
69,83,3856405,2026
75,97,3856405,2026
33,91,3856405,1014
30,89,3857420,1011
70,85,3858436,435
74,99,3858436,435
34,81,3858436,712
34,76,3859149,367
60,81,3859486,400
67,95,3859486,400
31,89,3859486,1014
74,83,3860501,400
79,97,3860501,400
34,91,3860501,1014
63,81,3861516,397
67,95,3861516,397
36,89,3861516,1011
78,93,3862532,682
67,93,3862532,682
38,93,3862532,1049
75,88,3863245,398
69,88,3863245,398
40,89,3863582,1014
74,110,3864258,989
66,110,3864258,2365
42,91,3864597,1014
75,88,3865278,394
74,88,3865612,736
38,89,3865612,1011
75,88,3866288,396
74,71,3866628,609
43,81,3866628,712
43,76,3867341,367
70,77,3867678,400
42,89,3867678,1014
67,79,3868693,400
41,91,3868693,1014
62,77,3869708,397
40,89,3869708,1011
70,81,3870724,435
39,93,3870724,1049
67,89,3871774,645
34,89,3871774,1014
69,88,3872450,989
33,91,3872789,1014
75,88,3873470,394
74,88,3873804,736
30,89,3873804,1011
75,88,3874480,396
70,83,3874820,609
39,93,3874820,1049
67,89,3875870,645
34,89,3875870,1014
69,88,3876546,989
33,91,3876885,1014
75,88,3877566,394
74,88,3877900,736
30,89,3877900,1011
75,88,3878576,396
70,83,3878916,609
39,93,3878916,1049
67,89,3879966,645
34,89,3879966,1014
69,88,3880642,989
33,91,3880981,1014
72,80,3881662,394
75,94,3881662,333
70,80,3881996,736
74,94,3881996,675
30,89,3881996,1011
72,80,3882672,396
75,94,3882672,335
70,80,3883012,712
74,94,3883012,712
43,81,3883012,712
70,80,3883725,336
74,94,3883725,336
43,76,3883725,367
67,75,3884062,400
70,89,3884062,400
42,89,3884062,1014
62,83,3885077,400
67,97,3885077,400
41,91,3885077,1014
58,81,3886092,397
62,95,3886092,397
40,89,3886092,1011
67,85,3887108,435
70,99,3887108,435
39,93,3887108,1049
69,81,3888158,675
72,95,3888158,675
43,89,3888158,1014
66,80,3888834,989
69,94,3888834,1019
42,91,3889173,1014
75,88,3889854,394
74,88,3890188,736
38,89,3890188,1011
75,88,3890864,396
67,75,3891204,609
70,89,3891204,435
39,93,3891204,1049
69,81,3892254,675
72,95,3892254,675
43,89,3892254,1014
66,80,3892930,989
69,94,3892930,1019
42,91,3893269,1014
75,88,3893950,394
74,88,3894284,736
38,89,3894284,1011
75,88,3894960,396
67,75,3895300,609
70,89,3895300,435
39,93,3895300,1049
69,81,3896350,675
72,95,3896350,675
43,89,3896350,1014
66,80,3897026,989
69,94,3897026,1019
42,91,3897365,1014
75,88,3898046,394
74,88,3898380,736
38,89,3898380,1011
75,88,3899056,396
74,71,3899396,609
43,81,3899396,712
43,76,3900109,367
70,77,3900446,400
42,89,3900446,1014
67,79,3901461,400
41,91,3901461,1014
62,77,3902476,397
40,89,3902476,1011
70,81,3903492,435
39,93,3903492,1049
67,89,3904542,645
34,89,3904542,1014
69,88,3905218,989
33,91,3905557,1014
75,88,3906238,394
74,88,3906572,736
30,89,3906572,1011
75,88,3907248,396
70,83,3907588,609
39,93,3907588,1049
67,89,3908638,645
34,89,3908638,1014
69,88,3909314,989
33,91,3909653,1014
75,88,3910334,394
74,88,3910668,736
30,89,3910668,1011
75,88,3911344,396
70,83,3911684,609
39,93,3911684,1049
67,89,3912734,645
34,89,3912734,1014
69,88,3913410,989
33,91,3913749,1014
75,88,3914430,394
74,88,3914764,736
30,89,3914764,1011
75,88,3915440,396
74,83,3915780,609
43,81,3915780,712
43,76,3916493,367
79,89,3916830,400
42,89,3916830,1014
72,91,3917845,400
41,91,3917845,1014
70,89,3918860,397
40,89,3918860,1011
72,88,3919876,773
39,93,3919876,1049
70,83,3920589,218
34,89,3920926,1014
72,110,3921602,1353
33,91,3921941,1014
58,81,3922956,265
70,95,3922956,265
30,89,3922956,1011
60,80,3923632,396
72,94,3923632,335
61,80,3923972,773
73,94,3923972,712
36,81,3923972,712
60,80,3924685,397
72,94,3924685,336
36,76,3924685,367
58,75,3925022,574
70,89,3925022,400
34,89,3925022,400
55,83,3926037,400
67,97,3926037,400
36,91,3926037,400
62,89,3927052,397
37,89,3927052,397
53,80,3928068,773
60,80,3928068,773
65,94,3928068,712
38,93,3928068,712
54,75,3928781,218
61,75,3928781,33
66,89,3928781,131
38,88,3928781,306
42,89,3929118,645
55,102,3929794,2365
62,102,3929794,2365
67,116,3929794,2365
43,88,3929794,2365
73,88,3932164,773
39,93,3932164,1049
72,88,3932877,397
70,83,3933214,574
34,89,3933214,1014
67,91,3934229,400
33,91,3934229,1014
62,89,3935244,397
31,89,3935244,1011
73,88,3936260,773
39,93,3936260,1049
72,88,3936973,397
70,83,3937310,574
34,89,3937310,1014
67,91,3938325,400
33,91,3938325,1014
62,89,3939340,397
31,89,3939340,1011
73,88,3940356,773
39,93,3940356,1049
72,88,3941069,397
70,83,3941406,574
34,89,3941406,1014
73,88,3942421,741
39,91,3942421,1014
72,88,3943102,394
70,83,3943436,571
34,89,3943436,1011
73,88,3944452,773
39,93,3944452,1049
72,88,3945165,397
70,83,3945502,574
34,89,3945502,1014
67,91,3946517,400
33,91,3946517,1014
62,89,3947532,397
31,89,3947532,1011
65,88,3948548,773
43,81,3948548,712
66,83,3949261,218
43,76,3949261,367
42,89,3949598,1014
67,110,3950274,1353
41,91,3950613,1014
79,89,3951628,397
40,89,3951628,1011
65,88,3952644,773
43,81,3952644,712
66,83,3953357,218
43,76,3953357,367
42,89,3953694,1014
67,110,3954370,1353
41,91,3954709,1014
79,89,3955724,397
40,89,3955724,1011
65,76,3956740,712
43,81,3956740,712
65,76,3957453,397
43,76,3957453,367
67,83,3957790,574
42,89,3957790,1014
74,88,3958805,741
41,91,3958805,1014
72,80,3959486,394
79,94,3959486,333
70,88,3959820,736
40,89,3959820,1011
67,88,3960496,396
65,88,3960836,773
43,81,3960836,712
66,83,3961549,218
43,76,3961549,367
42,89,3961886,1014
67,110,3962562,2365
41,91,3962901,1014
40,89,3963916,1011
73,88,3964932,773
63,85,3964932,1049
70,99,3964932,1049
39,81,3964932,712
72,88,3965645,397
39,76,3965645,367
70,83,3965982,574
58,80,3965982,736
61,94,3965982,675
34,89,3965982,1014
57,75,3966658,220
60,89,3966658,133
67,91,3966997,400
33,91,3966997,1014
58,80,3967678,394
61,94,3967678,333
62,89,3968012,397
57,75,3968012,188
60,89,3968012,101
31,89,3968012,1011
73,88,3969028,773
63,85,3969028,1049
70,99,3969028,1049
39,81,3969028,712
72,88,3969741,397
39,76,3969741,367
70,83,3970078,574
58,80,3970078,736
61,94,3970078,675
34,89,3970078,1014
57,75,3970754,220
60,89,3970754,133
67,91,3971093,400
33,91,3971093,1014
58,80,3971774,394
61,94,3971774,333
62,89,3972108,397
57,75,3972108,188
60,89,3972108,101
31,89,3972108,1011
73,88,3973124,773
67,80,3973124,1049
70,94,3973124,1049
39,81,3973124,712
72,88,3973837,397
39,76,3973837,367
70,83,3974174,574
62,75,3974174,328
67,89,3974174,154
34,89,3974174,1014
73,88,3975189,741
60,80,3975189,741
67,94,3975189,680
39,79,3975189,680
72,88,3975870,394
58,75,3975870,215
65,89,3975870,128
39,76,3975870,364
70,83,3976204,571
34,89,3976204,1011
62,102,3976880,2404
67,116,3976880,2404
73,88,3977220,773
39,81,3977220,712
72,88,3977933,397
39,76,3977933,367
70,83,3978270,574
34,89,3978270,1014
67,91,3979285,400
33,91,3979285,1014
62,89,3980300,397
31,89,3980300,1011
65,88,3981316,773
43,81,3981316,712
66,83,3982029,218
43,76,3982029,367
42,89,3982366,1014
67,110,3983042,1353
41,91,3983381,1014
79,89,3984396,397
40,89,3984396,1011
65,88,3985412,773
43,81,3985412,712
66,83,3986125,218
43,76,3986125,367
42,89,3986462,1014
67,110,3987138,1353
41,91,3987477,1014
79,89,3988492,397
40,89,3988492,1011
65,76,3989508,712
43,81,3989508,712
65,76,3990221,397
43,76,3990221,367
67,83,3990558,574
42,89,3990558,1014
74,88,3991573,741
41,91,3991573,1014
72,80,3992254,394
79,94,3992254,333
70,88,3992588,736
40,89,3992588,1011
67,88,3993264,396
53,85,3993604,682
62,85,3993604,682
65,99,3993604,712
43,93,3993604,682
54,80,3994317,306
63,80,3994317,306
66,94,3994317,336
42,88,3994317,306
55,80,3995330,1353
64,80,3995330,1353
67,94,3995330,1353
43,88,3995330,1353
56,59,3997700,435
62,59,3997700,435
65,73,3997700,435
57,55,3998750,400
63,55,3998750,400
66,69,3998750,400
58,57,3999765,400
64,57,3999765,400
67,71,3999765,400
56,59,4001796,435
62,59,4001796,435
65,73,4001796,435
57,54,4002846,736
63,54,4002846,736
66,68,4002846,675
58,49,4003522,220
64,49,4003522,35
67,63,4003522,133
56,58,4005552,1052
62,58,4005552,1052
65,72,4005552,1052
56,42,4006605,397
62,42,4006605,397
65,56,4006605,336
57,49,4006942,574
63,49,4006942,306
66,63,4006942,400
58,57,4007957,400
64,57,4007957,400
67,71,4007957,400
53,55,4008972,397
59,55,4008972,397
62,69,4008972,397
56,54,4009988,773
62,54,4009988,773
65,68,4009988,712
57,49,4010701,218
63,49,4010701,33
66,63,4010701,131
58,54,4011714,133
64,54,4011714,103
67,68,4011714,133
56,59,4014084,435
62,59,4014084,435
65,73,4014084,435
57,55,4015134,400
63,55,4015134,400
66,69,4015134,400
58,57,4016149,400
64,57,4016149,400
67,71,4016149,400
56,59,4018180,435
62,59,4018180,435
65,73,4018180,435
57,54,4019230,736
63,54,4019230,736
66,68,4019230,675
58,49,4019906,220
64,49,4019906,35
67,63,4019906,133
56,70,4021936,1052
62,70,4021936,1052
65,84,4021936,1052
56,54,4022989,397
62,54,4022989,397
65,68,4022989,336
57,49,4023326,352
63,49,4023326,167
66,63,4023326,265
53,54,4024002,399
59,54,4024002,399
62,68,4024002,338
58,49,4024341,270
64,49,4024341,172
67,63,4024341,270
52,54,4025022,394
58,54,4025022,394
61,68,4025022,333
53,54,4025356,736
59,54,4025356,736
62,68,4025356,675
54,54,4026032,396
60,54,4026032,396
63,68,4026032,335
56,54,4026372,773
62,54,4026372,773
65,68,4026372,712
57,49,4027085,218
63,49,4027085,33
66,63,4027085,131
58,54,4028098,133
64,54,4028098,103
67,68,4028098,133
67,71,4029452,1011
79,85,4029452,1011
56,72,4030468,435
62,72,4030468,435
65,86,4030468,435
53,80,4030468,435
57,68,4031518,400
63,68,4031518,400
66,82,4031518,400
54,76,4031518,400
58,70,4032533,400
64,70,4032533,400
67,84,4032533,400
55,78,4032533,400
56,72,4034564,435
62,72,4034564,435
65,86,4034564,435
53,80,4034564,435
57,67,4035614,736
63,67,4035614,736
66,81,4035614,675
54,75,4035614,736
58,62,4036290,220
64,62,4036290,35
67,76,4036290,133
55,70,4036290,220
56,74,4038320,1052
62,74,4038320,1052
65,88,4038320,1052
53,82,4038320,1052
56,55,4039373,397
62,55,4039373,397
65,69,4039373,336
53,63,4039373,397
57,62,4039710,574
63,62,4039710,306
66,76,4039710,400
54,70,4039710,574
58,70,4040725,400
64,70,4040725,400
67,84,4040725,400
55,78,4040725,400
53,68,4041740,397
59,68,4041740,397
62,82,4041740,397
50,76,4041740,397
56,67,4042756,773
62,67,4042756,773
65,81,4042756,712
53,75,4042756,773
57,62,4043469,218
63,62,4043469,33
66,76,4043469,131
54,70,4043469,218
58,67,4044482,133
64,67,4044482,103
67,81,4044482,133
55,75,4044482,133
56,72,4046852,435
62,72,4046852,435
65,86,4046852,435
53,80,4046852,435
57,68,4047902,400
63,68,4047902,400
66,82,4047902,400
54,76,4047902,400
58,70,4048917,400
64,70,4048917,400
67,84,4048917,400
55,78,4048917,400
56,72,4050948,435
62,72,4050948,435
65,86,4050948,435
53,80,4050948,435
57,67,4051998,736
63,67,4051998,736
66,81,4051998,675
54,75,4051998,736
58,62,4052674,220
64,62,4052674,35
67,76,4052674,133
55,70,4052674,220
56,86,4054704,1052
62,86,4054704,1052
65,100,4054704,1052
53,94,4054704,1052
56,67,4055757,397
62,67,4055757,397
65,81,4055757,336
53,75,4055757,397
57,62,4056094,352
63,62,4056094,167
66,76,4056094,265
54,70,4056094,352
53,67,4056770,308
59,67,4056770,399
62,81,4056770,338
53,67,4056770,308
62,81,4056770,338
58,62,4057109,270
64,62,4057109,172
67,76,4057109,270
55,78,4057109,270
52,67,4057790,394
58,67,4057790,394
61,81,4057790,333
60,75,4057790,303
53,67,4058124,736
59,67,4058124,736
62,81,4058124,675
50,75,4058124,736
54,67,4058800,396
60,67,4058800,396
63,81,4058800,335
51,75,4058800,396
56,67,4059140,773
62,67,4059140,773
65,81,4059140,712
53,75,4059140,773
57,62,4059853,218
63,62,4059853,33
66,76,4059853,131
54,70,4059853,218
58,67,4060866,133
64,67,4060866,103
67,81,4060866,133
55,75,4060866,133
67,87,4062220,1011
79,101,4062220,1011
74,93,4063236,435
62,81,4063236,435
41,85,4063236,435
50,85,4063236,435
53,99,4063236,435
77,89,4064286,400
65,77,4064286,400
42,81,4064286,400
51,81,4064286,400
54,95,4064286,400
79,91,4065301,400
70,79,4065301,400
43,83,4065301,400
52,83,4065301,400
55,97,4065301,400
67,77,4066316,397
38,88,4066316,397
74,93,4067332,435
41,85,4067332,435
50,85,4067332,435
53,99,4067332,435
72,88,4068045,306
77,88,4068382,736
70,89,4068382,645
42,80,4068382,736
51,80,4068382,736
54,94,4068382,675
79,83,4069058,220
67,88,4069058,133
43,75,4069058,220
52,75,4069058,35
55,89,4069058,133
62,88,4070078,303
65,89,4070412,265
38,88,4070412,645
82,98,4071088,1052
72,88,4071088,1052
41,102,4071088,1052
50,102,4071088,335
53,112,4071088,1052
50,80,4071428,712
82,76,4072141,397
72,88,4072141,306
41,80,4072141,397
50,80,4072141,397
53,94,4072141,336
81,83,4072478,574
70,89,4072478,265
42,75,4072478,574
51,75,4072478,306
54,89,4072478,400
67,88,4073154,308
79,91,4073493,400
70,91,4073493,400
43,83,4073493,400
52,83,4073493,400
55,97,4073493,400
77,89,4074508,397
67,89,4074508,397
38,80,4074508,397
47,81,4074508,397
50,95,4074508,397
74,88,4075524,773
62,93,4075524,682
41,80,4075524,773
50,80,4075524,773
53,94,4075524,712
77,83,4076237,218
65,88,4076237,131
42,75,4076237,218
51,75,4076237,33
54,89,4076237,131
79,88,4077250,133
67,88,4077250,133
43,80,4077250,133
52,80,4077250,103
55,94,4077250,133
72,88,4078270,303
70,89,4078604,265
38,88,4078604,397
67,88,4079280,305
74,93,4079620,435
62,81,4079620,435
41,85,4079620,435
50,85,4079620,435
53,99,4079620,435
77,89,4080670,400
65,77,4080670,400
42,81,4080670,400
51,81,4080670,400
54,95,4080670,400
79,91,4081685,400
70,79,4081685,400
43,83,4081685,400
52,83,4081685,400
55,97,4081685,400
67,77,4082700,397
38,88,4082700,397
74,93,4083716,435
41,85,4083716,435
50,85,4083716,435
53,99,4083716,435
72,88,4084429,306
77,88,4084766,736
70,89,4084766,645
42,80,4084766,736
51,80,4084766,736
54,94,4084766,675
79,83,4085442,220
67,88,4085442,133
43,75,4085442,220
52,75,4085442,35
55,89,4085442,133
67,88,4086462,303
70,89,4086796,265
38,88,4086796,645
82,98,4087472,1052
72,88,4087472,1052
41,102,4087472,1052
50,102,4087472,335
53,112,4087472,1052
50,80,4087812,712
82,76,4088525,397
72,88,4088525,306
41,80,4088525,397
50,80,4088525,397
53,94,4088525,336
81,83,4088862,574
70,89,4088862,400
42,75,4088862,352
51,75,4088862,167
54,89,4088862,265
38,79,4089538,399
47,80,4089538,399
50,94,4089538,338
79,91,4089877,400
72,91,4089877,400
43,75,4089877,357
52,75,4089877,172
55,89,4089877,270
37,79,4090558,394
46,80,4090558,394
49,94,4090558,333
77,89,4090892,397
70,89,4090892,397
38,79,4090892,736
47,80,4090892,736
50,94,4090892,675
39,79,4091568,396
48,80,4091568,396
51,94,4091568,335
74,88,4091908,773
62,93,4091908,682
41,80,4091908,773
50,80,4091908,773
53,94,4091908,712
77,83,4092621,218
65,88,4092621,131
42,75,4092621,218
51,75,4092621,33
54,89,4092621,131
79,88,4093634,133
67,88,4093634,133
43,80,4093634,133
52,80,4093634,103
55,94,4093634,133
70,81,4094988,645
74,81,4094988,645
79,95,4094988,675
67,85,4096004,2064
79,99,4096004,2064
43,81,4096004,712
43,76,4096717,367
42,89,4097054,1014
41,91,4098069,1014
40,89,4099084,1011
39,93,4100100,1049
61,102,4100813,1351
73,116,4100813,1351
34,89,4101150,1014
60,83,4102165,650
72,97,4102165,680
33,91,4102165,1014
58,80,4102846,303
70,94,4102846,333
55,81,4103180,1698
67,95,4103180,1728
30,89,4103180,1011
43,81,4104196,712
73,88,4104909,306
43,76,4104909,367
72,89,4105246,645
42,89,4105246,1014
70,88,4105922,308
72,91,4106261,650
41,91,4106261,1014
73,88,4106942,303
65,89,4107276,645
40,89,4107276,1011
67,88,4107952,305
70,93,4108292,682
39,93,4108292,1049
67,88,4109005,306
65,89,4109342,645
43,89,4109342,1014
79,88,4110018,830
42,91,4110357,1014
77,88,4110592,128
79,88,4110720,128
77,83,4111027,246
73,89,4111372,319
38,89,4111372,1011
72,88,4111712,309
70,88,4112042,341
67,85,4112388,2064
70,99,4112388,2064
43,81,4112388,712
43,76,4113101,367
42,89,4113438,1014
69,83,4114453,2026
72,97,4114453,2026
41,91,4114453,1014
40,89,4115468,1011
70,85,4116484,2064
74,99,4116484,2064
39,93,4116484,1049
34,89,4117534,1014
69,83,4118549,2026
75,97,4118549,2026
33,91,4118549,1014
30,89,4119564,1011
70,85,4120580,435
74,99,4120580,435
34,81,4120580,712
34,76,4121293,367
60,81,4121630,400
67,95,4121630,400
31,89,4121630,1014
74,83,4122645,400
79,97,4122645,400
34,91,4122645,1014
63,81,4123660,397
67,95,4123660,397
36,89,4123660,1011
78,93,4124676,682
67,93,4124676,682
38,93,4124676,1049
75,88,4125389,398
69,88,4125389,398
40,89,4125726,1014
74,110,4126402,989
66,110,4126402,2365
42,91,4126741,1014
75,88,4127422,394
74,88,4127756,736
38,89,4127756,1011
75,88,4128432,396
74,71,4128772,609
43,81,4128772,712
43,76,4129485,367
70,77,4129822,400
42,89,4129822,1014
67,79,4130837,400
41,91,4130837,1014
62,77,4131852,397
40,89,4131852,1011
70,81,4132868,435
39,93,4132868,1049
67,89,4133918,645
34,89,4133918,1014
69,88,4134594,989
33,91,4134933,1014
75,88,4135614,394
74,88,4135948,736
30,89,4135948,1011
75,88,4136624,396
70,83,4136964,609
39,93,4136964,1049
67,89,4138014,645
34,89,4138014,1014
69,88,4138690,989
33,91,4139029,1014
75,88,4139710,394
74,88,4140044,736
30,89,4140044,1011
75,88,4140720,396
70,83,4141060,609
39,93,4141060,1049
67,89,4142110,645
34,89,4142110,1014
69,88,4142786,989
33,91,4143125,1014
72,80,4143806,394
75,94,4143806,333
70,80,4144140,736
74,94,4144140,675
30,89,4144140,1011
72,80,4144816,396
75,94,4144816,335
70,80,4145156,712
74,94,4145156,712
43,81,4145156,712
70,80,4145869,336
74,94,4145869,336
43,76,4145869,367
67,75,4146206,400
70,89,4146206,400
42,89,4146206,1014
62,83,4147221,400
67,97,4147221,400
41,91,4147221,1014
58,81,4148236,397
62,95,4148236,397
40,89,4148236,1011
67,85,4149252,435
70,99,4149252,435
39,93,4149252,1049
69,81,4150302,675
72,95,4150302,675
43,89,4150302,1014
66,80,4150978,989
69,94,4150978,1019
42,91,4151317,1014
75,88,4151998,394
74,88,4152332,736
38,89,4152332,1011
75,88,4153008,396
67,75,4153348,609
70,89,4153348,435
39,93,4153348,1049
69,81,4154398,675
72,95,4154398,675
43,89,4154398,1014
66,80,4155074,989
69,94,4155074,1019
42,91,4155413,1014
75,88,4156094,394
74,88,4156428,736
38,89,4156428,1011
75,88,4157104,396
67,75,4157444,609
70,89,4157444,435
39,93,4157444,1049
69,81,4158494,675
72,95,4158494,675
43,89,4158494,1014
66,80,4159170,989
69,94,4159170,1019
42,91,4159509,1014
75,88,4160190,394
74,88,4160524,736
38,89,4160524,1011
75,88,4161200,396
74,71,4161540,609
43,81,4161540,712
43,76,4162253,367
70,77,4162590,400
42,89,4162590,1014
67,79,4163605,400
41,91,4163605,1014
62,77,4164620,397
40,89,4164620,1011
70,81,4165636,435
39,93,4165636,1049
67,89,4166686,645
34,89,4166686,1014
69,88,4167362,989
33,91,4167701,1014
75,88,4168382,394
74,88,4168716,736
30,89,4168716,1011
75,88,4169392,396
70,83,4169732,609
39,93,4169732,1049
67,89,4170782,645
34,89,4170782,1014
69,88,4171458,989
33,91,4171797,1014
75,88,4172478,394
74,88,4172812,736
30,89,4172812,1011
75,88,4173488,396
70,83,4173828,609
39,93,4173828,1049
67,89,4174878,645
34,89,4174878,1014
69,88,4175554,989
33,91,4175893,1014
75,88,4176574,394
74,88,4176908,736
30,89,4176908,1011
75,88,4177584,396
74,83,4177924,609
43,81,4177924,712
43,76,4178637,367
79,89,4178974,400
42,89,4178974,1014
72,91,4179989,400
41,91,4179989,1014
70,89,4181004,397
40,89,4181004,1011
72,88,4182020,773
39,93,4182020,1049
70,83,4182733,218
34,89,4183070,1014
72,110,4183746,1353
33,91,4184085,1014
58,81,4185100,265
70,95,4185100,265
30,89,4185100,1011
60,80,4185776,396
72,94,4185776,335
61,80,4186116,773
73,94,4186116,712
36,81,4186116,712
60,80,4186829,397
72,94,4186829,336
36,76,4186829,367
58,75,4187166,574
70,89,4187166,400
34,89,4187166,400
55,83,4188181,400
67,97,4188181,400
36,91,4188181,400
62,89,4189196,397
37,89,4189196,397
53,80,4190212,773
60,80,4190212,773
65,94,4190212,712
38,93,4190212,712
54,75,4190925,218
61,75,4190925,33
66,89,4190925,131
38,88,4190925,306
42,89,4191262,645
55,102,4191938,2365
62,102,4191938,2365
67,116,4191938,2365
43,88,4191938,2365
73,88,4194308,773
39,93,4194308,1049
72,88,4195021,397
70,83,4195358,574
34,89,4195358,1014
67,91,4196373,400
33,91,4196373,1014
62,89,4197388,397
31,89,4197388,1011
73,88,4198404,773
39,93,4198404,1049
72,88,4199117,397
70,83,4199454,574
34,89,4199454,1014
67,91,4200469,400
33,91,4200469,1014
62,89,4201484,397
31,89,4201484,1011
73,88,4202500,773
39,93,4202500,1049
72,88,4203213,397
70,83,4203550,574
34,89,4203550,1014
73,88,4204565,741
39,91,4204565,1014
72,88,4205246,394
70,83,4205580,571
34,89,4205580,1011
73,88,4206596,773
39,93,4206596,1049
72,88,4207309,397
70,83,4207646,574
34,89,4207646,1014
67,91,4208661,400
33,91,4208661,1014
62,89,4209676,397
31,89,4209676,1011
65,88,4210692,773
43,81,4210692,712
66,83,4211405,218
43,76,4211405,367
42,89,4211742,1014
67,110,4212418,1353
41,91,4212757,1014
79,89,4213772,397
40,89,4213772,1011
65,88,4214788,773
43,81,4214788,712
66,83,4215501,218
43,76,4215501,367
42,89,4215838,1014
67,110,4216514,1353
41,91,4216853,1014
79,89,4217868,397
40,89,4217868,1011
65,76,4218884,712
43,81,4218884,712
65,76,4219597,397
43,76,4219597,367
67,83,4219934,574
42,89,4219934,1014
74,88,4220949,741
41,91,4220949,1014
72,80,4221630,394
79,94,4221630,333
70,88,4221964,736
40,89,4221964,1011
67,88,4222640,396
65,88,4222980,773
43,81,4222980,712
66,83,4223693,218
43,76,4223693,367
42,89,4224030,1014
67,110,4224706,2365
41,91,4225045,1014
40,89,4226060,1011
73,88,4227076,773
63,85,4227076,1049
70,99,4227076,1049
39,81,4227076,712
72,88,4227789,397
39,76,4227789,367
70,83,4228126,574
58,80,4228126,736
61,94,4228126,675
34,89,4228126,1014
57,75,4228802,220
60,89,4228802,133
67,91,4229141,400
33,91,4229141,1014
58,80,4229822,394
61,94,4229822,333
62,89,4230156,397
57,75,4230156,188
60,89,4230156,101
31,89,4230156,1011
73,88,4231172,773
63,85,4231172,1049
70,99,4231172,1049
39,81,4231172,712
72,88,4231885,397
39,76,4231885,367
70,83,4232222,574
58,80,4232222,736
61,94,4232222,675
34,89,4232222,1014
57,75,4232898,220
60,89,4232898,133
67,91,4233237,400
33,91,4233237,1014
58,80,4233918,394
61,94,4233918,333
62,89,4234252,397
57,75,4234252,188
60,89,4234252,101
31,89,4234252,1011
73,88,4235268,773
67,80,4235268,1049
70,94,4235268,1049
39,81,4235268,712
72,88,4235981,397
39,76,4235981,367
70,83,4236318,574
62,75,4236318,328
67,89,4236318,154
34,89,4236318,1014
73,88,4237333,741
60,80,4237333,741
67,94,4237333,680
39,79,4237333,680
72,88,4238014,394
58,75,4238014,215
65,89,4238014,128
39,76,4238014,364
70,83,4238348,571
34,89,4238348,1011
62,102,4239024,2404
67,116,4239024,2404
73,88,4239364,773
39,81,4239364,712
72,88,4240077,397
39,76,4240077,367
70,83,4240414,574
34,89,4240414,1014
67,91,4241429,400
33,91,4241429,1014
62,89,4242444,397
31,89,4242444,1011
65,88,4243460,773
43,81,4243460,712
66,83,4244173,218
43,76,4244173,367
42,89,4244510,1014
67,110,4245186,1353
41,91,4245525,1014
79,89,4246540,397
40,89,4246540,1011
65,88,4247556,773
43,81,4247556,712
66,83,4248269,218
43,76,4248269,367
42,89,4248606,1014
67,110,4249282,1353
41,91,4249621,1014
79,89,4250636,397
40,89,4250636,1011
65,76,4251652,712
43,81,4251652,712
65,76,4252365,397
43,76,4252365,367
67,83,4252702,574
42,89,4252702,1014
74,88,4253717,741
41,91,4253717,1014
72,80,4254398,394
79,94,4254398,333
70,88,4254732,736
40,89,4254732,1011
67,88,4255408,396
53,85,4255748,682
62,85,4255748,682
65,99,4255748,712
43,93,4255748,682
54,80,4256461,306
63,80,4256461,306
66,94,4256461,336
42,88,4256461,306
55,80,4257474,1353
64,80,4257474,1353
67,94,4257474,1353
43,88,4257474,1353
56,59,4259844,435
62,59,4259844,435
65,73,4259844,435
57,55,4260894,400
63,55,4260894,400
66,69,4260894,400
58,57,4261909,400
64,57,4261909,400
67,71,4261909,400
56,59,4263940,435
62,59,4263940,435
65,73,4263940,435
57,54,4264990,736
63,54,4264990,736
66,68,4264990,675
58,49,4265666,220
64,49,4265666,35
67,63,4265666,133
56,58,4267696,1052
62,58,4267696,1052
65,72,4267696,1052
56,42,4268749,397
62,42,4268749,397
65,56,4268749,336
57,49,4269086,574
63,49,4269086,306
66,63,4269086,400
58,57,4270101,400
64,57,4270101,400
67,71,4270101,400
53,55,4271116,397
59,55,4271116,397
62,69,4271116,397
56,54,4272132,773
62,54,4272132,773
65,68,4272132,712
57,49,4272845,218
63,49,4272845,33
66,63,4272845,131
58,54,4273858,133
64,54,4273858,103
67,68,4273858,133
56,59,4276228,435
62,59,4276228,435
65,73,4276228,435
57,55,4277278,400
63,55,4277278,400
66,69,4277278,400
58,57,4278293,400
64,57,4278293,400
67,71,4278293,400
56,59,4280324,435
62,59,4280324,435
65,73,4280324,435
57,54,4281374,736
63,54,4281374,736
66,68,4281374,675
58,49,4282050,220
64,49,4282050,35
67,63,4282050,133
56,70,4284080,1052
62,70,4284080,1052
65,84,4284080,1052
56,54,4285133,397
62,54,4285133,397
65,68,4285133,336
57,49,4285470,352
63,49,4285470,167
66,63,4285470,265
53,54,4286146,399
59,54,4286146,399
62,68,4286146,338
58,49,4286485,270
64,49,4286485,172
67,63,4286485,270
52,54,4287166,394
58,54,4287166,394
61,68,4287166,333
53,54,4287500,736
59,54,4287500,736
62,68,4287500,675
54,54,4288176,396
60,54,4288176,396
63,68,4288176,335
56,54,4288516,773
62,54,4288516,773
65,68,4288516,712
57,49,4289229,218
63,49,4289229,33
66,63,4289229,131
58,54,4290242,133
64,54,4290242,103
67,68,4290242,133
67,71,4291596,1011
79,85,4291596,1011
56,72,4292612,435
62,72,4292612,435
65,86,4292612,435
53,80,4292612,435
57,68,4293662,400
63,68,4293662,400
66,82,4293662,400
54,76,4293662,400
58,70,4294677,400
64,70,4294677,400
67,84,4294677,400
55,78,4294677,400
56,72,4296708,435
62,72,4296708,435
65,86,4296708,435
53,80,4296708,435
57,67,4297758,736
63,67,4297758,736
66,81,4297758,675
54,75,4297758,736
58,62,4298434,220
64,62,4298434,35
67,76,4298434,133
55,70,4298434,220
56,74,4300464,1052
62,74,4300464,1052
65,88,4300464,1052
53,82,4300464,1052
56,55,4301517,397
62,55,4301517,397
65,69,4301517,336
53,63,4301517,397
57,62,4301854,574
63,62,4301854,306
66,76,4301854,400
54,70,4301854,574
58,70,4302869,400
64,70,4302869,400
67,84,4302869,400
55,78,4302869,400
53,68,4303884,397
59,68,4303884,397
62,82,4303884,397
50,76,4303884,397
56,67,4304900,773
62,67,4304900,773
65,81,4304900,712
53,75,4304900,773
57,62,4305613,218
63,62,4305613,33
66,76,4305613,131
54,70,4305613,218
58,67,4306626,133
64,67,4306626,103
67,81,4306626,133
55,75,4306626,133
56,72,4308996,435
62,72,4308996,435
65,86,4308996,435
53,80,4308996,435
57,68,4310046,400
63,68,4310046,400
66,82,4310046,400
54,76,4310046,400
58,70,4311061,400
64,70,4311061,400
67,84,4311061,400
55,78,4311061,400
56,72,4313092,435
62,72,4313092,435
65,86,4313092,435
53,80,4313092,435
57,67,4314142,736
63,67,4314142,736
66,81,4314142,675
54,75,4314142,736
58,62,4314818,220
64,62,4314818,35
67,76,4314818,133
55,70,4314818,220
56,86,4316848,1052
62,86,4316848,1052
65,100,4316848,1052
53,94,4316848,1052
56,67,4317901,397
62,67,4317901,397
65,81,4317901,336
53,75,4317901,397
57,62,4318238,352
63,62,4318238,167
66,76,4318238,265
54,70,4318238,352
53,67,4318914,308
59,67,4318914,399
62,81,4318914,338
53,67,4318914,308
62,81,4318914,338
58,62,4319253,270
64,62,4319253,172
67,76,4319253,270
55,78,4319253,270
52,67,4319934,394
58,67,4319934,394
61,81,4319934,333
60,75,4319934,303
53,67,4320268,736
59,67,4320268,736
62,81,4320268,675
50,75,4320268,736
54,67,4320944,396
60,67,4320944,396
63,81,4320944,335
51,75,4320944,396
56,67,4321284,773
62,67,4321284,773
65,81,4321284,712
53,75,4321284,773
57,62,4321997,218
63,62,4321997,33
66,76,4321997,131
54,70,4321997,218
58,67,4323010,133
64,67,4323010,103
67,81,4323010,133
55,75,4323010,133
67,87,4324364,1011
79,101,4324364,1011
74,93,4325380,435
62,81,4325380,435
41,85,4325380,435
50,85,4325380,435
53,99,4325380,435
77,89,4326430,400
65,77,4326430,400
42,81,4326430,400
51,81,4326430,400
54,95,4326430,400
79,91,4327445,400
70,79,4327445,400
43,83,4327445,400
52,83,4327445,400
55,97,4327445,400
67,77,4328460,397
38,88,4328460,397
74,93,4329476,435
41,85,4329476,435
50,85,4329476,435
53,99,4329476,435
72,88,4330189,306
77,88,4330526,736
70,89,4330526,645
42,80,4330526,736
51,80,4330526,736
54,94,4330526,675
79,83,4331202,220
67,88,4331202,133
43,75,4331202,220
52,75,4331202,35
55,89,4331202,133
62,88,4332222,303
65,89,4332556,265
38,88,4332556,645
82,98,4333232,1052
72,88,4333232,1052
41,102,4333232,1052
50,102,4333232,335
53,112,4333232,1052
50,80,4333572,712
82,76,4334285,397
72,88,4334285,306
41,80,4334285,397
50,80,4334285,397
53,94,4334285,336
81,83,4334622,574
70,89,4334622,265
42,75,4334622,574
51,75,4334622,306
54,89,4334622,400
67,88,4335298,308
79,91,4335637,400
70,91,4335637,400
43,83,4335637,400
52,83,4335637,400
55,97,4335637,400
77,89,4336652,397
67,89,4336652,397
38,80,4336652,397
47,81,4336652,397
50,95,4336652,397
74,88,4337668,773
62,93,4337668,682
41,80,4337668,773
50,80,4337668,773
53,94,4337668,712
77,83,4338381,218
65,88,4338381,131
42,75,4338381,218
51,75,4338381,33
54,89,4338381,131
79,88,4339394,133
67,88,4339394,133
43,80,4339394,133
52,80,4339394,103
55,94,4339394,133
72,88,4340414,303
70,89,4340748,265
38,88,4340748,397
67,88,4341424,305
74,93,4341764,435
62,81,4341764,435
41,85,4341764,435
50,85,4341764,435
53,99,4341764,435
77,89,4342814,400
65,77,4342814,400
42,81,4342814,400
51,81,4342814,400
54,95,4342814,400
79,91,4343829,400
70,79,4343829,400
43,83,4343829,400
52,83,4343829,400
55,97,4343829,400
67,77,4344844,397
38,88,4344844,397
74,93,4345860,435
41,85,4345860,435
50,85,4345860,435
53,99,4345860,435
72,88,4346573,306
77,88,4346910,736
70,89,4346910,645
42,80,4346910,736
51,80,4346910,736
54,94,4346910,675
79,83,4347586,220
67,88,4347586,133
43,75,4347586,220
52,75,4347586,35
55,89,4347586,133
67,88,4348606,303
70,89,4348940,265
38,88,4348940,645
82,98,4349616,1052
72,88,4349616,1052
41,102,4349616,1052
50,102,4349616,335
53,112,4349616,1052
50,80,4349956,712
82,76,4350669,397
72,88,4350669,306
41,80,4350669,397
50,80,4350669,397
53,94,4350669,336
81,83,4351006,574
70,89,4351006,400
42,75,4351006,352
51,75,4351006,167
54,89,4351006,265
38,79,4351682,399
47,80,4351682,399
50,94,4351682,338
79,91,4352021,400
72,91,4352021,400
43,75,4352021,357
52,75,4352021,172
55,89,4352021,270
37,79,4352702,394
46,80,4352702,394
49,94,4352702,333
77,89,4353036,397
70,89,4353036,397
38,79,4353036,736
47,80,4353036,736
50,94,4353036,675
39,79,4353712,396
48,80,4353712,396
51,94,4353712,335
74,88,4354052,773
62,93,4354052,682
41,80,4354052,773
50,80,4354052,773
53,94,4354052,712
77,83,4354765,218
65,88,4354765,131
42,75,4354765,218
51,75,4354765,33
54,89,4354765,131
79,88,4355778,133
67,88,4355778,133
43,80,4355778,133
52,80,4355778,103
55,94,4355778,133
70,81,4357132,645
74,81,4357132,645
79,95,4357132,675
67,85,4358148,2064
79,99,4358148,2064
43,81,4358148,712
43,76,4358861,367
42,89,4359198,1014
41,91,4360213,1014
40,89,4361228,1011
39,93,4362244,1049
61,102,4362957,1351
73,116,4362957,1351
34,89,4363294,1014
60,83,4364309,650
72,97,4364309,680
33,91,4364309,1014
58,80,4364990,303
70,94,4364990,333
55,81,4365324,1698
67,95,4365324,1728
30,89,4365324,1011
43,81,4366340,712
73,88,4367053,306
43,76,4367053,367
72,89,4367390,645
42,89,4367390,1014
70,88,4368066,308
72,91,4368405,650
41,91,4368405,1014
73,88,4369086,303
65,89,4369420,645
40,89,4369420,1011
67,88,4370096,305
70,93,4370436,682
39,93,4370436,1049
67,88,4371149,306
65,89,4371486,645
43,89,4371486,1014
79,88,4372162,830
42,91,4372501,1014
77,88,4372736,128
79,88,4372864,128
77,83,4373171,246
73,89,4373516,319
38,89,4373516,1011
72,88,4373856,309
70,88,4374186,341
67,85,4374532,2064
70,99,4374532,2064
43,81,4374532,712
43,76,4375245,367
42,89,4375582,1014
69,83,4376597,2026
72,97,4376597,2026
41,91,4376597,1014
40,89,4377612,1011
70,85,4378628,2064
74,99,4378628,2064
39,93,4378628,1049
34,89,4379678,1014
69,83,4380693,2026
75,97,4380693,2026
33,91,4380693,1014
30,89,4381708,1011
70,85,4382724,435
74,99,4382724,435
34,81,4382724,712
34,76,4383437,367
60,81,4383774,400
67,95,4383774,400
31,89,4383774,1014
74,83,4384789,400
79,97,4384789,400
34,91,4384789,1014
63,81,4385804,397
67,95,4385804,397
36,89,4385804,1011
78,93,4386820,682
67,93,4386820,682
38,93,4386820,1049
75,88,4387533,398
69,88,4387533,398
40,89,4387870,1014
74,110,4388546,989
66,110,4388546,2365
42,91,4388885,1014
75,88,4389566,394
74,88,4389900,736
38,89,4389900,1011
75,88,4390576,396
74,71,4390916,609
43,81,4390916,712
43,76,4391629,367
70,77,4391966,400
42,89,4391966,1014
67,79,4392981,400
41,91,4392981,1014
62,77,4393996,397
40,89,4393996,1011
70,81,4395012,435
39,93,4395012,1049
67,89,4396062,645
34,89,4396062,1014
69,88,4396738,989
33,91,4397077,1014
75,88,4397758,394
74,88,4398092,736
30,89,4398092,1011
75,88,4398768,396
70,83,4399108,609
39,93,4399108,1049
67,89,4400158,645
34,89,4400158,1014
69,88,4400834,989
33,91,4401173,1014
75,88,4401854,394
74,88,4402188,736
30,89,4402188,1011
75,88,4402864,396
70,83,4403204,609
39,93,4403204,1049
67,89,4404254,645
34,89,4404254,1014
69,88,4404930,989
33,91,4405269,1014
72,80,4405950,394
75,94,4405950,333
70,80,4406284,736
74,94,4406284,675
30,89,4406284,1011
72,80,4406960,396
75,94,4406960,335
70,80,4407300,712
74,94,4407300,712
43,81,4407300,712
70,80,4408013,336
74,94,4408013,336
43,76,4408013,367
67,75,4408350,400
70,89,4408350,400
42,89,4408350,1014
62,83,4409365,400
67,97,4409365,400
41,91,4409365,1014
58,81,4410380,397
62,95,4410380,397
40,89,4410380,1011
67,85,4411396,435
70,99,4411396,435
39,93,4411396,1049
69,81,4412446,675
72,95,4412446,675
43,89,4412446,1014
66,80,4413122,989
69,94,4413122,1019
42,91,4413461,1014
75,88,4414142,394
74,88,4414476,736
38,89,4414476,1011
75,88,4415152,396
67,75,4415492,609
70,89,4415492,435
39,93,4415492,1049
69,81,4416542,675
72,95,4416542,675
43,89,4416542,1014
66,80,4417218,989
69,94,4417218,1019
42,91,4417557,1014
75,88,4418238,394
74,88,4418572,736
38,89,4418572,1011
75,88,4419248,396
67,75,4419588,609
70,89,4419588,435
39,93,4419588,1049
69,81,4420638,675
72,95,4420638,675
43,89,4420638,1014
66,80,4421314,989
69,94,4421314,1019
42,91,4421653,1014
75,88,4422334,394
74,88,4422668,736
38,89,4422668,1011
75,88,4423344,396
74,71,4423684,609
43,81,4423684,712
43,76,4424397,367
70,77,4424734,400
42,89,4424734,1014
67,79,4425749,400
41,91,4425749,1014
62,77,4426764,397
40,89,4426764,1011
70,81,4427780,435
39,93,4427780,1049
67,89,4428830,645
34,89,4428830,1014
69,88,4429506,989
33,91,4429845,1014
75,88,4430526,394
74,88,4430860,736
30,89,4430860,1011
75,88,4431536,396
70,83,4431876,609
39,93,4431876,1049
67,89,4432926,645
34,89,4432926,1014
69,88,4433602,989
33,91,4433941,1014
75,88,4434622,394
74,88,4434956,736
30,89,4434956,1011
75,88,4435632,396
70,83,4435972,609
39,93,4435972,1049
67,89,4437022,645
34,89,4437022,1014
69,88,4437698,989
33,91,4438037,1014
75,88,4438718,394
74,88,4439052,736
30,89,4439052,1011
75,88,4439728,396
74,83,4440068,609
43,81,4440068,712
43,76,4440781,367
79,89,4441118,400
42,89,4441118,1014
72,91,4442133,400
41,91,4442133,1014
70,89,4443148,397
40,89,4443148,1011
72,88,4444164,773
39,93,4444164,1049
70,83,4444877,218
34,89,4445214,1014
72,110,4445890,1353
33,91,4446229,1014
58,81,4447244,265
70,95,4447244,265
30,89,4447244,1011
60,80,4447920,396
72,94,4447920,335
61,80,4448260,773
73,94,4448260,712
36,81,4448260,712
60,80,4448973,397
72,94,4448973,336
36,76,4448973,367
58,75,4449310,574
70,89,4449310,400
34,89,4449310,400
55,83,4450325,400
67,97,4450325,400
36,91,4450325,400
62,89,4451340,397
37,89,4451340,397
53,80,4452356,773
60,80,4452356,773
65,94,4452356,712
38,93,4452356,712
54,75,4453069,218
61,75,4453069,33
66,89,4453069,131
38,88,4453069,306
42,89,4453406,645
55,102,4454082,2365
62,102,4454082,2365
67,116,4454082,2365
43,88,4454082,2365
73,88,4456452,773
39,93,4456452,1049
72,88,4457165,397
70,83,4457502,574
34,89,4457502,1014
67,91,4458517,400
33,91,4458517,1014
62,89,4459532,397
31,89,4459532,1011
73,88,4460548,773
39,93,4460548,1049
72,88,4461261,397
70,83,4461598,574
34,89,4461598,1014
67,91,4462613,400
33,91,4462613,1014
62,89,4463628,397
31,89,4463628,1011
73,88,4464644,773
39,93,4464644,1049
72,88,4465357,397
70,83,4465694,574
34,89,4465694,1014
73,88,4466709,741
39,91,4466709,1014
72,88,4467390,394
70,83,4467724,571
34,89,4467724,1011
73,88,4468740,773
39,93,4468740,1049
72,88,4469453,397
70,83,4469790,574
34,89,4469790,1014
67,91,4470805,400
33,91,4470805,1014
62,89,4471820,397
31,89,4471820,1011
65,88,4472836,773
43,81,4472836,712
66,83,4473549,218
43,76,4473549,367
42,89,4473886,1014
67,110,4474562,1353
41,91,4474901,1014
79,89,4475916,397
40,89,4475916,1011
65,88,4476932,773
43,81,4476932,712
66,83,4477645,218
43,76,4477645,367
42,89,4477982,1014
67,110,4478658,1353
41,91,4478997,1014
79,89,4480012,397
40,89,4480012,1011
65,76,4481028,712
43,81,4481028,712
65,76,4481741,397
43,76,4481741,367
67,83,4482078,574
42,89,4482078,1014
74,88,4483093,741
41,91,4483093,1014
72,80,4483774,394
79,94,4483774,333
70,88,4484108,736
40,89,4484108,1011
67,88,4484784,396
65,88,4485124,773
43,81,4485124,712
66,83,4485837,218
43,76,4485837,367
42,89,4486174,1014
67,110,4486850,2365
41,91,4487189,1014
40,89,4488204,1011
73,88,4489220,773
63,85,4489220,1049
70,99,4489220,1049
39,81,4489220,712
72,88,4489933,397
39,76,4489933,367
70,83,4490270,574
58,80,4490270,736
61,94,4490270,675
34,89,4490270,1014
57,75,4490946,220
60,89,4490946,133
67,91,4491285,400
33,91,4491285,1014
58,80,4491966,394
61,94,4491966,333
62,89,4492300,397
57,75,4492300,188
60,89,4492300,101
31,89,4492300,1011
73,88,4493316,773
63,85,4493316,1049
70,99,4493316,1049
39,81,4493316,712
72,88,4494029,397
39,76,4494029,367
70,83,4494366,574
58,80,4494366,736
61,94,4494366,675
34,89,4494366,1014
57,75,4495042,220
60,89,4495042,133
67,91,4495381,400
33,91,4495381,1014
58,80,4496062,394
61,94,4496062,333
62,89,4496396,397
57,75,4496396,188
60,89,4496396,101
31,89,4496396,1011
73,88,4497412,773
67,80,4497412,1049
70,94,4497412,1049
39,81,4497412,712
72,88,4498125,397
39,76,4498125,367
70,83,4498462,574
62,75,4498462,328
67,89,4498462,154
34,89,4498462,1014
73,88,4499477,741
60,80,4499477,741
67,94,4499477,680
39,79,4499477,680
72,88,4500158,394
58,75,4500158,215
65,89,4500158,128
39,76,4500158,364
70,83,4500492,571
34,89,4500492,1011
62,102,4501168,2404
67,116,4501168,2404
73,88,4501508,773
39,81,4501508,712
72,88,4502221,397
39,76,4502221,367
70,83,4502558,574
34,89,4502558,1014
67,91,4503573,400
33,91,4503573,1014
62,89,4504588,397
31,89,4504588,1011
65,88,4505604,773
43,81,4505604,712
66,83,4506317,218
43,76,4506317,367
42,89,4506654,1014
67,110,4507330,1353
41,91,4507669,1014
79,89,4508684,397
40,89,4508684,1011
65,88,4509700,773
43,81,4509700,712
66,83,4510413,218
43,76,4510413,367
42,89,4510750,1014
67,110,4511426,1353
41,91,4511765,1014
79,89,4512780,397
40,89,4512780,1011
65,76,4513796,712
43,81,4513796,712
65,76,4514509,397
43,76,4514509,367
67,83,4514846,574
42,89,4514846,1014
74,88,4515861,741
41,91,4515861,1014
72,80,4516542,394
79,94,4516542,333
70,88,4516876,736
40,89,4516876,1011
67,88,4517552,396
53,85,4517892,682
62,85,4517892,682
65,99,4517892,712
43,93,4517892,682
54,80,4518605,306
63,80,4518605,306
66,94,4518605,336
42,88,4518605,306
55,80,4519618,1353
64,80,4519618,1353
67,94,4519618,1353
43,88,4519618,1353
56,59,4521988,435
62,59,4521988,435
65,73,4521988,435
57,55,4523038,400
63,55,4523038,400
66,69,4523038,400
58,57,4524053,400
64,57,4524053,400
67,71,4524053,400
56,59,4526084,435
62,59,4526084,435
65,73,4526084,435
57,54,4527134,736
63,54,4527134,736
66,68,4527134,675
58,49,4527810,220
64,49,4527810,35
67,63,4527810,133
56,58,4529840,1052
62,58,4529840,1052
65,72,4529840,1052
56,42,4530893,397
62,42,4530893,397
65,56,4530893,336
57,49,4531230,574
63,49,4531230,306
66,63,4531230,400
58,57,4532245,400
64,57,4532245,400
67,71,4532245,400
53,55,4533260,397
59,55,4533260,397
62,69,4533260,397
56,54,4534276,773
62,54,4534276,773
65,68,4534276,712
57,49,4534989,218
63,49,4534989,33
66,63,4534989,131
58,54,4536002,133
64,54,4536002,103
67,68,4536002,133
56,59,4538372,435
62,59,4538372,435
65,73,4538372,435
57,55,4539422,400
63,55,4539422,400
66,69,4539422,400
58,57,4540437,400
64,57,4540437,400
67,71,4540437,400
56,59,4542468,435
62,59,4542468,435
65,73,4542468,435
57,54,4543518,736
63,54,4543518,736
66,68,4543518,675
58,49,4544194,220
64,49,4544194,35
67,63,4544194,133
56,70,4546224,1052
62,70,4546224,1052
65,84,4546224,1052
56,54,4547277,397
62,54,4547277,397
65,68,4547277,336
57,49,4547614,352
63,49,4547614,167
66,63,4547614,265
53,54,4548290,399
59,54,4548290,399
62,68,4548290,338
58,49,4548629,270
64,49,4548629,172
67,63,4548629,270
52,54,4549310,394
58,54,4549310,394
61,68,4549310,333
53,54,4549644,736
59,54,4549644,736
62,68,4549644,675
54,54,4550320,396
60,54,4550320,396
63,68,4550320,335
56,54,4550660,773
62,54,4550660,773
65,68,4550660,712
57,49,4551373,218
63,49,4551373,33
66,63,4551373,131
58,54,4552386,133
64,54,4552386,103
67,68,4552386,133
67,71,4553740,1011
79,85,4553740,1011
56,72,4554756,435
62,72,4554756,435
65,86,4554756,435
53,80,4554756,435
57,68,4555806,400
63,68,4555806,400
66,82,4555806,400
54,76,4555806,400
58,70,4556821,400
64,70,4556821,400
67,84,4556821,400
55,78,4556821,400
56,72,4558852,435
62,72,4558852,435
65,86,4558852,435
53,80,4558852,435
57,67,4559902,736
63,67,4559902,736
66,81,4559902,675
54,75,4559902,736
58,62,4560578,220
64,62,4560578,35
67,76,4560578,133
55,70,4560578,220
56,74,4562608,1052
62,74,4562608,1052
65,88,4562608,1052
53,82,4562608,1052
56,55,4563661,397
62,55,4563661,397
65,69,4563661,336
53,63,4563661,397
57,62,4563998,574
63,62,4563998,306
66,76,4563998,400
54,70,4563998,574
58,70,4565013,400
64,70,4565013,400
67,84,4565013,400
55,78,4565013,400
53,68,4566028,397
59,68,4566028,397
62,82,4566028,397
50,76,4566028,397
56,67,4567044,773
62,67,4567044,773
65,81,4567044,712
53,75,4567044,773
57,62,4567757,218
63,62,4567757,33
66,76,4567757,131
54,70,4567757,218
58,67,4568770,133
64,67,4568770,103
67,81,4568770,133
55,75,4568770,133
56,72,4571140,435
62,72,4571140,435
65,86,4571140,435
53,80,4571140,435
57,68,4572190,400
63,68,4572190,400
66,82,4572190,400
54,76,4572190,400
58,70,4573205,400
64,70,4573205,400
67,84,4573205,400
55,78,4573205,400
56,72,4575236,435
62,72,4575236,435
65,86,4575236,435
53,80,4575236,435
57,67,4576286,736
63,67,4576286,736
66,81,4576286,675
54,75,4576286,736
58,62,4576962,220
64,62,4576962,35
67,76,4576962,133
55,70,4576962,220
56,86,4578992,1052
62,86,4578992,1052
65,100,4578992,1052
53,94,4578992,1052
56,67,4580045,397
62,67,4580045,397
65,81,4580045,336
53,75,4580045,397
57,62,4580382,352
63,62,4580382,167
66,76,4580382,265
54,70,4580382,352
53,67,4581058,308
59,67,4581058,399
62,81,4581058,338
53,67,4581058,308
62,81,4581058,338
58,62,4581397,270
64,62,4581397,172
67,76,4581397,270
55,78,4581397,270
52,67,4582078,394
58,67,4582078,394
61,81,4582078,333
60,75,4582078,303
53,67,4582412,736
59,67,4582412,736
62,81,4582412,675
50,75,4582412,736
54,67,4583088,396
60,67,4583088,396
63,81,4583088,335
51,75,4583088,396
56,67,4583428,773
62,67,4583428,773
65,81,4583428,712
53,75,4583428,773
57,62,4584141,218
63,62,4584141,33
66,76,4584141,131
54,70,4584141,218
58,67,4585154,133
64,67,4585154,103
67,81,4585154,133
55,75,4585154,133
67,87,4586508,1011
79,101,4586508,1011
74,93,4587524,435
62,81,4587524,435
41,85,4587524,435
50,85,4587524,435
53,99,4587524,435
77,89,4588574,400
65,77,4588574,400
42,81,4588574,400
51,81,4588574,400
54,95,4588574,400
79,91,4589589,400
70,79,4589589,400
43,83,4589589,400
52,83,4589589,400
55,97,4589589,400
67,77,4590604,397
38,88,4590604,397
74,93,4591620,435
41,85,4591620,435
50,85,4591620,435
53,99,4591620,435
72,88,4592333,306
77,88,4592670,736
70,89,4592670,645
42,80,4592670,736
51,80,4592670,736
54,94,4592670,675
79,83,4593346,220
67,88,4593346,133
43,75,4593346,220
52,75,4593346,35
55,89,4593346,133
62,88,4594366,303
65,89,4594700,265
38,88,4594700,645
82,98,4595376,1052
72,88,4595376,1052
41,102,4595376,1052
50,102,4595376,335
53,112,4595376,1052
50,80,4595716,712
82,76,4596429,397
72,88,4596429,306
41,80,4596429,397
50,80,4596429,397
53,94,4596429,336
81,83,4596766,574
70,89,4596766,265
42,75,4596766,574
51,75,4596766,306
54,89,4596766,400
67,88,4597442,308
79,91,4597781,400
70,91,4597781,400
43,83,4597781,400
52,83,4597781,400
55,97,4597781,400
77,89,4598796,397
67,89,4598796,397
38,80,4598796,397
47,81,4598796,397
50,95,4598796,397
74,88,4599812,773
62,93,4599812,682
41,80,4599812,773
50,80,4599812,773
53,94,4599812,712
77,83,4600525,218
65,88,4600525,131
42,75,4600525,218
51,75,4600525,33
54,89,4600525,131
79,88,4601538,133
67,88,4601538,133
43,80,4601538,133
52,80,4601538,103
55,94,4601538,133
72,88,4602558,303
70,89,4602892,265
38,88,4602892,397
67,88,4603568,305
74,93,4603908,435
62,81,4603908,435
41,85,4603908,435
50,85,4603908,435
53,99,4603908,435
77,89,4604958,400
65,77,4604958,400
42,81,4604958,400
51,81,4604958,400
54,95,4604958,400
79,91,4605973,400
70,79,4605973,400
43,83,4605973,400
52,83,4605973,400
55,97,4605973,400
67,77,4606988,397
38,88,4606988,397
74,93,4608004,435
41,85,4608004,435
50,85,4608004,435
53,99,4608004,435
72,88,4608717,306
77,88,4609054,736
70,89,4609054,645
42,80,4609054,736
51,80,4609054,736
54,94,4609054,675
79,83,4609730,220
67,88,4609730,133
43,75,4609730,220
52,75,4609730,35
55,89,4609730,133
67,88,4610750,303
70,89,4611084,265
38,88,4611084,645
82,98,4611760,1052
72,88,4611760,1052
41,102,4611760,1052
50,102,4611760,335
53,112,4611760,1052
50,80,4612100,712
82,76,4612813,397
72,88,4612813,306
41,80,4612813,397
50,80,4612813,397
53,94,4612813,336
81,83,4613150,574
70,89,4613150,400
42,75,4613150,352
51,75,4613150,167
54,89,4613150,265
38,79,4613826,399
47,80,4613826,399
50,94,4613826,338
79,91,4614165,400
72,91,4614165,400
43,75,4614165,357
52,75,4614165,172
55,89,4614165,270
37,79,4614846,394
46,80,4614846,394
49,94,4614846,333
77,89,4615180,397
70,89,4615180,397
38,79,4615180,736
47,80,4615180,736
50,94,4615180,675
39,79,4615856,396
48,80,4615856,396
51,94,4615856,335
74,88,4616196,773
62,93,4616196,682
41,80,4616196,773
50,80,4616196,773
53,94,4616196,712
77,83,4616909,218
65,88,4616909,131
42,75,4616909,218
51,75,4616909,33
54,89,4616909,131
79,88,4617922,133
67,88,4617922,133
43,80,4617922,133
52,80,4617922,103
55,94,4617922,133
70,81,4619276,645
74,81,4619276,645
79,95,4619276,675
67,85,4620292,2064
79,99,4620292,2064
43,81,4620292,712
43,76,4621005,367
42,89,4621342,1014
41,91,4622357,1014
40,89,4623372,1011
39,93,4624388,1049
61,102,4625101,1351
73,116,4625101,1351
34,89,4625438,1014
60,83,4626453,650
72,97,4626453,680
33,91,4626453,1014
58,80,4627134,303
70,94,4627134,333
55,81,4627468,1698
67,95,4627468,1728
30,89,4627468,1011
43,81,4628484,712
73,88,4629197,306
43,76,4629197,367
72,89,4629534,645
42,89,4629534,1014
70,88,4630210,308
72,91,4630549,650
41,91,4630549,1014
73,88,4631230,303
65,89,4631564,645
40,89,4631564,1011
67,88,4632240,305
70,93,4632580,682
39,93,4632580,1049
67,88,4633293,306
65,89,4633630,645
43,89,4633630,1014
79,88,4634306,830
42,91,4634645,1014
77,88,4634880,128
79,88,4635008,128
77,83,4635315,246
73,89,4635660,319
38,89,4635660,1011
72,88,4636000,309
70,88,4636330,341
67,85,4636676,2064
70,99,4636676,2064
43,81,4636676,712
43,76,4637389,367
42,89,4637726,1014
69,83,4638741,2026
72,97,4638741,2026
41,91,4638741,1014
40,89,4639756,1011
70,85,4640772,2064
74,99,4640772,2064
39,93,4640772,1049
34,89,4641822,1014
69,83,4642837,2026
75,97,4642837,2026
33,91,4642837,1014
30,89,4643852,1011
70,85,4644868,435
74,99,4644868,435
34,81,4644868,712
34,76,4645581,367
60,81,4645918,400
67,95,4645918,400
31,89,4645918,1014
74,83,4646933,400
79,97,4646933,400
34,91,4646933,1014
63,81,4647948,397
67,95,4647948,397
36,89,4647948,1011
78,93,4648964,682
67,93,4648964,682
38,93,4648964,1049
75,88,4649677,398
69,88,4649677,398
40,89,4650014,1014
74,110,4650690,989
66,110,4650690,2365
42,91,4651029,1014
75,88,4651710,394
74,88,4652044,736
38,89,4652044,1011
75,88,4652720,396
74,71,4653060,609
43,81,4653060,712
43,76,4653773,367
70,77,4654110,400
42,89,4654110,1014
67,79,4655125,400
41,91,4655125,1014
62,77,4656140,397
40,89,4656140,1011
70,81,4657156,435
39,93,4657156,1049
67,89,4658206,645
34,89,4658206,1014
69,88,4658882,989
33,91,4659221,1014
75,88,4659902,394
74,88,4660236,736
30,89,4660236,1011
75,88,4660912,396
70,83,4661252,609
39,93,4661252,1049
67,89,4662302,645
34,89,4662302,1014
69,88,4662978,989
33,91,4663317,1014
75,88,4663998,394
74,88,4664332,736
30,89,4664332,1011
75,88,4665008,396
70,83,4665348,609
39,93,4665348,1049
67,89,4666398,645
34,89,4666398,1014
69,88,4667074,989
33,91,4667413,1014
72,80,4668094,394
75,94,4668094,333
70,80,4668428,736
74,94,4668428,675
30,89,4668428,1011
72,80,4669104,396
75,94,4669104,335
70,80,4669444,712
74,94,4669444,712
43,81,4669444,712
70,80,4670157,336
74,94,4670157,336
43,76,4670157,367
67,75,4670494,400
70,89,4670494,400
42,89,4670494,1014
62,83,4671509,400
67,97,4671509,400
41,91,4671509,1014
58,81,4672524,397
62,95,4672524,397
40,89,4672524,1011
67,85,4673540,435
70,99,4673540,435
39,93,4673540,1049
69,81,4674590,675
72,95,4674590,675
43,89,4674590,1014
66,80,4675266,989
69,94,4675266,1019
42,91,4675605,1014
75,88,4676286,394
74,88,4676620,736
38,89,4676620,1011
75,88,4677296,396
67,75,4677636,609
70,89,4677636,435
39,93,4677636,1049
69,81,4678686,675
72,95,4678686,675
43,89,4678686,1014
66,80,4679362,989
69,94,4679362,1019
42,91,4679701,1014
75,88,4680382,394
74,88,4680716,736
38,89,4680716,1011
75,88,4681392,396
67,75,4681732,609
70,89,4681732,435
39,93,4681732,1049
69,81,4682782,675
72,95,4682782,675
43,89,4682782,1014
66,80,4683458,989
69,94,4683458,1019
42,91,4683797,1014
75,88,4684478,394
74,88,4684812,736
38,89,4684812,1011
75,88,4685488,396
74,71,4685828,609
43,81,4685828,712
43,76,4686541,367
70,77,4686878,400
42,89,4686878,1014
67,79,4687893,400
41,91,4687893,1014
62,77,4688908,397
40,89,4688908,1011
70,81,4689924,435
39,93,4689924,1049
67,89,4690974,645
34,89,4690974,1014
69,88,4691650,989
33,91,4691989,1014
75,88,4692670,394
74,88,4693004,736
30,89,4693004,1011
75,88,4693680,396
70,83,4694020,609
39,93,4694020,1049
67,89,4695070,645
34,89,4695070,1014
69,88,4695746,989
33,91,4696085,1014
75,88,4696766,394
74,88,4697100,736
30,89,4697100,1011
75,88,4697776,396
70,83,4698116,609
39,93,4698116,1049
67,89,4699166,645
34,89,4699166,1014
69,88,4699842,989
33,91,4700181,1014
75,88,4700862,394
74,88,4701196,736
30,89,4701196,1011
75,88,4701872,396
74,83,4702212,609
43,81,4702212,712
43,76,4702925,367
79,89,4703262,400
42,89,4703262,1014
72,91,4704277,400
41,91,4704277,1014
70,89,4705292,397
40,89,4705292,1011
72,88,4706308,773
39,93,4706308,1049
70,83,4707021,218
34,89,4707358,1014
72,110,4708034,1353
33,91,4708373,1014
58,81,4709388,265
70,95,4709388,265
30,89,4709388,1011
60,80,4710064,396
72,94,4710064,335
61,80,4710404,773
73,94,4710404,712
36,81,4710404,712
60,80,4711117,397
72,94,4711117,336
36,76,4711117,367
58,75,4711454,574
70,89,4711454,400
34,89,4711454,400
55,83,4712469,400
67,97,4712469,400
36,91,4712469,400
62,89,4713484,397
37,89,4713484,397
53,80,4714500,773
60,80,4714500,773
65,94,4714500,712
38,93,4714500,712
54,75,4715213,218
61,75,4715213,33
66,89,4715213,131
38,88,4715213,306
42,89,4715550,645
55,102,4716226,2365
62,102,4716226,2365
67,116,4716226,2365
43,88,4716226,2365
73,88,4718596,773
39,93,4718596,1049
72,88,4719309,397
70,83,4719646,574
34,89,4719646,1014
67,91,4720661,400
33,91,4720661,1014
62,89,4721676,397
31,89,4721676,1011
73,88,4722692,773
39,93,4722692,1049
72,88,4723405,397
70,83,4723742,574
34,89,4723742,1014
67,91,4724757,400
33,91,4724757,1014
62,89,4725772,397
31,89,4725772,1011
73,88,4726788,773
39,93,4726788,1049
72,88,4727501,397
70,83,4727838,574
34,89,4727838,1014
73,88,4728853,741
39,91,4728853,1014
72,88,4729534,394
70,83,4729868,571
34,89,4729868,1011
73,88,4730884,773
39,93,4730884,1049
72,88,4731597,397
70,83,4731934,574
34,89,4731934,1014
67,91,4732949,400
33,91,4732949,1014
62,89,4733964,397
31,89,4733964,1011
65,88,4734980,773
43,81,4734980,712
66,83,4735693,218
43,76,4735693,367
42,89,4736030,1014
67,110,4736706,1353
41,91,4737045,1014
79,89,4738060,397
40,89,4738060,1011
65,88,4739076,773
43,81,4739076,712
66,83,4739789,218
43,76,4739789,367
42,89,4740126,1014
67,110,4740802,1353
41,91,4741141,1014
79,89,4742156,397
40,89,4742156,1011
65,76,4743172,712
43,81,4743172,712
65,76,4743885,397
43,76,4743885,367
67,83,4744222,574
42,89,4744222,1014
74,88,4745237,741
41,91,4745237,1014
72,80,4745918,394
79,94,4745918,333
70,88,4746252,736
40,89,4746252,1011
67,88,4746928,396
65,88,4747268,773
43,81,4747268,712
66,83,4747981,218
43,76,4747981,367
42,89,4748318,1014
67,110,4748994,2365
41,91,4749333,1014
40,89,4750348,1011
73,88,4751364,773
63,85,4751364,1049
70,99,4751364,1049
39,81,4751364,712
72,88,4752077,397
39,76,4752077,367
70,83,4752414,574
58,80,4752414,736
61,94,4752414,675
34,89,4752414,1014
57,75,4753090,220
60,89,4753090,133
67,91,4753429,400
33,91,4753429,1014
58,80,4754110,394
61,94,4754110,333
62,89,4754444,397
57,75,4754444,188
60,89,4754444,101
31,89,4754444,1011
73,88,4755460,773
63,85,4755460,1049
70,99,4755460,1049
39,81,4755460,712
72,88,4756173,397
39,76,4756173,367
70,83,4756510,574
58,80,4756510,736
61,94,4756510,675
34,89,4756510,1014
57,75,4757186,220
60,89,4757186,133
67,91,4757525,400
33,91,4757525,1014
58,80,4758206,394
61,94,4758206,333
62,89,4758540,397
57,75,4758540,188
60,89,4758540,101
31,89,4758540,1011
73,88,4759556,773
67,80,4759556,1049
70,94,4759556,1049
39,81,4759556,712
72,88,4760269,397
39,76,4760269,367
70,83,4760606,574
62,75,4760606,328
67,89,4760606,154
34,89,4760606,1014
73,88,4761621,741
60,80,4761621,741
67,94,4761621,680
39,79,4761621,680
72,88,4762302,394
58,75,4762302,215
65,89,4762302,128
39,76,4762302,364
70,83,4762636,571
34,89,4762636,1011
62,102,4763312,2404
67,116,4763312,2404
73,88,4763652,773
39,81,4763652,712
72,88,4764365,397
39,76,4764365,367
70,83,4764702,574
34,89,4764702,1014
67,91,4765717,400
33,91,4765717,1014
62,89,4766732,397
31,89,4766732,1011
65,88,4767748,773
43,81,4767748,712
66,83,4768461,218
43,76,4768461,367
42,89,4768798,1014
67,110,4769474,1353
41,91,4769813,1014
79,89,4770828,397
40,89,4770828,1011
65,88,4771844,773
43,81,4771844,712
66,83,4772557,218
43,76,4772557,367
42,89,4772894,1014
67,110,4773570,1353
41,91,4773909,1014
79,89,4774924,397
40,89,4774924,1011
65,76,4775940,712
43,81,4775940,712
65,76,4776653,397
43,76,4776653,367
67,83,4776990,574
42,89,4776990,1014
74,88,4778005,741
41,91,4778005,1014
72,80,4778686,394
79,94,4778686,333
70,88,4779020,736
40,89,4779020,1011
67,88,4779696,396
53,85,4780036,682
62,85,4780036,682
65,99,4780036,712
43,93,4780036,682
54,80,4780749,306
63,80,4780749,306
66,94,4780749,336
42,88,4780749,306
55,80,4781762,1353
64,80,4781762,1353
67,94,4781762,1353
43,88,4781762,1353
56,59,4784132,435
62,59,4784132,435
65,73,4784132,435
57,55,4785182,400
63,55,4785182,400
66,69,4785182,400
58,57,4786197,400
64,57,4786197,400
67,71,4786197,400
56,59,4788228,435
62,59,4788228,435
65,73,4788228,435
57,54,4789278,736
63,54,4789278,736
66,68,4789278,675
58,49,4789954,220
64,49,4789954,35
67,63,4789954,133
56,58,4791984,1052
62,58,4791984,1052
65,72,4791984,1052
56,42,4793037,397
62,42,4793037,397
65,56,4793037,336
57,49,4793374,574
63,49,4793374,306
66,63,4793374,400
58,57,4794389,400
64,57,4794389,400
67,71,4794389,400
53,55,4795404,397
59,55,4795404,397
62,69,4795404,397
56,54,4796420,773
62,54,4796420,773
65,68,4796420,712
57,49,4797133,218
63,49,4797133,33
66,63,4797133,131
58,54,4798146,133
64,54,4798146,103
67,68,4798146,133
56,59,4800516,435
62,59,4800516,435
65,73,4800516,435
57,55,4801566,400
63,55,4801566,400
66,69,4801566,400
58,57,4802581,400
64,57,4802581,400
67,71,4802581,400
56,59,4804612,435
62,59,4804612,435
65,73,4804612,435
57,54,4805662,736
63,54,4805662,736
66,68,4805662,675
58,49,4806338,220
64,49,4806338,35
67,63,4806338,133
56,70,4808368,1052
62,70,4808368,1052
65,84,4808368,1052
56,54,4809421,397
62,54,4809421,397
65,68,4809421,336
57,49,4809758,352
63,49,4809758,167
66,63,4809758,265
53,54,4810434,399
59,54,4810434,399
62,68,4810434,338
58,49,4810773,270
64,49,4810773,172
67,63,4810773,270
52,54,4811454,394
58,54,4811454,394
61,68,4811454,333
53,54,4811788,736
59,54,4811788,736
62,68,4811788,675
54,54,4812464,396
60,54,4812464,396
63,68,4812464,335
56,54,4812804,773
62,54,4812804,773
65,68,4812804,712
57,49,4813517,218
63,49,4813517,33
66,63,4813517,131
58,54,4814530,133
64,54,4814530,103
67,68,4814530,133
67,71,4815884,1011
79,85,4815884,1011
56,72,4816900,435
62,72,4816900,435
65,86,4816900,435
53,80,4816900,435
57,68,4817950,400
63,68,4817950,400
66,82,4817950,400
54,76,4817950,400
58,70,4818965,400
64,70,4818965,400
67,84,4818965,400
55,78,4818965,400
56,72,4820996,435
62,72,4820996,435
65,86,4820996,435
53,80,4820996,435
57,67,4822046,736
63,67,4822046,736
66,81,4822046,675
54,75,4822046,736
58,62,4822722,220
64,62,4822722,35
67,76,4822722,133
55,70,4822722,220
56,74,4824752,1052
62,74,4824752,1052
65,88,4824752,1052
53,82,4824752,1052
56,55,4825805,397
62,55,4825805,397
65,69,4825805,336
53,63,4825805,397
57,62,4826142,574
63,62,4826142,306
66,76,4826142,400
54,70,4826142,574
58,70,4827157,400
64,70,4827157,400
67,84,4827157,400
55,78,4827157,400
53,68,4828172,397
59,68,4828172,397
62,82,4828172,397
50,76,4828172,397
56,67,4829188,773
62,67,4829188,773
65,81,4829188,712
53,75,4829188,773
57,62,4829901,218
63,62,4829901,33
66,76,4829901,131
54,70,4829901,218
58,67,4830914,133
64,67,4830914,103
67,81,4830914,133
55,75,4830914,133
56,72,4833284,435
62,72,4833284,435
65,86,4833284,435
53,80,4833284,435
57,68,4834334,400
63,68,4834334,400
66,82,4834334,400
54,76,4834334,400
58,70,4835349,400
64,70,4835349,400
67,84,4835349,400
55,78,4835349,400
56,72,4837380,435
62,72,4837380,435
65,86,4837380,435
53,80,4837380,435
57,67,4838430,736
63,67,4838430,736
66,81,4838430,675
54,75,4838430,736
58,62,4839106,220
64,62,4839106,35
67,76,4839106,133
55,70,4839106,220
56,86,4841136,1052
62,86,4841136,1052
65,100,4841136,1052
53,94,4841136,1052
56,67,4842189,397
62,67,4842189,397
65,81,4842189,336
53,75,4842189,397
57,62,4842526,352
63,62,4842526,167
66,76,4842526,265
54,70,4842526,352
53,67,4843202,308
59,67,4843202,399
62,81,4843202,338
53,67,4843202,308
62,81,4843202,338
58,62,4843541,270
64,62,4843541,172
67,76,4843541,270
55,78,4843541,270
52,67,4844222,394
58,67,4844222,394
61,81,4844222,333
60,75,4844222,303
53,67,4844556,736
59,67,4844556,736
62,81,4844556,675
50,75,4844556,736
54,67,4845232,396
60,67,4845232,396
63,81,4845232,335
51,75,4845232,396
56,67,4845572,773
62,67,4845572,773
65,81,4845572,712
53,75,4845572,773
57,62,4846285,218
63,62,4846285,33
66,76,4846285,131
54,70,4846285,218
58,67,4847298,133
64,67,4847298,103
67,81,4847298,133
55,75,4847298,133
67,87,4848652,1011
79,101,4848652,1011
74,93,4849668,435
62,81,4849668,435
41,85,4849668,435
50,85,4849668,435
53,99,4849668,435
77,89,4850718,400
65,77,4850718,400
42,81,4850718,400
51,81,4850718,400
54,95,4850718,400
79,91,4851733,400
70,79,4851733,400
43,83,4851733,400
52,83,4851733,400
55,97,4851733,400
67,77,4852748,397
38,88,4852748,397
74,93,4853764,435
41,85,4853764,435
50,85,4853764,435
53,99,4853764,435
72,88,4854477,306
77,88,4854814,736
70,89,4854814,645
42,80,4854814,736
51,80,4854814,736
54,94,4854814,675
79,83,4855490,220
67,88,4855490,133
43,75,4855490,220
52,75,4855490,35
55,89,4855490,133
62,88,4856510,303
65,89,4856844,265
38,88,4856844,645
82,98,4857520,1052
72,88,4857520,1052
41,102,4857520,1052
50,102,4857520,335
53,112,4857520,1052
50,80,4857860,712
82,76,4858573,397
72,88,4858573,306
41,80,4858573,397
50,80,4858573,397
53,94,4858573,336
81,83,4858910,574
70,89,4858910,265
42,75,4858910,574
51,75,4858910,306
54,89,4858910,400
67,88,4859586,308
79,91,4859925,400
70,91,4859925,400
43,83,4859925,400
52,83,4859925,400
55,97,4859925,400
77,89,4860940,397
67,89,4860940,397
38,80,4860940,397
47,81,4860940,397
50,95,4860940,397
74,88,4861956,773
62,93,4861956,682
41,80,4861956,773
50,80,4861956,773
53,94,4861956,712
77,83,4862669,218
65,88,4862669,131
42,75,4862669,218
51,75,4862669,33
54,89,4862669,131
79,88,4863682,133
67,88,4863682,133
43,80,4863682,133
52,80,4863682,103
55,94,4863682,133
72,88,4864702,303
70,89,4865036,265
38,88,4865036,397
67,88,4865712,305
74,93,4866052,435
62,81,4866052,435
41,85,4866052,435
50,85,4866052,435
53,99,4866052,435
77,89,4867102,400
65,77,4867102,400
42,81,4867102,400
51,81,4867102,400
54,95,4867102,400
79,91,4868117,400
70,79,4868117,400
43,83,4868117,400
52,83,4868117,400
55,97,4868117,400
67,77,4869132,397
38,88,4869132,397
74,93,4870148,435
41,85,4870148,435
50,85,4870148,435
53,99,4870148,435
72,88,4870861,306
77,88,4871198,736
70,89,4871198,645
42,80,4871198,736
51,80,4871198,736
54,94,4871198,675
79,83,4871874,220
67,88,4871874,133
43,75,4871874,220
52,75,4871874,35
55,89,4871874,133
67,88,4872894,303
70,89,4873228,265
38,88,4873228,645
82,98,4873904,1052
72,88,4873904,1052
41,102,4873904,1052
50,102,4873904,335
53,112,4873904,1052
50,80,4874244,712
82,76,4874957,397
72,88,4874957,306
41,80,4874957,397
50,80,4874957,397
53,94,4874957,336
81,83,4875294,574
70,89,4875294,400
42,75,4875294,352
51,75,4875294,167
54,89,4875294,265
38,79,4875970,399
47,80,4875970,399
50,94,4875970,338
79,91,4876309,400
72,91,4876309,400
43,75,4876309,357
52,75,4876309,172
55,89,4876309,270
37,79,4876990,394
46,80,4876990,394
49,94,4876990,333
77,89,4877324,397
70,89,4877324,397
38,79,4877324,736
47,80,4877324,736
50,94,4877324,675
39,79,4878000,396
48,80,4878000,396
51,94,4878000,335
74,88,4878340,773
62,93,4878340,682
41,80,4878340,773
50,80,4878340,773
53,94,4878340,712
77,83,4879053,218
65,88,4879053,131
42,75,4879053,218
51,75,4879053,33
54,89,4879053,131
79,88,4880066,133
67,88,4880066,133
43,80,4880066,133
52,80,4880066,103
55,94,4880066,133
70,81,4881420,645
74,81,4881420,645
79,95,4881420,675
67,85,4882436,2064
79,99,4882436,2064
43,81,4882436,712
43,76,4883149,367
42,89,4883486,1014
41,91,4884501,1014
40,89,4885516,1011
39,93,4886532,1049
61,102,4887245,1351
73,116,4887245,1351
34,89,4887582,1014
60,83,4888597,650
72,97,4888597,680
33,91,4888597,1014
58,80,4889278,303
70,94,4889278,333
55,81,4889612,1698
67,95,4889612,1728
30,89,4889612,1011
43,81,4890628,712
73,88,4891341,306
43,76,4891341,367
72,89,4891678,645
42,89,4891678,1014
70,88,4892354,308
72,91,4892693,650
41,91,4892693,1014
73,88,4893374,303
65,89,4893708,645
40,89,4893708,1011
67,88,4894384,305
70,93,4894724,682
39,93,4894724,1049
67,88,4895437,306
65,89,4895774,645
43,89,4895774,1014
79,88,4896450,830
42,91,4896789,1014
77,88,4897024,128
79,88,4897152,128
77,83,4897459,246
73,89,4897804,319
38,89,4897804,1011
72,88,4898144,309
70,88,4898474,341
67,85,4898820,2064
70,99,4898820,2064
43,81,4898820,712
43,76,4899533,367
42,89,4899870,1014
69,83,4900885,2026
72,97,4900885,2026
41,91,4900885,1014
40,89,4901900,1011
70,85,4902916,2064
74,99,4902916,2064
39,93,4902916,1049
34,89,4903966,1014
69,83,4904981,2026
75,97,4904981,2026
33,91,4904981,1014
30,89,4905996,1011
70,85,4907012,435
74,99,4907012,435
34,81,4907012,712
34,76,4907725,367
60,81,4908062,400
67,95,4908062,400
31,89,4908062,1014
74,83,4909077,400
79,97,4909077,400
34,91,4909077,1014
63,81,4910092,397
67,95,4910092,397
36,89,4910092,1011
78,93,4911108,682
67,93,4911108,682
38,93,4911108,1049
75,88,4911821,398
69,88,4911821,398
40,89,4912158,1014
74,110,4912834,989
66,110,4912834,2365
42,91,4913173,1014
75,88,4913854,394
74,88,4914188,736
38,89,4914188,1011
75,88,4914864,396
74,71,4915204,609
43,81,4915204,712
43,76,4915917,367
70,77,4916254,400
42,89,4916254,1014
67,79,4917269,400
41,91,4917269,1014
62,77,4918284,397
40,89,4918284,1011
70,81,4919300,435
39,93,4919300,1049
67,89,4920350,645
34,89,4920350,1014
69,88,4921026,989
33,91,4921365,1014
75,88,4922046,394
74,88,4922380,736
30,89,4922380,1011
75,88,4923056,396
70,83,4923396,609
39,93,4923396,1049
67,89,4924446,645
34,89,4924446,1014
69,88,4925122,989
33,91,4925461,1014
75,88,4926142,394
74,88,4926476,736
30,89,4926476,1011
75,88,4927152,396
70,83,4927492,609
39,93,4927492,1049
67,89,4928542,645
34,89,4928542,1014
69,88,4929218,989
33,91,4929557,1014
72,80,4930238,394
75,94,4930238,333
70,80,4930572,736
74,94,4930572,675
30,89,4930572,1011
72,80,4931248,396
75,94,4931248,335
70,80,4931588,712
74,94,4931588,712
43,81,4931588,712
70,80,4932301,336
74,94,4932301,336
43,76,4932301,367
67,75,4932638,400
70,89,4932638,400
42,89,4932638,1014
62,83,4933653,400
67,97,4933653,400
41,91,4933653,1014
58,81,4934668,397
62,95,4934668,397
40,89,4934668,1011
67,85,4935684,435
70,99,4935684,435
39,93,4935684,1049
69,81,4936734,675
72,95,4936734,675
43,89,4936734,1014
66,80,4937410,989
69,94,4937410,1019
42,91,4937749,1014
75,88,4938430,394
74,88,4938764,736
38,89,4938764,1011
75,88,4939440,396
67,75,4939780,609
70,89,4939780,435
39,93,4939780,1049
69,81,4940830,675
72,95,4940830,675
43,89,4940830,1014
66,80,4941506,989
69,94,4941506,1019
42,91,4941845,1014
75,88,4942526,394
74,88,4942860,736
38,89,4942860,1011
75,88,4943536,396
67,75,4943876,609
70,89,4943876,435
39,93,4943876,1049
69,81,4944926,675
72,95,4944926,675
43,89,4944926,1014
66,80,4945602,989
69,94,4945602,1019
42,91,4945941,1014
75,88,4946622,394
74,88,4946956,736
38,89,4946956,1011
75,88,4947632,396
74,71,4947972,609
43,81,4947972,712
43,76,4948685,367
70,77,4949022,400
42,89,4949022,1014
67,79,4950037,400
41,91,4950037,1014
62,77,4951052,397
40,89,4951052,1011
70,81,4952068,435
39,93,4952068,1049
67,89,4953118,645
34,89,4953118,1014
69,88,4953794,989
33,91,4954133,1014
75,88,4954814,394
74,88,4955148,736
30,89,4955148,1011
75,88,4955824,396
70,83,4956164,609
39,93,4956164,1049
67,89,4957214,645
34,89,4957214,1014
69,88,4957890,989
33,91,4958229,1014
75,88,4958910,394
74,88,4959244,736
30,89,4959244,1011
75,88,4959920,396
70,83,4960260,609
39,93,4960260,1049
67,89,4961310,645
34,89,4961310,1014
69,88,4961986,989
33,91,4962325,1014
75,88,4963006,394
74,88,4963340,736
30,89,4963340,1011
75,88,4964016,396
74,83,4964356,609
43,81,4964356,712
43,76,4965069,367
79,89,4965406,400
42,89,4965406,1014
72,91,4966421,400
41,91,4966421,1014
70,89,4967436,397
40,89,4967436,1011
72,88,4968452,773
39,93,4968452,1049
70,83,4969165,218
34,89,4969502,1014
72,110,4970178,1353
33,91,4970517,1014
58,81,4971532,265
70,95,4971532,265
30,89,4971532,1011
60,80,4972208,396
72,94,4972208,335
61,80,4972548,773
73,94,4972548,712
36,81,4972548,712
60,80,4973261,397
72,94,4973261,336
36,76,4973261,367
58,75,4973598,574
70,89,4973598,400
34,89,4973598,400
55,83,4974613,400
67,97,4974613,400
36,91,4974613,400
62,89,4975628,397
37,89,4975628,397
53,80,4976644,773
60,80,4976644,773
65,94,4976644,712
38,93,4976644,712
54,75,4977357,218
61,75,4977357,33
66,89,4977357,131
38,88,4977357,306
42,89,4977694,645
55,102,4978370,2365
62,102,4978370,2365
67,116,4978370,2365
43,88,4978370,2365
73,88,4980740,773
39,93,4980740,1049
72,88,4981453,397
70,83,4981790,574
34,89,4981790,1014
67,91,4982805,400
33,91,4982805,1014
62,89,4983820,397
31,89,4983820,1011
73,88,4984836,773
39,93,4984836,1049
72,88,4985549,397
70,83,4985886,574
34,89,4985886,1014
67,91,4986901,400
33,91,4986901,1014
62,89,4987916,397
31,89,4987916,1011
73,88,4988932,773
39,93,4988932,1049
72,88,4989645,397
70,83,4989982,574
34,89,4989982,1014
73,88,4990997,741
39,91,4990997,1014
72,88,4991678,394
70,83,4992012,571
34,89,4992012,1011
73,88,4993028,773
39,93,4993028,1049
72,88,4993741,397
70,83,4994078,574
34,89,4994078,1014
67,91,4995093,400
33,91,4995093,1014
62,89,4996108,397
31,89,4996108,1011
65,88,4997124,773
43,81,4997124,712
66,83,4997837,218
43,76,4997837,367
42,89,4998174,1014
67,110,4998850,1353
41,91,4999189,1014
79,89,5000204,397
40,89,5000204,1011
65,88,5001220,773
43,81,5001220,712
66,83,5001933,218
43,76,5001933,367
42,89,5002270,1014
67,110,5002946,1353
41,91,5003285,1014
79,89,5004300,397
40,89,5004300,1011
65,76,5005316,712
43,81,5005316,712
65,76,5006029,397
43,76,5006029,367
67,83,5006366,574
42,89,5006366,1014
74,88,5007381,741
41,91,5007381,1014
72,80,5008062,394
79,94,5008062,333
70,88,5008396,736
40,89,5008396,1011
67,88,5009072,396
65,88,5009412,773
43,81,5009412,712
66,83,5010125,218
43,76,5010125,367
42,89,5010462,1014
67,110,5011138,2365
41,91,5011477,1014
40,89,5012492,1011
73,88,5013508,773
63,85,5013508,1049
70,99,5013508,1049
39,81,5013508,712
72,88,5014221,397
39,76,5014221,367
70,83,5014558,574
58,80,5014558,736
61,94,5014558,675
34,89,5014558,1014
57,75,5015234,220
60,89,5015234,133
67,91,5015573,400
33,91,5015573,1014
58,80,5016254,394
61,94,5016254,333
62,89,5016588,397
57,75,5016588,188
60,89,5016588,101
31,89,5016588,1011
73,88,5017604,773
63,85,5017604,1049
70,99,5017604,1049
39,81,5017604,712
72,88,5018317,397
39,76,5018317,367
70,83,5018654,574
58,80,5018654,736
61,94,5018654,675
34,89,5018654,1014
57,75,5019330,220
60,89,5019330,133
67,91,5019669,400
33,91,5019669,1014
58,80,5020350,394
61,94,5020350,333
62,89,5020684,397
57,75,5020684,188
60,89,5020684,101
31,89,5020684,1011
73,88,5021700,773
67,80,5021700,1049
70,94,5021700,1049
39,81,5021700,712
72,88,5022413,397
39,76,5022413,367
70,83,5022750,574
62,75,5022750,328
67,89,5022750,154
34,89,5022750,1014
73,88,5023765,741
60,80,5023765,741
67,94,5023765,680
39,79,5023765,680
72,88,5024446,394
58,75,5024446,215
65,89,5024446,128
39,76,5024446,364
70,83,5024780,571
34,89,5024780,1011
62,102,5025456,2404
67,116,5025456,2404
73,88,5025796,773
39,81,5025796,712
72,88,5026509,397
39,76,5026509,367
70,83,5026846,574
34,89,5026846,1014
67,91,5027861,400
33,91,5027861,1014
62,89,5028876,397
31,89,5028876,1011
65,88,5029892,773
43,81,5029892,712
66,83,5030605,218
43,76,5030605,367
42,89,5030942,1014
67,110,5031618,1353
41,91,5031957,1014
79,89,5032972,397
40,89,5032972,1011
65,88,5033988,773
43,81,5033988,712
66,83,5034701,218
43,76,5034701,367
42,89,5035038,1014
67,110,5035714,1353
41,91,5036053,1014
79,89,5037068,397
40,89,5037068,1011
65,76,5038084,712
43,81,5038084,712
65,76,5038797,397
43,76,5038797,367
67,83,5039134,574
42,89,5039134,1014
74,88,5040149,741
41,91,5040149,1014
72,80,5040830,394
79,94,5040830,333
70,88,5041164,736
40,89,5041164,1011
67,88,5041840,396
53,85,5042180,682
62,85,5042180,682
65,99,5042180,712
43,93,5042180,682
54,80,5042893,306
63,80,5042893,306
66,94,5042893,336
42,88,5042893,306
55,80,5043906,1353
64,80,5043906,1353
67,94,5043906,1353
43,88,5043906,1353
56,59,5046276,435
62,59,5046276,435
65,73,5046276,435
57,55,5047326,400
63,55,5047326,400
66,69,5047326,400
58,57,5048341,400
64,57,5048341,400
67,71,5048341,400
56,59,5050372,435
62,59,5050372,435
65,73,5050372,435
57,54,5051422,736
63,54,5051422,736
66,68,5051422,675
58,49,5052098,220
64,49,5052098,35
67,63,5052098,133
56,58,5054128,1052
62,58,5054128,1052
65,72,5054128,1052
56,42,5055181,397
62,42,5055181,397
65,56,5055181,336
57,49,5055518,574
63,49,5055518,306
66,63,5055518,400
58,57,5056533,400
64,57,5056533,400
67,71,5056533,400
53,55,5057548,397
59,55,5057548,397
62,69,5057548,397
56,54,5058564,773
62,54,5058564,773
65,68,5058564,712
57,49,5059277,218
63,49,5059277,33
66,63,5059277,131
58,54,5060290,133
64,54,5060290,103
67,68,5060290,133
56,59,5062660,435
62,59,5062660,435
65,73,5062660,435
57,55,5063710,400
63,55,5063710,400
66,69,5063710,400
58,57,5064725,400
64,57,5064725,400
67,71,5064725,400
56,59,5066756,435
62,59,5066756,435
65,73,5066756,435
57,54,5067806,736
63,54,5067806,736
66,68,5067806,675
58,49,5068482,220
64,49,5068482,35
67,63,5068482,133
56,70,5070512,1052
62,70,5070512,1052
65,84,5070512,1052
56,54,5071565,397
62,54,5071565,397
65,68,5071565,336
57,49,5071902,352
63,49,5071902,167
66,63,5071902,265
53,54,5072578,399
59,54,5072578,399
62,68,5072578,338
58,49,5072917,270
64,49,5072917,172
67,63,5072917,270
52,54,5073598,394
58,54,5073598,394
61,68,5073598,333
53,54,5073932,736
59,54,5073932,736
62,68,5073932,675
54,54,5074608,396
60,54,5074608,396
63,68,5074608,335
56,54,5074948,773
62,54,5074948,773
65,68,5074948,712
57,49,5075661,218
63,49,5075661,33
66,63,5075661,131
58,54,5076674,133
64,54,5076674,103
67,68,5076674,133
67,71,5078028,1011
79,85,5078028,1011
56,72,5079044,435
62,72,5079044,435
65,86,5079044,435
53,80,5079044,435
57,68,5080094,400
63,68,5080094,400
66,82,5080094,400
54,76,5080094,400
58,70,5081109,400
64,70,5081109,400
67,84,5081109,400
55,78,5081109,400
56,72,5083140,435
62,72,5083140,435
65,86,5083140,435
53,80,5083140,435
57,67,5084190,736
63,67,5084190,736
66,81,5084190,675
54,75,5084190,736
58,62,5084866,220
64,62,5084866,35
67,76,5084866,133
55,70,5084866,220
56,74,5086896,1052
62,74,5086896,1052
65,88,5086896,1052
53,82,5086896,1052
56,55,5087949,397
62,55,5087949,397
65,69,5087949,336
53,63,5087949,397
57,62,5088286,574
63,62,5088286,306
66,76,5088286,400
54,70,5088286,574
58,70,5089301,400
64,70,5089301,400
67,84,5089301,400
55,78,5089301,400
53,68,5090316,397
59,68,5090316,397
62,82,5090316,397
50,76,5090316,397
56,67,5091332,773
62,67,5091332,773
65,81,5091332,712
53,75,5091332,773
57,62,5092045,218
63,62,5092045,33
66,76,5092045,131
54,70,5092045,218
58,67,5093058,133
64,67,5093058,103
67,81,5093058,133
55,75,5093058,133
56,72,5095428,435
62,72,5095428,435
65,86,5095428,435
53,80,5095428,435
57,68,5096478,400
63,68,5096478,400
66,82,5096478,400
54,76,5096478,400
58,70,5097493,400
64,70,5097493,400
67,84,5097493,400
55,78,5097493,400
56,72,5099524,435
62,72,5099524,435
65,86,5099524,435
53,80,5099524,435
57,67,5100574,736
63,67,5100574,736
66,81,5100574,675
54,75,5100574,736
58,62,5101250,220
64,62,5101250,35
67,76,5101250,133
55,70,5101250,220
56,86,5103280,1052
62,86,5103280,1052
65,100,5103280,1052
53,94,5103280,1052
56,67,5104333,397
62,67,5104333,397
65,81,5104333,336
53,75,5104333,397
57,62,5104670,352
63,62,5104670,167
66,76,5104670,265
54,70,5104670,352
53,67,5105346,308
59,67,5105346,399
62,81,5105346,338
53,67,5105346,308
62,81,5105346,338
58,62,5105685,270
64,62,5105685,172
67,76,5105685,270
55,78,5105685,270
52,67,5106366,394
58,67,5106366,394
61,81,5106366,333
60,75,5106366,303
53,67,5106700,736
59,67,5106700,736
62,81,5106700,675
50,75,5106700,736
54,67,5107376,396
60,67,5107376,396
63,81,5107376,335
51,75,5107376,396
56,67,5107716,773
62,67,5107716,773
65,81,5107716,712
53,75,5107716,773
57,62,5108429,218
63,62,5108429,33
66,76,5108429,131
54,70,5108429,218
58,67,5109442,133
64,67,5109442,103
67,81,5109442,133
55,75,5109442,133
67,87,5110796,1011
79,101,5110796,1011
74,93,5111812,435
62,81,5111812,435
41,85,5111812,435
50,85,5111812,435
53,99,5111812,435
77,89,5112862,400
65,77,5112862,400
42,81,5112862,400
51,81,5112862,400
54,95,5112862,400
79,91,5113877,400
70,79,5113877,400
43,83,5113877,400
52,83,5113877,400
55,97,5113877,400
67,77,5114892,397
38,88,5114892,397
74,93,5115908,435
41,85,5115908,435
50,85,5115908,435
53,99,5115908,435
72,88,5116621,306
77,88,5116958,736
70,89,5116958,645
42,80,5116958,736
51,80,5116958,736
54,94,5116958,675
79,83,5117634,220
67,88,5117634,133
43,75,5117634,220
52,75,5117634,35
55,89,5117634,133
62,88,5118654,303
65,89,5118988,265
38,88,5118988,645
82,98,5119664,1052
72,88,5119664,1052
41,102,5119664,1052
50,102,5119664,335
53,112,5119664,1052
50,80,5120004,712
82,76,5120717,397
72,88,5120717,306
41,80,5120717,397
50,80,5120717,397
53,94,5120717,336
81,83,5121054,574
70,89,5121054,265
42,75,5121054,574
51,75,5121054,306
54,89,5121054,400
67,88,5121730,308
79,91,5122069,400
70,91,5122069,400
43,83,5122069,400
52,83,5122069,400
55,97,5122069,400
77,89,5123084,397
67,89,5123084,397
38,80,5123084,397
47,81,5123084,397
50,95,5123084,397
74,88,5124100,773
62,93,5124100,682
41,80,5124100,773
50,80,5124100,773
53,94,5124100,712
77,83,5124813,218
65,88,5124813,131
42,75,5124813,218
51,75,5124813,33
54,89,5124813,131
79,88,5125826,133
67,88,5125826,133
43,80,5125826,133
52,80,5125826,103
55,94,5125826,133
72,88,5126846,303
70,89,5127180,265
38,88,5127180,397
67,88,5127856,305
74,93,5128196,435
62,81,5128196,435
41,85,5128196,435
50,85,5128196,435
53,99,5128196,435
77,89,5129246,400
65,77,5129246,400
42,81,5129246,400
51,81,5129246,400
54,95,5129246,400
79,91,5130261,400
70,79,5130261,400
43,83,5130261,400
52,83,5130261,400
55,97,5130261,400
67,77,5131276,397
38,88,5131276,397
74,93,5132292,435
41,85,5132292,435
50,85,5132292,435
53,99,5132292,435
72,88,5133005,306
77,88,5133342,736
70,89,5133342,645
42,80,5133342,736
51,80,5133342,736
54,94,5133342,675
79,83,5134018,220
67,88,5134018,133
43,75,5134018,220
52,75,5134018,35
55,89,5134018,133
67,88,5135038,303
70,89,5135372,265
38,88,5135372,645
82,98,5136048,1052
72,88,5136048,1052
41,102,5136048,1052
50,102,5136048,335
53,112,5136048,1052
50,80,5136388,712
82,76,5137101,397
72,88,5137101,306
41,80,5137101,397
50,80,5137101,397
53,94,5137101,336
81,83,5137438,574
70,89,5137438,400
42,75,5137438,352
51,75,5137438,167
54,89,5137438,265
38,79,5138114,399
47,80,5138114,399
50,94,5138114,338
79,91,5138453,400
72,91,5138453,400
43,75,5138453,357
52,75,5138453,172
55,89,5138453,270
37,79,5139134,394
46,80,5139134,394
49,94,5139134,333
77,89,5139468,397
70,89,5139468,397
38,79,5139468,736
47,80,5139468,736
50,94,5139468,675
39,79,5140144,396
48,80,5140144,396
51,94,5140144,335
74,88,5140484,773
62,93,5140484,682
41,80,5140484,773
50,80,5140484,773
53,94,5140484,712
77,83,5141197,218
65,88,5141197,131
42,75,5141197,218
51,75,5141197,33
54,89,5141197,131
79,88,5142210,133
67,88,5142210,133
43,80,5142210,133
52,80,5142210,103
55,94,5142210,133
70,81,5143564,645
74,81,5143564,645
79,95,5143564,675
67,85,5144580,2064
79,99,5144580,2064
43,81,5144580,712
43,76,5145293,367
42,89,5145630,1014
41,91,5146645,1014
40,89,5147660,1011
39,93,5148676,1049
61,102,5149389,1351
73,116,5149389,1351
34,89,5149726,1014
60,83,5150741,650
72,97,5150741,680
33,91,5150741,1014
58,80,5151422,303
70,94,5151422,333
55,81,5151756,1698
67,95,5151756,1728
30,89,5151756,1011
43,81,5152772,712
73,88,5153485,306
43,76,5153485,367
72,89,5153822,645
42,89,5153822,1014
70,88,5154498,308
72,91,5154837,650
41,91,5154837,1014
73,88,5155518,303
65,89,5155852,645
40,89,5155852,1011
67,88,5156528,305
70,93,5156868,682
39,93,5156868,1049
67,88,5157581,306
65,89,5157918,645
43,89,5157918,1014
79,88,5158594,830
42,91,5158933,1014
77,88,5159168,128
79,88,5159296,128
77,83,5159603,246
73,89,5159948,319
38,89,5159948,1011
72,88,5160288,309
70,88,5160618,341
67,85,5160964,2064
70,99,5160964,2064
43,81,5160964,712
43,76,5161677,367
42,89,5162014,1014
69,83,5163029,2026
72,97,5163029,2026
41,91,5163029,1014
40,89,5164044,1011
70,85,5165060,2064
74,99,5165060,2064
39,93,5165060,1049
34,89,5166110,1014
69,83,5167125,2026
75,97,5167125,2026
33,91,5167125,1014
30,89,5168140,1011
70,85,5169156,435
74,99,5169156,435
34,81,5169156,712
34,76,5169869,367
60,81,5170206,400
67,95,5170206,400
31,89,5170206,1014
74,83,5171221,400
79,97,5171221,400
34,91,5171221,1014
63,81,5172236,397
67,95,5172236,397
36,89,5172236,1011
78,93,5173252,682
67,93,5173252,682
38,93,5173252,1049
75,88,5173965,398
69,88,5173965,398
40,89,5174302,1014
74,110,5174978,989
66,110,5174978,2365
42,91,5175317,1014
75,88,5175998,394
74,88,5176332,736
38,89,5176332,1011
75,88,5177008,396
74,71,5177348,609
43,81,5177348,712
43,76,5178061,367
70,77,5178398,400
42,89,5178398,1014
67,79,5179413,400
41,91,5179413,1014
62,77,5180428,397
40,89,5180428,1011
70,81,5181444,435
39,93,5181444,1049
67,89,5182494,645
34,89,5182494,1014
69,88,5183170,989
33,91,5183509,1014
75,88,5184190,394
74,88,5184524,736
30,89,5184524,1011
75,88,5185200,396
70,83,5185540,609
39,93,5185540,1049
67,89,5186590,645
34,89,5186590,1014
69,88,5187266,989
33,91,5187605,1014
75,88,5188286,394
74,88,5188620,736
30,89,5188620,1011
75,88,5189296,396
70,83,5189636,609
39,93,5189636,1049
67,89,5190686,645
34,89,5190686,1014
69,88,5191362,989
33,91,5191701,1014
72,80,5192382,394
75,94,5192382,333
70,80,5192716,736
74,94,5192716,675
30,89,5192716,1011
72,80,5193392,396
75,94,5193392,335
70,80,5193732,712
74,94,5193732,712
43,81,5193732,712
70,80,5194445,336
74,94,5194445,336
43,76,5194445,367
67,75,5194782,400
70,89,5194782,400
42,89,5194782,1014
62,83,5195797,400
67,97,5195797,400
41,91,5195797,1014
58,81,5196812,397
62,95,5196812,397
40,89,5196812,1011
67,85,5197828,435
70,99,5197828,435
39,93,5197828,1049
69,81,5198878,675
72,95,5198878,675
43,89,5198878,1014
66,80,5199554,989
69,94,5199554,1019
42,91,5199893,1014
75,88,5200574,394
74,88,5200908,736
38,89,5200908,1011
75,88,5201584,396
67,75,5201924,609
70,89,5201924,435
39,93,5201924,1049
69,81,5202974,675
72,95,5202974,675
43,89,5202974,1014
66,80,5203650,989
69,94,5203650,1019
42,91,5203989,1014
75,88,5204670,394
74,88,5205004,736
38,89,5205004,1011
75,88,5205680,396
67,75,5206020,609
70,89,5206020,435
39,93,5206020,1049
69,81,5207070,675
72,95,5207070,675
43,89,5207070,1014
66,80,5207746,989
69,94,5207746,1019
42,91,5208085,1014
75,88,5208766,394
74,88,5209100,736
38,89,5209100,1011
75,88,5209776,396
74,71,5210116,609
43,81,5210116,712
43,76,5210829,367
70,77,5211166,400
42,89,5211166,1014
67,79,5212181,400
41,91,5212181,1014
62,77,5213196,397
40,89,5213196,1011
70,81,5214212,435
39,93,5214212,1049
67,89,5215262,645
34,89,5215262,1014
69,88,5215938,989
33,91,5216277,1014
75,88,5216958,394
74,88,5217292,736
30,89,5217292,1011
75,88,5217968,396
70,83,5218308,609
39,93,5218308,1049
67,89,5219358,645
34,89,5219358,1014
69,88,5220034,989
33,91,5220373,1014
75,88,5221054,394
74,88,5221388,736
30,89,5221388,1011
75,88,5222064,396
70,83,5222404,609
39,93,5222404,1049
67,89,5223454,645
34,89,5223454,1014
69,88,5224130,989
33,91,5224469,1014
75,88,5225150,394
74,88,5225484,736
30,89,5225484,1011
75,88,5226160,396
74,83,5226500,609
43,81,5226500,712
43,76,5227213,367
79,89,5227550,400
42,89,5227550,1014
72,91,5228565,400
41,91,5228565,1014
70,89,5229580,397
40,89,5229580,1011
72,88,5230596,773
39,93,5230596,1049
70,83,5231309,218
34,89,5231646,1014
72,110,5232322,1353
33,91,5232661,1014
58,81,5233676,265
70,95,5233676,265
30,89,5233676,1011
60,80,5234352,396
72,94,5234352,335
61,80,5234692,773
73,94,5234692,712
36,81,5234692,712
60,80,5235405,397
72,94,5235405,336
36,76,5235405,367
58,75,5235742,574
70,89,5235742,400
34,89,5235742,400
55,83,5236757,400
67,97,5236757,400
36,91,5236757,400
62,89,5237772,397
37,89,5237772,397
53,80,5238788,773
60,80,5238788,773
65,94,5238788,712
38,93,5238788,712
54,75,5239501,218
61,75,5239501,33
66,89,5239501,131
38,88,5239501,306
42,89,5239838,645
55,102,5240514,2365
62,102,5240514,2365
67,116,5240514,2365
43,88,5240514,2365
