note,velocity,position,duration
45,80,10,228
45,75,546,200
76,76,1054,197
69,76,1054,197
57,76,1054,197
68,75,1559,202
45,75,1559,202
69,78,2069,202
40,77,2069,202
71,75,2579,197
40,74,2579,197
76,76,3084,197
73,76,3084,197
55,76,3084,197
44,75,3589,199
67,80,4100,1554
45,80,4100,234
45,75,4642,200
75,76,5150,197
57,76,5150,197
69,75,5655,202
45,75,5655,202
64,78,6165,202
40,77,6165,202
40,74,6675,197
75,76,7180,197
61,76,7180,197
55,76,7180,197
44,75,7685,199
64,80,8196,234
45,80,8196,234
66,75,8738,200
45,75,8738,200
76,76,9246,197
67,75,9246,3041
57,76,9246,197
45,75,9751,202
40,77,10261,202
40,74,10771,197
76,76,11276,197
55,76,11276,197
44,75,11781,199
45,80,12292,234
45,75,12834,200
75,76,13342,197
57,76,13342,197
73,75,13847,202
45,75,13847,202
75,78,14357,202
40,77,14357,202
76,75,14867,197
40,74,14867,197
75,76,15372,197
55,76,15372,197
73,75,15877,199
44,75,15877,199
45,80,16388,234
45,75,16930,200
81,76,17438,197
73,76,17438,197
57,76,17438,197
71,75,17943,202
45,75,17943,202
69,78,18453,202
40,77,18453,202
71,75,18963,197
40,74,18963,197
81,76,19468,197
76,76,19468,197
55,76,19468,197
44,75,19973,199
75,80,20484,1554
47,80,20484,234
47,75,21026,200
78,76,21534,197
59,76,21534,197
73,75,22039,202
47,75,22039,202
71,78,22549,202
42,78,22549,202
42,75,23059,197
78,76,23564,197
75,76,23564,197
59,76,23564,197
47,75,24069,199
76,80,24580,234
45,80,24580,234
75,75,25122,200
45,75,25122,200
76,76,25630,474
73,75,25630,3041
57,76,25630,197
45,75,26135,202
40,77,26645,202
40,74,27155,197
76,76,27660,197
55,76,27660,197
44,75,28165,199
45,80,28676,234
45,75,29218,200
75,76,29726,197
57,76,29726,197
73,75,30231,202
45,75,30231,202
75,78,30741,202
40,77,30741,202
76,75,31251,197
40,74,31251,197
78,76,31756,197
55,76,31756,197
75,75,32261,199
44,75,32261,199
45,80,32772,234
45,75,33314,200
76,76,33822,197
69,76,33822,197
57,76,33822,197
68,75,34327,202
45,75,34327,202
69,78,34837,202
40,77,34837,202
71,75,35347,197
40,74,35347,197
76,76,35852,197
73,76,35852,197
55,76,35852,197
44,75,36357,199
67,80,36868,1554
45,80,36868,234
45,75,37410,200
75,76,37918,197
57,76,37918,197
69,75,38423,202
45,75,38423,202
64,78,38933,202
40,77,38933,202
40,74,39443,197
75,76,39948,197
61,76,39948,197
55,76,39948,197
44,75,40453,199
64,80,40964,234
45,80,40964,234
66,75,41506,200
45,75,41506,200
76,76,42014,197
67,75,42014,3041
57,76,42014,197
45,75,42519,202
40,77,43029,202
40,74,43539,197
76,76,44044,197
55,76,44044,197
44,75,44549,199
45,80,45060,234
45,75,45602,200
75,76,46110,197
57,76,46110,197
73,75,46615,202
45,75,46615,202
75,78,47125,202
40,77,47125,202
76,75,47635,197
40,74,47635,197
75,76,48140,197
55,76,48140,197
73,75,48645,199
44,75,48645,199
45,80,49156,234
45,75,49698,200
81,76,50206,197
73,76,50206,197
57,76,50206,197
71,75,50711,202
45,75,50711,202
69,78,51221,202
40,77,51221,202
71,75,51731,197
40,74,51731,197
81,76,52236,197
76,76,52236,197
55,76,52236,197
44,75,52741,199
75,80,53252,1554
47,80,53252,234
47,75,53794,200
78,76,54302,197
59,76,54302,197
73,75,54807,202
47,75,54807,202
71,78,55317,202
42,78,55317,202
42,75,55827,197
78,76,56332,197
67,76,56332,197
59,76,56332,197
69,80,57348,234
51,80,57348,234
67,75,57890,200
49,75,57890,200
63,75,58398,1054
45,76,58398,197
75,70,59413,289
68,80,61444,234
50,80,61444,234
66,75,61986,200
48,75,61986,200
62,75,62494,1054
44,76,62494,197
74,70,63509,289
45,80,65546,228
45,75,66082,200
76,76,66590,197
69,76,66590,197
57,76,66590,197
68,75,67095,202
45,75,67095,202
69,78,67605,202
40,77,67605,202
71,75,68115,197
40,74,68115,197
76,76,68620,197
73,76,68620,197
55,76,68620,197
44,75,69125,199
67,80,69636,1554
45,80,69636,234
45,75,70178,200
75,76,70686,197
57,76,70686,197
69,75,71191,202
45,75,71191,202
64,78,71701,202
40,77,71701,202
40,74,72211,197
75,76,72716,197
61,76,72716,197
55,76,72716,197
44,75,73221,199
64,80,73732,234
45,80,73732,234
66,75,74274,200
45,75,74274,200
76,76,74782,197
67,75,74782,3041
57,76,74782,197
45,75,75287,202
40,77,75797,202
40,74,76307,197
76,76,76812,197
55,76,76812,197
44,75,77317,199
45,80,77828,234
45,75,78370,200
75,76,78878,197
57,76,78878,197
73,75,79383,202
45,75,79383,202
75,78,79893,202
40,77,79893,202
76,75,80403,197
40,74,80403,197
75,76,80908,197
55,76,80908,197
73,75,81413,199
44,75,81413,199
45,80,81924,234
45,75,82466,200
81,76,82974,197
73,76,82974,197
57,76,82974,197
71,75,83479,202
45,75,83479,202
69,78,83989,202
40,77,83989,202
71,75,84499,197
40,74,84499,197
81,76,85004,197
76,76,85004,197
55,76,85004,197
44,75,85509,199
75,80,86020,1554
47,80,86020,234
47,75,86562,200
78,76,87070,197
59,76,87070,197
73,75,87575,202
47,75,87575,202
71,78,88085,202
42,78,88085,202
42,75,88595,197
78,76,89100,197
75,76,89100,197
59,76,89100,197
47,75,89605,199
76,80,90116,234
45,80,90116,234
75,75,90658,200
45,75,90658,200
76,76,91166,474
73,75,91166,3041
57,76,91166,197
45,75,91671,202
40,77,92181,202
40,74,92691,197
76,76,93196,197
55,76,93196,197
44,75,93701,199
45,80,94212,234
45,75,94754,200
75,76,95262,197
57,76,95262,197
73,75,95767,202
45,75,95767,202
75,78,96277,202
40,77,96277,202
76,75,96787,197
40,74,96787,197
78,76,97292,197
55,76,97292,197
75,75,97797,199
44,75,97797,199
45,80,98308,234
45,75,98850,200
76,76,99358,197
69,76,99358,197
57,76,99358,197
68,75,99863,202
45,75,99863,202
69,78,100373,202
40,77,100373,202
71,75,100883,197
40,74,100883,197
76,76,101388,197
73,76,101388,197
55,76,101388,197
44,75,101893,199
67,80,102404,1554
45,80,102404,234
45,75,102946,200
75,76,103454,197
57,76,103454,197
69,75,103959,202
45,75,103959,202
64,78,104469,202
40,77,104469,202
40,74,104979,197
75,76,105484,197
61,76,105484,197
55,76,105484,197
44,75,105989,199
64,80,106500,234
45,80,106500,234
66,75,107042,200
45,75,107042,200
76,76,107550,197
67,75,107550,3041
57,76,107550,197
45,75,108055,202
40,77,108565,202
40,74,109075,197
76,76,109580,197
55,76,109580,197
44,75,110085,199
45,80,110596,234
45,75,111138,200
75,76,111646,197
57,76,111646,197
73,75,112151,202
45,75,112151,202
75,78,112661,202
40,77,112661,202
76,75,113171,197
40,74,113171,197
75,76,113676,197
55,76,113676,197
73,75,114181,199
44,75,114181,199
45,80,114692,234
45,75,115234,200
81,76,115742,197
73,76,115742,197
57,76,115742,197
71,75,116247,202
45,75,116247,202
69,78,116757,202
40,77,116757,202
71,75,117267,197
40,74,117267,197
81,76,117772,197
76,76,117772,197
55,76,117772,197
44,75,118277,199
75,80,118788,1554
47,80,118788,234
47,75,119330,200
78,76,119838,197
59,76,119838,197
73,75,120343,202
47,75,120343,202
71,78,120853,202
42,78,120853,202
42,75,121363,197
78,76,121868,197
67,76,121868,197
59,76,121868,197
69,80,122884,234
51,80,122884,234
67,75,123426,200
49,75,123426,200
63,75,123934,1054
45,76,123934,197
75,70,124949,289
68,80,126980,234
50,80,126980,234
66,75,127522,200
48,75,127522,200
62,75,128030,1054
44,76,128030,197
74,70,129045,289
67,80,131076,234
49,80,131076,234
65,75,131618,200
47,75,131618,200
61,75,132126,1054
43,76,132126,197
73,70,133141,289
66,80,135172,234
48,80,135172,234
64,75,135714,200
46,75,135714,200
60,75,136222,1054
42,76,136222,197
72,70,137237,289
47,75,138252,379
45,75,138592,370
40,74,138922,381
35,68,139268,712
35,73,139981,306
63,75,140318,736
39,75,140318,675
62,75,140994,399
39,74,140994,308
63,70,141333,357
42,78,141333,680
66,75,142014,394
42,75,142014,303
68,70,142348,927
44,76,142348,675
44,75,143024,305
67,75,143104,128
68,75,143232,43
69,70,143364,965
45,80,143364,712
45,75,144077,306
68,76,144414,265
44,76,144414,675
66,75,145090,1353
44,75,145090,308
42,78,145429,680
42,75,146110,303
63,76,146444,1011
39,75,146444,675
39,74,147120,305
64,75,147460,773
40,79,147460,712
62,70,148173,218
40,74,148173,306
59,76,148510,2029
44,76,148510,675
44,75,149186,308
47,78,149525,680
47,75,150206,303
57,68,150540,645
66,82,150540,675
49,76,150540,675
59,67,151216,305
68,81,151216,335
49,75,151216,305
50,80,151556,712
59,75,152269,306
50,75,152269,306
68,76,152606,645
49,76,152606,675
59,75,153282,308
49,75,153282,308
61,78,153621,650
47,78,153621,680
69,75,154302,303
47,75,154302,303
64,76,154636,645
44,76,154636,675
71,75,155312,305
44,75,155312,305
35,78,155652,712
35,73,156365,306
63,75,156702,736
39,75,156702,675
62,75,157378,399
39,74,157378,308
63,70,157717,357
42,78,157717,680
66,75,158398,394
42,75,158398,303
63,70,158732,927
44,76,158732,675
44,75,159408,305
67,75,159488,128
68,75,159616,128
69,70,159748,965
45,80,159748,712
45,75,160461,306
68,76,160798,265
44,76,160798,675
66,75,161474,1353
44,75,161474,308
42,78,161813,680
42,75,162494,303
67,76,162828,1011
39,75,162828,675
39,74,163504,305
68,75,163844,773
37,79,163844,712
65,75,164557,397
37,74,164557,306
61,70,164894,352
41,76,164894,675
41,75,165570,308
61,78,165909,1014
44,78,165909,680
44,75,166590,303
59,76,166924,265
46,76,166924,645
61,94,167600,305
44,75,167600,305
42,80,167940,712
66,75,168653,397
42,75,168653,306
64,70,168990,352
44,76,168990,675
44,75,169666,308
61,78,170005,270
46,78,170005,680
46,75,170686,303
58,76,171020,265
42,76,171020,675
42,75,171696,305
35,78,172036,712
35,73,172749,306
63,75,173086,736
39,75,173086,675
62,75,173762,399
39,74,173762,308
63,70,174101,357
42,78,174101,680
66,75,174782,394
42,75,174782,303
68,70,175116,927
44,76,175116,675
44,75,175792,305
67,75,175872,128
68,75,176000,43
69,70,176132,965
45,80,176132,712
45,75,176845,306
68,76,177182,265
44,76,177182,675
66,75,177858,1353
44,75,177858,308
42,78,178197,680
42,75,178878,303
63,76,179212,1011
39,75,179212,675
39,74,179888,305
64,75,180228,773
40,79,180228,712
62,70,180941,218
40,74,180941,306
59,76,181278,2029
44,76,181278,675
44,75,181954,308
47,78,182293,680
47,75,182974,303
57,68,183308,645
66,82,183308,675
49,76,183308,675
59,67,183984,305
68,81,183984,335
49,75,183984,305
50,80,184324,712
59,75,185037,306
50,75,185037,306
68,76,185374,645
49,76,185374,675
59,75,186050,308
49,75,186050,308
61,78,186389,650
47,78,186389,680
69,75,187070,303
47,75,187070,303
64,76,187404,645
44,76,187404,675
71,75,188080,305
44,75,188080,305
35,78,188420,712
35,73,189133,306
63,75,189470,736
39,75,189470,675
62,75,190146,399
39,74,190146,308
63,70,190485,357
42,78,190485,680
66,75,191166,394
42,75,191166,303
63,70,191500,927
44,76,191500,675
44,75,192176,305
67,75,192256,128
68,75,192384,128
69,70,192516,965
45,80,192516,712
45,75,193229,306
68,76,193566,265
44,76,193566,675
66,75,194242,1353
44,75,194242,308
42,78,194581,680
42,75,195262,303
67,76,195596,1011
39,75,195596,675
39,74,196272,305
65,72,196612,712
68,86,196612,712
37,79,196612,1049
61,67,197325,336
65,81,197325,336
56,68,197662,265
61,82,197662,265
70,70,198677,680
73,84,198677,680
42,78,198677,1014
66,67,199358,333
70,81,199358,333
61,68,199692,265
66,82,199692,265
63,72,200708,712
66,86,200708,712
35,78,200708,1049
59,67,201421,336
63,81,201421,336
54,68,201758,265
59,82,201758,265
68,70,202773,680
71,84,202773,680
40,77,202773,1014
64,67,203454,333
68,81,203454,333
59,68,203788,265
64,82,203788,265
64,80,204804,667
33,77,204804,1049
61,75,205512,321
57,76,205854,474
61,75,206359,479
69,78,206869,634
38,77,206869,1014
66,75,207544,319
62,76,207884,474
66,75,208389,476
62,80,208900,667
31,77,208900,1049
59,75,209608,321
55,76,209950,474
59,75,210455,479
67,78,210965,634
36,76,210965,1014
64,75,211640,319
60,76,211980,474
64,75,212485,476
61,80,212996,234
33,77,212996,234
61,72,217092,234
73,86,217092,204
45,80,221194,228
45,75,221730,200
76,76,222238,197
69,76,222238,197
57,76,222238,197
68,75,222743,202
45,75,222743,202
69,78,223253,202
40,77,223253,202
71,75,223763,197
40,74,223763,197
76,76,224268,197
73,76,224268,197
55,76,224268,197
44,75,224773,199
67,80,225284,1554
45,80,225284,234
45,75,225826,200
75,76,226334,197
57,76,226334,197
69,75,226839,202
45,75,226839,202
64,78,227349,202
40,77,227349,202
40,74,227859,197
75,76,228364,197
61,76,228364,197
55,76,228364,197
44,75,228869,199
64,80,229380,234
45,80,229380,234
66,75,229922,200
45,75,229922,200
76,76,230430,197
67,75,230430,3041
57,76,230430,197
45,75,230935,202
40,77,231445,202
40,74,231955,197
76,76,232460,197
55,76,232460,197
44,75,232965,199
45,80,233476,234
45,75,234018,200
75,76,234526,197
57,76,234526,197
73,75,235031,202
45,75,235031,202
75,78,235541,202
40,77,235541,202
76,75,236051,197
40,74,236051,197
75,76,236556,197
55,76,236556,197
73,75,237061,199
44,75,237061,199
45,80,237572,234
45,75,238114,200
81,76,238622,197
73,76,238622,197
57,76,238622,197
71,75,239127,202
45,75,239127,202
69,78,239637,202
40,77,239637,202
71,75,240147,197
40,74,240147,197
81,76,240652,197
76,76,240652,197
55,76,240652,197
44,75,241157,199
75,80,241668,1554
47,80,241668,234
47,75,242210,200
78,76,242718,197
59,76,242718,197
73,75,243223,202
47,75,243223,202
71,78,243733,202
42,78,243733,202
42,75,244243,197
78,76,244748,197
75,76,244748,197
59,76,244748,197
47,75,245253,199
76,80,245764,234
45,80,245764,234
75,75,246306,200
45,75,246306,200
76,76,246814,474
73,75,246814,3041
57,76,246814,197
45,75,247319,202
40,77,247829,202
40,74,248339,197
76,76,248844,197
55,76,248844,197
44,75,249349,199
45,80,249860,234
45,75,250402,200
75,76,250910,197
57,76,250910,197
73,75,251415,202
45,75,251415,202
75,78,251925,202
40,77,251925,202
76,75,252435,197
40,74,252435,197
78,76,252940,197
55,76,252940,197
75,75,253445,199
44,75,253445,199
45,80,253956,234
45,75,254498,200
76,76,255006,197
69,76,255006,197
57,76,255006,197
68,75,255511,202
45,75,255511,202
69,78,256021,202
40,77,256021,202
71,75,256531,197
40,74,256531,197
76,76,257036,197
73,76,257036,197
55,76,257036,197
44,75,257541,199
67,80,258052,1554
45,80,258052,234
45,75,258594,200
75,76,259102,197
57,76,259102,197
69,75,259607,202
45,75,259607,202
64,78,260117,202
40,77,260117,202
40,74,260627,197
75,76,261132,197
61,76,261132,197
55,76,261132,197
44,75,261637,199
64,80,262148,234
45,80,262148,234
66,75,262690,200
45,75,262690,200
76,76,263198,197
67,75,263198,3041
57,76,263198,197
45,75,263703,202
40,77,264213,202
40,74,264723,197
76,76,265228,197
55,76,265228,197
44,75,265733,199
45,80,266244,234
45,75,266786,200
75,76,267294,197
57,76,267294,197
73,75,267799,202
45,75,267799,202
75,78,268309,202
40,77,268309,202
76,75,268819,197
40,74,268819,197
75,76,269324,197
55,76,269324,197
73,75,269829,199
44,75,269829,199
45,80,270340,234
45,75,270882,200
81,76,271390,197
73,76,271390,197
57,76,271390,197
71,75,271895,202
45,75,271895,202
69,78,272405,202
40,77,272405,202
71,75,272915,197
40,74,272915,197
81,76,273420,197
76,76,273420,197
55,76,273420,197
44,75,273925,199
75,80,274436,1554
47,80,274436,234
47,75,274978,200
78,76,275486,197
59,76,275486,197
73,75,275991,202
47,75,275991,202
71,78,276501,202
42,78,276501,202
42,75,277011,197
78,76,277516,197
67,76,277516,197
59,76,277516,197
69,80,278532,234
51,80,278532,234
67,75,279074,200
49,75,279074,200
63,75,279582,1054
45,76,279582,197
75,70,280597,289
68,80,282628,234
50,80,282628,234
66,75,283170,200
48,75,283170,200
62,75,283678,1054
44,76,283678,197
74,70,284693,289
45,80,286730,228
45,75,287266,200
76,76,287774,197
69,76,287774,197
57,76,287774,197
68,75,288279,202
45,75,288279,202
69,78,288789,202
40,77,288789,202
71,75,289299,197
40,74,289299,197
76,76,289804,197
73,76,289804,197
55,76,289804,197
44,75,290309,199
67,80,290820,1554
45,80,290820,234
45,75,291362,200
75,76,291870,197
57,76,291870,197
69,75,292375,202
45,75,292375,202
64,78,292885,202
40,77,292885,202
40,74,293395,197
75,76,293900,197
61,76,293900,197
55,76,293900,197
44,75,294405,199
64,80,294916,234
45,80,294916,234
66,75,295458,200
45,75,295458,200
76,76,295966,197
67,75,295966,3041
57,76,295966,197
45,75,296471,202
40,77,296981,202
40,74,297491,197
76,76,297996,197
55,76,297996,197
44,75,298501,199
45,80,299012,234
45,75,299554,200
75,76,300062,197
57,76,300062,197
73,75,300567,202
45,75,300567,202
75,78,301077,202
40,77,301077,202
76,75,301587,197
40,74,301587,197
75,76,302092,197
55,76,302092,197
73,75,302597,199
44,75,302597,199
45,80,303108,234
45,75,303650,200
81,76,304158,197
73,76,304158,197
57,76,304158,197
71,75,304663,202
45,75,304663,202
69,78,305173,202
40,77,305173,202
71,75,305683,197
40,74,305683,197
81,76,306188,197
76,76,306188,197
55,76,306188,197
44,75,306693,199
75,80,307204,1554
47,80,307204,234
47,75,307746,200
78,76,308254,197
59,76,308254,197
73,75,308759,202
47,75,308759,202
71,78,309269,202
42,78,309269,202
42,75,309779,197
78,76,310284,197
75,76,310284,197
59,76,310284,197
47,75,310789,199
76,80,311300,234
45,80,311300,234
75,75,311842,200
45,75,311842,200
76,76,312350,474
73,75,312350,3041
57,76,312350,197
45,75,312855,202
40,77,313365,202
40,74,313875,197
76,76,314380,197
55,76,314380,197
44,75,314885,199
45,80,315396,234
45,75,315938,200
75,76,316446,197
57,76,316446,197
73,75,316951,202
45,75,316951,202
75,78,317461,202
40,77,317461,202
76,75,317971,197
40,74,317971,197
78,76,318476,197
55,76,318476,197
75,75,318981,199
44,75,318981,199
45,80,319492,234
45,75,320034,200
76,76,320542,197
69,76,320542,197
57,76,320542,197
68,75,321047,202
45,75,321047,202
69,78,321557,202
40,77,321557,202
71,75,322067,197
40,74,322067,197
76,76,322572,197
73,76,322572,197
55,76,322572,197
44,75,323077,199
67,80,323588,1554
45,80,323588,234
45,75,324130,200
75,76,324638,197
57,76,324638,197
69,75,325143,202
45,75,325143,202
64,78,325653,202
40,77,325653,202
40,74,326163,197
75,76,326668,197
61,76,326668,197
55,76,326668,197
44,75,327173,199
64,80,327684,234
45,80,327684,234
66,75,328226,200
45,75,328226,200
76,76,328734,197
67,75,328734,3041
57,76,328734,197
45,75,329239,202
40,77,329749,202
40,74,330259,197
76,76,330764,197
55,76,330764,197
44,75,331269,199
45,80,331780,234
45,75,332322,200
75,76,332830,197
57,76,332830,197
73,75,333335,202
45,75,333335,202
75,78,333845,202
40,77,333845,202
76,75,334355,197
40,74,334355,197
75,76,334860,197
55,76,334860,197
73,75,335365,199
44,75,335365,199
45,80,335876,234
45,75,336418,200
81,76,336926,197
73,76,336926,197
57,76,336926,197
71,75,337431,202
45,75,337431,202
69,78,337941,202
40,77,337941,202
71,75,338451,197
40,74,338451,197
81,76,338956,197
76,76,338956,197
55,76,338956,197
44,75,339461,199
75,80,339972,1554
47,80,339972,234
47,75,340514,200
78,76,341022,197
59,76,341022,197
73,75,341527,202
47,75,341527,202
71,78,342037,202
42,78,342037,202
42,75,342547,197
78,76,343052,197
67,76,343052,197
59,76,343052,197
69,80,344068,234
51,80,344068,234
67,75,344610,200
49,75,344610,200
63,75,345118,1054
45,76,345118,197
75,70,346133,289
68,80,348164,234
50,80,348164,234
66,75,348706,200
48,75,348706,200
62,75,349214,1054
44,76,349214,197
74,70,350229,289
67,80,352260,234
49,80,352260,234
65,75,352802,200
47,75,352802,200
61,75,353310,1054
43,76,353310,197
73,70,354325,289
66,80,356356,234
48,80,356356,234
64,75,356898,200
46,75,356898,200
60,75,357406,1054
42,76,357406,197
72,70,358421,289
47,75,359436,379
45,75,359776,370
40,74,360106,381
35,68,360452,712
35,73,361165,306
63,75,361502,736
39,75,361502,675
62,75,362178,399
39,74,362178,308
63,70,362517,357
42,78,362517,680
66,75,363198,394
42,75,363198,303
68,70,363532,927
44,76,363532,675
44,75,364208,305
67,75,364288,128
68,75,364416,43
69,70,364548,965
45,80,364548,712
45,75,365261,306
68,76,365598,265
44,76,365598,675
66,75,366274,1353
44,75,366274,308
42,78,366613,680
42,75,367294,303
63,76,367628,1011
39,75,367628,675
39,74,368304,305
64,75,368644,773
40,79,368644,712
62,70,369357,218
40,74,369357,306
59,76,369694,2029
44,76,369694,675
44,75,370370,308
47,78,370709,680
47,75,371390,303
57,68,371724,645
66,82,371724,675
49,76,371724,675
59,67,372400,305
68,81,372400,335
49,75,372400,305
50,80,372740,712
59,75,373453,306
50,75,373453,306
68,76,373790,645
49,76,373790,675
59,75,374466,308
49,75,374466,308
61,78,374805,650
47,78,374805,680
69,75,375486,303
47,75,375486,303
64,76,375820,645
44,76,375820,675
71,75,376496,305
44,75,376496,305
35,78,376836,712
35,73,377549,306
63,75,377886,736
39,75,377886,675
62,75,378562,399
39,74,378562,308
63,70,378901,357
42,78,378901,680
66,75,379582,394
42,75,379582,303
63,70,379916,927
44,76,379916,675
44,75,380592,305
67,75,380672,128
68,75,380800,128
69,70,380932,965
45,80,380932,712
45,75,381645,306
68,76,381982,265
44,76,381982,675
66,75,382658,1353
44,75,382658,308
42,78,382997,680
42,75,383678,303
67,76,384012,1011
39,75,384012,675
39,74,384688,305
68,75,385028,773
37,79,385028,712
65,75,385741,397
37,74,385741,306
61,70,386078,352
41,76,386078,675
41,75,386754,308
61,78,387093,1014
44,78,387093,680
44,75,387774,303
59,76,388108,265
46,76,388108,645
61,94,388784,305
44,75,388784,305
42,80,389124,712
66,75,389837,397
42,75,389837,306
64,70,390174,352
44,76,390174,675
44,75,390850,308
61,78,391189,270
46,78,391189,680
46,75,391870,303
58,76,392204,265
42,76,392204,675
42,75,392880,305
35,78,393220,712
35,73,393933,306
63,75,394270,736
39,75,394270,675
62,75,394946,399
39,74,394946,308
63,70,395285,357
42,78,395285,680
66,75,395966,394
42,75,395966,303
68,70,396300,927
44,76,396300,675
44,75,396976,305
67,75,397056,128
68,75,397184,43
69,70,397316,965
45,80,397316,712
45,75,398029,306
68,76,398366,265
44,76,398366,675
66,75,399042,1353
44,75,399042,308
42,78,399381,680
42,75,400062,303
63,76,400396,1011
39,75,400396,675
39,74,401072,305
64,75,401412,773
40,79,401412,712
62,70,402125,218
40,74,402125,306
59,76,402462,2029
44,76,402462,675
44,75,403138,308
47,78,403477,680
47,75,404158,303
57,68,404492,645
66,82,404492,675
49,76,404492,675
59,67,405168,305
68,81,405168,335
49,75,405168,305
50,80,405508,712
59,75,406221,306
50,75,406221,306
68,76,406558,645
49,76,406558,675
59,75,407234,308
49,75,407234,308
61,78,407573,650
47,78,407573,680
69,75,408254,303
47,75,408254,303
64,76,408588,645
44,76,408588,675
71,75,409264,305
44,75,409264,305
35,78,409604,712
35,73,410317,306
63,75,410654,736
39,75,410654,675
62,75,411330,399
39,74,411330,308
63,70,411669,357
42,78,411669,680
66,75,412350,394
42,75,412350,303
63,70,412684,927
44,76,412684,675
44,75,413360,305
67,75,413440,128
68,75,413568,128
69,70,413700,965
45,80,413700,712
45,75,414413,306
68,76,414750,265
44,76,414750,675
66,75,415426,1353
44,75,415426,308
42,78,415765,680
42,75,416446,303
67,76,416780,1011
39,75,416780,675
39,74,417456,305
65,72,417796,712
68,86,417796,712
37,79,417796,1049
61,67,418509,336
65,81,418509,336
56,68,418846,265
61,82,418846,265
70,70,419861,680
73,84,419861,680
42,78,419861,1014
66,67,420542,333
70,81,420542,333
61,68,420876,265
66,82,420876,265
63,72,421892,712
66,86,421892,712
35,78,421892,1049
59,67,422605,336
63,81,422605,336
54,68,422942,265
59,82,422942,265
68,70,423957,680
71,84,423957,680
40,77,423957,1014
64,67,424638,333
68,81,424638,333
59,68,424972,265
64,82,424972,265
64,80,425988,667
33,77,425988,1049
61,75,426696,321
57,76,427038,474
61,75,427543,479
69,78,428053,634
38,77,428053,1014
66,75,428728,319
62,76,429068,474
66,75,429573,476
62,80,430084,667
31,77,430084,1049
59,75,430792,321
55,76,431134,474
59,75,431639,479
67,78,432149,634
36,76,432149,1014
64,75,432824,319
60,76,433164,474
64,75,433669,476
61,80,434180,234
33,77,434180,234
61,72,438276,234
73,86,438276,204
45,75,0,205
45,75,512,205
76,75,1024,205
69,75,1024,205
57,75,1024,205
68,75,1536,205
45,75,1536,205
69,75,2048,205
40,75,2048,205
71,75,2560,205
40,75,2560,205
76,75,3072,205
73,75,3072,205
55,75,3072,205
44,75,3584,205
67,75,4096,1536
45,75,4096,205
45,75,4608,205
75,75,5120,205
57,75,5120,205
69,75,5632,205
45,75,5632,205
64,75,6144,205
40,75,6144,205
40,75,6656,205
75,75,7168,205
61,75,7168,205
55,75,7168,205
44,75,7680,205
64,75,8192,205
45,75,8192,205
66,75,8704,205
45,75,8704,205
76,75,9216,205
67,75,9216,3072
57,75,9216,205
45,75,9728,205
40,75,10240,205
40,75,10752,205
76,75,11264,205
55,75,11264,205
44,75,11776,205
45,75,12288,205
45,75,12800,205
75,75,13312,205
57,75,13312,205
73,75,13824,205
45,75,13824,205
75,75,14336,205
40,75,14336,205
76,75,14848,205
40,75,14848,205
75,75,15360,205
55,75,15360,205
73,75,15872,205
44,75,15872,205
45,75,16384,205
45,75,16896,205
81,75,17408,205
73,75,17408,205
57,75,17408,205
71,75,17920,205
45,75,17920,205
69,75,18432,205
40,75,18432,205
71,75,18944,205
40,75,18944,205
81,75,19456,205
76,75,19456,205
55,75,19456,205
44,75,19968,205
75,75,20480,1536
47,75,20480,205
47,75,20992,205
78,75,21504,205
59,75,21504,205
73,75,22016,205
47,75,22016,205
71,75,22528,205
42,75,22528,205
42,75,23040,205
78,75,23552,205
75,75,23552,205
59,75,23552,205
47,75,24064,205
76,75,24576,205
45,75,24576,205
75,75,25088,205
45,75,25088,205
76,75,25600,512
73,75,25600,3072
57,75,25600,205
45,75,26112,205
40,75,26624,205
40,75,27136,205
76,75,27648,205
55,75,27648,205
44,75,28160,205
45,75,28672,205
45,75,29184,205
75,75,29696,205
57,75,29696,205
73,75,30208,205
45,75,30208,205
75,75,30720,205
40,75,30720,205
76,75,31232,205
40,75,31232,205
78,75,31744,205
55,75,31744,205
75,75,32256,205
44,75,32256,205
45,75,32768,205
45,75,33280,205
76,75,33792,205
69,75,33792,205
57,75,33792,205
68,75,34304,205
45,75,34304,205
69,75,34816,205
40,75,34816,205
71,75,35328,205
40,75,35328,205
76,75,35840,205
73,75,35840,205
55,75,35840,205
44,75,36352,205
67,75,36864,1536
45,75,36864,205
45,75,37376,205
75,75,37888,205
57,75,37888,205
69,75,38400,205
45,75,38400,205
64,75,38912,205
40,75,38912,205
40,75,39424,205
75,75,39936,205
61,75,39936,205
55,75,39936,205
44,75,40448,205
64,75,40960,205
45,75,40960,205
66,75,41472,205
45,75,41472,205
76,75,41984,205
67,75,41984,3072
57,75,41984,205
45,75,42496,205
40,75,43008,205
40,75,43520,205
76,75,44032,205
55,75,44032,205
44,75,44544,205
45,75,45056,205
45,75,45568,205
75,75,46080,205
57,75,46080,205
73,75,46592,205
45,75,46592,205
75,75,47104,205
40,75,47104,205
76,75,47616,205
40,75,47616,205
75,75,48128,205
55,75,48128,205
73,75,48640,205
44,75,48640,205
45,75,49152,205
45,75,49664,205
81,75,50176,205
73,75,50176,205
57,75,50176,205
71,75,50688,205
45,75,50688,205
69,75,51200,205
40,75,51200,205
71,75,51712,205
40,75,51712,205
81,75,52224,205
76,75,52224,205
55,75,52224,205
44,75,52736,205
75,75,53248,1536
47,75,53248,205
47,75,53760,205
78,75,54272,205
59,75,54272,205
73,75,54784,205
47,75,54784,205
71,75,55296,205
42,75,55296,205
42,75,55808,205
78,75,56320,205
67,75,56320,205
59,75,56320,205
69,75,57344,205
51,75,57344,205
67,75,57856,205
49,75,57856,205
63,75,58368,1024
45,75,58368,205
75,75,59392,205
68,75,61440,205
50,75,61440,205
66,75,61952,205
48,75,61952,205
62,75,62464,1024
44,75,62464,205
74,75,63488,205
45,75,65536,205
45,75,66048,205
76,75,66560,205
69,75,66560,205
57,75,66560,205
68,75,67072,205
45,75,67072,205
69,75,67584,205
40,75,67584,205
71,75,68096,205
40,75,68096,205
76,75,68608,205
73,75,68608,205
55,75,68608,205
44,75,69120,205
67,75,69632,1536
45,75,69632,205
45,75,70144,205
75,75,70656,205
57,75,70656,205
69,75,71168,205
45,75,71168,205
64,75,71680,205
40,75,71680,205
40,75,72192,205
75,75,72704,205
61,75,72704,205
55,75,72704,205
44,75,73216,205
64,75,73728,205
45,75,73728,205
66,75,74240,205
45,75,74240,205
76,75,74752,205
67,75,74752,3072
57,75,74752,205
45,75,75264,205
40,75,75776,205
40,75,76288,205
76,75,76800,205
55,75,76800,205
44,75,77312,205
45,75,77824,205
45,75,78336,205
75,75,78848,205
57,75,78848,205
73,75,79360,205
45,75,79360,205
75,75,79872,205
40,75,79872,205
76,75,80384,205
40,75,80384,205
75,75,80896,205
55,75,80896,205
73,75,81408,205
44,75,81408,205
45,75,81920,205
45,75,82432,205
81,75,82944,205
73,75,82944,205
57,75,82944,205
71,75,83456,205
45,75,83456,205
69,75,83968,205
40,75,83968,205
71,75,84480,205
40,75,84480,205
81,75,84992,205
76,75,84992,205
55,75,84992,205
44,75,85504,205
75,75,86016,1536
47,75,86016,205
47,75,86528,205
78,75,87040,205
59,75,87040,205
73,75,87552,205
47,75,87552,205
71,75,88064,205
42,75,88064,205
42,75,88576,205
78,75,89088,205
75,75,89088,205
59,75,89088,205
47,75,89600,205
76,75,90112,205
45,75,90112,205
75,75,90624,205
45,75,90624,205
76,75,91136,512
73,75,91136,3072
57,75,91136,205
45,75,91648,205
40,75,92160,205
40,75,92672,205
76,75,93184,205
55,75,93184,205
44,75,93696,205
45,75,94208,205
45,75,94720,205
75,75,95232,205
57,75,95232,205
73,75,95744,205
45,75,95744,205
75,75,96256,205
40,75,96256,205
76,75,96768,205
40,75,96768,205
78,75,97280,205
55,75,97280,205
75,75,97792,205
44,75,97792,205
45,75,98304,205
45,75,98816,205
76,75,99328,205
69,75,99328,205
57,75,99328,205
68,75,99840,205
45,75,99840,205
69,75,100352,205
40,75,100352,205
71,75,100864,205
40,75,100864,205
76,75,101376,205
73,75,101376,205
55,75,101376,205
44,75,101888,205
67,75,102400,1536
45,75,102400,205
45,75,102912,205
75,75,103424,205
57,75,103424,205
69,75,103936,205
45,75,103936,205
64,75,104448,205
40,75,104448,205
40,75,104960,205
75,75,105472,205
61,75,105472,205
55,75,105472,205
44,75,105984,205
64,75,106496,205
45,75,106496,205
66,75,107008,205
45,75,107008,205
76,75,107520,205
67,75,107520,3072
57,75,107520,205
45,75,108032,205
40,75,108544,205
40,75,109056,205
76,75,109568,205
55,75,109568,205
44,75,110080,205
45,75,110592,205
45,75,111104,205
75,75,111616,205
57,75,111616,205
73,75,112128,205
45,75,112128,205
75,75,112640,205
40,75,112640,205
76,75,113152,205
40,75,113152,205
75,75,113664,205
55,75,113664,205
73,75,114176,205
44,75,114176,205
45,75,114688,205
45,75,115200,205
81,75,115712,205
73,75,115712,205
57,75,115712,205
71,75,116224,205
45,75,116224,205
69,75,116736,205
40,75,116736,205
71,75,117248,205
40,75,117248,205
81,75,117760,205
76,75,117760,205
55,75,117760,205
44,75,118272,205
75,75,118784,1536
47,75,118784,205
47,75,119296,205
78,75,119808,205
59,75,119808,205
73,75,120320,205
47,75,120320,205
71,75,120832,205
42,75,120832,205
42,75,121344,205
78,75,121856,205
67,75,121856,205
59,75,121856,205
69,75,122880,205
51,75,122880,205
67,75,123392,205
49,75,123392,205
63,75,123904,1024
45,75,123904,205
75,75,124928,205
68,75,126976,205
50,75,126976,205
66,75,127488,205
48,75,127488,205
62,75,128000,1024
44,75,128000,205
74,75,129024,205
67,75,131072,205
49,75,131072,205
65,75,131584,205
47,75,131584,205
61,75,132096,1024
43,75,132096,205
73,75,133120,205
66,75,135168,205
48,75,135168,205
64,75,135680,205
46,75,135680,205
60,75,136192,1024
42,75,136192,205
72,75,137216,205
47,75,138240,341
45,75,138581,342
40,75,138923,341
35,75,139264,512
35,75,139776,512
63,75,140288,512
39,75,140288,512
62,75,140800,512
39,75,140800,512
63,75,141312,205
42,75,141312,512
66,75,141824,512
42,75,141824,512
68,75,142336,1024
44,75,142336,512
44,75,142848,512
67,75,143104,128
68,75,143232,128
69,75,143360,1024
45,75,143360,512
45,75,143872,512
68,75,144384,205
44,75,144384,512
66,75,144896,1536
44,75,144896,512
42,75,145408,512
42,75,145920,512
63,75,146432,1024
39,75,146432,512
39,75,146944,512
64,75,147456,512
40,75,147456,512
62,75,147968,205
40,75,147968,512
59,75,148480,2048
44,75,148480,512
44,75,148992,512
47,75,149504,512
47,75,150016,512
57,75,150528,512
66,75,150528,512
49,75,150528,512
59,75,151040,512
68,75,151040,512
49,75,151040,512
50,75,151552,512
59,75,152064,512
50,75,152064,512
68,75,152576,512
49,75,152576,512
59,75,153088,512
49,75,153088,512
61,75,153600,512
47,75,153600,512
69,75,154112,512
47,75,154112,512
64,75,154624,512
44,75,154624,512
71,75,155136,512
44,75,155136,512
35,75,155648,512
35,75,156160,512
63,75,156672,512
39,75,156672,512
62,75,157184,512
39,75,157184,512
63,75,157696,205
42,75,157696,512
66,75,158208,512
42,75,158208,512
63,75,158720,1024
44,75,158720,512
44,75,159232,512
67,75,159488,128
68,75,159616,128
69,75,159744,1024
45,75,159744,512
45,75,160256,512
68,75,160768,205
44,75,160768,512
66,75,161280,1536
44,75,161280,512
42,75,161792,512
42,75,162304,512
67,75,162816,1024
39,75,162816,512
39,75,163328,512
68,75,163840,512
37,75,163840,512
65,75,164352,512
37,75,164352,512
61,75,164864,205
41,75,164864,512
41,75,165376,512
61,75,165888,1024
44,75,165888,512
44,75,166400,512
59,75,166912,205
46,75,166912,512
61,94,167424,512
44,75,167424,512
42,75,167936,512
66,75,168448,512
42,75,168448,512
64,75,168960,205
44,75,168960,512
44,75,169472,512
61,75,169984,205
46,75,169984,512
46,75,170496,512
58,75,171008,205
42,75,171008,512
42,75,171520,512
35,75,172032,512
35,75,172544,512
63,75,173056,512
39,75,173056,512
62,75,173568,512
39,75,173568,512
63,75,174080,205
42,75,174080,512
66,75,174592,512
42,75,174592,512
68,75,175104,1024
44,75,175104,512
44,75,175616,512
67,75,175872,128
68,75,176000,128
69,75,176128,1024
45,75,176128,512
45,75,176640,512
68,75,177152,205
44,75,177152,512
66,75,177664,1536
44,75,177664,512
42,75,178176,512
42,75,178688,512
63,75,179200,1024
39,75,179200,512
39,75,179712,512
64,75,180224,512
40,75,180224,512
62,75,180736,205
40,75,180736,512
59,75,181248,2048
44,75,181248,512
44,75,181760,512
47,75,182272,512
47,75,182784,512
57,75,183296,512
66,75,183296,512
49,75,183296,512
59,75,183808,512
68,75,183808,512
49,75,183808,512
50,75,184320,512
59,75,184832,512
50,75,184832,512
68,75,185344,512
49,75,185344,512
59,75,185856,512
49,75,185856,512
61,75,186368,512
47,75,186368,512
69,75,186880,512
47,75,186880,512
64,75,187392,512
44,75,187392,512
71,75,187904,512
44,75,187904,512
35,75,188416,512
35,75,188928,512
63,75,189440,512
39,75,189440,512
62,75,189952,512
39,75,189952,512
63,75,190464,205
42,75,190464,512
66,75,190976,512
42,75,190976,512
63,75,191488,1024
44,75,191488,512
44,75,192000,512
67,75,192256,128
68,75,192384,128
69,75,192512,1024
45,75,192512,512
45,75,193024,512
68,75,193536,205
44,75,193536,512
66,75,194048,1536
44,75,194048,512
42,75,194560,512
42,75,195072,512
67,75,195584,1024
39,75,195584,512
39,75,196096,512
65,75,196608,512
68,75,196608,512
37,75,196608,1024
61,75,197120,512
65,75,197120,512
56,75,197632,205
61,75,197632,205
70,75,198656,512
73,75,198656,512
42,75,198656,1024
66,75,199168,512
70,75,199168,512
61,75,199680,205
66,75,199680,205
63,75,200704,512
66,75,200704,512
35,75,200704,1024
59,75,201216,512
63,75,201216,512
54,75,201728,205
59,75,201728,205
68,75,202752,512
71,75,202752,512
40,75,202752,1024
64,75,203264,512
68,75,203264,512
59,75,203776,205
64,75,203776,205
64,75,204800,512
33,75,204800,1024
61,75,205312,512
57,75,205824,512
61,75,206336,512
69,75,206848,512
38,75,206848,1024
66,75,207360,512
62,75,207872,512
66,75,208384,512
62,75,208896,512
31,75,208896,1024
59,75,209408,512
55,75,209920,512
59,75,210432,512
67,75,210944,512
36,75,210944,1024
64,75,211456,512
60,75,211968,512
64,75,212480,512
61,75,212992,205
33,75,212992,205
61,75,217088,205
73,75,217088,205
45,75,221184,205
45,75,221696,205
76,75,222208,205
69,75,222208,205
57,75,222208,205
68,75,222720,205
45,75,222720,205
69,75,223232,205
40,75,223232,205
71,75,223744,205
40,75,223744,205
76,75,224256,205
73,75,224256,205
55,75,224256,205
44,75,224768,205
67,75,225280,1536
45,75,225280,205
45,75,225792,205
75,75,226304,205
57,75,226304,205
69,75,226816,205
45,75,226816,205
64,75,227328,205
40,75,227328,205
40,75,227840,205
75,75,228352,205
61,75,228352,205
55,75,228352,205
44,75,228864,205
64,75,229376,205
45,75,229376,205
66,75,229888,205
45,75,229888,205
76,75,230400,205
67,75,230400,3072
57,75,230400,205
45,75,230912,205
40,75,231424,205
40,75,231936,205
76,75,232448,205
55,75,232448,205
44,75,232960,205
45,75,233472,205
45,75,233984,205
75,75,234496,205
57,75,234496,205
73,75,235008,205
45,75,235008,205
75,75,235520,205
40,75,235520,205
76,75,236032,205
40,75,236032,205
75,75,236544,205
55,75,236544,205
73,75,237056,205
44,75,237056,205
45,75,237568,205
45,75,238080,205
81,75,238592,205
73,75,238592,205
57,75,238592,205
71,75,239104,205
45,75,239104,205
69,75,239616,205
40,75,239616,205
71,75,240128,205
40,75,240128,205
81,75,240640,205
76,75,240640,205
55,75,240640,205
44,75,241152,205
75,75,241664,1536
47,75,241664,205
47,75,242176,205
78,75,242688,205
59,75,242688,205
73,75,243200,205
47,75,243200,205
71,75,243712,205
42,75,243712,205
42,75,244224,205
78,75,244736,205
75,75,244736,205
59,75,244736,205
47,75,245248,205
76,75,245760,205
45,75,245760,205
75,75,246272,205
45,75,246272,205
76,75,246784,512
73,75,246784,3072
57,75,246784,205
45,75,247296,205
40,75,247808,205
40,75,248320,205
76,75,248832,205
55,75,248832,205
44,75,249344,205
45,75,249856,205
45,75,250368,205
75,75,250880,205
57,75,250880,205
73,75,251392,205
45,75,251392,205
75,75,251904,205
40,75,251904,205
76,75,252416,205
40,75,252416,205
78,75,252928,205
55,75,252928,205
75,75,253440,205
44,75,253440,205
45,75,253952,205
45,75,254464,205
76,75,254976,205
69,75,254976,205
57,75,254976,205
68,75,255488,205
45,75,255488,205
69,75,256000,205
40,75,256000,205
71,75,256512,205
40,75,256512,205
76,75,257024,205
73,75,257024,205
55,75,257024,205
44,75,257536,205
67,75,258048,1536
45,75,258048,205
45,75,258560,205
75,75,259072,205
57,75,259072,205
69,75,259584,205
45,75,259584,205
64,75,260096,205
40,75,260096,205
40,75,260608,205
75,75,261120,205
61,75,261120,205
55,75,261120,205
44,75,261632,205
64,75,262144,205
45,75,262144,205
66,75,262656,205
45,75,262656,205
76,75,263168,205
67,75,263168,3072
57,75,263168,205
45,75,263680,205
40,75,264192,205
40,75,264704,205
76,75,265216,205
55,75,265216,205
44,75,265728,205
45,75,266240,205
45,75,266752,205
75,75,267264,205
57,75,267264,205
73,75,267776,205
45,75,267776,205
75,75,268288,205
40,75,268288,205
76,75,268800,205
40,75,268800,205
75,75,269312,205
55,75,269312,205
73,75,269824,205
44,75,269824,205
45,75,270336,205
45,75,270848,205
81,75,271360,205
73,75,271360,205
57,75,271360,205
71,75,271872,205
45,75,271872,205
69,75,272384,205
40,75,272384,205
71,75,272896,205
40,75,272896,205
81,75,273408,205
76,75,273408,205
55,75,273408,205
44,75,273920,205
75,75,274432,1536
47,75,274432,205
47,75,274944,205
78,75,275456,205
59,75,275456,205
73,75,275968,205
47,75,275968,205
71,75,276480,205
42,75,276480,205
42,75,276992,205
78,75,277504,205
67,75,277504,205
59,75,277504,205
69,75,278528,205
51,75,278528,205
67,75,279040,205
49,75,279040,205
63,75,279552,1024
45,75,279552,205
75,75,280576,205
68,75,282624,205
50,75,282624,205
66,75,283136,205
48,75,283136,205
62,75,283648,1024
44,75,283648,205
74,75,284672,205
45,75,286720,205
45,75,287232,205
76,75,287744,205
69,75,287744,205
57,75,287744,205
68,75,288256,205
45,75,288256,205
69,75,288768,205
40,75,288768,205
71,75,289280,205
40,75,289280,205
76,75,289792,205
73,75,289792,205
55,75,289792,205
44,75,290304,205
67,75,290816,1536
45,75,290816,205
45,75,291328,205
75,75,291840,205
57,75,291840,205
69,75,292352,205
45,75,292352,205
64,75,292864,205
40,75,292864,205
40,75,293376,205
75,75,293888,205
61,75,293888,205
55,75,293888,205
44,75,294400,205
64,75,294912,205
45,75,294912,205
66,75,295424,205
45,75,295424,205
76,75,295936,205
67,75,295936,3072
57,75,295936,205
45,75,296448,205
40,75,296960,205
40,75,297472,205
76,75,297984,205
55,75,297984,205
44,75,298496,205
45,75,299008,205
45,75,299520,205
75,75,300032,205
57,75,300032,205
73,75,300544,205
45,75,300544,205
75,75,301056,205
40,75,301056,205
76,75,301568,205
40,75,301568,205
75,75,302080,205
55,75,302080,205
73,75,302592,205
44,75,302592,205
45,75,303104,205
45,75,303616,205
81,75,304128,205
73,75,304128,205
57,75,304128,205
71,75,304640,205
45,75,304640,205
69,75,305152,205
40,75,305152,205
71,75,305664,205
40,75,305664,205
81,75,306176,205
76,75,306176,205
55,75,306176,205
44,75,306688,205
75,75,307200,1536
47,75,307200,205
47,75,307712,205
78,75,308224,205
59,75,308224,205
73,75,308736,205
47,75,308736,205
71,75,309248,205
42,75,309248,205
42,75,309760,205
78,75,310272,205
75,75,310272,205
59,75,310272,205
47,75,310784,205
76,75,311296,205
45,75,311296,205
75,75,311808,205
45,75,311808,205
76,75,312320,512
73,75,312320,3072
57,75,312320,205
45,75,312832,205
40,75,313344,205
40,75,313856,205
76,75,314368,205
55,75,314368,205
44,75,314880,205
45,75,315392,205
45,75,315904,205
75,75,316416,205
57,75,316416,205
73,75,316928,205
45,75,316928,205
75,75,317440,205
40,75,317440,205
76,75,317952,205
40,75,317952,205
78,75,318464,205
55,75,318464,205
75,75,318976,205
44,75,318976,205
45,75,319488,205
45,75,320000,205
76,75,320512,205
69,75,320512,205
57,75,320512,205
68,75,321024,205
45,75,321024,205
69,75,321536,205
40,75,321536,205
71,75,322048,205
40,75,322048,205
76,75,322560,205
73,75,322560,205
55,75,322560,205
44,75,323072,205
67,75,323584,1536
45,75,323584,205
45,75,324096,205
75,75,324608,205
57,75,324608,205
69,75,325120,205
45,75,325120,205
64,75,325632,205
40,75,325632,205
40,75,326144,205
75,75,326656,205
61,75,326656,205
55,75,326656,205
44,75,327168,205
64,75,327680,205
45,75,327680,205
66,75,328192,205
45,75,328192,205
76,75,328704,205
67,75,328704,3072
57,75,328704,205
45,75,329216,205
40,75,329728,205
40,75,330240,205
76,75,330752,205
55,75,330752,205
44,75,331264,205
45,75,331776,205
45,75,332288,205
75,75,332800,205
57,75,332800,205
73,75,333312,205
45,75,333312,205
75,75,333824,205
40,75,333824,205
76,75,334336,205
40,75,334336,205
75,75,334848,205
55,75,334848,205
73,75,335360,205
44,75,335360,205
45,75,335872,205
45,75,336384,205
81,75,336896,205
73,75,336896,205
57,75,336896,205
71,75,337408,205
45,75,337408,205
69,75,337920,205
40,75,337920,205
71,75,338432,205
40,75,338432,205
81,75,338944,205
76,75,338944,205
55,75,338944,205
44,75,339456,205
75,75,339968,1536
47,75,339968,205
47,75,340480,205
78,75,340992,205
59,75,340992,205
73,75,341504,205
47,75,341504,205
71,75,342016,205
42,75,342016,205
42,75,342528,205
78,75,343040,205
67,75,343040,205
59,75,343040,205
69,75,344064,205
51,75,344064,205
67,75,344576,205
49,75,344576,205
63,75,345088,1024
45,75,345088,205
75,75,346112,205
68,75,348160,205
50,75,348160,205
66,75,348672,205
48,75,348672,205
62,75,349184,1024
44,75,349184,205
74,75,350208,205
67,75,352256,205
49,75,352256,205
65,75,352768,205
47,75,352768,205
61,75,353280,1024
43,75,353280,205
73,75,354304,205
66,75,356352,205
48,75,356352,205
64,75,356864,205
46,75,356864,205
60,75,357376,1024
42,75,357376,205
72,75,358400,205
47,75,359424,341
45,75,359765,342
40,75,360107,341
35,75,360448,512
35,75,360960,512
63,75,361472,512
39,75,361472,512
62,75,361984,512
39,75,361984,512
63,75,362496,205
42,75,362496,512
66,75,363008,512
42,75,363008,512
68,75,363520,1024
44,75,363520,512
44,75,364032,512
67,75,364288,128
68,75,364416,128
69,75,364544,1024
45,75,364544,512
45,75,365056,512
68,75,365568,205
44,75,365568,512
66,75,366080,1536
44,75,366080,512
42,75,366592,512
42,75,367104,512
63,75,367616,1024
39,75,367616,512
39,75,368128,512
64,75,368640,512
40,75,368640,512
62,75,369152,205
40,75,369152,512
59,75,369664,2048
44,75,369664,512
44,75,370176,512
47,75,370688,512
47,75,371200,512
57,75,371712,512
66,75,371712,512
49,75,371712,512
59,75,372224,512
68,75,372224,512
49,75,372224,512
50,75,372736,512
59,75,373248,512
50,75,373248,512
68,75,373760,512
49,75,373760,512
59,75,374272,512
49,75,374272,512
61,75,374784,512
47,75,374784,512
69,75,375296,512
47,75,375296,512
64,75,375808,512
44,75,375808,512
71,75,376320,512
44,75,376320,512
35,75,376832,512
35,75,377344,512
63,75,377856,512
39,75,377856,512
62,75,378368,512
39,75,378368,512
63,75,378880,205
42,75,378880,512
66,75,379392,512
42,75,379392,512
63,75,379904,1024
44,75,379904,512
44,75,380416,512
67,75,380672,128
68,75,380800,128
69,75,380928,1024
45,75,380928,512
45,75,381440,512
68,75,381952,205
44,75,381952,512
66,75,382464,1536
44,75,382464,512
42,75,382976,512
42,75,383488,512
67,75,384000,1024
39,75,384000,512
39,75,384512,512
68,75,385024,512
37,75,385024,512
65,75,385536,512
37,75,385536,512
61,75,386048,205
41,75,386048,512
41,75,386560,512
61,75,387072,1024
44,75,387072,512
44,75,387584,512
59,75,388096,205
46,75,388096,512
61,94,388608,512
44,75,388608,512
42,75,389120,512
66,75,389632,512
42,75,389632,512
64,75,390144,205
44,75,390144,512
44,75,390656,512
61,75,391168,205
46,75,391168,512
46,75,391680,512
58,75,392192,205
42,75,392192,512
42,75,392704,512
35,75,393216,512
35,75,393728,512
63,75,394240,512
39,75,394240,512
62,75,394752,512
39,75,394752,512
63,75,395264,205
42,75,395264,512
66,75,395776,512
42,75,395776,512
68,75,396288,1024
44,75,396288,512
44,75,396800,512
67,75,397056,128
68,75,397184,128
69,75,397312,1024
45,75,397312,512
45,75,397824,512
68,75,398336,205
44,75,398336,512
66,75,398848,1536
44,75,398848,512
42,75,399360,512
42,75,399872,512
63,75,400384,1024
39,75,400384,512
39,75,400896,512
64,75,401408,512
40,75,401408,512
62,75,401920,205
40,75,401920,512
59,75,402432,2048
44,75,402432,512
44,75,402944,512
47,75,403456,512
47,75,403968,512
57,75,404480,512
66,75,404480,512
49,75,404480,512
59,75,404992,512
68,75,404992,512
49,75,404992,512
50,75,405504,512
59,75,406016,512
50,75,406016,512
68,75,406528,512
49,75,406528,512
59,75,407040,512
49,75,407040,512
61,75,407552,512
47,75,407552,512
69,75,408064,512
47,75,408064,512
64,75,408576,512
44,75,408576,512
71,75,409088,512
44,75,409088,512
35,75,409600,512
35,75,410112,512
63,75,410624,512
39,75,410624,512
62,75,411136,512
39,75,411136,512
63,75,411648,205
42,75,411648,512
66,75,412160,512
42,75,412160,512
63,75,412672,1024
44,75,412672,512
44,75,413184,512
67,75,413440,128
68,75,413568,128
69,75,413696,1024
45,75,413696,512
45,75,414208,512
68,75,414720,205
44,75,414720,512
66,75,415232,1536
44,75,415232,512
42,75,415744,512
42,75,416256,512
67,75,416768,1024
39,75,416768,512
39,75,417280,512
65,75,417792,512
68,75,417792,512
37,75,417792,1024
61,75,418304,512
65,75,418304,512
56,75,418816,205
61,75,418816,205
70,75,419840,512
73,75,419840,512
42,75,419840,1024
66,75,420352,512
70,75,420352,512
61,75,420864,205
66,75,420864,205
63,75,421888,512
66,75,421888,512
35,75,421888,1024
59,75,422400,512
63,75,422400,512
54,75,422912,205
59,75,422912,205
68,75,423936,512
71,75,423936,512
40,75,423936,1024
64,75,424448,512
68,75,424448,512
59,75,424960,205
64,75,424960,205
64,75,425984,512
33,75,425984,1024
61,75,426496,512
57,75,427008,512
61,75,427520,512
69,75,428032,512
38,75,428032,1024
66,75,428544,512
62,75,429056,512
66,75,429568,512
62,75,430080,512
31,75,430080,1024
59,75,430592,512
55,75,431104,512
59,75,431616,512
67,75,432128,512
36,75,432128,1024
64,75,432640,512
60,75,433152,512
64,75,433664,512
61,75,434176,205
33,75,434176,205
61,75,438272,205
73,75,438272,205
