note,velocity,position,duration
70,80,14340,431
72,76,15386,1015
74,78,16402,193
75,75,16903,197
77,75,17412,2061
70,80,20484,431
72,76,21530,1015
76,78,22546,193
77,75,23047,197
79,75,23556,2061
70,80,26628,431
72,76,27674,1015
74,78,28690,193
75,75,29191,197
77,75,29700,2061
70,80,32772,431
72,76,33818,1015
76,78,34834,193
77,75,35335,197
79,75,35844,2061
70,80,38916,431
72,76,39962,1015
74,78,40978,193
75,75,41479,197
77,75,41988,2061
70,80,45060,431
72,76,46106,1015
76,78,47122,193
77,75,47623,197
79,75,48132,2061
76,93,53252,509
77,88,53792,475
74,89,54298,478
76,88,54807,476
72,91,55314,470
74,88,55815,474
67,93,56324,509
79,88,56864,475
76,89,57370,478
77,88,57879,476
72,91,58386,470
76,88,58887,474
74,93,59396,509
76,88,59936,475
77,76,60416,634
78,76,60750,218
79,76,60865,218
80,76,60980,218
81,76,61095,218
82,76,61210,218
83,88,61325,128
84,88,61458,1045
79,83,62468,2024
77,91,64530,470
76,88,65031,474
77,93,65540,509
76,88,66080,475
72,89,66586,478
76,88,67095,476
74,91,67602,470
67,88,68103,474
72,93,68612,509
70,88,69152,475
69,89,69658,478
70,88,70167,476
72,91,70674,470
76,88,71175,474
74,93,71684,509
72,88,72224,475
74,89,72730,478
76,88,73239,476
77,91,73746,470
79,88,74247,474
76,88,74756,3067
76,93,77828,509
77,88,78368,475
74,89,78874,478
76,88,79383,476
72,91,79890,470
74,88,80391,474
67,93,80900,509
79,88,81440,475
76,89,81946,478
77,88,82455,476
72,91,82962,470
76,88,83463,474
74,93,83972,509
76,88,84512,475
77,76,84992,634
78,76,85326,218
79,76,85441,218
80,76,85556,218
81,76,85671,218
82,76,85786,218
83,88,85901,128
84,88,86034,1045
79,83,87044,2024
77,91,89106,470
76,88,89607,474
77,93,90116,509
76,88,90656,475
72,89,91162,478
76,88,91671,476
74,91,92178,470
67,88,92679,474
72,93,93188,509
70,88,93728,475
69,89,94234,478
70,88,94743,476
72,91,95250,470
76,88,95751,474
74,93,96260,509
72,88,96800,475
74,89,97306,478
76,88,97815,476
77,91,98322,470
79,88,98823,474
76,88,99332,3067
58,67,102400,1610
67,81,102400,1549
57,67,103950,1561
65,81,103950,1521
62,62,105472,597
70,76,105472,423
60,67,106510,395
69,81,106510,395
65,67,107520,1610
74,81,107520,1549
64,67,109070,1561
72,81,109070,1521
70,62,110592,597
77,76,110592,423
69,67,111630,395
74,81,111630,395
65,67,112640,1610
72,81,112640,1549
62,67,114190,1561
70,81,114190,1521
70,62,115712,597
77,76,115712,423
65,67,116750,395
74,81,116750,395
63,67,117760,1610
72,81,117760,1549
62,67,119310,1561
70,81,119310,1521
63,62,120832,597
72,76,120832,423
65,67,121870,395
74,81,121870,395
58,67,122880,1610
67,81,122880,1549
57,67,124430,1561
65,81,124430,1521
62,62,125952,597
70,76,125952,423
60,67,126990,395
69,81,126990,395
65,67,128000,1610
74,81,128000,1549
64,67,129550,1561
72,81,129550,1521
70,62,131072,597
77,76,131072,423
69,67,132110,395
74,81,132110,395
65,67,133120,1610
72,81,133120,1549
62,67,134670,1561
70,81,134670,1521
70,62,136192,597
77,76,136192,423
65,67,137230,395
74,81,137230,395
63,67,138240,1610
72,81,138240,1549
62,67,139790,1561
70,81,139790,1521
63,62,141312,597
72,76,141312,423
65,67,142350,395
74,81,142350,395
70,80,157700,431
72,76,158746,1015
74,78,159762,193
75,75,160263,197
77,75,160772,2061
70,80,163844,431
72,76,164890,1015
76,78,165906,193
77,75,166407,197
79,75,166916,2061
76,93,172036,509
77,88,172576,475
74,89,173082,478
76,88,173591,476
72,91,174098,470
74,88,174599,474
67,93,175108,509
79,88,175648,475
76,89,176154,478
77,88,176663,476
72,91,177170,470
76,88,177671,474
74,93,178180,509
76,88,178720,475
77,76,179200,634
78,76,179534,218
79,76,179649,218
80,76,179764,218
81,76,179879,218
82,76,179994,218
83,88,180109,128
84,88,180242,1045
79,83,181252,2024
77,91,183314,470
76,88,183815,474
77,93,184324,509
76,88,184864,475
72,89,185370,478
76,88,185879,476
74,91,186386,470
67,88,186887,474
72,93,187396,509
70,88,187936,475
69,89,188442,478
70,88,188951,476
72,91,189458,470
76,88,189959,474
74,93,190468,509
72,88,191008,475
74,89,191514,478
76,88,192023,476
77,91,192530,470
79,88,193031,474
76,88,193540,3067
76,93,196612,509
77,88,197152,475
74,89,197658,478
76,88,198167,476
72,91,198674,470
74,88,199175,474
67,93,199684,509
79,88,200224,475
76,89,200730,478
77,88,201239,476
72,91,201746,470
76,88,202247,474
74,93,202756,509
76,88,203296,475
77,76,203776,634
78,76,204110,218
79,76,204225,218
80,76,204340,218
81,76,204455,218
82,76,204570,218
83,88,204685,128
84,88,204818,1045
79,83,205828,2024
77,91,207890,470
76,88,208391,474
77,93,208900,509
76,88,209440,475
72,89,209946,478
76,88,210455,476
74,91,210962,470
67,88,211463,474
72,93,211972,509
70,88,212512,475
69,89,213018,478
70,88,213527,476
72,91,214034,470
76,88,214535,474
74,93,215044,509
72,88,215584,475
74,89,216090,478
76,88,216599,476
77,91,217106,470
79,88,217607,474
76,88,218116,3067
58,67,221184,1610
67,81,221184,1549
57,67,222734,1561
65,81,222734,1521
62,62,224256,597
70,76,224256,423
60,67,225294,395
69,81,225294,395
65,67,226304,1610
74,81,226304,1549
64,67,227854,1561
72,81,227854,1521
70,62,229376,597
77,76,229376,423
69,67,230414,395
74,81,230414,395
65,67,231424,1610
72,81,231424,1549
62,67,232974,1561
70,81,232974,1521
70,62,234496,597
77,76,234496,423
65,67,235534,395
74,81,235534,395
63,67,236544,1610
72,81,236544,1549
62,67,238094,1561
70,81,238094,1521
63,62,239616,597
72,76,239616,423
65,67,240654,395
74,81,240654,395
58,67,241664,1610
67,81,241664,1549
57,67,243214,1561
65,81,243214,1521
62,62,244736,597
70,76,244736,423
60,67,245774,395
69,81,245774,395
65,67,246784,1610
74,81,246784,1549
64,67,248334,1561
72,81,248334,1521
70,62,249856,597
77,76,249856,423
69,67,250894,395
74,81,250894,395
65,67,251904,1610
72,81,251904,1549
62,67,253454,1561
70,81,253454,1521
70,62,254976,597
77,76,254976,423
65,67,256014,395
74,81,256014,395
63,67,257024,1610
72,81,257024,1549
62,67,258574,1561
70,81,258574,1521
63,62,260096,597
72,76,260096,423
65,67,261134,395
74,81,261134,395
46,69,10,226
52,56,544,198
53,66,544,198
52,57,1050,201
53,67,1050,171
41,64,2567,565
46,59,3076,319
50,56,3616,198
53,66,3616,198
50,57,4122,201
53,67,4122,171
41,64,5639,565
46,59,6148,319
52,56,6688,198
53,66,6688,198
52,57,7194,201
53,67,7194,171
43,64,8711,565
48,51,9220,319
52,65,9220,232
50,56,9760,198
53,70,9760,198
46,57,10266,201
50,71,10266,201
48,56,10775,199
52,70,10775,199
43,59,11282,193
48,73,11282,193
46,56,11783,197
50,70,11783,197
40,60,12288,231
43,75,12288,231
52,56,12827,200
55,70,12827,200
48,59,13335,192
52,73,13335,192
50,56,13835,193
53,70,13835,193
46,69,14340,232
52,56,14880,198
53,66,14880,198
52,57,15386,201
53,67,15386,171
41,64,16903,565
46,59,17412,319
50,56,17952,198
53,66,17952,198
50,57,18458,201
53,67,18458,171
41,64,19975,565
46,59,20484,319
52,56,21024,198
53,66,21024,198
52,57,21530,201
53,67,21530,171
43,64,23047,565
48,51,23556,319
52,65,23556,232
50,56,24096,198
53,70,24096,198
46,57,24602,201
50,71,24602,201
48,56,25111,199
52,70,25111,199
43,59,25618,193
48,73,25618,193
46,56,26119,197
50,70,26119,197
46,69,26628,232
52,56,27168,198
53,66,27168,198
52,57,27674,201
53,67,27674,171
41,64,29191,565
46,59,29700,319
50,56,30240,198
53,66,30240,198
50,57,30746,201
53,67,30746,171
41,64,32263,565
46,59,32772,319
52,56,33312,198
53,66,33312,198
52,57,33818,201
53,67,33818,171
43,64,35335,565
48,51,35844,319
52,65,35844,232
50,56,36384,198
53,70,36384,198
46,57,36890,201
50,71,36890,201
48,56,37399,199
52,70,37399,199
43,59,37906,193
48,73,37906,193
46,56,38407,197
50,70,38407,197
46,69,38916,232
52,56,39456,198
53,66,39456,198
52,57,39962,201
53,67,39962,171
41,64,41479,565
46,59,41988,319
50,56,42528,198
53,66,42528,198
50,57,43034,201
53,67,43034,171
41,64,44551,565
46,59,45060,319
52,56,45600,198
53,66,45600,198
52,57,46106,201
53,67,46106,171
43,64,47623,565
48,61,48132,232
52,75,48132,232
50,56,48672,198
53,70,48672,198
46,57,49178,201
50,71,49178,201
48,56,49687,199
52,70,49687,199
43,59,50194,193
48,73,50194,193
46,56,50695,197
50,70,50695,197
40,60,51200,231
43,75,51200,231
52,58,51739,200
55,72,51739,200
48,63,52247,192
52,77,52247,192
41,67,52747,193
50,67,52747,163
53,81,52747,193
46,75,53252,2532
62,67,53792,198
65,81,53792,198
62,68,54298,201
65,82,54298,201
60,67,54807,199
64,81,54807,199
60,70,55314,193
64,84,55314,193
58,67,55815,197
62,81,55815,197
55,75,55815,474
48,75,56324,3067
64,67,56864,198
67,81,56864,198
64,68,57370,201
67,82,57370,201
62,67,57879,199
65,81,57879,199
62,70,58386,193
65,84,58386,193
60,67,58887,197
64,81,58887,197
46,75,59396,2532
62,67,59936,198
65,81,59936,198
62,68,60442,201
65,82,60442,201
60,67,60951,199
64,81,60951,199
60,70,61458,193
64,84,61458,193
58,67,61959,197
62,81,61959,197
55,75,61959,474
48,75,62468,3067
64,67,63008,198
67,81,63008,198
64,68,63514,201
67,82,63514,201
62,67,64023,199
65,81,64023,199
62,70,64530,193
65,84,64530,193
60,67,65031,197
64,81,65031,197
46,75,65540,2532
62,67,66080,198
65,81,66080,198
62,68,66586,201
65,82,66586,201
60,67,67095,199
64,81,67095,199
60,70,67602,193
64,84,67602,193
58,67,68103,197
62,81,68103,197
55,75,68103,474
48,75,68612,3067
64,67,69152,198
67,81,69152,198
64,68,69658,201
67,82,69658,201
62,67,70167,199
65,81,70167,199
62,70,70674,193
65,84,70674,193
60,67,71175,197
64,81,71175,197
46,75,71684,2532
62,67,72224,198
65,81,72224,198
62,68,72730,201
65,82,72730,201
60,67,73239,199
64,81,73239,199
60,70,73746,193
64,84,73746,193
58,67,74247,197
62,81,74247,197
55,75,74247,474
48,75,74756,3067
64,67,75296,198
67,81,75296,198
64,68,75802,201
67,82,75802,201
62,67,76311,199
65,81,76311,199
62,70,76818,193
65,84,76818,193
60,67,77319,197
64,81,77319,197
46,75,77828,2532
62,67,78368,198
65,81,78368,198
62,68,78874,201
65,82,78874,201
60,67,79383,199
64,81,79383,199
60,70,79890,193
64,84,79890,193
58,67,80391,197
62,81,80391,197
55,75,80391,474
48,75,80900,3067
64,67,81440,198
67,81,81440,198
64,68,81946,201
67,82,81946,201
62,67,82455,199
65,81,82455,199
62,70,82962,193
65,84,82962,193
60,67,83463,197
64,81,83463,197
46,75,83972,2532
62,67,84512,198
65,81,84512,198
62,68,85018,201
65,82,85018,201
60,67,85527,199
64,81,85527,199
60,70,86034,193
64,84,86034,193
58,67,86535,197
62,81,86535,197
55,75,86535,474
48,75,87044,3067
64,67,87584,198
67,81,87584,198
64,68,88090,201
67,82,88090,201
62,67,88599,199
65,81,88599,199
62,70,89106,193
65,84,89106,193
60,67,89607,197
64,81,89607,197
46,75,90116,2532
62,67,90656,198
65,81,90656,198
62,68,91162,201
65,82,91162,201
60,67,91671,199
64,81,91671,199
60,70,92178,193
64,84,92178,193
58,67,92679,197
62,81,92679,197
55,75,92679,474
48,75,93188,3067
64,67,93728,198
67,81,93728,198
64,68,94234,201
67,82,94234,201
62,67,94743,199
65,81,94743,199
62,70,95250,193
65,84,95250,193
60,67,95751,197
64,81,95751,197
46,75,96260,2532
62,67,96800,198
65,81,96800,198
62,68,97306,201
65,82,97306,201
60,67,97815,199
64,81,97815,199
60,70,98322,193
64,84,98322,193
58,67,98823,197
62,81,98823,197
55,75,98823,474
48,75,99332,3067
64,67,99872,198
67,81,99872,198
64,68,100378,201
67,82,100378,201
62,67,100887,199
65,81,100887,199
62,70,101394,193
65,84,101394,193
60,67,101895,197
64,81,101895,197
36,67,102400,3071
46,56,102945,196
50,70,102945,196
46,56,103449,193
50,70,103449,193
45,56,103950,193
48,70,103950,193
45,56,104451,197
48,70,104451,197
43,56,104956,208
46,70,104956,178
36,63,105472,234
48,64,106014,188
36,62,106510,557
37,63,107007,573
38,63,107520,3546
50,56,108065,196
55,70,108065,196
50,56,108569,193
55,70,108569,193
50,56,109070,193
53,70,109070,193
50,56,109571,197
53,70,109571,197
45,56,110076,208
48,70,110076,178
50,64,111134,188
38,64,111630,557
26,63,112127,573
31,64,112640,2764
50,56,113185,196
55,70,113185,196
50,56,113689,193
55,70,113689,193
50,56,114190,193
53,70,114190,193
50,56,114691,197
53,70,114691,197
43,56,115196,990
46,70,115196,178
55,64,116254,465
29,64,116750,557
31,64,117247,573
32,59,117760,3034
51,56,118305,196
56,70,118305,196
51,56,118809,193
56,70,118809,193
51,56,119310,193
55,70,119310,193
51,56,119811,197
55,70,119811,197
46,56,120316,208
51,70,120316,178
36,63,120832,234
51,64,121374,188
38,63,121870,189
55,64,122367,205
36,67,122880,3071
46,56,123425,196
50,70,123425,196
46,56,123929,193
50,70,123929,193
45,56,124430,193
48,70,124430,193
45,56,124931,197
48,70,124931,197
43,56,125436,208
46,70,125436,178
36,63,125952,234
48,64,126494,188
36,62,126990,557
37,63,127487,573
38,63,128000,3546
50,56,128545,196
55,70,128545,196
50,56,129049,193
55,70,129049,193
50,56,129550,193
53,70,129550,193
50,56,130051,197
53,70,130051,197
45,56,130556,208
48,70,130556,178
50,64,131614,188
38,64,132110,557
26,63,132607,573
31,64,133120,2764
50,56,133665,196
55,70,133665,196
50,56,134169,193
55,70,134169,193
50,56,134670,193
53,70,134670,193
50,56,135171,197
53,70,135171,197
43,56,135676,990
46,70,135676,178
55,64,136734,465
29,64,137230,557
31,64,137727,513
32,59,138240,3034
51,56,138785,196
56,70,138785,196
51,56,139289,193
56,70,139289,193
51,56,139790,193
55,70,139790,193
51,56,140291,197
55,70,140291,197
46,56,140796,208
51,70,140796,208
48,65,141312,423
50,64,142350,395
46,69,143370,226
52,56,143904,198
53,66,143904,198
52,57,144410,201
53,67,144410,171
41,64,145927,565
46,59,146436,319
50,56,146976,198
53,66,146976,198
50,57,147482,201
53,67,147482,171
41,64,148999,565
46,59,149508,319
52,56,150048,198
53,66,150048,198
52,57,150554,201
53,67,150554,171
43,64,152071,565
48,51,152580,319
52,65,152580,232
50,56,153120,198
53,70,153120,198
46,57,153626,201
50,71,153626,201
48,56,154135,199
52,70,154135,199
43,59,154642,193
48,73,154642,193
46,56,155143,197
50,70,155143,197
40,60,155648,231
43,75,155648,231
52,56,156187,200
55,70,156187,200
48,59,156695,192
52,73,156695,192
50,56,157195,193
53,70,157195,193
46,69,157700,232
52,56,158240,198
53,66,158240,198
52,57,158746,201
53,67,158746,171
41,64,160263,565
46,59,160772,319
50,56,161312,198
53,66,161312,198
50,57,161818,201
53,67,161818,171
41,64,163335,565
46,59,163844,319
52,56,164384,198
53,66,164384,198
52,57,164890,201
53,67,164890,171
43,64,166407,565
48,61,166916,232
52,75,166916,232
50,56,167456,198
53,70,167456,198
46,57,167962,201
50,71,167962,201
48,56,168471,199
52,70,168471,199
43,59,168978,193
48,73,168978,193
46,56,169479,197
50,70,169479,197
40,60,169984,231
43,75,169984,231
52,58,170523,200
55,72,170523,200
48,63,171031,192
52,77,171031,192
41,67,171531,193
50,67,171531,163
53,81,171531,193
46,75,172036,2532
62,67,172576,198
65,81,172576,198
62,68,173082,201
65,82,173082,201
60,67,173591,199
64,81,173591,199
60,70,174098,193
64,84,174098,193
58,67,174599,197
62,81,174599,197
55,75,174599,474
48,75,175108,3067
64,67,175648,198
67,81,175648,198
64,68,176154,201
67,82,176154,201
62,67,176663,199
65,81,176663,199
62,70,177170,193
65,84,177170,193
60,67,177671,197
64,81,177671,197
46,75,178180,2532
62,67,178720,198
65,81,178720,198
62,68,179226,201
65,82,179226,201
60,67,179735,199
64,81,179735,199
60,70,180242,193
64,84,180242,193
58,67,180743,197
62,81,180743,197
55,75,180743,474
48,75,181252,3067
64,67,181792,198
67,81,181792,198
64,68,182298,201
67,82,182298,201
62,67,182807,199
65,81,182807,199
62,70,183314,193
65,84,183314,193
60,67,183815,197
64,81,183815,197
46,75,184324,2532
62,67,184864,198
65,81,184864,198
62,68,185370,201
65,82,185370,201
60,67,185879,199
64,81,185879,199
60,70,186386,193
64,84,186386,193
58,67,186887,197
62,81,186887,197
55,75,186887,474
48,75,187396,3067
64,67,187936,198
67,81,187936,198
64,68,188442,201
67,82,188442,201
62,67,188951,199
65,81,188951,199
62,70,189458,193
65,84,189458,193
60,67,189959,197
64,81,189959,197
46,75,190468,2532
62,67,191008,198
65,81,191008,198
62,68,191514,201
65,82,191514,201
60,67,192023,199
64,81,192023,199
60,70,192530,193
64,84,192530,193
58,67,193031,197
62,81,193031,197
55,75,193031,474
48,75,193540,3067
64,67,194080,198
67,81,194080,198
64,68,194586,201
67,82,194586,201
62,67,195095,199
65,81,195095,199
62,70,195602,193
65,84,195602,193
60,67,196103,197
64,81,196103,197
46,75,196612,2532
62,67,197152,198
65,81,197152,198
62,68,197658,201
65,82,197658,201
60,67,198167,199
64,81,198167,199
60,70,198674,193
64,84,198674,193
58,67,199175,197
62,81,199175,197
55,75,199175,474
48,75,199684,3067
64,67,200224,198
67,81,200224,198
64,68,200730,201
67,82,200730,201
62,67,201239,199
65,81,201239,199
62,70,201746,193
65,84,201746,193
60,67,202247,197
64,81,202247,197
46,75,202756,2532
62,67,203296,198
65,81,203296,198
62,68,203802,201
65,82,203802,201
60,67,204311,199
64,81,204311,199
60,70,204818,193
64,84,204818,193
58,67,205319,197
62,81,205319,197
55,75,205319,474
48,75,205828,3067
64,67,206368,198
67,81,206368,198
64,68,206874,201
67,82,206874,201
62,67,207383,199
65,81,207383,199
62,70,207890,193
65,84,207890,193
60,67,208391,197
64,81,208391,197
46,75,208900,2532
62,67,209440,198
65,81,209440,198
62,68,209946,201
65,82,209946,201
60,67,210455,199
64,81,210455,199
60,70,210962,193
64,84,210962,193
58,67,211463,197
62,81,211463,197
55,75,211463,474
48,75,211972,3067
64,67,212512,198
67,81,212512,198
64,68,213018,201
67,82,213018,201
62,67,213527,199
65,81,213527,199
62,70,214034,193
65,84,214034,193
60,67,214535,197
64,81,214535,197
46,75,215044,2532
62,67,215584,198
65,81,215584,198
62,68,216090,201
65,82,216090,201
60,67,216599,199
64,81,216599,199
60,70,217106,193
64,84,217106,193
58,67,217607,197
62,81,217607,197
55,75,217607,474
48,75,218116,3067
64,67,218656,198
67,81,218656,198
64,68,219162,201
67,82,219162,201
62,67,219671,199
65,81,219671,199
62,70,220178,193
65,84,220178,193
60,67,220679,197
64,81,220679,197
36,67,221184,3071
46,56,221729,196
50,70,221729,196
46,56,222233,193
50,70,222233,193
45,56,222734,193
48,70,222734,193
45,56,223235,197
48,70,223235,197
43,56,223740,208
46,70,223740,178
36,63,224256,234
48,64,224798,188
36,62,225294,557
37,63,225791,573
38,63,226304,3546
50,56,226849,196
55,70,226849,196
50,56,227353,193
55,70,227353,193
50,56,227854,193
53,70,227854,193
50,56,228355,197
53,70,228355,197
45,56,228860,208
48,70,228860,178
50,64,229918,188
38,64,230414,557
26,63,230911,573
31,64,231424,2764
50,56,231969,196
55,70,231969,196
50,56,232473,193
55,70,232473,193
50,56,232974,193
53,70,232974,193
50,56,233475,197
53,70,233475,197
43,56,233980,990
46,70,233980,178
55,64,235038,465
29,64,235534,557
31,64,236031,573
32,59,236544,3034
51,56,237089,196
56,70,237089,196
51,56,237593,193
56,70,237593,193
51,56,238094,193
55,70,238094,193
51,56,238595,197
55,70,238595,197
46,56,239100,208
51,70,239100,178
36,63,239616,234
51,64,240158,188
38,63,240654,189
55,64,241151,205
36,67,241664,3071
46,56,242209,196
50,70,242209,196
46,56,242713,193
50,70,242713,193
45,56,243214,193
48,70,243214,193
45,56,243715,197
48,70,243715,197
43,56,244220,208
46,70,244220,178
36,63,244736,234
48,64,245278,188
36,62,245774,557
37,63,246271,573
38,63,246784,3546
50,56,247329,196
55,70,247329,196
50,56,247833,193
55,70,247833,193
50,56,248334,193
53,70,248334,193
50,56,248835,197
53,70,248835,197
45,56,249340,208
48,70,249340,178
50,64,250398,188
38,64,250894,557
26,63,251391,573
31,64,251904,2764
50,56,252449,196
55,70,252449,196
50,56,252953,193
55,70,252953,193
50,56,253454,193
53,70,253454,193
50,56,253955,197
53,70,253955,197
43,56,254460,990
46,70,254460,178
55,64,255518,465
29,64,256014,557
31,64,256511,513
32,59,257024,3034
51,56,257569,196
56,70,257569,196
51,56,258073,193
56,70,258073,193
51,56,258574,193
55,70,258574,193
51,56,259075,197
55,70,259075,197
46,56,259580,208
51,70,259580,208
48,65,260096,423
50,64,261134,395
