note,velocity,position,duration
87,54,10,784
89,49,795,733
82,49,1559,757
84,49,2332,751
80,50,3084,474
77,49,3589,476
85,54,4100,790
80,49,4891,733
87,49,5655,757
80,49,6428,751
79,50,7180,474
75,49,7685,476
87,54,8196,790
89,49,8987,733
82,49,9751,757
84,49,10524,751
80,50,11276,474
77,49,11781,476
85,54,12292,790
80,49,13083,733
87,49,13847,757
92,49,14620,751
91,50,15372,1011
87,67,16388,790
89,62,17179,733
82,62,17943,757
84,62,18716,751
80,63,19468,474
77,62,19973,476
85,67,20484,790
80,62,21275,733
87,62,22039,757
80,62,22812,751
79,63,23564,474
75,62,24069,476
87,67,24580,790
89,62,25371,733
82,62,26135,757
84,62,26908,751
80,63,27660,474
77,62,28165,476
85,67,28676,790
80,62,29467,733
87,62,30231,757
92,62,31004,751
91,63,31756,1011
87,67,32772,790
89,62,33563,733
82,62,34327,757
84,62,35100,751
80,63,35852,474
77,62,36357,476
85,67,36868,790
80,62,37659,733
87,62,38423,757
80,62,39196,751
79,63,39948,474
75,62,40453,476
87,67,40964,790
89,62,41755,733
82,62,42519,757
84,62,43292,751
80,63,44044,474
77,62,44549,476
85,67,45060,790
80,73,45851,733
87,88,46615,757
92,88,47388,751
91,89,48140,1011
75,85,49156,790
87,99,49156,790
77,80,49947,733
89,94,49947,763
70,80,50711,757
82,94,50711,772
72,80,51484,751
84,94,51484,751
68,81,52236,474
80,95,52236,504
65,80,52741,476
77,94,52741,506
73,85,53252,790
85,99,53252,790
68,80,54043,733
80,94,54043,763
75,80,54807,757
87,94,54807,772
68,80,55580,751
80,94,55580,751
67,81,56332,474
79,95,56332,504
63,80,56837,476
75,94,56837,506
75,85,57348,790
87,99,57348,790
77,80,58139,733
89,94,58139,763
70,80,58903,757
82,94,58903,772
72,80,59676,751
84,94,59676,751
68,81,60428,474
80,95,60428,504
65,80,60933,476
77,94,60933,506
73,85,61444,790
85,99,61444,790
68,80,62235,733
80,94,62235,763
75,80,62999,757
87,94,62999,772
80,80,63772,751
92,94,63772,751
79,81,64524,1011
91,95,64524,1011
75,85,65540,790
87,99,65540,790
77,80,66331,733
89,94,66331,763
70,80,67095,757
82,94,67095,772
72,80,67868,751
84,94,67868,751
68,81,68620,474
80,95,68620,504
65,80,69125,476
77,94,69125,506
73,85,69636,790
85,99,69636,790
68,80,70427,733
80,94,70427,763
75,80,71191,757
87,94,71191,772
68,80,71964,751
80,94,71964,751
67,81,72716,474
79,95,72716,504
63,80,73221,476
75,94,73221,506
75,85,73732,790
87,99,73732,790
77,80,74523,733
89,94,74523,763
70,80,75287,757
82,94,75287,772
72,80,76060,751
84,94,76060,751
68,81,76812,474
80,95,76812,504
65,80,77317,476
77,94,77317,506
73,85,77828,790
85,99,77828,790
68,80,78619,733
80,94,78619,763
75,80,79383,757
87,94,79383,772
80,80,80156,751
92,94,80156,751
79,81,80908,1011
91,95,80908,1011
75,85,81924,790
87,99,81924,790
77,80,82715,733
89,94,82715,763
70,80,83479,757
82,94,83479,772
72,80,84252,751
84,94,84252,751
68,81,85004,474
80,95,85004,504
65,80,85509,476
77,94,85509,506
73,85,86020,790
85,99,86020,790
68,80,86811,733
80,94,86811,763
75,80,87575,757
87,94,87575,772
68,80,88348,751
80,94,88348,751
67,81,89100,474
79,95,89100,504
63,80,89605,476
75,94,89605,506
75,85,90116,790
87,99,90116,790
77,80,90907,733
89,94,90907,763
70,80,91671,757
82,94,91671,772
72,80,92444,751
84,94,92444,751
68,81,93196,474
80,95,93196,504
65,80,93701,476
77,94,93701,506
73,85,94212,790
85,99,94212,790
68,80,95003,733
80,94,95003,763
75,80,95767,757
87,94,95767,772
80,80,96540,751
92,94,96540,751
79,81,97292,1011
91,95,97292,1011
75,85,98308,790
87,99,98308,790
77,80,99099,733
89,94,99099,763
70,80,99863,757
82,94,99863,772
72,80,100636,751
84,94,100636,751
68,81,101388,474
80,95,101388,504
65,80,101893,476
77,94,101893,506
73,85,102404,790
85,99,102404,790
68,80,103195,733
80,94,103195,763
75,80,103959,757
87,94,103959,772
68,80,104732,751
80,94,104732,751
67,81,105484,474
79,95,105484,504
63,80,105989,476
75,94,105989,506
75,85,106500,790
87,99,106500,790
77,80,107291,733
89,94,107291,763
70,80,108055,757
82,94,108055,772
72,80,108828,751
84,94,108828,751
68,81,109580,474
80,95,109580,504
65,80,110085,476
77,94,110085,506
73,85,110596,790
85,99,110596,790
68,80,111387,733
80,94,111387,763
75,80,112151,757
87,94,112151,772
80,80,112924,751
92,94,112924,751
79,81,113676,1011
91,95,113676,1011
60,93,114692,790
65,88,115483,733
68,88,116247,479
60,83,116757,5110
65,93,116757,5110
80,89,117772,474
77,88,118277,476
85,93,118788,790
80,88,119579,733
87,88,120343,757
80,88,121116,751
67,89,121868,474
68,88,122373,476
70,88,122884,6160
60,93,122884,2064
89,88,123675,733
82,88,124439,757
65,91,124949,2026
84,88,125212,751
80,89,125964,474
77,88,126469,476
63,85,126980,2064
80,88,127771,733
87,88,128535,479
67,91,129045,479
68,88,129555,474
70,89,130060,474
72,88,130565,476
60,80,131076,7175
67,90,131076,7175
89,88,131867,733
82,88,132631,757
84,88,133404,751
80,89,134156,474
77,88,134661,476
85,93,135172,790
80,88,135963,733
87,88,136727,757
80,88,137500,751
79,89,138252,474
75,88,138757,476
60,80,139268,3079
67,94,139268,3079
89,88,140059,733
82,88,140823,757
84,88,141596,751
55,81,142348,1011
65,95,142348,1011
56,80,143364,4091
60,94,143364,4091
80,88,144155,733
87,88,144919,757
92,88,145692,751
91,89,146444,1011
60,93,147460,790
65,88,148251,733
68,88,149015,479
60,83,149525,5110
65,93,149525,5110
80,89,150540,474
77,88,151045,476
85,93,151556,790
80,88,152347,733
87,88,153111,757
80,88,153884,751
67,89,154636,474
68,88,155141,476
70,88,155652,6160
60,93,155652,2064
89,88,156443,733
82,88,157207,757
65,91,157717,2026
84,88,157980,751
80,89,158732,474
77,88,159237,476
63,85,159748,2064
80,88,160539,733
87,88,161303,479
67,91,161813,479
68,88,162323,474
70,89,162828,474
72,88,163333,476
75,88,163844,7175
68,88,163844,6160
89,88,164635,733
82,88,165399,757
84,88,166172,751
80,89,166924,474
77,88,167429,476
85,93,167940,790
80,88,168731,733
87,88,169495,479
67,91,170005,1014
77,89,171020,1011
67,89,171020,1011
69,80,172036,8187
72,90,172036,8187
89,88,172827,733
82,88,173591,757
84,88,174364,751
80,89,175116,474
77,88,175621,476
85,93,176132,790
80,88,176923,733
87,88,177687,757
92,88,178460,751
91,89,179212,1011
60,93,180228,790
65,88,181019,733
68,88,181783,479
60,83,182293,5110
65,93,182293,5110
80,89,183308,474
77,88,183813,476
85,93,184324,790
80,88,185115,733
87,88,185879,757
80,88,186652,751
67,89,187404,474
68,88,187909,476
70,88,188420,6160
60,93,188420,2064
89,88,189211,733
82,88,189975,757
65,91,190485,2026
84,88,190748,751
80,89,191500,474
77,88,192005,476
63,85,192516,2064
80,88,193307,733
87,88,194071,479
67,91,194581,479
68,88,195091,474
70,89,195596,474
72,88,196101,476
60,80,196612,7175
67,90,196612,7175
89,88,197403,733
82,88,198167,757
84,88,198940,751
80,89,199692,474
77,88,200197,476
85,93,200708,790
80,88,201499,733
87,88,202263,757
80,88,203036,751
79,89,203788,474
75,88,204293,476
60,80,204804,3079
67,94,204804,3079
89,88,205595,733
82,88,206359,757
84,88,207132,751
55,81,207884,1011
65,95,207884,1011
56,80,208900,4091
60,94,208900,4091
80,88,209691,733
87,88,210455,757
92,88,211228,751
91,89,211980,1011
60,93,212996,790
65,88,213787,733
68,88,214551,479
60,83,215061,5110
65,93,215061,5110
80,89,216076,474
77,88,216581,476
85,93,217092,790
80,88,217883,733
87,88,218647,757
80,88,219420,751
67,89,220172,474
68,88,220677,476
70,88,221188,6160
60,93,221188,2064
89,88,221979,733
82,88,222743,757
65,91,223253,2026
84,88,223516,751
80,89,224268,474
77,88,224773,476
63,85,225284,2064
80,88,226075,733
87,88,226839,479
67,91,227349,479
68,88,227859,474
70,89,228364,474
72,88,228869,476
75,88,229380,7175
68,88,229380,6160
89,88,230171,733
82,88,230935,757
84,88,231708,751
80,89,232460,474
77,88,232965,476
85,93,233476,790
80,88,234267,733
87,88,235031,479
67,91,235541,1014
77,89,236556,1011
67,89,236556,1011
69,80,237572,8187
72,90,237572,8187
89,88,238363,733
82,88,239127,757
84,88,239900,751
80,89,240652,474
77,88,241157,476
85,93,241668,790
80,88,242459,733
87,81,243223,989
80,68,244243,746
79,59,245005,754
77,54,245764,509
84,49,246304,475
82,50,246810,478
84,49,247319,476
80,52,247826,470
84,49,248327,474
79,54,248836,1045
79,50,249882,478
80,49,250391,476
79,52,250898,470
80,49,251399,474
79,54,251908,1554
82,49,253463,1512
77,54,254980,1554
75,49,256535,1512
77,54,258052,509
84,49,258592,475
82,50,259098,478
84,49,259607,476
80,52,260114,470
84,49,260615,474
79,54,261124,1045
79,50,262170,478
80,49,262679,476
79,52,263186,470
80,49,263687,474
79,54,264196,1045
82,50,265242,1015
87,52,266258,1005
86,49,267008,128
85,49,267136,128
84,44,267268,3011
77,62,270340,3067
84,62,270880,475
82,63,271386,478
84,62,271895,476
80,65,272402,470
84,62,272903,474
79,67,273412,1045
75,62,273412,3067
79,63,274458,478
80,62,274967,476
79,65,275474,470
80,62,275975,474
79,67,276484,1554
72,62,276484,3067
82,62,278039,1512
77,67,279556,1554
70,67,279556,1554
75,62,281111,1512
68,62,281111,1512
77,62,282628,3067
84,62,283168,475
82,63,283674,478
84,62,284183,476
80,65,284690,470
84,62,285191,474
79,67,285700,1045
75,62,285700,3067
79,63,286746,478
80,62,287255,476
79,65,287762,470
80,62,288263,474
79,67,288772,1045
72,62,288772,3067
82,63,289818,1015
87,65,290834,1005
86,62,291584,128
85,62,291712,128
84,57,291844,3011
77,62,291844,3067
72,98,294916,509
77,112,294916,539
80,93,295456,475
84,107,295456,505
79,94,295962,478
82,108,295962,508
80,93,296471,506
84,107,296471,506
77,96,296978,470
80,110,296978,500
80,93,297479,474
84,107,297479,504
75,98,297988,431
79,112,297988,431
75,94,299034,478
79,108,299034,508
77,93,299543,476
80,107,299543,506
75,96,300050,470
79,110,300050,500
77,93,300551,474
80,107,300551,504
75,98,301060,1554
79,112,301060,1554
79,93,302615,1512
82,107,302615,1512
72,98,304132,1554
77,112,304132,1554
70,93,305687,1512
75,107,305687,1512
72,98,307204,509
77,112,307204,539
80,93,307744,475
84,107,307744,505
79,94,308250,478
82,108,308250,508
80,93,308759,506
84,107,308759,506
77,96,309266,470
80,110,309266,500
80,93,309767,474
84,107,309767,504
75,98,310276,431
79,112,310276,431
75,94,311322,478
79,108,311322,508
77,93,311831,476
80,107,311831,506
75,96,312338,470
79,110,312338,500
77,93,312839,474
80,107,312839,504
75,98,313348,1045
79,112,313348,1045
82,102,314394,1015
87,104,315410,1005
86,101,316160,128
85,101,316288,128
81,88,316420,3011
84,102,316420,3067
72,98,319492,509
77,112,319492,539
80,93,320032,475
84,107,320032,505
79,94,320538,478
82,108,320538,508
80,93,321047,506
84,107,321047,506
77,96,321554,470
80,110,321554,500
80,93,322055,474
84,107,322055,504
75,98,322564,431
79,112,322564,431
75,94,323610,478
79,108,323610,508
77,93,324119,476
80,107,324119,506
75,96,324626,470
79,110,324626,500
77,93,325127,474
80,107,325127,504
75,98,325636,1554
79,112,325636,1554
79,93,327191,1512
82,107,327191,1512
72,98,328708,1554
77,112,328708,1554
70,93,330263,1512
75,107,330263,1512
73,98,331780,1524
77,112,331780,1554
68,93,333335,476
72,107,333335,506
72,96,333842,470
75,110,333842,500
73,93,334343,474
77,107,334343,504
77,98,334852,1045
80,112,334852,1045
75,94,335898,1015
79,108,335898,1015
70,96,336914,1005
75,110,336914,1005
70,93,337924,3067
77,107,337924,3067
69,104,340996,3067
77,99,340996,3067
77,98,344068,509
84,98,344068,539
89,112,344068,539
84,93,344608,475
92,93,344608,475
96,107,344608,505
82,94,345114,478
91,94,345114,478
94,108,345114,508
84,93,345623,476
92,93,345623,476
96,107,345623,506
80,96,346130,470
89,96,346130,470
92,110,346130,500
84,93,346631,474
92,93,346631,474
96,107,346631,504
79,98,347140,431
87,98,347140,431
91,112,347140,431
79,94,348186,478
87,94,348186,478
91,108,348186,508
80,93,348695,476
89,93,348695,476
92,107,348695,506
79,96,349202,470
87,96,349202,470
91,110,349202,500
80,93,349703,474
89,93,349703,474
92,107,349703,504
79,98,350212,1554
87,98,350212,1554
91,112,350212,1554
82,93,351767,1512
91,93,351767,1512
94,107,351767,1512
77,98,353284,1554
84,98,353284,1554
89,112,353284,1554
75,93,354839,1512
82,93,354839,1512
87,107,354839,1512
77,98,356356,509
84,98,356356,539
89,112,356356,539
84,93,356896,475
92,93,356896,475
96,107,356896,505
82,94,357402,478
91,94,357402,478
94,108,357402,508
84,93,357911,476
92,93,357911,476
96,107,357911,506
80,96,358418,470
89,96,358418,470
92,110,358418,500
84,93,358919,474
92,93,358919,474
96,107,358919,504
79,98,359428,431
87,98,359428,431
91,112,359428,431
79,94,360474,478
87,94,360474,478
91,108,360474,508
80,93,360983,476
89,93,360983,476
92,107,360983,506
79,96,361490,470
87,96,361490,470
91,110,361490,500
80,93,361991,474
89,93,361991,474
92,107,361991,504
79,98,362500,1045
87,98,362500,1045
91,112,362500,1045
82,94,363546,1015
94,108,363546,1015
87,96,364562,1005
99,110,364562,621
98,101,365312,128
97,101,365440,128
84,88,365572,3067
93,88,365572,3011
96,102,365572,3067
77,98,368644,509
84,98,368644,539
89,112,368644,539
84,93,369184,475
92,93,369184,475
96,107,369184,505
82,94,369690,478
91,94,369690,478
94,108,369690,508
84,93,370199,476
92,93,370199,476
96,107,370199,506
80,96,370706,470
89,96,370706,470
92,110,370706,500
84,93,371207,474
92,93,371207,474
96,107,371207,504
79,98,371716,431
87,98,371716,431
91,112,371716,431
79,94,372762,478
87,94,372762,478
91,108,372762,508
80,93,373271,476
89,93,373271,476
92,107,373271,506
79,96,373778,470
87,96,373778,470
91,110,373778,500
80,93,374279,474
89,93,374279,474
92,107,374279,504
79,98,374788,1554
87,98,374788,1554
91,112,374788,1554
82,93,376343,1512
91,93,376343,1512
94,107,376343,1512
77,98,377860,1554
84,98,377860,1554
89,112,377860,1554
75,93,379415,1512
82,93,379415,1512
87,107,379415,1512
77,98,380932,1524
85,98,380932,1524
89,112,380932,1554
72,93,382487,476
80,93,382487,476
84,107,382487,506
75,96,382994,470
84,96,382994,470
87,110,382994,500
77,93,383495,474
85,93,383495,474
89,107,383495,504
80,98,384004,1045
89,98,384004,1045
92,112,384004,1045
79,94,385050,1015
87,94,385050,1015
91,108,385050,1015
75,96,386066,1005
82,96,386066,1005
87,110,386066,1005
77,93,387076,3067
82,93,387076,3067
89,107,387076,3067
77,93,390148,3067
81,104,390148,3067
89,99,390148,3067
87,54,393226,784
89,49,394011,733
82,49,394775,757
84,49,395548,751
80,50,396300,474
77,49,396805,476
85,54,397316,790
80,49,398107,733
87,49,398871,757
80,49,399644,751
79,50,400396,474
75,49,400901,476
87,54,401412,790
89,49,402203,733
82,49,402967,757
84,49,403740,751
80,50,404492,474
77,49,404997,476
85,54,405508,790
80,49,406299,733
87,49,407063,757
92,49,407836,751
91,50,408588,1011
87,67,409604,790
89,62,410395,733
82,62,411159,757
84,62,411932,751
80,63,412684,474
77,62,413189,476
85,67,413700,790
80,62,414491,733
87,62,415255,757
80,62,416028,751
79,63,416780,474
75,62,417285,476
87,67,417796,790
89,62,418587,733
82,62,419351,757
84,62,420124,751
80,63,420876,474
77,62,421381,476
85,67,421892,790
80,73,422683,733
87,88,423447,757
92,88,424220,751
91,89,424972,1011
75,85,425988,790
87,99,425988,790
77,80,426779,733
89,94,426779,763
70,80,427543,757
82,94,427543,772
72,80,428316,751
84,94,428316,751
68,81,429068,474
80,95,429068,504
65,80,429573,476
77,94,429573,506
73,85,430084,790
85,99,430084,790
68,80,430875,733
80,94,430875,763
75,80,431639,757
87,94,431639,772
68,80,432412,751
80,94,432412,751
67,81,433164,474
79,95,433164,504
63,80,433669,476
75,94,433669,506
75,85,434180,790
87,99,434180,790
77,80,434971,733
89,94,434971,763
70,80,435735,757
82,94,435735,772
72,80,436508,751
84,94,436508,751
68,81,437260,474
80,95,437260,504
65,80,437765,476
77,94,437765,506
73,85,438276,790
85,99,438276,790
68,80,439067,733
80,94,439067,763
75,80,439831,757
87,94,439831,772
80,80,440604,751
92,94,440604,751
79,81,441356,1011
91,95,441356,1011
75,85,442372,790
87,99,442372,790
77,80,443163,733
89,94,443163,763
70,80,443927,757
82,94,443927,772
72,80,444700,751
84,94,444700,751
68,81,445452,474
80,95,445452,504
65,80,445957,476
77,94,445957,506
73,85,446468,790
85,99,446468,790
68,80,447259,733
80,94,447259,763
75,80,448023,757
87,94,448023,772
68,80,448796,751
80,94,448796,751
67,81,449548,474
79,95,449548,504
63,80,450053,476
75,94,450053,506
75,85,450564,790
87,99,450564,790
77,80,451355,733
89,94,451355,763
70,80,452119,757
82,94,452119,772
72,80,452892,751
84,94,452892,751
68,81,453644,474
80,95,453644,504
65,80,454149,476
77,94,454149,506
73,85,454660,790
85,99,454660,790
68,80,455451,733
80,94,455451,763
75,80,456215,757
87,94,456215,772
80,80,456988,751
92,94,456988,751
79,81,457740,1011
91,95,457740,1011
75,85,458756,790
87,99,458756,790
77,80,459547,733
89,94,459547,763
70,80,460311,757
82,94,460311,772
72,80,461084,751
84,94,461084,751
68,81,461836,474
80,95,461836,504
65,80,462341,476
77,94,462341,506
73,85,462852,790
85,99,462852,790
68,80,463643,733
80,94,463643,763
75,80,464407,757
87,94,464407,772
68,80,465180,751
80,94,465180,751
67,81,465932,474
79,95,465932,504
63,80,466437,476
75,94,466437,506
75,85,466948,790
87,99,466948,790
77,80,467739,733
89,94,467739,763
70,80,468503,757
82,94,468503,772
72,80,469276,751
84,94,469276,751
68,81,470028,474
80,95,470028,504
65,80,470533,476
77,94,470533,506
73,85,471044,790
85,99,471044,790
68,80,471835,733
80,94,471835,763
75,80,472599,757
87,94,472599,772
80,80,473372,751
92,94,473372,751
79,81,474124,1011
91,95,474124,1011
75,85,475140,790
87,99,475140,790
77,80,475931,733
89,94,475931,763
70,80,476695,757
82,94,476695,772
72,80,477468,751
84,94,477468,751
68,81,478220,474
80,95,478220,504
65,80,478725,476
77,94,478725,506
73,85,479236,790
85,99,479236,790
68,80,480027,733
80,94,480027,763
75,80,480791,757
87,94,480791,772
68,80,481564,751
80,94,481564,751
67,81,482316,474
79,95,482316,504
63,80,482821,476
75,94,482821,506
75,85,483332,790
87,99,483332,790
77,80,484123,733
89,94,484123,763
70,80,484887,757
82,94,484887,772
72,80,485660,751
84,94,485660,751
68,81,486412,474
80,95,486412,504
65,80,486917,476
77,94,486917,506
73,85,487428,790
85,99,487428,790
68,80,488219,733
80,94,488219,763
75,80,488983,757
87,94,488983,772
80,80,489756,751
92,94,489756,751
79,81,490508,1011
91,95,490508,1011
60,93,491524,790
65,88,492315,733
68,88,493079,479
60,83,493589,5110
65,93,493589,5110
80,89,494604,474
77,88,495109,476
85,93,495620,790
80,88,496411,733
87,88,497175,757
80,88,497948,751
67,89,498700,474
68,88,499205,476
70,88,499716,6160
60,93,499716,2064
89,88,500507,733
82,88,501271,757
65,91,501781,2026
84,88,502044,751
80,89,502796,474
77,88,503301,476
63,85,503812,2064
80,88,504603,733
87,88,505367,479
67,91,505877,479
68,88,506387,474
70,89,506892,474
72,88,507397,476
60,80,507908,7175
67,90,507908,7175
89,88,508699,733
82,88,509463,757
84,88,510236,751
80,89,510988,474
77,88,511493,476
85,93,512004,790
80,88,512795,733
87,88,513559,757
80,88,514332,751
79,89,515084,474
75,88,515589,476
60,80,516100,3079
67,94,516100,3079
89,88,516891,733
82,88,517655,757
84,88,518428,751
55,81,519180,1011
65,95,519180,1011
56,80,520196,4091
60,94,520196,4091
80,88,520987,733
87,88,521751,757
92,88,522524,751
91,89,523276,1011
60,93,524292,790
65,88,525083,733
68,88,525847,479
60,83,526357,5110
65,93,526357,5110
80,89,527372,474
77,88,527877,476
85,93,528388,790
80,88,529179,733
87,88,529943,757
80,88,530716,751
67,89,531468,474
68,88,531973,476
70,88,532484,6160
60,93,532484,2064
89,88,533275,733
82,88,534039,757
65,91,534549,2026
84,88,534812,751
80,89,535564,474
77,88,536069,476
63,85,536580,2064
80,88,537371,733
87,88,538135,479
67,91,538645,479
68,88,539155,474
70,89,539660,474
72,88,540165,476
75,88,540676,7175
68,88,540676,6160
89,88,541467,733
82,88,542231,757
84,88,543004,751
80,89,543756,474
77,88,544261,476
85,93,544772,790
80,88,545563,733
87,88,546327,479
67,91,546837,1014
77,89,547852,1011
67,89,547852,1011
69,80,548868,8187
72,90,548868,8187
89,88,549659,733
82,88,550423,757
84,88,551196,751
80,89,551948,474
77,88,552453,476
85,93,552964,790
80,88,553755,733
87,81,554519,989
80,68,555539,746
79,59,556301,754
77,54,557060,509
84,49,557600,475
82,50,558106,478
84,49,558615,476
80,52,559122,470
84,49,559623,474
79,54,560132,1045
79,50,561178,478
80,49,561687,476
79,52,562194,470
80,49,562695,474
79,54,563204,1554
82,49,564759,1512
77,54,566276,1554
75,49,567831,1512
77,54,569348,509
84,49,569888,475
82,50,570394,478
84,49,570903,476
80,52,571410,470
84,49,571911,474
79,54,572420,1045
79,50,573466,478
80,49,573975,476
79,52,574482,470
80,49,574983,474
79,54,575492,1045
82,50,576538,1015
87,52,577554,1005
86,49,578304,128
85,49,578432,128
84,44,578564,3011
77,62,581636,3067
84,62,582176,475
82,63,582682,478
84,62,583191,476
80,65,583698,470
84,62,584199,474
79,67,584708,1045
75,62,584708,3067
79,63,585754,478
80,62,586263,476
79,65,586770,470
80,62,587271,474
79,67,587780,1554
72,62,587780,3067
82,62,589335,1512
77,67,590852,1554
70,67,590852,1554
75,62,592407,1512
68,62,592407,1512
77,62,593924,3067
84,62,594464,475
82,63,594970,478
84,62,595479,476
80,65,595986,470
84,62,596487,474
79,67,596996,1045
75,62,596996,3067
79,63,598042,478
80,62,598551,476
79,65,599058,470
80,62,599559,474
79,67,600068,1045
72,62,600068,3067
82,63,601114,1015
87,65,602130,1005
86,62,602880,128
85,62,603008,128
84,57,603140,3011
77,62,603140,3067
72,98,606212,509
77,112,606212,539
80,93,606752,475
84,107,606752,505
79,94,607258,478
82,108,607258,508
80,93,607767,506
84,107,607767,506
77,96,608274,470
80,110,608274,500
80,93,608775,474
84,107,608775,504
75,98,609284,431
79,112,609284,431
75,94,610330,478
79,108,610330,508
77,93,610839,476
80,107,610839,506
75,96,611346,470
79,110,611346,500
77,93,611847,474
80,107,611847,504
75,98,612356,1554
79,112,612356,1554
79,93,613911,1512
82,107,613911,1512
72,98,615428,1554
77,112,615428,1554
70,93,616983,1512
75,107,616983,1512
72,98,618500,509
77,112,618500,539
80,93,619040,475
84,107,619040,505
79,94,619546,478
82,108,619546,508
80,93,620055,506
84,107,620055,506
77,96,620562,470
80,110,620562,500
80,93,621063,474
84,107,621063,504
75,98,621572,431
79,112,621572,431
75,94,622618,478
79,108,622618,508
77,93,623127,476
80,107,623127,506
75,96,623634,470
79,110,623634,500
77,93,624135,474
80,107,624135,504
75,98,624644,1045
79,112,624644,1045
82,102,625690,1015
87,104,626706,1005
86,101,627456,128
85,101,627584,128
81,88,627716,3011
84,102,627716,3067
72,98,630788,509
77,112,630788,539
80,93,631328,475
84,107,631328,505
79,94,631834,478
82,108,631834,508
80,93,632343,506
84,107,632343,506
77,96,632850,470
80,110,632850,500
80,93,633351,474
84,107,633351,504
75,98,633860,431
79,112,633860,431
75,94,634906,478
79,108,634906,508
77,93,635415,476
80,107,635415,506
75,96,635922,470
79,110,635922,500
77,93,636423,474
80,107,636423,504
75,98,636932,1554
79,112,636932,1554
79,93,638487,1512
82,107,638487,1512
72,98,640004,1554
77,112,640004,1554
70,93,641559,1512
75,107,641559,1512
73,98,643076,1524
77,112,643076,1554
68,93,644631,476
72,107,644631,506
72,96,645138,470
75,110,645138,500
73,93,645639,474
77,107,645639,504
77,98,646148,1045
80,112,646148,1045
75,94,647194,1015
79,108,647194,1015
70,96,648210,1005
75,110,648210,1005
70,93,649220,3067
77,107,649220,3067
69,104,652292,3067
77,99,652292,3067
77,98,655364,509
84,98,655364,539
89,112,655364,539
84,93,655904,475
92,93,655904,475
96,107,655904,505
82,94,656410,478
91,94,656410,478
94,108,656410,508
84,93,656919,476
92,93,656919,476
96,107,656919,506
80,96,657426,470
89,96,657426,470
92,110,657426,500
84,93,657927,474
92,93,657927,474
96,107,657927,504
79,98,658436,431
87,98,658436,431
91,112,658436,431
79,94,659482,478
87,94,659482,478
91,108,659482,508
80,93,659991,476
89,93,659991,476
92,107,659991,506
79,96,660498,470
87,96,660498,470
91,110,660498,500
80,93,660999,474
89,93,660999,474
92,107,660999,504
79,98,661508,1554
87,98,661508,1554
91,112,661508,1554
82,93,663063,1512
91,93,663063,1512
94,107,663063,1512
77,98,664580,1554
84,98,664580,1554
89,112,664580,1554
75,93,666135,1512
82,93,666135,1512
87,107,666135,1512
77,98,667652,509
84,98,667652,539
89,112,667652,539
84,93,668192,475
92,93,668192,475
96,107,668192,505
82,94,668698,478
91,94,668698,478
94,108,668698,508
84,93,669207,476
92,93,669207,476
96,107,669207,506
80,96,669714,470
89,96,669714,470
92,110,669714,500
84,93,670215,474
92,93,670215,474
96,107,670215,504
79,98,670724,431
87,98,670724,431
91,112,670724,431
79,94,671770,478
87,94,671770,478
91,108,671770,508
80,93,672279,476
89,93,672279,476
92,107,672279,506
79,96,672786,470
87,96,672786,470
91,110,672786,500
80,93,673287,474
89,93,673287,474
92,107,673287,504
79,98,673796,1045
87,98,673796,1045
91,112,673796,1045
82,94,674842,1015
94,108,674842,1015
87,96,675858,1005
99,110,675858,621
98,101,676608,128
97,101,676736,128
84,88,676868,3067
93,88,676868,3011
96,102,676868,3067
77,98,679940,509
84,98,679940,539
89,112,679940,539
84,93,680480,475
92,93,680480,475
96,107,680480,505
82,94,680986,478
91,94,680986,478
94,108,680986,508
84,93,681495,476
92,93,681495,476
96,107,681495,506
80,96,682002,470
89,96,682002,470
92,110,682002,500
84,93,682503,474
92,93,682503,474
96,107,682503,504
79,98,683012,431
87,98,683012,431
91,112,683012,431
79,94,684058,478
87,94,684058,478
91,108,684058,508
80,93,684567,476
89,93,684567,476
92,107,684567,506
79,96,685074,470
87,96,685074,470
91,110,685074,500
80,93,685575,474
89,93,685575,474
92,107,685575,504
79,98,686084,1554
87,98,686084,1554
91,112,686084,1554
82,93,687639,1512
91,93,687639,1512
94,107,687639,1512
77,98,689156,1554
84,98,689156,1554
89,112,689156,1554
75,93,690711,1512
82,93,690711,1512
87,107,690711,1512
77,98,692228,1524
85,98,692228,1524
89,112,692228,1554
72,93,693783,476
80,93,693783,476
84,107,693783,506
75,96,694290,470
84,96,694290,470
87,110,694290,500
77,93,694791,474
85,93,694791,474
89,107,694791,504
80,98,695300,1045
89,98,695300,1045
92,112,695300,1045
79,94,696346,1015
87,94,696346,1015
91,108,696346,1015
75,96,697362,1005
82,96,697362,1005
87,110,697362,1005
77,93,698372,3067
82,93,698372,3067
89,107,698372,3067
77,93,701444,3067
81,104,701444,3067
89,99,701444,3067
48,54,16388,8187
53,64,16388,8187
41,62,16388,4091
41,62,20484,3079
39,62,23564,1011
48,54,24580,8187
53,64,24580,8187
41,62,24580,4091
41,62,28676,4091
36,60,32384,128
37,61,32512,128
39,56,32640,128
48,54,32772,8187
53,64,32772,8187
41,62,32772,4091
41,62,36868,3079
39,62,39948,1011
48,54,40964,4092
53,64,40964,4092
41,62,40964,4091
37,66,45060,541
37,68,45602,233
39,74,45851,516
39,86,46368,231
46,91,46615,479
41,93,49156,292
41,88,49449,233
36,86,49698,248
36,86,49947,243
41,89,50206,257
41,88,50464,231
36,86,50711,232
41,88,50959,246
36,86,51484,231
39,87,51731,232
41,88,51979,241
44,89,52236,241
43,88,52493,232
41,88,52741,232
39,87,52989,243
37,92,53252,292
37,87,53545,233
32,85,53794,248
32,85,54043,243
37,88,54302,257
37,87,54560,231
32,85,54807,232
39,87,55055,246
34,86,55580,231
39,87,55827,232
41,88,56075,241
44,89,56332,241
43,88,56589,232
41,88,56837,232
39,87,57085,243
41,93,57348,292
41,88,57641,233
36,86,57890,248
36,86,58139,243
41,89,58398,257
41,88,58656,231
36,86,58903,232
41,88,59151,246
36,86,59676,231
39,87,59923,232
41,88,60171,241
44,89,60428,241
43,88,60685,232
41,88,60933,232
39,87,61181,243
37,92,61444,277
37,87,61986,233
32,85,62235,243
32,85,62752,231
37,87,62999,232
39,87,63247,246
36,86,63772,231
39,87,64019,232
41,88,64267,241
44,89,64524,241
43,88,64781,232
41,88,65029,232
39,87,65277,243
41,93,65540,292
41,88,65833,233
36,86,66082,248
36,86,66331,243
41,89,66590,257
41,88,66848,231
36,86,67095,232
41,88,67343,246
36,86,67868,231
39,87,68115,232
41,88,68363,241
44,89,68620,241
43,88,68877,232
41,88,69125,232
39,87,69373,243
37,92,69636,292
37,87,69929,233
32,85,70178,248
32,85,70427,243
37,88,70686,257
37,87,70944,231
32,85,71191,232
39,87,71439,246
34,86,71964,231
39,87,72211,232
41,88,72459,241
44,89,72716,241
43,88,72973,232
41,88,73221,232
39,87,73469,243
41,93,73732,292
41,88,74025,233
36,86,74274,248
36,86,74523,243
41,89,74782,257
41,88,75040,231
36,86,75287,232
41,88,75535,246
36,86,76060,231
39,87,76307,232
41,88,76555,241
44,89,76812,241
43,88,77069,232
41,88,77317,232
39,87,77565,243
37,92,77828,277
37,87,78370,233
32,85,78619,243
32,85,79136,231
37,87,79383,232
39,87,79631,246
36,86,80156,231
39,87,80403,232
41,88,80651,241
44,89,80908,241
43,88,81165,232
41,88,81413,232
39,87,81661,243
51,88,81924,8187
41,93,81924,292
41,88,82217,233
36,86,82466,248
36,86,82715,243
41,89,82974,257
41,88,83232,231
36,86,83479,232
41,88,83727,246
36,86,84252,231
39,87,84499,232
41,88,84747,241
44,89,85004,241
43,88,85261,232
41,88,85509,232
39,87,85757,243
37,92,86020,292
37,87,86313,233
32,85,86562,248
32,85,86811,243
37,88,87070,257
37,87,87328,231
32,85,87575,232
39,87,87823,246
34,86,88348,231
39,87,88595,232
41,88,88843,241
44,89,89100,241
43,88,89357,232
41,88,89605,232
39,87,89853,243
46,88,90116,8187
41,93,90116,292
41,88,90409,233
36,86,90658,248
36,86,90907,243
41,89,91166,257
41,88,91424,231
36,86,91671,232
41,88,91919,246
36,86,92444,231
39,87,92691,232
41,88,92939,241
44,89,93196,241
43,88,93453,232
41,88,93701,232
39,87,93949,243
37,92,94212,277
37,87,94754,233
32,85,95003,243
32,85,95520,231
37,87,95767,232
39,87,96015,246
36,86,96540,231
39,87,96787,232
41,88,97035,241
44,89,97292,241
43,88,97549,232
41,88,97797,232
39,87,98045,243
51,88,98308,8187
41,93,98308,292
41,88,98601,233
36,86,98850,248
36,86,99099,243
41,89,99358,257
41,88,99616,231
36,86,99863,232
41,88,100111,246
36,86,100636,231
39,87,100883,232
41,88,101131,241
44,89,101388,241
43,88,101645,232
41,88,101893,232
39,87,102141,243
37,92,102404,292
37,87,102697,233
32,85,102946,248
32,85,103195,243
37,88,103454,257
37,87,103712,231
32,85,103959,232
39,87,104207,246
34,86,104732,231
39,87,104979,232
41,88,105227,241
44,89,105484,241
43,88,105741,232
41,88,105989,232
39,87,106237,243
46,88,106500,8187
41,93,106500,292
41,88,106793,233
36,86,107042,248
36,86,107291,243
41,89,107550,257
41,88,107808,231
36,86,108055,232
41,88,108303,246
36,86,108828,231
39,87,109075,232
41,88,109323,241
44,89,109580,241
43,88,109837,232
41,88,110085,232
39,87,110333,243
37,92,110596,277
37,87,111138,233
32,85,111387,243
32,85,111904,231
37,87,112151,232
39,87,112399,246
36,86,112924,231
39,87,113171,232
41,88,113419,241
44,89,113676,241
43,88,113933,232
41,88,114181,232
39,87,114429,243
53,75,114692,4091
41,99,114692,285
48,75,115234,233
41,94,115483,243
41,94,116247,479
41,94,117020,276
39,74,117267,277
41,75,117515,256
41,70,117772,284
39,93,118277,476
49,80,118788,2064
41,99,118788,285
48,75,119330,233
41,94,119579,243
41,94,120343,479
51,78,120853,2026
41,94,121116,276
39,74,121363,277
41,75,121611,256
41,70,121868,284
39,93,122373,476
53,75,122884,8187
41,99,122884,285
48,75,123426,233
41,94,123675,243
41,94,124439,479
41,94,125212,276
39,74,125459,277
41,75,125707,256
41,70,125964,284
39,93,126469,476
41,99,126980,285
48,75,127522,233
41,94,127771,243
41,94,128535,479
41,94,129308,276
39,74,129555,277
41,75,129803,256
41,70,130060,284
39,93,130565,476
53,75,131076,4091
41,99,131076,285
48,75,131618,233
41,94,131867,243
41,94,132631,479
41,94,133404,276
39,74,133651,277
41,75,133899,256
41,70,134156,284
39,93,134661,476
49,80,135172,2064
41,99,135172,285
48,75,135714,233
41,94,135963,243
41,94,136727,479
51,78,137237,2026
41,94,137500,276
39,74,137747,277
41,75,137995,256
41,70,138252,284
39,93,138757,476
53,75,139268,8187
41,99,139268,285
48,75,139810,233
41,94,140059,243
41,94,140823,479
41,94,141596,276
39,74,141843,277
41,75,142091,256
41,70,142348,284
39,93,142853,476
41,99,143364,285
48,75,143906,233
41,94,144155,243
41,94,144919,479
41,94,145692,276
39,74,145939,277
41,75,146187,256
41,70,146444,284
39,93,146949,476
53,75,147460,4091
41,99,147460,285
48,75,148002,233
41,94,148251,243
41,94,149015,479
41,94,149788,276
39,74,150035,277
41,75,150283,256
41,70,150540,284
39,93,151045,476
49,80,151556,2064
41,99,151556,285
48,75,152098,233
41,94,152347,243
41,94,153111,479
51,78,153621,2026
41,94,153884,276
39,74,154131,277
41,75,154379,256
41,70,154636,284
39,93,155141,476
53,75,155652,8187
41,99,155652,285
48,75,156194,233
41,94,156443,243
41,94,157207,479
41,94,157980,276
39,74,158227,277
41,75,158475,256
41,70,158732,284
39,93,159237,476
41,99,159748,285
48,75,160290,233
41,94,160539,243
41,94,161303,479
41,94,162076,276
39,74,162323,277
41,75,162571,256
41,70,162828,284
39,93,163333,476
53,75,163844,4091
41,99,163844,285
48,75,164386,233
41,94,164635,243
41,94,165399,479
41,94,166172,276
39,74,166419,277
41,75,166667,256
41,70,166924,284
39,93,167429,476
49,80,167940,2064
41,99,167940,285
48,75,168482,233
41,94,168731,243
41,94,169495,479
51,78,170005,2026
41,94,170268,276
39,74,170515,277
41,75,170763,256
41,70,171020,284
39,93,171525,476
53,75,172036,8187
41,99,172036,285
48,75,172578,233
41,94,172827,243
41,94,173591,479
41,94,174364,276
39,74,174611,277
41,75,174859,256
41,70,175116,284
39,93,175621,476
41,99,176132,285
48,75,176674,233
41,94,176923,243
41,94,177687,479
41,94,178460,276
39,74,178707,277
41,75,178955,286
43,75,179212,286
41,70,179469,136
39,93,179717,476
53,75,180228,4091
41,99,180228,285
48,75,180770,233
41,94,181019,243
41,94,181783,479
41,94,182556,276
39,74,182803,277
41,75,183051,256
41,70,183308,284
39,93,183813,476
49,80,184324,2064
41,99,184324,285
48,75,184866,233
41,94,185115,243
41,94,185879,479
51,78,186389,2026
41,94,186652,276
39,74,186899,277
41,75,187147,256
41,70,187404,284
39,93,187909,476
53,75,188420,8187
41,99,188420,285
48,75,188962,233
41,94,189211,243
41,94,189975,479
41,94,190748,276
39,74,190995,277
41,75,191243,256
41,70,191500,284
39,93,192005,476
41,99,192516,285
48,75,193058,233
41,94,193307,243
41,94,194071,479
41,94,194844,276
39,74,195091,277
41,75,195339,256
41,70,195596,284
39,93,196101,476
53,75,196612,4091
41,99,196612,285
48,75,197154,233
41,94,197403,243
41,94,198167,479
41,94,198940,276
39,74,199187,277
41,75,199435,256
41,70,199692,284
39,93,200197,476
49,80,200708,2064
41,99,200708,285
48,75,201250,233
41,94,201499,243
41,94,202263,479
51,78,202773,2026
41,94,203036,276
39,74,203283,277
41,75,203531,256
41,70,203788,284
39,93,204293,476
53,75,204804,8187
41,99,204804,285
48,75,205346,233
41,94,205595,243
41,94,206359,479
41,94,207132,276
39,74,207379,277
41,75,207627,256
41,70,207884,284
39,93,208389,476
41,99,208900,285
48,75,209442,233
41,94,209691,243
41,94,210455,479
41,94,211228,276
39,74,211475,277
41,75,211723,256
41,70,211980,284
39,93,212485,476
53,75,212996,4091
41,99,212996,285
48,75,213538,233
41,94,213787,243
41,94,214551,479
41,94,215324,276
39,74,215571,277
41,75,215819,256
41,70,216076,284
39,93,216581,476
49,80,217092,2064
41,99,217092,285
48,75,217634,233
41,94,217883,243
41,94,218647,479
51,78,219157,2026
41,94,219420,276
39,74,219667,277
41,75,219915,256
41,70,220172,284
39,93,220677,476
53,75,221188,8187
41,99,221188,285
48,75,221730,233
41,94,221979,243
41,94,222743,479
41,94,223516,276
39,74,223763,277
41,75,224011,256
41,70,224268,284
39,93,224773,476
41,99,225284,285
48,75,225826,233
41,94,226075,243
41,94,226839,479
41,94,227612,276
39,74,227859,277
41,75,228107,256
41,70,228364,284
39,93,228869,476
53,75,229380,4091
41,99,229380,285
48,75,229922,233
41,94,230171,243
41,94,230935,479
41,94,231708,276
39,74,231955,277
41,75,232203,256
41,70,232460,284
39,93,232965,476
49,80,233476,2064
41,99,233476,285
48,75,234018,233
41,94,234267,243
41,94,235031,479
51,78,235541,2026
41,94,235804,276
39,74,236051,277
41,75,236299,256
41,70,236556,284
39,93,237061,476
53,75,237572,4092
41,99,237572,285
48,75,238114,233
41,94,238363,243
41,94,239127,479
41,94,239900,276
39,74,240147,277
41,75,240395,256
41,70,240652,284
39,93,241157,476
53,80,241668,1787
41,99,241668,285
48,75,242210,233
41,94,242459,243
41,69,243223,232
51,66,243471,741
39,84,243471,2288
53,58,244243,746
55,75,245005,754
49,67,245594,3237
56,67,245679,3152
63,55,245764,3067
51,41,248666,3237
58,41,248751,3152
65,55,248836,3067
48,41,251716,3259
53,41,251780,3195
58,41,251844,59
60,55,251908,3067
48,41,254810,165
53,41,254895,80
56,54,254980,1554
60,55,254980,3067
55,49,256535,1512
49,41,257882,3237
56,41,257967,3152
63,55,258052,3067
51,41,260954,3237
58,41,261039,3152
65,55,261124,3067
53,41,264026,3237
58,41,264111,80
67,55,264196,3067
53,41,267140,123
68,54,267268,1045
58,55,267268,3067
67,50,268314,1015
63,52,269330,1005
49,41,270170,3237
56,41,270255,3152
63,68,270340,3067
51,54,273242,3237
58,54,273327,3152
65,68,273412,3067
48,54,276292,3259
53,54,276356,3195
58,54,276420,59
60,68,276484,3067
48,54,279386,165
53,54,279471,80
56,67,279556,1554
60,68,279556,3067
55,62,281111,1512
49,54,282458,3237
56,54,282543,3152
63,68,282628,3067
51,54,285530,3237
58,54,285615,3152
65,68,285700,3067
53,54,288602,3237
58,54,288687,80
67,68,288772,3067
53,54,291716,123
68,67,291844,1045
58,68,291844,3067
67,62,292890,1015
63,81,293906,1005
37,97,294916,509
49,112,294916,539
49,93,295456,505
53,93,295456,475
56,107,295456,505
37,93,295962,478
49,108,295962,508
49,93,296471,506
53,93,296471,476
56,107,296471,506
37,95,296978,470
49,110,296978,500
49,93,297479,474
53,93,297479,474
56,107,297479,504
39,97,297988,509
51,112,297988,539
51,93,298528,505
55,93,298528,475
58,107,298528,505
39,93,299034,478
51,108,299034,508
51,93,299543,506
55,93,299543,476
58,107,299543,506
39,95,300050,470
51,110,300050,500
51,93,300551,474
55,93,300551,474
58,107,300551,504
36,96,301060,509
48,112,301060,539
51,93,301600,475
55,93,301600,475
58,107,301600,505
36,92,302106,478
48,108,302106,508
51,93,302615,476
55,93,302615,476
58,107,302615,506
36,94,303122,470
48,110,303122,500
51,93,303623,474
55,93,303623,474
58,107,303623,504
41,98,304132,509
53,112,304132,539
53,93,304672,505
56,93,304672,475
60,107,304672,505
41,94,305178,478
53,108,305178,508
53,93,305687,476
56,93,305687,476
60,107,305687,506
39,95,306194,470
51,110,306194,500
51,93,306695,474
55,93,306695,474
58,107,306695,504
37,97,307204,509
49,112,307204,539
49,93,307744,505
53,93,307744,475
56,107,307744,505
37,93,308250,478
49,108,308250,508
49,93,308759,506
53,93,308759,476
56,107,308759,506
37,95,309266,470
49,110,309266,500
49,93,309767,474
53,93,309767,474
56,107,309767,504
39,97,310276,509
51,112,310276,539
51,93,310816,505
55,93,310816,475
58,107,310816,505
39,93,311322,478
51,108,311322,508
51,93,311831,506
55,93,311831,476
58,107,311831,506
39,95,312338,470
51,110,312338,500
51,93,312839,474
55,93,312839,474
58,107,312839,504
36,96,313348,509
48,112,313348,539
51,93,313888,475
55,93,313888,475
58,107,313888,505
36,92,314394,478
48,108,314394,508
51,93,314903,476
55,93,314903,476
58,107,314903,506
36,94,315410,470
48,110,315410,500
51,93,315911,474
55,93,315911,474
58,107,315911,504
41,98,316420,509
53,112,316420,539
53,93,316960,505
57,93,316960,475
60,107,316960,505
41,94,317466,478
53,108,317466,508
53,93,317975,476
57,93,317975,476
60,107,317975,506
39,95,318482,470
51,110,318482,500
51,93,318983,474
55,93,318983,474
58,107,318983,504
37,97,319492,509
49,112,319492,539
49,93,320032,505
53,93,320032,475
56,107,320032,505
37,93,320538,478
49,108,320538,508
49,93,321047,506
53,93,321047,476
56,107,321047,506
37,95,321554,470
49,110,321554,500
49,93,322055,474
53,93,322055,474
56,107,322055,504
39,97,322564,509
51,112,322564,539
51,93,323104,505
55,93,323104,475
58,107,323104,505
39,93,323610,478
51,108,323610,508
51,93,324119,506
55,93,324119,476
58,107,324119,506
39,95,324626,470
51,110,324626,500
51,93,325127,474
55,93,325127,474
58,107,325127,504
36,96,325636,509
48,112,325636,539
51,93,326176,475
55,93,326176,475
58,107,326176,505
36,92,326682,478
48,108,326682,508
51,93,327191,476
55,93,327191,476
58,107,327191,506
36,94,327698,470
48,110,327698,500
51,93,328199,474
55,93,328199,474
58,107,328199,504
41,98,328708,509
53,112,328708,539
53,93,329248,505
56,93,329248,475
60,107,329248,505
41,94,329754,478
53,108,329754,508
53,93,330263,476
56,93,330263,476
60,107,330263,506
39,95,330770,470
51,110,330770,500
51,93,331271,474
55,93,331271,474
58,107,331271,504
37,97,331780,509
49,112,331780,539
49,93,332320,505
53,93,332320,475
56,107,332320,505
37,93,332826,478
49,108,332826,508
49,93,333335,506
53,93,333335,476
56,107,333335,506
37,95,333842,470
49,110,333842,500
49,93,334343,474
53,93,334343,474
56,107,334343,504
39,97,334852,509
51,112,334852,539
51,93,335392,505
55,93,335392,475
58,107,335392,505
39,93,335898,478
51,108,335898,508
51,93,336407,506
55,93,336407,476
58,107,336407,506
39,95,336914,470
51,110,336914,500
51,93,337415,474
55,93,337415,474
58,107,337415,504
36,96,337924,509
48,112,337924,539
51,93,338464,475
55,93,338464,475
58,107,338464,505
36,92,338970,478
48,108,338970,508
51,93,339479,476
55,93,339479,476
58,107,339479,506
36,94,339986,470
48,110,339986,500
51,93,340487,474
55,93,340487,474
58,107,340487,504
41,98,340996,509
53,112,340996,539
53,93,341536,505
57,93,341536,475
60,107,341536,505
41,94,342042,478
53,108,342042,508
53,93,342551,476
57,93,342551,476
60,107,342551,506
39,95,343058,470
51,110,343058,500
51,93,343559,474
55,93,343559,474
58,107,343559,504
37,97,344068,509
49,112,344068,539
49,93,344608,505
53,93,344608,475
56,107,344608,505
37,93,345114,478
49,108,345114,508
49,93,345623,506
53,93,345623,476
56,107,345623,506
37,95,346130,470
49,110,346130,500
49,93,346631,474
53,93,346631,474
56,107,346631,504
39,97,347140,509
51,112,347140,539
51,93,347680,505
55,93,347680,475
58,107,347680,505
39,93,348186,478
51,108,348186,508
51,93,348695,506
55,93,348695,476
58,107,348695,506
39,95,349202,470
51,110,349202,500
51,93,349703,474
55,93,349703,474
58,107,349703,504
36,96,350212,509
48,112,350212,539
51,93,350752,475
55,93,350752,475
58,107,350752,505
36,92,351258,478
48,108,351258,508
51,93,351767,476
55,93,351767,476
58,107,351767,506
36,94,352274,470
48,110,352274,500
51,93,352775,474
55,93,352775,474
58,107,352775,504
41,98,353284,509
53,112,353284,539
53,93,353824,505
56,93,353824,475
60,107,353824,505
41,94,354330,478
53,108,354330,508
53,93,354839,476
56,93,354839,476
60,107,354839,506
39,95,355346,470
51,110,355346,500
51,93,355847,474
55,93,355847,474
58,107,355847,504
37,97,356356,509
49,112,356356,539
49,93,356896,505
53,93,356896,475
56,107,356896,505
37,93,357402,478
49,108,357402,508
49,93,357911,506
53,93,357911,476
56,107,357911,506
37,95,358418,470
49,110,358418,500
49,93,358919,474
53,93,358919,474
56,107,358919,504
39,97,359428,509
51,112,359428,539
51,93,359968,505
55,93,359968,475
58,107,359968,505
39,93,360474,478
51,108,360474,508
51,93,360983,506
55,93,360983,476
58,107,360983,506
39,95,361490,470
51,110,361490,500
51,93,361991,474
55,93,361991,474
58,107,361991,504
36,96,362500,509
48,112,362500,539
51,93,363040,475
55,93,363040,475
58,107,363040,505
36,92,363546,478
48,108,363546,508
51,93,364055,476
55,93,364055,476
58,107,364055,506
36,94,364562,470
48,110,364562,500
51,93,365063,474
55,93,365063,474
58,107,365063,504
41,98,365572,509
53,112,365572,539
53,93,366112,505
57,93,366112,475
60,107,366112,505
41,94,366618,478
53,108,366618,508
53,93,367127,476
57,93,367127,476
60,107,367127,506
39,95,367634,470
51,110,367634,500
51,93,368135,474
55,93,368135,474
58,107,368135,504
37,97,368644,509
49,112,368644,539
49,93,369184,505
53,93,369184,475
56,107,369184,505
37,93,369690,478
49,108,369690,508
49,93,370199,506
53,93,370199,476
56,107,370199,506
37,95,370706,470
49,110,370706,500
49,93,371207,474
53,93,371207,474
56,107,371207,504
39,97,371716,509
51,112,371716,539
51,93,372256,505
55,93,372256,475
58,107,372256,505
39,93,372762,478
51,108,372762,508
51,93,373271,506
55,93,373271,476
58,107,373271,506
39,95,373778,470
51,110,373778,500
51,93,374279,474
55,93,374279,474
58,107,374279,504
36,96,374788,509
48,112,374788,539
51,93,375328,475
55,93,375328,475
58,107,375328,505
36,92,375834,478
48,108,375834,508
51,93,376343,476
55,93,376343,476
58,107,376343,506
36,94,376850,470
48,110,376850,500
51,93,377351,474
55,93,377351,474
58,107,377351,504
41,98,377860,509
53,112,377860,539
53,93,378400,505
56,93,378400,475
60,107,378400,505
41,94,378906,478
53,108,378906,508
53,93,379415,476
56,93,379415,476
60,107,379415,506
39,95,379922,470
51,110,379922,500
51,93,380423,474
55,93,380423,474
58,107,380423,504
37,97,380932,509
49,112,380932,539
49,93,381472,505
53,93,381472,475
56,107,381472,505
37,93,381978,478
49,108,381978,508
49,93,382487,506
53,93,382487,476
56,107,382487,506
37,95,382994,470
49,110,382994,500
49,93,383495,474
53,93,383495,474
56,107,383495,504
39,97,384004,509
51,112,384004,539
51,93,384544,505
55,93,384544,475
58,107,384544,505
39,93,385050,478
51,108,385050,508
51,93,385559,506
55,93,385559,476
58,107,385559,506
39,95,386066,470
51,110,386066,500
51,93,386567,474
55,93,386567,474
58,107,386567,504
36,96,387076,509
48,112,387076,539
51,93,387616,475
55,93,387616,475
58,107,387616,505
36,92,388122,478
48,108,388122,508
51,93,388631,476
55,93,388631,476
58,107,388631,506
36,94,389138,470
48,110,389138,500
51,93,389639,474
55,93,389639,474
58,107,389639,504
41,98,390148,509
53,112,390148,539
53,93,390688,505
57,93,390688,475
60,107,390688,505
41,94,391194,478
53,108,391194,508
53,93,391703,476
57,93,391703,476
60,107,391703,506
39,95,392210,470
51,110,392210,500
51,93,392711,474
55,93,392711,474
58,107,392711,474
48,54,409604,8187
53,64,409604,8187
41,62,409604,4091
41,62,413700,3079
39,62,416780,1011
48,54,417796,4092
53,64,417796,4092
41,62,417796,4091
37,66,421892,541
37,68,422434,233
39,74,422683,516
39,86,423200,231
46,91,423447,479
41,93,425988,292
41,88,426281,233
36,86,426530,248
36,86,426779,243
41,89,427038,257
41,88,427296,231
36,86,427543,232
41,88,427791,246
36,86,428316,231
39,87,428563,232
41,88,428811,241
44,89,429068,241
43,88,429325,232
41,88,429573,232
39,87,429821,243
37,92,430084,292
37,87,430377,233
32,85,430626,248
32,85,430875,243
37,88,431134,257
37,87,431392,231
32,85,431639,232
39,87,431887,246
34,86,432412,231
39,87,432659,232
41,88,432907,241
44,89,433164,241
43,88,433421,232
41,88,433669,232
39,87,433917,243
41,93,434180,292
41,88,434473,233
36,86,434722,248
36,86,434971,243
41,89,435230,257
41,88,435488,231
36,86,435735,232
41,88,435983,246
36,86,436508,231
39,87,436755,232
41,88,437003,241
44,89,437260,241
43,88,437517,232
41,88,437765,232
39,87,438013,243
37,92,438276,277
37,87,438818,233
32,85,439067,243
32,85,439584,231
37,87,439831,232
39,87,440079,246
36,86,440604,231
39,87,440851,232
41,88,441099,241
44,89,441356,241
43,88,441613,232
41,88,441861,232
39,87,442109,243
41,93,442372,292
41,88,442665,233
36,86,442914,248
36,86,443163,243
41,89,443422,257
41,88,443680,231
36,86,443927,232
41,88,444175,246
36,86,444700,231
39,87,444947,232
41,88,445195,241
44,89,445452,241
43,88,445709,232
41,88,445957,232
39,87,446205,243
37,92,446468,292
37,87,446761,233
32,85,447010,248
32,85,447259,243
37,88,447518,257
37,87,447776,231
32,85,448023,232
39,87,448271,246
34,86,448796,231
39,87,449043,232
41,88,449291,241
44,89,449548,241
43,88,449805,232
41,88,450053,232
39,87,450301,243
41,93,450564,292
41,88,450857,233
36,86,451106,248
36,86,451355,243
41,89,451614,257
41,88,451872,231
36,86,452119,232
41,88,452367,246
36,86,452892,231
39,87,453139,232
41,88,453387,241
44,89,453644,241
43,88,453901,232
41,88,454149,232
39,87,454397,243
37,92,454660,277
37,87,455202,233
32,85,455451,243
32,85,455968,231
37,87,456215,232
39,87,456463,246
36,86,456988,231
39,87,457235,232
41,88,457483,241
44,89,457740,241
43,88,457997,232
41,88,458245,232
39,87,458493,243
51,88,458756,8187
41,93,458756,292
41,88,459049,233
36,86,459298,248
36,86,459547,243
41,89,459806,257
41,88,460064,231
36,86,460311,232
41,88,460559,246
36,86,461084,231
39,87,461331,232
41,88,461579,241
44,89,461836,241
43,88,462093,232
41,88,462341,232
39,87,462589,243
37,92,462852,292
37,87,463145,233
32,85,463394,248
32,85,463643,243
37,88,463902,257
37,87,464160,231
32,85,464407,232
39,87,464655,246
34,86,465180,231
39,87,465427,232
41,88,465675,241
44,89,465932,241
43,88,466189,232
41,88,466437,232
39,87,466685,243
46,88,466948,8187
41,93,466948,292
41,88,467241,233
36,86,467490,248
36,86,467739,243
41,89,467998,257
41,88,468256,231
36,86,468503,232
41,88,468751,246
36,86,469276,231
39,87,469523,232
41,88,469771,241
44,89,470028,241
43,88,470285,232
41,88,470533,232
39,87,470781,243
37,92,471044,277
37,87,471586,233
32,85,471835,243
32,85,472352,231
37,87,472599,232
39,87,472847,246
36,86,473372,231
39,87,473619,232
41,88,473867,241
44,89,474124,241
43,88,474381,232
41,88,474629,232
39,87,474877,243
51,88,475140,8187
41,93,475140,292
41,88,475433,233
36,86,475682,248
36,86,475931,243
41,89,476190,257
41,88,476448,231
36,86,476695,232
41,88,476943,246
36,86,477468,231
39,87,477715,232
41,88,477963,241
44,89,478220,241
43,88,478477,232
41,88,478725,232
39,87,478973,243
37,92,479236,292
37,87,479529,233
32,85,479778,248
32,85,480027,243
37,88,480286,257
37,87,480544,231
32,85,480791,232
39,87,481039,246
34,86,481564,231
39,87,481811,232
41,88,482059,241
44,89,482316,241
43,88,482573,232
41,88,482821,232
39,87,483069,243
46,88,483332,8187
41,93,483332,292
41,88,483625,233
36,86,483874,248
36,86,484123,243
41,89,484382,257
41,88,484640,231
36,86,484887,232
41,88,485135,246
36,86,485660,231
39,87,485907,232
41,88,486155,241
44,89,486412,241
43,88,486669,232
41,88,486917,232
39,87,487165,243
37,92,487428,277
37,87,487970,233
32,85,488219,243
32,85,488736,231
37,87,488983,232
39,87,489231,246
36,86,489756,231
39,87,490003,232
41,88,490251,241
44,89,490508,241
43,88,490765,232
41,88,491013,232
39,87,491261,243
53,75,491524,4091
41,99,491524,285
48,75,492066,233
41,94,492315,243
41,94,493079,479
41,94,493852,276
39,74,494099,277
41,75,494347,256
41,70,494604,284
39,93,495109,476
49,80,495620,2064
41,99,495620,285
48,75,496162,233
41,94,496411,243
41,94,497175,479
51,78,497685,2026
41,94,497948,276
39,74,498195,277
41,75,498443,256
41,70,498700,284
39,93,499205,476
53,75,499716,8187
41,99,499716,285
48,75,500258,233
41,94,500507,243
41,94,501271,479
41,94,502044,276
39,74,502291,277
41,75,502539,256
41,70,502796,284
39,93,503301,476
41,99,503812,285
48,75,504354,233
41,94,504603,243
41,94,505367,479
41,94,506140,276
39,74,506387,277
41,75,506635,256
41,70,506892,284
39,93,507397,476
53,75,507908,4091
41,99,507908,285
48,75,508450,233
41,94,508699,243
41,94,509463,479
41,94,510236,276
39,74,510483,277
41,75,510731,256
41,70,510988,284
39,93,511493,476
49,80,512004,2064
41,99,512004,285
48,75,512546,233
41,94,512795,243
41,94,513559,479
51,78,514069,2026
41,94,514332,276
39,74,514579,277
41,75,514827,256
41,70,515084,284
39,93,515589,476
53,75,516100,8187
41,99,516100,285
48,75,516642,233
41,94,516891,243
41,94,517655,479
41,94,518428,276
39,74,518675,277
41,75,518923,256
41,70,519180,284
39,93,519685,476
41,99,520196,285
48,75,520738,233
41,94,520987,243
41,94,521751,479
41,94,522524,276
39,74,522771,277
41,75,523019,256
41,70,523276,284
39,93,523781,476
53,75,524292,4091
41,99,524292,285
48,75,524834,233
41,94,525083,243
41,94,525847,479
41,94,526620,276
39,74,526867,277
41,75,527115,256
41,70,527372,284
39,93,527877,476
49,80,528388,2064
41,99,528388,285
48,75,528930,233
41,94,529179,243
41,94,529943,479
51,78,530453,2026
41,94,530716,276
39,74,530963,277
41,75,531211,256
41,70,531468,284
39,93,531973,476
53,75,532484,8187
41,99,532484,285
48,75,533026,233
41,94,533275,243
41,94,534039,479
41,94,534812,276
39,74,535059,277
41,75,535307,256
41,70,535564,284
39,93,536069,476
41,99,536580,285
48,75,537122,233
41,94,537371,243
41,94,538135,479
41,94,538908,276
39,74,539155,277
41,75,539403,256
41,70,539660,284
39,93,540165,476
53,75,540676,4091
41,99,540676,285
48,75,541218,233
41,94,541467,243
41,94,542231,479
41,94,543004,276
39,74,543251,277
41,75,543499,256
41,70,543756,284
39,93,544261,476
49,80,544772,2064
41,99,544772,285
48,75,545314,233
41,94,545563,243
41,94,546327,479
51,78,546837,2026
41,94,547100,276
39,74,547347,277
41,75,547595,256
41,70,547852,284
39,93,548357,476
53,75,548868,4092
41,99,548868,285
48,75,549410,233
41,94,549659,243
41,94,550423,479
41,94,551196,276
39,74,551443,277
41,75,551691,256
41,70,551948,284
39,93,552453,476
53,80,552964,1787
41,99,552964,285
48,75,553506,233
41,94,553755,243
41,69,554519,232
51,66,554767,741
39,84,554767,2288
53,58,555539,746
55,75,556301,754
49,67,556890,3237
56,67,556975,3152
63,55,557060,3067
51,41,559962,3237
58,41,560047,3152
65,55,560132,3067
48,41,563012,3259
53,41,563076,3195
58,41,563140,59
60,55,563204,3067
48,41,566106,165
53,41,566191,80
56,54,566276,1554
60,55,566276,3067
55,49,567831,1512
49,41,569178,3237
56,41,569263,3152
63,55,569348,3067
51,41,572250,3237
58,41,572335,3152
65,55,572420,3067
53,41,575322,3237
58,41,575407,80
67,55,575492,3067
53,41,578436,123
68,54,578564,1045
58,55,578564,3067
67,50,579610,1015
63,52,580626,1005
49,41,581466,3237
56,41,581551,3152
63,68,581636,3067
51,54,584538,3237
58,54,584623,3152
65,68,584708,3067
48,54,587588,3259
53,54,587652,3195
58,54,587716,59
60,68,587780,3067
48,54,590682,165
53,54,590767,80
56,67,590852,1554
60,68,590852,3067
55,62,592407,1512
49,54,593754,3237
56,54,593839,3152
63,68,593924,3067
51,54,596826,3237
58,54,596911,3152
65,68,596996,3067
53,54,599898,3237
58,54,599983,80
67,68,600068,3067
53,54,603012,123
68,67,603140,1045
58,68,603140,3067
67,62,604186,1015
63,81,605202,1005
37,97,606212,509
49,112,606212,539
49,93,606752,505
53,93,606752,475
56,107,606752,505
37,93,607258,478
49,108,607258,508
49,93,607767,506
53,93,607767,476
56,107,607767,506
37,95,608274,470
49,110,608274,500
49,93,608775,474
53,93,608775,474
56,107,608775,504
39,97,609284,509
51,112,609284,539
51,93,609824,505
55,93,609824,475
58,107,609824,505
39,93,610330,478
51,108,610330,508
51,93,610839,506
55,93,610839,476
58,107,610839,506
39,95,611346,470
51,110,611346,500
51,93,611847,474
55,93,611847,474
58,107,611847,504
36,96,612356,509
48,112,612356,539
51,93,612896,475
55,93,612896,475
58,107,612896,505
36,92,613402,478
48,108,613402,508
51,93,613911,476
55,93,613911,476
58,107,613911,506
36,94,614418,470
48,110,614418,500
51,93,614919,474
55,93,614919,474
58,107,614919,504
41,98,615428,509
53,112,615428,539
53,93,615968,505
56,93,615968,475
60,107,615968,505
41,94,616474,478
53,108,616474,508
53,93,616983,476
56,93,616983,476
60,107,616983,506
39,95,617490,470
51,110,617490,500
51,93,617991,474
55,93,617991,474
58,107,617991,504
37,97,618500,509
49,112,618500,539
49,93,619040,505
53,93,619040,475
56,107,619040,505
37,93,619546,478
49,108,619546,508
49,93,620055,506
53,93,620055,476
56,107,620055,506
37,95,620562,470
49,110,620562,500
49,93,621063,474
53,93,621063,474
56,107,621063,504
39,97,621572,509
51,112,621572,539
51,93,622112,505
55,93,622112,475
58,107,622112,505
39,93,622618,478
51,108,622618,508
51,93,623127,506
55,93,623127,476
58,107,623127,506
39,95,623634,470
51,110,623634,500
51,93,624135,474
55,93,624135,474
58,107,624135,504
36,96,624644,509
48,112,624644,539
51,93,625184,475
55,93,625184,475
58,107,625184,505
36,92,625690,478
48,108,625690,508
51,93,626199,476
55,93,626199,476
58,107,626199,506
36,94,626706,470
48,110,626706,500
51,93,627207,474
55,93,627207,474
58,107,627207,504
41,98,627716,509
53,112,627716,539
53,93,628256,505
57,93,628256,475
60,107,628256,505
41,94,628762,478
53,108,628762,508
53,93,629271,476
57,93,629271,476
60,107,629271,506
39,95,629778,470
51,110,629778,500
51,93,630279,474
55,93,630279,474
58,107,630279,504
37,97,630788,509
49,112,630788,539
49,93,631328,505
53,93,631328,475
56,107,631328,505
37,93,631834,478
49,108,631834,508
49,93,632343,506
53,93,632343,476
56,107,632343,506
37,95,632850,470
49,110,632850,500
49,93,633351,474
53,93,633351,474
56,107,633351,504
39,97,633860,509
51,112,633860,539
51,93,634400,505
55,93,634400,475
58,107,634400,505
39,93,634906,478
51,108,634906,508
51,93,635415,506
55,93,635415,476
58,107,635415,506
39,95,635922,470
51,110,635922,500
51,93,636423,474
55,93,636423,474
58,107,636423,504
36,96,636932,509
48,112,636932,539
51,93,637472,475
55,93,637472,475
58,107,637472,505
36,92,637978,478
48,108,637978,508
51,93,638487,476
55,93,638487,476
58,107,638487,506
36,94,638994,470
48,110,638994,500
51,93,639495,474
55,93,639495,474
58,107,639495,504
41,98,640004,509
53,112,640004,539
53,93,640544,505
56,93,640544,475
60,107,640544,505
41,94,641050,478
53,108,641050,508
53,93,641559,476
56,93,641559,476
60,107,641559,506
39,95,642066,470
51,110,642066,500
51,93,642567,474
55,93,642567,474
58,107,642567,504
37,97,643076,509
49,112,643076,539
49,93,643616,505
53,93,643616,475
56,107,643616,505
37,93,644122,478
49,108,644122,508
49,93,644631,506
53,93,644631,476
56,107,644631,506
37,95,645138,470
49,110,645138,500
49,93,645639,474
53,93,645639,474
56,107,645639,504
39,97,646148,509
51,112,646148,539
51,93,646688,505
55,93,646688,475
58,107,646688,505
39,93,647194,478
51,108,647194,508
51,93,647703,506
55,93,647703,476
58,107,647703,506
39,95,648210,470
51,110,648210,500
51,93,648711,474
55,93,648711,474
58,107,648711,504
36,96,649220,509
48,112,649220,539
51,93,649760,475
55,93,649760,475
58,107,649760,505
36,92,650266,478
48,108,650266,508
51,93,650775,476
55,93,650775,476
58,107,650775,506
36,94,651282,470
48,110,651282,500
51,93,651783,474
55,93,651783,474
58,107,651783,504
41,98,652292,509
53,112,652292,539
53,93,652832,505
57,93,652832,475
60,107,652832,505
41,94,653338,478
53,108,653338,508
53,93,653847,476
57,93,653847,476
60,107,653847,506
39,95,654354,470
51,110,654354,500
51,93,654855,474
55,93,654855,474
58,107,654855,504
37,97,655364,509
49,112,655364,539
49,93,655904,505
53,93,655904,475
56,107,655904,505
37,93,656410,478
49,108,656410,508
49,93,656919,506
53,93,656919,476
56,107,656919,506
37,95,657426,470
49,110,657426,500
49,93,657927,474
53,93,657927,474
56,107,657927,504
39,97,658436,509
51,112,658436,539
51,93,658976,505
55,93,658976,475
58,107,658976,505
39,93,659482,478
51,108,659482,508
51,93,659991,506
55,93,659991,476
58,107,659991,506
39,95,660498,470
51,110,660498,500
51,93,660999,474
55,93,660999,474
58,107,660999,504
36,96,661508,509
48,112,661508,539
51,93,662048,475
55,93,662048,475
58,107,662048,505
36,92,662554,478
48,108,662554,508
51,93,663063,476
55,93,663063,476
58,107,663063,506
36,94,663570,470
48,110,663570,500
51,93,664071,474
55,93,664071,474
58,107,664071,504
41,98,664580,509
53,112,664580,539
53,93,665120,505
56,93,665120,475
60,107,665120,505
41,94,665626,478
53,108,665626,508
53,93,666135,476
56,93,666135,476
60,107,666135,506
39,95,666642,470
51,110,666642,500
51,93,667143,474
55,93,667143,474
58,107,667143,504
37,97,667652,509
49,112,667652,539
49,93,668192,505
53,93,668192,475
56,107,668192,505
37,93,668698,478
49,108,668698,508
49,93,669207,506
53,93,669207,476
56,107,669207,506
37,95,669714,470
49,110,669714,500
49,93,670215,474
53,93,670215,474
56,107,670215,504
39,97,670724,509
51,112,670724,539
51,93,671264,505
55,93,671264,475
58,107,671264,505
39,93,671770,478
51,108,671770,508
51,93,672279,506
55,93,672279,476
58,107,672279,506
39,95,672786,470
51,110,672786,500
51,93,673287,474
55,93,673287,474
58,107,673287,504
36,96,673796,509
48,112,673796,539
51,93,674336,475
55,93,674336,475
58,107,674336,505
36,92,674842,478
48,108,674842,508
51,93,675351,476
55,93,675351,476
58,107,675351,506
36,94,675858,470
48,110,675858,500
51,93,676359,474
55,93,676359,474
58,107,676359,504
41,98,676868,509
53,112,676868,539
53,93,677408,505
57,93,677408,475
60,107,677408,505
41,94,677914,478
53,108,677914,508
53,93,678423,476
57,93,678423,476
60,107,678423,506
39,95,678930,470
51,110,678930,500
51,93,679431,474
55,93,679431,474
58,107,679431,504
37,97,679940,509
49,112,679940,539
49,93,680480,505
53,93,680480,475
56,107,680480,505
37,93,680986,478
49,108,680986,508
49,93,681495,506
53,93,681495,476
56,107,681495,506
37,95,682002,470
49,110,682002,500
49,93,682503,474
53,93,682503,474
56,107,682503,504
39,97,683012,509
51,112,683012,539
51,93,683552,505
55,93,683552,475
58,107,683552,505
39,93,684058,478
51,108,684058,508
51,93,684567,506
55,93,684567,476
58,107,684567,506
39,95,685074,470
51,110,685074,500
51,93,685575,474
55,93,685575,474
58,107,685575,504
36,96,686084,509
48,112,686084,539
51,93,686624,475
55,93,686624,475
58,107,686624,505
36,92,687130,478
48,108,687130,508
51,93,687639,476
55,93,687639,476
58,107,687639,506
36,94,688146,470
48,110,688146,500
51,93,688647,474
55,93,688647,474
58,107,688647,504
41,98,689156,509
53,112,689156,539
53,93,689696,505
56,93,689696,475
60,107,689696,505
41,94,690202,478
53,108,690202,508
53,93,690711,476
56,93,690711,476
60,107,690711,506
39,95,691218,470
51,110,691218,500
51,93,691719,474
55,93,691719,474
58,107,691719,504
37,97,692228,509
49,112,692228,539
49,93,692768,505
53,93,692768,475
56,107,692768,505
37,93,693274,478
49,108,693274,508
49,93,693783,506
53,93,693783,476
56,107,693783,506
37,95,694290,470
49,110,694290,500
49,93,694791,474
53,93,694791,474
56,107,694791,504
39,97,695300,509
51,112,695300,539
51,93,695840,505
55,93,695840,475
58,107,695840,505
39,93,696346,478
51,108,696346,508
51,93,696855,506
55,93,696855,476
58,107,696855,506
39,95,697362,470
51,110,697362,500
51,93,697863,474
55,93,697863,474
58,107,697863,504
36,96,698372,509
48,112,698372,539
51,93,698912,475
55,93,698912,475
58,107,698912,505
36,92,699418,478
48,108,699418,508
51,93,699927,476
55,93,699927,476
58,107,699927,506
36,94,700434,470
48,110,700434,500
51,93,700935,474
55,93,700935,474
58,107,700935,504
41,98,701444,509
53,112,701444,539
53,93,701984,505
57,93,701984,475
60,107,701984,505
41,94,702490,478
53,108,702490,508
53,93,702999,476
57,93,702999,476
60,107,702999,506
39,95,703506,470
51,110,703506,500
51,93,704007,474
55,93,704007,474
58,107,704007,474
