note,velocity,position,duration
45,62,0,4096
52,62,717,306
57,63,1054,645
59,62,1730,989
52,62,2750,303
57,63,3084,645
59,62,3760,305
49,62,4096,4096
52,62,4813,306
57,63,5150,645
64,62,5826,989
52,62,6846,303
57,63,7180,645
59,62,7856,305
48,62,8192,8192
52,62,8909,306
57,63,9246,645
59,62,9922,989
52,62,10942,303
57,63,11276,645
59,62,11952,305
52,62,13005,306
57,63,13342,645
64,62,14018,2051
45,62,16384,4096
52,62,17101,306
57,63,17438,645
59,62,18114,989
52,62,19134,303
57,63,19468,645
59,62,20144,305
49,62,20480,4096
52,62,21197,306
57,63,21534,645
59,62,22210,989
52,62,23230,303
57,63,23564,645
59,62,24240,305
50,62,24576,8192
54,62,25293,306
57,63,25630,645
64,62,26306,989
54,62,27326,303
57,63,27660,645
59,62,28336,305
69,62,29389,306
68,63,29726,645
64,62,30402,989
57,62,31422,303
59,63,31756,645
57,62,32432,305
45,62,32768,4096
52,62,33485,306
57,63,33822,645
59,62,34498,989
52,62,35518,303
57,63,35852,645
59,62,36528,305
49,62,36864,4096
52,62,37581,306
57,63,37918,645
59,62,38594,989
52,62,39614,303
57,63,39948,645
59,62,40624,305
48,62,40960,4096
52,62,41677,306
57,63,42014,645
59,62,42690,989
64,62,43710,303
59,63,44044,645
57,62,44720,305
48,62,45056,1707
52,62,45773,306
57,63,46110,645
47,62,46763,2389
59,62,46786,989
64,62,47806,303
52,63,48140,645
57,62,48816,305
45,62,49152,4096
52,62,49869,306
57,63,50206,645
59,62,50882,989
52,62,51902,303
57,63,52236,645
64,62,52912,305
49,62,53248,4096
52,62,53965,306
57,63,54302,645
64,62,54978,989
62,62,55998,303
61,63,56332,645
57,62,57008,305
48,62,57344,4096
52,62,58061,306
57,63,58398,645
59,62,59074,989
52,62,60094,303
57,63,60428,645
59,62,61104,305
47,62,61440,1707
57,62,62157,306
59,63,62494,645
57,54,63000,2221
62,54,63085,2136
40,62,63147,2389
64,64,63170,2051
45,62,65536,4096
64,62,65540,1786
52,62,66253,306
57,63,66590,645
76,62,67266,2446
59,62,67266,989
57,62,68286,303
52,63,68620,1011
49,62,69632,4096
71,57,69636,4048
56,62,70349,306
59,63,70686,645
64,62,71362,989
59,62,72382,303
56,63,72716,1011
48,62,73728,4095
69,62,73732,1786
55,63,74782,645
76,62,75458,2446
60,62,75458,989
55,62,76478,303
48,63,76812,1011
47,62,77824,3729
64,57,77828,4091
54,62,78541,306
57,63,78878,645
59,62,79554,308
52,65,79893,650
40,61,80574,303
47,63,80908,645
52,62,81584,305
45,62,81920,4096
64,62,81924,2145
52,62,82637,306
57,63,82974,1014
69,62,83989,2107
59,65,83989,1014
52,63,85004,1011
64,62,86016,172
49,62,86016,4096
76,57,86170,1553
57,63,87070,645
78,62,87746,2322
59,62,87746,989
57,62,88766,303
59,63,89100,1011
48,62,90112,2048
76,62,90116,2145
55,63,91166,1014
47,62,92160,1707
71,62,92181,1751
54,65,92181,1014
59,63,93196,1011
45,62,93867,4437
69,62,93872,4388
52,62,94925,306
57,63,95262,645
61,62,95938,308
59,65,96277,650
57,62,96958,303
52,63,97292,1011
45,62,98304,4096
64,62,98308,1786
52,62,99021,306
57,63,99358,645
76,62,100034,2446
59,62,100034,989
57,62,101054,303
52,63,101388,1011
49,62,102400,4065
71,57,102404,4048
56,62,103117,306
59,63,103454,645
64,62,104130,989
59,62,105150,303
56,63,105484,645
49,62,106160,305
48,62,106496,3755
69,62,106500,1786
55,62,107213,306
60,63,107550,1695
76,62,108226,2090
60,62,109246,303
55,63,109580,1011
47,62,110251,4437
64,62,110256,3055
54,62,111309,306
59,63,111646,645
64,62,112322,989
40,61,113342,303
52,63,113676,1011
45,62,114688,4095
64,62,114692,2145
52,62,115405,306
57,63,115742,1665
69,62,116757,2107
52,62,117438,303
45,63,117772,1011
37,62,118784,4096
68,54,118788,2145
76,68,118788,2064
49,63,119838,1014
78,57,120853,1983
49,62,121856,172
37,56,122010,870
64,62,122624,128
69,62,122752,128
38,62,122880,2048
76,57,122884,2021
40,62,124928,1707
71,65,124949,1690
50,65,124949,2026
45,62,126635,4437
69,62,126640,4431
52,62,127693,306
57,63,128030,645
61,62,128706,308
59,65,129045,650
57,62,129726,303
52,63,130060,1011
64,62,131076,2145
50,67,131076,1049
57,63,132126,1014
76,62,133141,1054
50,65,133141,1014
73,62,134156,1051
57,63,134156,1011
71,62,135172,1089
50,67,135172,1049
69,62,136222,1054
57,63,136222,1014
68,62,137237,741
50,65,137237,650
69,62,137918,1385
57,62,137918,1345
71,57,139268,2021
49,67,139268,1049
57,63,140318,1014
80,62,141333,755
49,65,141333,1014
79,62,142008,760
57,63,142348,1011
78,62,142688,752
76,57,143364,4048
48,67,143364,1049
55,63,144414,1014
48,65,145429,650
55,62,146110,1345
66,62,147460,2145
47,67,147460,1049
54,63,148510,1014
76,62,149525,1054
47,65,149525,1014
73,62,150540,1051
54,63,150540,1011
71,62,151556,1089
52,67,151556,1049
69,62,152606,1054
59,63,152606,1014
71,62,153621,741
52,65,153621,650
73,62,154302,1302
59,62,154302,1345
68,62,155652,2145
53,67,155652,1049
59,63,156702,3041
71,62,157717,2026
54,59,159620,2192
71,62,159748,1089
61,73,159748,2064
69,62,160798,1054
68,62,161813,1054
52,57,161813,2026
59,71,161813,2026
69,57,162828,968
64,62,163844,2145
50,67,163844,1049
57,63,164894,1014
76,62,165909,1054
50,65,165909,1014
73,62,166924,1051
57,63,166924,1011
71,62,167940,1089
50,67,167940,1049
69,62,168990,1054
57,63,168990,1014
68,62,170005,741
50,65,170005,1014
69,62,170686,1049
57,63,171020,1011
71,62,171696,2361
49,67,172036,1049
57,63,173086,1014
80,62,174101,755
49,65,174101,1014
79,62,174776,760
57,63,175116,1011
78,62,175456,752
76,57,176132,4048
48,67,176132,1049
57,63,177182,1014
48,65,178197,650
57,62,178878,1345
47,54,180100,4219
66,62,180228,2145
57,68,180228,4091
76,62,182293,1054
73,62,183308,1051
52,54,184196,4219
71,62,184324,1089
59,68,184324,4091
69,62,185374,1054
71,62,186389,1054
73,57,187404,968
53,54,188292,4219
68,62,188420,2145
61,68,188420,4091
71,62,190485,2026
54,59,192388,2192
71,62,192516,1089
61,73,192516,2064
69,62,193566,1054
68,62,194581,1054
52,57,194581,2026
59,71,194581,2026
69,62,195596,1051
50,54,196484,6288
64,62,196612,6117
57,68,196612,6160
62,62,202773,1054
52,57,202773,2026
59,71,202773,2026
64,62,203788,1051
50,54,204676,6288
61,62,204804,6117
57,68,204804,6160
59,62,210965,1054
52,57,210965,2026
56,71,210965,2026
61,62,211980,1051
50,54,212868,4219
57,57,212996,4091
54,68,212996,4091
57,62,217092,4091
49,54,217092,4091
52,68,217092,4091
57,62,221188,3079
48,54,221188,3079
55,68,221188,3079
57,63,224268,2065
47,55,224268,2065
54,69,224268,2065
40,62,226304,3072
52,68,226312,2668
57,62,226334,2646
52,63,226384,2596
45,62,229376,4096
52,62,230093,306
57,63,230430,645
59,62,231106,989
52,62,232126,303
57,63,232460,645
59,62,233136,305
49,62,233472,4096
52,62,234189,306
57,63,234526,645
64,62,235202,989
52,62,236222,303
57,63,236556,645
59,62,237232,305
48,62,237568,8192
52,62,238285,306
57,63,238622,645
59,62,239298,989
52,62,240318,303
57,63,240652,645
59,62,241328,305
52,62,242381,306
57,63,242718,645
64,62,243394,2051
45,62,245760,4096
52,62,246477,306
57,63,246814,645
59,62,247490,989
52,62,248510,303
57,63,248844,645
59,62,249520,305
49,62,249856,4096
52,62,250573,306
57,63,250910,645
59,62,251586,989
52,62,252606,303
57,63,252940,645
59,62,253616,305
50,62,253952,8192
54,62,254669,306
57,63,255006,645
64,62,255682,989
54,62,256702,303
57,63,257036,645
59,62,257712,305
69,62,258765,306
68,63,259102,645
64,62,259778,989
57,62,260798,303
59,63,261132,645
57,62,261808,305
45,62,262144,4096
52,62,262861,306
57,63,263198,645
59,62,263874,989
52,62,264894,303
57,63,265228,645
59,62,265904,305
49,62,266240,4096
52,62,266957,306
57,63,267294,645
59,62,267970,989
52,62,268990,303
57,63,269324,645
59,62,270000,305
48,62,270336,4096
52,62,271053,306
57,63,271390,645
59,62,272066,989
64,62,273086,303
59,63,273420,645
57,62,274096,305
48,62,274432,1707
52,62,275149,306
57,63,275486,645
47,62,276139,2389
59,62,276162,989
64,62,277182,303
52,63,277516,645
57,62,278192,305
45,62,278528,4096
52,62,279245,306
57,63,279582,645
59,62,280258,989
52,62,281278,303
57,63,281612,645
64,62,282288,305
49,62,282624,4096
52,62,283341,306
57,63,283678,645
64,62,284354,989
62,62,285374,303
61,63,285708,645
57,62,286384,305
48,62,286720,4096
52,62,287437,306
57,63,287774,645
59,62,288450,989
52,62,289470,303
57,63,289804,645
59,62,290480,305
47,62,290816,1707
57,62,291533,306
59,63,291870,645
57,54,292376,2221
62,54,292461,2136
40,62,292523,2389
64,64,292546,2051
45,62,294912,4096
64,62,294916,1786
52,62,295629,306
57,63,295966,645
76,62,296642,2446
59,62,296642,989
57,62,297662,303
52,63,297996,1011
49,62,299008,4096
71,57,299012,4048
56,62,299725,306
59,63,300062,645
64,62,300738,989
59,62,301758,303
56,63,302092,1011
48,62,303104,4095
69,62,303108,1786
55,63,304158,645
76,62,304834,2446
60,62,304834,989
55,62,305854,303
48,63,306188,1011
47,62,307200,3729
64,57,307204,4091
54,62,307917,306
57,63,308254,645
59,62,308930,308
52,65,309269,650
40,61,309950,303
47,63,310284,645
52,62,310960,305
45,62,311296,4096
64,62,311300,2145
52,62,312013,306
57,63,312350,1014
69,62,313365,2107
59,65,313365,1014
52,63,314380,1011
64,62,315392,172
49,62,315392,4096
76,57,315546,1553
57,63,316446,645
78,62,317122,2322
59,62,317122,989
57,62,318142,303
59,63,318476,1011
48,62,319488,2048
76,62,319492,2145
55,63,320542,1014
47,62,321536,1707
71,62,321557,1751
54,65,321557,1014
59,63,322572,1011
45,62,323243,4437
69,62,323248,4388
52,62,324301,306
57,63,324638,645
61,62,325314,308
59,65,325653,650
57,62,326334,303
52,63,326668,1011
45,62,327680,4096
64,62,327684,1786
52,62,328397,306
57,63,328734,645
76,62,329410,2446
59,62,329410,989
57,62,330430,303
52,63,330764,1011
49,62,331776,4065
71,57,331780,4048
56,62,332493,306
59,63,332830,645
64,62,333506,989
59,62,334526,303
56,63,334860,645
49,62,335536,305
48,62,335872,3755
69,62,335876,1786
55,62,336589,306
60,63,336926,1695
76,62,337602,2090
60,62,338622,303
55,63,338956,1011
47,62,339627,4437
64,62,339632,3055
54,62,340685,306
59,63,341022,645
64,62,341698,989
40,61,342718,303
52,63,343052,1011
45,62,344064,4095
64,62,344068,2145
52,62,344781,306
57,63,345118,1665
69,62,346133,2107
52,62,346814,303
45,63,347148,1011
37,62,348160,4096
68,54,348164,2145
76,68,348164,2064
49,63,349214,1014
78,57,350229,1983
49,62,351232,172
37,56,351386,870
64,62,352000,128
69,62,352128,128
38,62,352256,2048
76,57,352260,2021
40,62,354304,1707
71,65,354325,1690
50,65,354325,2026
45,62,356011,4437
69,62,356016,4431
52,62,357069,306
57,63,357406,645
61,62,358082,308
59,65,358421,650
57,62,359102,303
52,63,359436,1011
64,62,360452,2145
50,67,360452,1049
57,63,361502,1014
76,62,362517,1054
50,65,362517,1014
73,62,363532,1051
57,63,363532,1011
71,62,364548,1089
50,67,364548,1049
69,62,365598,1054
57,63,365598,1014
68,62,366613,741
50,65,366613,650
69,62,367294,1385
57,62,367294,1345
71,57,368644,2021
49,67,368644,1049
57,63,369694,1014
80,62,370709,755
49,65,370709,1014
79,62,371384,760
57,63,371724,1011
78,62,372064,752
76,57,372740,4048
48,67,372740,1049
55,63,373790,1014
48,65,374805,650
55,62,375486,1345
66,62,376836,2145
47,67,376836,1049
54,63,377886,1014
76,62,378901,1054
47,65,378901,1014
73,62,379916,1051
54,63,379916,1011
71,62,380932,1089
52,67,380932,1049
69,62,381982,1054
59,63,381982,1014
71,62,382997,741
52,65,382997,650
73,62,383678,1302
59,62,383678,1345
68,62,385028,2145
53,67,385028,1049
59,63,386078,3041
71,62,387093,2026
54,59,388996,2192
71,62,389124,1089
61,73,389124,2064
69,62,390174,1054
68,62,391189,1054
52,57,391189,2026
59,71,391189,2026
69,57,392204,968
64,62,393220,2145
50,67,393220,1049
57,63,394270,1014
76,62,395285,1054
50,65,395285,1014
73,62,396300,1051
57,63,396300,1011
71,62,397316,1089
50,67,397316,1049
69,62,398366,1054
57,63,398366,1014
68,62,399381,741
50,65,399381,1014
69,62,400062,1049
57,63,400396,1011
71,62,401072,2361
49,67,401412,1049
57,63,402462,1014
80,62,403477,755
49,65,403477,1014
79,62,404152,760
57,63,404492,1011
78,62,404832,752
76,57,405508,4048
48,67,405508,1049
57,63,406558,1014
48,65,407573,650
57,62,408254,1345
47,54,409476,4219
66,62,409604,2145
57,68,409604,4091
76,62,411669,1054
73,62,412684,1051
52,54,413572,4219
71,62,413700,1089
59,68,413700,4091
69,62,414750,1054
71,62,415765,1054
73,57,416780,968
53,54,417668,4219
68,62,417796,2145
61,68,417796,4091
71,62,419861,2026
54,59,421764,2192
71,62,421892,1089
61,73,421892,2064
69,62,422942,1054
68,62,423957,1054
52,57,423957,2026
59,71,423957,2026
69,62,424972,1051
50,54,425860,6288
64,62,425988,6117
57,68,425988,6160
62,62,432149,1054
52,57,432149,2026
59,71,432149,2026
64,62,433164,1051
50,54,434052,6288
61,62,434180,6117
57,68,434180,6160
59,62,440341,1054
52,57,440341,2026
56,71,440341,2026
61,62,441356,1051
50,54,442244,4219
57,57,442372,4091
54,68,442372,4091
57,62,446468,4091
49,54,446468,4091
52,68,446468,4091
57,62,450564,3079
48,54,450564,3079
55,68,450564,3079
57,63,453644,2065
47,55,453644,2065
54,69,453644,2065
40,62,455680,3072
52,68,455688,2668
57,62,455710,2646
52,63,455760,2596
88,48,65540,1779
100,48,67266,2419
95,43,69636,3984
93,48,73732,1779
100,48,75458,2419
88,43,77828,4091
88,48,81924,2118
93,48,83989,2080
88,48,86016,172
100,43,86170,1553
102,48,87746,2258
100,48,90116,2118
95,48,92181,1744
93,48,93872,4324
88,48,98308,1779
100,48,100034,2419
95,43,102404,3984
93,48,106500,1778
100,48,108226,2083
88,48,110256,4431
88,48,114692,2118
93,48,116757,2080
92,40,118788,2117
100,54,118788,2064
102,43,120853,1919
88,48,122624,128
93,48,122752,128
100,43,122884,1957
95,51,124949,1626
93,48,126640,4367
88,48,131076,2118
100,48,133141,1068
97,48,134156,1065
95,48,135172,1103
93,48,136222,1068
92,48,137237,734
93,48,137918,1399
95,43,139268,1957
104,48,141333,728
103,48,142008,733
102,48,142688,725
100,43,143364,3984
90,48,147460,2118
100,48,149525,1068
97,48,150540,1064
95,48,151556,1102
93,48,152606,1068
95,48,153621,734
97,48,154302,1238
92,48,155652,2118
95,48,157717,2026
95,48,159748,1103
93,48,160798,1068
92,48,161813,1068
93,43,162828,904
88,48,163844,2118
100,48,165909,1068
97,48,166924,1065
95,48,167940,1103
93,48,168990,1068
92,48,170005,734
93,48,170686,1063
95,48,171696,2297
104,48,174101,728
103,48,174776,733
102,48,175456,725
100,43,176132,3984
90,48,180228,2118
100,48,182293,1068
97,48,183308,1064
95,48,184324,1102
93,48,185374,1068
95,48,186389,1068
97,43,187404,904
92,48,188420,2118
95,48,190485,2026
95,48,192516,1103
93,48,193566,1068
92,48,194581,1068
93,48,195596,1065
88,48,196612,6053
86,48,202773,1068
88,48,203788,1065
85,48,204804,6053
83,48,210965,1068
85,48,211980,1065
81,43,212996,4091
81,48,217092,4091
81,48,221188,3079
81,49,224268,2065
81,48,226334,2614
88,48,294916,1779
100,48,296642,2419
95,43,299012,3984
93,48,303108,1779
100,48,304834,2419
88,43,307204,4091
88,48,311300,2118
93,48,313365,2080
88,48,315392,172
100,43,315546,1553
102,48,317122,2258
100,48,319492,2118
95,48,321557,1744
93,48,323248,4324
88,48,327684,1779
100,48,329410,2419
95,43,331780,3984
93,48,335876,1778
100,48,337602,2083
88,48,339632,4431
88,48,344068,2118
93,48,346133,2080
92,40,348164,2117
100,54,348164,2064
102,43,350229,1919
88,48,352000,128
93,48,352128,128
100,43,352260,1957
95,51,354325,1626
93,48,356016,4367
88,48,360452,2118
100,48,362517,1068
97,48,363532,1065
95,48,364548,1103
93,48,365598,1068
92,48,366613,734
93,48,367294,1399
95,43,368644,1957
104,48,370709,728
103,48,371384,733
102,48,372064,725
100,43,372740,3984
90,48,376836,2118
100,48,378901,1068
97,48,379916,1064
95,48,380932,1102
93,48,381982,1068
95,48,382997,734
97,48,383678,1238
92,48,385028,2118
95,48,387093,2026
95,48,389124,1103
93,48,390174,1068
92,48,391189,1068
93,43,392204,904
88,48,393220,2118
100,48,395285,1068
97,48,396300,1065
95,48,397316,1103
93,48,398366,1068
92,48,399381,734
93,48,400062,1063
95,48,401072,2297
104,48,403477,728
103,48,404152,733
102,48,404832,725
100,43,405508,3984
90,48,409604,2118
100,48,411669,1068
97,48,412684,1064
95,48,413700,1102
93,48,414750,1068
95,48,415765,1068
97,43,416780,904
92,48,417796,2118
95,48,419861,2026
95,48,421892,1103
93,48,422942,1068
92,48,423957,1068
93,48,424972,1065
88,48,425988,6053
86,48,432149,1068
88,48,433164,1065
85,48,434180,6053
83,48,440341,1068
85,48,441356,1065
81,43,442372,4091
81,48,446468,4091
81,48,450564,3079
81,49,453644,2065
81,48,455710,2614
