note,velocity,position,duration
71,75,768,128
72,75,896,128
65,75,1024,512
66,75,1024,512
73,75,1024,512
65,75,2560,512
66,75,2560,512
73,75,2560,512
63,75,4096,512
64,75,4096,512
71,75,4096,512
63,75,5632,512
64,75,5632,512
71,75,5632,512
63,75,6656,1536
64,75,6656,1536
71,75,6656,1536
71,75,8960,128
72,75,9088,128
65,75,9216,512
66,75,9216,512
73,75,9216,512
65,75,10752,512
66,75,10752,512
73,75,10752,512
66,94,12288,1536
73,94,12288,1536
66,94,13824,1024
72,94,13824,1024
66,75,14848,512
70,75,14848,512
66,75,15360,1024
68,75,15360,1024
65,75,17408,512
66,75,17408,512
73,75,17408,512
65,75,18944,512
66,75,18944,512
73,75,18944,512
63,75,20480,512
64,75,20480,512
71,75,20480,512
63,75,22016,512
64,75,22016,512
71,75,22016,512
63,75,23040,1536
64,75,23040,1536
71,75,23040,1536
71,75,25344,128
72,75,25472,128
65,75,25600,512
73,75,25600,512
73,75,26880,128
74,75,27008,128
66,75,27136,512
75,75,27136,512
77,94,28672,1024
68,75,28672,1536
78,75,29696,512
72,94,30208,2560
80,94,30208,2560
90,75,31744,512
89,75,32256,512
83,94,32768,1024
90,94,32768,1024
87,75,33792,512
94,75,33792,512
85,94,34304,2560
92,94,34304,2560
80,75,37376,205
85,75,37376,205
80,75,37888,205
85,75,37888,205
80,75,38400,205
85,75,38400,205
77,75,38912,205
80,75,38912,205
77,75,39424,205
80,75,39424,205
73,75,39936,205
77,75,39936,205
73,75,40448,205
77,75,40448,205
80,88,41728,128
81,88,41856,128
70,110,41984,512
75,110,41984,512
78,110,41984,512
82,110,41984,512
66,110,43520,512
70,110,43520,512
75,110,43520,512
78,110,43520,512
68,88,45056,1024
72,88,45056,1024
70,88,46080,512
73,88,46080,512
68,88,46592,1024
72,88,46592,1024
66,88,47616,512
70,88,47616,512
63,88,48128,512
72,88,48128,512
70,88,48640,512
73,88,48640,512
75,88,49920,128
76,88,50048,128
66,110,50176,512
70,110,50176,512
73,110,50176,512
77,110,50176,512
66,110,51712,512
70,110,51712,512
75,110,51712,512
78,110,51712,512
63,110,53248,1024
66,110,53248,1024
71,110,53248,1024
75,110,53248,1024
70,88,54272,512
75,88,54272,512
78,88,54272,512
82,88,54272,512
68,110,54784,2560
73,110,54784,2560
77,110,54784,2560
80,110,54784,2560
80,88,58112,128
81,88,58240,128
70,110,58368,512
75,110,58368,512
78,110,58368,512
82,110,58368,512
78,88,58880,512
75,88,59392,512
66,110,59904,512
70,110,59904,512
75,110,59904,0
78,110,59904,512
75,88,60416,512
70,88,60928,512
68,88,61440,1024
72,88,61440,1024
70,88,62464,512
73,88,62464,512
68,88,62976,1024
72,88,62976,1024
66,88,64000,512
70,88,64000,512
63,88,64512,512
72,88,64512,512
70,88,65024,512
73,88,65024,512
72,88,65536,512
75,88,65536,512
70,88,66048,512
73,88,66048,512
68,88,66560,410
72,88,66560,410
68,88,67584,512
72,88,67584,512
66,88,68096,512
70,88,68096,512
65,88,68608,410
68,88,68608,410
63,88,69632,410
66,88,69632,410
70,88,70656,410
73,88,70656,410
68,88,71680,512
75,88,71680,512
66,88,72192,512
72,88,72192,512
65,88,72704,512
68,88,72704,512
61,88,73216,512
65,88,73216,512
80,88,74496,128
81,88,74624,128
70,88,74752,512
75,88,74752,512
78,88,74752,512
82,88,74752,512
66,88,76288,512
70,88,76288,512
75,88,76288,512
78,88,76288,512
68,88,77824,1024
72,88,77824,1024
70,88,78848,512
73,88,78848,512
68,88,79360,1024
72,88,79360,1024
66,88,80384,512
70,88,80384,512
68,88,80896,512
72,88,80896,512
70,88,81408,512
73,88,81408,512
75,88,82688,128
76,88,82816,128
66,88,82944,512
70,88,82944,512
73,88,82944,512
77,88,82944,512
66,88,84480,512
70,88,84480,512
75,88,84480,512
78,88,84480,512
63,110,86016,1024
66,110,86016,1024
71,110,86016,1024
75,110,86016,1024
70,88,87040,512
75,88,87040,512
78,88,87040,512
82,88,87040,512
68,110,87552,2560
73,110,87552,2560
77,110,87552,2560
80,110,87552,2560
80,88,90880,128
81,88,91008,128
70,88,91136,512
75,88,91136,512
78,88,91136,512
82,88,91136,512
66,88,92672,512
70,88,92672,512
75,88,92672,512
78,88,92672,512
68,88,94208,1024
72,88,94208,1024
70,88,95232,512
73,88,95232,512
68,88,95744,1024
72,88,95744,1024
66,88,96768,512
70,88,96768,512
68,88,97280,512
72,88,97280,512
70,88,97792,512
73,88,97792,512
96,49,98304,205
99,49,98304,205
94,49,98816,205
97,49,98816,205
90,49,99328,410
96,49,99328,410
92,49,100352,205
96,49,100352,205
90,49,100864,205
94,49,100864,205
89,49,101376,410
92,49,101376,410
70,88,102400,410
73,88,102400,410
78,88,102400,410
78,88,103424,410
82,88,103424,410
85,88,103424,410
84,88,104448,512
87,88,104448,512
80,88,104960,512
84,88,104960,512
77,88,105472,512
80,88,105472,512
73,88,105984,512
77,88,105984,512
66,75,107520,410
71,75,108544,410
75,75,109568,410
77,75,110464,128
78,75,110592,2048
75,75,112640,2048
74,75,114688,1024
75,75,115712,1024
77,75,116736,2048
75,75,118784,1024
70,75,119808,1024
66,75,120832,1024
63,75,121856,1024
68,75,122752,128
63,75,122880,8192
69,75,122880,8192
70,75,131072,1024
74,75,131968,128
75,75,132096,410
73,75,133120,410
69,75,134144,410
68,75,135168,512
66,75,135680,410
63,75,136704,512
61,75,137728,512
57,75,138240,512
56,75,138752,512
54,75,139264,1024
51,75,140288,410
59,75,141312,410
63,75,142336,410
66,75,143360,2048
74,75,145280,128
75,75,145408,2048
74,75,147456,410
72,75,148480,410
74,75,149504,2048
75,83,151552,768
70,83,152576,768
66,83,153600,768
65,83,154624,768
62,75,155648,4096
62,62,159744,512
65,62,159744,512
60,62,160256,512
64,62,160256,512
62,62,160768,512
65,62,160768,512
60,62,161280,512
64,62,161280,512
62,62,161792,512
65,62,161792,512
72,62,161792,512
60,62,162304,512
64,62,162304,512
70,62,162304,512
62,62,162816,512
65,62,162816,512
72,62,162816,512
60,62,163328,512
64,62,163328,512
70,62,163328,512
67,88,163840,3072
79,88,163840,3072
55,88,166912,512
67,88,166912,512
60,88,167424,512
72,88,167424,512
62,88,167936,410
74,88,167936,410
64,88,168960,410
76,88,168960,410
62,88,169984,256
74,88,169984,256
64,88,170240,256
76,88,170240,256
62,88,170496,512
74,88,170496,512
60,88,171008,1024
72,88,171008,1024
67,88,172032,3072
79,88,172032,3072
55,88,175104,512
67,88,175104,512
60,88,175616,512
72,88,175616,512
62,88,176128,410
74,88,176128,410
64,88,177152,410
76,88,177152,410
62,88,178176,256
74,88,178176,256
64,88,178432,256
76,88,178432,256
62,88,178688,512
74,88,178688,512
60,88,179200,1024
72,88,179200,1024
72,88,180224,3072
76,88,180224,3072
72,88,183296,1024
76,88,183296,1024
74,88,184320,1024
77,88,184320,1024
72,88,185344,1024
76,88,185344,1024
74,88,186368,1536
77,88,186368,1536
77,88,187904,512
81,88,187904,512
76,88,188416,3072
79,88,188416,3072
67,88,191488,1024
72,88,191488,1024
71,88,192512,1024
74,88,192512,1024
72,88,193536,1024
76,88,193536,1024
71,88,194560,1024
74,88,194560,1024
67,88,195584,1024
72,88,195584,1024
67,88,196608,3072
79,88,196608,3072
55,88,199680,512
67,88,199680,512
60,88,200192,512
72,88,200192,512
62,88,200704,410
74,88,200704,410
64,88,201728,410
76,88,201728,410
62,88,202752,256
74,88,202752,256
64,88,203008,256
76,88,203008,256
62,88,203264,512
74,88,203264,512
60,88,203776,1024
72,88,203776,1024
67,88,204800,3072
79,88,204800,3072
55,88,207872,512
67,88,207872,512
60,88,208384,512
72,88,208384,512
62,88,208896,410
74,88,208896,410
64,88,209920,410
76,88,209920,410
62,88,210944,256
74,88,210944,256
64,88,211200,256
76,88,211200,256
62,88,211456,512
74,88,211456,512
60,88,211968,1024
72,88,211968,1024
72,88,212992,3072
76,88,212992,3072
72,88,216064,1024
76,88,216064,1024
74,88,217088,1024
77,88,217088,1024
72,88,218112,1024
76,88,218112,1024
74,88,219136,1536
77,88,219136,1536
77,88,220672,512
81,88,220672,512
76,88,221184,3072
79,88,221184,3072
67,88,224256,1024
72,88,224256,1024
71,88,225280,1024
74,88,225280,1024
72,88,226304,1024
76,88,226304,1024
71,88,227328,1024
74,88,227328,1024
67,88,228352,1024
72,88,228352,1024
71,62,230400,1024
76,62,230400,1024
83,62,230400,1024
71,62,231424,1024
76,62,231424,1024
83,62,231424,1024
71,62,232448,1024
76,62,232448,1024
83,62,232448,1024
71,62,233472,1024
76,62,233472,1024
83,62,233472,1024
72,62,234496,1024
77,62,234496,1024
81,62,234496,1024
71,62,235520,1024
76,62,235520,1024
83,62,235520,1024
74,62,236544,1024
77,62,236544,1024
86,62,236544,1024
76,62,237568,2048
79,62,237568,2048
88,62,237568,2048
72,62,239616,2048
84,62,239616,2048
71,62,241664,2048
83,62,241664,2048
74,62,243712,2048
86,62,243712,2048
75,62,246784,1024
79,62,246784,1024
75,62,247808,1024
79,62,247808,1024
75,62,248832,1024
79,62,248832,1024
75,62,249856,1024
79,62,249856,1024
74,62,250880,1024
77,62,250880,1024
72,62,251904,1024
75,62,251904,1024
74,62,252928,1024
77,62,252928,1024
75,62,253952,2048
79,62,253952,2048
79,62,256000,2048
84,62,256000,2048
77,62,258048,2048
86,62,260096,2048
72,62,262144,8192
84,62,262144,8192
72,78,270336,307
67,62,271104,512
70,62,271616,256
69,62,271872,512
65,62,272384,512
67,62,272896,512
72,78,273408,307
67,62,274176,512
70,62,274688,256
69,62,274944,512
65,62,275456,512
67,62,275968,512
72,78,276480,307
67,62,277248,512
70,62,277760,256
69,62,278016,512
65,62,278528,512
67,62,279040,512
63,78,279552,512
67,78,279552,512
62,62,280064,512
65,62,280064,512
60,62,280576,512
63,62,280576,512
58,78,281088,512
62,78,281088,512
60,62,281600,512
67,62,281600,512
58,62,282112,512
70,62,282112,512
60,78,282624,307
72,78,282624,307
67,62,283392,512
70,62,283904,256
69,62,284160,512
65,62,284672,512
67,62,285184,512
72,78,285696,307
67,62,286464,512
70,62,286976,256
69,62,287232,512
65,62,287744,512
67,62,288256,512
72,78,288768,307
67,62,289536,512
70,62,290048,256
69,62,290304,512
65,62,290816,512
67,62,291328,512
63,78,291840,512
67,78,291840,512
62,62,292352,512
65,62,292352,512
60,62,292864,512
63,62,292864,512
62,78,293376,512
60,62,293888,512
58,62,294400,512
72,62,294912,768
67,62,295680,512
70,62,296192,256
69,62,296448,512
65,62,296960,512
67,62,297472,512
72,78,297984,307
67,62,298752,512
70,62,299264,256
69,62,299520,512
65,62,300032,512
67,62,300544,512
72,78,301056,307
67,62,301824,512
70,62,302336,256
69,62,302592,512
65,62,303104,512
67,62,303616,512
67,78,304128,512
65,62,304640,512
63,62,305152,512
62,78,305664,512
67,62,306176,512
70,62,306688,512
72,78,307200,307
77,62,307712,512
67,62,307968,512
79,62,308224,512
70,62,308480,256
82,62,308736,512
69,62,308736,512
79,62,309248,512
65,62,309248,512
75,62,309760,512
67,62,309760,512
72,78,310272,307
77,62,310272,512
67,62,311040,512
79,62,311296,512
70,62,311552,256
69,62,311808,512
75,62,311808,1536
65,62,312320,512
67,62,312832,512
72,78,313344,307
77,62,313856,512
67,62,314112,512
79,62,314368,512
70,62,314624,256
69,62,314880,512
82,62,314880,512
65,62,315392,512
79,62,315392,512
67,62,315904,512
77,62,315904,512
67,78,316416,512
75,62,316416,512
65,62,316928,512
74,62,316928,512
63,62,317440,512
72,62,317440,512
62,78,317952,512
71,62,317952,1536
60,62,318464,512
59,62,318976,512
67,62,319488,512
72,62,320000,512
75,62,320512,512
72,62,321024,1024
74,62,322048,256
75,62,322304,256
77,62,322560,768
75,62,323328,256
74,62,323584,256
72,62,323840,256
67,62,324096,768
75,62,324864,256
77,62,325120,256
79,62,325376,256
74,62,325632,3072
74,62,328704,1024
72,62,329728,512
67,62,330240,1536
67,62,331776,512
72,62,332288,512
75,62,332800,512
72,62,333312,1024
74,62,334336,256
75,62,334592,256
77,62,334848,768
75,62,335616,256
74,62,335872,256
72,62,336128,256
67,62,336384,768
75,62,337152,256
77,62,337408,256
79,62,337664,256
74,62,337920,2560
77,62,337920,2560
82,62,337920,2560
74,62,340480,512
77,62,340480,512
82,62,340480,512
72,62,340992,3072
76,62,340992,3072
79,62,340992,3072
67,62,344064,512
72,62,344576,512
75,62,345088,512
72,62,345600,1024
74,62,346624,256
75,62,346880,256
77,62,347136,768
75,62,347904,256
74,62,348160,256
72,62,348416,256
67,62,348672,768
75,62,349440,256
77,62,349696,256
79,62,349952,256
74,62,350208,3072
74,62,353280,1024
72,62,354304,512
67,62,354816,1536
67,62,356352,512
72,62,356864,512
75,62,357376,512
72,62,357888,1024
74,62,358912,256
75,62,359168,256
77,62,359424,768
75,62,360192,256
74,62,360448,256
72,62,360704,256
67,62,360960,768
75,62,361728,256
77,62,361984,256
79,62,362240,256
74,62,362496,2560
77,62,362496,2560
82,62,362496,2560
74,62,365056,512
77,62,365056,512
82,62,365056,512
72,62,365568,3072
76,62,365568,3072
79,62,365568,3072
62,62,368640,2560
65,62,368640,2560
70,62,368640,2560
64,62,371200,512
67,62,371200,512
72,62,371200,512
60,62,371712,3072
64,62,371712,3072
67,62,371712,3072
62,49,374784,2560
65,49,374784,2560
70,49,374784,2560
62,49,377344,512
65,49,377344,512
70,49,377344,512
60,49,377856,6144
64,49,377856,6144
67,49,377856,6144
74,62,400384,6144
63,62,400384,410
67,62,400384,410
65,62,401408,410
69,62,401408,410
67,68,402432,768
70,68,402432,768
65,68,403200,768
69,68,403200,768
63,62,403968,512
67,62,403968,512
63,62,404992,512
67,62,404992,512
65,62,405504,512
69,62,405504,512
75,62,406528,1024
67,68,406528,768
70,68,406528,768
65,68,407296,1280
69,68,407296,1280
77,62,407552,1024
74,62,408576,6144
63,62,408576,410
67,62,408576,410
65,62,409600,410
69,62,409600,410
67,68,410624,768
70,68,410624,768
65,68,411392,768
69,68,411392,768
63,62,412160,512
67,62,412160,512
63,62,413184,512
67,62,413184,512
65,62,413696,512
69,62,413696,512
70,62,414720,768
67,68,414720,768
70,68,414720,768
65,68,415488,1280
69,68,415488,1280
74,62,415744,1024
72,62,416768,7168
63,62,416768,410
67,62,416768,410
65,62,417792,410
69,62,417792,410
67,68,418816,768
70,68,418816,768
65,68,419584,768
69,68,419584,768
63,62,420352,512
67,62,420352,512
63,62,421376,512
67,62,421376,512
65,62,421888,512
69,62,421888,512
67,68,422912,768
70,68,422912,768
65,68,423680,1280
69,68,423680,1280
73,62,423936,256
74,62,424192,256
75,62,424448,256
76,62,424704,256
63,62,424960,410
67,62,424960,410
77,62,424960,8192
65,62,425984,410
69,62,425984,410
67,68,427008,768
70,68,427008,768
65,68,427776,768
69,68,427776,768
63,62,428544,512
67,62,428544,512
63,62,429568,512
67,62,429568,512
65,62,430080,512
69,62,430080,512
67,68,431104,768
70,68,431104,768
65,68,431872,1280
69,68,431872,1280
67,88,433152,205
72,88,433664,205
79,88,434176,205
75,88,434688,205
77,88,435200,256
75,88,435456,256
72,88,435712,256
70,88,435968,512
72,88,436480,256
67,88,436736,205
67,88,437760,205
72,88,438272,205
75,88,438784,205
77,88,439296,256
75,88,439552,256
72,88,439808,256
70,88,440064,768
72,88,440832,256
72,88,441088,256
67,88,441344,205
72,88,441856,205
79,88,442368,205
75,88,442880,205
77,88,443392,256
75,88,443648,256
72,88,443904,256
70,88,444160,512
72,88,444672,256
67,88,444928,205
67,88,445952,205
72,88,446464,205
75,88,446976,205
84,88,447488,205
82,88,448000,256
79,88,448256,512
77,88,448768,256
75,88,449024,256
72,88,449280,256
67,88,449536,205
72,88,450048,205
79,88,450560,205
75,88,451072,205
77,88,451584,256
75,88,451840,256
72,88,452096,256
70,88,452352,512
72,88,452864,256
67,88,453120,205
67,88,454144,205
72,88,454656,205
75,88,455168,205
77,88,455680,256
75,88,455936,256
72,88,456192,256
70,88,456448,768
72,88,457216,256
72,88,457472,256
67,88,457728,205
72,88,458240,205
79,88,458752,205
75,88,459264,205
77,88,459776,256
75,88,460032,256
72,88,460288,256
70,88,460544,512
72,88,461056,256
67,88,461312,205
67,88,462336,205
72,88,462848,205
75,88,463360,205
84,88,463872,205
82,88,464384,256
79,88,464640,512
77,88,465152,256
75,88,465408,256
72,88,465664,256
63,88,465920,512
60,88,466432,512
62,88,466944,512
62,88,467328,128
63,88,467456,1536
63,88,468992,512
60,88,469504,512
62,88,470016,512
62,88,470400,128
63,88,470528,1536
63,88,472064,512
60,88,472576,512
62,88,473088,1024
63,88,474112,512
60,88,474624,512
62,88,475136,512
63,88,475648,1536
63,88,477184,512
60,88,477696,512
65,88,478208,512
67,88,478720,1536
60,88,480256,410
63,88,480256,410
63,88,481280,410
67,88,481280,410
62,88,482304,7168
65,88,482304,7168
70,75,489472,1024
75,75,489472,1024
72,75,490496,3072
77,75,490496,3072
70,75,493568,512
76,75,493568,512
67,75,494080,512
74,75,494080,512
67,75,495104,512
76,75,495104,512
64,75,496128,512
67,75,496128,512
72,75,496128,512
62,83,497664,1024
67,83,497664,1024
70,83,497664,1024
67,75,498688,512
65,75,499200,512
63,75,500224,1536
67,75,501760,512
65,75,502272,512
70,75,502784,512
63,75,503296,1536
63,83,504832,512
58,75,505344,512
60,75,505600,128
61,75,505728,128
62,83,505856,1024
63,75,506880,512
60,75,507392,512
62,75,507904,512
63,75,508416,1536
63,75,509952,512
60,75,510464,512
65,75,510976,512
67,75,511488,1536
63,75,513024,410
70,75,513024,410
67,75,514048,410
75,75,514048,410
65,75,515072,7168
74,75,515072,7168
70,75,522240,1024
75,75,522240,1024
72,75,523264,3072
77,75,523264,3072
70,75,526336,512
76,75,526336,512
67,75,526848,512
74,75,526848,512
67,75,527872,512
76,75,527872,512
64,75,528896,512
67,75,528896,512
72,75,528896,512
62,83,530432,1024
67,83,530432,1024
70,83,530432,1024
60,75,531456,4096
68,75,531456,4096
72,75,531456,4096
68,75,536576,1024
74,75,536576,1024
72,75,537600,1024
75,75,537600,1024
74,75,538624,1024
77,75,538624,1024
75,75,539648,4096
79,75,539648,4096
74,75,543744,2048
77,75,543744,2048
72,75,545792,2048
75,75,545792,2048
70,75,547840,4096
74,75,547840,4096
72,75,551936,2048
75,75,551936,2048
74,75,553984,2048
77,75,553984,2048
74,75,556032,3584
79,75,556032,3584
79,75,559616,256
80,75,559872,256
74,75,560128,3584
79,75,560128,3584
79,75,563712,256
80,75,563968,256
74,75,564224,3584
79,75,564224,3584
79,75,567808,256
80,75,568064,256
74,75,568320,2048
79,75,568320,2048
71,75,570368,2048
79,75,572416,2048
83,75,574464,6144
67,62,580608,1024
75,62,580608,1024
70,62,581632,1024
79,62,581632,1024
68,62,582656,2048
77,62,582656,2048
65,62,584704,1024
74,62,584704,1024
70,62,585728,1024
77,62,585728,1024
67,62,586752,2048
75,62,586752,2048
72,62,588800,1536
75,62,590336,1536
76,62,591872,512
81,62,591872,512
72,62,592384,512
76,62,592384,512
69,62,592896,512
72,62,592896,512
81,62,592896,512
72,62,593408,512
76,62,593408,512
76,62,593920,512
81,62,593920,512
72,62,594432,512
76,62,594432,512
69,62,594944,512
72,62,594944,512
81,62,594944,512
72,62,595456,512
76,62,595456,512
74,62,595968,512
79,62,595968,512
71,62,596480,512
74,62,596480,512
67,62,596992,512
71,62,596992,512
79,62,596992,512
71,62,597504,512
74,62,597504,512
74,62,598016,512
79,62,598016,512
71,62,598528,512
74,62,598528,512
67,62,599040,512
71,62,599040,512
79,62,599040,512
71,62,599552,512
74,62,599552,512
76,62,600064,512
81,62,600064,512
72,62,600576,512
76,62,600576,512
69,62,601088,512
72,62,601088,512
81,62,601088,512
72,62,601600,512
76,62,601600,512
76,62,602112,512
81,62,602112,512
72,62,602624,512
76,62,602624,512
69,62,603136,512
72,62,603136,512
81,62,603136,512
72,62,603648,512
76,62,603648,512
71,62,603990,4266
74,62,604075,4181
79,62,604160,4096
79,62,608256,1024
79,49,608768,512
91,49,609280,1024
91,49,609792,512
86,49,610304,2048
86,49,610816,1536
84,49,612352,1024
84,49,612864,512
91,49,613376,1024
91,49,613888,512
79,49,614400,2048
79,49,614912,1536
79,49,616448,1024
79,49,616960,512
84,49,617472,1024
84,49,617984,512
91,49,618496,1024
91,49,619008,512
93,49,619520,1024
93,49,620032,512
91,49,620544,1024
91,49,621056,512
86,49,621568,1024
86,49,622080,512
84,49,622592,2048
84,49,623104,1536
94,49,624640,1024
94,49,625152,512
89,49,625664,1024
89,49,626176,512
87,49,626688,1024
87,49,627200,512
89,49,627712,1024
89,49,628224,512
90,49,628736,2048
90,49,629248,1536
92,49,630784,2048
92,49,631296,1536
39,75,0,205
39,75,512,205
51,75,1024,512
39,75,1536,205
39,75,2048,205
51,75,2560,512
39,75,3072,205
39,75,3584,205
51,75,4096,512
39,75,4608,205
39,75,5120,205
51,75,5632,512
39,75,6144,205
51,75,6656,512
39,75,7168,205
39,75,7680,205
39,75,8192,205
39,75,8704,205
51,75,9216,512
39,75,9728,205
39,75,10240,205
51,75,10752,512
39,75,11264,205
39,75,11776,205
42,94,12288,512
49,75,12800,512
54,75,13312,512
44,94,13824,1024
51,75,14848,512
56,75,15360,1024
39,75,16384,205
39,75,16896,205
51,75,17408,512
39,75,17920,205
39,75,18432,205
51,75,18944,512
39,75,19456,205
39,75,19968,205
51,75,20480,512
39,75,20992,205
39,75,21504,205
51,75,22016,512
39,75,22528,205
51,75,23040,512
39,75,23552,205
39,75,24064,205
39,75,24576,205
39,75,25088,205
51,75,25600,512
39,75,26112,205
39,75,26624,205
51,75,27136,512
39,75,27648,205
39,75,28160,205
42,94,28672,512
49,75,29184,512
54,75,29696,512
44,94,30208,1536
56,75,31744,512
51,75,32256,512
47,94,32768,512
54,75,33280,512
59,75,33792,512
49,94,34304,2560
39,75,40960,205
39,75,41472,205
42,94,41984,512
46,94,41984,512
51,94,41984,512
39,75,42496,205
39,75,43008,205
42,94,43520,512
46,94,43520,512
51,94,43520,512
39,75,44032,205
39,75,44544,205
42,94,45056,512
49,75,45568,205
46,75,46080,205
44,94,46592,1024
51,83,47616,512
48,83,48128,512
56,75,48640,512
35,75,49152,205
35,75,49664,205
39,94,50176,512
42,94,50176,512
47,94,50176,512
35,75,50688,205
35,75,51200,205
39,94,51712,512
42,94,51712,512
47,94,51712,512
35,75,52224,205
35,75,52736,205
54,75,53248,512
53,75,53760,512
51,75,54272,512
49,75,54784,512
54,75,55296,512
53,75,55808,512
51,75,56320,512
49,75,56832,512
39,75,57344,205
39,75,57856,205
42,94,58368,512
46,94,58368,512
51,94,58368,512
39,75,58880,205
39,75,59392,205
42,94,59904,512
46,94,59904,512
51,94,59904,512
39,75,60416,205
39,75,60928,205
42,94,61440,512
49,75,61952,205
46,75,62464,205
44,94,62976,1024
51,83,64000,512
48,83,64512,512
56,75,65024,512
42,75,65536,205
42,75,66048,205
54,75,66560,205
44,75,67072,205
58,94,68096,205
46,83,69120,512
42,75,69632,410
58,75,70656,410
56,75,71680,205
44,75,72192,205
46,75,72704,205
37,75,73216,205
39,75,73728,205
39,75,74240,205
42,94,74752,512
46,94,74752,512
51,94,74752,512
39,75,75264,205
39,75,75776,205
42,94,76288,512
46,94,76288,512
51,94,76288,512
39,75,76800,205
39,75,77312,205
42,94,77824,512
49,75,78336,205
46,75,78848,205
44,94,79360,1024
51,83,80384,512
48,83,80896,512
56,75,81408,512
35,75,81920,205
35,75,82432,205
39,94,82944,512
42,94,82944,512
47,94,82944,512
35,75,83456,205
35,75,83968,205
39,94,84480,512
42,94,84480,512
47,94,84480,512
35,75,84992,205
35,75,85504,205
54,75,86016,512
53,75,86528,512
51,75,87040,512
49,75,87552,512
54,75,88064,512
53,75,88576,512
51,75,89088,512
49,75,89600,512
39,75,90112,205
39,75,90624,205
42,94,91136,512
46,94,91136,512
51,94,91136,512
39,75,91648,205
39,75,92160,205
42,94,92672,512
46,94,92672,512
51,94,92672,512
39,75,93184,205
39,75,93696,205
42,94,94208,512
49,75,94720,205
46,75,95232,205
44,94,95744,1024
51,83,96768,512
48,83,97280,512
56,75,97792,512
42,49,98304,205
42,49,98816,205
44,49,99840,205
44,49,100352,205
44,49,100864,205
44,49,101888,205
42,49,102400,410
46,49,103424,410
56,54,104448,512
44,54,104960,512
46,54,105472,512
49,49,105984,512
47,49,106496,205
47,49,107008,205
54,61,107520,205
47,49,108032,205
47,49,108544,205
47,49,109056,205
56,61,109568,205
47,49,110080,205
47,49,110592,205
47,49,111104,205
54,61,111616,205
47,49,112128,205
47,49,112640,205
47,49,113152,205
53,61,113664,205
47,49,114176,205
46,49,114688,205
46,49,115200,205
53,61,115712,205
46,49,116224,205
46,49,116736,205
46,49,117248,205
56,61,117760,205
46,49,118272,205
49,49,118784,205
49,49,119296,205
54,61,119808,205
49,49,120320,205
49,49,120832,205
49,49,121344,205
53,61,121856,205
49,49,122368,205
51,49,122880,205
51,49,123392,205
54,61,123904,512
58,61,123904,512
51,49,124416,205
51,49,124928,205
51,49,125440,205
56,61,125952,512
60,61,125952,512
51,49,126464,205
51,49,126976,205
51,49,127488,205
54,61,128000,512
58,61,128000,512
51,49,128512,205
51,49,129024,205
51,49,129536,205
53,61,130048,512
57,61,130048,512
51,49,130560,205
51,49,131072,205
51,49,131584,205
54,61,132096,512
58,61,132096,512
51,49,132608,205
51,49,133120,205
51,49,133632,205
56,61,134144,512
60,61,134144,512
51,49,134656,205
51,49,135168,205
51,49,135680,205
54,61,136192,512
58,61,136192,512
51,49,136704,205
51,49,137216,205
51,49,137728,205
56,61,138240,512
60,61,138240,512
51,49,138752,205
47,49,139264,205
47,49,139776,205
54,61,140288,205
47,49,140800,205
47,49,141312,205
47,49,141824,205
54,61,142336,205
47,49,142848,205
47,49,143360,205
47,49,143872,205
54,61,144384,205
47,49,144896,205
47,49,145408,205
47,49,145920,205
54,61,146432,205
47,49,146944,205
46,49,147456,205
46,49,147968,205
53,61,148480,205
46,49,148992,205
46,49,149504,205
46,49,150016,205
53,61,150528,205
46,49,151040,205
46,49,151552,205
46,49,152064,205
53,61,152576,205
46,49,153088,205
46,49,153600,205
46,49,154112,205
53,61,154624,205
46,49,155136,205
46,49,155648,205
46,49,156160,205
58,61,156672,205
46,49,157184,205
46,49,157696,205
46,49,158208,205
58,61,158720,205
46,49,159232,205
46,49,159744,205
46,49,160256,205
58,61,160768,205
46,49,161280,205
46,49,161792,205
46,49,162304,205
46,49,162816,205
46,49,163328,205
46,61,163840,512
53,49,164352,512
58,49,164864,512
53,49,165376,512
46,61,165888,512
53,49,166400,512
58,49,166912,512
53,49,167424,512
46,61,167936,512
53,49,168448,512
58,49,168960,512
53,49,169472,512
46,61,169984,512
53,49,170496,512
58,49,171008,512
53,49,171520,512
46,61,172032,512
53,49,172544,512
58,49,173056,512
53,49,173568,512
46,61,174080,512
53,49,174592,512
58,49,175104,512
53,49,175616,512
46,61,176128,512
53,49,176640,512
58,49,177152,512
53,49,177664,512
46,61,178176,512
53,49,178688,512
58,49,179200,512
53,49,179712,512
48,61,180224,512
55,49,180736,512
60,49,181248,512
55,49,181760,512
48,61,182272,512
55,49,182784,512
60,49,183296,512
55,49,183808,512
46,61,184320,512
53,49,184832,512
58,49,185344,512
53,49,185856,512
46,61,186368,512
53,49,186880,512
58,49,187392,512
53,49,187904,512
36,54,188416,384
36,49,188928,205
40,54,189440,384
40,49,189952,205
43,54,190464,384
43,49,190976,205
40,54,191488,384
40,49,192000,205
36,54,192512,384
36,49,193024,205
40,54,193536,384
40,49,194048,205
35,54,194560,384
35,49,195072,205
38,54,195584,384
38,49,196096,205
46,61,196608,512
53,49,197120,512
58,49,197632,512
53,49,198144,512
46,61,198656,512
53,49,199168,512
58,49,199680,512
53,49,200192,512
46,61,200704,512
53,49,201216,512
58,49,201728,512
53,49,202240,512
46,61,202752,512
53,49,203264,512
58,49,203776,512
53,49,204288,512
46,61,204800,512
53,49,205312,512
58,49,205824,512
53,49,206336,512
46,61,206848,512
53,49,207360,512
58,49,207872,512
53,49,208384,512
46,61,208896,512
53,49,209408,512
58,49,209920,512
53,49,210432,512
46,61,210944,512
53,49,211456,512
58,49,211968,512
53,49,212480,512
48,61,212992,512
55,49,213504,512
60,49,214016,512
55,49,214528,512
48,61,215040,512
55,49,215552,512
60,49,216064,512
55,49,216576,512
46,61,217088,512
53,49,217600,512
58,49,218112,512
53,49,218624,512
46,61,219136,512
53,49,219648,512
58,49,220160,512
53,49,220672,512
36,54,221184,384
36,49,221696,205
40,54,222208,384
40,49,222720,205
43,54,223232,384
43,49,223744,205
40,54,224256,384
40,49,224768,205
36,54,225280,384
36,49,225792,205
40,54,226304,384
40,49,226816,205
35,54,227328,384
35,49,227840,205
38,54,228352,384
38,49,228864,205
52,62,229376,512
59,62,229888,512
62,62,230400,512
59,62,230912,512
52,62,231424,512
59,62,231936,512
62,62,232448,512
59,62,232960,512
52,62,233472,512
59,62,233984,512
62,62,234496,512
59,62,235008,512
52,62,235520,512
59,62,236032,512
62,62,236544,512
59,62,237056,512
53,62,237568,512
60,62,238080,512
62,62,238592,512
60,62,239104,512
53,62,239616,512
60,62,240128,512
62,62,240640,512
59,62,241152,512
53,62,241664,512
60,62,242176,512
62,62,242688,512
60,62,243200,512
53,62,243712,512
60,62,244224,512
62,62,244736,512
60,62,245248,512
56,62,245760,512
62,62,246272,512
63,62,246784,512
62,62,247296,512
56,62,247808,512
62,62,248320,512
63,62,248832,512
62,62,249344,512
56,62,249856,512
62,62,250368,512
63,62,250880,512
62,62,251392,512
56,62,251904,512
62,62,252416,512
63,62,252928,512
62,62,253440,512
58,62,253952,512
65,62,254464,512
67,62,254976,512
65,62,255488,512
58,62,256000,512
65,62,256512,512
67,62,257024,512
65,62,257536,512
58,62,258048,512
65,62,258560,512
67,62,259072,512
65,62,259584,512
58,62,260096,512
65,62,260608,512
67,62,261120,512
65,62,261632,512
36,110,270336,614
48,110,270336,614
41,110,273408,614
53,110,273408,614
36,110,276480,614
48,110,276480,614
32,110,279552,768
44,110,279552,768
31,110,281088,768
43,110,281088,768
36,110,282624,614
48,110,282624,614
41,110,285696,614
53,110,285696,614
36,110,288768,614
48,110,288768,614
51,110,291840,512
55,110,291840,512
44,110,291840,1536
50,88,292352,512
53,88,292352,512
48,88,292864,512
51,88,292864,512
50,110,293376,512
43,110,293376,1536
48,88,293888,512
46,88,294400,512
48,97,294912,576
48,97,295680,576
48,88,296448,205
48,88,296960,205
48,88,297472,205
53,97,297984,576
53,97,298752,576
53,88,299520,205
53,88,300032,205
53,88,300544,205
48,97,301056,576
48,97,301824,576
48,88,302592,205
48,88,303104,205
48,88,303616,205
44,97,304128,576
44,97,304896,576
46,88,305664,205
46,88,306176,205
46,88,306688,205
36,97,307200,576
48,97,307200,576
36,97,307968,576
48,97,307968,576
36,88,308736,512
48,88,308736,512
36,88,309248,512
48,88,309248,512
36,88,309760,512
48,88,309760,512
41,97,310272,576
53,97,310272,576
41,97,311040,576
53,97,311040,576
41,88,311808,205
53,88,311808,205
41,88,312320,205
53,88,312320,205
41,88,312832,205
53,88,312832,205
36,97,313344,576
48,97,313344,576
36,97,314112,576
48,97,314112,576
36,88,314880,205
48,88,314880,205
36,88,315392,205
48,88,315392,205
36,88,315904,205
48,88,315904,205
31,97,316416,576
43,97,316416,576
31,97,317184,576
43,97,317184,576
35,88,317952,205
47,88,317952,205
29,88,318464,205
41,88,318464,205
31,88,318976,205
43,88,318976,205
44,97,319488,512
44,88,320000,205
44,88,320512,205
44,97,321024,512
44,88,321536,205
44,88,322048,205
46,97,322560,512
46,88,323072,205
46,88,323584,205
46,97,324096,512
46,88,324608,205
46,88,325120,205
48,97,325632,512
48,88,326144,205
48,88,326656,205
48,97,327168,512
48,88,327680,205
48,88,328192,205
43,97,328704,512
43,88,329216,205
43,88,329728,205
46,97,330240,512
46,88,330752,205
46,88,331264,205
44,97,331776,512
44,88,332288,205
44,88,332800,205
44,97,333312,512
44,88,333824,205
44,88,334336,205
46,97,334848,512
46,88,335360,205
46,88,335872,205
46,97,336384,512
46,88,336896,205
46,88,337408,205
48,97,337920,512
48,88,338432,205
48,88,338944,205
48,97,339456,512
48,88,339968,205
48,88,340480,205
48,97,340992,512
48,88,341504,205
48,88,342016,205
46,97,342528,512
46,88,343040,205
46,88,343552,205
44,97,344064,512
44,88,344576,205
44,88,345088,205
44,97,345600,512
44,88,346112,205
44,88,346624,205
46,97,347136,512
46,88,347648,205
46,88,348160,205
46,97,348672,512
46,88,349184,205
46,88,349696,205
48,97,350208,512
48,88,350720,205
48,88,351232,205
48,97,351744,512
48,88,352256,205
48,88,352768,205
43,97,353280,512
43,88,353792,205
43,88,354304,205
46,97,354816,512
46,88,355328,205
46,88,355840,205
44,97,356352,512
44,88,356864,205
44,88,357376,205
44,97,357888,512
44,88,358400,205
44,88,358912,205
46,97,359424,512
46,88,359936,205
46,88,360448,205
46,97,360960,512
46,88,361472,205
46,88,361984,205
48,97,362496,512
48,88,363008,205
48,88,363520,205
48,97,364032,512
48,88,364544,205
48,88,365056,205
48,97,365568,512
48,88,366080,205
48,88,366592,205
46,97,367104,512
46,88,367616,205
46,88,368128,205
48,97,368640,512
48,88,369152,205
48,88,369664,205
48,97,370176,512
48,88,370688,205
48,88,371200,205
48,97,371712,512
48,88,372224,205
48,88,372736,205
48,97,373248,512
48,88,373760,205
48,88,374272,205
36,88,374784,3072
36,88,377856,3072
36,49,380928,3072
36,75,384000,410
39,75,385024,410
46,83,386048,768
45,83,386816,768
36,75,387584,512
36,75,388608,512
39,75,389120,512
46,83,390144,768
45,83,390912,1280
36,75,392192,410
39,75,393216,410
46,83,394240,768
45,83,395008,768
36,75,395776,512
36,75,396800,512
39,75,397312,512
46,83,398336,768
45,83,399104,1280
36,75,400384,410
39,75,401408,410
46,83,402432,768
45,83,403200,768
36,75,403968,512
36,75,404992,512
39,75,405504,512
36,75,406016,512
46,83,406528,512
36,75,407040,256
45,83,407296,768
34,75,408064,512
36,75,408576,410
39,75,409600,410
46,83,410624,768
45,83,411392,768
36,75,412160,512
36,75,413184,512
39,75,413696,512
36,75,414208,512
46,83,414720,512
36,75,415232,256
45,83,415488,768
34,75,416256,512
36,75,416768,410
39,75,417792,410
46,83,418816,768
45,83,419584,768
36,75,420352,512
36,75,421376,512
39,75,421888,512
36,75,422400,512
46,83,422912,512
36,75,423424,256
45,83,423680,768
34,75,424448,512
36,75,424960,410
39,75,425984,410
46,83,427008,768
45,83,427776,768
36,75,428544,512
36,75,429568,512
39,75,430080,512
36,75,430592,512
46,83,431104,512
36,75,431616,256
45,83,431872,768
34,75,432640,512
48,75,433152,410
51,75,433152,410
55,75,433152,410
48,75,434176,410
53,75,434176,410
57,75,434176,410
48,75,435200,768
55,75,435200,768
58,75,435200,768
48,75,435968,768
53,75,435968,256
57,75,435968,768
53,75,436224,512
48,75,436736,512
51,75,436736,512
55,75,436736,512
48,75,437760,512
51,75,437760,512
55,75,437760,512
48,75,438272,512
53,75,438272,512
57,75,438272,512
48,75,439296,768
55,75,439296,768
58,75,439296,768
48,75,440064,1280
53,75,440064,1280
57,75,440064,1280
48,75,441344,410
51,75,441344,410
55,75,441344,410
48,75,442368,410
53,75,442368,410
57,75,442368,410
48,75,443392,768
55,75,443392,768
58,75,443392,768
48,75,444160,768
53,75,444160,256
57,75,444160,768
53,75,444416,512
48,75,444928,512
51,75,444928,512
55,75,444928,512
48,75,445952,512
51,75,445952,512
55,75,445952,512
48,75,446464,512
53,75,446464,512
57,75,446464,512
48,75,447488,768
55,75,447488,768
58,75,447488,768
48,75,448256,1280
53,75,448256,1280
57,75,448256,1280
48,75,449536,410
51,75,449536,410
55,75,449536,410
48,75,450560,410
53,75,450560,410
57,75,450560,410
48,75,451584,768
55,75,451584,768
58,75,451584,768
48,75,452352,768
53,75,452352,256
57,75,452352,768
53,75,452608,512
48,75,453120,512
51,75,453120,512
55,75,453120,512
48,75,454144,512
51,75,454144,512
55,75,454144,512
48,75,454656,512
53,75,454656,512
57,75,454656,512
48,75,455680,768
55,75,455680,768
58,75,455680,768
48,75,456448,1280
53,75,456448,1280
57,75,456448,1280
48,75,457728,410
51,75,457728,410
55,75,457728,410
48,75,458752,410
53,75,458752,410
57,75,458752,410
48,75,459776,768
55,75,459776,768
58,75,459776,768
48,75,460544,768
53,75,460544,256
57,75,460544,768
53,75,460800,512
48,75,461312,512
51,75,461312,512
55,75,461312,512
48,75,462336,512
51,75,462336,512
55,75,462336,512
48,75,462848,512
53,75,462848,512
57,75,462848,512
48,75,463872,768
55,75,463872,768
58,75,463872,768
48,75,464640,1280
53,75,464640,1280
57,75,464640,1280
43,75,465920,512
48,75,466432,512
55,75,466944,512
48,75,467456,512
53,75,467968,512
48,75,468480,256
46,75,468736,512
48,75,469248,256
43,75,469504,512
43,75,470528,512
48,75,471040,512
51,75,471552,512
53,75,472064,512
48,75,472576,256
46,75,472832,512
48,75,473344,256
43,75,473600,512
43,75,474112,512
48,75,474624,512
55,75,475136,512
48,75,475648,512
53,75,476160,512
48,75,476672,256
46,75,476928,512
48,75,477440,256
43,75,477696,512
43,75,478720,512
48,75,479232,512
51,75,479744,512
53,75,480256,512
51,75,480768,256
46,75,481024,512
51,75,481536,256
46,75,481792,512
50,75,482816,512
41,75,483328,512
50,75,483840,512
51,75,484352,512
50,75,484864,256
46,75,485120,512
43,75,485632,256
41,75,485888,512
43,75,486912,512
46,75,487424,512
50,75,487936,512
53,75,488448,512
50,75,488960,256
46,75,489216,512
46,75,489728,256
43,75,489984,512
48,75,491008,512
51,75,491520,512
55,75,492032,512
60,75,492544,512
58,75,493056,256
55,75,493312,512
53,75,493824,256
51,75,494080,512
48,75,495104,512
55,75,495616,512
60,75,496128,512
65,75,496640,512
60,75,497152,256
58,75,497408,512
60,75,497920,256
55,75,498176,512
43,75,498688,512
48,75,499200,512
55,75,499712,512
48,75,500224,512
53,75,500736,512
48,75,501248,256
46,75,501504,512
48,75,502016,256
43,75,502272,512
43,75,503296,512
48,75,503808,512
51,75,504320,512
53,75,504832,512
48,75,505344,256
46,75,505600,512
48,75,506112,256
43,75,506368,512
43,75,506880,512
48,75,507392,512
55,75,507904,512
48,75,508416,512
53,75,508928,512
48,75,509440,256
46,75,509696,512
48,75,510208,256
43,75,510464,512
43,75,511488,512
48,75,512000,512
51,75,512512,512
53,75,513024,512
51,75,513536,256
46,75,513792,512
51,75,514304,256
46,75,514560,512
50,75,515584,512
41,75,516096,512
50,75,516608,512
51,75,517120,512
50,75,517632,256
46,75,517888,512
43,75,518400,256
41,75,518656,512
43,75,519680,512
46,75,520192,512
50,75,520704,512
53,75,521216,512
50,75,521728,256
46,75,521984,512
46,75,522496,256
43,75,522752,512
48,75,523776,512
51,75,524288,512
55,75,524800,512
60,75,525312,512
58,75,525824,256
55,75,526080,512
53,75,526592,256
51,75,526848,512
48,75,527872,512
55,75,528384,512
60,75,528896,512
65,75,529408,512
60,75,529920,256
58,75,530176,512
60,75,530688,256
55,75,530944,512
44,75,531456,512
56,75,531968,256
56,75,532224,256
44,75,532992,256
56,75,533248,256
44,75,533760,256
56,75,534016,512
44,75,534528,1024
44,75,535552,512
56,75,536064,256
56,75,536320,256
44,75,537088,256
56,75,537344,256
44,75,537856,256
56,75,538112,512
43,75,538624,1024
44,75,539648,512
56,75,540160,256
56,75,540416,256
44,75,541184,256
56,75,541440,256
44,75,541952,256
56,75,542208,512
44,75,542720,1024
44,75,543744,512
56,75,544256,256
56,75,544512,256
44,75,545280,256
56,75,545536,256
44,75,546048,256
56,75,546304,512
43,75,546816,512
43,75,547328,512
43,75,547840,512
55,75,548352,256
55,75,548608,256
43,75,549376,256
55,75,549632,256
43,75,550144,256
55,75,550400,512
43,75,550912,1024
43,75,551936,512
55,75,552448,256
55,75,552704,256
43,75,553472,256
55,75,553728,256
43,75,554240,256
55,75,554496,512
43,75,555008,1024
43,75,556032,512
55,75,556544,256
55,75,556800,256
43,75,557568,256
55,75,557824,256
43,75,558336,256
55,75,558592,512
43,75,559104,512
43,75,559616,512
43,75,560128,512
55,75,560640,256
55,75,560896,256
43,75,561664,256
55,75,561920,256
43,75,562432,256
55,75,562688,512
43,75,563200,1024
43,75,564224,512
55,75,564736,256
55,75,564992,256
43,75,565760,256
55,75,566016,256
43,75,566528,256
55,75,566784,512
43,75,567296,512
43,75,567808,512
43,75,568320,2048
55,75,568320,2048
41,75,570368,2048
53,75,570368,2048
39,75,572288,2176
56,75,572416,2048
38,75,574336,6272
55,75,574464,6144
48,75,580608,512
55,75,581120,512
46,75,581632,512
58,75,582144,512
44,75,582656,2048
43,75,584704,512
55,75,585216,1536
41,75,586752,2048
41,75,591872,512
45,75,592384,512
51,75,592768,128
52,75,592896,3072
41,75,595968,512
45,75,596480,512
49,75,596864,128
50,75,596992,3072
41,75,600064,512
45,75,600576,512
51,75,600960,128
52,75,601088,3072
43,75,604160,4096
72,75,608256,2048
71,75,610304,2048
70,75,612352,2048
69,75,614400,2048
68,75,616448,2048
67,75,618496,2048
44,75,620544,2048
48,75,620544,2048
51,75,620544,2048
56,75,620544,2048
46,75,622592,2048
50,75,622592,2048
53,75,622592,2048
58,75,622592,2048
47,75,624640,2048
51,75,624640,2048
54,75,624640,2048
59,75,624640,2048
49,75,626688,2048
53,75,626688,2048
56,75,626688,2048
61,75,626688,2048
50,75,628736,2048
54,75,628736,2048
57,75,628736,2048
62,75,628736,2048
52,75,630784,2048
56,75,630784,2048
59,75,630784,2048
64,75,630784,2048
