note,velocity,position,duration
57,73,2069,253
65,83,2069,253
57,54,2579,197
65,68,2579,197
60,71,3084,248
69,85,3084,248
60,54,3589,199
69,64,3589,32
65,62,3968,128
67,93,4100,1307
62,83,4100,2822
67,76,5408,261
69,88,5655,479
62,91,6165,757
64,88,6923,731
65,88,7685,476
68,88,8064,128
69,83,8196,2022
57,105,10261,253
65,115,10261,253
57,80,10771,197
65,94,10771,197
60,103,11276,248
69,117,11276,248
60,80,11781,199
69,90,11781,32
65,88,12160,128
67,83,12292,1307
62,88,12292,2822
67,76,13600,261
69,88,13847,479
62,91,14357,757
64,88,15115,731
72,88,15877,476
69,93,16388,2064
62,116,18453,253
69,105,18453,253
76,111,18453,253
69,80,18963,197
76,94,18963,197
64,103,19468,248
70,103,19468,248
77,117,19468,248
70,80,19973,32
77,90,19973,32
70,88,20352,128
79,106,20484,1554
65,88,20484,1512
72,102,20484,1554
74,101,22039,479
67,101,22039,479
65,104,22549,757
57,104,22549,757
67,101,23307,731
60,101,23307,731
69,101,24069,476
62,101,24069,476
72,106,24580,1554
64,106,24580,1554
74,101,26135,479
64,101,26135,509
76,104,26645,757
64,104,26645,757
76,101,27403,731
67,101,27403,731
72,101,28165,476
64,101,28165,476
65,93,28676,3554
69,103,28676,3584
62,101,28676,4091
67,93,32261,277
70,107,32261,247
65,93,32509,288
69,107,32509,258
64,88,32772,1007
67,102,32772,1049
60,106,32772,1049
57,73,34837,253
65,87,34837,253
57,54,35347,197
65,68,35347,197
60,71,35852,248
69,85,35852,248
60,54,36357,199
69,64,36357,32
65,62,36736,128
67,93,36868,1307
62,83,36868,2822
67,76,38176,261
69,88,38423,479
62,91,38933,757
64,88,39691,731
65,88,40453,476
68,88,40832,128
69,83,40964,2022
57,105,43029,253
65,115,43029,253
57,80,43539,197
65,94,43539,197
60,103,44044,248
69,117,44044,248
60,80,44549,199
69,90,44549,32
65,88,44928,128
67,83,45060,1307
62,88,45060,2822
67,76,46368,261
69,88,46615,479
62,91,47125,757
64,88,47883,731
72,88,48645,476
69,93,49156,2064
62,116,51221,253
69,105,51221,253
76,111,51221,253
69,80,51731,197
76,94,51731,197
64,103,52236,248
70,103,52236,248
77,117,52236,248
70,80,52741,32
77,90,52741,32
70,88,53120,128
79,106,53252,1554
65,88,53252,1512
72,102,53252,1554
74,101,54807,479
67,101,54807,479
65,104,55317,757
57,104,55317,757
67,101,56075,731
60,101,56075,731
69,101,56837,476
62,101,56837,476
72,106,57348,1554
64,106,57348,1554
74,101,58903,479
64,101,58903,509
76,104,59413,757
64,104,59413,757
76,101,60171,731
67,101,60171,731
72,101,60933,476
64,101,60933,476
65,93,61444,3554
69,103,61444,3584
62,101,61444,4091
67,93,65029,277
70,107,65029,247
65,93,65277,288
69,107,65277,258
64,98,65540,1049
67,112,65540,1049
60,106,65540,1049
57,73,67605,253
65,87,67605,253
57,54,68115,197
65,68,68115,197
55,71,68620,248
64,85,68620,248
55,54,69125,199
64,64,69125,199
62,67,69636,277
65,62,69929,233
64,62,70178,233
65,62,70427,243
62,63,70686,474
62,62,71439,554
64,62,71964,276
65,62,72211,277
72,62,72459,286
69,57,72716,432
62,67,73732,277
65,62,74025,233
64,62,74274,233
65,62,74523,243
62,63,74782,474
62,62,75535,554
64,62,76060,276
65,62,76307,277
72,62,76555,286
69,57,76812,432
62,67,77828,277
65,62,78121,233
64,62,78370,233
65,62,78619,243
62,63,78878,474
62,62,79631,554
64,62,80156,276
65,62,80403,277
72,62,80651,286
69,57,80908,432
60,67,81924,790
67,62,82715,733
65,62,83479,479
62,62,83968,170
64,57,84120,98
62,62,84252,464
60,62,84747,731
62,62,85248,128
63,62,85376,128
64,57,85509,434
62,80,86020,277
65,75,86313,233
64,75,86562,233
65,75,86811,243
62,76,87070,474
62,75,87823,554
64,75,88348,276
65,75,88595,277
72,75,88843,286
69,70,89100,432
62,80,90116,277
65,75,90409,233
64,75,90658,233
65,75,90907,243
62,76,91166,474
62,75,91919,554
64,75,92444,276
65,75,92691,277
72,75,92939,286
69,70,93196,432
62,80,94212,277
65,75,94505,233
64,75,94754,233
65,75,95003,243
62,76,95262,474
62,75,96015,554
64,75,96540,276
65,75,96787,277
72,75,97035,286
69,70,97292,432
60,54,98308,790
67,49,99099,733
65,49,99863,479
62,49,100352,170
64,44,100504,98
62,50,100636,464
60,65,101131,731
62,86,101632,128
63,86,101760,128
64,81,101893,434
62,98,102404,277
74,112,102404,292
65,93,102697,233
77,107,102697,248
64,93,102946,233
76,107,102946,248
65,93,103195,243
77,107,103195,258
62,94,103454,474
74,108,103454,504
62,93,104207,554
74,103,104207,524
64,93,104732,276
76,107,104732,246
65,93,104979,277
77,107,104979,247
72,93,105227,286
84,107,105227,256
69,88,105484,432
81,102,105484,504
62,98,106500,277
74,112,106500,292
65,93,106793,233
77,107,106793,248
64,93,107042,233
76,107,107042,248
65,93,107291,243
77,107,107291,258
62,94,107550,474
74,108,107550,504
62,93,108303,554
74,103,108303,524
64,93,108828,276
76,107,108828,246
65,93,109075,277
77,107,109075,247
72,93,109323,286
84,107,109323,256
69,88,109580,432
81,102,109580,504
62,98,110596,277
74,112,110596,292
65,93,110889,233
77,107,110889,248
64,93,111138,233
76,107,111138,248
65,93,111387,243
77,107,111387,258
62,94,111646,474
74,108,111646,504
62,93,112399,554
74,103,112399,524
64,93,112924,276
76,107,112924,246
65,93,113171,277
77,107,113171,247
72,93,113419,286
84,107,113419,256
69,88,113676,432
81,102,113676,504
60,98,114692,790
72,112,114692,790
67,93,115483,733
79,107,115483,763
65,93,116247,479
77,107,116247,479
74,101,116736,170
76,102,116744,242
64,101,116888,104
76,102,116888,98
62,93,117020,464
74,107,117020,494
60,93,117515,731
67,93,117515,731
72,107,117515,470
62,101,118016,128
63,101,118144,128
64,88,118277,434
69,88,118277,434
76,102,118277,506
62,98,118788,277
74,112,118788,292
65,93,119081,233
77,107,119081,248
64,93,119330,233
76,107,119330,248
65,93,119579,243
77,107,119579,258
62,94,119838,474
74,108,119838,504
62,93,120591,554
74,103,120591,524
64,93,121116,276
76,107,121116,246
65,93,121363,277
77,107,121363,247
72,93,121611,286
84,107,121611,256
69,88,121868,432
81,102,121868,504
62,98,122884,277
74,112,122884,292
65,93,123177,233
77,107,123177,248
64,93,123426,233
76,107,123426,248
65,93,123675,243
77,107,123675,258
62,94,123934,474
74,108,123934,504
62,93,124687,554
74,103,124687,524
64,93,125212,276
76,107,125212,246
65,93,125459,277
77,107,125459,247
72,93,125707,286
84,107,125707,256
69,88,125964,432
81,102,125964,504
62,98,126980,277
74,112,126980,292
65,93,127273,233
77,107,127273,248
64,93,127522,233
76,107,127522,248
65,93,127771,243
77,107,127771,258
62,94,128030,474
74,108,128030,504
62,93,128783,554
74,103,128783,524
64,93,129308,276
76,107,129308,246
65,93,129555,277
77,107,129555,247
72,93,129803,286
84,107,129803,256
69,88,130060,432
81,102,130060,504
61,98,131076,790
73,112,131076,790
67,93,131867,733
79,107,131867,763
65,93,132631,479
77,107,132631,479
74,101,133120,171
76,102,133128,242
64,101,133273,103
76,102,133273,97
62,93,133404,464
74,107,133404,494
61,93,133899,731
67,93,133899,731
73,107,133899,470
62,101,134400,128
63,101,134528,128
64,88,134661,434
69,88,134661,506
76,102,134661,506
62,98,135172,277
74,112,135172,292
65,93,135465,233
77,107,135465,248
64,93,135714,233
76,107,135714,248
65,93,135963,243
77,107,135963,258
62,94,136222,474
74,108,136222,504
62,93,136975,554
74,103,136975,524
64,93,137500,276
76,107,137500,246
65,93,137747,277
77,107,137747,247
72,93,137995,286
84,107,137995,256
69,88,138252,432
81,102,138252,504
62,98,139268,277
74,112,139268,292
65,93,139561,233
77,107,139561,248
64,93,139810,233
76,107,139810,248
65,93,140059,243
77,107,140059,258
62,94,140318,474
74,108,140318,504
62,93,141071,554
74,103,141071,524
64,93,141596,276
76,107,141596,246
65,93,141843,277
77,107,141843,247
72,93,142091,286
84,107,142091,256
69,88,142348,432
81,102,142348,504
62,98,143364,277
74,112,143364,292
65,93,143657,233
77,107,143657,248
64,93,143906,233
76,107,143906,248
65,93,144155,243
77,107,144155,258
62,94,144414,474
74,108,144414,504
62,93,145167,554
74,103,145167,524
64,93,145692,276
76,107,145692,246
65,93,145939,277
77,107,145939,247
72,93,146187,286
84,107,146187,256
69,88,146444,432
81,102,146444,504
60,98,147460,790
72,112,147460,790
67,93,148251,733
79,107,148251,763
65,93,149015,479
77,107,149015,479
74,101,149504,170
76,102,149512,242
64,101,149656,104
76,102,149656,98
62,93,149788,464
74,107,149788,494
60,93,150283,731
67,93,150283,731
72,107,150283,470
62,101,150784,128
63,101,150912,128
64,88,151045,434
69,88,151045,434
76,102,151045,506
62,98,151556,277
74,112,151556,292
65,93,151849,233
77,107,151849,248
64,93,152098,233
76,107,152098,248
65,93,152347,243
77,107,152347,258
62,94,152606,474
74,108,152606,504
62,93,153359,554
74,103,153359,524
64,93,153884,276
76,107,153884,246
65,93,154131,277
77,107,154131,247
72,93,154379,286
84,107,154379,256
69,88,154636,432
81,102,154636,504
62,98,155652,277
74,112,155652,292
65,93,155945,233
77,107,155945,248
64,93,156194,233
76,107,156194,248
65,93,156443,243
77,107,156443,258
62,94,156702,474
74,108,156702,504
62,93,157455,554
74,103,157455,524
64,93,157980,276
76,107,157980,246
65,93,158227,277
77,107,158227,247
72,93,158475,286
84,107,158475,256
69,88,158732,432
81,102,158732,504
62,98,159748,277
74,112,159748,292
65,93,160041,233
77,107,160041,248
64,93,160290,233
76,107,160290,248
65,93,160539,243
77,107,160539,258
62,94,160798,474
74,108,160798,504
62,93,161551,554
74,103,161551,524
64,93,162076,276
76,107,162076,246
65,93,162323,277
77,107,162323,247
72,93,162571,286
84,107,162571,256
69,88,162828,432
81,102,162828,504
61,98,163844,790
73,112,163844,790
67,93,164635,733
79,107,164635,763
65,93,165399,479
77,107,165399,479
74,101,165888,171
76,102,165896,242
64,101,166041,103
76,102,166041,97
62,93,166172,464
74,107,166172,494
61,93,166667,731
67,93,166667,731
73,107,166667,470
62,101,167168,128
63,101,167296,128
64,88,167429,434
69,88,167429,506
76,102,167429,506
69,67,167940,3079
74,81,167940,3079
65,68,171020,197
69,82,171020,197
67,67,171525,199
72,81,171525,199
69,72,172036,1554
74,86,172036,1554
72,67,173591,479
77,81,173591,509
74,70,174101,247
79,84,174101,262
72,67,174364,231
77,81,174364,231
75,75,174848,169
76,81,174856,248
69,75,174999,550
76,72,174999,105
72,67,175621,476
77,81,175621,506
69,72,176132,1554
74,86,176132,1554
69,78,178197,202
69,75,178707,277
72,70,178955,145
72,75,179469,277
76,75,179584,128
77,70,179717,286
76,80,180228,1554
65,70,182293,757
74,84,182293,757
69,75,183051,731
77,89,183051,761
72,85,183813,476
79,99,183813,506
74,98,184324,2064
77,98,184324,2064
81,112,184324,2064
77,102,187404,197
79,101,187909,199
74,98,188420,1049
77,98,188420,1049
81,112,188420,1049
72,93,189975,202
79,107,189975,202
69,93,190485,570
77,107,190485,509
72,93,190995,277
79,107,190995,247
64,88,191243,145
76,102,191243,102
64,93,192005,476
72,107,192005,506
65,98,192516,2064
69,98,192516,2064
74,112,192516,2064
77,102,195596,197
79,101,196101,199
74,98,196612,1049
77,98,196612,1049
81,112,196612,1049
77,101,198016,128
79,96,198152,304
76,101,198656,171
77,96,198809,359
72,93,199187,277
79,107,199187,247
69,88,199435,145
76,102,199435,102
76,93,200197,476
79,93,200197,476
84,107,200197,506
74,98,200708,2064
77,98,200708,2064
81,112,200708,2064
77,102,203788,197
79,101,204293,199
74,98,204804,1049
77,98,204804,1049
81,112,204804,1049
72,93,206359,202
79,107,206359,202
69,93,206869,570
77,107,206869,509
72,93,207379,277
79,107,207379,247
64,88,207627,145
76,102,207627,102
64,93,208389,476
72,107,208389,506
65,93,208900,3554
69,93,208900,3554
74,107,208900,3584
77,106,212996,277
72,98,212996,2064
76,112,212996,2064
79,101,213289,233
81,101,213538,233
79,101,213787,501
81,101,214304,231
84,101,214551,479
87,101,215040,169
88,102,215048,242
84,101,215191,105
88,102,215191,99
81,93,215324,464
86,107,215324,494
79,93,215819,731
84,107,215819,761
87,101,216576,170
88,102,216581,486
84,101,216728,360
88,102,216728,339
81,46,217092,277
89,60,217092,292
79,41,217385,233
88,55,217385,248
77,41,217634,233
86,55,217634,248
76,41,217883,243
84,55,217883,258
77,42,218142,474
86,56,218142,504
74,41,218647,509
81,55,218647,509
74,44,219157,757
83,58,219157,757
71,41,219915,731
79,55,219915,761
67,41,220677,232
74,55,220677,247
69,41,220925,243
76,55,220925,258
70,46,221188,790
77,60,221188,790
72,41,221979,501
79,55,221979,516
74,49,222496,231
76,41,222743,479
84,55,222743,509
77,44,223253,2026
81,58,223253,2026
81,46,225284,277
89,60,225284,292
79,41,225577,233
88,55,225577,248
77,41,225826,233
86,55,225826,248
76,41,226075,243
84,55,226075,258
77,42,226334,474
86,56,226334,504
74,41,226839,509
81,55,226839,509
74,44,227349,757
83,58,227349,757
71,41,228107,731
79,55,228107,761
67,41,228869,232
74,55,228869,247
69,41,229117,243
76,55,229117,258
70,46,229380,790
77,60,229380,790
72,41,230171,501
76,55,230171,516
69,49,230688,231
72,41,230935,479
76,55,230935,509
69,44,231445,2026
74,58,231445,2026
81,59,233476,277
89,73,233476,292
79,54,233769,233
88,68,233769,248
77,54,234018,233
86,68,234018,248
76,54,234267,243
84,68,234267,258
77,55,234526,474
86,69,234526,504
74,54,235031,509
81,68,235031,509
74,57,235541,757
83,71,235541,757
71,54,236299,241
79,68,236299,256
67,54,237061,232
74,68,237061,247
69,54,237309,243
76,68,237309,258
70,59,237572,790
77,73,237572,790
72,54,238363,501
79,68,238363,516
74,62,238880,231
76,54,239127,479
84,68,239127,509
77,57,239637,2026
81,71,239637,2026
81,59,241668,277
89,73,241668,292
79,54,241961,233
88,68,241961,248
77,54,242210,233
86,68,242210,248
76,54,242459,243
84,68,242459,258
77,55,242718,474
86,69,242718,504
74,54,243223,509
81,68,243223,509
74,57,243733,757
83,71,243733,757
71,54,244491,241
79,68,244491,256
67,54,245253,232
74,68,245253,247
69,54,245501,243
76,68,245501,258
70,59,245764,790
77,73,245764,790
72,54,246555,501
76,68,246555,516
69,62,247072,231
72,54,247319,479
76,68,247319,509
69,57,247829,2026
74,71,247829,2026
79,80,249860,277
77,75,250153,233
75,75,250402,233
74,75,250651,243
75,76,250910,242
74,75,251168,231
72,75,251415,232
75,75,251663,246
74,78,251925,479
69,75,252683,241
69,75,253445,232
74,75,253693,243
79,80,253956,277
77,75,254249,233
75,75,254498,233
74,75,254747,243
72,76,255006,242
70,75,255264,231
81,75,255511,232
79,75,255759,246
77,78,256021,479
79,75,256531,474
81,76,257036,752
83,75,257789,243
84,80,258052,277
83,75,258345,233
81,75,258594,233
79,75,258843,243
81,76,259102,242
79,75,259360,231
81,75,259607,232
83,75,259855,246
81,78,260117,479
69,67,260875,241
74,77,260875,256
69,67,261637,232
74,81,261637,247
72,67,261885,243
76,81,261885,258
74,72,262148,790
77,86,262148,790
76,67,262939,733
79,81,262939,763
79,67,263703,479
82,81,263703,509
81,78,264213,479
76,75,264723,474
73,76,265228,474
69,75,265733,476
79,80,266244,277
77,75,266537,233
75,75,266786,233
74,75,267035,243
75,76,267294,242
74,75,267552,231
72,75,267799,232
75,75,268047,246
74,78,268309,479
69,75,269067,241
69,75,269829,232
74,75,270077,243
79,80,270340,277
77,75,270633,233
75,75,270882,233
74,75,271131,243
72,76,271390,242
70,75,271648,231
81,75,271895,232
79,75,272143,246
77,78,272405,479
79,75,272915,474
81,76,273420,752
83,75,274173,243
84,80,274436,277
83,75,274729,233
81,75,274978,233
79,75,275227,243
81,76,275486,242
79,75,275744,231
81,75,275991,232
83,75,276239,246
81,78,276501,479
69,67,277259,241
74,77,277259,256
69,67,278021,232
74,81,278021,247
72,67,278269,243
76,81,278269,258
74,72,278532,790
77,86,278532,790
72,67,279323,763
76,81,279323,763
67,67,280087,479
72,81,280087,509
69,70,280597,1519
74,84,280597,1519
69,67,282117,232
74,81,282117,247
72,67,282365,243
76,81,282365,258
74,72,282628,790
77,86,282628,790
72,67,283419,763
76,81,283419,763
67,67,284183,479
72,81,284183,509
69,70,284693,1519
74,84,284693,1519
69,67,286213,232
74,81,286213,247
72,67,286461,243
76,81,286461,258
74,72,286724,790
77,86,286724,790
72,67,287515,763
76,81,287515,763
67,67,288279,479
72,81,288279,509
69,70,288789,1519
74,84,288789,1519
69,67,290309,232
74,81,290309,247
72,67,290557,243
76,81,290557,258
74,72,290820,790
77,86,290820,790
72,67,291611,763
76,81,291611,763
67,67,292375,479
72,81,292375,509
69,70,292885,1519
74,84,292885,1519
60,67,294405,476
64,67,294405,476
67,67,294405,506
72,81,294405,506
62,80,294916,4091
65,80,294916,4091
69,80,294916,4091
74,94,294916,4091
62,85,299012,2064
65,85,299012,2064
69,85,299012,2064
74,95,299012,2064
62,107,303104,508
65,107,303104,508
69,107,303104,508
74,121,303104,538
38,65,2069,1014
40,63,3084,1011
34,93,4100,292
34,88,4393,233
38,88,4642,233
34,88,4891,258
34,89,5150,242
40,88,5408,231
34,88,5655,232
40,88,5903,246
34,91,6165,262
34,88,6428,231
43,88,6675,232
34,88,6923,256
34,89,7180,241
40,88,7437,232
34,88,7685,247
34,88,7933,258
34,93,8196,292
34,88,8489,233
40,88,8738,233
34,88,8987,258
34,89,9246,242
40,88,9504,231
34,88,9751,232
40,88,9999,246
34,91,10261,262
34,88,10524,231
40,88,10771,232
34,88,11019,241
36,89,11276,241
40,88,11533,232
43,88,11781,232
36,88,12029,243
38,93,12292,292
38,88,12585,233
45,88,12834,233
38,88,13083,258
38,89,13342,242
43,88,13600,231
41,88,13847,232
36,88,14095,246
38,91,14357,262
38,88,14620,231
45,88,14867,232
38,88,15115,256
38,89,15372,241
43,88,15629,232
41,88,15877,232
36,88,16125,243
38,93,16388,292
38,88,16681,233
45,88,16930,233
38,88,17179,258
38,89,17438,242
43,88,17696,231
41,88,17943,232
36,88,18191,246
38,91,18453,262
38,88,18716,231
36,77,19468,256
36,76,19725,262
31,94,20484,292
31,89,20777,263
38,89,21026,263
31,89,21275,258
31,90,21534,257
31,89,21792,261
43,89,22039,262
45,89,22287,276
31,92,22549,262
31,89,22812,261
38,89,23059,262
31,89,23307,256
31,90,23564,256
31,89,23821,262
43,89,24069,262
45,89,24317,273
33,94,24580,292
33,89,24873,263
40,89,25122,263
33,89,25371,273
43,90,25630,272
33,89,25888,261
45,89,26135,262
48,89,26383,276
33,92,26645,262
33,89,26908,261
40,89,27155,262
33,89,27403,271
43,90,27660,271
33,89,27917,262
45,89,28165,262
48,89,28413,273
34,94,28676,292
34,89,28969,263
41,89,29218,263
34,89,29467,273
43,90,29726,272
34,89,29984,261
41,89,30231,262
34,89,30479,276
45,92,30741,277
34,89,31004,261
41,89,31251,262
34,89,31499,271
43,90,31756,271
34,89,32013,262
43,89,32261,262
41,89,32509,273
33,94,32772,292
33,89,33065,263
36,89,33314,263
33,89,33563,273
43,90,33822,272
33,89,34080,261
40,89,34327,262
43,89,34575,276
38,65,34837,1014
40,63,35852,1011
34,93,36868,292
34,88,37161,233
38,88,37410,233
34,88,37659,258
34,89,37918,242
40,88,38176,231
34,88,38423,232
40,88,38671,246
34,91,38933,262
34,88,39196,231
43,88,39443,232
34,88,39691,256
34,89,39948,241
40,88,40205,232
34,88,40453,247
34,88,40701,258
34,93,40964,292
34,88,41257,233
40,88,41506,233
34,88,41755,258
34,89,42014,242
40,88,42272,231
34,88,42519,232
40,88,42767,246
34,91,43029,262
34,88,43292,231
40,88,43539,232
34,88,43787,241
36,89,44044,241
40,88,44301,232
43,88,44549,232
36,88,44797,243
38,93,45060,292
38,88,45353,233
45,88,45602,233
38,88,45851,258
38,89,46110,242
43,88,46368,231
41,88,46615,232
36,88,46863,246
38,91,47125,262
38,88,47388,231
45,88,47635,232
38,88,47883,256
38,89,48140,241
43,88,48397,232
41,88,48645,232
36,88,48893,243
38,93,49156,292
38,88,49449,233
45,88,49698,233
38,88,49947,258
38,89,50206,242
43,88,50464,231
41,88,50711,232
36,88,50959,246
38,91,51221,262
38,88,51484,231
36,77,52236,256
36,76,52493,262
31,94,53252,292
31,89,53545,263
38,89,53794,263
31,89,54043,258
31,90,54302,257
31,89,54560,261
43,89,54807,262
45,89,55055,276
31,92,55317,262
31,89,55580,261
38,89,55827,262
31,89,56075,256
31,90,56332,256
31,89,56589,262
43,89,56837,262
45,89,57085,273
33,94,57348,292
33,89,57641,263
40,89,57890,263
33,89,58139,273
43,90,58398,272
33,89,58656,261
45,89,58903,262
48,89,59151,276
33,92,59413,262
33,89,59676,261
40,89,59923,262
33,89,60171,271
43,90,60428,271
33,89,60685,262
45,89,60933,262
48,89,61181,273
34,94,61444,292
34,89,61737,263
41,89,61986,263
34,89,62235,273
43,90,62494,272
34,89,62752,261
41,89,62999,262
34,89,63247,276
45,92,63509,277
34,89,63772,261
41,89,64019,262
34,89,64267,271
43,90,64524,271
34,89,64781,262
43,89,65029,262
41,89,65277,273
33,106,65540,790
36,101,66331,733
38,65,67605,1014
36,63,68620,1011
46,62,69636,4091
34,55,69636,307
34,50,70427,273
34,62,71439,246
34,50,72211,197
34,51,72716,197
36,50,73221,567
48,62,73732,4091
34,45,73732,273
34,50,74523,273
34,62,75535,246
34,50,76307,197
34,51,76812,197
36,50,77317,567
50,62,77828,4091
38,45,77828,273
38,50,78619,273
38,50,79631,276
33,50,80156,261
38,62,80403,197
38,63,80908,197
36,62,81413,567
45,62,81924,4091
34,45,81924,273
34,50,82715,273
34,62,83479,479
36,65,83989,247
40,62,84747,241
43,62,85509,476
46,75,86020,4091
34,60,86020,307
41,70,86020,307
34,55,86811,273
41,65,86811,273
34,67,87823,246
41,77,87823,261
34,67,88595,197
41,77,88595,197
34,68,89100,197
41,82,89100,197
36,67,89605,567
43,81,89605,506
48,75,90116,4091
34,50,90116,273
41,64,90116,273
34,55,90907,273
41,65,90907,273
34,67,91919,246
41,77,91919,261
34,67,92691,197
41,77,92691,197
34,68,93196,197
41,82,93196,197
36,67,93701,567
43,81,93701,506
50,75,94212,4091
38,50,94212,273
45,64,94212,273
38,55,95003,273
45,65,95003,273
38,67,96015,246
45,77,96015,261
33,75,96540,231
38,67,96787,197
45,77,96787,197
38,68,97292,197
45,82,97292,197
36,67,97797,567
43,81,97797,506
34,32,98308,273
34,37,99099,273
34,49,99863,479
36,52,100373,247
40,65,101131,241
43,86,101893,476
34,106,102404,277
41,93,102697,233
46,107,102697,248
34,101,102946,233
41,93,103195,243
46,107,103195,258
34,102,103454,242
41,93,103712,231
46,107,103712,246
34,101,103959,232
41,93,104207,246
46,107,104207,261
34,104,104469,247
41,93,104732,231
46,107,104732,246
34,101,104979,232
41,93,105227,241
46,107,105227,256
34,102,105484,241
41,93,105741,232
46,107,105741,247
36,93,105989,567
48,107,105989,506
34,96,106500,243
41,93,106793,233
46,107,106793,248
34,101,107042,233
41,93,107291,243
46,107,107291,258
34,102,107550,242
41,93,107808,231
46,107,107808,246
34,101,108055,232
41,93,108303,246
46,107,108303,261
34,104,108565,247
41,93,108828,231
46,107,108828,246
34,101,109075,232
41,104,109323,241
46,99,109323,256
34,94,109580,197
46,108,109580,197
36,93,110085,567
48,107,110085,506
38,96,110596,243
45,93,110889,233
50,107,110889,248
38,101,111138,233
45,93,111387,243
50,107,111387,258
38,102,111646,242
45,93,111904,231
50,107,111904,246
38,101,112151,232
45,93,112399,246
50,107,112399,261
38,104,112661,247
45,93,112924,231
50,107,112924,246
38,101,113171,232
45,93,113419,241
50,107,113419,256
38,102,113676,241
45,93,113933,232
50,107,113933,247
36,93,114181,567
48,107,114181,506
34,76,114692,273
41,76,114692,273
46,90,114692,292
34,81,115483,273
41,81,115483,273
46,91,115483,258
34,81,116000,246
41,81,116000,246
46,91,116000,246
34,93,116247,479
41,93,116247,479
46,107,116247,509
36,96,116757,247
48,110,116757,247
40,93,117515,241
52,107,117515,256
43,93,118277,476
55,107,118277,506
34,106,118788,277
41,93,119081,233
46,107,119081,248
34,101,119330,233
41,93,119579,243
46,107,119579,258
34,102,119838,242
41,93,120096,231
46,107,120096,246
34,101,120343,232
41,93,120591,246
46,107,120591,261
34,104,120853,247
41,93,121116,231
46,107,121116,246
34,101,121363,232
41,93,121611,241
46,107,121611,256
34,102,121868,241
41,93,122125,232
46,107,122125,247
36,93,122373,567
48,107,122373,506
34,96,122884,243
41,93,123177,233
46,107,123177,248
34,101,123426,233
41,93,123675,243
46,107,123675,258
34,102,123934,242
41,93,124192,231
46,107,124192,246
34,101,124439,232
41,93,124687,246
46,107,124687,261
34,104,124949,247
41,93,125212,231
46,107,125212,246
34,101,125459,232
41,104,125707,241
46,99,125707,256
34,94,125964,197
46,108,125964,197
36,93,126469,567
48,107,126469,506
38,96,126980,243
45,93,127273,233
50,107,127273,248
38,101,127522,233
45,93,127771,243
50,107,127771,258
38,102,128030,242
45,93,128288,231
50,107,128288,246
38,101,128535,232
45,93,128783,246
50,107,128783,261
38,104,129045,247
45,93,129308,231
50,107,129308,246
38,101,129555,232
45,93,129803,241
50,107,129803,256
38,102,130060,241
45,93,130317,232
50,107,130317,247
36,93,130565,567
48,107,130565,506
33,76,131076,273
40,76,131076,273
45,90,131076,292
33,81,131867,273
40,81,131867,273
45,91,131867,258
33,81,132384,246
40,81,132384,246
45,91,132384,246
33,93,132631,479
40,93,132631,479
45,107,132631,509
37,96,133141,247
49,110,133141,247
40,93,133899,241
52,107,133899,256
45,101,134661,476
34,106,135172,277
41,93,135465,233
46,107,135465,248
34,101,135714,233
41,93,135963,243
46,107,135963,258
34,102,136222,242
41,93,136480,231
46,107,136480,246
34,101,136727,232
41,93,136975,246
46,107,136975,261
34,104,137237,247
41,93,137500,231
46,107,137500,246
34,101,137747,232
41,93,137995,241
46,107,137995,256
34,102,138252,241
41,93,138509,232
46,107,138509,247
36,93,138757,567
48,107,138757,506
34,96,139268,243
41,93,139561,233
46,107,139561,248
34,101,139810,233
41,93,140059,243
46,107,140059,258
34,102,140318,242
41,93,140576,231
46,107,140576,246
34,101,140823,232
41,93,141071,246
46,107,141071,261
34,104,141333,247
41,93,141596,231
46,107,141596,246
34,101,141843,232
41,104,142091,241
46,99,142091,256
34,94,142348,197
46,108,142348,197
36,93,142853,567
48,107,142853,506
38,96,143364,243
45,93,143657,233
50,107,143657,248
38,101,143906,233
45,93,144155,243
50,107,144155,258
38,102,144414,242
45,93,144672,231
50,107,144672,246
38,101,144919,232
45,93,145167,246
50,107,145167,261
38,104,145429,247
45,93,145692,231
50,107,145692,246
38,101,145939,232
45,93,146187,241
50,107,146187,256
38,102,146444,241
45,93,146701,232
50,107,146701,247
36,93,146949,567
48,107,146949,506
34,76,147460,273
41,76,147460,273
46,90,147460,292
34,81,148251,273
41,81,148251,273
46,91,148251,258
34,81,148768,246
41,81,148768,246
46,91,148768,246
34,93,149015,479
41,93,149015,479
46,107,149015,509
36,96,149525,247
48,110,149525,247
40,93,150283,241
52,107,150283,256
43,93,151045,476
55,107,151045,506
34,106,151556,277
41,93,151849,233
46,107,151849,248
34,101,152098,233
41,93,152347,243
46,107,152347,258
34,102,152606,242
41,93,152864,231
46,107,152864,246
34,101,153111,232
41,93,153359,246
46,107,153359,261
34,104,153621,247
41,93,153884,231
46,107,153884,246
34,101,154131,232
41,93,154379,241
46,107,154379,256
34,102,154636,241
41,93,154893,232
46,107,154893,247
36,93,155141,567
48,107,155141,506
34,96,155652,243
41,93,155945,233
46,107,155945,248
34,101,156194,233
41,93,156443,243
46,107,156443,258
34,102,156702,242
41,93,156960,231
46,107,156960,246
34,101,157207,232
41,93,157455,246
46,107,157455,261
34,104,157717,247
41,93,157980,231
46,107,157980,246
34,101,158227,232
41,104,158475,241
46,99,158475,256
34,94,158732,197
46,108,158732,197
36,93,159237,567
48,107,159237,506
38,96,159748,243
45,93,160041,233
50,107,160041,248
38,101,160290,233
45,93,160539,243
50,107,160539,258
38,102,160798,242
45,93,161056,231
50,107,161056,246
38,101,161303,232
45,93,161551,246
50,107,161551,261
38,104,161813,247
45,93,162076,231
50,107,162076,246
38,101,162323,232
45,93,162571,241
50,107,162571,256
38,102,162828,241
45,93,163085,232
50,107,163085,247
36,93,163333,567
48,107,163333,506
33,76,163844,273
40,76,163844,273
45,90,163844,292
33,81,164635,273
40,81,164635,273
45,91,164635,258
33,81,165152,246
40,81,165152,246
45,91,165152,246
33,93,165399,479
40,93,165399,479
45,107,165399,509
37,96,165909,247
49,110,165909,247
40,93,166667,241
52,107,166667,256
45,101,167429,476
46,68,167940,292
46,63,168233,263
46,64,168990,257
46,63,169248,261
46,66,170005,262
46,63,170268,261
46,64,171020,256
46,63,171277,262
52,75,171525,476
48,68,172036,292
48,63,172329,263
48,64,173086,257
48,63,173344,261
48,66,174101,262
48,63,174364,261
48,64,175116,256
48,63,175373,262
53,75,175621,476
50,68,176132,292
50,63,176425,263
50,64,177182,257
50,63,177440,261
50,78,178197,202
50,75,178955,102
48,75,179717,476
45,80,180228,234
45,63,180770,248
45,63,181019,104
45,63,181783,202
50,66,182293,202
53,83,183051,102
57,93,183813,199
50,98,184324,277
53,112,184324,292
43,106,184324,511
53,93,184617,233
57,107,184617,248
52,93,184866,233
55,107,184866,248
53,93,185115,258
57,107,185115,258
50,94,185374,242
53,108,185374,257
43,102,185374,474
50,93,186127,554
53,103,186127,524
43,104,186389,479
52,93,186652,276
55,107,186652,246
53,93,186899,277
57,107,186899,247
60,101,187147,286
57,96,187404,432
43,102,187404,474
48,101,187909,476
50,98,188420,277
53,112,188420,292
45,106,188420,511
53,93,188713,233
57,107,188713,248
52,93,188962,233
55,107,188962,248
53,93,189211,258
57,107,189211,258
50,94,189470,242
53,108,189470,257
45,102,189470,474
48,93,189975,509
53,107,189975,509
48,88,190485,1477
52,102,190485,1519
45,104,190485,479
45,102,191500,474
52,101,192005,476
50,98,192516,277
53,112,192516,292
46,106,192516,511
53,93,192809,233
57,107,192809,248
52,93,193058,233
55,107,193058,248
53,93,193307,258
57,107,193307,258
50,94,193566,242
53,108,193566,257
46,102,193566,474
50,93,194319,554
53,103,194319,524
46,104,194581,479
52,93,194844,276
55,107,194844,246
53,93,195091,277
57,107,195091,247
60,101,195339,286
57,96,195596,432
46,102,195596,504
46,101,196101,476
45,106,196612,277
52,101,196905,94
57,101,197154,94
52,101,197403,104
45,102,197662,242
52,101,197920,92
57,101,198167,93
52,101,198415,107
45,104,198677,262
45,101,198940,231
52,101,199435,241
52,101,199949,232
57,101,200197,476
50,98,200708,277
53,112,200708,292
43,106,200708,511
53,93,201001,233
57,107,201001,248
52,93,201250,233
55,107,201250,248
53,93,201499,258
57,107,201499,258
50,94,201758,242
53,108,201758,257
43,102,201758,474
50,93,202511,554
53,103,202511,524
43,104,202773,479
52,93,203036,276
55,107,203036,246
53,93,203283,277
57,107,203283,247
60,101,203531,286
57,96,203788,432
43,102,203788,474
48,101,204293,476
50,98,204804,277
53,112,204804,292
45,106,204804,511
53,93,205097,233
57,107,205097,248
52,93,205346,233
55,107,205346,248
53,93,205595,258
57,107,205595,258
50,94,205854,242
53,108,205854,257
45,102,205854,474
48,93,206359,509
53,107,206359,509
48,88,206869,1477
52,102,206869,1519
45,104,206869,479
45,102,207884,474
52,101,208389,476
50,98,208900,277
53,112,208900,292
46,94,208900,572
53,93,209193,233
57,107,209193,248
52,93,209442,233
55,107,209442,248
53,93,209691,258
57,107,209691,258
50,94,209950,242
53,108,209950,257
46,90,209950,535
50,93,210703,554
53,103,210703,524
46,92,210965,540
52,93,211228,276
55,107,211228,246
53,93,211475,277
57,107,211475,247
60,101,211723,286
57,96,211980,432
46,90,211980,504
46,89,212485,537
45,98,212996,2064
52,98,212996,2064
57,112,212996,2064
48,104,215061,247
52,101,215819,241
57,101,216581,476
50,54,217092,2064
47,52,219157,2026
46,54,221188,1049
48,50,222238,1014
50,52,223253,2026
50,54,225284,2064
47,52,227349,2026
46,54,229380,1049
48,50,230430,1014
50,52,231445,2026
50,67,233476,2064
47,65,235541,2026
46,67,237572,1049
48,63,238622,1014
50,65,239637,2026
50,67,241668,2064
47,65,243733,2026
46,67,245764,1049
48,63,246814,1014
50,65,247829,2026
39,79,249860,277
34,73,250153,233
39,74,250402,233
41,75,250651,501
39,74,251168,231
38,74,251415,232
39,74,251663,246
38,77,251925,247
50,75,252188,231
45,75,252435,232
57,75,252683,241
41,76,252940,241
53,75,253197,232
33,72,253445,232
45,75,253693,243
39,79,253956,277
34,73,254249,233
39,74,254498,233
41,75,254747,501
39,74,255264,231
36,73,255511,232
39,74,255759,246
38,77,256021,247
50,75,256284,231
40,74,256531,232
52,75,256779,241
41,76,257036,241
53,75,257293,232
48,75,257541,232
41,75,257789,243
43,80,258052,277
38,74,258345,233
43,75,258594,233
48,75,258843,501
47,75,259360,231
43,75,259607,232
41,75,259855,246
38,77,260117,247
33,72,260380,231
40,74,260627,232
33,72,260875,241
41,76,261132,241
33,72,261389,232
43,75,261637,232
33,72,261885,243
34,78,262148,277
38,74,262441,233
41,75,262690,233
46,75,262939,501
45,75,263456,231
41,75,263703,232
38,74,263951,246
37,77,264213,247
45,75,264723,232
40,75,265228,241
45,75,265733,232
39,79,266244,277
34,73,266537,233
39,74,266786,233
41,75,267035,501
39,74,267552,231
38,74,267799,232
39,74,268047,246
38,77,268309,247
50,75,268572,231
45,75,268819,232
57,75,269067,241
41,76,269324,241
53,75,269581,232
33,72,269829,232
45,75,270077,243
39,79,270340,277
34,73,270633,233
39,74,270882,233
41,75,271131,501
39,74,271648,231
36,73,271895,232
39,74,272143,246
38,77,272405,247
50,75,272668,231
40,74,272915,232
52,75,273163,241
41,76,273420,241
53,75,273677,232
48,75,273925,232
41,75,274173,243
43,80,274436,277
38,74,274729,233
43,75,274978,233
48,75,275227,501
47,75,275744,231
43,75,275991,232
41,75,276239,246
38,77,276501,247
33,72,276764,231
40,74,277011,232
33,72,277259,241
41,76,277516,241
33,72,277773,232
43,75,278021,232
33,72,278269,243
34,78,278532,277
38,74,278825,233
41,75,279074,233
46,75,279323,501
45,75,279840,231
41,75,280087,232
38,74,280335,246
34,76,280597,247
38,74,280860,231
41,75,281107,232
46,75,281355,498
45,75,281869,232
41,75,282117,232
38,74,282365,243
36,78,282628,277
40,74,282921,233
43,75,283170,233
48,75,283419,501
43,75,283936,231
40,74,284183,232
38,74,284431,246
36,76,284693,247
40,74,284956,231
43,75,285203,232
48,75,285451,498
43,75,285965,232
40,74,286213,232
36,73,286461,243
34,78,286724,277
38,74,287017,233
41,75,287266,233
46,75,287515,501
45,75,288032,231
41,75,288279,232
38,74,288527,246
34,76,288789,247
38,74,289052,231
41,75,289299,232
46,75,289547,498
45,75,290061,232
41,75,290309,232
38,74,290557,243
36,78,290820,277
40,74,291113,233
43,75,291362,233
48,75,291611,501
43,75,292128,231
40,74,292375,232
38,74,292623,246
36,76,292885,247
40,74,293148,231
43,75,293395,232
48,75,293643,731
45,75,294405,476
38,107,294916,511
45,107,294916,511
50,121,294916,541
33,102,295707,243
40,102,295707,243
45,116,295707,258
36,102,296471,479
43,102,296471,509
48,116,296471,509
35,105,296981,479
43,105,296981,479
47,119,296981,509
31,102,297739,241
38,102,297739,241
43,116,297739,256
33,102,298501,476
40,102,298501,476
45,116,298501,506
38,107,299012,511
45,107,299012,511
50,121,299012,541
33,102,299803,243
40,102,299803,243
45,116,299803,258
36,102,300567,479
43,102,300567,509
48,116,300567,509
35,105,301077,479
43,105,301077,479
47,119,301077,509
31,102,301835,241
38,102,301835,241
43,116,301835,256
33,102,302597,476
40,102,302597,476
45,116,302597,506
38,107,303104,508
45,107,303104,508
50,121,303104,538
