note,velocity,position,duration
81,48,51840,80
79,35,51920,80
81,38,52000,80
79,35,52080,80
81,38,52160,80
79,36,52240,80
81,40,52320,80
79,36,52400,80
81,40,52480,80
79,36,52560,80
81,40,52640,80
79,36,52720,80
81,40,52800,80
79,37,52880,80
81,40,52960,80
79,36,53040,80
81,40,53120,80
79,36,53200,80
81,40,53280,80
79,35,53360,80
81,38,53440,80
79,33,53520,80
81,38,53600,80
79,34,53680,80
81,38,53760,80
79,34,53840,80
81,36,53920,80
79,33,54000,80
81,37,54080,80
79,33,54160,80
81,37,54240,80
79,33,54320,80
81,38,54400,80
79,32,54480,80
81,37,54560,80
79,32,54640,80
81,38,54720,80
79,32,54800,80
81,37,54880,80
79,32,54960,80
81,36,55040,80
79,32,55120,80
81,36,55200,80
79,34,55280,80
81,37,55360,80
79,33,55440,80
81,36,55520,80
79,32,55600,80
81,36,55680,80
79,32,55760,80
81,37,55840,80
79,33,55920,80
81,38,56000,80
79,33,56080,80
81,39,56160,80
79,35,56240,80
81,40,56320,80
79,36,56400,80
81,40,56480,80
79,36,56560,80
81,40,56640,80
79,37,56720,80
81,40,56800,80
79,36,56880,80
81,40,56960,80
79,36,57040,80
81,39,57120,80
79,36,57200,80
81,38,57280,80
79,32,57360,80
81,37,57440,80
79,33,57520,80
81,39,57600,80
79,32,57680,80
81,36,57760,80
79,31,57840,80
81,36,57920,80
79,30,58000,80
81,36,58080,80
79,31,58160,80
81,36,58240,80
79,34,58320,80
78,36,58400,80
79,31,58480,80
81,48,160320,80
79,35,160400,80
81,38,160480,80
79,35,160560,80
81,38,160640,80
79,36,160720,80
81,40,160800,80
79,36,160880,80
81,40,160960,80
79,36,161040,80
81,40,161120,80
79,36,161200,80
81,40,161280,80
79,37,161360,80
81,40,161440,80
79,36,161520,80
81,40,161600,80
79,36,161680,80
81,40,161760,80
79,35,161840,80
81,38,161920,80
79,33,162000,80
81,38,162080,80
79,34,162160,80
81,38,162240,80
79,34,162320,80
81,36,162400,80
79,33,162480,80
81,37,162560,80
79,33,162640,80
81,37,162720,80
79,33,162800,80
81,38,162880,80
79,32,162960,80
81,37,163040,80
79,32,163120,80
81,38,163200,80
79,32,163280,80
81,37,163360,80
79,32,163440,80
81,36,163520,80
79,32,163600,80
81,36,163680,80
79,34,163760,80
81,37,163840,80
79,33,163920,80
81,36,164000,80
79,32,164080,80
81,36,164160,80
79,32,164240,80
81,37,164320,80
79,33,164400,80
81,38,164480,80
79,33,164560,80
81,39,164640,80
79,35,164720,80
81,40,164800,80
79,36,164880,80
81,40,164960,80
79,36,165040,80
81,40,165120,80
79,37,165200,80
81,40,165280,80
79,36,165360,80
81,40,165440,80
79,36,165520,80
81,39,165600,80
79,36,165680,80
81,38,165760,80
79,32,165840,80
81,37,165920,80
79,33,166000,80
81,39,166080,80
79,32,166160,80
81,36,166240,80
79,31,166320,80
81,36,166400,80
79,30,166480,80
81,36,166560,80
79,31,166640,80
81,36,166720,80
79,34,166800,80
78,36,166880,80
79,31,166960,80
81,48,322560,80
79,35,322640,80
81,38,322720,80
79,35,322800,80
81,38,322880,80
79,36,322960,80
81,40,323040,80
79,36,323120,80
81,40,323200,80
79,36,323280,80
81,40,323360,80
79,36,323440,80
81,40,323520,80
79,37,323600,80
81,40,323680,80
79,36,323760,80
81,40,323840,80
79,36,323920,80
81,40,324000,80
79,35,324080,80
81,38,324160,80
79,33,324240,80
81,38,324320,80
79,34,324400,80
81,38,324480,80
79,34,324560,80
81,36,324640,80
79,33,324720,80
81,37,324800,80
79,33,324880,80
81,37,324960,80
79,33,325040,80
81,38,325120,80
79,32,325200,80
81,37,325280,80
79,32,325360,80
81,38,325440,80
79,32,325520,80
81,37,325600,80
79,32,325680,80
81,36,325760,80
79,32,325840,80
81,36,325920,80
79,34,326000,80
81,37,326080,80
79,33,326160,80
81,36,326240,80
79,32,326320,80
81,36,326400,80
79,32,326480,80
81,37,326560,80
79,33,326640,80
81,38,326720,80
79,33,326800,80
81,39,326880,80
79,35,326960,80
81,40,327040,80
79,36,327120,80
81,40,327200,80
79,36,327280,80
81,40,327360,80
79,37,327440,80
81,40,327520,80
79,36,327600,80
81,40,327680,80
79,36,327760,80
81,39,327840,80
79,36,327920,80
81,38,328000,80
79,32,328080,80
81,37,328160,80
79,33,328240,80
81,39,328320,80
79,32,328400,80
81,36,328480,80
79,31,328560,80
81,36,328640,80
79,30,328720,80
81,36,328800,80
79,31,328880,80
81,36,328960,80
79,34,329040,80
78,36,329120,80
79,31,329200,80
79,54,456960,80
81,35,457040,80
79,44,457120,80
81,38,457200,80
79,44,457280,80
81,37,457360,80
79,41,457440,80
81,36,457520,80
79,41,457600,80
81,37,457680,80
79,41,457760,80
81,35,457840,80
79,41,457920,80
81,37,458000,80
79,41,458080,80
81,36,458160,80
79,41,458240,80
81,36,458320,80
79,41,458400,80
81,37,458480,80
79,41,458560,80
81,37,458640,80
79,41,458720,80
81,36,458800,80
79,41,458880,80
81,36,458960,80
79,41,459040,80
81,37,459120,80
79,41,459200,80
81,37,459280,80
79,41,459360,80
81,36,459440,80
79,41,459520,80
81,37,459600,80
79,41,459680,80
81,36,459760,80
79,40,459840,80
81,36,459920,80
79,39,460000,80
81,35,460080,80
79,39,460160,80
81,35,460240,80
79,39,460320,80
81,35,460400,80
79,39,460480,80
81,35,460560,80
79,39,460640,80
81,35,460720,80
79,36,460800,80
81,32,460880,80
79,35,460960,80
81,31,461040,80
79,35,461120,80
81,31,461200,80
79,35,461280,80
81,31,461360,80
79,35,461440,80
81,31,461520,80
79,35,461600,80
81,31,461680,80
79,36,461760,80
81,32,461840,80
79,35,461920,80
81,31,462000,80
79,35,462080,80
81,31,462160,80
79,35,462240,80
81,31,462320,80
79,35,462400,80
81,31,462480,80
79,35,462560,80
81,31,462640,80
79,36,462720,80
81,32,462800,80
79,35,462880,80
81,32,462960,80
79,36,463040,80
81,32,463120,80
79,37,463200,80
81,33,463280,80
79,38,463360,80
81,34,463440,80
79,39,463520,80
81,35,463600,80
79,41,463680,80
81,37,463760,80
79,40,463840,80
81,36,463920,80
79,42,464000,80
81,37,464080,80
79,42,464160,80
81,38,464240,80
79,43,464320,80
81,39,464400,80
79,44,464480,80
81,39,464560,80
79,46,464640,80
81,31,464720,80
79,33,464800,80
81,29,464880,80
79,32,464960,80
81,28,465040,80
79,31,465120,80
81,27,465200,80
79,31,465280,80
81,27,465360,80
79,31,465440,80
81,27,465520,80
79,32,465600,80
81,28,465680,80
79,31,465760,80
81,27,465840,80
79,31,465920,80
81,27,466000,80
79,31,466080,80
81,27,466160,80
79,31,466240,80
81,27,466320,80
79,31,466400,80
81,27,466480,80
79,37,466560,80
81,28,466640,80
79,34,466720,80
81,28,466800,80
79,34,466880,80
81,28,466960,80
81,27,467120,80
79,31,467200,80
81,27,467280,80
79,31,467360,80
81,27,467440,80
79,32,467520,80
81,28,467600,80
79,31,467680,80
81,27,467760,80
79,31,467840,80
81,27,467920,80
79,31,468000,80
81,27,468080,80
79,31,468160,80
81,27,468240,80
79,31,468320,80
81,27,468400,80
79,36,468480,80
81,31,468560,80
79,33,468640,80
81,29,468720,80
79,32,468800,80
81,28,468880,80
79,31,468960,80
81,27,469040,80
79,31,469120,80
81,27,469200,80
79,31,469280,80
81,27,469360,80
79,32,469440,80
81,28,469520,80
79,31,469600,80
81,27,469680,80
79,31,469760,80
81,27,469840,80
79,31,469920,80
81,27,470000,80
79,31,470080,80
81,27,470160,80
79,31,470240,80
81,27,470320,80
79,32,470400,80
81,28,470480,80
79,31,470560,80
81,27,470640,80
79,31,470720,80
81,27,470800,80
79,31,470880,80
81,27,470960,80
79,31,471040,80
81,27,471120,80
79,31,471200,80
81,27,471280,80
79,32,471360,80
81,28,471440,80
79,32,471520,80
81,28,471600,80
79,34,471680,80
81,30,471760,80
79,35,471840,80
81,31,471920,80
79,36,472000,80
81,32,472080,80
79,38,472160,80
81,34,472240,80
80,46,472320,80
79,31,472400,80
80,33,472480,80
79,29,472560,80
80,32,472640,80
79,28,472720,80
80,31,472800,80
79,27,472880,80
80,31,472960,80
79,27,473040,80
80,31,473120,80
79,27,473200,80
80,32,473280,80
79,28,473360,80
80,31,473440,80
79,27,473520,80
80,31,473600,80
79,27,473680,80
80,31,473760,80
79,27,473840,80
80,31,473920,80
79,27,474000,80
80,31,474080,80
79,27,474160,80
80,37,474240,80
79,28,474320,80
80,34,474400,80
79,28,474480,80
80,34,474560,80
79,28,474640,80
80,31,474720,80
79,27,474800,80
80,31,474880,80
79,27,474960,80
80,31,475040,80
79,27,475120,80
80,32,475200,80
79,28,475280,80
80,31,475360,80
79,27,475440,80
80,31,475520,80
79,27,475600,80
80,31,475680,80
79,27,475760,80
80,31,475840,80
79,27,475920,80
77,31,476000,80
79,27,476080,80
80,36,476160,80
82,31,476240,80
80,33,476320,80
82,29,476400,80
80,32,476480,80
82,28,476560,80
75,31,476640,80
77,27,476720,80
75,31,476800,80
77,27,476880,80
75,31,476960,80
77,27,477040,80
75,32,477120,80
77,28,477200,80
75,31,477280,80
77,27,477360,80
75,31,477440,80
77,27,477520,80
75,31,477600,80
77,27,477680,80
75,31,477760,80
77,27,477840,80
75,31,477920,80
77,27,478000,80
75,32,478080,80
77,28,478160,80
75,31,478240,80
77,27,478320,80
75,31,478400,80
77,27,478480,80
75,31,478560,80
77,27,478640,80
75,31,478720,80
77,27,478800,80
75,31,478880,80
77,27,478960,80
75,32,479040,80
77,28,479120,80
75,32,479200,80
77,28,479280,80
75,34,479360,80
77,30,479440,80
76,35,479520,80
77,31,479600,80
76,36,479680,80
77,32,479760,60
76,38,479820,60
77,34,479880,60
76,34,479935,60
77,36,480000,80
79,31,480080,80
77,33,480160,80
79,29,480240,80
77,32,480320,80
79,28,480400,80
73,31,480480,80
72,27,480560,80
73,31,480640,80
72,27,480720,80
73,31,480800,80
72,27,480880,80
73,32,480960,80
72,28,481040,80
73,31,481120,80
72,27,481200,80
73,31,481280,80
72,27,481360,80
73,31,481440,80
72,27,481520,80
73,31,481600,80
72,27,481680,80
73,31,481760,80
72,27,481840,80
73,32,481920,80
72,28,482000,80
73,31,482080,80
72,27,482160,80
73,31,482240,80
72,27,482320,80
73,31,482400,80
72,27,482480,80
73,31,482560,80
72,27,482640,80
73,31,482720,80
72,27,482800,80
73,32,482880,80
72,28,482960,80
73,32,483040,80
72,28,483120,80
73,34,483200,80
72,30,483280,80
73,35,483360,80
72,29,483440,80
73,34,483520,80
72,29,483600,80
73,34,483680,80
72,28,483760,80
73,32,483840,80
72,28,483920,80
73,31,484000,80
72,27,484080,80
73,31,484160,80
72,27,484240,80
73,31,484320,80
72,27,484400,80
73,31,484480,80
72,27,484560,80
73,31,484640,80
72,27,484720,80
73,32,484800,80
72,28,484880,80
73,32,484960,80
72,28,485040,80
73,34,485120,80
72,30,485200,80
73,34,485280,80
72,29,485360,80
73,34,485440,80
72,28,485520,80
73,34,485600,80
72,29,485680,80
74,32,485760,80
72,28,485840,80
74,32,485920,80
72,28,486000,80
74,34,486080,80
72,30,486160,80
74,33,486240,80
72,28,486320,80
74,35,486400,80
72,28,486480,80
74,34,486560,80
72,30,486640,80
74,33,486720,80
72,29,486800,80
74,33,486880,80
72,29,486960,80
74,36,487040,80
72,32,487120,80
74,37,487200,80
72,33,487280,80
74,36,487360,80
72,31,487440,80
74,37,487520,80
72,31,487600,80
74,35,487680,80
72,30,487760,80
74,35,487840,80
72,31,487920,80
74,37,488000,80
72,33,488080,80
74,39,488160,80
72,34,488240,80
74,39,488320,80
72,36,488400,80
74,39,488480,80
72,35,488560,80
74,36,488640,80
72,32,488720,80
74,36,488800,80
72,32,488880,80
74,39,488960,80
72,35,489040,80
74,40,489120,80
72,36,489200,80
74,40,489280,80
72,35,489360,60
74,40,489420,60
72,34,489480,60
74,34,489540,60
72,38,489600,80
74,33,489680,80
76,39,489760,80
74,34,489840,80
76,42,489920,80
74,37,490000,80
76,44,490080,80
74,39,490160,80
76,43,490240,80
74,37,490320,80
76,45,490400,80
74,40,490480,80
76,42,490560,80
74,37,490640,80
76,42,490720,80
74,37,490800,80
76,46,490880,80
74,41,490960,80
76,48,491040,80
74,43,491120,80
76,49,491200,80
74,40,491280,80
76,49,491360,80
74,42,491440,80
76,46,491520,80
74,40,491600,80
76,47,491680,80
74,41,491760,80
76,49,491840,80
74,45,491920,80
76,52,492000,80
74,47,492080,80
76,53,492160,80
74,43,492240,80
76,52,492320,80
74,53,492400,80
76,50,492480,80
74,44,492560,80
76,50,492640,80
74,44,492720,80
76,54,492800,80
74,48,492880,80
76,58,492960,80
74,47,493040,80
76,56,493120,80
74,48,493200,80
76,58,493280,80
74,48,493360,80
52,28,120,120
55,30,240,120
60,32,360,120
64,34,480,120
52,31,600,120
55,31,720,120
60,31,840,120
64,35,960,120
52,30,1080,120
55,31,1200,120
60,33,1320,120
64,36,1440,120
52,33,1560,120
55,33,1680,120
60,33,1800,120
53,28,2040,120
55,31,2160,120
59,33,2280,120
62,36,2400,120
53,33,2520,120
55,33,2640,120
59,34,2760,120
52,28,3000,120
55,30,3120,120
60,32,3240,120
64,34,3360,120
52,32,3480,120
55,32,3600,120
60,33,3720,120
52,28,3960,120
55,30,4080,120
60,32,4200,120
64,34,4320,120
52,31,4440,120
55,31,4560,120
60,31,4680,120
64,35,4800,120
52,30,4920,120
55,31,5040,120
60,33,5160,120
64,36,5280,120
52,33,5400,120
55,33,5520,120
60,33,5640,120
53,28,5880,120
55,31,6000,120
59,33,6120,120
62,36,6240,120
53,33,6360,120
55,33,6480,120
59,34,6600,120
52,30,6960,120
55,32,7080,120
60,34,7200,120
64,32,7320,120
62,32,7440,120
60,33,7560,120
59,35,7680,120
55,28,7800,120
59,30,7920,120
62,32,8040,120
67,34,8160,120
55,31,8280,120
59,31,8400,120
62,31,8520,120
67,35,8640,120
55,30,8760,120
59,31,8880,120
62,33,9000,120
67,36,9120,120
55,33,9240,120
59,33,9360,120
67,33,9480,120
55,28,9720,120
60,31,9840,120
67,33,9960,120
55,28,10200,120
64,31,10320,120
67,33,10440,120
55,28,10680,120
62,30,10800,120
67,32,10920,120
55,28,11160,120
59,30,11280,120
67,32,11400,120
55,28,11640,120
59,30,11760,120
62,32,11880,120
67,34,12000,120
55,31,12120,120
59,31,12240,120
62,31,12360,120
67,35,12480,120
55,30,12600,120
59,31,12720,120
62,33,12840,120
67,36,12960,120
55,33,13080,120
59,33,13200,120
67,33,13320,120
55,28,13560,120
60,31,13680,120
67,33,13800,120
55,28,14040,120
63,31,14160,120
67,33,14280,120
55,28,14520,120
62,30,14640,120
67,32,14760,120
55,28,15000,120
59,30,15120,120
67,32,15240,120
55,28,15480,120
60,31,15600,120
67,33,15720,120
55,28,15960,120
64,31,16080,120
67,33,16200,120
55,28,16440,120
62,30,16560,120
67,32,16680,120
55,28,16920,120
59,30,17040,120
67,32,17160,120
55,28,17400,120
60,31,17520,120
67,33,17640,120
55,28,17880,120
60,31,18000,120
63,33,18120,120
55,28,18360,120
59,30,18480,120
62,32,18600,120
55,28,18840,120
60,30,18960,120
63,32,19080,120
55,28,19320,120
59,30,19440,120
62,32,19560,120
55,28,19800,120
60,30,19920,120
63,32,20040,120
55,28,20280,120
59,30,20400,120
62,32,20520,120
55,28,20760,120
57,30,20880,120
60,32,21000,120
55,36,21240,120
59,38,21360,120
62,35,21480,120
67,43,21600,120
71,39,21720,120
69,41,21840,120
66,38,21960,120
67,43,22080,120
59,38,22200,120
62,41,22320,120
67,38,22440,120
71,46,22560,120
74,41,22680,120
72,41,22800,120
69,37,22920,120
71,47,23040,120
67,42,23160,120
71,47,23280,120
74,43,23400,120
79,51,23520,120
83,46,23640,120
81,48,23760,120
78,43,23880,120
79,52,24000,120
83,52,24120,120
81,53,24240,120
84,54,24360,120
83,55,24480,120
86,56,24600,120
85,56,24720,120
88,57,24840,120
86,58,24960,120
89,59,25080,120
88,60,25200,120
91,56,25320,120
89,61,25440,120
93,62,25560,120
89,63,25680,120
88,59,25800,120
86,65,25920,120
89,66,26040,120
88,66,26160,120
91,64,26280,120
89,68,26400,120
93,69,26520,120
89,70,26640,120
88,66,26760,120
86,69,26880,120
89,65,27000,120
88,67,27120,120
84,60,27240,120
83,64,27360,120
86,59,27480,120
84,62,27600,120
81,55,27720,120
79,59,27840,120
83,54,27960,120
81,56,28080,120
77,51,28200,120
76,54,28320,120
79,46,28440,120
77,49,28560,120
74,42,28680,120
72,49,28800,120
91,50,29280,240
79,50,29280,240
91,54,29760,720
79,54,29760,720
88,47,30480,240
76,47,30480,240
86,50,30720,480
74,50,30720,480
79,41,31200,480
67,41,31200,480
84,50,31680,480
72,50,31680,480
88,47,32160,240
76,47,32160,240
91,50,33120,240
79,50,33120,240
91,54,33600,720
79,54,33600,720
88,47,34320,240
76,47,34320,240
86,50,34560,480
74,50,34560,480
79,41,35040,480
67,41,35040,480
84,50,35520,240
72,50,35520,240
89,50,36960,240
77,50,36960,240
89,54,37440,720
77,54,37440,720
86,47,38160,240
74,47,38160,240
88,50,38400,480
76,50,38400,480
84,41,38880,480
72,41,38880,480
83,50,39360,480
71,50,39360,480
86,47,39840,240
74,47,39840,240
89,50,40800,240
77,50,40800,240
89,54,41280,720
77,54,41280,720
86,47,42000,240
74,47,42000,240
87,50,42240,480
75,50,42240,480
84,41,42720,480
72,41,42720,480
83,50,43200,480
71,50,43200,480
86,47,43680,480
74,47,43680,480
88,50,44160,480
76,50,44160,480
84,42,44640,480
72,42,44640,480
83,53,45120,480
71,53,45120,480
86,52,45600,480
74,52,45600,480
87,50,46080,480
75,50,46080,480
84,41,46560,480
72,41,46560,480
79,50,47040,480
79,47,47520,480
81,33,48000,80
79,33,48080,80
81,33,48160,80
79,33,48240,80
81,34,48320,80
79,34,48400,80
81,35,48480,80
79,35,48560,80
81,35,48640,80
79,35,48720,80
81,36,48800,80
79,36,48880,80
81,37,48960,80
79,37,49040,80
81,37,49120,80
79,39,49200,80
81,39,49280,80
79,39,49360,80
81,39,49440,80
79,39,49520,80
81,41,49600,80
79,41,49680,80
81,41,49760,80
79,41,49840,80
81,42,49920,80
79,42,50000,80
81,42,50080,80
79,42,50160,80
81,42,50240,80
79,44,50320,80
81,44,50400,80
79,44,50480,80
81,45,50560,80
79,45,50640,80
81,45,50720,80
79,46,50800,80
81,46,50880,80
79,47,50960,80
81,47,51040,80
79,48,51120,80
81,49,51200,80
79,49,51280,80
81,49,51360,80
79,49,51440,80
81,50,51520,80
79,50,51600,80
81,51,51680,80
79,51,51760,80
91,89,52320,240
91,90,52800,720
88,85,53520,240
86,90,53760,480
79,84,54240,70
84,87,54720,480
88,84,55200,240
91,90,56160,240
91,92,56640,720
88,84,57360,240
86,90,57600,480
79,82,58080,70
84,86,58560,240
60,68,59040,80
64,62,59120,80
60,62,59200,80
55,62,59280,80
52,62,59360,80
55,62,59440,80
60,68,59520,80
65,62,59600,80
60,62,59680,80
57,62,59760,80
53,62,59840,80
57,62,59920,80
60,68,60000,80
64,61,60080,80
60,61,60160,80
55,61,60240,80
52,61,60320,80
55,61,60400,80
60,63,60480,80
62,59,60560,80
60,59,60640,80
53,59,60720,80
50,59,60800,80
53,59,60880,80
60,68,60960,80
63,61,61040,80
60,61,61120,80
54,61,61200,80
51,61,61280,80
54,61,61360,80
60,68,61440,80
64,62,61520,80
60,62,61600,80
55,62,61680,80
52,62,61760,80
55,62,61840,80
59,68,61920,80
62,61,62000,80
59,61,62080,80
53,61,62160,80
50,61,62240,80
53,61,62320,80
55,68,62400,80
60,62,62480,80
55,62,62560,80
52,62,62640,80
48,62,62720,80
52,62,62800,80
64,68,62880,80
67,62,62960,80
64,62,63040,80
60,62,63120,80
55,62,63200,80
60,62,63280,80
65,68,63360,80
69,62,63440,80
65,62,63520,80
60,62,63600,80
57,62,63680,80
60,62,63760,80
64,68,63840,80
67,61,63920,80
64,61,64000,80
60,61,64080,80
55,61,64160,80
60,61,64240,80
62,63,64320,80
65,59,64400,80
62,59,64480,80
60,59,64560,80
53,59,64640,80
60,59,64720,80
63,68,64800,80
66,61,64880,80
63,61,64960,80
60,61,65040,80
54,61,65120,80
60,61,65200,80
64,68,65280,80
67,62,65360,80
64,62,65440,80
60,62,65520,80
55,62,65600,80
60,62,65680,80
62,68,65760,80
65,61,65840,80
62,61,65920,80
59,61,66000,80
53,61,66080,80
59,61,66160,80
60,68,66240,80
64,62,66320,80
60,62,66400,80
52,62,66480,80
64,62,66560,80
52,62,66640,80
52,70,66800,80
64,70,66880,80
52,71,67040,80
64,72,67120,80
57,73,67280,80
69,74,67360,80
59,75,67520,80
71,77,67600,80
60,78,67760,80
72,79,67840,80
62,80,68000,80
74,81,68080,80
76,85,68160,80
64,85,68240,80
76,84,68320,80
64,84,68400,80
76,84,68480,80
64,82,68560,80
64,79,68720,80
76,78,68800,80
62,77,68960,80
74,77,69040,80
60,75,69200,80
72,75,69280,80
59,74,69440,80
71,74,69520,80
60,73,69680,80
72,73,69760,80
57,72,69920,80
69,73,70000,80
64,85,70080,80
52,77,70160,80
64,77,70240,80
52,77,70320,80
64,77,70400,80
52,77,70480,80
64,70,70640,80
76,70,70720,80
64,71,70880,80
76,72,70960,80
69,73,71120,80
81,74,71200,80
71,75,71360,80
83,77,71440,80
72,78,71600,80
84,79,71680,80
74,80,71840,80
86,81,71920,80
88,85,72000,80
76,85,72080,80
88,84,72160,80
76,84,72240,80
88,84,72320,80
76,82,72400,80
76,79,72560,80
88,78,72640,80
74,77,72800,80
86,77,72880,80
72,75,73040,80
84,75,73120,80
71,74,73280,80
83,74,73360,80
72,73,73520,80
84,73,73600,80
69,72,73760,80
81,73,73840,80
76,82,73920,80
64,78,74000,80
76,78,74080,80
64,78,74160,80
76,78,74240,80
64,78,74320,80
81,80,74400,80
69,75,74480,80
81,75,74560,80
69,75,74640,80
81,75,74720,80
69,75,74800,80
81,82,74880,80
69,75,74960,80
81,75,75040,80
69,75,75120,80
81,75,75200,80
69,75,75280,80
81,82,75360,80
69,75,75440,80
81,75,75520,80
69,75,75600,80
81,75,75680,80
69,75,75760,80
81,81,75840,80
69,75,75920,80
81,75,76000,80
69,75,76080,80
81,75,76160,80
69,75,76240,80
77,81,76320,80
79,77,76400,80
81,77,76480,80
77,79,76560,80
76,75,76640,80
74,75,76720,80
72,80,76800,80
74,74,76880,80
76,74,76960,80
72,78,77040,80
71,71,77120,80
69,71,77200,80
71,81,77280,80
72,73,77360,80
74,73,77440,80
71,79,77520,80
69,75,77600,80
68,75,77680,80
69,79,77760,80
57,75,77840,80
69,75,77920,80
57,75,78000,80
69,75,78080,80
57,75,78160,80
69,80,78240,80
57,75,78320,80
69,75,78400,80
57,75,78480,80
69,75,78560,80
57,75,78640,80
69,82,78720,80
57,75,78800,80
69,75,78880,80
57,75,78960,80
69,75,79040,80
57,75,79120,80
69,82,79200,80
57,75,79280,80
69,75,79360,80
57,75,79440,80
69,75,79520,80
57,75,79600,80
69,81,79680,80
57,75,79760,80
69,75,79840,80
57,75,79920,80
69,75,80000,80
57,75,80080,80
65,81,80160,80
67,77,80240,80
69,77,80320,80
65,79,80400,80
64,75,80480,80
62,75,80560,80
60,80,80640,80
62,74,80720,80
64,74,80800,80
60,78,80880,80
59,71,80960,80
57,71,81040,80
59,81,81120,80
60,73,81200,80
62,73,81280,80
59,79,81360,80
57,75,81440,80
56,75,81520,80
57,79,81600,240
88,95,82080,120
76,80,82080,120
88,95,82320,120
76,80,82320,120
76,91,82560,120
64,77,82560,120
76,91,82800,120
64,77,82800,120
64,79,83040,120
76,93,83040,120
68,82,83280,120
80,97,83280,120
69,85,83520,480
81,100,83520,480
83,58,84000,120
86,53,84120,120
84,53,84240,120
83,53,84360,120
84,56,84480,120
88,53,84600,120
86,53,84720,120
84,53,84840,120
83,58,84960,120
86,53,85080,120
84,53,85200,120
83,53,85320,120
81,52,85440,480
88,95,85920,120
76,80,85920,120
88,95,86160,120
76,80,86160,120
76,91,86400,120
64,77,86400,120
76,91,86640,120
64,77,86640,120
64,79,86880,120
76,93,86880,120
68,82,87120,120
80,97,87120,120
69,85,87360,480
81,100,87360,480
83,58,87840,120
86,53,87960,120
84,53,88080,120
83,52,88200,120
84,55,88320,120
88,52,88440,120
86,51,88560,120
84,51,88680,120
83,56,88800,120
86,51,88920,120
84,51,89040,120
83,51,89160,120
81,53,89280,120
84,49,89400,120
83,48,89520,120
81,48,89640,120
83,52,89760,120
86,46,89880,120
84,46,90000,120
83,45,90120,120
84,46,90240,120
88,43,90360,120
86,42,90480,120
84,42,90600,120
83,45,90720,120
86,40,90840,120
84,39,90960,120
83,39,91080,120
81,39,91200,120
84,37,91320,120
83,37,91440,120
81,37,91560,120
83,41,91680,120
86,37,91800,120
84,37,91920,120
83,37,92040,120
81,39,92160,120
84,37,92280,120
83,37,92400,120
81,37,92520,120
83,41,92640,120
86,37,92760,120
84,37,92880,120
83,37,93000,120
81,92,93120,240
76,92,93600,240
76,97,94080,720
72,53,94800,240
71,58,95040,480
64,54,95520,480
69,54,96000,240
53,102,96960,240
72,92,97440,240
84,92,97440,240
72,95,97920,720
84,95,97920,720
69,57,98640,240
81,57,98640,240
67,60,98880,480
79,60,98880,480
60,56,99360,480
72,56,99360,480
65,56,99840,240
77,56,99840,240
55,103,100800,240
77,63,101280,240
89,90,101280,240
77,67,101760,720
89,93,101760,720
74,56,102480,240
86,66,102480,240
71,58,102720,480
83,69,102720,480
67,49,103200,480
79,58,103200,480
65,54,103680,720
77,64,103680,720
62,44,104400,240
74,52,104400,240
59,46,104640,480
71,55,104640,480
55,41,105120,480
67,49,105120,480
53,43,105600,720
65,51,105600,720
50,34,106320,240
62,40,106320,240
47,34,106560,480
59,40,106560,480
55,40,107520,480
52,28,108600,120
55,30,108720,120
60,32,108840,120
64,34,108960,120
52,31,109080,120
55,31,109200,120
60,31,109320,120
64,35,109440,120
52,30,109560,120
55,31,109680,120
60,33,109800,120
64,36,109920,120
52,33,110040,120
55,33,110160,120
60,33,110280,120
53,28,110520,120
55,31,110640,120
59,33,110760,120
62,36,110880,120
53,33,111000,120
55,33,111120,120
59,34,111240,120
52,28,111480,120
55,30,111600,120
60,32,111720,120
64,34,111840,120
52,32,111960,120
55,32,112080,120
60,33,112200,120
52,28,112440,120
55,30,112560,120
60,32,112680,120
64,34,112800,120
52,31,112920,120
55,31,113040,120
60,31,113160,120
64,35,113280,120
52,30,113400,120
55,31,113520,120
60,33,113640,120
64,36,113760,120
52,33,113880,120
55,33,114000,120
60,33,114120,120
53,28,114360,120
55,31,114480,120
59,33,114600,120
62,36,114720,120
53,33,114840,120
55,33,114960,120
59,34,115080,120
52,30,115440,120
55,32,115560,120
60,34,115680,120
64,32,115800,120
62,32,115920,120
60,33,116040,120
59,35,116160,120
55,28,116280,120
59,30,116400,120
62,32,116520,120
67,34,116640,120
55,31,116760,120
59,31,116880,120
62,31,117000,120
67,35,117120,120
55,30,117240,120
59,31,117360,120
62,33,117480,120
67,36,117600,120
55,33,117720,120
59,33,117840,120
67,33,117960,120
55,28,118200,120
60,31,118320,120
67,33,118440,120
55,28,118680,120
64,31,118800,120
67,33,118920,120
55,28,119160,120
62,30,119280,120
67,32,119400,120
55,28,119640,120
59,30,119760,120
67,32,119880,120
55,28,120120,120
59,30,120240,120
62,32,120360,120
67,34,120480,120
55,31,120600,120
59,31,120720,120
62,31,120840,120
67,35,120960,120
55,30,121080,120
59,31,121200,120
62,33,121320,120
67,36,121440,120
55,33,121560,120
59,33,121680,120
67,33,121800,120
55,28,122040,120
60,31,122160,120
67,33,122280,120
55,28,122520,120
63,31,122640,120
67,33,122760,120
55,28,123000,120
62,30,123120,120
67,32,123240,120
55,28,123480,120
59,30,123600,120
67,32,123720,120
55,28,123960,120
60,31,124080,120
67,33,124200,120
55,28,124440,120
64,31,124560,120
67,33,124680,120
55,28,124920,120
62,30,125040,120
67,32,125160,120
55,28,125400,120
59,30,125520,120
67,32,125640,120
55,28,125880,120
60,31,126000,120
67,33,126120,120
55,28,126360,120
60,31,126480,120
63,33,126600,120
55,28,126840,120
59,30,126960,120
62,32,127080,120
55,28,127320,120
60,30,127440,120
63,32,127560,120
55,28,127800,120
59,30,127920,120
62,32,128040,120
55,28,128280,120
60,30,128400,120
63,32,128520,120
55,28,128760,120
59,30,128880,120
62,32,129000,120
55,28,129240,120
57,30,129360,120
60,32,129480,120
55,36,129720,120
59,38,129840,120
62,35,129960,120
67,43,130080,120
71,39,130200,120
69,41,130320,120
66,38,130440,120
67,43,130560,120
59,38,130680,120
62,41,130800,120
67,38,130920,120
71,46,131040,120
74,41,131160,120
72,41,131280,120
69,37,131400,120
71,47,131520,120
67,42,131640,120
71,47,131760,120
74,43,131880,120
79,51,132000,120
83,46,132120,120
81,48,132240,120
78,43,132360,120
79,52,132480,120
83,52,132600,120
81,53,132720,120
84,54,132840,120
83,55,132960,120
86,56,133080,120
85,56,133200,120
88,57,133320,120
86,58,133440,120
89,59,133560,120
88,60,133680,120
91,56,133800,120
89,61,133920,120
93,62,134040,120
89,63,134160,120
88,59,134280,120
86,65,134400,120
89,66,134520,120
88,66,134640,120
91,64,134760,120
89,68,134880,120
93,69,135000,120
89,70,135120,120
88,66,135240,120
86,69,135360,120
89,65,135480,120
88,67,135600,120
84,60,135720,120
83,64,135840,120
86,59,135960,120
84,62,136080,120
81,55,136200,120
79,59,136320,120
83,54,136440,120
81,56,136560,120
77,51,136680,120
76,54,136800,120
79,46,136920,120
77,49,137040,120
74,42,137160,120
72,49,137280,120
91,50,137760,240
79,50,137760,240
91,54,138240,720
79,54,138240,720
88,47,138960,240
76,47,138960,240
86,50,139200,480
74,50,139200,480
79,41,139680,480
67,41,139680,480
84,50,140160,480
72,50,140160,480
88,47,140640,240
76,47,140640,240
91,50,141600,240
79,50,141600,240
91,54,142080,720
79,54,142080,720
88,47,142800,240
76,47,142800,240
86,50,143040,480
74,50,143040,480
79,41,143520,480
67,41,143520,480
84,50,144000,240
72,50,144000,240
89,50,145440,240
77,50,145440,240
89,54,145920,720
77,54,145920,720
86,47,146640,240
74,47,146640,240
88,50,146880,480
76,50,146880,480
84,41,147360,480
72,41,147360,480
83,50,147840,480
71,50,147840,480
86,47,148320,240
74,47,148320,240
89,50,149280,240
77,50,149280,240
89,54,149760,720
77,54,149760,720
86,47,150480,240
74,47,150480,240
87,50,150720,480
75,50,150720,480
84,41,151200,480
72,41,151200,480
83,50,151680,480
71,50,151680,480
86,47,152160,480
74,47,152160,480
88,50,152640,480
76,50,152640,480
84,42,153120,480
72,42,153120,480
83,53,153600,480
71,53,153600,480
86,52,154080,480
74,52,154080,480
87,50,154560,480
75,50,154560,480
84,41,155040,480
72,41,155040,480
79,50,155520,480
79,47,156000,480
81,37,156480,80
79,37,156560,80
81,37,156640,80
79,37,156720,80
81,38,156800,80
79,38,156880,80
81,39,156960,80
79,39,157040,80
81,39,157120,80
79,39,157200,80
81,40,157280,80
79,40,157360,80
81,41,157440,80
79,41,157520,80
81,41,157600,80
79,43,157680,80
81,43,157760,80
79,43,157840,80
81,44,157920,80
79,44,158000,80
81,45,158080,80
79,45,158160,80
81,45,158240,80
79,45,158320,80
81,47,158400,80
79,47,158480,80
81,47,158560,80
79,47,158640,80
81,47,158720,80
79,48,158800,80
81,48,158880,80
79,48,158960,80
81,49,159040,80
79,49,159120,80
81,50,159200,80
79,51,159280,80
81,51,159360,80
79,52,159440,80
81,52,159520,80
79,52,159600,80
81,54,159680,80
79,54,159760,80
81,54,159840,80
79,55,159920,80
81,55,160000,80
79,55,160080,80
81,56,160160,80
79,56,160240,80
91,89,160800,240
91,90,161280,720
88,85,162000,240
86,90,162240,480
79,84,162720,70
84,87,163200,480
88,84,163680,240
91,90,164640,240
91,92,165120,720
88,84,165840,240
86,90,166080,480
79,82,166560,70
84,86,167040,240
55,67,167400,120
63,62,167640,120
62,62,167880,120
60,65,168120,120
55,61,168360,120
57,62,168600,120
59,62,168840,120
60,65,169080,120
60,61,169320,120
68,66,169560,120
67,62,169800,120
65,68,170040,120
60,63,170280,120
62,63,170520,120
64,63,170760,120
65,66,171000,120
65,62,171240,120
73,68,171480,120
72,64,171720,120
70,68,171960,120
68,62,172200,120
67,62,172440,120
65,62,172680,120
63,69,172920,120
63,63,173160,120
51,40,173400,120
55,40,173400,120
63,63,173400,120
53,40,173640,120
56,50,173640,120
63,63,173640,120
55,44,173880,120
58,56,173880,120
63,71,173880,120
56,40,174120,120
60,51,174120,120
63,64,174120,120
58,40,174360,120
61,51,174360,120
63,64,174360,120
55,40,174600,120
58,51,174600,120
63,64,174600,120
60,82,174720,240
55,79,174960,120
67,79,174960,120
63,62,175200,120
75,74,175200,120
62,62,175440,120
74,74,175440,120
60,65,175680,120
72,77,175680,120
55,61,175920,120
67,72,175920,120
57,62,176160,120
69,73,176160,120
59,62,176400,120
71,73,176400,120
60,65,176640,120
72,77,176640,120
60,61,176880,120
72,72,176880,120
68,66,177120,120
80,78,177120,120
67,62,177360,120
79,73,177360,120
65,68,177600,120
77,80,177600,120
60,63,177840,120
72,75,177840,120
62,63,178080,120
74,75,178080,120
64,63,178320,120
76,75,178320,120
65,66,178560,120
77,78,178560,120
65,62,178800,120
77,74,178800,120
73,68,179040,120
85,80,179040,120
72,64,179280,120
84,76,179280,120
70,68,179520,120
82,80,179520,120
68,62,179760,120
80,73,179760,120
67,62,180000,120
79,74,180000,120
65,62,180240,120
77,74,180240,120
63,69,180480,120
75,82,180480,120
63,63,180720,120
75,75,180720,120
63,60,180960,120
67,60,180960,120
75,75,180960,120
65,60,181200,120
68,60,181200,120
75,75,181200,120
67,67,181440,120
70,67,181440,120
75,84,181440,120
68,60,181680,120
72,60,181680,120
75,76,181680,120
70,60,181920,120
73,60,181920,120
75,76,181920,120
67,60,182160,120
70,60,182160,120
75,76,182160,120
68,71,182400,240
72,76,182400,240
67,55,182640,80
65,56,182720,80
67,57,182800,80
68,58,182880,80
72,60,182960,80
73,61,183040,80
75,62,183120,80
77,63,183200,80
79,63,183280,80
80,63,183360,80
82,63,183440,80
84,65,183520,80
85,66,183600,80
84,63,183680,80
82,63,183760,80
85,66,183840,80
84,63,183920,80
82,63,184000,80
85,67,184080,80
84,63,184160,80
82,63,184240,80
80,76,184320,240
64,55,184560,80
62,56,184640,80
64,57,184720,80
65,58,184800,80
68,60,184880,80
70,61,184960,80
72,62,185040,80
74,63,185120,80
76,63,185200,80
77,63,185280,80
79,63,185360,80
80,65,185440,80
82,66,185520,80
80,63,185600,80
79,63,185680,80
82,66,185760,80
80,63,185840,80
79,63,185920,80
82,67,186000,80
80,63,186080,80
79,63,186160,80
80,70,186240,80
82,68,186320,80
80,68,186400,80
79,70,186480,80
80,66,186560,80
79,66,186640,80
77,69,186720,80
79,66,186800,80
77,65,186880,80
75,69,186960,80
77,64,187040,80
75,64,187120,80
74,68,187200,80
75,64,187280,80
74,64,187360,80
75,68,187440,80
77,64,187520,80
75,64,187600,80
77,70,187680,80
79,65,187760,80
77,66,187840,80
78,70,187920,80
79,66,188000,80
78,66,188080,80
79,72,188160,80
80,67,188240,80
79,67,188320,80
78,67,188400,80
79,67,188480,80
78,67,188560,80
79,72,188640,80
80,67,188720,80
79,67,188800,80
78,67,188880,80
79,67,188960,80
78,67,189040,80
79,72,189120,80
80,67,189200,80
79,67,189280,80
77,69,189360,80
79,65,189440,80
77,65,189520,80
75,68,189600,80
77,63,189680,80
75,63,189760,80
74,67,189840,80
75,62,189920,80
74,62,190000,80
72,82,190080,240
63,79,190320,120
75,79,190320,120
72,62,190560,120
84,74,190560,120
70,62,190800,120
82,74,190800,120
68,65,191040,120
80,77,191040,120
63,61,191280,120
75,72,191280,120
65,62,191520,120
77,73,191520,120
67,62,191760,120
79,73,191760,120
68,65,192000,120
80,77,192000,120
60,61,192240,120
72,72,192240,120
68,66,192480,120
80,78,192480,120
67,62,192720,120
79,73,192720,120
65,68,192960,120
77,80,192960,120
60,63,193200,120
72,75,193200,120
62,63,193440,120
74,75,193440,120
64,63,193680,120
76,75,193680,120
65,66,193920,120
77,78,193920,120
77,62,194160,120
89,74,194160,120
80,68,194400,120
92,80,194400,120
79,64,194640,120
91,76,194640,120
77,68,194880,120
89,80,194880,120
75,62,195120,120
87,73,195120,120
74,62,195360,120
86,74,195360,120
72,62,195600,120
84,74,195600,120
71,69,195840,480
83,82,195840,480
67,66,196320,238
79,78,196320,238
67,62,196560,238
79,73,196560,238
67,66,196800,238
79,78,196800,238
67,61,197040,238
79,72,197040,238
67,66,197280,238
79,78,197280,238
67,62,197520,238
79,73,197520,238
72,71,197760,240
84,76,197760,240
72,55,198000,80
74,56,198080,80
76,57,198160,80
77,58,198240,80
76,60,198320,80
77,61,198400,80
79,62,198480,80
77,63,198560,80
79,63,198640,80
80,68,198720,80
82,64,198800,80
80,64,198880,80
79,68,198960,80
80,64,199040,80
79,64,199120,80
77,70,199200,80
79,65,199280,80
77,66,199360,80
78,70,199440,80
79,66,199520,80
78,66,199600,80
79,72,199680,80
80,67,199760,80
79,67,199840,80
78,67,199920,80
79,67,200000,80
78,67,200080,80
79,72,200160,80
80,67,200240,80
79,67,200320,80
78,67,200400,80
79,67,200480,80
78,67,200560,80
79,72,200640,80
80,67,200720,80
79,67,200800,80
77,69,200880,80
79,65,200960,80
77,65,201040,80
75,68,201120,80
77,63,201200,80
75,63,201280,80
74,67,201360,80
75,62,201440,80
74,62,201520,80
72,72,201600,80
71,67,201680,80
72,67,201760,80
74,67,201840,80
72,67,201920,80
74,67,202000,80
75,75,202080,80
74,70,202160,80
75,70,202240,80
77,70,202320,80
75,70,202400,80
77,70,202480,80
79,75,202560,80
80,70,202640,80
79,70,202720,80
77,72,202800,80
79,68,202880,80
77,68,202960,80
75,71,203040,80
77,66,203120,80
75,66,203200,80
74,70,203280,80
75,65,203360,80
74,65,203440,80
72,75,203520,80
71,70,203600,80
72,70,203680,80
74,70,203760,80
72,70,203840,80
74,70,203920,80
75,79,204000,80
74,73,204080,80
75,73,204160,80
77,73,204240,80
75,73,204320,80
77,73,204400,80
79,79,204480,80
80,73,204560,80
79,73,204640,80
77,75,204720,80
79,71,204800,80
77,71,204880,80
75,74,204960,80
77,69,205040,80
75,69,205120,80
74,73,205200,80
75,68,205280,80
74,68,205360,80
72,79,205440,80
71,69,205520,80
72,71,205600,80
74,73,205680,80
75,75,205760,80
77,78,205840,80
79,80,205920,80
80,77,206000,80
79,75,206080,80
77,74,206160,80
75,73,206240,80
74,73,206320,80
72,79,206400,80
71,69,206480,80
72,71,206560,80
74,73,206640,80
75,75,206720,80
77,78,206800,80
79,80,206880,80
80,77,206960,80
79,75,207040,80
77,74,207120,80
75,73,207200,80
74,73,207280,80
60,85,207360,120
72,101,207360,120
60,85,207840,120
72,101,207840,120
60,83,208320,240
72,99,208320,240
60,62,209280,480
72,73,209280,480
60,47,210240,480
72,56,210240,480
56,108,211200,240
63,81,211680,240
68,81,211680,240
72,81,211680,240
75,96,211680,240
75,81,212160,720
80,81,212160,720
84,81,212160,720
87,97,212160,720
84,64,212880,240
75,54,212880,240
73,57,213120,480
82,68,213120,480
73,50,213600,480
75,60,213600,480
72,50,214080,480
80,60,214080,480
53,108,215040,240
60,81,215520,240
65,81,215520,240
68,81,215520,240
72,96,215520,240
72,79,216000,720
77,79,216000,720
80,79,216000,720
84,95,216000,720
80,64,216720,240
72,54,216720,240
70,57,216960,480
79,68,216960,480
70,50,217440,480
72,60,217440,480
68,50,217920,480
77,60,217920,480
61,108,218880,240
68,81,219360,240
73,81,219360,240
77,81,219360,240
80,96,219360,240
80,81,219840,720
85,81,219840,720
89,81,219840,720
92,97,219840,720
89,64,220560,240
80,54,220560,240
78,57,220800,480
87,68,220800,480
78,50,221280,480
80,60,221280,480
77,50,221760,720
85,60,221760,720
77,51,222480,240
68,43,222480,240
66,45,222720,480
75,54,222720,480
66,39,223200,480
68,47,223200,480
65,39,223680,720
73,47,223680,720
65,38,224400,240
56,32,224400,240
54,34,224640,475
63,40,224640,475
54,29,225120,475
56,35,225120,475
53,29,225600,475
61,35,225600,475
56,35,226080,475
53,29,226080,475
54,34,226560,475
63,40,226560,475
54,29,227040,475
56,35,227040,475
54,34,227520,475
63,40,227520,475
54,29,228000,475
56,35,228000,475
53,30,228480,240
61,36,228480,240
56,27,228720,475
61,32,228720,475
65,38,228720,475
56,27,229200,475
61,32,229200,475
65,38,229200,475
56,27,229680,475
61,32,229680,475
65,38,229680,475
65,52,230160,238
56,37,230160,475
61,44,230160,475
63,52,230400,238
56,30,230640,475
60,36,230640,475
63,43,230640,475
56,30,231120,475
60,36,231120,238
63,43,231120,475
59,30,231360,238
56,30,231600,475
59,36,231600,475
63,43,231600,475
56,41,232080,238
60,41,232080,238
62,49,232080,238
65,58,232080,238
54,25,232320,238
58,30,232320,238
63,39,232320,238
66,47,232320,238
58,27,232560,475
63,32,232560,475
66,38,232560,475
58,27,233040,475
63,32,233040,475
66,38,233040,475
58,27,233520,475
63,32,233520,475
66,38,233520,475
66,52,234000,238
58,37,234000,475
63,44,234000,475
65,52,234240,238
58,30,234480,475
62,36,234480,475
65,43,234480,475
58,30,234960,475
62,36,234960,238
65,43,234960,475
61,30,235200,238
58,30,235440,475
61,36,235440,475
65,43,235440,475
58,41,235920,240
62,41,235920,240
64,49,235920,240
67,58,235920,240
56,25,236160,238
60,30,236160,238
65,39,236160,238
68,47,236160,238
60,27,236400,475
65,32,236400,475
68,38,236400,475
60,27,236880,475
65,32,236880,475
68,38,236880,475
60,27,237360,475
65,32,237360,475
68,38,237360,475
68,48,237840,238
60,34,237840,475
65,40,237840,475
67,48,238080,238
60,30,238320,475
64,36,238320,475
67,43,238320,475
60,34,238800,475
64,40,238800,238
67,48,238800,238
68,48,239040,238
65,34,239040,238
60,30,239280,475
65,36,239280,475
68,43,239280,475
60,34,239760,240
65,40,239760,240
68,47,239760,240
60,36,240120,120
64,37,240240,120
67,38,240360,120
71,40,240480,120
72,41,240600,120
76,42,240720,120
79,44,240840,120
83,45,240960,120
84,44,241080,120
79,43,241200,120
76,43,241320,120
72,42,241440,120
67,41,241560,120
64,41,241680,120
60,40,241800,120
61,36,242040,120
65,37,242160,120
68,38,242280,120
72,40,242400,120
73,41,242520,120
77,42,242640,120
80,44,242760,120
84,45,242880,120
85,44,243000,120
80,43,243120,120
77,43,243240,120
73,42,243360,120
68,41,243480,120
65,41,243600,120
61,40,243720,120
64,36,243960,120
67,37,244080,120
70,38,244200,120
75,40,244320,120
76,41,244440,120
79,42,244560,120
82,44,244680,120
87,45,244800,120
88,44,244920,120
82,43,245040,120
79,43,245160,120
76,42,245280,120
70,41,245400,120
67,41,245520,120
64,40,245640,120
65,36,245880,120
69,37,246000,120
72,38,246120,120
76,40,246240,120
77,41,246360,120
81,42,246480,120
84,44,246600,120
88,45,246720,120
89,44,246840,120
84,43,246960,120
81,43,247080,120
77,42,247200,120
72,41,247320,120
69,41,247440,120
65,40,247560,120
66,36,247800,120
70,37,247920,120
73,38,248040,120
77,40,248160,120
78,41,248280,120
82,42,248400,120
85,44,248520,120
89,45,248640,120
90,44,248760,120
85,43,248880,120
82,43,249000,120
78,42,249120,120
73,41,249240,120
70,41,249360,120
66,40,249480,120
69,36,249720,120
72,37,249840,120
75,38,249960,120
80,40,250080,120
81,41,250200,120
84,42,250320,120
87,44,250440,120
92,45,250560,120
93,44,250680,120
87,43,250800,120
84,43,250920,120
81,42,251040,120
75,41,251160,120
72,41,251280,120
69,40,251400,120
70,39,251640,120
74,41,251760,120
77,44,251880,120
81,46,252000,120
82,44,252120,120
77,42,252240,120
74,40,252360,120
70,45,252480,120
74,41,252600,120
77,43,252720,120
81,45,252840,120
82,47,252960,120
77,45,253080,120
74,44,253200,120
70,42,253320,120
71,39,253560,120
75,41,253680,120
78,44,253800,120
82,46,253920,120
83,44,254040,120
78,42,254160,120
75,40,254280,120
71,45,254400,120
75,41,254520,120
78,43,254640,120
82,45,254760,120
83,47,254880,120
78,45,255000,120
75,44,255120,120
71,42,255240,120
74,39,255480,120
77,41,255600,120
80,44,255720,120
85,46,255840,120
86,44,255960,120
80,42,256080,120
77,40,256200,120
74,45,256320,120
77,41,256440,120
80,43,256560,120
85,45,256680,120
86,47,256800,120
80,45,256920,120
77,44,257040,120
74,42,257160,120
78,39,257400,120
77,46,257520,120
78,44,257640,120
82,44,257880,120
81,47,258000,120
82,40,258120,120
87,41,258360,120
86,43,258480,120
87,42,258600,120
90,47,258720,120
87,45,258840,120
90,49,258960,120
87,42,259080,120
90,53,259200,120
89,51,259320,120
87,49,259440,120
85,47,259560,120
84,45,259680,120
85,46,259800,120
87,47,259920,120
89,48,260040,120
90,53,260160,120
89,52,260280,120
87,51,260400,120
85,50,260520,120
84,49,260640,120
82,48,260760,120
80,47,260880,120
78,46,261000,120
77,39,261240,120
76,46,261360,120
77,44,261480,120
80,44,261720,120
79,47,261840,120
80,40,261960,120
85,41,262200,120
84,43,262320,120
85,42,262440,120
89,47,262560,120
85,45,262680,120
89,49,262800,120
85,42,262920,120
89,53,263040,120
87,51,263160,120
86,49,263280,120
84,47,263400,120
83,45,263520,120
84,46,263640,120
86,47,263760,120
87,48,263880,120
89,53,264000,120
87,52,264120,120
86,51,264240,120
84,50,264360,120
83,49,264480,120
80,48,264600,120
79,47,264720,120
77,46,264840,120
75,39,265080,120
74,46,265200,120
75,44,265320,120
79,44,265560,120
78,47,265680,120
79,40,265800,120
83,41,266040,120
84,43,266160,120
83,42,266280,120
84,47,266400,120
86,45,266520,120
87,49,266640,120
90,42,266760,120
91,53,266880,120
86,51,267000,120
83,49,267120,120
79,47,267240,120
78,45,267360,120
79,46,267480,120
83,47,267600,120
86,48,267720,120
87,53,267840,120
84,51,267960,120
79,49,268080,120
75,47,268200,120
84,51,268320,120
79,50,268440,120
75,49,268560,120
72,48,268680,120
83,53,268800,120
79,51,268920,120
74,49,269040,120
71,47,269160,120
79,51,269280,120
74,50,269400,120
71,49,269520,120
67,48,269640,120
75,53,269760,120
72,51,269880,120
67,49,270000,120
63,47,270120,120
72,51,270240,120
67,50,270360,120
63,49,270480,120
60,48,270600,120
71,53,270720,120
67,51,270840,120
62,49,270960,120
59,47,271080,120
62,47,271200,120
65,48,271320,120
71,50,271440,120
74,52,271560,120
72,53,271680,120
67,51,271800,120
63,49,271920,120
60,47,272040,120
67,51,272160,120
63,50,272280,120
60,49,272400,120
55,48,272520,120
67,79,272640,120
62,75,272760,120
59,75,272880,120
55,70,273000,120
59,75,273120,120
62,71,273240,120
59,71,273360,120
55,71,273480,120
60,70,273600,120
55,61,273720,120
51,61,273840,120
55,60,273960,120
51,64,274080,120
55,54,274200,120
51,54,274320,120
48,54,274440,120
55,34,274680,120
50,34,274800,120
47,34,274920,120
55,34,275160,120
50,34,275280,120
47,34,275400,120
55,34,275640,120
50,34,275760,120
47,34,275880,120
55,34,276120,120
50,34,276240,120
47,34,276360,120
57,34,276600,120
51,34,276720,120
48,34,276840,120
57,34,277080,120
51,34,277200,120
48,34,277320,120
57,34,277560,120
51,34,277680,120
48,34,277800,120
57,34,278040,120
51,34,278160,120
48,34,278280,120
55,34,278520,120
50,34,278640,120
47,34,278760,120
55,34,279000,120
50,34,279120,120
47,34,279240,120
55,34,279480,120
50,34,279600,120
47,34,279720,120
55,34,279960,120
50,34,280080,120
47,34,280200,120
57,34,280440,120
51,34,280560,120
48,34,280680,120
57,34,280920,120
51,34,281040,120
48,34,281160,120
57,34,281400,120
51,34,281520,120
48,34,281640,120
57,34,281880,120
51,34,282000,120
48,34,282120,120
55,77,282240,120
50,60,282360,120
47,60,282480,120
50,60,282600,120
55,76,282720,120
50,60,282840,120
47,60,282960,120
50,60,283080,120
55,76,283200,120
50,59,283320,120
47,59,283440,120
50,59,283560,120
55,67,283680,120
50,61,283800,120
47,61,283920,120
50,61,284040,120
59,77,284160,120
55,60,284280,120
50,60,284400,120
55,60,284520,120
59,76,284640,120
55,60,284760,120
50,60,284880,120
55,60,285000,120
59,76,285120,120
55,59,285240,120
50,59,285360,120
55,59,285480,120
59,66,285600,120
55,58,285720,120
50,58,285840,120
55,58,285960,120
62,77,286080,120
59,60,286200,120
55,60,286320,120
59,60,286440,120
62,76,286560,120
59,60,286680,120
55,60,286800,120
59,60,286920,120
62,76,287040,120
59,59,287160,120
55,59,287280,120
59,59,287400,120
62,66,287520,120
59,58,287640,120
55,58,287760,120
59,58,287880,120
65,64,288000,120
59,39,288120,120
62,50,288120,120
55,49,288240,120
62,49,288360,120
59,39,288360,120
65,58,288480,120
62,47,288600,120
59,38,288600,120
55,47,288720,120
62,47,288840,120
59,37,288840,120
65,61,288960,120
59,37,289080,120
62,47,289080,120
55,47,289200,120
62,46,289320,120
59,35,289320,120
65,54,289440,120
62,44,289560,120
59,35,289560,120
55,44,289680,120
62,43,289800,120
59,34,289800,120
65,56,289920,120
59,33,290040,120
62,42,290040,120
55,42,290160,120
62,42,290280,120
59,32,290280,120
65,49,290400,120
62,39,290520,120
59,32,290520,120
55,39,290640,120
62,39,290760,120
59,31,290760,120
65,50,290880,120
59,30,291000,120
62,39,291000,120
55,39,291120,120
62,38,291240,120
59,29,291240,120
65,45,291360,120
62,36,291480,120
59,29,291480,120
55,35,291600,120
62,35,291720,120
59,28,291720,120
65,43,291840,120
59,26,291960,120
62,33,291960,120
55,33,292080,120
62,31,292200,120
59,24,292200,120
65,38,292320,120
62,31,292440,120
59,24,292440,120
55,30,292560,120
62,30,292680,120
59,23,292680,120
65,42,292800,120
59,25,292920,120
62,31,292920,120
55,31,293040,120
62,30,293160,120
59,24,293160,120
65,38,293280,120
62,30,293400,120
59,23,293400,120
55,30,293520,120
62,30,293640,120
59,22,293640,120
65,40,293760,120
59,24,293880,120
62,30,293880,120
55,30,294000,120
62,30,294120,120
59,23,294120,120
65,36,294240,120
62,30,294360,120
59,23,294360,120
55,29,294480,120
62,29,294600,120
59,21,294600,120
65,40,294720,120
59,23,294840,120
62,31,294840,120
55,30,294960,120
62,29,295080,120
59,23,295080,120
65,35,295200,120
62,29,295320,120
59,23,295320,120
55,28,295440,120
62,28,295560,120
59,22,295560,120
65,39,295680,120
59,23,295800,120
62,30,295800,120
55,30,295920,120
62,29,296040,120
59,23,296040,120
65,36,296160,120
62,29,296280,120
59,23,296280,120
55,28,296400,120
62,28,296520,120
59,22,296520,120
65,39,296640,120
59,24,296760,120
62,30,296760,120
55,30,296880,120
62,29,297000,120
59,23,297000,120
65,36,297120,120
62,29,297240,120
59,23,297240,120
55,28,297360,120
62,28,297480,120
59,22,297480,120
65,40,297600,120
59,24,297720,120
62,31,297720,120
55,31,297840,120
62,30,297960,120
59,23,297960,120
65,36,298080,120
62,30,298200,120
59,23,298200,120
55,29,298320,120
62,29,298440,120
59,22,298440,120
65,40,298560,120
59,24,298680,120
62,31,298680,120
55,31,298800,120
62,30,298920,120
59,23,298920,120
59,68,299040,120
71,80,299040,120
62,68,299160,120
59,57,299160,120
59,57,299280,120
71,69,299280,120
62,69,299400,120
59,57,299400,120
60,87,299520,120
64,91,299520,120
72,104,299520,120
91,94,300000,240
79,77,300000,240
91,100,300480,720
79,84,300480,720
88,87,301200,240
76,73,301200,240
86,94,301440,480
74,77,301440,480
79,76,301920,480
67,63,301920,480
84,88,302400,480
72,75,302400,480
88,87,302880,240
76,73,302880,240
91,94,303840,240
79,77,303840,240
91,100,304320,720
79,84,304320,720
88,87,305040,240
76,73,305040,240
86,94,305280,480
74,77,305280,480
79,76,305760,480
67,63,305760,480
84,83,306240,240
72,69,306240,240
89,82,307680,240
77,69,307680,240
89,86,308160,720
77,73,308160,720
86,55,308880,240
74,45,308880,240
88,52,309120,480
76,44,309120,480
84,42,309600,480
72,35,309600,480
83,52,310080,480
71,44,310080,480
86,49,310560,240
74,41,310560,240
89,78,311520,240
77,66,311520,240
89,85,312000,720
77,71,312000,720
86,62,312720,240
74,51,312720,240
87,50,312960,480
75,42,312960,480
84,39,313440,480
72,33,313440,480
83,50,313920,480
71,42,313920,480
86,45,314400,480
74,38,314400,480
88,60,314880,480
76,50,314880,480
84,50,315360,480
72,42,315360,480
83,63,315840,480
71,54,315840,480
86,62,316320,480
74,52,316320,480
87,60,316800,480
75,60,316800,480
84,49,317280,480
72,40,317280,480
79,50,317760,480
79,47,318240,480
81,37,318720,80
79,37,318800,80
81,37,318880,80
79,37,318960,80
81,38,319040,80
79,38,319120,80
81,39,319200,80
79,39,319280,80
81,39,319360,80
79,39,319440,80
81,40,319520,80
79,40,319600,80
81,41,319680,80
79,41,319760,80
81,41,319840,80
79,43,319920,80
81,43,320000,80
79,43,320080,80
81,44,320160,80
79,44,320240,80
81,45,320320,80
79,45,320400,80
81,45,320480,80
79,45,320560,80
81,47,320640,80
79,47,320720,80
81,47,320800,80
79,47,320880,80
81,47,320960,80
79,48,321040,80
81,48,321120,80
79,48,321200,80
81,49,321280,80
79,49,321360,80
81,50,321440,80
79,51,321520,80
81,51,321600,80
79,52,321680,80
81,52,321760,80
79,52,321840,80
81,54,321920,80
79,54,322000,80
81,54,322080,80
79,55,322160,80
81,55,322240,80
79,55,322320,80
81,56,322400,80
79,56,322480,80
91,89,323040,240
91,90,323520,720
88,85,324240,240
86,90,324480,480
79,84,324960,480
84,87,325440,480
88,84,325920,240
91,90,326880,240
91,92,327360,720
88,84,328080,240
86,90,328320,480
79,82,328800,480
84,86,329280,240
60,68,329760,80
64,62,329840,80
60,62,329920,80
55,62,330000,80
52,62,330080,80
55,62,330160,80
60,68,330240,80
65,62,330320,80
60,62,330400,80
57,62,330480,80
53,62,330560,80
57,62,330640,80
60,68,330720,80
64,61,330800,80
60,61,330880,80
55,61,330960,80
52,61,331040,80
55,61,331120,80
60,63,331200,80
62,59,331280,80
60,59,331360,80
53,59,331440,80
50,59,331520,80
53,59,331600,80
60,68,331680,80
63,61,331760,80
60,61,331840,80
54,61,331920,80
51,61,332000,80
54,61,332080,80
60,68,332160,80
64,62,332240,80
60,62,332320,80
55,62,332400,80
52,62,332480,80
55,62,332560,80
59,68,332640,80
62,61,332720,80
59,61,332800,80
53,61,332880,80
50,61,332960,80
53,61,333040,80
55,68,333120,80
60,62,333200,80
55,62,333280,80
52,62,333360,80
48,62,333440,80
52,62,333520,80
64,68,333600,80
67,62,333680,80
64,62,333760,80
60,62,333840,80
55,62,333920,80
60,62,334000,80
65,68,334080,80
69,62,334160,80
65,62,334240,80
60,62,334320,80
57,62,334400,80
60,62,334480,80
64,68,334560,80
67,61,334640,80
64,61,334720,80
60,61,334800,80
55,61,334880,80
60,61,334960,80
62,63,335040,80
65,59,335120,80
62,59,335200,80
60,59,335280,80
53,59,335360,80
60,59,335440,80
63,68,335520,80
66,61,335600,80
63,61,335680,80
60,61,335760,80
54,61,335840,80
60,61,335920,80
64,68,336000,80
67,62,336080,80
64,62,336160,80
60,62,336240,80
55,62,336320,80
60,62,336400,80
62,68,336480,80
65,61,336560,80
62,61,336640,80
59,61,336720,80
53,61,336800,80
59,61,336880,80
60,68,336960,80
64,62,337040,80
60,62,337120,80
55,62,337200,80
52,62,337280,80
55,62,337360,80
67,68,337440,80
72,59,337520,80
67,59,337600,80
64,67,337680,80
60,58,337760,80
64,58,337840,80
69,71,337920,80
72,61,338000,80
69,61,338080,80
65,67,338160,80
60,60,338240,80
65,60,338320,80
67,68,338400,80
72,59,338480,80
67,60,338560,80
64,67,338640,80
60,58,338720,80
64,58,338800,80
65,70,338880,80
72,59,338960,80
65,59,339040,80
62,67,339120,80
60,60,339200,80
62,59,339280,80
66,66,339360,80
72,57,339440,80
66,60,339520,80
63,70,339600,80
60,58,339680,80
63,58,339760,80
67,71,339840,80
72,61,339920,80
67,61,340000,80
64,67,340080,80
60,60,340160,80
64,60,340240,80
65,68,340320,80
72,56,340400,80
65,57,340480,80
62,62,340560,80
59,58,340640,80
62,58,340720,80
67,63,340800,80
72,57,340880,80
67,57,340960,80
64,60,341040,80
60,57,341120,80
64,57,341200,80
72,68,341280,80
76,59,341360,80
72,59,341440,80
67,67,341520,80
64,58,341600,80
67,58,341680,80
72,71,341760,80
77,61,341840,80
72,61,341920,80
69,67,342000,80
65,60,342080,80
69,60,342160,80
72,68,342240,80
76,59,342320,80
72,60,342400,80
67,67,342480,80
64,58,342560,80
67,58,342640,80
72,70,342720,80
74,59,342800,80
72,59,342880,80
65,67,342960,80
62,60,343040,80
65,59,343120,80
72,66,343200,80
75,57,343280,80
72,60,343360,80
66,70,343440,80
63,58,343520,80
66,58,343600,80
72,71,343680,80
76,61,343760,80
72,61,343840,80
67,67,343920,80
64,60,344000,80
67,60,344080,80
71,68,344160,80
74,56,344240,80
71,57,344320,80
65,62,344400,80
62,58,344480,80
65,58,344560,80
67,63,344640,80
72,57,344720,80
67,57,344800,80
64,60,344880,80
60,57,344960,80
64,57,345040,80
72,74,345120,80
76,59,345200,80
72,59,345280,80
67,70,345360,80
64,58,345440,80
67,58,345520,80
71,71,345600,80
74,61,345680,80
71,61,345760,80
67,67,345840,80
62,60,345920,80
67,60,346000,80
74,74,346080,80
77,59,346160,80
74,59,346240,80
69,70,346320,80
65,58,346400,80
69,58,346480,80
72,71,346560,80
76,61,346640,80
72,61,346720,80
69,67,346800,80
64,60,346880,80
69,60,346960,80
77,74,347040,80
81,59,347120,80
77,59,347200,80
72,70,347280,80
69,58,347360,80
72,58,347440,80
74,75,347520,80
79,61,347600,80
74,61,347680,80
72,67,347760,80
67,60,347840,80
72,60,347920,80
74,74,348000,80
79,59,348080,80
74,59,348160,80
71,70,348240,80
67,58,348320,80
71,58,348400,80
76,71,348480,80
79,58,348560,80
76,58,348640,80
72,63,348720,80
67,60,348800,80
72,58,348880,80
76,74,348960,80
79,59,349040,80
76,59,349120,80
72,70,349200,80
67,58,349280,80
72,58,349360,80
74,71,349440,80
79,61,349520,80
74,61,349600,80
71,67,349680,80
67,60,349760,80
71,60,349840,80
77,74,349920,80
81,59,350000,80
77,59,350080,80
74,70,350160,80
69,58,350240,80
74,58,350320,80
76,71,350400,80
81,61,350480,80
76,61,350560,80
72,67,350640,80
69,60,350720,80
72,60,350800,80
81,74,350880,80
84,59,350960,80
81,59,351040,80
76,70,351120,80
72,58,351200,80
76,58,351280,80
81,75,351360,80
84,61,351440,80
81,61,351520,80
78,67,351600,80
72,60,351680,80
78,60,351760,80
81,74,351840,80
84,59,351920,80
81,59,352000,80
78,70,352080,80
72,58,352160,80
78,58,352240,80
79,71,352320,80
83,58,352400,80
79,58,352480,80
74,63,352560,80
71,60,352640,80
74,58,352720,80
81,74,352800,80
86,59,352880,80
81,59,352960,80
78,70,353040,80
74,58,353120,80
78,58,353200,80
83,75,353280,80
86,61,353360,80
83,61,353440,80
79,67,353520,80
74,60,353600,80
79,60,353680,80
81,74,353760,80
86,59,353840,80
81,59,353920,80
78,70,354000,80
74,58,354080,80
78,58,354160,80
83,77,354240,80
86,58,354320,80
83,58,354400,80
79,63,354480,80
74,60,354560,80
79,58,354640,80
86,51,354720,80
90,40,354800,80
86,40,354880,80
81,48,354960,80
78,39,355040,80
81,39,355120,80
86,51,355200,80
91,42,355280,80
86,42,355360,80
83,45,355440,80
79,41,355520,80
83,41,355600,80
86,51,355680,80
90,40,355760,80
86,40,355840,80
81,48,355920,80
78,39,356000,80
81,39,356080,80
86,52,356160,80
91,39,356240,80
86,39,356320,80
83,43,356400,80
79,41,356480,80
83,39,356560,80
81,81,356640,80
86,61,356720,80
81,61,356800,80
78,69,356880,80
74,63,356960,80
78,63,357040,80
83,82,357120,80
86,62,357200,80
83,62,357280,80
79,67,357360,80
74,63,357440,80
79,66,357520,80
81,81,357600,80
86,61,357680,80
81,61,357760,80
78,68,357840,80
74,63,357920,80
78,63,358000,80
83,84,358080,80
86,63,358160,80
83,63,358240,80
79,69,358320,80
74,66,358400,80
79,63,358480,80
86,51,358560,80
90,40,358640,80
86,40,358720,80
81,48,358800,80
78,39,358880,80
81,39,358960,80
86,51,359040,80
91,42,359120,80
86,42,359200,80
83,45,359280,80
79,41,359360,80
83,41,359440,80
86,51,359520,80
90,40,359600,80
86,40,359680,80
81,48,359760,80
78,39,359840,80
81,39,359920,80
86,57,360000,80
91,42,360080,80
86,44,360160,80
83,49,360240,80
79,48,360320,80
83,47,360400,80
86,63,360480,80
90,50,360560,80
86,51,360640,80
81,63,360720,80
78,52,360800,80
81,53,360880,80
86,72,360960,80
91,60,361040,80
86,62,361120,80
83,67,361200,80
79,62,361280,80
83,64,361360,80
86,80,361440,80
90,64,361520,80
86,66,361600,80
81,80,361680,80
78,66,361760,80
81,67,361840,80
91,104,361920,240
79,98,361920,240
67,81,362400,240
71,81,362400,240
74,81,362400,240
79,96,362400,240
67,81,362880,960
71,81,362880,960
74,81,362880,960
79,96,362880,960
71,81,364320,240
74,81,364320,240
79,81,364320,240
83,96,364320,240
71,81,364800,960
74,81,364800,960
79,81,364800,960
83,96,364800,960
74,81,366240,240
77,81,366240,240
83,81,366240,240
86,96,366240,240
74,81,366720,960
77,81,366720,960
83,81,366720,960
86,96,366720,960
77,81,368160,240
83,81,368160,240
86,81,368160,240
89,96,368160,240
77,81,368640,960
83,81,368640,960
86,81,368640,960
89,96,368640,960
83,69,370080,240
86,69,370080,240
89,69,370080,240
92,81,370080,240
80,60,371040,240
83,60,371040,240
86,60,371040,240
89,70,371040,240
86,67,372000,240
83,57,372000,240
80,57,372000,240
77,57,372000,240
83,60,372960,240
80,50,372960,240
77,50,372960,240
74,50,372960,240
71,41,373920,240
74,41,373920,240
77,41,373920,240
80,49,373920,240
68,39,374880,240
71,39,374880,240
77,46,374880,240
74,39,374880,240
65,36,375840,240
68,36,375840,240
71,36,375840,240
74,44,375840,240
62,34,376800,240
65,34,376800,240
68,34,376800,240
71,41,376800,240
59,26,377760,240
62,26,377760,240
65,26,377760,240
68,32,377760,240
58,26,379680,480
61,26,379680,480
64,26,379680,480
67,32,379680,480
57,26,381600,480
60,26,381600,480
63,26,381600,480
66,32,381600,480
59,22,383520,2400
62,22,383520,2400
65,27,383520,2400
60,85,385920,240
91,50,386160,120
91,53,386400,360
88,50,386760,120
86,54,386880,240
79,50,387120,240
84,50,387360,240
88,49,387600,240
91,50,388080,120
91,53,388320,360
88,50,388680,120
86,54,388800,240
79,50,389040,240
84,50,389280,240
91,50,389760,120
90,47,389880,120
91,50,390000,120
90,46,390120,120
91,50,390240,120
90,47,390360,120
91,50,390480,120
88,47,390600,120
86,48,390720,120
85,43,390840,120
86,48,390960,120
79,45,391080,120
84,48,391200,120
83,44,391320,120
84,50,391440,120
88,46,391560,120
91,50,391680,120
90,46,391800,120
91,50,391920,120
90,47,392040,120
91,50,392160,120
90,46,392280,120
91,50,392400,120
88,44,392520,120
86,48,392640,120
85,45,392760,120
86,49,392880,120
79,45,393000,120
84,49,393120,120
83,46,393240,120
84,49,393360,120
88,46,393480,120
86,59,393600,120
85,55,393720,120
86,68,393840,120
79,62,393960,120
84,74,394080,130
83,67,394200,130
84,67,394320,130
88,67,394440,120
83,76,394560,130
82,69,394680,130
83,69,394800,130
86,69,394920,120
81,75,395040,130
80,70,395160,130
81,70,395280,130
84,70,395400,120
79,75,395520,130
78,69,395640,130
79,69,395760,130
83,69,395880,120
77,75,396000,130
76,69,396120,130
77,69,396240,130
81,69,396360,120
76,75,396480,130
75,70,396600,130
76,70,396720,130
79,70,396840,120
74,75,396960,130
73,70,397080,130
74,70,397200,130
77,69,397320,120
72,75,397440,130
71,69,397560,130
72,69,397680,130
76,69,397800,120
76,75,397920,130
75,68,398040,130
76,68,398160,130
79,68,398280,120
74,75,398400,130
73,68,398520,130
74,68,398640,130
71,68,398760,120
72,74,398880,130
71,68,399000,130
72,68,399120,130
69,68,399240,120
71,74,399360,130
70,69,399480,130
71,68,399600,130
67,68,399720,120
69,74,399840,130
68,68,399960,130
69,68,400080,130
65,68,400200,120
67,74,400320,130
66,68,400440,130
67,68,400560,130
64,68,400680,120
65,74,400800,130
64,68,400920,130
65,68,401040,130
62,68,401160,120
64,91,401280,130
60,81,401400,130
55,81,401520,130
64,81,401640,120
62,90,401760,130
59,81,401880,130
55,81,402000,130
62,81,402120,120
65,91,402240,130
62,81,402360,130
57,81,402480,130
65,81,402600,120
64,90,402720,130
60,81,402840,130
57,81,402960,130
64,81,403080,120
69,90,403200,130
65,81,403320,130
60,81,403440,130
69,81,403560,120
67,90,403680,130
64,81,403800,130
60,81,403920,130
72,81,404040,120
62,91,404160,130
72,81,404280,130
67,81,404400,130
62,81,404520,120
71,91,404640,130
67,81,404760,130
62,81,404880,130
71,81,405000,120
76,91,405120,130
72,81,405240,130
67,81,405360,130
76,81,405480,120
67,91,405600,130
74,81,405720,130
71,81,405840,130
67,81,405960,120
77,91,406080,130
74,81,406200,130
69,81,406320,130
77,81,406440,120
69,93,406560,130
76,81,406680,130
72,81,406800,130
69,81,406920,120
81,92,407040,130
77,81,407160,130
72,81,407280,130
81,81,407400,120
72,92,407520,130
81,81,407640,130
77,81,407760,130
72,81,407880,120
81,92,408000,130
77,81,408120,130
72,81,408240,130
81,81,408360,120
72,91,408480,130
81,81,408600,130
77,81,408720,130
72,81,408840,120
84,50,409200,120
84,53,409440,360
81,50,409800,120
79,54,409920,240
72,50,410160,240
77,50,410400,240
81,47,410640,240
84,50,411120,120
83,46,411240,120
84,50,411360,120
83,47,411480,120
84,50,411600,120
81,47,411720,120
79,48,411840,120
78,43,411960,120
79,48,412080,120
72,45,412200,120
77,48,412320,120
76,44,412440,120
77,50,412560,120
81,46,412680,120
89,46,413040,240
77,39,413040,240
89,48,413280,360
77,40,413280,360
86,46,413640,120
74,39,413640,120
88,49,413760,240
76,41,413760,240
84,46,414000,240
72,39,414000,240
83,46,414240,240
71,39,414240,240
86,42,414480,240
74,35,414480,240
89,46,414960,240
77,39,414960,240
89,48,415200,360
77,40,415200,360
86,46,415560,120
74,39,415560,120
88,49,415680,250
76,41,415680,250
84,46,415920,250
72,39,415920,250
83,46,416160,250
71,39,416160,250
86,42,416400,240
74,35,416400,240
84,49,416640,250
72,41,416640,250
81,46,416880,250
69,39,416880,250
79,46,417120,250
67,39,417120,250
83,42,417360,240
71,35,417360,240
81,49,417600,250
69,41,417600,250
77,46,417840,250
65,39,417840,250
76,46,418080,250
64,39,418080,250
79,42,418320,240
67,35,418320,240
77,51,418560,250
65,42,418560,250
74,48,418800,250
62,40,418800,250
76,48,419040,250
64,41,419040,250
72,44,419280,240
60,36,419280,240
74,52,419520,250
62,43,419520,250
71,49,419760,250
59,41,419760,250
72,49,420000,250
60,41,420000,250
69,46,420240,240
57,37,420240,240
71,54,420480,250
59,44,420480,250
67,50,420720,250
55,42,420720,250
69,50,420960,250
57,42,420960,250
65,47,421200,240
53,39,421200,240
67,55,421440,250
55,46,421440,250
64,51,421680,250
52,43,421680,250
65,51,421920,250
53,43,421920,250
59,48,422160,240
47,40,422160,240
51,104,422400,240
60,104,422400,240
72,74,423520,160
75,74,423680,160
80,78,423840,160
84,74,424000,160
87,74,424160,160
85,58,424320,160
82,49,424480,160
79,49,424640,160
73,55,424800,160
70,50,424960,160
67,50,425120,160
85,56,425280,160
82,49,425440,160
79,49,425600,160
73,55,425760,160
70,50,425920,160
67,50,426080,160
68,74,427360,160
72,74,427520,160
77,78,427680,160
80,74,427840,160
84,74,428000,160
82,58,428160,160
79,49,428320,160
76,49,428480,160
70,55,428640,160
67,50,428800,160
64,50,428960,160
82,56,429120,160
79,49,429280,160
76,49,429440,160
70,55,429600,160
67,50,429760,160
64,50,429920,160
65,74,431200,160
68,74,431360,160
73,78,431520,160
77,74,431680,160
80,74,431840,160
78,58,432000,160
75,49,432160,160
72,49,432320,160
66,55,432480,160
63,50,432640,160
60,50,432800,160
78,56,432960,160
75,49,433120,160
72,49,433280,160
66,55,433440,160
63,50,433600,160
60,50,433760,160
53,39,434080,160
58,40,434240,160
61,41,434400,160
65,43,434560,160
70,44,434720,160
73,46,434880,160
77,45,435040,160
82,47,435200,160
85,49,435360,160
89,45,435520,160
77,41,435680,160
53,39,436000,160
56,40,436160,160
60,41,436320,160
65,43,436480,160
68,44,436640,160
72,46,436800,160
77,45,436960,160
80,47,437120,160
84,49,437280,160
89,45,437440,160
77,41,437600,160
53,39,437920,160
59,40,438080,160
62,41,438240,160
65,43,438400,160
71,44,438560,160
74,46,438720,160
77,45,438880,160
83,47,439040,160
86,49,439200,160
89,45,439360,160
77,41,439520,160
51,39,439840,160
56,40,440000,160
60,41,440160,160
63,43,440320,160
68,44,440480,160
72,46,440640,160
75,45,440800,160
80,47,440960,160
84,49,441120,160
87,45,441280,160
75,41,441440,160
60,45,443040,160
63,41,443200,160
66,41,443360,160
69,46,443520,160
72,41,443680,160
75,41,443840,160
78,46,444000,160
81,41,444160,160
84,41,444320,160
87,47,444480,160
84,43,444640,160
81,43,444800,160
90,47,444960,160
87,43,445120,160
84,43,445280,160
91,49,445560,130
79,41,445560,130
89,49,445680,130
77,41,445680,130
88,49,445800,130
76,41,445800,130
86,48,445920,130
74,40,445920,130
84,48,446040,130
72,40,446040,130
83,47,446160,130
71,39,446160,130
81,39,446280,130
69,39,446280,130
67,39,446400,240
79,47,446400,240
65,38,446640,130
77,45,446640,130
64,38,446760,130
76,45,446760,130
62,37,446880,130
74,44,446880,130
60,37,447000,130
72,44,447000,130
59,36,447120,130
71,43,447120,130
57,35,447240,130
69,42,447240,130
60,35,447360,960
55,35,447360,960
64,35,447360,960
67,42,447360,1440
59,35,448320,480
62,35,448320,480
74,42,448800,480
77,46,448800,480
72,41,449280,60
76,49,449280,60
91,49,449400,130
79,41,449400,130
89,49,449520,130
77,41,449520,130
88,49,449640,130
76,41,449640,130
86,48,449760,130
74,40,449760,130
84,48,449880,130
72,40,449880,130
83,47,450000,130
71,39,450000,130
81,39,450120,130
69,39,450120,130
67,39,450240,240
79,47,450240,240
65,38,450480,130
77,45,450480,130
64,38,450600,130
76,45,450600,130
62,37,450720,130
74,44,450720,130
60,37,450840,130
72,44,450840,130
59,36,450960,130
71,43,450960,130
57,35,451080,130
69,42,451080,130
60,35,451200,960
55,35,451200,960
64,35,451200,960
67,42,451200,1440
59,35,452160,480
62,35,452160,480
74,42,452640,480
77,46,452640,480
72,41,453120,60
76,49,453120,60
91,49,453240,130
79,41,453240,130
89,49,453360,130
77,41,453360,130
88,49,453480,130
76,41,453480,130
86,48,453600,130
74,40,453600,130
84,48,453720,130
72,40,453720,130
83,47,453840,130
71,39,453840,130
81,39,453960,130
69,39,453960,130
67,39,454080,240
79,47,454080,240
65,38,454320,130
77,45,454320,130
64,38,454440,130
76,45,454440,130
62,37,454560,130
74,44,454560,130
60,37,454680,130
72,44,454680,130
59,36,454800,130
71,43,454800,130
57,35,454920,130
69,42,454920,130
55,44,455040,130
67,44,455040,130
57,46,455160,130
59,47,455280,130
60,49,455400,130
62,51,455520,130
64,53,455640,130
65,54,455760,130
66,56,455880,130
67,58,456000,130
69,59,456120,130
71,61,456240,130
72,63,456360,130
74,65,456480,130
76,66,456600,130
77,68,456720,130
78,70,456840,130
91,57,465120,480
91,59,465600,720
88,50,466320,240
86,57,466560,480
79,50,467040,70
84,53,467520,480
88,53,468000,240
91,57,468960,480
91,59,469440,720
88,50,470160,240
86,57,470400,480
79,50,470880,70
84,53,471360,240
91,57,472800,480
91,59,473280,720
87,50,474000,240
86,57,474240,480
79,50,474720,70
84,53,475200,240
87,57,476640,480
87,59,477120,720
84,50,477840,240
82,57,478080,480
75,50,478560,480
80,53,479040,240
84,57,480480,480
84,59,480960,720
80,50,481680,240
79,57,481920,480
72,50,482400,70
77,57,482880,720
80,53,483600,240
79,57,483840,480
72,50,484320,70
77,57,484800,480
75,53,485280,480
79,63,491760,238
79,64,492000,238
79,66,492240,238
79,68,492480,238
79,69,492720,238
79,71,492960,238
79,72,493200,240
72,97,493440,240
76,97,493440,240
79,75,493680,240
91,75,493680,120
79,75,493920,720
91,79,493920,360
88,75,494280,120
86,81,494400,240
79,75,494640,720
84,75,494880,240
88,73,495120,240
67,50,495600,240
79,50,495600,120
67,50,495840,720
79,53,495840,360
76,50,496200,120
74,54,496320,240
67,50,496560,720
72,50,496800,240
76,49,497040,240
91,75,497520,120
90,69,497640,120
91,75,497760,120
90,70,497880,120
91,75,498000,120
88,70,498120,120
86,72,498240,120
85,64,498360,120
86,72,498480,120
79,67,498600,120
84,72,498720,120
83,66,498840,120
84,75,498960,120
88,69,499080,120
79,50,499440,120
78,47,499560,120
79,50,499680,120
78,46,499800,120
79,50,499920,120
76,44,500040,120
74,48,500160,120
73,45,500280,120
74,49,500400,120
67,45,500520,120
72,49,500640,120
71,46,500760,120
72,49,500880,120
76,46,501000,120
62,50,501120,120
61,45,501240,120
62,51,501360,120
55,46,501480,120
60,51,501600,130
59,46,501720,130
60,51,501840,130
64,46,501960,120
62,50,502080,120
61,45,502200,120
62,51,502320,120
55,46,502440,120
60,51,502560,130
59,46,502680,130
60,51,502800,130
64,46,502920,120
62,55,503040,120
61,49,503160,120
62,57,503280,120
59,52,503400,120
65,59,503520,130
64,54,503640,130
65,61,503760,130
62,56,503880,120
71,62,504000,120
70,56,504120,120
71,65,504240,120
65,59,504360,120
74,67,504480,130
73,61,504600,130
74,69,504720,130
71,63,504840,120
77,70,504960,120
76,63,505080,120
77,71,505200,120
74,65,505320,120
83,73,505440,130
82,66,505560,130
83,73,505680,130
77,67,505800,120
86,74,505920,120
85,67,506040,120
86,76,506160,120
83,69,506280,120
89,77,506400,130
88,70,506520,130
89,78,506640,130
83,71,506760,120
84,91,506880,240
64,68,507120,120
67,81,507120,120
60,72,507360,120
64,85,507360,120
67,68,507600,120
72,81,507600,120
64,71,507840,120
67,84,507840,120
72,68,508080,120
76,81,508080,120
67,73,508320,120
72,86,508320,120
76,68,508560,120
79,81,508560,120
72,73,508800,120
76,86,508800,120
84,81,509040,120
79,68,509040,120
76,73,509280,120
79,86,509280,120
88,82,509520,120
84,69,509520,120
84,87,509760,120
79,73,509760,120
91,82,510000,120
88,69,510000,120
84,74,510240,120
88,88,510240,120
91,82,510480,120
88,69,510480,120
88,87,510720,120
84,73,510720,120
76,54,511680,240
79,76,511680,240
72,50,512640,240
76,70,512640,240
64,43,513600,240
67,60,513600,240
60,39,514560,240
64,56,514560,240
76,36,515520,240
79,43,515520,240
76,36,516000,240
79,43,516000,240
72,35,516480,240
76,42,516480,240
91,101,517440,120
88,101,517440,120
84,85,517440,120
79,85,517440,120
79,85,517920,120
84,85,517920,120
88,101,517920,120
91,101,517920,120
88,101,518400,120
84,101,518400,120
79,85,518400,120
76,85,518400,120
64,85,519360,120
67,85,519360,120
72,101,519360,120
76,101,519360,120
60,85,520320,120
64,85,520320,120
67,101,520320,120
72,101,520320,120
36,50,0,240
79,50,480,240
79,54,960,720
76,47,1680,240
74,50,1920,480
67,41,2400,480
72,50,2880,480
76,47,3360,240
48,31,3720,120
36,50,3840,240
79,50,4320,240
79,54,4800,720
76,47,5520,240
74,50,5760,480
67,41,6240,480
72,50,6720,240
43,30,7560,120
31,45,7680,240
77,50,8160,240
77,54,8640,720
74,47,9360,240
76,50,9600,480
72,41,10080,480
71,50,10560,480
74,47,11040,240
43,32,11400,120
31,48,11520,240
77,50,12000,240
77,54,12480,720
74,47,13200,240
75,50,13440,480
72,41,13920,480
71,50,14400,480
74,47,14880,480
76,50,15360,480
72,41,15840,480
71,50,16320,480
74,47,16800,480
75,50,17280,480
72,41,17760,480
79,50,18240,475
79,47,18720,475
79,50,19200,475
79,47,19680,475
79,50,20160,475
79,47,20640,475
79,47,21120,480
36,50,28800,120
43,30,28920,120
48,32,29040,120
52,34,29160,120
55,31,29280,120
48,31,29400,120
52,31,29520,120
55,35,29640,120
60,30,29760,120
52,31,29880,120
55,33,30000,120
60,36,30120,120
64,33,30240,120
55,33,30360,120
60,33,30480,120
64,36,30600,120
65,28,30720,120
64,31,30840,120
62,33,30960,120
60,36,31080,120
59,33,31200,120
57,33,31320,120
55,34,31440,120
53,34,31560,120
52,28,31680,120
55,30,31800,120
48,32,31920,120
52,34,32040,120
43,32,32160,120
48,32,32280,120
40,33,32400,120
43,34,32520,120
36,50,32640,120
43,30,32760,120
48,32,32880,120
52,34,33000,120
55,31,33120,120
48,31,33240,120
52,31,33360,120
55,35,33480,120
60,30,33600,120
52,31,33720,120
55,33,33840,120
60,36,33960,120
64,33,34080,120
55,33,34200,120
60,33,34320,120
64,33,34440,120
65,28,34560,120
64,31,34680,120
62,33,34800,120
60,36,34920,120
59,33,35040,120
55,33,35160,120
57,34,35280,120
59,34,35400,120
60,28,35520,120
59,30,35640,120
57,32,35760,120
55,34,35880,120
53,32,36000,120
52,32,36120,120
50,33,36240,120
48,35,36360,120
43,45,36480,120
47,30,36600,120
50,32,36720,120
55,34,36840,120
47,31,36960,120
50,31,37080,120
55,31,37200,120
59,35,37320,120
50,30,37440,120
55,31,37560,120
59,33,37680,120
62,36,37800,120
55,33,37920,120
59,33,38040,120
62,33,38160,120
67,36,38280,120
55,28,38400,120
60,31,38520,120
67,33,38640,120
60,36,38760,120
55,28,38880,120
64,31,39000,120
67,33,39120,120
64,36,39240,120
55,28,39360,120
62,30,39480,120
67,32,39600,120
62,36,39720,120
55,28,39840,120
59,30,39960,120
67,32,40080,120
59,35,40200,120
43,48,40320,120
47,30,40440,120
50,32,40560,120
55,34,40680,120
47,31,40800,120
50,31,40920,120
55,31,41040,120
59,35,41160,120
50,30,41280,120
55,31,41400,120
59,33,41520,120
62,36,41640,120
55,33,41760,120
59,33,41880,120
62,33,42000,120
67,36,42120,120
55,28,42240,120
60,31,42360,120
67,33,42480,120
60,35,42600,120
55,28,42720,120
63,31,42840,120
67,33,42960,120
63,35,43080,120
55,28,43200,120
62,30,43320,120
67,32,43440,120
62,35,43560,120
55,28,43680,120
59,30,43800,120
67,32,43920,120
59,35,44040,120
55,28,44160,120
60,31,44280,120
67,33,44400,120
60,35,44520,120
55,28,44640,120
64,32,44760,120
67,34,44880,120
64,37,45000,120
55,29,45120,120
62,32,45240,120
67,34,45360,120
62,38,45480,120
55,31,45600,120
59,33,45720,120
67,36,45840,120
59,39,45960,120
55,28,46080,120
60,31,46200,120
67,33,46320,120
60,35,46440,120
55,28,46560,120
60,31,46680,120
63,33,46800,120
60,35,46920,120
55,28,47040,120
59,30,47160,120
62,32,47280,120
59,35,47400,120
55,28,47520,120
60,30,47640,120
63,32,47760,120
60,35,47880,120
55,42,48000,60
59,27,48120,120
62,27,48240,120
59,28,48360,120
55,48,48480,60
60,29,48600,120
64,30,48720,120
60,31,48840,120
55,51,48960,60
59,32,49080,120
62,34,49200,120
59,34,49320,120
55,58,49440,60
57,35,49560,120
60,37,49680,120
57,39,49800,120
55,64,49920,60
59,42,50040,120
57,44,50160,120
55,45,50280,120
53,69,50400,60
57,50,50520,120
55,53,50640,120
53,56,50760,120
52,77,50880,60
55,60,51000,120
53,62,51120,120
52,64,51240,120
50,82,51360,60
53,64,51480,120
52,67,51600,120
50,71,51720,120
36,94,51840,240
48,94,51840,240
50,56,51960,60
52,57,52020,60
53,60,52080,60
55,60,52140,60
57,62,52200,60
59,63,52260,60
60,63,52320,120
62,65,52440,60
64,66,52500,60
65,67,52560,60
67,69,52620,60
69,70,52680,60
71,71,52740,60
72,74,52800,60
71,71,52920,60
69,71,53040,60
67,71,53160,60
65,72,53280,60
64,69,53400,60
62,69,53520,60
60,67,53640,60
59,73,53760,60
60,69,53880,60
59,69,54000,60
57,69,54120,60
55,75,54240,60
53,69,54360,60
52,69,54480,60
50,69,54600,60
48,75,54720,60
48,69,54840,60
47,69,54960,60
45,69,55080,60
43,72,55200,60
41,71,55320,60
40,75,55440,60
38,80,55560,60
36,95,55680,240
48,95,55680,240
50,56,55800,60
52,57,55860,60
53,60,55920,60
55,60,55980,60
57,62,56040,60
59,63,56100,60
60,63,56160,120
62,65,56280,60
64,66,56340,60
65,67,56400,60
67,69,56460,60
69,70,56520,60
71,71,56580,60
72,74,56640,60
71,71,56760,60
69,71,56880,60
67,71,57000,60
65,72,57120,60
64,69,57240,60
62,69,57360,60
60,67,57480,60
59,73,57600,60
60,69,57720,60
59,69,57840,60
57,69,57960,60
55,75,58080,60
53,69,58200,60
52,69,58320,60
50,69,58440,60
48,75,58560,240
36,75,58800,240
36,60,59280,240
48,71,59280,240
36,60,59760,240
48,71,59760,240
36,57,60240,240
48,68,60240,240
36,53,60720,240
48,63,60720,240
36,59,61200,240
48,70,61200,240
36,60,61680,240
48,71,61680,240
36,60,62160,240
48,71,62160,240
36,71,62640,240
48,60,63120,240
40,60,63120,240
52,71,63120,240
48,60,63600,240
41,60,63600,240
53,71,63600,240
48,57,64080,240
40,57,64080,240
52,68,64080,240
48,53,64560,240
38,53,64560,240
50,63,64560,240
48,59,65040,240
39,59,65040,240
51,70,65040,240
48,60,65520,240
40,60,65520,240
52,71,65520,240
48,60,66000,240
38,60,66000,240
50,71,66000,240
36,63,66480,240
48,63,66480,240
40,82,66720,120
40,82,66960,120
33,68,67200,120
45,80,67200,120
35,70,67440,120
47,83,67440,120
36,72,67680,120
48,85,67680,120
38,74,67920,120
50,89,67920,120
40,80,68160,480
52,95,68160,480
40,74,68640,120
52,88,68640,120
38,73,68880,120
50,86,68880,120
36,71,69120,120
48,84,69120,120
35,69,69360,120
47,82,69360,120
36,68,69600,120
48,80,69600,120
33,67,69840,120
45,79,69840,120
40,92,70080,480
40,69,70560,120
52,82,70560,120
40,69,70800,120
52,82,70800,120
45,68,71040,120
57,80,71040,120
47,70,71280,120
59,83,71280,120
48,72,71520,120
60,85,71520,120
50,74,71760,120
62,89,71760,120
52,80,72000,480
64,95,72000,480
52,74,72480,120
64,88,72480,120
50,73,72720,120
62,86,72720,120
48,71,72960,120
60,84,72960,120
47,69,73200,120
59,82,73200,120
48,68,73440,120
60,80,73440,120
45,67,73680,120
57,79,73680,120
40,70,73920,480
52,82,73920,480
41,56,74400,120
45,67,74400,120
53,79,74400,120
41,53,74640,120
45,63,74640,120
53,75,74640,120
40,56,74880,120
45,67,74880,120
52,79,74880,120
40,56,75120,120
45,67,75120,120
52,79,75120,120
38,56,75360,120
45,66,75360,120
50,78,75360,120
38,56,75600,120
45,66,75600,120
50,78,75600,120
36,56,75840,120
45,66,75840,120
48,78,75840,120
36,56,76080,120
45,67,76080,120
48,79,76080,120
38,53,76320,120
45,63,76320,120
50,75,76320,120
38,52,76560,120
45,62,76560,120
50,74,76560,120
40,56,76800,120
45,67,76800,120
52,79,76800,120
40,64,77040,120
52,77,77040,120
40,62,77280,120
52,74,77280,120
40,62,77520,120
52,74,77520,120
36,80,77760,120
45,66,77880,120
44,66,78000,120
45,66,78120,120
41,84,78240,120
45,64,78360,120
44,64,78480,120
45,64,78600,120
40,84,78720,120
45,67,78840,120
44,67,78960,120
45,67,79080,120
38,82,79200,120
45,66,79320,120
44,66,79440,120
45,66,79560,120
36,82,79680,120
45,63,79800,120
44,66,79920,120
45,67,80040,120
38,85,80160,120
45,66,80280,120
38,66,80400,120
45,66,80520,120
40,85,80640,120
45,67,80760,120
40,74,80880,120
52,67,81000,120
40,83,81120,120
52,66,81240,120
40,69,81360,120
52,63,81480,120
45,70,81600,120
52,67,81720,120
48,68,81840,120
52,68,81960,120
45,59,82080,240
47,70,82080,120
52,66,82200,120
45,55,82320,240
50,66,82320,120
52,66,82440,120
45,59,82560,240
48,70,82560,120
52,63,82680,120
45,53,82800,240
48,63,82800,120
52,63,82920,120
45,59,83040,240
47,70,83040,120
52,66,83160,120
45,55,83280,240
50,66,83280,120
52,66,83400,120
45,59,83520,240
48,70,83520,120
57,63,83640,120
52,63,83760,120
57,63,83880,120
45,36,84000,240
50,43,84000,120
56,37,84120,120
52,37,84240,120
56,37,84360,120
45,36,84480,240
48,44,84480,120
57,38,84600,120
52,38,84720,120
57,38,84840,120
45,36,84960,240
50,44,84960,120
56,38,85080,120
52,38,85200,120
56,38,85320,120
45,36,85440,240
48,44,85440,120
57,37,85560,120
52,37,85680,120
57,37,85800,120
45,59,85920,240
47,70,85920,120
52,66,86040,120
45,55,86160,240
50,66,86160,120
52,66,86280,120
45,59,86400,240
48,70,86400,120
52,63,86520,120
45,53,86640,240
48,63,86640,120
52,63,86760,120
45,59,86880,240
47,70,86880,120
52,66,87000,120
45,55,87120,240
50,66,87120,120
52,66,87240,120
45,59,87360,240
48,70,87360,120
57,63,87480,120
52,63,87600,120
57,63,87720,120
50,43,87840,120
45,36,87840,240
56,37,87960,120
52,37,88080,120
56,37,88200,120
48,43,88320,120
45,35,88320,240
57,37,88440,120
52,37,88560,120
57,37,88680,120
50,43,88800,120
45,35,88800,240
56,37,88920,120
52,37,89040,120
56,37,89160,120
45,34,89280,240
48,42,89280,120
57,36,89400,120
52,35,89520,120
57,35,89640,120
50,37,89760,120
45,32,89760,240
56,33,89880,120
52,33,90000,120
56,32,90120,120
48,38,90240,120
45,31,90240,240
57,33,90360,120
52,32,90480,120
57,32,90600,120
50,34,90720,120
45,29,90720,240
56,31,90840,120
52,29,90960,120
56,29,91080,120
45,26,91200,240
48,32,91200,120
57,28,91320,120
52,28,91440,120
57,28,91560,120
50,32,91680,120
45,26,91680,240
56,28,91800,120
52,28,91920,120
56,28,92040,120
45,26,92160,240
48,32,92160,120
57,28,92280,120
52,28,92400,120
57,28,92520,120
50,32,92640,120
45,26,92640,240
56,28,92760,120
52,28,92880,120
56,28,93000,120
45,62,93120,240
57,62,93120,240
64,63,93600,240
64,74,94080,720
60,47,94800,240
59,50,95040,480
52,47,95520,480
57,47,96000,240
29,74,96960,240
41,74,96960,240
60,74,97440,240
60,79,97920,720
57,48,98640,240
55,53,98880,480
48,49,99360,480
53,49,99840,240
31,90,100800,240
43,90,100800,240
65,80,101280,240
65,81,101760,720
62,53,102480,240
59,59,102720,480
55,55,103200,480
53,55,103680,720
50,44,104400,240
47,51,104640,480
43,36,105120,480
41,41,105600,720
38,33,106320,240
35,33,106560,480
31,28,107520,480
43,33,107520,480
36,50,108480,240
79,50,108960,240
79,54,109440,720
76,47,110160,240
74,50,110400,480
67,41,110880,480
72,50,111360,480
76,47,111840,240
48,31,112200,120
36,50,112320,240
79,50,112800,240
79,54,113280,720
76,47,114000,240
74,50,114240,480
67,41,114720,480
72,50,115200,240
43,30,116040,120
31,45,116160,240
77,50,116640,240
77,54,117120,720
74,47,117840,240
76,50,118080,480
72,41,118560,480
71,50,119040,480
74,47,119520,240
43,32,119880,120
31,48,120000,240
77,50,120480,240
77,54,120960,720
74,47,121680,240
75,50,121920,480
72,41,122400,480
71,50,122880,480
74,47,123360,480
76,50,123840,480
72,41,124320,480
71,50,124800,480
74,47,125280,480
75,50,125760,480
72,41,126240,480
79,50,126720,475
79,47,127200,475
79,50,127680,475
79,47,128160,475
79,50,128640,475
79,47,129120,475
79,47,129600,480
36,50,137280,120
43,30,137400,120
48,32,137520,120
52,34,137640,120
55,31,137760,120
48,31,137880,120
52,31,138000,120
55,35,138120,120
60,30,138240,120
52,31,138360,120
55,33,138480,120
60,36,138600,120
64,33,138720,120
55,33,138840,120
60,33,138960,120
64,36,139080,120
65,28,139200,120
64,31,139320,120
62,33,139440,120
60,36,139560,120
59,33,139680,120
57,33,139800,120
55,34,139920,120
53,34,140040,120
52,28,140160,120
55,30,140280,120
48,32,140400,120
52,34,140520,120
43,32,140640,120
48,32,140760,120
40,33,140880,120
43,34,141000,120
36,50,141120,120
43,30,141240,120
48,32,141360,120
52,34,141480,120
55,31,141600,120
48,31,141720,120
52,31,141840,120
55,35,141960,120
60,30,142080,120
52,31,142200,120
55,33,142320,120
60,36,142440,120
64,33,142560,120
55,33,142680,120
60,33,142800,120
64,33,142920,120
65,28,143040,120
64,31,143160,120
62,33,143280,120
60,36,143400,120
59,33,143520,120
55,33,143640,120
57,34,143760,120
59,34,143880,120
60,28,144000,120
59,30,144120,120
57,32,144240,120
55,34,144360,120
53,32,144480,120
52,32,144600,120
50,33,144720,120
48,35,144840,120
43,45,144960,120
47,30,145080,120
50,32,145200,120
55,34,145320,120
47,31,145440,120
50,31,145560,120
55,31,145680,120
59,35,145800,120
50,30,145920,120
55,31,146040,120
59,33,146160,120
62,36,146280,120
55,33,146400,120
59,33,146520,120
62,33,146640,120
67,36,146760,120
55,28,146880,120
60,31,147000,120
67,33,147120,120
60,36,147240,120
55,28,147360,120
64,31,147480,120
67,33,147600,120
64,36,147720,120
55,28,147840,120
62,30,147960,120
67,32,148080,120
62,36,148200,120
55,28,148320,120
59,30,148440,120
67,32,148560,120
59,35,148680,120
43,48,148800,120
47,30,148920,120
50,32,149040,120
55,34,149160,120
47,31,149280,120
50,31,149400,120
55,31,149520,120
59,35,149640,120
50,30,149760,120
55,31,149880,120
59,33,150000,120
62,36,150120,120
55,33,150240,120
59,33,150360,120
62,33,150480,120
67,36,150600,120
55,28,150720,120
60,31,150840,120
67,33,150960,120
60,35,151080,120
55,28,151200,120
63,31,151320,120
67,33,151440,120
63,35,151560,120
55,28,151680,120
62,30,151800,120
67,32,151920,120
62,35,152040,120
55,28,152160,120
59,30,152280,120
67,32,152400,120
59,35,152520,120
55,28,152640,120
60,31,152760,120
67,33,152880,120
60,35,153000,120
55,28,153120,120
64,32,153240,120
67,34,153360,120
64,37,153480,120
55,29,153600,120
62,32,153720,120
67,34,153840,120
62,38,153960,120
55,31,154080,120
59,33,154200,120
67,36,154320,120
59,39,154440,120
55,28,154560,120
60,31,154680,120
67,33,154800,120
60,35,154920,120
55,28,155040,120
60,31,155160,120
63,33,155280,120
60,35,155400,120
55,28,155520,120
59,30,155640,120
62,32,155760,120
59,35,155880,120
55,28,156000,120
60,30,156120,120
63,32,156240,120
60,35,156360,120
55,47,156480,60
59,30,156600,120
62,31,156720,120
59,32,156840,120
55,53,156960,60
60,32,157080,120
64,33,157200,120
60,34,157320,120
55,57,157440,60
59,35,157560,120
62,38,157680,120
59,38,157800,120
55,64,157920,60
57,39,158040,120
60,41,158160,120
57,43,158280,120
55,71,158400,60
59,47,158520,120
57,49,158640,120
55,50,158760,120
53,76,158880,60
57,55,159000,120
55,58,159120,120
53,62,159240,120
52,85,159360,60
55,63,159480,120
53,68,159600,120
52,70,159720,120
50,90,159840,60
53,72,159960,120
52,73,160080,120
50,79,160200,120
36,94,160320,240
48,94,160320,240
50,56,160440,60
52,57,160500,60
53,60,160560,60
55,60,160620,60
57,62,160680,60
59,63,160740,60
60,63,160800,120
62,65,160920,60
64,66,160980,60
65,67,161040,60
67,69,161100,60
69,70,161160,60
71,71,161220,60
72,74,161280,60
71,71,161400,60
69,71,161520,60
67,71,161640,60
65,72,161760,60
64,69,161880,60
62,69,162000,60
60,67,162120,60
59,73,162240,60
60,69,162360,60
59,69,162480,60
57,69,162600,60
55,75,162720,60
53,69,162840,60
52,69,162960,60
50,69,163080,60
48,75,163200,60
48,69,163320,60
47,69,163440,60
45,69,163560,60
43,72,163680,60
41,71,163800,60
40,75,163920,60
38,80,164040,60
36,95,164160,240
48,95,164160,240
50,56,164280,60
52,57,164340,60
53,60,164400,60
55,60,164460,60
57,62,164520,60
59,63,164580,60
60,63,164640,120
62,65,164760,60
64,66,164820,60
65,67,164880,60
67,69,164940,60
69,70,165000,60
71,71,165060,60
72,74,165120,60
71,71,165240,60
69,71,165360,60
67,71,165480,60
65,72,165600,60
64,69,165720,60
62,69,165840,60
60,67,165960,60
59,73,166080,60
60,69,166200,60
59,69,166320,60
57,69,166440,60
55,75,166560,60
53,69,166680,60
52,69,166800,60
50,69,166920,60
48,75,167040,240
31,77,167280,120
43,77,167280,120
39,62,167520,120
51,74,167520,120
38,62,167760,120
50,74,167760,120
36,65,168000,120
48,77,168000,120
31,61,168240,120
43,72,168240,120
33,62,168480,120
45,73,168480,120
35,62,168720,120
47,73,168720,120
36,65,168960,120
48,77,168960,120
36,61,169200,120
48,72,169200,120
44,66,169440,120
56,78,169440,120
43,62,169680,120
55,73,169680,120
41,68,169920,120
53,80,169920,120
36,63,170160,120
48,75,170160,120
38,63,170400,120
50,75,170400,120
40,63,170640,120
52,75,170640,120
41,66,170880,120
53,78,170880,120
41,62,171120,120
53,74,171120,120
49,68,171360,120
61,80,171360,120
48,64,171600,120
60,76,171600,120
46,68,171840,120
58,80,171840,120
44,62,172080,120
56,73,172080,120
43,62,172320,120
55,74,172320,120
41,62,172560,120
53,74,172560,120
39,69,172800,120
51,82,172800,120
49,75,173040,120
48,75,173280,120
46,75,173520,120
44,84,173760,120
43,76,174000,120
41,76,174240,120
39,76,174480,120
44,84,174720,240
35,63,174960,80
33,56,175040,80
35,57,175120,80
36,57,175200,80
39,58,175280,80
41,59,175360,80
43,60,175440,80
45,62,175520,80
47,63,175600,80
48,60,175680,80
50,62,175760,80
51,63,175840,80
53,65,175920,80
51,63,176000,80
50,62,176080,80
48,63,176160,80
50,62,176240,80
51,63,176320,80
53,65,176400,80
51,64,176480,80
50,63,176560,80
48,68,176640,240
40,63,176880,80
38,56,176960,80
40,56,177040,80
41,54,177120,80
44,56,177200,80
46,58,177280,80
48,60,177360,80
50,62,177440,80
52,63,177520,80
53,65,177600,80
55,65,177680,80
56,66,177760,80
58,68,177840,80
56,65,177920,80
55,63,178000,80
53,60,178080,80
55,62,178160,80
56,64,178240,80
58,66,178320,80
56,64,178400,80
55,63,178480,80
53,67,178560,240
45,63,178800,80
43,58,178880,80
45,58,178960,80
46,63,179040,80
48,58,179120,80
46,58,179200,80
45,63,179280,80
43,60,179360,80
45,60,179440,80
46,59,179520,80
45,59,179600,80
46,60,179680,80
48,61,179760,80
47,59,179840,80
48,59,179920,80
49,63,180000,80
48,61,180080,80
49,61,180160,80
50,64,180240,80
48,62,180320,80
50,62,180400,80
51,67,180480,80
53,63,180560,80
51,63,180640,80
49,67,180720,80
51,63,180800,80
49,63,180880,80
48,66,180960,80
49,63,181040,80
48,63,181120,80
46,66,181200,80
48,62,181280,80
46,62,181360,80
44,64,181440,80
46,62,181520,80
44,62,181600,80
43,64,181680,80
44,61,181760,80
43,61,181840,80
41,63,181920,80
43,62,182000,80
41,62,182080,80
39,63,182160,80
41,60,182240,80
39,60,182320,80
44,77,182400,120
39,79,182640,120
51,79,182640,120
48,62,182880,120
60,74,182880,120
46,62,183120,120
58,74,183120,120
44,65,183360,120
56,77,183360,120
39,61,183600,120
51,72,183600,120
41,62,183840,120
53,73,183840,120
43,62,184080,120
55,73,184080,120
44,65,184320,120
56,77,184320,120
36,61,184560,120
48,72,184560,120
44,66,184800,120
56,78,184800,120
43,62,185040,120
55,73,185040,120
41,68,185280,120
53,80,185280,120
36,63,185520,120
48,75,185520,120
38,63,185760,120
50,75,185760,120
40,63,186000,120
52,75,186000,120
41,66,186240,120
53,78,186240,120
53,62,186480,120
65,74,186480,120
56,68,186720,120
68,80,186720,120
55,64,186960,120
67,76,186960,120
53,68,187200,120
65,80,187200,120
51,62,187440,120
63,73,187440,120
50,62,187680,120
62,74,187680,120
48,62,187920,120
60,74,187920,120
47,69,188160,480
59,82,188160,480
43,64,188640,240
55,76,188640,240
43,61,188880,240
55,72,188880,240
43,64,189120,240
55,76,189120,240
43,60,189360,240
55,71,189360,240
43,64,189600,240
55,76,189600,240
43,61,189840,240
55,72,189840,240
48,71,190080,240
60,84,190080,240
43,63,190320,80
41,56,190400,80
43,57,190480,80
44,57,190560,80
48,58,190640,80
49,59,190720,80
51,60,190800,80
53,62,190880,80
55,63,190960,80
56,60,191040,80
58,62,191120,80
60,63,191200,80
61,65,191280,80
60,63,191360,80
58,62,191440,80
56,63,191520,80
58,62,191600,80
60,63,191680,80
61,65,191760,80
60,64,191840,80
58,63,191920,80
56,68,192000,240
40,63,192240,80
38,56,192320,80
40,56,192400,80
41,54,192480,80
44,56,192560,80
46,58,192640,80
48,60,192720,80
50,62,192800,80
52,63,192880,80
53,65,192960,80
55,65,193040,80
56,66,193120,80
58,68,193200,80
56,65,193280,80
55,63,193360,80
53,60,193440,80
55,62,193520,80
56,64,193600,80
58,66,193680,80
56,64,193760,80
55,63,193840,80
53,67,193920,240
36,63,194160,80
38,58,194240,80
40,58,194320,80
41,63,194400,80
40,58,194480,80
41,58,194560,80
43,63,194640,80
41,60,194720,80
43,60,194800,80
44,59,194880,80
46,59,194960,80
44,60,195040,80
43,61,195120,80
44,59,195200,80
43,59,195280,80
41,63,195360,80
43,61,195440,80
41,61,195520,80
42,64,195600,80
43,62,195680,80
42,62,195760,80
43,67,195840,80
44,63,195920,80
43,63,196000,80
42,67,196080,80
43,63,196160,80
42,63,196240,80
43,66,196320,80
44,63,196400,80
43,63,196480,80
42,66,196560,80
43,62,196640,80
42,62,196720,80
43,64,196800,80
44,62,196880,80
43,62,196960,80
41,64,197040,80
43,61,197120,80
41,61,197200,80
39,63,197280,80
41,62,197360,80
39,62,197440,80
38,63,197520,80
39,60,197600,80
38,60,197680,80
36,77,197760,120
41,79,198000,120
53,79,198000,120
44,62,198240,120
56,74,198240,120
43,62,198480,120
55,74,198480,120
41,68,198720,120
53,80,198720,120
39,62,198960,120
51,73,198960,120
38,62,199200,120
50,74,199200,120
36,62,199440,120
48,74,199440,120
35,69,199680,480
47,82,199680,480
31,64,200160,238
43,76,200160,238
31,61,200400,238
43,72,200400,238
31,64,200640,238
43,76,200640,238
31,60,200880,238
43,71,200880,238
31,64,201120,238
43,76,201120,238
31,61,201360,238
43,72,201360,238
36,69,201600,240
48,82,201600,240
43,67,202080,238
55,79,202080,238
43,64,202320,238
55,75,202320,238
43,67,202560,238
55,79,202560,238
43,63,202800,238
55,74,202800,238
43,67,203040,238
55,79,203040,238
43,64,203280,238
55,75,203280,238
48,72,203520,240
60,86,203520,240
31,80,204000,238
43,95,204000,238
31,77,204240,238
43,90,204240,238
31,80,204480,238
43,95,204480,238
31,75,204720,238
43,89,204720,238
31,80,204960,238
43,95,204960,238
31,77,205200,238
43,90,205200,238
36,85,205440,240
48,103,205440,240
31,80,205920,240
43,95,205920,240
36,85,206400,240
48,103,206400,240
31,80,206880,240
43,95,206880,240
36,73,207360,120
48,86,207360,120
36,73,207840,120
48,86,207840,120
36,73,208320,240
48,86,208320,240
36,48,209280,480
48,57,209280,480
36,39,210240,480
48,46,210240,480
32,70,211200,240
44,82,211200,240
44,58,211680,240
48,58,211680,240
51,58,211680,240
56,69,211680,240
56,60,212160,720
60,60,212160,720
63,60,212160,720
68,71,212160,720
56,40,212880,240
60,40,212880,240
63,40,212880,240
68,48,212880,240
56,44,213120,480
58,44,213120,480
61,44,213120,480
63,44,213120,480
67,52,213120,480
56,33,213600,480
58,33,213600,480
61,33,213600,480
63,33,213600,480
67,39,213600,480
56,33,214080,480
60,33,214080,480
63,33,214080,480
68,39,214080,480
29,70,215040,240
41,82,215040,240
41,58,215520,240
44,58,215520,240
48,58,215520,240
53,69,215520,240
53,59,216000,720
56,59,216000,720
60,59,216000,720
65,70,216000,720
53,40,216720,240
56,40,216720,240
60,40,216720,240
65,48,216720,240
53,44,216960,480
55,44,216960,480
58,44,216960,480
60,44,216960,480
64,52,216960,480
53,33,217440,480
55,33,217440,480
58,33,217440,480
60,33,217440,480
64,39,217440,480
53,33,217920,480
56,33,217920,480
60,33,217920,480
65,39,217920,480
37,70,218880,240
49,82,218880,240
49,58,219360,240
53,58,219360,240
56,58,219360,240
61,69,219360,240
61,60,219840,720
65,60,219840,720
68,60,219840,720
73,71,219840,720
61,40,220560,240
65,40,220560,240
68,40,220560,240
73,48,220560,240
61,44,220800,480
63,44,220800,480
66,44,220800,480
68,44,220800,480
72,52,220800,480
61,33,221280,480
63,33,221280,480
66,33,221280,480
68,33,221280,480
72,39,221280,480
61,33,221760,720
65,33,221760,720
68,33,221760,720
73,39,221760,720
49,32,222480,240
56,32,222480,240
61,38,222480,240
49,35,222720,480
56,35,222720,480
60,41,222720,480
49,26,223200,480
56,26,223200,480
60,31,223200,480
49,26,223680,720
56,26,223680,720
61,31,223680,720
37,19,224400,240
44,23,224400,240
49,28,224400,240
37,22,224640,475
44,26,224640,475
48,30,224640,475
37,16,225120,475
44,19,225120,475
48,23,225120,475
37,16,225600,475
44,19,225600,475
49,23,225600,475
37,16,226080,475
44,19,226080,475
49,23,226080,475
48,30,226560,475
37,22,226560,475
44,26,226560,475
48,23,227040,475
37,16,227040,475
44,19,227040,475
48,30,227520,475
37,22,227520,475
44,26,227520,475
48,23,228000,475
37,16,228000,475
44,19,228000,475
37,16,228480,240
44,19,228480,240
49,23,228480,240
49,36,228960,240
49,38,229440,240
49,38,229920,240
44,45,230400,240
44,42,230880,240
44,38,231360,240
44,38,231840,240
39,25,232320,240
51,36,232800,240
51,38,233280,240
51,38,233760,240
46,45,234240,240
46,42,234720,240
46,38,235200,240
46,41,235680,240
41,25,236160,240
53,36,236640,240
53,38,237120,240
53,38,237600,240
48,41,238080,240
48,42,238560,240
53,38,239040,240
53,38,239520,240
36,46,240000,240
52,39,240480,480
55,39,240480,480
52,39,240960,960
55,39,240960,960
36,46,241920,240
53,39,242400,480
56,39,242400,480
53,39,242880,960
56,39,242880,960
36,46,243840,240
55,39,244320,480
58,39,244320,480
55,39,244800,960
58,39,244800,960
41,46,245760,240
57,39,246240,480
60,39,246240,480
57,39,246720,960
60,39,246720,960
41,46,247680,240
58,39,248160,480
61,39,248160,480
58,39,248640,960
61,39,248640,960
41,46,249600,240
60,39,250080,480
63,39,250080,480
60,39,250560,960
63,39,250560,960
46,46,251520,240
62,39,252000,480
65,39,252000,480
62,39,252480,960
65,39,252480,960
46,46,253440,240
63,39,253920,480
66,39,253920,480
63,39,254400,960
66,39,254400,960
46,46,255360,240
65,39,255840,480
68,39,255840,480
65,39,256320,960
68,39,256320,960
51,46,257280,240
58,39,257760,480
63,39,257760,480
66,39,257760,480
58,39,258240,960
63,39,258240,960
66,39,258240,960
48,46,259200,240
56,39,259680,480
63,39,259680,480
66,39,259680,480
56,39,260160,960
63,39,260160,960
66,39,260160,960
49,39,261120,240
56,33,261600,480
61,33,261600,480
65,33,261600,480
56,33,262080,960
61,33,262080,960
65,33,262080,960
47,39,263040,240
55,33,263520,480
62,33,263520,480
65,33,263520,480
55,33,264000,960
62,33,264000,960
65,33,264000,960
48,39,264960,240
55,33,265440,480
60,33,265440,480
63,33,265440,480
55,33,265920,480
60,33,265920,480
63,33,265920,480
48,33,266400,480
43,33,266880,480
55,29,267360,480
59,29,267360,480
62,29,267360,480
48,35,267840,480
55,30,268320,480
60,30,268320,480
63,30,268320,480
43,37,268800,480
50,32,269280,480
55,32,269280,480
59,32,269280,480
36,46,269760,480
48,39,270240,480
51,39,270240,480
55,39,270240,480
31,46,270720,480
47,39,271200,480
50,39,271200,480
55,39,271200,480
36,46,271680,480
43,39,272160,480
48,39,272160,480
51,39,272160,480
43,69,272640,240
31,69,272640,240
47,69,273120,120
50,60,273240,120
47,60,273360,120
43,59,273480,120
48,63,273600,120
43,52,273720,120
39,52,273840,120
43,52,273960,120
39,57,274080,120
43,47,274200,120
39,46,274320,120
36,45,274440,120
31,57,274560,240
56,40,275040,480
56,40,275520,480
56,39,276000,480
36,50,276480,240
54,40,276960,480
54,40,277440,480
54,40,277920,480
31,50,278400,240
56,39,278880,480
56,39,279360,480
56,39,279840,480
36,50,280320,240
54,39,280800,480
54,39,281280,480
54,39,281760,480
31,85,282240,240
59,75,282720,480
59,75,283200,960
31,85,284160,240
62,75,284640,480
62,75,285120,960
31,85,286080,240
65,75,286560,470
65,75,287040,957
71,64,288480,480
74,57,289440,480
77,52,290400,480
77,52,291360,480
77,49,291840,480
32,41,292320,480
44,41,292320,480
31,38,292800,240
43,38,292800,240
77,50,293280,470
77,50,293760,480
32,41,294240,480
44,41,294240,480
31,39,294720,240
43,39,294720,240
77,45,295200,480
77,45,296160,480
56,45,297120,480
43,46,298080,480
31,65,299040,240
43,77,299040,240
31,65,299280,240
43,77,299280,240
48,79,299520,120
36,71,299520,120
43,66,299640,120
48,70,299760,120
52,76,299880,120
55,68,300000,120
48,68,300120,120
52,68,300240,120
55,76,300360,120
60,66,300480,120
52,68,300600,120
55,71,300720,120
60,78,300840,120
64,71,300960,120
55,71,301080,120
60,71,301200,120
64,78,301320,120
65,62,301440,120
64,68,301560,120
62,71,301680,120
60,78,301800,120
59,71,301920,120
57,71,302040,120
55,76,302160,120
53,76,302280,120
52,62,302400,120
55,66,302520,120
48,70,302640,120
52,76,302760,120
43,70,302880,120
48,70,303000,120
40,71,303120,120
43,76,303240,120
36,94,303360,120
43,66,303480,120
48,70,303600,120
52,76,303720,120
55,68,303840,120
48,68,303960,120
52,68,304080,120
55,76,304200,120
60,66,304320,120
52,68,304440,120
55,71,304560,120
60,78,304680,120
64,71,304800,120
55,71,304920,120
60,71,305040,120
64,71,305160,120
65,62,305280,120
64,68,305400,120
62,71,305520,120
60,78,305640,120
59,71,305760,120
55,71,305880,120
57,76,306000,120
59,76,306120,120
60,62,306240,120
59,64,306360,120
57,68,306480,120
55,73,306600,120
53,68,306720,120
52,68,306840,120
50,69,306960,120
48,74,307080,120
43,80,307200,120
47,58,307320,120
50,62,307440,120
55,67,307560,120
47,60,307680,120
50,60,307800,120
55,60,307920,120
59,68,308040,120
50,58,308160,120
55,60,308280,120
59,63,308400,120
62,70,308520,120
55,53,308640,120
59,53,308760,120
62,45,308880,120
67,50,309000,120
55,28,309120,120
60,32,309240,120
67,34,309360,120
60,37,309480,120
55,28,309600,120
64,32,309720,120
67,34,309840,120
64,37,309960,120
55,28,310080,120
62,31,310200,120
67,33,310320,120
62,37,310440,120
55,28,310560,120
59,31,310680,120
67,33,310800,120
59,36,310920,120
43,86,311040,120
47,58,311160,120
50,62,311280,120
55,67,311400,120
47,60,311520,120
50,60,311640,120
55,60,311760,120
59,68,311880,120
50,58,312000,120
55,60,312120,120
59,63,312240,120
62,70,312360,120
55,53,312480,120
59,53,312600,120
62,53,312720,120
67,59,312840,120
55,26,312960,120
60,30,313080,120
67,32,313200,120
60,33,313320,120
55,26,313440,120
63,30,313560,120
67,32,313680,120
63,33,313800,120
55,26,313920,120
62,30,314040,120
67,31,314160,120
62,33,314280,120
55,26,314400,120
59,30,314520,120
67,31,314640,120
59,33,314760,120
55,33,314880,120
60,37,315000,120
67,39,315120,120
60,42,315240,120
55,33,315360,120
64,38,315480,120
67,40,315600,120
64,44,315720,120
55,34,315840,120
62,38,315960,120
67,40,316080,120
62,45,316200,120
55,37,316320,120
59,39,316440,120
67,43,316560,120
59,46,316680,120
55,33,316800,120
60,37,316920,120
67,39,317040,120
60,42,317160,120
55,33,317280,120
60,37,317400,120
63,39,317520,120
60,42,317640,120
55,28,317760,120
59,30,317880,120
62,32,318000,120
59,35,318120,120
55,28,318240,120
60,30,318360,120
63,32,318480,120
60,35,318600,120
55,47,318720,60
59,30,318840,120
62,31,318960,120
59,32,319080,120
55,53,319200,60
60,32,319320,120
64,33,319440,120
60,34,319560,120
55,57,319680,60
59,35,319800,120
62,38,319920,120
59,38,320040,120
55,64,320160,60
57,39,320280,120
60,41,320400,120
57,43,320520,120
55,71,320640,60
59,47,320760,120
57,49,320880,120
55,50,321000,120
53,76,321120,60
57,50,321240,120
55,53,321360,120
53,55,321480,120
52,85,321600,60
55,58,321720,120
53,61,321840,120
52,64,321960,120
50,90,322080,60
53,68,322200,120
52,72,322320,120
50,76,322440,120
36,94,322560,240
48,94,322560,240
50,56,322680,60
52,57,322740,60
53,60,322800,60
55,60,322860,60
57,62,322920,60
59,63,322980,60
60,63,323040,120
62,65,323160,60
64,66,323220,60
65,67,323280,60
67,69,323340,60
69,70,323400,60
71,71,323460,60
72,74,323520,60
71,71,323640,60
69,71,323760,60
67,71,323880,60
65,72,324000,60
64,69,324120,60
62,69,324240,60
60,67,324360,60
59,73,324480,60
60,69,324600,60
59,69,324720,60
57,69,324840,60
55,75,324960,60
53,69,325080,60
52,69,325200,60
50,69,325320,60
48,75,325440,60
48,69,325560,60
47,69,325680,60
45,69,325800,60
43,72,325920,60
41,71,326040,60
40,75,326160,60
38,80,326280,60
36,95,326400,240
48,95,326400,240
50,56,326520,60
52,57,326580,60
53,60,326640,60
55,60,326700,60
57,62,326760,60
59,63,326820,60
60,63,326880,120
62,65,327000,60
64,66,327060,60
65,67,327120,60
67,69,327180,60
69,70,327240,60
71,71,327300,60
72,74,327360,60
71,71,327480,60
69,71,327600,60
67,71,327720,60
65,72,327840,60
64,69,327960,60
62,69,328080,60
60,67,328200,60
59,73,328320,60
60,69,328440,60
59,69,328560,60
57,69,328680,60
55,75,328800,60
53,69,328920,60
52,69,329040,60
50,69,329160,60
48,75,329280,240
36,75,329520,240
36,60,330000,240
48,71,330000,240
36,60,330480,240
48,71,330480,240
36,57,330960,240
48,68,330960,240
36,53,331440,240
48,63,331440,240
36,59,331920,240
48,70,331920,240
36,60,332400,240
48,71,332400,240
36,60,332880,240
48,71,332880,240
36,71,333360,240
48,60,333840,240
40,60,333840,240
52,71,333840,240
48,60,334320,240
41,60,334320,240
53,71,334320,240
48,57,334800,240
40,57,334800,240
52,68,334800,240
48,53,335280,240
38,53,335280,240
50,63,335280,240
48,59,335760,240
39,59,335760,240
51,70,335760,240
48,60,336240,240
40,60,336240,240
52,71,336240,240
48,60,336720,240
38,60,336720,240
50,71,336720,240
36,63,337200,240
48,63,337200,240
36,51,337440,80
40,45,337520,80
43,45,337600,80
48,51,337680,80
43,46,337760,80
40,46,337840,80
36,51,337920,80
41,46,338000,80
45,46,338080,80
48,51,338160,80
45,45,338240,80
41,45,338320,80
36,51,338400,80
40,46,338480,80
43,46,338560,80
48,51,338640,80
43,46,338720,80
40,46,338800,80
36,51,338880,80
38,46,338960,80
41,46,339040,80
48,51,339120,80
41,45,339200,80
38,45,339280,80
36,56,339360,80
39,46,339440,80
42,46,339520,80
48,51,339600,80
42,46,339680,80
39,46,339760,80
36,57,339840,80
40,46,339920,80
43,46,340000,80
48,51,340080,80
43,45,340160,80
40,45,340240,80
36,51,340320,80
38,45,340400,80
41,44,340480,80
48,51,340560,80
41,44,340640,80
38,44,340720,80
36,51,340800,80
40,44,340880,80
43,44,340960,80
48,51,341040,80
43,44,341120,80
40,46,341200,80
36,51,341280,80
48,45,341360,80
52,45,341440,80
55,51,341520,80
52,46,341600,80
48,46,341680,80
36,51,341760,80
48,46,341840,80
53,46,341920,80
57,51,342000,80
53,45,342080,80
48,45,342160,80
36,51,342240,80
48,46,342320,80
52,46,342400,80
55,51,342480,80
52,46,342560,80
48,46,342640,80
36,51,342720,80
48,46,342800,80
50,46,342880,80
53,51,342960,80
50,45,343040,80
48,45,343120,80
36,56,343200,80
48,46,343280,80
51,46,343360,80
54,51,343440,80
51,46,343520,80
48,46,343600,80
36,57,343680,80
48,46,343760,80
52,46,343840,80
55,51,343920,80
52,45,344000,80
48,45,344080,80
36,51,344160,80
48,45,344240,80
50,44,344320,80
53,51,344400,80
50,44,344480,80
48,44,344560,80
36,51,344640,80
48,44,344720,80
52,44,344800,80
55,51,344880,80
52,44,344960,80
48,46,345040,80
36,59,345120,80
48,45,345200,80
52,45,345280,80
55,51,345360,80
52,46,345440,80
48,46,345520,80
43,51,345600,80
47,46,345680,80
50,46,345760,80
55,51,345840,80
50,45,345920,80
47,45,346000,80
38,59,346080,80
50,45,346160,80
53,45,346240,80
57,51,346320,80
53,46,346400,80
50,46,346480,80
45,51,346560,80
48,46,346640,80
52,46,346720,80
57,51,346800,80
52,45,346880,80
48,45,346960,80
41,59,347040,80
48,45,347120,80
50,45,347200,80
53,51,347280,80
50,46,347360,80
48,46,347440,80
43,51,347520,80
48,46,347600,80
50,46,347680,80
55,51,347760,80
50,45,347840,80
48,45,347920,80
43,59,348000,80
47,45,348080,80
50,45,348160,80
55,51,348240,80
50,46,348320,80
47,46,348400,80
36,51,348480,80
48,44,348560,80
52,44,348640,80
55,50,348720,80
52,43,348800,80
48,43,348880,80
36,59,348960,80
48,45,349040,80
52,45,349120,80
55,51,349200,80
52,46,349280,80
48,46,349360,80
43,51,349440,80
47,46,349520,80
50,46,349600,80
55,51,349680,80
50,45,349760,80
47,45,349840,80
38,59,349920,80
50,45,350000,80
53,45,350080,80
57,51,350160,80
53,46,350240,80
50,46,350320,80
45,51,350400,80
48,46,350480,80
52,46,350560,80
57,51,350640,80
52,45,350720,80
48,45,350800,80
45,59,350880,80
48,45,350960,80
52,45,351040,80
57,51,351120,80
52,46,351200,80
48,46,351280,80
38,51,351360,80
45,46,351440,80
48,46,351520,80
50,51,351600,80
48,45,351680,80
45,45,351760,80
38,59,351840,80
45,45,351920,80
48,45,352000,80
50,51,352080,80
48,46,352160,80
45,46,352240,80
43,51,352320,80
50,44,352400,80
55,44,352480,80
43,50,352560,80
47,43,352640,80
55,43,352720,80
43,59,352800,80
48,45,352880,80
50,45,352960,80
43,51,353040,80
48,46,353120,80
50,46,353200,80
43,51,353280,80
47,46,353360,80
50,46,353440,80
43,51,353520,80
47,45,353600,80
50,45,353680,80
43,59,353760,80
48,45,353840,80
50,45,353920,80
43,51,354000,80
48,46,354080,80
50,46,354160,80
43,58,354240,80
47,44,354320,80
50,44,354400,80
43,50,354480,80
47,43,354560,80
50,43,354640,80
43,40,354720,80
48,30,354800,80
50,30,354880,80
57,34,354960,80
50,31,355040,80
48,31,355120,80
43,35,355200,80
47,31,355280,80
50,31,355360,80
55,34,355440,80
50,30,355520,80
47,30,355600,80
43,40,355680,80
48,30,355760,80
50,30,355840,80
57,34,355920,80
50,31,356000,80
48,31,356080,80
43,39,356160,80
47,30,356240,80
50,30,356320,80
55,34,356400,80
50,29,356480,80
47,29,356560,80
43,65,356640,80
48,49,356720,80
50,49,356800,80
43,56,356880,80
48,51,356960,80
50,51,357040,80
43,56,357120,80
47,51,357200,80
50,51,357280,80
43,56,357360,80
47,49,357440,80
50,49,357520,80
43,65,357600,80
48,49,357680,80
50,49,357760,80
43,56,357840,80
48,51,357920,80
50,51,358000,80
43,63,358080,80
47,48,358160,80
50,48,358240,80
43,54,358320,80
47,47,358400,80
50,47,358480,80
43,40,358560,80
48,30,358640,80
50,30,358720,80
57,34,358800,80
50,31,358880,80
48,31,358960,80
43,35,359040,80
47,31,359120,80
50,31,359200,80
55,34,359280,80
50,30,359360,80
47,30,359440,80
43,40,359520,80
48,30,359600,80
50,30,359680,80
57,34,359760,80
50,31,359840,80
48,31,359920,80
43,43,360000,80
47,33,360080,80
50,34,360160,80
55,39,360240,80
50,34,360320,80
47,35,360400,80
43,50,360480,80
48,38,360560,80
50,39,360640,80
57,45,360720,80
50,42,360800,80
48,43,360880,80
43,50,360960,80
47,44,361040,80
50,45,361120,80
55,51,361200,80
50,45,361280,80
47,47,361360,80
43,64,361440,80
48,49,361520,80
50,50,361600,80
57,57,361680,80
50,53,361760,80
48,54,361840,80
43,68,361920,240
47,68,361920,240
50,68,361920,240
55,80,361920,240
43,78,363360,240
47,78,363360,240
50,78,363360,240
55,92,363360,240
31,85,363840,240
43,101,363840,240
43,78,365294,240
47,78,365294,240
50,78,365294,240
55,92,365294,240
31,85,365774,240
43,101,365774,240
43,78,367214,240
47,78,367214,240
50,78,367214,240
55,92,367214,240
31,85,367694,240
43,101,367694,240
43,78,369134,240
47,78,369134,240
50,78,369134,240
55,92,369134,240
31,76,369614,240
43,90,369614,240
65,64,370560,240
62,54,370560,240
59,54,370560,240
55,54,370560,240
65,58,371520,240
62,49,371520,240
59,49,371520,240
55,49,371520,240
65,51,372480,240
62,43,372480,240
59,43,372480,240
55,43,372480,240
55,40,373440,240
59,40,373440,240
62,40,373440,240
65,48,373440,240
43,32,374400,240
47,32,374400,240
50,32,374400,240
53,38,374400,240
43,30,375360,240
47,30,375360,240
50,30,375360,240
53,36,375360,240
43,28,376320,240
47,28,376320,240
50,28,376320,240
53,34,376320,240
43,21,377280,240
47,21,377280,240
50,21,377280,240
53,25,377280,240
43,21,379200,480
46,21,379200,480
49,21,379200,480
52,25,379200,480
43,21,381120,480
45,21,381120,480
48,21,381120,480
51,25,381120,480
43,25,383040,240
79,30,384000,240
55,27,384480,240
43,25,384960,240
31,25,385440,480
36,72,385920,240
48,75,385920,240
64,41,386160,120
67,34,386280,120
64,41,386400,120
67,34,386520,120
64,41,386640,120
67,33,386760,120
65,41,386880,120
67,34,387000,120
65,41,387120,120
67,35,387240,120
64,41,387360,120
67,34,387480,120
64,41,387600,120
67,35,387720,120
64,41,387840,120
67,34,387960,120
64,41,388080,120
67,34,388200,120
64,41,388320,120
67,34,388440,120
64,41,388560,120
67,33,388680,120
65,41,388800,120
67,34,388920,120
65,41,389040,120
67,35,389160,120
64,41,389280,120
67,34,389400,120
64,41,389520,120
67,35,389640,120
60,41,389760,240
64,41,389760,120
67,34,389880,120
60,41,390000,240
64,41,390000,120
67,34,390120,120
60,41,390240,240
64,41,390240,120
67,34,390360,120
60,41,390480,240
64,41,390480,120
67,33,390600,120
60,38,390720,240
65,38,390720,120
67,32,390840,120
60,38,390960,240
65,38,390960,120
67,33,391080,120
60,38,391200,240
64,38,391200,120
67,32,391320,120
60,38,391440,240
64,38,391440,120
67,33,391560,120
60,41,391680,240
64,41,391680,120
67,34,391800,120
60,41,391920,240
64,41,391920,120
67,34,392040,120
60,41,392160,240
64,41,392160,120
67,34,392280,120
60,41,392400,240
64,41,392400,120
67,33,392520,120
60,38,392640,240
65,38,392640,120
67,32,392760,120
60,38,392880,240
65,38,392880,120
67,33,393000,120
60,38,393120,240
64,38,393120,120
67,32,393240,120
60,38,393360,240
64,38,393360,120
67,33,393480,120
60,48,393600,240
65,48,393600,120
67,43,393720,120
60,54,393840,240
65,54,393840,120
67,47,393960,120
64,60,394080,130
63,53,394200,130
64,53,394320,130
60,54,394440,120
62,61,394560,130
61,54,394680,130
62,54,394800,130
59,54,394920,120
60,61,395040,130
59,54,395160,130
60,54,395280,130
57,54,395400,120
59,60,395520,130
58,54,395640,130
59,54,395760,130
55,54,395880,120
57,60,396000,130
56,54,396120,130
57,54,396240,130
53,54,396360,120
55,60,396480,130
54,54,396600,130
55,54,396720,130
52,54,396840,120
53,61,396960,130
52,54,397080,130
53,54,397200,130
50,54,397320,120
52,62,397440,130
51,54,397560,130
52,54,397680,130
48,54,397800,120
60,61,397920,130
59,54,398040,130
60,54,398160,130
64,54,398280,120
59,61,398400,130
58,54,398520,130
59,54,398640,130
62,54,398760,120
57,61,398880,130
56,54,399000,130
57,54,399120,130
60,54,399240,120
55,60,399360,130
54,54,399480,130
55,54,399600,130
59,54,399720,120
53,61,399840,130
52,54,399960,130
53,54,400080,130
57,54,400200,120
52,62,400320,130
51,54,400440,130
52,54,400560,130
55,54,400680,120
50,60,400800,130
49,54,400920,130
50,54,401040,130
53,53,401160,120
48,84,401280,240
48,72,401640,120
43,84,401760,240
43,72,402120,120
50,84,402240,240
50,72,402600,120
45,84,402720,240
45,72,403080,120
53,84,403200,240
53,73,403560,120
48,84,403680,240
48,74,404040,120
55,84,404160,240
55,73,404520,120
43,84,404640,240
43,74,405000,120
48,84,405120,240
60,73,405480,120
55,84,405600,240
55,73,405960,120
50,84,406080,240
62,72,406440,120
57,84,406560,240
57,72,406920,120
53,84,407040,240
65,73,407400,120
53,84,407520,240
65,73,407880,120
53,83,408000,240
65,72,408360,120
53,82,408480,240
53,72,408840,120
41,82,408960,240
57,41,409200,120
60,34,409320,120
57,41,409440,120
60,34,409560,120
57,41,409680,120
60,33,409800,120
58,41,409920,120
60,34,410040,120
58,41,410160,120
60,35,410280,120
57,41,410400,120
60,34,410520,120
57,41,410640,120
60,35,410760,120
57,41,410880,120
60,34,411000,120
57,41,411120,120
60,34,411240,120
57,41,411360,120
60,34,411480,120
57,41,411600,120
60,33,411720,120
58,38,411840,120
60,32,411960,120
58,38,412080,120
60,33,412200,120
57,38,412320,120
60,32,412440,120
57,38,412560,120
60,33,412680,120
43,85,412800,240
59,42,413040,240
62,43,413280,240
59,39,413520,240
60,43,413760,240
64,42,414000,240
62,42,414240,240
59,39,414480,240
55,46,414720,240
59,42,414960,240
62,43,415200,240
59,39,415440,240
60,43,415680,250
64,42,415920,250
62,42,416160,250
59,39,416400,240
57,43,416640,250
60,42,416880,250
59,42,417120,250
55,39,417360,240
53,43,417600,250
57,42,417840,250
55,42,418080,250
52,39,418320,240
50,44,418560,250
53,43,418800,250
48,44,419040,250
52,41,419280,240
47,46,419520,250
50,44,419760,250
45,44,420000,250
48,42,420240,240
43,47,420480,250
47,46,420720,250
41,47,420960,250
45,42,421200,240
40,48,421440,250
43,47,421680,250
31,47,421920,250
38,47,421920,250
43,43,422160,240
32,79,422400,240
44,94,422400,240
63,98,422880,120
60,89,422880,120
56,82,422880,120
63,98,423360,960
60,89,423360,960
56,82,423360,960
39,47,424320,240
61,40,424800,240
58,34,424800,240
55,34,424800,240
51,34,424800,240
40,47,425280,240
61,40,425760,240
58,34,425760,240
55,34,425760,240
52,34,425760,240
41,94,426240,240
60,98,426720,120
56,89,426720,120
53,82,426720,120
60,98,427200,960
56,89,427200,960
53,82,427200,960
36,47,428160,240
58,40,428640,240
55,34,428640,240
52,34,428640,240
48,34,428640,240
36,47,429120,240
58,40,429600,240
55,34,429600,240
52,34,429600,240
48,34,429600,240
37,94,430080,240
56,88,430560,120
53,80,430560,120
49,73,430560,120
56,88,431040,960
53,80,431040,960
49,73,431040,960
32,47,432000,240
54,40,432480,240
51,34,432480,240
48,34,432480,240
44,34,432480,240
33,47,432960,240
54,40,433440,240
51,34,433440,240
48,34,433440,240
45,34,433440,240
34,58,433920,160
53,32,434400,240
49,27,434400,240
46,27,434400,240
46,27,434880,960
49,27,434880,960
53,32,434880,960
32,58,435840,160
53,32,436320,240
48,27,436320,240
44,27,436320,240
44,27,436800,960
48,27,436800,960
53,32,436800,960
31,58,437760,160
43,27,438240,240
53,32,438240,240
50,27,438240,240
47,27,438240,240
43,27,438720,960
47,27,438720,960
50,27,438720,960
53,32,438720,960
32,58,439680,160
51,32,440160,240
48,27,440160,240
44,27,440160,240
44,27,440640,960
48,27,440640,960
51,32,440640,960
33,41,441600,160
36,37,441760,160
39,37,441920,160
42,41,442080,160
45,37,442240,160
48,37,442400,160
51,41,442560,160
54,38,442720,160
57,39,442880,160
31,41,445440,240
36,41,445440,240
40,41,445440,240
43,41,445440,240
31,29,447480,130
43,35,447480,130
33,29,447600,130
45,35,447600,130
35,30,447720,130
47,36,447720,130
36,31,447840,130
48,37,447840,130
38,31,447960,130
50,37,447960,130
40,32,448080,130
52,38,448080,130
41,32,448200,130
53,38,448200,130
43,33,448320,240
55,39,448320,240
45,31,448560,130
57,37,448560,130
47,32,448680,130
59,38,448680,130
48,33,448800,130
60,39,448800,130
50,34,448920,130
62,40,448920,130
52,35,449040,130
64,42,449040,130
53,36,449160,130
65,43,449160,130
55,37,449280,240
67,44,449280,240
31,29,451320,130
43,35,451320,130
33,29,451440,130
45,35,451440,130
35,30,451560,130
47,36,451560,130
36,31,451680,130
48,37,451680,130
38,31,451800,130
50,37,451800,130
40,32,451920,130
52,38,451920,130
41,32,452040,130
53,38,452040,130
43,33,452160,240
55,39,452160,240
45,31,452400,130
57,37,452400,130
47,32,452520,130
59,38,452520,130
48,33,452640,130
60,39,452640,130
50,34,452760,130
62,40,452760,130
52,35,452880,130
64,42,452880,130
53,36,453000,130
65,43,453000,130
55,37,453120,240
67,44,453120,240
55,35,455160,130
53,37,455280,130
52,38,455400,130
50,40,455520,130
48,41,455640,130
47,43,455760,130
45,44,455880,130
43,46,456000,240
41,47,456240,130
40,48,456360,130
38,50,456480,130
36,51,456600,130
35,53,456720,130
33,54,456840,130
31,57,456960,130
33,57,457080,130
35,58,457200,130
36,58,457320,130
38,59,457440,130
40,59,457560,130
41,60,457680,130
42,60,457800,130
43,61,457920,130
45,61,458040,130
47,62,458160,130
48,62,458280,130
50,63,458400,130
52,63,458520,130
53,64,458640,130
54,64,458760,130
55,64,458880,130
57,64,459000,130
59,65,459120,130
60,65,459240,130
62,66,459360,130
64,66,459480,130
65,67,459600,130
66,67,459720,130
67,68,459840,130
69,66,459960,130
71,65,460080,130
72,63,460200,130
74,62,460320,130
76,57,460440,130
77,55,460560,130
76,53,460680,130
77,56,460800,240
76,43,461400,120
77,46,461520,120
76,43,461640,120
77,51,461760,240
76,42,462360,120
77,46,462480,120
76,42,462600,120
77,50,462720,240
48,51,464640,160
55,31,464800,160
60,31,464960,160
64,33,465120,160
60,31,465280,160
64,31,465440,160
67,35,465600,160
64,31,465760,160
67,31,465920,160
64,35,466080,160
60,31,466240,160
64,31,466400,160
65,35,466560,160
62,31,466720,160
65,31,466880,160
62,36,467040,160
59,31,467200,160
62,31,467360,160
64,35,467520,160
60,31,467680,160
55,31,467840,160
60,35,468000,160
55,31,468160,160
52,31,468320,160
48,49,468480,160
55,31,468640,160
60,31,468800,160
64,33,468960,160
60,31,469120,160
64,31,469280,160
67,35,469440,160
64,31,469600,160
67,31,469760,160
64,35,469920,160
60,31,470080,160
64,31,470240,160
65,35,470400,160
62,31,470560,160
65,31,470720,160
59,36,470880,160
62,31,471040,160
59,31,471200,160
60,35,471360,160
57,31,471520,160
55,31,471680,160
53,35,471840,160
52,31,472000,160
50,31,472160,160
48,63,472320,160
55,31,472480,160
60,31,472640,160
63,33,472800,160
60,31,472960,160
63,31,473120,160
67,35,473280,160
63,31,473440,160
67,31,473600,160
63,35,473760,160
60,31,473920,160
63,31,474080,160
65,35,474240,160
62,31,474400,160
65,31,474560,160
62,36,474720,160
59,31,474880,160
62,31,475040,160
63,35,475200,160
60,31,475360,160
63,31,475520,160
51,35,475680,240
58,35,475680,160
61,31,475840,160
58,31,476000,160
44,45,476160,160
51,31,476320,160
56,31,476480,160
60,33,476640,160
56,31,476800,160
60,31,476960,160
63,35,477120,160
60,31,477280,160
63,31,477440,160
60,35,477600,160
56,31,477760,160
60,31,477920,160
61,35,478080,160
58,31,478240,160
61,31,478400,160
58,36,478560,160
55,31,478720,160
58,31,478880,160
60,35,479040,160
56,31,479200,160
60,31,479360,160
48,35,479520,240
55,35,479520,160
58,31,479680,160
55,31,479840,160
41,45,480000,160
48,31,480160,160
53,31,480320,160
56,33,480480,160
53,31,480640,160
56,31,480800,160
60,35,480960,160
56,31,481120,160
60,31,481280,160
56,35,481440,160
53,31,481600,160
56,31,481760,160
58,35,481920,160
55,31,482080,160
58,31,482240,160
55,36,482400,160
52,31,482560,160
55,31,482720,160
56,35,482880,160
53,31,483040,160
56,31,483200,160
53,35,483360,160
48,31,483520,160
53,31,483680,160
58,35,483840,160
55,31,484000,160
58,31,484160,160
52,36,484320,160
55,31,484480,160
52,31,484640,160
53,35,484800,160
56,31,484960,160
53,31,485120,160
55,35,485280,160
60,31,485440,160
55,31,485600,160
65,40,485760,240
56,40,485760,240
56,40,486480,240
65,40,486480,240
56,44,486720,240
65,44,486720,240
56,41,487440,240
65,41,487440,240
56,49,487680,240
66,49,487680,240
56,47,488400,240
66,47,488400,240
56,52,488640,240
66,52,488640,240
56,48,489360,240
66,48,489360,240
55,56,489600,240
67,56,489600,240
67,57,489840,240
72,57,489840,240
67,59,490080,240
72,59,490080,240
67,60,490320,240
72,60,490320,240
67,62,490560,240
72,62,490560,240
67,63,490800,240
72,63,490800,240
67,64,491040,240
72,64,491040,240
67,66,491280,240
72,66,491280,240
67,68,491520,1920
72,46,491520,80
71,40,491600,80
72,47,491680,80
71,41,491760,80
72,50,491840,80
71,45,491920,80
72,52,492000,80
71,44,492080,80
72,52,492160,80
71,43,492240,80
72,54,492320,80
71,45,492400,80
72,50,492480,80
71,44,492560,80
72,50,492640,80
71,44,492720,80
72,54,492800,80
71,48,492880,80
72,55,492960,80
71,44,493040,80
72,54,493120,80
71,48,493200,80
72,56,493280,80
71,50,493360,80
36,85,493440,240
48,66,493680,120
52,66,493680,120
55,66,493680,120
60,78,493680,120
48,66,493920,1440
52,66,493920,480
55,66,493920,480
60,78,493920,480
53,69,494400,480
55,69,494400,480
59,82,494400,480
52,65,494880,480
55,65,494880,480
60,77,494880,480
36,48,495360,240
48,37,495600,120
52,37,495600,120
55,37,495600,120
60,43,495600,120
48,37,495840,1440
52,37,495840,480
55,37,495840,480
60,43,495840,480
53,38,496320,480
55,38,496320,480
59,46,496320,480
52,37,496800,480
55,37,496800,480
60,43,496800,480
36,85,497280,240
48,66,497520,120
52,66,497520,120
55,66,497520,120
60,78,497520,120
48,66,497760,1440
52,66,497760,480
55,66,497760,480
60,78,497760,480
53,69,498240,480
55,69,498240,480
59,82,498240,480
52,65,498720,480
55,65,498720,480
60,77,498720,480
36,48,499200,240
48,37,499440,120
52,37,499440,120
55,37,499440,120
60,43,499440,120
48,37,499680,1440
52,37,499680,480
55,37,499680,480
60,43,499680,480
53,38,500160,480
55,38,500160,480
59,46,500160,480
52,37,500640,480
55,37,500640,480
60,43,500640,480
48,34,501120,238
53,41,501120,238
48,30,501360,238
53,36,501360,238
48,31,501600,238
52,37,501600,238
48,32,501840,238
52,38,501840,238
48,34,502080,238
53,41,502080,238
48,30,502320,238
53,36,502320,238
48,31,502560,238
52,37,502560,238
48,32,502800,238
52,38,502800,238
48,37,503040,238
53,45,503040,238
53,33,503280,238
48,33,503280,238
55,40,503280,238
50,36,503520,238
53,36,503520,238
55,36,503520,238
48,36,503520,238
59,43,503520,238
50,38,503760,238
53,38,503760,238
55,38,503760,238
48,38,503760,238
59,45,503760,238
50,42,504000,238
53,42,504000,238
55,42,504000,238
48,42,504000,238
59,51,504000,238
50,38,504240,238
55,38,504240,238
53,38,504240,238
48,38,504240,238
59,46,504240,238
50,40,504480,238
53,40,504480,238
55,40,504480,238
48,40,504480,238
59,48,504480,238
50,43,504720,238
53,43,504720,238
55,43,504720,238
48,43,504720,238
59,51,504720,238
50,47,504960,238
53,47,504960,238
55,47,504960,238
48,47,504960,238
59,57,504960,238
50,42,505200,238
55,42,505200,238
53,42,505200,238
48,42,505200,238
59,50,505200,238
50,44,505440,238
53,44,505440,238
55,44,505440,238
48,44,505440,238
59,52,505440,238
50,45,505680,238
53,45,505680,238
55,45,505680,238
48,45,505680,238
59,55,505680,238
50,49,505920,238
53,49,505920,238
55,49,505920,238
48,49,505920,238
59,60,505920,238
50,45,506160,238
55,45,506160,238
53,45,506160,238
48,45,506160,238
59,54,506160,238
50,46,506400,238
53,46,506400,238
55,46,506400,238
48,46,506400,238
59,55,506400,238
50,48,506640,238
53,48,506640,238
55,48,506640,238
48,48,506640,238
59,58,506640,238
36,71,506880,240
48,71,506880,240
52,56,507120,120
55,67,507120,120
48,59,507360,120
52,70,507360,120
60,67,507600,120
55,56,507600,120
52,59,507840,120
55,70,507840,120
60,56,508080,120
64,67,508080,120
55,60,508320,120
60,71,508320,120
60,56,508560,120
64,67,508560,120
64,59,508800,120
67,70,508800,120
67,57,509040,120
72,68,509040,120
64,59,509280,120
67,70,509280,120
72,57,509520,120
76,68,509520,120
67,60,509760,120
72,71,509760,120
76,58,510000,120
79,69,510000,120
72,61,510240,120
76,72,510240,120
76,58,510480,120
79,69,510480,120
72,61,510720,120
76,72,510720,120
64,44,511680,240
67,62,511680,240
60,39,512640,240
64,56,512640,240
52,37,513600,240
55,52,513600,240
48,32,514560,240
52,45,514560,240
64,28,515520,240
67,34,515520,240
64,28,516000,240
67,34,516000,240
60,28,516480,240
64,34,516480,240
36,69,517440,120
40,69,517440,120
43,69,517440,120
48,82,517440,120
36,69,517920,120
40,69,517920,120
43,69,517920,120
48,82,517920,120
36,69,518400,120
40,69,518400,120
43,69,518400,120
48,82,518400,120
36,69,519360,120
40,69,519360,120
43,69,519360,120
48,82,519360,120
36,69,520320,120
40,69,520320,120
43,69,520320,120
48,82,520320,120
