note,velocity,position,duration
69,64,2400,960
69,65,3360,66
81,59,3419,901
93,55,4320,41
105,68,4405,49
93,59,4492,59
105,76,4586,26
93,67,4649,35
105,71,4717,26
93,76,4773,36
105,75,4827,36
93,70,4894,37
105,79,4944,35
93,70,5006,39
105,75,5063,34
93,68,5123,37
105,76,5178,30
93,69,5235,40
105,81,5288,50
93,57,5357,34
105,67,5408,26
93,66,5467,26
105,70,5514,25
93,62,5566,32
105,56,5623,29
93,71,5668,29
76,67,6728,472
62,64,7202,2878
65,56,7202,2406
74,66,7202,2406
76,67,9608,112
74,64,9728,108
73,64,9843,108
74,64,9959,114
64,64,10082,1438
71,56,10082,1438
79,70,10082,1438
83,64,11522,1438
72,56,12872,2968
76,56,12902,2938
79,56,12932,2908
84,66,12962,2878
60,64,16571,223
62,67,16808,221
64,64,17043,222
38,68,17282,238
60,69,17282,728
45,64,17535,223
48,64,17772,948
53,64,18010,224
57,67,18248,221
60,64,18483,222
40,68,18722,238
55,69,18722,728
48,64,18975,223
50,64,19212,948
60,64,19450,224
62,67,19688,221
64,64,19923,222
41,69,20162,490
57,56,20162,238
65,70,20162,253
64,59,20415,223
48,64,20652,1440
60,60,20652,224
55,59,20891,223
65,62,21128,221
64,59,21363,222
65,64,21602,238
64,59,21855,223
60,60,22092,224
77,67,22092,948
55,59,22331,223
65,62,22568,221
64,59,22803,222
60,64,23042,238
76,72,23042,490
55,59,23295,223
65,60,23532,224
74,67,23532,948
64,59,23771,223
60,62,24008,221
55,59,24243,222
65,64,24482,238
67,64,24482,490
64,59,24735,223
60,60,24972,224
79,67,24972,2388
55,59,25211,223
65,62,25448,221
64,59,25683,222
60,64,25922,238
55,59,26175,223
65,60,26412,224
64,59,26651,223
60,62,26888,221
55,59,27123,222
65,64,27362,238
88,67,27362,1438
64,59,27615,223
60,60,27852,224
55,59,28091,223
65,62,28328,221
64,59,28563,222
60,64,28802,238
86,67,28802,1438
55,59,29055,223
65,60,29292,224
64,59,29531,223
60,62,29768,221
55,59,30003,222
65,64,30242,238
91,67,30242,1930
64,59,30495,223
60,60,30732,224
55,59,30971,223
65,62,31208,221
64,59,31443,222
60,64,31682,238
55,59,31935,223
55,56,32093,65
57,56,32132,988
43,64,32172,948
62,70,32172,948
55,69,33122,490
62,65,33612,476
67,67,34088,472
79,69,34562,490
79,65,35052,468
91,67,35520,67
103,59,35580,1620
40,60,37442,490
48,75,37442,490
55,61,37442,490
60,75,37442,490
41,56,37932,1916
50,70,37932,1916
57,56,37932,1440
62,70,37932,1440
60,65,39372,476
50,67,39848,1912
55,59,39848,1912
59,69,39848,1912
50,64,41762,966
55,69,41762,490
67,65,42252,476
45,67,42728,472
55,67,42728,472
43,64,43202,966
60,64,43202,1438
48,67,44168,472
41,64,44642,1438
57,64,44642,1438
50,64,46082,1438
55,56,46082,966
59,70,46082,966
55,67,47048,472
45,64,47522,1438
60,64,47522,1438
55,69,48962,238
62,64,49215,223
64,65,49452,224
67,64,49691,223
74,67,49928,221
72,64,50163,222
53,69,50402,238
67,69,50402,728
62,64,50655,223
64,64,50892,948
72,64,51130,224
74,67,51368,221
72,64,51603,222
52,69,51842,238
76,69,51842,490
62,64,52095,223
64,64,52332,948
74,65,52332,476
77,67,52808,472
55,69,53282,238
76,69,53282,490
64,64,53535,223
67,64,53772,1203
72,65,53772,476
74,67,54248,472
76,69,54722,490
67,64,54975,223
64,64,55212,948
71,65,55212,476
67,67,55688,1440
40,63,56162,1438
67,67,57128,1912
52,64,57602,1438
43,64,59042,1438
55,69,59042,490
62,65,59532,476
67,67,60008,472
55,64,60482,1438
74,69,60482,490
79,65,60972,476
83,67,61448,472
41,69,61922,490
72,56,61922,1438
81,70,61922,1438
48,65,62412,476
53,67,62888,472
41,69,63362,490
69,56,63362,1438
76,70,63362,1438
48,65,63852,476
53,67,64328,472
41,69,64802,490
67,56,64802,2406
74,70,64802,2406
50,65,65292,476
55,67,65768,472
41,69,66242,490
50,65,66732,476
55,67,67208,472
76,67,67208,112
74,64,67328,108
73,64,67443,108
74,64,67559,114
40,68,67682,490
71,56,67682,1438
79,70,67682,1438
50,65,68172,476
55,67,68648,472
40,68,69122,490
62,56,69122,1438
71,70,69122,1438
50,65,69612,476
55,67,70088,472
45,69,70562,490
64,56,70562,1930
72,70,70562,1930
55,65,71052,476
60,67,71528,472
45,69,72002,490
55,65,72492,476
74,65,72492,476
60,67,72968,472
76,67,72968,472
41,69,73442,490
77,69,73442,238
76,64,73695,223
48,65,73932,476
72,65,73932,224
77,64,74171,223
53,67,74408,472
76,67,74408,221
72,64,74643,222
60,69,74882,490
77,69,74882,238
76,64,75135,223
57,65,75372,476
72,65,75372,224
77,64,75611,223
53,67,75848,472
76,67,75848,221
72,64,76083,222
43,69,76322,490
77,69,76322,238
76,64,76575,223
50,65,76812,476
72,65,76812,224
77,64,77051,223
60,67,77288,472
76,67,77288,221
72,64,77523,222
59,61,77682,570
62,61,77722,530
44,69,77762,490
71,75,77762,490
50,65,78252,476
60,57,78252,476
72,71,78252,476
53,67,78728,472
62,59,78728,472
74,73,78728,472
45,69,79202,490
64,56,79202,1438
69,56,79202,1438
76,70,79202,1438
52,65,79692,476
60,67,80168,472
59,69,80642,490
64,56,80642,1438
67,56,80642,1438
69,70,80642,1438
57,65,81132,476
52,67,81608,472
43,69,82082,490
59,56,82082,1438
64,56,82082,1438
71,70,82082,1438
50,69,82572,476
55,73,83048,472
43,73,83522,490
60,68,83522,490
72,82,83522,490
50,69,84012,476
62,67,84012,476
74,81,84012,476
55,71,84488,472
64,71,84488,472
76,85,84488,472
69,70,84872,1528
74,70,84902,1498
76,70,84932,28
41,72,84962,490
81,84,84962,1438
48,68,85452,476
53,70,85928,472
41,72,86402,490
76,70,86402,1438
79,70,86402,1438
88,84,86402,1438
48,68,86892,476
53,70,87368,472
40,71,87842,490
74,70,87842,2406
79,70,87842,2406
86,84,87842,2406
50,68,88332,476
55,70,88808,472
40,71,89282,490
50,68,89772,476
55,70,90248,472
88,81,90248,112
86,78,90368,108
85,78,90483,108
86,78,90599,121
40,71,90722,490
79,70,90722,1438
86,70,90722,1438
91,84,90722,1438
47,68,91212,476
52,70,91688,472
55,72,92162,490
83,70,92162,1438
95,84,92162,1438
52,68,92652,476
47,70,93128,472
40,71,93602,490
84,70,93602,1438
88,70,93602,1438
96,84,93602,1438
55,68,94092,476
60,70,94568,472
62,72,95042,490
67,70,95520,472
71,68,95532,476
74,70,96008,472
79,64,96482,2406
76,67,98888,472
41,64,99362,1438
69,61,99362,238
77,75,99362,253
76,64,99615,223
72,65,99852,224
67,64,100091,223
65,67,100328,221
64,64,100563,222
50,64,100802,1438
60,64,100802,966
55,67,101768,472
53,64,102242,2878
60,56,102242,1438
67,70,102242,1438
71,64,103682,1438
72,64,105122,2878
43,64,107291,223
52,67,107528,221
55,64,107763,222
62,69,108002,238
55,64,108255,223
64,65,108492,224
67,64,108731,237
67,67,108968,472
76,67,108968,472
55,64,109442,1438
74,69,109442,490
74,65,109932,224
79,64,110171,223
86,67,110408,472
55,56,110882,1438
60,70,110882,1438
84,69,110882,490
86,65,111372,476
88,67,111848,472
40,63,112322,1438
84,69,112322,728
55,64,113050,224
60,67,113288,221
67,64,113523,237
53,56,113762,966
55,70,113762,966
60,56,113762,966
67,70,113762,966
60,67,114728,472
79,67,114728,472
55,56,115202,1438
59,70,115202,1438
79,64,115202,966
74,67,116168,472
55,61,116642,490
60,75,116642,490
72,64,116642,1438
62,65,117132,476
64,67,117608,472
55,61,118082,238
65,75,118082,253
64,64,118335,223
60,65,118572,224
65,64,118811,223
64,67,119048,221
60,64,119283,222
65,69,119522,238
64,64,119775,223
60,65,120012,224
65,64,120251,223
64,67,120488,221
60,64,120723,222
65,69,120962,238
72,64,120962,2878
64,64,121215,223
60,65,121452,224
65,64,121691,223
64,67,121928,221
60,64,122163,222
65,69,122402,238
64,64,122655,223
60,65,122892,224
65,64,123131,223
64,67,123368,221
60,64,123603,222
46,64,123842,1438
60,64,123842,1438
55,64,125282,1438
55,56,126722,1438
60,70,126722,1438
62,56,128162,1438
67,70,128162,1438
67,56,129602,2878
72,70,129602,2878
