note,velocity,time
71,42,120
68,42,120
75,51,120
66,51,120
75,51,120
71,42,120
68,42,120
66,51,120
75,51,120
68,42,120
71,42,120
66,51,120
68,44,120
71,44,120
75,52,120
66,52,120
68,44,120
75,52,120
71,44,120
66,52,120
68,44,120
71,44,120
75,52,120
66,52,120
77,42,120
83,42,120
87,51,120
85,51,120
87,51,120
83,42,120
77,42,120
85,51,120
87,51,120
83,42,120
77,42,120
85,51,120
83,44,120
77,44,120
87,52,120
85,52,120
87,52,120
83,44,120
77,44,120
85,52,120
87,52,120
77,44,120
83,44,120
85,52,120
63,35,120
66,35,120
70,35,120
61,35,118
61,35,60
70,35,60
66,35,60
70,35,60
66,35,60
61,35,60
70,35,120
66,35,120
63,35,120
61,35,118
70,35,60
61,35,60
66,35,60
61,35,60
66,35,60
70,35,60
71,35,120
65,35,120
63,35,120
61,35,118
65,36,120
63,36,120
71,36,120
61,36,120
71,38,120
65,38,120
63,38,120
61,38,120
71,39,120
63,39,120
65,39,120
61,39,120
63,41,120
65,41,120
71,41,120
61,42,118
63,43,120
71,43,120
65,43,120
61,44,120
63,35,120
66,35,120
70,35,120
61,35,118
61,35,60
66,35,60
70,35,60
66,35,60
61,35,60
70,35,60
63,35,120
66,35,120
70,35,120
61,35,118
61,35,60
70,35,60
66,35,60
70,35,60
66,35,60
61,35,60
71,35,120
65,35,120
63,35,120
61,35,120
71,36,120
63,36,120
65,36,120
61,36,120
63,38,120
65,38,120
71,38,120
61,38,120
63,39,120
71,39,120
65,39,120
61,39,120
63,41,120
65,41,120
71,41,120
61,42,120
63,43,120
65,43,120
71,43,120
61,44,120
61,58,360
66,58,360
66,55,120
70,55,120
70,57,120
73,57,120
73,61,120
78,61,120
78,66,120
82,66,120
85,63,120
82,63,120
90,76,240
85,76,240
102,85,480
97,85,480
90,85,480
78,67,240
90,67,240
92,69,240
80,69,240
82,71,480
94,71,480
80,68,240
92,68,240
90,65,180
78,65,180
80,53,60
92,53,60
82,53,60
94,53,60
92,68,480
80,68,480
78,59,240
90,59,240
87,57,240
75,57,240
73,55,480
85,55,480
68,62,240
80,62,240
74,62,480
82,64,240
70,64,240
71,66,480
74,66,480
83,66,480
73,59,480
80,59,240
68,59,240
82,53,240
70,53,240
78,62,240
70,62,240
66,62,240
63,35,120
66,35,120
70,35,120
61,35,120
61,35,60
66,35,60
70,35,60
66,35,60
61,35,60
70,35,60
63,35,120
66,35,120
70,35,120
61,35,118
61,35,60
70,35,60
66,35,60
70,35,60
66,35,60
61,35,60
71,35,120
65,35,120
63,35,120
61,35,120
71,36,120
63,36,120
65,36,120
61,36,120
63,38,120
65,38,120
71,38,120
61,38,120
63,39,120
71,39,120
65,39,120
61,39,120
63,41,120
65,41,120
71,41,120
61,42,120
63,43,120
65,43,120
71,43,120
61,44,120
70,35,120
66,35,120
63,35,120
61,35,118
70,35,60
66,35,60
61,35,60
70,35,60
61,35,60
66,35,60
63,35,120
66,35,120
70,35,120
61,35,118
61,35,60
66,35,60
70,35,60
66,35,60
61,35,60
70,35,60
63,35,120
65,35,120
71,35,120
61,35,120
63,36,120
71,36,120
65,36,120
61,36,120
63,38,120
65,38,120
71,38,120
61,38,120
63,39,120
65,39,120
71,39,120
61,39,120
71,41,120
65,41,120
63,41,120
61,42,118
71,43,120
65,43,120
63,43,120
61,44,120
66,58,360
61,58,360
66,55,120
70,55,120
70,57,120
73,57,120
73,61,120
78,61,120
78,66,120
82,66,120
85,63,120
82,63,120
90,76,240
85,76,240
90,85,480
97,85,480
102,85,480
78,61,240
90,61,240
92,63,240
80,63,240
82,66,480
94,66,480
80,62,240
92,62,240
78,60,180
90,60,180
92,49,60
80,49,60
82,49,60
94,49,60
92,62,480
80,62,480
78,58,240
90,58,240
89,56,240
77,56,240
75,53,480
87,53,480
66,57,960
77,54,240
75,62,480
66,60,480
72,60,240
80,56,240
77,57,240
65,57,240
58,35,120
61,35,120
65,35,120
56,35,115
56,35,60
61,35,60
65,35,60
61,35,60
56,35,60
65,35,60
58,35,120
61,35,120
65,35,120
56,35,110
56,35,60
65,35,60
61,35,60
65,35,60
61,35,60
56,35,60
66,35,120
60,35,120
58,35,120
56,35,110
66,36,120
58,36,120
60,36,120
56,36,120
58,38,120
60,38,120
66,38,120
56,38,120
58,39,120
66,39,120
60,39,120
56,39,120
58,41,120
60,41,120
66,41,120
56,42,110
58,43,120
60,43,120
66,43,120
56,44,120
65,35,120
61,35,120
58,35,120
56,35,110
65,35,60
61,35,60
56,35,60
65,35,60
56,35,60
61,35,60
58,35,120
61,35,120
65,35,120
56,35,110
56,35,60
61,35,60
65,35,60
61,35,60
56,35,60
65,35,60
58,35,120
60,35,120
66,35,120
56,35,110
58,36,120
66,36,120
60,36,120
56,36,120
58,38,120
60,38,120
66,38,120
56,38,120
58,39,120
60,39,120
66,39,120
56,39,120
66,41,120
60,41,120
58,41,120
56,42,110
66,43,120
60,43,120
58,43,120
56,44,120
61,58,360
56,58,360
61,55,118
65,55,120
65,57,120
68,57,120
68,61,120
73,61,120
73,66,120
77,66,120
80,63,120
77,63,120
73,76,240
85,76,240
80,76,240
97,85,480
89,85,480
85,85,480
75,61,240
87,61,240
89,63,240
77,63,240
78,66,480
90,66,480
80,62,240
92,62,240
90,60,180
78,60,180
77,49,60
89,49,60
78,49,60
90,49,60
89,62,480
77,62,480
75,55,240
87,55,240
89,52,240
77,52,240
73,50,480
85,50,480
70,52,240
82,52,240
76,52,480
85,54,240
73,54,240
71,56,480
75,56,480
83,56,480
73,50,480
80,50,240
68,50,240
82,45,240
70,45,240
78,52,240
70,52,240
66,52,240
63,35,120
66,35,120
70,35,120
61,35,110
61,35,60
66,35,60
70,35,60
66,35,60
61,35,60
70,35,60
63,35,120
66,35,120
70,35,120
61,35,110
61,35,60
70,35,60
66,35,60
70,35,60
66,35,60
61,35,60
71,35,120
65,35,120
63,35,120
61,35,110
71,36,120
63,36,120
65,36,120
61,36,120
63,38,120
65,38,120
71,38,120
61,38,120
63,39,120
71,39,120
65,39,120
61,39,120
63,41,120
65,41,120
71,41,120
61,42,120
63,43,120
65,43,120
71,43,120
61,44,120
70,35,120
66,35,120
63,35,120
61,35,110
70,35,60
66,35,60
61,35,60
70,35,60
61,35,60
66,35,60
63,35,120
66,35,120
70,35,120
61,35,110
61,35,60
66,35,60
70,35,60
66,35,60
61,35,60
70,35,60
63,35,120
65,35,120
71,35,120
61,35,110
63,36,120
71,36,120
65,36,120
61,36,120
63,38,120
65,38,120
71,38,120
61,38,120
63,39,120
65,39,120
71,39,120
61,39,120
71,41,120
65,41,120
63,41,120
61,42,120
71,43,120
65,43,120
63,43,120
61,44,120
66,58,360
61,58,360
66,55,120
70,55,120
70,57,120
73,57,120
73,61,120
78,61,120
78,66,120
82,66,120
85,63,120
82,63,120
90,76,240
85,76,240
90,85,480
97,85,480
102,85,480
61,50,120
66,50,120
66,46,120
68,46,120
66,53,480
69,53,480
66,48,120
71,48,120
66,37,120
69,44,120
68,37,60
69,37,60
65,39,480
68,47,480
71,61,480
74,61,240
73,57,240
69,60,480
78,60,480
69,50,480
72,50,480
77,61,240
81,59,240
69,45,480
73,45,480
81,56,480
68,45,480
72,45,480
76,55,480
66,38,120
69,38,120
73,38,120
64,38,110
64,38,60
69,38,60
73,38,60
69,38,60
64,38,60
73,38,60
76,38,60
69,45,120
73,55,120
69,41,120
74,50,120
70,47,480
76,58,480
70,48,120
77,52,120
70,37,120
76,48,120
74,46,60
76,45,60
70,44,480
74,57,480
65,54,120
72,54,120
65,50,120
70,50,120
64,55,480
69,55,480
70,46,480
76,57,240
77,61,240
70,54,480
76,60,480
79,66,480
67,49,480
70,49,240
73,60,480
69,53,240
70,45,120
74,45,120
77,45,120
69,45,120
69,45,60
74,45,60
77,45,60
74,45,60
69,45,60
77,45,60
81,45,60
69,45,120
71,45,120
74,55,120
69,41,120
71,41,120
76,50,120
69,47,480
71,47,480
77,58,480
71,48,120
69,48,120
76,52,120
69,37,120
71,37,120
74,48,120
72,46,60
74,45,60
65,44,480
69,44,480
72,57,480
65,54,240
69,54,240
71,54,240
65,50,240
69,50,240
72,50,240
65,55,480
69,55,480
74,55,480
63,46,480
69,57,240
71,61,240
63,54,480
69,60,480
72,66,480
66,49,480
63,49,480
57,41,480
59,41,480
71,60,480
61,45,120
64,45,120
68,45,120
59,45,120
59,45,60
64,45,60
68,45,60
64,45,60
59,45,60
68,45,60
71,45,60
64,63,240
74,63,240
76,63,240
66,67,240
78,67,240
68,63,240
80,63,240
68,68,480
74,68,240
78,68,240
72,63,240
76,63,240
64,56,240
69,56,240
76,67,240
68,53,120
72,63,120
69,56,120
73,67,120
73,59,120
76,70,120
76,62,120
81,74,120
85,78,120
81,66,120
88,81,240
81,68,240
85,65,240
76,55,240
69,64,240
76,74,240
64,54,240
73,64,240
69,63,480
80,77,240
71,70,240
64,64,240
68,76,240
76,76,240
88,97,240
80,81,240
76,80,240
57,35,120
60,35,120
64,35,120
55,35,110
55,35,60
60,35,60
64,35,60
55,35,60
60,35,60
64,35,60
57,35,120
60,35,120
64,35,120
55,35,110
55,35,60
60,35,60
64,35,60
55,35,60
60,35,60
64,35,60
57,35,120
59,35,120
65,35,120
55,35,110
57,36,120
59,36,120
65,36,120
55,36,120
57,38,120
59,38,120
65,38,120
55,38,120
57,39,120
59,39,120
65,39,120
55,39,120
57,41,120
59,41,120
65,41,120
55,42,110
57,43,120
59,43,120
65,43,120
55,44,120
57,29,120
60,29,120
64,29,120
55,29,110
55,29,60
60,29,60
64,29,60
55,29,60
60,29,60
64,29,60
57,29,120
60,29,120
64,29,120
55,29,110
55,29,60
60,29,60
64,29,60
55,29,60
60,29,60
64,29,60
57,29,120
59,29,120
65,29,120
55,29,110
57,30,120
59,30,120
65,30,120
55,30,120
57,32,120
59,32,120
65,32,120
55,32,120
57,33,120
59,33,120
65,33,120
55,33,120
57,34,120
59,34,120
65,34,120
55,35,120
57,36,120
59,36,120
65,36,120
55,37,120
84,54,120
72,54,120
86,56,120
74,56,120
76,59,480
88,59,480
74,55,120
86,55,120
72,51,120
84,51,120
74,44,60
86,44,60
76,44,60
88,44,60
86,55,480
74,55,480
72,52,120
84,52,120
67,50,120
79,50,120
64,56,240
76,56,240
68,45,240
74,45,240
70,45,240
73,45,240
72,47,240
75,47,240
73,49,240
76,49,240
82,51,240
76,51,240
81,53,240
79,53,240
88,54,240
79,54,240
86,59,240
77,59,240
75,54,240
81,54,240
74,57,240
80,57,240
85,51,240
76,51,240
78,60,480
86,60,480
86,64,120
74,55,120
88,67,120
76,56,120
77,59,480
89,70,480
76,56,120
88,66,120
74,51,120
86,61,120
76,44,60
88,52,60
77,44,60
89,52,60
88,66,480
76,56,480
74,52,120
86,62,120
69,49,120
81,58,120
65,46,120
77,55,120
69,49,240
76,58,240
69,45,240
75,45,240
72,47,240
76,47,240
75,49,240
78,49,240
81,51,240
79,51,240
84,53,240
78,53,240
83,54,240
81,54,240
91,59,240
79,59,240
75,54,240
84,54,240
76,57,240
83,57,240
87,51,240
81,51,240
79,60,480
88,60,480
88,64,120
76,55,120
90,67,120
78,56,120
79,59,480
91,70,480
78,56,120
90,66,120
76,51,120
88,61,120
78,44,60
90,52,60
79,44,60
91,52,60
90,66,480
78,56,480
76,52,120
88,62,120
71,49,120
83,58,120
67,46,480
79,55,480
91,70,120
79,59,120
93,73,120
81,61,120
82,64,480
94,77,480
81,61,120
93,72,120
79,56,120
91,67,120
81,48,60
93,57,60
82,48,60
94,57,60
93,72,480
81,61,480
79,57,120
91,68,120
74,53,120
86,63,120
70,50,480
82,60,480
94,77,120
82,64,120
96,80,120
84,67,120
85,70,120
97,84,120
99,75,120
87,62,120
85,67,120
97,79,120
84,61,120
96,73,120
95,79,120
83,67,120
94,70,120
82,59,120
79,62,120
91,74,120
76,58,120
88,69,120
73,55,120
85,66,120
82,55,120
70,55,120
88,75,120
76,67,120
85,67,120
73,59,120
70,58,120
82,70,120
67,58,120
79,69,120
64,55,120
76,66,120
73,55,120
61,55,120
82,71,120
70,60,120
79,63,120
67,53,120
64,52,120
76,63,120
61,52,120
73,62,120
61,49,240
58,49,240
70,59,240
67,49,240
73,49,240
61,49,240
71,54,240
59,45,240
73,56,240
61,47,240
71,59,480
63,50,480
75,59,480
61,46,240
73,55,240
59,43,240
71,51,240
67,55,480
73,55,480
61,46,480
59,44,240
71,52,240
58,42,240
70,50,240
55,45,480
67,53,480
71,56,240
59,47,240
73,58,240
61,49,240
71,61,480
63,52,480
75,61,480
61,48,240
73,57,240
59,45,240
71,53,240
67,57,480
73,57,480
61,48,480
59,47,240
71,55,240
58,46,240
70,54,240
55,49,480
67,58,480
71,67,240
59,56,240
73,70,240
61,58,240
71,65,480
63,63,480
75,73,480
61,57,240
73,69,240
59,53,240
71,64,240
69,58,480
75,70,240
63,58,240
77,73,240
65,60,240
69,68,960
66,66,480
78,76,480
65,59,120
77,72,120
63,55,120
75,67,120
61,64,120
66,64,120
70,64,120
73,75,120
63,59,120
75,71,120
65,66,120
70,66,120
77,77,120
66,61,120
78,74,120
68,68,120
80,79,120
70,64,120
82,76,120
71,71,120
77,84,120
83,84,120
72,66,120
84,78,120
73,72,120
77,85,120
83,85,120
85,85,120
86,81,120
74,69,120
87,89,120
83,89,120
75,75,120
89,85,120
77,71,120
78,61,240
90,86,240
85,61,240
92,89,240
80,63,240
85,79,480
82,68,480
94,94,480
80,62,240
92,88,240
78,57,120
90,81,120
92,75,60
94,75,60
86,88,480
92,88,480
80,62,480
78,59,240
90,83,240
76,56,240
88,80,240
78,61,480
74,61,480
86,84,480
82,64,240
73,64,240
85,76,240
78,64,240
87,78,240
75,66,240
82,68,480
77,68,480
89,80,480
75,64,240
87,76,240
73,59,240
85,70,240
74,55,1440
83,65,1440
71,55,1440
78,61,240
90,86,240
85,61,240
92,89,240
80,63,240
85,79,480
82,68,480
94,94,480
80,62,240
92,88,240
78,57,120
90,81,120
92,75,60
94,75,60
86,88,480
92,88,480
80,62,480
78,59,240
90,83,240
76,56,240
88,80,240
78,61,480
74,61,480
86,84,480
82,64,240
73,64,240
85,76,240
78,64,240
87,78,240
75,66,240
82,68,480
77,68,480
89,80,480
75,64,240
87,76,240
73,59,240
85,70,240
74,55,1440
83,65,1440
71,55,1440
63,35,120
66,35,120
70,35,120
61,35,110
61,35,60
66,35,60
70,35,60
61,35,60
66,35,60
70,35,60
83,53,240
77,47,240
73,44,240
85,60,240
75,48,240
87,68,240
77,54,240
89,64,240
75,57,240
87,68,240
73,55,240
85,65,240
63,35,120
66,35,120
70,35,120
61,35,110
61,35,60
66,35,60
70,35,60
61,35,60
66,35,60
70,35,60
83,49,240
77,46,240
73,44,240
85,60,240
75,48,240
87,68,240
77,54,240
89,64,240
75,57,240
87,68,240
73,55,240
85,65,240
63,35,120
66,35,120
70,35,120
61,35,110
61,35,60
66,35,60
70,35,60
61,35,60
66,35,60
70,35,60
74,73,120
62,61,120
69,61,120
64,66,120
76,79,120
66,62,120
78,74,120
67,66,120
74,66,120
79,79,120
69,61,120
81,73,120
70,66,120
74,66,120
82,79,120
71,67,120
83,80,120
86,83,120
74,71,120
91,83,120
79,71,120
95,84,120
83,71,120
98,86,120
86,73,120
59,50,120
61,50,120
59,54,120
63,54,120
59,50,120
65,50,120
63,45,60
65,46,60
59,54,120
63,54,120
59,50,120
61,50,120
63,35,120
66,35,120
70,35,120
61,35,110
61,35,60
66,35,60
70,35,60
61,35,60
66,35,60
70,35,60
83,53,240
77,47,240
73,44,240
85,60,240
75,48,240
87,68,240
77,54,240
89,64,240
75,57,240
87,68,240
73,55,240
85,65,240
63,35,120
66,35,120
70,35,120
61,35,110
61,35,60
66,35,60
70,35,60
61,35,60
66,35,60
70,35,60
83,49,240
77,46,240
73,44,240
85,60,240
75,48,240
87,68,240
77,54,240
89,64,240
75,57,240
87,68,240
73,55,240
85,65,240
63,35,120
66,35,120
70,35,120
61,35,110
61,35,60
66,35,60
70,35,60
61,35,60
66,35,60
70,35,60
74,73,120
62,61,120
69,61,120
64,66,120
76,79,120
66,62,120
78,74,120
67,66,120
74,66,120
79,79,120
69,61,120
81,73,120
70,66,120
74,66,120
82,79,120
71,61,120
83,77,120
86,83,120
74,71,120
91,83,120
79,71,120
95,84,120
83,71,120
98,86,120
86,73,120
59,50,120
61,50,120
59,54,120
63,54,120
59,50,120
65,50,120
63,45,60
65,46,60
59,54,120
63,54,120
59,50,120
61,50,120
58,76,120
66,79,120
90,57,120
85,48,120
82,48,120
78,57,120
90,57,120
85,48,120
82,48,120
78,57,120
90,57,120
85,48,120
82,48,120
78,57,120
90,57,120
85,48,120
82,48,120
78,57,120
90,57,120
85,48,120
82,48,120
78,57,120
78,54,120
90,64,120
85,54,120
82,54,120
93,91,120
84,77,120
81,77,120
74,51,120
69,43,120
66,43,120
62,51,120
74,51,120
69,43,120
66,43,120
62,51,120
74,51,120
69,43,120
66,43,120
62,51,120
74,51,120
69,43,120
66,43,120
62,51,120
74,51,120
69,43,120
66,43,120
62,51,120
62,48,120
74,57,120
69,48,120
66,48,120
66,76,120
70,76,120
73,76,120
78,91,120
90,57,120
85,48,120
82,48,120
78,57,120
90,57,120
85,48,120
82,48,120
78,57,120
90,57,120
85,48,120
82,48,120
78,57,120
90,57,120
85,48,120
82,48,120
78,57,120
90,57,120
85,48,120
82,48,120
78,57,120
78,54,120
90,64,120
85,54,120
82,54,120
90,91,120
94,91,120
87,76,120
82,76,120
75,51,120
70,43,120
66,43,120
63,51,120
75,51,120
70,43,120
66,43,120
63,51,120
75,51,120
70,43,120
66,43,120
63,51,120
75,51,120
70,43,120
66,43,120
63,51,120
75,51,120
70,43,120
66,43,120
63,51,120
87,74,120
83,74,120
78,63,120
75,63,120
78,64,120
83,64,120
87,77,120
90,77,120
94,82,120
90,82,120
85,69,120
82,69,120
71,57,120
66,48,120
63,48,120
61,57,110
73,59,120
71,49,120
68,49,120
66,59,110
82,61,120
78,51,120
75,51,120
73,62,110
85,63,120
83,53,120
80,53,120
78,64,110
94,66,120
90,55,120
87,55,120
85,66,110
97,68,120
95,57,120
92,57,120
90,68,110
90,92,240
86,92,240
83,77,240
78,77,240
94,97,240
90,97,240
85,82,240
82,82,240
90,82,240
97,82,240
102,97,240
