note,velocity,time
64,89,713
73,105,713
64,82,238
73,97,238
73,105,713
64,89,713
64,82,238
73,98,238
64,89,357
73,105,357
73,97,119
64,82,119
64,89,357
73,105,357
64,81,119
73,96,119
73,105,357
64,89,357
64,82,119
73,97,119
73,105,357
64,89,357
64,82,119
73,97,119
64,89,480
73,105,480
85,50,120
84,50,120
82,54,120
84,50,120
82,50,120
80,50,120
79,54,120
80,50,120
79,50,120
77,50,120
76,54,480
73,50,120
72,50,120
70,53,120
72,50,120
70,50,120
68,50,120
67,53,120
68,50,120
67,50,120
65,50,120
64,52,480
73,50,120
72,50,120
70,51,120
72,51,120
70,52,120
68,52,120
67,53,120
68,54,120
67,54,120
65,55,120
64,55,120
65,56,120
64,57,120
61,57,120
60,58,120
61,61,120
60,62,120
59,63,120
58,64,120
60,65,120
58,66,120
56,67,120
55,68,120
56,69,120
55,70,120
53,71,120
52,73,120
53,71,120
52,72,120
49,71,120
48,75,130
49,75,130
48,75,130
47,75,130
48,75,130
49,75,130
48,75,130
47,75,130
48,75,130
49,75,130
48,75,130
47,75,130
48,75,130
49,75,130
48,75,130
47,75,130
48,75,130
49,75,130
48,75,130
47,75,130
46,74,130
48,74,130
46,74,130
45,74,130
46,74,130
48,74,130
46,74,130
45,74,130
46,74,130
48,74,130
46,74,130
45,74,130
46,73,130
48,73,130
46,73,130
45,73,130
46,74,130
48,72,130
46,70,130
45,68,130
46,67,130
48,65,130
46,63,130
45,61,130
46,60,130
43,58,130
44,56,130
46,54,130
48,53,130
46,51,130
44,49,130
43,47,130
48,40,120
53,37,120
56,37,120
60,40,120
61,38,120
60,38,120
58,38,120
56,40,120
58,37,120
56,37,120
55,37,120
53,40,120
55,37,120
56,37,120
53,37,120
48,40,120
53,37,120
56,37,120
60,40,120
61,38,120
60,38,120
58,38,120
56,40,120
58,37,120
56,37,120
55,37,120
53,40,120
55,37,120
56,37,120
53,37,120
49,44,120
54,40,120
58,40,120
61,44,120
63,41,120
61,41,120
60,41,120
58,44,120
60,40,120
58,40,120
56,40,120
54,44,120
56,40,120
54,40,120
53,40,120
52,44,120
53,40,120
55,40,120
52,40,120
53,44,120
55,40,120
56,40,120
53,40,120
55,44,120
56,40,120
58,40,120
55,40,120
52,44,120
53,37,120
55,38,120
52,40,120
53,44,120
48,40,120
53,37,120
56,37,120
60,40,120
61,38,120
60,38,120
58,38,120
56,40,120
58,37,120
56,37,120
55,37,120
53,40,120
55,37,120
56,37,120
53,37,120
48,40,120
53,37,120
56,37,120
60,40,120
61,38,120
60,38,120
58,38,120
56,40,120
58,37,120
56,37,120
55,37,120
53,40,120
55,37,120
56,37,120
53,37,120
49,44,120
54,40,120
58,40,120
61,44,120
63,41,120
61,41,120
60,41,120
58,44,120
60,40,120
58,40,120
56,40,120
54,44,120
56,40,120
54,40,120
53,40,120
52,44,120
53,40,120
55,40,120
52,40,120
53,44,120
55,40,120
56,40,120
53,40,120
55,44,120
56,40,120
58,40,120
55,40,120
52,44,120
53,37,120
55,38,120
52,40,120
53,37,120
60,38,120
65,40,120
68,42,120
72,43,120
60,45,120
65,46,120
68,48,120
60,46,120
65,47,120
68,49,120
72,50,120
60,52,120
65,53,120
68,38,120
59,51,120
62,52,120
68,52,120
71,54,480
59,52,120
62,52,120
68,52,120
71,54,480
59,52,120
64,50,120
67,49,120
72,52,480
60,46,120
64,44,120
67,38,120
60,38,120
64,40,120
67,42,120
72,43,120
60,45,120
64,46,120
67,48,120
60,46,120
64,47,120
67,49,120
72,50,120
60,52,120
64,53,120
67,38,120
60,51,120
64,52,120
67,52,120
72,54,480
60,52,120
64,52,120
67,52,120
72,53,480
60,52,120
64,50,120
67,49,120
72,47,480
60,46,120
65,44,120
68,38,120
65,38,120
69,40,120
72,42,120
77,43,120
65,45,120
69,46,120
72,48,120
65,46,120
69,47,120
72,49,120
77,50,120
65,52,120
69,53,120
72,54,120
65,50,120
69,50,120
72,50,120
77,55,480
65,53,120
69,52,120
72,52,120
65,54,120
69,54,120
77,54,120
70,53,120
65,53,120
77,52,120
72,52,120
65,52,120
77,51,120
65,50,120
73,50,120
77,50,120
60,52,120
65,49,120
68,50,120
72,56,480
60,50,120
65,50,120
68,50,120
72,56,480
60,52,120
67,52,120
70,52,120
72,56,480
60,52,120
64,52,120
67,52,120
60,59,480
72,59,480
65,59,480
68,59,480
80,69,120
77,69,120
80,74,480
77,74,480
77,70,120
80,70,120
77,75,960
80,75,960
76,68,240
79,68,240
82,69,120
79,69,120
82,74,480
79,74,480
79,70,120
82,70,120
82,75,960
79,75,960
80,68,240
77,68,240
84,82,120
87,82,120
87,89,480
84,89,480
84,84,120
87,84,120
87,90,1200
84,90,1200
85,79,240
82,79,240
80,77,240
84,77,240
79,73,240
82,73,240
77,82,480
80,82,480
77,79,120
89,79,120
80,79,120
79,82,480
91,82,480
82,82,480
76,79,120
88,79,120
79,79,120
77,73,120
89,73,120
80,73,120
72,61,120
77,62,120
80,63,120
84,68,120
85,65,120
84,66,120
82,65,120
80,68,120
82,67,120
80,66,120
79,65,120
77,64,120
79,63,120
80,63,120
77,62,120
72,61,120
77,62,120
80,63,120
84,68,120
85,65,120
84,66,120
82,65,120
80,68,120
82,67,120
80,66,120
79,65,120
77,64,120
79,63,120
80,63,120
77,62,120
77,64,120
83,65,120
86,66,120
89,72,120
91,69,120
89,70,120
87,69,120
86,72,120
87,71,120
86,70,120
84,69,120
83,68,120
84,67,120
86,66,120
83,65,120
77,64,120
83,65,120
86,66,120
89,72,120
91,69,120
89,70,120
87,69,120
86,72,120
87,71,120
86,70,120
84,69,120
83,68,120
84,67,120
86,66,120
83,65,120
79,67,120
84,68,120
87,69,120
91,75,120
92,72,120
91,73,120
89,72,120
87,75,120
89,74,120
87,73,120
86,72,120
84,71,120
86,70,120
87,69,120
84,68,120
79,67,120
84,68,120
87,69,120
91,76,120
92,74,120
91,75,120
89,74,120
87,78,120
89,77,120
87,77,120
86,76,120
84,75,120
86,75,120
87,74,120
84,74,120
85,70,120
87,73,120
85,70,120
87,65,120
85,63,120
84,59,120
85,59,120
83,58,120
84,60,120
83,57,120
84,57,120
86,60,120
84,56,120
85,70,120
87,73,120
85,70,120
87,65,120
85,63,120
84,59,120
85,59,120
83,58,120
84,60,120
83,57,120
84,57,120
86,60,120
84,56,120
85,70,120
87,73,120
85,70,120
87,73,120
85,70,120
84,59,120
86,59,120
83,58,120
84,60,120
83,58,120
80,58,120
82,61,120
80,57,120
79,60,120
80,62,120
79,60,120
78,61,120
79,65,120
78,62,120
77,65,120
79,67,120
77,64,120
75,66,120
77,69,120
75,67,120
75,67,120
77,70,120
75,68,120
74,66,120
75,69,120
74,64,120
72,64,120
74,65,120
72,62,120
71,60,120
72,62,120
71,57,120
68,66,120
80,73,120
68,59,120
80,71,120
68,58,120
80,63,120
68,59,120
68,60,120
80,71,120
79,66,120
77,68,120
75,66,120
74,65,120
72,58,120
80,68,120
92,75,120
80,67,120
92,74,120
80,67,120
92,69,120
80,60,120
80,61,120
92,73,120
91,66,120
89,70,120
87,68,120
86,67,120
84,65,120
68,66,120
80,73,120
68,66,120
80,73,120
68,66,120
80,68,120
68,61,120
80,68,120
68,60,120
80,68,120
92,78,120
80,69,120
92,75,120
91,78,120
79,71,120
91,74,120
90,75,120
78,71,120
90,74,120
89,78,120
77,69,120
89,74,120
87,77,120
79,71,120
75,71,120
87,75,120
87,75,120
81,68,120
75,68,120
87,75,120
86,73,120
81,66,120
74,66,120
86,73,120
84,71,120
75,66,120
72,66,120
84,71,120
83,69,120
71,62,120
74,62,120
83,64,120
79,65,120
84,77,120
75,65,120
72,65,120
67,74,120
72,76,120
75,78,120
79,80,120
80,76,120
79,76,120
77,76,120
75,77,120
77,71,120
75,72,120
74,72,120
72,78,120
70,73,120
68,73,120
67,72,120
65,75,120
63,70,120
62,70,120
60,70,120
59,73,240
62,69,180
55,69,180
59,69,180
67,82,180
59,61,180
65,73,180
55,61,180
67,73,180
59,60,180
55,60,180
65,71,180
67,71,180
55,61,180
67,72,180
59,61,180
65,72,180
65,72,180
67,72,180
55,61,180
59,61,180
63,77,120
55,77,120
60,77,120
67,77,120
79,74,120
84,76,120
87,78,120
91,80,120
92,76,120
91,76,120
89,76,120
87,77,120
89,71,120
87,72,120
86,72,120
84,78,120
82,73,120
80,73,120
79,72,120
77,75,120
75,70,120
74,70,120
72,70,120
71,73,240
71,69,180
79,82,180
74,69,180
67,58,180
67,51,180
79,73,180
71,61,180
77,73,180
77,70,180
67,50,180
71,59,180
79,70,180
71,61,180
77,73,180
67,51,180
79,73,180
71,60,180
67,51,180
77,71,180
79,71,180
67,51,240
79,73,240
72,61,240
75,73,240
87,69,180
91,82,180
79,58,180
84,69,180
89,73,180
79,51,180
83,61,180
91,73,180
83,59,180
91,70,180
89,70,180
79,50,180
79,51,180
91,73,180
89,73,180
83,61,180
83,60,180
91,71,180
89,71,180
79,51,180
79,51,180
91,73,180
84,61,180
87,73,180
75,69,180
67,58,180
72,69,180
79,82,180
71,61,180
77,73,180
67,51,180
79,73,180
71,59,180
67,50,180
77,70,180
79,70,180
67,51,180
79,73,180
71,61,180
77,73,180
77,71,180
79,71,180
67,51,180
71,60,180
75,61,180
67,51,180
72,61,180
79,73,180
75,69,180
84,82,180
79,69,180
72,58,180
72,51,180
84,73,180
76,61,180
79,61,180
72,50,180
84,70,180
76,59,180
79,59,180
79,61,180
84,73,180
76,61,180
72,51,180
76,60,180
72,51,180
84,71,180
79,60,180
77,61,180
84,73,180
80,61,180
72,51,180
60,58,240
72,82,240
65,69,240
68,69,240
70,73,240
60,51,240
64,61,240
72,73,240
64,59,240
70,70,240
60,50,240
72,70,240
64,61,240
60,51,240
70,73,240
72,73,240
60,51,240
72,71,240
64,60,240
70,71,240
69,89,120
72,89,120
60,63,120
63,75,120
57,70,120
60,71,120
63,72,120
66,72,120
69,72,120
72,73,120
75,74,120
78,75,120
81,77,120
84,79,120
87,81,120
90,83,120
87,83,120
84,82,120
81,81,120
78,81,120
75,80,120
72,79,120
69,78,120
66,77,120
63,76,120
60,75,120
57,40,120
60,37,120
63,37,120
66,40,120
68,38,120
66,38,120
65,38,120
63,40,120
65,37,120
63,37,120
61,37,120
60,40,120
61,37,120
63,37,120
60,37,120
57,40,120
60,37,120
63,37,120
66,40,120
68,38,120
66,38,120
65,38,120
63,40,120
65,37,120
63,37,120
61,37,120
60,40,120
61,37,120
63,37,120
60,37,120
57,47,120
60,49,120
63,50,120
66,52,120
68,54,120
66,56,120
65,58,120
63,67,240
63,47,120
65,49,120
66,52,120
68,54,120
66,56,120
65,59,120
63,67,240
63,50,120
65,50,120
66,56,120
68,49,120
66,50,120
65,50,120
63,67,240
66,56,240
78,56,240
65,60,240
77,60,240
69,54,240
81,54,240
82,56,120
70,56,120
65,51,120
70,52,120
73,53,120
77,57,120
78,55,120
77,56,120
75,55,120
73,57,120
75,56,120
73,56,120
72,55,120
70,54,120
72,53,120
73,53,120
70,52,120
65,51,120
70,52,120
73,53,120
77,57,120
78,55,120
77,56,120
75,55,120
73,57,120
75,56,120
73,56,120
72,55,120
70,54,120
72,53,120
73,53,120
70,52,120
66,51,120
71,53,120
75,54,120
78,59,120
80,58,120
78,59,120
77,59,120
75,62,120
77,62,120
75,62,120
73,62,120
71,62,120
73,61,120
75,64,120
71,61,120
70,68,120
72,64,120
70,66,120
69,64,120
70,62,120
72,60,120
73,59,120
70,58,120
69,62,120
70,61,120
69,60,120
67,58,120
69,56,120
70,55,120
72,54,120
69,53,120
70,61,240
70,57,120
73,58,120
77,62,120
78,60,120
77,61,120
75,60,120
73,62,120
75,61,120
73,61,120
72,60,120
82,69,240
70,69,120
72,58,120
73,59,120
70,58,120
81,71,240
70,60,120
73,62,120
82,69,240
77,69,120
78,65,120
77,67,120
75,66,120
73,69,120
75,68,120
73,69,120
72,69,120
82,82,240
70,68,120
72,67,120
73,68,120
70,67,120
71,88,120
83,88,120
78,74,120
83,76,120
87,78,120
90,80,120
92,76,120
90,76,120
89,76,120
87,77,120
89,71,120
87,72,120
85,72,120
83,78,120
85,73,120
83,73,120
82,72,120
81,77,120
84,71,120
87,72,120
85,72,120
84,78,120
85,73,120
84,73,120
82,72,120
81,77,120
82,71,120
81,72,120
78,72,120
77,74,120
75,71,120
73,71,120
72,69,120
70,73,120
77,74,480
77,61,120
77,61,120
78,72,480
78,60,120
78,59,120
77,73,480
77,63,120
77,65,120
72,61,120
73,61,120
75,61,120
73,65,120
89,80,480
77,73,480
89,74,120
77,68,120
89,74,120
77,68,120
90,81,480
78,74,480
90,73,120
78,67,120
90,72,120
78,66,120
89,82,480
77,75,480
89,77,120
77,70,120
89,80,120
77,73,120
84,74,120
72,68,120
85,74,120
73,68,120
87,74,120
75,68,120
85,80,120
73,73,120
72,72,480
72,61,120
72,61,120
71,72,480
71,60,120
71,59,120
72,71,480
72,63,120
72,65,120
67,61,120
68,61,120
70,61,120
68,65,120
84,80,480
72,73,480
84,74,120
72,68,120
84,74,120
72,68,120
83,81,480
71,74,480
83,73,120
71,67,120
83,72,120
71,66,120
84,82,480
72,75,480
84,77,120
72,70,120
84,80,120
72,73,120
79,74,120
67,68,120
80,74,120
68,68,120
82,74,120
70,68,120
80,80,120
68,73,120
60,70,120
65,72,120
68,74,120
72,76,120
73,72,120
72,72,120
70,72,120
68,73,120
70,67,120
68,69,120
67,69,120
65,75,120
67,70,120
68,70,120
65,70,120
66,75,120
61,72,120
66,74,120
70,76,120
73,78,120
75,75,120
73,75,120
72,75,120
70,76,120
72,70,120
70,71,120
68,71,120
66,76,120
68,73,120
70,73,120
66,72,120
69,77,120
63,74,120
69,76,120
72,78,120
75,80,120
77,76,120
75,76,120
73,77,120
72,78,120
73,72,120
72,73,120
70,73,120
69,80,120
70,75,120
72,75,120
69,74,120
70,90,120
65,76,120
70,79,120
73,82,120
77,83,120
78,83,120
77,82,120
75,82,120
73,81,120
72,81,120
70,80,120
68,80,120
66,79,120
65,79,120
63,78,120
61,78,120
60,77,120
58,77,120
56,76,120
54,76,120
53,73,120
51,73,120
49,74,120
48,76,120
46,78,120
48,79,120
49,81,120
46,82,120
46,82,240
47,77,240
50,77,240
53,77,240
56,90,240
48,82,120
52,82,120
55,98,120
48,66,120
60,66,120
60,66,120
48,66,120
60,66,120
48,66,120
60,66,120
48,66,120
60,66,120
48,66,120
60,66,120
48,66,120
60,66,120
48,66,120
60,66,120
48,66,120
60,64,120
72,64,120
60,64,120
72,64,120
60,65,120
72,65,120
60,66,120
72,66,120
60,64,120
72,64,120
60,64,120
72,64,120
60,65,120
72,65,120
60,66,120
72,66,120
72,67,120
84,67,120
72,68,120
84,68,120
72,69,120
84,69,120
72,70,120
84,70,120
72,71,120
84,71,120
72,72,120
84,72,120
72,73,120
84,73,120
72,74,120
84,74,120
84,75,120
96,75,120
84,76,120
96,76,120
84,78,120
96,78,120
84,81,120
96,81,120
84,82,120
96,82,120
84,84,120
96,84,120
84,86,120
96,86,120
84,88,120
96,88,120
61,72,120
66,75,120
70,76,120
73,88,120
73,77,120
78,79,120
82,81,120
85,89,240
64,89,120
64,72,120
67,75,120
70,76,120
76,87,120
76,77,120
79,79,120
82,81,120
88,93,240
61,51,120
64,53,120
67,54,240
58,47,120
61,51,120
64,48,120
67,50,120
70,51,240
61,44,120
64,48,120
67,45,120
70,47,120
73,48,240
64,41,120
67,45,120
70,42,120
73,44,120
76,45,240
61,35,240
64,36,240
67,37,240
70,38,240
73,39,240
76,40,240
79,40,240
82,41,240
85,42,240
88,43,240
91,44,240
94,46,240
91,46,240
88,45,240
85,45,240
82,44,240
79,44,240
76,43,240
73,43,240
70,42,240
67,42,240
64,41,240
61,40,240
55,34,720
58,34,720
60,34,720
64,34,720
67,34,720
70,34,720
72,34,720
76,34,720
88,34,720
84,34,720
82,34,720
79,34,720
48,40,120
53,37,120
56,37,120
60,40,120
61,38,120
60,38,120
58,38,120
56,40,120
58,37,120
56,37,120
55,37,120
53,40,120
55,37,120
56,37,120
53,37,120
48,40,120
53,37,120
56,37,120
60,40,120
61,38,120
60,38,120
58,38,120
56,40,120
58,37,120
56,37,120
55,37,120
53,40,120
55,37,120
56,37,120
53,37,120
49,44,120
54,40,120
58,40,120
61,44,120
63,41,120
61,41,120
60,41,120
58,44,120
60,40,120
58,40,120
56,40,120
54,44,120
56,40,120
54,40,120
53,40,120
52,44,120
53,40,120
55,40,120
52,40,120
53,44,120
55,40,120
56,40,120
53,40,120
55,44,120
56,40,120
58,40,120
55,40,120
52,44,120
53,37,120
55,38,120
52,40,120
53,38,480
64,57,120
65,62,120
67,57,120
68,62,120
65,59,120
76,60,120
64,52,120
77,66,120
65,57,120
67,53,120
79,63,120
68,57,120
80,68,120
65,53,120
77,63,120
65,59,240
77,71,240
66,63,240
78,77,240
70,66,240
82,79,240
73,69,120
85,81,120
73,66,120
85,79,120
73,71,480
85,83,480
84,78,960
72,64,960
64,64,480
76,64,480
77,57,120
65,57,120
60,41,120
65,44,120
68,46,120
72,43,120
60,45,120
65,46,120
68,48,120
60,46,120
65,47,120
68,49,120
72,50,120
60,52,120
65,53,120
68,38,120
59,51,120
62,52,120
68,52,120
71,54,480
59,52,120
62,52,120
68,52,120
71,54,480
59,52,120
64,50,120
67,49,120
72,52,480
60,46,120
64,44,120
67,38,120
60,38,120
64,40,120
67,42,120
72,43,120
60,45,120
64,46,120
67,48,120
60,46,120
64,47,120
67,49,120
72,50,120
60,52,120
64,53,120
67,38,120
60,51,120
64,52,120
67,52,120
72,54,480
60,52,120
64,52,120
67,52,120
72,53,480
60,52,120
64,50,120
67,49,120
72,47,480
60,46,120
65,44,120
68,38,120
65,38,120
69,40,120
72,42,120
77,43,120
65,45,120
69,46,120
72,48,120
65,46,120
69,47,120
72,49,120
77,50,120
65,52,120
69,53,120
72,54,120
65,50,120
69,50,120
72,50,120
77,55,480
65,53,120
69,52,120
72,52,120
69,54,120
65,54,120
77,54,120
65,53,120
70,53,120
77,52,120
65,52,120
72,52,120
77,51,120
73,50,120
65,50,120
77,50,120
60,52,120
65,49,120
68,50,120
72,56,480
60,50,120
65,50,120
68,50,120
72,56,480
60,52,120
67,52,120
70,52,120
72,56,480
60,52,120
64,52,120
67,52,120
60,59,480
65,59,480
68,59,480
72,59,480
80,69,120
77,69,120
80,74,480
77,74,480
80,70,120
77,70,120
80,75,960
77,75,960
79,68,240
76,68,240
82,75,120
79,75,120
82,81,480
79,81,480
82,77,120
79,77,120
82,82,960
79,82,960
80,74,240
77,74,240
87,82,120
84,82,120
87,89,480
84,89,480
87,84,120
84,84,120
87,90,1200
84,90,1200
85,79,240
82,79,240
84,77,240
80,77,240
82,73,240
79,73,240
80,82,480
77,82,480
89,79,120
80,79,120
77,79,120
91,82,480
82,82,480
79,82,480
88,79,120
79,79,120
76,79,120
89,73,120
80,73,120
77,73,120
72,61,120
77,62,120
80,63,120
84,68,120
85,65,120
84,66,120
82,65,120
80,68,120
82,67,120
80,66,120
79,65,120
77,64,120
79,63,120
80,63,120
77,62,120
72,61,120
77,62,120
80,63,120
84,68,120
85,65,120
84,66,120
82,65,120
80,68,120
82,67,120
80,66,120
79,65,120
77,64,120
79,63,120
80,63,120
77,62,120
78,64,120
84,65,120
87,66,120
90,72,120
92,69,120
90,70,120
89,69,120
87,72,120
89,71,120
87,70,120
85,69,120
84,68,120
85,67,120
87,66,120
84,65,120
78,64,120
84,65,120
87,66,120
90,72,120
92,69,120
90,70,120
89,69,120
87,72,120
89,71,120
87,70,120
85,69,120
84,68,120
82,67,120
80,66,120
78,65,120
77,68,120
80,67,120
85,68,120
89,69,120
92,75,120
94,72,120
92,73,120
90,72,120
89,75,120
90,74,120
89,73,120
87,72,120
85,71,120
87,70,120
89,69,120
85,68,120
80,67,120
85,68,120
89,69,120
92,76,120
94,74,120
92,75,120
90,74,120
89,78,120
90,77,120
92,77,120
90,76,120
89,75,120
90,75,120
92,74,120
89,74,120
90,70,120
92,73,120
90,70,120
92,65,120
90,63,120
89,59,120
90,59,120
88,58,120
89,60,120
88,57,120
89,57,120
91,60,120
89,56,120
90,70,120
92,73,120
90,70,120
92,65,120
90,63,120
89,59,120
90,59,120
88,58,120
89,60,120
88,57,120
89,57,120
91,60,120
89,56,120
90,70,120
92,73,120
90,70,120
92,73,120
90,70,120
89,59,120
91,59,120
88,58,120
89,60,120
88,58,120
85,58,120
87,61,120
85,57,120
84,60,120
85,62,120
84,60,120
83,61,120
84,65,120
83,62,120
82,65,120
84,67,120
82,64,120
80,66,120
82,69,120
80,67,120
80,67,120
82,70,120
80,68,120
79,66,120
80,69,120
79,64,120
77,64,120
79,65,120
77,62,120
76,60,120
77,62,120
76,57,120
61,66,120
73,73,120
61,59,120
73,71,120
61,58,120
73,63,120
61,59,120
61,60,120
73,71,120
72,66,120
70,68,120
68,66,120
67,65,120
65,58,120
73,68,120
85,75,120
73,67,120
85,74,120
73,67,120
85,69,120
73,60,120
73,61,120
85,73,120
84,66,120
82,70,120
80,68,120
79,67,120
77,65,120
61,66,120
73,73,120
61,66,120
73,73,120
61,66,120
73,68,120
61,61,120
73,68,120
61,60,120
73,68,120
85,78,120
73,69,120
85,75,120
84,76,120
72,71,120
84,75,120
83,77,120
71,71,120
83,74,120
82,78,120
70,69,120
82,77,120
80,77,120
68,71,120
72,71,120
80,77,120
80,75,120
74,68,120
68,68,120
80,75,120
79,73,120
74,66,120
67,66,120
79,73,120
77,71,120
68,66,120
65,66,120
77,71,120
76,72,120
67,66,120
64,66,120
76,69,120
65,65,120
68,65,120
77,77,120
60,74,120
65,76,120
68,78,120
72,80,120
73,76,120
72,76,120
70,76,120
68,77,120
70,71,120
68,72,120
67,72,120
65,78,120
63,73,120
61,73,120
60,72,120
58,75,120
56,70,120
54,70,120
53,70,120
52,73,240
48,69,180
52,69,180
54,69,180
60,82,180
48,61,180
52,61,180
58,73,180
60,73,180
48,60,180
52,60,180
58,71,180
60,71,180
48,61,180
52,61,180
58,72,180
60,72,180
48,61,180
52,61,180
58,72,180
60,72,180
48,77,120
53,77,120
56,77,120
60,77,120
72,74,120
77,76,120
80,78,120
84,80,120
85,76,120
84,76,120
82,76,120
80,77,120
82,71,120
80,72,120
79,72,120
77,78,120
75,73,120
73,73,120
72,72,120
70,75,120
68,70,120
67,70,120
65,70,120
64,73,240
60,58,180
64,69,180
67,69,180
72,82,180
60,51,180
64,61,180
70,73,180
72,73,180
60,50,180
64,59,180
70,70,180
72,70,180
60,51,180
64,61,180
70,73,180
72,73,180
60,51,180
64,60,180
70,71,180
72,71,180
60,51,240
65,61,240
68,73,240
72,73,240
72,63,180
77,75,180
80,75,180
84,90,180
72,56,180
76,67,180
82,80,180
84,80,180
72,55,180
76,64,180
82,77,180
84,77,180
72,56,180
76,67,180
82,80,180
84,80,180
72,56,180
76,66,180
82,78,180
84,78,180
72,56,180
77,67,180
80,80,180
84,80,180
60,58,180
65,69,180
68,69,180
72,82,180
60,51,180
64,61,180
70,73,180
72,73,180
60,50,180
64,59,180
70,70,180
72,70,180
60,51,180
64,61,180
70,73,180
72,73,180
60,51,180
64,60,180
70,71,180
72,71,180
60,56,180
65,67,180
68,67,180
72,80,180
72,70,180
77,70,180
80,70,180
84,84,180
72,74,180
77,74,180
80,74,180
84,90,180
72,73,180
77,73,180
80,73,180
84,88,180
72,64,180
76,78,180
82,78,180
84,93,180
72,64,180
76,75,180
82,75,180
84,91,180
72,68,180
76,81,180
82,81,180
84,97,180
72,69,180
76,82,180
82,82,180
84,96,180
72,72,120
75,85,120
81,102,120
84,102,120
57,70,120
60,71,120
63,72,120
66,72,120
69,72,120
72,73,120
75,74,120
78,75,120
81,77,120
84,79,120
87,81,120
90,83,120
87,83,120
84,82,120
81,81,120
78,81,120
75,80,120
72,79,120
69,78,120
66,77,120
63,76,120
60,75,120
57,40,120
60,37,120
63,37,120
66,40,120
68,38,120
66,38,120
65,38,120
63,40,120
65,37,120
63,37,120
61,37,120
60,40,120
61,37,120
63,37,120
60,37,120
57,40,120
60,37,120
63,37,120
66,40,120
68,38,120
66,38,120
65,38,120
63,40,120
65,37,120
63,37,120
61,37,120
60,40,120
61,37,120
63,37,120
60,37,120
57,47,120
60,49,120
63,50,120
66,52,120
68,54,120
66,56,120
65,58,120
63,67,240
63,47,120
65,49,120
66,52,120
68,54,120
66,56,120
65,59,120
63,67,240
63,50,120
65,50,120
66,56,120
68,49,120
66,50,120
65,50,120
63,67,240
66,56,240
78,56,240
65,60,240
77,60,240
69,54,240
81,54,240
82,56,120
70,56,120
65,51,120
70,52,120
73,53,120
77,57,120
78,55,120
77,56,120
75,55,120
73,57,120
75,56,120
73,56,120
72,55,120
70,54,120
72,53,120
73,53,120
70,52,120
65,51,120
70,52,120
73,53,120
77,57,120
78,55,120
77,56,120
75,55,120
73,57,120
75,56,120
73,56,120
72,55,120
70,54,120
72,53,120
73,53,120
70,52,120
66,51,120
71,53,120
75,54,120
78,59,120
80,58,120
78,59,120
77,59,120
75,62,120
77,62,120
75,62,120
73,62,120
71,62,120
73,61,120
75,64,120
71,61,120
70,68,120
72,64,120
70,66,120
69,64,120
70,62,120
72,60,120
73,59,120
70,58,120
69,62,120
70,61,120
69,60,120
67,58,120
69,56,120
70,55,120
72,54,120
69,53,120
70,61,240
70,57,120
73,58,120
77,62,120
78,60,120
77,61,120
75,61,120
73,63,120
75,62,120
73,62,120
72,61,120
82,71,240
70,71,120
72,60,120
73,61,120
70,60,120
81,74,240
70,63,120
73,65,120
82,73,240
77,73,120
78,68,120
77,71,120
75,70,120
73,73,120
75,72,120
73,74,120
72,74,120
82,88,240
70,73,120
72,73,120
73,74,120
70,73,120
71,88,120
83,88,120
78,74,120
83,76,120
87,78,120
90,80,120
92,76,120
90,76,120
89,76,120
87,77,120
89,71,120
87,72,120
85,72,120
83,78,120
85,73,120
83,73,120
82,72,120
81,77,120
84,71,120
87,72,120
85,72,120
84,78,120
85,73,120
84,73,120
82,72,120
81,77,120
82,71,120
81,72,120
78,72,120
77,74,120
75,71,120
73,71,120
72,69,120
70,73,120
77,74,480
77,61,120
77,61,120
78,72,480
78,60,120
78,59,120
77,73,480
77,63,120
77,65,120
72,61,120
73,61,120
75,61,120
73,65,120
89,80,480
77,73,480
89,74,120
77,68,120
89,74,120
77,68,120
90,81,480
78,74,480
90,73,120
78,67,120
90,72,120
78,66,120
89,82,480
77,75,480
89,77,120
77,70,120
89,80,120
77,73,120
84,74,120
72,68,120
85,74,120
73,68,120
87,74,120
75,68,120
85,80,120
73,73,120
72,72,480
72,61,120
72,61,120
71,72,480
71,60,120
71,59,120
72,71,480
72,63,120
72,65,120
67,61,120
68,61,120
70,61,120
68,65,120
84,80,480
72,73,480
84,74,120
72,68,120
84,74,120
72,68,120
83,81,480
71,74,480
83,73,120
71,67,120
83,72,120
71,66,120
84,82,480
72,75,480
84,77,120
72,70,120
84,80,120
72,73,120
79,74,120
67,68,120
80,74,120
68,68,120
82,74,120
70,68,120
80,80,120
68,73,120
60,70,120
65,72,120
68,74,120
72,76,120
73,72,120
72,72,120
70,72,120
68,73,120
70,67,120
68,69,120
67,69,120
65,75,120
67,70,120
68,70,120
65,70,120
66,75,120
61,72,120
66,74,120
70,76,120
73,78,120
75,75,120
73,75,120
72,75,120
70,76,120
72,70,120
70,71,120
68,71,120
66,76,120
68,73,120
70,73,120
66,72,120
69,77,120
63,74,120
69,76,120
72,78,120
75,80,120
77,76,120
75,76,120
73,77,120
72,78,120
73,72,120
72,73,120
70,73,120
69,80,120
70,75,120
72,75,120
69,74,120
70,90,120
65,76,120
70,79,120
73,82,120
77,83,120
78,83,120
77,82,120
75,82,120
73,81,120
72,81,120
70,80,120
68,80,120
66,79,120
65,79,120
63,78,120
61,78,120
60,77,120
58,77,120
56,76,120
54,76,120
53,73,120
51,73,120
49,74,120
48,76,120
46,78,120
48,79,120
49,81,120
46,82,120
46,82,240
47,77,240
50,77,240
53,77,240
56,90,240
48,82,120
52,82,120
55,98,120
48,66,120
60,66,120
60,66,120
48,66,120
60,66,120
48,66,120
60,66,120
48,66,120
60,66,120
48,66,120
60,66,120
48,66,120
60,66,120
48,66,120
60,66,120
48,66,120
60,64,120
72,64,120
60,64,120
72,64,120
60,65,120
72,65,120
60,66,120
72,66,120
60,64,120
72,64,120
60,64,120
72,64,120
60,65,120
72,65,120
60,66,120
72,66,120
72,67,120
84,67,120
72,68,120
84,68,120
72,69,120
84,69,120
72,70,120
84,70,120
72,71,120
84,71,120
72,72,120
84,72,120
72,73,120
84,73,120
72,74,120
84,74,120
84,75,120
96,75,120
84,76,120
96,76,120
84,78,120
96,78,120
84,81,120
96,81,120
84,82,120
96,82,120
84,84,120
96,84,120
84,86,120
96,86,120
84,88,120
96,88,120
61,72,120
66,75,120
70,76,120
73,88,120
73,77,120
78,79,120
82,81,120
85,89,240
64,89,120
64,72,120
67,75,120
70,76,120
76,87,120
76,77,120
79,79,120
82,81,120
88,93,240
61,51,120
64,53,120
67,54,240
58,47,120
61,51,120
64,48,120
67,50,120
70,51,240
61,44,120
64,48,120
67,45,120
70,47,120
73,48,240
64,41,120
67,45,120
70,42,120
73,44,120
76,45,240
61,35,240
64,36,240
67,37,240
70,38,240
73,39,240
76,40,240
79,40,240
82,41,240
85,42,240
88,43,240
91,44,240
94,46,240
91,46,240
88,45,240
85,45,240
82,44,240
79,44,240
76,43,240
73,43,240
70,42,240
67,42,240
64,41,240
61,40,240
55,34,720
58,34,720
60,34,720
64,34,720
67,34,720
70,34,720
72,34,720
76,34,720
88,34,720
84,34,720
82,34,720
79,34,720
48,40,120
53,37,120
56,37,120
60,40,120
61,38,120
60,38,120
58,38,120
56,40,120
58,37,120
56,37,120
55,37,120
53,40,120
55,37,120
56,37,120
53,37,120
48,40,120
53,37,120
56,37,120
60,40,120
61,38,120
60,38,120
58,38,120
56,40,120
58,37,120
56,37,120
55,37,120
53,40,120
55,37,120
56,37,120
53,37,120
49,44,120
54,40,120
58,40,120
61,44,120
63,41,120
61,41,120
60,41,120
58,44,120
60,40,120
58,40,120
56,40,120
54,44,120
56,40,120
54,40,120
53,40,120
52,44,120
53,40,120
55,40,120
52,40,120
53,44,120
55,40,120
56,40,120
53,40,120
55,44,120
56,40,120
58,40,120
55,40,120
52,44,120
53,37,120
55,38,120
52,40,120
53,38,480
64,57,120
65,62,120
67,57,120
68,62,120
65,59,120
76,60,120
64,52,120
77,66,120
65,57,120
67,53,120
79,63,120
68,57,120
80,68,120
65,53,120
77,63,120
65,59,240
77,71,240
66,63,240
78,77,240
70,66,240
82,79,240
73,69,120
85,81,120
73,66,120
85,79,120
73,71,480
85,83,480
84,78,960
72,64,960
64,64,480
76,64,480
77,57,120
65,57,120
60,41,120
65,44,120
68,46,120
72,43,120
60,45,120
65,46,120
68,48,120
60,46,120
65,47,120
68,49,120
72,50,120
60,52,120
65,53,120
68,38,120
59,51,120
62,52,120
68,52,120
71,54,480
59,52,120
62,52,120
68,52,120
71,54,480
59,52,120
64,50,120
67,49,120
72,52,480
60,46,120
64,44,120
67,38,120
60,38,120
64,40,120
67,42,120
72,43,120
60,45,120
64,46,120
67,48,120
60,46,120
64,47,120
67,49,120
72,50,120
60,52,120
64,53,120
67,38,120
60,51,120
64,52,120
67,52,120
72,54,480
60,52,120
64,52,120
67,52,120
72,53,480
60,52,120
64,50,120
67,49,120
72,47,480
60,46,120
65,44,120
68,38,120
65,38,120
69,40,120
72,42,120
77,43,120
65,45,120
69,46,120
72,48,120
65,46,120
69,47,120
72,49,120
77,50,120
65,52,120
69,53,120
72,54,120
65,50,120
69,50,120
72,50,120
77,55,480
65,53,120
69,52,120
72,52,120
69,54,120
65,54,120
77,54,120
65,53,120
70,53,120
77,52,120
65,52,120
72,52,120
77,51,120
73,50,120
65,50,120
77,50,120
60,52,120
65,49,120
68,50,120
72,56,480
60,50,120
65,50,120
68,50,120
72,56,480
60,52,120
67,52,120
70,52,120
72,56,480
60,52,120
64,52,120
67,52,120
60,59,480
65,59,480
68,59,480
72,59,480
80,69,120
77,69,120
80,74,480
77,74,480
80,70,120
77,70,120
80,75,960
77,75,960
79,68,240
76,68,240
82,75,120
79,75,120
82,81,480
79,81,480
82,77,120
79,77,120
82,82,960
79,82,960
80,74,240
77,74,240
87,82,120
84,82,120
87,89,480
84,89,480
87,84,120
84,84,120
87,90,1200
84,90,1200
85,79,240
82,79,240
84,77,240
80,77,240
82,73,240
79,73,240
80,82,480
77,82,480
89,79,120
80,79,120
77,79,120
91,82,480
82,82,480
79,82,480
88,79,120
79,79,120
76,79,120
89,73,120
80,73,120
77,73,120
72,61,120
77,62,120
80,63,120
84,68,120
85,65,120
84,66,120
82,65,120
80,68,120
82,67,120
80,66,120
79,65,120
77,64,120
79,63,120
80,63,120
77,62,120
72,61,120
77,62,120
80,63,120
84,68,120
85,65,120
84,66,120
82,65,120
80,68,120
82,67,120
80,66,120
79,65,120
77,64,120
79,63,120
80,63,120
77,62,120
78,64,120
84,65,120
87,66,120
90,72,120
92,69,120
90,70,120
89,69,120
87,72,120
89,71,120
87,70,120
85,69,120
84,68,120
85,67,120
87,66,120
84,65,120
78,64,120
84,65,120
87,66,120
90,72,120
92,69,120
90,70,120
89,69,120
87,72,120
89,71,120
87,70,120
85,69,120
84,68,120
82,67,120
80,66,120
78,65,120
77,68,120
80,67,120
85,68,120
89,69,120
92,75,120
94,72,120
92,73,120
90,72,120
89,75,120
90,74,120
89,73,120
87,72,120
85,71,120
87,70,120
89,69,120
85,68,120
80,67,120
85,68,120
89,69,120
92,76,120
94,74,120
92,75,120
90,74,120
89,78,120
90,77,120
92,77,120
90,76,120
89,75,120
90,75,120
92,74,120
89,74,120
90,70,120
92,73,120
90,70,120
92,65,120
90,63,120
89,59,120
90,59,120
88,58,120
89,60,120
88,57,120
89,57,120
91,60,120
89,56,120
90,70,120
92,73,120
90,70,120
92,65,120
90,63,120
89,59,120
90,59,120
88,58,120
89,60,120
88,57,120
89,57,120
91,60,120
89,56,120
90,70,120
92,73,120
90,70,120
92,73,120
90,70,120
89,59,120
91,59,120
88,58,120
89,60,120
88,58,120
85,58,120
87,61,120
85,57,120
84,60,120
85,62,120
84,60,120
83,61,120
84,65,120
83,62,120
82,65,120
84,67,120
82,64,120
80,66,120
82,69,120
80,67,120
80,67,120
82,70,120
80,68,120
79,66,120
80,69,120
79,64,120
77,64,120
79,65,120
77,62,120
76,60,120
77,62,120
76,57,120
61,66,120
73,73,120
61,59,120
73,71,120
61,58,120
73,63,120
61,59,120
61,60,120
73,71,120
72,66,120
70,68,120
68,66,120
67,65,120
65,58,120
73,68,120
85,75,120
73,67,120
85,74,120
73,67,120
85,69,120
73,60,120
73,61,120
85,73,120
84,66,120
82,70,120
80,68,120
79,67,120
77,65,120
61,66,120
73,73,120
61,66,120
73,73,120
61,66,120
73,68,120
61,61,120
73,68,120
61,60,120
73,68,120
85,78,120
73,69,120
85,75,120
84,76,120
72,71,120
84,74,120
83,77,120
71,71,120
83,74,120
82,78,120
70,69,120
82,74,120
80,77,120
68,71,120
72,71,120
80,73,120
80,75,120
74,68,120
68,68,120
80,72,120
79,73,120
74,66,120
67,66,120
79,73,120
77,71,120
68,66,120
65,66,120
77,71,120
76,72,120
67,66,120
64,66,120
76,69,120
65,65,120
68,65,120
77,77,120
60,74,120
65,76,120
68,78,120
72,80,120
73,76,120
72,76,120
70,76,120
68,77,120
70,71,120
68,72,120
67,72,120
65,78,120
63,73,120
61,73,120
60,72,120
58,75,120
56,70,120
54,70,120
53,70,120
52,73,240
48,69,180
52,69,180
54,69,180
60,82,180
48,61,180
52,61,180
58,73,180
60,73,180
48,60,180
52,60,180
58,71,180
60,71,180
48,61,180
52,61,180
58,72,180
60,72,180
48,61,180
52,61,180
58,72,180
60,72,180
48,77,120
53,77,120
56,77,120
60,77,120
72,74,120
77,76,120
80,78,120
84,80,120
85,76,120
84,76,120
82,76,120
80,77,120
82,71,120
80,72,120
79,72,120
77,78,120
75,73,120
73,73,120
72,72,120
70,75,120
68,70,120
67,70,120
65,70,120
64,73,240
60,58,180
64,69,180
67,69,180
72,82,180
60,51,180
64,61,180
70,73,180
72,73,180
60,50,180
64,59,180
70,70,180
72,70,180
60,51,180
64,61,180
70,73,180
72,73,180
60,51,180
64,60,180
70,71,180
72,71,180
60,51,240
65,61,240
68,73,240
72,73,240
72,63,180
77,75,180
80,75,180
84,90,180
72,56,180
76,67,180
82,80,180
84,80,180
72,55,180
76,64,180
82,77,180
84,77,180
72,56,180
76,67,180
82,80,180
84,80,180
72,56,180
76,66,180
82,78,180
84,78,180
72,56,180
77,67,180
80,80,180
84,80,180
60,58,180
65,69,180
68,69,180
72,82,180
60,51,180
64,61,180
70,73,180
72,73,180
60,50,180
64,59,180
70,70,180
72,70,180
60,51,180
64,61,180
70,73,180
72,73,180
60,51,180
64,60,180
70,71,180
72,71,180
60,73,120
65,73,120
68,73,120
72,73,120
67,74,120
68,75,120
70,76,120
72,77,120
74,78,120
76,79,120
77,80,120
79,80,120
77,79,120
76,79,120
73,78,120
72,77,120
70,76,120
68,75,120
67,74,120
65,73,120
67,74,120
68,75,120
70,76,120
72,77,120
74,78,120
76,79,120
77,80,120
79,80,120
77,79,120
76,79,120
73,78,120
72,77,120
70,76,120
68,75,120
67,74,120
65,73,120
67,74,120
68,75,120
70,76,120
72,77,120
74,78,120
76,79,120
77,80,120
79,80,120
78,76,120
79,79,120
78,73,120
79,77,120
78,72,120
79,75,120
78,70,120
79,77,120
78,72,120
79,76,120
78,72,120
79,75,120
78,71,120
79,74,120
78,71,120
79,80,120
77,79,120
76,79,120
73,78,120
72,77,120
70,76,120
68,75,120
67,74,120
56,94,960
60,94,960
65,111,960
56,88,960
60,88,960
68,105,960
55,50,120
58,50,120
67,50,120
55,50,120
58,50,120
64,50,120
55,46,120
58,46,120
60,46,120
55,46,120
58,46,120
64,46,120
56,50,120
60,50,120
65,50,120
56,47,120
60,47,120
56,47,120
60,47,120
65,47,120
56,47,120
60,47,120
68,47,120
55,50,120
58,50,120
67,50,120
55,50,120
58,50,120
64,50,120
55,46,120
58,46,120
60,46,120
55,46,120
58,46,120
64,46,120
56,50,120
60,50,120
65,50,120
56,47,120
60,47,120
56,49,120
60,49,120
65,49,120
56,50,120
60,50,120
68,50,120
55,55,120
60,55,120
67,55,120
55,50,120
60,50,120
63,50,120
55,49,120
59,49,120
62,49,120
55,48,120
59,48,120
67,48,120
60,60,480
60,75,80
62,78,80
64,80,80
56,94,960
60,94,960
65,111,960
56,88,960
60,88,960
68,105,960
55,50,120
58,50,120
67,50,120
55,50,120
58,50,120
64,50,120
55,46,120
58,46,120
60,46,120
55,46,120
58,46,120
64,46,120
56,50,120
60,50,120
65,50,120
56,47,120
60,47,120
56,47,120
60,47,120
65,47,120
56,47,120
60,47,120
68,47,120
55,50,120
58,50,120
67,50,120
55,50,120
58,50,120
64,50,120
55,46,120
58,46,120
60,46,120
55,46,120
58,46,120
64,46,120
56,50,120
60,50,120
65,50,120
56,47,120
60,47,120
56,49,120
60,49,120
65,49,120
56,50,120
60,50,120
68,50,120
55,55,120
60,55,120
67,55,120
55,50,120
60,50,120
63,50,120
55,49,120
59,49,120
62,49,120
55,48,120
59,48,120
67,48,120
60,60,480
63,75,80
65,78,80
67,80,80
60,94,960
63,94,960
68,111,960
60,88,960
63,88,960
72,105,960
58,50,120
61,50,120
70,50,120
58,50,120
61,50,120
67,50,120
58,46,120
61,46,120
63,46,120
58,46,120
61,46,120
67,46,120
60,50,120
63,50,120
68,50,120
60,47,120
63,47,120
60,47,120
63,47,120
68,47,120
60,47,120
63,47,120
72,47,120
58,50,120
61,50,120
70,50,120
58,50,120
61,50,120
67,50,120
58,46,120
61,46,120
63,46,120
58,46,120
61,46,120
67,46,120
60,50,120
63,50,120
68,50,120
60,47,120
63,47,120
60,47,120
63,47,120
68,47,120
60,47,120
63,47,120
72,47,120
60,52,120
63,52,120
69,52,120
60,52,120
63,52,120
65,52,120
60,48,120
63,48,120
69,48,120
60,49,120
63,49,120
72,49,120
61,54,120
65,54,120
70,54,120
61,52,120
65,52,120
61,53,120
65,53,120
70,53,120
61,54,120
65,54,120
73,54,120
60,60,120
65,60,120
72,60,120
60,60,120
65,60,120
68,60,120
60,53,120
64,53,120
67,53,120
60,53,120
64,53,120
72,53,120
65,70,480
63,75,80
65,78,80
67,80,80
60,94,960
63,94,960
68,111,960
60,88,960
63,88,960
72,105,960
58,50,120
61,50,120
70,50,120
58,50,120
61,50,120
67,50,120
58,46,120
61,46,120
63,46,120
58,46,120
61,46,120
67,46,120
60,50,120
63,50,120
68,50,120
60,47,120
63,47,120
60,47,120
63,47,120
68,47,120
60,47,120
63,47,120
72,47,120
58,50,120
61,50,120
70,50,120
58,50,120
61,50,120
67,50,120
58,46,120
61,46,120
63,46,120
58,46,120
61,46,120
67,46,120
60,50,120
63,50,120
68,50,120
60,47,120
63,47,120
60,47,120
63,47,120
68,47,120
60,47,120
63,47,120
72,47,120
60,52,120
63,52,120
69,52,120
60,52,120
63,52,120
65,52,120
60,48,120
63,48,120
69,48,120
60,49,120
63,49,120
72,49,120
61,54,120
65,54,120
70,54,120
61,52,120
65,52,120
61,53,120
65,53,120
70,53,120
61,54,120
65,54,120
73,54,120
60,60,120
65,60,120
72,60,120
60,60,120
65,60,120
68,60,120
60,53,120
64,53,120
67,53,120
60,53,120
64,53,120
72,53,120
65,70,120
60,65,120
65,63,120
68,62,120
72,62,120
73,58,120
72,62,120
70,57,120
68,65,120
70,60,120
68,60,120
67,54,120
65,63,120
67,54,120
68,57,120
65,54,120
68,67,120
60,63,120
65,63,120
68,60,120
72,63,120
73,59,120
72,61,120
70,61,120
68,64,120
70,61,120
68,60,120
67,54,120
65,63,120
67,54,120
68,57,120
65,54,120
66,67,120
61,63,120
66,63,120
70,62,120
73,63,120
75,61,120
73,63,120
72,61,120
70,64,120
72,60,120
70,60,120
68,54,120
66,63,120
68,54,120
66,57,120
65,54,120
64,69,120
65,63,120
67,63,120
68,62,120
70,63,120
68,61,120
67,63,120
65,61,120
64,63,120
65,64,120
67,61,120
68,54,120
70,62,120
72,63,120
74,65,120
76,69,120
77,72,120
72,69,120
77,65,120
80,64,120
84,67,120
85,64,120
84,64,120
82,64,120
80,66,120
82,63,120
80,63,120
79,55,120
77,63,120
79,56,120
80,60,120
77,55,120
80,72,120
72,65,120
77,65,120
80,64,120
84,67,120
85,64,120
84,64,120
82,64,120
80,64,120
82,63,120
80,63,120
79,55,120
77,63,120
79,56,120
80,60,120
77,55,120
78,71,120
73,65,120
78,65,120
82,64,120
85,67,120
87,64,120
85,64,120
84,64,120
82,67,120
84,63,120
82,63,120
80,55,120
78,63,120
80,56,120
78,60,120
77,55,120
76,72,120
77,65,120
79,65,120
80,64,120
82,70,120
80,66,120
79,65,120
77,63,120
76,66,120
77,67,120
79,63,120
80,55,120
82,63,120
84,66,120
86,71,120
88,73,120
89,80,120
80,75,120
84,70,120
89,70,120
92,86,600
84,70,120
89,70,120
92,73,120
96,77,120
92,76,120
91,73,120
88,73,120
89,78,120
80,75,120
84,70,120
89,70,120
92,86,600
84,69,120
89,72,120
92,75,120
96,77,120
92,76,120
91,75,120
88,72,120
89,78,120
80,75,120
84,70,120
89,70,120
92,86,600
84,69,120
89,72,120
92,75,120
96,77,120
92,76,120
91,75,120
88,73,120
89,77,120
80,75,120
84,70,120
89,70,120
92,86,600
84,70,120
89,72,120
92,75,120
96,76,120
92,76,120
91,75,120
88,73,120
89,77,120
84,72,120
89,72,120
92,76,120
96,79,120
92,78,120
91,77,120
88,76,120
89,79,120
84,75,120
89,77,120
92,80,120
96,80,120
92,79,120
91,77,120
88,77,120
89,89,120
84,82,120
89,85,120
92,88,120
96,84,120
92,82,120
91,82,120
88,80,120
96,89,120
92,75,120
91,79,120
88,84,120
96,90,120
92,89,120
91,87,120
88,89,120
96,93,120
92,79,120
89,80,120
84,80,120
92,93,120
89,82,120
84,82,120
80,82,120
89,93,120
84,81,120
80,81,120
77,82,120
84,93,120
80,81,120
77,81,120
72,81,120
80,93,120
77,80,120
72,80,120
68,80,120
77,93,120
72,82,120
68,81,120
65,81,120
72,93,120
68,80,120
65,80,120
60,80,120
68,93,120
65,80,120
60,81,120
56,81,120
65,93,120
60,81,120
56,81,120
53,81,120
60,93,120
56,81,120
53,81,120
48,81,120
56,93,120
53,81,120
48,81,120
44,81,120
53,93,120
48,85,120
44,80,120
48,80,120
41,90,240
44,90,240
48,90,240
53,106,240
65,94,240
68,94,240
72,94,240
77,111,240
53,94,240
56,94,240
60,94,240
65,111,240
