note,velocity,time
55,25,120
60,26,120
62,24,120
64,29,120
55,27,120
60,27,120
64,26,120
62,31,120
53,29,120
60,30,120
62,27,120
65,34,120
57,31,120
59,32,120
65,30,120
64,37,120
55,34,120
60,34,120
64,32,120
67,37,120
59,34,120
60,34,120
67,32,120
65,38,120
57,35,120
60,35,120
65,32,120
69,38,120
59,35,120
65,35,120
69,32,120
67,42,120
60,36,120
64,36,120
67,30,120
72,50,180
64,38,120
67,38,120
72,32,120
74,53,180
64,42,120
67,42,120
74,35,120
72,52,180
64,41,120
67,41,120
72,38,120
71,47,180
64,38,120
67,38,120
71,27,120
69,47,180
64,35,120
67,35,120
69,27,120
67,45,180
60,35,120
64,35,120
67,27,120
65,46,180
60,35,120
64,35,120
65,27,120
64,41,350
59,32,120
60,32,120
64,27,120
62,35,350
57,32,120
60,32,120
62,27,120
67,41,350
59,32,120
64,32,120
67,33,120
69,47,350
60,37,120
64,32,120
69,27,120
64,40,350
57,32,120
60,32,120
64,27,120
62,39,350
57,32,120
60,32,120
62,27,120
60,35,350
55,32,120
57,32,120
60,27,120
59,35,350
53,32,120
55,32,120
59,27,120
52,26,120
56,26,120
56,31,120
59,32,120
59,43,120
64,43,120
64,47,120
68,47,120
69,32,120
65,32,120
62,27,120
65,32,120
62,32,120
59,27,120
69,32,120
65,32,120
62,27,120
65,34,120
62,38,120
59,38,120
72,44,120
69,35,120
65,30,120
69,38,120
65,32,120
62,27,120
65,31,120
62,32,120
59,27,120
62,30,120
59,32,120
55,25,120
69,32,120
65,32,120
62,27,120
65,32,120
62,32,120
59,27,120
69,32,120
65,32,120
62,27,120
65,33,120
62,37,120
59,38,120
72,43,120
69,40,120
65,30,120
69,40,120
65,32,120
62,27,120
65,31,120
62,32,120
59,27,120
62,30,120
59,32,120
55,25,120
59,32,120
56,32,120
52,27,120
61,38,120
58,32,120
54,27,120
59,32,120
56,32,120
52,27,120
61,39,120
58,32,120
54,27,120
59,32,120
56,32,120
52,27,120
59,32,120
56,32,120
52,27,120
59,32,120
56,32,120
52,27,120
59,30,120
56,32,120
52,27,120
57,32,120
53,32,120
50,27,120
60,39,120
56,32,120
53,27,120
57,32,120
53,32,120
50,27,120
60,38,120
56,32,120
53,27,120
57,32,120
53,32,120
50,27,120
57,32,120
53,32,120
50,27,120
57,32,120
53,32,120
50,27,120
57,30,120
53,32,120
50,27,120
59,28,120
56,28,120
50,23,120
59,26,120
56,26,120
50,22,120
59,25,120
56,24,120
50,20,120
59,22,120
56,23,120
50,19,120
55,24,120
60,24,120
62,21,120
64,28,120
55,24,120
60,24,120
64,24,120
62,31,120
53,29,120
60,30,120
62,27,120
65,34,120
57,31,120
59,32,120
65,30,120
64,37,120
55,34,120
60,34,120
64,32,120
67,37,120
59,34,120
60,34,120
67,32,120
66,38,120
57,35,120
62,35,120
66,32,120
69,38,120
60,35,120
66,35,120
69,32,120
67,39,120
62,37,120
67,40,120
71,42,120
76,62,240
71,38,120
67,38,120
62,32,120
64,36,120
67,39,120
69,36,120
78,62,240
69,40,120
67,37,120
64,35,120
62,37,120
67,40,120
71,42,120
76,63,240
71,38,120
67,38,120
62,32,120
64,36,120
67,39,120
70,36,120
78,61,240
70,40,120
67,37,120
64,35,120
64,37,120
67,40,120
74,42,120
78,63,480
74,38,120
67,38,120
64,32,120
64,36,120
67,39,120
73,36,120
78,63,480
73,40,120
67,37,120
64,35,120
64,37,120
67,40,120
72,42,120
79,63,360
72,38,120
67,38,120
64,32,120
78,63,360
72,38,120
67,38,120
64,32,120
76,63,360
72,38,120
67,38,120
64,32,120
64,41,120
67,41,120
72,45,120
74,58,240
72,46,120
67,54,120
76,54,240
64,47,120
78,63,960
72,51,120
67,41,120
64,32,240
72,41,120
67,41,120
64,34,120
64,41,120
67,41,120
71,45,120
74,58,240
71,46,120
67,55,120
76,55,240
64,47,120
78,63,960
71,51,120
67,41,120
64,32,240
71,41,120
67,41,120
64,34,120
64,37,120
67,40,120
70,42,120
74,55,360
70,38,120
67,38,120
64,32,120
76,57,360
70,37,120
67,35,120
64,32,120
72,53,360
70,38,120
67,38,120
64,32,120
74,41,120
70,41,120
69,40,120
67,40,120
65,39,120
64,39,120
62,39,120
60,38,120
62,38,120
58,37,120
57,35,120
55,31,120
62,38,480
58,30,120
55,30,120
58,30,120
64,38,480
58,31,120
55,31,120
58,31,120
60,39,480
58,32,120
55,32,120
58,32,120
53,25,240
58,25,240
60,29,240
62,32,480
65,25,240
70,29,240
72,32,240
74,37,480
60,33,240
54,32,4560
58,32,4320
60,31,4080
63,33,3840
51,22,240
56,22,240
58,26,240
60,33,240
51,28,240
56,28,240
60,28,240
58,31,240
51,28,240
54,28,240
58,28,240
61,33,240
51,28,240
54,28,240
61,28,240
51,22,240
56,22,240
58,26,240
60,33,240
51,28,240
56,28,240
60,28,240
58,31,240
51,28,240
54,28,240
58,28,240
61,33,240
51,28,240
54,28,240
61,28,240
54,22,240
60,22,240
61,26,240
63,33,240
54,29,240
60,29,240
63,29,240
61,41,240
54,34,240
58,34,240
61,41,240
65,31,240
54,37,240
58,43,240
65,49,480
54,29,240
60,29,240
61,29,240
63,35,240
54,27,240
60,27,240
63,26,240
61,30,240
54,25,240
58,24,240
61,24,240
65,30,240
54,23,240
58,23,240
65,22,240
55,25,120
60,26,120
62,24,120
64,29,120
55,27,120
60,27,120
64,26,120
62,31,120
53,29,120
60,30,120
62,27,120
65,34,120
57,31,120
59,32,120
65,30,120
64,37,120
55,34,120
60,34,120
64,32,120
67,37,120
59,34,120
60,34,120
67,32,120
65,38,120
57,35,120
60,35,120
65,32,120
69,38,120
59,35,120
65,35,120
69,32,120
67,42,120
60,36,120
64,36,120
67,30,120
72,50,180
64,38,120
67,38,120
72,32,120
74,53,180
64,42,120
67,42,120
74,35,120
72,52,180
64,41,120
67,41,120
72,38,120
71,47,180
64,38,120
67,38,120
71,27,120
69,47,180
64,35,120
67,35,120
69,27,120
67,45,180
60,35,120
64,35,120
67,27,120
65,46,180
60,35,120
64,35,120
65,27,120
64,41,350
57,32,120
60,32,120
64,27,120
62,35,350
57,32,120
60,32,120
62,27,120
67,41,350
59,32,120
64,32,120
67,33,120
69,47,350
60,37,120
64,32,120
69,27,120
64,40,350
57,32,120
60,32,120
64,27,120
62,39,350
57,32,120
60,32,120
62,27,120
60,35,350
55,32,120
57,32,120
60,27,120
59,35,350
53,32,120
55,32,120
59,27,120
52,26,120
56,26,120
56,31,120
60,32,120
60,43,120
64,43,120
64,47,120
68,47,120
64,50,120
68,50,120
68,55,120
72,53,120
72,65,120
76,62,120
76,68,120
80,63,120
79,68,120
84,64,120
79,68,120
84,67,120
79,68,120
86,64,120
79,68,120
84,64,120
84,54,120
89,51,120
84,54,120
87,53,120
80,54,120
86,51,120
80,54,120
84,51,120
79,54,120
86,51,120
79,54,120
84,53,120
76,54,120
83,51,120
76,54,120
81,51,120
72,53,120
79,49,120
72,51,120
77,49,120
68,48,120
76,45,120
68,46,120
74,43,120
67,48,120
74,45,120
67,61,120
72,60,120
67,61,120
74,57,120
67,61,120
72,57,120
72,61,120
77,60,120
72,61,120
75,60,120
68,61,120
74,57,120
68,61,120
72,57,120
67,61,120
74,60,120
67,61,120
72,60,120
64,61,120
71,57,120
64,61,120
69,57,120
60,56,120
67,55,120
60,53,120
65,52,120
56,50,120
64,46,120
56,47,120
62,43,120
52,59,120
55,56,120
62,51,120
52,48,120
55,53,120
60,48,120
53,46,120
57,48,120
62,50,120
53,56,120
57,60,120
60,63,120
64,59,120
67,56,120
74,51,120
64,48,120
67,53,120
72,48,120
65,47,120
69,50,120
74,54,120
65,57,120
69,61,120
72,62,120
76,50,120
72,57,120
64,61,120
76,55,120
71,62,240
64,54,120
76,50,120
72,57,120
64,61,120
76,55,120
71,62,240
64,54,120
76,55,120
72,50,120
64,50,120
79,59,120
75,50,120
67,55,120
82,61,120
78,56,120
70,55,120
83,64,120
79,55,120
71,55,120
76,50,120
72,57,120
64,61,120
76,55,120
71,62,240
64,54,120
76,50,120
72,57,120
64,61,120
76,55,120
71,62,240
64,54,120
76,55,120
72,50,120
64,50,120
79,59,120
75,50,120
67,55,120
82,61,120
78,56,120
70,55,120
83,64,120
79,55,120
71,55,120
88,73,120
84,59,120
76,59,120
88,72,120
84,60,120
76,60,120
76,71,120
72,58,120
64,58,120
76,71,120
72,59,120
64,59,120
64,73,120
60,60,120
52,60,120
64,73,120
60,61,120
52,61,120
64,76,120
60,62,120
52,62,120
64,75,120
60,63,120
52,63,120
52,85,2880
48,72,2880
47,79,960
50,79,960
52,81,240
48,81,240
36,92,240
