note,velocity,time
46,77,120
51,89,840
55,77,120
56,83,120
57,81,120
58,89,960
87,84,120
82,70,120
79,70,120
75,70,120
46,77,120
51,89,840
55,77,120
58,83,120
60,81,120
61,89,960
91,85,120
87,70,120
82,70,120
79,70,120
48,77,120
51,89,840
56,64,120
60,72,320
61,75,320
62,79,320
63,89,960
92,84,120
87,70,120
84,70,120
80,70,120
48,77,120
51,89,840
56,70,120
60,68,240
63,70,240
64,74,240
65,79,240
66,89,960
93,84,120
90,70,120
84,70,120
81,70,120
63,36,48
68,36,48
65,36,48
71,36,48
66,40,48
72,40,48
68,37,48
74,37,48
69,37,48
75,37,48
71,41,48
77,41,48
72,37,48
78,37,48
74,38,48
80,38,48
75,42,48
81,42,48
77,40,48
83,40,48
78,40,48
84,40,48
80,42,48
86,42,48
81,44,48
87,44,48
83,45,48
89,45,48
84,46,48
90,46,48
86,47,48
92,47,48
87,48,48
93,48,48
89,51,48
95,51,48
90,53,48
96,53,48
91,55,48
97,55,48
92,58,36
98,58,36
93,61,36
99,61,36
94,62,36
100,62,36
95,64,36
101,64,36
102,67,36
96,67,36
75,50,600
69,40,960
77,46,60
75,47,60
74,50,240
72,41,150
72,30,270
77,47,240
69,37,240
70,37,240
70,50,840
64,40,960
72,46,60
70,47,60
68,50,240
67,41,150
67,30,270
72,47,240
64,37,240
65,37,240
65,50,840
63,40,960
67,46,60
65,47,60
64,50,240
65,41,150
58,36,540
65,41,270
70,45,240
62,37,240
63,37,240
58,36,540
63,35,270
71,45,240
62,37,240
63,37,240
63,31,50
53,37,960
56,37,960
63,37,240
59,31,240
63,37,240
60,31,240
63,39,320
61,33,320
63,33,320
62,35,240
63,28,60
62,28,60
61,28,60
62,28,60
58,32,360
62,35,330
67,38,300
56,35,120
65,35,120
58,60,120
63,68,840
67,57,120
68,57,60
69,66,60
70,71,960
75,68,60
67,49,360
70,63,360
65,46,60
68,59,60
67,47,60
70,59,60
65,54,240
68,69,240
67,60,240
64,50,240
68,66,60
65,51,60
67,50,60
70,64,60
67,68,960
63,54,960
58,58,160
59,50,160
60,51,160
61,55,160
62,58,160
63,68,840
67,57,120
68,57,60
69,66,60
69,49,40
70,44,40
72,47,40
70,54,48
72,49,48
70,50,48
72,47,48
70,50,48
72,47,48
70,50,48
72,47,48
70,50,48
72,45,48
70,50,48
72,46,48
70,50,48
72,45,48
70,50,48
72,47,60
70,53,60
69,50,60
70,50,60
79,68,60
75,58,60
67,49,120
70,63,120
65,46,60
68,59,60
67,47,60
70,59,60
65,54,240
68,69,240
64,50,240
67,60,240
68,66,60
65,51,60
62,50,60
70,64,60
63,68,960
70,60,120
63,62,840
75,74,840
67,52,120
79,62,120
68,52,60
80,62,60
69,56,60
81,67,60
70,44,60
75,46,60
82,53,69
84,41,68
82,41,69
81,41,69
82,41,68
84,48,69
82,41,68
75,48,80
70,42,80
63,46,80
70,52,80
75,63,80
82,73,80
87,81,60
67,54,110
70,54,110
67,33,60
70,40,60
66,33,60
69,40,60
65,39,60
68,49,60
82,42,60
79,36,60
81,43,60
78,37,60
77,44,60
80,50,60
94,41,60
91,36,60
90,37,60
93,41,60
92,48,60
89,44,60
64,36,120
67,42,120
65,43,60
68,49,60
67,38,60
70,44,60
67,52,960
63,44,960
70,52,180
58,52,160
71,52,180
59,52,160
72,50,180
60,50,160
73,56,180
61,56,160
74,60,180
62,60,160
75,84,840
63,71,840
79,66,120
67,56,120
80,73,60
68,61,60
81,78,60
69,66,60
70,44,60
75,46,60
82,60,69
84,45,68
82,45,69
81,45,69
82,45,68
84,52,69
82,45,68
75,52,70
70,47,69
63,51,70
70,58,70
75,62,69
82,68,60
82,74,63
91,85,60
87,75,60
67,54,110
70,54,110
67,33,60
70,40,60
66,33,60
69,40,60
65,39,60
68,49,60
82,42,60
79,36,60
81,43,60
78,37,60
77,44,60
80,50,60
94,41,60
91,36,60
90,37,60
93,41,60
92,48,60
89,44,60
64,36,120
67,42,120
65,41,160
68,49,160
68,38,240
72,44,240
67,38,80
70,44,80
67,52,480
63,44,480
85,69,480
82,55,480
84,58,360
80,48,360
86,43,60
84,49,60
82,54,60
79,46,60
80,49,60
77,40,60
79,51,60
75,43,60
77,46,60
70,38,60
75,54,60
67,46,60
67,48,120
63,40,120
68,61,240
65,52,240
70,45,60
68,45,60
67,51,120
64,43,120
68,56,60
65,47,60
69,54,60
66,46,60
70,59,240
67,50,240
85,69,480
82,55,480
84,58,360
80,48,360
86,43,60
84,49,60
82,54,60
79,46,60
80,49,60
77,40,60
79,51,60
75,43,60
77,46,60
70,38,60
75,54,60
67,46,60
67,48,120
63,40,120
68,61,240
65,52,240
70,45,60
68,45,60
67,51,120
64,43,120
68,56,60
65,47,60
70,54,60
62,46,60
63,59,240
82,63,420
87,67,390
97,71,360
80,64,420
87,66,390
96,69,360
94,40,60
98,48,60
92,42,60
96,55,60
94,61,120
91,61,120
92,51,60
89,51,60
91,56,60
87,56,60
89,49,60
82,49,60
87,55,60
79,55,60
63,40,60
67,48,60
68,61,240
65,52,240
70,45,60
68,45,60
67,51,120
64,43,120
68,56,60
65,47,60
69,54,60
66,46,60
70,59,240
67,50,240
82,61,360
87,65,390
97,68,360
80,61,420
87,64,390
96,67,360
94,31,60
98,51,60
92,42,60
96,55,60
94,60,120
91,60,120
92,54,60
89,54,60
91,58,60
87,58,60
89,54,60
82,54,60
87,63,60
79,63,60
67,48,120
63,40,120
68,61,720
65,52,720
64,43,240
67,51,249
65,47,60
68,56,60
62,46,60
70,54,60
58,40,150
63,42,120
67,44,90
70,46,60
67,40,150
70,42,120
75,44,90
79,46,60
79,42,150
82,44,120
87,45,90
91,47,60
70,40,120
67,34,120
68,45,120
65,38,120
75,40,120
72,34,120
74,45,120
70,38,120
79,41,120
75,34,120
77,48,120
74,40,120
84,43,120
80,36,120
82,43,120
79,36,120
80,43,120
77,36,120
79,49,120
75,49,120
77,44,120
74,37,120
75,44,120
72,37,120
74,44,120
70,37,120
72,47,120
68,39,120
70,45,120
67,38,120
69,43,60
66,36,60
68,40,60
65,34,60
67,45,480
63,38,480
58,40,150
63,42,120
67,44,90
70,46,60
67,40,150
70,42,120
75,44,90
79,46,60
79,42,150
82,44,120
87,45,90
91,47,60
70,40,120
67,34,120
67,40,80
70,45,80
66,36,80
69,41,80
65,36,80
68,41,80
72,40,80
75,45,160
71,40,80
70,34,80
74,40,80
75,44,160
79,51,80
78,49,80
74,42,80
77,49,80
84,60,60
80,53,60
79,45,60
76,45,60
80,45,60
77,45,60
76,45,60
73,45,60
74,45,60
77,45,60
73,45,60
69,45,60
70,45,60
74,45,60
67,45,60
71,45,60
68,45,60
72,45,60
64,45,60
67,45,60
67,45,60
70,45,60
65,45,60
68,45,60
67,45,480
63,38,480
58,38,60
63,52,360
67,39,45
67,36,45
68,39,45
68,36,45
69,39,45
69,36,45
70,39,45
70,36,45
75,39,45
75,36,45
79,39,45
79,35,45
80,39,45
80,35,45
81,39,45
81,34,45
82,39,45
82,34,45
87,39,45
87,34,45
91,39,45
91,35,45
92,41,45
92,36,45
93,42,45
93,37,45
93,43,60
94,38,60
96,38,60
94,34,60
91,42,60
87,35,60
84,41,60
82,34,60
79,40,60
75,33,60
72,38,60
70,32,60
67,38,60
63,33,60
62,37,60
63,34,60
67,33,60
70,34,60
75,35,60
79,36,60
82,38,60
87,39,60
91,40,60
94,41,60
99,47,240
70,39,60
67,33,60
68,47,80
65,39,80
82,39,80
67,39,80
64,33,80
68,46,80
65,39,80
94,41,80
70,41,80
67,34,80
72,47,80
68,39,80
82,41,80
74,41,80
70,34,80
75,45,80
72,38,80
94,40,80
77,40,80
74,34,80
79,46,80
75,39,80
77,40,80
70,34,80
75,40,80
67,34,80
77,40,80
70,34,80
79,40,80
75,34,80
77,34,80
82,41,80
87,43,80
79,36,80
89,44,80
82,37,80
91,45,80
87,38,80
94,45,80
89,38,80
99,46,80
91,39,80
101,47,80
94,39,80
99,57,120
103,57,120
58,38,120
63,52,360
67,39,45
67,36,45
68,39,45
68,36,45
69,39,45
69,36,45
70,39,45
70,36,45
75,39,45
75,36,45
79,39,45
79,35,45
80,39,45
80,35,45
81,39,45
81,34,45
82,39,45
82,34,45
87,39,45
87,34,45
91,39,45
91,35,45
92,41,45
92,36,45
93,42,45
93,37,45
93,43,60
94,38,60
96,38,60
94,34,60
91,42,60
87,35,60
84,41,60
82,34,60
79,40,60
75,33,60
72,38,60
70,32,60
67,38,60
63,33,60
62,37,60
63,34,60
67,33,60
70,34,60
75,36,60
79,38,60
82,41,60
87,43,60
91,45,60
94,47,60
99,46,240
103,54,240
67,33,45
70,39,45
68,47,80
65,39,80
82,39,80
67,39,80
64,33,80
68,46,80
65,39,80
94,41,80
70,41,80
67,34,80
72,47,80
68,39,80
82,41,80
67,34,80
70,41,80
68,45,80
65,38,80
94,40,80
58,34,80
65,40,80
55,40,480
63,40,480
82,46,80
87,45,80
97,60,80
87,45,80
89,45,80
87,45,80
80,53,80
87,46,80
96,46,80
87,57,80
89,46,80
87,46,80
79,48,90
94,52,90
77,44,90
92,52,90
75,44,90
91,47,90
74,41,90
90,45,90
75,40,90
91,45,90
76,41,90
91,45,90
77,42,90
92,47,90
76,43,90
91,49,90
77,46,90
92,52,90
78,43,90
93,46,90
79,47,90
94,55,90
70,45,80
75,38,80
85,58,80
75,42,80
77,38,80
75,40,80
68,45,80
75,35,80
84,51,80
75,35,80
77,35,80
75,35,80
67,42,90
82,48,90
65,44,90
80,48,90
63,40,90
79,47,90
62,39,90
78,46,90
63,38,90
79,45,90
64,38,90
79,47,90
65,41,90
80,44,90
64,38,90
79,46,90
65,40,90
80,45,90
61,38,90
76,44,90
62,40,90
77,46,90
82,50,80
87,45,80
97,54,80
87,45,80
89,45,80
87,45,80
80,50,80
87,46,80
96,54,80
87,46,80
89,46,80
87,46,80
79,42,90
94,49,90
77,44,90
92,47,90
75,41,90
91,48,90
74,41,90
90,46,90
75,41,90
91,46,90
76,40,90
91,45,90
77,39,90
92,47,90
76,40,90
91,46,90
77,43,90
92,48,90
78,45,90
93,51,90
79,47,90
94,52,90
70,45,80
75,38,80
85,50,80
75,38,80
77,38,80
75,40,80
68,45,80
75,38,80
84,48,80
75,38,80
77,38,80
75,38,80
67,40,90
82,46,90
65,39,90
80,47,90
63,39,90
79,45,90
62,40,90
78,45,90
63,39,90
79,43,90
64,38,90
79,37,90
65,44,120
80,37,120
67,47,120
82,38,120
68,47,120
83,38,120
71,45,120
88,33,120
74,47,120
89,37,120
76,45,120
91,33,120
77,45,120
92,33,120
79,47,120
94,34,120
80,52,120
95,37,120
83,50,120
100,37,120
86,57,120
101,43,120
85,53,120
100,44,120
86,58,120
101,44,120
85,53,120
100,44,120
86,62,120
101,51,120
85,60,120
100,57,120
86,46,60
92,50,60
95,54,60
98,59,60
103,66,60
102,49,60
98,49,60
95,48,60
102,59,60
101,46,60
98,45,60
95,45,60
101,57,60
100,41,60
95,41,60
92,41,60
100,55,60
99,40,60
95,40,60
92,40,60
99,53,60
98,40,60
92,40,60
89,40,60
98,52,60
97,38,60
92,38,60
89,38,60
97,50,60
96,38,60
92,38,60
89,38,60
96,53,60
95,35,60
92,35,60
89,35,60
95,52,60
94,35,60
89,35,60
86,35,60
94,51,60
93,35,60
89,35,60
86,35,60
93,52,60
92,35,60
89,35,60
86,35,60
92,54,60
91,38,60
86,35,60
83,35,60
91,53,60
90,35,60
86,35,60
83,35,60
90,54,60
89,35,60
86,35,60
83,35,60
89,53,60
88,35,60
83,35,60
80,35,60
88,55,60
87,35,60
83,35,60
80,35,60
87,55,60
86,35,60
80,35,60
77,35,60
86,56,60
85,35,60
80,35,60
77,35,60
85,51,60
84,35,60
80,35,60
77,35,60
84,55,60
83,35,60
80,35,60
77,35,60
83,53,60
82,35,60
77,35,60
74,35,60
82,55,60
81,35,60
77,35,60
74,35,60
81,53,60
80,35,60
77,35,60
74,35,60
80,56,60
79,37,60
74,34,60
71,35,60
79,56,60
78,38,60
74,36,60
71,36,60
78,57,60
77,40,60
74,35,60
71,35,60
77,55,60
76,40,60
71,36,60
68,36,60
76,58,60
75,39,60
71,35,60
68,36,60
75,58,60
74,39,60
68,37,60
65,37,60
74,61,60
73,45,60
68,40,60
65,40,60
73,61,60
72,45,60
68,39,60
65,39,60
72,63,60
71,47,60
68,43,60
65,44,60
71,63,60
70,49,60
65,46,60
62,39,60
61,66,80
62,39,80
65,39,80
68,40,80
69,41,80
70,42,80
71,43,80
74,43,80
77,44,80
80,45,80
81,46,80
82,47,80
83,49,80
86,50,80
89,51,80
92,53,80
93,54,80
94,56,80
95,63,80
98,51,80
96,51,80
93,57,80
96,45,80
94,45,80
91,53,80
94,43,80
92,43,80
88,47,80
91,41,80
89,41,80
85,48,80
87,38,80
86,38,80
83,48,80
86,35,80
84,35,80
81,47,80
84,35,80
82,35,80
79,44,80
82,35,80
80,35,80
76,44,80
79,35,80
77,35,80
73,41,80
75,35,80
74,35,80
71,41,80
74,34,80
72,34,80
68,41,80
72,33,80
70,33,80
67,40,80
70,31,80
68,31,80
64,40,80
67,29,80
65,29,80
61,39,80
63,30,80
62,30,80
59,39,80
62,30,80
60,30,80
57,38,80
58,31,80
60,31,80
58,39,80
57,32,80
58,47,80
62,49,30
62,56,240
60,52,60
60,56,240
55,52,60
58,46,90
60,48,30
58,49,90
57,46,60
58,52,60
53,52,60
55,49,60
56,50,60
60,50,60
58,52,60
56,48,60
55,49,60
53,49,45
57,46,30
58,52,60
58,46,90
58,48,60
60,48,60
58,49,45
57,46,60
58,52,240
62,49,30
62,55,240
60,52,60
60,56,240
55,49,60
58,56,90
60,48,30
58,49,90
57,46,60
58,52,60
53,52,60
55,49,60
56,50,60
60,50,60
58,52,60
56,48,60
55,49,60
53,49,60
55,53,60
51,56,480
54,45,60
55,47,60
57,49,60
58,51,60
62,49,30
62,55,240
60,51,60
60,56,240
55,52,60
58,46,90
60,48,30
58,49,90
57,46,60
58,52,60
53,52,60
55,49,60
56,50,60
60,50,60
58,52,60
56,48,60
55,49,60
53,49,45
57,46,30
58,52,60
58,46,90
58,48,60
60,48,60
58,49,90
57,46,60
58,52,240
62,49,30
62,54,240
60,49,60
60,55,240
55,52,60
58,46,90
60,48,30
58,49,90
57,46,60
58,52,120
53,52,60
55,49,60
56,50,60
60,50,60
58,52,60
56,48,60
55,49,60
53,49,60
55,56,60
51,58,480
66,41,60
69,49,30
70,49,240
67,41,240
74,49,60
65,41,60
70,41,60
74,49,240
65,41,240
70,41,240
72,52,90
68,44,90
72,47,240
62,39,240
68,39,240
67,52,90
63,44,90
67,46,90
70,46,90
58,39,90
72,48,60
70,49,90
67,41,90
69,46,60
66,39,60
70,52,120
67,44,120
65,52,60
58,44,480
67,49,60
68,50,60
72,50,60
70,52,60
68,48,60
67,49,60
65,49,60
67,52,90
70,52,90
67,46,90
70,46,90
58,39,90
72,48,30
70,49,90
67,41,90
69,46,60
66,39,60
70,52,120
67,44,120
86,49,60
77,41,60
82,41,60
86,49,240
77,41,240
82,41,240
84,52,90
80,44,90
84,47,240
74,39,240
80,39,240
79,52,90
75,44,90
79,46,90
82,46,90
70,39,90
84,48,30
82,49,90
79,41,90
81,46,60
78,39,60
82,52,120
79,44,120
77,52,60
70,44,480
79,49,60
80,50,60
84,50,60
70,44,480
82,52,60
80,48,60
79,49,60
77,49,60
70,52,90
79,52,90
70,46,420
75,46,420
67,39,420
74,46,30
67,36,120
70,37,120
75,43,120
89,52,60
82,44,480
91,49,60
92,50,60
96,50,60
82,44,480
94,52,60
92,48,60
91,49,60
89,49,60
82,44,90
94,52,90
91,44,90
82,44,240
94,49,180
91,41,180
93,46,60
90,39,60
82,44,480
94,52,480
91,44,480
77,52,60
70,44,480
79,49,60
80,50,60
84,50,60
70,44,480
82,52,60
80,48,60
79,49,60
77,49,60
70,52,90
79,52,90
70,46,420
75,46,420
67,39,420
74,46,30
67,36,120
70,37,120
75,43,120
89,52,60
82,44,480
91,49,60
92,50,60
96,50,60
82,44,480
94,52,60
92,48,60
91,49,60
89,49,60
82,44,90
94,52,90
91,44,90
82,44,240
94,49,180
91,41,180
93,46,60
90,39,60
82,44,480
94,52,480
91,44,480
77,52,60
70,44,480
79,49,60
80,50,60
84,50,60
70,44,480
82,52,60
80,48,60
79,49,60
77,49,60
78,49,30
79,49,60
70,44,120
67,37,240
75,49,60
74,42,120
68,35,240
77,49,60
65,42,120
62,35,240
71,49,60
72,46,480
67,39,480
71,47,80
72,41,80
74,41,80
72,45,80
71,40,80
72,45,80
65,47,630
72,49,600
77,51,570
75,49,180
75,42,60
62,47,630
68,49,600
74,51,570
62,46,90
68,50,60
77,58,30
75,56,60
67,47,60
77,49,60
70,41,60
79,50,60
75,42,60
80,44,60
77,37,60
84,56,30
82,50,60
79,42,60
81,45,60
78,38,60
82,50,60
79,50,60
56,97,180
84,56,60
72,47,60
75,47,60
84,66,60
80,56,60
72,56,60
83,51,60
71,42,60
79,42,60
84,51,60
80,42,60
72,42,60
55,96,180
82,56,60
70,47,60
75,47,60
82,66,60
79,56,60
70,56,60
81,51,60
69,42,60
78,42,60
82,51,60
79,42,60
70,42,60
53,95,180
80,56,60
68,47,60
74,47,60
80,66,60
77,56,60
68,56,60
79,51,60
67,42,60
76,42,60
80,51,60
77,42,60
68,42,60
51,99,180
79,56,60
67,47,60
70,47,60
79,66,60
75,56,60
67,56,60
78,51,60
66,42,60
74,42,60
79,51,60
75,42,60
67,42,60
80,52,60
72,44,60
79,47,60
70,39,60
77,47,60
68,39,60
75,47,60
67,39,60
74,52,60
65,44,60
70,45,60
62,38,60
72,45,60
63,38,60
74,45,60
65,38,60
75,56,60
67,47,60
77,49,60
70,41,60
79,50,60
75,42,60
80,44,60
77,37,60
84,56,30
82,50,60
79,42,60
81,45,60
78,38,60
82,50,60
79,50,60
92,52,60
84,44,60
91,47,60
82,39,60
89,47,60
80,39,60
87,47,60
79,39,60
86,52,60
77,44,60
82,45,60
74,38,60
84,45,60
75,38,60
86,45,60
77,38,60
87,56,60
79,47,60
89,49,60
82,41,60
91,50,60
87,42,60
92,44,60
89,37,60
96,56,30
94,50,60
91,42,60
93,45,60
90,38,60
94,50,60
91,50,60
56,93,180
84,56,60
72,47,60
75,47,60
84,66,60
80,56,60
72,56,60
83,51,60
71,42,60
79,42,60
84,51,60
80,42,60
72,42,60
55,101,180
82,56,60
70,47,60
75,47,60
82,66,60
79,56,60
70,56,60
81,51,60
69,42,60
78,42,60
82,51,60
79,42,60
70,42,60
53,96,180
80,56,60
68,47,60
74,47,60
80,66,60
77,56,60
68,56,60
79,51,60
67,42,60
76,42,60
80,51,60
77,42,60
68,42,60
51,92,180
79,56,60
67,47,60
70,47,60
79,66,60
75,56,60
67,56,60
78,51,60
66,42,60
74,42,60
79,51,60
75,42,60
67,42,60
92,52,60
84,44,60
91,47,60
82,39,60
89,47,60
80,39,60
87,47,60
79,39,60
86,52,60
77,44,60
82,45,60
74,38,60
84,45,60
75,38,60
86,45,60
77,38,60
87,56,60
79,47,60
89,49,60
82,41,60
91,50,60
87,42,60
92,44,60
89,37,60
96,56,30
94,50,60
91,42,60
90,38,60
93,45,60
96,50,60
92,50,60
94,50,60
91,50,60
80,52,60
72,44,60
79,47,60
70,39,60
77,47,60
68,39,60
75,47,60
67,39,60
74,52,60
65,44,60
70,45,60
62,38,60
72,45,60
63,38,60
74,45,60
65,38,60
75,56,60
67,47,60
77,49,60
70,41,60
79,50,60
75,42,60
80,44,60
77,37,60
82,50,60
79,42,60
78,38,60
81,45,60
84,50,60
80,50,60
82,50,60
79,50,60
92,52,60
84,44,60
91,47,60
82,39,60
89,47,60
80,39,60
87,47,60
79,39,60
86,52,60
77,44,60
82,45,60
74,38,60
84,45,60
75,38,60
86,45,60
77,38,60
87,56,60
79,47,60
89,49,60
82,41,60
91,50,60
87,42,60
92,44,60
89,37,60
94,50,60
91,42,60
90,38,60
93,45,60
96,50,60
92,42,60
94,50,60
91,42,60
92,56,60
84,47,60
91,53,60
82,45,60
89,53,60
80,45,60
87,53,60
79,45,60
86,56,60
77,47,60
82,50,60
74,42,60
81,50,60
73,42,60
82,50,60
74,42,60
83,51,60
75,43,60
84,43,60
76,36,60
85,45,60
77,38,60
86,46,60
78,39,60
87,48,60
79,40,60
88,50,60
80,42,60
89,51,60
81,43,60
90,53,60
82,45,60
91,55,60
83,46,60
92,56,60
84,47,60
93,58,60
85,49,60
94,60,60
86,51,60
93,68,60
85,57,60
94,69,60
86,58,60
93,73,60
81,62,60
94,71,60
82,60,60
98,85,120
86,72,120
94,72,120
98,78,240
86,66,240
94,66,240
96,85,120
84,72,120
92,72,120
96,80,240
84,68,240
92,68,240
91,84,120
79,71,120
87,71,120
94,76,120
82,64,120
91,64,120
94,81,60
82,68,60
91,68,60
93,72,60
81,61,60
90,61,60
94,80,120
82,68,120
91,68,120
89,75,60
77,63,60
80,63,60
91,74,60
79,62,60
82,62,60
92,74,60
80,62,60
84,62,60
87,74,60
96,74,60
84,62,60
86,76,60
94,76,60
82,64,60
92,73,60
80,62,60
84,62,60
91,74,60
79,62,60
82,62,60
89,74,60
77,62,60
80,62,60
94,84,120
91,84,120
82,71,120
91,76,120
94,76,120
82,64,120
81,61,60
90,72,60
93,72,60
94,81,480
91,81,480
82,68,480
98,85,120
86,72,120
94,72,120
98,78,240
86,66,240
94,66,240
96,85,120
84,72,120
92,72,120
96,80,240
84,68,240
92,68,240
91,84,120
79,71,120
87,71,120
94,76,120
82,64,120
91,64,120
94,81,60
82,68,60
91,68,60
93,72,60
81,61,60
90,61,60
94,80,120
82,68,120
91,68,120
89,66,60
77,56,60
80,56,60
91,68,60
79,57,60
82,57,60
92,70,60
80,59,60
83,59,60
84,61,60
93,72,60
81,61,60
94,74,60
85,62,60
82,62,60
95,76,60
83,64,60
86,64,60
96,78,60
84,66,60
87,66,60
98,79,60
86,67,60
89,67,60
99,81,60
87,68,60
91,68,60
75,68,60
79,68,60
82,68,60
87,81,60
58,57,48
60,54,48
58,55,48
57,55,48
58,55,48
62,60,45
61,53,60
60,53,60
59,53,60
58,57,60
57,54,60
56,54,60
60,54,60
55,57,60
56,54,60
57,54,60
58,54,30
57,49,20
58,49,20
60,49,20
58,57,60
57,53,60
58,57,60
55,54,60
53,57,60
55,51,60
56,51,60
60,51,60
58,54,60
56,51,60
55,51,60
53,51,60
57,54,60
58,45,60
58,47,60
59,48,60
59,50,60
60,52,60
60,54,60
61,55,60
62,58,60
61,53,60
60,53,60
59,53,60
58,57,60
57,54,60
56,54,60
60,54,60
55,57,60
56,54,60
57,54,60
58,54,30
57,49,20
58,49,20
60,49,20
58,57,60
57,53,60
58,57,60
55,54,60
53,57,60
55,51,60
56,51,60
60,51,60
58,54,60
56,51,60
55,51,60
53,51,60
55,54,60
51,51,60
55,53,60
58,55,60
63,57,60
66,52,60
67,53,60
70,55,60
74,63,50
65,55,60
74,76,240
82,55,120
72,59,60
65,55,60
72,76,240
80,55,120
67,63,60
58,55,60
67,75,240
75,55,120
70,59,60
63,55,60
70,72,240
79,55,60
73,59,30
74,63,60
65,55,60
74,77,240
82,55,30
76,56,30
77,59,60
70,55,60
77,79,240
86,61,60
78,60,30
79,64,60
70,56,60
79,79,240
87,58,60
81,57,30
82,61,60
75,57,60
82,78,240
91,57,120
85,62,30
86,66,60
77,57,60
86,81,240
94,58,60
83,58,30
84,62,60
77,58,60
84,83,240
92,58,120
78,63,30
79,68,60
70,59,60
79,81,240
87,59,60
81,60,30
82,64,60
75,59,60
82,81,240
91,60,120
85,68,30
86,69,60
77,61,60
86,87,240
94,61,60
88,70,30
89,66,60
82,61,60
89,84,240
98,62,120
90,64,30
91,83,60
82,62,60
91,70,240
99,62,60
63,79,420
64,48,60
65,48,80
67,50,80
68,52,80
72,54,80
70,53,80
68,52,80
67,51,80
65,50,80
63,49,80
62,48,80
60,48,80
58,47,80
57,49,80
58,50,80
60,51,80
62,51,80
63,52,80
66,53,80
67,54,80
68,54,80
70,55,80
72,56,80
74,57,80
75,58,50
74,56,110
77,63,80
79,58,80
80,59,80
84,64,80
82,63,80
80,62,80
79,60,80
77,59,80
75,58,80
74,57,80
72,55,80
70,54,80
69,55,80
70,55,80
72,56,80
74,56,80
75,57,80
78,58,80
79,58,80
80,59,80
82,60,80
84,60,80
86,61,80
87,63,50
86,52,110
89,63,80
91,58,80
92,59,80
96,64,80
94,63,80
92,62,80
91,60,80
89,59,80
87,58,80
86,57,80
84,55,80
82,54,80
81,55,80
82,55,80
84,56,80
86,56,80
87,57,80
90,58,80
91,58,80
92,58,80
94,57,80
96,56,80
98,56,80
99,55,80
100,55,80
101,50,80
94,54,80
97,50,80
98,54,80
89,50,80
100,54,80
101,50,80
94,54,80
97,50,80
98,55,80
89,50,80
102,55,80
103,50,80
94,54,80
98,50,80
99,54,80
91,50,80
102,54,80
103,50,80
94,54,80
98,50,80
99,55,80
91,50,80
100,55,80
101,50,80
94,54,80
97,50,80
98,54,80
89,50,80
100,54,80
101,50,80
94,54,80
97,50,80
98,55,80
89,50,80
102,55,80
103,50,80
94,54,80
98,50,80
99,54,80
91,50,80
102,54,80
103,50,80
94,54,80
98,50,80
99,55,80
91,50,80
100,55,80
101,50,80
94,54,80
97,50,80
98,54,80
89,50,80
100,54,80
101,50,80
94,54,80
97,50,80
98,55,80
89,50,80
102,55,80
103,50,80
94,54,80
98,50,80
99,54,80
91,50,80
102,54,80
103,50,80
94,54,80
98,50,80
99,55,80
91,50,80
100,55,80
101,50,80
94,54,80
97,50,80
98,54,80
89,50,80
100,54,80
101,50,80
94,54,80
97,50,80
98,55,80
89,50,80
102,50,60
93,50,60
94,55,120
103,55,120
74,47,60
66,47,60
67,52,120
75,52,120
86,45,60
77,45,60
89,51,120
80,51,120
62,46,60
71,46,60
65,52,120
74,52,120
72,36,60
74,33,60
72,37,60
74,33,60
72,37,60
74,33,60
72,37,60
74,33,60
72,37,60
74,33,60
72,37,60
74,33,60
72,37,60
74,33,60
72,37,60
74,33,60
71,38,60
72,33,60
74,34,60
75,34,60
74,41,60
75,36,60
78,37,60
79,44,60
78,38,60
79,39,60
83,39,60
84,40,60
83,47,60
84,42,60
86,42,60
87,43,60
86,51,60
87,45,60
90,45,60
91,54,60
90,47,60
91,47,60
95,48,60
96,49,60
95,57,60
96,50,60
98,51,60
99,52,60
98,61,60
99,53,60
102,54,60
103,65,60
95,61,60
96,53,60
98,53,60
99,53,60
90,54,60
91,48,60
95,49,60
96,49,60
86,51,60
87,45,60
90,45,60
91,45,60
83,47,60
84,42,60
86,42,60
87,43,60
78,44,60
79,39,60
83,40,60
84,40,60
74,40,60
75,36,60
78,37,60
79,36,60
71,41,60
72,38,60
74,40,60
75,41,60
66,43,60
67,44,60
71,46,60
72,47,60
71,49,60
72,49,60
74,51,60
75,53,60
74,55,60
75,57,60
78,59,60
79,61,60
71,41,60
72,38,60
74,40,60
75,41,60
66,43,60
67,44,60
71,46,60
72,47,60
71,49,60
72,49,60
74,51,60
75,53,60
74,55,60
75,57,60
78,59,60
79,61,60
71,54,60
72,49,60
74,47,60
75,47,60
66,47,60
67,53,60
71,45,60
72,45,60
62,50,60
63,41,60
66,41,60
67,41,60
66,46,60
67,43,60
71,43,60
72,43,60
65,43,390
72,43,360
77,43,90
76,43,80
77,42,80
79,43,80
77,48,60
79,43,60
77,47,60
79,43,60
77,47,60
79,43,60
77,50,60
79,43,60
77,49,60
79,43,60
77,48,60
79,43,60
77,46,60
79,43,60
77,49,60
79,43,60
76,47,240
77,47,240
86,58,81
85,56,80
84,55,81
83,54,80
82,53,80
81,52,80
80,51,80
79,50,81
78,49,80
77,49,80
71,48,80
72,46,80
77,45,80
76,44,80
75,43,30
75,43,40
62,47,630
68,49,600
74,51,570
62,46,90
68,50,60
77,58,30
75,56,60
67,47,60
77,49,60
70,41,60
79,50,60
75,42,60
80,44,60
77,37,60
84,56,30
82,50,60
79,42,60
81,45,60
78,38,60
82,59,60
79,50,60
63,51,60
72,51,60
75,43,60
84,51,60
84,60,60
75,51,60
63,51,60
70,51,60
75,43,60
82,51,60
82,60,60
75,51,60
62,51,60
68,51,60
74,43,60
80,51,60
80,60,60
74,51,60
63,51,60
67,51,60
75,43,60
79,51,60
79,60,60
75,51,60
80,52,60
72,44,60
79,47,60
70,39,60
77,47,60
68,39,60
75,47,60
67,39,60
74,52,60
65,44,60
70,45,60
62,38,60
72,45,60
63,38,60
74,45,60
65,38,60
75,56,60
67,47,60
77,49,60
70,41,60
79,50,60
75,42,60
80,44,60
77,37,60
84,56,30
82,50,60
79,42,60
78,38,60
81,45,60
82,59,60
79,50,60
75,51,60
84,51,60
87,43,60
96,51,60
96,60,60
87,51,60
75,51,60
82,51,60
87,43,60
94,51,60
94,60,60
87,51,60
74,51,60
80,51,60
86,43,60
92,51,60
92,60,60
86,51,60
75,51,60
79,51,60
87,43,60
91,51,60
91,60,60
87,51,60
92,52,60
84,44,60
91,47,60
82,39,60
89,47,60
80,39,60
87,47,60
79,39,60
86,52,60
77,44,60
82,45,60
74,38,60
84,45,60
75,38,60
86,45,60
77,38,60
87,56,60
79,47,60
89,49,60
82,41,60
91,50,60
87,42,60
92,44,60
89,37,60
94,50,60
91,42,60
90,38,60
93,45,60
96,50,60
92,50,60
91,38,60
94,45,60
92,52,60
84,44,60
91,47,60
82,39,60
89,47,60
80,39,60
87,48,60
79,40,60
86,54,60
77,45,60
82,47,60
74,39,60
84,48,60
75,40,60
86,48,60
77,41,60
87,61,60
79,51,60
89,53,60
82,45,60
91,55,60
87,46,60
92,49,60
89,41,60
94,57,60
91,47,60
90,43,60
93,51,60
96,58,60
92,58,60
91,44,60
94,52,60
92,61,60
84,52,60
91,56,60
82,46,60
89,56,60
80,47,60
87,57,60
79,47,60
86,63,60
77,54,60
70,51,120
82,60,120
71,51,120
83,60,120
72,53,120
84,63,120
73,49,120
85,58,120
74,49,120
86,58,120
75,49,120
87,58,120
86,63,120
74,53,120
87,59,120
75,50,120
88,59,120
76,50,120
77,50,120
89,59,120
76,58,120
88,69,120
77,52,120
89,62,120
78,52,120
90,62,120
79,52,120
91,62,120
78,59,120
90,70,120
79,54,120
91,64,120
80,54,120
92,64,120
81,54,120
93,64,120
80,62,120
92,74,120
81,53,120
93,63,120
82,54,120
94,64,120
83,54,120
95,64,120
82,64,120
94,75,120
83,59,120
95,71,120
84,64,120
96,77,120
85,69,120
97,82,120
98,93,240
86,79,240
94,79,240
98,85,240
86,72,240
94,72,240
96,93,240
84,79,240
92,79,240
96,88,240
84,74,240
92,74,240
91,92,240
79,78,240
87,78,240
94,83,240
82,70,240
91,70,240
94,89,120
82,74,120
91,74,120
81,67,120
90,67,120
93,79,120
94,88,240
82,74,240
91,74,240
89,82,120
77,69,120
91,81,120
79,68,120
92,81,120
80,68,120
96,81,120
84,68,120
94,83,120
82,70,120
92,80,120
80,68,120
91,81,120
79,68,120
89,81,120
77,68,120
94,92,240
91,92,240
82,78,240
91,83,180
94,83,180
82,70,180
81,67,60
90,79,60
93,79,60
94,89,480
91,89,480
82,74,480
98,93,240
86,79,240
94,79,240
98,85,240
86,72,240
94,72,240
96,93,240
84,79,240
92,79,240
96,88,240
84,74,240
92,74,240
91,92,240
79,78,240
87,78,240
94,83,240
82,70,240
91,70,240
94,89,120
82,74,120
91,74,120
81,67,120
90,67,120
93,79,120
94,88,240
82,74,240
91,74,240
89,72,120
77,61,120
80,61,120
91,74,120
79,62,120
82,62,120
92,77,120
80,64,120
83,64,120
84,67,120
93,79,120
81,67,120
94,81,120
85,68,120
82,68,120
95,83,120
83,70,120
86,70,120
96,85,120
84,72,120
87,72,120
98,86,120
86,73,120
89,73,120
99,89,60
87,74,60
91,74,60
75,68,480
79,68,480
87,81,480
75,61,120
79,61,120
87,72,120
62,51,120
65,63,60
67,59,60
62,52,480
68,59,60
72,59,60
70,64,60
68,55,60
62,50,120
67,56,60
65,57,60
70,63,60
67,53,60
72,57,30
67,53,60
70,63,60
66,47,60
69,56,60
67,52,480
70,62,480
60,51,120
65,63,60
67,59,60
60,52,480
68,59,60
72,59,60
70,64,60
68,55,60
62,50,120
67,56,60
65,57,60
67,63,60
63,53,60
58,46,480
63,52,480
62,46,30
58,53,120
63,63,120
65,53,60
77,63,60
67,50,60
79,59,60
68,50,60
80,59,60
72,50,60
84,59,60
70,54,60
82,64,60
68,46,60
80,55,60
67,47,60
79,56,60
65,48,60
77,57,60
82,63,60
70,53,60
84,57,30
70,53,60
82,63,60
69,47,60
81,56,60
70,52,480
82,62,480
65,53,60
77,63,60
67,50,60
79,59,60
68,50,60
80,59,60
72,50,60
84,59,60
70,54,60
82,64,60
68,46,60
80,55,60
67,47,60
79,56,60
65,48,60
77,57,60
79,63,60
67,53,60
63,46,480
75,52,480
74,46,30
63,53,120
75,63,120
66,36,30
67,50,60
59,42,60
60,36,480
63,41,480
62,36,30
59,42,120
63,50,120
91,50,60
79,42,60
75,36,480
87,41,480
86,36,30
75,42,120
87,50,120
66,36,30
67,50,60
59,42,60
60,36,480
63,41,480
62,36,30
59,42,120
63,50,120
55,42,60
67,50,60
58,42,60
55,36,480
60,36,480
63,41,480
62,36,30
56,42,120
59,42,120
63,50,120
55,42,60
67,50,60
58,42,60
55,36,480
60,36,480
63,41,480
62,36,30
56,42,120
59,42,120
63,50,120
55,39,480
67,46,480
58,39,480
55,33,480
60,33,480
63,39,480
62,36,30
56,33,420
59,33,420
63,39,420
55,37,1020
63,39,990
70,40,960
63,28,120
67,28,120
68,27,120
69,26,120
70,25,120
75,27,120
79,27,120
80,27,120
81,27,120
82,27,120
87,27,120
91,27,120
92,27,120
93,27,120
94,27,120
99,33,120
70,81,360
82,96,360
70,77,90
82,91,90
70,77,90
82,91,90
75,85,720
87,101,720
75,74,90
87,89,90
73,79,90
85,93,90
71,79,90
83,93,90
70,78,90
82,92,90
68,81,90
80,96,90
70,80,90
82,94,90
63,75,90
75,90,90
63,75,480
75,90,480
67,57,360
70,68,360
67,54,90
70,64,90
70,64,90
67,54,90
66,60,720
75,71,720
75,62,90
66,52,90
67,56,240
73,66,90
70,66,90
63,55,240
71,65,90
68,68,90
63,56,238
70,67,90
63,63,90
67,57,360
70,68,360
67,54,90
70,64,90
70,64,90
67,54,90
66,60,480
75,71,720
67,60,240
75,62,90
68,52,90
64,56,240
68,56,240
73,66,90
71,66,90
61,55,240
67,55,240
70,65,90
63,68,90
63,58,90
68,70,90
63,66,90
63,60,360
68,70,360
70,81,360
82,96,360
70,77,90
82,91,90
70,77,90
82,91,90
75,85,720
87,101,720
75,74,90
87,89,90
73,79,90
85,93,90
71,79,90
83,93,90
70,78,90
82,92,90
68,81,90
80,96,90
70,80,90
82,94,90
63,75,90
75,90,90
63,75,480
75,90,480
67,57,360
70,68,360
67,54,90
70,64,90
70,64,90
67,54,90
66,60,720
75,71,720
75,62,90
66,52,90
67,56,240
73,66,90
70,66,90
63,55,240
71,65,90
68,68,90
63,56,238
70,67,90
63,63,90
67,57,360
70,68,360
67,54,90
70,64,90
70,64,90
67,54,90
66,60,480
75,71,720
67,60,240
75,62,90
68,52,90
64,56,240
68,56,240
73,66,90
71,66,90
61,55,240
67,55,240
70,65,90
63,68,90
63,58,238
68,70,90
63,66,90
63,60,360
68,70,360
63,55,120
65,49,120
67,48,120
68,47,120
61,51,240
63,51,240
70,60,240
61,44,120
70,52,120
63,44,120
72,52,120
60,49,240
63,49,240
68,58,240
61,51,240
63,51,240
70,60,240
61,44,120
70,52,120
63,44,120
72,52,120
60,49,240
63,49,240
68,58,240
63,51,480
67,51,480
70,60,480
67,44,120
63,44,120
70,52,120
67,44,120
63,44,120
70,52,120
63,51,480
66,51,480
75,60,480
71,44,120
63,44,120
75,52,120
71,44,120
63,44,120
75,52,120
64,50,120
73,59,120
63,43,120
71,51,120
61,43,120
70,51,120
59,43,120
68,51,120
58,51,480
63,51,480
70,60,480
63,44,120
58,44,120
70,52,120
63,44,120
58,44,120
70,52,120
55,50,120
61,50,120
63,59,120
56,43,120
65,51,120
58,43,120
61,43,120
67,51,120
55,43,120
63,51,120
56,51,240
60,51,240
68,60,240
63,52,120
75,63,120
65,47,120
77,56,120
67,46,120
79,55,120
68,44,120
80,54,120
70,58,240
73,58,240
82,69,240
70,50,120
73,50,120
82,59,120
72,50,120
75,50,120
84,59,120
68,56,240
72,56,240
80,66,240
70,58,240
73,58,240
82,69,240
70,50,120
73,50,120
82,59,120
72,50,120
75,50,120
84,59,120
68,56,240
72,56,240
80,66,240
70,58,480
75,58,480
79,58,480
82,69,480
70,50,120
79,50,120
75,50,120
82,59,120
70,50,120
79,50,120
75,50,120
82,59,120
75,58,480
78,58,480
87,69,480
83,50,120
75,50,120
87,59,120
83,50,120
75,50,120
87,59,120
73,57,120
76,57,120
85,67,120
71,49,120
75,49,120
83,58,120
70,49,120
73,49,120
82,58,120
68,49,120
71,49,120
80,58,120
70,58,480
75,58,480
82,69,480
75,50,120
70,50,120
82,59,120
75,50,120
70,50,120
82,59,120
67,57,120
73,57,120
75,67,120
68,49,120
77,58,120
70,49,120
73,49,120
79,58,120
67,49,120
75,58,120
68,58,240
75,58,240
80,69,240
70,66,480
75,66,480
79,66,480
82,79,480
70,57,120
79,57,120
75,57,120
82,67,120
70,57,120
79,57,120
75,57,120
82,67,120
75,66,480
78,66,480
87,79,480
78,57,120
75,57,120
87,67,120
78,57,120
75,57,120
87,67,120
73,65,120
76,65,120
85,77,120
71,56,120
75,56,120
83,66,120
70,56,120
73,56,120
82,66,120
68,56,120
71,56,120
80,66,120
70,66,480
75,66,480
82,79,480
75,57,120
70,57,120
82,67,120
75,57,120
70,57,120
82,67,120
67,65,120
73,65,120
75,77,120
68,56,120
77,66,120
70,56,120
73,56,120
79,66,120
67,56,120
75,66,120
68,66,240
75,66,240
80,79,240
71,35,960
81,50,360
83,36,60
81,36,60
80,50,240
78,41,240
71,29,960
83,43,240
75,45,180
78,35,60
76,43,480
71,35,960
81,50,360
83,36,60
81,36,60
80,50,240
78,41,240
71,29,960
83,44,240
75,45,180
78,35,60
76,43,480
54,36,120
58,41,120
66,36,120
64,28,120
54,24,120
59,27,120
66,24,120
63,19,120
71,35,960
81,50,360
83,36,60
81,36,60
80,50,240
78,41,240
71,29,960
83,43,240
75,45,180
78,35,60
76,43,480
71,35,960
81,50,360
83,36,60
81,36,60
80,50,240
78,41,240
71,29,960
83,44,240
75,45,180
78,35,60
76,43,480
54,36,120
58,41,120
66,36,120
64,28,120
54,24,120
59,27,120
66,24,120
63,19,120
71,35,960
78,50,360
80,36,60
78,36,60
77,50,240
78,41,180
81,35,60
71,29,480
80,43,420
80,35,60
71,29,480
78,43,480
54,36,120
58,41,120
66,36,120
64,28,120
54,24,120
59,27,120
66,24,60
63,19,60
81,37,60
80,50,120
80,37,60
78,50,120
78,37,60
77,50,120
77,37,60
74,50,120
73,50,120
85,50,120
85,50,120
97,50,120
54,32,120
58,36,120
66,32,120
64,25,120
54,21,120
59,24,120
66,21,120
63,17,120
71,35,960
78,50,360
80,36,60
78,36,60
77,50,240
78,41,180
81,35,60
71,29,480
80,43,420
80,35,60
71,29,480
78,43,480
54,32,120
58,36,120
66,32,120
64,25,120
54,21,120
59,24,120
66,24,60
63,19,60
81,37,60
80,50,120
80,37,60
78,50,120
78,37,60
77,50,120
77,37,60
74,50,120
73,50,120
85,50,120
85,50,120
97,50,120
54,30,120
58,34,120
66,30,120
64,23,120
54,20,120
59,22,120
66,20,120
63,16,120
81,42,480
93,50,360
95,36,60
93,36,60
80,42,240
92,50,240
78,34,240
90,41,240
83,36,240
95,43,240
75,38,240
87,45,180
90,35,60
76,36,480
88,43,480
81,42,480
93,50,360
95,36,60
93,36,60
80,42,240
92,50,240
78,34,240
90,41,240
83,37,240
95,44,240
75,38,240
87,45,180
90,35,60
76,36,480
88,43,480
54,34,120
58,38,120
66,34,120
64,26,120
54,22,120
59,25,120
66,22,120
63,18,120
81,42,480
93,50,360
95,36,60
93,36,60
80,42,240
92,50,240
78,34,240
90,41,240
83,36,240
95,43,240
75,38,240
87,45,180
90,35,60
76,36,480
88,43,480
81,42,480
93,50,360
95,36,60
93,36,60
80,42,240
92,50,240
78,34,240
90,41,240
83,37,240
95,44,240
75,38,240
87,45,180
90,35,60
76,36,480
88,43,480
54,34,120
58,38,120
66,34,120
64,26,120
54,22,120
59,25,120
66,22,120
63,18,120
78,42,480
90,50,360
92,36,60
90,36,60
77,42,240
89,50,240
78,34,240
90,41,180
93,35,60
80,36,480
92,43,420
92,35,60
78,24,480
90,43,480
54,36,120
58,41,120
66,36,120
64,28,120
54,24,120
59,27,120
66,24,60
63,19,60
93,37,60
80,42,120
92,50,120
92,37,60
78,42,120
90,50,120
90,37,60
76,42,120
88,50,120
88,37,60
74,42,120
86,50,120
73,50,120
85,50,120
85,50,120
97,50,120
54,30,120
58,34,120
66,30,120
64,23,120
54,20,120
59,22,120
66,20,120
63,16,120
78,42,480
90,50,360
92,36,60
90,36,60
77,42,240
89,50,240
78,34,240
90,41,180
93,35,60
80,36,480
92,43,420
92,35,60
78,24,480
90,43,480
54,36,120
58,41,120
66,36,120
64,28,120
54,24,120
59,27,120
63,19,120
66,24,120
93,45,81
92,44,80
90,44,80
88,43,80
86,43,80
85,42,80
83,42,80
81,41,80
80,41,80
78,40,80
76,39,80
74,39,80
73,40,60
85,36,60
85,36,60
97,38,60
97,39,60
85,36,60
85,36,60
73,37,60
73,44,60
85,36,60
85,36,60
97,41,60
97,41,60
85,36,60
85,36,60
73,36,60
73,42,60
85,37,60
85,37,60
97,40,60
97,40,60
85,37,60
85,37,60
97,37,60
97,42,60
85,37,60
85,37,60
97,39,60
97,39,60
85,37,60
85,37,60
97,37,60
98,39,80
100,38,80
98,37,80
97,36,80
95,36,80
93,36,80
92,35,80
90,34,80
88,33,80
86,32,80
85,31,80
83,30,80
81,29,80
80,28,80
81,29,80
83,31,80
85,32,80
86,33,80
88,34,80
90,35,80
92,36,80
93,36,80
95,37,80
97,38,80
98,39,80
100,38,80
98,37,80
97,36,80
95,36,80
93,36,80
92,35,80
90,34,80
88,33,80
86,32,80
85,31,80
83,30,80
81,29,80
80,28,80
81,29,80
83,31,80
85,32,80
86,33,80
88,34,80
90,35,80
92,36,80
93,36,80
95,37,80
97,38,80
98,39,80
100,38,80
98,37,80
97,36,80
95,36,80
93,36,80
92,35,80
90,34,80
88,33,80
86,32,80
85,31,80
83,30,80
81,29,80
80,28,80
81,29,80
83,31,80
85,32,80
86,33,80
88,34,80
90,35,80
92,36,80
93,36,80
95,37,80
97,38,80
98,41,80
99,44,80
100,46,80
101,49,80
100,49,80
99,47,80
98,46,80
97,45,80
96,44,80
95,43,80
94,41,80
93,40,80
92,39,80
93,44,80
94,46,80
95,48,80
94,49,80
93,48,80
92,47,80
91,46,80
90,45,80
89,45,80
88,44,80
87,43,80
86,41,80
87,44,80
88,46,80
89,49,80
88,49,80
87,47,80
86,46,80
85,45,80
84,44,80
83,43,80
82,41,80
81,40,80
80,39,80
81,44,80
82,46,80
83,48,80
82,49,80
81,48,80
80,47,80
79,46,80
78,45,80
77,45,80
76,44,80
75,43,80
74,41,80
75,44,80
76,46,80
77,49,80
76,49,80
75,47,80
74,46,80
73,45,80
72,44,80
71,43,80
70,41,80
69,40,80
68,39,80
69,44,80
70,46,80
71,48,80
70,49,80
69,48,80
68,45,60
67,45,60
66,47,60
65,49,60
64,50,120
67,45,360
70,54,360
67,43,90
70,51,90
67,43,90
70,51,90
66,48,720
75,56,720
75,49,90
66,41,90
64,44,240
73,52,90
70,52,90
63,44,240
71,52,90
68,54,90
67,44,238
70,53,90
63,50,90
67,49,360
70,59,360
67,47,90
70,56,90
70,56,90
67,47,90
66,52,720
75,61,720
75,53,90
66,45,90
64,48,240
73,57,90
71,57,90
67,48,240
70,58,90
63,61,90
68,60,90
63,58,90
63,55,90
68,62,90
70,58,360
75,58,360
79,58,360
82,70,360
70,55,90
75,55,90
79,55,90
82,66,90
82,66,90
70,55,90
75,55,90
79,55,90
75,62,720
78,62,720
87,72,720
75,53,90
87,63,90
78,53,90
73,57,90
76,57,90
85,67,90
70,67,90
82,67,90
71,57,90
75,57,90
83,67,90
68,70,90
80,70,90
70,57,90
75,57,90
82,68,90
63,57,90
75,65,90
63,57,90
75,68,90
70,60,360
75,60,360
79,60,360
82,73,360
70,57,90
75,57,90
79,57,90
82,69,90
82,69,90
70,57,90
75,57,90
79,57,90
75,65,960
78,65,960
87,75,960
74,63,360
79,63,360
83,63,360
86,76,360
74,59,90
79,59,90
83,59,90
86,72,90
86,72,90
74,59,90
79,59,90
83,59,90
79,68,960
82,68,960
87,68,960
91,78,960
79,66,360
84,66,360
88,66,360
91,79,360
79,61,90
84,61,90
88,61,90
91,75,90
91,75,90
79,61,90
84,61,90
88,61,90
84,71,960
88,71,960
91,71,960
96,81,960
67,67,360
72,67,360
76,67,360
79,80,360
67,62,90
72,62,90
76,62,90
79,77,90
79,77,90
67,62,90
72,62,90
76,62,90
72,73,960
76,73,960
79,73,960
84,83,960
79,69,360
84,69,360
88,69,360
91,82,360
79,64,90
84,64,90
88,64,90
91,78,90
91,78,90
79,64,90
84,64,90
88,64,90
84,75,960
88,75,960
91,75,960
96,85,960
67,70,360
72,70,360
76,70,360
79,84,360
67,65,90
72,65,90
76,65,90
79,81,90
79,81,90
67,65,90
72,65,90
76,65,90
72,76,960
76,76,960
79,76,960
84,87,960
85,72,360
93,72,360
97,86,360
85,67,90
93,67,90
97,82,90
97,82,90
85,67,90
93,67,90
97,78,960
88,78,960
93,78,960
100,89,960
73,72,360
81,72,360
85,86,360
73,67,90
81,67,90
85,82,90
85,82,90
73,67,90
81,67,90
85,78,960
76,78,960
81,78,960
88,89,960
85,72,360
93,72,360
97,86,360
85,67,90
93,67,90
97,82,90
97,82,90
85,67,90
93,67,90
97,78,960
88,78,960
93,78,960
100,89,960
73,72,360
81,72,360
85,86,360
73,67,90
81,67,90
85,82,90
85,82,90
73,67,90
81,67,90
85,78,960
76,78,960
81,78,960
88,89,960
54,73,480
58,73,480
61,73,480
66,87,480
58,68,480
61,68,480
65,80,480
53,68,480
51,72,480
54,72,480
58,72,480
63,85,480
54,68,480
58,68,480
61,80,480
49,68,480
54,73,216
58,73,216
61,73,216
66,86,216
54,68,216
58,68,216
61,68,216
66,80,216
56,73,480
61,73,480
68,86,480
58,75,480
61,75,480
66,75,480
70,89,480
54,73,480
58,73,480
61,73,480
66,87,480
58,68,480
61,68,480
65,80,480
53,68,480
51,72,480
54,72,480
58,72,480
63,85,480
54,68,480
58,68,480
61,80,480
49,68,480
54,73,216
58,73,216
61,73,216
66,86,216
54,68,216
58,68,216
61,68,216
66,80,216
56,73,480
61,73,480
68,86,480
58,75,480
61,75,480
66,75,480
70,89,480
61,77,720
66,77,720
70,77,720
73,91,720
61,72,240
66,72,240
70,72,240
73,85,240
63,78,480
66,78,480
71,78,480
75,92,480
61,73,480
66,73,480
70,73,480
73,86,480
58,79,720
70,93,720
58,73,240
68,87,240
58,77,120
66,91,120
58,72,120
65,85,120
58,71,240
63,84,240
66,66,480
70,78,96
71,73,96
70,73,96
69,73,96
70,73,96
68,62,120
71,73,120
66,59,120
70,70,120
65,68,120
68,80,120
63,62,120
66,73,120
58,62,240
65,73,240
54,75,240
58,75,240
63,89,240
73,77,720
78,77,720
82,77,720
85,91,720
73,72,240
78,72,240
82,72,240
85,85,240
75,78,480
78,78,480
83,78,480
87,92,480
73,73,480
78,73,480
82,73,480
85,86,480
70,79,720
82,93,720
68,73,240
80,87,240
66,77,120
78,91,120
65,72,120
77,85,120
63,71,240
75,84,240
78,66,480
82,78,96
83,73,96
82,73,96
81,73,96
82,73,96
71,62,120
83,73,120
70,59,120
82,70,120
68,68,120
80,80,120
66,62,120
78,73,120
65,62,240
77,73,240
63,75,240
70,75,240
75,89,240
54,65,180
58,65,180
61,65,180
66,78,180
54,55,180
58,55,180
61,55,180
66,65,180
58,54,180
61,54,180
65,64,180
53,54,180
51,57,180
54,57,180
58,57,180
63,68,180
54,54,180
58,54,180
61,64,180
49,54,180
54,54,162
58,54,162
61,54,162
66,64,162
56,58,180
61,58,180
68,69,180
58,60,180
61,60,180
66,60,180
70,72,180
54,65,180
58,65,180
61,65,180
66,78,180
54,55,180
58,55,180
61,55,180
66,65,180
58,54,180
61,54,180
65,64,180
53,54,180
51,57,180
54,57,180
58,57,180
63,68,180
54,54,180
58,54,180
61,64,180
49,54,180
54,54,162
58,54,162
61,54,162
66,64,162
56,58,180
61,58,180
68,69,180
58,60,180
61,60,180
66,60,180
70,72,180
61,77,720
66,77,720
70,77,720
73,91,720
61,72,240
66,72,240
70,72,240
73,85,240
63,78,480
66,78,480
71,78,480
75,92,480
61,73,480
66,73,480
70,73,480
73,86,480
58,79,720
70,93,720
58,73,240
68,87,240
58,77,120
66,91,120
58,72,120
65,85,120
58,71,240
63,84,240
66,66,480
70,78,96
71,73,96
70,73,96
69,73,96
70,73,96
68,62,120
71,73,120
66,59,120
70,70,120
65,68,120
68,80,120
63,62,120
66,73,120
58,62,240
65,73,240
54,75,240
58,75,240
63,89,240
73,77,720
78,77,720
82,77,720
85,91,720
73,72,240
78,72,240
82,72,240
85,85,240
75,78,480
78,78,480
83,78,480
87,92,480
73,73,480
78,73,480
82,73,480
85,86,480
70,79,720
82,93,720
68,73,240
80,87,240
66,77,120
78,91,120
65,72,120
77,85,120
63,71,240
75,84,240
78,66,480
82,78,96
83,73,96
82,73,96
81,73,96
82,73,96
71,62,120
83,73,120
70,59,120
82,70,120
68,68,120
80,80,120
66,62,120
78,73,120
65,62,240
77,73,240
66,66,480
70,78,96
71,73,96
70,73,96
69,73,96
70,73,96
68,62,120
71,73,120
66,59,120
70,70,120
65,68,120
68,80,120
63,62,120
66,73,120
58,62,240
65,73,240
54,66,480
58,78,96
59,73,96
58,73,96
57,73,96
58,73,96
56,62,120
59,73,120
54,59,120
58,70,120
53,68,120
56,80,120
51,62,120
54,73,120
46,62,240
53,73,240
51,86,480
55,56,240
58,56,240
63,56,240
67,66,240
79,66,240
75,56,240
70,56,240
67,56,240
91,71,240
87,71,240
82,60,240
79,60,240
103,78,240
99,78,240
94,66,240
91,66,240
46,82,235
58,86,480
55,56,240
58,56,240
63,56,240
67,66,240
79,66,240
75,56,240
70,56,240
67,56,240
91,72,240
87,72,240
82,61,240
79,61,240
103,77,240
99,77,240
94,65,240
91,65,240
43,79,120
55,79,120
44,75,480
56,86,480
53,56,240
58,56,240
62,56,240
65,66,240
77,66,240
74,56,240
70,56,240
65,56,240
89,72,240
86,61,240
82,61,240
77,61,240
101,81,240
98,81,240
94,68,240
89,68,240
46,86,480
58,86,480
55,56,240
58,56,240
63,56,240
67,66,240
79,66,240
75,56,240
70,56,240
67,56,240
91,73,240
87,73,240
82,62,240
79,62,240
103,81,240
99,81,240
94,68,240
91,68,240
46,71,80
48,73,80
50,75,50
51,86,480
63,56,240
58,56,240
55,56,240
67,66,240
67,56,240
70,56,240
79,66,240
75,56,240
82,60,240
79,60,240
91,71,240
87,71,240
91,66,240
99,78,240
103,78,240
94,66,240
58,86,480
46,86,235
67,66,240
55,56,240
58,56,240
63,56,240
67,56,240
79,66,240
75,56,240
70,56,240
91,72,240
82,61,240
87,72,240
79,61,240
103,77,240
94,65,240
99,77,240
91,65,240
55,79,120
43,79,120
44,75,480
56,86,480
53,56,240
58,56,240
62,56,240
65,66,240
77,66,240
74,56,240
70,56,240
65,56,240
89,72,240
86,61,240
82,61,240
77,61,240
101,81,240
98,81,240
94,68,240
89,68,240
51,86,960
55,56,240
58,56,240
63,66,240
75,66,240
70,56,240
67,56,240
87,73,240
82,73,240
79,62,240
99,81,240
94,81,240
91,68,240
63,82,480
51,75,235
55,62,120
58,53,120
63,53,120
67,62,120
67,57,120
79,62,120
75,53,120
70,53,120
79,56,120
91,67,120
87,67,120
82,57,120
79,60,120
91,70,120
87,58,120
82,58,120
91,62,120
103,81,240
99,78,240
94,62,240
70,82,718
58,73,600
55,62,120
58,53,120
63,53,120
67,62,120
67,57,120
79,62,120
75,53,120
70,53,120
79,56,120
91,67,120
87,67,120
82,57,120
79,60,120
91,70,120
87,58,120
82,58,120
91,62,120
103,81,240
99,78,240
94,62,240
55,76,120
67,76,120
68,82,480
56,73,480
53,62,120
58,53,120
62,53,120
65,62,120
65,57,120
77,62,120
74,53,120
70,53,120
77,56,120
89,67,120
86,67,120
82,57,120
77,60,120
89,70,120
86,58,120
82,58,120
89,62,120
101,81,240
98,74,240
94,62,240
70,82,718
58,73,600
55,62,120
58,53,120
63,53,120
67,62,120
67,57,120
79,62,120
75,53,120
70,53,120
79,56,120
91,67,120
87,67,120
82,57,120
79,60,120
91,70,120
87,58,120
82,58,120
91,62,120
103,81,240
99,78,240
94,62,240
46,76,120
58,76,120
63,82,480
51,75,235
55,62,120
58,53,120
63,53,120
67,62,120
67,57,120
79,62,120
75,53,120
70,53,120
79,56,120
91,67,120
87,67,120
82,57,120
79,60,120
91,70,120
87,58,120
82,58,120
91,62,120
103,81,240
99,78,240
94,62,240
70,82,718
58,73,600
55,62,120
58,53,120
63,53,120
67,62,120
67,57,120
79,62,120
75,53,120
70,53,120
79,56,120
91,67,120
87,67,120
82,57,120
79,60,120
91,70,120
87,58,120
82,58,120
91,62,120
103,81,240
99,78,240
94,62,240
55,76,120
67,76,120
68,82,480
56,73,480
53,62,120
58,53,120
62,53,120
65,62,120
65,57,120
77,62,120
74,53,120
70,53,120
77,56,120
89,67,120
86,67,120
82,57,120
77,60,120
89,70,120
86,58,120
82,58,120
89,62,120
101,81,240
98,74,240
94,62,240
63,82,480
51,73,235
55,62,120
58,53,120
63,62,120
67,57,120
75,62,120
70,53,120
79,56,120
87,70,120
82,58,120
79,60,120
87,76,120
82,64,120
91,62,120
99,86,240
94,69,240
75,60,120
87,62,120
80,52,120
87,64,120
99,65,120
92,55,120
87,60,120
99,64,120
92,54,120
87,60,120
70,60,120
82,63,120
75,53,120
82,60,120
94,64,120
87,54,120
82,60,120
94,64,120
87,54,120
82,60,120
70,60,120
82,63,120
74,53,120
82,60,120
94,64,120
86,54,120
82,60,120
94,64,120
86,54,120
82,60,120
70,60,120
82,63,120
75,53,120
82,60,120
94,64,120
87,54,120
82,60,120
94,64,120
87,54,120
82,60,120
75,60,120
87,62,120
80,52,120
87,64,120
99,65,120
92,55,120
87,60,120
99,64,120
92,54,120
87,60,120
70,60,120
82,63,120
75,53,120
82,60,120
94,64,120
87,54,120
82,60,120
94,64,120
87,54,120
82,60,120
70,60,120
82,63,120
74,53,120
82,60,120
94,64,120
86,54,120
82,60,120
94,64,120
86,54,120
82,60,120
87,53,120
94,63,120
82,75,120
97,60,120
87,67,120
97,60,120
80,72,120
96,57,120
87,57,120
96,57,120
79,69,120
94,56,120
77,67,120
92,56,120
75,67,120
91,56,120
74,66,120
90,56,120
75,67,120
91,56,120
76,68,120
91,57,120
77,67,120
92,60,120
76,66,120
91,60,120
77,67,120
92,57,120
78,65,120
93,57,120
79,70,120
94,58,120
87,58,120
94,58,120
82,75,120
97,60,120
87,67,120
97,60,120
80,72,120
96,57,120
87,57,120
96,57,120
79,69,120
94,56,120
77,67,120
92,56,120
75,67,120
91,56,120
74,66,120
90,56,120
75,67,120
91,56,120
76,68,120
91,57,120
77,67,120
92,60,120
76,66,120
91,60,120
77,67,120
92,57,120
78,65,120
93,57,120
79,70,120
94,58,120
87,58,120
94,58,120
82,75,120
97,60,120
87,67,120
97,60,120
80,72,120
96,57,120
87,57,120
96,57,120
79,69,120
94,56,120
77,67,120
92,56,120
75,67,120
91,56,120
74,66,120
90,56,120
75,67,120
91,56,120
79,48,120
91,57,120
80,51,120
92,61,120
79,49,120
91,58,120
80,50,120
92,59,120
79,46,120
91,55,120
80,50,120
92,59,120
79,47,120
91,56,120
80,49,120
92,58,120
82,47,120
79,47,120
91,56,120
83,50,120
80,50,120
92,59,120
82,45,120
79,45,120
91,54,120
83,60,120
80,51,120
92,60,120
82,48,120
79,48,120
91,57,120
83,63,120
80,53,120
92,63,120
82,51,120
79,51,120
91,60,120
83,54,120
80,54,120
92,63,120
88,52,120
79,52,120
91,62,120
89,65,120
80,55,120
92,65,120
88,53,120
79,53,120
91,63,120
89,56,120
80,56,120
92,66,120
88,54,120
79,54,120
91,64,120
89,68,120
80,57,120
92,68,120
88,55,120
79,55,120
91,65,120
89,58,120
80,58,120
92,68,120
88,56,120
79,56,120
91,66,120
89,70,120
80,59,120
92,70,120
88,57,120
79,57,120
91,67,120
89,61,120
80,61,120
92,72,120
88,60,120
79,60,120
91,71,120
89,76,120
80,64,120
92,76,120
88,62,120
79,62,120
91,74,120
89,66,120
80,66,120
92,78,120
87,65,120
79,65,120
91,77,120
80,77,360
86,77,360
92,91,360
94,78,60
92,78,60
79,74,120
91,88,120
77,69,120
89,82,120
82,75,120
94,90,120
74,68,120
86,81,120
75,74,480
87,88,480
80,77,360
86,77,360
92,91,360
94,78,60
92,78,60
79,74,120
91,88,120
77,69,120
89,82,120
82,75,120
94,90,120
74,68,120
86,81,120
75,74,480
87,88,480
53,61,120
57,61,120
63,72,120
65,72,120
58,63,120
53,63,120
62,75,120
65,75,120
86,77,240
82,77,240
74,64,240
77,64,240
98,77,120
94,77,120
89,64,120
86,64,120
91,77,120
87,77,120
79,64,120
82,64,120
103,77,240
99,77,240
94,64,240
91,64,240
74,77,240
70,77,240
62,64,240
65,64,240
86,77,120
82,77,120
77,64,120
74,64,120
79,77,120
75,77,120
67,64,120
70,64,120
91,77,240
87,77,240
82,64,240
79,64,240
53,61,120
57,61,120
63,72,120
65,72,120
53,63,120
62,75,120
65,75,120
58,63,120
85,77,480
77,77,480
82,77,480
89,91,480
76,74,120
88,88,120
77,69,120
89,82,120
91,91,480
79,77,480
82,77,480
82,74,480
77,74,480
89,88,480
53,61,120
57,61,120
63,72,120
65,72,120
53,63,120
62,75,120
65,75,120
58,63,120
82,68,160
79,68,160
91,81,160
77,57,160
89,68,160
76,57,160
88,68,160
75,63,160
87,75,160
74,59,160
86,70,160
73,59,160
85,70,160
72,71,120
84,84,120
84,64,120
96,77,120
72,70,120
84,83,120
84,64,120
96,77,120
53,61,120
57,61,120
63,72,120
65,72,120
53,63,120
62,75,120
65,75,120
58,63,120
82,82,120
73,69,120
70,69,120
94,81,120
85,68,120
82,68,120
82,82,120
75,69,120
70,69,120
94,81,120
85,68,120
82,68,120
53,61,120
57,61,120
63,72,120
65,72,120
53,63,120
62,75,120
65,75,120
58,63,120
73,69,120
70,69,120
77,69,120
82,82,120
82,68,120
89,68,120
85,68,120
94,81,120
79,69,120
84,82,120
76,69,120
72,69,120
96,68,120
101,81,120
93,68,120
89,68,120
53,61,120
57,61,120
63,72,120
65,72,120
53,63,120
62,75,120
65,75,120
58,63,120
74,52,80
77,54,80
82,55,80
86,57,80
89,59,80
94,60,80
98,62,120
79,53,80
82,55,80
87,57,80
91,59,80
94,61,80
99,64,80
103,66,120
70,52,80
73,54,80
78,56,80
82,58,80
85,60,80
90,61,80
94,63,120
71,54,80
75,55,80
78,57,80
83,58,80
87,60,80
90,61,80
95,63,120
66,54,80
69,56,80
74,57,80
78,58,80
81,59,80
86,60,80
90,62,120
67,54,80
71,55,80
74,57,80
79,58,80
83,59,80
86,60,80
91,62,120
59,45,120
71,54,120
77,55,120
65,46,120
72,56,120
60,47,120
78,56,120
66,47,120
75,60,120
63,51,120
82,60,120
70,51,120
79,61,120
67,51,120
87,61,120
75,51,120
82,62,120
70,52,120
89,62,120
77,52,120
86,63,120
74,53,120
94,63,120
82,53,120
74,52,80
77,54,80
82,55,80
86,57,80
89,59,80
94,60,80
98,62,120
79,53,80
82,55,80
87,57,80
91,59,80
94,61,80
99,64,80
103,66,120
70,52,80
73,54,80
78,56,80
82,58,80
85,60,80
90,61,80
94,63,120
71,54,80
75,55,80
78,57,80
83,58,80
87,60,80
90,61,80
95,63,120
66,54,80
68,56,80
74,57,80
78,58,80
80,59,80
86,60,80
90,62,120
67,54,80
71,55,80
74,57,80
79,58,80
83,59,80
86,60,80
91,62,120
59,45,120
71,54,120
77,55,120
65,46,120
72,56,120
60,47,120
78,56,120
66,47,120
75,57,120
63,48,120
82,57,120
70,48,120
79,57,120
67,48,120
87,58,120
75,49,120
82,59,120
70,50,120
91,59,120
79,50,120
87,55,120
75,55,120
94,55,120
82,55,120
92,50,120
80,50,120
89,50,120
77,50,120
86,50,120
74,50,120
82,50,120
70,50,120
80,50,120
68,50,120
77,50,120
65,50,120
74,51,120
62,51,120
65,53,120
77,53,120
80,56,120
68,56,120
82,58,120
70,58,120
86,61,120
74,61,120
77,64,120
89,64,120
92,67,120
80,67,120
94,70,120
82,70,120
96,73,120
84,73,120
86,75,120
98,75,120
99,82,120
87,70,120
101,73,120
98,73,120
94,62,120
89,62,120
103,77,120
99,77,120
94,66,120
91,66,120
101,77,120
98,77,120
94,66,120
89,66,120
103,77,120
99,77,120
94,66,120
91,66,120
101,77,120
98,77,120
94,66,120
89,66,120
103,77,120
99,77,120
91,66,120
94,66,120
101,77,120
98,77,120
94,66,120
89,66,120
103,77,120
99,77,120
94,66,120
91,66,120
101,77,120
98,77,120
94,66,120
89,66,120
103,77,120
99,77,120
91,66,120
94,66,120
101,77,120
98,77,120
94,66,120
89,66,120
103,77,120
99,77,120
94,66,120
91,66,120
101,77,120
98,77,120
94,66,120
89,66,120
103,77,120
99,77,120
91,66,120
94,66,120
101,77,120
98,77,120
94,66,120
89,66,120
91,77,240
94,77,240
99,77,240
103,93,240
70,68,120
67,68,120
75,68,120
79,80,120
67,75,120
70,75,120
75,75,120
79,89,120
55,70,120
58,70,120
63,82,120
55,76,120
58,76,120
63,91,120
70,68,120
75,68,120
82,80,120
70,75,120
75,75,120
82,89,120
55,70,120
58,70,120
63,82,120
55,76,120
58,76,120
63,91,120
75,84,120
79,84,120
87,99,120
87,84,120
91,84,120
99,99,120
