note,velocity,time
69,65,390
57,55,390
62,55,390
69,72,720
57,61,720
61,61,960
69,63,240
57,54,240
57,70,480
69,70,480
62,59,480
57,68,480
69,68,480
60,57,480
64,57,480
69,75,960
60,47,480
66,59,480
57,48,960
66,62,480
60,52,480
69,73,480
60,48,480
66,55,480
57,51,480
66,48,480
69,71,360
60,45,480
57,54,360
69,66,120
57,55,120
64,72,1920
60,61,960
57,61,960
52,61,1920
59,72,960
56,61,960
52,61,870
57,61,870
61,61,870
64,72,870
67,76,120
55,63,120
62,63,120
65,63,120
67,82,240
60,70,240
64,70,240
55,59,240
67,79,240
60,64,240
63,64,240
55,54,240
67,78,240
59,65,240
62,65,240
55,55,240
67,82,240
58,70,240
61,70,240
55,59,240
67,78,240
58,65,240
61,65,240
55,55,240
67,42,360
55,32,360
60,36,480
55,37,120
67,45,120
67,54,480
62,44,480
59,43,480
55,37,480
58,42,480
64,47,480
55,47,9
67,62,240
55,54,240
67,63,240
55,61,480
57,61,480
50,61,1440
62,72,1440
57,72,960
54,61,960
50,65,840
55,69,810
59,72,780
62,76,750
62,66,119
50,62,60
56,48,60
53,40,60
62,50,60
62,51,60
68,53,60
65,45,60
74,54,60
74,55,60
80,57,60
77,48,60
86,58,60
86,60,60
92,63,60
89,54,60
98,68,60
92,68,60
89,57,60
86,66,60
86,64,60
80,63,60
77,53,60
74,61,60
74,60,60
68,58,60
65,49,60
62,56,60
62,54,60
56,57,60
53,48,60
50,62,60
56,55,60
53,46,60
62,56,60
62,57,60
68,59,60
65,50,60
74,60,60
74,61,60
80,62,60
77,52,60
86,63,60
86,64,60
92,66,60
89,55,60
98,68,60
92,67,60
89,56,60
86,65,60
86,64,60
80,63,60
77,54,60
74,63,60
74,61,60
68,60,60
65,50,60
62,59,60
62,57,60
56,56,60
53,47,60
50,87,240
57,74,118
45,74,60
52,50,60
49,45,60
57,52,60
57,54,60
64,55,60
61,51,60
69,56,60
69,58,60
76,60,60
73,55,60
81,61,60
81,63,60
88,64,60
85,60,60
93,71,60
88,67,60
85,63,60
81,66,60
81,64,60
76,63,60
73,58,60
69,61,60
69,59,60
64,57,60
61,53,60
57,55,60
57,54,60
52,53,60
49,48,60
45,53,60
52,55,60
49,39,60
57,51,60
57,53,60
64,54,60
61,50,60
69,56,60
69,58,60
76,60,60
73,55,60
81,62,60
81,63,60
88,66,60
85,62,60
93,71,60
88,70,60
85,65,60
81,68,60
81,66,60
76,64,60
73,60,60
69,63,60
69,61,60
64,60,60
61,55,60
57,58,60
57,56,60
52,54,60
49,50,60
45,87,240
57,49,120
69,49,480
62,41,480
58,45,120
57,48,120
58,45,120
57,52,120
69,52,720
61,44,720
58,45,120
57,48,120
58,45,120
57,48,100
62,46,120
61,48,120
69,51,240
58,48,120
57,39,140
62,43,490
69,48,480
58,45,120
57,49,120
58,45,120
57,40,130
64,43,127
69,51,480
64,51,120
60,52,120
59,48,120
57,59,120
69,59,960
66,50,590
59,49,120
57,54,120
59,49,120
57,56,110
66,54,120
60,57,120
59,54,120
57,62,120
69,62,480
66,52,480
59,54,120
57,60,120
59,55,120
57,65,120
69,65,480
66,54,480
60,59,120
59,63,120
57,59,120
52,59,130
60,67,960
64,67,960
53,52,130
52,59,130
53,52,130
52,59,120
57,54,130
55,59,130
53,54,120
52,59,130
59,67,730
64,67,960
53,56,130
52,56,130
53,50,130
52,54,120
59,49,130
56,59,130
53,54,120
64,59,920
61,59,560
52,59,80
53,44,120
52,51,120
53,45,120
52,49,90
61,54,360
57,51,120
53,49,120
52,54,90
57,51,120
53,53,120
52,50,120
49,52,90
53,54,120
52,51,120
49,47,120
45,56,120
46,53,120
47,56,120
48,56,120
49,54,120
50,54,120
51,56,120
52,57,120
53,58,120
54,60,120
55,61,120
56,63,120
55,69,120
56,66,120
67,68,240
55,63,120
65,57,240
56,59,120
67,73,240
55,62,120
64,62,240
56,56,120
55,59,120
56,56,120
67,71,240
55,56,110
63,60,240
60,62,120
58,58,120
56,58,120
55,62,120
56,56,120
67,70,240
55,62,120
62,59,240
56,56,120
67,73,240
55,62,120
61,62,240
57,56,120
55,62,120
57,56,120
67,70,240
55,58,110
61,59,240
60,60,120
58,59,120
57,59,120
55,62,120
57,56,120
55,62,120
57,56,120
67,50,360
55,62,110
60,42,120
60,53,360
58,53,120
57,53,120
67,51,480
55,51,110
59,51,480
62,54,120
58,54,120
55,54,120
67,54,240
55,54,110
58,54,238
64,60,120
58,58,120
55,58,120
62,72,960
50,58,130
57,61,730
51,53,130
50,58,130
51,53,130
50,54,110
57,58,130
54,54,130
51,54,130
50,56,130
51,54,130
50,58,130
51,54,130
50,61,90
62,61,350
59,61,90
59,49,120
55,44,120
51,44,120
50,49,90
55,45,120
50,45,120
48,44,120
47,49,90
51,47,120
50,47,120
47,46,120
43,54,120
42,49,120
43,56,120
42,54,120
43,59,120
42,54,120
43,59,120
42,54,120
43,58,120
44,62,120
45,67,120
46,72,80
86,89,480
80,77,480
77,69,480
74,69,480
86,89,960
80,77,960
77,69,960
74,69,960
86,89,480
80,76,480
77,70,480
74,70,480
86,89,480
80,74,480
77,69,480
74,69,480
81,89,480
79,77,480
76,69,480
69,69,480
81,89,960
79,77,960
76,69,960
69,69,960
81,89,480
79,76,480
76,70,480
69,70,480
79,43,720
81,43,720
76,43,720
69,43,720
57,39,240
64,39,240
67,39,240
69,39,240
57,40,720
64,40,720
67,40,720
69,40,480
69,49,60
81,54,60
69,54,240
81,54,480
57,45,240
64,45,240
67,45,240
69,45,240
70,60,720
69,47,720
65,47,720
58,47,720
81,60,60
93,66,60
81,66,480
93,66,480
69,51,240
58,51,240
65,51,240
70,51,240
69,51,480
59,51,720
66,51,720
71,51,720
69,57,60
81,63,60
69,63,240
81,63,480
59,51,240
66,51,240
69,51,240
71,51,240
72,65,720
69,52,720
60,52,720
81,66,60
93,73,60
81,73,480
93,73,480
69,56,240
60,56,240
72,56,240
67,56,720
69,56,480
61,56,720
73,56,720
69,63,60
81,71,60
69,71,240
81,71,480
61,56,240
67,56,240
69,56,240
73,56,240
74,36,120
62,31,120
70,31,120
75,38,120
63,32,120
72,32,120
77,40,120
65,34,120
74,34,120
75,44,120
79,44,120
67,36,120
81,45,120
69,38,120
77,38,120
82,48,120
70,41,120
79,41,120
84,51,120
72,43,120
81,43,120
86,54,120
74,45,120
82,45,120
86,56,120
74,40,120
82,40,120
84,58,120
72,49,120
81,49,120
82,58,120
70,49,120
79,49,120
81,58,120
69,49,120
77,49,120
79,59,120
67,50,120
75,50,120
77,59,120
65,50,120
74,50,120
75,60,120
63,50,120
72,50,120
74,60,120
62,50,120
70,50,120
75,56,120
63,47,120
72,47,120
77,57,120
65,48,120
74,48,120
79,58,120
67,49,120
75,49,120
81,60,120
77,50,120
69,50,120
82,61,120
70,51,120
79,51,120
84,62,120
72,52,120
81,52,120
86,63,120
74,54,120
82,54,120
87,64,120
75,54,120
84,54,120
87,68,120
75,57,120
84,57,120
86,66,120
74,55,120
82,55,120
84,67,120
72,56,120
81,56,120
82,69,120
70,58,120
79,58,120
81,70,120
69,59,120
77,59,120
79,72,120
67,61,120
75,61,120
77,72,120
65,61,120
74,61,120
75,73,120
63,62,120
72,62,120
75,36,120
63,31,120
71,31,120
76,38,120
64,32,120
73,32,120
78,40,120
66,34,120
75,34,120
76,44,120
80,44,120
68,36,120
82,45,120
70,38,120
78,38,120
83,48,120
71,41,120
80,41,120
85,51,120
73,43,120
82,43,120
87,54,120
75,45,120
83,45,120
87,56,120
75,40,120
83,40,120
85,58,120
73,49,120
82,49,120
83,58,120
71,49,120
80,49,120
82,58,120
70,49,120
78,49,120
80,59,120
68,50,120
76,50,120
78,59,120
66,50,120
75,50,120
76,60,120
64,50,120
73,50,120
75,60,120
63,50,120
71,50,120
76,56,120
64,47,120
73,47,120
78,57,120
66,48,120
75,48,120
80,58,120
68,49,120
76,49,120
82,60,120
78,50,120
70,50,120
83,61,120
71,51,120
80,51,120
85,62,120
73,52,120
82,52,120
87,63,120
75,54,120
83,54,120
88,64,120
76,54,120
85,54,120
88,68,120
76,57,120
85,57,120
87,66,120
75,55,120
83,55,120
85,67,120
73,56,120
82,56,120
83,69,120
71,58,120
80,58,120
82,70,120
70,59,120
78,59,120
80,72,120
68,61,120
76,61,120
78,72,120
66,61,120
75,61,120
76,73,120
64,62,120
73,62,120
76,69,120
73,58,120
64,58,120
70,58,120
77,70,120
65,59,120
79,71,120
67,60,120
80,72,120
68,61,120
82,72,120
70,61,120
84,73,120
72,62,120
85,74,120
73,63,120
88,75,120
76,63,120
89,76,120
80,64,120
77,64,120
84,64,120
87,76,120
75,64,120
85,75,120
73,63,120
84,75,120
72,63,120
82,74,120
70,63,120
80,73,120
68,62,120
79,72,120
67,61,120
77,72,120
65,61,120
78,72,120
75,61,120
66,61,120
72,61,120
79,71,120
67,60,120
81,72,120
69,61,120
82,72,120
70,61,120
84,74,120
72,63,120
86,75,120
74,63,120
87,76,120
75,64,120
90,77,120
78,65,120
91,79,120
82,66,120
79,66,120
86,66,120
89,78,120
77,65,120
87,79,120
75,66,120
86,79,120
74,66,120
84,80,120
72,67,120
82,81,120
70,68,120
81,81,120
69,69,120
79,82,120
67,70,120
77,86,120
80,86,120
68,72,120
74,72,120
81,82,120
69,70,120
82,82,120
70,70,120
83,82,120
71,70,120
84,83,120
72,72,120
85,84,120
73,71,120
86,86,120
74,72,120
87,86,120
75,72,120
88,86,120
76,72,120
89,84,120
77,71,120
90,84,120
78,71,120
91,84,120
79,71,120
92,86,120
80,72,120
93,84,120
81,71,120
94,84,120
82,71,120
95,84,120
83,71,120
96,85,120
84,72,120
97,86,120
85,72,120
98,87,120
86,73,120
99,87,120
87,73,120
100,88,120
88,74,120
98,89,120
101,89,120
89,75,120
98,75,120
101,90,120
90,75,120
98,76,120
101,90,120
91,76,120
98,91,240
101,91,240
92,77,240
81,86,120
69,72,120
76,72,120
82,82,120
70,70,120
83,81,120
71,70,120
84,81,120
72,69,120
85,84,120
73,60,120
86,84,120
74,72,120
87,86,120
75,72,120
88,86,120
76,72,120
89,86,120
77,61,120
90,85,120
78,72,120
91,85,120
79,72,120
92,85,120
80,72,120
93,86,120
81,72,120
93,84,120
82,71,120
93,84,120
83,71,120
81,71,120
93,84,120
84,71,120
81,71,120
81,72,120
93,85,120
85,72,120
81,72,120
93,86,120
86,72,120
81,73,120
93,87,120
87,73,120
81,73,120
93,87,120
88,73,120
81,74,120
93,88,120
89,74,120
90,75,120
93,89,120
81,75,120
81,76,120
93,90,120
91,76,120
81,77,120
93,90,120
92,77,120
93,91,240
81,77,240
69,63,960
66,63,960
62,65,960
70,63,720
70,58,240
63,63,960
63,63,480
63,60,480
62,64,960
50,57,120
55,57,120
58,57,120
63,63,960
70,63,720
70,58,240
61,65,960
65,63,960
59,63,960
64,63,900
50,58,60
62,60,60
60,64,960
57,57,480
57,35,80
58,36,80
59,36,80
60,38,80
61,39,80
62,40,80
63,42,80
64,43,80
65,44,80
66,45,60
67,46,60
68,47,60
69,51,60
81,51,60
69,51,80
81,62,480
68,51,80
67,50,80
66,49,80
65,48,80
64,47,80
63,46,80
62,45,80
61,44,80
60,43,60
59,43,60
58,42,60
52,58,60
57,58,60
53,45,480
58,48,80
57,60,480
59,45,80
60,45,80
61,45,80
62,47,80
63,48,80
64,49,80
65,51,80
66,52,80
67,53,60
68,54,60
69,54,60
70,55,60
81,69,60
71,55,80
81,71,480
70,57,80
69,56,80
68,54,80
67,54,80
66,53,80
65,51,80
64,50,80
63,49,80
62,47,60
61,46,60
60,46,60
58,48,60
53,33,60
59,66,60
57,54,480
60,66,80
61,50,80
62,51,80
63,52,80
64,53,80
65,53,80
66,54,80
67,54,80
68,55,80
69,56,60
70,56,60
71,57,60
69,53,60
72,57,60
81,77,60
69,70,240
73,57,80
81,77,480
72,61,80
71,59,80
70,58,80
69,56,80
68,55,80
67,54,80
66,52,80
65,51,80
64,49,60
63,48,60
62,47,60
57,46,60
61,46,60
57,46,480
62,46,60
63,47,60
64,48,60
65,49,60
66,50,60
67,51,60
68,52,60
69,53,60
70,54,60
71,54,60
72,54,60
73,55,60
74,57,60
75,57,60
76,58,60
77,59,60
78,60,60
79,61,60
80,62,60
81,63,60
82,63,60
83,64,60
84,65,60
85,66,60
86,77,60
85,66,60
84,65,60
83,63,60
82,63,60
81,62,60
80,60,60
79,59,60
78,58,60
77,57,60
76,55,60
75,54,60
74,53,60
73,52,60
72,51,60
71,49,60
70,48,60
69,47,60
68,46,60
67,45,60
66,44,60
65,43,60
64,41,60
63,40,60
62,39,60
60,39,60
63,39,60
61,40,60
64,40,60
62,41,60
65,41,60
63,42,60
66,42,60
64,43,60
67,43,60
65,44,60
68,44,60
66,45,60
69,45,60
67,45,60
70,45,60
68,45,60
71,45,60
69,46,60
72,46,60
70,47,60
73,47,60
71,48,60
74,48,60
72,49,60
75,49,60
73,50,60
76,50,60
74,51,60
77,51,60
75,52,60
78,52,60
76,53,60
79,53,60
77,53,60
80,53,60
78,54,60
81,54,60
79,54,60
82,54,60
80,55,60
83,55,60
81,56,60
84,56,60
82,57,60
85,57,60
83,58,60
86,58,60
84,59,60
87,59,60
85,60,60
88,60,60
86,60,60
89,60,60
87,61,60
90,61,60
88,62,60
91,62,60
89,63,60
92,63,60
90,63,60
93,63,60
91,64,60
94,64,60
92,65,60
95,65,60
93,66,60
96,66,60
94,67,60
97,67,60
95,72,60
98,72,60
96,66,60
99,66,60
95,66,60
98,66,60
94,65,60
97,65,60
93,64,60
96,64,60
92,64,60
95,64,60
91,63,60
94,63,60
90,63,60
93,63,60
89,62,60
92,62,60
88,62,60
91,62,60
87,61,60
90,61,60
86,60,60
89,60,60
85,59,60
88,59,60
84,59,60
87,59,60
83,58,60
86,58,60
82,57,60
85,57,60
81,57,60
84,57,60
80,56,60
83,56,60
79,55,60
82,55,60
78,54,60
81,54,60
77,54,60
80,54,60
76,54,60
79,54,60
75,53,60
78,53,60
74,53,60
77,53,60
73,52,60
76,52,60
72,51,60
75,51,60
71,50,60
74,50,60
70,50,60
73,50,60
69,49,60
72,49,60
68,48,60
71,48,60
67,48,60
70,48,60
66,47,60
69,47,60
65,46,60
68,46,60
64,45,60
67,45,60
63,45,60
66,45,60
62,45,60
65,45,60
61,44,60
64,44,60
60,43,60
63,43,60
64,57,60
57,45,60
60,45,60
65,44,60
66,45,60
67,45,60
68,46,60
69,47,60
70,49,60
71,49,60
72,51,60
73,52,60
74,53,60
75,54,60
76,54,60
77,55,60
78,56,60
79,57,60
80,58,60
81,59,60
82,61,60
83,61,60
84,63,60
85,63,60
86,64,60
87,65,60
88,66,60
89,67,60
90,68,60
91,69,60
92,70,60
93,71,60
94,72,60
95,72,60
96,74,60
97,75,60
98,76,60
99,77,60
100,89,120
96,75,120
93,75,120
88,75,120
101,84,120
89,71,120
93,71,120
96,71,120
48,56,120
47,59,120
48,56,120
47,56,110
52,62,120
50,58,120
48,58,120
48,56,120
47,62,120
48,56,120
47,56,120
52,62,120
50,58,120
48,58,120
48,52,120
47,54,120
48,51,120
47,51,110
52,57,120
50,54,120
48,54,120
47,45,120
52,54,120
50,51,120
48,45,120
48,49,120
47,45,120
48,45,120
71,39,240
68,33,240
68,38,120
64,32,120
74,38,360
71,32,360
76,38,40
73,32,40
74,35,40
71,29,40
73,35,40
69,29,40
68,27,240
71,33,240
74,43,240
71,36,240
71,38,120
68,32,120
78,38,360
74,32,360
80,36,40
76,30,40
78,33,40
74,27,40
76,35,40
73,29,40
83,42,360
78,35,360
85,42,40
80,35,40
83,36,40
78,30,40
81,36,40
76,30,40
86,45,360
80,38,360
88,47,40
86,40,40
85,40,40
90,49,600
83,41,600
89,38,90
83,38,90
89,43,90
83,43,90
88,38,90
83,38,90
83,43,90
88,43,90
82,38,90
88,38,90
82,42,90
88,42,90
81,38,90
88,38,90
81,42,580
88,47,560
81,46,80
87,46,80
80,39,80
86,43,160
79,45,80
79,36,80
85,41,160
78,44,80
77,36,80
83,42,160
76,46,80
76,35,80
81,41,160
74,44,80
74,33,80
79,37,160
72,38,50
71,38,90
79,38,60
77,42,108
71,35,108
76,41,108
71,35,108
74,39,108
71,33,108
80,42,108
71,35,108
78,41,108
71,35,108
76,40,108
71,34,108
74,39,54
71,33,54
68,34,540
71,35,510
66,38,320
74,38,480
65,34,160
64,33,160
68,36,160
73,38,160
63,30,160
68,33,160
72,38,160
62,32,50
68,35,50
71,38,50
69,28,120
64,24,120
61,24,120
69,28,120
61,24,120
64,24,120
71,34,120
62,28,120
66,28,120
66,31,120
59,26,120
56,24,165
59,24,150
64,24,135
68,28,120
66,29,120
63,25,120
64,29,240
56,25,240
76,30,480
64,25,478
74,33,240
71,27,240
73,32,240
69,27,240
76,29,240
68,30,240
62,25,240
69,28,120
64,24,120
61,24,120
69,28,120
61,24,120
64,24,120
71,34,120
62,28,120
66,28,120
71,34,120
66,31,120
62,26,120
59,24,120
62,24,120
68,28,120
59,25,120
64,29,120
62,25,120
64,29,240
61,25,240
88,39,240
76,32,240
78,32,240
86,38,240
74,32,240
71,29,240
83,36,240
74,29,240
64,40,60
69,50,360
61,30,120
64,34,120
71,43,90
73,51,360
61,30,120
64,34,120
69,47,120
66,47,240
62,37,150
71,50,480
66,37,120
69,49,240
68,50,360
59,32,120
64,34,120
68,45,120
69,49,360
57,36,120
63,36,120
71,50,240
56,25,270
64,29,135
71,45,120
64,42,120
76,30,480
64,25,480
74,33,240
71,27,240
73,32,150
69,27,150
62,25,285
68,25,270
71,30,255
74,25,240
64,40,60
69,50,360
61,30,120
64,34,120
71,43,90
73,51,360
61,30,120
64,34,120
69,47,120
66,47,240
62,37,120
71,50,480
66,37,120
69,49,240
69,47,120
68,47,120
59,32,120
62,34,120
66,47,90
64,44,90
64,46,48
66,46,48
64,46,48
63,46,48
64,46,48
62,36,120
66,47,90
68,47,90
69,47,90
73,49,90
64,37,120
76,54,480
62,37,120
64,37,120
71,49,240
74,47,120
73,47,120
61,32,120
64,34,120
71,47,90
69,44,90
69,46,35
69,43,40
71,43,48
69,43,40
68,43,40
69,43,40
62,36,120
73,47,90
71,45,60
69,47,120
61,40,120
97,44,120
85,36,120
88,36,120
93,44,120
81,36,120
85,36,120
59,53,240
56,45,240
56,50,120
52,47,90
61,53,240
57,45,240
64,51,120
61,43,120
61,47,90
57,40,90
59,54,360
56,45,360
56,47,120
52,40,120
59,50,120
56,42,120
71,44,120
66,33,830
70,51,120
71,45,120
73,49,120
71,45,120
70,48,120
71,45,120
69,48,120
66,45,120
64,48,240
68,48,240
92,38,60
88,30,60
93,39,60
90,31,60
95,43,60
92,34,60
93,41,60
90,32,60
92,39,120
88,31,120
59,53,240
56,45,240
56,50,120
52,47,90
57,38,35
61,38,35
57,33,40
61,33,40
59,36,40
63,36,40
57,33,40
61,33,40
56,38,40
60,38,40
57,33,30
61,33,30
61,43,130
64,51,120
61,47,90
57,40,90
59,54,360
56,45,360
56,47,120
52,40,120
59,50,120
56,42,120
71,44,360
66,33,960
71,49,120
71,45,120
70,48,120
71,45,120
69,48,120
71,45,120
64,33,480
68,51,120
71,45,120
71,45,60
71,45,60
66,33,480
70,48,120
71,45,120
69,48,120
71,45,120
64,33,480
68,51,120
71,45,120
71,45,60
71,45,60
70,48,80
66,33,480
73,45,80
71,45,80
69,48,80
73,44,80
71,44,80
64,54,240
68,54,240
64,46,120
56,53,240
59,53,240
52,48,120
56,48,120
59,55,480
62,55,480
52,48,120
59,48,120
57,47,240
57,46,90
59,42,90
61,47,240
57,43,210
54,43,240
59,48,480
59,42,120
66,42,120
69,42,240
68,48,360
59,33,120
64,33,120
68,42,120
69,44,240
57,46,150
63,46,135
71,46,240
56,25,270
64,29,135
71,45,120
64,42,120
86,37,240
74,31,240
83,31,240
73,31,240
85,36,240
81,31,240
71,34,240
83,27,240
80,27,240
69,28,120
64,24,120
61,24,120
69,28,120
61,24,120
64,24,120
62,41,720
69,47,600
74,49,480
74,47,120
62,32,960
64,34,960
74,47,120
68,47,120
68,47,90
68,44,90
68,46,35
68,43,35
69,43,35
68,43,35
66,43,35
68,43,35
69,47,90
71,45,90
69,47,240
61,40,240
69,28,240
64,24,240
61,24,237
69,28,240
61,24,240
64,24,240
62,38,478
69,41,60
74,44,60
78,45,380
90,48,320
78,40,80
90,40,80
78,42,80
90,42,80
78,45,80
90,45,80
78,46,80
90,46,80
78,49,80
90,49,80
78,54,240
90,54,60
80,48,60
90,44,60
92,44,60
102,54,60
92,45,60
90,41,60
80,41,60
90,50,60
80,41,60
78,41,60
68,36,50
68,36,70
68,35,70
68,36,70
62,43,240
64,43,240
68,50,50
68,37,60
69,41,60
68,37,60
67,36,60
68,36,60
69,36,60
70,36,60
71,36,60
72,37,60
73,38,60
74,39,60
75,40,60
76,41,60
77,42,60
78,43,60
79,44,60
80,44,60
81,45,60
82,45,60
83,46,60
84,47,60
85,48,60
86,49,60
87,50,60
88,50,60
89,51,60
90,52,60
91,53,60
92,54,60
93,54,60
94,55,60
95,56,60
96,57,60
97,58,60
98,58,60
99,59,80
100,60,80
101,62,80
102,72,60
68,43,120
62,49,120
69,43,240
62,45,120
64,45,120
71,45,120
76,50,120
61,33,240
69,33,240
75,55,120
76,50,120
69,33,240
78,54,120
76,50,120
75,53,120
76,50,120
64,33,240
74,53,120
71,50,120
64,34,240
69,34,240
73,43,240
62,45,120
64,45,120
71,45,120
76,50,240
61,33,120
69,33,120
76,38,90
88,50,90
76,41,90
88,54,90
76,38,90
88,50,90
75,40,120
87,53,120
76,38,120
88,50,120
74,40,120
86,53,120
76,38,90
88,50,90
76,42,120
88,54,120
73,38,90
85,50,90
73,38,90
85,50,90
73,38,90
85,50,90
72,41,120
84,54,120
73,38,120
85,50,120
71,41,120
83,54,120
73,38,90
85,50,90
73,42,120
85,54,120
69,38,90
81,50,90
69,38,90
81,50,90
69,38,90
81,50,90
68,43,80
80,55,80
71,39,80
83,51,80
69,39,80
81,51,80
67,42,80
79,54,80
71,38,120
83,50,120
69,38,30
81,50,30
69,41,120
81,54,120
66,39,90
78,51,90
66,39,240
74,43,240
78,51,240
62,55,240
62,60,120
56,56,360
64,55,240
64,60,120
57,56,360
90,55,240
78,55,240
88,55,90
76,55,90
87,51,90
75,51,90
74,46,240
86,50,60
86,42,60
88,45,60
86,42,60
85,46,60
86,42,60
97,49,60
95,44,60
92,44,60
86,44,60
87,45,60
88,46,60
89,48,60
92,52,60
90,45,60
86,45,60
80,45,60
81,44,60
82,46,60
85,49,60
83,45,60
80,45,60
74,44,60
75,42,60
76,45,60
77,48,60
80,50,60
78,42,60
74,42,60
68,42,60
69,45,60
70,39,60
73,44,60
71,39,60
74,46,60
78,42,60
75,47,60
76,45,60
80,48,60
85,44,60
82,48,60
83,44,60
86,48,60
90,45,60
87,48,60
88,45,60
92,48,60
97,45,60
94,45,60
95,43,60
98,43,60
101,43,60
94,45,60
95,43,60
98,45,60
100,45,60
94,49,60
95,46,60
98,46,60
101,47,60
94,53,60
95,50,60
98,51,60
100,52,60
94,55,60
95,54,60
98,54,60
101,54,60
94,59,60
95,55,60
98,55,60
100,55,60
94,62,60
95,57,60
98,49,60
101,49,60
99,54,60
100,49,60
98,54,60
99,49,60
97,54,60
98,49,60
96,54,60
97,49,60
95,54,60
96,49,60
94,54,60
95,49,60
93,54,60
94,45,60
92,50,60
93,46,60
91,50,60
92,46,60
90,50,60
91,46,60
89,50,60
90,46,60
88,50,60
89,45,60
87,51,60
88,44,60
86,45,60
87,43,60
85,47,60
86,43,60
84,48,60
85,43,60
83,48,60
84,43,60
82,49,60
83,42,60
81,49,60
82,45,60
80,49,60
81,44,60
79,50,60
80,43,60
78,49,60
79,44,60
77,48,60
78,42,60
76,49,60
77,44,60
75,49,60
76,44,60
74,49,60
76,43,60
73,48,60
76,45,60
74,45,60
76,42,60
70,39,60
76,36,60
71,43,60
76,41,60
73,46,60
76,42,60
74,49,60
76,42,60
70,39,60
76,37,60
71,44,60
76,41,60
73,48,60
76,45,60
74,48,120
76,43,120
70,40,120
76,38,120
71,43,120
76,39,120
72,45,120
76,43,120
73,47,120
76,45,120
74,50,120
76,45,120
70,46,120
76,39,120
71,45,240
76,43,240
64,37,360
72,45,360
73,50,480
64,42,240
61,39,240
71,45,240
64,37,240
73,48,480
64,40,240
61,37,240
74,45,240
64,37,240
71,48,240
64,40,240
76,51,960
64,43,960
71,45,240
64,37,240
73,50,480
64,42,240
61,39,240
71,45,240
64,37,240
73,48,480
64,40,240
61,37,240
74,45,240
64,37,240
71,48,240
64,40,240
76,51,960
64,43,960
71,44,240
64,44,240
73,54,240
64,45,240
69,45,240
76,48,240
73,40,240
73,48,240
69,40,240
74,52,240
71,44,240
78,47,240
74,40,240
74,47,240
71,40,240
73,53,720
69,45,720
71,46,240
62,39,240
64,39,240
68,39,240
74,46,240
71,38,240
71,43,240
68,36,240
69,42,120
61,35,120
81,50,480
73,42,240
75,47,240
80,48,240
76,39,240
76,48,240
71,40,240
79,50,240
73,42,240
78,52,240
74,44,240
74,52,240
70,44,240
77,53,240
69,44,240
76,55,240
68,46,240
71,48,240
64,40,240
68,37,180
83,45,180
69,42,495
85,50,480
68,37,270
83,45,240
69,40,510
85,48,480
68,37,180
86,45,180
68,40,255
83,48,240
88,51,960
76,43,960
68,37,210
76,37,15
83,45,180
69,42,500
76,42,510
85,50,480
68,37,270
76,37,35
83,45,240
69,40,510
76,40,15
85,48,480
68,37,210
76,37,15
86,45,180
68,40,260
76,40,250
83,48,240
88,51,960
76,43,960
68,37,210
76,37,15
83,45,210
69,42,750
76,42,730
85,50,720
71,40,255
86,48,240
74,45,255
90,48,240
71,37,240
86,45,210
69,42,750
85,50,720
68,40,270
76,40,255
83,48,240
71,45,255
86,48,240
68,37,170
83,45,170
64,39,150
69,42,140
73,45,130
81,47,120
76,43,40
85,51,40
78,40,20
86,47,20
85,49,60
76,41,60
83,49,30
71,41,30
85,46,60
76,39,60
86,51,60
78,43,60
88,45,30
79,38,30
86,48,45
78,40,45
76,43,40
85,51,40
78,40,20
86,47,20
85,49,60
76,41,60
83,49,30
74,41,30
85,46,60
76,39,60
86,51,120
78,43,120
98,50,60
97,50,60
95,49,60
93,48,60
92,48,40
90,47,40
88,47,40
86,46,40
85,46,40
83,45,40
81,45,720
73,43,60
81,51,60
74,38,30
83,45,30
73,40,45
81,48,45
80,51,40
71,43,40
81,47,40
73,40,40
71,41,60
80,49,60
69,41,30
78,49,30
80,46,60
71,39,60
81,51,60
73,43,60
86,48,60
90,48,60
85,48,60
83,47,60
81,46,60
80,45,40
78,45,40
76,44,40
74,44,40
73,51,40
64,43,40
74,47,40
66,40,40
64,41,60
73,49,60
62,41,30
71,49,30
64,39,60
73,46,60
66,43,60
74,51,60
67,38,30
76,45,30
66,40,45
74,48,45
73,51,40
64,43,40
74,47,40
66,40,40
64,41,60
73,49,60
71,49,30
62,41,30
73,46,60
64,39,60
74,51,60
66,43,60
93,50,48
90,50,48
86,50,48
85,49,48
83,48,48
81,48,48
80,47,40
78,46,40
76,46,40
74,45,40
73,45,40
71,45,40
69,47,720
61,43,60
69,51,60
62,38,30
71,45,30
61,40,45
69,48,45
68,51,40
59,43,40
69,47,40
61,40,40
59,41,60
68,49,60
57,41,30
66,49,30
68,46,60
59,39,60
69,51,60
61,43,60
93,51,60
97,51,60
92,51,60
90,50,60
88,50,60
86,50,60
85,49,60
83,49,60
81,48,60
80,48,48
78,47,48
76,47,48
74,47,48
73,46,48
71,46,60
69,46,60
68,45,60
66,45,60
64,43,60
76,55,60
73,47,60
69,46,60
73,55,60
61,46,60
71,42,30
74,50,30
62,42,30
69,44,60
61,44,60
73,53,60
68,45,60
59,45,60
71,54,60
66,45,30
69,54,30
57,45,30
68,43,60
71,51,60
59,43,60
69,46,60
61,46,60
73,55,60
97,53,48
100,53,48
93,53,48
92,53,48
90,52,48
88,52,48
86,51,60
85,50,60
83,50,60
81,49,60
80,49,48
78,48,48
76,48,48
74,47,48
73,47,48
71,46,60
69,46,60
68,45,60
66,45,60
64,51,60
76,66,60
73,56,60
69,58,60
73,69,60
61,58,60
71,51,30
74,62,30
62,51,30
69,54,60
61,54,60
73,65,60
68,54,60
59,54,60
71,66,60
66,54,30
69,66,30
57,54,30
68,53,60
71,63,60
59,53,60
69,58,60
61,58,60
73,69,60
75,54,60
76,56,60
78,58,60
80,60,60
81,62,60
83,63,60
85,65,60
86,67,60
88,69,60
90,71,60
92,72,60
93,73,60
95,75,60
97,77,60
98,79,60
97,84,120
100,84,120
88,71,120
100,87,120
93,73,120
88,73,120
97,73,120
98,81,60
100,81,60
95,68,60
88,68,60
100,82,120
88,69,120
97,69,120
93,69,120
100,86,120
88,72,120
92,72,120
95,72,120
100,81,60
88,68,60
90,68,60
93,68,60
100,81,120
88,68,120
92,68,120
95,68,120
105,85,480
93,72,480
97,72,480
71,45,60
68,37,60
69,41,30
66,35,30
71,41,60
68,35,60
73,45,60
69,37,60
74,43,30
71,36,30
73,43,60
69,36,60
71,45,60
68,37,60
69,40,30
66,34,30
71,40,60
68,34,60
69,45,240
64,37,240
88,86,360
76,72,360
80,72,360
83,72,360
88,81,120
76,68,120
78,68,120
81,68,120
88,81,240
76,68,240
80,68,240
83,68,240
88,87,360
81,73,360
76,73,360
85,73,360
86,81,120
88,81,120
83,68,120
76,68,120
88,82,240
76,69,240
85,69,240
81,69,240
88,86,360
76,72,360
80,72,360
83,72,360
88,81,120
76,68,120
78,68,120
81,68,120
88,81,240
76,68,240
80,68,240
83,68,240
93,95,480
81,72,480
85,81,480
61,36,120
64,36,120
69,36,120
64,36,120
69,36,120
62,36,120
66,36,120
71,36,120
66,36,120
69,36,120
71,36,120
71,36,120
68,36,120
63,36,120
71,36,120
69,36,120
66,36,120
68,44,160
78,44,80
76,45,80
75,48,80
69,40,160
74,50,240
65,47,80
64,45,80
71,45,80
68,37,160
73,45,80
61,36,120
64,36,120
69,36,120
64,36,120
69,36,120
62,36,120
66,36,120
71,36,120
62,36,120
66,36,120
71,36,120
62,36,120
64,36,120
71,36,120
68,36,120
62,36,240
76,36,320
71,36,240
64,36,240
61,40,80
69,40,80
69,46,60
76,46,60
69,46,60
76,46,60
69,45,60
76,45,60
69,45,60
75,45,60
69,45,60
75,45,60
69,45,60
75,45,60
69,44,60
74,44,60
69,44,60
74,44,60
69,43,60
74,43,60
68,42,30
71,42,30
68,42,30
73,42,30
61,36,237
69,51,80
71,45,80
69,45,80
68,47,80
69,43,80
71,43,50
73,36,15
74,36,15
64,36,240
69,36,240
73,49,80
72,45,80
74,45,80
73,49,80
71,45,80
69,45,80
68,51,80
66,45,80
80,52,80
78,54,80
92,51,80
90,54,80
97,58,80
95,55,80
90,55,80
85,58,80
83,50,80
78,50,80
81,50,80
80,56,80
78,56,80
76,48,80
73,48,80
71,49,80
68,47,80
68,54,80
64,47,80
64,40,80
69,55,80
66,49,80
60,46,80
59,46,80
57,50,80
54,50,80
51,50,80
68,44,160
78,44,80
76,45,80
75,48,80
69,40,160
74,50,240
65,47,80
64,45,80
71,45,80
68,37,80
68,33,80
73,45,80
61,36,236
69,51,80
71,45,80
69,45,80
68,47,80
69,43,80
71,43,50
73,36,15
74,36,15
64,36,240
69,36,240
73,49,80
72,45,80
74,45,80
73,49,80
71,45,80
69,45,80
68,51,80
66,45,80
80,52,80
78,54,80
92,51,80
90,54,80
97,58,80
95,55,80
90,55,80
85,58,80
83,50,80
78,50,80
81,50,80
71,45,160
74,45,160
81,51,80
80,45,80
90,52,80
80,38,160
83,38,160
88,54,80
85,51,80
74,38,160
80,38,160
83,54,80
71,45,160
74,45,160
81,58,80
80,55,80
78,55,80
68,38,160
71,38,160
76,58,80
78,50,80
71,38,160
74,38,160
80,50,80
73,52,120
81,52,80
76,54,80
85,54,80
81,56,80
88,56,80
85,59,80
93,59,80
88,62,80
97,62,80
93,63,80
100,63,80
100,66,160
95,66,80
88,65,80
95,64,160
88,64,80
83,63,80
88,63,160
83,63,80
76,62,80
76,54,160
88,61,160
86,61,80
85,61,80
76,53,160
88,60,160
84,60,80
83,60,80
76,53,160
88,59,160
82,59,80
81,58,80
76,49,160
88,54,160
81,54,80
80,54,80
76,48,160
88,53,160
81,53,80
85,53,80
76,38,160
88,49,160
84,45,80
83,50,55
73,49,90
81,54,85
88,56,80
69,55,60
85,55,60
73,61,60
88,53,60
76,61,60
97,53,60
93,61,120
81,61,120
51,57,80
52,53,80
61,53,80
57,45,80
59,58,80
56,49,80
56,50,80
52,42,80
57,50,80
54,42,80
59,52,80
56,44,80
61,52,80
57,44,80
63,54,80
59,45,80
64,58,80
61,49,80
63,54,80
60,45,80
66,54,80
63,45,80
64,54,80
61,45,80
63,54,80
59,45,80
61,54,80
57,45,80
58,59,80
55,50,80
59,51,80
56,43,80
56,51,80
52,43,80
59,53,80
56,45,80
64,50,80
59,42,80
68,50,80
71,53,80
76,54,80
71,45,80
80,55,80
76,46,80
83,58,40
80,49,40
83,54,40
80,45,40
83,54,40
80,45,40
83,58,40
80,49,40
83,54,40
80,45,40
83,54,40
80,45,40
83,56,80
80,47,80
85,54,80
81,45,80
83,54,40
80,45,40
82,58,80
79,49,80
83,54,80
80,45,80
82,54,40
79,45,40
81,57,80
78,48,80
83,54,80
80,45,80
81,54,80
78,45,80
80,57,80
76,48,80
95,58,80
92,49,80
93,55,80
90,46,80
92,54,80
88,45,80
83,54,80
80,45,80
81,52,80
78,44,80
71,53,80
68,45,80
69,53,80
66,45,80
68,53,80
64,45,80
56,54,60
52,45,60
57,54,60
54,45,60
59,58,80
56,49,80
56,50,80
52,42,80
57,50,80
54,42,80
59,52,80
56,44,80
61,52,80
57,44,80
63,54,80
59,45,80
64,58,80
61,49,80
63,54,80
60,45,80
66,54,80
63,45,80
64,54,80
61,45,80
63,54,80
59,45,80
61,54,80
57,45,80
58,59,80
55,50,80
59,51,80
56,43,80
56,51,80
52,43,80
59,53,80
56,45,80
64,50,80
59,42,80
68,50,80
71,53,80
76,54,80
71,45,80
80,55,80
76,46,80
83,58,40
80,49,40
83,54,40
80,45,40
83,54,40
80,45,40
83,58,40
80,49,40
83,54,40
80,45,40
83,54,40
80,45,40
83,56,80
80,47,80
85,54,80
81,45,80
83,54,40
80,45,40
82,58,80
79,49,80
83,54,80
80,45,80
82,54,40
79,45,40
81,57,80
78,48,80
83,54,80
80,45,80
81,54,40
78,45,40
80,52,40
76,44,40
83,41,80
95,49,40
92,41,40
83,42,80
95,50,40
92,42,40
83,45,80
95,54,80
92,45,80
85,44,80
97,52,80
93,44,80
83,45,40
95,54,40
92,45,40
82,49,80
94,58,80
91,49,80
83,44,80
95,52,80
92,44,80
82,46,40
94,51,40
91,43,40
81,45,80
93,54,80
90,45,80
83,41,80
95,49,80
92,41,80
93,49,40
81,41,40
90,41,40
80,44,40
92,52,40
88,44,40
83,41,80
95,49,40
92,41,40
83,42,80
95,50,40
92,42,40
83,45,80
95,54,80
92,45,80
85,44,80
97,52,80
93,44,80
83,45,40
95,54,40
92,45,40
82,49,80
94,58,80
91,49,80
83,44,80
95,52,80
92,44,80
82,46,40
94,51,40
91,43,40
81,45,80
93,54,80
90,45,80
83,41,80
95,49,80
92,41,80
93,49,40
81,41,40
90,41,40
92,52,80
80,44,80
88,44,80
56,48,80
56,54,80
55,48,80
54,46,80
53,52,80
52,49,80
56,43,80
59,49,80
55,45,80
58,52,80
54,44,80
57,50,80
52,44,80
56,50,80
62,58,80
59,58,80
61,57,80
58,50,80
60,55,80
57,48,80
56,46,80
59,54,80
68,50,80
71,57,80
67,47,80
70,54,80
66,45,80
69,53,80
64,43,80
68,50,80
78,57,80
74,50,80
76,55,80
73,55,80
75,54,80
72,46,80
74,52,80
71,45,80
86,61,80
83,54,80
85,59,80
82,52,80
84,57,80
81,50,80
83,55,80
80,48,80
95,64,80
92,57,80
94,62,80
91,54,80
93,59,80
90,52,80
92,57,80
88,50,80
98,65,80
93,65,80
90,51,80
97,65,80
92,51,80
89,51,80
96,64,80
91,51,80
88,51,80
95,64,80
90,51,80
87,51,80
94,63,80
89,51,80
86,51,80
93,63,80
88,50,80
85,50,80
87,63,80
92,63,80
84,50,80
91,62,80
83,49,80
86,49,80
90,62,80
82,49,80
85,49,80
89,61,80
81,48,80
84,48,80
88,60,80
80,47,80
83,47,80
87,60,80
79,47,80
82,47,80
86,59,80
81,59,80
78,47,80
85,59,80
80,47,80
77,47,80
84,58,80
79,46,80
76,46,80
83,57,80
78,45,80
75,45,80
82,57,80
77,45,80
74,45,80
81,56,80
76,45,80
73,45,80
80,56,80
72,45,80
75,45,80
79,55,80
71,44,80
74,44,80
78,55,80
70,44,80
73,44,80
77,54,80
69,44,80
72,44,80
76,54,80
68,43,80
71,43,80
75,54,80
67,43,80
70,43,80
74,63,60
66,53,60
69,53,60
74,58,60
65,48,60
69,48,60
74,58,60
65,49,60
69,49,60
74,63,60
65,54,60
69,54,60
73,60,60
64,50,60
69,50,60
73,61,60
64,51,60
69,51,60
73,66,60
64,55,60
69,55,60
78,61,60
63,51,60
69,51,60
72,51,60
78,61,60
63,51,60
69,51,60
72,51,60
78,66,60
63,55,60
69,55,60
72,55,60
78,61,60
62,51,60
68,51,60
71,51,60
78,61,60
62,51,60
68,51,60
71,51,60
78,65,120
62,55,120
68,55,120
71,55,120
77,63,240
61,54,240
68,54,240
71,54,240
76,62,240
58,52,240
67,52,240
73,52,240
75,59,240
59,50,240
66,50,240
71,50,240
74,55,240
57,46,240
62,46,240
66,46,240
72,46,240
74,52,240
67,44,240
72,44,240
74,41,120
67,35,120
71,35,120
74,36,120
67,30,120
79,36,120
67,30,120
74,36,120
67,30,120
79,40,120
67,34,120
64,35,480
62,33,480
68,37,40
68,37,40
69,40,40
68,36,40
66,36,40
68,36,40
71,40,80
71,38,120
72,37,40
73,45,130
61,38,130
64,38,120
68,43,120
62,36,120
64,36,120
69,46,120
64,39,240
73,44,120
69,36,120
78,57,250
70,55,250
64,58,250
71,45,120
62,37,120
71,38,120
63,32,120
66,32,120
71,38,120
63,32,120
66,32,120
76,58,370
64,47,360
71,47,370
68,46,120
64,39,120
72,52,250
64,44,250
57,44,240
71,43,120
57,36,120
63,36,120
88,63,30
80,53,30
76,53,30
87,54,30
81,45,30
75,45,30
86,62,30
81,51,30
74,51,30
86,54,30
77,45,30
74,45,30
83,54,30
76,45,30
71,45,30
73,45,130
61,38,130
64,38,120
68,43,120
62,36,120
64,36,120
69,46,120
64,39,120
73,44,120
64,36,120
69,36,120
62,48,120
69,48,120
74,54,120
86,54,40
74,45,40
86,54,40
74,45,40
86,56,40
74,47,40
86,53,40
74,45,40
86,54,40
74,45,40
86,56,80
74,47,80
80,53,40
68,45,40
80,53,40
68,45,40
80,53,40
68,45,40
80,53,40
68,45,40
80,52,40
68,44,40
80,51,40
68,43,40
80,51,40
68,43,40
80,50,40
68,42,40
80,49,80
68,41,80
81,48,80
69,40,80
83,47,80
71,40,80
73,45,130
61,38,130
64,38,120
68,43,120
62,36,120
64,36,120
69,46,120
64,39,240
73,44,120
69,36,120
62,48,150
69,48,135
78,54,120
90,45,40
78,37,40
90,46,40
78,39,40
90,47,40
78,40,40
90,49,40
78,41,40
90,51,40
78,43,40
90,52,40
78,44,40
90,54,40
78,45,40
90,55,60
78,55,60
80,47,40
68,40,40
80,47,40
68,40,40
80,47,40
68,40,40
80,47,36
68,40,36
80,47,36
68,40,36
80,47,36
68,40,36
80,48,36
68,40,36
80,48,36
68,40,36
80,47,48
68,40,48
81,48,48
69,40,48
82,49,48
70,41,48
83,50,48
71,42,48
84,51,48
72,43,48
85,53,48
73,45,48
86,54,48
74,45,48
75,45,48
87,54,48
88,55,48
76,46,48
89,57,48
77,48,48
90,61,60
78,51,60
78,52,160
66,44,160
80,52,50
68,44,50
81,59,80
69,49,80
75,56,80
63,47,80
76,57,80
64,48,80
78,62,80
69,43,240
73,49,240
66,47,80
75,59,80
63,49,80
76,57,80
64,48,80
87,62,80
75,52,80
88,63,80
76,53,80
90,65,80
83,55,240
78,47,80
87,63,80
75,54,80
88,61,80
76,51,80
100,54,60
97,54,60
88,45,60
100,56,60
97,56,60
88,47,60
100,58,60
97,58,60
88,49,60
100,61,60
97,61,60
88,51,60
100,60,60
97,60,60
88,50,60
99,63,80
96,63,80
87,54,80
100,63,80
97,63,80
88,53,80
99,62,80
96,62,80
87,52,80
100,60,80
97,60,80
88,50,80
98,59,80
95,59,80
86,49,80
100,58,80
97,58,80
88,49,80
75,56,80
63,47,80
76,57,80
64,48,80
78,62,80
69,42,240
73,49,240
66,47,80
75,59,80
63,49,80
76,57,80
64,48,80
87,55,80
75,46,80
88,56,80
76,47,80
90,58,80
83,49,240
78,49,80
87,56,80
75,48,80
88,54,80
76,45,80
100,54,60
97,54,60
88,45,60
100,56,60
97,56,60
88,47,60
100,58,60
97,58,60
88,49,60
100,61,60
97,61,60
88,51,60
100,60,60
97,60,60
88,50,60
99,63,80
96,63,80
87,54,80
100,63,80
97,63,80
88,53,80
99,62,80
96,62,80
87,52,80
100,60,80
97,60,80
88,50,80
98,59,80
95,59,80
86,49,80
100,58,60
97,58,60
88,49,60
100,61,80
97,53,80
88,45,80
97,54,60
85,45,60
93,54,60
85,47,60
93,47,60
97,56,60
85,49,60
97,58,60
93,49,60
97,61,60
93,51,60
85,51,60
85,50,60
97,60,60
93,50,60
92,54,80
96,63,80
84,54,80
93,53,80
85,53,80
97,63,80
84,52,80
96,62,80
92,52,80
85,50,80
97,60,80
93,60,80
83,49,80
95,59,80
92,49,80
97,58,60
93,49,60
85,49,60
85,45,80
93,53,80
97,61,80
93,54,60
81,45,60
90,45,60
93,56,60
90,47,60
81,47,60
93,58,60
81,49,60
90,49,60
93,61,60
90,51,60
81,51,60
81,50,60
93,60,60
90,50,60
92,63,80
80,54,80
89,54,80
93,63,80
81,53,80
90,53,80
92,62,80
80,52,80
89,52,80
93,60,80
81,50,80
90,50,80
91,59,80
79,49,80
88,49,80
93,58,60
90,49,60
81,49,60
93,68,80
81,57,80
90,57,80
90,51,30
86,51,30
90,54,30
86,54,30
78,47,30
81,47,30
86,54,30
90,54,30
74,49,30
78,49,30
98,73,30
95,68,30
90,51,30
86,51,30
98,54,30
95,54,30
83,47,30
86,47,30
95,54,30
98,54,30
78,49,30
83,49,30
83,52,80
86,65,80
74,57,80
80,51,30
76,51,30
92,54,30
88,54,30
80,47,30
83,47,30
88,54,30
92,54,30
76,49,30
80,49,30
100,73,30
97,68,30
92,51,30
88,51,30
100,54,30
97,54,30
85,47,30
88,47,30
97,54,30
100,54,30
80,49,30
85,49,30
88,65,80
76,57,80
85,52,80
81,51,30
78,51,30
93,54,30
90,54,30
81,47,30
85,47,30
90,54,30
93,54,30
78,49,30
81,49,30
101,73,30
98,68,30
93,51,30
89,51,30
101,54,30
98,54,30
86,47,30
89,47,30
98,54,30
101,54,30
81,49,30
86,49,30
100,74,80
88,63,80
95,63,80
99,62,80
100,75,80
98,61,60
100,77,60
95,56,60
100,77,60
92,52,60
100,77,60
88,52,60
100,79,60
86,50,60
100,79,60
83,50,60
100,79,60
80,50,60
100,79,60
76,51,60
100,79,60
74,51,60
100,79,60
71,51,60
100,79,60
68,51,60
100,79,120
65,59,155
64,43,80
65,40,80
64,40,80
65,40,80
64,40,80
66,43,110
64,40,60
66,40,60
64,40,60
67,52,110
64,40,60
67,40,60
64,40,60
68,58,110
64,37,60
68,40,60
64,38,60
68,40,60
64,36,60
68,40,60
64,37,60
68,54,110
64,37,60
68,39,60
64,37,60
66,54,110
69,54,60
64,36,60
66,39,60
69,39,60
64,36,60
66,39,60
69,39,60
64,36,60
66,39,60
69,39,60
64,37,60
67,54,60
70,54,110
64,39,60
67,41,60
70,41,60
64,39,60
70,61,110
65,42,60
70,45,60
65,41,60
70,45,60
65,41,60
70,45,60
65,42,60
70,45,60
65,42,60
70,45,60
65,42,60
68,45,60
70,45,110
65,42,60
68,52,60
70,52,60
65,41,60
68,44,60
70,44,60
65,41,60
68,44,60
70,44,60
65,41,60
68,44,60
70,44,60
65,40,60
68,44,60
70,44,60
65,41,60
70,52,110
66,42,60
70,45,60
66,41,60
70,45,60
66,41,60
70,45,60
66,41,60
70,45,60
66,40,60
70,45,60
66,41,60
70,62,60
71,62,110
66,44,60
70,47,60
71,47,60
66,44,60
70,47,60
71,47,60
66,43,60
70,47,60
71,47,60
66,44,60
70,47,60
71,47,60
66,44,60
70,47,60
71,47,60
66,44,60
71,62,60
69,52,60
65,48,60
71,48,60
69,40,60
65,48,60
71,48,60
69,40,60
65,48,60
71,48,60
69,40,60
65,48,60
71,48,60
69,40,60
65,48,60
71,48,60
69,40,60
65,48,60
71,54,60
69,45,60
65,48,60
71,48,60
69,40,60
65,48,60
71,48,60
69,40,60
65,48,60
71,48,60
69,40,60
65,48,60
71,48,60
69,40,60
65,48,60
71,48,60
69,40,60
65,48,60
71,54,60
69,45,60
65,50,60
71,50,60
69,42,60
65,50,60
71,50,60
69,42,60
65,50,60
71,50,60
69,42,60
65,50,60
71,50,60
69,42,60
65,50,60
71,50,60
69,42,60
65,50,60
71,57,60
69,45,60
65,50,60
71,50,60
69,42,60
65,50,60
71,50,60
69,42,60
65,50,60
71,50,60
69,42,60
65,50,60
71,50,60
69,42,60
65,50,60
71,50,60
69,42,60
65,50,60
76,48,240
74,45,240
68,47,120
69,48,120
70,49,120
71,51,120
72,52,120
73,54,120
74,54,120
75,55,120
76,57,120
77,58,120
78,60,120
79,61,120
80,62,120
88,62,240
86,62,240
81,54,120
82,55,120
83,56,120
84,57,120
85,59,120
86,60,120
87,61,120
88,62,120
89,63,120
90,64,120
91,65,120
100,69,240
98,69,240
92,69,120
93,59,120
94,61,120
95,63,120
96,65,120
97,67,120
100,71,240
98,71,240
97,69,120
96,66,120
95,63,120
94,62,120
93,59,120
100,69,240
98,69,240
92,69,120
93,59,120
94,61,120
95,63,120
96,65,120
97,67,120
100,71,240
98,71,240
97,69,120
96,66,120
95,63,120
94,62,120
93,59,120
100,69,240
98,69,240
92,69,120
93,57,120
94,59,120
95,61,120
96,63,120
97,65,120
98,67,120
99,69,120
100,72,120
101,75,120
100,73,120
99,73,120
98,70,120
95,68,120
92,65,120
89,63,120
88,60,120
87,57,120
86,55,120
87,53,120
88,54,120
89,53,120
88,51,120
87,49,120
86,51,120
83,49,120
80,48,120
77,47,120
76,46,120
75,46,120
74,47,120
75,48,120
76,49,120
77,49,120
76,48,120
74,46,120
71,48,120
74,45,120
76,47,120
77,48,120
76,47,120
74,46,120
68,50,120
74,44,120
76,45,120
77,46,120
76,45,120
74,45,120
69,50,120
74,44,120
76,45,120
78,45,120
76,45,120
74,43,120
70,49,120
74,40,120
76,41,120
78,43,120
76,43,120
74,40,120
71,49,120
74,40,120
78,44,120
76,40,120
77,44,120
76,40,120
78,44,120
76,40,120
77,45,120
76,40,120
78,45,120
76,41,120
77,45,120
76,42,120
78,45,120
76,40,120
77,45,120
76,40,120
78,44,120
76,40,120
77,43,120
76,38,120
78,42,120
76,38,120
77,41,120
76,37,120
78,40,120
76,37,120
78,39,120
76,36,120
78,38,120
76,36,120
78,37,120
76,33,120
78,36,120
76,33,120
78,36,120
76,32,120
78,35,120
76,32,120
78,34,120
76,31,120
78,33,120
76,30,120
78,32,120
76,29,120
83,45,240
71,36,120
76,36,120
85,47,480
73,36,120
76,36,120
78,39,120
76,36,120
83,43,240
71,36,120
76,36,120
85,47,480
73,36,120
76,36,120
78,39,120
76,36,120
86,44,240
74,36,120
76,36,120
83,48,240
74,36,120
76,36,120
88,49,480
80,36,120
76,36,120
81,40,120
76,36,120
82,42,120
76,36,120
83,42,120
76,36,120
84,45,120
76,36,120
85,47,480
73,36,120
76,36,120
78,39,120
76,36,120
83,43,240
71,36,120
76,36,120
85,47,480
73,36,120
76,36,120
78,39,120
76,36,120
86,44,240
74,36,120
76,36,120
83,48,240
71,36,120
76,36,120
88,49,480
80,36,120
76,36,120
81,40,120
76,36,120
82,42,120
76,36,120
83,42,120
76,36,120
84,42,120
76,36,120
85,48,480
81,40,480
73,36,120
76,36,120
78,39,120
76,36,120
73,36,120
76,36,120
74,36,120
83,41,240
86,49,240
78,36,120
90,45,240
86,38,240
80,39,120
78,36,120
74,36,120
83,38,240
86,45,240
78,36,120
81,44,240
85,52,240
73,36,120
76,36,120
88,47,240
78,39,120
85,40,240
76,36,120
81,40,240
73,36,120
85,47,240
76,36,120
83,53,240
80,45,240
71,36,120
76,36,120
83,40,240
86,48,240
77,39,120
76,36,120
80,40,240
71,36,120
83,48,240
76,36,120
69,41,120
81,51,480
73,41,120
76,41,120
81,41,120
85,42,120
93,51,240
87,44,120
88,45,120
92,51,240
83,44,120
80,45,120
88,54,240
81,45,120
83,46,120
91,54,240
85,45,120
86,47,120
90,58,240
81,47,120
77,46,120
86,56,240
74,49,120
82,48,120
89,57,240
81,50,120
80,49,120
88,59,240
76,49,120
71,44,120
83,51,240
76,45,120
72,37,120
84,47,240
76,42,120
85,47,480
73,36,120
76,36,120
78,39,120
76,36,120
83,43,240
71,36,120
76,36,120
85,47,480
73,36,120
76,36,120
78,39,120
76,36,120
86,44,240
74,36,120
76,36,120
83,48,240
71,36,120
76,36,120
88,49,480
80,36,120
76,36,120
81,40,120
76,36,120
82,42,120
76,36,120
83,42,120
76,36,120
84,45,120
76,36,120
85,47,480
73,36,120
76,36,120
78,39,120
76,36,120
83,43,240
71,36,120
76,36,120
85,47,480
73,36,120
76,36,120
78,39,120
76,36,120
86,44,240
74,36,120
76,36,120
83,48,240
71,36,120
76,36,120
88,49,480
80,36,120
76,36,120
81,40,120
76,36,120
82,42,120
76,36,120
83,42,120
76,36,120
84,42,120
76,36,120
81,40,480
73,36,120
85,48,480
76,36,120
78,39,120
76,36,120
73,36,120
76,36,120
83,41,240
86,49,240
74,36,120
78,36,120
90,45,240
86,38,240
80,39,120
78,36,120
74,36,120
83,38,240
86,45,240
78,36,120
85,52,240
73,36,120
81,44,240
76,36,120
88,47,240
78,39,120
85,40,240
76,36,120
81,40,240
73,36,120
85,47,240
76,36,120
83,53,240
80,45,240
71,36,120
76,36,120
77,39,120
83,40,240
86,48,240
76,36,120
71,36,120
83,48,240
80,40,240
76,36,120
73,49,120
69,41,120
81,56,120
81,43,60
85,44,60
93,45,60
93,46,60
85,45,60
81,44,60
73,44,60
81,43,60
86,44,60
93,45,60
93,46,60
86,45,60
81,44,60
74,44,60
81,43,60
85,44,60
93,45,60
93,46,60
85,45,60
81,44,60
73,44,60
69,34,60
66,28,60
71,35,60
67,29,60
73,36,60
69,31,60
74,37,60
71,31,60
76,39,60
73,32,60
78,40,60
74,34,60
79,41,60
76,35,60
81,43,60
78,36,60
83,44,60
79,36,60
85,45,60
81,38,60
86,47,60
83,40,60
88,48,60
85,40,60
90,49,60
86,41,60
76,43,60
81,44,60
88,45,60
88,46,60
81,45,60
76,44,60
69,44,60
76,43,60
80,44,60
88,45,60
88,46,60
80,45,60
76,44,60
68,44,60
98,34,60
90,28,60
97,35,60
88,29,60
95,36,60
86,31,60
93,37,60
85,31,60
92,39,60
83,32,60
90,40,60
81,34,60
88,41,60
80,35,60
86,43,60
78,36,60
85,44,60
76,36,60
83,45,60
74,38,60
81,47,60
73,40,60
80,48,60
71,40,60
78,49,80
69,41,60
68,41,60
76,49,60
66,41,60
74,41,60
69,43,60
73,44,60
81,45,60
81,46,60
73,45,60
69,44,60
61,44,60
69,43,60
74,44,60
81,45,60
81,46,60
74,45,60
69,44,60
62,44,60
69,43,60
73,44,60
81,45,60
81,46,60
73,45,60
69,44,60
61,44,60
69,33,60
66,27,60
70,34,60
67,28,60
71,36,60
68,30,60
72,36,60
69,30,60
73,38,60
70,32,60
74,39,60
71,33,60
75,41,60
72,35,60
76,42,60
73,35,60
77,44,60
74,36,60
78,45,60
75,37,60
79,46,60
76,39,60
80,47,60
77,40,60
81,49,60
78,41,60
82,50,60
79,42,60
83,52,60
80,44,60
84,53,60
81,45,60
85,54,60
82,45,60
86,55,60
83,46,60
87,57,60
84,48,60
88,58,60
85,49,60
90,60,60
86,50,60
64,43,60
69,44,60
76,45,60
76,46,60
69,45,60
64,44,60
57,44,60
64,43,60
68,44,60
76,45,60
76,46,60
68,45,60
64,44,60
56,44,60
98,33,60
90,27,60
97,34,60
89,28,60
96,36,60
88,30,60
95,36,60
87,30,60
94,38,60
86,32,60
93,39,60
85,33,60
92,41,60
84,35,60
91,42,60
83,35,60
90,44,60
82,36,60
89,45,60
81,37,60
88,46,60
80,39,60
87,47,60
79,40,60
86,49,60
78,41,60
85,50,60
77,42,60
84,52,60
76,44,60
83,53,60
75,45,60
74,45,60
82,54,60
73,45,60
81,54,60
72,46,60
80,55,60
71,48,60
79,57,60
70,49,48
78,58,48
69,49,48
77,58,48
68,48,48
76,57,48
66,50,48
75,59,48
65,51,48
74,61,48
76,72,60
64,58,60
73,59,60
73,65,240
69,55,240
61,55,120
64,47,120
73,52,120
69,44,120
76,55,120
85,59,120
81,50,120
83,64,240
80,54,240
71,54,120
76,52,120
83,54,120
80,45,120
76,57,120
95,61,120
92,51,120
97,73,120
93,63,120
85,60,120
100,33,60
97,27,60
95,34,60
93,36,60
92,36,60
90,38,60
88,39,60
86,41,60
85,42,60
83,44,60
81,45,60
80,46,60
78,47,60
76,49,60
74,50,60
73,52,60
71,53,60
69,54,80
68,55,80
66,57,80
64,55,60
73,57,60
76,70,60
73,65,240
69,55,240
61,55,120
64,47,120
73,52,120
69,44,120
76,55,120
85,59,120
81,50,120
83,64,240
80,54,240
71,54,120
76,52,120
83,54,120
80,45,120
76,57,120
95,61,120
92,51,120
97,73,120
93,63,120
85,60,120
75,43,60
76,45,60
78,46,60
80,48,60
81,50,60
83,51,60
85,53,60
86,54,60
88,56,60
90,58,60
92,60,60
93,62,60
95,63,80
97,65,8
98,68,80
97,84,60
100,84,60
88,71,60
88,73,120
100,87,120
93,73,120
97,73,120
100,81,60
95,68,60
98,81,60
88,68,60
88,69,120
97,69,120
100,82,120
93,69,120
88,72,120
92,72,120
100,86,120
95,72,120
90,68,60
88,68,60
93,68,60
100,81,60
100,81,120
88,68,120
92,68,120
95,68,120
97,72,480
93,72,480
100,85,480
88,72,480
71,45,60
68,37,60
69,41,30
66,35,30
71,41,60
68,35,60
73,45,60
69,37,60
74,43,30
71,36,30
73,43,60
69,36,60
71,45,60
68,37,60
69,40,30
66,34,30
71,40,60
68,34,60
69,45,240
64,37,240
80,72,360
83,72,360
88,86,360
76,72,360
88,81,120
76,68,120
78,68,120
81,68,120
88,81,240
76,68,240
80,68,240
83,68,240
88,87,360
81,73,360
76,73,360
85,73,360
86,81,120
88,81,120
83,68,120
76,68,120
88,82,240
76,69,240
85,69,240
81,69,240
80,72,360
88,86,360
76,72,360
83,72,360
76,68,120
78,68,120
88,81,120
81,68,120
76,68,240
80,68,240
88,81,240
83,68,240
81,72,180
85,81,180
93,95,180
69,49,60
71,49,60
73,56,180
69,50,60
68,50,60
66,55,180
71,58,720
69,52,60
68,58,180
66,49,180
68,51,60
64,43,60
64,55,180
69,55,180
71,53,60
57,45,60
63,45,60
64,56,180
56,47,180
76,49,60
68,41,60
75,49,60
69,41,60
74,54,180
69,45,180
74,50,60
65,42,60
71,52,60
64,44,60
69,58,180
64,49,180
81,54,60
69,45,60
83,57,60
71,48,60
85,63,180
73,53,180
81,54,60
69,45,60
80,54,60
68,45,60
78,60,180
66,50,180
83,62,720
71,52,720
81,52,60
71,44,60
78,44,60
69,44,60
81,55,180
69,46,180
74,46,180
80,51,60
74,43,60
68,43,60
78,51,60
74,43,60
66,43,60
76,56,180
74,47,180
64,47,180
78,52,60
66,44,60
80,52,60
74,44,60
68,44,60
81,55,180
69,46,180
73,46,180
85,60,120
76,51,120
73,51,120
88,67,480
81,57,480
76,57,480
83,54,60
88,65,60
76,54,60
88,65,60
84,54,60
76,54,60
88,71,180
76,60,180
86,60,180
88,66,60
85,56,60
76,56,60
88,66,60
83,56,60
76,56,60
88,72,240
81,62,240
76,62,240
88,68,60
85,58,60
76,58,60
88,68,60
83,58,60
76,58,60
88,73,120
76,63,120
81,63,120
83,61,180
71,51,180
80,51,180
68,46,40
64,39,40
69,46,40
66,39,40
71,46,40
68,59,120
64,50,120
88,63,180
85,54,180
76,54,180
73,45,40
69,37,40
75,45,40
71,37,40
76,45,40
73,56,120
69,47,120
83,61,240
71,51,240
80,51,240
68,46,40
64,39,40
69,46,40
66,39,40
71,46,40
68,59,120
64,50,120
80,46,80
76,39,80
81,46,80
78,39,80
83,46,80
80,59,120
76,50,120
92,47,80
88,40,80
93,51,80
90,43,80
94,54,80
91,45,80
95,63,120
90,54,120
95,54,60
83,45,60
87,45,60
95,54,120
83,45,120
88,45,120
94,63,120
83,53,120
88,53,120
95,60,120
83,50,120
89,50,120
93,60,120
83,50,120
90,50,120
92,66,120
83,55,120
88,55,120
68,54,60
69,54,60
71,54,60
69,55,60
68,54,60
69,51,60
71,49,60
73,50,60
75,51,60
76,52,60
78,53,60
80,54,60
81,55,60
83,56,60
85,57,60
87,58,60
88,59,60
90,60,60
92,61,60
93,62,60
92,70,180
80,70,180
83,70,180
68,41,40
64,35,40
69,41,40
66,35,40
71,41,40
68,53,120
64,45,120
88,56,240
85,48,240
76,48,240
73,40,40
69,33,40
75,40,40
71,33,40
76,40,40
73,50,120
69,42,120
83,54,240
71,45,240
80,45,240
68,41,40
64,35,40
69,41,40
66,35,40
71,41,40
68,53,120
64,45,120
80,41,80
76,35,80
81,41,80
78,35,80
83,41,80
80,53,120
76,45,120
92,42,80
88,36,80
93,45,80
90,38,80
94,48,80
91,40,80
95,56,120
90,48,120
95,48,60
83,40,60
87,40,60
95,48,120
83,40,120
88,40,120
94,56,120
83,47,120
88,47,120
95,54,120
83,45,120
89,45,120
93,54,120
83,45,120
90,45,120
83,48,120
92,56,120
88,48,120
83,54,60
71,45,60
75,45,60
83,54,120
71,45,120
76,45,120
82,63,120
71,53,120
76,53,120
83,60,120
71,50,120
77,50,120
81,60,120
71,50,120
78,50,120
71,54,120
76,54,120
80,63,120
71,61,120
59,51,120
63,51,120
71,62,120
59,52,120
61,52,120
64,52,120
70,63,120
59,52,120
61,52,120
64,52,120
71,63,120
59,53,120
61,53,120
64,53,120
71,66,120
59,56,120
63,56,120
69,56,120
80,82,120
68,66,120
76,73,120
56,66,120
52,62,120
80,71,120
76,65,120
68,76,120
64,72,120
83,82,120
71,66,120
80,73,120
59,66,120
56,60,120
52,62,120
83,71,120
80,63,120
76,65,120
71,76,120
68,70,120
64,72,120
86,83,135
83,80,135
74,78,135
100,47,120
97,47,120
98,49,120
95,49,120
97,50,120
93,50,120
95,52,120
92,52,120
98,53,120
90,53,120
86,53,120
97,53,120
88,53,120
85,45,120
95,53,120
83,45,120
86,45,120
93,54,120
85,45,120
81,45,120
92,54,120
83,45,120
80,45,120
90,56,120
81,47,120
78,47,120
88,56,120
80,47,120
76,47,120
86,58,120
78,48,120
74,48,120
85,60,120
73,50,120
76,50,120
83,62,120
74,51,120
71,51,120
81,63,120
73,52,120
69,52,120
80,63,120
71,54,120
68,54,120
78,65,120
69,54,120
66,54,120
76,66,120
68,54,120
64,54,120
75,67,120
63,56,120
66,56,120
74,68,120
65,57,120
62,57,120
73,70,120
64,59,120
61,59,120
72,72,120
66,60,120
60,60,120
71,72,120
64,60,120
59,60,120
69,77,120
57,54,120
61,54,120
81,72,60
69,60,60
83,72,60
71,62,60
85,74,180
73,63,180
81,67,60
69,57,60
68,57,60
80,67,60
78,76,180
66,63,180
71,65,720
83,78,720
81,72,60
78,62,60
69,62,60
80,80,180
78,67,180
68,67,180
80,72,60
68,62,60
76,62,60
81,80,240
69,67,240
76,67,240
83,72,60
69,52,60
75,52,60
76,77,180
64,54,180
68,54,180
88,73,60
76,63,60
80,63,60
83,63,60
89,73,60
85,73,60
77,63,60
81,63,60
89,81,240
77,69,240
82,69,240
86,69,240
91,74,60
79,63,60
83,63,60
86,63,60
92,74,60
80,63,60
83,63,60
86,63,60
93,82,180
81,70,180
85,70,180
81,80,180
69,67,180
73,67,180
76,67,180
95,79,60
83,66,60
97,81,60
85,69,60
98,84,240
86,71,240
95,76,60
83,63,60
93,76,60
81,63,60
90,63,60
93,81,180
81,69,180
86,69,180
92,74,60
86,63,60
80,63,60
90,78,60
86,65,60
78,65,60
88,80,180
86,67,180
76,67,180
86,64,60
90,77,60
78,64,60
92,77,60
86,64,60
80,64,60
93,80,180
81,67,180
85,67,180
97,84,120
88,71,120
85,71,120
100,88,480
93,74,480
88,74,480
100,85,60
88,72,60
95,72,60
100,85,60
96,72,60
88,72,60
100,92,180
98,92,180
88,78,180
100,87,60
97,73,60
88,73,60
100,87,60
96,73,60
88,73,60
100,95,180
95,81,180
88,81,180
100,90,120
88,74,120
94,74,120
100,90,60
93,74,60
88,74,60
100,93,180
88,79,180
93,79,180
100,87,120
88,73,120
92,73,120
100,87,60
93,73,60
88,73,60
100,94,480
97,80,480
88,80,480
100,90,60
95,76,60
88,76,60
93,80,120
81,67,120
93,80,120
81,67,120
93,83,120
81,71,120
57,77,120
45,65,120
57,77,120
45,65,120
57,85,120
45,72,120
69,83,720
57,71,720
60,66,120
63,66,120
66,66,120
60,66,240
63,66,240
66,66,240
69,81,480
57,69,480
60,64,120
63,64,120
66,64,120
60,64,240
63,64,240
66,64,240
57,63,60
69,72,60
69,83,720
57,71,720
60,66,120
63,66,120
66,66,120
60,66,240
63,66,240
66,66,240
69,81,480
57,69,480
60,64,120
63,64,120
66,64,120
60,64,240
63,64,240
66,64,240
70,83,1440
58,71,1440
63,66,60
66,66,60
63,66,120
66,66,120
63,66,360
66,66,360
61,64,60
64,64,60
61,64,120
64,64,120
58,66,480
61,66,360
64,66,360
62,64,60
65,64,60
62,64,120
65,64,120
62,66,360
65,66,360
58,64,60
63,64,60
66,64,60
58,64,120
64,64,120
67,64,120
59,66,120
65,66,120
68,66,120
95,80,120
83,67,120
95,80,120
83,67,120
95,83,120
83,71,120
71,77,120
59,65,120
71,77,120
59,65,120
71,85,120
59,72,120
62,64,120
65,64,120
68,64,120
61,64,240
65,64,240
68,64,240
59,63,60
71,72,60
72,83,1440
60,71,1440
65,66,60
68,66,60
65,66,120
68,66,120
65,66,360
68,66,360
63,64,60
66,64,60
63,64,120
66,64,120
60,66,960
63,66,360
66,66,360
64,64,60
67,64,60
64,64,120
67,64,120
64,66,360
67,66,360
65,64,60
68,64,60
66,64,120
69,64,120
61,66,120
67,66,120
70,66,120
97,80,120
85,67,120
97,80,120
85,67,120
97,83,120
85,71,120
64,63,120
70,63,120
73,63,120
61,63,120
64,63,120
70,63,120
73,63,120
61,63,120
64,69,120
70,69,120
73,69,120
61,69,120
70,64,120
62,64,120
67,64,120
74,64,120
70,64,120
62,64,120
67,64,120
74,64,120
67,66,120
73,66,120
75,66,120
63,66,120
70,66,120
99,80,120
87,67,120
99,80,120
87,67,120
99,83,120
87,71,120
67,63,120
73,63,120
75,63,120
63,63,120
67,63,120
73,63,120
75,63,120
63,63,120
67,69,120
73,69,120
75,69,120
63,69,120
76,54,120
73,32,120
64,32,120
67,32,120
76,54,120
73,32,120
64,32,120
67,32,120
77,61,120
70,36,120
65,36,120
73,36,120
101,53,120
89,31,120
101,53,120
89,31,120
101,62,120
89,36,120
89,50,120
77,29,120
89,50,120
77,29,120
89,59,120
77,35,120
65,56,480
53,53,120
52,54,120
51,55,120
50,57,120
49,58,120
48,60,120
47,62,120
46,63,120
45,64,120
93,53,120
81,31,120
93,53,120
81,31,120
93,62,120
81,36,120
81,50,120
69,29,120
81,50,120
69,29,120
81,59,120
69,35,120
69,56,480
57,53,120
56,54,120
55,55,120
54,57,120
53,58,120
52,60,120
51,62,120
50,63,120
49,64,120
97,53,120
85,31,120
97,53,120
85,31,120
97,62,120
85,36,120
85,50,120
73,29,120
85,50,120
73,29,120
73,56,480
61,53,120
60,54,120
59,55,120
58,57,120
57,58,120
56,60,120
53,62,120
50,63,120
49,64,120
85,53,120
73,31,120
85,53,120
73,31,120
85,62,120
73,36,120
73,50,120
61,29,120
73,50,120
61,29,120
49,36,120
48,33,120
47,32,120
46,31,120
45,30,102
44,30,102
43,29,102
42,29,102
41,28,102
40,27,102
39,27,108
84,36,120
78,36,120
90,36,120
89,38,120
88,39,120
87,39,120
86,40,120
85,40,120
84,41,120
83,41,120
82,42,120
81,42,120
80,43,120
79,43,120
78,44,120
77,46,120
76,47,120
75,49,120
74,50,120
73,51,120
72,53,120
71,54,120
70,55,120
69,56,120
68,57,120
66,59,120
61,58,120
65,58,120
73,69,120
97,64,120
89,54,120
85,54,120
97,64,120
89,54,120
85,54,120
97,70,120
89,59,120
85,59,120
85,65,120
77,55,120
73,55,120
85,65,120
77,55,120
73,55,120
73,58,120
77,58,120
85,69,120
73,64,120
65,54,120
61,54,120
73,64,120
65,54,120
61,54,120
73,70,120
65,59,120
61,59,120
61,65,120
53,55,120
49,55,120
61,65,120
53,55,120
49,55,120
84,36,120
78,36,120
90,36,120
89,38,120
88,39,120
87,39,120
86,40,120
85,40,120
84,41,120
83,41,120
82,42,120
81,42,120
80,43,120
79,43,120
78,44,102
77,46,102
76,47,102
75,49,102
74,50,102
73,51,102
72,51,108
69,62,120
71,72,120
66,49,120
65,45,120
64,45,120
63,45,120
60,45,120
59,45,120
86,36,120
80,36,120
92,36,120
91,38,120
90,39,120
89,39,120
88,40,120
87,40,120
86,41,120
85,41,120
84,42,120
83,42,120
82,43,120
81,43,120
80,44,102
79,46,102
78,47,102
77,49,102
76,50,102
75,51,102
74,51,108
71,61,120
73,74,120
68,49,120
67,50,120
66,52,120
65,54,120
62,56,120
61,58,120
69,67,120
72,69,120
75,70,120
81,78,120
93,84,120
81,71,120
91,86,120
79,73,120
89,88,120
77,74,120
87,90,120
75,75,120
85,91,120
73,77,120
83,93,120
71,79,120
81,95,120
69,80,120
79,96,120
67,81,120
77,99,120
65,83,120
75,101,80
63,85,80
73,102,80
61,85,80
72,102,120
60,86,120
63,86,120
73,104,120
61,88,120
65,88,120
97,79,120
89,67,120
85,67,120
97,79,120
89,67,120
85,67,120
97,85,120
89,72,120
85,72,120
85,80,120
77,68,120
73,68,120
85,80,120
77,68,120
73,68,120
73,71,120
77,71,120
85,84,120
73,79,120
65,67,120
61,67,120
73,79,120
65,67,120
61,67,120
73,85,120
65,72,120
61,72,120
61,80,120
53,68,120
49,68,120
61,80,120
53,68,120
49,68,120
69,75,120
72,77,120
75,78,120
81,87,120
93,84,120
81,71,120
91,86,120
79,73,120
89,88,120
77,74,120
87,90,120
75,75,120
85,91,120
73,77,120
83,93,120
71,79,120
81,95,120
69,80,120
79,96,120
67,81,120
77,99,120
65,83,120
75,101,80
63,85,80
73,102,80
61,85,80
72,102,120
60,86,120
63,86,120
73,104,120
61,88,120
65,88,120
97,79,120
89,67,120
85,67,120
97,79,120
89,67,120
85,67,120
97,85,120
89,72,120
85,72,120
85,80,120
77,68,120
73,68,120
85,80,120
77,68,120
73,68,120
73,71,120
77,71,120
85,84,120
73,79,120
65,67,120
61,67,120
73,79,120
65,67,120
61,67,120
73,85,120
65,72,120
61,72,120
61,80,120
53,68,120
49,68,120
61,80,120
53,68,120
49,68,120
66,64,101
54,54,101
68,66,101
56,56,101
70,68,101
58,57,101
72,70,101
60,59,100
74,73,101
62,62,101
76,75,101
64,63,101
78,84,101
66,71,101
70,71,101
73,71,101
76,76,101
64,64,101
74,73,101
62,62,101
72,71,101
60,60,101
70,69,101
58,58,101
68,67,101
56,56,101
66,65,120
54,55,120
62,54,120
59,54,120
67,64,120
55,54,120
69,66,120
57,56,120
71,68,120
59,57,120
73,70,120
61,59,120
75,73,120
63,62,120
77,75,120
65,63,120
67,63,120
79,76,120
80,84,120
68,71,120
72,71,120
75,71,120
78,76,120
66,64,120
76,73,120
64,62,120
74,71,120
62,60,120
72,69,120
60,58,120
70,67,120
58,56,120
68,65,120
56,55,120
66,54,120
61,54,120
69,64,120
57,54,120
71,66,120
59,56,120
73,68,120
61,57,120
75,70,120
63,59,120
77,73,120
65,62,120
79,75,120
67,63,120
69,63,120
81,76,120
82,84,120
70,71,120
79,71,119
76,71,119
80,76,120
68,64,120
78,73,120
66,62,120
76,71,120
64,60,120
74,69,120
62,58,120
72,67,120
60,56,120
70,65,120
58,55,120
59,43,80
67,43,80
71,57,80
60,46,80
61,46,80
62,46,80
63,46,80
64,47,80
65,47,80
66,47,80
67,47,80
68,47,80
69,48,80
70,48,80
71,48,80
72,48,80
73,48,80
74,49,80
75,49,80
76,49,80
77,49,80
78,49,80
79,50,80
80,51,80
81,52,80
82,53,80
83,54,80
84,55,80
85,56,80
86,57,80
87,57,80
88,58,80
89,59,80
90,60,80
91,61,80
92,62,60
93,62,60
94,63,60
95,64,60
96,97,96
93,64,96
95,64,96
92,54,96
94,63,96
91,53,96
93,62,96
90,52,96
92,61,96
89,51,96
91,60,96
88,51,96
90,59,96
87,50,96
89,58,96
86,49,96
88,57,96
85,48,96
87,56,96
84,47,96
86,55,96
83,46,96
85,55,96
82,46,96
84,54,96
81,45,96
83,53,96
80,45,96
82,52,96
79,44,96
81,52,80
78,44,80
80,52,80
77,44,80
79,51,80
76,43,80
78,51,80
75,43,80
77,50,80
74,42,80
76,50,80
73,42,80
75,49,80
72,41,80
74,49,80
71,41,80
73,48,80
70,40,80
72,48,80
69,40,80
71,47,80
68,39,80
70,47,80
67,39,80
69,46,80
66,39,80
68,46,80
65,39,80
67,45,80
64,38,80
66,45,80
63,38,80
65,44,80
62,37,80
64,44,80
61,37,80
63,57,103
60,48,103
64,46,102
61,39,102
65,46,103
62,39,102
63,39,103
66,46,103
64,39,102
67,46,102
68,47,103
65,39,103
69,47,102
66,39,102
70,47,103
67,39,103
68,39,102
71,47,103
69,40,102
72,48,102
73,48,103
70,40,103
74,48,102
71,40,102
75,48,103
72,40,103
76,48,109
73,40,103
77,49,72
74,41,72
78,49,72
75,41,72
79,50,72
76,42,72
80,51,72
77,43,72
81,52,72
78,44,72
82,53,72
79,45,72
83,54,72
80,45,72
84,55,72
81,46,72
85,56,72
82,47,72
86,57,72
83,48,72
87,57,72
84,48,72
88,58,72
85,49,72
89,59,72
86,50,72
90,60,72
87,51,72
91,61,72
88,51,72
92,62,72
89,52,72
93,63,72
90,53,72
94,65,72
91,55,72
95,66,72
92,56,72
96,71,72
93,60,72
97,97,103
94,64,103
96,64,102
93,54,102
95,63,102
92,53,102
94,62,103
91,52,103
93,61,103
90,51,103
92,60,102
89,51,102
91,59,102
88,50,102
90,58,103
87,49,103
89,57,103
86,48,103
88,56,102
85,47,102
87,55,103
84,46,103
86,55,103
83,46,103
85,54,102
82,45,102
81,45,105
84,53,105
85,70,103
82,59,103
81,51,102
84,60,102
80,50,102
83,59,102
79,50,103
82,59,103
81,58,103
78,49,103
80,57,102
77,48,102
79,56,102
76,47,102
78,56,102
75,47,103
77,55,103
74,46,103
76,54,102
73,45,102
72,45,103
75,53,103
74,52,103
71,44,103
70,44,102
73,52,102
72,51,105
69,43,105
73,61,103
70,51,103
69,46,102
72,55,102
68,45,102
71,54,102
67,45,103
70,53,103
69,53,103
66,45,102
68,52,102
65,44,102
67,51,102
64,43,102
66,50,102
63,42,103
65,49,103
62,41,103
64,48,102
61,40,102
60,39,103
63,47,103
62,46,103
59,39,103
58,38,102
61,45,102
60,45,105
57,38,105
61,71,240
58,71,120
57,53,120
61,53,240
58,53,120
57,53,120
61,53,240
58,53,120
57,53,120
61,53,240
58,53,120
57,53,120
61,53,240
58,53,120
57,53,120
61,53,240
58,53,120
57,53,120
61,71,240
58,71,120
57,53,120
61,53,240
58,53,120
57,53,120
61,53,240
58,53,120
57,53,120
63,70,240
58,53,120
57,53,120
63,53,240
58,53,120
57,53,120
63,53,240
58,53,120
60,53,120
65,77,240
53,77,240
57,77,240
52,75,240
64,75,240
53,70,240
65,70,240
64,84,240
76,84,240
65,80,240
77,80,240
88,99,240
76,99,240
77,97,240
89,97,240
76,82,240
64,82,240
65,79,240
77,79,240
52,76,240
64,76,240
53,74,240
65,74,240
53,76,240
97,82,120
94,69,120
96,64,120
93,54,120
95,64,120
92,54,120
94,63,120
91,53,120
93,62,120
90,52,120
92,62,120
89,52,120
91,61,120
88,52,120
90,60,120
87,51,120
89,60,120
86,51,120
88,59,120
85,51,120
87,59,120
84,50,120
86,59,120
83,50,120
85,58,120
82,49,120
84,57,120
81,48,120
83,57,120
80,48,120
82,57,120
79,47,120
81,56,120
78,47,120
80,56,120
77,47,120
73,46,120
79,55,120
76,46,120
75,54,120
72,45,120
74,54,120
70,45,120
72,53,120
69,44,120
71,52,120
68,43,120
70,52,70
67,43,70
65,77,260
72,81,250
81,94,240
64,75,240
76,75,240
65,71,240
77,71,240
76,88,240
88,88,240
77,83,240
89,83,240
100,101,240
88,101,240
89,98,240
101,98,240
88,82,240
76,82,240
77,79,240
89,79,240
64,76,240
76,76,240
65,74,240
77,74,240
53,76,240
97,82,120
94,69,120
96,64,120
93,54,120
95,64,120
92,54,120
94,63,120
91,53,120
93,62,120
90,52,120
92,62,120
89,52,120
91,61,120
88,52,120
90,60,120
87,51,120
89,60,120
86,51,120
88,59,120
85,51,120
87,59,120
84,50,120
86,59,120
83,50,120
85,58,120
82,49,120
84,57,120
81,48,120
83,57,120
80,48,120
82,57,120
79,47,120
81,56,120
78,47,120
80,56,120
77,47,120
73,46,120
79,55,120
76,46,120
75,54,120
72,45,120
74,54,120
70,45,120
72,53,120
69,44,120
71,52,120
68,43,120
70,52,70
67,43,70
65,77,260
72,81,250
81,94,240
64,75,240
76,75,240
65,71,240
77,71,240
76,88,240
88,88,240
77,83,240
89,83,240
100,102,240
88,102,240
89,98,480
101,98,480
53,58,73
54,59,73
55,59,73
56,60,73
57,61,73
58,61,73
59,62,73
60,63,73
61,64,73
62,64,73
63,65,73
64,66,73
65,66,82
66,99,1920
57,99,1920
61,99,1920
52,96,1920
53,40,240
54,33,240
53,40,240
54,33,240
53,40,240
58,34,240
57,34,240
54,34,240
53,40,240
54,36,240
53,40,240
54,36,240
53,40,240
58,35,240
57,35,240
54,35,240
53,40,240
54,35,240
53,40,240
54,35,240
53,40,240
58,34,240
57,34,240
54,34,240
53,40,240
54,36,240
53,40,240
54,36,240
53,40,240
58,35,240
57,35,240
54,35,240
53,40,240
54,36,240
53,40,240
54,36,240
53,43,240
61,45,240
58,42,240
54,42,240
53,45,240
54,37,240
53,44,240
54,38,240
53,42,240
61,47,240
58,43,240
54,43,240
53,43,240
54,45,240
57,47,240
58,49,240
60,53,240
61,55,240
64,57,240
65,59,230
65,61,240
64,61,240
61,59,240
60,58,240
58,56,240
57,54,240
65,67,480
63,53,480
54,53,240
53,52,240
61,53,960
65,64,1440
53,43,240
54,45,240
57,47,240
58,49,240
60,53,240
61,55,240
64,57,240
65,67,230
65,68,960
64,61,240
61,59,240
60,58,240
63,62,960
65,68,960
58,56,240
57,54,240
54,53,240
53,52,240
61,53,960
65,64,1440
53,43,240
54,45,240
57,47,240
58,49,240
60,53,240
61,55,240
64,57,240
65,67,240
65,68,960
64,61,240
61,59,240
60,58,240
53,62,960
65,68,960
59,56,960
56,54,240
55,54,240
54,54,240
53,65,960
65,72,960
59,59,960
56,58,240
55,57,240
54,57,240
53,70,960
65,76,960
60,63,960
56,61,240
55,61,240
54,60,240
53,73,960
65,80,1440
62,66,1440
56,65,240
55,64,240
54,64,240
53,78,240
56,78,240
62,77,480
64,87,480
52,79,240
56,80,240
57,40,240
58,33,240
57,40,240
58,33,240
57,40,240
62,34,240
61,34,240
58,34,240
57,40,240
58,36,240
57,40,240
58,36,240
57,40,240
62,35,240
61,35,240
58,35,240
57,40,240
58,35,240
57,40,240
58,35,240
57,40,240
62,34,240
61,34,240
58,34,240
57,40,240
58,36,240
57,40,240
58,36,240
57,40,240
62,35,240
61,35,240
58,35,240
57,40,240
58,36,240
57,40,240
58,36,240
57,43,240
65,45,240
62,42,240
58,42,240
57,45,240
58,37,240
57,44,240
58,38,240
57,42,240
65,47,240
62,43,240
58,43,240
57,43,240
58,45,240
61,47,240
62,49,240
64,53,240
65,55,240
68,57,240
69,59,240
69,61,240
68,61,240
65,59,240
64,58,240
62,56,240
61,54,240
69,67,480
67,53,480
58,53,240
57,52,240
65,53,960
69,64,1440
57,43,240
58,45,240
61,47,240
62,49,240
64,53,240
65,55,240
68,57,240
69,67,220
69,68,960
68,61,240
65,59,240
64,58,240
67,62,960
69,68,960
62,56,240
61,54,240
58,53,240
57,52,220
65,53,960
69,64,960
57,43,240
58,45,240
61,47,240
62,49,240
64,53,240
65,55,240
68,57,240
69,67,220
69,68,960
68,61,240
65,59,240
64,58,240
57,62,960
69,68,960
63,56,960
60,54,240
59,54,240
58,54,240
57,65,960
69,72,960
63,59,960
60,58,240
59,57,240
58,57,240
57,70,960
69,76,960
64,63,960
60,61,240
59,61,240
58,60,240
57,73,960
69,80,1440
66,66,1440
60,65,240
59,64,240
58,64,240
58,78,240
60,78,240
66,65,480
68,77,480
56,70,240
60,77,240
53,77,480
61,77,480
73,64,480
61,54,480
65,54,480
73,58,120
61,49,120
65,49,120
73,58,120
61,49,120
65,49,120
78,64,120
66,54,120
69,54,120
78,58,120
66,49,120
69,49,120
78,63,480
66,54,480
69,54,480
81,58,120
69,49,120
73,49,120
78,58,120
66,49,120
69,49,120
77,63,120
65,54,120
68,54,120
73,58,120
61,49,120
65,49,120
85,70,480
73,59,480
77,59,480
85,63,120
73,53,120
77,53,120
85,63,120
73,53,120
77,53,120
90,70,120
78,59,120
81,59,120
90,63,120
78,53,120
81,53,120
90,69,480
78,59,480
81,59,480
93,63,120
81,53,120
85,53,120
90,63,120
78,53,120
81,53,120
89,69,120
77,59,120
81,59,120
77,64,480
65,54,480
69,54,480
77,58,120
65,49,120
69,49,120
77,58,120
65,49,120
69,49,120
82,64,120
70,54,120
73,54,120
82,68,60
70,53,60
73,55,60
70,51,60
73,51,60
82,68,60
82,63,480
70,54,480
73,54,480
85,58,120
73,49,120
77,49,120
82,58,120
70,49,120
73,49,120
81,63,120
69,54,120
72,54,120
77,58,120
65,49,120
69,49,120
89,70,480
77,59,480
81,59,480
89,63,120
77,53,120
81,53,120
89,63,120
77,53,120
81,53,120
94,70,120
82,59,120
85,59,120
94,70,60
82,58,60
85,59,60
82,56,60
85,57,60
94,70,60
94,69,480
82,59,480
85,59,480
97,63,120
85,53,120
89,53,120
94,63,120
82,53,120
85,53,120
93,74,480
81,62,480
84,62,480
96,79,480
93,67,480
89,67,480
84,67,480
97,81,480
94,68,480
89,68,480
85,68,480
94,79,480
82,67,480
85,67,480
89,67,480
93,80,480
81,68,480
84,68,480
89,68,480
96,79,480
93,67,480
89,67,480
84,67,480
97,84,480
94,71,480
89,71,480
85,71,480
94,79,480
89,67,480
85,67,480
82,67,480
89,62,480
93,74,480
81,62,480
84,62,480
101,79,480
96,67,480
93,67,480
89,67,480
101,81,420
97,68,420
94,68,420
89,68,420
85,75,480
94,78,450
101,82,420
84,77,540
93,81,510
101,84,480
101,79,480
96,67,480
93,67,480
89,67,480
101,84,420
97,71,420
94,71,420
89,71,420
85,81,480
94,84,450
101,87,420
84,80,540
93,83,510
101,85,480
65,68,240
57,57,240
63,67,240
54,56,240
61,65,240
53,55,240
67,68,240
59,57,240
65,67,240
56,56,240
63,65,240
55,55,240
63,70,240
58,56,240
65,72,240
60,57,240
67,74,240
62,59,240
69,76,240
63,60,240
72,81,240
67,64,240
70,76,240
65,60,240
69,74,240
63,59,240
67,72,240
62,57,240
65,70,240
60,56,240
63,68,240
58,54,240
62,66,240
57,52,240
60,64,240
55,51,240
58,50,240
63,72,240
60,52,240
65,65,240
62,53,240
67,67,240
63,55,240
69,69,240
70,70,240
65,56,240
72,72,240
67,57,240
74,74,240
69,59,240
75,76,240
70,60,240
79,81,240
74,64,240
77,76,240
72,60,240
75,74,240
70,59,240
74,72,240
69,57,240
72,64,240
84,81,240
75,64,240
74,60,240
82,76,240
70,60,240
69,59,240
81,74,240
72,59,240
67,57,240
79,72,240
70,57,240
75,64,240
87,81,240
79,64,240
77,60,240
86,76,240
74,60,240
72,59,240
84,74,240
75,59,240
70,57,240
82,72,240
74,57,240
79,64,240
91,81,240
82,64,240
81,60,240
89,76,240
77,60,240
75,59,240
87,74,240
79,59,240
74,57,240
86,72,240
77,57,240
84,64,240
96,81,240
87,64,240
86,60,240
94,76,240
82,60,240
81,59,240
93,74,240
84,59,240
79,57,240
91,72,240
82,57,240
99,75,60
91,63,60
87,63,60
98,75,60
86,63,60
89,63,60
96,75,60
87,63,60
84,63,60
94,75,60
86,63,60
82,63,60
93,74,60
81,62,60
84,62,60
91,74,60
79,62,60
82,62,60
89,74,60
77,62,60
81,62,60
87,74,60
75,62,60
79,62,60
86,74,60
77,62,60
74,62,60
84,73,60
72,62,60
75,62,60
82,73,60
70,62,60
74,62,60
81,73,60
69,62,60
72,62,60
79,76,60
67,64,60
70,64,60
77,67,60
65,56,60
69,56,60
76,77,60
64,65,60
68,65,60
77,70,60
65,59,60
69,59,60
76,77,60
64,56,60
68,56,60
77,67,60
65,56,60
69,56,60
78,68,60
66,57,60
70,57,60
79,69,60
67,58,60
71,58,60
80,69,60
68,58,60
72,58,60
81,70,60
69,59,60
73,59,60
82,71,60
70,60,60
74,60,60
83,71,60
71,60,60
75,60,60
72,60,60
76,60,60
84,72,60
85,72,60
73,61,60
77,61,60
86,72,60
74,61,60
78,61,60
87,73,60
75,62,60
79,62,60
88,74,60
76,62,60
80,62,60
89,74,60
77,62,60
81,62,60
90,75,60
78,63,60
82,63,60
91,76,60
79,64,60
83,64,60
92,76,60
80,64,60
84,64,60
93,77,60
81,65,60
85,65,60
94,78,60
82,66,60
86,66,60
95,78,60
83,66,60
87,66,60
96,79,60
84,67,60
88,67,60
97,80,60
85,68,60
89,68,60
98,80,60
86,68,60
90,68,60
99,92,120
87,68,120
91,75,120
75,85,960
87,85,960
67,76,780
79,76,780
65,37,480
72,49,180
75,56,120
81,72,60
82,35,60
74,28,60
77,28,60
81,36,60
72,28,60
75,28,60
82,36,60
74,28,60
77,28,60
81,37,60
72,29,60
75,29,60
82,38,60
74,30,60
77,30,60
81,38,60
72,30,60
75,30,60
82,39,60
74,31,60
77,31,60
81,39,60
72,31,60
75,31,60
82,40,60
74,32,60
77,32,60
81,40,60
72,32,60
75,32,60
82,41,60
74,32,60
77,32,60
81,41,60
72,32,60
75,32,60
82,42,60
74,33,60
77,33,60
81,42,60
72,33,60
75,33,60
82,43,60
74,34,60
77,34,60
81,45,60
72,36,60
75,36,60
82,45,60
74,36,60
77,36,60
81,46,60
72,36,60
75,36,60
82,47,60
74,37,60
77,37,60
81,47,60
72,37,60
75,37,60
82,48,60
74,38,60
77,38,60
81,49,60
72,39,60
75,39,60
82,49,60
74,39,60
77,39,60
81,50,60
72,40,60
75,40,60
82,51,60
74,40,60
77,40,60
81,51,60
72,40,60
75,40,60
82,52,60
74,41,60
77,41,60
81,52,60
72,41,60
75,41,60
82,53,60
74,42,60
77,42,60
81,54,60
72,43,60
75,43,60
82,54,60
74,43,60
77,43,60
81,55,60
75,44,60
72,44,60
82,56,60
77,44,60
74,44,60
81,56,60
72,44,60
75,44,60
82,57,60
77,45,60
74,45,60
81,58,60
72,46,60
75,46,60
82,58,60
74,46,60
77,46,60
81,59,60
72,47,60
75,47,60
82,60,60
77,48,60
74,48,60
81,61,60
75,48,60
72,48,60
82,60,60
74,48,60
77,48,60
81,59,60
72,47,60
75,47,60
82,58,60
77,46,60
74,46,60
81,57,60
72,45,60
75,45,60
82,56,60
77,44,60
74,44,60
81,55,60
72,44,60
75,44,60
82,54,60
77,43,60
74,43,60
81,53,60
75,42,60
72,42,60
82,51,60
77,40,60
74,40,60
81,50,60
72,40,60
75,40,60
82,49,60
74,39,60
77,39,60
81,48,60
72,38,60
75,38,60
82,47,60
74,37,60
77,37,60
81,45,60
72,36,60
75,36,60
82,44,60
74,35,60
77,35,60
81,43,60
75,34,60
72,34,60
82,42,60
74,33,60
77,33,60
81,41,60
72,32,60
75,32,60
82,40,60
74,32,60
77,32,60
81,39,60
75,31,60
72,31,60
82,38,60
74,30,60
77,30,60
81,37,60
72,29,60
75,29,60
82,36,60
74,28,60
77,28,60
81,40,240
75,32,240
72,32,240
82,42,240
74,33,240
77,33,240
81,35,240
75,28,240
72,28,240
80,40,240
74,32,240
71,32,240
81,35,240
72,28,240
75,28,240
82,76,480
70,56,120
77,44,120
74,38,120
82,66,120
70,53,120
82,68,120
77,48,120
74,41,120
86,76,120
74,53,120
82,60,120
77,48,120
82,60,480
70,53,120
74,36,120
77,48,120
77,73,480
65,53,120
70,38,120
74,44,120
77,63,120
65,53,120
77,64,120
74,48,120
70,41,120
82,72,120
70,53,120
77,60,120
74,48,120
77,60,480
65,53,120
70,36,120
74,48,120
74,77,480
62,56,120
65,39,120
70,46,120
74,62,120
62,61,120
75,62,120
63,55,120
79,69,480
67,51,120
70,34,120
74,46,120
77,57,480
65,51,120
70,34,120
74,46,120
77,75,480
65,53,120
69,39,120
72,46,120
79,57,120
67,56,120
81,57,120
69,50,120
82,69,480
70,51,120
74,34,120
77,46,120
70,51,120
74,34,120
77,46,120
82,78,480
70,53,120
77,44,120
74,38,120
82,64,120
70,53,120
82,64,120
77,48,120
74,41,120
86,78,120
74,53,120
82,62,120
77,48,120
82,62,480
70,53,120
74,36,120
77,48,120
77,77,480
65,53,120
70,38,120
74,44,120
77,63,120
65,53,120
77,63,120
74,48,120
70,41,120
82,75,120
70,53,120
77,62,120
74,48,120
77,62,480
65,53,120
70,36,120
74,48,120
74,77,480
62,56,120
70,44,120
65,39,120
74,62,120
62,61,120
75,62,120
63,55,120
79,69,480
67,51,120
70,34,120
74,46,120
77,57,480
65,51,120
70,34,120
74,46,120
77,77,480
65,56,120
69,39,120
72,46,120
79,57,120
67,56,120
81,57,120
69,50,120
82,69,480
70,51,120
74,34,120
77,46,120
70,51,120
74,34,120
77,46,120
82,78,480
70,53,120
77,44,120
74,38,120
84,61,120
72,53,120
86,61,120
74,48,120
84,71,480
72,49,120
77,38,120
81,44,120
81,57,480
69,49,120
77,44,120
72,33,120
79,76,480
67,53,120
76,44,120
72,38,120
81,60,120
69,53,120
82,60,120
70,48,120
81,67,480
69,49,120
72,38,120
77,44,120
77,57,480
65,49,120
72,44,120
69,33,120
84,74,480
72,52,120
81,44,120
77,38,120
84,61,120
72,53,120
77,44,120
84,61,120
81,48,120
83,69,480
71,53,120
74,41,120
77,48,120
82,62,480
70,53,120
76,48,120
72,36,120
81,58,480
69,45,120
72,34,120
77,40,120
80,52,480
68,45,120
77,40,120
72,29,120
79,58,960
67,45,120
72,34,120
76,40,120
67,45,120
76,40,120
72,29,120
79,78,480
67,53,120
76,44,120
72,38,120
79,70,120
67,53,120
76,44,120
79,70,120
72,41,120
79,71,480
67,49,120
74,38,120
77,44,120
79,63,480
67,49,120
77,44,120
74,33,120
79,71,96
67,49,120
81,58,96
79,58,96
74,44,120
78,59,96
79,59,96
81,64,120
69,49,120
83,64,120
71,44,120
84,71,480
72,49,120
76,38,120
79,44,120
79,63,480
67,49,120
76,44,120
72,33,120
79,71,96
67,49,120
81,58,96
79,58,96
74,44,120
78,59,96
79,59,96
81,64,120
69,49,120
83,64,120
71,44,120
84,71,480
72,49,120
76,38,120
79,44,120
79,63,480
67,49,120
76,44,120
72,33,120
79,71,96
67,49,120
81,58,96
79,58,96
74,44,120
78,59,96
79,59,96
81,64,120
69,49,120
83,64,120
71,44,120
84,71,960
72,38,960
76,65,120
79,65,120
76,72,120
79,72,120
76,78,120
79,78,120
84,83,480
72,70,120
79,74,120
76,62,120
84,76,120
72,64,120
84,76,120
72,64,120
81,84,360
69,70,360
72,70,360
79,81,120
67,69,120
70,69,120
77,84,480
65,70,480
69,70,480
84,83,480
72,70,120
79,74,120
76,62,120
84,76,120
72,64,120
84,76,120
72,64,120
81,84,120
69,70,120
72,70,120
65,69,120
69,69,120
77,81,120
88,84,60
89,84,120
77,70,120
81,70,480
84,83,480
72,70,480
77,64,120
81,76,120
69,64,120
82,64,120
86,76,120
74,64,120
84,84,120
72,70,120
81,70,120
69,69,120
77,69,120
81,81,120
88,84,60
89,84,120
77,70,120
81,70,480
84,83,480
72,70,480
77,64,120
81,76,120
69,64,120
82,64,120
86,76,120
74,64,120
84,84,120
72,70,120
81,70,120
69,69,120
77,69,120
81,81,120
100,88,60
101,88,120
89,74,120
81,70,480
84,83,480
72,70,480
77,64,120
81,76,120
69,64,120
82,64,120
86,76,120
74,64,120
84,84,120
72,70,120
81,70,120
69,69,120
77,69,120
81,81,120
100,88,60
101,88,120
89,74,120
81,70,480
84,83,480
72,70,480
77,64,120
81,76,120
69,64,120
82,64,120
86,76,120
74,64,120
84,84,120
72,70,120
81,70,120
84,61,960
72,49,120
77,40,120
81,44,120
72,53,120
77,41,120
81,48,120
71,53,120
83,68,480
77,48,120
74,36,120
70,45,120
82,63,480
72,34,120
79,40,120
69,45,120
81,57,480
77,40,120
72,29,120
79,61,120
67,51,120
81,58,120
69,49,120
82,58,120
70,49,120
84,58,120
72,49,120
81,64,480
69,56,120
72,41,120
77,48,120
84,61,960
72,49,120
77,40,120
81,44,120
72,53,120
77,41,120
80,48,120
71,53,120
83,68,480
77,48,120
74,36,120
70,45,120
82,63,480
73,34,120
76,40,120
69,45,120
81,57,480
77,40,120
72,29,120
79,61,120
67,51,120
81,58,120
69,49,120
82,58,120
70,49,120
84,58,120
72,49,120
81,64,480
69,56,120
72,41,120
77,48,120
84,61,960
72,49,120
77,40,120
81,44,120
72,53,120
74,41,120
78,48,120
71,53,120
83,68,480
79,48,120
74,36,120
70,45,120
82,63,480
72,34,120
76,40,120
69,45,120
81,57,480
77,40,120
72,29,120
79,61,120
67,51,120
81,58,120
69,49,120
82,58,120
70,49,120
84,58,120
72,49,120
65,51,480
77,61,480
65,68,480
53,49,120
60,44,120
57,38,120
65,55,120
65,55,120
60,44,120
57,38,120
70,68,480
58,49,120
61,38,120
65,44,120
70,55,480
58,49,120
61,33,120
65,44,120
70,67,480
58,49,120
65,38,120
61,44,120
73,55,120
61,49,120
70,55,120
58,44,120
69,63,480
57,49,120
65,44,120
60,38,120
53,49,120
65,55,480
57,33,120
60,44,120
65,68,480
53,49,120
60,44,120
57,38,120
65,55,120
65,55,120
60,44,120
57,38,120
70,68,480
58,49,120
61,38,120
65,44,120
70,55,480
58,49,120
61,33,120
65,44,120
70,67,480
58,49,120
65,38,120
61,44,120
73,55,120
61,49,120
70,55,120
58,44,120
69,63,960
57,49,120
64,44,120
61,38,120
57,49,120
61,33,120
64,44,120
69,68,480
57,49,120
64,44,120
61,38,120
69,55,120
69,55,120
64,44,120
61,38,120
74,68,480
62,49,120
65,38,120
69,44,120
74,55,480
62,49,120
65,33,120
69,44,120
74,67,480
62,49,120
69,38,120
65,44,120
77,55,120
65,49,120
74,55,120
62,44,120
73,63,960
61,49,120
68,44,120
65,38,120
61,49,120
65,33,120
68,44,120
73,70,480
61,49,120
68,44,120
65,38,120
73,57,120
73,57,120
68,44,120
65,38,120
78,70,480
66,49,120
69,38,120
73,44,120
78,57,480
66,49,120
69,33,120
73,44,120
78,69,480
66,49,120
73,38,120
69,44,120
81,57,120
69,49,120
78,57,120
66,44,120
77,65,480
65,49,120
72,44,120
69,38,120
77,57,480
65,49,120
69,33,120
72,44,120
82,75,480
70,53,120
77,40,120
73,48,120
85,61,120
73,53,120
82,61,120
70,48,120
81,71,480
69,53,120
76,48,120
73,40,120
81,69,480
69,53,120
73,35,120
76,48,120
86,86,480
74,62,120
81,44,120
77,52,120
89,69,120
77,59,120
86,69,120
74,52,120
85,79,480
73,59,120
80,52,120
77,44,120
85,77,480
73,59,120
77,39,120
80,52,120
90,86,480
78,62,120
85,44,120
81,52,120
93,69,120
81,59,120
90,69,120
78,52,120
89,79,480
77,59,120
85,52,120
80,44,120
85,77,480
73,59,120
77,39,120
80,52,120
90,86,480
78,62,120
85,44,120
81,52,120
93,69,120
81,59,120
90,69,120
78,52,120
89,79,480
77,59,240
85,52,240
80,44,240
92,77,480
80,59,240
85,39,240
89,52,240
93,79,480
81,59,240
87,52,240
84,44,240
90,77,480
78,59,240
81,39,240
84,52,240
89,80,480
77,60,240
85,52,240
80,44,240
92,79,480
80,60,240
85,40,240
89,54,240
95,81,480
83,62,240
89,54,240
86,46,240
92,80,480
80,62,240
83,40,240
89,55,240
91,82,480
79,62,240
87,55,240
82,47,240
94,81,480
82,63,240
87,41,240
91,56,240
95,83,480
83,63,240
89,56,240
86,47,240
92,82,480
80,64,240
83,41,240
89,56,240
91,86,480
79,64,240
87,57,240
82,48,240
94,83,480
82,65,240
87,42,240
91,57,240
97,86,480
85,65,240
91,58,240
88,49,240
94,85,480
82,65,240
85,43,240
91,58,240
93,88,480
81,66,240
89,58,240
84,49,240
96,86,480
84,66,240
89,43,240
93,58,240
97,89,480
85,67,240
91,59,240
88,50,240
94,88,480
82,67,240
85,44,240
91,59,240
93,90,480
81,67,240
89,60,240
84,51,240
96,88,480
84,69,240
89,44,240
93,60,240
97,92,480
85,69,240
91,60,240
88,51,240
94,90,480
82,70,240
85,46,240
91,62,240
93,94,480
81,70,240
89,62,240
84,52,240
96,92,480
84,71,240
89,46,240
93,63,240
99,101,960
87,101,960
67,76,960
79,83,960
69,83,60
82,55,60
69,63,60
82,46,60
69,64,60
82,46,60
69,61,60
82,46,60
69,59,60
82,45,60
69,58,60
82,48,60
69,59,60
82,46,60
69,64,60
82,50,60
69,65,60
82,52,60
69,65,60
82,52,60
69,65,60
82,51,60
69,73,120
79,74,60
67,74,60
81,74,60
69,74,60
82,88,480
70,63,120
77,57,120
74,49,120
82,71,120
70,63,120
82,71,120
77,57,120
74,49,120
86,88,120
74,63,120
82,71,120
77,57,120
82,71,480
70,63,120
74,42,120
77,57,120
77,87,480
65,63,120
70,49,120
74,57,120
77,71,120
65,63,120
77,71,120
74,57,120
70,49,120
82,85,120
70,63,120
77,71,120
74,57,120
77,71,480
65,63,120
70,42,120
74,57,120
74,91,480
62,66,120
65,50,120
70,59,120
74,73,120
62,72,120
75,73,120
63,64,120
79,89,480
67,66,120
70,44,120
74,59,120
77,74,480
65,66,120
70,44,120
74,59,120
77,91,480
65,66,120
69,50,120
72,59,120
79,73,120
67,72,120
81,73,120
69,64,120
82,89,480
70,66,120
74,44,120
77,59,120
70,63,120
74,39,120
77,53,120
94,63,480
82,44,120
89,39,120
86,34,120
94,49,120
82,44,120
94,49,120
89,39,120
86,34,120
98,63,120
86,44,120
94,51,120
89,39,120
94,51,480
82,44,120
86,29,120
89,39,120
89,63,480
77,44,120
82,34,120
86,39,120
89,49,120
77,44,120
89,49,120
86,39,120
82,34,120
94,62,120
82,44,120
89,51,120
86,39,120
89,51,480
77,44,120
82,29,120
86,39,120
86,63,480
74,45,120
82,39,120
77,35,120
86,46,120
74,45,120
87,46,120
75,41,120
91,62,480
79,45,120
82,30,120
86,41,120
89,51,480
77,45,120
82,30,120
86,41,120
89,63,480
77,45,120
81,35,120
84,41,120
91,46,120
79,45,120
93,46,120
81,41,120
94,62,120
82,45,120
70,30,120
74,41,120
74,30,120
77,45,120
77,30,120
82,41,120
86,88,480
74,69,480
77,69,480
82,78,120
70,69,120
77,78,120
65,53,120
87,88,480
75,69,480
81,69,480
81,71,480
69,63,480
86,88,480
74,69,480
77,69,480
82,78,120
70,69,120
77,78,120
65,53,120
87,88,480
75,69,480
81,69,480
81,71,480
69,63,480
86,88,480
74,69,480
77,69,480
82,78,120
70,69,120
77,78,120
65,53,120
87,88,480
75,69,480
81,69,480
81,71,480
69,63,480
86,88,480
74,69,480
77,69,480
82,78,120
70,69,120
77,78,120
65,53,120
87,88,480
75,69,480
81,69,480
63,40,240
51,28,240
57,28,240
63,51,480
51,43,480
57,43,480
63,41,480
51,34,480
58,34,480
63,42,480
51,35,480
59,35,480
63,44,480
51,37,480
60,37,480
66,52,480
54,44,480
60,44,480
66,41,480
54,34,480
61,34,480
66,42,480
54,35,480
62,35,480
66,43,480
63,36,480
54,36,480
69,52,480
57,44,480
63,44,480
69,40,480
57,34,480
64,34,480
69,41,480
57,34,480
65,34,480
69,43,480
57,36,480
66,36,480
72,52,480
66,52,480
60,44,480
72,41,480
67,41,480
60,34,480
72,43,240
60,36,240
68,36,240
72,51,320
60,44,320
69,43,320
75,48,160
63,40,160
69,40,160
75,47,160
63,39,160
70,39,160
75,56,160
63,47,160
71,47,160
78,51,160
66,42,160
72,42,160
78,51,160
66,42,160
73,42,160
78,60,160
66,50,160
74,50,160
81,56,160
69,47,160
75,47,160
81,56,160
69,47,160
76,47,160
81,66,160
69,56,160
77,56,160
84,60,160
72,50,160
78,50,160
84,60,160
72,50,160
79,50,160
84,70,180
72,59,180
80,59,180
87,63,180
81,53,180
75,53,180
87,63,180
82,53,180
75,53,180
87,63,180
83,53,180
75,53,180
87,73,180
75,61,180
84,61,180
90,64,180
78,55,180
84,55,180
90,64,180
78,55,180
85,55,180
90,64,180
78,55,180
86,55,180
90,77,180
78,64,180
87,64,180
93,69,180
81,58,180
87,58,180
93,69,180
81,58,180
88,58,180
93,69,180
81,58,180
89,58,180
81,68,180
90,68,180
93,68,180
96,71,180
84,60,180
90,60,180
96,71,180
84,60,180
91,60,180
96,71,180
84,60,180
92,60,180
96,81,180
84,68,180
93,68,180
99,80,180
93,68,180
87,68,180
99,84,180
94,71,180
87,71,180
95,89,180
99,89,180
87,74,180
99,92,180
96,78,180
87,78,180
99,81,180
96,68,180
87,68,180
99,81,180
95,68,180
87,68,180
99,81,180
94,68,180
87,68,180
99,92,180
93,78,180
87,78,180
99,81,180
93,68,180
87,68,180
99,84,180
94,71,180
87,71,180
95,89,180
99,89,180
87,74,180
99,93,180
96,79,180
87,79,180
99,81,180
96,68,180
87,68,180
99,81,180
95,68,180
87,68,180
99,81,180
94,68,180
87,68,180
93,93,480
87,79,480
93,82,480
87,69,480
94,83,480
87,70,480
95,85,480
87,72,480
96,93,480
87,79,480
96,93,480
87,79,480
103,59,120
101,60,120
99,61,120
96,62,120
93,62,120
89,63,120
87,64,120
84,65,120
81,66,120
77,67,120
75,68,120
72,69,120
69,70,120
65,71,120
63,72,120
60,72,120
60,68,120
63,67,120
65,66,120
69,65,120
72,64,120
75,63,120
77,62,120
81,61,120
84,60,120
87,59,120
89,58,120
93,62,120
96,65,120
99,73,120
103,86,120
99,89,120
87,75,120
84,88,120
93,87,120
81,73,120
78,86,120
89,85,120
77,72,120
76,85,120
87,84,120
75,71,120
72,83,120
81,82,120
69,69,120
66,81,120
77,80,120
65,68,120
64,79,120
75,78,120
63,66,120
60,77,120
69,76,285
75,79,270
81,83,255
87,87,240
70,77,285
75,81,270
82,86,255
87,91,240
71,74,285
75,78,270
83,82,255
87,87,240
72,79,285
75,83,270
84,88,255
87,93,240
86,72,160
74,61,160
87,76,160
75,64,160
88,80,160
76,68,160
89,85,160
77,72,160
90,89,160
78,75,160
93,93,160
81,79,160
91,87,160
79,73,160
86,83,160
74,70,160
89,94,160
77,79,160
87,85,160
75,72,160
84,85,160
72,72,160
82,96,480
70,69,120
77,62,120
74,53,120
82,78,120
70,69,120
82,78,120
77,62,120
74,53,120
86,96,120
74,69,120
82,78,120
77,62,120
82,78,480
70,69,120
74,46,120
77,62,120
77,95,480
65,69,120
70,53,120
74,62,120
77,78,120
65,69,120
77,78,120
74,62,120
70,53,120
82,93,120
70,69,120
77,78,120
74,62,120
77,78,480
65,69,120
70,46,120
74,62,120
74,100,480
62,72,120
65,55,120
70,64,120
74,73,120
62,72,120
75,73,120
63,64,120
79,97,180
67,72,120
65,48,120
77,74,120
77,81,120
65,72,120
74,48,120
70,48,120
77,77,120
77,100,480
65,72,120
69,55,120
72,64,120
79,73,120
67,72,120
81,73,120
69,64,120
82,97,480
70,72,120
74,48,120
77,64,120
70,69,120
74,42,120
77,58,120
94,96,480
82,69,120
89,62,120
86,53,120
94,78,120
82,69,120
94,78,120
89,62,120
86,53,120
98,96,120
86,69,120
94,78,120
89,62,120
94,78,480
82,69,120
86,46,120
89,62,120
89,95,480
77,69,120
82,53,120
86,62,120
89,78,120
77,69,120
89,78,120
86,62,120
82,53,120
94,93,120
82,69,120
89,78,120
86,62,120
89,78,480
77,69,120
82,46,120
86,62,120
86,100,480
74,72,120
77,55,120
82,64,120
86,73,120
74,72,120
87,73,120
75,64,120
91,97,180
79,72,120
77,48,120
89,73,120
89,81,120
77,72,120
86,48,120
82,48,120
89,77,120
89,100,480
77,72,120
81,55,120
84,64,120
91,73,120
79,72,120
93,73,120
81,64,120
94,97,480
82,72,480
86,97,960
74,76,960
77,82,960
82,89,120
70,75,120
77,81,120
65,69,120
87,89,120
84,75,120
75,75,120
87,81,120
84,69,120
75,69,120
86,81,120
77,69,120
74,69,120
86,89,120
74,75,120
77,75,120
84,82,120
72,70,120
75,70,120
82,82,120
70,70,120
74,70,120
81,82,120
69,70,120
72,70,120
82,91,480
70,67,480
86,97,960
74,76,960
77,81,960
82,89,120
70,75,120
77,81,120
65,69,120
87,89,120
84,75,120
75,75,120
87,81,120
84,69,120
75,69,120
86,81,120
77,69,120
74,69,120
86,89,120
74,75,120
77,75,120
84,82,120
72,70,120
75,70,120
82,82,120
70,70,120
74,70,120
81,82,120
69,70,120
72,70,120
82,89,120
70,75,120
74,75,120
77,82,120
74,70,120
82,82,120
70,70,120
74,70,120
86,82,120
74,70,120
77,70,120
86,89,120
74,75,120
77,75,120
84,82,120
72,70,120
75,70,120
82,82,120
70,70,120
74,70,120
81,82,120
69,70,120
72,70,120
82,89,120
70,75,120
74,75,120
77,82,120
74,70,120
82,82,120
70,70,120
74,70,120
86,82,120
74,70,120
77,70,120
86,89,120
74,75,120
77,75,120
84,82,120
72,70,120
75,70,120
82,82,120
70,70,120
74,70,120
81,82,120
69,70,120
72,70,120
86,92,720
74,79,720
77,75,720
82,86,240
70,74,240
87,93,720
75,75,720
81,79,720
75,70,240
84,82,240
72,70,240
82,89,180
70,75,180
74,75,180
77,70,60
89,82,60
86,70,60
94,82,60
82,70,60
86,70,60
98,82,60
86,70,60
89,70,60
98,89,60
86,75,60
89,75,60
96,82,60
84,70,60
87,70,60
94,82,60
82,70,60
86,70,60
93,82,60
81,70,60
84,70,60
94,89,120
82,75,120
86,75,120
70,48,480
58,40,480
62,40,480
65,40,480
70,45,120
58,37,120
62,37,120
65,37,120
70,44,120
58,37,120
62,37,120
65,37,120
75,48,480
63,40,480
66,40,480
70,40,480
75,45,480
63,38,480
66,38,480
70,38,480
75,51,480
63,42,480
66,42,480
70,42,480
78,49,120
66,41,120
70,41,120
75,44,120
63,37,120
66,37,120
74,49,480
62,40,480
65,40,480
70,46,480
58,38,480
62,38,480
82,55,480
70,45,480
74,45,480
77,45,480
82,52,120
70,42,120
74,42,120
77,42,120
82,51,120
70,42,120
74,42,120
77,42,120
87,56,480
75,46,480
78,46,480
82,46,480
87,51,480
75,42,480
78,42,480
82,42,480
87,59,480
75,49,480
78,49,480
82,49,480
90,57,120
78,47,120
82,47,120
87,50,120
75,41,120
78,41,120
86,56,480
74,46,480
77,46,480
77,58,480
89,58,480
82,58,480
86,58,480
90,66,480
78,56,480
82,56,480
87,56,480
87,57,480
75,48,480
78,48,480
82,48,480
86,62,480
82,52,480
77,52,480
74,52,480
89,60,480
86,50,480
82,50,480
77,50,480
90,64,480
87,55,480
82,55,480
78,55,480
87,58,480
82,49,480
78,49,480
75,49,480
86,64,480
82,55,480
77,55,480
74,55,480
94,78,480
89,66,480
86,66,480
82,66,480
94,82,420
82,69,420
87,69,420
90,69,420
78,66,480
87,66,450
94,78,420
77,73,540
86,73,510
94,86,480
94,78,480
82,66,480
86,66,480
89,66,480
94,86,420
90,73,420
87,73,420
82,73,420
78,67,480
87,67,450
94,79,420
77,73,300
86,73,270
94,86,240
53,71,104
55,73,104
57,75,104
58,79,60
71,81,240
59,81,104
57,75,104
56,74,104
54,72,104
52,71,104
51,69,104
49,68,104
47,67,60
48,62,87
49,64,87
51,67,87
52,69,87
54,71,87
56,73,87
58,75,87
60,78,60
73,84,240
61,84,87
59,78,87
57,75,87
55,73,87
54,71,87
52,69,87
50,66,87
49,63,60
50,62,72
52,66,72
54,68,72
55,71,72
57,74,72
59,77,72
61,79,72
62,82,60
75,84,240
63,84,72
62,78,72
60,75,72
58,73,72
57,71,72
55,69,72
53,66,72
51,63,60
50,60,72
51,60,72
53,61,72
55,62,72
57,63,58
58,64,58
60,64,58
62,66,58
63,67,58
65,68,58
67,68,58
69,69,58
70,70,58
72,71,58
74,71,58
75,72,58
77,73,58
79,73,58
81,74,48
82,84,240
70,62,60
72,64,60
74,67,60
75,69,60
77,71,60
79,73,60
81,75,60
82,78,60
95,84,240
83,84,60
81,78,60
80,75,60
78,73,60
76,71,60
75,69,60
73,66,60
71,63,60
72,62,60
73,64,60
75,67,60
76,69,60
78,71,60
80,73,60
82,75,60
84,78,60
97,84,240
85,84,60
83,78,60
81,75,60
79,73,60
78,71,60
76,69,60
74,66,60
73,63,60
74,62,60
76,64,60
78,67,60
79,69,60
81,71,60
83,73,60
85,75,60
86,78,60
99,84,240
87,84,60
86,78,60
84,75,60
82,73,60
81,71,60
79,69,60
77,66,60
75,63,60
74,60,60
75,60,60
77,61,60
79,62,60
81,63,48
82,64,48
84,64,48
86,66,48
87,67,48
89,70,60
91,72,60
93,73,60
94,75,60
96,77,60
98,79,60
99,80,60
100,82,60
101,85,80
89,72,80
98,72,80
94,75,80
89,75,70
89,80,80
86,68,80
82,73,80
77,73,80
89,72,80
86,61,80
82,63,80
77,63,70
77,68,80
74,57,80
70,61,80
65,61,80
75,82,80
77,82,80
65,69,80
69,69,80
63,64,80
65,64,80
53,55,80
57,55,80
63,64,80
65,64,80
53,55,80
57,55,80
63,67,80
65,67,80
53,56,80
58,56,80
63,73,80
65,73,80
53,61,80
59,61,80
63,79,80
65,79,80
53,67,80
60,67,80
101,85,80
89,72,80
98,72,80
94,75,80
89,75,70
89,80,80
86,68,80
82,73,80
77,73,80
89,72,80
86,61,80
82,63,80
77,63,70
77,68,80
74,57,80
70,61,80
65,61,80
75,82,80
77,82,80
65,69,80
69,69,80
63,64,80
65,64,80
53,55,80
57,55,80
63,64,80
65,64,80
53,55,80
57,55,80
63,67,80
65,67,80
53,56,80
58,56,80
63,73,80
65,73,80
53,61,80
59,61,80
63,79,80
65,79,80
53,67,80
60,67,80
63,82,80
65,82,80
57,69,80
75,70,80
77,70,80
65,59,80
69,59,80
75,70,80
77,70,80
65,59,80
69,59,80
75,73,80
77,73,80
65,61,80
70,61,80
75,80,80
77,80,80
65,68,80
71,68,80
75,86,80
77,86,80
65,73,80
72,73,80
75,82,80
77,82,80
65,69,80
69,69,80
87,77,80
89,77,80
77,64,80
81,64,80
87,77,80
89,77,80
77,64,80
81,64,80
87,80,80
89,80,80
77,67,80
82,67,80
87,88,80
89,88,80
77,74,80
83,74,80
87,94,80
89,94,80
77,80,80
84,80,80
87,90,80
89,90,80
77,75,80
81,75,80
99,84,80
101,84,80
89,70,80
93,70,80
99,84,80
101,84,80
89,70,80
93,70,80
99,88,80
101,88,80
89,73,80
94,73,80
99,96,80
101,96,80
89,81,80
95,81,80
99,103,80
101,103,80
89,88,80
96,88,80
99,90,80
101,90,80
89,75,80
93,75,80
77,70,80
89,84,80
78,70,80
90,84,80
91,88,80
79,73,80
80,81,80
92,96,80
81,88,80
93,103,80
86,96,240
82,96,240
94,113,240
82,92,60
70,78,60
82,91,60
70,77,60
86,97,60
74,82,60
82,92,60
70,78,60
82,92,120
70,78,120
77,97,60
65,82,60
74,92,60
62,78,60
74,92,120
62,78,120
70,97,60
58,82,60
65,92,60
53,78,60
65,92,120
53,78,120
94,96,240
86,96,240
98,113,240
86,92,60
74,78,60
86,91,60
74,77,60
89,97,60
77,82,60
86,92,60
74,78,60
86,92,120
74,78,120
82,97,60
70,82,60
77,92,60
65,78,60
77,92,120
65,78,120
74,97,60
62,82,60
70,92,60
58,78,60
70,92,120
58,78,120
98,96,240
94,96,240
89,96,240
101,113,240
89,92,60
77,78,60
89,91,60
77,77,60
94,97,60
82,82,60
89,92,60
77,78,60
89,92,120
77,78,120
86,97,60
74,82,60
82,92,60
70,78,60
82,92,120
70,78,120
77,102,60
65,85,60
74,96,60
62,81,60
74,96,120
62,81,120
70,97,160
58,82,160
65,89,120
53,74,120
82,97,160
70,82,160
77,84,120
65,71,120
94,97,160
82,82,160
89,85,120
77,72,120
82,97,160
70,82,160
77,88,120
65,74,120
70,97,160
58,82,160
65,89,120
53,74,120
82,97,160
70,82,160
77,89,120
65,74,120
94,97,160
82,82,160
89,90,80
77,75,80
82,97,160
70,82,160
77,89,80
65,74,80
70,97,160
58,82,160
65,89,80
53,74,80
70,97,480
65,82,480
68,82,480
70,103,720
66,86,960
70,100,240
70,105,480
70,102,480
65,91,480
70,106,720
63,96,1440
70,92,240
70,99,480
70,96,480
62,81,480
70,103,480
63,86,480
63,86,480
70,92,480
62,86,480
65,86,480
70,99,480
63,81,480
70,96,480
66,81,480
70,57,72
65,47,72
58,47,72
62,47,72
70,49,72
58,40,72
62,40,72
65,40,72
70,49,72
58,40,72
62,40,72
65,40,72
70,51,36
65,41,36
58,41,36
62,41,36
70,52,36
58,43,36
62,43,36
65,43,36
70,53,36
58,43,36
62,43,36
65,43,36
70,53,36
65,45,36
58,45,36
62,45,36
70,55,36
58,46,36
62,46,36
65,46,36
70,55,36
58,48,36
62,48,36
65,48,36
70,58,36
65,48,36
58,48,36
62,48,36
70,59,36
58,50,36
62,50,36
65,50,36
70,60,36
58,50,36
62,50,36
65,50,36
70,81,80
58,68,80
62,68,80
65,68,80
74,78,80
62,66,80
77,81,80
65,68,80
82,85,80
70,72,80
86,89,80
74,74,80
89,92,80
77,78,80
94,97,80
82,81,80
89,94,80
77,80,80
86,91,80
74,77,80
82,89,80
70,74,80
77,86,80
65,73,80
74,82,80
62,69,80
70,88,120
58,69,120
62,69,120
65,73,120
72,86,120
60,72,120
65,72,120
69,72,120
74,89,120
62,75,120
65,75,120
70,75,120
77,92,120
65,78,120
69,78,120
72,78,120
82,94,120
70,80,120
74,80,120
77,80,120
84,99,120
81,84,120
77,84,120
72,84,120
86,102,120
82,85,120
77,85,120
74,85,120
89,104,120
84,88,120
81,88,120
77,88,120
86,108,240
82,91,240
77,91,240
74,91,240
94,115,240
89,97,240
86,97,240
82,97,240
58,114,240
50,96,240
53,96,240
