note,velocity,time
87,28,180
99,34,180
87,28,180
99,34,180
99,34,180
87,28,180
87,28,180
99,34,180
99,34,180
87,28,180
87,28,180
99,34,180
99,33,180
87,27,180
99,33,180
87,27,180
99,27,180
87,22,180
99,25,180
87,21,180
75,43,180
87,40,60
87,50,180
99,40,60
87,46,180
99,39,60
85,46,180
99,39,60
83,46,180
99,40,60
83,45,180
99,40,60
82,43,180
99,40,60
80,46,180
99,40,60
79,45,180
99,37,60
80,45,180
99,40,60
82,46,180
99,40,60
75,43,180
99,37,60
75,43,180
87,37,60
76,50,180
87,43,60
75,46,180
87,40,60
73,46,180
87,39,60
71,46,180
87,40,60
71,45,180
87,40,60
70,43,180
87,37,60
68,46,180
87,40,60
67,45,180
87,37,60
68,45,180
87,37,60
70,46,180
87,40,60
63,43,180
75,37,60
75,43,180
87,37,60
87,50,180
99,43,60
87,46,180
99,41,60
85,46,180
99,40,60
83,46,180
99,41,60
83,45,180
99,39,60
82,43,180
99,39,60
80,46,180
99,40,60
79,45,180
99,39,60
80,45,180
99,40,60
82,46,180
99,40,60
75,43,180
99,39,60
75,43,180
87,40,60
76,50,180
87,45,60
75,46,180
87,43,60
73,46,180
75,39,180
87,40,60
75,46,90
87,39,60
80,39,60
83,39,60
87,46,90
99,41,60
75,46,90
87,39,60
79,39,60
82,39,60
87,46,90
99,45,60
75,41,180
87,37,60
99,50,180
87,40,60
99,46,180
87,39,60
99,46,180
85,39,50
85,39,60
83,54,180
99,43,60
83,45,180
99,40,60
82,43,180
99,40,60
82,49,60
80,49,180
99,41,60
79,45,180
99,40,60
80,45,180
99,40,60
79,47,30
80,49,30
82,50,180
99,39,60
75,43,180
99,39,60
75,43,180
87,40,60
78,46,60
76,47,180
87,41,60
75,46,180
87,40,60
73,46,180
87,39,60
73,50,60
71,50,180
87,40,60
71,45,180
87,40,60
70,43,180
87,40,60
70,50,60
68,50,180
87,40,60
67,45,180
87,40,60
68,45,180
87,40,60
70,46,180
87,39,60
63,43,180
75,39,60
75,43,180
87,40,60
87,50,180
99,45,60
87,46,180
99,43,60
85,46,180
99,39,60
85,54,60
83,54,180
99,45,60
83,45,180
99,40,60
82,45,180
99,40,60
82,46,60
80,51,180
99,40,60
79,45,180
99,40,60
80,45,180
99,40,60
79,52,30
80,54,30
82,55,180
99,39,60
75,43,180
99,39,60
75,43,180
87,40,60
78,46,60
76,50,180
92,44,60
75,46,180
92,44,60
73,46,180
92,44,60
75,46,90
87,39,60
80,39,60
83,39,60
87,46,90
99,41,60
75,46,90
87,39,60
79,39,60
82,39,60
87,46,90
99,45,60
63,40,90
68,37,90
75,37,90
80,36,90
67,36,90
70,41,90
66,39,90
69,44,90
65,41,90
68,45,90
64,43,90
67,47,90
73,54,60
71,54,60
70,54,60
71,54,60
66,61,90
90,54,90
71,62,90
90,54,90
75,56,60
73,56,60
72,56,60
73,56,60
66,63,90
90,61,90
73,63,90
90,61,90
76,54,60
75,54,60
74,54,60
75,54,60
71,61,90
90,59,90
71,36,90
74,41,90
70,39,90
73,44,90
69,41,90
72,45,90
68,43,90
71,47,90
77,54,60
75,54,60
74,54,60
75,54,60
70,61,90
94,59,90
75,62,90
94,59,90
78,56,60
77,56,60
76,56,60
77,56,60
70,63,90
94,60,90
77,62,90
94,60,90
80,54,60
78,54,60
77,54,60
78,54,60
75,61,90
94,59,90
74,36,90
77,41,90
73,39,90
76,44,90
75,45,90
72,41,90
74,47,90
71,43,90
80,54,60
78,54,60
77,54,60
78,54,60
73,61,90
97,64,90
78,62,90
97,64,90
82,56,60
80,56,60
79,56,60
80,56,60
73,63,90
97,64,90
80,62,90
97,64,90
82,47,90
83,47,90
85,50,240
97,55,120
94,55,120
83,47,90
82,47,90
80,47,90
82,47,90
83,50,240
95,55,120
87,50,120
82,47,90
80,47,90
78,47,90
80,47,90
82,50,240
85,47,120
94,54,120
80,47,90
78,47,90
77,47,90
78,47,90
80,50,240
92,51,120
83,45,120
75,47,90
77,47,90
78,50,180
90,45,120
82,40,120
68,61,90
80,61,90
92,65,180
80,56,120
92,65,180
78,55,120
92,67,180
76,54,120
102,70,180
80,55,120
100,70,180
80,55,120
99,70,180
80,55,120
97,70,180
80,55,120
99,70,180
80,54,120
100,73,180
80,54,120
97,69,180
80,55,120
66,61,90
78,61,90
90,65,180
78,56,120
90,65,180
76,55,120
90,67,180
75,54,120
100,70,180
78,55,120
99,70,180
78,55,120
97,70,180
78,55,120
95,70,180
78,55,120
97,70,180
78,54,120
99,73,180
78,54,120
95,69,180
78,55,120
63,66,90
75,61,90
87,61,90
75,52,90
87,60,90
74,54,90
87,61,90
73,55,90
87,60,90
73,57,120
87,61,90
71,64,90
76,54,90
88,73,90
82,54,90
87,72,90
73,52,90
85,71,90
76,51,90
83,70,90
71,51,90
82,70,90
77,51,90
80,69,90
70,51,90
79,69,90
75,47,90
82,65,90
79,45,90
83,62,90
75,43,90
82,57,90
75,66,90
87,61,90
99,60,90
87,50,90
99,56,90
86,52,90
99,57,90
85,54,90
99,61,90
85,55,120
99,61,90
83,63,90
88,47,90
100,66,90
93,47,90
99,64,90
85,46,90
97,63,90
88,45,90
95,62,90
83,45,90
93,62,90
89,45,90
92,61,90
91,63,90
82,45,90
87,45,90
94,57,90
99,60,90
87,55,90
99,61,90
87,56,90
99,64,90
87,57,90
99,67,90
87,62,90
99,70,90
87,62,90
99,71,90
81,71,90
99,72,90
82,72,90
99,72,90
83,73,90
99,75,90
84,75,90
99,76,90
85,77,90
99,79,90
86,79,90
99,80,90
87,81,90
99,81,90
87,81,90
99,82,90
87,81,90
99,81,90
87,79,90
99,81,90
87,76,90
99,72,90
87,61,90
99,62,90
87,61,90
75,59,240
87,61,90
99,61,90
87,61,90
75,59,240
87,55,90
99,55,90
87,55,90
75,61,90
87,55,90
99,47,90
87,47,90
75,55,240
87,47,90
99,47,90
87,47,90
75,47,90
87,47,90
99,47,90
87,49,90
75,51,90
87,51,90
99,54,90
87,54,90
75,54,90
87,55,90
99,57,90
87,57,90
75,60,90
87,60,90
99,60,90
87,59,90
75,59,90
87,57,90
99,57,90
87,57,90
75,56,90
87,56,90
99,54,90
87,54,90
75,54,90
87,54,90
99,54,90
87,52,90
75,52,90
87,51,90
99,47,90
87,47,90
75,46,90
87,45,90
99,45,90
87,44,90
75,47,90
87,47,90
99,47,90
87,47,90
75,47,90
87,47,90
99,47,90
87,47,90
75,55,240
87,47,90
99,47,90
87,47,90
75,47,90
87,47,90
99,47,90
87,49,90
75,51,90
87,51,90
99,54,90
87,54,90
75,54,90
87,55,90
99,57,90
87,57,90
75,60,90
87,60,90
99,60,90
87,59,90
75,59,240
87,57,90
76,54,240
87,54,120
75,50,240
87,50,120
73,50,240
87,50,120
75,59,240
87,54,120
80,54,90
83,54,90
87,60,240
99,54,120
75,59,240
87,54,120
79,54,90
82,54,90
87,60,240
99,54,120
75,49,40
87,49,40
87,49,40
87,52,40
87,52,40
99,52,40
87,52,40
87,52,40
99,52,40
85,52,40
85,52,40
97,52,40
83,54,40
83,54,40
95,54,40
83,54,40
83,54,40
95,54,40
82,52,40
82,52,40
94,52,40
80,54,40
80,54,40
92,54,40
79,52,40
79,52,40
91,52,40
80,52,40
80,52,40
92,52,40
82,54,40
82,54,40
94,54,40
75,50,40
75,50,40
87,47,40
75,47,40
75,47,40
87,47,40
76,50,40
76,50,40
88,50,40
75,47,40
75,47,40
87,47,40
73,47,40
73,47,40
85,47,40
71,50,40
71,50,40
83,50,40
71,47,40
71,47,40
83,47,40
70,47,40
70,47,40
82,47,40
68,49,40
68,49,40
80,49,40
67,47,40
67,47,40
79,47,40
68,47,40
68,47,40
80,47,40
70,50,40
70,50,40
82,50,40
63,47,40
63,47,40
75,43,40
75,45,40
75,45,40
75,45,40
87,52,40
87,52,40
99,52,40
87,52,40
87,52,40
99,52,40
85,52,40
85,52,40
97,52,40
83,54,40
83,54,40
95,54,40
83,54,40
83,54,40
95,54,40
82,52,40
82,52,40
94,52,40
80,54,40
80,54,40
92,54,40
79,52,40
79,52,40
91,52,40
80,52,40
80,52,40
92,52,40
82,54,40
82,54,40
94,54,40
75,50,40
75,50,40
87,47,40
75,49,40
75,49,40
87,49,40
76,52,40
76,52,40
88,52,40
75,50,40
75,50,40
87,50,40
73,47,40
73,47,40
85,47,40
75,46,40
75,46,40
87,47,40
76,47,40
76,49,40
87,49,40
77,50,40
77,50,40
87,51,40
78,51,40
78,52,40
87,52,40
79,54,40
79,54,40
87,54,40
80,55,40
80,55,40
87,56,40
81,56,40
81,55,40
87,55,40
82,55,40
82,55,40
87,55,40
83,55,40
83,55,40
87,55,40
84,54,40
84,54,40
87,54,40
85,52,40
85,52,40
87,51,40
86,50,40
86,50,40
87,49,40
87,47,40
87,47,40
99,46,40
88,45,40
88,45,40
99,45,40
89,44,40
89,44,40
99,43,40
90,41,40
90,41,40
99,40,40
91,39,40
91,39,40
99,37,40
92,36,40
92,36,40
99,36,40
71,41,240
70,43,120
71,37,90
69,44,90
71,39,90
68,45,90
71,40,90
67,45,90
71,41,90
66,46,90
71,43,90
65,47,90
71,44,90
64,49,90
73,57,60
71,50,60
70,50,60
71,50,60
66,54,240
78,50,54
78,50,54
78,50,54
71,54,240
83,50,54
83,50,54
83,50,54
73,54,240
85,51,54
85,51,54
85,51,54
78,54,240
90,51,54
90,51,54
90,51,54
85,54,240
97,52,72
90,52,72
97,54,72
90,54,72
87,56,240
99,54,72
90,54,72
99,54,72
90,54,72
83,54,120
75,41,240
74,43,120
75,37,90
73,44,90
75,39,90
72,45,90
75,40,90
71,45,90
75,41,90
70,46,90
75,43,90
69,47,90
75,44,90
68,49,90
77,56,60
75,50,60
74,50,60
75,50,60
70,54,240
82,50,54
82,50,54
82,50,54
75,54,240
87,50,54
87,50,54
87,50,54
77,54,240
89,51,54
89,51,54
89,51,54
82,54,240
94,51,54
94,51,54
94,51,54
89,54,240
101,52,72
94,52,72
101,54,72
94,54,72
90,56,240
102,54,72
94,54,72
102,54,72
94,54,72
87,54,120
78,41,240
77,43,120
78,37,90
76,44,90
78,39,90
75,45,90
78,40,90
74,45,90
78,41,90
73,46,90
78,43,90
72,47,90
78,44,90
71,49,90
80,56,60
78,50,60
77,50,60
78,50,60
73,54,240
85,50,54
85,50,54
85,50,54
78,54,240
90,50,54
90,50,54
90,50,54
80,54,240
92,51,54
92,51,54
92,51,54
85,54,240
97,54,72
92,54,72
97,54,72
92,54,72
97,54,72
92,54,72
92,52,72
97,52,72
92,54,72
97,54,72
97,40,60
94,40,120
99,40,60
97,39,60
93,39,120
99,37,60
97,37,60
92,37,120
99,36,60
97,36,60
91,36,120
99,36,60
97,35,60
90,35,240
99,35,60
97,34,60
99,34,60
95,37,60
92,37,120
97,37,60
95,36,60
91,36,120
97,36,60
95,36,60
90,36,120
97,36,60
95,35,60
89,35,120
97,35,60
95,34,60
87,34,240
97,34,60
95,33,60
97,33,60
94,37,60
90,37,120
95,37,60
94,36,60
89,36,120
95,36,60
94,36,60
87,36,120
95,36,60
94,36,60
86,36,120
95,35,60
94,35,60
85,35,240
95,34,60
94,34,60
95,32,60
92,37,60
89,37,120
94,37,60
92,36,60
87,36,120
94,36,60
92,35,60
86,35,120
94,34,60
92,33,60
85,33,120
94,32,60
92,32,60
83,32,240
87,36,60
88,39,60
89,41,60
90,43,60
92,43,60
90,43,60
92,43,60
78,59,240
90,45,60
92,45,60
90,45,60
79,60,240
91,47,60
92,47,60
91,47,60
80,63,240
92,51,60
93,51,60
92,50,60
93,50,60
92,49,60
93,49,60
92,47,60
93,47,48
92,46,48
93,46,48
92,45,48
93,45,48
92,45,60
93,45,60
92,45,60
93,45,60
92,51,60
102,61,180
93,51,60
92,51,60
93,51,60
92,47,60
100,60,180
93,47,60
92,47,60
93,47,60
92,51,60
99,61,180
93,51,60
92,51,60
93,51,60
92,47,60
97,57,180
93,47,60
92,47,60
93,46,60
92,46,60
99,55,180
93,46,60
92,45,60
93,45,60
92,46,60
100,56,180
93,46,60
92,45,60
93,45,60
92,51,120
97,51,120
79,60,240
91,47,60
93,47,60
91,47,60
78,63,240
90,51,60
92,51,60
90,50,60
92,50,60
90,49,60
92,49,60
90,47,60
92,47,48
90,46,48
92,46,48
90,45,48
92,45,48
90,45,60
92,45,60
90,45,60
92,45,60
90,51,60
100,61,180
92,51,60
90,51,60
92,51,60
90,47,60
99,60,180
92,47,60
90,47,60
92,47,60
90,51,60
97,61,180
92,51,60
90,51,60
92,51,60
90,47,60
95,57,180
92,47,60
90,47,60
92,46,60
90,46,60
97,55,180
92,46,60
90,45,60
92,45,60
90,46,60
99,56,180
92,46,60
90,46,60
92,46,60
90,51,120
95,51,120
74,57,240
86,47,60
87,47,60
86,47,60
75,57,240
87,51,60
88,50,60
87,50,60
88,49,60
87,49,60
88,47,60
87,47,60
88,46,60
87,46,60
88,45,60
87,45,60
88,43,45
87,44,45
86,45,45
87,45,45
88,46,45
89,47,45
90,49,45
91,49,45
92,51,45
93,52,45
94,54,45
95,55,45
96,56,45
97,57,45
98,59,45
99,60,45
100,61,48
102,60,48
100,60,48
99,59,48
98,57,48
97,56,48
96,55,48
95,54,48
94,54,48
93,52,48
92,51,48
91,50,48
90,49,48
89,47,48
88,46,48
87,46,240
70,57,240
82,47,60
83,47,60
82,47,60
74,57,240
86,47,60
87,47,60
86,47,60
75,57,240
87,51,60
88,50,60
87,50,60
88,49,60
87,49,60
88,47,60
87,47,60
88,46,60
87,46,60
88,45,60
87,45,60
88,43,45
87,44,45
86,45,45
87,45,45
88,46,45
89,47,45
90,49,45
91,49,45
92,51,45
93,52,45
94,54,45
95,55,45
96,56,45
97,57,45
98,59,45
99,60,45
100,61,48
102,60,48
100,60,48
99,59,48
98,57,48
97,56,48
96,55,48
95,54,48
94,54,48
93,52,48
92,51,48
91,50,48
90,49,48
89,47,48
88,46,48
87,43,45
88,43,45
87,44,42
86,45,42
87,45,42
88,46,42
89,47,42
90,49,42
91,50,42
92,51,42
93,52,42
94,54,42
95,55,42
96,56,42
97,57,42
98,59,42
99,60,42
100,61,48
102,60,48
100,60,48
99,59,48
98,57,48
97,56,48
96,55,48
95,54,48
94,54,48
93,52,48
92,51,48
91,50,48
90,49,48
89,47,48
88,46,48
87,43,45
88,43,45
87,44,42
86,45,42
87,45,42
88,46,42
89,47,42
90,49,42
91,50,42
92,51,42
93,52,42
94,54,42
95,55,42
96,56,42
97,57,42
98,59,42
99,60,42
100,67,60
102,63,60
100,63,60
99,63,60
98,67,60
99,63,60
98,63,60
97,63,60
96,67,60
97,63,60
96,63,60
95,63,60
94,67,60
95,63,60
94,63,60
93,63,60
92,67,60
93,63,60
92,63,60
91,63,60
90,62,60
91,61,60
90,61,60
89,61,60
88,61,60
90,59,60
88,59,60
87,59,60
86,60,60
87,56,60
86,56,60
85,56,60
84,59,60
85,56,60
84,56,60
83,56,60
82,57,60
83,54,60
82,54,60
81,54,60
80,56,60
81,54,60
80,54,60
79,54,60
78,55,60
79,52,60
78,52,60
77,52,60
76,55,60
78,52,60
76,52,60
75,52,60
74,54,60
75,51,60
74,51,60
73,51,60
72,54,60
73,50,60
72,50,60
71,50,60
70,52,60
71,49,60
70,49,60
69,49,60
68,51,60
69,47,60
68,47,60
67,47,60
66,50,60
67,46,60
66,46,60
65,46,60
64,46,60
62,46,60
64,46,60
63,46,60
65,46,60
64,46,60
66,46,60
65,46,60
67,46,60
66,46,60
68,46,60
67,46,60
69,46,60
68,46,60
70,46,60
69,46,60
71,46,60
70,46,60
72,46,60
71,46,60
73,46,60
72,46,60
74,46,60
73,46,60
75,46,60
74,46,60
76,46,60
75,46,60
77,45,60
76,45,60
78,45,60
77,46,60
79,47,60
78,49,60
80,49,60
79,50,60
81,51,60
80,52,60
82,54,60
81,54,60
83,54,60
82,55,60
84,56,60
83,57,60
85,57,60
84,59,60
86,60,60
85,61,60
87,62,60
86,63,60
88,63,60
87,64,60
89,65,60
88,66,60
90,67,60
89,67,60
91,69,60
90,70,60
92,71,60
91,72,60
93,72,60
92,72,60
94,73,60
93,75,60
95,76,60
94,77,60
96,77,60
95,79,60
97,80,60
96,81,60
98,81,60
97,81,60
99,83,60
98,77,60
100,83,60
98,77,60
99,83,60
98,79,60
100,83,60
98,79,60
99,83,60
98,79,60
100,83,60
98,79,60
99,81,60
98,75,60
100,76,60
98,72,60
99,72,60
98,73,60
100,73,60
98,73,60
99,71,60
98,70,60
100,67,60
98,65,60
99,61,60
100,61,60
99,61,60
100,61,60
99,61,60
100,62,60
99,65,60
100,67,60
99,71,60
100,72,60
99,75,60
100,79,60
99,81,60
100,82,60
99,84,60
100,89,60
99,90,60
100,90,60
99,93,60
100,92,60
99,96,60
100,93,60
99,99,60
100,94,60
99,99,60
100,92,60
99,99,60
100,92,60
99,99,60
100,99,60
99,99,60
100,94,60
99,99,60
100,93,60
99,99,60
100,93,60
99,99,60
100,92,60
99,95,60
100,92,60
99,90,60
100,86,60
99,82,60
100,79,60
99,75,60
100,72,60
99,69,60
100,65,60
99,59,60
100,54,60
99,57,60
100,56,60
99,56,60
100,53,60
99,55,60
100,52,60
99,47,60
100,44,60
99,46,60
100,44,60
99,46,60
100,45,60
99,46,60
100,43,60
99,46,60
87,57,240
100,44,60
99,46,60
100,45,60
87,46,1
99,46,60
100,46,60
99,46,60
100,44,60
99,46,60
87,29,120
100,44,60
99,46,60
100,44,60
87,29,120
99,46,60
100,44,60
99,46,60
100,46,60
87,29,120
99,46,60
100,44,60
99,46,60
100,45,60
87,29,120
99,46,60
100,44,60
99,46,60
100,45,60
99,46,60
87,29,120
100,44,60
99,46,60
100,44,60
99,46,60
87,29,120
100,44,60
99,47,60
100,44,60
99,47,60
87,30,120
100,43,60
99,47,60
100,44,60
87,30,120
99,47,60
100,45,60
99,47,60
100,43,60
99,47,60
87,29,120
100,45,60
99,47,60
100,45,60
99,47,60
87,29,120
100,47,60
99,47,60
100,45,60
87,29,120
99,46,60
100,44,60
99,46,60
100,44,60
99,46,60
87,29,120
100,43,60
99,46,60
100,45,60
87,29,120
99,46,60
100,44,60
99,46,60
100,43,60
87,29,120
99,45,60
100,43,60
99,45,60
100,43,60
87,27,120
99,45,60
100,42,60
99,45,60
100,41,60
87,27,120
99,44,60
100,40,60
99,44,60
100,41,60
87,27,120
99,44,60
100,40,60
99,43,60
100,39,60
87,27,120
99,43,60
100,39,60
99,41,60
100,36,60
87,25,120
99,44,60
100,40,60
99,45,60
100,40,60
87,25,120
99,45,60
100,42,60
99,45,60
100,41,60
99,46,60
87,25,120
100,43,60
99,46,60
100,44,60
99,46,60
87,29,120
100,43,60
99,46,60
100,43,60
87,29,120
99,46,60
100,43,60
99,46,60
100,43,60
99,46,60
87,29,120
100,43,60
99,46,60
100,43,60
99,44,60
100,49,60
99,49,60
87,49,54
87,40,60
88,40,60
87,40,60
75,40,60
87,40,80
88,40,80
87,40,80
99,47,60
100,47,60
99,47,60
87,47,54
87,41,60
88,40,60
87,40,60
75,40,60
87,40,80
88,40,80
87,40,80
99,49,60
100,49,60
99,49,60
87,49,54
87,40,60
88,40,60
87,40,60
75,40,60
87,40,80
88,40,80
87,40,80
99,47,60
100,47,60
99,47,60
87,47,54
87,41,60
88,41,60
87,41,60
75,41,60
87,41,80
88,41,80
87,41,80
99,45,60
100,45,60
99,45,60
87,45,60
80,45,120
71,45,120
75,41,120
83,41,120
87,46,180
80,46,180
99,45,60
100,44,60
99,44,60
87,44,60
79,40,120
70,40,120
73,36,120
82,36,120
87,40,180
79,40,180
75,54,240
87,43,60
88,43,60
87,43,60
87,60,120
99,46,60
100,46,60
99,46,60
87,60,120
99,44,60
100,44,60
99,44,60
85,55,120
97,44,60
99,44,60
97,45,60
83,59,120
95,45,60
97,45,60
95,46,60
83,54,120
95,40,60
97,41,60
95,41,60
82,55,120
94,40,60
95,40,60
94,41,60
80,59,120
92,41,60
94,41,60
92,41,60
79,59,120
91,41,60
92,41,60
91,41,60
80,63,120
92,43,60
94,43,60
92,44,60
82,67,240
94,51,60
95,51,60
94,51,60
75,59,180
87,44,60
88,44,60
87,44,60
75,59,240
87,44,60
88,44,60
87,45,60
76,62,180
88,45,60
90,45,60
88,45,60
75,56,180
87,43,60
88,43,60
87,43,60
73,56,180
85,43,60
87,43,60
85,43,60
71,60,210
83,43,60
85,43,60
83,43,60
71,54,180
83,39,60
85,39,60
83,39,60
70,54,180
82,41,60
83,41,60
82,43,60
68,60,180
80,45,60
82,46,60
80,46,60
67,54,180
79,43,60
80,43,60
79,43,60
68,52,180
80,41,60
82,41,60
80,41,60
70,54,240
82,43,60
83,43,60
82,43,60
63,49,120
75,37,60
76,37,60
75,37,60
75,59,240
87,43,60
88,43,60
87,43,60
87,64,180
99,52,60
100,52,60
99,52,60
87,63,180
99,49,60
100,49,60
99,49,60
85,63,180
97,49,60
99,49,60
97,49,60
84,62,180
96,50,60
97,50,60
96,50,60
84,60,180
96,47,60
97,47,60
96,47,60
81,59,180
93,46,60
95,46,60
93,46,60
80,62,180
92,46,60
93,46,60
92,46,60
80,59,180
92,45,60
93,45,60
92,45,60
78,57,180
90,41,60
92,41,60
90,41,60
76,55,240
88,44,60
90,44,60
88,44,60
73,51,240
85,40,60
87,40,60
85,40,60
75,54,240
87,41,60
88,41,60
87,41,60
76,55,240
88,45,60
90,45,60
88,45,60
75,52,240
87,40,60
88,40,60
87,40,60
73,49,240
85,37,60
87,37,60
85,37,60
75,43,60
87,43,60
76,44,60
77,44,60
78,45,60
79,45,60
80,45,60
81,45,60
82,46,60
83,47,60
84,47,60
85,49,60
86,49,60
87,50,60
88,50,60
89,51,60
90,52,60
91,52,60
92,54,60
93,54,60
94,54,60
95,54,60
96,55,60
97,56,60
98,57,70
99,59,70
102,63,65
100,62,65
97,61,65
94,60,65
91,57,65
86,56,65
87,55,65
90,61,65
88,60,65
85,59,65
82,57,65
79,60,65
76,55,65
73,54,65
70,51,65
67,49,65
64,47,65
61,45,65
58,44,65
55,41,65
59,41,80
63,41,80
68,41,80
71,41,80
75,41,80
83,45,80
80,40,240
83,37,90
71,37,90
83,41,90
71,41,90
83,45,90
71,45,90
71,47,90
83,47,90
83,51,90
71,51,90
83,66,90
66,49,90
71,50,90
78,60,90
66,49,90
83,64,90
66,49,90
85,71,90
66,49,90
73,54,90
78,64,90
66,49,90
85,70,90
66,50,90
87,73,120
66,60,90
75,60,90
83,59,90
87,57,90
95,62,90
87,37,90
75,37,90
87,41,90
75,41,90
87,45,90
75,45,90
87,47,90
75,47,90
87,51,90
75,51,90
87,70,90
70,49,90
75,50,90
82,60,90
70,49,90
87,70,90
70,49,90
89,76,90
70,49,90
77,54,90
82,64,90
70,49,90
89,72,90
70,50,90
90,79,120
70,60,90
78,60,90
87,59,90
90,59,90
99,62,90
90,37,90
78,37,90
90,41,90
78,41,90
90,45,90
78,45,90
90,47,90
78,47,90
90,51,90
78,51,90
90,70,90
73,49,90
78,50,90
85,60,90
73,49,90
90,70,90
73,49,90
92,76,90
73,49,90
80,54,90
85,64,90
73,49,90
92,72,90
73,50,90
94,44,90
90,44,90
85,44,90
95,47,90
92,47,90
85,47,90
97,52,90
94,52,90
85,52,90
97,52,90
94,52,90
85,52,90
95,50,90
92,50,90
85,50,90
94,47,90
90,47,90
85,47,90
92,46,90
87,46,90
83,46,90
94,50,90
87,50,90
85,50,90
87,54,90
95,54,90
95,54,90
87,54,90
94,47,90
87,47,90
85,47,90
92,45,90
87,45,90
83,45,90
90,45,90
85,45,90
82,45,90
83,47,90
85,47,90
92,47,90
94,52,90
85,52,90
85,52,90
94,52,90
85,49,90
83,49,90
92,49,90
90,46,90
85,46,90
82,46,90
80,45,90
85,45,90
89,45,90
90,46,90
85,46,90
82,46,90
83,50,90
85,50,90
92,50,90
83,50,90
85,50,90
92,50,90
78,47,90
87,47,90
85,47,90
89,45,90
85,45,90
80,45,90
90,50,240
85,50,240
78,50,240
56,64,90
68,64,90
56,64,90
68,64,90
80,71,240
92,71,240
90,45,90
102,45,90
102,45,90
90,45,90
88,45,90
100,45,90
100,45,90
88,45,90
99,45,90
87,45,90
87,45,90
99,45,90
85,45,90
97,45,90
97,45,90
85,45,90
99,45,90
87,45,90
99,45,90
87,45,90
100,47,240
88,47,240
54,64,90
66,64,90
54,64,90
66,64,90
78,71,240
90,71,240
88,45,90
100,45,90
100,45,90
88,45,90
87,45,90
99,45,90
99,45,90
87,45,90
97,45,90
85,45,90
85,45,90
97,45,90
83,45,90
95,45,90
95,45,90
83,45,90
97,45,90
85,45,90
97,45,90
85,45,90
99,47,240
87,47,240
51,64,90
63,64,90
51,64,90
63,64,90
75,71,240
87,71,240
87,59,90
75,59,90
87,60,90
75,60,90
87,62,90
75,62,90
87,64,90
75,64,90
76,64,120
88,64,120
75,64,120
87,64,120
73,63,120
85,63,120
71,62,120
83,62,120
70,61,120
82,61,120
68,61,120
80,61,120
67,60,240
79,60,240
51,69,90
63,69,90
51,69,90
63,69,90
75,76,240
87,76,240
99,69,90
87,69,90
99,71,90
87,71,90
99,72,90
87,72,90
87,73,90
99,73,90
88,73,90
100,73,90
87,73,90
99,73,90
85,73,90
97,73,90
95,72,90
83,72,90
82,72,90
94,72,90
92,72,90
80,72,90
91,72,90
79,72,90
78,72,90
90,72,90
89,72,90
77,72,90
76,71,90
88,71,90
86,71,90
74,71,90
75,72,90
87,72,90
88,75,90
76,75,90
75,75,90
87,75,90
85,73,90
73,73,90
71,72,90
83,72,90
82,72,90
70,72,90
68,72,90
80,72,90
67,72,90
79,72,90
78,71,90
66,71,90
65,70,90
77,70,90
76,70,90
64,70,90
62,72,90
74,72,90
63,73,90
75,73,90
64,73,90
76,73,90
63,73,90
75,73,90
73,73,90
61,73,90
59,72,90
71,72,90
70,72,90
58,72,90
56,72,90
68,72,90
67,72,90
55,72,90
54,72,90
66,72,90
65,72,90
53,72,90
52,72,90
64,72,90
50,72,90
62,72,90
51,72,90
63,72,90
52,73,90
64,73,90
63,75,90
52,75,90
61,76,90
52,76,90
59,77,90
52,77,90
53,80,90
58,80,90
53,81,90
56,81,90
55,81,240
62,81,120
50,81,108
63,81,120
51,81,108
57,81,108
69,81,120
58,81,108
70,81,120
62,81,108
74,81,120
63,81,108
75,81,120
69,81,108
81,81,120
82,81,120
70,81,108
86,82,120
74,82,108
87,83,120
75,83,108
93,84,120
81,84,108
94,84,120
82,84,108
86,92,108
98,92,120
99,89,120
87,89,108
98,93,120
86,93,108
99,86,120
87,86,108
98,87,120
86,87,108
99,84,120
87,84,120
99,84,120
87,84,120
99,86,120
87,86,120
99,87,120
87,87,120
99,89,120
87,89,120
99,89,120
87,89,120
99,90,120
87,90,120
99,90,120
87,90,120
99,91,120
87,91,120
99,92,120
87,92,120
99,92,120
87,92,120
99,93,120
87,93,120
87,81,90
99,81,90
87,77,90
99,77,90
87,81,90
99,81,90
87,76,90
99,76,90
87,79,90
99,79,90
87,76,90
99,76,90
87,77,90
99,77,90
87,76,90
99,76,90
87,75,90
99,75,90
87,73,90
99,73,90
87,73,90
99,73,90
87,72,90
99,72,90
87,72,90
99,72,90
87,70,90
99,70,90
87,71,90
99,71,90
87,69,90
99,69,90
87,76,90
99,76,90
87,70,90
99,70,90
87,70,90
99,70,90
87,70,90
99,70,90
87,66,90
99,66,90
87,66,90
99,66,90
85,63,90
97,63,90
85,62,90
97,62,90
95,66,90
83,66,90
95,66,90
83,66,90
95,66,90
83,66,90
95,66,90
83,66,90
94,62,90
82,62,90
94,62,90
82,62,90
92,63,90
80,63,90
92,63,90
80,63,90
91,62,90
79,62,90
91,62,90
79,62,90
92,62,90
80,62,90
92,62,90
80,62,90
94,66,90
82,66,90
94,66,90
82,66,90
87,62,90
75,62,90
87,62,90
75,62,90
87,62,90
75,62,90
87,62,90
75,62,90
88,64,90
76,64,90
88,64,90
76,64,90
87,64,90
75,64,90
87,62,90
75,62,90
85,62,90
73,62,90
85,62,90
73,62,90
83,63,90
71,63,90
83,63,90
71,63,90
83,63,90
71,63,90
83,62,90
71,62,90
82,63,90
70,63,90
82,63,90
70,63,90
80,65,90
68,65,90
80,65,90
68,65,90
79,62,90
67,62,90
79,62,90
67,62,90
80,63,90
68,63,90
80,63,90
68,63,90
82,65,90
70,65,90
82,64,90
70,64,90
63,59,90
75,59,90
75,59,90
63,59,90
87,63,90
75,63,90
87,63,90
75,63,90
99,77,90
87,77,90
87,77,90
99,77,90
99,77,90
87,77,90
99,77,90
87,77,90
97,75,90
85,75,90
85,75,90
97,75,90
96,75,90
84,75,90
84,75,90
96,75,90
84,72,90
96,72,90
84,72,90
96,72,90
93,71,90
81,71,90
81,71,90
93,71,90
92,73,90
80,73,90
80,73,90
92,73,90
92,73,90
80,73,90
80,73,90
92,73,90
90,76,90
78,76,90
78,76,90
90,76,90
88,81,240
76,81,240
64,49,90
69,49,90
73,54,90
64,49,90
69,49,90
73,54,90
64,51,90
69,51,90
75,56,90
64,51,90
69,51,90
75,56,90
64,54,90
69,54,90
76,62,90
64,54,90
69,54,90
76,62,90
64,53,90
69,53,90
75,60,90
64,53,90
69,53,90
75,60,90
64,50,90
69,50,90
73,55,90
64,50,90
69,50,90
73,55,90
63,45,120
68,45,120
71,45,120
75,52,120
64,54,120
76,54,120
65,54,120
77,54,120
66,55,120
78,55,120
67,57,120
79,57,120
68,59,120
80,59,120
69,60,120
81,60,120
70,62,120
82,62,120
71,63,120
83,63,120
72,64,120
84,64,120
73,66,120
85,66,120
74,67,120
86,67,120
75,62,120
79,62,120
82,62,120
87,62,120
76,71,120
88,71,120
77,72,120
89,72,120
78,72,120
90,72,120
79,75,120
91,75,120
80,76,120
92,76,120
81,77,120
93,77,120
82,79,120
94,79,120
83,81,120
95,81,120
85,83,120
97,83,120
86,86,120
98,86,120
87,90,110
99,90,110
59,89,240
63,89,240
68,99,240
83,89,180
75,74,180
71,74,180
82,80,120
75,68,120
70,68,120
71,68,120
83,80,120
85,90,180
73,75,180
75,68,120
83,80,120
71,68,120
82,80,120
70,68,120
83,81,120
75,68,120
71,68,120
85,84,120
73,71,120
75,77,180
87,91,180
85,83,120
73,70,120
71,69,120
83,82,120
82,81,120
75,68,120
70,68,120
83,81,120
71,68,120
73,74,180
85,89,180
75,68,120
83,81,120
71,68,120
70,68,120
82,81,120
71,62,120
75,62,120
83,89,120
82,83,120
70,59,120
80,83,240
68,59,240
95,89,180
87,62,180
83,62,180
94,81,120
87,57,120
82,57,120
83,57,120
95,81,120
97,91,180
85,64,180
87,56,120
95,79,120
83,56,120
94,79,120
82,56,120
95,81,120
87,68,120
83,68,120
97,84,120
85,71,120
87,77,180
99,91,180
97,80,120
85,68,120
83,68,120
95,80,120
94,80,120
87,68,120
82,68,120
95,80,120
83,68,120
85,77,180
97,91,180
87,69,120
95,82,120
83,69,120
82,70,120
94,83,120
83,77,120
87,91,120
95,91,120
94,83,120
82,70,120
92,83,240
80,70,240
63,68,240
71,68,240
75,81,240
63,60,120
70,60,120
75,71,120
63,60,120
71,60,120
75,71,120
63,66,240
73,78,240
75,78,240
63,61,120
71,61,120
75,73,120
63,61,120
70,61,120
75,73,120
63,67,120
71,79,120
75,79,120
63,61,120
70,61,120
75,73,120
63,61,216
68,61,216
75,73,216
87,108,180
80,92,180
75,92,180
63,60,120
70,60,120
75,71,120
63,60,120
71,71,120
75,71,120
63,66,240
73,66,240
75,78,240
63,61,120
71,61,120
75,73,120
63,61,120
70,61,120
75,73,120
63,67,120
71,67,120
75,79,120
63,61,120
70,61,120
75,73,120
63,61,216
68,61,216
75,73,216
87,108,180
80,92,180
75,92,180
63,67,120
71,67,120
75,79,120
63,61,120
70,61,120
75,73,120
63,61,216
68,61,216
75,73,216
87,95,180
80,95,180
92,113,180
63,67,120
71,79,120
75,79,120
63,61,120
70,61,120
75,73,120
63,61,216
68,61,216
75,73,216
87,97,180
83,97,180
95,115,180
63,67,120
71,67,120
75,79,120
63,61,120
70,61,120
75,73,120
63,61,216
68,61,216
75,73,216
99,117,480
92,99,480
87,99,480
87,84,216
92,84,216
99,100,216
87,86,216
92,86,216
99,102,216
87,84,216
92,84,216
99,100,216
87,86,216
92,86,216
99,102,216
87,93,216
92,93,216
99,110,216
87,97,240
92,97,240
99,115,240
59,86,240
63,86,240
68,102,240
92,104,1440
87,99,1440
83,83,1440
80,83,1440
