note,velocity,time
61,77,116
61,85,720
61,73,80
59,70,80
61,68,80
59,77,768
61,64,48
64,70,48
62,66,48
61,66,44
61,79,800
61,73,80
59,70,80
61,68,80
59,81,746
57,62,39
56,67,40
59,59,40
57,63,39
56,66,41
56,75,958
56,46,118
56,54,746
57,48,39
56,47,40
59,53,40
57,47,39
56,44,40
56,60,1440
56,48,50
56,48,50
61,58,120
52,48,240
56,48,240
61,60,600
60,48,120
61,58,120
63,62,60
54,52,300
57,52,270
64,65,120
57,55,120
64,61,120
63,48,120
61,62,360
61,54,60
63,54,60
61,59,360
52,47,240
56,47,240
60,55,120
61,62,840
52,47,240
56,47,240
63,60,120
64,63,120
64,66,600
56,48,240
59,48,240
63,52,120
64,63,120
66,68,120
68,71,120
57,52,240
59,52,240
63,60,120
68,67,120
66,52,120
64,68,360
64,56,60
66,56,60
56,47,240
64,64,360
59,47,240
63,60,120
64,68,480
60,47,240
64,57,360
56,37,240
68,67,480
54,37,240
63,60,60
56,35,30
61,37,30
64,40,30
68,42,15
73,77,240
68,55,240
73,69,600
61,55,600
64,55,240
72,57,120
60,48,120
73,69,120
61,58,120
63,62,120
75,73,120
64,65,120
76,77,120
69,67,120
64,62,120
76,74,120
63,49,120
75,58,120
61,61,360
73,72,360
73,64,60
75,64,60
73,72,360
68,61,240
61,61,360
72,62,120
60,52,120
73,70,840
61,59,840
64,56,240
68,67,240
68,62,120
76,74,120
71,62,120
64,62,120
80,84,120
71,71,120
68,71,120
68,86,480
68,60,60
67,54,60
68,54,60
67,53,60
64,55,60
67,57,60
68,59,60
70,61,60
71,63,60
73,64,60
75,66,60
76,68,60
79,70,60
80,72,60
82,74,60
83,76,60
85,81,60
87,84,60
88,87,60
87,83,60
85,81,60
83,80,60
82,78,60
80,77,60
79,75,60
83,80,60
82,78,60
80,75,60
79,73,60
76,70,60
75,68,60
73,65,60
76,71,60
75,67,60
73,63,60
71,58,60
70,54,60
68,50,60
67,46,60
68,42,60
67,46,60
64,34,60
67,33,60
71,38,120
71,34,45
71,30,45
71,34,45
71,28,60
71,36,360
70,30,60
68,42,360
68,35,60
70,35,60
63,28,240
68,39,360
59,28,240
67,37,120
68,35,480
63,23,240
59,23,240
68,41,50
68,41,50
80,54,120
76,45,120
71,48,300
76,48,630
80,57,600
78,48,120
75,40,120
80,51,120
76,43,120
78,45,120
81,53,120
80,47,120
83,56,120
76,50,120
71,42,120
78,46,120
81,55,120
80,49,120
76,41,120
78,54,120
75,45,120
78,48,40
78,44,40
80,44,40
75,48,120
78,57,120
77,51,60
74,46,60
75,45,120
78,54,120
80,61,480
68,48,480
75,48,480
73,45,120
76,54,120
68,48,300
73,48,630
76,57,600
72,40,120
75,48,120
76,51,120
73,43,120
78,53,60
75,45,60
76,47,30
73,40,30
75,40,30
78,47,30
80,56,120
76,47,120
68,42,60
73,50,60
75,46,120
78,55,120
76,49,120
73,41,120
72,45,120
75,54,120
75,48,40
75,44,40
76,44,40
75,57,120
72,48,120
73,51,60
70,46,60
75,54,480
72,45,480
75,42,50
75,42,50
80,42,480
75,54,360
68,44,120
72,35,40
80,35,480
72,52,360
73,36,60
75,44,40
80,36,480
75,54,360
78,46,120
76,36,40
80,36,480
76,53,360
75,49,120
73,38,40
80,37,480
73,54,360
68,46,120
73,37,40
80,37,480
73,53,360
75,49,120
76,37,40
80,37,440
76,54,360
80,46,40
78,36,40
80,36,40
78,53,360
76,49,120
75,38,40
80,38,240
75,54,240
68,38,40
80,38,240
68,46,240
72,38,40
80,38,240
72,53,240
73,38,40
80,38,240
73,49,240
75,37,40
80,37,240
75,54,240
78,36,40
80,36,240
78,46,240
76,36,40
80,40,240
76,53,240
75,38,40
80,38,280
75,49,240
73,54,240
80,44,60
81,39,60
80,44,60
81,39,60
80,44,60
81,39,60
80,44,60
81,39,60
80,44,60
73,53,240
81,39,60
80,44,60
81,39,60
80,44,60
81,39,60
75,49,120
80,44,60
81,39,60
80,44,60
76,50,240
81,39,60
80,44,60
81,39,60
80,60,60
81,39,60
80,44,60
81,39,60
80,44,60
85,65,240
81,39,60
80,44,60
81,39,60
80,44,60
88,66,240
81,39,60
80,44,60
81,39,60
80,59,48
87,42,48
92,51,48
87,45,48
80,39,36
80,58,45
80,40,60
92,51,60
80,40,60
84,65,120
92,52,60
87,41,60
84,41,60
85,61,120
92,49,60
85,39,60
80,39,60
87,63,60
92,51,60
87,41,60
80,41,60
90,58,60
92,48,60
90,41,60
80,41,60
88,63,60
92,49,60
88,40,60
80,40,60
87,60,60
92,48,60
87,41,60
80,41,45
80,65,48
85,42,48
92,51,48
85,45,36
80,39,36
80,58,45
80,40,60
92,51,60
80,40,60
85,65,120
92,52,60
85,41,60
80,41,60
87,63,120
92,49,60
87,39,60
80,39,60
88,64,60
92,51,60
88,41,60
80,41,60
92,53,60
80,44,60
92,51,60
80,41,60
90,63,60
92,49,60
90,40,60
80,40,60
88,63,60
92,48,60
88,41,60
80,41,60
87,64,48
92,46,48
93,51,48
92,45,48
87,39,48
80,63,48
92,46,48
93,52,48
92,46,48
80,40,48
84,60,48
92,47,48
93,53,48
92,46,48
80,40,48
85,61,48
92,48,48
93,54,48
92,47,48
80,41,48
87,66,48
92,49,48
93,55,48
92,48,48
80,42,48
90,64,48
92,50,48
93,56,48
92,49,48
80,42,48
88,65,48
92,51,48
93,57,48
92,50,48
80,43,48
87,66,48
92,51,48
93,57,48
92,51,48
80,44,48
85,67,240
92,55,60
93,48,60
92,55,60
93,48,60
92,55,60
93,48,60
92,55,60
93,48,60
92,55,60
85,66,240
93,48,60
92,55,60
93,48,60
92,55,60
93,48,60
84,60,120
92,55,60
93,48,60
85,63,480
92,55,60
93,48,60
92,55,60
93,48,60
92,58,60
93,48,60
92,55,60
93,48,60
88,52,44
92,47,44
100,54,44
99,51,44
97,49,44
92,47,44
88,45,44
87,42,44
85,40,44
80,38,44
76,41,42
75,53,60
76,37,60
78,47,60
80,43,60
81,51,60
80,42,60
83,51,60
81,46,60
80,54,120
68,51,180
80,55,120
70,53,180
80,58,120
72,55,180
80,60,120
73,37,30
75,37,30
73,50,60
72,37,60
73,48,60
75,39,30
76,34,15
78,35,15
76,51,60
75,42,60
76,53,60
78,42,60
79,55,60
80,45,60
81,54,60
80,48,60
78,55,60
76,42,60
75,52,60
80,52,60
73,42,30
72,49,510
87,57,60
88,55,60
90,62,60
92,55,60
93,61,60
92,49,60
95,57,60
93,51,60
92,60,120
68,51,180
80,58,120
70,53,180
80,62,120
82,62,120
72,55,180
84,65,120
80,65,120
73,61,20
80,55,20
87,66,20
85,62,60
87,40,60
85,50,60
87,40,60
85,49,60
87,40,60
85,47,60
87,39,60
85,47,60
87,39,60
85,46,60
87,39,60
85,46,60
87,39,60
85,45,60
87,39,60
85,51,60
87,38,60
85,48,60
87,38,60
85,46,60
87,38,60
85,45,60
87,38,60
85,45,60
87,38,60
85,43,60
87,37,60
85,43,60
87,37,60
85,43,60
87,37,60
85,44,60
77,31,60
87,33,60
85,41,60
77,31,60
87,33,60
77,33,60
85,42,60
87,35,60
77,33,60
85,42,60
87,36,60
85,44,60
77,35,60
87,37,60
85,44,60
77,36,60
87,38,60
77,36,60
85,45,60
87,40,60
77,38,60
85,47,60
87,41,60
85,56,60
77,40,60
87,42,60
77,39,60
85,51,60
87,40,60
85,48,60
77,37,60
87,39,60
85,45,60
77,36,60
87,37,60
77,35,60
85,44,60
87,36,60
77,33,60
85,41,60
87,35,60
85,39,60
77,32,60
87,33,60
77,31,60
85,38,60
87,32,60
77,39,60
85,39,60
84,33,60
87,42,60
85,37,60
89,47,60
87,44,60
85,41,60
80,39,60
77,44,60
75,39,60
73,39,60
68,39,60
65,42,60
68,36,60
73,39,60
75,43,60
77,46,60
80,42,60
85,44,60
87,46,60
89,52,60
92,46,60
97,53,60
92,46,60
99,59,60
97,52,60
101,59,60
99,53,60
97,59,60
92,54,60
89,59,60
97,59,60
92,65,60
89,56,60
87,56,60
85,40,60
89,58,60
87,51,60
85,50,60
80,50,60
77,62,60
85,52,60
80,59,60
77,55,60
75,63,60
73,56,60
77,57,60
75,58,60
73,69,60
68,60,60
65,63,60
73,58,60
68,69,60
65,64,60
63,66,60
61,68,60
65,70,80
63,77,80
61,82,70
61,85,720
61,73,80
59,70,80
61,68,80
59,77,768
61,64,48
64,70,48
62,66,48
61,66,40
61,74,800
61,73,80
59,70,80
61,68,80
59,77,746
57,54,39
56,62,40
59,56,40
57,56,39
56,56,41
56,65,958
56,46,118
56,54,746
57,45,39
56,44,40
59,50,40
57,44,39
56,41,40
56,56,1680
48,26,240
54,30,240
51,26,240
61,32,480
52,32,480
64,40,480
56,32,480
61,32,480
66,32,480
69,40,480
57,32,480
61,32,480
52,32,480
64,40,480
56,32,480
64,40,480
56,32,480
52,32,480
61,32,480
68,40,480
59,32,480
56,32,480
64,32,480
57,32,480
63,32,480
59,32,480
71,40,480
68,40,480
56,32,480
59,32,480
64,32,480
60,44,480
68,56,480
64,56,360
56,44,480
54,44,480
63,57,60
64,60,480
61,55,600
68,66,480
73,75,720
69,65,240
66,58,240
60,67,120
61,69,120
63,72,120
64,74,120
57,65,120
64,74,120
63,66,120
61,78,120
61,63,60
63,63,60
73,70,240
61,70,360
64,56,240
68,56,240
60,72,120
61,78,120
67,62,390
73,62,390
64,62,390
76,78,390
80,85,120
68,68,120
73,68,120
66,64,330
72,67,300
75,71,270
81,86,240
67,71,60
68,76,60
71,80,60
69,71,60
68,64,60
69,65,60
72,67,60
73,69,60
75,70,69
76,72,68
78,74,69
79,80,69
80,83,68
83,88,69
81,82,70
80,69,60
81,61,60
80,69,60
81,63,60
80,72,60
81,64,60
80,72,60
81,65,60
80,74,60
81,66,60
80,74,60
81,67,60
80,76,60
81,68,60
80,77,60
81,69,60
80,79,60
81,70,60
80,79,60
81,70,60
80,81,60
81,72,60
80,82,60
81,73,60
80,83,60
81,74,60
80,84,60
81,76,60
80,87,60
81,76,60
80,86,60
81,77,60
80,88,60
81,78,60
80,88,60
81,79,60
80,91,60
81,81,60
80,91,60
81,81,60
80,93,60
81,82,60
80,93,60
81,83,60
80,95,60
81,85,60
80,95,60
81,85,60
80,97,60
81,86,60
80,97,60
81,87,60
80,99,60
81,88,60
80,100,60
81,90,60
80,101,60
81,88,60
80,95,60
81,82,60
80,91,60
81,80,60
80,86,60
81,75,60
80,83,60
81,71,60
80,79,60
81,68,60
80,74,60
81,64,60
80,70,60
81,61,60
80,66,60
81,57,60
80,61,60
81,53,60
80,59,60
81,50,60
80,54,60
81,46,60
80,47,107
81,45,97
80,44,96
79,42,96
80,41,97
81,39,97
82,38,97
83,37,96
84,35,96
85,48,120
76,44,300
81,46,630
85,57,600
80,40,120
84,48,120
85,51,120
81,43,120
87,53,120
83,45,120
88,56,120
85,47,120
76,42,120
81,50,120
87,55,120
83,46,120
85,49,120
81,41,120
80,45,120
83,54,120
83,48,60
85,44,60
80,48,360
83,57,360
82,51,120
79,46,120
83,54,120
80,45,120
85,57,480
80,48,480
73,48,480
81,54,120
78,45,120
73,45,120
81,57,600
78,48,600
73,48,600
80,48,120
77,40,120
81,51,120
78,43,120
80,45,120
83,53,120
85,56,120
81,47,120
73,42,120
78,50,120
83,55,120
80,46,120
78,41,120
81,49,120
80,54,120
76,45,120
80,48,60
81,48,60
80,57,360
76,48,360
75,46,120
79,51,120
80,54,480
76,45,480
69,48,40
74,48,40
80,48,40
78,57,360
74,48,360
73,46,120
77,51,120
74,45,240
78,54,240
66,48,40
69,48,40
76,48,40
69,48,1440
74,57,360
66,48,360
73,51,120
65,46,120
74,54,840
66,45,840
64,31,90
73,37,90
73,37,240
64,31,240
64,35,610
73,45,600
69,36,600
68,36,120
72,43,120
69,38,120
73,45,120
71,40,120
75,47,120
76,50,120
73,42,120
69,45,120
64,37,120
71,41,120
75,49,120
69,36,120
73,44,120
71,48,120
68,40,120
71,43,60
73,39,60
71,51,360
68,43,360
70,45,120
67,41,120
68,40,120
71,48,120
73,51,480
68,43,480
61,43,480
69,48,120
61,40,120
66,40,120
66,43,600
69,51,600
61,43,600
65,36,120
68,43,120
69,45,120
66,38,120
71,47,60
68,40,60
66,40,30
69,40,30
71,40,30
68,40,30
73,50,120
69,42,120
66,45,120
61,37,120
71,49,120
68,41,120
69,44,120
66,36,120
64,40,120
68,48,120
68,43,60
69,43,60
64,43,360
68,51,360
63,41,120
67,45,120
68,48,480
64,40,480
57,43,40
62,43,40
68,43,40
57,35,720
66,51,360
62,43,360
61,41,120
65,45,120
62,40,240
66,48,240
54,38,360
57,45,360
56,40,120
53,36,120
54,36,1440
57,43,1440
54,32,480
56,38,480
48,32,480
50,32,480
49,32,480
56,38,480
53,32,480
50,32,480
56,38,480
54,32,480
56,38,480
49,32,480
53,32,480
50,32,480
56,38,480
54,32,480
53,28,480
49,28,480
56,34,480
48,32,480
54,32,480
51,32,480
56,38,480
49,28,1440
44,28,1440
53,32,1440
56,38,1440
73,39,20
80,42,20
85,45,900
80,50,360
73,44,120
80,50,360
81,46,60
73,39,20
80,42,20
85,45,900
80,50,360
83,53,120
81,51,360
80,46,60
73,39,20
78,42,20
85,45,900
78,50,360
73,44,120
78,50,360
80,46,60
73,39,20
81,42,20
85,45,380
81,50,360
85,54,540
83,50,360
81,46,60
73,39,20
80,42,20
85,45,900
80,50,360
73,44,120
80,50,360
81,46,60
73,39,20
80,42,20
85,45,900
80,50,360
83,53,120
81,51,360
80,46,60
73,39,20
78,42,20
85,45,900
78,50,360
73,44,120
78,50,360
80,46,60
73,39,20
78,42,20
85,45,900
78,50,360
73,54,120
81,50,360
73,46,60
73,39,20
80,42,20
85,45,900
80,50,360
73,44,120
80,50,360
81,46,60
73,39,20
80,42,20
85,45,900
80,50,360
83,53,120
81,51,360
80,46,60
73,39,20
78,42,20
85,45,920
78,50,360
73,44,120
78,50,360
80,46,60
73,39,20
81,42,20
85,45,380
81,50,360
85,54,540
83,50,360
81,46,60
73,39,20
80,42,20
85,45,900
80,50,360
73,44,120
80,50,360
81,46,60
73,39,20
80,42,20
85,45,900
80,50,360
83,53,120
81,51,360
80,46,60
73,39,20
78,42,20
85,45,900
78,50,360
73,44,120
78,50,360
80,46,60
73,39,20
78,42,20
85,45,892
78,50,360
73,54,120
81,50,360
73,46,32
80,42,30
85,45,30
80,50,360
73,44,120
85,50,360
73,46,60
80,42,30
85,45,30
80,50,360
73,44,120
85,50,360
73,46,60
78,42,30
85,45,30
78,50,360
73,44,120
85,50,360
73,46,60
81,42,30
85,45,30
81,50,360
73,44,120
85,50,360
73,46,60
80,42,30
85,45,30
80,50,360
73,44,120
85,50,360
73,46,60
80,42,30
85,45,30
80,50,360
73,44,120
85,50,360
73,46,60
78,42,30
85,45,30
78,50,360
73,44,120
85,50,360
73,46,60
81,42,30
85,45,30
81,50,360
73,44,120
85,50,360
73,46,120
68,50,480
73,45,60
73,46,60
73,46,60
73,46,60
73,46,60
73,46,60
73,46,60
73,43,60
73,43,60
73,43,60
73,45,60
73,45,60
73,45,60
66,50,480
73,44,60
73,44,60
73,44,60
73,44,60
73,44,60
73,44,60
68,46,60
73,44,60
73,44,60
73,44,60
73,45,60
73,45,60
73,45,60
68,50,480
73,44,60
73,44,60
73,44,60
73,44,60
73,44,60
73,44,60
71,49,60
73,46,60
73,46,60
73,46,60
73,45,60
73,45,60
73,45,60
66,50,480
73,42,60
73,42,60
73,42,60
73,42,60
73,42,60
73,42,60
68,50,60
73,45,60
73,45,60
73,45,60
73,44,60
73,44,60
73,44,60
68,57,480
80,57,480
73,45,60
73,45,60
73,45,60
73,45,60
73,45,60
73,45,60
73,45,60
81,54,240
69,54,240
73,45,60
73,45,60
73,45,60
80,54,240
68,54,240
73,46,60
73,46,60
73,46,60
66,55,480
78,55,480
73,42,60
73,42,60
73,42,60
73,42,60
73,42,60
73,42,60
80,50,60
68,50,60
81,55,480
69,55,480
73,43,60
73,43,60
73,43,60
66,50,480
78,50,480
73,43,60
73,43,60
73,43,60
68,57,480
80,57,480
73,41,60
73,41,60
73,41,60
73,41,60
73,41,60
83,49,240
71,49,240
73,43,60
81,56,240
69,56,240
73,44,60
73,44,60
73,44,60
80,54,240
68,54,240
73,44,60
73,44,60
73,44,60
78,55,480
66,55,480
73,44,60
73,44,60
73,44,60
73,44,60
73,44,60
73,44,60
80,50,60
68,50,60
69,57,480
81,57,480
73,43,60
73,44,60
73,44,60
78,54,480
66,54,480
73,44,60
73,44,60
73,44,60
85,57,60
73,43,60
73,44,60
73,44,60
85,54,60
73,44,60
73,44,60
73,44,60
85,57,60
73,43,60
73,44,60
73,44,60
85,54,60
73,44,60
73,44,60
73,44,60
85,57,60
73,43,60
73,44,60
73,44,60
85,54,60
73,44,60
73,44,60
73,44,60
85,57,60
73,43,60
73,44,60
73,44,60
85,54,60
73,44,60
73,44,60
73,44,60
85,57,60
73,43,60
73,44,60
73,44,60
85,54,60
73,44,60
73,44,60
73,44,60
85,57,60
73,43,60
73,44,60
73,44,60
85,54,60
73,44,60
73,44,60
73,44,60
85,57,60
73,43,60
73,44,60
73,44,60
85,54,60
73,44,60
73,44,60
73,44,60
85,57,60
73,43,60
73,44,60
73,44,60
85,54,60
73,44,60
73,44,60
73,44,60
85,57,60
73,43,60
85,51,60
85,51,60
97,63,60
85,44,60
85,44,60
73,44,60
85,57,60
73,43,60
73,44,60
73,44,60
85,55,60
73,45,60
73,45,60
73,45,60
85,59,60
73,44,60
85,53,60
85,53,60
97,65,60
85,46,60
85,47,60
73,47,60
85,60,60
73,46,60
73,47,60
73,47,60
85,59,60
73,47,60
73,48,60
73,48,60
85,63,60
73,48,60
85,60,60
85,60,60
97,76,60
85,49,60
85,49,60
73,49,60
85,65,60
73,48,60
73,49,60
73,50,60
85,62,60
73,51,60
73,51,60
73,51,60
85,67,60
73,50,60
85,64,60
85,63,60
97,82,60
85,61,60
85,61,60
73,52,60
85,69,60
73,51,60
73,53,60
73,53,60
85,66,60
73,54,60
73,54,60
73,54,60
85,71,60
73,53,60
85,68,60
85,68,60
97,83,60
85,64,60
85,64,60
73,56,60
85,74,60
73,56,60
85,65,60
85,65,60
97,83,60
85,64,60
85,64,60
73,59,60
85,77,60
73,58,60
85,72,60
85,72,60
97,92,60
85,68,60
85,68,60
73,62,60
85,80,60
73,61,60
85,72,60
85,72,60
97,93,60
85,76,60
85,76,60
73,63,60
84,85,60
72,72,60
77,72,60
85,81,120
73,68,120
80,68,120
83,85,360
77,72,360
71,72,360
85,79,120
73,67,120
72,72,60
77,72,60
84,85,60
85,81,120
73,68,120
80,68,120
77,72,360
71,72,360
83,85,360
73,67,120
85,79,120
81,72,60
72,72,60
84,85,60
73,68,120
85,81,120
82,68,120
70,72,360
78,72,360
82,85,360
85,79,120
73,67,120
82,67,120
84,85,60
81,72,60
72,72,60
82,68,120
85,81,120
73,68,120
78,72,360
82,85,360
70,72,360
73,67,120
85,79,120
84,85,60
72,72,60
73,68,120
80,68,120
85,81,120
87,85,360
83,72,360
75,72,360
73,67,120
85,79,120
80,67,120
72,72,60
84,85,60
73,68,120
85,81,120
80,68,120
75,72,360
87,85,360
83,72,360
73,67,120
80,67,120
85,79,120
81,72,60
84,85,60
72,72,60
82,68,120
73,68,120
85,81,120
90,85,360
82,72,360
78,72,360
85,79,120
73,67,120
84,85,60
72,72,60
81,72,60
73,68,120
85,81,120
82,68,120
90,85,360
82,72,360
78,72,360
85,72,120
73,61,120
72,52,60
77,52,60
84,62,60
85,59,120
80,49,120
73,49,120
83,62,360
71,52,360
77,52,360
85,57,120
73,48,120
77,52,60
72,52,60
84,62,60
73,49,120
80,49,120
85,59,120
71,52,360
83,62,360
77,52,360
85,57,120
73,48,120
84,62,60
81,52,60
72,52,60
85,59,120
73,49,120
82,49,120
70,52,360
78,52,360
82,62,360
73,48,120
85,57,120
81,52,60
72,52,60
84,62,60
85,59,120
82,49,120
73,49,120
82,62,360
70,52,360
78,52,360
85,57,120
73,48,120
84,62,60
72,52,60
85,59,120
73,49,120
80,49,120
83,52,360
75,52,360
87,62,360
85,57,120
80,48,120
73,48,120
84,62,60
72,52,60
85,59,120
80,49,120
73,49,120
87,62,360
83,52,360
75,52,360
80,48,120
73,48,120
85,57,120
84,62,60
72,52,60
81,52,60
73,49,120
85,59,120
82,49,120
90,62,360
82,52,360
78,52,360
85,57,120
73,48,120
84,62,60
72,52,60
81,52,60
85,59,120
82,49,120
73,49,120
82,52,360
90,62,360
78,52,360
85,57,120
73,48,120
87,64,90
83,49,90
75,49,90
83,56,90
78,44,90
75,44,90
78,56,90
71,44,90
75,56,90
75,44,90
78,56,90
78,46,90
83,58,90
83,48,90
87,60,90
90,62,90
87,49,90
73,51,90
82,51,90
85,64,90
78,44,90
82,55,90
78,55,90
73,44,90
70,44,90
73,55,90
73,45,90
78,57,90
78,44,90
82,56,90
73,49,300
82,49,300
78,49,300
85,62,300
75,49,210
78,49,180
83,49,150
87,64,120
78,44,90
83,56,90
75,44,90
78,56,90
75,56,90
71,44,90
75,44,90
78,56,90
83,58,90
78,46,90
83,48,90
87,60,90
90,62,90
87,49,90
82,51,90
85,64,90
78,44,90
82,55,90
78,55,90
73,44,90
73,55,90
70,44,90
73,45,90
78,57,90
78,44,90
82,56,90
78,49,450
82,49,450
85,62,450
73,49,450
84,65,120
97,50,120
85,59,120
97,50,120
83,65,240
97,50,120
85,60,240
97,50,120
84,65,120
97,50,120
85,59,120
97,50,120
83,65,240
97,50,120
85,60,240
97,50,120
84,65,120
97,50,120
85,59,120
97,50,120
82,65,240
97,50,120
85,60,240
97,50,120
84,65,120
97,50,120
85,59,120
97,50,120
82,65,240
97,50,120
85,60,240
97,50,120
84,65,120
97,50,120
85,59,120
97,50,120
89,65,240
83,56,240
97,50,120
85,60,240
97,50,120
84,65,120
97,50,120
85,59,120
97,50,120
83,55,240
89,65,240
97,50,120
85,60,240
97,50,120
82,65,120
97,50,120
85,59,120
97,50,120
90,65,240
82,53,240
97,50,120
85,60,240
97,50,120
82,65,120
97,50,120
85,59,120
97,50,120
90,65,240
82,58,240
97,50,120
85,60,240
97,50,120
87,65,120
97,47,120
83,60,120
97,47,120
82,60,120
97,47,120
83,62,120
97,47,120
87,65,120
97,48,120
83,62,120
97,47,120
90,65,120
97,46,120
87,61,120
97,48,120
85,65,120
97,47,120
82,60,120
97,47,120
81,60,120
97,47,120
82,62,120
97,47,120
85,65,120
97,48,120
82,62,120
97,47,120
90,65,120
97,46,120
85,61,120
97,48,120
87,65,120
97,47,120
83,60,120
97,47,120
82,60,120
97,47,120
83,62,120
97,47,120
87,65,120
97,48,120
83,62,120
97,47,120
90,65,120
97,46,120
87,61,120
97,48,120
85,65,120
97,47,120
82,60,120
97,47,120
81,60,120
97,47,120
82,62,120
97,47,120
85,65,120
97,48,120
82,62,120
97,47,120
90,65,120
97,46,120
85,61,120
97,48,120
83,55,120
89,65,120
97,48,120
92,62,150
85,52,150
97,47,120
83,55,120
89,65,120
97,46,120
85,51,150
92,61,150
97,48,120
89,65,120
83,55,120
97,48,120
85,52,150
92,62,150
97,47,120
83,55,120
89,65,120
97,46,120
85,51,150
92,61,150
97,48,120
90,65,120
82,55,120
97,48,120
94,62,150
85,52,150
97,47,120
90,65,120
82,55,120
97,46,120
94,61,150
85,51,150
97,48,120
82,55,120
90,65,120
97,48,120
85,52,150
94,62,150
97,47,120
82,55,120
90,65,120
97,46,120
85,51,150
94,61,150
97,48,120
83,55,120
89,65,120
97,48,120
92,62,150
85,52,150
97,47,120
83,55,120
89,65,120
97,46,120
92,61,150
85,51,150
97,48,120
89,65,120
83,55,120
97,48,120
85,52,150
92,62,150
97,47,120
83,55,120
89,65,120
97,46,120
85,51,150
92,61,150
97,48,120
82,55,120
90,65,120
97,48,120
85,52,150
94,62,150
97,47,120
82,55,120
90,65,120
97,46,120
85,51,150
94,61,150
97,48,120
82,55,120
90,65,120
97,48,120
94,62,150
85,52,150
97,47,120
82,55,120
90,65,120
97,46,120
85,51,150
94,61,150
97,48,120
83,55,120
89,65,120
97,48,120
92,62,150
85,52,150
97,47,120
89,65,120
83,55,120
97,46,120
85,51,150
92,61,150
97,48,120
89,65,120
83,55,120
97,48,120
85,52,150
92,62,150
97,47,120
89,65,480
85,55,480
77,55,480
82,55,120
90,65,120
97,48,120
94,62,150
85,52,150
97,47,120
90,65,120
82,55,120
97,46,120
94,61,150
85,51,150
97,48,120
82,55,120
90,65,120
97,48,120
94,62,150
85,52,150
97,47,120
85,55,480
90,65,480
78,55,480
89,65,120
83,55,120
97,48,120
92,62,150
85,52,150
97,47,120
89,65,120
83,55,120
97,46,120
85,51,150
92,61,150
97,48,120
83,55,120
89,65,120
97,48,120
85,52,150
92,62,150
97,47,120
89,65,480
85,55,480
77,55,480
90,65,120
82,55,120
97,48,120
85,52,150
94,62,150
97,47,120
82,55,120
90,65,120
97,46,120
85,51,150
94,61,150
97,48,120
82,55,120
90,65,120
97,48,120
85,52,150
94,62,150
97,47,120
85,55,480
78,55,480
90,65,480
83,66,60
99,82,120
80,65,720
82,65,120
83,69,120
80,65,120
82,63,60
97,83,120
78,65,720
80,65,120
82,69,120
78,59,120
77,65,120
78,61,120
80,65,120
82,61,120
83,65,120
85,60,120
87,65,120
89,59,120
90,61,30
92,61,30
90,75,120
89,65,120
90,71,120
92,65,120
94,73,120
92,65,120
94,73,120
90,65,120
83,50,20
89,54,20
92,57,20
99,82,120
77,55,720
80,65,720
82,66,120
78,56,120
80,59,120
83,70,120
77,56,120
80,66,120
82,46,20
85,58,20
90,61,2
97,85,120
70,57,720
78,67,720
71,58,120
80,68,120
73,61,120
82,73,120
78,63,120
70,53,120
77,69,120
68,58,120
78,65,120
70,54,120
71,59,120
80,70,120
73,55,120
82,65,120
75,59,120
83,70,120
77,55,120
85,65,120
87,71,120
78,60,120
80,55,120
89,64,120
82,69,120
90,83,120
80,61,120
89,72,120
82,67,120
90,79,120
83,61,120
92,72,120
94,82,120
85,70,120
83,62,120
92,73,120
94,83,120
85,70,120
90,74,120
82,62,120
87,58,30
94,62,30
102,93,120
75,77,720
66,65,720
68,63,120
77,75,120
78,78,120
70,66,120
66,60,120
75,71,120
85,58,30
92,62,30
101,93,120
65,65,720
73,77,720
66,63,120
75,75,120
68,66,120
77,78,120
65,60,120
73,71,120
72,70,120
63,59,120
65,61,120
73,72,120
75,74,120
66,62,120
68,65,120
77,77,120
70,67,120
78,79,120
72,63,120
80,75,120
82,77,120
73,65,120
84,80,120
75,68,120
77,69,120
85,82,120
75,67,120
84,79,120
85,79,120
77,67,120
78,68,120
87,80,120
89,87,120
80,73,120
78,68,120
87,80,120
80,73,120
89,87,120
85,80,120
77,68,120
87,58,30
94,62,30
102,97,120
75,80,720
66,68,720
77,79,120
68,66,120
78,82,120
70,69,120
75,75,120
66,63,120
85,61,30
92,65,30
101,98,120
73,82,720
65,69,720
75,80,120
66,67,120
68,70,120
77,83,120
73,76,120
65,64,120
72,75,120
63,63,120
73,77,120
65,65,120
66,66,120
75,79,120
77,83,120
68,70,120
78,86,120
70,73,120
80,81,120
72,68,120
73,70,120
82,83,120
75,74,120
84,87,120
85,87,240
77,73,240
73,73,240
72,64,120
84,76,120
86,87,240
74,73,240
73,64,120
85,76,120
87,88,240
75,74,240
74,64,120
86,77,120
76,75,240
88,89,240
75,66,120
87,79,120
77,76,240
89,91,240
88,78,120
76,66,120
90,92,240
78,77,240
77,67,120
89,80,120
91,93,240
79,78,240
90,82,120
78,69,120
80,78,240
92,93,240
91,81,120
79,68,120
81,80,240
93,95,240
80,69,120
92,82,120
94,96,240
82,81,240
93,82,120
81,68,120
83,81,240
95,97,240
82,71,120
94,84,120
95,98,240
83,82,240
96,84,120
84,70,120
89,86,240
97,102,240
85,86,240
84,80,240
96,95,240
97,102,240
89,86,240
85,86,240
84,80,240
96,95,240
90,80,240
85,86,240
97,102,240
89,86,240
84,80,240
96,95,240
90,80,240
97,102,240
89,86,240
85,86,240
84,80,240
90,80,240
96,95,240
89,86,240
85,86,240
97,102,240
72,68,260
84,81,260
73,74,260
85,88,260
84,81,260
72,68,260
73,74,120
85,88,120
72,74,260
60,62,260
73,80,260
61,68,260
60,61,240
72,72,240
61,77,480
73,93,480
65,64,120
68,76,120
65,71,480
77,84,480
73,76,120
68,64,120
82,100,720
70,85,720
73,64,120
77,76,120
77,76,120
73,64,120
68,77,120
80,92,120
78,96,120
70,64,120
73,81,120
66,64,120
77,88,120
65,74,120
76,88,120
64,74,120
63,69,180
66,71,140
70,73,140
75,89,120
74,88,120
62,74,120
61,63,180
66,67,160
70,70,140
73,83,120
60,76,120
72,91,120
61,74,120
73,88,120
73,93,480
61,77,480
65,64,120
68,76,120
65,71,480
77,84,480
73,76,120
68,64,120
82,100,720
70,85,720
77,76,120
73,64,120
73,64,120
77,76,120
80,92,120
68,77,120
73,81,120
66,64,120
70,64,120
78,96,120
65,74,120
77,88,120
63,74,120
75,88,120
66,60,130
70,61,120
61,58,120
73,74,120
66,74,480
73,74,480
78,89,480
70,74,480
73,68,480
82,80,480
70,68,480
78,68,480
89,55,120
83,55,120
97,56,120
92,57,120
85,57,120
97,59,120
84,60,120
89,60,120
97,61,120
85,63,120
92,63,120
97,64,120
89,66,120
83,66,120
97,67,120
92,69,120
85,69,120
97,69,120
89,68,120
84,68,120
97,67,120
92,67,120
85,67,120
97,66,120
82,71,120
90,71,120
97,64,120
85,67,120
94,67,120
97,63,120
84,68,120
90,68,120
97,62,120
85,68,120
94,68,120
97,61,120
90,69,120
82,69,120
97,60,120
94,63,120
85,63,120
97,58,120
84,61,120
90,61,120
97,57,120
85,61,120
94,61,120
97,56,120
89,60,120
83,60,120
97,60,120
85,61,120
92,61,120
97,62,120
84,62,120
89,62,120
97,63,120
85,64,120
92,64,120
97,66,120
83,66,120
89,66,120
97,67,120
85,69,120
92,69,120
97,69,120
84,68,120
89,68,120
97,67,120
92,67,120
85,67,120
97,66,120
82,71,120
90,71,120
97,64,120
94,67,120
85,67,120
97,63,120
84,68,120
90,68,120
97,62,120
85,68,120
94,68,120
97,61,120
90,69,120
82,69,120
97,59,120
94,61,120
85,61,120
97,56,120
90,58,120
82,58,120
97,52,120
94,57,120
85,57,120
97,50,120
83,55,120
89,65,120
97,48,120
92,62,150
85,52,150
97,47,120
89,65,120
83,55,120
97,46,120
92,61,150
85,51,150
97,48,120
89,65,120
83,55,120
97,48,120
92,62,150
85,52,150
97,47,120
77,55,480
85,55,480
89,65,480
90,65,120
82,55,120
97,48,120
85,52,150
94,62,150
97,47,120
90,65,120
82,55,120
97,46,120
85,51,150
94,61,150
97,48,120
90,65,120
82,55,120
97,48,120
85,52,150
94,62,150
97,47,120
85,55,480
90,65,480
78,55,480
89,65,120
83,55,120
97,48,120
92,62,150
85,52,150
97,47,120
89,65,120
83,55,120
97,46,120
92,61,150
85,51,150
97,48,120
83,55,120
89,65,120
97,48,120
92,62,150
85,52,150
97,47,120
85,55,480
89,65,480
77,55,480
82,55,120
90,65,120
97,48,120
94,62,150
85,52,150
97,47,120
82,55,120
90,65,120
97,46,120
94,61,150
85,51,150
97,48,120
82,55,120
90,65,120
97,48,120
94,62,150
85,52,150
97,47,120
90,65,420
85,55,420
78,55,420
87,65,120
97,47,120
83,60,120
97,47,120
82,60,120
97,47,120
83,62,120
97,47,120
87,65,120
97,48,120
83,62,120
97,47,120
90,65,120
97,46,120
87,61,120
97,48,120
85,65,120
97,47,120
82,60,120
97,47,120
81,60,120
97,47,120
82,62,120
97,47,120
85,65,120
97,48,120
82,62,120
97,47,120
90,65,120
97,46,120
85,61,120
97,48,120
87,65,120
97,47,120
83,60,120
97,47,120
82,60,120
97,47,120
83,62,120
97,47,120
87,65,120
97,48,120
83,62,120
97,47,120
90,65,120
97,46,120
87,61,120
97,48,120
85,65,120
97,47,120
82,60,120
97,47,120
81,60,120
97,47,120
82,62,120
97,47,120
85,65,120
97,48,120
82,62,120
97,47,120
90,65,120
97,46,120
49,46,120
51,48,120
53,50,120
54,53,120
58,50,60
56,55,120
55,46,120
56,50,120
53,46,120
54,46,120
56,48,120
58,50,120
59,53,120
63,50,60
61,55,120
60,46,120
61,50,120
58,46,120
59,55,120
62,50,60
63,46,60
56,50,120
58,50,60
59,46,60
53,55,120
55,50,60
56,46,60
49,50,120
52,50,60
53,46,60
54,55,120
57,50,60
58,46,60
49,50,120
53,50,60
54,46,60
46,55,120
48,50,60
49,46,60
42,50,120
61,40,120
73,48,120
63,42,120
75,50,120
65,44,120
77,52,120
66,47,120
78,55,120
82,52,60
68,48,120
80,57,120
67,40,120
79,48,120
80,52,120
68,44,120
77,48,120
65,40,120
78,48,120
66,40,120
68,42,120
80,50,120
82,52,120
70,44,120
71,47,120
83,55,120
90,52,60
73,48,120
85,57,120
84,48,120
72,40,120
73,44,120
85,52,120
70,40,120
82,48,120
83,66,120
75,50,120
86,60,60
87,55,60
71,50,120
80,60,120
82,60,60
83,55,60
77,66,120
68,50,120
79,60,60
80,55,60
73,60,120
65,50,120
76,60,60
77,55,60
78,66,120
70,50,120
81,60,60
82,55,60
73,60,120
66,50,120
77,60,60
78,55,60
70,66,120
61,50,120
72,60,60
73,55,60
58,50,235
66,60,480
44,46,120
46,48,120
48,50,120
49,53,120
53,50,60
51,55,120
50,46,120
51,50,120
48,46,120
49,46,120
51,48,120
53,50,120
54,53,120
58,50,60
56,55,120
55,46,120
56,50,120
53,46,120
54,55,120
57,50,60
58,46,60
51,50,120
53,50,60
54,46,60
48,55,120
50,50,60
51,46,60
44,50,120
47,50,60
48,46,60
49,55,120
52,50,60
53,46,60
44,50,120
48,50,60
49,46,60
41,55,120
43,50,60
44,46,60
37,50,120
72,44,120
80,52,120
68,44,120
70,46,120
73,46,120
82,55,120
72,48,120
75,48,120
84,57,120
77,51,120
73,51,120
85,60,120
75,52,120
78,52,120
87,62,120
74,44,120
77,44,120
86,52,120
75,48,120
78,48,120
87,57,120
84,52,120
72,44,120
75,44,120
85,52,120
73,44,120
77,44,120
75,46,120
87,55,120
80,46,120
89,57,120
85,48,120
77,48,120
90,60,120
78,51,120
87,51,120
92,62,120
83,52,120
80,52,120
79,44,120
91,52,120
88,44,120
92,57,120
89,48,120
80,48,120
89,52,120
77,44,120
85,44,120
82,55,120
90,72,120
93,66,60
94,60,60
87,66,120
78,55,120
89,66,60
90,60,60
84,72,120
75,55,120
86,66,60
87,60,60
80,66,120
72,55,120
83,66,60
84,60,60
85,72,120
77,55,120
88,66,60
89,60,60
73,55,120
80,66,120
84,66,60
85,60,60
77,72,120
68,55,120
79,66,60
80,60,60
65,55,238
73,66,480
80,50,120
84,50,120
92,59,120
94,63,120
85,52,120
82,52,120
87,55,120
84,55,120
96,65,120
89,58,120
97,69,120
85,58,120
90,64,120
99,78,120
87,64,120
86,55,120
89,55,120
98,64,120
87,60,120
90,60,120
99,71,120
96,64,120
87,55,120
84,55,120
89,55,120
97,64,120
85,55,120
87,57,120
92,57,120
99,69,120
89,60,120
101,71,120
97,60,120
102,75,120
90,63,120
99,63,120
104,78,120
92,64,120
95,64,120
103,64,120
91,55,120
100,55,120
101,60,120
92,60,120
104,71,120
89,55,120
101,64,120
97,55,120
93,82,60
102,90,120
94,69,120
90,75,60
89,82,60
99,82,120
90,69,120
90,75,60
86,82,60
96,90,120
87,69,120
84,75,60
83,82,60
92,82,120
84,69,120
80,75,60
73,59,240
85,70,240
77,59,240
86,72,240
74,61,240
78,61,240
79,62,240
87,74,240
75,62,240
88,78,240
76,66,240
80,66,240
77,67,240
89,79,240
81,79,240
76,64,240
88,77,240
80,64,240
79,61,240
75,61,240
87,73,240
74,59,240
78,59,240
86,70,240
79,59,240
87,70,240
75,59,240
88,72,240
76,61,240
80,61,240
81,62,240
77,62,240
89,74,240
78,66,240
82,66,240
90,78,240
79,67,240
91,79,240
83,79,240
82,64,240
78,64,240
90,77,240
77,62,240
89,74,240
81,62,240
76,60,240
88,71,240
80,60,240
81,60,240
89,71,240
77,60,240
78,62,240
90,73,240
82,62,240
79,63,240
91,75,240
83,63,240
80,67,240
84,67,240
92,79,240
93,80,240
81,68,240
85,80,240
92,79,240
84,65,240
80,65,240
91,75,240
83,62,240
79,62,240
82,60,240
90,72,240
78,60,240
83,61,240
91,74,240
79,61,240
84,64,240
92,76,240
80,64,240
93,78,240
81,65,240
85,65,240
86,68,240
82,68,240
94,82,240
87,71,240
83,71,240
95,85,240
84,74,240
96,88,240
88,74,240
89,75,240
97,90,240
85,75,240
98,93,240
86,79,240
90,79,240
99,95,240
87,81,240
91,81,240
100,100,240
92,83,240
88,83,240
89,87,240
101,103,240
93,87,240
100,101,240
92,85,240
88,85,240
91,98,240
87,84,240
99,98,240
90,82,240
86,82,240
98,97,240
85,81,240
97,96,240
89,81,240
84,80,240
88,80,240
96,95,240
83,78,240
95,94,240
87,78,240
94,93,240
82,77,240
86,77,240
93,92,240
81,77,240
85,77,240
86,76,240
94,90,240
82,76,240
95,89,240
83,75,240
87,75,240
84,77,240
88,77,240
96,92,240
97,94,240
85,78,240
89,78,240
98,96,240
90,81,240
86,81,240
87,84,240
91,84,240
99,98,240
100,101,240
92,85,240
88,85,240
89,88,240
93,88,240
101,105,240
100,101,240
88,85,240
92,85,240
99,98,240
87,84,240
91,98,240
86,82,240
90,82,240
98,97,240
97,96,240
89,81,240
85,81,240
90,80,240
84,80,240
96,95,240
89,90,240
97,107,240
85,90,240
84,84,240
96,99,240
90,84,240
85,90,240
89,90,240
97,107,240
96,99,240
90,84,240
84,84,240
85,90,240
97,107,240
89,90,240
72,68,260
84,81,260
85,88,260
73,74,260
84,81,260
72,68,260
85,88,120
73,74,120
73,74,260
61,62,260
74,80,260
62,68,260
75,72,240
63,61,240
76,97,480
64,80,480
71,79,120
68,67,120
68,74,480
80,88,480
71,67,120
76,79,120
85,105,720
73,89,720
80,79,120
76,67,120
80,79,120
76,67,120
71,80,120
83,96,120
76,85,120
73,85,120
81,100,120
69,85,120
80,92,120
68,77,120
67,77,120
79,92,120
66,72,180
69,74,140
73,76,140
78,93,120
77,92,120
65,77,120
64,60,180
69,64,160
73,67,140
76,80,120
63,75,120
75,90,120
64,65,180
69,65,160
73,65,140
76,77,120
64,80,480
76,97,480
71,79,120
68,67,120
68,74,480
80,88,480
76,79,120
71,67,120
73,89,720
85,105,720
76,67,120
80,79,120
76,67,120
80,79,120
83,96,120
71,80,120
81,95,120
69,79,120
76,79,120
73,79,120
80,92,120
68,77,120
78,92,120
66,77,120
69,63,130
73,64,120
64,60,120
76,77,120
73,77,480
76,77,480
69,77,480
81,93,480
85,84,480
73,71,480
81,71,480
76,71,480
86,57,120
92,57,120
100,58,120
88,59,120
95,59,120
100,61,120
92,63,120
86,63,120
100,64,120
88,66,120
95,66,120
100,67,120
86,69,120
92,69,120
100,70,120
95,72,120
88,72,120
100,72,120
92,71,120
86,71,120
100,70,120
95,70,120
88,70,120
100,69,120
85,74,120
93,74,120
100,67,120
88,70,120
97,70,120
100,66,120
85,71,120
93,71,120
100,65,120
97,71,120
88,71,120
100,64,120
85,72,120
93,72,120
100,63,120
97,66,120
88,66,120
100,60,120
93,64,120
85,64,120
100,59,120
97,64,120
88,64,120
100,58,120
86,63,120
92,63,120
100,63,120
95,64,120
88,64,120
100,65,120
86,65,120
92,65,120
100,66,120
95,67,120
88,67,120
100,69,120
86,69,120
92,69,120
100,70,120
88,72,120
95,72,120
100,72,120
92,71,120
86,71,120
100,70,120
95,70,120
88,70,120
100,69,120
85,74,120
93,74,120
100,67,120
97,70,120
88,70,120
100,66,120
85,71,120
93,71,120
100,65,120
97,71,120
88,71,120
100,64,120
93,72,120
85,72,120
100,61,120
88,64,120
97,64,120
100,58,120
85,60,120
93,60,120
100,54,120
97,59,120
88,59,120
100,52,120
98,71,60
90,71,60
100,75,60
102,79,40
95,71,60
86,71,60
97,75,60
98,80,40
83,71,60
92,71,60
93,75,60
95,80,40
88,71,60
80,71,60
90,75,60
92,80,40
69,66,69
71,67,68
73,68,69
74,69,69
76,70,68
78,71,69
80,72,68
81,73,69
83,74,69
85,75,68
86,76,69
88,77,68
90,78,69
92,79,71
93,80,69
95,81,68
97,82,69
98,84,68
100,85,68
102,86,69
104,87,68
105,88,120
93,71,120
97,71,120
90,71,60
98,71,60
100,75,60
102,79,40
95,71,60
86,71,60
97,75,60
98,80,40
92,71,60
83,71,60
93,75,60
95,80,40
88,71,60
80,71,60
90,75,60
92,80,40
69,66,69
71,67,68
73,68,69
74,69,69
76,70,68
78,71,69
80,72,68
81,73,69
83,74,69
85,75,68
86,76,69
88,77,68
90,78,69
92,79,71
93,80,69
95,81,68
97,82,69
98,84,68
100,85,68
102,86,69
104,87,68
105,88,120
87,71,60
95,71,60
97,75,60
99,79,40
83,71,60
92,71,60
94,75,60
95,80,40
80,71,60
89,71,60
90,75,60
92,80,40
85,71,60
77,71,60
87,75,60
89,80,40
66,66,69
68,67,68
70,68,69
71,69,69
73,70,68
75,71,69
77,72,68
78,73,69
80,74,69
82,75,68
83,76,69
85,77,68
87,78,69
89,79,71
90,80,69
92,81,68
94,82,69
95,84,68
97,85,68
99,86,69
101,87,68
102,88,120
90,71,120
94,71,120
95,71,60
87,71,60
97,75,60
99,79,40
83,71,60
92,71,60
94,75,60
95,80,40
89,71,60
80,71,60
90,75,60
92,80,40
85,71,60
77,71,60
87,75,60
89,80,40
66,66,69
68,67,68
70,68,69
71,69,69
73,70,68
75,71,69
77,72,68
78,73,69
80,74,69
82,75,68
83,76,69
85,77,68
87,78,69
89,79,71
90,80,96
92,81,96
94,82,96
95,84,96
97,85,96
99,88,96
97,86,96
96,80,96
97,86,96
99,88,96
101,89,120
97,67,90
97,83,113
97,64,90
89,82,120
97,66,90
97,76,113
97,60,90
101,80,120
97,61,90
97,78,113
97,60,90
89,77,120
97,63,90
97,77,113
97,63,90
102,85,120
97,64,90
97,83,113
97,64,90
90,82,120
97,66,90
97,76,113
97,60,90
102,80,120
97,61,90
97,78,113
97,60,90
90,77,120
97,63,90
97,77,113
97,63,90
101,87,120
97,67,90
97,83,113
97,64,90
89,82,120
97,66,90
97,76,113
97,60,90
101,80,120
97,61,90
97,78,113
97,60,90
89,77,120
97,63,90
97,77,113
97,63,90
102,87,120
97,67,90
97,83,113
97,64,90
90,82,120
97,66,90
97,76,113
97,60,90
102,80,120
97,61,90
97,78,113
97,60,90
90,77,120
97,63,90
97,77,113
97,63,90
101,89,120
97,67,90
97,83,113
97,64,90
89,82,120
97,66,90
97,76,113
97,60,90
101,80,120
97,61,90
97,78,113
97,60,90
89,77,120
97,63,90
97,77,113
97,63,90
101,76,120
97,57,90
97,74,113
97,57,90
89,73,120
97,59,90
97,68,113
97,54,90
101,72,120
97,54,90
97,70,113
97,54,90
89,69,120
97,56,90
97,69,113
97,56,90
101,78,120
97,60,90
97,73,113
97,56,90
89,71,120
97,56,90
97,65,113
97,51,90
101,67,120
97,50,90
97,63,113
97,49,90
89,62,120
97,50,90
97,60,113
97,49,90
101,67,120
97,51,90
97,63,113
97,48,90
89,60,120
97,48,90
97,55,113
97,43,90
101,56,120
97,42,90
97,53,113
97,41,90
89,52,120
97,42,90
97,50,113
97,40,90
102,82,120
78,58,240
81,67,960
80,65,120
81,59,120
83,65,120
86,70,120
85,65,120
73,59,120
75,65,120
77,60,60
78,49,30
80,50,30
78,65,120
77,59,120
78,65,120
80,70,120
81,65,960
80,65,120
81,59,120
83,65,120
86,70,120
85,65,120
73,59,120
75,65,120
77,60,60
78,49,30
80,50,30
78,65,120
77,59,120
78,65,120
80,70,60
78,60,30
80,60,30
81,65,240
81,65,480
80,59,120
81,47,120
83,53,120
86,57,120
85,51,960
61,48,90
49,48,90
51,49,90
63,49,90
53,51,90
65,51,90
54,52,90
66,52,90
61,54,90
68,54,90
56,54,90
55,53,90
67,53,90
56,51,90
68,51,90
65,49,90
53,49,90
54,48,90
66,48,90
68,49,90
56,49,90
70,51,90
58,51,90
59,52,90
71,52,90
73,54,90
66,54,90
61,54,90
72,53,90
60,53,90
61,51,90
73,51,90
58,49,90
70,49,90
71,59,90
59,59,90
63,51,90
75,51,90
56,60,90
68,60,90
71,55,90
59,55,90
53,60,90
65,60,90
56,52,90
68,52,90
49,62,90
61,62,90
53,56,90
65,56,90
66,62,90
54,62,90
58,53,90
70,53,90
61,63,90
49,63,90
66,58,90
54,58,90
58,63,90
46,63,90
61,55,90
49,55,90
66,64,90
54,64,90
70,59,90
58,59,90
65,55,120
68,55,120
73,55,121
61,55,121
75,56,121
63,56,121
77,59,121
65,59,121
78,61,121
66,61,121
73,64,121
80,64,121
68,64,121
79,63,120
67,63,120
80,61,121
73,61,120
68,61,121
65,59,121
77,59,121
73,58,120
70,58,120
66,58,121
78,58,121
68,60,121
80,60,121
82,63,121
70,63,121
71,65,121
83,65,121
73,68,121
78,68,121
85,68,121
84,67,121
72,67,121
73,65,121
78,65,120
85,65,121
70,63,121
82,63,121
80,62,120
77,62,120
85,62,121
73,62,121
87,64,121
75,64,121
77,67,121
89,67,121
78,69,121
90,69,121
92,72,121
80,72,121
85,72,121
79,71,120
91,71,120
85,69,120
92,69,121
80,69,121
77,67,121
89,67,121
82,65,120
90,65,121
85,65,120
78,65,121
92,67,121
80,67,121
82,70,121
94,70,121
83,72,121
95,72,121
97,76,121
90,76,121
85,76,121
84,75,121
96,75,121
85,72,121
90,72,120
97,72,121
94,70,121
82,70,121
83,82,121
95,82,121
87,71,121
99,71,121
80,82,121
92,82,121
83,75,121
95,75,121
77,83,120
89,83,120
92,72,121
80,72,121
73,84,121
85,84,121
77,78,120
89,78,120
70,85,120
82,85,120
73,74,121
85,74,121
66,86,121
78,86,121
82,79,120
70,79,120
75,86,120
63,86,120
66,75,121
78,75,121
71,87,121
59,87,121
63,81,120
75,81,120
56,88,120
68,88,120
71,77,121
59,77,121
65,89,121
53,89,120
68,82,120
56,82,120
61,90,120
49,90,120
65,78,121
53,78,121
46,91,120
58,91,121
49,84,120
61,84,120
54,92,120
58,80,121
51,93,121
54,85,120
47,103,240
63,80,90
71,80,90
75,95,90
63,85,360
75,101,360
71,85,360
65,79,90
77,93,90
71,79,90
68,79,90
71,85,360
68,85,360
65,85,360
77,101,360
70,80,90
78,95,90
73,80,90
66,80,90
70,85,960
78,101,960
73,85,960
66,85,960
90,101,120
82,85,120
78,85,120
85,85,120
94,85,120
102,101,120
90,85,120
97,85,120
66,107,120
54,91,120
