note,velocity,time
44,46,115
49,48,140
52,50,140
56,51,140
49,46,140
52,47,140
56,49,140
61,51,140
52,46,140
56,47,140
61,49,140
64,51,140
56,47,140
61,48,140
64,49,140
68,50,140
61,47,140
64,47,140
68,49,140
73,50,140
64,51,140
68,47,140
73,51,140
76,52,140
68,50,140
73,51,140
76,54,120
68,79,120
76,94,120
80,94,120
73,79,120
68,67,120
73,67,120
80,79,120
76,79,120
44,47,115
48,48,140
51,50,140
56,51,140
48,47,140
51,48,140
56,51,140
60,52,140
51,47,140
56,48,140
60,50,140
63,51,140
56,46,140
60,47,140
63,49,140
68,51,140
60,47,140
63,48,140
68,50,140
72,51,140
63,47,140
68,48,140
72,51,140
75,52,140
68,51,140
72,51,140
75,52,120
68,79,120
72,79,120
75,94,120
80,94,120
72,66,120
80,78,120
68,66,120
75,78,120
49,66,140
53,62,140
56,66,140
61,68,140
53,62,140
56,62,140
61,65,140
65,68,140
56,62,140
61,65,140
65,67,140
68,68,140
61,62,140
65,63,140
68,66,140
73,67,140
65,62,140
68,62,140
73,66,140
77,68,140
68,62,140
73,66,140
77,68,140
80,66,140
73,68,140
77,69,140
80,71,120
77,87,120
85,103,120
80,103,120
73,87,120
80,90,120
85,90,120
73,77,120
77,77,120
49,61,140
54,63,140
57,62,140
61,69,60
61,72,140
66,76,140
69,73,140
73,79,60
73,77,140
78,81,140
81,76,120
73,90,120
85,108,120
78,90,120
73,88,120
78,88,120
85,104,120
49,75,140
52,77,140
55,79,140
61,76,60
61,77,140
64,79,140
67,79,140
73,80,60
73,77,140
76,79,140
79,80,120
85,105,120
73,89,120
79,105,120
73,89,120
79,105,120
85,105,120
72,88,240
84,104,240
80,104,240
68,74,120
80,58,120
68,75,120
80,60,120
70,76,120
80,60,120
72,76,120
80,61,120
73,78,120
80,62,120
75,79,120
80,62,120
72,79,120
80,62,120
75,80,120
80,62,120
73,80,120
80,62,120
78,84,120
80,62,120
76,80,120
80,62,120
75,80,120
80,62,120
73,79,120
80,62,120
72,79,120
80,62,120
69,77,120
79,61,120
68,76,120
80,60,120
68,75,120
80,59,120
68,74,120
80,59,120
70,74,120
80,61,120
72,76,120
80,59,120
73,76,120
80,62,120
75,77,120
80,61,120
72,79,120
80,62,120
75,79,120
80,62,120
73,80,120
80,65,120
78,84,120
80,68,120
76,84,120
80,67,120
75,84,120
80,67,120
73,84,120
80,66,120
72,84,120
80,67,120
69,84,120
79,66,120
68,84,120
80,66,120
69,79,120
79,67,120
68,84,120
80,66,120
69,79,120
79,67,120
68,84,120
80,66,120
69,79,120
79,65,120
68,84,120
80,66,120
69,79,120
79,65,120
68,84,240
80,84,240
56,113,1440
44,45,115
49,47,140
52,49,140
56,51,140
49,47,140
52,49,140
56,51,140
61,51,140
52,47,140
56,48,140
61,50,140
64,51,140
56,47,140
61,48,140
64,50,140
68,51,140
61,47,140
64,48,140
68,50,140
73,51,140
64,47,140
68,49,140
73,51,140
76,51,110
76,51,140
80,51,140
85,53,140
76,96,120
88,113,120
76,74,120
88,88,120
52,47,140
55,49,140
61,51,140
64,51,140
55,47,140
61,48,140
64,50,140
67,51,140
61,47,140
64,48,140
67,51,140
73,52,140
64,47,140
67,49,140
73,51,140
76,53,140
67,47,140
73,50,140
76,51,140
79,53,140
73,47,140
76,49,140
79,51,140
85,52,140
76,49,140
79,51,140
85,54,140
76,93,120
88,110,120
76,73,120
88,87,120
51,50,115
58,51,140
61,49,140
63,51,140
58,52,140
61,53,140
63,51,140
70,56,140
61,56,140
63,57,140
70,52,140
73,58,140
63,59,140
70,60,140
73,56,140
75,62,140
70,62,140
73,62,140
75,59,140
82,63,140
73,65,140
75,66,140
82,62,140
85,67,140
82,65,140
75,62,140
73,61,140
82,59,140
75,57,140
73,56,140
70,52,140
71,49,240
75,61,980
71,50,380
68,50,60
67,40,20
68,40,20
70,40,20
68,58,500
67,50,720
67,50,260
75,61,360
67,52,120
70,47,500
68,51,720
68,49,260
75,61,360
68,50,140
71,52,500
70,50,720
70,52,260
75,49,360
70,52,120
71,56,120
87,56,480
75,47,480
87,58,480
75,49,480
75,47,120
87,56,120
71,49,120
83,58,120
80,59,120
68,49,120
80,61,120
68,51,120
79,62,480
67,52,480
79,68,480
67,57,480
67,58,120
79,69,120
87,71,120
75,60,120
67,61,120
79,73,120
70,62,120
82,74,120
68,63,480
80,75,480
68,68,480
80,80,480
68,69,120
80,82,120
75,72,120
87,85,120
80,86,120
68,73,120
71,73,120
83,86,120
82,89,480
70,74,480
70,79,480
82,93,480
82,93,120
70,79,120
87,93,120
75,79,120
82,93,120
70,79,120
72,80,960
84,95,960
85,95,960
73,80,960
82,80,65
70,68,480
83,75,64
82,80,65
83,80,64
82,80,78
80,75,77
82,75,67
83,95,1440
71,80,1440
80,95,960
68,80,960
69,80,960
81,94,960
67,68,480
79,80,65
80,75,65
79,80,65
80,80,65
79,80,78
77,75,78
79,75,67
68,80,1440
80,95,1440
76,100,1080
69,83,1080
73,83,1080
81,100,1080
76,47,120
78,47,120
80,48,120
81,49,120
83,50,120
85,51,120
83,51,120
81,49,120
76,47,120
78,47,120
80,47,120
81,48,120
83,49,120
85,50,120
83,48,120
81,48,120
76,47,120
78,48,120
80,49,120
81,50,120
83,51,120
85,51,120
83,49,120
81,47,120
76,48,120
78,51,120
80,51,120
81,54,120
83,56,120
85,57,120
86,60,120
88,61,120
87,59,120
88,57,120
87,56,120
88,54,120
85,52,120
83,51,120
81,50,120
80,48,960
82,50,80
83,50,80
82,50,75
83,50,75
82,50,75
83,50,75
82,48,70
83,48,70
82,49,60
83,50,60
82,51,60
83,51,60
82,51,60
83,52,60
80,56,240
64,87,600
57,73,600
61,87,600
69,87,600
64,50,120
66,50,120
68,50,120
69,48,120
71,47,120
73,49,120
71,48,120
69,47,120
64,47,120
66,48,120
68,49,120
69,51,120
71,51,120
73,49,120
71,48,120
69,48,120
64,48,120
66,48,120
68,50,120
69,50,120
71,50,120
73,50,120
71,50,120
69,49,120
64,50,120
66,51,120
68,51,120
69,52,120
71,53,120
73,56,120
71,56,120
69,57,120
64,58,120
66,59,120
68,60,120
69,62,120
71,62,120
73,62,120
71,63,120
69,66,120
64,67,120
66,68,120
68,68,120
69,70,120
71,71,120
73,72,120
74,73,120
76,74,120
78,75,120
80,76,120
81,77,120
83,79,120
85,79,120
86,79,120
87,80,120
76,84,960
88,84,960
68,84,960
80,84,960
71,84,960
83,84,960
55,71,960
61,71,960
67,84,960
63,84,240
68,84,240
59,84,240
63,51,120
71,51,120
63,51,120
71,51,120
63,51,120
71,51,120
63,51,120
71,51,120
63,51,120
71,51,120
70,49,120
63,49,120
63,48,120
68,48,120
63,59,240
67,59,240
75,49,120
67,49,120
67,49,120
75,49,120
67,50,120
75,50,120
67,51,120
75,51,120
75,51,120
67,51,120
75,51,120
68,51,120
70,50,120
75,50,120
71,58,240
75,58,240
71,50,120
63,50,120
71,50,120
63,50,120
63,50,120
71,50,120
71,50,120
63,50,120
71,50,120
63,50,120
70,50,120
63,50,120
63,48,120
68,48,120
63,58,240
67,58,240
75,49,120
67,49,120
67,49,120
75,49,120
67,51,120
75,51,120
67,49,120
75,49,120
75,49,120
67,49,120
68,50,120
75,50,120
70,51,120
75,51,120
71,56,120
75,56,120
75,50,120
71,50,120
75,50,240
71,50,240
68,47,240
71,47,240
76,50,120
73,50,120
73,50,240
76,50,240
73,48,240
68,48,240
75,47,120
71,47,120
71,47,240
75,47,240
71,44,240
68,44,240
70,49,120
75,49,120
70,47,240
75,47,240
70,45,240
67,45,240
71,49,240
68,49,240
71,43,120
75,51,120
83,51,120
75,56,120
71,47,120
83,56,120
83,58,120
75,58,120
71,49,120
71,52,120
75,62,120
83,62,120
71,56,120
75,66,120
83,66,120
82,68,120
70,57,120
73,68,120
68,61,120
71,72,120
80,72,120
67,63,240
70,75,240
79,75,240
79,76,120
76,64,120
88,76,120
79,82,120
88,82,120
76,69,120
76,67,120
88,79,120
79,79,120
88,82,120
79,82,120
76,69,120
88,78,120
79,78,120
76,66,120
79,80,120
75,68,120
87,80,120
79,78,120
73,66,120
85,78,120
71,69,240
80,82,240
83,82,240
71,41,120
75,49,120
83,49,120
75,52,120
83,52,120
71,44,120
71,48,120
75,57,120
83,57,120
75,61,120
83,61,120
71,51,120
83,66,120
71,56,120
75,66,120
70,58,120
82,69,120
73,69,120
68,62,120
71,73,120
80,73,120
67,66,240
70,78,240
79,78,240
79,79,120
88,79,120
76,67,120
79,81,120
76,68,120
88,81,120
76,66,120
88,78,120
79,78,120
79,82,120
76,69,120
88,82,120
76,66,120
88,78,120
79,78,120
87,79,120
79,79,120
75,67,120
85,79,120
73,67,120
79,79,120
80,82,240
83,82,240
71,69,240
83,50,120
80,50,120
83,50,240
80,50,240
87,48,240
83,48,240
85,49,120
80,49,120
85,49,240
80,49,240
88,48,240
85,48,240
80,49,120
83,49,120
83,49,240
80,49,240
87,48,240
83,48,240
82,51,120
79,51,120
82,51,240
79,51,240
87,48,240
82,48,240
75,56,120
83,56,120
83,51,240
75,51,240
80,51,240
87,51,240
81,62,120
73,62,120
81,56,240
73,56,240
76,56,240
85,56,240
80,57,120
71,57,120
80,57,240
71,57,240
75,51,240
83,51,240
79,52,120
70,52,120
70,51,240
79,51,240
73,42,240
82,42,240
80,50,480
71,50,480
71,50,360
68,50,120
67,57,480
75,47,360
61,39,360
67,47,360
67,47,360
75,47,360
61,39,360
67,50,360
75,50,360
61,42,360
59,50,80
68,50,80
75,57,1440
83,58,360
80,58,120
79,67,480
87,57,360
73,48,360
79,57,360
73,48,360
87,57,360
79,57,360
79,57,360
73,48,360
87,57,360
71,47,80
80,53,80
87,73,840
73,43,80
79,53,80
87,72,840
71,40,80
80,53,80
87,72,840
73,45,80
79,52,80
87,71,960
59,49,119
68,50,119
63,51,119
68,48,119
59,52,119
68,53,119
63,54,119
68,51,119
59,57,119
68,57,119
63,58,119
68,52,119
59,61,119
68,62,119
63,62,119
68,57,119
60,66,119
66,67,119
63,68,119
66,62,119
60,69,119
66,70,119
63,71,119
66,68,119
60,73,119
66,74,119
63,75,119
66,76,119
60,78,119
66,79,119
63,79,119
66,73,119
52,69,120
56,69,120
61,82,120
64,82,120
44,54,115
49,56,140
52,57,140
56,59,140
49,54,140
52,56,140
56,56,140
61,57,140
52,51,140
56,53,140
61,54,140
64,56,140
56,52,140
61,53,140
64,56,140
68,57,140
61,52,140
64,53,140
68,56,140
73,57,140
64,52,140
68,53,140
73,56,140
76,56,140
68,52,140
73,56,140
76,57,120
76,94,120
80,94,120
73,79,120
68,79,120
68,67,120
80,79,120
73,67,120
76,79,120
44,48,115
48,50,140
51,51,140
56,52,140
48,48,140
51,49,140
56,51,140
60,53,140
51,47,140
56,49,140
60,51,140
63,51,140
56,48,140
60,51,140
63,52,140
68,53,140
60,48,140
63,49,140
68,51,140
72,51,140
63,48,140
68,50,140
72,51,140
75,52,140
68,51,140
72,52,140
75,56,120
68,79,120
72,79,120
75,94,120
80,94,120
68,66,120
72,66,120
75,78,120
80,78,120
49,63,140
53,66,140
56,63,140
61,68,140
53,62,140
56,63,140
61,62,140
65,68,140
56,62,140
61,63,140
65,65,140
68,68,140
61,62,140
65,65,140
68,62,140
73,68,140
65,61,140
68,62,140
73,62,140
77,68,140
68,63,140
73,66,140
77,65,140
80,69,140
73,63,140
77,68,140
80,68,120
77,87,120
80,103,120
73,87,120
85,103,120
77,77,120
73,77,120
80,90,120
85,90,120
49,61,140
54,63,140
57,62,140
61,69,60
61,72,140
66,76,140
69,76,140
73,79,60
73,83,140
78,84,140
81,80,140
78,102,120
73,86,120
85,102,120
73,85,120
78,101,120
85,101,120
49,75,140
52,77,140
55,75,140
61,80,60
61,76,140
64,79,140
67,77,140
73,81,60
73,79,140
76,80,140
79,80,120
79,108,120
73,90,120
85,108,120
85,108,120
73,90,120
79,108,120
84,108,240
80,108,240
72,90,240
68,74,120
80,58,120
68,75,120
80,60,120
70,76,120
80,60,120
72,76,120
80,61,120
73,78,120
80,62,120
75,79,120
80,62,120
72,79,120
80,62,120
75,80,120
80,62,120
73,80,120
80,62,120
78,84,120
80,62,120
76,80,120
80,62,120
75,80,120
80,62,120
73,79,120
80,62,120
72,79,120
80,62,120
69,77,120
79,61,120
68,76,120
80,60,120
68,75,120
80,59,120
68,74,120
80,59,120
70,74,120
80,61,120
72,76,120
80,59,120
73,76,120
80,62,120
75,77,120
80,61,120
72,79,120
80,62,120
75,79,120
80,62,120
73,80,120
80,65,120
78,84,120
80,68,120
76,84,120
80,67,120
75,84,120
80,67,120
73,84,120
80,66,120
72,84,120
80,67,120
69,84,120
79,66,120
68,84,120
80,66,120
69,79,120
79,67,120
68,84,120
80,66,120
69,79,120
79,67,120
68,84,120
80,66,120
69,79,120
79,65,120
68,84,120
80,66,120
69,79,120
79,65,120
68,84,240
80,84,240
56,113,1440
44,47,115
49,49,140
52,51,140
56,52,140
49,47,140
52,49,140
56,51,140
61,52,140
52,47,140
56,49,140
61,51,140
64,52,140
56,48,140
61,50,140
64,51,140
68,52,140
61,47,140
64,47,140
68,50,140
73,52,140
64,47,140
68,50,140
73,51,140
76,54,115
76,51,140
80,51,140
85,53,120
76,95,120
88,112,120
76,74,120
88,88,120
52,46,140
55,48,140
61,50,140
64,51,140
55,47,140
61,49,140
64,51,140
67,51,140
61,50,140
64,49,140
67,51,140
73,52,140
64,47,140
67,49,140
73,51,140
76,52,140
67,48,140
73,48,140
76,50,140
79,52,140
73,47,140
76,50,140
79,51,140
85,54,140
76,51,140
79,54,140
85,57,120
88,110,120
76,93,120
76,73,120
88,87,120
51,50,115
58,51,140
61,51,140
63,51,140
58,52,140
61,53,140
63,54,140
70,56,140
61,56,140
63,57,140
70,57,140
73,58,140
63,59,140
70,60,140
73,61,140
75,62,140
70,62,140
73,62,140
75,62,140
82,63,140
73,65,140
75,66,140
82,67,140
85,67,140
82,65,140
75,62,140
73,61,140
82,59,140
75,57,140
73,56,140
70,52,140
71,49,240
75,61,980
71,56,360
68,56,60
67,44,20
68,44,20
70,44,20
68,63,500
67,56,720
67,56,260
75,68,360
67,57,120
70,51,500
68,56,720
68,53,260
75,68,360
68,56,120
71,57,500
70,56,720
70,57,260
75,53,360
70,57,120
71,59,240
87,59,480
75,49,480
75,49,480
87,58,480
75,47,120
87,56,120
71,49,120
83,58,120
80,59,120
68,49,120
68,51,120
80,61,120
67,52,480
79,62,480
79,68,480
67,57,480
79,69,120
67,58,120
75,60,120
87,71,120
67,61,120
79,73,120
82,74,120
70,62,120
68,63,480
80,75,480
68,68,480
80,80,480
80,82,120
68,69,120
87,85,120
75,72,120
68,73,120
80,86,120
71,73,120
83,86,120
70,74,480
82,89,480
70,79,480
82,93,480
70,79,120
82,93,120
87,93,120
75,93,120
82,93,120
70,79,120
72,80,960
84,95,960
73,80,960
85,95,960
70,68,480
82,80,65
83,75,64
82,80,65
83,80,64
82,80,78
80,75,77
82,75,67
71,80,1440
83,95,1440
80,95,960
68,80,960
69,80,960
81,94,960
67,68,480
79,80,65
80,75,65
79,80,65
80,80,65
79,80,78
77,75,78
79,75,67
80,95,1440
68,80,1440
76,100,1080
69,83,1080
73,100,1080
81,100,1080
76,48,120
78,49,120
80,51,120
81,51,120
83,52,120
85,53,120
83,51,120
81,49,120
76,47,120
78,48,120
80,48,120
81,49,120
83,50,120
85,51,120
83,50,120
81,48,120
76,49,120
78,50,120
80,50,120
81,51,120
83,51,120
85,51,120
83,49,120
81,47,120
76,48,120
78,51,120
80,51,120
81,54,120
83,56,120
85,57,120
86,60,120
88,61,120
87,59,120
88,57,120
87,56,120
88,54,120
85,52,120
83,51,120
81,50,120
80,48,960
82,50,80
83,50,80
82,50,75
83,50,75
82,50,75
83,50,75
82,50,70
83,48,70
82,49,60
83,50,60
82,51,60
83,51,60
82,51,60
83,52,60
80,56,240
57,73,600
61,73,600
69,87,600
64,87,600
64,48,120
66,49,120
68,50,120
69,51,120
71,51,120
73,52,120
71,51,120
69,48,120
64,48,120
66,48,120
68,49,120
69,50,120
71,50,120
73,51,120
71,51,120
69,48,120
64,48,120
66,48,120
68,50,120
69,51,120
71,51,120
73,51,120
71,50,120
69,49,120
64,50,120
66,51,120
68,51,120
69,52,120
71,53,120
73,56,120
71,56,120
69,57,120
64,58,120
66,59,120
68,60,120
69,62,120
71,62,120
73,62,120
71,63,120
69,66,120
64,67,120
66,68,120
68,68,120
69,70,120
71,71,120
73,72,120
74,73,120
76,74,120
78,75,120
80,76,120
81,77,120
83,79,120
85,79,120
86,79,120
87,80,120
88,84,960
76,71,960
68,71,960
80,84,960
71,71,960
83,84,960
61,71,960
55,60,960
67,84,960
63,71,240
59,71,240
68,84,240
71,51,120
63,51,120
71,51,120
63,51,120
63,51,120
71,51,120
71,51,120
63,51,120
71,51,120
63,51,120
63,49,120
70,49,120
68,47,120
63,47,120
63,59,240
67,59,240
67,49,120
75,49,120
67,49,120
75,49,120
75,50,120
67,50,120
67,51,120
75,51,120
67,51,120
75,51,120
75,51,120
68,51,120
70,53,120
75,53,120
71,58,240
75,58,240
71,50,120
63,50,120
63,50,120
71,50,120
71,50,120
63,50,120
71,50,120
63,50,120
63,50,120
71,50,120
63,48,120
70,48,120
68,47,120
63,47,120
63,58,240
67,58,240
75,49,120
67,49,120
75,49,120
67,49,120
67,51,120
75,51,120
67,49,120
75,49,120
67,49,120
75,49,120
68,51,120
75,51,120
75,51,120
70,51,120
75,56,120
71,56,120
71,50,120
75,50,120
71,50,240
75,50,240
71,49,240
68,49,240
73,50,120
76,50,120
76,50,240
73,50,240
73,49,240
68,49,240
75,47,120
71,47,120
75,47,240
71,47,240
68,49,240
71,49,240
75,49,120
70,49,120
75,47,240
70,47,240
67,47,240
70,47,240
68,49,240
71,49,240
75,51,120
83,51,120
71,43,120
83,56,120
75,56,120
71,47,120
83,58,120
71,49,120
75,58,120
71,52,120
75,62,120
83,62,120
83,66,120
75,66,120
71,56,120
73,68,120
70,57,120
82,68,120
80,72,120
68,61,120
71,72,120
79,75,240
67,63,240
70,75,240
76,64,120
88,76,120
79,76,120
79,82,120
76,69,120
88,82,120
79,79,120
88,79,120
76,67,120
88,82,120
76,69,120
79,82,120
79,79,120
76,67,120
88,79,120
79,81,120
75,68,120
87,81,120
79,79,120
85,79,120
73,67,120
83,82,249
80,82,240
71,69,240
71,41,120
83,49,9
75,49,120
83,52,120
71,44,120
75,52,120
71,48,120
83,57,120
75,57,120
71,51,120
75,61,120
83,61,120
75,66,120
83,66,120
71,56,120
82,69,120
70,58,120
73,69,120
80,73,120
68,62,120
71,73,120
70,78,240
67,66,240
79,78,240
88,78,120
79,78,120
76,66,120
88,82,120
76,69,120
79,82,120
76,66,120
88,78,120
79,78,120
79,82,120
76,69,120
88,82,120
79,79,120
76,67,120
88,79,120
75,68,120
79,80,120
87,80,120
79,79,120
73,67,120
85,79,120
83,82,240
80,82,240
71,69,240
83,50,120
80,50,120
83,50,240
80,50,240
83,48,240
87,48,240
85,49,120
80,49,120
85,49,240
80,49,240
88,47,240
85,47,240
83,49,120
80,49,120
80,49,240
83,49,240
87,47,240
83,47,240
82,51,120
79,51,120
82,51,240
79,51,240
87,47,240
82,47,240
83,56,120
75,56,120
75,51,240
83,51,240
87,51,240
80,51,240
81,62,120
73,62,120
81,56,240
73,56,240
76,56,240
85,56,240
80,57,120
71,57,120
71,57,240
80,57,240
75,51,240
83,51,240
70,52,120
79,52,120
70,51,240
79,51,240
73,42,240
82,42,240
80,50,480
71,50,480
71,50,360
68,50,120
67,57,480
61,39,360
67,47,360
75,47,360
75,47,360
61,39,360
67,47,360
67,50,360
75,50,360
61,42,360
59,50,80
68,50,80
75,57,1440
83,58,360
80,58,120
79,67,480
79,57,360
87,57,360
73,48,360
73,48,360
87,57,360
79,57,360
87,57,360
79,57,360
73,48,360
71,47,80
80,52,80
87,73,840
73,43,80
79,51,80
87,72,840
71,40,80
80,50,80
87,72,840
73,45,80
79,52,80
87,71,960
59,49,119
68,50,119
63,51,119
68,47,119
59,52,119
68,53,119
63,54,119
68,52,119
59,57,119
68,57,119
63,58,119
68,54,119
59,61,119
68,62,119
63,62,119
68,57,119
60,66,119
66,67,119
63,68,119
66,63,119
60,69,119
66,70,119
63,71,119
66,68,119
60,73,119
66,74,119
63,75,119
66,70,119
60,78,119
66,79,119
63,79,119
66,73,119
61,80,120
65,80,120
49,51,140
53,51,140
56,52,140
61,54,140
53,49,140
56,50,140
61,51,140
65,51,140
56,48,140
61,50,140
65,51,140
68,52,140
61,49,140
65,50,140
68,51,140
73,51,140
65,49,140
68,51,140
73,51,140
77,54,140
68,49,140
73,51,140
77,51,140
80,53,140
73,50,140
77,51,140
80,52,120
73,78,120
77,78,120
80,93,120
85,93,120
80,78,120
73,65,120
85,78,120
77,65,120
49,51,140
53,52,140
56,54,140
61,56,140
53,51,140
56,53,140
61,54,140
65,56,140
56,51,140
61,53,140
65,56,140
68,57,140
61,51,140
65,53,140
68,56,140
73,57,140
65,53,140
68,56,140
73,57,140
77,57,140
68,52,140
73,54,140
77,56,140
80,58,140
73,52,140
77,56,140
80,59,120
73,78,120
77,78,120
85,93,120
80,93,120
77,67,120
80,81,120
73,67,120
85,81,120
49,62,140
54,62,140
57,65,140
61,67,60
61,62,140
66,65,140
69,67,140
73,68,60
73,62,140
78,65,140
81,68,120
78,85,120
73,85,120
81,101,120
85,101,120
78,72,120
85,86,120
81,86,120
73,72,120
49,62,140
56,62,140
59,66,140
61,68,60
61,62,140
68,63,140
71,67,140
73,68,60
73,62,140
80,63,140
83,67,120
73,88,120
80,88,120
85,104,120
83,104,120
85,90,120
83,90,120
80,77,120
73,77,120
73,81,240
85,96,240
81,96,240
78,81,240
73,68,980
69,51,380
66,51,60
65,41,20
66,41,20
68,41,20
66,62,500
65,51,720
65,51,260
73,56,360
65,51,120
68,51,500
66,51,720
66,52,260
73,56,380
66,51,120
69,49,500
68,52,720
68,52,260
73,58,360
68,51,120
69,39,140
73,31,140
69,34,140
73,30,140
66,39,140
73,31,140
69,34,140
73,31,140
66,39,140
73,32,140
69,34,140
73,30,140
66,39,140
73,32,140
69,34,140
73,31,140
68,39,140
73,32,140
71,34,140
73,32,140
68,47,140
73,41,140
71,47,140
73,44,140
68,58,140
73,47,140
71,54,140
73,50,140
68,64,140
73,49,140
71,51,140
73,44,140
66,39,140
73,31,140
69,34,140
73,39,140
66,48,140
73,42,140
69,48,140
73,45,140
66,58,140
73,48,140
69,54,140
73,50,140
66,64,140
73,51,140
69,51,140
73,45,140
66,39,140
74,31,140
69,34,140
74,32,140
66,45,140
74,31,140
69,34,140
74,34,140
69,48,140
74,34,140
72,38,140
74,34,140
69,53,140
74,34,140
72,39,140
74,34,140
67,53,140
74,32,140
71,34,140
74,32,140
67,39,140
74,33,140
71,35,140
74,31,140
67,39,140
74,32,140
71,34,140
74,31,140
67,39,140
74,32,140
71,34,140
74,32,140
69,39,140
74,32,140
72,35,140
74,32,140
69,50,140
74,41,140
72,47,140
74,44,140
69,58,140
74,46,140
72,54,140
74,49,140
69,63,140
74,49,140
72,51,140
74,44,140
67,39,140
74,32,140
71,34,140
74,31,140
67,50,140
74,42,140
71,48,140
74,46,140
67,61,140
74,49,140
71,55,140
74,52,140
67,69,140
74,54,140
71,55,140
74,45,140
68,43,140
74,34,140
71,38,140
74,34,140
68,56,140
73,45,140
71,54,140
73,48,140
68,67,140
73,52,140
71,65,140
73,55,140
68,78,140
73,59,140
71,61,140
73,49,140
66,57,140
73,44,140
69,47,140
73,43,140
66,56,140
73,44,140
69,47,140
73,44,140
66,56,140
78,43,140
69,46,140
78,42,140
66,54,140
78,45,140
69,47,140
78,43,140
66,62,140
78,41,140
75,47,140
68,47,140
78,42,140
66,59,140
78,43,140
75,47,140
68,47,140
78,44,140
66,58,140
78,45,140
68,47,140
75,47,140
78,42,140
66,58,140
78,43,140
75,47,140
68,47,140
78,42,140
64,65,140
76,52,140
73,56,140
76,52,140
64,65,140
76,52,140
73,56,140
76,51,140
64,65,140
76,53,140
73,57,140
76,51,140
64,65,140
76,53,140
73,57,140
76,52,140
63,65,140
75,53,140
73,58,140
75,52,140
63,65,140
75,51,140
73,57,140
75,52,140
63,65,140
75,51,140
73,56,140
75,51,140
63,65,140
75,51,140
73,56,140
75,51,120
63,68,240
72,78,240
75,80,240
68,54,960
69,51,240
68,51,240
57,50,960
61,50,960
66,59,480
68,49,240
66,49,240
59,50,960
56,50,960
64,59,480
66,48,240
64,48,240
54,49,960
63,58,480
57,49,960
64,47,240
63,47,240
52,49,960
56,49,960
61,58,480
63,51,240
61,51,240
60,58,960
54,49,960
51,49,960
49,48,840
61,57,840
52,48,840
48,48,60
56,48,60
63,58,360
80,63,720
80,67,120
81,68,120
80,66,120
78,68,120
73,56,120
69,47,120
78,56,120
71,48,120
80,57,120
75,57,120
69,48,120
73,57,120
78,57,120
71,59,120
76,59,120
68,50,120
68,51,120
71,60,120
76,60,120
69,51,120
73,61,120
78,61,120
76,62,120
68,52,120
71,62,120
69,62,120
75,62,120
66,52,120
69,63,120
75,63,120
66,53,120
68,56,120
71,66,120
76,66,120
66,56,120
69,67,120
75,67,120
73,68,120
68,68,120
64,57,120
64,57,120
73,68,120
68,68,120
66,51,120
75,60,120
69,60,120
68,54,120
64,45,120
73,54,120
72,48,960
63,40,960
66,48,960
64,56,840
73,56,840
61,47,840
60,49,60
66,59,1500
75,80,1440
73,58,480
64,58,480
61,49,480
63,39,240
72,47,240
66,47,240
66,53,240
72,53,240
63,45,240
73,62,240
64,62,240
61,52,240
64,68,240
61,57,240
73,68,240
60,51,60
66,59,1500
75,80,1440
64,48,240
61,40,240
73,43,240
66,51,240
63,43,240
72,47,240
63,48,240
66,57,240
72,53,240
61,57,240
64,68,240
73,57,240
61,60,240
64,71,240
73,65,240
60,68,240
66,80,240
75,69,240
60,62,240
66,73,240
75,58,240
64,63,240
61,53,240
73,51,240
64,57,240
61,48,240
73,53,240
63,47,1920
57,39,1920
61,39,1920
69,47,1920
63,31,1920
68,31,1920
56,26,1920
60,26,1920
44,47,115
49,48,140
52,50,140
56,51,140
49,51,140
52,49,140
56,51,140
61,51,140
52,47,140
56,48,140
61,50,140
64,51,140
56,48,140
61,49,140
64,51,140
68,53,140
61,47,140
64,49,140
68,51,140
73,52,140
64,51,140
68,50,140
73,51,140
76,53,140
68,51,140
73,51,140
76,56,120
73,79,120
80,94,120
68,79,120
76,94,120
80,79,120
76,79,120
73,67,120
68,67,120
44,47,115
48,49,140
51,51,140
56,51,140
48,48,140
51,50,140
56,51,140
60,52,140
51,51,140
56,51,140
60,51,140
63,52,140
56,47,140
60,50,140
63,51,140
68,53,140
60,49,140
63,50,140
68,51,140
72,52,140
63,51,140
68,50,140
72,51,140
75,52,140
68,49,140
72,51,140
75,53,120
72,79,120
75,94,120
80,94,120
68,79,120
75,78,120
68,66,120
80,78,120
72,66,120
49,62,140
53,65,140
56,67,140
61,68,140
53,65,140
56,67,140
61,68,140
65,69,140
56,66,140
61,68,140
65,69,140
68,71,140
61,66,140
65,68,140
68,68,140
73,69,140
65,66,140
68,68,140
73,68,140
77,70,140
68,63,140
73,66,140
77,68,140
80,68,140
73,66,140
77,68,140
80,70,120
73,87,120
77,87,120
80,103,120
85,103,120
77,77,120
80,90,120
85,90,120
73,77,120
49,61,140
54,63,140
57,62,140
61,69,60
61,72,140
66,76,140
69,76,140
73,82,60
73,85,140
78,87,140
81,84,140
78,102,120
85,102,120
73,86,120
73,85,120
78,101,120
85,101,120
49,75,140
52,77,140
55,75,140
61,80,60
61,77,140
64,79,140
67,77,140
73,81,60
73,80,140
76,81,140
79,79,120
79,108,120
85,108,120
73,90,120
85,108,120
79,108,120
73,90,120
80,108,240
72,90,240
84,108,240
68,74,120
80,58,120
68,75,120
80,60,120
70,76,120
80,60,120
72,76,120
80,61,120
73,78,120
80,62,120
75,79,120
80,62,120
72,79,120
80,62,120
75,80,120
80,62,120
73,80,120
80,62,120
78,84,120
80,62,120
76,80,120
80,62,120
75,80,120
80,62,120
73,79,120
80,62,120
72,79,120
80,62,120
69,77,120
79,61,120
68,76,120
80,60,120
68,75,120
80,59,120
68,74,120
80,59,120
70,74,120
80,61,120
72,76,120
80,59,120
73,76,120
80,62,120
75,77,120
80,61,120
72,79,120
80,62,120
75,79,120
80,62,120
73,80,120
80,65,120
78,84,120
80,68,120
76,84,120
80,67,120
75,84,120
80,67,120
73,84,120
80,66,120
72,84,120
80,67,120
69,84,120
79,66,120
68,84,120
80,66,120
69,79,120
79,67,120
68,84,120
80,66,120
69,79,120
79,67,120
68,84,120
80,66,120
69,79,120
79,65,120
68,84,120
80,66,120
69,79,120
79,65,120
80,84,240
68,84,240
56,113,1440
68,56,980
64,47,380
61,47,60
60,37,20
61,37,20
63,37,20
61,53,500
60,47,720
60,47,260
68,56,360
60,48,120
63,43,500
61,47,720
61,45,260
68,57,360
61,47,120
64,48,500
63,47,720
63,48,260
68,54,380
63,48,120
64,51,120
80,58,480
68,48,480
68,45,480
80,53,480
80,56,120
68,47,120
64,49,120
76,58,120
73,56,120
61,47,120
61,51,120
73,61,120
60,52,480
72,62,480
72,68,480
60,57,480
60,58,120
72,69,120
80,71,120
68,60,120
72,69,120
60,58,120
75,74,120
63,62,120
61,63,480
73,75,480
61,68,480
73,80,480
73,75,120
61,63,120
80,85,120
68,72,120
73,86,120
61,73,120
64,73,120
76,86,120
63,72,480
75,85,480
75,93,480
63,79,480
63,75,120
75,90,120
68,79,120
80,93,120
75,90,120
63,75,120
65,80,960
77,95,960
66,80,960
78,95,960
63,67,480
75,80,65
76,75,65
75,80,65
76,80,65
75,80,78
73,75,78
75,75,67
76,95,1440
64,80,1440
73,95,960
61,80,960
62,80,960
74,94,960
60,67,480
72,80,65
73,75,65
72,80,65
73,80,65
72,80,78
70,75,78
72,75,67
61,80,1440
73,95,1440
66,83,1080
69,100,1080
74,100,1080
62,83,1080
69,48,120
71,48,120
73,49,120
74,50,120
76,51,120
78,51,120
76,49,120
74,49,120
69,47,120
71,48,120
73,49,120
74,50,120
76,51,120
78,51,120
76,50,120
74,48,120
69,48,120
71,50,120
73,51,120
74,51,120
76,52,120
78,52,120
76,51,120
74,47,120
69,48,120
71,51,120
73,51,120
74,54,120
76,56,120
78,57,120
79,60,120
81,61,120
80,59,120
83,57,120
81,56,120
79,54,120
78,52,120
76,51,120
74,50,120
73,48,960
75,50,80
76,50,80
75,50,75
76,50,75
75,50,75
76,50,75
75,49,70
76,49,70
75,50,60
76,51,60
75,51,80
73,51,80
75,52,80
73,56,240
62,87,600
54,73,600
57,87,600
50,73,600
57,48,120
59,48,120
61,49,120
62,50,120
64,51,120
66,51,120
64,51,120
62,48,120
57,47,120
59,48,120
61,48,120
62,49,120
64,50,120
66,51,120
64,48,120
62,48,120
57,48,120
59,48,120
61,50,120
62,50,120
64,50,120
66,50,120
64,50,120
62,49,120
57,51,120
59,51,120
61,53,120
62,56,120
64,56,120
66,57,120
67,59,120
69,61,120
71,62,120
73,63,120
74,66,120
76,68,120
78,68,120
79,70,120
80,72,120
81,79,960
69,67,960
73,77,960
61,65,960
64,65,960
76,77,960
48,65,960
54,65,960
60,77,960
64,48,120
56,48,120
64,48,120
56,48,120
64,48,120
56,48,120
64,48,120
56,48,120
64,48,120
56,48,120
63,46,120
56,46,120
56,45,120
61,45,120
60,53,240
56,53,240
60,48,120
68,48,120
68,48,120
60,48,120
60,48,120
68,48,120
60,48,120
68,48,120
68,48,120
60,48,120
68,48,120
61,48,120
68,51,120
63,51,120
64,59,240
68,59,240
56,48,120
64,48,120
64,48,120
56,48,120
56,49,120
64,49,120
56,49,120
64,49,120
64,49,120
56,49,120
56,47,120
63,47,120
61,48,120
56,48,120
56,59,240
60,59,240
68,47,120
60,47,120
68,47,120
60,47,120
60,47,120
68,47,120
60,47,120
68,47,120
60,47,120
68,47,120
61,47,120
68,47,120
68,51,120
63,51,120
68,61,120
64,61,120
68,47,120
64,47,120
64,48,240
68,48,240
61,45,240
64,45,240
66,48,120
69,48,120
69,48,240
66,48,240
61,46,240
66,46,240
68,47,120
64,47,120
68,47,240
64,47,240
64,46,240
61,46,240
63,47,120
68,47,120
63,47,240
68,47,240
60,45,240
63,45,240
61,59,240
64,59,240
64,39,120
76,47,120
68,47,120
76,47,120
64,39,120
68,47,120
64,39,120
68,47,120
76,47,120
68,47,120
64,39,120
76,47,120
68,47,120
64,39,120
76,47,120
66,50,120
63,42,120
75,50,120
61,44,120
73,52,120
64,52,120
63,58,240
72,58,240
60,49,240
72,68,120
75,81,120
84,81,120
75,86,120
72,73,120
84,86,120
72,68,120
84,80,120
75,80,120
72,73,120
75,86,120
84,86,120
72,68,120
84,81,120
75,81,120
76,89,120
73,74,120
85,89,120
87,84,120
75,71,120
78,84,120
88,96,240
80,96,240
76,81,240
68,47,120
64,39,120
76,47,120
64,39,120
68,47,120
76,47,120
68,47,120
64,39,120
76,47,120
76,48,120
64,40,120
68,48,120
68,48,120
64,40,120
76,48,120
63,40,120
66,48,120
75,48,120
64,50,120
73,50,120
61,42,120
72,56,240
63,56,240
60,47,240
75,78,120
84,78,120
72,66,120
75,86,120
72,73,120
84,86,120
75,80,120
72,68,120
84,80,120
84,86,120
72,73,120
75,86,120
75,86,120
84,86,120
72,73,120
73,73,120
85,86,120
76,86,120
87,80,120
75,68,120
78,80,120
76,82,240
80,97,240
88,97,240
80,50,120
85,50,120
85,50,240
80,50,240
80,48,240
76,48,240
81,49,120
85,49,120
85,49,240
81,49,240
78,48,240
81,48,240
80,49,120
76,49,120
76,49,240
80,49,240
73,47,240
76,47,240
80,51,120
75,51,120
75,51,240
80,51,240
72,49,240
75,49,240
76,56,120
80,56,120
76,56,240
80,56,240
68,54,240
76,54,240
78,65,120
69,65,120
78,63,240
69,63,240
66,62,240
74,62,240
76,57,120
68,57,120
68,57,240
76,57,240
64,57,240
73,57,240
75,49,120
66,49,120
75,49,240
66,49,240
72,47,240
63,47,240
73,50,480
64,50,480
64,50,360
61,50,120
60,57,480
60,47,360
54,39,360
68,47,360
60,47,360
68,47,360
54,39,360
54,42,360
60,50,360
68,50,360
52,50,60
61,50,60
68,57,1440
76,58,360
73,58,120
72,67,480
80,57,360
66,48,360
72,57,360
72,57,360
66,48,360
80,57,360
72,57,360
80,57,360
66,48,360
64,47,60
73,53,60
80,73,840
66,45,60
72,52,60
80,72,840
64,43,60
73,53,60
80,72,840
66,45,60
72,53,60
80,71,960
52,51,119
61,48,119
56,51,119
61,49,119
52,53,119
61,51,119
56,56,119
61,52,119
52,57,119
61,53,119
56,59,119
61,56,119
52,61,119
61,57,119
56,62,119
61,57,119
53,65,119
49,65,119
61,58,119
56,67,119
61,60,119
53,68,119
49,68,119
61,61,119
56,69,119
61,65,119
53,72,119
49,72,119
61,67,119
56,73,119
61,68,119
49,74,119
53,74,119
61,70,119
56,76,119
61,71,102
54,67,120
61,79,120
49,67,120
57,67,120
49,53,140
54,56,140
57,57,140
61,59,140
54,54,140
57,54,140
61,56,140
66,57,140
57,53,140
61,56,140
66,57,140
69,58,140
61,53,140
66,53,140
69,54,140
73,57,140
66,58,140
69,51,140
73,52,140
78,56,140
69,51,140
73,51,140
78,53,140
81,56,140
73,51,140
78,54,140
81,57,120
85,98,120
73,83,120
81,98,120
78,83,120
81,81,120
78,69,120
85,81,120
73,69,120
49,58,140
52,60,140
56,62,140
61,65,140
52,60,140
56,62,140
61,63,140
64,66,140
56,61,140
61,62,140
64,63,140
68,67,140
61,61,140
64,62,140
68,63,140
73,66,140
64,63,140
68,63,140
73,62,140
76,66,140
68,62,140
73,62,140
76,67,140
80,68,140
73,62,140
76,66,140
80,68,120
85,109,120
76,92,120
73,92,120
80,109,120
73,81,120
76,81,120
80,96,120
85,96,120
49,31,960
52,33,900
55,35,840
58,39,780
61,45,720
61,53,960
64,56,900
67,58,840
70,61,780
73,62,480
73,66,1680
76,68,1620
79,73,1560
82,76,1500
85,79,1440
45,29,960
48,32,900
51,35,840
54,38,780
57,41,720
57,56,960
60,57,900
63,58,840
66,59,780
69,62,480
69,73,1800
72,77,1680
75,79,1560
81,91,1440
68,31,140
64,34,140
68,30,140
61,39,119
68,30,119
64,34,119
68,30,119
61,39,119
68,31,119
64,34,119
68,30,119
61,39,119
68,31,119
64,34,119
68,31,119
63,39,140
68,31,140
66,34,140
68,30,140
63,50,119
68,43,119
66,47,119
68,44,119
63,58,119
68,46,119
66,54,119
68,51,119
63,66,119
68,49,119
66,51,119
68,43,119
61,39,140
68,30,140
64,34,140
68,31,140
61,50,119
68,40,119
64,47,119
68,43,119
61,58,119
68,48,119
64,54,119
68,49,119
61,66,119
68,49,119
64,51,119
68,42,119
60,39,140
68,29,140
66,34,140
68,30,140
60,50,119
68,40,119
66,47,119
68,43,119
60,58,119
68,49,119
66,54,119
68,49,119
60,66,119
68,48,119
66,51,119
68,43,102
64,41,240
68,41,240
61,41,240
80,57,960
68,57,960
64,47,360
76,47,360
61,47,115
73,47,115
73,54,480
61,54,480
72,46,720
60,46,720
72,47,240
60,47,240
80,56,360
68,56,360
60,47,120
72,47,120
63,46,480
75,46,480
61,47,720
73,47,720
73,46,240
61,46,240
80,56,360
68,56,360
61,46,120
73,46,120
76,49,480
64,49,480
75,48,720
63,48,720
63,47,240
75,47,240
80,54,360
68,54,360
75,47,120
63,47,120
66,50,240
78,50,240
64,48,240
76,48,240
85,54,120
73,54,120
64,51,120
76,51,120
66,57,240
78,57,240
77,56,240
65,56,240
73,60,120
85,60,120
65,60,120
77,60,120
80,66,240
68,66,240
66,63,240
78,63,240
73,68,120
85,68,120
66,68,120
78,68,120
81,73,240
69,73,240
80,72,240
68,72,240
73,78,120
85,78,120
68,76,120
80,76,120
81,84,160
78,67,160
73,66,160
69,73,160
66,62,160
61,63,160
69,71,160
66,63,160
61,63,160
57,71,160
54,61,160
49,62,160
57,78,120
54,61,120
49,67,120
45,62,120
49,71,120
52,62,120
56,67,120
61,62,120
66,71,120
69,61,120
73,67,120
78,60,120
81,72,120
78,63,120
73,68,120
69,65,120
81,84,160
78,65,160
74,66,160
69,71,160
66,62,160
62,65,160
69,70,160
66,62,160
62,63,160
57,72,160
54,62,160
50,62,160
57,77,120
54,65,120
50,70,120
45,66,120
50,73,120
54,62,120
57,68,120
62,63,120
66,72,120
69,62,120
74,68,120
78,65,120
81,78,120
78,66,120
74,70,120
69,67,120
85,85,160
82,68,160
79,67,160
76,78,160
73,65,160
70,67,160
76,78,160
73,68,160
70,68,160
67,74,120
64,62,120
61,67,120
58,62,120
64,72,120
61,63,120
58,68,120
55,63,120
52,73,120
49,65,120
52,68,120
55,63,120
58,79,80
61,64,80
64,69,80
67,66,80
70,70,80
73,65,80
76,71,80
79,67,80
82,72,80
85,67,80
82,73,80
76,68,80
88,87,160
85,67,160
80,67,160
76,78,160
73,66,160
68,67,160
76,78,160
73,66,160
68,66,160
64,78,120
73,67,120
68,70,120
64,68,120
61,79,120
68,65,120
64,68,120
61,65,120
56,78,120
64,63,120
61,67,120
56,62,120
52,79,120
61,65,120
56,68,120
52,65,120
49,78,120
56,63,120
52,68,120
49,62,120
44,47,120
45,47,120
46,48,120
47,49,120
48,51,120
49,51,120
50,51,120
51,52,120
52,54,120
53,56,120
54,56,120
55,57,120
56,58,120
57,59,120
58,60,120
59,61,120
60,62,120
61,62,120
62,63,120
63,65,120
64,67,96
65,68,96
66,68,96
67,68,96
68,69,96
69,70,96
70,71,96
71,72,96
72,73,96
73,73,96
74,74,80
75,74,80
76,75,80
77,76,60
78,77,60
79,77,60
80,77,60
81,81,90
83,72,90
81,77,80
83,71,80
81,79,80
83,71,80
81,81,80
83,74,80
81,81,80
83,73,80
81,81,80
83,79,80
81,79,75
83,76,75
81,79,75
83,76,75
81,78,70
83,74,75
81,77,75
83,70,80
81,74,80
83,68,80
81,74,90
83,68,90
80,75,160
78,62,160
76,62,160
75,62,160
78,65,160
73,62,160
72,62,160
75,65,160
69,62,160
68,62,160
66,62,160
69,65,160
64,62,160
63,62,160
66,66,160
61,62,160
60,62,160
63,62,160
57,62,160
56,62,160
54,62,160
57,63,160
52,62,160
51,62,160
54,65,160
49,62,160
48,62,160
51,61,120
45,58,120
44,52,120
64,41,360
61,41,120
60,49,480
60,42,480
68,42,480
54,35,480
60,41,480
54,34,480
68,41,480
54,34,360
68,41,360
60,41,360
52,33,60
61,39,60
68,49,1440
76,47,360
73,47,120
72,56,480
66,39,480
72,47,480
80,47,480
80,47,480
72,47,480
66,39,480
72,47,360
66,39,360
80,47,360
64,41,60
73,46,60
80,58,840
66,49,60
72,53,60
80,63,840
64,56,60
73,62,60
80,70,840
66,60,60
72,68,60
80,80,840
64,68,60
73,68,60
80,74,140
64,68,140
68,71,140
73,68,140
76,74,140
68,69,140
73,72,140
76,68,140
80,74,140
73,68,140
76,71,140
80,69,140
85,75,140
76,72,140
80,74,140
85,72,140
88,80,140
85,80,140
80,79,140
76,74,140
85,81,140
80,80,140
76,79,140
73,73,140
80,80,140
76,79,140
73,78,140
68,74,140
76,80,140
73,80,140
68,78,140
64,73,140
73,78,140
68,75,140
64,74,140
61,69,140
68,78,140
64,75,140
61,74,140
56,71,140
64,78,140
61,75,140
56,74,140
52,71,140
61,78,140
56,75,140
52,74,140
56,71,140
49,74,480
73,83,360
80,98,360
76,83,360
85,98,360
61,83,360
64,83,360
68,97,360
73,97,360
