note,velocity,time
81,56,480
69,45,480
70,48,480
82,59,480
76,51,480
88,63,480
79,54,480
91,67,480
91,69,960
79,56,960
68,51,480
80,63,480
81,69,480
69,56,480
72,51,480
84,63,480
89,68,480
77,55,480
77,55,960
89,68,960
78,56,480
66,45,480
67,48,480
79,59,480
70,51,480
82,63,480
74,54,480
86,67,480
86,69,960
74,56,960
64,51,480
76,63,480
77,69,480
65,56,480
69,47,480
81,58,480
84,58,480
72,47,480
72,44,960
84,54,960
69,38,480
81,45,480
70,40,480
82,48,480
76,43,480
88,51,480
79,45,480
91,54,480
79,47,1020
91,56,960
68,43,480
80,51,480
81,53,480
69,44,480
72,43,480
84,51,480
89,55,480
77,46,480
77,46,960
89,55,960
78,45,480
66,38,480
67,40,480
79,48,480
70,43,480
82,51,480
74,45,480
86,54,480
86,56,960
74,47,960
64,43,480
76,51,480
77,56,480
65,47,480
69,39,480
81,47,480
84,47,480
72,39,480
72,37,960
84,44,960
79,53,480
91,66,480
91,72,480
79,58,480
76,53,480
88,66,480
82,68,480
70,55,480
69,55,960
81,69,960
81,55,480
93,69,480
93,75,480
81,60,480
77,55,480
89,69,480
86,74,480
74,59,480
72,57,960
84,72,960
84,57,480
96,72,480
96,79,480
84,64,480
81,60,480
93,75,480
89,77,480
77,63,480
74,67,960
86,83,960
86,55,480
98,68,480
98,73,480
86,59,480
82,52,480
94,65,480
91,69,480
79,55,480
77,52,960
89,65,960
79,44,480
91,49,480
79,43,480
91,54,480
76,39,480
88,49,480
70,43,480
82,53,480
69,43,1020
81,53,960
81,44,480
93,55,480
93,60,480
81,48,480
77,45,480
89,56,480
86,61,480
74,50,480
72,50,960
84,62,960
84,50,480
96,62,480
96,69,480
84,56,480
81,52,480
93,66,480
89,67,480
77,55,480
74,60,960
86,74,960
86,48,480
98,60,480
98,64,480
86,52,480
82,43,480
94,54,480
91,54,480
79,43,480
77,40,480
89,50,480
57,28,420
60,28,360
65,34,360
57,69,240
51,58,240
48,58,240
48,64,240
52,64,240
58,75,240
60,59,240
69,71,240
63,59,240
64,64,240
60,64,240
70,76,240
75,60,240
72,60,240
81,72,240
76,65,240
82,77,240
72,65,240
93,74,240
84,63,240
87,63,240
84,66,120
94,73,120
91,64,120
96,75,240
88,73,120
84,75,120
82,74,120
79,72,120
76,71,120
72,69,240
50,58,240
53,58,240
59,69,240
48,64,240
60,75,240
53,64,240
65,59,240
62,59,240
71,71,240
65,64,240
60,64,240
72,76,240
77,60,240
83,72,240
74,60,240
84,77,240
72,65,240
77,65,240
95,74,240
86,63,240
89,63,240
84,66,120
101,77,120
96,75,240
93,73,120
89,76,120
84,73,120
81,71,120
77,69,120
78,67,120
81,63,360
84,57,120
87,54,240
79,56,600
86,48,120
85,48,120
86,48,120
91,54,220
80,47,140
91,54,220
81,47,140
82,47,140
83,47,140
91,54,220
84,48,140
85,49,140
91,56,220
86,50,140
89,49,140
91,56,220
88,49,140
91,56,220
87,50,140
88,49,140
84,50,140
96,56,220
85,51,140
96,56,220
86,50,140
87,51,140
96,58,220
88,51,140
89,53,140
90,53,140
96,60,220
91,55,140
94,54,140
96,61,220
93,56,140
92,56,140
96,65,220
93,57,140
101,65,220
89,56,140
90,56,140
91,57,140
101,67,220
92,57,140
101,67,220
93,57,140
94,58,140
101,69,220
95,59,140
98,60,140
100,69,240
96,69,240
72,47,120
76,52,120
79,56,120
84,54,120
88,52,120
91,50,120
90,52,120
99,55,120
87,45,120
96,52,120
91,45,120
100,39,120
88,40,90
88,40,90
96,48,120
84,41,90
84,41,120
91,42,90
79,51,90
79,43,120
88,45,120
76,45,90
76,54,120
84,48,120
72,48,90
72,48,90
79,56,120
67,48,90
67,48,120
79,48,90
64,56,90
64,49,120
72,49,120
60,50,120
65,64,120
72,51,120
60,51,120
69,52,120
77,63,120
65,53,120
72,53,120
81,54,120
69,66,120
77,55,120
84,57,120
72,57,120
84,69,120
89,59,120
77,60,120
84,64,120
93,75,120
81,67,120
89,68,120
96,68,120
84,78,120
93,72,120
101,73,120
89,74,120
92,76,120
101,80,120
100,79,120
99,76,120
98,75,120
101,70,480
97,72,120
96,72,120
95,70,120
92,62,120
98,74,240
86,70,120
91,57,120
95,69,240
89,67,120
96,74,480
88,63,120
94,64,120
93,63,120
92,61,120
91,56,120
96,67,480
90,54,120
89,53,120
88,53,120
85,48,120
91,56,240
79,46,120
88,51,240
84,43,120
82,43,120
84,43,120
89,38,120
93,47,240
81,43,120
78,43,120
77,43,120
86,38,120
89,47,240
77,44,120
73,44,120
72,44,120
84,48,240
81,40,120
72,44,120
70,44,120
69,44,120
77,40,120
81,48,240
69,44,120
65,44,120
57,36,390
60,40,360
93,65,120
96,77,240
84,59,120
90,71,120
91,75,240
84,68,120
81,63,120
84,74,240
72,54,120
78,65,120
79,71,240
72,63,120
69,58,120
72,69,240
60,51,120
66,60,120
67,64,240
65,63,120
67,71,240
64,59,120
62,65,120
69,69,240
61,58,120
58,58,120
64,58,1200
67,63,240
70,68,240
69,57,240
73,70,480
67,69,240
74,66,240
65,63,240
85,65,120
93,77,240
79,59,120
88,71,120
86,65,120
89,75,240
77,68,120
72,63,120
81,74,240
67,54,120
76,65,120
74,65,120
77,71,240
64,63,120
65,58,120
71,69,240
67,60,120
68,63,120
72,68,480
65,63,120
64,58,120
67,63,120
70,55,120
73,53,120
76,52,120
79,52,120
82,49,120
84,51,480
88,51,360
91,52,240
96,54,240
84,48,240
96,53,240
89,49,120
83,56,240
95,56,120
92,51,120
86,52,240
91,52,120
89,54,120
93,46,30
91,54,240
88,46,180
85,52,60
89,45,30
88,56,240
84,47,180
82,52,60
86,45,30
84,54,240
81,46,180
78,52,60
82,49,30
81,54,240
77,47,180
75,52,60
82,67,360
74,67,120
79,61,120
82,64,120
85,66,120
86,68,120
91,70,120
94,72,120
97,74,120
98,76,360
88,54,360
90,68,120
91,63,120
96,60,120
93,76,360
84,52,360
87,65,120
88,60,120
91,59,120
89,75,360
82,52,360
85,60,120
84,56,120
88,56,120
89,73,120
84,63,120
81,66,120
93,60,120
57,49,390
60,49,360
65,58,330
93,65,120
96,77,240
84,59,120
90,71,120
91,75,240
84,68,120
81,63,120
84,74,240
72,54,120
78,65,120
79,71,240
72,63,120
69,58,120
72,69,240
60,51,120
66,60,120
67,65,240
65,63,120
67,71,240
64,59,120
62,65,120
69,69,240
61,58,120
58,58,120
64,58,1200
67,63,240
70,68,240
69,58,240
73,70,480
67,69,240
74,66,240
65,63,240
85,65,120
93,77,240
79,59,120
88,71,120
86,65,120
89,75,240
77,68,120
72,63,120
81,74,240
67,54,120
76,65,120
74,65,120
77,71,240
64,63,120
65,58,120
71,69,240
67,60,120
68,63,120
72,68,480
65,63,120
64,59,120
67,65,120
70,56,120
73,54,120
76,53,120
79,52,120
82,50,120
84,52,480
88,52,360
91,53,240
96,55,240
84,49,240
96,53,240
89,49,120
83,56,240
95,56,120
92,51,120
86,52,240
91,52,120
89,54,120
93,46,30
91,54,240
88,46,180
85,52,60
89,45,30
88,56,240
84,47,180
82,52,60
86,45,30
84,54,240
81,46,180
78,52,60
82,49,30
81,54,240
77,47,180
75,52,60
82,60,360
74,60,120
79,58,120
82,61,120
85,64,120
86,68,120
91,70,120
94,72,120
97,74,120
98,75,360
88,54,360
90,68,120
91,62,120
96,62,120
93,76,360
84,52,360
87,65,120
88,61,120
91,62,120
89,75,360
82,52,360
85,60,120
84,58,120
88,59,120
89,73,120
84,63,120
81,66,120
93,60,120
57,49,390
60,49,360
65,58,330
69,48,500
60,32,217
63,38,217
63,38,120
60,32,120
70,49,500
64,41,217
60,34,217
64,41,120
60,34,120
71,54,500
62,36,217
65,43,217
65,44,120
62,37,120
72,60,500
60,38,217
65,46,217
65,47,120
60,39,120
73,65,500
67,48,217
64,40,217
67,49,120
64,41,120
74,68,500
65,43,217
68,51,217
68,52,120
65,43,120
72,68,480
64,44,217
67,53,217
67,53,120
64,45,120
72,73,480
65,46,228
69,55,228
65,46,120
69,55,120
74,77,500
69,55,228
62,47,228
62,47,120
69,55,120
70,73,500
67,53,228
62,45,228
67,50,120
62,42,120
72,69,500
60,44,228
67,53,228
60,44,120
67,53,120
69,70,500
65,49,228
60,41,228
60,41,120
65,49,120
67,65,500
61,49,228
57,41,228
57,41,120
61,49,120
65,61,500
57,40,228
62,48,228
62,48,120
57,40,120
63,59,500
57,46,228
53,39,228
53,39,120
57,46,120
62,57,500
53,38,228
58,45,228
53,38,120
58,45,120
60,56,500
50,36,228
54,43,228
54,42,120
50,35,120
58,54,500
55,42,228
50,35,228
50,34,120
55,41,120
59,49,500
50,32,228
56,38,228
50,32,120
56,38,120
58,41,480
60,49,480
48,30,228
55,36,228
55,36,114
48,30,114
58,40,480
60,48,480
54,37,228
48,31,228
48,31,120
54,37,120
60,47,480
58,39,480
48,30,228
55,35,228
55,35,120
48,30,120
60,43,480
57,31,228
53,26,228
57,30,120
53,25,120
65,43,480
57,25,228
60,30,228
60,30,120
57,25,120
69,45,500
60,28,228
63,34,228
60,32,120
63,38,120
70,49,500
60,34,228
64,41,228
60,34,120
64,41,120
71,54,500
62,36,228
65,43,228
62,37,120
65,44,120
72,60,500
60,38,228
65,46,228
60,39,120
65,47,120
73,65,500
64,40,228
67,48,228
64,41,120
67,49,120
74,68,500
65,43,228
68,51,228
65,43,120
68,52,120
72,68,480
64,44,228
67,53,228
64,45,120
67,53,120
72,73,480
65,46,228
69,55,228
65,46,120
69,55,120
74,77,500
62,47,228
69,55,228
62,47,120
69,55,120
70,73,500
62,45,228
67,53,228
62,42,120
67,50,120
72,69,500
60,44,228
67,53,228
60,44,120
67,53,120
69,70,500
60,41,228
65,49,228
60,41,120
65,49,120
67,65,500
57,41,228
61,49,228
57,41,120
61,49,120
65,61,500
57,40,228
62,48,228
57,40,120
62,48,120
63,59,500
53,39,228
57,46,228
53,39,120
57,46,120
62,57,500
53,38,228
58,45,228
53,38,120
58,45,120
60,56,500
50,36,228
54,43,228
50,35,120
54,42,120
58,54,500
50,35,228
55,42,228
50,34,120
55,41,120
59,49,500
50,32,228
56,38,228
50,32,120
56,38,120
60,49,480
58,41,480
48,30,228
55,36,228
48,30,120
55,36,120
60,48,480
58,40,480
48,31,228
54,37,228
48,31,120
54,37,120
60,47,480
58,39,480
48,30,228
55,35,228
48,30,120
55,35,120
57,36,480
60,43,480
48,26,228
53,31,228
48,25,120
53,30,120
57,36,480
60,43,480
48,25,228
53,30,228
48,25,120
53,30,120
65,48,500
57,30,228
60,36,228
57,32,120
60,38,120
64,49,500
55,34,228
58,41,228
55,34,120
58,41,120
62,54,500
53,36,228
59,43,228
53,37,120
59,44,120
61,60,500
52,38,228
57,46,228
52,39,120
57,47,120
62,65,500
53,40,228
56,48,228
53,41,120
56,49,120
63,68,500
54,43,228
57,51,228
54,43,120
57,52,120
64,68,500
55,44,228
57,53,228
55,45,120
57,53,120
65,73,480
53,46,228
57,55,228
53,46,120
57,55,120
61,77,500
55,47,228
58,55,228
55,47,120
58,55,120
62,73,500
53,45,228
57,53,228
53,42,120
57,50,120
60,69,500
50,44,228
57,53,228
50,44,120
57,53,120
58,70,480
50,41,228
55,49,228
50,41,120
55,49,120
59,65,500
50,41,228
53,49,228
50,41,120
53,49,120
60,61,500
48,40,228
53,48,228
48,40,120
53,48,120
59,59,500
50,39,228
53,46,228
50,39,120
53,46,120
60,57,500
48,38,228
53,45,228
48,38,120
53,45,120
59,56,500
50,36,228
53,43,228
50,35,120
53,42,120
60,54,500
50,35,228
53,42,228
50,34,120
53,41,120
59,49,480
50,32,228
53,38,228
50,32,120
53,38,120
60,49,480
58,41,480
48,30,228
55,36,228
48,30,120
55,36,120
60,48,480
58,40,480
48,31,228
54,37,228
48,31,120
54,37,120
60,47,480
58,39,480
48,30,228
55,35,228
48,30,120
55,35,120
57,36,480
60,43,480
48,26,228
53,31,228
48,25,120
53,30,120
57,36,480
60,43,480
48,25,228
53,30,228
48,25,120
53,30,120
65,48,500
57,30,228
60,36,228
57,32,120
60,38,120
64,49,500
55,34,228
58,41,228
55,34,120
58,41,120
62,54,500
53,36,228
59,43,228
53,37,120
59,44,120
61,60,500
52,38,228
57,46,228
52,39,120
57,47,120
62,65,500
53,40,228
56,48,228
53,41,120
56,49,120
63,68,500
54,43,228
57,51,228
54,43,120
57,52,120
64,68,500
55,44,228
57,53,228
55,45,120
57,53,120
65,73,480
53,46,228
57,55,228
53,46,120
57,55,120
61,77,500
55,47,228
58,55,228
55,47,120
58,55,120
62,73,500
53,45,228
57,53,228
53,42,120
57,50,120
60,69,480
50,44,228
57,53,228
50,44,120
57,53,120
58,70,480
50,41,228
55,49,228
50,41,120
55,49,120
59,65,500
50,41,228
53,49,228
50,41,120
53,49,120
60,61,500
48,40,228
53,48,228
48,40,120
53,48,120
59,59,500
50,39,228
53,46,228
50,39,120
53,46,120
60,57,500
48,38,228
53,45,228
48,38,120
53,45,120
59,56,500
50,36,228
53,43,228
50,35,120
53,42,120
60,54,500
50,35,228
53,42,228
50,34,120
53,41,120
59,49,480
50,32,228
53,38,228
50,32,120
53,38,120
60,49,480
58,41,480
48,29,228
55,35,228
48,29,120
55,34,120
60,45,480
58,37,480
48,29,228
54,34,228
48,28,120
54,33,120
60,42,480
58,34,480
48,26,228
55,31,228
48,25,120
55,31,120
57,31,480
60,36,480
48,21,228
53,26,228
48,21,120
53,25,120
57,25,480
60,30,480
48,18,228
53,23,228
48,15,120
53,21,120
66,44,100
67,45,100
69,46,100
70,46,100
72,47,100
74,48,100
76,49,100
79,47,80
72,47,100
73,51,100
82,47,80
69,48,100
70,51,100
79,45,80
66,45,100
67,51,100
69,46,100
70,46,100
72,51,100
74,51,100
76,53,100
77,54,100
79,55,100
81,55,100
84,56,420
76,53,100
79,53,100
82,54,100
84,55,100
86,56,100
87,57,100
88,58,100
89,59,100
90,60,100
91,61,100
93,62,100
94,63,100
95,64,100
96,65,100
97,66,100
98,67,100
100,68,100
101,74,100
96,69,100
93,68,80
92,72,240
98,66,100
95,66,80
96,74,100
93,66,100
89,66,80
86,71,240
92,66,100
89,66,80
93,70,100
89,66,100
84,66,80
92,71,100
86,66,100
83,66,80
84,71,80
81,60,80
77,60,80
76,54,120
84,64,80
81,46,80
84,55,80
72,55,80
71,50,120
81,59,80
72,45,80
77,53,80
69,52,80
68,50,120
77,59,80
72,50,80
69,42,80
65,50,80
72,54,80
64,45,120
65,39,80
69,47,80
60,46,80
59,42,120
69,50,80
60,37,80
65,44,80
57,45,80
67,57,80
62,51,100
63,51,100
64,52,100
65,52,100
66,53,100
67,53,100
68,54,100
69,54,100
70,55,100
71,55,100
72,56,100
73,56,100
74,57,100
75,57,100
76,58,100
77,58,100
78,59,100
79,59,80
72,61,100
73,61,100
74,62,100
75,63,100
76,63,100
77,64,100
78,65,100
79,65,100
80,66,100
81,67,100
82,67,100
83,67,100
84,68,100
85,69,100
86,71,100
87,72,100
88,73,100
89,75,80
84,70,80
81,70,80
80,74,80
85,70,80
89,70,80
101,77,80
95,72,80
92,72,80
89,71,80
86,70,80
83,69,80
80,69,80
77,68,80
74,67,80
71,66,80
68,66,80
65,65,80
72,66,80
67,60,100
68,60,100
69,65,100
70,60,100
71,60,100
72,62,100
73,61,100
74,60,100
75,59,100
76,58,100
77,57,80
78,55,80
84,56,400
79,54,80
81,53,80
82,52,80
84,51,80
86,50,80
84,50,240
88,50,80
91,52,80
84,52,80
85,48,80
94,41,80
81,42,80
82,47,80
91,42,80
78,42,80
79,47,80
81,42,80
82,42,80
84,47,80
86,42,80
88,42,80
89,45,80
91,42,80
93,42,80
96,51,80
94,42,80
91,42,80
88,48,80
84,48,80
86,49,80
87,49,80
88,50,80
89,52,80
90,54,80
91,55,80
93,57,80
94,59,80
95,60,80
96,62,80
97,64,80
98,65,80
100,67,80
101,69,80
96,57,80
93,58,80
92,65,80
95,55,80
98,55,80
96,61,80
93,55,80
89,55,80
94,58,240
100,53,80
88,53,80
93,57,240
98,52,80
86,52,80
91,56,240
96,51,80
84,51,80
89,54,240
94,49,80
82,49,80
88,53,240
93,49,80
81,49,80
86,52,240
91,48,80
79,48,80
84,50,240
89,46,80
77,46,80
83,49,240
89,45,80
77,45,80
84,48,240
89,44,80
77,44,80
86,52,80
79,44,100
80,45,100
81,45,100
82,46,100
83,47,100
84,48,100
85,49,100
86,50,100
87,51,100
88,51,100
89,52,100
90,54,100
91,55,100
92,56,100
93,57,100
94,58,100
95,58,100
96,59,80
84,60,100
85,61,100
86,62,100
87,63,100
88,64,100
89,64,100
90,64,100
91,65,100
92,66,100
93,67,100
94,68,100
95,69,80
96,70,80
97,71,80
98,72,80
99,72,80
100,73,80
101,79,80
96,71,80
93,71,80
89,77,76
89,69,80
84,69,80
96,77,80
93,71,80
89,71,80
84,76,76
84,69,80
81,70,80
93,74,80
89,70,80
84,70,80
81,74,76
81,69,80
77,70,76
89,74,240
57,72,80
60,67,80
65,68,80
69,75,80
72,71,80
77,70,80
81,74,80
84,72,80
89,72,80
93,54,100
91,53,100
89,52,100
88,49,100
89,47,100
91,47,80
79,51,100
82,47,100
84,48,100
85,55,100
88,45,100
91,45,80
79,51,100
82,46,100
84,46,100
85,56,100
88,50,100
91,50,80
79,54,100
82,50,100
89,50,100
88,49,100
87,47,100
88,47,100
100,48,100
97,44,100
91,44,80
88,50,100
85,40,100
88,40,100
76,45,100
73,40,100
76,40,80
64,48,80
61,42,80
64,42,80
57,44,100
59,41,100
61,40,100
62,41,100
69,39,100
66,39,80
57,43,100
60,39,100
63,40,100
62,46,100
69,38,100
66,38,80
57,43,100
60,39,100
63,39,100
62,47,100
69,42,100
66,42,80
57,45,100
60,42,100
63,42,100
62,46,80
65,47,80
68,49,80
71,50,80
74,51,80
77,53,80
80,54,80
77,55,80
80,57,80
83,58,80
86,59,80
89,61,80
92,62,80
85,63,80
86,65,80
89,66,80
92,67,80
95,72,80
98,65,30
101,74,80
100,72,80
98,70,80
96,68,80
94,64,80
98,65,80
91,66,80
88,61,80
96,61,80
84,65,80
82,60,80
86,60,80
79,57,80
76,51,80
84,51,80
72,55,80
74,49,80
76,49,80
77,52,80
81,48,80
82,48,80
84,52,80
89,48,80
93,48,80
96,59,80
94,53,80
93,53,50
94,53,30
93,58,80
91,53,80
89,53,50
91,58,30
89,60,80
88,53,80
86,53,50
88,58,30
86,59,80
84,52,80
83,52,50
84,53,30
93,57,120
89,56,80
84,56,80
81,56,80
77,55,80
72,55,80
84,54,80
81,54,80
77,53,80
72,53,80
69,53,80
72,52,80
67,52,80
64,51,80
60,51,80
58,50,80
55,50,80
53,50,76
53,51,80
57,52,80
65,53,76
65,55,80
69,56,80
77,57,76
77,58,80
81,60,80
89,61,76
89,62,80
93,63,80
101,71,240
93,54,100
91,53,100
89,52,100
88,49,100
89,47,100
91,47,80
79,51,100
82,47,100
84,48,100
85,55,100
88,45,100
91,45,80
79,51,100
82,46,100
84,46,100
85,56,100
88,50,100
91,50,80
79,54,100
82,50,100
89,50,100
88,49,100
87,47,100
88,47,100
100,48,100
97,44,100
91,44,80
88,50,100
85,40,100
88,40,100
76,45,100
73,40,100
76,40,80
64,48,80
61,42,80
64,42,80
57,44,100
59,41,100
61,40,100
62,41,100
69,39,100
66,39,80
57,43,100
60,39,100
63,40,100
62,46,100
69,38,100
66,38,80
57,43,100
60,39,100
63,39,100
62,47,100
69,42,100
66,42,80
57,45,100
60,42,100
63,42,100
62,46,80
65,47,80
68,49,80
71,50,80
74,51,80
77,53,80
80,54,80
77,55,80
80,57,80
83,58,80
86,59,80
89,61,80
92,62,80
85,63,80
86,65,80
89,66,80
92,67,80
95,72,80
98,65,30
101,74,80
100,72,80
98,70,80
96,68,80
94,64,80
98,65,80
91,66,80
88,61,80
96,61,80
84,65,80
82,60,80
86,60,80
79,57,80
76,51,80
84,51,80
72,55,80
74,49,80
76,49,80
77,52,80
81,48,80
82,48,80
84,52,80
89,48,80
93,48,80
96,59,80
94,53,80
93,53,50
94,53,30
93,58,80
91,53,80
89,53,50
91,58,30
89,60,80
88,53,80
86,53,50
88,58,30
86,59,80
84,52,80
83,52,50
84,53,30
93,57,120
89,56,80
84,56,80
81,56,80
77,55,80
72,55,80
84,54,80
81,54,80
77,53,80
72,53,80
69,53,80
72,52,80
67,52,80
64,51,80
60,51,80
58,50,80
55,50,80
53,50,80
57,51,80
60,52,80
65,52,60
69,52,60
72,53,60
77,53,60
77,53,120
81,56,90
84,60,60
89,63,30
86,50,720
74,42,720
87,53,720
75,45,720
92,58,720
80,49,720
96,63,720
84,52,720
89,60,1440
101,70,1440
99,60,720
87,50,720
97,55,480
85,47,480
85,47,120
89,45,240
84,33,120
83,33,120
89,45,240
82,32,120
81,32,120
89,44,240
80,32,120
79,32,120
82,44,240
78,32,120
77,31,120
82,43,240
76,31,120
75,30,120
82,42,240
74,30,120
73,30,120
82,41,240
72,29,120
72,37,60
70,32,60
72,37,60
70,32,60
72,37,60
70,32,60
72,37,60
70,31,60
72,37,60
70,32,60
72,37,60
70,32,60
72,37,60
70,33,60
72,37,60
70,33,60
72,37,60
70,31,60
72,37,60
70,31,60
72,37,60
70,32,60
72,37,60
70,32,60
72,37,60
75,50,720
70,31,60
72,36,60
70,27,60
72,34,60
70,28,60
72,32,60
70,27,60
72,31,60
70,26,60
72,29,60
70,23,60
74,51,720
71,29,60
70,26,60
71,30,60
70,27,60
71,31,60
70,27,60
71,32,60
70,27,60
71,33,60
70,28,60
71,34,60
70,29,60
77,56,720
71,35,60
70,31,60
71,36,60
70,32,60
71,36,60
70,31,60
71,37,60
70,31,60
71,37,60
70,32,60
71,37,60
70,32,60
71,37,60
80,59,720
70,32,60
71,37,60
70,33,60
71,37,60
70,32,60
71,37,60
70,32,60
71,37,60
70,32,60
71,37,60
70,31,60
80,61,1440
71,37,60
70,31,60
71,36,60
70,31,60
71,36,60
70,30,60
71,36,60
70,29,60
71,35,60
70,29,60
71,35,60
70,29,60
71,34,60
70,29,60
71,33,60
70,29,60
71,33,60
70,27,60
71,32,60
70,27,60
71,32,60
70,27,60
71,31,60
70,27,60
74,50,720
71,30,60
70,26,60
71,30,60
70,26,60
71,22,60
70,24,60
71,27,60
70,24,60
71,27,60
70,24,60
71,27,60
70,23,60
75,51,720
72,29,60
70,26,60
72,30,60
70,26,60
72,30,60
70,27,60
72,31,60
70,26,60
72,32,60
70,27,60
72,32,60
70,28,60
79,56,720
72,33,60
70,29,60
72,34,60
70,30,60
72,35,60
70,28,60
72,35,60
70,29,60
72,36,60
70,30,60
72,36,60
70,31,60
72,36,60
82,59,720
70,32,60
72,37,60
70,32,60
72,37,60
70,32,60
72,37,60
70,32,60
72,37,60
70,32,60
72,37,60
70,31,60
70,55,600
82,61,600
69,43,60
70,46,60
71,48,72
72,49,68
73,50,68
74,50,68
75,51,68
76,52,68
77,53,68
78,53,60
79,54,60
80,55,60
81,55,60
82,56,96
83,57,96
84,58,96
85,59,96
86,60,96
87,61,48
87,61,48
87,62,48
87,62,48
87,62,48
87,62,4
91,57,60
89,57,60
87,57,60
86,56,60
84,57,60
82,62,120
81,54,120
84,57,120
82,56,120
80,55,120
79,54,120
76,50,60
77,50,60
76,50,60
77,50,60
76,50,60
77,50,60
76,50,60
77,52,60
80,56,180
79,52,60
70,53,1440
72,49,120
74,50,120
75,53,240
69,44,60
73,55,480
69,53,1440
72,53,960
77,56,1440
70,53,720
45,46,60
48,47,60
51,47,60
53,48,60
54,49,60
57,50,60
60,50,60
63,51,57
65,52,48
66,52,48
69,53,48
72,54,48
78,54,48
77,57,480
76,52,40
77,47,40
76,51,40
77,47,40
76,51,40
77,46,40
82,53,480
82,53,120
83,56,120
84,55,60
83,55,60
84,56,60
83,57,60
84,58,60
83,59,60
84,60,60
83,60,60
84,62,72
83,63,72
82,64,48
83,66,48
84,70,840
79,64,120
76,62,120
72,61,120
67,60,120
64,59,120
68,58,120
65,56,120
61,56,120
59,55,120
56,54,120
53,52,120
52,55,120
55,52,120
60,52,120
64,52,120
54,49,120
63,49,120
53,55,120
56,52,120
61,52,120
65,52,120
56,49,120
68,49,120
59,57,120
62,53,120
65,53,120
71,53,120
65,48,120
77,49,120
64,58,120
67,53,120
72,53,120
76,54,120
66,52,120
75,52,120
65,60,120
68,57,120
73,57,120
77,58,120
68,55,120
80,55,120
71,67,120
74,60,120
77,60,120
83,62,120
77,58,120
89,58,120
76,67,120
79,64,120
84,65,120
88,66,120
78,63,120
87,63,120
77,71,120
80,68,120
85,70,120
89,70,120
80,66,120
92,66,120
83,77,120
86,73,120
89,74,120
95,74,120
89,68,120
101,69,120
88,71,120
100,72,120
95,79,120
100,73,120
96,70,120
91,70,120
88,73,120
96,73,120
90,79,120
96,73,120
91,73,120
88,71,120
84,73,120
91,73,120
87,78,120
91,73,120
88,71,120
84,72,120
79,73,120
88,73,120
83,77,120
88,73,120
84,70,120
79,70,120
76,73,120
84,73,120
78,78,120
84,73,120
79,71,120
76,71,120
72,71,120
79,70,120
75,73,120
79,68,120
76,65,120
72,65,120
67,66,120
76,61,120
71,67,120
76,59,120
72,59,120
70,57,120
67,56,120
64,55,120
60,55,120
58,54,120
55,53,120
52,52,120
69,61,120
70,56,240
72,56,120
76,56,120
81,64,120
82,55,240
84,55,120
88,56,120
93,64,96
91,58,96
90,59,96
91,59,96
93,65,96
91,44,60
93,38,60
91,42,60
93,37,60
91,43,60
93,37,60
91,43,60
93,38,60
91,44,60
93,40,60
91,44,60
93,40,60
91,45,60
93,41,60
91,46,60
93,43,60
91,48,60
93,43,60
91,48,60
93,44,60
91,50,60
93,44,60
91,51,60
93,44,60
91,51,60
93,45,60
91,50,60
93,45,60
91,50,60
93,43,60
91,49,60
93,43,60
91,48,60
93,43,60
91,47,60
93,38,60
91,44,60
93,36,60
91,46,60
93,37,60
91,45,80
93,40,80
91,38,80
90,44,80
91,46,80
93,46,80
91,52,480
63,37,475
69,45,475
63,36,238
69,44,238
64,41,475
70,50,475
64,40,238
70,48,238
65,44,475
71,53,475
65,43,238
71,51,238
65,47,475
72,56,475
65,48,238
69,53,475
74,63,475
69,51,238
72,61,238
67,50,475
70,60,475
68,42,238
71,50,238
67,45,475
72,54,475
64,40,238
70,48,238
65,39,480
69,46,480
99,38,120
98,36,120
101,40,120
99,37,120
98,37,120
96,37,120
94,40,120
93,37,120
96,41,120
94,38,120
93,39,120
91,39,120
89,42,120
88,39,120
91,44,120
89,41,120
88,41,120
86,41,120
84,43,120
83,41,120
86,47,120
84,44,120
82,44,120
81,44,120
86,47,120
85,45,120
87,51,120
86,46,120
84,46,120
81,47,120
82,51,120
81,47,120
84,52,120
82,48,120
79,48,120
74,48,120
72,53,120
71,49,120
74,54,120
72,49,120
70,49,120
67,49,120
69,52,120
68,49,120
69,56,120
70,50,120
65,51,120
69,51,120
63,60,480
69,56,120
68,56,120
69,56,120
70,53,120
69,53,120
64,60,480
70,57,120
69,57,120
70,57,120
72,55,120
70,55,120
65,63,480
71,58,120
70,58,120
71,58,120
72,56,120
71,56,120
65,65,480
72,59,120
71,59,120
72,59,120
74,56,120
72,56,120
69,65,480
74,60,120
73,60,120
74,60,120
76,58,120
74,58,120
74,66,480
79,61,120
78,61,120
79,61,120
81,59,120
79,60,120
79,69,480
84,63,120
83,63,120
84,63,120
86,61,120
84,61,120
84,70,480
89,63,120
88,63,120
89,59,120
91,61,120
89,61,120
86,65,120
85,60,120
88,66,120
86,63,120
79,72,240
88,75,480
93,68,120
92,69,120
93,63,120
94,64,120
93,64,120
89,71,120
88,64,120
91,72,120
89,66,120
86,77,240
91,79,480
96,71,120
95,73,120
96,67,120
98,67,120
96,69,120
93,74,120
92,68,120
94,75,120
93,68,120
89,77,240
93,83,480
98,76,120
97,76,120
98,70,120
99,70,120
98,70,120
94,76,120
93,69,120
96,76,120
94,69,120
91,80,240
94,50,120
100,45,120
91,45,120
94,42,30
96,42,30
94,45,60
93,48,120
91,45,120
90,50,120
96,45,120
84,45,120
87,40,30
89,40,30
87,45,60
86,45,120
84,45,120
83,49,120
89,45,120
77,45,120
80,39,30
82,39,30
80,42,60
79,49,120
77,45,120
76,51,120
82,45,120
74,45,120
73,39,30
75,39,30
73,43,60
72,45,120
70,45,240
69,41,120
72,43,120
76,45,120
77,47,120
81,49,120
84,51,120
88,52,120
89,54,120
93,56,120
96,58,120
100,60,120
101,60,120
100,60,120
99,59,120
98,59,120
97,58,120
96,58,120
95,57,120
94,57,120
93,56,120
92,55,120
91,55,120
90,54,120
89,52,120
93,51,120
92,50,120
91,49,120
90,48,120
89,47,120
88,46,120
87,46,120
86,45,120
85,44,120
84,43,120
83,42,120
82,46,120
88,40,120
87,39,120
86,39,120
85,39,120
84,38,120
83,38,120
82,37,120
81,37,120
80,37,120
79,36,120
78,36,120
77,45,120
69,47,240
81,44,120
70,49,240
82,45,120
71,51,240
83,48,120
72,54,240
84,50,120
74,56,240
86,51,120
76,58,240
88,54,120
77,60,240
89,56,60
79,57,60
91,63,240
69,54,240
81,49,120
70,55,240
82,51,120
71,57,240
83,52,120
72,58,240
84,52,120
74,60,240
86,53,120
76,62,240
88,55,120
77,63,240
89,55,120
79,65,240
91,56,120
80,66,240
92,54,60
81,54,60
93,68,120
81,66,240
93,63,120
83,68,240
95,66,120
85,71,240
97,69,60
86,69,480
98,74,420
88,71,240
100,76,180
89,71,720
101,76,660
86,70,480
98,77,420
88,73,240
100,78,180
89,71,800
101,76,720
86,83,120
98,76,120
89,76,120
94,76,120
92,76,120
89,76,120
86,84,120
82,83,120
80,81,120
77,80,120
74,79,120
70,77,120
68,76,120
68,75,720
62,62,720
64,62,720
61,65,140
69,65,140
62,66,140
64,66,140
66,67,140
68,68,140
69,69,140
71,70,140
73,71,140
74,72,140
76,73,140
78,74,140
80,74,140
81,75,140
83,76,140
85,77,140
86,78,140
88,79,140
90,80,140
92,81,140
93,81,140
95,82,140
97,83,140
98,84,140
99,85,140
100,91,120
97,82,120
93,82,120
88,85,120
86,81,120
92,82,120
93,90,120
88,85,120
85,81,120
81,81,120
80,77,120
86,77,120
88,83,120
85,76,120
81,76,120
76,76,120
74,72,120
80,73,120
81,82,120
76,76,120
73,76,120
69,76,120
68,72,120
74,72,120
76,70,120
73,63,120
69,63,120
64,62,120
62,57,120
68,57,120
69,63,120
64,57,120
61,55,120
57,53,120
56,48,120
62,46,120
64,48,140
61,51,140
57,54,140
52,51,140
56,48,140
62,48,140
64,48,140
61,51,140
57,54,140
52,51,140
56,48,140
62,47,140
64,36,140
61,38,140
57,40,140
52,38,140
56,35,140
62,35,140
64,36,140
61,38,140
57,40,140
52,38,140
56,35,140
62,35,140
57,36,140
64,36,140
58,36,140
59,36,140
60,35,140
61,35,140
62,35,140
63,35,140
64,34,140
65,34,140
66,34,140
67,33,140
68,33,140
69,33,140
68,29,140
69,33,140
68,30,140
69,33,140
68,29,140
69,33,140
68,30,140
69,33,140
68,30,140
69,33,140
68,29,140
69,33,140
68,29,140
69,33,140
68,30,140
69,33,140
68,30,60
70,39,60
69,41,120
64,34,120
68,42,120
64,34,120
69,42,120
64,36,60
72,38,60
70,44,120
64,38,120
69,47,120
64,38,120
70,48,120
64,40,120
71,50,120
65,41,120
77,51,1440
65,41,120
71,47,120
65,39,60
74,41,60
72,50,120
65,42,120
71,49,120
65,41,120
72,49,120
65,44,120
72,51,120
69,44,120
81,56,720
75,47,120
65,47,120
74,52,120
65,45,120
74,53,120
67,45,120
79,58,720
70,53,120
67,45,120
70,51,120
67,45,120
70,51,120
67,45,120
79,58,720
73,42,120
67,45,120
72,51,120
67,45,120
72,51,120
65,45,120
77,58,480
69,45,120
65,45,120
69,45,120
65,45,120
64,55,480
60,42,120
72,43,120
60,43,120
65,51,240
60,44,120
66,57,480
62,45,120
74,45,120
62,45,120
67,54,240
62,45,120
68,59,480
64,46,120
76,47,120
64,47,120
69,56,240
64,48,120
69,62,480
65,48,120
77,49,120
65,49,120
70,58,240
65,49,120
71,64,480
67,50,120
79,50,480
67,51,120
72,60,240
67,49,120
81,67,480
69,57,120
72,57,120
69,57,120
71,53,240
68,46,120
70,53,240
67,46,120
76,53,240
67,45,120
79,53,240
67,46,120
81,53,480
69,45,120
72,48,120
69,44,120
71,46,240
68,36,120
70,42,240
67,37,120
76,42,240
67,36,120
79,43,240
67,37,120
81,43,480
69,37,120
68,41,120
69,36,120
81,47,240
69,37,120
77,50,240
69,38,120
72,47,240
69,38,120
81,47,240
69,38,120
76,52,240
69,38,120
72,48,240
69,38,120
81,49,240
69,40,120
77,54,240
69,41,120
72,53,240
69,42,120
81,60,240
69,44,120
72,56,240
69,45,120
81,63,240
69,45,120
73,59,240
69,46,120
81,70,240
69,49,120
74,59,240
69,49,120
81,71,240
69,50,120
75,66,240
69,52,120
82,74,240
70,54,120
75,68,240
70,55,120
83,80,240
71,57,120
75,72,240
71,58,120
84,84,240
72,59,120
73,73,240
85,86,240
59,65,120
61,69,120
65,73,120
68,77,120
71,86,120
83,81,120
71,77,120
73,78,120
77,79,120
80,81,120
83,88,120
95,85,120
92,81,120
89,80,120
85,79,120
83,78,120
80,76,120
77,75,120
73,74,120
71,73,120
68,72,120
65,71,120
70,67,140
64,61,140
63,62,140
69,62,140
68,64,140
62,63,140
61,70,140
67,63,140
66,63,140
60,63,140
59,63,140
65,63,140
64,66,140
58,56,140
55,58,140
63,60,140
62,62,140
55,64,140
58,70,140
61,64,140
60,66,140
55,67,140
57,69,140
60,70,120
62,70,140
56,64,140
55,64,140
61,64,140
60,63,140
54,63,140
53,70,140
59,60,140
58,60,140
52,57,140
51,55,140
57,53,140
56,62,140
50,56,140
47,54,140
56,53,140
52,51,140
47,50,140
56,57,140
53,55,140
48,54,140
56,52,140
53,51,140
51,49,120
57,51,140
48,42,140
51,42,140
54,42,140
55,42,140
50,42,140
49,51,140
52,41,140
53,41,140
48,41,140
53,41,140
60,41,140
58,50,140
52,40,140
56,41,140
59,41,140
60,41,140
55,41,140
58,52,140
61,42,140
62,41,140
55,41,140
58,41,140
65,41,140
64,50,140
55,42,140
63,42,140
66,42,140
67,42,140
62,43,140
61,52,140
64,42,140
65,43,140
60,43,140
65,43,140
72,43,140
70,53,140
64,43,140
68,44,140
71,44,140
72,44,140
67,45,140
70,57,140
73,49,140
74,45,140
67,46,140
70,46,140
77,46,140
75,57,140
76,55,120
67,56,120
69,57,120
70,58,120
72,59,120
73,60,120
76,61,120
79,62,120
81,63,120
82,64,120
84,65,120
85,68,140
91,67,120
88,66,120
85,65,120
82,64,120
79,63,120
76,62,140
73,61,120
70,60,120
67,59,120
64,58,120
61,57,120
62,56,140
74,55,120
62,57,120
64,59,120
65,60,120
67,62,120
68,63,140
71,65,120
74,66,120
76,68,120
77,69,120
79,71,120
80,72,140
86,67,120
83,68,120
80,67,120
77,66,120
74,66,120
71,65,140
68,64,120
65,63,120
62,62,120
59,61,120
56,60,120
57,68,120
69,59,120
61,59,120
67,59,120
65,59,120
62,59,120
64,67,120
70,57,120
69,57,120
65,57,120
68,57,120
74,56,120
72,66,120
69,57,120
71,57,120
77,57,120
76,56,120
72,55,120
73,65,120
79,56,120
77,56,120
74,56,120
76,56,120
82,56,120
81,69,120
77,57,120
73,57,120
81,58,120
77,58,120
74,60,120
76,71,120
84,60,120
81,61,120
77,60,120
80,61,120
88,61,120
84,76,120
81,66,120
83,67,120
91,67,120
88,68,120
84,68,120
85,82,120
93,67,120
89,68,120
86,69,120
88,69,120
96,70,120
93,82,120
89,70,120
95,70,120
101,71,120
96,78,120
89,71,120
95,80,120
101,71,120
96,80,120
89,72,120
95,79,120
101,72,120
96,78,120
89,72,120
95,78,120
101,72,120
96,77,120
89,71,120
95,78,120
101,70,120
96,79,120
89,70,120
95,78,120
101,68,120
96,78,120
89,78,120
63,56,720
66,56,720
72,66,720
67,56,1440
64,56,720
72,68,2640
64,61,720
67,61,720
67,60,960
63,42,475
69,50,475
63,40,238
69,48,238
64,45,475
70,54,475
64,43,238
70,52,238
65,47,475
71,56,475
65,45,238
77,54,238
65,49,475
72,58,475
65,49,238
69,53,475
74,63,475
69,51,238
74,61,238
70,50,360
74,60,360
70,44,168
74,52,144
82,58,120
69,40,408
72,49,384
81,56,360
70,39,168
72,46,144
79,52,120
69,34,528
72,39,504
77,50,480
99,40,120
98,39,120
101,42,120
99,39,120
98,39,120
96,39,120
94,41,120
93,39,120
96,43,120
94,39,120
93,39,120
91,39,120
89,42,120
88,39,120
91,44,120
89,40,120
88,40,120
86,40,120
84,42,120
83,40,120
86,45,120
84,41,120
82,41,120
81,42,120
86,44,120
85,42,120
87,47,120
86,43,120
84,43,120
81,43,120
82,47,120
81,43,120
84,48,120
82,44,120
79,44,120
74,44,120
72,48,120
71,45,120
74,50,120
72,45,120
70,45,120
67,45,120
69,48,120
68,45,120
70,51,120
69,45,120
65,47,120
69,47,120
63,55,480
69,51,120
68,51,120
69,51,120
63,52,240
70,48,120
69,48,120
64,56,480
70,53,120
69,53,120
70,53,120
64,53,240
72,51,120
70,51,120
65,58,480
71,54,120
70,54,120
71,54,120
65,56,240
72,53,120
71,53,120
65,61,480
72,55,120
71,55,120
72,56,120
74,53,120
72,53,120
69,62,480
74,57,120
73,57,120
74,57,120
69,59,240
76,56,120
74,56,120
74,63,480
79,58,120
78,58,120
79,58,120
74,60,240
81,57,120
79,58,120
79,67,480
84,61,120
83,61,120
84,61,120
79,67,240
86,59,120
84,59,120
84,69,480
89,61,120
88,63,120
89,59,120
84,66,240
91,61,120
89,61,120
86,65,120
85,60,120
88,66,120
86,63,120
79,72,240
88,75,480
93,68,120
92,69,120
93,63,120
88,72,240
94,64,120
93,65,120
89,72,120
88,65,120
91,73,120
89,67,120
86,75,240
91,85,480
96,76,120
95,78,120
96,72,120
91,81,240
98,72,120
96,74,120
93,79,120
92,73,120
94,80,120
93,73,120
89,82,240
91,48,120
90,42,120
93,48,120
91,42,120
86,43,240
91,48,120
90,42,120
93,48,120
91,42,120
85,43,240
91,48,120
90,42,120
93,48,120
91,42,120
84,43,240
89,48,480
101,43,240
90,48,120
93,42,120
91,48,120
86,42,120
98,50,120
90,48,120
93,42,120
91,48,120
85,42,120
97,49,120
90,48,120
93,42,120
91,48,120
84,42,120
96,49,120
92,48,120
94,42,120
93,48,120
89,42,120
101,50,240
98,60,120
97,55,120
100,55,120
98,55,120
95,57,120
91,53,120
97,60,120
96,55,120
99,55,120
97,55,120
94,57,120
91,54,120
94,61,120
93,55,120
96,55,120
94,55,120
91,58,120
88,55,120
93,60,120
92,55,120
94,55,120
93,55,120
89,56,120
84,55,120
86,60,120
85,55,120
88,54,120
86,53,120
83,55,120
79,50,120
85,57,120
84,52,120
87,51,120
85,51,120
82,52,120
79,49,120
82,54,120
81,49,120
84,48,120
82,48,120
79,50,120
76,47,120
81,51,120
80,46,120
82,46,120
81,45,120
77,45,120
72,44,120
74,48,120
73,44,120
76,44,120
74,44,120
71,45,120
67,42,120
73,48,120
72,44,120
75,44,120
73,44,120
70,45,120
67,43,120
70,48,120
69,44,120
72,44,120
70,44,120
67,46,120
64,44,120
69,48,120
68,44,120
70,44,120
69,44,120
65,44,120
60,44,120
62,40,140
61,37,140
64,37,140
62,36,140
59,37,140
55,34,140
61,39,140
60,36,140
63,35,140
61,35,140
58,36,140
55,34,140
58,38,140
57,35,140
60,35,140
58,34,140
55,36,140
52,34,140
55,37,140
54,34,140
57,34,140
55,34,140
52,33,140
48,33,120
53,36,140
52,33,140
53,33,140
48,32,140
45,34,140
48,32,140
52,35,140
51,32,140
52,32,140
46,32,140
43,31,140
46,31,140
53,34,140
52,31,140
53,31,140
48,31,140
45,33,140
48,31,140
52,34,140
51,31,140
52,31,140
46,31,140
43,31,140
46,31,140
53,34,140
52,31,140
53,31,140
48,31,140
45,33,140
48,31,140
52,34,140
51,31,140
52,31,140
46,31,140
43,31,140
46,31,120
53,31,240
45,26,240
64,26,120
72,31,120
57,26,120
65,31,120
