note,velocity,time
73,68,240
71,62,240
76,63,960
68,44,480
71,44,480
80,67,240
83,63,240
85,69,240
83,62,240
80,64,960
71,44,480
68,44,480
76,63,240
73,60,240
80,63,240
78,59,240
73,62,960
66,44,480
69,44,480
73,61,240
71,57,240
78,62,240
76,57,240
71,58,960
68,44,480
64,44,480
70,61,240
71,59,240
73,68,240
71,62,240
76,63,960
68,44,480
71,44,480
80,67,240
83,63,240
85,69,240
83,62,240
80,64,960
68,44,480
71,44,480
76,63,240
73,60,240
71,63,240
75,59,240
83,62,960
75,44,480
71,44,480
82,61,240
80,57,240
76,57,480
70,44,480
67,44,480
75,57,240
73,53,240
73,57,240
63,40,480
68,40,480
71,52,240
59,37,480
70,52,240
63,38,480
68,52,240
69,64,240
65,60,240
66,64,720
61,39,120
66,39,120
69,42,120
78,67,240
76,63,240
76,67,240
74,63,240
75,66,960
63,39,120
66,39,120
69,42,120
73,67,240
71,67,240
69,64,240
65,60,240
66,64,720
61,46,120
66,50,120
69,55,120
81,68,160
80,64,160
78,63,160
76,68,240
63,35,240
69,35,240
75,60,240
73,68,240
64,35,240
69,35,240
75,59,240
73,63,240
71,56,240
65,35,240
70,59,240
66,35,240
71,57,240
69,64,240
65,60,240
66,64,720
61,39,120
66,39,120
69,42,120
78,67,240
76,63,240
76,67,240
74,63,240
75,66,960
63,39,120
66,39,120
69,42,120
73,67,240
71,67,240
69,64,240
65,60,240
66,64,720
61,46,120
66,50,120
69,55,120
81,68,160
80,64,160
78,63,160
76,68,240
63,35,240
69,35,240
75,60,240
80,64,160
78,61,160
76,60,160
75,63,240
64,29,240
73,59,240
69,29,240
78,63,160
76,60,160
75,60,160
73,71,240
69,37,240
66,37,240
71,66,240
73,80,240
71,73,240
64,42,240
68,42,240
73,84,240
62,48,240
71,79,240
68,48,240
73,86,240
63,55,240
69,55,240
71,89,240
73,88,240
61,70,240
59,64,240
71,81,240
71,69,960
76,85,960
64,69,960
68,69,960
68,69,240
71,69,240
80,86,240
76,69,240
71,66,240
76,66,240
80,66,240
83,82,240
76,70,240
85,89,240
80,70,240
73,70,240
83,81,240
71,64,240
68,66,960
71,66,960
76,66,960
80,83,960
68,66,240
76,82,240
71,66,240
64,66,240
71,61,240
73,78,240
68,61,240
61,61,240
68,66,240
80,82,240
71,66,240
66,61,240
78,77,240
61,64,960
73,81,960
66,64,960
69,64,960
61,62,240
66,62,240
73,79,240
69,62,240
63,58,240
66,58,240
71,73,240
71,61,240
78,77,240
68,61,240
66,61,240
64,58,240
76,73,240
64,59,960
71,74,960
68,59,960
59,59,960
68,62,240
70,79,240
64,62,240
58,62,240
59,61,240
71,77,240
64,70,240
73,88,240
61,70,240
68,70,240
59,64,240
71,81,240
64,64,240
68,64,240
64,69,960
76,85,960
68,69,960
71,69,960
68,69,240
71,69,240
80,86,240
76,69,240
71,66,240
76,66,240
80,66,240
83,82,240
80,70,240
76,70,240
73,70,240
85,89,240
71,64,240
83,81,240
71,66,960
80,83,960
76,66,960
68,66,960
71,66,240
76,82,240
68,66,240
64,66,240
61,61,240
73,78,240
68,61,240
71,61,240
68,66,240
71,66,240
80,82,240
78,77,240
66,61,240
61,64,960
66,64,960
73,81,960
69,64,960
61,62,240
66,62,240
69,62,240
73,79,240
66,58,240
63,58,240
71,73,240
66,61,240
78,77,240
68,61,240
71,61,240
64,58,240
76,73,240
68,59,960
71,74,960
64,59,960
59,59,960
58,59,240
70,74,240
64,59,240
68,59,240
64,58,240
68,58,240
71,72,240
59,58,240
61,58,240
64,58,240
68,58,240
73,72,240
70,67,240
58,52,240
59,52,960
64,52,960
71,66,960
68,52,960
58,44,240
64,44,240
68,44,240
70,56,240
68,42,240
71,53,240
59,42,240
64,42,240
68,40,240
73,51,240
64,40,240
61,40,240
58,37,240
70,48,240
64,37,960
71,47,960
68,37,960
59,37,960
60,62,390
64,67,360
69,69,330
72,73,540
72,62,240
60,60,480
66,60,480
72,68,360
71,62,60
69,62,60
62,63,120
67,71,120
62,62,120
67,62,120
74,70,120
64,68,120
67,68,120
72,68,120
76,75,120
67,66,120
72,66,120
79,73,120
67,69,960
71,69,960
74,78,960
68,64,240
71,64,240
76,81,120
74,71,120
72,66,120
71,59,120
72,55,120
83,55,30
78,59,120
84,59,120
72,57,120
83,55,30
84,58,120
78,58,120
72,55,120
83,55,30
84,59,120
78,59,120
68,64,240
71,64,240
76,81,120
74,71,120
72,66,120
71,59,120
72,55,120
83,55,30
78,59,120
84,59,120
72,57,120
83,55,30
84,58,120
78,58,120
72,55,120
83,55,30
84,59,120
78,59,120
68,64,240
71,64,240
76,81,120
74,71,120
72,66,120
71,59,120
60,62,390
64,67,360
69,69,330
72,73,540
72,62,240
60,60,480
66,60,480
72,68,360
71,62,60
69,62,60
62,63,120
67,71,120
62,62,120
67,62,120
74,70,120
64,68,120
67,68,120
72,68,120
76,75,120
67,66,120
72,66,120
79,73,120
67,69,960
71,69,960
74,78,960
71,64,240
76,81,120
74,71,120
73,66,120
71,59,120
79,55,30
74,59,120
71,59,120
78,59,120
79,55,30
74,58,120
78,58,120
71,58,120
79,55,30
74,59,120
78,59,120
71,59,120
71,64,240
76,81,120
74,71,120
73,66,120
71,59,120
79,55,30
74,59,120
71,59,120
78,59,120
79,55,30
74,58,120
78,58,120
71,58,120
79,55,30
74,59,120
78,59,120
71,59,120
71,64,240
76,81,120
74,71,120
73,66,120
71,59,120
71,55,30
66,59,120
62,59,120
69,59,120
71,55,30
66,58,120
69,58,120
62,58,120
71,55,30
66,59,120
69,59,120
60,59,120
61,64,240
69,81,132
67,71,132
66,66,132
64,59,132
62,80,132
61,68,132
59,66,132
57,70,132
50,73,132
49,64,132
47,63,132
45,61,132
60,62,390
64,67,360
69,69,330
72,73,540
72,62,240
60,60,480
66,60,480
72,68,360
71,62,60
69,62,60
62,63,120
67,71,120
62,62,120
67,62,120
74,70,120
64,68,120
67,68,120
72,68,120
76,75,120
67,66,120
72,66,120
79,73,120
67,69,960
71,69,960
74,78,960
68,64,240
71,64,240
76,81,120
74,71,120
72,66,120
71,59,120
72,55,120
83,55,30
78,59,120
84,59,120
72,57,120
83,55,30
84,58,120
78,58,120
72,55,120
83,55,30
84,59,120
78,59,120
68,64,240
71,64,240
76,81,120
74,71,120
72,66,120
71,59,120
72,55,120
83,55,30
78,59,120
84,59,120
72,57,120
83,55,30
84,58,120
78,58,120
72,55,120
83,55,30
84,59,120
78,59,120
68,64,240
71,64,240
76,81,120
74,71,120
72,66,120
71,59,120
60,62,390
64,67,360
69,69,330
72,73,540
72,62,240
60,60,480
66,60,480
72,68,360
71,62,60
69,62,60
62,63,120
67,71,120
62,62,120
67,62,120
74,70,120
64,68,120
67,68,120
72,68,120
76,75,120
67,66,120
72,66,120
79,73,120
67,69,960
71,69,960
74,78,960
71,64,240
76,81,120
74,71,120
73,66,120
71,59,120
79,55,30
74,59,120
71,59,120
78,59,120
79,55,30
74,58,120
78,58,120
71,58,120
79,55,30
74,59,120
78,59,120
71,59,120
71,64,240
76,81,120
74,71,120
73,66,120
71,59,120
79,55,30
74,59,120
71,59,120
78,59,120
79,55,30
74,58,120
78,58,120
71,58,120
79,55,30
74,59,120
78,59,120
71,59,120
71,64,240
76,81,120
74,71,120
73,66,120
71,59,120
80,55,30
75,59,120
71,59,120
78,59,120
80,55,30
75,58,120
78,58,120
71,58,120
80,55,30
75,59,120
78,59,120
71,59,120
80,55,30
71,59,120
75,59,120
78,59,120
85,55,30
75,59,120
78,59,120
83,59,120
85,55,30
75,58,120
83,58,120
78,58,120
85,55,30
75,59,120
83,59,120
78,59,120
85,55,30
83,59,120
75,59,120
78,59,120
76,59,60
74,62,60
75,59,60
71,63,60
76,62,60
74,66,60
75,62,60
80,66,60
77,70,60
78,66,60
71,71,60
80,67,60
77,73,60
78,71,60
83,75,60
80,80,60
81,77,60
78,79,60
83,71,60
80,77,60
81,71,60
78,76,60
83,70,60
80,75,60
81,69,60
78,75,60
83,68,60
80,73,60
81,67,60
78,72,60
83,65,60
80,69,60
81,64,60
78,65,60
83,57,60
80,60,60
81,55,60
78,57,60
83,52,60
80,54,60
81,49,60
78,51,60
83,45,60
80,48,60
81,43,60
76,44,60
83,39,60
79,44,60
80,39,60
76,44,60
83,40,60
79,44,60
80,40,60
76,44,60
83,39,60
79,44,60
80,39,60
76,46,60
83,43,60
79,47,60
80,43,60
76,50,60
83,45,60
80,47,60
85,45,60
76,44,60
83,40,60
80,44,60
85,40,60
76,44,60
83,40,60
80,44,60
85,40,60
76,45,60
83,43,60
80,46,60
85,43,60
78,49,60
83,40,60
81,45,60
87,40,60
78,46,60
83,44,60
81,45,60
87,42,60
78,47,60
83,44,60
81,44,60
87,43,60
78,46,60
83,43,60
81,45,60
87,42,60
81,44,60
83,40,60
80,44,60
88,40,60
79,44,60
83,40,60
80,44,60
88,40,60
79,44,60
83,40,60
80,44,60
88,40,60
79,46,60
85,40,60
80,46,60
83,43,60
76,49,60
83,43,60
79,46,60
80,44,60
76,44,60
83,40,60
79,44,60
80,40,60
76,44,60
83,39,60
79,47,60
80,43,60
76,49,60
83,44,60
79,47,60
80,44,60
76,50,60
83,44,60
80,49,60
85,44,60
76,47,60
83,43,60
80,46,60
85,44,60
76,44,60
83,40,60
80,44,60
85,40,60
76,45,60
83,42,60
80,45,60
85,42,60
79,45,60
87,42,60
80,47,60
83,43,60
79,50,60
87,44,60
80,49,60
83,46,60
79,44,60
87,40,60
80,44,60
83,40,60
79,47,60
87,44,60
80,47,60
83,45,60
82,49,60
91,44,60
84,47,60
85,44,60
82,50,60
91,44,60
86,47,60
87,43,60
80,50,60
92,45,60
87,46,60
80,43,60
80,45,60
75,42,60
75,44,60
68,36,60
69,61,240
65,57,240
66,61,240
73,46,120
66,42,120
69,49,120
73,45,120
78,62,240
76,60,240
76,62,240
74,60,240
75,62,960
69,44,120
63,40,120
66,47,120
69,45,120
73,62,240
71,62,240
69,61,240
65,57,240
66,61,240
73,55,120
69,52,120
73,54,120
78,56,120
81,63,120
80,61,120
78,60,120
76,63,240
63,33,240
69,33,240
75,57,240
73,63,240
64,33,240
69,33,240
75,56,240
73,60,240
65,33,240
71,52,240
70,56,240
66,33,240
71,53,240
69,61,240
65,57,240
66,61,240
73,45,120
66,41,120
69,45,120
73,43,120
78,62,240
76,60,240
76,62,240
74,60,240
75,62,960
69,46,120
63,41,120
66,48,120
69,46,120
73,62,240
71,62,240
69,61,240
65,57,240
66,61,240
73,48,120
69,50,120
73,52,120
78,54,120
81,63,160
80,61,160
78,60,160
76,63,240
63,33,240
69,33,240
75,57,240
80,61,160
78,58,160
76,57,160
75,60,240
64,27,240
69,27,240
73,56,240
78,60,160
76,57,160
75,57,160
73,67,240
66,35,240
69,35,240
71,62,240
73,71,240
64,37,240
68,37,240
71,63,240
73,74,240
62,40,240
68,40,240
71,68,240
73,75,240
63,46,240
69,46,240
71,75,240
69,59,60
73,53,60
70,59,60
71,55,60
69,59,60
73,55,60
70,59,60
71,53,60
69,59,60
76,55,60
74,59,60
75,53,60
69,60,60
76,56,60
74,59,60
75,53,60
75,53,60
80,47,60
77,51,60
78,47,60
75,50,60
80,46,60
77,49,60
78,43,60
78,48,60
83,44,60
80,47,60
81,41,60
78,46,60
83,43,60
80,44,60
81,42,60
76,44,60
83,39,60
79,44,60
80,39,60
76,44,60
83,40,60
79,44,60
80,40,60
76,44,60
83,39,60
79,44,60
80,39,60
76,46,60
83,43,60
79,47,60
80,43,60
76,50,60
83,45,60
80,47,60
85,45,60
76,44,60
83,40,60
80,44,60
85,40,60
76,44,60
83,40,60
80,44,60
85,40,60
76,45,60
83,43,60
80,46,60
85,43,60
78,49,60
83,40,60
81,45,60
87,40,60
78,46,60
83,44,60
81,45,60
87,42,60
78,47,60
83,44,60
81,44,60
87,43,60
78,46,60
83,43,60
81,45,60
87,42,60
81,44,60
83,40,60
80,44,60
88,40,60
79,44,60
83,40,60
80,44,60
88,40,60
79,44,60
83,40,60
80,44,60
88,40,60
79,46,60
85,40,60
80,46,60
83,43,60
76,49,60
83,43,60
79,46,60
80,44,60
76,44,60
83,40,60
79,44,60
80,40,60
76,44,60
83,39,60
79,47,60
80,43,60
76,49,60
83,44,60
79,47,60
80,44,60
76,50,60
83,44,60
80,49,60
85,44,60
76,47,60
83,43,60
80,46,60
85,44,60
76,44,60
83,40,60
80,44,60
85,40,60
76,45,60
83,42,60
80,45,60
85,42,60
78,45,60
83,42,60
81,47,60
87,43,60
78,47,60
83,44,60
81,46,60
87,42,60
78,44,60
83,40,60
81,44,60
87,40,60
78,47,60
83,44,60
81,47,60
87,45,60
81,49,60
83,44,60
80,47,60
88,44,60
79,50,60
83,44,60
80,47,60
88,43,60
79,50,60
83,45,60
80,46,60
88,43,60
79,45,60
85,42,60
80,44,60
83,36,60
76,49,60
83,44,60
79,47,60
80,44,60
71,47,60
76,44,60
75,47,60
76,43,60
71,46,60
76,43,60
75,45,60
76,43,60
71,45,60
76,42,60
75,44,60
76,36,60
64,43,60
71,39,60
70,43,60
71,37,60
59,43,60
68,36,60
67,43,60
68,36,60
59,43,60
68,36,60
67,42,60
68,36,60
56,42,60
64,36,60
63,41,60
64,36,60
56,37,60
64,35,60
63,37,60
64,34,60
52,37,60
59,32,60
58,37,60
59,32,60
52,37,60
59,33,60
58,36,60
59,33,60
52,36,60
59,33,60
58,36,60
59,33,60
52,37,60
59,35,60
58,37,60
59,34,60
52,37,60
59,32,60
58,37,60
59,32,60
52,37,60
59,33,60
58,36,60
59,33,60
52,36,60
59,33,60
58,36,60
59,33,60
52,37,60
59,35,60
58,37,60
59,33,60
52,36,60
59,30,60
58,36,60
59,30,60
52,35,60
59,30,60
58,31,60
59,25,60
52,27,60
59,23,60
58,27,60
59,24,60
52,22,240
